{
  "jsonPath": "Classical/Classical Piano/Van Cliburn/liebestraum-no-3.json",
  "path": "Classical\\Classical Piano\\Van Cliburn\\Liebestraum No 3.mid",
  "name": "Liebestraum No 3",
  "difficulty": "Advanced",
  "bpm": 106.99993580003851,
  "notes": [
    {
      "midi": 51,
      "hit": false,
      "t": 2803.7400000000002,
      "d": 560.748,
      "v": 64
    },
    {
      "midi": 60,
      "hit": false,
      "t": 3364.4880000000003,
      "d": 1542.0569999999998,
      "v": 64
    },
    {
      "midi": 44,
      "hit": false,
      "t": 3364.4880000000003,
      "d": 560.748,
      "v": 56
    },
    {
      "midi": 63,
      "hit": false,
      "t": 3644.8620000000005,
      "d": 280.37400000000025,
      "v": 40
    },
    {
      "midi": 68,
      "hit": false,
      "t": 3925.236000000001,
      "d": 280.3739999999998,
      "v": 40
    },
    {
      "midi": 72,
      "hit": false,
      "t": 4205.610000000001,
      "d": 280.3739999999998,
      "v": 40
    },
    {
      "midi": 68,
      "hit": false,
      "t": 4485.984,
      "d": 280.3739999999998,
      "v": 40
    },
    {
      "midi": 63,
      "hit": false,
      "t": 4766.358,
      "d": 280.3739999999998,
      "v": 40
    },
    {
      "midi": 60,
      "hit": false,
      "t": 5046.732,
      "d": 1542.0569999999989,
      "v": 64
    },
    {
      "midi": 63,
      "hit": false,
      "t": 5327.106,
      "d": 280.3739999999998,
      "v": 40
    },
    {
      "midi": 68,
      "hit": false,
      "t": 5607.48,
      "d": 280.3739999999998,
      "v": 40
    },
    {
      "midi": 72,
      "hit": false,
      "t": 5887.853999999999,
      "d": 280.3739999999998,
      "v": 40
    },
    {
      "midi": 68,
      "hit": false,
      "t": 6168.227999999999,
      "d": 280.3739999999998,
      "v": 40
    },
    {
      "midi": 63,
      "hit": false,
      "t": 6448.601999999999,
      "d": 280.3739999999998,
      "v": 40
    },
    {
      "midi": 60,
      "hit": false,
      "t": 6728.975999999999,
      "d": 2803.739999999998,
      "v": 64
    },
    {
      "midi": 43,
      "hit": false,
      "t": 6728.9760000000015,
      "d": 560.7479999999996,
      "v": 56
    },
    {
      "midi": 64,
      "hit": false,
      "t": 7009.3499999999985,
      "d": 280.3739999999998,
      "v": 40
    },
    {
      "midi": 70,
      "hit": false,
      "t": 7289.723999999998,
      "d": 280.3739999999998,
      "v": 40
    },
    {
      "midi": 72,
      "hit": false,
      "t": 7570.097999999998,
      "d": 280.3739999999998,
      "v": 40
    },
    {
      "midi": 70,
      "hit": false,
      "t": 7850.471999999998,
      "d": 280.3739999999998,
      "v": 40
    },
    {
      "midi": 64,
      "hit": false,
      "t": 8130.845999999998,
      "d": 280.3739999999998,
      "v": 40
    },
    {
      "midi": 64,
      "hit": false,
      "t": 8691.593999999997,
      "d": 280.3739999999998,
      "v": 40
    },
    {
      "midi": 70,
      "hit": false,
      "t": 8971.967999999997,
      "d": 280.3739999999998,
      "v": 40
    },
    {
      "midi": 72,
      "hit": false,
      "t": 9252.341999999997,
      "d": 280.3739999999998,
      "v": 40
    },
    {
      "midi": 70,
      "hit": false,
      "t": 9532.715999999997,
      "d": 280.3739999999998,
      "v": 40
    },
    {
      "midi": 60,
      "hit": false,
      "t": 9532.715999999997,
      "d": 560.7480000000014,
      "v": 64
    },
    {
      "midi": 64,
      "hit": false,
      "t": 9813.089999999997,
      "d": 280.3740000000016,
      "v": 40
    },
    {
      "midi": 60,
      "hit": false,
      "t": 10093.463999999998,
      "d": 1121.4959999999992,
      "v": 64
    },
    {
      "midi": 41,
      "hit": false,
      "t": 10093.464000000002,
      "d": 560.7479999999996,
      "v": 56
    },
    {
      "midi": 63,
      "hit": false,
      "t": 10373.837999999998,
      "d": 280.3739999999998,
      "v": 40
    },
    {
      "midi": 69,
      "hit": false,
      "t": 10654.211999999998,
      "d": 280.3739999999998,
      "v": 40
    },
    {
      "midi": 72,
      "hit": false,
      "t": 10934.585999999998,
      "d": 280.3739999999998,
      "v": 40
    },
    {
      "midi": 69,
      "hit": false,
      "t": 11214.959999999997,
      "d": 280.3739999999998,
      "v": 40
    },
    {
      "midi": 60,
      "hit": false,
      "t": 11214.959999999997,
      "d": 560.7479999999996,
      "v": 64
    },
    {
      "midi": 63,
      "hit": false,
      "t": 11495.333999999997,
      "d": 280.3739999999998,
      "v": 40
    },
    {
      "midi": 61,
      "hit": false,
      "t": 11775.707999999997,
      "d": 1121.4959999999992,
      "v": 64
    },
    {
      "midi": 63,
      "hit": false,
      "t": 12056.081999999997,
      "d": 280.3739999999998,
      "v": 40
    },
    {
      "midi": 69,
      "hit": false,
      "t": 12336.455999999996,
      "d": 280.3739999999998,
      "v": 40
    },
    {
      "midi": 72,
      "hit": false,
      "t": 12616.829999999996,
      "d": 280.3739999999998,
      "v": 40
    },
    {
      "midi": 69,
      "hit": false,
      "t": 12897.203999999996,
      "d": 280.3739999999998,
      "v": 40
    },
    {
      "midi": 60,
      "hit": false,
      "t": 12897.203999999996,
      "d": 560.7479999999996,
      "v": 64
    },
    {
      "midi": 63,
      "hit": false,
      "t": 13177.577999999996,
      "d": 280.3739999999998,
      "v": 40
    },
    {
      "midi": 60,
      "hit": false,
      "t": 13457.951999999996,
      "d": 1682.2439999999988,
      "v": 64
    },
    {
      "midi": 34,
      "hit": false,
      "t": 13457.952000000001,
      "d": 560.7479999999996,
      "v": 56
    },
    {
      "midi": 62,
      "hit": false,
      "t": 13738.325999999995,
      "d": 280.3739999999998,
      "v": 40
    },
    {
      "midi": 68,
      "hit": false,
      "t": 14018.699999999995,
      "d": 280.3739999999998,
      "v": 40
    },
    {
      "midi": 72,
      "hit": false,
      "t": 14299.073999999995,
      "d": 280.3739999999998,
      "v": 40
    },
    {
      "midi": 68,
      "hit": false,
      "t": 14579.447999999995,
      "d": 280.3739999999998,
      "v": 40
    },
    {
      "midi": 62,
      "hit": false,
      "t": 14859.821999999995,
      "d": 280.3739999999998,
      "v": 40
    },
    {
      "midi": 53,
      "hit": false,
      "t": 15140.195999999994,
      "d": 560.7479999999996,
      "v": 64
    },
    {
      "midi": 62,
      "hit": false,
      "t": 15420.569999999994,
      "d": 280.3739999999998,
      "v": 40
    },
    {
      "midi": 68,
      "hit": false,
      "t": 15700.943999999994,
      "d": 280.3739999999998,
      "v": 40
    },
    {
      "midi": 72,
      "hit": false,
      "t": 15981.317999999994,
      "d": 280.3740000000016,
      "v": 40
    },
    {
      "midi": 68,
      "hit": false,
      "t": 16261.691999999995,
      "d": 280.3739999999998,
      "v": 40
    },
    {
      "midi": 53,
      "hit": false,
      "t": 16261.691999999995,
      "d": 560.7479999999996,
      "v": 64
    },
    {
      "midi": 62,
      "hit": false,
      "t": 16542.065999999995,
      "d": 280.3739999999998,
      "v": 40
    },
    {
      "midi": 39,
      "hit": false,
      "t": 16752.3465,
      "d": 630.8415000000023,
      "v": 56
    },
    {
      "midi": 53,
      "hit": false,
      "t": 16822.439999999995,
      "d": 560.7479999999996,
      "v": 64
    },
    {
      "midi": 61,
      "hit": false,
      "t": 17102.813999999995,
      "d": 280.3739999999998,
      "v": 40
    },
    {
      "midi": 63,
      "hit": false,
      "t": 17383.187999999995,
      "d": 280.3739999999998,
      "v": 40
    },
    {
      "midi": 55,
      "hit": false,
      "t": 17383.187999999995,
      "d": 560.7479999999996,
      "v": 64
    },
    {
      "midi": 72,
      "hit": false,
      "t": 17663.561999999994,
      "d": 280.3739999999998,
      "v": 40
    },
    {
      "midi": 63,
      "hit": false,
      "t": 17943.935999999994,
      "d": 280.3739999999998,
      "v": 40
    },
    {
      "midi": 56,
      "hit": false,
      "t": 17943.935999999994,
      "d": 560.7479999999996,
      "v": 64
    },
    {
      "midi": 61,
      "hit": false,
      "t": 18224.309999999994,
      "d": 280.3739999999998,
      "v": 40
    },
    {
      "midi": 51,
      "hit": false,
      "t": 18434.590500000002,
      "d": 630.8415000000023,
      "v": 56
    },
    {
      "midi": 60,
      "hit": false,
      "t": 18504.683999999994,
      "d": 1121.4960000000028,
      "v": 64
    },
    {
      "midi": 61,
      "hit": false,
      "t": 18785.057999999994,
      "d": 280.37400000000343,
      "v": 40
    },
    {
      "midi": 63,
      "hit": false,
      "t": 19065.431999999997,
      "d": 280.3739999999998,
      "v": 40
    },
    {
      "midi": 67,
      "hit": false,
      "t": 19345.805999999997,
      "d": 280.3739999999998,
      "v": 40
    },
    {
      "midi": 63,
      "hit": false,
      "t": 19626.179999999997,
      "d": 280.3739999999998,
      "v": 40
    },
    {
      "midi": 58,
      "hit": false,
      "t": 19626.179999999997,
      "d": 560.7479999999996,
      "v": 64
    },
    {
      "midi": 61,
      "hit": false,
      "t": 19906.553999999996,
      "d": 280.3739999999998,
      "v": 40
    },
    {
      "midi": 56,
      "hit": false,
      "t": 20186.927999999996,
      "d": 1682.2439999999988,
      "v": 64
    },
    {
      "midi": 44,
      "hit": false,
      "t": 20186.928000000004,
      "d": 560.7479999999996,
      "v": 56
    },
    {
      "midi": 60,
      "hit": false,
      "t": 20467.301999999996,
      "d": 280.3739999999998,
      "v": 40
    },
    {
      "midi": 63,
      "hit": false,
      "t": 20747.675999999996,
      "d": 280.3739999999998,
      "v": 40
    },
    {
      "midi": 68,
      "hit": false,
      "t": 21028.049999999996,
      "d": 280.3739999999998,
      "v": 40
    },
    {
      "midi": 63,
      "hit": false,
      "t": 21308.423999999995,
      "d": 280.3739999999998,
      "v": 40
    },
    {
      "midi": 60,
      "hit": false,
      "t": 21588.797999999995,
      "d": 280.3739999999998,
      "v": 40
    },
    {
      "midi": 32,
      "hit": false,
      "t": 21869.172000000002,
      "d": 560.7479999999996,
      "v": 56
    },
    {
      "midi": 56,
      "hit": false,
      "t": 22149.545999999995,
      "d": 280.3739999999998,
      "v": 40
    },
    {
      "midi": 60,
      "hit": false,
      "t": 22429.919999999995,
      "d": 280.3739999999998,
      "v": 40
    },
    {
      "midi": 68,
      "hit": false,
      "t": 22710.293999999994,
      "d": 280.3739999999998,
      "v": 40
    },
    {
      "midi": 63,
      "hit": false,
      "t": 22990.667999999994,
      "d": 280.3739999999998,
      "v": 40
    },
    {
      "midi": 51,
      "hit": false,
      "t": 22990.667999999994,
      "d": 560.7480000000032,
      "v": 64
    },
    {
      "midi": 56,
      "hit": false,
      "t": 23271.041999999994,
      "d": 280.37400000000343,
      "v": 40
    },
    {
      "midi": 60,
      "hit": false,
      "t": 23551.415999999997,
      "d": 1542.0570000000007,
      "v": 64
    },
    {
      "midi": 44,
      "hit": false,
      "t": 23551.416000000005,
      "d": 560.7479999999996,
      "v": 56
    },
    {
      "midi": 63,
      "hit": false,
      "t": 23831.789999999997,
      "d": 280.3739999999998,
      "v": 40
    },
    {
      "midi": 68,
      "hit": false,
      "t": 24112.163999999997,
      "d": 280.3739999999998,
      "v": 40
    },
    {
      "midi": 72,
      "hit": false,
      "t": 24392.537999999997,
      "d": 280.3739999999998,
      "v": 40
    },
    {
      "midi": 68,
      "hit": false,
      "t": 24672.911999999997,
      "d": 280.3739999999998,
      "v": 40
    },
    {
      "midi": 63,
      "hit": false,
      "t": 24953.285999999996,
      "d": 280.37400000000343,
      "v": 40
    },
    {
      "midi": 60,
      "hit": false,
      "t": 25233.66,
      "d": 1542.0570000000007,
      "v": 64
    },
    {
      "midi": 63,
      "hit": false,
      "t": 25514.034,
      "d": 280.3739999999998,
      "v": 40
    },
    {
      "midi": 68,
      "hit": false,
      "t": 25794.408,
      "d": 280.3739999999998,
      "v": 40
    },
    {
      "midi": 72,
      "hit": false,
      "t": 26074.782,
      "d": 280.3739999999998,
      "v": 40
    },
    {
      "midi": 68,
      "hit": false,
      "t": 26355.156,
      "d": 280.3739999999998,
      "v": 40
    },
    {
      "midi": 63,
      "hit": false,
      "t": 26635.53,
      "d": 280.37400000000343,
      "v": 40
    },
    {
      "midi": 60,
      "hit": false,
      "t": 26915.904000000002,
      "d": 2803.7400000000016,
      "v": 64
    },
    {
      "midi": 43,
      "hit": false,
      "t": 26915.904000000006,
      "d": 560.7479999999996,
      "v": 56
    },
    {
      "midi": 64,
      "hit": false,
      "t": 27196.278000000002,
      "d": 280.3739999999998,
      "v": 40
    },
    {
      "midi": 70,
      "hit": false,
      "t": 27476.652000000002,
      "d": 280.3739999999998,
      "v": 40
    },
    {
      "midi": 72,
      "hit": false,
      "t": 27757.026,
      "d": 280.3739999999998,
      "v": 40
    },
    {
      "midi": 70,
      "hit": false,
      "t": 28037.4,
      "d": 280.3739999999998,
      "v": 40
    },
    {
      "midi": 64,
      "hit": false,
      "t": 28317.774,
      "d": 280.37400000000343,
      "v": 40
    },
    {
      "midi": 42,
      "hit": false,
      "t": 28598.14800000001,
      "d": 560.7479999999996,
      "v": 56
    },
    {
      "midi": 64,
      "hit": false,
      "t": 28878.522000000004,
      "d": 280.3739999999998,
      "v": 40
    },
    {
      "midi": 70,
      "hit": false,
      "t": 29158.896000000004,
      "d": 280.3739999999998,
      "v": 40
    },
    {
      "midi": 72,
      "hit": false,
      "t": 29439.270000000004,
      "d": 280.3739999999998,
      "v": 40
    },
    {
      "midi": 70,
      "hit": false,
      "t": 29719.644000000004,
      "d": 280.3739999999998,
      "v": 40
    },
    {
      "midi": 60,
      "hit": false,
      "t": 29719.644000000004,
      "d": 560.7479999999996,
      "v": 64
    },
    {
      "midi": 64,
      "hit": false,
      "t": 30000.018000000004,
      "d": 280.3739999999998,
      "v": 40
    },
    {
      "midi": 60,
      "hit": false,
      "t": 30280.392000000003,
      "d": 1121.4959999999992,
      "v": 64
    },
    {
      "midi": 41,
      "hit": false,
      "t": 30280.392000000007,
      "d": 560.7479999999996,
      "v": 56
    },
    {
      "midi": 63,
      "hit": false,
      "t": 30560.766000000003,
      "d": 280.3739999999998,
      "v": 40
    },
    {
      "midi": 69,
      "hit": false,
      "t": 30841.140000000003,
      "d": 280.3739999999998,
      "v": 40
    },
    {
      "midi": 72,
      "hit": false,
      "t": 31121.514000000003,
      "d": 280.3739999999998,
      "v": 40
    },
    {
      "midi": 69,
      "hit": false,
      "t": 31401.888000000003,
      "d": 280.3739999999998,
      "v": 40
    },
    {
      "midi": 60,
      "hit": false,
      "t": 31401.888000000003,
      "d": 560.7479999999996,
      "v": 64
    },
    {
      "midi": 63,
      "hit": false,
      "t": 31682.262000000002,
      "d": 280.3739999999998,
      "v": 40
    },
    {
      "midi": 61,
      "hit": false,
      "t": 31962.636000000002,
      "d": 1121.4960000000028,
      "v": 64
    },
    {
      "midi": 53,
      "hit": false,
      "t": 31962.636000000006,
      "d": 560.7479999999996,
      "v": 56
    },
    {
      "midi": 57,
      "hit": false,
      "t": 31962.636000000006,
      "d": 560.7479999999996,
      "v": 56
    },
    {
      "midi": 63,
      "hit": false,
      "t": 32243.010000000002,
      "d": 280.3739999999998,
      "v": 40
    },
    {
      "midi": 69,
      "hit": false,
      "t": 32523.384000000002,
      "d": 280.3739999999998,
      "v": 40
    },
    {
      "midi": 72,
      "hit": false,
      "t": 32803.758,
      "d": 280.37400000000343,
      "v": 40
    },
    {
      "midi": 69,
      "hit": false,
      "t": 33084.132000000005,
      "d": 280.37400000000343,
      "v": 40
    },
    {
      "midi": 60,
      "hit": false,
      "t": 33084.132000000005,
      "d": 560.7479999999996,
      "v": 64
    },
    {
      "midi": 63,
      "hit": false,
      "t": 33364.50600000001,
      "d": 280.37399999999616,
      "v": 40
    },
    {
      "midi": 46,
      "hit": false,
      "t": 33574.7865,
      "d": 630.8415000000023,
      "v": 56
    },
    {
      "midi": 65,
      "hit": false,
      "t": 33644.880000000005,
      "d": 1682.2440000000206,
      "v": 64
    },
    {
      "midi": 62,
      "hit": false,
      "t": 33925.25400000001,
      "d": 280.37400000000343,
      "v": 40
    },
    {
      "midi": 68,
      "hit": false,
      "t": 34205.62800000001,
      "d": 280.37400000000343,
      "v": 40
    },
    {
      "midi": 77,
      "hit": false,
      "t": 34486.002000000015,
      "d": 280.37400000000343,
      "v": 40
    },
    {
      "midi": 72,
      "hit": false,
      "t": 34766.37600000002,
      "d": 280.37400000000343,
      "v": 40
    },
    {
      "midi": 68,
      "hit": false,
      "t": 35046.75000000002,
      "d": 280.37400000000343,
      "v": 40
    },
    {
      "midi": 34,
      "hit": false,
      "t": 35327.124,
      "d": 560.7479999999996,
      "v": 56
    },
    {
      "midi": 56,
      "hit": false,
      "t": 35607.49800000003,
      "d": 280.37400000000343,
      "v": 40
    },
    {
      "midi": 58,
      "hit": false,
      "t": 35887.87200000003,
      "d": 280.37400000000343,
      "v": 40
    },
    {
      "midi": 65,
      "hit": false,
      "t": 36168.246000000036,
      "d": 280.37400000000343,
      "v": 40
    },
    {
      "midi": 62,
      "hit": false,
      "t": 36448.62000000004,
      "d": 280.37400000000343,
      "v": 40
    },
    {
      "midi": 53,
      "hit": false,
      "t": 36448.62000000004,
      "d": 560.7480000000069,
      "v": 64
    },
    {
      "midi": 58,
      "hit": false,
      "t": 36728.99400000004,
      "d": 280.37400000000343,
      "v": 40
    },
    {
      "midi": 39,
      "hit": false,
      "t": 36939.2745,
      "d": 630.841499999995,
      "v": 56
    },
    {
      "midi": 53,
      "hit": false,
      "t": 37009.368000000046,
      "d": 560.7480000000069,
      "v": 64
    },
    {
      "midi": 58,
      "hit": false,
      "t": 37289.74200000005,
      "d": 280.37400000000343,
      "v": 40
    },
    {
      "midi": 61,
      "hit": false,
      "t": 37570.11600000005,
      "d": 280.37400000000343,
      "v": 40
    },
    {
      "midi": 55,
      "hit": false,
      "t": 37570.11600000005,
      "d": 560.7480000000069,
      "v": 64
    },
    {
      "midi": 67,
      "hit": false,
      "t": 37850.490000000056,
      "d": 280.37400000000343,
      "v": 40
    },
    {
      "midi": 63,
      "hit": false,
      "t": 38130.86400000006,
      "d": 280.37400000000343,
      "v": 40
    },
    {
      "midi": 56,
      "hit": false,
      "t": 38130.86400000006,
      "d": 560.7479999999996,
      "v": 64
    },
    {
      "midi": 61,
      "hit": false,
      "t": 38411.23800000006,
      "d": 280.37399999999616,
      "v": 40
    },
    {
      "midi": 51,
      "hit": false,
      "t": 38691.611999999994,
      "d": 560.7480000000069,
      "v": 56
    },
    {
      "midi": 60,
      "hit": false,
      "t": 38691.61200000006,
      "d": 1121.4960000000137,
      "v": 64
    },
    {
      "midi": 61,
      "hit": false,
      "t": 38971.98600000006,
      "d": 280.37400000000343,
      "v": 40
    },
    {
      "midi": 63,
      "hit": false,
      "t": 39252.360000000066,
      "d": 280.37400000000343,
      "v": 40
    },
    {
      "midi": 67,
      "hit": false,
      "t": 39532.73400000007,
      "d": 280.37400000000343,
      "v": 40
    },
    {
      "midi": 63,
      "hit": false,
      "t": 39813.10800000007,
      "d": 280.37400000000343,
      "v": 40
    },
    {
      "midi": 58,
      "hit": false,
      "t": 39813.10800000007,
      "d": 560.7479999999996,
      "v": 64
    },
    {
      "midi": 61,
      "hit": false,
      "t": 40093.48200000008,
      "d": 280.37399999999616,
      "v": 40
    },
    {
      "midi": 44,
      "hit": false,
      "t": 40373.856,
      "d": 560.7479999999996,
      "v": 56
    },
    {
      "midi": 56,
      "hit": false,
      "t": 40373.85600000007,
      "d": 560.7480000000069,
      "v": 64
    },
    {
      "midi": 60,
      "hit": false,
      "t": 40654.230000000076,
      "d": 280.37400000000343,
      "v": 40
    },
    {
      "midi": 63,
      "hit": false,
      "t": 40934.60400000008,
      "d": 280.37400000000343,
      "v": 40
    },
    {
      "midi": 68,
      "hit": false,
      "t": 41214.97800000008,
      "d": 280.37400000000343,
      "v": 40
    },
    {
      "midi": 63,
      "hit": false,
      "t": 41495.352000000086,
      "d": 280.37400000000343,
      "v": 40
    },
    {
      "midi": 60,
      "hit": false,
      "t": 41775.72600000009,
      "d": 280.37400000000343,
      "v": 40
    },
    {
      "midi": 32,
      "hit": false,
      "t": 42056.1,
      "d": 560.7479999999996,
      "v": 56
    },
    {
      "midi": 60,
      "hit": false,
      "t": 42336.4740000001,
      "d": 280.37400000000343,
      "v": 40
    },
    {
      "midi": 68,
      "hit": false,
      "t": 42616.8480000001,
      "d": 280.37400000000343,
      "v": 40
    },
    {
      "midi": 63,
      "hit": false,
      "t": 42897.2220000001,
      "d": 280.37400000000343,
      "v": 40
    },
    {
      "midi": 60,
      "hit": false,
      "t": 43177.59600000011,
      "d": 280.37399999999616,
      "v": 40
    },
    {
      "midi": 56,
      "hit": false,
      "t": 43457.9700000001,
      "d": 280.37400000000343,
      "v": 64
    },
    {
      "midi": 40,
      "hit": false,
      "t": 43738.344,
      "d": 560.7480000000069,
      "v": 56
    },
    {
      "midi": 56,
      "hit": false,
      "t": 43738.34400000011,
      "d": 1401.8700000000172,
      "v": 64
    },
    {
      "midi": 61,
      "hit": false,
      "t": 44018.71800000011,
      "d": 280.37400000000343,
      "v": 40
    },
    {
      "midi": 68,
      "hit": false,
      "t": 44299.09200000011,
      "d": 280.37400000000343,
      "v": 40
    },
    {
      "midi": 64,
      "hit": false,
      "t": 44579.46600000012,
      "d": 280.37400000000343,
      "v": 40
    },
    {
      "midi": 61,
      "hit": false,
      "t": 44859.84000000012,
      "d": 560.7479999999996,
      "v": 40
    },
    {
      "midi": 55,
      "hit": false,
      "t": 45140.21400000012,
      "d": 280.37399999999616,
      "v": 64
    },
    {
      "midi": 37,
      "hit": false,
      "t": 45420.588,
      "d": 560.7479999999996,
      "v": 56
    },
    {
      "midi": 52,
      "hit": false,
      "t": 45420.588,
      "d": 560.7479999999996,
      "v": 56
    },
    {
      "midi": 56,
      "hit": false,
      "t": 45420.58800000012,
      "d": 1401.8700000000172,
      "v": 64
    },
    {
      "midi": 61,
      "hit": false,
      "t": 45700.96200000012,
      "d": 280.37400000000343,
      "v": 40
    },
    {
      "midi": 68,
      "hit": false,
      "t": 45981.33600000013,
      "d": 280.37400000000343,
      "v": 40
    },
    {
      "midi": 64,
      "hit": false,
      "t": 46261.71000000013,
      "d": 280.37400000000343,
      "v": 40
    },
    {
      "midi": 61,
      "hit": false,
      "t": 46542.08400000013,
      "d": 280.37400000000343,
      "v": 40
    },
    {
      "midi": 58,
      "hit": false,
      "t": 46822.45800000014,
      "d": 280.37400000000343,
      "v": 64
    },
    {
      "midi": 44,
      "hit": false,
      "t": 47102.832,
      "d": 560.7479999999996,
      "v": 56
    },
    {
      "midi": 51,
      "hit": false,
      "t": 47102.832,
      "d": 560.7479999999996,
      "v": 56
    },
    {
      "midi": 63,
      "hit": false,
      "t": 47383.20600000014,
      "d": 280.37400000000343,
      "v": 40
    },
    {
      "midi": 72,
      "hit": false,
      "t": 47663.58000000014,
      "d": 280.37400000000343,
      "v": 40
    },
    {
      "midi": 68,
      "hit": false,
      "t": 47943.95400000014,
      "d": 280.37400000000343,
      "v": 40
    },
    {
      "midi": 63,
      "hit": false,
      "t": 48224.32800000015,
      "d": 280.37400000000343,
      "v": 40
    },
    {
      "midi": 60,
      "hit": false,
      "t": 48504.70200000015,
      "d": 280.37399999999616,
      "v": 40
    },
    {
      "midi": 32,
      "hit": false,
      "t": 48785.076,
      "d": 560.7480000000069,
      "v": 56
    },
    {
      "midi": 63,
      "hit": false,
      "t": 49065.45000000015,
      "d": 280.37400000000343,
      "v": 40
    },
    {
      "midi": 72,
      "hit": false,
      "t": 49345.82400000015,
      "d": 280.37400000000343,
      "v": 40
    },
    {
      "midi": 68,
      "hit": false,
      "t": 49626.19800000016,
      "d": 280.37400000000343,
      "v": 40
    },
    {
      "midi": 63,
      "hit": false,
      "t": 49906.57200000016,
      "d": 280.37400000000343,
      "v": 40
    },
    {
      "midi": 60,
      "hit": false,
      "t": 50186.94600000016,
      "d": 280.37399999999616,
      "v": 64
    },
    {
      "midi": 44,
      "hit": false,
      "t": 50467.32000000001,
      "d": 560.7480000000069,
      "v": 56
    },
    {
      "midi": 60,
      "hit": false,
      "t": 50467.32000000016,
      "d": 1401.8700000000172,
      "v": 64
    },
    {
      "midi": 65,
      "hit": false,
      "t": 50747.69400000016,
      "d": 280.37400000000343,
      "v": 40
    },
    {
      "midi": 72,
      "hit": false,
      "t": 51028.06800000017,
      "d": 280.37400000000343,
      "v": 40
    },
    {
      "midi": 68,
      "hit": false,
      "t": 51308.44200000017,
      "d": 280.37400000000343,
      "v": 40
    },
    {
      "midi": 65,
      "hit": false,
      "t": 51588.81600000017,
      "d": 280.37400000000343,
      "v": 40
    },
    {
      "midi": 59,
      "hit": false,
      "t": 51869.19000000018,
      "d": 280.37399999999616,
      "v": 64
    },
    {
      "midi": 41,
      "hit": false,
      "t": 52149.56400000001,
      "d": 560.7479999999996,
      "v": 56
    },
    {
      "midi": 60,
      "hit": false,
      "t": 52149.56400000017,
      "d": 1401.8700000000172,
      "v": 64
    },
    {
      "midi": 65,
      "hit": false,
      "t": 52429.93800000018,
      "d": 280.37400000000343,
      "v": 40
    },
    {
      "midi": 72,
      "hit": false,
      "t": 52710.31200000018,
      "d": 280.37400000000343,
      "v": 40
    },
    {
      "midi": 68,
      "hit": false,
      "t": 52990.68600000018,
      "d": 280.37400000000343,
      "v": 40
    },
    {
      "midi": 65,
      "hit": false,
      "t": 53271.06000000019,
      "d": 280.37400000000343,
      "v": 40
    },
    {
      "midi": 62,
      "hit": false,
      "t": 53551.43400000019,
      "d": 280.37399999999616,
      "v": 64
    },
    {
      "midi": 36,
      "hit": false,
      "t": 53831.80800000001,
      "d": 560.7479999999996,
      "v": 56
    },
    {
      "midi": 55,
      "hit": false,
      "t": 53831.80800000001,
      "d": 560.7479999999996,
      "v": 56
    },
    {
      "midi": 64,
      "hit": false,
      "t": 53831.80800000019,
      "d": 1682.2440000000206,
      "v": 64
    },
    {
      "midi": 67,
      "hit": false,
      "t": 54112.18200000019,
      "d": 280.37400000000343,
      "v": 40
    },
    {
      "midi": 72,
      "hit": false,
      "t": 54392.55600000019,
      "d": 280.37400000000343,
      "v": 40
    },
    {
      "midi": 76,
      "hit": false,
      "t": 54672.9300000002,
      "d": 280.37400000000343,
      "v": 40
    },
    {
      "midi": 72,
      "hit": false,
      "t": 54953.3040000002,
      "d": 280.37400000000343,
      "v": 40
    },
    {
      "midi": 67,
      "hit": false,
      "t": 55233.6780000002,
      "d": 280.37400000000343,
      "v": 40
    },
    {
      "midi": 64,
      "hit": false,
      "t": 55514.05200000021,
      "d": 1682.2440000000133,
      "v": 64
    },
    {
      "midi": 67,
      "hit": false,
      "t": 55794.42600000021,
      "d": 280.37400000000343,
      "v": 40
    },
    {
      "midi": 72,
      "hit": false,
      "t": 56074.800000000214,
      "d": 280.37400000000343,
      "v": 40
    },
    {
      "midi": 76,
      "hit": false,
      "t": 56355.17400000022,
      "d": 280.37400000000343,
      "v": 40
    },
    {
      "midi": 72,
      "hit": false,
      "t": 56635.54800000022,
      "d": 280.37400000000343,
      "v": 40
    },
    {
      "midi": 67,
      "hit": false,
      "t": 56915.922000000224,
      "d": 280.37399999999616,
      "v": 40
    },
    {
      "midi": 45,
      "hit": false,
      "t": 57196.29600000001,
      "d": 560.7479999999996,
      "v": 56
    },
    {
      "midi": 52,
      "hit": false,
      "t": 57196.29600000001,
      "d": 560.7479999999996,
      "v": 56
    },
    {
      "midi": 60,
      "hit": false,
      "t": 57196.29600000001,
      "d": 560.7479999999996,
      "v": 56
    },
    {
      "midi": 64,
      "hit": false,
      "t": 57196.29600000022,
      "d": 1682.2440000000206,
      "v": 64
    },
    {
      "midi": 69,
      "hit": false,
      "t": 57476.670000000224,
      "d": 280.37400000000343,
      "v": 40
    },
    {
      "midi": 72,
      "hit": false,
      "t": 57757.04400000023,
      "d": 280.37400000000343,
      "v": 40
    },
    {
      "midi": 76,
      "hit": false,
      "t": 58037.41800000023,
      "d": 280.37400000000343,
      "v": 40
    },
    {
      "midi": 72,
      "hit": false,
      "t": 58317.792000000234,
      "d": 280.37400000000343,
      "v": 40
    },
    {
      "midi": 69,
      "hit": false,
      "t": 58598.16600000024,
      "d": 280.37400000000343,
      "v": 40
    },
    {
      "midi": 64,
      "hit": false,
      "t": 58878.54000000024,
      "d": 1682.2440000000206,
      "v": 64
    },
    {
      "midi": 69,
      "hit": false,
      "t": 59158.914000000244,
      "d": 280.37400000000343,
      "v": 40
    },
    {
      "midi": 72,
      "hit": false,
      "t": 59439.28800000025,
      "d": 280.37400000000343,
      "v": 40
    },
    {
      "midi": 76,
      "hit": false,
      "t": 59719.66200000025,
      "d": 280.37400000000343,
      "v": 40
    },
    {
      "midi": 72,
      "hit": false,
      "t": 60000.036000000255,
      "d": 280.37400000000343,
      "v": 40
    },
    {
      "midi": 69,
      "hit": false,
      "t": 60280.41000000026,
      "d": 280.37400000000343,
      "v": 40
    },
    {
      "midi": 40,
      "hit": false,
      "t": 60560.78400000001,
      "d": 560.7479999999996,
      "v": 56
    },
    {
      "midi": 47,
      "hit": false,
      "t": 60560.78400000001,
      "d": 560.7479999999996,
      "v": 56
    },
    {
      "midi": 56,
      "hit": false,
      "t": 60560.78400000001,
      "d": 560.7479999999996,
      "v": 56
    },
    {
      "midi": 64,
      "hit": false,
      "t": 60560.78400000026,
      "d": 1682.2440000000133,
      "v": 64
    },
    {
      "midi": 68,
      "hit": false,
      "t": 60841.15800000026,
      "d": 280.37400000000343,
      "v": 40
    },
    {
      "midi": 71,
      "hit": false,
      "t": 61121.53200000026,
      "d": 280.37400000000343,
      "v": 40
    },
    {
      "midi": 76,
      "hit": false,
      "t": 61401.906000000265,
      "d": 280.37400000000343,
      "v": 39
    },
    {
      "midi": 71,
      "hit": false,
      "t": 61682.28000000027,
      "d": 280.37400000000343,
      "v": 39
    },
    {
      "midi": 68,
      "hit": false,
      "t": 61962.65400000027,
      "d": 280.37400000000343,
      "v": 39
    },
    {
      "midi": 59,
      "hit": false,
      "t": 62243.028000000275,
      "d": 1682.2440000000133,
      "v": 62
    },
    {
      "midi": 64,
      "hit": false,
      "t": 62523.40200000028,
      "d": 280.37400000000343,
      "v": 38
    },
    {
      "midi": 68,
      "hit": false,
      "t": 62803.77600000028,
      "d": 280.37400000000343,
      "v": 38
    },
    {
      "midi": 71,
      "hit": false,
      "t": 63084.150000000285,
      "d": 280.37400000000343,
      "v": 38
    },
    {
      "midi": 68,
      "hit": false,
      "t": 63364.52400000029,
      "d": 280.37399999999616,
      "v": 38
    },
    {
      "midi": 64,
      "hit": false,
      "t": 63644.898000000285,
      "d": 280.37400000000343,
      "v": 38
    },
    {
      "midi": 40,
      "hit": false,
      "t": 63925.272000000004,
      "d": 560.7479999999996,
      "v": 53
    },
    {
      "midi": 56,
      "hit": false,
      "t": 63925.272000000004,
      "d": 560.7479999999996,
      "v": 53
    },
    {
      "midi": 64,
      "hit": false,
      "t": 64205.646000000284,
      "d": 280.37400000000343,
      "v": 37
    },
    {
      "midi": 68,
      "hit": false,
      "t": 64486.02000000029,
      "d": 280.37400000000343,
      "v": 37
    },
    {
      "midi": 73,
      "hit": false,
      "t": 64766.39400000029,
      "d": 280.37400000000343,
      "v": 37
    },
    {
      "midi": 68,
      "hit": false,
      "t": 65046.768000000295,
      "d": 280.37400000000343,
      "v": 37
    },
    {
      "midi": 64,
      "hit": false,
      "t": 65327.1420000003,
      "d": 280.37399999999616,
      "v": 36
    },
    {
      "midi": 61,
      "hit": false,
      "t": 65887.89000000029,
      "d": 280.37399999999616,
      "v": 36
    },
    {
      "midi": 64,
      "hit": false,
      "t": 66168.26400000029,
      "d": 280.37399999999616,
      "v": 36
    },
    {
      "midi": 68,
      "hit": false,
      "t": 66448.63800000028,
      "d": 280.37399999999616,
      "v": 36
    },
    {
      "midi": 64,
      "hit": false,
      "t": 66729.01200000028,
      "d": 280.37399999999616,
      "v": 36
    },
    {
      "midi": 56,
      "hit": false,
      "t": 66729.01200000028,
      "d": 560.7479999999923,
      "v": 57
    },
    {
      "midi": 61,
      "hit": false,
      "t": 67009.38600000028,
      "d": 280.37399999999616,
      "v": 36
    },
    {
      "midi": 39,
      "hit": false,
      "t": 67289.76000000001,
      "d": 560.7480000000069,
      "v": 49
    },
    {
      "midi": 55,
      "hit": false,
      "t": 67289.76000000001,
      "d": 560.7480000000069,
      "v": 49
    },
    {
      "midi": 58,
      "hit": false,
      "t": 67289.76000000027,
      "d": 1682.2439999999915,
      "v": 56
    },
    {
      "midi": 63,
      "hit": false,
      "t": 67570.13400000028,
      "d": 280.37399999999616,
      "v": 35
    },
    {
      "midi": 67,
      "hit": false,
      "t": 67850.50800000028,
      "d": 280.37399999999616,
      "v": 35
    },
    {
      "midi": 70,
      "hit": false,
      "t": 68130.88200000027,
      "d": 280.37399999999616,
      "v": 35
    },
    {
      "midi": 67,
      "hit": false,
      "t": 68411.25600000027,
      "d": 280.37399999999616,
      "v": 34
    },
    {
      "midi": 63,
      "hit": false,
      "t": 68691.63000000027,
      "d": 280.37399999999616,
      "v": 34
    },
    {
      "midi": 40,
      "hit": false,
      "t": 68972.00400000002,
      "d": 560.7480000000069,
      "v": 48
    },
    {
      "midi": 56,
      "hit": false,
      "t": 68972.00400000002,
      "d": 560.7480000000069,
      "v": 48
    },
    {
      "midi": 61,
      "hit": false,
      "t": 68972.00400000026,
      "d": 1121.4959999999992,
      "v": 55
    },
    {
      "midi": 64,
      "hit": false,
      "t": 69252.37800000027,
      "d": 280.37399999999616,
      "v": 34
    },
    {
      "midi": 68,
      "hit": false,
      "t": 69532.75200000027,
      "d": 280.37399999999616,
      "v": 34
    },
    {
      "midi": 73,
      "hit": false,
      "t": 69813.12600000027,
      "d": 280.37399999999616,
      "v": 34
    },
    {
      "midi": 68,
      "hit": false,
      "t": 70093.50000000026,
      "d": 280.37399999999616,
      "v": 33
    },
    {
      "midi": 59,
      "hit": false,
      "t": 70093.50000000026,
      "d": 560.7479999999923,
      "v": 53
    },
    {
      "midi": 64,
      "hit": false,
      "t": 70373.87400000026,
      "d": 280.37399999999616,
      "v": 33
    },
    {
      "midi": 39,
      "hit": false,
      "t": 70654.24800000002,
      "d": 560.7480000000069,
      "v": 46
    },
    {
      "midi": 55,
      "hit": false,
      "t": 70654.24800000002,
      "d": 560.7480000000069,
      "v": 46
    },
    {
      "midi": 58,
      "hit": false,
      "t": 70654.24800000025,
      "d": 560.7480000000069,
      "v": 53
    },
    {
      "midi": 63,
      "hit": false,
      "t": 70934.62200000026,
      "d": 280.37399999999616,
      "v": 33
    },
    {
      "midi": 67,
      "hit": false,
      "t": 71214.99600000026,
      "d": 280.37399999999616,
      "v": 32
    },
    {
      "midi": 57,
      "hit": false,
      "t": 71214.99600000026,
      "d": 560.7479999999923,
      "v": 52
    },
    {
      "midi": 70,
      "hit": false,
      "t": 71495.37000000026,
      "d": 280.37399999999616,
      "v": 32
    },
    {
      "midi": 67,
      "hit": false,
      "t": 71775.74400000025,
      "d": 280.37399999999616,
      "v": 32
    },
    {
      "midi": 58,
      "hit": false,
      "t": 71775.74400000025,
      "d": 560.7479999999923,
      "v": 51
    },
    {
      "midi": 63,
      "hit": false,
      "t": 72056.11800000025,
      "d": 280.37399999999616,
      "v": 32
    },
    {
      "midi": 40,
      "hit": false,
      "t": 72336.49200000003,
      "d": 560.7479999999923,
      "v": 44
    },
    {
      "midi": 56,
      "hit": false,
      "t": 72336.49200000003,
      "d": 560.7479999999923,
      "v": 44
    },
    {
      "midi": 61,
      "hit": false,
      "t": 72336.49200000025,
      "d": 1121.4959999999846,
      "v": 51
    },
    {
      "midi": 64,
      "hit": false,
      "t": 72616.86600000024,
      "d": 280.37399999999616,
      "v": 32
    },
    {
      "midi": 68,
      "hit": false,
      "t": 72897.24000000024,
      "d": 280.37399999999616,
      "v": 32
    },
    {
      "midi": 73,
      "hit": false,
      "t": 73177.61400000023,
      "d": 280.37399999999616,
      "v": 31
    },
    {
      "midi": 68,
      "hit": false,
      "t": 73457.98800000023,
      "d": 280.37399999999616,
      "v": 31
    },
    {
      "midi": 59,
      "hit": false,
      "t": 73457.98800000023,
      "d": 560.7480000000069,
      "v": 50
    },
    {
      "midi": 64,
      "hit": false,
      "t": 73738.36200000023,
      "d": 280.3740000000107,
      "v": 31
    },
    {
      "midi": 39,
      "hit": false,
      "t": 74018.73600000002,
      "d": 560.7480000000069,
      "v": 43
    },
    {
      "midi": 55,
      "hit": false,
      "t": 74018.73600000002,
      "d": 560.7480000000069,
      "v": 43
    },
    {
      "midi": 58,
      "hit": false,
      "t": 74018.73600000024,
      "d": 560.7479999999923,
      "v": 49
    },
    {
      "midi": 63,
      "hit": false,
      "t": 74299.11000000023,
      "d": 280.37399999999616,
      "v": 30
    },
    {
      "midi": 67,
      "hit": false,
      "t": 74579.48400000023,
      "d": 280.37399999999616,
      "v": 30
    },
    {
      "midi": 57,
      "hit": false,
      "t": 74579.48400000023,
      "d": 560.7479999999923,
      "v": 49
    },
    {
      "midi": 70,
      "hit": false,
      "t": 74859.85800000023,
      "d": 280.37399999999616,
      "v": 30
    },
    {
      "midi": 67,
      "hit": false,
      "t": 75140.23200000022,
      "d": 280.37399999999616,
      "v": 30
    },
    {
      "midi": 58,
      "hit": false,
      "t": 75140.23200000022,
      "d": 560.7479999999923,
      "v": 48
    },
    {
      "midi": 63,
      "hit": false,
      "t": 75420.60600000022,
      "d": 280.37399999999616,
      "v": 30
    },
    {
      "midi": 37,
      "hit": false,
      "t": 75700.98000000003,
      "d": 560.7479999999923,
      "v": 42
    },
    {
      "midi": 49,
      "hit": false,
      "t": 75700.98000000003,
      "d": 560.7479999999923,
      "v": 42
    },
    {
      "midi": 64,
      "hit": false,
      "t": 75700.98000000021,
      "d": 1682.243999999977,
      "v": 48
    },
    {
      "midi": 68,
      "hit": false,
      "t": 75981.35400000021,
      "d": 280.37399999999616,
      "v": 29
    },
    {
      "midi": 56,
      "hit": false,
      "t": 76261.72800000002,
      "d": 560.7480000000069,
      "v": 41
    },
    {
      "midi": 70,
      "hit": false,
      "t": 76261.7280000002,
      "d": 280.37399999999616,
      "v": 29
    },
    {
      "midi": 76,
      "hit": false,
      "t": 76542.1020000002,
      "d": 280.37399999999616,
      "v": 29
    },
    {
      "midi": 58,
      "hit": false,
      "t": 76822.47600000002,
      "d": 560.7480000000069,
      "v": 40
    },
    {
      "midi": 70,
      "hit": false,
      "t": 76822.4760000002,
      "d": 280.37399999999616,
      "v": 29
    },
    {
      "midi": 68,
      "hit": false,
      "t": 77102.8500000002,
      "d": 280.37399999999616,
      "v": 28
    },
    {
      "midi": 64,
      "hit": false,
      "t": 77383.22400000019,
      "d": 560.7479999999923,
      "v": 46
    },
    {
      "midi": 63,
      "hit": false,
      "t": 77943.97200000018,
      "d": 560.7480000000069,
      "v": 40
    },
    {
      "midi": 61,
      "hit": false,
      "t": 78504.72000000019,
      "d": 560.7480000000069,
      "v": 38
    },
    {
      "midi": 59,
      "hit": false,
      "t": 79065.4680000002,
      "d": 560.7480000000069,
      "v": 36
    },
    {
      "midi": 58,
      "hit": false,
      "t": 79626.2160000002,
      "d": 560.7480000000069,
      "v": 34
    },
    {
      "midi": 56,
      "hit": false,
      "t": 80186.96400000021,
      "d": 560.7480000000069,
      "v": 32
    },
    {
      "midi": 55,
      "hit": false,
      "t": 80747.71200000022,
      "d": 560.7480000000069,
      "v": 29
    },
    {
      "midi": 39,
      "hit": false,
      "t": 82429.95600000022,
      "d": 280.37399999999616,
      "v": 18
    },
    {
      "midi": 46,
      "hit": false,
      "t": 82710.33000000022,
      "d": 280.37399999999616,
      "v": 18
    },
    {
      "midi": 49,
      "hit": false,
      "t": 82990.70400000022,
      "d": 280.37399999999616,
      "v": 19
    },
    {
      "midi": 55,
      "hit": false,
      "t": 83271.07800000021,
      "d": 280.37399999999616,
      "v": 19
    },
    {
      "midi": 58,
      "hit": false,
      "t": 83551.45200000021,
      "d": 280.37399999999616,
      "v": 20
    },
    {
      "midi": 61,
      "hit": false,
      "t": 83831.8260000002,
      "d": 280.37399999999616,
      "v": 20
    },
    {
      "midi": 64,
      "hit": false,
      "t": 84112.2000000002,
      "d": 280.37399999999616,
      "v": 35
    },
    {
      "midi": 63,
      "hit": false,
      "t": 84392.5740000002,
      "d": 280.37399999999616,
      "v": 36
    },
    {
      "midi": 64,
      "hit": false,
      "t": 84672.9480000002,
      "d": 140.18700000000536,
      "v": 32
    },
    {
      "midi": 68,
      "hit": false,
      "t": 84672.9480000002,
      "d": 140.18700000000536,
      "v": 32
    },
    {
      "midi": 63,
      "hit": false,
      "t": 84813.1350000002,
      "d": 140.18700000000536,
      "v": 33
    },
    {
      "midi": 67,
      "hit": false,
      "t": 84813.1350000002,
      "d": 140.18700000000536,
      "v": 33
    },
    {
      "midi": 64,
      "hit": false,
      "t": 84953.32200000003,
      "d": 140.18700000000536,
      "v": 29
    },
    {
      "midi": 68,
      "hit": false,
      "t": 84953.3220000002,
      "d": 140.18700000000536,
      "v": 33
    },
    {
      "midi": 73,
      "hit": false,
      "t": 84953.3220000002,
      "d": 140.18700000000536,
      "v": 33
    },
    {
      "midi": 63,
      "hit": false,
      "t": 85093.50900000003,
      "d": 140.18700000000536,
      "v": 30
    },
    {
      "midi": 67,
      "hit": false,
      "t": 85093.50900000021,
      "d": 140.18700000000536,
      "v": 34
    },
    {
      "midi": 70,
      "hit": false,
      "t": 85093.50900000021,
      "d": 140.18700000000536,
      "v": 34
    },
    {
      "midi": 68,
      "hit": false,
      "t": 85233.69600000004,
      "d": 140.18700000000536,
      "v": 31
    },
    {
      "midi": 73,
      "hit": false,
      "t": 85233.69600000021,
      "d": 140.18700000000536,
      "v": 34
    },
    {
      "midi": 76,
      "hit": false,
      "t": 85233.69600000021,
      "d": 140.18700000000536,
      "v": 34
    },
    {
      "midi": 67,
      "hit": false,
      "t": 85373.88300000005,
      "d": 140.18700000000536,
      "v": 32
    },
    {
      "midi": 70,
      "hit": false,
      "t": 85373.88300000022,
      "d": 140.18700000000536,
      "v": 36
    },
    {
      "midi": 75,
      "hit": false,
      "t": 85373.88300000022,
      "d": 140.18700000000536,
      "v": 36
    },
    {
      "midi": 73,
      "hit": false,
      "t": 85514.07000000005,
      "d": 140.18700000000536,
      "v": 33
    },
    {
      "midi": 76,
      "hit": false,
      "t": 85514.07000000023,
      "d": 140.18700000000536,
      "v": 36
    },
    {
      "midi": 80,
      "hit": false,
      "t": 85514.07000000023,
      "d": 140.18700000000536,
      "v": 36
    },
    {
      "midi": 70,
      "hit": false,
      "t": 85654.25700000006,
      "d": 140.18700000000536,
      "v": 34
    },
    {
      "midi": 75,
      "hit": false,
      "t": 85654.25700000023,
      "d": 140.18700000000536,
      "v": 37
    },
    {
      "midi": 79,
      "hit": false,
      "t": 85654.25700000023,
      "d": 140.18700000000536,
      "v": 37
    },
    {
      "midi": 76,
      "hit": false,
      "t": 85794.44400000006,
      "d": 140.18700000000536,
      "v": 35
    },
    {
      "midi": 80,
      "hit": false,
      "t": 85794.44400000024,
      "d": 140.18700000000536,
      "v": 38
    },
    {
      "midi": 85,
      "hit": false,
      "t": 85794.44400000024,
      "d": 140.18700000000536,
      "v": 38
    },
    {
      "midi": 75,
      "hit": false,
      "t": 85934.63100000007,
      "d": 140.18700000000536,
      "v": 36
    },
    {
      "midi": 79,
      "hit": false,
      "t": 85934.63100000024,
      "d": 140.18700000000536,
      "v": 38
    },
    {
      "midi": 82,
      "hit": false,
      "t": 85934.63100000024,
      "d": 140.18700000000536,
      "v": 38
    },
    {
      "midi": 80,
      "hit": false,
      "t": 86074.81800000007,
      "d": 140.18700000000536,
      "v": 37
    },
    {
      "midi": 85,
      "hit": false,
      "t": 86074.81800000025,
      "d": 140.18700000000536,
      "v": 39
    },
    {
      "midi": 88,
      "hit": false,
      "t": 86074.81800000025,
      "d": 140.18700000000536,
      "v": 39
    },
    {
      "midi": 79,
      "hit": false,
      "t": 86215.00500000008,
      "d": 140.18700000000536,
      "v": 38
    },
    {
      "midi": 82,
      "hit": false,
      "t": 86215.00500000025,
      "d": 140.18700000000536,
      "v": 40
    },
    {
      "midi": 87,
      "hit": false,
      "t": 86215.00500000025,
      "d": 140.18700000000536,
      "v": 40
    },
    {
      "midi": 85,
      "hit": false,
      "t": 86355.19200000008,
      "d": 140.18700000000536,
      "v": 39
    },
    {
      "midi": 88,
      "hit": false,
      "t": 86355.19200000026,
      "d": 140.18700000000536,
      "v": 41
    },
    {
      "midi": 89,
      "hit": false,
      "t": 86355.19200000026,
      "d": 140.18700000000536,
      "v": 41
    },
    {
      "midi": 92,
      "hit": false,
      "t": 86355.19200000026,
      "d": 140.18700000000536,
      "v": 41
    },
    {
      "midi": 82,
      "hit": false,
      "t": 86495.37900000009,
      "d": 140.18700000000536,
      "v": 40
    },
    {
      "midi": 87,
      "hit": false,
      "t": 86495.37900000026,
      "d": 140.18700000000536,
      "v": 42
    },
    {
      "midi": 91,
      "hit": false,
      "t": 86495.37900000026,
      "d": 140.18700000000536,
      "v": 42
    },
    {
      "midi": 88,
      "hit": false,
      "t": 86635.5660000001,
      "d": 140.18700000000536,
      "v": 41
    },
    {
      "midi": 92,
      "hit": false,
      "t": 86635.56600000027,
      "d": 140.18700000000536,
      "v": 42
    },
    {
      "midi": 97,
      "hit": false,
      "t": 86635.56600000027,
      "d": 140.18700000000536,
      "v": 42
    },
    {
      "midi": 87,
      "hit": false,
      "t": 86775.7530000001,
      "d": 140.18700000000536,
      "v": 42
    },
    {
      "midi": 91,
      "hit": false,
      "t": 86775.75300000027,
      "d": 140.18700000000536,
      "v": 43
    },
    {
      "midi": 94,
      "hit": false,
      "t": 86775.75300000027,
      "d": 140.18700000000536,
      "v": 43
    },
    {
      "midi": 92,
      "hit": false,
      "t": 86915.9400000001,
      "d": 140.18700000000536,
      "v": 43
    },
    {
      "midi": 97,
      "hit": false,
      "t": 86915.94000000028,
      "d": 140.18700000000536,
      "v": 44
    },
    {
      "midi": 100,
      "hit": false,
      "t": 86915.94000000028,
      "d": 140.18700000000536,
      "v": 44
    },
    {
      "midi": 91,
      "hit": false,
      "t": 87056.12700000011,
      "d": 140.18700000000536,
      "v": 44
    },
    {
      "midi": 94,
      "hit": false,
      "t": 87056.12700000028,
      "d": 140.18700000000536,
      "v": 45
    },
    {
      "midi": 99,
      "hit": false,
      "t": 87056.12700000028,
      "d": 140.18700000000536,
      "v": 45
    },
    {
      "midi": 92,
      "hit": false,
      "t": 87196.31400000011,
      "d": 140.18700000000536,
      "v": 46
    },
    {
      "midi": 97,
      "hit": false,
      "t": 87196.31400000029,
      "d": 140.18700000000536,
      "v": 36
    },
    {
      "midi": 100,
      "hit": false,
      "t": 87196.31400000029,
      "d": 140.18700000000536,
      "v": 36
    },
    {
      "midi": 91,
      "hit": false,
      "t": 87336.50100000012,
      "d": 140.18700000000536,
      "v": 46
    },
    {
      "midi": 94,
      "hit": false,
      "t": 87336.5010000003,
      "d": 140.18700000000536,
      "v": 46
    },
    {
      "midi": 99,
      "hit": false,
      "t": 87336.5010000003,
      "d": 140.18700000000536,
      "v": 46
    },
    {
      "midi": 88,
      "hit": false,
      "t": 87476.68800000013,
      "d": 140.18700000000536,
      "v": 45
    },
    {
      "midi": 92,
      "hit": false,
      "t": 87476.6880000003,
      "d": 140.18700000000536,
      "v": 45
    },
    {
      "midi": 97,
      "hit": false,
      "t": 87476.6880000003,
      "d": 140.18700000000536,
      "v": 45
    },
    {
      "midi": 87,
      "hit": false,
      "t": 87616.87500000013,
      "d": 140.18700000000536,
      "v": 44
    },
    {
      "midi": 91,
      "hit": false,
      "t": 87616.8750000003,
      "d": 140.18700000000536,
      "v": 44
    },
    {
      "midi": 94,
      "hit": false,
      "t": 87616.8750000003,
      "d": 140.18700000000536,
      "v": 44
    },
    {
      "midi": 85,
      "hit": false,
      "t": 87757.06200000014,
      "d": 140.18700000000536,
      "v": 44
    },
    {
      "midi": 88,
      "hit": false,
      "t": 87757.06200000031,
      "d": 140.18700000000536,
      "v": 44
    },
    {
      "midi": 92,
      "hit": false,
      "t": 87757.06200000031,
      "d": 140.18700000000536,
      "v": 44
    },
    {
      "midi": 82,
      "hit": false,
      "t": 87897.24900000014,
      "d": 140.18700000000536,
      "v": 43
    },
    {
      "midi": 87,
      "hit": false,
      "t": 87897.24900000032,
      "d": 140.18700000000536,
      "v": 44
    },
    {
      "midi": 91,
      "hit": false,
      "t": 87897.24900000032,
      "d": 140.18700000000536,
      "v": 44
    },
    {
      "midi": 85,
      "hit": false,
      "t": 88037.43600000015,
      "d": 140.18700000000536,
      "v": 42
    },
    {
      "midi": 89,
      "hit": false,
      "t": 88037.43600000032,
      "d": 140.18700000000536,
      "v": 43
    },
    {
      "midi": 92,
      "hit": false,
      "t": 88037.43600000032,
      "d": 140.18700000000536,
      "v": 43
    },
    {
      "midi": 82,
      "hit": false,
      "t": 88177.62300000015,
      "d": 140.18700000000536,
      "v": 42
    },
    {
      "midi": 87,
      "hit": false,
      "t": 88177.62300000033,
      "d": 140.18700000000536,
      "v": 42
    },
    {
      "midi": 91,
      "hit": false,
      "t": 88177.62300000033,
      "d": 140.18700000000536,
      "v": 42
    },
    {
      "midi": 80,
      "hit": false,
      "t": 88317.81000000016,
      "d": 140.18700000000536,
      "v": 41
    },
    {
      "midi": 85,
      "hit": false,
      "t": 88317.81000000033,
      "d": 140.18700000000536,
      "v": 42
    },
    {
      "midi": 88,
      "hit": false,
      "t": 88317.81000000033,
      "d": 140.18700000000536,
      "v": 42
    },
    {
      "midi": 79,
      "hit": false,
      "t": 88457.99700000016,
      "d": 140.18700000000536,
      "v": 41
    },
    {
      "midi": 82,
      "hit": false,
      "t": 88457.99700000034,
      "d": 140.18700000000536,
      "v": 41
    },
    {
      "midi": 87,
      "hit": false,
      "t": 88457.99700000034,
      "d": 140.18700000000536,
      "v": 41
    },
    {
      "midi": 76,
      "hit": false,
      "t": 88598.18400000017,
      "d": 140.18700000000536,
      "v": 40
    },
    {
      "midi": 80,
      "hit": false,
      "t": 88598.18400000034,
      "d": 140.18700000000536,
      "v": 40
    },
    {
      "midi": 85,
      "hit": false,
      "t": 88598.18400000034,
      "d": 140.18700000000536,
      "v": 40
    },
    {
      "midi": 75,
      "hit": false,
      "t": 88738.37100000017,
      "d": 140.18700000000536,
      "v": 40
    },
    {
      "midi": 79,
      "hit": false,
      "t": 88738.37100000035,
      "d": 140.18700000000536,
      "v": 40
    },
    {
      "midi": 82,
      "hit": false,
      "t": 88738.37100000035,
      "d": 140.18700000000536,
      "v": 40
    },
    {
      "midi": 76,
      "hit": false,
      "t": 88878.55800000018,
      "d": 140.18700000000536,
      "v": 39
    },
    {
      "midi": 80,
      "hit": false,
      "t": 88878.55800000035,
      "d": 140.18700000000536,
      "v": 39
    },
    {
      "midi": 85,
      "hit": false,
      "t": 88878.55800000035,
      "d": 140.18700000000536,
      "v": 39
    },
    {
      "midi": 75,
      "hit": false,
      "t": 89018.74500000018,
      "d": 140.18700000000536,
      "v": 38
    },
    {
      "midi": 79,
      "hit": false,
      "t": 89018.74500000036,
      "d": 140.18700000000536,
      "v": 39
    },
    {
      "midi": 82,
      "hit": false,
      "t": 89018.74500000036,
      "d": 140.18700000000536,
      "v": 39
    },
    {
      "midi": 73,
      "hit": false,
      "t": 89158.93200000019,
      "d": 140.18700000000536,
      "v": 38
    },
    {
      "midi": 76,
      "hit": false,
      "t": 89158.93200000036,
      "d": 140.18700000000536,
      "v": 38
    },
    {
      "midi": 80,
      "hit": false,
      "t": 89158.93200000036,
      "d": 140.18700000000536,
      "v": 38
    },
    {
      "midi": 70,
      "hit": false,
      "t": 89299.1190000002,
      "d": 140.18700000000536,
      "v": 37
    },
    {
      "midi": 75,
      "hit": false,
      "t": 89299.11900000037,
      "d": 140.18700000000536,
      "v": 38
    },
    {
      "midi": 79,
      "hit": false,
      "t": 89299.11900000037,
      "d": 140.18700000000536,
      "v": 38
    },
    {
      "midi": 68,
      "hit": false,
      "t": 89439.3060000002,
      "d": 140.18700000000536,
      "v": 36
    },
    {
      "midi": 73,
      "hit": false,
      "t": 89439.30600000038,
      "d": 140.18700000000536,
      "v": 37
    },
    {
      "midi": 76,
      "hit": false,
      "t": 89439.30600000038,
      "d": 140.18700000000536,
      "v": 37
    },
    {
      "midi": 67,
      "hit": false,
      "t": 89579.4930000002,
      "d": 140.18700000000536,
      "v": 36
    },
    {
      "midi": 70,
      "hit": false,
      "t": 89579.49300000038,
      "d": 140.18700000000536,
      "v": 36
    },
    {
      "midi": 75,
      "hit": false,
      "t": 89579.49300000038,
      "d": 140.18700000000536,
      "v": 36
    },
    {
      "midi": 68,
      "hit": false,
      "t": 89719.68000000021,
      "d": 140.18700000000536,
      "v": 36
    },
    {
      "midi": 73,
      "hit": false,
      "t": 89719.68000000039,
      "d": 140.18700000000536,
      "v": 36
    },
    {
      "midi": 76,
      "hit": false,
      "t": 89719.68000000039,
      "d": 140.18700000000536,
      "v": 36
    },
    {
      "midi": 67,
      "hit": false,
      "t": 89859.86700000022,
      "d": 140.18700000000536,
      "v": 35
    },
    {
      "midi": 70,
      "hit": false,
      "t": 89859.86700000039,
      "d": 140.18700000000536,
      "v": 35
    },
    {
      "midi": 75,
      "hit": false,
      "t": 89859.86700000039,
      "d": 140.18700000000536,
      "v": 35
    },
    {
      "midi": 64,
      "hit": false,
      "t": 90000.05400000022,
      "d": 140.18700000000536,
      "v": 34
    },
    {
      "midi": 68,
      "hit": false,
      "t": 90000.0540000004,
      "d": 140.18700000000536,
      "v": 34
    },
    {
      "midi": 73,
      "hit": false,
      "t": 90000.0540000004,
      "d": 140.18700000000536,
      "v": 34
    },
    {
      "midi": 63,
      "hit": false,
      "t": 90140.24100000023,
      "d": 140.18700000000536,
      "v": 34
    },
    {
      "midi": 67,
      "hit": false,
      "t": 90140.2410000004,
      "d": 140.18700000000536,
      "v": 34
    },
    {
      "midi": 70,
      "hit": false,
      "t": 90140.2410000004,
      "d": 140.18700000000536,
      "v": 34
    },
    {
      "midi": 64,
      "hit": false,
      "t": 90280.42800000023,
      "d": 140.18700000000536,
      "v": 33
    },
    {
      "midi": 68,
      "hit": false,
      "t": 90280.42800000041,
      "d": 140.18700000000536,
      "v": 34
    },
    {
      "midi": 73,
      "hit": false,
      "t": 90280.42800000041,
      "d": 140.18700000000536,
      "v": 34
    },
    {
      "midi": 63,
      "hit": false,
      "t": 90420.61500000024,
      "d": 140.18700000000536,
      "v": 33
    },
    {
      "midi": 67,
      "hit": false,
      "t": 90420.61500000041,
      "d": 140.18700000000536,
      "v": 33
    },
    {
      "midi": 70,
      "hit": false,
      "t": 90420.61500000041,
      "d": 140.18700000000536,
      "v": 33
    },
    {
      "midi": 64,
      "hit": false,
      "t": 90560.80200000024,
      "d": 140.18700000000536,
      "v": 32
    },
    {
      "midi": 68,
      "hit": false,
      "t": 90560.80200000042,
      "d": 140.18700000000536,
      "v": 33
    },
    {
      "midi": 73,
      "hit": false,
      "t": 90560.80200000042,
      "d": 140.18700000000536,
      "v": 33
    },
    {
      "midi": 63,
      "hit": false,
      "t": 90700.98900000025,
      "d": 140.18700000000536,
      "v": 31
    },
    {
      "midi": 67,
      "hit": false,
      "t": 90700.98900000042,
      "d": 140.18700000000536,
      "v": 32
    },
    {
      "midi": 70,
      "hit": false,
      "t": 90700.98900000042,
      "d": 140.18700000000536,
      "v": 32
    },
    {
      "midi": 64,
      "hit": false,
      "t": 90841.17600000025,
      "d": 140.18700000000536,
      "v": 31
    },
    {
      "midi": 68,
      "hit": false,
      "t": 90841.17600000043,
      "d": 140.18700000000536,
      "v": 31
    },
    {
      "midi": 73,
      "hit": false,
      "t": 90841.17600000043,
      "d": 140.18700000000536,
      "v": 31
    },
    {
      "midi": 63,
      "hit": false,
      "t": 90981.36300000026,
      "d": 140.18700000000536,
      "v": 31
    },
    {
      "midi": 67,
      "hit": false,
      "t": 90981.36300000043,
      "d": 140.18700000000536,
      "v": 31
    },
    {
      "midi": 70,
      "hit": false,
      "t": 90981.36300000043,
      "d": 140.18700000000536,
      "v": 31
    },
    {
      "midi": 64,
      "hit": false,
      "t": 91121.55000000026,
      "d": 140.18700000000536,
      "v": 30
    },
    {
      "midi": 68,
      "hit": false,
      "t": 91121.55000000044,
      "d": 140.18700000000536,
      "v": 31
    },
    {
      "midi": 73,
      "hit": false,
      "t": 91121.55000000044,
      "d": 140.18700000000536,
      "v": 31
    },
    {
      "midi": 63,
      "hit": false,
      "t": 91261.73700000027,
      "d": 140.18700000000536,
      "v": 29
    },
    {
      "midi": 67,
      "hit": false,
      "t": 91261.73700000044,
      "d": 140.18700000000536,
      "v": 30
    },
    {
      "midi": 70,
      "hit": false,
      "t": 91261.73700000044,
      "d": 140.18700000000536,
      "v": 30
    },
    {
      "midi": 64,
      "hit": false,
      "t": 91401.92400000028,
      "d": 140.18700000000536,
      "v": 29
    },
    {
      "midi": 68,
      "hit": false,
      "t": 91401.92400000045,
      "d": 140.18700000000536,
      "v": 29
    },
    {
      "midi": 73,
      "hit": false,
      "t": 91401.92400000045,
      "d": 140.18700000000536,
      "v": 29
    },
    {
      "midi": 63,
      "hit": false,
      "t": 91542.11100000028,
      "d": 140.18700000000536,
      "v": 28
    },
    {
      "midi": 67,
      "hit": false,
      "t": 91542.11100000046,
      "d": 140.18700000000536,
      "v": 29
    },
    {
      "midi": 70,
      "hit": false,
      "t": 91542.11100000046,
      "d": 140.18700000000536,
      "v": 29
    },
    {
      "midi": 64,
      "hit": false,
      "t": 91682.29800000029,
      "d": 140.18700000000536,
      "v": 27
    },
    {
      "midi": 68,
      "hit": false,
      "t": 91682.29800000046,
      "d": 140.18700000000536,
      "v": 28
    },
    {
      "midi": 73,
      "hit": false,
      "t": 91682.29800000046,
      "d": 140.18700000000536,
      "v": 28
    },
    {
      "midi": 63,
      "hit": false,
      "t": 91822.48500000029,
      "d": 140.18700000000536,
      "v": 27
    },
    {
      "midi": 67,
      "hit": false,
      "t": 91822.48500000047,
      "d": 140.18700000000536,
      "v": 27
    },
    {
      "midi": 70,
      "hit": false,
      "t": 91822.48500000047,
      "d": 140.18700000000536,
      "v": 27
    },
    {
      "midi": 64,
      "hit": false,
      "t": 91962.6720000003,
      "d": 140.18700000000536,
      "v": 26
    },
    {
      "midi": 68,
      "hit": false,
      "t": 91962.67200000047,
      "d": 140.18700000000536,
      "v": 27
    },
    {
      "midi": 73,
      "hit": false,
      "t": 91962.67200000047,
      "d": 140.18700000000536,
      "v": 27
    },
    {
      "midi": 63,
      "hit": false,
      "t": 92102.8590000003,
      "d": 140.18700000000536,
      "v": 26
    },
    {
      "midi": 67,
      "hit": false,
      "t": 92102.85900000048,
      "d": 140.18700000000536,
      "v": 26
    },
    {
      "midi": 70,
      "hit": false,
      "t": 92102.85900000048,
      "d": 140.18700000000536,
      "v": 26
    },
    {
      "midi": 64,
      "hit": false,
      "t": 92243.04600000031,
      "d": 140.18700000000536,
      "v": 25
    },
    {
      "midi": 68,
      "hit": false,
      "t": 92243.04600000048,
      "d": 140.18700000000536,
      "v": 26
    },
    {
      "midi": 73,
      "hit": false,
      "t": 92243.04600000048,
      "d": 140.18700000000536,
      "v": 26
    },
    {
      "midi": 63,
      "hit": false,
      "t": 92383.23300000031,
      "d": 140.18700000000536,
      "v": 25
    },
    {
      "midi": 67,
      "hit": false,
      "t": 92383.23300000049,
      "d": 140.18700000000536,
      "v": 25
    },
    {
      "midi": 70,
      "hit": false,
      "t": 92383.23300000049,
      "d": 140.18700000000536,
      "v": 25
    },
    {
      "midi": 64,
      "hit": false,
      "t": 92523.42000000032,
      "d": 140.18700000000536,
      "v": 24
    },
    {
      "midi": 68,
      "hit": false,
      "t": 92523.4200000005,
      "d": 140.18700000000536,
      "v": 25
    },
    {
      "midi": 73,
      "hit": false,
      "t": 92523.4200000005,
      "d": 140.18700000000536,
      "v": 25
    },
    {
      "midi": 63,
      "hit": false,
      "t": 92663.60700000032,
      "d": 140.18700000000536,
      "v": 23
    },
    {
      "midi": 67,
      "hit": false,
      "t": 92663.6070000005,
      "d": 140.18700000000536,
      "v": 24
    },
    {
      "midi": 70,
      "hit": false,
      "t": 92663.6070000005,
      "d": 140.18700000000536,
      "v": 24
    },
    {
      "midi": 64,
      "hit": false,
      "t": 92803.79400000033,
      "d": 140.18700000000536,
      "v": 23
    },
    {
      "midi": 68,
      "hit": false,
      "t": 92803.7940000005,
      "d": 140.18700000000536,
      "v": 23
    },
    {
      "midi": 73,
      "hit": false,
      "t": 92803.7940000005,
      "d": 140.18700000000536,
      "v": 23
    },
    {
      "midi": 63,
      "hit": false,
      "t": 92943.98100000033,
      "d": 140.18700000000536,
      "v": 22
    },
    {
      "midi": 67,
      "hit": false,
      "t": 92943.98100000051,
      "d": 140.18700000000536,
      "v": 23
    },
    {
      "midi": 70,
      "hit": false,
      "t": 92943.98100000051,
      "d": 140.18700000000536,
      "v": 23
    },
    {
      "midi": 64,
      "hit": false,
      "t": 93084.16800000034,
      "d": 140.18700000000536,
      "v": 21
    },
    {
      "midi": 68,
      "hit": false,
      "t": 93084.16800000051,
      "d": 140.18700000000536,
      "v": 22
    },
    {
      "midi": 73,
      "hit": false,
      "t": 93084.16800000051,
      "d": 140.18700000000536,
      "v": 22
    },
    {
      "midi": 63,
      "hit": false,
      "t": 93224.35500000035,
      "d": 140.18700000000536,
      "v": 21
    },
    {
      "midi": 67,
      "hit": false,
      "t": 93224.35500000052,
      "d": 140.18700000000536,
      "v": 22
    },
    {
      "midi": 70,
      "hit": false,
      "t": 93224.35500000052,
      "d": 140.18700000000536,
      "v": 22
    },
    {
      "midi": 64,
      "hit": false,
      "t": 93364.54200000035,
      "d": 140.18700000000536,
      "v": 21
    },
    {
      "midi": 68,
      "hit": false,
      "t": 93364.54200000053,
      "d": 140.18700000000536,
      "v": 21
    },
    {
      "midi": 73,
      "hit": false,
      "t": 93364.54200000053,
      "d": 140.18700000000536,
      "v": 21
    },
    {
      "midi": 63,
      "hit": false,
      "t": 93504.72900000036,
      "d": 140.18700000000536,
      "v": 20
    },
    {
      "midi": 67,
      "hit": false,
      "t": 93504.72900000053,
      "d": 140.18700000000536,
      "v": 21
    },
    {
      "midi": 70,
      "hit": false,
      "t": 93504.72900000053,
      "d": 140.18700000000536,
      "v": 21
    },
    {
      "midi": 74,
      "hit": false,
      "t": 94766.41200000054,
      "d": 560.7480000000069,
      "v": 36
    },
    {
      "midi": 47,
      "hit": false,
      "t": 95327.16000000037,
      "d": 560.7480000000069,
      "v": 56
    },
    {
      "midi": 75,
      "hit": false,
      "t": 95327.16000000054,
      "d": 1542.0570000000007,
      "v": 64
    },
    {
      "midi": 54,
      "hit": false,
      "t": 95607.53400000036,
      "d": 280.3740000000107,
      "v": 40
    },
    {
      "midi": 63,
      "hit": false,
      "t": 95607.53400000054,
      "d": 280.3740000000107,
      "v": 40
    },
    {
      "midi": 59,
      "hit": false,
      "t": 95887.90800000037,
      "d": 280.37399999999616,
      "v": 40
    },
    {
      "midi": 66,
      "hit": false,
      "t": 95887.90800000055,
      "d": 280.37399999999616,
      "v": 40
    },
    {
      "midi": 63,
      "hit": false,
      "t": 96168.28200000037,
      "d": 280.37399999999616,
      "v": 40
    },
    {
      "midi": 71,
      "hit": false,
      "t": 96168.28200000054,
      "d": 280.37399999999616,
      "v": 40
    },
    {
      "midi": 59,
      "hit": false,
      "t": 96448.65600000037,
      "d": 280.37399999999616,
      "v": 40
    },
    {
      "midi": 66,
      "hit": false,
      "t": 96448.65600000054,
      "d": 280.37399999999616,
      "v": 40
    },
    {
      "midi": 54,
      "hit": false,
      "t": 96729.03000000036,
      "d": 280.37399999999616,
      "v": 40
    },
    {
      "midi": 63,
      "hit": false,
      "t": 96729.03000000054,
      "d": 280.3740000000107,
      "v": 40
    },
    {
      "midi": 75,
      "hit": false,
      "t": 97009.40400000055,
      "d": 1542.0569999999861,
      "v": 64
    },
    {
      "midi": 54,
      "hit": false,
      "t": 97289.77800000035,
      "d": 280.37399999999616,
      "v": 40
    },
    {
      "midi": 63,
      "hit": false,
      "t": 97289.77800000054,
      "d": 280.37399999999616,
      "v": 40
    },
    {
      "midi": 59,
      "hit": false,
      "t": 97570.15200000035,
      "d": 280.37399999999616,
      "v": 40
    },
    {
      "midi": 66,
      "hit": false,
      "t": 97570.15200000054,
      "d": 280.37399999999616,
      "v": 40
    },
    {
      "midi": 63,
      "hit": false,
      "t": 97850.52600000035,
      "d": 280.37399999999616,
      "v": 40
    },
    {
      "midi": 71,
      "hit": false,
      "t": 97850.52600000054,
      "d": 280.37399999999616,
      "v": 40
    },
    {
      "midi": 59,
      "hit": false,
      "t": 98130.90000000034,
      "d": 280.37399999999616,
      "v": 40
    },
    {
      "midi": 66,
      "hit": false,
      "t": 98130.90000000053,
      "d": 280.37399999999616,
      "v": 40
    },
    {
      "midi": 54,
      "hit": false,
      "t": 98411.27400000034,
      "d": 280.37399999999616,
      "v": 40
    },
    {
      "midi": 63,
      "hit": false,
      "t": 98411.27400000053,
      "d": 280.3740000000107,
      "v": 40
    },
    {
      "midi": 46,
      "hit": false,
      "t": 98691.64800000034,
      "d": 560.7479999999923,
      "v": 56
    },
    {
      "midi": 75,
      "hit": false,
      "t": 98691.64800000054,
      "d": 1682.243999999977,
      "v": 64
    },
    {
      "midi": 55,
      "hit": false,
      "t": 98972.02200000033,
      "d": 280.37399999999616,
      "v": 40
    },
    {
      "midi": 63,
      "hit": false,
      "t": 98972.02200000054,
      "d": 280.37399999999616,
      "v": 40
    },
    {
      "midi": 61,
      "hit": false,
      "t": 99252.39600000033,
      "d": 280.37399999999616,
      "v": 40
    },
    {
      "midi": 67,
      "hit": false,
      "t": 99252.39600000053,
      "d": 280.37399999999616,
      "v": 40
    },
    {
      "midi": 63,
      "hit": false,
      "t": 99532.77000000032,
      "d": 280.37399999999616,
      "v": 40
    },
    {
      "midi": 73,
      "hit": false,
      "t": 99532.77000000053,
      "d": 280.37399999999616,
      "v": 40
    },
    {
      "midi": 61,
      "hit": false,
      "t": 99813.14400000032,
      "d": 280.37399999999616,
      "v": 40
    },
    {
      "midi": 67,
      "hit": false,
      "t": 99813.14400000052,
      "d": 280.37399999999616,
      "v": 40
    },
    {
      "midi": 55,
      "hit": false,
      "t": 100093.51800000032,
      "d": 280.37399999999616,
      "v": 40
    },
    {
      "midi": 63,
      "hit": false,
      "t": 100093.51800000052,
      "d": 280.37399999999616,
      "v": 40
    },
    {
      "midi": 55,
      "hit": false,
      "t": 100654.26600000031,
      "d": 280.37399999999616,
      "v": 40
    },
    {
      "midi": 63,
      "hit": false,
      "t": 100654.26600000051,
      "d": 280.37399999999616,
      "v": 40
    },
    {
      "midi": 61,
      "hit": false,
      "t": 100934.6400000003,
      "d": 280.37399999999616,
      "v": 40
    },
    {
      "midi": 67,
      "hit": false,
      "t": 100934.64000000051,
      "d": 280.37399999999616,
      "v": 40
    },
    {
      "midi": 63,
      "hit": false,
      "t": 101215.0140000003,
      "d": 280.37399999999616,
      "v": 40
    },
    {
      "midi": 73,
      "hit": false,
      "t": 101215.0140000005,
      "d": 280.37399999999616,
      "v": 40
    },
    {
      "midi": 61,
      "hit": false,
      "t": 101495.3880000003,
      "d": 280.37399999999616,
      "v": 40
    },
    {
      "midi": 67,
      "hit": false,
      "t": 101495.3880000005,
      "d": 280.37399999999616,
      "v": 40
    },
    {
      "midi": 75,
      "hit": false,
      "t": 101495.3880000005,
      "d": 560.7479999999923,
      "v": 64
    },
    {
      "midi": 55,
      "hit": false,
      "t": 101775.7620000003,
      "d": 280.37399999999616,
      "v": 40
    },
    {
      "midi": 63,
      "hit": false,
      "t": 101775.7620000005,
      "d": 280.37399999999616,
      "v": 40
    },
    {
      "midi": 45,
      "hit": false,
      "t": 102056.13600000029,
      "d": 560.7480000000069,
      "v": 56
    },
    {
      "midi": 75,
      "hit": false,
      "t": 102056.1360000005,
      "d": 1121.4959999999992,
      "v": 64
    },
    {
      "midi": 54,
      "hit": false,
      "t": 102336.51000000029,
      "d": 280.3740000000107,
      "v": 40
    },
    {
      "midi": 63,
      "hit": false,
      "t": 102336.51000000049,
      "d": 280.3740000000107,
      "v": 40
    },
    {
      "midi": 61,
      "hit": false,
      "t": 102616.8840000003,
      "d": 280.37399999999616,
      "v": 40
    },
    {
      "midi": 66,
      "hit": false,
      "t": 102616.8840000005,
      "d": 280.37399999999616,
      "v": 40
    },
    {
      "midi": 63,
      "hit": false,
      "t": 102897.25800000029,
      "d": 280.37399999999616,
      "v": 40
    },
    {
      "midi": 73,
      "hit": false,
      "t": 102897.2580000005,
      "d": 280.37399999999616,
      "v": 40
    },
    {
      "midi": 61,
      "hit": false,
      "t": 103177.63200000029,
      "d": 280.37399999999616,
      "v": 40
    },
    {
      "midi": 66,
      "hit": false,
      "t": 103177.63200000049,
      "d": 280.37399999999616,
      "v": 40
    },
    {
      "midi": 75,
      "hit": false,
      "t": 103177.63200000049,
      "d": 560.7479999999923,
      "v": 64
    },
    {
      "midi": 54,
      "hit": false,
      "t": 103458.00600000028,
      "d": 280.37399999999616,
      "v": 40
    },
    {
      "midi": 63,
      "hit": false,
      "t": 103458.00600000049,
      "d": 280.37399999999616,
      "v": 40
    },
    {
      "midi": 44,
      "hit": false,
      "t": 103738.38000000028,
      "d": 560.7479999999923,
      "v": 56
    },
    {
      "midi": 76,
      "hit": false,
      "t": 103738.38000000048,
      "d": 1121.4959999999846,
      "v": 64
    },
    {
      "midi": 54,
      "hit": false,
      "t": 104018.75400000028,
      "d": 280.37399999999616,
      "v": 40
    },
    {
      "midi": 63,
      "hit": false,
      "t": 104018.75400000048,
      "d": 280.37399999999616,
      "v": 40
    },
    {
      "midi": 60,
      "hit": false,
      "t": 104299.12800000027,
      "d": 280.37399999999616,
      "v": 40
    },
    {
      "midi": 66,
      "hit": false,
      "t": 104299.12800000048,
      "d": 280.37399999999616,
      "v": 40
    },
    {
      "midi": 63,
      "hit": false,
      "t": 104579.50200000027,
      "d": 280.37399999999616,
      "v": 40
    },
    {
      "midi": 72,
      "hit": false,
      "t": 104579.50200000047,
      "d": 280.37399999999616,
      "v": 40
    },
    {
      "midi": 60,
      "hit": false,
      "t": 104859.87600000027,
      "d": 280.37399999999616,
      "v": 40
    },
    {
      "midi": 66,
      "hit": false,
      "t": 104859.87600000047,
      "d": 280.37399999999616,
      "v": 40
    },
    {
      "midi": 75,
      "hit": false,
      "t": 104859.87600000047,
      "d": 560.7479999999923,
      "v": 64
    },
    {
      "midi": 54,
      "hit": false,
      "t": 105140.25000000026,
      "d": 280.37399999999616,
      "v": 40
    },
    {
      "midi": 63,
      "hit": false,
      "t": 105140.25000000047,
      "d": 280.37399999999616,
      "v": 40
    },
    {
      "midi": 37,
      "hit": false,
      "t": 105420.62400000026,
      "d": 560.7479999999923,
      "v": 56
    },
    {
      "midi": 75,
      "hit": false,
      "t": 105420.62400000046,
      "d": 1682.243999999977,
      "v": 64
    },
    {
      "midi": 53,
      "hit": false,
      "t": 105700.99800000025,
      "d": 280.37399999999616,
      "v": 40
    },
    {
      "midi": 63,
      "hit": false,
      "t": 105700.99800000046,
      "d": 280.37399999999616,
      "v": 40
    },
    {
      "midi": 59,
      "hit": false,
      "t": 105981.37200000025,
      "d": 280.37399999999616,
      "v": 40
    },
    {
      "midi": 65,
      "hit": false,
      "t": 105981.37200000045,
      "d": 280.37399999999616,
      "v": 40
    },
    {
      "midi": 63,
      "hit": false,
      "t": 106261.74600000025,
      "d": 280.37399999999616,
      "v": 40
    },
    {
      "midi": 71,
      "hit": false,
      "t": 106261.74600000045,
      "d": 280.37399999999616,
      "v": 40
    },
    {
      "midi": 59,
      "hit": false,
      "t": 106542.12000000024,
      "d": 280.37399999999616,
      "v": 40
    },
    {
      "midi": 65,
      "hit": false,
      "t": 106542.12000000045,
      "d": 280.37399999999616,
      "v": 40
    },
    {
      "midi": 53,
      "hit": false,
      "t": 106822.49400000024,
      "d": 280.37399999999616,
      "v": 40
    },
    {
      "midi": 63,
      "hit": false,
      "t": 106822.49400000044,
      "d": 280.37399999999616,
      "v": 40
    },
    {
      "midi": 68,
      "hit": false,
      "t": 107102.86800000044,
      "d": 560.7479999999923,
      "v": 64
    },
    {
      "midi": 49,
      "hit": false,
      "t": 107383.24200000023,
      "d": 280.37399999999616,
      "v": 40
    },
    {
      "midi": 59,
      "hit": false,
      "t": 107383.24200000043,
      "d": 280.37399999999616,
      "v": 40
    },
    {
      "midi": 53,
      "hit": false,
      "t": 107663.61600000023,
      "d": 280.37399999999616,
      "v": 40
    },
    {
      "midi": 61,
      "hit": false,
      "t": 107663.61600000043,
      "d": 280.37399999999616,
      "v": 40
    },
    {
      "midi": 59,
      "hit": false,
      "t": 107943.99000000022,
      "d": 280.37399999999616,
      "v": 40
    },
    {
      "midi": 65,
      "hit": false,
      "t": 107943.99000000043,
      "d": 280.37399999999616,
      "v": 40
    },
    {
      "midi": 53,
      "hit": false,
      "t": 108224.36400000022,
      "d": 280.37399999999616,
      "v": 40
    },
    {
      "midi": 61,
      "hit": false,
      "t": 108224.36400000042,
      "d": 280.37399999999616,
      "v": 40
    },
    {
      "midi": 68,
      "hit": false,
      "t": 108224.36400000042,
      "d": 560.7479999999923,
      "v": 64
    },
    {
      "midi": 49,
      "hit": false,
      "t": 108504.73800000022,
      "d": 280.37399999999616,
      "v": 40
    },
    {
      "midi": 59,
      "hit": false,
      "t": 108504.73800000042,
      "d": 280.37399999999616,
      "v": 40
    },
    {
      "midi": 42,
      "hit": false,
      "t": 108785.11200000021,
      "d": 560.7479999999923,
      "v": 56
    },
    {
      "midi": 68,
      "hit": false,
      "t": 108785.11200000042,
      "d": 560.7479999999923,
      "v": 64
    },
    {
      "midi": 52,
      "hit": false,
      "t": 109065.48600000021,
      "d": 280.37399999999616,
      "v": 40
    },
    {
      "midi": 61,
      "hit": false,
      "t": 109065.48600000041,
      "d": 280.37399999999616,
      "v": 40
    },
    {
      "midi": 54,
      "hit": false,
      "t": 109345.8600000002,
      "d": 280.37399999999616,
      "v": 40
    },
    {
      "midi": 64,
      "hit": false,
      "t": 109345.86000000041,
      "d": 280.37399999999616,
      "v": 40
    },
    {
      "midi": 70,
      "hit": false,
      "t": 109345.86000000041,
      "d": 560.7479999999923,
      "v": 64
    },
    {
      "midi": 61,
      "hit": false,
      "t": 109626.2340000002,
      "d": 280.37399999999616,
      "v": 40
    },
    {
      "midi": 66,
      "hit": false,
      "t": 109626.2340000004,
      "d": 280.37399999999616,
      "v": 40
    },
    {
      "midi": 54,
      "hit": false,
      "t": 109906.6080000002,
      "d": 280.37399999999616,
      "v": 40
    },
    {
      "midi": 64,
      "hit": false,
      "t": 109906.6080000004,
      "d": 280.37399999999616,
      "v": 40
    },
    {
      "midi": 71,
      "hit": false,
      "t": 109906.6080000004,
      "d": 560.7479999999923,
      "v": 64
    },
    {
      "midi": 52,
      "hit": false,
      "t": 110186.9820000002,
      "d": 280.37399999999616,
      "v": 40
    },
    {
      "midi": 61,
      "hit": false,
      "t": 110186.9820000004,
      "d": 280.37399999999616,
      "v": 40
    },
    {
      "midi": 75,
      "hit": false,
      "t": 110467.35600000039,
      "d": 1121.4959999999846,
      "v": 64
    },
    {
      "midi": 54,
      "hit": false,
      "t": 110747.73000000019,
      "d": 280.37399999999616,
      "v": 40
    },
    {
      "midi": 64,
      "hit": false,
      "t": 110747.73000000039,
      "d": 280.37399999999616,
      "v": 40
    },
    {
      "midi": 58,
      "hit": false,
      "t": 111028.10400000018,
      "d": 280.37399999999616,
      "v": 40
    },
    {
      "midi": 66,
      "hit": false,
      "t": 111028.10400000038,
      "d": 280.37399999999616,
      "v": 40
    },
    {
      "midi": 64,
      "hit": false,
      "t": 111308.47800000018,
      "d": 280.37399999999616,
      "v": 40
    },
    {
      "midi": 70,
      "hit": false,
      "t": 111308.47800000038,
      "d": 280.37399999999616,
      "v": 40
    },
    {
      "midi": 58,
      "hit": false,
      "t": 111588.85200000017,
      "d": 280.37399999999616,
      "v": 40
    },
    {
      "midi": 66,
      "hit": false,
      "t": 111588.85200000038,
      "d": 280.37399999999616,
      "v": 40
    },
    {
      "midi": 73,
      "hit": false,
      "t": 111588.85200000038,
      "d": 560.7480000000069,
      "v": 64
    },
    {
      "midi": 54,
      "hit": false,
      "t": 111869.22600000017,
      "d": 280.3740000000107,
      "v": 40
    },
    {
      "midi": 64,
      "hit": false,
      "t": 111869.22600000037,
      "d": 280.3740000000107,
      "v": 40
    },
    {
      "midi": 73,
      "hit": false,
      "t": 112149.60000000038,
      "d": 560.7479999999923,
      "v": 64
    },
    {
      "midi": 47,
      "hit": false,
      "t": 112429.97400000018,
      "d": 280.37399999999616,
      "v": 40
    },
    {
      "midi": 63,
      "hit": false,
      "t": 112429.97400000038,
      "d": 280.37399999999616,
      "v": 40
    },
    {
      "midi": 54,
      "hit": false,
      "t": 112710.34800000017,
      "d": 280.37399999999616,
      "v": 40
    },
    {
      "midi": 66,
      "hit": false,
      "t": 112710.34800000038,
      "d": 280.37399999999616,
      "v": 40
    },
    {
      "midi": 71,
      "hit": false,
      "t": 112710.34800000038,
      "d": 560.7479999999923,
      "v": 64
    },
    {
      "midi": 59,
      "hit": false,
      "t": 112990.72200000017,
      "d": 280.37399999999616,
      "v": 40
    },
    {
      "midi": 63,
      "hit": false,
      "t": 112990.72200000037,
      "d": 280.37399999999616,
      "v": 40
    },
    {
      "midi": 53,
      "hit": false,
      "t": 113271.09600000017,
      "d": 280.37399999999616,
      "v": 40
    },
    {
      "midi": 68,
      "hit": false,
      "t": 113271.09600000037,
      "d": 560.7479999999923,
      "v": 64
    },
    {
      "midi": 59,
      "hit": false,
      "t": 113551.47000000016,
      "d": 280.37399999999616,
      "v": 40
    },
    {
      "midi": 62,
      "hit": false,
      "t": 113551.47000000036,
      "d": 280.37399999999616,
      "v": 40
    },
    {
      "midi": 54,
      "hit": false,
      "t": 113831.84400000016,
      "d": 280.37399999999616,
      "v": 40
    },
    {
      "midi": 63,
      "hit": false,
      "t": 113831.84400000036,
      "d": 280.37399999999616,
      "v": 40
    },
    {
      "midi": 66,
      "hit": false,
      "t": 113831.84400000036,
      "d": 280.37399999999616,
      "v": 64
    },
    {
      "midi": 63,
      "hit": false,
      "t": 114112.21800000015,
      "d": 280.37399999999616,
      "v": 40
    },
    {
      "midi": 61,
      "hit": false,
      "t": 114392.59200000015,
      "d": 280.37399999999616,
      "v": 40
    },
    {
      "midi": 59,
      "hit": false,
      "t": 114672.96600000015,
      "d": 280.37399999999616,
      "v": 40
    },
    {
      "midi": 56,
      "hit": false,
      "t": 114953.34000000014,
      "d": 280.37399999999616,
      "v": 40
    },
    {
      "midi": 54,
      "hit": false,
      "t": 115233.71400000014,
      "d": 280.3740000000107,
      "v": 40
    },
    {
      "midi": 66,
      "hit": false,
      "t": 115233.71400000036,
      "d": 280.3740000000107,
      "v": 64
    },
    {
      "midi": 47,
      "hit": false,
      "t": 115514.08800000015,
      "d": 560.7479999999923,
      "v": 56
    },
    {
      "midi": 75,
      "hit": false,
      "t": 115514.08800000037,
      "d": 1542.0569999999861,
      "v": 64
    },
    {
      "midi": 54,
      "hit": false,
      "t": 115794.46200000015,
      "d": 280.37399999999616,
      "v": 40
    },
    {
      "midi": 63,
      "hit": false,
      "t": 115794.46200000036,
      "d": 280.37399999999616,
      "v": 40
    },
    {
      "midi": 59,
      "hit": false,
      "t": 116074.83600000014,
      "d": 280.37399999999616,
      "v": 40
    },
    {
      "midi": 66,
      "hit": false,
      "t": 116074.83600000036,
      "d": 280.37399999999616,
      "v": 40
    },
    {
      "midi": 63,
      "hit": false,
      "t": 116355.21000000014,
      "d": 280.37399999999616,
      "v": 40
    },
    {
      "midi": 71,
      "hit": false,
      "t": 116355.21000000036,
      "d": 280.37399999999616,
      "v": 40
    },
    {
      "midi": 59,
      "hit": false,
      "t": 116635.58400000013,
      "d": 280.37399999999616,
      "v": 40
    },
    {
      "midi": 66,
      "hit": false,
      "t": 116635.58400000035,
      "d": 280.37399999999616,
      "v": 40
    },
    {
      "midi": 54,
      "hit": false,
      "t": 116915.95800000013,
      "d": 280.3740000000107,
      "v": 40
    },
    {
      "midi": 63,
      "hit": false,
      "t": 116915.95800000035,
      "d": 280.3740000000107,
      "v": 40
    },
    {
      "midi": 46,
      "hit": false,
      "t": 117196.33200000014,
      "d": 560.7479999999923,
      "v": 56
    },
    {
      "midi": 75,
      "hit": false,
      "t": 117196.33200000036,
      "d": 1542.0569999999861,
      "v": 64
    },
    {
      "midi": 55,
      "hit": false,
      "t": 117476.70600000014,
      "d": 280.37399999999616,
      "v": 40
    },
    {
      "midi": 63,
      "hit": false,
      "t": 117476.70600000035,
      "d": 280.37399999999616,
      "v": 40
    },
    {
      "midi": 61,
      "hit": false,
      "t": 117757.08000000013,
      "d": 280.37399999999616,
      "v": 40
    },
    {
      "midi": 67,
      "hit": false,
      "t": 117757.08000000035,
      "d": 280.37399999999616,
      "v": 40
    },
    {
      "midi": 63,
      "hit": false,
      "t": 118037.45400000013,
      "d": 280.37399999999616,
      "v": 40
    },
    {
      "midi": 73,
      "hit": false,
      "t": 118037.45400000035,
      "d": 280.37399999999616,
      "v": 40
    },
    {
      "midi": 61,
      "hit": false,
      "t": 118317.82800000013,
      "d": 280.37399999999616,
      "v": 40
    },
    {
      "midi": 67,
      "hit": false,
      "t": 118317.82800000034,
      "d": 280.37399999999616,
      "v": 40
    },
    {
      "midi": 55,
      "hit": false,
      "t": 118598.20200000012,
      "d": 280.37399999999616,
      "v": 40
    },
    {
      "midi": 63,
      "hit": false,
      "t": 118598.20200000034,
      "d": 280.3740000000107,
      "v": 40
    },
    {
      "midi": 45,
      "hit": false,
      "t": 118878.57600000012,
      "d": 560.7479999999923,
      "v": 56
    },
    {
      "midi": 75,
      "hit": false,
      "t": 118878.57600000035,
      "d": 1121.4959999999846,
      "v": 64
    },
    {
      "midi": 54,
      "hit": false,
      "t": 119158.95000000011,
      "d": 280.37399999999616,
      "v": 40
    },
    {
      "midi": 63,
      "hit": false,
      "t": 119158.95000000035,
      "d": 280.37399999999616,
      "v": 40
    },
    {
      "midi": 60,
      "hit": false,
      "t": 119439.32400000011,
      "d": 280.37399999999616,
      "v": 40
    },
    {
      "midi": 66,
      "hit": false,
      "t": 119439.32400000034,
      "d": 280.37399999999616,
      "v": 40
    },
    {
      "midi": 63,
      "hit": false,
      "t": 119719.6980000001,
      "d": 280.37399999999616,
      "v": 40
    },
    {
      "midi": 72,
      "hit": false,
      "t": 119719.69800000034,
      "d": 280.37399999999616,
      "v": 40
    },
    {
      "midi": 60,
      "hit": false,
      "t": 120000.0720000001,
      "d": 280.37399999999616,
      "v": 40
    },
    {
      "midi": 66,
      "hit": false,
      "t": 120000.07200000033,
      "d": 280.37399999999616,
      "v": 40
    },
    {
      "midi": 54,
      "hit": false,
      "t": 120280.4460000001,
      "d": 280.37399999999616,
      "v": 40
    },
    {
      "midi": 63,
      "hit": false,
      "t": 120280.44600000033,
      "d": 280.37399999999616,
      "v": 40
    },
    {
      "midi": 44,
      "hit": false,
      "t": 120560.8200000001,
      "d": 560.7479999999923,
      "v": 56
    },
    {
      "midi": 54,
      "hit": false,
      "t": 120841.19400000009,
      "d": 280.37399999999616,
      "v": 40
    },
    {
      "midi": 63,
      "hit": false,
      "t": 120841.19400000032,
      "d": 280.37399999999616,
      "v": 40
    },
    {
      "midi": 60,
      "hit": false,
      "t": 121121.56800000009,
      "d": 280.37399999999616,
      "v": 40
    },
    {
      "midi": 66,
      "hit": false,
      "t": 121121.56800000032,
      "d": 280.37399999999616,
      "v": 40
    },
    {
      "midi": 75,
      "hit": false,
      "t": 121121.56800000032,
      "d": 560.7479999999923,
      "v": 64
    },
    {
      "midi": 63,
      "hit": false,
      "t": 121401.94200000008,
      "d": 280.37399999999616,
      "v": 40
    },
    {
      "midi": 72,
      "hit": false,
      "t": 121401.94200000032,
      "d": 280.37399999999616,
      "v": 40
    },
    {
      "midi": 60,
      "hit": false,
      "t": 121682.31600000008,
      "d": 280.37399999999616,
      "v": 40
    },
    {
      "midi": 66,
      "hit": false,
      "t": 121682.31600000031,
      "d": 280.37399999999616,
      "v": 40
    },
    {
      "midi": 54,
      "hit": false,
      "t": 121962.69000000008,
      "d": 280.37399999999616,
      "v": 40
    },
    {
      "midi": 63,
      "hit": false,
      "t": 121962.69000000031,
      "d": 280.37399999999616,
      "v": 40
    },
    {
      "midi": 43,
      "hit": false,
      "t": 122243.06400000007,
      "d": 560.7479999999923,
      "v": 56
    },
    {
      "midi": 75,
      "hit": false,
      "t": 122243.0640000003,
      "d": 1121.4959999999846,
      "v": 64
    },
    {
      "midi": 55,
      "hit": false,
      "t": 122523.43800000007,
      "d": 280.37399999999616,
      "v": 40
    },
    {
      "midi": 64,
      "hit": false,
      "t": 122523.4380000003,
      "d": 280.37399999999616,
      "v": 40
    },
    {
      "midi": 60,
      "hit": false,
      "t": 122803.81200000006,
      "d": 280.37399999999616,
      "v": 40
    },
    {
      "midi": 67,
      "hit": false,
      "t": 122803.8120000003,
      "d": 280.37399999999616,
      "v": 40
    },
    {
      "midi": 64,
      "hit": false,
      "t": 123084.18600000006,
      "d": 280.37399999999616,
      "v": 40
    },
    {
      "midi": 72,
      "hit": false,
      "t": 123084.18600000029,
      "d": 280.37399999999616,
      "v": 40
    },
    {
      "midi": 60,
      "hit": false,
      "t": 123364.56000000006,
      "d": 280.37399999999616,
      "v": 40
    },
    {
      "midi": 67,
      "hit": false,
      "t": 123364.56000000029,
      "d": 280.37399999999616,
      "v": 40
    },
    {
      "midi": 76,
      "hit": false,
      "t": 123364.56000000029,
      "d": 560.7479999999923,
      "v": 64
    },
    {
      "midi": 55,
      "hit": false,
      "t": 123644.93400000005,
      "d": 280.37399999999616,
      "v": 40
    },
    {
      "midi": 64,
      "hit": false,
      "t": 123644.93400000028,
      "d": 280.37399999999616,
      "v": 40
    },
    {
      "midi": 75,
      "hit": false,
      "t": 123925.30800000028,
      "d": 1121.4959999999846,
      "v": 64
    },
    {
      "midi": 55,
      "hit": false,
      "t": 124205.68200000004,
      "d": 280.37399999999616,
      "v": 40
    },
    {
      "midi": 64,
      "hit": false,
      "t": 124205.68200000028,
      "d": 280.37399999999616,
      "v": 40
    },
    {
      "midi": 60,
      "hit": false,
      "t": 124486.05600000004,
      "d": 280.37399999999616,
      "v": 40
    },
    {
      "midi": 67,
      "hit": false,
      "t": 124486.05600000027,
      "d": 280.37399999999616,
      "v": 40
    },
    {
      "midi": 64,
      "hit": false,
      "t": 124766.43000000004,
      "d": 280.37399999999616,
      "v": 40
    },
    {
      "midi": 72,
      "hit": false,
      "t": 124766.43000000027,
      "d": 280.37399999999616,
      "v": 40
    },
    {
      "midi": 60,
      "hit": false,
      "t": 125046.80400000003,
      "d": 280.37399999999616,
      "v": 40
    },
    {
      "midi": 67,
      "hit": false,
      "t": 125046.80400000027,
      "d": 280.37399999999616,
      "v": 40
    },
    {
      "midi": 76,
      "hit": false,
      "t": 125046.80400000027,
      "d": 560.7479999999923,
      "v": 64
    },
    {
      "midi": 55,
      "hit": false,
      "t": 125327.17800000003,
      "d": 280.37399999999616,
      "v": 40
    },
    {
      "midi": 64,
      "hit": false,
      "t": 125327.17800000026,
      "d": 280.37399999999616,
      "v": 40
    },
    {
      "midi": 43,
      "hit": false,
      "t": 125607.55200000003,
      "d": 560.7480000000069,
      "v": 56
    },
    {
      "midi": 77,
      "hit": false,
      "t": 125607.55200000026,
      "d": 2803.7399999999907,
      "v": 64
    },
    {
      "midi": 57,
      "hit": false,
      "t": 125887.92600000002,
      "d": 280.3740000000107,
      "v": 40
    },
    {
      "midi": 65,
      "hit": false,
      "t": 125887.92600000025,
      "d": 280.3740000000107,
      "v": 40
    },
    {
      "midi": 60,
      "hit": false,
      "t": 126168.30000000003,
      "d": 280.37399999999616,
      "v": 40
    },
    {
      "midi": 62,
      "hit": false,
      "t": 126168.30000000003,
      "d": 280.37399999999616,
      "v": 40
    },
    {
      "midi": 69,
      "hit": false,
      "t": 126168.30000000026,
      "d": 280.37399999999616,
      "v": 40
    },
    {
      "midi": 65,
      "hit": false,
      "t": 126448.67400000003,
      "d": 280.37399999999616,
      "v": 40
    },
    {
      "midi": 72,
      "hit": false,
      "t": 126448.67400000026,
      "d": 280.37399999999616,
      "v": 40
    },
    {
      "midi": 60,
      "hit": false,
      "t": 126729.04800000002,
      "d": 280.37399999999616,
      "v": 40
    },
    {
      "midi": 62,
      "hit": false,
      "t": 126729.04800000002,
      "d": 280.37399999999616,
      "v": 40
    },
    {
      "midi": 69,
      "hit": false,
      "t": 126729.04800000026,
      "d": 280.37399999999616,
      "v": 40
    },
    {
      "midi": 57,
      "hit": false,
      "t": 127009.42200000002,
      "d": 280.37399999999616,
      "v": 40
    },
    {
      "midi": 65,
      "hit": false,
      "t": 127009.42200000025,
      "d": 280.37399999999616,
      "v": 40
    },
    {
      "midi": 57,
      "hit": false,
      "t": 128411.29200000025,
      "d": 560.7480000000069,
      "v": 64
    },
    {
      "midi": 69,
      "hit": false,
      "t": 128411.29200000025,
      "d": 560.7480000000069,
      "v": 64
    },
    {
      "midi": 57,
      "hit": false,
      "t": 128972.04000000026,
      "d": 560.7479999999923,
      "v": 64
    },
    {
      "midi": 69,
      "hit": false,
      "t": 128972.04000000026,
      "d": 560.7479999999923,
      "v": 64
    },
    {
      "midi": 43,
      "hit": false,
      "t": 129252.41400000002,
      "d": 280.37399999999616,
      "v": 56
    },
    {
      "midi": 50,
      "hit": false,
      "t": 129532.78800000002,
      "d": 280.37399999999616,
      "v": 56
    },
    {
      "midi": 53,
      "hit": false,
      "t": 129532.78800000002,
      "d": 280.37399999999616,
      "v": 56
    },
    {
      "midi": 59,
      "hit": false,
      "t": 129532.78800000025,
      "d": 560.7480000000069,
      "v": 64
    },
    {
      "midi": 71,
      "hit": false,
      "t": 129532.78800000025,
      "d": 560.7480000000069,
      "v": 64
    },
    {
      "midi": 57,
      "hit": false,
      "t": 129813.16200000001,
      "d": 280.37399999999616,
      "v": 56
    },
    {
      "midi": 50,
      "hit": false,
      "t": 130093.53600000001,
      "d": 280.37399999999616,
      "v": 56
    },
    {
      "midi": 53,
      "hit": false,
      "t": 130093.53600000001,
      "d": 280.37399999999616,
      "v": 56
    },
    {
      "midi": 60,
      "hit": false,
      "t": 130093.53600000025,
      "d": 560.7480000000069,
      "v": 64
    },
    {
      "midi": 72,
      "hit": false,
      "t": 130093.53600000025,
      "d": 560.7480000000069,
      "v": 64
    },
    {
      "midi": 43,
      "hit": false,
      "t": 130373.91,
      "d": 280.37399999999616,
      "v": 56
    },
    {
      "midi": 43,
      "hit": false,
      "t": 130654.284,
      "d": 560.7480000000069,
      "v": 56
    },
    {
      "midi": 53,
      "hit": false,
      "t": 130654.284,
      "d": 560.7480000000069,
      "v": 56
    },
    {
      "midi": 59,
      "hit": false,
      "t": 130654.284,
      "d": 560.7480000000069,
      "v": 56
    },
    {
      "midi": 64,
      "hit": false,
      "t": 130654.28400000026,
      "d": 1121.4959999999992,
      "v": 64
    },
    {
      "midi": 76,
      "hit": false,
      "t": 130654.28400000026,
      "d": 1121.4959999999992,
      "v": 64
    },
    {
      "midi": 62,
      "hit": false,
      "t": 131775.78000000026,
      "d": 560.7479999999923,
      "v": 64
    },
    {
      "midi": 74,
      "hit": false,
      "t": 131775.78000000026,
      "d": 560.7479999999923,
      "v": 64
    },
    {
      "midi": 36,
      "hit": false,
      "t": 132336.52800000002,
      "d": 560.7479999999923,
      "v": 56
    },
    {
      "midi": 48,
      "hit": false,
      "t": 132336.52800000002,
      "d": 560.7479999999923,
      "v": 56
    },
    {
      "midi": 60,
      "hit": false,
      "t": 132336.52800000025,
      "d": 560.7479999999923,
      "v": 64
    },
    {
      "midi": 67,
      "hit": false,
      "t": 132336.52800000025,
      "d": 560.7479999999923,
      "v": 64
    },
    {
      "midi": 72,
      "hit": false,
      "t": 132336.52800000025,
      "d": 560.7479999999923,
      "v": 64
    },
    {
      "midi": 72,
      "hit": false,
      "t": 132897.276,
      "d": 280.3740000000107,
      "v": 56
    },
    {
      "midi": 64,
      "hit": false,
      "t": 133177.65000000002,
      "d": 280.3740000000107,
      "v": 56
    },
    {
      "midi": 67,
      "hit": false,
      "t": 133458.02400000003,
      "d": 280.3740000000107,
      "v": 56
    },
    {
      "midi": 60,
      "hit": false,
      "t": 133738.39800000004,
      "d": 280.3740000000107,
      "v": 56
    },
    {
      "midi": 64,
      "hit": false,
      "t": 134018.77200000006,
      "d": 280.3740000000107,
      "v": 56
    },
    {
      "midi": 55,
      "hit": false,
      "t": 134299.14600000007,
      "d": 280.3740000000107,
      "v": 56
    },
    {
      "midi": 60,
      "hit": false,
      "t": 134579.52000000008,
      "d": 280.3740000000107,
      "v": 56
    },
    {
      "midi": 52,
      "hit": false,
      "t": 134859.8940000001,
      "d": 280.3740000000107,
      "v": 56
    },
    {
      "midi": 55,
      "hit": false,
      "t": 135140.2680000001,
      "d": 280.3740000000107,
      "v": 56
    },
    {
      "midi": 48,
      "hit": false,
      "t": 135420.6420000001,
      "d": 280.3739999999816,
      "v": 56
    },
    {
      "midi": 72,
      "hit": false,
      "t": 135420.64200000025,
      "d": 280.3739999999816,
      "v": 64
    },
    {
      "midi": 84,
      "hit": false,
      "t": 135420.64200000025,
      "d": 280.3739999999816,
      "v": 64
    },
    {
      "midi": 41,
      "hit": false,
      "t": 135701.0160000001,
      "d": 560.7479999999923,
      "v": 56
    },
    {
      "midi": 53,
      "hit": false,
      "t": 135701.0160000001,
      "d": 560.7479999999923,
      "v": 56
    },
    {
      "midi": 72,
      "hit": false,
      "t": 135701.01600000024,
      "d": 1401.8699999999953,
      "v": 64
    },
    {
      "midi": 77,
      "hit": false,
      "t": 135701.01600000024,
      "d": 1401.8699999999953,
      "v": 64
    },
    {
      "midi": 80,
      "hit": false,
      "t": 135701.01600000024,
      "d": 1401.8699999999953,
      "v": 64
    },
    {
      "midi": 84,
      "hit": false,
      "t": 135701.01600000024,
      "d": 1401.8699999999953,
      "v": 64
    },
    {
      "midi": 68,
      "hit": false,
      "t": 136261.76400000008,
      "d": 280.3740000000107,
      "v": 56
    },
    {
      "midi": 60,
      "hit": false,
      "t": 136542.1380000001,
      "d": 280.3740000000107,
      "v": 56
    },
    {
      "midi": 65,
      "hit": false,
      "t": 136822.5120000001,
      "d": 280.3740000000107,
      "v": 56
    },
    {
      "midi": 56,
      "hit": false,
      "t": 137102.88600000012,
      "d": 280.3740000000107,
      "v": 56
    },
    {
      "midi": 71,
      "hit": false,
      "t": 137102.88600000023,
      "d": 280.3740000000107,
      "v": 64
    },
    {
      "midi": 77,
      "hit": false,
      "t": 137102.88600000023,
      "d": 280.3740000000107,
      "v": 64
    },
    {
      "midi": 80,
      "hit": false,
      "t": 137102.88600000023,
      "d": 280.3740000000107,
      "v": 64
    },
    {
      "midi": 83,
      "hit": false,
      "t": 137102.88600000023,
      "d": 280.3740000000107,
      "v": 64
    },
    {
      "midi": 60,
      "hit": false,
      "t": 137383.26000000013,
      "d": 280.3740000000107,
      "v": 56
    },
    {
      "midi": 72,
      "hit": false,
      "t": 137383.26000000024,
      "d": 1401.8699999999953,
      "v": 64
    },
    {
      "midi": 77,
      "hit": false,
      "t": 137383.26000000024,
      "d": 1401.8699999999953,
      "v": 64
    },
    {
      "midi": 80,
      "hit": false,
      "t": 137383.26000000024,
      "d": 1401.8699999999953,
      "v": 64
    },
    {
      "midi": 84,
      "hit": false,
      "t": 137383.26000000024,
      "d": 1401.8699999999953,
      "v": 64
    },
    {
      "midi": 53,
      "hit": false,
      "t": 137663.63400000014,
      "d": 280.3740000000107,
      "v": 56
    },
    {
      "midi": 56,
      "hit": false,
      "t": 137944.00800000015,
      "d": 280.3740000000107,
      "v": 56
    },
    {
      "midi": 48,
      "hit": false,
      "t": 138224.38200000016,
      "d": 280.3740000000107,
      "v": 56
    },
    {
      "midi": 53,
      "hit": false,
      "t": 138504.75600000017,
      "d": 280.3740000000107,
      "v": 56
    },
    {
      "midi": 44,
      "hit": false,
      "t": 138785.13000000018,
      "d": 280.3740000000107,
      "v": 56
    },
    {
      "midi": 74,
      "hit": false,
      "t": 138785.13000000024,
      "d": 280.3740000000107,
      "v": 64
    },
    {
      "midi": 77,
      "hit": false,
      "t": 138785.13000000024,
      "d": 280.3740000000107,
      "v": 64
    },
    {
      "midi": 80,
      "hit": false,
      "t": 138785.13000000024,
      "d": 280.3740000000107,
      "v": 64
    },
    {
      "midi": 86,
      "hit": false,
      "t": 138785.13000000024,
      "d": 280.3740000000107,
      "v": 64
    },
    {
      "midi": 36,
      "hit": false,
      "t": 139065.5040000002,
      "d": 560.7480000000214,
      "v": 56
    },
    {
      "midi": 48,
      "hit": false,
      "t": 139065.5040000002,
      "d": 560.7480000000214,
      "v": 56
    },
    {
      "midi": 76,
      "hit": false,
      "t": 139065.50400000025,
      "d": 1401.8700000000244,
      "v": 64
    },
    {
      "midi": 79,
      "hit": false,
      "t": 139065.50400000025,
      "d": 1401.8700000000244,
      "v": 64
    },
    {
      "midi": 88,
      "hit": false,
      "t": 139065.50400000025,
      "d": 1401.8700000000244,
      "v": 64
    },
    {
      "midi": 72,
      "hit": false,
      "t": 139626.2520000002,
      "d": 280.3740000000107,
      "v": 56
    },
    {
      "midi": 64,
      "hit": false,
      "t": 139906.62600000022,
      "d": 280.3740000000107,
      "v": 56
    },
    {
      "midi": 67,
      "hit": false,
      "t": 140187.00000000023,
      "d": 280.3740000000107,
      "v": 56
    },
    {
      "midi": 60,
      "hit": false,
      "t": 140467.37400000024,
      "d": 280.3740000000107,
      "v": 56
    },
    {
      "midi": 74,
      "hit": false,
      "t": 140467.37400000027,
      "d": 280.3740000000107,
      "v": 64
    },
    {
      "midi": 79,
      "hit": false,
      "t": 140467.37400000027,
      "d": 280.3740000000107,
      "v": 64
    },
    {
      "midi": 86,
      "hit": false,
      "t": 140467.37400000027,
      "d": 280.3740000000107,
      "v": 64
    },
    {
      "midi": 64,
      "hit": false,
      "t": 140747.74800000025,
      "d": 280.3740000000107,
      "v": 56
    },
    {
      "midi": 72,
      "hit": false,
      "t": 140747.74800000028,
      "d": 1401.8699999999953,
      "v": 64
    },
    {
      "midi": 79,
      "hit": false,
      "t": 140747.74800000028,
      "d": 1401.8699999999953,
      "v": 64
    },
    {
      "midi": 84,
      "hit": false,
      "t": 140747.74800000028,
      "d": 1401.8699999999953,
      "v": 64
    },
    {
      "midi": 55,
      "hit": false,
      "t": 141028.12200000026,
      "d": 280.3740000000107,
      "v": 56
    },
    {
      "midi": 60,
      "hit": false,
      "t": 141308.49600000028,
      "d": 280.3740000000107,
      "v": 56
    },
    {
      "midi": 52,
      "hit": false,
      "t": 141588.8700000003,
      "d": 280.3740000000107,
      "v": 56
    },
    {
      "midi": 55,
      "hit": false,
      "t": 141869.2440000003,
      "d": 280.3740000000107,
      "v": 56
    },
    {
      "midi": 76,
      "hit": false,
      "t": 142149.61800000028,
      "d": 280.3740000000107,
      "v": 64
    },
    {
      "midi": 88,
      "hit": false,
      "t": 142149.61800000028,
      "d": 280.3740000000107,
      "v": 64
    },
    {
      "midi": 48,
      "hit": false,
      "t": 142149.6180000003,
      "d": 280.3740000000107,
      "v": 56
    },
    {
      "midi": 76,
      "hit": false,
      "t": 142429.9920000003,
      "d": 1401.8700000000244,
      "v": 64
    },
    {
      "midi": 81,
      "hit": false,
      "t": 142429.9920000003,
      "d": 1401.8700000000244,
      "v": 64
    },
    {
      "midi": 84,
      "hit": false,
      "t": 142429.9920000003,
      "d": 1401.8700000000244,
      "v": 64
    },
    {
      "midi": 88,
      "hit": false,
      "t": 142429.9920000003,
      "d": 1401.8700000000244,
      "v": 64
    },
    {
      "midi": 33,
      "hit": false,
      "t": 142429.99200000032,
      "d": 560.7480000000214,
      "v": 56
    },
    {
      "midi": 45,
      "hit": false,
      "t": 142429.99200000032,
      "d": 560.7480000000214,
      "v": 56
    },
    {
      "midi": 72,
      "hit": false,
      "t": 142990.74000000034,
      "d": 280.3740000000107,
      "v": 56
    },
    {
      "midi": 64,
      "hit": false,
      "t": 143271.11400000035,
      "d": 280.3740000000107,
      "v": 56
    },
    {
      "midi": 69,
      "hit": false,
      "t": 143551.48800000036,
      "d": 280.3740000000107,
      "v": 56
    },
    {
      "midi": 75,
      "hit": false,
      "t": 143831.8620000003,
      "d": 280.3740000000107,
      "v": 64
    },
    {
      "midi": 81,
      "hit": false,
      "t": 143831.8620000003,
      "d": 280.3740000000107,
      "v": 64
    },
    {
      "midi": 84,
      "hit": false,
      "t": 143831.8620000003,
      "d": 280.3740000000107,
      "v": 64
    },
    {
      "midi": 87,
      "hit": false,
      "t": 143831.8620000003,
      "d": 280.3740000000107,
      "v": 64
    },
    {
      "midi": 60,
      "hit": false,
      "t": 143831.86200000037,
      "d": 280.3740000000107,
      "v": 56
    },
    {
      "midi": 76,
      "hit": false,
      "t": 144112.23600000032,
      "d": 1401.8699999999953,
      "v": 64
    },
    {
      "midi": 81,
      "hit": false,
      "t": 144112.23600000032,
      "d": 1401.8699999999953,
      "v": 64
    },
    {
      "midi": 84,
      "hit": false,
      "t": 144112.23600000032,
      "d": 1401.8699999999953,
      "v": 64
    },
    {
      "midi": 88,
      "hit": false,
      "t": 144112.23600000032,
      "d": 1401.8699999999953,
      "v": 64
    },
    {
      "midi": 64,
      "hit": false,
      "t": 144112.23600000038,
      "d": 280.3740000000107,
      "v": 56
    },
    {
      "midi": 57,
      "hit": false,
      "t": 144392.6100000004,
      "d": 280.3740000000107,
      "v": 56
    },
    {
      "midi": 60,
      "hit": false,
      "t": 144672.9840000004,
      "d": 280.3740000000107,
      "v": 56
    },
    {
      "midi": 52,
      "hit": false,
      "t": 144953.35800000041,
      "d": 280.3740000000107,
      "v": 56
    },
    {
      "midi": 57,
      "hit": false,
      "t": 145233.73200000043,
      "d": 280.3740000000107,
      "v": 56
    },
    {
      "midi": 78,
      "hit": false,
      "t": 145514.10600000032,
      "d": 280.3739999999816,
      "v": 64
    },
    {
      "midi": 90,
      "hit": false,
      "t": 145514.10600000032,
      "d": 280.3739999999816,
      "v": 64
    },
    {
      "midi": 48,
      "hit": false,
      "t": 145514.10600000044,
      "d": 280.3739999999816,
      "v": 56
    },
    {
      "midi": 80,
      "hit": false,
      "t": 145794.4800000003,
      "d": 1682.2440000000643,
      "v": 64
    },
    {
      "midi": 92,
      "hit": false,
      "t": 145794.4800000003,
      "d": 1682.2440000000643,
      "v": 64
    },
    {
      "midi": 40,
      "hit": false,
      "t": 145794.48000000042,
      "d": 1682.2440000000643,
      "v": 56
    },
    {
      "midi": 52,
      "hit": false,
      "t": 145794.48000000042,
      "d": 1682.2440000000643,
      "v": 56
    },
    {
      "midi": 71,
      "hit": false,
      "t": 146074.8540000003,
      "d": 280.3740000000107,
      "v": 56
    },
    {
      "midi": 59,
      "hit": false,
      "t": 146074.85400000043,
      "d": 280.3740000000107,
      "v": 56
    },
    {
      "midi": 76,
      "hit": false,
      "t": 146355.22800000032,
      "d": 280.3740000000107,
      "v": 56
    },
    {
      "midi": 56,
      "hit": false,
      "t": 146355.22800000044,
      "d": 280.3740000000107,
      "v": 56
    },
    {
      "midi": 68,
      "hit": false,
      "t": 146635.60200000033,
      "d": 280.3740000000107,
      "v": 56
    },
    {
      "midi": 64,
      "hit": false,
      "t": 146635.60200000045,
      "d": 280.3740000000107,
      "v": 56
    },
    {
      "midi": 71,
      "hit": false,
      "t": 146915.97600000034,
      "d": 280.3740000000107,
      "v": 56
    },
    {
      "midi": 59,
      "hit": false,
      "t": 146915.97600000046,
      "d": 280.3740000000107,
      "v": 56
    },
    {
      "midi": 56,
      "hit": false,
      "t": 147196.35000000047,
      "d": 280.3740000000107,
      "v": 56
    },
    {
      "midi": 80,
      "hit": false,
      "t": 147476.72400000037,
      "d": 1682.244000000006,
      "v": 64
    },
    {
      "midi": 92,
      "hit": false,
      "t": 147476.72400000037,
      "d": 1682.244000000006,
      "v": 64
    },
    {
      "midi": 40,
      "hit": false,
      "t": 147476.72400000048,
      "d": 1682.244000000006,
      "v": 56
    },
    {
      "midi": 52,
      "hit": false,
      "t": 147476.72400000048,
      "d": 1682.244000000006,
      "v": 56
    },
    {
      "midi": 71,
      "hit": false,
      "t": 147757.09800000035,
      "d": 280.3740000000107,
      "v": 56
    },
    {
      "midi": 59,
      "hit": false,
      "t": 147757.09800000046,
      "d": 280.3740000000107,
      "v": 56
    },
    {
      "midi": 76,
      "hit": false,
      "t": 148037.47200000036,
      "d": 280.3740000000107,
      "v": 56
    },
    {
      "midi": 56,
      "hit": false,
      "t": 148037.47200000047,
      "d": 280.3740000000107,
      "v": 56
    },
    {
      "midi": 68,
      "hit": false,
      "t": 148317.84600000037,
      "d": 280.3740000000107,
      "v": 56
    },
    {
      "midi": 64,
      "hit": false,
      "t": 148317.84600000049,
      "d": 280.3740000000107,
      "v": 56
    },
    {
      "midi": 71,
      "hit": false,
      "t": 148598.22000000038,
      "d": 280.3740000000107,
      "v": 56
    },
    {
      "midi": 59,
      "hit": false,
      "t": 148598.2200000005,
      "d": 280.3740000000107,
      "v": 56
    },
    {
      "midi": 76,
      "hit": false,
      "t": 148878.5940000004,
      "d": 280.3739999999816,
      "v": 56
    },
    {
      "midi": 56,
      "hit": false,
      "t": 148878.5940000005,
      "d": 280.3739999999816,
      "v": 56
    },
    {
      "midi": 80,
      "hit": false,
      "t": 149158.96800000037,
      "d": 1682.2440000000643,
      "v": 64
    },
    {
      "midi": 92,
      "hit": false,
      "t": 149158.96800000037,
      "d": 1682.2440000000643,
      "v": 64
    },
    {
      "midi": 39,
      "hit": false,
      "t": 149158.9680000005,
      "d": 1682.2440000000643,
      "v": 56
    },
    {
      "midi": 51,
      "hit": false,
      "t": 149158.9680000005,
      "d": 1682.2440000000643,
      "v": 56
    },
    {
      "midi": 72,
      "hit": false,
      "t": 149439.34200000038,
      "d": 280.3740000000107,
      "v": 56
    },
    {
      "midi": 60,
      "hit": false,
      "t": 149439.3420000005,
      "d": 280.3740000000107,
      "v": 56
    },
    {
      "midi": 78,
      "hit": false,
      "t": 149719.7160000004,
      "d": 280.3740000000107,
      "v": 56
    },
    {
      "midi": 56,
      "hit": false,
      "t": 149719.7160000005,
      "d": 280.3740000000107,
      "v": 56
    },
    {
      "midi": 68,
      "hit": false,
      "t": 150000.0900000004,
      "d": 280.3740000000107,
      "v": 56
    },
    {
      "midi": 66,
      "hit": false,
      "t": 150000.09000000052,
      "d": 280.3740000000107,
      "v": 56
    },
    {
      "midi": 72,
      "hit": false,
      "t": 150280.46400000041,
      "d": 280.3740000000107,
      "v": 56
    },
    {
      "midi": 60,
      "hit": false,
      "t": 150280.46400000053,
      "d": 280.3740000000107,
      "v": 56
    },
    {
      "midi": 78,
      "hit": false,
      "t": 150560.83800000043,
      "d": 280.3740000000107,
      "v": 56
    },
    {
      "midi": 56,
      "hit": false,
      "t": 150560.83800000054,
      "d": 280.3740000000107,
      "v": 56
    },
    {
      "midi": 80,
      "hit": false,
      "t": 150841.21200000044,
      "d": 280.3740000000107,
      "v": 56
    },
    {
      "midi": 72,
      "hit": false,
      "t": 151121.58600000045,
      "d": 280.3740000000107,
      "v": 56
    },
    {
      "midi": 60,
      "hit": false,
      "t": 151121.58600000056,
      "d": 280.3740000000107,
      "v": 56
    },
    {
      "midi": 78,
      "hit": false,
      "t": 151401.96000000046,
      "d": 280.3740000000107,
      "v": 56
    },
    {
      "midi": 56,
      "hit": false,
      "t": 151401.96000000057,
      "d": 280.3740000000107,
      "v": 56
    },
    {
      "midi": 68,
      "hit": false,
      "t": 151682.33400000047,
      "d": 280.3740000000107,
      "v": 56
    },
    {
      "midi": 66,
      "hit": false,
      "t": 151682.33400000058,
      "d": 280.3740000000107,
      "v": 56
    },
    {
      "midi": 60,
      "hit": false,
      "t": 151962.7080000006,
      "d": 280.3740000000107,
      "v": 56
    },
    {
      "midi": 80,
      "hit": false,
      "t": 152243.0820000005,
      "d": 280.3740000000107,
      "v": 64
    },
    {
      "midi": 92,
      "hit": false,
      "t": 152243.0820000005,
      "d": 280.3740000000107,
      "v": 64
    },
    {
      "midi": 56,
      "hit": false,
      "t": 152243.0820000006,
      "d": 280.3740000000107,
      "v": 56
    },
    {
      "midi": 80,
      "hit": false,
      "t": 152523.4560000005,
      "d": 1121.4960000000428,
      "v": 64
    },
    {
      "midi": 92,
      "hit": false,
      "t": 152523.4560000005,
      "d": 1121.4960000000428,
      "v": 64
    },
    {
      "midi": 38,
      "hit": false,
      "t": 152523.45600000062,
      "d": 1682.2440000000643,
      "v": 56
    },
    {
      "midi": 50,
      "hit": false,
      "t": 152523.45600000062,
      "d": 1682.2440000000643,
      "v": 56
    },
    {
      "midi": 71,
      "hit": false,
      "t": 152803.8300000005,
      "d": 280.3740000000107,
      "v": 56
    },
    {
      "midi": 59,
      "hit": false,
      "t": 152803.83000000063,
      "d": 280.3740000000107,
      "v": 56
    },
    {
      "midi": 78,
      "hit": false,
      "t": 153084.20400000052,
      "d": 280.3740000000107,
      "v": 56
    },
    {
      "midi": 56,
      "hit": false,
      "t": 153084.20400000064,
      "d": 280.3740000000107,
      "v": 56
    },
    {
      "midi": 68,
      "hit": false,
      "t": 153364.57800000053,
      "d": 280.3740000000107,
      "v": 56
    },
    {
      "midi": 66,
      "hit": false,
      "t": 153364.57800000065,
      "d": 280.3740000000107,
      "v": 56
    },
    {
      "midi": 59,
      "hit": false,
      "t": 153644.95200000066,
      "d": 280.3740000000107,
      "v": 56
    },
    {
      "midi": 80,
      "hit": false,
      "t": 153925.32600000055,
      "d": 280.3740000000107,
      "v": 64
    },
    {
      "midi": 92,
      "hit": false,
      "t": 153925.32600000055,
      "d": 280.3740000000107,
      "v": 64
    },
    {
      "midi": 56,
      "hit": false,
      "t": 153925.32600000067,
      "d": 280.3740000000107,
      "v": 56
    },
    {
      "midi": 81,
      "hit": false,
      "t": 154205.70000000056,
      "d": 1401.8700000000536,
      "v": 64
    },
    {
      "midi": 93,
      "hit": false,
      "t": 154205.70000000056,
      "d": 1401.8700000000536,
      "v": 64
    },
    {
      "midi": 37,
      "hit": false,
      "t": 154205.70000000068,
      "d": 1682.2440000000643,
      "v": 56
    },
    {
      "midi": 49,
      "hit": false,
      "t": 154205.70000000068,
      "d": 1682.2440000000643,
      "v": 56
    },
    {
      "midi": 71,
      "hit": false,
      "t": 154486.07400000058,
      "d": 280.3740000000107,
      "v": 56
    },
    {
      "midi": 59,
      "hit": false,
      "t": 154486.0740000007,
      "d": 280.3740000000107,
      "v": 56
    },
    {
      "midi": 77,
      "hit": false,
      "t": 154766.4480000006,
      "d": 280.3740000000107,
      "v": 56
    },
    {
      "midi": 56,
      "hit": false,
      "t": 154766.4480000007,
      "d": 280.3740000000107,
      "v": 56
    },
    {
      "midi": 68,
      "hit": false,
      "t": 155046.8220000006,
      "d": 280.3740000000107,
      "v": 56
    },
    {
      "midi": 65,
      "hit": false,
      "t": 155046.8220000007,
      "d": 280.3740000000107,
      "v": 56
    },
    {
      "midi": 59,
      "hit": false,
      "t": 155327.19600000072,
      "d": 280.3740000000107,
      "v": 56
    },
    {
      "midi": 80,
      "hit": false,
      "t": 155607.57000000062,
      "d": 280.3740000000107,
      "v": 64
    },
    {
      "midi": 92,
      "hit": false,
      "t": 155607.57000000062,
      "d": 280.3740000000107,
      "v": 64
    },
    {
      "midi": 56,
      "hit": false,
      "t": 155607.57000000073,
      "d": 280.3740000000107,
      "v": 56
    },
    {
      "midi": 80,
      "hit": false,
      "t": 155887.94400000063,
      "d": 1682.244000000006,
      "v": 64
    },
    {
      "midi": 92,
      "hit": false,
      "t": 155887.94400000063,
      "d": 1682.244000000006,
      "v": 64
    },
    {
      "midi": 42,
      "hit": false,
      "t": 155887.94400000075,
      "d": 280.3740000000107,
      "v": 56
    },
    {
      "midi": 52,
      "hit": false,
      "t": 156168.31800000076,
      "d": 280.3740000000107,
      "v": 56
    },
    {
      "midi": 58,
      "hit": false,
      "t": 156448.69200000077,
      "d": 280.3740000000107,
      "v": 56
    },
    {
      "midi": 58,
      "hit": false,
      "t": 156729.06600000078,
      "d": 280.3740000000107,
      "v": 56
    },
    {
      "midi": 64,
      "hit": false,
      "t": 157009.4400000008,
      "d": 280.3740000000107,
      "v": 56
    },
    {
      "midi": 68,
      "hit": false,
      "t": 157289.8140000008,
      "d": 280.3740000000107,
      "v": 56
    },
    {
      "midi": 73,
      "hit": false,
      "t": 157570.18800000063,
      "d": 560.7479999999923,
      "v": 64
    },
    {
      "midi": 85,
      "hit": false,
      "t": 157570.18800000063,
      "d": 560.7479999999923,
      "v": 64
    },
    {
      "midi": 68,
      "hit": false,
      "t": 157570.1880000008,
      "d": 280.3740000000107,
      "v": 56
    },
    {
      "midi": 64,
      "hit": false,
      "t": 157850.56200000082,
      "d": 280.3740000000107,
      "v": 56
    },
    {
      "midi": 58,
      "hit": false,
      "t": 158130.93600000083,
      "d": 280.3740000000107,
      "v": 56
    },
    {
      "midi": 58,
      "hit": false,
      "t": 158411.31000000084,
      "d": 280.3740000000107,
      "v": 56
    },
    {
      "midi": 73,
      "hit": false,
      "t": 158691.68400000062,
      "d": 560.7480000000214,
      "v": 64
    },
    {
      "midi": 85,
      "hit": false,
      "t": 158691.68400000062,
      "d": 560.7480000000214,
      "v": 64
    },
    {
      "midi": 52,
      "hit": false,
      "t": 158691.68400000085,
      "d": 280.3740000000107,
      "v": 56
    },
    {
      "midi": 42,
      "hit": false,
      "t": 158972.05800000086,
      "d": 280.3740000000107,
      "v": 56
    },
    {
      "midi": 73,
      "hit": false,
      "t": 159252.43200000064,
      "d": 560.7480000000214,
      "v": 64
    },
    {
      "midi": 81,
      "hit": false,
      "t": 159252.43200000064,
      "d": 560.7480000000214,
      "v": 64
    },
    {
      "midi": 85,
      "hit": false,
      "t": 159252.43200000064,
      "d": 560.7480000000214,
      "v": 64
    },
    {
      "midi": 35,
      "hit": false,
      "t": 159252.43200000087,
      "d": 280.3740000000107,
      "v": 56
    },
    {
      "midi": 47,
      "hit": false,
      "t": 159532.80600000088,
      "d": 280.3740000000107,
      "v": 56
    },
    {
      "midi": 75,
      "hit": false,
      "t": 159813.18000000066,
      "d": 560.7479999999923,
      "v": 64
    },
    {
      "midi": 81,
      "hit": false,
      "t": 159813.18000000066,
      "d": 560.7479999999923,
      "v": 64
    },
    {
      "midi": 83,
      "hit": false,
      "t": 159813.18000000066,
      "d": 560.7479999999923,
      "v": 64
    },
    {
      "midi": 87,
      "hit": false,
      "t": 159813.18000000066,
      "d": 560.7479999999923,
      "v": 64
    },
    {
      "midi": 54,
      "hit": false,
      "t": 159813.1800000009,
      "d": 280.3740000000107,
      "v": 56
    },
    {
      "midi": 57,
      "hit": false,
      "t": 160093.5540000009,
      "d": 280.3740000000107,
      "v": 56
    },
    {
      "midi": 76,
      "hit": false,
      "t": 160373.92800000065,
      "d": 560.7479999999923,
      "v": 64
    },
    {
      "midi": 81,
      "hit": false,
      "t": 160373.92800000065,
      "d": 560.7479999999923,
      "v": 64
    },
    {
      "midi": 83,
      "hit": false,
      "t": 160373.92800000065,
      "d": 560.7479999999923,
      "v": 64
    },
    {
      "midi": 88,
      "hit": false,
      "t": 160373.92800000065,
      "d": 560.7479999999923,
      "v": 64
    },
    {
      "midi": 61,
      "hit": false,
      "t": 160373.92800000092,
      "d": 280.3740000000107,
      "v": 56
    },
    {
      "midi": 64,
      "hit": false,
      "t": 160654.30200000093,
      "d": 280.3740000000107,
      "v": 56
    },
    {
      "midi": 80,
      "hit": false,
      "t": 160934.67600000065,
      "d": 1121.4960000000137,
      "v": 64
    },
    {
      "midi": 83,
      "hit": false,
      "t": 160934.67600000065,
      "d": 1121.4960000000137,
      "v": 64
    },
    {
      "midi": 87,
      "hit": false,
      "t": 160934.67600000065,
      "d": 1121.4960000000137,
      "v": 64
    },
    {
      "midi": 92,
      "hit": false,
      "t": 160934.67600000065,
      "d": 1121.4960000000137,
      "v": 64
    },
    {
      "midi": 68,
      "hit": false,
      "t": 160934.67600000094,
      "d": 280.3740000000107,
      "v": 56
    },
    {
      "midi": 63,
      "hit": false,
      "t": 161215.05000000095,
      "d": 280.3740000000107,
      "v": 56
    },
    {
      "midi": 59,
      "hit": false,
      "t": 161495.42400000096,
      "d": 280.3740000000107,
      "v": 56
    },
    {
      "midi": 57,
      "hit": false,
      "t": 161775.79800000097,
      "d": 280.3740000000107,
      "v": 56
    },
    {
      "midi": 78,
      "hit": false,
      "t": 162056.17200000066,
      "d": 560.7479999999923,
      "v": 64
    },
    {
      "midi": 90,
      "hit": false,
      "t": 162056.17200000066,
      "d": 560.7479999999923,
      "v": 64
    },
    {
      "midi": 51,
      "hit": false,
      "t": 162056.17200000098,
      "d": 280.3740000000107,
      "v": 56
    },
    {
      "midi": 47,
      "hit": false,
      "t": 162336.546000001,
      "d": 280.3740000000107,
      "v": 56
    },
    {
      "midi": 78,
      "hit": false,
      "t": 162616.92000000065,
      "d": 560.7480000000214,
      "v": 64
    },
    {
      "midi": 80,
      "hit": false,
      "t": 162616.92000000065,
      "d": 560.7480000000214,
      "v": 64
    },
    {
      "midi": 83,
      "hit": false,
      "t": 162616.92000000065,
      "d": 560.7480000000214,
      "v": 64
    },
    {
      "midi": 90,
      "hit": false,
      "t": 162616.92000000065,
      "d": 560.7480000000214,
      "v": 64
    },
    {
      "midi": 40,
      "hit": false,
      "t": 162616.920000001,
      "d": 280.3740000000107,
      "v": 56
    },
    {
      "midi": 47,
      "hit": false,
      "t": 162897.294000001,
      "d": 280.3740000000107,
      "v": 56
    },
    {
      "midi": 76,
      "hit": false,
      "t": 163177.66800000067,
      "d": 560.7479999999923,
      "v": 64
    },
    {
      "midi": 88,
      "hit": false,
      "t": 163177.66800000067,
      "d": 560.7479999999923,
      "v": 64
    },
    {
      "midi": 52,
      "hit": false,
      "t": 163177.66800000102,
      "d": 280.3740000000107,
      "v": 56
    },
    {
      "midi": 56,
      "hit": false,
      "t": 163458.04200000103,
      "d": 280.3740000000107,
      "v": 56
    },
    {
      "midi": 73,
      "hit": false,
      "t": 163738.41600000067,
      "d": 560.7479999999923,
      "v": 64
    },
    {
      "midi": 79,
      "hit": false,
      "t": 163738.41600000067,
      "d": 560.7479999999923,
      "v": 64
    },
    {
      "midi": 85,
      "hit": false,
      "t": 163738.41600000067,
      "d": 560.7479999999923,
      "v": 64
    },
    {
      "midi": 58,
      "hit": false,
      "t": 163738.41600000105,
      "d": 280.3740000000107,
      "v": 56
    },
    {
      "midi": 64,
      "hit": false,
      "t": 164018.79000000106,
      "d": 280.3740000000107,
      "v": 56
    },
    {
      "midi": 71,
      "hit": false,
      "t": 164299.16400000066,
      "d": 560.7479999999923,
      "v": 64
    },
    {
      "midi": 80,
      "hit": false,
      "t": 164299.16400000066,
      "d": 560.7479999999923,
      "v": 64
    },
    {
      "midi": 83,
      "hit": false,
      "t": 164299.16400000066,
      "d": 560.7479999999923,
      "v": 64
    },
    {
      "midi": 59,
      "hit": false,
      "t": 164299.16400000107,
      "d": 280.3740000000107,
      "v": 56
    },
    {
      "midi": 68,
      "hit": false,
      "t": 164579.53800000108,
      "d": 280.3740000000107,
      "v": 56
    },
    {
      "midi": 64,
      "hit": false,
      "t": 164859.9120000011,
      "d": 280.3740000000107,
      "v": 56
    },
    {
      "midi": 59,
      "hit": false,
      "t": 165140.2860000011,
      "d": 280.3740000000107,
      "v": 56
    },
    {
      "midi": 71,
      "hit": false,
      "t": 165420.66000000064,
      "d": 560.7479999999923,
      "v": 64
    },
    {
      "midi": 83,
      "hit": false,
      "t": 165420.66000000064,
      "d": 560.7479999999923,
      "v": 64
    },
    {
      "midi": 56,
      "hit": false,
      "t": 165420.6600000011,
      "d": 280.3740000000107,
      "v": 56
    },
    {
      "midi": 47,
      "hit": false,
      "t": 165701.03400000112,
      "d": 280.3739999999816,
      "v": 56
    },
    {
      "midi": 80,
      "hit": false,
      "t": 165981.40800000064,
      "d": 1682.2440000000352,
      "v": 64
    },
    {
      "midi": 92,
      "hit": false,
      "t": 165981.40800000064,
      "d": 1682.2440000000352,
      "v": 64
    },
    {
      "midi": 40,
      "hit": false,
      "t": 165981.4080000011,
      "d": 1682.2440000000352,
      "v": 56
    },
    {
      "midi": 52,
      "hit": false,
      "t": 165981.4080000011,
      "d": 1682.2440000000352,
      "v": 56
    },
    {
      "midi": 71,
      "hit": false,
      "t": 166261.78200000065,
      "d": 280.3740000000107,
      "v": 56
    },
    {
      "midi": 59,
      "hit": false,
      "t": 166261.7820000011,
      "d": 280.3740000000107,
      "v": 56
    },
    {
      "midi": 76,
      "hit": false,
      "t": 166542.15600000066,
      "d": 280.3740000000107,
      "v": 56
    },
    {
      "midi": 56,
      "hit": false,
      "t": 166542.15600000112,
      "d": 280.3740000000107,
      "v": 56
    },
    {
      "midi": 68,
      "hit": false,
      "t": 166822.53000000067,
      "d": 280.3740000000107,
      "v": 56
    },
    {
      "midi": 64,
      "hit": false,
      "t": 166822.53000000113,
      "d": 280.3740000000107,
      "v": 56
    },
    {
      "midi": 71,
      "hit": false,
      "t": 167102.90400000068,
      "d": 280.3740000000107,
      "v": 56
    },
    {
      "midi": 59,
      "hit": false,
      "t": 167102.90400000114,
      "d": 280.3740000000107,
      "v": 56
    },
    {
      "midi": 76,
      "hit": false,
      "t": 167383.2780000007,
      "d": 280.3739999999816,
      "v": 56
    },
    {
      "midi": 56,
      "hit": false,
      "t": 167383.27800000116,
      "d": 280.3739999999816,
      "v": 56
    },
    {
      "midi": 80,
      "hit": false,
      "t": 167663.65200000067,
      "d": 1682.2440000000643,
      "v": 64
    },
    {
      "midi": 92,
      "hit": false,
      "t": 167663.65200000067,
      "d": 1682.2440000000643,
      "v": 64
    },
    {
      "midi": 39,
      "hit": false,
      "t": 167663.65200000114,
      "d": 1682.2440000000643,
      "v": 56
    },
    {
      "midi": 51,
      "hit": false,
      "t": 167663.65200000114,
      "d": 1682.2440000000643,
      "v": 56
    },
    {
      "midi": 72,
      "hit": false,
      "t": 167944.02600000068,
      "d": 280.3740000000107,
      "v": 56
    },
    {
      "midi": 60,
      "hit": false,
      "t": 167944.02600000115,
      "d": 280.3740000000107,
      "v": 56
    },
    {
      "midi": 78,
      "hit": false,
      "t": 168224.4000000007,
      "d": 280.3740000000107,
      "v": 56
    },
    {
      "midi": 56,
      "hit": false,
      "t": 168224.40000000116,
      "d": 280.3740000000107,
      "v": 56
    },
    {
      "midi": 68,
      "hit": false,
      "t": 168504.7740000007,
      "d": 280.3740000000107,
      "v": 56
    },
    {
      "midi": 66,
      "hit": false,
      "t": 168504.77400000117,
      "d": 280.3740000000107,
      "v": 56
    },
    {
      "midi": 72,
      "hit": false,
      "t": 168785.1480000007,
      "d": 280.3740000000107,
      "v": 56
    },
    {
      "midi": 60,
      "hit": false,
      "t": 168785.14800000118,
      "d": 280.3740000000107,
      "v": 56
    },
    {
      "midi": 78,
      "hit": false,
      "t": 169065.52200000072,
      "d": 280.3740000000107,
      "v": 56
    },
    {
      "midi": 56,
      "hit": false,
      "t": 169065.5220000012,
      "d": 280.3740000000107,
      "v": 56
    },
    {
      "midi": 80,
      "hit": false,
      "t": 169345.89600000074,
      "d": 1682.2440000000352,
      "v": 64
    },
    {
      "midi": 92,
      "hit": false,
      "t": 169345.89600000074,
      "d": 3364.4880000000994,
      "v": 64
    },
    {
      "midi": 38,
      "hit": false,
      "t": 169345.8960000012,
      "d": 1682.2440000000352,
      "v": 56
    },
    {
      "midi": 50,
      "hit": false,
      "t": 169345.8960000012,
      "d": 1682.2440000000352,
      "v": 56
    },
    {
      "midi": 71,
      "hit": false,
      "t": 169626.27000000075,
      "d": 280.3739999999816,
      "v": 56
    },
    {
      "midi": 59,
      "hit": false,
      "t": 169626.2700000012,
      "d": 280.3739999999816,
      "v": 56
    },
    {
      "midi": 77,
      "hit": false,
      "t": 169906.64400000073,
      "d": 280.3740000000107,
      "v": 56
    },
    {
      "midi": 56,
      "hit": false,
      "t": 169906.6440000012,
      "d": 280.3740000000107,
      "v": 56
    },
    {
      "midi": 68,
      "hit": false,
      "t": 170187.01800000074,
      "d": 280.3740000000107,
      "v": 56
    },
    {
      "midi": 65,
      "hit": false,
      "t": 170187.0180000012,
      "d": 280.3740000000107,
      "v": 56
    },
    {
      "midi": 71,
      "hit": false,
      "t": 170467.39200000075,
      "d": 280.3740000000107,
      "v": 56
    },
    {
      "midi": 59,
      "hit": false,
      "t": 170467.39200000121,
      "d": 280.3740000000107,
      "v": 56
    },
    {
      "midi": 77,
      "hit": false,
      "t": 170747.76600000076,
      "d": 280.3740000000107,
      "v": 56
    },
    {
      "midi": 56,
      "hit": false,
      "t": 170747.76600000123,
      "d": 280.3740000000107,
      "v": 56
    },
    {
      "midi": 80,
      "hit": false,
      "t": 171028.14000000077,
      "d": 280.3740000000107,
      "v": 56
    },
    {
      "midi": 49,
      "hit": false,
      "t": 171028.14000000124,
      "d": 280.3740000000107,
      "v": 56
    },
    {
      "midi": 71,
      "hit": false,
      "t": 171308.51400000078,
      "d": 280.3740000000107,
      "v": 56
    },
    {
      "midi": 59,
      "hit": false,
      "t": 171308.51400000125,
      "d": 280.3740000000107,
      "v": 56
    },
    {
      "midi": 77,
      "hit": false,
      "t": 171588.8880000008,
      "d": 280.3740000000107,
      "v": 56
    },
    {
      "midi": 56,
      "hit": false,
      "t": 171588.88800000126,
      "d": 280.3740000000107,
      "v": 56
    },
    {
      "midi": 68,
      "hit": false,
      "t": 171869.2620000008,
      "d": 280.3740000000107,
      "v": 56
    },
    {
      "midi": 65,
      "hit": false,
      "t": 171869.26200000127,
      "d": 280.3740000000107,
      "v": 56
    },
    {
      "midi": 71,
      "hit": false,
      "t": 172149.6360000008,
      "d": 280.3740000000107,
      "v": 56
    },
    {
      "midi": 59,
      "hit": false,
      "t": 172149.63600000128,
      "d": 280.3740000000107,
      "v": 56
    },
    {
      "midi": 77,
      "hit": false,
      "t": 172430.01000000082,
      "d": 280.3740000000107,
      "v": 56
    },
    {
      "midi": 56,
      "hit": false,
      "t": 172430.0100000013,
      "d": 280.3740000000107,
      "v": 56
    },
    {
      "midi": 80,
      "hit": false,
      "t": 172710.38400000083,
      "d": 1682.2440000000352,
      "v": 64
    },
    {
      "midi": 92,
      "hit": false,
      "t": 172710.38400000083,
      "d": 1682.2440000000352,
      "v": 64
    },
    {
      "midi": 36,
      "hit": false,
      "t": 172710.3840000013,
      "d": 1682.2440000000352,
      "v": 56
    },
    {
      "midi": 48,
      "hit": false,
      "t": 172710.3840000013,
      "d": 1682.2440000000352,
      "v": 56
    },
    {
      "midi": 72,
      "hit": false,
      "t": 172990.75800000085,
      "d": 280.3739999999816,
      "v": 56
    },
    {
      "midi": 60,
      "hit": false,
      "t": 172990.7580000013,
      "d": 280.3739999999816,
      "v": 56
    },
    {
      "midi": 77,
      "hit": false,
      "t": 173271.13200000083,
      "d": 280.3740000000107,
      "v": 56
    },
    {
      "midi": 56,
      "hit": false,
      "t": 173271.1320000013,
      "d": 280.3740000000107,
      "v": 56
    },
    {
      "midi": 68,
      "hit": false,
      "t": 173551.50600000084,
      "d": 280.3740000000107,
      "v": 56
    },
    {
      "midi": 65,
      "hit": false,
      "t": 173551.5060000013,
      "d": 280.3740000000107,
      "v": 56
    },
    {
      "midi": 72,
      "hit": false,
      "t": 173831.88000000085,
      "d": 280.3740000000107,
      "v": 56
    },
    {
      "midi": 60,
      "hit": false,
      "t": 173831.8800000013,
      "d": 280.3740000000107,
      "v": 56
    },
    {
      "midi": 56,
      "hit": false,
      "t": 174112.25400000133,
      "d": 280.3740000000107,
      "v": 56
    },
    {
      "midi": 80,
      "hit": false,
      "t": 174392.62800000087,
      "d": 1682.2440000000352,
      "v": 64
    },
    {
      "midi": 92,
      "hit": false,
      "t": 174392.62800000087,
      "d": 1682.2440000000352,
      "v": 64
    },
    {
      "midi": 35,
      "hit": false,
      "t": 174392.62800000134,
      "d": 1682.2440000000352,
      "v": 56
    },
    {
      "midi": 47,
      "hit": false,
      "t": 174392.62800000134,
      "d": 1682.2440000000352,
      "v": 56
    },
    {
      "midi": 73,
      "hit": false,
      "t": 174673.00200000088,
      "d": 280.3739999999816,
      "v": 56
    },
    {
      "midi": 61,
      "hit": false,
      "t": 174673.00200000135,
      "d": 280.3739999999816,
      "v": 56
    },
    {
      "midi": 77,
      "hit": false,
      "t": 174953.37600000086,
      "d": 280.3740000000107,
      "v": 56
    },
    {
      "midi": 56,
      "hit": false,
      "t": 174953.37600000133,
      "d": 280.3740000000107,
      "v": 56
    },
    {
      "midi": 68,
      "hit": false,
      "t": 175233.75000000087,
      "d": 280.3740000000107,
      "v": 56
    },
    {
      "midi": 65,
      "hit": false,
      "t": 175233.75000000134,
      "d": 280.3740000000107,
      "v": 56
    },
    {
      "midi": 73,
      "hit": false,
      "t": 175514.12400000088,
      "d": 280.3740000000107,
      "v": 56
    },
    {
      "midi": 61,
      "hit": false,
      "t": 175514.12400000135,
      "d": 280.3740000000107,
      "v": 56
    },
    {
      "midi": 77,
      "hit": false,
      "t": 175794.4980000009,
      "d": 280.3740000000107,
      "v": 56
    },
    {
      "midi": 56,
      "hit": false,
      "t": 175794.49800000136,
      "d": 280.3740000000107,
      "v": 56
    },
    {
      "midi": 80,
      "hit": false,
      "t": 176074.8720000009,
      "d": 1121.4960000000137,
      "v": 64
    },
    {
      "midi": 86,
      "hit": false,
      "t": 176074.8720000009,
      "d": 1121.4960000000137,
      "v": 64
    },
    {
      "midi": 92,
      "hit": false,
      "t": 176074.8720000009,
      "d": 1121.4960000000137,
      "v": 64
    },
    {
      "midi": 34,
      "hit": false,
      "t": 176074.87200000137,
      "d": 560.7480000000214,
      "v": 56
    },
    {
      "midi": 46,
      "hit": false,
      "t": 176074.87200000137,
      "d": 560.7480000000214,
      "v": 56
    },
    {
      "midi": 56,
      "hit": false,
      "t": 176355.24600000138,
      "d": 280.3740000000107,
      "v": 56
    },
    {
      "midi": 62,
      "hit": false,
      "t": 176635.6200000014,
      "d": 280.3740000000107,
      "v": 56
    },
    {
      "midi": 65,
      "hit": false,
      "t": 176915.9940000014,
      "d": 280.3740000000107,
      "v": 56
    },
    {
      "midi": 79,
      "hit": false,
      "t": 177196.36800000092,
      "d": 560.7479999999923,
      "v": 64
    },
    {
      "midi": 91,
      "hit": false,
      "t": 177196.36800000092,
      "d": 560.7479999999923,
      "v": 64
    },
    {
      "midi": 62,
      "hit": false,
      "t": 177196.3680000014,
      "d": 280.3740000000107,
      "v": 56
    },
    {
      "midi": 56,
      "hit": false,
      "t": 177476.74200000142,
      "d": 280.3740000000107,
      "v": 56
    },
    {
      "midi": 77,
      "hit": false,
      "t": 177757.1160000009,
      "d": 560.7479999999923,
      "v": 64
    },
    {
      "midi": 89,
      "hit": false,
      "t": 177757.1160000009,
      "d": 560.7479999999923,
      "v": 64
    },
    {
      "midi": 53,
      "hit": false,
      "t": 177757.11600000144,
      "d": 280.3740000000107,
      "v": 56
    },
    {
      "midi": 56,
      "hit": false,
      "t": 178037.49000000145,
      "d": 280.3740000000107,
      "v": 56
    },
    {
      "midi": 67,
      "hit": false,
      "t": 178317.8640000009,
      "d": 560.7479999999923,
      "v": 64
    },
    {
      "midi": 79,
      "hit": false,
      "t": 178317.8640000009,
      "d": 560.7479999999923,
      "v": 64
    },
    {
      "midi": 62,
      "hit": false,
      "t": 178317.86400000146,
      "d": 280.3740000000107,
      "v": 56
    },
    {
      "midi": 65,
      "hit": false,
      "t": 178598.23800000147,
      "d": 280.3740000000107,
      "v": 56
    },
    {
      "midi": 68,
      "hit": false,
      "t": 178878.6120000009,
      "d": 560.7480000000214,
      "v": 64
    },
    {
      "midi": 80,
      "hit": false,
      "t": 178878.6120000009,
      "d": 560.7480000000214,
      "v": 64
    },
    {
      "midi": 62,
      "hit": false,
      "t": 178878.61200000148,
      "d": 280.3740000000107,
      "v": 56
    },
    {
      "midi": 56,
      "hit": false,
      "t": 179158.9860000015,
      "d": 280.3740000000107,
      "v": 56
    },
    {
      "midi": 72,
      "hit": false,
      "t": 179439.36000000092,
      "d": 1682.244000000006,
      "v": 64
    },
    {
      "midi": 77,
      "hit": false,
      "t": 179439.36000000092,
      "d": 1682.244000000006,
      "v": 64
    },
    {
      "midi": 80,
      "hit": false,
      "t": 179439.36000000092,
      "d": 1682.244000000006,
      "v": 64
    },
    {
      "midi": 84,
      "hit": false,
      "t": 179439.36000000092,
      "d": 1682.244000000006,
      "v": 64
    },
    {
      "midi": 39,
      "hit": false,
      "t": 179439.3600000015,
      "d": 280.3740000000107,
      "v": 56
    },
    {
      "midi": 49,
      "hit": false,
      "t": 179719.7340000015,
      "d": 280.3740000000107,
      "v": 56
    },
    {
      "midi": 53,
      "hit": false,
      "t": 180000.10800000152,
      "d": 280.3740000000107,
      "v": 56
    },
    {
      "midi": 56,
      "hit": false,
      "t": 180280.48200000153,
      "d": 280.3740000000107,
      "v": 56
    },
    {
      "midi": 58,
      "hit": false,
      "t": 180560.85600000154,
      "d": 280.3740000000107,
      "v": 56
    },
    {
      "midi": 61,
      "hit": false,
      "t": 180841.23000000155,
      "d": 280.3740000000107,
      "v": 56
    },
    {
      "midi": 70,
      "hit": false,
      "t": 181121.60400000092,
      "d": 560.7479999999923,
      "v": 64
    },
    {
      "midi": 82,
      "hit": false,
      "t": 181121.60400000092,
      "d": 560.7479999999923,
      "v": 64
    },
    {
      "midi": 65,
      "hit": false,
      "t": 181121.60400000156,
      "d": 280.3740000000107,
      "v": 56
    },
    {
      "midi": 61,
      "hit": false,
      "t": 181401.97800000157,
      "d": 280.3740000000107,
      "v": 56
    },
    {
      "midi": 58,
      "hit": false,
      "t": 181682.35200000159,
      "d": 280.3740000000107,
      "v": 56
    },
    {
      "midi": 56,
      "hit": false,
      "t": 181962.7260000016,
      "d": 280.3740000000107,
      "v": 56
    },
    {
      "midi": 80,
      "hit": false,
      "t": 182243.1000000009,
      "d": 560.7479999999923,
      "v": 64
    },
    {
      "midi": 92,
      "hit": false,
      "t": 182243.1000000009,
      "d": 560.7479999999923,
      "v": 64
    },
    {
      "midi": 53,
      "hit": false,
      "t": 182243.1000000016,
      "d": 280.3740000000107,
      "v": 56
    },
    {
      "midi": 49,
      "hit": false,
      "t": 182523.47400000162,
      "d": 280.3739999999816,
      "v": 56
    },
    {
      "midi": 80,
      "hit": false,
      "t": 182803.8480000009,
      "d": 841.122000000003,
      "v": 64
    },
    {
      "midi": 86,
      "hit": false,
      "t": 182803.8480000009,
      "d": 841.122000000003,
      "v": 64
    },
    {
      "midi": 92,
      "hit": false,
      "t": 182803.8480000009,
      "d": 841.122000000003,
      "v": 64
    },
    {
      "midi": 34,
      "hit": false,
      "t": 182803.8480000016,
      "d": 560.7479999999923,
      "v": 56
    },
    {
      "midi": 46,
      "hit": false,
      "t": 182803.8480000016,
      "d": 560.7479999999923,
      "v": 56
    },
    {
      "midi": 56,
      "hit": false,
      "t": 183084.2220000016,
      "d": 280.3739999999816,
      "v": 56
    },
    {
      "midi": 62,
      "hit": false,
      "t": 183364.5960000016,
      "d": 280.3740000000107,
      "v": 56
    },
    {
      "midi": 79,
      "hit": false,
      "t": 183644.9700000009,
      "d": 280.3740000000107,
      "v": 64
    },
    {
      "midi": 91,
      "hit": false,
      "t": 183644.9700000009,
      "d": 280.3740000000107,
      "v": 64
    },
    {
      "midi": 65,
      "hit": false,
      "t": 183644.9700000016,
      "d": 280.3740000000107,
      "v": 56
    },
    {
      "midi": 82,
      "hit": false,
      "t": 183925.3440000009,
      "d": 181.07487499999115,
      "v": 64
    },
    {
      "midi": 94,
      "hit": false,
      "t": 183925.3440000009,
      "d": 181.07487499999115,
      "v": 64
    },
    {
      "midi": 62,
      "hit": false,
      "t": 183925.3440000016,
      "d": 280.3740000000107,
      "v": 56
    },
    {
      "midi": 80,
      "hit": false,
      "t": 184106.4188750009,
      "d": 186.91599999999744,
      "v": 64
    },
    {
      "midi": 92,
      "hit": false,
      "t": 184106.4188750009,
      "d": 186.91599999999744,
      "v": 64
    },
    {
      "midi": 56,
      "hit": false,
      "t": 184205.71800000162,
      "d": 280.3740000000107,
      "v": 56
    },
    {
      "midi": 79,
      "hit": false,
      "t": 184293.3348750009,
      "d": 186.91599999999744,
      "v": 64
    },
    {
      "midi": 91,
      "hit": false,
      "t": 184293.3348750009,
      "d": 186.91599999999744,
      "v": 64
    },
    {
      "midi": 77,
      "hit": false,
      "t": 184486.0920000009,
      "d": 560.7479999999923,
      "v": 64
    },
    {
      "midi": 89,
      "hit": false,
      "t": 184486.0920000009,
      "d": 560.7479999999923,
      "v": 64
    },
    {
      "midi": 53,
      "hit": false,
      "t": 184486.09200000163,
      "d": 280.3740000000107,
      "v": 56
    },
    {
      "midi": 56,
      "hit": false,
      "t": 184766.46600000164,
      "d": 280.3740000000107,
      "v": 56
    },
    {
      "midi": 67,
      "hit": false,
      "t": 185046.8400000009,
      "d": 560.7479999999923,
      "v": 64
    },
    {
      "midi": 79,
      "hit": false,
      "t": 185046.8400000009,
      "d": 560.7479999999923,
      "v": 64
    },
    {
      "midi": 62,
      "hit": false,
      "t": 185046.84000000166,
      "d": 280.3740000000107,
      "v": 56
    },
    {
      "midi": 65,
      "hit": false,
      "t": 185327.21400000167,
      "d": 280.3740000000107,
      "v": 56
    },
    {
      "midi": 68,
      "hit": false,
      "t": 185607.5880000009,
      "d": 560.7479999999923,
      "v": 64
    },
    {
      "midi": 80,
      "hit": false,
      "t": 185607.5880000009,
      "d": 560.7479999999923,
      "v": 64
    },
    {
      "midi": 62,
      "hit": false,
      "t": 185607.58800000168,
      "d": 280.3740000000107,
      "v": 56
    },
    {
      "midi": 56,
      "hit": false,
      "t": 185887.9620000017,
      "d": 280.3740000000107,
      "v": 56
    },
    {
      "midi": 72,
      "hit": false,
      "t": 186168.33600000088,
      "d": 1682.243999999977,
      "v": 64
    },
    {
      "midi": 77,
      "hit": false,
      "t": 186168.33600000088,
      "d": 1682.243999999977,
      "v": 64
    },
    {
      "midi": 80,
      "hit": false,
      "t": 186168.33600000088,
      "d": 1682.243999999977,
      "v": 64
    },
    {
      "midi": 84,
      "hit": false,
      "t": 186168.33600000088,
      "d": 1682.243999999977,
      "v": 64
    },
    {
      "midi": 39,
      "hit": false,
      "t": 186168.3360000017,
      "d": 280.3739999999816,
      "v": 56
    },
    {
      "midi": 49,
      "hit": false,
      "t": 186448.71000000168,
      "d": 280.3740000000107,
      "v": 56
    },
    {
      "midi": 53,
      "hit": false,
      "t": 186729.0840000017,
      "d": 280.3740000000107,
      "v": 56
    },
    {
      "midi": 56,
      "hit": false,
      "t": 187009.4580000017,
      "d": 280.3740000000107,
      "v": 56
    },
    {
      "midi": 58,
      "hit": false,
      "t": 187289.8320000017,
      "d": 280.3740000000107,
      "v": 56
    },
    {
      "midi": 61,
      "hit": false,
      "t": 187570.20600000172,
      "d": 280.3740000000107,
      "v": 56
    },
    {
      "midi": 70,
      "hit": false,
      "t": 187850.58000000086,
      "d": 560.7479999999923,
      "v": 64
    },
    {
      "midi": 82,
      "hit": false,
      "t": 187850.58000000086,
      "d": 560.7479999999923,
      "v": 64
    },
    {
      "midi": 65,
      "hit": false,
      "t": 187850.58000000173,
      "d": 280.3740000000107,
      "v": 56
    },
    {
      "midi": 61,
      "hit": false,
      "t": 188130.95400000174,
      "d": 280.3740000000107,
      "v": 56
    },
    {
      "midi": 58,
      "hit": false,
      "t": 188411.32800000175,
      "d": 280.3740000000107,
      "v": 56
    },
    {
      "midi": 56,
      "hit": false,
      "t": 188691.70200000177,
      "d": 280.3740000000107,
      "v": 56
    },
    {
      "midi": 80,
      "hit": false,
      "t": 188972.07600000084,
      "d": 560.7479999999923,
      "v": 64
    },
    {
      "midi": 92,
      "hit": false,
      "t": 188972.07600000084,
      "d": 560.7479999999923,
      "v": 64
    },
    {
      "midi": 53,
      "hit": false,
      "t": 188972.07600000178,
      "d": 280.3740000000107,
      "v": 56
    },
    {
      "midi": 49,
      "hit": false,
      "t": 189252.4500000018,
      "d": 280.3740000000107,
      "v": 56
    },
    {
      "midi": 80,
      "hit": false,
      "t": 189532.82400000084,
      "d": 841.122000000003,
      "v": 64
    },
    {
      "midi": 86,
      "hit": false,
      "t": 189532.82400000084,
      "d": 841.122000000003,
      "v": 64
    },
    {
      "midi": 92,
      "hit": false,
      "t": 189532.82400000084,
      "d": 841.122000000003,
      "v": 64
    },
    {
      "midi": 35,
      "hit": false,
      "t": 189532.8240000018,
      "d": 1682.2440000000352,
      "v": 56
    },
    {
      "midi": 47,
      "hit": false,
      "t": 189532.8240000018,
      "d": 1682.2440000000352,
      "v": 56
    },
    {
      "midi": 56,
      "hit": false,
      "t": 189813.19800000178,
      "d": 280.3740000000107,
      "v": 56
    },
    {
      "midi": 62,
      "hit": false,
      "t": 190093.5720000018,
      "d": 280.3740000000107,
      "v": 56
    },
    {
      "midi": 79,
      "hit": false,
      "t": 190373.94600000084,
      "d": 280.3740000000107,
      "v": 64
    },
    {
      "midi": 91,
      "hit": false,
      "t": 190373.94600000084,
      "d": 280.3740000000107,
      "v": 64
    },
    {
      "midi": 65,
      "hit": false,
      "t": 190373.9460000018,
      "d": 280.3740000000107,
      "v": 56
    },
    {
      "midi": 82,
      "hit": false,
      "t": 190654.32000000085,
      "d": 280.3740000000107,
      "v": 64
    },
    {
      "midi": 94,
      "hit": false,
      "t": 190654.32000000085,
      "d": 280.3740000000107,
      "v": 64
    },
    {
      "midi": 62,
      "hit": false,
      "t": 190654.3200000018,
      "d": 280.3740000000107,
      "v": 56
    },
    {
      "midi": 80,
      "hit": false,
      "t": 190934.69400000086,
      "d": 280.3740000000107,
      "v": 64
    },
    {
      "midi": 92,
      "hit": false,
      "t": 190934.69400000086,
      "d": 280.3740000000107,
      "v": 64
    },
    {
      "midi": 56,
      "hit": false,
      "t": 190934.69400000182,
      "d": 280.3740000000107,
      "v": 56
    },
    {
      "midi": 83,
      "hit": false,
      "t": 191215.06800000087,
      "d": 280.3740000000107,
      "v": 64
    },
    {
      "midi": 95,
      "hit": false,
      "t": 191215.06800000087,
      "d": 280.3740000000107,
      "v": 64
    },
    {
      "midi": 34,
      "hit": false,
      "t": 191215.06800000183,
      "d": 560.7479999999923,
      "v": 56
    },
    {
      "midi": 46,
      "hit": false,
      "t": 191215.06800000183,
      "d": 560.7479999999923,
      "v": 56
    },
    {
      "midi": 82,
      "hit": false,
      "t": 191495.44200000088,
      "d": 280.3739999999816,
      "v": 64
    },
    {
      "midi": 94,
      "hit": false,
      "t": 191495.44200000088,
      "d": 280.3739999999816,
      "v": 64
    },
    {
      "midi": 53,
      "hit": false,
      "t": 191495.44200000184,
      "d": 280.3739999999816,
      "v": 56
    },
    {
      "midi": 91,
      "hit": false,
      "t": 191775.81600000086,
      "d": 560.7479999999923,
      "v": 64
    },
    {
      "midi": 103,
      "hit": false,
      "t": 191775.81600000086,
      "d": 560.7479999999923,
      "v": 64
    },
    {
      "midi": 56,
      "hit": false,
      "t": 191775.81600000183,
      "d": 280.3740000000107,
      "v": 56
    },
    {
      "midi": 62,
      "hit": false,
      "t": 192056.19000000184,
      "d": 280.3740000000107,
      "v": 56
    },
    {
      "midi": 56,
      "hit": false,
      "t": 192336.56400000185,
      "d": 280.3740000000107,
      "v": 56
    },
    {
      "midi": 89,
      "hit": false,
      "t": 192616.93800000087,
      "d": 280.3740000000107,
      "v": 64
    },
    {
      "midi": 101,
      "hit": false,
      "t": 192616.93800000087,
      "d": 280.3740000000107,
      "v": 64
    },
    {
      "midi": 53,
      "hit": false,
      "t": 192616.93800000186,
      "d": 280.3740000000107,
      "v": 56
    },
    {
      "midi": 87,
      "hit": false,
      "t": 192897.31200000088,
      "d": 280.3740000000107,
      "v": 64
    },
    {
      "midi": 99,
      "hit": false,
      "t": 192897.31200000088,
      "d": 280.3740000000107,
      "v": 64
    },
    {
      "midi": 86,
      "hit": false,
      "t": 193177.6860000009,
      "d": 280.3740000000107,
      "v": 64
    },
    {
      "midi": 98,
      "hit": false,
      "t": 193177.6860000009,
      "d": 280.3740000000107,
      "v": 64
    },
    {
      "midi": 84,
      "hit": false,
      "t": 193458.0600000009,
      "d": 280.3740000000107,
      "v": 64
    },
    {
      "midi": 96,
      "hit": false,
      "t": 193458.0600000009,
      "d": 280.3740000000107,
      "v": 64
    },
    {
      "midi": 82,
      "hit": false,
      "t": 193738.4340000009,
      "d": 280.3740000000107,
      "v": 64
    },
    {
      "midi": 94,
      "hit": false,
      "t": 193738.4340000009,
      "d": 280.3740000000107,
      "v": 64
    },
    {
      "midi": 80,
      "hit": false,
      "t": 194018.80800000092,
      "d": 280.3740000000107,
      "v": 64
    },
    {
      "midi": 92,
      "hit": false,
      "t": 194018.80800000092,
      "d": 280.3740000000107,
      "v": 64
    },
    {
      "midi": 79,
      "hit": false,
      "t": 194299.18200000093,
      "d": 280.3740000000107,
      "v": 64
    },
    {
      "midi": 91,
      "hit": false,
      "t": 194299.18200000093,
      "d": 280.3740000000107,
      "v": 64
    },
    {
      "midi": 77,
      "hit": false,
      "t": 194579.55600000094,
      "d": 560.7479999999923,
      "v": 64
    },
    {
      "midi": 89,
      "hit": false,
      "t": 194579.55600000094,
      "d": 560.7479999999923,
      "v": 64
    },
    {
      "midi": 79,
      "hit": false,
      "t": 195140.30400000094,
      "d": 560.7479999999923,
      "v": 64
    },
    {
      "midi": 91,
      "hit": false,
      "t": 195140.30400000094,
      "d": 560.7479999999923,
      "v": 64
    },
    {
      "midi": 80,
      "hit": false,
      "t": 195701.05200000093,
      "d": 560.7479999999923,
      "v": 64
    },
    {
      "midi": 92,
      "hit": false,
      "t": 195701.05200000093,
      "d": 560.7479999999923,
      "v": 64
    },
    {
      "midi": 72,
      "hit": false,
      "t": 196261.80000000092,
      "d": 1121.4960000000137,
      "v": 64
    },
    {
      "midi": 77,
      "hit": false,
      "t": 196261.80000000092,
      "d": 1121.4960000000137,
      "v": 64
    },
    {
      "midi": 80,
      "hit": false,
      "t": 196261.80000000092,
      "d": 1121.4960000000137,
      "v": 64
    },
    {
      "midi": 84,
      "hit": false,
      "t": 196261.80000000092,
      "d": 1121.4960000000137,
      "v": 64
    },
    {
      "midi": 39,
      "hit": false,
      "t": 196261.80000000188,
      "d": 280.3740000000107,
      "v": 56
    },
    {
      "midi": 49,
      "hit": false,
      "t": 196542.1740000019,
      "d": 280.3740000000107,
      "v": 56
    },
    {
      "midi": 53,
      "hit": false,
      "t": 196822.5480000019,
      "d": 280.3740000000107,
      "v": 56
    },
    {
      "midi": 56,
      "hit": false,
      "t": 197102.9220000019,
      "d": 280.3740000000107,
      "v": 56
    },
    {
      "midi": 70,
      "hit": false,
      "t": 197383.29600000093,
      "d": 560.7479999999923,
      "v": 65
    },
    {
      "midi": 82,
      "hit": false,
      "t": 197383.29600000093,
      "d": 560.7479999999923,
      "v": 65
    },
    {
      "midi": 58,
      "hit": false,
      "t": 197383.29600000192,
      "d": 280.3740000000107,
      "v": 57
    },
    {
      "midi": 61,
      "hit": false,
      "t": 197663.67000000193,
      "d": 280.3740000000107,
      "v": 57
    },
    {
      "midi": 75,
      "hit": false,
      "t": 197944.04400000093,
      "d": 1121.4960000000137,
      "v": 65
    },
    {
      "midi": 80,
      "hit": false,
      "t": 197944.04400000093,
      "d": 1121.4960000000137,
      "v": 65
    },
    {
      "midi": 82,
      "hit": false,
      "t": 197944.04400000093,
      "d": 1121.4960000000137,
      "v": 65
    },
    {
      "midi": 87,
      "hit": false,
      "t": 197944.04400000093,
      "d": 1121.4960000000137,
      "v": 65
    },
    {
      "midi": 65,
      "hit": false,
      "t": 197944.04400000194,
      "d": 280.3740000000107,
      "v": 57
    },
    {
      "midi": 61,
      "hit": false,
      "t": 198224.41800000196,
      "d": 280.3740000000107,
      "v": 57
    },
    {
      "midi": 58,
      "hit": false,
      "t": 198504.79200000197,
      "d": 280.3740000000107,
      "v": 58
    },
    {
      "midi": 56,
      "hit": false,
      "t": 198785.16600000198,
      "d": 280.3740000000107,
      "v": 58
    },
    {
      "midi": 73,
      "hit": false,
      "t": 199065.54000000094,
      "d": 560.7480000000214,
      "v": 67
    },
    {
      "midi": 85,
      "hit": false,
      "t": 199065.54000000094,
      "d": 560.7480000000214,
      "v": 67
    },
    {
      "midi": 53,
      "hit": false,
      "t": 199065.540000002,
      "d": 280.3740000000107,
      "v": 58
    },
    {
      "midi": 49,
      "hit": false,
      "t": 199345.914000002,
      "d": 280.3740000000107,
      "v": 59
    },
    {
      "midi": 79,
      "hit": false,
      "t": 199626.28800000096,
      "d": 1121.4959999999846,
      "v": 67
    },
    {
      "midi": 82,
      "hit": false,
      "t": 199626.28800000096,
      "d": 1121.4959999999846,
      "v": 67
    },
    {
      "midi": 85,
      "hit": false,
      "t": 199626.28800000096,
      "d": 1121.4959999999846,
      "v": 67
    },
    {
      "midi": 91,
      "hit": false,
      "t": 199626.28800000096,
      "d": 1121.4959999999846,
      "v": 67
    },
    {
      "midi": 39,
      "hit": false,
      "t": 199626.288000002,
      "d": 280.3740000000107,
      "v": 59
    },
    {
      "midi": 49,
      "hit": false,
      "t": 199906.66200000202,
      "d": 280.3740000000107,
      "v": 59
    },
    {
      "midi": 53,
      "hit": false,
      "t": 200187.03600000203,
      "d": 280.3740000000107,
      "v": 59
    },
    {
      "midi": 56,
      "hit": false,
      "t": 200467.41000000204,
      "d": 280.3739999999816,
      "v": 60
    },
    {
      "midi": 77,
      "hit": false,
      "t": 200747.78400000095,
      "d": 560.7480000000214,
      "v": 69
    },
    {
      "midi": 89,
      "hit": false,
      "t": 200747.78400000095,
      "d": 560.7480000000214,
      "v": 69
    },
    {
      "midi": 58,
      "hit": false,
      "t": 200747.78400000202,
      "d": 280.3740000000107,
      "v": 60
    },
    {
      "midi": 61,
      "hit": false,
      "t": 201028.15800000203,
      "d": 280.3740000000107,
      "v": 61
    },
    {
      "midi": 84,
      "hit": false,
      "t": 201308.53200000097,
      "d": 1121.4960000000137,
      "v": 70
    },
    {
      "midi": 89,
      "hit": false,
      "t": 201308.53200000097,
      "d": 1121.4960000000137,
      "v": 70
    },
    {
      "midi": 96,
      "hit": false,
      "t": 201308.53200000097,
      "d": 1121.4960000000137,
      "v": 70
    },
    {
      "midi": 68,
      "hit": false,
      "t": 201308.53200000204,
      "d": 280.3740000000107,
      "v": 61
    },
    {
      "midi": 65,
      "hit": false,
      "t": 201588.90600000205,
      "d": 280.3740000000107,
      "v": 61
    },
    {
      "midi": 61,
      "hit": false,
      "t": 201869.28000000207,
      "d": 280.3740000000107,
      "v": 62
    },
    {
      "midi": 56,
      "hit": false,
      "t": 202149.65400000208,
      "d": 280.3740000000107,
      "v": 62
    },
    {
      "midi": 82,
      "hit": false,
      "t": 202430.02800000098,
      "d": 514.0190000000002,
      "v": 71
    },
    {
      "midi": 94,
      "hit": false,
      "t": 202430.02800000098,
      "d": 514.0190000000002,
      "v": 71
    },
    {
      "midi": 53,
      "hit": false,
      "t": 202430.0280000021,
      "d": 280.3740000000107,
      "v": 62
    },
    {
      "midi": 49,
      "hit": false,
      "t": 202710.4020000021,
      "d": 280.3739999999816,
      "v": 62
    },
    {
      "midi": 89,
      "hit": false,
      "t": 202990.77600000097,
      "d": 3364.487999999983,
      "v": 72
    },
    {
      "midi": 39,
      "hit": false,
      "t": 202990.77600000208,
      "d": 280.3740000000107,
      "v": 62
    },
    {
      "midi": 91,
      "hit": false,
      "t": 203037.50500000097,
      "d": 3317.758999999991,
      "v": 72
    },
    {
      "midi": 94,
      "hit": false,
      "t": 203084.23400000096,
      "d": 3271.029999999999,
      "v": 72
    },
    {
      "midi": 97,
      "hit": false,
      "t": 203130.96300000095,
      "d": 3224.3010000000068,
      "v": 72
    },
    {
      "midi": 101,
      "hit": false,
      "t": 203177.69200000094,
      "d": 3177.5720000000147,
      "v": 72
    },
    {
      "midi": 46,
      "hit": false,
      "t": 203271.1500000021,
      "d": 280.3740000000107,
      "v": 61
    },
    {
      "midi": 49,
      "hit": false,
      "t": 203551.5240000021,
      "d": 280.3740000000107,
      "v": 60
    },
    {
      "midi": 55,
      "hit": false,
      "t": 203831.8980000021,
      "d": 280.3740000000107,
      "v": 59
    },
    {
      "midi": 58,
      "hit": false,
      "t": 204112.27200000212,
      "d": 280.3740000000107,
      "v": 58
    },
    {
      "midi": 61,
      "hit": false,
      "t": 204392.64600000213,
      "d": 280.3740000000107,
      "v": 57
    },
    {
      "midi": 67,
      "hit": false,
      "t": 204673.02000000214,
      "d": 280.3740000000107,
      "v": 56
    },
    {
      "midi": 70,
      "hit": false,
      "t": 204953.39400000215,
      "d": 280.3740000000107,
      "v": 55
    },
    {
      "midi": 73,
      "hit": false,
      "t": 205233.76800000216,
      "d": 280.3740000000107,
      "v": 54
    },
    {
      "midi": 79,
      "hit": false,
      "t": 205514.14200000218,
      "d": 280.3740000000107,
      "v": 53
    },
    {
      "midi": 82,
      "hit": false,
      "t": 205794.5160000022,
      "d": 280.3739999999816,
      "v": 52
    },
    {
      "midi": 85,
      "hit": false,
      "t": 206074.89000000217,
      "d": 280.3740000000107,
      "v": 51
    },
    {
      "midi": 100,
      "hit": false,
      "t": 206355.26400000096,
      "d": 140.18700000000536,
      "v": 44
    },
    {
      "midi": 91,
      "hit": false,
      "t": 206355.26400000218,
      "d": 140.18700000000536,
      "v": 44
    },
    {
      "midi": 96,
      "hit": false,
      "t": 206495.45100000096,
      "d": 140.18700000000536,
      "v": 44
    },
    {
      "midi": 94,
      "hit": false,
      "t": 206495.45100000218,
      "d": 140.18700000000536,
      "v": 44
    },
    {
      "midi": 99,
      "hit": false,
      "t": 206635.63800000097,
      "d": 140.18700000000536,
      "v": 44
    },
    {
      "midi": 90,
      "hit": false,
      "t": 206635.6380000022,
      "d": 140.18700000000536,
      "v": 44
    },
    {
      "midi": 95,
      "hit": false,
      "t": 206775.82500000097,
      "d": 140.18700000000536,
      "v": 44
    },
    {
      "midi": 93,
      "hit": false,
      "t": 206775.8250000022,
      "d": 140.18700000000536,
      "v": 44
    },
    {
      "midi": 98,
      "hit": false,
      "t": 206916.01200000098,
      "d": 140.18700000000536,
      "v": 43
    },
    {
      "midi": 89,
      "hit": false,
      "t": 206916.0120000022,
      "d": 140.18700000000536,
      "v": 43
    },
    {
      "midi": 94,
      "hit": false,
      "t": 207056.19900000098,
      "d": 140.18700000000536,
      "v": 43
    },
    {
      "midi": 92,
      "hit": false,
      "t": 207056.1990000022,
      "d": 140.18700000000536,
      "v": 43
    },
    {
      "midi": 97,
      "hit": false,
      "t": 207196.386000001,
      "d": 140.18700000000536,
      "v": 42
    },
    {
      "midi": 88,
      "hit": false,
      "t": 207196.3860000022,
      "d": 140.18700000000536,
      "v": 42
    },
    {
      "midi": 93,
      "hit": false,
      "t": 207336.573000001,
      "d": 140.18700000000536,
      "v": 41
    },
    {
      "midi": 91,
      "hit": false,
      "t": 207336.57300000222,
      "d": 140.18700000000536,
      "v": 41
    },
    {
      "midi": 96,
      "hit": false,
      "t": 207476.760000001,
      "d": 140.18700000000536,
      "v": 41
    },
    {
      "midi": 87,
      "hit": false,
      "t": 207476.76000000222,
      "d": 140.18700000000536,
      "v": 41
    },
    {
      "midi": 92,
      "hit": false,
      "t": 207616.947000001,
      "d": 140.18700000000536,
      "v": 40
    },
    {
      "midi": 90,
      "hit": false,
      "t": 207616.94700000223,
      "d": 140.18700000000536,
      "v": 40
    },
    {
      "midi": 95,
      "hit": false,
      "t": 207757.134000001,
      "d": 140.18700000000536,
      "v": 40
    },
    {
      "midi": 86,
      "hit": false,
      "t": 207757.13400000223,
      "d": 140.18700000000536,
      "v": 40
    },
    {
      "midi": 91,
      "hit": false,
      "t": 207897.32100000101,
      "d": 140.18700000000536,
      "v": 40
    },
    {
      "midi": 89,
      "hit": false,
      "t": 207897.32100000224,
      "d": 140.18700000000536,
      "v": 40
    },
    {
      "midi": 94,
      "hit": false,
      "t": 208037.50800000102,
      "d": 140.18700000000536,
      "v": 39
    },
    {
      "midi": 85,
      "hit": false,
      "t": 208037.50800000224,
      "d": 140.18700000000536,
      "v": 39
    },
    {
      "midi": 90,
      "hit": false,
      "t": 208177.69500000103,
      "d": 140.18700000000536,
      "v": 39
    },
    {
      "midi": 88,
      "hit": false,
      "t": 208177.69500000225,
      "d": 140.18700000000536,
      "v": 39
    },
    {
      "midi": 93,
      "hit": false,
      "t": 208317.88200000103,
      "d": 140.18700000000536,
      "v": 38
    },
    {
      "midi": 84,
      "hit": false,
      "t": 208317.88200000225,
      "d": 140.18700000000536,
      "v": 38
    },
    {
      "midi": 89,
      "hit": false,
      "t": 208458.06900000104,
      "d": 140.18700000000536,
      "v": 38
    },
    {
      "midi": 87,
      "hit": false,
      "t": 208458.06900000226,
      "d": 140.18700000000536,
      "v": 38
    },
    {
      "midi": 92,
      "hit": false,
      "t": 208598.25600000104,
      "d": 140.18700000000536,
      "v": 37
    },
    {
      "midi": 83,
      "hit": false,
      "t": 208598.25600000226,
      "d": 140.18700000000536,
      "v": 37
    },
    {
      "midi": 88,
      "hit": false,
      "t": 208738.44300000105,
      "d": 140.18700000000536,
      "v": 37
    },
    {
      "midi": 86,
      "hit": false,
      "t": 208738.44300000227,
      "d": 140.18700000000536,
      "v": 37
    },
    {
      "midi": 91,
      "hit": false,
      "t": 208878.63000000105,
      "d": 140.18700000000536,
      "v": 36
    },
    {
      "midi": 82,
      "hit": false,
      "t": 208878.63000000227,
      "d": 140.18700000000536,
      "v": 36
    },
    {
      "midi": 87,
      "hit": false,
      "t": 209018.81700000106,
      "d": 140.18700000000536,
      "v": 36
    },
    {
      "midi": 85,
      "hit": false,
      "t": 209018.81700000228,
      "d": 140.18700000000536,
      "v": 36
    },
    {
      "midi": 90,
      "hit": false,
      "t": 209159.00400000106,
      "d": 140.18700000000536,
      "v": 36
    },
    {
      "midi": 81,
      "hit": false,
      "t": 209159.0040000023,
      "d": 140.18700000000536,
      "v": 36
    },
    {
      "midi": 86,
      "hit": false,
      "t": 209299.19100000107,
      "d": 140.18700000000536,
      "v": 35
    },
    {
      "midi": 84,
      "hit": false,
      "t": 209299.1910000023,
      "d": 140.18700000000536,
      "v": 35
    },
    {
      "midi": 89,
      "hit": false,
      "t": 209439.37800000107,
      "d": 140.18700000000536,
      "v": 35
    },
    {
      "midi": 80,
      "hit": false,
      "t": 209439.3780000023,
      "d": 140.18700000000536,
      "v": 35
    },
    {
      "midi": 85,
      "hit": false,
      "t": 209579.56500000108,
      "d": 140.18700000000536,
      "v": 34
    },
    {
      "midi": 83,
      "hit": false,
      "t": 209579.5650000023,
      "d": 140.18700000000536,
      "v": 34
    },
    {
      "midi": 88,
      "hit": false,
      "t": 209719.75200000108,
      "d": 140.18700000000536,
      "v": 33
    },
    {
      "midi": 79,
      "hit": false,
      "t": 209719.7520000023,
      "d": 140.18700000000536,
      "v": 33
    },
    {
      "midi": 84,
      "hit": false,
      "t": 209859.9390000011,
      "d": 140.18700000000536,
      "v": 33
    },
    {
      "midi": 82,
      "hit": false,
      "t": 209859.9390000023,
      "d": 140.18700000000536,
      "v": 33
    },
    {
      "midi": 87,
      "hit": false,
      "t": 210000.1260000011,
      "d": 140.18700000000536,
      "v": 32
    },
    {
      "midi": 78,
      "hit": false,
      "t": 210000.12600000232,
      "d": 140.18700000000536,
      "v": 32
    },
    {
      "midi": 83,
      "hit": false,
      "t": 210140.3130000011,
      "d": 140.18700000000536,
      "v": 32
    },
    {
      "midi": 81,
      "hit": false,
      "t": 210140.31300000232,
      "d": 140.18700000000536,
      "v": 32
    },
    {
      "midi": 86,
      "hit": false,
      "t": 210280.5000000011,
      "d": 140.18700000000536,
      "v": 32
    },
    {
      "midi": 77,
      "hit": false,
      "t": 210280.50000000233,
      "d": 140.18700000000536,
      "v": 32
    },
    {
      "midi": 82,
      "hit": false,
      "t": 210420.6870000011,
      "d": 140.18700000000536,
      "v": 32
    },
    {
      "midi": 80,
      "hit": false,
      "t": 210420.68700000233,
      "d": 140.18700000000536,
      "v": 32
    },
    {
      "midi": 85,
      "hit": false,
      "t": 210560.87400000112,
      "d": 140.18700000000536,
      "v": 31
    },
    {
      "midi": 76,
      "hit": false,
      "t": 210560.87400000234,
      "d": 140.18700000000536,
      "v": 31
    },
    {
      "midi": 81,
      "hit": false,
      "t": 210701.06100000112,
      "d": 140.18700000000536,
      "v": 30
    },
    {
      "midi": 79,
      "hit": false,
      "t": 210701.06100000234,
      "d": 140.18700000000536,
      "v": 30
    },
    {
      "midi": 84,
      "hit": false,
      "t": 210841.24800000113,
      "d": 140.18700000000536,
      "v": 30
    },
    {
      "midi": 75,
      "hit": false,
      "t": 210841.24800000235,
      "d": 140.18700000000536,
      "v": 30
    },
    {
      "midi": 80,
      "hit": false,
      "t": 210981.43500000113,
      "d": 140.18700000000536,
      "v": 29
    },
    {
      "midi": 78,
      "hit": false,
      "t": 210981.43500000236,
      "d": 140.18700000000536,
      "v": 29
    },
    {
      "midi": 83,
      "hit": false,
      "t": 211121.62200000114,
      "d": 140.18700000000536,
      "v": 29
    },
    {
      "midi": 74,
      "hit": false,
      "t": 211121.62200000236,
      "d": 140.18700000000536,
      "v": 29
    },
    {
      "midi": 79,
      "hit": false,
      "t": 211261.80900000114,
      "d": 140.18700000000536,
      "v": 28
    },
    {
      "midi": 77,
      "hit": false,
      "t": 211261.80900000237,
      "d": 140.18700000000536,
      "v": 28
    },
    {
      "midi": 82,
      "hit": false,
      "t": 211401.99600000115,
      "d": 140.18700000000536,
      "v": 28
    },
    {
      "midi": 73,
      "hit": false,
      "t": 211401.99600000237,
      "d": 140.18700000000536,
      "v": 28
    },
    {
      "midi": 78,
      "hit": false,
      "t": 211542.18300000115,
      "d": 140.18700000000536,
      "v": 28
    },
    {
      "midi": 76,
      "hit": false,
      "t": 211542.18300000238,
      "d": 140.18700000000536,
      "v": 28
    },
    {
      "midi": 81,
      "hit": false,
      "t": 211682.37000000116,
      "d": 140.18700000000536,
      "v": 27
    },
    {
      "midi": 72,
      "hit": false,
      "t": 211682.37000000238,
      "d": 140.18700000000536,
      "v": 27
    },
    {
      "midi": 77,
      "hit": false,
      "t": 211822.55700000116,
      "d": 140.18700000000536,
      "v": 27
    },
    {
      "midi": 75,
      "hit": false,
      "t": 211822.5570000024,
      "d": 140.18700000000536,
      "v": 27
    },
    {
      "midi": 80,
      "hit": false,
      "t": 211962.74400000117,
      "d": 140.18700000000536,
      "v": 26
    },
    {
      "midi": 71,
      "hit": false,
      "t": 211962.7440000024,
      "d": 140.18700000000536,
      "v": 26
    },
    {
      "midi": 76,
      "hit": false,
      "t": 212102.93100000118,
      "d": 140.18700000000536,
      "v": 26
    },
    {
      "midi": 74,
      "hit": false,
      "t": 212102.9310000024,
      "d": 140.18700000000536,
      "v": 26
    },
    {
      "midi": 79,
      "hit": false,
      "t": 212243.11800000118,
      "d": 140.18700000000536,
      "v": 25
    },
    {
      "midi": 70,
      "hit": false,
      "t": 212243.1180000024,
      "d": 140.18700000000536,
      "v": 25
    },
    {
      "midi": 75,
      "hit": false,
      "t": 212383.3050000012,
      "d": 140.18700000000536,
      "v": 24
    },
    {
      "midi": 73,
      "hit": false,
      "t": 212383.3050000024,
      "d": 140.18700000000536,
      "v": 24
    },
    {
      "midi": 78,
      "hit": false,
      "t": 212523.4920000012,
      "d": 140.18700000000536,
      "v": 24
    },
    {
      "midi": 69,
      "hit": false,
      "t": 212523.4920000024,
      "d": 140.18700000000536,
      "v": 24
    },
    {
      "midi": 74,
      "hit": false,
      "t": 212663.6790000012,
      "d": 140.18700000000536,
      "v": 24
    },
    {
      "midi": 72,
      "hit": false,
      "t": 212663.67900000242,
      "d": 140.18700000000536,
      "v": 24
    },
    {
      "midi": 77,
      "hit": false,
      "t": 212803.8660000012,
      "d": 140.18700000000536,
      "v": 24
    },
    {
      "midi": 68,
      "hit": false,
      "t": 212803.86600000242,
      "d": 140.18700000000536,
      "v": 24
    },
    {
      "midi": 73,
      "hit": false,
      "t": 212944.0530000012,
      "d": 140.18700000000536,
      "v": 23
    },
    {
      "midi": 71,
      "hit": false,
      "t": 212944.05300000243,
      "d": 140.18700000000536,
      "v": 23
    },
    {
      "midi": 77,
      "hit": false,
      "t": 213084.2400000012,
      "d": 140.18700000000536,
      "v": 22
    },
    {
      "midi": 67,
      "hit": false,
      "t": 213084.24000000244,
      "d": 140.18700000000536,
      "v": 44
    },
    {
      "midi": 70,
      "hit": false,
      "t": 213084.24000000244,
      "d": 140.18700000000536,
      "v": 44
    },
    {
      "midi": 73,
      "hit": false,
      "t": 213084.24000000244,
      "d": 140.18700000000536,
      "v": 44
    },
    {
      "midi": 75,
      "hit": false,
      "t": 213224.42700000122,
      "d": 140.18700000000536,
      "v": 23
    },
    {
      "midi": 73,
      "hit": false,
      "t": 213364.61400000122,
      "d": 140.18700000000536,
      "v": 24
    },
    {
      "midi": 70,
      "hit": false,
      "t": 213504.80100000123,
      "d": 140.18700000000536,
      "v": 24
    },
    {
      "midi": 67,
      "hit": false,
      "t": 213644.98800000123,
      "d": 140.18700000000536,
      "v": 25
    },
    {
      "midi": 62,
      "hit": false,
      "t": 213785.17500000124,
      "d": 140.18700000000536,
      "v": 27
    },
    {
      "midi": 63,
      "hit": false,
      "t": 213925.36200000125,
      "d": 140.18700000000536,
      "v": 28
    },
    {
      "midi": 67,
      "hit": false,
      "t": 214065.54900000125,
      "d": 140.18700000000536,
      "v": 28
    },
    {
      "midi": 70,
      "hit": false,
      "t": 214205.73600000126,
      "d": 140.18700000000536,
      "v": 29
    },
    {
      "midi": 73,
      "hit": false,
      "t": 214345.92300000126,
      "d": 140.18700000000536,
      "v": 30
    },
    {
      "midi": 74,
      "hit": false,
      "t": 214486.11000000127,
      "d": 140.18700000000536,
      "v": 32
    },
    {
      "midi": 77,
      "hit": false,
      "t": 214626.29700000127,
      "d": 140.18700000000536,
      "v": 32
    },
    {
      "midi": 75,
      "hit": false,
      "t": 214766.48400000128,
      "d": 140.18700000000536,
      "v": 33
    },
    {
      "midi": 79,
      "hit": false,
      "t": 214906.67100000128,
      "d": 140.18700000000536,
      "v": 34
    },
    {
      "midi": 82,
      "hit": false,
      "t": 215046.8580000013,
      "d": 140.18700000000536,
      "v": 35
    },
    {
      "midi": 85,
      "hit": false,
      "t": 215187.0450000013,
      "d": 140.18700000000536,
      "v": 36
    },
    {
      "midi": 86,
      "hit": false,
      "t": 215327.2320000013,
      "d": 140.18700000000536,
      "v": 37
    },
    {
      "midi": 89,
      "hit": false,
      "t": 215467.4190000013,
      "d": 140.18700000000536,
      "v": 38
    },
    {
      "midi": 87,
      "hit": false,
      "t": 215607.6060000013,
      "d": 140.18700000000536,
      "v": 39
    },
    {
      "midi": 91,
      "hit": false,
      "t": 215747.79300000131,
      "d": 140.18700000000536,
      "v": 40
    },
    {
      "midi": 94,
      "hit": false,
      "t": 215887.98000000132,
      "d": 140.18700000000536,
      "v": 41
    },
    {
      "midi": 97,
      "hit": false,
      "t": 216028.16700000133,
      "d": 140.18700000000536,
      "v": 42
    },
    {
      "midi": 100,
      "hit": false,
      "t": 216168.35400000133,
      "d": 140.18700000000536,
      "v": 43
    },
    {
      "midi": 101,
      "hit": false,
      "t": 216308.54100000134,
      "d": 140.18700000000536,
      "v": 44
    },
    {
      "midi": 96,
      "hit": false,
      "t": 216448.72800000134,
      "d": 140.18700000000536,
      "v": 44
    },
    {
      "midi": 97,
      "hit": false,
      "t": 216588.91500000135,
      "d": 140.18700000000536,
      "v": 44
    },
    {
      "midi": 93,
      "hit": false,
      "t": 216729.10200000135,
      "d": 140.18700000000536,
      "v": 44
    },
    {
      "midi": 94,
      "hit": false,
      "t": 216869.28900000136,
      "d": 140.18700000000536,
      "v": 44
    },
    {
      "midi": 90,
      "hit": false,
      "t": 217009.47600000136,
      "d": 140.18700000000536,
      "v": 43
    },
    {
      "midi": 91,
      "hit": false,
      "t": 217149.66300000137,
      "d": 140.18700000000536,
      "v": 42
    },
    {
      "midi": 88,
      "hit": false,
      "t": 217289.85000000137,
      "d": 140.18700000000536,
      "v": 42
    },
    {
      "midi": 89,
      "hit": false,
      "t": 217430.03700000138,
      "d": 140.18700000000536,
      "v": 41
    },
    {
      "midi": 84,
      "hit": false,
      "t": 217570.22400000138,
      "d": 140.18700000000536,
      "v": 40
    },
    {
      "midi": 85,
      "hit": false,
      "t": 217710.4110000014,
      "d": 140.18700000000536,
      "v": 40
    },
    {
      "midi": 81,
      "hit": false,
      "t": 217850.5980000014,
      "d": 140.18700000000536,
      "v": 40
    },
    {
      "midi": 82,
      "hit": false,
      "t": 217990.7850000014,
      "d": 140.18700000000536,
      "v": 39
    },
    {
      "midi": 78,
      "hit": false,
      "t": 218130.9720000014,
      "d": 140.18700000000536,
      "v": 39
    },
    {
      "midi": 79,
      "hit": false,
      "t": 218271.1590000014,
      "d": 140.18700000000536,
      "v": 38
    },
    {
      "midi": 76,
      "hit": false,
      "t": 218411.34600000142,
      "d": 140.18700000000536,
      "v": 37
    },
    {
      "midi": 77,
      "hit": false,
      "t": 218551.53300000142,
      "d": 140.18700000000536,
      "v": 37
    },
    {
      "midi": 72,
      "hit": false,
      "t": 218691.72000000143,
      "d": 140.18700000000536,
      "v": 36
    },
    {
      "midi": 73,
      "hit": false,
      "t": 218831.90700000143,
      "d": 140.18700000000536,
      "v": 36
    },
    {
      "midi": 69,
      "hit": false,
      "t": 218972.09400000144,
      "d": 140.18700000000536,
      "v": 36
    },
    {
      "midi": 70,
      "hit": false,
      "t": 219112.28100000144,
      "d": 140.18700000000536,
      "v": 35
    },
    {
      "midi": 66,
      "hit": false,
      "t": 219252.46800000145,
      "d": 140.18700000000536,
      "v": 35
    },
    {
      "midi": 67,
      "hit": false,
      "t": 219392.65500000145,
      "d": 140.18700000000536,
      "v": 34
    },
    {
      "midi": 64,
      "hit": false,
      "t": 219532.84200000146,
      "d": 140.18700000000536,
      "v": 33
    },
    {
      "midi": 65,
      "hit": false,
      "t": 219673.02900000146,
      "d": 140.18700000000536,
      "v": 33
    },
    {
      "midi": 62,
      "hit": false,
      "t": 219813.21600000147,
      "d": 140.18700000000536,
      "v": 32
    },
    {
      "midi": 63,
      "hit": false,
      "t": 219953.40300000148,
      "d": 140.18700000000536,
      "v": 32
    },
    {
      "midi": 64,
      "hit": false,
      "t": 220093.59000000148,
      "d": 140.18700000000536,
      "v": 31
    },
    {
      "midi": 63,
      "hit": false,
      "t": 220233.7770000015,
      "d": 140.18700000000536,
      "v": 31
    },
    {
      "midi": 65,
      "hit": false,
      "t": 220373.9640000015,
      "d": 140.18700000000536,
      "v": 30
    },
    {
      "midi": 63,
      "hit": false,
      "t": 220514.1510000015,
      "d": 140.18700000000536,
      "v": 29
    },
    {
      "midi": 66,
      "hit": false,
      "t": 220654.3380000015,
      "d": 140.18700000000536,
      "v": 28
    },
    {
      "midi": 63,
      "hit": false,
      "t": 220794.5250000015,
      "d": 140.18700000000536,
      "v": 28
    },
    {
      "midi": 67,
      "hit": false,
      "t": 220934.7120000015,
      "d": 140.18700000000536,
      "v": 27
    },
    {
      "midi": 63,
      "hit": false,
      "t": 221074.89900000152,
      "d": 140.18700000000536,
      "v": 26
    },
    {
      "midi": 68,
      "hit": false,
      "t": 221215.08600000152,
      "d": 140.18700000000536,
      "v": 25
    },
    {
      "midi": 63,
      "hit": false,
      "t": 221355.27300000153,
      "d": 140.18700000000536,
      "v": 24
    },
    {
      "midi": 69,
      "hit": false,
      "t": 221495.46000000153,
      "d": 140.18700000000536,
      "v": 24
    },
    {
      "midi": 63,
      "hit": false,
      "t": 221635.64700000154,
      "d": 140.18700000000536,
      "v": 24
    },
    {
      "midi": 70,
      "hit": false,
      "t": 221775.83400000155,
      "d": 140.18700000000536,
      "v": 23
    },
    {
      "midi": 63,
      "hit": false,
      "t": 221916.02100000155,
      "d": 140.18700000000536,
      "v": 22
    },
    {
      "midi": 71,
      "hit": false,
      "t": 222056.20800000156,
      "d": 140.18700000000536,
      "v": 21
    },
    {
      "midi": 63,
      "hit": false,
      "t": 223738.45200000156,
      "d": 560.7479999999923,
      "v": 64
    },
    {
      "midi": 72,
      "hit": false,
      "t": 224299.20000000155,
      "d": 1682.2440000000352,
      "v": 64
    },
    {
      "midi": 44,
      "hit": false,
      "t": 224299.2000000025,
      "d": 560.7479999999923,
      "v": 56
    },
    {
      "midi": 60,
      "hit": false,
      "t": 224579.57400000156,
      "d": 280.3739999999816,
      "v": 40
    },
    {
      "midi": 63,
      "hit": false,
      "t": 224859.94800000155,
      "d": 280.3740000000107,
      "v": 40
    },
    {
      "midi": 68,
      "hit": false,
      "t": 225140.32200000156,
      "d": 280.3740000000107,
      "v": 40
    },
    {
      "midi": 63,
      "hit": false,
      "t": 225420.69600000157,
      "d": 280.3740000000107,
      "v": 40
    },
    {
      "midi": 75,
      "hit": false,
      "t": 225420.69600000247,
      "d": 560.7479999999923,
      "v": 40
    },
    {
      "midi": 80,
      "hit": false,
      "t": 225420.69600000247,
      "d": 560.7479999999923,
      "v": 40
    },
    {
      "midi": 84,
      "hit": false,
      "t": 225420.69600000247,
      "d": 560.7479999999923,
      "v": 40
    },
    {
      "midi": 60,
      "hit": false,
      "t": 225701.07000000158,
      "d": 280.3740000000107,
      "v": 40
    },
    {
      "midi": 72,
      "hit": false,
      "t": 225981.4440000016,
      "d": 1682.2440000000643,
      "v": 64
    },
    {
      "midi": 75,
      "hit": false,
      "t": 225981.44400000246,
      "d": 560.7479999999923,
      "v": 40
    },
    {
      "midi": 80,
      "hit": false,
      "t": 225981.44400000246,
      "d": 560.7479999999923,
      "v": 40
    },
    {
      "midi": 84,
      "hit": false,
      "t": 225981.44400000246,
      "d": 560.7479999999923,
      "v": 40
    },
    {
      "midi": 60,
      "hit": false,
      "t": 226261.8180000016,
      "d": 280.3740000000107,
      "v": 40
    },
    {
      "midi": 63,
      "hit": false,
      "t": 226542.1920000016,
      "d": 280.3740000000107,
      "v": 40
    },
    {
      "midi": 68,
      "hit": false,
      "t": 226822.56600000162,
      "d": 280.3740000000107,
      "v": 40
    },
    {
      "midi": 63,
      "hit": false,
      "t": 227102.94000000163,
      "d": 280.3740000000107,
      "v": 40
    },
    {
      "midi": 60,
      "hit": false,
      "t": 227383.31400000164,
      "d": 280.3740000000107,
      "v": 40
    },
    {
      "midi": 72,
      "hit": false,
      "t": 227663.68800000165,
      "d": 2242.9920000000275,
      "v": 64
    },
    {
      "midi": 43,
      "hit": false,
      "t": 227663.68800000247,
      "d": 560.7479999999923,
      "v": 56
    },
    {
      "midi": 60,
      "hit": false,
      "t": 227944.06200000164,
      "d": 280.3739999999816,
      "v": 40
    },
    {
      "midi": 64,
      "hit": false,
      "t": 228224.43600000162,
      "d": 280.3740000000107,
      "v": 40
    },
    {
      "midi": 70,
      "hit": false,
      "t": 228504.81000000163,
      "d": 280.3740000000107,
      "v": 40
    },
    {
      "midi": 64,
      "hit": false,
      "t": 228785.18400000164,
      "d": 280.3740000000107,
      "v": 40
    },
    {
      "midi": 76,
      "hit": false,
      "t": 228785.18400000245,
      "d": 560.7479999999923,
      "v": 40
    },
    {
      "midi": 82,
      "hit": false,
      "t": 228785.18400000245,
      "d": 560.7479999999923,
      "v": 40
    },
    {
      "midi": 84,
      "hit": false,
      "t": 228785.18400000245,
      "d": 560.7479999999923,
      "v": 40
    },
    {
      "midi": 60,
      "hit": false,
      "t": 229065.55800000165,
      "d": 280.3740000000107,
      "v": 40
    },
    {
      "midi": 76,
      "hit": false,
      "t": 229345.93200000245,
      "d": 560.7479999999923,
      "v": 40
    },
    {
      "midi": 82,
      "hit": false,
      "t": 229345.93200000245,
      "d": 560.7479999999923,
      "v": 40
    },
    {
      "midi": 84,
      "hit": false,
      "t": 229345.93200000245,
      "d": 560.7479999999923,
      "v": 40
    },
    {
      "midi": 60,
      "hit": false,
      "t": 229626.30600000167,
      "d": 280.3740000000107,
      "v": 40
    },
    {
      "midi": 64,
      "hit": false,
      "t": 229906.68000000168,
      "d": 280.3740000000107,
      "v": 40
    },
    {
      "midi": 70,
      "hit": false,
      "t": 230187.0540000017,
      "d": 280.3740000000107,
      "v": 40
    },
    {
      "midi": 64,
      "hit": false,
      "t": 230467.4280000017,
      "d": 280.3740000000107,
      "v": 40
    },
    {
      "midi": 72,
      "hit": false,
      "t": 230467.4280000017,
      "d": 560.7480000000214,
      "v": 64
    },
    {
      "midi": 60,
      "hit": false,
      "t": 230747.8020000017,
      "d": 280.3740000000107,
      "v": 40
    },
    {
      "midi": 72,
      "hit": false,
      "t": 231028.17600000172,
      "d": 1121.4960000000137,
      "v": 64
    },
    {
      "midi": 41,
      "hit": false,
      "t": 231028.17600000245,
      "d": 560.7480000000214,
      "v": 56
    },
    {
      "midi": 63,
      "hit": false,
      "t": 231308.5500000017,
      "d": 280.3740000000107,
      "v": 40
    },
    {
      "midi": 65,
      "hit": false,
      "t": 231588.92400000172,
      "d": 280.3740000000107,
      "v": 40
    },
    {
      "midi": 69,
      "hit": false,
      "t": 231869.29800000173,
      "d": 280.3740000000107,
      "v": 40
    },
    {
      "midi": 65,
      "hit": false,
      "t": 232149.67200000174,
      "d": 280.3740000000107,
      "v": 40
    },
    {
      "midi": 72,
      "hit": false,
      "t": 232149.67200000174,
      "d": 560.7480000000214,
      "v": 64
    },
    {
      "midi": 75,
      "hit": false,
      "t": 232149.67200000247,
      "d": 560.7479999999923,
      "v": 40
    },
    {
      "midi": 81,
      "hit": false,
      "t": 232149.67200000247,
      "d": 560.7479999999923,
      "v": 40
    },
    {
      "midi": 84,
      "hit": false,
      "t": 232149.67200000247,
      "d": 560.7479999999923,
      "v": 40
    },
    {
      "midi": 63,
      "hit": false,
      "t": 232430.04600000175,
      "d": 280.3740000000107,
      "v": 40
    },
    {
      "midi": 73,
      "hit": false,
      "t": 232710.42000000176,
      "d": 1121.4960000000428,
      "v": 64
    },
    {
      "midi": 75,
      "hit": false,
      "t": 232710.42000000246,
      "d": 560.7479999999923,
      "v": 40
    },
    {
      "midi": 81,
      "hit": false,
      "t": 232710.42000000246,
      "d": 560.7479999999923,
      "v": 40
    },
    {
      "midi": 85,
      "hit": false,
      "t": 232710.42000000246,
      "d": 560.7479999999923,
      "v": 40
    },
    {
      "midi": 63,
      "hit": false,
      "t": 232990.79400000177,
      "d": 280.3740000000107,
      "v": 40
    },
    {
      "midi": 65,
      "hit": false,
      "t": 233271.16800000178,
      "d": 280.3740000000107,
      "v": 40
    },
    {
      "midi": 69,
      "hit": false,
      "t": 233551.5420000018,
      "d": 280.3740000000107,
      "v": 40
    },
    {
      "midi": 65,
      "hit": false,
      "t": 233831.9160000018,
      "d": 280.3740000000107,
      "v": 40
    },
    {
      "midi": 72,
      "hit": false,
      "t": 233831.9160000018,
      "d": 560.7480000000214,
      "v": 64
    },
    {
      "midi": 63,
      "hit": false,
      "t": 234112.2900000018,
      "d": 280.3740000000107,
      "v": 40
    },
    {
      "midi": 72,
      "hit": false,
      "t": 234392.66400000182,
      "d": 1682.2440000000643,
      "v": 64
    },
    {
      "midi": 34,
      "hit": false,
      "t": 234392.66400000246,
      "d": 560.7479999999923,
      "v": 56
    },
    {
      "midi": 46,
      "hit": false,
      "t": 234392.66400000246,
      "d": 560.7479999999923,
      "v": 56
    },
    {
      "midi": 56,
      "hit": false,
      "t": 234673.03800000183,
      "d": 280.3740000000107,
      "v": 40
    },
    {
      "midi": 62,
      "hit": false,
      "t": 234953.41200000184,
      "d": 280.3740000000107,
      "v": 40
    },
    {
      "midi": 65,
      "hit": false,
      "t": 235233.78600000186,
      "d": 280.3740000000107,
      "v": 40
    },
    {
      "midi": 62,
      "hit": false,
      "t": 235514.16000000187,
      "d": 280.3740000000107,
      "v": 40
    },
    {
      "midi": 74,
      "hit": false,
      "t": 235514.16000000245,
      "d": 560.7479999999923,
      "v": 40
    },
    {
      "midi": 77,
      "hit": false,
      "t": 235514.16000000245,
      "d": 560.7479999999923,
      "v": 40
    },
    {
      "midi": 84,
      "hit": false,
      "t": 235514.16000000245,
      "d": 560.7479999999923,
      "v": 40
    },
    {
      "midi": 56,
      "hit": false,
      "t": 235794.53400000188,
      "d": 280.3740000000107,
      "v": 40
    },
    {
      "midi": 65,
      "hit": false,
      "t": 236074.9080000019,
      "d": 560.7480000000214,
      "v": 64
    },
    {
      "midi": 74,
      "hit": false,
      "t": 236074.90800000244,
      "d": 560.7479999999923,
      "v": 40
    },
    {
      "midi": 77,
      "hit": false,
      "t": 236074.90800000244,
      "d": 560.7479999999923,
      "v": 40
    },
    {
      "midi": 56,
      "hit": false,
      "t": 236355.2820000019,
      "d": 280.3740000000107,
      "v": 40
    },
    {
      "midi": 58,
      "hit": false,
      "t": 236635.6560000019,
      "d": 280.3740000000107,
      "v": 40
    },
    {
      "midi": 62,
      "hit": false,
      "t": 236916.03000000192,
      "d": 280.3740000000107,
      "v": 40
    },
    {
      "midi": 58,
      "hit": false,
      "t": 237196.40400000193,
      "d": 280.3740000000107,
      "v": 40
    },
    {
      "midi": 65,
      "hit": false,
      "t": 237196.40400000193,
      "d": 560.7480000000214,
      "v": 64
    },
    {
      "midi": 56,
      "hit": false,
      "t": 237476.77800000194,
      "d": 280.3740000000107,
      "v": 40
    },
    {
      "midi": 65,
      "hit": false,
      "t": 237757.15200000195,
      "d": 560.7480000000214,
      "v": 64
    },
    {
      "midi": 39,
      "hit": false,
      "t": 237757.15200000245,
      "d": 560.7479999999923,
      "v": 56
    },
    {
      "midi": 51,
      "hit": false,
      "t": 237757.15200000245,
      "d": 560.7479999999923,
      "v": 56
    },
    {
      "midi": 58,
      "hit": false,
      "t": 238037.52600000196,
      "d": 280.3740000000107,
      "v": 40
    },
    {
      "midi": 61,
      "hit": false,
      "t": 238317.90000000197,
      "d": 280.3740000000107,
      "v": 40
    },
    {
      "midi": 67,
      "hit": false,
      "t": 238317.90000000197,
      "d": 560.7480000000214,
      "v": 64
    },
    {
      "midi": 63,
      "hit": false,
      "t": 238598.27400000198,
      "d": 280.3740000000107,
      "v": 40
    },
    {
      "midi": 61,
      "hit": false,
      "t": 238878.648000002,
      "d": 280.3740000000107,
      "v": 40
    },
    {
      "midi": 68,
      "hit": false,
      "t": 238878.648000002,
      "d": 560.7480000000214,
      "v": 64
    },
    {
      "midi": 70,
      "hit": false,
      "t": 238878.64800000243,
      "d": 560.7480000000214,
      "v": 40
    },
    {
      "midi": 73,
      "hit": false,
      "t": 238878.64800000243,
      "d": 560.7480000000214,
      "v": 40
    },
    {
      "midi": 80,
      "hit": false,
      "t": 238878.64800000243,
      "d": 560.7480000000214,
      "v": 40
    },
    {
      "midi": 58,
      "hit": false,
      "t": 239159.022000002,
      "d": 280.3740000000107,
      "v": 40
    },
    {
      "midi": 72,
      "hit": false,
      "t": 239439.39600000202,
      "d": 1121.4960000000428,
      "v": 64
    },
    {
      "midi": 73,
      "hit": false,
      "t": 239439.39600000245,
      "d": 560.7479999999923,
      "v": 40
    },
    {
      "midi": 75,
      "hit": false,
      "t": 239439.39600000245,
      "d": 560.7479999999923,
      "v": 40
    },
    {
      "midi": 79,
      "hit": false,
      "t": 239439.39600000245,
      "d": 560.7479999999923,
      "v": 40
    },
    {
      "midi": 84,
      "hit": false,
      "t": 239439.39600000245,
      "d": 1121.4959999999846,
      "v": 40
    },
    {
      "midi": 61,
      "hit": false,
      "t": 239719.77000000203,
      "d": 280.3740000000107,
      "v": 40
    },
    {
      "midi": 63,
      "hit": false,
      "t": 240000.14400000204,
      "d": 280.3740000000107,
      "v": 40
    },
    {
      "midi": 67,
      "hit": false,
      "t": 240280.51800000205,
      "d": 280.3740000000107,
      "v": 40
    },
    {
      "midi": 63,
      "hit": false,
      "t": 240560.89200000206,
      "d": 280.3740000000107,
      "v": 40
    },
    {
      "midi": 70,
      "hit": false,
      "t": 240560.89200000206,
      "d": 560.7480000000214,
      "v": 64
    },
    {
      "midi": 82,
      "hit": false,
      "t": 240560.89200000244,
      "d": 560.7479999999923,
      "v": 40
    },
    {
      "midi": 61,
      "hit": false,
      "t": 240841.26600000207,
      "d": 280.3740000000107,
      "v": 40
    },
    {
      "midi": 68,
      "hit": false,
      "t": 241121.64000000208,
      "d": 1682.2440000000643,
      "v": 64
    },
    {
      "midi": 32,
      "hit": false,
      "t": 241121.64000000243,
      "d": 560.7479999999923,
      "v": 56
    },
    {
      "midi": 44,
      "hit": false,
      "t": 241121.64000000243,
      "d": 560.7479999999923,
      "v": 56
    },
    {
      "midi": 60,
      "hit": false,
      "t": 241402.0140000021,
      "d": 280.3740000000107,
      "v": 40
    },
    {
      "midi": 63,
      "hit": false,
      "t": 241682.3880000021,
      "d": 280.3740000000107,
      "v": 40
    },
    {
      "midi": 65,
      "hit": false,
      "t": 241962.7620000021,
      "d": 280.3740000000107,
      "v": 40
    },
    {
      "midi": 63,
      "hit": false,
      "t": 242243.13600000212,
      "d": 280.3740000000107,
      "v": 40
    },
    {
      "midi": 72,
      "hit": false,
      "t": 242243.1360000024,
      "d": 560.7479999999923,
      "v": 40
    },
    {
      "midi": 75,
      "hit": false,
      "t": 242243.1360000024,
      "d": 560.7479999999923,
      "v": 40
    },
    {
      "midi": 80,
      "hit": false,
      "t": 242243.1360000024,
      "d": 560.7479999999923,
      "v": 40
    },
    {
      "midi": 60,
      "hit": false,
      "t": 242523.51000000213,
      "d": 280.3740000000107,
      "v": 40
    },
    {
      "midi": 56,
      "hit": false,
      "t": 242803.88400000214,
      "d": 280.3740000000107,
      "v": 40
    },
    {
      "midi": 72,
      "hit": false,
      "t": 242803.8840000024,
      "d": 560.7479999999923,
      "v": 40
    },
    {
      "midi": 75,
      "hit": false,
      "t": 242803.8840000024,
      "d": 560.7479999999923,
      "v": 40
    },
    {
      "midi": 80,
      "hit": false,
      "t": 242803.8840000024,
      "d": 560.7479999999923,
      "v": 40
    },
    {
      "midi": 60,
      "hit": false,
      "t": 243084.25800000216,
      "d": 280.3740000000107,
      "v": 40
    },
    {
      "midi": 63,
      "hit": false,
      "t": 243364.63200000217,
      "d": 280.3740000000107,
      "v": 40
    },
    {
      "midi": 65,
      "hit": false,
      "t": 243645.00600000218,
      "d": 280.3740000000107,
      "v": 40
    },
    {
      "midi": 63,
      "hit": false,
      "t": 243925.3800000022,
      "d": 560.7480000000214,
      "v": 64
    },
    {
      "midi": 68,
      "hit": false,
      "t": 244205.7540000022,
      "d": 280.3740000000107,
      "v": 40
    },
    {
      "midi": 72,
      "hit": false,
      "t": 244486.1280000022,
      "d": 1682.2440000000643,
      "v": 64
    },
    {
      "midi": 44,
      "hit": false,
      "t": 244486.1280000024,
      "d": 560.7480000000214,
      "v": 56
    },
    {
      "midi": 51,
      "hit": false,
      "t": 244486.1280000024,
      "d": 560.7480000000214,
      "v": 56
    },
    {
      "midi": 60,
      "hit": false,
      "t": 244486.1280000024,
      "d": 560.7480000000214,
      "v": 56
    },
    {
      "midi": 62,
      "hit": false,
      "t": 244766.50200000222,
      "d": 280.3740000000107,
      "v": 40
    },
    {
      "midi": 63,
      "hit": false,
      "t": 245046.87600000223,
      "d": 280.3740000000107,
      "v": 40
    },
    {
      "midi": 68,
      "hit": false,
      "t": 245327.25000000224,
      "d": 280.3740000000107,
      "v": 40
    },
    {
      "midi": 63,
      "hit": false,
      "t": 245607.62400000225,
      "d": 280.3740000000107,
      "v": 40
    },
    {
      "midi": 75,
      "hit": false,
      "t": 245607.62400000243,
      "d": 560.7479999999923,
      "v": 40
    },
    {
      "midi": 80,
      "hit": false,
      "t": 245607.62400000243,
      "d": 560.7479999999923,
      "v": 40
    },
    {
      "midi": 84,
      "hit": false,
      "t": 245607.62400000243,
      "d": 560.7479999999923,
      "v": 40
    },
    {
      "midi": 60,
      "hit": false,
      "t": 245887.99800000226,
      "d": 280.3740000000107,
      "v": 40
    },
    {
      "midi": 72,
      "hit": false,
      "t": 246168.37200000227,
      "d": 1682.2440000000643,
      "v": 64
    },
    {
      "midi": 75,
      "hit": false,
      "t": 246168.37200000242,
      "d": 560.7479999999923,
      "v": 40
    },
    {
      "midi": 80,
      "hit": false,
      "t": 246168.37200000242,
      "d": 560.7479999999923,
      "v": 40
    },
    {
      "midi": 84,
      "hit": false,
      "t": 246168.37200000242,
      "d": 560.7479999999923,
      "v": 40
    },
    {
      "midi": 60,
      "hit": false,
      "t": 246448.74600000228,
      "d": 280.3740000000107,
      "v": 40
    },
    {
      "midi": 63,
      "hit": false,
      "t": 246729.1200000023,
      "d": 280.3740000000107,
      "v": 40
    },
    {
      "midi": 68,
      "hit": false,
      "t": 247009.4940000023,
      "d": 280.3740000000107,
      "v": 40
    },
    {
      "midi": 63,
      "hit": false,
      "t": 247289.86800000232,
      "d": 280.3740000000107,
      "v": 40
    },
    {
      "midi": 60,
      "hit": false,
      "t": 247570.24200000233,
      "d": 280.3740000000107,
      "v": 40
    },
    {
      "midi": 72,
      "hit": false,
      "t": 247850.61600000234,
      "d": 2242.9920000000857,
      "v": 64
    },
    {
      "midi": 43,
      "hit": false,
      "t": 247850.61600000242,
      "d": 560.7480000000214,
      "v": 56
    },
    {
      "midi": 52,
      "hit": false,
      "t": 247850.61600000242,
      "d": 560.7480000000214,
      "v": 56
    },
    {
      "midi": 58,
      "hit": false,
      "t": 247850.61600000242,
      "d": 560.7480000000214,
      "v": 56
    },
    {
      "midi": 60,
      "hit": false,
      "t": 248130.99000000235,
      "d": 280.3740000000107,
      "v": 40
    },
    {
      "midi": 64,
      "hit": false,
      "t": 248411.36400000236,
      "d": 280.3740000000107,
      "v": 40
    },
    {
      "midi": 70,
      "hit": false,
      "t": 248691.73800000237,
      "d": 280.3740000000107,
      "v": 40
    },
    {
      "midi": 64,
      "hit": false,
      "t": 248972.11200000238,
      "d": 280.3740000000107,
      "v": 40
    },
    {
      "midi": 76,
      "hit": false,
      "t": 248972.11200000244,
      "d": 560.7479999999923,
      "v": 40
    },
    {
      "midi": 82,
      "hit": false,
      "t": 248972.11200000244,
      "d": 560.7479999999923,
      "v": 40
    },
    {
      "midi": 84,
      "hit": false,
      "t": 248972.11200000244,
      "d": 560.7479999999923,
      "v": 40
    },
    {
      "midi": 60,
      "hit": false,
      "t": 249252.4860000024,
      "d": 280.3740000000107,
      "v": 40
    },
    {
      "midi": 76,
      "hit": false,
      "t": 249532.86000000243,
      "d": 560.7479999999923,
      "v": 40
    },
    {
      "midi": 82,
      "hit": false,
      "t": 249532.86000000243,
      "d": 560.7479999999923,
      "v": 40
    },
    {
      "midi": 84,
      "hit": false,
      "t": 249532.86000000243,
      "d": 560.7479999999923,
      "v": 40
    },
    {
      "midi": 60,
      "hit": false,
      "t": 249813.2340000024,
      "d": 280.3740000000107,
      "v": 40
    },
    {
      "midi": 64,
      "hit": false,
      "t": 250093.60800000242,
      "d": 280.3740000000107,
      "v": 40
    },
    {
      "midi": 70,
      "hit": false,
      "t": 250373.98200000243,
      "d": 280.3740000000107,
      "v": 40
    },
    {
      "midi": 64,
      "hit": false,
      "t": 250654.35600000244,
      "d": 280.3740000000107,
      "v": 40
    },
    {
      "midi": 72,
      "hit": false,
      "t": 250654.35600000244,
      "d": 560.7480000000214,
      "v": 64
    },
    {
      "midi": 60,
      "hit": false,
      "t": 250934.73000000246,
      "d": 280.3740000000107,
      "v": 40
    },
    {
      "midi": 41,
      "hit": false,
      "t": 251215.10400000244,
      "d": 1682.244000000006,
      "v": 56
    },
    {
      "midi": 57,
      "hit": false,
      "t": 251215.10400000244,
      "d": 1682.244000000006,
      "v": 56
    },
    {
      "midi": 72,
      "hit": false,
      "t": 251215.10400000247,
      "d": 1121.4960000000428,
      "v": 64
    },
    {
      "midi": 60,
      "hit": false,
      "t": 251495.47800000248,
      "d": 280.3740000000107,
      "v": 40
    },
    {
      "midi": 65,
      "hit": false,
      "t": 251775.8520000025,
      "d": 280.3740000000107,
      "v": 40
    },
    {
      "midi": 69,
      "hit": false,
      "t": 252056.2260000025,
      "d": 280.3740000000107,
      "v": 40
    },
    {
      "midi": 65,
      "hit": false,
      "t": 252336.6000000025,
      "d": 280.3740000000107,
      "v": 40
    },
    {
      "midi": 72,
      "hit": false,
      "t": 252336.6000000025,
      "d": 560.7480000000214,
      "v": 64
    },
    {
      "midi": 60,
      "hit": false,
      "t": 252616.97400000252,
      "d": 280.3740000000107,
      "v": 40
    },
    {
      "midi": 39,
      "hit": false,
      "t": 252897.34800000244,
      "d": 1682.244000000006,
      "v": 56
    },
    {
      "midi": 54,
      "hit": false,
      "t": 252897.34800000244,
      "d": 1682.244000000006,
      "v": 56
    },
    {
      "midi": 73,
      "hit": false,
      "t": 252897.34800000253,
      "d": 1121.4960000000428,
      "v": 64
    },
    {
      "midi": 60,
      "hit": false,
      "t": 253177.72200000254,
      "d": 280.3740000000107,
      "v": 40
    },
    {
      "midi": 66,
      "hit": false,
      "t": 253458.09600000255,
      "d": 280.3740000000107,
      "v": 40
    },
    {
      "midi": 69,
      "hit": false,
      "t": 253738.47000000256,
      "d": 280.3740000000107,
      "v": 40
    },
    {
      "midi": 66,
      "hit": false,
      "t": 254018.84400000257,
      "d": 280.3740000000107,
      "v": 40
    },
    {
      "midi": 72,
      "hit": false,
      "t": 254018.84400000257,
      "d": 560.7480000000214,
      "v": 64
    },
    {
      "midi": 60,
      "hit": false,
      "t": 254299.21800000258,
      "d": 280.3740000000107,
      "v": 40
    },
    {
      "midi": 38,
      "hit": false,
      "t": 254579.59200000245,
      "d": 560.7479999999923,
      "v": 56
    },
    {
      "midi": 53,
      "hit": false,
      "t": 254579.59200000245,
      "d": 560.7479999999923,
      "v": 56
    },
    {
      "midi": 77,
      "hit": false,
      "t": 254579.5920000026,
      "d": 3364.4880000001285,
      "v": 64
    },
    {
      "midi": 65,
      "hit": false,
      "t": 254859.9660000026,
      "d": 280.3740000000107,
      "v": 40
    },
    {
      "midi": 68,
      "hit": false,
      "t": 255140.34000000262,
      "d": 280.3740000000107,
      "v": 40
    },
    {
      "midi": 72,
      "hit": false,
      "t": 255420.71400000263,
      "d": 280.3740000000107,
      "v": 40
    },
    {
      "midi": 80,
      "hit": false,
      "t": 255701.08800000243,
      "d": 560.7479999999923,
      "v": 40
    },
    {
      "midi": 84,
      "hit": false,
      "t": 255701.08800000243,
      "d": 560.7479999999923,
      "v": 40
    },
    {
      "midi": 89,
      "hit": false,
      "t": 255701.08800000243,
      "d": 560.7479999999923,
      "v": 40
    },
    {
      "midi": 68,
      "hit": false,
      "t": 255701.08800000264,
      "d": 280.3740000000107,
      "v": 40
    },
    {
      "midi": 65,
      "hit": false,
      "t": 255981.46200000265,
      "d": 280.3740000000107,
      "v": 40
    },
    {
      "midi": 80,
      "hit": false,
      "t": 256261.83600000243,
      "d": 560.7479999999923,
      "v": 40
    },
    {
      "midi": 83,
      "hit": false,
      "t": 256261.83600000243,
      "d": 560.7479999999923,
      "v": 40
    },
    {
      "midi": 89,
      "hit": false,
      "t": 256261.83600000243,
      "d": 560.7479999999923,
      "v": 40
    },
    {
      "midi": 65,
      "hit": false,
      "t": 256542.21000000267,
      "d": 280.3740000000107,
      "v": 40
    },
    {
      "midi": 68,
      "hit": false,
      "t": 256822.58400000268,
      "d": 280.3740000000107,
      "v": 40
    },
    {
      "midi": 71,
      "hit": false,
      "t": 257102.9580000027,
      "d": 280.3740000000107,
      "v": 40
    },
    {
      "midi": 68,
      "hit": false,
      "t": 257383.3320000027,
      "d": 280.3740000000107,
      "v": 40
    },
    {
      "midi": 65,
      "hit": false,
      "t": 257663.7060000027,
      "d": 280.3740000000107,
      "v": 40
    },
    {
      "midi": 37,
      "hit": false,
      "t": 257944.08000000243,
      "d": 560.7480000000214,
      "v": 56
    },
    {
      "midi": 52,
      "hit": false,
      "t": 257944.08000000243,
      "d": 560.7480000000214,
      "v": 56
    },
    {
      "midi": 58,
      "hit": false,
      "t": 258224.45400000273,
      "d": 280.3740000000107,
      "v": 40
    },
    {
      "midi": 64,
      "hit": false,
      "t": 258504.82800000274,
      "d": 280.3740000000107,
      "v": 40
    },
    {
      "midi": 68,
      "hit": false,
      "t": 258785.20200000276,
      "d": 280.3740000000107,
      "v": 40
    },
    {
      "midi": 76,
      "hit": false,
      "t": 259065.57600000245,
      "d": 560.7479999999923,
      "v": 40
    },
    {
      "midi": 80,
      "hit": false,
      "t": 259065.57600000245,
      "d": 560.7479999999923,
      "v": 40
    },
    {
      "midi": 82,
      "hit": false,
      "t": 259065.57600000245,
      "d": 560.7479999999923,
      "v": 40
    },
    {
      "midi": 64,
      "hit": false,
      "t": 259065.57600000277,
      "d": 280.3740000000107,
      "v": 40
    },
    {
      "midi": 58,
      "hit": false,
      "t": 259345.95000000278,
      "d": 280.3740000000107,
      "v": 40
    },
    {
      "midi": 76,
      "hit": false,
      "t": 259626.32400000244,
      "d": 560.7479999999923,
      "v": 40
    },
    {
      "midi": 80,
      "hit": false,
      "t": 259626.32400000244,
      "d": 560.7479999999923,
      "v": 40
    },
    {
      "midi": 82,
      "hit": false,
      "t": 259626.32400000244,
      "d": 560.7479999999923,
      "v": 40
    },
    {
      "midi": 70,
      "hit": false,
      "t": 259626.3240000028,
      "d": 1682.2440000000643,
      "v": 64
    },
    {
      "midi": 58,
      "hit": false,
      "t": 259906.6980000028,
      "d": 280.3740000000107,
      "v": 40
    },
    {
      "midi": 64,
      "hit": false,
      "t": 260187.0720000028,
      "d": 280.3740000000107,
      "v": 40
    },
    {
      "midi": 67,
      "hit": false,
      "t": 260467.44600000282,
      "d": 280.3740000000107,
      "v": 40
    },
    {
      "midi": 64,
      "hit": false,
      "t": 260747.82000000283,
      "d": 280.3740000000107,
      "v": 40
    },
    {
      "midi": 58,
      "hit": false,
      "t": 261028.19400000284,
      "d": 280.3740000000107,
      "v": 40
    },
    {
      "midi": 36,
      "hit": false,
      "t": 261308.56800000241,
      "d": 560.7480000000214,
      "v": 56
    },
    {
      "midi": 51,
      "hit": false,
      "t": 261308.56800000241,
      "d": 560.7480000000214,
      "v": 56
    },
    {
      "midi": 75,
      "hit": false,
      "t": 261308.56800000285,
      "d": 3364.4880000000994,
      "v": 64
    },
    {
      "midi": 63,
      "hit": false,
      "t": 261588.94200000286,
      "d": 280.3740000000107,
      "v": 40
    },
    {
      "midi": 66,
      "hit": false,
      "t": 261869.31600000287,
      "d": 280.3739999999816,
      "v": 40
    },
    {
      "midi": 70,
      "hit": false,
      "t": 262149.69000000285,
      "d": 280.3740000000107,
      "v": 40
    },
    {
      "midi": 78,
      "hit": false,
      "t": 262430.06400000246,
      "d": 560.7480000000214,
      "v": 40
    },
    {
      "midi": 82,
      "hit": false,
      "t": 262430.06400000246,
      "d": 560.7480000000214,
      "v": 40
    },
    {
      "midi": 87,
      "hit": false,
      "t": 262430.06400000246,
      "d": 560.7480000000214,
      "v": 40
    },
    {
      "midi": 66,
      "hit": false,
      "t": 262430.06400000287,
      "d": 280.3740000000107,
      "v": 40
    },
    {
      "midi": 63,
      "hit": false,
      "t": 262710.4380000029,
      "d": 280.3740000000107,
      "v": 40
    },
    {
      "midi": 78,
      "hit": false,
      "t": 262990.8120000025,
      "d": 560.7480000000214,
      "v": 40
    },
    {
      "midi": 81,
      "hit": false,
      "t": 262990.8120000025,
      "d": 560.7480000000214,
      "v": 40
    },
    {
      "midi": 87,
      "hit": false,
      "t": 262990.8120000025,
      "d": 560.7480000000214,
      "v": 40
    },
    {
      "midi": 63,
      "hit": false,
      "t": 263271.1860000029,
      "d": 280.3740000000107,
      "v": 40
    },
    {
      "midi": 66,
      "hit": false,
      "t": 263551.5600000029,
      "d": 280.3740000000107,
      "v": 40
    },
    {
      "midi": 69,
      "hit": false,
      "t": 263831.9340000029,
      "d": 280.3740000000107,
      "v": 40
    },
    {
      "midi": 66,
      "hit": false,
      "t": 264112.30800000293,
      "d": 280.3740000000107,
      "v": 40
    },
    {
      "midi": 63,
      "hit": false,
      "t": 264392.68200000294,
      "d": 280.3740000000107,
      "v": 40
    },
    {
      "midi": 35,
      "hit": false,
      "t": 264673.0560000025,
      "d": 560.7480000000214,
      "v": 56
    },
    {
      "midi": 50,
      "hit": false,
      "t": 264673.0560000025,
      "d": 560.7480000000214,
      "v": 56
    },
    {
      "midi": 56,
      "hit": false,
      "t": 264953.43000000296,
      "d": 280.3740000000107,
      "v": 40
    },
    {
      "midi": 62,
      "hit": false,
      "t": 265233.804000003,
      "d": 280.3740000000107,
      "v": 40
    },
    {
      "midi": 66,
      "hit": false,
      "t": 265514.178000003,
      "d": 280.3740000000107,
      "v": 40
    },
    {
      "midi": 74,
      "hit": false,
      "t": 265794.5520000025,
      "d": 560.7480000000214,
      "v": 40
    },
    {
      "midi": 78,
      "hit": false,
      "t": 265794.5520000025,
      "d": 560.7480000000214,
      "v": 40
    },
    {
      "midi": 80,
      "hit": false,
      "t": 265794.5520000025,
      "d": 560.7480000000214,
      "v": 40
    },
    {
      "midi": 62,
      "hit": false,
      "t": 265794.552000003,
      "d": 280.3740000000107,
      "v": 40
    },
    {
      "midi": 56,
      "hit": false,
      "t": 266074.926000003,
      "d": 280.3740000000107,
      "v": 40
    },
    {
      "midi": 74,
      "hit": false,
      "t": 266355.30000000255,
      "d": 560.7480000000214,
      "v": 40
    },
    {
      "midi": 77,
      "hit": false,
      "t": 266355.30000000255,
      "d": 560.7480000000214,
      "v": 40
    },
    {
      "midi": 80,
      "hit": false,
      "t": 266355.30000000255,
      "d": 560.7480000000214,
      "v": 40
    },
    {
      "midi": 68,
      "hit": false,
      "t": 266355.300000003,
      "d": 1682.2440000000643,
      "v": 70
    },
    {
      "midi": 56,
      "hit": false,
      "t": 266635.674000003,
      "d": 280.3740000000107,
      "v": 40
    },
    {
      "midi": 62,
      "hit": false,
      "t": 266916.04800000304,
      "d": 280.3740000000107,
      "v": 40
    },
    {
      "midi": 65,
      "hit": false,
      "t": 267196.42200000305,
      "d": 280.3740000000107,
      "v": 40
    },
    {
      "midi": 62,
      "hit": false,
      "t": 267476.79600000306,
      "d": 280.3740000000107,
      "v": 40
    },
    {
      "midi": 56,
      "hit": false,
      "t": 267757.17000000307,
      "d": 280.3740000000107,
      "v": 40
    },
    {
      "midi": 34,
      "hit": false,
      "t": 268037.54400000256,
      "d": 560.7480000000214,
      "v": 56
    },
    {
      "midi": 49,
      "hit": false,
      "t": 268037.54400000256,
      "d": 560.7480000000214,
      "v": 56
    },
    {
      "midi": 73,
      "hit": false,
      "t": 268037.5440000031,
      "d": 2803.740000000107,
      "v": 64
    },
    {
      "midi": 61,
      "hit": false,
      "t": 268317.9180000031,
      "d": 280.3740000000107,
      "v": 40
    },
    {
      "midi": 65,
      "hit": false,
      "t": 268598.2920000031,
      "d": 280.3740000000107,
      "v": 40
    },
    {
      "midi": 68,
      "hit": false,
      "t": 268878.6660000031,
      "d": 280.3740000000107,
      "v": 40
    },
    {
      "midi": 77,
      "hit": false,
      "t": 269159.0400000026,
      "d": 560.7480000000214,
      "v": 40
    },
    {
      "midi": 80,
      "hit": false,
      "t": 269159.0400000026,
      "d": 560.7480000000214,
      "v": 40
    },
    {
      "midi": 85,
      "hit": false,
      "t": 269159.0400000026,
      "d": 560.7480000000214,
      "v": 40
    },
    {
      "midi": 65,
      "hit": false,
      "t": 269159.0400000031,
      "d": 280.3740000000107,
      "v": 40
    },
    {
      "midi": 61,
      "hit": false,
      "t": 269439.41400000313,
      "d": 280.3740000000107,
      "v": 40
    },
    {
      "midi": 76,
      "hit": false,
      "t": 269719.7880000026,
      "d": 560.7480000000214,
      "v": 40
    },
    {
      "midi": 80,
      "hit": false,
      "t": 269719.7880000026,
      "d": 560.7480000000214,
      "v": 40
    },
    {
      "midi": 85,
      "hit": false,
      "t": 269719.7880000026,
      "d": 560.7480000000214,
      "v": 40
    },
    {
      "midi": 61,
      "hit": false,
      "t": 270000.16200000315,
      "d": 280.3740000000107,
      "v": 40
    },
    {
      "midi": 64,
      "hit": false,
      "t": 270280.53600000317,
      "d": 280.3740000000107,
      "v": 40
    },
    {
      "midi": 68,
      "hit": false,
      "t": 270560.9100000032,
      "d": 280.3740000000107,
      "v": 40
    },
    {
      "midi": 64,
      "hit": false,
      "t": 270841.2840000032,
      "d": 280.3740000000107,
      "v": 40
    },
    {
      "midi": 72,
      "hit": false,
      "t": 270841.2840000032,
      "d": 560.7480000000214,
      "v": 64
    },
    {
      "midi": 61,
      "hit": false,
      "t": 271121.6580000032,
      "d": 280.3740000000107,
      "v": 40
    },
    {
      "midi": 39,
      "hit": false,
      "t": 271402.0320000026,
      "d": 3364.487999999954,
      "v": 56
    },
    {
      "midi": 72,
      "hit": false,
      "t": 271402.0320000032,
      "d": 1121.4959999999846,
      "v": 64
    },
    {
      "midi": 61,
      "hit": false,
      "t": 271682.40600000316,
      "d": 280.3740000000107,
      "v": 40
    },
    {
      "midi": 64,
      "hit": false,
      "t": 271962.7800000032,
      "d": 280.3740000000107,
      "v": 40
    },
    {
      "midi": 67,
      "hit": false,
      "t": 272243.1540000032,
      "d": 280.3740000000107,
      "v": 40
    },
    {
      "midi": 64,
      "hit": false,
      "t": 272523.5280000032,
      "d": 280.3740000000107,
      "v": 40
    },
    {
      "midi": 70,
      "hit": false,
      "t": 272523.5280000032,
      "d": 560.7480000000214,
      "v": 64
    },
    {
      "midi": 61,
      "hit": false,
      "t": 272803.9020000032,
      "d": 280.3740000000107,
      "v": 40
    },
    {
      "midi": 55,
      "hit": false,
      "t": 273084.2760000026,
      "d": 1682.244000000006,
      "v": 56
    },
    {
      "midi": 72,
      "hit": false,
      "t": 273084.2760000032,
      "d": 1121.4960000000428,
      "v": 64
    },
    {
      "midi": 61,
      "hit": false,
      "t": 273364.6500000032,
      "d": 280.3740000000107,
      "v": 40
    },
    {
      "midi": 63,
      "hit": false,
      "t": 273645.02400000324,
      "d": 280.3740000000107,
      "v": 40
    },
    {
      "midi": 67,
      "hit": false,
      "t": 273925.39800000325,
      "d": 280.3740000000107,
      "v": 40
    },
    {
      "midi": 63,
      "hit": false,
      "t": 274205.77200000326,
      "d": 280.3740000000107,
      "v": 40
    },
    {
      "midi": 70,
      "hit": false,
      "t": 274205.77200000326,
      "d": 560.7480000000214,
      "v": 64
    },
    {
      "midi": 61,
      "hit": false,
      "t": 274486.14600000327,
      "d": 280.3740000000107,
      "v": 40
    },
    {
      "midi": 60,
      "hit": false,
      "t": 274766.5200000033,
      "d": 560.7479999999632,
      "v": 40
    },
    {
      "midi": 63,
      "hit": false,
      "t": 274766.5200000033,
      "d": 560.7479999999632,
      "v": 40
    },
    {
      "midi": 68,
      "hit": false,
      "t": 274766.5200000033,
      "d": 560.7479999999632,
      "v": 64
    },
    {
      "midi": 32,
      "hit": false,
      "t": 275046.8940000026,
      "d": 280.3740000000107,
      "v": 63
    },
    {
      "midi": 44,
      "hit": false,
      "t": 275327.2680000026,
      "d": 280.3740000000107,
      "v": 62
    },
    {
      "midi": 51,
      "hit": false,
      "t": 275607.6420000026,
      "d": 280.3740000000107,
      "v": 60
    },
    {
      "midi": 56,
      "hit": false,
      "t": 275888.0160000026,
      "d": 280.3740000000107,
      "v": 59
    },
    {
      "midi": 60,
      "hit": false,
      "t": 276168.39000000263,
      "d": 280.3740000000107,
      "v": 58
    },
    {
      "midi": 63,
      "hit": false,
      "t": 276448.76400000264,
      "d": 280.3740000000107,
      "v": 56
    },
    {
      "midi": 68,
      "hit": false,
      "t": 276729.13800000265,
      "d": 280.3740000000107,
      "v": 55
    },
    {
      "midi": 72,
      "hit": false,
      "t": 277009.51200000267,
      "d": 280.3740000000107,
      "v": 54
    },
    {
      "midi": 75,
      "hit": false,
      "t": 277289.8860000027,
      "d": 280.3740000000107,
      "v": 52
    },
    {
      "midi": 80,
      "hit": false,
      "t": 277570.2600000027,
      "d": 280.3740000000107,
      "v": 51
    },
    {
      "midi": 82,
      "hit": false,
      "t": 277850.6340000027,
      "d": 280.3740000000107,
      "v": 50
    },
    {
      "midi": 68,
      "hit": false,
      "t": 278131.0080000027,
      "d": 1121.4959999999846,
      "v": 48
    },
    {
      "midi": 72,
      "hit": false,
      "t": 278131.0080000027,
      "d": 1121.4959999999846,
      "v": 48
    },
    {
      "midi": 75,
      "hit": false,
      "t": 278131.00800000323,
      "d": 1121.4959999999846,
      "v": 48
    },
    {
      "midi": 84,
      "hit": false,
      "t": 278131.00800000323,
      "d": 1121.4959999999846,
      "v": 48
    },
    {
      "midi": 67,
      "hit": false,
      "t": 279252.5040000027,
      "d": 560.7480000000214,
      "v": 48
    },
    {
      "midi": 70,
      "hit": false,
      "t": 279252.5040000027,
      "d": 560.7480000000214,
      "v": 48
    },
    {
      "midi": 76,
      "hit": false,
      "t": 279252.5040000032,
      "d": 560.7480000000214,
      "v": 48
    },
    {
      "midi": 84,
      "hit": false,
      "t": 279252.5040000032,
      "d": 560.7480000000214,
      "v": 48
    },
    {
      "midi": 65,
      "hit": false,
      "t": 279813.2520000027,
      "d": 560.7480000000214,
      "v": 47
    },
    {
      "midi": 69,
      "hit": false,
      "t": 279813.2520000027,
      "d": 560.7480000000214,
      "v": 47
    },
    {
      "midi": 77,
      "hit": false,
      "t": 279813.25200000324,
      "d": 560.7480000000214,
      "v": 47
    },
    {
      "midi": 84,
      "hit": false,
      "t": 279813.25200000324,
      "d": 560.7480000000214,
      "v": 47
    },
    {
      "midi": 63,
      "hit": false,
      "t": 280374.00000000274,
      "d": 560.7480000000214,
      "v": 47
    },
    {
      "midi": 69,
      "hit": false,
      "t": 280374.00000000274,
      "d": 560.7480000000214,
      "v": 47
    },
    {
      "midi": 78,
      "hit": false,
      "t": 280374.00000000326,
      "d": 560.7480000000214,
      "v": 47
    },
    {
      "midi": 85,
      "hit": false,
      "t": 280374.00000000326,
      "d": 560.7480000000214,
      "v": 47
    },
    {
      "midi": 63,
      "hit": false,
      "t": 280934.74800000276,
      "d": 560.7480000000214,
      "v": 46
    },
    {
      "midi": 69,
      "hit": false,
      "t": 280934.74800000276,
      "d": 560.7480000000214,
      "v": 46
    },
    {
      "midi": 79,
      "hit": false,
      "t": 280934.7480000033,
      "d": 560.7480000000214,
      "v": 46
    },
    {
      "midi": 84,
      "hit": false,
      "t": 280934.7480000033,
      "d": 560.7480000000214,
      "v": 46
    },
    {
      "midi": 62,
      "hit": false,
      "t": 281495.4960000028,
      "d": 560.7480000000214,
      "v": 46
    },
    {
      "midi": 71,
      "hit": false,
      "t": 281495.4960000028,
      "d": 560.7480000000214,
      "v": 46
    },
    {
      "midi": 80,
      "hit": false,
      "t": 281495.4960000033,
      "d": 560.7480000000214,
      "v": 46
    },
    {
      "midi": 89,
      "hit": false,
      "t": 281495.4960000033,
      "d": 560.7480000000214,
      "v": 46
    },
    {
      "midi": 66,
      "hit": false,
      "t": 284859.9840000028,
      "d": 1121.4959999999846,
      "v": 43
    },
    {
      "midi": 70,
      "hit": false,
      "t": 284859.9840000028,
      "d": 1121.4959999999846,
      "v": 43
    },
    {
      "midi": 73,
      "hit": false,
      "t": 284859.9840000033,
      "d": 1121.4959999999846,
      "v": 43
    },
    {
      "midi": 82,
      "hit": false,
      "t": 284859.9840000033,
      "d": 1121.4959999999846,
      "v": 43
    },
    {
      "midi": 64,
      "hit": false,
      "t": 285981.4800000028,
      "d": 560.7480000000214,
      "v": 42
    },
    {
      "midi": 68,
      "hit": false,
      "t": 285981.4800000028,
      "d": 560.7480000000214,
      "v": 42
    },
    {
      "midi": 74,
      "hit": false,
      "t": 285981.4800000033,
      "d": 560.7480000000214,
      "v": 42
    },
    {
      "midi": 82,
      "hit": false,
      "t": 285981.4800000033,
      "d": 560.7480000000214,
      "v": 42
    },
    {
      "midi": 63,
      "hit": false,
      "t": 286542.2280000028,
      "d": 560.7480000000214,
      "v": 41
    },
    {
      "midi": 67,
      "hit": false,
      "t": 286542.2280000028,
      "d": 560.7480000000214,
      "v": 41
    },
    {
      "midi": 75,
      "hit": false,
      "t": 286542.2280000033,
      "d": 560.7480000000214,
      "v": 41
    },
    {
      "midi": 82,
      "hit": false,
      "t": 286542.2280000033,
      "d": 560.7480000000214,
      "v": 41
    },
    {
      "midi": 61,
      "hit": false,
      "t": 287102.9760000028,
      "d": 560.7480000000214,
      "v": 41
    },
    {
      "midi": 67,
      "hit": false,
      "t": 287102.9760000028,
      "d": 560.7480000000214,
      "v": 41
    },
    {
      "midi": 76,
      "hit": false,
      "t": 287102.97600000334,
      "d": 560.7480000000214,
      "v": 41
    },
    {
      "midi": 84,
      "hit": false,
      "t": 287102.97600000334,
      "d": 560.7480000000214,
      "v": 41
    },
    {
      "midi": 61,
      "hit": false,
      "t": 287663.72400000284,
      "d": 560.7480000000214,
      "v": 41
    },
    {
      "midi": 67,
      "hit": false,
      "t": 287663.72400000284,
      "d": 560.7480000000214,
      "v": 41
    },
    {
      "midi": 76,
      "hit": false,
      "t": 287663.72400000336,
      "d": 560.7480000000214,
      "v": 41
    },
    {
      "midi": 82,
      "hit": false,
      "t": 287663.72400000336,
      "d": 560.7480000000214,
      "v": 41
    },
    {
      "midi": 60,
      "hit": false,
      "t": 288224.47200000286,
      "d": 560.7480000000214,
      "v": 40
    },
    {
      "midi": 69,
      "hit": false,
      "t": 288224.47200000286,
      "d": 560.7480000000214,
      "v": 40
    },
    {
      "midi": 78,
      "hit": false,
      "t": 288224.4720000034,
      "d": 560.7480000000214,
      "v": 40
    },
    {
      "midi": 87,
      "hit": false,
      "t": 288224.4720000034,
      "d": 560.7480000000214,
      "v": 40
    },
    {
      "midi": 37,
      "hit": false,
      "t": 291588.9600000029,
      "d": 3364.488000000012,
      "v": 37
    },
    {
      "midi": 57,
      "hit": false,
      "t": 291635.68900000287,
      "d": 3317.75900000002,
      "v": 37
    },
    {
      "midi": 61,
      "hit": false,
      "t": 291682.4180000034,
      "d": 3271.0299999999697,
      "v": 37
    },
    {
      "midi": 64,
      "hit": false,
      "t": 291729.1470000034,
      "d": 3224.3009999999776,
      "v": 37
    },
    {
      "midi": 73,
      "hit": false,
      "t": 291775.87600000337,
      "d": 3177.5719999999856,
      "v": 37
    },
    {
      "midi": 56,
      "hit": false,
      "t": 294953.4480000029,
      "d": 1682.244000000006,
      "v": 34
    },
    {
      "midi": 39,
      "hit": false,
      "t": 294953.4480000029,
      "d": 3364.488000000012,
      "v": 34
    },
    {
      "midi": 65,
      "hit": false,
      "t": 294953.44800000335,
      "d": 2242.9920000000275,
      "v": 34
    },
    {
      "midi": 70,
      "hit": false,
      "t": 294953.44800000335,
      "d": 2803.740000000049,
      "v": 34
    },
    {
      "midi": 61,
      "hit": false,
      "t": 294953.44800000335,
      "d": 3364.4880000000703,
      "v": 34
    },
    {
      "midi": 55,
      "hit": false,
      "t": 296635.6920000029,
      "d": 1682.244000000006,
      "v": 33
    },
    {
      "midi": 63,
      "hit": false,
      "t": 297196.4400000034,
      "d": 1121.4960000000428,
      "v": 33
    },
    {
      "midi": 72,
      "hit": false,
      "t": 297757.1880000034,
      "d": 560.7480000000214,
      "v": 32
    },
    {
      "midi": 51,
      "hit": false,
      "t": 298317.9360000029,
      "d": 2242.9920000000275,
      "v": 32
    },
    {
      "midi": 44,
      "hit": false,
      "t": 298317.9360000029,
      "d": 3364.4880000000703,
      "v": 32
    },
    {
      "midi": 60,
      "hit": false,
      "t": 298317.9360000034,
      "d": 2242.9920000000275,
      "v": 32
    },
    {
      "midi": 68,
      "hit": false,
      "t": 298317.9360000034,
      "d": 3364.4880000000703,
      "v": 32
    },
    {
      "midi": 50,
      "hit": false,
      "t": 300560.9280000029,
      "d": 560.7480000000214,
      "v": 30
    },
    {
      "midi": 59,
      "hit": false,
      "t": 300560.92800000345,
      "d": 560.7480000000214,
      "v": 30
    },
    {
      "midi": 51,
      "hit": false,
      "t": 301121.67600000295,
      "d": 560.7480000000214,
      "v": 29
    },
    {
      "midi": 60,
      "hit": false,
      "t": 301121.67600000347,
      "d": 560.7480000000214,
      "v": 29
    },
    {
      "midi": 44,
      "hit": false,
      "t": 301682.42400000297,
      "d": 3364.488000000012,
      "v": 29
    },
    {
      "midi": 55,
      "hit": false,
      "t": 301729.15300000296,
      "d": 1635.515000000014,
      "v": 29
    },
    {
      "midi": 63,
      "hit": false,
      "t": 301775.8820000035,
      "d": 1588.7859999999637,
      "v": 29
    },
    {
      "midi": 68,
      "hit": false,
      "t": 301822.61100000347,
      "d": 3224.3009999999776,
      "v": 29
    },
    {
      "midi": 53,
      "hit": false,
      "t": 303364.668000003,
      "d": 1121.4959999999846,
      "v": 27
    },
    {
      "midi": 61,
      "hit": false,
      "t": 303364.66800000344,
      "d": 1121.4959999999846,
      "v": 27
    },
    {
      "midi": 51,
      "hit": false,
      "t": 304486.16400000296,
      "d": 560.7480000000214,
      "v": 27
    },
    {
      "midi": 60,
      "hit": false,
      "t": 304486.1640000034,
      "d": 560.7480000000214,
      "v": 27
    },
    {
      "midi": 44,
      "hit": false,
      "t": 305046.912000003,
      "d": 3364.488000000012,
      "v": 26
    },
    {
      "midi": 51,
      "hit": false,
      "t": 305093.641000003,
      "d": 3317.75900000002,
      "v": 26
    },
    {
      "midi": 60,
      "hit": false,
      "t": 305140.37000000343,
      "d": 3271.0299999999697,
      "v": 26
    },
    {
      "midi": 68,
      "hit": false,
      "t": 305187.0990000034,
      "d": 3224.3009999999776,
      "v": 26
    }
  ]
}