{
  "jsonPath": "Reggae/Uk Reggae/Ali Campbell/out-from-under.json",
  "path": "Reggae\\Uk Reggae\\Ali Campbell\\Out From Under.mid",
  "name": "Out From Under",
  "difficulty": "Advanced",
  "bpm": 74.000074000074,
  "notes": [
    {
      "midi": 53,
      "hit": false,
      "t": 7500,
      "d": 1796.875,
      "v": 82
    },
    {
      "midi": 65,
      "hit": false,
      "t": 7500,
      "d": 1796.875,
      "v": 82
    },
    {
      "midi": 57,
      "hit": false,
      "t": 7504.8828125,
      "d": 1801.7578125,
      "v": 82
    },
    {
      "midi": 60,
      "hit": false,
      "t": 7509.765625,
      "d": 1816.40625,
      "v": 80
    },
    {
      "midi": 60,
      "hit": false,
      "t": 9375,
      "d": 1816.40625,
      "v": 78
    },
    {
      "midi": 48,
      "hit": false,
      "t": 9375,
      "d": 1826.171875,
      "v": 95
    },
    {
      "midi": 55,
      "hit": false,
      "t": 9379.8828125,
      "d": 1821.2890625,
      "v": 78
    },
    {
      "midi": 64,
      "hit": false,
      "t": 9379.8828125,
      "d": 1821.2890625,
      "v": 82
    },
    {
      "midi": 43,
      "hit": false,
      "t": 11245.1171875,
      "d": 1821.2890625,
      "v": 91
    },
    {
      "midi": 55,
      "hit": false,
      "t": 11250,
      "d": 1796.875,
      "v": 82
    },
    {
      "midi": 62,
      "hit": false,
      "t": 11254.8828125,
      "d": 1762.6953125,
      "v": 86
    },
    {
      "midi": 59,
      "hit": false,
      "t": 11264.6484375,
      "d": 1801.7578125,
      "v": 70
    },
    {
      "midi": 64,
      "hit": false,
      "t": 13115.234375,
      "d": 1835.9375,
      "v": 89
    },
    {
      "midi": 57,
      "hit": false,
      "t": 13120.1171875,
      "d": 1821.2890625,
      "v": 82
    },
    {
      "midi": 60,
      "hit": false,
      "t": 13125,
      "d": 1816.40625,
      "v": 78
    },
    {
      "midi": 45,
      "hit": false,
      "t": 13139.6484375,
      "d": 1625.9765625,
      "v": 74
    },
    {
      "midi": 43,
      "hit": false,
      "t": 14746.09375,
      "d": 239.2578125,
      "v": 80
    },
    {
      "midi": 41,
      "hit": false,
      "t": 14990.234375,
      "d": 1860.3515625,
      "v": 87
    },
    {
      "midi": 65,
      "hit": false,
      "t": 15009.765625,
      "d": 1777.34375,
      "v": 91
    },
    {
      "midi": 57,
      "hit": false,
      "t": 15009.765625,
      "d": 1816.40625,
      "v": 91
    },
    {
      "midi": 60,
      "hit": false,
      "t": 15019.53125,
      "d": 1757.8125,
      "v": 80
    },
    {
      "midi": 64,
      "hit": false,
      "t": 16865.234375,
      "d": 1777.34375,
      "v": 82
    },
    {
      "midi": 55,
      "hit": false,
      "t": 16870.1171875,
      "d": 1801.7578125,
      "v": 66
    },
    {
      "midi": 60,
      "hit": false,
      "t": 16875,
      "d": 1777.34375,
      "v": 72
    },
    {
      "midi": 48,
      "hit": false,
      "t": 16879.8828125,
      "d": 1782.2265625,
      "v": 82
    },
    {
      "midi": 43,
      "hit": false,
      "t": 18730.46875,
      "d": 3730.46875,
      "v": 86
    },
    {
      "midi": 62,
      "hit": false,
      "t": 18750,
      "d": 1777.34375,
      "v": 91
    },
    {
      "midi": 60,
      "hit": false,
      "t": 18754.8828125,
      "d": 1821.2890625,
      "v": 84
    },
    {
      "midi": 55,
      "hit": false,
      "t": 18754.8828125,
      "d": 1826.171875,
      "v": 80
    },
    {
      "midi": 62,
      "hit": false,
      "t": 20615.234375,
      "d": 1835.9375,
      "v": 91
    },
    {
      "midi": 55,
      "hit": false,
      "t": 20620.1171875,
      "d": 1762.6953125,
      "v": 82
    },
    {
      "midi": 59,
      "hit": false,
      "t": 20625,
      "d": 1796.875,
      "v": 82
    },
    {
      "midi": 57,
      "hit": false,
      "t": 22490.234375,
      "d": 1816.40625,
      "v": 93
    },
    {
      "midi": 53,
      "hit": false,
      "t": 22495.1171875,
      "d": 1840.8203125,
      "v": 76
    },
    {
      "midi": 60,
      "hit": false,
      "t": 22500,
      "d": 1796.875,
      "v": 95
    },
    {
      "midi": 65,
      "hit": false,
      "t": 22500,
      "d": 1796.875,
      "v": 100
    },
    {
      "midi": 48,
      "hit": false,
      "t": 24350.5859375,
      "d": 1884.765625,
      "v": 93
    },
    {
      "midi": 55,
      "hit": false,
      "t": 24375,
      "d": 1748.046875,
      "v": 84
    },
    {
      "midi": 64,
      "hit": false,
      "t": 24379.8828125,
      "d": 1098.6328125,
      "v": 86
    },
    {
      "midi": 60,
      "hit": false,
      "t": 24384.765625,
      "d": 644.53125,
      "v": 78
    },
    {
      "midi": 60,
      "hit": false,
      "t": 25068.359375,
      "d": 390.625,
      "v": 91
    },
    {
      "midi": 62,
      "hit": false,
      "t": 25307.6171875,
      "d": 336.9140625,
      "v": 102
    },
    {
      "midi": 64,
      "hit": false,
      "t": 25527.34375,
      "d": 263.671875,
      "v": 86
    },
    {
      "midi": 67,
      "hit": false,
      "t": 25761.71875,
      "d": 493.1640625,
      "v": 102
    },
    {
      "midi": 43,
      "hit": false,
      "t": 26245.1171875,
      "d": 1831.0546875,
      "v": 85
    },
    {
      "midi": 62,
      "hit": false,
      "t": 26254.8828125,
      "d": 1787.109375,
      "v": 87
    },
    {
      "midi": 59,
      "hit": false,
      "t": 26259.765625,
      "d": 1777.34375,
      "v": 82
    },
    {
      "midi": 55,
      "hit": false,
      "t": 26259.765625,
      "d": 1796.875,
      "v": 82
    },
    {
      "midi": 45,
      "hit": false,
      "t": 28115.234375,
      "d": 878.90625,
      "v": 85
    },
    {
      "midi": 64,
      "hit": false,
      "t": 28120.1171875,
      "d": 1782.2265625,
      "v": 89
    },
    {
      "midi": 57,
      "hit": false,
      "t": 28125,
      "d": 1757.8125,
      "v": 85
    },
    {
      "midi": 60,
      "hit": false,
      "t": 28129.8828125,
      "d": 1762.6953125,
      "v": 85
    },
    {
      "midi": 43,
      "hit": false,
      "t": 29077.1484375,
      "d": 883.7890625,
      "v": 95
    },
    {
      "midi": 65,
      "hit": false,
      "t": 29995.1171875,
      "d": 1840.8203125,
      "v": 82
    },
    {
      "midi": 60,
      "hit": false,
      "t": 30000,
      "d": 1796.875,
      "v": 85
    },
    {
      "midi": 53,
      "hit": false,
      "t": 30000,
      "d": 1816.40625,
      "v": 82
    },
    {
      "midi": 57,
      "hit": false,
      "t": 30004.8828125,
      "d": 1801.7578125,
      "v": 82
    },
    {
      "midi": 55,
      "hit": false,
      "t": 31865.234375,
      "d": 1816.40625,
      "v": 82
    },
    {
      "midi": 48,
      "hit": false,
      "t": 31865.234375,
      "d": 1889.6484375,
      "v": 87
    },
    {
      "midi": 60,
      "hit": false,
      "t": 31870.1171875,
      "d": 1801.7578125,
      "v": 87
    },
    {
      "midi": 64,
      "hit": false,
      "t": 31875,
      "d": 1816.40625,
      "v": 87
    },
    {
      "midi": 43,
      "hit": false,
      "t": 33735.3515625,
      "d": 2172.8515625,
      "v": 87
    },
    {
      "midi": 62,
      "hit": false,
      "t": 33735.3515625,
      "d": 2177.734375,
      "v": 91
    },
    {
      "midi": 55,
      "hit": false,
      "t": 33740.234375,
      "d": 2148.4375,
      "v": 85
    },
    {
      "midi": 60,
      "hit": false,
      "t": 33745.1171875,
      "d": 2148.4375,
      "v": 89
    },
    {
      "midi": 55,
      "hit": false,
      "t": 37500,
      "d": 2734.375,
      "v": 85
    },
    {
      "midi": 64,
      "hit": false,
      "t": 37500,
      "d": 2773.4375,
      "v": 93
    },
    {
      "midi": 60,
      "hit": false,
      "t": 37500,
      "d": 2792.96875,
      "v": 91
    },
    {
      "midi": 67,
      "hit": false,
      "t": 39365.234375,
      "d": 917.96875,
      "v": 94
    },
    {
      "midi": 55,
      "hit": false,
      "t": 40312.5,
      "d": 3676.7578125,
      "v": 76
    },
    {
      "midi": 59,
      "hit": false,
      "t": 40771.484375,
      "d": 3222.65625,
      "v": 102
    },
    {
      "midi": 57,
      "hit": false,
      "t": 41259.765625,
      "d": 2695.3125,
      "v": 85
    },
    {
      "midi": 62,
      "hit": false,
      "t": 44042.96875,
      "d": 952.1484375,
      "v": 93
    },
    {
      "midi": 59,
      "hit": false,
      "t": 44047.8515625,
      "d": 961.9140625,
      "v": 98
    },
    {
      "midi": 55,
      "hit": false,
      "t": 44531.25,
      "d": 429.6875,
      "v": 78
    },
    {
      "midi": 64,
      "hit": false,
      "t": 45000,
      "d": 2734.375,
      "v": 87
    },
    {
      "midi": 57,
      "hit": false,
      "t": 45004.8828125,
      "d": 2739.2578125,
      "v": 89
    },
    {
      "midi": 60,
      "hit": false,
      "t": 45004.8828125,
      "d": 2758.7890625,
      "v": 95
    },
    {
      "midi": 64,
      "hit": false,
      "t": 47792.96875,
      "d": 283.203125,
      "v": 93
    },
    {
      "midi": 60,
      "hit": false,
      "t": 47802.734375,
      "d": 205.078125,
      "v": 95
    },
    {
      "midi": 57,
      "hit": false,
      "t": 47807.6171875,
      "d": 258.7890625,
      "v": 102
    },
    {
      "midi": 62,
      "hit": false,
      "t": 48037.109375,
      "d": 610.3515625,
      "v": 82
    },
    {
      "midi": 59,
      "hit": false,
      "t": 48046.875,
      "d": 605.46875,
      "v": 82
    },
    {
      "midi": 55,
      "hit": false,
      "t": 48051.7578125,
      "d": 629.8828125,
      "v": 85
    },
    {
      "midi": 60,
      "hit": false,
      "t": 48740.234375,
      "d": 2675.78125,
      "v": 91
    },
    {
      "midi": 53,
      "hit": false,
      "t": 48750,
      "d": 2773.4375,
      "v": 89
    },
    {
      "midi": 57,
      "hit": false,
      "t": 48754.8828125,
      "d": 2719.7265625,
      "v": 85
    },
    {
      "midi": 65,
      "hit": false,
      "t": 50639.6484375,
      "d": 825.1953125,
      "v": 85
    },
    {
      "midi": 57,
      "hit": false,
      "t": 51552.734375,
      "d": 898.4375,
      "v": 80
    },
    {
      "midi": 65,
      "hit": false,
      "t": 51557.6171875,
      "d": 922.8515625,
      "v": 100
    },
    {
      "midi": 60,
      "hit": false,
      "t": 51567.3828125,
      "d": 864.2578125,
      "v": 91
    },
    {
      "midi": 55,
      "hit": false,
      "t": 52490.234375,
      "d": 3671.875,
      "v": 82
    },
    {
      "midi": 60,
      "hit": false,
      "t": 52500,
      "d": 2626.953125,
      "v": 85
    },
    {
      "midi": 64,
      "hit": false,
      "t": 52504.8828125,
      "d": 2573.2421875,
      "v": 93
    },
    {
      "midi": 64,
      "hit": false,
      "t": 55302.734375,
      "d": 898.4375,
      "v": 87
    },
    {
      "midi": 60,
      "hit": false,
      "t": 55307.6171875,
      "d": 864.2578125,
      "v": 82
    },
    {
      "midi": 67,
      "hit": false,
      "t": 55312.5,
      "d": 859.375,
      "v": 85
    },
    {
      "midi": 62,
      "hit": false,
      "t": 56240.234375,
      "d": 2753.90625,
      "v": 85
    },
    {
      "midi": 59,
      "hit": false,
      "t": 56245.1171875,
      "d": 1821.2890625,
      "v": 91
    },
    {
      "midi": 55,
      "hit": false,
      "t": 56245.1171875,
      "d": 2504.8828125,
      "v": 82
    },
    {
      "midi": 59,
      "hit": false,
      "t": 58129.8828125,
      "d": 864.2578125,
      "v": 80
    },
    {
      "midi": 55,
      "hit": false,
      "t": 58818.359375,
      "d": 1230.46875,
      "v": 86
    },
    {
      "midi": 62,
      "hit": false,
      "t": 59052.734375,
      "d": 878.90625,
      "v": 105
    },
    {
      "midi": 59,
      "hit": false,
      "t": 59052.734375,
      "d": 898.4375,
      "v": 98
    },
    {
      "midi": 57,
      "hit": false,
      "t": 60000,
      "d": 800.78125,
      "v": 88
    },
    {
      "midi": 60,
      "hit": false,
      "t": 60004.8828125,
      "d": 844.7265625,
      "v": 93
    },
    {
      "midi": 64,
      "hit": false,
      "t": 60004.8828125,
      "d": 864.2578125,
      "v": 88
    },
    {
      "midi": 64,
      "hit": false,
      "t": 60927.734375,
      "d": 859.375,
      "v": 91
    },
    {
      "midi": 57,
      "hit": false,
      "t": 60932.6171875,
      "d": 844.7265625,
      "v": 93
    },
    {
      "midi": 60,
      "hit": false,
      "t": 60932.6171875,
      "d": 864.2578125,
      "v": 98
    },
    {
      "midi": 60,
      "hit": false,
      "t": 61865.234375,
      "d": 839.84375,
      "v": 93
    },
    {
      "midi": 57,
      "hit": false,
      "t": 61870.1171875,
      "d": 825.1953125,
      "v": 89
    },
    {
      "midi": 64,
      "hit": false,
      "t": 61870.1171875,
      "d": 844.7265625,
      "v": 82
    },
    {
      "midi": 57,
      "hit": false,
      "t": 62802.734375,
      "d": 859.375,
      "v": 98
    },
    {
      "midi": 60,
      "hit": false,
      "t": 62802.734375,
      "d": 859.375,
      "v": 100
    },
    {
      "midi": 64,
      "hit": false,
      "t": 62807.6171875,
      "d": 903.3203125,
      "v": 93
    },
    {
      "midi": 57,
      "hit": false,
      "t": 63740.234375,
      "d": 878.90625,
      "v": 93
    },
    {
      "midi": 60,
      "hit": false,
      "t": 63745.1171875,
      "d": 883.7890625,
      "v": 93
    },
    {
      "midi": 67,
      "hit": false,
      "t": 63745.1171875,
      "d": 883.7890625,
      "v": 87
    },
    {
      "midi": 67,
      "hit": false,
      "t": 64682.6171875,
      "d": 883.7890625,
      "v": 80
    },
    {
      "midi": 57,
      "hit": false,
      "t": 64687.5,
      "d": 878.90625,
      "v": 95
    },
    {
      "midi": 60,
      "hit": false,
      "t": 64697.265625,
      "d": 859.375,
      "v": 82
    },
    {
      "midi": 57,
      "hit": false,
      "t": 65625,
      "d": 839.84375,
      "v": 89
    },
    {
      "midi": 60,
      "hit": false,
      "t": 65629.8828125,
      "d": 883.7890625,
      "v": 91
    },
    {
      "midi": 65,
      "hit": false,
      "t": 65629.8828125,
      "d": 883.7890625,
      "v": 89
    },
    {
      "midi": 60,
      "hit": false,
      "t": 66562.5,
      "d": 859.375,
      "v": 100
    },
    {
      "midi": 57,
      "hit": false,
      "t": 66562.5,
      "d": 878.90625,
      "v": 98
    },
    {
      "midi": 65,
      "hit": false,
      "t": 66567.3828125,
      "d": 883.7890625,
      "v": 102
    },
    {
      "midi": 57,
      "hit": false,
      "t": 67500,
      "d": 839.84375,
      "v": 100
    },
    {
      "midi": 60,
      "hit": false,
      "t": 67500,
      "d": 859.375,
      "v": 95
    },
    {
      "midi": 64,
      "hit": false,
      "t": 67500,
      "d": 878.90625,
      "v": 87
    },
    {
      "midi": 57,
      "hit": false,
      "t": 68427.734375,
      "d": 859.375,
      "v": 87
    },
    {
      "midi": 60,
      "hit": false,
      "t": 68432.6171875,
      "d": 883.7890625,
      "v": 98
    },
    {
      "midi": 64,
      "hit": false,
      "t": 68437.5,
      "d": 859.375,
      "v": 80
    },
    {
      "midi": 57,
      "hit": false,
      "t": 69365.234375,
      "d": 878.90625,
      "v": 98
    },
    {
      "midi": 60,
      "hit": false,
      "t": 69375,
      "d": 859.375,
      "v": 91
    },
    {
      "midi": 64,
      "hit": false,
      "t": 69379.8828125,
      "d": 864.2578125,
      "v": 85
    },
    {
      "midi": 57,
      "hit": false,
      "t": 70312.5,
      "d": 839.84375,
      "v": 102
    },
    {
      "midi": 60,
      "hit": false,
      "t": 70312.5,
      "d": 839.84375,
      "v": 93
    },
    {
      "midi": 64,
      "hit": false,
      "t": 70312.5,
      "d": 859.375,
      "v": 98
    },
    {
      "midi": 57,
      "hit": false,
      "t": 71240.234375,
      "d": 878.90625,
      "v": 98
    },
    {
      "midi": 67,
      "hit": false,
      "t": 71240.234375,
      "d": 878.90625,
      "v": 91
    },
    {
      "midi": 60,
      "hit": false,
      "t": 71245.1171875,
      "d": 903.3203125,
      "v": 91
    },
    {
      "midi": 57,
      "hit": false,
      "t": 72182.6171875,
      "d": 820.3125,
      "v": 102
    },
    {
      "midi": 67,
      "hit": false,
      "t": 72182.6171875,
      "d": 903.3203125,
      "v": 91
    },
    {
      "midi": 60,
      "hit": false,
      "t": 72187.5,
      "d": 839.84375,
      "v": 93
    },
    {
      "midi": 57,
      "hit": false,
      "t": 73115.234375,
      "d": 859.375,
      "v": 89
    },
    {
      "midi": 60,
      "hit": false,
      "t": 73115.234375,
      "d": 898.4375,
      "v": 95
    },
    {
      "midi": 65,
      "hit": false,
      "t": 73120.1171875,
      "d": 903.3203125,
      "v": 91
    },
    {
      "midi": 57,
      "hit": false,
      "t": 74052.734375,
      "d": 859.375,
      "v": 85
    },
    {
      "midi": 65,
      "hit": false,
      "t": 74062.5,
      "d": 898.4375,
      "v": 87
    },
    {
      "midi": 60,
      "hit": false,
      "t": 74067.3828125,
      "d": 864.2578125,
      "v": 87
    },
    {
      "midi": 67,
      "hit": false,
      "t": 74990.234375,
      "d": 1347.65625,
      "v": 87
    },
    {
      "midi": 62,
      "hit": false,
      "t": 74995.1171875,
      "d": 1157.2265625,
      "v": 95
    },
    {
      "midi": 59,
      "hit": false,
      "t": 74995.1171875,
      "d": 1821.2890625,
      "v": 100
    },
    {
      "midi": 60,
      "hit": false,
      "t": 75927.734375,
      "d": 2714.84375,
      "v": 104
    },
    {
      "midi": 62,
      "hit": false,
      "t": 76171.875,
      "d": 2460.9375,
      "v": 88
    },
    {
      "midi": 67,
      "hit": false,
      "t": 76406.25,
      "d": 2255.859375,
      "v": 93
    },
    {
      "midi": 59,
      "hit": false,
      "t": 76875,
      "d": 1782.2265625,
      "v": 95
    },
    {
      "midi": 57,
      "hit": false,
      "t": 78750,
      "d": 1347.65625,
      "v": 95
    },
    {
      "midi": 65,
      "hit": false,
      "t": 78754.8828125,
      "d": 1352.5390625,
      "v": 89
    },
    {
      "midi": 60,
      "hit": false,
      "t": 78759.765625,
      "d": 1357.421875,
      "v": 100
    },
    {
      "midi": 57,
      "hit": false,
      "t": 80146.484375,
      "d": 449.21875,
      "v": 89
    },
    {
      "midi": 60,
      "hit": false,
      "t": 80146.484375,
      "d": 449.21875,
      "v": 98
    },
    {
      "midi": 65,
      "hit": false,
      "t": 80151.3671875,
      "d": 473.6328125,
      "v": 95
    },
    {
      "midi": 60,
      "hit": false,
      "t": 80625,
      "d": 888.671875,
      "v": 93
    },
    {
      "midi": 55,
      "hit": false,
      "t": 80625,
      "d": 1816.40625,
      "v": 87
    },
    {
      "midi": 64,
      "hit": false,
      "t": 80629.8828125,
      "d": 1342.7734375,
      "v": 98
    },
    {
      "midi": 60,
      "hit": false,
      "t": 81567.3828125,
      "d": 903.3203125,
      "v": 105
    },
    {
      "midi": 62,
      "hit": false,
      "t": 81791.9921875,
      "d": 668.9453125,
      "v": 85
    },
    {
      "midi": 64,
      "hit": false,
      "t": 82016.6015625,
      "d": 468.75,
      "v": 102
    },
    {
      "midi": 55,
      "hit": false,
      "t": 82500,
      "d": 1835.9375,
      "v": 95
    },
    {
      "midi": 59,
      "hit": false,
      "t": 82500,
      "d": 1855.46875,
      "v": 95
    },
    {
      "midi": 62,
      "hit": false,
      "t": 82504.8828125,
      "d": 1840.8203125,
      "v": 91
    },
    {
      "midi": 64,
      "hit": false,
      "t": 84365.234375,
      "d": 888.671875,
      "v": 95
    },
    {
      "midi": 57,
      "hit": false,
      "t": 84370.1171875,
      "d": 903.3203125,
      "v": 91
    },
    {
      "midi": 60,
      "hit": false,
      "t": 84379.8828125,
      "d": 888.671875,
      "v": 95
    },
    {
      "midi": 64,
      "hit": false,
      "t": 85302.734375,
      "d": 468.75,
      "v": 98
    },
    {
      "midi": 57,
      "hit": false,
      "t": 85317.3828125,
      "d": 454.1015625,
      "v": 100
    },
    {
      "midi": 60,
      "hit": false,
      "t": 85317.3828125,
      "d": 463.8671875,
      "v": 102
    },
    {
      "midi": 55,
      "hit": false,
      "t": 85766.6015625,
      "d": 454.1015625,
      "v": 91
    },
    {
      "midi": 62,
      "hit": false,
      "t": 85771.484375,
      "d": 458.984375,
      "v": 87
    },
    {
      "midi": 59,
      "hit": false,
      "t": 85781.25,
      "d": 449.21875,
      "v": 91
    },
    {
      "midi": 53,
      "hit": false,
      "t": 86240.234375,
      "d": 1855.46875,
      "v": 102
    },
    {
      "midi": 60,
      "hit": false,
      "t": 86250,
      "d": 1826.171875,
      "v": 95
    },
    {
      "midi": 57,
      "hit": false,
      "t": 86254.8828125,
      "d": 1821.2890625,
      "v": 91
    },
    {
      "midi": 55,
      "hit": false,
      "t": 88115.234375,
      "d": 888.671875,
      "v": 93
    },
    {
      "midi": 64,
      "hit": false,
      "t": 88120.1171875,
      "d": 893.5546875,
      "v": 91
    },
    {
      "midi": 60,
      "hit": false,
      "t": 88125,
      "d": 878.90625,
      "v": 102
    },
    {
      "midi": 60,
      "hit": false,
      "t": 89052.734375,
      "d": 888.671875,
      "v": 98
    },
    {
      "midi": 55,
      "hit": false,
      "t": 89057.6171875,
      "d": 893.5546875,
      "v": 98
    },
    {
      "midi": 64,
      "hit": false,
      "t": 89062.5,
      "d": 878.90625,
      "v": 89
    },
    {
      "midi": 60,
      "hit": false,
      "t": 89990.234375,
      "d": 1591.796875,
      "v": 98
    },
    {
      "midi": 62,
      "hit": false,
      "t": 89995.1171875,
      "d": 1606.4453125,
      "v": 98
    },
    {
      "midi": 55,
      "hit": false,
      "t": 90000,
      "d": 1611.328125,
      "v": 85
    },
    {
      "midi": 67,
      "hit": false,
      "t": 90688.4765625,
      "d": 3022.4609375,
      "v": 92
    },
    {
      "midi": 55,
      "hit": false,
      "t": 91630.859375,
      "d": 2070.3125,
      "v": 82
    },
    {
      "midi": 59,
      "hit": false,
      "t": 91635.7421875,
      "d": 2084.9609375,
      "v": 91
    },
    {
      "midi": 62,
      "hit": false,
      "t": 91640.625,
      "d": 2070.3125,
      "v": 87
    },
    {
      "midi": 57,
      "hit": false,
      "t": 93754.8828125,
      "d": 849.609375,
      "v": 89
    },
    {
      "midi": 53,
      "hit": false,
      "t": 93754.8828125,
      "d": 893.5546875,
      "v": 96
    },
    {
      "midi": 60,
      "hit": false,
      "t": 93759.765625,
      "d": 849.609375,
      "v": 83
    },
    {
      "midi": 57,
      "hit": false,
      "t": 94677.734375,
      "d": 917.96875,
      "v": 92
    },
    {
      "midi": 60,
      "hit": false,
      "t": 94682.6171875,
      "d": 893.5546875,
      "v": 83
    },
    {
      "midi": 53,
      "hit": false,
      "t": 94687.5,
      "d": 917.96875,
      "v": 99
    },
    {
      "midi": 64,
      "hit": false,
      "t": 95620.1171875,
      "d": 1840.8203125,
      "v": 100
    },
    {
      "midi": 55,
      "hit": false,
      "t": 95625,
      "d": 644.53125,
      "v": 98
    },
    {
      "midi": 60,
      "hit": false,
      "t": 95629.8828125,
      "d": 1118.1640625,
      "v": 95
    },
    {
      "midi": 52,
      "hit": false,
      "t": 96093.75,
      "d": 1367.1875,
      "v": 85
    },
    {
      "midi": 55,
      "hit": false,
      "t": 96337.890625,
      "d": 839.84375,
      "v": 95
    },
    {
      "midi": 60,
      "hit": false,
      "t": 96796.875,
      "d": 664.0625,
      "v": 98
    },
    {
      "midi": 55,
      "hit": false,
      "t": 97265.625,
      "d": 190.4296875,
      "v": 78
    },
    {
      "midi": 59,
      "hit": false,
      "t": 97490.234375,
      "d": 878.90625,
      "v": 93
    },
    {
      "midi": 62,
      "hit": false,
      "t": 97504.8828125,
      "d": 825.1953125,
      "v": 91
    },
    {
      "midi": 55,
      "hit": false,
      "t": 97504.8828125,
      "d": 864.2578125,
      "v": 91
    },
    {
      "midi": 62,
      "hit": false,
      "t": 98417.96875,
      "d": 864.2578125,
      "v": 93
    },
    {
      "midi": 55,
      "hit": false,
      "t": 98427.734375,
      "d": 917.96875,
      "v": 95
    },
    {
      "midi": 59,
      "hit": false,
      "t": 98432.6171875,
      "d": 864.2578125,
      "v": 100
    },
    {
      "midi": 64,
      "hit": false,
      "t": 99365.234375,
      "d": 644.53125,
      "v": 95
    },
    {
      "midi": 60,
      "hit": false,
      "t": 99365.234375,
      "d": 683.59375,
      "v": 91
    },
    {
      "midi": 57,
      "hit": false,
      "t": 99370.1171875,
      "d": 688.4765625,
      "v": 100
    },
    {
      "midi": 52,
      "hit": false,
      "t": 99838.8671875,
      "d": 244.140625,
      "v": 80
    },
    {
      "midi": 64,
      "hit": false,
      "t": 100073.2421875,
      "d": 502.9296875,
      "v": 89
    },
    {
      "midi": 57,
      "hit": false,
      "t": 100078.125,
      "d": 410.15625,
      "v": 93
    },
    {
      "midi": 60,
      "hit": false,
      "t": 100078.125,
      "d": 449.21875,
      "v": 91
    },
    {
      "midi": 62,
      "hit": false,
      "t": 100537.109375,
      "d": 722.65625,
      "v": 89
    },
    {
      "midi": 55,
      "hit": false,
      "t": 100541.9921875,
      "d": 688.4765625,
      "v": 80
    },
    {
      "midi": 59,
      "hit": false,
      "t": 100546.875,
      "d": 625,
      "v": 82
    },
    {
      "midi": 53,
      "hit": false,
      "t": 101235.3515625,
      "d": 1840.8203125,
      "v": 91
    },
    {
      "midi": 57,
      "hit": false,
      "t": 101240.234375,
      "d": 1816.40625,
      "v": 89
    },
    {
      "midi": 60,
      "hit": false,
      "t": 101250,
      "d": 1777.34375,
      "v": 76
    },
    {
      "midi": 55,
      "hit": false,
      "t": 103125,
      "d": 859.375,
      "v": 92
    },
    {
      "midi": 60,
      "hit": false,
      "t": 103129.8828125,
      "d": 844.7265625,
      "v": 95
    },
    {
      "midi": 64,
      "hit": false,
      "t": 103129.8828125,
      "d": 844.7265625,
      "v": 85
    },
    {
      "midi": 55,
      "hit": false,
      "t": 104052.734375,
      "d": 878.90625,
      "v": 90
    },
    {
      "midi": 60,
      "hit": false,
      "t": 104052.734375,
      "d": 878.90625,
      "v": 83
    },
    {
      "midi": 64,
      "hit": false,
      "t": 104057.6171875,
      "d": 903.3203125,
      "v": 88
    },
    {
      "midi": 55,
      "hit": false,
      "t": 104985.3515625,
      "d": 395.5078125,
      "v": 100
    },
    {
      "midi": 62,
      "hit": false,
      "t": 104985.3515625,
      "d": 903.3203125,
      "v": 100
    },
    {
      "midi": 60,
      "hit": false,
      "t": 104990.234375,
      "d": 664.0625,
      "v": 100
    },
    {
      "midi": 55,
      "hit": false,
      "t": 105444.3359375,
      "d": 1411.1328125,
      "v": 89
    },
    {
      "midi": 60,
      "hit": false,
      "t": 105703.125,
      "d": 1054.6875,
      "v": 95
    },
    {
      "midi": 62,
      "hit": false,
      "t": 106166.9921875,
      "d": 610.3515625,
      "v": 100
    },
    {
      "midi": 55,
      "hit": false,
      "t": 106875,
      "d": 1840.8203125,
      "v": 91
    },
    {
      "midi": 59,
      "hit": false,
      "t": 106889.6484375,
      "d": 1835.9375,
      "v": 105
    },
    {
      "midi": 62,
      "hit": false,
      "t": 106894.53125,
      "d": 1821.2890625,
      "v": 102
    },
    {
      "midi": 55,
      "hit": false,
      "t": 108750,
      "d": 859.375,
      "v": 91
    },
    {
      "midi": 64,
      "hit": false,
      "t": 108750,
      "d": 898.4375,
      "v": 93
    },
    {
      "midi": 60,
      "hit": false,
      "t": 108750,
      "d": 917.96875,
      "v": 100
    },
    {
      "midi": 64,
      "hit": false,
      "t": 109687.5,
      "d": 878.90625,
      "v": 89
    },
    {
      "midi": 55,
      "hit": false,
      "t": 109692.3828125,
      "d": 883.7890625,
      "v": 87
    },
    {
      "midi": 60,
      "hit": false,
      "t": 109697.265625,
      "d": 878.90625,
      "v": 85
    },
    {
      "midi": 64,
      "hit": false,
      "t": 110625,
      "d": 859.375,
      "v": 89
    },
    {
      "midi": 55,
      "hit": false,
      "t": 110629.8828125,
      "d": 878.90625,
      "v": 87
    },
    {
      "midi": 60,
      "hit": false,
      "t": 110634.765625,
      "d": 878.90625,
      "v": 87
    },
    {
      "midi": 64,
      "hit": false,
      "t": 111552.734375,
      "d": 878.90625,
      "v": 100
    },
    {
      "midi": 60,
      "hit": false,
      "t": 111562.5,
      "d": 917.96875,
      "v": 98
    },
    {
      "midi": 55,
      "hit": false,
      "t": 112021.484375,
      "d": 429.6875,
      "v": 96
    },
    {
      "midi": 62,
      "hit": false,
      "t": 112490.234375,
      "d": 917.96875,
      "v": 91
    },
    {
      "midi": 55,
      "hit": false,
      "t": 112495.1171875,
      "d": 878.90625,
      "v": 98
    },
    {
      "midi": 59,
      "hit": false,
      "t": 112495.1171875,
      "d": 903.3203125,
      "v": 100
    },
    {
      "midi": 59,
      "hit": false,
      "t": 113427.734375,
      "d": 898.4375,
      "v": 95
    },
    {
      "midi": 55,
      "hit": false,
      "t": 113432.6171875,
      "d": 903.3203125,
      "v": 85
    },
    {
      "midi": 62,
      "hit": false,
      "t": 113432.6171875,
      "d": 903.3203125,
      "v": 89
    },
    {
      "midi": 55,
      "hit": false,
      "t": 114365.234375,
      "d": 898.4375,
      "v": 85
    },
    {
      "midi": 59,
      "hit": false,
      "t": 114370.1171875,
      "d": 922.8515625,
      "v": 98
    },
    {
      "midi": 62,
      "hit": false,
      "t": 114375,
      "d": 917.96875,
      "v": 89
    },
    {
      "midi": 55,
      "hit": false,
      "t": 115302.734375,
      "d": 878.90625,
      "v": 85
    },
    {
      "midi": 59,
      "hit": false,
      "t": 115312.5,
      "d": 937.5,
      "v": 91
    },
    {
      "midi": 62,
      "hit": false,
      "t": 115312.5,
      "d": 937.5,
      "v": 89
    },
    {
      "midi": 64,
      "hit": false,
      "t": 116254.8828125,
      "d": 922.8515625,
      "v": 91
    },
    {
      "midi": 57,
      "hit": false,
      "t": 116259.765625,
      "d": 898.4375,
      "v": 93
    },
    {
      "midi": 60,
      "hit": false,
      "t": 116264.6484375,
      "d": 903.3203125,
      "v": 82
    },
    {
      "midi": 57,
      "hit": false,
      "t": 117187.5,
      "d": 878.90625,
      "v": 89
    },
    {
      "midi": 60,
      "hit": false,
      "t": 117197.265625,
      "d": 878.90625,
      "v": 85
    },
    {
      "midi": 64,
      "hit": false,
      "t": 117197.265625,
      "d": 878.90625,
      "v": 93
    },
    {
      "midi": 57,
      "hit": false,
      "t": 118115.234375,
      "d": 878.90625,
      "v": 89
    },
    {
      "midi": 64,
      "hit": false,
      "t": 118120.1171875,
      "d": 903.3203125,
      "v": 93
    },
    {
      "midi": 60,
      "hit": false,
      "t": 118125,
      "d": 898.4375,
      "v": 78
    },
    {
      "midi": 64,
      "hit": false,
      "t": 119042.96875,
      "d": 292.96875,
      "v": 80
    },
    {
      "midi": 57,
      "hit": false,
      "t": 119057.6171875,
      "d": 258.7890625,
      "v": 85
    },
    {
      "midi": 60,
      "hit": false,
      "t": 119057.6171875,
      "d": 292.96875,
      "v": 85
    },
    {
      "midi": 59,
      "hit": false,
      "t": 119287.109375,
      "d": 644.53125,
      "v": 91
    },
    {
      "midi": 62,
      "hit": false,
      "t": 119287.109375,
      "d": 703.125,
      "v": 85
    },
    {
      "midi": 55,
      "hit": false,
      "t": 119306.640625,
      "d": 644.53125,
      "v": 93
    },
    {
      "midi": 53,
      "hit": false,
      "t": 120009.765625,
      "d": 878.90625,
      "v": 89
    },
    {
      "midi": 57,
      "hit": false,
      "t": 120014.6484375,
      "d": 878.90625,
      "v": 87
    },
    {
      "midi": 60,
      "hit": false,
      "t": 120019.53125,
      "d": 878.90625,
      "v": 85
    },
    {
      "midi": 53,
      "hit": false,
      "t": 120927.734375,
      "d": 878.90625,
      "v": 80
    },
    {
      "midi": 60,
      "hit": false,
      "t": 120942.3828125,
      "d": 878.90625,
      "v": 85
    },
    {
      "midi": 57,
      "hit": false,
      "t": 120942.3828125,
      "d": 903.3203125,
      "v": 82
    },
    {
      "midi": 53,
      "hit": false,
      "t": 121865.234375,
      "d": 878.90625,
      "v": 89
    },
    {
      "midi": 60,
      "hit": false,
      "t": 121865.234375,
      "d": 878.90625,
      "v": 91
    },
    {
      "midi": 57,
      "hit": false,
      "t": 121870.1171875,
      "d": 903.3203125,
      "v": 91
    },
    {
      "midi": 53,
      "hit": false,
      "t": 122802.734375,
      "d": 937.5,
      "v": 80
    },
    {
      "midi": 57,
      "hit": false,
      "t": 122807.6171875,
      "d": 937.5,
      "v": 95
    },
    {
      "midi": 60,
      "hit": false,
      "t": 122812.5,
      "d": 468.75,
      "v": 95
    },
    {
      "midi": 62,
      "hit": false,
      "t": 123281.25,
      "d": 468.75,
      "v": 89
    },
    {
      "midi": 55,
      "hit": false,
      "t": 123740.234375,
      "d": 878.90625,
      "v": 87
    },
    {
      "midi": 64,
      "hit": false,
      "t": 123740.234375,
      "d": 878.90625,
      "v": 87
    },
    {
      "midi": 60,
      "hit": false,
      "t": 123745.1171875,
      "d": 878.90625,
      "v": 91
    },
    {
      "midi": 64,
      "hit": false,
      "t": 124682.6171875,
      "d": 820.3125,
      "v": 91
    },
    {
      "midi": 55,
      "hit": false,
      "t": 124682.6171875,
      "d": 878.90625,
      "v": 89
    },
    {
      "midi": 60,
      "hit": false,
      "t": 124687.5,
      "d": 878.90625,
      "v": 91
    },
    {
      "midi": 64,
      "hit": false,
      "t": 125615.234375,
      "d": 878.90625,
      "v": 91
    },
    {
      "midi": 60,
      "hit": false,
      "t": 125620.1171875,
      "d": 922.8515625,
      "v": 93
    },
    {
      "midi": 55,
      "hit": false,
      "t": 125620.1171875,
      "d": 1118.1640625,
      "v": 85
    },
    {
      "midi": 64,
      "hit": false,
      "t": 126557.6171875,
      "d": 937.5,
      "v": 100
    },
    {
      "midi": 60,
      "hit": false,
      "t": 126572.265625,
      "d": 898.4375,
      "v": 100
    },
    {
      "midi": 55,
      "hit": false,
      "t": 126801.7578125,
      "d": 649.4140625,
      "v": 91
    },
    {
      "midi": 62,
      "hit": false,
      "t": 127500,
      "d": 898.4375,
      "v": 87
    },
    {
      "midi": 55,
      "hit": false,
      "t": 127504.8828125,
      "d": 878.90625,
      "v": 91
    },
    {
      "midi": 59,
      "hit": false,
      "t": 127504.8828125,
      "d": 878.90625,
      "v": 91
    },
    {
      "midi": 55,
      "hit": false,
      "t": 128447.265625,
      "d": 820.3125,
      "v": 80
    },
    {
      "midi": 59,
      "hit": false,
      "t": 128457.03125,
      "d": 859.375,
      "v": 80
    },
    {
      "midi": 62,
      "hit": false,
      "t": 128457.03125,
      "d": 878.90625,
      "v": 87
    },
    {
      "midi": 55,
      "hit": false,
      "t": 129370.1171875,
      "d": 883.7890625,
      "v": 91
    },
    {
      "midi": 59,
      "hit": false,
      "t": 129370.1171875,
      "d": 1352.5390625,
      "v": 98
    },
    {
      "midi": 62,
      "hit": false,
      "t": 129375,
      "d": 1328.125,
      "v": 87
    },
    {
      "midi": 55,
      "hit": false,
      "t": 130307.6171875,
      "d": 937.5,
      "v": 100
    },
    {
      "midi": 62,
      "hit": false,
      "t": 130771.484375,
      "d": 468.75,
      "v": 82
    },
    {
      "midi": 59,
      "hit": false,
      "t": 130776.3671875,
      "d": 468.75,
      "v": 91
    },
    {
      "midi": 57,
      "hit": false,
      "t": 131250,
      "d": 800.78125,
      "v": 88
    },
    {
      "midi": 60,
      "hit": false,
      "t": 131254.8828125,
      "d": 844.7265625,
      "v": 93
    },
    {
      "midi": 64,
      "hit": false,
      "t": 131254.8828125,
      "d": 864.2578125,
      "v": 88
    },
    {
      "midi": 64,
      "hit": false,
      "t": 132177.734375,
      "d": 859.375,
      "v": 91
    },
    {
      "midi": 57,
      "hit": false,
      "t": 132182.6171875,
      "d": 844.7265625,
      "v": 93
    },
    {
      "midi": 60,
      "hit": false,
      "t": 132182.6171875,
      "d": 864.2578125,
      "v": 98
    },
    {
      "midi": 60,
      "hit": false,
      "t": 133115.234375,
      "d": 839.84375,
      "v": 93
    },
    {
      "midi": 57,
      "hit": false,
      "t": 133120.1171875,
      "d": 825.1953125,
      "v": 89
    },
    {
      "midi": 64,
      "hit": false,
      "t": 133120.1171875,
      "d": 844.7265625,
      "v": 82
    },
    {
      "midi": 57,
      "hit": false,
      "t": 134052.734375,
      "d": 859.375,
      "v": 98
    },
    {
      "midi": 60,
      "hit": false,
      "t": 134052.734375,
      "d": 859.375,
      "v": 100
    },
    {
      "midi": 64,
      "hit": false,
      "t": 134057.6171875,
      "d": 903.3203125,
      "v": 93
    },
    {
      "midi": 57,
      "hit": false,
      "t": 134990.234375,
      "d": 878.90625,
      "v": 93
    },
    {
      "midi": 60,
      "hit": false,
      "t": 134995.1171875,
      "d": 883.7890625,
      "v": 93
    },
    {
      "midi": 67,
      "hit": false,
      "t": 134995.1171875,
      "d": 883.7890625,
      "v": 87
    },
    {
      "midi": 67,
      "hit": false,
      "t": 135932.6171875,
      "d": 883.7890625,
      "v": 80
    },
    {
      "midi": 57,
      "hit": false,
      "t": 135937.5,
      "d": 878.90625,
      "v": 95
    },
    {
      "midi": 60,
      "hit": false,
      "t": 135947.265625,
      "d": 859.375,
      "v": 82
    },
    {
      "midi": 57,
      "hit": false,
      "t": 136875,
      "d": 839.84375,
      "v": 89
    },
    {
      "midi": 60,
      "hit": false,
      "t": 136879.8828125,
      "d": 883.7890625,
      "v": 91
    },
    {
      "midi": 65,
      "hit": false,
      "t": 136879.8828125,
      "d": 883.7890625,
      "v": 89
    },
    {
      "midi": 60,
      "hit": false,
      "t": 137812.5,
      "d": 859.375,
      "v": 100
    },
    {
      "midi": 57,
      "hit": false,
      "t": 137812.5,
      "d": 878.90625,
      "v": 98
    },
    {
      "midi": 65,
      "hit": false,
      "t": 137817.3828125,
      "d": 883.7890625,
      "v": 102
    },
    {
      "midi": 57,
      "hit": false,
      "t": 138750,
      "d": 839.84375,
      "v": 100
    },
    {
      "midi": 60,
      "hit": false,
      "t": 138750,
      "d": 859.375,
      "v": 95
    },
    {
      "midi": 64,
      "hit": false,
      "t": 138750,
      "d": 878.90625,
      "v": 87
    },
    {
      "midi": 57,
      "hit": false,
      "t": 139677.734375,
      "d": 859.375,
      "v": 87
    },
    {
      "midi": 60,
      "hit": false,
      "t": 139682.6171875,
      "d": 883.7890625,
      "v": 98
    },
    {
      "midi": 64,
      "hit": false,
      "t": 139687.5,
      "d": 859.375,
      "v": 80
    },
    {
      "midi": 57,
      "hit": false,
      "t": 140615.234375,
      "d": 878.90625,
      "v": 98
    },
    {
      "midi": 60,
      "hit": false,
      "t": 140625,
      "d": 859.375,
      "v": 91
    },
    {
      "midi": 64,
      "hit": false,
      "t": 140629.8828125,
      "d": 864.2578125,
      "v": 85
    },
    {
      "midi": 57,
      "hit": false,
      "t": 141562.5,
      "d": 839.84375,
      "v": 102
    },
    {
      "midi": 60,
      "hit": false,
      "t": 141562.5,
      "d": 839.84375,
      "v": 93
    },
    {
      "midi": 64,
      "hit": false,
      "t": 141562.5,
      "d": 859.375,
      "v": 98
    },
    {
      "midi": 57,
      "hit": false,
      "t": 142490.234375,
      "d": 878.90625,
      "v": 98
    },
    {
      "midi": 67,
      "hit": false,
      "t": 142490.234375,
      "d": 878.90625,
      "v": 91
    },
    {
      "midi": 60,
      "hit": false,
      "t": 142495.1171875,
      "d": 903.3203125,
      "v": 91
    },
    {
      "midi": 57,
      "hit": false,
      "t": 143432.6171875,
      "d": 820.3125,
      "v": 102
    },
    {
      "midi": 67,
      "hit": false,
      "t": 143432.6171875,
      "d": 903.3203125,
      "v": 91
    },
    {
      "midi": 60,
      "hit": false,
      "t": 143437.5,
      "d": 839.84375,
      "v": 93
    },
    {
      "midi": 57,
      "hit": false,
      "t": 144365.234375,
      "d": 859.375,
      "v": 89
    },
    {
      "midi": 60,
      "hit": false,
      "t": 144365.234375,
      "d": 898.4375,
      "v": 95
    },
    {
      "midi": 65,
      "hit": false,
      "t": 144370.1171875,
      "d": 903.3203125,
      "v": 91
    },
    {
      "midi": 57,
      "hit": false,
      "t": 145302.734375,
      "d": 859.375,
      "v": 85
    },
    {
      "midi": 65,
      "hit": false,
      "t": 145312.5,
      "d": 898.4375,
      "v": 87
    },
    {
      "midi": 60,
      "hit": false,
      "t": 145317.3828125,
      "d": 864.2578125,
      "v": 87
    },
    {
      "midi": 62,
      "hit": false,
      "t": 146240.234375,
      "d": 878.90625,
      "v": 99
    },
    {
      "midi": 65,
      "hit": false,
      "t": 146245.1171875,
      "d": 864.2578125,
      "v": 90
    },
    {
      "midi": 57,
      "hit": false,
      "t": 146245.1171875,
      "d": 903.3203125,
      "v": 93
    },
    {
      "midi": 57,
      "hit": false,
      "t": 147167.96875,
      "d": 878.90625,
      "v": 95
    },
    {
      "midi": 65,
      "hit": false,
      "t": 147172.8515625,
      "d": 883.7890625,
      "v": 93
    },
    {
      "midi": 62,
      "hit": false,
      "t": 147177.734375,
      "d": 878.90625,
      "v": 99
    },
    {
      "midi": 65,
      "hit": false,
      "t": 148110.3515625,
      "d": 864.2578125,
      "v": 95
    },
    {
      "midi": 57,
      "hit": false,
      "t": 148115.234375,
      "d": 859.375,
      "v": 97
    },
    {
      "midi": 62,
      "hit": false,
      "t": 148120.1171875,
      "d": 864.2578125,
      "v": 97
    },
    {
      "midi": 65,
      "hit": false,
      "t": 149052.734375,
      "d": 175.78125,
      "v": 93
    },
    {
      "midi": 62,
      "hit": false,
      "t": 149057.6171875,
      "d": 175.78125,
      "v": 101
    },
    {
      "midi": 57,
      "hit": false,
      "t": 149067.3828125,
      "d": 219.7265625,
      "v": 101
    },
    {
      "midi": 60,
      "hit": false,
      "t": 149282.2265625,
      "d": 668.9453125,
      "v": 95
    },
    {
      "midi": 64,
      "hit": false,
      "t": 149282.2265625,
      "d": 668.9453125,
      "v": 90
    },
    {
      "midi": 55,
      "hit": false,
      "t": 149287.109375,
      "d": 644.53125,
      "v": 93
    },
    {
      "midi": 57,
      "hit": false,
      "t": 149995.1171875,
      "d": 883.7890625,
      "v": 93
    },
    {
      "midi": 67,
      "hit": false,
      "t": 150000,
      "d": 878.90625,
      "v": 90
    },
    {
      "midi": 60,
      "hit": false,
      "t": 150004.8828125,
      "d": 903.3203125,
      "v": 99
    },
    {
      "midi": 67,
      "hit": false,
      "t": 150927.734375,
      "d": 898.4375,
      "v": 93
    },
    {
      "midi": 57,
      "hit": false,
      "t": 150932.6171875,
      "d": 883.7890625,
      "v": 93
    },
    {
      "midi": 60,
      "hit": false,
      "t": 150937.5,
      "d": 878.90625,
      "v": 93
    },
    {
      "midi": 57,
      "hit": false,
      "t": 151865.234375,
      "d": 898.4375,
      "v": 97
    },
    {
      "midi": 67,
      "hit": false,
      "t": 151870.1171875,
      "d": 883.7890625,
      "v": 101
    },
    {
      "midi": 60,
      "hit": false,
      "t": 151879.8828125,
      "d": 883.7890625,
      "v": 86
    },
    {
      "midi": 67,
      "hit": false,
      "t": 152792.96875,
      "d": 898.4375,
      "v": 95
    },
    {
      "midi": 57,
      "hit": false,
      "t": 152797.8515625,
      "d": 903.3203125,
      "v": 97
    },
    {
      "midi": 60,
      "hit": false,
      "t": 152802.734375,
      "d": 898.4375,
      "v": 88
    },
    {
      "midi": 60,
      "hit": false,
      "t": 153735.3515625,
      "d": 903.3203125,
      "v": 100
    },
    {
      "midi": 62,
      "hit": false,
      "t": 153740.234375,
      "d": 898.4375,
      "v": 100
    },
    {
      "midi": 67,
      "hit": false,
      "t": 153740.234375,
      "d": 898.4375,
      "v": 93
    },
    {
      "midi": 67,
      "hit": false,
      "t": 154677.734375,
      "d": 898.4375,
      "v": 85
    },
    {
      "midi": 62,
      "hit": false,
      "t": 154682.6171875,
      "d": 903.3203125,
      "v": 95
    },
    {
      "midi": 60,
      "hit": false,
      "t": 154687.5,
      "d": 898.4375,
      "v": 87
    },
    {
      "midi": 67,
      "hit": false,
      "t": 155615.234375,
      "d": 898.4375,
      "v": 82
    },
    {
      "midi": 59,
      "hit": false,
      "t": 155620.1171875,
      "d": 903.3203125,
      "v": 95
    },
    {
      "midi": 62,
      "hit": false,
      "t": 155625,
      "d": 878.90625,
      "v": 93
    },
    {
      "midi": 67,
      "hit": false,
      "t": 156552.734375,
      "d": 917.96875,
      "v": 87
    },
    {
      "midi": 59,
      "hit": false,
      "t": 156557.6171875,
      "d": 922.8515625,
      "v": 98
    },
    {
      "midi": 62,
      "hit": false,
      "t": 156557.6171875,
      "d": 922.8515625,
      "v": 98
    },
    {
      "midi": 57,
      "hit": false,
      "t": 157500,
      "d": 1347.65625,
      "v": 95
    },
    {
      "midi": 64,
      "hit": false,
      "t": 157504.8828125,
      "d": 1372.0703125,
      "v": 87
    },
    {
      "midi": 60,
      "hit": false,
      "t": 157509.765625,
      "d": 1347.65625,
      "v": 91
    },
    {
      "midi": 57,
      "hit": false,
      "t": 158896.484375,
      "d": 1367.1875,
      "v": 93
    },
    {
      "midi": 60,
      "hit": false,
      "t": 158901.3671875,
      "d": 1391.6015625,
      "v": 100
    },
    {
      "midi": 64,
      "hit": false,
      "t": 158906.25,
      "d": 1367.1875,
      "v": 95
    },
    {
      "midi": 57,
      "hit": false,
      "t": 160302.734375,
      "d": 917.96875,
      "v": 102
    },
    {
      "midi": 60,
      "hit": false,
      "t": 160307.6171875,
      "d": 903.3203125,
      "v": 102
    },
    {
      "midi": 64,
      "hit": false,
      "t": 160307.6171875,
      "d": 932.6171875,
      "v": 98
    },
    {
      "midi": 66,
      "hit": false,
      "t": 161240.234375,
      "d": 644.53125,
      "v": 85
    },
    {
      "midi": 57,
      "hit": false,
      "t": 161240.234375,
      "d": 649.4140625,
      "v": 100
    },
    {
      "midi": 62,
      "hit": false,
      "t": 161245.1171875,
      "d": 698.2421875,
      "v": 98
    },
    {
      "midi": 66,
      "hit": false,
      "t": 161943.359375,
      "d": 664.0625,
      "v": 70
    },
    {
      "midi": 57,
      "hit": false,
      "t": 161948.2421875,
      "d": 668.9453125,
      "v": 100
    },
    {
      "midi": 62,
      "hit": false,
      "t": 161953.125,
      "d": 644.53125,
      "v": 98
    },
    {
      "midi": 66,
      "hit": false,
      "t": 162636.71875,
      "d": 2343.75,
      "v": 84
    },
    {
      "midi": 57,
      "hit": false,
      "t": 162646.484375,
      "d": 1367.1875,
      "v": 100
    },
    {
      "midi": 62,
      "hit": false,
      "t": 162651.3671875,
      "d": 2329.1015625,
      "v": 95
    },
    {
      "midi": 53,
      "hit": false,
      "t": 164052.734375,
      "d": 468.75,
      "v": 98
    },
    {
      "midi": 57,
      "hit": false,
      "t": 164057.6171875,
      "d": 502.9296875,
      "v": 93
    },
    {
      "midi": 55,
      "hit": false,
      "t": 164516.6015625,
      "d": 429.6875,
      "v": 82
    },
    {
      "midi": 59,
      "hit": false,
      "t": 164521.484375,
      "d": 473.6328125,
      "v": 82
    },
    {
      "midi": 53,
      "hit": false,
      "t": 164995.1171875,
      "d": 922.8515625,
      "v": 98
    },
    {
      "midi": 57,
      "hit": false,
      "t": 165004.8828125,
      "d": 903.3203125,
      "v": 91
    },
    {
      "midi": 60,
      "hit": false,
      "t": 165009.765625,
      "d": 927.734375,
      "v": 93
    },
    {
      "midi": 53,
      "hit": false,
      "t": 165937.5,
      "d": 878.90625,
      "v": 89
    },
    {
      "midi": 60,
      "hit": false,
      "t": 165942.3828125,
      "d": 864.2578125,
      "v": 85
    },
    {
      "midi": 57,
      "hit": false,
      "t": 165947.265625,
      "d": 917.96875,
      "v": 85
    },
    {
      "midi": 60,
      "hit": false,
      "t": 166865.234375,
      "d": 1787.109375,
      "v": 102
    },
    {
      "midi": 67,
      "hit": false,
      "t": 166870.1171875,
      "d": 1787.109375,
      "v": 102
    },
    {
      "midi": 62,
      "hit": false,
      "t": 166870.1171875,
      "d": 1796.875,
      "v": 90
    },
    {
      "midi": 57,
      "hit": false,
      "t": 168754.8828125,
      "d": 849.609375,
      "v": 89
    },
    {
      "midi": 53,
      "hit": false,
      "t": 168754.8828125,
      "d": 893.5546875,
      "v": 96
    },
    {
      "midi": 60,
      "hit": false,
      "t": 168759.765625,
      "d": 849.609375,
      "v": 83
    },
    {
      "midi": 57,
      "hit": false,
      "t": 169677.734375,
      "d": 917.96875,
      "v": 92
    },
    {
      "midi": 60,
      "hit": false,
      "t": 169682.6171875,
      "d": 893.5546875,
      "v": 83
    },
    {
      "midi": 53,
      "hit": false,
      "t": 169687.5,
      "d": 917.96875,
      "v": 99
    },
    {
      "midi": 64,
      "hit": false,
      "t": 170620.1171875,
      "d": 1840.8203125,
      "v": 100
    },
    {
      "midi": 55,
      "hit": false,
      "t": 170625,
      "d": 644.53125,
      "v": 98
    },
    {
      "midi": 60,
      "hit": false,
      "t": 170629.8828125,
      "d": 1118.1640625,
      "v": 95
    },
    {
      "midi": 52,
      "hit": false,
      "t": 171093.75,
      "d": 1367.1875,
      "v": 85
    },
    {
      "midi": 55,
      "hit": false,
      "t": 171337.890625,
      "d": 839.84375,
      "v": 95
    },
    {
      "midi": 60,
      "hit": false,
      "t": 171796.875,
      "d": 664.0625,
      "v": 98
    },
    {
      "midi": 55,
      "hit": false,
      "t": 172265.625,
      "d": 190.4296875,
      "v": 78
    },
    {
      "midi": 59,
      "hit": false,
      "t": 172490.234375,
      "d": 878.90625,
      "v": 93
    },
    {
      "midi": 62,
      "hit": false,
      "t": 172504.8828125,
      "d": 825.1953125,
      "v": 91
    },
    {
      "midi": 55,
      "hit": false,
      "t": 172504.8828125,
      "d": 864.2578125,
      "v": 91
    },
    {
      "midi": 62,
      "hit": false,
      "t": 173417.96875,
      "d": 864.2578125,
      "v": 93
    },
    {
      "midi": 55,
      "hit": false,
      "t": 173427.734375,
      "d": 917.96875,
      "v": 95
    },
    {
      "midi": 59,
      "hit": false,
      "t": 173432.6171875,
      "d": 864.2578125,
      "v": 100
    },
    {
      "midi": 64,
      "hit": false,
      "t": 174365.234375,
      "d": 644.53125,
      "v": 95
    },
    {
      "midi": 60,
      "hit": false,
      "t": 174365.234375,
      "d": 683.59375,
      "v": 91
    },
    {
      "midi": 57,
      "hit": false,
      "t": 174370.1171875,
      "d": 688.4765625,
      "v": 100
    },
    {
      "midi": 52,
      "hit": false,
      "t": 174838.8671875,
      "d": 244.140625,
      "v": 80
    },
    {
      "midi": 64,
      "hit": false,
      "t": 175073.2421875,
      "d": 502.9296875,
      "v": 89
    },
    {
      "midi": 57,
      "hit": false,
      "t": 175078.125,
      "d": 410.15625,
      "v": 93
    },
    {
      "midi": 60,
      "hit": false,
      "t": 175078.125,
      "d": 449.21875,
      "v": 91
    },
    {
      "midi": 62,
      "hit": false,
      "t": 175537.109375,
      "d": 722.65625,
      "v": 89
    },
    {
      "midi": 55,
      "hit": false,
      "t": 175541.9921875,
      "d": 688.4765625,
      "v": 80
    },
    {
      "midi": 59,
      "hit": false,
      "t": 175546.875,
      "d": 625,
      "v": 82
    },
    {
      "midi": 53,
      "hit": false,
      "t": 176235.3515625,
      "d": 1840.8203125,
      "v": 91
    },
    {
      "midi": 57,
      "hit": false,
      "t": 176240.234375,
      "d": 1816.40625,
      "v": 89
    },
    {
      "midi": 60,
      "hit": false,
      "t": 176250,
      "d": 1777.34375,
      "v": 76
    },
    {
      "midi": 55,
      "hit": false,
      "t": 178125,
      "d": 859.375,
      "v": 92
    },
    {
      "midi": 60,
      "hit": false,
      "t": 178129.8828125,
      "d": 844.7265625,
      "v": 95
    },
    {
      "midi": 64,
      "hit": false,
      "t": 178129.8828125,
      "d": 844.7265625,
      "v": 85
    },
    {
      "midi": 55,
      "hit": false,
      "t": 179052.734375,
      "d": 878.90625,
      "v": 90
    },
    {
      "midi": 60,
      "hit": false,
      "t": 179052.734375,
      "d": 878.90625,
      "v": 83
    },
    {
      "midi": 64,
      "hit": false,
      "t": 179057.6171875,
      "d": 903.3203125,
      "v": 88
    },
    {
      "midi": 55,
      "hit": false,
      "t": 179985.3515625,
      "d": 395.5078125,
      "v": 100
    },
    {
      "midi": 62,
      "hit": false,
      "t": 179985.3515625,
      "d": 903.3203125,
      "v": 100
    },
    {
      "midi": 60,
      "hit": false,
      "t": 179990.234375,
      "d": 664.0625,
      "v": 100
    },
    {
      "midi": 55,
      "hit": false,
      "t": 180444.3359375,
      "d": 1411.1328125,
      "v": 89
    },
    {
      "midi": 60,
      "hit": false,
      "t": 180703.125,
      "d": 1054.6875,
      "v": 95
    },
    {
      "midi": 62,
      "hit": false,
      "t": 181166.9921875,
      "d": 610.3515625,
      "v": 100
    },
    {
      "midi": 55,
      "hit": false,
      "t": 181875,
      "d": 1840.8203125,
      "v": 91
    },
    {
      "midi": 59,
      "hit": false,
      "t": 181889.6484375,
      "d": 1835.9375,
      "v": 105
    },
    {
      "midi": 62,
      "hit": false,
      "t": 181894.53125,
      "d": 1821.2890625,
      "v": 102
    },
    {
      "midi": 55,
      "hit": false,
      "t": 183750,
      "d": 859.375,
      "v": 91
    },
    {
      "midi": 64,
      "hit": false,
      "t": 183750,
      "d": 898.4375,
      "v": 93
    },
    {
      "midi": 60,
      "hit": false,
      "t": 183750,
      "d": 917.96875,
      "v": 100
    },
    {
      "midi": 64,
      "hit": false,
      "t": 184687.5,
      "d": 878.90625,
      "v": 89
    },
    {
      "midi": 55,
      "hit": false,
      "t": 184692.3828125,
      "d": 883.7890625,
      "v": 87
    },
    {
      "midi": 60,
      "hit": false,
      "t": 184697.265625,
      "d": 878.90625,
      "v": 85
    },
    {
      "midi": 64,
      "hit": false,
      "t": 185625,
      "d": 859.375,
      "v": 89
    },
    {
      "midi": 55,
      "hit": false,
      "t": 185629.8828125,
      "d": 878.90625,
      "v": 87
    },
    {
      "midi": 60,
      "hit": false,
      "t": 185634.765625,
      "d": 878.90625,
      "v": 87
    },
    {
      "midi": 64,
      "hit": false,
      "t": 186552.734375,
      "d": 878.90625,
      "v": 100
    },
    {
      "midi": 60,
      "hit": false,
      "t": 186562.5,
      "d": 917.96875,
      "v": 98
    },
    {
      "midi": 55,
      "hit": false,
      "t": 187021.484375,
      "d": 429.6875,
      "v": 96
    },
    {
      "midi": 62,
      "hit": false,
      "t": 187490.234375,
      "d": 917.96875,
      "v": 91
    },
    {
      "midi": 55,
      "hit": false,
      "t": 187495.1171875,
      "d": 878.90625,
      "v": 98
    },
    {
      "midi": 59,
      "hit": false,
      "t": 187495.1171875,
      "d": 903.3203125,
      "v": 100
    },
    {
      "midi": 59,
      "hit": false,
      "t": 188427.734375,
      "d": 898.4375,
      "v": 95
    },
    {
      "midi": 55,
      "hit": false,
      "t": 188432.6171875,
      "d": 903.3203125,
      "v": 85
    },
    {
      "midi": 62,
      "hit": false,
      "t": 188432.6171875,
      "d": 903.3203125,
      "v": 89
    },
    {
      "midi": 55,
      "hit": false,
      "t": 189365.234375,
      "d": 898.4375,
      "v": 85
    },
    {
      "midi": 59,
      "hit": false,
      "t": 189370.1171875,
      "d": 922.8515625,
      "v": 98
    },
    {
      "midi": 62,
      "hit": false,
      "t": 189375,
      "d": 917.96875,
      "v": 89
    },
    {
      "midi": 55,
      "hit": false,
      "t": 190302.734375,
      "d": 878.90625,
      "v": 85
    },
    {
      "midi": 59,
      "hit": false,
      "t": 190312.5,
      "d": 937.5,
      "v": 91
    },
    {
      "midi": 62,
      "hit": false,
      "t": 190312.5,
      "d": 937.5,
      "v": 89
    },
    {
      "midi": 64,
      "hit": false,
      "t": 191254.8828125,
      "d": 922.8515625,
      "v": 91
    },
    {
      "midi": 57,
      "hit": false,
      "t": 191259.765625,
      "d": 898.4375,
      "v": 93
    },
    {
      "midi": 60,
      "hit": false,
      "t": 191264.6484375,
      "d": 903.3203125,
      "v": 82
    },
    {
      "midi": 57,
      "hit": false,
      "t": 192187.5,
      "d": 878.90625,
      "v": 89
    },
    {
      "midi": 60,
      "hit": false,
      "t": 192197.265625,
      "d": 878.90625,
      "v": 85
    },
    {
      "midi": 64,
      "hit": false,
      "t": 192197.265625,
      "d": 878.90625,
      "v": 93
    },
    {
      "midi": 57,
      "hit": false,
      "t": 193115.234375,
      "d": 878.90625,
      "v": 89
    },
    {
      "midi": 64,
      "hit": false,
      "t": 193120.1171875,
      "d": 903.3203125,
      "v": 93
    },
    {
      "midi": 60,
      "hit": false,
      "t": 193125,
      "d": 898.4375,
      "v": 78
    },
    {
      "midi": 64,
      "hit": false,
      "t": 194042.96875,
      "d": 292.96875,
      "v": 80
    },
    {
      "midi": 57,
      "hit": false,
      "t": 194057.6171875,
      "d": 258.7890625,
      "v": 85
    },
    {
      "midi": 60,
      "hit": false,
      "t": 194057.6171875,
      "d": 292.96875,
      "v": 85
    },
    {
      "midi": 59,
      "hit": false,
      "t": 194287.109375,
      "d": 644.53125,
      "v": 91
    },
    {
      "midi": 62,
      "hit": false,
      "t": 194287.109375,
      "d": 703.125,
      "v": 85
    },
    {
      "midi": 55,
      "hit": false,
      "t": 194306.640625,
      "d": 644.53125,
      "v": 93
    },
    {
      "midi": 53,
      "hit": false,
      "t": 195009.765625,
      "d": 878.90625,
      "v": 89
    },
    {
      "midi": 57,
      "hit": false,
      "t": 195014.6484375,
      "d": 878.90625,
      "v": 87
    },
    {
      "midi": 60,
      "hit": false,
      "t": 195019.53125,
      "d": 878.90625,
      "v": 85
    },
    {
      "midi": 53,
      "hit": false,
      "t": 195927.734375,
      "d": 878.90625,
      "v": 80
    },
    {
      "midi": 60,
      "hit": false,
      "t": 195942.3828125,
      "d": 878.90625,
      "v": 85
    },
    {
      "midi": 57,
      "hit": false,
      "t": 195942.3828125,
      "d": 903.3203125,
      "v": 82
    },
    {
      "midi": 53,
      "hit": false,
      "t": 196865.234375,
      "d": 878.90625,
      "v": 89
    },
    {
      "midi": 60,
      "hit": false,
      "t": 196865.234375,
      "d": 878.90625,
      "v": 91
    },
    {
      "midi": 57,
      "hit": false,
      "t": 196870.1171875,
      "d": 903.3203125,
      "v": 91
    },
    {
      "midi": 53,
      "hit": false,
      "t": 197802.734375,
      "d": 937.5,
      "v": 80
    },
    {
      "midi": 57,
      "hit": false,
      "t": 197807.6171875,
      "d": 937.5,
      "v": 95
    },
    {
      "midi": 60,
      "hit": false,
      "t": 197812.5,
      "d": 468.75,
      "v": 95
    },
    {
      "midi": 62,
      "hit": false,
      "t": 198281.25,
      "d": 468.75,
      "v": 89
    },
    {
      "midi": 55,
      "hit": false,
      "t": 198740.234375,
      "d": 878.90625,
      "v": 87
    },
    {
      "midi": 64,
      "hit": false,
      "t": 198740.234375,
      "d": 878.90625,
      "v": 87
    },
    {
      "midi": 60,
      "hit": false,
      "t": 198745.1171875,
      "d": 878.90625,
      "v": 91
    },
    {
      "midi": 64,
      "hit": false,
      "t": 199682.6171875,
      "d": 820.3125,
      "v": 91
    },
    {
      "midi": 55,
      "hit": false,
      "t": 199682.6171875,
      "d": 878.90625,
      "v": 89
    },
    {
      "midi": 60,
      "hit": false,
      "t": 199687.5,
      "d": 878.90625,
      "v": 91
    },
    {
      "midi": 64,
      "hit": false,
      "t": 200615.234375,
      "d": 878.90625,
      "v": 91
    },
    {
      "midi": 60,
      "hit": false,
      "t": 200620.1171875,
      "d": 922.8515625,
      "v": 93
    },
    {
      "midi": 55,
      "hit": false,
      "t": 200620.1171875,
      "d": 1118.1640625,
      "v": 85
    },
    {
      "midi": 64,
      "hit": false,
      "t": 201557.6171875,
      "d": 937.5,
      "v": 100
    },
    {
      "midi": 60,
      "hit": false,
      "t": 201572.265625,
      "d": 898.4375,
      "v": 100
    },
    {
      "midi": 55,
      "hit": false,
      "t": 201801.7578125,
      "d": 649.4140625,
      "v": 91
    },
    {
      "midi": 62,
      "hit": false,
      "t": 202500,
      "d": 898.4375,
      "v": 87
    },
    {
      "midi": 55,
      "hit": false,
      "t": 202504.8828125,
      "d": 878.90625,
      "v": 91
    },
    {
      "midi": 59,
      "hit": false,
      "t": 202504.8828125,
      "d": 878.90625,
      "v": 91
    },
    {
      "midi": 55,
      "hit": false,
      "t": 203447.265625,
      "d": 820.3125,
      "v": 80
    },
    {
      "midi": 59,
      "hit": false,
      "t": 203457.03125,
      "d": 859.375,
      "v": 80
    },
    {
      "midi": 62,
      "hit": false,
      "t": 203457.03125,
      "d": 878.90625,
      "v": 87
    },
    {
      "midi": 55,
      "hit": false,
      "t": 204370.1171875,
      "d": 883.7890625,
      "v": 91
    },
    {
      "midi": 59,
      "hit": false,
      "t": 204370.1171875,
      "d": 1352.5390625,
      "v": 98
    },
    {
      "midi": 62,
      "hit": false,
      "t": 204375,
      "d": 1328.125,
      "v": 87
    },
    {
      "midi": 55,
      "hit": false,
      "t": 205307.6171875,
      "d": 937.5,
      "v": 100
    },
    {
      "midi": 62,
      "hit": false,
      "t": 205771.484375,
      "d": 468.75,
      "v": 82
    },
    {
      "midi": 59,
      "hit": false,
      "t": 205776.3671875,
      "d": 468.75,
      "v": 91
    },
    {
      "midi": 57,
      "hit": false,
      "t": 206250,
      "d": 800.78125,
      "v": 88
    },
    {
      "midi": 60,
      "hit": false,
      "t": 206254.8828125,
      "d": 844.7265625,
      "v": 93
    },
    {
      "midi": 64,
      "hit": false,
      "t": 206254.8828125,
      "d": 864.2578125,
      "v": 88
    },
    {
      "midi": 64,
      "hit": false,
      "t": 207177.734375,
      "d": 859.375,
      "v": 91
    },
    {
      "midi": 57,
      "hit": false,
      "t": 207182.6171875,
      "d": 844.7265625,
      "v": 93
    },
    {
      "midi": 60,
      "hit": false,
      "t": 207182.6171875,
      "d": 864.2578125,
      "v": 98
    },
    {
      "midi": 60,
      "hit": false,
      "t": 208115.234375,
      "d": 839.84375,
      "v": 93
    },
    {
      "midi": 57,
      "hit": false,
      "t": 208120.1171875,
      "d": 825.1953125,
      "v": 89
    },
    {
      "midi": 64,
      "hit": false,
      "t": 208120.1171875,
      "d": 844.7265625,
      "v": 82
    },
    {
      "midi": 57,
      "hit": false,
      "t": 209052.734375,
      "d": 859.375,
      "v": 98
    },
    {
      "midi": 60,
      "hit": false,
      "t": 209052.734375,
      "d": 859.375,
      "v": 100
    },
    {
      "midi": 64,
      "hit": false,
      "t": 209057.6171875,
      "d": 903.3203125,
      "v": 93
    },
    {
      "midi": 57,
      "hit": false,
      "t": 209990.234375,
      "d": 878.90625,
      "v": 93
    },
    {
      "midi": 60,
      "hit": false,
      "t": 209995.1171875,
      "d": 883.7890625,
      "v": 93
    },
    {
      "midi": 67,
      "hit": false,
      "t": 209995.1171875,
      "d": 883.7890625,
      "v": 87
    },
    {
      "midi": 67,
      "hit": false,
      "t": 210932.6171875,
      "d": 883.7890625,
      "v": 80
    },
    {
      "midi": 57,
      "hit": false,
      "t": 210937.5,
      "d": 878.90625,
      "v": 95
    },
    {
      "midi": 60,
      "hit": false,
      "t": 210947.265625,
      "d": 859.375,
      "v": 82
    },
    {
      "midi": 57,
      "hit": false,
      "t": 211875,
      "d": 839.84375,
      "v": 89
    },
    {
      "midi": 60,
      "hit": false,
      "t": 211879.8828125,
      "d": 883.7890625,
      "v": 91
    },
    {
      "midi": 65,
      "hit": false,
      "t": 211879.8828125,
      "d": 883.7890625,
      "v": 89
    },
    {
      "midi": 60,
      "hit": false,
      "t": 212812.5,
      "d": 859.375,
      "v": 100
    },
    {
      "midi": 57,
      "hit": false,
      "t": 212812.5,
      "d": 878.90625,
      "v": 98
    },
    {
      "midi": 65,
      "hit": false,
      "t": 212817.3828125,
      "d": 883.7890625,
      "v": 102
    },
    {
      "midi": 57,
      "hit": false,
      "t": 213750,
      "d": 839.84375,
      "v": 100
    },
    {
      "midi": 60,
      "hit": false,
      "t": 213750,
      "d": 859.375,
      "v": 95
    },
    {
      "midi": 64,
      "hit": false,
      "t": 213750,
      "d": 878.90625,
      "v": 87
    },
    {
      "midi": 57,
      "hit": false,
      "t": 214677.734375,
      "d": 859.375,
      "v": 87
    },
    {
      "midi": 60,
      "hit": false,
      "t": 214682.6171875,
      "d": 883.7890625,
      "v": 98
    },
    {
      "midi": 64,
      "hit": false,
      "t": 214687.5,
      "d": 859.375,
      "v": 80
    },
    {
      "midi": 57,
      "hit": false,
      "t": 215615.234375,
      "d": 878.90625,
      "v": 98
    },
    {
      "midi": 60,
      "hit": false,
      "t": 215625,
      "d": 859.375,
      "v": 91
    },
    {
      "midi": 64,
      "hit": false,
      "t": 215629.8828125,
      "d": 864.2578125,
      "v": 85
    },
    {
      "midi": 57,
      "hit": false,
      "t": 216562.5,
      "d": 839.84375,
      "v": 102
    },
    {
      "midi": 60,
      "hit": false,
      "t": 216562.5,
      "d": 839.84375,
      "v": 93
    },
    {
      "midi": 64,
      "hit": false,
      "t": 216562.5,
      "d": 859.375,
      "v": 98
    },
    {
      "midi": 57,
      "hit": false,
      "t": 217490.234375,
      "d": 878.90625,
      "v": 98
    },
    {
      "midi": 67,
      "hit": false,
      "t": 217490.234375,
      "d": 878.90625,
      "v": 91
    },
    {
      "midi": 60,
      "hit": false,
      "t": 217495.1171875,
      "d": 903.3203125,
      "v": 91
    },
    {
      "midi": 57,
      "hit": false,
      "t": 218432.6171875,
      "d": 820.3125,
      "v": 102
    },
    {
      "midi": 67,
      "hit": false,
      "t": 218432.6171875,
      "d": 903.3203125,
      "v": 91
    },
    {
      "midi": 60,
      "hit": false,
      "t": 218437.5,
      "d": 839.84375,
      "v": 93
    },
    {
      "midi": 57,
      "hit": false,
      "t": 219365.234375,
      "d": 859.375,
      "v": 89
    },
    {
      "midi": 60,
      "hit": false,
      "t": 219365.234375,
      "d": 898.4375,
      "v": 95
    },
    {
      "midi": 65,
      "hit": false,
      "t": 219370.1171875,
      "d": 903.3203125,
      "v": 91
    },
    {
      "midi": 57,
      "hit": false,
      "t": 220302.734375,
      "d": 859.375,
      "v": 85
    },
    {
      "midi": 65,
      "hit": false,
      "t": 220312.5,
      "d": 898.4375,
      "v": 87
    },
    {
      "midi": 60,
      "hit": false,
      "t": 220317.3828125,
      "d": 864.2578125,
      "v": 87
    },
    {
      "midi": 62,
      "hit": false,
      "t": 221240.234375,
      "d": 878.90625,
      "v": 99
    },
    {
      "midi": 65,
      "hit": false,
      "t": 221245.1171875,
      "d": 864.2578125,
      "v": 90
    },
    {
      "midi": 57,
      "hit": false,
      "t": 221245.1171875,
      "d": 903.3203125,
      "v": 93
    },
    {
      "midi": 57,
      "hit": false,
      "t": 222167.96875,
      "d": 878.90625,
      "v": 95
    },
    {
      "midi": 65,
      "hit": false,
      "t": 222172.8515625,
      "d": 883.7890625,
      "v": 93
    },
    {
      "midi": 62,
      "hit": false,
      "t": 222177.734375,
      "d": 878.90625,
      "v": 99
    },
    {
      "midi": 65,
      "hit": false,
      "t": 223110.3515625,
      "d": 864.2578125,
      "v": 95
    },
    {
      "midi": 57,
      "hit": false,
      "t": 223115.234375,
      "d": 859.375,
      "v": 97
    },
    {
      "midi": 62,
      "hit": false,
      "t": 223120.1171875,
      "d": 864.2578125,
      "v": 97
    },
    {
      "midi": 65,
      "hit": false,
      "t": 224052.734375,
      "d": 175.78125,
      "v": 93
    },
    {
      "midi": 62,
      "hit": false,
      "t": 224057.6171875,
      "d": 175.78125,
      "v": 101
    },
    {
      "midi": 57,
      "hit": false,
      "t": 224067.3828125,
      "d": 219.7265625,
      "v": 101
    },
    {
      "midi": 60,
      "hit": false,
      "t": 224282.2265625,
      "d": 668.9453125,
      "v": 95
    },
    {
      "midi": 64,
      "hit": false,
      "t": 224282.2265625,
      "d": 668.9453125,
      "v": 90
    },
    {
      "midi": 55,
      "hit": false,
      "t": 224287.109375,
      "d": 644.53125,
      "v": 93
    },
    {
      "midi": 57,
      "hit": false,
      "t": 224995.1171875,
      "d": 883.7890625,
      "v": 93
    },
    {
      "midi": 67,
      "hit": false,
      "t": 225000,
      "d": 878.90625,
      "v": 90
    },
    {
      "midi": 60,
      "hit": false,
      "t": 225004.8828125,
      "d": 903.3203125,
      "v": 99
    },
    {
      "midi": 67,
      "hit": false,
      "t": 225927.734375,
      "d": 898.4375,
      "v": 93
    },
    {
      "midi": 57,
      "hit": false,
      "t": 225932.6171875,
      "d": 883.7890625,
      "v": 93
    },
    {
      "midi": 60,
      "hit": false,
      "t": 225937.5,
      "d": 878.90625,
      "v": 93
    },
    {
      "midi": 57,
      "hit": false,
      "t": 226865.234375,
      "d": 898.4375,
      "v": 97
    },
    {
      "midi": 67,
      "hit": false,
      "t": 226870.1171875,
      "d": 883.7890625,
      "v": 101
    },
    {
      "midi": 60,
      "hit": false,
      "t": 226879.8828125,
      "d": 883.7890625,
      "v": 86
    },
    {
      "midi": 57,
      "hit": false,
      "t": 228750,
      "d": 859.375,
      "v": 91
    },
    {
      "midi": 64,
      "hit": false,
      "t": 228750,
      "d": 898.4375,
      "v": 93
    },
    {
      "midi": 61,
      "hit": false,
      "t": 228750,
      "d": 917.96875,
      "v": 100
    },
    {
      "midi": 64,
      "hit": false,
      "t": 229687.5,
      "d": 878.90625,
      "v": 89
    },
    {
      "midi": 57,
      "hit": false,
      "t": 229692.3828125,
      "d": 883.7890625,
      "v": 87
    },
    {
      "midi": 61,
      "hit": false,
      "t": 229697.265625,
      "d": 878.90625,
      "v": 85
    },
    {
      "midi": 64,
      "hit": false,
      "t": 230625,
      "d": 859.375,
      "v": 89
    },
    {
      "midi": 57,
      "hit": false,
      "t": 230629.8828125,
      "d": 878.90625,
      "v": 87
    },
    {
      "midi": 61,
      "hit": false,
      "t": 230634.765625,
      "d": 878.90625,
      "v": 87
    },
    {
      "midi": 64,
      "hit": false,
      "t": 231552.734375,
      "d": 878.90625,
      "v": 100
    },
    {
      "midi": 61,
      "hit": false,
      "t": 231562.5,
      "d": 917.96875,
      "v": 98
    },
    {
      "midi": 57,
      "hit": false,
      "t": 232021.484375,
      "d": 429.6875,
      "v": 96
    },
    {
      "midi": 64,
      "hit": false,
      "t": 232490.234375,
      "d": 917.96875,
      "v": 91
    },
    {
      "midi": 56,
      "hit": false,
      "t": 232495.1171875,
      "d": 878.90625,
      "v": 98
    },
    {
      "midi": 59,
      "hit": false,
      "t": 232495.1171875,
      "d": 903.3203125,
      "v": 100
    },
    {
      "midi": 59,
      "hit": false,
      "t": 233427.734375,
      "d": 898.4375,
      "v": 95
    },
    {
      "midi": 56,
      "hit": false,
      "t": 233432.6171875,
      "d": 903.3203125,
      "v": 85
    },
    {
      "midi": 64,
      "hit": false,
      "t": 233432.6171875,
      "d": 903.3203125,
      "v": 89
    },
    {
      "midi": 56,
      "hit": false,
      "t": 234365.234375,
      "d": 898.4375,
      "v": 85
    },
    {
      "midi": 59,
      "hit": false,
      "t": 234370.1171875,
      "d": 922.8515625,
      "v": 98
    },
    {
      "midi": 64,
      "hit": false,
      "t": 234375,
      "d": 917.96875,
      "v": 89
    },
    {
      "midi": 56,
      "hit": false,
      "t": 235302.734375,
      "d": 878.90625,
      "v": 85
    },
    {
      "midi": 59,
      "hit": false,
      "t": 235312.5,
      "d": 937.5,
      "v": 91
    },
    {
      "midi": 64,
      "hit": false,
      "t": 235312.5,
      "d": 937.5,
      "v": 89
    },
    {
      "midi": 66,
      "hit": false,
      "t": 236254.8828125,
      "d": 922.8515625,
      "v": 91
    },
    {
      "midi": 57,
      "hit": false,
      "t": 236259.765625,
      "d": 898.4375,
      "v": 93
    },
    {
      "midi": 61,
      "hit": false,
      "t": 236264.6484375,
      "d": 903.3203125,
      "v": 82
    },
    {
      "midi": 57,
      "hit": false,
      "t": 237187.5,
      "d": 878.90625,
      "v": 89
    },
    {
      "midi": 61,
      "hit": false,
      "t": 237197.265625,
      "d": 878.90625,
      "v": 85
    },
    {
      "midi": 66,
      "hit": false,
      "t": 237197.265625,
      "d": 878.90625,
      "v": 93
    },
    {
      "midi": 57,
      "hit": false,
      "t": 238115.234375,
      "d": 878.90625,
      "v": 89
    },
    {
      "midi": 66,
      "hit": false,
      "t": 238120.1171875,
      "d": 903.3203125,
      "v": 93
    },
    {
      "midi": 61,
      "hit": false,
      "t": 238125,
      "d": 898.4375,
      "v": 78
    },
    {
      "midi": 59,
      "hit": false,
      "t": 239042.96875,
      "d": 937.5,
      "v": 92
    },
    {
      "midi": 64,
      "hit": false,
      "t": 239042.96875,
      "d": 937.5,
      "v": 85
    },
    {
      "midi": 56,
      "hit": false,
      "t": 239062.5,
      "d": 917.96875,
      "v": 93
    },
    {
      "midi": 54,
      "hit": false,
      "t": 240009.765625,
      "d": 878.90625,
      "v": 89
    },
    {
      "midi": 57,
      "hit": false,
      "t": 240014.6484375,
      "d": 878.90625,
      "v": 87
    },
    {
      "midi": 62,
      "hit": false,
      "t": 240019.53125,
      "d": 878.90625,
      "v": 85
    },
    {
      "midi": 54,
      "hit": false,
      "t": 240927.734375,
      "d": 878.90625,
      "v": 80
    },
    {
      "midi": 62,
      "hit": false,
      "t": 240942.3828125,
      "d": 878.90625,
      "v": 85
    },
    {
      "midi": 57,
      "hit": false,
      "t": 240942.3828125,
      "d": 903.3203125,
      "v": 82
    },
    {
      "midi": 54,
      "hit": false,
      "t": 241865.234375,
      "d": 878.90625,
      "v": 89
    },
    {
      "midi": 64,
      "hit": false,
      "t": 241870.1171875,
      "d": 244.140625,
      "v": 100
    },
    {
      "midi": 57,
      "hit": false,
      "t": 241870.1171875,
      "d": 903.3203125,
      "v": 91
    },
    {
      "midi": 66,
      "hit": false,
      "t": 242104.4921875,
      "d": 258.7890625,
      "v": 102
    },
    {
      "midi": 64,
      "hit": false,
      "t": 242358.3984375,
      "d": 1333.0078125,
      "v": 100
    },
    {
      "midi": 56,
      "hit": false,
      "t": 242802.734375,
      "d": 937.5,
      "v": 80
    },
    {
      "midi": 59,
      "hit": false,
      "t": 242807.6171875,
      "d": 937.5,
      "v": 95
    },
    {
      "midi": 57,
      "hit": false,
      "t": 243740.234375,
      "d": 878.90625,
      "v": 87
    },
    {
      "midi": 64,
      "hit": false,
      "t": 243740.234375,
      "d": 878.90625,
      "v": 87
    },
    {
      "midi": 61,
      "hit": false,
      "t": 243745.1171875,
      "d": 878.90625,
      "v": 91
    },
    {
      "midi": 64,
      "hit": false,
      "t": 244682.6171875,
      "d": 820.3125,
      "v": 91
    },
    {
      "midi": 57,
      "hit": false,
      "t": 244682.6171875,
      "d": 878.90625,
      "v": 89
    },
    {
      "midi": 61,
      "hit": false,
      "t": 244687.5,
      "d": 878.90625,
      "v": 91
    },
    {
      "midi": 64,
      "hit": false,
      "t": 245615.234375,
      "d": 878.90625,
      "v": 91
    },
    {
      "midi": 61,
      "hit": false,
      "t": 245620.1171875,
      "d": 922.8515625,
      "v": 93
    },
    {
      "midi": 57,
      "hit": false,
      "t": 245620.1171875,
      "d": 1118.1640625,
      "v": 85
    },
    {
      "midi": 64,
      "hit": false,
      "t": 246557.6171875,
      "d": 937.5,
      "v": 100
    },
    {
      "midi": 61,
      "hit": false,
      "t": 246572.265625,
      "d": 898.4375,
      "v": 100
    },
    {
      "midi": 57,
      "hit": false,
      "t": 246801.7578125,
      "d": 649.4140625,
      "v": 91
    },
    {
      "midi": 64,
      "hit": false,
      "t": 247500,
      "d": 898.4375,
      "v": 87
    },
    {
      "midi": 56,
      "hit": false,
      "t": 247504.8828125,
      "d": 878.90625,
      "v": 91
    },
    {
      "midi": 59,
      "hit": false,
      "t": 247504.8828125,
      "d": 878.90625,
      "v": 91
    },
    {
      "midi": 56,
      "hit": false,
      "t": 248447.265625,
      "d": 820.3125,
      "v": 80
    },
    {
      "midi": 59,
      "hit": false,
      "t": 248457.03125,
      "d": 859.375,
      "v": 80
    },
    {
      "midi": 64,
      "hit": false,
      "t": 248457.03125,
      "d": 878.90625,
      "v": 87
    },
    {
      "midi": 56,
      "hit": false,
      "t": 249370.1171875,
      "d": 649.4140625,
      "v": 91
    },
    {
      "midi": 59,
      "hit": false,
      "t": 249370.1171875,
      "d": 903.3203125,
      "v": 98
    },
    {
      "midi": 64,
      "hit": false,
      "t": 249375,
      "d": 898.4375,
      "v": 87
    },
    {
      "midi": 56,
      "hit": false,
      "t": 250058.59375,
      "d": 1171.875,
      "v": 96
    },
    {
      "midi": 65,
      "hit": false,
      "t": 250307.6171875,
      "d": 922.8515625,
      "v": 82
    },
    {
      "midi": 61,
      "hit": false,
      "t": 250312.5,
      "d": 898.4375,
      "v": 91
    },
    {
      "midi": 57,
      "hit": false,
      "t": 251250,
      "d": 800.78125,
      "v": 88
    },
    {
      "midi": 61,
      "hit": false,
      "t": 251254.8828125,
      "d": 844.7265625,
      "v": 93
    },
    {
      "midi": 66,
      "hit": false,
      "t": 251254.8828125,
      "d": 864.2578125,
      "v": 88
    },
    {
      "midi": 66,
      "hit": false,
      "t": 252177.734375,
      "d": 859.375,
      "v": 91
    },
    {
      "midi": 57,
      "hit": false,
      "t": 252182.6171875,
      "d": 844.7265625,
      "v": 93
    },
    {
      "midi": 61,
      "hit": false,
      "t": 252182.6171875,
      "d": 864.2578125,
      "v": 98
    },
    {
      "midi": 61,
      "hit": false,
      "t": 253115.234375,
      "d": 839.84375,
      "v": 93
    },
    {
      "midi": 57,
      "hit": false,
      "t": 253120.1171875,
      "d": 825.1953125,
      "v": 89
    },
    {
      "midi": 66,
      "hit": false,
      "t": 253120.1171875,
      "d": 844.7265625,
      "v": 82
    },
    {
      "midi": 56,
      "hit": false,
      "t": 254052.734375,
      "d": 859.375,
      "v": 98
    },
    {
      "midi": 59,
      "hit": false,
      "t": 254052.734375,
      "d": 859.375,
      "v": 100
    },
    {
      "midi": 64,
      "hit": false,
      "t": 254057.6171875,
      "d": 903.3203125,
      "v": 93
    },
    {
      "midi": 54,
      "hit": false,
      "t": 254990.234375,
      "d": 878.90625,
      "v": 93
    },
    {
      "midi": 57,
      "hit": false,
      "t": 254995.1171875,
      "d": 883.7890625,
      "v": 93
    },
    {
      "midi": 62,
      "hit": false,
      "t": 254995.1171875,
      "d": 883.7890625,
      "v": 87
    },
    {
      "midi": 62,
      "hit": false,
      "t": 255932.6171875,
      "d": 883.7890625,
      "v": 80
    },
    {
      "midi": 54,
      "hit": false,
      "t": 255937.5,
      "d": 878.90625,
      "v": 95
    },
    {
      "midi": 57,
      "hit": false,
      "t": 255947.265625,
      "d": 859.375,
      "v": 82
    },
    {
      "midi": 56,
      "hit": false,
      "t": 256875,
      "d": 839.84375,
      "v": 89
    },
    {
      "midi": 59,
      "hit": false,
      "t": 256879.8828125,
      "d": 883.7890625,
      "v": 92
    },
    {
      "midi": 64,
      "hit": false,
      "t": 256879.8828125,
      "d": 883.7890625,
      "v": 89
    },
    {
      "midi": 59,
      "hit": false,
      "t": 257812.5,
      "d": 859.375,
      "v": 100
    },
    {
      "midi": 56,
      "hit": false,
      "t": 257812.5,
      "d": 878.90625,
      "v": 98
    },
    {
      "midi": 65,
      "hit": false,
      "t": 257817.3828125,
      "d": 883.7890625,
      "v": 102
    },
    {
      "midi": 57,
      "hit": false,
      "t": 258750,
      "d": 839.84375,
      "v": 100
    },
    {
      "midi": 61,
      "hit": false,
      "t": 258750,
      "d": 859.375,
      "v": 95
    },
    {
      "midi": 66,
      "hit": false,
      "t": 258750,
      "d": 878.90625,
      "v": 87
    },
    {
      "midi": 57,
      "hit": false,
      "t": 259677.734375,
      "d": 859.375,
      "v": 87
    },
    {
      "midi": 61,
      "hit": false,
      "t": 259682.6171875,
      "d": 883.7890625,
      "v": 98
    },
    {
      "midi": 66,
      "hit": false,
      "t": 259687.5,
      "d": 859.375,
      "v": 80
    },
    {
      "midi": 57,
      "hit": false,
      "t": 260615.234375,
      "d": 1132.8125,
      "v": 98
    },
    {
      "midi": 61,
      "hit": false,
      "t": 260625,
      "d": 1113.28125,
      "v": 91
    },
    {
      "midi": 66,
      "hit": false,
      "t": 260629.8828125,
      "d": 1137.6953125,
      "v": 85
    },
    {
      "midi": 56,
      "hit": false,
      "t": 261777.34375,
      "d": 664.0625,
      "v": 102
    },
    {
      "midi": 59,
      "hit": false,
      "t": 261777.34375,
      "d": 683.59375,
      "v": 93
    },
    {
      "midi": 64,
      "hit": false,
      "t": 261777.34375,
      "d": 683.59375,
      "v": 98
    },
    {
      "midi": 54,
      "hit": false,
      "t": 262490.234375,
      "d": 1816.40625,
      "v": 98
    },
    {
      "midi": 62,
      "hit": false,
      "t": 262490.234375,
      "d": 1816.40625,
      "v": 91
    },
    {
      "midi": 57,
      "hit": false,
      "t": 262495.1171875,
      "d": 1821.2890625,
      "v": 91
    },
    {
      "midi": 54,
      "hit": false,
      "t": 264365.234375,
      "d": 859.375,
      "v": 89
    },
    {
      "midi": 57,
      "hit": false,
      "t": 264365.234375,
      "d": 898.4375,
      "v": 95
    },
    {
      "midi": 62,
      "hit": false,
      "t": 264370.1171875,
      "d": 903.3203125,
      "v": 91
    },
    {
      "midi": 56,
      "hit": false,
      "t": 265302.734375,
      "d": 859.375,
      "v": 85
    },
    {
      "midi": 64,
      "hit": false,
      "t": 265312.5,
      "d": 898.4375,
      "v": 88
    },
    {
      "midi": 59,
      "hit": false,
      "t": 265317.3828125,
      "d": 864.2578125,
      "v": 87
    },
    {
      "midi": 61,
      "hit": false,
      "t": 266240.234375,
      "d": 2753.90625,
      "v": 99
    },
    {
      "midi": 57,
      "hit": false,
      "t": 266245.1171875,
      "d": 2758.7890625,
      "v": 93
    },
    {
      "midi": 64,
      "hit": false,
      "t": 266245.1171875,
      "d": 2758.7890625,
      "v": 90
    },
    {
      "midi": 64,
      "hit": false,
      "t": 269042.96875,
      "d": 864.2578125,
      "v": 95
    },
    {
      "midi": 57,
      "hit": false,
      "t": 269047.8515625,
      "d": 859.375,
      "v": 97
    },
    {
      "midi": 61,
      "hit": false,
      "t": 269052.734375,
      "d": 864.2578125,
      "v": 98
    },
    {
      "midi": 57,
      "hit": false,
      "t": 269995.1171875,
      "d": 3715.8203125,
      "v": 93
    },
    {
      "midi": 64,
      "hit": false,
      "t": 270000,
      "d": 3710.9375,
      "v": 90
    },
    {
      "midi": 59,
      "hit": false,
      "t": 270004.8828125,
      "d": 3715.8203125,
      "v": 99
    },
    {
      "midi": 57,
      "hit": false,
      "t": 274223.6328125,
      "d": 3247.0703125,
      "v": 80
    },
    {
      "midi": 59,
      "hit": false,
      "t": 274462.890625,
      "d": 3007.8125,
      "v": 74
    },
    {
      "midi": 61,
      "hit": false,
      "t": 274702.1484375,
      "d": 2797.8515625,
      "v": 61
    },
    {
      "midi": 64,
      "hit": false,
      "t": 274936.5234375,
      "d": 2524.4140625,
      "v": 72
    },
    {
      "midi": 71,
      "hit": false,
      "t": 275156.25,
      "d": 390.625,
      "v": 70
    },
    {
      "midi": 76,
      "hit": false,
      "t": 275390.625,
      "d": 2031.25,
      "v": 66
    },
    {
      "midi": 71,
      "hit": false,
      "t": 275605.46875,
      "d": 1855.46875,
      "v": 56
    },
    {
      "midi": 73,
      "hit": false,
      "t": 275625,
      "d": 1816.40625,
      "v": 50
    }
  ]
}