{
  "jsonPath": "Soul/R&B/Beyoncé/sweet-dreams.json",
  "path": "Soul\\R&B\\Beyoncé\\Sweet Dreams.mid",
  "name": "Sweet Dreams",
  "difficulty": "Advanced",
  "bpm": 122.0000691333725,
  "notes": [
    {
      "midi": 78,
      "hit": false,
      "t": 50163.906,
      "d": 59.426195833329984,
      "v": 109
    },
    {
      "midi": 75,
      "hit": false,
      "t": 50163.906,
      "d": 89.13929374999861,
      "v": 119
    },
    {
      "midi": 82,
      "hit": false,
      "t": 50163.906,
      "d": 97.33601041666407,
      "v": 114
    },
    {
      "midi": 75,
      "hit": false,
      "t": 50286.85675,
      "d": 96.31142083333543,
      "v": 73
    },
    {
      "midi": 78,
      "hit": false,
      "t": 50286.85675,
      "d": 96.31142083333543,
      "v": 97
    },
    {
      "midi": 78,
      "hit": false,
      "t": 50409.8075,
      "d": 25.614739583332266,
      "v": 51
    },
    {
      "midi": 82,
      "hit": false,
      "t": 50409.8075,
      "d": 48.15571041666408,
      "v": 79
    },
    {
      "midi": 75,
      "hit": false,
      "t": 50409.8075,
      "d": 50.20488958332862,
      "v": 67
    },
    {
      "midi": 75,
      "hit": false,
      "t": 50901.610499999995,
      "d": 71.7212708333318,
      "v": 119
    },
    {
      "midi": 78,
      "hit": false,
      "t": 50901.610499999995,
      "d": 86.06552499999816,
      "v": 114
    },
    {
      "midi": 82,
      "hit": false,
      "t": 50901.610499999995,
      "d": 144.4671312499995,
      "v": 124
    },
    {
      "midi": 75,
      "hit": false,
      "t": 51024.56124999999,
      "d": 77.86880833333998,
      "v": 97
    },
    {
      "midi": 78,
      "hit": false,
      "t": 51024.56124999999,
      "d": 81.96716666667635,
      "v": 105
    },
    {
      "midi": 75,
      "hit": false,
      "t": 51147.512,
      "d": 44.05735208333499,
      "v": 76
    },
    {
      "midi": 78,
      "hit": false,
      "t": 51147.512,
      "d": 49.18029999999999,
      "v": 86
    },
    {
      "midi": 82,
      "hit": false,
      "t": 51147.512,
      "d": 74.79503958333225,
      "v": 89
    },
    {
      "midi": 75,
      "hit": false,
      "t": 51270.46275,
      "d": 68.64750208333135,
      "v": 101
    },
    {
      "midi": 78,
      "hit": false,
      "t": 51270.46275,
      "d": 68.64750208333135,
      "v": 119
    },
    {
      "midi": 78,
      "hit": false,
      "t": 51393.413499999995,
      "d": 57.37701666666544,
      "v": 105
    },
    {
      "midi": 75,
      "hit": false,
      "t": 51393.413499999995,
      "d": 59.426195833329984,
      "v": 105
    },
    {
      "midi": 82,
      "hit": false,
      "t": 51393.413499999995,
      "d": 61.47537499999453,
      "v": 94
    },
    {
      "midi": 73,
      "hit": false,
      "t": 52377.01949999999,
      "d": 42.00817291666317,
      "v": 86
    },
    {
      "midi": 77,
      "hit": false,
      "t": 52377.01949999999,
      "d": 44.057352083327714,
      "v": 94
    },
    {
      "midi": 80,
      "hit": false,
      "t": 52377.01949999999,
      "d": 56.35242708332953,
      "v": 105
    },
    {
      "midi": 80,
      "hit": false,
      "t": 52622.92099999998,
      "d": 174.18022916666814,
      "v": 119
    },
    {
      "midi": 77,
      "hit": false,
      "t": 52622.92099999998,
      "d": 180.32776666666905,
      "v": 119
    },
    {
      "midi": 73,
      "hit": false,
      "t": 52622.92099999998,
      "d": 188.5244833333345,
      "v": 119
    },
    {
      "midi": 77,
      "hit": false,
      "t": 52868.82249999998,
      "d": 55.327837500000896,
      "v": 97
    },
    {
      "midi": 80,
      "hit": false,
      "t": 52868.82249999998,
      "d": 62.499964583337714,
      "v": 105
    },
    {
      "midi": 73,
      "hit": false,
      "t": 52868.82249999998,
      "d": 63.524554166673624,
      "v": 101
    },
    {
      "midi": 77,
      "hit": false,
      "t": 53114.72399999999,
      "d": 59.426195833329984,
      "v": 109
    },
    {
      "midi": 73,
      "hit": false,
      "t": 53114.72399999999,
      "d": 89.13929374999861,
      "v": 119
    },
    {
      "midi": 80,
      "hit": false,
      "t": 53114.72399999999,
      "d": 97.33601041666407,
      "v": 114
    },
    {
      "midi": 73,
      "hit": false,
      "t": 53237.674749999984,
      "d": 96.31142083333543,
      "v": 73
    },
    {
      "midi": 77,
      "hit": false,
      "t": 53237.674749999984,
      "d": 96.31142083333543,
      "v": 97
    },
    {
      "midi": 77,
      "hit": false,
      "t": 53360.62549999999,
      "d": 25.614739583332266,
      "v": 51
    },
    {
      "midi": 80,
      "hit": false,
      "t": 53360.62549999999,
      "d": 48.15571041666408,
      "v": 79
    },
    {
      "midi": 73,
      "hit": false,
      "t": 53360.62549999999,
      "d": 50.20488958332862,
      "v": 67
    },
    {
      "midi": 73,
      "hit": false,
      "t": 53852.42849999998,
      "d": 71.7212708333318,
      "v": 119
    },
    {
      "midi": 77,
      "hit": false,
      "t": 53852.42849999998,
      "d": 86.06552499999816,
      "v": 114
    },
    {
      "midi": 80,
      "hit": false,
      "t": 53852.42849999998,
      "d": 144.4671312499995,
      "v": 124
    },
    {
      "midi": 73,
      "hit": false,
      "t": 53975.379249999976,
      "d": 77.86880833333998,
      "v": 97
    },
    {
      "midi": 77,
      "hit": false,
      "t": 53975.379249999976,
      "d": 81.96716666667635,
      "v": 105
    },
    {
      "midi": 73,
      "hit": false,
      "t": 54098.32999999999,
      "d": 44.05735208333499,
      "v": 76
    },
    {
      "midi": 77,
      "hit": false,
      "t": 54098.32999999999,
      "d": 49.18029999999999,
      "v": 86
    },
    {
      "midi": 80,
      "hit": false,
      "t": 54098.32999999999,
      "d": 74.79503958333225,
      "v": 89
    },
    {
      "midi": 73,
      "hit": false,
      "t": 54221.28074999998,
      "d": 68.64750208333135,
      "v": 101
    },
    {
      "midi": 77,
      "hit": false,
      "t": 54221.28074999998,
      "d": 68.64750208333135,
      "v": 119
    },
    {
      "midi": 77,
      "hit": false,
      "t": 54344.23149999998,
      "d": 57.37701666666544,
      "v": 105
    },
    {
      "midi": 73,
      "hit": false,
      "t": 54344.23149999998,
      "d": 59.426195833329984,
      "v": 105
    },
    {
      "midi": 80,
      "hit": false,
      "t": 54344.23149999998,
      "d": 61.47537499999453,
      "v": 94
    },
    {
      "midi": 73,
      "hit": false,
      "t": 54836.03449999997,
      "d": 68.64750208333135,
      "v": 101
    },
    {
      "midi": 77,
      "hit": false,
      "t": 54836.03449999997,
      "d": 68.64750208333135,
      "v": 119
    },
    {
      "midi": 77,
      "hit": false,
      "t": 54958.98524999997,
      "d": 57.37701666666544,
      "v": 105
    },
    {
      "midi": 73,
      "hit": false,
      "t": 54958.98524999997,
      "d": 59.426195833329984,
      "v": 105
    },
    {
      "midi": 80,
      "hit": false,
      "t": 54958.98524999997,
      "d": 61.47537499999453,
      "v": 94
    },
    {
      "midi": 75,
      "hit": false,
      "t": 55081.935999999965,
      "d": 59.426195833329984,
      "v": 109
    },
    {
      "midi": 71,
      "hit": false,
      "t": 55081.935999999965,
      "d": 89.13929374999861,
      "v": 119
    },
    {
      "midi": 78,
      "hit": false,
      "t": 55081.935999999965,
      "d": 97.33601041666407,
      "v": 114
    },
    {
      "midi": 71,
      "hit": false,
      "t": 55204.88674999996,
      "d": 96.31142083333543,
      "v": 73
    },
    {
      "midi": 75,
      "hit": false,
      "t": 55204.88674999996,
      "d": 96.31142083333543,
      "v": 97
    },
    {
      "midi": 75,
      "hit": false,
      "t": 55327.837499999965,
      "d": 25.614739583332266,
      "v": 51
    },
    {
      "midi": 78,
      "hit": false,
      "t": 55327.837499999965,
      "d": 48.15571041666408,
      "v": 79
    },
    {
      "midi": 71,
      "hit": false,
      "t": 55327.837499999965,
      "d": 50.20488958332862,
      "v": 67
    },
    {
      "midi": 63,
      "hit": false,
      "t": 56065.54199999996,
      "d": 71.7212708333318,
      "v": 119
    },
    {
      "midi": 66,
      "hit": false,
      "t": 56065.54199999996,
      "d": 86.06552499999816,
      "v": 114
    },
    {
      "midi": 71,
      "hit": false,
      "t": 56065.54199999996,
      "d": 144.4671312499995,
      "v": 124
    },
    {
      "midi": 63,
      "hit": false,
      "t": 56188.492749999954,
      "d": 77.86880833333998,
      "v": 97
    },
    {
      "midi": 66,
      "hit": false,
      "t": 56188.492749999954,
      "d": 81.96716666667635,
      "v": 105
    },
    {
      "midi": 63,
      "hit": false,
      "t": 56311.443499999965,
      "d": 44.05735208333499,
      "v": 76
    },
    {
      "midi": 66,
      "hit": false,
      "t": 56311.443499999965,
      "d": 49.18029999999999,
      "v": 86
    },
    {
      "midi": 71,
      "hit": false,
      "t": 56311.443499999965,
      "d": 74.79503958333225,
      "v": 89
    },
    {
      "midi": 63,
      "hit": false,
      "t": 56434.39424999996,
      "d": 68.64750208333135,
      "v": 101
    },
    {
      "midi": 66,
      "hit": false,
      "t": 56434.39424999996,
      "d": 68.64750208333135,
      "v": 119
    },
    {
      "midi": 63,
      "hit": false,
      "t": 56557.34499999996,
      "d": 71.7212708333318,
      "v": 119
    },
    {
      "midi": 66,
      "hit": false,
      "t": 56557.34499999996,
      "d": 86.06552499999816,
      "v": 114
    },
    {
      "midi": 71,
      "hit": false,
      "t": 56557.34499999996,
      "d": 144.4671312499995,
      "v": 124
    },
    {
      "midi": 63,
      "hit": false,
      "t": 56680.295749999954,
      "d": 77.86880833333998,
      "v": 97
    },
    {
      "midi": 66,
      "hit": false,
      "t": 56680.295749999954,
      "d": 81.96716666667635,
      "v": 105
    },
    {
      "midi": 63,
      "hit": false,
      "t": 56803.246499999965,
      "d": 44.05735208333499,
      "v": 76
    },
    {
      "midi": 66,
      "hit": false,
      "t": 56803.246499999965,
      "d": 49.18029999999999,
      "v": 86
    },
    {
      "midi": 71,
      "hit": false,
      "t": 56803.246499999965,
      "d": 74.79503958333225,
      "v": 89
    },
    {
      "midi": 63,
      "hit": false,
      "t": 56926.19724999996,
      "d": 68.64750208333135,
      "v": 101
    },
    {
      "midi": 66,
      "hit": false,
      "t": 56926.19724999996,
      "d": 68.64750208333135,
      "v": 119
    },
    {
      "midi": 78,
      "hit": false,
      "t": 58032.75399999996,
      "d": 59.426195833329984,
      "v": 109
    },
    {
      "midi": 75,
      "hit": false,
      "t": 58032.75399999996,
      "d": 89.13929374999861,
      "v": 119
    },
    {
      "midi": 82,
      "hit": false,
      "t": 58032.75399999996,
      "d": 97.33601041666407,
      "v": 114
    },
    {
      "midi": 75,
      "hit": false,
      "t": 58155.70474999995,
      "d": 96.31142083333543,
      "v": 73
    },
    {
      "midi": 78,
      "hit": false,
      "t": 58155.70474999995,
      "d": 96.31142083333543,
      "v": 97
    },
    {
      "midi": 78,
      "hit": false,
      "t": 58278.65549999996,
      "d": 25.614739583332266,
      "v": 51
    },
    {
      "midi": 82,
      "hit": false,
      "t": 58278.65549999996,
      "d": 48.15571041666408,
      "v": 79
    },
    {
      "midi": 75,
      "hit": false,
      "t": 58278.65549999996,
      "d": 50.20488958332862,
      "v": 67
    },
    {
      "midi": 75,
      "hit": false,
      "t": 58770.45849999995,
      "d": 71.7212708333318,
      "v": 119
    },
    {
      "midi": 78,
      "hit": false,
      "t": 58770.45849999995,
      "d": 86.06552499999816,
      "v": 114
    },
    {
      "midi": 82,
      "hit": false,
      "t": 58770.45849999995,
      "d": 144.4671312499995,
      "v": 124
    },
    {
      "midi": 75,
      "hit": false,
      "t": 58893.409249999946,
      "d": 77.86880833333998,
      "v": 97
    },
    {
      "midi": 78,
      "hit": false,
      "t": 58893.409249999946,
      "d": 81.96716666667635,
      "v": 105
    },
    {
      "midi": 75,
      "hit": false,
      "t": 59016.35999999996,
      "d": 44.05735208333499,
      "v": 76
    },
    {
      "midi": 78,
      "hit": false,
      "t": 59016.35999999996,
      "d": 49.18029999999999,
      "v": 86
    },
    {
      "midi": 82,
      "hit": false,
      "t": 59016.35999999996,
      "d": 74.79503958333225,
      "v": 89
    },
    {
      "midi": 75,
      "hit": false,
      "t": 59139.31074999995,
      "d": 68.64750208333135,
      "v": 101
    },
    {
      "midi": 78,
      "hit": false,
      "t": 59139.31074999995,
      "d": 68.64750208333135,
      "v": 119
    },
    {
      "midi": 78,
      "hit": false,
      "t": 59262.26149999995,
      "d": 57.37701666666544,
      "v": 105
    },
    {
      "midi": 75,
      "hit": false,
      "t": 59262.26149999995,
      "d": 59.426195833329984,
      "v": 105
    },
    {
      "midi": 82,
      "hit": false,
      "t": 59262.26149999995,
      "d": 61.47537499999453,
      "v": 94
    },
    {
      "midi": 73,
      "hit": false,
      "t": 60245.86749999994,
      "d": 42.00817291666317,
      "v": 86
    },
    {
      "midi": 77,
      "hit": false,
      "t": 60245.86749999994,
      "d": 44.057352083327714,
      "v": 94
    },
    {
      "midi": 80,
      "hit": false,
      "t": 60245.86749999994,
      "d": 56.35242708332953,
      "v": 105
    },
    {
      "midi": 80,
      "hit": false,
      "t": 60491.768999999935,
      "d": 174.18022916666814,
      "v": 119
    },
    {
      "midi": 77,
      "hit": false,
      "t": 60491.768999999935,
      "d": 180.32776666666905,
      "v": 119
    },
    {
      "midi": 73,
      "hit": false,
      "t": 60491.768999999935,
      "d": 188.5244833333345,
      "v": 119
    },
    {
      "midi": 77,
      "hit": false,
      "t": 60737.670499999935,
      "d": 55.327837500000896,
      "v": 97
    },
    {
      "midi": 80,
      "hit": false,
      "t": 60737.670499999935,
      "d": 62.499964583337714,
      "v": 105
    },
    {
      "midi": 73,
      "hit": false,
      "t": 60737.670499999935,
      "d": 63.524554166673624,
      "v": 101
    },
    {
      "midi": 78,
      "hit": false,
      "t": 60983.57199999994,
      "d": 59.426195833329984,
      "v": 109
    },
    {
      "midi": 73,
      "hit": false,
      "t": 60983.57199999994,
      "d": 89.13929374999861,
      "v": 119
    },
    {
      "midi": 82,
      "hit": false,
      "t": 60983.57199999994,
      "d": 97.33601041666407,
      "v": 114
    },
    {
      "midi": 73,
      "hit": false,
      "t": 61106.52274999994,
      "d": 96.31142083333543,
      "v": 73
    },
    {
      "midi": 78,
      "hit": false,
      "t": 61106.52274999994,
      "d": 96.31142083333543,
      "v": 97
    },
    {
      "midi": 78,
      "hit": false,
      "t": 61229.47349999994,
      "d": 25.614739583332266,
      "v": 51
    },
    {
      "midi": 82,
      "hit": false,
      "t": 61229.47349999994,
      "d": 48.15571041666408,
      "v": 79
    },
    {
      "midi": 73,
      "hit": false,
      "t": 61229.47349999994,
      "d": 50.20488958332862,
      "v": 67
    },
    {
      "midi": 73,
      "hit": false,
      "t": 61721.276499999934,
      "d": 71.7212708333318,
      "v": 119
    },
    {
      "midi": 78,
      "hit": false,
      "t": 61721.276499999934,
      "d": 86.06552499999816,
      "v": 114
    },
    {
      "midi": 82,
      "hit": false,
      "t": 61721.276499999934,
      "d": 144.4671312499995,
      "v": 124
    },
    {
      "midi": 73,
      "hit": false,
      "t": 61844.22724999993,
      "d": 77.86880833333998,
      "v": 97
    },
    {
      "midi": 78,
      "hit": false,
      "t": 61844.22724999993,
      "d": 81.96716666667635,
      "v": 105
    },
    {
      "midi": 73,
      "hit": false,
      "t": 61967.17799999994,
      "d": 44.05735208333499,
      "v": 76
    },
    {
      "midi": 78,
      "hit": false,
      "t": 61967.17799999994,
      "d": 49.18029999999999,
      "v": 86
    },
    {
      "midi": 82,
      "hit": false,
      "t": 61967.17799999994,
      "d": 74.79503958333225,
      "v": 89
    },
    {
      "midi": 73,
      "hit": false,
      "t": 62090.12874999994,
      "d": 68.64750208333135,
      "v": 101
    },
    {
      "midi": 78,
      "hit": false,
      "t": 62090.12874999994,
      "d": 68.64750208333135,
      "v": 119
    },
    {
      "midi": 78,
      "hit": false,
      "t": 62213.079499999934,
      "d": 57.37701666666544,
      "v": 105
    },
    {
      "midi": 73,
      "hit": false,
      "t": 62213.079499999934,
      "d": 59.426195833329984,
      "v": 105
    },
    {
      "midi": 82,
      "hit": false,
      "t": 62213.079499999934,
      "d": 61.47537499999453,
      "v": 94
    },
    {
      "midi": 73,
      "hit": false,
      "t": 62704.88249999993,
      "d": 68.64750208333135,
      "v": 101
    },
    {
      "midi": 78,
      "hit": false,
      "t": 62704.88249999993,
      "d": 68.64750208333135,
      "v": 119
    },
    {
      "midi": 78,
      "hit": false,
      "t": 62827.83324999992,
      "d": 57.37701666666544,
      "v": 105
    },
    {
      "midi": 73,
      "hit": false,
      "t": 62827.83324999992,
      "d": 59.426195833329984,
      "v": 105
    },
    {
      "midi": 82,
      "hit": false,
      "t": 62827.83324999992,
      "d": 61.47537499999453,
      "v": 94
    },
    {
      "midi": 75,
      "hit": false,
      "t": 62950.78399999992,
      "d": 59.426195833329984,
      "v": 109
    },
    {
      "midi": 72,
      "hit": false,
      "t": 62950.78399999992,
      "d": 89.13929374999861,
      "v": 119
    },
    {
      "midi": 80,
      "hit": false,
      "t": 62950.78399999992,
      "d": 97.33601041666407,
      "v": 114
    },
    {
      "midi": 72,
      "hit": false,
      "t": 63073.734749999916,
      "d": 96.31142083333543,
      "v": 73
    },
    {
      "midi": 75,
      "hit": false,
      "t": 63073.734749999916,
      "d": 96.31142083333543,
      "v": 97
    },
    {
      "midi": 75,
      "hit": false,
      "t": 63196.68549999992,
      "d": 25.614739583332266,
      "v": 51
    },
    {
      "midi": 80,
      "hit": false,
      "t": 63196.68549999992,
      "d": 48.15571041666408,
      "v": 79
    },
    {
      "midi": 72,
      "hit": false,
      "t": 63196.68549999992,
      "d": 50.20488958332862,
      "v": 67
    },
    {
      "midi": 72,
      "hit": false,
      "t": 63688.48849999991,
      "d": 71.7212708333318,
      "v": 119
    },
    {
      "midi": 75,
      "hit": false,
      "t": 63688.48849999991,
      "d": 86.06552499999816,
      "v": 114
    },
    {
      "midi": 80,
      "hit": false,
      "t": 63688.48849999991,
      "d": 144.4671312499995,
      "v": 124
    },
    {
      "midi": 72,
      "hit": false,
      "t": 63811.43924999991,
      "d": 77.86880833333998,
      "v": 97
    },
    {
      "midi": 75,
      "hit": false,
      "t": 63811.43924999991,
      "d": 81.96716666667635,
      "v": 105
    },
    {
      "midi": 72,
      "hit": false,
      "t": 63934.38999999992,
      "d": 44.05735208333499,
      "v": 76
    },
    {
      "midi": 75,
      "hit": false,
      "t": 63934.38999999992,
      "d": 49.18029999999999,
      "v": 86
    },
    {
      "midi": 80,
      "hit": false,
      "t": 63934.38999999992,
      "d": 74.79503958333225,
      "v": 89
    },
    {
      "midi": 72,
      "hit": false,
      "t": 64057.340749999916,
      "d": 68.64750208333135,
      "v": 101
    },
    {
      "midi": 75,
      "hit": false,
      "t": 64057.340749999916,
      "d": 68.64750208333135,
      "v": 119
    },
    {
      "midi": 75,
      "hit": false,
      "t": 64180.29149999991,
      "d": 57.37701666666544,
      "v": 105
    },
    {
      "midi": 72,
      "hit": false,
      "t": 64180.29149999991,
      "d": 59.426195833329984,
      "v": 105
    },
    {
      "midi": 80,
      "hit": false,
      "t": 64180.29149999991,
      "d": 61.47537499999453,
      "v": 94
    },
    {
      "midi": 72,
      "hit": false,
      "t": 64672.094499999905,
      "d": 68.64750208333135,
      "v": 101
    },
    {
      "midi": 75,
      "hit": false,
      "t": 64672.094499999905,
      "d": 68.64750208333135,
      "v": 119
    },
    {
      "midi": 75,
      "hit": false,
      "t": 64795.0452499999,
      "d": 57.37701666666544,
      "v": 105
    },
    {
      "midi": 72,
      "hit": false,
      "t": 64795.0452499999,
      "d": 59.426195833329984,
      "v": 105
    },
    {
      "midi": 80,
      "hit": false,
      "t": 64795.0452499999,
      "d": 61.47537499999453,
      "v": 94
    },
    {
      "midi": 78,
      "hit": false,
      "t": 65901.6019999999,
      "d": 59.42619583333726,
      "v": 109
    },
    {
      "midi": 75,
      "hit": false,
      "t": 65901.6019999999,
      "d": 89.13929375000589,
      "v": 119
    },
    {
      "midi": 82,
      "hit": false,
      "t": 65901.6019999999,
      "d": 97.33601041667862,
      "v": 114
    },
    {
      "midi": 75,
      "hit": false,
      "t": 66024.55274999992,
      "d": 96.31142083332816,
      "v": 73
    },
    {
      "midi": 78,
      "hit": false,
      "t": 66024.55274999992,
      "d": 96.31142083332816,
      "v": 97
    },
    {
      "midi": 78,
      "hit": false,
      "t": 66147.5034999999,
      "d": 25.614739583339542,
      "v": 51
    },
    {
      "midi": 82,
      "hit": false,
      "t": 66147.5034999999,
      "d": 48.155710416671354,
      "v": 79
    },
    {
      "midi": 75,
      "hit": false,
      "t": 66147.5034999999,
      "d": 50.204889583343174,
      "v": 67
    },
    {
      "midi": 75,
      "hit": false,
      "t": 66639.30649999992,
      "d": 71.72127083333908,
      "v": 119
    },
    {
      "midi": 78,
      "hit": false,
      "t": 66639.30649999992,
      "d": 86.06552500001271,
      "v": 114
    },
    {
      "midi": 82,
      "hit": false,
      "t": 66639.30649999992,
      "d": 144.46713125001406,
      "v": 124
    },
    {
      "midi": 75,
      "hit": false,
      "t": 66762.25724999994,
      "d": 77.86880833332543,
      "v": 97
    },
    {
      "midi": 78,
      "hit": false,
      "t": 66762.25724999994,
      "d": 81.96716666665452,
      "v": 105
    },
    {
      "midi": 75,
      "hit": false,
      "t": 66885.20799999993,
      "d": 44.057352083327714,
      "v": 76
    },
    {
      "midi": 78,
      "hit": false,
      "t": 66885.20799999993,
      "d": 49.18029999999271,
      "v": 86
    },
    {
      "midi": 82,
      "hit": false,
      "t": 66885.20799999993,
      "d": 74.79503958333225,
      "v": 89
    },
    {
      "midi": 75,
      "hit": false,
      "t": 67008.15874999993,
      "d": 68.64750208333135,
      "v": 101
    },
    {
      "midi": 78,
      "hit": false,
      "t": 67008.15874999993,
      "d": 68.64750208333135,
      "v": 119
    },
    {
      "midi": 78,
      "hit": false,
      "t": 67131.10949999993,
      "d": 57.37701666666544,
      "v": 105
    },
    {
      "midi": 75,
      "hit": false,
      "t": 67131.10949999993,
      "d": 59.42619583333726,
      "v": 105
    },
    {
      "midi": 82,
      "hit": false,
      "t": 67131.10949999993,
      "d": 61.47537500000908,
      "v": 94
    },
    {
      "midi": 73,
      "hit": false,
      "t": 68114.71549999995,
      "d": 42.008172916670446,
      "v": 86
    },
    {
      "midi": 77,
      "hit": false,
      "t": 68114.71549999995,
      "d": 44.057352083342266,
      "v": 94
    },
    {
      "midi": 80,
      "hit": false,
      "t": 68114.71549999995,
      "d": 56.35242708334408,
      "v": 105
    },
    {
      "midi": 80,
      "hit": false,
      "t": 68360.61699999995,
      "d": 174.18022916666814,
      "v": 119
    },
    {
      "midi": 77,
      "hit": false,
      "t": 68360.61699999995,
      "d": 180.32776666666905,
      "v": 119
    },
    {
      "midi": 73,
      "hit": false,
      "t": 68360.61699999995,
      "d": 188.52448333334178,
      "v": 119
    },
    {
      "midi": 77,
      "hit": false,
      "t": 68606.51849999996,
      "d": 55.32783749999362,
      "v": 97
    },
    {
      "midi": 80,
      "hit": false,
      "t": 68606.51849999996,
      "d": 62.49996458333044,
      "v": 105
    },
    {
      "midi": 73,
      "hit": false,
      "t": 68606.51849999996,
      "d": 63.52455416666635,
      "v": 101
    },
    {
      "midi": 77,
      "hit": false,
      "t": 68852.41999999995,
      "d": 59.42619583333726,
      "v": 109
    },
    {
      "midi": 73,
      "hit": false,
      "t": 68852.41999999995,
      "d": 89.13929375000589,
      "v": 119
    },
    {
      "midi": 80,
      "hit": false,
      "t": 68852.41999999995,
      "d": 97.33601041667862,
      "v": 114
    },
    {
      "midi": 73,
      "hit": false,
      "t": 68975.37074999997,
      "d": 96.31142083332816,
      "v": 73
    },
    {
      "midi": 77,
      "hit": false,
      "t": 68975.37074999997,
      "d": 96.31142083332816,
      "v": 97
    },
    {
      "midi": 77,
      "hit": false,
      "t": 69098.32149999996,
      "d": 25.614739583339542,
      "v": 51
    },
    {
      "midi": 80,
      "hit": false,
      "t": 69098.32149999996,
      "d": 48.155710416671354,
      "v": 79
    },
    {
      "midi": 73,
      "hit": false,
      "t": 69098.32149999996,
      "d": 50.204889583343174,
      "v": 67
    },
    {
      "midi": 73,
      "hit": false,
      "t": 69590.12449999998,
      "d": 71.72127083333908,
      "v": 119
    },
    {
      "midi": 77,
      "hit": false,
      "t": 69590.12449999998,
      "d": 86.06552500001271,
      "v": 114
    },
    {
      "midi": 80,
      "hit": false,
      "t": 69590.12449999998,
      "d": 144.46713125001406,
      "v": 124
    },
    {
      "midi": 73,
      "hit": false,
      "t": 69713.07525,
      "d": 77.86880833332543,
      "v": 97
    },
    {
      "midi": 77,
      "hit": false,
      "t": 69713.07525,
      "d": 81.96716666665452,
      "v": 105
    },
    {
      "midi": 73,
      "hit": false,
      "t": 69836.02599999998,
      "d": 44.057352083327714,
      "v": 76
    },
    {
      "midi": 77,
      "hit": false,
      "t": 69836.02599999998,
      "d": 49.18029999999271,
      "v": 86
    },
    {
      "midi": 80,
      "hit": false,
      "t": 69836.02599999998,
      "d": 74.79503958333225,
      "v": 89
    },
    {
      "midi": 73,
      "hit": false,
      "t": 69958.97674999999,
      "d": 68.64750208333135,
      "v": 101
    },
    {
      "midi": 77,
      "hit": false,
      "t": 69958.97674999999,
      "d": 68.64750208333135,
      "v": 119
    },
    {
      "midi": 77,
      "hit": false,
      "t": 70081.92749999999,
      "d": 57.37701666666544,
      "v": 105
    },
    {
      "midi": 73,
      "hit": false,
      "t": 70081.92749999999,
      "d": 59.42619583333726,
      "v": 105
    },
    {
      "midi": 80,
      "hit": false,
      "t": 70081.92749999999,
      "d": 61.47537500000908,
      "v": 94
    },
    {
      "midi": 73,
      "hit": false,
      "t": 70573.7305,
      "d": 68.64750208333135,
      "v": 101
    },
    {
      "midi": 77,
      "hit": false,
      "t": 70573.7305,
      "d": 68.64750208333135,
      "v": 119
    },
    {
      "midi": 77,
      "hit": false,
      "t": 70696.68125000001,
      "d": 57.37701666666544,
      "v": 105
    },
    {
      "midi": 73,
      "hit": false,
      "t": 70696.68125000001,
      "d": 59.42619583333726,
      "v": 105
    },
    {
      "midi": 80,
      "hit": false,
      "t": 70696.68125000001,
      "d": 61.47537500000908,
      "v": 94
    },
    {
      "midi": 75,
      "hit": false,
      "t": 70819.63200000001,
      "d": 59.42619583333726,
      "v": 109
    },
    {
      "midi": 71,
      "hit": false,
      "t": 70819.63200000001,
      "d": 89.13929375000589,
      "v": 119
    },
    {
      "midi": 78,
      "hit": false,
      "t": 70819.63200000001,
      "d": 97.33601041667862,
      "v": 114
    },
    {
      "midi": 71,
      "hit": false,
      "t": 70942.58275000003,
      "d": 96.31142083332816,
      "v": 73
    },
    {
      "midi": 75,
      "hit": false,
      "t": 70942.58275000003,
      "d": 96.31142083332816,
      "v": 97
    },
    {
      "midi": 75,
      "hit": false,
      "t": 71065.53350000002,
      "d": 25.614739583339542,
      "v": 51
    },
    {
      "midi": 78,
      "hit": false,
      "t": 71065.53350000002,
      "d": 48.155710416671354,
      "v": 79
    },
    {
      "midi": 71,
      "hit": false,
      "t": 71065.53350000002,
      "d": 50.204889583343174,
      "v": 67
    },
    {
      "midi": 63,
      "hit": false,
      "t": 71803.23800000003,
      "d": 71.72127083333908,
      "v": 119
    },
    {
      "midi": 66,
      "hit": false,
      "t": 71803.23800000003,
      "d": 86.06552500001271,
      "v": 114
    },
    {
      "midi": 71,
      "hit": false,
      "t": 71803.23800000003,
      "d": 144.46713125001406,
      "v": 124
    },
    {
      "midi": 63,
      "hit": false,
      "t": 71926.18875000004,
      "d": 77.86880833332543,
      "v": 97
    },
    {
      "midi": 66,
      "hit": false,
      "t": 71926.18875000004,
      "d": 81.96716666665452,
      "v": 105
    },
    {
      "midi": 63,
      "hit": false,
      "t": 72049.13950000003,
      "d": 44.057352083327714,
      "v": 76
    },
    {
      "midi": 66,
      "hit": false,
      "t": 72049.13950000003,
      "d": 49.18029999999271,
      "v": 86
    },
    {
      "midi": 71,
      "hit": false,
      "t": 72049.13950000003,
      "d": 74.79503958333225,
      "v": 89
    },
    {
      "midi": 63,
      "hit": false,
      "t": 72172.09025000004,
      "d": 68.64750208333135,
      "v": 101
    },
    {
      "midi": 66,
      "hit": false,
      "t": 72172.09025000004,
      "d": 68.64750208333135,
      "v": 119
    },
    {
      "midi": 63,
      "hit": false,
      "t": 72295.04100000004,
      "d": 71.72127083333908,
      "v": 119
    },
    {
      "midi": 66,
      "hit": false,
      "t": 72295.04100000004,
      "d": 86.06552500001271,
      "v": 114
    },
    {
      "midi": 71,
      "hit": false,
      "t": 72295.04100000004,
      "d": 144.46713125001406,
      "v": 124
    },
    {
      "midi": 63,
      "hit": false,
      "t": 72417.99175000006,
      "d": 77.86880833332543,
      "v": 97
    },
    {
      "midi": 66,
      "hit": false,
      "t": 72417.99175000006,
      "d": 81.96716666665452,
      "v": 105
    },
    {
      "midi": 63,
      "hit": false,
      "t": 72540.94250000005,
      "d": 44.057352083327714,
      "v": 76
    },
    {
      "midi": 66,
      "hit": false,
      "t": 72540.94250000005,
      "d": 49.18029999999271,
      "v": 86
    },
    {
      "midi": 71,
      "hit": false,
      "t": 72540.94250000005,
      "d": 74.79503958333225,
      "v": 89
    },
    {
      "midi": 63,
      "hit": false,
      "t": 72663.89325000005,
      "d": 68.64750208333135,
      "v": 101
    },
    {
      "midi": 66,
      "hit": false,
      "t": 72663.89325000005,
      "d": 68.64750208333135,
      "v": 119
    },
    {
      "midi": 78,
      "hit": false,
      "t": 73770.45000000006,
      "d": 59.42619583333726,
      "v": 109
    },
    {
      "midi": 75,
      "hit": false,
      "t": 73770.45000000006,
      "d": 89.13929375000589,
      "v": 119
    },
    {
      "midi": 82,
      "hit": false,
      "t": 73770.45000000006,
      "d": 97.33601041667862,
      "v": 114
    },
    {
      "midi": 75,
      "hit": false,
      "t": 73893.40075000007,
      "d": 96.31142083332816,
      "v": 73
    },
    {
      "midi": 78,
      "hit": false,
      "t": 73893.40075000007,
      "d": 96.31142083332816,
      "v": 97
    },
    {
      "midi": 78,
      "hit": false,
      "t": 74016.35150000006,
      "d": 25.614739583339542,
      "v": 51
    },
    {
      "midi": 82,
      "hit": false,
      "t": 74016.35150000006,
      "d": 48.155710416671354,
      "v": 79
    },
    {
      "midi": 75,
      "hit": false,
      "t": 74016.35150000006,
      "d": 50.204889583343174,
      "v": 67
    },
    {
      "midi": 75,
      "hit": false,
      "t": 74508.15450000008,
      "d": 71.72127083333908,
      "v": 119
    },
    {
      "midi": 78,
      "hit": false,
      "t": 74508.15450000008,
      "d": 86.06552500001271,
      "v": 114
    },
    {
      "midi": 82,
      "hit": false,
      "t": 74508.15450000008,
      "d": 144.46713125001406,
      "v": 124
    },
    {
      "midi": 75,
      "hit": false,
      "t": 74631.1052500001,
      "d": 77.86880833332543,
      "v": 97
    },
    {
      "midi": 78,
      "hit": false,
      "t": 74631.1052500001,
      "d": 81.96716666665452,
      "v": 105
    },
    {
      "midi": 75,
      "hit": false,
      "t": 74754.05600000008,
      "d": 44.057352083327714,
      "v": 76
    },
    {
      "midi": 78,
      "hit": false,
      "t": 74754.05600000008,
      "d": 49.18029999999271,
      "v": 86
    },
    {
      "midi": 82,
      "hit": false,
      "t": 74754.05600000008,
      "d": 74.79503958333225,
      "v": 89
    },
    {
      "midi": 75,
      "hit": false,
      "t": 74877.00675000009,
      "d": 68.64750208333135,
      "v": 101
    },
    {
      "midi": 78,
      "hit": false,
      "t": 74877.00675000009,
      "d": 68.64750208333135,
      "v": 119
    },
    {
      "midi": 78,
      "hit": false,
      "t": 74999.95750000009,
      "d": 57.37701666666544,
      "v": 105
    },
    {
      "midi": 75,
      "hit": false,
      "t": 74999.95750000009,
      "d": 59.42619583333726,
      "v": 105
    },
    {
      "midi": 82,
      "hit": false,
      "t": 74999.95750000009,
      "d": 61.47537500000908,
      "v": 94
    },
    {
      "midi": 73,
      "hit": false,
      "t": 75983.5635000001,
      "d": 42.008172916670446,
      "v": 86
    },
    {
      "midi": 77,
      "hit": false,
      "t": 75983.5635000001,
      "d": 44.057352083342266,
      "v": 94
    },
    {
      "midi": 80,
      "hit": false,
      "t": 75983.5635000001,
      "d": 56.35242708334408,
      "v": 105
    },
    {
      "midi": 80,
      "hit": false,
      "t": 76229.46500000011,
      "d": 174.18022916666814,
      "v": 119
    },
    {
      "midi": 77,
      "hit": false,
      "t": 76229.46500000011,
      "d": 180.32776666666905,
      "v": 119
    },
    {
      "midi": 73,
      "hit": false,
      "t": 76229.46500000011,
      "d": 188.52448333334178,
      "v": 119
    },
    {
      "midi": 77,
      "hit": false,
      "t": 76475.36650000012,
      "d": 55.32783749999362,
      "v": 97
    },
    {
      "midi": 80,
      "hit": false,
      "t": 76475.36650000012,
      "d": 62.49996458333044,
      "v": 105
    },
    {
      "midi": 73,
      "hit": false,
      "t": 76475.36650000012,
      "d": 63.52455416666635,
      "v": 101
    },
    {
      "midi": 78,
      "hit": false,
      "t": 76721.26800000011,
      "d": 59.42619583333726,
      "v": 109
    },
    {
      "midi": 73,
      "hit": false,
      "t": 76721.26800000011,
      "d": 89.13929375000589,
      "v": 119
    },
    {
      "midi": 82,
      "hit": false,
      "t": 76721.26800000011,
      "d": 97.33601041667862,
      "v": 114
    },
    {
      "midi": 73,
      "hit": false,
      "t": 76844.21875000013,
      "d": 96.31142083332816,
      "v": 73
    },
    {
      "midi": 78,
      "hit": false,
      "t": 76844.21875000013,
      "d": 96.31142083332816,
      "v": 97
    },
    {
      "midi": 78,
      "hit": false,
      "t": 76967.16950000012,
      "d": 25.614739583339542,
      "v": 51
    },
    {
      "midi": 82,
      "hit": false,
      "t": 76967.16950000012,
      "d": 48.155710416671354,
      "v": 79
    },
    {
      "midi": 73,
      "hit": false,
      "t": 76967.16950000012,
      "d": 50.204889583343174,
      "v": 67
    },
    {
      "midi": 73,
      "hit": false,
      "t": 77458.97250000013,
      "d": 71.72127083333908,
      "v": 119
    },
    {
      "midi": 78,
      "hit": false,
      "t": 77458.97250000013,
      "d": 86.06552500001271,
      "v": 114
    },
    {
      "midi": 82,
      "hit": false,
      "t": 77458.97250000013,
      "d": 144.46713125001406,
      "v": 124
    },
    {
      "midi": 73,
      "hit": false,
      "t": 77581.92325000015,
      "d": 77.86880833332543,
      "v": 97
    },
    {
      "midi": 78,
      "hit": false,
      "t": 77581.92325000015,
      "d": 81.96716666665452,
      "v": 105
    },
    {
      "midi": 73,
      "hit": false,
      "t": 77704.87400000014,
      "d": 44.057352083327714,
      "v": 76
    },
    {
      "midi": 78,
      "hit": false,
      "t": 77704.87400000014,
      "d": 49.18029999999271,
      "v": 86
    },
    {
      "midi": 82,
      "hit": false,
      "t": 77704.87400000014,
      "d": 74.79503958333225,
      "v": 89
    },
    {
      "midi": 73,
      "hit": false,
      "t": 77827.82475000015,
      "d": 68.64750208333135,
      "v": 101
    },
    {
      "midi": 78,
      "hit": false,
      "t": 77827.82475000015,
      "d": 68.64750208333135,
      "v": 119
    },
    {
      "midi": 78,
      "hit": false,
      "t": 77950.77550000015,
      "d": 57.37701666666544,
      "v": 105
    },
    {
      "midi": 73,
      "hit": false,
      "t": 77950.77550000015,
      "d": 59.42619583333726,
      "v": 105
    },
    {
      "midi": 82,
      "hit": false,
      "t": 77950.77550000015,
      "d": 61.47537500000908,
      "v": 94
    },
    {
      "midi": 73,
      "hit": false,
      "t": 78442.57850000016,
      "d": 68.64750208333135,
      "v": 101
    },
    {
      "midi": 78,
      "hit": false,
      "t": 78442.57850000016,
      "d": 68.64750208333135,
      "v": 119
    },
    {
      "midi": 78,
      "hit": false,
      "t": 78565.52925000017,
      "d": 57.37701666666544,
      "v": 105
    },
    {
      "midi": 73,
      "hit": false,
      "t": 78565.52925000017,
      "d": 59.42619583333726,
      "v": 105
    },
    {
      "midi": 82,
      "hit": false,
      "t": 78565.52925000017,
      "d": 61.47537500000908,
      "v": 94
    },
    {
      "midi": 75,
      "hit": false,
      "t": 78688.48000000017,
      "d": 59.42619583333726,
      "v": 109
    },
    {
      "midi": 72,
      "hit": false,
      "t": 78688.48000000017,
      "d": 89.13929375000589,
      "v": 119
    },
    {
      "midi": 80,
      "hit": false,
      "t": 78688.48000000017,
      "d": 97.33601041667862,
      "v": 114
    },
    {
      "midi": 72,
      "hit": false,
      "t": 78811.43075000019,
      "d": 96.31142083332816,
      "v": 73
    },
    {
      "midi": 75,
      "hit": false,
      "t": 78811.43075000019,
      "d": 96.31142083332816,
      "v": 97
    },
    {
      "midi": 75,
      "hit": false,
      "t": 78934.38150000018,
      "d": 25.614739583339542,
      "v": 51
    },
    {
      "midi": 80,
      "hit": false,
      "t": 78934.38150000018,
      "d": 48.155710416671354,
      "v": 79
    },
    {
      "midi": 72,
      "hit": false,
      "t": 78934.38150000018,
      "d": 50.204889583343174,
      "v": 67
    },
    {
      "midi": 72,
      "hit": false,
      "t": 79426.18450000019,
      "d": 71.72127083333908,
      "v": 119
    },
    {
      "midi": 75,
      "hit": false,
      "t": 79426.18450000019,
      "d": 86.06552500001271,
      "v": 114
    },
    {
      "midi": 80,
      "hit": false,
      "t": 79426.18450000019,
      "d": 144.46713125001406,
      "v": 124
    },
    {
      "midi": 72,
      "hit": false,
      "t": 79549.13525000021,
      "d": 77.86880833332543,
      "v": 97
    },
    {
      "midi": 75,
      "hit": false,
      "t": 79549.13525000021,
      "d": 81.96716666665452,
      "v": 105
    },
    {
      "midi": 72,
      "hit": false,
      "t": 79672.0860000002,
      "d": 44.057352083327714,
      "v": 76
    },
    {
      "midi": 75,
      "hit": false,
      "t": 79672.0860000002,
      "d": 49.18029999999271,
      "v": 86
    },
    {
      "midi": 80,
      "hit": false,
      "t": 79672.0860000002,
      "d": 74.79503958333225,
      "v": 89
    },
    {
      "midi": 72,
      "hit": false,
      "t": 79795.0367500002,
      "d": 68.64750208333135,
      "v": 101
    },
    {
      "midi": 75,
      "hit": false,
      "t": 79795.0367500002,
      "d": 68.64750208333135,
      "v": 119
    },
    {
      "midi": 75,
      "hit": false,
      "t": 79917.9875000002,
      "d": 57.37701666666544,
      "v": 105
    },
    {
      "midi": 72,
      "hit": false,
      "t": 79917.9875000002,
      "d": 59.42619583333726,
      "v": 105
    },
    {
      "midi": 80,
      "hit": false,
      "t": 79917.9875000002,
      "d": 61.47537500000908,
      "v": 94
    },
    {
      "midi": 72,
      "hit": false,
      "t": 80409.79050000022,
      "d": 68.64750208333135,
      "v": 101
    },
    {
      "midi": 75,
      "hit": false,
      "t": 80409.79050000022,
      "d": 68.64750208333135,
      "v": 119
    },
    {
      "midi": 75,
      "hit": false,
      "t": 80532.74125000022,
      "d": 57.37701666666544,
      "v": 105
    },
    {
      "midi": 72,
      "hit": false,
      "t": 80532.74125000022,
      "d": 59.42619583333726,
      "v": 105
    },
    {
      "midi": 80,
      "hit": false,
      "t": 80532.74125000022,
      "d": 61.47537500000908,
      "v": 94
    },
    {
      "midi": 63,
      "hit": false,
      "t": 80655.692,
      "d": 1861.6792729167064,
      "v": 114
    },
    {
      "midi": 66,
      "hit": false,
      "t": 80901.5935,
      "d": 631.147183333349,
      "v": 89
    },
    {
      "midi": 70,
      "hit": false,
      "t": 81147.49500000001,
      "d": 537.909531250014,
      "v": 67
    },
    {
      "midi": 78,
      "hit": false,
      "t": 81393.39650000002,
      "d": 1136.2698479166866,
      "v": 114
    },
    {
      "midi": 66,
      "hit": false,
      "t": 81639.29800000002,
      "d": 908.8109604166821,
      "v": 89
    },
    {
      "midi": 70,
      "hit": false,
      "t": 81885.19950000002,
      "d": 373.9751979166758,
      "v": 70
    },
    {
      "midi": 75,
      "hit": false,
      "t": 82131.10100000002,
      "d": 369.87683958334674,
      "v": 73
    },
    {
      "midi": 70,
      "hit": false,
      "t": 82377.00250000003,
      "d": 106.5573166666727,
      "v": 51
    },
    {
      "midi": 61,
      "hit": false,
      "t": 82622.90400000004,
      "d": 1797.1301291666896,
      "v": 105
    },
    {
      "midi": 68,
      "hit": false,
      "t": 82868.80550000005,
      "d": 1325.8189208333497,
      "v": 94
    },
    {
      "midi": 73,
      "hit": false,
      "t": 83114.70700000005,
      "d": 342.2129208333354,
      "v": 97
    },
    {
      "midi": 80,
      "hit": false,
      "t": 83360.60850000006,
      "d": 1191.5976854166802,
      "v": 119
    },
    {
      "midi": 73,
      "hit": false,
      "t": 83606.51000000005,
      "d": 321.7211291666754,
      "v": 89
    },
    {
      "midi": 77,
      "hit": false,
      "t": 83852.41150000006,
      "d": 663.9340500000108,
      "v": 94
    },
    {
      "midi": 73,
      "hit": false,
      "t": 84098.31300000007,
      "d": 410.8604229166667,
      "v": 76
    },
    {
      "midi": 68,
      "hit": false,
      "t": 84344.21450000006,
      "d": 174.1802291666827,
      "v": 55
    },
    {
      "midi": 58,
      "hit": false,
      "t": 84590.11600000007,
      "d": 1797.1301291666896,
      "v": 105
    },
    {
      "midi": 65,
      "hit": false,
      "t": 84836.01750000007,
      "d": 1325.8189208333497,
      "v": 94
    },
    {
      "midi": 73,
      "hit": false,
      "t": 85081.91900000008,
      "d": 342.2129208333354,
      "v": 97
    },
    {
      "midi": 80,
      "hit": false,
      "t": 85327.82050000009,
      "d": 1191.5976854166802,
      "v": 119
    },
    {
      "midi": 73,
      "hit": false,
      "t": 85573.72200000008,
      "d": 321.7211291666754,
      "v": 89
    },
    {
      "midi": 77,
      "hit": false,
      "t": 85819.62350000009,
      "d": 663.9340500000108,
      "v": 94
    },
    {
      "midi": 73,
      "hit": false,
      "t": 86065.5250000001,
      "d": 410.8604229166667,
      "v": 76
    },
    {
      "midi": 65,
      "hit": false,
      "t": 86311.42650000009,
      "d": 174.1802291666827,
      "v": 55
    },
    {
      "midi": 59,
      "hit": false,
      "t": 86557.3280000001,
      "d": 861.6798395833612,
      "v": 104
    },
    {
      "midi": 71,
      "hit": false,
      "t": 86803.2295000001,
      "d": 734.6307312500139,
      "v": 88
    },
    {
      "midi": 75,
      "hit": false,
      "t": 87049.13100000011,
      "d": 293.03262083334266,
      "v": 62
    },
    {
      "midi": 78,
      "hit": false,
      "t": 87295.03250000012,
      "d": 516.3931500000035,
      "v": 109
    },
    {
      "midi": 59,
      "hit": false,
      "t": 87540.93400000011,
      "d": 807.3765916666889,
      "v": 100
    },
    {
      "midi": 71,
      "hit": false,
      "t": 87786.83550000012,
      "d": 193.64743125000678,
      "v": 96
    },
    {
      "midi": 80,
      "hit": false,
      "t": 88032.73700000012,
      "d": 268.44247083333903,
      "v": 97
    },
    {
      "midi": 78,
      "hit": false,
      "t": 88278.63850000013,
      "d": 50.20488958332862,
      "v": 89
    },
    {
      "midi": 82,
      "hit": false,
      "t": 88524.54000000014,
      "d": 691.5979687500076,
      "v": 101
    },
    {
      "midi": 63,
      "hit": false,
      "t": 88524.54000000014,
      "d": 1838.1137125000096,
      "v": 101
    },
    {
      "midi": 70,
      "hit": false,
      "t": 88770.44150000015,
      "d": 591.1881895833358,
      "v": 76
    },
    {
      "midi": 78,
      "hit": false,
      "t": 89016.34300000015,
      "d": 514.3439708333317,
      "v": 67
    },
    {
      "midi": 87,
      "hit": false,
      "t": 89262.24450000015,
      "d": 1100.4092125000025,
      "v": 109
    },
    {
      "midi": 70,
      "hit": false,
      "t": 89508.14600000015,
      "d": 885.2453999999998,
      "v": 86
    },
    {
      "midi": 78,
      "hit": false,
      "t": 89754.04750000015,
      "d": 308.40146458333766,
      "v": 79
    },
    {
      "midi": 82,
      "hit": false,
      "t": 89999.94900000015,
      "d": 327.86866666666174,
      "v": 94
    },
    {
      "midi": 78,
      "hit": false,
      "t": 90245.85050000015,
      "d": 131.14746666667634,
      "v": 73
    },
    {
      "midi": 61,
      "hit": false,
      "t": 90491.75200000015,
      "d": 1797.1301291666896,
      "v": 105
    },
    {
      "midi": 68,
      "hit": false,
      "t": 90737.65350000016,
      "d": 1325.8189208333497,
      "v": 94
    },
    {
      "midi": 73,
      "hit": false,
      "t": 90983.55500000017,
      "d": 342.2129208333354,
      "v": 97
    },
    {
      "midi": 80,
      "hit": false,
      "t": 91229.45650000017,
      "d": 1191.5976854166656,
      "v": 119
    },
    {
      "midi": 73,
      "hit": false,
      "t": 91475.35800000017,
      "d": 321.7211291666754,
      "v": 89
    },
    {
      "midi": 77,
      "hit": false,
      "t": 91721.25950000017,
      "d": 663.9340499999962,
      "v": 94
    },
    {
      "midi": 68,
      "hit": false,
      "t": 92213.06250000017,
      "d": 287.9096729166631,
      "v": 76
    },
    {
      "midi": 82,
      "hit": false,
      "t": 92458.96400000017,
      "d": 424.18008750000445,
      "v": 105
    },
    {
      "midi": 66,
      "hit": false,
      "t": 92458.96400000017,
      "d": 1892.4169604166673,
      "v": 97
    },
    {
      "midi": 78,
      "hit": false,
      "t": 92704.86550000017,
      "d": 259.2211645833304,
      "v": 60
    },
    {
      "midi": 73,
      "hit": false,
      "t": 92950.76700000017,
      "d": 481.5571041666699,
      "v": 55
    },
    {
      "midi": 82,
      "hit": false,
      "t": 93196.66850000017,
      "d": 1192.622274999987,
      "v": 114
    },
    {
      "midi": 78,
      "hit": false,
      "t": 93442.57000000017,
      "d": 302.25392708333675,
      "v": 66
    },
    {
      "midi": 73,
      "hit": false,
      "t": 93688.47150000017,
      "d": 315.5735916666599,
      "v": 82
    },
    {
      "midi": 78,
      "hit": false,
      "t": 93934.37300000017,
      "d": 412.90960208333854,
      "v": 66
    },
    {
      "midi": 73,
      "hit": false,
      "t": 94180.27450000017,
      "d": 164.9589229166595,
      "v": 70
    },
    {
      "midi": 72,
      "hit": false,
      "t": 94426.17600000017,
      "d": 1613.7285937499983,
      "v": 70
    },
    {
      "midi": 75,
      "hit": false,
      "t": 94426.17600000017,
      "d": 1648.5646395833319,
      "v": 94
    },
    {
      "midi": 80,
      "hit": false,
      "t": 94426.17600000017,
      "d": 1648.5646395833319,
      "v": 94
    },
    {
      "midi": 56,
      "hit": false,
      "t": 94426.17600000017,
      "d": 1659.8351249999978,
      "v": 105
    },
    {
      "midi": 63,
      "hit": false,
      "t": 94426.17600000017,
      "d": 1671.1056104166637,
      "v": 109
    },
    {
      "midi": 63,
      "hit": false,
      "t": 96393.38800000017,
      "d": 1861.6792729167064,
      "v": 114
    },
    {
      "midi": 66,
      "hit": false,
      "t": 96639.28950000017,
      "d": 631.147183333349,
      "v": 89
    },
    {
      "midi": 70,
      "hit": false,
      "t": 96885.19100000018,
      "d": 537.909531250014,
      "v": 67
    },
    {
      "midi": 78,
      "hit": false,
      "t": 97131.09250000019,
      "d": 1136.2698479166866,
      "v": 114
    },
    {
      "midi": 66,
      "hit": false,
      "t": 97376.9940000002,
      "d": 908.8109604166821,
      "v": 89
    },
    {
      "midi": 70,
      "hit": false,
      "t": 97622.89550000019,
      "d": 373.9751979166758,
      "v": 70
    },
    {
      "midi": 75,
      "hit": false,
      "t": 97868.7970000002,
      "d": 369.87683958334674,
      "v": 73
    },
    {
      "midi": 70,
      "hit": false,
      "t": 98114.6985000002,
      "d": 106.5573166666727,
      "v": 51
    },
    {
      "midi": 61,
      "hit": false,
      "t": 98360.60000000021,
      "d": 1797.1301291666896,
      "v": 105
    },
    {
      "midi": 68,
      "hit": false,
      "t": 98606.50150000022,
      "d": 1325.8189208333497,
      "v": 94
    },
    {
      "midi": 73,
      "hit": false,
      "t": 98852.40300000022,
      "d": 342.2129208333354,
      "v": 97
    },
    {
      "midi": 80,
      "hit": false,
      "t": 99098.30450000023,
      "d": 1191.5976854166802,
      "v": 119
    },
    {
      "midi": 73,
      "hit": false,
      "t": 99344.20600000022,
      "d": 321.7211291666754,
      "v": 89
    },
    {
      "midi": 77,
      "hit": false,
      "t": 99590.10750000023,
      "d": 663.9340500000108,
      "v": 94
    },
    {
      "midi": 73,
      "hit": false,
      "t": 99836.00900000024,
      "d": 410.8604229166667,
      "v": 76
    },
    {
      "midi": 68,
      "hit": false,
      "t": 100081.91050000023,
      "d": 174.1802291666827,
      "v": 55
    },
    {
      "midi": 58,
      "hit": false,
      "t": 100327.81200000024,
      "d": 1797.1301291666896,
      "v": 105
    },
    {
      "midi": 65,
      "hit": false,
      "t": 100573.71350000025,
      "d": 1325.8189208333497,
      "v": 94
    },
    {
      "midi": 73,
      "hit": false,
      "t": 100819.61500000025,
      "d": 342.2129208333354,
      "v": 97
    },
    {
      "midi": 80,
      "hit": false,
      "t": 101065.51650000026,
      "d": 1191.5976854166802,
      "v": 119
    },
    {
      "midi": 73,
      "hit": false,
      "t": 101311.41800000025,
      "d": 321.7211291666754,
      "v": 89
    },
    {
      "midi": 77,
      "hit": false,
      "t": 101557.31950000026,
      "d": 663.9340500000108,
      "v": 94
    },
    {
      "midi": 73,
      "hit": false,
      "t": 101803.22100000027,
      "d": 410.8604229166667,
      "v": 76
    },
    {
      "midi": 65,
      "hit": false,
      "t": 102049.12250000026,
      "d": 174.1802291666827,
      "v": 55
    },
    {
      "midi": 59,
      "hit": false,
      "t": 102295.02400000027,
      "d": 861.6798395833612,
      "v": 104
    },
    {
      "midi": 71,
      "hit": false,
      "t": 102540.92550000027,
      "d": 734.6307312500139,
      "v": 88
    },
    {
      "midi": 75,
      "hit": false,
      "t": 102786.82700000028,
      "d": 293.03262083334266,
      "v": 62
    },
    {
      "midi": 78,
      "hit": false,
      "t": 103032.72850000029,
      "d": 516.3931500000035,
      "v": 109
    },
    {
      "midi": 59,
      "hit": false,
      "t": 103278.63000000028,
      "d": 807.3765916666889,
      "v": 100
    },
    {
      "midi": 71,
      "hit": false,
      "t": 103524.53150000029,
      "d": 193.64743125000678,
      "v": 96
    },
    {
      "midi": 80,
      "hit": false,
      "t": 103770.4330000003,
      "d": 268.44247083333903,
      "v": 97
    },
    {
      "midi": 78,
      "hit": false,
      "t": 104016.3345000003,
      "d": 50.20488958332862,
      "v": 89
    },
    {
      "midi": 82,
      "hit": false,
      "t": 104262.23600000031,
      "d": 691.5979687500076,
      "v": 101
    },
    {
      "midi": 63,
      "hit": false,
      "t": 104262.23600000031,
      "d": 1838.1137125000096,
      "v": 101
    },
    {
      "midi": 70,
      "hit": false,
      "t": 104508.13750000032,
      "d": 591.1881895833358,
      "v": 76
    },
    {
      "midi": 78,
      "hit": false,
      "t": 104754.03900000032,
      "d": 514.3439708333317,
      "v": 67
    },
    {
      "midi": 87,
      "hit": false,
      "t": 104999.94050000032,
      "d": 1100.4092125000025,
      "v": 109
    },
    {
      "midi": 70,
      "hit": false,
      "t": 105245.84200000032,
      "d": 885.2453999999998,
      "v": 86
    },
    {
      "midi": 78,
      "hit": false,
      "t": 105491.74350000032,
      "d": 308.40146458333766,
      "v": 79
    },
    {
      "midi": 82,
      "hit": false,
      "t": 105737.64500000032,
      "d": 327.86866666666174,
      "v": 94
    },
    {
      "midi": 78,
      "hit": false,
      "t": 105983.54650000032,
      "d": 131.14746666667634,
      "v": 73
    },
    {
      "midi": 61,
      "hit": false,
      "t": 106229.44800000032,
      "d": 1797.1301291666896,
      "v": 105
    },
    {
      "midi": 68,
      "hit": false,
      "t": 106475.34950000033,
      "d": 1325.8189208333497,
      "v": 94
    },
    {
      "midi": 73,
      "hit": false,
      "t": 106721.25100000034,
      "d": 342.2129208333354,
      "v": 97
    },
    {
      "midi": 80,
      "hit": false,
      "t": 106967.15250000035,
      "d": 1191.5976854166656,
      "v": 119
    },
    {
      "midi": 73,
      "hit": false,
      "t": 107213.05400000034,
      "d": 321.7211291666754,
      "v": 89
    },
    {
      "midi": 77,
      "hit": false,
      "t": 107458.95550000035,
      "d": 663.9340499999962,
      "v": 94
    },
    {
      "midi": 68,
      "hit": false,
      "t": 107950.75850000035,
      "d": 287.9096729166631,
      "v": 76
    },
    {
      "midi": 82,
      "hit": false,
      "t": 108196.66000000034,
      "d": 424.18008750000445,
      "v": 105
    },
    {
      "midi": 66,
      "hit": false,
      "t": 108196.66000000034,
      "d": 1892.4169604166673,
      "v": 97
    },
    {
      "midi": 78,
      "hit": false,
      "t": 108442.56150000035,
      "d": 259.2211645833304,
      "v": 60
    },
    {
      "midi": 73,
      "hit": false,
      "t": 108688.46300000034,
      "d": 481.5571041666699,
      "v": 55
    },
    {
      "midi": 82,
      "hit": false,
      "t": 108934.36450000035,
      "d": 1192.622274999987,
      "v": 114
    },
    {
      "midi": 78,
      "hit": false,
      "t": 109180.26600000034,
      "d": 302.25392708333675,
      "v": 66
    },
    {
      "midi": 73,
      "hit": false,
      "t": 109426.16750000035,
      "d": 315.5735916666599,
      "v": 82
    },
    {
      "midi": 78,
      "hit": false,
      "t": 109672.06900000034,
      "d": 412.90960208333854,
      "v": 66
    },
    {
      "midi": 73,
      "hit": false,
      "t": 109917.97050000035,
      "d": 164.9589229166595,
      "v": 70
    },
    {
      "midi": 78,
      "hit": false,
      "t": 113114.69000000024,
      "d": 59.42619583333726,
      "v": 109
    },
    {
      "midi": 75,
      "hit": false,
      "t": 113114.69000000024,
      "d": 89.13929375000589,
      "v": 119
    },
    {
      "midi": 82,
      "hit": false,
      "t": 113114.69000000024,
      "d": 97.33601041667862,
      "v": 114
    },
    {
      "midi": 75,
      "hit": false,
      "t": 113237.64075000025,
      "d": 96.31142083332816,
      "v": 73
    },
    {
      "midi": 78,
      "hit": false,
      "t": 113237.64075000025,
      "d": 96.31142083332816,
      "v": 97
    },
    {
      "midi": 78,
      "hit": false,
      "t": 113360.59150000024,
      "d": 25.614739583339542,
      "v": 51
    },
    {
      "midi": 82,
      "hit": false,
      "t": 113360.59150000024,
      "d": 48.155710416671354,
      "v": 79
    },
    {
      "midi": 75,
      "hit": false,
      "t": 113360.59150000024,
      "d": 50.204889583343174,
      "v": 67
    },
    {
      "midi": 75,
      "hit": false,
      "t": 113852.39450000026,
      "d": 71.72127083333908,
      "v": 119
    },
    {
      "midi": 78,
      "hit": false,
      "t": 113852.39450000026,
      "d": 86.06552500001271,
      "v": 114
    },
    {
      "midi": 82,
      "hit": false,
      "t": 113852.39450000026,
      "d": 144.46713125001406,
      "v": 124
    },
    {
      "midi": 75,
      "hit": false,
      "t": 113975.34525000027,
      "d": 77.86880833332543,
      "v": 97
    },
    {
      "midi": 78,
      "hit": false,
      "t": 113975.34525000027,
      "d": 81.96716666665452,
      "v": 105
    },
    {
      "midi": 75,
      "hit": false,
      "t": 114098.29600000026,
      "d": 44.057352083327714,
      "v": 76
    },
    {
      "midi": 78,
      "hit": false,
      "t": 114098.29600000026,
      "d": 49.18029999999271,
      "v": 86
    },
    {
      "midi": 82,
      "hit": false,
      "t": 114098.29600000026,
      "d": 74.79503958333225,
      "v": 89
    },
    {
      "midi": 75,
      "hit": false,
      "t": 114221.24675000027,
      "d": 68.64750208333135,
      "v": 101
    },
    {
      "midi": 78,
      "hit": false,
      "t": 114221.24675000027,
      "d": 68.64750208333135,
      "v": 119
    },
    {
      "midi": 78,
      "hit": false,
      "t": 114344.19750000027,
      "d": 57.37701666666544,
      "v": 105
    },
    {
      "midi": 75,
      "hit": false,
      "t": 114344.19750000027,
      "d": 59.42619583333726,
      "v": 105
    },
    {
      "midi": 82,
      "hit": false,
      "t": 114344.19750000027,
      "d": 61.47537500000908,
      "v": 94
    },
    {
      "midi": 73,
      "hit": false,
      "t": 115327.80350000029,
      "d": 42.008172916670446,
      "v": 86
    },
    {
      "midi": 77,
      "hit": false,
      "t": 115327.80350000029,
      "d": 44.057352083342266,
      "v": 94
    },
    {
      "midi": 80,
      "hit": false,
      "t": 115327.80350000029,
      "d": 56.35242708334408,
      "v": 105
    },
    {
      "midi": 80,
      "hit": false,
      "t": 115573.7050000003,
      "d": 174.18022916666814,
      "v": 119
    },
    {
      "midi": 77,
      "hit": false,
      "t": 115573.7050000003,
      "d": 180.32776666666905,
      "v": 119
    },
    {
      "midi": 73,
      "hit": false,
      "t": 115573.7050000003,
      "d": 188.52448333334178,
      "v": 119
    },
    {
      "midi": 77,
      "hit": false,
      "t": 115819.6065000003,
      "d": 55.32783749999362,
      "v": 97
    },
    {
      "midi": 80,
      "hit": false,
      "t": 115819.6065000003,
      "d": 62.49996458333044,
      "v": 105
    },
    {
      "midi": 73,
      "hit": false,
      "t": 115819.6065000003,
      "d": 63.52455416666635,
      "v": 101
    },
    {
      "midi": 77,
      "hit": false,
      "t": 116065.50800000029,
      "d": 59.42619583333726,
      "v": 109
    },
    {
      "midi": 73,
      "hit": false,
      "t": 116065.50800000029,
      "d": 89.13929375000589,
      "v": 119
    },
    {
      "midi": 80,
      "hit": false,
      "t": 116065.50800000029,
      "d": 97.33601041667862,
      "v": 114
    },
    {
      "midi": 73,
      "hit": false,
      "t": 116188.45875000031,
      "d": 96.31142083332816,
      "v": 73
    },
    {
      "midi": 77,
      "hit": false,
      "t": 116188.45875000031,
      "d": 96.31142083332816,
      "v": 97
    },
    {
      "midi": 77,
      "hit": false,
      "t": 116311.4095000003,
      "d": 25.614739583339542,
      "v": 51
    },
    {
      "midi": 80,
      "hit": false,
      "t": 116311.4095000003,
      "d": 48.155710416671354,
      "v": 79
    },
    {
      "midi": 73,
      "hit": false,
      "t": 116311.4095000003,
      "d": 50.204889583343174,
      "v": 67
    },
    {
      "midi": 73,
      "hit": false,
      "t": 116803.21250000031,
      "d": 71.72127083333908,
      "v": 119
    },
    {
      "midi": 77,
      "hit": false,
      "t": 116803.21250000031,
      "d": 86.06552500001271,
      "v": 114
    },
    {
      "midi": 80,
      "hit": false,
      "t": 116803.21250000031,
      "d": 144.46713125001406,
      "v": 124
    },
    {
      "midi": 73,
      "hit": false,
      "t": 116926.16325000033,
      "d": 77.86880833332543,
      "v": 97
    },
    {
      "midi": 77,
      "hit": false,
      "t": 116926.16325000033,
      "d": 81.96716666665452,
      "v": 105
    },
    {
      "midi": 73,
      "hit": false,
      "t": 117049.11400000032,
      "d": 44.057352083327714,
      "v": 76
    },
    {
      "midi": 77,
      "hit": false,
      "t": 117049.11400000032,
      "d": 49.18029999999271,
      "v": 86
    },
    {
      "midi": 80,
      "hit": false,
      "t": 117049.11400000032,
      "d": 74.79503958333225,
      "v": 89
    },
    {
      "midi": 73,
      "hit": false,
      "t": 117172.06475000033,
      "d": 68.64750208333135,
      "v": 101
    },
    {
      "midi": 77,
      "hit": false,
      "t": 117172.06475000033,
      "d": 68.64750208333135,
      "v": 119
    },
    {
      "midi": 77,
      "hit": false,
      "t": 117295.01550000033,
      "d": 57.37701666666544,
      "v": 105
    },
    {
      "midi": 73,
      "hit": false,
      "t": 117295.01550000033,
      "d": 59.42619583333726,
      "v": 105
    },
    {
      "midi": 80,
      "hit": false,
      "t": 117295.01550000033,
      "d": 61.47537500000908,
      "v": 94
    },
    {
      "midi": 73,
      "hit": false,
      "t": 117786.81850000034,
      "d": 68.64750208333135,
      "v": 101
    },
    {
      "midi": 77,
      "hit": false,
      "t": 117786.81850000034,
      "d": 68.64750208333135,
      "v": 119
    },
    {
      "midi": 77,
      "hit": false,
      "t": 117909.76925000035,
      "d": 57.37701666666544,
      "v": 105
    },
    {
      "midi": 73,
      "hit": false,
      "t": 117909.76925000035,
      "d": 59.42619583333726,
      "v": 105
    },
    {
      "midi": 80,
      "hit": false,
      "t": 117909.76925000035,
      "d": 61.47537500000908,
      "v": 94
    },
    {
      "midi": 75,
      "hit": false,
      "t": 118032.72000000035,
      "d": 59.42619583333726,
      "v": 109
    },
    {
      "midi": 71,
      "hit": false,
      "t": 118032.72000000035,
      "d": 89.13929375000589,
      "v": 119
    },
    {
      "midi": 78,
      "hit": false,
      "t": 118032.72000000035,
      "d": 97.33601041667862,
      "v": 114
    },
    {
      "midi": 71,
      "hit": false,
      "t": 118155.67075000037,
      "d": 96.31142083332816,
      "v": 73
    },
    {
      "midi": 75,
      "hit": false,
      "t": 118155.67075000037,
      "d": 96.31142083332816,
      "v": 97
    },
    {
      "midi": 75,
      "hit": false,
      "t": 118278.62150000036,
      "d": 25.614739583339542,
      "v": 51
    },
    {
      "midi": 78,
      "hit": false,
      "t": 118278.62150000036,
      "d": 48.155710416671354,
      "v": 79
    },
    {
      "midi": 71,
      "hit": false,
      "t": 118278.62150000036,
      "d": 50.204889583343174,
      "v": 67
    },
    {
      "midi": 63,
      "hit": false,
      "t": 119016.32600000036,
      "d": 71.72127083333908,
      "v": 119
    },
    {
      "midi": 66,
      "hit": false,
      "t": 119016.32600000036,
      "d": 86.06552500001271,
      "v": 114
    },
    {
      "midi": 71,
      "hit": false,
      "t": 119016.32600000036,
      "d": 144.46713125001406,
      "v": 124
    },
    {
      "midi": 63,
      "hit": false,
      "t": 119139.27675000038,
      "d": 77.86880833332543,
      "v": 97
    },
    {
      "midi": 66,
      "hit": false,
      "t": 119139.27675000038,
      "d": 81.96716666665452,
      "v": 105
    },
    {
      "midi": 63,
      "hit": false,
      "t": 119262.22750000037,
      "d": 44.057352083327714,
      "v": 76
    },
    {
      "midi": 66,
      "hit": false,
      "t": 119262.22750000037,
      "d": 49.18029999999271,
      "v": 86
    },
    {
      "midi": 71,
      "hit": false,
      "t": 119262.22750000037,
      "d": 74.79503958333225,
      "v": 89
    },
    {
      "midi": 63,
      "hit": false,
      "t": 119385.17825000038,
      "d": 68.64750208333135,
      "v": 101
    },
    {
      "midi": 66,
      "hit": false,
      "t": 119385.17825000038,
      "d": 68.64750208333135,
      "v": 119
    },
    {
      "midi": 63,
      "hit": false,
      "t": 119508.12900000038,
      "d": 71.72127083333908,
      "v": 119
    },
    {
      "midi": 66,
      "hit": false,
      "t": 119508.12900000038,
      "d": 86.06552500001271,
      "v": 114
    },
    {
      "midi": 71,
      "hit": false,
      "t": 119508.12900000038,
      "d": 144.46713125001406,
      "v": 124
    },
    {
      "midi": 63,
      "hit": false,
      "t": 119631.0797500004,
      "d": 77.86880833332543,
      "v": 97
    },
    {
      "midi": 66,
      "hit": false,
      "t": 119631.0797500004,
      "d": 81.96716666665452,
      "v": 105
    },
    {
      "midi": 63,
      "hit": false,
      "t": 119754.03050000039,
      "d": 44.057352083327714,
      "v": 76
    },
    {
      "midi": 66,
      "hit": false,
      "t": 119754.03050000039,
      "d": 49.18029999999271,
      "v": 86
    },
    {
      "midi": 71,
      "hit": false,
      "t": 119754.03050000039,
      "d": 74.79503958333225,
      "v": 89
    },
    {
      "midi": 63,
      "hit": false,
      "t": 119876.98125000039,
      "d": 68.64750208333135,
      "v": 101
    },
    {
      "midi": 66,
      "hit": false,
      "t": 119876.98125000039,
      "d": 68.64750208333135,
      "v": 119
    },
    {
      "midi": 78,
      "hit": false,
      "t": 120983.5380000004,
      "d": 59.42619583333726,
      "v": 109
    },
    {
      "midi": 75,
      "hit": false,
      "t": 120983.5380000004,
      "d": 89.13929375000589,
      "v": 119
    },
    {
      "midi": 82,
      "hit": false,
      "t": 120983.5380000004,
      "d": 97.33601041667862,
      "v": 114
    },
    {
      "midi": 75,
      "hit": false,
      "t": 121106.48875000041,
      "d": 96.31142083332816,
      "v": 73
    },
    {
      "midi": 78,
      "hit": false,
      "t": 121106.48875000041,
      "d": 96.31142083332816,
      "v": 97
    },
    {
      "midi": 78,
      "hit": false,
      "t": 121229.4395000004,
      "d": 25.614739583339542,
      "v": 51
    },
    {
      "midi": 82,
      "hit": false,
      "t": 121229.4395000004,
      "d": 48.155710416671354,
      "v": 79
    },
    {
      "midi": 75,
      "hit": false,
      "t": 121229.4395000004,
      "d": 50.204889583343174,
      "v": 67
    },
    {
      "midi": 75,
      "hit": false,
      "t": 121721.24250000042,
      "d": 71.72127083333908,
      "v": 119
    },
    {
      "midi": 78,
      "hit": false,
      "t": 121721.24250000042,
      "d": 86.06552500001271,
      "v": 114
    },
    {
      "midi": 82,
      "hit": false,
      "t": 121721.24250000042,
      "d": 144.46713125001406,
      "v": 124
    },
    {
      "midi": 75,
      "hit": false,
      "t": 121844.19325000043,
      "d": 77.86880833332543,
      "v": 97
    },
    {
      "midi": 78,
      "hit": false,
      "t": 121844.19325000043,
      "d": 81.96716666665452,
      "v": 105
    },
    {
      "midi": 75,
      "hit": false,
      "t": 121967.14400000042,
      "d": 44.057352083327714,
      "v": 76
    },
    {
      "midi": 78,
      "hit": false,
      "t": 121967.14400000042,
      "d": 49.18029999999271,
      "v": 86
    },
    {
      "midi": 82,
      "hit": false,
      "t": 121967.14400000042,
      "d": 74.79503958333225,
      "v": 89
    },
    {
      "midi": 75,
      "hit": false,
      "t": 122090.09475000043,
      "d": 68.64750208333135,
      "v": 101
    },
    {
      "midi": 78,
      "hit": false,
      "t": 122090.09475000043,
      "d": 68.64750208333135,
      "v": 119
    },
    {
      "midi": 78,
      "hit": false,
      "t": 122213.04550000043,
      "d": 57.37701666666544,
      "v": 105
    },
    {
      "midi": 75,
      "hit": false,
      "t": 122213.04550000043,
      "d": 59.42619583333726,
      "v": 105
    },
    {
      "midi": 82,
      "hit": false,
      "t": 122213.04550000043,
      "d": 61.47537500000908,
      "v": 94
    },
    {
      "midi": 73,
      "hit": false,
      "t": 123196.65150000044,
      "d": 42.008172916670446,
      "v": 86
    },
    {
      "midi": 77,
      "hit": false,
      "t": 123196.65150000044,
      "d": 44.057352083342266,
      "v": 94
    },
    {
      "midi": 80,
      "hit": false,
      "t": 123196.65150000044,
      "d": 56.35242708334408,
      "v": 105
    },
    {
      "midi": 80,
      "hit": false,
      "t": 123442.55300000045,
      "d": 174.18022916666814,
      "v": 119
    },
    {
      "midi": 77,
      "hit": false,
      "t": 123442.55300000045,
      "d": 180.32776666666905,
      "v": 119
    },
    {
      "midi": 73,
      "hit": false,
      "t": 123442.55300000045,
      "d": 188.52448333334178,
      "v": 119
    },
    {
      "midi": 77,
      "hit": false,
      "t": 123688.45450000046,
      "d": 55.32783749999362,
      "v": 97
    },
    {
      "midi": 80,
      "hit": false,
      "t": 123688.45450000046,
      "d": 62.49996458333044,
      "v": 105
    },
    {
      "midi": 73,
      "hit": false,
      "t": 123688.45450000046,
      "d": 63.52455416666635,
      "v": 101
    },
    {
      "midi": 78,
      "hit": false,
      "t": 123934.35600000045,
      "d": 59.42619583333726,
      "v": 109
    },
    {
      "midi": 73,
      "hit": false,
      "t": 123934.35600000045,
      "d": 89.13929375000589,
      "v": 119
    },
    {
      "midi": 82,
      "hit": false,
      "t": 123934.35600000045,
      "d": 97.33601041667862,
      "v": 114
    },
    {
      "midi": 73,
      "hit": false,
      "t": 124057.30675000047,
      "d": 96.31142083332816,
      "v": 73
    },
    {
      "midi": 78,
      "hit": false,
      "t": 124057.30675000047,
      "d": 96.31142083332816,
      "v": 97
    },
    {
      "midi": 78,
      "hit": false,
      "t": 124180.25750000046,
      "d": 25.614739583339542,
      "v": 51
    },
    {
      "midi": 82,
      "hit": false,
      "t": 124180.25750000046,
      "d": 48.155710416671354,
      "v": 79
    },
    {
      "midi": 73,
      "hit": false,
      "t": 124180.25750000046,
      "d": 50.204889583343174,
      "v": 67
    },
    {
      "midi": 73,
      "hit": false,
      "t": 124672.06050000047,
      "d": 71.72127083333908,
      "v": 119
    },
    {
      "midi": 78,
      "hit": false,
      "t": 124672.06050000047,
      "d": 86.06552500001271,
      "v": 114
    },
    {
      "midi": 82,
      "hit": false,
      "t": 124672.06050000047,
      "d": 144.46713125001406,
      "v": 124
    },
    {
      "midi": 73,
      "hit": false,
      "t": 124795.01125000049,
      "d": 77.86880833332543,
      "v": 97
    },
    {
      "midi": 78,
      "hit": false,
      "t": 124795.01125000049,
      "d": 81.96716666665452,
      "v": 105
    },
    {
      "midi": 73,
      "hit": false,
      "t": 124917.96200000048,
      "d": 44.057352083327714,
      "v": 76
    },
    {
      "midi": 78,
      "hit": false,
      "t": 124917.96200000048,
      "d": 49.18029999999271,
      "v": 86
    },
    {
      "midi": 82,
      "hit": false,
      "t": 124917.96200000048,
      "d": 74.79503958333225,
      "v": 89
    },
    {
      "midi": 73,
      "hit": false,
      "t": 125040.91275000048,
      "d": 68.64750208333135,
      "v": 101
    },
    {
      "midi": 78,
      "hit": false,
      "t": 125040.91275000048,
      "d": 68.64750208333135,
      "v": 119
    },
    {
      "midi": 78,
      "hit": false,
      "t": 125163.86350000049,
      "d": 57.37701666666544,
      "v": 105
    },
    {
      "midi": 73,
      "hit": false,
      "t": 125163.86350000049,
      "d": 59.42619583333726,
      "v": 105
    },
    {
      "midi": 82,
      "hit": false,
      "t": 125163.86350000049,
      "d": 61.47537500000908,
      "v": 94
    },
    {
      "midi": 73,
      "hit": false,
      "t": 125655.6665000005,
      "d": 68.64750208333135,
      "v": 101
    },
    {
      "midi": 78,
      "hit": false,
      "t": 125655.6665000005,
      "d": 68.64750208333135,
      "v": 119
    },
    {
      "midi": 78,
      "hit": false,
      "t": 125778.6172500005,
      "d": 57.37701666666544,
      "v": 105
    },
    {
      "midi": 73,
      "hit": false,
      "t": 125778.6172500005,
      "d": 59.42619583333726,
      "v": 105
    },
    {
      "midi": 82,
      "hit": false,
      "t": 125778.6172500005,
      "d": 61.47537500000908,
      "v": 94
    },
    {
      "midi": 75,
      "hit": false,
      "t": 125901.56800000051,
      "d": 59.42619583333726,
      "v": 109
    },
    {
      "midi": 72,
      "hit": false,
      "t": 125901.56800000051,
      "d": 89.13929375000589,
      "v": 119
    },
    {
      "midi": 80,
      "hit": false,
      "t": 125901.56800000051,
      "d": 97.33601041667862,
      "v": 114
    },
    {
      "midi": 72,
      "hit": false,
      "t": 126024.51875000053,
      "d": 96.31142083332816,
      "v": 73
    },
    {
      "midi": 75,
      "hit": false,
      "t": 126024.51875000053,
      "d": 96.31142083332816,
      "v": 97
    },
    {
      "midi": 75,
      "hit": false,
      "t": 126147.46950000052,
      "d": 25.614739583339542,
      "v": 51
    },
    {
      "midi": 80,
      "hit": false,
      "t": 126147.46950000052,
      "d": 48.155710416671354,
      "v": 79
    },
    {
      "midi": 72,
      "hit": false,
      "t": 126147.46950000052,
      "d": 50.204889583343174,
      "v": 67
    },
    {
      "midi": 72,
      "hit": false,
      "t": 126639.27250000053,
      "d": 71.72127083333908,
      "v": 119
    },
    {
      "midi": 75,
      "hit": false,
      "t": 126639.27250000053,
      "d": 86.06552500001271,
      "v": 114
    },
    {
      "midi": 80,
      "hit": false,
      "t": 126639.27250000053,
      "d": 144.46713125001406,
      "v": 124
    },
    {
      "midi": 72,
      "hit": false,
      "t": 126762.22325000055,
      "d": 77.86880833332543,
      "v": 97
    },
    {
      "midi": 75,
      "hit": false,
      "t": 126762.22325000055,
      "d": 81.96716666665452,
      "v": 105
    },
    {
      "midi": 72,
      "hit": false,
      "t": 126885.17400000054,
      "d": 44.057352083327714,
      "v": 76
    },
    {
      "midi": 75,
      "hit": false,
      "t": 126885.17400000054,
      "d": 49.18029999999271,
      "v": 86
    },
    {
      "midi": 80,
      "hit": false,
      "t": 126885.17400000054,
      "d": 74.79503958333225,
      "v": 89
    },
    {
      "midi": 72,
      "hit": false,
      "t": 127008.12475000054,
      "d": 68.64750208333135,
      "v": 101
    },
    {
      "midi": 75,
      "hit": false,
      "t": 127008.12475000054,
      "d": 68.64750208333135,
      "v": 119
    },
    {
      "midi": 75,
      "hit": false,
      "t": 127131.07550000054,
      "d": 57.37701666666544,
      "v": 105
    },
    {
      "midi": 72,
      "hit": false,
      "t": 127131.07550000054,
      "d": 59.42619583333726,
      "v": 105
    },
    {
      "midi": 80,
      "hit": false,
      "t": 127131.07550000054,
      "d": 61.47537500000908,
      "v": 94
    },
    {
      "midi": 72,
      "hit": false,
      "t": 127622.87850000056,
      "d": 68.64750208333135,
      "v": 101
    },
    {
      "midi": 75,
      "hit": false,
      "t": 127622.87850000056,
      "d": 68.64750208333135,
      "v": 119
    },
    {
      "midi": 75,
      "hit": false,
      "t": 127745.82925000056,
      "d": 57.37701666666544,
      "v": 105
    },
    {
      "midi": 72,
      "hit": false,
      "t": 127745.82925000056,
      "d": 59.42619583333726,
      "v": 105
    },
    {
      "midi": 80,
      "hit": false,
      "t": 127745.82925000056,
      "d": 61.47537500000908,
      "v": 94
    },
    {
      "midi": 78,
      "hit": false,
      "t": 128852.38600000057,
      "d": 59.42619583333726,
      "v": 109
    },
    {
      "midi": 75,
      "hit": false,
      "t": 128852.38600000057,
      "d": 89.13929375000589,
      "v": 119
    },
    {
      "midi": 82,
      "hit": false,
      "t": 128852.38600000057,
      "d": 97.33601041667862,
      "v": 114
    },
    {
      "midi": 75,
      "hit": false,
      "t": 128975.33675000058,
      "d": 96.31142083332816,
      "v": 73
    },
    {
      "midi": 78,
      "hit": false,
      "t": 128975.33675000058,
      "d": 96.31142083332816,
      "v": 97
    },
    {
      "midi": 78,
      "hit": false,
      "t": 129098.28750000057,
      "d": 25.614739583339542,
      "v": 51
    },
    {
      "midi": 82,
      "hit": false,
      "t": 129098.28750000057,
      "d": 48.155710416671354,
      "v": 79
    },
    {
      "midi": 75,
      "hit": false,
      "t": 129098.28750000057,
      "d": 50.204889583343174,
      "v": 67
    },
    {
      "midi": 75,
      "hit": false,
      "t": 129590.09050000059,
      "d": 71.72127083333908,
      "v": 119
    },
    {
      "midi": 78,
      "hit": false,
      "t": 129590.09050000059,
      "d": 86.06552500001271,
      "v": 114
    },
    {
      "midi": 82,
      "hit": false,
      "t": 129590.09050000059,
      "d": 144.46713125001406,
      "v": 124
    },
    {
      "midi": 75,
      "hit": false,
      "t": 129713.0412500006,
      "d": 77.86880833332543,
      "v": 97
    },
    {
      "midi": 78,
      "hit": false,
      "t": 129713.0412500006,
      "d": 81.96716666665452,
      "v": 105
    },
    {
      "midi": 75,
      "hit": false,
      "t": 129835.9920000006,
      "d": 44.057352083327714,
      "v": 76
    },
    {
      "midi": 78,
      "hit": false,
      "t": 129835.9920000006,
      "d": 49.18029999999271,
      "v": 86
    },
    {
      "midi": 82,
      "hit": false,
      "t": 129835.9920000006,
      "d": 74.79503958333225,
      "v": 89
    },
    {
      "midi": 75,
      "hit": false,
      "t": 129958.9427500006,
      "d": 68.64750208333135,
      "v": 101
    },
    {
      "midi": 78,
      "hit": false,
      "t": 129958.9427500006,
      "d": 68.64750208333135,
      "v": 119
    },
    {
      "midi": 78,
      "hit": false,
      "t": 130081.8935000006,
      "d": 57.37701666666544,
      "v": 105
    },
    {
      "midi": 75,
      "hit": false,
      "t": 130081.8935000006,
      "d": 59.42619583333726,
      "v": 105
    },
    {
      "midi": 82,
      "hit": false,
      "t": 130081.8935000006,
      "d": 61.47537500000908,
      "v": 94
    },
    {
      "midi": 73,
      "hit": false,
      "t": 131065.49950000062,
      "d": 42.008172916655894,
      "v": 86
    },
    {
      "midi": 77,
      "hit": false,
      "t": 131065.49950000062,
      "d": 44.057352083327714,
      "v": 94
    },
    {
      "midi": 80,
      "hit": false,
      "t": 131065.49950000062,
      "d": 56.35242708332953,
      "v": 105
    },
    {
      "midi": 80,
      "hit": false,
      "t": 131311.40100000062,
      "d": 174.18022916666814,
      "v": 119
    },
    {
      "midi": 77,
      "hit": false,
      "t": 131311.40100000062,
      "d": 180.3277666666545,
      "v": 119
    },
    {
      "midi": 73,
      "hit": false,
      "t": 131311.40100000062,
      "d": 188.52448333331267,
      "v": 119
    },
    {
      "midi": 77,
      "hit": false,
      "t": 131557.3025000006,
      "d": 55.32783749999362,
      "v": 97
    },
    {
      "midi": 80,
      "hit": false,
      "t": 131557.3025000006,
      "d": 62.49996458331589,
      "v": 105
    },
    {
      "midi": 73,
      "hit": false,
      "t": 131557.3025000006,
      "d": 63.5245541666518,
      "v": 101
    },
    {
      "midi": 77,
      "hit": false,
      "t": 131803.20400000058,
      "d": 59.42619583333726,
      "v": 109
    },
    {
      "midi": 73,
      "hit": false,
      "t": 131803.20400000058,
      "d": 89.13929374999134,
      "v": 119
    },
    {
      "midi": 80,
      "hit": false,
      "t": 131803.20400000058,
      "d": 97.33601041664951,
      "v": 114
    },
    {
      "midi": 73,
      "hit": false,
      "t": 131926.15475000057,
      "d": 96.31142083334271,
      "v": 73
    },
    {
      "midi": 77,
      "hit": false,
      "t": 131926.15475000057,
      "d": 96.31142083334271,
      "v": 97
    },
    {
      "midi": 77,
      "hit": false,
      "t": 132049.1055000006,
      "d": 25.614739583339542,
      "v": 51
    },
    {
      "midi": 80,
      "hit": false,
      "t": 132049.1055000006,
      "d": 48.155710416671354,
      "v": 79
    },
    {
      "midi": 73,
      "hit": false,
      "t": 132049.1055000006,
      "d": 50.204889583343174,
      "v": 67
    },
    {
      "midi": 73,
      "hit": false,
      "t": 132540.9085000006,
      "d": 71.72127083333908,
      "v": 119
    },
    {
      "midi": 77,
      "hit": false,
      "t": 132540.9085000006,
      "d": 86.06552500001271,
      "v": 114
    },
    {
      "midi": 80,
      "hit": false,
      "t": 132540.9085000006,
      "d": 144.46713125001406,
      "v": 124
    },
    {
      "midi": 73,
      "hit": false,
      "t": 132663.85925000062,
      "d": 77.86880833332543,
      "v": 97
    },
    {
      "midi": 77,
      "hit": false,
      "t": 132663.85925000062,
      "d": 81.96716666666907,
      "v": 105
    },
    {
      "midi": 73,
      "hit": false,
      "t": 132786.8100000006,
      "d": 44.057352083327714,
      "v": 76
    },
    {
      "midi": 77,
      "hit": false,
      "t": 132786.8100000006,
      "d": 49.180300000007264,
      "v": 86
    },
    {
      "midi": 80,
      "hit": false,
      "t": 132786.8100000006,
      "d": 74.7950395833468,
      "v": 89
    },
    {
      "midi": 73,
      "hit": false,
      "t": 132909.76075000063,
      "d": 68.64750208333135,
      "v": 101
    },
    {
      "midi": 77,
      "hit": false,
      "t": 132909.76075000063,
      "d": 68.64750208333135,
      "v": 119
    },
    {
      "midi": 77,
      "hit": false,
      "t": 133032.71150000062,
      "d": 57.37701666666544,
      "v": 105
    },
    {
      "midi": 73,
      "hit": false,
      "t": 133032.71150000062,
      "d": 59.42619583333726,
      "v": 105
    },
    {
      "midi": 80,
      "hit": false,
      "t": 133032.71150000062,
      "d": 61.47537500000908,
      "v": 94
    },
    {
      "midi": 73,
      "hit": false,
      "t": 133524.51450000063,
      "d": 68.64750208333135,
      "v": 101
    },
    {
      "midi": 77,
      "hit": false,
      "t": 133524.51450000063,
      "d": 68.64750208333135,
      "v": 119
    },
    {
      "midi": 77,
      "hit": false,
      "t": 133647.46525000062,
      "d": 57.37701666666544,
      "v": 105
    },
    {
      "midi": 73,
      "hit": false,
      "t": 133647.46525000062,
      "d": 59.42619583333726,
      "v": 105
    },
    {
      "midi": 80,
      "hit": false,
      "t": 133647.46525000062,
      "d": 61.47537500000908,
      "v": 94
    },
    {
      "midi": 75,
      "hit": false,
      "t": 133770.41600000064,
      "d": 59.42619583333726,
      "v": 109
    },
    {
      "midi": 71,
      "hit": false,
      "t": 133770.41600000064,
      "d": 89.13929374999134,
      "v": 119
    },
    {
      "midi": 78,
      "hit": false,
      "t": 133770.41600000064,
      "d": 97.33601041664951,
      "v": 114
    },
    {
      "midi": 71,
      "hit": false,
      "t": 133893.36675000063,
      "d": 96.31142083334271,
      "v": 73
    },
    {
      "midi": 75,
      "hit": false,
      "t": 133893.36675000063,
      "d": 96.31142083334271,
      "v": 97
    },
    {
      "midi": 75,
      "hit": false,
      "t": 134016.31750000064,
      "d": 25.614739583339542,
      "v": 51
    },
    {
      "midi": 78,
      "hit": false,
      "t": 134016.31750000064,
      "d": 48.155710416671354,
      "v": 79
    },
    {
      "midi": 71,
      "hit": false,
      "t": 134016.31750000064,
      "d": 50.204889583343174,
      "v": 67
    },
    {
      "midi": 63,
      "hit": false,
      "t": 134754.02200000067,
      "d": 71.72127083333908,
      "v": 119
    },
    {
      "midi": 66,
      "hit": false,
      "t": 134754.02200000067,
      "d": 86.06552500001271,
      "v": 114
    },
    {
      "midi": 71,
      "hit": false,
      "t": 134754.02200000067,
      "d": 144.46713125001406,
      "v": 124
    },
    {
      "midi": 63,
      "hit": false,
      "t": 134876.97275000068,
      "d": 77.86880833332543,
      "v": 97
    },
    {
      "midi": 66,
      "hit": false,
      "t": 134876.97275000068,
      "d": 81.96716666666907,
      "v": 105
    },
    {
      "midi": 63,
      "hit": false,
      "t": 134999.92350000067,
      "d": 44.057352083327714,
      "v": 76
    },
    {
      "midi": 66,
      "hit": false,
      "t": 134999.92350000067,
      "d": 49.180300000007264,
      "v": 86
    },
    {
      "midi": 71,
      "hit": false,
      "t": 134999.92350000067,
      "d": 74.7950395833468,
      "v": 89
    },
    {
      "midi": 63,
      "hit": false,
      "t": 135122.8742500007,
      "d": 68.64750208333135,
      "v": 101
    },
    {
      "midi": 66,
      "hit": false,
      "t": 135122.8742500007,
      "d": 68.64750208333135,
      "v": 119
    },
    {
      "midi": 63,
      "hit": false,
      "t": 135245.82500000068,
      "d": 71.72127083333908,
      "v": 119
    },
    {
      "midi": 66,
      "hit": false,
      "t": 135245.82500000068,
      "d": 86.06552500001271,
      "v": 114
    },
    {
      "midi": 71,
      "hit": false,
      "t": 135245.82500000068,
      "d": 144.46713125001406,
      "v": 124
    },
    {
      "midi": 63,
      "hit": false,
      "t": 135368.7757500007,
      "d": 77.86880833332543,
      "v": 97
    },
    {
      "midi": 66,
      "hit": false,
      "t": 135368.7757500007,
      "d": 81.96716666666907,
      "v": 105
    },
    {
      "midi": 63,
      "hit": false,
      "t": 135491.7265000007,
      "d": 44.057352083327714,
      "v": 76
    },
    {
      "midi": 66,
      "hit": false,
      "t": 135491.7265000007,
      "d": 49.180300000007264,
      "v": 86
    },
    {
      "midi": 71,
      "hit": false,
      "t": 135491.7265000007,
      "d": 74.7950395833468,
      "v": 89
    },
    {
      "midi": 63,
      "hit": false,
      "t": 135614.6772500007,
      "d": 68.64750208333135,
      "v": 101
    },
    {
      "midi": 66,
      "hit": false,
      "t": 135614.6772500007,
      "d": 68.64750208333135,
      "v": 119
    },
    {
      "midi": 78,
      "hit": false,
      "t": 136721.2340000007,
      "d": 59.42619583333726,
      "v": 109
    },
    {
      "midi": 75,
      "hit": false,
      "t": 136721.2340000007,
      "d": 89.13929374999134,
      "v": 119
    },
    {
      "midi": 82,
      "hit": false,
      "t": 136721.2340000007,
      "d": 97.33601041664951,
      "v": 114
    },
    {
      "midi": 75,
      "hit": false,
      "t": 136844.18475000068,
      "d": 96.31142083334271,
      "v": 73
    },
    {
      "midi": 78,
      "hit": false,
      "t": 136844.18475000068,
      "d": 96.31142083334271,
      "v": 97
    },
    {
      "midi": 78,
      "hit": false,
      "t": 136967.1355000007,
      "d": 25.614739583339542,
      "v": 51
    },
    {
      "midi": 82,
      "hit": false,
      "t": 136967.1355000007,
      "d": 48.155710416671354,
      "v": 79
    },
    {
      "midi": 75,
      "hit": false,
      "t": 136967.1355000007,
      "d": 50.204889583343174,
      "v": 67
    },
    {
      "midi": 75,
      "hit": false,
      "t": 137458.93850000072,
      "d": 71.72127083333908,
      "v": 119
    },
    {
      "midi": 78,
      "hit": false,
      "t": 137458.93850000072,
      "d": 86.06552500001271,
      "v": 114
    },
    {
      "midi": 82,
      "hit": false,
      "t": 137458.93850000072,
      "d": 144.46713125001406,
      "v": 124
    },
    {
      "midi": 75,
      "hit": false,
      "t": 137581.88925000074,
      "d": 77.86880833332543,
      "v": 97
    },
    {
      "midi": 78,
      "hit": false,
      "t": 137581.88925000074,
      "d": 81.96716666666907,
      "v": 105
    },
    {
      "midi": 75,
      "hit": false,
      "t": 137704.84000000072,
      "d": 44.057352083327714,
      "v": 76
    },
    {
      "midi": 78,
      "hit": false,
      "t": 137704.84000000072,
      "d": 49.180300000007264,
      "v": 86
    },
    {
      "midi": 82,
      "hit": false,
      "t": 137704.84000000072,
      "d": 74.7950395833468,
      "v": 89
    },
    {
      "midi": 75,
      "hit": false,
      "t": 137827.79075000074,
      "d": 68.64750208333135,
      "v": 101
    },
    {
      "midi": 78,
      "hit": false,
      "t": 137827.79075000074,
      "d": 68.64750208333135,
      "v": 119
    },
    {
      "midi": 78,
      "hit": false,
      "t": 137950.74150000073,
      "d": 57.37701666666544,
      "v": 105
    },
    {
      "midi": 75,
      "hit": false,
      "t": 137950.74150000073,
      "d": 59.42619583333726,
      "v": 105
    },
    {
      "midi": 82,
      "hit": false,
      "t": 137950.74150000073,
      "d": 61.47537500000908,
      "v": 94
    },
    {
      "midi": 73,
      "hit": false,
      "t": 138934.34750000073,
      "d": 42.008172916655894,
      "v": 86
    },
    {
      "midi": 77,
      "hit": false,
      "t": 138934.34750000073,
      "d": 44.057352083327714,
      "v": 94
    },
    {
      "midi": 80,
      "hit": false,
      "t": 138934.34750000073,
      "d": 56.35242708332953,
      "v": 105
    },
    {
      "midi": 80,
      "hit": false,
      "t": 139180.24900000074,
      "d": 174.18022916666814,
      "v": 119
    },
    {
      "midi": 77,
      "hit": false,
      "t": 139180.24900000074,
      "d": 180.3277666666545,
      "v": 119
    },
    {
      "midi": 73,
      "hit": false,
      "t": 139180.24900000074,
      "d": 188.52448333331267,
      "v": 119
    },
    {
      "midi": 77,
      "hit": false,
      "t": 139426.15050000072,
      "d": 55.32783749999362,
      "v": 97
    },
    {
      "midi": 80,
      "hit": false,
      "t": 139426.15050000072,
      "d": 62.49996458331589,
      "v": 105
    },
    {
      "midi": 73,
      "hit": false,
      "t": 139426.15050000072,
      "d": 63.5245541666518,
      "v": 101
    },
    {
      "midi": 78,
      "hit": false,
      "t": 139672.0520000007,
      "d": 59.42619583333726,
      "v": 109
    },
    {
      "midi": 73,
      "hit": false,
      "t": 139672.0520000007,
      "d": 89.13929374999134,
      "v": 119
    },
    {
      "midi": 82,
      "hit": false,
      "t": 139672.0520000007,
      "d": 97.33601041664951,
      "v": 114
    },
    {
      "midi": 73,
      "hit": false,
      "t": 139795.00275000068,
      "d": 96.31142083334271,
      "v": 73
    },
    {
      "midi": 78,
      "hit": false,
      "t": 139795.00275000068,
      "d": 96.31142083334271,
      "v": 97
    },
    {
      "midi": 78,
      "hit": false,
      "t": 139917.9535000007,
      "d": 25.614739583339542,
      "v": 51
    },
    {
      "midi": 82,
      "hit": false,
      "t": 139917.9535000007,
      "d": 48.155710416671354,
      "v": 79
    },
    {
      "midi": 73,
      "hit": false,
      "t": 139917.9535000007,
      "d": 50.204889583343174,
      "v": 67
    },
    {
      "midi": 73,
      "hit": false,
      "t": 140409.75650000072,
      "d": 71.72127083333908,
      "v": 119
    },
    {
      "midi": 78,
      "hit": false,
      "t": 140409.75650000072,
      "d": 86.06552500001271,
      "v": 114
    },
    {
      "midi": 82,
      "hit": false,
      "t": 140409.75650000072,
      "d": 144.46713125001406,
      "v": 124
    },
    {
      "midi": 73,
      "hit": false,
      "t": 140532.70725000073,
      "d": 77.86880833332543,
      "v": 97
    },
    {
      "midi": 78,
      "hit": false,
      "t": 140532.70725000073,
      "d": 81.96716666666907,
      "v": 105
    },
    {
      "midi": 73,
      "hit": false,
      "t": 140655.65800000072,
      "d": 44.057352083327714,
      "v": 76
    },
    {
      "midi": 78,
      "hit": false,
      "t": 140655.65800000072,
      "d": 49.180300000007264,
      "v": 86
    },
    {
      "midi": 82,
      "hit": false,
      "t": 140655.65800000072,
      "d": 74.7950395833468,
      "v": 89
    },
    {
      "midi": 73,
      "hit": false,
      "t": 140778.60875000074,
      "d": 68.64750208333135,
      "v": 101
    },
    {
      "midi": 78,
      "hit": false,
      "t": 140778.60875000074,
      "d": 68.64750208333135,
      "v": 119
    },
    {
      "midi": 78,
      "hit": false,
      "t": 140901.55950000073,
      "d": 57.37701666666544,
      "v": 105
    },
    {
      "midi": 73,
      "hit": false,
      "t": 140901.55950000073,
      "d": 59.42619583333726,
      "v": 105
    },
    {
      "midi": 82,
      "hit": false,
      "t": 140901.55950000073,
      "d": 61.47537500000908,
      "v": 94
    },
    {
      "midi": 73,
      "hit": false,
      "t": 141393.36250000075,
      "d": 68.64750208333135,
      "v": 101
    },
    {
      "midi": 78,
      "hit": false,
      "t": 141393.36250000075,
      "d": 68.64750208333135,
      "v": 119
    },
    {
      "midi": 78,
      "hit": false,
      "t": 141516.31325000073,
      "d": 57.37701666666544,
      "v": 105
    },
    {
      "midi": 73,
      "hit": false,
      "t": 141516.31325000073,
      "d": 59.42619583333726,
      "v": 105
    },
    {
      "midi": 82,
      "hit": false,
      "t": 141516.31325000073,
      "d": 61.47537500000908,
      "v": 94
    },
    {
      "midi": 75,
      "hit": false,
      "t": 141639.26400000075,
      "d": 59.42619583333726,
      "v": 109
    },
    {
      "midi": 72,
      "hit": false,
      "t": 141639.26400000075,
      "d": 89.13929374999134,
      "v": 119
    },
    {
      "midi": 80,
      "hit": false,
      "t": 141639.26400000075,
      "d": 97.33601041664951,
      "v": 114
    },
    {
      "midi": 72,
      "hit": false,
      "t": 141762.21475000074,
      "d": 96.31142083334271,
      "v": 73
    },
    {
      "midi": 75,
      "hit": false,
      "t": 141762.21475000074,
      "d": 96.31142083334271,
      "v": 97
    },
    {
      "midi": 75,
      "hit": false,
      "t": 141885.16550000076,
      "d": 25.614739583339542,
      "v": 51
    },
    {
      "midi": 80,
      "hit": false,
      "t": 141885.16550000076,
      "d": 48.155710416671354,
      "v": 79
    },
    {
      "midi": 72,
      "hit": false,
      "t": 141885.16550000076,
      "d": 50.204889583343174,
      "v": 67
    },
    {
      "midi": 72,
      "hit": false,
      "t": 142376.96850000077,
      "d": 71.72127083333908,
      "v": 119
    },
    {
      "midi": 75,
      "hit": false,
      "t": 142376.96850000077,
      "d": 86.06552500001271,
      "v": 114
    },
    {
      "midi": 80,
      "hit": false,
      "t": 142376.96850000077,
      "d": 144.46713125001406,
      "v": 124
    },
    {
      "midi": 72,
      "hit": false,
      "t": 142499.9192500008,
      "d": 77.86880833332543,
      "v": 97
    },
    {
      "midi": 75,
      "hit": false,
      "t": 142499.9192500008,
      "d": 81.96716666666907,
      "v": 105
    },
    {
      "midi": 72,
      "hit": false,
      "t": 142622.87000000078,
      "d": 44.057352083327714,
      "v": 76
    },
    {
      "midi": 75,
      "hit": false,
      "t": 142622.87000000078,
      "d": 49.180300000007264,
      "v": 86
    },
    {
      "midi": 80,
      "hit": false,
      "t": 142622.87000000078,
      "d": 74.7950395833468,
      "v": 89
    },
    {
      "midi": 72,
      "hit": false,
      "t": 142745.8207500008,
      "d": 68.64750208333135,
      "v": 101
    },
    {
      "midi": 75,
      "hit": false,
      "t": 142745.8207500008,
      "d": 68.64750208333135,
      "v": 119
    },
    {
      "midi": 75,
      "hit": false,
      "t": 142868.7715000008,
      "d": 57.37701666666544,
      "v": 105
    },
    {
      "midi": 72,
      "hit": false,
      "t": 142868.7715000008,
      "d": 59.42619583333726,
      "v": 105
    },
    {
      "midi": 80,
      "hit": false,
      "t": 142868.7715000008,
      "d": 61.47537500000908,
      "v": 94
    },
    {
      "midi": 72,
      "hit": false,
      "t": 143360.5745000008,
      "d": 68.64750208333135,
      "v": 101
    },
    {
      "midi": 75,
      "hit": false,
      "t": 143360.5745000008,
      "d": 68.64750208333135,
      "v": 119
    },
    {
      "midi": 75,
      "hit": false,
      "t": 143483.5252500008,
      "d": 57.37701666666544,
      "v": 105
    },
    {
      "midi": 72,
      "hit": false,
      "t": 143483.5252500008,
      "d": 59.42619583333726,
      "v": 105
    },
    {
      "midi": 80,
      "hit": false,
      "t": 143483.5252500008,
      "d": 61.47537500000908,
      "v": 94
    },
    {
      "midi": 63,
      "hit": false,
      "t": 143606.47600000034,
      "d": 1861.679272916721,
      "v": 114
    },
    {
      "midi": 66,
      "hit": false,
      "t": 143852.37750000035,
      "d": 631.147183333349,
      "v": 89
    },
    {
      "midi": 70,
      "hit": false,
      "t": 144098.27900000036,
      "d": 537.909531250014,
      "v": 67
    },
    {
      "midi": 78,
      "hit": false,
      "t": 144344.18050000037,
      "d": 1136.269847916701,
      "v": 114
    },
    {
      "midi": 66,
      "hit": false,
      "t": 144590.08200000037,
      "d": 908.8109604166821,
      "v": 89
    },
    {
      "midi": 70,
      "hit": false,
      "t": 144835.98350000038,
      "d": 373.9751979166758,
      "v": 70
    },
    {
      "midi": 75,
      "hit": false,
      "t": 145081.8850000004,
      "d": 369.8768395833322,
      "v": 73
    },
    {
      "midi": 70,
      "hit": false,
      "t": 145327.7865000004,
      "d": 106.5573166666727,
      "v": 51
    },
    {
      "midi": 61,
      "hit": false,
      "t": 145573.6880000004,
      "d": 1797.130129166675,
      "v": 105
    },
    {
      "midi": 68,
      "hit": false,
      "t": 145819.5895000004,
      "d": 1325.8189208333497,
      "v": 94
    },
    {
      "midi": 73,
      "hit": false,
      "t": 146065.49100000042,
      "d": 342.2129208333499,
      "v": 97
    },
    {
      "midi": 80,
      "hit": false,
      "t": 146311.39250000042,
      "d": 1191.5976854166365,
      "v": 119
    },
    {
      "midi": 73,
      "hit": false,
      "t": 146557.29400000043,
      "d": 321.72112916666083,
      "v": 89
    },
    {
      "midi": 77,
      "hit": false,
      "t": 146803.19550000044,
      "d": 663.9340499999525,
      "v": 94
    },
    {
      "midi": 73,
      "hit": false,
      "t": 147049.09700000042,
      "d": 410.86042291665217,
      "v": 76
    },
    {
      "midi": 68,
      "hit": false,
      "t": 147294.99850000042,
      "d": 174.18022916663904,
      "v": 55
    },
    {
      "midi": 58,
      "hit": false,
      "t": 147540.9000000004,
      "d": 1797.130129166675,
      "v": 105
    },
    {
      "midi": 65,
      "hit": false,
      "t": 147786.8015000004,
      "d": 1325.8189208333497,
      "v": 94
    },
    {
      "midi": 73,
      "hit": false,
      "t": 148032.70300000042,
      "d": 342.2129208333499,
      "v": 97
    },
    {
      "midi": 80,
      "hit": false,
      "t": 148278.60450000042,
      "d": 1191.5976854166365,
      "v": 119
    },
    {
      "midi": 73,
      "hit": false,
      "t": 148524.50600000043,
      "d": 321.72112916666083,
      "v": 89
    },
    {
      "midi": 77,
      "hit": false,
      "t": 148770.40750000044,
      "d": 663.9340499999525,
      "v": 94
    },
    {
      "midi": 73,
      "hit": false,
      "t": 149016.30900000042,
      "d": 410.86042291665217,
      "v": 76
    },
    {
      "midi": 65,
      "hit": false,
      "t": 149262.21050000042,
      "d": 174.18022916663904,
      "v": 55
    },
    {
      "midi": 59,
      "hit": false,
      "t": 149508.1120000004,
      "d": 861.6798395833466,
      "v": 104
    },
    {
      "midi": 71,
      "hit": false,
      "t": 149754.0135000004,
      "d": 734.6307312500139,
      "v": 88
    },
    {
      "midi": 75,
      "hit": false,
      "t": 149999.91500000042,
      "d": 293.03262083334266,
      "v": 62
    },
    {
      "midi": 78,
      "hit": false,
      "t": 150245.81650000042,
      "d": 516.3931500000181,
      "v": 109
    },
    {
      "midi": 59,
      "hit": false,
      "t": 150491.71800000043,
      "d": 807.3765916666598,
      "v": 100
    },
    {
      "midi": 71,
      "hit": false,
      "t": 150737.61950000044,
      "d": 193.64743124999222,
      "v": 96
    },
    {
      "midi": 80,
      "hit": false,
      "t": 150983.52100000042,
      "d": 268.44247083333903,
      "v": 97
    },
    {
      "midi": 78,
      "hit": false,
      "t": 151229.42250000042,
      "d": 50.204889583343174,
      "v": 89
    },
    {
      "midi": 82,
      "hit": false,
      "t": 151475.32400000043,
      "d": 691.5979687500221,
      "v": 101
    },
    {
      "midi": 63,
      "hit": false,
      "t": 151475.32400000043,
      "d": 1838.1137125000241,
      "v": 101
    },
    {
      "midi": 70,
      "hit": false,
      "t": 151721.22550000044,
      "d": 591.1881895833358,
      "v": 76
    },
    {
      "midi": 78,
      "hit": false,
      "t": 151967.12700000044,
      "d": 514.3439708333171,
      "v": 67
    },
    {
      "midi": 87,
      "hit": false,
      "t": 152213.02850000045,
      "d": 1100.4092125000025,
      "v": 109
    },
    {
      "midi": 70,
      "hit": false,
      "t": 152458.93000000043,
      "d": 885.2454000000434,
      "v": 86
    },
    {
      "midi": 78,
      "hit": false,
      "t": 152704.83150000044,
      "d": 308.4014645833522,
      "v": 79
    },
    {
      "midi": 82,
      "hit": false,
      "t": 152950.73300000044,
      "d": 327.8686666666763,
      "v": 94
    },
    {
      "midi": 78,
      "hit": false,
      "t": 153196.63450000045,
      "d": 131.14746666667634,
      "v": 73
    },
    {
      "midi": 61,
      "hit": false,
      "t": 153442.5360000005,
      "d": 1797.130129166675,
      "v": 105
    },
    {
      "midi": 68,
      "hit": false,
      "t": 153688.4375000005,
      "d": 1325.8189208333497,
      "v": 94
    },
    {
      "midi": 73,
      "hit": false,
      "t": 153934.3390000005,
      "d": 342.2129208333499,
      "v": 97
    },
    {
      "midi": 80,
      "hit": false,
      "t": 154180.2405000005,
      "d": 1191.5976854166656,
      "v": 119
    },
    {
      "midi": 73,
      "hit": false,
      "t": 154426.14200000052,
      "d": 321.72112916666083,
      "v": 89
    },
    {
      "midi": 77,
      "hit": false,
      "t": 154672.04350000052,
      "d": 663.9340499999817,
      "v": 94
    },
    {
      "midi": 68,
      "hit": false,
      "t": 155163.8465000005,
      "d": 287.9096729166631,
      "v": 76
    },
    {
      "midi": 82,
      "hit": false,
      "t": 155409.74800000052,
      "d": 424.1800874999899,
      "v": 105
    },
    {
      "midi": 66,
      "hit": false,
      "t": 155409.74800000052,
      "d": 1892.416960416711,
      "v": 97
    },
    {
      "midi": 78,
      "hit": false,
      "t": 155655.6495000005,
      "d": 259.22116458334494,
      "v": 60
    },
    {
      "midi": 73,
      "hit": false,
      "t": 155901.5510000005,
      "d": 481.55710416668444,
      "v": 55
    },
    {
      "midi": 82,
      "hit": false,
      "t": 156147.4525000005,
      "d": 1192.6222750000597,
      "v": 114
    },
    {
      "midi": 78,
      "hit": false,
      "t": 156393.35400000052,
      "d": 302.25392708333675,
      "v": 66
    },
    {
      "midi": 73,
      "hit": false,
      "t": 156639.25550000052,
      "d": 315.5735916666745,
      "v": 82
    },
    {
      "midi": 78,
      "hit": false,
      "t": 156885.15700000053,
      "d": 412.9096020833531,
      "v": 66
    },
    {
      "midi": 73,
      "hit": false,
      "t": 157131.05850000054,
      "d": 164.95892291667406,
      "v": 70
    },
    {
      "midi": 72,
      "hit": false,
      "t": 157376.96000000057,
      "d": 1613.7285937500128,
      "v": 70
    },
    {
      "midi": 75,
      "hit": false,
      "t": 157376.96000000057,
      "d": 1648.5646395833464,
      "v": 94
    },
    {
      "midi": 80,
      "hit": false,
      "t": 157376.96000000057,
      "d": 1648.5646395833464,
      "v": 94
    },
    {
      "midi": 56,
      "hit": false,
      "t": 157376.96000000057,
      "d": 1659.8351250000123,
      "v": 105
    },
    {
      "midi": 63,
      "hit": false,
      "t": 157376.96000000057,
      "d": 1671.1056104166782,
      "v": 109
    },
    {
      "midi": 78,
      "hit": false,
      "t": 160327.7780000008,
      "d": 59.42619583333726,
      "v": 109
    },
    {
      "midi": 75,
      "hit": false,
      "t": 160327.7780000008,
      "d": 89.13929374999134,
      "v": 119
    },
    {
      "midi": 82,
      "hit": false,
      "t": 160327.7780000008,
      "d": 97.33601041664951,
      "v": 114
    },
    {
      "midi": 75,
      "hit": false,
      "t": 160450.7287500008,
      "d": 96.31142083334271,
      "v": 73
    },
    {
      "midi": 78,
      "hit": false,
      "t": 160450.7287500008,
      "d": 96.31142083334271,
      "v": 97
    },
    {
      "midi": 78,
      "hit": false,
      "t": 160573.6795000008,
      "d": 25.614739583339542,
      "v": 51
    },
    {
      "midi": 82,
      "hit": false,
      "t": 160573.6795000008,
      "d": 48.155710416671354,
      "v": 79
    },
    {
      "midi": 75,
      "hit": false,
      "t": 160573.6795000008,
      "d": 50.204889583343174,
      "v": 67
    },
    {
      "midi": 75,
      "hit": false,
      "t": 161065.48250000083,
      "d": 71.72127083333908,
      "v": 119
    },
    {
      "midi": 78,
      "hit": false,
      "t": 161065.48250000083,
      "d": 86.06552500001271,
      "v": 114
    },
    {
      "midi": 82,
      "hit": false,
      "t": 161065.48250000083,
      "d": 144.46713125001406,
      "v": 124
    },
    {
      "midi": 75,
      "hit": false,
      "t": 161188.43325000085,
      "d": 77.86880833332543,
      "v": 97
    },
    {
      "midi": 78,
      "hit": false,
      "t": 161188.43325000085,
      "d": 81.96716666666907,
      "v": 105
    },
    {
      "midi": 75,
      "hit": false,
      "t": 161311.38400000083,
      "d": 44.057352083327714,
      "v": 76
    },
    {
      "midi": 78,
      "hit": false,
      "t": 161311.38400000083,
      "d": 49.180300000007264,
      "v": 86
    },
    {
      "midi": 82,
      "hit": false,
      "t": 161311.38400000083,
      "d": 74.7950395833468,
      "v": 89
    },
    {
      "midi": 75,
      "hit": false,
      "t": 161434.33475000085,
      "d": 68.64750208333135,
      "v": 101
    },
    {
      "midi": 78,
      "hit": false,
      "t": 161434.33475000085,
      "d": 68.64750208333135,
      "v": 119
    },
    {
      "midi": 78,
      "hit": false,
      "t": 161557.28550000084,
      "d": 57.37701666666544,
      "v": 105
    },
    {
      "midi": 75,
      "hit": false,
      "t": 161557.28550000084,
      "d": 59.42619583333726,
      "v": 105
    },
    {
      "midi": 82,
      "hit": false,
      "t": 161557.28550000084,
      "d": 61.47537500000908,
      "v": 94
    },
    {
      "midi": 73,
      "hit": false,
      "t": 162540.89150000084,
      "d": 42.008172916655894,
      "v": 86
    },
    {
      "midi": 77,
      "hit": false,
      "t": 162540.89150000084,
      "d": 44.057352083327714,
      "v": 94
    },
    {
      "midi": 80,
      "hit": false,
      "t": 162540.89150000084,
      "d": 56.35242708332953,
      "v": 105
    },
    {
      "midi": 80,
      "hit": false,
      "t": 162786.79300000085,
      "d": 174.18022916666814,
      "v": 119
    },
    {
      "midi": 77,
      "hit": false,
      "t": 162786.79300000085,
      "d": 180.3277666666545,
      "v": 119
    },
    {
      "midi": 73,
      "hit": false,
      "t": 162786.79300000085,
      "d": 188.52448333331267,
      "v": 119
    },
    {
      "midi": 77,
      "hit": false,
      "t": 163032.69450000083,
      "d": 55.32783749999362,
      "v": 97
    },
    {
      "midi": 80,
      "hit": false,
      "t": 163032.69450000083,
      "d": 62.49996458331589,
      "v": 105
    },
    {
      "midi": 73,
      "hit": false,
      "t": 163032.69450000083,
      "d": 63.5245541666518,
      "v": 101
    },
    {
      "midi": 77,
      "hit": false,
      "t": 163278.5960000008,
      "d": 59.42619583333726,
      "v": 109
    },
    {
      "midi": 73,
      "hit": false,
      "t": 163278.5960000008,
      "d": 89.13929374999134,
      "v": 119
    },
    {
      "midi": 80,
      "hit": false,
      "t": 163278.5960000008,
      "d": 97.33601041664951,
      "v": 114
    },
    {
      "midi": 73,
      "hit": false,
      "t": 163401.5467500008,
      "d": 96.31142083334271,
      "v": 73
    },
    {
      "midi": 77,
      "hit": false,
      "t": 163401.5467500008,
      "d": 96.31142083334271,
      "v": 97
    },
    {
      "midi": 77,
      "hit": false,
      "t": 163524.4975000008,
      "d": 25.614739583339542,
      "v": 51
    },
    {
      "midi": 80,
      "hit": false,
      "t": 163524.4975000008,
      "d": 48.155710416671354,
      "v": 79
    },
    {
      "midi": 73,
      "hit": false,
      "t": 163524.4975000008,
      "d": 50.204889583343174,
      "v": 67
    },
    {
      "midi": 73,
      "hit": false,
      "t": 164016.30050000083,
      "d": 71.72127083333908,
      "v": 119
    },
    {
      "midi": 77,
      "hit": false,
      "t": 164016.30050000083,
      "d": 86.06552500001271,
      "v": 114
    },
    {
      "midi": 80,
      "hit": false,
      "t": 164016.30050000083,
      "d": 144.46713125001406,
      "v": 124
    },
    {
      "midi": 73,
      "hit": false,
      "t": 164139.25125000085,
      "d": 77.86880833332543,
      "v": 97
    },
    {
      "midi": 77,
      "hit": false,
      "t": 164139.25125000085,
      "d": 81.96716666666907,
      "v": 105
    },
    {
      "midi": 73,
      "hit": false,
      "t": 164262.20200000083,
      "d": 44.057352083327714,
      "v": 76
    },
    {
      "midi": 77,
      "hit": false,
      "t": 164262.20200000083,
      "d": 49.180300000007264,
      "v": 86
    },
    {
      "midi": 80,
      "hit": false,
      "t": 164262.20200000083,
      "d": 74.7950395833468,
      "v": 89
    },
    {
      "midi": 73,
      "hit": false,
      "t": 164385.15275000085,
      "d": 68.64750208333135,
      "v": 101
    },
    {
      "midi": 77,
      "hit": false,
      "t": 164385.15275000085,
      "d": 68.64750208333135,
      "v": 119
    },
    {
      "midi": 77,
      "hit": false,
      "t": 164508.10350000084,
      "d": 57.37701666666544,
      "v": 105
    },
    {
      "midi": 73,
      "hit": false,
      "t": 164508.10350000084,
      "d": 59.42619583333726,
      "v": 105
    },
    {
      "midi": 80,
      "hit": false,
      "t": 164508.10350000084,
      "d": 61.47537500000908,
      "v": 94
    },
    {
      "midi": 73,
      "hit": false,
      "t": 164999.90650000086,
      "d": 68.64750208333135,
      "v": 101
    },
    {
      "midi": 77,
      "hit": false,
      "t": 164999.90650000086,
      "d": 68.64750208333135,
      "v": 119
    },
    {
      "midi": 77,
      "hit": false,
      "t": 165122.85725000084,
      "d": 57.37701666666544,
      "v": 105
    },
    {
      "midi": 73,
      "hit": false,
      "t": 165122.85725000084,
      "d": 59.42619583333726,
      "v": 105
    },
    {
      "midi": 80,
      "hit": false,
      "t": 165122.85725000084,
      "d": 61.47537500000908,
      "v": 94
    },
    {
      "midi": 75,
      "hit": false,
      "t": 165245.80800000086,
      "d": 59.42619583333726,
      "v": 109
    },
    {
      "midi": 71,
      "hit": false,
      "t": 165245.80800000086,
      "d": 89.13929374999134,
      "v": 119
    },
    {
      "midi": 78,
      "hit": false,
      "t": 165245.80800000086,
      "d": 97.33601041664951,
      "v": 114
    },
    {
      "midi": 71,
      "hit": false,
      "t": 165368.75875000085,
      "d": 96.31142083334271,
      "v": 73
    },
    {
      "midi": 75,
      "hit": false,
      "t": 165368.75875000085,
      "d": 96.31142083334271,
      "v": 97
    },
    {
      "midi": 75,
      "hit": false,
      "t": 165491.70950000087,
      "d": 25.614739583339542,
      "v": 51
    },
    {
      "midi": 78,
      "hit": false,
      "t": 165491.70950000087,
      "d": 48.155710416671354,
      "v": 79
    },
    {
      "midi": 71,
      "hit": false,
      "t": 165491.70950000087,
      "d": 50.204889583343174,
      "v": 67
    },
    {
      "midi": 63,
      "hit": false,
      "t": 166229.4140000009,
      "d": 71.72127083333908,
      "v": 119
    },
    {
      "midi": 66,
      "hit": false,
      "t": 166229.4140000009,
      "d": 86.06552500001271,
      "v": 114
    },
    {
      "midi": 71,
      "hit": false,
      "t": 166229.4140000009,
      "d": 144.46713125001406,
      "v": 124
    },
    {
      "midi": 63,
      "hit": false,
      "t": 166352.3647500009,
      "d": 77.86880833332543,
      "v": 97
    },
    {
      "midi": 66,
      "hit": false,
      "t": 166352.3647500009,
      "d": 81.96716666666907,
      "v": 105
    },
    {
      "midi": 63,
      "hit": false,
      "t": 166475.3155000009,
      "d": 44.057352083327714,
      "v": 76
    },
    {
      "midi": 66,
      "hit": false,
      "t": 166475.3155000009,
      "d": 49.180300000007264,
      "v": 86
    },
    {
      "midi": 71,
      "hit": false,
      "t": 166475.3155000009,
      "d": 74.7950395833468,
      "v": 89
    },
    {
      "midi": 63,
      "hit": false,
      "t": 166598.26625000092,
      "d": 68.64750208333135,
      "v": 101
    },
    {
      "midi": 66,
      "hit": false,
      "t": 166598.26625000092,
      "d": 68.64750208333135,
      "v": 119
    },
    {
      "midi": 63,
      "hit": false,
      "t": 166721.2170000009,
      "d": 71.72127083333908,
      "v": 119
    },
    {
      "midi": 66,
      "hit": false,
      "t": 166721.2170000009,
      "d": 86.06552500001271,
      "v": 114
    },
    {
      "midi": 71,
      "hit": false,
      "t": 166721.2170000009,
      "d": 144.46713125001406,
      "v": 124
    },
    {
      "midi": 63,
      "hit": false,
      "t": 166844.16775000092,
      "d": 77.86880833332543,
      "v": 97
    },
    {
      "midi": 66,
      "hit": false,
      "t": 166844.16775000092,
      "d": 81.96716666666907,
      "v": 105
    },
    {
      "midi": 63,
      "hit": false,
      "t": 166967.1185000009,
      "d": 44.057352083327714,
      "v": 76
    },
    {
      "midi": 66,
      "hit": false,
      "t": 166967.1185000009,
      "d": 49.180300000007264,
      "v": 86
    },
    {
      "midi": 71,
      "hit": false,
      "t": 166967.1185000009,
      "d": 74.7950395833468,
      "v": 89
    },
    {
      "midi": 63,
      "hit": false,
      "t": 167090.06925000093,
      "d": 68.64750208333135,
      "v": 101
    },
    {
      "midi": 66,
      "hit": false,
      "t": 167090.06925000093,
      "d": 68.64750208333135,
      "v": 119
    },
    {
      "midi": 78,
      "hit": false,
      "t": 168196.62600000092,
      "d": 59.42619583333726,
      "v": 109
    },
    {
      "midi": 75,
      "hit": false,
      "t": 168196.62600000092,
      "d": 89.13929374999134,
      "v": 119
    },
    {
      "midi": 82,
      "hit": false,
      "t": 168196.62600000092,
      "d": 97.33601041664951,
      "v": 114
    },
    {
      "midi": 75,
      "hit": false,
      "t": 168319.5767500009,
      "d": 96.31142083334271,
      "v": 73
    },
    {
      "midi": 78,
      "hit": false,
      "t": 168319.5767500009,
      "d": 96.31142083334271,
      "v": 97
    },
    {
      "midi": 78,
      "hit": false,
      "t": 168442.52750000093,
      "d": 25.614739583339542,
      "v": 51
    },
    {
      "midi": 82,
      "hit": false,
      "t": 168442.52750000093,
      "d": 48.155710416671354,
      "v": 79
    },
    {
      "midi": 75,
      "hit": false,
      "t": 168442.52750000093,
      "d": 50.204889583343174,
      "v": 67
    },
    {
      "midi": 75,
      "hit": false,
      "t": 168934.33050000094,
      "d": 71.72127083333908,
      "v": 119
    },
    {
      "midi": 78,
      "hit": false,
      "t": 168934.33050000094,
      "d": 86.06552500001271,
      "v": 114
    },
    {
      "midi": 82,
      "hit": false,
      "t": 168934.33050000094,
      "d": 144.46713125001406,
      "v": 124
    },
    {
      "midi": 75,
      "hit": false,
      "t": 169057.28125000096,
      "d": 77.86880833332543,
      "v": 97
    },
    {
      "midi": 78,
      "hit": false,
      "t": 169057.28125000096,
      "d": 81.96716666666907,
      "v": 105
    },
    {
      "midi": 75,
      "hit": false,
      "t": 169180.23200000095,
      "d": 44.057352083327714,
      "v": 76
    },
    {
      "midi": 78,
      "hit": false,
      "t": 169180.23200000095,
      "d": 49.180300000007264,
      "v": 86
    },
    {
      "midi": 82,
      "hit": false,
      "t": 169180.23200000095,
      "d": 74.7950395833468,
      "v": 89
    },
    {
      "midi": 75,
      "hit": false,
      "t": 169303.18275000097,
      "d": 68.64750208333135,
      "v": 101
    },
    {
      "midi": 78,
      "hit": false,
      "t": 169303.18275000097,
      "d": 68.64750208333135,
      "v": 119
    },
    {
      "midi": 78,
      "hit": false,
      "t": 169426.13350000096,
      "d": 57.37701666666544,
      "v": 105
    },
    {
      "midi": 75,
      "hit": false,
      "t": 169426.13350000096,
      "d": 59.42619583333726,
      "v": 105
    },
    {
      "midi": 82,
      "hit": false,
      "t": 169426.13350000096,
      "d": 61.47537500000908,
      "v": 94
    },
    {
      "midi": 73,
      "hit": false,
      "t": 170409.73950000096,
      "d": 42.008172916655894,
      "v": 86
    },
    {
      "midi": 77,
      "hit": false,
      "t": 170409.73950000096,
      "d": 44.057352083327714,
      "v": 94
    },
    {
      "midi": 80,
      "hit": false,
      "t": 170409.73950000096,
      "d": 56.35242708332953,
      "v": 105
    },
    {
      "midi": 80,
      "hit": false,
      "t": 170655.64100000096,
      "d": 174.18022916666814,
      "v": 119
    },
    {
      "midi": 77,
      "hit": false,
      "t": 170655.64100000096,
      "d": 180.3277666666545,
      "v": 119
    },
    {
      "midi": 73,
      "hit": false,
      "t": 170655.64100000096,
      "d": 188.52448333331267,
      "v": 119
    },
    {
      "midi": 77,
      "hit": false,
      "t": 170901.54250000094,
      "d": 55.32783749999362,
      "v": 97
    },
    {
      "midi": 80,
      "hit": false,
      "t": 170901.54250000094,
      "d": 62.49996458331589,
      "v": 105
    },
    {
      "midi": 73,
      "hit": false,
      "t": 170901.54250000094,
      "d": 63.5245541666518,
      "v": 101
    },
    {
      "midi": 78,
      "hit": false,
      "t": 171147.44400000092,
      "d": 59.42619583333726,
      "v": 109
    },
    {
      "midi": 73,
      "hit": false,
      "t": 171147.44400000092,
      "d": 89.13929374999134,
      "v": 119
    },
    {
      "midi": 82,
      "hit": false,
      "t": 171147.44400000092,
      "d": 97.33601041664951,
      "v": 114
    },
    {
      "midi": 73,
      "hit": false,
      "t": 171270.3947500009,
      "d": 96.31142083334271,
      "v": 73
    },
    {
      "midi": 78,
      "hit": false,
      "t": 171270.3947500009,
      "d": 96.31142083334271,
      "v": 97
    },
    {
      "midi": 78,
      "hit": false,
      "t": 171393.34550000093,
      "d": 25.614739583339542,
      "v": 51
    },
    {
      "midi": 82,
      "hit": false,
      "t": 171393.34550000093,
      "d": 48.155710416671354,
      "v": 79
    },
    {
      "midi": 73,
      "hit": false,
      "t": 171393.34550000093,
      "d": 50.204889583343174,
      "v": 67
    },
    {
      "midi": 73,
      "hit": false,
      "t": 171885.14850000094,
      "d": 71.72127083333908,
      "v": 119
    },
    {
      "midi": 78,
      "hit": false,
      "t": 171885.14850000094,
      "d": 86.06552500001271,
      "v": 114
    },
    {
      "midi": 82,
      "hit": false,
      "t": 171885.14850000094,
      "d": 144.46713125001406,
      "v": 124
    },
    {
      "midi": 73,
      "hit": false,
      "t": 172008.09925000096,
      "d": 77.86880833332543,
      "v": 97
    },
    {
      "midi": 78,
      "hit": false,
      "t": 172008.09925000096,
      "d": 81.96716666666907,
      "v": 105
    },
    {
      "midi": 73,
      "hit": false,
      "t": 172131.05000000095,
      "d": 44.057352083327714,
      "v": 76
    },
    {
      "midi": 78,
      "hit": false,
      "t": 172131.05000000095,
      "d": 49.180300000007264,
      "v": 86
    },
    {
      "midi": 82,
      "hit": false,
      "t": 172131.05000000095,
      "d": 74.7950395833468,
      "v": 89
    },
    {
      "midi": 73,
      "hit": false,
      "t": 172254.00075000097,
      "d": 68.64750208333135,
      "v": 101
    },
    {
      "midi": 78,
      "hit": false,
      "t": 172254.00075000097,
      "d": 68.64750208333135,
      "v": 119
    },
    {
      "midi": 78,
      "hit": false,
      "t": 172376.95150000096,
      "d": 57.37701666666544,
      "v": 105
    },
    {
      "midi": 73,
      "hit": false,
      "t": 172376.95150000096,
      "d": 59.42619583333726,
      "v": 105
    },
    {
      "midi": 82,
      "hit": false,
      "t": 172376.95150000096,
      "d": 61.47537500000908,
      "v": 94
    },
    {
      "midi": 73,
      "hit": false,
      "t": 172868.75450000097,
      "d": 68.64750208333135,
      "v": 101
    },
    {
      "midi": 78,
      "hit": false,
      "t": 172868.75450000097,
      "d": 68.64750208333135,
      "v": 119
    },
    {
      "midi": 78,
      "hit": false,
      "t": 172991.70525000096,
      "d": 57.37701666666544,
      "v": 105
    },
    {
      "midi": 73,
      "hit": false,
      "t": 172991.70525000096,
      "d": 59.42619583333726,
      "v": 105
    },
    {
      "midi": 82,
      "hit": false,
      "t": 172991.70525000096,
      "d": 61.47537500000908,
      "v": 94
    },
    {
      "midi": 75,
      "hit": false,
      "t": 173114.65600000098,
      "d": 59.42619583333726,
      "v": 109
    },
    {
      "midi": 72,
      "hit": false,
      "t": 173114.65600000098,
      "d": 89.13929374999134,
      "v": 119
    },
    {
      "midi": 80,
      "hit": false,
      "t": 173114.65600000098,
      "d": 97.33601041664951,
      "v": 114
    },
    {
      "midi": 72,
      "hit": false,
      "t": 173237.60675000097,
      "d": 96.31142083334271,
      "v": 73
    },
    {
      "midi": 75,
      "hit": false,
      "t": 173237.60675000097,
      "d": 96.31142083334271,
      "v": 97
    },
    {
      "midi": 75,
      "hit": false,
      "t": 173360.55750000098,
      "d": 25.614739583339542,
      "v": 51
    },
    {
      "midi": 80,
      "hit": false,
      "t": 173360.55750000098,
      "d": 48.155710416671354,
      "v": 79
    },
    {
      "midi": 72,
      "hit": false,
      "t": 173360.55750000098,
      "d": 50.204889583343174,
      "v": 67
    },
    {
      "midi": 72,
      "hit": false,
      "t": 173852.360500001,
      "d": 71.72127083333908,
      "v": 119
    },
    {
      "midi": 75,
      "hit": false,
      "t": 173852.360500001,
      "d": 86.06552500001271,
      "v": 114
    },
    {
      "midi": 80,
      "hit": false,
      "t": 173852.360500001,
      "d": 144.46713125001406,
      "v": 124
    },
    {
      "midi": 72,
      "hit": false,
      "t": 173975.31125000102,
      "d": 77.86880833332543,
      "v": 97
    },
    {
      "midi": 75,
      "hit": false,
      "t": 173975.31125000102,
      "d": 81.96716666666907,
      "v": 105
    },
    {
      "midi": 72,
      "hit": false,
      "t": 174098.262000001,
      "d": 44.057352083327714,
      "v": 76
    },
    {
      "midi": 75,
      "hit": false,
      "t": 174098.262000001,
      "d": 49.180300000007264,
      "v": 86
    },
    {
      "midi": 80,
      "hit": false,
      "t": 174098.262000001,
      "d": 74.7950395833468,
      "v": 89
    },
    {
      "midi": 72,
      "hit": false,
      "t": 174221.21275000102,
      "d": 68.64750208333135,
      "v": 101
    },
    {
      "midi": 75,
      "hit": false,
      "t": 174221.21275000102,
      "d": 68.64750208333135,
      "v": 119
    },
    {
      "midi": 75,
      "hit": false,
      "t": 174344.163500001,
      "d": 57.37701666666544,
      "v": 105
    },
    {
      "midi": 72,
      "hit": false,
      "t": 174344.163500001,
      "d": 59.42619583333726,
      "v": 105
    },
    {
      "midi": 80,
      "hit": false,
      "t": 174344.163500001,
      "d": 61.47537500000908,
      "v": 94
    },
    {
      "midi": 72,
      "hit": false,
      "t": 174835.96650000103,
      "d": 68.64750208333135,
      "v": 101
    },
    {
      "midi": 75,
      "hit": false,
      "t": 174835.96650000103,
      "d": 68.64750208333135,
      "v": 119
    },
    {
      "midi": 75,
      "hit": false,
      "t": 174958.91725000102,
      "d": 57.37701666666544,
      "v": 105
    },
    {
      "midi": 72,
      "hit": false,
      "t": 174958.91725000102,
      "d": 59.42619583333726,
      "v": 105
    },
    {
      "midi": 80,
      "hit": false,
      "t": 174958.91725000102,
      "d": 61.47537500000908,
      "v": 94
    },
    {
      "midi": 63,
      "hit": false,
      "t": 175081.8680000006,
      "d": 1861.679272916721,
      "v": 114
    },
    {
      "midi": 66,
      "hit": false,
      "t": 175327.7695000006,
      "d": 631.147183333349,
      "v": 89
    },
    {
      "midi": 70,
      "hit": false,
      "t": 175573.6710000006,
      "d": 537.909531250014,
      "v": 67
    },
    {
      "midi": 78,
      "hit": false,
      "t": 175819.57250000062,
      "d": 1136.269847916701,
      "v": 114
    },
    {
      "midi": 66,
      "hit": false,
      "t": 176065.47400000063,
      "d": 908.8109604166821,
      "v": 89
    },
    {
      "midi": 78,
      "hit": false,
      "t": 176065.47400000104,
      "d": 59.42619583333726,
      "v": 109
    },
    {
      "midi": 75,
      "hit": false,
      "t": 176065.47400000104,
      "d": 89.13929374999134,
      "v": 119
    },
    {
      "midi": 82,
      "hit": false,
      "t": 176065.47400000104,
      "d": 97.33601041664951,
      "v": 114
    },
    {
      "midi": 75,
      "hit": false,
      "t": 176188.42475000102,
      "d": 96.31142083334271,
      "v": 73
    },
    {
      "midi": 78,
      "hit": false,
      "t": 176188.42475000102,
      "d": 96.31142083334271,
      "v": 97
    },
    {
      "midi": 70,
      "hit": false,
      "t": 176311.37550000063,
      "d": 373.9751979166758,
      "v": 70
    },
    {
      "midi": 78,
      "hit": false,
      "t": 176311.37550000104,
      "d": 25.614739583339542,
      "v": 51
    },
    {
      "midi": 82,
      "hit": false,
      "t": 176311.37550000104,
      "d": 48.155710416671354,
      "v": 79
    },
    {
      "midi": 75,
      "hit": false,
      "t": 176311.37550000104,
      "d": 50.204889583343174,
      "v": 67
    },
    {
      "midi": 75,
      "hit": false,
      "t": 176557.27700000064,
      "d": 369.8768395833322,
      "v": 73
    },
    {
      "midi": 70,
      "hit": false,
      "t": 176803.17850000065,
      "d": 106.5573166666727,
      "v": 51
    },
    {
      "midi": 75,
      "hit": false,
      "t": 176803.17850000106,
      "d": 71.72127083333908,
      "v": 119
    },
    {
      "midi": 78,
      "hit": false,
      "t": 176803.17850000106,
      "d": 86.06552500001271,
      "v": 114
    },
    {
      "midi": 82,
      "hit": false,
      "t": 176803.17850000106,
      "d": 144.46713125001406,
      "v": 124
    },
    {
      "midi": 75,
      "hit": false,
      "t": 176926.12925000107,
      "d": 77.86880833332543,
      "v": 97
    },
    {
      "midi": 78,
      "hit": false,
      "t": 176926.12925000107,
      "d": 81.96716666666907,
      "v": 105
    },
    {
      "midi": 61,
      "hit": false,
      "t": 177049.08000000066,
      "d": 1797.130129166675,
      "v": 105
    },
    {
      "midi": 75,
      "hit": false,
      "t": 177049.08000000106,
      "d": 44.057352083327714,
      "v": 76
    },
    {
      "midi": 78,
      "hit": false,
      "t": 177049.08000000106,
      "d": 49.180300000007264,
      "v": 86
    },
    {
      "midi": 82,
      "hit": false,
      "t": 177049.08000000106,
      "d": 74.7950395833468,
      "v": 89
    },
    {
      "midi": 75,
      "hit": false,
      "t": 177172.03075000108,
      "d": 68.64750208333135,
      "v": 101
    },
    {
      "midi": 78,
      "hit": false,
      "t": 177172.03075000108,
      "d": 68.64750208333135,
      "v": 119
    },
    {
      "midi": 68,
      "hit": false,
      "t": 177294.98150000066,
      "d": 1325.8189208333497,
      "v": 94
    },
    {
      "midi": 78,
      "hit": false,
      "t": 177294.98150000107,
      "d": 57.37701666666544,
      "v": 105
    },
    {
      "midi": 75,
      "hit": false,
      "t": 177294.98150000107,
      "d": 59.42619583333726,
      "v": 105
    },
    {
      "midi": 82,
      "hit": false,
      "t": 177294.98150000107,
      "d": 61.47537500000908,
      "v": 94
    },
    {
      "midi": 73,
      "hit": false,
      "t": 177540.88300000067,
      "d": 342.2129208333499,
      "v": 97
    },
    {
      "midi": 80,
      "hit": false,
      "t": 177786.78450000068,
      "d": 1191.5976854166365,
      "v": 119
    },
    {
      "midi": 73,
      "hit": false,
      "t": 178032.6860000007,
      "d": 321.72112916666083,
      "v": 89
    },
    {
      "midi": 77,
      "hit": false,
      "t": 178278.5875000007,
      "d": 663.9340499999525,
      "v": 94
    },
    {
      "midi": 73,
      "hit": false,
      "t": 178278.58750000107,
      "d": 42.008172916655894,
      "v": 86
    },
    {
      "midi": 77,
      "hit": false,
      "t": 178278.58750000107,
      "d": 44.057352083327714,
      "v": 94
    },
    {
      "midi": 80,
      "hit": false,
      "t": 178278.58750000107,
      "d": 56.35242708332953,
      "v": 105
    },
    {
      "midi": 73,
      "hit": false,
      "t": 178524.48900000067,
      "d": 410.86042291665217,
      "v": 76
    },
    {
      "midi": 80,
      "hit": false,
      "t": 178524.48900000108,
      "d": 174.18022916666814,
      "v": 119
    },
    {
      "midi": 77,
      "hit": false,
      "t": 178524.48900000108,
      "d": 180.3277666666545,
      "v": 119
    },
    {
      "midi": 73,
      "hit": false,
      "t": 178524.48900000108,
      "d": 188.52448333331267,
      "v": 119
    },
    {
      "midi": 68,
      "hit": false,
      "t": 178770.39050000068,
      "d": 174.18022916663904,
      "v": 55
    },
    {
      "midi": 77,
      "hit": false,
      "t": 178770.39050000106,
      "d": 55.32783749999362,
      "v": 97
    },
    {
      "midi": 80,
      "hit": false,
      "t": 178770.39050000106,
      "d": 62.49996458331589,
      "v": 105
    },
    {
      "midi": 73,
      "hit": false,
      "t": 178770.39050000106,
      "d": 63.5245541666518,
      "v": 101
    },
    {
      "midi": 58,
      "hit": false,
      "t": 179016.29200000066,
      "d": 1797.130129166675,
      "v": 105
    },
    {
      "midi": 77,
      "hit": false,
      "t": 179016.29200000103,
      "d": 59.42619583333726,
      "v": 109
    },
    {
      "midi": 73,
      "hit": false,
      "t": 179016.29200000103,
      "d": 89.13929374999134,
      "v": 119
    },
    {
      "midi": 80,
      "hit": false,
      "t": 179016.29200000103,
      "d": 97.33601041664951,
      "v": 114
    },
    {
      "midi": 73,
      "hit": false,
      "t": 179139.24275000102,
      "d": 96.31142083334271,
      "v": 73
    },
    {
      "midi": 77,
      "hit": false,
      "t": 179139.24275000102,
      "d": 96.31142083334271,
      "v": 97
    },
    {
      "midi": 65,
      "hit": false,
      "t": 179262.19350000066,
      "d": 1325.8189208333497,
      "v": 94
    },
    {
      "midi": 77,
      "hit": false,
      "t": 179262.19350000104,
      "d": 25.614739583339542,
      "v": 51
    },
    {
      "midi": 80,
      "hit": false,
      "t": 179262.19350000104,
      "d": 48.155710416671354,
      "v": 79
    },
    {
      "midi": 73,
      "hit": false,
      "t": 179262.19350000104,
      "d": 50.204889583343174,
      "v": 67
    },
    {
      "midi": 73,
      "hit": false,
      "t": 179508.09500000067,
      "d": 342.2129208333499,
      "v": 97
    },
    {
      "midi": 80,
      "hit": false,
      "t": 179753.99650000068,
      "d": 1191.5976854166365,
      "v": 119
    },
    {
      "midi": 73,
      "hit": false,
      "t": 179753.99650000106,
      "d": 71.72127083333908,
      "v": 119
    },
    {
      "midi": 77,
      "hit": false,
      "t": 179753.99650000106,
      "d": 86.06552500001271,
      "v": 114
    },
    {
      "midi": 80,
      "hit": false,
      "t": 179753.99650000106,
      "d": 144.46713125001406,
      "v": 124
    },
    {
      "midi": 73,
      "hit": false,
      "t": 179876.94725000107,
      "d": 77.86880833332543,
      "v": 97
    },
    {
      "midi": 77,
      "hit": false,
      "t": 179876.94725000107,
      "d": 81.96716666666907,
      "v": 105
    },
    {
      "midi": 73,
      "hit": false,
      "t": 179999.89800000068,
      "d": 321.72112916666083,
      "v": 89
    },
    {
      "midi": 73,
      "hit": false,
      "t": 179999.89800000106,
      "d": 44.057352083327714,
      "v": 76
    },
    {
      "midi": 77,
      "hit": false,
      "t": 179999.89800000106,
      "d": 49.180300000007264,
      "v": 86
    },
    {
      "midi": 80,
      "hit": false,
      "t": 179999.89800000106,
      "d": 74.7950395833468,
      "v": 89
    },
    {
      "midi": 73,
      "hit": false,
      "t": 180122.84875000108,
      "d": 68.64750208333135,
      "v": 101
    },
    {
      "midi": 77,
      "hit": false,
      "t": 180122.84875000108,
      "d": 68.64750208333135,
      "v": 119
    },
    {
      "midi": 77,
      "hit": false,
      "t": 180245.7995000007,
      "d": 663.9340499999525,
      "v": 94
    },
    {
      "midi": 77,
      "hit": false,
      "t": 180245.79950000107,
      "d": 57.37701666666544,
      "v": 105
    },
    {
      "midi": 73,
      "hit": false,
      "t": 180245.79950000107,
      "d": 59.42619583333726,
      "v": 105
    },
    {
      "midi": 80,
      "hit": false,
      "t": 180245.79950000107,
      "d": 61.47537500000908,
      "v": 94
    },
    {
      "midi": 73,
      "hit": false,
      "t": 180491.70100000067,
      "d": 410.86042291665217,
      "v": 76
    },
    {
      "midi": 65,
      "hit": false,
      "t": 180737.60250000068,
      "d": 174.18022916663904,
      "v": 55
    },
    {
      "midi": 73,
      "hit": false,
      "t": 180737.60250000108,
      "d": 68.64750208333135,
      "v": 101
    },
    {
      "midi": 77,
      "hit": false,
      "t": 180737.60250000108,
      "d": 68.64750208333135,
      "v": 119
    },
    {
      "midi": 77,
      "hit": false,
      "t": 180860.55325000107,
      "d": 57.37701666666544,
      "v": 105
    },
    {
      "midi": 73,
      "hit": false,
      "t": 180860.55325000107,
      "d": 59.42619583333726,
      "v": 105
    },
    {
      "midi": 80,
      "hit": false,
      "t": 180860.55325000107,
      "d": 61.47537500000908,
      "v": 94
    },
    {
      "midi": 59,
      "hit": false,
      "t": 180983.50400000066,
      "d": 861.6798395833466,
      "v": 104
    },
    {
      "midi": 75,
      "hit": false,
      "t": 180983.5040000011,
      "d": 59.42619583333726,
      "v": 109
    },
    {
      "midi": 71,
      "hit": false,
      "t": 180983.5040000011,
      "d": 89.13929374999134,
      "v": 119
    },
    {
      "midi": 78,
      "hit": false,
      "t": 180983.5040000011,
      "d": 97.33601041664951,
      "v": 114
    },
    {
      "midi": 71,
      "hit": false,
      "t": 181106.45475000108,
      "d": 96.31142083334271,
      "v": 73
    },
    {
      "midi": 75,
      "hit": false,
      "t": 181106.45475000108,
      "d": 96.31142083334271,
      "v": 97
    },
    {
      "midi": 71,
      "hit": false,
      "t": 181229.40550000066,
      "d": 734.6307312500139,
      "v": 88
    },
    {
      "midi": 75,
      "hit": false,
      "t": 181229.4055000011,
      "d": 25.614739583339542,
      "v": 51
    },
    {
      "midi": 78,
      "hit": false,
      "t": 181229.4055000011,
      "d": 48.155710416671354,
      "v": 79
    },
    {
      "midi": 71,
      "hit": false,
      "t": 181229.4055000011,
      "d": 50.204889583343174,
      "v": 67
    },
    {
      "midi": 75,
      "hit": false,
      "t": 181475.30700000067,
      "d": 293.03262083334266,
      "v": 62
    },
    {
      "midi": 78,
      "hit": false,
      "t": 181721.20850000068,
      "d": 516.3931500000181,
      "v": 109
    },
    {
      "midi": 59,
      "hit": false,
      "t": 181967.11000000068,
      "d": 807.3765916666598,
      "v": 100
    },
    {
      "midi": 63,
      "hit": false,
      "t": 181967.11000000112,
      "d": 71.72127083333908,
      "v": 119
    },
    {
      "midi": 66,
      "hit": false,
      "t": 181967.11000000112,
      "d": 86.06552500001271,
      "v": 114
    },
    {
      "midi": 71,
      "hit": false,
      "t": 181967.11000000112,
      "d": 144.46713125001406,
      "v": 124
    },
    {
      "midi": 63,
      "hit": false,
      "t": 182090.06075000114,
      "d": 77.86880833332543,
      "v": 97
    },
    {
      "midi": 66,
      "hit": false,
      "t": 182090.06075000114,
      "d": 81.96716666666907,
      "v": 105
    },
    {
      "midi": 71,
      "hit": false,
      "t": 182213.0115000007,
      "d": 193.64743124999222,
      "v": 96
    },
    {
      "midi": 63,
      "hit": false,
      "t": 182213.01150000113,
      "d": 44.057352083327714,
      "v": 76
    },
    {
      "midi": 66,
      "hit": false,
      "t": 182213.01150000113,
      "d": 49.180300000007264,
      "v": 86
    },
    {
      "midi": 71,
      "hit": false,
      "t": 182213.01150000113,
      "d": 74.7950395833468,
      "v": 89
    },
    {
      "midi": 63,
      "hit": false,
      "t": 182335.96225000115,
      "d": 68.64750208333135,
      "v": 101
    },
    {
      "midi": 66,
      "hit": false,
      "t": 182335.96225000115,
      "d": 68.64750208333135,
      "v": 119
    },
    {
      "midi": 80,
      "hit": false,
      "t": 182458.91300000067,
      "d": 268.44247083333903,
      "v": 97
    },
    {
      "midi": 63,
      "hit": false,
      "t": 182458.91300000114,
      "d": 71.72127083333908,
      "v": 119
    },
    {
      "midi": 66,
      "hit": false,
      "t": 182458.91300000114,
      "d": 86.06552500001271,
      "v": 114
    },
    {
      "midi": 71,
      "hit": false,
      "t": 182458.91300000114,
      "d": 144.46713125001406,
      "v": 124
    },
    {
      "midi": 63,
      "hit": false,
      "t": 182581.86375000115,
      "d": 77.86880833332543,
      "v": 97
    },
    {
      "midi": 66,
      "hit": false,
      "t": 182581.86375000115,
      "d": 81.96716666666907,
      "v": 105
    },
    {
      "midi": 78,
      "hit": false,
      "t": 182704.81450000068,
      "d": 50.204889583343174,
      "v": 89
    },
    {
      "midi": 63,
      "hit": false,
      "t": 182704.81450000114,
      "d": 44.057352083327714,
      "v": 76
    },
    {
      "midi": 66,
      "hit": false,
      "t": 182704.81450000114,
      "d": 49.180300000007264,
      "v": 86
    },
    {
      "midi": 71,
      "hit": false,
      "t": 182704.81450000114,
      "d": 74.7950395833468,
      "v": 89
    },
    {
      "midi": 63,
      "hit": false,
      "t": 182827.76525000116,
      "d": 68.64750208333135,
      "v": 101
    },
    {
      "midi": 66,
      "hit": false,
      "t": 182827.76525000116,
      "d": 68.64750208333135,
      "v": 119
    },
    {
      "midi": 82,
      "hit": false,
      "t": 182950.71600000068,
      "d": 691.5979687500221,
      "v": 101
    },
    {
      "midi": 63,
      "hit": false,
      "t": 182950.71600000068,
      "d": 1838.1137125000241,
      "v": 101
    },
    {
      "midi": 70,
      "hit": false,
      "t": 183196.6175000007,
      "d": 591.1881895833358,
      "v": 76
    },
    {
      "midi": 78,
      "hit": false,
      "t": 183442.5190000007,
      "d": 514.3439708333171,
      "v": 67
    },
    {
      "midi": 87,
      "hit": false,
      "t": 183688.4205000007,
      "d": 1100.4092125000025,
      "v": 109
    },
    {
      "midi": 70,
      "hit": false,
      "t": 183934.32200000068,
      "d": 885.2454000000434,
      "v": 86
    },
    {
      "midi": 78,
      "hit": false,
      "t": 183934.32200000115,
      "d": 59.42619583333726,
      "v": 109
    },
    {
      "midi": 75,
      "hit": false,
      "t": 183934.32200000115,
      "d": 89.13929374999134,
      "v": 119
    },
    {
      "midi": 82,
      "hit": false,
      "t": 183934.32200000115,
      "d": 97.33601041664951,
      "v": 114
    },
    {
      "midi": 75,
      "hit": false,
      "t": 184057.27275000114,
      "d": 96.31142083334271,
      "v": 73
    },
    {
      "midi": 78,
      "hit": false,
      "t": 184057.27275000114,
      "d": 96.31142083334271,
      "v": 97
    },
    {
      "midi": 78,
      "hit": false,
      "t": 184180.2235000007,
      "d": 308.4014645833522,
      "v": 79
    },
    {
      "midi": 78,
      "hit": false,
      "t": 184180.22350000116,
      "d": 25.614739583339542,
      "v": 51
    },
    {
      "midi": 82,
      "hit": false,
      "t": 184180.22350000116,
      "d": 48.155710416671354,
      "v": 79
    },
    {
      "midi": 75,
      "hit": false,
      "t": 184180.22350000116,
      "d": 50.204889583343174,
      "v": 67
    },
    {
      "midi": 82,
      "hit": false,
      "t": 184426.1250000007,
      "d": 327.8686666666763,
      "v": 94
    },
    {
      "midi": 78,
      "hit": false,
      "t": 184672.0265000007,
      "d": 131.14746666667634,
      "v": 73
    },
    {
      "midi": 75,
      "hit": false,
      "t": 184672.02650000117,
      "d": 71.72127083333908,
      "v": 119
    },
    {
      "midi": 78,
      "hit": false,
      "t": 184672.02650000117,
      "d": 86.06552500001271,
      "v": 114
    },
    {
      "midi": 82,
      "hit": false,
      "t": 184672.02650000117,
      "d": 144.46713125001406,
      "v": 124
    },
    {
      "midi": 75,
      "hit": false,
      "t": 184794.9772500012,
      "d": 77.86880833332543,
      "v": 97
    },
    {
      "midi": 78,
      "hit": false,
      "t": 184794.9772500012,
      "d": 81.96716666666907,
      "v": 105
    },
    {
      "midi": 61,
      "hit": false,
      "t": 184917.92800000074,
      "d": 1797.130129166675,
      "v": 105
    },
    {
      "midi": 75,
      "hit": false,
      "t": 184917.92800000118,
      "d": 44.057352083327714,
      "v": 76
    },
    {
      "midi": 78,
      "hit": false,
      "t": 184917.92800000118,
      "d": 49.180300000007264,
      "v": 86
    },
    {
      "midi": 82,
      "hit": false,
      "t": 184917.92800000118,
      "d": 74.7950395833468,
      "v": 89
    },
    {
      "midi": 75,
      "hit": false,
      "t": 185040.8787500012,
      "d": 68.64750208333135,
      "v": 101
    },
    {
      "midi": 78,
      "hit": false,
      "t": 185040.8787500012,
      "d": 68.64750208333135,
      "v": 119
    },
    {
      "midi": 68,
      "hit": false,
      "t": 185163.82950000075,
      "d": 1325.8189208333497,
      "v": 94
    },
    {
      "midi": 78,
      "hit": false,
      "t": 185163.8295000012,
      "d": 57.37701666666544,
      "v": 105
    },
    {
      "midi": 75,
      "hit": false,
      "t": 185163.8295000012,
      "d": 59.42619583333726,
      "v": 105
    },
    {
      "midi": 82,
      "hit": false,
      "t": 185163.8295000012,
      "d": 61.47537500000908,
      "v": 94
    },
    {
      "midi": 73,
      "hit": false,
      "t": 185409.73100000076,
      "d": 342.2129208333499,
      "v": 97
    },
    {
      "midi": 80,
      "hit": false,
      "t": 185655.63250000076,
      "d": 1191.5976854166656,
      "v": 119
    },
    {
      "midi": 73,
      "hit": false,
      "t": 185901.53400000077,
      "d": 321.72112916666083,
      "v": 89
    },
    {
      "midi": 77,
      "hit": false,
      "t": 186147.43550000078,
      "d": 663.9340499999817,
      "v": 94
    },
    {
      "midi": 73,
      "hit": false,
      "t": 186147.4355000012,
      "d": 42.008172916655894,
      "v": 86
    },
    {
      "midi": 77,
      "hit": false,
      "t": 186147.4355000012,
      "d": 44.057352083327714,
      "v": 94
    },
    {
      "midi": 80,
      "hit": false,
      "t": 186147.4355000012,
      "d": 56.35242708332953,
      "v": 105
    },
    {
      "midi": 80,
      "hit": false,
      "t": 186393.3370000012,
      "d": 174.18022916666814,
      "v": 119
    },
    {
      "midi": 77,
      "hit": false,
      "t": 186393.3370000012,
      "d": 180.3277666666545,
      "v": 119
    },
    {
      "midi": 73,
      "hit": false,
      "t": 186393.3370000012,
      "d": 188.52448333331267,
      "v": 119
    },
    {
      "midi": 68,
      "hit": false,
      "t": 186639.23850000076,
      "d": 287.9096729166631,
      "v": 76
    },
    {
      "midi": 77,
      "hit": false,
      "t": 186639.23850000117,
      "d": 55.32783749999362,
      "v": 97
    },
    {
      "midi": 80,
      "hit": false,
      "t": 186639.23850000117,
      "d": 62.49996458331589,
      "v": 105
    },
    {
      "midi": 73,
      "hit": false,
      "t": 186639.23850000117,
      "d": 63.5245541666518,
      "v": 101
    },
    {
      "midi": 82,
      "hit": false,
      "t": 186885.14000000077,
      "d": 424.1800874999899,
      "v": 105
    },
    {
      "midi": 66,
      "hit": false,
      "t": 186885.14000000077,
      "d": 1892.416960416711,
      "v": 97
    },
    {
      "midi": 78,
      "hit": false,
      "t": 186885.14000000115,
      "d": 59.42619583333726,
      "v": 109
    },
    {
      "midi": 73,
      "hit": false,
      "t": 186885.14000000115,
      "d": 89.13929374999134,
      "v": 119
    },
    {
      "midi": 82,
      "hit": false,
      "t": 186885.14000000115,
      "d": 97.33601041664951,
      "v": 114
    },
    {
      "midi": 73,
      "hit": false,
      "t": 187008.09075000114,
      "d": 96.31142083334271,
      "v": 73
    },
    {
      "midi": 78,
      "hit": false,
      "t": 187008.09075000114,
      "d": 96.31142083334271,
      "v": 97
    },
    {
      "midi": 78,
      "hit": false,
      "t": 187131.04150000075,
      "d": 259.22116458334494,
      "v": 60
    },
    {
      "midi": 78,
      "hit": false,
      "t": 187131.04150000116,
      "d": 25.614739583339542,
      "v": 51
    },
    {
      "midi": 82,
      "hit": false,
      "t": 187131.04150000116,
      "d": 48.155710416671354,
      "v": 79
    },
    {
      "midi": 73,
      "hit": false,
      "t": 187131.04150000116,
      "d": 50.204889583343174,
      "v": 67
    },
    {
      "midi": 73,
      "hit": false,
      "t": 187376.94300000076,
      "d": 481.55710416668444,
      "v": 55
    },
    {
      "midi": 82,
      "hit": false,
      "t": 187622.84450000076,
      "d": 1192.6222750000597,
      "v": 114
    },
    {
      "midi": 73,
      "hit": false,
      "t": 187622.84450000117,
      "d": 71.72127083333908,
      "v": 119
    },
    {
      "midi": 78,
      "hit": false,
      "t": 187622.84450000117,
      "d": 86.06552500001271,
      "v": 114
    },
    {
      "midi": 82,
      "hit": false,
      "t": 187622.84450000117,
      "d": 144.46713125001406,
      "v": 124
    },
    {
      "midi": 73,
      "hit": false,
      "t": 187745.7952500012,
      "d": 77.86880833332543,
      "v": 97
    },
    {
      "midi": 78,
      "hit": false,
      "t": 187745.7952500012,
      "d": 81.96716666666907,
      "v": 105
    },
    {
      "midi": 78,
      "hit": false,
      "t": 187868.74600000077,
      "d": 302.25392708333675,
      "v": 66
    },
    {
      "midi": 73,
      "hit": false,
      "t": 187868.74600000118,
      "d": 44.057352083327714,
      "v": 76
    },
    {
      "midi": 78,
      "hit": false,
      "t": 187868.74600000118,
      "d": 49.180300000007264,
      "v": 86
    },
    {
      "midi": 82,
      "hit": false,
      "t": 187868.74600000118,
      "d": 74.7950395833468,
      "v": 89
    },
    {
      "midi": 73,
      "hit": false,
      "t": 187991.6967500012,
      "d": 68.64750208333135,
      "v": 101
    },
    {
      "midi": 78,
      "hit": false,
      "t": 187991.6967500012,
      "d": 68.64750208333135,
      "v": 119
    },
    {
      "midi": 73,
      "hit": false,
      "t": 188114.64750000078,
      "d": 315.5735916666745,
      "v": 82
    },
    {
      "midi": 78,
      "hit": false,
      "t": 188114.64750000119,
      "d": 57.37701666666544,
      "v": 105
    },
    {
      "midi": 73,
      "hit": false,
      "t": 188114.64750000119,
      "d": 59.42619583333726,
      "v": 105
    },
    {
      "midi": 82,
      "hit": false,
      "t": 188114.64750000119,
      "d": 61.47537500000908,
      "v": 94
    },
    {
      "midi": 78,
      "hit": false,
      "t": 188360.54900000078,
      "d": 412.9096020833531,
      "v": 66
    },
    {
      "midi": 73,
      "hit": false,
      "t": 188606.4505000008,
      "d": 164.95892291667406,
      "v": 70
    },
    {
      "midi": 73,
      "hit": false,
      "t": 188606.4505000012,
      "d": 68.64750208333135,
      "v": 101
    },
    {
      "midi": 78,
      "hit": false,
      "t": 188606.4505000012,
      "d": 68.64750208333135,
      "v": 119
    },
    {
      "midi": 78,
      "hit": false,
      "t": 188729.4012500012,
      "d": 57.37701666666544,
      "v": 105
    },
    {
      "midi": 73,
      "hit": false,
      "t": 188729.4012500012,
      "d": 59.42619583333726,
      "v": 105
    },
    {
      "midi": 82,
      "hit": false,
      "t": 188729.4012500012,
      "d": 61.47537500000908,
      "v": 94
    },
    {
      "midi": 72,
      "hit": false,
      "t": 188852.35200000083,
      "d": 1613.7285937500128,
      "v": 70
    },
    {
      "midi": 75,
      "hit": false,
      "t": 188852.35200000083,
      "d": 1648.5646395833464,
      "v": 94
    },
    {
      "midi": 80,
      "hit": false,
      "t": 188852.35200000083,
      "d": 1648.5646395833464,
      "v": 94
    },
    {
      "midi": 56,
      "hit": false,
      "t": 188852.35200000083,
      "d": 1659.8351250000123,
      "v": 105
    },
    {
      "midi": 63,
      "hit": false,
      "t": 188852.35200000083,
      "d": 1671.1056104166782,
      "v": 109
    },
    {
      "midi": 75,
      "hit": false,
      "t": 188852.3520000012,
      "d": 59.42619583333726,
      "v": 109
    },
    {
      "midi": 72,
      "hit": false,
      "t": 188852.3520000012,
      "d": 89.13929374999134,
      "v": 119
    },
    {
      "midi": 80,
      "hit": false,
      "t": 188852.3520000012,
      "d": 97.33601041664951,
      "v": 114
    },
    {
      "midi": 72,
      "hit": false,
      "t": 188975.3027500012,
      "d": 96.31142083334271,
      "v": 73
    },
    {
      "midi": 75,
      "hit": false,
      "t": 188975.3027500012,
      "d": 96.31142083334271,
      "v": 97
    },
    {
      "midi": 75,
      "hit": false,
      "t": 189098.2535000012,
      "d": 25.614739583339542,
      "v": 51
    },
    {
      "midi": 80,
      "hit": false,
      "t": 189098.2535000012,
      "d": 48.155710416671354,
      "v": 79
    },
    {
      "midi": 72,
      "hit": false,
      "t": 189098.2535000012,
      "d": 50.204889583343174,
      "v": 67
    },
    {
      "midi": 72,
      "hit": false,
      "t": 189590.05650000123,
      "d": 71.72127083333908,
      "v": 119
    },
    {
      "midi": 75,
      "hit": false,
      "t": 189590.05650000123,
      "d": 86.06552500001271,
      "v": 114
    },
    {
      "midi": 80,
      "hit": false,
      "t": 189590.05650000123,
      "d": 144.46713125001406,
      "v": 124
    },
    {
      "midi": 72,
      "hit": false,
      "t": 189713.00725000125,
      "d": 77.86880833332543,
      "v": 97
    },
    {
      "midi": 75,
      "hit": false,
      "t": 189713.00725000125,
      "d": 81.96716666666907,
      "v": 105
    },
    {
      "midi": 72,
      "hit": false,
      "t": 189835.95800000124,
      "d": 44.057352083327714,
      "v": 76
    },
    {
      "midi": 75,
      "hit": false,
      "t": 189835.95800000124,
      "d": 49.180300000007264,
      "v": 86
    },
    {
      "midi": 80,
      "hit": false,
      "t": 189835.95800000124,
      "d": 74.7950395833468,
      "v": 89
    },
    {
      "midi": 72,
      "hit": false,
      "t": 189958.90875000125,
      "d": 68.64750208333135,
      "v": 101
    },
    {
      "midi": 75,
      "hit": false,
      "t": 189958.90875000125,
      "d": 68.64750208333135,
      "v": 119
    },
    {
      "midi": 75,
      "hit": false,
      "t": 190081.85950000124,
      "d": 57.37701666666544,
      "v": 105
    },
    {
      "midi": 72,
      "hit": false,
      "t": 190081.85950000124,
      "d": 59.42619583333726,
      "v": 105
    },
    {
      "midi": 80,
      "hit": false,
      "t": 190081.85950000124,
      "d": 61.47537500000908,
      "v": 94
    },
    {
      "midi": 72,
      "hit": false,
      "t": 190573.66250000126,
      "d": 68.64750208333135,
      "v": 101
    },
    {
      "midi": 75,
      "hit": false,
      "t": 190573.66250000126,
      "d": 68.64750208333135,
      "v": 119
    },
    {
      "midi": 75,
      "hit": false,
      "t": 190696.61325000125,
      "d": 57.37701666666544,
      "v": 105
    },
    {
      "midi": 72,
      "hit": false,
      "t": 190696.61325000125,
      "d": 59.42619583333726,
      "v": 105
    },
    {
      "midi": 80,
      "hit": false,
      "t": 190696.61325000125,
      "d": 61.47537500000908,
      "v": 94
    },
    {
      "midi": 63,
      "hit": false,
      "t": 190819.56400000083,
      "d": 1861.679272916721,
      "v": 114
    },
    {
      "midi": 66,
      "hit": false,
      "t": 191065.46550000084,
      "d": 631.147183333349,
      "v": 89
    },
    {
      "midi": 70,
      "hit": false,
      "t": 191311.36700000084,
      "d": 537.909531250014,
      "v": 67
    },
    {
      "midi": 78,
      "hit": false,
      "t": 191557.26850000085,
      "d": 1136.269847916701,
      "v": 114
    },
    {
      "midi": 66,
      "hit": false,
      "t": 191803.17000000086,
      "d": 908.8109604166821,
      "v": 89
    },
    {
      "midi": 78,
      "hit": false,
      "t": 191803.17000000126,
      "d": 59.42619583333726,
      "v": 109
    },
    {
      "midi": 75,
      "hit": false,
      "t": 191803.17000000126,
      "d": 89.13929374999134,
      "v": 119
    },
    {
      "midi": 82,
      "hit": false,
      "t": 191803.17000000126,
      "d": 97.33601041664951,
      "v": 114
    },
    {
      "midi": 75,
      "hit": false,
      "t": 191926.12075000125,
      "d": 96.31142083334271,
      "v": 73
    },
    {
      "midi": 78,
      "hit": false,
      "t": 191926.12075000125,
      "d": 96.31142083334271,
      "v": 97
    },
    {
      "midi": 70,
      "hit": false,
      "t": 192049.07150000086,
      "d": 373.9751979166758,
      "v": 70
    },
    {
      "midi": 78,
      "hit": false,
      "t": 192049.07150000127,
      "d": 25.614739583339542,
      "v": 51
    },
    {
      "midi": 82,
      "hit": false,
      "t": 192049.07150000127,
      "d": 48.155710416671354,
      "v": 79
    },
    {
      "midi": 75,
      "hit": false,
      "t": 192049.07150000127,
      "d": 50.204889583343174,
      "v": 67
    },
    {
      "midi": 75,
      "hit": false,
      "t": 192294.97300000087,
      "d": 369.8768395833322,
      "v": 73
    },
    {
      "midi": 70,
      "hit": false,
      "t": 192540.87450000088,
      "d": 106.5573166666727,
      "v": 51
    },
    {
      "midi": 75,
      "hit": false,
      "t": 192540.8745000013,
      "d": 71.72127083333908,
      "v": 119
    },
    {
      "midi": 78,
      "hit": false,
      "t": 192540.8745000013,
      "d": 86.06552500001271,
      "v": 114
    },
    {
      "midi": 82,
      "hit": false,
      "t": 192540.8745000013,
      "d": 144.46713125001406,
      "v": 124
    },
    {
      "midi": 75,
      "hit": false,
      "t": 192663.8252500013,
      "d": 77.86880833332543,
      "v": 97
    },
    {
      "midi": 78,
      "hit": false,
      "t": 192663.8252500013,
      "d": 81.96716666666907,
      "v": 105
    },
    {
      "midi": 61,
      "hit": false,
      "t": 192786.7760000009,
      "d": 1797.130129166675,
      "v": 105
    },
    {
      "midi": 75,
      "hit": false,
      "t": 192786.7760000013,
      "d": 44.057352083327714,
      "v": 76
    },
    {
      "midi": 78,
      "hit": false,
      "t": 192786.7760000013,
      "d": 49.180300000007264,
      "v": 86
    },
    {
      "midi": 82,
      "hit": false,
      "t": 192786.7760000013,
      "d": 74.7950395833468,
      "v": 89
    },
    {
      "midi": 75,
      "hit": false,
      "t": 192909.7267500013,
      "d": 68.64750208333135,
      "v": 101
    },
    {
      "midi": 78,
      "hit": false,
      "t": 192909.7267500013,
      "d": 68.64750208333135,
      "v": 119
    },
    {
      "midi": 68,
      "hit": false,
      "t": 193032.6775000009,
      "d": 1325.8189208333497,
      "v": 94
    },
    {
      "midi": 78,
      "hit": false,
      "t": 193032.6775000013,
      "d": 57.37701666666544,
      "v": 105
    },
    {
      "midi": 75,
      "hit": false,
      "t": 193032.6775000013,
      "d": 59.42619583333726,
      "v": 105
    },
    {
      "midi": 82,
      "hit": false,
      "t": 193032.6775000013,
      "d": 61.47537500000908,
      "v": 94
    },
    {
      "midi": 73,
      "hit": false,
      "t": 193278.5790000009,
      "d": 342.2129208333499,
      "v": 97
    },
    {
      "midi": 80,
      "hit": false,
      "t": 193524.4805000009,
      "d": 1191.5976854166365,
      "v": 119
    },
    {
      "midi": 73,
      "hit": false,
      "t": 193770.38200000091,
      "d": 321.72112916666083,
      "v": 89
    },
    {
      "midi": 77,
      "hit": false,
      "t": 194016.28350000092,
      "d": 663.9340499999525,
      "v": 94
    },
    {
      "midi": 73,
      "hit": false,
      "t": 194016.2835000013,
      "d": 42.008172916655894,
      "v": 86
    },
    {
      "midi": 77,
      "hit": false,
      "t": 194016.2835000013,
      "d": 44.057352083327714,
      "v": 94
    },
    {
      "midi": 80,
      "hit": false,
      "t": 194016.2835000013,
      "d": 56.35242708332953,
      "v": 105
    },
    {
      "midi": 73,
      "hit": false,
      "t": 194262.1850000009,
      "d": 410.86042291665217,
      "v": 76
    },
    {
      "midi": 80,
      "hit": false,
      "t": 194262.1850000013,
      "d": 174.18022916666814,
      "v": 119
    },
    {
      "midi": 77,
      "hit": false,
      "t": 194262.1850000013,
      "d": 180.3277666666545,
      "v": 119
    },
    {
      "midi": 73,
      "hit": false,
      "t": 194262.1850000013,
      "d": 188.52448333331267,
      "v": 119
    },
    {
      "midi": 68,
      "hit": false,
      "t": 194508.0865000009,
      "d": 174.18022916663904,
      "v": 55
    },
    {
      "midi": 77,
      "hit": false,
      "t": 194508.0865000013,
      "d": 55.32783749999362,
      "v": 97
    },
    {
      "midi": 80,
      "hit": false,
      "t": 194508.0865000013,
      "d": 62.49996458331589,
      "v": 105
    },
    {
      "midi": 73,
      "hit": false,
      "t": 194508.0865000013,
      "d": 63.5245541666518,
      "v": 101
    },
    {
      "midi": 58,
      "hit": false,
      "t": 194753.98800000089,
      "d": 1797.130129166675,
      "v": 105
    },
    {
      "midi": 77,
      "hit": false,
      "t": 194753.98800000126,
      "d": 59.42619583333726,
      "v": 109
    },
    {
      "midi": 73,
      "hit": false,
      "t": 194753.98800000126,
      "d": 89.13929374999134,
      "v": 119
    },
    {
      "midi": 80,
      "hit": false,
      "t": 194753.98800000126,
      "d": 97.33601041664951,
      "v": 114
    },
    {
      "midi": 73,
      "hit": false,
      "t": 194876.93875000125,
      "d": 96.31142083334271,
      "v": 73
    },
    {
      "midi": 77,
      "hit": false,
      "t": 194876.93875000125,
      "d": 96.31142083334271,
      "v": 97
    },
    {
      "midi": 65,
      "hit": false,
      "t": 194999.8895000009,
      "d": 1325.8189208333497,
      "v": 94
    },
    {
      "midi": 77,
      "hit": false,
      "t": 194999.88950000127,
      "d": 25.614739583339542,
      "v": 51
    },
    {
      "midi": 80,
      "hit": false,
      "t": 194999.88950000127,
      "d": 48.155710416671354,
      "v": 79
    },
    {
      "midi": 73,
      "hit": false,
      "t": 194999.88950000127,
      "d": 50.204889583343174,
      "v": 67
    },
    {
      "midi": 73,
      "hit": false,
      "t": 195245.7910000009,
      "d": 342.2129208333499,
      "v": 97
    },
    {
      "midi": 80,
      "hit": false,
      "t": 195491.6925000009,
      "d": 1191.5976854166365,
      "v": 119
    },
    {
      "midi": 73,
      "hit": false,
      "t": 195491.69250000129,
      "d": 71.72127083333908,
      "v": 119
    },
    {
      "midi": 77,
      "hit": false,
      "t": 195491.69250000129,
      "d": 86.06552500001271,
      "v": 114
    },
    {
      "midi": 80,
      "hit": false,
      "t": 195491.69250000129,
      "d": 144.46713125001406,
      "v": 124
    },
    {
      "midi": 73,
      "hit": false,
      "t": 195614.6432500013,
      "d": 77.86880833332543,
      "v": 97
    },
    {
      "midi": 77,
      "hit": false,
      "t": 195614.6432500013,
      "d": 81.96716666666907,
      "v": 105
    },
    {
      "midi": 73,
      "hit": false,
      "t": 195737.5940000009,
      "d": 321.72112916666083,
      "v": 89
    },
    {
      "midi": 73,
      "hit": false,
      "t": 195737.5940000013,
      "d": 44.057352083327714,
      "v": 76
    },
    {
      "midi": 77,
      "hit": false,
      "t": 195737.5940000013,
      "d": 49.180300000007264,
      "v": 86
    },
    {
      "midi": 80,
      "hit": false,
      "t": 195737.5940000013,
      "d": 74.7950395833468,
      "v": 89
    },
    {
      "midi": 73,
      "hit": false,
      "t": 195860.5447500013,
      "d": 68.64750208333135,
      "v": 101
    },
    {
      "midi": 77,
      "hit": false,
      "t": 195860.5447500013,
      "d": 68.64750208333135,
      "v": 119
    },
    {
      "midi": 77,
      "hit": false,
      "t": 195983.49550000092,
      "d": 663.9340499999525,
      "v": 94
    },
    {
      "midi": 77,
      "hit": false,
      "t": 195983.4955000013,
      "d": 57.37701666666544,
      "v": 105
    },
    {
      "midi": 73,
      "hit": false,
      "t": 195983.4955000013,
      "d": 59.42619583333726,
      "v": 105
    },
    {
      "midi": 80,
      "hit": false,
      "t": 195983.4955000013,
      "d": 61.47537500000908,
      "v": 94
    },
    {
      "midi": 73,
      "hit": false,
      "t": 196229.3970000009,
      "d": 410.86042291665217,
      "v": 76
    },
    {
      "midi": 65,
      "hit": false,
      "t": 196475.2985000009,
      "d": 174.18022916663904,
      "v": 55
    },
    {
      "midi": 73,
      "hit": false,
      "t": 196475.2985000013,
      "d": 68.64750208333135,
      "v": 101
    },
    {
      "midi": 77,
      "hit": false,
      "t": 196475.2985000013,
      "d": 68.64750208333135,
      "v": 119
    },
    {
      "midi": 77,
      "hit": false,
      "t": 196598.2492500013,
      "d": 57.37701666666544,
      "v": 105
    },
    {
      "midi": 73,
      "hit": false,
      "t": 196598.2492500013,
      "d": 59.42619583333726,
      "v": 105
    },
    {
      "midi": 80,
      "hit": false,
      "t": 196598.2492500013,
      "d": 61.47537500000908,
      "v": 94
    },
    {
      "midi": 59,
      "hit": false,
      "t": 196721.20000000088,
      "d": 861.6798395833466,
      "v": 104
    },
    {
      "midi": 75,
      "hit": false,
      "t": 196721.20000000132,
      "d": 59.42619583333726,
      "v": 109
    },
    {
      "midi": 71,
      "hit": false,
      "t": 196721.20000000132,
      "d": 89.13929374999134,
      "v": 119
    },
    {
      "midi": 78,
      "hit": false,
      "t": 196721.20000000132,
      "d": 97.33601041664951,
      "v": 114
    },
    {
      "midi": 71,
      "hit": false,
      "t": 196844.1507500013,
      "d": 96.31142083334271,
      "v": 73
    },
    {
      "midi": 75,
      "hit": false,
      "t": 196844.1507500013,
      "d": 96.31142083334271,
      "v": 97
    },
    {
      "midi": 71,
      "hit": false,
      "t": 196967.1015000009,
      "d": 734.6307312500139,
      "v": 88
    },
    {
      "midi": 75,
      "hit": false,
      "t": 196967.10150000133,
      "d": 25.614739583339542,
      "v": 51
    },
    {
      "midi": 78,
      "hit": false,
      "t": 196967.10150000133,
      "d": 48.155710416671354,
      "v": 79
    },
    {
      "midi": 71,
      "hit": false,
      "t": 196967.10150000133,
      "d": 50.204889583343174,
      "v": 67
    },
    {
      "midi": 75,
      "hit": false,
      "t": 197213.0030000009,
      "d": 293.03262083334266,
      "v": 62
    },
    {
      "midi": 78,
      "hit": false,
      "t": 197458.9045000009,
      "d": 516.3931500000181,
      "v": 109
    },
    {
      "midi": 59,
      "hit": false,
      "t": 197704.8060000009,
      "d": 807.3765916666598,
      "v": 100
    },
    {
      "midi": 63,
      "hit": false,
      "t": 197704.80600000135,
      "d": 71.72127083333908,
      "v": 119
    },
    {
      "midi": 66,
      "hit": false,
      "t": 197704.80600000135,
      "d": 86.06552500001271,
      "v": 114
    },
    {
      "midi": 71,
      "hit": false,
      "t": 197704.80600000135,
      "d": 144.46713125001406,
      "v": 124
    },
    {
      "midi": 63,
      "hit": false,
      "t": 197827.75675000137,
      "d": 77.86880833332543,
      "v": 97
    },
    {
      "midi": 66,
      "hit": false,
      "t": 197827.75675000137,
      "d": 81.96716666666907,
      "v": 105
    },
    {
      "midi": 71,
      "hit": false,
      "t": 197950.70750000092,
      "d": 193.64743124999222,
      "v": 96
    },
    {
      "midi": 63,
      "hit": false,
      "t": 197950.70750000136,
      "d": 44.057352083327714,
      "v": 76
    },
    {
      "midi": 66,
      "hit": false,
      "t": 197950.70750000136,
      "d": 49.180300000007264,
      "v": 86
    },
    {
      "midi": 71,
      "hit": false,
      "t": 197950.70750000136,
      "d": 74.7950395833468,
      "v": 89
    },
    {
      "midi": 63,
      "hit": false,
      "t": 198073.65825000138,
      "d": 68.64750208333135,
      "v": 101
    },
    {
      "midi": 66,
      "hit": false,
      "t": 198073.65825000138,
      "d": 68.64750208333135,
      "v": 119
    },
    {
      "midi": 80,
      "hit": false,
      "t": 198196.6090000009,
      "d": 268.44247083333903,
      "v": 97
    },
    {
      "midi": 63,
      "hit": false,
      "t": 198196.60900000136,
      "d": 71.72127083333908,
      "v": 119
    },
    {
      "midi": 66,
      "hit": false,
      "t": 198196.60900000136,
      "d": 86.06552500001271,
      "v": 114
    },
    {
      "midi": 71,
      "hit": false,
      "t": 198196.60900000136,
      "d": 144.46713125001406,
      "v": 124
    },
    {
      "midi": 63,
      "hit": false,
      "t": 198319.55975000138,
      "d": 77.86880833332543,
      "v": 97
    },
    {
      "midi": 66,
      "hit": false,
      "t": 198319.55975000138,
      "d": 81.96716666666907,
      "v": 105
    },
    {
      "midi": 78,
      "hit": false,
      "t": 198442.5105000009,
      "d": 50.204889583343174,
      "v": 89
    },
    {
      "midi": 63,
      "hit": false,
      "t": 198442.51050000137,
      "d": 44.057352083327714,
      "v": 76
    },
    {
      "midi": 66,
      "hit": false,
      "t": 198442.51050000137,
      "d": 49.180300000007264,
      "v": 86
    },
    {
      "midi": 71,
      "hit": false,
      "t": 198442.51050000137,
      "d": 74.7950395833468,
      "v": 89
    },
    {
      "midi": 63,
      "hit": false,
      "t": 198565.4612500014,
      "d": 68.64750208333135,
      "v": 101
    },
    {
      "midi": 66,
      "hit": false,
      "t": 198565.4612500014,
      "d": 68.64750208333135,
      "v": 119
    },
    {
      "midi": 82,
      "hit": false,
      "t": 198688.4120000009,
      "d": 691.5979687500221,
      "v": 101
    },
    {
      "midi": 63,
      "hit": false,
      "t": 198688.4120000009,
      "d": 1838.1137125000241,
      "v": 101
    },
    {
      "midi": 70,
      "hit": false,
      "t": 198934.31350000092,
      "d": 591.1881895833358,
      "v": 76
    },
    {
      "midi": 78,
      "hit": false,
      "t": 199180.21500000093,
      "d": 514.3439708333171,
      "v": 67
    },
    {
      "midi": 87,
      "hit": false,
      "t": 199426.11650000094,
      "d": 1100.4092125000025,
      "v": 109
    },
    {
      "midi": 70,
      "hit": false,
      "t": 199672.0180000009,
      "d": 885.2454000000434,
      "v": 86
    },
    {
      "midi": 78,
      "hit": false,
      "t": 199672.01800000138,
      "d": 59.42619583333726,
      "v": 109
    },
    {
      "midi": 75,
      "hit": false,
      "t": 199672.01800000138,
      "d": 89.13929374999134,
      "v": 119
    },
    {
      "midi": 82,
      "hit": false,
      "t": 199672.01800000138,
      "d": 97.33601041664951,
      "v": 114
    },
    {
      "midi": 75,
      "hit": false,
      "t": 199794.96875000137,
      "d": 96.31142083334271,
      "v": 73
    },
    {
      "midi": 78,
      "hit": false,
      "t": 199794.96875000137,
      "d": 96.31142083334271,
      "v": 97
    },
    {
      "midi": 78,
      "hit": false,
      "t": 199917.91950000092,
      "d": 308.4014645833522,
      "v": 79
    },
    {
      "midi": 78,
      "hit": false,
      "t": 199917.9195000014,
      "d": 25.614739583339542,
      "v": 51
    },
    {
      "midi": 82,
      "hit": false,
      "t": 199917.9195000014,
      "d": 48.155710416671354,
      "v": 79
    },
    {
      "midi": 75,
      "hit": false,
      "t": 199917.9195000014,
      "d": 50.204889583343174,
      "v": 67
    },
    {
      "midi": 82,
      "hit": false,
      "t": 200163.82100000093,
      "d": 327.8686666666763,
      "v": 94
    },
    {
      "midi": 78,
      "hit": false,
      "t": 200409.72250000093,
      "d": 131.14746666667634,
      "v": 73
    },
    {
      "midi": 75,
      "hit": false,
      "t": 200409.7225000014,
      "d": 71.72127083333908,
      "v": 119
    },
    {
      "midi": 78,
      "hit": false,
      "t": 200409.7225000014,
      "d": 86.06552500001271,
      "v": 114
    },
    {
      "midi": 82,
      "hit": false,
      "t": 200409.7225000014,
      "d": 144.46713125001406,
      "v": 124
    },
    {
      "midi": 75,
      "hit": false,
      "t": 200532.67325000142,
      "d": 77.86880833332543,
      "v": 97
    },
    {
      "midi": 78,
      "hit": false,
      "t": 200532.67325000142,
      "d": 81.96716666666907,
      "v": 105
    },
    {
      "midi": 61,
      "hit": false,
      "t": 200655.62400000097,
      "d": 1797.130129166675,
      "v": 105
    },
    {
      "midi": 75,
      "hit": false,
      "t": 200655.6240000014,
      "d": 44.057352083327714,
      "v": 76
    },
    {
      "midi": 78,
      "hit": false,
      "t": 200655.6240000014,
      "d": 49.180300000007264,
      "v": 86
    },
    {
      "midi": 82,
      "hit": false,
      "t": 200655.6240000014,
      "d": 74.7950395833468,
      "v": 89
    },
    {
      "midi": 75,
      "hit": false,
      "t": 200778.57475000143,
      "d": 68.64750208333135,
      "v": 101
    },
    {
      "midi": 78,
      "hit": false,
      "t": 200778.57475000143,
      "d": 68.64750208333135,
      "v": 119
    },
    {
      "midi": 68,
      "hit": false,
      "t": 200901.52550000098,
      "d": 1325.8189208333497,
      "v": 94
    },
    {
      "midi": 78,
      "hit": false,
      "t": 200901.52550000141,
      "d": 57.37701666666544,
      "v": 105
    },
    {
      "midi": 75,
      "hit": false,
      "t": 200901.52550000141,
      "d": 59.42619583333726,
      "v": 105
    },
    {
      "midi": 82,
      "hit": false,
      "t": 200901.52550000141,
      "d": 61.47537500000908,
      "v": 94
    },
    {
      "midi": 73,
      "hit": false,
      "t": 201147.427000001,
      "d": 342.2129208333499,
      "v": 97
    },
    {
      "midi": 80,
      "hit": false,
      "t": 201393.328500001,
      "d": 1191.5976854166656,
      "v": 119
    },
    {
      "midi": 73,
      "hit": false,
      "t": 201639.230000001,
      "d": 321.72112916666083,
      "v": 89
    },
    {
      "midi": 77,
      "hit": false,
      "t": 201885.131500001,
      "d": 663.9340499999817,
      "v": 94
    },
    {
      "midi": 73,
      "hit": false,
      "t": 201885.13150000141,
      "d": 42.008172916655894,
      "v": 86
    },
    {
      "midi": 77,
      "hit": false,
      "t": 201885.13150000141,
      "d": 44.057352083327714,
      "v": 94
    },
    {
      "midi": 80,
      "hit": false,
      "t": 201885.13150000141,
      "d": 56.35242708332953,
      "v": 105
    },
    {
      "midi": 80,
      "hit": false,
      "t": 202131.03300000142,
      "d": 174.18022916666814,
      "v": 119
    },
    {
      "midi": 77,
      "hit": false,
      "t": 202131.03300000142,
      "d": 180.3277666666545,
      "v": 119
    },
    {
      "midi": 73,
      "hit": false,
      "t": 202131.03300000142,
      "d": 188.52448333331267,
      "v": 119
    },
    {
      "midi": 68,
      "hit": false,
      "t": 202376.934500001,
      "d": 287.9096729166631,
      "v": 76
    },
    {
      "midi": 77,
      "hit": false,
      "t": 202376.9345000014,
      "d": 55.32783749999362,
      "v": 97
    },
    {
      "midi": 80,
      "hit": false,
      "t": 202376.9345000014,
      "d": 62.49996458331589,
      "v": 105
    },
    {
      "midi": 73,
      "hit": false,
      "t": 202376.9345000014,
      "d": 63.5245541666518,
      "v": 101
    },
    {
      "midi": 82,
      "hit": false,
      "t": 202622.836000001,
      "d": 424.1800874999899,
      "v": 105
    },
    {
      "midi": 66,
      "hit": false,
      "t": 202622.836000001,
      "d": 1892.416960416711,
      "v": 97
    },
    {
      "midi": 78,
      "hit": false,
      "t": 202622.83600000138,
      "d": 59.42619583333726,
      "v": 109
    },
    {
      "midi": 73,
      "hit": false,
      "t": 202622.83600000138,
      "d": 89.13929374999134,
      "v": 119
    },
    {
      "midi": 82,
      "hit": false,
      "t": 202622.83600000138,
      "d": 97.33601041664951,
      "v": 114
    },
    {
      "midi": 73,
      "hit": false,
      "t": 202745.78675000137,
      "d": 96.31142083334271,
      "v": 73
    },
    {
      "midi": 78,
      "hit": false,
      "t": 202745.78675000137,
      "d": 96.31142083334271,
      "v": 97
    },
    {
      "midi": 78,
      "hit": false,
      "t": 202868.73750000098,
      "d": 259.22116458334494,
      "v": 60
    },
    {
      "midi": 78,
      "hit": false,
      "t": 202868.73750000139,
      "d": 25.614739583339542,
      "v": 51
    },
    {
      "midi": 82,
      "hit": false,
      "t": 202868.73750000139,
      "d": 48.155710416671354,
      "v": 79
    },
    {
      "midi": 73,
      "hit": false,
      "t": 202868.73750000139,
      "d": 50.204889583343174,
      "v": 67
    },
    {
      "midi": 73,
      "hit": false,
      "t": 203114.63900000099,
      "d": 481.55710416668444,
      "v": 55
    },
    {
      "midi": 82,
      "hit": false,
      "t": 203360.540500001,
      "d": 1192.6222750000597,
      "v": 114
    },
    {
      "midi": 73,
      "hit": false,
      "t": 203360.5405000014,
      "d": 71.72127083333908,
      "v": 119
    },
    {
      "midi": 78,
      "hit": false,
      "t": 203360.5405000014,
      "d": 86.06552500001271,
      "v": 114
    },
    {
      "midi": 82,
      "hit": false,
      "t": 203360.5405000014,
      "d": 144.46713125001406,
      "v": 124
    },
    {
      "midi": 73,
      "hit": false,
      "t": 203483.49125000142,
      "d": 77.86880833332543,
      "v": 97
    },
    {
      "midi": 78,
      "hit": false,
      "t": 203483.49125000142,
      "d": 81.96716666666907,
      "v": 105
    },
    {
      "midi": 78,
      "hit": false,
      "t": 203606.442000001,
      "d": 302.25392708333675,
      "v": 66
    },
    {
      "midi": 73,
      "hit": false,
      "t": 203606.4420000014,
      "d": 44.057352083327714,
      "v": 76
    },
    {
      "midi": 78,
      "hit": false,
      "t": 203606.4420000014,
      "d": 49.180300000007264,
      "v": 86
    },
    {
      "midi": 82,
      "hit": false,
      "t": 203606.4420000014,
      "d": 74.7950395833468,
      "v": 89
    },
    {
      "midi": 73,
      "hit": false,
      "t": 203729.39275000143,
      "d": 68.64750208333135,
      "v": 101
    },
    {
      "midi": 78,
      "hit": false,
      "t": 203729.39275000143,
      "d": 68.64750208333135,
      "v": 119
    },
    {
      "midi": 73,
      "hit": false,
      "t": 203852.343500001,
      "d": 315.5735916666745,
      "v": 82
    },
    {
      "midi": 78,
      "hit": false,
      "t": 203852.3435000014,
      "d": 57.37701666666544,
      "v": 105
    },
    {
      "midi": 73,
      "hit": false,
      "t": 203852.3435000014,
      "d": 59.42619583333726,
      "v": 105
    },
    {
      "midi": 82,
      "hit": false,
      "t": 203852.3435000014,
      "d": 61.47537500000908,
      "v": 94
    },
    {
      "midi": 78,
      "hit": false,
      "t": 204098.245000001,
      "d": 412.9096020833531,
      "v": 66
    },
    {
      "midi": 73,
      "hit": false,
      "t": 204344.14650000102,
      "d": 164.95892291667406,
      "v": 70
    },
    {
      "midi": 73,
      "hit": false,
      "t": 204344.14650000143,
      "d": 68.64750208333135,
      "v": 101
    },
    {
      "midi": 78,
      "hit": false,
      "t": 204344.14650000143,
      "d": 68.64750208333135,
      "v": 119
    },
    {
      "midi": 78,
      "hit": false,
      "t": 204467.09725000142,
      "d": 57.37701666666544,
      "v": 105
    },
    {
      "midi": 73,
      "hit": false,
      "t": 204467.09725000142,
      "d": 59.42619583333726,
      "v": 105
    },
    {
      "midi": 82,
      "hit": false,
      "t": 204467.09725000142,
      "d": 61.47537500000908,
      "v": 94
    },
    {
      "midi": 72,
      "hit": false,
      "t": 204590.04800000106,
      "d": 1613.7285937500128,
      "v": 70
    },
    {
      "midi": 75,
      "hit": false,
      "t": 204590.04800000106,
      "d": 1648.5646395833464,
      "v": 94
    },
    {
      "midi": 80,
      "hit": false,
      "t": 204590.04800000106,
      "d": 1648.5646395833464,
      "v": 94
    },
    {
      "midi": 56,
      "hit": false,
      "t": 204590.04800000106,
      "d": 1659.8351250000123,
      "v": 105
    },
    {
      "midi": 63,
      "hit": false,
      "t": 204590.04800000106,
      "d": 1671.1056104166782,
      "v": 109
    },
    {
      "midi": 75,
      "hit": false,
      "t": 204590.04800000144,
      "d": 59.42619583333726,
      "v": 109
    },
    {
      "midi": 72,
      "hit": false,
      "t": 204590.04800000144,
      "d": 89.13929374999134,
      "v": 119
    },
    {
      "midi": 80,
      "hit": false,
      "t": 204590.04800000144,
      "d": 97.33601041664951,
      "v": 114
    },
    {
      "midi": 72,
      "hit": false,
      "t": 204712.99875000142,
      "d": 96.31142083334271,
      "v": 73
    },
    {
      "midi": 75,
      "hit": false,
      "t": 204712.99875000142,
      "d": 96.31142083334271,
      "v": 97
    },
    {
      "midi": 75,
      "hit": false,
      "t": 204835.94950000144,
      "d": 25.614739583339542,
      "v": 51
    },
    {
      "midi": 80,
      "hit": false,
      "t": 204835.94950000144,
      "d": 48.155710416671354,
      "v": 79
    },
    {
      "midi": 72,
      "hit": false,
      "t": 204835.94950000144,
      "d": 50.204889583343174,
      "v": 67
    },
    {
      "midi": 72,
      "hit": false,
      "t": 205327.75250000146,
      "d": 71.72127083333908,
      "v": 119
    },
    {
      "midi": 75,
      "hit": false,
      "t": 205327.75250000146,
      "d": 86.06552500001271,
      "v": 114
    },
    {
      "midi": 80,
      "hit": false,
      "t": 205327.75250000146,
      "d": 144.46713125001406,
      "v": 124
    },
    {
      "midi": 72,
      "hit": false,
      "t": 205450.70325000148,
      "d": 77.86880833332543,
      "v": 97
    },
    {
      "midi": 75,
      "hit": false,
      "t": 205450.70325000148,
      "d": 81.96716666666907,
      "v": 105
    },
    {
      "midi": 72,
      "hit": false,
      "t": 205573.65400000146,
      "d": 44.057352083327714,
      "v": 76
    },
    {
      "midi": 75,
      "hit": false,
      "t": 205573.65400000146,
      "d": 49.180300000007264,
      "v": 86
    },
    {
      "midi": 80,
      "hit": false,
      "t": 205573.65400000146,
      "d": 74.7950395833468,
      "v": 89
    },
    {
      "midi": 72,
      "hit": false,
      "t": 205696.60475000148,
      "d": 68.64750208333135,
      "v": 101
    },
    {
      "midi": 75,
      "hit": false,
      "t": 205696.60475000148,
      "d": 68.64750208333135,
      "v": 119
    },
    {
      "midi": 75,
      "hit": false,
      "t": 205819.55550000147,
      "d": 57.37701666666544,
      "v": 105
    },
    {
      "midi": 72,
      "hit": false,
      "t": 205819.55550000147,
      "d": 59.42619583333726,
      "v": 105
    },
    {
      "midi": 80,
      "hit": false,
      "t": 205819.55550000147,
      "d": 61.47537500000908,
      "v": 94
    },
    {
      "midi": 72,
      "hit": false,
      "t": 206311.3585000015,
      "d": 68.64750208333135,
      "v": 101
    },
    {
      "midi": 75,
      "hit": false,
      "t": 206311.3585000015,
      "d": 68.64750208333135,
      "v": 119
    },
    {
      "midi": 75,
      "hit": false,
      "t": 206434.30925000148,
      "d": 57.37701666666544,
      "v": 105
    },
    {
      "midi": 72,
      "hit": false,
      "t": 206434.30925000148,
      "d": 59.42619583333726,
      "v": 105
    },
    {
      "midi": 80,
      "hit": false,
      "t": 206434.30925000148,
      "d": 61.47537500000908,
      "v": 94
    }
  ]
}