{
  "jsonPath": "Soundtracks/Video Game Music/Sonic the Hedgehog/sonic-the-hedgehog-continue-by-gori-fater.json",
  "path": "Soundtracks\\Video Game Music\\Sonic the Hedgehog\\Sonic_the_Hedgehog_-_Continue_by_Gori_Fater.mid",
  "name": "Sonic_the_Hedgehog_-_Continue_by_Gori_Fater",
  "difficulty": "Advanced",
  "bpm": 120.00024000048,
  "notes": [
    {
      "midi": 57,
      "hit": false,
      "t": 4.882841796875,
      "d": 246.5835107421875,
      "v": 69
    },
    {
      "midi": 45,
      "hit": false,
      "t": 4.882841796875,
      "d": 246.5835107421875,
      "v": 69
    },
    {
      "midi": 56,
      "hit": false,
      "t": 266.60316210937503,
      "d": 232.91155371093748,
      "v": 64
    },
    {
      "midi": 44,
      "hit": false,
      "t": 266.60316210937503,
      "d": 232.91155371093748,
      "v": 64
    },
    {
      "midi": 55,
      "hit": false,
      "t": 514.651525390625,
      "d": 231.44670117187502,
      "v": 65
    },
    {
      "midi": 43,
      "hit": false,
      "t": 514.651525390625,
      "d": 231.44670117187502,
      "v": 65
    },
    {
      "midi": 54,
      "hit": false,
      "t": 761.2350361328125,
      "d": 233.88812207031253,
      "v": 64
    },
    {
      "midi": 42,
      "hit": false,
      "t": 761.2350361328125,
      "d": 233.88812207031253,
      "v": 64
    },
    {
      "midi": 45,
      "hit": false,
      "t": 1010.2599677734376,
      "d": 248.53664746093762,
      "v": 59
    },
    {
      "midi": 57,
      "hit": false,
      "t": 1010.2599677734376,
      "d": 248.53664746093762,
      "v": 69
    },
    {
      "midi": 61,
      "hit": false,
      "t": 1259.2848994140627,
      "d": 492.6787373046875,
      "v": 56
    },
    {
      "midi": 73,
      "hit": false,
      "t": 1259.2848994140627,
      "d": 492.6787373046875,
      "v": 66
    },
    {
      "midi": 45,
      "hit": false,
      "t": 1259.2848994140627,
      "d": 231.44670117187502,
      "v": 56
    },
    {
      "midi": 57,
      "hit": false,
      "t": 1259.2848994140627,
      "d": 246.0952265625001,
      "v": 70
    },
    {
      "midi": 40,
      "hit": false,
      "t": 1505.8684101562503,
      "d": 246.0952265625001,
      "v": 56
    },
    {
      "midi": 52,
      "hit": false,
      "t": 1505.8684101562503,
      "d": 246.0952265625001,
      "v": 71
    },
    {
      "midi": 61,
      "hit": false,
      "t": 1752.4519208984377,
      "d": 232.42326953125007,
      "v": 56
    },
    {
      "midi": 73,
      "hit": false,
      "t": 1752.4519208984377,
      "d": 247.07179492187515,
      "v": 70
    },
    {
      "midi": 40,
      "hit": false,
      "t": 1752.451920898438,
      "d": 232.42326953125007,
      "v": 55
    },
    {
      "midi": 52,
      "hit": false,
      "t": 1752.451920898438,
      "d": 247.07179492187515,
      "v": 70
    },
    {
      "midi": 62,
      "hit": false,
      "t": 2001.9651367187503,
      "d": 385.7445019531251,
      "v": 61
    },
    {
      "midi": 74,
      "hit": false,
      "t": 2001.9651367187503,
      "d": 385.7445019531251,
      "v": 75
    },
    {
      "midi": 43,
      "hit": false,
      "t": 2001.9651367187505,
      "d": 385.7445019531249,
      "v": 61
    },
    {
      "midi": 55,
      "hit": false,
      "t": 2001.9651367187505,
      "d": 385.7445019531249,
      "v": 75
    },
    {
      "midi": 59,
      "hit": false,
      "t": 2388.197922851563,
      "d": 621.5857607421876,
      "v": 56
    },
    {
      "midi": 71,
      "hit": false,
      "t": 2388.197922851563,
      "d": 621.5857607421876,
      "v": 70
    },
    {
      "midi": 42,
      "hit": false,
      "t": 2388.197922851563,
      "d": 244.63037402343753,
      "v": 56
    },
    {
      "midi": 54,
      "hit": false,
      "t": 2388.197922851563,
      "d": 251.95463671874995,
      "v": 70
    },
    {
      "midi": 43,
      "hit": false,
      "t": 2640.6408437500004,
      "d": 112.79364550781247,
      "v": 56
    },
    {
      "midi": 55,
      "hit": false,
      "t": 2640.6408437500004,
      "d": 120.1179082031249,
      "v": 70
    },
    {
      "midi": 42,
      "hit": false,
      "t": 2761.247036132813,
      "d": 233.88812207031242,
      "v": 56
    },
    {
      "midi": 54,
      "hit": false,
      "t": 2761.247036132813,
      "d": 248.53664746093727,
      "v": 70
    },
    {
      "midi": 46,
      "hit": false,
      "t": 3010.2719677734376,
      "d": 248.53664746093727,
      "v": 59
    },
    {
      "midi": 58,
      "hit": false,
      "t": 3010.2719677734376,
      "d": 248.53664746093727,
      "v": 73
    },
    {
      "midi": 46,
      "hit": false,
      "t": 3259.2968994140624,
      "d": 231.4467011718748,
      "v": 56
    },
    {
      "midi": 58,
      "hit": false,
      "t": 3259.2968994140624,
      "d": 246.09522656249965,
      "v": 70
    },
    {
      "midi": 62,
      "hit": false,
      "t": 3259.296899414063,
      "d": 492.6787373046873,
      "v": 56
    },
    {
      "midi": 74,
      "hit": false,
      "t": 3259.296899414063,
      "d": 492.6787373046873,
      "v": 70
    },
    {
      "midi": 41,
      "hit": false,
      "t": 3505.8804101562496,
      "d": 246.0952265625001,
      "v": 57
    },
    {
      "midi": 53,
      "hit": false,
      "t": 3505.8804101562496,
      "d": 246.0952265625001,
      "v": 71
    },
    {
      "midi": 41,
      "hit": false,
      "t": 3752.463920898437,
      "d": 232.42326953124984,
      "v": 56
    },
    {
      "midi": 53,
      "hit": false,
      "t": 3752.463920898437,
      "d": 247.0717949218747,
      "v": 70
    },
    {
      "midi": 62,
      "hit": false,
      "t": 3752.4639208984377,
      "d": 232.42326953124984,
      "v": 56
    },
    {
      "midi": 74,
      "hit": false,
      "t": 3752.4639208984377,
      "d": 247.0717949218747,
      "v": 70
    },
    {
      "midi": 44,
      "hit": false,
      "t": 4001.9771367187495,
      "d": 385.7445019531251,
      "v": 61
    },
    {
      "midi": 56,
      "hit": false,
      "t": 4001.9771367187495,
      "d": 385.7445019531251,
      "v": 75
    },
    {
      "midi": 63,
      "hit": false,
      "t": 4001.97713671875,
      "d": 385.74450195312465,
      "v": 61
    },
    {
      "midi": 75,
      "hit": false,
      "t": 4001.97713671875,
      "d": 385.74450195312465,
      "v": 75
    },
    {
      "midi": 60,
      "hit": false,
      "t": 4388.209922851562,
      "d": 621.5857607421876,
      "v": 56
    },
    {
      "midi": 72,
      "hit": false,
      "t": 4388.209922851562,
      "d": 621.5857607421876,
      "v": 70
    },
    {
      "midi": 43,
      "hit": false,
      "t": 4388.209922851562,
      "d": 244.63037402343707,
      "v": 56
    },
    {
      "midi": 55,
      "hit": false,
      "t": 4388.209922851562,
      "d": 251.9546367187495,
      "v": 70
    },
    {
      "midi": 44,
      "hit": false,
      "t": 4640.652843749998,
      "d": 112.79364550781247,
      "v": 56
    },
    {
      "midi": 56,
      "hit": false,
      "t": 4640.652843749998,
      "d": 120.1179082031249,
      "v": 70
    },
    {
      "midi": 43,
      "hit": false,
      "t": 4761.25903613281,
      "d": 233.88812207031242,
      "v": 56
    },
    {
      "midi": 55,
      "hit": false,
      "t": 4761.25903613281,
      "d": 248.53664746093727,
      "v": 70
    },
    {
      "midi": 47,
      "hit": false,
      "t": 5010.283967773435,
      "d": 248.53664746093727,
      "v": 59
    },
    {
      "midi": 59,
      "hit": false,
      "t": 5010.283967773435,
      "d": 248.53664746093727,
      "v": 73
    },
    {
      "midi": 47,
      "hit": false,
      "t": 5259.308899414059,
      "d": 231.44670117187525,
      "v": 56
    },
    {
      "midi": 59,
      "hit": false,
      "t": 5259.308899414059,
      "d": 246.0952265625001,
      "v": 70
    },
    {
      "midi": 63,
      "hit": false,
      "t": 5259.308899414062,
      "d": 492.6787373046873,
      "v": 56
    },
    {
      "midi": 75,
      "hit": false,
      "t": 5259.308899414062,
      "d": 492.6787373046873,
      "v": 70
    },
    {
      "midi": 42,
      "hit": false,
      "t": 5505.892410156246,
      "d": 246.0952265625001,
      "v": 57
    },
    {
      "midi": 54,
      "hit": false,
      "t": 5505.892410156246,
      "d": 246.0952265625001,
      "v": 71
    },
    {
      "midi": 42,
      "hit": false,
      "t": 5752.475920898433,
      "d": 232.4232695312503,
      "v": 56
    },
    {
      "midi": 54,
      "hit": false,
      "t": 5752.475920898433,
      "d": 247.07179492187515,
      "v": 70
    },
    {
      "midi": 63,
      "hit": false,
      "t": 5752.475920898436,
      "d": 232.4232695312503,
      "v": 56
    },
    {
      "midi": 75,
      "hit": false,
      "t": 5752.475920898436,
      "d": 247.07179492187515,
      "v": 70
    },
    {
      "midi": 45,
      "hit": false,
      "t": 6001.989136718746,
      "d": 385.7445019531251,
      "v": 61
    },
    {
      "midi": 57,
      "hit": false,
      "t": 6001.989136718746,
      "d": 385.7445019531251,
      "v": 75
    },
    {
      "midi": 64,
      "hit": false,
      "t": 6001.989136718748,
      "d": 385.7445019531251,
      "v": 61
    },
    {
      "midi": 76,
      "hit": false,
      "t": 6001.989136718748,
      "d": 385.7445019531251,
      "v": 75
    },
    {
      "midi": 44,
      "hit": false,
      "t": 6388.221922851558,
      "d": 244.63037402343707,
      "v": 56
    },
    {
      "midi": 56,
      "hit": false,
      "t": 6388.221922851558,
      "d": 251.9546367187495,
      "v": 70
    },
    {
      "midi": 61,
      "hit": false,
      "t": 6388.2219228515605,
      "d": 357.9123037109375,
      "v": 56
    },
    {
      "midi": 73,
      "hit": false,
      "t": 6388.2219228515605,
      "d": 372.5608291015624,
      "v": 70
    },
    {
      "midi": 45,
      "hit": false,
      "t": 6640.664843749994,
      "d": 112.79364550781247,
      "v": 56
    },
    {
      "midi": 57,
      "hit": false,
      "t": 6640.664843749994,
      "d": 120.1179082031249,
      "v": 70
    },
    {
      "midi": 44,
      "hit": false,
      "t": 6761.271036132806,
      "d": 233.88812207031242,
      "v": 56
    },
    {
      "midi": 56,
      "hit": false,
      "t": 6761.271036132806,
      "d": 248.53664746093727,
      "v": 70
    },
    {
      "midi": 41,
      "hit": false,
      "t": 7010.295967773431,
      "d": 248.53664746093727,
      "v": 59
    },
    {
      "midi": 53,
      "hit": false,
      "t": 7010.295967773431,
      "d": 248.53664746093727,
      "v": 73
    },
    {
      "midi": 65,
      "hit": false,
      "t": 7010.295967773435,
      "d": 248.53664746093727,
      "v": 59
    },
    {
      "midi": 77,
      "hit": false,
      "t": 7010.295967773435,
      "d": 248.53664746093727,
      "v": 73
    },
    {
      "midi": 41,
      "hit": false,
      "t": 7259.320899414055,
      "d": 246.0952265625001,
      "v": 56
    },
    {
      "midi": 53,
      "hit": false,
      "t": 7259.320899414055,
      "d": 246.0952265625001,
      "v": 66
    },
    {
      "midi": 65,
      "hit": false,
      "t": 7259.32089941406,
      "d": 246.0952265625001,
      "v": 56
    },
    {
      "midi": 77,
      "hit": false,
      "t": 7259.32089941406,
      "d": 246.0952265625001,
      "v": 66
    },
    {
      "midi": 41,
      "hit": false,
      "t": 7505.904410156242,
      "d": 231.44670117187525,
      "v": 57
    },
    {
      "midi": 53,
      "hit": false,
      "t": 7505.904410156242,
      "d": 246.0952265625001,
      "v": 71
    },
    {
      "midi": 65,
      "hit": false,
      "t": 7505.904410156247,
      "d": 231.44670117187525,
      "v": 57
    },
    {
      "midi": 77,
      "hit": false,
      "t": 7505.904410156247,
      "d": 246.0952265625001,
      "v": 71
    },
    {
      "midi": 36,
      "hit": false,
      "t": 7752.487920898429,
      "d": 232.4232695312503,
      "v": 54
    },
    {
      "midi": 48,
      "hit": false,
      "t": 7752.487920898429,
      "d": 247.07179492187515,
      "v": 70
    },
    {
      "midi": 60,
      "hit": false,
      "t": 7752.487920898434,
      "d": 232.4232695312503,
      "v": 56
    },
    {
      "midi": 72,
      "hit": false,
      "t": 7752.487920898434,
      "d": 247.07179492187515,
      "v": 70
    },
    {
      "midi": 34,
      "hit": false,
      "t": 8002.001136718742,
      "d": 385.7445019531242,
      "v": 59
    },
    {
      "midi": 46,
      "hit": false,
      "t": 8002.001136718742,
      "d": 385.7445019531242,
      "v": 75
    },
    {
      "midi": 58,
      "hit": false,
      "t": 8002.001136718746,
      "d": 385.7445019531251,
      "v": 61
    },
    {
      "midi": 70,
      "hit": false,
      "t": 8002.001136718746,
      "d": 385.7445019531251,
      "v": 75
    },
    {
      "midi": 38,
      "hit": false,
      "t": 8388.233922851554,
      "d": 1611.3377929687504,
      "v": 55
    },
    {
      "midi": 50,
      "hit": false,
      "t": 8388.233922851554,
      "d": 1611.3377929687504,
      "v": 70
    },
    {
      "midi": 62,
      "hit": false,
      "t": 8388.23392285156,
      "d": 1611.3377929687504,
      "v": 56
    },
    {
      "midi": 74,
      "hit": false,
      "t": 8388.23392285156,
      "d": 1611.3377929687504,
      "v": 70
    }
  ]
}