{
  "jsonPath": "Soundtracks/Video Game Music/Sonic the Hedgehog/sonic-the-hedgehog-special-stage-by-gori-fater.json",
  "path": "Soundtracks\\Video Game Music\\Sonic the Hedgehog\\Sonic_the_Hedgehog_-_Special_Stage_by_Gori_Fater.mid",
  "name": "Sonic_the_Hedgehog_-_Special_Stage_by_Gori_Fater",
  "difficulty": "Advanced",
  "bpm": 120.00024000048,
  "notes": [
    {
      "midi": 76,
      "hit": false,
      "t": 4.882841796875,
      "d": 1003.4239892578125,
      "v": 56
    },
    {
      "midi": 53,
      "hit": false,
      "t": 4.882841796875,
      "d": 1494.6378740234375,
      "v": 64
    },
    {
      "midi": 88,
      "hit": false,
      "t": 265.62659375000004,
      "d": 231.9349853515625,
      "v": 64
    },
    {
      "midi": 84,
      "hit": false,
      "t": 512.698388671875,
      "d": 495.60844238281254,
      "v": 65
    },
    {
      "midi": 57,
      "hit": false,
      "t": 512.698388671875,
      "d": 495.60844238281254,
      "v": 57
    },
    {
      "midi": 60,
      "hit": false,
      "t": 512.698388671875,
      "d": 495.60844238281254,
      "v": 57
    },
    {
      "midi": 64,
      "hit": false,
      "t": 512.698388671875,
      "d": 495.60844238281254,
      "v": 67
    },
    {
      "midi": 77,
      "hit": false,
      "t": 1008.7951152343751,
      "d": 490.7256005859374,
      "v": 59
    },
    {
      "midi": 89,
      "hit": false,
      "t": 1008.7951152343751,
      "d": 490.7256005859374,
      "v": 73
    },
    {
      "midi": 81,
      "hit": false,
      "t": 1008.7951152343751,
      "d": 490.7256005859374,
      "v": 67
    },
    {
      "midi": 57,
      "hit": false,
      "t": 1008.7951152343751,
      "d": 490.7256005859374,
      "v": 59
    },
    {
      "midi": 60,
      "hit": false,
      "t": 1008.7951152343751,
      "d": 490.7256005859374,
      "v": 59
    },
    {
      "midi": 64,
      "hit": false,
      "t": 1008.7951152343751,
      "d": 490.7256005859374,
      "v": 73
    },
    {
      "midi": 86,
      "hit": false,
      "t": 1501.96213671875,
      "d": 263.1851728515626,
      "v": 57
    },
    {
      "midi": 79,
      "hit": false,
      "t": 1501.96213671875,
      "d": 1006.3536943359375,
      "v": 56
    },
    {
      "midi": 91,
      "hit": false,
      "t": 1501.96213671875,
      "d": 1006.3536943359375,
      "v": 70
    },
    {
      "midi": 52,
      "hit": false,
      "t": 1501.96213671875,
      "d": 1497.5675791015626,
      "v": 64
    },
    {
      "midi": 86,
      "hit": false,
      "t": 1765.63559375,
      "d": 261.7203203125,
      "v": 52
    },
    {
      "midi": 83,
      "hit": false,
      "t": 2012.707388671875,
      "d": 495.6084423828124,
      "v": 65
    },
    {
      "midi": 55,
      "hit": false,
      "t": 2012.707388671875,
      "d": 495.6084423828124,
      "v": 57
    },
    {
      "midi": 59,
      "hit": false,
      "t": 2012.707388671875,
      "d": 495.6084423828124,
      "v": 57
    },
    {
      "midi": 62,
      "hit": false,
      "t": 2012.707388671875,
      "d": 495.6084423828124,
      "v": 71
    },
    {
      "midi": 76,
      "hit": false,
      "t": 2508.804115234375,
      "d": 490.7256005859376,
      "v": 59
    },
    {
      "midi": 88,
      "hit": false,
      "t": 2508.804115234375,
      "d": 490.7256005859376,
      "v": 73
    },
    {
      "midi": 79,
      "hit": false,
      "t": 2508.804115234375,
      "d": 490.7256005859376,
      "v": 67
    },
    {
      "midi": 55,
      "hit": false,
      "t": 2508.804115234375,
      "d": 490.7256005859376,
      "v": 59
    },
    {
      "midi": 59,
      "hit": false,
      "t": 2508.804115234375,
      "d": 490.7256005859376,
      "v": 59
    },
    {
      "midi": 62,
      "hit": false,
      "t": 2508.804115234375,
      "d": 490.7256005859376,
      "v": 73
    },
    {
      "midi": 84,
      "hit": false,
      "t": 3001.97113671875,
      "d": 263.1851728515626,
      "v": 57
    },
    {
      "midi": 76,
      "hit": false,
      "t": 3001.97113671875,
      "d": 1006.3536943359377,
      "v": 56
    },
    {
      "midi": 88,
      "hit": false,
      "t": 3001.97113671875,
      "d": 1006.3536943359377,
      "v": 70
    },
    {
      "midi": 50,
      "hit": false,
      "t": 3001.97113671875,
      "d": 1497.5675791015628,
      "v": 64
    },
    {
      "midi": 84,
      "hit": false,
      "t": 3265.6445937500002,
      "d": 261.7203203125,
      "v": 52
    },
    {
      "midi": 81,
      "hit": false,
      "t": 3512.7163886718754,
      "d": 495.6084423828124,
      "v": 65
    },
    {
      "midi": 53,
      "hit": false,
      "t": 3512.7163886718754,
      "d": 495.6084423828124,
      "v": 57
    },
    {
      "midi": 57,
      "hit": false,
      "t": 3512.7163886718754,
      "d": 495.6084423828124,
      "v": 57
    },
    {
      "midi": 60,
      "hit": false,
      "t": 3512.7163886718754,
      "d": 495.6084423828124,
      "v": 71
    },
    {
      "midi": 72,
      "hit": false,
      "t": 4008.8131152343753,
      "d": 490.7256005859376,
      "v": 59
    },
    {
      "midi": 84,
      "hit": false,
      "t": 4008.8131152343753,
      "d": 490.7256005859376,
      "v": 73
    },
    {
      "midi": 77,
      "hit": false,
      "t": 4008.8131152343753,
      "d": 490.7256005859376,
      "v": 67
    },
    {
      "midi": 53,
      "hit": false,
      "t": 4008.8131152343753,
      "d": 490.7256005859376,
      "v": 59
    },
    {
      "midi": 57,
      "hit": false,
      "t": 4008.8131152343753,
      "d": 490.7256005859376,
      "v": 59
    },
    {
      "midi": 60,
      "hit": false,
      "t": 4008.8131152343753,
      "d": 490.7256005859376,
      "v": 73
    },
    {
      "midi": 76,
      "hit": false,
      "t": 4501.98013671875,
      "d": 1006.3536943359377,
      "v": 56
    },
    {
      "midi": 83,
      "hit": false,
      "t": 4501.98013671875,
      "d": 1006.3536943359377,
      "v": 56
    },
    {
      "midi": 88,
      "hit": false,
      "t": 4501.98013671875,
      "d": 1006.3536943359377,
      "v": 70
    },
    {
      "midi": 48,
      "hit": false,
      "t": 4501.98013671875,
      "d": 510.2569677734373,
      "v": 61
    },
    {
      "midi": 52,
      "hit": false,
      "t": 4501.98013671875,
      "d": 510.2569677734373,
      "v": 61
    },
    {
      "midi": 55,
      "hit": false,
      "t": 4501.98013671875,
      "d": 510.2569677734373,
      "v": 61
    },
    {
      "midi": 59,
      "hit": false,
      "t": 4501.98013671875,
      "d": 510.2569677734373,
      "v": 75
    },
    {
      "midi": 50,
      "hit": false,
      "t": 5012.7253886718745,
      "d": 495.6084423828124,
      "v": 57
    },
    {
      "midi": 53,
      "hit": false,
      "t": 5012.7253886718745,
      "d": 495.6084423828124,
      "v": 57
    },
    {
      "midi": 57,
      "hit": false,
      "t": 5012.7253886718745,
      "d": 495.6084423828124,
      "v": 57
    },
    {
      "midi": 60,
      "hit": false,
      "t": 5012.7253886718745,
      "d": 495.6084423828124,
      "v": 71
    },
    {
      "midi": 52,
      "hit": false,
      "t": 5508.822115234374,
      "d": 490.7256005859372,
      "v": 59
    },
    {
      "midi": 55,
      "hit": false,
      "t": 5508.822115234374,
      "d": 490.7256005859372,
      "v": 59
    },
    {
      "midi": 59,
      "hit": false,
      "t": 5508.822115234374,
      "d": 490.7256005859372,
      "v": 59
    },
    {
      "midi": 62,
      "hit": false,
      "t": 5508.822115234374,
      "d": 490.7256005859372,
      "v": 73
    },
    {
      "midi": 72,
      "hit": false,
      "t": 5508.822115234375,
      "d": 490.7256005859372,
      "v": 59
    },
    {
      "midi": 84,
      "hit": false,
      "t": 5508.822115234375,
      "d": 490.7256005859372,
      "v": 73
    },
    {
      "midi": 53,
      "hit": false,
      "t": 6001.989136718748,
      "d": 1497.567579101562,
      "v": 64
    },
    {
      "midi": 76,
      "hit": false,
      "t": 6001.989136718749,
      "d": 1006.3536943359377,
      "v": 56
    },
    {
      "midi": 88,
      "hit": false,
      "t": 6265.662593749999,
      "d": 231.93498535156232,
      "v": 64
    },
    {
      "midi": 57,
      "hit": false,
      "t": 6512.734388671874,
      "d": 495.6084423828124,
      "v": 57
    },
    {
      "midi": 60,
      "hit": false,
      "t": 6512.734388671874,
      "d": 495.6084423828124,
      "v": 57
    },
    {
      "midi": 64,
      "hit": false,
      "t": 6512.734388671874,
      "d": 495.6084423828124,
      "v": 71
    },
    {
      "midi": 84,
      "hit": false,
      "t": 6512.7343886718745,
      "d": 495.6084423828124,
      "v": 65
    },
    {
      "midi": 57,
      "hit": false,
      "t": 7008.831115234373,
      "d": 490.7256005859372,
      "v": 59
    },
    {
      "midi": 60,
      "hit": false,
      "t": 7008.831115234373,
      "d": 490.7256005859372,
      "v": 59
    },
    {
      "midi": 64,
      "hit": false,
      "t": 7008.831115234373,
      "d": 490.7256005859372,
      "v": 73
    },
    {
      "midi": 77,
      "hit": false,
      "t": 7008.831115234374,
      "d": 490.7256005859372,
      "v": 59
    },
    {
      "midi": 89,
      "hit": false,
      "t": 7008.831115234374,
      "d": 490.7256005859372,
      "v": 73
    },
    {
      "midi": 81,
      "hit": false,
      "t": 7008.831115234374,
      "d": 490.7256005859372,
      "v": 67
    },
    {
      "midi": 52,
      "hit": false,
      "t": 7501.998136718747,
      "d": 1497.5675791015647,
      "v": 64
    },
    {
      "midi": 86,
      "hit": false,
      "t": 7501.998136718748,
      "d": 263.18517285156213,
      "v": 57
    },
    {
      "midi": 79,
      "hit": false,
      "t": 7501.998136718748,
      "d": 1006.3536943359359,
      "v": 56
    },
    {
      "midi": 91,
      "hit": false,
      "t": 7501.998136718748,
      "d": 1006.3536943359359,
      "v": 70
    },
    {
      "midi": 86,
      "hit": false,
      "t": 7765.671593749998,
      "d": 261.7203203125,
      "v": 52
    },
    {
      "midi": 83,
      "hit": false,
      "t": 8012.743388671873,
      "d": 495.6084423828115,
      "v": 65
    },
    {
      "midi": 55,
      "hit": false,
      "t": 8012.743388671873,
      "d": 495.60844238281334,
      "v": 57
    },
    {
      "midi": 59,
      "hit": false,
      "t": 8012.743388671873,
      "d": 495.60844238281334,
      "v": 57
    },
    {
      "midi": 62,
      "hit": false,
      "t": 8012.743388671873,
      "d": 495.60844238281334,
      "v": 71
    },
    {
      "midi": 76,
      "hit": false,
      "t": 8508.840115234372,
      "d": 490.7256005859381,
      "v": 59
    },
    {
      "midi": 88,
      "hit": false,
      "t": 8508.840115234372,
      "d": 490.7256005859381,
      "v": 73
    },
    {
      "midi": 79,
      "hit": false,
      "t": 8508.840115234372,
      "d": 490.7256005859381,
      "v": 67
    },
    {
      "midi": 55,
      "hit": false,
      "t": 8508.840115234374,
      "d": 490.7256005859381,
      "v": 59
    },
    {
      "midi": 59,
      "hit": false,
      "t": 8508.840115234374,
      "d": 490.7256005859381,
      "v": 59
    },
    {
      "midi": 62,
      "hit": false,
      "t": 8508.840115234374,
      "d": 490.7256005859381,
      "v": 73
    },
    {
      "midi": 72,
      "hit": false,
      "t": 9002.007136718748,
      "d": 1006.3536943359377,
      "v": 56
    },
    {
      "midi": 84,
      "hit": false,
      "t": 9002.007136718748,
      "d": 1006.3536943359377,
      "v": 70
    },
    {
      "midi": 50,
      "hit": false,
      "t": 9002.00713671875,
      "d": 758.7936152343755,
      "v": 61
    },
    {
      "midi": 53,
      "hit": false,
      "t": 9002.00713671875,
      "d": 758.7936152343755,
      "v": 61
    },
    {
      "midi": 57,
      "hit": false,
      "t": 9002.00713671875,
      "d": 758.7936152343755,
      "v": 61
    },
    {
      "midi": 60,
      "hit": false,
      "t": 9002.00713671875,
      "d": 758.7936152343755,
      "v": 75
    },
    {
      "midi": 52,
      "hit": false,
      "t": 9761.289036132814,
      "d": 232.4232695312494,
      "v": 56
    },
    {
      "midi": 55,
      "hit": false,
      "t": 9761.289036132814,
      "d": 232.4232695312494,
      "v": 56
    },
    {
      "midi": 59,
      "hit": false,
      "t": 9761.289036132814,
      "d": 247.07179492187424,
      "v": 56
    },
    {
      "midi": 62,
      "hit": false,
      "t": 9761.289036132814,
      "d": 247.07179492187424,
      "v": 70
    },
    {
      "midi": 74,
      "hit": false,
      "t": 10008.849115234374,
      "d": 490.7256005859381,
      "v": 59
    },
    {
      "midi": 86,
      "hit": false,
      "t": 10008.849115234374,
      "d": 490.7256005859381,
      "v": 73
    },
    {
      "midi": 50,
      "hit": false,
      "t": 10008.849115234376,
      "d": 490.7256005859381,
      "v": 59
    },
    {
      "midi": 53,
      "hit": false,
      "t": 10008.849115234376,
      "d": 490.7256005859381,
      "v": 59
    },
    {
      "midi": 57,
      "hit": false,
      "t": 10008.849115234376,
      "d": 490.7256005859381,
      "v": 59
    },
    {
      "midi": 60,
      "hit": false,
      "t": 10008.849115234376,
      "d": 490.7256005859381,
      "v": 73
    },
    {
      "midi": 72,
      "hit": false,
      "t": 10502.01613671875,
      "d": 1497.567579101562,
      "v": 56
    },
    {
      "midi": 84,
      "hit": false,
      "t": 10502.01613671875,
      "d": 1497.567579101562,
      "v": 70
    },
    {
      "midi": 48,
      "hit": false,
      "t": 10502.016136718752,
      "d": 1497.567579101562,
      "v": 56
    },
    {
      "midi": 52,
      "hit": false,
      "t": 10502.016136718752,
      "d": 1497.567579101562,
      "v": 56
    },
    {
      "midi": 55,
      "hit": false,
      "t": 10502.016136718752,
      "d": 1497.567579101562,
      "v": 56
    },
    {
      "midi": 59,
      "hit": false,
      "t": 10502.016136718752,
      "d": 1497.567579101562,
      "v": 70
    },
    {
      "midi": 76,
      "hit": false,
      "t": 12002.02513671875,
      "d": 1006.3536943359377,
      "v": 56
    },
    {
      "midi": 53,
      "hit": false,
      "t": 12002.025136718752,
      "d": 1497.5675791015638,
      "v": 64
    },
    {
      "midi": 88,
      "hit": false,
      "t": 12265.69859375,
      "d": 231.93498535156323,
      "v": 64
    },
    {
      "midi": 84,
      "hit": false,
      "t": 12512.770388671875,
      "d": 495.6084423828124,
      "v": 65
    },
    {
      "midi": 57,
      "hit": false,
      "t": 12512.770388671877,
      "d": 495.6084423828124,
      "v": 57
    },
    {
      "midi": 60,
      "hit": false,
      "t": 12512.770388671877,
      "d": 495.6084423828124,
      "v": 57
    },
    {
      "midi": 64,
      "hit": false,
      "t": 12512.770388671877,
      "d": 495.6084423828124,
      "v": 71
    },
    {
      "midi": 77,
      "hit": false,
      "t": 13008.867115234376,
      "d": 490.7256005859381,
      "v": 59
    },
    {
      "midi": 89,
      "hit": false,
      "t": 13008.867115234376,
      "d": 490.7256005859381,
      "v": 73
    },
    {
      "midi": 81,
      "hit": false,
      "t": 13008.867115234376,
      "d": 490.7256005859381,
      "v": 67
    },
    {
      "midi": 57,
      "hit": false,
      "t": 13008.867115234378,
      "d": 490.7256005859381,
      "v": 59
    },
    {
      "midi": 60,
      "hit": false,
      "t": 13008.867115234378,
      "d": 490.7256005859381,
      "v": 59
    },
    {
      "midi": 64,
      "hit": false,
      "t": 13008.867115234378,
      "d": 490.7256005859381,
      "v": 73
    },
    {
      "midi": 86,
      "hit": false,
      "t": 13502.034136718752,
      "d": 263.18517285156304,
      "v": 57
    },
    {
      "midi": 79,
      "hit": false,
      "t": 13502.034136718752,
      "d": 1006.3536943359377,
      "v": 56
    },
    {
      "midi": 91,
      "hit": false,
      "t": 13502.034136718752,
      "d": 1006.3536943359377,
      "v": 70
    },
    {
      "midi": 52,
      "hit": false,
      "t": 13502.034136718754,
      "d": 1497.5675791015638,
      "v": 64
    },
    {
      "midi": 86,
      "hit": false,
      "t": 13765.707593750003,
      "d": 261.7203203124991,
      "v": 52
    },
    {
      "midi": 83,
      "hit": false,
      "t": 14012.779388671877,
      "d": 495.6084423828124,
      "v": 65
    },
    {
      "midi": 55,
      "hit": false,
      "t": 14012.77938867188,
      "d": 495.6084423828124,
      "v": 57
    },
    {
      "midi": 59,
      "hit": false,
      "t": 14012.77938867188,
      "d": 495.6084423828124,
      "v": 57
    },
    {
      "midi": 62,
      "hit": false,
      "t": 14012.77938867188,
      "d": 495.6084423828124,
      "v": 71
    },
    {
      "midi": 76,
      "hit": false,
      "t": 14508.876115234378,
      "d": 490.7256005859381,
      "v": 59
    },
    {
      "midi": 88,
      "hit": false,
      "t": 14508.876115234378,
      "d": 490.7256005859381,
      "v": 73
    },
    {
      "midi": 79,
      "hit": false,
      "t": 14508.876115234378,
      "d": 490.7256005859381,
      "v": 67
    },
    {
      "midi": 55,
      "hit": false,
      "t": 14508.87611523438,
      "d": 490.7256005859381,
      "v": 59
    },
    {
      "midi": 59,
      "hit": false,
      "t": 14508.87611523438,
      "d": 490.7256005859381,
      "v": 59
    },
    {
      "midi": 62,
      "hit": false,
      "t": 14508.87611523438,
      "d": 490.7256005859381,
      "v": 73
    },
    {
      "midi": 84,
      "hit": false,
      "t": 15002.043136718754,
      "d": 263.18517285156304,
      "v": 57
    },
    {
      "midi": 76,
      "hit": false,
      "t": 15002.043136718754,
      "d": 1006.3536943359377,
      "v": 56
    },
    {
      "midi": 88,
      "hit": false,
      "t": 15002.043136718754,
      "d": 1006.3536943359377,
      "v": 70
    },
    {
      "midi": 50,
      "hit": false,
      "t": 15002.043136718756,
      "d": 1497.5675791015638,
      "v": 64
    },
    {
      "midi": 84,
      "hit": false,
      "t": 15265.716593750005,
      "d": 261.7203203124991,
      "v": 52
    },
    {
      "midi": 81,
      "hit": false,
      "t": 15512.78838867188,
      "d": 495.6084423828124,
      "v": 65
    },
    {
      "midi": 53,
      "hit": false,
      "t": 15512.788388671881,
      "d": 495.6084423828124,
      "v": 57
    },
    {
      "midi": 57,
      "hit": false,
      "t": 15512.788388671881,
      "d": 495.6084423828124,
      "v": 57
    },
    {
      "midi": 60,
      "hit": false,
      "t": 15512.788388671881,
      "d": 495.6084423828124,
      "v": 71
    },
    {
      "midi": 72,
      "hit": false,
      "t": 16008.88511523438,
      "d": 490.72560058593626,
      "v": 59
    },
    {
      "midi": 84,
      "hit": false,
      "t": 16008.88511523438,
      "d": 490.72560058593626,
      "v": 73
    },
    {
      "midi": 77,
      "hit": false,
      "t": 16008.88511523438,
      "d": 490.72560058593626,
      "v": 67
    },
    {
      "midi": 53,
      "hit": false,
      "t": 16008.885115234381,
      "d": 490.7256005859381,
      "v": 59
    },
    {
      "midi": 57,
      "hit": false,
      "t": 16008.885115234381,
      "d": 490.7256005859381,
      "v": 59
    },
    {
      "midi": 60,
      "hit": false,
      "t": 16008.885115234381,
      "d": 490.7256005859381,
      "v": 73
    },
    {
      "midi": 76,
      "hit": false,
      "t": 16502.052136718754,
      "d": 1006.3536943359359,
      "v": 56
    },
    {
      "midi": 83,
      "hit": false,
      "t": 16502.052136718754,
      "d": 1006.3536943359359,
      "v": 56
    },
    {
      "midi": 88,
      "hit": false,
      "t": 16502.052136718754,
      "d": 1006.3536943359359,
      "v": 70
    },
    {
      "midi": 48,
      "hit": false,
      "t": 16502.052136718758,
      "d": 510.2569677734391,
      "v": 61
    },
    {
      "midi": 52,
      "hit": false,
      "t": 16502.052136718758,
      "d": 510.2569677734391,
      "v": 61
    },
    {
      "midi": 55,
      "hit": false,
      "t": 16502.052136718758,
      "d": 510.2569677734391,
      "v": 61
    },
    {
      "midi": 59,
      "hit": false,
      "t": 16502.052136718758,
      "d": 510.2569677734391,
      "v": 75
    },
    {
      "midi": 50,
      "hit": false,
      "t": 17012.797388671883,
      "d": 495.60844238281425,
      "v": 57
    },
    {
      "midi": 53,
      "hit": false,
      "t": 17012.797388671883,
      "d": 495.60844238281425,
      "v": 57
    },
    {
      "midi": 57,
      "hit": false,
      "t": 17012.797388671883,
      "d": 495.60844238281425,
      "v": 57
    },
    {
      "midi": 60,
      "hit": false,
      "t": 17012.797388671883,
      "d": 495.60844238281425,
      "v": 71
    },
    {
      "midi": 72,
      "hit": false,
      "t": 17508.894115234376,
      "d": 490.7256005859381,
      "v": 59
    },
    {
      "midi": 84,
      "hit": false,
      "t": 17508.894115234376,
      "d": 490.7256005859381,
      "v": 73
    },
    {
      "midi": 52,
      "hit": false,
      "t": 17508.894115234383,
      "d": 490.7256005859381,
      "v": 59
    },
    {
      "midi": 55,
      "hit": false,
      "t": 17508.894115234383,
      "d": 490.7256005859381,
      "v": 59
    },
    {
      "midi": 59,
      "hit": false,
      "t": 17508.894115234383,
      "d": 490.7256005859381,
      "v": 59
    },
    {
      "midi": 62,
      "hit": false,
      "t": 17508.894115234383,
      "d": 490.7256005859381,
      "v": 73
    },
    {
      "midi": 76,
      "hit": false,
      "t": 18002.061136718752,
      "d": 1006.3536943359395,
      "v": 56
    },
    {
      "midi": 53,
      "hit": false,
      "t": 18002.06113671876,
      "d": 1497.5675791015638,
      "v": 64
    },
    {
      "midi": 88,
      "hit": false,
      "t": 18265.734593750003,
      "d": 231.93498535156323,
      "v": 64
    },
    {
      "midi": 84,
      "hit": false,
      "t": 18512.806388671877,
      "d": 495.60844238281425,
      "v": 65
    },
    {
      "midi": 57,
      "hit": false,
      "t": 18512.806388671885,
      "d": 495.60844238281425,
      "v": 57
    },
    {
      "midi": 60,
      "hit": false,
      "t": 18512.806388671885,
      "d": 495.60844238281425,
      "v": 57
    },
    {
      "midi": 64,
      "hit": false,
      "t": 18512.806388671885,
      "d": 495.60844238281425,
      "v": 71
    },
    {
      "midi": 77,
      "hit": false,
      "t": 19008.903115234378,
      "d": 490.7256005859381,
      "v": 59
    },
    {
      "midi": 89,
      "hit": false,
      "t": 19008.903115234378,
      "d": 490.7256005859381,
      "v": 73
    },
    {
      "midi": 81,
      "hit": false,
      "t": 19008.903115234378,
      "d": 490.7256005859381,
      "v": 67
    },
    {
      "midi": 57,
      "hit": false,
      "t": 19008.903115234385,
      "d": 490.7256005859381,
      "v": 59
    },
    {
      "midi": 60,
      "hit": false,
      "t": 19008.903115234385,
      "d": 490.7256005859381,
      "v": 59
    },
    {
      "midi": 64,
      "hit": false,
      "t": 19008.903115234385,
      "d": 490.7256005859381,
      "v": 73
    },
    {
      "midi": 86,
      "hit": false,
      "t": 19502.070136718754,
      "d": 263.1851728515612,
      "v": 57
    },
    {
      "midi": 79,
      "hit": false,
      "t": 19502.070136718754,
      "d": 1006.3536943359322,
      "v": 56
    },
    {
      "midi": 91,
      "hit": false,
      "t": 19502.070136718754,
      "d": 1006.3536943359322,
      "v": 70
    },
    {
      "midi": 52,
      "hit": false,
      "t": 19502.07013671876,
      "d": 1497.5675791015638,
      "v": 64
    },
    {
      "midi": 86,
      "hit": false,
      "t": 19765.74359375,
      "d": 261.7203203124991,
      "v": 52
    },
    {
      "midi": 83,
      "hit": false,
      "t": 20012.815388671876,
      "d": 495.6084423828106,
      "v": 65
    },
    {
      "midi": 55,
      "hit": false,
      "t": 20012.815388671886,
      "d": 495.60844238281425,
      "v": 57
    },
    {
      "midi": 59,
      "hit": false,
      "t": 20012.815388671886,
      "d": 495.60844238281425,
      "v": 57
    },
    {
      "midi": 62,
      "hit": false,
      "t": 20012.815388671886,
      "d": 495.60844238281425,
      "v": 71
    },
    {
      "midi": 76,
      "hit": false,
      "t": 20508.912115234372,
      "d": 490.7256005859381,
      "v": 59
    },
    {
      "midi": 88,
      "hit": false,
      "t": 20508.912115234372,
      "d": 490.7256005859381,
      "v": 73
    },
    {
      "midi": 79,
      "hit": false,
      "t": 20508.912115234372,
      "d": 490.7256005859381,
      "v": 67
    },
    {
      "midi": 55,
      "hit": false,
      "t": 20508.912115234387,
      "d": 490.7256005859381,
      "v": 59
    },
    {
      "midi": 59,
      "hit": false,
      "t": 20508.912115234387,
      "d": 490.7256005859381,
      "v": 59
    },
    {
      "midi": 62,
      "hit": false,
      "t": 20508.912115234387,
      "d": 490.7256005859381,
      "v": 73
    },
    {
      "midi": 72,
      "hit": false,
      "t": 21002.07913671875,
      "d": 1006.3536943359359,
      "v": 56
    },
    {
      "midi": 84,
      "hit": false,
      "t": 21002.07913671875,
      "d": 1006.3536943359359,
      "v": 70
    },
    {
      "midi": 50,
      "hit": false,
      "t": 21002.079136718763,
      "d": 758.7936152343755,
      "v": 61
    },
    {
      "midi": 53,
      "hit": false,
      "t": 21002.079136718763,
      "d": 758.7936152343755,
      "v": 61
    },
    {
      "midi": 57,
      "hit": false,
      "t": 21002.079136718763,
      "d": 758.7936152343755,
      "v": 61
    },
    {
      "midi": 60,
      "hit": false,
      "t": 21002.079136718763,
      "d": 758.7936152343755,
      "v": 75
    },
    {
      "midi": 52,
      "hit": false,
      "t": 21761.361036132825,
      "d": 232.4232695312494,
      "v": 56
    },
    {
      "midi": 55,
      "hit": false,
      "t": 21761.361036132825,
      "d": 232.4232695312494,
      "v": 56
    },
    {
      "midi": 59,
      "hit": false,
      "t": 21761.361036132825,
      "d": 247.07179492187424,
      "v": 56
    },
    {
      "midi": 62,
      "hit": false,
      "t": 21761.361036132825,
      "d": 247.07179492187424,
      "v": 70
    },
    {
      "midi": 74,
      "hit": false,
      "t": 22008.92111523437,
      "d": 490.7256005859381,
      "v": 59
    },
    {
      "midi": 86,
      "hit": false,
      "t": 22008.92111523437,
      "d": 490.7256005859381,
      "v": 73
    },
    {
      "midi": 50,
      "hit": false,
      "t": 22008.921115234385,
      "d": 490.7256005859381,
      "v": 59
    },
    {
      "midi": 53,
      "hit": false,
      "t": 22008.921115234385,
      "d": 490.7256005859381,
      "v": 59
    },
    {
      "midi": 57,
      "hit": false,
      "t": 22008.921115234385,
      "d": 490.7256005859381,
      "v": 59
    },
    {
      "midi": 60,
      "hit": false,
      "t": 22008.921115234385,
      "d": 490.7256005859381,
      "v": 73
    },
    {
      "midi": 72,
      "hit": false,
      "t": 22502.088136718747,
      "d": 1497.5675791015638,
      "v": 56
    },
    {
      "midi": 84,
      "hit": false,
      "t": 22502.088136718747,
      "d": 1497.5675791015638,
      "v": 70
    },
    {
      "midi": 48,
      "hit": false,
      "t": 22502.08813671876,
      "d": 1497.5675791015638,
      "v": 56
    },
    {
      "midi": 52,
      "hit": false,
      "t": 22502.08813671876,
      "d": 1497.5675791015638,
      "v": 56
    },
    {
      "midi": 55,
      "hit": false,
      "t": 22502.08813671876,
      "d": 1497.5675791015638,
      "v": 56
    },
    {
      "midi": 59,
      "hit": false,
      "t": 22502.08813671876,
      "d": 1497.5675791015638,
      "v": 70
    },
    {
      "midi": 81,
      "hit": false,
      "t": 24002.09713671875,
      "d": 263.1851728515612,
      "v": 69
    },
    {
      "midi": 46,
      "hit": false,
      "t": 24002.097136718763,
      "d": 1497.5675791015638,
      "v": 64
    },
    {
      "midi": 81,
      "hit": false,
      "t": 24265.770593749996,
      "d": 231.93498535156323,
      "v": 64
    },
    {
      "midi": 77,
      "hit": false,
      "t": 24512.84238867187,
      "d": 248.0483632812502,
      "v": 65
    },
    {
      "midi": 74,
      "hit": false,
      "t": 24512.84238867187,
      "d": 495.6084423828106,
      "v": 57
    },
    {
      "midi": 86,
      "hit": false,
      "t": 24512.84238867187,
      "d": 495.6084423828106,
      "v": 71
    },
    {
      "midi": 50,
      "hit": false,
      "t": 24512.84238867189,
      "d": 495.60844238281425,
      "v": 57
    },
    {
      "midi": 53,
      "hit": false,
      "t": 24512.84238867189,
      "d": 495.60844238281425,
      "v": 57
    },
    {
      "midi": 57,
      "hit": false,
      "t": 24512.84238867189,
      "d": 495.60844238281425,
      "v": 71
    },
    {
      "midi": 77,
      "hit": false,
      "t": 24761.379036132807,
      "d": 232.4232695312494,
      "v": 64
    },
    {
      "midi": 86,
      "hit": false,
      "t": 25008.939115234367,
      "d": 244.14208984375,
      "v": 67
    },
    {
      "midi": 76,
      "hit": false,
      "t": 25008.939115234367,
      "d": 490.72560058593444,
      "v": 59
    },
    {
      "midi": 88,
      "hit": false,
      "t": 25008.939115234367,
      "d": 490.72560058593444,
      "v": 73
    },
    {
      "midi": 50,
      "hit": false,
      "t": 25008.93911523439,
      "d": 490.7256005859381,
      "v": 59
    },
    {
      "midi": 53,
      "hit": false,
      "t": 25008.93911523439,
      "d": 490.7256005859381,
      "v": 59
    },
    {
      "midi": 57,
      "hit": false,
      "t": 25008.93911523439,
      "d": 490.7256005859381,
      "v": 69
    },
    {
      "midi": 86,
      "hit": false,
      "t": 25253.569489257803,
      "d": 231.44670117187343,
      "v": 64
    },
    {
      "midi": 81,
      "hit": false,
      "t": 25502.10613671874,
      "d": 263.1851728515612,
      "v": 69
    },
    {
      "midi": 77,
      "hit": false,
      "t": 25502.10613671874,
      "d": 510.25696777343546,
      "v": 61
    },
    {
      "midi": 89,
      "hit": false,
      "t": 25502.10613671874,
      "d": 510.25696777343546,
      "v": 75
    },
    {
      "midi": 46,
      "hit": false,
      "t": 25502.106136718765,
      "d": 1497.5675791015638,
      "v": 64
    },
    {
      "midi": 81,
      "hit": false,
      "t": 25765.779593749987,
      "d": 231.93498535156323,
      "v": 64
    },
    {
      "midi": 77,
      "hit": false,
      "t": 26012.85138867186,
      "d": 248.0483632812502,
      "v": 65
    },
    {
      "midi": 76,
      "hit": false,
      "t": 26012.85138867186,
      "d": 495.6084423828106,
      "v": 57
    },
    {
      "midi": 88,
      "hit": false,
      "t": 26012.85138867186,
      "d": 495.6084423828106,
      "v": 71
    },
    {
      "midi": 50,
      "hit": false,
      "t": 26012.85138867189,
      "d": 495.60844238281425,
      "v": 57
    },
    {
      "midi": 53,
      "hit": false,
      "t": 26012.85138867189,
      "d": 495.60844238281425,
      "v": 57
    },
    {
      "midi": 57,
      "hit": false,
      "t": 26012.85138867189,
      "d": 495.60844238281425,
      "v": 67
    },
    {
      "midi": 77,
      "hit": false,
      "t": 26261.388036132797,
      "d": 232.4232695312494,
      "v": 64
    },
    {
      "midi": 77,
      "hit": false,
      "t": 26508.948115234358,
      "d": 490.7256005859381,
      "v": 59
    },
    {
      "midi": 86,
      "hit": false,
      "t": 26508.948115234358,
      "d": 490.7256005859381,
      "v": 59
    },
    {
      "midi": 89,
      "hit": false,
      "t": 26508.948115234358,
      "d": 490.7256005859381,
      "v": 73
    },
    {
      "midi": 50,
      "hit": false,
      "t": 26508.94811523439,
      "d": 490.7256005859381,
      "v": 59
    },
    {
      "midi": 53,
      "hit": false,
      "t": 26508.94811523439,
      "d": 490.7256005859381,
      "v": 59
    },
    {
      "midi": 57,
      "hit": false,
      "t": 26508.94811523439,
      "d": 490.7256005859381,
      "v": 73
    },
    {
      "midi": 83,
      "hit": false,
      "t": 27002.115136718734,
      "d": 263.1851728515612,
      "v": 69
    },
    {
      "midi": 91,
      "hit": false,
      "t": 27002.115136718734,
      "d": 1006.3536943359322,
      "v": 70
    },
    {
      "midi": 48,
      "hit": false,
      "t": 27002.115136718767,
      "d": 1497.5675791015638,
      "v": 64
    },
    {
      "midi": 83,
      "hit": false,
      "t": 27265.78859374998,
      "d": 231.93498535156323,
      "v": 64
    },
    {
      "midi": 79,
      "hit": false,
      "t": 27512.860388671856,
      "d": 248.0483632812502,
      "v": 65
    },
    {
      "midi": 52,
      "hit": false,
      "t": 27512.860388671892,
      "d": 495.60844238281425,
      "v": 57
    },
    {
      "midi": 55,
      "hit": false,
      "t": 27512.860388671892,
      "d": 495.60844238281425,
      "v": 57
    },
    {
      "midi": 59,
      "hit": false,
      "t": 27512.860388671892,
      "d": 495.60844238281425,
      "v": 71
    },
    {
      "midi": 79,
      "hit": false,
      "t": 27761.397036132792,
      "d": 232.4232695312494,
      "v": 64
    },
    {
      "midi": 88,
      "hit": false,
      "t": 28008.957115234352,
      "d": 490.72560058593444,
      "v": 73
    },
    {
      "midi": 52,
      "hit": false,
      "t": 28008.957115234392,
      "d": 490.7256005859381,
      "v": 59
    },
    {
      "midi": 55,
      "hit": false,
      "t": 28008.957115234392,
      "d": 490.7256005859381,
      "v": 59
    },
    {
      "midi": 59,
      "hit": false,
      "t": 28008.957115234392,
      "d": 490.7256005859381,
      "v": 69
    },
    {
      "midi": 76,
      "hit": false,
      "t": 28253.58748925779,
      "d": 231.44670117187343,
      "v": 64
    },
    {
      "midi": 83,
      "hit": false,
      "t": 28502.124136718725,
      "d": 263.1851728515612,
      "v": 69
    },
    {
      "midi": 72,
      "hit": false,
      "t": 28502.124136718725,
      "d": 1497.5675791015565,
      "v": 56
    },
    {
      "midi": 84,
      "hit": false,
      "t": 28502.124136718725,
      "d": 1497.5675791015565,
      "v": 70
    },
    {
      "midi": 48,
      "hit": false,
      "t": 28502.12413671877,
      "d": 1497.5675791015638,
      "v": 64
    },
    {
      "midi": 83,
      "hit": false,
      "t": 28765.797593749972,
      "d": 231.93498535156323,
      "v": 64
    },
    {
      "midi": 79,
      "hit": false,
      "t": 29012.869388671847,
      "d": 248.0483632812502,
      "v": 65
    },
    {
      "midi": 52,
      "hit": false,
      "t": 29012.869388671894,
      "d": 495.60844238281425,
      "v": 57
    },
    {
      "midi": 55,
      "hit": false,
      "t": 29012.869388671894,
      "d": 495.60844238281425,
      "v": 57
    },
    {
      "midi": 59,
      "hit": false,
      "t": 29012.869388671894,
      "d": 495.60844238281425,
      "v": 67
    },
    {
      "midi": 79,
      "hit": false,
      "t": 29261.406036132783,
      "d": 232.4232695312494,
      "v": 64
    },
    {
      "midi": 76,
      "hit": false,
      "t": 29508.966115234343,
      "d": 490.7256005859381,
      "v": 67
    },
    {
      "midi": 52,
      "hit": false,
      "t": 29508.966115234394,
      "d": 490.7256005859381,
      "v": 59
    },
    {
      "midi": 55,
      "hit": false,
      "t": 29508.966115234394,
      "d": 490.7256005859381,
      "v": 59
    },
    {
      "midi": 59,
      "hit": false,
      "t": 29508.966115234394,
      "d": 490.7256005859381,
      "v": 73
    },
    {
      "midi": 81,
      "hit": false,
      "t": 30002.13313671872,
      "d": 263.1851728515612,
      "v": 69
    },
    {
      "midi": 46,
      "hit": false,
      "t": 30002.13313671877,
      "d": 1497.5675791015638,
      "v": 64
    },
    {
      "midi": 81,
      "hit": false,
      "t": 30265.806593749967,
      "d": 231.93498535156323,
      "v": 64
    },
    {
      "midi": 77,
      "hit": false,
      "t": 30512.87838867184,
      "d": 248.0483632812502,
      "v": 65
    },
    {
      "midi": 74,
      "hit": false,
      "t": 30512.87838867184,
      "d": 495.6084423828106,
      "v": 57
    },
    {
      "midi": 86,
      "hit": false,
      "t": 30512.87838867184,
      "d": 495.6084423828106,
      "v": 71
    },
    {
      "midi": 50,
      "hit": false,
      "t": 30512.878388671896,
      "d": 495.60844238281425,
      "v": 57
    },
    {
      "midi": 53,
      "hit": false,
      "t": 30512.878388671896,
      "d": 495.60844238281425,
      "v": 57
    },
    {
      "midi": 57,
      "hit": false,
      "t": 30512.878388671896,
      "d": 495.60844238281425,
      "v": 71
    },
    {
      "midi": 77,
      "hit": false,
      "t": 30761.415036132777,
      "d": 232.4232695312494,
      "v": 64
    },
    {
      "midi": 86,
      "hit": false,
      "t": 31008.975115234338,
      "d": 244.14208984375,
      "v": 67
    },
    {
      "midi": 76,
      "hit": false,
      "t": 31008.975115234338,
      "d": 490.72560058593444,
      "v": 59
    },
    {
      "midi": 88,
      "hit": false,
      "t": 31008.975115234338,
      "d": 490.72560058593444,
      "v": 73
    },
    {
      "midi": 50,
      "hit": false,
      "t": 31008.975115234396,
      "d": 490.7256005859381,
      "v": 59
    },
    {
      "midi": 53,
      "hit": false,
      "t": 31008.975115234396,
      "d": 490.7256005859381,
      "v": 59
    },
    {
      "midi": 57,
      "hit": false,
      "t": 31008.975115234396,
      "d": 490.7256005859381,
      "v": 69
    },
    {
      "midi": 86,
      "hit": false,
      "t": 31253.605489257774,
      "d": 231.44670117187343,
      "v": 64
    },
    {
      "midi": 81,
      "hit": false,
      "t": 31502.14213671871,
      "d": 263.1851728515612,
      "v": 69
    },
    {
      "midi": 77,
      "hit": false,
      "t": 31502.14213671871,
      "d": 510.25696777343546,
      "v": 61
    },
    {
      "midi": 89,
      "hit": false,
      "t": 31502.14213671871,
      "d": 510.25696777343546,
      "v": 75
    },
    {
      "midi": 46,
      "hit": false,
      "t": 31502.142136718772,
      "d": 1497.56757910156,
      "v": 64
    },
    {
      "midi": 81,
      "hit": false,
      "t": 31765.815593749958,
      "d": 231.93498535156323,
      "v": 64
    },
    {
      "midi": 77,
      "hit": false,
      "t": 32012.887388671832,
      "d": 248.0483632812502,
      "v": 65
    },
    {
      "midi": 76,
      "hit": false,
      "t": 32012.887388671832,
      "d": 495.6084423828106,
      "v": 57
    },
    {
      "midi": 88,
      "hit": false,
      "t": 32012.887388671832,
      "d": 495.6084423828106,
      "v": 71
    },
    {
      "midi": 50,
      "hit": false,
      "t": 32012.887388671897,
      "d": 495.60844238281425,
      "v": 57
    },
    {
      "midi": 53,
      "hit": false,
      "t": 32012.887388671897,
      "d": 495.60844238281425,
      "v": 57
    },
    {
      "midi": 57,
      "hit": false,
      "t": 32012.887388671897,
      "d": 495.60844238281425,
      "v": 67
    },
    {
      "midi": 77,
      "hit": false,
      "t": 32261.42403613277,
      "d": 232.4232695312494,
      "v": 64
    },
    {
      "midi": 77,
      "hit": false,
      "t": 32508.98411523433,
      "d": 490.7256005859381,
      "v": 59
    },
    {
      "midi": 86,
      "hit": false,
      "t": 32508.98411523433,
      "d": 490.7256005859381,
      "v": 59
    },
    {
      "midi": 89,
      "hit": false,
      "t": 32508.98411523433,
      "d": 490.7256005859381,
      "v": 73
    },
    {
      "midi": 50,
      "hit": false,
      "t": 32508.984115234398,
      "d": 490.72560058593444,
      "v": 59
    },
    {
      "midi": 53,
      "hit": false,
      "t": 32508.984115234398,
      "d": 490.72560058593444,
      "v": 59
    },
    {
      "midi": 57,
      "hit": false,
      "t": 32508.984115234398,
      "d": 490.72560058593444,
      "v": 73
    },
    {
      "midi": 84,
      "hit": false,
      "t": 33002.151136718705,
      "d": 263.1851728515612,
      "v": 69
    },
    {
      "midi": 79,
      "hit": false,
      "t": 33002.151136718705,
      "d": 1006.3536943359359,
      "v": 56
    },
    {
      "midi": 91,
      "hit": false,
      "t": 33002.151136718705,
      "d": 1006.3536943359359,
      "v": 70
    },
    {
      "midi": 48,
      "hit": false,
      "t": 33002.15113671877,
      "d": 1497.56757910156,
      "v": 64
    },
    {
      "midi": 84,
      "hit": false,
      "t": 33265.82459374995,
      "d": 231.9349853515596,
      "v": 64
    },
    {
      "midi": 81,
      "hit": false,
      "t": 33512.89638867183,
      "d": 248.04836328124657,
      "v": 65
    },
    {
      "midi": 53,
      "hit": false,
      "t": 33512.89638867189,
      "d": 495.60844238281425,
      "v": 57
    },
    {
      "midi": 57,
      "hit": false,
      "t": 33512.89638867189,
      "d": 495.60844238281425,
      "v": 57
    },
    {
      "midi": 60,
      "hit": false,
      "t": 33512.89638867189,
      "d": 495.60844238281425,
      "v": 71
    },
    {
      "midi": 81,
      "hit": false,
      "t": 33761.43303613276,
      "d": 232.42326953125303,
      "v": 64
    },
    {
      "midi": 81,
      "hit": false,
      "t": 34008.99311523433,
      "d": 490.7256005859381,
      "v": 59
    },
    {
      "midi": 89,
      "hit": false,
      "t": 34008.99311523433,
      "d": 490.7256005859381,
      "v": 59
    },
    {
      "midi": 93,
      "hit": false,
      "t": 34008.99311523433,
      "d": 490.7256005859381,
      "v": 73
    },
    {
      "midi": 53,
      "hit": false,
      "t": 34008.99311523439,
      "d": 490.7256005859381,
      "v": 59
    },
    {
      "midi": 57,
      "hit": false,
      "t": 34008.99311523439,
      "d": 490.7256005859381,
      "v": 59
    },
    {
      "midi": 60,
      "hit": false,
      "t": 34008.99311523439,
      "d": 490.7256005859381,
      "v": 69
    },
    {
      "midi": 79,
      "hit": false,
      "t": 34502.1601367187,
      "d": 1497.56757910156,
      "v": 56
    },
    {
      "midi": 91,
      "hit": false,
      "t": 34502.1601367187,
      "d": 1497.56757910156,
      "v": 70
    },
    {
      "midi": 53,
      "hit": false,
      "t": 34502.16013671877,
      "d": 1497.56757910156,
      "v": 56
    },
    {
      "midi": 55,
      "hit": false,
      "t": 34502.16013671877,
      "d": 1497.56757910156,
      "v": 67
    },
    {
      "midi": 57,
      "hit": false,
      "t": 34502.16013671877,
      "d": 1497.56757910156,
      "v": 56
    },
    {
      "midi": 60,
      "hit": false,
      "t": 34502.16013671877,
      "d": 1497.56757910156,
      "v": 62
    }
  ]
}