{
  "jsonPath": "Rock/Horror Punk/The Misfits/braineaters.json",
  "path": "Rock\\Horror Punk\\The Misfits\\Braineaters.mid",
  "name": "Braineaters",
  "difficulty": "Advanced",
  "bpm": 190.0002850004275,
  "notes": [
    {
      "midi": 60,
      "hit": false,
      "t": 0,
      "d": 280.3735,
      "v": 95
    },
    {
      "midi": 63,
      "hit": false,
      "t": 280.3735,
      "d": 280.3735,
      "v": 95
    },
    {
      "midi": 67,
      "hit": false,
      "t": 560.747,
      "d": 280.37350000000004,
      "v": 95
    },
    {
      "midi": 60,
      "hit": false,
      "t": 841.1205,
      "d": 280.3734999999999,
      "v": 95
    },
    {
      "midi": 63,
      "hit": false,
      "t": 1121.494,
      "d": 280.3734999999999,
      "v": 95
    },
    {
      "midi": 67,
      "hit": false,
      "t": 1401.8674999999998,
      "d": 280.3734999999999,
      "v": 95
    },
    {
      "midi": 60,
      "hit": false,
      "t": 1682.2409999999998,
      "d": 280.3734999999999,
      "v": 95
    },
    {
      "midi": 67,
      "hit": false,
      "t": 1962.6144999999997,
      "d": 280.37350000000015,
      "v": 95
    },
    {
      "midi": 62,
      "hit": false,
      "t": 2242.988,
      "d": 280.37350000000015,
      "v": 95
    },
    {
      "midi": 63,
      "hit": false,
      "t": 2523.3615,
      "d": 280.37350000000015,
      "v": 95
    },
    {
      "midi": 67,
      "hit": false,
      "t": 2803.735,
      "d": 280.37350000000015,
      "v": 95
    },
    {
      "midi": 62,
      "hit": false,
      "t": 3084.1085000000003,
      "d": 280.37350000000015,
      "v": 95
    },
    {
      "midi": 63,
      "hit": false,
      "t": 3364.4820000000004,
      "d": 280.37350000000015,
      "v": 95
    },
    {
      "midi": 67,
      "hit": false,
      "t": 3644.8555000000006,
      "d": 280.37350000000015,
      "v": 95
    },
    {
      "midi": 62,
      "hit": false,
      "t": 3925.2290000000007,
      "d": 280.37350000000015,
      "v": 95
    },
    {
      "midi": 67,
      "hit": false,
      "t": 4205.602500000001,
      "d": 280.3734999999997,
      "v": 95
    },
    {
      "midi": 60,
      "hit": false,
      "t": 4485.976000000001,
      "d": 280.3734999999997,
      "v": 95
    },
    {
      "midi": 63,
      "hit": false,
      "t": 4766.3495,
      "d": 280.3734999999997,
      "v": 95
    },
    {
      "midi": 67,
      "hit": false,
      "t": 5046.723,
      "d": 280.3734999999997,
      "v": 95
    },
    {
      "midi": 60,
      "hit": false,
      "t": 5327.0965,
      "d": 280.3734999999997,
      "v": 95
    },
    {
      "midi": 63,
      "hit": false,
      "t": 5607.469999999999,
      "d": 280.3734999999997,
      "v": 95
    },
    {
      "midi": 67,
      "hit": false,
      "t": 5887.843499999999,
      "d": 280.3734999999997,
      "v": 95
    },
    {
      "midi": 60,
      "hit": false,
      "t": 6168.216999999999,
      "d": 280.3734999999997,
      "v": 95
    },
    {
      "midi": 67,
      "hit": false,
      "t": 6448.590499999998,
      "d": 280.3734999999997,
      "v": 95
    },
    {
      "midi": 62,
      "hit": false,
      "t": 6728.963999999998,
      "d": 280.3734999999997,
      "v": 95
    },
    {
      "midi": 66,
      "hit": false,
      "t": 7009.337499999998,
      "d": 280.3734999999997,
      "v": 95
    },
    {
      "midi": 67,
      "hit": false,
      "t": 7289.7109999999975,
      "d": 280.3734999999997,
      "v": 95
    },
    {
      "midi": 62,
      "hit": false,
      "t": 7570.084499999997,
      "d": 280.3734999999997,
      "v": 95
    },
    {
      "midi": 66,
      "hit": false,
      "t": 7850.457999999997,
      "d": 280.3734999999997,
      "v": 95
    },
    {
      "midi": 67,
      "hit": false,
      "t": 8130.831499999997,
      "d": 280.3734999999997,
      "v": 95
    },
    {
      "midi": 62,
      "hit": false,
      "t": 8411.204999999996,
      "d": 280.3734999999997,
      "v": 95
    },
    {
      "midi": 67,
      "hit": false,
      "t": 8691.578499999996,
      "d": 280.3734999999997,
      "v": 95
    },
    {
      "midi": 60,
      "hit": false,
      "t": 8971.951999999996,
      "d": 280.3734999999997,
      "v": 95
    },
    {
      "midi": 63,
      "hit": false,
      "t": 9252.325499999995,
      "d": 280.3734999999997,
      "v": 95
    },
    {
      "midi": 67,
      "hit": false,
      "t": 9532.698999999995,
      "d": 280.3734999999997,
      "v": 95
    },
    {
      "midi": 60,
      "hit": false,
      "t": 9813.072499999995,
      "d": 280.3734999999997,
      "v": 95
    },
    {
      "midi": 63,
      "hit": false,
      "t": 10093.445999999994,
      "d": 280.3734999999997,
      "v": 95
    },
    {
      "midi": 67,
      "hit": false,
      "t": 10373.819499999994,
      "d": 280.3734999999997,
      "v": 95
    },
    {
      "midi": 60,
      "hit": false,
      "t": 10654.192999999994,
      "d": 280.3734999999997,
      "v": 95
    },
    {
      "midi": 67,
      "hit": false,
      "t": 10934.566499999994,
      "d": 280.3734999999997,
      "v": 95
    },
    {
      "midi": 62,
      "hit": false,
      "t": 11214.939999999993,
      "d": 280.3734999999997,
      "v": 95
    },
    {
      "midi": 63,
      "hit": false,
      "t": 11495.313499999993,
      "d": 280.3734999999997,
      "v": 95
    },
    {
      "midi": 67,
      "hit": false,
      "t": 11775.686999999993,
      "d": 280.3734999999997,
      "v": 95
    },
    {
      "midi": 62,
      "hit": false,
      "t": 12056.060499999992,
      "d": 280.3734999999997,
      "v": 95
    },
    {
      "midi": 63,
      "hit": false,
      "t": 12336.433999999992,
      "d": 280.3734999999997,
      "v": 95
    },
    {
      "midi": 67,
      "hit": false,
      "t": 12616.807499999992,
      "d": 280.3734999999997,
      "v": 95
    },
    {
      "midi": 62,
      "hit": false,
      "t": 12897.180999999991,
      "d": 280.3734999999997,
      "v": 95
    },
    {
      "midi": 67,
      "hit": false,
      "t": 13177.554499999991,
      "d": 280.3734999999997,
      "v": 95
    },
    {
      "midi": 60,
      "hit": false,
      "t": 13457.92799999999,
      "d": 280.3734999999997,
      "v": 95
    },
    {
      "midi": 63,
      "hit": false,
      "t": 13738.30149999999,
      "d": 280.3734999999997,
      "v": 95
    },
    {
      "midi": 67,
      "hit": false,
      "t": 14018.67499999999,
      "d": 280.3734999999997,
      "v": 95
    },
    {
      "midi": 60,
      "hit": false,
      "t": 14299.04849999999,
      "d": 280.3734999999997,
      "v": 95
    },
    {
      "midi": 63,
      "hit": false,
      "t": 14579.42199999999,
      "d": 280.3734999999997,
      "v": 95
    },
    {
      "midi": 67,
      "hit": false,
      "t": 14859.79549999999,
      "d": 280.3734999999997,
      "v": 95
    },
    {
      "midi": 60,
      "hit": false,
      "t": 15140.168999999989,
      "d": 280.3734999999997,
      "v": 95
    },
    {
      "midi": 67,
      "hit": false,
      "t": 15420.542499999989,
      "d": 280.3734999999997,
      "v": 95
    },
    {
      "midi": 62,
      "hit": false,
      "t": 15700.915999999988,
      "d": 280.3734999999997,
      "v": 95
    },
    {
      "midi": 66,
      "hit": false,
      "t": 15981.289499999988,
      "d": 280.3734999999997,
      "v": 95
    },
    {
      "midi": 67,
      "hit": false,
      "t": 16261.662999999988,
      "d": 280.3734999999997,
      "v": 95
    },
    {
      "midi": 62,
      "hit": false,
      "t": 16542.036499999987,
      "d": 280.3735000000015,
      "v": 95
    },
    {
      "midi": 66,
      "hit": false,
      "t": 16822.40999999999,
      "d": 280.3735000000015,
      "v": 95
    },
    {
      "midi": 67,
      "hit": false,
      "t": 17102.78349999999,
      "d": 280.3735000000015,
      "v": 95
    },
    {
      "midi": 62,
      "hit": false,
      "t": 17383.156999999992,
      "d": 280.3735000000015,
      "v": 95
    },
    {
      "midi": 67,
      "hit": false,
      "t": 17663.530499999993,
      "d": 280.3735000000015,
      "v": 95
    },
    {
      "midi": 60,
      "hit": false,
      "t": 17943.903999999995,
      "d": 280.3735000000015,
      "v": 95
    },
    {
      "midi": 63,
      "hit": false,
      "t": 18224.277499999997,
      "d": 280.3735000000015,
      "v": 95
    },
    {
      "midi": 67,
      "hit": false,
      "t": 18504.650999999998,
      "d": 280.3735000000015,
      "v": 95
    },
    {
      "midi": 60,
      "hit": false,
      "t": 18785.0245,
      "d": 280.3735000000015,
      "v": 95
    },
    {
      "midi": 63,
      "hit": false,
      "t": 19065.398,
      "d": 280.3735000000015,
      "v": 95
    },
    {
      "midi": 67,
      "hit": false,
      "t": 19345.771500000003,
      "d": 280.3735000000015,
      "v": 95
    },
    {
      "midi": 60,
      "hit": false,
      "t": 19626.145000000004,
      "d": 280.3735000000015,
      "v": 95
    },
    {
      "midi": 67,
      "hit": false,
      "t": 19906.518500000006,
      "d": 280.3735000000015,
      "v": 95
    },
    {
      "midi": 62,
      "hit": false,
      "t": 20186.892000000007,
      "d": 280.3735000000015,
      "v": 95
    },
    {
      "midi": 63,
      "hit": false,
      "t": 20467.26550000001,
      "d": 280.3735000000015,
      "v": 95
    },
    {
      "midi": 67,
      "hit": false,
      "t": 20747.63900000001,
      "d": 280.3735000000015,
      "v": 95
    },
    {
      "midi": 62,
      "hit": false,
      "t": 21028.01250000001,
      "d": 280.3735000000015,
      "v": 95
    },
    {
      "midi": 63,
      "hit": false,
      "t": 21308.386000000013,
      "d": 280.3735000000015,
      "v": 95
    },
    {
      "midi": 67,
      "hit": false,
      "t": 21588.759500000015,
      "d": 280.3735000000015,
      "v": 95
    },
    {
      "midi": 62,
      "hit": false,
      "t": 21869.133000000016,
      "d": 280.3735000000015,
      "v": 95
    },
    {
      "midi": 67,
      "hit": false,
      "t": 22149.506500000018,
      "d": 280.3735000000015,
      "v": 95
    },
    {
      "midi": 60,
      "hit": false,
      "t": 22429.88000000002,
      "d": 280.3735000000015,
      "v": 95
    },
    {
      "midi": 63,
      "hit": false,
      "t": 22710.25350000002,
      "d": 280.3735000000015,
      "v": 95
    },
    {
      "midi": 67,
      "hit": false,
      "t": 22990.627000000022,
      "d": 280.3735000000015,
      "v": 95
    },
    {
      "midi": 60,
      "hit": false,
      "t": 23271.000500000024,
      "d": 280.3735000000015,
      "v": 95
    },
    {
      "midi": 63,
      "hit": false,
      "t": 23551.374000000025,
      "d": 280.3735000000015,
      "v": 95
    },
    {
      "midi": 67,
      "hit": false,
      "t": 23831.747500000027,
      "d": 280.3735000000015,
      "v": 95
    },
    {
      "midi": 60,
      "hit": false,
      "t": 24112.12100000003,
      "d": 280.3735000000015,
      "v": 95
    },
    {
      "midi": 67,
      "hit": false,
      "t": 24392.49450000003,
      "d": 280.3735000000015,
      "v": 95
    },
    {
      "midi": 62,
      "hit": false,
      "t": 24672.86800000003,
      "d": 280.3735000000015,
      "v": 95
    },
    {
      "midi": 66,
      "hit": false,
      "t": 24953.241500000033,
      "d": 280.3735000000015,
      "v": 95
    },
    {
      "midi": 67,
      "hit": false,
      "t": 25233.615000000034,
      "d": 280.3735000000015,
      "v": 95
    },
    {
      "midi": 62,
      "hit": false,
      "t": 25513.988500000036,
      "d": 280.3735000000015,
      "v": 95
    },
    {
      "midi": 66,
      "hit": false,
      "t": 25794.362000000037,
      "d": 280.3735000000015,
      "v": 95
    },
    {
      "midi": 67,
      "hit": false,
      "t": 26074.73550000004,
      "d": 280.3735000000015,
      "v": 95
    },
    {
      "midi": 62,
      "hit": false,
      "t": 26355.10900000004,
      "d": 280.3735000000015,
      "v": 95
    },
    {
      "midi": 67,
      "hit": false,
      "t": 26635.482500000042,
      "d": 280.3735000000015,
      "v": 95
    },
    {
      "midi": 60,
      "hit": false,
      "t": 26915.856000000043,
      "d": 280.3735000000015,
      "v": 95
    },
    {
      "midi": 63,
      "hit": false,
      "t": 27196.229500000045,
      "d": 280.3735000000015,
      "v": 95
    },
    {
      "midi": 67,
      "hit": false,
      "t": 27476.603000000046,
      "d": 280.3735000000015,
      "v": 95
    },
    {
      "midi": 60,
      "hit": false,
      "t": 27756.976500000048,
      "d": 280.3735000000015,
      "v": 95
    },
    {
      "midi": 63,
      "hit": false,
      "t": 28037.35000000005,
      "d": 280.3735000000015,
      "v": 95
    },
    {
      "midi": 67,
      "hit": false,
      "t": 28317.72350000005,
      "d": 280.3735000000015,
      "v": 95
    },
    {
      "midi": 60,
      "hit": false,
      "t": 28598.097000000053,
      "d": 280.3735000000015,
      "v": 95
    },
    {
      "midi": 67,
      "hit": false,
      "t": 28878.470500000054,
      "d": 280.3735000000015,
      "v": 95
    },
    {
      "midi": 62,
      "hit": false,
      "t": 29158.844000000056,
      "d": 280.3735000000015,
      "v": 95
    },
    {
      "midi": 63,
      "hit": false,
      "t": 29439.217500000057,
      "d": 280.3735000000015,
      "v": 95
    },
    {
      "midi": 67,
      "hit": false,
      "t": 29719.59100000006,
      "d": 280.3735000000015,
      "v": 95
    },
    {
      "midi": 62,
      "hit": false,
      "t": 29999.96450000006,
      "d": 280.3735000000015,
      "v": 95
    },
    {
      "midi": 63,
      "hit": false,
      "t": 30280.33800000006,
      "d": 280.3735000000015,
      "v": 95
    },
    {
      "midi": 67,
      "hit": false,
      "t": 30560.711500000063,
      "d": 280.3735000000015,
      "v": 95
    },
    {
      "midi": 62,
      "hit": false,
      "t": 30841.085000000065,
      "d": 280.3735000000015,
      "v": 95
    },
    {
      "midi": 67,
      "hit": false,
      "t": 31121.458500000066,
      "d": 280.3735000000015,
      "v": 95
    },
    {
      "midi": 60,
      "hit": false,
      "t": 31401.832000000068,
      "d": 280.3735000000015,
      "v": 95
    },
    {
      "midi": 63,
      "hit": false,
      "t": 31682.20550000007,
      "d": 280.3735000000015,
      "v": 95
    },
    {
      "midi": 67,
      "hit": false,
      "t": 31962.57900000007,
      "d": 280.3735000000015,
      "v": 95
    },
    {
      "midi": 60,
      "hit": false,
      "t": 32242.952500000072,
      "d": 280.3735000000015,
      "v": 95
    },
    {
      "midi": 63,
      "hit": false,
      "t": 32523.326000000074,
      "d": 280.3735000000015,
      "v": 95
    },
    {
      "midi": 67,
      "hit": false,
      "t": 32803.699500000075,
      "d": 280.3735000000015,
      "v": 95
    },
    {
      "midi": 60,
      "hit": false,
      "t": 33084.07300000008,
      "d": 280.3735000000015,
      "v": 95
    },
    {
      "midi": 67,
      "hit": false,
      "t": 33364.44650000008,
      "d": 280.3735000000015,
      "v": 95
    },
    {
      "midi": 62,
      "hit": false,
      "t": 33644.82000000008,
      "d": 280.3735000000015,
      "v": 95
    },
    {
      "midi": 66,
      "hit": false,
      "t": 33925.19350000008,
      "d": 280.3735000000015,
      "v": 95
    },
    {
      "midi": 67,
      "hit": false,
      "t": 34205.56700000008,
      "d": 280.3735000000015,
      "v": 95
    },
    {
      "midi": 62,
      "hit": false,
      "t": 34485.940500000084,
      "d": 280.3735000000015,
      "v": 95
    },
    {
      "midi": 66,
      "hit": false,
      "t": 34766.314000000086,
      "d": 280.3735000000015,
      "v": 95
    },
    {
      "midi": 67,
      "hit": false,
      "t": 35046.68750000009,
      "d": 280.3735000000015,
      "v": 95
    },
    {
      "midi": 62,
      "hit": false,
      "t": 35327.06100000009,
      "d": 280.3735000000015,
      "v": 95
    },
    {
      "midi": 67,
      "hit": false,
      "t": 35607.43450000009,
      "d": 280.3735000000015,
      "v": 95
    },
    {
      "midi": 55,
      "hit": false,
      "t": 53831.71200000009,
      "d": 280.3735000000015,
      "v": 95
    },
    {
      "midi": 60,
      "hit": false,
      "t": 54112.08550000009,
      "d": 280.3735000000015,
      "v": 95
    },
    {
      "midi": 63,
      "hit": false,
      "t": 54392.45900000009,
      "d": 280.3735000000015,
      "v": 95
    },
    {
      "midi": 67,
      "hit": false,
      "t": 54672.83250000009,
      "d": 280.3735000000015,
      "v": 95
    },
    {
      "midi": 55,
      "hit": false,
      "t": 54953.20600000009,
      "d": 280.3735000000015,
      "v": 95
    },
    {
      "midi": 60,
      "hit": false,
      "t": 55233.579500000094,
      "d": 280.3735000000015,
      "v": 95
    },
    {
      "midi": 63,
      "hit": false,
      "t": 55513.953000000096,
      "d": 280.3735000000015,
      "v": 95
    },
    {
      "midi": 67,
      "hit": false,
      "t": 55794.3265000001,
      "d": 280.3735000000015,
      "v": 95
    },
    {
      "midi": 57,
      "hit": false,
      "t": 56074.7000000001,
      "d": 280.3735000000015,
      "v": 95
    },
    {
      "midi": 62,
      "hit": false,
      "t": 56355.0735000001,
      "d": 280.3735000000015,
      "v": 95
    },
    {
      "midi": 63,
      "hit": false,
      "t": 56635.4470000001,
      "d": 280.3735000000015,
      "v": 95
    },
    {
      "midi": 67,
      "hit": false,
      "t": 56915.8205000001,
      "d": 280.3735000000015,
      "v": 95
    },
    {
      "midi": 57,
      "hit": false,
      "t": 57196.194000000105,
      "d": 280.3735000000015,
      "v": 95
    },
    {
      "midi": 62,
      "hit": false,
      "t": 57476.56750000011,
      "d": 280.3735000000015,
      "v": 95
    },
    {
      "midi": 63,
      "hit": false,
      "t": 57756.94100000011,
      "d": 280.3735000000015,
      "v": 95
    },
    {
      "midi": 67,
      "hit": false,
      "t": 58037.31450000011,
      "d": 280.3735000000015,
      "v": 95
    },
    {
      "midi": 55,
      "hit": false,
      "t": 58317.68800000011,
      "d": 280.3735000000015,
      "v": 95
    },
    {
      "midi": 60,
      "hit": false,
      "t": 58598.06150000011,
      "d": 280.3735000000015,
      "v": 95
    },
    {
      "midi": 63,
      "hit": false,
      "t": 58878.435000000114,
      "d": 280.3735000000015,
      "v": 95
    },
    {
      "midi": 67,
      "hit": false,
      "t": 59158.808500000116,
      "d": 280.3735000000015,
      "v": 95
    },
    {
      "midi": 55,
      "hit": false,
      "t": 59439.18200000012,
      "d": 280.3735000000015,
      "v": 95
    },
    {
      "midi": 60,
      "hit": false,
      "t": 59719.55550000012,
      "d": 280.3735000000015,
      "v": 95
    },
    {
      "midi": 63,
      "hit": false,
      "t": 59999.92900000012,
      "d": 280.3735000000015,
      "v": 95
    },
    {
      "midi": 67,
      "hit": false,
      "t": 60280.30250000012,
      "d": 280.3735000000015,
      "v": 95
    },
    {
      "midi": 57,
      "hit": false,
      "t": 60560.67600000012,
      "d": 280.3735000000015,
      "v": 95
    },
    {
      "midi": 62,
      "hit": false,
      "t": 60841.049500000125,
      "d": 280.3735000000015,
      "v": 95
    },
    {
      "midi": 66,
      "hit": false,
      "t": 61121.423000000126,
      "d": 280.3735000000015,
      "v": 95
    },
    {
      "midi": 67,
      "hit": false,
      "t": 61401.79650000013,
      "d": 280.3735000000015,
      "v": 95
    },
    {
      "midi": 57,
      "hit": false,
      "t": 61682.17000000013,
      "d": 280.3735000000015,
      "v": 95
    },
    {
      "midi": 62,
      "hit": false,
      "t": 61962.54350000013,
      "d": 280.3735000000015,
      "v": 95
    },
    {
      "midi": 66,
      "hit": false,
      "t": 62242.91700000013,
      "d": 280.3735000000015,
      "v": 95
    },
    {
      "midi": 67,
      "hit": false,
      "t": 62523.290500000134,
      "d": 280.3735000000015,
      "v": 95
    },
    {
      "midi": 55,
      "hit": false,
      "t": 62803.664000000135,
      "d": 280.3735000000015,
      "v": 95
    },
    {
      "midi": 60,
      "hit": false,
      "t": 63084.03750000014,
      "d": 280.3735000000015,
      "v": 95
    },
    {
      "midi": 63,
      "hit": false,
      "t": 63364.41100000014,
      "d": 280.3735000000015,
      "v": 95
    },
    {
      "midi": 67,
      "hit": false,
      "t": 63644.78450000014,
      "d": 280.3735000000015,
      "v": 95
    },
    {
      "midi": 55,
      "hit": false,
      "t": 63925.15800000014,
      "d": 280.3735000000015,
      "v": 95
    },
    {
      "midi": 60,
      "hit": false,
      "t": 64205.53150000014,
      "d": 280.3735000000015,
      "v": 95
    },
    {
      "midi": 63,
      "hit": false,
      "t": 64485.905000000144,
      "d": 280.3735000000015,
      "v": 95
    },
    {
      "midi": 67,
      "hit": false,
      "t": 64766.278500000146,
      "d": 280.3735000000015,
      "v": 95
    },
    {
      "midi": 57,
      "hit": false,
      "t": 65046.65200000015,
      "d": 280.3735000000015,
      "v": 95
    },
    {
      "midi": 62,
      "hit": false,
      "t": 65327.02550000015,
      "d": 280.3735000000015,
      "v": 95
    },
    {
      "midi": 63,
      "hit": false,
      "t": 65607.39900000015,
      "d": 280.3735000000015,
      "v": 95
    },
    {
      "midi": 67,
      "hit": false,
      "t": 65887.77250000015,
      "d": 280.3735000000015,
      "v": 95
    },
    {
      "midi": 57,
      "hit": false,
      "t": 66168.14600000015,
      "d": 280.3735000000015,
      "v": 95
    },
    {
      "midi": 62,
      "hit": false,
      "t": 66448.51950000015,
      "d": 280.3735000000015,
      "v": 95
    },
    {
      "midi": 63,
      "hit": false,
      "t": 66728.89300000016,
      "d": 280.3735000000015,
      "v": 95
    },
    {
      "midi": 67,
      "hit": false,
      "t": 67009.26650000016,
      "d": 280.3735000000015,
      "v": 95
    },
    {
      "midi": 55,
      "hit": false,
      "t": 67289.64000000016,
      "d": 280.3735000000015,
      "v": 95
    },
    {
      "midi": 60,
      "hit": false,
      "t": 67570.01350000016,
      "d": 280.3735000000015,
      "v": 95
    },
    {
      "midi": 63,
      "hit": false,
      "t": 67850.38700000016,
      "d": 280.3735000000015,
      "v": 95
    },
    {
      "midi": 67,
      "hit": false,
      "t": 68130.76050000016,
      "d": 280.3735000000015,
      "v": 95
    },
    {
      "midi": 55,
      "hit": false,
      "t": 68411.13400000017,
      "d": 280.3735000000015,
      "v": 95
    },
    {
      "midi": 60,
      "hit": false,
      "t": 68691.50750000017,
      "d": 280.3735000000015,
      "v": 95
    },
    {
      "midi": 63,
      "hit": false,
      "t": 68971.88100000017,
      "d": 280.3735000000015,
      "v": 95
    },
    {
      "midi": 67,
      "hit": false,
      "t": 69252.25450000017,
      "d": 280.3735000000015,
      "v": 95
    },
    {
      "midi": 57,
      "hit": false,
      "t": 69532.62800000017,
      "d": 280.3735000000015,
      "v": 95
    },
    {
      "midi": 62,
      "hit": false,
      "t": 69813.00150000017,
      "d": 280.3735000000015,
      "v": 95
    },
    {
      "midi": 66,
      "hit": false,
      "t": 70093.37500000017,
      "d": 280.3735000000015,
      "v": 95
    },
    {
      "midi": 67,
      "hit": false,
      "t": 70373.74850000018,
      "d": 280.3735000000015,
      "v": 95
    },
    {
      "midi": 57,
      "hit": false,
      "t": 70654.12200000018,
      "d": 280.3735000000015,
      "v": 95
    },
    {
      "midi": 62,
      "hit": false,
      "t": 70934.49550000018,
      "d": 280.3735000000015,
      "v": 95
    },
    {
      "midi": 66,
      "hit": false,
      "t": 71214.86900000018,
      "d": 280.3735000000015,
      "v": 95
    },
    {
      "midi": 67,
      "hit": false,
      "t": 71495.24250000018,
      "d": 280.3735000000015,
      "v": 95
    },
    {
      "midi": 55,
      "hit": false,
      "t": 71775.61600000018,
      "d": 280.3735000000015,
      "v": 95
    },
    {
      "midi": 60,
      "hit": false,
      "t": 72055.98950000019,
      "d": 280.3735000000015,
      "v": 95
    },
    {
      "midi": 63,
      "hit": false,
      "t": 72336.36300000019,
      "d": 280.3735000000015,
      "v": 95
    },
    {
      "midi": 67,
      "hit": false,
      "t": 72616.73650000019,
      "d": 280.3735000000015,
      "v": 95
    },
    {
      "midi": 55,
      "hit": false,
      "t": 72897.11000000019,
      "d": 280.3735000000015,
      "v": 95
    },
    {
      "midi": 60,
      "hit": false,
      "t": 73177.48350000019,
      "d": 280.3735000000015,
      "v": 95
    },
    {
      "midi": 63,
      "hit": false,
      "t": 73457.8570000002,
      "d": 280.3735000000015,
      "v": 95
    },
    {
      "midi": 67,
      "hit": false,
      "t": 73738.2305000002,
      "d": 280.3735000000015,
      "v": 95
    },
    {
      "midi": 57,
      "hit": false,
      "t": 74018.6040000002,
      "d": 280.3735000000015,
      "v": 95
    },
    {
      "midi": 62,
      "hit": false,
      "t": 74298.9775000002,
      "d": 280.3735000000015,
      "v": 95
    },
    {
      "midi": 63,
      "hit": false,
      "t": 74579.3510000002,
      "d": 280.3735000000015,
      "v": 95
    },
    {
      "midi": 67,
      "hit": false,
      "t": 74859.7245000002,
      "d": 280.3735000000015,
      "v": 95
    },
    {
      "midi": 57,
      "hit": false,
      "t": 75140.0980000002,
      "d": 280.3735000000015,
      "v": 95
    },
    {
      "midi": 62,
      "hit": false,
      "t": 75420.4715000002,
      "d": 280.3735000000015,
      "v": 95
    },
    {
      "midi": 63,
      "hit": false,
      "t": 75700.8450000002,
      "d": 280.3735000000015,
      "v": 95
    },
    {
      "midi": 67,
      "hit": false,
      "t": 75981.2185000002,
      "d": 280.3735000000015,
      "v": 95
    },
    {
      "midi": 55,
      "hit": false,
      "t": 76261.59200000021,
      "d": 280.3735000000015,
      "v": 95
    },
    {
      "midi": 60,
      "hit": false,
      "t": 76541.96550000021,
      "d": 280.3735000000015,
      "v": 95
    },
    {
      "midi": 63,
      "hit": false,
      "t": 76822.33900000021,
      "d": 280.3735000000015,
      "v": 95
    },
    {
      "midi": 67,
      "hit": false,
      "t": 77102.71250000021,
      "d": 280.3735000000015,
      "v": 95
    },
    {
      "midi": 55,
      "hit": false,
      "t": 77383.08600000021,
      "d": 280.3735000000015,
      "v": 95
    },
    {
      "midi": 60,
      "hit": false,
      "t": 77663.45950000022,
      "d": 280.3735000000015,
      "v": 95
    },
    {
      "midi": 63,
      "hit": false,
      "t": 77943.83300000022,
      "d": 280.3735000000015,
      "v": 95
    },
    {
      "midi": 67,
      "hit": false,
      "t": 78224.20650000022,
      "d": 280.3735000000015,
      "v": 95
    },
    {
      "midi": 57,
      "hit": false,
      "t": 78504.58000000022,
      "d": 280.3735000000015,
      "v": 95
    },
    {
      "midi": 62,
      "hit": false,
      "t": 78784.95350000022,
      "d": 280.3735000000015,
      "v": 95
    },
    {
      "midi": 66,
      "hit": false,
      "t": 79065.32700000022,
      "d": 280.3735000000015,
      "v": 95
    },
    {
      "midi": 67,
      "hit": false,
      "t": 79345.70050000022,
      "d": 280.3735000000015,
      "v": 95
    },
    {
      "midi": 57,
      "hit": false,
      "t": 79626.07400000023,
      "d": 280.3735000000015,
      "v": 95
    },
    {
      "midi": 62,
      "hit": false,
      "t": 79906.44750000023,
      "d": 280.3735000000015,
      "v": 95
    },
    {
      "midi": 66,
      "hit": false,
      "t": 80186.82100000023,
      "d": 280.3735000000015,
      "v": 95
    },
    {
      "midi": 67,
      "hit": false,
      "t": 80467.19450000023,
      "d": 280.3735000000015,
      "v": 95
    },
    {
      "midi": 55,
      "hit": false,
      "t": 80747.56800000023,
      "d": 280.3735000000015,
      "v": 95
    },
    {
      "midi": 60,
      "hit": false,
      "t": 81027.94150000023,
      "d": 280.3735000000015,
      "v": 95
    },
    {
      "midi": 63,
      "hit": false,
      "t": 81308.31500000024,
      "d": 280.3735000000015,
      "v": 95
    },
    {
      "midi": 67,
      "hit": false,
      "t": 81588.68850000024,
      "d": 280.3735000000015,
      "v": 95
    },
    {
      "midi": 55,
      "hit": false,
      "t": 81869.06200000024,
      "d": 280.3735000000015,
      "v": 95
    },
    {
      "midi": 60,
      "hit": false,
      "t": 82149.43550000024,
      "d": 280.3735000000015,
      "v": 95
    },
    {
      "midi": 63,
      "hit": false,
      "t": 82429.80900000024,
      "d": 280.3735000000015,
      "v": 95
    },
    {
      "midi": 67,
      "hit": false,
      "t": 82710.18250000024,
      "d": 280.3735000000015,
      "v": 95
    },
    {
      "midi": 57,
      "hit": false,
      "t": 82990.55600000024,
      "d": 280.3735000000015,
      "v": 95
    },
    {
      "midi": 62,
      "hit": false,
      "t": 83270.92950000025,
      "d": 280.3735000000015,
      "v": 95
    },
    {
      "midi": 63,
      "hit": false,
      "t": 83551.30300000025,
      "d": 280.3735000000015,
      "v": 95
    },
    {
      "midi": 67,
      "hit": false,
      "t": 83831.67650000025,
      "d": 280.3735000000015,
      "v": 95
    },
    {
      "midi": 57,
      "hit": false,
      "t": 84112.05000000025,
      "d": 280.3735000000015,
      "v": 95
    },
    {
      "midi": 62,
      "hit": false,
      "t": 84392.42350000025,
      "d": 280.3735000000015,
      "v": 95
    },
    {
      "midi": 63,
      "hit": false,
      "t": 84672.79700000025,
      "d": 280.3735000000015,
      "v": 95
    },
    {
      "midi": 67,
      "hit": false,
      "t": 84953.17050000025,
      "d": 280.3735000000015,
      "v": 95
    },
    {
      "midi": 55,
      "hit": false,
      "t": 85233.54400000026,
      "d": 280.3735000000015,
      "v": 95
    },
    {
      "midi": 60,
      "hit": false,
      "t": 85513.91750000026,
      "d": 280.3735000000015,
      "v": 95
    },
    {
      "midi": 63,
      "hit": false,
      "t": 85794.29100000026,
      "d": 280.3735000000015,
      "v": 95
    },
    {
      "midi": 67,
      "hit": false,
      "t": 86074.66450000026,
      "d": 280.3735000000015,
      "v": 95
    },
    {
      "midi": 55,
      "hit": false,
      "t": 86355.03800000026,
      "d": 280.3735000000015,
      "v": 95
    },
    {
      "midi": 60,
      "hit": false,
      "t": 86635.41150000026,
      "d": 280.3735000000015,
      "v": 95
    },
    {
      "midi": 63,
      "hit": false,
      "t": 86915.78500000027,
      "d": 280.3735000000015,
      "v": 95
    },
    {
      "midi": 67,
      "hit": false,
      "t": 87196.15850000027,
      "d": 280.3735000000015,
      "v": 95
    },
    {
      "midi": 57,
      "hit": false,
      "t": 87476.53200000027,
      "d": 280.3735000000015,
      "v": 95
    },
    {
      "midi": 62,
      "hit": false,
      "t": 87756.90550000027,
      "d": 280.3735000000015,
      "v": 95
    },
    {
      "midi": 66,
      "hit": false,
      "t": 88037.27900000027,
      "d": 280.3735000000015,
      "v": 95
    },
    {
      "midi": 67,
      "hit": false,
      "t": 88317.65250000027,
      "d": 280.3735000000015,
      "v": 95
    },
    {
      "midi": 57,
      "hit": false,
      "t": 88598.02600000027,
      "d": 280.3735000000015,
      "v": 95
    },
    {
      "midi": 62,
      "hit": false,
      "t": 88878.39950000028,
      "d": 280.3735000000015,
      "v": 95
    },
    {
      "midi": 66,
      "hit": false,
      "t": 89158.77300000028,
      "d": 280.3735000000015,
      "v": 95
    },
    {
      "midi": 67,
      "hit": false,
      "t": 89439.14650000028,
      "d": 280.3735000000015,
      "v": 95
    },
    {
      "midi": 45,
      "hit": false,
      "t": 89719.52000000028,
      "d": 186.91566666666768,
      "v": 95
    },
    {
      "midi": 50,
      "hit": false,
      "t": 89906.43566666695,
      "d": 186.91566666666768,
      "v": 95
    },
    {
      "midi": 57,
      "hit": false,
      "t": 90093.35133333362,
      "d": 186.91566666666768,
      "v": 95
    },
    {
      "midi": 65,
      "hit": false,
      "t": 90280.26700000028,
      "d": 560.747000000003,
      "v": 95
    },
    {
      "midi": 69,
      "hit": false,
      "t": 90280.26700000028,
      "d": 560.747000000003,
      "v": 95
    },
    {
      "midi": 45,
      "hit": false,
      "t": 90841.01400000029,
      "d": 186.91566666666768,
      "v": 95
    },
    {
      "midi": 50,
      "hit": false,
      "t": 91027.92966666695,
      "d": 186.91566666666768,
      "v": 95
    },
    {
      "midi": 57,
      "hit": false,
      "t": 91214.84533333362,
      "d": 186.91566666666768,
      "v": 95
    },
    {
      "midi": 65,
      "hit": false,
      "t": 91401.76100000029,
      "d": 560.747000000003,
      "v": 95
    },
    {
      "midi": 69,
      "hit": false,
      "t": 91401.76100000029,
      "d": 560.747000000003,
      "v": 95
    },
    {
      "midi": 45,
      "hit": false,
      "t": 91962.50800000029,
      "d": 186.91566666666768,
      "v": 95
    },
    {
      "midi": 52,
      "hit": false,
      "t": 92149.42366666696,
      "d": 186.91566666666768,
      "v": 95
    },
    {
      "midi": 57,
      "hit": false,
      "t": 92336.33933333363,
      "d": 186.91566666666768,
      "v": 95
    },
    {
      "midi": 72,
      "hit": false,
      "t": 92523.2550000003,
      "d": 560.747000000003,
      "v": 95
    },
    {
      "midi": 76,
      "hit": false,
      "t": 92523.2550000003,
      "d": 560.747000000003,
      "v": 95
    },
    {
      "midi": 45,
      "hit": false,
      "t": 93084.0020000003,
      "d": 186.91566666666768,
      "v": 95
    },
    {
      "midi": 52,
      "hit": false,
      "t": 93270.91766666697,
      "d": 186.91566666666768,
      "v": 95
    },
    {
      "midi": 57,
      "hit": false,
      "t": 93457.83333333363,
      "d": 186.91566666666768,
      "v": 95
    },
    {
      "midi": 72,
      "hit": false,
      "t": 93644.7490000003,
      "d": 560.747000000003,
      "v": 95
    },
    {
      "midi": 76,
      "hit": false,
      "t": 93644.7490000003,
      "d": 560.747000000003,
      "v": 95
    },
    {
      "midi": 48,
      "hit": false,
      "t": 94205.4960000003,
      "d": 186.91566666666768,
      "v": 95
    },
    {
      "midi": 55,
      "hit": false,
      "t": 94392.41166666697,
      "d": 186.91566666666768,
      "v": 95
    },
    {
      "midi": 60,
      "hit": false,
      "t": 94579.32733333364,
      "d": 186.91566666666768,
      "v": 95
    },
    {
      "midi": 72,
      "hit": false,
      "t": 94766.24300000031,
      "d": 560.747000000003,
      "v": 95
    },
    {
      "midi": 79,
      "hit": false,
      "t": 94766.24300000031,
      "d": 560.747000000003,
      "v": 95
    },
    {
      "midi": 48,
      "hit": false,
      "t": 95326.99000000031,
      "d": 186.91566666666768,
      "v": 95
    },
    {
      "midi": 55,
      "hit": false,
      "t": 95513.90566666698,
      "d": 186.91566666666768,
      "v": 95
    },
    {
      "midi": 60,
      "hit": false,
      "t": 95700.82133333365,
      "d": 186.91566666666768,
      "v": 95
    },
    {
      "midi": 72,
      "hit": false,
      "t": 95887.73700000031,
      "d": 560.747000000003,
      "v": 95
    },
    {
      "midi": 79,
      "hit": false,
      "t": 95887.73700000031,
      "d": 560.747000000003,
      "v": 95
    },
    {
      "midi": 45,
      "hit": false,
      "t": 96448.48400000032,
      "d": 186.91566666666768,
      "v": 95
    },
    {
      "midi": 50,
      "hit": false,
      "t": 96635.39966666698,
      "d": 186.91566666666768,
      "v": 95
    },
    {
      "midi": 57,
      "hit": false,
      "t": 96822.31533333365,
      "d": 186.91566666666768,
      "v": 95
    },
    {
      "midi": 65,
      "hit": false,
      "t": 97009.23100000032,
      "d": 560.747000000003,
      "v": 95
    },
    {
      "midi": 69,
      "hit": false,
      "t": 97009.23100000032,
      "d": 560.747000000003,
      "v": 95
    },
    {
      "midi": 45,
      "hit": false,
      "t": 97569.97800000032,
      "d": 186.91566666666768,
      "v": 95
    },
    {
      "midi": 50,
      "hit": false,
      "t": 97756.89366666699,
      "d": 186.91566666666768,
      "v": 95
    },
    {
      "midi": 57,
      "hit": false,
      "t": 97943.80933333366,
      "d": 186.91566666666768,
      "v": 95
    },
    {
      "midi": 65,
      "hit": false,
      "t": 98130.72500000033,
      "d": 560.747000000003,
      "v": 95
    },
    {
      "midi": 69,
      "hit": false,
      "t": 98130.72500000033,
      "d": 560.747000000003,
      "v": 95
    },
    {
      "midi": 45,
      "hit": false,
      "t": 98691.47200000033,
      "d": 186.91566666666768,
      "v": 95
    },
    {
      "midi": 52,
      "hit": false,
      "t": 98878.387666667,
      "d": 186.91566666666768,
      "v": 95
    },
    {
      "midi": 57,
      "hit": false,
      "t": 99065.30333333366,
      "d": 186.91566666666768,
      "v": 95
    },
    {
      "midi": 72,
      "hit": false,
      "t": 99252.21900000033,
      "d": 560.747000000003,
      "v": 95
    },
    {
      "midi": 76,
      "hit": false,
      "t": 99252.21900000033,
      "d": 560.747000000003,
      "v": 95
    },
    {
      "midi": 45,
      "hit": false,
      "t": 99812.96600000034,
      "d": 186.91566666666768,
      "v": 95
    },
    {
      "midi": 52,
      "hit": false,
      "t": 99999.881666667,
      "d": 186.91566666666768,
      "v": 95
    },
    {
      "midi": 57,
      "hit": false,
      "t": 100186.79733333367,
      "d": 186.91566666666768,
      "v": 95
    },
    {
      "midi": 72,
      "hit": false,
      "t": 100373.71300000034,
      "d": 560.747000000003,
      "v": 95
    },
    {
      "midi": 76,
      "hit": false,
      "t": 100373.71300000034,
      "d": 560.747000000003,
      "v": 95
    },
    {
      "midi": 41,
      "hit": false,
      "t": 100934.46000000034,
      "d": 186.91566666666768,
      "v": 95
    },
    {
      "midi": 48,
      "hit": false,
      "t": 101121.37566666701,
      "d": 186.91566666666768,
      "v": 95
    },
    {
      "midi": 53,
      "hit": false,
      "t": 101308.29133333368,
      "d": 186.91566666666768,
      "v": 95
    },
    {
      "midi": 69,
      "hit": false,
      "t": 101495.20700000034,
      "d": 560.747000000003,
      "v": 95
    },
    {
      "midi": 77,
      "hit": false,
      "t": 101495.20700000034,
      "d": 560.747000000003,
      "v": 95
    },
    {
      "midi": 41,
      "hit": false,
      "t": 102055.95400000035,
      "d": 186.91566666666768,
      "v": 95
    },
    {
      "midi": 48,
      "hit": false,
      "t": 102242.86966666701,
      "d": 186.91566666666768,
      "v": 95
    },
    {
      "midi": 53,
      "hit": false,
      "t": 102429.78533333368,
      "d": 186.91566666666768,
      "v": 95
    },
    {
      "midi": 69,
      "hit": false,
      "t": 102616.70100000035,
      "d": 560.747000000003,
      "v": 95
    },
    {
      "midi": 77,
      "hit": false,
      "t": 102616.70100000035,
      "d": 560.747000000003,
      "v": 95
    },
    {
      "midi": 45,
      "hit": false,
      "t": 103177.44800000035,
      "d": 186.91566666666768,
      "v": 95
    },
    {
      "midi": 50,
      "hit": false,
      "t": 103364.36366666702,
      "d": 186.91566666666768,
      "v": 95
    },
    {
      "midi": 57,
      "hit": false,
      "t": 103551.27933333369,
      "d": 186.91566666666768,
      "v": 95
    },
    {
      "midi": 65,
      "hit": false,
      "t": 103738.19500000036,
      "d": 560.747000000003,
      "v": 95
    },
    {
      "midi": 69,
      "hit": false,
      "t": 103738.19500000036,
      "d": 560.747000000003,
      "v": 95
    },
    {
      "midi": 45,
      "hit": false,
      "t": 104298.94200000036,
      "d": 186.91566666666768,
      "v": 95
    },
    {
      "midi": 50,
      "hit": false,
      "t": 104485.85766666703,
      "d": 186.91566666666768,
      "v": 95
    },
    {
      "midi": 57,
      "hit": false,
      "t": 104672.7733333337,
      "d": 186.91566666666768,
      "v": 95
    },
    {
      "midi": 65,
      "hit": false,
      "t": 104859.68900000036,
      "d": 560.747000000003,
      "v": 95
    },
    {
      "midi": 69,
      "hit": false,
      "t": 104859.68900000036,
      "d": 560.747000000003,
      "v": 95
    },
    {
      "midi": 45,
      "hit": false,
      "t": 105420.43600000037,
      "d": 186.91566666666768,
      "v": 95
    },
    {
      "midi": 52,
      "hit": false,
      "t": 105607.35166666703,
      "d": 186.91566666666768,
      "v": 95
    },
    {
      "midi": 57,
      "hit": false,
      "t": 105794.2673333337,
      "d": 186.91566666666768,
      "v": 95
    },
    {
      "midi": 72,
      "hit": false,
      "t": 105981.18300000037,
      "d": 560.747000000003,
      "v": 95
    },
    {
      "midi": 76,
      "hit": false,
      "t": 105981.18300000037,
      "d": 560.747000000003,
      "v": 95
    },
    {
      "midi": 45,
      "hit": false,
      "t": 106541.93000000037,
      "d": 186.91566666666768,
      "v": 95
    },
    {
      "midi": 52,
      "hit": false,
      "t": 106728.84566666704,
      "d": 186.91566666666768,
      "v": 95
    },
    {
      "midi": 57,
      "hit": false,
      "t": 106915.7613333337,
      "d": 186.91566666666768,
      "v": 95
    },
    {
      "midi": 72,
      "hit": false,
      "t": 107102.67700000037,
      "d": 560.747000000003,
      "v": 95
    },
    {
      "midi": 76,
      "hit": false,
      "t": 107102.67700000037,
      "d": 560.747000000003,
      "v": 95
    },
    {
      "midi": 48,
      "hit": false,
      "t": 107663.42400000038,
      "d": 186.91566666666768,
      "v": 95
    },
    {
      "midi": 55,
      "hit": false,
      "t": 107850.33966666705,
      "d": 186.91566666666768,
      "v": 95
    },
    {
      "midi": 60,
      "hit": false,
      "t": 108037.25533333371,
      "d": 186.91566666666768,
      "v": 95
    },
    {
      "midi": 72,
      "hit": false,
      "t": 108224.17100000038,
      "d": 560.747000000003,
      "v": 95
    },
    {
      "midi": 79,
      "hit": false,
      "t": 108224.17100000038,
      "d": 560.747000000003,
      "v": 95
    },
    {
      "midi": 48,
      "hit": false,
      "t": 108784.91800000038,
      "d": 186.91566666666768,
      "v": 95
    },
    {
      "midi": 55,
      "hit": false,
      "t": 108971.83366666705,
      "d": 186.91566666666768,
      "v": 95
    },
    {
      "midi": 60,
      "hit": false,
      "t": 109158.74933333372,
      "d": 186.91566666666768,
      "v": 95
    },
    {
      "midi": 72,
      "hit": false,
      "t": 109345.66500000039,
      "d": 560.747000000003,
      "v": 95
    },
    {
      "midi": 79,
      "hit": false,
      "t": 109345.66500000039,
      "d": 560.747000000003,
      "v": 95
    },
    {
      "midi": 45,
      "hit": false,
      "t": 109906.41200000039,
      "d": 186.91566666666768,
      "v": 95
    },
    {
      "midi": 50,
      "hit": false,
      "t": 110093.32766666706,
      "d": 186.91566666666768,
      "v": 95
    },
    {
      "midi": 57,
      "hit": false,
      "t": 110280.24333333372,
      "d": 186.91566666666768,
      "v": 95
    },
    {
      "midi": 65,
      "hit": false,
      "t": 110467.15900000039,
      "d": 560.747000000003,
      "v": 95
    },
    {
      "midi": 69,
      "hit": false,
      "t": 110467.15900000039,
      "d": 560.747000000003,
      "v": 95
    },
    {
      "midi": 45,
      "hit": false,
      "t": 111027.9060000004,
      "d": 186.91566666666768,
      "v": 95
    },
    {
      "midi": 50,
      "hit": false,
      "t": 111214.82166666706,
      "d": 186.91566666666768,
      "v": 95
    },
    {
      "midi": 57,
      "hit": false,
      "t": 111401.73733333373,
      "d": 186.91566666666768,
      "v": 95
    },
    {
      "midi": 65,
      "hit": false,
      "t": 111588.6530000004,
      "d": 560.747000000003,
      "v": 95
    },
    {
      "midi": 69,
      "hit": false,
      "t": 111588.6530000004,
      "d": 560.747000000003,
      "v": 95
    },
    {
      "midi": 45,
      "hit": false,
      "t": 112149.4000000004,
      "d": 186.91566666666768,
      "v": 95
    },
    {
      "midi": 52,
      "hit": false,
      "t": 112336.31566666707,
      "d": 186.91566666666768,
      "v": 95
    },
    {
      "midi": 57,
      "hit": false,
      "t": 112523.23133333374,
      "d": 186.91566666666768,
      "v": 95
    },
    {
      "midi": 72,
      "hit": false,
      "t": 112710.1470000004,
      "d": 560.747000000003,
      "v": 95
    },
    {
      "midi": 76,
      "hit": false,
      "t": 112710.1470000004,
      "d": 560.747000000003,
      "v": 95
    },
    {
      "midi": 45,
      "hit": false,
      "t": 113270.89400000041,
      "d": 186.91566666666768,
      "v": 95
    },
    {
      "midi": 52,
      "hit": false,
      "t": 113457.80966666708,
      "d": 186.91566666666768,
      "v": 95
    },
    {
      "midi": 57,
      "hit": false,
      "t": 113644.72533333374,
      "d": 186.91566666666768,
      "v": 95
    },
    {
      "midi": 72,
      "hit": false,
      "t": 113831.64100000041,
      "d": 560.747000000003,
      "v": 95
    },
    {
      "midi": 76,
      "hit": false,
      "t": 113831.64100000041,
      "d": 560.747000000003,
      "v": 95
    },
    {
      "midi": 41,
      "hit": false,
      "t": 114392.38800000041,
      "d": 186.91566666666768,
      "v": 95
    },
    {
      "midi": 48,
      "hit": false,
      "t": 114579.30366666708,
      "d": 186.91566666666768,
      "v": 95
    },
    {
      "midi": 53,
      "hit": false,
      "t": 114766.21933333375,
      "d": 186.91566666666768,
      "v": 95
    },
    {
      "midi": 69,
      "hit": false,
      "t": 114953.13500000042,
      "d": 560.747000000003,
      "v": 95
    },
    {
      "midi": 77,
      "hit": false,
      "t": 114953.13500000042,
      "d": 560.747000000003,
      "v": 95
    },
    {
      "midi": 41,
      "hit": false,
      "t": 115513.88200000042,
      "d": 186.91566666666768,
      "v": 95
    },
    {
      "midi": 48,
      "hit": false,
      "t": 115700.79766666709,
      "d": 186.91566666666768,
      "v": 95
    },
    {
      "midi": 53,
      "hit": false,
      "t": 115887.71333333376,
      "d": 186.91566666666768,
      "v": 95
    },
    {
      "midi": 69,
      "hit": false,
      "t": 116074.62900000042,
      "d": 560.747000000003,
      "v": 95
    },
    {
      "midi": 77,
      "hit": false,
      "t": 116074.62900000042,
      "d": 560.747000000003,
      "v": 95
    },
    {
      "midi": 45,
      "hit": false,
      "t": 116635.37600000043,
      "d": 186.91566666666768,
      "v": 95
    },
    {
      "midi": 50,
      "hit": false,
      "t": 116822.2916666671,
      "d": 186.91566666666768,
      "v": 95
    },
    {
      "midi": 57,
      "hit": false,
      "t": 117009.20733333376,
      "d": 186.91566666666768,
      "v": 95
    },
    {
      "midi": 65,
      "hit": false,
      "t": 117196.12300000043,
      "d": 560.747000000003,
      "v": 95
    },
    {
      "midi": 69,
      "hit": false,
      "t": 117196.12300000043,
      "d": 560.747000000003,
      "v": 95
    },
    {
      "midi": 45,
      "hit": false,
      "t": 117756.87000000043,
      "d": 186.91566666666768,
      "v": 95
    },
    {
      "midi": 50,
      "hit": false,
      "t": 117943.7856666671,
      "d": 186.91566666666768,
      "v": 95
    },
    {
      "midi": 57,
      "hit": false,
      "t": 118130.70133333377,
      "d": 186.91566666666768,
      "v": 95
    },
    {
      "midi": 65,
      "hit": false,
      "t": 118317.61700000043,
      "d": 560.747000000003,
      "v": 95
    },
    {
      "midi": 69,
      "hit": false,
      "t": 118317.61700000043,
      "d": 560.747000000003,
      "v": 95
    },
    {
      "midi": 45,
      "hit": false,
      "t": 118878.36400000044,
      "d": 186.91566666666768,
      "v": 95
    },
    {
      "midi": 52,
      "hit": false,
      "t": 119065.2796666671,
      "d": 186.91566666666768,
      "v": 95
    },
    {
      "midi": 57,
      "hit": false,
      "t": 119252.19533333377,
      "d": 186.91566666666768,
      "v": 95
    },
    {
      "midi": 72,
      "hit": false,
      "t": 119439.11100000044,
      "d": 560.747000000003,
      "v": 95
    },
    {
      "midi": 76,
      "hit": false,
      "t": 119439.11100000044,
      "d": 560.747000000003,
      "v": 95
    },
    {
      "midi": 45,
      "hit": false,
      "t": 119999.85800000044,
      "d": 186.91566666666768,
      "v": 95
    },
    {
      "midi": 52,
      "hit": false,
      "t": 120186.77366666711,
      "d": 186.91566666666768,
      "v": 95
    },
    {
      "midi": 57,
      "hit": false,
      "t": 120373.68933333378,
      "d": 186.91566666666768,
      "v": 95
    },
    {
      "midi": 72,
      "hit": false,
      "t": 120560.60500000045,
      "d": 560.747000000003,
      "v": 95
    },
    {
      "midi": 76,
      "hit": false,
      "t": 120560.60500000045,
      "d": 560.747000000003,
      "v": 95
    },
    {
      "midi": 48,
      "hit": false,
      "t": 121121.35200000045,
      "d": 186.91566666666768,
      "v": 95
    },
    {
      "midi": 55,
      "hit": false,
      "t": 121308.26766666712,
      "d": 186.91566666666768,
      "v": 95
    },
    {
      "midi": 60,
      "hit": false,
      "t": 121495.18333333379,
      "d": 186.91566666666768,
      "v": 95
    },
    {
      "midi": 72,
      "hit": false,
      "t": 121682.09900000045,
      "d": 560.747000000003,
      "v": 95
    },
    {
      "midi": 79,
      "hit": false,
      "t": 121682.09900000045,
      "d": 560.747000000003,
      "v": 95
    },
    {
      "midi": 48,
      "hit": false,
      "t": 122242.84600000046,
      "d": 186.91566666666768,
      "v": 95
    },
    {
      "midi": 55,
      "hit": false,
      "t": 122429.76166666712,
      "d": 186.91566666666768,
      "v": 95
    },
    {
      "midi": 60,
      "hit": false,
      "t": 122616.67733333379,
      "d": 186.91566666666768,
      "v": 95
    },
    {
      "midi": 72,
      "hit": false,
      "t": 122803.59300000046,
      "d": 560.747000000003,
      "v": 95
    },
    {
      "midi": 79,
      "hit": false,
      "t": 122803.59300000046,
      "d": 560.747000000003,
      "v": 95
    },
    {
      "midi": 45,
      "hit": false,
      "t": 123364.34000000046,
      "d": 186.91566666666768,
      "v": 95
    },
    {
      "midi": 50,
      "hit": false,
      "t": 123551.25566666713,
      "d": 186.91566666666768,
      "v": 95
    },
    {
      "midi": 57,
      "hit": false,
      "t": 123738.1713333338,
      "d": 186.91566666666768,
      "v": 95
    },
    {
      "midi": 65,
      "hit": false,
      "t": 123925.08700000047,
      "d": 560.747000000003,
      "v": 95
    },
    {
      "midi": 69,
      "hit": false,
      "t": 123925.08700000047,
      "d": 560.747000000003,
      "v": 95
    },
    {
      "midi": 45,
      "hit": false,
      "t": 124485.83400000047,
      "d": 186.91566666666768,
      "v": 95
    },
    {
      "midi": 50,
      "hit": false,
      "t": 124672.74966666714,
      "d": 186.91566666666768,
      "v": 95
    },
    {
      "midi": 57,
      "hit": false,
      "t": 124859.6653333338,
      "d": 186.91566666666768,
      "v": 95
    },
    {
      "midi": 65,
      "hit": false,
      "t": 125046.58100000047,
      "d": 560.747000000003,
      "v": 95
    },
    {
      "midi": 69,
      "hit": false,
      "t": 125046.58100000047,
      "d": 560.747000000003,
      "v": 95
    },
    {
      "midi": 45,
      "hit": false,
      "t": 125607.32800000047,
      "d": 186.91566666666768,
      "v": 95
    },
    {
      "midi": 52,
      "hit": false,
      "t": 125794.24366666714,
      "d": 186.91566666666768,
      "v": 95
    },
    {
      "midi": 57,
      "hit": false,
      "t": 125981.15933333381,
      "d": 186.91566666666768,
      "v": 95
    },
    {
      "midi": 72,
      "hit": false,
      "t": 126168.07500000048,
      "d": 560.747000000003,
      "v": 95
    },
    {
      "midi": 76,
      "hit": false,
      "t": 126168.07500000048,
      "d": 560.747000000003,
      "v": 95
    },
    {
      "midi": 45,
      "hit": false,
      "t": 126728.82200000048,
      "d": 186.91566666666768,
      "v": 95
    },
    {
      "midi": 52,
      "hit": false,
      "t": 126915.73766666715,
      "d": 186.91566666666768,
      "v": 95
    },
    {
      "midi": 57,
      "hit": false,
      "t": 127102.65333333382,
      "d": 186.91566666666768,
      "v": 95
    },
    {
      "midi": 72,
      "hit": false,
      "t": 127289.56900000048,
      "d": 560.747000000003,
      "v": 95
    },
    {
      "midi": 76,
      "hit": false,
      "t": 127289.56900000048,
      "d": 560.747000000003,
      "v": 95
    },
    {
      "midi": 41,
      "hit": false,
      "t": 127850.31600000049,
      "d": 186.91566666666768,
      "v": 95
    },
    {
      "midi": 48,
      "hit": false,
      "t": 128037.23166666715,
      "d": 186.91566666666768,
      "v": 95
    },
    {
      "midi": 53,
      "hit": false,
      "t": 128224.14733333382,
      "d": 186.91566666666768,
      "v": 95
    },
    {
      "midi": 69,
      "hit": false,
      "t": 128411.06300000049,
      "d": 560.747000000003,
      "v": 95
    },
    {
      "midi": 77,
      "hit": false,
      "t": 128411.06300000049,
      "d": 560.747000000003,
      "v": 95
    },
    {
      "midi": 41,
      "hit": false,
      "t": 128971.81000000049,
      "d": 186.91566666666768,
      "v": 95
    },
    {
      "midi": 48,
      "hit": false,
      "t": 129158.72566666716,
      "d": 186.91566666666768,
      "v": 95
    },
    {
      "midi": 53,
      "hit": false,
      "t": 129345.64133333383,
      "d": 186.91566666666768,
      "v": 95
    },
    {
      "midi": 69,
      "hit": false,
      "t": 129532.5570000005,
      "d": 560.747000000003,
      "v": 95
    },
    {
      "midi": 77,
      "hit": false,
      "t": 129532.5570000005,
      "d": 560.747000000003,
      "v": 95
    },
    {
      "midi": 45,
      "hit": false,
      "t": 130093.3040000005,
      "d": 186.91566666666768,
      "v": 95
    },
    {
      "midi": 50,
      "hit": false,
      "t": 130280.21966666717,
      "d": 186.91566666666768,
      "v": 95
    },
    {
      "midi": 57,
      "hit": false,
      "t": 130467.13533333383,
      "d": 186.91566666666768,
      "v": 95
    },
    {
      "midi": 65,
      "hit": false,
      "t": 130654.0510000005,
      "d": 560.747000000003,
      "v": 95
    },
    {
      "midi": 69,
      "hit": false,
      "t": 130654.0510000005,
      "d": 560.747000000003,
      "v": 95
    },
    {
      "midi": 45,
      "hit": false,
      "t": 131214.7980000005,
      "d": 186.91566666666768,
      "v": 95
    },
    {
      "midi": 50,
      "hit": false,
      "t": 131401.71366666717,
      "d": 186.91566666666768,
      "v": 95
    },
    {
      "midi": 57,
      "hit": false,
      "t": 131588.62933333384,
      "d": 186.91566666666768,
      "v": 95
    },
    {
      "midi": 65,
      "hit": false,
      "t": 131775.5450000005,
      "d": 560.747000000003,
      "v": 95
    },
    {
      "midi": 69,
      "hit": false,
      "t": 131775.5450000005,
      "d": 560.747000000003,
      "v": 95
    },
    {
      "midi": 45,
      "hit": false,
      "t": 132336.2920000005,
      "d": 186.91566666666768,
      "v": 95
    },
    {
      "midi": 52,
      "hit": false,
      "t": 132523.20766666718,
      "d": 186.91566666666768,
      "v": 95
    },
    {
      "midi": 57,
      "hit": false,
      "t": 132710.12333333385,
      "d": 186.91566666666768,
      "v": 95
    },
    {
      "midi": 72,
      "hit": false,
      "t": 132897.0390000005,
      "d": 560.747000000003,
      "v": 95
    },
    {
      "midi": 76,
      "hit": false,
      "t": 132897.0390000005,
      "d": 560.747000000003,
      "v": 95
    },
    {
      "midi": 45,
      "hit": false,
      "t": 133457.78600000052,
      "d": 186.91566666666768,
      "v": 95
    },
    {
      "midi": 52,
      "hit": false,
      "t": 133644.70166666718,
      "d": 186.91566666666768,
      "v": 95
    },
    {
      "midi": 57,
      "hit": false,
      "t": 133831.61733333385,
      "d": 186.91566666666768,
      "v": 95
    },
    {
      "midi": 72,
      "hit": false,
      "t": 134018.53300000052,
      "d": 560.747000000003,
      "v": 95
    },
    {
      "midi": 76,
      "hit": false,
      "t": 134018.53300000052,
      "d": 560.747000000003,
      "v": 95
    },
    {
      "midi": 48,
      "hit": false,
      "t": 134579.28000000052,
      "d": 186.91566666666768,
      "v": 95
    },
    {
      "midi": 55,
      "hit": false,
      "t": 134766.1956666672,
      "d": 186.91566666666768,
      "v": 95
    },
    {
      "midi": 60,
      "hit": false,
      "t": 134953.11133333386,
      "d": 186.91566666666768,
      "v": 95
    },
    {
      "midi": 72,
      "hit": false,
      "t": 135140.02700000053,
      "d": 560.747000000003,
      "v": 95
    },
    {
      "midi": 79,
      "hit": false,
      "t": 135140.02700000053,
      "d": 560.747000000003,
      "v": 95
    },
    {
      "midi": 48,
      "hit": false,
      "t": 135700.77400000053,
      "d": 186.91566666666768,
      "v": 95
    },
    {
      "midi": 55,
      "hit": false,
      "t": 135887.6896666672,
      "d": 186.91566666666768,
      "v": 95
    },
    {
      "midi": 60,
      "hit": false,
      "t": 136074.60533333386,
      "d": 186.91566666666768,
      "v": 95
    },
    {
      "midi": 72,
      "hit": false,
      "t": 136261.52100000053,
      "d": 560.747000000003,
      "v": 95
    },
    {
      "midi": 79,
      "hit": false,
      "t": 136261.52100000053,
      "d": 560.747000000003,
      "v": 95
    },
    {
      "midi": 45,
      "hit": false,
      "t": 136822.26800000053,
      "d": 186.91566666666768,
      "v": 95
    },
    {
      "midi": 50,
      "hit": false,
      "t": 137009.1836666672,
      "d": 186.91566666666768,
      "v": 95
    },
    {
      "midi": 57,
      "hit": false,
      "t": 137196.09933333387,
      "d": 186.91566666666768,
      "v": 95
    },
    {
      "midi": 65,
      "hit": false,
      "t": 137383.01500000054,
      "d": 560.747000000003,
      "v": 95
    },
    {
      "midi": 69,
      "hit": false,
      "t": 137383.01500000054,
      "d": 560.747000000003,
      "v": 95
    },
    {
      "midi": 45,
      "hit": false,
      "t": 137943.76200000054,
      "d": 186.91566666666768,
      "v": 95
    },
    {
      "midi": 50,
      "hit": false,
      "t": 138130.6776666672,
      "d": 186.91566666666768,
      "v": 95
    },
    {
      "midi": 57,
      "hit": false,
      "t": 138317.59333333388,
      "d": 186.91566666666768,
      "v": 95
    },
    {
      "midi": 65,
      "hit": false,
      "t": 138504.50900000054,
      "d": 560.747000000003,
      "v": 95
    },
    {
      "midi": 69,
      "hit": false,
      "t": 138504.50900000054,
      "d": 560.747000000003,
      "v": 95
    },
    {
      "midi": 45,
      "hit": false,
      "t": 139065.25600000055,
      "d": 186.91566666666768,
      "v": 95
    },
    {
      "midi": 52,
      "hit": false,
      "t": 139252.17166666721,
      "d": 186.91566666666768,
      "v": 95
    },
    {
      "midi": 57,
      "hit": false,
      "t": 139439.08733333388,
      "d": 186.91566666666768,
      "v": 95
    },
    {
      "midi": 72,
      "hit": false,
      "t": 139626.00300000055,
      "d": 560.747000000003,
      "v": 95
    },
    {
      "midi": 76,
      "hit": false,
      "t": 139626.00300000055,
      "d": 560.747000000003,
      "v": 95
    },
    {
      "midi": 45,
      "hit": false,
      "t": 140186.75000000055,
      "d": 186.91566666666768,
      "v": 95
    },
    {
      "midi": 52,
      "hit": false,
      "t": 140373.66566666722,
      "d": 186.91566666666768,
      "v": 95
    },
    {
      "midi": 57,
      "hit": false,
      "t": 140560.5813333339,
      "d": 186.91566666666768,
      "v": 95
    },
    {
      "midi": 72,
      "hit": false,
      "t": 140747.49700000056,
      "d": 560.747000000003,
      "v": 95
    },
    {
      "midi": 76,
      "hit": false,
      "t": 140747.49700000056,
      "d": 560.747000000003,
      "v": 95
    },
    {
      "midi": 41,
      "hit": false,
      "t": 141308.24400000056,
      "d": 186.91566666666768,
      "v": 95
    },
    {
      "midi": 48,
      "hit": false,
      "t": 141495.15966666723,
      "d": 186.91566666666768,
      "v": 95
    },
    {
      "midi": 53,
      "hit": false,
      "t": 141682.0753333339,
      "d": 186.91566666666768,
      "v": 95
    },
    {
      "midi": 69,
      "hit": false,
      "t": 141868.99100000056,
      "d": 560.747000000003,
      "v": 95
    },
    {
      "midi": 77,
      "hit": false,
      "t": 141868.99100000056,
      "d": 560.747000000003,
      "v": 95
    },
    {
      "midi": 41,
      "hit": false,
      "t": 142429.73800000057,
      "d": 186.91566666666768,
      "v": 95
    },
    {
      "midi": 48,
      "hit": false,
      "t": 142616.65366666723,
      "d": 186.91566666666768,
      "v": 95
    },
    {
      "midi": 53,
      "hit": false,
      "t": 142803.5693333339,
      "d": 186.91566666666768,
      "v": 95
    },
    {
      "midi": 69,
      "hit": false,
      "t": 142990.48500000057,
      "d": 560.747000000003,
      "v": 95
    },
    {
      "midi": 77,
      "hit": false,
      "t": 142990.48500000057,
      "d": 560.747000000003,
      "v": 95
    },
    {
      "midi": 45,
      "hit": false,
      "t": 143551.23200000057,
      "d": 186.91566666666768,
      "v": 95
    },
    {
      "midi": 50,
      "hit": false,
      "t": 143738.14766666724,
      "d": 186.91566666666768,
      "v": 95
    },
    {
      "midi": 57,
      "hit": false,
      "t": 143925.0633333339,
      "d": 186.91566666666768,
      "v": 95
    },
    {
      "midi": 65,
      "hit": false,
      "t": 144111.97900000057,
      "d": 560.747000000003,
      "v": 95
    },
    {
      "midi": 69,
      "hit": false,
      "t": 144111.97900000057,
      "d": 560.747000000003,
      "v": 95
    },
    {
      "midi": 45,
      "hit": false,
      "t": 144672.72600000058,
      "d": 186.91566666666768,
      "v": 95
    },
    {
      "midi": 50,
      "hit": false,
      "t": 144859.64166666724,
      "d": 186.91566666666768,
      "v": 95
    },
    {
      "midi": 57,
      "hit": false,
      "t": 145046.5573333339,
      "d": 186.91566666666768,
      "v": 95
    },
    {
      "midi": 65,
      "hit": false,
      "t": 145233.47300000058,
      "d": 560.747000000003,
      "v": 95
    },
    {
      "midi": 69,
      "hit": false,
      "t": 145233.47300000058,
      "d": 560.747000000003,
      "v": 95
    },
    {
      "midi": 45,
      "hit": false,
      "t": 145794.22000000058,
      "d": 186.91566666666768,
      "v": 95
    },
    {
      "midi": 52,
      "hit": false,
      "t": 145981.13566666725,
      "d": 186.91566666666768,
      "v": 95
    },
    {
      "midi": 57,
      "hit": false,
      "t": 146168.05133333392,
      "d": 186.91566666666768,
      "v": 95
    },
    {
      "midi": 72,
      "hit": false,
      "t": 146354.9670000006,
      "d": 560.747000000003,
      "v": 95
    },
    {
      "midi": 76,
      "hit": false,
      "t": 146354.9670000006,
      "d": 560.747000000003,
      "v": 95
    },
    {
      "midi": 45,
      "hit": false,
      "t": 146915.7140000006,
      "d": 186.91566666666768,
      "v": 95
    },
    {
      "midi": 52,
      "hit": false,
      "t": 147102.62966666726,
      "d": 186.91566666666768,
      "v": 95
    },
    {
      "midi": 57,
      "hit": false,
      "t": 147289.54533333392,
      "d": 186.91566666666768,
      "v": 95
    },
    {
      "midi": 72,
      "hit": false,
      "t": 147476.4610000006,
      "d": 560.747000000003,
      "v": 95
    },
    {
      "midi": 76,
      "hit": false,
      "t": 147476.4610000006,
      "d": 560.747000000003,
      "v": 95
    },
    {
      "midi": 48,
      "hit": false,
      "t": 148037.2080000006,
      "d": 186.91566666666768,
      "v": 95
    },
    {
      "midi": 55,
      "hit": false,
      "t": 148224.12366666726,
      "d": 186.91566666666768,
      "v": 95
    },
    {
      "midi": 60,
      "hit": false,
      "t": 148411.03933333393,
      "d": 186.91566666666768,
      "v": 95
    },
    {
      "midi": 72,
      "hit": false,
      "t": 148597.9550000006,
      "d": 560.747000000003,
      "v": 95
    },
    {
      "midi": 79,
      "hit": false,
      "t": 148597.9550000006,
      "d": 560.747000000003,
      "v": 95
    },
    {
      "midi": 48,
      "hit": false,
      "t": 149158.7020000006,
      "d": 186.91566666666768,
      "v": 95
    },
    {
      "midi": 55,
      "hit": false,
      "t": 149345.61766666727,
      "d": 186.91566666666768,
      "v": 95
    },
    {
      "midi": 60,
      "hit": false,
      "t": 149532.53333333394,
      "d": 186.91566666666768,
      "v": 95
    },
    {
      "midi": 72,
      "hit": false,
      "t": 149719.4490000006,
      "d": 560.747000000003,
      "v": 95
    },
    {
      "midi": 79,
      "hit": false,
      "t": 149719.4490000006,
      "d": 560.747000000003,
      "v": 95
    },
    {
      "midi": 45,
      "hit": false,
      "t": 150280.1960000006,
      "d": 186.91566666666768,
      "v": 95
    },
    {
      "midi": 50,
      "hit": false,
      "t": 150467.11166666728,
      "d": 186.91566666666768,
      "v": 95
    },
    {
      "midi": 57,
      "hit": false,
      "t": 150654.02733333394,
      "d": 186.91566666666768,
      "v": 95
    },
    {
      "midi": 65,
      "hit": false,
      "t": 150840.9430000006,
      "d": 560.747000000003,
      "v": 95
    },
    {
      "midi": 69,
      "hit": false,
      "t": 150840.9430000006,
      "d": 560.747000000003,
      "v": 95
    },
    {
      "midi": 45,
      "hit": false,
      "t": 151401.6900000006,
      "d": 186.91566666666768,
      "v": 95
    },
    {
      "midi": 50,
      "hit": false,
      "t": 151588.60566666728,
      "d": 186.91566666666768,
      "v": 95
    },
    {
      "midi": 57,
      "hit": false,
      "t": 151775.52133333395,
      "d": 186.91566666666768,
      "v": 95
    },
    {
      "midi": 65,
      "hit": false,
      "t": 151962.43700000062,
      "d": 560.747000000003,
      "v": 95
    },
    {
      "midi": 69,
      "hit": false,
      "t": 151962.43700000062,
      "d": 560.747000000003,
      "v": 95
    },
    {
      "midi": 45,
      "hit": false,
      "t": 152523.18400000062,
      "d": 186.91566666666768,
      "v": 95
    },
    {
      "midi": 52,
      "hit": false,
      "t": 152710.0996666673,
      "d": 186.91566666666768,
      "v": 95
    },
    {
      "midi": 57,
      "hit": false,
      "t": 152897.01533333395,
      "d": 186.91566666666768,
      "v": 95
    },
    {
      "midi": 72,
      "hit": false,
      "t": 153083.93100000062,
      "d": 560.747000000003,
      "v": 95
    },
    {
      "midi": 76,
      "hit": false,
      "t": 153083.93100000062,
      "d": 560.747000000003,
      "v": 95
    },
    {
      "midi": 45,
      "hit": false,
      "t": 153644.67800000063,
      "d": 186.91566666666768,
      "v": 95
    },
    {
      "midi": 52,
      "hit": false,
      "t": 153831.5936666673,
      "d": 186.91566666666768,
      "v": 95
    },
    {
      "midi": 57,
      "hit": false,
      "t": 154018.50933333396,
      "d": 186.91566666666768,
      "v": 95
    },
    {
      "midi": 72,
      "hit": false,
      "t": 154205.42500000063,
      "d": 560.747000000003,
      "v": 95
    },
    {
      "midi": 76,
      "hit": false,
      "t": 154205.42500000063,
      "d": 560.747000000003,
      "v": 95
    },
    {
      "midi": 41,
      "hit": false,
      "t": 154766.17200000063,
      "d": 186.91566666666768,
      "v": 95
    },
    {
      "midi": 48,
      "hit": false,
      "t": 154953.0876666673,
      "d": 186.91566666666768,
      "v": 95
    },
    {
      "midi": 53,
      "hit": false,
      "t": 155140.00333333397,
      "d": 186.91566666666768,
      "v": 95
    },
    {
      "midi": 69,
      "hit": false,
      "t": 155326.91900000063,
      "d": 560.747000000003,
      "v": 95
    },
    {
      "midi": 77,
      "hit": false,
      "t": 155326.91900000063,
      "d": 560.747000000003,
      "v": 95
    },
    {
      "midi": 41,
      "hit": false,
      "t": 155887.66600000064,
      "d": 186.91566666666768,
      "v": 95
    },
    {
      "midi": 48,
      "hit": false,
      "t": 156074.5816666673,
      "d": 186.91566666666768,
      "v": 95
    },
    {
      "midi": 53,
      "hit": false,
      "t": 156261.49733333397,
      "d": 186.91566666666768,
      "v": 95
    },
    {
      "midi": 69,
      "hit": false,
      "t": 156448.41300000064,
      "d": 560.747000000003,
      "v": 95
    },
    {
      "midi": 77,
      "hit": false,
      "t": 156448.41300000064,
      "d": 560.747000000003,
      "v": 95
    },
    {
      "midi": 62,
      "hit": false,
      "t": 158130.65400000065,
      "d": 560.747000000003,
      "v": 95
    },
    {
      "midi": 69,
      "hit": false,
      "t": 158130.65400000065,
      "d": 560.747000000003,
      "v": 95
    },
    {
      "midi": 60,
      "hit": false,
      "t": 159812.89500000066,
      "d": 560.747000000003,
      "v": 95
    },
    {
      "midi": 67,
      "hit": false,
      "t": 159812.89500000066,
      "d": 560.747000000003,
      "v": 95
    },
    {
      "midi": 62,
      "hit": false,
      "t": 161495.13600000067,
      "d": 560.747000000003,
      "v": 95
    },
    {
      "midi": 69,
      "hit": false,
      "t": 161495.13600000067,
      "d": 560.747000000003,
      "v": 95
    },
    {
      "midi": 65,
      "hit": false,
      "t": 162055.88300000067,
      "d": 560.747000000003,
      "v": 95
    },
    {
      "midi": 64,
      "hit": false,
      "t": 162616.63000000067,
      "d": 280.37349999998696,
      "v": 95
    },
    {
      "midi": 65,
      "hit": false,
      "t": 162897.00350000066,
      "d": 280.37349999998696,
      "v": 95
    },
    {
      "midi": 64,
      "hit": false,
      "t": 163177.37700000065,
      "d": 560.747000000003,
      "v": 95
    },
    {
      "midi": 62,
      "hit": false,
      "t": 164859.61800000066,
      "d": 560.747000000003,
      "v": 95
    },
    {
      "midi": 69,
      "hit": false,
      "t": 164859.61800000066,
      "d": 560.747000000003,
      "v": 95
    },
    {
      "midi": 60,
      "hit": false,
      "t": 166541.85900000067,
      "d": 560.747000000003,
      "v": 95
    },
    {
      "midi": 67,
      "hit": false,
      "t": 166541.85900000067,
      "d": 560.747000000003,
      "v": 95
    },
    {
      "midi": 62,
      "hit": false,
      "t": 168224.10000000068,
      "d": 560.747000000003,
      "v": 95
    },
    {
      "midi": 69,
      "hit": false,
      "t": 168224.10000000068,
      "d": 560.747000000003,
      "v": 95
    },
    {
      "midi": 65,
      "hit": false,
      "t": 168784.84700000068,
      "d": 560.747000000003,
      "v": 95
    },
    {
      "midi": 64,
      "hit": false,
      "t": 169345.59400000068,
      "d": 280.37349999998696,
      "v": 95
    },
    {
      "midi": 65,
      "hit": false,
      "t": 169625.96750000067,
      "d": 280.37349999998696,
      "v": 95
    },
    {
      "midi": 64,
      "hit": false,
      "t": 169906.34100000066,
      "d": 560.747000000003,
      "v": 95
    },
    {
      "midi": 62,
      "hit": false,
      "t": 171588.58200000066,
      "d": 560.747000000003,
      "v": 95
    },
    {
      "midi": 69,
      "hit": false,
      "t": 171588.58200000066,
      "d": 560.747000000003,
      "v": 95
    },
    {
      "midi": 60,
      "hit": false,
      "t": 173270.82300000067,
      "d": 560.747000000003,
      "v": 95
    },
    {
      "midi": 67,
      "hit": false,
      "t": 173270.82300000067,
      "d": 560.747000000003,
      "v": 95
    },
    {
      "midi": 62,
      "hit": false,
      "t": 174953.06400000068,
      "d": 560.747000000003,
      "v": 95
    },
    {
      "midi": 69,
      "hit": false,
      "t": 174953.06400000068,
      "d": 560.747000000003,
      "v": 95
    },
    {
      "midi": 65,
      "hit": false,
      "t": 175513.8110000007,
      "d": 560.747000000003,
      "v": 95
    },
    {
      "midi": 64,
      "hit": false,
      "t": 176074.5580000007,
      "d": 280.37349999998696,
      "v": 95
    },
    {
      "midi": 65,
      "hit": false,
      "t": 176354.93150000068,
      "d": 280.37349999998696,
      "v": 95
    },
    {
      "midi": 64,
      "hit": false,
      "t": 176635.30500000066,
      "d": 560.747000000003,
      "v": 95
    },
    {
      "midi": 62,
      "hit": false,
      "t": 178317.54600000067,
      "d": 560.747000000003,
      "v": 95
    },
    {
      "midi": 69,
      "hit": false,
      "t": 178317.54600000067,
      "d": 560.747000000003,
      "v": 95
    },
    {
      "midi": 60,
      "hit": false,
      "t": 179999.78700000068,
      "d": 560.747000000003,
      "v": 95
    },
    {
      "midi": 67,
      "hit": false,
      "t": 179999.78700000068,
      "d": 560.747000000003,
      "v": 95
    },
    {
      "midi": 62,
      "hit": false,
      "t": 181682.0280000007,
      "d": 560.747000000003,
      "v": 95
    },
    {
      "midi": 69,
      "hit": false,
      "t": 181682.0280000007,
      "d": 560.747000000003,
      "v": 95
    },
    {
      "midi": 65,
      "hit": false,
      "t": 182242.7750000007,
      "d": 560.747000000003,
      "v": 95
    },
    {
      "midi": 64,
      "hit": false,
      "t": 182803.5220000007,
      "d": 280.37349999998696,
      "v": 95
    },
    {
      "midi": 65,
      "hit": false,
      "t": 183083.89550000068,
      "d": 280.37349999998696,
      "v": 95
    },
    {
      "midi": 64,
      "hit": false,
      "t": 183364.26900000067,
      "d": 560.747000000003,
      "v": 95
    },
    {
      "midi": 62,
      "hit": false,
      "t": 185046.51000000068,
      "d": 560.747000000003,
      "v": 95
    },
    {
      "midi": 69,
      "hit": false,
      "t": 185046.51000000068,
      "d": 560.747000000003,
      "v": 95
    },
    {
      "midi": 60,
      "hit": false,
      "t": 186728.7510000007,
      "d": 560.747000000003,
      "v": 95
    },
    {
      "midi": 67,
      "hit": false,
      "t": 186728.7510000007,
      "d": 560.747000000003,
      "v": 95
    },
    {
      "midi": 62,
      "hit": false,
      "t": 188410.9920000007,
      "d": 560.747000000003,
      "v": 95
    },
    {
      "midi": 69,
      "hit": false,
      "t": 188410.9920000007,
      "d": 560.747000000003,
      "v": 95
    },
    {
      "midi": 65,
      "hit": false,
      "t": 188971.7390000007,
      "d": 560.747000000003,
      "v": 95
    },
    {
      "midi": 64,
      "hit": false,
      "t": 189532.4860000007,
      "d": 280.37349999998696,
      "v": 95
    },
    {
      "midi": 65,
      "hit": false,
      "t": 189812.8595000007,
      "d": 280.37349999998696,
      "v": 95
    },
    {
      "midi": 64,
      "hit": false,
      "t": 190093.23300000068,
      "d": 560.747000000003,
      "v": 95
    },
    {
      "midi": 62,
      "hit": false,
      "t": 191775.4740000007,
      "d": 560.747000000003,
      "v": 95
    },
    {
      "midi": 69,
      "hit": false,
      "t": 191775.4740000007,
      "d": 560.747000000003,
      "v": 95
    },
    {
      "midi": 60,
      "hit": false,
      "t": 193457.7150000007,
      "d": 560.747000000003,
      "v": 95
    },
    {
      "midi": 67,
      "hit": false,
      "t": 193457.7150000007,
      "d": 560.747000000003,
      "v": 95
    },
    {
      "midi": 62,
      "hit": false,
      "t": 195139.9560000007,
      "d": 560.747000000003,
      "v": 95
    },
    {
      "midi": 69,
      "hit": false,
      "t": 195139.9560000007,
      "d": 560.747000000003,
      "v": 95
    },
    {
      "midi": 65,
      "hit": false,
      "t": 195700.7030000007,
      "d": 560.747000000003,
      "v": 95
    },
    {
      "midi": 64,
      "hit": false,
      "t": 196261.4500000007,
      "d": 280.37349999998696,
      "v": 95
    },
    {
      "midi": 65,
      "hit": false,
      "t": 196541.8235000007,
      "d": 280.37349999998696,
      "v": 95
    },
    {
      "midi": 64,
      "hit": false,
      "t": 196822.19700000068,
      "d": 560.747000000003,
      "v": 95
    },
    {
      "midi": 62,
      "hit": false,
      "t": 198504.4380000007,
      "d": 560.747000000003,
      "v": 95
    },
    {
      "midi": 69,
      "hit": false,
      "t": 198504.4380000007,
      "d": 560.747000000003,
      "v": 95
    },
    {
      "midi": 60,
      "hit": false,
      "t": 200186.6790000007,
      "d": 560.747000000003,
      "v": 95
    },
    {
      "midi": 67,
      "hit": false,
      "t": 200186.6790000007,
      "d": 560.747000000003,
      "v": 95
    },
    {
      "midi": 62,
      "hit": false,
      "t": 201868.9200000007,
      "d": 560.747000000003,
      "v": 95
    },
    {
      "midi": 69,
      "hit": false,
      "t": 201868.9200000007,
      "d": 560.747000000003,
      "v": 95
    },
    {
      "midi": 65,
      "hit": false,
      "t": 202429.6670000007,
      "d": 560.747000000003,
      "v": 95
    },
    {
      "midi": 64,
      "hit": false,
      "t": 202990.41400000072,
      "d": 280.37349999998696,
      "v": 95
    },
    {
      "midi": 65,
      "hit": false,
      "t": 203270.7875000007,
      "d": 280.37349999998696,
      "v": 95
    },
    {
      "midi": 64,
      "hit": false,
      "t": 203551.1610000007,
      "d": 560.747000000003,
      "v": 95
    },
    {
      "midi": 62,
      "hit": false,
      "t": 205233.4020000007,
      "d": 560.747000000003,
      "v": 95
    },
    {
      "midi": 69,
      "hit": false,
      "t": 205233.4020000007,
      "d": 560.747000000003,
      "v": 95
    },
    {
      "midi": 60,
      "hit": false,
      "t": 206915.6430000007,
      "d": 560.747000000003,
      "v": 95
    },
    {
      "midi": 67,
      "hit": false,
      "t": 206915.6430000007,
      "d": 560.747000000003,
      "v": 95
    },
    {
      "midi": 62,
      "hit": false,
      "t": 208597.88400000072,
      "d": 560.747000000003,
      "v": 95
    },
    {
      "midi": 69,
      "hit": false,
      "t": 208597.88400000072,
      "d": 560.747000000003,
      "v": 95
    },
    {
      "midi": 65,
      "hit": false,
      "t": 209158.63100000072,
      "d": 560.747000000003,
      "v": 95
    },
    {
      "midi": 64,
      "hit": false,
      "t": 209719.37800000072,
      "d": 280.37349999998696,
      "v": 95
    },
    {
      "midi": 65,
      "hit": false,
      "t": 209999.7515000007,
      "d": 280.37349999998696,
      "v": 95
    },
    {
      "midi": 64,
      "hit": false,
      "t": 210280.1250000007,
      "d": 560.747000000003,
      "v": 95
    },
    {
      "midi": 60,
      "hit": false,
      "t": 210840.8720000007,
      "d": 280.37349999998696,
      "v": 95
    },
    {
      "midi": 63,
      "hit": false,
      "t": 211121.2455000007,
      "d": 280.37349999998696,
      "v": 95
    },
    {
      "midi": 67,
      "hit": false,
      "t": 211401.61900000068,
      "d": 280.37349999998696,
      "v": 95
    },
    {
      "midi": 60,
      "hit": false,
      "t": 211681.99250000066,
      "d": 280.37349999998696,
      "v": 95
    },
    {
      "midi": 63,
      "hit": false,
      "t": 211962.36600000065,
      "d": 280.37349999998696,
      "v": 95
    },
    {
      "midi": 67,
      "hit": false,
      "t": 212242.73950000064,
      "d": 280.37349999998696,
      "v": 95
    },
    {
      "midi": 60,
      "hit": false,
      "t": 212523.11300000062,
      "d": 280.37349999998696,
      "v": 95
    },
    {
      "midi": 67,
      "hit": false,
      "t": 212803.4865000006,
      "d": 280.37349999998696,
      "v": 95
    },
    {
      "midi": 62,
      "hit": false,
      "t": 213083.8600000006,
      "d": 280.37349999998696,
      "v": 95
    },
    {
      "midi": 63,
      "hit": false,
      "t": 213364.23350000058,
      "d": 280.37349999998696,
      "v": 95
    },
    {
      "midi": 67,
      "hit": false,
      "t": 213644.60700000057,
      "d": 280.37349999998696,
      "v": 95
    },
    {
      "midi": 62,
      "hit": false,
      "t": 213924.98050000056,
      "d": 280.37349999998696,
      "v": 95
    },
    {
      "midi": 63,
      "hit": false,
      "t": 214205.35400000055,
      "d": 280.37349999998696,
      "v": 95
    },
    {
      "midi": 67,
      "hit": false,
      "t": 214485.72750000053,
      "d": 280.37349999998696,
      "v": 95
    },
    {
      "midi": 62,
      "hit": false,
      "t": 214766.10100000052,
      "d": 280.37349999998696,
      "v": 95
    },
    {
      "midi": 67,
      "hit": false,
      "t": 215046.4745000005,
      "d": 280.37349999998696,
      "v": 95
    },
    {
      "midi": 60,
      "hit": false,
      "t": 215326.8480000005,
      "d": 280.37349999998696,
      "v": 95
    },
    {
      "midi": 63,
      "hit": false,
      "t": 215607.22150000048,
      "d": 280.37349999998696,
      "v": 95
    },
    {
      "midi": 67,
      "hit": false,
      "t": 215887.59500000047,
      "d": 280.37349999998696,
      "v": 95
    },
    {
      "midi": 60,
      "hit": false,
      "t": 216167.96850000045,
      "d": 280.37349999998696,
      "v": 95
    },
    {
      "midi": 63,
      "hit": false,
      "t": 216448.34200000044,
      "d": 280.37349999998696,
      "v": 95
    },
    {
      "midi": 67,
      "hit": false,
      "t": 216728.71550000043,
      "d": 280.37349999998696,
      "v": 95
    },
    {
      "midi": 60,
      "hit": false,
      "t": 217009.08900000041,
      "d": 280.37349999998696,
      "v": 95
    },
    {
      "midi": 67,
      "hit": false,
      "t": 217289.4625000004,
      "d": 280.37349999998696,
      "v": 95
    },
    {
      "midi": 62,
      "hit": false,
      "t": 217569.8360000004,
      "d": 280.37349999998696,
      "v": 95
    },
    {
      "midi": 66,
      "hit": false,
      "t": 217850.20950000038,
      "d": 280.37349999998696,
      "v": 95
    },
    {
      "midi": 67,
      "hit": false,
      "t": 218130.58300000036,
      "d": 280.37349999998696,
      "v": 95
    },
    {
      "midi": 62,
      "hit": false,
      "t": 218410.95650000035,
      "d": 280.37349999998696,
      "v": 95
    },
    {
      "midi": 66,
      "hit": false,
      "t": 218691.33000000034,
      "d": 280.37349999998696,
      "v": 95
    },
    {
      "midi": 67,
      "hit": false,
      "t": 218971.70350000032,
      "d": 280.37349999998696,
      "v": 95
    },
    {
      "midi": 62,
      "hit": false,
      "t": 219252.0770000003,
      "d": 280.37349999998696,
      "v": 95
    },
    {
      "midi": 67,
      "hit": false,
      "t": 219532.4505000003,
      "d": 280.37349999998696,
      "v": 95
    },
    {
      "midi": 60,
      "hit": false,
      "t": 219812.82400000028,
      "d": 280.37349999998696,
      "v": 95
    },
    {
      "midi": 63,
      "hit": false,
      "t": 220093.19750000027,
      "d": 280.37349999998696,
      "v": 95
    },
    {
      "midi": 67,
      "hit": false,
      "t": 220373.57100000026,
      "d": 280.37349999998696,
      "v": 95
    },
    {
      "midi": 60,
      "hit": false,
      "t": 220653.94450000025,
      "d": 280.37349999998696,
      "v": 95
    },
    {
      "midi": 63,
      "hit": false,
      "t": 220934.31800000023,
      "d": 280.37349999998696,
      "v": 95
    },
    {
      "midi": 67,
      "hit": false,
      "t": 221214.69150000022,
      "d": 280.37349999998696,
      "v": 95
    },
    {
      "midi": 60,
      "hit": false,
      "t": 221495.0650000002,
      "d": 280.37349999998696,
      "v": 95
    },
    {
      "midi": 67,
      "hit": false,
      "t": 221775.4385000002,
      "d": 280.37349999998696,
      "v": 95
    },
    {
      "midi": 62,
      "hit": false,
      "t": 222055.81200000018,
      "d": 280.37349999998696,
      "v": 95
    },
    {
      "midi": 63,
      "hit": false,
      "t": 222336.18550000017,
      "d": 280.37349999998696,
      "v": 95
    },
    {
      "midi": 67,
      "hit": false,
      "t": 222616.55900000015,
      "d": 280.37349999998696,
      "v": 95
    },
    {
      "midi": 62,
      "hit": false,
      "t": 222896.93250000014,
      "d": 280.37349999998696,
      "v": 95
    },
    {
      "midi": 63,
      "hit": false,
      "t": 223177.30600000013,
      "d": 280.37349999998696,
      "v": 95
    },
    {
      "midi": 67,
      "hit": false,
      "t": 223457.67950000011,
      "d": 280.37349999998696,
      "v": 95
    },
    {
      "midi": 62,
      "hit": false,
      "t": 223738.0530000001,
      "d": 280.37349999998696,
      "v": 95
    },
    {
      "midi": 67,
      "hit": false,
      "t": 224018.4265000001,
      "d": 280.37349999998696,
      "v": 95
    },
    {
      "midi": 60,
      "hit": false,
      "t": 224298.80000000008,
      "d": 280.37349999998696,
      "v": 95
    },
    {
      "midi": 63,
      "hit": false,
      "t": 224579.17350000006,
      "d": 280.37349999998696,
      "v": 95
    },
    {
      "midi": 67,
      "hit": false,
      "t": 224859.54700000005,
      "d": 280.37349999998696,
      "v": 95
    },
    {
      "midi": 60,
      "hit": false,
      "t": 225139.92050000004,
      "d": 280.37349999998696,
      "v": 95
    },
    {
      "midi": 63,
      "hit": false,
      "t": 225420.29400000002,
      "d": 280.37349999998696,
      "v": 95
    },
    {
      "midi": 67,
      "hit": false,
      "t": 225700.6675,
      "d": 280.37349999998696,
      "v": 95
    },
    {
      "midi": 60,
      "hit": false,
      "t": 225981.041,
      "d": 280.37349999998696,
      "v": 95
    },
    {
      "midi": 67,
      "hit": false,
      "t": 226261.41449999998,
      "d": 280.37349999998696,
      "v": 95
    },
    {
      "midi": 62,
      "hit": false,
      "t": 226541.78799999997,
      "d": 280.37349999998696,
      "v": 95
    },
    {
      "midi": 66,
      "hit": false,
      "t": 226822.16149999996,
      "d": 280.37349999998696,
      "v": 95
    },
    {
      "midi": 67,
      "hit": false,
      "t": 227102.53499999995,
      "d": 280.37349999998696,
      "v": 95
    },
    {
      "midi": 62,
      "hit": false,
      "t": 227382.90849999993,
      "d": 280.37349999998696,
      "v": 95
    },
    {
      "midi": 66,
      "hit": false,
      "t": 227663.28199999992,
      "d": 280.37349999998696,
      "v": 95
    },
    {
      "midi": 67,
      "hit": false,
      "t": 227943.6554999999,
      "d": 280.37349999998696,
      "v": 95
    },
    {
      "midi": 62,
      "hit": false,
      "t": 228224.0289999999,
      "d": 280.37349999998696,
      "v": 95
    },
    {
      "midi": 67,
      "hit": false,
      "t": 228504.40249999988,
      "d": 280.37349999998696,
      "v": 95
    },
    {
      "midi": 60,
      "hit": false,
      "t": 228784.77599999987,
      "d": 280.37349999998696,
      "v": 95
    },
    {
      "midi": 63,
      "hit": false,
      "t": 229065.14949999985,
      "d": 280.37349999998696,
      "v": 95
    },
    {
      "midi": 67,
      "hit": false,
      "t": 229345.52299999984,
      "d": 280.37349999998696,
      "v": 95
    },
    {
      "midi": 60,
      "hit": false,
      "t": 229625.89649999983,
      "d": 280.37349999998696,
      "v": 95
    },
    {
      "midi": 63,
      "hit": false,
      "t": 229906.26999999981,
      "d": 280.37349999998696,
      "v": 95
    },
    {
      "midi": 67,
      "hit": false,
      "t": 230186.6434999998,
      "d": 280.37349999998696,
      "v": 95
    },
    {
      "midi": 60,
      "hit": false,
      "t": 230467.0169999998,
      "d": 280.37349999998696,
      "v": 95
    },
    {
      "midi": 67,
      "hit": false,
      "t": 230747.39049999978,
      "d": 280.37349999998696,
      "v": 95
    },
    {
      "midi": 62,
      "hit": false,
      "t": 231027.76399999976,
      "d": 280.37349999998696,
      "v": 95
    },
    {
      "midi": 63,
      "hit": false,
      "t": 231308.13749999975,
      "d": 280.37349999998696,
      "v": 95
    },
    {
      "midi": 67,
      "hit": false,
      "t": 231588.51099999974,
      "d": 280.37349999998696,
      "v": 95
    },
    {
      "midi": 62,
      "hit": false,
      "t": 231868.88449999972,
      "d": 280.37349999998696,
      "v": 95
    },
    {
      "midi": 63,
      "hit": false,
      "t": 232149.2579999997,
      "d": 280.37349999998696,
      "v": 95
    },
    {
      "midi": 67,
      "hit": false,
      "t": 232429.6314999997,
      "d": 280.37349999998696,
      "v": 95
    },
    {
      "midi": 62,
      "hit": false,
      "t": 232710.00499999968,
      "d": 280.37349999998696,
      "v": 95
    },
    {
      "midi": 67,
      "hit": false,
      "t": 232990.37849999967,
      "d": 280.37349999998696,
      "v": 95
    },
    {
      "midi": 60,
      "hit": false,
      "t": 233270.75199999966,
      "d": 280.37349999998696,
      "v": 95
    },
    {
      "midi": 63,
      "hit": false,
      "t": 233551.12549999965,
      "d": 280.37349999998696,
      "v": 95
    },
    {
      "midi": 67,
      "hit": false,
      "t": 233831.49899999963,
      "d": 280.37349999998696,
      "v": 95
    },
    {
      "midi": 60,
      "hit": false,
      "t": 234111.87249999962,
      "d": 280.37349999998696,
      "v": 95
    },
    {
      "midi": 63,
      "hit": false,
      "t": 234392.2459999996,
      "d": 280.37349999998696,
      "v": 95
    },
    {
      "midi": 67,
      "hit": false,
      "t": 234672.6194999996,
      "d": 280.37349999998696,
      "v": 95
    },
    {
      "midi": 60,
      "hit": false,
      "t": 234952.99299999958,
      "d": 280.37349999998696,
      "v": 95
    },
    {
      "midi": 67,
      "hit": false,
      "t": 235233.36649999957,
      "d": 280.37349999998696,
      "v": 95
    },
    {
      "midi": 62,
      "hit": false,
      "t": 235513.73999999955,
      "d": 280.37349999998696,
      "v": 95
    },
    {
      "midi": 66,
      "hit": false,
      "t": 235794.11349999954,
      "d": 280.37349999998696,
      "v": 95
    },
    {
      "midi": 67,
      "hit": false,
      "t": 236074.48699999953,
      "d": 280.37349999998696,
      "v": 95
    },
    {
      "midi": 62,
      "hit": false,
      "t": 236354.86049999952,
      "d": 280.37349999998696,
      "v": 95
    },
    {
      "midi": 66,
      "hit": false,
      "t": 236635.2339999995,
      "d": 280.37349999998696,
      "v": 95
    },
    {
      "midi": 67,
      "hit": false,
      "t": 236915.6074999995,
      "d": 280.37349999998696,
      "v": 95
    },
    {
      "midi": 62,
      "hit": false,
      "t": 237195.98099999948,
      "d": 280.37349999998696,
      "v": 95
    },
    {
      "midi": 67,
      "hit": false,
      "t": 237476.35449999946,
      "d": 280.37349999998696,
      "v": 95
    },
    {
      "midi": 60,
      "hit": false,
      "t": 237756.72799999945,
      "d": 280.37349999998696,
      "v": 95
    },
    {
      "midi": 63,
      "hit": false,
      "t": 238037.10149999944,
      "d": 280.37349999998696,
      "v": 95
    },
    {
      "midi": 67,
      "hit": false,
      "t": 238317.47499999942,
      "d": 280.37349999998696,
      "v": 95
    },
    {
      "midi": 60,
      "hit": false,
      "t": 238597.8484999994,
      "d": 280.37349999998696,
      "v": 95
    },
    {
      "midi": 63,
      "hit": false,
      "t": 238878.2219999994,
      "d": 280.37349999998696,
      "v": 95
    },
    {
      "midi": 67,
      "hit": false,
      "t": 239158.59549999938,
      "d": 280.37349999998696,
      "v": 95
    },
    {
      "midi": 60,
      "hit": false,
      "t": 239438.96899999937,
      "d": 280.37349999998696,
      "v": 95
    },
    {
      "midi": 67,
      "hit": false,
      "t": 239719.34249999936,
      "d": 280.37349999998696,
      "v": 95
    },
    {
      "midi": 62,
      "hit": false,
      "t": 239999.71599999935,
      "d": 280.37349999998696,
      "v": 95
    },
    {
      "midi": 63,
      "hit": false,
      "t": 240280.08949999933,
      "d": 280.37349999998696,
      "v": 95
    },
    {
      "midi": 67,
      "hit": false,
      "t": 240560.46299999932,
      "d": 280.37349999998696,
      "v": 95
    },
    {
      "midi": 62,
      "hit": false,
      "t": 240840.8364999993,
      "d": 280.37349999998696,
      "v": 95
    },
    {
      "midi": 63,
      "hit": false,
      "t": 241121.2099999993,
      "d": 280.37349999998696,
      "v": 95
    },
    {
      "midi": 67,
      "hit": false,
      "t": 241401.58349999928,
      "d": 280.37349999998696,
      "v": 95
    },
    {
      "midi": 62,
      "hit": false,
      "t": 241681.95699999927,
      "d": 280.37349999998696,
      "v": 95
    },
    {
      "midi": 67,
      "hit": false,
      "t": 241962.33049999925,
      "d": 280.37349999998696,
      "v": 95
    },
    {
      "midi": 60,
      "hit": false,
      "t": 242242.70399999924,
      "d": 280.37349999998696,
      "v": 95
    },
    {
      "midi": 63,
      "hit": false,
      "t": 242523.07749999923,
      "d": 280.37349999998696,
      "v": 95
    },
    {
      "midi": 67,
      "hit": false,
      "t": 242803.45099999922,
      "d": 280.37349999998696,
      "v": 95
    },
    {
      "midi": 60,
      "hit": false,
      "t": 243083.8244999992,
      "d": 280.37349999998696,
      "v": 95
    },
    {
      "midi": 63,
      "hit": false,
      "t": 243364.1979999992,
      "d": 280.37349999998696,
      "v": 95
    },
    {
      "midi": 67,
      "hit": false,
      "t": 243644.57149999918,
      "d": 280.37349999998696,
      "v": 95
    },
    {
      "midi": 60,
      "hit": false,
      "t": 243924.94499999916,
      "d": 280.37349999998696,
      "v": 95
    },
    {
      "midi": 67,
      "hit": false,
      "t": 244205.31849999915,
      "d": 280.37349999998696,
      "v": 95
    },
    {
      "midi": 62,
      "hit": false,
      "t": 244485.69199999914,
      "d": 280.37349999998696,
      "v": 95
    },
    {
      "midi": 66,
      "hit": false,
      "t": 244766.06549999912,
      "d": 280.37349999998696,
      "v": 95
    },
    {
      "midi": 67,
      "hit": false,
      "t": 245046.4389999991,
      "d": 280.37349999998696,
      "v": 95
    },
    {
      "midi": 62,
      "hit": false,
      "t": 245326.8124999991,
      "d": 280.37349999998696,
      "v": 95
    },
    {
      "midi": 66,
      "hit": false,
      "t": 245607.18599999908,
      "d": 280.37349999998696,
      "v": 95
    },
    {
      "midi": 67,
      "hit": false,
      "t": 245887.55949999907,
      "d": 280.37349999998696,
      "v": 95
    },
    {
      "midi": 62,
      "hit": false,
      "t": 246167.93299999906,
      "d": 280.37349999998696,
      "v": 95
    },
    {
      "midi": 67,
      "hit": false,
      "t": 246448.30649999905,
      "d": 280.37349999998696,
      "v": 95
    },
    {
      "midi": 43,
      "hit": false,
      "t": 307289.35599999904,
      "d": 186.91566666663857,
      "v": 50
    },
    {
      "midi": 48,
      "hit": false,
      "t": 307476.2716666657,
      "d": 186.91566666663857,
      "v": 50
    },
    {
      "midi": 55,
      "hit": false,
      "t": 307663.1873333323,
      "d": 186.91566666663857,
      "v": 50
    },
    {
      "midi": 60,
      "hit": false,
      "t": 307850.10299999896,
      "d": 186.91566666663857,
      "v": 95
    },
    {
      "midi": 64,
      "hit": false,
      "t": 308037.0186666656,
      "d": 186.91566666663857,
      "v": 95
    },
    {
      "midi": 67,
      "hit": false,
      "t": 308223.93433333223,
      "d": 186.91566666663857,
      "v": 95
    },
    {
      "midi": 45,
      "hit": false,
      "t": 308410.84999999887,
      "d": 186.91566666663857,
      "v": 50
    },
    {
      "midi": 50,
      "hit": false,
      "t": 308597.7656666655,
      "d": 186.91566666663857,
      "v": 50
    },
    {
      "midi": 57,
      "hit": false,
      "t": 308784.68133333215,
      "d": 186.91566666663857,
      "v": 50
    },
    {
      "midi": 62,
      "hit": false,
      "t": 308971.5969999988,
      "d": 186.91566666663857,
      "v": 95
    },
    {
      "midi": 66,
      "hit": false,
      "t": 309158.5126666654,
      "d": 186.91566666663857,
      "v": 95
    },
    {
      "midi": 69,
      "hit": false,
      "t": 309345.42833333206,
      "d": 186.91566666663857,
      "v": 95
    },
    {
      "midi": 47,
      "hit": false,
      "t": 309532.3439999987,
      "d": 186.91566666663857,
      "v": 50
    },
    {
      "midi": 52,
      "hit": false,
      "t": 309719.25966666534,
      "d": 186.91566666663857,
      "v": 50
    },
    {
      "midi": 59,
      "hit": false,
      "t": 309906.175333332,
      "d": 186.91566666663857,
      "v": 50
    },
    {
      "midi": 66,
      "hit": false,
      "t": 310093.0909999986,
      "d": 560.7469999999739,
      "v": 95
    },
    {
      "midi": 67,
      "hit": false,
      "t": 310653.8379999986,
      "d": 560.7469999999739,
      "v": 95
    },
    {
      "midi": 66,
      "hit": false,
      "t": 311214.58499999857,
      "d": 373.83133333333535,
      "v": 95
    },
    {
      "midi": 64,
      "hit": false,
      "t": 311588.4163333319,
      "d": 186.91566666663857,
      "v": 95
    },
    {
      "midi": 43,
      "hit": false,
      "t": 311775.33199999854,
      "d": 186.91566666663857,
      "v": 50
    },
    {
      "midi": 48,
      "hit": false,
      "t": 311962.2476666652,
      "d": 186.91566666663857,
      "v": 50
    },
    {
      "midi": 55,
      "hit": false,
      "t": 312149.1633333318,
      "d": 186.91566666663857,
      "v": 50
    },
    {
      "midi": 60,
      "hit": false,
      "t": 312336.07899999846,
      "d": 186.91566666663857,
      "v": 95
    },
    {
      "midi": 64,
      "hit": false,
      "t": 312522.9946666651,
      "d": 186.91566666663857,
      "v": 95
    },
    {
      "midi": 67,
      "hit": false,
      "t": 312709.91033333173,
      "d": 186.91566666663857,
      "v": 95
    },
    {
      "midi": 45,
      "hit": false,
      "t": 312896.8259999984,
      "d": 186.91566666663857,
      "v": 50
    },
    {
      "midi": 50,
      "hit": false,
      "t": 313083.741666665,
      "d": 186.91566666663857,
      "v": 50
    },
    {
      "midi": 57,
      "hit": false,
      "t": 313270.65733333165,
      "d": 186.91566666663857,
      "v": 50
    },
    {
      "midi": 62,
      "hit": false,
      "t": 313457.5729999983,
      "d": 186.91566666663857,
      "v": 95
    },
    {
      "midi": 66,
      "hit": false,
      "t": 313644.4886666649,
      "d": 186.91566666663857,
      "v": 95
    },
    {
      "midi": 69,
      "hit": false,
      "t": 313831.40433333156,
      "d": 186.91566666663857,
      "v": 95
    },
    {
      "midi": 47,
      "hit": false,
      "t": 314018.3199999982,
      "d": 186.91566666663857,
      "v": 50
    },
    {
      "midi": 52,
      "hit": false,
      "t": 314205.23566666484,
      "d": 186.91566666663857,
      "v": 50
    },
    {
      "midi": 59,
      "hit": false,
      "t": 314392.1513333315,
      "d": 186.91566666663857,
      "v": 50
    },
    {
      "midi": 66,
      "hit": false,
      "t": 314579.0669999981,
      "d": 560.7469999999739,
      "v": 95
    },
    {
      "midi": 67,
      "hit": false,
      "t": 315139.8139999981,
      "d": 560.7469999999739,
      "v": 95
    },
    {
      "midi": 66,
      "hit": false,
      "t": 315700.56099999807,
      "d": 373.83133333333535,
      "v": 95
    },
    {
      "midi": 64,
      "hit": false,
      "t": 316074.3923333314,
      "d": 186.91566666663857,
      "v": 95
    },
    {
      "midi": 43,
      "hit": false,
      "t": 316261.30799999804,
      "d": 186.91566666663857,
      "v": 95
    },
    {
      "midi": 48,
      "hit": false,
      "t": 316448.2236666647,
      "d": 186.91566666663857,
      "v": 95
    },
    {
      "midi": 55,
      "hit": false,
      "t": 316635.1393333313,
      "d": 186.91566666663857,
      "v": 95
    },
    {
      "midi": 60,
      "hit": false,
      "t": 316822.05499999796,
      "d": 186.91566666663857,
      "v": 95
    },
    {
      "midi": 64,
      "hit": false,
      "t": 317008.9706666646,
      "d": 186.91566666663857,
      "v": 95
    },
    {
      "midi": 67,
      "hit": false,
      "t": 317195.88633333123,
      "d": 186.91566666663857,
      "v": 95
    },
    {
      "midi": 45,
      "hit": false,
      "t": 317382.8019999979,
      "d": 186.91566666663857,
      "v": 95
    },
    {
      "midi": 50,
      "hit": false,
      "t": 317569.7176666645,
      "d": 186.91566666663857,
      "v": 95
    },
    {
      "midi": 57,
      "hit": false,
      "t": 317756.63333333115,
      "d": 186.91566666663857,
      "v": 95
    },
    {
      "midi": 62,
      "hit": false,
      "t": 317943.5489999978,
      "d": 186.91566666663857,
      "v": 95
    },
    {
      "midi": 66,
      "hit": false,
      "t": 318130.4646666644,
      "d": 186.91566666663857,
      "v": 95
    },
    {
      "midi": 69,
      "hit": false,
      "t": 318317.38033333106,
      "d": 186.91566666663857,
      "v": 95
    },
    {
      "midi": 47,
      "hit": false,
      "t": 318504.2959999977,
      "d": 186.91566666663857,
      "v": 95
    },
    {
      "midi": 52,
      "hit": false,
      "t": 318691.21166666434,
      "d": 186.91566666663857,
      "v": 95
    },
    {
      "midi": 59,
      "hit": false,
      "t": 318878.127333331,
      "d": 186.91566666663857,
      "v": 95
    },
    {
      "midi": 66,
      "hit": false,
      "t": 319065.0429999976,
      "d": 560.7469999999739,
      "v": 95
    },
    {
      "midi": 67,
      "hit": false,
      "t": 319625.7899999976,
      "d": 560.7469999999739,
      "v": 95
    },
    {
      "midi": 66,
      "hit": false,
      "t": 320186.53699999757,
      "d": 373.83133333333535,
      "v": 95
    },
    {
      "midi": 64,
      "hit": false,
      "t": 320560.3683333309,
      "d": 186.91566666663857,
      "v": 95
    },
    {
      "midi": 43,
      "hit": false,
      "t": 320747.28399999754,
      "d": 186.91566666663857,
      "v": 95
    },
    {
      "midi": 48,
      "hit": false,
      "t": 320934.1996666642,
      "d": 186.91566666663857,
      "v": 95
    },
    {
      "midi": 55,
      "hit": false,
      "t": 321121.1153333308,
      "d": 186.91566666663857,
      "v": 95
    },
    {
      "midi": 60,
      "hit": false,
      "t": 321308.03099999746,
      "d": 186.91566666663857,
      "v": 95
    },
    {
      "midi": 64,
      "hit": false,
      "t": 321494.9466666641,
      "d": 186.91566666663857,
      "v": 95
    },
    {
      "midi": 67,
      "hit": false,
      "t": 321681.86233333073,
      "d": 186.91566666663857,
      "v": 95
    },
    {
      "midi": 45,
      "hit": false,
      "t": 321868.7779999974,
      "d": 186.91566666663857,
      "v": 95
    },
    {
      "midi": 50,
      "hit": false,
      "t": 322055.693666664,
      "d": 186.91566666663857,
      "v": 95
    },
    {
      "midi": 57,
      "hit": false,
      "t": 322242.60933333065,
      "d": 186.91566666663857,
      "v": 95
    },
    {
      "midi": 62,
      "hit": false,
      "t": 322429.5249999973,
      "d": 186.91566666663857,
      "v": 95
    },
    {
      "midi": 66,
      "hit": false,
      "t": 322616.4406666639,
      "d": 186.91566666663857,
      "v": 95
    },
    {
      "midi": 69,
      "hit": false,
      "t": 322803.35633333056,
      "d": 186.91566666663857,
      "v": 95
    },
    {
      "midi": 47,
      "hit": false,
      "t": 322990.2719999972,
      "d": 186.91566666663857,
      "v": 95
    },
    {
      "midi": 52,
      "hit": false,
      "t": 323177.18766666384,
      "d": 186.91566666663857,
      "v": 95
    },
    {
      "midi": 59,
      "hit": false,
      "t": 323364.1033333305,
      "d": 186.91566666663857,
      "v": 95
    },
    {
      "midi": 66,
      "hit": false,
      "t": 323551.0189999971,
      "d": 560.7469999999739,
      "v": 95
    },
    {
      "midi": 67,
      "hit": false,
      "t": 324111.7659999971,
      "d": 560.7469999999739,
      "v": 95
    },
    {
      "midi": 66,
      "hit": false,
      "t": 324672.51299999707,
      "d": 373.83133333333535,
      "v": 95
    },
    {
      "midi": 64,
      "hit": false,
      "t": 325046.3443333304,
      "d": 186.91566666663857,
      "v": 95
    },
    {
      "midi": 43,
      "hit": false,
      "t": 325233.25999999704,
      "d": 186.91566666663857,
      "v": 95
    },
    {
      "midi": 48,
      "hit": false,
      "t": 325420.1756666637,
      "d": 186.91566666663857,
      "v": 95
    },
    {
      "midi": 55,
      "hit": false,
      "t": 325607.0913333303,
      "d": 186.91566666663857,
      "v": 95
    },
    {
      "midi": 60,
      "hit": false,
      "t": 325794.00699999696,
      "d": 186.91566666663857,
      "v": 95
    },
    {
      "midi": 64,
      "hit": false,
      "t": 325980.9226666636,
      "d": 186.91566666663857,
      "v": 95
    },
    {
      "midi": 67,
      "hit": false,
      "t": 326167.83833333023,
      "d": 186.91566666663857,
      "v": 95
    },
    {
      "midi": 45,
      "hit": false,
      "t": 326354.7539999969,
      "d": 186.91566666663857,
      "v": 95
    },
    {
      "midi": 50,
      "hit": false,
      "t": 326541.6696666635,
      "d": 186.91566666663857,
      "v": 95
    },
    {
      "midi": 57,
      "hit": false,
      "t": 326728.58533333015,
      "d": 186.91566666663857,
      "v": 95
    },
    {
      "midi": 62,
      "hit": false,
      "t": 326915.5009999968,
      "d": 186.91566666663857,
      "v": 95
    },
    {
      "midi": 66,
      "hit": false,
      "t": 327102.4166666634,
      "d": 186.91566666663857,
      "v": 95
    },
    {
      "midi": 69,
      "hit": false,
      "t": 327289.33233333007,
      "d": 186.91566666663857,
      "v": 95
    },
    {
      "midi": 47,
      "hit": false,
      "t": 327476.2479999967,
      "d": 186.91566666663857,
      "v": 95
    },
    {
      "midi": 52,
      "hit": false,
      "t": 327663.16366666334,
      "d": 186.91566666663857,
      "v": 95
    },
    {
      "midi": 59,
      "hit": false,
      "t": 327850.07933333,
      "d": 186.91566666663857,
      "v": 95
    },
    {
      "midi": 66,
      "hit": false,
      "t": 328036.9949999966,
      "d": 560.7469999999739,
      "v": 95
    },
    {
      "midi": 67,
      "hit": false,
      "t": 328597.7419999966,
      "d": 560.7469999999739,
      "v": 95
    },
    {
      "midi": 66,
      "hit": false,
      "t": 329158.48899999657,
      "d": 373.83133333333535,
      "v": 95
    },
    {
      "midi": 64,
      "hit": false,
      "t": 329532.3203333299,
      "d": 186.91566666663857,
      "v": 95
    },
    {
      "midi": 43,
      "hit": false,
      "t": 329719.23599999654,
      "d": 186.91566666663857,
      "v": 95
    },
    {
      "midi": 48,
      "hit": false,
      "t": 329906.1516666632,
      "d": 186.91566666663857,
      "v": 95
    },
    {
      "midi": 55,
      "hit": false,
      "t": 330093.0673333298,
      "d": 186.91566666663857,
      "v": 95
    },
    {
      "midi": 60,
      "hit": false,
      "t": 330279.98299999646,
      "d": 186.91566666663857,
      "v": 95
    },
    {
      "midi": 64,
      "hit": false,
      "t": 330466.8986666631,
      "d": 186.91566666663857,
      "v": 95
    },
    {
      "midi": 67,
      "hit": false,
      "t": 330653.81433332973,
      "d": 186.91566666663857,
      "v": 95
    },
    {
      "midi": 45,
      "hit": false,
      "t": 330840.7299999964,
      "d": 186.91566666663857,
      "v": 95
    },
    {
      "midi": 50,
      "hit": false,
      "t": 331027.645666663,
      "d": 186.91566666663857,
      "v": 95
    },
    {
      "midi": 57,
      "hit": false,
      "t": 331214.56133332965,
      "d": 186.91566666663857,
      "v": 95
    },
    {
      "midi": 62,
      "hit": false,
      "t": 331401.4769999963,
      "d": 186.91566666663857,
      "v": 95
    },
    {
      "midi": 66,
      "hit": false,
      "t": 331588.3926666629,
      "d": 186.91566666663857,
      "v": 95
    },
    {
      "midi": 69,
      "hit": false,
      "t": 331775.30833332957,
      "d": 186.91566666663857,
      "v": 95
    },
    {
      "midi": 47,
      "hit": false,
      "t": 331962.2239999962,
      "d": 186.91566666663857,
      "v": 95
    },
    {
      "midi": 52,
      "hit": false,
      "t": 332149.13966666284,
      "d": 186.91566666663857,
      "v": 95
    },
    {
      "midi": 59,
      "hit": false,
      "t": 332336.0553333295,
      "d": 186.91566666663857,
      "v": 95
    },
    {
      "midi": 66,
      "hit": false,
      "t": 332522.9709999961,
      "d": 560.7469999999739,
      "v": 95
    },
    {
      "midi": 67,
      "hit": false,
      "t": 333083.7179999961,
      "d": 560.7469999999739,
      "v": 95
    },
    {
      "midi": 66,
      "hit": false,
      "t": 333644.46499999607,
      "d": 373.83133333333535,
      "v": 95
    },
    {
      "midi": 64,
      "hit": false,
      "t": 334018.2963333294,
      "d": 186.91566666663857,
      "v": 95
    },
    {
      "midi": 43,
      "hit": false,
      "t": 334205.21199999604,
      "d": 186.91566666663857,
      "v": 95
    },
    {
      "midi": 48,
      "hit": false,
      "t": 334392.1276666627,
      "d": 186.91566666663857,
      "v": 95
    },
    {
      "midi": 55,
      "hit": false,
      "t": 334579.0433333293,
      "d": 186.91566666663857,
      "v": 95
    },
    {
      "midi": 60,
      "hit": false,
      "t": 334765.95899999596,
      "d": 186.91566666663857,
      "v": 95
    },
    {
      "midi": 64,
      "hit": false,
      "t": 334952.8746666626,
      "d": 186.91566666663857,
      "v": 95
    },
    {
      "midi": 67,
      "hit": false,
      "t": 335139.79033332923,
      "d": 186.91566666663857,
      "v": 95
    },
    {
      "midi": 45,
      "hit": false,
      "t": 335326.7059999959,
      "d": 186.91566666663857,
      "v": 95
    },
    {
      "midi": 50,
      "hit": false,
      "t": 335513.6216666625,
      "d": 186.91566666663857,
      "v": 95
    },
    {
      "midi": 57,
      "hit": false,
      "t": 335700.53733332915,
      "d": 186.91566666663857,
      "v": 95
    },
    {
      "midi": 62,
      "hit": false,
      "t": 335887.4529999958,
      "d": 186.91566666663857,
      "v": 95
    },
    {
      "midi": 66,
      "hit": false,
      "t": 336074.3686666624,
      "d": 186.91566666663857,
      "v": 95
    },
    {
      "midi": 69,
      "hit": false,
      "t": 336261.28433332907,
      "d": 186.91566666663857,
      "v": 95
    },
    {
      "midi": 47,
      "hit": false,
      "t": 336448.1999999957,
      "d": 186.91566666663857,
      "v": 95
    },
    {
      "midi": 52,
      "hit": false,
      "t": 336635.11566666234,
      "d": 186.91566666663857,
      "v": 95
    },
    {
      "midi": 59,
      "hit": false,
      "t": 336822.031333329,
      "d": 186.91566666663857,
      "v": 95
    },
    {
      "midi": 66,
      "hit": false,
      "t": 337008.9469999956,
      "d": 560.7469999999739,
      "v": 95
    },
    {
      "midi": 67,
      "hit": false,
      "t": 337569.6939999956,
      "d": 560.7469999999739,
      "v": 95
    },
    {
      "midi": 66,
      "hit": false,
      "t": 338130.44099999557,
      "d": 373.83133333333535,
      "v": 95
    },
    {
      "midi": 64,
      "hit": false,
      "t": 338504.2723333289,
      "d": 186.91566666663857,
      "v": 95
    },
    {
      "midi": 43,
      "hit": false,
      "t": 338691.18799999554,
      "d": 186.91566666663857,
      "v": 95
    },
    {
      "midi": 48,
      "hit": false,
      "t": 338878.1036666622,
      "d": 186.91566666663857,
      "v": 95
    },
    {
      "midi": 55,
      "hit": false,
      "t": 339065.0193333288,
      "d": 186.91566666663857,
      "v": 95
    },
    {
      "midi": 60,
      "hit": false,
      "t": 339251.93499999546,
      "d": 186.91566666663857,
      "v": 95
    },
    {
      "midi": 64,
      "hit": false,
      "t": 339438.8506666621,
      "d": 186.91566666663857,
      "v": 95
    },
    {
      "midi": 67,
      "hit": false,
      "t": 339625.76633332873,
      "d": 186.91566666663857,
      "v": 95
    },
    {
      "midi": 45,
      "hit": false,
      "t": 339812.6819999954,
      "d": 186.91566666663857,
      "v": 95
    },
    {
      "midi": 50,
      "hit": false,
      "t": 339999.597666662,
      "d": 186.91566666663857,
      "v": 95
    },
    {
      "midi": 57,
      "hit": false,
      "t": 340186.51333332865,
      "d": 186.91566666663857,
      "v": 95
    },
    {
      "midi": 62,
      "hit": false,
      "t": 340373.4289999953,
      "d": 186.91566666663857,
      "v": 95
    },
    {
      "midi": 66,
      "hit": false,
      "t": 340560.3446666619,
      "d": 186.91566666663857,
      "v": 95
    },
    {
      "midi": 69,
      "hit": false,
      "t": 340747.26033332857,
      "d": 186.91566666663857,
      "v": 95
    },
    {
      "midi": 47,
      "hit": false,
      "t": 340934.1759999952,
      "d": 186.91566666663857,
      "v": 95
    },
    {
      "midi": 52,
      "hit": false,
      "t": 341121.09166666184,
      "d": 186.91566666663857,
      "v": 95
    },
    {
      "midi": 59,
      "hit": false,
      "t": 341308.0073333285,
      "d": 186.91566666663857,
      "v": 95
    },
    {
      "midi": 66,
      "hit": false,
      "t": 341494.9229999951,
      "d": 560.7469999999739,
      "v": 95
    },
    {
      "midi": 67,
      "hit": false,
      "t": 342055.6699999951,
      "d": 560.7469999999739,
      "v": 95
    },
    {
      "midi": 66,
      "hit": false,
      "t": 342616.41699999507,
      "d": 373.83133333333535,
      "v": 95
    },
    {
      "midi": 64,
      "hit": false,
      "t": 342990.2483333284,
      "d": 186.91566666663857,
      "v": 95
    },
    {
      "midi": 43,
      "hit": false,
      "t": 343177.16399999504,
      "d": 186.91566666663857,
      "v": 95
    },
    {
      "midi": 48,
      "hit": false,
      "t": 343364.0796666617,
      "d": 186.91566666663857,
      "v": 95
    },
    {
      "midi": 55,
      "hit": false,
      "t": 343550.9953333283,
      "d": 186.91566666663857,
      "v": 95
    },
    {
      "midi": 60,
      "hit": false,
      "t": 343737.91099999496,
      "d": 186.91566666663857,
      "v": 95
    },
    {
      "midi": 64,
      "hit": false,
      "t": 343924.8266666616,
      "d": 186.91566666663857,
      "v": 95
    },
    {
      "midi": 67,
      "hit": false,
      "t": 344111.74233332823,
      "d": 186.91566666663857,
      "v": 95
    },
    {
      "midi": 45,
      "hit": false,
      "t": 344298.6579999949,
      "d": 186.91566666663857,
      "v": 95
    },
    {
      "midi": 50,
      "hit": false,
      "t": 344485.5736666615,
      "d": 186.91566666663857,
      "v": 95
    },
    {
      "midi": 57,
      "hit": false,
      "t": 344672.48933332815,
      "d": 186.91566666663857,
      "v": 95
    },
    {
      "midi": 62,
      "hit": false,
      "t": 344859.4049999948,
      "d": 186.91566666663857,
      "v": 95
    },
    {
      "midi": 66,
      "hit": false,
      "t": 345046.3206666614,
      "d": 186.91566666663857,
      "v": 95
    },
    {
      "midi": 69,
      "hit": false,
      "t": 345233.23633332807,
      "d": 186.91566666663857,
      "v": 95
    },
    {
      "midi": 47,
      "hit": false,
      "t": 345420.1519999947,
      "d": 186.91566666663857,
      "v": 95
    },
    {
      "midi": 52,
      "hit": false,
      "t": 345607.06766666134,
      "d": 186.91566666663857,
      "v": 95
    },
    {
      "midi": 59,
      "hit": false,
      "t": 345793.983333328,
      "d": 186.91566666663857,
      "v": 95
    },
    {
      "midi": 66,
      "hit": false,
      "t": 345980.8989999946,
      "d": 560.7469999999739,
      "v": 95
    },
    {
      "midi": 67,
      "hit": false,
      "t": 346541.6459999946,
      "d": 560.7469999999739,
      "v": 95
    },
    {
      "midi": 66,
      "hit": false,
      "t": 347102.39299999457,
      "d": 373.83133333333535,
      "v": 95
    },
    {
      "midi": 64,
      "hit": false,
      "t": 347476.2243333279,
      "d": 186.91566666663857,
      "v": 95
    },
    {
      "midi": 43,
      "hit": false,
      "t": 347663.13999999454,
      "d": 186.91566666663857,
      "v": 95
    },
    {
      "midi": 48,
      "hit": false,
      "t": 347850.0556666612,
      "d": 186.91566666663857,
      "v": 95
    },
    {
      "midi": 55,
      "hit": false,
      "t": 348036.9713333278,
      "d": 186.91566666663857,
      "v": 95
    },
    {
      "midi": 60,
      "hit": false,
      "t": 348223.88699999446,
      "d": 186.91566666663857,
      "v": 95
    },
    {
      "midi": 64,
      "hit": false,
      "t": 348410.8026666611,
      "d": 186.91566666663857,
      "v": 95
    },
    {
      "midi": 67,
      "hit": false,
      "t": 348597.71833332774,
      "d": 186.91566666663857,
      "v": 95
    },
    {
      "midi": 45,
      "hit": false,
      "t": 348784.6339999944,
      "d": 186.91566666663857,
      "v": 95
    },
    {
      "midi": 50,
      "hit": false,
      "t": 348971.549666661,
      "d": 186.91566666663857,
      "v": 95
    },
    {
      "midi": 57,
      "hit": false,
      "t": 349158.46533332765,
      "d": 186.91566666663857,
      "v": 95
    },
    {
      "midi": 62,
      "hit": false,
      "t": 349345.3809999943,
      "d": 186.91566666663857,
      "v": 95
    },
    {
      "midi": 66,
      "hit": false,
      "t": 349532.2966666609,
      "d": 186.91566666663857,
      "v": 95
    },
    {
      "midi": 69,
      "hit": false,
      "t": 349719.21233332757,
      "d": 186.91566666663857,
      "v": 95
    },
    {
      "midi": 47,
      "hit": false,
      "t": 349906.1279999942,
      "d": 186.91566666663857,
      "v": 95
    },
    {
      "midi": 52,
      "hit": false,
      "t": 350093.04366666084,
      "d": 186.91566666663857,
      "v": 95
    },
    {
      "midi": 59,
      "hit": false,
      "t": 350279.9593333275,
      "d": 186.91566666663857,
      "v": 95
    },
    {
      "midi": 66,
      "hit": false,
      "t": 350466.8749999941,
      "d": 560.7469999999739,
      "v": 95
    },
    {
      "midi": 67,
      "hit": false,
      "t": 351027.6219999941,
      "d": 560.7469999999739,
      "v": 95
    },
    {
      "midi": 66,
      "hit": false,
      "t": 351588.36899999407,
      "d": 373.83133333333535,
      "v": 95
    },
    {
      "midi": 64,
      "hit": false,
      "t": 351962.2003333274,
      "d": 186.91566666663857,
      "v": 95
    },
    {
      "midi": 43,
      "hit": false,
      "t": 352149.11599999404,
      "d": 186.91566666663857,
      "v": 95
    },
    {
      "midi": 48,
      "hit": false,
      "t": 352336.0316666607,
      "d": 186.91566666663857,
      "v": 95
    },
    {
      "midi": 55,
      "hit": false,
      "t": 352522.9473333273,
      "d": 186.91566666663857,
      "v": 95
    },
    {
      "midi": 60,
      "hit": false,
      "t": 352709.86299999396,
      "d": 186.91566666663857,
      "v": 95
    },
    {
      "midi": 64,
      "hit": false,
      "t": 352896.7786666606,
      "d": 186.91566666663857,
      "v": 95
    },
    {
      "midi": 67,
      "hit": false,
      "t": 353083.69433332724,
      "d": 186.91566666663857,
      "v": 95
    },
    {
      "midi": 45,
      "hit": false,
      "t": 353270.6099999939,
      "d": 186.91566666663857,
      "v": 95
    },
    {
      "midi": 50,
      "hit": false,
      "t": 353457.5256666605,
      "d": 186.91566666663857,
      "v": 95
    },
    {
      "midi": 57,
      "hit": false,
      "t": 353644.44133332715,
      "d": 186.91566666663857,
      "v": 95
    },
    {
      "midi": 62,
      "hit": false,
      "t": 353831.3569999938,
      "d": 186.91566666663857,
      "v": 95
    },
    {
      "midi": 66,
      "hit": false,
      "t": 354018.2726666604,
      "d": 186.91566666663857,
      "v": 95
    },
    {
      "midi": 69,
      "hit": false,
      "t": 354205.18833332707,
      "d": 186.91566666663857,
      "v": 95
    },
    {
      "midi": 47,
      "hit": false,
      "t": 354392.1039999937,
      "d": 186.91566666663857,
      "v": 95
    },
    {
      "midi": 52,
      "hit": false,
      "t": 354579.01966666034,
      "d": 186.91566666663857,
      "v": 95
    },
    {
      "midi": 59,
      "hit": false,
      "t": 354765.935333327,
      "d": 186.91566666663857,
      "v": 95
    },
    {
      "midi": 66,
      "hit": false,
      "t": 354952.8509999936,
      "d": 560.7469999999739,
      "v": 95
    },
    {
      "midi": 67,
      "hit": false,
      "t": 355513.5979999936,
      "d": 560.7469999999739,
      "v": 95
    },
    {
      "midi": 66,
      "hit": false,
      "t": 356074.34499999357,
      "d": 373.83133333333535,
      "v": 95
    },
    {
      "midi": 64,
      "hit": false,
      "t": 356448.1763333269,
      "d": 186.91566666663857,
      "v": 95
    },
    {
      "midi": 43,
      "hit": false,
      "t": 356635.09199999354,
      "d": 186.91566666663857,
      "v": 95
    },
    {
      "midi": 48,
      "hit": false,
      "t": 356822.0076666602,
      "d": 186.91566666663857,
      "v": 95
    },
    {
      "midi": 55,
      "hit": false,
      "t": 357008.9233333268,
      "d": 186.91566666663857,
      "v": 95
    },
    {
      "midi": 60,
      "hit": false,
      "t": 357195.83899999346,
      "d": 186.91566666663857,
      "v": 95
    },
    {
      "midi": 64,
      "hit": false,
      "t": 357382.7546666601,
      "d": 186.91566666663857,
      "v": 95
    },
    {
      "midi": 67,
      "hit": false,
      "t": 357569.67033332674,
      "d": 186.91566666663857,
      "v": 95
    },
    {
      "midi": 45,
      "hit": false,
      "t": 357756.5859999934,
      "d": 186.91566666663857,
      "v": 95
    },
    {
      "midi": 50,
      "hit": false,
      "t": 357943.50166666,
      "d": 186.91566666663857,
      "v": 95
    },
    {
      "midi": 57,
      "hit": false,
      "t": 358130.41733332665,
      "d": 186.91566666663857,
      "v": 95
    },
    {
      "midi": 62,
      "hit": false,
      "t": 358317.3329999933,
      "d": 186.91566666663857,
      "v": 95
    },
    {
      "midi": 66,
      "hit": false,
      "t": 358504.2486666599,
      "d": 186.91566666663857,
      "v": 95
    },
    {
      "midi": 69,
      "hit": false,
      "t": 358691.16433332657,
      "d": 186.91566666663857,
      "v": 95
    },
    {
      "midi": 47,
      "hit": false,
      "t": 358878.0799999932,
      "d": 186.91566666663857,
      "v": 95
    },
    {
      "midi": 52,
      "hit": false,
      "t": 359064.99566665984,
      "d": 186.91566666663857,
      "v": 95
    },
    {
      "midi": 59,
      "hit": false,
      "t": 359251.9113333265,
      "d": 186.91566666663857,
      "v": 95
    },
    {
      "midi": 59,
      "hit": false,
      "t": 359438.8269999931,
      "d": 3925.228999999992,
      "v": 95
    },
    {
      "midi": 64,
      "hit": false,
      "t": 359438.8269999931,
      "d": 3925.228999999992,
      "v": 95
    },
    {
      "midi": 83,
      "hit": false,
      "t": 439625.6479999931,
      "d": 1121.494000000006,
      "v": 95
    },
    {
      "midi": 79,
      "hit": false,
      "t": 440747.1419999931,
      "d": 1121.494000000006,
      "v": 95
    },
    {
      "midi": 83,
      "hit": false,
      "t": 441868.63599999313,
      "d": 1121.494000000006,
      "v": 95
    },
    {
      "midi": 79,
      "hit": false,
      "t": 442990.12999999314,
      "d": 560.7469999999739,
      "v": 95
    },
    {
      "midi": 86,
      "hit": false,
      "t": 443550.8769999931,
      "d": 560.7469999999739,
      "v": 95
    },
    {
      "midi": 84,
      "hit": false,
      "t": 444111.6239999931,
      "d": 1121.494000000006,
      "v": 95
    },
    {
      "midi": 81,
      "hit": false,
      "t": 445233.1179999931,
      "d": 1121.494000000006,
      "v": 95
    },
    {
      "midi": 84,
      "hit": false,
      "t": 446354.6119999931,
      "d": 1121.494000000006,
      "v": 95
    },
    {
      "midi": 81,
      "hit": false,
      "t": 447476.1059999931,
      "d": 280.37349999998696,
      "v": 95
    },
    {
      "midi": 83,
      "hit": false,
      "t": 447756.4794999931,
      "d": 280.37349999998696,
      "v": 95
    },
    {
      "midi": 84,
      "hit": false,
      "t": 448036.8529999931,
      "d": 560.7469999999739,
      "v": 95
    },
    {
      "midi": 84,
      "hit": false,
      "t": 448597.59999999305,
      "d": 280.37349999998696,
      "v": 95
    },
    {
      "midi": 83,
      "hit": false,
      "t": 448877.97349999304,
      "d": 841.1205000000191,
      "v": 95
    },
    {
      "midi": 79,
      "hit": false,
      "t": 449719.09399999306,
      "d": 1121.494000000006,
      "v": 95
    },
    {
      "midi": 83,
      "hit": false,
      "t": 450840.58799999306,
      "d": 1121.494000000006,
      "v": 95
    },
    {
      "midi": 79,
      "hit": false,
      "t": 451962.08199999307,
      "d": 560.7469999999739,
      "v": 95
    },
    {
      "midi": 86,
      "hit": false,
      "t": 452522.82899999304,
      "d": 560.7469999999739,
      "v": 95
    },
    {
      "midi": 84,
      "hit": false,
      "t": 453083.575999993,
      "d": 1121.494000000006,
      "v": 95
    },
    {
      "midi": 83,
      "hit": false,
      "t": 454205.069999993,
      "d": 1121.494000000006,
      "v": 95
    },
    {
      "midi": 81,
      "hit": false,
      "t": 455326.563999993,
      "d": 1121.494000000006,
      "v": 95
    },
    {
      "midi": 81,
      "hit": false,
      "t": 456448.05799999303,
      "d": 280.37349999998696,
      "v": 95
    },
    {
      "midi": 83,
      "hit": false,
      "t": 456728.431499993,
      "d": 280.37349999998696,
      "v": 95
    },
    {
      "midi": 84,
      "hit": false,
      "t": 457008.804999993,
      "d": 280.37349999998696,
      "v": 95
    },
    {
      "midi": 86,
      "hit": false,
      "t": 457289.178499993,
      "d": 280.37349999998696,
      "v": 95
    },
    {
      "midi": 84,
      "hit": false,
      "t": 457569.551999993,
      "d": 280.37349999998696,
      "v": 95
    },
    {
      "midi": 83,
      "hit": false,
      "t": 457849.92549999297,
      "d": 841.1205000000191,
      "v": 95
    },
    {
      "midi": 79,
      "hit": false,
      "t": 458691.045999993,
      "d": 1121.494000000006,
      "v": 95
    },
    {
      "midi": 83,
      "hit": false,
      "t": 459812.539999993,
      "d": 1121.494000000006,
      "v": 95
    },
    {
      "midi": 79,
      "hit": false,
      "t": 460934.033999993,
      "d": 560.7469999999739,
      "v": 95
    },
    {
      "midi": 86,
      "hit": false,
      "t": 461494.780999993,
      "d": 560.7469999999739,
      "v": 95
    },
    {
      "midi": 84,
      "hit": false,
      "t": 462055.52799999295,
      "d": 1121.494000000006,
      "v": 95
    },
    {
      "midi": 81,
      "hit": false,
      "t": 463177.02199999295,
      "d": 1121.494000000006,
      "v": 95
    },
    {
      "midi": 84,
      "hit": false,
      "t": 464298.51599999296,
      "d": 1121.494000000006,
      "v": 95
    },
    {
      "midi": 81,
      "hit": false,
      "t": 465420.00999999297,
      "d": 280.37349999998696,
      "v": 95
    },
    {
      "midi": 83,
      "hit": false,
      "t": 465700.38349999295,
      "d": 280.37349999998696,
      "v": 95
    },
    {
      "midi": 84,
      "hit": false,
      "t": 465980.75699999294,
      "d": 560.7469999999739,
      "v": 95
    },
    {
      "midi": 84,
      "hit": false,
      "t": 466541.5039999929,
      "d": 280.37349999998696,
      "v": 95
    },
    {
      "midi": 83,
      "hit": false,
      "t": 466821.8774999929,
      "d": 841.1205000000191,
      "v": 95
    },
    {
      "midi": 79,
      "hit": false,
      "t": 467662.9979999929,
      "d": 1121.494000000006,
      "v": 95
    },
    {
      "midi": 83,
      "hit": false,
      "t": 468784.4919999929,
      "d": 1121.494000000006,
      "v": 95
    },
    {
      "midi": 79,
      "hit": false,
      "t": 469905.98599999293,
      "d": 560.7469999999739,
      "v": 95
    },
    {
      "midi": 86,
      "hit": false,
      "t": 470466.7329999929,
      "d": 560.7469999999739,
      "v": 95
    },
    {
      "midi": 84,
      "hit": false,
      "t": 471027.4799999929,
      "d": 1121.494000000006,
      "v": 95
    },
    {
      "midi": 83,
      "hit": false,
      "t": 472148.9739999929,
      "d": 1121.494000000006,
      "v": 95
    },
    {
      "midi": 81,
      "hit": false,
      "t": 473270.4679999929,
      "d": 1121.494000000006,
      "v": 95
    },
    {
      "midi": 81,
      "hit": false,
      "t": 474391.9619999929,
      "d": 280.37349999998696,
      "v": 95
    },
    {
      "midi": 83,
      "hit": false,
      "t": 474672.3354999929,
      "d": 280.37349999998696,
      "v": 95
    },
    {
      "midi": 84,
      "hit": false,
      "t": 474952.7089999929,
      "d": 280.37349999998696,
      "v": 95
    },
    {
      "midi": 86,
      "hit": false,
      "t": 475233.08249999286,
      "d": 280.37349999998696,
      "v": 95
    },
    {
      "midi": 84,
      "hit": false,
      "t": 475513.45599999285,
      "d": 280.37349999998696,
      "v": 95
    },
    {
      "midi": 52,
      "hit": false,
      "t": 475793.82949999283,
      "d": 6448.590499999991,
      "v": 95
    },
    {
      "midi": 59,
      "hit": false,
      "t": 475793.82949999283,
      "d": 6448.590499999991,
      "v": 95
    },
    {
      "midi": 71,
      "hit": false,
      "t": 475793.82949999283,
      "d": 6448.590499999991,
      "v": 95
    },
    {
      "midi": 83,
      "hit": false,
      "t": 475793.82949999283,
      "d": 6448.590499999991,
      "v": 95
    }
  ]
}