{
  "jsonPath": "Unknown/Unknown/Nicholson_ Shane/keep-it-together.json",
  "path": "Unknown\\Unknown\\Nicholson_ Shane\\Keep It Together.mid",
  "name": "Keep It Together",
  "difficulty": "Intermediate",
  "bpm": 106.00032506766354,
  "notes": [
    {
      "midi": 69,
      "hit": false,
      "t": 43301.754,
      "d": 344.9281875000015,
      "v": 79
    },
    {
      "midi": 73,
      "hit": false,
      "t": 43301.754,
      "d": 344.9281875000015,
      "v": 79
    },
    {
      "midi": 69,
      "hit": false,
      "t": 43867.79,
      "d": 344.9281875000015,
      "v": 78
    },
    {
      "midi": 73,
      "hit": false,
      "t": 43867.79,
      "d": 344.9281875000015,
      "v": 81
    },
    {
      "midi": 69,
      "hit": false,
      "t": 44433.826,
      "d": 344.9281875000015,
      "v": 78
    },
    {
      "midi": 73,
      "hit": false,
      "t": 44433.826,
      "d": 344.9281875000015,
      "v": 81
    },
    {
      "midi": 69,
      "hit": false,
      "t": 44999.862,
      "d": 344.9281875000015,
      "v": 79
    },
    {
      "midi": 74,
      "hit": false,
      "t": 44999.862,
      "d": 344.9281875000015,
      "v": 79
    },
    {
      "midi": 69,
      "hit": false,
      "t": 45565.898,
      "d": 344.9281875000015,
      "v": 81
    },
    {
      "midi": 74,
      "hit": false,
      "t": 45565.898,
      "d": 344.9281875000015,
      "v": 80
    },
    {
      "midi": 74,
      "hit": false,
      "t": 46131.934,
      "d": 344.9281875000015,
      "v": 79
    },
    {
      "midi": 78,
      "hit": false,
      "t": 46131.934,
      "d": 344.9281875000015,
      "v": 79
    },
    {
      "midi": 71,
      "hit": false,
      "t": 46697.97,
      "d": 344.9281875000015,
      "v": 77
    },
    {
      "midi": 76,
      "hit": false,
      "t": 46697.97,
      "d": 344.9281875000015,
      "v": 80
    },
    {
      "midi": 68,
      "hit": false,
      "t": 47264.006,
      "d": 344.9281875000015,
      "v": 81
    },
    {
      "midi": 74,
      "hit": false,
      "t": 47264.006,
      "d": 344.9281875000015,
      "v": 84
    },
    {
      "midi": 69,
      "hit": false,
      "t": 47830.042,
      "d": 344.9281875000015,
      "v": 79
    },
    {
      "midi": 73,
      "hit": false,
      "t": 47830.042,
      "d": 344.9281875000015,
      "v": 83
    },
    {
      "midi": 69,
      "hit": false,
      "t": 48396.078,
      "d": 344.9281875000015,
      "v": 77
    },
    {
      "midi": 73,
      "hit": false,
      "t": 48396.078,
      "d": 344.9281875000015,
      "v": 83
    },
    {
      "midi": 69,
      "hit": false,
      "t": 48962.114,
      "d": 344.9281875000015,
      "v": 77
    },
    {
      "midi": 73,
      "hit": false,
      "t": 48962.114,
      "d": 344.9281875000015,
      "v": 80
    },
    {
      "midi": 69,
      "hit": false,
      "t": 49528.15,
      "d": 344.9281875000015,
      "v": 78
    },
    {
      "midi": 74,
      "hit": false,
      "t": 49528.15,
      "d": 344.9281875000015,
      "v": 80
    },
    {
      "midi": 69,
      "hit": false,
      "t": 50094.186,
      "d": 344.9281875000015,
      "v": 77
    },
    {
      "midi": 74,
      "hit": false,
      "t": 50094.186,
      "d": 344.9281875000015,
      "v": 79
    },
    {
      "midi": 69,
      "hit": false,
      "t": 50660.222,
      "d": 344.9281875000015,
      "v": 79
    },
    {
      "midi": 73,
      "hit": false,
      "t": 50660.222,
      "d": 344.9281875000015,
      "v": 83
    },
    {
      "midi": 64,
      "hit": false,
      "t": 51226.258,
      "d": 344.9281875000015,
      "v": 74
    },
    {
      "midi": 71,
      "hit": false,
      "t": 51226.258,
      "d": 344.9281875000015,
      "v": 81
    },
    {
      "midi": 64,
      "hit": false,
      "t": 51792.294,
      "d": 344.9281875000015,
      "v": 75
    },
    {
      "midi": 69,
      "hit": false,
      "t": 51792.294,
      "d": 344.9281875000015,
      "v": 80
    },
    {
      "midi": 64,
      "hit": false,
      "t": 52358.33,
      "d": 344.9281875000015,
      "v": 81
    },
    {
      "midi": 68,
      "hit": false,
      "t": 52358.33,
      "d": 344.9281875000015,
      "v": 77
    },
    {
      "midi": 64,
      "hit": false,
      "t": 52924.366,
      "d": 344.9281875000015,
      "v": 80
    },
    {
      "midi": 68,
      "hit": false,
      "t": 52924.366,
      "d": 344.9281875000015,
      "v": 76
    },
    {
      "midi": 64,
      "hit": false,
      "t": 53490.402,
      "d": 344.9281875000015,
      "v": 79
    },
    {
      "midi": 68,
      "hit": false,
      "t": 53490.402,
      "d": 344.9281875000015,
      "v": 77
    },
    {
      "midi": 64,
      "hit": false,
      "t": 54056.438,
      "d": 344.9281875000015,
      "v": 80
    },
    {
      "midi": 69,
      "hit": false,
      "t": 54056.438,
      "d": 344.9281875000015,
      "v": 78
    },
    {
      "midi": 64,
      "hit": false,
      "t": 54622.474,
      "d": 344.9281875000015,
      "v": 78
    },
    {
      "midi": 71,
      "hit": false,
      "t": 54622.474,
      "d": 344.9281875000015,
      "v": 82
    },
    {
      "midi": 64,
      "hit": false,
      "t": 55188.51,
      "d": 344.9281875000015,
      "v": 81
    },
    {
      "midi": 73,
      "hit": false,
      "t": 55188.51,
      "d": 344.9281875000015,
      "v": 81
    },
    {
      "midi": 68,
      "hit": false,
      "t": 55754.546,
      "d": 344.9281875000015,
      "v": 80
    },
    {
      "midi": 74,
      "hit": false,
      "t": 55754.546,
      "d": 344.9281875000015,
      "v": 79
    },
    {
      "midi": 68,
      "hit": false,
      "t": 56320.582,
      "d": 344.9281875000015,
      "v": 78
    },
    {
      "midi": 74,
      "hit": false,
      "t": 56320.582,
      "d": 344.9281875000015,
      "v": 76
    },
    {
      "midi": 69,
      "hit": false,
      "t": 56886.618,
      "d": 344.9281875000015,
      "v": 67
    },
    {
      "midi": 73,
      "hit": false,
      "t": 56886.618,
      "d": 344.9281875000015,
      "v": 79
    },
    {
      "midi": 69,
      "hit": false,
      "t": 57452.654,
      "d": 344.9281875000015,
      "v": 78
    },
    {
      "midi": 73,
      "hit": false,
      "t": 57452.654,
      "d": 344.9281875000015,
      "v": 81
    },
    {
      "midi": 69,
      "hit": false,
      "t": 58018.69,
      "d": 344.9281875000015,
      "v": 76
    },
    {
      "midi": 73,
      "hit": false,
      "t": 58018.69,
      "d": 344.9281875000015,
      "v": 79
    },
    {
      "midi": 69,
      "hit": false,
      "t": 58584.726,
      "d": 344.9281875000015,
      "v": 74
    },
    {
      "midi": 73,
      "hit": false,
      "t": 58584.726,
      "d": 344.9281875000015,
      "v": 78
    },
    {
      "midi": 69,
      "hit": false,
      "t": 59150.762,
      "d": 344.9281875000015,
      "v": 77
    },
    {
      "midi": 74,
      "hit": false,
      "t": 59150.762,
      "d": 344.9281875000015,
      "v": 73
    },
    {
      "midi": 69,
      "hit": false,
      "t": 59716.798,
      "d": 344.9281875000015,
      "v": 75
    },
    {
      "midi": 74,
      "hit": false,
      "t": 59716.798,
      "d": 344.9281875000015,
      "v": 77
    },
    {
      "midi": 68,
      "hit": false,
      "t": 60282.834,
      "d": 344.9281875000015,
      "v": 77
    },
    {
      "midi": 76,
      "hit": false,
      "t": 60282.834,
      "d": 344.9281875000015,
      "v": 80
    },
    {
      "midi": 68,
      "hit": false,
      "t": 60848.87,
      "d": 344.9281875000015,
      "v": 77
    },
    {
      "midi": 76,
      "hit": false,
      "t": 60848.87,
      "d": 344.9281875000015,
      "v": 80
    },
    {
      "midi": 69,
      "hit": false,
      "t": 61414.906,
      "d": 344.9281875000015,
      "v": 79
    },
    {
      "midi": 73,
      "hit": false,
      "t": 61414.906,
      "d": 344.9281875000015,
      "v": 79
    },
    {
      "midi": 69,
      "hit": false,
      "t": 61980.942,
      "d": 344.9281875000015,
      "v": 78
    },
    {
      "midi": 73,
      "hit": false,
      "t": 61980.942,
      "d": 344.9281875000015,
      "v": 81
    },
    {
      "midi": 69,
      "hit": false,
      "t": 62546.978,
      "d": 344.9281875000015,
      "v": 78
    },
    {
      "midi": 73,
      "hit": false,
      "t": 62546.978,
      "d": 344.9281875000015,
      "v": 81
    },
    {
      "midi": 69,
      "hit": false,
      "t": 63113.014,
      "d": 344.9281875000015,
      "v": 79
    },
    {
      "midi": 74,
      "hit": false,
      "t": 63113.014,
      "d": 344.9281875000015,
      "v": 79
    },
    {
      "midi": 69,
      "hit": false,
      "t": 63679.05,
      "d": 344.9281875000015,
      "v": 81
    },
    {
      "midi": 74,
      "hit": false,
      "t": 63679.05,
      "d": 344.9281875000015,
      "v": 80
    },
    {
      "midi": 74,
      "hit": false,
      "t": 64245.086,
      "d": 344.9281875000015,
      "v": 79
    },
    {
      "midi": 78,
      "hit": false,
      "t": 64245.086,
      "d": 344.9281875000015,
      "v": 79
    },
    {
      "midi": 71,
      "hit": false,
      "t": 64811.122,
      "d": 344.9281875000015,
      "v": 77
    },
    {
      "midi": 76,
      "hit": false,
      "t": 64811.122,
      "d": 344.9281875000015,
      "v": 80
    },
    {
      "midi": 68,
      "hit": false,
      "t": 65377.158,
      "d": 344.92818749999424,
      "v": 81
    },
    {
      "midi": 74,
      "hit": false,
      "t": 65377.158,
      "d": 344.92818749999424,
      "v": 84
    },
    {
      "midi": 69,
      "hit": false,
      "t": 65943.194,
      "d": 344.9281875000015,
      "v": 79
    },
    {
      "midi": 73,
      "hit": false,
      "t": 65943.194,
      "d": 344.9281875000015,
      "v": 83
    },
    {
      "midi": 69,
      "hit": false,
      "t": 66509.23000000001,
      "d": 344.9281875000015,
      "v": 77
    },
    {
      "midi": 73,
      "hit": false,
      "t": 66509.23000000001,
      "d": 344.9281875000015,
      "v": 83
    },
    {
      "midi": 69,
      "hit": false,
      "t": 67075.26600000002,
      "d": 344.9281875000015,
      "v": 77
    },
    {
      "midi": 73,
      "hit": false,
      "t": 67075.26600000002,
      "d": 344.9281875000015,
      "v": 80
    },
    {
      "midi": 69,
      "hit": false,
      "t": 67641.30200000003,
      "d": 344.9281875000015,
      "v": 78
    },
    {
      "midi": 72,
      "hit": false,
      "t": 67641.30200000003,
      "d": 344.9281875000015,
      "v": 80
    },
    {
      "midi": 69,
      "hit": false,
      "t": 68207.33800000003,
      "d": 344.9281875000015,
      "v": 77
    },
    {
      "midi": 74,
      "hit": false,
      "t": 68207.33800000003,
      "d": 344.9281875000015,
      "v": 79
    },
    {
      "midi": 69,
      "hit": false,
      "t": 68773.37400000004,
      "d": 344.9281875000015,
      "v": 79
    },
    {
      "midi": 73,
      "hit": false,
      "t": 68773.37400000004,
      "d": 344.9281875000015,
      "v": 83
    },
    {
      "midi": 64,
      "hit": false,
      "t": 69339.41000000005,
      "d": 344.9281875000015,
      "v": 74
    },
    {
      "midi": 71,
      "hit": false,
      "t": 69339.41000000005,
      "d": 344.9281875000015,
      "v": 81
    },
    {
      "midi": 64,
      "hit": false,
      "t": 69905.44600000005,
      "d": 344.9281875000015,
      "v": 75
    },
    {
      "midi": 69,
      "hit": false,
      "t": 69905.44600000005,
      "d": 344.9281875000015,
      "v": 80
    },
    {
      "midi": 68,
      "hit": false,
      "t": 70471.48200000006,
      "d": 344.9281875000015,
      "v": 81
    },
    {
      "midi": 71,
      "hit": false,
      "t": 70471.48200000006,
      "d": 344.9281875000015,
      "v": 77
    },
    {
      "midi": 68,
      "hit": false,
      "t": 71037.51800000007,
      "d": 344.9281875000015,
      "v": 80
    },
    {
      "midi": 71,
      "hit": false,
      "t": 71037.51800000007,
      "d": 344.9281875000015,
      "v": 76
    },
    {
      "midi": 68,
      "hit": false,
      "t": 71603.55400000008,
      "d": 344.9281875000015,
      "v": 79
    },
    {
      "midi": 71,
      "hit": false,
      "t": 71603.55400000008,
      "d": 344.9281875000015,
      "v": 77
    },
    {
      "midi": 68,
      "hit": false,
      "t": 72169.59000000008,
      "d": 344.9281875000015,
      "v": 80
    },
    {
      "midi": 71,
      "hit": false,
      "t": 72169.59000000008,
      "d": 344.9281875000015,
      "v": 78
    },
    {
      "midi": 68,
      "hit": false,
      "t": 72735.62600000009,
      "d": 344.9281875000015,
      "v": 78
    },
    {
      "midi": 71,
      "hit": false,
      "t": 72735.62600000009,
      "d": 344.9281875000015,
      "v": 82
    },
    {
      "midi": 68,
      "hit": false,
      "t": 73301.6620000001,
      "d": 344.9281875000015,
      "v": 81
    },
    {
      "midi": 71,
      "hit": false,
      "t": 73301.6620000001,
      "d": 344.9281875000015,
      "v": 81
    },
    {
      "midi": 68,
      "hit": false,
      "t": 73867.6980000001,
      "d": 344.9281875000015,
      "v": 80
    },
    {
      "midi": 74,
      "hit": false,
      "t": 73867.6980000001,
      "d": 344.9281875000015,
      "v": 79
    },
    {
      "midi": 68,
      "hit": false,
      "t": 74433.73400000011,
      "d": 344.9281875000015,
      "v": 78
    },
    {
      "midi": 74,
      "hit": false,
      "t": 74433.73400000011,
      "d": 344.9281875000015,
      "v": 76
    },
    {
      "midi": 69,
      "hit": false,
      "t": 74999.77000000012,
      "d": 344.9281875000015,
      "v": 67
    },
    {
      "midi": 73,
      "hit": false,
      "t": 74999.77000000012,
      "d": 344.9281875000015,
      "v": 79
    },
    {
      "midi": 69,
      "hit": false,
      "t": 75565.80600000013,
      "d": 344.9281875000015,
      "v": 78
    },
    {
      "midi": 73,
      "hit": false,
      "t": 75565.80600000013,
      "d": 344.9281875000015,
      "v": 81
    },
    {
      "midi": 69,
      "hit": false,
      "t": 76131.84200000014,
      "d": 344.9281875000015,
      "v": 76
    },
    {
      "midi": 73,
      "hit": false,
      "t": 76131.84200000014,
      "d": 344.9281875000015,
      "v": 79
    },
    {
      "midi": 69,
      "hit": false,
      "t": 76697.87800000014,
      "d": 344.9281875000015,
      "v": 74
    },
    {
      "midi": 73,
      "hit": false,
      "t": 76697.87800000014,
      "d": 344.9281875000015,
      "v": 78
    },
    {
      "midi": 69,
      "hit": false,
      "t": 108961.93000000014,
      "d": 344.9281875000015,
      "v": 80
    },
    {
      "midi": 73,
      "hit": false,
      "t": 108961.93000000014,
      "d": 344.9281875000015,
      "v": 80
    },
    {
      "midi": 69,
      "hit": false,
      "t": 109527.96600000015,
      "d": 344.9281875000015,
      "v": 79
    },
    {
      "midi": 73,
      "hit": false,
      "t": 109527.96600000015,
      "d": 344.9281875000015,
      "v": 82
    },
    {
      "midi": 69,
      "hit": false,
      "t": 110094.00200000015,
      "d": 344.9281875000015,
      "v": 79
    },
    {
      "midi": 73,
      "hit": false,
      "t": 110094.00200000015,
      "d": 344.9281875000015,
      "v": 82
    },
    {
      "midi": 69,
      "hit": false,
      "t": 110660.03800000016,
      "d": 344.9281875000015,
      "v": 80
    },
    {
      "midi": 74,
      "hit": false,
      "t": 110660.03800000016,
      "d": 344.9281875000015,
      "v": 80
    },
    {
      "midi": 69,
      "hit": false,
      "t": 111226.07400000017,
      "d": 344.9281875000015,
      "v": 82
    },
    {
      "midi": 74,
      "hit": false,
      "t": 111226.07400000017,
      "d": 344.9281875000015,
      "v": 81
    },
    {
      "midi": 74,
      "hit": false,
      "t": 111792.11000000018,
      "d": 344.9281875000015,
      "v": 80
    },
    {
      "midi": 78,
      "hit": false,
      "t": 111792.11000000018,
      "d": 344.9281875000015,
      "v": 80
    },
    {
      "midi": 71,
      "hit": false,
      "t": 112358.14600000018,
      "d": 344.9281875000015,
      "v": 78
    },
    {
      "midi": 76,
      "hit": false,
      "t": 112358.14600000018,
      "d": 344.9281875000015,
      "v": 81
    },
    {
      "midi": 68,
      "hit": false,
      "t": 112924.18200000019,
      "d": 344.9281875000015,
      "v": 82
    },
    {
      "midi": 74,
      "hit": false,
      "t": 112924.18200000019,
      "d": 344.9281875000015,
      "v": 85
    },
    {
      "midi": 69,
      "hit": false,
      "t": 113490.2180000002,
      "d": 344.9281875000015,
      "v": 80
    },
    {
      "midi": 73,
      "hit": false,
      "t": 113490.2180000002,
      "d": 344.9281875000015,
      "v": 84
    },
    {
      "midi": 69,
      "hit": false,
      "t": 114056.2540000002,
      "d": 344.9281875000015,
      "v": 78
    },
    {
      "midi": 73,
      "hit": false,
      "t": 114056.2540000002,
      "d": 344.9281875000015,
      "v": 84
    },
    {
      "midi": 69,
      "hit": false,
      "t": 114622.29000000021,
      "d": 344.9281875000015,
      "v": 78
    },
    {
      "midi": 73,
      "hit": false,
      "t": 114622.29000000021,
      "d": 344.9281875000015,
      "v": 81
    },
    {
      "midi": 69,
      "hit": false,
      "t": 115188.32600000022,
      "d": 344.9281875000015,
      "v": 79
    },
    {
      "midi": 74,
      "hit": false,
      "t": 115188.32600000022,
      "d": 344.9281875000015,
      "v": 81
    },
    {
      "midi": 69,
      "hit": false,
      "t": 115754.36200000023,
      "d": 344.9281875000015,
      "v": 78
    },
    {
      "midi": 74,
      "hit": false,
      "t": 115754.36200000023,
      "d": 344.9281875000015,
      "v": 80
    },
    {
      "midi": 69,
      "hit": false,
      "t": 116320.39800000023,
      "d": 344.9281875000015,
      "v": 80
    },
    {
      "midi": 73,
      "hit": false,
      "t": 116320.39800000023,
      "d": 344.9281875000015,
      "v": 84
    },
    {
      "midi": 64,
      "hit": false,
      "t": 116886.43400000024,
      "d": 344.9281875000015,
      "v": 75
    },
    {
      "midi": 71,
      "hit": false,
      "t": 116886.43400000024,
      "d": 344.9281875000015,
      "v": 82
    },
    {
      "midi": 64,
      "hit": false,
      "t": 117452.47000000025,
      "d": 344.9281875000015,
      "v": 76
    },
    {
      "midi": 69,
      "hit": false,
      "t": 117452.47000000025,
      "d": 344.9281875000015,
      "v": 81
    },
    {
      "midi": 64,
      "hit": false,
      "t": 118018.50600000026,
      "d": 344.9281875000015,
      "v": 82
    },
    {
      "midi": 68,
      "hit": false,
      "t": 118018.50600000026,
      "d": 344.9281875000015,
      "v": 78
    },
    {
      "midi": 64,
      "hit": false,
      "t": 118584.54200000026,
      "d": 344.9281875000015,
      "v": 81
    },
    {
      "midi": 68,
      "hit": false,
      "t": 118584.54200000026,
      "d": 344.9281875000015,
      "v": 77
    },
    {
      "midi": 64,
      "hit": false,
      "t": 119150.57800000027,
      "d": 344.9281875000015,
      "v": 80
    },
    {
      "midi": 68,
      "hit": false,
      "t": 119150.57800000027,
      "d": 344.9281875000015,
      "v": 78
    },
    {
      "midi": 64,
      "hit": false,
      "t": 119716.61400000028,
      "d": 344.9281875000015,
      "v": 81
    },
    {
      "midi": 69,
      "hit": false,
      "t": 119716.61400000028,
      "d": 344.9281875000015,
      "v": 79
    },
    {
      "midi": 64,
      "hit": false,
      "t": 120282.65000000029,
      "d": 344.9281875000015,
      "v": 79
    },
    {
      "midi": 71,
      "hit": false,
      "t": 120282.65000000029,
      "d": 344.9281875000015,
      "v": 83
    },
    {
      "midi": 64,
      "hit": false,
      "t": 120848.68600000029,
      "d": 344.9281875000015,
      "v": 82
    },
    {
      "midi": 73,
      "hit": false,
      "t": 120848.68600000029,
      "d": 344.9281875000015,
      "v": 82
    },
    {
      "midi": 68,
      "hit": false,
      "t": 121414.7220000003,
      "d": 344.9281875000015,
      "v": 81
    },
    {
      "midi": 74,
      "hit": false,
      "t": 121414.7220000003,
      "d": 344.9281875000015,
      "v": 80
    },
    {
      "midi": 68,
      "hit": false,
      "t": 121980.7580000003,
      "d": 344.9281875000015,
      "v": 79
    },
    {
      "midi": 74,
      "hit": false,
      "t": 121980.7580000003,
      "d": 344.9281875000015,
      "v": 77
    },
    {
      "midi": 69,
      "hit": false,
      "t": 122546.79400000031,
      "d": 344.9281875000015,
      "v": 68
    },
    {
      "midi": 73,
      "hit": false,
      "t": 122546.79400000031,
      "d": 344.9281875000015,
      "v": 80
    },
    {
      "midi": 69,
      "hit": false,
      "t": 123112.83000000032,
      "d": 344.9281875000015,
      "v": 79
    },
    {
      "midi": 73,
      "hit": false,
      "t": 123112.83000000032,
      "d": 344.9281875000015,
      "v": 82
    },
    {
      "midi": 69,
      "hit": false,
      "t": 123678.86600000033,
      "d": 344.9281875000015,
      "v": 77
    },
    {
      "midi": 73,
      "hit": false,
      "t": 123678.86600000033,
      "d": 344.9281875000015,
      "v": 80
    },
    {
      "midi": 69,
      "hit": false,
      "t": 124244.90200000034,
      "d": 344.9281875000015,
      "v": 75
    },
    {
      "midi": 73,
      "hit": false,
      "t": 124244.90200000034,
      "d": 344.9281875000015,
      "v": 79
    },
    {
      "midi": 69,
      "hit": false,
      "t": 124810.93800000034,
      "d": 344.9281875000015,
      "v": 78
    },
    {
      "midi": 74,
      "hit": false,
      "t": 124810.93800000034,
      "d": 344.9281875000015,
      "v": 74
    },
    {
      "midi": 69,
      "hit": false,
      "t": 125376.97400000035,
      "d": 344.9281875000015,
      "v": 76
    },
    {
      "midi": 74,
      "hit": false,
      "t": 125376.97400000035,
      "d": 344.9281875000015,
      "v": 78
    },
    {
      "midi": 68,
      "hit": false,
      "t": 125943.01000000036,
      "d": 344.9281875000015,
      "v": 78
    },
    {
      "midi": 76,
      "hit": false,
      "t": 125943.01000000036,
      "d": 344.9281875000015,
      "v": 81
    },
    {
      "midi": 68,
      "hit": false,
      "t": 126509.04600000037,
      "d": 344.9281875000015,
      "v": 78
    },
    {
      "midi": 76,
      "hit": false,
      "t": 126509.04600000037,
      "d": 344.9281875000015,
      "v": 81
    },
    {
      "midi": 69,
      "hit": false,
      "t": 127075.08200000037,
      "d": 344.9281875000015,
      "v": 80
    },
    {
      "midi": 73,
      "hit": false,
      "t": 127075.08200000037,
      "d": 344.9281875000015,
      "v": 80
    },
    {
      "midi": 69,
      "hit": false,
      "t": 127641.11800000038,
      "d": 344.9281875000015,
      "v": 79
    },
    {
      "midi": 73,
      "hit": false,
      "t": 127641.11800000038,
      "d": 344.9281875000015,
      "v": 82
    },
    {
      "midi": 69,
      "hit": false,
      "t": 128207.15400000039,
      "d": 344.9281875000015,
      "v": 79
    },
    {
      "midi": 73,
      "hit": false,
      "t": 128207.15400000039,
      "d": 344.9281875000015,
      "v": 82
    },
    {
      "midi": 69,
      "hit": false,
      "t": 128773.1900000004,
      "d": 344.9281875000015,
      "v": 80
    },
    {
      "midi": 74,
      "hit": false,
      "t": 128773.1900000004,
      "d": 344.9281875000015,
      "v": 80
    },
    {
      "midi": 69,
      "hit": false,
      "t": 129339.2260000004,
      "d": 344.9281875000015,
      "v": 82
    },
    {
      "midi": 74,
      "hit": false,
      "t": 129339.2260000004,
      "d": 344.9281875000015,
      "v": 81
    },
    {
      "midi": 74,
      "hit": false,
      "t": 129905.26200000041,
      "d": 344.9281875000015,
      "v": 80
    },
    {
      "midi": 78,
      "hit": false,
      "t": 129905.26200000041,
      "d": 344.9281875000015,
      "v": 80
    },
    {
      "midi": 71,
      "hit": false,
      "t": 130471.29800000042,
      "d": 344.9281875000015,
      "v": 78
    },
    {
      "midi": 76,
      "hit": false,
      "t": 130471.29800000042,
      "d": 344.9281875000015,
      "v": 81
    },
    {
      "midi": 68,
      "hit": false,
      "t": 131037.33400000042,
      "d": 344.9281875000015,
      "v": 82
    },
    {
      "midi": 74,
      "hit": false,
      "t": 131037.33400000042,
      "d": 344.9281875000015,
      "v": 85
    },
    {
      "midi": 69,
      "hit": false,
      "t": 131603.37000000043,
      "d": 344.92818749998696,
      "v": 80
    },
    {
      "midi": 73,
      "hit": false,
      "t": 131603.37000000043,
      "d": 344.92818749998696,
      "v": 84
    },
    {
      "midi": 69,
      "hit": false,
      "t": 132169.40600000042,
      "d": 344.92818749998696,
      "v": 78
    },
    {
      "midi": 73,
      "hit": false,
      "t": 132169.40600000042,
      "d": 344.92818749998696,
      "v": 84
    },
    {
      "midi": 69,
      "hit": false,
      "t": 132735.44200000042,
      "d": 344.92818749998696,
      "v": 78
    },
    {
      "midi": 73,
      "hit": false,
      "t": 132735.44200000042,
      "d": 344.92818749998696,
      "v": 81
    },
    {
      "midi": 69,
      "hit": false,
      "t": 133301.4780000004,
      "d": 344.92818749998696,
      "v": 79
    },
    {
      "midi": 72,
      "hit": false,
      "t": 133301.4780000004,
      "d": 344.92818749998696,
      "v": 81
    },
    {
      "midi": 69,
      "hit": false,
      "t": 133867.5140000004,
      "d": 344.92818749998696,
      "v": 78
    },
    {
      "midi": 74,
      "hit": false,
      "t": 133867.5140000004,
      "d": 344.92818749998696,
      "v": 80
    },
    {
      "midi": 69,
      "hit": false,
      "t": 134433.5500000004,
      "d": 344.92818749998696,
      "v": 80
    },
    {
      "midi": 73,
      "hit": false,
      "t": 134433.5500000004,
      "d": 344.92818749998696,
      "v": 84
    },
    {
      "midi": 64,
      "hit": false,
      "t": 134999.5860000004,
      "d": 344.92818749998696,
      "v": 75
    },
    {
      "midi": 71,
      "hit": false,
      "t": 134999.5860000004,
      "d": 344.92818749998696,
      "v": 82
    },
    {
      "midi": 64,
      "hit": false,
      "t": 135565.62200000038,
      "d": 344.92818749998696,
      "v": 76
    },
    {
      "midi": 69,
      "hit": false,
      "t": 135565.62200000038,
      "d": 344.92818749998696,
      "v": 81
    },
    {
      "midi": 68,
      "hit": false,
      "t": 136131.65800000037,
      "d": 344.92818749998696,
      "v": 82
    },
    {
      "midi": 71,
      "hit": false,
      "t": 136131.65800000037,
      "d": 344.92818749998696,
      "v": 78
    },
    {
      "midi": 68,
      "hit": false,
      "t": 136697.69400000037,
      "d": 344.92818749998696,
      "v": 81
    },
    {
      "midi": 71,
      "hit": false,
      "t": 136697.69400000037,
      "d": 344.92818749998696,
      "v": 77
    },
    {
      "midi": 68,
      "hit": false,
      "t": 137263.73000000036,
      "d": 344.92818749998696,
      "v": 80
    },
    {
      "midi": 71,
      "hit": false,
      "t": 137263.73000000036,
      "d": 344.92818749998696,
      "v": 78
    },
    {
      "midi": 68,
      "hit": false,
      "t": 137829.76600000035,
      "d": 344.92818749998696,
      "v": 81
    },
    {
      "midi": 71,
      "hit": false,
      "t": 137829.76600000035,
      "d": 344.92818749998696,
      "v": 79
    },
    {
      "midi": 68,
      "hit": false,
      "t": 138395.80200000035,
      "d": 344.92818749998696,
      "v": 79
    },
    {
      "midi": 71,
      "hit": false,
      "t": 138395.80200000035,
      "d": 344.92818749998696,
      "v": 83
    },
    {
      "midi": 68,
      "hit": false,
      "t": 138961.83800000034,
      "d": 344.92818749998696,
      "v": 82
    },
    {
      "midi": 71,
      "hit": false,
      "t": 138961.83800000034,
      "d": 344.92818749998696,
      "v": 82
    },
    {
      "midi": 68,
      "hit": false,
      "t": 139527.87400000033,
      "d": 344.92818749998696,
      "v": 81
    },
    {
      "midi": 74,
      "hit": false,
      "t": 139527.87400000033,
      "d": 344.92818749998696,
      "v": 80
    },
    {
      "midi": 68,
      "hit": false,
      "t": 140093.91000000032,
      "d": 344.92818749998696,
      "v": 79
    },
    {
      "midi": 74,
      "hit": false,
      "t": 140093.91000000032,
      "d": 344.92818749998696,
      "v": 77
    },
    {
      "midi": 69,
      "hit": false,
      "t": 140659.94600000032,
      "d": 344.92818749998696,
      "v": 68
    },
    {
      "midi": 73,
      "hit": false,
      "t": 140659.94600000032,
      "d": 344.92818749998696,
      "v": 80
    },
    {
      "midi": 69,
      "hit": false,
      "t": 141225.9820000003,
      "d": 344.92818749998696,
      "v": 79
    },
    {
      "midi": 73,
      "hit": false,
      "t": 141225.9820000003,
      "d": 344.92818749998696,
      "v": 82
    },
    {
      "midi": 69,
      "hit": false,
      "t": 141792.0180000003,
      "d": 344.92818749998696,
      "v": 77
    },
    {
      "midi": 73,
      "hit": false,
      "t": 141792.0180000003,
      "d": 344.92818749998696,
      "v": 80
    },
    {
      "midi": 64,
      "hit": false,
      "t": 142358.0540000003,
      "d": 253.53695833333768,
      "v": 79
    },
    {
      "midi": 69,
      "hit": false,
      "t": 142358.0540000003,
      "d": 253.53695833333768,
      "v": 75
    },
    {
      "midi": 53,
      "hit": false,
      "t": 142646.96820833362,
      "d": 2178.648979166668,
      "v": 64
    },
    {
      "midi": 69,
      "hit": false,
      "t": 142646.96820833362,
      "d": 2178.648979166668,
      "v": 79
    },
    {
      "midi": 60,
      "hit": false,
      "t": 142652.86441666697,
      "d": 2178.648979166668,
      "v": 64
    },
    {
      "midi": 65,
      "hit": false,
      "t": 142652.86441666697,
      "d": 2178.648979166668,
      "v": 64
    },
    {
      "midi": 70,
      "hit": false,
      "t": 174622.10600000032,
      "d": 344.92818749998696,
      "v": 81
    },
    {
      "midi": 74,
      "hit": false,
      "t": 174622.10600000032,
      "d": 344.92818749998696,
      "v": 81
    },
    {
      "midi": 70,
      "hit": false,
      "t": 175188.1420000003,
      "d": 344.92818749998696,
      "v": 80
    },
    {
      "midi": 74,
      "hit": false,
      "t": 175188.1420000003,
      "d": 344.92818749998696,
      "v": 83
    },
    {
      "midi": 70,
      "hit": false,
      "t": 175754.1780000003,
      "d": 344.92818749998696,
      "v": 80
    },
    {
      "midi": 74,
      "hit": false,
      "t": 175754.1780000003,
      "d": 344.92818749998696,
      "v": 83
    },
    {
      "midi": 70,
      "hit": false,
      "t": 176320.2140000003,
      "d": 344.92818749998696,
      "v": 81
    },
    {
      "midi": 75,
      "hit": false,
      "t": 176320.2140000003,
      "d": 344.92818749998696,
      "v": 81
    },
    {
      "midi": 70,
      "hit": false,
      "t": 176886.2500000003,
      "d": 344.92818749998696,
      "v": 83
    },
    {
      "midi": 75,
      "hit": false,
      "t": 176886.2500000003,
      "d": 344.92818749998696,
      "v": 82
    },
    {
      "midi": 75,
      "hit": false,
      "t": 177452.28600000028,
      "d": 344.92818749998696,
      "v": 81
    },
    {
      "midi": 79,
      "hit": false,
      "t": 177452.28600000028,
      "d": 344.92818749998696,
      "v": 81
    },
    {
      "midi": 72,
      "hit": false,
      "t": 178018.32200000028,
      "d": 344.92818749998696,
      "v": 79
    },
    {
      "midi": 77,
      "hit": false,
      "t": 178018.32200000028,
      "d": 344.92818749998696,
      "v": 82
    },
    {
      "midi": 69,
      "hit": false,
      "t": 178584.35800000027,
      "d": 344.92818749998696,
      "v": 83
    },
    {
      "midi": 75,
      "hit": false,
      "t": 178584.35800000027,
      "d": 344.92818749998696,
      "v": 86
    },
    {
      "midi": 70,
      "hit": false,
      "t": 179150.39400000026,
      "d": 344.92818749998696,
      "v": 81
    },
    {
      "midi": 74,
      "hit": false,
      "t": 179150.39400000026,
      "d": 344.92818749998696,
      "v": 85
    },
    {
      "midi": 70,
      "hit": false,
      "t": 179716.43000000025,
      "d": 344.92818749998696,
      "v": 79
    },
    {
      "midi": 74,
      "hit": false,
      "t": 179716.43000000025,
      "d": 344.92818749998696,
      "v": 85
    },
    {
      "midi": 70,
      "hit": false,
      "t": 180282.46600000025,
      "d": 344.92818749998696,
      "v": 79
    },
    {
      "midi": 74,
      "hit": false,
      "t": 180282.46600000025,
      "d": 344.92818749998696,
      "v": 82
    },
    {
      "midi": 70,
      "hit": false,
      "t": 180848.50200000024,
      "d": 344.92818749998696,
      "v": 80
    },
    {
      "midi": 75,
      "hit": false,
      "t": 180848.50200000024,
      "d": 344.92818749998696,
      "v": 82
    },
    {
      "midi": 70,
      "hit": false,
      "t": 181414.53800000023,
      "d": 344.92818749998696,
      "v": 79
    },
    {
      "midi": 75,
      "hit": false,
      "t": 181414.53800000023,
      "d": 344.92818749998696,
      "v": 81
    },
    {
      "midi": 70,
      "hit": false,
      "t": 181980.57400000023,
      "d": 344.92818749998696,
      "v": 81
    },
    {
      "midi": 74,
      "hit": false,
      "t": 181980.57400000023,
      "d": 344.92818749998696,
      "v": 85
    },
    {
      "midi": 65,
      "hit": false,
      "t": 182546.61000000022,
      "d": 344.92818749998696,
      "v": 76
    },
    {
      "midi": 72,
      "hit": false,
      "t": 182546.61000000022,
      "d": 344.92818749998696,
      "v": 83
    },
    {
      "midi": 65,
      "hit": false,
      "t": 183112.6460000002,
      "d": 344.92818749998696,
      "v": 77
    },
    {
      "midi": 70,
      "hit": false,
      "t": 183112.6460000002,
      "d": 344.92818749998696,
      "v": 82
    },
    {
      "midi": 65,
      "hit": false,
      "t": 183678.6820000002,
      "d": 344.92818749998696,
      "v": 83
    },
    {
      "midi": 69,
      "hit": false,
      "t": 183678.6820000002,
      "d": 344.92818749998696,
      "v": 79
    },
    {
      "midi": 65,
      "hit": false,
      "t": 184244.7180000002,
      "d": 344.92818749998696,
      "v": 82
    },
    {
      "midi": 69,
      "hit": false,
      "t": 184244.7180000002,
      "d": 344.92818749998696,
      "v": 78
    },
    {
      "midi": 65,
      "hit": false,
      "t": 184810.7540000002,
      "d": 344.92818749998696,
      "v": 81
    },
    {
      "midi": 69,
      "hit": false,
      "t": 184810.7540000002,
      "d": 344.92818749998696,
      "v": 79
    },
    {
      "midi": 65,
      "hit": false,
      "t": 185376.79000000018,
      "d": 344.92818749998696,
      "v": 82
    },
    {
      "midi": 70,
      "hit": false,
      "t": 185376.79000000018,
      "d": 344.92818749998696,
      "v": 80
    },
    {
      "midi": 65,
      "hit": false,
      "t": 185942.82600000018,
      "d": 344.92818749998696,
      "v": 80
    },
    {
      "midi": 72,
      "hit": false,
      "t": 185942.82600000018,
      "d": 344.92818749998696,
      "v": 84
    },
    {
      "midi": 65,
      "hit": false,
      "t": 186508.86200000017,
      "d": 344.92818749998696,
      "v": 83
    },
    {
      "midi": 74,
      "hit": false,
      "t": 186508.86200000017,
      "d": 344.92818749998696,
      "v": 83
    },
    {
      "midi": 69,
      "hit": false,
      "t": 187074.89800000016,
      "d": 344.92818749998696,
      "v": 82
    },
    {
      "midi": 75,
      "hit": false,
      "t": 187074.89800000016,
      "d": 344.92818749998696,
      "v": 81
    },
    {
      "midi": 69,
      "hit": false,
      "t": 187640.93400000015,
      "d": 344.92818749998696,
      "v": 80
    },
    {
      "midi": 75,
      "hit": false,
      "t": 187640.93400000015,
      "d": 344.92818749998696,
      "v": 78
    },
    {
      "midi": 70,
      "hit": false,
      "t": 188206.97000000015,
      "d": 344.92818749998696,
      "v": 69
    },
    {
      "midi": 74,
      "hit": false,
      "t": 188206.97000000015,
      "d": 344.92818749998696,
      "v": 81
    },
    {
      "midi": 70,
      "hit": false,
      "t": 188773.00600000014,
      "d": 344.92818749998696,
      "v": 80
    },
    {
      "midi": 74,
      "hit": false,
      "t": 188773.00600000014,
      "d": 344.92818749998696,
      "v": 83
    },
    {
      "midi": 70,
      "hit": false,
      "t": 189339.04200000013,
      "d": 344.92818749998696,
      "v": 78
    },
    {
      "midi": 74,
      "hit": false,
      "t": 189339.04200000013,
      "d": 344.92818749998696,
      "v": 81
    },
    {
      "midi": 70,
      "hit": false,
      "t": 189905.07800000013,
      "d": 344.92818749998696,
      "v": 76
    },
    {
      "midi": 74,
      "hit": false,
      "t": 189905.07800000013,
      "d": 344.92818749998696,
      "v": 80
    },
    {
      "midi": 70,
      "hit": false,
      "t": 190471.11400000012,
      "d": 344.92818749998696,
      "v": 79
    },
    {
      "midi": 75,
      "hit": false,
      "t": 190471.11400000012,
      "d": 344.92818749998696,
      "v": 75
    },
    {
      "midi": 70,
      "hit": false,
      "t": 191037.1500000001,
      "d": 344.92818749998696,
      "v": 77
    },
    {
      "midi": 75,
      "hit": false,
      "t": 191037.1500000001,
      "d": 344.92818749998696,
      "v": 79
    },
    {
      "midi": 69,
      "hit": false,
      "t": 191603.1860000001,
      "d": 344.92818749998696,
      "v": 79
    },
    {
      "midi": 77,
      "hit": false,
      "t": 191603.1860000001,
      "d": 344.92818749998696,
      "v": 82
    },
    {
      "midi": 69,
      "hit": false,
      "t": 192169.2220000001,
      "d": 344.92818749998696,
      "v": 79
    },
    {
      "midi": 77,
      "hit": false,
      "t": 192169.2220000001,
      "d": 344.92818749998696,
      "v": 82
    },
    {
      "midi": 70,
      "hit": false,
      "t": 192735.2580000001,
      "d": 344.92818749998696,
      "v": 81
    },
    {
      "midi": 74,
      "hit": false,
      "t": 192735.2580000001,
      "d": 344.92818749998696,
      "v": 81
    },
    {
      "midi": 70,
      "hit": false,
      "t": 193301.29400000008,
      "d": 344.92818749998696,
      "v": 80
    },
    {
      "midi": 74,
      "hit": false,
      "t": 193301.29400000008,
      "d": 344.92818749998696,
      "v": 83
    },
    {
      "midi": 70,
      "hit": false,
      "t": 193867.33000000007,
      "d": 344.92818749998696,
      "v": 80
    },
    {
      "midi": 74,
      "hit": false,
      "t": 193867.33000000007,
      "d": 344.92818749998696,
      "v": 83
    },
    {
      "midi": 70,
      "hit": false,
      "t": 194433.36600000007,
      "d": 344.92818749998696,
      "v": 81
    },
    {
      "midi": 75,
      "hit": false,
      "t": 194433.36600000007,
      "d": 344.92818749998696,
      "v": 81
    },
    {
      "midi": 70,
      "hit": false,
      "t": 194999.40200000006,
      "d": 344.92818749998696,
      "v": 83
    },
    {
      "midi": 75,
      "hit": false,
      "t": 194999.40200000006,
      "d": 344.92818749998696,
      "v": 82
    },
    {
      "midi": 75,
      "hit": false,
      "t": 195565.43800000005,
      "d": 344.92818749998696,
      "v": 81
    },
    {
      "midi": 79,
      "hit": false,
      "t": 195565.43800000005,
      "d": 344.92818749998696,
      "v": 81
    },
    {
      "midi": 72,
      "hit": false,
      "t": 196131.47400000005,
      "d": 344.92818749998696,
      "v": 79
    },
    {
      "midi": 77,
      "hit": false,
      "t": 196131.47400000005,
      "d": 344.92818749998696,
      "v": 82
    },
    {
      "midi": 69,
      "hit": false,
      "t": 196697.51000000004,
      "d": 344.92818749998696,
      "v": 83
    },
    {
      "midi": 75,
      "hit": false,
      "t": 196697.51000000004,
      "d": 344.92818749998696,
      "v": 86
    },
    {
      "midi": 70,
      "hit": false,
      "t": 197263.54600000003,
      "d": 344.92818749998696,
      "v": 81
    },
    {
      "midi": 74,
      "hit": false,
      "t": 197263.54600000003,
      "d": 344.92818749998696,
      "v": 85
    },
    {
      "midi": 70,
      "hit": false,
      "t": 197829.58200000002,
      "d": 344.92818749998696,
      "v": 79
    },
    {
      "midi": 74,
      "hit": false,
      "t": 197829.58200000002,
      "d": 344.92818749998696,
      "v": 85
    },
    {
      "midi": 70,
      "hit": false,
      "t": 198395.61800000002,
      "d": 344.92818749998696,
      "v": 79
    },
    {
      "midi": 74,
      "hit": false,
      "t": 198395.61800000002,
      "d": 344.92818749998696,
      "v": 82
    },
    {
      "midi": 70,
      "hit": false,
      "t": 198961.654,
      "d": 344.92818749998696,
      "v": 80
    },
    {
      "midi": 73,
      "hit": false,
      "t": 198961.654,
      "d": 344.92818749998696,
      "v": 82
    },
    {
      "midi": 70,
      "hit": false,
      "t": 199527.69,
      "d": 344.92818749998696,
      "v": 79
    },
    {
      "midi": 75,
      "hit": false,
      "t": 199527.69,
      "d": 344.92818749998696,
      "v": 81
    },
    {
      "midi": 70,
      "hit": false,
      "t": 200093.726,
      "d": 344.92818749998696,
      "v": 81
    },
    {
      "midi": 74,
      "hit": false,
      "t": 200093.726,
      "d": 344.92818749998696,
      "v": 85
    },
    {
      "midi": 65,
      "hit": false,
      "t": 200659.762,
      "d": 344.92818749998696,
      "v": 76
    },
    {
      "midi": 72,
      "hit": false,
      "t": 200659.762,
      "d": 344.92818749998696,
      "v": 83
    },
    {
      "midi": 65,
      "hit": false,
      "t": 201225.79799999998,
      "d": 344.92818749998696,
      "v": 77
    },
    {
      "midi": 70,
      "hit": false,
      "t": 201225.79799999998,
      "d": 344.92818749998696,
      "v": 82
    },
    {
      "midi": 69,
      "hit": false,
      "t": 201791.83399999997,
      "d": 344.92818749998696,
      "v": 83
    },
    {
      "midi": 72,
      "hit": false,
      "t": 201791.83399999997,
      "d": 344.92818749998696,
      "v": 79
    },
    {
      "midi": 69,
      "hit": false,
      "t": 202357.86999999997,
      "d": 344.92818749998696,
      "v": 82
    },
    {
      "midi": 72,
      "hit": false,
      "t": 202357.86999999997,
      "d": 344.92818749998696,
      "v": 78
    },
    {
      "midi": 69,
      "hit": false,
      "t": 202923.90599999996,
      "d": 344.92818749998696,
      "v": 81
    },
    {
      "midi": 72,
      "hit": false,
      "t": 202923.90599999996,
      "d": 344.92818749998696,
      "v": 79
    },
    {
      "midi": 69,
      "hit": false,
      "t": 203489.94199999995,
      "d": 344.92818749998696,
      "v": 82
    },
    {
      "midi": 72,
      "hit": false,
      "t": 203489.94199999995,
      "d": 344.92818749998696,
      "v": 80
    },
    {
      "midi": 69,
      "hit": false,
      "t": 204055.97799999994,
      "d": 344.92818749998696,
      "v": 80
    },
    {
      "midi": 72,
      "hit": false,
      "t": 204055.97799999994,
      "d": 344.92818749998696,
      "v": 84
    },
    {
      "midi": 69,
      "hit": false,
      "t": 204622.01399999994,
      "d": 344.92818749998696,
      "v": 83
    },
    {
      "midi": 72,
      "hit": false,
      "t": 204622.01399999994,
      "d": 344.92818749998696,
      "v": 83
    },
    {
      "midi": 69,
      "hit": false,
      "t": 205188.04999999993,
      "d": 344.92818749998696,
      "v": 82
    },
    {
      "midi": 75,
      "hit": false,
      "t": 205188.04999999993,
      "d": 344.92818749998696,
      "v": 81
    },
    {
      "midi": 69,
      "hit": false,
      "t": 205754.08599999992,
      "d": 265.32937500000116,
      "v": 80
    },
    {
      "midi": 75,
      "hit": false,
      "t": 205754.08599999992,
      "d": 265.32937500000116,
      "v": 78
    },
    {
      "midi": 70,
      "hit": false,
      "t": 206037.10399999993,
      "d": 627.9461874999979,
      "v": 80
    },
    {
      "midi": 74,
      "hit": false,
      "t": 206037.10399999993,
      "d": 627.9461874999979,
      "v": 78
    }
  ]
}