{
  "jsonPath": "Blues/Ragtime/Scott Joplin/kismet-rag.json",
  "path": "Blues\\Ragtime\\Scott Joplin\\Kismet Rag.mid",
  "name": "Kismet Rag",
  "difficulty": "Advanced",
  "bpm": 100,
  "notes": [
    {
      "midi": 67,
      "hit": false,
      "t": 4112.5,
      "d": 487.5,
      "v": 108
    },
    {
      "midi": 55,
      "hit": false,
      "t": 4128.125,
      "d": 481.25,
      "v": 92
    },
    {
      "midi": 72,
      "hit": false,
      "t": 4581.25,
      "d": 1121.875,
      "v": 108
    },
    {
      "midi": 60,
      "hit": false,
      "t": 4600,
      "d": 1106.25,
      "v": 80
    },
    {
      "midi": 67,
      "hit": false,
      "t": 5725,
      "d": 234.375,
      "v": 106
    },
    {
      "midi": 55,
      "hit": false,
      "t": 5728.125,
      "d": 221.875,
      "v": 72
    },
    {
      "midi": 72,
      "hit": false,
      "t": 5928.125,
      "d": 165.625,
      "v": 108
    },
    {
      "midi": 60,
      "hit": false,
      "t": 5931.25,
      "d": 209.375,
      "v": 84
    },
    {
      "midi": 76,
      "hit": false,
      "t": 6125,
      "d": 243.75,
      "v": 114
    },
    {
      "midi": 64,
      "hit": false,
      "t": 6131.25,
      "d": 231.25,
      "v": 91
    },
    {
      "midi": 79,
      "hit": false,
      "t": 6362.5,
      "d": 1331.25,
      "v": 99
    },
    {
      "midi": 67,
      "hit": false,
      "t": 6378.125,
      "d": 1325,
      "v": 83
    },
    {
      "midi": 76,
      "hit": false,
      "t": 7643.75,
      "d": 118.75,
      "v": 100
    },
    {
      "midi": 64,
      "hit": false,
      "t": 7656.25,
      "d": 62.5,
      "v": 72
    },
    {
      "midi": 74,
      "hit": false,
      "t": 8093.75,
      "d": 200,
      "v": 101
    },
    {
      "midi": 62,
      "hit": false,
      "t": 8106.25,
      "d": 156.25,
      "v": 71
    },
    {
      "midi": 64,
      "hit": false,
      "t": 8293.75,
      "d": 159.375,
      "v": 74
    },
    {
      "midi": 76,
      "hit": false,
      "t": 8300,
      "d": 253.125,
      "v": 102
    },
    {
      "midi": 74,
      "hit": false,
      "t": 8506.25,
      "d": 231.25,
      "v": 90
    },
    {
      "midi": 62,
      "hit": false,
      "t": 8512.5,
      "d": 171.875,
      "v": 37
    },
    {
      "midi": 72,
      "hit": false,
      "t": 8690.625,
      "d": 184.375,
      "v": 94
    },
    {
      "midi": 60,
      "hit": false,
      "t": 8693.75,
      "d": 171.875,
      "v": 91
    },
    {
      "midi": 59,
      "hit": false,
      "t": 8887.5,
      "d": 153.125,
      "v": 70
    },
    {
      "midi": 71,
      "hit": false,
      "t": 8896.875,
      "d": 200,
      "v": 88
    },
    {
      "midi": 60,
      "hit": false,
      "t": 9084.375,
      "d": 196.875,
      "v": 77
    },
    {
      "midi": 72,
      "hit": false,
      "t": 9103.125,
      "d": 150,
      "v": 88
    },
    {
      "midi": 59,
      "hit": false,
      "t": 9290.625,
      "d": 203.125,
      "v": 58
    },
    {
      "midi": 71,
      "hit": false,
      "t": 9300,
      "d": 146.875,
      "v": 62
    },
    {
      "midi": 57,
      "hit": false,
      "t": 9487.5,
      "d": 212.5,
      "v": 91
    },
    {
      "midi": 69,
      "hit": false,
      "t": 9496.875,
      "d": 228.125,
      "v": 70
    },
    {
      "midi": 67,
      "hit": false,
      "t": 9721.875,
      "d": 537.5,
      "v": 95
    },
    {
      "midi": 55,
      "hit": false,
      "t": 9734.375,
      "d": 487.5,
      "v": 75
    },
    {
      "midi": 71,
      "hit": false,
      "t": 10603.125,
      "d": 134.375,
      "v": 93
    },
    {
      "midi": 79,
      "hit": false,
      "t": 10603.125,
      "d": 165.625,
      "v": 111
    },
    {
      "midi": 67,
      "hit": false,
      "t": 10606.25,
      "d": 128.125,
      "v": 111
    },
    {
      "midi": 55,
      "hit": false,
      "t": 10612.5,
      "d": 125,
      "v": 102
    },
    {
      "midi": 74,
      "hit": false,
      "t": 10612.5,
      "d": 128.125,
      "v": 104
    },
    {
      "midi": 43,
      "hit": false,
      "t": 10618.75,
      "d": 153.125,
      "v": 92
    },
    {
      "midi": 74,
      "hit": false,
      "t": 11056.25,
      "d": 140.625,
      "v": 108
    },
    {
      "midi": 71,
      "hit": false,
      "t": 11056.25,
      "d": 143.75,
      "v": 98
    },
    {
      "midi": 83,
      "hit": false,
      "t": 11056.25,
      "d": 178.125,
      "v": 100
    },
    {
      "midi": 79,
      "hit": false,
      "t": 11065.625,
      "d": 146.875,
      "v": 105
    },
    {
      "midi": 53,
      "hit": false,
      "t": 11075,
      "d": 112.5,
      "v": 104
    },
    {
      "midi": 41,
      "hit": false,
      "t": 11075,
      "d": 121.875,
      "v": 108
    },
    {
      "midi": 47,
      "hit": false,
      "t": 11312.5,
      "d": 68.75,
      "v": 64
    },
    {
      "midi": 84,
      "hit": false,
      "t": 11500,
      "d": 215.625,
      "v": 108
    },
    {
      "midi": 76,
      "hit": false,
      "t": 11506.25,
      "d": 146.875,
      "v": 108
    },
    {
      "midi": 72,
      "hit": false,
      "t": 11506.25,
      "d": 168.75,
      "v": 103
    },
    {
      "midi": 79,
      "hit": false,
      "t": 11515.625,
      "d": 131.25,
      "v": 101
    },
    {
      "midi": 40,
      "hit": false,
      "t": 11518.75,
      "d": 31.25,
      "v": 108
    },
    {
      "midi": 52,
      "hit": false,
      "t": 11521.875,
      "d": 109.375,
      "v": 105
    },
    {
      "midi": 79,
      "hit": false,
      "t": 11765.625,
      "d": 103.125,
      "v": 94
    },
    {
      "midi": 64,
      "hit": false,
      "t": 11931.25,
      "d": 37.5,
      "v": 74
    },
    {
      "midi": 55,
      "hit": false,
      "t": 11937.5,
      "d": 93.75,
      "v": 64
    },
    {
      "midi": 81,
      "hit": false,
      "t": 11943.75,
      "d": 146.875,
      "v": 84
    },
    {
      "midi": 60,
      "hit": false,
      "t": 11950,
      "d": 40.625,
      "v": 69
    },
    {
      "midi": 84,
      "hit": false,
      "t": 12181.25,
      "d": 262.5,
      "v": 98
    },
    {
      "midi": 79,
      "hit": false,
      "t": 12187.5,
      "d": 303.125,
      "v": 88
    },
    {
      "midi": 76,
      "hit": false,
      "t": 12193.75,
      "d": 312.5,
      "v": 84
    },
    {
      "midi": 72,
      "hit": false,
      "t": 12196.875,
      "d": 296.875,
      "v": 75
    },
    {
      "midi": 43,
      "hit": false,
      "t": 12375,
      "d": 68.75,
      "v": 77
    },
    {
      "midi": 52,
      "hit": false,
      "t": 12453.125,
      "d": 46.875,
      "v": 6
    },
    {
      "midi": 81,
      "hit": false,
      "t": 12606.25,
      "d": 300,
      "v": 97
    },
    {
      "midi": 76,
      "hit": false,
      "t": 12615.625,
      "d": 271.875,
      "v": 69
    },
    {
      "midi": 72,
      "hit": false,
      "t": 12625,
      "d": 287.5,
      "v": 54
    },
    {
      "midi": 64,
      "hit": false,
      "t": 12775,
      "d": 53.125,
      "v": 78
    },
    {
      "midi": 60,
      "hit": false,
      "t": 12787.5,
      "d": 46.875,
      "v": 79
    },
    {
      "midi": 55,
      "hit": false,
      "t": 12787.5,
      "d": 90.625,
      "v": 70
    },
    {
      "midi": 76,
      "hit": false,
      "t": 13003.125,
      "d": 118.75,
      "v": 88
    },
    {
      "midi": 69,
      "hit": false,
      "t": 13184.375,
      "d": 121.875,
      "v": 94
    },
    {
      "midi": 81,
      "hit": false,
      "t": 13184.375,
      "d": 153.125,
      "v": 97
    },
    {
      "midi": 60,
      "hit": false,
      "t": 13193.75,
      "d": 143.75,
      "v": 84
    },
    {
      "midi": 48,
      "hit": false,
      "t": 13200,
      "d": 84.375,
      "v": 79
    },
    {
      "midi": 72,
      "hit": false,
      "t": 13396.875,
      "d": 75,
      "v": 79
    },
    {
      "midi": 76,
      "hit": false,
      "t": 13590.625,
      "d": 90.625,
      "v": 85
    },
    {
      "midi": 64,
      "hit": false,
      "t": 13593.75,
      "d": 46.875,
      "v": 58
    },
    {
      "midi": 60,
      "hit": false,
      "t": 13603.125,
      "d": 46.875,
      "v": 61
    },
    {
      "midi": 55,
      "hit": false,
      "t": 13603.125,
      "d": 68.75,
      "v": 52
    },
    {
      "midi": 79,
      "hit": false,
      "t": 13809.375,
      "d": 246.875,
      "v": 76
    },
    {
      "midi": 72,
      "hit": false,
      "t": 13825,
      "d": 271.875,
      "v": 51
    },
    {
      "midi": 76,
      "hit": false,
      "t": 13831.25,
      "d": 246.875,
      "v": 59
    },
    {
      "midi": 67,
      "hit": false,
      "t": 13831.25,
      "d": 262.5,
      "v": 51
    },
    {
      "midi": 46,
      "hit": false,
      "t": 14000,
      "d": 78.125,
      "v": 98
    },
    {
      "midi": 58,
      "hit": false,
      "t": 14006.25,
      "d": 125,
      "v": 104
    },
    {
      "midi": 76,
      "hit": false,
      "t": 14225,
      "d": 312.5,
      "v": 94
    },
    {
      "midi": 67,
      "hit": false,
      "t": 14231.25,
      "d": 271.875,
      "v": 66
    },
    {
      "midi": 72,
      "hit": false,
      "t": 14234.375,
      "d": 253.125,
      "v": 63
    },
    {
      "midi": 64,
      "hit": false,
      "t": 14390.625,
      "d": 40.625,
      "v": 79
    },
    {
      "midi": 60,
      "hit": false,
      "t": 14403.125,
      "d": 43.75,
      "v": 69
    },
    {
      "midi": 58,
      "hit": false,
      "t": 14403.125,
      "d": 71.875,
      "v": 80
    },
    {
      "midi": 72,
      "hit": false,
      "t": 14615.625,
      "d": 115.625,
      "v": 91
    },
    {
      "midi": 57,
      "hit": false,
      "t": 14796.875,
      "d": 93.75,
      "v": 90
    },
    {
      "midi": 74,
      "hit": false,
      "t": 14796.875,
      "d": 203.125,
      "v": 98
    },
    {
      "midi": 65,
      "hit": false,
      "t": 14806.25,
      "d": 706.25,
      "v": 88
    },
    {
      "midi": 45,
      "hit": false,
      "t": 14818.75,
      "d": 96.875,
      "v": 81
    },
    {
      "midi": 72,
      "hit": false,
      "t": 15012.5,
      "d": 131.25,
      "v": 93
    },
    {
      "midi": 53,
      "hit": false,
      "t": 15196.875,
      "d": 65.625,
      "v": 62
    },
    {
      "midi": 74,
      "hit": false,
      "t": 15203.125,
      "d": 171.875,
      "v": 82
    },
    {
      "midi": 41,
      "hit": false,
      "t": 15206.25,
      "d": 103.125,
      "v": 74
    },
    {
      "midi": 76,
      "hit": false,
      "t": 15412.5,
      "d": 196.875,
      "v": 87
    },
    {
      "midi": 38,
      "hit": false,
      "t": 15578.125,
      "d": 81.25,
      "v": 74
    },
    {
      "midi": 50,
      "hit": false,
      "t": 15578.125,
      "d": 146.875,
      "v": 71
    },
    {
      "midi": 74,
      "hit": false,
      "t": 15593.75,
      "d": 140.625,
      "v": 73
    },
    {
      "midi": 72,
      "hit": false,
      "t": 15775,
      "d": 43.75,
      "v": 88
    },
    {
      "midi": 69,
      "hit": false,
      "t": 15962.5,
      "d": 296.875,
      "v": 105
    },
    {
      "midi": 39,
      "hit": false,
      "t": 15971.875,
      "d": 128.125,
      "v": 81
    },
    {
      "midi": 51,
      "hit": false,
      "t": 15978.125,
      "d": 140.625,
      "v": 83
    },
    {
      "midi": 60,
      "hit": false,
      "t": 15981.25,
      "d": 143.75,
      "v": 73
    },
    {
      "midi": 62,
      "hit": false,
      "t": 16003.125,
      "d": 46.875,
      "v": 63
    },
    {
      "midi": 67,
      "hit": false,
      "t": 16175,
      "d": 115.625,
      "v": 88
    },
    {
      "midi": 67,
      "hit": false,
      "t": 16353.125,
      "d": 146.875,
      "v": 106
    },
    {
      "midi": 72,
      "hit": false,
      "t": 16353.125,
      "d": 171.875,
      "v": 113
    },
    {
      "midi": 60,
      "hit": false,
      "t": 16359.375,
      "d": 106.25,
      "v": 112
    },
    {
      "midi": 40,
      "hit": false,
      "t": 16368.75,
      "d": 93.75,
      "v": 104
    },
    {
      "midi": 52,
      "hit": false,
      "t": 16368.75,
      "d": 118.75,
      "v": 109
    },
    {
      "midi": 72,
      "hit": false,
      "t": 16762.5,
      "d": 253.125,
      "v": 111
    },
    {
      "midi": 76,
      "hit": false,
      "t": 16765.625,
      "d": 159.375,
      "v": 121
    },
    {
      "midi": 55,
      "hit": false,
      "t": 16765.625,
      "d": 184.375,
      "v": 103
    },
    {
      "midi": 43,
      "hit": false,
      "t": 16768.75,
      "d": 146.875,
      "v": 94
    },
    {
      "midi": 79,
      "hit": false,
      "t": 16950,
      "d": 125,
      "v": 111
    },
    {
      "midi": 72,
      "hit": false,
      "t": 17156.25,
      "d": 243.75,
      "v": 114
    },
    {
      "midi": 74,
      "hit": false,
      "t": 17159.375,
      "d": 262.5,
      "v": 119
    },
    {
      "midi": 81,
      "hit": false,
      "t": 17162.5,
      "d": 212.5,
      "v": 115
    },
    {
      "midi": 54,
      "hit": false,
      "t": 17168.75,
      "d": 215.625,
      "v": 112
    },
    {
      "midi": 42,
      "hit": false,
      "t": 17168.75,
      "d": 234.375,
      "v": 104
    },
    {
      "midi": 83,
      "hit": false,
      "t": 17206.25,
      "d": 40.625,
      "v": 17
    },
    {
      "midi": 74,
      "hit": false,
      "t": 17565.625,
      "d": 156.25,
      "v": 115
    },
    {
      "midi": 83,
      "hit": false,
      "t": 17565.625,
      "d": 203.125,
      "v": 101
    },
    {
      "midi": 53,
      "hit": false,
      "t": 17571.875,
      "d": 131.25,
      "v": 98
    },
    {
      "midi": 79,
      "hit": false,
      "t": 17571.875,
      "d": 181.25,
      "v": 109
    },
    {
      "midi": 41,
      "hit": false,
      "t": 17575,
      "d": 150,
      "v": 104
    },
    {
      "midi": 71,
      "hit": false,
      "t": 17600,
      "d": 40.625,
      "v": 33
    },
    {
      "midi": 47,
      "hit": false,
      "t": 17790.625,
      "d": 121.875,
      "v": 81
    },
    {
      "midi": 84,
      "hit": false,
      "t": 17981.25,
      "d": 296.875,
      "v": 115
    },
    {
      "midi": 72,
      "hit": false,
      "t": 17984.375,
      "d": 334.375,
      "v": 115
    },
    {
      "midi": 40,
      "hit": false,
      "t": 17990.625,
      "d": 46.875,
      "v": 109
    },
    {
      "midi": 52,
      "hit": false,
      "t": 17993.75,
      "d": 109.375,
      "v": 111
    },
    {
      "midi": 79,
      "hit": false,
      "t": 18200,
      "d": 106.25,
      "v": 93
    },
    {
      "midi": 81,
      "hit": false,
      "t": 18381.25,
      "d": 165.625,
      "v": 87
    },
    {
      "midi": 64,
      "hit": false,
      "t": 18384.375,
      "d": 40.625,
      "v": 81
    },
    {
      "midi": 60,
      "hit": false,
      "t": 18403.125,
      "d": 40.625,
      "v": 78
    },
    {
      "midi": 55,
      "hit": false,
      "t": 18412.5,
      "d": 50,
      "v": 60
    },
    {
      "midi": 84,
      "hit": false,
      "t": 18603.125,
      "d": 243.75,
      "v": 82
    },
    {
      "midi": 79,
      "hit": false,
      "t": 18606.25,
      "d": 278.125,
      "v": 71
    },
    {
      "midi": 72,
      "hit": false,
      "t": 18621.875,
      "d": 243.75,
      "v": 67
    },
    {
      "midi": 76,
      "hit": false,
      "t": 18621.875,
      "d": 268.75,
      "v": 69
    },
    {
      "midi": 43,
      "hit": false,
      "t": 18781.25,
      "d": 62.5,
      "v": 79
    },
    {
      "midi": 52,
      "hit": false,
      "t": 18815.625,
      "d": 50,
      "v": 47
    },
    {
      "midi": 81,
      "hit": false,
      "t": 19003.125,
      "d": 284.375,
      "v": 91
    },
    {
      "midi": 76,
      "hit": false,
      "t": 19009.375,
      "d": 284.375,
      "v": 72
    },
    {
      "midi": 72,
      "hit": false,
      "t": 19025,
      "d": 281.25,
      "v": 62
    },
    {
      "midi": 64,
      "hit": false,
      "t": 19181.25,
      "d": 37.5,
      "v": 76
    },
    {
      "midi": 55,
      "hit": false,
      "t": 19187.5,
      "d": 68.75,
      "v": 71
    },
    {
      "midi": 60,
      "hit": false,
      "t": 19193.75,
      "d": 40.625,
      "v": 79
    },
    {
      "midi": 76,
      "hit": false,
      "t": 19393.75,
      "d": 121.875,
      "v": 83
    },
    {
      "midi": 69,
      "hit": false,
      "t": 19581.25,
      "d": 112.5,
      "v": 92
    },
    {
      "midi": 81,
      "hit": false,
      "t": 19581.25,
      "d": 156.25,
      "v": 92
    },
    {
      "midi": 48,
      "hit": false,
      "t": 19593.75,
      "d": 50,
      "v": 68
    },
    {
      "midi": 55,
      "hit": false,
      "t": 19596.875,
      "d": 84.375,
      "v": 63
    },
    {
      "midi": 72,
      "hit": false,
      "t": 19775,
      "d": 93.75,
      "v": 78
    },
    {
      "midi": 55,
      "hit": false,
      "t": 19965.625,
      "d": 65.625,
      "v": 65
    },
    {
      "midi": 60,
      "hit": false,
      "t": 19968.75,
      "d": 43.75,
      "v": 62
    },
    {
      "midi": 64,
      "hit": false,
      "t": 19971.875,
      "d": 65.625,
      "v": 40
    },
    {
      "midi": 76,
      "hit": false,
      "t": 19975,
      "d": 59.375,
      "v": 86
    },
    {
      "midi": 79,
      "hit": false,
      "t": 20175,
      "d": 228.125,
      "v": 81
    },
    {
      "midi": 67,
      "hit": false,
      "t": 20181.25,
      "d": 250,
      "v": 71
    },
    {
      "midi": 73,
      "hit": false,
      "t": 20200,
      "d": 231.25,
      "v": 64
    },
    {
      "midi": 57,
      "hit": false,
      "t": 20359.375,
      "d": 115.625,
      "v": 80
    },
    {
      "midi": 45,
      "hit": false,
      "t": 20368.75,
      "d": 121.875,
      "v": 69
    },
    {
      "midi": 76,
      "hit": false,
      "t": 20581.25,
      "d": 303.125,
      "v": 87
    },
    {
      "midi": 67,
      "hit": false,
      "t": 20581.25,
      "d": 428.125,
      "v": 79
    },
    {
      "midi": 73,
      "hit": false,
      "t": 20587.5,
      "d": 287.5,
      "v": 74
    },
    {
      "midi": 55,
      "hit": false,
      "t": 20740.625,
      "d": 93.75,
      "v": 94
    },
    {
      "midi": 43,
      "hit": false,
      "t": 20746.875,
      "d": 100,
      "v": 82
    },
    {
      "midi": 73,
      "hit": false,
      "t": 20953.125,
      "d": 143.75,
      "v": 86
    },
    {
      "midi": 74,
      "hit": false,
      "t": 21150,
      "d": 184.375,
      "v": 112
    },
    {
      "midi": 42,
      "hit": false,
      "t": 21156.25,
      "d": 93.75,
      "v": 95
    },
    {
      "midi": 73,
      "hit": false,
      "t": 21362.5,
      "d": 140.625,
      "v": 98
    },
    {
      "midi": 60,
      "hit": false,
      "t": 21550,
      "d": 43.75,
      "v": 81
    },
    {
      "midi": 74,
      "hit": false,
      "t": 21550,
      "d": 121.875,
      "v": 87
    },
    {
      "midi": 62,
      "hit": false,
      "t": 21553.125,
      "d": 46.875,
      "v": 69
    },
    {
      "midi": 54,
      "hit": false,
      "t": 21553.125,
      "d": 84.375,
      "v": 68
    },
    {
      "midi": 73,
      "hit": false,
      "t": 21731.25,
      "d": 153.125,
      "v": 90
    },
    {
      "midi": 74,
      "hit": false,
      "t": 21928.125,
      "d": 131.25,
      "v": 78
    },
    {
      "midi": 38,
      "hit": false,
      "t": 21943.75,
      "d": 43.75,
      "v": 78
    },
    {
      "midi": 75,
      "hit": false,
      "t": 22134.375,
      "d": 121.875,
      "v": 76
    },
    {
      "midi": 76,
      "hit": false,
      "t": 22312.5,
      "d": 62.5,
      "v": 92
    },
    {
      "midi": 54,
      "hit": false,
      "t": 22318.75,
      "d": 56.25,
      "v": 57
    },
    {
      "midi": 60,
      "hit": false,
      "t": 22325,
      "d": 59.375,
      "v": 54
    },
    {
      "midi": 62,
      "hit": false,
      "t": 22325,
      "d": 59.375,
      "v": 65
    },
    {
      "midi": 78,
      "hit": false,
      "t": 22490.625,
      "d": 137.5,
      "v": 73
    },
    {
      "midi": 62,
      "hit": false,
      "t": 22675,
      "d": 43.75,
      "v": 76
    },
    {
      "midi": 79,
      "hit": false,
      "t": 22687.5,
      "d": 103.125,
      "v": 81
    },
    {
      "midi": 55,
      "hit": false,
      "t": 22690.625,
      "d": 84.375,
      "v": 70
    },
    {
      "midi": 59,
      "hit": false,
      "t": 22693.75,
      "d": 37.5,
      "v": 59
    },
    {
      "midi": 74,
      "hit": false,
      "t": 22703.125,
      "d": 50,
      "v": 72
    },
    {
      "midi": 71,
      "hit": false,
      "t": 22706.25,
      "d": 62.5,
      "v": 42
    },
    {
      "midi": 71,
      "hit": false,
      "t": 23084.375,
      "d": 146.875,
      "v": 83
    },
    {
      "midi": 83,
      "hit": false,
      "t": 23087.5,
      "d": 171.875,
      "v": 86
    },
    {
      "midi": 43,
      "hit": false,
      "t": 23093.75,
      "d": 115.625,
      "v": 76
    },
    {
      "midi": 55,
      "hit": false,
      "t": 23093.75,
      "d": 200,
      "v": 86
    },
    {
      "midi": 74,
      "hit": false,
      "t": 23209.375,
      "d": 140.625,
      "v": 86
    },
    {
      "midi": 77,
      "hit": false,
      "t": 23359.375,
      "d": 137.5,
      "v": 79
    },
    {
      "midi": 69,
      "hit": false,
      "t": 23475,
      "d": 196.875,
      "v": 91
    },
    {
      "midi": 81,
      "hit": false,
      "t": 23481.25,
      "d": 175,
      "v": 85
    },
    {
      "midi": 57,
      "hit": false,
      "t": 23487.5,
      "d": 209.375,
      "v": 104
    },
    {
      "midi": 45,
      "hit": false,
      "t": 23490.625,
      "d": 106.25,
      "v": 97
    },
    {
      "midi": 74,
      "hit": false,
      "t": 23584.375,
      "d": 187.5,
      "v": 80
    },
    {
      "midi": 77,
      "hit": false,
      "t": 23718.75,
      "d": 68.75,
      "v": 83
    },
    {
      "midi": 59,
      "hit": false,
      "t": 23865.625,
      "d": 153.125,
      "v": 103
    },
    {
      "midi": 67,
      "hit": false,
      "t": 23865.625,
      "d": 165.625,
      "v": 102
    },
    {
      "midi": 79,
      "hit": false,
      "t": 23865.625,
      "d": 187.5,
      "v": 105
    },
    {
      "midi": 47,
      "hit": false,
      "t": 23868.75,
      "d": 103.125,
      "v": 90
    },
    {
      "midi": 74,
      "hit": false,
      "t": 24012.5,
      "d": 109.375,
      "v": 74
    },
    {
      "midi": 52,
      "hit": false,
      "t": 24112.5,
      "d": 87.5,
      "v": 32
    },
    {
      "midi": 48,
      "hit": false,
      "t": 24268.75,
      "d": 96.875,
      "v": 98
    },
    {
      "midi": 60,
      "hit": false,
      "t": 24275,
      "d": 131.25,
      "v": 100
    },
    {
      "midi": 72,
      "hit": false,
      "t": 24275,
      "d": 243.75,
      "v": 111
    },
    {
      "midi": 84,
      "hit": false,
      "t": 24275,
      "d": 265.625,
      "v": 112
    },
    {
      "midi": 79,
      "hit": false,
      "t": 24493.75,
      "d": 156.25,
      "v": 85
    },
    {
      "midi": 64,
      "hit": false,
      "t": 24653.125,
      "d": 40.625,
      "v": 88
    },
    {
      "midi": 60,
      "hit": false,
      "t": 24668.75,
      "d": 50,
      "v": 71
    },
    {
      "midi": 81,
      "hit": false,
      "t": 24675,
      "d": 165.625,
      "v": 85
    },
    {
      "midi": 55,
      "hit": false,
      "t": 24681.25,
      "d": 62.5,
      "v": 64
    },
    {
      "midi": 57,
      "hit": false,
      "t": 24684.375,
      "d": 65.625,
      "v": 73
    },
    {
      "midi": 84,
      "hit": false,
      "t": 24890.625,
      "d": 240.625,
      "v": 106
    },
    {
      "midi": 72,
      "hit": false,
      "t": 24890.625,
      "d": 290.625,
      "v": 106
    },
    {
      "midi": 76,
      "hit": false,
      "t": 24890.625,
      "d": 309.375,
      "v": 105
    },
    {
      "midi": 81,
      "hit": false,
      "t": 24900,
      "d": 296.875,
      "v": 108
    },
    {
      "midi": 79,
      "hit": false,
      "t": 24906.25,
      "d": 290.625,
      "v": 97
    },
    {
      "midi": 43,
      "hit": false,
      "t": 25062.5,
      "d": 65.625,
      "v": 87
    },
    {
      "midi": 52,
      "hit": false,
      "t": 25075,
      "d": 96.875,
      "v": 76
    },
    {
      "midi": 81,
      "hit": false,
      "t": 25281.25,
      "d": 243.75,
      "v": 104
    },
    {
      "midi": 76,
      "hit": false,
      "t": 25287.5,
      "d": 265.625,
      "v": 101
    },
    {
      "midi": 72,
      "hit": false,
      "t": 25293.75,
      "d": 281.25,
      "v": 88
    },
    {
      "midi": 64,
      "hit": false,
      "t": 25437.5,
      "d": 34.375,
      "v": 95
    },
    {
      "midi": 60,
      "hit": false,
      "t": 25450,
      "d": 34.375,
      "v": 86
    },
    {
      "midi": 55,
      "hit": false,
      "t": 25450,
      "d": 90.625,
      "v": 83
    },
    {
      "midi": 57,
      "hit": false,
      "t": 25478.125,
      "d": 46.875,
      "v": 48
    },
    {
      "midi": 76,
      "hit": false,
      "t": 25662.5,
      "d": 125,
      "v": 99
    },
    {
      "midi": 69,
      "hit": false,
      "t": 25837.5,
      "d": 225,
      "v": 109
    },
    {
      "midi": 81,
      "hit": false,
      "t": 25837.5,
      "d": 250,
      "v": 112
    },
    {
      "midi": 36,
      "hit": false,
      "t": 25843.75,
      "d": 31.25,
      "v": 87
    },
    {
      "midi": 48,
      "hit": false,
      "t": 25850,
      "d": 100,
      "v": 94
    },
    {
      "midi": 72,
      "hit": false,
      "t": 26037.5,
      "d": 118.75,
      "v": 94
    },
    {
      "midi": 64,
      "hit": false,
      "t": 26212.5,
      "d": 43.75,
      "v": 84
    },
    {
      "midi": 55,
      "hit": false,
      "t": 26225,
      "d": 59.375,
      "v": 73
    },
    {
      "midi": 58,
      "hit": false,
      "t": 26231.25,
      "d": 50,
      "v": 87
    },
    {
      "midi": 60,
      "hit": false,
      "t": 26237.5,
      "d": 37.5,
      "v": 71
    },
    {
      "midi": 76,
      "hit": false,
      "t": 26240.625,
      "d": 115.625,
      "v": 94
    },
    {
      "midi": 79,
      "hit": false,
      "t": 26431.25,
      "d": 425,
      "v": 105
    },
    {
      "midi": 76,
      "hit": false,
      "t": 26440.625,
      "d": 300,
      "v": 87
    },
    {
      "midi": 72,
      "hit": false,
      "t": 26443.75,
      "d": 278.125,
      "v": 91
    },
    {
      "midi": 67,
      "hit": false,
      "t": 26450,
      "d": 281.25,
      "v": 89
    },
    {
      "midi": 58,
      "hit": false,
      "t": 26618.75,
      "d": 100,
      "v": 112
    },
    {
      "midi": 46,
      "hit": false,
      "t": 26618.75,
      "d": 103.125,
      "v": 106
    },
    {
      "midi": 76,
      "hit": false,
      "t": 26818.75,
      "d": 78.125,
      "v": 104
    },
    {
      "midi": 67,
      "hit": false,
      "t": 26825,
      "d": 112.5,
      "v": 93
    },
    {
      "midi": 72,
      "hit": false,
      "t": 26828.125,
      "d": 65.625,
      "v": 89
    },
    {
      "midi": 60,
      "hit": false,
      "t": 26984.375,
      "d": 37.5,
      "v": 89
    },
    {
      "midi": 64,
      "hit": false,
      "t": 26984.375,
      "d": 37.5,
      "v": 92
    },
    {
      "midi": 58,
      "hit": false,
      "t": 26984.375,
      "d": 93.75,
      "v": 101
    },
    {
      "midi": 72,
      "hit": false,
      "t": 27193.75,
      "d": 162.5,
      "v": 97
    },
    {
      "midi": 57,
      "hit": false,
      "t": 27375,
      "d": 81.25,
      "v": 97
    },
    {
      "midi": 74,
      "hit": false,
      "t": 27375,
      "d": 146.875,
      "v": 102
    },
    {
      "midi": 65,
      "hit": false,
      "t": 27381.25,
      "d": 268.75,
      "v": 91
    },
    {
      "midi": 69,
      "hit": false,
      "t": 27384.375,
      "d": 143.75,
      "v": 98
    },
    {
      "midi": 45,
      "hit": false,
      "t": 27390.625,
      "d": 90.625,
      "v": 91
    },
    {
      "midi": 72,
      "hit": false,
      "t": 27587.5,
      "d": 115.625,
      "v": 85
    },
    {
      "midi": 53,
      "hit": false,
      "t": 27743.75,
      "d": 62.5,
      "v": 86
    },
    {
      "midi": 41,
      "hit": false,
      "t": 27746.875,
      "d": 96.875,
      "v": 92
    },
    {
      "midi": 74,
      "hit": false,
      "t": 27756.25,
      "d": 96.875,
      "v": 90
    },
    {
      "midi": 65,
      "hit": false,
      "t": 27765.625,
      "d": 68.75,
      "v": 54
    },
    {
      "midi": 69,
      "hit": false,
      "t": 27778.125,
      "d": 43.75,
      "v": 81
    },
    {
      "midi": 76,
      "hit": false,
      "t": 27953.125,
      "d": 34.375,
      "v": 110
    },
    {
      "midi": 74,
      "hit": false,
      "t": 28137.5,
      "d": 143.75,
      "v": 107
    },
    {
      "midi": 50,
      "hit": false,
      "t": 28137.5,
      "d": 200,
      "v": 92
    },
    {
      "midi": 38,
      "hit": false,
      "t": 28143.75,
      "d": 128.125,
      "v": 95
    },
    {
      "midi": 72,
      "hit": false,
      "t": 28343.75,
      "d": 56.25,
      "v": 88
    },
    {
      "midi": 60,
      "hit": false,
      "t": 28525,
      "d": 159.375,
      "v": 105
    },
    {
      "midi": 69,
      "hit": false,
      "t": 28525,
      "d": 284.375,
      "v": 108
    },
    {
      "midi": 39,
      "hit": false,
      "t": 28540.625,
      "d": 131.25,
      "v": 78
    },
    {
      "midi": 51,
      "hit": false,
      "t": 28543.75,
      "d": 156.25,
      "v": 92
    },
    {
      "midi": 67,
      "hit": false,
      "t": 28725,
      "d": 100,
      "v": 101
    },
    {
      "midi": 67,
      "hit": false,
      "t": 28925,
      "d": 559.375,
      "v": 105
    },
    {
      "midi": 72,
      "hit": false,
      "t": 28925,
      "d": 868.75,
      "v": 117
    },
    {
      "midi": 40,
      "hit": false,
      "t": 28934.375,
      "d": 34.375,
      "v": 98
    },
    {
      "midi": 52,
      "hit": false,
      "t": 28937.5,
      "d": 96.875,
      "v": 103
    },
    {
      "midi": 61,
      "hit": false,
      "t": 29325,
      "d": 31.25,
      "v": 95
    },
    {
      "midi": 64,
      "hit": false,
      "t": 29334.375,
      "d": 37.5,
      "v": 98
    },
    {
      "midi": 55,
      "hit": false,
      "t": 29340.625,
      "d": 103.125,
      "v": 87
    },
    {
      "midi": 60,
      "hit": false,
      "t": 29384.375,
      "d": 65.625,
      "v": 46
    },
    {
      "midi": 60,
      "hit": false,
      "t": 29715.625,
      "d": 134.375,
      "v": 118
    },
    {
      "midi": 67,
      "hit": false,
      "t": 29718.75,
      "d": 87.5,
      "v": 105
    },
    {
      "midi": 48,
      "hit": false,
      "t": 29721.875,
      "d": 134.375,
      "v": 106
    },
    {
      "midi": 67,
      "hit": false,
      "t": 29937.5,
      "d": 325,
      "v": 114
    },
    {
      "midi": 76,
      "hit": false,
      "t": 29937.5,
      "d": 362.5,
      "v": 118
    },
    {
      "midi": 58,
      "hit": false,
      "t": 30109.375,
      "d": 150,
      "v": 122
    },
    {
      "midi": 46,
      "hit": false,
      "t": 30118.75,
      "d": 171.875,
      "v": 117
    },
    {
      "midi": 72,
      "hit": false,
      "t": 30312.5,
      "d": 131.25,
      "v": 108
    },
    {
      "midi": 52,
      "hit": false,
      "t": 30315.625,
      "d": 100,
      "v": 87
    },
    {
      "midi": 65,
      "hit": false,
      "t": 30493.75,
      "d": 878.125,
      "v": 105
    },
    {
      "midi": 57,
      "hit": false,
      "t": 30500,
      "d": 103.125,
      "v": 111
    },
    {
      "midi": 74,
      "hit": false,
      "t": 30500,
      "d": 259.375,
      "v": 106
    },
    {
      "midi": 45,
      "hit": false,
      "t": 30515.625,
      "d": 112.5,
      "v": 101
    },
    {
      "midi": 72,
      "hit": false,
      "t": 30703.125,
      "d": 143.75,
      "v": 106
    },
    {
      "midi": 74,
      "hit": false,
      "t": 30875,
      "d": 175,
      "v": 82
    },
    {
      "midi": 53,
      "hit": false,
      "t": 30881.25,
      "d": 62.5,
      "v": 79
    },
    {
      "midi": 41,
      "hit": false,
      "t": 30881.25,
      "d": 90.625,
      "v": 87
    },
    {
      "midi": 76,
      "hit": false,
      "t": 31078.125,
      "d": 221.875,
      "v": 102
    },
    {
      "midi": 38,
      "hit": false,
      "t": 31243.75,
      "d": 106.25,
      "v": 80
    },
    {
      "midi": 50,
      "hit": false,
      "t": 31243.75,
      "d": 162.5,
      "v": 68
    },
    {
      "midi": 74,
      "hit": false,
      "t": 31284.375,
      "d": 112.5,
      "v": 85
    },
    {
      "midi": 72,
      "hit": false,
      "t": 31450,
      "d": 50,
      "v": 85
    },
    {
      "midi": 60,
      "hit": false,
      "t": 31637.5,
      "d": 140.625,
      "v": 91
    },
    {
      "midi": 69,
      "hit": false,
      "t": 31637.5,
      "d": 281.25,
      "v": 97
    },
    {
      "midi": 51,
      "hit": false,
      "t": 31640.625,
      "d": 134.375,
      "v": 80
    },
    {
      "midi": 39,
      "hit": false,
      "t": 31643.75,
      "d": 131.25,
      "v": 60
    },
    {
      "midi": 67,
      "hit": false,
      "t": 31843.75,
      "d": 115.625,
      "v": 92
    },
    {
      "midi": 67,
      "hit": false,
      "t": 32015.625,
      "d": 56.25,
      "v": 86
    },
    {
      "midi": 40,
      "hit": false,
      "t": 32018.75,
      "d": 31.25,
      "v": 80
    },
    {
      "midi": 52,
      "hit": false,
      "t": 32021.875,
      "d": 100,
      "v": 90
    },
    {
      "midi": 72,
      "hit": false,
      "t": 32034.375,
      "d": 78.125,
      "v": 98
    },
    {
      "midi": 76,
      "hit": false,
      "t": 32234.375,
      "d": 96.875,
      "v": 96
    },
    {
      "midi": 79,
      "hit": false,
      "t": 32403.125,
      "d": 115.625,
      "v": 92
    },
    {
      "midi": 64,
      "hit": false,
      "t": 32409.375,
      "d": 46.875,
      "v": 61
    },
    {
      "midi": 60,
      "hit": false,
      "t": 32415.625,
      "d": 59.375,
      "v": 71
    },
    {
      "midi": 55,
      "hit": false,
      "t": 32446.875,
      "d": 62.5,
      "v": 45
    },
    {
      "midi": 81,
      "hit": false,
      "t": 32618.75,
      "d": 265.625,
      "v": 86
    },
    {
      "midi": 76,
      "hit": false,
      "t": 32640.625,
      "d": 284.375,
      "v": 72
    },
    {
      "midi": 72,
      "hit": false,
      "t": 32653.125,
      "d": 306.25,
      "v": 41
    },
    {
      "midi": 43,
      "hit": false,
      "t": 32815.625,
      "d": 53.125,
      "v": 66
    },
    {
      "midi": 52,
      "hit": false,
      "t": 32825,
      "d": 96.875,
      "v": 55
    },
    {
      "midi": 79,
      "hit": false,
      "t": 33043.75,
      "d": 187.5,
      "v": 92
    },
    {
      "midi": 60,
      "hit": false,
      "t": 33193.75,
      "d": 50,
      "v": 58
    },
    {
      "midi": 64,
      "hit": false,
      "t": 33193.75,
      "d": 53.125,
      "v": 47
    },
    {
      "midi": 55,
      "hit": false,
      "t": 33200,
      "d": 90.625,
      "v": 57
    },
    {
      "midi": 76,
      "hit": false,
      "t": 33221.875,
      "d": 125,
      "v": 77
    },
    {
      "midi": 72,
      "hit": false,
      "t": 33393.75,
      "d": 43.75,
      "v": 88
    },
    {
      "midi": 69,
      "hit": false,
      "t": 33593.75,
      "d": 340.625,
      "v": 70
    },
    {
      "midi": 50,
      "hit": false,
      "t": 33606.25,
      "d": 143.75,
      "v": 69
    },
    {
      "midi": 60,
      "hit": false,
      "t": 33606.25,
      "d": 221.875,
      "v": 64
    },
    {
      "midi": 66,
      "hit": false,
      "t": 33615.625,
      "d": 259.375,
      "v": 68
    },
    {
      "midi": 54,
      "hit": false,
      "t": 33631.25,
      "d": 143.75,
      "v": 50
    },
    {
      "midi": 66,
      "hit": false,
      "t": 34034.375,
      "d": 193.75,
      "v": 58
    },
    {
      "midi": 69,
      "hit": false,
      "t": 34037.5,
      "d": 284.375,
      "v": 63
    },
    {
      "midi": 72,
      "hit": false,
      "t": 34046.875,
      "d": 184.375,
      "v": 60
    },
    {
      "midi": 54,
      "hit": false,
      "t": 34053.125,
      "d": 71.875,
      "v": 57
    },
    {
      "midi": 60,
      "hit": false,
      "t": 34062.5,
      "d": 56.25,
      "v": 43
    },
    {
      "midi": 62,
      "hit": false,
      "t": 34068.75,
      "d": 56.25,
      "v": 27
    },
    {
      "midi": 43,
      "hit": false,
      "t": 34440.625,
      "d": 50,
      "v": 78
    },
    {
      "midi": 74,
      "hit": false,
      "t": 34443.75,
      "d": 106.25,
      "v": 81
    },
    {
      "midi": 65,
      "hit": false,
      "t": 34453.125,
      "d": 56.25,
      "v": 72
    },
    {
      "midi": 71,
      "hit": false,
      "t": 34468.75,
      "d": 53.125,
      "v": 59
    },
    {
      "midi": 71,
      "hit": false,
      "t": 34637.5,
      "d": 312.5,
      "v": 39
    },
    {
      "midi": 76,
      "hit": false,
      "t": 34640.625,
      "d": 315.625,
      "v": 82
    },
    {
      "midi": 65,
      "hit": false,
      "t": 34650,
      "d": 250,
      "v": 46
    },
    {
      "midi": 59,
      "hit": false,
      "t": 34850,
      "d": 112.5,
      "v": 52
    },
    {
      "midi": 53,
      "hit": false,
      "t": 34856.25,
      "d": 84.375,
      "v": 49
    },
    {
      "midi": 72,
      "hit": false,
      "t": 35053.125,
      "d": 278.125,
      "v": 76
    },
    {
      "midi": 64,
      "hit": false,
      "t": 35056.25,
      "d": 231.25,
      "v": 71
    },
    {
      "midi": 55,
      "hit": false,
      "t": 35081.25,
      "d": 87.5,
      "v": 54
    },
    {
      "midi": 60,
      "hit": false,
      "t": 35256.25,
      "d": 62.5,
      "v": 101
    },
    {
      "midi": 48,
      "hit": false,
      "t": 35271.875,
      "d": 106.25,
      "v": 85
    },
    {
      "midi": 78,
      "hit": false,
      "t": 35465.625,
      "d": 59.375,
      "v": 54
    },
    {
      "midi": 55,
      "hit": false,
      "t": 35656.25,
      "d": 103.125,
      "v": 94
    },
    {
      "midi": 43,
      "hit": false,
      "t": 35659.375,
      "d": 109.375,
      "v": 85
    },
    {
      "midi": 72,
      "hit": false,
      "t": 35662.5,
      "d": 150,
      "v": 87
    },
    {
      "midi": 76,
      "hit": false,
      "t": 35671.875,
      "d": 121.875,
      "v": 101
    },
    {
      "midi": 79,
      "hit": false,
      "t": 35850,
      "d": 93.75,
      "v": 106
    },
    {
      "midi": 81,
      "hit": false,
      "t": 36056.25,
      "d": 193.75,
      "v": 121
    },
    {
      "midi": 74,
      "hit": false,
      "t": 36059.375,
      "d": 165.625,
      "v": 113
    },
    {
      "midi": 72,
      "hit": false,
      "t": 36059.375,
      "d": 168.75,
      "v": 111
    },
    {
      "midi": 54,
      "hit": false,
      "t": 36059.375,
      "d": 196.875,
      "v": 117
    },
    {
      "midi": 42,
      "hit": false,
      "t": 36062.5,
      "d": 212.5,
      "v": 105
    },
    {
      "midi": 53,
      "hit": false,
      "t": 36459.375,
      "d": 156.25,
      "v": 113
    },
    {
      "midi": 83,
      "hit": false,
      "t": 36459.375,
      "d": 221.875,
      "v": 111
    },
    {
      "midi": 79,
      "hit": false,
      "t": 36459.375,
      "d": 228.125,
      "v": 119
    },
    {
      "midi": 74,
      "hit": false,
      "t": 36462.5,
      "d": 212.5,
      "v": 117
    },
    {
      "midi": 41,
      "hit": false,
      "t": 36468.75,
      "d": 168.75,
      "v": 111
    },
    {
      "midi": 47,
      "hit": false,
      "t": 36687.5,
      "d": 103.125,
      "v": 72
    },
    {
      "midi": 76,
      "hit": false,
      "t": 36875,
      "d": 162.5,
      "v": 116
    },
    {
      "midi": 84,
      "hit": false,
      "t": 36875,
      "d": 281.25,
      "v": 113
    },
    {
      "midi": 72,
      "hit": false,
      "t": 36875,
      "d": 315.625,
      "v": 115
    },
    {
      "midi": 79,
      "hit": false,
      "t": 36881.25,
      "d": 165.625,
      "v": 111
    },
    {
      "midi": 40,
      "hit": false,
      "t": 36887.5,
      "d": 56.25,
      "v": 106
    },
    {
      "midi": 52,
      "hit": false,
      "t": 36890.625,
      "d": 103.125,
      "v": 103
    },
    {
      "midi": 79,
      "hit": false,
      "t": 37112.5,
      "d": 103.125,
      "v": 90
    },
    {
      "midi": 64,
      "hit": false,
      "t": 37284.375,
      "d": 34.375,
      "v": 94
    },
    {
      "midi": 81,
      "hit": false,
      "t": 37284.375,
      "d": 171.875,
      "v": 110
    },
    {
      "midi": 60,
      "hit": false,
      "t": 37290.625,
      "d": 59.375,
      "v": 86
    },
    {
      "midi": 55,
      "hit": false,
      "t": 37300,
      "d": 62.5,
      "v": 73
    },
    {
      "midi": 57,
      "hit": false,
      "t": 37300,
      "d": 81.25,
      "v": 80
    },
    {
      "midi": 72,
      "hit": false,
      "t": 37331.25,
      "d": 68.75,
      "v": 24
    },
    {
      "midi": 84,
      "hit": false,
      "t": 37506.25,
      "d": 250,
      "v": 112
    },
    {
      "midi": 72,
      "hit": false,
      "t": 37512.5,
      "d": 275,
      "v": 104
    },
    {
      "midi": 76,
      "hit": false,
      "t": 37512.5,
      "d": 293.75,
      "v": 112
    },
    {
      "midi": 79,
      "hit": false,
      "t": 37512.5,
      "d": 293.75,
      "v": 108
    },
    {
      "midi": 43,
      "hit": false,
      "t": 37678.125,
      "d": 84.375,
      "v": 92
    },
    {
      "midi": 52,
      "hit": false,
      "t": 37703.125,
      "d": 71.875,
      "v": 73
    },
    {
      "midi": 76,
      "hit": false,
      "t": 37900,
      "d": 143.75,
      "v": 106
    },
    {
      "midi": 81,
      "hit": false,
      "t": 37900,
      "d": 150,
      "v": 117
    },
    {
      "midi": 72,
      "hit": false,
      "t": 37903.125,
      "d": 156.25,
      "v": 103
    },
    {
      "midi": 64,
      "hit": false,
      "t": 38056.25,
      "d": 31.25,
      "v": 101
    },
    {
      "midi": 60,
      "hit": false,
      "t": 38068.75,
      "d": 40.625,
      "v": 97
    },
    {
      "midi": 55,
      "hit": false,
      "t": 38068.75,
      "d": 84.375,
      "v": 95
    },
    {
      "midi": 76,
      "hit": false,
      "t": 38296.875,
      "d": 106.25,
      "v": 115
    },
    {
      "midi": 36,
      "hit": false,
      "t": 38465.625,
      "d": 68.75,
      "v": 98
    },
    {
      "midi": 69,
      "hit": false,
      "t": 38465.625,
      "d": 153.125,
      "v": 115
    },
    {
      "midi": 81,
      "hit": false,
      "t": 38465.625,
      "d": 221.875,
      "v": 115
    },
    {
      "midi": 48,
      "hit": false,
      "t": 38468.75,
      "d": 112.5,
      "v": 103
    },
    {
      "midi": 72,
      "hit": false,
      "t": 38662.5,
      "d": 112.5,
      "v": 94
    },
    {
      "midi": 64,
      "hit": false,
      "t": 38837.5,
      "d": 31.25,
      "v": 93
    },
    {
      "midi": 60,
      "hit": false,
      "t": 38850,
      "d": 34.375,
      "v": 92
    },
    {
      "midi": 55,
      "hit": false,
      "t": 38850,
      "d": 87.5,
      "v": 84
    },
    {
      "midi": 76,
      "hit": false,
      "t": 38853.125,
      "d": 100,
      "v": 108
    },
    {
      "midi": 79,
      "hit": false,
      "t": 39056.25,
      "d": 203.125,
      "v": 111
    },
    {
      "midi": 76,
      "hit": false,
      "t": 39062.5,
      "d": 225,
      "v": 91
    },
    {
      "midi": 72,
      "hit": false,
      "t": 39062.5,
      "d": 250,
      "v": 101
    },
    {
      "midi": 67,
      "hit": false,
      "t": 39062.5,
      "d": 256.25,
      "v": 106
    },
    {
      "midi": 46,
      "hit": false,
      "t": 39225,
      "d": 81.25,
      "v": 123
    },
    {
      "midi": 34,
      "hit": false,
      "t": 39228.125,
      "d": 96.875,
      "v": 118
    },
    {
      "midi": 76,
      "hit": false,
      "t": 39443.75,
      "d": 309.375,
      "v": 117
    },
    {
      "midi": 72,
      "hit": false,
      "t": 39450,
      "d": 240.625,
      "v": 105
    },
    {
      "midi": 67,
      "hit": false,
      "t": 39453.125,
      "d": 262.5,
      "v": 95
    },
    {
      "midi": 64,
      "hit": false,
      "t": 39612.5,
      "d": 37.5,
      "v": 94
    },
    {
      "midi": 60,
      "hit": false,
      "t": 39612.5,
      "d": 53.125,
      "v": 88
    },
    {
      "midi": 58,
      "hit": false,
      "t": 39618.75,
      "d": 118.75,
      "v": 100
    },
    {
      "midi": 72,
      "hit": false,
      "t": 39818.75,
      "d": 121.875,
      "v": 97
    },
    {
      "midi": 74,
      "hit": false,
      "t": 39996.875,
      "d": 156.25,
      "v": 109
    },
    {
      "midi": 65,
      "hit": false,
      "t": 40000,
      "d": 137.5,
      "v": 106
    },
    {
      "midi": 57,
      "hit": false,
      "t": 40003.125,
      "d": 71.875,
      "v": 118
    },
    {
      "midi": 45,
      "hit": false,
      "t": 40009.375,
      "d": 84.375,
      "v": 112
    },
    {
      "midi": 72,
      "hit": false,
      "t": 40212.5,
      "d": 93.75,
      "v": 102
    },
    {
      "midi": 53,
      "hit": false,
      "t": 40378.125,
      "d": 103.125,
      "v": 103
    },
    {
      "midi": 41,
      "hit": false,
      "t": 40384.375,
      "d": 100,
      "v": 103
    },
    {
      "midi": 74,
      "hit": false,
      "t": 40387.5,
      "d": 128.125,
      "v": 104
    },
    {
      "midi": 65,
      "hit": false,
      "t": 40393.75,
      "d": 306.25,
      "v": 99
    },
    {
      "midi": 76,
      "hit": false,
      "t": 40584.375,
      "d": 137.5,
      "v": 112
    },
    {
      "midi": 38,
      "hit": false,
      "t": 40768.75,
      "d": 100,
      "v": 113
    },
    {
      "midi": 50,
      "hit": false,
      "t": 40768.75,
      "d": 156.25,
      "v": 115
    },
    {
      "midi": 74,
      "hit": false,
      "t": 40778.125,
      "d": 271.875,
      "v": 97
    },
    {
      "midi": 72,
      "hit": false,
      "t": 40984.375,
      "d": 178.125,
      "v": 101
    },
    {
      "midi": 51,
      "hit": false,
      "t": 41168.75,
      "d": 118.75,
      "v": 117
    },
    {
      "midi": 39,
      "hit": false,
      "t": 41168.75,
      "d": 146.875,
      "v": 101
    },
    {
      "midi": 69,
      "hit": false,
      "t": 41181.25,
      "d": 103.125,
      "v": 101
    },
    {
      "midi": 67,
      "hit": false,
      "t": 41365.625,
      "d": 146.875,
      "v": 107
    },
    {
      "midi": 45,
      "hit": false,
      "t": 41371.875,
      "d": 140.625,
      "v": 95
    },
    {
      "midi": 52,
      "hit": false,
      "t": 41562.5,
      "d": 131.25,
      "v": 119
    },
    {
      "midi": 67,
      "hit": false,
      "t": 41565.625,
      "d": 234.375,
      "v": 110
    },
    {
      "midi": 72,
      "hit": false,
      "t": 41565.625,
      "d": 259.375,
      "v": 118
    },
    {
      "midi": 40,
      "hit": false,
      "t": 41568.75,
      "d": 87.5,
      "v": 110
    },
    {
      "midi": 67,
      "hit": false,
      "t": 41950,
      "d": 153.125,
      "v": 111
    },
    {
      "midi": 76,
      "hit": false,
      "t": 41950,
      "d": 187.5,
      "v": 115
    },
    {
      "midi": 55,
      "hit": false,
      "t": 41956.25,
      "d": 165.625,
      "v": 108
    },
    {
      "midi": 72,
      "hit": false,
      "t": 41959.375,
      "d": 184.375,
      "v": 103
    },
    {
      "midi": 43,
      "hit": false,
      "t": 41962.5,
      "d": 143.75,
      "v": 100
    },
    {
      "midi": 79,
      "hit": false,
      "t": 42153.125,
      "d": 90.625,
      "v": 106
    },
    {
      "midi": 54,
      "hit": false,
      "t": 42340.625,
      "d": 190.625,
      "v": 118
    },
    {
      "midi": 72,
      "hit": false,
      "t": 42343.75,
      "d": 206.25,
      "v": 111
    },
    {
      "midi": 81,
      "hit": false,
      "t": 42343.75,
      "d": 206.25,
      "v": 117
    },
    {
      "midi": 74,
      "hit": false,
      "t": 42343.75,
      "d": 246.875,
      "v": 117
    },
    {
      "midi": 42,
      "hit": false,
      "t": 42346.875,
      "d": 215.625,
      "v": 109
    },
    {
      "midi": 74,
      "hit": false,
      "t": 42750,
      "d": 153.125,
      "v": 111
    },
    {
      "midi": 53,
      "hit": false,
      "t": 42753.125,
      "d": 137.5,
      "v": 113
    },
    {
      "midi": 71,
      "hit": false,
      "t": 42753.125,
      "d": 143.75,
      "v": 101
    },
    {
      "midi": 41,
      "hit": false,
      "t": 42753.125,
      "d": 153.125,
      "v": 111
    },
    {
      "midi": 83,
      "hit": false,
      "t": 42753.125,
      "d": 181.25,
      "v": 100
    },
    {
      "midi": 79,
      "hit": false,
      "t": 42762.5,
      "d": 159.375,
      "v": 105
    },
    {
      "midi": 47,
      "hit": false,
      "t": 42962.5,
      "d": 131.25,
      "v": 83
    },
    {
      "midi": 84,
      "hit": false,
      "t": 43159.375,
      "d": 256.25,
      "v": 115
    },
    {
      "midi": 72,
      "hit": false,
      "t": 43159.375,
      "d": 300,
      "v": 117
    },
    {
      "midi": 40,
      "hit": false,
      "t": 43165.625,
      "d": 78.125,
      "v": 113
    },
    {
      "midi": 52,
      "hit": false,
      "t": 43165.625,
      "d": 106.25,
      "v": 117
    },
    {
      "midi": 79,
      "hit": false,
      "t": 43371.875,
      "d": 109.375,
      "v": 93
    },
    {
      "midi": 64,
      "hit": false,
      "t": 43531.25,
      "d": 43.75,
      "v": 74
    },
    {
      "midi": 81,
      "hit": false,
      "t": 43537.5,
      "d": 153.125,
      "v": 81
    },
    {
      "midi": 55,
      "hit": false,
      "t": 43543.75,
      "d": 46.875,
      "v": 72
    },
    {
      "midi": 60,
      "hit": false,
      "t": 43546.875,
      "d": 37.5,
      "v": 79
    },
    {
      "midi": 84,
      "hit": false,
      "t": 43762.5,
      "d": 203.125,
      "v": 74
    },
    {
      "midi": 72,
      "hit": false,
      "t": 43768.75,
      "d": 228.125,
      "v": 66
    },
    {
      "midi": 79,
      "hit": false,
      "t": 43790.625,
      "d": 209.375,
      "v": 59
    },
    {
      "midi": 76,
      "hit": false,
      "t": 43793.75,
      "d": 218.75,
      "v": 42
    },
    {
      "midi": 81,
      "hit": false,
      "t": 43809.375,
      "d": 56.25,
      "v": 48
    },
    {
      "midi": 31,
      "hit": false,
      "t": 43918.75,
      "d": 37.5,
      "v": 89
    },
    {
      "midi": 81,
      "hit": false,
      "t": 44143.75,
      "d": 290.625,
      "v": 85
    },
    {
      "midi": 69,
      "hit": false,
      "t": 44146.875,
      "d": 303.125,
      "v": 79
    },
    {
      "midi": 76,
      "hit": false,
      "t": 44156.25,
      "d": 259.375,
      "v": 71
    },
    {
      "midi": 64,
      "hit": false,
      "t": 44306.25,
      "d": 31.25,
      "v": 81
    },
    {
      "midi": 55,
      "hit": false,
      "t": 44306.25,
      "d": 78.125,
      "v": 82
    },
    {
      "midi": 60,
      "hit": false,
      "t": 44315.625,
      "d": 34.375,
      "v": 84
    },
    {
      "midi": 76,
      "hit": false,
      "t": 44531.25,
      "d": 115.625,
      "v": 83
    },
    {
      "midi": 69,
      "hit": false,
      "t": 44703.125,
      "d": 112.5,
      "v": 98
    },
    {
      "midi": 36,
      "hit": false,
      "t": 44706.25,
      "d": 43.75,
      "v": 81
    },
    {
      "midi": 81,
      "hit": false,
      "t": 44706.25,
      "d": 143.75,
      "v": 94
    },
    {
      "midi": 48,
      "hit": false,
      "t": 44731.25,
      "d": 62.5,
      "v": 77
    },
    {
      "midi": 72,
      "hit": false,
      "t": 44903.125,
      "d": 96.875,
      "v": 83
    },
    {
      "midi": 64,
      "hit": false,
      "t": 45081.25,
      "d": 37.5,
      "v": 73
    },
    {
      "midi": 60,
      "hit": false,
      "t": 45093.75,
      "d": 40.625,
      "v": 72
    },
    {
      "midi": 55,
      "hit": false,
      "t": 45093.75,
      "d": 50,
      "v": 68
    },
    {
      "midi": 76,
      "hit": false,
      "t": 45096.875,
      "d": 59.375,
      "v": 86
    },
    {
      "midi": 79,
      "hit": false,
      "t": 45287.5,
      "d": 193.75,
      "v": 94
    },
    {
      "midi": 73,
      "hit": false,
      "t": 45290.625,
      "d": 256.25,
      "v": 85
    },
    {
      "midi": 67,
      "hit": false,
      "t": 45306.25,
      "d": 250,
      "v": 70
    },
    {
      "midi": 57,
      "hit": false,
      "t": 45465.625,
      "d": 118.75,
      "v": 92
    },
    {
      "midi": 45,
      "hit": false,
      "t": 45481.25,
      "d": 100,
      "v": 73
    },
    {
      "midi": 76,
      "hit": false,
      "t": 45678.125,
      "d": 240.625,
      "v": 77
    },
    {
      "midi": 73,
      "hit": false,
      "t": 45681.25,
      "d": 240.625,
      "v": 68
    },
    {
      "midi": 67,
      "hit": false,
      "t": 45681.25,
      "d": 421.875,
      "v": 65
    },
    {
      "midi": 74,
      "hit": false,
      "t": 45712.5,
      "d": 75,
      "v": 51
    },
    {
      "midi": 43,
      "hit": false,
      "t": 45837.5,
      "d": 59.375,
      "v": 102
    },
    {
      "midi": 55,
      "hit": false,
      "t": 45837.5,
      "d": 87.5,
      "v": 109
    },
    {
      "midi": 48,
      "hit": false,
      "t": 46053.125,
      "d": 121.875,
      "v": 78
    },
    {
      "midi": 73,
      "hit": false,
      "t": 46056.25,
      "d": 146.875,
      "v": 95
    },
    {
      "midi": 74,
      "hit": false,
      "t": 46240.625,
      "d": 143.75,
      "v": 95
    },
    {
      "midi": 42,
      "hit": false,
      "t": 46243.75,
      "d": 75,
      "v": 99
    },
    {
      "midi": 54,
      "hit": false,
      "t": 46243.75,
      "d": 100,
      "v": 108
    },
    {
      "midi": 72,
      "hit": false,
      "t": 46256.25,
      "d": 37.5,
      "v": 93
    },
    {
      "midi": 73,
      "hit": false,
      "t": 46443.75,
      "d": 131.25,
      "v": 98
    },
    {
      "midi": 62,
      "hit": false,
      "t": 46628.125,
      "d": 37.5,
      "v": 79
    },
    {
      "midi": 60,
      "hit": false,
      "t": 46631.25,
      "d": 34.375,
      "v": 87
    },
    {
      "midi": 74,
      "hit": false,
      "t": 46631.25,
      "d": 106.25,
      "v": 94
    },
    {
      "midi": 54,
      "hit": false,
      "t": 46646.875,
      "d": 46.875,
      "v": 66
    },
    {
      "midi": 73,
      "hit": false,
      "t": 46828.125,
      "d": 121.875,
      "v": 88
    },
    {
      "midi": 74,
      "hit": false,
      "t": 47006.25,
      "d": 68.75,
      "v": 74
    },
    {
      "midi": 38,
      "hit": false,
      "t": 47009.375,
      "d": 37.5,
      "v": 89
    },
    {
      "midi": 75,
      "hit": false,
      "t": 47203.125,
      "d": 125,
      "v": 83
    },
    {
      "midi": 76,
      "hit": false,
      "t": 47384.375,
      "d": 84.375,
      "v": 89
    },
    {
      "midi": 60,
      "hit": false,
      "t": 47390.625,
      "d": 53.125,
      "v": 83
    },
    {
      "midi": 62,
      "hit": false,
      "t": 47400,
      "d": 50,
      "v": 78
    },
    {
      "midi": 54,
      "hit": false,
      "t": 47406.25,
      "d": 50,
      "v": 57
    },
    {
      "midi": 78,
      "hit": false,
      "t": 47568.75,
      "d": 125,
      "v": 84
    },
    {
      "midi": 62,
      "hit": false,
      "t": 47759.375,
      "d": 37.5,
      "v": 89
    },
    {
      "midi": 59,
      "hit": false,
      "t": 47762.5,
      "d": 37.5,
      "v": 76
    },
    {
      "midi": 55,
      "hit": false,
      "t": 47762.5,
      "d": 68.75,
      "v": 89
    },
    {
      "midi": 79,
      "hit": false,
      "t": 47768.75,
      "d": 62.5,
      "v": 88
    },
    {
      "midi": 74,
      "hit": false,
      "t": 47771.875,
      "d": 43.75,
      "v": 91
    },
    {
      "midi": 71,
      "hit": false,
      "t": 47775,
      "d": 53.125,
      "v": 68
    },
    {
      "midi": 71,
      "hit": false,
      "t": 48143.75,
      "d": 143.75,
      "v": 88
    },
    {
      "midi": 83,
      "hit": false,
      "t": 48146.875,
      "d": 159.375,
      "v": 90
    },
    {
      "midi": 43,
      "hit": false,
      "t": 48193.75,
      "d": 125,
      "v": 39
    },
    {
      "midi": 55,
      "hit": false,
      "t": 48200,
      "d": 171.875,
      "v": 34
    },
    {
      "midi": 74,
      "hit": false,
      "t": 48256.25,
      "d": 143.75,
      "v": 87
    },
    {
      "midi": 77,
      "hit": false,
      "t": 48403.125,
      "d": 184.375,
      "v": 91
    },
    {
      "midi": 81,
      "hit": false,
      "t": 48528.125,
      "d": 181.25,
      "v": 106
    },
    {
      "midi": 69,
      "hit": false,
      "t": 48528.125,
      "d": 209.375,
      "v": 106
    },
    {
      "midi": 57,
      "hit": false,
      "t": 48528.125,
      "d": 240.625,
      "v": 123
    },
    {
      "midi": 45,
      "hit": false,
      "t": 48534.375,
      "d": 168.75,
      "v": 121
    },
    {
      "midi": 55,
      "hit": false,
      "t": 48565.625,
      "d": 62.5,
      "v": 51
    },
    {
      "midi": 74,
      "hit": false,
      "t": 48693.75,
      "d": 131.25,
      "v": 82
    },
    {
      "midi": 77,
      "hit": false,
      "t": 48809.375,
      "d": 196.875,
      "v": 69
    },
    {
      "midi": 59,
      "hit": false,
      "t": 48909.375,
      "d": 59.375,
      "v": 111
    },
    {
      "midi": 67,
      "hit": false,
      "t": 48915.625,
      "d": 75,
      "v": 113
    },
    {
      "midi": 47,
      "hit": false,
      "t": 48915.625,
      "d": 118.75,
      "v": 103
    },
    {
      "midi": 74,
      "hit": false,
      "t": 48918.75,
      "d": 87.5,
      "v": 88
    },
    {
      "midi": 79,
      "hit": false,
      "t": 48918.75,
      "d": 115.625,
      "v": 110
    },
    {
      "midi": 57,
      "hit": false,
      "t": 48928.125,
      "d": 28.125,
      "v": 104
    },
    {
      "midi": 43,
      "hit": false,
      "t": 49125,
      "d": 137.5,
      "v": 102
    },
    {
      "midi": 72,
      "hit": false,
      "t": 49312.5,
      "d": 271.875,
      "v": 114
    },
    {
      "midi": 48,
      "hit": false,
      "t": 49318.75,
      "d": 137.5,
      "v": 115
    },
    {
      "midi": 84,
      "hit": false,
      "t": 49318.75,
      "d": 225,
      "v": 115
    },
    {
      "midi": 36,
      "hit": false,
      "t": 49328.125,
      "d": 96.875,
      "v": 115
    },
    {
      "midi": 76,
      "hit": false,
      "t": 49525,
      "d": 115.625,
      "v": 95
    },
    {
      "midi": 64,
      "hit": false,
      "t": 49715.625,
      "d": 28.125,
      "v": 97
    },
    {
      "midi": 79,
      "hit": false,
      "t": 49718.75,
      "d": 146.875,
      "v": 87
    },
    {
      "midi": 60,
      "hit": false,
      "t": 49731.25,
      "d": 34.375,
      "v": 88
    },
    {
      "midi": 55,
      "hit": false,
      "t": 49731.25,
      "d": 75,
      "v": 84
    },
    {
      "midi": 57,
      "hit": false,
      "t": 49762.5,
      "d": 43.75,
      "v": 49
    },
    {
      "midi": 84,
      "hit": false,
      "t": 49928.125,
      "d": 228.125,
      "v": 101
    },
    {
      "midi": 76,
      "hit": false,
      "t": 49928.125,
      "d": 296.875,
      "v": 106
    },
    {
      "midi": 72,
      "hit": false,
      "t": 49931.25,
      "d": 275,
      "v": 96
    },
    {
      "midi": 79,
      "hit": false,
      "t": 49931.25,
      "d": 284.375,
      "v": 97
    },
    {
      "midi": 81,
      "hit": false,
      "t": 49934.375,
      "d": 290.625,
      "v": 97
    },
    {
      "midi": 31,
      "hit": false,
      "t": 50112.5,
      "d": 37.5,
      "v": 98
    },
    {
      "midi": 81,
      "hit": false,
      "t": 50309.375,
      "d": 215.625,
      "v": 104
    },
    {
      "midi": 76,
      "hit": false,
      "t": 50309.375,
      "d": 228.125,
      "v": 106
    },
    {
      "midi": 72,
      "hit": false,
      "t": 50315.625,
      "d": 271.875,
      "v": 92
    },
    {
      "midi": 64,
      "hit": false,
      "t": 50468.75,
      "d": 28.125,
      "v": 101
    },
    {
      "midi": 60,
      "hit": false,
      "t": 50484.375,
      "d": 34.375,
      "v": 87
    },
    {
      "midi": 55,
      "hit": false,
      "t": 50484.375,
      "d": 103.125,
      "v": 89
    },
    {
      "midi": 57,
      "hit": false,
      "t": 50496.875,
      "d": 40.625,
      "v": 83
    },
    {
      "midi": 76,
      "hit": false,
      "t": 50700,
      "d": 131.25,
      "v": 100
    },
    {
      "midi": 69,
      "hit": false,
      "t": 50868.75,
      "d": 137.5,
      "v": 111
    },
    {
      "midi": 81,
      "hit": false,
      "t": 50868.75,
      "d": 165.625,
      "v": 111
    },
    {
      "midi": 36,
      "hit": false,
      "t": 50871.875,
      "d": 40.625,
      "v": 91
    },
    {
      "midi": 48,
      "hit": false,
      "t": 50878.125,
      "d": 115.625,
      "v": 98
    },
    {
      "midi": 72,
      "hit": false,
      "t": 51078.125,
      "d": 71.875,
      "v": 87
    },
    {
      "midi": 64,
      "hit": false,
      "t": 51250,
      "d": 37.5,
      "v": 89
    },
    {
      "midi": 55,
      "hit": false,
      "t": 51256.25,
      "d": 68.75,
      "v": 85
    },
    {
      "midi": 60,
      "hit": false,
      "t": 51262.5,
      "d": 34.375,
      "v": 85
    },
    {
      "midi": 76,
      "hit": false,
      "t": 51262.5,
      "d": 71.875,
      "v": 101
    },
    {
      "midi": 79,
      "hit": false,
      "t": 51453.125,
      "d": 209.375,
      "v": 106
    },
    {
      "midi": 76,
      "hit": false,
      "t": 51465.625,
      "d": 231.25,
      "v": 90
    },
    {
      "midi": 67,
      "hit": false,
      "t": 51465.625,
      "d": 240.625,
      "v": 89
    },
    {
      "midi": 72,
      "hit": false,
      "t": 51465.625,
      "d": 250,
      "v": 88
    },
    {
      "midi": 58,
      "hit": false,
      "t": 51637.5,
      "d": 90.625,
      "v": 122
    },
    {
      "midi": 46,
      "hit": false,
      "t": 51646.875,
      "d": 56.25,
      "v": 112
    },
    {
      "midi": 76,
      "hit": false,
      "t": 51840.625,
      "d": 303.125,
      "v": 117
    },
    {
      "midi": 67,
      "hit": false,
      "t": 51843.75,
      "d": 281.25,
      "v": 106
    },
    {
      "midi": 72,
      "hit": false,
      "t": 51853.125,
      "d": 228.125,
      "v": 97
    },
    {
      "midi": 64,
      "hit": false,
      "t": 52012.5,
      "d": 31.25,
      "v": 99
    },
    {
      "midi": 60,
      "hit": false,
      "t": 52012.5,
      "d": 43.75,
      "v": 95
    },
    {
      "midi": 58,
      "hit": false,
      "t": 52015.625,
      "d": 115.625,
      "v": 100
    },
    {
      "midi": 72,
      "hit": false,
      "t": 52225,
      "d": 109.375,
      "v": 95
    },
    {
      "midi": 57,
      "hit": false,
      "t": 52393.75,
      "d": 84.375,
      "v": 94
    },
    {
      "midi": 45,
      "hit": false,
      "t": 52400,
      "d": 106.25,
      "v": 94
    },
    {
      "midi": 74,
      "hit": false,
      "t": 52406.25,
      "d": 165.625,
      "v": 97
    },
    {
      "midi": 65,
      "hit": false,
      "t": 52406.25,
      "d": 300,
      "v": 94
    },
    {
      "midi": 72,
      "hit": false,
      "t": 52603.125,
      "d": 118.75,
      "v": 92
    },
    {
      "midi": 65,
      "hit": false,
      "t": 52756.25,
      "d": 553.125,
      "v": 21
    },
    {
      "midi": 53,
      "hit": false,
      "t": 52781.25,
      "d": 46.875,
      "v": 87
    },
    {
      "midi": 41,
      "hit": false,
      "t": 52781.25,
      "d": 118.75,
      "v": 98
    },
    {
      "midi": 74,
      "hit": false,
      "t": 52781.25,
      "d": 125,
      "v": 91
    },
    {
      "midi": 76,
      "hit": false,
      "t": 52984.375,
      "d": 243.75,
      "v": 100
    },
    {
      "midi": 38,
      "hit": false,
      "t": 53156.25,
      "d": 100,
      "v": 89
    },
    {
      "midi": 50,
      "hit": false,
      "t": 53156.25,
      "d": 153.125,
      "v": 91
    },
    {
      "midi": 74,
      "hit": false,
      "t": 53162.5,
      "d": 150,
      "v": 85
    },
    {
      "midi": 72,
      "hit": false,
      "t": 53368.75,
      "d": 40.625,
      "v": 85
    },
    {
      "midi": 39,
      "hit": false,
      "t": 53553.125,
      "d": 150,
      "v": 79
    },
    {
      "midi": 51,
      "hit": false,
      "t": 53559.375,
      "d": 156.25,
      "v": 86
    },
    {
      "midi": 71,
      "hit": false,
      "t": 53568.75,
      "d": 90.625,
      "v": 51
    },
    {
      "midi": 69,
      "hit": false,
      "t": 53575,
      "d": 118.75,
      "v": 81
    },
    {
      "midi": 62,
      "hit": false,
      "t": 53578.125,
      "d": 81.25,
      "v": 50
    },
    {
      "midi": 60,
      "hit": false,
      "t": 53584.375,
      "d": 75,
      "v": 65
    },
    {
      "midi": 67,
      "hit": false,
      "t": 53750,
      "d": 115.625,
      "v": 101
    },
    {
      "midi": 69,
      "hit": false,
      "t": 53756.25,
      "d": 68.75,
      "v": 16
    },
    {
      "midi": 45,
      "hit": false,
      "t": 53768.75,
      "d": 65.625,
      "v": 73
    },
    {
      "midi": 67,
      "hit": false,
      "t": 53934.375,
      "d": 503.125,
      "v": 103
    },
    {
      "midi": 72,
      "hit": false,
      "t": 53934.375,
      "d": 837.5,
      "v": 110
    },
    {
      "midi": 40,
      "hit": false,
      "t": 53943.75,
      "d": 31.25,
      "v": 82
    },
    {
      "midi": 52,
      "hit": false,
      "t": 53943.75,
      "d": 96.875,
      "v": 97
    },
    {
      "midi": 64,
      "hit": false,
      "t": 54315.625,
      "d": 71.875,
      "v": 100
    },
    {
      "midi": 55,
      "hit": false,
      "t": 54315.625,
      "d": 90.625,
      "v": 96
    },
    {
      "midi": 60,
      "hit": false,
      "t": 54318.75,
      "d": 56.25,
      "v": 95
    },
    {
      "midi": 67,
      "hit": false,
      "t": 54709.375,
      "d": 50,
      "v": 71
    },
    {
      "midi": 60,
      "hit": false,
      "t": 54709.375,
      "d": 71.875,
      "v": 76
    },
    {
      "midi": 48,
      "hit": false,
      "t": 54718.75,
      "d": 106.25,
      "v": 56
    },
    {
      "midi": 67,
      "hit": false,
      "t": 54940.625,
      "d": 315.625,
      "v": 67
    },
    {
      "midi": 76,
      "hit": false,
      "t": 54956.25,
      "d": 346.875,
      "v": 59
    },
    {
      "midi": 58,
      "hit": false,
      "t": 55109.375,
      "d": 118.75,
      "v": 84
    },
    {
      "midi": 46,
      "hit": false,
      "t": 55118.75,
      "d": 128.125,
      "v": 68
    },
    {
      "midi": 72,
      "hit": false,
      "t": 55296.875,
      "d": 115.625,
      "v": 78
    },
    {
      "midi": 52,
      "hit": false,
      "t": 55300,
      "d": 50,
      "v": 62
    },
    {
      "midi": 57,
      "hit": false,
      "t": 55478.125,
      "d": 78.125,
      "v": 89
    },
    {
      "midi": 74,
      "hit": false,
      "t": 55487.5,
      "d": 162.5,
      "v": 84
    },
    {
      "midi": 45,
      "hit": false,
      "t": 55490.625,
      "d": 109.375,
      "v": 88
    },
    {
      "midi": 65,
      "hit": false,
      "t": 55490.625,
      "d": 525,
      "v": 73
    },
    {
      "midi": 72,
      "hit": false,
      "t": 55687.5,
      "d": 93.75,
      "v": 74
    },
    {
      "midi": 53,
      "hit": false,
      "t": 55856.25,
      "d": 37.5,
      "v": 79
    },
    {
      "midi": 41,
      "hit": false,
      "t": 55868.75,
      "d": 115.625,
      "v": 76
    },
    {
      "midi": 74,
      "hit": false,
      "t": 55875,
      "d": 143.75,
      "v": 76
    },
    {
      "midi": 76,
      "hit": false,
      "t": 56068.75,
      "d": 240.625,
      "v": 85
    },
    {
      "midi": 50,
      "hit": false,
      "t": 56234.375,
      "d": 134.375,
      "v": 78
    },
    {
      "midi": 38,
      "hit": false,
      "t": 56237.5,
      "d": 81.25,
      "v": 71
    },
    {
      "midi": 74,
      "hit": false,
      "t": 56262.5,
      "d": 115.625,
      "v": 77
    },
    {
      "midi": 72,
      "hit": false,
      "t": 56434.375,
      "d": 40.625,
      "v": 79
    },
    {
      "midi": 69,
      "hit": false,
      "t": 56612.5,
      "d": 328.125,
      "v": 112
    },
    {
      "midi": 39,
      "hit": false,
      "t": 56621.875,
      "d": 153.125,
      "v": 85
    },
    {
      "midi": 60,
      "hit": false,
      "t": 56621.875,
      "d": 221.875,
      "v": 104
    },
    {
      "midi": 51,
      "hit": false,
      "t": 56631.25,
      "d": 143.75,
      "v": 96
    },
    {
      "midi": 67,
      "hit": false,
      "t": 56828.125,
      "d": 259.375,
      "v": 104
    },
    {
      "midi": 45,
      "hit": false,
      "t": 56850,
      "d": 121.875,
      "v": 84
    },
    {
      "midi": 40,
      "hit": false,
      "t": 57012.5,
      "d": 34.375,
      "v": 98
    },
    {
      "midi": 52,
      "hit": false,
      "t": 57012.5,
      "d": 103.125,
      "v": 108
    },
    {
      "midi": 72,
      "hit": false,
      "t": 57018.75,
      "d": 96.875,
      "v": 106
    },
    {
      "midi": 76,
      "hit": false,
      "t": 57215.625,
      "d": 93.75,
      "v": 106
    },
    {
      "midi": 64,
      "hit": false,
      "t": 57390.625,
      "d": 40.625,
      "v": 92
    },
    {
      "midi": 79,
      "hit": false,
      "t": 57400,
      "d": 115.625,
      "v": 107
    },
    {
      "midi": 60,
      "hit": false,
      "t": 57406.25,
      "d": 43.75,
      "v": 81
    },
    {
      "midi": 55,
      "hit": false,
      "t": 57406.25,
      "d": 93.75,
      "v": 77
    },
    {
      "midi": 81,
      "hit": false,
      "t": 57606.25,
      "d": 253.125,
      "v": 101
    },
    {
      "midi": 76,
      "hit": false,
      "t": 57618.75,
      "d": 281.25,
      "v": 91
    },
    {
      "midi": 72,
      "hit": false,
      "t": 57625,
      "d": 309.375,
      "v": 63
    },
    {
      "midi": 43,
      "hit": false,
      "t": 57793.75,
      "d": 75,
      "v": 79
    },
    {
      "midi": 52,
      "hit": false,
      "t": 57806.25,
      "d": 109.375,
      "v": 70
    },
    {
      "midi": 79,
      "hit": false,
      "t": 58009.375,
      "d": 106.25,
      "v": 99
    },
    {
      "midi": 60,
      "hit": false,
      "t": 58162.5,
      "d": 43.75,
      "v": 73
    },
    {
      "midi": 55,
      "hit": false,
      "t": 58162.5,
      "d": 65.625,
      "v": 64
    },
    {
      "midi": 76,
      "hit": false,
      "t": 58184.375,
      "d": 100,
      "v": 93
    },
    {
      "midi": 72,
      "hit": false,
      "t": 58362.5,
      "d": 40.625,
      "v": 91
    },
    {
      "midi": 69,
      "hit": false,
      "t": 58556.25,
      "d": 293.75,
      "v": 94
    },
    {
      "midi": 62,
      "hit": false,
      "t": 58559.375,
      "d": 175,
      "v": 80
    },
    {
      "midi": 66,
      "hit": false,
      "t": 58562.5,
      "d": 246.875,
      "v": 81
    },
    {
      "midi": 50,
      "hit": false,
      "t": 58565.625,
      "d": 106.25,
      "v": 67
    },
    {
      "midi": 69,
      "hit": false,
      "t": 58943.75,
      "d": 356.25,
      "v": 55
    },
    {
      "midi": 66,
      "hit": false,
      "t": 58956.25,
      "d": 300,
      "v": 60
    },
    {
      "midi": 72,
      "hit": false,
      "t": 58962.5,
      "d": 328.125,
      "v": 62
    },
    {
      "midi": 60,
      "hit": false,
      "t": 58968.75,
      "d": 62.5,
      "v": 78
    },
    {
      "midi": 54,
      "hit": false,
      "t": 58978.125,
      "d": 128.125,
      "v": 55
    },
    {
      "midi": 62,
      "hit": false,
      "t": 58981.25,
      "d": 50,
      "v": 58
    },
    {
      "midi": 43,
      "hit": false,
      "t": 59356.25,
      "d": 46.875,
      "v": 85
    },
    {
      "midi": 65,
      "hit": false,
      "t": 59375,
      "d": 59.375,
      "v": 72
    },
    {
      "midi": 74,
      "hit": false,
      "t": 59375,
      "d": 75,
      "v": 73
    },
    {
      "midi": 71,
      "hit": false,
      "t": 59387.5,
      "d": 68.75,
      "v": 50
    },
    {
      "midi": 76,
      "hit": false,
      "t": 59562.5,
      "d": 425,
      "v": 87
    },
    {
      "midi": 71,
      "hit": false,
      "t": 59568.75,
      "d": 525,
      "v": 28
    },
    {
      "midi": 65,
      "hit": false,
      "t": 59571.875,
      "d": 318.75,
      "v": 44
    },
    {
      "midi": 59,
      "hit": false,
      "t": 59750,
      "d": 68.75,
      "v": 53
    },
    {
      "midi": 53,
      "hit": false,
      "t": 59750,
      "d": 96.875,
      "v": 65
    },
    {
      "midi": 55,
      "hit": false,
      "t": 59953.125,
      "d": 71.875,
      "v": 71
    },
    {
      "midi": 60,
      "hit": false,
      "t": 60125,
      "d": 46.875,
      "v": 75
    },
    {
      "midi": 72,
      "hit": false,
      "t": 60128.125,
      "d": 331.25,
      "v": 69
    },
    {
      "midi": 48,
      "hit": false,
      "t": 60131.25,
      "d": 112.5,
      "v": 70
    },
    {
      "midi": 64,
      "hit": false,
      "t": 60134.375,
      "d": 271.875,
      "v": 78
    },
    {
      "midi": 55,
      "hit": false,
      "t": 60537.5,
      "d": 43.75,
      "v": 72
    },
    {
      "midi": 43,
      "hit": false,
      "t": 60550,
      "d": 68.75,
      "v": 59
    },
    {
      "midi": 84,
      "hit": false,
      "t": 60981.25,
      "d": 81.25,
      "v": 73
    },
    {
      "midi": 36,
      "hit": false,
      "t": 60987.5,
      "d": 78.125,
      "v": 66
    },
    {
      "midi": 48,
      "hit": false,
      "t": 60987.5,
      "d": 100,
      "v": 57
    },
    {
      "midi": 79,
      "hit": false,
      "t": 61003.125,
      "d": 59.375,
      "v": 62
    },
    {
      "midi": 72,
      "hit": false,
      "t": 61003.125,
      "d": 81.25,
      "v": 27
    },
    {
      "midi": 76,
      "hit": false,
      "t": 61006.25,
      "d": 56.25,
      "v": 55
    },
    {
      "midi": 50,
      "hit": false,
      "t": 61650,
      "d": 62.5,
      "v": 17
    },
    {
      "midi": 71,
      "hit": false,
      "t": 61712.5,
      "d": 53.125,
      "v": 58
    },
    {
      "midi": 72,
      "hit": false,
      "t": 61787.5,
      "d": 156.25,
      "v": 76
    },
    {
      "midi": 71,
      "hit": false,
      "t": 61846.875,
      "d": 184.375,
      "v": 74
    },
    {
      "midi": 55,
      "hit": false,
      "t": 61850,
      "d": 131.25,
      "v": 83
    },
    {
      "midi": 43,
      "hit": false,
      "t": 61856.25,
      "d": 59.375,
      "v": 57
    },
    {
      "midi": 70,
      "hit": false,
      "t": 62031.25,
      "d": 181.25,
      "v": 98
    },
    {
      "midi": 71,
      "hit": false,
      "t": 62218.75,
      "d": 590.625,
      "v": 73
    },
    {
      "midi": 55,
      "hit": false,
      "t": 62243.75,
      "d": 62.5,
      "v": 39
    },
    {
      "midi": 76,
      "hit": false,
      "t": 62450,
      "d": 262.5,
      "v": 115
    },
    {
      "midi": 38,
      "hit": false,
      "t": 62637.5,
      "d": 37.5,
      "v": 82
    },
    {
      "midi": 74,
      "hit": false,
      "t": 62868.75,
      "d": 165.625,
      "v": 92
    },
    {
      "midi": 55,
      "hit": false,
      "t": 63043.75,
      "d": 40.625,
      "v": 66
    },
    {
      "midi": 71,
      "hit": false,
      "t": 63053.125,
      "d": 134.375,
      "v": 58
    },
    {
      "midi": 67,
      "hit": false,
      "t": 63243.75,
      "d": 50,
      "v": 65
    },
    {
      "midi": 51,
      "hit": false,
      "t": 63259.375,
      "d": 56.25,
      "v": 15
    },
    {
      "midi": 61,
      "hit": false,
      "t": 63462.5,
      "d": 1153.125,
      "v": 72
    },
    {
      "midi": 52,
      "hit": false,
      "t": 63468.75,
      "d": 331.25,
      "v": 68
    },
    {
      "midi": 64,
      "hit": false,
      "t": 63637.5,
      "d": 800,
      "v": 59
    },
    {
      "midi": 55,
      "hit": false,
      "t": 63843.75,
      "d": 50,
      "v": 54
    },
    {
      "midi": 69,
      "hit": false,
      "t": 63862.5,
      "d": 137.5,
      "v": 62
    },
    {
      "midi": 71,
      "hit": false,
      "t": 64056.25,
      "d": 337.5,
      "v": 97
    },
    {
      "midi": 45,
      "hit": false,
      "t": 64256.25,
      "d": 53.125,
      "v": 82
    },
    {
      "midi": 69,
      "hit": false,
      "t": 64465.625,
      "d": 368.75,
      "v": 71
    },
    {
      "midi": 57,
      "hit": false,
      "t": 64656.25,
      "d": 50,
      "v": 44
    },
    {
      "midi": 52,
      "hit": false,
      "t": 64659.375,
      "d": 46.875,
      "v": 58
    },
    {
      "midi": 64,
      "hit": false,
      "t": 64659.375,
      "d": 281.25,
      "v": 77
    },
    {
      "midi": 55,
      "hit": false,
      "t": 64665.625,
      "d": 65.625,
      "v": 36
    },
    {
      "midi": 61,
      "hit": false,
      "t": 64850,
      "d": 171.875,
      "v": 89
    },
    {
      "midi": 62,
      "hit": false,
      "t": 65037.5,
      "d": 431.25,
      "v": 105
    },
    {
      "midi": 38,
      "hit": false,
      "t": 65050,
      "d": 40.625,
      "v": 79
    },
    {
      "midi": 66,
      "hit": false,
      "t": 65243.75,
      "d": 190.625,
      "v": 97
    },
    {
      "midi": 57,
      "hit": false,
      "t": 65412.5,
      "d": 37.5,
      "v": 75
    },
    {
      "midi": 54,
      "hit": false,
      "t": 65412.5,
      "d": 43.75,
      "v": 76
    },
    {
      "midi": 69,
      "hit": false,
      "t": 65421.875,
      "d": 146.875,
      "v": 92
    },
    {
      "midi": 72,
      "hit": false,
      "t": 65631.25,
      "d": 300,
      "v": 119
    },
    {
      "midi": 66,
      "hit": false,
      "t": 65634.375,
      "d": 381.25,
      "v": 110
    },
    {
      "midi": 62,
      "hit": false,
      "t": 65637.5,
      "d": 656.25,
      "v": 112
    },
    {
      "midi": 38,
      "hit": false,
      "t": 65821.875,
      "d": 40.625,
      "v": 83
    },
    {
      "midi": 72,
      "hit": false,
      "t": 65996.875,
      "d": 259.375,
      "v": 98
    },
    {
      "midi": 60,
      "hit": false,
      "t": 66175,
      "d": 46.875,
      "v": 79
    },
    {
      "midi": 71,
      "hit": false,
      "t": 66187.5,
      "d": 209.375,
      "v": 84
    },
    {
      "midi": 54,
      "hit": false,
      "t": 66190.625,
      "d": 43.75,
      "v": 70
    },
    {
      "midi": 69,
      "hit": false,
      "t": 66356.25,
      "d": 168.75,
      "v": 98
    },
    {
      "midi": 74,
      "hit": false,
      "t": 66562.5,
      "d": 968.75,
      "v": 91
    },
    {
      "midi": 67,
      "hit": false,
      "t": 66575,
      "d": 1000,
      "v": 65
    },
    {
      "midi": 71,
      "hit": false,
      "t": 66575,
      "d": 1000,
      "v": 59
    },
    {
      "midi": 62,
      "hit": false,
      "t": 66575,
      "d": 1046.875,
      "v": 73
    },
    {
      "midi": 43,
      "hit": false,
      "t": 66587.5,
      "d": 43.75,
      "v": 63
    },
    {
      "midi": 59,
      "hit": false,
      "t": 66984.375,
      "d": 34.375,
      "v": 57
    },
    {
      "midi": 55,
      "hit": false,
      "t": 66990.625,
      "d": 43.75,
      "v": 63
    },
    {
      "midi": 50,
      "hit": false,
      "t": 66996.875,
      "d": 46.875,
      "v": 56
    },
    {
      "midi": 38,
      "hit": false,
      "t": 67409.375,
      "d": 40.625,
      "v": 70
    },
    {
      "midi": 62,
      "hit": false,
      "t": 67825,
      "d": 75,
      "v": 76
    },
    {
      "midi": 59,
      "hit": false,
      "t": 67825,
      "d": 81.25,
      "v": 43
    },
    {
      "midi": 67,
      "hit": false,
      "t": 68240.625,
      "d": 387.5,
      "v": 113
    },
    {
      "midi": 47,
      "hit": false,
      "t": 68250,
      "d": 162.5,
      "v": 43
    },
    {
      "midi": 59,
      "hit": false,
      "t": 68256.25,
      "d": 234.375,
      "v": 43
    },
    {
      "midi": 66,
      "hit": false,
      "t": 68443.75,
      "d": 300,
      "v": 98
    },
    {
      "midi": 59,
      "hit": false,
      "t": 68650,
      "d": 37.5,
      "v": 44
    },
    {
      "midi": 55,
      "hit": false,
      "t": 68650,
      "d": 53.125,
      "v": 80
    },
    {
      "midi": 64,
      "hit": false,
      "t": 68650,
      "d": 150,
      "v": 107
    },
    {
      "midi": 62,
      "hit": false,
      "t": 68837.5,
      "d": 290.625,
      "v": 111
    },
    {
      "midi": 67,
      "hit": false,
      "t": 69059.375,
      "d": 334.375,
      "v": 103
    },
    {
      "midi": 46,
      "hit": false,
      "t": 69078.125,
      "d": 515.625,
      "v": 88
    },
    {
      "midi": 66,
      "hit": false,
      "t": 69253.125,
      "d": 184.375,
      "v": 89
    },
    {
      "midi": 58,
      "hit": false,
      "t": 69425,
      "d": 156.25,
      "v": 85
    },
    {
      "midi": 64,
      "hit": false,
      "t": 69456.25,
      "d": 125,
      "v": 92
    },
    {
      "midi": 65,
      "hit": false,
      "t": 69646.875,
      "d": 128.125,
      "v": 94
    },
    {
      "midi": 52,
      "hit": false,
      "t": 69668.75,
      "d": 50,
      "v": 62
    },
    {
      "midi": 66,
      "hit": false,
      "t": 69856.25,
      "d": 109.375,
      "v": 80
    },
    {
      "midi": 45,
      "hit": false,
      "t": 69865.625,
      "d": 40.625,
      "v": 81
    },
    {
      "midi": 57,
      "hit": false,
      "t": 69865.625,
      "d": 103.125,
      "v": 80
    },
    {
      "midi": 60,
      "hit": false,
      "t": 70262.5,
      "d": 46.875,
      "v": 64
    },
    {
      "midi": 66,
      "hit": false,
      "t": 70262.5,
      "d": 65.625,
      "v": 62
    },
    {
      "midi": 62,
      "hit": false,
      "t": 70268.75,
      "d": 46.875,
      "v": 56
    },
    {
      "midi": 72,
      "hit": false,
      "t": 70268.75,
      "d": 59.375,
      "v": 79
    },
    {
      "midi": 76,
      "hit": false,
      "t": 70268.75,
      "d": 62.5,
      "v": 75
    },
    {
      "midi": 54,
      "hit": false,
      "t": 70271.875,
      "d": 40.625,
      "v": 64
    },
    {
      "midi": 76,
      "hit": false,
      "t": 70481.25,
      "d": 446.875,
      "v": 80
    },
    {
      "midi": 66,
      "hit": false,
      "t": 70484.375,
      "d": 590.625,
      "v": 61
    },
    {
      "midi": 72,
      "hit": false,
      "t": 70490.625,
      "d": 506.25,
      "v": 56
    },
    {
      "midi": 38,
      "hit": false,
      "t": 70675,
      "d": 40.625,
      "v": 76
    },
    {
      "midi": 60,
      "hit": false,
      "t": 71071.875,
      "d": 40.625,
      "v": 67
    },
    {
      "midi": 62,
      "hit": false,
      "t": 71075,
      "d": 50,
      "v": 57
    },
    {
      "midi": 54,
      "hit": false,
      "t": 71081.25,
      "d": 53.125,
      "v": 54
    },
    {
      "midi": 69,
      "hit": false,
      "t": 71506.25,
      "d": 418.75,
      "v": 124
    },
    {
      "midi": 45,
      "hit": false,
      "t": 71512.5,
      "d": 137.5,
      "v": 89
    },
    {
      "midi": 66,
      "hit": false,
      "t": 71687.5,
      "d": 331.25,
      "v": 95
    },
    {
      "midi": 68,
      "hit": false,
      "t": 71737.5,
      "d": 81.25,
      "v": 38
    },
    {
      "midi": 64,
      "hit": false,
      "t": 71875,
      "d": 196.875,
      "v": 106
    },
    {
      "midi": 60,
      "hit": false,
      "t": 71887.5,
      "d": 43.75,
      "v": 84
    },
    {
      "midi": 54,
      "hit": false,
      "t": 71893.75,
      "d": 81.25,
      "v": 72
    },
    {
      "midi": 62,
      "hit": false,
      "t": 72084.375,
      "d": 281.25,
      "v": 111
    },
    {
      "midi": 69,
      "hit": false,
      "t": 72281.25,
      "d": 346.875,
      "v": 124
    },
    {
      "midi": 38,
      "hit": false,
      "t": 72303.125,
      "d": 59.375,
      "v": 95
    },
    {
      "midi": 66,
      "hit": false,
      "t": 72475,
      "d": 228.125,
      "v": 95
    },
    {
      "midi": 64,
      "hit": false,
      "t": 72668.75,
      "d": 131.25,
      "v": 102
    },
    {
      "midi": 60,
      "hit": false,
      "t": 72675,
      "d": 50,
      "v": 65
    },
    {
      "midi": 54,
      "hit": false,
      "t": 72684.375,
      "d": 56.25,
      "v": 70
    },
    {
      "midi": 69,
      "hit": false,
      "t": 72715.625,
      "d": 62.5,
      "v": 40
    },
    {
      "midi": 66,
      "hit": false,
      "t": 72856.25,
      "d": 125,
      "v": 95
    },
    {
      "midi": 67,
      "hit": false,
      "t": 73065.625,
      "d": 275,
      "v": 88
    },
    {
      "midi": 43,
      "hit": false,
      "t": 73068.75,
      "d": 106.25,
      "v": 65
    },
    {
      "midi": 50,
      "hit": false,
      "t": 73081.25,
      "d": 81.25,
      "v": 61
    },
    {
      "midi": 55,
      "hit": false,
      "t": 73487.5,
      "d": 50,
      "v": 56
    },
    {
      "midi": 71,
      "hit": false,
      "t": 73487.5,
      "d": 75,
      "v": 51
    },
    {
      "midi": 76,
      "hit": false,
      "t": 73487.5,
      "d": 100,
      "v": 80
    },
    {
      "midi": 50,
      "hit": false,
      "t": 73506.25,
      "d": 50,
      "v": 40
    },
    {
      "midi": 67,
      "hit": false,
      "t": 73534.375,
      "d": 65.625,
      "v": 29
    },
    {
      "midi": 76,
      "hit": false,
      "t": 73700,
      "d": 656.25,
      "v": 71
    },
    {
      "midi": 67,
      "hit": false,
      "t": 73709.375,
      "d": 1959.375,
      "v": 46
    },
    {
      "midi": 71,
      "hit": false,
      "t": 73712.5,
      "d": 637.5,
      "v": 57
    },
    {
      "midi": 38,
      "hit": false,
      "t": 73881.25,
      "d": 90.625,
      "v": 78
    },
    {
      "midi": 50,
      "hit": false,
      "t": 73890.625,
      "d": 131.25,
      "v": 60
    },
    {
      "midi": 59,
      "hit": false,
      "t": 74300,
      "d": 40.625,
      "v": 56
    },
    {
      "midi": 55,
      "hit": false,
      "t": 74309.375,
      "d": 43.75,
      "v": 66
    },
    {
      "midi": 50,
      "hit": false,
      "t": 74309.375,
      "d": 90.625,
      "v": 62
    },
    {
      "midi": 71,
      "hit": false,
      "t": 74731.25,
      "d": 196.875,
      "v": 86
    },
    {
      "midi": 43,
      "hit": false,
      "t": 74740.625,
      "d": 84.375,
      "v": 72
    },
    {
      "midi": 70,
      "hit": false,
      "t": 74915.625,
      "d": 150,
      "v": 93
    },
    {
      "midi": 59,
      "hit": false,
      "t": 75087.5,
      "d": 43.75,
      "v": 52
    },
    {
      "midi": 55,
      "hit": false,
      "t": 75100,
      "d": 43.75,
      "v": 63
    },
    {
      "midi": 71,
      "hit": false,
      "t": 75112.5,
      "d": 528.125,
      "v": 86
    },
    {
      "midi": 50,
      "hit": false,
      "t": 75118.75,
      "d": 43.75,
      "v": 53
    },
    {
      "midi": 76,
      "hit": false,
      "t": 75328.125,
      "d": 278.125,
      "v": 122
    },
    {
      "midi": 38,
      "hit": false,
      "t": 75518.75,
      "d": 50,
      "v": 92
    },
    {
      "midi": 50,
      "hit": false,
      "t": 75531.25,
      "d": 109.375,
      "v": 87
    },
    {
      "midi": 74,
      "hit": false,
      "t": 75746.875,
      "d": 231.25,
      "v": 101
    },
    {
      "midi": 55,
      "hit": false,
      "t": 75918.75,
      "d": 40.625,
      "v": 72
    },
    {
      "midi": 59,
      "hit": false,
      "t": 75921.875,
      "d": 37.5,
      "v": 47
    },
    {
      "midi": 71,
      "hit": false,
      "t": 75921.875,
      "d": 137.5,
      "v": 72
    },
    {
      "midi": 67,
      "hit": false,
      "t": 76118.75,
      "d": 37.5,
      "v": 100
    },
    {
      "midi": 61,
      "hit": false,
      "t": 76318.75,
      "d": 1090.625,
      "v": 108
    },
    {
      "midi": 45,
      "hit": false,
      "t": 76334.375,
      "d": 93.75,
      "v": 85
    },
    {
      "midi": 64,
      "hit": false,
      "t": 76518.75,
      "d": 775,
      "v": 87
    },
    {
      "midi": 69,
      "hit": false,
      "t": 76709.375,
      "d": 178.125,
      "v": 80
    },
    {
      "midi": 57,
      "hit": false,
      "t": 76721.875,
      "d": 50,
      "v": 44
    },
    {
      "midi": 55,
      "hit": false,
      "t": 76721.875,
      "d": 62.5,
      "v": 44
    },
    {
      "midi": 52,
      "hit": false,
      "t": 76731.25,
      "d": 46.875,
      "v": 52
    },
    {
      "midi": 71,
      "hit": false,
      "t": 76931.25,
      "d": 309.375,
      "v": 81
    },
    {
      "midi": 40,
      "hit": false,
      "t": 77106.25,
      "d": 53.125,
      "v": 83
    },
    {
      "midi": 69,
      "hit": false,
      "t": 77325,
      "d": 271.875,
      "v": 72
    },
    {
      "midi": 57,
      "hit": false,
      "t": 77493.75,
      "d": 46.875,
      "v": 58
    },
    {
      "midi": 55,
      "hit": false,
      "t": 77506.25,
      "d": 46.875,
      "v": 55
    },
    {
      "midi": 52,
      "hit": false,
      "t": 77512.5,
      "d": 50,
      "v": 49
    },
    {
      "midi": 64,
      "hit": false,
      "t": 77515.625,
      "d": 209.375,
      "v": 73
    },
    {
      "midi": 61,
      "hit": false,
      "t": 77706.25,
      "d": 153.125,
      "v": 84
    },
    {
      "midi": 42,
      "hit": false,
      "t": 77890.625,
      "d": 96.875,
      "v": 79
    },
    {
      "midi": 62,
      "hit": false,
      "t": 77890.625,
      "d": 315.625,
      "v": 98
    },
    {
      "midi": 66,
      "hit": false,
      "t": 78093.75,
      "d": 178.125,
      "v": 88
    },
    {
      "midi": 54,
      "hit": false,
      "t": 78259.375,
      "d": 50,
      "v": 84
    },
    {
      "midi": 69,
      "hit": false,
      "t": 78259.375,
      "d": 196.875,
      "v": 94
    },
    {
      "midi": 57,
      "hit": false,
      "t": 78262.5,
      "d": 37.5,
      "v": 77
    },
    {
      "midi": 72,
      "hit": false,
      "t": 78475,
      "d": 275,
      "v": 110
    },
    {
      "midi": 66,
      "hit": false,
      "t": 78475,
      "d": 318.75,
      "v": 104
    },
    {
      "midi": 62,
      "hit": false,
      "t": 78481.25,
      "d": 275,
      "v": 108
    },
    {
      "midi": 38,
      "hit": false,
      "t": 78640.625,
      "d": 50,
      "v": 97
    },
    {
      "midi": 72,
      "hit": false,
      "t": 78850,
      "d": 259.375,
      "v": 105
    },
    {
      "midi": 54,
      "hit": false,
      "t": 79031.25,
      "d": 59.375,
      "v": 75
    },
    {
      "midi": 71,
      "hit": false,
      "t": 79031.25,
      "d": 181.25,
      "v": 90
    },
    {
      "midi": 69,
      "hit": false,
      "t": 79206.25,
      "d": 96.875,
      "v": 103
    },
    {
      "midi": 74,
      "hit": false,
      "t": 79421.875,
      "d": 1275,
      "v": 91
    },
    {
      "midi": 43,
      "hit": false,
      "t": 79425,
      "d": 50,
      "v": 74
    },
    {
      "midi": 62,
      "hit": false,
      "t": 79425,
      "d": 1281.25,
      "v": 87
    },
    {
      "midi": 67,
      "hit": false,
      "t": 79425,
      "d": 1300,
      "v": 82
    },
    {
      "midi": 71,
      "hit": false,
      "t": 79425,
      "d": 1300,
      "v": 69
    },
    {
      "midi": 59,
      "hit": false,
      "t": 79843.75,
      "d": 31.25,
      "v": 76
    },
    {
      "midi": 55,
      "hit": false,
      "t": 79853.125,
      "d": 34.375,
      "v": 84
    },
    {
      "midi": 54,
      "hit": false,
      "t": 80275,
      "d": 93.75,
      "v": 91
    },
    {
      "midi": 42,
      "hit": false,
      "t": 80278.125,
      "d": 90.625,
      "v": 83
    },
    {
      "midi": 53,
      "hit": false,
      "t": 80668.75,
      "d": 87.5,
      "v": 91
    },
    {
      "midi": 41,
      "hit": false,
      "t": 80668.75,
      "d": 121.875,
      "v": 90
    },
    {
      "midi": 47,
      "hit": false,
      "t": 80918.75,
      "d": 103.125,
      "v": 48
    },
    {
      "midi": 40,
      "hit": false,
      "t": 81087.5,
      "d": 87.5,
      "v": 92
    },
    {
      "midi": 52,
      "hit": false,
      "t": 81087.5,
      "d": 125,
      "v": 80
    },
    {
      "midi": 71,
      "hit": false,
      "t": 81478.125,
      "d": 187.5,
      "v": 107
    },
    {
      "midi": 62,
      "hit": false,
      "t": 81484.375,
      "d": 34.375,
      "v": 83
    },
    {
      "midi": 56,
      "hit": false,
      "t": 81496.875,
      "d": 56.25,
      "v": 75
    },
    {
      "midi": 76,
      "hit": false,
      "t": 81703.125,
      "d": 321.875,
      "v": 111
    },
    {
      "midi": 64,
      "hit": false,
      "t": 81703.125,
      "d": 506.25,
      "v": 105
    },
    {
      "midi": 52,
      "hit": false,
      "t": 81887.5,
      "d": 131.25,
      "v": 102
    },
    {
      "midi": 40,
      "hit": false,
      "t": 81900,
      "d": 134.375,
      "v": 88
    },
    {
      "midi": 71,
      "hit": false,
      "t": 82090.625,
      "d": 256.25,
      "v": 101
    },
    {
      "midi": 50,
      "hit": false,
      "t": 82275,
      "d": 100,
      "v": 91
    },
    {
      "midi": 38,
      "hit": false,
      "t": 82278.125,
      "d": 121.875,
      "v": 92
    },
    {
      "midi": 68,
      "hit": false,
      "t": 82278.125,
      "d": 146.875,
      "v": 103
    },
    {
      "midi": 64,
      "hit": false,
      "t": 82462.5,
      "d": 131.25,
      "v": 105
    },
    {
      "midi": 43,
      "hit": false,
      "t": 82481.25,
      "d": 81.25,
      "v": 71
    },
    {
      "midi": 64,
      "hit": false,
      "t": 82665.625,
      "d": 265.625,
      "v": 105
    },
    {
      "midi": 69,
      "hit": false,
      "t": 82665.625,
      "d": 290.625,
      "v": 120
    },
    {
      "midi": 48,
      "hit": false,
      "t": 82671.875,
      "d": 212.5,
      "v": 103
    },
    {
      "midi": 36,
      "hit": false,
      "t": 82678.125,
      "d": 171.875,
      "v": 106
    },
    {
      "midi": 69,
      "hit": false,
      "t": 83065.625,
      "d": 115.625,
      "v": 110
    },
    {
      "midi": 64,
      "hit": false,
      "t": 83068.75,
      "d": 78.125,
      "v": 113
    },
    {
      "midi": 72,
      "hit": false,
      "t": 83068.75,
      "d": 143.75,
      "v": 114
    },
    {
      "midi": 36,
      "hit": false,
      "t": 83075,
      "d": 68.75,
      "v": 113
    },
    {
      "midi": 48,
      "hit": false,
      "t": 83075,
      "d": 78.125,
      "v": 115
    },
    {
      "midi": 79,
      "hit": false,
      "t": 83484.375,
      "d": 518.75,
      "v": 112
    },
    {
      "midi": 67,
      "hit": false,
      "t": 83484.375,
      "d": 584.375,
      "v": 109
    },
    {
      "midi": 51,
      "hit": false,
      "t": 83503.125,
      "d": 525,
      "v": 115
    },
    {
      "midi": 39,
      "hit": false,
      "t": 83503.125,
      "d": 546.875,
      "v": 103
    },
    {
      "midi": 71,
      "hit": false,
      "t": 83509.375,
      "d": 68.75,
      "v": 84
    },
    {
      "midi": 70,
      "hit": false,
      "t": 83753.125,
      "d": 75,
      "v": 54
    },
    {
      "midi": 70,
      "hit": false,
      "t": 83868.75,
      "d": 165.625,
      "v": 33
    },
    {
      "midi": 67,
      "hit": false,
      "t": 84337.5,
      "d": 156.25,
      "v": 115
    },
    {
      "midi": 71,
      "hit": false,
      "t": 84340.625,
      "d": 128.125,
      "v": 101
    },
    {
      "midi": 74,
      "hit": false,
      "t": 84340.625,
      "d": 146.875,
      "v": 119
    },
    {
      "midi": 50,
      "hit": false,
      "t": 84346.875,
      "d": 237.5,
      "v": 103
    },
    {
      "midi": 38,
      "hit": false,
      "t": 84362.5,
      "d": 196.875,
      "v": 99
    },
    {
      "midi": 71,
      "hit": false,
      "t": 84553.125,
      "d": 131.25,
      "v": 76
    },
    {
      "midi": 38,
      "hit": false,
      "t": 84734.375,
      "d": 103.125,
      "v": 88
    },
    {
      "midi": 67,
      "hit": false,
      "t": 84743.75,
      "d": 115.625,
      "v": 103
    },
    {
      "midi": 50,
      "hit": false,
      "t": 84743.75,
      "d": 146.875,
      "v": 88
    },
    {
      "midi": 69,
      "hit": false,
      "t": 84925,
      "d": 146.875,
      "v": 96
    },
    {
      "midi": 45,
      "hit": false,
      "t": 84950,
      "d": 115.625,
      "v": 86
    },
    {
      "midi": 61,
      "hit": false,
      "t": 85115.625,
      "d": 196.875,
      "v": 110
    },
    {
      "midi": 67,
      "hit": false,
      "t": 85118.75,
      "d": 140.625,
      "v": 106
    },
    {
      "midi": 71,
      "hit": false,
      "t": 85125,
      "d": 128.125,
      "v": 90
    },
    {
      "midi": 52,
      "hit": false,
      "t": 85131.25,
      "d": 140.625,
      "v": 115
    },
    {
      "midi": 40,
      "hit": false,
      "t": 85137.5,
      "d": 153.125,
      "v": 109
    },
    {
      "midi": 60,
      "hit": false,
      "t": 85553.125,
      "d": 218.75,
      "v": 108
    },
    {
      "midi": 69,
      "hit": false,
      "t": 85553.125,
      "d": 246.875,
      "v": 115
    },
    {
      "midi": 62,
      "hit": false,
      "t": 85553.125,
      "d": 350,
      "v": 111
    },
    {
      "midi": 42,
      "hit": false,
      "t": 85584.375,
      "d": 156.25,
      "v": 82
    },
    {
      "midi": 53,
      "hit": false,
      "t": 85634.375,
      "d": 56.25,
      "v": 21
    },
    {
      "midi": 62,
      "hit": false,
      "t": 85962.5,
      "d": 1006.25,
      "v": 108
    },
    {
      "midi": 67,
      "hit": false,
      "t": 85968.75,
      "d": 1006.25,
      "v": 113
    },
    {
      "midi": 59,
      "hit": false,
      "t": 85971.875,
      "d": 959.375,
      "v": 94
    },
    {
      "midi": 55,
      "hit": false,
      "t": 85975,
      "d": 28.125,
      "v": 102
    },
    {
      "midi": 43,
      "hit": false,
      "t": 85981.25,
      "d": 106.25,
      "v": 95
    },
    {
      "midi": 50,
      "hit": false,
      "t": 86390.625,
      "d": 128.125,
      "v": 121
    },
    {
      "midi": 38,
      "hit": false,
      "t": 86396.875,
      "d": 75,
      "v": 119
    },
    {
      "midi": 40,
      "hit": false,
      "t": 86812.5,
      "d": 93.75,
      "v": 115
    },
    {
      "midi": 52,
      "hit": false,
      "t": 86812.5,
      "d": 100,
      "v": 119
    },
    {
      "midi": 42,
      "hit": false,
      "t": 87196.875,
      "d": 121.875,
      "v": 98
    },
    {
      "midi": 54,
      "hit": false,
      "t": 87200,
      "d": 87.5,
      "v": 111
    },
    {
      "midi": 50,
      "hit": false,
      "t": 87431.25,
      "d": 115.625,
      "v": 88
    },
    {
      "midi": 43,
      "hit": false,
      "t": 87618.75,
      "d": 68.75,
      "v": 96
    },
    {
      "midi": 83,
      "hit": false,
      "t": 87621.875,
      "d": 212.5,
      "v": 113
    },
    {
      "midi": 55,
      "hit": false,
      "t": 87625,
      "d": 106.25,
      "v": 107
    },
    {
      "midi": 71,
      "hit": false,
      "t": 87625,
      "d": 156.25,
      "v": 109
    },
    {
      "midi": 82,
      "hit": false,
      "t": 87818.75,
      "d": 137.5,
      "v": 101
    },
    {
      "midi": 62,
      "hit": false,
      "t": 88003.125,
      "d": 40.625,
      "v": 75
    },
    {
      "midi": 59,
      "hit": false,
      "t": 88006.25,
      "d": 34.375,
      "v": 65
    },
    {
      "midi": 83,
      "hit": false,
      "t": 88006.25,
      "d": 90.625,
      "v": 91
    },
    {
      "midi": 55,
      "hit": false,
      "t": 88018.75,
      "d": 40.625,
      "v": 67
    },
    {
      "midi": 71,
      "hit": false,
      "t": 88018.75,
      "d": 40.625,
      "v": 75
    },
    {
      "midi": 88,
      "hit": false,
      "t": 88234.375,
      "d": 40.625,
      "v": 101
    },
    {
      "midi": 76,
      "hit": false,
      "t": 88253.125,
      "d": 293.75,
      "v": 59
    },
    {
      "midi": 88,
      "hit": false,
      "t": 88356.25,
      "d": 137.5,
      "v": 2
    },
    {
      "midi": 38,
      "hit": false,
      "t": 88415.625,
      "d": 46.875,
      "v": 89
    },
    {
      "midi": 50,
      "hit": false,
      "t": 88428.125,
      "d": 78.125,
      "v": 79
    },
    {
      "midi": 86,
      "hit": false,
      "t": 88631.25,
      "d": 143.75,
      "v": 103
    },
    {
      "midi": 83,
      "hit": false,
      "t": 88793.75,
      "d": 134.375,
      "v": 82
    },
    {
      "midi": 59,
      "hit": false,
      "t": 88806.25,
      "d": 43.75,
      "v": 66
    },
    {
      "midi": 62,
      "hit": false,
      "t": 88806.25,
      "d": 43.75,
      "v": 70
    },
    {
      "midi": 55,
      "hit": false,
      "t": 88818.75,
      "d": 53.125,
      "v": 62
    },
    {
      "midi": 79,
      "hit": false,
      "t": 89009.375,
      "d": 37.5,
      "v": 95
    },
    {
      "midi": 40,
      "hit": false,
      "t": 89206.25,
      "d": 50,
      "v": 91
    },
    {
      "midi": 73,
      "hit": false,
      "t": 89209.375,
      "d": 159.375,
      "v": 86
    },
    {
      "midi": 76,
      "hit": false,
      "t": 89393.75,
      "d": 106.25,
      "v": 96
    },
    {
      "midi": 64,
      "hit": false,
      "t": 89571.875,
      "d": 40.625,
      "v": 73
    },
    {
      "midi": 61,
      "hit": false,
      "t": 89581.25,
      "d": 37.5,
      "v": 77
    },
    {
      "midi": 55,
      "hit": false,
      "t": 89587.5,
      "d": 53.125,
      "v": 73
    },
    {
      "midi": 81,
      "hit": false,
      "t": 89609.375,
      "d": 134.375,
      "v": 54
    },
    {
      "midi": 71,
      "hit": false,
      "t": 89800,
      "d": 306.25,
      "v": 66
    },
    {
      "midi": 83,
      "hit": false,
      "t": 89803.125,
      "d": 250,
      "v": 66
    },
    {
      "midi": 76,
      "hit": false,
      "t": 89803.125,
      "d": 315.625,
      "v": 85
    },
    {
      "midi": 79,
      "hit": false,
      "t": 89815.625,
      "d": 246.875,
      "v": 68
    },
    {
      "midi": 33,
      "hit": false,
      "t": 89981.25,
      "d": 34.375,
      "v": 87
    },
    {
      "midi": 81,
      "hit": false,
      "t": 90187.5,
      "d": 112.5,
      "v": 94
    },
    {
      "midi": 64,
      "hit": false,
      "t": 90362.5,
      "d": 34.375,
      "v": 83
    },
    {
      "midi": 61,
      "hit": false,
      "t": 90365.625,
      "d": 40.625,
      "v": 88
    },
    {
      "midi": 55,
      "hit": false,
      "t": 90375,
      "d": 50,
      "v": 76
    },
    {
      "midi": 76,
      "hit": false,
      "t": 90387.5,
      "d": 156.25,
      "v": 99
    },
    {
      "midi": 73,
      "hit": false,
      "t": 90581.25,
      "d": 96.875,
      "v": 96
    },
    {
      "midi": 38,
      "hit": false,
      "t": 90640.625,
      "d": 103.125,
      "v": 84
    },
    {
      "midi": 45,
      "hit": false,
      "t": 90712.5,
      "d": 181.25,
      "v": 95
    },
    {
      "midi": 74,
      "hit": false,
      "t": 90775,
      "d": 256.25,
      "v": 111
    },
    {
      "midi": 54,
      "hit": false,
      "t": 90781.25,
      "d": 175,
      "v": 114
    },
    {
      "midi": 78,
      "hit": false,
      "t": 90965.625,
      "d": 121.875,
      "v": 92
    },
    {
      "midi": 81,
      "hit": false,
      "t": 91150,
      "d": 175,
      "v": 102
    },
    {
      "midi": 62,
      "hit": false,
      "t": 91156.25,
      "d": 37.5,
      "v": 82
    },
    {
      "midi": 60,
      "hit": false,
      "t": 91159.375,
      "d": 37.5,
      "v": 79
    },
    {
      "midi": 54,
      "hit": false,
      "t": 91168.75,
      "d": 62.5,
      "v": 73
    },
    {
      "midi": 78,
      "hit": false,
      "t": 91362.5,
      "d": 325,
      "v": 83
    },
    {
      "midi": 84,
      "hit": false,
      "t": 91378.125,
      "d": 250,
      "v": 87
    },
    {
      "midi": 72,
      "hit": false,
      "t": 91387.5,
      "d": 271.875,
      "v": 71
    },
    {
      "midi": 74,
      "hit": false,
      "t": 91390.625,
      "d": 265.625,
      "v": 70
    },
    {
      "midi": 81,
      "hit": false,
      "t": 91403.125,
      "d": 262.5,
      "v": 59
    },
    {
      "midi": 33,
      "hit": false,
      "t": 91543.75,
      "d": 34.375,
      "v": 87
    },
    {
      "midi": 78,
      "hit": false,
      "t": 91753.125,
      "d": 212.5,
      "v": 78
    },
    {
      "midi": 84,
      "hit": false,
      "t": 91756.25,
      "d": 256.25,
      "v": 94
    },
    {
      "midi": 72,
      "hit": false,
      "t": 91771.875,
      "d": 231.25,
      "v": 53
    },
    {
      "midi": 74,
      "hit": false,
      "t": 91800,
      "d": 65.625,
      "v": 43
    },
    {
      "midi": 62,
      "hit": false,
      "t": 91912.5,
      "d": 50,
      "v": 69
    },
    {
      "midi": 60,
      "hit": false,
      "t": 91918.75,
      "d": 37.5,
      "v": 79
    },
    {
      "midi": 54,
      "hit": false,
      "t": 91918.75,
      "d": 100,
      "v": 72
    },
    {
      "midi": 83,
      "hit": false,
      "t": 91937.5,
      "d": 143.75,
      "v": 74
    },
    {
      "midi": 81,
      "hit": false,
      "t": 92125,
      "d": 106.25,
      "v": 93
    },
    {
      "midi": 50,
      "hit": false,
      "t": 92146.875,
      "d": 56.25,
      "v": 50
    },
    {
      "midi": 86,
      "hit": false,
      "t": 92315.625,
      "d": 862.5,
      "v": 98
    },
    {
      "midi": 43,
      "hit": false,
      "t": 92321.875,
      "d": 56.25,
      "v": 74
    },
    {
      "midi": 83,
      "hit": false,
      "t": 92321.875,
      "d": 878.125,
      "v": 68
    },
    {
      "midi": 79,
      "hit": false,
      "t": 92325,
      "d": 890.625,
      "v": 75
    },
    {
      "midi": 74,
      "hit": false,
      "t": 92328.125,
      "d": 909.375,
      "v": 70
    },
    {
      "midi": 55,
      "hit": false,
      "t": 92337.5,
      "d": 78.125,
      "v": 69
    },
    {
      "midi": 59,
      "hit": false,
      "t": 92709.375,
      "d": 34.375,
      "v": 64
    },
    {
      "midi": 50,
      "hit": false,
      "t": 92709.375,
      "d": 65.625,
      "v": 77
    },
    {
      "midi": 55,
      "hit": false,
      "t": 92712.5,
      "d": 43.75,
      "v": 69
    },
    {
      "midi": 38,
      "hit": false,
      "t": 93118.75,
      "d": 46.875,
      "v": 95
    },
    {
      "midi": 55,
      "hit": false,
      "t": 93512.5,
      "d": 59.375,
      "v": 85
    },
    {
      "midi": 62,
      "hit": false,
      "t": 93512.5,
      "d": 300,
      "v": 107
    },
    {
      "midi": 59,
      "hit": false,
      "t": 93515.625,
      "d": 125,
      "v": 79
    },
    {
      "midi": 64,
      "hit": false,
      "t": 93740.625,
      "d": 115.625,
      "v": 78
    },
    {
      "midi": 65,
      "hit": false,
      "t": 93800,
      "d": 109.375,
      "v": 87
    },
    {
      "midi": 66,
      "hit": false,
      "t": 93868.75,
      "d": 31.25,
      "v": 87
    },
    {
      "midi": 67,
      "hit": false,
      "t": 93912.5,
      "d": 171.875,
      "v": 100
    },
    {
      "midi": 47,
      "hit": false,
      "t": 93925,
      "d": 103.125,
      "v": 61
    },
    {
      "midi": 59,
      "hit": false,
      "t": 93925,
      "d": 165.625,
      "v": 66
    },
    {
      "midi": 66,
      "hit": false,
      "t": 94112.5,
      "d": 175,
      "v": 83
    },
    {
      "midi": 59,
      "hit": false,
      "t": 94296.875,
      "d": 81.25,
      "v": 64
    },
    {
      "midi": 64,
      "hit": false,
      "t": 94296.875,
      "d": 134.375,
      "v": 84
    },
    {
      "midi": 55,
      "hit": false,
      "t": 94306.25,
      "d": 50,
      "v": 66
    },
    {
      "midi": 62,
      "hit": false,
      "t": 94487.5,
      "d": 259.375,
      "v": 103
    },
    {
      "midi": 67,
      "hit": false,
      "t": 94687.5,
      "d": 146.875,
      "v": 101
    },
    {
      "midi": 55,
      "hit": false,
      "t": 94693.75,
      "d": 215.625,
      "v": 92
    },
    {
      "midi": 66,
      "hit": false,
      "t": 94850,
      "d": 78.125,
      "v": 81
    },
    {
      "midi": 67,
      "hit": false,
      "t": 94928.125,
      "d": 178.125,
      "v": 70
    },
    {
      "midi": 66,
      "hit": false,
      "t": 95009.375,
      "d": 146.875,
      "v": 80
    },
    {
      "midi": 46,
      "hit": false,
      "t": 95068.75,
      "d": 175,
      "v": 91
    },
    {
      "midi": 55,
      "hit": false,
      "t": 95075,
      "d": 140.625,
      "v": 71
    },
    {
      "midi": 64,
      "hit": false,
      "t": 95081.25,
      "d": 121.875,
      "v": 103
    },
    {
      "midi": 65,
      "hit": false,
      "t": 95290.625,
      "d": 128.125,
      "v": 99
    },
    {
      "midi": 52,
      "hit": false,
      "t": 95337.5,
      "d": 59.375,
      "v": 55
    },
    {
      "midi": 45,
      "hit": false,
      "t": 95465.625,
      "d": 53.125,
      "v": 92
    },
    {
      "midi": 66,
      "hit": false,
      "t": 95475,
      "d": 100,
      "v": 87
    },
    {
      "midi": 54,
      "hit": false,
      "t": 95475,
      "d": 131.25,
      "v": 78
    },
    {
      "midi": 66,
      "hit": false,
      "t": 95875,
      "d": 96.875,
      "v": 61
    },
    {
      "midi": 60,
      "hit": false,
      "t": 95878.125,
      "d": 40.625,
      "v": 70
    },
    {
      "midi": 54,
      "hit": false,
      "t": 95878.125,
      "d": 46.875,
      "v": 71
    },
    {
      "midi": 62,
      "hit": false,
      "t": 95878.125,
      "d": 56.25,
      "v": 51
    },
    {
      "midi": 76,
      "hit": false,
      "t": 95884.375,
      "d": 109.375,
      "v": 81
    },
    {
      "midi": 72,
      "hit": false,
      "t": 95903.125,
      "d": 68.75,
      "v": 59
    },
    {
      "midi": 69,
      "hit": false,
      "t": 95906.25,
      "d": 75,
      "v": 35
    },
    {
      "midi": 69,
      "hit": false,
      "t": 96087.5,
      "d": 515.625,
      "v": 73
    },
    {
      "midi": 76,
      "hit": false,
      "t": 96090.625,
      "d": 537.5,
      "v": 70
    },
    {
      "midi": 66,
      "hit": false,
      "t": 96100,
      "d": 303.125,
      "v": 69
    },
    {
      "midi": 72,
      "hit": false,
      "t": 96118.75,
      "d": 481.25,
      "v": 65
    },
    {
      "midi": 38,
      "hit": false,
      "t": 96287.5,
      "d": 46.875,
      "v": 87
    },
    {
      "midi": 66,
      "hit": false,
      "t": 96493.75,
      "d": 106.25,
      "v": 79
    },
    {
      "midi": 60,
      "hit": false,
      "t": 96671.875,
      "d": 46.875,
      "v": 91
    },
    {
      "midi": 62,
      "hit": false,
      "t": 96675,
      "d": 40.625,
      "v": 87
    },
    {
      "midi": 54,
      "hit": false,
      "t": 96678.125,
      "d": 96.875,
      "v": 80
    },
    {
      "midi": 69,
      "hit": false,
      "t": 96890.625,
      "d": 84.375,
      "v": 106
    },
    {
      "midi": 45,
      "hit": false,
      "t": 97090.625,
      "d": 90.625,
      "v": 102
    },
    {
      "midi": 74,
      "hit": false,
      "t": 97090.625,
      "d": 168.75,
      "v": 117
    },
    {
      "midi": 81,
      "hit": false,
      "t": 97090.625,
      "d": 278.125,
      "v": 119
    },
    {
      "midi": 69,
      "hit": false,
      "t": 97090.625,
      "d": 528.125,
      "v": 111
    },
    {
      "midi": 54,
      "hit": false,
      "t": 97093.75,
      "d": 159.375,
      "v": 97
    },
    {
      "midi": 78,
      "hit": false,
      "t": 97300,
      "d": 146.875,
      "v": 93
    },
    {
      "midi": 62,
      "hit": false,
      "t": 97496.875,
      "d": 37.5,
      "v": 80
    },
    {
      "midi": 60,
      "hit": false,
      "t": 97496.875,
      "d": 40.625,
      "v": 87
    },
    {
      "midi": 76,
      "hit": false,
      "t": 97496.875,
      "d": 162.5,
      "v": 108
    },
    {
      "midi": 54,
      "hit": false,
      "t": 97509.375,
      "d": 81.25,
      "v": 68
    },
    {
      "midi": 74,
      "hit": false,
      "t": 97693.75,
      "d": 143.75,
      "v": 101
    },
    {
      "midi": 81,
      "hit": false,
      "t": 97900,
      "d": 162.5,
      "v": 106
    },
    {
      "midi": 69,
      "hit": false,
      "t": 97903.125,
      "d": 103.125,
      "v": 91
    },
    {
      "midi": 74,
      "hit": false,
      "t": 97903.125,
      "d": 106.25,
      "v": 96
    },
    {
      "midi": 38,
      "hit": false,
      "t": 97912.5,
      "d": 40.625,
      "v": 94
    },
    {
      "midi": 78,
      "hit": false,
      "t": 98112.5,
      "d": 46.875,
      "v": 85
    },
    {
      "midi": 81,
      "hit": false,
      "t": 98178.125,
      "d": 171.875,
      "v": 73
    },
    {
      "midi": 78,
      "hit": false,
      "t": 98262.5,
      "d": 175,
      "v": 91
    },
    {
      "midi": 60,
      "hit": false,
      "t": 98315.625,
      "d": 40.625,
      "v": 84
    },
    {
      "midi": 62,
      "hit": false,
      "t": 98318.75,
      "d": 43.75,
      "v": 74
    },
    {
      "midi": 54,
      "hit": false,
      "t": 98321.875,
      "d": 115.625,
      "v": 72
    },
    {
      "midi": 76,
      "hit": false,
      "t": 98356.25,
      "d": 106.25,
      "v": 96
    },
    {
      "midi": 78,
      "hit": false,
      "t": 98521.875,
      "d": 128.125,
      "v": 83
    },
    {
      "midi": 43,
      "hit": false,
      "t": 98731.25,
      "d": 65.625,
      "v": 71
    },
    {
      "midi": 79,
      "hit": false,
      "t": 98734.375,
      "d": 190.625,
      "v": 91
    },
    {
      "midi": 50,
      "hit": false,
      "t": 98743.75,
      "d": 62.5,
      "v": 55
    },
    {
      "midi": 62,
      "hit": false,
      "t": 99140.625,
      "d": 53.125,
      "v": 52
    },
    {
      "midi": 88,
      "hit": false,
      "t": 99140.625,
      "d": 109.375,
      "v": 80
    },
    {
      "midi": 59,
      "hit": false,
      "t": 99150,
      "d": 34.375,
      "v": 54
    },
    {
      "midi": 55,
      "hit": false,
      "t": 99150,
      "d": 50,
      "v": 57
    },
    {
      "midi": 83,
      "hit": false,
      "t": 99156.25,
      "d": 103.125,
      "v": 32
    },
    {
      "midi": 88,
      "hit": false,
      "t": 99350,
      "d": 365.625,
      "v": 72
    },
    {
      "midi": 83,
      "hit": false,
      "t": 99350,
      "d": 396.875,
      "v": 52
    },
    {
      "midi": 79,
      "hit": false,
      "t": 99359.375,
      "d": 409.375,
      "v": 46
    },
    {
      "midi": 76,
      "hit": false,
      "t": 99375,
      "d": 243.75,
      "v": 69
    },
    {
      "midi": 38,
      "hit": false,
      "t": 99531.25,
      "d": 37.5,
      "v": 84
    },
    {
      "midi": 50,
      "hit": false,
      "t": 99550,
      "d": 93.75,
      "v": 65
    },
    {
      "midi": 76,
      "hit": false,
      "t": 99740.625,
      "d": 37.5,
      "v": 71
    },
    {
      "midi": 62,
      "hit": false,
      "t": 99918.75,
      "d": 40.625,
      "v": 74
    },
    {
      "midi": 55,
      "hit": false,
      "t": 99921.875,
      "d": 65.625,
      "v": 77
    },
    {
      "midi": 59,
      "hit": false,
      "t": 99925,
      "d": 34.375,
      "v": 68
    },
    {
      "midi": 67,
      "hit": false,
      "t": 100331.25,
      "d": 96.875,
      "v": 105
    },
    {
      "midi": 71,
      "hit": false,
      "t": 100331.25,
      "d": 134.375,
      "v": 102
    },
    {
      "midi": 43,
      "hit": false,
      "t": 100343.75,
      "d": 53.125,
      "v": 86
    },
    {
      "midi": 50,
      "hit": false,
      "t": 100343.75,
      "d": 118.75,
      "v": 84
    },
    {
      "midi": 70,
      "hit": false,
      "t": 100540.625,
      "d": 106.25,
      "v": 97
    },
    {
      "midi": 66,
      "hit": false,
      "t": 100540.625,
      "d": 131.25,
      "v": 79
    },
    {
      "midi": 59,
      "hit": false,
      "t": 100715.625,
      "d": 34.375,
      "v": 65
    },
    {
      "midi": 62,
      "hit": false,
      "t": 100715.625,
      "d": 53.125,
      "v": 57
    },
    {
      "midi": 67,
      "hit": false,
      "t": 100731.25,
      "d": 96.875,
      "v": 76
    },
    {
      "midi": 71,
      "hit": false,
      "t": 100746.875,
      "d": 134.375,
      "v": 60
    },
    {
      "midi": 76,
      "hit": false,
      "t": 100943.75,
      "d": 237.5,
      "v": 88
    },
    {
      "midi": 67,
      "hit": false,
      "t": 100943.75,
      "d": 312.5,
      "v": 71
    },
    {
      "midi": 71,
      "hit": false,
      "t": 100953.125,
      "d": 275,
      "v": 76
    },
    {
      "midi": 38,
      "hit": false,
      "t": 101125,
      "d": 40.625,
      "v": 80
    },
    {
      "midi": 50,
      "hit": false,
      "t": 101131.25,
      "d": 112.5,
      "v": 73
    },
    {
      "midi": 74,
      "hit": false,
      "t": 101343.75,
      "d": 65.625,
      "v": 93
    },
    {
      "midi": 71,
      "hit": false,
      "t": 101506.25,
      "d": 121.875,
      "v": 70
    },
    {
      "midi": 55,
      "hit": false,
      "t": 101509.375,
      "d": 37.5,
      "v": 76
    },
    {
      "midi": 59,
      "hit": false,
      "t": 101515.625,
      "d": 43.75,
      "v": 41
    },
    {
      "midi": 67,
      "hit": false,
      "t": 101700,
      "d": 43.75,
      "v": 100
    },
    {
      "midi": 61,
      "hit": false,
      "t": 101896.875,
      "d": 143.75,
      "v": 111
    },
    {
      "midi": 40,
      "hit": false,
      "t": 101906.25,
      "d": 43.75,
      "v": 95
    },
    {
      "midi": 64,
      "hit": false,
      "t": 102081.25,
      "d": 84.375,
      "v": 88
    },
    {
      "midi": 57,
      "hit": false,
      "t": 102268.75,
      "d": 37.5,
      "v": 73
    },
    {
      "midi": 69,
      "hit": false,
      "t": 102268.75,
      "d": 137.5,
      "v": 80
    },
    {
      "midi": 55,
      "hit": false,
      "t": 102275,
      "d": 43.75,
      "v": 67
    },
    {
      "midi": 52,
      "hit": false,
      "t": 102284.375,
      "d": 34.375,
      "v": 73
    },
    {
      "midi": 61,
      "hit": false,
      "t": 102484.375,
      "d": 309.375,
      "v": 81
    },
    {
      "midi": 71,
      "hit": false,
      "t": 102487.5,
      "d": 271.875,
      "v": 81
    },
    {
      "midi": 64,
      "hit": false,
      "t": 102490.625,
      "d": 284.375,
      "v": 84
    },
    {
      "midi": 33,
      "hit": false,
      "t": 102650,
      "d": 40.625,
      "v": 101
    },
    {
      "midi": 45,
      "hit": false,
      "t": 102653.125,
      "d": 96.875,
      "v": 103
    },
    {
      "midi": 69,
      "hit": false,
      "t": 102865.625,
      "d": 246.875,
      "v": 88
    },
    {
      "midi": 57,
      "hit": false,
      "t": 103040.625,
      "d": 34.375,
      "v": 79
    },
    {
      "midi": 55,
      "hit": false,
      "t": 103040.625,
      "d": 37.5,
      "v": 80
    },
    {
      "midi": 64,
      "hit": false,
      "t": 103040.625,
      "d": 128.125,
      "v": 94
    },
    {
      "midi": 52,
      "hit": false,
      "t": 103046.875,
      "d": 75,
      "v": 75
    },
    {
      "midi": 61,
      "hit": false,
      "t": 103231.25,
      "d": 153.125,
      "v": 101
    },
    {
      "midi": 62,
      "hit": false,
      "t": 103421.875,
      "d": 134.375,
      "v": 99
    },
    {
      "midi": 38,
      "hit": false,
      "t": 103425,
      "d": 40.625,
      "v": 92
    },
    {
      "midi": 50,
      "hit": false,
      "t": 103431.25,
      "d": 96.875,
      "v": 100
    },
    {
      "midi": 66,
      "hit": false,
      "t": 103609.375,
      "d": 125,
      "v": 78
    },
    {
      "midi": 60,
      "hit": false,
      "t": 103800,
      "d": 46.875,
      "v": 95
    },
    {
      "midi": 69,
      "hit": false,
      "t": 103806.25,
      "d": 121.875,
      "v": 100
    },
    {
      "midi": 54,
      "hit": false,
      "t": 103815.625,
      "d": 53.125,
      "v": 84
    },
    {
      "midi": 72,
      "hit": false,
      "t": 104006.25,
      "d": 256.25,
      "v": 111
    },
    {
      "midi": 66,
      "hit": false,
      "t": 104006.25,
      "d": 306.25,
      "v": 104
    },
    {
      "midi": 62,
      "hit": false,
      "t": 104012.5,
      "d": 306.25,
      "v": 105
    },
    {
      "midi": 38,
      "hit": false,
      "t": 104187.5,
      "d": 40.625,
      "v": 101
    },
    {
      "midi": 50,
      "hit": false,
      "t": 104187.5,
      "d": 109.375,
      "v": 109
    },
    {
      "midi": 72,
      "hit": false,
      "t": 104396.875,
      "d": 240.625,
      "v": 113
    },
    {
      "midi": 60,
      "hit": false,
      "t": 104568.75,
      "d": 50,
      "v": 89
    },
    {
      "midi": 54,
      "hit": false,
      "t": 104575,
      "d": 62.5,
      "v": 79
    },
    {
      "midi": 71,
      "hit": false,
      "t": 104575,
      "d": 134.375,
      "v": 91
    },
    {
      "midi": 69,
      "hit": false,
      "t": 104759.375,
      "d": 106.25,
      "v": 108
    },
    {
      "midi": 74,
      "hit": false,
      "t": 104953.125,
      "d": 1412.5,
      "v": 110
    },
    {
      "midi": 55,
      "hit": false,
      "t": 104962.5,
      "d": 59.375,
      "v": 105
    },
    {
      "midi": 62,
      "hit": false,
      "t": 104962.5,
      "d": 1365.625,
      "v": 103
    },
    {
      "midi": 67,
      "hit": false,
      "t": 104962.5,
      "d": 1412.5,
      "v": 103
    },
    {
      "midi": 71,
      "hit": false,
      "t": 104962.5,
      "d": 1428.125,
      "v": 86
    },
    {
      "midi": 43,
      "hit": false,
      "t": 104971.875,
      "d": 31.25,
      "v": 91
    },
    {
      "midi": 59,
      "hit": false,
      "t": 105368.75,
      "d": 81.25,
      "v": 106
    },
    {
      "midi": 50,
      "hit": false,
      "t": 105368.75,
      "d": 109.375,
      "v": 108
    },
    {
      "midi": 55,
      "hit": false,
      "t": 105371.875,
      "d": 50,
      "v": 108
    },
    {
      "midi": 42,
      "hit": false,
      "t": 105796.875,
      "d": 103.125,
      "v": 108
    },
    {
      "midi": 54,
      "hit": false,
      "t": 105796.875,
      "d": 103.125,
      "v": 116
    },
    {
      "midi": 53,
      "hit": false,
      "t": 106206.25,
      "d": 84.375,
      "v": 120
    },
    {
      "midi": 41,
      "hit": false,
      "t": 106212.5,
      "d": 87.5,
      "v": 120
    },
    {
      "midi": 40,
      "hit": false,
      "t": 106612.5,
      "d": 84.375,
      "v": 118
    },
    {
      "midi": 52,
      "hit": false,
      "t": 106618.75,
      "d": 112.5,
      "v": 105
    },
    {
      "midi": 53,
      "hit": false,
      "t": 106625,
      "d": 34.375,
      "v": 112
    },
    {
      "midi": 83,
      "hit": false,
      "t": 107018.75,
      "d": 134.375,
      "v": 110
    },
    {
      "midi": 62,
      "hit": false,
      "t": 107021.875,
      "d": 53.125,
      "v": 104
    },
    {
      "midi": 64,
      "hit": false,
      "t": 107025,
      "d": 34.375,
      "v": 102
    },
    {
      "midi": 56,
      "hit": false,
      "t": 107028.125,
      "d": 93.75,
      "v": 90
    },
    {
      "midi": 88,
      "hit": false,
      "t": 107221.875,
      "d": 278.125,
      "v": 115
    },
    {
      "midi": 80,
      "hit": false,
      "t": 107221.875,
      "d": 290.625,
      "v": 107
    },
    {
      "midi": 83,
      "hit": false,
      "t": 107225,
      "d": 281.25,
      "v": 84
    },
    {
      "midi": 76,
      "hit": false,
      "t": 107237.5,
      "d": 262.5,
      "v": 106
    },
    {
      "midi": 52,
      "hit": false,
      "t": 107393.75,
      "d": 134.375,
      "v": 111
    },
    {
      "midi": 40,
      "hit": false,
      "t": 107400,
      "d": 137.5,
      "v": 101
    },
    {
      "midi": 83,
      "hit": false,
      "t": 107600,
      "d": 109.375,
      "v": 86
    },
    {
      "midi": 50,
      "hit": false,
      "t": 107775,
      "d": 109.375,
      "v": 105
    },
    {
      "midi": 38,
      "hit": false,
      "t": 107781.25,
      "d": 100,
      "v": 107
    },
    {
      "midi": 80,
      "hit": false,
      "t": 107781.25,
      "d": 118.75,
      "v": 106
    },
    {
      "midi": 76,
      "hit": false,
      "t": 107965.625,
      "d": 115.625,
      "v": 99
    },
    {
      "midi": 43,
      "hit": false,
      "t": 107968.75,
      "d": 100,
      "v": 97
    },
    {
      "midi": 48,
      "hit": false,
      "t": 108156.25,
      "d": 125,
      "v": 115
    },
    {
      "midi": 36,
      "hit": false,
      "t": 108159.375,
      "d": 71.875,
      "v": 115
    },
    {
      "midi": 81,
      "hit": false,
      "t": 108159.375,
      "d": 125,
      "v": 117
    },
    {
      "midi": 76,
      "hit": false,
      "t": 108159.375,
      "d": 134.375,
      "v": 104
    },
    {
      "midi": 52,
      "hit": false,
      "t": 108546.875,
      "d": 115.625,
      "v": 113
    },
    {
      "midi": 84,
      "hit": false,
      "t": 108546.875,
      "d": 128.125,
      "v": 113
    },
    {
      "midi": 81,
      "hit": false,
      "t": 108550,
      "d": 78.125,
      "v": 115
    },
    {
      "midi": 40,
      "hit": false,
      "t": 108550,
      "d": 115.625,
      "v": 110
    },
    {
      "midi": 76,
      "hit": false,
      "t": 108553.125,
      "d": 40.625,
      "v": 114
    },
    {
      "midi": 79,
      "hit": false,
      "t": 108906.25,
      "d": 43.75,
      "v": 101
    },
    {
      "midi": 82,
      "hit": false,
      "t": 108931.25,
      "d": 43.75,
      "v": 110
    },
    {
      "midi": 51,
      "hit": false,
      "t": 108950,
      "d": 78.125,
      "v": 104
    },
    {
      "midi": 39,
      "hit": false,
      "t": 108950,
      "d": 90.625,
      "v": 106
    },
    {
      "midi": 85,
      "hit": false,
      "t": 108956.25,
      "d": 31.25,
      "v": 103
    },
    {
      "midi": 91,
      "hit": false,
      "t": 108987.5,
      "d": 18.75,
      "v": 114
    },
    {
      "midi": 62,
      "hit": false,
      "t": 109746.875,
      "d": 162.5,
      "v": 95
    },
    {
      "midi": 74,
      "hit": false,
      "t": 109746.875,
      "d": 171.875,
      "v": 98
    },
    {
      "midi": 38,
      "hit": false,
      "t": 109750,
      "d": 37.5,
      "v": 98
    },
    {
      "midi": 50,
      "hit": false,
      "t": 109756.25,
      "d": 106.25,
      "v": 101
    },
    {
      "midi": 67,
      "hit": false,
      "t": 109756.25,
      "d": 125,
      "v": 85
    },
    {
      "midi": 71,
      "hit": false,
      "t": 109756.25,
      "d": 150,
      "v": 76
    },
    {
      "midi": 48,
      "hit": false,
      "t": 109806.25,
      "d": 56.25,
      "v": 23
    },
    {
      "midi": 71,
      "hit": false,
      "t": 109962.5,
      "d": 206.25,
      "v": 55
    },
    {
      "midi": 59,
      "hit": false,
      "t": 110131.25,
      "d": 31.25,
      "v": 72
    },
    {
      "midi": 55,
      "hit": false,
      "t": 110140.625,
      "d": 37.5,
      "v": 81
    },
    {
      "midi": 67,
      "hit": false,
      "t": 110159.375,
      "d": 162.5,
      "v": 83
    },
    {
      "midi": 69,
      "hit": false,
      "t": 110343.75,
      "d": 143.75,
      "v": 91
    },
    {
      "midi": 52,
      "hit": false,
      "t": 110534.375,
      "d": 93.75,
      "v": 108
    },
    {
      "midi": 71,
      "hit": false,
      "t": 110534.375,
      "d": 103.125,
      "v": 76
    },
    {
      "midi": 67,
      "hit": false,
      "t": 110534.375,
      "d": 109.375,
      "v": 97
    },
    {
      "midi": 61,
      "hit": false,
      "t": 110534.375,
      "d": 153.125,
      "v": 98
    },
    {
      "midi": 40,
      "hit": false,
      "t": 110537.5,
      "d": 118.75,
      "v": 101
    },
    {
      "midi": 45,
      "hit": false,
      "t": 110734.375,
      "d": 121.875,
      "v": 93
    },
    {
      "midi": 69,
      "hit": false,
      "t": 110928.125,
      "d": 184.375,
      "v": 107
    },
    {
      "midi": 60,
      "hit": false,
      "t": 110928.125,
      "d": 209.375,
      "v": 101
    },
    {
      "midi": 62,
      "hit": false,
      "t": 110928.125,
      "d": 306.25,
      "v": 108
    },
    {
      "midi": 38,
      "hit": false,
      "t": 110937.5,
      "d": 78.125,
      "v": 101
    },
    {
      "midi": 50,
      "hit": false,
      "t": 110937.5,
      "d": 106.25,
      "v": 108
    },
    {
      "midi": 62,
      "hit": false,
      "t": 111331.25,
      "d": 68.75,
      "v": 108
    },
    {
      "midi": 67,
      "hit": false,
      "t": 111331.25,
      "d": 93.75,
      "v": 115
    },
    {
      "midi": 59,
      "hit": false,
      "t": 111334.375,
      "d": 78.125,
      "v": 106
    },
    {
      "midi": 43,
      "hit": false,
      "t": 111340.625,
      "d": 84.375,
      "v": 100
    },
    {
      "midi": 55,
      "hit": false,
      "t": 111340.625,
      "d": 84.375,
      "v": 113
    },
    {
      "midi": 71,
      "hit": false,
      "t": 111753.125,
      "d": 256.25,
      "v": 95
    },
    {
      "midi": 67,
      "hit": false,
      "t": 111756.25,
      "d": 250,
      "v": 114
    },
    {
      "midi": 79,
      "hit": false,
      "t": 111756.25,
      "d": 303.125,
      "v": 113
    },
    {
      "midi": 74,
      "hit": false,
      "t": 111759.375,
      "d": 328.125,
      "v": 108
    },
    {
      "midi": 55,
      "hit": false,
      "t": 111762.5,
      "d": 206.25,
      "v": 117
    },
    {
      "midi": 43,
      "hit": false,
      "t": 111765.625,
      "d": 153.125,
      "v": 110
    },
    {
      "midi": 74,
      "hit": false,
      "t": 112156.25,
      "d": 175,
      "v": 111
    },
    {
      "midi": 69,
      "hit": false,
      "t": 112162.5,
      "d": 146.875,
      "v": 116
    },
    {
      "midi": 72,
      "hit": false,
      "t": 112162.5,
      "d": 156.25,
      "v": 113
    },
    {
      "midi": 81,
      "hit": false,
      "t": 112162.5,
      "d": 181.25,
      "v": 117
    },
    {
      "midi": 54,
      "hit": false,
      "t": 112168.75,
      "d": 143.75,
      "v": 119
    },
    {
      "midi": 42,
      "hit": false,
      "t": 112171.875,
      "d": 165.625,
      "v": 110
    },
    {
      "midi": 74,
      "hit": false,
      "t": 112562.5,
      "d": 118.75,
      "v": 106
    },
    {
      "midi": 53,
      "hit": false,
      "t": 112565.625,
      "d": 103.125,
      "v": 117
    },
    {
      "midi": 71,
      "hit": false,
      "t": 112565.625,
      "d": 106.25,
      "v": 100
    },
    {
      "midi": 83,
      "hit": false,
      "t": 112565.625,
      "d": 137.5,
      "v": 100
    },
    {
      "midi": 79,
      "hit": false,
      "t": 112575,
      "d": 100,
      "v": 105
    },
    {
      "midi": 41,
      "hit": false,
      "t": 112575,
      "d": 118.75,
      "v": 115
    },
    {
      "midi": 47,
      "hit": false,
      "t": 112775,
      "d": 100,
      "v": 77
    },
    {
      "midi": 84,
      "hit": false,
      "t": 112968.75,
      "d": 237.5,
      "v": 113
    },
    {
      "midi": 72,
      "hit": false,
      "t": 112971.875,
      "d": 178.125,
      "v": 111
    },
    {
      "midi": 52,
      "hit": false,
      "t": 112975,
      "d": 118.75,
      "v": 115
    },
    {
      "midi": 40,
      "hit": false,
      "t": 112981.25,
      "d": 34.375,
      "v": 104
    },
    {
      "midi": 41,
      "hit": false,
      "t": 112996.875,
      "d": 28.125,
      "v": 98
    },
    {
      "midi": 79,
      "hit": false,
      "t": 113181.25,
      "d": 59.375,
      "v": 92
    },
    {
      "midi": 64,
      "hit": false,
      "t": 113346.875,
      "d": 37.5,
      "v": 80
    },
    {
      "midi": 60,
      "hit": false,
      "t": 113353.125,
      "d": 46.875,
      "v": 70
    },
    {
      "midi": 81,
      "hit": false,
      "t": 113353.125,
      "d": 143.75,
      "v": 82
    },
    {
      "midi": 55,
      "hit": false,
      "t": 113359.375,
      "d": 71.875,
      "v": 80
    },
    {
      "midi": 84,
      "hit": false,
      "t": 113565.625,
      "d": 100,
      "v": 91
    },
    {
      "midi": 72,
      "hit": false,
      "t": 113565.625,
      "d": 131.25,
      "v": 81
    },
    {
      "midi": 76,
      "hit": false,
      "t": 113571.875,
      "d": 106.25,
      "v": 83
    },
    {
      "midi": 79,
      "hit": false,
      "t": 113575,
      "d": 100,
      "v": 67
    },
    {
      "midi": 81,
      "hit": false,
      "t": 113578.125,
      "d": 109.375,
      "v": 84
    },
    {
      "midi": 43,
      "hit": false,
      "t": 113743.75,
      "d": 40.625,
      "v": 93
    },
    {
      "midi": 52,
      "hit": false,
      "t": 113750,
      "d": 50,
      "v": 87
    },
    {
      "midi": 72,
      "hit": false,
      "t": 113959.375,
      "d": 300,
      "v": 95
    },
    {
      "midi": 81,
      "hit": false,
      "t": 113962.5,
      "d": 296.875,
      "v": 105
    },
    {
      "midi": 69,
      "hit": false,
      "t": 113968.75,
      "d": 262.5,
      "v": 101
    },
    {
      "midi": 76,
      "hit": false,
      "t": 113968.75,
      "d": 268.75,
      "v": 101
    },
    {
      "midi": 64,
      "hit": false,
      "t": 114121.875,
      "d": 28.125,
      "v": 100
    },
    {
      "midi": 60,
      "hit": false,
      "t": 114131.25,
      "d": 43.75,
      "v": 95
    },
    {
      "midi": 55,
      "hit": false,
      "t": 114131.25,
      "d": 90.625,
      "v": 89
    },
    {
      "midi": 57,
      "hit": false,
      "t": 114143.75,
      "d": 68.75,
      "v": 86
    },
    {
      "midi": 76,
      "hit": false,
      "t": 114362.5,
      "d": 84.375,
      "v": 98
    },
    {
      "midi": 36,
      "hit": false,
      "t": 114531.25,
      "d": 37.5,
      "v": 101
    },
    {
      "midi": 69,
      "hit": false,
      "t": 114534.375,
      "d": 96.875,
      "v": 108
    },
    {
      "midi": 48,
      "hit": false,
      "t": 114534.375,
      "d": 106.25,
      "v": 105
    },
    {
      "midi": 81,
      "hit": false,
      "t": 114534.375,
      "d": 143.75,
      "v": 108
    },
    {
      "midi": 72,
      "hit": false,
      "t": 114737.5,
      "d": 84.375,
      "v": 88
    },
    {
      "midi": 60,
      "hit": false,
      "t": 114921.875,
      "d": 46.875,
      "v": 85
    },
    {
      "midi": 64,
      "hit": false,
      "t": 114925,
      "d": 31.25,
      "v": 93
    },
    {
      "midi": 55,
      "hit": false,
      "t": 114931.25,
      "d": 100,
      "v": 91
    },
    {
      "midi": 76,
      "hit": false,
      "t": 114943.75,
      "d": 78.125,
      "v": 97
    },
    {
      "midi": 58,
      "hit": false,
      "t": 114981.25,
      "d": 56.25,
      "v": 34
    },
    {
      "midi": 79,
      "hit": false,
      "t": 115140.625,
      "d": 128.125,
      "v": 102
    },
    {
      "midi": 76,
      "hit": false,
      "t": 115150,
      "d": 118.75,
      "v": 85
    },
    {
      "midi": 72,
      "hit": false,
      "t": 115150,
      "d": 125,
      "v": 91
    },
    {
      "midi": 67,
      "hit": false,
      "t": 115150,
      "d": 131.25,
      "v": 94
    },
    {
      "midi": 34,
      "hit": false,
      "t": 115312.5,
      "d": 65.625,
      "v": 127
    },
    {
      "midi": 46,
      "hit": false,
      "t": 115315.625,
      "d": 62.5,
      "v": 127
    },
    {
      "midi": 70,
      "hit": false,
      "t": 115537.5,
      "d": 300,
      "v": 110
    },
    {
      "midi": 72,
      "hit": false,
      "t": 115540.625,
      "d": 231.25,
      "v": 101
    },
    {
      "midi": 67,
      "hit": false,
      "t": 115543.75,
      "d": 293.75,
      "v": 99
    },
    {
      "midi": 76,
      "hit": false,
      "t": 115543.75,
      "d": 309.375,
      "v": 107
    },
    {
      "midi": 60,
      "hit": false,
      "t": 115696.875,
      "d": 106.25,
      "v": 100
    },
    {
      "midi": 64,
      "hit": false,
      "t": 115703.125,
      "d": 68.75,
      "v": 106
    },
    {
      "midi": 58,
      "hit": false,
      "t": 115706.25,
      "d": 93.75,
      "v": 109
    },
    {
      "midi": 72,
      "hit": false,
      "t": 115925,
      "d": 90.625,
      "v": 74
    },
    {
      "midi": 71,
      "hit": false,
      "t": 115946.875,
      "d": 40.625,
      "v": 61
    },
    {
      "midi": 74,
      "hit": false,
      "t": 116087.5,
      "d": 153.125,
      "v": 104
    },
    {
      "midi": 57,
      "hit": false,
      "t": 116096.875,
      "d": 81.25,
      "v": 119
    },
    {
      "midi": 69,
      "hit": false,
      "t": 116096.875,
      "d": 150,
      "v": 106
    },
    {
      "midi": 65,
      "hit": false,
      "t": 116100,
      "d": 131.25,
      "v": 103
    },
    {
      "midi": 45,
      "hit": false,
      "t": 116106.25,
      "d": 103.125,
      "v": 113
    },
    {
      "midi": 72,
      "hit": false,
      "t": 116309.375,
      "d": 109.375,
      "v": 92
    },
    {
      "midi": 53,
      "hit": false,
      "t": 116484.375,
      "d": 96.875,
      "v": 115
    },
    {
      "midi": 74,
      "hit": false,
      "t": 116487.5,
      "d": 134.375,
      "v": 101
    },
    {
      "midi": 65,
      "hit": false,
      "t": 116487.5,
      "d": 137.5,
      "v": 100
    },
    {
      "midi": 69,
      "hit": false,
      "t": 116490.625,
      "d": 143.75,
      "v": 101
    },
    {
      "midi": 41,
      "hit": false,
      "t": 116493.75,
      "d": 128.125,
      "v": 113
    },
    {
      "midi": 76,
      "hit": false,
      "t": 116700,
      "d": 134.375,
      "v": 114
    },
    {
      "midi": 45,
      "hit": false,
      "t": 116728.125,
      "d": 37.5,
      "v": 72
    },
    {
      "midi": 50,
      "hit": false,
      "t": 116871.875,
      "d": 171.875,
      "v": 114
    },
    {
      "midi": 38,
      "hit": false,
      "t": 116875,
      "d": 103.125,
      "v": 112
    },
    {
      "midi": 74,
      "hit": false,
      "t": 116875,
      "d": 146.875,
      "v": 94
    },
    {
      "midi": 72,
      "hit": false,
      "t": 117081.25,
      "d": 34.375,
      "v": 99
    },
    {
      "midi": 45,
      "hit": false,
      "t": 117125,
      "d": 56.25,
      "v": 83
    },
    {
      "midi": 69,
      "hit": false,
      "t": 117253.125,
      "d": 284.375,
      "v": 111
    },
    {
      "midi": 39,
      "hit": false,
      "t": 117256.25,
      "d": 71.875,
      "v": 104
    },
    {
      "midi": 51,
      "hit": false,
      "t": 117259.375,
      "d": 146.875,
      "v": 117
    },
    {
      "midi": 60,
      "hit": false,
      "t": 117262.5,
      "d": 143.75,
      "v": 106
    },
    {
      "midi": 40,
      "hit": false,
      "t": 117356.25,
      "d": 46.875,
      "v": 49
    },
    {
      "midi": 45,
      "hit": false,
      "t": 117465.625,
      "d": 121.875,
      "v": 75
    },
    {
      "midi": 67,
      "hit": false,
      "t": 117471.875,
      "d": 100,
      "v": 101
    },
    {
      "midi": 67,
      "hit": false,
      "t": 117640.625,
      "d": 93.75,
      "v": 109
    },
    {
      "midi": 40,
      "hit": false,
      "t": 117643.75,
      "d": 78.125,
      "v": 110
    },
    {
      "midi": 52,
      "hit": false,
      "t": 117643.75,
      "d": 118.75,
      "v": 119
    },
    {
      "midi": 72,
      "hit": false,
      "t": 117643.75,
      "d": 125,
      "v": 118
    },
    {
      "midi": 76,
      "hit": false,
      "t": 118037.5,
      "d": 165.625,
      "v": 113
    },
    {
      "midi": 67,
      "hit": false,
      "t": 118037.5,
      "d": 184.375,
      "v": 108
    },
    {
      "midi": 72,
      "hit": false,
      "t": 118037.5,
      "d": 184.375,
      "v": 107
    },
    {
      "midi": 55,
      "hit": false,
      "t": 118043.75,
      "d": 143.75,
      "v": 118
    },
    {
      "midi": 43,
      "hit": false,
      "t": 118043.75,
      "d": 150,
      "v": 110
    },
    {
      "midi": 79,
      "hit": false,
      "t": 118250,
      "d": 96.875,
      "v": 109
    },
    {
      "midi": 54,
      "hit": false,
      "t": 118425,
      "d": 106.25,
      "v": 117
    },
    {
      "midi": 74,
      "hit": false,
      "t": 118425,
      "d": 134.375,
      "v": 112
    },
    {
      "midi": 81,
      "hit": false,
      "t": 118425,
      "d": 156.25,
      "v": 113
    },
    {
      "midi": 72,
      "hit": false,
      "t": 118434.375,
      "d": 146.875,
      "v": 100
    },
    {
      "midi": 42,
      "hit": false,
      "t": 118434.375,
      "d": 171.875,
      "v": 109
    },
    {
      "midi": 47,
      "hit": false,
      "t": 118646.875,
      "d": 128.125,
      "v": 78
    },
    {
      "midi": 74,
      "hit": false,
      "t": 118815.625,
      "d": 109.375,
      "v": 116
    },
    {
      "midi": 53,
      "hit": false,
      "t": 118818.75,
      "d": 121.875,
      "v": 117
    },
    {
      "midi": 83,
      "hit": false,
      "t": 118818.75,
      "d": 150,
      "v": 98
    },
    {
      "midi": 41,
      "hit": false,
      "t": 118828.125,
      "d": 131.25,
      "v": 115
    },
    {
      "midi": 79,
      "hit": false,
      "t": 118850,
      "d": 43.75,
      "v": 68
    },
    {
      "midi": 47,
      "hit": false,
      "t": 119025,
      "d": 103.125,
      "v": 92
    },
    {
      "midi": 52,
      "hit": false,
      "t": 119212.5,
      "d": 128.125,
      "v": 120
    },
    {
      "midi": 84,
      "hit": false,
      "t": 119212.5,
      "d": 159.375,
      "v": 108
    },
    {
      "midi": 40,
      "hit": false,
      "t": 119215.625,
      "d": 68.75,
      "v": 120
    },
    {
      "midi": 79,
      "hit": false,
      "t": 119225,
      "d": 93.75,
      "v": 101
    },
    {
      "midi": 72,
      "hit": false,
      "t": 119231.25,
      "d": 50,
      "v": 93
    },
    {
      "midi": 79,
      "hit": false,
      "t": 119425,
      "d": 96.875,
      "v": 98
    },
    {
      "midi": 64,
      "hit": false,
      "t": 119596.875,
      "d": 34.375,
      "v": 92
    },
    {
      "midi": 55,
      "hit": false,
      "t": 119596.875,
      "d": 87.5,
      "v": 98
    },
    {
      "midi": 60,
      "hit": false,
      "t": 119600,
      "d": 37.5,
      "v": 101
    },
    {
      "midi": 81,
      "hit": false,
      "t": 119603.125,
      "d": 162.5,
      "v": 98
    },
    {
      "midi": 76,
      "hit": false,
      "t": 119809.375,
      "d": 156.25,
      "v": 105
    },
    {
      "midi": 81,
      "hit": false,
      "t": 119809.375,
      "d": 159.375,
      "v": 66
    },
    {
      "midi": 84,
      "hit": false,
      "t": 119812.5,
      "d": 121.875,
      "v": 98
    },
    {
      "midi": 79,
      "hit": false,
      "t": 119812.5,
      "d": 140.625,
      "v": 94
    },
    {
      "midi": 72,
      "hit": false,
      "t": 119818.75,
      "d": 146.875,
      "v": 99
    },
    {
      "midi": 31,
      "hit": false,
      "t": 119968.75,
      "d": 43.75,
      "v": 108
    },
    {
      "midi": 43,
      "hit": false,
      "t": 119975,
      "d": 106.25,
      "v": 106
    },
    {
      "midi": 76,
      "hit": false,
      "t": 120206.25,
      "d": 262.5,
      "v": 106
    },
    {
      "midi": 72,
      "hit": false,
      "t": 120206.25,
      "d": 287.5,
      "v": 94
    },
    {
      "midi": 81,
      "hit": false,
      "t": 120209.375,
      "d": 265.625,
      "v": 106
    },
    {
      "midi": 69,
      "hit": false,
      "t": 120212.5,
      "d": 243.75,
      "v": 103
    },
    {
      "midi": 55,
      "hit": false,
      "t": 120362.5,
      "d": 109.375,
      "v": 101
    },
    {
      "midi": 64,
      "hit": false,
      "t": 120365.625,
      "d": 28.125,
      "v": 103
    },
    {
      "midi": 60,
      "hit": false,
      "t": 120375,
      "d": 68.75,
      "v": 100
    },
    {
      "midi": 76,
      "hit": false,
      "t": 120581.25,
      "d": 112.5,
      "v": 106
    },
    {
      "midi": 39,
      "hit": false,
      "t": 120631.25,
      "d": 53.125,
      "v": 38
    },
    {
      "midi": 81,
      "hit": false,
      "t": 120756.25,
      "d": 159.375,
      "v": 110
    },
    {
      "midi": 36,
      "hit": false,
      "t": 120762.5,
      "d": 40.625,
      "v": 97
    },
    {
      "midi": 69,
      "hit": false,
      "t": 120762.5,
      "d": 125,
      "v": 109
    },
    {
      "midi": 48,
      "hit": false,
      "t": 120768.75,
      "d": 112.5,
      "v": 102
    },
    {
      "midi": 72,
      "hit": false,
      "t": 120962.5,
      "d": 112.5,
      "v": 93
    },
    {
      "midi": 64,
      "hit": false,
      "t": 121134.375,
      "d": 34.375,
      "v": 91
    },
    {
      "midi": 60,
      "hit": false,
      "t": 121137.5,
      "d": 37.5,
      "v": 84
    },
    {
      "midi": 55,
      "hit": false,
      "t": 121137.5,
      "d": 56.25,
      "v": 87
    },
    {
      "midi": 76,
      "hit": false,
      "t": 121156.25,
      "d": 100,
      "v": 105
    },
    {
      "midi": 79,
      "hit": false,
      "t": 121337.5,
      "d": 118.75,
      "v": 104
    },
    {
      "midi": 76,
      "hit": false,
      "t": 121337.5,
      "d": 125,
      "v": 88
    },
    {
      "midi": 72,
      "hit": false,
      "t": 121350,
      "d": 112.5,
      "v": 92
    },
    {
      "midi": 67,
      "hit": false,
      "t": 121356.25,
      "d": 131.25,
      "v": 87
    },
    {
      "midi": 57,
      "hit": false,
      "t": 121512.5,
      "d": 143.75,
      "v": 112
    },
    {
      "midi": 45,
      "hit": false,
      "t": 121512.5,
      "d": 178.125,
      "v": 108
    },
    {
      "midi": 72,
      "hit": false,
      "t": 121721.875,
      "d": 278.125,
      "v": 107
    },
    {
      "midi": 67,
      "hit": false,
      "t": 121725,
      "d": 287.5,
      "v": 108
    },
    {
      "midi": 76,
      "hit": false,
      "t": 121725,
      "d": 325,
      "v": 112
    },
    {
      "midi": 55,
      "hit": false,
      "t": 121887.5,
      "d": 109.375,
      "v": 119
    },
    {
      "midi": 43,
      "hit": false,
      "t": 121890.625,
      "d": 168.75,
      "v": 108
    },
    {
      "midi": 44,
      "hit": false,
      "t": 121925,
      "d": 68.75,
      "v": 38
    },
    {
      "midi": 72,
      "hit": false,
      "t": 122100,
      "d": 75,
      "v": 87
    },
    {
      "midi": 48,
      "hit": false,
      "t": 122125,
      "d": 100,
      "v": 87
    },
    {
      "midi": 54,
      "hit": false,
      "t": 122275,
      "d": 134.375,
      "v": 117
    },
    {
      "midi": 69,
      "hit": false,
      "t": 122278.125,
      "d": 128.125,
      "v": 111
    },
    {
      "midi": 74,
      "hit": false,
      "t": 122278.125,
      "d": 140.625,
      "v": 110
    },
    {
      "midi": 62,
      "hit": false,
      "t": 122281.25,
      "d": 103.125,
      "v": 112
    },
    {
      "midi": 42,
      "hit": false,
      "t": 122281.25,
      "d": 109.375,
      "v": 103
    },
    {
      "midi": 73,
      "hit": false,
      "t": 122490.625,
      "d": 100,
      "v": 96
    },
    {
      "midi": 60,
      "hit": false,
      "t": 122656.25,
      "d": 37.5,
      "v": 103
    },
    {
      "midi": 74,
      "hit": false,
      "t": 122662.5,
      "d": 131.25,
      "v": 110
    },
    {
      "midi": 54,
      "hit": false,
      "t": 122665.625,
      "d": 90.625,
      "v": 88
    },
    {
      "midi": 69,
      "hit": false,
      "t": 122665.625,
      "d": 121.875,
      "v": 101
    },
    {
      "midi": 62,
      "hit": false,
      "t": 122668.75,
      "d": 81.25,
      "v": 97
    },
    {
      "midi": 73,
      "hit": false,
      "t": 122856.25,
      "d": 103.125,
      "v": 96
    },
    {
      "midi": 38,
      "hit": false,
      "t": 123043.75,
      "d": 40.625,
      "v": 98
    },
    {
      "midi": 69,
      "hit": false,
      "t": 123043.75,
      "d": 59.375,
      "v": 97
    },
    {
      "midi": 74,
      "hit": false,
      "t": 123043.75,
      "d": 71.875,
      "v": 103
    },
    {
      "midi": 62,
      "hit": false,
      "t": 123053.125,
      "d": 40.625,
      "v": 83
    },
    {
      "midi": 63,
      "hit": false,
      "t": 123240.625,
      "d": 37.5,
      "v": 97
    },
    {
      "midi": 75,
      "hit": false,
      "t": 123240.625,
      "d": 87.5,
      "v": 101
    },
    {
      "midi": 76,
      "hit": false,
      "t": 123425,
      "d": 40.625,
      "v": 111
    },
    {
      "midi": 54,
      "hit": false,
      "t": 123425,
      "d": 87.5,
      "v": 76
    },
    {
      "midi": 60,
      "hit": false,
      "t": 123425,
      "d": 103.125,
      "v": 84
    },
    {
      "midi": 64,
      "hit": false,
      "t": 123431.25,
      "d": 31.25,
      "v": 97
    },
    {
      "midi": 62,
      "hit": false,
      "t": 123431.25,
      "d": 59.375,
      "v": 90
    },
    {
      "midi": 66,
      "hit": false,
      "t": 123606.25,
      "d": 56.25,
      "v": 92
    },
    {
      "midi": 78,
      "hit": false,
      "t": 123612.5,
      "d": 134.375,
      "v": 94
    },
    {
      "midi": 59,
      "hit": false,
      "t": 123625,
      "d": 106.25,
      "v": 77
    },
    {
      "midi": 62,
      "hit": false,
      "t": 123793.75,
      "d": 62.5,
      "v": 115
    },
    {
      "midi": 59,
      "hit": false,
      "t": 123796.875,
      "d": 81.25,
      "v": 90
    },
    {
      "midi": 67,
      "hit": false,
      "t": 123800,
      "d": 100,
      "v": 109
    },
    {
      "midi": 74,
      "hit": false,
      "t": 123800,
      "d": 156.25,
      "v": 106
    },
    {
      "midi": 55,
      "hit": false,
      "t": 123803.125,
      "d": 109.375,
      "v": 107
    },
    {
      "midi": 79,
      "hit": false,
      "t": 123803.125,
      "d": 153.125,
      "v": 113
    },
    {
      "midi": 50,
      "hit": false,
      "t": 124046.875,
      "d": 118.75,
      "v": 80
    },
    {
      "midi": 83,
      "hit": false,
      "t": 124190.625,
      "d": 168.75,
      "v": 100
    },
    {
      "midi": 71,
      "hit": false,
      "t": 124193.75,
      "d": 159.375,
      "v": 98
    },
    {
      "midi": 55,
      "hit": false,
      "t": 124200,
      "d": 181.25,
      "v": 110
    },
    {
      "midi": 43,
      "hit": false,
      "t": 124218.75,
      "d": 106.25,
      "v": 86
    },
    {
      "midi": 74,
      "hit": false,
      "t": 124306.25,
      "d": 137.5,
      "v": 96
    },
    {
      "midi": 50,
      "hit": false,
      "t": 124412.5,
      "d": 62.5,
      "v": 85
    },
    {
      "midi": 77,
      "hit": false,
      "t": 124471.875,
      "d": 153.125,
      "v": 80
    },
    {
      "midi": 81,
      "hit": false,
      "t": 124578.125,
      "d": 115.625,
      "v": 95
    },
    {
      "midi": 69,
      "hit": false,
      "t": 124581.25,
      "d": 134.375,
      "v": 89
    },
    {
      "midi": 45,
      "hit": false,
      "t": 124587.5,
      "d": 90.625,
      "v": 110
    },
    {
      "midi": 57,
      "hit": false,
      "t": 124587.5,
      "d": 134.375,
      "v": 110
    },
    {
      "midi": 74,
      "hit": false,
      "t": 124625,
      "d": 212.5,
      "v": 61
    },
    {
      "midi": 50,
      "hit": false,
      "t": 124781.25,
      "d": 62.5,
      "v": 85
    },
    {
      "midi": 77,
      "hit": false,
      "t": 124837.5,
      "d": 228.125,
      "v": 54
    },
    {
      "midi": 59,
      "hit": false,
      "t": 124953.125,
      "d": 62.5,
      "v": 109
    },
    {
      "midi": 79,
      "hit": false,
      "t": 124953.125,
      "d": 143.75,
      "v": 110
    },
    {
      "midi": 67,
      "hit": false,
      "t": 124956.25,
      "d": 81.25,
      "v": 111
    },
    {
      "midi": 74,
      "hit": false,
      "t": 124956.25,
      "d": 118.75,
      "v": 100
    },
    {
      "midi": 47,
      "hit": false,
      "t": 124959.375,
      "d": 128.125,
      "v": 102
    },
    {
      "midi": 57,
      "hit": false,
      "t": 124968.75,
      "d": 28.125,
      "v": 101
    },
    {
      "midi": 72,
      "hit": false,
      "t": 125181.25,
      "d": 50,
      "v": 89
    },
    {
      "midi": 43,
      "hit": false,
      "t": 125181.25,
      "d": 118.75,
      "v": 102
    },
    {
      "midi": 36,
      "hit": false,
      "t": 125365.625,
      "d": 96.875,
      "v": 112
    },
    {
      "midi": 48,
      "hit": false,
      "t": 125365.625,
      "d": 128.125,
      "v": 113
    },
    {
      "midi": 84,
      "hit": false,
      "t": 125368.75,
      "d": 140.625,
      "v": 108
    },
    {
      "midi": 72,
      "hit": false,
      "t": 125371.875,
      "d": 115.625,
      "v": 108
    },
    {
      "midi": 79,
      "hit": false,
      "t": 125387.5,
      "d": 43.75,
      "v": 86
    },
    {
      "midi": 79,
      "hit": false,
      "t": 125587.5,
      "d": 43.75,
      "v": 94
    },
    {
      "midi": 81,
      "hit": false,
      "t": 125746.875,
      "d": 134.375,
      "v": 91
    },
    {
      "midi": 64,
      "hit": false,
      "t": 125750,
      "d": 31.25,
      "v": 95
    },
    {
      "midi": 60,
      "hit": false,
      "t": 125759.375,
      "d": 31.25,
      "v": 93
    },
    {
      "midi": 55,
      "hit": false,
      "t": 125759.375,
      "d": 90.625,
      "v": 87
    },
    {
      "midi": 84,
      "hit": false,
      "t": 125950,
      "d": 303.125,
      "v": 92
    },
    {
      "midi": 72,
      "hit": false,
      "t": 125956.25,
      "d": 253.125,
      "v": 91
    },
    {
      "midi": 81,
      "hit": false,
      "t": 125959.375,
      "d": 278.125,
      "v": 91
    },
    {
      "midi": 79,
      "hit": false,
      "t": 125959.375,
      "d": 284.375,
      "v": 87
    },
    {
      "midi": 76,
      "hit": false,
      "t": 125962.5,
      "d": 256.25,
      "v": 90
    },
    {
      "midi": 31,
      "hit": false,
      "t": 126131.25,
      "d": 78.125,
      "v": 103
    },
    {
      "midi": 81,
      "hit": false,
      "t": 126331.25,
      "d": 87.5,
      "v": 101
    },
    {
      "midi": 79,
      "hit": false,
      "t": 126340.625,
      "d": 59.375,
      "v": 87
    },
    {
      "midi": 72,
      "hit": false,
      "t": 126340.625,
      "d": 90.625,
      "v": 108
    },
    {
      "midi": 76,
      "hit": false,
      "t": 126343.75,
      "d": 68.75,
      "v": 105
    },
    {
      "midi": 64,
      "hit": false,
      "t": 126496.875,
      "d": 31.25,
      "v": 99
    },
    {
      "midi": 55,
      "hit": false,
      "t": 126500,
      "d": 90.625,
      "v": 95
    },
    {
      "midi": 60,
      "hit": false,
      "t": 126506.25,
      "d": 31.25,
      "v": 99
    },
    {
      "midi": 76,
      "hit": false,
      "t": 126725,
      "d": 106.25,
      "v": 111
    },
    {
      "midi": 36,
      "hit": false,
      "t": 126887.5,
      "d": 37.5,
      "v": 102
    },
    {
      "midi": 81,
      "hit": false,
      "t": 126893.75,
      "d": 206.25,
      "v": 111
    },
    {
      "midi": 48,
      "hit": false,
      "t": 126900,
      "d": 100,
      "v": 91
    },
    {
      "midi": 69,
      "hit": false,
      "t": 126900,
      "d": 137.5,
      "v": 108
    },
    {
      "midi": 72,
      "hit": false,
      "t": 127100,
      "d": 81.25,
      "v": 95
    },
    {
      "midi": 64,
      "hit": false,
      "t": 127259.375,
      "d": 34.375,
      "v": 87
    },
    {
      "midi": 60,
      "hit": false,
      "t": 127259.375,
      "d": 37.5,
      "v": 96
    },
    {
      "midi": 55,
      "hit": false,
      "t": 127265.625,
      "d": 90.625,
      "v": 88
    },
    {
      "midi": 76,
      "hit": false,
      "t": 127284.375,
      "d": 100,
      "v": 101
    },
    {
      "midi": 79,
      "hit": false,
      "t": 127481.25,
      "d": 181.25,
      "v": 106
    },
    {
      "midi": 76,
      "hit": false,
      "t": 127487.5,
      "d": 181.25,
      "v": 79
    },
    {
      "midi": 72,
      "hit": false,
      "t": 127487.5,
      "d": 206.25,
      "v": 94
    },
    {
      "midi": 67,
      "hit": false,
      "t": 127490.625,
      "d": 234.375,
      "v": 95
    },
    {
      "midi": 34,
      "hit": false,
      "t": 127643.75,
      "d": 62.5,
      "v": 119
    },
    {
      "midi": 46,
      "hit": false,
      "t": 127643.75,
      "d": 87.5,
      "v": 122
    },
    {
      "midi": 70,
      "hit": false,
      "t": 127850,
      "d": 306.25,
      "v": 105
    },
    {
      "midi": 76,
      "hit": false,
      "t": 127850,
      "d": 321.875,
      "v": 103
    },
    {
      "midi": 72,
      "hit": false,
      "t": 127856.25,
      "d": 256.25,
      "v": 84
    },
    {
      "midi": 67,
      "hit": false,
      "t": 127856.25,
      "d": 303.125,
      "v": 88
    },
    {
      "midi": 64,
      "hit": false,
      "t": 128015.625,
      "d": 40.625,
      "v": 100
    },
    {
      "midi": 60,
      "hit": false,
      "t": 128015.625,
      "d": 59.375,
      "v": 94
    },
    {
      "midi": 58,
      "hit": false,
      "t": 128021.875,
      "d": 84.375,
      "v": 106
    },
    {
      "midi": 72,
      "hit": false,
      "t": 128237.5,
      "d": 96.875,
      "v": 100
    },
    {
      "midi": 46,
      "hit": false,
      "t": 128256.25,
      "d": 50,
      "v": 22
    },
    {
      "midi": 74,
      "hit": false,
      "t": 128406.25,
      "d": 146.875,
      "v": 104
    },
    {
      "midi": 57,
      "hit": false,
      "t": 128409.375,
      "d": 75,
      "v": 114
    },
    {
      "midi": 69,
      "hit": false,
      "t": 128409.375,
      "d": 115.625,
      "v": 101
    },
    {
      "midi": 65,
      "hit": false,
      "t": 128409.375,
      "d": 128.125,
      "v": 104
    },
    {
      "midi": 45,
      "hit": false,
      "t": 128415.625,
      "d": 100,
      "v": 107
    },
    {
      "midi": 72,
      "hit": false,
      "t": 128615.625,
      "d": 106.25,
      "v": 92
    },
    {
      "midi": 53,
      "hit": false,
      "t": 128784.375,
      "d": 81.25,
      "v": 109
    },
    {
      "midi": 65,
      "hit": false,
      "t": 128787.5,
      "d": 137.5,
      "v": 98
    },
    {
      "midi": 74,
      "hit": false,
      "t": 128787.5,
      "d": 137.5,
      "v": 97
    },
    {
      "midi": 41,
      "hit": false,
      "t": 128790.625,
      "d": 125,
      "v": 110
    },
    {
      "midi": 69,
      "hit": false,
      "t": 128793.75,
      "d": 125,
      "v": 95
    },
    {
      "midi": 76,
      "hit": false,
      "t": 128996.875,
      "d": 184.375,
      "v": 110
    },
    {
      "midi": 50,
      "hit": false,
      "t": 129175,
      "d": 168.75,
      "v": 105
    },
    {
      "midi": 74,
      "hit": false,
      "t": 129178.125,
      "d": 146.875,
      "v": 94
    },
    {
      "midi": 38,
      "hit": false,
      "t": 129181.25,
      "d": 118.75,
      "v": 100
    },
    {
      "midi": 72,
      "hit": false,
      "t": 129378.125,
      "d": 37.5,
      "v": 88
    },
    {
      "midi": 45,
      "hit": false,
      "t": 129412.5,
      "d": 125,
      "v": 86
    },
    {
      "midi": 69,
      "hit": false,
      "t": 129553.125,
      "d": 278.125,
      "v": 111
    },
    {
      "midi": 51,
      "hit": false,
      "t": 129559.375,
      "d": 128.125,
      "v": 104
    },
    {
      "midi": 39,
      "hit": false,
      "t": 129562.5,
      "d": 121.875,
      "v": 92
    },
    {
      "midi": 60,
      "hit": false,
      "t": 129562.5,
      "d": 150,
      "v": 99
    },
    {
      "midi": 67,
      "hit": false,
      "t": 129762.5,
      "d": 100,
      "v": 100
    },
    {
      "midi": 45,
      "hit": false,
      "t": 129762.5,
      "d": 109.375,
      "v": 85
    },
    {
      "midi": 72,
      "hit": false,
      "t": 129934.375,
      "d": 871.875,
      "v": 115
    },
    {
      "midi": 67,
      "hit": false,
      "t": 129937.5,
      "d": 568.75,
      "v": 105
    },
    {
      "midi": 40,
      "hit": false,
      "t": 129946.875,
      "d": 31.25,
      "v": 105
    },
    {
      "midi": 52,
      "hit": false,
      "t": 129946.875,
      "d": 103.125,
      "v": 111
    },
    {
      "midi": 64,
      "hit": false,
      "t": 130328.125,
      "d": 87.5,
      "v": 103
    },
    {
      "midi": 55,
      "hit": false,
      "t": 130328.125,
      "d": 96.875,
      "v": 96
    },
    {
      "midi": 60,
      "hit": false,
      "t": 130337.5,
      "d": 40.625,
      "v": 98
    },
    {
      "midi": 60,
      "hit": false,
      "t": 130725,
      "d": 62.5,
      "v": 88
    },
    {
      "midi": 48,
      "hit": false,
      "t": 130728.125,
      "d": 96.875,
      "v": 85
    },
    {
      "midi": 67,
      "hit": false,
      "t": 130731.25,
      "d": 40.625,
      "v": 84
    },
    {
      "midi": 76,
      "hit": false,
      "t": 130937.5,
      "d": 384.375,
      "v": 103
    },
    {
      "midi": 67,
      "hit": false,
      "t": 130940.625,
      "d": 309.375,
      "v": 83
    },
    {
      "midi": 72,
      "hit": false,
      "t": 130956.25,
      "d": 246.875,
      "v": 83
    },
    {
      "midi": 58,
      "hit": false,
      "t": 131106.25,
      "d": 96.875,
      "v": 105
    },
    {
      "midi": 46,
      "hit": false,
      "t": 131115.625,
      "d": 150,
      "v": 99
    },
    {
      "midi": 52,
      "hit": false,
      "t": 131300,
      "d": 59.375,
      "v": 76
    },
    {
      "midi": 72,
      "hit": false,
      "t": 131306.25,
      "d": 121.875,
      "v": 71
    },
    {
      "midi": 57,
      "hit": false,
      "t": 131487.5,
      "d": 100,
      "v": 103
    },
    {
      "midi": 74,
      "hit": false,
      "t": 131493.75,
      "d": 128.125,
      "v": 81
    },
    {
      "midi": 45,
      "hit": false,
      "t": 131496.875,
      "d": 103.125,
      "v": 100
    },
    {
      "midi": 65,
      "hit": false,
      "t": 131496.875,
      "d": 109.375,
      "v": 71
    },
    {
      "midi": 69,
      "hit": false,
      "t": 131496.875,
      "d": 118.75,
      "v": 82
    },
    {
      "midi": 72,
      "hit": false,
      "t": 131693.75,
      "d": 84.375,
      "v": 87
    },
    {
      "midi": 65,
      "hit": false,
      "t": 131865.625,
      "d": 118.75,
      "v": 89
    },
    {
      "midi": 53,
      "hit": false,
      "t": 131868.75,
      "d": 100,
      "v": 93
    },
    {
      "midi": 41,
      "hit": false,
      "t": 131875,
      "d": 115.625,
      "v": 95
    },
    {
      "midi": 74,
      "hit": false,
      "t": 131875,
      "d": 128.125,
      "v": 85
    },
    {
      "midi": 69,
      "hit": false,
      "t": 131878.125,
      "d": 121.875,
      "v": 80
    },
    {
      "midi": 76,
      "hit": false,
      "t": 132068.75,
      "d": 240.625,
      "v": 101
    },
    {
      "midi": 50,
      "hit": false,
      "t": 132234.375,
      "d": 134.375,
      "v": 95
    },
    {
      "midi": 38,
      "hit": false,
      "t": 132237.5,
      "d": 81.25,
      "v": 94
    },
    {
      "midi": 74,
      "hit": false,
      "t": 132246.875,
      "d": 125,
      "v": 91
    },
    {
      "midi": 72,
      "hit": false,
      "t": 132437.5,
      "d": 37.5,
      "v": 84
    },
    {
      "midi": 43,
      "hit": false,
      "t": 132490.625,
      "d": 71.875,
      "v": 33
    },
    {
      "midi": 69,
      "hit": false,
      "t": 132612.5,
      "d": 293.75,
      "v": 111
    },
    {
      "midi": 60,
      "hit": false,
      "t": 132618.75,
      "d": 140.625,
      "v": 100
    },
    {
      "midi": 39,
      "hit": false,
      "t": 132621.875,
      "d": 134.375,
      "v": 92
    },
    {
      "midi": 51,
      "hit": false,
      "t": 132625,
      "d": 128.125,
      "v": 95
    },
    {
      "midi": 45,
      "hit": false,
      "t": 132825,
      "d": 115.625,
      "v": 87
    },
    {
      "midi": 67,
      "hit": false,
      "t": 132825,
      "d": 125,
      "v": 103
    },
    {
      "midi": 52,
      "hit": false,
      "t": 132996.875,
      "d": 87.5,
      "v": 108
    },
    {
      "midi": 67,
      "hit": false,
      "t": 133000,
      "d": 62.5,
      "v": 111
    },
    {
      "midi": 40,
      "hit": false,
      "t": 133003.125,
      "d": 28.125,
      "v": 97
    },
    {
      "midi": 72,
      "hit": false,
      "t": 133006.25,
      "d": 96.875,
      "v": 105
    },
    {
      "midi": 76,
      "hit": false,
      "t": 133203.125,
      "d": 103.125,
      "v": 110
    },
    {
      "midi": 64,
      "hit": false,
      "t": 133378.125,
      "d": 43.75,
      "v": 93
    },
    {
      "midi": 79,
      "hit": false,
      "t": 133387.5,
      "d": 100,
      "v": 103
    },
    {
      "midi": 55,
      "hit": false,
      "t": 133390.625,
      "d": 103.125,
      "v": 81
    },
    {
      "midi": 60,
      "hit": false,
      "t": 133393.75,
      "d": 43.75,
      "v": 89
    },
    {
      "midi": 81,
      "hit": false,
      "t": 133596.875,
      "d": 250,
      "v": 110
    },
    {
      "midi": 76,
      "hit": false,
      "t": 133600,
      "d": 278.125,
      "v": 107
    },
    {
      "midi": 72,
      "hit": false,
      "t": 133606.25,
      "d": 293.75,
      "v": 87
    },
    {
      "midi": 43,
      "hit": false,
      "t": 133768.75,
      "d": 109.375,
      "v": 97
    },
    {
      "midi": 52,
      "hit": false,
      "t": 133771.875,
      "d": 121.875,
      "v": 98
    },
    {
      "midi": 79,
      "hit": false,
      "t": 133987.5,
      "d": 153.125,
      "v": 105
    },
    {
      "midi": 64,
      "hit": false,
      "t": 134143.75,
      "d": 46.875,
      "v": 79
    },
    {
      "midi": 55,
      "hit": false,
      "t": 134143.75,
      "d": 103.125,
      "v": 82
    },
    {
      "midi": 60,
      "hit": false,
      "t": 134150,
      "d": 40.625,
      "v": 87
    },
    {
      "midi": 76,
      "hit": false,
      "t": 134168.75,
      "d": 93.75,
      "v": 93
    },
    {
      "midi": 72,
      "hit": false,
      "t": 134353.125,
      "d": 43.75,
      "v": 95
    },
    {
      "midi": 54,
      "hit": false,
      "t": 134365.625,
      "d": 71.875,
      "v": 84
    },
    {
      "midi": 69,
      "hit": false,
      "t": 134531.25,
      "d": 328.125,
      "v": 98
    },
    {
      "midi": 60,
      "hit": false,
      "t": 134534.375,
      "d": 190.625,
      "v": 110
    },
    {
      "midi": 66,
      "hit": false,
      "t": 134540.625,
      "d": 250,
      "v": 84
    },
    {
      "midi": 50,
      "hit": false,
      "t": 134543.75,
      "d": 128.125,
      "v": 95
    },
    {
      "midi": 54,
      "hit": false,
      "t": 134550,
      "d": 150,
      "v": 76
    },
    {
      "midi": 69,
      "hit": false,
      "t": 134918.75,
      "d": 162.5,
      "v": 113
    },
    {
      "midi": 66,
      "hit": false,
      "t": 134921.875,
      "d": 203.125,
      "v": 106
    },
    {
      "midi": 60,
      "hit": false,
      "t": 134925,
      "d": 87.5,
      "v": 70
    },
    {
      "midi": 72,
      "hit": false,
      "t": 134925,
      "d": 187.5,
      "v": 104
    },
    {
      "midi": 62,
      "hit": false,
      "t": 134928.125,
      "d": 46.875,
      "v": 101
    },
    {
      "midi": 54,
      "hit": false,
      "t": 134931.25,
      "d": 115.625,
      "v": 91
    },
    {
      "midi": 65,
      "hit": false,
      "t": 135331.25,
      "d": 100,
      "v": 99
    },
    {
      "midi": 71,
      "hit": false,
      "t": 135331.25,
      "d": 112.5,
      "v": 84
    },
    {
      "midi": 43,
      "hit": false,
      "t": 135337.5,
      "d": 59.375,
      "v": 93
    },
    {
      "midi": 74,
      "hit": false,
      "t": 135340.625,
      "d": 106.25,
      "v": 88
    },
    {
      "midi": 76,
      "hit": false,
      "t": 135521.875,
      "d": 215.625,
      "v": 116
    },
    {
      "midi": 71,
      "hit": false,
      "t": 135521.875,
      "d": 231.25,
      "v": 87
    },
    {
      "midi": 65,
      "hit": false,
      "t": 135521.875,
      "d": 271.875,
      "v": 97
    },
    {
      "midi": 59,
      "hit": false,
      "t": 135715.625,
      "d": 84.375,
      "v": 92
    },
    {
      "midi": 53,
      "hit": false,
      "t": 135715.625,
      "d": 109.375,
      "v": 96
    },
    {
      "midi": 55,
      "hit": false,
      "t": 135906.25,
      "d": 159.375,
      "v": 102
    },
    {
      "midi": 60,
      "hit": false,
      "t": 136096.875,
      "d": 293.75,
      "v": 113
    },
    {
      "midi": 67,
      "hit": false,
      "t": 136096.875,
      "d": 309.375,
      "v": 115
    },
    {
      "midi": 72,
      "hit": false,
      "t": 136096.875,
      "d": 331.25,
      "v": 115
    },
    {
      "midi": 64,
      "hit": false,
      "t": 136100,
      "d": 281.25,
      "v": 113
    },
    {
      "midi": 48,
      "hit": false,
      "t": 136106.25,
      "d": 321.875,
      "v": 104
    },
    {
      "midi": 53,
      "hit": false,
      "t": 136906.25,
      "d": 200,
      "v": 91
    },
    {
      "midi": 69,
      "hit": false,
      "t": 136906.25,
      "d": 209.375,
      "v": 95
    },
    {
      "midi": 81,
      "hit": false,
      "t": 136906.25,
      "d": 231.25,
      "v": 99
    },
    {
      "midi": 41,
      "hit": false,
      "t": 136912.5,
      "d": 156.25,
      "v": 88
    },
    {
      "midi": 43,
      "hit": false,
      "t": 137309.375,
      "d": 140.625,
      "v": 73
    },
    {
      "midi": 70,
      "hit": false,
      "t": 137309.375,
      "d": 190.625,
      "v": 100
    },
    {
      "midi": 55,
      "hit": false,
      "t": 137312.5,
      "d": 187.5,
      "v": 78
    },
    {
      "midi": 82,
      "hit": false,
      "t": 137315.625,
      "d": 284.375,
      "v": 96
    },
    {
      "midi": 84,
      "hit": false,
      "t": 137706.25,
      "d": 246.875,
      "v": 91
    },
    {
      "midi": 77,
      "hit": false,
      "t": 137706.25,
      "d": 275,
      "v": 95
    },
    {
      "midi": 57,
      "hit": false,
      "t": 137709.375,
      "d": 75,
      "v": 94
    },
    {
      "midi": 72,
      "hit": false,
      "t": 137709.375,
      "d": 190.625,
      "v": 80
    },
    {
      "midi": 45,
      "hit": false,
      "t": 137712.5,
      "d": 125,
      "v": 94
    },
    {
      "midi": 81,
      "hit": false,
      "t": 137715.625,
      "d": 259.375,
      "v": 89
    },
    {
      "midi": 86,
      "hit": false,
      "t": 138115.625,
      "d": 587.5,
      "v": 111
    },
    {
      "midi": 53,
      "hit": false,
      "t": 138118.75,
      "d": 43.75,
      "v": 87
    },
    {
      "midi": 74,
      "hit": false,
      "t": 138118.75,
      "d": 603.125,
      "v": 97
    },
    {
      "midi": 77,
      "hit": false,
      "t": 138121.875,
      "d": 659.375,
      "v": 98
    },
    {
      "midi": 41,
      "hit": false,
      "t": 138125,
      "d": 40.625,
      "v": 87
    },
    {
      "midi": 81,
      "hit": false,
      "t": 138125,
      "d": 712.5,
      "v": 94
    },
    {
      "midi": 52,
      "hit": false,
      "t": 138506.25,
      "d": 56.25,
      "v": 105
    },
    {
      "midi": 40,
      "hit": false,
      "t": 138509.375,
      "d": 65.625,
      "v": 100
    },
    {
      "midi": 84,
      "hit": false,
      "t": 138900,
      "d": 103.125,
      "v": 106
    },
    {
      "midi": 72,
      "hit": false,
      "t": 138906.25,
      "d": 106.25,
      "v": 105
    },
    {
      "midi": 77,
      "hit": false,
      "t": 138906.25,
      "d": 106.25,
      "v": 106
    },
    {
      "midi": 81,
      "hit": false,
      "t": 138906.25,
      "d": 106.25,
      "v": 103
    },
    {
      "midi": 51,
      "hit": false,
      "t": 138912.5,
      "d": 109.375,
      "v": 95
    },
    {
      "midi": 39,
      "hit": false,
      "t": 138915.625,
      "d": 125,
      "v": 93
    },
    {
      "midi": 45,
      "hit": false,
      "t": 139106.25,
      "d": 131.25,
      "v": 82
    },
    {
      "midi": 38,
      "hit": false,
      "t": 139296.875,
      "d": 59.375,
      "v": 90
    },
    {
      "midi": 81,
      "hit": false,
      "t": 139303.125,
      "d": 343.75,
      "v": 98
    },
    {
      "midi": 69,
      "hit": false,
      "t": 139309.375,
      "d": 259.375,
      "v": 88
    },
    {
      "midi": 71,
      "hit": false,
      "t": 139312.5,
      "d": 250,
      "v": 70
    },
    {
      "midi": 77,
      "hit": false,
      "t": 139312.5,
      "d": 303.125,
      "v": 98
    },
    {
      "midi": 50,
      "hit": false,
      "t": 139318.75,
      "d": 112.5,
      "v": 71
    },
    {
      "midi": 65,
      "hit": false,
      "t": 139690.625,
      "d": 37.5,
      "v": 82
    },
    {
      "midi": 79,
      "hit": false,
      "t": 139690.625,
      "d": 121.875,
      "v": 87
    },
    {
      "midi": 69,
      "hit": false,
      "t": 139693.75,
      "d": 93.75,
      "v": 67
    },
    {
      "midi": 71,
      "hit": false,
      "t": 139706.25,
      "d": 46.875,
      "v": 58
    },
    {
      "midi": 59,
      "hit": false,
      "t": 139706.25,
      "d": 50,
      "v": 59
    },
    {
      "midi": 77,
      "hit": false,
      "t": 139706.25,
      "d": 65.625,
      "v": 83
    },
    {
      "midi": 62,
      "hit": false,
      "t": 139712.5,
      "d": 40.625,
      "v": 74
    },
    {
      "midi": 77,
      "hit": false,
      "t": 139903.125,
      "d": 303.125,
      "v": 67
    },
    {
      "midi": 81,
      "hit": false,
      "t": 139903.125,
      "d": 318.75,
      "v": 86
    },
    {
      "midi": 69,
      "hit": false,
      "t": 139912.5,
      "d": 303.125,
      "v": 62
    },
    {
      "midi": 71,
      "hit": false,
      "t": 139912.5,
      "d": 303.125,
      "v": 40
    },
    {
      "midi": 43,
      "hit": false,
      "t": 140081.25,
      "d": 56.25,
      "v": 81
    },
    {
      "midi": 79,
      "hit": false,
      "t": 140309.375,
      "d": 143.75,
      "v": 88
    },
    {
      "midi": 65,
      "hit": false,
      "t": 140468.75,
      "d": 53.125,
      "v": 57
    },
    {
      "midi": 59,
      "hit": false,
      "t": 140475,
      "d": 84.375,
      "v": 59
    },
    {
      "midi": 62,
      "hit": false,
      "t": 140490.625,
      "d": 40.625,
      "v": 63
    },
    {
      "midi": 77,
      "hit": false,
      "t": 140490.625,
      "d": 218.75,
      "v": 76
    },
    {
      "midi": 74,
      "hit": false,
      "t": 140668.75,
      "d": 37.5,
      "v": 81
    },
    {
      "midi": 81,
      "hit": false,
      "t": 140865.625,
      "d": 331.25,
      "v": 54
    },
    {
      "midi": 76,
      "hit": false,
      "t": 140875,
      "d": 287.5,
      "v": 84
    },
    {
      "midi": 70,
      "hit": false,
      "t": 140878.125,
      "d": 281.25,
      "v": 87
    },
    {
      "midi": 48,
      "hit": false,
      "t": 140884.375,
      "d": 53.125,
      "v": 79
    },
    {
      "midi": 55,
      "hit": false,
      "t": 140893.75,
      "d": 90.625,
      "v": 63
    },
    {
      "midi": 64,
      "hit": false,
      "t": 141262.5,
      "d": 37.5,
      "v": 76
    },
    {
      "midi": 60,
      "hit": false,
      "t": 141275,
      "d": 40.625,
      "v": 69
    },
    {
      "midi": 58,
      "hit": false,
      "t": 141275,
      "d": 56.25,
      "v": 77
    },
    {
      "midi": 79,
      "hit": false,
      "t": 141275,
      "d": 121.875,
      "v": 68
    },
    {
      "midi": 81,
      "hit": false,
      "t": 141475,
      "d": 206.25,
      "v": 75
    },
    {
      "midi": 70,
      "hit": false,
      "t": 141487.5,
      "d": 221.875,
      "v": 63
    },
    {
      "midi": 76,
      "hit": false,
      "t": 141500,
      "d": 200,
      "v": 75
    },
    {
      "midi": 43,
      "hit": false,
      "t": 141640.625,
      "d": 62.5,
      "v": 62
    },
    {
      "midi": 52,
      "hit": false,
      "t": 141646.875,
      "d": 46.875,
      "v": 58
    },
    {
      "midi": 76,
      "hit": false,
      "t": 141868.75,
      "d": 68.75,
      "v": 81
    },
    {
      "midi": 46,
      "hit": false,
      "t": 142034.375,
      "d": 153.125,
      "v": 82
    },
    {
      "midi": 58,
      "hit": false,
      "t": 142037.5,
      "d": 53.125,
      "v": 84
    },
    {
      "midi": 79,
      "hit": false,
      "t": 142050,
      "d": 87.5,
      "v": 65
    },
    {
      "midi": 72,
      "hit": false,
      "t": 142053.125,
      "d": 115.625,
      "v": 59
    },
    {
      "midi": 67,
      "hit": false,
      "t": 142068.75,
      "d": 150,
      "v": 42
    },
    {
      "midi": 52,
      "hit": false,
      "t": 142240.625,
      "d": 65.625,
      "v": 62
    },
    {
      "midi": 72,
      "hit": false,
      "t": 142437.5,
      "d": 903.125,
      "v": 68
    },
    {
      "midi": 45,
      "hit": false,
      "t": 142443.75,
      "d": 50,
      "v": 61
    },
    {
      "midi": 57,
      "hit": false,
      "t": 142446.875,
      "d": 121.875,
      "v": 70
    },
    {
      "midi": 69,
      "hit": false,
      "t": 142450,
      "d": 875,
      "v": 70
    },
    {
      "midi": 57,
      "hit": false,
      "t": 142837.5,
      "d": 50,
      "v": 73
    },
    {
      "midi": 60,
      "hit": false,
      "t": 142843.75,
      "d": 46.875,
      "v": 76
    },
    {
      "midi": 65,
      "hit": false,
      "t": 142850,
      "d": 43.75,
      "v": 68
    },
    {
      "midi": 48,
      "hit": false,
      "t": 143253.125,
      "d": 53.125,
      "v": 71
    },
    {
      "midi": 65,
      "hit": false,
      "t": 143656.25,
      "d": 65.625,
      "v": 55
    },
    {
      "midi": 72,
      "hit": false,
      "t": 143656.25,
      "d": 231.25,
      "v": 72
    },
    {
      "midi": 60,
      "hit": false,
      "t": 143662.5,
      "d": 56.25,
      "v": 57
    },
    {
      "midi": 57,
      "hit": false,
      "t": 143687.5,
      "d": 65.625,
      "v": 26
    },
    {
      "midi": 77,
      "hit": false,
      "t": 144084.375,
      "d": 350,
      "v": 125
    },
    {
      "midi": 69,
      "hit": false,
      "t": 144103.125,
      "d": 1125,
      "v": 110
    },
    {
      "midi": 53,
      "hit": false,
      "t": 144115.625,
      "d": 125,
      "v": 63
    },
    {
      "midi": 60,
      "hit": false,
      "t": 144146.875,
      "d": 75,
      "v": 47
    },
    {
      "midi": 76,
      "hit": false,
      "t": 144290.625,
      "d": 287.5,
      "v": 105
    },
    {
      "midi": 60,
      "hit": false,
      "t": 144500,
      "d": 78.125,
      "v": 56
    },
    {
      "midi": 74,
      "hit": false,
      "t": 144500,
      "d": 240.625,
      "v": 103
    },
    {
      "midi": 65,
      "hit": false,
      "t": 144503.125,
      "d": 59.375,
      "v": 51
    },
    {
      "midi": 57,
      "hit": false,
      "t": 144525,
      "d": 56.25,
      "v": 61
    },
    {
      "midi": 72,
      "hit": false,
      "t": 144675,
      "d": 271.875,
      "v": 108
    },
    {
      "midi": 77,
      "hit": false,
      "t": 144893.75,
      "d": 340.625,
      "v": 125
    },
    {
      "midi": 48,
      "hit": false,
      "t": 144918.75,
      "d": 75,
      "v": 80
    },
    {
      "midi": 57,
      "hit": false,
      "t": 144975,
      "d": 53.125,
      "v": 13
    },
    {
      "midi": 76,
      "hit": false,
      "t": 145100,
      "d": 296.875,
      "v": 109
    },
    {
      "midi": 60,
      "hit": false,
      "t": 145281.25,
      "d": 90.625,
      "v": 80
    },
    {
      "midi": 57,
      "hit": false,
      "t": 145303.125,
      "d": 46.875,
      "v": 76
    },
    {
      "midi": 74,
      "hit": false,
      "t": 145303.125,
      "d": 268.75,
      "v": 94
    },
    {
      "midi": 72,
      "hit": false,
      "t": 145493.75,
      "d": 168.75,
      "v": 70
    },
    {
      "midi": 43,
      "hit": false,
      "t": 145721.875,
      "d": 68.75,
      "v": 62
    },
    {
      "midi": 76,
      "hit": false,
      "t": 145725,
      "d": 1437.5,
      "v": 83
    },
    {
      "midi": 64,
      "hit": false,
      "t": 146112.5,
      "d": 581.25,
      "v": 72
    },
    {
      "midi": 58,
      "hit": false,
      "t": 146134.375,
      "d": 40.625,
      "v": 81
    },
    {
      "midi": 60,
      "hit": false,
      "t": 146137.5,
      "d": 50,
      "v": 60
    },
    {
      "midi": 67,
      "hit": false,
      "t": 146340.625,
      "d": 471.875,
      "v": 64
    },
    {
      "midi": 70,
      "hit": false,
      "t": 146340.625,
      "d": 528.125,
      "v": 75
    },
    {
      "midi": 36,
      "hit": false,
      "t": 146512.5,
      "d": 50,
      "v": 61
    },
    {
      "midi": 64,
      "hit": false,
      "t": 146903.125,
      "d": 40.625,
      "v": 81
    },
    {
      "midi": 60,
      "hit": false,
      "t": 146909.375,
      "d": 40.625,
      "v": 72
    },
    {
      "midi": 58,
      "hit": false,
      "t": 146925,
      "d": 50,
      "v": 76
    },
    {
      "midi": 72,
      "hit": false,
      "t": 147112.5,
      "d": 125,
      "v": 96
    },
    {
      "midi": 76,
      "hit": false,
      "t": 147306.25,
      "d": 328.125,
      "v": 126
    },
    {
      "midi": 72,
      "hit": false,
      "t": 147309.375,
      "d": 143.75,
      "v": 102
    },
    {
      "midi": 43,
      "hit": false,
      "t": 147315.625,
      "d": 103.125,
      "v": 81
    },
    {
      "midi": 52,
      "hit": false,
      "t": 147350,
      "d": 81.25,
      "v": 60
    },
    {
      "midi": 74,
      "hit": false,
      "t": 147506.25,
      "d": 318.75,
      "v": 100
    },
    {
      "midi": 64,
      "hit": false,
      "t": 147700,
      "d": 37.5,
      "v": 77
    },
    {
      "midi": 60,
      "hit": false,
      "t": 147703.125,
      "d": 37.5,
      "v": 73
    },
    {
      "midi": 72,
      "hit": false,
      "t": 147703.125,
      "d": 218.75,
      "v": 97
    },
    {
      "midi": 58,
      "hit": false,
      "t": 147718.75,
      "d": 46.875,
      "v": 77
    },
    {
      "midi": 70,
      "hit": false,
      "t": 147881.25,
      "d": 256.25,
      "v": 105
    },
    {
      "midi": 76,
      "hit": false,
      "t": 148081.25,
      "d": 300,
      "v": 94
    },
    {
      "midi": 72,
      "hit": false,
      "t": 148084.375,
      "d": 146.875,
      "v": 94
    },
    {
      "midi": 36,
      "hit": false,
      "t": 148093.75,
      "d": 56.25,
      "v": 74
    },
    {
      "midi": 74,
      "hit": false,
      "t": 148296.875,
      "d": 206.25,
      "v": 89
    },
    {
      "midi": 72,
      "hit": false,
      "t": 148471.875,
      "d": 131.25,
      "v": 88
    },
    {
      "midi": 58,
      "hit": false,
      "t": 148481.25,
      "d": 56.25,
      "v": 84
    },
    {
      "midi": 60,
      "hit": false,
      "t": 148518.75,
      "d": 62.5,
      "v": 35
    },
    {
      "midi": 70,
      "hit": false,
      "t": 148662.5,
      "d": 146.875,
      "v": 94
    },
    {
      "midi": 41,
      "hit": false,
      "t": 148868.75,
      "d": 59.375,
      "v": 87
    },
    {
      "midi": 74,
      "hit": false,
      "t": 148868.75,
      "d": 396.875,
      "v": 84
    },
    {
      "midi": 53,
      "hit": false,
      "t": 148878.125,
      "d": 121.875,
      "v": 69
    },
    {
      "midi": 69,
      "hit": false,
      "t": 148881.25,
      "d": 203.125,
      "v": 76
    },
    {
      "midi": 57,
      "hit": false,
      "t": 149271.875,
      "d": 53.125,
      "v": 94
    },
    {
      "midi": 65,
      "hit": false,
      "t": 149275,
      "d": 34.375,
      "v": 91
    },
    {
      "midi": 72,
      "hit": false,
      "t": 149275,
      "d": 59.375,
      "v": 101
    },
    {
      "midi": 69,
      "hit": false,
      "t": 149275,
      "d": 68.75,
      "v": 101
    },
    {
      "midi": 60,
      "hit": false,
      "t": 149275,
      "d": 87.5,
      "v": 95
    },
    {
      "midi": 55,
      "hit": false,
      "t": 149684.375,
      "d": 253.125,
      "v": 112
    },
    {
      "midi": 70,
      "hit": false,
      "t": 149684.375,
      "d": 303.125,
      "v": 126
    },
    {
      "midi": 82,
      "hit": false,
      "t": 149684.375,
      "d": 309.375,
      "v": 125
    },
    {
      "midi": 43,
      "hit": false,
      "t": 149687.5,
      "d": 175,
      "v": 103
    },
    {
      "midi": 44,
      "hit": false,
      "t": 150087.5,
      "d": 206.25,
      "v": 99
    },
    {
      "midi": 71,
      "hit": false,
      "t": 150087.5,
      "d": 206.25,
      "v": 111
    },
    {
      "midi": 83,
      "hit": false,
      "t": 150087.5,
      "d": 206.25,
      "v": 114
    },
    {
      "midi": 56,
      "hit": false,
      "t": 150087.5,
      "d": 234.375,
      "v": 113
    },
    {
      "midi": 84,
      "hit": false,
      "t": 150481.25,
      "d": 231.25,
      "v": 112
    },
    {
      "midi": 72,
      "hit": false,
      "t": 150484.375,
      "d": 196.875,
      "v": 114
    },
    {
      "midi": 81,
      "hit": false,
      "t": 150484.375,
      "d": 275,
      "v": 111
    },
    {
      "midi": 57,
      "hit": false,
      "t": 150493.75,
      "d": 121.875,
      "v": 112
    },
    {
      "midi": 45,
      "hit": false,
      "t": 150500,
      "d": 137.5,
      "v": 106
    },
    {
      "midi": 86,
      "hit": false,
      "t": 150900,
      "d": 625,
      "v": 118
    },
    {
      "midi": 77,
      "hit": false,
      "t": 150900,
      "d": 718.75,
      "v": 115
    },
    {
      "midi": 81,
      "hit": false,
      "t": 150900,
      "d": 756.25,
      "v": 111
    },
    {
      "midi": 74,
      "hit": false,
      "t": 150903.125,
      "d": 659.375,
      "v": 114
    },
    {
      "midi": 53,
      "hit": false,
      "t": 150909.375,
      "d": 75,
      "v": 110
    },
    {
      "midi": 41,
      "hit": false,
      "t": 150912.5,
      "d": 90.625,
      "v": 108
    },
    {
      "midi": 52,
      "hit": false,
      "t": 151306.25,
      "d": 187.5,
      "v": 117
    },
    {
      "midi": 40,
      "hit": false,
      "t": 151312.5,
      "d": 131.25,
      "v": 113
    },
    {
      "midi": 77,
      "hit": false,
      "t": 151709.375,
      "d": 90.625,
      "v": 108
    },
    {
      "midi": 72,
      "hit": false,
      "t": 151709.375,
      "d": 100,
      "v": 115
    },
    {
      "midi": 84,
      "hit": false,
      "t": 151712.5,
      "d": 100,
      "v": 111
    },
    {
      "midi": 51,
      "hit": false,
      "t": 151712.5,
      "d": 112.5,
      "v": 118
    },
    {
      "midi": 81,
      "hit": false,
      "t": 151715.625,
      "d": 90.625,
      "v": 113
    },
    {
      "midi": 39,
      "hit": false,
      "t": 151715.625,
      "d": 146.875,
      "v": 110
    },
    {
      "midi": 45,
      "hit": false,
      "t": 151915.625,
      "d": 168.75,
      "v": 101
    },
    {
      "midi": 38,
      "hit": false,
      "t": 152115.625,
      "d": 87.5,
      "v": 108
    },
    {
      "midi": 74,
      "hit": false,
      "t": 152115.625,
      "d": 318.75,
      "v": 103
    },
    {
      "midi": 81,
      "hit": false,
      "t": 152115.625,
      "d": 371.875,
      "v": 110
    },
    {
      "midi": 69,
      "hit": false,
      "t": 152118.75,
      "d": 281.25,
      "v": 107
    },
    {
      "midi": 71,
      "hit": false,
      "t": 152121.875,
      "d": 265.625,
      "v": 97
    },
    {
      "midi": 77,
      "hit": false,
      "t": 152125,
      "d": 356.25,
      "v": 111
    },
    {
      "midi": 50,
      "hit": false,
      "t": 152128.125,
      "d": 106.25,
      "v": 101
    },
    {
      "midi": 48,
      "hit": false,
      "t": 152168.75,
      "d": 65.625,
      "v": 33
    },
    {
      "midi": 65,
      "hit": false,
      "t": 152506.25,
      "d": 40.625,
      "v": 100
    },
    {
      "midi": 69,
      "hit": false,
      "t": 152509.375,
      "d": 121.875,
      "v": 77
    },
    {
      "midi": 79,
      "hit": false,
      "t": 152509.375,
      "d": 153.125,
      "v": 88
    },
    {
      "midi": 74,
      "hit": false,
      "t": 152512.5,
      "d": 125,
      "v": 80
    },
    {
      "midi": 59,
      "hit": false,
      "t": 152515.625,
      "d": 96.875,
      "v": 72
    },
    {
      "midi": 71,
      "hit": false,
      "t": 152515.625,
      "d": 109.375,
      "v": 68
    },
    {
      "midi": 62,
      "hit": false,
      "t": 152525,
      "d": 31.25,
      "v": 89
    },
    {
      "midi": 77,
      "hit": false,
      "t": 152525,
      "d": 131.25,
      "v": 33
    },
    {
      "midi": 74,
      "hit": false,
      "t": 152709.375,
      "d": 318.75,
      "v": 95
    },
    {
      "midi": 81,
      "hit": false,
      "t": 152712.5,
      "d": 318.75,
      "v": 106
    },
    {
      "midi": 69,
      "hit": false,
      "t": 152718.75,
      "d": 337.5,
      "v": 76
    },
    {
      "midi": 71,
      "hit": false,
      "t": 152721.875,
      "d": 318.75,
      "v": 63
    },
    {
      "midi": 43,
      "hit": false,
      "t": 152893.75,
      "d": 106.25,
      "v": 85
    },
    {
      "midi": 53,
      "hit": false,
      "t": 152912.5,
      "d": 109.375,
      "v": 66
    },
    {
      "midi": 79,
      "hit": false,
      "t": 153109.375,
      "d": 271.875,
      "v": 92
    },
    {
      "midi": 65,
      "hit": false,
      "t": 153271.875,
      "d": 40.625,
      "v": 80
    },
    {
      "midi": 59,
      "hit": false,
      "t": 153275,
      "d": 100,
      "v": 73
    },
    {
      "midi": 77,
      "hit": false,
      "t": 153287.5,
      "d": 206.25,
      "v": 95
    },
    {
      "midi": 62,
      "hit": false,
      "t": 153293.75,
      "d": 40.625,
      "v": 68
    },
    {
      "midi": 74,
      "hit": false,
      "t": 153471.875,
      "d": 40.625,
      "v": 97
    },
    {
      "midi": 81,
      "hit": false,
      "t": 153650,
      "d": 337.5,
      "v": 95
    },
    {
      "midi": 76,
      "hit": false,
      "t": 153659.375,
      "d": 296.875,
      "v": 109
    },
    {
      "midi": 70,
      "hit": false,
      "t": 153665.625,
      "d": 281.25,
      "v": 105
    },
    {
      "midi": 48,
      "hit": false,
      "t": 153675,
      "d": 118.75,
      "v": 91
    },
    {
      "midi": 55,
      "hit": false,
      "t": 153681.25,
      "d": 128.125,
      "v": 85
    },
    {
      "midi": 64,
      "hit": false,
      "t": 154046.875,
      "d": 40.625,
      "v": 73
    },
    {
      "midi": 60,
      "hit": false,
      "t": 154050,
      "d": 43.75,
      "v": 73
    },
    {
      "midi": 58,
      "hit": false,
      "t": 154050,
      "d": 53.125,
      "v": 84
    },
    {
      "midi": 70,
      "hit": false,
      "t": 154053.125,
      "d": 71.875,
      "v": 59
    },
    {
      "midi": 79,
      "hit": false,
      "t": 154056.25,
      "d": 143.75,
      "v": 78
    },
    {
      "midi": 81,
      "hit": false,
      "t": 154268.75,
      "d": 206.25,
      "v": 80
    },
    {
      "midi": 70,
      "hit": false,
      "t": 154268.75,
      "d": 228.125,
      "v": 83
    },
    {
      "midi": 76,
      "hit": false,
      "t": 154275,
      "d": 206.25,
      "v": 80
    },
    {
      "midi": 60,
      "hit": false,
      "t": 154415.625,
      "d": 59.375,
      "v": 79
    },
    {
      "midi": 48,
      "hit": false,
      "t": 154418.75,
      "d": 115.625,
      "v": 69
    },
    {
      "midi": 76,
      "hit": false,
      "t": 154640.625,
      "d": 37.5,
      "v": 100
    },
    {
      "midi": 79,
      "hit": false,
      "t": 154815.625,
      "d": 40.625,
      "v": 88
    },
    {
      "midi": 58,
      "hit": false,
      "t": 154825,
      "d": 46.875,
      "v": 81
    },
    {
      "midi": 72,
      "hit": false,
      "t": 154825,
      "d": 53.125,
      "v": 60
    },
    {
      "midi": 67,
      "hit": false,
      "t": 154825,
      "d": 106.25,
      "v": 75
    },
    {
      "midi": 46,
      "hit": false,
      "t": 154825,
      "d": 128.125,
      "v": 84
    },
    {
      "midi": 57,
      "hit": false,
      "t": 155200,
      "d": 53.125,
      "v": 87
    },
    {
      "midi": 72,
      "hit": false,
      "t": 155200,
      "d": 981.25,
      "v": 85
    },
    {
      "midi": 60,
      "hit": false,
      "t": 155206.25,
      "d": 921.875,
      "v": 71
    },
    {
      "midi": 65,
      "hit": false,
      "t": 155215.625,
      "d": 918.75,
      "v": 71
    },
    {
      "midi": 45,
      "hit": false,
      "t": 155218.75,
      "d": 84.375,
      "v": 68
    },
    {
      "midi": 53,
      "hit": false,
      "t": 155609.375,
      "d": 71.875,
      "v": 97
    },
    {
      "midi": 41,
      "hit": false,
      "t": 155612.5,
      "d": 96.875,
      "v": 99
    },
    {
      "midi": 52,
      "hit": false,
      "t": 156025,
      "d": 93.75,
      "v": 83
    },
    {
      "midi": 40,
      "hit": false,
      "t": 156031.25,
      "d": 81.25,
      "v": 80
    },
    {
      "midi": 51,
      "hit": false,
      "t": 156406.25,
      "d": 87.5,
      "v": 78
    },
    {
      "midi": 39,
      "hit": false,
      "t": 156406.25,
      "d": 125,
      "v": 76
    },
    {
      "midi": 72,
      "hit": false,
      "t": 156421.875,
      "d": 71.875,
      "v": 72
    },
    {
      "midi": 69,
      "hit": false,
      "t": 156431.25,
      "d": 40.625,
      "v": 81
    },
    {
      "midi": 45,
      "hit": false,
      "t": 156628.125,
      "d": 56.25,
      "v": 63
    },
    {
      "midi": 38,
      "hit": false,
      "t": 156796.875,
      "d": 62.5,
      "v": 79
    },
    {
      "midi": 66,
      "hit": false,
      "t": 156803.125,
      "d": 278.125,
      "v": 71
    },
    {
      "midi": 74,
      "hit": false,
      "t": 156815.625,
      "d": 153.125,
      "v": 77
    },
    {
      "midi": 62,
      "hit": false,
      "t": 156815.625,
      "d": 246.875,
      "v": 62
    },
    {
      "midi": 50,
      "hit": false,
      "t": 156818.75,
      "d": 112.5,
      "v": 57
    },
    {
      "midi": 60,
      "hit": false,
      "t": 157200,
      "d": 46.875,
      "v": 84
    },
    {
      "midi": 54,
      "hit": false,
      "t": 157206.25,
      "d": 43.75,
      "v": 76
    },
    {
      "midi": 72,
      "hit": false,
      "t": 157206.25,
      "d": 81.25,
      "v": 84
    },
    {
      "midi": 66,
      "hit": false,
      "t": 157218.75,
      "d": 59.375,
      "v": 65
    },
    {
      "midi": 62,
      "hit": false,
      "t": 157234.375,
      "d": 50,
      "v": 55
    },
    {
      "midi": 66,
      "hit": false,
      "t": 157415.625,
      "d": 334.375,
      "v": 84
    },
    {
      "midi": 74,
      "hit": false,
      "t": 157425,
      "d": 240.625,
      "v": 91
    },
    {
      "midi": 62,
      "hit": false,
      "t": 157446.875,
      "d": 296.875,
      "v": 61
    },
    {
      "midi": 45,
      "hit": false,
      "t": 157603.125,
      "d": 103.125,
      "v": 92
    },
    {
      "midi": 72,
      "hit": false,
      "t": 157796.875,
      "d": 156.25,
      "v": 92
    },
    {
      "midi": 60,
      "hit": false,
      "t": 157968.75,
      "d": 40.625,
      "v": 80
    },
    {
      "midi": 54,
      "hit": false,
      "t": 157975,
      "d": 46.875,
      "v": 67
    },
    {
      "midi": 69,
      "hit": false,
      "t": 157984.375,
      "d": 100,
      "v": 98
    },
    {
      "midi": 72,
      "hit": false,
      "t": 158162.5,
      "d": 128.125,
      "v": 98
    },
    {
      "midi": 70,
      "hit": false,
      "t": 158353.125,
      "d": 328.125,
      "v": 108
    },
    {
      "midi": 67,
      "hit": false,
      "t": 158356.25,
      "d": 237.5,
      "v": 103
    },
    {
      "midi": 62,
      "hit": false,
      "t": 158359.375,
      "d": 278.125,
      "v": 95
    },
    {
      "midi": 43,
      "hit": false,
      "t": 158362.5,
      "d": 150,
      "v": 95
    },
    {
      "midi": 55,
      "hit": false,
      "t": 158362.5,
      "d": 215.625,
      "v": 101
    },
    {
      "midi": 72,
      "hit": false,
      "t": 158750,
      "d": 178.125,
      "v": 114
    },
    {
      "midi": 66,
      "hit": false,
      "t": 158753.125,
      "d": 231.25,
      "v": 106
    },
    {
      "midi": 62,
      "hit": false,
      "t": 158756.25,
      "d": 225,
      "v": 104
    },
    {
      "midi": 45,
      "hit": false,
      "t": 158762.5,
      "d": 96.875,
      "v": 106
    },
    {
      "midi": 57,
      "hit": false,
      "t": 158762.5,
      "d": 187.5,
      "v": 111
    },
    {
      "midi": 62,
      "hit": false,
      "t": 159143.75,
      "d": 87.5,
      "v": 109
    },
    {
      "midi": 67,
      "hit": false,
      "t": 159143.75,
      "d": 112.5,
      "v": 110
    },
    {
      "midi": 74,
      "hit": false,
      "t": 159143.75,
      "d": 128.125,
      "v": 111
    },
    {
      "midi": 58,
      "hit": false,
      "t": 159150,
      "d": 137.5,
      "v": 121
    },
    {
      "midi": 46,
      "hit": false,
      "t": 159153.125,
      "d": 165.625,
      "v": 110
    },
    {
      "midi": 77,
      "hit": false,
      "t": 159550,
      "d": 75,
      "v": 118
    },
    {
      "midi": 47,
      "hit": false,
      "t": 159553.125,
      "d": 106.25,
      "v": 79
    },
    {
      "midi": 65,
      "hit": false,
      "t": 159553.125,
      "d": 137.5,
      "v": 114
    },
    {
      "midi": 59,
      "hit": false,
      "t": 159553.125,
      "d": 253.125,
      "v": 88
    },
    {
      "midi": 48,
      "hit": false,
      "t": 159962.5,
      "d": 46.875,
      "v": 85
    },
    {
      "midi": 65,
      "hit": false,
      "t": 159965.625,
      "d": 265.625,
      "v": 106
    },
    {
      "midi": 74,
      "hit": false,
      "t": 159965.625,
      "d": 278.125,
      "v": 111
    },
    {
      "midi": 69,
      "hit": false,
      "t": 159971.875,
      "d": 121.875,
      "v": 102
    },
    {
      "midi": 72,
      "hit": false,
      "t": 160168.75,
      "d": 203.125,
      "v": 97
    },
    {
      "midi": 60,
      "hit": false,
      "t": 160325,
      "d": 37.5,
      "v": 84
    },
    {
      "midi": 57,
      "hit": false,
      "t": 160325,
      "d": 62.5,
      "v": 81
    },
    {
      "midi": 69,
      "hit": false,
      "t": 160350,
      "d": 112.5,
      "v": 102
    },
    {
      "midi": 65,
      "hit": false,
      "t": 160525,
      "d": 43.75,
      "v": 94
    },
    {
      "midi": 59,
      "hit": false,
      "t": 160725,
      "d": 106.25,
      "v": 94
    },
    {
      "midi": 50,
      "hit": false,
      "t": 160737.5,
      "d": 134.375,
      "v": 85
    },
    {
      "midi": 58,
      "hit": false,
      "t": 161103.125,
      "d": 215.625,
      "v": 113
    },
    {
      "midi": 67,
      "hit": false,
      "t": 161109.375,
      "d": 246.875,
      "v": 94
    },
    {
      "midi": 52,
      "hit": false,
      "t": 161118.75,
      "d": 50,
      "v": 84
    },
    {
      "midi": 64,
      "hit": false,
      "t": 161118.75,
      "d": 171.875,
      "v": 92
    },
    {
      "midi": 68,
      "hit": false,
      "t": 161125,
      "d": 59.375,
      "v": 60
    },
    {
      "midi": 48,
      "hit": false,
      "t": 161134.375,
      "d": 81.25,
      "v": 76
    },
    {
      "midi": 57,
      "hit": false,
      "t": 161493.75,
      "d": 65.625,
      "v": 110
    },
    {
      "midi": 60,
      "hit": false,
      "t": 161493.75,
      "d": 75,
      "v": 112
    },
    {
      "midi": 65,
      "hit": false,
      "t": 161493.75,
      "d": 103.125,
      "v": 108
    },
    {
      "midi": 53,
      "hit": false,
      "t": 161503.125,
      "d": 68.75,
      "v": 116
    },
    {
      "midi": 41,
      "hit": false,
      "t": 161506.25,
      "d": 112.5,
      "v": 112
    },
    {
      "midi": 52,
      "hit": false,
      "t": 161534.375,
      "d": 34.375,
      "v": 71
    },
    {
      "midi": 53,
      "hit": false,
      "t": 161918.75,
      "d": 215.625,
      "v": 117
    },
    {
      "midi": 41,
      "hit": false,
      "t": 161921.875,
      "d": 153.125,
      "v": 116
    },
    {
      "midi": 69,
      "hit": false,
      "t": 161925,
      "d": 196.875,
      "v": 118
    },
    {
      "midi": 81,
      "hit": false,
      "t": 161925,
      "d": 225,
      "v": 121
    },
    {
      "midi": 70,
      "hit": false,
      "t": 162306.25,
      "d": 206.25,
      "v": 126
    },
    {
      "midi": 82,
      "hit": false,
      "t": 162306.25,
      "d": 237.5,
      "v": 123
    },
    {
      "midi": 55,
      "hit": false,
      "t": 162321.875,
      "d": 190.625,
      "v": 123
    },
    {
      "midi": 43,
      "hit": false,
      "t": 162325,
      "d": 143.75,
      "v": 113
    },
    {
      "midi": 71,
      "hit": false,
      "t": 162700,
      "d": 162.5,
      "v": 112
    },
    {
      "midi": 83,
      "hit": false,
      "t": 162700,
      "d": 190.625,
      "v": 116
    },
    {
      "midi": 44,
      "hit": false,
      "t": 162703.125,
      "d": 134.375,
      "v": 104
    },
    {
      "midi": 56,
      "hit": false,
      "t": 162706.25,
      "d": 106.25,
      "v": 118
    },
    {
      "midi": 46,
      "hit": false,
      "t": 162775,
      "d": 62.5,
      "v": 31
    },
    {
      "midi": 50,
      "hit": false,
      "t": 162925,
      "d": 128.125,
      "v": 85
    },
    {
      "midi": 81,
      "hit": false,
      "t": 162928.125,
      "d": 121.875,
      "v": 94
    },
    {
      "midi": 57,
      "hit": false,
      "t": 163096.875,
      "d": 75,
      "v": 110
    },
    {
      "midi": 84,
      "hit": false,
      "t": 163100,
      "d": 112.5,
      "v": 103
    },
    {
      "midi": 72,
      "hit": false,
      "t": 163103.125,
      "d": 68.75,
      "v": 101
    },
    {
      "midi": 77,
      "hit": false,
      "t": 163103.125,
      "d": 96.875,
      "v": 106
    },
    {
      "midi": 45,
      "hit": false,
      "t": 163103.125,
      "d": 100,
      "v": 109
    },
    {
      "midi": 81,
      "hit": false,
      "t": 163131.25,
      "d": 34.375,
      "v": 80
    },
    {
      "midi": 81,
      "hit": false,
      "t": 163340.625,
      "d": 43.75,
      "v": 60
    },
    {
      "midi": 86,
      "hit": false,
      "t": 163487.5,
      "d": 490.625,
      "v": 121
    },
    {
      "midi": 74,
      "hit": false,
      "t": 163500,
      "d": 62.5,
      "v": 118
    },
    {
      "midi": 77,
      "hit": false,
      "t": 163500,
      "d": 78.125,
      "v": 113
    },
    {
      "midi": 81,
      "hit": false,
      "t": 163500,
      "d": 115.625,
      "v": 93
    },
    {
      "midi": 53,
      "hit": false,
      "t": 163503.125,
      "d": 75,
      "v": 115
    },
    {
      "midi": 41,
      "hit": false,
      "t": 163509.375,
      "d": 59.375,
      "v": 111
    },
    {
      "midi": 74,
      "hit": false,
      "t": 163706.25,
      "d": 78.125,
      "v": 97
    },
    {
      "midi": 52,
      "hit": false,
      "t": 163881.25,
      "d": 93.75,
      "v": 108
    },
    {
      "midi": 40,
      "hit": false,
      "t": 163890.625,
      "d": 59.375,
      "v": 95
    },
    {
      "midi": 77,
      "hit": false,
      "t": 163893.75,
      "d": 106.25,
      "v": 95
    },
    {
      "midi": 81,
      "hit": false,
      "t": 164087.5,
      "d": 115.625,
      "v": 106
    },
    {
      "midi": 45,
      "hit": false,
      "t": 164093.75,
      "d": 137.5,
      "v": 98
    },
    {
      "midi": 51,
      "hit": false,
      "t": 164262.5,
      "d": 81.25,
      "v": 113
    },
    {
      "midi": 84,
      "hit": false,
      "t": 164262.5,
      "d": 134.375,
      "v": 111
    },
    {
      "midi": 72,
      "hit": false,
      "t": 164262.5,
      "d": 162.5,
      "v": 111
    },
    {
      "midi": 81,
      "hit": false,
      "t": 164268.75,
      "d": 115.625,
      "v": 102
    },
    {
      "midi": 77,
      "hit": false,
      "t": 164268.75,
      "d": 140.625,
      "v": 113
    },
    {
      "midi": 39,
      "hit": false,
      "t": 164271.875,
      "d": 150,
      "v": 107
    },
    {
      "midi": 81,
      "hit": false,
      "t": 164456.25,
      "d": 40.625,
      "v": 90
    },
    {
      "midi": 45,
      "hit": false,
      "t": 164481.25,
      "d": 81.25,
      "v": 95
    },
    {
      "midi": 81,
      "hit": false,
      "t": 164640.625,
      "d": 215.625,
      "v": 115
    },
    {
      "midi": 71,
      "hit": false,
      "t": 164640.625,
      "d": 262.5,
      "v": 95
    },
    {
      "midi": 74,
      "hit": false,
      "t": 164643.75,
      "d": 303.125,
      "v": 104
    },
    {
      "midi": 38,
      "hit": false,
      "t": 164650,
      "d": 90.625,
      "v": 108
    },
    {
      "midi": 50,
      "hit": false,
      "t": 164653.125,
      "d": 115.625,
      "v": 108
    },
    {
      "midi": 69,
      "hit": false,
      "t": 164653.125,
      "d": 253.125,
      "v": 106
    },
    {
      "midi": 77,
      "hit": false,
      "t": 164656.25,
      "d": 293.75,
      "v": 94
    },
    {
      "midi": 79,
      "hit": false,
      "t": 164668.75,
      "d": 40.625,
      "v": 79
    },
    {
      "midi": 59,
      "hit": false,
      "t": 165018.75,
      "d": 93.75,
      "v": 88
    },
    {
      "midi": 65,
      "hit": false,
      "t": 165021.875,
      "d": 34.375,
      "v": 100
    },
    {
      "midi": 79,
      "hit": false,
      "t": 165031.25,
      "d": 137.5,
      "v": 108
    },
    {
      "midi": 77,
      "hit": false,
      "t": 165031.25,
      "d": 146.875,
      "v": 91
    },
    {
      "midi": 69,
      "hit": false,
      "t": 165037.5,
      "d": 81.25,
      "v": 101
    },
    {
      "midi": 62,
      "hit": false,
      "t": 165040.625,
      "d": 37.5,
      "v": 85
    },
    {
      "midi": 74,
      "hit": false,
      "t": 165040.625,
      "d": 128.125,
      "v": 75
    },
    {
      "midi": 71,
      "hit": false,
      "t": 165050,
      "d": 34.375,
      "v": 83
    },
    {
      "midi": 74,
      "hit": false,
      "t": 165231.25,
      "d": 293.75,
      "v": 106
    },
    {
      "midi": 81,
      "hit": false,
      "t": 165250,
      "d": 287.5,
      "v": 108
    },
    {
      "midi": 69,
      "hit": false,
      "t": 165259.375,
      "d": 253.125,
      "v": 88
    },
    {
      "midi": 71,
      "hit": false,
      "t": 165262.5,
      "d": 246.875,
      "v": 60
    },
    {
      "midi": 31,
      "hit": false,
      "t": 165418.75,
      "d": 90.625,
      "v": 110
    },
    {
      "midi": 79,
      "hit": false,
      "t": 165628.125,
      "d": 96.875,
      "v": 103
    },
    {
      "midi": 65,
      "hit": false,
      "t": 165787.5,
      "d": 34.375,
      "v": 90
    },
    {
      "midi": 59,
      "hit": false,
      "t": 165800,
      "d": 90.625,
      "v": 72
    },
    {
      "midi": 55,
      "hit": false,
      "t": 165800,
      "d": 106.25,
      "v": 80
    },
    {
      "midi": 62,
      "hit": false,
      "t": 165803.125,
      "d": 34.375,
      "v": 85
    },
    {
      "midi": 77,
      "hit": false,
      "t": 165803.125,
      "d": 125,
      "v": 95
    },
    {
      "midi": 74,
      "hit": false,
      "t": 166000,
      "d": 84.375,
      "v": 94
    },
    {
      "midi": 81,
      "hit": false,
      "t": 166181.25,
      "d": 268.75,
      "v": 115
    },
    {
      "midi": 36,
      "hit": false,
      "t": 166187.5,
      "d": 75,
      "v": 109
    },
    {
      "midi": 76,
      "hit": false,
      "t": 166190.625,
      "d": 84.375,
      "v": 115
    },
    {
      "midi": 48,
      "hit": false,
      "t": 166190.625,
      "d": 106.25,
      "v": 106
    },
    {
      "midi": 70,
      "hit": false,
      "t": 166556.25,
      "d": 125,
      "v": 95
    },
    {
      "midi": 64,
      "hit": false,
      "t": 166562.5,
      "d": 40.625,
      "v": 91
    },
    {
      "midi": 58,
      "hit": false,
      "t": 166568.75,
      "d": 118.75,
      "v": 101
    },
    {
      "midi": 60,
      "hit": false,
      "t": 166575,
      "d": 34.375,
      "v": 85
    },
    {
      "midi": 76,
      "hit": false,
      "t": 166575,
      "d": 87.5,
      "v": 87
    },
    {
      "midi": 79,
      "hit": false,
      "t": 166578.125,
      "d": 115.625,
      "v": 77
    },
    {
      "midi": 81,
      "hit": false,
      "t": 166775,
      "d": 181.25,
      "v": 90
    },
    {
      "midi": 76,
      "hit": false,
      "t": 166778.125,
      "d": 190.625,
      "v": 85
    },
    {
      "midi": 70,
      "hit": false,
      "t": 166778.125,
      "d": 209.375,
      "v": 78
    },
    {
      "midi": 43,
      "hit": false,
      "t": 166937.5,
      "d": 93.75,
      "v": 90
    },
    {
      "midi": 52,
      "hit": false,
      "t": 166962.5,
      "d": 43.75,
      "v": 76
    },
    {
      "midi": 76,
      "hit": false,
      "t": 167146.875,
      "d": 56.25,
      "v": 94
    },
    {
      "midi": 58,
      "hit": false,
      "t": 167318.75,
      "d": 90.625,
      "v": 88
    },
    {
      "midi": 60,
      "hit": false,
      "t": 167321.875,
      "d": 40.625,
      "v": 84
    },
    {
      "midi": 64,
      "hit": false,
      "t": 167321.875,
      "d": 40.625,
      "v": 71
    },
    {
      "midi": 79,
      "hit": false,
      "t": 167331.25,
      "d": 40.625,
      "v": 88
    },
    {
      "midi": 72,
      "hit": false,
      "t": 167331.25,
      "d": 59.375,
      "v": 80
    },
    {
      "midi": 67,
      "hit": false,
      "t": 167331.25,
      "d": 81.25,
      "v": 89
    },
    {
      "midi": 76,
      "hit": false,
      "t": 167337.5,
      "d": 40.625,
      "v": 60
    },
    {
      "midi": 72,
      "hit": false,
      "t": 167706.25,
      "d": 846.875,
      "v": 92
    },
    {
      "midi": 65,
      "hit": false,
      "t": 167712.5,
      "d": 528.125,
      "v": 89
    },
    {
      "midi": 69,
      "hit": false,
      "t": 167712.5,
      "d": 828.125,
      "v": 92
    },
    {
      "midi": 45,
      "hit": false,
      "t": 167718.75,
      "d": 46.875,
      "v": 93
    },
    {
      "midi": 57,
      "hit": false,
      "t": 167728.125,
      "d": 96.875,
      "v": 79
    },
    {
      "midi": 57,
      "hit": false,
      "t": 168090.625,
      "d": 96.875,
      "v": 92
    },
    {
      "midi": 60,
      "hit": false,
      "t": 168100,
      "d": 37.5,
      "v": 100
    },
    {
      "midi": 36,
      "hit": false,
      "t": 168490.625,
      "d": 31.25,
      "v": 85
    },
    {
      "midi": 65,
      "hit": false,
      "t": 168500,
      "d": 40.625,
      "v": 83
    },
    {
      "midi": 48,
      "hit": false,
      "t": 168503.125,
      "d": 59.375,
      "v": 89
    },
    {
      "midi": 65,
      "hit": false,
      "t": 168875,
      "d": 31.25,
      "v": 106
    },
    {
      "midi": 57,
      "hit": false,
      "t": 168884.375,
      "d": 46.875,
      "v": 98
    },
    {
      "midi": 60,
      "hit": false,
      "t": 168890.625,
      "d": 34.375,
      "v": 93
    },
    {
      "midi": 72,
      "hit": false,
      "t": 168893.75,
      "d": 187.5,
      "v": 76
    },
    {
      "midi": 77,
      "hit": false,
      "t": 168987.5,
      "d": 125,
      "v": 81
    },
    {
      "midi": 81,
      "hit": false,
      "t": 169065.625,
      "d": 81.25,
      "v": 81
    },
    {
      "midi": 41,
      "hit": false,
      "t": 169115.625,
      "d": 103.125,
      "v": 98
    },
    {
      "midi": 84,
      "hit": false,
      "t": 169131.25,
      "d": 31.25,
      "v": 95
    },
    {
      "midi": 48,
      "hit": false,
      "t": 169225,
      "d": 96.875,
      "v": 65
    },
    {
      "midi": 57,
      "hit": false,
      "t": 169256.25,
      "d": 93.75,
      "v": 111
    },
    {
      "midi": 89,
      "hit": false,
      "t": 169262.5,
      "d": 137.5,
      "v": 117
    },
    {
      "midi": 77,
      "hit": false,
      "t": 169265.625,
      "d": 109.375,
      "v": 112
    },
    {
      "midi": 88,
      "hit": false,
      "t": 169487.5,
      "d": 90.625,
      "v": 99
    },
    {
      "midi": 65,
      "hit": false,
      "t": 169640.625,
      "d": 40.625,
      "v": 80
    },
    {
      "midi": 60,
      "hit": false,
      "t": 169643.75,
      "d": 87.5,
      "v": 87
    },
    {
      "midi": 57,
      "hit": false,
      "t": 169650,
      "d": 43.75,
      "v": 78
    },
    {
      "midi": 86,
      "hit": false,
      "t": 169650,
      "d": 106.25,
      "v": 102
    },
    {
      "midi": 84,
      "hit": false,
      "t": 169850,
      "d": 96.875,
      "v": 105
    },
    {
      "midi": 45,
      "hit": false,
      "t": 170018.75,
      "d": 50,
      "v": 101
    },
    {
      "midi": 53,
      "hit": false,
      "t": 170021.875,
      "d": 100,
      "v": 100
    },
    {
      "midi": 89,
      "hit": false,
      "t": 170028.125,
      "d": 78.125,
      "v": 117
    },
    {
      "midi": 77,
      "hit": false,
      "t": 170031.25,
      "d": 90.625,
      "v": 114
    },
    {
      "midi": 88,
      "hit": false,
      "t": 170218.75,
      "d": 112.5,
      "v": 101
    },
    {
      "midi": 65,
      "hit": false,
      "t": 170393.75,
      "d": 43.75,
      "v": 95
    },
    {
      "midi": 86,
      "hit": false,
      "t": 170406.25,
      "d": 125,
      "v": 94
    },
    {
      "midi": 57,
      "hit": false,
      "t": 170409.375,
      "d": 62.5,
      "v": 88
    },
    {
      "midi": 60,
      "hit": false,
      "t": 170409.375,
      "d": 62.5,
      "v": 79
    },
    {
      "midi": 84,
      "hit": false,
      "t": 170606.25,
      "d": 68.75,
      "v": 88
    },
    {
      "midi": 88,
      "hit": false,
      "t": 170793.75,
      "d": 178.125,
      "v": 86
    },
    {
      "midi": 43,
      "hit": false,
      "t": 170796.875,
      "d": 71.875,
      "v": 75
    },
    {
      "midi": 84,
      "hit": false,
      "t": 170803.125,
      "d": 190.625,
      "v": 70
    },
    {
      "midi": 52,
      "hit": false,
      "t": 170806.25,
      "d": 121.875,
      "v": 65
    },
    {
      "midi": 64,
      "hit": false,
      "t": 171184.375,
      "d": 40.625,
      "v": 72
    },
    {
      "midi": 76,
      "hit": false,
      "t": 171187.5,
      "d": 53.125,
      "v": 76
    },
    {
      "midi": 60,
      "hit": false,
      "t": 171200,
      "d": 40.625,
      "v": 69
    },
    {
      "midi": 55,
      "hit": false,
      "t": 171200,
      "d": 50,
      "v": 71
    },
    {
      "midi": 58,
      "hit": false,
      "t": 171203.125,
      "d": 46.875,
      "v": 76
    },
    {
      "midi": 82,
      "hit": false,
      "t": 171390.625,
      "d": 334.375,
      "v": 89
    },
    {
      "midi": 79,
      "hit": false,
      "t": 171400,
      "d": 293.75,
      "v": 75
    },
    {
      "midi": 76,
      "hit": false,
      "t": 171412.5,
      "d": 509.375,
      "v": 62
    },
    {
      "midi": 36,
      "hit": false,
      "t": 171565.625,
      "d": 40.625,
      "v": 97
    },
    {
      "midi": 48,
      "hit": false,
      "t": 171571.875,
      "d": 118.75,
      "v": 83
    },
    {
      "midi": 64,
      "hit": false,
      "t": 171956.25,
      "d": 37.5,
      "v": 107
    },
    {
      "midi": 60,
      "hit": false,
      "t": 171968.75,
      "d": 34.375,
      "v": 95
    },
    {
      "midi": 58,
      "hit": false,
      "t": 171968.75,
      "d": 90.625,
      "v": 101
    },
    {
      "midi": 55,
      "hit": false,
      "t": 171975,
      "d": 100,
      "v": 90
    },
    {
      "midi": 84,
      "hit": false,
      "t": 172168.75,
      "d": 128.125,
      "v": 109
    },
    {
      "midi": 43,
      "hit": false,
      "t": 172350,
      "d": 68.75,
      "v": 89
    },
    {
      "midi": 82,
      "hit": false,
      "t": 172350,
      "d": 109.375,
      "v": 107
    },
    {
      "midi": 88,
      "hit": false,
      "t": 172353.125,
      "d": 84.375,
      "v": 112
    },
    {
      "midi": 76,
      "hit": false,
      "t": 172356.25,
      "d": 93.75,
      "v": 97
    },
    {
      "midi": 52,
      "hit": false,
      "t": 172359.375,
      "d": 115.625,
      "v": 86
    },
    {
      "midi": 86,
      "hit": false,
      "t": 172546.875,
      "d": 40.625,
      "v": 104
    },
    {
      "midi": 74,
      "hit": false,
      "t": 172565.625,
      "d": 40.625,
      "v": 81
    },
    {
      "midi": 58,
      "hit": false,
      "t": 172721.875,
      "d": 81.25,
      "v": 95
    },
    {
      "midi": 60,
      "hit": false,
      "t": 172731.25,
      "d": 37.5,
      "v": 80
    },
    {
      "midi": 64,
      "hit": false,
      "t": 172731.25,
      "d": 43.75,
      "v": 65
    },
    {
      "midi": 84,
      "hit": false,
      "t": 172737.5,
      "d": 62.5,
      "v": 87
    },
    {
      "midi": 82,
      "hit": false,
      "t": 172931.25,
      "d": 50,
      "v": 98
    },
    {
      "midi": 36,
      "hit": false,
      "t": 173100,
      "d": 43.75,
      "v": 92
    },
    {
      "midi": 88,
      "hit": false,
      "t": 173112.5,
      "d": 28.125,
      "v": 105
    },
    {
      "midi": 76,
      "hit": false,
      "t": 173134.375,
      "d": 40.625,
      "v": 67
    },
    {
      "midi": 74,
      "hit": false,
      "t": 173137.5,
      "d": 43.75,
      "v": 65
    },
    {
      "midi": 86,
      "hit": false,
      "t": 173300,
      "d": 40.625,
      "v": 94
    },
    {
      "midi": 64,
      "hit": false,
      "t": 173478.125,
      "d": 37.5,
      "v": 80
    },
    {
      "midi": 60,
      "hit": false,
      "t": 173481.25,
      "d": 37.5,
      "v": 82
    },
    {
      "midi": 58,
      "hit": false,
      "t": 173481.25,
      "d": 106.25,
      "v": 95
    },
    {
      "midi": 84,
      "hit": false,
      "t": 173484.375,
      "d": 65.625,
      "v": 81
    },
    {
      "midi": 82,
      "hit": false,
      "t": 173668.75,
      "d": 96.875,
      "v": 108
    },
    {
      "midi": 41,
      "hit": false,
      "t": 173709.375,
      "d": 87.5,
      "v": 84
    },
    {
      "midi": 48,
      "hit": false,
      "t": 173828.125,
      "d": 103.125,
      "v": 66
    },
    {
      "midi": 81,
      "hit": false,
      "t": 173856.25,
      "d": 78.125,
      "v": 114
    },
    {
      "midi": 86,
      "hit": false,
      "t": 173856.25,
      "d": 118.75,
      "v": 116
    },
    {
      "midi": 57,
      "hit": false,
      "t": 173859.375,
      "d": 93.75,
      "v": 108
    },
    {
      "midi": 74,
      "hit": false,
      "t": 173865.625,
      "d": 46.875,
      "v": 102
    },
    {
      "midi": 65,
      "hit": false,
      "t": 174225,
      "d": 31.25,
      "v": 111
    },
    {
      "midi": 62,
      "hit": false,
      "t": 174234.375,
      "d": 56.25,
      "v": 102
    },
    {
      "midi": 60,
      "hit": false,
      "t": 174234.375,
      "d": 84.375,
      "v": 95
    },
    {
      "midi": 84,
      "hit": false,
      "t": 174234.375,
      "d": 84.375,
      "v": 103
    },
    {
      "midi": 77,
      "hit": false,
      "t": 174234.375,
      "d": 115.625,
      "v": 112
    },
    {
      "midi": 72,
      "hit": false,
      "t": 174234.375,
      "d": 146.875,
      "v": 108
    },
    {
      "midi": 57,
      "hit": false,
      "t": 174237.5,
      "d": 87.5,
      "v": 97
    },
    {
      "midi": 81,
      "hit": false,
      "t": 174240.625,
      "d": 78.125,
      "v": 101
    },
    {
      "midi": 76,
      "hit": false,
      "t": 174440.625,
      "d": 115.625,
      "v": 97
    },
    {
      "midi": 50,
      "hit": false,
      "t": 174456.25,
      "d": 125,
      "v": 73
    },
    {
      "midi": 48,
      "hit": false,
      "t": 174468.75,
      "d": 43.75,
      "v": 72
    },
    {
      "midi": 82,
      "hit": false,
      "t": 174612.5,
      "d": 146.875,
      "v": 113
    },
    {
      "midi": 70,
      "hit": false,
      "t": 174615.625,
      "d": 134.375,
      "v": 116
    },
    {
      "midi": 55,
      "hit": false,
      "t": 174615.625,
      "d": 193.75,
      "v": 117
    },
    {
      "midi": 43,
      "hit": false,
      "t": 174621.875,
      "d": 128.125,
      "v": 105
    },
    {
      "midi": 45,
      "hit": false,
      "t": 174665.625,
      "d": 56.25,
      "v": 52
    },
    {
      "midi": 79,
      "hit": false,
      "t": 174812.5,
      "d": 75,
      "v": 88
    },
    {
      "midi": 50,
      "hit": false,
      "t": 174825,
      "d": 106.25,
      "v": 83
    },
    {
      "midi": 71,
      "hit": false,
      "t": 174987.5,
      "d": 93.75,
      "v": 104
    },
    {
      "midi": 56,
      "hit": false,
      "t": 174987.5,
      "d": 125,
      "v": 120
    },
    {
      "midi": 83,
      "hit": false,
      "t": 174987.5,
      "d": 150,
      "v": 107
    },
    {
      "midi": 44,
      "hit": false,
      "t": 174996.875,
      "d": 134.375,
      "v": 103
    },
    {
      "midi": 46,
      "hit": false,
      "t": 175062.5,
      "d": 53.125,
      "v": 21
    },
    {
      "midi": 50,
      "hit": false,
      "t": 175175,
      "d": 106.25,
      "v": 76
    },
    {
      "midi": 80,
      "hit": false,
      "t": 175181.25,
      "d": 109.375,
      "v": 95
    },
    {
      "midi": 57,
      "hit": false,
      "t": 175350,
      "d": 78.125,
      "v": 115
    },
    {
      "midi": 45,
      "hit": false,
      "t": 175356.25,
      "d": 134.375,
      "v": 110
    },
    {
      "midi": 84,
      "hit": false,
      "t": 175356.25,
      "d": 137.5,
      "v": 110
    },
    {
      "midi": 77,
      "hit": false,
      "t": 175365.625,
      "d": 71.875,
      "v": 106
    },
    {
      "midi": 81,
      "hit": false,
      "t": 175365.625,
      "d": 96.875,
      "v": 101
    },
    {
      "midi": 72,
      "hit": false,
      "t": 175375,
      "d": 37.5,
      "v": 92
    },
    {
      "midi": 81,
      "hit": false,
      "t": 175743.75,
      "d": 493.75,
      "v": 116
    },
    {
      "midi": 86,
      "hit": false,
      "t": 175743.75,
      "d": 493.75,
      "v": 121
    },
    {
      "midi": 77,
      "hit": false,
      "t": 175743.75,
      "d": 500,
      "v": 118
    },
    {
      "midi": 74,
      "hit": false,
      "t": 175746.875,
      "d": 275,
      "v": 119
    },
    {
      "midi": 53,
      "hit": false,
      "t": 175750,
      "d": 121.875,
      "v": 116
    },
    {
      "midi": 41,
      "hit": false,
      "t": 175762.5,
      "d": 115.625,
      "v": 113
    },
    {
      "midi": 52,
      "hit": false,
      "t": 176128.125,
      "d": 71.875,
      "v": 121
    },
    {
      "midi": 40,
      "hit": false,
      "t": 176131.25,
      "d": 100,
      "v": 118
    },
    {
      "midi": 74,
      "hit": false,
      "t": 176134.375,
      "d": 140.625,
      "v": 100
    },
    {
      "midi": 45,
      "hit": false,
      "t": 176328.125,
      "d": 134.375,
      "v": 99
    },
    {
      "midi": 81,
      "hit": false,
      "t": 176331.25,
      "d": 125,
      "v": 94
    },
    {
      "midi": 84,
      "hit": false,
      "t": 176500,
      "d": 131.25,
      "v": 109
    },
    {
      "midi": 51,
      "hit": false,
      "t": 176503.125,
      "d": 103.125,
      "v": 115
    },
    {
      "midi": 72,
      "hit": false,
      "t": 176503.125,
      "d": 146.875,
      "v": 112
    },
    {
      "midi": 77,
      "hit": false,
      "t": 176506.25,
      "d": 103.125,
      "v": 111
    },
    {
      "midi": 39,
      "hit": false,
      "t": 176506.25,
      "d": 156.25,
      "v": 108
    },
    {
      "midi": 81,
      "hit": false,
      "t": 176512.5,
      "d": 121.875,
      "v": 110
    },
    {
      "midi": 45,
      "hit": false,
      "t": 176715.625,
      "d": 112.5,
      "v": 98
    },
    {
      "midi": 79,
      "hit": false,
      "t": 176743.75,
      "d": 65.625,
      "v": 41
    },
    {
      "midi": 38,
      "hit": false,
      "t": 176896.875,
      "d": 90.625,
      "v": 110
    },
    {
      "midi": 81,
      "hit": false,
      "t": 176896.875,
      "d": 334.375,
      "v": 117
    },
    {
      "midi": 74,
      "hit": false,
      "t": 176906.25,
      "d": 31.25,
      "v": 112
    },
    {
      "midi": 50,
      "hit": false,
      "t": 176906.25,
      "d": 96.875,
      "v": 107
    },
    {
      "midi": 71,
      "hit": false,
      "t": 176906.25,
      "d": 265.625,
      "v": 101
    },
    {
      "midi": 69,
      "hit": false,
      "t": 176912.5,
      "d": 25,
      "v": 111
    },
    {
      "midi": 69,
      "hit": false,
      "t": 176971.875,
      "d": 200,
      "v": 66
    },
    {
      "midi": 74,
      "hit": false,
      "t": 176990.625,
      "d": 187.5,
      "v": 43
    },
    {
      "midi": 65,
      "hit": false,
      "t": 177271.875,
      "d": 31.25,
      "v": 103
    },
    {
      "midi": 59,
      "hit": false,
      "t": 177281.25,
      "d": 96.875,
      "v": 88
    },
    {
      "midi": 62,
      "hit": false,
      "t": 177284.375,
      "d": 31.25,
      "v": 96
    },
    {
      "midi": 74,
      "hit": false,
      "t": 177284.375,
      "d": 121.875,
      "v": 89
    },
    {
      "midi": 79,
      "hit": false,
      "t": 177284.375,
      "d": 165.625,
      "v": 104
    },
    {
      "midi": 69,
      "hit": false,
      "t": 177287.5,
      "d": 131.25,
      "v": 97
    },
    {
      "midi": 71,
      "hit": false,
      "t": 177293.75,
      "d": 125,
      "v": 75
    },
    {
      "midi": 74,
      "hit": false,
      "t": 177484.375,
      "d": 300,
      "v": 94
    },
    {
      "midi": 81,
      "hit": false,
      "t": 177484.375,
      "d": 300,
      "v": 107
    },
    {
      "midi": 71,
      "hit": false,
      "t": 177490.625,
      "d": 300,
      "v": 75
    },
    {
      "midi": 69,
      "hit": false,
      "t": 177493.75,
      "d": 296.875,
      "v": 92
    },
    {
      "midi": 77,
      "hit": false,
      "t": 177518.75,
      "d": 250,
      "v": 70
    },
    {
      "midi": 31,
      "hit": false,
      "t": 177668.75,
      "d": 87.5,
      "v": 111
    },
    {
      "midi": 79,
      "hit": false,
      "t": 177871.875,
      "d": 250,
      "v": 110
    },
    {
      "midi": 65,
      "hit": false,
      "t": 178034.375,
      "d": 43.75,
      "v": 102
    },
    {
      "midi": 55,
      "hit": false,
      "t": 178037.5,
      "d": 109.375,
      "v": 88
    },
    {
      "midi": 77,
      "hit": false,
      "t": 178040.625,
      "d": 128.125,
      "v": 106
    },
    {
      "midi": 59,
      "hit": false,
      "t": 178050,
      "d": 90.625,
      "v": 85
    },
    {
      "midi": 74,
      "hit": false,
      "t": 178237.5,
      "d": 37.5,
      "v": 94
    },
    {
      "midi": 81,
      "hit": false,
      "t": 178418.75,
      "d": 290.625,
      "v": 81
    },
    {
      "midi": 76,
      "hit": false,
      "t": 178428.125,
      "d": 278.125,
      "v": 108
    },
    {
      "midi": 36,
      "hit": false,
      "t": 178434.375,
      "d": 87.5,
      "v": 102
    },
    {
      "midi": 48,
      "hit": false,
      "t": 178434.375,
      "d": 115.625,
      "v": 108
    },
    {
      "midi": 70,
      "hit": false,
      "t": 178434.375,
      "d": 268.75,
      "v": 110
    },
    {
      "midi": 79,
      "hit": false,
      "t": 178787.5,
      "d": 162.5,
      "v": 95
    },
    {
      "midi": 58,
      "hit": false,
      "t": 178806.25,
      "d": 128.125,
      "v": 97
    },
    {
      "midi": 64,
      "hit": false,
      "t": 178809.375,
      "d": 37.5,
      "v": 84
    },
    {
      "midi": 60,
      "hit": false,
      "t": 178809.375,
      "d": 40.625,
      "v": 84
    },
    {
      "midi": 81,
      "hit": false,
      "t": 179000,
      "d": 215.625,
      "v": 105
    },
    {
      "midi": 76,
      "hit": false,
      "t": 179003.125,
      "d": 218.75,
      "v": 111
    },
    {
      "midi": 70,
      "hit": false,
      "t": 179003.125,
      "d": 228.125,
      "v": 104
    },
    {
      "midi": 43,
      "hit": false,
      "t": 179159.375,
      "d": 87.5,
      "v": 101
    },
    {
      "midi": 52,
      "hit": false,
      "t": 179165.625,
      "d": 103.125,
      "v": 94
    },
    {
      "midi": 76,
      "hit": false,
      "t": 179381.25,
      "d": 56.25,
      "v": 73
    },
    {
      "midi": 67,
      "hit": false,
      "t": 179534.375,
      "d": 103.125,
      "v": 105
    },
    {
      "midi": 79,
      "hit": false,
      "t": 179534.375,
      "d": 103.125,
      "v": 112
    },
    {
      "midi": 76,
      "hit": false,
      "t": 179537.5,
      "d": 68.75,
      "v": 95
    },
    {
      "midi": 72,
      "hit": false,
      "t": 179540.625,
      "d": 96.875,
      "v": 90
    },
    {
      "midi": 58,
      "hit": false,
      "t": 179546.875,
      "d": 96.875,
      "v": 119
    },
    {
      "midi": 46,
      "hit": false,
      "t": 179546.875,
      "d": 190.625,
      "v": 110
    },
    {
      "midi": 69,
      "hit": false,
      "t": 179562.5,
      "d": 50,
      "v": 73
    },
    {
      "midi": 52,
      "hit": false,
      "t": 179737.5,
      "d": 121.875,
      "v": 93
    },
    {
      "midi": 72,
      "hit": false,
      "t": 179915.625,
      "d": 884.375,
      "v": 97
    },
    {
      "midi": 60,
      "hit": false,
      "t": 179915.625,
      "d": 906.25,
      "v": 99
    },
    {
      "midi": 65,
      "hit": false,
      "t": 179915.625,
      "d": 912.5,
      "v": 97
    },
    {
      "midi": 57,
      "hit": false,
      "t": 179918.75,
      "d": 78.125,
      "v": 117
    },
    {
      "midi": 69,
      "hit": false,
      "t": 179921.875,
      "d": 896.875,
      "v": 94
    },
    {
      "midi": 45,
      "hit": false,
      "t": 179925,
      "d": 100,
      "v": 110
    },
    {
      "midi": 53,
      "hit": false,
      "t": 180309.375,
      "d": 109.375,
      "v": 118
    },
    {
      "midi": 41,
      "hit": false,
      "t": 180315.625,
      "d": 109.375,
      "v": 117
    },
    {
      "midi": 52,
      "hit": false,
      "t": 180700,
      "d": 143.75,
      "v": 119
    },
    {
      "midi": 40,
      "hit": false,
      "t": 180706.25,
      "d": 125,
      "v": 114
    },
    {
      "midi": 45,
      "hit": false,
      "t": 180931.25,
      "d": 209.375,
      "v": 91
    },
    {
      "midi": 51,
      "hit": false,
      "t": 181087.5,
      "d": 118.75,
      "v": 118
    },
    {
      "midi": 60,
      "hit": false,
      "t": 181087.5,
      "d": 165.625,
      "v": 109
    },
    {
      "midi": 39,
      "hit": false,
      "t": 181087.5,
      "d": 175,
      "v": 109
    },
    {
      "midi": 65,
      "hit": false,
      "t": 181087.5,
      "d": 243.75,
      "v": 110
    },
    {
      "midi": 72,
      "hit": false,
      "t": 181087.5,
      "d": 243.75,
      "v": 106
    },
    {
      "midi": 69,
      "hit": false,
      "t": 181087.5,
      "d": 268.75,
      "v": 105
    },
    {
      "midi": 45,
      "hit": false,
      "t": 181287.5,
      "d": 128.125,
      "v": 95
    },
    {
      "midi": 50,
      "hit": false,
      "t": 181456.25,
      "d": 393.75,
      "v": 113
    },
    {
      "midi": 74,
      "hit": false,
      "t": 181459.375,
      "d": 221.875,
      "v": 115
    },
    {
      "midi": 66,
      "hit": false,
      "t": 181459.375,
      "d": 275,
      "v": 108
    },
    {
      "midi": 38,
      "hit": false,
      "t": 181459.375,
      "d": 328.125,
      "v": 110
    },
    {
      "midi": 62,
      "hit": false,
      "t": 181462.5,
      "d": 237.5,
      "v": 113
    },
    {
      "midi": 40,
      "hit": false,
      "t": 181500,
      "d": 53.125,
      "v": 48
    },
    {
      "midi": 62,
      "hit": false,
      "t": 181843.75,
      "d": 96.875,
      "v": 114
    },
    {
      "midi": 72,
      "hit": false,
      "t": 181843.75,
      "d": 131.25,
      "v": 115
    },
    {
      "midi": 66,
      "hit": false,
      "t": 181846.875,
      "d": 106.25,
      "v": 100
    },
    {
      "midi": 66,
      "hit": false,
      "t": 182046.875,
      "d": 328.125,
      "v": 97
    },
    {
      "midi": 74,
      "hit": false,
      "t": 182053.125,
      "d": 234.375,
      "v": 113
    },
    {
      "midi": 62,
      "hit": false,
      "t": 182056.25,
      "d": 465.625,
      "v": 100
    },
    {
      "midi": 57,
      "hit": false,
      "t": 182225,
      "d": 90.625,
      "v": 111
    },
    {
      "midi": 45,
      "hit": false,
      "t": 182231.25,
      "d": 46.875,
      "v": 109
    },
    {
      "midi": 55,
      "hit": false,
      "t": 182268.75,
      "d": 65.625,
      "v": 42
    },
    {
      "midi": 72,
      "hit": false,
      "t": 182412.5,
      "d": 137.5,
      "v": 102
    },
    {
      "midi": 69,
      "hit": false,
      "t": 182593.75,
      "d": 90.625,
      "v": 110
    },
    {
      "midi": 60,
      "hit": false,
      "t": 182596.875,
      "d": 40.625,
      "v": 98
    },
    {
      "midi": 54,
      "hit": false,
      "t": 182596.875,
      "d": 103.125,
      "v": 100
    },
    {
      "midi": 72,
      "hit": false,
      "t": 182784.375,
      "d": 115.625,
      "v": 108
    },
    {
      "midi": 70,
      "hit": false,
      "t": 182956.25,
      "d": 296.875,
      "v": 120
    },
    {
      "midi": 67,
      "hit": false,
      "t": 182962.5,
      "d": 168.75,
      "v": 110
    },
    {
      "midi": 43,
      "hit": false,
      "t": 182968.75,
      "d": 150,
      "v": 98
    },
    {
      "midi": 55,
      "hit": false,
      "t": 182968.75,
      "d": 206.25,
      "v": 110
    },
    {
      "midi": 62,
      "hit": false,
      "t": 182968.75,
      "d": 271.875,
      "v": 108
    },
    {
      "midi": 72,
      "hit": false,
      "t": 183346.875,
      "d": 156.25,
      "v": 117
    },
    {
      "midi": 66,
      "hit": false,
      "t": 183350,
      "d": 221.875,
      "v": 111
    },
    {
      "midi": 45,
      "hit": false,
      "t": 183356.25,
      "d": 137.5,
      "v": 111
    },
    {
      "midi": 57,
      "hit": false,
      "t": 183356.25,
      "d": 190.625,
      "v": 115
    },
    {
      "midi": 62,
      "hit": false,
      "t": 183356.25,
      "d": 231.25,
      "v": 108
    },
    {
      "midi": 62,
      "hit": false,
      "t": 183740.625,
      "d": 90.625,
      "v": 113
    },
    {
      "midi": 67,
      "hit": false,
      "t": 183740.625,
      "d": 106.25,
      "v": 113
    },
    {
      "midi": 74,
      "hit": false,
      "t": 183740.625,
      "d": 121.875,
      "v": 114
    },
    {
      "midi": 58,
      "hit": false,
      "t": 183750,
      "d": 115.625,
      "v": 124
    },
    {
      "midi": 46,
      "hit": false,
      "t": 183750,
      "d": 146.875,
      "v": 115
    },
    {
      "midi": 65,
      "hit": false,
      "t": 184125,
      "d": 68.75,
      "v": 110
    },
    {
      "midi": 74,
      "hit": false,
      "t": 184125,
      "d": 75,
      "v": 108
    },
    {
      "midi": 47,
      "hit": false,
      "t": 184128.125,
      "d": 100,
      "v": 83
    },
    {
      "midi": 77,
      "hit": false,
      "t": 184128.125,
      "d": 103.125,
      "v": 112
    },
    {
      "midi": 59,
      "hit": false,
      "t": 184131.25,
      "d": 87.5,
      "v": 97
    },
    {
      "midi": 51,
      "hit": false,
      "t": 184337.5,
      "d": 46.875,
      "v": 59
    },
    {
      "midi": 52,
      "hit": false,
      "t": 184384.375,
      "d": 46.875,
      "v": 48
    },
    {
      "midi": 86,
      "hit": false,
      "t": 184521.875,
      "d": 93.75,
      "v": 112
    },
    {
      "midi": 48,
      "hit": false,
      "t": 184525,
      "d": 90.625,
      "v": 102
    },
    {
      "midi": 81,
      "hit": false,
      "t": 184525,
      "d": 128.125,
      "v": 98
    },
    {
      "midi": 77,
      "hit": false,
      "t": 184525,
      "d": 131.25,
      "v": 105
    },
    {
      "midi": 74,
      "hit": false,
      "t": 184525,
      "d": 156.25,
      "v": 103
    },
    {
      "midi": 57,
      "hit": false,
      "t": 184528.125,
      "d": 115.625,
      "v": 106
    },
    {
      "midi": 84,
      "hit": false,
      "t": 184731.25,
      "d": 196.875,
      "v": 100
    },
    {
      "midi": 65,
      "hit": false,
      "t": 184881.25,
      "d": 43.75,
      "v": 90
    },
    {
      "midi": 60,
      "hit": false,
      "t": 184881.25,
      "d": 87.5,
      "v": 84
    },
    {
      "midi": 57,
      "hit": false,
      "t": 184893.75,
      "d": 56.25,
      "v": 85
    },
    {
      "midi": 81,
      "hit": false,
      "t": 184918.75,
      "d": 121.875,
      "v": 87
    },
    {
      "midi": 77,
      "hit": false,
      "t": 185106.25,
      "d": 37.5,
      "v": 102
    },
    {
      "midi": 62,
      "hit": false,
      "t": 185287.5,
      "d": 93.75,
      "v": 97
    },
    {
      "midi": 50,
      "hit": false,
      "t": 185293.75,
      "d": 143.75,
      "v": 88
    },
    {
      "midi": 71,
      "hit": false,
      "t": 185306.25,
      "d": 43.75,
      "v": 70
    },
    {
      "midi": 55,
      "hit": false,
      "t": 185465.625,
      "d": 143.75,
      "v": 90
    },
    {
      "midi": 60,
      "hit": false,
      "t": 185650,
      "d": 325,
      "v": 114
    },
    {
      "midi": 70,
      "hit": false,
      "t": 185656.25,
      "d": 209.375,
      "v": 117
    },
    {
      "midi": 79,
      "hit": false,
      "t": 185656.25,
      "d": 275,
      "v": 107
    },
    {
      "midi": 76,
      "hit": false,
      "t": 185662.5,
      "d": 190.625,
      "v": 110
    },
    {
      "midi": 48,
      "hit": false,
      "t": 185662.5,
      "d": 337.5,
      "v": 98
    },
    {
      "midi": 51,
      "hit": false,
      "t": 185681.25,
      "d": 46.875,
      "v": 64
    },
    {
      "midi": 77,
      "hit": false,
      "t": 186050,
      "d": 378.125,
      "v": 118
    },
    {
      "midi": 72,
      "hit": false,
      "t": 186050,
      "d": 396.875,
      "v": 113
    },
    {
      "midi": 69,
      "hit": false,
      "t": 186053.125,
      "d": 418.75,
      "v": 115
    },
    {
      "midi": 53,
      "hit": false,
      "t": 186062.5,
      "d": 365.625,
      "v": 101
    },
    {
      "midi": 65,
      "hit": false,
      "t": 186809.375,
      "d": 87.5,
      "v": 105
    },
    {
      "midi": 69,
      "hit": false,
      "t": 186809.375,
      "d": 90.625,
      "v": 107
    },
    {
      "midi": 29,
      "hit": false,
      "t": 186812.5,
      "d": 28.125,
      "v": 102
    },
    {
      "midi": 41,
      "hit": false,
      "t": 186812.5,
      "d": 81.25,
      "v": 100
    },
    {
      "midi": 77,
      "hit": false,
      "t": 186815.625,
      "d": 34.375,
      "v": 110
    },
    {
      "midi": 67,
      "hit": false,
      "t": 186837.5,
      "d": 50,
      "v": 70
    },
    {
      "midi": 42,
      "hit": false,
      "t": 187025,
      "d": 59.375,
      "v": 38
    },
    {
      "midi": 79,
      "hit": false,
      "t": 187196.875,
      "d": 62.5,
      "v": 118
    },
    {
      "midi": 67,
      "hit": false,
      "t": 187196.875,
      "d": 78.125,
      "v": 115
    },
    {
      "midi": 48,
      "hit": false,
      "t": 187225,
      "d": 103.125,
      "v": 97
    },
    {
      "midi": 43,
      "hit": false,
      "t": 187343.75,
      "d": 300,
      "v": 97
    },
    {
      "midi": 84,
      "hit": false,
      "t": 187581.25,
      "d": 340.625,
      "v": 115
    },
    {
      "midi": 72,
      "hit": false,
      "t": 187584.375,
      "d": 143.75,
      "v": 110
    },
    {
      "midi": 36,
      "hit": false,
      "t": 187593.75,
      "d": 90.625,
      "v": 105
    },
    {
      "midi": 48,
      "hit": false,
      "t": 187593.75,
      "d": 118.75,
      "v": 111
    },
    {
      "midi": 72,
      "hit": false,
      "t": 187793.75,
      "d": 62.5,
      "v": 15
    },
    {
      "midi": 76,
      "hit": false,
      "t": 187793.75,
      "d": 125,
      "v": 100
    },
    {
      "midi": 64,
      "hit": false,
      "t": 187965.625,
      "d": 34.375,
      "v": 94
    },
    {
      "midi": 79,
      "hit": false,
      "t": 187975,
      "d": 93.75,
      "v": 90
    },
    {
      "midi": 60,
      "hit": false,
      "t": 187978.125,
      "d": 34.375,
      "v": 88
    },
    {
      "midi": 55,
      "hit": false,
      "t": 187996.875,
      "d": 40.625,
      "v": 66
    },
    {
      "midi": 81,
      "hit": false,
      "t": 188162.5,
      "d": 293.75,
      "v": 111
    },
    {
      "midi": 76,
      "hit": false,
      "t": 188165.625,
      "d": 271.875,
      "v": 103
    },
    {
      "midi": 69,
      "hit": false,
      "t": 188168.75,
      "d": 240.625,
      "v": 106
    },
    {
      "midi": 48,
      "hit": false,
      "t": 188340.625,
      "d": 106.25,
      "v": 109
    },
    {
      "midi": 60,
      "hit": false,
      "t": 188340.625,
      "d": 137.5,
      "v": 116
    },
    {
      "midi": 79,
      "hit": false,
      "t": 188531.25,
      "d": 137.5,
      "v": 95
    },
    {
      "midi": 55,
      "hit": false,
      "t": 188550,
      "d": 125,
      "v": 84
    },
    {
      "midi": 70,
      "hit": false,
      "t": 188700,
      "d": 146.875,
      "v": 121
    },
    {
      "midi": 82,
      "hit": false,
      "t": 188703.125,
      "d": 175,
      "v": 115
    },
    {
      "midi": 61,
      "hit": false,
      "t": 188706.25,
      "d": 103.125,
      "v": 120
    },
    {
      "midi": 49,
      "hit": false,
      "t": 188709.375,
      "d": 146.875,
      "v": 100
    },
    {
      "midi": 76,
      "hit": false,
      "t": 188750,
      "d": 53.125,
      "v": 41
    },
    {
      "midi": 55,
      "hit": false,
      "t": 188906.25,
      "d": 115.625,
      "v": 79
    },
    {
      "midi": 79,
      "hit": false,
      "t": 188915.625,
      "d": 115.625,
      "v": 82
    },
    {
      "midi": 50,
      "hit": false,
      "t": 189078.125,
      "d": 100,
      "v": 104
    },
    {
      "midi": 62,
      "hit": false,
      "t": 189081.25,
      "d": 125,
      "v": 110
    },
    {
      "midi": 83,
      "hit": false,
      "t": 189084.375,
      "d": 112.5,
      "v": 94
    },
    {
      "midi": 71,
      "hit": false,
      "t": 189084.375,
      "d": 146.875,
      "v": 90
    },
    {
      "midi": 60,
      "hit": false,
      "t": 189137.5,
      "d": 50,
      "v": 21
    },
    {
      "midi": 77,
      "hit": false,
      "t": 189290.625,
      "d": 78.125,
      "v": 97
    },
    {
      "midi": 65,
      "hit": false,
      "t": 189459.375,
      "d": 37.5,
      "v": 91
    },
    {
      "midi": 79,
      "hit": false,
      "t": 189465.625,
      "d": 121.875,
      "v": 90
    },
    {
      "midi": 62,
      "hit": false,
      "t": 189468.75,
      "d": 40.625,
      "v": 76
    },
    {
      "midi": 59,
      "hit": false,
      "t": 189475,
      "d": 59.375,
      "v": 72
    },
    {
      "midi": 69,
      "hit": false,
      "t": 189656.25,
      "d": 296.875,
      "v": 80
    },
    {
      "midi": 77,
      "hit": false,
      "t": 189656.25,
      "d": 300,
      "v": 88
    },
    {
      "midi": 81,
      "hit": false,
      "t": 189656.25,
      "d": 321.875,
      "v": 89
    },
    {
      "midi": 71,
      "hit": false,
      "t": 189665.625,
      "d": 287.5,
      "v": 64
    },
    {
      "midi": 74,
      "hit": false,
      "t": 189668.75,
      "d": 287.5,
      "v": 73
    },
    {
      "midi": 43,
      "hit": false,
      "t": 189846.875,
      "d": 106.25,
      "v": 94
    },
    {
      "midi": 79,
      "hit": false,
      "t": 190059.375,
      "d": 75,
      "v": 83
    },
    {
      "midi": 65,
      "hit": false,
      "t": 190225,
      "d": 40.625,
      "v": 94
    },
    {
      "midi": 74,
      "hit": false,
      "t": 190231.25,
      "d": 103.125,
      "v": 91
    },
    {
      "midi": 83,
      "hit": false,
      "t": 190237.5,
      "d": 193.75,
      "v": 77
    },
    {
      "midi": 62,
      "hit": false,
      "t": 190240.625,
      "d": 37.5,
      "v": 85
    },
    {
      "midi": 59,
      "hit": false,
      "t": 190240.625,
      "d": 100,
      "v": 69
    },
    {
      "midi": 71,
      "hit": false,
      "t": 190256.25,
      "d": 46.875,
      "v": 52
    },
    {
      "midi": 79,
      "hit": false,
      "t": 190440.625,
      "d": 59.375,
      "v": 78
    },
    {
      "midi": 48,
      "hit": false,
      "t": 190621.875,
      "d": 46.875,
      "v": 87
    },
    {
      "midi": 84,
      "hit": false,
      "t": 190621.875,
      "d": 53.125,
      "v": 88
    },
    {
      "midi": 72,
      "hit": false,
      "t": 190621.875,
      "d": 84.375,
      "v": 89
    },
    {
      "midi": 55,
      "hit": false,
      "t": 190631.25,
      "d": 87.5,
      "v": 80
    },
    {
      "midi": 76,
      "hit": false,
      "t": 190821.875,
      "d": 53.125,
      "v": 85
    },
    {
      "midi": 64,
      "hit": false,
      "t": 191000,
      "d": 50,
      "v": 53
    },
    {
      "midi": 79,
      "hit": false,
      "t": 191000,
      "d": 50,
      "v": 78
    },
    {
      "midi": 55,
      "hit": false,
      "t": 191000,
      "d": 78.125,
      "v": 66
    },
    {
      "midi": 60,
      "hit": false,
      "t": 191006.25,
      "d": 43.75,
      "v": 62
    },
    {
      "midi": 81,
      "hit": false,
      "t": 191200,
      "d": 362.5,
      "v": 116
    },
    {
      "midi": 69,
      "hit": false,
      "t": 191206.25,
      "d": 300,
      "v": 113
    },
    {
      "midi": 76,
      "hit": false,
      "t": 191215.625,
      "d": 321.875,
      "v": 106
    },
    {
      "midi": 60,
      "hit": false,
      "t": 191371.875,
      "d": 165.625,
      "v": 103
    },
    {
      "midi": 48,
      "hit": false,
      "t": 191378.125,
      "d": 109.375,
      "v": 86
    },
    {
      "midi": 51,
      "hit": false,
      "t": 191421.875,
      "d": 65.625,
      "v": 32
    },
    {
      "midi": 79,
      "hit": false,
      "t": 191587.5,
      "d": 146.875,
      "v": 95
    },
    {
      "midi": 55,
      "hit": false,
      "t": 191618.75,
      "d": 131.25,
      "v": 80
    },
    {
      "midi": 70,
      "hit": false,
      "t": 191765.625,
      "d": 200,
      "v": 123
    },
    {
      "midi": 82,
      "hit": false,
      "t": 191765.625,
      "d": 250,
      "v": 119
    },
    {
      "midi": 61,
      "hit": false,
      "t": 191768.75,
      "d": 150,
      "v": 115
    },
    {
      "midi": 49,
      "hit": false,
      "t": 191775,
      "d": 162.5,
      "v": 91
    },
    {
      "midi": 79,
      "hit": false,
      "t": 191987.5,
      "d": 121.875,
      "v": 66
    },
    {
      "midi": 50,
      "hit": false,
      "t": 192143.75,
      "d": 65.625,
      "v": 81
    },
    {
      "midi": 83,
      "hit": false,
      "t": 192153.125,
      "d": 196.875,
      "v": 75
    },
    {
      "midi": 71,
      "hit": false,
      "t": 192156.25,
      "d": 281.25,
      "v": 67
    },
    {
      "midi": 62,
      "hit": false,
      "t": 192162.5,
      "d": 115.625,
      "v": 70
    },
    {
      "midi": 60,
      "hit": false,
      "t": 192184.375,
      "d": 56.25,
      "v": 59
    },
    {
      "midi": 77,
      "hit": false,
      "t": 192356.25,
      "d": 59.375,
      "v": 75
    },
    {
      "midi": 65,
      "hit": false,
      "t": 192512.5,
      "d": 46.875,
      "v": 74
    },
    {
      "midi": 59,
      "hit": false,
      "t": 192521.875,
      "d": 112.5,
      "v": 63
    },
    {
      "midi": 79,
      "hit": false,
      "t": 192521.875,
      "d": 143.75,
      "v": 79
    },
    {
      "midi": 62,
      "hit": false,
      "t": 192528.125,
      "d": 43.75,
      "v": 66
    },
    {
      "midi": 81,
      "hit": false,
      "t": 192709.375,
      "d": 359.375,
      "v": 113
    },
    {
      "midi": 69,
      "hit": false,
      "t": 192715.625,
      "d": 315.625,
      "v": 110
    },
    {
      "midi": 77,
      "hit": false,
      "t": 192718.75,
      "d": 312.5,
      "v": 113
    },
    {
      "midi": 43,
      "hit": false,
      "t": 192884.375,
      "d": 100,
      "v": 102
    },
    {
      "midi": 79,
      "hit": false,
      "t": 193093.75,
      "d": 162.5,
      "v": 94
    },
    {
      "midi": 71,
      "hit": false,
      "t": 193259.375,
      "d": 150,
      "v": 81
    },
    {
      "midi": 83,
      "hit": false,
      "t": 193259.375,
      "d": 243.75,
      "v": 89
    },
    {
      "midi": 65,
      "hit": false,
      "t": 193262.5,
      "d": 37.5,
      "v": 94
    },
    {
      "midi": 55,
      "hit": false,
      "t": 193271.875,
      "d": 81.25,
      "v": 81
    },
    {
      "midi": 59,
      "hit": false,
      "t": 193281.25,
      "d": 84.375,
      "v": 72
    },
    {
      "midi": 79,
      "hit": false,
      "t": 193450,
      "d": 106.25,
      "v": 93
    },
    {
      "midi": 84,
      "hit": false,
      "t": 193637.5,
      "d": 481.25,
      "v": 119
    },
    {
      "midi": 72,
      "hit": false,
      "t": 193640.625,
      "d": 515.625,
      "v": 120
    },
    {
      "midi": 48,
      "hit": false,
      "t": 193650,
      "d": 93.75,
      "v": 95
    },
    {
      "midi": 55,
      "hit": false,
      "t": 193653.125,
      "d": 115.625,
      "v": 85
    },
    {
      "midi": 76,
      "hit": false,
      "t": 193846.875,
      "d": 315.625,
      "v": 94
    },
    {
      "midi": 55,
      "hit": false,
      "t": 194000,
      "d": 103.125,
      "v": 85
    },
    {
      "midi": 64,
      "hit": false,
      "t": 194015.625,
      "d": 37.5,
      "v": 78
    },
    {
      "midi": 60,
      "hit": false,
      "t": 194015.625,
      "d": 40.625,
      "v": 70
    },
    {
      "midi": 79,
      "hit": false,
      "t": 194028.125,
      "d": 175,
      "v": 89
    },
    {
      "midi": 72,
      "hit": false,
      "t": 194225,
      "d": 328.125,
      "v": 116
    },
    {
      "midi": 84,
      "hit": false,
      "t": 194228.125,
      "d": 353.125,
      "v": 114
    },
    {
      "midi": 79,
      "hit": false,
      "t": 194237.5,
      "d": 293.75,
      "v": 104
    },
    {
      "midi": 46,
      "hit": false,
      "t": 194406.25,
      "d": 125,
      "v": 117
    },
    {
      "midi": 58,
      "hit": false,
      "t": 194406.25,
      "d": 153.125,
      "v": 123
    },
    {
      "midi": 79,
      "hit": false,
      "t": 194596.875,
      "d": 146.875,
      "v": 108
    },
    {
      "midi": 72,
      "hit": false,
      "t": 194781.25,
      "d": 168.75,
      "v": 117
    },
    {
      "midi": 84,
      "hit": false,
      "t": 194781.25,
      "d": 256.25,
      "v": 119
    },
    {
      "midi": 60,
      "hit": false,
      "t": 194790.625,
      "d": 62.5,
      "v": 99
    },
    {
      "midi": 64,
      "hit": false,
      "t": 194790.625,
      "d": 62.5,
      "v": 103
    },
    {
      "midi": 58,
      "hit": false,
      "t": 194793.75,
      "d": 118.75,
      "v": 111
    },
    {
      "midi": 79,
      "hit": false,
      "t": 194981.25,
      "d": 128.125,
      "v": 112
    },
    {
      "midi": 72,
      "hit": false,
      "t": 195165.625,
      "d": 250,
      "v": 121
    },
    {
      "midi": 84,
      "hit": false,
      "t": 195168.75,
      "d": 325,
      "v": 123
    },
    {
      "midi": 45,
      "hit": false,
      "t": 195175,
      "d": 96.875,
      "v": 106
    },
    {
      "midi": 57,
      "hit": false,
      "t": 195175,
      "d": 140.625,
      "v": 102
    },
    {
      "midi": 77,
      "hit": false,
      "t": 195359.375,
      "d": 100,
      "v": 109
    },
    {
      "midi": 65,
      "hit": false,
      "t": 195534.375,
      "d": 37.5,
      "v": 101
    },
    {
      "midi": 60,
      "hit": false,
      "t": 195543.75,
      "d": 93.75,
      "v": 81
    },
    {
      "midi": 81,
      "hit": false,
      "t": 195543.75,
      "d": 131.25,
      "v": 101
    },
    {
      "midi": 57,
      "hit": false,
      "t": 195556.25,
      "d": 34.375,
      "v": 95
    },
    {
      "midi": 84,
      "hit": false,
      "t": 195731.25,
      "d": 300,
      "v": 115
    },
    {
      "midi": 81,
      "hit": false,
      "t": 195734.375,
      "d": 253.125,
      "v": 110
    },
    {
      "midi": 77,
      "hit": false,
      "t": 195734.375,
      "d": 284.375,
      "v": 121
    },
    {
      "midi": 72,
      "hit": false,
      "t": 195737.5,
      "d": 303.125,
      "v": 112
    },
    {
      "midi": 41,
      "hit": false,
      "t": 195912.5,
      "d": 65.625,
      "v": 110
    },
    {
      "midi": 53,
      "hit": false,
      "t": 195915.625,
      "d": 84.375,
      "v": 111
    },
    {
      "midi": 81,
      "hit": false,
      "t": 196125,
      "d": 103.125,
      "v": 104
    },
    {
      "midi": 81,
      "hit": false,
      "t": 196287.5,
      "d": 62.5,
      "v": 112
    },
    {
      "midi": 84,
      "hit": false,
      "t": 196287.5,
      "d": 103.125,
      "v": 113
    },
    {
      "midi": 65,
      "hit": false,
      "t": 196290.625,
      "d": 34.375,
      "v": 109
    },
    {
      "midi": 72,
      "hit": false,
      "t": 196290.625,
      "d": 81.25,
      "v": 115
    },
    {
      "midi": 77,
      "hit": false,
      "t": 196290.625,
      "d": 84.375,
      "v": 119
    },
    {
      "midi": 57,
      "hit": false,
      "t": 196296.875,
      "d": 75,
      "v": 105
    },
    {
      "midi": 60,
      "hit": false,
      "t": 196296.875,
      "d": 87.5,
      "v": 105
    },
    {
      "midi": 66,
      "hit": false,
      "t": 196693.75,
      "d": 281.25,
      "v": 86
    },
    {
      "midi": 76,
      "hit": false,
      "t": 196700,
      "d": 181.25,
      "v": 65
    },
    {
      "midi": 38,
      "hit": false,
      "t": 196712.5,
      "d": 68.75,
      "v": 96
    },
    {
      "midi": 77,
      "hit": false,
      "t": 196715.625,
      "d": 46.875,
      "v": 64
    },
    {
      "midi": 74,
      "hit": false,
      "t": 196884.375,
      "d": 131.25,
      "v": 83
    },
    {
      "midi": 60,
      "hit": false,
      "t": 197059.375,
      "d": 34.375,
      "v": 82
    },
    {
      "midi": 62,
      "hit": false,
      "t": 197065.625,
      "d": 40.625,
      "v": 75
    },
    {
      "midi": 54,
      "hit": false,
      "t": 197065.625,
      "d": 78.125,
      "v": 74
    },
    {
      "midi": 72,
      "hit": false,
      "t": 197081.25,
      "d": 115.625,
      "v": 80
    },
    {
      "midi": 74,
      "hit": false,
      "t": 197262.5,
      "d": 103.125,
      "v": 71
    },
    {
      "midi": 38,
      "hit": false,
      "t": 197440.625,
      "d": 40.625,
      "v": 84
    },
    {
      "midi": 66,
      "hit": false,
      "t": 197450,
      "d": 100,
      "v": 67
    },
    {
      "midi": 76,
      "hit": false,
      "t": 197450,
      "d": 225,
      "v": 86
    },
    {
      "midi": 54,
      "hit": false,
      "t": 197815.625,
      "d": 50,
      "v": 65
    },
    {
      "midi": 60,
      "hit": false,
      "t": 197815.625,
      "d": 50,
      "v": 57
    },
    {
      "midi": 66,
      "hit": false,
      "t": 197821.875,
      "d": 53.125,
      "v": 75
    },
    {
      "midi": 72,
      "hit": false,
      "t": 197843.75,
      "d": 46.875,
      "v": 61
    },
    {
      "midi": 74,
      "hit": false,
      "t": 197846.875,
      "d": 43.75,
      "v": 56
    },
    {
      "midi": 79,
      "hit": false,
      "t": 198203.125,
      "d": 225,
      "v": 83
    },
    {
      "midi": 71,
      "hit": false,
      "t": 198209.375,
      "d": 275,
      "v": 55
    },
    {
      "midi": 43,
      "hit": false,
      "t": 198212.5,
      "d": 68.75,
      "v": 84
    },
    {
      "midi": 67,
      "hit": false,
      "t": 198212.5,
      "d": 212.5,
      "v": 76
    },
    {
      "midi": 55,
      "hit": false,
      "t": 198215.625,
      "d": 109.375,
      "v": 85
    },
    {
      "midi": 74,
      "hit": false,
      "t": 198225,
      "d": 243.75,
      "v": 63
    },
    {
      "midi": 52,
      "hit": false,
      "t": 198612.5,
      "d": 118.75,
      "v": 85
    },
    {
      "midi": 64,
      "hit": false,
      "t": 198612.5,
      "d": 190.625,
      "v": 92
    },
    {
      "midi": 67,
      "hit": false,
      "t": 198615.625,
      "d": 196.875,
      "v": 83
    },
    {
      "midi": 72,
      "hit": false,
      "t": 198753.125,
      "d": 134.375,
      "v": 84
    },
    {
      "midi": 79,
      "hit": false,
      "t": 198875,
      "d": 81.25,
      "v": 94
    },
    {
      "midi": 63,
      "hit": false,
      "t": 198978.125,
      "d": 190.625,
      "v": 115
    },
    {
      "midi": 51,
      "hit": false,
      "t": 198981.25,
      "d": 212.5,
      "v": 101
    },
    {
      "midi": 69,
      "hit": false,
      "t": 198987.5,
      "d": 175,
      "v": 110
    },
    {
      "midi": 72,
      "hit": false,
      "t": 199084.375,
      "d": 162.5,
      "v": 100
    },
    {
      "midi": 81,
      "hit": false,
      "t": 199237.5,
      "d": 100,
      "v": 104
    },
    {
      "midi": 62,
      "hit": false,
      "t": 199346.875,
      "d": 143.75,
      "v": 117
    },
    {
      "midi": 50,
      "hit": false,
      "t": 199356.25,
      "d": 150,
      "v": 105
    },
    {
      "midi": 71,
      "hit": false,
      "t": 199359.375,
      "d": 175,
      "v": 100
    },
    {
      "midi": 74,
      "hit": false,
      "t": 199465.625,
      "d": 140.625,
      "v": 103
    },
    {
      "midi": 83,
      "hit": false,
      "t": 199581.25,
      "d": 62.5,
      "v": 86
    },
    {
      "midi": 55,
      "hit": false,
      "t": 199590.625,
      "d": 53.125,
      "v": 75
    },
    {
      "midi": 84,
      "hit": false,
      "t": 199718.75,
      "d": 181.25,
      "v": 99
    },
    {
      "midi": 60,
      "hit": false,
      "t": 199728.125,
      "d": 150,
      "v": 107
    },
    {
      "midi": 48,
      "hit": false,
      "t": 199737.5,
      "d": 100,
      "v": 98
    },
    {
      "midi": 83,
      "hit": false,
      "t": 199746.875,
      "d": 140.625,
      "v": 62
    },
    {
      "midi": 72,
      "hit": false,
      "t": 199750,
      "d": 62.5,
      "v": 70
    },
    {
      "midi": 76,
      "hit": false,
      "t": 199762.5,
      "d": 43.75,
      "v": 65
    },
    {
      "midi": 76,
      "hit": false,
      "t": 199921.875,
      "d": 140.625,
      "v": 83
    },
    {
      "midi": 79,
      "hit": false,
      "t": 200084.375,
      "d": 115.625,
      "v": 93
    },
    {
      "midi": 60,
      "hit": false,
      "t": 200100,
      "d": 56.25,
      "v": 90
    },
    {
      "midi": 64,
      "hit": false,
      "t": 200112.5,
      "d": 37.5,
      "v": 85
    },
    {
      "midi": 55,
      "hit": false,
      "t": 200115.625,
      "d": 81.25,
      "v": 83
    },
    {
      "midi": 69,
      "hit": false,
      "t": 200303.125,
      "d": 246.875,
      "v": 110
    },
    {
      "midi": 79,
      "hit": false,
      "t": 200303.125,
      "d": 268.75,
      "v": 91
    },
    {
      "midi": 81,
      "hit": false,
      "t": 200303.125,
      "d": 290.625,
      "v": 107
    },
    {
      "midi": 76,
      "hit": false,
      "t": 200309.375,
      "d": 306.25,
      "v": 106
    },
    {
      "midi": 48,
      "hit": false,
      "t": 200468.75,
      "d": 112.5,
      "v": 102
    },
    {
      "midi": 60,
      "hit": false,
      "t": 200471.875,
      "d": 171.875,
      "v": 110
    },
    {
      "midi": 79,
      "hit": false,
      "t": 200687.5,
      "d": 134.375,
      "v": 90
    },
    {
      "midi": 55,
      "hit": false,
      "t": 200703.125,
      "d": 118.75,
      "v": 87
    },
    {
      "midi": 70,
      "hit": false,
      "t": 200850,
      "d": 162.5,
      "v": 121
    },
    {
      "midi": 82,
      "hit": false,
      "t": 200853.125,
      "d": 171.875,
      "v": 118
    },
    {
      "midi": 61,
      "hit": false,
      "t": 200856.25,
      "d": 131.25,
      "v": 116
    },
    {
      "midi": 49,
      "hit": false,
      "t": 200859.375,
      "d": 178.125,
      "v": 95
    },
    {
      "midi": 79,
      "hit": false,
      "t": 201059.375,
      "d": 493.75,
      "v": 94
    },
    {
      "midi": 55,
      "hit": false,
      "t": 201062.5,
      "d": 112.5,
      "v": 79
    },
    {
      "midi": 83,
      "hit": false,
      "t": 201231.25,
      "d": 275,
      "v": 103
    },
    {
      "midi": 71,
      "hit": false,
      "t": 201231.25,
      "d": 415.625,
      "v": 93
    },
    {
      "midi": 50,
      "hit": false,
      "t": 201237.5,
      "d": 71.875,
      "v": 95
    },
    {
      "midi": 62,
      "hit": false,
      "t": 201237.5,
      "d": 118.75,
      "v": 109
    },
    {
      "midi": 77,
      "hit": false,
      "t": 201468.75,
      "d": 125,
      "v": 73
    },
    {
      "midi": 65,
      "hit": false,
      "t": 201615.625,
      "d": 43.75,
      "v": 63
    },
    {
      "midi": 59,
      "hit": false,
      "t": 201615.625,
      "d": 96.875,
      "v": 72
    },
    {
      "midi": 79,
      "hit": false,
      "t": 201628.125,
      "d": 156.25,
      "v": 89
    },
    {
      "midi": 62,
      "hit": false,
      "t": 201631.25,
      "d": 50,
      "v": 56
    },
    {
      "midi": 69,
      "hit": false,
      "t": 201831.25,
      "d": 346.875,
      "v": 114
    },
    {
      "midi": 81,
      "hit": false,
      "t": 201831.25,
      "d": 415.625,
      "v": 115
    },
    {
      "midi": 43,
      "hit": false,
      "t": 202000,
      "d": 96.875,
      "v": 92
    },
    {
      "midi": 79,
      "hit": false,
      "t": 202193.75,
      "d": 137.5,
      "v": 101
    },
    {
      "midi": 71,
      "hit": false,
      "t": 202375,
      "d": 187.5,
      "v": 102
    },
    {
      "midi": 83,
      "hit": false,
      "t": 202375,
      "d": 237.5,
      "v": 107
    },
    {
      "midi": 65,
      "hit": false,
      "t": 202381.25,
      "d": 43.75,
      "v": 101
    },
    {
      "midi": 55,
      "hit": false,
      "t": 202393.75,
      "d": 81.25,
      "v": 83
    },
    {
      "midi": 59,
      "hit": false,
      "t": 202400,
      "d": 93.75,
      "v": 77
    },
    {
      "midi": 79,
      "hit": false,
      "t": 202568.75,
      "d": 131.25,
      "v": 94
    },
    {
      "midi": 72,
      "hit": false,
      "t": 202743.75,
      "d": 303.125,
      "v": 115
    },
    {
      "midi": 84,
      "hit": false,
      "t": 202746.875,
      "d": 268.75,
      "v": 115
    },
    {
      "midi": 48,
      "hit": false,
      "t": 202759.375,
      "d": 87.5,
      "v": 95
    },
    {
      "midi": 55,
      "hit": false,
      "t": 202762.5,
      "d": 121.875,
      "v": 87
    },
    {
      "midi": 76,
      "hit": false,
      "t": 202943.75,
      "d": 268.75,
      "v": 98
    },
    {
      "midi": 60,
      "hit": false,
      "t": 203121.875,
      "d": 40.625,
      "v": 70
    },
    {
      "midi": 64,
      "hit": false,
      "t": 203121.875,
      "d": 43.75,
      "v": 64
    },
    {
      "midi": 55,
      "hit": false,
      "t": 203121.875,
      "d": 62.5,
      "v": 71
    },
    {
      "midi": 79,
      "hit": false,
      "t": 203121.875,
      "d": 103.125,
      "v": 90
    },
    {
      "midi": 81,
      "hit": false,
      "t": 203312.5,
      "d": 356.25,
      "v": 119
    },
    {
      "midi": 69,
      "hit": false,
      "t": 203312.5,
      "d": 400,
      "v": 119
    },
    {
      "midi": 60,
      "hit": false,
      "t": 203481.25,
      "d": 203.125,
      "v": 108
    },
    {
      "midi": 48,
      "hit": false,
      "t": 203487.5,
      "d": 106.25,
      "v": 97
    },
    {
      "midi": 79,
      "hit": false,
      "t": 203671.875,
      "d": 246.875,
      "v": 90
    },
    {
      "midi": 55,
      "hit": false,
      "t": 203703.125,
      "d": 218.75,
      "v": 78
    },
    {
      "midi": 70,
      "hit": false,
      "t": 203843.75,
      "d": 175,
      "v": 121
    },
    {
      "midi": 82,
      "hit": false,
      "t": 203846.875,
      "d": 200,
      "v": 116
    },
    {
      "midi": 61,
      "hit": false,
      "t": 203850,
      "d": 134.375,
      "v": 114
    },
    {
      "midi": 49,
      "hit": false,
      "t": 203856.25,
      "d": 143.75,
      "v": 95
    },
    {
      "midi": 79,
      "hit": false,
      "t": 204037.5,
      "d": 153.125,
      "v": 68
    },
    {
      "midi": 55,
      "hit": false,
      "t": 204043.75,
      "d": 128.125,
      "v": 67
    },
    {
      "midi": 71,
      "hit": false,
      "t": 204225,
      "d": 350,
      "v": 94
    },
    {
      "midi": 50,
      "hit": false,
      "t": 204228.125,
      "d": 103.125,
      "v": 100
    },
    {
      "midi": 83,
      "hit": false,
      "t": 204228.125,
      "d": 153.125,
      "v": 95
    },
    {
      "midi": 62,
      "hit": false,
      "t": 204231.25,
      "d": 125,
      "v": 111
    },
    {
      "midi": 77,
      "hit": false,
      "t": 204443.75,
      "d": 178.125,
      "v": 89
    },
    {
      "midi": 65,
      "hit": false,
      "t": 204590.625,
      "d": 50,
      "v": 92
    },
    {
      "midi": 62,
      "hit": false,
      "t": 204609.375,
      "d": 40.625,
      "v": 78
    },
    {
      "midi": 59,
      "hit": false,
      "t": 204609.375,
      "d": 103.125,
      "v": 71
    },
    {
      "midi": 79,
      "hit": false,
      "t": 204609.375,
      "d": 134.375,
      "v": 88
    },
    {
      "midi": 81,
      "hit": false,
      "t": 204796.875,
      "d": 328.125,
      "v": 115
    },
    {
      "midi": 69,
      "hit": false,
      "t": 204800,
      "d": 300,
      "v": 111
    },
    {
      "midi": 43,
      "hit": false,
      "t": 204968.75,
      "d": 103.125,
      "v": 108
    },
    {
      "midi": 79,
      "hit": false,
      "t": 205187.5,
      "d": 103.125,
      "v": 95
    },
    {
      "midi": 65,
      "hit": false,
      "t": 205350,
      "d": 43.75,
      "v": 100
    },
    {
      "midi": 83,
      "hit": false,
      "t": 205350,
      "d": 162.5,
      "v": 95
    },
    {
      "midi": 59,
      "hit": false,
      "t": 205356.25,
      "d": 87.5,
      "v": 84
    },
    {
      "midi": 71,
      "hit": false,
      "t": 205356.25,
      "d": 125,
      "v": 86
    },
    {
      "midi": 62,
      "hit": false,
      "t": 205368.75,
      "d": 31.25,
      "v": 84
    },
    {
      "midi": 79,
      "hit": false,
      "t": 205559.375,
      "d": 106.25,
      "v": 96
    },
    {
      "midi": 72,
      "hit": false,
      "t": 205737.5,
      "d": 265.625,
      "v": 115
    },
    {
      "midi": 84,
      "hit": false,
      "t": 205740.625,
      "d": 400,
      "v": 117
    },
    {
      "midi": 48,
      "hit": false,
      "t": 205743.75,
      "d": 103.125,
      "v": 106
    },
    {
      "midi": 60,
      "hit": false,
      "t": 205743.75,
      "d": 150,
      "v": 113
    },
    {
      "midi": 76,
      "hit": false,
      "t": 205934.375,
      "d": 100,
      "v": 100
    },
    {
      "midi": 64,
      "hit": false,
      "t": 206109.375,
      "d": 59.375,
      "v": 105
    },
    {
      "midi": 79,
      "hit": false,
      "t": 206109.375,
      "d": 168.75,
      "v": 99
    },
    {
      "midi": 55,
      "hit": false,
      "t": 206115.625,
      "d": 84.375,
      "v": 98
    },
    {
      "midi": 60,
      "hit": false,
      "t": 206118.75,
      "d": 56.25,
      "v": 100
    },
    {
      "midi": 79,
      "hit": false,
      "t": 206306.25,
      "d": 296.875,
      "v": 81
    },
    {
      "midi": 72,
      "hit": false,
      "t": 206306.25,
      "d": 312.5,
      "v": 118
    },
    {
      "midi": 84,
      "hit": false,
      "t": 206306.25,
      "d": 318.75,
      "v": 114
    },
    {
      "midi": 58,
      "hit": false,
      "t": 206493.75,
      "d": 84.375,
      "v": 124
    },
    {
      "midi": 46,
      "hit": false,
      "t": 206493.75,
      "d": 100,
      "v": 121
    },
    {
      "midi": 79,
      "hit": false,
      "t": 206700,
      "d": 100,
      "v": 96
    },
    {
      "midi": 72,
      "hit": false,
      "t": 206862.5,
      "d": 162.5,
      "v": 117
    },
    {
      "midi": 84,
      "hit": false,
      "t": 206862.5,
      "d": 243.75,
      "v": 118
    },
    {
      "midi": 64,
      "hit": false,
      "t": 206871.875,
      "d": 46.875,
      "v": 107
    },
    {
      "midi": 58,
      "hit": false,
      "t": 206871.875,
      "d": 96.875,
      "v": 107
    },
    {
      "midi": 60,
      "hit": false,
      "t": 206875,
      "d": 40.625,
      "v": 96
    },
    {
      "midi": 79,
      "hit": false,
      "t": 207075,
      "d": 112.5,
      "v": 103
    },
    {
      "midi": 72,
      "hit": false,
      "t": 207243.75,
      "d": 265.625,
      "v": 119
    },
    {
      "midi": 84,
      "hit": false,
      "t": 207243.75,
      "d": 281.25,
      "v": 120
    },
    {
      "midi": 45,
      "hit": false,
      "t": 207253.125,
      "d": 106.25,
      "v": 105
    },
    {
      "midi": 57,
      "hit": false,
      "t": 207253.125,
      "d": 115.625,
      "v": 108
    },
    {
      "midi": 77,
      "hit": false,
      "t": 207437.5,
      "d": 109.375,
      "v": 105
    },
    {
      "midi": 65,
      "hit": false,
      "t": 207609.375,
      "d": 40.625,
      "v": 107
    },
    {
      "midi": 81,
      "hit": false,
      "t": 207609.375,
      "d": 90.625,
      "v": 105
    },
    {
      "midi": 60,
      "hit": false,
      "t": 207615.625,
      "d": 96.875,
      "v": 89
    },
    {
      "midi": 57,
      "hit": false,
      "t": 207615.625,
      "d": 121.875,
      "v": 99
    },
    {
      "midi": 72,
      "hit": false,
      "t": 207821.875,
      "d": 303.125,
      "v": 124
    },
    {
      "midi": 84,
      "hit": false,
      "t": 207821.875,
      "d": 306.25,
      "v": 124
    },
    {
      "midi": 42,
      "hit": false,
      "t": 207993.75,
      "d": 106.25,
      "v": 103
    },
    {
      "midi": 51,
      "hit": false,
      "t": 207993.75,
      "d": 109.375,
      "v": 109
    },
    {
      "midi": 81,
      "hit": false,
      "t": 208196.875,
      "d": 112.5,
      "v": 108
    },
    {
      "midi": 63,
      "hit": false,
      "t": 208362.5,
      "d": 56.25,
      "v": 110
    },
    {
      "midi": 60,
      "hit": false,
      "t": 208365.625,
      "d": 37.5,
      "v": 101
    },
    {
      "midi": 72,
      "hit": false,
      "t": 208365.625,
      "d": 81.25,
      "v": 119
    },
    {
      "midi": 84,
      "hit": false,
      "t": 208365.625,
      "d": 96.875,
      "v": 116
    },
    {
      "midi": 54,
      "hit": false,
      "t": 208371.875,
      "d": 106.25,
      "v": 95
    },
    {
      "midi": 43,
      "hit": false,
      "t": 208759.375,
      "d": 81.25,
      "v": 103
    },
    {
      "midi": 79,
      "hit": false,
      "t": 208759.375,
      "d": 137.5,
      "v": 115
    },
    {
      "midi": 67,
      "hit": false,
      "t": 208759.375,
      "d": 253.125,
      "v": 116
    },
    {
      "midi": 52,
      "hit": false,
      "t": 208765.625,
      "d": 96.875,
      "v": 101
    },
    {
      "midi": 72,
      "hit": false,
      "t": 208946.875,
      "d": 65.625,
      "v": 83
    },
    {
      "midi": 60,
      "hit": false,
      "t": 209112.5,
      "d": 40.625,
      "v": 88
    },
    {
      "midi": 64,
      "hit": false,
      "t": 209115.625,
      "d": 34.375,
      "v": 83
    },
    {
      "midi": 55,
      "hit": false,
      "t": 209115.625,
      "d": 103.125,
      "v": 95
    },
    {
      "midi": 76,
      "hit": false,
      "t": 209131.25,
      "d": 100,
      "v": 100
    },
    {
      "midi": 77,
      "hit": false,
      "t": 209312.5,
      "d": 187.5,
      "v": 111
    },
    {
      "midi": 65,
      "hit": false,
      "t": 209312.5,
      "d": 281.25,
      "v": 107
    },
    {
      "midi": 43,
      "hit": false,
      "t": 209468.75,
      "d": 81.25,
      "v": 105
    },
    {
      "midi": 69,
      "hit": false,
      "t": 209675,
      "d": 43.75,
      "v": 98
    },
    {
      "midi": 53,
      "hit": false,
      "t": 209843.75,
      "d": 100,
      "v": 87
    },
    {
      "midi": 59,
      "hit": false,
      "t": 209843.75,
      "d": 103.125,
      "v": 93
    },
    {
      "midi": 72,
      "hit": false,
      "t": 209865.625,
      "d": 90.625,
      "v": 89
    },
    {
      "midi": 55,
      "hit": false,
      "t": 210037.5,
      "d": 131.25,
      "v": 100
    },
    {
      "midi": 64,
      "hit": false,
      "t": 210206.25,
      "d": 93.75,
      "v": 111
    },
    {
      "midi": 72,
      "hit": false,
      "t": 210206.25,
      "d": 106.25,
      "v": 113
    },
    {
      "midi": 60,
      "hit": false,
      "t": 210212.5,
      "d": 131.25,
      "v": 123
    },
    {
      "midi": 48,
      "hit": false,
      "t": 210215.625,
      "d": 84.375,
      "v": 113
    },
    {
      "midi": 84,
      "hit": false,
      "t": 210603.125,
      "d": 171.875,
      "v": 117
    },
    {
      "midi": 91,
      "hit": false,
      "t": 210603.125,
      "d": 228.125,
      "v": 120
    },
    {
      "midi": 79,
      "hit": false,
      "t": 210606.25,
      "d": 165.625,
      "v": 116
    },
    {
      "midi": 52,
      "hit": false,
      "t": 210609.375,
      "d": 140.625,
      "v": 110
    },
    {
      "midi": 64,
      "hit": false,
      "t": 210612.5,
      "d": 125,
      "v": 114
    },
    {
      "midi": 62,
      "hit": false,
      "t": 210646.875,
      "d": 46.875,
      "v": 65
    },
    {
      "midi": 84,
      "hit": false,
      "t": 210812.5,
      "d": 50,
      "v": 34
    },
    {
      "midi": 57,
      "hit": false,
      "t": 210825,
      "d": 121.875,
      "v": 91
    },
    {
      "midi": 84,
      "hit": false,
      "t": 210978.125,
      "d": 128.125,
      "v": 113
    },
    {
      "midi": 81,
      "hit": false,
      "t": 210981.25,
      "d": 121.875,
      "v": 119
    },
    {
      "midi": 93,
      "hit": false,
      "t": 210981.25,
      "d": 159.375,
      "v": 123
    },
    {
      "midi": 63,
      "hit": false,
      "t": 210987.5,
      "d": 106.25,
      "v": 114
    },
    {
      "midi": 51,
      "hit": false,
      "t": 210987.5,
      "d": 178.125,
      "v": 103
    },
    {
      "midi": 57,
      "hit": false,
      "t": 211187.5,
      "d": 93.75,
      "v": 87
    },
    {
      "midi": 62,
      "hit": false,
      "t": 211346.875,
      "d": 128.125,
      "v": 123
    },
    {
      "midi": 50,
      "hit": false,
      "t": 211356.25,
      "d": 137.5,
      "v": 116
    },
    {
      "midi": 95,
      "hit": false,
      "t": 211356.25,
      "d": 150,
      "v": 113
    },
    {
      "midi": 83,
      "hit": false,
      "t": 211362.5,
      "d": 137.5,
      "v": 111
    },
    {
      "midi": 55,
      "hit": false,
      "t": 211553.125,
      "d": 131.25,
      "v": 98
    },
    {
      "midi": 60,
      "hit": false,
      "t": 211743.75,
      "d": 140.625,
      "v": 116
    },
    {
      "midi": 96,
      "hit": false,
      "t": 211743.75,
      "d": 287.5,
      "v": 123
    },
    {
      "midi": 48,
      "hit": false,
      "t": 211746.875,
      "d": 87.5,
      "v": 113
    },
    {
      "midi": 84,
      "hit": false,
      "t": 211746.875,
      "d": 271.875,
      "v": 124
    },
    {
      "midi": 88,
      "hit": false,
      "t": 211937.5,
      "d": 125,
      "v": 99
    },
    {
      "midi": 61,
      "hit": false,
      "t": 211996.875,
      "d": 75,
      "v": 30
    },
    {
      "midi": 64,
      "hit": false,
      "t": 212115.625,
      "d": 40.625,
      "v": 80
    },
    {
      "midi": 60,
      "hit": false,
      "t": 212118.75,
      "d": 37.5,
      "v": 87
    },
    {
      "midi": 55,
      "hit": false,
      "t": 212118.75,
      "d": 84.375,
      "v": 92
    },
    {
      "midi": 91,
      "hit": false,
      "t": 212140.625,
      "d": 40.625,
      "v": 94
    },
    {
      "midi": 42,
      "hit": false,
      "t": 212321.875,
      "d": 78.125,
      "v": 34
    },
    {
      "midi": 93,
      "hit": false,
      "t": 212325,
      "d": 281.25,
      "v": 123
    },
    {
      "midi": 81,
      "hit": false,
      "t": 212331.25,
      "d": 265.625,
      "v": 117
    },
    {
      "midi": 88,
      "hit": false,
      "t": 212331.25,
      "d": 303.125,
      "v": 119
    },
    {
      "midi": 36,
      "hit": false,
      "t": 212484.375,
      "d": 140.625,
      "v": 114
    },
    {
      "midi": 48,
      "hit": false,
      "t": 212487.5,
      "d": 231.25,
      "v": 111
    },
    {
      "midi": 91,
      "hit": false,
      "t": 212696.875,
      "d": 140.625,
      "v": 94
    },
    {
      "midi": 49,
      "hit": false,
      "t": 212859.375,
      "d": 150,
      "v": 120
    },
    {
      "midi": 82,
      "hit": false,
      "t": 212862.5,
      "d": 168.75,
      "v": 118
    },
    {
      "midi": 92,
      "hit": false,
      "t": 212868.75,
      "d": 100,
      "v": 83
    },
    {
      "midi": 37,
      "hit": false,
      "t": 212868.75,
      "d": 137.5,
      "v": 105
    },
    {
      "midi": 94,
      "hit": false,
      "t": 212868.75,
      "d": 140.625,
      "v": 106
    },
    {
      "midi": 95,
      "hit": false,
      "t": 212893.75,
      "d": 25,
      "v": 86
    },
    {
      "midi": 91,
      "hit": false,
      "t": 213062.5,
      "d": 118.75,
      "v": 86
    },
    {
      "midi": 43,
      "hit": false,
      "t": 213062.5,
      "d": 146.875,
      "v": 90
    },
    {
      "midi": 38,
      "hit": false,
      "t": 213237.5,
      "d": 68.75,
      "v": 113
    },
    {
      "midi": 50,
      "hit": false,
      "t": 213243.75,
      "d": 109.375,
      "v": 114
    },
    {
      "midi": 95,
      "hit": false,
      "t": 213246.875,
      "d": 128.125,
      "v": 110
    },
    {
      "midi": 83,
      "hit": false,
      "t": 213250,
      "d": 278.125,
      "v": 108
    },
    {
      "midi": 86,
      "hit": false,
      "t": 213450,
      "d": 115.625,
      "v": 96
    },
    {
      "midi": 65,
      "hit": false,
      "t": 213600,
      "d": 34.375,
      "v": 106
    },
    {
      "midi": 62,
      "hit": false,
      "t": 213609.375,
      "d": 34.375,
      "v": 95
    },
    {
      "midi": 59,
      "hit": false,
      "t": 213609.375,
      "d": 96.875,
      "v": 90
    },
    {
      "midi": 89,
      "hit": false,
      "t": 213625,
      "d": 121.875,
      "v": 101
    },
    {
      "midi": 93,
      "hit": false,
      "t": 213806.25,
      "d": 328.125,
      "v": 123
    },
    {
      "midi": 89,
      "hit": false,
      "t": 213809.375,
      "d": 312.5,
      "v": 114
    },
    {
      "midi": 83,
      "hit": false,
      "t": 213809.375,
      "d": 318.75,
      "v": 111
    },
    {
      "midi": 81,
      "hit": false,
      "t": 213809.375,
      "d": 321.875,
      "v": 120
    },
    {
      "midi": 86,
      "hit": false,
      "t": 213812.5,
      "d": 300,
      "v": 111
    },
    {
      "midi": 88,
      "hit": false,
      "t": 213843.75,
      "d": 34.375,
      "v": 80
    },
    {
      "midi": 31,
      "hit": false,
      "t": 213981.25,
      "d": 71.875,
      "v": 106
    },
    {
      "midi": 91,
      "hit": false,
      "t": 214196.875,
      "d": 128.125,
      "v": 103
    },
    {
      "midi": 86,
      "hit": false,
      "t": 214359.375,
      "d": 128.125,
      "v": 111
    },
    {
      "midi": 95,
      "hit": false,
      "t": 214359.375,
      "d": 181.25,
      "v": 103
    },
    {
      "midi": 83,
      "hit": false,
      "t": 214365.625,
      "d": 153.125,
      "v": 99
    },
    {
      "midi": 65,
      "hit": false,
      "t": 214368.75,
      "d": 40.625,
      "v": 101
    },
    {
      "midi": 56,
      "hit": false,
      "t": 214371.875,
      "d": 68.75,
      "v": 34
    },
    {
      "midi": 59,
      "hit": false,
      "t": 214378.125,
      "d": 84.375,
      "v": 84
    },
    {
      "midi": 55,
      "hit": false,
      "t": 214381.25,
      "d": 115.625,
      "v": 90
    },
    {
      "midi": 89,
      "hit": false,
      "t": 214387.5,
      "d": 56.25,
      "v": 90
    },
    {
      "midi": 67,
      "hit": false,
      "t": 214396.875,
      "d": 71.875,
      "v": 46
    },
    {
      "midi": 91,
      "hit": false,
      "t": 214415.625,
      "d": 65.625,
      "v": 51
    },
    {
      "midi": 91,
      "hit": false,
      "t": 214568.75,
      "d": 84.375,
      "v": 82
    },
    {
      "midi": 43,
      "hit": false,
      "t": 214606.25,
      "d": 131.25,
      "v": 91
    },
    {
      "midi": 36,
      "hit": false,
      "t": 214750,
      "d": 68.75,
      "v": 115
    },
    {
      "midi": 96,
      "hit": false,
      "t": 214750,
      "d": 106.25,
      "v": 117
    },
    {
      "midi": 48,
      "hit": false,
      "t": 214750,
      "d": 134.375,
      "v": 107
    },
    {
      "midi": 84,
      "hit": false,
      "t": 214753.125,
      "d": 253.125,
      "v": 121
    },
    {
      "midi": 88,
      "hit": false,
      "t": 214943.75,
      "d": 109.375,
      "v": 106
    },
    {
      "midi": 64,
      "hit": false,
      "t": 215112.5,
      "d": 28.125,
      "v": 100
    },
    {
      "midi": 91,
      "hit": false,
      "t": 215118.75,
      "d": 90.625,
      "v": 105
    },
    {
      "midi": 60,
      "hit": false,
      "t": 215125,
      "d": 31.25,
      "v": 94
    },
    {
      "midi": 55,
      "hit": false,
      "t": 215125,
      "d": 93.75,
      "v": 90
    },
    {
      "midi": 57,
      "hit": false,
      "t": 215150,
      "d": 46.875,
      "v": 54
    },
    {
      "midi": 93,
      "hit": false,
      "t": 215318.75,
      "d": 296.875,
      "v": 121
    },
    {
      "midi": 88,
      "hit": false,
      "t": 215321.875,
      "d": 300,
      "v": 117
    },
    {
      "midi": 81,
      "hit": false,
      "t": 215331.25,
      "d": 40.625,
      "v": 110
    },
    {
      "midi": 81,
      "hit": false,
      "t": 215403.125,
      "d": 178.125,
      "v": 35
    },
    {
      "midi": 36,
      "hit": false,
      "t": 215481.25,
      "d": 143.75,
      "v": 113
    },
    {
      "midi": 48,
      "hit": false,
      "t": 215481.25,
      "d": 262.5,
      "v": 113
    },
    {
      "midi": 91,
      "hit": false,
      "t": 215696.875,
      "d": 134.375,
      "v": 96
    },
    {
      "midi": 90,
      "hit": false,
      "t": 215728.125,
      "d": 53.125,
      "v": 35
    },
    {
      "midi": 49,
      "hit": false,
      "t": 215850,
      "d": 137.5,
      "v": 121
    },
    {
      "midi": 82,
      "hit": false,
      "t": 215850,
      "d": 156.25,
      "v": 119
    },
    {
      "midi": 94,
      "hit": false,
      "t": 215850,
      "d": 156.25,
      "v": 115
    },
    {
      "midi": 88,
      "hit": false,
      "t": 215859.375,
      "d": 128.125,
      "v": 103
    },
    {
      "midi": 37,
      "hit": false,
      "t": 215862.5,
      "d": 109.375,
      "v": 104
    },
    {
      "midi": 43,
      "hit": false,
      "t": 216043.75,
      "d": 146.875,
      "v": 83
    },
    {
      "midi": 91,
      "hit": false,
      "t": 216050,
      "d": 112.5,
      "v": 94
    },
    {
      "midi": 38,
      "hit": false,
      "t": 216215.625,
      "d": 65.625,
      "v": 103
    },
    {
      "midi": 50,
      "hit": false,
      "t": 216225,
      "d": 96.875,
      "v": 103
    },
    {
      "midi": 95,
      "hit": false,
      "t": 216225,
      "d": 140.625,
      "v": 111
    },
    {
      "midi": 83,
      "hit": false,
      "t": 216225,
      "d": 287.5,
      "v": 107
    },
    {
      "midi": 48,
      "hit": false,
      "t": 216237.5,
      "d": 40.625,
      "v": 80
    },
    {
      "midi": 89,
      "hit": false,
      "t": 216415.625,
      "d": 96.875,
      "v": 103
    },
    {
      "midi": 65,
      "hit": false,
      "t": 216581.25,
      "d": 43.75,
      "v": 98
    },
    {
      "midi": 62,
      "hit": false,
      "t": 216587.5,
      "d": 40.625,
      "v": 92
    },
    {
      "midi": 59,
      "hit": false,
      "t": 216587.5,
      "d": 84.375,
      "v": 88
    },
    {
      "midi": 91,
      "hit": false,
      "t": 216590.625,
      "d": 115.625,
      "v": 104
    },
    {
      "midi": 93,
      "hit": false,
      "t": 216771.875,
      "d": 296.875,
      "v": 119
    },
    {
      "midi": 89,
      "hit": false,
      "t": 216781.25,
      "d": 278.125,
      "v": 110
    },
    {
      "midi": 83,
      "hit": false,
      "t": 216781.25,
      "d": 293.75,
      "v": 94
    },
    {
      "midi": 86,
      "hit": false,
      "t": 216784.375,
      "d": 271.875,
      "v": 106
    },
    {
      "midi": 81,
      "hit": false,
      "t": 216784.375,
      "d": 290.625,
      "v": 106
    },
    {
      "midi": 43,
      "hit": false,
      "t": 216937.5,
      "d": 81.25,
      "v": 98
    },
    {
      "midi": 53,
      "hit": false,
      "t": 216943.75,
      "d": 109.375,
      "v": 96
    },
    {
      "midi": 91,
      "hit": false,
      "t": 217175,
      "d": 93.75,
      "v": 69
    },
    {
      "midi": 93,
      "hit": false,
      "t": 217184.375,
      "d": 37.5,
      "v": 82
    },
    {
      "midi": 65,
      "hit": false,
      "t": 217312.5,
      "d": 37.5,
      "v": 104
    },
    {
      "midi": 59,
      "hit": false,
      "t": 217318.75,
      "d": 78.125,
      "v": 90
    },
    {
      "midi": 95,
      "hit": false,
      "t": 217328.125,
      "d": 178.125,
      "v": 104
    },
    {
      "midi": 62,
      "hit": false,
      "t": 217331.25,
      "d": 31.25,
      "v": 97
    },
    {
      "midi": 83,
      "hit": false,
      "t": 217331.25,
      "d": 115.625,
      "v": 96
    },
    {
      "midi": 86,
      "hit": false,
      "t": 217337.5,
      "d": 100,
      "v": 103
    },
    {
      "midi": 91,
      "hit": false,
      "t": 217525,
      "d": 59.375,
      "v": 95
    },
    {
      "midi": 36,
      "hit": false,
      "t": 217687.5,
      "d": 87.5,
      "v": 110
    },
    {
      "midi": 96,
      "hit": false,
      "t": 217690.625,
      "d": 381.25,
      "v": 120
    },
    {
      "midi": 48,
      "hit": false,
      "t": 217693.75,
      "d": 115.625,
      "v": 111
    },
    {
      "midi": 84,
      "hit": false,
      "t": 217693.75,
      "d": 259.375,
      "v": 122
    },
    {
      "midi": 88,
      "hit": false,
      "t": 217893.75,
      "d": 103.125,
      "v": 105
    },
    {
      "midi": 64,
      "hit": false,
      "t": 218053.125,
      "d": 50,
      "v": 104
    },
    {
      "midi": 60,
      "hit": false,
      "t": 218053.125,
      "d": 84.375,
      "v": 68
    },
    {
      "midi": 55,
      "hit": false,
      "t": 218062.5,
      "d": 96.875,
      "v": 92
    },
    {
      "midi": 58,
      "hit": false,
      "t": 218065.625,
      "d": 71.875,
      "v": 97
    },
    {
      "midi": 91,
      "hit": false,
      "t": 218068.75,
      "d": 106.25,
      "v": 98
    },
    {
      "midi": 96,
      "hit": false,
      "t": 218262.5,
      "d": 262.5,
      "v": 118
    },
    {
      "midi": 84,
      "hit": false,
      "t": 218265.625,
      "d": 275,
      "v": 116
    },
    {
      "midi": 88,
      "hit": false,
      "t": 218265.625,
      "d": 281.25,
      "v": 117
    },
    {
      "midi": 91,
      "hit": false,
      "t": 218265.625,
      "d": 281.25,
      "v": 102
    },
    {
      "midi": 58,
      "hit": false,
      "t": 218440.625,
      "d": 131.25,
      "v": 127
    },
    {
      "midi": 46,
      "hit": false,
      "t": 218443.75,
      "d": 103.125,
      "v": 123
    },
    {
      "midi": 91,
      "hit": false,
      "t": 218653.125,
      "d": 71.875,
      "v": 109
    },
    {
      "midi": 96,
      "hit": false,
      "t": 218815.625,
      "d": 143.75,
      "v": 118
    },
    {
      "midi": 64,
      "hit": false,
      "t": 218818.75,
      "d": 53.125,
      "v": 106
    },
    {
      "midi": 60,
      "hit": false,
      "t": 218818.75,
      "d": 56.25,
      "v": 103
    },
    {
      "midi": 58,
      "hit": false,
      "t": 218821.875,
      "d": 96.875,
      "v": 110
    },
    {
      "midi": 84,
      "hit": false,
      "t": 218821.875,
      "d": 112.5,
      "v": 115
    },
    {
      "midi": 91,
      "hit": false,
      "t": 219018.75,
      "d": 93.75,
      "v": 113
    },
    {
      "midi": 45,
      "hit": false,
      "t": 219193.75,
      "d": 81.25,
      "v": 109
    },
    {
      "midi": 57,
      "hit": false,
      "t": 219193.75,
      "d": 115.625,
      "v": 111
    },
    {
      "midi": 84,
      "hit": false,
      "t": 219193.75,
      "d": 115.625,
      "v": 119
    },
    {
      "midi": 96,
      "hit": false,
      "t": 219193.75,
      "d": 221.875,
      "v": 119
    },
    {
      "midi": 89,
      "hit": false,
      "t": 219384.375,
      "d": 109.375,
      "v": 105
    },
    {
      "midi": 65,
      "hit": false,
      "t": 219543.75,
      "d": 40.625,
      "v": 102
    },
    {
      "midi": 57,
      "hit": false,
      "t": 219553.125,
      "d": 81.25,
      "v": 97
    },
    {
      "midi": 60,
      "hit": false,
      "t": 219559.375,
      "d": 43.75,
      "v": 96
    },
    {
      "midi": 93,
      "hit": false,
      "t": 219559.375,
      "d": 115.625,
      "v": 107
    },
    {
      "midi": 96,
      "hit": false,
      "t": 219756.25,
      "d": 243.75,
      "v": 113
    },
    {
      "midi": 93,
      "hit": false,
      "t": 219759.375,
      "d": 246.875,
      "v": 97
    },
    {
      "midi": 89,
      "hit": false,
      "t": 219759.375,
      "d": 262.5,
      "v": 114
    },
    {
      "midi": 84,
      "hit": false,
      "t": 219765.625,
      "d": 259.375,
      "v": 103
    },
    {
      "midi": 41,
      "hit": false,
      "t": 219925,
      "d": 100,
      "v": 114
    },
    {
      "midi": 53,
      "hit": false,
      "t": 219925,
      "d": 115.625,
      "v": 108
    },
    {
      "midi": 93,
      "hit": false,
      "t": 220137.5,
      "d": 81.25,
      "v": 99
    },
    {
      "midi": 65,
      "hit": false,
      "t": 220284.375,
      "d": 28.125,
      "v": 104
    },
    {
      "midi": 57,
      "hit": false,
      "t": 220287.5,
      "d": 68.75,
      "v": 105
    },
    {
      "midi": 96,
      "hit": false,
      "t": 220290.625,
      "d": 31.25,
      "v": 107
    },
    {
      "midi": 93,
      "hit": false,
      "t": 220290.625,
      "d": 34.375,
      "v": 105
    },
    {
      "midi": 89,
      "hit": false,
      "t": 220290.625,
      "d": 43.75,
      "v": 112
    },
    {
      "midi": 84,
      "hit": false,
      "t": 220290.625,
      "d": 100,
      "v": 103
    },
    {
      "midi": 60,
      "hit": false,
      "t": 220306.25,
      "d": 31.25,
      "v": 85
    },
    {
      "midi": 86,
      "hit": false,
      "t": 220325,
      "d": 46.875,
      "v": 60
    },
    {
      "midi": 44,
      "hit": false,
      "t": 220481.25,
      "d": 175,
      "v": 67
    },
    {
      "midi": 36,
      "hit": false,
      "t": 220506.25,
      "d": 56.25,
      "v": 55
    },
    {
      "midi": 39,
      "hit": false,
      "t": 220512.5,
      "d": 53.125,
      "v": 44
    },
    {
      "midi": 38,
      "hit": false,
      "t": 220525,
      "d": 46.875,
      "v": 52
    },
    {
      "midi": 81,
      "hit": false,
      "t": 220668.75,
      "d": 78.125,
      "v": 117
    },
    {
      "midi": 88,
      "hit": false,
      "t": 220668.75,
      "d": 87.5,
      "v": 119
    },
    {
      "midi": 76,
      "hit": false,
      "t": 220684.375,
      "d": 31.25,
      "v": 104
    },
    {
      "midi": 51,
      "hit": false,
      "t": 220687.5,
      "d": 43.75,
      "v": 77
    },
    {
      "midi": 53,
      "hit": false,
      "t": 220712.5,
      "d": 43.75,
      "v": 67
    },
    {
      "midi": 42,
      "hit": false,
      "t": 220715.625,
      "d": 71.875,
      "v": 28
    },
    {
      "midi": 52,
      "hit": false,
      "t": 220725,
      "d": 43.75,
      "v": 54
    },
    {
      "midi": 86,
      "hit": false,
      "t": 220850,
      "d": 31.25,
      "v": 112
    },
    {
      "midi": 74,
      "hit": false,
      "t": 220868.75,
      "d": 31.25,
      "v": 97
    },
    {
      "midi": 40,
      "hit": false,
      "t": 221006.25,
      "d": 106.25,
      "v": 105
    },
    {
      "midi": 52,
      "hit": false,
      "t": 221006.25,
      "d": 165.625,
      "v": 110
    },
    {
      "midi": 84,
      "hit": false,
      "t": 221028.125,
      "d": 87.5,
      "v": 109
    },
    {
      "midi": 72,
      "hit": false,
      "t": 221034.375,
      "d": 40.625,
      "v": 99
    },
    {
      "midi": 78,
      "hit": false,
      "t": 221034.375,
      "d": 93.75,
      "v": 99
    },
    {
      "midi": 86,
      "hit": false,
      "t": 221206.25,
      "d": 90.625,
      "v": 111
    },
    {
      "midi": 45,
      "hit": false,
      "t": 221221.875,
      "d": 84.375,
      "v": 90
    },
    {
      "midi": 74,
      "hit": false,
      "t": 221225,
      "d": 37.5,
      "v": 83
    },
    {
      "midi": 53,
      "hit": false,
      "t": 221381.25,
      "d": 212.5,
      "v": 115
    },
    {
      "midi": 88,
      "hit": false,
      "t": 221387.5,
      "d": 150,
      "v": 114
    },
    {
      "midi": 41,
      "hit": false,
      "t": 221393.75,
      "d": 109.375,
      "v": 112
    },
    {
      "midi": 81,
      "hit": false,
      "t": 221396.875,
      "d": 118.75,
      "v": 103
    },
    {
      "midi": 76,
      "hit": false,
      "t": 221403.125,
      "d": 37.5,
      "v": 96
    },
    {
      "midi": 81,
      "hit": false,
      "t": 221593.75,
      "d": 90.625,
      "v": 97
    },
    {
      "midi": 86,
      "hit": false,
      "t": 221593.75,
      "d": 137.5,
      "v": 106
    },
    {
      "midi": 76,
      "hit": false,
      "t": 221606.25,
      "d": 37.5,
      "v": 98
    },
    {
      "midi": 54,
      "hit": false,
      "t": 221753.125,
      "d": 103.125,
      "v": 112
    },
    {
      "midi": 42,
      "hit": false,
      "t": 221756.25,
      "d": 125,
      "v": 97
    },
    {
      "midi": 86,
      "hit": false,
      "t": 221953.125,
      "d": 175,
      "v": 110
    },
    {
      "midi": 83,
      "hit": false,
      "t": 221953.125,
      "d": 178.125,
      "v": 97
    },
    {
      "midi": 91,
      "hit": false,
      "t": 221956.25,
      "d": 150,
      "v": 110
    },
    {
      "midi": 50,
      "hit": false,
      "t": 221962.5,
      "d": 65.625,
      "v": 83
    },
    {
      "midi": 79,
      "hit": false,
      "t": 221962.5,
      "d": 203.125,
      "v": 103
    },
    {
      "midi": 55,
      "hit": false,
      "t": 222109.375,
      "d": 90.625,
      "v": 122
    },
    {
      "midi": 43,
      "hit": false,
      "t": 222118.75,
      "d": 28.125,
      "v": 111
    },
    {
      "midi": 44,
      "hit": false,
      "t": 222143.75,
      "d": 62.5,
      "v": 46
    },
    {
      "midi": 56,
      "hit": false,
      "t": 222309.375,
      "d": 103.125,
      "v": 92
    },
    {
      "midi": 52,
      "hit": false,
      "t": 222321.875,
      "d": 40.625,
      "v": 63
    },
    {
      "midi": 53,
      "hit": false,
      "t": 222337.5,
      "d": 43.75,
      "v": 57
    },
    {
      "midi": 79,
      "hit": false,
      "t": 222475,
      "d": 265.625,
      "v": 111
    },
    {
      "midi": 72,
      "hit": false,
      "t": 222478.125,
      "d": 137.5,
      "v": 106
    },
    {
      "midi": 52,
      "hit": false,
      "t": 222478.125,
      "d": 171.875,
      "v": 99
    },
    {
      "midi": 76,
      "hit": false,
      "t": 222484.375,
      "d": 218.75,
      "v": 105
    },
    {
      "midi": 64,
      "hit": false,
      "t": 222487.5,
      "d": 203.125,
      "v": 117
    },
    {
      "midi": 62,
      "hit": false,
      "t": 222506.25,
      "d": 31.25,
      "v": 102
    },
    {
      "midi": 67,
      "hit": false,
      "t": 222600,
      "d": 143.75,
      "v": 105
    },
    {
      "midi": 57,
      "hit": false,
      "t": 222700,
      "d": 43.75,
      "v": 96
    },
    {
      "midi": 72,
      "hit": false,
      "t": 222706.25,
      "d": 62.5,
      "v": 80
    },
    {
      "midi": 63,
      "hit": false,
      "t": 222850,
      "d": 143.75,
      "v": 120
    },
    {
      "midi": 51,
      "hit": false,
      "t": 222850,
      "d": 218.75,
      "v": 110
    },
    {
      "midi": 81,
      "hit": false,
      "t": 222856.25,
      "d": 159.375,
      "v": 111
    },
    {
      "midi": 56,
      "hit": false,
      "t": 222862.5,
      "d": 56.25,
      "v": 52
    },
    {
      "midi": 72,
      "hit": false,
      "t": 222862.5,
      "d": 134.375,
      "v": 92
    },
    {
      "midi": 69,
      "hit": false,
      "t": 222981.25,
      "d": 128.125,
      "v": 91
    },
    {
      "midi": 72,
      "hit": false,
      "t": 223065.625,
      "d": 84.375,
      "v": 91
    },
    {
      "midi": 57,
      "hit": false,
      "t": 223065.625,
      "d": 103.125,
      "v": 98
    },
    {
      "midi": 62,
      "hit": false,
      "t": 223215.625,
      "d": 137.5,
      "v": 123
    },
    {
      "midi": 50,
      "hit": false,
      "t": 223221.875,
      "d": 137.5,
      "v": 117
    },
    {
      "midi": 83,
      "hit": false,
      "t": 223225,
      "d": 246.875,
      "v": 95
    },
    {
      "midi": 74,
      "hit": false,
      "t": 223228.125,
      "d": 134.375,
      "v": 113
    },
    {
      "midi": 71,
      "hit": false,
      "t": 223346.875,
      "d": 118.75,
      "v": 79
    },
    {
      "midi": 74,
      "hit": false,
      "t": 223425,
      "d": 56.25,
      "v": 100
    },
    {
      "midi": 55,
      "hit": false,
      "t": 223425,
      "d": 100,
      "v": 101
    },
    {
      "midi": 84,
      "hit": false,
      "t": 223581.25,
      "d": 321.875,
      "v": 113
    },
    {
      "midi": 76,
      "hit": false,
      "t": 223590.625,
      "d": 112.5,
      "v": 113
    },
    {
      "midi": 60,
      "hit": false,
      "t": 223590.625,
      "d": 165.625,
      "v": 121
    },
    {
      "midi": 48,
      "hit": false,
      "t": 223593.75,
      "d": 118.75,
      "v": 116
    },
    {
      "midi": 72,
      "hit": false,
      "t": 223596.875,
      "d": 265.625,
      "v": 100
    },
    {
      "midi": 76,
      "hit": false,
      "t": 223781.25,
      "d": 128.125,
      "v": 96
    },
    {
      "midi": 64,
      "hit": false,
      "t": 223956.25,
      "d": 25,
      "v": 106
    },
    {
      "midi": 60,
      "hit": false,
      "t": 223959.375,
      "d": 34.375,
      "v": 103
    },
    {
      "midi": 79,
      "hit": false,
      "t": 223959.375,
      "d": 96.875,
      "v": 101
    },
    {
      "midi": 55,
      "hit": false,
      "t": 223962.5,
      "d": 84.375,
      "v": 96
    },
    {
      "midi": 58,
      "hit": false,
      "t": 224000,
      "d": 62.5,
      "v": 39
    },
    {
      "midi": 81,
      "hit": false,
      "t": 224159.375,
      "d": 296.875,
      "v": 117
    },
    {
      "midi": 76,
      "hit": false,
      "t": 224162.5,
      "d": 293.75,
      "v": 121
    },
    {
      "midi": 69,
      "hit": false,
      "t": 224165.625,
      "d": 253.125,
      "v": 116
    },
    {
      "midi": 79,
      "hit": false,
      "t": 224190.625,
      "d": 250,
      "v": 75
    },
    {
      "midi": 36,
      "hit": false,
      "t": 224312.5,
      "d": 134.375,
      "v": 114
    },
    {
      "midi": 48,
      "hit": false,
      "t": 224312.5,
      "d": 225,
      "v": 113
    },
    {
      "midi": 79,
      "hit": false,
      "t": 224515.625,
      "d": 140.625,
      "v": 97
    },
    {
      "midi": 70,
      "hit": false,
      "t": 224678.125,
      "d": 159.375,
      "v": 124
    },
    {
      "midi": 82,
      "hit": false,
      "t": 224681.25,
      "d": 168.75,
      "v": 117
    },
    {
      "midi": 49,
      "hit": false,
      "t": 224684.375,
      "d": 121.875,
      "v": 122
    },
    {
      "midi": 37,
      "hit": false,
      "t": 224687.5,
      "d": 118.75,
      "v": 106
    },
    {
      "midi": 39,
      "hit": false,
      "t": 224750,
      "d": 65.625,
      "v": 25
    },
    {
      "midi": 79,
      "hit": false,
      "t": 224878.125,
      "d": 103.125,
      "v": 98
    },
    {
      "midi": 43,
      "hit": false,
      "t": 224881.25,
      "d": 115.625,
      "v": 89
    },
    {
      "midi": 38,
      "hit": false,
      "t": 225056.25,
      "d": 87.5,
      "v": 109
    },
    {
      "midi": 50,
      "hit": false,
      "t": 225056.25,
      "d": 112.5,
      "v": 109
    },
    {
      "midi": 71,
      "hit": false,
      "t": 225056.25,
      "d": 112.5,
      "v": 104
    },
    {
      "midi": 83,
      "hit": false,
      "t": 225056.25,
      "d": 225,
      "v": 109
    },
    {
      "midi": 72,
      "hit": false,
      "t": 225075,
      "d": 43.75,
      "v": 87
    },
    {
      "midi": 48,
      "hit": false,
      "t": 225075,
      "d": 53.125,
      "v": 70
    },
    {
      "midi": 74,
      "hit": false,
      "t": 225246.875,
      "d": 115.625,
      "v": 97
    },
    {
      "midi": 71,
      "hit": false,
      "t": 225265.625,
      "d": 68.75,
      "v": 4
    },
    {
      "midi": 65,
      "hit": false,
      "t": 225412.5,
      "d": 56.25,
      "v": 105
    },
    {
      "midi": 59,
      "hit": false,
      "t": 225415.625,
      "d": 93.75,
      "v": 86
    },
    {
      "midi": 62,
      "hit": false,
      "t": 225418.75,
      "d": 43.75,
      "v": 95
    },
    {
      "midi": 77,
      "hit": false,
      "t": 225425,
      "d": 118.75,
      "v": 104
    },
    {
      "midi": 74,
      "hit": false,
      "t": 225450,
      "d": 53.125,
      "v": 59
    },
    {
      "midi": 81,
      "hit": false,
      "t": 225600,
      "d": 328.125,
      "v": 119
    },
    {
      "midi": 77,
      "hit": false,
      "t": 225609.375,
      "d": 290.625,
      "v": 108
    },
    {
      "midi": 69,
      "hit": false,
      "t": 225609.375,
      "d": 296.875,
      "v": 117
    },
    {
      "midi": 71,
      "hit": false,
      "t": 225609.375,
      "d": 300,
      "v": 106
    },
    {
      "midi": 74,
      "hit": false,
      "t": 225612.5,
      "d": 287.5,
      "v": 92
    },
    {
      "midi": 43,
      "hit": false,
      "t": 225768.75,
      "d": 87.5,
      "v": 97
    },
    {
      "midi": 53,
      "hit": false,
      "t": 225775,
      "d": 115.625,
      "v": 102
    },
    {
      "midi": 79,
      "hit": false,
      "t": 225981.25,
      "d": 118.75,
      "v": 96
    },
    {
      "midi": 65,
      "hit": false,
      "t": 226146.875,
      "d": 34.375,
      "v": 101
    },
    {
      "midi": 74,
      "hit": false,
      "t": 226146.875,
      "d": 137.5,
      "v": 115
    },
    {
      "midi": 83,
      "hit": false,
      "t": 226146.875,
      "d": 231.25,
      "v": 100
    },
    {
      "midi": 71,
      "hit": false,
      "t": 226153.125,
      "d": 153.125,
      "v": 99
    },
    {
      "midi": 62,
      "hit": false,
      "t": 226162.5,
      "d": 31.25,
      "v": 94
    },
    {
      "midi": 59,
      "hit": false,
      "t": 226162.5,
      "d": 87.5,
      "v": 87
    },
    {
      "midi": 79,
      "hit": false,
      "t": 226343.75,
      "d": 87.5,
      "v": 101
    },
    {
      "midi": 84,
      "hit": false,
      "t": 226506.25,
      "d": 118.75,
      "v": 114
    },
    {
      "midi": 72,
      "hit": false,
      "t": 226512.5,
      "d": 150,
      "v": 115
    },
    {
      "midi": 48,
      "hit": false,
      "t": 226515.625,
      "d": 109.375,
      "v": 101
    },
    {
      "midi": 36,
      "hit": false,
      "t": 226518.75,
      "d": 40.625,
      "v": 91
    },
    {
      "midi": 76,
      "hit": false,
      "t": 226709.375,
      "d": 103.125,
      "v": 101
    },
    {
      "midi": 64,
      "hit": false,
      "t": 226862.5,
      "d": 31.25,
      "v": 100
    },
    {
      "midi": 60,
      "hit": false,
      "t": 226871.875,
      "d": 31.25,
      "v": 97
    },
    {
      "midi": 79,
      "hit": false,
      "t": 226878.125,
      "d": 56.25,
      "v": 101
    },
    {
      "midi": 55,
      "hit": false,
      "t": 226878.125,
      "d": 59.375,
      "v": 90
    },
    {
      "midi": 81,
      "hit": false,
      "t": 227068.75,
      "d": 281.25,
      "v": 118
    },
    {
      "midi": 76,
      "hit": false,
      "t": 227071.875,
      "d": 284.375,
      "v": 119
    },
    {
      "midi": 69,
      "hit": false,
      "t": 227075,
      "d": 240.625,
      "v": 114
    },
    {
      "midi": 36,
      "hit": false,
      "t": 227221.875,
      "d": 134.375,
      "v": 102
    },
    {
      "midi": 48,
      "hit": false,
      "t": 227225,
      "d": 128.125,
      "v": 103
    },
    {
      "midi": 79,
      "hit": false,
      "t": 227428.125,
      "d": 137.5,
      "v": 101
    },
    {
      "midi": 70,
      "hit": false,
      "t": 227581.25,
      "d": 153.125,
      "v": 123
    },
    {
      "midi": 82,
      "hit": false,
      "t": 227587.5,
      "d": 168.75,
      "v": 119
    },
    {
      "midi": 49,
      "hit": false,
      "t": 227593.75,
      "d": 121.875,
      "v": 121
    },
    {
      "midi": 37,
      "hit": false,
      "t": 227596.875,
      "d": 81.25,
      "v": 105
    },
    {
      "midi": 39,
      "hit": false,
      "t": 227665.625,
      "d": 71.875,
      "v": 12
    },
    {
      "midi": 43,
      "hit": false,
      "t": 227775,
      "d": 137.5,
      "v": 83
    },
    {
      "midi": 79,
      "hit": false,
      "t": 227781.25,
      "d": 106.25,
      "v": 91
    },
    {
      "midi": 38,
      "hit": false,
      "t": 227946.875,
      "d": 59.375,
      "v": 99
    },
    {
      "midi": 50,
      "hit": false,
      "t": 227950,
      "d": 93.75,
      "v": 113
    },
    {
      "midi": 83,
      "hit": false,
      "t": 227953.125,
      "d": 128.125,
      "v": 107
    },
    {
      "midi": 71,
      "hit": false,
      "t": 227953.125,
      "d": 190.625,
      "v": 106
    },
    {
      "midi": 74,
      "hit": false,
      "t": 228143.75,
      "d": 106.25,
      "v": 89
    },
    {
      "midi": 65,
      "hit": false,
      "t": 228309.375,
      "d": 37.5,
      "v": 94
    },
    {
      "midi": 59,
      "hit": false,
      "t": 228309.375,
      "d": 93.75,
      "v": 78
    },
    {
      "midi": 62,
      "hit": false,
      "t": 228318.75,
      "d": 43.75,
      "v": 89
    },
    {
      "midi": 77,
      "hit": false,
      "t": 228318.75,
      "d": 96.875,
      "v": 100
    },
    {
      "midi": 81,
      "hit": false,
      "t": 228493.75,
      "d": 284.375,
      "v": 114
    },
    {
      "midi": 77,
      "hit": false,
      "t": 228506.25,
      "d": 246.875,
      "v": 90
    },
    {
      "midi": 71,
      "hit": false,
      "t": 228506.25,
      "d": 271.875,
      "v": 90
    },
    {
      "midi": 74,
      "hit": false,
      "t": 228509.375,
      "d": 250,
      "v": 101
    },
    {
      "midi": 69,
      "hit": false,
      "t": 228509.375,
      "d": 259.375,
      "v": 109
    },
    {
      "midi": 43,
      "hit": false,
      "t": 228668.75,
      "d": 84.375,
      "v": 97
    },
    {
      "midi": 53,
      "hit": false,
      "t": 228675,
      "d": 75,
      "v": 101
    },
    {
      "midi": 79,
      "hit": false,
      "t": 228875,
      "d": 96.875,
      "v": 94
    },
    {
      "midi": 65,
      "hit": false,
      "t": 229034.375,
      "d": 28.125,
      "v": 105
    },
    {
      "midi": 59,
      "hit": false,
      "t": 229034.375,
      "d": 78.125,
      "v": 87
    },
    {
      "midi": 83,
      "hit": false,
      "t": 229037.5,
      "d": 140.625,
      "v": 103
    },
    {
      "midi": 71,
      "hit": false,
      "t": 229040.625,
      "d": 115.625,
      "v": 96
    },
    {
      "midi": 62,
      "hit": false,
      "t": 229043.75,
      "d": 34.375,
      "v": 94
    },
    {
      "midi": 74,
      "hit": false,
      "t": 229043.75,
      "d": 103.125,
      "v": 103
    },
    {
      "midi": 55,
      "hit": false,
      "t": 229062.5,
      "d": 65.625,
      "v": 85
    },
    {
      "midi": 58,
      "hit": false,
      "t": 229075,
      "d": 53.125,
      "v": 28
    },
    {
      "midi": 79,
      "hit": false,
      "t": 229240.625,
      "d": 59.375,
      "v": 95
    },
    {
      "midi": 36,
      "hit": false,
      "t": 229400,
      "d": 96.875,
      "v": 112
    },
    {
      "midi": 48,
      "hit": false,
      "t": 229406.25,
      "d": 106.25,
      "v": 113
    },
    {
      "midi": 72,
      "hit": false,
      "t": 229406.25,
      "d": 125,
      "v": 121
    },
    {
      "midi": 84,
      "hit": false,
      "t": 229406.25,
      "d": 334.375,
      "v": 120
    },
    {
      "midi": 76,
      "hit": false,
      "t": 229615.625,
      "d": 81.25,
      "v": 103
    },
    {
      "midi": 60,
      "hit": false,
      "t": 229765.625,
      "d": 43.75,
      "v": 98
    },
    {
      "midi": 64,
      "hit": false,
      "t": 229768.75,
      "d": 34.375,
      "v": 98
    },
    {
      "midi": 58,
      "hit": false,
      "t": 229768.75,
      "d": 112.5,
      "v": 94
    },
    {
      "midi": 55,
      "hit": false,
      "t": 229771.875,
      "d": 100,
      "v": 95
    },
    {
      "midi": 79,
      "hit": false,
      "t": 229790.625,
      "d": 112.5,
      "v": 97
    },
    {
      "midi": 84,
      "hit": false,
      "t": 229975,
      "d": 271.875,
      "v": 117
    },
    {
      "midi": 76,
      "hit": false,
      "t": 229981.25,
      "d": 259.375,
      "v": 118
    },
    {
      "midi": 79,
      "hit": false,
      "t": 229981.25,
      "d": 259.375,
      "v": 100
    },
    {
      "midi": 72,
      "hit": false,
      "t": 229984.375,
      "d": 243.75,
      "v": 112
    },
    {
      "midi": 34,
      "hit": false,
      "t": 230140.625,
      "d": 78.125,
      "v": 121
    },
    {
      "midi": 46,
      "hit": false,
      "t": 230143.75,
      "d": 109.375,
      "v": 124
    },
    {
      "midi": 79,
      "hit": false,
      "t": 230350,
      "d": 78.125,
      "v": 103
    },
    {
      "midi": 64,
      "hit": false,
      "t": 230512.5,
      "d": 37.5,
      "v": 107
    },
    {
      "midi": 58,
      "hit": false,
      "t": 230512.5,
      "d": 90.625,
      "v": 107
    },
    {
      "midi": 72,
      "hit": false,
      "t": 230512.5,
      "d": 106.25,
      "v": 117
    },
    {
      "midi": 84,
      "hit": false,
      "t": 230512.5,
      "d": 181.25,
      "v": 116
    },
    {
      "midi": 60,
      "hit": false,
      "t": 230518.75,
      "d": 31.25,
      "v": 91
    },
    {
      "midi": 79,
      "hit": false,
      "t": 230709.375,
      "d": 84.375,
      "v": 110
    },
    {
      "midi": 57,
      "hit": false,
      "t": 230875,
      "d": 118.75,
      "v": 115
    },
    {
      "midi": 72,
      "hit": false,
      "t": 230875,
      "d": 153.125,
      "v": 121
    },
    {
      "midi": 45,
      "hit": false,
      "t": 230878.125,
      "d": 68.75,
      "v": 114
    },
    {
      "midi": 84,
      "hit": false,
      "t": 230878.125,
      "d": 259.375,
      "v": 120
    },
    {
      "midi": 77,
      "hit": false,
      "t": 231065.625,
      "d": 87.5,
      "v": 109
    },
    {
      "midi": 65,
      "hit": false,
      "t": 231231.25,
      "d": 56.25,
      "v": 111
    },
    {
      "midi": 57,
      "hit": false,
      "t": 231237.5,
      "d": 106.25,
      "v": 99
    },
    {
      "midi": 60,
      "hit": false,
      "t": 231243.75,
      "d": 90.625,
      "v": 97
    },
    {
      "midi": 81,
      "hit": false,
      "t": 231243.75,
      "d": 125,
      "v": 108
    },
    {
      "midi": 81,
      "hit": false,
      "t": 231434.375,
      "d": 259.375,
      "v": 104
    },
    {
      "midi": 84,
      "hit": false,
      "t": 231434.375,
      "d": 265.625,
      "v": 115
    },
    {
      "midi": 78,
      "hit": false,
      "t": 231437.5,
      "d": 265.625,
      "v": 110
    },
    {
      "midi": 72,
      "hit": false,
      "t": 231437.5,
      "d": 268.75,
      "v": 114
    },
    {
      "midi": 51,
      "hit": false,
      "t": 231606.25,
      "d": 118.75,
      "v": 114
    },
    {
      "midi": 42,
      "hit": false,
      "t": 231609.375,
      "d": 90.625,
      "v": 106
    },
    {
      "midi": 81,
      "hit": false,
      "t": 231809.375,
      "d": 87.5,
      "v": 94
    },
    {
      "midi": 63,
      "hit": false,
      "t": 231959.375,
      "d": 34.375,
      "v": 108
    },
    {
      "midi": 81,
      "hit": false,
      "t": 231959.375,
      "d": 93.75,
      "v": 105
    },
    {
      "midi": 84,
      "hit": false,
      "t": 231965.625,
      "d": 34.375,
      "v": 107
    },
    {
      "midi": 72,
      "hit": false,
      "t": 231968.75,
      "d": 84.375,
      "v": 108
    },
    {
      "midi": 54,
      "hit": false,
      "t": 231968.75,
      "d": 87.5,
      "v": 94
    },
    {
      "midi": 78,
      "hit": false,
      "t": 231968.75,
      "d": 112.5,
      "v": 104
    },
    {
      "midi": 60,
      "hit": false,
      "t": 231975,
      "d": 25,
      "v": 99
    },
    {
      "midi": 50,
      "hit": false,
      "t": 232206.25,
      "d": 96.875,
      "v": 59
    },
    {
      "midi": 52,
      "hit": false,
      "t": 232334.375,
      "d": 109.375,
      "v": 92
    },
    {
      "midi": 43,
      "hit": false,
      "t": 232340.625,
      "d": 78.125,
      "v": 99
    },
    {
      "midi": 79,
      "hit": false,
      "t": 232340.625,
      "d": 134.375,
      "v": 117
    },
    {
      "midi": 67,
      "hit": false,
      "t": 232340.625,
      "d": 137.5,
      "v": 118
    },
    {
      "midi": 72,
      "hit": false,
      "t": 232537.5,
      "d": 112.5,
      "v": 89
    },
    {
      "midi": 64,
      "hit": false,
      "t": 232731.25,
      "d": 25,
      "v": 106
    },
    {
      "midi": 60,
      "hit": false,
      "t": 232731.25,
      "d": 59.375,
      "v": 106
    },
    {
      "midi": 57,
      "hit": false,
      "t": 232731.25,
      "d": 103.125,
      "v": 105
    },
    {
      "midi": 55,
      "hit": false,
      "t": 232734.375,
      "d": 87.5,
      "v": 103
    },
    {
      "midi": 76,
      "hit": false,
      "t": 232737.5,
      "d": 90.625,
      "v": 103
    },
    {
      "midi": 77,
      "hit": false,
      "t": 232940.625,
      "d": 215.625,
      "v": 123
    },
    {
      "midi": 65,
      "hit": false,
      "t": 232940.625,
      "d": 284.375,
      "v": 119
    },
    {
      "midi": 43,
      "hit": false,
      "t": 233109.375,
      "d": 109.375,
      "v": 117
    },
    {
      "midi": 69,
      "hit": false,
      "t": 233325,
      "d": 84.375,
      "v": 113
    },
    {
      "midi": 65,
      "hit": false,
      "t": 233493.75,
      "d": 171.875,
      "v": 112
    },
    {
      "midi": 59,
      "hit": false,
      "t": 233496.875,
      "d": 125,
      "v": 106
    },
    {
      "midi": 53,
      "hit": false,
      "t": 233496.875,
      "d": 131.25,
      "v": 100
    },
    {
      "midi": 71,
      "hit": false,
      "t": 233496.875,
      "d": 196.875,
      "v": 104
    },
    {
      "midi": 55,
      "hit": false,
      "t": 233731.25,
      "d": 146.875,
      "v": 92
    },
    {
      "midi": 72,
      "hit": false,
      "t": 233912.5,
      "d": 112.5,
      "v": 117
    },
    {
      "midi": 60,
      "hit": false,
      "t": 233915.625,
      "d": 62.5,
      "v": 113
    },
    {
      "midi": 64,
      "hit": false,
      "t": 233915.625,
      "d": 68.75,
      "v": 116
    },
    {
      "midi": 67,
      "hit": false,
      "t": 233915.625,
      "d": 106.25,
      "v": 117
    },
    {
      "midi": 48,
      "hit": false,
      "t": 233921.875,
      "d": 93.75,
      "v": 92
    },
    {
      "midi": 50,
      "hit": false,
      "t": 233953.125,
      "d": 40.625,
      "v": 72
    },
    {
      "midi": 51,
      "hit": false,
      "t": 233971.875,
      "d": 59.375,
      "v": 23
    },
    {
      "midi": 71,
      "hit": false,
      "t": 234328.125,
      "d": 121.875,
      "v": 100
    },
    {
      "midi": 67,
      "hit": false,
      "t": 234331.25,
      "d": 118.75,
      "v": 118
    },
    {
      "midi": 79,
      "hit": false,
      "t": 234331.25,
      "d": 150,
      "v": 115
    },
    {
      "midi": 55,
      "hit": false,
      "t": 234334.375,
      "d": 78.125,
      "v": 116
    },
    {
      "midi": 43,
      "hit": false,
      "t": 234334.375,
      "d": 115.625,
      "v": 108
    },
    {
      "midi": 74,
      "hit": false,
      "t": 234334.375,
      "d": 121.875,
      "v": 110
    },
    {
      "midi": 36,
      "hit": false,
      "t": 234600,
      "d": 171.875,
      "v": 92
    },
    {
      "midi": 43,
      "hit": false,
      "t": 234743.75,
      "d": 115.625,
      "v": 52
    },
    {
      "midi": 72,
      "hit": false,
      "t": 234800,
      "d": 56.25,
      "v": 122
    },
    {
      "midi": 52,
      "hit": false,
      "t": 234800,
      "d": 59.375,
      "v": 116
    },
    {
      "midi": 76,
      "hit": false,
      "t": 234800,
      "d": 59.375,
      "v": 121
    },
    {
      "midi": 84,
      "hit": false,
      "t": 234800,
      "d": 915.625,
      "v": 117
    },
    {
      "midi": 79,
      "hit": false,
      "t": 234806.25,
      "d": 915.625,
      "v": 115
    }
  ]
}