{
  "jsonPath": "Blues/Ragtime/Scott Joplin/search-light-rag.json",
  "path": "Blues\\Ragtime\\Scott Joplin\\Search-Light Rag.mid",
  "name": "Search-Light Rag",
  "difficulty": "Advanced",
  "bpm": 66.000066000066,
  "notes": [
    {
      "midi": 70,
      "hit": false,
      "t": 0,
      "d": 454.545,
      "v": 127
    },
    {
      "midi": 58,
      "hit": false,
      "t": 0,
      "d": 454.545,
      "v": 127
    },
    {
      "midi": 67,
      "hit": false,
      "t": 454.545,
      "d": 681.8174999999999,
      "v": 127
    },
    {
      "midi": 55,
      "hit": false,
      "t": 454.545,
      "d": 681.8174999999999,
      "v": 127
    },
    {
      "midi": 62,
      "hit": false,
      "t": 1136.3625,
      "d": 227.27250000000004,
      "v": 127
    },
    {
      "midi": 50,
      "hit": false,
      "t": 1136.3625,
      "d": 227.27250000000004,
      "v": 127
    },
    {
      "midi": 67,
      "hit": false,
      "t": 1363.635,
      "d": 454.5450000000001,
      "v": 127
    },
    {
      "midi": 55,
      "hit": false,
      "t": 1363.635,
      "d": 454.5450000000001,
      "v": 127
    },
    {
      "midi": 65,
      "hit": false,
      "t": 1818.18,
      "d": 454.54499999999985,
      "v": 127
    },
    {
      "midi": 53,
      "hit": false,
      "t": 1818.18,
      "d": 454.54499999999985,
      "v": 127
    },
    {
      "midi": 62,
      "hit": false,
      "t": 2272.725,
      "d": 681.8175000000001,
      "v": 127
    },
    {
      "midi": 50,
      "hit": false,
      "t": 2272.725,
      "d": 681.8175000000001,
      "v": 127
    },
    {
      "midi": 58,
      "hit": false,
      "t": 2954.5425,
      "d": 227.27250000000004,
      "v": 127
    },
    {
      "midi": 46,
      "hit": false,
      "t": 2954.5425,
      "d": 227.27250000000004,
      "v": 127
    },
    {
      "midi": 62,
      "hit": false,
      "t": 3181.815,
      "d": 454.5450000000001,
      "v": 127
    },
    {
      "midi": 50,
      "hit": false,
      "t": 3181.815,
      "d": 454.5450000000001,
      "v": 127
    },
    {
      "midi": 60,
      "hit": false,
      "t": 3636.36,
      "d": 454.5450000000001,
      "v": 127
    },
    {
      "midi": 48,
      "hit": false,
      "t": 3636.36,
      "d": 454.5450000000001,
      "v": 127
    },
    {
      "midi": 58,
      "hit": false,
      "t": 4090.905,
      "d": 681.8174999999997,
      "v": 127
    },
    {
      "midi": 46,
      "hit": false,
      "t": 4090.905,
      "d": 681.8174999999997,
      "v": 127
    },
    {
      "midi": 62,
      "hit": false,
      "t": 4772.7225,
      "d": 227.27250000000004,
      "v": 127
    },
    {
      "midi": 50,
      "hit": false,
      "t": 4772.7225,
      "d": 227.27250000000004,
      "v": 127
    },
    {
      "midi": 65,
      "hit": false,
      "t": 4999.995,
      "d": 227.27250000000004,
      "v": 127
    },
    {
      "midi": 53,
      "hit": false,
      "t": 4999.995,
      "d": 227.27250000000004,
      "v": 127
    },
    {
      "midi": 74,
      "hit": false,
      "t": 5227.2675,
      "d": 227.27250000000004,
      "v": 127
    },
    {
      "midi": 62,
      "hit": false,
      "t": 5227.2675,
      "d": 227.27250000000004,
      "v": 127
    },
    {
      "midi": 72,
      "hit": false,
      "t": 5454.54,
      "d": 909.0900000000001,
      "v": 127
    },
    {
      "midi": 60,
      "hit": false,
      "t": 5454.54,
      "d": 909.0900000000001,
      "v": 127
    },
    {
      "midi": 65,
      "hit": false,
      "t": 6363.63,
      "d": 909.0900000000001,
      "v": 127
    },
    {
      "midi": 69,
      "hit": false,
      "t": 6363.63,
      "d": 909.0900000000001,
      "v": 127
    },
    {
      "midi": 72,
      "hit": false,
      "t": 6363.63,
      "d": 909.0900000000001,
      "v": 127
    },
    {
      "midi": 77,
      "hit": false,
      "t": 6363.63,
      "d": 909.0900000000001,
      "v": 127
    },
    {
      "midi": 41,
      "hit": false,
      "t": 6363.63,
      "d": 909.0900000000001,
      "v": 127
    },
    {
      "midi": 53,
      "hit": false,
      "t": 6363.63,
      "d": 909.0900000000001,
      "v": 127
    },
    {
      "midi": 74,
      "hit": false,
      "t": 7272.72,
      "d": 681.8175000000001,
      "v": 127
    },
    {
      "midi": 65,
      "hit": false,
      "t": 7272.72,
      "d": 1818.1799999999976,
      "v": 127
    },
    {
      "midi": 70,
      "hit": false,
      "t": 7272.72,
      "d": 1818.1799999999976,
      "v": 127
    },
    {
      "midi": 46,
      "hit": false,
      "t": 7272.72,
      "d": 454.5450000000001,
      "v": 127
    },
    {
      "midi": 58,
      "hit": false,
      "t": 7272.72,
      "d": 454.5450000000001,
      "v": 127
    },
    {
      "midi": 53,
      "hit": false,
      "t": 7727.265,
      "d": 454.5450000000001,
      "v": 127
    },
    {
      "midi": 58,
      "hit": false,
      "t": 7727.265,
      "d": 454.5450000000001,
      "v": 127
    },
    {
      "midi": 62,
      "hit": false,
      "t": 7727.265,
      "d": 454.5450000000001,
      "v": 127
    },
    {
      "midi": 72,
      "hit": false,
      "t": 7954.5375,
      "d": 227.27250000000004,
      "v": 127
    },
    {
      "midi": 43,
      "hit": false,
      "t": 8181.81,
      "d": 454.54499999999916,
      "v": 127
    },
    {
      "midi": 55,
      "hit": false,
      "t": 8181.81,
      "d": 454.54499999999916,
      "v": 127
    },
    {
      "midi": 72,
      "hit": false,
      "t": 8409.0825,
      "d": 227.27249999999913,
      "v": 127
    },
    {
      "midi": 74,
      "hit": false,
      "t": 8636.355,
      "d": 227.27249999999913,
      "v": 127
    },
    {
      "midi": 41,
      "hit": false,
      "t": 8636.355,
      "d": 454.5450000000001,
      "v": 127
    },
    {
      "midi": 53,
      "hit": false,
      "t": 8636.355,
      "d": 454.5450000000001,
      "v": 127
    },
    {
      "midi": 75,
      "hit": false,
      "t": 8863.627499999999,
      "d": 227.27249999999913,
      "v": 127
    },
    {
      "midi": 77,
      "hit": false,
      "t": 9090.899999999998,
      "d": 227.27249999999913,
      "v": 127
    },
    {
      "midi": 70,
      "hit": false,
      "t": 9090.899999999998,
      "d": 909.0899999999983,
      "v": 127
    },
    {
      "midi": 38,
      "hit": false,
      "t": 9090.9,
      "d": 454.5450000000001,
      "v": 127
    },
    {
      "midi": 50,
      "hit": false,
      "t": 9090.9,
      "d": 454.5450000000001,
      "v": 127
    },
    {
      "midi": 79,
      "hit": false,
      "t": 9318.172499999997,
      "d": 454.5450000000001,
      "v": 127
    },
    {
      "midi": 53,
      "hit": false,
      "t": 9545.445,
      "d": 454.5450000000001,
      "v": 127
    },
    {
      "midi": 58,
      "hit": false,
      "t": 9545.445,
      "d": 454.5450000000001,
      "v": 127
    },
    {
      "midi": 62,
      "hit": false,
      "t": 9545.445,
      "d": 454.5450000000001,
      "v": 127
    },
    {
      "midi": 74,
      "hit": false,
      "t": 9772.717499999997,
      "d": 227.27249999999913,
      "v": 127
    },
    {
      "midi": 74,
      "hit": false,
      "t": 9999.989999999996,
      "d": 454.5450000000001,
      "v": 127
    },
    {
      "midi": 77,
      "hit": false,
      "t": 9999.989999999996,
      "d": 454.5450000000001,
      "v": 127
    },
    {
      "midi": 46,
      "hit": false,
      "t": 9999.99,
      "d": 454.5450000000001,
      "v": 127
    },
    {
      "midi": 86,
      "hit": false,
      "t": 10454.534999999996,
      "d": 227.27249999999913,
      "v": 127
    },
    {
      "midi": 77,
      "hit": false,
      "t": 10454.534999999996,
      "d": 454.54499999999825,
      "v": 127
    },
    {
      "midi": 56,
      "hit": false,
      "t": 10454.535,
      "d": 454.5450000000001,
      "v": 127
    },
    {
      "midi": 58,
      "hit": false,
      "t": 10454.535,
      "d": 454.5450000000001,
      "v": 127
    },
    {
      "midi": 62,
      "hit": false,
      "t": 10454.535,
      "d": 454.5450000000001,
      "v": 127
    },
    {
      "midi": 84,
      "hit": false,
      "t": 10681.807499999995,
      "d": 227.27249999999913,
      "v": 127
    },
    {
      "midi": 79,
      "hit": false,
      "t": 10909.079999999994,
      "d": 681.8174999999992,
      "v": 127
    },
    {
      "midi": 82,
      "hit": false,
      "t": 10909.079999999994,
      "d": 681.8174999999992,
      "v": 127
    },
    {
      "midi": 39,
      "hit": false,
      "t": 10909.08,
      "d": 454.5450000000001,
      "v": 127
    },
    {
      "midi": 51,
      "hit": false,
      "t": 10909.08,
      "d": 454.5450000000001,
      "v": 127
    },
    {
      "midi": 55,
      "hit": false,
      "t": 11363.625,
      "d": 454.5450000000001,
      "v": 127
    },
    {
      "midi": 58,
      "hit": false,
      "t": 11363.625,
      "d": 454.5450000000001,
      "v": 127
    },
    {
      "midi": 63,
      "hit": false,
      "t": 11363.625,
      "d": 454.5450000000001,
      "v": 127
    },
    {
      "midi": 77,
      "hit": false,
      "t": 11590.897499999994,
      "d": 227.27249999999913,
      "v": 127
    },
    {
      "midi": 81,
      "hit": false,
      "t": 11590.897499999994,
      "d": 227.27249999999913,
      "v": 127
    },
    {
      "midi": 75,
      "hit": false,
      "t": 11818.169999999993,
      "d": 227.27249999999913,
      "v": 127
    },
    {
      "midi": 79,
      "hit": false,
      "t": 11818.169999999993,
      "d": 227.27249999999913,
      "v": 127
    },
    {
      "midi": 43,
      "hit": false,
      "t": 11818.17,
      "d": 454.5450000000001,
      "v": 127
    },
    {
      "midi": 55,
      "hit": false,
      "t": 11818.17,
      "d": 454.5450000000001,
      "v": 127
    },
    {
      "midi": 72,
      "hit": false,
      "t": 12045.442499999992,
      "d": 454.5450000000001,
      "v": 127
    },
    {
      "midi": 75,
      "hit": false,
      "t": 12045.442499999992,
      "d": 454.5450000000001,
      "v": 127
    },
    {
      "midi": 42,
      "hit": false,
      "t": 12272.715,
      "d": 454.5450000000001,
      "v": 127
    },
    {
      "midi": 54,
      "hit": false,
      "t": 12272.715,
      "d": 454.5450000000001,
      "v": 127
    },
    {
      "midi": 70,
      "hit": false,
      "t": 12499.987499999992,
      "d": 909.0900000000001,
      "v": 127
    },
    {
      "midi": 74,
      "hit": false,
      "t": 12499.987499999992,
      "d": 909.0900000000001,
      "v": 127
    },
    {
      "midi": 41,
      "hit": false,
      "t": 12727.26,
      "d": 454.5450000000001,
      "v": 127
    },
    {
      "midi": 53,
      "hit": false,
      "t": 12727.26,
      "d": 454.5450000000001,
      "v": 127
    },
    {
      "midi": 46,
      "hit": false,
      "t": 13181.805,
      "d": 454.5450000000001,
      "v": 127
    },
    {
      "midi": 58,
      "hit": false,
      "t": 13181.805,
      "d": 454.5450000000001,
      "v": 127
    },
    {
      "midi": 72,
      "hit": false,
      "t": 13636.349999999991,
      "d": 909.0900000000001,
      "v": 127
    },
    {
      "midi": 75,
      "hit": false,
      "t": 13636.349999999991,
      "d": 909.0900000000001,
      "v": 127
    },
    {
      "midi": 45,
      "hit": false,
      "t": 13636.35,
      "d": 454.5450000000001,
      "v": 127
    },
    {
      "midi": 57,
      "hit": false,
      "t": 13636.35,
      "d": 454.5450000000001,
      "v": 127
    },
    {
      "midi": 41,
      "hit": false,
      "t": 14090.895,
      "d": 454.5450000000001,
      "v": 127
    },
    {
      "midi": 53,
      "hit": false,
      "t": 14090.895,
      "d": 454.5450000000001,
      "v": 127
    },
    {
      "midi": 74,
      "hit": false,
      "t": 14545.439999999991,
      "d": 681.8174999999992,
      "v": 127
    },
    {
      "midi": 70,
      "hit": false,
      "t": 14545.439999999991,
      "d": 1818.1799999999948,
      "v": 127
    },
    {
      "midi": 46,
      "hit": false,
      "t": 14545.44,
      "d": 454.5450000000001,
      "v": 127
    },
    {
      "midi": 58,
      "hit": false,
      "t": 14545.44,
      "d": 454.5450000000001,
      "v": 127
    },
    {
      "midi": 53,
      "hit": false,
      "t": 14999.985,
      "d": 454.5450000000001,
      "v": 127
    },
    {
      "midi": 58,
      "hit": false,
      "t": 14999.985,
      "d": 454.5450000000001,
      "v": 127
    },
    {
      "midi": 62,
      "hit": false,
      "t": 14999.985,
      "d": 454.5450000000001,
      "v": 127
    },
    {
      "midi": 72,
      "hit": false,
      "t": 15227.25749999999,
      "d": 227.27249999999913,
      "v": 127
    },
    {
      "midi": 43,
      "hit": false,
      "t": 15454.53,
      "d": 454.5450000000001,
      "v": 127
    },
    {
      "midi": 55,
      "hit": false,
      "t": 15454.53,
      "d": 454.5450000000001,
      "v": 127
    },
    {
      "midi": 72,
      "hit": false,
      "t": 15681.802499999989,
      "d": 227.27249999999913,
      "v": 127
    },
    {
      "midi": 74,
      "hit": false,
      "t": 15909.074999999988,
      "d": 227.27249999999913,
      "v": 127
    },
    {
      "midi": 41,
      "hit": false,
      "t": 15909.075,
      "d": 454.5450000000001,
      "v": 127
    },
    {
      "midi": 53,
      "hit": false,
      "t": 15909.075,
      "d": 454.5450000000001,
      "v": 127
    },
    {
      "midi": 75,
      "hit": false,
      "t": 16136.347499999987,
      "d": 227.27249999999913,
      "v": 127
    },
    {
      "midi": 77,
      "hit": false,
      "t": 16363.619999999986,
      "d": 227.27250000000095,
      "v": 127
    },
    {
      "midi": 70,
      "hit": false,
      "t": 16363.619999999986,
      "d": 1363.6349999999966,
      "v": 127
    },
    {
      "midi": 38,
      "hit": false,
      "t": 16363.62,
      "d": 454.5450000000001,
      "v": 127
    },
    {
      "midi": 50,
      "hit": false,
      "t": 16363.62,
      "d": 454.5450000000001,
      "v": 127
    },
    {
      "midi": 79,
      "hit": false,
      "t": 16590.892499999987,
      "d": 454.54499999999825,
      "v": 127
    },
    {
      "midi": 58,
      "hit": false,
      "t": 16818.165,
      "d": 454.54499999999825,
      "v": 127
    },
    {
      "midi": 62,
      "hit": false,
      "t": 16818.165,
      "d": 454.54499999999825,
      "v": 127
    },
    {
      "midi": 65,
      "hit": false,
      "t": 16818.165,
      "d": 454.54499999999825,
      "v": 127
    },
    {
      "midi": 74,
      "hit": false,
      "t": 17045.437499999985,
      "d": 227.27249999999913,
      "v": 127
    },
    {
      "midi": 77,
      "hit": false,
      "t": 17272.709999999985,
      "d": 454.54499999999825,
      "v": 127
    },
    {
      "midi": 37,
      "hit": false,
      "t": 17272.71,
      "d": 454.54499999999825,
      "v": 127
    },
    {
      "midi": 49,
      "hit": false,
      "t": 17272.71,
      "d": 454.54499999999825,
      "v": 127
    },
    {
      "midi": 77,
      "hit": false,
      "t": 17727.254999999983,
      "d": 227.27249999999913,
      "v": 127
    },
    {
      "midi": 70,
      "hit": false,
      "t": 17727.254999999983,
      "d": 454.54499999999825,
      "v": 127
    },
    {
      "midi": 58,
      "hit": false,
      "t": 17727.254999999997,
      "d": 454.54499999999825,
      "v": 127
    },
    {
      "midi": 61,
      "hit": false,
      "t": 17727.254999999997,
      "d": 454.54499999999825,
      "v": 127
    },
    {
      "midi": 65,
      "hit": false,
      "t": 17727.254999999997,
      "d": 454.54499999999825,
      "v": 127
    },
    {
      "midi": 79,
      "hit": false,
      "t": 17954.527499999982,
      "d": 227.27249999999913,
      "v": 127
    },
    {
      "midi": 81,
      "hit": false,
      "t": 18181.79999999998,
      "d": 681.817500000001,
      "v": 127
    },
    {
      "midi": 72,
      "hit": false,
      "t": 18181.79999999998,
      "d": 909.0900000000001,
      "v": 127
    },
    {
      "midi": 36,
      "hit": false,
      "t": 18181.799999999996,
      "d": 454.54499999999825,
      "v": 127
    },
    {
      "midi": 48,
      "hit": false,
      "t": 18181.799999999996,
      "d": 454.54499999999825,
      "v": 127
    },
    {
      "midi": 57,
      "hit": false,
      "t": 18636.344999999994,
      "d": 454.54499999999825,
      "v": 127
    },
    {
      "midi": 60,
      "hit": false,
      "t": 18636.344999999994,
      "d": 454.54499999999825,
      "v": 127
    },
    {
      "midi": 65,
      "hit": false,
      "t": 18636.344999999994,
      "d": 454.54499999999825,
      "v": 127
    },
    {
      "midi": 84,
      "hit": false,
      "t": 18863.617499999982,
      "d": 227.27249999999913,
      "v": 127
    },
    {
      "midi": 72,
      "hit": false,
      "t": 19090.88999999998,
      "d": 227.27249999999913,
      "v": 127
    },
    {
      "midi": 48,
      "hit": false,
      "t": 19090.889999999992,
      "d": 454.54499999999825,
      "v": 127
    },
    {
      "midi": 70,
      "hit": false,
      "t": 19318.16249999998,
      "d": 454.54499999999825,
      "v": 127
    },
    {
      "midi": 79,
      "hit": false,
      "t": 19318.16249999998,
      "d": 454.54499999999825,
      "v": 127
    },
    {
      "midi": 58,
      "hit": false,
      "t": 19545.43499999999,
      "d": 454.54499999999825,
      "v": 127
    },
    {
      "midi": 60,
      "hit": false,
      "t": 19545.43499999999,
      "d": 454.54499999999825,
      "v": 127
    },
    {
      "midi": 64,
      "hit": false,
      "t": 19545.43499999999,
      "d": 454.54499999999825,
      "v": 127
    },
    {
      "midi": 77,
      "hit": false,
      "t": 19772.70749999998,
      "d": 681.817500000001,
      "v": 127
    },
    {
      "midi": 69,
      "hit": false,
      "t": 19772.70749999998,
      "d": 1818.1799999999967,
      "v": 127
    },
    {
      "midi": 53,
      "hit": false,
      "t": 19999.97999999999,
      "d": 454.54499999999825,
      "v": 127
    },
    {
      "midi": 57,
      "hit": false,
      "t": 19999.97999999999,
      "d": 454.54499999999825,
      "v": 127
    },
    {
      "midi": 60,
      "hit": false,
      "t": 19999.97999999999,
      "d": 454.54499999999825,
      "v": 127
    },
    {
      "midi": 65,
      "hit": false,
      "t": 19999.97999999999,
      "d": 454.54499999999825,
      "v": 127
    },
    {
      "midi": 79,
      "hit": false,
      "t": 20454.52499999998,
      "d": 227.27249999999913,
      "v": 127
    },
    {
      "midi": 41,
      "hit": false,
      "t": 20454.524999999987,
      "d": 454.54499999999825,
      "v": 127
    },
    {
      "midi": 53,
      "hit": false,
      "t": 20454.524999999987,
      "d": 454.54499999999825,
      "v": 127
    },
    {
      "midi": 77,
      "hit": false,
      "t": 20681.79749999998,
      "d": 227.27249999999913,
      "v": 127
    },
    {
      "midi": 75,
      "hit": false,
      "t": 20909.069999999978,
      "d": 227.27249999999913,
      "v": 127
    },
    {
      "midi": 43,
      "hit": false,
      "t": 20909.069999999985,
      "d": 454.54499999999825,
      "v": 127
    },
    {
      "midi": 55,
      "hit": false,
      "t": 20909.069999999985,
      "d": 454.54499999999825,
      "v": 127
    },
    {
      "midi": 74,
      "hit": false,
      "t": 21136.342499999977,
      "d": 227.27249999999913,
      "v": 127
    },
    {
      "midi": 72,
      "hit": false,
      "t": 21363.614999999976,
      "d": 227.27249999999913,
      "v": 127
    },
    {
      "midi": 45,
      "hit": false,
      "t": 21363.614999999983,
      "d": 454.54499999999825,
      "v": 127
    },
    {
      "midi": 57,
      "hit": false,
      "t": 21363.614999999983,
      "d": 454.54499999999825,
      "v": 127
    },
    {
      "midi": 77,
      "hit": false,
      "t": 21590.887499999975,
      "d": 227.27249999999913,
      "v": 127
    },
    {
      "midi": 74,
      "hit": false,
      "t": 21818.159999999974,
      "d": 681.817500000001,
      "v": 127
    },
    {
      "midi": 65,
      "hit": false,
      "t": 21818.159999999974,
      "d": 1818.1799999999967,
      "v": 127
    },
    {
      "midi": 46,
      "hit": false,
      "t": 21818.15999999998,
      "d": 454.54499999999825,
      "v": 127
    },
    {
      "midi": 58,
      "hit": false,
      "t": 21818.15999999998,
      "d": 454.54499999999825,
      "v": 127
    },
    {
      "midi": 53,
      "hit": false,
      "t": 22272.70499999998,
      "d": 454.54499999999825,
      "v": 127
    },
    {
      "midi": 58,
      "hit": false,
      "t": 22272.70499999998,
      "d": 454.54499999999825,
      "v": 127
    },
    {
      "midi": 62,
      "hit": false,
      "t": 22272.70499999998,
      "d": 454.54499999999825,
      "v": 127
    },
    {
      "midi": 72,
      "hit": false,
      "t": 22499.977499999975,
      "d": 227.27249999999913,
      "v": 127
    },
    {
      "midi": 70,
      "hit": false,
      "t": 22727.249999999975,
      "d": 227.27249999999913,
      "v": 127
    },
    {
      "midi": 43,
      "hit": false,
      "t": 22727.249999999978,
      "d": 454.54499999999825,
      "v": 127
    },
    {
      "midi": 55,
      "hit": false,
      "t": 22727.249999999978,
      "d": 454.54499999999825,
      "v": 127
    },
    {
      "midi": 72,
      "hit": false,
      "t": 22954.522499999974,
      "d": 227.27249999999913,
      "v": 127
    },
    {
      "midi": 74,
      "hit": false,
      "t": 23181.794999999973,
      "d": 227.27249999999913,
      "v": 127
    },
    {
      "midi": 41,
      "hit": false,
      "t": 23181.794999999976,
      "d": 454.54499999999825,
      "v": 127
    },
    {
      "midi": 53,
      "hit": false,
      "t": 23181.794999999976,
      "d": 454.54499999999825,
      "v": 127
    },
    {
      "midi": 75,
      "hit": false,
      "t": 23409.067499999972,
      "d": 227.27249999999913,
      "v": 127
    },
    {
      "midi": 77,
      "hit": false,
      "t": 23636.33999999997,
      "d": 227.27249999999913,
      "v": 127
    },
    {
      "midi": 70,
      "hit": false,
      "t": 23636.33999999997,
      "d": 909.0899999999965,
      "v": 127
    },
    {
      "midi": 38,
      "hit": false,
      "t": 23636.339999999975,
      "d": 454.54499999999825,
      "v": 127
    },
    {
      "midi": 50,
      "hit": false,
      "t": 23636.339999999975,
      "d": 454.54499999999825,
      "v": 127
    },
    {
      "midi": 79,
      "hit": false,
      "t": 23863.61249999997,
      "d": 454.54499999999825,
      "v": 127
    },
    {
      "midi": 53,
      "hit": false,
      "t": 24090.884999999973,
      "d": 454.54499999999825,
      "v": 127
    },
    {
      "midi": 58,
      "hit": false,
      "t": 24090.884999999973,
      "d": 454.54499999999825,
      "v": 127
    },
    {
      "midi": 62,
      "hit": false,
      "t": 24090.884999999973,
      "d": 454.54499999999825,
      "v": 127
    },
    {
      "midi": 74,
      "hit": false,
      "t": 24318.15749999997,
      "d": 227.27249999999913,
      "v": 127
    },
    {
      "midi": 77,
      "hit": false,
      "t": 24545.429999999968,
      "d": 454.54499999999825,
      "v": 127
    },
    {
      "midi": 74,
      "hit": false,
      "t": 24545.429999999968,
      "d": 909.0899999999965,
      "v": 127
    },
    {
      "midi": 46,
      "hit": false,
      "t": 24545.42999999997,
      "d": 454.54499999999825,
      "v": 127
    },
    {
      "midi": 76,
      "hit": false,
      "t": 24999.974999999966,
      "d": 227.27249999999913,
      "v": 127
    },
    {
      "midi": 53,
      "hit": false,
      "t": 24999.97499999997,
      "d": 454.54499999999825,
      "v": 127
    },
    {
      "midi": 58,
      "hit": false,
      "t": 24999.97499999997,
      "d": 454.54499999999825,
      "v": 127
    },
    {
      "midi": 62,
      "hit": false,
      "t": 24999.97499999997,
      "d": 454.54499999999825,
      "v": 127
    },
    {
      "midi": 77,
      "hit": false,
      "t": 25227.247499999965,
      "d": 227.27249999999913,
      "v": 127
    },
    {
      "midi": 78,
      "hit": false,
      "t": 25454.519999999964,
      "d": 681.817500000001,
      "v": 127
    },
    {
      "midi": 74,
      "hit": false,
      "t": 25454.519999999964,
      "d": 909.0900000000001,
      "v": 127
    },
    {
      "midi": 45,
      "hit": false,
      "t": 25454.519999999968,
      "d": 454.54499999999825,
      "v": 127
    },
    {
      "midi": 57,
      "hit": false,
      "t": 25454.519999999968,
      "d": 454.54499999999825,
      "v": 127
    },
    {
      "midi": 54,
      "hit": false,
      "t": 25909.064999999966,
      "d": 454.54499999999825,
      "v": 127
    },
    {
      "midi": 60,
      "hit": false,
      "t": 25909.064999999966,
      "d": 454.54499999999825,
      "v": 127
    },
    {
      "midi": 62,
      "hit": false,
      "t": 25909.064999999966,
      "d": 454.54499999999825,
      "v": 127
    },
    {
      "midi": 81,
      "hit": false,
      "t": 26136.337499999965,
      "d": 227.27249999999913,
      "v": 127
    },
    {
      "midi": 87,
      "hit": false,
      "t": 26363.609999999964,
      "d": 227.27249999999913,
      "v": 127
    },
    {
      "midi": 78,
      "hit": false,
      "t": 26363.609999999964,
      "d": 909.0899999999965,
      "v": 127
    },
    {
      "midi": 38,
      "hit": false,
      "t": 26363.609999999964,
      "d": 454.54499999999825,
      "v": 127
    },
    {
      "midi": 50,
      "hit": false,
      "t": 26363.609999999964,
      "d": 454.54499999999825,
      "v": 127
    },
    {
      "midi": 86,
      "hit": false,
      "t": 26590.882499999963,
      "d": 454.54499999999825,
      "v": 127
    },
    {
      "midi": 54,
      "hit": false,
      "t": 26818.154999999962,
      "d": 454.54499999999825,
      "v": 127
    },
    {
      "midi": 60,
      "hit": false,
      "t": 26818.154999999962,
      "d": 454.54499999999825,
      "v": 127
    },
    {
      "midi": 62,
      "hit": false,
      "t": 26818.154999999962,
      "d": 454.54499999999825,
      "v": 127
    },
    {
      "midi": 84,
      "hit": false,
      "t": 27045.42749999996,
      "d": 227.27249999999913,
      "v": 127
    },
    {
      "midi": 79,
      "hit": false,
      "t": 27272.69999999996,
      "d": 1363.6349999999984,
      "v": 127
    },
    {
      "midi": 82,
      "hit": false,
      "t": 27272.69999999996,
      "d": 1363.6349999999984,
      "v": 127
    },
    {
      "midi": 55,
      "hit": false,
      "t": 27272.69999999996,
      "d": 454.54499999999825,
      "v": 127
    },
    {
      "midi": 58,
      "hit": false,
      "t": 27272.69999999996,
      "d": 454.54499999999825,
      "v": 127
    },
    {
      "midi": 62,
      "hit": false,
      "t": 27272.69999999996,
      "d": 454.54499999999825,
      "v": 127
    },
    {
      "midi": 46,
      "hit": false,
      "t": 27727.24499999996,
      "d": 227.27249999999913,
      "v": 127
    },
    {
      "midi": 58,
      "hit": false,
      "t": 27727.24499999996,
      "d": 227.27249999999913,
      "v": 127
    },
    {
      "midi": 45,
      "hit": false,
      "t": 27954.517499999958,
      "d": 227.27249999999913,
      "v": 127
    },
    {
      "midi": 57,
      "hit": false,
      "t": 27954.517499999958,
      "d": 227.27249999999913,
      "v": 127
    },
    {
      "midi": 43,
      "hit": false,
      "t": 28181.789999999957,
      "d": 227.27249999999913,
      "v": 127
    },
    {
      "midi": 55,
      "hit": false,
      "t": 28181.789999999957,
      "d": 227.27249999999913,
      "v": 127
    },
    {
      "midi": 42,
      "hit": false,
      "t": 28409.062499999956,
      "d": 227.27249999999913,
      "v": 127
    },
    {
      "midi": 54,
      "hit": false,
      "t": 28409.062499999956,
      "d": 227.27249999999913,
      "v": 127
    },
    {
      "midi": 41,
      "hit": false,
      "t": 28636.334999999955,
      "d": 454.54499999999825,
      "v": 127
    },
    {
      "midi": 53,
      "hit": false,
      "t": 28636.334999999955,
      "d": 454.54499999999825,
      "v": 127
    },
    {
      "midi": 74,
      "hit": false,
      "t": 28636.33499999996,
      "d": 454.54499999999825,
      "v": 127
    },
    {
      "midi": 80,
      "hit": false,
      "t": 28636.33499999996,
      "d": 454.54499999999825,
      "v": 127
    },
    {
      "midi": 39,
      "hit": false,
      "t": 29090.879999999954,
      "d": 454.54499999999825,
      "v": 127
    },
    {
      "midi": 51,
      "hit": false,
      "t": 29090.879999999954,
      "d": 454.54499999999825,
      "v": 127
    },
    {
      "midi": 75,
      "hit": false,
      "t": 29090.879999999957,
      "d": 681.817500000001,
      "v": 127
    },
    {
      "midi": 79,
      "hit": false,
      "t": 29090.879999999957,
      "d": 681.817500000001,
      "v": 127
    },
    {
      "midi": 55,
      "hit": false,
      "t": 29545.424999999952,
      "d": 454.54499999999825,
      "v": 127
    },
    {
      "midi": 58,
      "hit": false,
      "t": 29545.424999999952,
      "d": 454.54499999999825,
      "v": 127
    },
    {
      "midi": 63,
      "hit": false,
      "t": 29545.424999999952,
      "d": 454.54499999999825,
      "v": 127
    },
    {
      "midi": 74,
      "hit": false,
      "t": 29772.69749999996,
      "d": 227.27249999999913,
      "v": 127
    },
    {
      "midi": 77,
      "hit": false,
      "t": 29772.69749999996,
      "d": 227.27249999999913,
      "v": 127
    },
    {
      "midi": 43,
      "hit": false,
      "t": 29999.96999999995,
      "d": 454.54499999999825,
      "v": 127
    },
    {
      "midi": 55,
      "hit": false,
      "t": 29999.96999999995,
      "d": 454.54499999999825,
      "v": 127
    },
    {
      "midi": 72,
      "hit": false,
      "t": 29999.969999999958,
      "d": 227.27249999999913,
      "v": 127
    },
    {
      "midi": 75,
      "hit": false,
      "t": 29999.969999999958,
      "d": 227.27249999999913,
      "v": 127
    },
    {
      "midi": 74,
      "hit": false,
      "t": 30227.242499999957,
      "d": 227.27249999999913,
      "v": 127
    },
    {
      "midi": 42,
      "hit": false,
      "t": 30454.51499999995,
      "d": 454.54499999999825,
      "v": 127
    },
    {
      "midi": 54,
      "hit": false,
      "t": 30454.51499999995,
      "d": 454.54499999999825,
      "v": 127
    },
    {
      "midi": 75,
      "hit": false,
      "t": 30454.514999999956,
      "d": 227.27249999999913,
      "v": 127
    },
    {
      "midi": 82,
      "hit": false,
      "t": 30681.787499999955,
      "d": 227.27249999999913,
      "v": 127
    },
    {
      "midi": 41,
      "hit": false,
      "t": 30909.059999999947,
      "d": 454.54499999999825,
      "v": 127
    },
    {
      "midi": 53,
      "hit": false,
      "t": 30909.059999999947,
      "d": 454.54499999999825,
      "v": 127
    },
    {
      "midi": 82,
      "hit": false,
      "t": 30909.059999999954,
      "d": 681.817500000001,
      "v": 127
    },
    {
      "midi": 74,
      "hit": false,
      "t": 30909.059999999954,
      "d": 909.0900000000001,
      "v": 127
    },
    {
      "midi": 70,
      "hit": false,
      "t": 30909.059999999954,
      "d": 2727.269999999997,
      "v": 127
    },
    {
      "midi": 53,
      "hit": false,
      "t": 31363.604999999945,
      "d": 454.54499999999825,
      "v": 127
    },
    {
      "midi": 58,
      "hit": false,
      "t": 31363.604999999945,
      "d": 454.54499999999825,
      "v": 127
    },
    {
      "midi": 62,
      "hit": false,
      "t": 31363.604999999945,
      "d": 454.54499999999825,
      "v": 127
    },
    {
      "midi": 76,
      "hit": false,
      "t": 31590.877499999955,
      "d": 227.27249999999913,
      "v": 127
    },
    {
      "midi": 53,
      "hit": false,
      "t": 31818.149999999943,
      "d": 454.54499999999825,
      "v": 127
    },
    {
      "midi": 58,
      "hit": false,
      "t": 31818.149999999943,
      "d": 454.54499999999825,
      "v": 127
    },
    {
      "midi": 62,
      "hit": false,
      "t": 31818.149999999943,
      "d": 454.54499999999825,
      "v": 127
    },
    {
      "midi": 74,
      "hit": false,
      "t": 31818.149999999954,
      "d": 227.27249999999913,
      "v": 127
    },
    {
      "midi": 77,
      "hit": false,
      "t": 31818.149999999954,
      "d": 227.27249999999913,
      "v": 127
    },
    {
      "midi": 75,
      "hit": false,
      "t": 32045.422499999953,
      "d": 227.27249999999913,
      "v": 127
    },
    {
      "midi": 50,
      "hit": false,
      "t": 32272.69499999994,
      "d": 227.27249999999913,
      "v": 127
    },
    {
      "midi": 62,
      "hit": false,
      "t": 32272.69499999994,
      "d": 227.27249999999913,
      "v": 127
    },
    {
      "midi": 77,
      "hit": false,
      "t": 32272.694999999952,
      "d": 227.27249999999913,
      "v": 127
    },
    {
      "midi": 49,
      "hit": false,
      "t": 32499.96749999994,
      "d": 227.27249999999913,
      "v": 127
    },
    {
      "midi": 61,
      "hit": false,
      "t": 32499.96749999994,
      "d": 227.27249999999913,
      "v": 127
    },
    {
      "midi": 76,
      "hit": false,
      "t": 32499.96749999995,
      "d": 227.27249999999913,
      "v": 127
    },
    {
      "midi": 78,
      "hit": false,
      "t": 32499.96749999995,
      "d": 227.27249999999913,
      "v": 127
    },
    {
      "midi": 48,
      "hit": false,
      "t": 32727.23999999994,
      "d": 454.54499999999825,
      "v": 127
    },
    {
      "midi": 60,
      "hit": false,
      "t": 32727.23999999994,
      "d": 454.54499999999825,
      "v": 127
    },
    {
      "midi": 75,
      "hit": false,
      "t": 32727.23999999995,
      "d": 227.27250000000276,
      "v": 127
    },
    {
      "midi": 79,
      "hit": false,
      "t": 32727.23999999995,
      "d": 227.27250000000276,
      "v": 127
    },
    {
      "midi": 82,
      "hit": false,
      "t": 32954.51249999995,
      "d": 454.54499999999825,
      "v": 127
    },
    {
      "midi": 55,
      "hit": false,
      "t": 33181.78499999994,
      "d": 454.54499999999825,
      "v": 127
    },
    {
      "midi": 60,
      "hit": false,
      "t": 33181.78499999994,
      "d": 454.54499999999825,
      "v": 127
    },
    {
      "midi": 63,
      "hit": false,
      "t": 33181.78499999994,
      "d": 454.54499999999825,
      "v": 127
    },
    {
      "midi": 75,
      "hit": false,
      "t": 33409.05749999995,
      "d": 227.27249999999913,
      "v": 127
    },
    {
      "midi": 41,
      "hit": false,
      "t": 33636.329999999936,
      "d": 909.0899999999965,
      "v": 127
    },
    {
      "midi": 53,
      "hit": false,
      "t": 33636.329999999936,
      "d": 909.0899999999965,
      "v": 127
    },
    {
      "midi": 67,
      "hit": false,
      "t": 33636.32999999995,
      "d": 227.27249999999913,
      "v": 127
    },
    {
      "midi": 69,
      "hit": false,
      "t": 33636.32999999995,
      "d": 227.27249999999913,
      "v": 127
    },
    {
      "midi": 75,
      "hit": false,
      "t": 33636.32999999995,
      "d": 227.27249999999913,
      "v": 127
    },
    {
      "midi": 65,
      "hit": false,
      "t": 33863.60249999995,
      "d": 227.27249999999913,
      "v": 127
    },
    {
      "midi": 69,
      "hit": false,
      "t": 33863.60249999995,
      "d": 227.27249999999913,
      "v": 127
    },
    {
      "midi": 74,
      "hit": false,
      "t": 33863.60249999995,
      "d": 227.27249999999913,
      "v": 127
    },
    {
      "midi": 63,
      "hit": false,
      "t": 34090.87499999995,
      "d": 454.54499999999825,
      "v": 127
    },
    {
      "midi": 69,
      "hit": false,
      "t": 34090.87499999995,
      "d": 454.54499999999825,
      "v": 127
    },
    {
      "midi": 72,
      "hit": false,
      "t": 34090.87499999995,
      "d": 454.54499999999825,
      "v": 127
    },
    {
      "midi": 46,
      "hit": false,
      "t": 34545.41999999993,
      "d": 454.54499999999825,
      "v": 127
    },
    {
      "midi": 58,
      "hit": false,
      "t": 34545.41999999993,
      "d": 454.54499999999825,
      "v": 127
    },
    {
      "midi": 62,
      "hit": false,
      "t": 34545.41999999995,
      "d": 1363.635000000002,
      "v": 127
    },
    {
      "midi": 65,
      "hit": false,
      "t": 34545.41999999995,
      "d": 1363.635000000002,
      "v": 127
    },
    {
      "midi": 70,
      "hit": false,
      "t": 34545.41999999995,
      "d": 1363.635000000002,
      "v": 127
    },
    {
      "midi": 41,
      "hit": false,
      "t": 34999.96499999993,
      "d": 227.27249999999913,
      "v": 127
    },
    {
      "midi": 53,
      "hit": false,
      "t": 34999.96499999993,
      "d": 227.27249999999913,
      "v": 127
    },
    {
      "midi": 40,
      "hit": false,
      "t": 35227.23749999993,
      "d": 227.27249999999913,
      "v": 127
    },
    {
      "midi": 52,
      "hit": false,
      "t": 35227.23749999993,
      "d": 227.27249999999913,
      "v": 127
    },
    {
      "midi": 41,
      "hit": false,
      "t": 35454.50999999993,
      "d": 227.27249999999913,
      "v": 127
    },
    {
      "midi": 53,
      "hit": false,
      "t": 35454.50999999993,
      "d": 227.27249999999913,
      "v": 127
    },
    {
      "midi": 42,
      "hit": false,
      "t": 35681.78249999993,
      "d": 227.27249999999913,
      "v": 127
    },
    {
      "midi": 54,
      "hit": false,
      "t": 35681.78249999993,
      "d": 227.27249999999913,
      "v": 127
    },
    {
      "midi": 43,
      "hit": false,
      "t": 35909.05499999993,
      "d": 227.27249999999913,
      "v": 127
    },
    {
      "midi": 55,
      "hit": false,
      "t": 35909.05499999993,
      "d": 227.27249999999913,
      "v": 127
    },
    {
      "midi": 65,
      "hit": false,
      "t": 35909.05499999995,
      "d": 454.54499999999825,
      "v": 127
    },
    {
      "midi": 72,
      "hit": false,
      "t": 35909.05499999995,
      "d": 454.54499999999825,
      "v": 127
    },
    {
      "midi": 75,
      "hit": false,
      "t": 35909.05499999995,
      "d": 454.54499999999825,
      "v": 127
    },
    {
      "midi": 45,
      "hit": false,
      "t": 36136.32749999993,
      "d": 227.27249999999913,
      "v": 127
    },
    {
      "midi": 57,
      "hit": false,
      "t": 36136.32749999993,
      "d": 227.27249999999913,
      "v": 127
    },
    {
      "midi": 46,
      "hit": false,
      "t": 36363.599999999926,
      "d": 454.54499999999825,
      "v": 127
    },
    {
      "midi": 58,
      "hit": false,
      "t": 36363.599999999926,
      "d": 454.54499999999825,
      "v": 127
    },
    {
      "midi": 74,
      "hit": false,
      "t": 36363.59999999995,
      "d": 681.8174999999974,
      "v": 127
    },
    {
      "midi": 65,
      "hit": false,
      "t": 36363.59999999995,
      "d": 1818.179999999993,
      "v": 127
    },
    {
      "midi": 70,
      "hit": false,
      "t": 36363.59999999995,
      "d": 1818.179999999993,
      "v": 127
    },
    {
      "midi": 53,
      "hit": false,
      "t": 36818.144999999924,
      "d": 454.54499999999825,
      "v": 127
    },
    {
      "midi": 58,
      "hit": false,
      "t": 36818.144999999924,
      "d": 454.54499999999825,
      "v": 127
    },
    {
      "midi": 62,
      "hit": false,
      "t": 36818.144999999924,
      "d": 454.54499999999825,
      "v": 127
    },
    {
      "midi": 72,
      "hit": false,
      "t": 37045.417499999945,
      "d": 227.27249999999913,
      "v": 127
    },
    {
      "midi": 43,
      "hit": false,
      "t": 37272.68999999992,
      "d": 454.54499999999825,
      "v": 127
    },
    {
      "midi": 55,
      "hit": false,
      "t": 37272.68999999992,
      "d": 454.54499999999825,
      "v": 127
    },
    {
      "midi": 72,
      "hit": false,
      "t": 37499.96249999994,
      "d": 227.27249999999913,
      "v": 127
    },
    {
      "midi": 41,
      "hit": false,
      "t": 37727.23499999992,
      "d": 454.54499999999825,
      "v": 127
    },
    {
      "midi": 53,
      "hit": false,
      "t": 37727.23499999992,
      "d": 454.54499999999825,
      "v": 127
    },
    {
      "midi": 74,
      "hit": false,
      "t": 37727.23499999994,
      "d": 227.27249999999913,
      "v": 127
    },
    {
      "midi": 75,
      "hit": false,
      "t": 37954.50749999994,
      "d": 227.27249999999913,
      "v": 127
    },
    {
      "midi": 38,
      "hit": false,
      "t": 38181.77999999992,
      "d": 454.54499999999825,
      "v": 127
    },
    {
      "midi": 50,
      "hit": false,
      "t": 38181.77999999992,
      "d": 454.54499999999825,
      "v": 127
    },
    {
      "midi": 77,
      "hit": false,
      "t": 38181.77999999994,
      "d": 227.27249999999913,
      "v": 127
    },
    {
      "midi": 70,
      "hit": false,
      "t": 38181.77999999994,
      "d": 909.0899999999965,
      "v": 127
    },
    {
      "midi": 79,
      "hit": false,
      "t": 38409.05249999994,
      "d": 454.54499999999825,
      "v": 127
    },
    {
      "midi": 53,
      "hit": false,
      "t": 38636.32499999992,
      "d": 454.54499999999825,
      "v": 127
    },
    {
      "midi": 58,
      "hit": false,
      "t": 38636.32499999992,
      "d": 454.54499999999825,
      "v": 127
    },
    {
      "midi": 62,
      "hit": false,
      "t": 38636.32499999992,
      "d": 454.54499999999825,
      "v": 127
    },
    {
      "midi": 74,
      "hit": false,
      "t": 38863.59749999994,
      "d": 227.27249999999913,
      "v": 127
    },
    {
      "midi": 46,
      "hit": false,
      "t": 39090.869999999915,
      "d": 454.54499999999825,
      "v": 127
    },
    {
      "midi": 74,
      "hit": false,
      "t": 39090.86999999994,
      "d": 454.54499999999825,
      "v": 127
    },
    {
      "midi": 77,
      "hit": false,
      "t": 39090.86999999994,
      "d": 454.54499999999825,
      "v": 127
    },
    {
      "midi": 56,
      "hit": false,
      "t": 39545.41499999991,
      "d": 454.54499999999825,
      "v": 127
    },
    {
      "midi": 58,
      "hit": false,
      "t": 39545.41499999991,
      "d": 454.54499999999825,
      "v": 127
    },
    {
      "midi": 62,
      "hit": false,
      "t": 39545.41499999991,
      "d": 454.54499999999825,
      "v": 127
    },
    {
      "midi": 86,
      "hit": false,
      "t": 39545.414999999935,
      "d": 227.27249999999913,
      "v": 127
    },
    {
      "midi": 77,
      "hit": false,
      "t": 39545.414999999935,
      "d": 454.54499999999825,
      "v": 127
    },
    {
      "midi": 84,
      "hit": false,
      "t": 39772.687499999935,
      "d": 227.27249999999913,
      "v": 127
    },
    {
      "midi": 39,
      "hit": false,
      "t": 39999.95999999991,
      "d": 454.54499999999825,
      "v": 127
    },
    {
      "midi": 51,
      "hit": false,
      "t": 39999.95999999991,
      "d": 454.54499999999825,
      "v": 127
    },
    {
      "midi": 79,
      "hit": false,
      "t": 39999.959999999934,
      "d": 681.8174999999974,
      "v": 127
    },
    {
      "midi": 82,
      "hit": false,
      "t": 39999.959999999934,
      "d": 681.8174999999974,
      "v": 127
    },
    {
      "midi": 55,
      "hit": false,
      "t": 40454.50499999991,
      "d": 454.54499999999825,
      "v": 127
    },
    {
      "midi": 58,
      "hit": false,
      "t": 40454.50499999991,
      "d": 454.54499999999825,
      "v": 127
    },
    {
      "midi": 63,
      "hit": false,
      "t": 40454.50499999991,
      "d": 454.54499999999825,
      "v": 127
    },
    {
      "midi": 77,
      "hit": false,
      "t": 40681.77749999993,
      "d": 227.27249999999913,
      "v": 127
    },
    {
      "midi": 81,
      "hit": false,
      "t": 40681.77749999993,
      "d": 227.27249999999913,
      "v": 127
    },
    {
      "midi": 43,
      "hit": false,
      "t": 40909.04999999991,
      "d": 454.54499999999825,
      "v": 127
    },
    {
      "midi": 55,
      "hit": false,
      "t": 40909.04999999991,
      "d": 454.54499999999825,
      "v": 127
    },
    {
      "midi": 75,
      "hit": false,
      "t": 40909.04999999993,
      "d": 227.27249999999913,
      "v": 127
    },
    {
      "midi": 79,
      "hit": false,
      "t": 40909.04999999993,
      "d": 227.27249999999913,
      "v": 127
    },
    {
      "midi": 72,
      "hit": false,
      "t": 41136.32249999993,
      "d": 454.54499999999825,
      "v": 127
    },
    {
      "midi": 75,
      "hit": false,
      "t": 41136.32249999993,
      "d": 454.54499999999825,
      "v": 127
    },
    {
      "midi": 42,
      "hit": false,
      "t": 41363.59499999991,
      "d": 454.54499999999825,
      "v": 127
    },
    {
      "midi": 54,
      "hit": false,
      "t": 41363.59499999991,
      "d": 454.54499999999825,
      "v": 127
    },
    {
      "midi": 70,
      "hit": false,
      "t": 41590.86749999993,
      "d": 909.0899999999965,
      "v": 127
    },
    {
      "midi": 74,
      "hit": false,
      "t": 41590.86749999993,
      "d": 909.0899999999965,
      "v": 127
    },
    {
      "midi": 41,
      "hit": false,
      "t": 41818.139999999905,
      "d": 454.54499999999825,
      "v": 127
    },
    {
      "midi": 53,
      "hit": false,
      "t": 41818.139999999905,
      "d": 454.54499999999825,
      "v": 127
    },
    {
      "midi": 46,
      "hit": false,
      "t": 42272.6849999999,
      "d": 454.54499999999825,
      "v": 127
    },
    {
      "midi": 58,
      "hit": false,
      "t": 42272.6849999999,
      "d": 454.54499999999825,
      "v": 127
    },
    {
      "midi": 45,
      "hit": false,
      "t": 42727.2299999999,
      "d": 454.54499999999825,
      "v": 127
    },
    {
      "midi": 57,
      "hit": false,
      "t": 42727.2299999999,
      "d": 454.54499999999825,
      "v": 127
    },
    {
      "midi": 72,
      "hit": false,
      "t": 42727.22999999992,
      "d": 909.0899999999965,
      "v": 127
    },
    {
      "midi": 75,
      "hit": false,
      "t": 42727.22999999992,
      "d": 909.0899999999965,
      "v": 127
    },
    {
      "midi": 41,
      "hit": false,
      "t": 43181.7749999999,
      "d": 454.54499999999825,
      "v": 127
    },
    {
      "midi": 53,
      "hit": false,
      "t": 43181.7749999999,
      "d": 454.54499999999825,
      "v": 127
    },
    {
      "midi": 46,
      "hit": false,
      "t": 43636.3199999999,
      "d": 454.54499999999825,
      "v": 127
    },
    {
      "midi": 58,
      "hit": false,
      "t": 43636.3199999999,
      "d": 454.54499999999825,
      "v": 127
    },
    {
      "midi": 74,
      "hit": false,
      "t": 43636.31999999992,
      "d": 681.8174999999974,
      "v": 127
    },
    {
      "midi": 70,
      "hit": false,
      "t": 43636.31999999992,
      "d": 1818.179999999993,
      "v": 127
    },
    {
      "midi": 53,
      "hit": false,
      "t": 44090.864999999896,
      "d": 454.54499999999825,
      "v": 127
    },
    {
      "midi": 58,
      "hit": false,
      "t": 44090.864999999896,
      "d": 454.54499999999825,
      "v": 127
    },
    {
      "midi": 62,
      "hit": false,
      "t": 44090.864999999896,
      "d": 454.54499999999825,
      "v": 127
    },
    {
      "midi": 72,
      "hit": false,
      "t": 44318.13749999992,
      "d": 227.27249999999913,
      "v": 127
    },
    {
      "midi": 43,
      "hit": false,
      "t": 44545.409999999894,
      "d": 454.54499999999825,
      "v": 127
    },
    {
      "midi": 55,
      "hit": false,
      "t": 44545.409999999894,
      "d": 454.54499999999825,
      "v": 127
    },
    {
      "midi": 72,
      "hit": false,
      "t": 44772.682499999915,
      "d": 227.27249999999913,
      "v": 127
    },
    {
      "midi": 41,
      "hit": false,
      "t": 44999.95499999989,
      "d": 454.54499999999825,
      "v": 127
    },
    {
      "midi": 53,
      "hit": false,
      "t": 44999.95499999989,
      "d": 454.54499999999825,
      "v": 127
    },
    {
      "midi": 74,
      "hit": false,
      "t": 44999.954999999914,
      "d": 227.27249999999913,
      "v": 127
    },
    {
      "midi": 75,
      "hit": false,
      "t": 45227.22749999991,
      "d": 227.27249999999913,
      "v": 127
    },
    {
      "midi": 38,
      "hit": false,
      "t": 45454.49999999989,
      "d": 454.54499999999825,
      "v": 127
    },
    {
      "midi": 50,
      "hit": false,
      "t": 45454.49999999989,
      "d": 454.54499999999825,
      "v": 127
    },
    {
      "midi": 77,
      "hit": false,
      "t": 45454.49999999991,
      "d": 227.27249999999913,
      "v": 127
    },
    {
      "midi": 70,
      "hit": false,
      "t": 45454.49999999991,
      "d": 1363.6349999999948,
      "v": 127
    },
    {
      "midi": 79,
      "hit": false,
      "t": 45681.77249999991,
      "d": 454.54499999999825,
      "v": 127
    },
    {
      "midi": 58,
      "hit": false,
      "t": 45909.04499999989,
      "d": 454.54499999999825,
      "v": 127
    },
    {
      "midi": 62,
      "hit": false,
      "t": 45909.04499999989,
      "d": 454.54499999999825,
      "v": 127
    },
    {
      "midi": 65,
      "hit": false,
      "t": 45909.04499999989,
      "d": 454.54499999999825,
      "v": 127
    },
    {
      "midi": 74,
      "hit": false,
      "t": 46136.31749999991,
      "d": 227.27249999999913,
      "v": 127
    },
    {
      "midi": 37,
      "hit": false,
      "t": 46363.58999999989,
      "d": 454.54499999999825,
      "v": 127
    },
    {
      "midi": 49,
      "hit": false,
      "t": 46363.58999999989,
      "d": 454.54499999999825,
      "v": 127
    },
    {
      "midi": 77,
      "hit": false,
      "t": 46363.58999999991,
      "d": 454.54499999999825,
      "v": 127
    },
    {
      "midi": 58,
      "hit": false,
      "t": 46818.134999999886,
      "d": 454.54499999999825,
      "v": 127
    },
    {
      "midi": 61,
      "hit": false,
      "t": 46818.134999999886,
      "d": 454.54499999999825,
      "v": 127
    },
    {
      "midi": 65,
      "hit": false,
      "t": 46818.134999999886,
      "d": 454.54499999999825,
      "v": 127
    },
    {
      "midi": 77,
      "hit": false,
      "t": 46818.13499999991,
      "d": 227.27249999999913,
      "v": 127
    },
    {
      "midi": 70,
      "hit": false,
      "t": 46818.13499999991,
      "d": 454.54499999999825,
      "v": 127
    },
    {
      "midi": 79,
      "hit": false,
      "t": 47045.40749999991,
      "d": 227.27249999999913,
      "v": 127
    },
    {
      "midi": 36,
      "hit": false,
      "t": 47272.679999999884,
      "d": 454.54499999999825,
      "v": 127
    },
    {
      "midi": 48,
      "hit": false,
      "t": 47272.679999999884,
      "d": 454.54499999999825,
      "v": 127
    },
    {
      "midi": 81,
      "hit": false,
      "t": 47272.679999999906,
      "d": 681.8174999999974,
      "v": 127
    },
    {
      "midi": 72,
      "hit": false,
      "t": 47272.679999999906,
      "d": 909.0899999999965,
      "v": 127
    },
    {
      "midi": 57,
      "hit": false,
      "t": 47727.22499999988,
      "d": 454.54499999999825,
      "v": 127
    },
    {
      "midi": 60,
      "hit": false,
      "t": 47727.22499999988,
      "d": 454.54499999999825,
      "v": 127
    },
    {
      "midi": 65,
      "hit": false,
      "t": 47727.22499999988,
      "d": 454.54499999999825,
      "v": 127
    },
    {
      "midi": 84,
      "hit": false,
      "t": 47954.4974999999,
      "d": 227.27249999999913,
      "v": 127
    },
    {
      "midi": 48,
      "hit": false,
      "t": 48181.76999999988,
      "d": 454.54499999999825,
      "v": 127
    },
    {
      "midi": 72,
      "hit": false,
      "t": 48181.7699999999,
      "d": 227.27249999999913,
      "v": 127
    },
    {
      "midi": 70,
      "hit": false,
      "t": 48409.0424999999,
      "d": 454.54499999999825,
      "v": 127
    },
    {
      "midi": 79,
      "hit": false,
      "t": 48409.0424999999,
      "d": 454.54499999999825,
      "v": 127
    },
    {
      "midi": 58,
      "hit": false,
      "t": 48636.31499999988,
      "d": 454.54499999999825,
      "v": 127
    },
    {
      "midi": 60,
      "hit": false,
      "t": 48636.31499999988,
      "d": 454.54499999999825,
      "v": 127
    },
    {
      "midi": 64,
      "hit": false,
      "t": 48636.31499999988,
      "d": 454.54499999999825,
      "v": 127
    },
    {
      "midi": 77,
      "hit": false,
      "t": 48863.5874999999,
      "d": 681.8174999999974,
      "v": 127
    },
    {
      "midi": 69,
      "hit": false,
      "t": 48863.5874999999,
      "d": 1818.179999999993,
      "v": 127
    },
    {
      "midi": 53,
      "hit": false,
      "t": 49090.85999999988,
      "d": 454.54499999999825,
      "v": 127
    },
    {
      "midi": 57,
      "hit": false,
      "t": 49090.85999999988,
      "d": 454.54499999999825,
      "v": 127
    },
    {
      "midi": 60,
      "hit": false,
      "t": 49090.85999999988,
      "d": 454.54499999999825,
      "v": 127
    },
    {
      "midi": 65,
      "hit": false,
      "t": 49090.85999999988,
      "d": 454.54499999999825,
      "v": 127
    },
    {
      "midi": 41,
      "hit": false,
      "t": 49545.404999999875,
      "d": 454.54499999999825,
      "v": 127
    },
    {
      "midi": 53,
      "hit": false,
      "t": 49545.404999999875,
      "d": 454.54499999999825,
      "v": 127
    },
    {
      "midi": 79,
      "hit": false,
      "t": 49545.4049999999,
      "d": 227.27249999999913,
      "v": 127
    },
    {
      "midi": 77,
      "hit": false,
      "t": 49772.677499999896,
      "d": 227.27249999999913,
      "v": 127
    },
    {
      "midi": 43,
      "hit": false,
      "t": 49999.94999999987,
      "d": 454.54499999999825,
      "v": 127
    },
    {
      "midi": 55,
      "hit": false,
      "t": 49999.94999999987,
      "d": 454.54499999999825,
      "v": 127
    },
    {
      "midi": 75,
      "hit": false,
      "t": 49999.949999999895,
      "d": 227.27249999999913,
      "v": 127
    },
    {
      "midi": 74,
      "hit": false,
      "t": 50227.222499999894,
      "d": 227.27249999999913,
      "v": 127
    },
    {
      "midi": 45,
      "hit": false,
      "t": 50454.49499999987,
      "d": 454.54499999999825,
      "v": 127
    },
    {
      "midi": 57,
      "hit": false,
      "t": 50454.49499999987,
      "d": 454.54499999999825,
      "v": 127
    },
    {
      "midi": 72,
      "hit": false,
      "t": 50454.49499999989,
      "d": 227.27249999999913,
      "v": 127
    },
    {
      "midi": 77,
      "hit": false,
      "t": 50681.76749999989,
      "d": 227.27249999999913,
      "v": 127
    },
    {
      "midi": 46,
      "hit": false,
      "t": 50909.03999999987,
      "d": 454.54499999999825,
      "v": 127
    },
    {
      "midi": 58,
      "hit": false,
      "t": 50909.03999999987,
      "d": 454.54499999999825,
      "v": 127
    },
    {
      "midi": 74,
      "hit": false,
      "t": 50909.03999999989,
      "d": 681.8174999999974,
      "v": 127
    },
    {
      "midi": 65,
      "hit": false,
      "t": 50909.03999999989,
      "d": 1818.179999999993,
      "v": 127
    },
    {
      "midi": 53,
      "hit": false,
      "t": 51363.58499999987,
      "d": 454.54499999999825,
      "v": 127
    },
    {
      "midi": 58,
      "hit": false,
      "t": 51363.58499999987,
      "d": 454.54499999999825,
      "v": 127
    },
    {
      "midi": 62,
      "hit": false,
      "t": 51363.58499999987,
      "d": 454.54499999999825,
      "v": 127
    },
    {
      "midi": 72,
      "hit": false,
      "t": 51590.85749999989,
      "d": 227.27249999999913,
      "v": 127
    },
    {
      "midi": 43,
      "hit": false,
      "t": 51818.12999999987,
      "d": 454.54499999999825,
      "v": 127
    },
    {
      "midi": 55,
      "hit": false,
      "t": 51818.12999999987,
      "d": 454.54499999999825,
      "v": 127
    },
    {
      "midi": 70,
      "hit": false,
      "t": 51818.12999999989,
      "d": 227.27249999999913,
      "v": 127
    },
    {
      "midi": 72,
      "hit": false,
      "t": 52045.40249999989,
      "d": 227.27249999999913,
      "v": 127
    },
    {
      "midi": 41,
      "hit": false,
      "t": 52272.674999999865,
      "d": 454.54499999999825,
      "v": 127
    },
    {
      "midi": 53,
      "hit": false,
      "t": 52272.674999999865,
      "d": 454.54499999999825,
      "v": 127
    },
    {
      "midi": 74,
      "hit": false,
      "t": 52272.67499999989,
      "d": 227.27249999999913,
      "v": 127
    },
    {
      "midi": 75,
      "hit": false,
      "t": 52499.947499999886,
      "d": 227.27249999999913,
      "v": 127
    },
    {
      "midi": 38,
      "hit": false,
      "t": 52727.21999999986,
      "d": 454.54499999999825,
      "v": 127
    },
    {
      "midi": 50,
      "hit": false,
      "t": 52727.21999999986,
      "d": 454.54499999999825,
      "v": 127
    },
    {
      "midi": 77,
      "hit": false,
      "t": 52727.219999999885,
      "d": 227.27249999999913,
      "v": 127
    },
    {
      "midi": 70,
      "hit": false,
      "t": 52727.219999999885,
      "d": 909.0899999999965,
      "v": 127
    },
    {
      "midi": 79,
      "hit": false,
      "t": 52954.492499999884,
      "d": 454.54499999999825,
      "v": 127
    },
    {
      "midi": 53,
      "hit": false,
      "t": 53181.76499999986,
      "d": 454.54499999999825,
      "v": 127
    },
    {
      "midi": 58,
      "hit": false,
      "t": 53181.76499999986,
      "d": 454.54499999999825,
      "v": 127
    },
    {
      "midi": 62,
      "hit": false,
      "t": 53181.76499999986,
      "d": 454.54499999999825,
      "v": 127
    },
    {
      "midi": 74,
      "hit": false,
      "t": 53409.03749999988,
      "d": 227.27249999999913,
      "v": 127
    },
    {
      "midi": 46,
      "hit": false,
      "t": 53636.30999999986,
      "d": 454.54499999999825,
      "v": 127
    },
    {
      "midi": 77,
      "hit": false,
      "t": 53636.30999999988,
      "d": 454.54499999999825,
      "v": 127
    },
    {
      "midi": 74,
      "hit": false,
      "t": 53636.30999999988,
      "d": 909.0899999999965,
      "v": 127
    },
    {
      "midi": 53,
      "hit": false,
      "t": 54090.85499999986,
      "d": 454.54499999999825,
      "v": 127
    },
    {
      "midi": 58,
      "hit": false,
      "t": 54090.85499999986,
      "d": 454.54499999999825,
      "v": 127
    },
    {
      "midi": 62,
      "hit": false,
      "t": 54090.85499999986,
      "d": 454.54499999999825,
      "v": 127
    },
    {
      "midi": 76,
      "hit": false,
      "t": 54090.85499999988,
      "d": 227.27249999999913,
      "v": 127
    },
    {
      "midi": 77,
      "hit": false,
      "t": 54318.12749999988,
      "d": 227.27249999999913,
      "v": 127
    },
    {
      "midi": 45,
      "hit": false,
      "t": 54545.399999999856,
      "d": 454.54499999999825,
      "v": 127
    },
    {
      "midi": 57,
      "hit": false,
      "t": 54545.399999999856,
      "d": 454.54499999999825,
      "v": 127
    },
    {
      "midi": 78,
      "hit": false,
      "t": 54545.39999999988,
      "d": 681.8174999999974,
      "v": 127
    },
    {
      "midi": 74,
      "hit": false,
      "t": 54545.39999999988,
      "d": 909.0899999999965,
      "v": 127
    },
    {
      "midi": 54,
      "hit": false,
      "t": 54999.944999999854,
      "d": 454.54499999999825,
      "v": 127
    },
    {
      "midi": 60,
      "hit": false,
      "t": 54999.944999999854,
      "d": 454.54499999999825,
      "v": 127
    },
    {
      "midi": 62,
      "hit": false,
      "t": 54999.944999999854,
      "d": 454.54499999999825,
      "v": 127
    },
    {
      "midi": 81,
      "hit": false,
      "t": 55227.217499999875,
      "d": 227.27249999999913,
      "v": 127
    },
    {
      "midi": 38,
      "hit": false,
      "t": 55454.48999999985,
      "d": 454.54499999999825,
      "v": 127
    },
    {
      "midi": 50,
      "hit": false,
      "t": 55454.48999999985,
      "d": 454.54499999999825,
      "v": 127
    },
    {
      "midi": 87,
      "hit": false,
      "t": 55454.489999999874,
      "d": 227.27249999999913,
      "v": 127
    },
    {
      "midi": 78,
      "hit": false,
      "t": 55454.489999999874,
      "d": 909.0899999999965,
      "v": 127
    },
    {
      "midi": 86,
      "hit": false,
      "t": 55681.76249999987,
      "d": 454.54499999999825,
      "v": 127
    },
    {
      "midi": 54,
      "hit": false,
      "t": 55909.03499999985,
      "d": 454.54499999999825,
      "v": 127
    },
    {
      "midi": 60,
      "hit": false,
      "t": 55909.03499999985,
      "d": 454.54499999999825,
      "v": 127
    },
    {
      "midi": 62,
      "hit": false,
      "t": 55909.03499999985,
      "d": 454.54499999999825,
      "v": 127
    },
    {
      "midi": 84,
      "hit": false,
      "t": 56136.30749999987,
      "d": 227.27249999999913,
      "v": 127
    },
    {
      "midi": 55,
      "hit": false,
      "t": 56363.57999999985,
      "d": 454.54499999999825,
      "v": 127
    },
    {
      "midi": 58,
      "hit": false,
      "t": 56363.57999999985,
      "d": 454.54499999999825,
      "v": 127
    },
    {
      "midi": 62,
      "hit": false,
      "t": 56363.57999999985,
      "d": 454.54499999999825,
      "v": 127
    },
    {
      "midi": 79,
      "hit": false,
      "t": 56363.57999999987,
      "d": 1363.635000000002,
      "v": 127
    },
    {
      "midi": 82,
      "hit": false,
      "t": 56363.57999999987,
      "d": 1363.635000000002,
      "v": 127
    },
    {
      "midi": 46,
      "hit": false,
      "t": 56818.12499999985,
      "d": 227.27249999999913,
      "v": 127
    },
    {
      "midi": 58,
      "hit": false,
      "t": 56818.12499999985,
      "d": 227.27249999999913,
      "v": 127
    },
    {
      "midi": 45,
      "hit": false,
      "t": 57045.397499999846,
      "d": 227.27249999999913,
      "v": 127
    },
    {
      "midi": 57,
      "hit": false,
      "t": 57045.397499999846,
      "d": 227.27249999999913,
      "v": 127
    },
    {
      "midi": 43,
      "hit": false,
      "t": 57272.669999999845,
      "d": 227.27249999999913,
      "v": 127
    },
    {
      "midi": 55,
      "hit": false,
      "t": 57272.669999999845,
      "d": 227.27249999999913,
      "v": 127
    },
    {
      "midi": 42,
      "hit": false,
      "t": 57499.942499999845,
      "d": 227.27249999999913,
      "v": 127
    },
    {
      "midi": 54,
      "hit": false,
      "t": 57499.942499999845,
      "d": 227.27249999999913,
      "v": 127
    },
    {
      "midi": 41,
      "hit": false,
      "t": 57727.214999999844,
      "d": 454.54499999999825,
      "v": 127
    },
    {
      "midi": 53,
      "hit": false,
      "t": 57727.214999999844,
      "d": 454.54499999999825,
      "v": 127
    },
    {
      "midi": 74,
      "hit": false,
      "t": 57727.21499999987,
      "d": 454.54499999999825,
      "v": 127
    },
    {
      "midi": 80,
      "hit": false,
      "t": 57727.21499999987,
      "d": 454.54499999999825,
      "v": 127
    },
    {
      "midi": 39,
      "hit": false,
      "t": 58181.75999999984,
      "d": 454.54499999999825,
      "v": 127
    },
    {
      "midi": 51,
      "hit": false,
      "t": 58181.75999999984,
      "d": 454.54499999999825,
      "v": 127
    },
    {
      "midi": 75,
      "hit": false,
      "t": 58181.75999999987,
      "d": 681.8174999999974,
      "v": 127
    },
    {
      "midi": 79,
      "hit": false,
      "t": 58181.75999999987,
      "d": 681.8174999999974,
      "v": 127
    },
    {
      "midi": 55,
      "hit": false,
      "t": 58636.30499999984,
      "d": 454.54499999999825,
      "v": 127
    },
    {
      "midi": 58,
      "hit": false,
      "t": 58636.30499999984,
      "d": 454.54499999999825,
      "v": 127
    },
    {
      "midi": 63,
      "hit": false,
      "t": 58636.30499999984,
      "d": 454.54499999999825,
      "v": 127
    },
    {
      "midi": 74,
      "hit": false,
      "t": 58863.57749999987,
      "d": 227.27249999999913,
      "v": 127
    },
    {
      "midi": 77,
      "hit": false,
      "t": 58863.57749999987,
      "d": 227.27249999999913,
      "v": 127
    },
    {
      "midi": 43,
      "hit": false,
      "t": 59090.84999999984,
      "d": 454.54499999999825,
      "v": 127
    },
    {
      "midi": 55,
      "hit": false,
      "t": 59090.84999999984,
      "d": 454.54499999999825,
      "v": 127
    },
    {
      "midi": 72,
      "hit": false,
      "t": 59090.84999999987,
      "d": 227.27249999999913,
      "v": 127
    },
    {
      "midi": 75,
      "hit": false,
      "t": 59090.84999999987,
      "d": 227.27249999999913,
      "v": 127
    },
    {
      "midi": 74,
      "hit": false,
      "t": 59318.12249999987,
      "d": 227.27249999999913,
      "v": 127
    },
    {
      "midi": 42,
      "hit": false,
      "t": 59545.39499999984,
      "d": 454.54499999999825,
      "v": 127
    },
    {
      "midi": 54,
      "hit": false,
      "t": 59545.39499999984,
      "d": 454.54499999999825,
      "v": 127
    },
    {
      "midi": 75,
      "hit": false,
      "t": 59545.394999999866,
      "d": 227.27249999999913,
      "v": 127
    },
    {
      "midi": 82,
      "hit": false,
      "t": 59772.667499999865,
      "d": 227.27249999999913,
      "v": 127
    },
    {
      "midi": 41,
      "hit": false,
      "t": 59999.939999999835,
      "d": 454.54499999999825,
      "v": 127
    },
    {
      "midi": 53,
      "hit": false,
      "t": 59999.939999999835,
      "d": 454.54499999999825,
      "v": 127
    },
    {
      "midi": 82,
      "hit": false,
      "t": 59999.939999999864,
      "d": 681.8174999999974,
      "v": 127
    },
    {
      "midi": 74,
      "hit": false,
      "t": 59999.939999999864,
      "d": 909.0899999999965,
      "v": 127
    },
    {
      "midi": 70,
      "hit": false,
      "t": 59999.939999999864,
      "d": 2727.2699999999895,
      "v": 127
    },
    {
      "midi": 53,
      "hit": false,
      "t": 60454.48499999983,
      "d": 454.54499999999825,
      "v": 127
    },
    {
      "midi": 58,
      "hit": false,
      "t": 60454.48499999983,
      "d": 454.54499999999825,
      "v": 127
    },
    {
      "midi": 62,
      "hit": false,
      "t": 60454.48499999983,
      "d": 454.54499999999825,
      "v": 127
    },
    {
      "midi": 76,
      "hit": false,
      "t": 60681.75749999986,
      "d": 227.27249999999913,
      "v": 127
    },
    {
      "midi": 53,
      "hit": false,
      "t": 60909.02999999983,
      "d": 454.54499999999825,
      "v": 127
    },
    {
      "midi": 58,
      "hit": false,
      "t": 60909.02999999983,
      "d": 454.54499999999825,
      "v": 127
    },
    {
      "midi": 62,
      "hit": false,
      "t": 60909.02999999983,
      "d": 454.54499999999825,
      "v": 127
    },
    {
      "midi": 74,
      "hit": false,
      "t": 60909.02999999986,
      "d": 227.27249999999913,
      "v": 127
    },
    {
      "midi": 77,
      "hit": false,
      "t": 60909.02999999986,
      "d": 227.27249999999913,
      "v": 127
    },
    {
      "midi": 75,
      "hit": false,
      "t": 61136.30249999986,
      "d": 227.27249999999913,
      "v": 127
    },
    {
      "midi": 50,
      "hit": false,
      "t": 61363.57499999983,
      "d": 227.27249999999913,
      "v": 127
    },
    {
      "midi": 62,
      "hit": false,
      "t": 61363.57499999983,
      "d": 227.27249999999913,
      "v": 127
    },
    {
      "midi": 77,
      "hit": false,
      "t": 61363.57499999986,
      "d": 227.27249999999913,
      "v": 127
    },
    {
      "midi": 49,
      "hit": false,
      "t": 61590.84749999983,
      "d": 227.27249999999913,
      "v": 127
    },
    {
      "midi": 61,
      "hit": false,
      "t": 61590.84749999983,
      "d": 227.27249999999913,
      "v": 127
    },
    {
      "midi": 76,
      "hit": false,
      "t": 61590.84749999986,
      "d": 227.27249999999913,
      "v": 127
    },
    {
      "midi": 78,
      "hit": false,
      "t": 61590.84749999986,
      "d": 227.27249999999913,
      "v": 127
    },
    {
      "midi": 48,
      "hit": false,
      "t": 61818.11999999983,
      "d": 454.54499999999825,
      "v": 127
    },
    {
      "midi": 60,
      "hit": false,
      "t": 61818.11999999983,
      "d": 454.54499999999825,
      "v": 127
    },
    {
      "midi": 75,
      "hit": false,
      "t": 61818.11999999986,
      "d": 227.27249999999913,
      "v": 127
    },
    {
      "midi": 79,
      "hit": false,
      "t": 61818.11999999986,
      "d": 227.27249999999913,
      "v": 127
    },
    {
      "midi": 82,
      "hit": false,
      "t": 62045.392499999856,
      "d": 454.54499999999825,
      "v": 127
    },
    {
      "midi": 55,
      "hit": false,
      "t": 62272.664999999826,
      "d": 454.54499999999825,
      "v": 127
    },
    {
      "midi": 60,
      "hit": false,
      "t": 62272.664999999826,
      "d": 454.54499999999825,
      "v": 127
    },
    {
      "midi": 63,
      "hit": false,
      "t": 62272.664999999826,
      "d": 454.54499999999825,
      "v": 127
    },
    {
      "midi": 75,
      "hit": false,
      "t": 62499.937499999854,
      "d": 227.27249999999913,
      "v": 127
    },
    {
      "midi": 41,
      "hit": false,
      "t": 62727.209999999825,
      "d": 909.0899999999965,
      "v": 127
    },
    {
      "midi": 53,
      "hit": false,
      "t": 62727.209999999825,
      "d": 909.0899999999965,
      "v": 127
    },
    {
      "midi": 67,
      "hit": false,
      "t": 62727.20999999985,
      "d": 227.27249999999913,
      "v": 127
    },
    {
      "midi": 69,
      "hit": false,
      "t": 62727.20999999985,
      "d": 227.27249999999913,
      "v": 127
    },
    {
      "midi": 75,
      "hit": false,
      "t": 62727.20999999985,
      "d": 227.27249999999913,
      "v": 127
    },
    {
      "midi": 65,
      "hit": false,
      "t": 62954.48249999985,
      "d": 227.27249999999913,
      "v": 127
    },
    {
      "midi": 69,
      "hit": false,
      "t": 62954.48249999985,
      "d": 227.27249999999913,
      "v": 127
    },
    {
      "midi": 74,
      "hit": false,
      "t": 62954.48249999985,
      "d": 227.27249999999913,
      "v": 127
    },
    {
      "midi": 63,
      "hit": false,
      "t": 63181.75499999985,
      "d": 454.54499999999825,
      "v": 127
    },
    {
      "midi": 69,
      "hit": false,
      "t": 63181.75499999985,
      "d": 454.54499999999825,
      "v": 127
    },
    {
      "midi": 72,
      "hit": false,
      "t": 63181.75499999985,
      "d": 454.54499999999825,
      "v": 127
    },
    {
      "midi": 46,
      "hit": false,
      "t": 63636.29999999982,
      "d": 909.0899999999965,
      "v": 127
    },
    {
      "midi": 58,
      "hit": false,
      "t": 63636.29999999982,
      "d": 909.0899999999965,
      "v": 127
    },
    {
      "midi": 62,
      "hit": false,
      "t": 63636.29999999985,
      "d": 454.54499999999825,
      "v": 127
    },
    {
      "midi": 65,
      "hit": false,
      "t": 63636.29999999985,
      "d": 454.54499999999825,
      "v": 127
    },
    {
      "midi": 70,
      "hit": false,
      "t": 63636.29999999985,
      "d": 454.54499999999825,
      "v": 127
    },
    {
      "midi": 77,
      "hit": false,
      "t": 64090.84499999985,
      "d": 227.27249999999913,
      "v": 127
    },
    {
      "midi": 77,
      "hit": false,
      "t": 64318.11749999985,
      "d": 227.27249999999913,
      "v": 127
    },
    {
      "midi": 77,
      "hit": false,
      "t": 64545.38999999985,
      "d": 454.54499999999825,
      "v": 127
    },
    {
      "midi": 77,
      "hit": false,
      "t": 64999.934999999845,
      "d": 454.54499999999825,
      "v": 127
    },
    {
      "midi": 41,
      "hit": false,
      "t": 65454.479999999814,
      "d": 454.54500000000553,
      "v": 127
    },
    {
      "midi": 53,
      "hit": false,
      "t": 65454.479999999814,
      "d": 454.54500000000553,
      "v": 127
    },
    {
      "midi": 77,
      "hit": false,
      "t": 65454.47999999984,
      "d": 227.27249999999913,
      "v": 127
    },
    {
      "midi": 69,
      "hit": false,
      "t": 65681.75249999984,
      "d": 227.2725000000064,
      "v": 127
    },
    {
      "midi": 43,
      "hit": false,
      "t": 65909.02499999982,
      "d": 454.54499999999825,
      "v": 127
    },
    {
      "midi": 55,
      "hit": false,
      "t": 65909.02499999982,
      "d": 454.54499999999825,
      "v": 127
    },
    {
      "midi": 75,
      "hit": false,
      "t": 65909.02499999985,
      "d": 227.2725000000064,
      "v": 127
    },
    {
      "midi": 77,
      "hit": false,
      "t": 66136.29749999986,
      "d": 454.54499999999825,
      "v": 127
    },
    {
      "midi": 45,
      "hit": false,
      "t": 66363.56999999982,
      "d": 454.54499999999825,
      "v": 127
    },
    {
      "midi": 57,
      "hit": false,
      "t": 66363.56999999982,
      "d": 454.54499999999825,
      "v": 127
    },
    {
      "midi": 75,
      "hit": false,
      "t": 66590.84249999985,
      "d": 227.2725000000064,
      "v": 127
    },
    {
      "midi": 46,
      "hit": false,
      "t": 66818.11499999982,
      "d": 454.54499999999825,
      "v": 127
    },
    {
      "midi": 58,
      "hit": false,
      "t": 66818.11499999982,
      "d": 454.54499999999825,
      "v": 127
    },
    {
      "midi": 67,
      "hit": false,
      "t": 66818.11499999986,
      "d": 454.54499999999825,
      "v": 127
    },
    {
      "midi": 48,
      "hit": false,
      "t": 67272.65999999981,
      "d": 454.54499999999825,
      "v": 127
    },
    {
      "midi": 60,
      "hit": false,
      "t": 67272.65999999981,
      "d": 454.54499999999825,
      "v": 127
    },
    {
      "midi": 75,
      "hit": false,
      "t": 67272.65999999986,
      "d": 227.2725000000064,
      "v": 127
    },
    {
      "midi": 67,
      "hit": false,
      "t": 67499.93249999986,
      "d": 227.2725000000064,
      "v": 127
    },
    {
      "midi": 47,
      "hit": false,
      "t": 67727.20499999981,
      "d": 454.54499999999825,
      "v": 127
    },
    {
      "midi": 59,
      "hit": false,
      "t": 67727.20499999981,
      "d": 454.54499999999825,
      "v": 127
    },
    {
      "midi": 68,
      "hit": false,
      "t": 67727.20499999987,
      "d": 227.2725000000064,
      "v": 127
    },
    {
      "midi": 69,
      "hit": false,
      "t": 67954.47749999988,
      "d": 454.54499999999825,
      "v": 127
    },
    {
      "midi": 48,
      "hit": false,
      "t": 68181.74999999981,
      "d": 454.54499999999825,
      "v": 127
    },
    {
      "midi": 60,
      "hit": false,
      "t": 68181.74999999981,
      "d": 454.54499999999825,
      "v": 127
    },
    {
      "midi": 75,
      "hit": false,
      "t": 68409.02249999988,
      "d": 227.2725000000064,
      "v": 127
    },
    {
      "midi": 49,
      "hit": false,
      "t": 68636.29499999981,
      "d": 454.54499999999825,
      "v": 127
    },
    {
      "midi": 61,
      "hit": false,
      "t": 68636.29499999981,
      "d": 454.54499999999825,
      "v": 127
    },
    {
      "midi": 67,
      "hit": false,
      "t": 68636.29499999988,
      "d": 454.54499999999825,
      "v": 127
    },
    {
      "midi": 50,
      "hit": false,
      "t": 69090.83999999981,
      "d": 454.54499999999825,
      "v": 127
    },
    {
      "midi": 62,
      "hit": false,
      "t": 69090.83999999981,
      "d": 454.54499999999825,
      "v": 127
    },
    {
      "midi": 65,
      "hit": false,
      "t": 69090.83999999988,
      "d": 227.2725000000064,
      "v": 127
    },
    {
      "midi": 70,
      "hit": false,
      "t": 69318.11249999989,
      "d": 227.2725000000064,
      "v": 127
    },
    {
      "midi": 53,
      "hit": false,
      "t": 69545.3849999998,
      "d": 454.54499999999825,
      "v": 127
    },
    {
      "midi": 58,
      "hit": false,
      "t": 69545.3849999998,
      "d": 454.54499999999825,
      "v": 127
    },
    {
      "midi": 62,
      "hit": false,
      "t": 69545.3849999998,
      "d": 454.54499999999825,
      "v": 127
    },
    {
      "midi": 74,
      "hit": false,
      "t": 69545.3849999999,
      "d": 227.2725000000064,
      "v": 127
    },
    {
      "midi": 65,
      "hit": false,
      "t": 69772.6574999999,
      "d": 1363.6349999999948,
      "v": 127
    },
    {
      "midi": 70,
      "hit": false,
      "t": 69772.6574999999,
      "d": 1363.6349999999948,
      "v": 127
    },
    {
      "midi": 74,
      "hit": false,
      "t": 69772.6574999999,
      "d": 1363.6349999999948,
      "v": 127
    },
    {
      "midi": 77,
      "hit": false,
      "t": 69772.6574999999,
      "d": 1363.6349999999948,
      "v": 127
    },
    {
      "midi": 46,
      "hit": false,
      "t": 69999.9299999998,
      "d": 227.2725000000064,
      "v": 127
    },
    {
      "midi": 58,
      "hit": false,
      "t": 69999.9299999998,
      "d": 227.2725000000064,
      "v": 127
    },
    {
      "midi": 48,
      "hit": false,
      "t": 70227.20249999981,
      "d": 227.2725000000064,
      "v": 127
    },
    {
      "midi": 60,
      "hit": false,
      "t": 70227.20249999981,
      "d": 227.2725000000064,
      "v": 127
    },
    {
      "midi": 50,
      "hit": false,
      "t": 70454.47499999982,
      "d": 227.2725000000064,
      "v": 127
    },
    {
      "midi": 62,
      "hit": false,
      "t": 70454.47499999982,
      "d": 227.2725000000064,
      "v": 127
    },
    {
      "midi": 48,
      "hit": false,
      "t": 70681.74749999982,
      "d": 227.2725000000064,
      "v": 127
    },
    {
      "midi": 60,
      "hit": false,
      "t": 70681.74749999982,
      "d": 227.2725000000064,
      "v": 127
    },
    {
      "midi": 46,
      "hit": false,
      "t": 70909.01999999983,
      "d": 454.54499999999825,
      "v": 127
    },
    {
      "midi": 58,
      "hit": false,
      "t": 70909.01999999983,
      "d": 454.54499999999825,
      "v": 127
    },
    {
      "midi": 53,
      "hit": false,
      "t": 71363.56499999983,
      "d": 454.54499999999825,
      "v": 127
    },
    {
      "midi": 58,
      "hit": false,
      "t": 71363.56499999983,
      "d": 454.54499999999825,
      "v": 127
    },
    {
      "midi": 62,
      "hit": false,
      "t": 71363.56499999983,
      "d": 454.54499999999825,
      "v": 127
    },
    {
      "midi": 74,
      "hit": false,
      "t": 71363.5649999999,
      "d": 227.2725000000064,
      "v": 127
    },
    {
      "midi": 72,
      "hit": false,
      "t": 71590.8374999999,
      "d": 227.2725000000064,
      "v": 127
    },
    {
      "midi": 53,
      "hit": false,
      "t": 71818.10999999983,
      "d": 454.54499999999825,
      "v": 127
    },
    {
      "midi": 58,
      "hit": false,
      "t": 71818.10999999983,
      "d": 454.54499999999825,
      "v": 127
    },
    {
      "midi": 62,
      "hit": false,
      "t": 71818.10999999983,
      "d": 454.54499999999825,
      "v": 127
    },
    {
      "midi": 70,
      "hit": false,
      "t": 71818.10999999991,
      "d": 227.2725000000064,
      "v": 127
    },
    {
      "midi": 69,
      "hit": false,
      "t": 72045.38249999992,
      "d": 227.2725000000064,
      "v": 127
    },
    {
      "midi": 47,
      "hit": false,
      "t": 72272.65499999982,
      "d": 454.54499999999825,
      "v": 127
    },
    {
      "midi": 59,
      "hit": false,
      "t": 72272.65499999982,
      "d": 454.54499999999825,
      "v": 127
    },
    {
      "midi": 67,
      "hit": false,
      "t": 72272.65499999993,
      "d": 227.2725000000064,
      "v": 127
    },
    {
      "midi": 66,
      "hit": false,
      "t": 72499.92749999993,
      "d": 227.2725000000064,
      "v": 127
    },
    {
      "midi": 48,
      "hit": false,
      "t": 72727.19999999982,
      "d": 454.54499999999825,
      "v": 127
    },
    {
      "midi": 60,
      "hit": false,
      "t": 72727.19999999982,
      "d": 454.54499999999825,
      "v": 127
    },
    {
      "midi": 65,
      "hit": false,
      "t": 72727.19999999994,
      "d": 227.2725000000064,
      "v": 127
    },
    {
      "midi": 69,
      "hit": false,
      "t": 72954.47249999995,
      "d": 227.2725000000064,
      "v": 127
    },
    {
      "midi": 53,
      "hit": false,
      "t": 73181.74499999982,
      "d": 454.54499999999825,
      "v": 127
    },
    {
      "midi": 57,
      "hit": false,
      "t": 73181.74499999982,
      "d": 454.54499999999825,
      "v": 127
    },
    {
      "midi": 63,
      "hit": false,
      "t": 73181.74499999982,
      "d": 454.54499999999825,
      "v": 127
    },
    {
      "midi": 72,
      "hit": false,
      "t": 73181.74499999995,
      "d": 227.2725000000064,
      "v": 127
    },
    {
      "midi": 65,
      "hit": false,
      "t": 73409.01749999996,
      "d": 1363.6349999999948,
      "v": 127
    },
    {
      "midi": 69,
      "hit": false,
      "t": 73409.01749999996,
      "d": 1363.6349999999948,
      "v": 127
    },
    {
      "midi": 72,
      "hit": false,
      "t": 73409.01749999996,
      "d": 1363.6349999999948,
      "v": 127
    },
    {
      "midi": 77,
      "hit": false,
      "t": 73409.01749999996,
      "d": 1363.6349999999948,
      "v": 127
    },
    {
      "midi": 45,
      "hit": false,
      "t": 73636.28999999982,
      "d": 227.2725000000064,
      "v": 127
    },
    {
      "midi": 57,
      "hit": false,
      "t": 73636.28999999982,
      "d": 227.2725000000064,
      "v": 127
    },
    {
      "midi": 46,
      "hit": false,
      "t": 73863.56249999983,
      "d": 227.2725000000064,
      "v": 127
    },
    {
      "midi": 58,
      "hit": false,
      "t": 73863.56249999983,
      "d": 227.2725000000064,
      "v": 127
    },
    {
      "midi": 48,
      "hit": false,
      "t": 74090.83499999983,
      "d": 227.2725000000064,
      "v": 127
    },
    {
      "midi": 60,
      "hit": false,
      "t": 74090.83499999983,
      "d": 227.2725000000064,
      "v": 127
    },
    {
      "midi": 46,
      "hit": false,
      "t": 74318.10749999984,
      "d": 227.2725000000064,
      "v": 127
    },
    {
      "midi": 58,
      "hit": false,
      "t": 74318.10749999984,
      "d": 227.2725000000064,
      "v": 127
    },
    {
      "midi": 45,
      "hit": false,
      "t": 74545.37999999984,
      "d": 454.54499999999825,
      "v": 127
    },
    {
      "midi": 57,
      "hit": false,
      "t": 74545.37999999984,
      "d": 454.54499999999825,
      "v": 127
    },
    {
      "midi": 57,
      "hit": false,
      "t": 74999.92499999984,
      "d": 454.54499999999825,
      "v": 127
    },
    {
      "midi": 63,
      "hit": false,
      "t": 74999.92499999984,
      "d": 454.54499999999825,
      "v": 127
    },
    {
      "midi": 65,
      "hit": false,
      "t": 74999.92499999984,
      "d": 454.54499999999825,
      "v": 127
    },
    {
      "midi": 72,
      "hit": false,
      "t": 74999.92499999996,
      "d": 227.2725000000064,
      "v": 127
    },
    {
      "midi": 70,
      "hit": false,
      "t": 75227.19749999997,
      "d": 227.2725000000064,
      "v": 127
    },
    {
      "midi": 53,
      "hit": false,
      "t": 75454.46999999984,
      "d": 454.54499999999825,
      "v": 127
    },
    {
      "midi": 65,
      "hit": false,
      "t": 75454.46999999984,
      "d": 454.54499999999825,
      "v": 127
    },
    {
      "midi": 69,
      "hit": false,
      "t": 75454.46999999997,
      "d": 227.2725000000064,
      "v": 127
    },
    {
      "midi": 68,
      "hit": false,
      "t": 75681.74249999998,
      "d": 227.2725000000064,
      "v": 127
    },
    {
      "midi": 51,
      "hit": false,
      "t": 75909.01499999984,
      "d": 454.54499999999825,
      "v": 127
    },
    {
      "midi": 63,
      "hit": false,
      "t": 75909.01499999984,
      "d": 454.54499999999825,
      "v": 127
    },
    {
      "midi": 67,
      "hit": false,
      "t": 75909.01499999998,
      "d": 227.2725000000064,
      "v": 127
    },
    {
      "midi": 66,
      "hit": false,
      "t": 76136.28749999999,
      "d": 227.2725000000064,
      "v": 127
    },
    {
      "midi": 50,
      "hit": false,
      "t": 76363.55999999984,
      "d": 454.54499999999825,
      "v": 127
    },
    {
      "midi": 62,
      "hit": false,
      "t": 76363.55999999984,
      "d": 454.54499999999825,
      "v": 127
    },
    {
      "midi": 65,
      "hit": false,
      "t": 76363.56,
      "d": 227.2725000000064,
      "v": 127
    },
    {
      "midi": 70,
      "hit": false,
      "t": 76590.8325,
      "d": 227.2725000000064,
      "v": 127
    },
    {
      "midi": 53,
      "hit": false,
      "t": 76818.10499999984,
      "d": 454.54499999999825,
      "v": 127
    },
    {
      "midi": 58,
      "hit": false,
      "t": 76818.10499999984,
      "d": 454.54499999999825,
      "v": 127
    },
    {
      "midi": 62,
      "hit": false,
      "t": 76818.10499999984,
      "d": 454.54499999999825,
      "v": 127
    },
    {
      "midi": 74,
      "hit": false,
      "t": 76818.10500000001,
      "d": 227.2725000000064,
      "v": 127
    },
    {
      "midi": 65,
      "hit": false,
      "t": 77045.37750000002,
      "d": 1363.6349999999948,
      "v": 127
    },
    {
      "midi": 70,
      "hit": false,
      "t": 77045.37750000002,
      "d": 1363.6349999999948,
      "v": 127
    },
    {
      "midi": 74,
      "hit": false,
      "t": 77045.37750000002,
      "d": 1363.6349999999948,
      "v": 127
    },
    {
      "midi": 77,
      "hit": false,
      "t": 77045.37750000002,
      "d": 1363.6349999999948,
      "v": 127
    },
    {
      "midi": 46,
      "hit": false,
      "t": 77272.64999999983,
      "d": 227.2725000000064,
      "v": 127
    },
    {
      "midi": 58,
      "hit": false,
      "t": 77272.64999999983,
      "d": 227.2725000000064,
      "v": 127
    },
    {
      "midi": 48,
      "hit": false,
      "t": 77499.92249999984,
      "d": 227.2725000000064,
      "v": 127
    },
    {
      "midi": 60,
      "hit": false,
      "t": 77499.92249999984,
      "d": 227.2725000000064,
      "v": 127
    },
    {
      "midi": 50,
      "hit": false,
      "t": 77727.19499999985,
      "d": 227.2725000000064,
      "v": 127
    },
    {
      "midi": 62,
      "hit": false,
      "t": 77727.19499999985,
      "d": 227.2725000000064,
      "v": 127
    },
    {
      "midi": 46,
      "hit": false,
      "t": 77954.46749999985,
      "d": 227.2725000000064,
      "v": 127
    },
    {
      "midi": 58,
      "hit": false,
      "t": 77954.46749999985,
      "d": 227.2725000000064,
      "v": 127
    },
    {
      "midi": 41,
      "hit": false,
      "t": 78181.73999999986,
      "d": 909.0899999999965,
      "v": 127
    },
    {
      "midi": 53,
      "hit": false,
      "t": 78181.73999999986,
      "d": 909.0899999999965,
      "v": 127
    },
    {
      "midi": 77,
      "hit": false,
      "t": 78636.28500000002,
      "d": 227.2725000000064,
      "v": 127
    },
    {
      "midi": 77,
      "hit": false,
      "t": 78863.55750000002,
      "d": 227.2725000000064,
      "v": 127
    },
    {
      "midi": 77,
      "hit": false,
      "t": 79090.83000000003,
      "d": 454.54499999999825,
      "v": 127
    },
    {
      "midi": 77,
      "hit": false,
      "t": 79545.37500000003,
      "d": 454.54499999999825,
      "v": 127
    },
    {
      "midi": 41,
      "hit": false,
      "t": 79999.91999999985,
      "d": 454.54499999999825,
      "v": 127
    },
    {
      "midi": 53,
      "hit": false,
      "t": 79999.91999999985,
      "d": 454.54499999999825,
      "v": 127
    },
    {
      "midi": 77,
      "hit": false,
      "t": 79999.92000000003,
      "d": 227.2725000000064,
      "v": 127
    },
    {
      "midi": 69,
      "hit": false,
      "t": 80227.19250000003,
      "d": 227.2725000000064,
      "v": 127
    },
    {
      "midi": 43,
      "hit": false,
      "t": 80454.46499999985,
      "d": 454.54499999999825,
      "v": 127
    },
    {
      "midi": 55,
      "hit": false,
      "t": 80454.46499999985,
      "d": 454.54499999999825,
      "v": 127
    },
    {
      "midi": 75,
      "hit": false,
      "t": 80454.46500000004,
      "d": 227.2725000000064,
      "v": 127
    },
    {
      "midi": 77,
      "hit": false,
      "t": 80681.73750000005,
      "d": 454.54499999999825,
      "v": 127
    },
    {
      "midi": 45,
      "hit": false,
      "t": 80909.00999999985,
      "d": 454.54499999999825,
      "v": 127
    },
    {
      "midi": 57,
      "hit": false,
      "t": 80909.00999999985,
      "d": 454.54499999999825,
      "v": 127
    },
    {
      "midi": 75,
      "hit": false,
      "t": 81136.28250000004,
      "d": 227.2725000000064,
      "v": 127
    },
    {
      "midi": 46,
      "hit": false,
      "t": 81363.55499999985,
      "d": 454.54499999999825,
      "v": 127
    },
    {
      "midi": 58,
      "hit": false,
      "t": 81363.55499999985,
      "d": 454.54499999999825,
      "v": 127
    },
    {
      "midi": 67,
      "hit": false,
      "t": 81363.55500000005,
      "d": 454.54499999999825,
      "v": 127
    },
    {
      "midi": 48,
      "hit": false,
      "t": 81818.09999999985,
      "d": 454.54499999999825,
      "v": 127
    },
    {
      "midi": 60,
      "hit": false,
      "t": 81818.09999999985,
      "d": 454.54499999999825,
      "v": 127
    },
    {
      "midi": 75,
      "hit": false,
      "t": 81818.10000000005,
      "d": 227.2725000000064,
      "v": 127
    },
    {
      "midi": 67,
      "hit": false,
      "t": 82045.37250000006,
      "d": 227.2725000000064,
      "v": 127
    },
    {
      "midi": 47,
      "hit": false,
      "t": 82272.64499999984,
      "d": 454.54499999999825,
      "v": 127
    },
    {
      "midi": 59,
      "hit": false,
      "t": 82272.64499999984,
      "d": 454.54499999999825,
      "v": 127
    },
    {
      "midi": 68,
      "hit": false,
      "t": 82272.64500000006,
      "d": 227.2725000000064,
      "v": 127
    },
    {
      "midi": 69,
      "hit": false,
      "t": 82499.91750000007,
      "d": 454.54499999999825,
      "v": 127
    },
    {
      "midi": 48,
      "hit": false,
      "t": 82727.18999999984,
      "d": 454.54499999999825,
      "v": 127
    },
    {
      "midi": 60,
      "hit": false,
      "t": 82727.18999999984,
      "d": 454.54499999999825,
      "v": 127
    },
    {
      "midi": 75,
      "hit": false,
      "t": 82954.46250000007,
      "d": 227.2725000000064,
      "v": 127
    },
    {
      "midi": 49,
      "hit": false,
      "t": 83181.73499999984,
      "d": 454.54499999999825,
      "v": 127
    },
    {
      "midi": 61,
      "hit": false,
      "t": 83181.73499999984,
      "d": 454.54499999999825,
      "v": 127
    },
    {
      "midi": 67,
      "hit": false,
      "t": 83181.73500000007,
      "d": 454.54499999999825,
      "v": 127
    },
    {
      "midi": 50,
      "hit": false,
      "t": 83636.27999999984,
      "d": 454.54499999999825,
      "v": 127
    },
    {
      "midi": 62,
      "hit": false,
      "t": 83636.27999999984,
      "d": 454.54499999999825,
      "v": 127
    },
    {
      "midi": 65,
      "hit": false,
      "t": 83636.28000000007,
      "d": 227.2725000000064,
      "v": 127
    },
    {
      "midi": 70,
      "hit": false,
      "t": 83863.55250000008,
      "d": 227.2725000000064,
      "v": 127
    },
    {
      "midi": 53,
      "hit": false,
      "t": 84090.82499999984,
      "d": 454.54499999999825,
      "v": 127
    },
    {
      "midi": 58,
      "hit": false,
      "t": 84090.82499999984,
      "d": 454.54499999999825,
      "v": 127
    },
    {
      "midi": 62,
      "hit": false,
      "t": 84090.82499999984,
      "d": 454.54499999999825,
      "v": 127
    },
    {
      "midi": 74,
      "hit": false,
      "t": 84090.82500000008,
      "d": 227.2725000000064,
      "v": 127
    },
    {
      "midi": 65,
      "hit": false,
      "t": 84318.09750000009,
      "d": 1363.6349999999948,
      "v": 127
    },
    {
      "midi": 70,
      "hit": false,
      "t": 84318.09750000009,
      "d": 1363.6349999999948,
      "v": 127
    },
    {
      "midi": 74,
      "hit": false,
      "t": 84318.09750000009,
      "d": 1363.6349999999948,
      "v": 127
    },
    {
      "midi": 77,
      "hit": false,
      "t": 84318.09750000009,
      "d": 1363.6349999999948,
      "v": 127
    },
    {
      "midi": 46,
      "hit": false,
      "t": 84545.36999999984,
      "d": 227.2725000000064,
      "v": 127
    },
    {
      "midi": 58,
      "hit": false,
      "t": 84545.36999999984,
      "d": 227.2725000000064,
      "v": 127
    },
    {
      "midi": 48,
      "hit": false,
      "t": 84772.64249999984,
      "d": 227.2725000000064,
      "v": 127
    },
    {
      "midi": 60,
      "hit": false,
      "t": 84772.64249999984,
      "d": 227.2725000000064,
      "v": 127
    },
    {
      "midi": 50,
      "hit": false,
      "t": 84999.91499999985,
      "d": 227.2725000000064,
      "v": 127
    },
    {
      "midi": 62,
      "hit": false,
      "t": 84999.91499999985,
      "d": 227.2725000000064,
      "v": 127
    },
    {
      "midi": 48,
      "hit": false,
      "t": 85227.18749999985,
      "d": 227.2725000000064,
      "v": 127
    },
    {
      "midi": 60,
      "hit": false,
      "t": 85227.18749999985,
      "d": 227.2725000000064,
      "v": 127
    },
    {
      "midi": 46,
      "hit": false,
      "t": 85454.45999999986,
      "d": 454.54499999999825,
      "v": 127
    },
    {
      "midi": 58,
      "hit": false,
      "t": 85454.45999999986,
      "d": 454.54499999999825,
      "v": 127
    },
    {
      "midi": 53,
      "hit": false,
      "t": 85909.00499999986,
      "d": 454.54499999999825,
      "v": 127
    },
    {
      "midi": 58,
      "hit": false,
      "t": 85909.00499999986,
      "d": 454.54499999999825,
      "v": 127
    },
    {
      "midi": 62,
      "hit": false,
      "t": 85909.00499999986,
      "d": 454.54499999999825,
      "v": 127
    },
    {
      "midi": 74,
      "hit": false,
      "t": 85909.00500000009,
      "d": 227.2725000000064,
      "v": 127
    },
    {
      "midi": 75,
      "hit": false,
      "t": 86136.2775000001,
      "d": 227.2725000000064,
      "v": 127
    },
    {
      "midi": 46,
      "hit": false,
      "t": 86363.54999999986,
      "d": 454.54499999999825,
      "v": 127
    },
    {
      "midi": 58,
      "hit": false,
      "t": 86363.54999999986,
      "d": 454.54499999999825,
      "v": 127
    },
    {
      "midi": 65,
      "hit": false,
      "t": 86363.5500000001,
      "d": 454.54499999999825,
      "v": 127
    },
    {
      "midi": 70,
      "hit": false,
      "t": 86363.5500000001,
      "d": 454.54499999999825,
      "v": 127
    },
    {
      "midi": 74,
      "hit": false,
      "t": 86363.5500000001,
      "d": 454.54499999999825,
      "v": 127
    },
    {
      "midi": 77,
      "hit": false,
      "t": 86363.5500000001,
      "d": 454.54499999999825,
      "v": 127
    },
    {
      "midi": 45,
      "hit": false,
      "t": 86818.09499999986,
      "d": 454.54499999999825,
      "v": 127
    },
    {
      "midi": 57,
      "hit": false,
      "t": 86818.09499999986,
      "d": 454.54499999999825,
      "v": 127
    },
    {
      "midi": 66,
      "hit": false,
      "t": 86818.0950000001,
      "d": 454.54499999999825,
      "v": 127
    },
    {
      "midi": 72,
      "hit": false,
      "t": 86818.0950000001,
      "d": 454.54499999999825,
      "v": 127
    },
    {
      "midi": 74,
      "hit": false,
      "t": 86818.0950000001,
      "d": 454.54499999999825,
      "v": 127
    },
    {
      "midi": 78,
      "hit": false,
      "t": 86818.0950000001,
      "d": 454.54499999999825,
      "v": 127
    },
    {
      "midi": 43,
      "hit": false,
      "t": 87272.63999999985,
      "d": 454.54499999999825,
      "v": 127
    },
    {
      "midi": 55,
      "hit": false,
      "t": 87272.63999999985,
      "d": 454.54499999999825,
      "v": 127
    },
    {
      "midi": 79,
      "hit": false,
      "t": 87272.6400000001,
      "d": 681.8175000000047,
      "v": 127
    },
    {
      "midi": 67,
      "hit": false,
      "t": 87272.6400000001,
      "d": 1818.1800000000367,
      "v": 127
    },
    {
      "midi": 71,
      "hit": false,
      "t": 87272.6400000001,
      "d": 1818.1800000000367,
      "v": 127
    },
    {
      "midi": 74,
      "hit": false,
      "t": 87272.6400000001,
      "d": 1818.1800000000367,
      "v": 127
    },
    {
      "midi": 55,
      "hit": false,
      "t": 87727.18499999985,
      "d": 454.54499999999825,
      "v": 127
    },
    {
      "midi": 59,
      "hit": false,
      "t": 87727.18499999985,
      "d": 454.54499999999825,
      "v": 127
    },
    {
      "midi": 65,
      "hit": false,
      "t": 87727.18499999985,
      "d": 454.54499999999825,
      "v": 127
    },
    {
      "midi": 80,
      "hit": false,
      "t": 87954.4575000001,
      "d": 227.2725000000064,
      "v": 127
    },
    {
      "midi": 47,
      "hit": false,
      "t": 88181.72999999985,
      "d": 454.54499999999825,
      "v": 127
    },
    {
      "midi": 59,
      "hit": false,
      "t": 88181.72999999985,
      "d": 454.54499999999825,
      "v": 127
    },
    {
      "midi": 80,
      "hit": false,
      "t": 88181.73000000011,
      "d": 227.2725000000064,
      "v": 127
    },
    {
      "midi": 79,
      "hit": false,
      "t": 88409.00250000012,
      "d": 227.2725000000064,
      "v": 127
    },
    {
      "midi": 55,
      "hit": false,
      "t": 88636.27499999985,
      "d": 454.54499999999825,
      "v": 127
    },
    {
      "midi": 59,
      "hit": false,
      "t": 88636.27499999985,
      "d": 454.54499999999825,
      "v": 127
    },
    {
      "midi": 65,
      "hit": false,
      "t": 88636.27499999985,
      "d": 454.54499999999825,
      "v": 127
    },
    {
      "midi": 79,
      "hit": false,
      "t": 88636.27500000013,
      "d": 227.2725000000064,
      "v": 127
    },
    {
      "midi": 77,
      "hit": false,
      "t": 88863.54750000013,
      "d": 227.2725000000064,
      "v": 127
    },
    {
      "midi": 48,
      "hit": false,
      "t": 89090.81999999985,
      "d": 227.2725000000064,
      "v": 127
    },
    {
      "midi": 77,
      "hit": false,
      "t": 89090.82000000014,
      "d": 454.54499999999825,
      "v": 127
    },
    {
      "midi": 67,
      "hit": false,
      "t": 89090.82000000014,
      "d": 909.0899999999965,
      "v": 127
    },
    {
      "midi": 72,
      "hit": false,
      "t": 89090.82000000014,
      "d": 909.0899999999965,
      "v": 127
    },
    {
      "midi": 55,
      "hit": false,
      "t": 89318.09249999985,
      "d": 227.2725000000064,
      "v": 127
    },
    {
      "midi": 60,
      "hit": false,
      "t": 89545.36499999986,
      "d": 227.2725000000064,
      "v": 127
    },
    {
      "midi": 75,
      "hit": false,
      "t": 89545.36500000014,
      "d": 454.54499999999825,
      "v": 127
    },
    {
      "midi": 63,
      "hit": false,
      "t": 89772.63749999987,
      "d": 227.2725000000064,
      "v": 127
    },
    {
      "midi": 64,
      "hit": false,
      "t": 89999.90999999987,
      "d": 909.0899999999965,
      "v": 127
    },
    {
      "midi": 67,
      "hit": false,
      "t": 89999.91000000013,
      "d": 909.0899999999965,
      "v": 127
    },
    {
      "midi": 70,
      "hit": false,
      "t": 89999.91000000013,
      "d": 909.0899999999965,
      "v": 127
    },
    {
      "midi": 73,
      "hit": false,
      "t": 89999.91000000013,
      "d": 909.0899999999965,
      "v": 127
    },
    {
      "midi": 65,
      "hit": false,
      "t": 90908.99999999987,
      "d": 454.54499999999825,
      "v": 127
    },
    {
      "midi": 74,
      "hit": false,
      "t": 90909.00000000013,
      "d": 227.2725000000064,
      "v": 127
    },
    {
      "midi": 70,
      "hit": false,
      "t": 90909.00000000013,
      "d": 909.0900000000256,
      "v": 127
    },
    {
      "midi": 75,
      "hit": false,
      "t": 91136.27250000014,
      "d": 227.2725000000064,
      "v": 127
    },
    {
      "midi": 62,
      "hit": false,
      "t": 91363.54499999987,
      "d": 454.54499999999825,
      "v": 127
    },
    {
      "midi": 77,
      "hit": false,
      "t": 91363.54500000014,
      "d": 227.2725000000064,
      "v": 127
    },
    {
      "midi": 79,
      "hit": false,
      "t": 91590.81750000015,
      "d": 227.2725000000064,
      "v": 127
    },
    {
      "midi": 53,
      "hit": false,
      "t": 91818.08999999987,
      "d": 454.54499999999825,
      "v": 127
    },
    {
      "midi": 65,
      "hit": false,
      "t": 91818.09000000016,
      "d": 227.2725000000064,
      "v": 127
    },
    {
      "midi": 69,
      "hit": false,
      "t": 91818.09000000016,
      "d": 227.2725000000064,
      "v": 127
    },
    {
      "midi": 74,
      "hit": false,
      "t": 91818.09000000016,
      "d": 227.2725000000064,
      "v": 127
    },
    {
      "midi": 63,
      "hit": false,
      "t": 92045.36250000016,
      "d": 454.54499999999825,
      "v": 127
    },
    {
      "midi": 69,
      "hit": false,
      "t": 92045.36250000016,
      "d": 454.54499999999825,
      "v": 127
    },
    {
      "midi": 72,
      "hit": false,
      "t": 92045.36250000016,
      "d": 454.54499999999825,
      "v": 127
    },
    {
      "midi": 41,
      "hit": false,
      "t": 92272.63499999986,
      "d": 454.54499999999825,
      "v": 127
    },
    {
      "midi": 53,
      "hit": false,
      "t": 92272.63499999986,
      "d": 454.54499999999825,
      "v": 127
    },
    {
      "midi": 62,
      "hit": false,
      "t": 92499.90750000016,
      "d": 681.8175000000047,
      "v": 127
    },
    {
      "midi": 70,
      "hit": false,
      "t": 92499.90750000016,
      "d": 681.8175000000047,
      "v": 127
    },
    {
      "midi": 46,
      "hit": false,
      "t": 92727.17999999986,
      "d": 909.0899999999965,
      "v": 127
    },
    {
      "midi": 58,
      "hit": false,
      "t": 92727.17999999986,
      "d": 909.0899999999965,
      "v": 127
    },
    {
      "midi": 77,
      "hit": false,
      "t": 93181.72500000017,
      "d": 227.2725000000064,
      "v": 127
    },
    {
      "midi": 77,
      "hit": false,
      "t": 93408.99750000017,
      "d": 227.2725000000064,
      "v": 127
    },
    {
      "midi": 77,
      "hit": false,
      "t": 93636.27000000018,
      "d": 454.54499999999825,
      "v": 127
    },
    {
      "midi": 77,
      "hit": false,
      "t": 94090.81500000018,
      "d": 454.54499999999825,
      "v": 127
    },
    {
      "midi": 41,
      "hit": false,
      "t": 94545.35999999986,
      "d": 454.54499999999825,
      "v": 127
    },
    {
      "midi": 53,
      "hit": false,
      "t": 94545.35999999986,
      "d": 454.54499999999825,
      "v": 127
    },
    {
      "midi": 77,
      "hit": false,
      "t": 94545.36000000018,
      "d": 227.2725000000064,
      "v": 127
    },
    {
      "midi": 69,
      "hit": false,
      "t": 94772.63250000018,
      "d": 227.2725000000064,
      "v": 127
    },
    {
      "midi": 43,
      "hit": false,
      "t": 94999.90499999985,
      "d": 454.54499999999825,
      "v": 127
    },
    {
      "midi": 55,
      "hit": false,
      "t": 94999.90499999985,
      "d": 454.54499999999825,
      "v": 127
    },
    {
      "midi": 75,
      "hit": false,
      "t": 94999.90500000019,
      "d": 227.2725000000064,
      "v": 127
    },
    {
      "midi": 77,
      "hit": false,
      "t": 95227.1775000002,
      "d": 454.54499999999825,
      "v": 127
    },
    {
      "midi": 45,
      "hit": false,
      "t": 95454.44999999985,
      "d": 454.54499999999825,
      "v": 127
    },
    {
      "midi": 57,
      "hit": false,
      "t": 95454.44999999985,
      "d": 454.54499999999825,
      "v": 127
    },
    {
      "midi": 75,
      "hit": false,
      "t": 95681.72250000019,
      "d": 227.2725000000064,
      "v": 127
    },
    {
      "midi": 46,
      "hit": false,
      "t": 95908.99499999985,
      "d": 454.54499999999825,
      "v": 127
    },
    {
      "midi": 58,
      "hit": false,
      "t": 95908.99499999985,
      "d": 454.54499999999825,
      "v": 127
    },
    {
      "midi": 67,
      "hit": false,
      "t": 95908.9950000002,
      "d": 454.54499999999825,
      "v": 127
    },
    {
      "midi": 48,
      "hit": false,
      "t": 96363.53999999985,
      "d": 454.54499999999825,
      "v": 127
    },
    {
      "midi": 60,
      "hit": false,
      "t": 96363.53999999985,
      "d": 454.54499999999825,
      "v": 127
    },
    {
      "midi": 75,
      "hit": false,
      "t": 96363.5400000002,
      "d": 227.2725000000064,
      "v": 127
    },
    {
      "midi": 67,
      "hit": false,
      "t": 96590.8125000002,
      "d": 227.2725000000064,
      "v": 127
    },
    {
      "midi": 47,
      "hit": false,
      "t": 96818.08499999985,
      "d": 454.54499999999825,
      "v": 127
    },
    {
      "midi": 59,
      "hit": false,
      "t": 96818.08499999985,
      "d": 454.54499999999825,
      "v": 127
    },
    {
      "midi": 68,
      "hit": false,
      "t": 96818.08500000021,
      "d": 227.2725000000064,
      "v": 127
    },
    {
      "midi": 69,
      "hit": false,
      "t": 97045.35750000022,
      "d": 454.54499999999825,
      "v": 127
    },
    {
      "midi": 48,
      "hit": false,
      "t": 97272.62999999984,
      "d": 454.54499999999825,
      "v": 127
    },
    {
      "midi": 60,
      "hit": false,
      "t": 97272.62999999984,
      "d": 454.54499999999825,
      "v": 127
    },
    {
      "midi": 75,
      "hit": false,
      "t": 97499.90250000021,
      "d": 227.2725000000064,
      "v": 127
    },
    {
      "midi": 49,
      "hit": false,
      "t": 97727.17499999984,
      "d": 454.54499999999825,
      "v": 127
    },
    {
      "midi": 61,
      "hit": false,
      "t": 97727.17499999984,
      "d": 454.54499999999825,
      "v": 127
    },
    {
      "midi": 67,
      "hit": false,
      "t": 97727.17500000022,
      "d": 454.54499999999825,
      "v": 127
    },
    {
      "midi": 50,
      "hit": false,
      "t": 98181.71999999984,
      "d": 454.54499999999825,
      "v": 127
    },
    {
      "midi": 62,
      "hit": false,
      "t": 98181.71999999984,
      "d": 454.54499999999825,
      "v": 127
    },
    {
      "midi": 65,
      "hit": false,
      "t": 98181.72000000022,
      "d": 227.2725000000064,
      "v": 127
    },
    {
      "midi": 70,
      "hit": false,
      "t": 98408.99250000023,
      "d": 227.2725000000064,
      "v": 127
    },
    {
      "midi": 53,
      "hit": false,
      "t": 98636.26499999984,
      "d": 454.54499999999825,
      "v": 127
    },
    {
      "midi": 58,
      "hit": false,
      "t": 98636.26499999984,
      "d": 454.54499999999825,
      "v": 127
    },
    {
      "midi": 62,
      "hit": false,
      "t": 98636.26499999984,
      "d": 454.54499999999825,
      "v": 127
    },
    {
      "midi": 74,
      "hit": false,
      "t": 98636.26500000023,
      "d": 227.2725000000064,
      "v": 127
    },
    {
      "midi": 65,
      "hit": false,
      "t": 98863.53750000024,
      "d": 1363.6349999999948,
      "v": 127
    },
    {
      "midi": 70,
      "hit": false,
      "t": 98863.53750000024,
      "d": 1363.6349999999948,
      "v": 127
    },
    {
      "midi": 74,
      "hit": false,
      "t": 98863.53750000024,
      "d": 1363.6349999999948,
      "v": 127
    },
    {
      "midi": 77,
      "hit": false,
      "t": 98863.53750000024,
      "d": 1363.6349999999948,
      "v": 127
    },
    {
      "midi": 46,
      "hit": false,
      "t": 99090.80999999984,
      "d": 227.2725000000064,
      "v": 127
    },
    {
      "midi": 58,
      "hit": false,
      "t": 99090.80999999984,
      "d": 227.2725000000064,
      "v": 127
    },
    {
      "midi": 48,
      "hit": false,
      "t": 99318.08249999984,
      "d": 227.2725000000064,
      "v": 127
    },
    {
      "midi": 60,
      "hit": false,
      "t": 99318.08249999984,
      "d": 227.2725000000064,
      "v": 127
    },
    {
      "midi": 50,
      "hit": false,
      "t": 99545.35499999985,
      "d": 227.2725000000064,
      "v": 127
    },
    {
      "midi": 62,
      "hit": false,
      "t": 99545.35499999985,
      "d": 227.2725000000064,
      "v": 127
    },
    {
      "midi": 48,
      "hit": false,
      "t": 99772.62749999986,
      "d": 227.2725000000064,
      "v": 127
    },
    {
      "midi": 60,
      "hit": false,
      "t": 99772.62749999986,
      "d": 227.2725000000064,
      "v": 127
    },
    {
      "midi": 46,
      "hit": false,
      "t": 99999.89999999986,
      "d": 454.54499999999825,
      "v": 127
    },
    {
      "midi": 58,
      "hit": false,
      "t": 99999.89999999986,
      "d": 454.54499999999825,
      "v": 127
    },
    {
      "midi": 53,
      "hit": false,
      "t": 100454.44499999986,
      "d": 454.54499999999825,
      "v": 127
    },
    {
      "midi": 58,
      "hit": false,
      "t": 100454.44499999986,
      "d": 454.54499999999825,
      "v": 127
    },
    {
      "midi": 62,
      "hit": false,
      "t": 100454.44499999986,
      "d": 454.54499999999825,
      "v": 127
    },
    {
      "midi": 74,
      "hit": false,
      "t": 100454.44500000024,
      "d": 227.2725000000064,
      "v": 127
    },
    {
      "midi": 72,
      "hit": false,
      "t": 100681.71750000025,
      "d": 227.2725000000064,
      "v": 127
    },
    {
      "midi": 53,
      "hit": false,
      "t": 100908.98999999986,
      "d": 454.54499999999825,
      "v": 127
    },
    {
      "midi": 58,
      "hit": false,
      "t": 100908.98999999986,
      "d": 454.54499999999825,
      "v": 127
    },
    {
      "midi": 62,
      "hit": false,
      "t": 100908.98999999986,
      "d": 454.54499999999825,
      "v": 127
    },
    {
      "midi": 70,
      "hit": false,
      "t": 100908.99000000025,
      "d": 227.2725000000064,
      "v": 127
    },
    {
      "midi": 69,
      "hit": false,
      "t": 101136.26250000026,
      "d": 227.2725000000064,
      "v": 127
    },
    {
      "midi": 47,
      "hit": false,
      "t": 101363.53499999986,
      "d": 454.54499999999825,
      "v": 127
    },
    {
      "midi": 59,
      "hit": false,
      "t": 101363.53499999986,
      "d": 454.54499999999825,
      "v": 127
    },
    {
      "midi": 67,
      "hit": false,
      "t": 101363.53500000027,
      "d": 227.2725000000064,
      "v": 127
    },
    {
      "midi": 66,
      "hit": false,
      "t": 101590.80750000027,
      "d": 227.2725000000064,
      "v": 127
    },
    {
      "midi": 48,
      "hit": false,
      "t": 101818.07999999986,
      "d": 454.54499999999825,
      "v": 127
    },
    {
      "midi": 60,
      "hit": false,
      "t": 101818.07999999986,
      "d": 454.54499999999825,
      "v": 127
    },
    {
      "midi": 65,
      "hit": false,
      "t": 101818.08000000028,
      "d": 227.2725000000064,
      "v": 127
    },
    {
      "midi": 69,
      "hit": false,
      "t": 102045.35250000028,
      "d": 227.2725000000064,
      "v": 127
    },
    {
      "midi": 53,
      "hit": false,
      "t": 102272.62499999985,
      "d": 454.54499999999825,
      "v": 127
    },
    {
      "midi": 57,
      "hit": false,
      "t": 102272.62499999985,
      "d": 454.54499999999825,
      "v": 127
    },
    {
      "midi": 63,
      "hit": false,
      "t": 102272.62499999985,
      "d": 454.54499999999825,
      "v": 127
    },
    {
      "midi": 72,
      "hit": false,
      "t": 102272.62500000029,
      "d": 227.2725000000064,
      "v": 127
    },
    {
      "midi": 65,
      "hit": false,
      "t": 102499.8975000003,
      "d": 1363.6349999999948,
      "v": 127
    },
    {
      "midi": 69,
      "hit": false,
      "t": 102499.8975000003,
      "d": 1363.6349999999948,
      "v": 127
    },
    {
      "midi": 72,
      "hit": false,
      "t": 102499.8975000003,
      "d": 1363.6349999999948,
      "v": 127
    },
    {
      "midi": 77,
      "hit": false,
      "t": 102499.8975000003,
      "d": 1363.6349999999948,
      "v": 127
    },
    {
      "midi": 45,
      "hit": false,
      "t": 102727.16999999985,
      "d": 227.2725000000064,
      "v": 127
    },
    {
      "midi": 57,
      "hit": false,
      "t": 102727.16999999985,
      "d": 227.2725000000064,
      "v": 127
    },
    {
      "midi": 46,
      "hit": false,
      "t": 102954.44249999986,
      "d": 227.2725000000064,
      "v": 127
    },
    {
      "midi": 58,
      "hit": false,
      "t": 102954.44249999986,
      "d": 227.2725000000064,
      "v": 127
    },
    {
      "midi": 48,
      "hit": false,
      "t": 103181.71499999987,
      "d": 227.2725000000064,
      "v": 127
    },
    {
      "midi": 60,
      "hit": false,
      "t": 103181.71499999987,
      "d": 227.2725000000064,
      "v": 127
    },
    {
      "midi": 46,
      "hit": false,
      "t": 103408.98749999987,
      "d": 227.2725000000064,
      "v": 127
    },
    {
      "midi": 58,
      "hit": false,
      "t": 103408.98749999987,
      "d": 227.2725000000064,
      "v": 127
    },
    {
      "midi": 45,
      "hit": false,
      "t": 103636.25999999988,
      "d": 454.54499999999825,
      "v": 127
    },
    {
      "midi": 57,
      "hit": false,
      "t": 103636.25999999988,
      "d": 454.54499999999825,
      "v": 127
    },
    {
      "midi": 57,
      "hit": false,
      "t": 104090.80499999988,
      "d": 454.54499999999825,
      "v": 127
    },
    {
      "midi": 63,
      "hit": false,
      "t": 104090.80499999988,
      "d": 454.54499999999825,
      "v": 127
    },
    {
      "midi": 65,
      "hit": false,
      "t": 104090.80499999988,
      "d": 454.54499999999825,
      "v": 127
    },
    {
      "midi": 72,
      "hit": false,
      "t": 104090.8050000003,
      "d": 227.2725000000064,
      "v": 127
    },
    {
      "midi": 70,
      "hit": false,
      "t": 104318.0775000003,
      "d": 227.2725000000064,
      "v": 127
    },
    {
      "midi": 53,
      "hit": false,
      "t": 104545.34999999987,
      "d": 454.54499999999825,
      "v": 127
    },
    {
      "midi": 65,
      "hit": false,
      "t": 104545.34999999987,
      "d": 454.54499999999825,
      "v": 127
    },
    {
      "midi": 69,
      "hit": false,
      "t": 104545.35000000031,
      "d": 227.2725000000064,
      "v": 127
    },
    {
      "midi": 68,
      "hit": false,
      "t": 104772.62250000032,
      "d": 227.2725000000064,
      "v": 127
    },
    {
      "midi": 51,
      "hit": false,
      "t": 104999.89499999987,
      "d": 454.54499999999825,
      "v": 127
    },
    {
      "midi": 63,
      "hit": false,
      "t": 104999.89499999987,
      "d": 454.54499999999825,
      "v": 127
    },
    {
      "midi": 67,
      "hit": false,
      "t": 104999.89500000032,
      "d": 227.2725000000064,
      "v": 127
    },
    {
      "midi": 66,
      "hit": false,
      "t": 105227.16750000033,
      "d": 227.2725000000064,
      "v": 127
    },
    {
      "midi": 50,
      "hit": false,
      "t": 105454.43999999987,
      "d": 454.54499999999825,
      "v": 127
    },
    {
      "midi": 62,
      "hit": false,
      "t": 105454.43999999987,
      "d": 454.54499999999825,
      "v": 127
    },
    {
      "midi": 65,
      "hit": false,
      "t": 105454.44000000034,
      "d": 227.2725000000064,
      "v": 127
    },
    {
      "midi": 70,
      "hit": false,
      "t": 105681.71250000034,
      "d": 227.2725000000064,
      "v": 127
    },
    {
      "midi": 53,
      "hit": false,
      "t": 105908.98499999987,
      "d": 454.54499999999825,
      "v": 127
    },
    {
      "midi": 58,
      "hit": false,
      "t": 105908.98499999987,
      "d": 454.54499999999825,
      "v": 127
    },
    {
      "midi": 62,
      "hit": false,
      "t": 105908.98499999987,
      "d": 454.54499999999825,
      "v": 127
    },
    {
      "midi": 74,
      "hit": false,
      "t": 105908.98500000035,
      "d": 227.2725000000064,
      "v": 127
    },
    {
      "midi": 65,
      "hit": false,
      "t": 106136.25750000036,
      "d": 1363.6349999999948,
      "v": 127
    },
    {
      "midi": 70,
      "hit": false,
      "t": 106136.25750000036,
      "d": 1363.6349999999948,
      "v": 127
    },
    {
      "midi": 74,
      "hit": false,
      "t": 106136.25750000036,
      "d": 1363.6349999999948,
      "v": 127
    },
    {
      "midi": 77,
      "hit": false,
      "t": 106136.25750000036,
      "d": 1363.6349999999948,
      "v": 127
    },
    {
      "midi": 46,
      "hit": false,
      "t": 106363.52999999987,
      "d": 227.2725000000064,
      "v": 127
    },
    {
      "midi": 58,
      "hit": false,
      "t": 106363.52999999987,
      "d": 227.2725000000064,
      "v": 127
    },
    {
      "midi": 48,
      "hit": false,
      "t": 106590.80249999987,
      "d": 227.2725000000064,
      "v": 127
    },
    {
      "midi": 60,
      "hit": false,
      "t": 106590.80249999987,
      "d": 227.2725000000064,
      "v": 127
    },
    {
      "midi": 50,
      "hit": false,
      "t": 106818.07499999988,
      "d": 227.2725000000064,
      "v": 127
    },
    {
      "midi": 62,
      "hit": false,
      "t": 106818.07499999988,
      "d": 227.2725000000064,
      "v": 127
    },
    {
      "midi": 46,
      "hit": false,
      "t": 107045.34749999989,
      "d": 227.2725000000064,
      "v": 127
    },
    {
      "midi": 58,
      "hit": false,
      "t": 107045.34749999989,
      "d": 227.2725000000064,
      "v": 127
    },
    {
      "midi": 41,
      "hit": false,
      "t": 107272.6199999999,
      "d": 909.0899999999965,
      "v": 127
    },
    {
      "midi": 53,
      "hit": false,
      "t": 107272.6199999999,
      "d": 909.0899999999965,
      "v": 127
    },
    {
      "midi": 77,
      "hit": false,
      "t": 107727.16500000036,
      "d": 227.2725000000064,
      "v": 127
    },
    {
      "midi": 77,
      "hit": false,
      "t": 107954.43750000036,
      "d": 227.2725000000064,
      "v": 127
    },
    {
      "midi": 77,
      "hit": false,
      "t": 108181.71000000037,
      "d": 454.54499999999825,
      "v": 127
    },
    {
      "midi": 77,
      "hit": false,
      "t": 108636.25500000037,
      "d": 454.54499999999825,
      "v": 127
    },
    {
      "midi": 41,
      "hit": false,
      "t": 109090.79999999989,
      "d": 454.54499999999825,
      "v": 127
    },
    {
      "midi": 53,
      "hit": false,
      "t": 109090.79999999989,
      "d": 454.54499999999825,
      "v": 127
    },
    {
      "midi": 77,
      "hit": false,
      "t": 109090.80000000037,
      "d": 227.2725000000064,
      "v": 127
    },
    {
      "midi": 69,
      "hit": false,
      "t": 109318.07250000037,
      "d": 227.2725000000064,
      "v": 127
    },
    {
      "midi": 43,
      "hit": false,
      "t": 109545.34499999988,
      "d": 454.54499999999825,
      "v": 127
    },
    {
      "midi": 55,
      "hit": false,
      "t": 109545.34499999988,
      "d": 454.54499999999825,
      "v": 127
    },
    {
      "midi": 75,
      "hit": false,
      "t": 109545.34500000038,
      "d": 227.2725000000064,
      "v": 127
    },
    {
      "midi": 77,
      "hit": false,
      "t": 109772.61750000039,
      "d": 454.54499999999825,
      "v": 127
    },
    {
      "midi": 45,
      "hit": false,
      "t": 109999.88999999988,
      "d": 454.54499999999825,
      "v": 127
    },
    {
      "midi": 57,
      "hit": false,
      "t": 109999.88999999988,
      "d": 454.54499999999825,
      "v": 127
    },
    {
      "midi": 75,
      "hit": false,
      "t": 110227.16250000038,
      "d": 227.2725000000064,
      "v": 127
    },
    {
      "midi": 46,
      "hit": false,
      "t": 110454.43499999988,
      "d": 454.54499999999825,
      "v": 127
    },
    {
      "midi": 58,
      "hit": false,
      "t": 110454.43499999988,
      "d": 454.54499999999825,
      "v": 127
    },
    {
      "midi": 67,
      "hit": false,
      "t": 110454.43500000039,
      "d": 454.54499999999825,
      "v": 127
    },
    {
      "midi": 48,
      "hit": false,
      "t": 110908.97999999988,
      "d": 454.54499999999825,
      "v": 127
    },
    {
      "midi": 60,
      "hit": false,
      "t": 110908.97999999988,
      "d": 454.54499999999825,
      "v": 127
    },
    {
      "midi": 75,
      "hit": false,
      "t": 110908.98000000039,
      "d": 227.2725000000064,
      "v": 127
    },
    {
      "midi": 67,
      "hit": false,
      "t": 111136.2525000004,
      "d": 227.2725000000064,
      "v": 127
    },
    {
      "midi": 47,
      "hit": false,
      "t": 111363.52499999988,
      "d": 454.54499999999825,
      "v": 127
    },
    {
      "midi": 59,
      "hit": false,
      "t": 111363.52499999988,
      "d": 454.54499999999825,
      "v": 127
    },
    {
      "midi": 68,
      "hit": false,
      "t": 111363.5250000004,
      "d": 227.2725000000064,
      "v": 127
    },
    {
      "midi": 69,
      "hit": false,
      "t": 111590.79750000041,
      "d": 454.54499999999825,
      "v": 127
    },
    {
      "midi": 48,
      "hit": false,
      "t": 111818.06999999988,
      "d": 454.54499999999825,
      "v": 127
    },
    {
      "midi": 60,
      "hit": false,
      "t": 111818.06999999988,
      "d": 454.54499999999825,
      "v": 127
    },
    {
      "midi": 75,
      "hit": false,
      "t": 112045.3425000004,
      "d": 227.2725000000064,
      "v": 127
    },
    {
      "midi": 49,
      "hit": false,
      "t": 112272.61499999987,
      "d": 454.54499999999825,
      "v": 127
    },
    {
      "midi": 61,
      "hit": false,
      "t": 112272.61499999987,
      "d": 454.54499999999825,
      "v": 127
    },
    {
      "midi": 67,
      "hit": false,
      "t": 112272.61500000041,
      "d": 454.54499999999825,
      "v": 127
    },
    {
      "midi": 50,
      "hit": false,
      "t": 112727.15999999987,
      "d": 454.54499999999825,
      "v": 127
    },
    {
      "midi": 62,
      "hit": false,
      "t": 112727.15999999987,
      "d": 454.54499999999825,
      "v": 127
    },
    {
      "midi": 65,
      "hit": false,
      "t": 112727.16000000041,
      "d": 227.2725000000064,
      "v": 127
    },
    {
      "midi": 70,
      "hit": false,
      "t": 112954.43250000042,
      "d": 227.2725000000064,
      "v": 127
    },
    {
      "midi": 53,
      "hit": false,
      "t": 113181.70499999987,
      "d": 454.54499999999825,
      "v": 127
    },
    {
      "midi": 58,
      "hit": false,
      "t": 113181.70499999987,
      "d": 454.54499999999825,
      "v": 127
    },
    {
      "midi": 62,
      "hit": false,
      "t": 113181.70499999987,
      "d": 454.54499999999825,
      "v": 127
    },
    {
      "midi": 74,
      "hit": false,
      "t": 113181.70500000042,
      "d": 227.2725000000064,
      "v": 127
    },
    {
      "midi": 65,
      "hit": false,
      "t": 113408.97750000043,
      "d": 1363.6349999999948,
      "v": 127
    },
    {
      "midi": 70,
      "hit": false,
      "t": 113408.97750000043,
      "d": 1363.6349999999948,
      "v": 127
    },
    {
      "midi": 74,
      "hit": false,
      "t": 113408.97750000043,
      "d": 1363.6349999999948,
      "v": 127
    },
    {
      "midi": 77,
      "hit": false,
      "t": 113408.97750000043,
      "d": 1363.6349999999948,
      "v": 127
    },
    {
      "midi": 46,
      "hit": false,
      "t": 113636.24999999987,
      "d": 227.2725000000064,
      "v": 127
    },
    {
      "midi": 58,
      "hit": false,
      "t": 113636.24999999987,
      "d": 227.2725000000064,
      "v": 127
    },
    {
      "midi": 48,
      "hit": false,
      "t": 113863.52249999988,
      "d": 227.2725000000064,
      "v": 127
    },
    {
      "midi": 60,
      "hit": false,
      "t": 113863.52249999988,
      "d": 227.2725000000064,
      "v": 127
    },
    {
      "midi": 50,
      "hit": false,
      "t": 114090.79499999988,
      "d": 227.2725000000064,
      "v": 127
    },
    {
      "midi": 62,
      "hit": false,
      "t": 114090.79499999988,
      "d": 227.2725000000064,
      "v": 127
    },
    {
      "midi": 48,
      "hit": false,
      "t": 114318.06749999989,
      "d": 227.2725000000064,
      "v": 127
    },
    {
      "midi": 60,
      "hit": false,
      "t": 114318.06749999989,
      "d": 227.2725000000064,
      "v": 127
    },
    {
      "midi": 46,
      "hit": false,
      "t": 114545.3399999999,
      "d": 454.54499999999825,
      "v": 127
    },
    {
      "midi": 58,
      "hit": false,
      "t": 114545.3399999999,
      "d": 454.54499999999825,
      "v": 127
    },
    {
      "midi": 53,
      "hit": false,
      "t": 114999.8849999999,
      "d": 454.54499999999825,
      "v": 127
    },
    {
      "midi": 58,
      "hit": false,
      "t": 114999.8849999999,
      "d": 454.54499999999825,
      "v": 127
    },
    {
      "midi": 62,
      "hit": false,
      "t": 114999.8849999999,
      "d": 454.54499999999825,
      "v": 127
    },
    {
      "midi": 74,
      "hit": false,
      "t": 114999.88500000043,
      "d": 227.2725000000064,
      "v": 127
    },
    {
      "midi": 75,
      "hit": false,
      "t": 115227.15750000044,
      "d": 227.2725000000064,
      "v": 127
    },
    {
      "midi": 46,
      "hit": false,
      "t": 115454.42999999989,
      "d": 454.54499999999825,
      "v": 127
    },
    {
      "midi": 58,
      "hit": false,
      "t": 115454.42999999989,
      "d": 454.54499999999825,
      "v": 127
    },
    {
      "midi": 65,
      "hit": false,
      "t": 115454.43000000044,
      "d": 454.54499999999825,
      "v": 127
    },
    {
      "midi": 70,
      "hit": false,
      "t": 115454.43000000044,
      "d": 454.54499999999825,
      "v": 127
    },
    {
      "midi": 74,
      "hit": false,
      "t": 115454.43000000044,
      "d": 454.54499999999825,
      "v": 127
    },
    {
      "midi": 77,
      "hit": false,
      "t": 115454.43000000044,
      "d": 454.54499999999825,
      "v": 127
    },
    {
      "midi": 45,
      "hit": false,
      "t": 115908.97499999989,
      "d": 454.54499999999825,
      "v": 127
    },
    {
      "midi": 57,
      "hit": false,
      "t": 115908.97499999989,
      "d": 454.54499999999825,
      "v": 127
    },
    {
      "midi": 66,
      "hit": false,
      "t": 115908.97500000044,
      "d": 454.54499999999825,
      "v": 127
    },
    {
      "midi": 72,
      "hit": false,
      "t": 115908.97500000044,
      "d": 454.54499999999825,
      "v": 127
    },
    {
      "midi": 74,
      "hit": false,
      "t": 115908.97500000044,
      "d": 454.54499999999825,
      "v": 127
    },
    {
      "midi": 78,
      "hit": false,
      "t": 115908.97500000044,
      "d": 454.54499999999825,
      "v": 127
    },
    {
      "midi": 43,
      "hit": false,
      "t": 116363.51999999989,
      "d": 454.54499999999825,
      "v": 127
    },
    {
      "midi": 55,
      "hit": false,
      "t": 116363.51999999989,
      "d": 454.54499999999825,
      "v": 127
    },
    {
      "midi": 79,
      "hit": false,
      "t": 116363.52000000044,
      "d": 681.8175000000047,
      "v": 127
    },
    {
      "midi": 67,
      "hit": false,
      "t": 116363.52000000044,
      "d": 1818.1800000000367,
      "v": 127
    },
    {
      "midi": 71,
      "hit": false,
      "t": 116363.52000000044,
      "d": 1818.1800000000367,
      "v": 127
    },
    {
      "midi": 74,
      "hit": false,
      "t": 116363.52000000044,
      "d": 1818.1800000000367,
      "v": 127
    },
    {
      "midi": 55,
      "hit": false,
      "t": 116818.06499999989,
      "d": 454.54499999999825,
      "v": 127
    },
    {
      "midi": 59,
      "hit": false,
      "t": 116818.06499999989,
      "d": 454.54499999999825,
      "v": 127
    },
    {
      "midi": 65,
      "hit": false,
      "t": 116818.06499999989,
      "d": 454.54499999999825,
      "v": 127
    },
    {
      "midi": 80,
      "hit": false,
      "t": 117045.33750000045,
      "d": 227.2725000000064,
      "v": 127
    },
    {
      "midi": 47,
      "hit": false,
      "t": 117272.60999999988,
      "d": 454.54499999999825,
      "v": 127
    },
    {
      "midi": 59,
      "hit": false,
      "t": 117272.60999999988,
      "d": 454.54499999999825,
      "v": 127
    },
    {
      "midi": 80,
      "hit": false,
      "t": 117272.61000000045,
      "d": 227.2725000000064,
      "v": 127
    },
    {
      "midi": 79,
      "hit": false,
      "t": 117499.88250000046,
      "d": 227.2725000000064,
      "v": 127
    },
    {
      "midi": 55,
      "hit": false,
      "t": 117727.15499999988,
      "d": 454.54499999999825,
      "v": 127
    },
    {
      "midi": 59,
      "hit": false,
      "t": 117727.15499999988,
      "d": 454.54499999999825,
      "v": 127
    },
    {
      "midi": 65,
      "hit": false,
      "t": 117727.15499999988,
      "d": 454.54499999999825,
      "v": 127
    },
    {
      "midi": 79,
      "hit": false,
      "t": 117727.15500000046,
      "d": 227.2725000000064,
      "v": 127
    },
    {
      "midi": 77,
      "hit": false,
      "t": 117954.42750000047,
      "d": 227.2725000000064,
      "v": 127
    },
    {
      "midi": 48,
      "hit": false,
      "t": 118181.69999999988,
      "d": 227.2725000000064,
      "v": 127
    },
    {
      "midi": 77,
      "hit": false,
      "t": 118181.70000000048,
      "d": 454.54499999999825,
      "v": 127
    },
    {
      "midi": 67,
      "hit": false,
      "t": 118181.70000000048,
      "d": 909.0899999999965,
      "v": 127
    },
    {
      "midi": 72,
      "hit": false,
      "t": 118181.70000000048,
      "d": 909.0899999999965,
      "v": 127
    },
    {
      "midi": 55,
      "hit": false,
      "t": 118408.97249999989,
      "d": 227.2725000000064,
      "v": 127
    },
    {
      "midi": 60,
      "hit": false,
      "t": 118636.2449999999,
      "d": 227.2725000000064,
      "v": 127
    },
    {
      "midi": 75,
      "hit": false,
      "t": 118636.24500000048,
      "d": 454.54499999999825,
      "v": 127
    },
    {
      "midi": 63,
      "hit": false,
      "t": 118863.5174999999,
      "d": 227.2725000000064,
      "v": 127
    },
    {
      "midi": 64,
      "hit": false,
      "t": 119090.7899999999,
      "d": 909.0899999999965,
      "v": 127
    },
    {
      "midi": 67,
      "hit": false,
      "t": 119090.79000000047,
      "d": 909.0899999999965,
      "v": 127
    },
    {
      "midi": 70,
      "hit": false,
      "t": 119090.79000000047,
      "d": 909.0899999999965,
      "v": 127
    },
    {
      "midi": 73,
      "hit": false,
      "t": 119090.79000000047,
      "d": 909.0899999999965,
      "v": 127
    },
    {
      "midi": 65,
      "hit": false,
      "t": 119999.8799999999,
      "d": 454.54499999999825,
      "v": 127
    },
    {
      "midi": 74,
      "hit": false,
      "t": 119999.88000000047,
      "d": 227.2725000000064,
      "v": 127
    },
    {
      "midi": 70,
      "hit": false,
      "t": 119999.88000000047,
      "d": 909.0900000000256,
      "v": 127
    },
    {
      "midi": 75,
      "hit": false,
      "t": 120227.15250000048,
      "d": 227.2725000000064,
      "v": 127
    },
    {
      "midi": 62,
      "hit": false,
      "t": 120454.4249999999,
      "d": 454.54499999999825,
      "v": 127
    },
    {
      "midi": 77,
      "hit": false,
      "t": 120454.42500000048,
      "d": 227.2725000000064,
      "v": 127
    },
    {
      "midi": 79,
      "hit": false,
      "t": 120681.69750000049,
      "d": 227.2725000000064,
      "v": 127
    },
    {
      "midi": 53,
      "hit": false,
      "t": 120908.9699999999,
      "d": 454.54499999999825,
      "v": 127
    },
    {
      "midi": 65,
      "hit": false,
      "t": 120908.9700000005,
      "d": 227.2725000000064,
      "v": 127
    },
    {
      "midi": 69,
      "hit": false,
      "t": 120908.9700000005,
      "d": 227.2725000000064,
      "v": 127
    },
    {
      "midi": 74,
      "hit": false,
      "t": 120908.9700000005,
      "d": 227.2725000000064,
      "v": 127
    },
    {
      "midi": 63,
      "hit": false,
      "t": 121136.2425000005,
      "d": 454.54499999999825,
      "v": 127
    },
    {
      "midi": 69,
      "hit": false,
      "t": 121136.2425000005,
      "d": 454.54499999999825,
      "v": 127
    },
    {
      "midi": 72,
      "hit": false,
      "t": 121136.2425000005,
      "d": 454.54499999999825,
      "v": 127
    },
    {
      "midi": 41,
      "hit": false,
      "t": 121363.5149999999,
      "d": 454.54499999999825,
      "v": 127
    },
    {
      "midi": 53,
      "hit": false,
      "t": 121363.5149999999,
      "d": 454.54499999999825,
      "v": 127
    },
    {
      "midi": 62,
      "hit": false,
      "t": 121590.7875000005,
      "d": 1363.6349999999948,
      "v": 127
    },
    {
      "midi": 70,
      "hit": false,
      "t": 121590.7875000005,
      "d": 1363.6349999999948,
      "v": 127
    },
    {
      "midi": 46,
      "hit": false,
      "t": 121818.0599999999,
      "d": 454.54499999999825,
      "v": 127
    },
    {
      "midi": 58,
      "hit": false,
      "t": 121818.0599999999,
      "d": 454.54499999999825,
      "v": 127
    },
    {
      "midi": 41,
      "hit": false,
      "t": 122272.6049999999,
      "d": 227.2725000000064,
      "v": 127
    },
    {
      "midi": 53,
      "hit": false,
      "t": 122272.6049999999,
      "d": 227.2725000000064,
      "v": 127
    },
    {
      "midi": 40,
      "hit": false,
      "t": 122499.8774999999,
      "d": 227.2725000000064,
      "v": 127
    },
    {
      "midi": 52,
      "hit": false,
      "t": 122499.8774999999,
      "d": 227.2725000000064,
      "v": 127
    },
    {
      "midi": 41,
      "hit": false,
      "t": 122727.1499999999,
      "d": 227.2725000000064,
      "v": 127
    },
    {
      "midi": 53,
      "hit": false,
      "t": 122727.1499999999,
      "d": 227.2725000000064,
      "v": 127
    },
    {
      "midi": 42,
      "hit": false,
      "t": 122954.42249999991,
      "d": 227.2725000000064,
      "v": 127
    },
    {
      "midi": 54,
      "hit": false,
      "t": 122954.42249999991,
      "d": 227.2725000000064,
      "v": 127
    },
    {
      "midi": 43,
      "hit": false,
      "t": 123181.69499999992,
      "d": 227.2725000000064,
      "v": 127
    },
    {
      "midi": 55,
      "hit": false,
      "t": 123181.69499999992,
      "d": 227.2725000000064,
      "v": 127
    },
    {
      "midi": 65,
      "hit": false,
      "t": 123181.6950000005,
      "d": 454.54499999999825,
      "v": 127
    },
    {
      "midi": 72,
      "hit": false,
      "t": 123181.6950000005,
      "d": 454.54499999999825,
      "v": 127
    },
    {
      "midi": 75,
      "hit": false,
      "t": 123181.6950000005,
      "d": 454.54499999999825,
      "v": 127
    },
    {
      "midi": 45,
      "hit": false,
      "t": 123408.96749999993,
      "d": 227.2725000000064,
      "v": 127
    },
    {
      "midi": 57,
      "hit": false,
      "t": 123408.96749999993,
      "d": 227.2725000000064,
      "v": 127
    },
    {
      "midi": 46,
      "hit": false,
      "t": 123636.23999999993,
      "d": 454.54499999999825,
      "v": 127
    },
    {
      "midi": 58,
      "hit": false,
      "t": 123636.23999999993,
      "d": 454.54499999999825,
      "v": 127
    },
    {
      "midi": 74,
      "hit": false,
      "t": 123636.2400000005,
      "d": 681.8175000000047,
      "v": 127
    },
    {
      "midi": 65,
      "hit": false,
      "t": 123636.2400000005,
      "d": 1818.1800000000367,
      "v": 127
    },
    {
      "midi": 70,
      "hit": false,
      "t": 123636.2400000005,
      "d": 1818.1800000000367,
      "v": 127
    },
    {
      "midi": 53,
      "hit": false,
      "t": 124090.78499999993,
      "d": 454.54499999999825,
      "v": 127
    },
    {
      "midi": 58,
      "hit": false,
      "t": 124090.78499999993,
      "d": 454.54499999999825,
      "v": 127
    },
    {
      "midi": 62,
      "hit": false,
      "t": 124090.78499999993,
      "d": 454.54499999999825,
      "v": 127
    },
    {
      "midi": 72,
      "hit": false,
      "t": 124318.0575000005,
      "d": 227.2725000000064,
      "v": 127
    },
    {
      "midi": 43,
      "hit": false,
      "t": 124545.32999999993,
      "d": 454.54499999999825,
      "v": 127
    },
    {
      "midi": 55,
      "hit": false,
      "t": 124545.32999999993,
      "d": 454.54499999999825,
      "v": 127
    },
    {
      "midi": 72,
      "hit": false,
      "t": 124772.60250000052,
      "d": 227.2725000000064,
      "v": 127
    },
    {
      "midi": 41,
      "hit": false,
      "t": 124999.87499999993,
      "d": 454.54499999999825,
      "v": 127
    },
    {
      "midi": 53,
      "hit": false,
      "t": 124999.87499999993,
      "d": 454.54499999999825,
      "v": 127
    },
    {
      "midi": 74,
      "hit": false,
      "t": 124999.87500000052,
      "d": 227.2725000000064,
      "v": 127
    },
    {
      "midi": 75,
      "hit": false,
      "t": 125227.14750000053,
      "d": 227.2725000000064,
      "v": 127
    },
    {
      "midi": 38,
      "hit": false,
      "t": 125454.41999999993,
      "d": 454.54499999999825,
      "v": 127
    },
    {
      "midi": 50,
      "hit": false,
      "t": 125454.41999999993,
      "d": 454.54499999999825,
      "v": 127
    },
    {
      "midi": 77,
      "hit": false,
      "t": 125454.42000000054,
      "d": 227.2725000000064,
      "v": 127
    },
    {
      "midi": 70,
      "hit": false,
      "t": 125454.42000000054,
      "d": 909.0900000000111,
      "v": 127
    },
    {
      "midi": 79,
      "hit": false,
      "t": 125681.69250000054,
      "d": 454.54499999999825,
      "v": 127
    },
    {
      "midi": 53,
      "hit": false,
      "t": 125908.96499999992,
      "d": 454.54499999999825,
      "v": 127
    },
    {
      "midi": 58,
      "hit": false,
      "t": 125908.96499999992,
      "d": 454.54499999999825,
      "v": 127
    },
    {
      "midi": 62,
      "hit": false,
      "t": 125908.96499999992,
      "d": 454.54499999999825,
      "v": 127
    },
    {
      "midi": 74,
      "hit": false,
      "t": 126136.23750000054,
      "d": 227.2725000000064,
      "v": 127
    },
    {
      "midi": 46,
      "hit": false,
      "t": 126363.50999999992,
      "d": 454.54499999999825,
      "v": 127
    },
    {
      "midi": 74,
      "hit": false,
      "t": 126363.51000000055,
      "d": 454.54499999999825,
      "v": 127
    },
    {
      "midi": 77,
      "hit": false,
      "t": 126363.51000000055,
      "d": 454.54499999999825,
      "v": 127
    },
    {
      "midi": 56,
      "hit": false,
      "t": 126818.05499999992,
      "d": 454.54499999999825,
      "v": 127
    },
    {
      "midi": 58,
      "hit": false,
      "t": 126818.05499999992,
      "d": 454.54499999999825,
      "v": 127
    },
    {
      "midi": 62,
      "hit": false,
      "t": 126818.05499999992,
      "d": 454.54499999999825,
      "v": 127
    },
    {
      "midi": 86,
      "hit": false,
      "t": 126818.05500000055,
      "d": 227.2725000000064,
      "v": 127
    },
    {
      "midi": 77,
      "hit": false,
      "t": 126818.05500000055,
      "d": 454.5450000000128,
      "v": 127
    },
    {
      "midi": 84,
      "hit": false,
      "t": 127045.32750000055,
      "d": 227.2725000000064,
      "v": 127
    },
    {
      "midi": 39,
      "hit": false,
      "t": 127272.59999999992,
      "d": 454.54499999999825,
      "v": 127
    },
    {
      "midi": 51,
      "hit": false,
      "t": 127272.59999999992,
      "d": 454.54499999999825,
      "v": 127
    },
    {
      "midi": 79,
      "hit": false,
      "t": 127272.60000000056,
      "d": 681.8175000000047,
      "v": 127
    },
    {
      "midi": 82,
      "hit": false,
      "t": 127272.60000000056,
      "d": 681.8175000000047,
      "v": 127
    },
    {
      "midi": 55,
      "hit": false,
      "t": 127727.14499999992,
      "d": 454.54499999999825,
      "v": 127
    },
    {
      "midi": 58,
      "hit": false,
      "t": 127727.14499999992,
      "d": 454.54499999999825,
      "v": 127
    },
    {
      "midi": 63,
      "hit": false,
      "t": 127727.14499999992,
      "d": 454.54499999999825,
      "v": 127
    },
    {
      "midi": 77,
      "hit": false,
      "t": 127954.41750000056,
      "d": 227.2725000000064,
      "v": 127
    },
    {
      "midi": 81,
      "hit": false,
      "t": 127954.41750000056,
      "d": 227.2725000000064,
      "v": 127
    },
    {
      "midi": 43,
      "hit": false,
      "t": 128181.68999999992,
      "d": 454.54499999999825,
      "v": 127
    },
    {
      "midi": 55,
      "hit": false,
      "t": 128181.68999999992,
      "d": 454.54499999999825,
      "v": 127
    },
    {
      "midi": 75,
      "hit": false,
      "t": 128181.69000000057,
      "d": 227.2725000000064,
      "v": 127
    },
    {
      "midi": 79,
      "hit": false,
      "t": 128181.69000000057,
      "d": 227.2725000000064,
      "v": 127
    },
    {
      "midi": 72,
      "hit": false,
      "t": 128408.96250000058,
      "d": 454.54499999999825,
      "v": 127
    },
    {
      "midi": 75,
      "hit": false,
      "t": 128408.96250000058,
      "d": 454.54499999999825,
      "v": 127
    },
    {
      "midi": 42,
      "hit": false,
      "t": 128636.23499999991,
      "d": 454.54499999999825,
      "v": 127
    },
    {
      "midi": 54,
      "hit": false,
      "t": 128636.23499999991,
      "d": 454.54499999999825,
      "v": 127
    },
    {
      "midi": 70,
      "hit": false,
      "t": 128863.50750000057,
      "d": 909.0899999999965,
      "v": 127
    },
    {
      "midi": 74,
      "hit": false,
      "t": 128863.50750000057,
      "d": 909.0899999999965,
      "v": 127
    },
    {
      "midi": 41,
      "hit": false,
      "t": 129090.77999999991,
      "d": 454.54499999999825,
      "v": 127
    },
    {
      "midi": 53,
      "hit": false,
      "t": 129090.77999999991,
      "d": 454.54499999999825,
      "v": 127
    },
    {
      "midi": 46,
      "hit": false,
      "t": 129545.32499999991,
      "d": 454.54499999999825,
      "v": 127
    },
    {
      "midi": 58,
      "hit": false,
      "t": 129545.32499999991,
      "d": 454.54499999999825,
      "v": 127
    },
    {
      "midi": 45,
      "hit": false,
      "t": 129999.86999999991,
      "d": 454.54499999999825,
      "v": 127
    },
    {
      "midi": 57,
      "hit": false,
      "t": 129999.86999999991,
      "d": 454.54499999999825,
      "v": 127
    },
    {
      "midi": 72,
      "hit": false,
      "t": 129999.87000000058,
      "d": 909.0899999999965,
      "v": 127
    },
    {
      "midi": 75,
      "hit": false,
      "t": 129999.87000000058,
      "d": 909.0899999999965,
      "v": 127
    },
    {
      "midi": 41,
      "hit": false,
      "t": 130454.4149999999,
      "d": 454.54499999999825,
      "v": 127
    },
    {
      "midi": 53,
      "hit": false,
      "t": 130454.4149999999,
      "d": 454.54499999999825,
      "v": 127
    },
    {
      "midi": 46,
      "hit": false,
      "t": 130908.9599999999,
      "d": 454.5450000000128,
      "v": 127
    },
    {
      "midi": 58,
      "hit": false,
      "t": 130908.9599999999,
      "d": 454.5450000000128,
      "v": 127
    },
    {
      "midi": 74,
      "hit": false,
      "t": 130908.96000000057,
      "d": 681.8175000000047,
      "v": 127
    },
    {
      "midi": 70,
      "hit": false,
      "t": 130908.96000000057,
      "d": 1818.179999999964,
      "v": 127
    },
    {
      "midi": 53,
      "hit": false,
      "t": 131363.50499999992,
      "d": 454.5450000000128,
      "v": 127
    },
    {
      "midi": 58,
      "hit": false,
      "t": 131363.50499999992,
      "d": 454.5450000000128,
      "v": 127
    },
    {
      "midi": 62,
      "hit": false,
      "t": 131363.50499999992,
      "d": 454.5450000000128,
      "v": 127
    },
    {
      "midi": 72,
      "hit": false,
      "t": 131590.77750000058,
      "d": 227.27249999999185,
      "v": 127
    },
    {
      "midi": 43,
      "hit": false,
      "t": 131818.04999999993,
      "d": 454.5450000000128,
      "v": 127
    },
    {
      "midi": 55,
      "hit": false,
      "t": 131818.04999999993,
      "d": 454.5450000000128,
      "v": 127
    },
    {
      "midi": 72,
      "hit": false,
      "t": 132045.32250000056,
      "d": 227.27249999999185,
      "v": 127
    },
    {
      "midi": 41,
      "hit": false,
      "t": 132272.59499999994,
      "d": 454.5450000000128,
      "v": 127
    },
    {
      "midi": 53,
      "hit": false,
      "t": 132272.59499999994,
      "d": 454.5450000000128,
      "v": 127
    },
    {
      "midi": 74,
      "hit": false,
      "t": 132272.59500000055,
      "d": 227.27249999999185,
      "v": 127
    },
    {
      "midi": 75,
      "hit": false,
      "t": 132499.86750000055,
      "d": 227.27249999999185,
      "v": 127
    },
    {
      "midi": 38,
      "hit": false,
      "t": 132727.13999999996,
      "d": 454.5450000000128,
      "v": 127
    },
    {
      "midi": 50,
      "hit": false,
      "t": 132727.13999999996,
      "d": 454.5450000000128,
      "v": 127
    },
    {
      "midi": 77,
      "hit": false,
      "t": 132727.14000000054,
      "d": 227.27249999999185,
      "v": 127
    },
    {
      "midi": 70,
      "hit": false,
      "t": 132727.14000000054,
      "d": 1363.6350000000093,
      "v": 127
    },
    {
      "midi": 79,
      "hit": false,
      "t": 132954.41250000053,
      "d": 454.5450000000128,
      "v": 127
    },
    {
      "midi": 58,
      "hit": false,
      "t": 133181.68499999997,
      "d": 454.5450000000128,
      "v": 127
    },
    {
      "midi": 62,
      "hit": false,
      "t": 133181.68499999997,
      "d": 454.5450000000128,
      "v": 127
    },
    {
      "midi": 65,
      "hit": false,
      "t": 133181.68499999997,
      "d": 454.5450000000128,
      "v": 127
    },
    {
      "midi": 74,
      "hit": false,
      "t": 133408.95750000054,
      "d": 227.27249999999185,
      "v": 127
    },
    {
      "midi": 37,
      "hit": false,
      "t": 133636.22999999998,
      "d": 454.5450000000128,
      "v": 127
    },
    {
      "midi": 49,
      "hit": false,
      "t": 133636.22999999998,
      "d": 454.5450000000128,
      "v": 127
    },
    {
      "midi": 77,
      "hit": false,
      "t": 133636.23000000053,
      "d": 454.5450000000128,
      "v": 127
    },
    {
      "midi": 58,
      "hit": false,
      "t": 134090.775,
      "d": 454.5450000000128,
      "v": 127
    },
    {
      "midi": 61,
      "hit": false,
      "t": 134090.775,
      "d": 454.5450000000128,
      "v": 127
    },
    {
      "midi": 65,
      "hit": false,
      "t": 134090.775,
      "d": 454.5450000000128,
      "v": 127
    },
    {
      "midi": 77,
      "hit": false,
      "t": 134090.77500000055,
      "d": 227.27249999999185,
      "v": 127
    },
    {
      "midi": 70,
      "hit": false,
      "t": 134090.77500000055,
      "d": 454.5449999999837,
      "v": 127
    },
    {
      "midi": 79,
      "hit": false,
      "t": 134318.04750000054,
      "d": 227.27249999999185,
      "v": 127
    },
    {
      "midi": 36,
      "hit": false,
      "t": 134545.32,
      "d": 454.5450000000128,
      "v": 127
    },
    {
      "midi": 48,
      "hit": false,
      "t": 134545.32,
      "d": 454.5450000000128,
      "v": 127
    },
    {
      "midi": 81,
      "hit": false,
      "t": 134545.32000000053,
      "d": 681.8175000000047,
      "v": 127
    },
    {
      "midi": 72,
      "hit": false,
      "t": 134545.32000000053,
      "d": 909.0899999999965,
      "v": 127
    },
    {
      "midi": 57,
      "hit": false,
      "t": 134999.86500000002,
      "d": 454.5450000000128,
      "v": 127
    },
    {
      "midi": 60,
      "hit": false,
      "t": 134999.86500000002,
      "d": 454.5450000000128,
      "v": 127
    },
    {
      "midi": 65,
      "hit": false,
      "t": 134999.86500000002,
      "d": 454.5450000000128,
      "v": 127
    },
    {
      "midi": 84,
      "hit": false,
      "t": 135227.13750000054,
      "d": 227.27249999999185,
      "v": 127
    },
    {
      "midi": 48,
      "hit": false,
      "t": 135454.41000000003,
      "d": 454.5450000000128,
      "v": 127
    },
    {
      "midi": 72,
      "hit": false,
      "t": 135454.41000000053,
      "d": 227.27249999999185,
      "v": 127
    },
    {
      "midi": 70,
      "hit": false,
      "t": 135681.68250000052,
      "d": 454.5450000000128,
      "v": 127
    },
    {
      "midi": 79,
      "hit": false,
      "t": 135681.68250000052,
      "d": 454.5450000000128,
      "v": 127
    },
    {
      "midi": 58,
      "hit": false,
      "t": 135908.95500000005,
      "d": 454.5450000000128,
      "v": 127
    },
    {
      "midi": 60,
      "hit": false,
      "t": 135908.95500000005,
      "d": 454.5450000000128,
      "v": 127
    },
    {
      "midi": 64,
      "hit": false,
      "t": 135908.95500000005,
      "d": 454.5450000000128,
      "v": 127
    },
    {
      "midi": 77,
      "hit": false,
      "t": 136136.22750000053,
      "d": 681.8175000000047,
      "v": 127
    },
    {
      "midi": 69,
      "hit": false,
      "t": 136136.22750000053,
      "d": 1818.179999999964,
      "v": 127
    },
    {
      "midi": 53,
      "hit": false,
      "t": 136363.50000000006,
      "d": 454.5450000000128,
      "v": 127
    },
    {
      "midi": 57,
      "hit": false,
      "t": 136363.50000000006,
      "d": 454.5450000000128,
      "v": 127
    },
    {
      "midi": 60,
      "hit": false,
      "t": 136363.50000000006,
      "d": 454.5450000000128,
      "v": 127
    },
    {
      "midi": 65,
      "hit": false,
      "t": 136363.50000000006,
      "d": 454.5450000000128,
      "v": 127
    },
    {
      "midi": 41,
      "hit": false,
      "t": 136818.04500000007,
      "d": 454.5450000000128,
      "v": 127
    },
    {
      "midi": 53,
      "hit": false,
      "t": 136818.04500000007,
      "d": 454.5450000000128,
      "v": 127
    },
    {
      "midi": 79,
      "hit": false,
      "t": 136818.04500000054,
      "d": 227.27249999999185,
      "v": 127
    },
    {
      "midi": 77,
      "hit": false,
      "t": 137045.31750000053,
      "d": 227.27249999999185,
      "v": 127
    },
    {
      "midi": 43,
      "hit": false,
      "t": 137272.59000000008,
      "d": 454.5450000000128,
      "v": 127
    },
    {
      "midi": 55,
      "hit": false,
      "t": 137272.59000000008,
      "d": 454.5450000000128,
      "v": 127
    },
    {
      "midi": 75,
      "hit": false,
      "t": 137272.59000000052,
      "d": 227.27249999999185,
      "v": 127
    },
    {
      "midi": 74,
      "hit": false,
      "t": 137499.8625000005,
      "d": 227.27249999999185,
      "v": 127
    },
    {
      "midi": 45,
      "hit": false,
      "t": 137727.1350000001,
      "d": 454.5450000000128,
      "v": 127
    },
    {
      "midi": 57,
      "hit": false,
      "t": 137727.1350000001,
      "d": 454.5450000000128,
      "v": 127
    },
    {
      "midi": 72,
      "hit": false,
      "t": 137727.1350000005,
      "d": 227.27249999999185,
      "v": 127
    },
    {
      "midi": 77,
      "hit": false,
      "t": 137954.4075000005,
      "d": 227.27249999999185,
      "v": 127
    },
    {
      "midi": 46,
      "hit": false,
      "t": 138181.6800000001,
      "d": 454.5450000000128,
      "v": 127
    },
    {
      "midi": 58,
      "hit": false,
      "t": 138181.6800000001,
      "d": 454.5450000000128,
      "v": 127
    },
    {
      "midi": 74,
      "hit": false,
      "t": 138181.6800000005,
      "d": 681.8175000000047,
      "v": 127
    },
    {
      "midi": 65,
      "hit": false,
      "t": 138181.6800000005,
      "d": 1818.179999999964,
      "v": 127
    },
    {
      "midi": 53,
      "hit": false,
      "t": 138636.22500000012,
      "d": 454.5450000000128,
      "v": 127
    },
    {
      "midi": 58,
      "hit": false,
      "t": 138636.22500000012,
      "d": 454.5450000000128,
      "v": 127
    },
    {
      "midi": 62,
      "hit": false,
      "t": 138636.22500000012,
      "d": 454.5450000000128,
      "v": 127
    },
    {
      "midi": 72,
      "hit": false,
      "t": 138863.4975000005,
      "d": 227.27249999999185,
      "v": 127
    },
    {
      "midi": 43,
      "hit": false,
      "t": 139090.77000000014,
      "d": 454.5450000000128,
      "v": 127
    },
    {
      "midi": 55,
      "hit": false,
      "t": 139090.77000000014,
      "d": 454.5450000000128,
      "v": 127
    },
    {
      "midi": 70,
      "hit": false,
      "t": 139090.77000000048,
      "d": 227.27249999999185,
      "v": 127
    },
    {
      "midi": 72,
      "hit": false,
      "t": 139318.04250000048,
      "d": 227.27249999999185,
      "v": 127
    },
    {
      "midi": 41,
      "hit": false,
      "t": 139545.31500000015,
      "d": 454.5450000000128,
      "v": 127
    },
    {
      "midi": 53,
      "hit": false,
      "t": 139545.31500000015,
      "d": 454.5450000000128,
      "v": 127
    },
    {
      "midi": 74,
      "hit": false,
      "t": 139545.31500000047,
      "d": 227.27249999999185,
      "v": 127
    },
    {
      "midi": 75,
      "hit": false,
      "t": 139772.58750000046,
      "d": 227.27249999999185,
      "v": 127
    },
    {
      "midi": 38,
      "hit": false,
      "t": 139999.86000000016,
      "d": 454.5450000000128,
      "v": 127
    },
    {
      "midi": 50,
      "hit": false,
      "t": 139999.86000000016,
      "d": 454.5450000000128,
      "v": 127
    },
    {
      "midi": 77,
      "hit": false,
      "t": 139999.86000000045,
      "d": 227.27249999999185,
      "v": 127
    },
    {
      "midi": 70,
      "hit": false,
      "t": 139999.86000000045,
      "d": 909.0899999999965,
      "v": 127
    },
    {
      "midi": 79,
      "hit": false,
      "t": 140227.13250000044,
      "d": 454.5450000000128,
      "v": 127
    },
    {
      "midi": 53,
      "hit": false,
      "t": 140454.40500000017,
      "d": 454.5450000000128,
      "v": 127
    },
    {
      "midi": 58,
      "hit": false,
      "t": 140454.40500000017,
      "d": 454.5450000000128,
      "v": 127
    },
    {
      "midi": 62,
      "hit": false,
      "t": 140454.40500000017,
      "d": 454.5450000000128,
      "v": 127
    },
    {
      "midi": 74,
      "hit": false,
      "t": 140681.67750000046,
      "d": 227.27249999999185,
      "v": 127
    },
    {
      "midi": 46,
      "hit": false,
      "t": 140908.9500000002,
      "d": 454.5450000000128,
      "v": 127
    },
    {
      "midi": 77,
      "hit": false,
      "t": 140908.95000000045,
      "d": 454.5450000000128,
      "v": 127
    },
    {
      "midi": 74,
      "hit": false,
      "t": 140908.95000000045,
      "d": 909.0899999999965,
      "v": 127
    },
    {
      "midi": 53,
      "hit": false,
      "t": 141363.4950000002,
      "d": 454.5450000000128,
      "v": 127
    },
    {
      "midi": 58,
      "hit": false,
      "t": 141363.4950000002,
      "d": 454.5450000000128,
      "v": 127
    },
    {
      "midi": 62,
      "hit": false,
      "t": 141363.4950000002,
      "d": 454.5450000000128,
      "v": 127
    },
    {
      "midi": 76,
      "hit": false,
      "t": 141363.49500000046,
      "d": 227.27249999999185,
      "v": 127
    },
    {
      "midi": 77,
      "hit": false,
      "t": 141590.76750000045,
      "d": 227.27249999999185,
      "v": 127
    },
    {
      "midi": 45,
      "hit": false,
      "t": 141818.0400000002,
      "d": 454.5450000000128,
      "v": 127
    },
    {
      "midi": 57,
      "hit": false,
      "t": 141818.0400000002,
      "d": 454.5450000000128,
      "v": 127
    },
    {
      "midi": 78,
      "hit": false,
      "t": 141818.04000000044,
      "d": 681.8175000000047,
      "v": 127
    },
    {
      "midi": 74,
      "hit": false,
      "t": 141818.04000000044,
      "d": 909.0899999999965,
      "v": 127
    },
    {
      "midi": 54,
      "hit": false,
      "t": 142272.58500000022,
      "d": 454.5450000000128,
      "v": 127
    },
    {
      "midi": 60,
      "hit": false,
      "t": 142272.58500000022,
      "d": 454.5450000000128,
      "v": 127
    },
    {
      "midi": 62,
      "hit": false,
      "t": 142272.58500000022,
      "d": 454.5450000000128,
      "v": 127
    },
    {
      "midi": 81,
      "hit": false,
      "t": 142499.85750000045,
      "d": 227.27249999999185,
      "v": 127
    },
    {
      "midi": 38,
      "hit": false,
      "t": 142727.13000000024,
      "d": 454.5450000000128,
      "v": 127
    },
    {
      "midi": 50,
      "hit": false,
      "t": 142727.13000000024,
      "d": 454.5450000000128,
      "v": 127
    },
    {
      "midi": 87,
      "hit": false,
      "t": 142727.13000000044,
      "d": 227.27249999999185,
      "v": 127
    },
    {
      "midi": 78,
      "hit": false,
      "t": 142727.13000000044,
      "d": 909.0899999999965,
      "v": 127
    },
    {
      "midi": 86,
      "hit": false,
      "t": 142954.40250000043,
      "d": 454.5450000000128,
      "v": 127
    },
    {
      "midi": 54,
      "hit": false,
      "t": 143181.67500000025,
      "d": 454.5450000000128,
      "v": 127
    },
    {
      "midi": 60,
      "hit": false,
      "t": 143181.67500000025,
      "d": 454.5450000000128,
      "v": 127
    },
    {
      "midi": 62,
      "hit": false,
      "t": 143181.67500000025,
      "d": 454.5450000000128,
      "v": 127
    },
    {
      "midi": 84,
      "hit": false,
      "t": 143408.94750000045,
      "d": 227.27249999999185,
      "v": 127
    },
    {
      "midi": 55,
      "hit": false,
      "t": 143636.22000000026,
      "d": 454.5450000000128,
      "v": 127
    },
    {
      "midi": 58,
      "hit": false,
      "t": 143636.22000000026,
      "d": 454.5450000000128,
      "v": 127
    },
    {
      "midi": 62,
      "hit": false,
      "t": 143636.22000000026,
      "d": 454.5450000000128,
      "v": 127
    },
    {
      "midi": 79,
      "hit": false,
      "t": 143636.22000000044,
      "d": 1363.6350000000093,
      "v": 127
    },
    {
      "midi": 82,
      "hit": false,
      "t": 143636.22000000044,
      "d": 1363.6350000000093,
      "v": 127
    },
    {
      "midi": 46,
      "hit": false,
      "t": 144090.76500000028,
      "d": 227.27249999999185,
      "v": 127
    },
    {
      "midi": 58,
      "hit": false,
      "t": 144090.76500000028,
      "d": 227.27249999999185,
      "v": 127
    },
    {
      "midi": 45,
      "hit": false,
      "t": 144318.03750000027,
      "d": 227.27249999999185,
      "v": 127
    },
    {
      "midi": 57,
      "hit": false,
      "t": 144318.03750000027,
      "d": 227.27249999999185,
      "v": 127
    },
    {
      "midi": 43,
      "hit": false,
      "t": 144545.31000000026,
      "d": 227.27249999999185,
      "v": 127
    },
    {
      "midi": 55,
      "hit": false,
      "t": 144545.31000000026,
      "d": 227.27249999999185,
      "v": 127
    },
    {
      "midi": 42,
      "hit": false,
      "t": 144772.58250000025,
      "d": 227.27249999999185,
      "v": 127
    },
    {
      "midi": 54,
      "hit": false,
      "t": 144772.58250000025,
      "d": 227.27249999999185,
      "v": 127
    },
    {
      "midi": 41,
      "hit": false,
      "t": 144999.85500000024,
      "d": 454.5450000000128,
      "v": 127
    },
    {
      "midi": 53,
      "hit": false,
      "t": 144999.85500000024,
      "d": 454.5450000000128,
      "v": 127
    },
    {
      "midi": 74,
      "hit": false,
      "t": 144999.85500000045,
      "d": 454.5450000000128,
      "v": 127
    },
    {
      "midi": 80,
      "hit": false,
      "t": 144999.85500000045,
      "d": 454.5450000000128,
      "v": 127
    },
    {
      "midi": 39,
      "hit": false,
      "t": 145454.40000000026,
      "d": 454.5450000000128,
      "v": 127
    },
    {
      "midi": 51,
      "hit": false,
      "t": 145454.40000000026,
      "d": 454.5450000000128,
      "v": 127
    },
    {
      "midi": 75,
      "hit": false,
      "t": 145454.40000000046,
      "d": 681.8175000000047,
      "v": 127
    },
    {
      "midi": 79,
      "hit": false,
      "t": 145454.40000000046,
      "d": 681.8175000000047,
      "v": 127
    },
    {
      "midi": 55,
      "hit": false,
      "t": 145908.94500000027,
      "d": 454.5450000000128,
      "v": 127
    },
    {
      "midi": 58,
      "hit": false,
      "t": 145908.94500000027,
      "d": 454.5450000000128,
      "v": 127
    },
    {
      "midi": 63,
      "hit": false,
      "t": 145908.94500000027,
      "d": 454.5450000000128,
      "v": 127
    },
    {
      "midi": 74,
      "hit": false,
      "t": 146136.21750000046,
      "d": 227.27249999999185,
      "v": 127
    },
    {
      "midi": 77,
      "hit": false,
      "t": 146136.21750000046,
      "d": 227.27249999999185,
      "v": 127
    },
    {
      "midi": 43,
      "hit": false,
      "t": 146363.49000000028,
      "d": 454.5450000000128,
      "v": 127
    },
    {
      "midi": 55,
      "hit": false,
      "t": 146363.49000000028,
      "d": 454.5450000000128,
      "v": 127
    },
    {
      "midi": 72,
      "hit": false,
      "t": 146363.49000000046,
      "d": 227.27249999999185,
      "v": 127
    },
    {
      "midi": 75,
      "hit": false,
      "t": 146363.49000000046,
      "d": 227.27249999999185,
      "v": 127
    },
    {
      "midi": 74,
      "hit": false,
      "t": 146590.76250000045,
      "d": 227.27249999999185,
      "v": 127
    },
    {
      "midi": 42,
      "hit": false,
      "t": 146818.0350000003,
      "d": 454.5450000000128,
      "v": 127
    },
    {
      "midi": 54,
      "hit": false,
      "t": 146818.0350000003,
      "d": 454.5450000000128,
      "v": 127
    },
    {
      "midi": 75,
      "hit": false,
      "t": 146818.03500000044,
      "d": 227.27249999999185,
      "v": 127
    },
    {
      "midi": 82,
      "hit": false,
      "t": 147045.30750000043,
      "d": 227.27249999999185,
      "v": 127
    },
    {
      "midi": 41,
      "hit": false,
      "t": 147272.5800000003,
      "d": 454.5450000000128,
      "v": 127
    },
    {
      "midi": 53,
      "hit": false,
      "t": 147272.5800000003,
      "d": 454.5450000000128,
      "v": 127
    },
    {
      "midi": 82,
      "hit": false,
      "t": 147272.58000000042,
      "d": 681.8175000000047,
      "v": 127
    },
    {
      "midi": 74,
      "hit": false,
      "t": 147272.58000000042,
      "d": 909.0899999999965,
      "v": 127
    },
    {
      "midi": 70,
      "hit": false,
      "t": 147272.58000000042,
      "d": 2727.2699999999604,
      "v": 127
    },
    {
      "midi": 53,
      "hit": false,
      "t": 147727.12500000032,
      "d": 454.5450000000128,
      "v": 127
    },
    {
      "midi": 58,
      "hit": false,
      "t": 147727.12500000032,
      "d": 454.5450000000128,
      "v": 127
    },
    {
      "midi": 62,
      "hit": false,
      "t": 147727.12500000032,
      "d": 454.5450000000128,
      "v": 127
    },
    {
      "midi": 76,
      "hit": false,
      "t": 147954.39750000043,
      "d": 227.27249999999185,
      "v": 127
    },
    {
      "midi": 53,
      "hit": false,
      "t": 148181.67000000033,
      "d": 454.5450000000128,
      "v": 127
    },
    {
      "midi": 58,
      "hit": false,
      "t": 148181.67000000033,
      "d": 454.5450000000128,
      "v": 127
    },
    {
      "midi": 62,
      "hit": false,
      "t": 148181.67000000033,
      "d": 454.5450000000128,
      "v": 127
    },
    {
      "midi": 74,
      "hit": false,
      "t": 148181.67000000042,
      "d": 227.27249999999185,
      "v": 127
    },
    {
      "midi": 77,
      "hit": false,
      "t": 148181.67000000042,
      "d": 227.27249999999185,
      "v": 127
    },
    {
      "midi": 76,
      "hit": false,
      "t": 148408.9425000004,
      "d": 227.27249999999185,
      "v": 127
    },
    {
      "midi": 50,
      "hit": false,
      "t": 148636.21500000035,
      "d": 227.27249999999185,
      "v": 127
    },
    {
      "midi": 62,
      "hit": false,
      "t": 148636.21500000035,
      "d": 227.27249999999185,
      "v": 127
    },
    {
      "midi": 77,
      "hit": false,
      "t": 148636.2150000004,
      "d": 227.27249999999185,
      "v": 127
    },
    {
      "midi": 49,
      "hit": false,
      "t": 148863.48750000034,
      "d": 227.27249999999185,
      "v": 127
    },
    {
      "midi": 61,
      "hit": false,
      "t": 148863.48750000034,
      "d": 227.27249999999185,
      "v": 127
    },
    {
      "midi": 76,
      "hit": false,
      "t": 148863.4875000004,
      "d": 227.27249999999185,
      "v": 127
    },
    {
      "midi": 78,
      "hit": false,
      "t": 148863.4875000004,
      "d": 227.27249999999185,
      "v": 127
    },
    {
      "midi": 48,
      "hit": false,
      "t": 149090.76000000033,
      "d": 454.5450000000128,
      "v": 127
    },
    {
      "midi": 60,
      "hit": false,
      "t": 149090.76000000033,
      "d": 454.5450000000128,
      "v": 127
    },
    {
      "midi": 75,
      "hit": false,
      "t": 149090.7600000004,
      "d": 227.27249999999185,
      "v": 127
    },
    {
      "midi": 79,
      "hit": false,
      "t": 149090.7600000004,
      "d": 227.27249999999185,
      "v": 127
    },
    {
      "midi": 82,
      "hit": false,
      "t": 149318.03250000038,
      "d": 454.5450000000128,
      "v": 127
    },
    {
      "midi": 55,
      "hit": false,
      "t": 149545.30500000034,
      "d": 454.5450000000128,
      "v": 127
    },
    {
      "midi": 60,
      "hit": false,
      "t": 149545.30500000034,
      "d": 454.5450000000128,
      "v": 127
    },
    {
      "midi": 63,
      "hit": false,
      "t": 149545.30500000034,
      "d": 454.5450000000128,
      "v": 127
    },
    {
      "midi": 75,
      "hit": false,
      "t": 149772.5775000004,
      "d": 227.27249999999185,
      "v": 127
    },
    {
      "midi": 41,
      "hit": false,
      "t": 149999.85000000036,
      "d": 909.0899999999965,
      "v": 127
    },
    {
      "midi": 53,
      "hit": false,
      "t": 149999.85000000036,
      "d": 909.0899999999965,
      "v": 127
    },
    {
      "midi": 67,
      "hit": false,
      "t": 149999.85000000038,
      "d": 227.27249999999185,
      "v": 127
    },
    {
      "midi": 69,
      "hit": false,
      "t": 149999.85000000038,
      "d": 227.27249999999185,
      "v": 127
    },
    {
      "midi": 75,
      "hit": false,
      "t": 149999.85000000038,
      "d": 227.27249999999185,
      "v": 127
    },
    {
      "midi": 65,
      "hit": false,
      "t": 150227.12250000038,
      "d": 227.27249999999185,
      "v": 127
    },
    {
      "midi": 69,
      "hit": false,
      "t": 150227.12250000038,
      "d": 227.27249999999185,
      "v": 127
    },
    {
      "midi": 74,
      "hit": false,
      "t": 150227.12250000038,
      "d": 227.27249999999185,
      "v": 127
    },
    {
      "midi": 63,
      "hit": false,
      "t": 150454.39500000037,
      "d": 454.5450000000128,
      "v": 127
    },
    {
      "midi": 69,
      "hit": false,
      "t": 150454.39500000037,
      "d": 454.5450000000128,
      "v": 127
    },
    {
      "midi": 72,
      "hit": false,
      "t": 150454.39500000037,
      "d": 454.5450000000128,
      "v": 127
    },
    {
      "midi": 46,
      "hit": false,
      "t": 150908.94000000035,
      "d": 454.5450000000128,
      "v": 127
    },
    {
      "midi": 58,
      "hit": false,
      "t": 150908.94000000035,
      "d": 454.5450000000128,
      "v": 127
    },
    {
      "midi": 62,
      "hit": false,
      "t": 150908.94000000038,
      "d": 1363.6350000000093,
      "v": 127
    },
    {
      "midi": 70,
      "hit": false,
      "t": 150908.94000000038,
      "d": 1363.6350000000093,
      "v": 127
    },
    {
      "midi": 44,
      "hit": false,
      "t": 151363.48500000036,
      "d": 454.5450000000128,
      "v": 127
    },
    {
      "midi": 56,
      "hit": false,
      "t": 151363.48500000036,
      "d": 454.5450000000128,
      "v": 127
    },
    {
      "midi": 43,
      "hit": false,
      "t": 151818.03000000038,
      "d": 454.5450000000128,
      "v": 127
    },
    {
      "midi": 55,
      "hit": false,
      "t": 151818.03000000038,
      "d": 454.5450000000128,
      "v": 127
    },
    {
      "midi": 74,
      "hit": false,
      "t": 152272.5750000004,
      "d": 454.5450000000128,
      "v": 127
    },
    {
      "midi": 80,
      "hit": false,
      "t": 152272.5750000004,
      "d": 454.5450000000128,
      "v": 127
    },
    {
      "midi": 82,
      "hit": false,
      "t": 152272.5750000004,
      "d": 454.5450000000128,
      "v": 127
    },
    {
      "midi": 41,
      "hit": false,
      "t": 152272.5750000004,
      "d": 454.5450000000128,
      "v": 127
    },
    {
      "midi": 53,
      "hit": false,
      "t": 152272.5750000004,
      "d": 454.5450000000128,
      "v": 127
    },
    {
      "midi": 39,
      "hit": false,
      "t": 152727.1200000004,
      "d": 454.5450000000128,
      "v": 127
    },
    {
      "midi": 51,
      "hit": false,
      "t": 152727.1200000004,
      "d": 454.5450000000128,
      "v": 127
    },
    {
      "midi": 75,
      "hit": false,
      "t": 152954.3925000004,
      "d": 227.27249999999185,
      "v": 127
    },
    {
      "midi": 79,
      "hit": false,
      "t": 152954.3925000004,
      "d": 227.27249999999185,
      "v": 127
    },
    {
      "midi": 87,
      "hit": false,
      "t": 152954.3925000004,
      "d": 227.27249999999185,
      "v": 127
    },
    {
      "midi": 74,
      "hit": false,
      "t": 153181.6650000004,
      "d": 227.27249999999185,
      "v": 127
    },
    {
      "midi": 79,
      "hit": false,
      "t": 153181.6650000004,
      "d": 227.27249999999185,
      "v": 127
    },
    {
      "midi": 86,
      "hit": false,
      "t": 153181.6650000004,
      "d": 227.27249999999185,
      "v": 127
    },
    {
      "midi": 55,
      "hit": false,
      "t": 153181.66500000042,
      "d": 454.5450000000128,
      "v": 127
    },
    {
      "midi": 58,
      "hit": false,
      "t": 153181.66500000042,
      "d": 454.5450000000128,
      "v": 127
    },
    {
      "midi": 63,
      "hit": false,
      "t": 153181.66500000042,
      "d": 454.5450000000128,
      "v": 127
    },
    {
      "midi": 72,
      "hit": false,
      "t": 153408.93750000038,
      "d": 454.5450000000128,
      "v": 127
    },
    {
      "midi": 79,
      "hit": false,
      "t": 153408.93750000038,
      "d": 454.5450000000128,
      "v": 127
    },
    {
      "midi": 84,
      "hit": false,
      "t": 153408.93750000038,
      "d": 454.5450000000128,
      "v": 127
    },
    {
      "midi": 43,
      "hit": false,
      "t": 153636.21000000043,
      "d": 454.5450000000128,
      "v": 127
    },
    {
      "midi": 55,
      "hit": false,
      "t": 153636.21000000043,
      "d": 454.5450000000128,
      "v": 127
    },
    {
      "midi": 70,
      "hit": false,
      "t": 153863.4825000004,
      "d": 227.27249999999185,
      "v": 127
    },
    {
      "midi": 82,
      "hit": false,
      "t": 153863.4825000004,
      "d": 227.27249999999185,
      "v": 127
    },
    {
      "midi": 72,
      "hit": false,
      "t": 154090.75500000038,
      "d": 227.27249999999185,
      "v": 127
    },
    {
      "midi": 84,
      "hit": false,
      "t": 154090.75500000038,
      "d": 227.27249999999185,
      "v": 127
    },
    {
      "midi": 42,
      "hit": false,
      "t": 154090.75500000044,
      "d": 454.5450000000128,
      "v": 127
    },
    {
      "midi": 54,
      "hit": false,
      "t": 154090.75500000044,
      "d": 454.5450000000128,
      "v": 127
    },
    {
      "midi": 73,
      "hit": false,
      "t": 154318.02750000037,
      "d": 227.27249999999185,
      "v": 127
    },
    {
      "midi": 85,
      "hit": false,
      "t": 154318.02750000037,
      "d": 227.27249999999185,
      "v": 127
    },
    {
      "midi": 74,
      "hit": false,
      "t": 154545.30000000037,
      "d": 454.5450000000128,
      "v": 127
    },
    {
      "midi": 80,
      "hit": false,
      "t": 154545.30000000037,
      "d": 454.5450000000128,
      "v": 127
    },
    {
      "midi": 86,
      "hit": false,
      "t": 154545.30000000037,
      "d": 454.5450000000128,
      "v": 127
    },
    {
      "midi": 41,
      "hit": false,
      "t": 154545.30000000045,
      "d": 454.5450000000128,
      "v": 127
    },
    {
      "midi": 53,
      "hit": false,
      "t": 154545.30000000045,
      "d": 454.5450000000128,
      "v": 127
    },
    {
      "midi": 73,
      "hit": false,
      "t": 154999.84500000038,
      "d": 227.27249999999185,
      "v": 127
    },
    {
      "midi": 85,
      "hit": false,
      "t": 154999.84500000038,
      "d": 227.27249999999185,
      "v": 127
    },
    {
      "midi": 56,
      "hit": false,
      "t": 154999.84500000047,
      "d": 454.5450000000128,
      "v": 127
    },
    {
      "midi": 58,
      "hit": false,
      "t": 154999.84500000047,
      "d": 454.5450000000128,
      "v": 127
    },
    {
      "midi": 62,
      "hit": false,
      "t": 154999.84500000047,
      "d": 454.5450000000128,
      "v": 127
    },
    {
      "midi": 74,
      "hit": false,
      "t": 155227.11750000037,
      "d": 909.0899999999965,
      "v": 127
    },
    {
      "midi": 80,
      "hit": false,
      "t": 155227.11750000037,
      "d": 909.0899999999965,
      "v": 127
    },
    {
      "midi": 86,
      "hit": false,
      "t": 155227.11750000037,
      "d": 909.0899999999965,
      "v": 127
    },
    {
      "midi": 46,
      "hit": false,
      "t": 155454.39000000048,
      "d": 227.27249999999185,
      "v": 127
    },
    {
      "midi": 50,
      "hit": false,
      "t": 155681.66250000047,
      "d": 227.27249999999185,
      "v": 127
    },
    {
      "midi": 53,
      "hit": false,
      "t": 155908.93500000046,
      "d": 227.27249999999185,
      "v": 127
    },
    {
      "midi": 58,
      "hit": false,
      "t": 156136.20750000046,
      "d": 227.27249999999185,
      "v": 127
    },
    {
      "midi": 41,
      "hit": false,
      "t": 156363.48000000045,
      "d": 454.5450000000128,
      "v": 127
    },
    {
      "midi": 53,
      "hit": false,
      "t": 156363.48000000045,
      "d": 454.5450000000128,
      "v": 127
    },
    {
      "midi": 74,
      "hit": false,
      "t": 156590.75250000038,
      "d": 227.27249999999185,
      "v": 127
    },
    {
      "midi": 80,
      "hit": false,
      "t": 156590.75250000038,
      "d": 227.27249999999185,
      "v": 127
    },
    {
      "midi": 86,
      "hit": false,
      "t": 156590.75250000038,
      "d": 227.27249999999185,
      "v": 127
    },
    {
      "midi": 73,
      "hit": false,
      "t": 156818.02500000037,
      "d": 227.27249999999185,
      "v": 127
    },
    {
      "midi": 80,
      "hit": false,
      "t": 156818.02500000037,
      "d": 227.27249999999185,
      "v": 127
    },
    {
      "midi": 85,
      "hit": false,
      "t": 156818.02500000037,
      "d": 227.27249999999185,
      "v": 127
    },
    {
      "midi": 56,
      "hit": false,
      "t": 156818.02500000046,
      "d": 454.5450000000128,
      "v": 127
    },
    {
      "midi": 58,
      "hit": false,
      "t": 156818.02500000046,
      "d": 454.5450000000128,
      "v": 127
    },
    {
      "midi": 62,
      "hit": false,
      "t": 156818.02500000046,
      "d": 454.5450000000128,
      "v": 127
    },
    {
      "midi": 72,
      "hit": false,
      "t": 157045.29750000036,
      "d": 454.5450000000128,
      "v": 127
    },
    {
      "midi": 80,
      "hit": false,
      "t": 157045.29750000036,
      "d": 454.5450000000128,
      "v": 127
    },
    {
      "midi": 84,
      "hit": false,
      "t": 157045.29750000036,
      "d": 454.5450000000128,
      "v": 127
    },
    {
      "midi": 34,
      "hit": false,
      "t": 157272.57000000047,
      "d": 454.5450000000128,
      "v": 127
    },
    {
      "midi": 46,
      "hit": false,
      "t": 157272.57000000047,
      "d": 454.5450000000128,
      "v": 127
    },
    {
      "midi": 65,
      "hit": false,
      "t": 157499.84250000038,
      "d": 227.27249999999185,
      "v": 127
    },
    {
      "midi": 77,
      "hit": false,
      "t": 157499.84250000038,
      "d": 227.27249999999185,
      "v": 127
    },
    {
      "midi": 67,
      "hit": false,
      "t": 157727.11500000037,
      "d": 227.27249999999185,
      "v": 127
    },
    {
      "midi": 79,
      "hit": false,
      "t": 157727.11500000037,
      "d": 227.27249999999185,
      "v": 127
    },
    {
      "midi": 56,
      "hit": false,
      "t": 157727.1150000005,
      "d": 454.5450000000128,
      "v": 127
    },
    {
      "midi": 58,
      "hit": false,
      "t": 157727.1150000005,
      "d": 454.5450000000128,
      "v": 127
    },
    {
      "midi": 62,
      "hit": false,
      "t": 157727.1150000005,
      "d": 454.5450000000128,
      "v": 127
    },
    {
      "midi": 68,
      "hit": false,
      "t": 157954.38750000036,
      "d": 227.27249999999185,
      "v": 127
    },
    {
      "midi": 80,
      "hit": false,
      "t": 157954.38750000036,
      "d": 227.27249999999185,
      "v": 127
    },
    {
      "midi": 69,
      "hit": false,
      "t": 158181.66000000035,
      "d": 909.0899999999965,
      "v": 127
    },
    {
      "midi": 75,
      "hit": false,
      "t": 158181.66000000035,
      "d": 909.0899999999965,
      "v": 127
    },
    {
      "midi": 78,
      "hit": false,
      "t": 158181.66000000035,
      "d": 909.0899999999965,
      "v": 127
    },
    {
      "midi": 81,
      "hit": false,
      "t": 158181.66000000035,
      "d": 909.0899999999965,
      "v": 127
    },
    {
      "midi": 48,
      "hit": false,
      "t": 158408.9325000005,
      "d": 227.27249999999185,
      "v": 127
    },
    {
      "midi": 51,
      "hit": false,
      "t": 158636.20500000048,
      "d": 227.27249999999185,
      "v": 127
    },
    {
      "midi": 54,
      "hit": false,
      "t": 158863.47750000047,
      "d": 227.27249999999185,
      "v": 127
    },
    {
      "midi": 70,
      "hit": false,
      "t": 159090.75000000035,
      "d": 909.0899999999965,
      "v": 127
    },
    {
      "midi": 75,
      "hit": false,
      "t": 159090.75000000035,
      "d": 909.0899999999965,
      "v": 127
    },
    {
      "midi": 79,
      "hit": false,
      "t": 159090.75000000035,
      "d": 909.0899999999965,
      "v": 127
    },
    {
      "midi": 82,
      "hit": false,
      "t": 159090.75000000035,
      "d": 909.0899999999965,
      "v": 127
    },
    {
      "midi": 55,
      "hit": false,
      "t": 159090.75000000047,
      "d": 227.27249999999185,
      "v": 127
    },
    {
      "midi": 51,
      "hit": false,
      "t": 159318.02250000046,
      "d": 227.27249999999185,
      "v": 127
    },
    {
      "midi": 46,
      "hit": false,
      "t": 159545.29500000045,
      "d": 454.5450000000128,
      "v": 127
    },
    {
      "midi": 39,
      "hit": false,
      "t": 159999.84000000046,
      "d": 454.5450000000128,
      "v": 127
    },
    {
      "midi": 51,
      "hit": false,
      "t": 159999.84000000046,
      "d": 454.5450000000128,
      "v": 127
    },
    {
      "midi": 75,
      "hit": false,
      "t": 160227.11250000034,
      "d": 227.27249999999185,
      "v": 127
    },
    {
      "midi": 79,
      "hit": false,
      "t": 160227.11250000034,
      "d": 227.27249999999185,
      "v": 127
    },
    {
      "midi": 87,
      "hit": false,
      "t": 160227.11250000034,
      "d": 227.27249999999185,
      "v": 127
    },
    {
      "midi": 74,
      "hit": false,
      "t": 160454.38500000033,
      "d": 227.27249999999185,
      "v": 127
    },
    {
      "midi": 79,
      "hit": false,
      "t": 160454.38500000033,
      "d": 227.27249999999185,
      "v": 127
    },
    {
      "midi": 86,
      "hit": false,
      "t": 160454.38500000033,
      "d": 227.27249999999185,
      "v": 127
    },
    {
      "midi": 55,
      "hit": false,
      "t": 160454.38500000047,
      "d": 454.5450000000128,
      "v": 127
    },
    {
      "midi": 58,
      "hit": false,
      "t": 160454.38500000047,
      "d": 454.5450000000128,
      "v": 127
    },
    {
      "midi": 63,
      "hit": false,
      "t": 160454.38500000047,
      "d": 454.5450000000128,
      "v": 127
    },
    {
      "midi": 72,
      "hit": false,
      "t": 160681.65750000032,
      "d": 454.5450000000128,
      "v": 127
    },
    {
      "midi": 79,
      "hit": false,
      "t": 160681.65750000032,
      "d": 454.5450000000128,
      "v": 127
    },
    {
      "midi": 84,
      "hit": false,
      "t": 160681.65750000032,
      "d": 454.5450000000128,
      "v": 127
    },
    {
      "midi": 39,
      "hit": false,
      "t": 160908.9300000005,
      "d": 454.5450000000128,
      "v": 127
    },
    {
      "midi": 51,
      "hit": false,
      "t": 160908.9300000005,
      "d": 454.5450000000128,
      "v": 127
    },
    {
      "midi": 70,
      "hit": false,
      "t": 161136.20250000033,
      "d": 227.27249999999185,
      "v": 127
    },
    {
      "midi": 82,
      "hit": false,
      "t": 161136.20250000033,
      "d": 227.27249999999185,
      "v": 127
    },
    {
      "midi": 72,
      "hit": false,
      "t": 161363.47500000033,
      "d": 227.27249999999185,
      "v": 127
    },
    {
      "midi": 84,
      "hit": false,
      "t": 161363.47500000033,
      "d": 227.27249999999185,
      "v": 127
    },
    {
      "midi": 55,
      "hit": false,
      "t": 161363.4750000005,
      "d": 454.5450000000128,
      "v": 127
    },
    {
      "midi": 58,
      "hit": false,
      "t": 161363.4750000005,
      "d": 454.5450000000128,
      "v": 127
    },
    {
      "midi": 63,
      "hit": false,
      "t": 161363.4750000005,
      "d": 454.5450000000128,
      "v": 127
    },
    {
      "midi": 73,
      "hit": false,
      "t": 161590.74750000032,
      "d": 227.27249999999185,
      "v": 127
    },
    {
      "midi": 85,
      "hit": false,
      "t": 161590.74750000032,
      "d": 227.27249999999185,
      "v": 127
    },
    {
      "midi": 74,
      "hit": false,
      "t": 161818.0200000003,
      "d": 454.5450000000128,
      "v": 127
    },
    {
      "midi": 79,
      "hit": false,
      "t": 161818.0200000003,
      "d": 454.5450000000128,
      "v": 127
    },
    {
      "midi": 82,
      "hit": false,
      "t": 161818.0200000003,
      "d": 454.5450000000128,
      "v": 127
    },
    {
      "midi": 86,
      "hit": false,
      "t": 161818.0200000003,
      "d": 454.5450000000128,
      "v": 127
    },
    {
      "midi": 38,
      "hit": false,
      "t": 161818.0200000005,
      "d": 454.5450000000128,
      "v": 127
    },
    {
      "midi": 50,
      "hit": false,
      "t": 161818.0200000005,
      "d": 454.5450000000128,
      "v": 127
    },
    {
      "midi": 73,
      "hit": false,
      "t": 162272.56500000032,
      "d": 227.27249999999185,
      "v": 127
    },
    {
      "midi": 85,
      "hit": false,
      "t": 162272.56500000032,
      "d": 227.27249999999185,
      "v": 127
    },
    {
      "midi": 55,
      "hit": false,
      "t": 162272.56500000053,
      "d": 454.5450000000128,
      "v": 127
    },
    {
      "midi": 58,
      "hit": false,
      "t": 162272.56500000053,
      "d": 454.5450000000128,
      "v": 127
    },
    {
      "midi": 62,
      "hit": false,
      "t": 162272.56500000053,
      "d": 454.5450000000128,
      "v": 127
    },
    {
      "midi": 74,
      "hit": false,
      "t": 162499.8375000003,
      "d": 909.0899999999965,
      "v": 127
    },
    {
      "midi": 79,
      "hit": false,
      "t": 162499.8375000003,
      "d": 909.0899999999965,
      "v": 127
    },
    {
      "midi": 82,
      "hit": false,
      "t": 162499.8375000003,
      "d": 909.0899999999965,
      "v": 127
    },
    {
      "midi": 86,
      "hit": false,
      "t": 162499.8375000003,
      "d": 909.0899999999965,
      "v": 127
    },
    {
      "midi": 50,
      "hit": false,
      "t": 162727.11000000054,
      "d": 227.27249999999185,
      "v": 127
    },
    {
      "midi": 55,
      "hit": false,
      "t": 162954.38250000053,
      "d": 227.27249999999185,
      "v": 127
    },
    {
      "midi": 58,
      "hit": false,
      "t": 163181.65500000052,
      "d": 227.27249999999185,
      "v": 127
    },
    {
      "midi": 62,
      "hit": false,
      "t": 163408.92750000051,
      "d": 227.27249999999185,
      "v": 127
    },
    {
      "midi": 38,
      "hit": false,
      "t": 163636.2000000005,
      "d": 454.5450000000128,
      "v": 127
    },
    {
      "midi": 50,
      "hit": false,
      "t": 163636.2000000005,
      "d": 454.5450000000128,
      "v": 127
    },
    {
      "midi": 74,
      "hit": false,
      "t": 163863.47250000032,
      "d": 227.27249999999185,
      "v": 127
    },
    {
      "midi": 86,
      "hit": false,
      "t": 163863.47250000032,
      "d": 227.27249999999185,
      "v": 127
    },
    {
      "midi": 75,
      "hit": false,
      "t": 164090.74500000032,
      "d": 227.27249999999185,
      "v": 127
    },
    {
      "midi": 87,
      "hit": false,
      "t": 164090.74500000032,
      "d": 227.27249999999185,
      "v": 127
    },
    {
      "midi": 54,
      "hit": false,
      "t": 164090.74500000052,
      "d": 454.5450000000128,
      "v": 127
    },
    {
      "midi": 60,
      "hit": false,
      "t": 164090.74500000052,
      "d": 454.5450000000128,
      "v": 127
    },
    {
      "midi": 62,
      "hit": false,
      "t": 164090.74500000052,
      "d": 454.5450000000128,
      "v": 127
    },
    {
      "midi": 74,
      "hit": false,
      "t": 164318.0175000003,
      "d": 454.5450000000128,
      "v": 127
    },
    {
      "midi": 78,
      "hit": false,
      "t": 164318.0175000003,
      "d": 454.5450000000128,
      "v": 127
    },
    {
      "midi": 81,
      "hit": false,
      "t": 164318.0175000003,
      "d": 454.5450000000128,
      "v": 127
    },
    {
      "midi": 86,
      "hit": false,
      "t": 164318.0175000003,
      "d": 454.5450000000128,
      "v": 127
    },
    {
      "midi": 38,
      "hit": false,
      "t": 164545.29000000053,
      "d": 454.5450000000128,
      "v": 127
    },
    {
      "midi": 50,
      "hit": false,
      "t": 164545.29000000053,
      "d": 454.5450000000128,
      "v": 127
    },
    {
      "midi": 73,
      "hit": false,
      "t": 164772.56250000032,
      "d": 227.27249999999185,
      "v": 127
    },
    {
      "midi": 85,
      "hit": false,
      "t": 164772.56250000032,
      "d": 227.27249999999185,
      "v": 127
    },
    {
      "midi": 74,
      "hit": false,
      "t": 164999.8350000003,
      "d": 454.5450000000128,
      "v": 127
    },
    {
      "midi": 78,
      "hit": false,
      "t": 164999.8350000003,
      "d": 454.5450000000128,
      "v": 127
    },
    {
      "midi": 81,
      "hit": false,
      "t": 164999.8350000003,
      "d": 454.5450000000128,
      "v": 127
    },
    {
      "midi": 86,
      "hit": false,
      "t": 164999.8350000003,
      "d": 454.5450000000128,
      "v": 127
    },
    {
      "midi": 54,
      "hit": false,
      "t": 164999.83500000054,
      "d": 454.5450000000128,
      "v": 127
    },
    {
      "midi": 60,
      "hit": false,
      "t": 164999.83500000054,
      "d": 454.5450000000128,
      "v": 127
    },
    {
      "midi": 62,
      "hit": false,
      "t": 164999.83500000054,
      "d": 454.5450000000128,
      "v": 127
    },
    {
      "midi": 74,
      "hit": false,
      "t": 165454.38000000032,
      "d": 454.5450000000128,
      "v": 127
    },
    {
      "midi": 79,
      "hit": false,
      "t": 165454.38000000032,
      "d": 454.5450000000128,
      "v": 127
    },
    {
      "midi": 82,
      "hit": false,
      "t": 165454.38000000032,
      "d": 454.5450000000128,
      "v": 127
    },
    {
      "midi": 86,
      "hit": false,
      "t": 165454.38000000032,
      "d": 454.5450000000128,
      "v": 127
    },
    {
      "midi": 43,
      "hit": false,
      "t": 165454.38000000056,
      "d": 454.5450000000128,
      "v": 127
    },
    {
      "midi": 55,
      "hit": false,
      "t": 165454.38000000056,
      "d": 454.5450000000128,
      "v": 127
    },
    {
      "midi": 74,
      "hit": false,
      "t": 165908.92500000034,
      "d": 454.5450000000128,
      "v": 127
    },
    {
      "midi": 81,
      "hit": false,
      "t": 165908.92500000034,
      "d": 454.5450000000128,
      "v": 127
    },
    {
      "midi": 86,
      "hit": false,
      "t": 165908.92500000034,
      "d": 454.5450000000128,
      "v": 127
    },
    {
      "midi": 42,
      "hit": false,
      "t": 165908.92500000057,
      "d": 454.5450000000128,
      "v": 127
    },
    {
      "midi": 54,
      "hit": false,
      "t": 165908.92500000057,
      "d": 454.5450000000128,
      "v": 127
    },
    {
      "midi": 74,
      "hit": false,
      "t": 166363.47000000035,
      "d": 909.0899999999965,
      "v": 127
    },
    {
      "midi": 80,
      "hit": false,
      "t": 166363.47000000035,
      "d": 909.0899999999965,
      "v": 127
    },
    {
      "midi": 82,
      "hit": false,
      "t": 166363.47000000035,
      "d": 909.0899999999965,
      "v": 127
    },
    {
      "midi": 86,
      "hit": false,
      "t": 166363.47000000035,
      "d": 909.0899999999965,
      "v": 127
    },
    {
      "midi": 41,
      "hit": false,
      "t": 166363.47000000058,
      "d": 454.5450000000128,
      "v": 127
    },
    {
      "midi": 53,
      "hit": false,
      "t": 166363.47000000058,
      "d": 454.5450000000128,
      "v": 127
    },
    {
      "midi": 34,
      "hit": false,
      "t": 166818.0150000006,
      "d": 454.5450000000128,
      "v": 127
    },
    {
      "midi": 46,
      "hit": false,
      "t": 166818.0150000006,
      "d": 454.5450000000128,
      "v": 127
    },
    {
      "midi": 39,
      "hit": false,
      "t": 167272.5600000006,
      "d": 454.5450000000128,
      "v": 127
    },
    {
      "midi": 51,
      "hit": false,
      "t": 167272.5600000006,
      "d": 454.5450000000128,
      "v": 127
    },
    {
      "midi": 75,
      "hit": false,
      "t": 167499.83250000034,
      "d": 227.27249999999185,
      "v": 127
    },
    {
      "midi": 79,
      "hit": false,
      "t": 167499.83250000034,
      "d": 227.27249999999185,
      "v": 127
    },
    {
      "midi": 87,
      "hit": false,
      "t": 167499.83250000034,
      "d": 227.27249999999185,
      "v": 127
    },
    {
      "midi": 74,
      "hit": false,
      "t": 167727.10500000033,
      "d": 227.27249999999185,
      "v": 127
    },
    {
      "midi": 79,
      "hit": false,
      "t": 167727.10500000033,
      "d": 227.27249999999185,
      "v": 127
    },
    {
      "midi": 86,
      "hit": false,
      "t": 167727.10500000033,
      "d": 227.27249999999185,
      "v": 127
    },
    {
      "midi": 55,
      "hit": false,
      "t": 167727.10500000062,
      "d": 454.5450000000128,
      "v": 127
    },
    {
      "midi": 58,
      "hit": false,
      "t": 167727.10500000062,
      "d": 454.5450000000128,
      "v": 127
    },
    {
      "midi": 63,
      "hit": false,
      "t": 167727.10500000062,
      "d": 454.5450000000128,
      "v": 127
    },
    {
      "midi": 72,
      "hit": false,
      "t": 167954.37750000032,
      "d": 454.5450000000128,
      "v": 127
    },
    {
      "midi": 79,
      "hit": false,
      "t": 167954.37750000032,
      "d": 454.5450000000128,
      "v": 127
    },
    {
      "midi": 84,
      "hit": false,
      "t": 167954.37750000032,
      "d": 454.5450000000128,
      "v": 127
    },
    {
      "midi": 43,
      "hit": false,
      "t": 168181.65000000063,
      "d": 454.5450000000128,
      "v": 127
    },
    {
      "midi": 55,
      "hit": false,
      "t": 168181.65000000063,
      "d": 454.5450000000128,
      "v": 127
    },
    {
      "midi": 70,
      "hit": false,
      "t": 168408.92250000034,
      "d": 227.27249999999185,
      "v": 127
    },
    {
      "midi": 82,
      "hit": false,
      "t": 168408.92250000034,
      "d": 227.27249999999185,
      "v": 127
    },
    {
      "midi": 72,
      "hit": false,
      "t": 168636.19500000033,
      "d": 227.27249999999185,
      "v": 127
    },
    {
      "midi": 84,
      "hit": false,
      "t": 168636.19500000033,
      "d": 227.27249999999185,
      "v": 127
    },
    {
      "midi": 42,
      "hit": false,
      "t": 168636.19500000065,
      "d": 454.5450000000128,
      "v": 127
    },
    {
      "midi": 54,
      "hit": false,
      "t": 168636.19500000065,
      "d": 454.5450000000128,
      "v": 127
    },
    {
      "midi": 73,
      "hit": false,
      "t": 168863.46750000032,
      "d": 227.27249999999185,
      "v": 127
    },
    {
      "midi": 85,
      "hit": false,
      "t": 168863.46750000032,
      "d": 227.27249999999185,
      "v": 127
    },
    {
      "midi": 74,
      "hit": false,
      "t": 169090.7400000003,
      "d": 454.5450000000128,
      "v": 127
    },
    {
      "midi": 80,
      "hit": false,
      "t": 169090.7400000003,
      "d": 454.5450000000128,
      "v": 127
    },
    {
      "midi": 86,
      "hit": false,
      "t": 169090.7400000003,
      "d": 454.5450000000128,
      "v": 127
    },
    {
      "midi": 41,
      "hit": false,
      "t": 169090.74000000066,
      "d": 454.5450000000128,
      "v": 127
    },
    {
      "midi": 53,
      "hit": false,
      "t": 169090.74000000066,
      "d": 454.5450000000128,
      "v": 127
    },
    {
      "midi": 73,
      "hit": false,
      "t": 169545.28500000032,
      "d": 227.27249999999185,
      "v": 127
    },
    {
      "midi": 85,
      "hit": false,
      "t": 169545.28500000032,
      "d": 227.27249999999185,
      "v": 127
    },
    {
      "midi": 56,
      "hit": false,
      "t": 169545.28500000067,
      "d": 454.5450000000128,
      "v": 127
    },
    {
      "midi": 58,
      "hit": false,
      "t": 169545.28500000067,
      "d": 454.5450000000128,
      "v": 127
    },
    {
      "midi": 62,
      "hit": false,
      "t": 169545.28500000067,
      "d": 454.5450000000128,
      "v": 127
    },
    {
      "midi": 74,
      "hit": false,
      "t": 169772.55750000032,
      "d": 909.0899999999965,
      "v": 127
    },
    {
      "midi": 80,
      "hit": false,
      "t": 169772.55750000032,
      "d": 909.0899999999965,
      "v": 127
    },
    {
      "midi": 86,
      "hit": false,
      "t": 169772.55750000032,
      "d": 909.0899999999965,
      "v": 127
    },
    {
      "midi": 46,
      "hit": false,
      "t": 169999.8300000007,
      "d": 227.27249999999185,
      "v": 127
    },
    {
      "midi": 50,
      "hit": false,
      "t": 170227.10250000068,
      "d": 227.27249999999185,
      "v": 127
    },
    {
      "midi": 53,
      "hit": false,
      "t": 170454.37500000067,
      "d": 227.27249999999185,
      "v": 127
    },
    {
      "midi": 58,
      "hit": false,
      "t": 170681.64750000066,
      "d": 227.27249999999185,
      "v": 127
    },
    {
      "midi": 59,
      "hit": false,
      "t": 170908.92000000065,
      "d": 454.5450000000128,
      "v": 127
    },
    {
      "midi": 79,
      "hit": false,
      "t": 171136.19250000032,
      "d": 227.27249999999185,
      "v": 127
    },
    {
      "midi": 83,
      "hit": false,
      "t": 171136.19250000032,
      "d": 227.27249999999185,
      "v": 127
    },
    {
      "midi": 74,
      "hit": false,
      "t": 171363.46500000032,
      "d": 227.27249999999185,
      "v": 127
    },
    {
      "midi": 86,
      "hit": false,
      "t": 171363.46500000032,
      "d": 227.27249999999185,
      "v": 127
    },
    {
      "midi": 55,
      "hit": false,
      "t": 171363.46500000067,
      "d": 454.5450000000128,
      "v": 127
    },
    {
      "midi": 79,
      "hit": false,
      "t": 171590.7375000003,
      "d": 227.27249999999185,
      "v": 127
    },
    {
      "midi": 83,
      "hit": false,
      "t": 171818.0100000003,
      "d": 227.27249999999185,
      "v": 127
    },
    {
      "midi": 57,
      "hit": false,
      "t": 171818.01000000068,
      "d": 454.5450000000128,
      "v": 127
    },
    {
      "midi": 74,
      "hit": false,
      "t": 172045.2825000003,
      "d": 454.5450000000128,
      "v": 127
    },
    {
      "midi": 86,
      "hit": false,
      "t": 172045.2825000003,
      "d": 454.5450000000128,
      "v": 127
    },
    {
      "midi": 59,
      "hit": false,
      "t": 172272.5550000007,
      "d": 454.5450000000128,
      "v": 127
    },
    {
      "midi": 75,
      "hit": false,
      "t": 172499.8275000003,
      "d": 1363.6350000000093,
      "v": 127
    },
    {
      "midi": 79,
      "hit": false,
      "t": 172499.8275000003,
      "d": 1363.6350000000093,
      "v": 127
    },
    {
      "midi": 84,
      "hit": false,
      "t": 172499.8275000003,
      "d": 1363.6350000000093,
      "v": 127
    },
    {
      "midi": 87,
      "hit": false,
      "t": 172499.8275000003,
      "d": 1363.6350000000093,
      "v": 127
    },
    {
      "midi": 60,
      "hit": false,
      "t": 172727.1000000007,
      "d": 227.27249999999185,
      "v": 127
    },
    {
      "midi": 54,
      "hit": false,
      "t": 172954.3725000007,
      "d": 227.27249999999185,
      "v": 127
    },
    {
      "midi": 55,
      "hit": false,
      "t": 173181.6450000007,
      "d": 227.27249999999185,
      "v": 127
    },
    {
      "midi": 51,
      "hit": false,
      "t": 173408.91750000068,
      "d": 227.27249999999185,
      "v": 127
    },
    {
      "midi": 48,
      "hit": false,
      "t": 173636.19000000067,
      "d": 454.5450000000128,
      "v": 127
    },
    {
      "midi": 75,
      "hit": false,
      "t": 174090.7350000003,
      "d": 454.5450000000128,
      "v": 127
    },
    {
      "midi": 79,
      "hit": false,
      "t": 174090.7350000003,
      "d": 454.5450000000128,
      "v": 127
    },
    {
      "midi": 85,
      "hit": false,
      "t": 174090.7350000003,
      "d": 454.5450000000128,
      "v": 127
    },
    {
      "midi": 46,
      "hit": false,
      "t": 174090.73500000068,
      "d": 454.5450000000128,
      "v": 127
    },
    {
      "midi": 58,
      "hit": false,
      "t": 174090.73500000068,
      "d": 454.5450000000128,
      "v": 127
    },
    {
      "midi": 84,
      "hit": false,
      "t": 174545.28000000032,
      "d": 454.5450000000128,
      "v": 127
    },
    {
      "midi": 80,
      "hit": false,
      "t": 174545.28000000032,
      "d": 681.8175000000047,
      "v": 127
    },
    {
      "midi": 75,
      "hit": false,
      "t": 174545.28000000032,
      "d": 909.0899999999965,
      "v": 127
    },
    {
      "midi": 44,
      "hit": false,
      "t": 174545.2800000007,
      "d": 454.5450000000128,
      "v": 127
    },
    {
      "midi": 56,
      "hit": false,
      "t": 174545.2800000007,
      "d": 454.5450000000128,
      "v": 127
    },
    {
      "midi": 82,
      "hit": false,
      "t": 174999.82500000033,
      "d": 227.27249999999185,
      "v": 127
    },
    {
      "midi": 56,
      "hit": false,
      "t": 174999.8250000007,
      "d": 454.5450000000128,
      "v": 127
    },
    {
      "midi": 60,
      "hit": false,
      "t": 174999.8250000007,
      "d": 454.5450000000128,
      "v": 127
    },
    {
      "midi": 63,
      "hit": false,
      "t": 174999.8250000007,
      "d": 454.5450000000128,
      "v": 127
    },
    {
      "midi": 80,
      "hit": false,
      "t": 175227.09750000032,
      "d": 227.27249999999185,
      "v": 127
    },
    {
      "midi": 75,
      "hit": false,
      "t": 175454.37000000032,
      "d": 227.27249999999185,
      "v": 127
    },
    {
      "midi": 48,
      "hit": false,
      "t": 175454.37000000072,
      "d": 454.5450000000128,
      "v": 127
    },
    {
      "midi": 60,
      "hit": false,
      "t": 175454.37000000072,
      "d": 454.5450000000128,
      "v": 127
    },
    {
      "midi": 80,
      "hit": false,
      "t": 175681.6425000003,
      "d": 454.5450000000128,
      "v": 127
    },
    {
      "midi": 47,
      "hit": false,
      "t": 175908.91500000074,
      "d": 454.5450000000128,
      "v": 127
    },
    {
      "midi": 59,
      "hit": false,
      "t": 175908.91500000074,
      "d": 454.5450000000128,
      "v": 127
    },
    {
      "midi": 79,
      "hit": false,
      "t": 176136.18750000032,
      "d": 454.5450000000128,
      "v": 127
    },
    {
      "midi": 75,
      "hit": false,
      "t": 176136.18750000032,
      "d": 909.0899999999965,
      "v": 127
    },
    {
      "midi": 46,
      "hit": false,
      "t": 176363.46000000075,
      "d": 454.5450000000128,
      "v": 127
    },
    {
      "midi": 58,
      "hit": false,
      "t": 176363.46000000075,
      "d": 454.5450000000128,
      "v": 127
    },
    {
      "midi": 80,
      "hit": false,
      "t": 176590.73250000033,
      "d": 227.27249999999185,
      "v": 127
    },
    {
      "midi": 81,
      "hit": false,
      "t": 176818.00500000032,
      "d": 227.27249999999185,
      "v": 127
    },
    {
      "midi": 55,
      "hit": false,
      "t": 176818.00500000076,
      "d": 454.5450000000128,
      "v": 127
    },
    {
      "midi": 58,
      "hit": false,
      "t": 176818.00500000076,
      "d": 454.5450000000128,
      "v": 127
    },
    {
      "midi": 63,
      "hit": false,
      "t": 176818.00500000076,
      "d": 454.5450000000128,
      "v": 127
    },
    {
      "midi": 82,
      "hit": false,
      "t": 177045.27750000032,
      "d": 227.27249999999185,
      "v": 127
    },
    {
      "midi": 75,
      "hit": false,
      "t": 177272.5500000003,
      "d": 454.5450000000128,
      "v": 127
    },
    {
      "midi": 78,
      "hit": false,
      "t": 177272.5500000003,
      "d": 454.5450000000128,
      "v": 127
    },
    {
      "midi": 84,
      "hit": false,
      "t": 177272.5500000003,
      "d": 454.5450000000128,
      "v": 127
    },
    {
      "midi": 45,
      "hit": false,
      "t": 177272.55000000077,
      "d": 454.5450000000128,
      "v": 127
    },
    {
      "midi": 57,
      "hit": false,
      "t": 177272.55000000077,
      "d": 454.5450000000128,
      "v": 127
    },
    {
      "midi": 72,
      "hit": false,
      "t": 177727.09500000032,
      "d": 454.5450000000128,
      "v": 127
    },
    {
      "midi": 75,
      "hit": false,
      "t": 177727.09500000032,
      "d": 454.5450000000128,
      "v": 127
    },
    {
      "midi": 81,
      "hit": false,
      "t": 177727.09500000032,
      "d": 454.5450000000128,
      "v": 127
    },
    {
      "midi": 42,
      "hit": false,
      "t": 177727.0950000008,
      "d": 454.5450000000128,
      "v": 127
    },
    {
      "midi": 54,
      "hit": false,
      "t": 177727.0950000008,
      "d": 454.5450000000128,
      "v": 127
    },
    {
      "midi": 82,
      "hit": false,
      "t": 178181.64000000033,
      "d": 227.27249999999185,
      "v": 127
    },
    {
      "midi": 70,
      "hit": false,
      "t": 178181.64000000033,
      "d": 909.0899999999965,
      "v": 127
    },
    {
      "midi": 75,
      "hit": false,
      "t": 178181.64000000033,
      "d": 909.0899999999965,
      "v": 127
    },
    {
      "midi": 43,
      "hit": false,
      "t": 178181.6400000008,
      "d": 454.5450000000128,
      "v": 127
    },
    {
      "midi": 55,
      "hit": false,
      "t": 178181.6400000008,
      "d": 454.5450000000128,
      "v": 127
    },
    {
      "midi": 79,
      "hit": false,
      "t": 178408.91250000033,
      "d": 227.27249999999185,
      "v": 127
    },
    {
      "midi": 77,
      "hit": false,
      "t": 178636.18500000032,
      "d": 454.5450000000128,
      "v": 127
    },
    {
      "midi": 55,
      "hit": false,
      "t": 178636.1850000008,
      "d": 454.5450000000128,
      "v": 127
    },
    {
      "midi": 58,
      "hit": false,
      "t": 178636.1850000008,
      "d": 454.5450000000128,
      "v": 127
    },
    {
      "midi": 63,
      "hit": false,
      "t": 178636.1850000008,
      "d": 454.5450000000128,
      "v": 127
    },
    {
      "midi": 74,
      "hit": false,
      "t": 179090.73000000033,
      "d": 227.27249999999185,
      "v": 127
    },
    {
      "midi": 77,
      "hit": false,
      "t": 179090.73000000033,
      "d": 227.27249999999185,
      "v": 127
    },
    {
      "midi": 46,
      "hit": false,
      "t": 179090.73000000083,
      "d": 454.5450000000128,
      "v": 127
    },
    {
      "midi": 70,
      "hit": false,
      "t": 179318.00250000032,
      "d": 454.5450000000128,
      "v": 127
    },
    {
      "midi": 74,
      "hit": false,
      "t": 179318.00250000032,
      "d": 454.5450000000128,
      "v": 127
    },
    {
      "midi": 82,
      "hit": false,
      "t": 179318.00250000032,
      "d": 454.5450000000128,
      "v": 127
    },
    {
      "midi": 56,
      "hit": false,
      "t": 179545.27500000084,
      "d": 454.5450000000128,
      "v": 127
    },
    {
      "midi": 58,
      "hit": false,
      "t": 179545.27500000084,
      "d": 454.5450000000128,
      "v": 127
    },
    {
      "midi": 62,
      "hit": false,
      "t": 179545.27500000084,
      "d": 454.5450000000128,
      "v": 127
    },
    {
      "midi": 67,
      "hit": false,
      "t": 179772.54750000034,
      "d": 1363.6350000000093,
      "v": 127
    },
    {
      "midi": 70,
      "hit": false,
      "t": 179772.54750000034,
      "d": 1363.6350000000093,
      "v": 127
    },
    {
      "midi": 75,
      "hit": false,
      "t": 179772.54750000034,
      "d": 1363.6350000000093,
      "v": 127
    },
    {
      "midi": 51,
      "hit": false,
      "t": 179999.82000000085,
      "d": 454.5450000000128,
      "v": 127
    },
    {
      "midi": 63,
      "hit": false,
      "t": 179999.82000000085,
      "d": 454.5450000000128,
      "v": 127
    },
    {
      "midi": 46,
      "hit": false,
      "t": 180454.36500000086,
      "d": 454.5450000000128,
      "v": 127
    },
    {
      "midi": 58,
      "hit": false,
      "t": 180454.36500000086,
      "d": 454.5450000000128,
      "v": 127
    },
    {
      "midi": 43,
      "hit": false,
      "t": 180908.91000000088,
      "d": 454.5450000000128,
      "v": 127
    },
    {
      "midi": 55,
      "hit": false,
      "t": 180908.91000000088,
      "d": 454.5450000000128,
      "v": 127
    },
    {
      "midi": 74,
      "hit": false,
      "t": 181363.45500000034,
      "d": 454.5450000000128,
      "v": 127
    },
    {
      "midi": 80,
      "hit": false,
      "t": 181363.45500000034,
      "d": 454.5450000000128,
      "v": 127
    },
    {
      "midi": 82,
      "hit": false,
      "t": 181363.45500000034,
      "d": 454.5450000000128,
      "v": 127
    },
    {
      "midi": 41,
      "hit": false,
      "t": 181363.4550000009,
      "d": 454.5450000000128,
      "v": 127
    },
    {
      "midi": 53,
      "hit": false,
      "t": 181363.4550000009,
      "d": 454.5450000000128,
      "v": 127
    },
    {
      "midi": 39,
      "hit": false,
      "t": 181818.0000000009,
      "d": 454.5450000000128,
      "v": 127
    },
    {
      "midi": 51,
      "hit": false,
      "t": 181818.0000000009,
      "d": 454.5450000000128,
      "v": 127
    },
    {
      "midi": 75,
      "hit": false,
      "t": 182045.27250000034,
      "d": 227.27249999999185,
      "v": 127
    },
    {
      "midi": 79,
      "hit": false,
      "t": 182045.27250000034,
      "d": 227.27249999999185,
      "v": 127
    },
    {
      "midi": 87,
      "hit": false,
      "t": 182045.27250000034,
      "d": 227.27249999999185,
      "v": 127
    },
    {
      "midi": 74,
      "hit": false,
      "t": 182272.54500000033,
      "d": 227.27249999999185,
      "v": 127
    },
    {
      "midi": 79,
      "hit": false,
      "t": 182272.54500000033,
      "d": 227.27249999999185,
      "v": 127
    },
    {
      "midi": 86,
      "hit": false,
      "t": 182272.54500000033,
      "d": 227.27249999999185,
      "v": 127
    },
    {
      "midi": 55,
      "hit": false,
      "t": 182272.54500000092,
      "d": 454.5450000000128,
      "v": 127
    },
    {
      "midi": 58,
      "hit": false,
      "t": 182272.54500000092,
      "d": 454.5450000000128,
      "v": 127
    },
    {
      "midi": 63,
      "hit": false,
      "t": 182272.54500000092,
      "d": 454.5450000000128,
      "v": 127
    },
    {
      "midi": 72,
      "hit": false,
      "t": 182499.81750000032,
      "d": 454.5450000000128,
      "v": 127
    },
    {
      "midi": 79,
      "hit": false,
      "t": 182499.81750000032,
      "d": 454.5450000000128,
      "v": 127
    },
    {
      "midi": 84,
      "hit": false,
      "t": 182499.81750000032,
      "d": 454.5450000000128,
      "v": 127
    },
    {
      "midi": 43,
      "hit": false,
      "t": 182727.09000000093,
      "d": 454.5450000000128,
      "v": 127
    },
    {
      "midi": 55,
      "hit": false,
      "t": 182727.09000000093,
      "d": 454.5450000000128,
      "v": 127
    },
    {
      "midi": 70,
      "hit": false,
      "t": 182954.36250000034,
      "d": 227.27249999999185,
      "v": 127
    },
    {
      "midi": 82,
      "hit": false,
      "t": 182954.36250000034,
      "d": 227.27249999999185,
      "v": 127
    },
    {
      "midi": 72,
      "hit": false,
      "t": 183181.63500000033,
      "d": 227.27249999999185,
      "v": 127
    },
    {
      "midi": 84,
      "hit": false,
      "t": 183181.63500000033,
      "d": 227.27249999999185,
      "v": 127
    },
    {
      "midi": 42,
      "hit": false,
      "t": 183181.63500000094,
      "d": 454.5450000000128,
      "v": 127
    },
    {
      "midi": 54,
      "hit": false,
      "t": 183181.63500000094,
      "d": 454.5450000000128,
      "v": 127
    },
    {
      "midi": 73,
      "hit": false,
      "t": 183408.90750000032,
      "d": 227.27249999999185,
      "v": 127
    },
    {
      "midi": 85,
      "hit": false,
      "t": 183408.90750000032,
      "d": 227.27249999999185,
      "v": 127
    },
    {
      "midi": 74,
      "hit": false,
      "t": 183636.1800000003,
      "d": 454.5450000000128,
      "v": 127
    },
    {
      "midi": 80,
      "hit": false,
      "t": 183636.1800000003,
      "d": 454.5450000000128,
      "v": 127
    },
    {
      "midi": 86,
      "hit": false,
      "t": 183636.1800000003,
      "d": 454.5450000000128,
      "v": 127
    },
    {
      "midi": 41,
      "hit": false,
      "t": 183636.18000000095,
      "d": 454.5450000000128,
      "v": 127
    },
    {
      "midi": 53,
      "hit": false,
      "t": 183636.18000000095,
      "d": 454.5450000000128,
      "v": 127
    },
    {
      "midi": 73,
      "hit": false,
      "t": 184090.72500000033,
      "d": 227.27249999999185,
      "v": 127
    },
    {
      "midi": 85,
      "hit": false,
      "t": 184090.72500000033,
      "d": 227.27249999999185,
      "v": 127
    },
    {
      "midi": 56,
      "hit": false,
      "t": 184090.72500000097,
      "d": 454.5450000000128,
      "v": 127
    },
    {
      "midi": 58,
      "hit": false,
      "t": 184090.72500000097,
      "d": 454.5450000000128,
      "v": 127
    },
    {
      "midi": 62,
      "hit": false,
      "t": 184090.72500000097,
      "d": 454.5450000000128,
      "v": 127
    },
    {
      "midi": 74,
      "hit": false,
      "t": 184317.99750000032,
      "d": 909.0899999999965,
      "v": 127
    },
    {
      "midi": 80,
      "hit": false,
      "t": 184317.99750000032,
      "d": 909.0899999999965,
      "v": 127
    },
    {
      "midi": 86,
      "hit": false,
      "t": 184317.99750000032,
      "d": 909.0899999999965,
      "v": 127
    },
    {
      "midi": 46,
      "hit": false,
      "t": 184545.27000000098,
      "d": 227.27249999999185,
      "v": 127
    },
    {
      "midi": 50,
      "hit": false,
      "t": 184772.54250000097,
      "d": 227.27249999999185,
      "v": 127
    },
    {
      "midi": 53,
      "hit": false,
      "t": 184999.81500000096,
      "d": 227.27249999999185,
      "v": 127
    },
    {
      "midi": 58,
      "hit": false,
      "t": 185227.08750000095,
      "d": 227.27249999999185,
      "v": 127
    },
    {
      "midi": 41,
      "hit": false,
      "t": 185454.36000000095,
      "d": 454.5450000000128,
      "v": 127
    },
    {
      "midi": 53,
      "hit": false,
      "t": 185454.36000000095,
      "d": 454.5450000000128,
      "v": 127
    },
    {
      "midi": 74,
      "hit": false,
      "t": 185681.63250000033,
      "d": 227.27249999999185,
      "v": 127
    },
    {
      "midi": 80,
      "hit": false,
      "t": 185681.63250000033,
      "d": 227.27249999999185,
      "v": 127
    },
    {
      "midi": 86,
      "hit": false,
      "t": 185681.63250000033,
      "d": 227.27249999999185,
      "v": 127
    },
    {
      "midi": 73,
      "hit": false,
      "t": 185908.90500000032,
      "d": 227.27249999999185,
      "v": 127
    },
    {
      "midi": 80,
      "hit": false,
      "t": 185908.90500000032,
      "d": 227.27249999999185,
      "v": 127
    },
    {
      "midi": 85,
      "hit": false,
      "t": 185908.90500000032,
      "d": 227.27249999999185,
      "v": 127
    },
    {
      "midi": 56,
      "hit": false,
      "t": 185908.90500000096,
      "d": 454.5450000000128,
      "v": 127
    },
    {
      "midi": 58,
      "hit": false,
      "t": 185908.90500000096,
      "d": 454.5450000000128,
      "v": 127
    },
    {
      "midi": 62,
      "hit": false,
      "t": 185908.90500000096,
      "d": 454.5450000000128,
      "v": 127
    },
    {
      "midi": 72,
      "hit": false,
      "t": 186136.1775000003,
      "d": 454.5450000000128,
      "v": 127
    },
    {
      "midi": 80,
      "hit": false,
      "t": 186136.1775000003,
      "d": 454.5450000000128,
      "v": 127
    },
    {
      "midi": 84,
      "hit": false,
      "t": 186136.1775000003,
      "d": 454.5450000000128,
      "v": 127
    },
    {
      "midi": 34,
      "hit": false,
      "t": 186363.45000000097,
      "d": 454.5450000000128,
      "v": 127
    },
    {
      "midi": 46,
      "hit": false,
      "t": 186363.45000000097,
      "d": 454.5450000000128,
      "v": 127
    },
    {
      "midi": 65,
      "hit": false,
      "t": 186590.72250000032,
      "d": 227.27249999999185,
      "v": 127
    },
    {
      "midi": 77,
      "hit": false,
      "t": 186590.72250000032,
      "d": 227.27249999999185,
      "v": 127
    },
    {
      "midi": 67,
      "hit": false,
      "t": 186817.99500000032,
      "d": 227.27249999999185,
      "v": 127
    },
    {
      "midi": 79,
      "hit": false,
      "t": 186817.99500000032,
      "d": 227.27249999999185,
      "v": 127
    },
    {
      "midi": 56,
      "hit": false,
      "t": 186817.99500000098,
      "d": 454.5450000000128,
      "v": 127
    },
    {
      "midi": 58,
      "hit": false,
      "t": 186817.99500000098,
      "d": 454.5450000000128,
      "v": 127
    },
    {
      "midi": 62,
      "hit": false,
      "t": 186817.99500000098,
      "d": 454.5450000000128,
      "v": 127
    },
    {
      "midi": 68,
      "hit": false,
      "t": 187045.2675000003,
      "d": 227.27249999999185,
      "v": 127
    },
    {
      "midi": 80,
      "hit": false,
      "t": 187045.2675000003,
      "d": 227.27249999999185,
      "v": 127
    },
    {
      "midi": 69,
      "hit": false,
      "t": 187272.5400000003,
      "d": 909.0899999999965,
      "v": 127
    },
    {
      "midi": 75,
      "hit": false,
      "t": 187272.5400000003,
      "d": 909.0899999999965,
      "v": 127
    },
    {
      "midi": 78,
      "hit": false,
      "t": 187272.5400000003,
      "d": 909.0899999999965,
      "v": 127
    },
    {
      "midi": 81,
      "hit": false,
      "t": 187272.5400000003,
      "d": 909.0899999999965,
      "v": 127
    },
    {
      "midi": 48,
      "hit": false,
      "t": 187499.812500001,
      "d": 227.27249999999185,
      "v": 127
    },
    {
      "midi": 51,
      "hit": false,
      "t": 187727.08500000098,
      "d": 227.27249999999185,
      "v": 127
    },
    {
      "midi": 54,
      "hit": false,
      "t": 187954.35750000097,
      "d": 227.27249999999185,
      "v": 127
    },
    {
      "midi": 70,
      "hit": false,
      "t": 188181.6300000003,
      "d": 909.0899999999965,
      "v": 127
    },
    {
      "midi": 75,
      "hit": false,
      "t": 188181.6300000003,
      "d": 909.0899999999965,
      "v": 127
    },
    {
      "midi": 79,
      "hit": false,
      "t": 188181.6300000003,
      "d": 909.0899999999965,
      "v": 127
    },
    {
      "midi": 82,
      "hit": false,
      "t": 188181.6300000003,
      "d": 909.0899999999965,
      "v": 127
    },
    {
      "midi": 55,
      "hit": false,
      "t": 188181.63000000097,
      "d": 227.27249999999185,
      "v": 127
    },
    {
      "midi": 51,
      "hit": false,
      "t": 188408.90250000096,
      "d": 227.27249999999185,
      "v": 127
    },
    {
      "midi": 46,
      "hit": false,
      "t": 188636.17500000095,
      "d": 454.5450000000128,
      "v": 127
    },
    {
      "midi": 39,
      "hit": false,
      "t": 189090.72000000096,
      "d": 454.5450000000128,
      "v": 127
    },
    {
      "midi": 51,
      "hit": false,
      "t": 189090.72000000096,
      "d": 454.5450000000128,
      "v": 127
    },
    {
      "midi": 75,
      "hit": false,
      "t": 189317.99250000028,
      "d": 227.27249999999185,
      "v": 127
    },
    {
      "midi": 79,
      "hit": false,
      "t": 189317.99250000028,
      "d": 227.27249999999185,
      "v": 127
    },
    {
      "midi": 87,
      "hit": false,
      "t": 189317.99250000028,
      "d": 227.27249999999185,
      "v": 127
    },
    {
      "midi": 74,
      "hit": false,
      "t": 189545.26500000028,
      "d": 227.27249999999185,
      "v": 127
    },
    {
      "midi": 79,
      "hit": false,
      "t": 189545.26500000028,
      "d": 227.27249999999185,
      "v": 127
    },
    {
      "midi": 86,
      "hit": false,
      "t": 189545.26500000028,
      "d": 227.27249999999185,
      "v": 127
    },
    {
      "midi": 55,
      "hit": false,
      "t": 189545.26500000097,
      "d": 454.5450000000128,
      "v": 127
    },
    {
      "midi": 58,
      "hit": false,
      "t": 189545.26500000097,
      "d": 454.5450000000128,
      "v": 127
    },
    {
      "midi": 63,
      "hit": false,
      "t": 189545.26500000097,
      "d": 454.5450000000128,
      "v": 127
    },
    {
      "midi": 72,
      "hit": false,
      "t": 189772.53750000027,
      "d": 454.5450000000128,
      "v": 127
    },
    {
      "midi": 79,
      "hit": false,
      "t": 189772.53750000027,
      "d": 454.5450000000128,
      "v": 127
    },
    {
      "midi": 84,
      "hit": false,
      "t": 189772.53750000027,
      "d": 454.5450000000128,
      "v": 127
    },
    {
      "midi": 39,
      "hit": false,
      "t": 189999.810000001,
      "d": 454.5450000000128,
      "v": 127
    },
    {
      "midi": 51,
      "hit": false,
      "t": 189999.810000001,
      "d": 454.5450000000128,
      "v": 127
    },
    {
      "midi": 70,
      "hit": false,
      "t": 190227.08250000028,
      "d": 227.27249999999185,
      "v": 127
    },
    {
      "midi": 82,
      "hit": false,
      "t": 190227.08250000028,
      "d": 227.27249999999185,
      "v": 127
    },
    {
      "midi": 72,
      "hit": false,
      "t": 190454.35500000027,
      "d": 227.27249999999185,
      "v": 127
    },
    {
      "midi": 84,
      "hit": false,
      "t": 190454.35500000027,
      "d": 227.27249999999185,
      "v": 127
    },
    {
      "midi": 55,
      "hit": false,
      "t": 190454.355000001,
      "d": 454.5450000000128,
      "v": 127
    },
    {
      "midi": 58,
      "hit": false,
      "t": 190454.355000001,
      "d": 454.5450000000128,
      "v": 127
    },
    {
      "midi": 63,
      "hit": false,
      "t": 190454.355000001,
      "d": 454.5450000000128,
      "v": 127
    },
    {
      "midi": 73,
      "hit": false,
      "t": 190681.62750000026,
      "d": 227.27249999999185,
      "v": 127
    },
    {
      "midi": 85,
      "hit": false,
      "t": 190681.62750000026,
      "d": 227.27249999999185,
      "v": 127
    },
    {
      "midi": 74,
      "hit": false,
      "t": 190908.90000000026,
      "d": 454.5450000000128,
      "v": 127
    },
    {
      "midi": 79,
      "hit": false,
      "t": 190908.90000000026,
      "d": 454.5450000000128,
      "v": 127
    },
    {
      "midi": 82,
      "hit": false,
      "t": 190908.90000000026,
      "d": 454.5450000000128,
      "v": 127
    },
    {
      "midi": 86,
      "hit": false,
      "t": 190908.90000000026,
      "d": 454.5450000000128,
      "v": 127
    },
    {
      "midi": 38,
      "hit": false,
      "t": 190908.900000001,
      "d": 454.5450000000128,
      "v": 127
    },
    {
      "midi": 50,
      "hit": false,
      "t": 190908.900000001,
      "d": 454.5450000000128,
      "v": 127
    },
    {
      "midi": 73,
      "hit": false,
      "t": 191363.44500000027,
      "d": 227.27249999999185,
      "v": 127
    },
    {
      "midi": 85,
      "hit": false,
      "t": 191363.44500000027,
      "d": 227.27249999999185,
      "v": 127
    },
    {
      "midi": 55,
      "hit": false,
      "t": 191363.44500000103,
      "d": 454.5450000000128,
      "v": 127
    },
    {
      "midi": 58,
      "hit": false,
      "t": 191363.44500000103,
      "d": 454.5450000000128,
      "v": 127
    },
    {
      "midi": 62,
      "hit": false,
      "t": 191363.44500000103,
      "d": 454.5450000000128,
      "v": 127
    },
    {
      "midi": 74,
      "hit": false,
      "t": 191590.71750000026,
      "d": 909.0899999999965,
      "v": 127
    },
    {
      "midi": 79,
      "hit": false,
      "t": 191590.71750000026,
      "d": 909.0899999999965,
      "v": 127
    },
    {
      "midi": 82,
      "hit": false,
      "t": 191590.71750000026,
      "d": 909.0899999999965,
      "v": 127
    },
    {
      "midi": 86,
      "hit": false,
      "t": 191590.71750000026,
      "d": 909.0899999999965,
      "v": 127
    },
    {
      "midi": 50,
      "hit": false,
      "t": 191817.99000000104,
      "d": 227.27249999999185,
      "v": 127
    },
    {
      "midi": 55,
      "hit": false,
      "t": 192045.26250000103,
      "d": 227.27249999999185,
      "v": 127
    },
    {
      "midi": 58,
      "hit": false,
      "t": 192272.53500000102,
      "d": 227.27249999999185,
      "v": 127
    },
    {
      "midi": 62,
      "hit": false,
      "t": 192499.807500001,
      "d": 227.27249999999185,
      "v": 127
    },
    {
      "midi": 38,
      "hit": false,
      "t": 192727.080000001,
      "d": 454.5450000000128,
      "v": 127
    },
    {
      "midi": 50,
      "hit": false,
      "t": 192727.080000001,
      "d": 454.5450000000128,
      "v": 127
    },
    {
      "midi": 74,
      "hit": false,
      "t": 192954.35250000027,
      "d": 227.27249999999185,
      "v": 127
    },
    {
      "midi": 86,
      "hit": false,
      "t": 192954.35250000027,
      "d": 227.27249999999185,
      "v": 127
    },
    {
      "midi": 75,
      "hit": false,
      "t": 193181.62500000026,
      "d": 227.27249999999185,
      "v": 127
    },
    {
      "midi": 87,
      "hit": false,
      "t": 193181.62500000026,
      "d": 227.27249999999185,
      "v": 127
    },
    {
      "midi": 54,
      "hit": false,
      "t": 193181.62500000102,
      "d": 454.5450000000128,
      "v": 127
    },
    {
      "midi": 60,
      "hit": false,
      "t": 193181.62500000102,
      "d": 454.5450000000128,
      "v": 127
    },
    {
      "midi": 62,
      "hit": false,
      "t": 193181.62500000102,
      "d": 454.5450000000128,
      "v": 127
    },
    {
      "midi": 74,
      "hit": false,
      "t": 193408.89750000025,
      "d": 454.5450000000128,
      "v": 127
    },
    {
      "midi": 78,
      "hit": false,
      "t": 193408.89750000025,
      "d": 454.5450000000128,
      "v": 127
    },
    {
      "midi": 81,
      "hit": false,
      "t": 193408.89750000025,
      "d": 454.5450000000128,
      "v": 127
    },
    {
      "midi": 86,
      "hit": false,
      "t": 193408.89750000025,
      "d": 454.5450000000128,
      "v": 127
    },
    {
      "midi": 38,
      "hit": false,
      "t": 193636.17000000103,
      "d": 454.5450000000128,
      "v": 127
    },
    {
      "midi": 50,
      "hit": false,
      "t": 193636.17000000103,
      "d": 454.5450000000128,
      "v": 127
    },
    {
      "midi": 73,
      "hit": false,
      "t": 193863.44250000027,
      "d": 227.27249999999185,
      "v": 127
    },
    {
      "midi": 85,
      "hit": false,
      "t": 193863.44250000027,
      "d": 227.27249999999185,
      "v": 127
    },
    {
      "midi": 74,
      "hit": false,
      "t": 194090.71500000026,
      "d": 454.5450000000128,
      "v": 127
    },
    {
      "midi": 78,
      "hit": false,
      "t": 194090.71500000026,
      "d": 454.5450000000128,
      "v": 127
    },
    {
      "midi": 81,
      "hit": false,
      "t": 194090.71500000026,
      "d": 454.5450000000128,
      "v": 127
    },
    {
      "midi": 86,
      "hit": false,
      "t": 194090.71500000026,
      "d": 454.5450000000128,
      "v": 127
    },
    {
      "midi": 54,
      "hit": false,
      "t": 194090.71500000104,
      "d": 454.5450000000128,
      "v": 127
    },
    {
      "midi": 60,
      "hit": false,
      "t": 194090.71500000104,
      "d": 454.5450000000128,
      "v": 127
    },
    {
      "midi": 62,
      "hit": false,
      "t": 194090.71500000104,
      "d": 454.5450000000128,
      "v": 127
    },
    {
      "midi": 74,
      "hit": false,
      "t": 194545.26000000027,
      "d": 454.5450000000128,
      "v": 127
    },
    {
      "midi": 79,
      "hit": false,
      "t": 194545.26000000027,
      "d": 454.5450000000128,
      "v": 127
    },
    {
      "midi": 82,
      "hit": false,
      "t": 194545.26000000027,
      "d": 454.5450000000128,
      "v": 127
    },
    {
      "midi": 86,
      "hit": false,
      "t": 194545.26000000027,
      "d": 454.5450000000128,
      "v": 127
    },
    {
      "midi": 43,
      "hit": false,
      "t": 194545.26000000106,
      "d": 454.5450000000128,
      "v": 127
    },
    {
      "midi": 55,
      "hit": false,
      "t": 194545.26000000106,
      "d": 454.5450000000128,
      "v": 127
    },
    {
      "midi": 74,
      "hit": false,
      "t": 194999.80500000028,
      "d": 454.5450000000128,
      "v": 127
    },
    {
      "midi": 81,
      "hit": false,
      "t": 194999.80500000028,
      "d": 454.5450000000128,
      "v": 127
    },
    {
      "midi": 86,
      "hit": false,
      "t": 194999.80500000028,
      "d": 454.5450000000128,
      "v": 127
    },
    {
      "midi": 42,
      "hit": false,
      "t": 194999.80500000107,
      "d": 454.5450000000128,
      "v": 127
    },
    {
      "midi": 54,
      "hit": false,
      "t": 194999.80500000107,
      "d": 454.5450000000128,
      "v": 127
    },
    {
      "midi": 74,
      "hit": false,
      "t": 195454.3500000003,
      "d": 909.0899999999965,
      "v": 127
    },
    {
      "midi": 80,
      "hit": false,
      "t": 195454.3500000003,
      "d": 909.0899999999965,
      "v": 127
    },
    {
      "midi": 82,
      "hit": false,
      "t": 195454.3500000003,
      "d": 909.0899999999965,
      "v": 127
    },
    {
      "midi": 86,
      "hit": false,
      "t": 195454.3500000003,
      "d": 909.0899999999965,
      "v": 127
    },
    {
      "midi": 41,
      "hit": false,
      "t": 195454.35000000108,
      "d": 454.5450000000128,
      "v": 127
    },
    {
      "midi": 53,
      "hit": false,
      "t": 195454.35000000108,
      "d": 454.5450000000128,
      "v": 127
    },
    {
      "midi": 34,
      "hit": false,
      "t": 195908.8950000011,
      "d": 454.5450000000128,
      "v": 127
    },
    {
      "midi": 46,
      "hit": false,
      "t": 195908.8950000011,
      "d": 454.5450000000128,
      "v": 127
    },
    {
      "midi": 39,
      "hit": false,
      "t": 196363.4400000011,
      "d": 454.5450000000128,
      "v": 127
    },
    {
      "midi": 51,
      "hit": false,
      "t": 196363.4400000011,
      "d": 454.5450000000128,
      "v": 127
    },
    {
      "midi": 75,
      "hit": false,
      "t": 196590.71250000029,
      "d": 227.27249999999185,
      "v": 127
    },
    {
      "midi": 79,
      "hit": false,
      "t": 196590.71250000029,
      "d": 227.27249999999185,
      "v": 127
    },
    {
      "midi": 87,
      "hit": false,
      "t": 196590.71250000029,
      "d": 227.27249999999185,
      "v": 127
    },
    {
      "midi": 74,
      "hit": false,
      "t": 196817.98500000028,
      "d": 227.27249999999185,
      "v": 127
    },
    {
      "midi": 79,
      "hit": false,
      "t": 196817.98500000028,
      "d": 227.27249999999185,
      "v": 127
    },
    {
      "midi": 86,
      "hit": false,
      "t": 196817.98500000028,
      "d": 227.27249999999185,
      "v": 127
    },
    {
      "midi": 55,
      "hit": false,
      "t": 196817.98500000112,
      "d": 454.5450000000128,
      "v": 127
    },
    {
      "midi": 58,
      "hit": false,
      "t": 196817.98500000112,
      "d": 454.5450000000128,
      "v": 127
    },
    {
      "midi": 63,
      "hit": false,
      "t": 196817.98500000112,
      "d": 454.5450000000128,
      "v": 127
    },
    {
      "midi": 72,
      "hit": false,
      "t": 197045.25750000027,
      "d": 454.5450000000128,
      "v": 127
    },
    {
      "midi": 79,
      "hit": false,
      "t": 197045.25750000027,
      "d": 454.5450000000128,
      "v": 127
    },
    {
      "midi": 84,
      "hit": false,
      "t": 197045.25750000027,
      "d": 454.5450000000128,
      "v": 127
    },
    {
      "midi": 43,
      "hit": false,
      "t": 197272.53000000113,
      "d": 454.5450000000128,
      "v": 127
    },
    {
      "midi": 55,
      "hit": false,
      "t": 197272.53000000113,
      "d": 454.5450000000128,
      "v": 127
    },
    {
      "midi": 70,
      "hit": false,
      "t": 197499.80250000028,
      "d": 227.27249999999185,
      "v": 127
    },
    {
      "midi": 82,
      "hit": false,
      "t": 197499.80250000028,
      "d": 227.27249999999185,
      "v": 127
    },
    {
      "midi": 72,
      "hit": false,
      "t": 197727.07500000027,
      "d": 227.27249999999185,
      "v": 127
    },
    {
      "midi": 84,
      "hit": false,
      "t": 197727.07500000027,
      "d": 227.27249999999185,
      "v": 127
    },
    {
      "midi": 42,
      "hit": false,
      "t": 197727.07500000115,
      "d": 454.5450000000128,
      "v": 127
    },
    {
      "midi": 54,
      "hit": false,
      "t": 197727.07500000115,
      "d": 454.5450000000128,
      "v": 127
    },
    {
      "midi": 73,
      "hit": false,
      "t": 197954.34750000027,
      "d": 227.27249999999185,
      "v": 127
    },
    {
      "midi": 85,
      "hit": false,
      "t": 197954.34750000027,
      "d": 227.27249999999185,
      "v": 127
    },
    {
      "midi": 74,
      "hit": false,
      "t": 198181.62000000026,
      "d": 454.5450000000128,
      "v": 127
    },
    {
      "midi": 80,
      "hit": false,
      "t": 198181.62000000026,
      "d": 454.5450000000128,
      "v": 127
    },
    {
      "midi": 86,
      "hit": false,
      "t": 198181.62000000026,
      "d": 454.5450000000128,
      "v": 127
    },
    {
      "midi": 41,
      "hit": false,
      "t": 198181.62000000116,
      "d": 454.5450000000128,
      "v": 127
    },
    {
      "midi": 53,
      "hit": false,
      "t": 198181.62000000116,
      "d": 454.5450000000128,
      "v": 127
    },
    {
      "midi": 73,
      "hit": false,
      "t": 198636.16500000027,
      "d": 227.27249999999185,
      "v": 127
    },
    {
      "midi": 85,
      "hit": false,
      "t": 198636.16500000027,
      "d": 227.27249999999185,
      "v": 127
    },
    {
      "midi": 56,
      "hit": false,
      "t": 198636.16500000117,
      "d": 454.5450000000128,
      "v": 127
    },
    {
      "midi": 58,
      "hit": false,
      "t": 198636.16500000117,
      "d": 454.5450000000128,
      "v": 127
    },
    {
      "midi": 62,
      "hit": false,
      "t": 198636.16500000117,
      "d": 454.5450000000128,
      "v": 127
    },
    {
      "midi": 74,
      "hit": false,
      "t": 198863.43750000026,
      "d": 909.0899999999965,
      "v": 127
    },
    {
      "midi": 80,
      "hit": false,
      "t": 198863.43750000026,
      "d": 909.0899999999965,
      "v": 127
    },
    {
      "midi": 86,
      "hit": false,
      "t": 198863.43750000026,
      "d": 909.0899999999965,
      "v": 127
    },
    {
      "midi": 46,
      "hit": false,
      "t": 199090.71000000119,
      "d": 227.27249999999185,
      "v": 127
    },
    {
      "midi": 50,
      "hit": false,
      "t": 199317.98250000118,
      "d": 227.27249999999185,
      "v": 127
    },
    {
      "midi": 53,
      "hit": false,
      "t": 199545.25500000117,
      "d": 227.27249999999185,
      "v": 127
    },
    {
      "midi": 58,
      "hit": false,
      "t": 199772.52750000116,
      "d": 227.27249999999185,
      "v": 127
    },
    {
      "midi": 59,
      "hit": false,
      "t": 199999.80000000115,
      "d": 454.5450000000128,
      "v": 127
    },
    {
      "midi": 79,
      "hit": false,
      "t": 200227.07250000027,
      "d": 227.27249999999185,
      "v": 127
    },
    {
      "midi": 83,
      "hit": false,
      "t": 200227.07250000027,
      "d": 227.27249999999185,
      "v": 127
    },
    {
      "midi": 74,
      "hit": false,
      "t": 200454.34500000026,
      "d": 227.27249999999185,
      "v": 127
    },
    {
      "midi": 86,
      "hit": false,
      "t": 200454.34500000026,
      "d": 227.27249999999185,
      "v": 127
    },
    {
      "midi": 55,
      "hit": false,
      "t": 200454.34500000117,
      "d": 454.5450000000128,
      "v": 127
    },
    {
      "midi": 79,
      "hit": false,
      "t": 200681.61750000025,
      "d": 227.27249999999185,
      "v": 127
    },
    {
      "midi": 83,
      "hit": false,
      "t": 200908.89000000025,
      "d": 227.27249999999185,
      "v": 127
    },
    {
      "midi": 57,
      "hit": false,
      "t": 200908.89000000118,
      "d": 454.5450000000128,
      "v": 127
    },
    {
      "midi": 74,
      "hit": false,
      "t": 201136.16250000024,
      "d": 454.5450000000128,
      "v": 127
    },
    {
      "midi": 86,
      "hit": false,
      "t": 201136.16250000024,
      "d": 454.5450000000128,
      "v": 127
    },
    {
      "midi": 59,
      "hit": false,
      "t": 201363.4350000012,
      "d": 454.5450000000128,
      "v": 127
    },
    {
      "midi": 75,
      "hit": false,
      "t": 201590.70750000025,
      "d": 1363.6350000000093,
      "v": 127
    },
    {
      "midi": 79,
      "hit": false,
      "t": 201590.70750000025,
      "d": 1363.6350000000093,
      "v": 127
    },
    {
      "midi": 84,
      "hit": false,
      "t": 201590.70750000025,
      "d": 1363.6350000000093,
      "v": 127
    },
    {
      "midi": 87,
      "hit": false,
      "t": 201590.70750000025,
      "d": 1363.6350000000093,
      "v": 127
    },
    {
      "midi": 60,
      "hit": false,
      "t": 201817.9800000012,
      "d": 227.27249999999185,
      "v": 127
    },
    {
      "midi": 54,
      "hit": false,
      "t": 202045.2525000012,
      "d": 227.27249999999185,
      "v": 127
    },
    {
      "midi": 55,
      "hit": false,
      "t": 202272.5250000012,
      "d": 227.27249999999185,
      "v": 127
    },
    {
      "midi": 51,
      "hit": false,
      "t": 202499.79750000118,
      "d": 227.27249999999185,
      "v": 127
    },
    {
      "midi": 48,
      "hit": false,
      "t": 202727.07000000117,
      "d": 454.5450000000128,
      "v": 127
    },
    {
      "midi": 75,
      "hit": false,
      "t": 203181.61500000025,
      "d": 454.5450000000128,
      "v": 127
    },
    {
      "midi": 79,
      "hit": false,
      "t": 203181.61500000025,
      "d": 454.5450000000128,
      "v": 127
    },
    {
      "midi": 85,
      "hit": false,
      "t": 203181.61500000025,
      "d": 454.5450000000128,
      "v": 127
    },
    {
      "midi": 46,
      "hit": false,
      "t": 203181.61500000118,
      "d": 454.5450000000128,
      "v": 127
    },
    {
      "midi": 58,
      "hit": false,
      "t": 203181.61500000118,
      "d": 454.5450000000128,
      "v": 127
    },
    {
      "midi": 84,
      "hit": false,
      "t": 203636.16000000027,
      "d": 454.5450000000128,
      "v": 127
    },
    {
      "midi": 80,
      "hit": false,
      "t": 203636.16000000027,
      "d": 681.8175000000047,
      "v": 127
    },
    {
      "midi": 75,
      "hit": false,
      "t": 203636.16000000027,
      "d": 909.0899999999965,
      "v": 127
    },
    {
      "midi": 44,
      "hit": false,
      "t": 203636.1600000012,
      "d": 454.5450000000128,
      "v": 127
    },
    {
      "midi": 56,
      "hit": false,
      "t": 203636.1600000012,
      "d": 454.5450000000128,
      "v": 127
    },
    {
      "midi": 82,
      "hit": false,
      "t": 204090.70500000028,
      "d": 227.27249999999185,
      "v": 127
    },
    {
      "midi": 56,
      "hit": false,
      "t": 204090.7050000012,
      "d": 454.5450000000128,
      "v": 127
    },
    {
      "midi": 60,
      "hit": false,
      "t": 204090.7050000012,
      "d": 454.5450000000128,
      "v": 127
    },
    {
      "midi": 63,
      "hit": false,
      "t": 204090.7050000012,
      "d": 454.5450000000128,
      "v": 127
    },
    {
      "midi": 80,
      "hit": false,
      "t": 204317.97750000027,
      "d": 227.27249999999185,
      "v": 127
    },
    {
      "midi": 75,
      "hit": false,
      "t": 204545.25000000026,
      "d": 227.27249999999185,
      "v": 127
    },
    {
      "midi": 48,
      "hit": false,
      "t": 204545.25000000122,
      "d": 454.5450000000128,
      "v": 127
    },
    {
      "midi": 60,
      "hit": false,
      "t": 204545.25000000122,
      "d": 454.5450000000128,
      "v": 127
    },
    {
      "midi": 80,
      "hit": false,
      "t": 204772.52250000025,
      "d": 454.5450000000128,
      "v": 127
    },
    {
      "midi": 47,
      "hit": false,
      "t": 204999.79500000124,
      "d": 454.5450000000128,
      "v": 127
    },
    {
      "midi": 59,
      "hit": false,
      "t": 204999.79500000124,
      "d": 454.5450000000128,
      "v": 127
    },
    {
      "midi": 79,
      "hit": false,
      "t": 205227.06750000027,
      "d": 454.5450000000128,
      "v": 127
    },
    {
      "midi": 75,
      "hit": false,
      "t": 205227.06750000027,
      "d": 909.0899999999965,
      "v": 127
    },
    {
      "midi": 46,
      "hit": false,
      "t": 205454.34000000125,
      "d": 454.5450000000128,
      "v": 127
    },
    {
      "midi": 58,
      "hit": false,
      "t": 205454.34000000125,
      "d": 454.5450000000128,
      "v": 127
    },
    {
      "midi": 80,
      "hit": false,
      "t": 205681.61250000028,
      "d": 227.27249999999185,
      "v": 127
    },
    {
      "midi": 81,
      "hit": false,
      "t": 205908.88500000027,
      "d": 227.27249999999185,
      "v": 127
    },
    {
      "midi": 55,
      "hit": false,
      "t": 205908.88500000126,
      "d": 454.5450000000128,
      "v": 127
    },
    {
      "midi": 58,
      "hit": false,
      "t": 205908.88500000126,
      "d": 454.5450000000128,
      "v": 127
    },
    {
      "midi": 63,
      "hit": false,
      "t": 205908.88500000126,
      "d": 454.5450000000128,
      "v": 127
    },
    {
      "midi": 82,
      "hit": false,
      "t": 206136.15750000026,
      "d": 227.27249999999185,
      "v": 127
    },
    {
      "midi": 75,
      "hit": false,
      "t": 206363.43000000025,
      "d": 454.5450000000128,
      "v": 127
    },
    {
      "midi": 78,
      "hit": false,
      "t": 206363.43000000025,
      "d": 454.5450000000128,
      "v": 127
    },
    {
      "midi": 84,
      "hit": false,
      "t": 206363.43000000025,
      "d": 454.5450000000128,
      "v": 127
    },
    {
      "midi": 45,
      "hit": false,
      "t": 206363.43000000127,
      "d": 454.5450000000128,
      "v": 127
    },
    {
      "midi": 57,
      "hit": false,
      "t": 206363.43000000127,
      "d": 454.5450000000128,
      "v": 127
    },
    {
      "midi": 72,
      "hit": false,
      "t": 206817.97500000027,
      "d": 454.5450000000128,
      "v": 127
    },
    {
      "midi": 75,
      "hit": false,
      "t": 206817.97500000027,
      "d": 454.5450000000128,
      "v": 127
    },
    {
      "midi": 81,
      "hit": false,
      "t": 206817.97500000027,
      "d": 454.5450000000128,
      "v": 127
    },
    {
      "midi": 42,
      "hit": false,
      "t": 206817.9750000013,
      "d": 454.5450000000128,
      "v": 127
    },
    {
      "midi": 54,
      "hit": false,
      "t": 206817.9750000013,
      "d": 454.5450000000128,
      "v": 127
    },
    {
      "midi": 82,
      "hit": false,
      "t": 207272.52000000028,
      "d": 227.27249999999185,
      "v": 127
    },
    {
      "midi": 70,
      "hit": false,
      "t": 207272.52000000028,
      "d": 909.0899999999965,
      "v": 127
    },
    {
      "midi": 75,
      "hit": false,
      "t": 207272.52000000028,
      "d": 909.0899999999965,
      "v": 127
    },
    {
      "midi": 43,
      "hit": false,
      "t": 207272.5200000013,
      "d": 454.5450000000128,
      "v": 127
    },
    {
      "midi": 55,
      "hit": false,
      "t": 207272.5200000013,
      "d": 454.5450000000128,
      "v": 127
    },
    {
      "midi": 79,
      "hit": false,
      "t": 207499.79250000027,
      "d": 227.27249999999185,
      "v": 127
    },
    {
      "midi": 77,
      "hit": false,
      "t": 207727.06500000026,
      "d": 454.5450000000128,
      "v": 127
    },
    {
      "midi": 55,
      "hit": false,
      "t": 207727.0650000013,
      "d": 454.5450000000128,
      "v": 127
    },
    {
      "midi": 58,
      "hit": false,
      "t": 207727.0650000013,
      "d": 454.5450000000128,
      "v": 127
    },
    {
      "midi": 63,
      "hit": false,
      "t": 207727.0650000013,
      "d": 454.5450000000128,
      "v": 127
    },
    {
      "midi": 74,
      "hit": false,
      "t": 208181.61000000028,
      "d": 227.27249999999185,
      "v": 127
    },
    {
      "midi": 77,
      "hit": false,
      "t": 208181.61000000028,
      "d": 227.27249999999185,
      "v": 127
    },
    {
      "midi": 46,
      "hit": false,
      "t": 208181.61000000132,
      "d": 454.5450000000128,
      "v": 127
    },
    {
      "midi": 70,
      "hit": false,
      "t": 208408.88250000027,
      "d": 454.5450000000128,
      "v": 127
    },
    {
      "midi": 74,
      "hit": false,
      "t": 208408.88250000027,
      "d": 454.5450000000128,
      "v": 127
    },
    {
      "midi": 82,
      "hit": false,
      "t": 208408.88250000027,
      "d": 454.5450000000128,
      "v": 127
    },
    {
      "midi": 56,
      "hit": false,
      "t": 208636.15500000134,
      "d": 454.5450000000128,
      "v": 127
    },
    {
      "midi": 58,
      "hit": false,
      "t": 208636.15500000134,
      "d": 454.5450000000128,
      "v": 127
    },
    {
      "midi": 62,
      "hit": false,
      "t": 208636.15500000134,
      "d": 454.5450000000128,
      "v": 127
    },
    {
      "midi": 67,
      "hit": false,
      "t": 208863.42750000028,
      "d": 1363.6350000000093,
      "v": 127
    },
    {
      "midi": 70,
      "hit": false,
      "t": 208863.42750000028,
      "d": 1363.6350000000093,
      "v": 127
    },
    {
      "midi": 75,
      "hit": false,
      "t": 208863.42750000028,
      "d": 1363.6350000000093,
      "v": 127
    },
    {
      "midi": 39,
      "hit": false,
      "t": 209090.70000000135,
      "d": 454.5450000000128,
      "v": 127
    },
    {
      "midi": 51,
      "hit": false,
      "t": 209090.70000000135,
      "d": 454.5450000000128,
      "v": 127
    },
    {
      "midi": 43,
      "hit": false,
      "t": 209545.24500000136,
      "d": 454.5450000000128,
      "v": 127
    },
    {
      "midi": 55,
      "hit": false,
      "t": 209545.24500000136,
      "d": 454.5450000000128,
      "v": 127
    },
    {
      "midi": 46,
      "hit": false,
      "t": 209999.79000000138,
      "d": 454.5450000000128,
      "v": 127
    },
    {
      "midi": 58,
      "hit": false,
      "t": 209999.79000000138,
      "d": 454.5450000000128,
      "v": 127
    },
    {
      "midi": 70,
      "hit": false,
      "t": 210454.33500000028,
      "d": 227.27249999999185,
      "v": 127
    },
    {
      "midi": 43,
      "hit": false,
      "t": 210454.3350000014,
      "d": 227.27249999999185,
      "v": 127
    },
    {
      "midi": 55,
      "hit": false,
      "t": 210454.3350000014,
      "d": 227.27249999999185,
      "v": 127
    },
    {
      "midi": 71,
      "hit": false,
      "t": 210681.60750000027,
      "d": 227.27249999999185,
      "v": 127
    },
    {
      "midi": 42,
      "hit": false,
      "t": 210681.60750000138,
      "d": 227.27249999999185,
      "v": 127
    },
    {
      "midi": 54,
      "hit": false,
      "t": 210681.60750000138,
      "d": 227.27249999999185,
      "v": 127
    },
    {
      "midi": 72,
      "hit": false,
      "t": 210908.88000000027,
      "d": 227.27249999999185,
      "v": 127
    },
    {
      "midi": 41,
      "hit": false,
      "t": 210908.88000000137,
      "d": 454.5450000000128,
      "v": 127
    },
    {
      "midi": 53,
      "hit": false,
      "t": 210908.88000000137,
      "d": 454.5450000000128,
      "v": 127
    },
    {
      "midi": 74,
      "hit": false,
      "t": 211136.15250000026,
      "d": 454.5450000000128,
      "v": 127
    },
    {
      "midi": 80,
      "hit": false,
      "t": 211136.15250000026,
      "d": 454.5450000000128,
      "v": 127
    },
    {
      "midi": 82,
      "hit": false,
      "t": 211136.15250000026,
      "d": 454.5450000000128,
      "v": 127
    },
    {
      "midi": 56,
      "hit": false,
      "t": 211363.42500000139,
      "d": 454.5450000000128,
      "v": 127
    },
    {
      "midi": 58,
      "hit": false,
      "t": 211363.42500000139,
      "d": 454.5450000000128,
      "v": 127
    },
    {
      "midi": 62,
      "hit": false,
      "t": 211363.42500000139,
      "d": 454.5450000000128,
      "v": 127
    },
    {
      "midi": 72,
      "hit": false,
      "t": 211590.69750000027,
      "d": 227.27249999999185,
      "v": 127
    },
    {
      "midi": 74,
      "hit": false,
      "t": 211817.97000000026,
      "d": 454.5450000000128,
      "v": 127
    },
    {
      "midi": 80,
      "hit": false,
      "t": 211817.97000000026,
      "d": 454.5450000000128,
      "v": 127
    },
    {
      "midi": 82,
      "hit": false,
      "t": 211817.97000000026,
      "d": 454.5450000000128,
      "v": 127
    },
    {
      "midi": 34,
      "hit": false,
      "t": 211817.9700000014,
      "d": 454.5450000000128,
      "v": 127
    },
    {
      "midi": 46,
      "hit": false,
      "t": 211817.9700000014,
      "d": 454.5450000000128,
      "v": 127
    },
    {
      "midi": 72,
      "hit": false,
      "t": 212272.51500000028,
      "d": 227.27249999999185,
      "v": 127
    },
    {
      "midi": 56,
      "hit": false,
      "t": 212272.5150000014,
      "d": 454.5450000000128,
      "v": 127
    },
    {
      "midi": 58,
      "hit": false,
      "t": 212272.5150000014,
      "d": 454.5450000000128,
      "v": 127
    },
    {
      "midi": 62,
      "hit": false,
      "t": 212272.5150000014,
      "d": 454.5450000000128,
      "v": 127
    },
    {
      "midi": 74,
      "hit": false,
      "t": 212499.78750000027,
      "d": 454.5450000000128,
      "v": 127
    },
    {
      "midi": 80,
      "hit": false,
      "t": 212499.78750000027,
      "d": 454.5450000000128,
      "v": 127
    },
    {
      "midi": 82,
      "hit": false,
      "t": 212499.78750000027,
      "d": 454.5450000000128,
      "v": 127
    },
    {
      "midi": 41,
      "hit": false,
      "t": 212727.06000000142,
      "d": 454.5450000000128,
      "v": 127
    },
    {
      "midi": 53,
      "hit": false,
      "t": 212727.06000000142,
      "d": 454.5450000000128,
      "v": 127
    },
    {
      "midi": 72,
      "hit": false,
      "t": 212954.33250000028,
      "d": 227.27249999999185,
      "v": 127
    },
    {
      "midi": 74,
      "hit": false,
      "t": 213181.60500000027,
      "d": 227.27249999999185,
      "v": 127
    },
    {
      "midi": 80,
      "hit": false,
      "t": 213181.60500000027,
      "d": 227.27249999999185,
      "v": 127
    },
    {
      "midi": 82,
      "hit": false,
      "t": 213181.60500000027,
      "d": 227.27249999999185,
      "v": 127
    },
    {
      "midi": 56,
      "hit": false,
      "t": 213181.60500000144,
      "d": 454.5450000000128,
      "v": 127
    },
    {
      "midi": 58,
      "hit": false,
      "t": 213181.60500000144,
      "d": 454.5450000000128,
      "v": 127
    },
    {
      "midi": 62,
      "hit": false,
      "t": 213181.60500000144,
      "d": 454.5450000000128,
      "v": 127
    },
    {
      "midi": 84,
      "hit": false,
      "t": 213408.87750000026,
      "d": 227.27249999999185,
      "v": 127
    },
    {
      "midi": 82,
      "hit": false,
      "t": 213636.15000000026,
      "d": 227.27249999999185,
      "v": 127
    },
    {
      "midi": 34,
      "hit": false,
      "t": 213636.15000000145,
      "d": 454.5450000000128,
      "v": 127
    },
    {
      "midi": 46,
      "hit": false,
      "t": 213636.15000000145,
      "d": 454.5450000000128,
      "v": 127
    },
    {
      "midi": 80,
      "hit": false,
      "t": 213863.42250000025,
      "d": 227.27249999999185,
      "v": 127
    },
    {
      "midi": 77,
      "hit": false,
      "t": 214090.69500000024,
      "d": 227.27249999999185,
      "v": 127
    },
    {
      "midi": 56,
      "hit": false,
      "t": 214090.69500000146,
      "d": 454.5450000000128,
      "v": 127
    },
    {
      "midi": 58,
      "hit": false,
      "t": 214090.69500000146,
      "d": 454.5450000000128,
      "v": 127
    },
    {
      "midi": 62,
      "hit": false,
      "t": 214090.69500000146,
      "d": 454.5450000000128,
      "v": 127
    },
    {
      "midi": 74,
      "hit": false,
      "t": 214317.96750000023,
      "d": 227.27249999999185,
      "v": 127
    },
    {
      "midi": 72,
      "hit": false,
      "t": 214545.24000000022,
      "d": 227.27249999999185,
      "v": 127
    },
    {
      "midi": 39,
      "hit": false,
      "t": 214545.24000000147,
      "d": 454.5450000000128,
      "v": 127
    },
    {
      "midi": 51,
      "hit": false,
      "t": 214545.24000000147,
      "d": 454.5450000000128,
      "v": 127
    },
    {
      "midi": 75,
      "hit": false,
      "t": 214772.51250000022,
      "d": 454.5450000000128,
      "v": 127
    },
    {
      "midi": 79,
      "hit": false,
      "t": 214772.51250000022,
      "d": 454.5450000000128,
      "v": 127
    },
    {
      "midi": 82,
      "hit": false,
      "t": 214772.51250000022,
      "d": 454.5450000000128,
      "v": 127
    },
    {
      "midi": 55,
      "hit": false,
      "t": 214999.7850000015,
      "d": 454.5450000000128,
      "v": 127
    },
    {
      "midi": 58,
      "hit": false,
      "t": 214999.7850000015,
      "d": 454.5450000000128,
      "v": 127
    },
    {
      "midi": 63,
      "hit": false,
      "t": 214999.7850000015,
      "d": 454.5450000000128,
      "v": 127
    },
    {
      "midi": 72,
      "hit": false,
      "t": 215227.05750000023,
      "d": 227.27249999999185,
      "v": 127
    },
    {
      "midi": 75,
      "hit": false,
      "t": 215454.33000000022,
      "d": 454.5450000000128,
      "v": 127
    },
    {
      "midi": 79,
      "hit": false,
      "t": 215454.33000000022,
      "d": 454.5450000000128,
      "v": 127
    },
    {
      "midi": 82,
      "hit": false,
      "t": 215454.33000000022,
      "d": 454.5450000000128,
      "v": 127
    },
    {
      "midi": 34,
      "hit": false,
      "t": 215454.3300000015,
      "d": 454.5450000000128,
      "v": 127
    },
    {
      "midi": 46,
      "hit": false,
      "t": 215454.3300000015,
      "d": 454.5450000000128,
      "v": 127
    },
    {
      "midi": 72,
      "hit": false,
      "t": 215908.87500000023,
      "d": 227.27249999999185,
      "v": 127
    },
    {
      "midi": 55,
      "hit": false,
      "t": 215908.8750000015,
      "d": 454.5450000000128,
      "v": 127
    },
    {
      "midi": 58,
      "hit": false,
      "t": 215908.8750000015,
      "d": 454.5450000000128,
      "v": 127
    },
    {
      "midi": 63,
      "hit": false,
      "t": 215908.8750000015,
      "d": 454.5450000000128,
      "v": 127
    },
    {
      "midi": 75,
      "hit": false,
      "t": 216136.14750000022,
      "d": 454.5450000000128,
      "v": 127
    },
    {
      "midi": 79,
      "hit": false,
      "t": 216136.14750000022,
      "d": 454.5450000000128,
      "v": 127
    },
    {
      "midi": 82,
      "hit": false,
      "t": 216136.14750000022,
      "d": 454.5450000000128,
      "v": 127
    },
    {
      "midi": 39,
      "hit": false,
      "t": 216363.42000000153,
      "d": 454.5450000000128,
      "v": 127
    },
    {
      "midi": 51,
      "hit": false,
      "t": 216363.42000000153,
      "d": 454.5450000000128,
      "v": 127
    },
    {
      "midi": 72,
      "hit": false,
      "t": 216590.69250000024,
      "d": 227.27249999999185,
      "v": 127
    },
    {
      "midi": 75,
      "hit": false,
      "t": 216817.96500000023,
      "d": 227.27249999999185,
      "v": 127
    },
    {
      "midi": 79,
      "hit": false,
      "t": 216817.96500000023,
      "d": 227.27249999999185,
      "v": 127
    },
    {
      "midi": 82,
      "hit": false,
      "t": 216817.96500000023,
      "d": 227.27249999999185,
      "v": 127
    },
    {
      "midi": 55,
      "hit": false,
      "t": 216817.96500000154,
      "d": 454.5450000000128,
      "v": 127
    },
    {
      "midi": 58,
      "hit": false,
      "t": 216817.96500000154,
      "d": 454.5450000000128,
      "v": 127
    },
    {
      "midi": 63,
      "hit": false,
      "t": 216817.96500000154,
      "d": 454.5450000000128,
      "v": 127
    },
    {
      "midi": 84,
      "hit": false,
      "t": 217045.23750000022,
      "d": 227.27249999999185,
      "v": 127
    },
    {
      "midi": 82,
      "hit": false,
      "t": 217272.5100000002,
      "d": 227.27249999999185,
      "v": 127
    },
    {
      "midi": 34,
      "hit": false,
      "t": 217272.51000000155,
      "d": 454.5450000000128,
      "v": 127
    },
    {
      "midi": 46,
      "hit": false,
      "t": 217272.51000000155,
      "d": 454.5450000000128,
      "v": 127
    },
    {
      "midi": 79,
      "hit": false,
      "t": 217499.7825000002,
      "d": 227.27249999999185,
      "v": 127
    },
    {
      "midi": 82,
      "hit": false,
      "t": 217727.0550000002,
      "d": 227.27249999999185,
      "v": 127
    },
    {
      "midi": 55,
      "hit": false,
      "t": 217727.05500000156,
      "d": 454.5450000000128,
      "v": 127
    },
    {
      "midi": 58,
      "hit": false,
      "t": 217727.05500000156,
      "d": 454.5450000000128,
      "v": 127
    },
    {
      "midi": 63,
      "hit": false,
      "t": 217727.05500000156,
      "d": 454.5450000000128,
      "v": 127
    },
    {
      "midi": 87,
      "hit": false,
      "t": 217954.3275000002,
      "d": 227.27249999999185,
      "v": 127
    },
    {
      "midi": 77,
      "hit": false,
      "t": 218181.60000000018,
      "d": 227.27249999999185,
      "v": 127
    },
    {
      "midi": 89,
      "hit": false,
      "t": 218181.60000000018,
      "d": 227.27249999999185,
      "v": 127
    },
    {
      "midi": 32,
      "hit": false,
      "t": 218181.60000000158,
      "d": 454.5450000000128,
      "v": 127
    },
    {
      "midi": 44,
      "hit": false,
      "t": 218181.60000000158,
      "d": 454.5450000000128,
      "v": 127
    },
    {
      "midi": 80,
      "hit": false,
      "t": 218408.87250000017,
      "d": 227.27249999999185,
      "v": 127
    },
    {
      "midi": 84,
      "hit": false,
      "t": 218636.14500000016,
      "d": 227.27249999999185,
      "v": 127
    },
    {
      "midi": 56,
      "hit": false,
      "t": 218636.1450000016,
      "d": 454.5450000000128,
      "v": 127
    },
    {
      "midi": 60,
      "hit": false,
      "t": 218636.1450000016,
      "d": 454.5450000000128,
      "v": 127
    },
    {
      "midi": 63,
      "hit": false,
      "t": 218636.1450000016,
      "d": 454.5450000000128,
      "v": 127
    },
    {
      "midi": 65,
      "hit": false,
      "t": 218636.1450000016,
      "d": 454.5450000000128,
      "v": 127
    },
    {
      "midi": 75,
      "hit": false,
      "t": 218863.41750000016,
      "d": 454.5450000000128,
      "v": 127
    },
    {
      "midi": 87,
      "hit": false,
      "t": 218863.41750000016,
      "d": 454.5450000000128,
      "v": 127
    },
    {
      "midi": 33,
      "hit": false,
      "t": 219090.6900000016,
      "d": 454.5450000000128,
      "v": 127
    },
    {
      "midi": 45,
      "hit": false,
      "t": 219090.6900000016,
      "d": 454.5450000000128,
      "v": 127
    },
    {
      "midi": 74,
      "hit": false,
      "t": 219317.96250000017,
      "d": 227.27249999999185,
      "v": 127
    },
    {
      "midi": 86,
      "hit": false,
      "t": 219317.96250000017,
      "d": 227.27249999999185,
      "v": 127
    },
    {
      "midi": 72,
      "hit": false,
      "t": 219545.23500000016,
      "d": 454.5450000000128,
      "v": 127
    },
    {
      "midi": 84,
      "hit": false,
      "t": 219545.23500000016,
      "d": 454.5450000000128,
      "v": 127
    },
    {
      "midi": 57,
      "hit": false,
      "t": 219545.23500000162,
      "d": 454.5450000000128,
      "v": 127
    },
    {
      "midi": 60,
      "hit": false,
      "t": 219545.23500000162,
      "d": 454.5450000000128,
      "v": 127
    },
    {
      "midi": 63,
      "hit": false,
      "t": 219545.23500000162,
      "d": 454.5450000000128,
      "v": 127
    },
    {
      "midi": 66,
      "hit": false,
      "t": 219545.23500000162,
      "d": 454.5450000000128,
      "v": 127
    },
    {
      "midi": 72,
      "hit": false,
      "t": 219999.78000000017,
      "d": 227.27249999999185,
      "v": 127
    },
    {
      "midi": 84,
      "hit": false,
      "t": 219999.78000000017,
      "d": 227.27249999999185,
      "v": 127
    },
    {
      "midi": 34,
      "hit": false,
      "t": 219999.78000000163,
      "d": 454.5450000000128,
      "v": 127
    },
    {
      "midi": 46,
      "hit": false,
      "t": 219999.78000000163,
      "d": 454.5450000000128,
      "v": 127
    },
    {
      "midi": 75,
      "hit": false,
      "t": 220227.05250000017,
      "d": 227.27249999999185,
      "v": 127
    },
    {
      "midi": 79,
      "hit": false,
      "t": 220454.32500000016,
      "d": 227.27249999999185,
      "v": 127
    },
    {
      "midi": 58,
      "hit": false,
      "t": 220454.32500000164,
      "d": 454.5450000000128,
      "v": 127
    },
    {
      "midi": 63,
      "hit": false,
      "t": 220454.32500000164,
      "d": 454.5450000000128,
      "v": 127
    },
    {
      "midi": 67,
      "hit": false,
      "t": 220454.32500000164,
      "d": 454.5450000000128,
      "v": 127
    },
    {
      "midi": 82,
      "hit": false,
      "t": 220681.59750000015,
      "d": 454.5450000000128,
      "v": 127
    },
    {
      "midi": 70,
      "hit": false,
      "t": 220681.59750000015,
      "d": 909.0899999999965,
      "v": 127
    },
    {
      "midi": 76,
      "hit": false,
      "t": 220681.59750000015,
      "d": 909.0899999999965,
      "v": 127
    },
    {
      "midi": 36,
      "hit": false,
      "t": 220908.87000000165,
      "d": 454.5450000000128,
      "v": 127
    },
    {
      "midi": 48,
      "hit": false,
      "t": 220908.87000000165,
      "d": 454.5450000000128,
      "v": 127
    },
    {
      "midi": 80,
      "hit": false,
      "t": 221136.14250000016,
      "d": 227.27249999999185,
      "v": 127
    },
    {
      "midi": 79,
      "hit": false,
      "t": 221363.41500000015,
      "d": 454.5449999999837,
      "v": 127
    },
    {
      "midi": 58,
      "hit": false,
      "t": 221363.41500000167,
      "d": 454.5450000000128,
      "v": 127
    },
    {
      "midi": 60,
      "hit": false,
      "t": 221363.41500000167,
      "d": 454.5450000000128,
      "v": 127
    },
    {
      "midi": 64,
      "hit": false,
      "t": 221363.41500000167,
      "d": 454.5450000000128,
      "v": 127
    },
    {
      "midi": 79,
      "hit": false,
      "t": 221817.96000000014,
      "d": 227.27249999999185,
      "v": 127
    },
    {
      "midi": 75,
      "hit": false,
      "t": 221817.96000000014,
      "d": 454.5449999999837,
      "v": 127
    },
    {
      "midi": 69,
      "hit": false,
      "t": 221817.96000000014,
      "d": 681.8174999999756,
      "v": 127
    },
    {
      "midi": 41,
      "hit": false,
      "t": 221817.96000000168,
      "d": 454.5450000000128,
      "v": 127
    },
    {
      "midi": 53,
      "hit": false,
      "t": 221817.96000000168,
      "d": 454.5450000000128,
      "v": 127
    },
    {
      "midi": 72,
      "hit": false,
      "t": 222045.23250000013,
      "d": 227.27249999999185,
      "v": 127
    },
    {
      "midi": 75,
      "hit": false,
      "t": 222272.50500000012,
      "d": 227.27249999999185,
      "v": 127
    },
    {
      "midi": 53,
      "hit": false,
      "t": 222272.5050000017,
      "d": 454.5450000000128,
      "v": 127
    },
    {
      "midi": 57,
      "hit": false,
      "t": 222272.5050000017,
      "d": 454.5450000000128,
      "v": 127
    },
    {
      "midi": 60,
      "hit": false,
      "t": 222272.5050000017,
      "d": 454.5450000000128,
      "v": 127
    },
    {
      "midi": 63,
      "hit": false,
      "t": 222272.5050000017,
      "d": 454.5450000000128,
      "v": 127
    },
    {
      "midi": 79,
      "hit": false,
      "t": 222499.7775000001,
      "d": 454.5450000000128,
      "v": 127
    },
    {
      "midi": 69,
      "hit": false,
      "t": 222499.7775000001,
      "d": 909.0899999999965,
      "v": 127
    },
    {
      "midi": 75,
      "hit": false,
      "t": 222499.7775000001,
      "d": 909.0899999999965,
      "v": 127
    },
    {
      "midi": 29,
      "hit": false,
      "t": 222727.0500000017,
      "d": 454.5450000000128,
      "v": 127
    },
    {
      "midi": 41,
      "hit": false,
      "t": 222727.0500000017,
      "d": 454.5450000000128,
      "v": 127
    },
    {
      "midi": 72,
      "hit": false,
      "t": 222954.32250000013,
      "d": 227.27249999999185,
      "v": 127
    },
    {
      "midi": 74,
      "hit": false,
      "t": 223181.59500000012,
      "d": 227.27249999999185,
      "v": 127
    },
    {
      "midi": 53,
      "hit": false,
      "t": 223181.59500000172,
      "d": 454.5450000000128,
      "v": 127
    },
    {
      "midi": 57,
      "hit": false,
      "t": 223181.59500000172,
      "d": 454.5450000000128,
      "v": 127
    },
    {
      "midi": 60,
      "hit": false,
      "t": 223181.59500000172,
      "d": 454.5450000000128,
      "v": 127
    },
    {
      "midi": 63,
      "hit": false,
      "t": 223181.59500000172,
      "d": 454.5450000000128,
      "v": 127
    },
    {
      "midi": 75,
      "hit": false,
      "t": 223408.8675000001,
      "d": 227.27249999999185,
      "v": 127
    },
    {
      "midi": 68,
      "hit": false,
      "t": 223636.1400000001,
      "d": 1363.6350000000093,
      "v": 127
    },
    {
      "midi": 74,
      "hit": false,
      "t": 223636.1400000001,
      "d": 1363.6350000000093,
      "v": 127
    },
    {
      "midi": 77,
      "hit": false,
      "t": 223636.1400000001,
      "d": 1363.6350000000093,
      "v": 127
    },
    {
      "midi": 34,
      "hit": false,
      "t": 223636.14000000173,
      "d": 454.5450000000128,
      "v": 127
    },
    {
      "midi": 46,
      "hit": false,
      "t": 223636.14000000173,
      "d": 454.5450000000128,
      "v": 127
    },
    {
      "midi": 38,
      "hit": false,
      "t": 224090.68500000174,
      "d": 227.27249999999185,
      "v": 127
    },
    {
      "midi": 50,
      "hit": false,
      "t": 224090.68500000174,
      "d": 227.27249999999185,
      "v": 127
    },
    {
      "midi": 41,
      "hit": false,
      "t": 224317.95750000174,
      "d": 227.27249999999185,
      "v": 127
    },
    {
      "midi": 53,
      "hit": false,
      "t": 224317.95750000174,
      "d": 227.27249999999185,
      "v": 127
    },
    {
      "midi": 46,
      "hit": false,
      "t": 224545.23000000173,
      "d": 454.5450000000128,
      "v": 127
    },
    {
      "midi": 58,
      "hit": false,
      "t": 224545.23000000173,
      "d": 454.5450000000128,
      "v": 127
    },
    {
      "midi": 70,
      "hit": false,
      "t": 224999.7750000001,
      "d": 227.27249999999185,
      "v": 127
    },
    {
      "midi": 43,
      "hit": false,
      "t": 224999.77500000174,
      "d": 227.27249999999185,
      "v": 127
    },
    {
      "midi": 55,
      "hit": false,
      "t": 224999.77500000174,
      "d": 227.27249999999185,
      "v": 127
    },
    {
      "midi": 71,
      "hit": false,
      "t": 225227.0475000001,
      "d": 227.27249999999185,
      "v": 127
    },
    {
      "midi": 42,
      "hit": false,
      "t": 225227.04750000173,
      "d": 227.27249999999185,
      "v": 127
    },
    {
      "midi": 54,
      "hit": false,
      "t": 225227.04750000173,
      "d": 227.27249999999185,
      "v": 127
    },
    {
      "midi": 72,
      "hit": false,
      "t": 225454.3200000001,
      "d": 227.27249999999185,
      "v": 127
    },
    {
      "midi": 41,
      "hit": false,
      "t": 225454.32000000172,
      "d": 454.5450000000128,
      "v": 127
    },
    {
      "midi": 53,
      "hit": false,
      "t": 225454.32000000172,
      "d": 454.5450000000128,
      "v": 127
    },
    {
      "midi": 74,
      "hit": false,
      "t": 225681.5925000001,
      "d": 454.5450000000128,
      "v": 127
    },
    {
      "midi": 80,
      "hit": false,
      "t": 225681.5925000001,
      "d": 454.5450000000128,
      "v": 127
    },
    {
      "midi": 82,
      "hit": false,
      "t": 225681.5925000001,
      "d": 454.5450000000128,
      "v": 127
    },
    {
      "midi": 56,
      "hit": false,
      "t": 225908.86500000174,
      "d": 454.5450000000128,
      "v": 127
    },
    {
      "midi": 58,
      "hit": false,
      "t": 225908.86500000174,
      "d": 454.5450000000128,
      "v": 127
    },
    {
      "midi": 62,
      "hit": false,
      "t": 225908.86500000174,
      "d": 454.5450000000128,
      "v": 127
    },
    {
      "midi": 72,
      "hit": false,
      "t": 226136.1375000001,
      "d": 227.27249999999185,
      "v": 127
    },
    {
      "midi": 74,
      "hit": false,
      "t": 226363.4100000001,
      "d": 454.5450000000128,
      "v": 127
    },
    {
      "midi": 80,
      "hit": false,
      "t": 226363.4100000001,
      "d": 454.5450000000128,
      "v": 127
    },
    {
      "midi": 82,
      "hit": false,
      "t": 226363.4100000001,
      "d": 454.5450000000128,
      "v": 127
    },
    {
      "midi": 34,
      "hit": false,
      "t": 226363.41000000175,
      "d": 454.5450000000128,
      "v": 127
    },
    {
      "midi": 46,
      "hit": false,
      "t": 226363.41000000175,
      "d": 454.5450000000128,
      "v": 127
    },
    {
      "midi": 72,
      "hit": false,
      "t": 226817.9550000001,
      "d": 227.27249999999185,
      "v": 127
    },
    {
      "midi": 56,
      "hit": false,
      "t": 226817.95500000176,
      "d": 454.5450000000128,
      "v": 127
    },
    {
      "midi": 58,
      "hit": false,
      "t": 226817.95500000176,
      "d": 454.5450000000128,
      "v": 127
    },
    {
      "midi": 62,
      "hit": false,
      "t": 226817.95500000176,
      "d": 454.5450000000128,
      "v": 127
    },
    {
      "midi": 74,
      "hit": false,
      "t": 227045.2275000001,
      "d": 454.5450000000128,
      "v": 127
    },
    {
      "midi": 80,
      "hit": false,
      "t": 227045.2275000001,
      "d": 454.5450000000128,
      "v": 127
    },
    {
      "midi": 82,
      "hit": false,
      "t": 227045.2275000001,
      "d": 454.5450000000128,
      "v": 127
    },
    {
      "midi": 41,
      "hit": false,
      "t": 227272.50000000178,
      "d": 454.5450000000128,
      "v": 127
    },
    {
      "midi": 53,
      "hit": false,
      "t": 227272.50000000178,
      "d": 454.5450000000128,
      "v": 127
    },
    {
      "midi": 72,
      "hit": false,
      "t": 227499.7725000001,
      "d": 227.27249999999185,
      "v": 127
    },
    {
      "midi": 74,
      "hit": false,
      "t": 227727.0450000001,
      "d": 227.27249999999185,
      "v": 127
    },
    {
      "midi": 80,
      "hit": false,
      "t": 227727.0450000001,
      "d": 227.27249999999185,
      "v": 127
    },
    {
      "midi": 82,
      "hit": false,
      "t": 227727.0450000001,
      "d": 227.27249999999185,
      "v": 127
    },
    {
      "midi": 56,
      "hit": false,
      "t": 227727.0450000018,
      "d": 454.5450000000128,
      "v": 127
    },
    {
      "midi": 58,
      "hit": false,
      "t": 227727.0450000018,
      "d": 454.5450000000128,
      "v": 127
    },
    {
      "midi": 62,
      "hit": false,
      "t": 227727.0450000018,
      "d": 454.5450000000128,
      "v": 127
    },
    {
      "midi": 84,
      "hit": false,
      "t": 227954.3175000001,
      "d": 227.27249999999185,
      "v": 127
    },
    {
      "midi": 82,
      "hit": false,
      "t": 228181.59000000008,
      "d": 227.27249999999185,
      "v": 127
    },
    {
      "midi": 34,
      "hit": false,
      "t": 228181.5900000018,
      "d": 454.5450000000128,
      "v": 127
    },
    {
      "midi": 46,
      "hit": false,
      "t": 228181.5900000018,
      "d": 454.5450000000128,
      "v": 127
    },
    {
      "midi": 80,
      "hit": false,
      "t": 228408.86250000008,
      "d": 227.27249999999185,
      "v": 127
    },
    {
      "midi": 77,
      "hit": false,
      "t": 228636.13500000007,
      "d": 227.27249999999185,
      "v": 127
    },
    {
      "midi": 56,
      "hit": false,
      "t": 228636.1350000018,
      "d": 454.5450000000128,
      "v": 127
    },
    {
      "midi": 58,
      "hit": false,
      "t": 228636.1350000018,
      "d": 454.5450000000128,
      "v": 127
    },
    {
      "midi": 62,
      "hit": false,
      "t": 228636.1350000018,
      "d": 454.5450000000128,
      "v": 127
    },
    {
      "midi": 74,
      "hit": false,
      "t": 228863.40750000006,
      "d": 227.27249999999185,
      "v": 127
    },
    {
      "midi": 72,
      "hit": false,
      "t": 229090.68000000005,
      "d": 227.27249999999185,
      "v": 127
    },
    {
      "midi": 39,
      "hit": false,
      "t": 229090.68000000183,
      "d": 454.5450000000128,
      "v": 127
    },
    {
      "midi": 51,
      "hit": false,
      "t": 229090.68000000183,
      "d": 454.5450000000128,
      "v": 127
    },
    {
      "midi": 75,
      "hit": false,
      "t": 229317.95250000004,
      "d": 454.5450000000128,
      "v": 127
    },
    {
      "midi": 79,
      "hit": false,
      "t": 229317.95250000004,
      "d": 454.5450000000128,
      "v": 127
    },
    {
      "midi": 82,
      "hit": false,
      "t": 229317.95250000004,
      "d": 454.5450000000128,
      "v": 127
    },
    {
      "midi": 55,
      "hit": false,
      "t": 229545.22500000184,
      "d": 454.5450000000128,
      "v": 127
    },
    {
      "midi": 58,
      "hit": false,
      "t": 229545.22500000184,
      "d": 454.5450000000128,
      "v": 127
    },
    {
      "midi": 63,
      "hit": false,
      "t": 229545.22500000184,
      "d": 454.5450000000128,
      "v": 127
    },
    {
      "midi": 72,
      "hit": false,
      "t": 229772.49750000006,
      "d": 227.27249999999185,
      "v": 127
    },
    {
      "midi": 75,
      "hit": false,
      "t": 229999.77000000005,
      "d": 454.5450000000128,
      "v": 127
    },
    {
      "midi": 79,
      "hit": false,
      "t": 229999.77000000005,
      "d": 454.5450000000128,
      "v": 127
    },
    {
      "midi": 82,
      "hit": false,
      "t": 229999.77000000005,
      "d": 454.5450000000128,
      "v": 127
    },
    {
      "midi": 34,
      "hit": false,
      "t": 229999.77000000185,
      "d": 454.5450000000128,
      "v": 127
    },
    {
      "midi": 46,
      "hit": false,
      "t": 229999.77000000185,
      "d": 454.5450000000128,
      "v": 127
    },
    {
      "midi": 72,
      "hit": false,
      "t": 230454.31500000006,
      "d": 227.27249999999185,
      "v": 127
    },
    {
      "midi": 55,
      "hit": false,
      "t": 230454.31500000186,
      "d": 454.5450000000128,
      "v": 127
    },
    {
      "midi": 58,
      "hit": false,
      "t": 230454.31500000186,
      "d": 454.5450000000128,
      "v": 127
    },
    {
      "midi": 63,
      "hit": false,
      "t": 230454.31500000186,
      "d": 454.5450000000128,
      "v": 127
    },
    {
      "midi": 75,
      "hit": false,
      "t": 230681.58750000005,
      "d": 454.5450000000128,
      "v": 127
    },
    {
      "midi": 79,
      "hit": false,
      "t": 230681.58750000005,
      "d": 454.5450000000128,
      "v": 127
    },
    {
      "midi": 82,
      "hit": false,
      "t": 230681.58750000005,
      "d": 454.5450000000128,
      "v": 127
    },
    {
      "midi": 39,
      "hit": false,
      "t": 230908.86000000188,
      "d": 454.5450000000128,
      "v": 127
    },
    {
      "midi": 51,
      "hit": false,
      "t": 230908.86000000188,
      "d": 454.5450000000128,
      "v": 127
    },
    {
      "midi": 72,
      "hit": false,
      "t": 231136.13250000007,
      "d": 227.27249999999185,
      "v": 127
    },
    {
      "midi": 75,
      "hit": false,
      "t": 231363.40500000006,
      "d": 227.27249999999185,
      "v": 127
    },
    {
      "midi": 79,
      "hit": false,
      "t": 231363.40500000006,
      "d": 227.27249999999185,
      "v": 127
    },
    {
      "midi": 82,
      "hit": false,
      "t": 231363.40500000006,
      "d": 227.27249999999185,
      "v": 127
    },
    {
      "midi": 55,
      "hit": false,
      "t": 231363.4050000019,
      "d": 454.5450000000128,
      "v": 127
    },
    {
      "midi": 58,
      "hit": false,
      "t": 231363.4050000019,
      "d": 454.5450000000128,
      "v": 127
    },
    {
      "midi": 63,
      "hit": false,
      "t": 231363.4050000019,
      "d": 454.5450000000128,
      "v": 127
    },
    {
      "midi": 84,
      "hit": false,
      "t": 231590.67750000005,
      "d": 227.27249999999185,
      "v": 127
    },
    {
      "midi": 82,
      "hit": false,
      "t": 231817.95000000004,
      "d": 227.27249999999185,
      "v": 127
    },
    {
      "midi": 34,
      "hit": false,
      "t": 231817.9500000019,
      "d": 454.5450000000128,
      "v": 127
    },
    {
      "midi": 46,
      "hit": false,
      "t": 231817.9500000019,
      "d": 454.5450000000128,
      "v": 127
    },
    {
      "midi": 79,
      "hit": false,
      "t": 232045.22250000003,
      "d": 227.27249999999185,
      "v": 127
    },
    {
      "midi": 82,
      "hit": false,
      "t": 232272.49500000002,
      "d": 227.27249999999185,
      "v": 127
    },
    {
      "midi": 55,
      "hit": false,
      "t": 232272.49500000192,
      "d": 454.5450000000128,
      "v": 127
    },
    {
      "midi": 58,
      "hit": false,
      "t": 232272.49500000192,
      "d": 454.5450000000128,
      "v": 127
    },
    {
      "midi": 63,
      "hit": false,
      "t": 232272.49500000192,
      "d": 454.5450000000128,
      "v": 127
    },
    {
      "midi": 87,
      "hit": false,
      "t": 232499.76750000002,
      "d": 227.27249999999185,
      "v": 127
    },
    {
      "midi": 77,
      "hit": false,
      "t": 232727.04,
      "d": 227.27249999999185,
      "v": 127
    },
    {
      "midi": 89,
      "hit": false,
      "t": 232727.04,
      "d": 227.27249999999185,
      "v": 127
    },
    {
      "midi": 32,
      "hit": false,
      "t": 232727.04000000193,
      "d": 454.5450000000128,
      "v": 127
    },
    {
      "midi": 44,
      "hit": false,
      "t": 232727.04000000193,
      "d": 454.5450000000128,
      "v": 127
    },
    {
      "midi": 80,
      "hit": false,
      "t": 232954.3125,
      "d": 227.27249999999185,
      "v": 127
    },
    {
      "midi": 84,
      "hit": false,
      "t": 233181.585,
      "d": 227.27249999999185,
      "v": 127
    },
    {
      "midi": 56,
      "hit": false,
      "t": 233181.58500000194,
      "d": 454.5450000000128,
      "v": 127
    },
    {
      "midi": 60,
      "hit": false,
      "t": 233181.58500000194,
      "d": 454.5450000000128,
      "v": 127
    },
    {
      "midi": 63,
      "hit": false,
      "t": 233181.58500000194,
      "d": 454.5450000000128,
      "v": 127
    },
    {
      "midi": 65,
      "hit": false,
      "t": 233181.58500000194,
      "d": 454.5450000000128,
      "v": 127
    },
    {
      "midi": 75,
      "hit": false,
      "t": 233408.85749999998,
      "d": 454.5450000000128,
      "v": 127
    },
    {
      "midi": 87,
      "hit": false,
      "t": 233408.85749999998,
      "d": 454.5450000000128,
      "v": 127
    },
    {
      "midi": 33,
      "hit": false,
      "t": 233636.13000000195,
      "d": 454.5450000000128,
      "v": 127
    },
    {
      "midi": 45,
      "hit": false,
      "t": 233636.13000000195,
      "d": 454.5450000000128,
      "v": 127
    },
    {
      "midi": 74,
      "hit": false,
      "t": 233863.4025,
      "d": 227.27249999999185,
      "v": 127
    },
    {
      "midi": 86,
      "hit": false,
      "t": 233863.4025,
      "d": 227.27249999999185,
      "v": 127
    },
    {
      "midi": 72,
      "hit": false,
      "t": 234090.675,
      "d": 454.5450000000128,
      "v": 127
    },
    {
      "midi": 84,
      "hit": false,
      "t": 234090.675,
      "d": 454.5450000000128,
      "v": 127
    },
    {
      "midi": 57,
      "hit": false,
      "t": 234090.67500000197,
      "d": 454.5450000000128,
      "v": 127
    },
    {
      "midi": 60,
      "hit": false,
      "t": 234090.67500000197,
      "d": 454.5450000000128,
      "v": 127
    },
    {
      "midi": 63,
      "hit": false,
      "t": 234090.67500000197,
      "d": 454.5450000000128,
      "v": 127
    },
    {
      "midi": 66,
      "hit": false,
      "t": 234090.67500000197,
      "d": 454.5450000000128,
      "v": 127
    },
    {
      "midi": 72,
      "hit": false,
      "t": 234545.22,
      "d": 227.27249999999185,
      "v": 127
    },
    {
      "midi": 84,
      "hit": false,
      "t": 234545.22,
      "d": 227.27249999999185,
      "v": 127
    },
    {
      "midi": 34,
      "hit": false,
      "t": 234545.22000000198,
      "d": 454.5450000000128,
      "v": 127
    },
    {
      "midi": 46,
      "hit": false,
      "t": 234545.22000000198,
      "d": 454.5450000000128,
      "v": 127
    },
    {
      "midi": 75,
      "hit": false,
      "t": 234772.4925,
      "d": 227.27249999999185,
      "v": 127
    },
    {
      "midi": 79,
      "hit": false,
      "t": 234999.76499999998,
      "d": 227.27249999999185,
      "v": 127
    },
    {
      "midi": 58,
      "hit": false,
      "t": 234999.765000002,
      "d": 454.5450000000128,
      "v": 127
    },
    {
      "midi": 63,
      "hit": false,
      "t": 234999.765000002,
      "d": 454.5450000000128,
      "v": 127
    },
    {
      "midi": 67,
      "hit": false,
      "t": 234999.765000002,
      "d": 454.5450000000128,
      "v": 127
    },
    {
      "midi": 82,
      "hit": false,
      "t": 235227.03749999998,
      "d": 454.5450000000128,
      "v": 127
    },
    {
      "midi": 70,
      "hit": false,
      "t": 235227.03749999998,
      "d": 909.0899999999965,
      "v": 127
    },
    {
      "midi": 76,
      "hit": false,
      "t": 235227.03749999998,
      "d": 909.0899999999965,
      "v": 127
    },
    {
      "midi": 36,
      "hit": false,
      "t": 235454.310000002,
      "d": 454.5450000000128,
      "v": 127
    },
    {
      "midi": 48,
      "hit": false,
      "t": 235454.310000002,
      "d": 454.5450000000128,
      "v": 127
    },
    {
      "midi": 80,
      "hit": false,
      "t": 235681.5825,
      "d": 227.27249999999185,
      "v": 127
    },
    {
      "midi": 79,
      "hit": false,
      "t": 235908.85499999998,
      "d": 454.5449999999837,
      "v": 127
    },
    {
      "midi": 58,
      "hit": false,
      "t": 235908.85500000202,
      "d": 454.5450000000128,
      "v": 127
    },
    {
      "midi": 60,
      "hit": false,
      "t": 235908.85500000202,
      "d": 454.5450000000128,
      "v": 127
    },
    {
      "midi": 64,
      "hit": false,
      "t": 235908.85500000202,
      "d": 454.5450000000128,
      "v": 127
    },
    {
      "midi": 79,
      "hit": false,
      "t": 236363.39999999997,
      "d": 227.27249999999185,
      "v": 127
    },
    {
      "midi": 69,
      "hit": false,
      "t": 236363.39999999997,
      "d": 681.8174999999756,
      "v": 127
    },
    {
      "midi": 75,
      "hit": false,
      "t": 236363.39999999997,
      "d": 681.8174999999756,
      "v": 127
    },
    {
      "midi": 41,
      "hit": false,
      "t": 236363.40000000203,
      "d": 454.5450000000128,
      "v": 127
    },
    {
      "midi": 53,
      "hit": false,
      "t": 236363.40000000203,
      "d": 454.5450000000128,
      "v": 127
    },
    {
      "midi": 72,
      "hit": false,
      "t": 236590.67249999996,
      "d": 227.27249999999185,
      "v": 127
    },
    {
      "midi": 74,
      "hit": false,
      "t": 236817.94499999995,
      "d": 227.27249999999185,
      "v": 127
    },
    {
      "midi": 53,
      "hit": false,
      "t": 236817.94500000204,
      "d": 454.5450000000128,
      "v": 127
    },
    {
      "midi": 57,
      "hit": false,
      "t": 236817.94500000204,
      "d": 454.5450000000128,
      "v": 127
    },
    {
      "midi": 60,
      "hit": false,
      "t": 236817.94500000204,
      "d": 454.5450000000128,
      "v": 127
    },
    {
      "midi": 63,
      "hit": false,
      "t": 236817.94500000204,
      "d": 454.5450000000128,
      "v": 127
    },
    {
      "midi": 75,
      "hit": false,
      "t": 237045.21749999994,
      "d": 454.5450000000128,
      "v": 127
    },
    {
      "midi": 69,
      "hit": false,
      "t": 237045.21749999994,
      "d": 909.0899999999965,
      "v": 127
    },
    {
      "midi": 36,
      "hit": false,
      "t": 237272.49000000206,
      "d": 454.5450000000128,
      "v": 127
    },
    {
      "midi": 48,
      "hit": false,
      "t": 237272.49000000206,
      "d": 454.5450000000128,
      "v": 127
    },
    {
      "midi": 75,
      "hit": false,
      "t": 237499.76249999995,
      "d": 227.27249999999185,
      "v": 127
    },
    {
      "midi": 74,
      "hit": false,
      "t": 237727.03499999995,
      "d": 454.5449999999837,
      "v": 127
    },
    {
      "midi": 77,
      "hit": false,
      "t": 237727.03499999995,
      "d": 454.5449999999837,
      "v": 127
    },
    {
      "midi": 34,
      "hit": false,
      "t": 237727.03500000207,
      "d": 454.5450000000128,
      "v": 127
    },
    {
      "midi": 46,
      "hit": false,
      "t": 237727.03500000207,
      "d": 454.5450000000128,
      "v": 127
    },
    {
      "midi": 67,
      "hit": false,
      "t": 238181.57999999993,
      "d": 1363.6350000000093,
      "v": 127
    },
    {
      "midi": 70,
      "hit": false,
      "t": 238181.57999999993,
      "d": 1363.6350000000093,
      "v": 127
    },
    {
      "midi": 75,
      "hit": false,
      "t": 238181.57999999993,
      "d": 1363.6350000000093,
      "v": 127
    },
    {
      "midi": 39,
      "hit": false,
      "t": 238181.58000000208,
      "d": 454.5450000000128,
      "v": 127
    },
    {
      "midi": 51,
      "hit": false,
      "t": 238181.58000000208,
      "d": 454.5450000000128,
      "v": 127
    },
    {
      "midi": 43,
      "hit": false,
      "t": 238636.1250000021,
      "d": 454.5450000000128,
      "v": 127
    },
    {
      "midi": 55,
      "hit": false,
      "t": 238636.1250000021,
      "d": 454.5450000000128,
      "v": 127
    },
    {
      "midi": 46,
      "hit": false,
      "t": 239090.6700000021,
      "d": 454.5450000000128,
      "v": 127
    },
    {
      "midi": 58,
      "hit": false,
      "t": 239090.6700000021,
      "d": 454.5450000000128,
      "v": 127
    },
    {
      "midi": 70,
      "hit": false,
      "t": 239545.21499999994,
      "d": 227.27249999999185,
      "v": 127
    },
    {
      "midi": 43,
      "hit": false,
      "t": 239545.21500000212,
      "d": 227.27249999999185,
      "v": 127
    },
    {
      "midi": 55,
      "hit": false,
      "t": 239545.21500000212,
      "d": 227.27249999999185,
      "v": 127
    },
    {
      "midi": 71,
      "hit": false,
      "t": 239772.48749999993,
      "d": 227.27249999999185,
      "v": 127
    },
    {
      "midi": 42,
      "hit": false,
      "t": 239772.4875000021,
      "d": 227.27249999999185,
      "v": 127
    },
    {
      "midi": 54,
      "hit": false,
      "t": 239772.4875000021,
      "d": 227.27249999999185,
      "v": 127
    },
    {
      "midi": 72,
      "hit": false,
      "t": 239999.75999999992,
      "d": 227.27249999999185,
      "v": 127
    },
    {
      "midi": 41,
      "hit": false,
      "t": 239999.7600000021,
      "d": 454.5450000000128,
      "v": 127
    },
    {
      "midi": 53,
      "hit": false,
      "t": 239999.7600000021,
      "d": 454.5450000000128,
      "v": 127
    },
    {
      "midi": 74,
      "hit": false,
      "t": 240227.0324999999,
      "d": 454.5450000000128,
      "v": 127
    },
    {
      "midi": 80,
      "hit": false,
      "t": 240227.0324999999,
      "d": 454.5450000000128,
      "v": 127
    },
    {
      "midi": 82,
      "hit": false,
      "t": 240227.0324999999,
      "d": 454.5450000000128,
      "v": 127
    },
    {
      "midi": 56,
      "hit": false,
      "t": 240454.30500000212,
      "d": 454.5450000000128,
      "v": 127
    },
    {
      "midi": 58,
      "hit": false,
      "t": 240454.30500000212,
      "d": 454.5450000000128,
      "v": 127
    },
    {
      "midi": 62,
      "hit": false,
      "t": 240454.30500000212,
      "d": 454.5450000000128,
      "v": 127
    },
    {
      "midi": 72,
      "hit": false,
      "t": 240681.57749999993,
      "d": 227.27249999999185,
      "v": 127
    },
    {
      "midi": 74,
      "hit": false,
      "t": 240908.84999999992,
      "d": 454.5450000000128,
      "v": 127
    },
    {
      "midi": 80,
      "hit": false,
      "t": 240908.84999999992,
      "d": 454.5450000000128,
      "v": 127
    },
    {
      "midi": 82,
      "hit": false,
      "t": 240908.84999999992,
      "d": 454.5450000000128,
      "v": 127
    },
    {
      "midi": 34,
      "hit": false,
      "t": 240908.85000000213,
      "d": 454.5450000000128,
      "v": 127
    },
    {
      "midi": 46,
      "hit": false,
      "t": 240908.85000000213,
      "d": 454.5450000000128,
      "v": 127
    },
    {
      "midi": 72,
      "hit": false,
      "t": 241363.39499999993,
      "d": 227.27249999999185,
      "v": 127
    },
    {
      "midi": 56,
      "hit": false,
      "t": 241363.39500000214,
      "d": 454.5450000000128,
      "v": 127
    },
    {
      "midi": 58,
      "hit": false,
      "t": 241363.39500000214,
      "d": 454.5450000000128,
      "v": 127
    },
    {
      "midi": 62,
      "hit": false,
      "t": 241363.39500000214,
      "d": 454.5450000000128,
      "v": 127
    },
    {
      "midi": 74,
      "hit": false,
      "t": 241590.66749999992,
      "d": 454.5450000000128,
      "v": 127
    },
    {
      "midi": 80,
      "hit": false,
      "t": 241590.66749999992,
      "d": 454.5450000000128,
      "v": 127
    },
    {
      "midi": 82,
      "hit": false,
      "t": 241590.66749999992,
      "d": 454.5450000000128,
      "v": 127
    },
    {
      "midi": 41,
      "hit": false,
      "t": 241817.94000000216,
      "d": 454.5450000000128,
      "v": 127
    },
    {
      "midi": 53,
      "hit": false,
      "t": 241817.94000000216,
      "d": 454.5450000000128,
      "v": 127
    },
    {
      "midi": 72,
      "hit": false,
      "t": 242045.21249999994,
      "d": 227.27249999999185,
      "v": 127
    },
    {
      "midi": 74,
      "hit": false,
      "t": 242272.48499999993,
      "d": 227.27249999999185,
      "v": 127
    },
    {
      "midi": 80,
      "hit": false,
      "t": 242272.48499999993,
      "d": 227.27249999999185,
      "v": 127
    },
    {
      "midi": 82,
      "hit": false,
      "t": 242272.48499999993,
      "d": 227.27249999999185,
      "v": 127
    },
    {
      "midi": 56,
      "hit": false,
      "t": 242272.48500000217,
      "d": 454.5450000000128,
      "v": 127
    },
    {
      "midi": 58,
      "hit": false,
      "t": 242272.48500000217,
      "d": 454.5450000000128,
      "v": 127
    },
    {
      "midi": 62,
      "hit": false,
      "t": 242272.48500000217,
      "d": 454.5450000000128,
      "v": 127
    },
    {
      "midi": 84,
      "hit": false,
      "t": 242499.75749999992,
      "d": 227.27249999999185,
      "v": 127
    },
    {
      "midi": 82,
      "hit": false,
      "t": 242727.0299999999,
      "d": 227.27249999999185,
      "v": 127
    },
    {
      "midi": 34,
      "hit": false,
      "t": 242727.03000000218,
      "d": 454.5450000000128,
      "v": 127
    },
    {
      "midi": 46,
      "hit": false,
      "t": 242727.03000000218,
      "d": 454.5450000000128,
      "v": 127
    },
    {
      "midi": 80,
      "hit": false,
      "t": 242954.3024999999,
      "d": 227.27249999999185,
      "v": 127
    },
    {
      "midi": 77,
      "hit": false,
      "t": 243181.5749999999,
      "d": 227.27249999999185,
      "v": 127
    },
    {
      "midi": 56,
      "hit": false,
      "t": 243181.5750000022,
      "d": 454.5450000000128,
      "v": 127
    },
    {
      "midi": 58,
      "hit": false,
      "t": 243181.5750000022,
      "d": 454.5450000000128,
      "v": 127
    },
    {
      "midi": 62,
      "hit": false,
      "t": 243181.5750000022,
      "d": 454.5450000000128,
      "v": 127
    },
    {
      "midi": 74,
      "hit": false,
      "t": 243408.8474999999,
      "d": 227.27249999999185,
      "v": 127
    },
    {
      "midi": 72,
      "hit": false,
      "t": 243636.11999999988,
      "d": 227.27249999999185,
      "v": 127
    },
    {
      "midi": 39,
      "hit": false,
      "t": 243636.1200000022,
      "d": 454.5450000000128,
      "v": 127
    },
    {
      "midi": 51,
      "hit": false,
      "t": 243636.1200000022,
      "d": 454.5450000000128,
      "v": 127
    },
    {
      "midi": 75,
      "hit": false,
      "t": 243863.39249999987,
      "d": 454.5450000000128,
      "v": 127
    },
    {
      "midi": 79,
      "hit": false,
      "t": 243863.39249999987,
      "d": 454.5450000000128,
      "v": 127
    },
    {
      "midi": 82,
      "hit": false,
      "t": 243863.39249999987,
      "d": 454.5450000000128,
      "v": 127
    },
    {
      "midi": 55,
      "hit": false,
      "t": 244090.66500000222,
      "d": 454.5450000000128,
      "v": 127
    },
    {
      "midi": 58,
      "hit": false,
      "t": 244090.66500000222,
      "d": 454.5450000000128,
      "v": 127
    },
    {
      "midi": 63,
      "hit": false,
      "t": 244090.66500000222,
      "d": 454.5450000000128,
      "v": 127
    },
    {
      "midi": 72,
      "hit": false,
      "t": 244317.93749999988,
      "d": 227.27249999999185,
      "v": 127
    },
    {
      "midi": 75,
      "hit": false,
      "t": 244545.20999999988,
      "d": 454.5450000000128,
      "v": 127
    },
    {
      "midi": 79,
      "hit": false,
      "t": 244545.20999999988,
      "d": 454.5450000000128,
      "v": 127
    },
    {
      "midi": 82,
      "hit": false,
      "t": 244545.20999999988,
      "d": 454.5450000000128,
      "v": 127
    },
    {
      "midi": 34,
      "hit": false,
      "t": 244545.21000000223,
      "d": 454.5450000000128,
      "v": 127
    },
    {
      "midi": 46,
      "hit": false,
      "t": 244545.21000000223,
      "d": 454.5450000000128,
      "v": 127
    },
    {
      "midi": 72,
      "hit": false,
      "t": 244999.7549999999,
      "d": 227.27249999999185,
      "v": 127
    },
    {
      "midi": 55,
      "hit": false,
      "t": 244999.75500000225,
      "d": 454.5450000000128,
      "v": 127
    },
    {
      "midi": 58,
      "hit": false,
      "t": 244999.75500000225,
      "d": 454.5450000000128,
      "v": 127
    },
    {
      "midi": 63,
      "hit": false,
      "t": 244999.75500000225,
      "d": 454.5450000000128,
      "v": 127
    },
    {
      "midi": 75,
      "hit": false,
      "t": 245227.02749999988,
      "d": 454.5450000000128,
      "v": 127
    },
    {
      "midi": 79,
      "hit": false,
      "t": 245227.02749999988,
      "d": 454.5450000000128,
      "v": 127
    },
    {
      "midi": 82,
      "hit": false,
      "t": 245227.02749999988,
      "d": 454.5450000000128,
      "v": 127
    },
    {
      "midi": 39,
      "hit": false,
      "t": 245454.30000000226,
      "d": 454.5450000000128,
      "v": 127
    },
    {
      "midi": 51,
      "hit": false,
      "t": 245454.30000000226,
      "d": 454.5450000000128,
      "v": 127
    },
    {
      "midi": 72,
      "hit": false,
      "t": 245681.5724999999,
      "d": 227.27249999999185,
      "v": 127
    },
    {
      "midi": 75,
      "hit": false,
      "t": 245908.84499999988,
      "d": 227.27249999999185,
      "v": 127
    },
    {
      "midi": 79,
      "hit": false,
      "t": 245908.84499999988,
      "d": 227.27249999999185,
      "v": 127
    },
    {
      "midi": 82,
      "hit": false,
      "t": 245908.84499999988,
      "d": 227.27249999999185,
      "v": 127
    },
    {
      "midi": 55,
      "hit": false,
      "t": 245908.84500000227,
      "d": 454.5450000000128,
      "v": 127
    },
    {
      "midi": 58,
      "hit": false,
      "t": 245908.84500000227,
      "d": 454.5450000000128,
      "v": 127
    },
    {
      "midi": 63,
      "hit": false,
      "t": 245908.84500000227,
      "d": 454.5450000000128,
      "v": 127
    },
    {
      "midi": 84,
      "hit": false,
      "t": 246136.11749999988,
      "d": 227.27249999999185,
      "v": 127
    },
    {
      "midi": 82,
      "hit": false,
      "t": 246363.38999999987,
      "d": 227.27249999999185,
      "v": 127
    },
    {
      "midi": 34,
      "hit": false,
      "t": 246363.39000000228,
      "d": 454.5450000000128,
      "v": 127
    },
    {
      "midi": 46,
      "hit": false,
      "t": 246363.39000000228,
      "d": 454.5450000000128,
      "v": 127
    },
    {
      "midi": 79,
      "hit": false,
      "t": 246590.66249999986,
      "d": 227.27249999999185,
      "v": 127
    },
    {
      "midi": 82,
      "hit": false,
      "t": 246817.93499999985,
      "d": 227.27249999999185,
      "v": 127
    },
    {
      "midi": 55,
      "hit": false,
      "t": 246817.9350000023,
      "d": 454.5450000000128,
      "v": 127
    },
    {
      "midi": 58,
      "hit": false,
      "t": 246817.9350000023,
      "d": 454.5450000000128,
      "v": 127
    },
    {
      "midi": 63,
      "hit": false,
      "t": 246817.9350000023,
      "d": 454.5450000000128,
      "v": 127
    },
    {
      "midi": 87,
      "hit": false,
      "t": 247045.20749999984,
      "d": 227.27249999999185,
      "v": 127
    },
    {
      "midi": 77,
      "hit": false,
      "t": 247272.47999999984,
      "d": 227.27249999999185,
      "v": 127
    },
    {
      "midi": 89,
      "hit": false,
      "t": 247272.47999999984,
      "d": 227.27249999999185,
      "v": 127
    },
    {
      "midi": 32,
      "hit": false,
      "t": 247272.4800000023,
      "d": 454.5450000000128,
      "v": 127
    },
    {
      "midi": 44,
      "hit": false,
      "t": 247272.4800000023,
      "d": 454.5450000000128,
      "v": 127
    },
    {
      "midi": 80,
      "hit": false,
      "t": 247499.75249999983,
      "d": 227.27249999999185,
      "v": 127
    },
    {
      "midi": 84,
      "hit": false,
      "t": 247727.02499999982,
      "d": 227.27249999999185,
      "v": 127
    },
    {
      "midi": 56,
      "hit": false,
      "t": 247727.02500000232,
      "d": 454.5450000000128,
      "v": 127
    },
    {
      "midi": 60,
      "hit": false,
      "t": 247727.02500000232,
      "d": 454.5450000000128,
      "v": 127
    },
    {
      "midi": 63,
      "hit": false,
      "t": 247727.02500000232,
      "d": 454.5450000000128,
      "v": 127
    },
    {
      "midi": 65,
      "hit": false,
      "t": 247727.02500000232,
      "d": 454.5450000000128,
      "v": 127
    },
    {
      "midi": 75,
      "hit": false,
      "t": 247954.2974999998,
      "d": 454.5450000000128,
      "v": 127
    },
    {
      "midi": 87,
      "hit": false,
      "t": 247954.2974999998,
      "d": 454.5450000000128,
      "v": 127
    },
    {
      "midi": 33,
      "hit": false,
      "t": 248181.57000000234,
      "d": 454.5450000000128,
      "v": 127
    },
    {
      "midi": 45,
      "hit": false,
      "t": 248181.57000000234,
      "d": 454.5450000000128,
      "v": 127
    },
    {
      "midi": 74,
      "hit": false,
      "t": 248408.84249999982,
      "d": 227.27249999999185,
      "v": 127
    },
    {
      "midi": 86,
      "hit": false,
      "t": 248408.84249999982,
      "d": 227.27249999999185,
      "v": 127
    },
    {
      "midi": 72,
      "hit": false,
      "t": 248636.11499999982,
      "d": 454.5450000000128,
      "v": 127
    },
    {
      "midi": 84,
      "hit": false,
      "t": 248636.11499999982,
      "d": 454.5450000000128,
      "v": 127
    },
    {
      "midi": 57,
      "hit": false,
      "t": 248636.11500000235,
      "d": 454.5450000000128,
      "v": 127
    },
    {
      "midi": 60,
      "hit": false,
      "t": 248636.11500000235,
      "d": 454.5450000000128,
      "v": 127
    },
    {
      "midi": 63,
      "hit": false,
      "t": 248636.11500000235,
      "d": 454.5450000000128,
      "v": 127
    },
    {
      "midi": 66,
      "hit": false,
      "t": 248636.11500000235,
      "d": 454.5450000000128,
      "v": 127
    },
    {
      "midi": 72,
      "hit": false,
      "t": 249090.65999999983,
      "d": 227.27249999999185,
      "v": 127
    },
    {
      "midi": 84,
      "hit": false,
      "t": 249090.65999999983,
      "d": 227.27249999999185,
      "v": 127
    },
    {
      "midi": 34,
      "hit": false,
      "t": 249090.66000000236,
      "d": 454.5450000000128,
      "v": 127
    },
    {
      "midi": 46,
      "hit": false,
      "t": 249090.66000000236,
      "d": 454.5450000000128,
      "v": 127
    },
    {
      "midi": 75,
      "hit": false,
      "t": 249317.93249999982,
      "d": 227.27249999999185,
      "v": 127
    },
    {
      "midi": 79,
      "hit": false,
      "t": 249545.2049999998,
      "d": 227.27249999999185,
      "v": 127
    },
    {
      "midi": 58,
      "hit": false,
      "t": 249545.20500000237,
      "d": 454.5450000000128,
      "v": 127
    },
    {
      "midi": 63,
      "hit": false,
      "t": 249545.20500000237,
      "d": 454.5450000000128,
      "v": 127
    },
    {
      "midi": 67,
      "hit": false,
      "t": 249545.20500000237,
      "d": 454.5450000000128,
      "v": 127
    },
    {
      "midi": 82,
      "hit": false,
      "t": 249772.4774999998,
      "d": 454.5450000000128,
      "v": 127
    },
    {
      "midi": 70,
      "hit": false,
      "t": 249772.4774999998,
      "d": 909.0899999999965,
      "v": 127
    },
    {
      "midi": 76,
      "hit": false,
      "t": 249772.4774999998,
      "d": 909.0899999999965,
      "v": 127
    },
    {
      "midi": 36,
      "hit": false,
      "t": 249999.7500000024,
      "d": 454.5450000000128,
      "v": 127
    },
    {
      "midi": 48,
      "hit": false,
      "t": 249999.7500000024,
      "d": 454.5450000000128,
      "v": 127
    },
    {
      "midi": 80,
      "hit": false,
      "t": 250227.02249999982,
      "d": 227.27249999999185,
      "v": 127
    },
    {
      "midi": 79,
      "hit": false,
      "t": 250454.2949999998,
      "d": 454.5449999999837,
      "v": 127
    },
    {
      "midi": 58,
      "hit": false,
      "t": 250454.2950000024,
      "d": 454.5450000000128,
      "v": 127
    },
    {
      "midi": 60,
      "hit": false,
      "t": 250454.2950000024,
      "d": 454.5450000000128,
      "v": 127
    },
    {
      "midi": 64,
      "hit": false,
      "t": 250454.2950000024,
      "d": 454.5450000000128,
      "v": 127
    },
    {
      "midi": 79,
      "hit": false,
      "t": 250908.8399999998,
      "d": 227.27249999999185,
      "v": 127
    },
    {
      "midi": 75,
      "hit": false,
      "t": 250908.8399999998,
      "d": 454.5449999999837,
      "v": 127
    },
    {
      "midi": 69,
      "hit": false,
      "t": 250908.8399999998,
      "d": 681.8174999999756,
      "v": 127
    },
    {
      "midi": 41,
      "hit": false,
      "t": 250908.8400000024,
      "d": 454.5450000000128,
      "v": 127
    },
    {
      "midi": 53,
      "hit": false,
      "t": 250908.8400000024,
      "d": 454.5450000000128,
      "v": 127
    },
    {
      "midi": 72,
      "hit": false,
      "t": 251136.11249999978,
      "d": 227.27249999999185,
      "v": 127
    },
    {
      "midi": 75,
      "hit": false,
      "t": 251363.38499999978,
      "d": 227.27249999999185,
      "v": 127
    },
    {
      "midi": 53,
      "hit": false,
      "t": 251363.38500000242,
      "d": 454.5450000000128,
      "v": 127
    },
    {
      "midi": 57,
      "hit": false,
      "t": 251363.38500000242,
      "d": 454.5450000000128,
      "v": 127
    },
    {
      "midi": 60,
      "hit": false,
      "t": 251363.38500000242,
      "d": 454.5450000000128,
      "v": 127
    },
    {
      "midi": 63,
      "hit": false,
      "t": 251363.38500000242,
      "d": 454.5450000000128,
      "v": 127
    },
    {
      "midi": 79,
      "hit": false,
      "t": 251590.65749999977,
      "d": 454.5450000000128,
      "v": 127
    },
    {
      "midi": 69,
      "hit": false,
      "t": 251590.65749999977,
      "d": 909.0899999999965,
      "v": 127
    },
    {
      "midi": 75,
      "hit": false,
      "t": 251590.65749999977,
      "d": 909.0899999999965,
      "v": 127
    },
    {
      "midi": 29,
      "hit": false,
      "t": 251817.93000000244,
      "d": 454.5450000000128,
      "v": 127
    },
    {
      "midi": 41,
      "hit": false,
      "t": 251817.93000000244,
      "d": 454.5450000000128,
      "v": 127
    },
    {
      "midi": 72,
      "hit": false,
      "t": 252045.20249999978,
      "d": 227.27249999999185,
      "v": 127
    },
    {
      "midi": 74,
      "hit": false,
      "t": 252272.47499999977,
      "d": 227.27249999999185,
      "v": 127
    },
    {
      "midi": 53,
      "hit": false,
      "t": 252272.47500000245,
      "d": 454.5450000000128,
      "v": 127
    },
    {
      "midi": 57,
      "hit": false,
      "t": 252272.47500000245,
      "d": 454.5450000000128,
      "v": 127
    },
    {
      "midi": 60,
      "hit": false,
      "t": 252272.47500000245,
      "d": 454.5450000000128,
      "v": 127
    },
    {
      "midi": 63,
      "hit": false,
      "t": 252272.47500000245,
      "d": 454.5450000000128,
      "v": 127
    },
    {
      "midi": 75,
      "hit": false,
      "t": 252499.74749999976,
      "d": 227.27249999999185,
      "v": 127
    },
    {
      "midi": 68,
      "hit": false,
      "t": 252727.01999999976,
      "d": 1363.6350000000093,
      "v": 127
    },
    {
      "midi": 74,
      "hit": false,
      "t": 252727.01999999976,
      "d": 1363.6350000000093,
      "v": 127
    },
    {
      "midi": 77,
      "hit": false,
      "t": 252727.01999999976,
      "d": 1363.6350000000093,
      "v": 127
    },
    {
      "midi": 34,
      "hit": false,
      "t": 252727.02000000246,
      "d": 454.5450000000128,
      "v": 127
    },
    {
      "midi": 46,
      "hit": false,
      "t": 252727.02000000246,
      "d": 454.5450000000128,
      "v": 127
    },
    {
      "midi": 38,
      "hit": false,
      "t": 253181.56500000248,
      "d": 227.27249999999185,
      "v": 127
    },
    {
      "midi": 50,
      "hit": false,
      "t": 253181.56500000248,
      "d": 227.27249999999185,
      "v": 127
    },
    {
      "midi": 41,
      "hit": false,
      "t": 253408.83750000247,
      "d": 227.27249999999185,
      "v": 127
    },
    {
      "midi": 53,
      "hit": false,
      "t": 253408.83750000247,
      "d": 227.27249999999185,
      "v": 127
    },
    {
      "midi": 46,
      "hit": false,
      "t": 253636.11000000246,
      "d": 454.5450000000128,
      "v": 127
    },
    {
      "midi": 58,
      "hit": false,
      "t": 253636.11000000246,
      "d": 454.5450000000128,
      "v": 127
    },
    {
      "midi": 70,
      "hit": false,
      "t": 254090.65499999977,
      "d": 227.27249999999185,
      "v": 127
    },
    {
      "midi": 43,
      "hit": false,
      "t": 254090.65500000247,
      "d": 227.27249999999185,
      "v": 127
    },
    {
      "midi": 55,
      "hit": false,
      "t": 254090.65500000247,
      "d": 227.27249999999185,
      "v": 127
    },
    {
      "midi": 71,
      "hit": false,
      "t": 254317.92749999976,
      "d": 227.27249999999185,
      "v": 127
    },
    {
      "midi": 42,
      "hit": false,
      "t": 254317.92750000246,
      "d": 227.27249999999185,
      "v": 127
    },
    {
      "midi": 54,
      "hit": false,
      "t": 254317.92750000246,
      "d": 227.27249999999185,
      "v": 127
    },
    {
      "midi": 72,
      "hit": false,
      "t": 254545.19999999975,
      "d": 227.27249999999185,
      "v": 127
    },
    {
      "midi": 41,
      "hit": false,
      "t": 254545.20000000246,
      "d": 454.5450000000128,
      "v": 127
    },
    {
      "midi": 53,
      "hit": false,
      "t": 254545.20000000246,
      "d": 454.5450000000128,
      "v": 127
    },
    {
      "midi": 74,
      "hit": false,
      "t": 254772.47249999974,
      "d": 454.5450000000128,
      "v": 127
    },
    {
      "midi": 80,
      "hit": false,
      "t": 254772.47249999974,
      "d": 454.5450000000128,
      "v": 127
    },
    {
      "midi": 82,
      "hit": false,
      "t": 254772.47249999974,
      "d": 454.5450000000128,
      "v": 127
    },
    {
      "midi": 56,
      "hit": false,
      "t": 254999.74500000247,
      "d": 454.5450000000128,
      "v": 127
    },
    {
      "midi": 58,
      "hit": false,
      "t": 254999.74500000247,
      "d": 454.5450000000128,
      "v": 127
    },
    {
      "midi": 62,
      "hit": false,
      "t": 254999.74500000247,
      "d": 454.5450000000128,
      "v": 127
    },
    {
      "midi": 72,
      "hit": false,
      "t": 255227.01749999975,
      "d": 227.27249999999185,
      "v": 127
    },
    {
      "midi": 74,
      "hit": false,
      "t": 255454.28999999975,
      "d": 454.5450000000128,
      "v": 127
    },
    {
      "midi": 80,
      "hit": false,
      "t": 255454.28999999975,
      "d": 454.5450000000128,
      "v": 127
    },
    {
      "midi": 82,
      "hit": false,
      "t": 255454.28999999975,
      "d": 454.5450000000128,
      "v": 127
    },
    {
      "midi": 34,
      "hit": false,
      "t": 255454.29000000248,
      "d": 454.5450000000128,
      "v": 127
    },
    {
      "midi": 46,
      "hit": false,
      "t": 255454.29000000248,
      "d": 454.5450000000128,
      "v": 127
    },
    {
      "midi": 72,
      "hit": false,
      "t": 255908.83499999976,
      "d": 227.27249999999185,
      "v": 127
    },
    {
      "midi": 56,
      "hit": false,
      "t": 255908.8350000025,
      "d": 454.5450000000128,
      "v": 127
    },
    {
      "midi": 58,
      "hit": false,
      "t": 255908.8350000025,
      "d": 454.5450000000128,
      "v": 127
    },
    {
      "midi": 62,
      "hit": false,
      "t": 255908.8350000025,
      "d": 454.5450000000128,
      "v": 127
    },
    {
      "midi": 74,
      "hit": false,
      "t": 256136.10749999975,
      "d": 454.5450000000128,
      "v": 127
    },
    {
      "midi": 80,
      "hit": false,
      "t": 256136.10749999975,
      "d": 454.5450000000128,
      "v": 127
    },
    {
      "midi": 82,
      "hit": false,
      "t": 256136.10749999975,
      "d": 454.5450000000128,
      "v": 127
    },
    {
      "midi": 41,
      "hit": false,
      "t": 256363.3800000025,
      "d": 454.5450000000128,
      "v": 127
    },
    {
      "midi": 53,
      "hit": false,
      "t": 256363.3800000025,
      "d": 454.5450000000128,
      "v": 127
    },
    {
      "midi": 72,
      "hit": false,
      "t": 256590.65249999976,
      "d": 227.27249999999185,
      "v": 127
    },
    {
      "midi": 74,
      "hit": false,
      "t": 256817.92499999976,
      "d": 227.27249999999185,
      "v": 127
    },
    {
      "midi": 80,
      "hit": false,
      "t": 256817.92499999976,
      "d": 227.27249999999185,
      "v": 127
    },
    {
      "midi": 82,
      "hit": false,
      "t": 256817.92499999976,
      "d": 227.27249999999185,
      "v": 127
    },
    {
      "midi": 56,
      "hit": false,
      "t": 256817.92500000252,
      "d": 454.5450000000128,
      "v": 127
    },
    {
      "midi": 58,
      "hit": false,
      "t": 256817.92500000252,
      "d": 454.5450000000128,
      "v": 127
    },
    {
      "midi": 62,
      "hit": false,
      "t": 256817.92500000252,
      "d": 454.5450000000128,
      "v": 127
    },
    {
      "midi": 84,
      "hit": false,
      "t": 257045.19749999975,
      "d": 227.27249999999185,
      "v": 127
    },
    {
      "midi": 82,
      "hit": false,
      "t": 257272.46999999974,
      "d": 227.27249999999185,
      "v": 127
    },
    {
      "midi": 34,
      "hit": false,
      "t": 257272.47000000253,
      "d": 454.5450000000128,
      "v": 127
    },
    {
      "midi": 46,
      "hit": false,
      "t": 257272.47000000253,
      "d": 454.5450000000128,
      "v": 127
    },
    {
      "midi": 80,
      "hit": false,
      "t": 257499.74249999973,
      "d": 227.27249999999185,
      "v": 127
    },
    {
      "midi": 77,
      "hit": false,
      "t": 257727.01499999972,
      "d": 227.27249999999185,
      "v": 127
    },
    {
      "midi": 56,
      "hit": false,
      "t": 257727.01500000255,
      "d": 454.5450000000128,
      "v": 127
    },
    {
      "midi": 58,
      "hit": false,
      "t": 257727.01500000255,
      "d": 454.5450000000128,
      "v": 127
    },
    {
      "midi": 62,
      "hit": false,
      "t": 257727.01500000255,
      "d": 454.5450000000128,
      "v": 127
    },
    {
      "midi": 74,
      "hit": false,
      "t": 257954.28749999971,
      "d": 227.27249999999185,
      "v": 127
    },
    {
      "midi": 72,
      "hit": false,
      "t": 258181.5599999997,
      "d": 227.27249999999185,
      "v": 127
    },
    {
      "midi": 39,
      "hit": false,
      "t": 258181.56000000256,
      "d": 454.5450000000128,
      "v": 127
    },
    {
      "midi": 51,
      "hit": false,
      "t": 258181.56000000256,
      "d": 454.5450000000128,
      "v": 127
    },
    {
      "midi": 75,
      "hit": false,
      "t": 258408.8324999997,
      "d": 454.5450000000128,
      "v": 127
    },
    {
      "midi": 79,
      "hit": false,
      "t": 258408.8324999997,
      "d": 454.5450000000128,
      "v": 127
    },
    {
      "midi": 82,
      "hit": false,
      "t": 258408.8324999997,
      "d": 454.5450000000128,
      "v": 127
    },
    {
      "midi": 55,
      "hit": false,
      "t": 258636.10500000257,
      "d": 454.5450000000128,
      "v": 127
    },
    {
      "midi": 58,
      "hit": false,
      "t": 258636.10500000257,
      "d": 454.5450000000128,
      "v": 127
    },
    {
      "midi": 63,
      "hit": false,
      "t": 258636.10500000257,
      "d": 454.5450000000128,
      "v": 127
    },
    {
      "midi": 72,
      "hit": false,
      "t": 258863.3774999997,
      "d": 227.27249999999185,
      "v": 127
    },
    {
      "midi": 75,
      "hit": false,
      "t": 259090.6499999997,
      "d": 454.5450000000128,
      "v": 127
    },
    {
      "midi": 79,
      "hit": false,
      "t": 259090.6499999997,
      "d": 454.5450000000128,
      "v": 127
    },
    {
      "midi": 82,
      "hit": false,
      "t": 259090.6499999997,
      "d": 454.5450000000128,
      "v": 127
    },
    {
      "midi": 34,
      "hit": false,
      "t": 259090.65000000258,
      "d": 454.5450000000128,
      "v": 127
    },
    {
      "midi": 46,
      "hit": false,
      "t": 259090.65000000258,
      "d": 454.5450000000128,
      "v": 127
    },
    {
      "midi": 72,
      "hit": false,
      "t": 259545.19499999972,
      "d": 227.27249999999185,
      "v": 127
    },
    {
      "midi": 55,
      "hit": false,
      "t": 259545.1950000026,
      "d": 454.5450000000128,
      "v": 127
    },
    {
      "midi": 58,
      "hit": false,
      "t": 259545.1950000026,
      "d": 454.5450000000128,
      "v": 127
    },
    {
      "midi": 63,
      "hit": false,
      "t": 259545.1950000026,
      "d": 454.5450000000128,
      "v": 127
    },
    {
      "midi": 75,
      "hit": false,
      "t": 259772.4674999997,
      "d": 454.5450000000128,
      "v": 127
    },
    {
      "midi": 79,
      "hit": false,
      "t": 259772.4674999997,
      "d": 454.5450000000128,
      "v": 127
    },
    {
      "midi": 82,
      "hit": false,
      "t": 259772.4674999997,
      "d": 454.5450000000128,
      "v": 127
    },
    {
      "midi": 39,
      "hit": false,
      "t": 259999.7400000026,
      "d": 454.5450000000128,
      "v": 127
    },
    {
      "midi": 51,
      "hit": false,
      "t": 259999.7400000026,
      "d": 454.5450000000128,
      "v": 127
    },
    {
      "midi": 72,
      "hit": false,
      "t": 260227.01249999972,
      "d": 227.27249999999185,
      "v": 127
    },
    {
      "midi": 75,
      "hit": false,
      "t": 260454.2849999997,
      "d": 227.27249999999185,
      "v": 127
    },
    {
      "midi": 79,
      "hit": false,
      "t": 260454.2849999997,
      "d": 227.27249999999185,
      "v": 127
    },
    {
      "midi": 82,
      "hit": false,
      "t": 260454.2849999997,
      "d": 227.27249999999185,
      "v": 127
    },
    {
      "midi": 55,
      "hit": false,
      "t": 260454.28500000262,
      "d": 454.5450000000128,
      "v": 127
    },
    {
      "midi": 58,
      "hit": false,
      "t": 260454.28500000262,
      "d": 454.5450000000128,
      "v": 127
    },
    {
      "midi": 63,
      "hit": false,
      "t": 260454.28500000262,
      "d": 454.5450000000128,
      "v": 127
    },
    {
      "midi": 84,
      "hit": false,
      "t": 260681.5574999997,
      "d": 227.27249999999185,
      "v": 127
    },
    {
      "midi": 82,
      "hit": false,
      "t": 260908.8299999997,
      "d": 227.27249999999185,
      "v": 127
    },
    {
      "midi": 34,
      "hit": false,
      "t": 260908.83000000264,
      "d": 454.5450000000128,
      "v": 127
    },
    {
      "midi": 46,
      "hit": false,
      "t": 260908.83000000264,
      "d": 454.5450000000128,
      "v": 127
    },
    {
      "midi": 79,
      "hit": false,
      "t": 261136.1024999997,
      "d": 227.27249999999185,
      "v": 127
    },
    {
      "midi": 82,
      "hit": false,
      "t": 261363.37499999968,
      "d": 227.27249999999185,
      "v": 127
    },
    {
      "midi": 55,
      "hit": false,
      "t": 261363.37500000265,
      "d": 454.5450000000128,
      "v": 127
    },
    {
      "midi": 58,
      "hit": false,
      "t": 261363.37500000265,
      "d": 454.5450000000128,
      "v": 127
    },
    {
      "midi": 63,
      "hit": false,
      "t": 261363.37500000265,
      "d": 454.5450000000128,
      "v": 127
    },
    {
      "midi": 87,
      "hit": false,
      "t": 261590.64749999967,
      "d": 227.27249999999185,
      "v": 127
    },
    {
      "midi": 77,
      "hit": false,
      "t": 261817.91999999966,
      "d": 227.27249999999185,
      "v": 127
    },
    {
      "midi": 89,
      "hit": false,
      "t": 261817.91999999966,
      "d": 227.27249999999185,
      "v": 127
    },
    {
      "midi": 32,
      "hit": false,
      "t": 261817.92000000266,
      "d": 454.5449999999837,
      "v": 127
    },
    {
      "midi": 44,
      "hit": false,
      "t": 261817.92000000266,
      "d": 454.5449999999837,
      "v": 127
    },
    {
      "midi": 80,
      "hit": false,
      "t": 262045.19249999966,
      "d": 227.27250000002095,
      "v": 127
    },
    {
      "midi": 84,
      "hit": false,
      "t": 262272.4649999997,
      "d": 227.27250000002095,
      "v": 127
    },
    {
      "midi": 56,
      "hit": false,
      "t": 262272.46500000264,
      "d": 454.5449999999837,
      "v": 127
    },
    {
      "midi": 60,
      "hit": false,
      "t": 262272.46500000264,
      "d": 454.5449999999837,
      "v": 127
    },
    {
      "midi": 63,
      "hit": false,
      "t": 262272.46500000264,
      "d": 454.5449999999837,
      "v": 127
    },
    {
      "midi": 65,
      "hit": false,
      "t": 262272.46500000264,
      "d": 454.5449999999837,
      "v": 127
    },
    {
      "midi": 75,
      "hit": false,
      "t": 262499.7374999997,
      "d": 454.5449999999837,
      "v": 127
    },
    {
      "midi": 87,
      "hit": false,
      "t": 262499.7374999997,
      "d": 454.5449999999837,
      "v": 127
    },
    {
      "midi": 33,
      "hit": false,
      "t": 262727.0100000026,
      "d": 454.5449999999837,
      "v": 127
    },
    {
      "midi": 45,
      "hit": false,
      "t": 262727.0100000026,
      "d": 454.5449999999837,
      "v": 127
    },
    {
      "midi": 74,
      "hit": false,
      "t": 262954.2824999997,
      "d": 227.27250000002095,
      "v": 127
    },
    {
      "midi": 86,
      "hit": false,
      "t": 262954.2824999997,
      "d": 227.27250000002095,
      "v": 127
    },
    {
      "midi": 72,
      "hit": false,
      "t": 263181.5549999997,
      "d": 454.5449999999837,
      "v": 127
    },
    {
      "midi": 84,
      "hit": false,
      "t": 263181.5549999997,
      "d": 454.5449999999837,
      "v": 127
    },
    {
      "midi": 57,
      "hit": false,
      "t": 263181.5550000026,
      "d": 454.5449999999837,
      "v": 127
    },
    {
      "midi": 60,
      "hit": false,
      "t": 263181.5550000026,
      "d": 454.5449999999837,
      "v": 127
    },
    {
      "midi": 63,
      "hit": false,
      "t": 263181.5550000026,
      "d": 454.5449999999837,
      "v": 127
    },
    {
      "midi": 66,
      "hit": false,
      "t": 263181.5550000026,
      "d": 454.5449999999837,
      "v": 127
    },
    {
      "midi": 72,
      "hit": false,
      "t": 263636.0999999997,
      "d": 227.27250000002095,
      "v": 127
    },
    {
      "midi": 84,
      "hit": false,
      "t": 263636.0999999997,
      "d": 227.27250000002095,
      "v": 127
    },
    {
      "midi": 34,
      "hit": false,
      "t": 263636.1000000026,
      "d": 454.5449999999837,
      "v": 127
    },
    {
      "midi": 46,
      "hit": false,
      "t": 263636.1000000026,
      "d": 454.5449999999837,
      "v": 127
    },
    {
      "midi": 75,
      "hit": false,
      "t": 263863.3724999997,
      "d": 227.27250000002095,
      "v": 127
    },
    {
      "midi": 79,
      "hit": false,
      "t": 264090.6449999997,
      "d": 227.27250000002095,
      "v": 127
    },
    {
      "midi": 58,
      "hit": false,
      "t": 264090.6450000026,
      "d": 454.5449999999837,
      "v": 127
    },
    {
      "midi": 63,
      "hit": false,
      "t": 264090.6450000026,
      "d": 454.5449999999837,
      "v": 127
    },
    {
      "midi": 67,
      "hit": false,
      "t": 264090.6450000026,
      "d": 454.5449999999837,
      "v": 127
    },
    {
      "midi": 82,
      "hit": false,
      "t": 264317.91749999975,
      "d": 454.5449999999837,
      "v": 127
    },
    {
      "midi": 70,
      "hit": false,
      "t": 264317.91749999975,
      "d": 909.0900000000256,
      "v": 127
    },
    {
      "midi": 76,
      "hit": false,
      "t": 264317.91749999975,
      "d": 909.0900000000256,
      "v": 127
    },
    {
      "midi": 36,
      "hit": false,
      "t": 264545.19000000256,
      "d": 454.5449999999837,
      "v": 127
    },
    {
      "midi": 48,
      "hit": false,
      "t": 264545.19000000256,
      "d": 454.5449999999837,
      "v": 127
    },
    {
      "midi": 80,
      "hit": false,
      "t": 264772.46249999973,
      "d": 227.27250000002095,
      "v": 127
    },
    {
      "midi": 79,
      "hit": false,
      "t": 264999.73499999975,
      "d": 454.5450000000419,
      "v": 127
    },
    {
      "midi": 58,
      "hit": false,
      "t": 264999.73500000255,
      "d": 454.5449999999837,
      "v": 127
    },
    {
      "midi": 60,
      "hit": false,
      "t": 264999.73500000255,
      "d": 454.5449999999837,
      "v": 127
    },
    {
      "midi": 64,
      "hit": false,
      "t": 264999.73500000255,
      "d": 454.5449999999837,
      "v": 127
    },
    {
      "midi": 79,
      "hit": false,
      "t": 265454.2799999998,
      "d": 227.27250000002095,
      "v": 127
    },
    {
      "midi": 69,
      "hit": false,
      "t": 265454.2799999998,
      "d": 681.8175000000629,
      "v": 127
    },
    {
      "midi": 75,
      "hit": false,
      "t": 265454.2799999998,
      "d": 681.8175000000629,
      "v": 127
    },
    {
      "midi": 41,
      "hit": false,
      "t": 265454.28000000253,
      "d": 454.5449999999837,
      "v": 127
    },
    {
      "midi": 53,
      "hit": false,
      "t": 265454.28000000253,
      "d": 454.5449999999837,
      "v": 127
    },
    {
      "midi": 72,
      "hit": false,
      "t": 265681.5524999998,
      "d": 227.27250000002095,
      "v": 127
    },
    {
      "midi": 74,
      "hit": false,
      "t": 265908.82499999984,
      "d": 227.27250000002095,
      "v": 127
    },
    {
      "midi": 53,
      "hit": false,
      "t": 265908.8250000025,
      "d": 454.5449999999837,
      "v": 127
    },
    {
      "midi": 57,
      "hit": false,
      "t": 265908.8250000025,
      "d": 454.5449999999837,
      "v": 127
    },
    {
      "midi": 60,
      "hit": false,
      "t": 265908.8250000025,
      "d": 454.5449999999837,
      "v": 127
    },
    {
      "midi": 63,
      "hit": false,
      "t": 265908.8250000025,
      "d": 454.5449999999837,
      "v": 127
    },
    {
      "midi": 75,
      "hit": false,
      "t": 266136.09749999986,
      "d": 454.5449999999837,
      "v": 127
    },
    {
      "midi": 69,
      "hit": false,
      "t": 266136.09749999986,
      "d": 909.0900000000256,
      "v": 127
    },
    {
      "midi": 36,
      "hit": false,
      "t": 266363.3700000025,
      "d": 454.5449999999837,
      "v": 127
    },
    {
      "midi": 48,
      "hit": false,
      "t": 266363.3700000025,
      "d": 454.5449999999837,
      "v": 127
    },
    {
      "midi": 75,
      "hit": false,
      "t": 266590.64249999984,
      "d": 227.27250000002095,
      "v": 127
    },
    {
      "midi": 74,
      "hit": false,
      "t": 266817.91499999986,
      "d": 454.5450000000419,
      "v": 127
    },
    {
      "midi": 77,
      "hit": false,
      "t": 266817.91499999986,
      "d": 454.5450000000419,
      "v": 127
    },
    {
      "midi": 34,
      "hit": false,
      "t": 266817.9150000025,
      "d": 454.5449999999837,
      "v": 127
    },
    {
      "midi": 46,
      "hit": false,
      "t": 266817.9150000025,
      "d": 454.5449999999837,
      "v": 127
    },
    {
      "midi": 67,
      "hit": false,
      "t": 267272.4599999999,
      "d": 909.0900000000256,
      "v": 127
    },
    {
      "midi": 70,
      "hit": false,
      "t": 267272.4599999999,
      "d": 909.0900000000256,
      "v": 127
    },
    {
      "midi": 75,
      "hit": false,
      "t": 267272.4599999999,
      "d": 909.0900000000256,
      "v": 127
    },
    {
      "midi": 39,
      "hit": false,
      "t": 267272.46000000247,
      "d": 454.5449999999837,
      "v": 127
    },
    {
      "midi": 51,
      "hit": false,
      "t": 267272.46000000247,
      "d": 454.5449999999837,
      "v": 127
    },
    {
      "midi": 46,
      "hit": false,
      "t": 267727.00500000245,
      "d": 454.5449999999837,
      "v": 127
    },
    {
      "midi": 75,
      "hit": false,
      "t": 268181.54999999993,
      "d": 909.0900000000256,
      "v": 127
    },
    {
      "midi": 79,
      "hit": false,
      "t": 268181.54999999993,
      "d": 909.0900000000256,
      "v": 127
    },
    {
      "midi": 82,
      "hit": false,
      "t": 268181.54999999993,
      "d": 909.0900000000256,
      "v": 127
    },
    {
      "midi": 87,
      "hit": false,
      "t": 268181.54999999993,
      "d": 909.0900000000256,
      "v": 127
    },
    {
      "midi": 39,
      "hit": false,
      "t": 268181.55000000243,
      "d": 454.5449999999837,
      "v": 127
    }
  ]
}