{
  "jsonPath": "Rock/Progressive Electro House/Kid Massive/get-busy-kid-massive-audio-damage-re-work.json",
  "path": "Rock\\Progressive Electro House\\Kid Massive\\Get Busy (Kid Massive Audio Damage re-work).mid",
  "name": "Get Busy (Kid Massive Audio Damage re-work)",
  "difficulty": "Advanced",
  "bpm": 122.0000691333725,
  "notes": [
    {
      "midi": 65,
      "hit": false,
      "t": 11804.296589583333,
      "d": 388.3194520833331,
      "v": 87
    },
    {
      "midi": 55,
      "hit": false,
      "t": 11808.394947916666,
      "d": 387.2948625000008,
      "v": 87
    },
    {
      "midi": 57,
      "hit": false,
      "t": 12296.099589583333,
      "d": 408.81124374999854,
      "v": 87
    },
    {
      "midi": 65,
      "hit": false,
      "t": 12300.197947916666,
      "d": 407.78665416666627,
      "v": 87
    },
    {
      "midi": 65,
      "hit": false,
      "t": 12787.902589583333,
      "d": 376.0243770833331,
      "v": 89
    },
    {
      "midi": 58,
      "hit": false,
      "t": 12792.000947916666,
      "d": 373.97519791666673,
      "v": 89
    },
    {
      "midi": 60,
      "hit": false,
      "t": 13278.680999999999,
      "d": 300.20474791666675,
      "v": 90
    },
    {
      "midi": 64,
      "hit": false,
      "t": 13278.680999999999,
      "d": 300.20474791666675,
      "v": 90
    },
    {
      "midi": 62,
      "hit": false,
      "t": 13662.902093749999,
      "d": 284.8359041666663,
      "v": 87
    },
    {
      "midi": 65,
      "hit": false,
      "t": 13668.025041666666,
      "d": 284.8359041666663,
      "v": 87
    },
    {
      "midi": 64,
      "hit": false,
      "t": 14012.287141666666,
      "d": 84.01634583333362,
      "v": 85
    },
    {
      "midi": 72,
      "hit": false,
      "t": 14012.287141666666,
      "d": 84.01634583333362,
      "v": 85
    },
    {
      "midi": 67,
      "hit": false,
      "t": 14017.410089583333,
      "d": 84.01634583333362,
      "v": 85
    },
    {
      "midi": 60,
      "hit": false,
      "t": 14021.508447916665,
      "d": 81.96716666666725,
      "v": 85
    },
    {
      "midi": 67,
      "hit": false,
      "t": 14257.164052083333,
      "d": 85.04093541666771,
      "v": 92
    },
    {
      "midi": 60,
      "hit": false,
      "t": 14258.188641666668,
      "d": 86.06552499999998,
      "v": 92
    },
    {
      "midi": 72,
      "hit": false,
      "t": 14258.188641666668,
      "d": 86.06552499999998,
      "v": 92
    },
    {
      "midi": 64,
      "hit": false,
      "t": 14263.311589583334,
      "d": 86.06552499999998,
      "v": 92
    },
    {
      "midi": 60,
      "hit": false,
      "t": 14503.065552083335,
      "d": 74.79503958333407,
      "v": 92
    },
    {
      "midi": 64,
      "hit": false,
      "t": 14513.311447916669,
      "d": 74.79503958333407,
      "v": 92
    },
    {
      "midi": 67,
      "hit": false,
      "t": 14513.311447916669,
      "d": 74.79503958333407,
      "v": 92
    },
    {
      "midi": 72,
      "hit": false,
      "t": 14513.311447916669,
      "d": 74.79503958333407,
      "v": 92
    },
    {
      "midi": 72,
      "hit": false,
      "t": 14748.967052083337,
      "d": 315.5735916666672,
      "v": 92
    },
    {
      "midi": 64,
      "hit": false,
      "t": 14754.090000000004,
      "d": 315.5735916666672,
      "v": 92
    },
    {
      "midi": 67,
      "hit": false,
      "t": 14754.090000000004,
      "d": 315.5735916666672,
      "v": 92
    },
    {
      "midi": 60,
      "hit": false,
      "t": 14759.21294791667,
      "d": 315.5735916666672,
      "v": 92
    },
    {
      "midi": 69,
      "hit": false,
      "t": 15138.311093750004,
      "d": 377.0489666666672,
      "v": 86
    },
    {
      "midi": 74,
      "hit": false,
      "t": 15144.458631250005,
      "d": 232.58183541666585,
      "v": 86
    },
    {
      "midi": 62,
      "hit": false,
      "t": 15148.556989583338,
      "d": 377.0489666666672,
      "v": 86
    },
    {
      "midi": 65,
      "hit": false,
      "t": 15148.556989583338,
      "d": 377.0489666666672,
      "v": 86
    },
    {
      "midi": 74,
      "hit": false,
      "t": 15385.237183333338,
      "d": 60.450785416665894,
      "v": 74
    },
    {
      "midi": 74,
      "hit": false,
      "t": 15492.819089583338,
      "d": 196.72119999999995,
      "v": 84
    },
    {
      "midi": 55,
      "hit": false,
      "t": 15733.59764166667,
      "d": 388.3194520833331,
      "v": 87
    },
    {
      "midi": 65,
      "hit": false,
      "t": 15738.720589583338,
      "d": 388.3194520833331,
      "v": 87
    },
    {
      "midi": 57,
      "hit": false,
      "t": 16224.376052083337,
      "d": 407.7866541666681,
      "v": 87
    },
    {
      "midi": 65,
      "hit": false,
      "t": 16234.62194791667,
      "d": 407.7866541666681,
      "v": 87
    },
    {
      "midi": 58,
      "hit": false,
      "t": 16717.20364166667,
      "d": 376.0243770833331,
      "v": 89
    },
    {
      "midi": 65,
      "hit": false,
      "t": 16722.326589583336,
      "d": 376.0243770833331,
      "v": 89
    },
    {
      "midi": 64,
      "hit": false,
      "t": 17207.982052083335,
      "d": 300.2047479166649,
      "v": 90
    },
    {
      "midi": 60,
      "hit": false,
      "t": 17209.006641666667,
      "d": 301.22933750000084,
      "v": 90
    },
    {
      "midi": 62,
      "hit": false,
      "t": 17597.32609375,
      "d": 284.8359041666663,
      "v": 87
    },
    {
      "midi": 65,
      "hit": false,
      "t": 17607.571989583335,
      "d": 284.8359041666663,
      "v": 87
    },
    {
      "midi": 67,
      "hit": false,
      "t": 17950.809500000003,
      "d": 81.96716666666543,
      "v": 85
    },
    {
      "midi": 64,
      "hit": false,
      "t": 17951.834089583335,
      "d": 84.01634583333362,
      "v": 85
    },
    {
      "midi": 60,
      "hit": false,
      "t": 17955.932447916668,
      "d": 81.96716666666907,
      "v": 85
    },
    {
      "midi": 72,
      "hit": false,
      "t": 17955.932447916668,
      "d": 81.96716666666907,
      "v": 85
    },
    {
      "midi": 72,
      "hit": false,
      "t": 18192.61264166667,
      "d": 86.06552499999816,
      "v": 92
    },
    {
      "midi": 67,
      "hit": false,
      "t": 18196.711000000003,
      "d": 85.04093541666589,
      "v": 92
    },
    {
      "midi": 64,
      "hit": false,
      "t": 18197.735589583335,
      "d": 86.0655250000018,
      "v": 92
    },
    {
      "midi": 60,
      "hit": false,
      "t": 18201.833947916668,
      "d": 85.04093541666953,
      "v": 92
    },
    {
      "midi": 67,
      "hit": false,
      "t": 18442.612500000003,
      "d": 74.79503958333225,
      "v": 92
    },
    {
      "midi": 72,
      "hit": false,
      "t": 18442.612500000003,
      "d": 74.79503958333225,
      "v": 92
    },
    {
      "midi": 64,
      "hit": false,
      "t": 18443.637089583335,
      "d": 75.81962916666816,
      "v": 92
    },
    {
      "midi": 60,
      "hit": false,
      "t": 18447.735447916668,
      "d": 74.79503958333589,
      "v": 92
    },
    {
      "midi": 67,
      "hit": false,
      "t": 18683.391052083338,
      "d": 315.57359166666356,
      "v": 92
    },
    {
      "midi": 72,
      "hit": false,
      "t": 18684.41564166667,
      "d": 316.59818124999947,
      "v": 92
    },
    {
      "midi": 60,
      "hit": false,
      "t": 18688.514000000003,
      "d": 315.5735916666672,
      "v": 92
    },
    {
      "midi": 64,
      "hit": false,
      "t": 18688.514000000003,
      "d": 315.5735916666672,
      "v": 92
    },
    {
      "midi": 62,
      "hit": false,
      "t": 19072.735093750005,
      "d": 377.04896666666536,
      "v": 86
    },
    {
      "midi": 65,
      "hit": false,
      "t": 19072.735093750005,
      "d": 377.04896666666536,
      "v": 86
    },
    {
      "midi": 74,
      "hit": false,
      "t": 19073.759683333337,
      "d": 244.87691041666767,
      "v": 86
    },
    {
      "midi": 69,
      "hit": false,
      "t": 19073.759683333337,
      "d": 378.0735562500013,
      "v": 86
    },
    {
      "midi": 74,
      "hit": false,
      "t": 19328.88248958334,
      "d": 46.106531249999534,
      "v": 74
    },
    {
      "midi": 74,
      "hit": false,
      "t": 19431.34144791667,
      "d": 194.6720208333354,
      "v": 84
    },
    {
      "midi": 65,
      "hit": false,
      "t": 19672.120000000006,
      "d": 387.294862499999,
      "v": 87
    },
    {
      "midi": 55,
      "hit": false,
      "t": 19677.24294791667,
      "d": 387.294862499999,
      "v": 87
    },
    {
      "midi": 57,
      "hit": false,
      "t": 20163.923000000003,
      "d": 407.78665416666627,
      "v": 87
    },
    {
      "midi": 65,
      "hit": false,
      "t": 20169.045947916668,
      "d": 407.78665416666627,
      "v": 87
    },
    {
      "midi": 58,
      "hit": false,
      "t": 20651.627641666666,
      "d": 376.0243770833331,
      "v": 89
    },
    {
      "midi": 65,
      "hit": false,
      "t": 20656.75058958333,
      "d": 376.0243770833331,
      "v": 89
    },
    {
      "midi": 64,
      "hit": false,
      "t": 21147.529,
      "d": 300.2047479166649,
      "v": 90
    },
    {
      "midi": 60,
      "hit": false,
      "t": 21152.651947916664,
      "d": 300.2047479166649,
      "v": 90
    },
    {
      "midi": 65,
      "hit": false,
      "t": 21531.750093749994,
      "d": 284.8359041666663,
      "v": 87
    },
    {
      "midi": 62,
      "hit": false,
      "t": 21532.774683333326,
      "d": 285.8604937500022,
      "v": 87
    },
    {
      "midi": 64,
      "hit": false,
      "t": 21885.233499999995,
      "d": 81.96716666666543,
      "v": 85
    },
    {
      "midi": 67,
      "hit": false,
      "t": 21886.258089583327,
      "d": 84.01634583333362,
      "v": 85
    },
    {
      "midi": 72,
      "hit": false,
      "t": 21886.258089583327,
      "d": 84.01634583333362,
      "v": 85
    },
    {
      "midi": 60,
      "hit": false,
      "t": 21890.35644791666,
      "d": 81.96716666666907,
      "v": 85
    },
    {
      "midi": 60,
      "hit": false,
      "t": 22126.01205208333,
      "d": 85.04093541666225,
      "v": 92
    },
    {
      "midi": 72,
      "hit": false,
      "t": 22126.01205208333,
      "d": 85.04093541666225,
      "v": 92
    },
    {
      "midi": 64,
      "hit": false,
      "t": 22131.134999999995,
      "d": 85.04093541666225,
      "v": 92
    },
    {
      "midi": 67,
      "hit": false,
      "t": 22132.159589583327,
      "d": 86.06552499999816,
      "v": 92
    },
    {
      "midi": 60,
      "hit": false,
      "t": 22377.03649999999,
      "d": 74.79503958333225,
      "v": 92
    },
    {
      "midi": 64,
      "hit": false,
      "t": 22377.03649999999,
      "d": 74.79503958333225,
      "v": 92
    },
    {
      "midi": 72,
      "hit": false,
      "t": 22377.03649999999,
      "d": 74.79503958333225,
      "v": 92
    },
    {
      "midi": 67,
      "hit": false,
      "t": 22382.159447916656,
      "d": 74.79503958333225,
      "v": 92
    },
    {
      "midi": 60,
      "hit": false,
      "t": 22618.839641666655,
      "d": 316.59818124999947,
      "v": 92
    },
    {
      "midi": 64,
      "hit": false,
      "t": 22622.937999999987,
      "d": 315.5735916666672,
      "v": 92
    },
    {
      "midi": 67,
      "hit": false,
      "t": 22628.060947916652,
      "d": 315.5735916666672,
      "v": 92
    },
    {
      "midi": 72,
      "hit": false,
      "t": 22628.060947916652,
      "d": 315.5735916666672,
      "v": 92
    },
    {
      "midi": 65,
      "hit": false,
      "t": 23008.18368333332,
      "d": 378.07355624999764,
      "v": 86
    },
    {
      "midi": 69,
      "hit": false,
      "t": 23008.18368333332,
      "d": 378.07355624999764,
      "v": 86
    },
    {
      "midi": 74,
      "hit": false,
      "t": 23012.28204166665,
      "d": 233.60642499999813,
      "v": 86
    },
    {
      "midi": 62,
      "hit": false,
      "t": 23017.404989583316,
      "d": 377.04896666666536,
      "v": 86
    },
    {
      "midi": 74,
      "hit": false,
      "t": 23254.085183333314,
      "d": 58.40160625000135,
      "v": 74
    },
    {
      "midi": 74,
      "hit": false,
      "t": 23365.76544791665,
      "d": 194.67202083333177,
      "v": 84
    },
    {
      "midi": 43,
      "hit": false,
      "t": 23601.421052083315,
      "d": 387.294862499999,
      "v": 87
    },
    {
      "midi": 55,
      "hit": false,
      "t": 23602.445641666647,
      "d": 388.3194520833349,
      "v": 87
    },
    {
      "midi": 65,
      "hit": false,
      "t": 23602.445641666647,
      "d": 388.3194520833349,
      "v": 87
    },
    {
      "midi": 65,
      "hit": false,
      "t": 24094.248641666647,
      "d": 408.81124374999854,
      "v": 87
    },
    {
      "midi": 57,
      "hit": false,
      "t": 24098.34699999998,
      "d": 407.78665416666627,
      "v": 87
    },
    {
      "midi": 45,
      "hit": false,
      "t": 24099.371589583312,
      "d": 408.8112437500022,
      "v": 87
    },
    {
      "midi": 46,
      "hit": false,
      "t": 24591.174589583316,
      "d": 376.0243770833331,
      "v": 89
    },
    {
      "midi": 65,
      "hit": false,
      "t": 24591.174589583316,
      "d": 376.0243770833331,
      "v": 89
    },
    {
      "midi": 58,
      "hit": false,
      "t": 24595.27294791665,
      "d": 373.97519791666855,
      "v": 89
    },
    {
      "midi": 60,
      "hit": false,
      "t": 25081.952999999983,
      "d": 54.303247916664986,
      "v": 90
    },
    {
      "midi": 48,
      "hit": false,
      "t": 25082.977589583315,
      "d": 55.327837500000896,
      "v": 90
    },
    {
      "midi": 64,
      "hit": false,
      "t": 25082.977589583315,
      "d": 55.327837500000896,
      "v": 90
    },
    {
      "midi": 48,
      "hit": false,
      "t": 25322.731552083318,
      "d": 407.78665416666263,
      "v": 87
    },
    {
      "midi": 64,
      "hit": false,
      "t": 25323.75614166665,
      "d": 408.81124374999854,
      "v": 87
    },
    {
      "midi": 60,
      "hit": false,
      "t": 25328.879089583315,
      "d": 408.81124374999854,
      "v": 87
    },
    {
      "midi": 50,
      "hit": false,
      "t": 25814.534552083314,
      "d": 54.303247916668624,
      "v": 90
    },
    {
      "midi": 62,
      "hit": false,
      "t": 25820.682089583315,
      "d": 55.327837500000896,
      "v": 90
    },
    {
      "midi": 65,
      "hit": false,
      "t": 25820.682089583315,
      "d": 55.327837500000896,
      "v": 90
    },
    {
      "midi": 62,
      "hit": false,
      "t": 26065.558999999983,
      "d": 387.294862499999,
      "v": 87
    },
    {
      "midi": 50,
      "hit": false,
      "t": 26066.583589583315,
      "d": 388.3194520833349,
      "v": 87
    },
    {
      "midi": 65,
      "hit": false,
      "t": 26070.681947916648,
      "d": 387.29486250000264,
      "v": 87
    },
    {
      "midi": 62,
      "hit": false,
      "t": 26553.26364166665,
      "d": 388.31945208333127,
      "v": 87
    },
    {
      "midi": 50,
      "hit": false,
      "t": 26558.386589583315,
      "d": 388.31945208333127,
      "v": 87
    },
    {
      "midi": 65,
      "hit": false,
      "t": 26558.386589583315,
      "d": 388.31945208333127,
      "v": 87
    },
    {
      "midi": 62,
      "hit": false,
      "t": 27044.042052083314,
      "d": 387.294862499999,
      "v": 87
    },
    {
      "midi": 50,
      "hit": false,
      "t": 27049.16499999998,
      "d": 387.294862499999,
      "v": 87
    },
    {
      "midi": 65,
      "hit": false,
      "t": 27050.18958958331,
      "d": 388.3194520833349,
      "v": 87
    },
    {
      "midi": 65,
      "hit": false,
      "t": 27540.96799999998,
      "d": 387.29486249999536,
      "v": 87
    },
    {
      "midi": 74,
      "hit": false,
      "t": 27541.99258958331,
      "d": 60.450785416665894,
      "v": 71
    },
    {
      "midi": 50,
      "hit": false,
      "t": 27541.99258958331,
      "d": 388.31945208333127,
      "v": 87
    },
    {
      "midi": 62,
      "hit": false,
      "t": 27541.99258958331,
      "d": 388.31945208333127,
      "v": 87
    },
    {
      "midi": 76,
      "hit": false,
      "t": 27587.07453124998,
      "d": 46.106531249995896,
      "v": 52
    },
    {
      "midi": 77,
      "hit": false,
      "t": 27617.812218749976,
      "d": 40.9835833333309,
      "v": 80
    },
    {
      "midi": 79,
      "hit": false,
      "t": 27648.549906249973,
      "d": 126.02451875000042,
      "v": 78
    },
    {
      "midi": 81,
      "hit": false,
      "t": 27716.172818749972,
      "d": 224.38511875000404,
      "v": 55
    },
    {
      "midi": 65,
      "hit": false,
      "t": 28027.64805208331,
      "d": 387.29486250000264,
      "v": 78
    },
    {
      "midi": 50,
      "hit": false,
      "t": 28037.89394791664,
      "d": 387.2948625000063,
      "v": 78
    },
    {
      "midi": 62,
      "hit": false,
      "t": 28037.89394791664,
      "d": 387.2948625000063,
      "v": 78
    },
    {
      "midi": 81,
      "hit": false,
      "t": 28049.164433333306,
      "d": 101.43436875000407,
      "v": 59
    },
    {
      "midi": 79,
      "hit": false,
      "t": 28131.131599999975,
      "d": 75.81962916666816,
      "v": 56
    },
    {
      "midi": 77,
      "hit": false,
      "t": 28191.582385416645,
      "d": 76.84421875000044,
      "v": 62
    },
    {
      "midi": 76,
      "hit": false,
      "t": 28248.95940208331,
      "d": 84.01634583333362,
      "v": 58
    },
    {
      "midi": 74,
      "hit": false,
      "t": 28310.434777083312,
      "d": 63.52455416666635,
      "v": 47
    },
    {
      "midi": 65,
      "hit": false,
      "t": 28520.475641666646,
      "d": 388.31945208332763,
      "v": 87
    },
    {
      "midi": 50,
      "hit": false,
      "t": 28525.59858958331,
      "d": 388.31945208332763,
      "v": 87
    },
    {
      "midi": 62,
      "hit": false,
      "t": 28525.59858958331,
      "d": 388.31945208332763,
      "v": 87
    },
    {
      "midi": 74,
      "hit": false,
      "t": 28535.844485416645,
      "d": 80.94257708333316,
      "v": 56
    },
    {
      "midi": 76,
      "hit": false,
      "t": 28592.196912499978,
      "d": 80.94257708333316,
      "v": 30
    },
    {
      "midi": 77,
      "hit": false,
      "t": 28657.770645833312,
      "d": 54.303247916664986,
      "v": 56
    },
    {
      "midi": 79,
      "hit": false,
      "t": 28694.65587083331,
      "d": 55.32783749999726,
      "v": 69
    },
    {
      "midi": 81,
      "hit": false,
      "t": 28734.61486458331,
      "d": 197.7457895833286,
      "v": 72
    },
    {
      "midi": 88,
      "hit": false,
      "t": 28980.516364583305,
      "d": 56.35242708332953,
      "v": 69
    },
    {
      "midi": 50,
      "hit": false,
      "t": 29016.37699999997,
      "d": 387.2948624999917,
      "v": 78
    },
    {
      "midi": 62,
      "hit": false,
      "t": 29017.401589583304,
      "d": 388.31945208332763,
      "v": 78
    },
    {
      "midi": 86,
      "hit": false,
      "t": 29021.499947916636,
      "d": 44.05735208333135,
      "v": 74
    },
    {
      "midi": 65,
      "hit": false,
      "t": 29021.499947916636,
      "d": 387.29486249999536,
      "v": 78
    },
    {
      "midi": 84,
      "hit": false,
      "t": 29052.237635416634,
      "d": 56.35242708333317,
      "v": 80
    },
    {
      "midi": 83,
      "hit": false,
      "t": 29083.999912499967,
      "d": 65.57373333333089,
      "v": 72
    },
    {
      "midi": 81,
      "hit": false,
      "t": 29134.2048020833,
      "d": 56.35242708332953,
      "v": 72
    },
    {
      "midi": 79,
      "hit": false,
      "t": 29175.18838541663,
      "d": 51.22947916666817,
      "v": 71
    },
    {
      "midi": 77,
      "hit": false,
      "t": 29206.950662499963,
      "d": 60.45078541666953,
      "v": 70
    },
    {
      "midi": 76,
      "hit": false,
      "t": 29247.934245833298,
      "d": 58.40160625000135,
      "v": 71
    },
    {
      "midi": 74,
      "hit": false,
      "t": 29293.016187499965,
      "d": 182.3769458333336,
      "v": 68
    },
    {
      "midi": 62,
      "hit": false,
      "t": 29508.179999999964,
      "d": 251.02444791666494,
      "v": 99
    },
    {
      "midi": 65,
      "hit": false,
      "t": 29508.179999999964,
      "d": 251.02444791666494,
      "v": 99
    },
    {
      "midi": 69,
      "hit": false,
      "t": 29508.179999999964,
      "d": 251.02444791666494,
      "v": 99
    },
    {
      "midi": 38,
      "hit": false,
      "t": 29508.179999999964,
      "d": 425.20467708332944,
      "v": 91
    },
    {
      "midi": 60,
      "hit": false,
      "t": 29897.524041666627,
      "d": 177.25399791666496,
      "v": 94
    },
    {
      "midi": 64,
      "hit": false,
      "t": 29897.524041666627,
      "d": 177.25399791666496,
      "v": 94
    },
    {
      "midi": 67,
      "hit": false,
      "t": 29897.524041666627,
      "d": 177.25399791666496,
      "v": 94
    },
    {
      "midi": 36,
      "hit": false,
      "t": 29999.98299999996,
      "d": 425.2046770833331,
      "v": 81
    },
    {
      "midi": 60,
      "hit": false,
      "t": 30245.88449999996,
      "d": 90.16388333333452,
      "v": 102
    },
    {
      "midi": 64,
      "hit": false,
      "t": 30245.88449999996,
      "d": 90.16388333333452,
      "v": 102
    },
    {
      "midi": 67,
      "hit": false,
      "t": 30245.88449999996,
      "d": 90.16388333333452,
      "v": 102
    },
    {
      "midi": 60,
      "hit": false,
      "t": 30491.78599999996,
      "d": 284.8359041666663,
      "v": 102
    },
    {
      "midi": 64,
      "hit": false,
      "t": 30491.78599999996,
      "d": 284.8359041666663,
      "v": 102
    },
    {
      "midi": 67,
      "hit": false,
      "t": 30491.78599999996,
      "d": 284.8359041666663,
      "v": 102
    },
    {
      "midi": 38,
      "hit": false,
      "t": 30491.78599999996,
      "d": 425.2046770833331,
      "v": 86
    },
    {
      "midi": 62,
      "hit": false,
      "t": 30881.130041666627,
      "d": 197.74578958333223,
      "v": 100
    },
    {
      "midi": 65,
      "hit": false,
      "t": 30881.130041666627,
      "d": 197.74578958333223,
      "v": 100
    },
    {
      "midi": 69,
      "hit": false,
      "t": 30881.130041666627,
      "d": 197.74578958333223,
      "v": 100
    },
    {
      "midi": 36,
      "hit": false,
      "t": 30983.58899999996,
      "d": 425.2046770833331,
      "v": 86
    },
    {
      "midi": 60,
      "hit": false,
      "t": 31229.49049999996,
      "d": 87.09011458333407,
      "v": 102
    },
    {
      "midi": 64,
      "hit": false,
      "t": 31229.49049999996,
      "d": 87.09011458333407,
      "v": 102
    },
    {
      "midi": 67,
      "hit": false,
      "t": 31229.49049999996,
      "d": 87.09011458333407,
      "v": 102
    },
    {
      "midi": 59,
      "hit": false,
      "t": 31475.39199999996,
      "d": 251.02444791666494,
      "v": 99
    },
    {
      "midi": 62,
      "hit": false,
      "t": 31475.39199999996,
      "d": 251.02444791666494,
      "v": 99
    },
    {
      "midi": 67,
      "hit": false,
      "t": 31475.39199999996,
      "d": 251.02444791666494,
      "v": 99
    },
    {
      "midi": 35,
      "hit": false,
      "t": 31475.39199999996,
      "d": 425.20467708332944,
      "v": 86
    },
    {
      "midi": 59,
      "hit": false,
      "t": 31864.736041666623,
      "d": 133.1966458333336,
      "v": 99
    },
    {
      "midi": 62,
      "hit": false,
      "t": 31864.736041666623,
      "d": 133.1966458333336,
      "v": 99
    },
    {
      "midi": 67,
      "hit": false,
      "t": 31864.736041666623,
      "d": 133.1966458333336,
      "v": 99
    },
    {
      "midi": 35,
      "hit": false,
      "t": 31967.194999999956,
      "d": 425.2046770833331,
      "v": 86
    },
    {
      "midi": 59,
      "hit": false,
      "t": 32213.096499999956,
      "d": 90.16388333333452,
      "v": 102
    },
    {
      "midi": 62,
      "hit": false,
      "t": 32213.096499999956,
      "d": 90.16388333333452,
      "v": 102
    },
    {
      "midi": 67,
      "hit": false,
      "t": 32213.096499999956,
      "d": 90.16388333333452,
      "v": 102
    },
    {
      "midi": 60,
      "hit": false,
      "t": 32458.997999999956,
      "d": 266.3932916666672,
      "v": 102
    },
    {
      "midi": 62,
      "hit": false,
      "t": 32458.997999999956,
      "d": 266.3932916666672,
      "v": 102
    },
    {
      "midi": 65,
      "hit": false,
      "t": 32458.997999999956,
      "d": 266.3932916666672,
      "v": 102
    },
    {
      "midi": 36,
      "hit": false,
      "t": 32458.997999999956,
      "d": 425.20467708334036,
      "v": 87
    },
    {
      "midi": 60,
      "hit": false,
      "t": 32848.34204166663,
      "d": 184.4261250000054,
      "v": 100
    },
    {
      "midi": 62,
      "hit": false,
      "t": 32848.34204166663,
      "d": 184.4261250000054,
      "v": 100
    },
    {
      "midi": 65,
      "hit": false,
      "t": 32848.34204166663,
      "d": 184.4261250000054,
      "v": 100
    },
    {
      "midi": 36,
      "hit": false,
      "t": 32950.80099999996,
      "d": 425.2046770833331,
      "v": 88
    },
    {
      "midi": 60,
      "hit": false,
      "t": 33196.70249999996,
      "d": 79.91798749999725,
      "v": 102
    },
    {
      "midi": 62,
      "hit": false,
      "t": 33196.70249999996,
      "d": 79.91798749999725,
      "v": 102
    },
    {
      "midi": 65,
      "hit": false,
      "t": 33196.70249999996,
      "d": 79.91798749999725,
      "v": 102
    },
    {
      "midi": 62,
      "hit": false,
      "t": 33442.60399999996,
      "d": 251.02444791666494,
      "v": 99
    },
    {
      "midi": 65,
      "hit": false,
      "t": 33442.60399999996,
      "d": 251.02444791666494,
      "v": 99
    },
    {
      "midi": 69,
      "hit": false,
      "t": 33442.60399999996,
      "d": 251.02444791666494,
      "v": 99
    },
    {
      "midi": 38,
      "hit": false,
      "t": 33442.60399999996,
      "d": 425.2046770833331,
      "v": 91
    },
    {
      "midi": 60,
      "hit": false,
      "t": 33831.94804166663,
      "d": 177.2539979166686,
      "v": 94
    },
    {
      "midi": 64,
      "hit": false,
      "t": 33831.94804166663,
      "d": 177.2539979166686,
      "v": 94
    },
    {
      "midi": 67,
      "hit": false,
      "t": 33831.94804166663,
      "d": 177.2539979166686,
      "v": 94
    },
    {
      "midi": 29,
      "hit": false,
      "t": 33934.40699999996,
      "d": 425.2046770833331,
      "v": 81
    },
    {
      "midi": 60,
      "hit": false,
      "t": 34180.30849999996,
      "d": 90.16388333333452,
      "v": 102
    },
    {
      "midi": 64,
      "hit": false,
      "t": 34180.30849999996,
      "d": 90.16388333333452,
      "v": 102
    },
    {
      "midi": 67,
      "hit": false,
      "t": 34180.30849999996,
      "d": 90.16388333333452,
      "v": 102
    },
    {
      "midi": 60,
      "hit": false,
      "t": 34426.20999999996,
      "d": 284.83590416666993,
      "v": 102
    },
    {
      "midi": 64,
      "hit": false,
      "t": 34426.20999999996,
      "d": 284.83590416666993,
      "v": 102
    },
    {
      "midi": 67,
      "hit": false,
      "t": 34426.20999999996,
      "d": 284.83590416666993,
      "v": 102
    },
    {
      "midi": 29,
      "hit": false,
      "t": 34426.20999999996,
      "d": 425.20467708334036,
      "v": 86
    },
    {
      "midi": 62,
      "hit": false,
      "t": 34815.55404166663,
      "d": 197.74578958333586,
      "v": 100
    },
    {
      "midi": 65,
      "hit": false,
      "t": 34815.55404166663,
      "d": 197.74578958333586,
      "v": 100
    },
    {
      "midi": 69,
      "hit": false,
      "t": 34815.55404166663,
      "d": 197.74578958333586,
      "v": 100
    },
    {
      "midi": 34,
      "hit": false,
      "t": 34918.01299999997,
      "d": 425.2046770833331,
      "v": 86
    },
    {
      "midi": 60,
      "hit": false,
      "t": 35163.91449999997,
      "d": 87.09011458333407,
      "v": 102
    },
    {
      "midi": 64,
      "hit": false,
      "t": 35163.91449999997,
      "d": 87.09011458333407,
      "v": 102
    },
    {
      "midi": 67,
      "hit": false,
      "t": 35163.91449999997,
      "d": 87.09011458333407,
      "v": 102
    },
    {
      "midi": 58,
      "hit": false,
      "t": 35409.81599999997,
      "d": 251.02444791666494,
      "v": 99
    },
    {
      "midi": 62,
      "hit": false,
      "t": 35409.81599999997,
      "d": 251.02444791666494,
      "v": 99
    },
    {
      "midi": 65,
      "hit": false,
      "t": 35409.81599999997,
      "d": 251.02444791666494,
      "v": 99
    },
    {
      "midi": 31,
      "hit": false,
      "t": 35409.81599999997,
      "d": 425.2046770833331,
      "v": 86
    },
    {
      "midi": 58,
      "hit": false,
      "t": 35799.16004166663,
      "d": 133.1966458333336,
      "v": 99
    },
    {
      "midi": 62,
      "hit": false,
      "t": 35799.16004166663,
      "d": 133.1966458333336,
      "v": 99
    },
    {
      "midi": 65,
      "hit": false,
      "t": 35799.16004166663,
      "d": 133.1966458333336,
      "v": 99
    },
    {
      "midi": 31,
      "hit": false,
      "t": 35901.61899999997,
      "d": 425.2046770833331,
      "v": 86
    },
    {
      "midi": 58,
      "hit": false,
      "t": 36147.52049999997,
      "d": 90.16388333333452,
      "v": 102
    },
    {
      "midi": 62,
      "hit": false,
      "t": 36147.52049999997,
      "d": 90.16388333333452,
      "v": 102
    },
    {
      "midi": 65,
      "hit": false,
      "t": 36147.52049999997,
      "d": 90.16388333333452,
      "v": 102
    },
    {
      "midi": 60,
      "hit": false,
      "t": 36393.42199999997,
      "d": 266.3932916666672,
      "v": 102
    },
    {
      "midi": 64,
      "hit": false,
      "t": 36393.42199999997,
      "d": 266.3932916666672,
      "v": 102
    },
    {
      "midi": 67,
      "hit": false,
      "t": 36393.42199999997,
      "d": 266.3932916666672,
      "v": 102
    },
    {
      "midi": 33,
      "hit": false,
      "t": 36393.42199999997,
      "d": 425.20467708334036,
      "v": 87
    },
    {
      "midi": 60,
      "hit": false,
      "t": 36782.76604166664,
      "d": 184.4261250000054,
      "v": 100
    },
    {
      "midi": 64,
      "hit": false,
      "t": 36782.76604166664,
      "d": 184.4261250000054,
      "v": 100
    },
    {
      "midi": 67,
      "hit": false,
      "t": 36782.76604166664,
      "d": 184.4261250000054,
      "v": 100
    },
    {
      "midi": 33,
      "hit": false,
      "t": 36885.22499999998,
      "d": 425.2046770833331,
      "v": 88
    },
    {
      "midi": 60,
      "hit": false,
      "t": 37131.12649999998,
      "d": 79.91798749999725,
      "v": 102
    },
    {
      "midi": 64,
      "hit": false,
      "t": 37131.12649999998,
      "d": 79.91798749999725,
      "v": 102
    },
    {
      "midi": 67,
      "hit": false,
      "t": 37131.12649999998,
      "d": 79.91798749999725,
      "v": 102
    },
    {
      "midi": 62,
      "hit": false,
      "t": 37377.02799999998,
      "d": 251.02444791666494,
      "v": 99
    },
    {
      "midi": 65,
      "hit": false,
      "t": 37377.02799999998,
      "d": 251.02444791666494,
      "v": 99
    },
    {
      "midi": 69,
      "hit": false,
      "t": 37377.02799999998,
      "d": 251.02444791666494,
      "v": 99
    },
    {
      "midi": 38,
      "hit": false,
      "t": 37377.02799999998,
      "d": 425.2046770833331,
      "v": 91
    },
    {
      "midi": 60,
      "hit": false,
      "t": 37766.37204166664,
      "d": 177.2539979166686,
      "v": 94
    },
    {
      "midi": 64,
      "hit": false,
      "t": 37766.37204166664,
      "d": 177.2539979166686,
      "v": 94
    },
    {
      "midi": 67,
      "hit": false,
      "t": 37766.37204166664,
      "d": 177.2539979166686,
      "v": 94
    },
    {
      "midi": 36,
      "hit": false,
      "t": 37868.83099999998,
      "d": 425.2046770833331,
      "v": 81
    },
    {
      "midi": 60,
      "hit": false,
      "t": 38114.73249999998,
      "d": 90.16388333333452,
      "v": 102
    },
    {
      "midi": 64,
      "hit": false,
      "t": 38114.73249999998,
      "d": 90.16388333333452,
      "v": 102
    },
    {
      "midi": 67,
      "hit": false,
      "t": 38114.73249999998,
      "d": 90.16388333333452,
      "v": 102
    },
    {
      "midi": 60,
      "hit": false,
      "t": 38360.63399999998,
      "d": 284.83590416666993,
      "v": 102
    },
    {
      "midi": 64,
      "hit": false,
      "t": 38360.63399999998,
      "d": 284.83590416666993,
      "v": 102
    },
    {
      "midi": 67,
      "hit": false,
      "t": 38360.63399999998,
      "d": 284.83590416666993,
      "v": 102
    },
    {
      "midi": 38,
      "hit": false,
      "t": 38360.63399999998,
      "d": 425.20467708334036,
      "v": 86
    },
    {
      "midi": 62,
      "hit": false,
      "t": 38749.97804166665,
      "d": 197.74578958333586,
      "v": 100
    },
    {
      "midi": 65,
      "hit": false,
      "t": 38749.97804166665,
      "d": 197.74578958333586,
      "v": 100
    },
    {
      "midi": 69,
      "hit": false,
      "t": 38749.97804166665,
      "d": 197.74578958333586,
      "v": 100
    },
    {
      "midi": 36,
      "hit": false,
      "t": 38852.43699999998,
      "d": 425.2046770833331,
      "v": 86
    },
    {
      "midi": 60,
      "hit": false,
      "t": 39098.33849999998,
      "d": 87.09011458333407,
      "v": 102
    },
    {
      "midi": 64,
      "hit": false,
      "t": 39098.33849999998,
      "d": 87.09011458333407,
      "v": 102
    },
    {
      "midi": 67,
      "hit": false,
      "t": 39098.33849999998,
      "d": 87.09011458333407,
      "v": 102
    },
    {
      "midi": 59,
      "hit": false,
      "t": 39344.23999999998,
      "d": 251.02444791666494,
      "v": 99
    },
    {
      "midi": 62,
      "hit": false,
      "t": 39344.23999999998,
      "d": 251.02444791666494,
      "v": 99
    },
    {
      "midi": 67,
      "hit": false,
      "t": 39344.23999999998,
      "d": 251.02444791666494,
      "v": 99
    },
    {
      "midi": 35,
      "hit": false,
      "t": 39344.23999999998,
      "d": 425.2046770833331,
      "v": 86
    },
    {
      "midi": 59,
      "hit": false,
      "t": 39733.58404166665,
      "d": 133.1966458333336,
      "v": 99
    },
    {
      "midi": 62,
      "hit": false,
      "t": 39733.58404166665,
      "d": 133.1966458333336,
      "v": 99
    },
    {
      "midi": 67,
      "hit": false,
      "t": 39733.58404166665,
      "d": 133.1966458333336,
      "v": 99
    },
    {
      "midi": 35,
      "hit": false,
      "t": 39836.04299999998,
      "d": 425.2046770833331,
      "v": 86
    },
    {
      "midi": 59,
      "hit": false,
      "t": 40081.94449999998,
      "d": 90.16388333333452,
      "v": 102
    },
    {
      "midi": 62,
      "hit": false,
      "t": 40081.94449999998,
      "d": 90.16388333333452,
      "v": 102
    },
    {
      "midi": 67,
      "hit": false,
      "t": 40081.94449999998,
      "d": 90.16388333333452,
      "v": 102
    },
    {
      "midi": 60,
      "hit": false,
      "t": 40327.84599999998,
      "d": 266.3932916666672,
      "v": 102
    },
    {
      "midi": 62,
      "hit": false,
      "t": 40327.84599999998,
      "d": 266.3932916666672,
      "v": 102
    },
    {
      "midi": 65,
      "hit": false,
      "t": 40327.84599999998,
      "d": 266.3932916666672,
      "v": 102
    },
    {
      "midi": 36,
      "hit": false,
      "t": 40327.84599999998,
      "d": 425.20467708334036,
      "v": 87
    },
    {
      "midi": 60,
      "hit": false,
      "t": 40717.190041666654,
      "d": 184.4261250000054,
      "v": 100
    },
    {
      "midi": 62,
      "hit": false,
      "t": 40717.190041666654,
      "d": 184.4261250000054,
      "v": 100
    },
    {
      "midi": 65,
      "hit": false,
      "t": 40717.190041666654,
      "d": 184.4261250000054,
      "v": 100
    },
    {
      "midi": 36,
      "hit": false,
      "t": 40819.64899999999,
      "d": 425.2046770833331,
      "v": 88
    },
    {
      "midi": 60,
      "hit": false,
      "t": 41065.55049999999,
      "d": 79.91798749999725,
      "v": 102
    },
    {
      "midi": 62,
      "hit": false,
      "t": 41065.55049999999,
      "d": 79.91798749999725,
      "v": 102
    },
    {
      "midi": 65,
      "hit": false,
      "t": 41065.55049999999,
      "d": 79.91798749999725,
      "v": 102
    },
    {
      "midi": 62,
      "hit": false,
      "t": 41311.45199999999,
      "d": 251.02444791666494,
      "v": 99
    },
    {
      "midi": 65,
      "hit": false,
      "t": 41311.45199999999,
      "d": 251.02444791666494,
      "v": 99
    },
    {
      "midi": 69,
      "hit": false,
      "t": 41311.45199999999,
      "d": 251.02444791666494,
      "v": 99
    },
    {
      "midi": 38,
      "hit": false,
      "t": 41311.45199999999,
      "d": 425.2046770833331,
      "v": 91
    },
    {
      "midi": 60,
      "hit": false,
      "t": 41700.796041666654,
      "d": 177.2539979166686,
      "v": 94
    },
    {
      "midi": 64,
      "hit": false,
      "t": 41700.796041666654,
      "d": 177.2539979166686,
      "v": 94
    },
    {
      "midi": 67,
      "hit": false,
      "t": 41700.796041666654,
      "d": 177.2539979166686,
      "v": 94
    },
    {
      "midi": 29,
      "hit": false,
      "t": 41803.25499999999,
      "d": 425.2046770833331,
      "v": 81
    },
    {
      "midi": 60,
      "hit": false,
      "t": 42049.15649999999,
      "d": 90.16388333333452,
      "v": 102
    },
    {
      "midi": 64,
      "hit": false,
      "t": 42049.15649999999,
      "d": 90.16388333333452,
      "v": 102
    },
    {
      "midi": 67,
      "hit": false,
      "t": 42049.15649999999,
      "d": 90.16388333333452,
      "v": 102
    },
    {
      "midi": 60,
      "hit": false,
      "t": 42295.05799999999,
      "d": 284.83590416666993,
      "v": 102
    },
    {
      "midi": 64,
      "hit": false,
      "t": 42295.05799999999,
      "d": 284.83590416666993,
      "v": 102
    },
    {
      "midi": 67,
      "hit": false,
      "t": 42295.05799999999,
      "d": 284.83590416666993,
      "v": 102
    },
    {
      "midi": 29,
      "hit": false,
      "t": 42295.05799999999,
      "d": 425.20467708334036,
      "v": 86
    },
    {
      "midi": 62,
      "hit": false,
      "t": 42684.40204166666,
      "d": 197.74578958333586,
      "v": 100
    },
    {
      "midi": 65,
      "hit": false,
      "t": 42684.40204166666,
      "d": 197.74578958333586,
      "v": 100
    },
    {
      "midi": 69,
      "hit": false,
      "t": 42684.40204166666,
      "d": 197.74578958333586,
      "v": 100
    },
    {
      "midi": 34,
      "hit": false,
      "t": 42786.861,
      "d": 425.2046770833331,
      "v": 86
    },
    {
      "midi": 60,
      "hit": false,
      "t": 43032.7625,
      "d": 87.09011458333407,
      "v": 102
    },
    {
      "midi": 64,
      "hit": false,
      "t": 43032.7625,
      "d": 87.09011458333407,
      "v": 102
    },
    {
      "midi": 67,
      "hit": false,
      "t": 43032.7625,
      "d": 87.09011458333407,
      "v": 102
    },
    {
      "midi": 58,
      "hit": false,
      "t": 43278.664,
      "d": 251.02444791666494,
      "v": 99
    },
    {
      "midi": 62,
      "hit": false,
      "t": 43278.664,
      "d": 251.02444791666494,
      "v": 99
    },
    {
      "midi": 65,
      "hit": false,
      "t": 43278.664,
      "d": 251.02444791666494,
      "v": 99
    },
    {
      "midi": 31,
      "hit": false,
      "t": 43278.664,
      "d": 425.2046770833331,
      "v": 86
    },
    {
      "midi": 58,
      "hit": false,
      "t": 43668.00804166666,
      "d": 133.1966458333336,
      "v": 99
    },
    {
      "midi": 62,
      "hit": false,
      "t": 43668.00804166666,
      "d": 133.1966458333336,
      "v": 99
    },
    {
      "midi": 65,
      "hit": false,
      "t": 43668.00804166666,
      "d": 133.1966458333336,
      "v": 99
    },
    {
      "midi": 31,
      "hit": false,
      "t": 43770.467,
      "d": 425.2046770833331,
      "v": 86
    },
    {
      "midi": 58,
      "hit": false,
      "t": 44016.3685,
      "d": 90.16388333333452,
      "v": 102
    },
    {
      "midi": 62,
      "hit": false,
      "t": 44016.3685,
      "d": 90.16388333333452,
      "v": 102
    },
    {
      "midi": 65,
      "hit": false,
      "t": 44016.3685,
      "d": 90.16388333333452,
      "v": 102
    },
    {
      "midi": 60,
      "hit": false,
      "t": 44262.27,
      "d": 266.3932916666672,
      "v": 102
    },
    {
      "midi": 64,
      "hit": false,
      "t": 44262.27,
      "d": 266.3932916666672,
      "v": 102
    },
    {
      "midi": 67,
      "hit": false,
      "t": 44262.27,
      "d": 266.3932916666672,
      "v": 102
    },
    {
      "midi": 33,
      "hit": false,
      "t": 44262.27,
      "d": 425.20467708334036,
      "v": 87
    },
    {
      "midi": 60,
      "hit": false,
      "t": 44651.61404166667,
      "d": 184.4261250000054,
      "v": 100
    },
    {
      "midi": 64,
      "hit": false,
      "t": 44651.61404166667,
      "d": 184.4261250000054,
      "v": 100
    },
    {
      "midi": 67,
      "hit": false,
      "t": 44651.61404166667,
      "d": 184.4261250000054,
      "v": 100
    },
    {
      "midi": 33,
      "hit": false,
      "t": 44754.073000000004,
      "d": 425.2046770833331,
      "v": 88
    },
    {
      "midi": 60,
      "hit": false,
      "t": 44999.974500000004,
      "d": 79.91798749999725,
      "v": 102
    },
    {
      "midi": 64,
      "hit": false,
      "t": 44999.974500000004,
      "d": 79.91798749999725,
      "v": 102
    },
    {
      "midi": 67,
      "hit": false,
      "t": 44999.974500000004,
      "d": 79.91798749999725,
      "v": 102
    },
    {
      "midi": 65,
      "hit": false,
      "t": 45246.90058958334,
      "d": 388.3194520833349,
      "v": 87
    },
    {
      "midi": 55,
      "hit": false,
      "t": 45250.998947916676,
      "d": 387.294862499999,
      "v": 87
    },
    {
      "midi": 57,
      "hit": false,
      "t": 45738.70358958334,
      "d": 408.8112437500022,
      "v": 87
    },
    {
      "midi": 65,
      "hit": false,
      "t": 45742.801947916676,
      "d": 407.78665416666627,
      "v": 87
    },
    {
      "midi": 65,
      "hit": false,
      "t": 46230.50658958334,
      "d": 376.0243770833331,
      "v": 89
    },
    {
      "midi": 58,
      "hit": false,
      "t": 46234.604947916676,
      "d": 373.9751979166613,
      "v": 89
    },
    {
      "midi": 60,
      "hit": false,
      "t": 46721.285,
      "d": 300.2047479166649,
      "v": 90
    },
    {
      "midi": 64,
      "hit": false,
      "t": 46721.285,
      "d": 300.2047479166649,
      "v": 90
    },
    {
      "midi": 62,
      "hit": false,
      "t": 47105.50609375,
      "d": 284.83590416666266,
      "v": 87
    },
    {
      "midi": 65,
      "hit": false,
      "t": 47110.62904166667,
      "d": 284.83590416666266,
      "v": 87
    },
    {
      "midi": 64,
      "hit": false,
      "t": 47454.89114166666,
      "d": 84.01634583333362,
      "v": 85
    },
    {
      "midi": 72,
      "hit": false,
      "t": 47454.89114166666,
      "d": 84.01634583333362,
      "v": 85
    },
    {
      "midi": 67,
      "hit": false,
      "t": 47460.014089583325,
      "d": 84.01634583333362,
      "v": 85
    },
    {
      "midi": 60,
      "hit": false,
      "t": 47464.11244791666,
      "d": 81.9671666666618,
      "v": 85
    },
    {
      "midi": 67,
      "hit": false,
      "t": 47699.768052083324,
      "d": 85.04093541666953,
      "v": 92
    },
    {
      "midi": 60,
      "hit": false,
      "t": 47700.79264166666,
      "d": 86.06552499999816,
      "v": 92
    },
    {
      "midi": 72,
      "hit": false,
      "t": 47700.79264166666,
      "d": 86.06552499999816,
      "v": 92
    },
    {
      "midi": 64,
      "hit": false,
      "t": 47705.915589583325,
      "d": 86.06552499999816,
      "v": 92
    },
    {
      "midi": 60,
      "hit": false,
      "t": 47945.669552083324,
      "d": 74.79503958333225,
      "v": 92
    },
    {
      "midi": 64,
      "hit": false,
      "t": 47955.915447916654,
      "d": 74.79503958333225,
      "v": 92
    },
    {
      "midi": 67,
      "hit": false,
      "t": 47955.915447916654,
      "d": 74.79503958333225,
      "v": 92
    },
    {
      "midi": 72,
      "hit": false,
      "t": 47955.915447916654,
      "d": 74.79503958333225,
      "v": 92
    },
    {
      "midi": 72,
      "hit": false,
      "t": 48191.571052083316,
      "d": 315.5735916666599,
      "v": 92
    },
    {
      "midi": 64,
      "hit": false,
      "t": 48196.69399999998,
      "d": 315.5735916666599,
      "v": 92
    },
    {
      "midi": 67,
      "hit": false,
      "t": 48196.69399999998,
      "d": 315.5735916666599,
      "v": 92
    },
    {
      "midi": 60,
      "hit": false,
      "t": 48201.816947916646,
      "d": 315.5735916666599,
      "v": 92
    },
    {
      "midi": 69,
      "hit": false,
      "t": 48580.91509374997,
      "d": 377.048966666669,
      "v": 86
    },
    {
      "midi": 74,
      "hit": false,
      "t": 48587.06263124997,
      "d": 232.5818354166695,
      "v": 86
    },
    {
      "midi": 62,
      "hit": false,
      "t": 48591.16098958331,
      "d": 377.0489666666617,
      "v": 86
    },
    {
      "midi": 65,
      "hit": false,
      "t": 48591.16098958331,
      "d": 377.0489666666617,
      "v": 86
    },
    {
      "midi": 74,
      "hit": false,
      "t": 48827.84118333331,
      "d": 60.450785416665894,
      "v": 74
    },
    {
      "midi": 74,
      "hit": false,
      "t": 48935.42308958331,
      "d": 196.72119999999268,
      "v": 84
    },
    {
      "midi": 55,
      "hit": false,
      "t": 49176.20164166664,
      "d": 388.3194520833349,
      "v": 87
    },
    {
      "midi": 65,
      "hit": false,
      "t": 49181.3245895833,
      "d": 388.3194520833349,
      "v": 87
    },
    {
      "midi": 57,
      "hit": false,
      "t": 49666.9800520833,
      "d": 407.78665416666627,
      "v": 87
    },
    {
      "midi": 65,
      "hit": false,
      "t": 49677.22594791663,
      "d": 407.78665416666627,
      "v": 87
    },
    {
      "midi": 58,
      "hit": false,
      "t": 50159.80764166663,
      "d": 376.0243770833331,
      "v": 89
    },
    {
      "midi": 65,
      "hit": false,
      "t": 50164.930589583295,
      "d": 376.0243770833331,
      "v": 89
    },
    {
      "midi": 64,
      "hit": false,
      "t": 50650.586052083294,
      "d": 300.2047479166722,
      "v": 90
    },
    {
      "midi": 60,
      "hit": false,
      "t": 50651.61064166663,
      "d": 301.22933750000084,
      "v": 90
    },
    {
      "midi": 62,
      "hit": false,
      "t": 51039.930093749965,
      "d": 284.83590416666266,
      "v": 87
    },
    {
      "midi": 65,
      "hit": false,
      "t": 51050.175989583295,
      "d": 284.83590416666266,
      "v": 87
    },
    {
      "midi": 67,
      "hit": false,
      "t": 51393.41349999996,
      "d": 81.96716666666907,
      "v": 85
    },
    {
      "midi": 64,
      "hit": false,
      "t": 51394.438089583295,
      "d": 84.01634583333362,
      "v": 85
    },
    {
      "midi": 60,
      "hit": false,
      "t": 51398.53644791663,
      "d": 81.9671666666618,
      "v": 85
    },
    {
      "midi": 72,
      "hit": false,
      "t": 51398.53644791663,
      "d": 81.9671666666618,
      "v": 85
    },
    {
      "midi": 72,
      "hit": false,
      "t": 51635.21664166663,
      "d": 86.06552500000544,
      "v": 92
    },
    {
      "midi": 67,
      "hit": false,
      "t": 51639.314999999966,
      "d": 85.04093541666953,
      "v": 92
    },
    {
      "midi": 64,
      "hit": false,
      "t": 51640.3395895833,
      "d": 86.06552499999816,
      "v": 92
    },
    {
      "midi": 60,
      "hit": false,
      "t": 51644.43794791664,
      "d": 85.04093541666225,
      "v": 92
    },
    {
      "midi": 67,
      "hit": false,
      "t": 51885.216499999966,
      "d": 74.79503958333953,
      "v": 92
    },
    {
      "midi": 72,
      "hit": false,
      "t": 51885.216499999966,
      "d": 74.79503958333953,
      "v": 92
    },
    {
      "midi": 64,
      "hit": false,
      "t": 51886.2410895833,
      "d": 75.81962916666816,
      "v": 92
    },
    {
      "midi": 60,
      "hit": false,
      "t": 51890.33944791664,
      "d": 74.79503958333225,
      "v": 92
    },
    {
      "midi": 67,
      "hit": false,
      "t": 52125.9950520833,
      "d": 315.5735916666745,
      "v": 92
    },
    {
      "midi": 72,
      "hit": false,
      "t": 52127.01964166664,
      "d": 316.5981812500031,
      "v": 92
    },
    {
      "midi": 60,
      "hit": false,
      "t": 52131.11799999997,
      "d": 315.5735916666672,
      "v": 92
    },
    {
      "midi": 64,
      "hit": false,
      "t": 52131.11799999997,
      "d": 315.5735916666672,
      "v": 92
    },
    {
      "midi": 62,
      "hit": false,
      "t": 52515.33909374997,
      "d": 377.048966666669,
      "v": 86
    },
    {
      "midi": 65,
      "hit": false,
      "t": 52515.33909374997,
      "d": 377.048966666669,
      "v": 86
    },
    {
      "midi": 74,
      "hit": false,
      "t": 52516.36368333331,
      "d": 244.87691041666403,
      "v": 86
    },
    {
      "midi": 69,
      "hit": false,
      "t": 52516.36368333331,
      "d": 378.07355624999764,
      "v": 86
    },
    {
      "midi": 74,
      "hit": false,
      "t": 52771.4864895833,
      "d": 46.106531249999534,
      "v": 74
    },
    {
      "midi": 74,
      "hit": false,
      "t": 52873.94544791664,
      "d": 194.6720208333354,
      "v": 84
    },
    {
      "midi": 65,
      "hit": false,
      "t": 53114.72399999997,
      "d": 387.294862499999,
      "v": 87
    },
    {
      "midi": 55,
      "hit": false,
      "t": 53119.84694791664,
      "d": 387.294862499999,
      "v": 87
    },
    {
      "midi": 57,
      "hit": false,
      "t": 53606.52699999997,
      "d": 407.78665416666627,
      "v": 87
    },
    {
      "midi": 65,
      "hit": false,
      "t": 53611.64994791664,
      "d": 407.78665416666627,
      "v": 87
    },
    {
      "midi": 58,
      "hit": false,
      "t": 54094.231641666636,
      "d": 376.0243770833331,
      "v": 89
    },
    {
      "midi": 65,
      "hit": false,
      "t": 54099.3545895833,
      "d": 376.0243770833331,
      "v": 89
    },
    {
      "midi": 64,
      "hit": false,
      "t": 54590.132999999965,
      "d": 300.2047479166649,
      "v": 90
    },
    {
      "midi": 60,
      "hit": false,
      "t": 54595.25594791663,
      "d": 300.2047479166649,
      "v": 90
    },
    {
      "midi": 65,
      "hit": false,
      "t": 54974.354093749964,
      "d": 284.83590416666993,
      "v": 87
    },
    {
      "midi": 62,
      "hit": false,
      "t": 54975.3786833333,
      "d": 285.86049374999857,
      "v": 87
    },
    {
      "midi": 64,
      "hit": false,
      "t": 55327.837499999965,
      "d": 81.96716666666907,
      "v": 85
    },
    {
      "midi": 67,
      "hit": false,
      "t": 55328.8620895833,
      "d": 84.01634583333362,
      "v": 85
    },
    {
      "midi": 72,
      "hit": false,
      "t": 55328.8620895833,
      "d": 84.01634583333362,
      "v": 85
    },
    {
      "midi": 60,
      "hit": false,
      "t": 55332.96044791664,
      "d": 81.9671666666618,
      "v": 85
    },
    {
      "midi": 60,
      "hit": false,
      "t": 55568.6160520833,
      "d": 85.04093541666953,
      "v": 92
    },
    {
      "midi": 72,
      "hit": false,
      "t": 55568.6160520833,
      "d": 85.04093541666953,
      "v": 92
    },
    {
      "midi": 64,
      "hit": false,
      "t": 55573.738999999965,
      "d": 85.04093541666953,
      "v": 92
    },
    {
      "midi": 67,
      "hit": false,
      "t": 55574.7635895833,
      "d": 86.06552499999816,
      "v": 92
    },
    {
      "midi": 60,
      "hit": false,
      "t": 55819.640499999965,
      "d": 74.79503958333225,
      "v": 92
    },
    {
      "midi": 64,
      "hit": false,
      "t": 55819.640499999965,
      "d": 74.79503958333225,
      "v": 92
    },
    {
      "midi": 72,
      "hit": false,
      "t": 55819.640499999965,
      "d": 74.79503958333225,
      "v": 92
    },
    {
      "midi": 67,
      "hit": false,
      "t": 55824.76344791663,
      "d": 74.79503958333225,
      "v": 92
    },
    {
      "midi": 60,
      "hit": false,
      "t": 56061.44364166663,
      "d": 316.5981812500031,
      "v": 92
    },
    {
      "midi": 64,
      "hit": false,
      "t": 56065.541999999965,
      "d": 315.5735916666672,
      "v": 92
    },
    {
      "midi": 67,
      "hit": false,
      "t": 56070.66494791663,
      "d": 315.5735916666672,
      "v": 92
    },
    {
      "midi": 72,
      "hit": false,
      "t": 56070.66494791663,
      "d": 315.5735916666672,
      "v": 92
    },
    {
      "midi": 65,
      "hit": false,
      "t": 56450.7876833333,
      "d": 378.0735562500049,
      "v": 86
    },
    {
      "midi": 69,
      "hit": false,
      "t": 56450.7876833333,
      "d": 378.0735562500049,
      "v": 86
    },
    {
      "midi": 74,
      "hit": false,
      "t": 56454.886041666636,
      "d": 233.60642499999813,
      "v": 86
    },
    {
      "midi": 62,
      "hit": false,
      "t": 56460.0089895833,
      "d": 377.048966666669,
      "v": 86
    },
    {
      "midi": 74,
      "hit": false,
      "t": 56696.6891833333,
      "d": 58.40160625000135,
      "v": 74
    },
    {
      "midi": 74,
      "hit": false,
      "t": 56808.36944791664,
      "d": 194.6720208333354,
      "v": 84
    },
    {
      "midi": 46,
      "hit": false,
      "t": 57044.02505208331,
      "d": 387.294862499999,
      "v": 87
    },
    {
      "midi": 58,
      "hit": false,
      "t": 57045.04964166664,
      "d": 388.31945208332763,
      "v": 87
    },
    {
      "midi": 65,
      "hit": false,
      "t": 57045.04964166664,
      "d": 388.31945208332763,
      "v": 87
    },
    {
      "midi": 65,
      "hit": false,
      "t": 57536.852641666635,
      "d": 408.8112437500022,
      "v": 87
    },
    {
      "midi": 55,
      "hit": false,
      "t": 57540.95099999997,
      "d": 407.78665416666627,
      "v": 87
    },
    {
      "midi": 43,
      "hit": false,
      "t": 57541.97558958331,
      "d": 408.8112437499949,
      "v": 87
    },
    {
      "midi": 41,
      "hit": false,
      "t": 58033.7785895833,
      "d": 376.0243770833331,
      "v": 89
    },
    {
      "midi": 65,
      "hit": false,
      "t": 58033.7785895833,
      "d": 376.0243770833331,
      "v": 89
    },
    {
      "midi": 53,
      "hit": false,
      "t": 58037.87694791664,
      "d": 373.9751979166613,
      "v": 89
    },
    {
      "midi": 55,
      "hit": false,
      "t": 58524.556999999964,
      "d": 373.97519791666855,
      "v": 90
    },
    {
      "midi": 43,
      "hit": false,
      "t": 58525.5815895833,
      "d": 376.0243770833331,
      "v": 90
    },
    {
      "midi": 65,
      "hit": false,
      "t": 58525.5815895833,
      "d": 376.0243770833331,
      "v": 90
    },
    {
      "midi": 46,
      "hit": false,
      "t": 59011.2370520833,
      "d": 284.83590416666993,
      "v": 87
    },
    {
      "midi": 65,
      "hit": false,
      "t": 59012.261641666635,
      "d": 285.86049374999857,
      "v": 87
    },
    {
      "midi": 58,
      "hit": false,
      "t": 59017.3845895833,
      "d": 285.86049374999857,
      "v": 87
    },
    {
      "midi": 58,
      "hit": false,
      "t": 59508.162999999964,
      "d": 387.2948625000063,
      "v": 87
    },
    {
      "midi": 46,
      "hit": false,
      "t": 59509.1875895833,
      "d": 388.3194520833349,
      "v": 87
    },
    {
      "midi": 65,
      "hit": false,
      "t": 59513.285947916636,
      "d": 387.294862499999,
      "v": 87
    },
    {
      "midi": 60,
      "hit": false,
      "t": 59995.867641666635,
      "d": 142.41795208333497,
      "v": 87
    },
    {
      "midi": 48,
      "hit": false,
      "t": 60000.9905895833,
      "d": 142.41795208333497,
      "v": 87
    },
    {
      "midi": 64,
      "hit": false,
      "t": 60000.9905895833,
      "d": 142.41795208333497,
      "v": 87
    },
    {
      "midi": 60,
      "hit": false,
      "t": 60240.7445520833,
      "d": 387.294862499999,
      "v": 87
    },
    {
      "midi": 48,
      "hit": false,
      "t": 60245.867499999964,
      "d": 387.294862499999,
      "v": 87
    },
    {
      "midi": 64,
      "hit": false,
      "t": 60246.8920895833,
      "d": 388.31945208332763,
      "v": 87
    },
    {
      "midi": 60,
      "hit": false,
      "t": 60732.54755208329,
      "d": 387.294862499999,
      "v": 87
    },
    {
      "midi": 50,
      "hit": false,
      "t": 60737.67049999996,
      "d": 387.294862499999,
      "v": 87
    },
    {
      "midi": 64,
      "hit": false,
      "t": 60738.69508958329,
      "d": 388.31945208332763,
      "v": 87
    },
    {
      "midi": 60,
      "hit": false,
      "t": 61225.37514166662,
      "d": 142.41795208333497,
      "v": 87
    },
    {
      "midi": 50,
      "hit": false,
      "t": 61230.498089583285,
      "d": 142.41795208333497,
      "v": 87
    },
    {
      "midi": 64,
      "hit": false,
      "t": 61230.498089583285,
      "d": 142.41795208333497,
      "v": 87
    },
    {
      "midi": 64,
      "hit": false,
      "t": 61470.252052083284,
      "d": 387.294862499999,
      "v": 78
    },
    {
      "midi": 50,
      "hit": false,
      "t": 61480.497947916614,
      "d": 387.294862499999,
      "v": 78
    },
    {
      "midi": 60,
      "hit": false,
      "t": 61480.497947916614,
      "d": 387.294862499999,
      "v": 78
    },
    {
      "midi": 60,
      "hit": false,
      "t": 61963.07964166661,
      "d": 142.41795208333497,
      "v": 87
    },
    {
      "midi": 50,
      "hit": false,
      "t": 61968.20258958328,
      "d": 142.41795208333497,
      "v": 87
    },
    {
      "midi": 64,
      "hit": false,
      "t": 61968.20258958328,
      "d": 142.41795208333497,
      "v": 87
    },
    {
      "midi": 60,
      "hit": false,
      "t": 62207.95655208328,
      "d": 387.294862499999,
      "v": 87
    },
    {
      "midi": 50,
      "hit": false,
      "t": 62213.07949999994,
      "d": 387.294862499999,
      "v": 87
    },
    {
      "midi": 64,
      "hit": false,
      "t": 62214.10408958328,
      "d": 388.31945208332763,
      "v": 87
    },
    {
      "midi": 62,
      "hit": false,
      "t": 62699.75955208327,
      "d": 387.294862499999,
      "v": 87
    },
    {
      "midi": 50,
      "hit": false,
      "t": 62704.882499999934,
      "d": 387.294862499999,
      "v": 87
    },
    {
      "midi": 66,
      "hit": false,
      "t": 62705.90708958327,
      "d": 388.31945208332763,
      "v": 87
    },
    {
      "midi": 62,
      "hit": false,
      "t": 63192.5871416666,
      "d": 142.41795208333497,
      "v": 87
    },
    {
      "midi": 50,
      "hit": false,
      "t": 63197.71008958326,
      "d": 142.41795208333497,
      "v": 87
    },
    {
      "midi": 66,
      "hit": false,
      "t": 63197.71008958326,
      "d": 142.41795208333497,
      "v": 87
    },
    {
      "midi": 62,
      "hit": false,
      "t": 63438.4886416666,
      "d": 142.41795208333497,
      "v": 98
    },
    {
      "midi": 50,
      "hit": false,
      "t": 63443.61158958326,
      "d": 142.41795208333497,
      "v": 98
    },
    {
      "midi": 66,
      "hit": false,
      "t": 63443.61158958326,
      "d": 142.41795208333497,
      "v": 98
    },
    {
      "midi": 62,
      "hit": false,
      "t": 63683.36555208326,
      "d": 141.39336249999906,
      "v": 87
    },
    {
      "midi": 50,
      "hit": false,
      "t": 63688.48849999993,
      "d": 141.39336249999906,
      "v": 87
    },
    {
      "midi": 66,
      "hit": false,
      "t": 63689.51308958326,
      "d": 142.4179520833277,
      "v": 87
    },
    {
      "midi": 62,
      "hit": false,
      "t": 63930.29164166659,
      "d": 142.41795208333497,
      "v": 98
    },
    {
      "midi": 50,
      "hit": false,
      "t": 63935.414589583255,
      "d": 142.41795208333497,
      "v": 98
    },
    {
      "midi": 66,
      "hit": false,
      "t": 63935.414589583255,
      "d": 142.41795208333497,
      "v": 98
    },
    {
      "midi": 62,
      "hit": false,
      "t": 64175.168552083254,
      "d": 141.39336249999906,
      "v": 87
    },
    {
      "midi": 50,
      "hit": false,
      "t": 64180.29149999992,
      "d": 141.39336249999906,
      "v": 87
    },
    {
      "midi": 66,
      "hit": false,
      "t": 64181.316089583255,
      "d": 142.4179520833277,
      "v": 87
    },
    {
      "midi": 62,
      "hit": false,
      "t": 64422.09464166658,
      "d": 142.41795208333497,
      "v": 98
    },
    {
      "midi": 50,
      "hit": false,
      "t": 64427.21758958325,
      "d": 142.41795208333497,
      "v": 98
    },
    {
      "midi": 66,
      "hit": false,
      "t": 64427.21758958325,
      "d": 142.41795208333497,
      "v": 98
    },
    {
      "midi": 62,
      "hit": false,
      "t": 64666.97155208325,
      "d": 141.39336249999906,
      "v": 87
    },
    {
      "midi": 50,
      "hit": false,
      "t": 64672.09449999991,
      "d": 141.39336249999906,
      "v": 87
    },
    {
      "midi": 66,
      "hit": false,
      "t": 64673.11908958325,
      "d": 142.4179520833277,
      "v": 87
    },
    {
      "midi": 62,
      "hit": false,
      "t": 64917.99599999991,
      "d": 251.02444791666494,
      "v": 99
    },
    {
      "midi": 65,
      "hit": false,
      "t": 64917.99599999991,
      "d": 251.02444791666494,
      "v": 99
    },
    {
      "midi": 69,
      "hit": false,
      "t": 64917.99599999991,
      "d": 251.02444791666494,
      "v": 99
    },
    {
      "midi": 38,
      "hit": false,
      "t": 64917.99599999991,
      "d": 425.2046770833331,
      "v": 91
    },
    {
      "midi": 60,
      "hit": false,
      "t": 65307.340041666575,
      "d": 177.2539979166686,
      "v": 94
    },
    {
      "midi": 64,
      "hit": false,
      "t": 65307.340041666575,
      "d": 177.2539979166686,
      "v": 94
    },
    {
      "midi": 67,
      "hit": false,
      "t": 65307.340041666575,
      "d": 177.2539979166686,
      "v": 94
    },
    {
      "midi": 36,
      "hit": false,
      "t": 65409.79899999991,
      "d": 425.2046770833258,
      "v": 81
    },
    {
      "midi": 60,
      "hit": false,
      "t": 65655.7004999999,
      "d": 90.16388333332725,
      "v": 102
    },
    {
      "midi": 64,
      "hit": false,
      "t": 65655.7004999999,
      "d": 90.16388333332725,
      "v": 102
    },
    {
      "midi": 67,
      "hit": false,
      "t": 65655.7004999999,
      "d": 90.16388333332725,
      "v": 102
    },
    {
      "midi": 60,
      "hit": false,
      "t": 65901.6019999999,
      "d": 284.83590416666993,
      "v": 102
    },
    {
      "midi": 64,
      "hit": false,
      "t": 65901.6019999999,
      "d": 284.83590416666993,
      "v": 102
    },
    {
      "midi": 67,
      "hit": false,
      "t": 65901.6019999999,
      "d": 284.83590416666993,
      "v": 102
    },
    {
      "midi": 38,
      "hit": false,
      "t": 65901.6019999999,
      "d": 425.20467708334036,
      "v": 86
    },
    {
      "midi": 62,
      "hit": false,
      "t": 66290.94604166657,
      "d": 197.74578958333586,
      "v": 100
    },
    {
      "midi": 65,
      "hit": false,
      "t": 66290.94604166657,
      "d": 197.74578958333586,
      "v": 100
    },
    {
      "midi": 69,
      "hit": false,
      "t": 66290.94604166657,
      "d": 197.74578958333586,
      "v": 100
    },
    {
      "midi": 36,
      "hit": false,
      "t": 66393.4049999999,
      "d": 425.20467708334036,
      "v": 86
    },
    {
      "midi": 60,
      "hit": false,
      "t": 66639.3064999999,
      "d": 87.09011458333407,
      "v": 102
    },
    {
      "midi": 64,
      "hit": false,
      "t": 66639.3064999999,
      "d": 87.09011458333407,
      "v": 102
    },
    {
      "midi": 67,
      "hit": false,
      "t": 66639.3064999999,
      "d": 87.09011458333407,
      "v": 102
    },
    {
      "midi": 59,
      "hit": false,
      "t": 66885.2079999999,
      "d": 251.02444791667222,
      "v": 99
    },
    {
      "midi": 62,
      "hit": false,
      "t": 66885.2079999999,
      "d": 251.02444791667222,
      "v": 99
    },
    {
      "midi": 67,
      "hit": false,
      "t": 66885.2079999999,
      "d": 251.02444791667222,
      "v": 99
    },
    {
      "midi": 35,
      "hit": false,
      "t": 66885.2079999999,
      "d": 425.20467708334036,
      "v": 86
    },
    {
      "midi": 59,
      "hit": false,
      "t": 67274.55204166657,
      "d": 133.1966458333336,
      "v": 99
    },
    {
      "midi": 62,
      "hit": false,
      "t": 67274.55204166657,
      "d": 133.1966458333336,
      "v": 99
    },
    {
      "midi": 67,
      "hit": false,
      "t": 67274.55204166657,
      "d": 133.1966458333336,
      "v": 99
    },
    {
      "midi": 35,
      "hit": false,
      "t": 67377.0109999999,
      "d": 425.20467708334036,
      "v": 86
    },
    {
      "midi": 59,
      "hit": false,
      "t": 67622.9124999999,
      "d": 90.16388333332725,
      "v": 102
    },
    {
      "midi": 62,
      "hit": false,
      "t": 67622.9124999999,
      "d": 90.16388333332725,
      "v": 102
    },
    {
      "midi": 67,
      "hit": false,
      "t": 67622.9124999999,
      "d": 90.16388333332725,
      "v": 102
    },
    {
      "midi": 60,
      "hit": false,
      "t": 67868.8139999999,
      "d": 266.3932916666672,
      "v": 102
    },
    {
      "midi": 62,
      "hit": false,
      "t": 67868.8139999999,
      "d": 266.3932916666672,
      "v": 102
    },
    {
      "midi": 65,
      "hit": false,
      "t": 67868.8139999999,
      "d": 266.3932916666672,
      "v": 102
    },
    {
      "midi": 36,
      "hit": false,
      "t": 67868.8139999999,
      "d": 425.20467708334036,
      "v": 87
    },
    {
      "midi": 60,
      "hit": false,
      "t": 68258.15804166657,
      "d": 184.42612499999814,
      "v": 100
    },
    {
      "midi": 62,
      "hit": false,
      "t": 68258.15804166657,
      "d": 184.42612499999814,
      "v": 100
    },
    {
      "midi": 65,
      "hit": false,
      "t": 68258.15804166657,
      "d": 184.42612499999814,
      "v": 100
    },
    {
      "midi": 36,
      "hit": false,
      "t": 68360.6169999999,
      "d": 425.20467708334036,
      "v": 88
    },
    {
      "midi": 60,
      "hit": false,
      "t": 68606.5184999999,
      "d": 79.91798749999725,
      "v": 102
    },
    {
      "midi": 62,
      "hit": false,
      "t": 68606.5184999999,
      "d": 79.91798749999725,
      "v": 102
    },
    {
      "midi": 65,
      "hit": false,
      "t": 68606.5184999999,
      "d": 79.91798749999725,
      "v": 102
    },
    {
      "midi": 62,
      "hit": false,
      "t": 68852.4199999999,
      "d": 251.02444791667222,
      "v": 99
    },
    {
      "midi": 65,
      "hit": false,
      "t": 68852.4199999999,
      "d": 251.02444791667222,
      "v": 99
    },
    {
      "midi": 69,
      "hit": false,
      "t": 68852.4199999999,
      "d": 251.02444791667222,
      "v": 99
    },
    {
      "midi": 38,
      "hit": false,
      "t": 68852.4199999999,
      "d": 425.20467708334036,
      "v": 91
    },
    {
      "midi": 60,
      "hit": false,
      "t": 69241.76404166657,
      "d": 177.25399791666132,
      "v": 94
    },
    {
      "midi": 64,
      "hit": false,
      "t": 69241.76404166657,
      "d": 177.25399791666132,
      "v": 94
    },
    {
      "midi": 67,
      "hit": false,
      "t": 69241.76404166657,
      "d": 177.25399791666132,
      "v": 94
    },
    {
      "midi": 29,
      "hit": false,
      "t": 69344.2229999999,
      "d": 425.2046770833258,
      "v": 81
    },
    {
      "midi": 60,
      "hit": false,
      "t": 69590.12449999989,
      "d": 90.16388333332725,
      "v": 102
    },
    {
      "midi": 64,
      "hit": false,
      "t": 69590.12449999989,
      "d": 90.16388333332725,
      "v": 102
    },
    {
      "midi": 67,
      "hit": false,
      "t": 69590.12449999989,
      "d": 90.16388333332725,
      "v": 102
    },
    {
      "midi": 60,
      "hit": false,
      "t": 69836.02599999988,
      "d": 284.83590416666993,
      "v": 102
    },
    {
      "midi": 64,
      "hit": false,
      "t": 69836.02599999988,
      "d": 284.83590416666993,
      "v": 102
    },
    {
      "midi": 67,
      "hit": false,
      "t": 69836.02599999988,
      "d": 284.83590416666993,
      "v": 102
    },
    {
      "midi": 29,
      "hit": false,
      "t": 69836.02599999988,
      "d": 425.20467708334036,
      "v": 86
    },
    {
      "midi": 62,
      "hit": false,
      "t": 70225.37004166655,
      "d": 197.74578958333586,
      "v": 100
    },
    {
      "midi": 65,
      "hit": false,
      "t": 70225.37004166655,
      "d": 197.74578958333586,
      "v": 100
    },
    {
      "midi": 69,
      "hit": false,
      "t": 70225.37004166655,
      "d": 197.74578958333586,
      "v": 100
    },
    {
      "midi": 34,
      "hit": false,
      "t": 70327.82899999988,
      "d": 425.20467708334036,
      "v": 86
    },
    {
      "midi": 60,
      "hit": false,
      "t": 70573.73049999989,
      "d": 87.09011458333407,
      "v": 102
    },
    {
      "midi": 64,
      "hit": false,
      "t": 70573.73049999989,
      "d": 87.09011458333407,
      "v": 102
    },
    {
      "midi": 67,
      "hit": false,
      "t": 70573.73049999989,
      "d": 87.09011458333407,
      "v": 102
    },
    {
      "midi": 58,
      "hit": false,
      "t": 70819.63199999988,
      "d": 251.02444791667222,
      "v": 99
    },
    {
      "midi": 62,
      "hit": false,
      "t": 70819.63199999988,
      "d": 251.02444791667222,
      "v": 99
    },
    {
      "midi": 65,
      "hit": false,
      "t": 70819.63199999988,
      "d": 251.02444791667222,
      "v": 99
    },
    {
      "midi": 31,
      "hit": false,
      "t": 70819.63199999988,
      "d": 425.20467708334036,
      "v": 86
    },
    {
      "midi": 58,
      "hit": false,
      "t": 71208.97604166655,
      "d": 133.1966458333336,
      "v": 99
    },
    {
      "midi": 62,
      "hit": false,
      "t": 71208.97604166655,
      "d": 133.1966458333336,
      "v": 99
    },
    {
      "midi": 65,
      "hit": false,
      "t": 71208.97604166655,
      "d": 133.1966458333336,
      "v": 99
    },
    {
      "midi": 31,
      "hit": false,
      "t": 71311.43499999988,
      "d": 425.20467708334036,
      "v": 86
    },
    {
      "midi": 58,
      "hit": false,
      "t": 71557.33649999989,
      "d": 90.16388333332725,
      "v": 102
    },
    {
      "midi": 62,
      "hit": false,
      "t": 71557.33649999989,
      "d": 90.16388333332725,
      "v": 102
    },
    {
      "midi": 65,
      "hit": false,
      "t": 71557.33649999989,
      "d": 90.16388333332725,
      "v": 102
    },
    {
      "midi": 60,
      "hit": false,
      "t": 71803.23799999988,
      "d": 266.3932916666672,
      "v": 102
    },
    {
      "midi": 64,
      "hit": false,
      "t": 71803.23799999988,
      "d": 266.3932916666672,
      "v": 102
    },
    {
      "midi": 67,
      "hit": false,
      "t": 71803.23799999988,
      "d": 266.3932916666672,
      "v": 102
    },
    {
      "midi": 33,
      "hit": false,
      "t": 71803.23799999988,
      "d": 425.20467708334036,
      "v": 87
    },
    {
      "midi": 60,
      "hit": false,
      "t": 72192.58204166655,
      "d": 184.42612499999814,
      "v": 100
    },
    {
      "midi": 64,
      "hit": false,
      "t": 72192.58204166655,
      "d": 184.42612499999814,
      "v": 100
    },
    {
      "midi": 67,
      "hit": false,
      "t": 72192.58204166655,
      "d": 184.42612499999814,
      "v": 100
    },
    {
      "midi": 33,
      "hit": false,
      "t": 72295.04099999988,
      "d": 425.20467708334036,
      "v": 88
    },
    {
      "midi": 60,
      "hit": false,
      "t": 72540.94249999989,
      "d": 79.91798749999725,
      "v": 102
    },
    {
      "midi": 64,
      "hit": false,
      "t": 72540.94249999989,
      "d": 79.91798749999725,
      "v": 102
    },
    {
      "midi": 67,
      "hit": false,
      "t": 72540.94249999989,
      "d": 79.91798749999725,
      "v": 102
    },
    {
      "midi": 62,
      "hit": false,
      "t": 72786.84399999988,
      "d": 251.02444791667222,
      "v": 99
    },
    {
      "midi": 65,
      "hit": false,
      "t": 72786.84399999988,
      "d": 251.02444791667222,
      "v": 99
    },
    {
      "midi": 69,
      "hit": false,
      "t": 72786.84399999988,
      "d": 251.02444791667222,
      "v": 99
    },
    {
      "midi": 38,
      "hit": false,
      "t": 72786.84399999988,
      "d": 425.20467708334036,
      "v": 91
    },
    {
      "midi": 60,
      "hit": false,
      "t": 73176.18804166655,
      "d": 177.25399791666132,
      "v": 94
    },
    {
      "midi": 64,
      "hit": false,
      "t": 73176.18804166655,
      "d": 177.25399791666132,
      "v": 94
    },
    {
      "midi": 67,
      "hit": false,
      "t": 73176.18804166655,
      "d": 177.25399791666132,
      "v": 94
    },
    {
      "midi": 36,
      "hit": false,
      "t": 73278.64699999988,
      "d": 425.2046770833258,
      "v": 81
    },
    {
      "midi": 60,
      "hit": false,
      "t": 73524.54849999987,
      "d": 90.16388333332725,
      "v": 102
    },
    {
      "midi": 64,
      "hit": false,
      "t": 73524.54849999987,
      "d": 90.16388333332725,
      "v": 102
    },
    {
      "midi": 67,
      "hit": false,
      "t": 73524.54849999987,
      "d": 90.16388333332725,
      "v": 102
    },
    {
      "midi": 60,
      "hit": false,
      "t": 73770.44999999987,
      "d": 284.83590416666993,
      "v": 102
    },
    {
      "midi": 64,
      "hit": false,
      "t": 73770.44999999987,
      "d": 284.83590416666993,
      "v": 102
    },
    {
      "midi": 67,
      "hit": false,
      "t": 73770.44999999987,
      "d": 284.83590416666993,
      "v": 102
    },
    {
      "midi": 38,
      "hit": false,
      "t": 73770.44999999987,
      "d": 425.20467708334036,
      "v": 86
    },
    {
      "midi": 62,
      "hit": false,
      "t": 74159.79404166654,
      "d": 197.74578958333586,
      "v": 100
    },
    {
      "midi": 65,
      "hit": false,
      "t": 74159.79404166654,
      "d": 197.74578958333586,
      "v": 100
    },
    {
      "midi": 69,
      "hit": false,
      "t": 74159.79404166654,
      "d": 197.74578958333586,
      "v": 100
    },
    {
      "midi": 36,
      "hit": false,
      "t": 74262.25299999987,
      "d": 425.20467708334036,
      "v": 86
    },
    {
      "midi": 60,
      "hit": false,
      "t": 74508.15449999987,
      "d": 87.09011458333407,
      "v": 102
    },
    {
      "midi": 64,
      "hit": false,
      "t": 74508.15449999987,
      "d": 87.09011458333407,
      "v": 102
    },
    {
      "midi": 67,
      "hit": false,
      "t": 74508.15449999987,
      "d": 87.09011458333407,
      "v": 102
    },
    {
      "midi": 59,
      "hit": false,
      "t": 74754.05599999987,
      "d": 251.02444791667222,
      "v": 99
    },
    {
      "midi": 62,
      "hit": false,
      "t": 74754.05599999987,
      "d": 251.02444791667222,
      "v": 99
    },
    {
      "midi": 67,
      "hit": false,
      "t": 74754.05599999987,
      "d": 251.02444791667222,
      "v": 99
    },
    {
      "midi": 35,
      "hit": false,
      "t": 74754.05599999987,
      "d": 425.20467708334036,
      "v": 86
    },
    {
      "midi": 59,
      "hit": false,
      "t": 75143.40004166654,
      "d": 133.1966458333336,
      "v": 99
    },
    {
      "midi": 62,
      "hit": false,
      "t": 75143.40004166654,
      "d": 133.1966458333336,
      "v": 99
    },
    {
      "midi": 67,
      "hit": false,
      "t": 75143.40004166654,
      "d": 133.1966458333336,
      "v": 99
    },
    {
      "midi": 35,
      "hit": false,
      "t": 75245.85899999987,
      "d": 425.20467708334036,
      "v": 86
    },
    {
      "midi": 59,
      "hit": false,
      "t": 75491.76049999987,
      "d": 90.16388333332725,
      "v": 102
    },
    {
      "midi": 62,
      "hit": false,
      "t": 75491.76049999987,
      "d": 90.16388333332725,
      "v": 102
    },
    {
      "midi": 67,
      "hit": false,
      "t": 75491.76049999987,
      "d": 90.16388333332725,
      "v": 102
    },
    {
      "midi": 60,
      "hit": false,
      "t": 75737.66199999987,
      "d": 266.3932916666672,
      "v": 102
    },
    {
      "midi": 62,
      "hit": false,
      "t": 75737.66199999987,
      "d": 266.3932916666672,
      "v": 102
    },
    {
      "midi": 65,
      "hit": false,
      "t": 75737.66199999987,
      "d": 266.3932916666672,
      "v": 102
    },
    {
      "midi": 36,
      "hit": false,
      "t": 75737.66199999987,
      "d": 425.20467708334036,
      "v": 87
    },
    {
      "midi": 60,
      "hit": false,
      "t": 76127.00604166654,
      "d": 184.42612499999814,
      "v": 100
    },
    {
      "midi": 62,
      "hit": false,
      "t": 76127.00604166654,
      "d": 184.42612499999814,
      "v": 100
    },
    {
      "midi": 65,
      "hit": false,
      "t": 76127.00604166654,
      "d": 184.42612499999814,
      "v": 100
    },
    {
      "midi": 36,
      "hit": false,
      "t": 76229.46499999987,
      "d": 425.20467708334036,
      "v": 88
    },
    {
      "midi": 60,
      "hit": false,
      "t": 76475.36649999987,
      "d": 79.91798749999725,
      "v": 102
    },
    {
      "midi": 62,
      "hit": false,
      "t": 76475.36649999987,
      "d": 79.91798749999725,
      "v": 102
    },
    {
      "midi": 65,
      "hit": false,
      "t": 76475.36649999987,
      "d": 79.91798749999725,
      "v": 102
    },
    {
      "midi": 62,
      "hit": false,
      "t": 76721.26799999987,
      "d": 251.02444791667222,
      "v": 99
    },
    {
      "midi": 65,
      "hit": false,
      "t": 76721.26799999987,
      "d": 251.02444791667222,
      "v": 99
    },
    {
      "midi": 69,
      "hit": false,
      "t": 76721.26799999987,
      "d": 251.02444791667222,
      "v": 99
    },
    {
      "midi": 38,
      "hit": false,
      "t": 76721.26799999987,
      "d": 425.20467708334036,
      "v": 91
    },
    {
      "midi": 60,
      "hit": false,
      "t": 77110.61204166654,
      "d": 177.25399791666132,
      "v": 94
    },
    {
      "midi": 64,
      "hit": false,
      "t": 77110.61204166654,
      "d": 177.25399791666132,
      "v": 94
    },
    {
      "midi": 67,
      "hit": false,
      "t": 77110.61204166654,
      "d": 177.25399791666132,
      "v": 94
    },
    {
      "midi": 29,
      "hit": false,
      "t": 77213.07099999987,
      "d": 425.2046770833258,
      "v": 81
    },
    {
      "midi": 60,
      "hit": false,
      "t": 77458.97249999986,
      "d": 90.16388333332725,
      "v": 102
    },
    {
      "midi": 64,
      "hit": false,
      "t": 77458.97249999986,
      "d": 90.16388333332725,
      "v": 102
    },
    {
      "midi": 67,
      "hit": false,
      "t": 77458.97249999986,
      "d": 90.16388333332725,
      "v": 102
    },
    {
      "midi": 60,
      "hit": false,
      "t": 77704.87399999985,
      "d": 284.83590416666993,
      "v": 102
    },
    {
      "midi": 64,
      "hit": false,
      "t": 77704.87399999985,
      "d": 284.83590416666993,
      "v": 102
    },
    {
      "midi": 67,
      "hit": false,
      "t": 77704.87399999985,
      "d": 284.83590416666993,
      "v": 102
    },
    {
      "midi": 29,
      "hit": false,
      "t": 77704.87399999985,
      "d": 425.20467708334036,
      "v": 86
    },
    {
      "midi": 62,
      "hit": false,
      "t": 78094.21804166652,
      "d": 197.74578958333586,
      "v": 100
    },
    {
      "midi": 65,
      "hit": false,
      "t": 78094.21804166652,
      "d": 197.74578958333586,
      "v": 100
    },
    {
      "midi": 69,
      "hit": false,
      "t": 78094.21804166652,
      "d": 197.74578958333586,
      "v": 100
    },
    {
      "midi": 34,
      "hit": false,
      "t": 78196.67699999985,
      "d": 425.20467708334036,
      "v": 86
    },
    {
      "midi": 60,
      "hit": false,
      "t": 78442.57849999986,
      "d": 87.09011458333407,
      "v": 102
    },
    {
      "midi": 64,
      "hit": false,
      "t": 78442.57849999986,
      "d": 87.09011458333407,
      "v": 102
    },
    {
      "midi": 67,
      "hit": false,
      "t": 78442.57849999986,
      "d": 87.09011458333407,
      "v": 102
    },
    {
      "midi": 58,
      "hit": false,
      "t": 78688.47999999985,
      "d": 251.02444791667222,
      "v": 99
    },
    {
      "midi": 62,
      "hit": false,
      "t": 78688.47999999985,
      "d": 251.02444791667222,
      "v": 99
    },
    {
      "midi": 65,
      "hit": false,
      "t": 78688.47999999985,
      "d": 251.02444791667222,
      "v": 99
    },
    {
      "midi": 31,
      "hit": false,
      "t": 78688.47999999985,
      "d": 425.20467708334036,
      "v": 86
    },
    {
      "midi": 58,
      "hit": false,
      "t": 79077.82404166652,
      "d": 133.1966458333336,
      "v": 99
    },
    {
      "midi": 62,
      "hit": false,
      "t": 79077.82404166652,
      "d": 133.1966458333336,
      "v": 99
    },
    {
      "midi": 65,
      "hit": false,
      "t": 79077.82404166652,
      "d": 133.1966458333336,
      "v": 99
    },
    {
      "midi": 31,
      "hit": false,
      "t": 79180.28299999985,
      "d": 425.20467708334036,
      "v": 86
    },
    {
      "midi": 58,
      "hit": false,
      "t": 79426.18449999986,
      "d": 90.16388333332725,
      "v": 102
    },
    {
      "midi": 62,
      "hit": false,
      "t": 79426.18449999986,
      "d": 90.16388333332725,
      "v": 102
    },
    {
      "midi": 65,
      "hit": false,
      "t": 79426.18449999986,
      "d": 90.16388333332725,
      "v": 102
    },
    {
      "midi": 60,
      "hit": false,
      "t": 79672.08599999985,
      "d": 266.3932916666672,
      "v": 102
    },
    {
      "midi": 64,
      "hit": false,
      "t": 79672.08599999985,
      "d": 266.3932916666672,
      "v": 102
    },
    {
      "midi": 67,
      "hit": false,
      "t": 79672.08599999985,
      "d": 266.3932916666672,
      "v": 102
    },
    {
      "midi": 33,
      "hit": false,
      "t": 79672.08599999985,
      "d": 425.20467708334036,
      "v": 87
    },
    {
      "midi": 60,
      "hit": false,
      "t": 80061.43004166652,
      "d": 184.42612499999814,
      "v": 100
    },
    {
      "midi": 64,
      "hit": false,
      "t": 80061.43004166652,
      "d": 184.42612499999814,
      "v": 100
    },
    {
      "midi": 67,
      "hit": false,
      "t": 80061.43004166652,
      "d": 184.42612499999814,
      "v": 100
    },
    {
      "midi": 33,
      "hit": false,
      "t": 80163.88899999985,
      "d": 425.20467708334036,
      "v": 88
    },
    {
      "midi": 60,
      "hit": false,
      "t": 80409.79049999986,
      "d": 79.91798749999725,
      "v": 102
    },
    {
      "midi": 64,
      "hit": false,
      "t": 80409.79049999986,
      "d": 79.91798749999725,
      "v": 102
    },
    {
      "midi": 67,
      "hit": false,
      "t": 80409.79049999986,
      "d": 79.91798749999725,
      "v": 102
    },
    {
      "midi": 65,
      "hit": false,
      "t": 80656.71658958319,
      "d": 388.3194520833349,
      "v": 87
    },
    {
      "midi": 55,
      "hit": false,
      "t": 80660.81494791651,
      "d": 387.294862499999,
      "v": 87
    },
    {
      "midi": 57,
      "hit": false,
      "t": 81148.51958958319,
      "d": 408.8112437499949,
      "v": 87
    },
    {
      "midi": 65,
      "hit": false,
      "t": 81152.61794791651,
      "d": 407.786654166659,
      "v": 87
    },
    {
      "midi": 65,
      "hit": false,
      "t": 81640.32258958317,
      "d": 376.0243770833331,
      "v": 89
    },
    {
      "midi": 58,
      "hit": false,
      "t": 81644.4209479165,
      "d": 373.9751979166758,
      "v": 89
    },
    {
      "midi": 60,
      "hit": false,
      "t": 82131.10099999985,
      "d": 300.2047479166649,
      "v": 90
    },
    {
      "midi": 64,
      "hit": false,
      "t": 82131.10099999985,
      "d": 300.2047479166649,
      "v": 90
    },
    {
      "midi": 62,
      "hit": false,
      "t": 82515.32209374984,
      "d": 284.83590416666993,
      "v": 87
    },
    {
      "midi": 65,
      "hit": false,
      "t": 82520.4450416665,
      "d": 284.83590416666993,
      "v": 87
    },
    {
      "midi": 64,
      "hit": false,
      "t": 82864.70714166651,
      "d": 84.01634583332634,
      "v": 85
    },
    {
      "midi": 72,
      "hit": false,
      "t": 82864.70714166651,
      "d": 84.01634583332634,
      "v": 85
    },
    {
      "midi": 67,
      "hit": false,
      "t": 82869.83008958318,
      "d": 84.01634583332634,
      "v": 85
    },
    {
      "midi": 60,
      "hit": false,
      "t": 82873.9284479165,
      "d": 81.96716666666907,
      "v": 85
    },
    {
      "midi": 67,
      "hit": false,
      "t": 83109.58405208317,
      "d": 85.04093541666225,
      "v": 92
    },
    {
      "midi": 60,
      "hit": false,
      "t": 83110.6086416665,
      "d": 86.06552499999816,
      "v": 92
    },
    {
      "midi": 72,
      "hit": false,
      "t": 83110.6086416665,
      "d": 86.06552499999816,
      "v": 92
    },
    {
      "midi": 64,
      "hit": false,
      "t": 83115.73158958317,
      "d": 86.06552499999816,
      "v": 92
    },
    {
      "midi": 60,
      "hit": false,
      "t": 83355.48555208316,
      "d": 74.79503958333225,
      "v": 92
    },
    {
      "midi": 64,
      "hit": false,
      "t": 83365.73144791649,
      "d": 74.79503958333225,
      "v": 92
    },
    {
      "midi": 67,
      "hit": false,
      "t": 83365.73144791649,
      "d": 74.79503958333225,
      "v": 92
    },
    {
      "midi": 72,
      "hit": false,
      "t": 83365.73144791649,
      "d": 74.79503958333225,
      "v": 92
    },
    {
      "midi": 72,
      "hit": false,
      "t": 83601.38705208316,
      "d": 315.5735916666599,
      "v": 92
    },
    {
      "midi": 64,
      "hit": false,
      "t": 83606.50999999982,
      "d": 315.5735916666599,
      "v": 92
    },
    {
      "midi": 67,
      "hit": false,
      "t": 83606.50999999982,
      "d": 315.5735916666599,
      "v": 92
    },
    {
      "midi": 60,
      "hit": false,
      "t": 83611.63294791649,
      "d": 315.5735916666599,
      "v": 92
    },
    {
      "midi": 69,
      "hit": false,
      "t": 83990.73109374981,
      "d": 377.04896666668355,
      "v": 86
    },
    {
      "midi": 74,
      "hit": false,
      "t": 83996.87863124981,
      "d": 232.5818354166695,
      "v": 86
    },
    {
      "midi": 62,
      "hit": false,
      "t": 84000.97698958314,
      "d": 377.04896666668355,
      "v": 86
    },
    {
      "midi": 65,
      "hit": false,
      "t": 84000.97698958314,
      "d": 377.04896666668355,
      "v": 86
    },
    {
      "midi": 74,
      "hit": false,
      "t": 84237.65718333315,
      "d": 60.45078541667317,
      "v": 74
    },
    {
      "midi": 74,
      "hit": false,
      "t": 84345.23908958316,
      "d": 196.72119999999995,
      "v": 84
    },
    {
      "midi": 55,
      "hit": false,
      "t": 84586.01764166649,
      "d": 388.3194520833349,
      "v": 87
    },
    {
      "midi": 65,
      "hit": false,
      "t": 84591.14058958316,
      "d": 388.3194520833349,
      "v": 87
    },
    {
      "midi": 57,
      "hit": false,
      "t": 85076.79605208315,
      "d": 407.786654166659,
      "v": 87
    },
    {
      "midi": 65,
      "hit": false,
      "t": 85087.04194791648,
      "d": 407.786654166659,
      "v": 87
    },
    {
      "midi": 58,
      "hit": false,
      "t": 85569.62364166648,
      "d": 376.0243770833331,
      "v": 89
    },
    {
      "midi": 65,
      "hit": false,
      "t": 85574.74658958314,
      "d": 376.0243770833331,
      "v": 89
    },
    {
      "midi": 64,
      "hit": false,
      "t": 86060.40205208314,
      "d": 300.2047479166649,
      "v": 90
    },
    {
      "midi": 60,
      "hit": false,
      "t": 86061.42664166648,
      "d": 301.22933750000084,
      "v": 90
    },
    {
      "midi": 62,
      "hit": false,
      "t": 86449.74609374981,
      "d": 284.83590416666993,
      "v": 87
    },
    {
      "midi": 65,
      "hit": false,
      "t": 86459.99198958314,
      "d": 284.83590416666993,
      "v": 87
    },
    {
      "midi": 67,
      "hit": false,
      "t": 86803.22949999981,
      "d": 81.96716666666907,
      "v": 85
    },
    {
      "midi": 64,
      "hit": false,
      "t": 86804.25408958315,
      "d": 84.01634583332634,
      "v": 85
    },
    {
      "midi": 60,
      "hit": false,
      "t": 86808.35244791648,
      "d": 81.96716666666907,
      "v": 85
    },
    {
      "midi": 72,
      "hit": false,
      "t": 86808.35244791648,
      "d": 81.96716666666907,
      "v": 85
    },
    {
      "midi": 72,
      "hit": false,
      "t": 87045.03264166648,
      "d": 86.06552499999816,
      "v": 92
    },
    {
      "midi": 67,
      "hit": false,
      "t": 87049.1309999998,
      "d": 85.04093541666225,
      "v": 92
    },
    {
      "midi": 64,
      "hit": false,
      "t": 87050.15558958314,
      "d": 86.06552499999816,
      "v": 92
    },
    {
      "midi": 60,
      "hit": false,
      "t": 87054.25394791647,
      "d": 85.04093541666225,
      "v": 92
    },
    {
      "midi": 67,
      "hit": false,
      "t": 87295.0324999998,
      "d": 74.79503958333225,
      "v": 92
    },
    {
      "midi": 72,
      "hit": false,
      "t": 87295.0324999998,
      "d": 74.79503958333225,
      "v": 92
    },
    {
      "midi": 64,
      "hit": false,
      "t": 87296.05708958313,
      "d": 75.81962916666816,
      "v": 92
    },
    {
      "midi": 60,
      "hit": false,
      "t": 87300.15544791646,
      "d": 74.79503958333225,
      "v": 92
    },
    {
      "midi": 67,
      "hit": false,
      "t": 87535.81105208313,
      "d": 315.5735916666599,
      "v": 92
    },
    {
      "midi": 72,
      "hit": false,
      "t": 87536.83564166646,
      "d": 316.59818124999583,
      "v": 92
    },
    {
      "midi": 60,
      "hit": false,
      "t": 87540.93399999979,
      "d": 315.5735916666599,
      "v": 92
    },
    {
      "midi": 64,
      "hit": false,
      "t": 87540.93399999979,
      "d": 315.5735916666599,
      "v": 92
    },
    {
      "midi": 62,
      "hit": false,
      "t": 87925.15509374978,
      "d": 377.048966666669,
      "v": 86
    },
    {
      "midi": 65,
      "hit": false,
      "t": 87925.15509374978,
      "d": 377.048966666669,
      "v": 86
    },
    {
      "midi": 74,
      "hit": false,
      "t": 87926.17968333312,
      "d": 244.8769104166713,
      "v": 86
    },
    {
      "midi": 69,
      "hit": false,
      "t": 87926.17968333312,
      "d": 378.0735562500049,
      "v": 86
    },
    {
      "midi": 74,
      "hit": false,
      "t": 88181.30248958312,
      "d": 46.106531249999534,
      "v": 74
    },
    {
      "midi": 74,
      "hit": false,
      "t": 88283.76144791645,
      "d": 194.67202083334269,
      "v": 84
    },
    {
      "midi": 65,
      "hit": false,
      "t": 88524.53999999979,
      "d": 387.294862499999,
      "v": 87
    },
    {
      "midi": 55,
      "hit": false,
      "t": 88529.66294791645,
      "d": 387.294862499999,
      "v": 87
    },
    {
      "midi": 57,
      "hit": false,
      "t": 89016.34299999979,
      "d": 407.786654166659,
      "v": 87
    },
    {
      "midi": 65,
      "hit": false,
      "t": 89021.46594791645,
      "d": 407.786654166659,
      "v": 87
    },
    {
      "midi": 58,
      "hit": false,
      "t": 89504.04764166645,
      "d": 376.0243770833331,
      "v": 89
    },
    {
      "midi": 65,
      "hit": false,
      "t": 89509.17058958311,
      "d": 376.0243770833331,
      "v": 89
    },
    {
      "midi": 64,
      "hit": false,
      "t": 89999.94899999977,
      "d": 300.2047479166649,
      "v": 90
    },
    {
      "midi": 60,
      "hit": false,
      "t": 90005.07194791644,
      "d": 300.2047479166649,
      "v": 90
    },
    {
      "midi": 65,
      "hit": false,
      "t": 90384.17009374977,
      "d": 284.83590416666993,
      "v": 87
    },
    {
      "midi": 62,
      "hit": false,
      "t": 90385.1946833331,
      "d": 285.86049375000584,
      "v": 87
    },
    {
      "midi": 64,
      "hit": false,
      "t": 90737.65349999977,
      "d": 81.96716666666907,
      "v": 85
    },
    {
      "midi": 67,
      "hit": false,
      "t": 90738.6780895831,
      "d": 84.01634583332634,
      "v": 85
    },
    {
      "midi": 72,
      "hit": false,
      "t": 90738.6780895831,
      "d": 84.01634583332634,
      "v": 85
    },
    {
      "midi": 60,
      "hit": false,
      "t": 90742.77644791643,
      "d": 81.96716666666907,
      "v": 85
    },
    {
      "midi": 60,
      "hit": false,
      "t": 90978.4320520831,
      "d": 85.04093541666225,
      "v": 92
    },
    {
      "midi": 72,
      "hit": false,
      "t": 90978.4320520831,
      "d": 85.04093541666225,
      "v": 92
    },
    {
      "midi": 64,
      "hit": false,
      "t": 90983.55499999976,
      "d": 85.04093541666225,
      "v": 92
    },
    {
      "midi": 67,
      "hit": false,
      "t": 90984.5795895831,
      "d": 86.06552499999816,
      "v": 92
    },
    {
      "midi": 60,
      "hit": false,
      "t": 91229.45649999977,
      "d": 74.79503958333225,
      "v": 92
    },
    {
      "midi": 64,
      "hit": false,
      "t": 91229.45649999977,
      "d": 74.79503958333225,
      "v": 92
    },
    {
      "midi": 72,
      "hit": false,
      "t": 91229.45649999977,
      "d": 74.79503958333225,
      "v": 92
    },
    {
      "midi": 67,
      "hit": false,
      "t": 91234.57944791643,
      "d": 74.79503958333225,
      "v": 92
    },
    {
      "midi": 60,
      "hit": false,
      "t": 91471.25964166643,
      "d": 316.59818124999583,
      "v": 92
    },
    {
      "midi": 64,
      "hit": false,
      "t": 91475.35799999976,
      "d": 315.5735916666599,
      "v": 92
    },
    {
      "midi": 67,
      "hit": false,
      "t": 91480.48094791643,
      "d": 315.5735916666599,
      "v": 92
    },
    {
      "midi": 72,
      "hit": false,
      "t": 91480.48094791643,
      "d": 315.5735916666599,
      "v": 92
    },
    {
      "midi": 65,
      "hit": false,
      "t": 91860.60368333309,
      "d": 378.0735562500049,
      "v": 86
    },
    {
      "midi": 69,
      "hit": false,
      "t": 91860.60368333309,
      "d": 378.0735562500049,
      "v": 86
    },
    {
      "midi": 74,
      "hit": false,
      "t": 91864.70204166642,
      "d": 233.6064250000054,
      "v": 86
    },
    {
      "midi": 62,
      "hit": false,
      "t": 91869.82498958308,
      "d": 377.04896666668355,
      "v": 86
    },
    {
      "midi": 74,
      "hit": false,
      "t": 92106.5051833331,
      "d": 58.40160625000135,
      "v": 74
    },
    {
      "midi": 74,
      "hit": false,
      "t": 92218.18544791643,
      "d": 194.67202083332813,
      "v": 84
    },
    {
      "midi": 46,
      "hit": false,
      "t": 92453.8410520831,
      "d": 387.294862499999,
      "v": 87
    },
    {
      "midi": 58,
      "hit": false,
      "t": 92454.86564166643,
      "d": 388.3194520833349,
      "v": 87
    },
    {
      "midi": 65,
      "hit": false,
      "t": 92454.86564166643,
      "d": 388.3194520833349,
      "v": 87
    },
    {
      "midi": 65,
      "hit": false,
      "t": 92946.66864166643,
      "d": 408.8112437499949,
      "v": 87
    },
    {
      "midi": 55,
      "hit": false,
      "t": 92950.76699999976,
      "d": 407.786654166659,
      "v": 87
    },
    {
      "midi": 43,
      "hit": false,
      "t": 92951.7915895831,
      "d": 408.8112437499949,
      "v": 87
    },
    {
      "midi": 41,
      "hit": false,
      "t": 93443.5945895831,
      "d": 376.0243770833331,
      "v": 89
    },
    {
      "midi": 65,
      "hit": false,
      "t": 93443.5945895831,
      "d": 376.0243770833331,
      "v": 89
    },
    {
      "midi": 53,
      "hit": false,
      "t": 93447.69294791642,
      "d": 373.9751979166758,
      "v": 89
    },
    {
      "midi": 55,
      "hit": false,
      "t": 93934.37299999977,
      "d": 373.9751979166758,
      "v": 90
    },
    {
      "midi": 43,
      "hit": false,
      "t": 93935.39758958311,
      "d": 376.0243770833331,
      "v": 90
    },
    {
      "midi": 65,
      "hit": false,
      "t": 93935.39758958311,
      "d": 376.0243770833331,
      "v": 90
    },
    {
      "midi": 46,
      "hit": false,
      "t": 94421.05305208311,
      "d": 284.83590416666993,
      "v": 87
    },
    {
      "midi": 65,
      "hit": false,
      "t": 94422.07764166644,
      "d": 285.86049375000584,
      "v": 87
    },
    {
      "midi": 58,
      "hit": false,
      "t": 94427.20058958311,
      "d": 285.86049375000584,
      "v": 87
    },
    {
      "midi": 58,
      "hit": false,
      "t": 94917.97899999979,
      "d": 387.294862499999,
      "v": 87
    },
    {
      "midi": 46,
      "hit": false,
      "t": 94919.00358958312,
      "d": 388.3194520833349,
      "v": 87
    },
    {
      "midi": 65,
      "hit": false,
      "t": 94923.10194791645,
      "d": 387.294862499999,
      "v": 87
    },
    {
      "midi": 60,
      "hit": false,
      "t": 95405.68364166646,
      "d": 142.4179520833277,
      "v": 87
    },
    {
      "midi": 48,
      "hit": false,
      "t": 95410.80658958312,
      "d": 142.4179520833277,
      "v": 87
    },
    {
      "midi": 64,
      "hit": false,
      "t": 95410.80658958312,
      "d": 142.4179520833277,
      "v": 87
    },
    {
      "midi": 60,
      "hit": false,
      "t": 95650.56055208312,
      "d": 387.294862499999,
      "v": 87
    },
    {
      "midi": 48,
      "hit": false,
      "t": 95655.68349999978,
      "d": 387.294862499999,
      "v": 87
    },
    {
      "midi": 64,
      "hit": false,
      "t": 95656.70808958312,
      "d": 388.3194520833349,
      "v": 87
    },
    {
      "midi": 60,
      "hit": false,
      "t": 96142.36355208312,
      "d": 387.294862499999,
      "v": 87
    },
    {
      "midi": 50,
      "hit": false,
      "t": 96147.48649999978,
      "d": 387.294862499999,
      "v": 87
    },
    {
      "midi": 64,
      "hit": false,
      "t": 96148.51108958312,
      "d": 388.3194520833349,
      "v": 87
    },
    {
      "midi": 60,
      "hit": false,
      "t": 96635.19114166645,
      "d": 142.4179520833277,
      "v": 87
    },
    {
      "midi": 50,
      "hit": false,
      "t": 96640.31408958312,
      "d": 142.4179520833277,
      "v": 87
    },
    {
      "midi": 64,
      "hit": false,
      "t": 96640.31408958312,
      "d": 142.4179520833277,
      "v": 87
    },
    {
      "midi": 64,
      "hit": false,
      "t": 96880.06805208311,
      "d": 387.294862499999,
      "v": 78
    },
    {
      "midi": 50,
      "hit": false,
      "t": 96890.31394791644,
      "d": 387.294862499999,
      "v": 78
    },
    {
      "midi": 60,
      "hit": false,
      "t": 96890.31394791644,
      "d": 387.294862499999,
      "v": 78
    },
    {
      "midi": 60,
      "hit": false,
      "t": 97372.89564166644,
      "d": 142.4179520833277,
      "v": 87
    },
    {
      "midi": 50,
      "hit": false,
      "t": 97378.01858958311,
      "d": 142.4179520833277,
      "v": 87
    },
    {
      "midi": 64,
      "hit": false,
      "t": 97378.01858958311,
      "d": 142.4179520833277,
      "v": 87
    },
    {
      "midi": 60,
      "hit": false,
      "t": 97617.7725520831,
      "d": 387.294862499999,
      "v": 87
    },
    {
      "midi": 50,
      "hit": false,
      "t": 97622.89549999977,
      "d": 387.294862499999,
      "v": 87
    },
    {
      "midi": 64,
      "hit": false,
      "t": 97623.9200895831,
      "d": 388.3194520833349,
      "v": 87
    },
    {
      "midi": 62,
      "hit": false,
      "t": 98109.5755520831,
      "d": 387.294862499999,
      "v": 87
    },
    {
      "midi": 50,
      "hit": false,
      "t": 98114.69849999977,
      "d": 387.294862499999,
      "v": 87
    },
    {
      "midi": 66,
      "hit": false,
      "t": 98115.7230895831,
      "d": 388.3194520833349,
      "v": 87
    },
    {
      "midi": 62,
      "hit": false,
      "t": 98602.40314166644,
      "d": 142.4179520833277,
      "v": 87
    },
    {
      "midi": 50,
      "hit": false,
      "t": 98607.5260895831,
      "d": 142.4179520833277,
      "v": 87
    },
    {
      "midi": 66,
      "hit": false,
      "t": 98607.5260895831,
      "d": 142.4179520833277,
      "v": 87
    },
    {
      "midi": 62,
      "hit": false,
      "t": 98848.30464166643,
      "d": 142.4179520833277,
      "v": 98
    },
    {
      "midi": 50,
      "hit": false,
      "t": 98853.4275895831,
      "d": 142.4179520833277,
      "v": 98
    },
    {
      "midi": 66,
      "hit": false,
      "t": 98853.4275895831,
      "d": 142.4179520833277,
      "v": 98
    },
    {
      "midi": 62,
      "hit": false,
      "t": 99093.18155208309,
      "d": 141.39336250000633,
      "v": 87
    },
    {
      "midi": 50,
      "hit": false,
      "t": 99098.30449999975,
      "d": 141.39336250000633,
      "v": 87
    },
    {
      "midi": 66,
      "hit": false,
      "t": 99099.32908958309,
      "d": 142.41795208334224,
      "v": 87
    },
    {
      "midi": 62,
      "hit": false,
      "t": 99340.10764166643,
      "d": 142.4179520833277,
      "v": 98
    },
    {
      "midi": 50,
      "hit": false,
      "t": 99345.2305895831,
      "d": 142.4179520833277,
      "v": 98
    },
    {
      "midi": 66,
      "hit": false,
      "t": 99345.2305895831,
      "d": 142.4179520833277,
      "v": 98
    },
    {
      "midi": 62,
      "hit": false,
      "t": 99584.98455208309,
      "d": 141.39336250000633,
      "v": 87
    },
    {
      "midi": 50,
      "hit": false,
      "t": 99590.10749999975,
      "d": 141.39336250000633,
      "v": 87
    },
    {
      "midi": 66,
      "hit": false,
      "t": 99591.13208958309,
      "d": 142.41795208334224,
      "v": 87
    },
    {
      "midi": 62,
      "hit": false,
      "t": 99831.91064166643,
      "d": 142.4179520833277,
      "v": 98
    },
    {
      "midi": 50,
      "hit": false,
      "t": 99837.0335895831,
      "d": 142.4179520833277,
      "v": 98
    },
    {
      "midi": 66,
      "hit": false,
      "t": 99837.0335895831,
      "d": 142.4179520833277,
      "v": 98
    },
    {
      "midi": 62,
      "hit": false,
      "t": 100076.78755208309,
      "d": 141.39336250000633,
      "v": 87
    },
    {
      "midi": 50,
      "hit": false,
      "t": 100081.91049999975,
      "d": 141.39336250000633,
      "v": 87
    },
    {
      "midi": 66,
      "hit": false,
      "t": 100082.93508958309,
      "d": 142.41795208334224,
      "v": 87
    },
    {
      "midi": 58,
      "hit": false,
      "t": 100327.81199999976,
      "d": 245.90150000000722,
      "v": 99
    },
    {
      "midi": 65,
      "hit": false,
      "t": 100327.81199999976,
      "d": 248.9752687500004,
      "v": 99
    },
    {
      "midi": 62,
      "hit": false,
      "t": 100327.81199999976,
      "d": 251.02444791667222,
      "v": 99
    },
    {
      "midi": 31,
      "hit": false,
      "t": 100327.81199999976,
      "d": 407.78665416667354,
      "v": 90
    },
    {
      "midi": 58,
      "hit": false,
      "t": 100713.0576833331,
      "d": 178.27858749999723,
      "v": 94
    },
    {
      "midi": 65,
      "hit": false,
      "t": 100718.18063124976,
      "d": 178.27858749999723,
      "v": 94
    },
    {
      "midi": 62,
      "hit": false,
      "t": 100722.2789895831,
      "d": 177.25399791666132,
      "v": 94
    },
    {
      "midi": 62,
      "hit": false,
      "t": 100830.88548541667,
      "d": 483.60628333332716,
      "v": 1
    },
    {
      "midi": 72,
      "hit": false,
      "t": 100830.88548541667,
      "d": 483.60628333332716,
      "v": 1
    },
    {
      "midi": 65,
      "hit": false,
      "t": 101060.39355208309,
      "d": 90.16388333332725,
      "v": 102
    },
    {
      "midi": 60,
      "hit": false,
      "t": 101307.31964166641,
      "d": 285.8604937499913,
      "v": 102
    },
    {
      "midi": 67,
      "hit": false,
      "t": 101307.31964166641,
      "d": 285.8604937499913,
      "v": 102
    },
    {
      "midi": 64,
      "hit": false,
      "t": 101311.41799999974,
      "d": 284.8359041666554,
      "v": 102
    },
    {
      "midi": 33,
      "hit": false,
      "t": 101312.44258958308,
      "d": 396.51616874997853,
      "v": 91
    },
    {
      "midi": 64,
      "hit": false,
      "t": 101316.54094791667,
      "d": 1232.5812687500002,
      "v": 1
    },
    {
      "midi": 72,
      "hit": false,
      "t": 101316.54094791667,
      "d": 1232.5812687500002,
      "v": 1
    },
    {
      "midi": 67,
      "hit": false,
      "t": 101695.63909374973,
      "d": 197.74578958333586,
      "v": 100
    },
    {
      "midi": 60,
      "hit": false,
      "t": 101700.7620416664,
      "d": 197.74578958333586,
      "v": 100
    },
    {
      "midi": 64,
      "hit": false,
      "t": 101705.88498958306,
      "d": 197.74578958333586,
      "v": 100
    },
    {
      "midi": 33,
      "hit": false,
      "t": 101804.24558958306,
      "d": 232.5818354166695,
      "v": 81
    },
    {
      "midi": 60,
      "hit": false,
      "t": 102045.0241416664,
      "d": 253.07362708332948,
      "v": 99
    },
    {
      "midi": 64,
      "hit": false,
      "t": 102045.0241416664,
      "d": 253.07362708332948,
      "v": 99
    },
    {
      "midi": 36,
      "hit": false,
      "t": 102045.0241416664,
      "d": 422.1309083333326,
      "v": 91
    },
    {
      "midi": 67,
      "hit": false,
      "t": 102050.14708958307,
      "d": 253.07362708332948,
      "v": 99
    },
    {
      "midi": 36,
      "hit": false,
      "t": 102535.80255208307,
      "d": 235.65560416666267,
      "v": 90
    },
    {
      "midi": 62,
      "hit": false,
      "t": 102546.0484479164,
      "d": 133.1966458333336,
      "v": 99
    },
    {
      "midi": 65,
      "hit": false,
      "t": 102546.0484479164,
      "d": 133.1966458333336,
      "v": 99
    },
    {
      "midi": 69,
      "hit": false,
      "t": 102546.0484479164,
      "d": 133.1966458333336,
      "v": 99
    },
    {
      "midi": 62,
      "hit": false,
      "t": 102551.17139583334,
      "d": 2213.1135000000068,
      "v": 1
    },
    {
      "midi": 69,
      "hit": false,
      "t": 102551.17139583334,
      "d": 2213.1135000000068,
      "v": 1
    },
    {
      "midi": 69,
      "hit": false,
      "t": 102782.7286416664,
      "d": 460.040722916674,
      "v": 102
    },
    {
      "midi": 62,
      "hit": false,
      "t": 102786.82699999973,
      "d": 459.0161333333381,
      "v": 102
    },
    {
      "midi": 65,
      "hit": false,
      "t": 102786.82699999973,
      "d": 459.0161333333381,
      "v": 102
    },
    {
      "midi": 38,
      "hit": false,
      "t": 102787.85158958306,
      "d": 203.89332708333677,
      "v": 90
    },
    {
      "midi": 36,
      "hit": false,
      "t": 103027.60555208307,
      "d": 105.5327270833368,
      "v": 91
    },
    {
      "midi": 34,
      "hit": false,
      "t": 103273.50705208306,
      "d": 464.1390812500031,
      "v": 90
    },
    {
      "midi": 62,
      "hit": false,
      "t": 103278.62999999973,
      "d": 459.0161333333381,
      "v": 102
    },
    {
      "midi": 65,
      "hit": false,
      "t": 103283.7529479164,
      "d": 459.0161333333381,
      "v": 102
    },
    {
      "midi": 69,
      "hit": false,
      "t": 103283.7529479164,
      "d": 459.0161333333381,
      "v": 102
    },
    {
      "midi": 62,
      "hit": false,
      "t": 103766.3346416664,
      "d": 460.04072291665943,
      "v": 92
    },
    {
      "midi": 65,
      "hit": false,
      "t": 103766.3346416664,
      "d": 460.04072291665943,
      "v": 92
    },
    {
      "midi": 69,
      "hit": false,
      "t": 103770.43299999973,
      "d": 459.0161333333235,
      "v": 92
    },
    {
      "midi": 33,
      "hit": false,
      "t": 103771.45758958306,
      "d": 465.16367083332443,
      "v": 92
    },
    {
      "midi": 31,
      "hit": false,
      "t": 104257.11305208305,
      "d": 409.83583333334536,
      "v": 90
    },
    {
      "midi": 62,
      "hit": false,
      "t": 104262.23599999971,
      "d": 251.02444791667222,
      "v": 99
    },
    {
      "midi": 65,
      "hit": false,
      "t": 104263.26058958305,
      "d": 253.07362708332948,
      "v": 99
    },
    {
      "midi": 58,
      "hit": false,
      "t": 104267.35894791638,
      "d": 251.02444791667222,
      "v": 99
    },
    {
      "midi": 58,
      "hit": false,
      "t": 104646.45709374972,
      "d": 177.25399791667587,
      "v": 94
    },
    {
      "midi": 65,
      "hit": false,
      "t": 104651.58004166638,
      "d": 177.25399791667587,
      "v": 94
    },
    {
      "midi": 62,
      "hit": false,
      "t": 104652.60463124972,
      "d": 178.27858750001178,
      "v": 94
    },
    {
      "midi": 62,
      "hit": false,
      "t": 104765.30948541668,
      "d": 485.655462499999,
      "v": 1
    },
    {
      "midi": 72,
      "hit": false,
      "t": 104765.30948541668,
      "d": 485.655462499999,
      "v": 1
    },
    {
      "midi": 65,
      "hit": false,
      "t": 105000.96508958307,
      "d": 91.18847291666316,
      "v": 102
    },
    {
      "midi": 67,
      "hit": false,
      "t": 105241.7436416664,
      "d": 285.8604937499913,
      "v": 102
    },
    {
      "midi": 60,
      "hit": false,
      "t": 105246.86658958306,
      "d": 285.8604937499913,
      "v": 102
    },
    {
      "midi": 64,
      "hit": false,
      "t": 105246.86658958306,
      "d": 285.8604937499913,
      "v": 102
    },
    {
      "midi": 33,
      "hit": false,
      "t": 105250.96494791639,
      "d": 394.46698958332126,
      "v": 91
    },
    {
      "midi": 64,
      "hit": false,
      "t": 105251.98953750002,
      "d": 1228.482910416671,
      "v": 1
    },
    {
      "midi": 72,
      "hit": false,
      "t": 105251.98953750002,
      "d": 1228.482910416671,
      "v": 1
    },
    {
      "midi": 67,
      "hit": false,
      "t": 105630.06309374972,
      "d": 197.74578958333586,
      "v": 100
    },
    {
      "midi": 60,
      "hit": false,
      "t": 105631.08768333305,
      "d": 198.77037916667177,
      "v": 100
    },
    {
      "midi": 64,
      "hit": false,
      "t": 105635.18604166638,
      "d": 197.74578958333586,
      "v": 100
    },
    {
      "midi": 33,
      "hit": false,
      "t": 105738.66958958305,
      "d": 237.7047833333345,
      "v": 81
    },
    {
      "midi": 64,
      "hit": false,
      "t": 105979.44814166638,
      "d": 253.07362708332948,
      "v": 99
    },
    {
      "midi": 67,
      "hit": false,
      "t": 105979.44814166638,
      "d": 253.07362708332948,
      "v": 99
    },
    {
      "midi": 60,
      "hit": false,
      "t": 105984.57108958304,
      "d": 253.07362708332948,
      "v": 99
    },
    {
      "midi": 36,
      "hit": false,
      "t": 105988.66944791637,
      "d": 420.0817291666608,
      "v": 91
    },
    {
      "midi": 65,
      "hit": false,
      "t": 106471.25114166636,
      "d": 135.24582500000542,
      "v": 99
    },
    {
      "midi": 69,
      "hit": false,
      "t": 106471.25114166636,
      "d": 135.24582500000542,
      "v": 99
    },
    {
      "midi": 62,
      "hit": false,
      "t": 106475.34949999969,
      "d": 133.19664583334816,
      "v": 99
    },
    {
      "midi": 36,
      "hit": false,
      "t": 106476.37408958303,
      "d": 237.70478333334904,
      "v": 90
    },
    {
      "midi": 65,
      "hit": false,
      "t": 106481.49703750003,
      "d": 249.9998583333363,
      "v": 1
    },
    {
      "midi": 72,
      "hit": false,
      "t": 106481.49703750003,
      "d": 249.9998583333363,
      "v": 1
    },
    {
      "midi": 65,
      "hit": false,
      "t": 106717.15264166637,
      "d": 460.04072291665943,
      "v": 102
    },
    {
      "midi": 69,
      "hit": false,
      "t": 106717.15264166637,
      "d": 460.04072291665943,
      "v": 102
    },
    {
      "midi": 62,
      "hit": false,
      "t": 106721.2509999997,
      "d": 459.0161333333235,
      "v": 102
    },
    {
      "midi": 38,
      "hit": false,
      "t": 106726.37394791636,
      "d": 79.91798749999725,
      "v": 90
    },
    {
      "midi": 62,
      "hit": false,
      "t": 106732.5214854167,
      "d": 485.655462499999,
      "v": 1
    },
    {
      "midi": 74,
      "hit": false,
      "t": 106732.5214854167,
      "d": 485.655462499999,
      "v": 1
    },
    {
      "midi": 36,
      "hit": false,
      "t": 106962.02955208303,
      "d": 105.5327270833368,
      "v": 91
    },
    {
      "midi": 69,
      "hit": false,
      "t": 107207.93105208302,
      "d": 459.0161333333235,
      "v": 102
    },
    {
      "midi": 65,
      "hit": false,
      "t": 107213.05399999968,
      "d": 459.0161333333235,
      "v": 102
    },
    {
      "midi": 62,
      "hit": false,
      "t": 107218.17694791635,
      "d": 459.0161333333235,
      "v": 102
    },
    {
      "midi": 34,
      "hit": false,
      "t": 107218.17694791635,
      "d": 464.1390812499885,
      "v": 90
    },
    {
      "midi": 62,
      "hit": false,
      "t": 107219.20153750003,
      "d": 495.901358333329,
      "v": 1
    },
    {
      "midi": 67,
      "hit": false,
      "t": 107219.20153750003,
      "d": 495.901358333329,
      "v": 1
    },
    {
      "midi": 65,
      "hit": false,
      "t": 107699.734052083,
      "d": 459.0161333333235,
      "v": 92
    },
    {
      "midi": 62,
      "hit": false,
      "t": 107700.75864166634,
      "d": 460.04072291665943,
      "v": 92
    },
    {
      "midi": 69,
      "hit": false,
      "t": 107709.97994791633,
      "d": 459.0161333333381,
      "v": 92
    },
    {
      "midi": 33,
      "hit": false,
      "t": 107709.97994791633,
      "d": 464.1390812500031,
      "v": 92
    },
    {
      "midi": 65,
      "hit": false,
      "t": 107716.1274854167,
      "d": 982.5814104166639,
      "v": 1
    },
    {
      "midi": 69,
      "hit": false,
      "t": 107716.1274854167,
      "d": 982.5814104166639,
      "v": 1
    },
    {
      "midi": 31,
      "hit": false,
      "t": 108191.537052083,
      "d": 409.83583333331626,
      "v": 90
    },
    {
      "midi": 58,
      "hit": false,
      "t": 108196.65999999967,
      "d": 251.02444791667222,
      "v": 99
    },
    {
      "midi": 62,
      "hit": false,
      "t": 108196.65999999967,
      "d": 251.02444791667222,
      "v": 99
    },
    {
      "midi": 65,
      "hit": false,
      "t": 108197.684589583,
      "d": 253.07362708332948,
      "v": 99
    },
    {
      "midi": 62,
      "hit": false,
      "t": 108581.905683333,
      "d": 178.27858749999723,
      "v": 94
    },
    {
      "midi": 58,
      "hit": false,
      "t": 108591.12698958299,
      "d": 177.25399791667587,
      "v": 94
    },
    {
      "midi": 65,
      "hit": false,
      "t": 108591.12698958299,
      "d": 177.25399791667587,
      "v": 94
    },
    {
      "midi": 33,
      "hit": false,
      "t": 108684.36464166633,
      "d": 434.42598333333444,
      "v": 88
    },
    {
      "midi": 62,
      "hit": false,
      "t": 108699.7334854167,
      "d": 483.60628333332716,
      "v": 1
    },
    {
      "midi": 72,
      "hit": false,
      "t": 108699.7334854167,
      "d": 483.60628333332716,
      "v": 1
    },
    {
      "midi": 65,
      "hit": false,
      "t": 108939.48744791633,
      "d": 90.16388333332725,
      "v": 102
    },
    {
      "midi": 33,
      "hit": false,
      "t": 109176.16764166632,
      "d": 396.5161687499931,
      "v": 91
    },
    {
      "midi": 64,
      "hit": false,
      "t": 109181.29058958299,
      "d": 285.8604937499913,
      "v": 102
    },
    {
      "midi": 67,
      "hit": false,
      "t": 109181.29058958299,
      "d": 285.8604937499913,
      "v": 102
    },
    {
      "midi": 60,
      "hit": false,
      "t": 109185.38894791632,
      "d": 284.8359041666554,
      "v": 102
    },
    {
      "midi": 64,
      "hit": false,
      "t": 109185.3889479167,
      "d": 1232.5812687500002,
      "v": 1
    },
    {
      "midi": 72,
      "hit": false,
      "t": 109185.3889479167,
      "d": 1232.5812687500002,
      "v": 1
    },
    {
      "midi": 67,
      "hit": false,
      "t": 109565.51168333298,
      "d": 198.77037916667177,
      "v": 100
    },
    {
      "midi": 60,
      "hit": false,
      "t": 109570.63463124965,
      "d": 198.77037916667177,
      "v": 100
    },
    {
      "midi": 64,
      "hit": false,
      "t": 109570.63463124965,
      "d": 198.77037916667177,
      "v": 100
    },
    {
      "midi": 33,
      "hit": false,
      "t": 109677.19194791632,
      "d": 225.40970833333267,
      "v": 81
    },
    {
      "midi": 36,
      "hit": false,
      "t": 109912.84755208298,
      "d": 420.0817291666608,
      "v": 91
    },
    {
      "midi": 64,
      "hit": false,
      "t": 109913.87214166632,
      "d": 253.07362708332948,
      "v": 99
    },
    {
      "midi": 60,
      "hit": false,
      "t": 109918.99508958298,
      "d": 253.07362708332948,
      "v": 99
    },
    {
      "midi": 67,
      "hit": false,
      "t": 109918.99508958298,
      "d": 253.07362708332948,
      "v": 99
    },
    {
      "midi": 69,
      "hit": false,
      "t": 110404.65055208298,
      "d": 133.1966458333336,
      "v": 99
    },
    {
      "midi": 65,
      "hit": false,
      "t": 110405.67514166632,
      "d": 135.24582499999087,
      "v": 99
    },
    {
      "midi": 36,
      "hit": false,
      "t": 110405.67514166632,
      "d": 237.70478333331994,
      "v": 90
    },
    {
      "midi": 62,
      "hit": false,
      "t": 110410.79808958298,
      "d": 135.24582499999087,
      "v": 99
    },
    {
      "midi": 62,
      "hit": false,
      "t": 110420.01939583337,
      "d": 1721.3105000000069,
      "v": 1
    },
    {
      "midi": 69,
      "hit": false,
      "t": 110420.01939583337,
      "d": 1721.3105000000069,
      "v": 1
    },
    {
      "midi": 38,
      "hit": false,
      "t": 110660.7979479163,
      "d": 79.91798749999725,
      "v": 90
    },
    {
      "midi": 62,
      "hit": false,
      "t": 110660.7979479163,
      "d": 459.0161333333381,
      "v": 102
    },
    {
      "midi": 65,
      "hit": false,
      "t": 110660.7979479163,
      "d": 459.0161333333381,
      "v": 102
    },
    {
      "midi": 69,
      "hit": false,
      "t": 110660.7979479163,
      "d": 459.0161333333381,
      "v": 102
    },
    {
      "midi": 36,
      "hit": false,
      "t": 110897.4781416663,
      "d": 106.5573166666727,
      "v": 91
    },
    {
      "midi": 65,
      "hit": false,
      "t": 111143.37964166631,
      "d": 460.04072291665943,
      "v": 102
    },
    {
      "midi": 69,
      "hit": false,
      "t": 111147.47799999964,
      "d": 459.0161333333235,
      "v": 102
    },
    {
      "midi": 34,
      "hit": false,
      "t": 111148.50258958297,
      "d": 465.16367083332443,
      "v": 90
    },
    {
      "midi": 62,
      "hit": false,
      "t": 111152.6009479163,
      "d": 459.0161333333235,
      "v": 102
    },
    {
      "midi": 69,
      "hit": false,
      "t": 111635.1826416663,
      "d": 460.04072291665943,
      "v": 92
    },
    {
      "midi": 33,
      "hit": false,
      "t": 111639.28099999962,
      "d": 464.1390812499885,
      "v": 92
    },
    {
      "midi": 62,
      "hit": false,
      "t": 111640.30558958296,
      "d": 460.04072291665943,
      "v": 92
    },
    {
      "midi": 65,
      "hit": false,
      "t": 111640.30558958296,
      "d": 460.04072291665943,
      "v": 92
    },
    {
      "midi": 62,
      "hit": false,
      "t": 112125.96105208294,
      "d": 251.02444791665766,
      "v": 99
    },
    {
      "midi": 59,
      "hit": false,
      "t": 112126.98564166628,
      "d": 253.07362708331493,
      "v": 99
    },
    {
      "midi": 65,
      "hit": false,
      "t": 112132.10858958295,
      "d": 253.07362708331493,
      "v": 99
    },
    {
      "midi": 31,
      "hit": false,
      "t": 112136.20694791627,
      "d": 230.53265624999767,
      "v": 92
    },
    {
      "midi": 67,
      "hit": false,
      "t": 112142.35448541671,
      "d": 2194.670887500004,
      "v": 1
    },
    {
      "midi": 71,
      "hit": false,
      "t": 112142.35448541671,
      "d": 2194.670887500004,
      "v": 1
    },
    {
      "midi": 35,
      "hit": false,
      "t": 112376.9854999996,
      "d": 87.09011458331952,
      "v": 90
    },
    {
      "midi": 62,
      "hit": false,
      "t": 112515.30509374959,
      "d": 177.25399791666132,
      "v": 94
    },
    {
      "midi": 38,
      "hit": false,
      "t": 112516.32968333292,
      "d": 94.26224166665634,
      "v": 87
    },
    {
      "midi": 59,
      "hit": false,
      "t": 112520.42804166625,
      "d": 177.25399791666132,
      "v": 94
    },
    {
      "midi": 65,
      "hit": false,
      "t": 112520.42804166625,
      "d": 177.25399791666132,
      "v": 94
    },
    {
      "midi": 41,
      "hit": false,
      "t": 112622.88699999958,
      "d": 230.53265624999767,
      "v": 90
    },
    {
      "midi": 65,
      "hit": false,
      "t": 112863.66555208291,
      "d": 90.16388333332725,
      "v": 102
    },
    {
      "midi": 38,
      "hit": false,
      "t": 112863.66555208291,
      "d": 105.53272708332224,
      "v": 86
    },
    {
      "midi": 35,
      "hit": false,
      "t": 113008.1326833329,
      "d": 94.26224166667089,
      "v": 89
    },
    {
      "midi": 65,
      "hit": false,
      "t": 113109.5670520829,
      "d": 284.83590416666993,
      "v": 102
    },
    {
      "midi": 59,
      "hit": false,
      "t": 113114.68999999957,
      "d": 284.83590416666993,
      "v": 102
    },
    {
      "midi": 31,
      "hit": false,
      "t": 113115.7145895829,
      "d": 237.7047833333345,
      "v": 90
    },
    {
      "midi": 62,
      "hit": false,
      "t": 113115.7145895829,
      "d": 285.86049375000584,
      "v": 102
    },
    {
      "midi": 35,
      "hit": false,
      "t": 113365.71444791624,
      "d": 100.4097791666718,
      "v": 88
    },
    {
      "midi": 62,
      "hit": false,
      "t": 113504.03404166624,
      "d": 197.7457895833213,
      "v": 100
    },
    {
      "midi": 59,
      "hit": false,
      "t": 113505.05863124957,
      "d": 198.77037916665722,
      "v": 100
    },
    {
      "midi": 38,
      "hit": false,
      "t": 113509.1569895829,
      "d": 92.21306249999907,
      "v": 87
    },
    {
      "midi": 65,
      "hit": false,
      "t": 113509.1569895829,
      "d": 197.7457895833213,
      "v": 100
    },
    {
      "midi": 41,
      "hit": false,
      "t": 113611.61594791623,
      "d": 187.49989374999132,
      "v": 91
    },
    {
      "midi": 38,
      "hit": false,
      "t": 113847.2715520829,
      "d": 105.5327270833368,
      "v": 86
    },
    {
      "midi": 59,
      "hit": false,
      "t": 113848.29614166623,
      "d": 253.07362708332948,
      "v": 99
    },
    {
      "midi": 62,
      "hit": false,
      "t": 113857.51744791622,
      "d": 251.02444791667222,
      "v": 99
    },
    {
      "midi": 65,
      "hit": false,
      "t": 113857.51744791622,
      "d": 251.02444791667222,
      "v": 99
    },
    {
      "midi": 35,
      "hit": false,
      "t": 113991.7386833329,
      "d": 94.26224166667089,
      "v": 89
    },
    {
      "midi": 31,
      "hit": false,
      "t": 114103.41894791623,
      "d": 172.13104999999632,
      "v": 92
    },
    {
      "midi": 69,
      "hit": false,
      "t": 114339.0745520829,
      "d": 379.0981458333408,
      "v": 99
    },
    {
      "midi": 60,
      "hit": false,
      "t": 114339.07455208339,
      "d": 640.3684895833285,
      "v": 1
    },
    {
      "midi": 31,
      "hit": false,
      "t": 114340.09914166623,
      "d": 173.15563958333223,
      "v": 90
    },
    {
      "midi": 62,
      "hit": false,
      "t": 114344.19749999956,
      "d": 377.048966666669,
      "v": 99
    },
    {
      "midi": 65,
      "hit": false,
      "t": 114349.32044791622,
      "d": 379.0981458333408,
      "v": 99
    },
    {
      "midi": 31,
      "hit": false,
      "t": 114584.9760520829,
      "d": 172.13104999999632,
      "v": 92
    },
    {
      "midi": 62,
      "hit": false,
      "t": 114728.41859374956,
      "d": 213.11463333333086,
      "v": 102
    },
    {
      "midi": 69,
      "hit": false,
      "t": 114729.4431833329,
      "d": 214.13922291666677,
      "v": 102
    },
    {
      "midi": 65,
      "hit": false,
      "t": 114734.56613124956,
      "d": 214.13922291666677,
      "v": 102
    },
    {
      "midi": 31,
      "hit": false,
      "t": 114830.8775520829,
      "d": 172.13105000001087,
      "v": 90
    },
    {
      "midi": 62,
      "hit": false,
      "t": 114980.46763125005,
      "d": 1587.0892645833374,
      "v": 1
    },
    {
      "midi": 69,
      "hit": false,
      "t": 115076.7790520829,
      "d": 459.0161333333381,
      "v": 102
    },
    {
      "midi": 31,
      "hit": false,
      "t": 115077.80364166624,
      "d": 173.15563958333223,
      "v": 92
    },
    {
      "midi": 62,
      "hit": false,
      "t": 115077.80364166624,
      "d": 460.040722916674,
      "v": 102
    },
    {
      "midi": 65,
      "hit": false,
      "t": 115082.9265895829,
      "d": 460.040722916674,
      "v": 102
    },
    {
      "midi": 65,
      "hit": false,
      "t": 115573.70499999958,
      "d": 459.0161333333235,
      "v": 92
    },
    {
      "midi": 69,
      "hit": false,
      "t": 115573.70499999958,
      "d": 459.0161333333235,
      "v": 92
    },
    {
      "midi": 31,
      "hit": false,
      "t": 115574.72958958292,
      "d": 419.0571395833249,
      "v": 90
    },
    {
      "midi": 62,
      "hit": false,
      "t": 115578.82794791624,
      "d": 459.0161333333235,
      "v": 92
    },
    {
      "midi": 58,
      "hit": false,
      "t": 116065.50799999957,
      "d": 245.90150000000722,
      "v": 99
    },
    {
      "midi": 65,
      "hit": false,
      "t": 116065.50799999957,
      "d": 248.9752687500004,
      "v": 99
    },
    {
      "midi": 62,
      "hit": false,
      "t": 116065.50799999957,
      "d": 251.02444791667222,
      "v": 99
    },
    {
      "midi": 31,
      "hit": false,
      "t": 116065.50799999957,
      "d": 407.78665416667354,
      "v": 90
    },
    {
      "midi": 58,
      "hit": false,
      "t": 116450.7536833329,
      "d": 178.27858749999723,
      "v": 94
    },
    {
      "midi": 65,
      "hit": false,
      "t": 116455.87663124957,
      "d": 178.27858749999723,
      "v": 94
    },
    {
      "midi": 62,
      "hit": false,
      "t": 116459.9749895829,
      "d": 177.25399791666132,
      "v": 94
    },
    {
      "midi": 62,
      "hit": false,
      "t": 116568.58148541673,
      "d": 483.60628333332716,
      "v": 1
    },
    {
      "midi": 72,
      "hit": false,
      "t": 116568.58148541673,
      "d": 483.60628333332716,
      "v": 1
    },
    {
      "midi": 65,
      "hit": false,
      "t": 116798.08955208289,
      "d": 90.16388333332725,
      "v": 102
    },
    {
      "midi": 60,
      "hit": false,
      "t": 117045.01564166622,
      "d": 285.8604937499913,
      "v": 102
    },
    {
      "midi": 67,
      "hit": false,
      "t": 117045.01564166622,
      "d": 285.8604937499913,
      "v": 102
    },
    {
      "midi": 64,
      "hit": false,
      "t": 117049.11399999955,
      "d": 284.8359041666554,
      "v": 102
    },
    {
      "midi": 33,
      "hit": false,
      "t": 117050.13858958289,
      "d": 396.51616874997853,
      "v": 91
    },
    {
      "midi": 64,
      "hit": false,
      "t": 117054.23694791672,
      "d": 1232.5812687500002,
      "v": 1
    },
    {
      "midi": 72,
      "hit": false,
      "t": 117054.23694791672,
      "d": 1232.5812687500002,
      "v": 1
    },
    {
      "midi": 67,
      "hit": false,
      "t": 117433.33509374954,
      "d": 197.74578958333586,
      "v": 100
    },
    {
      "midi": 60,
      "hit": false,
      "t": 117438.4580416662,
      "d": 197.74578958333586,
      "v": 100
    },
    {
      "midi": 64,
      "hit": false,
      "t": 117443.58098958287,
      "d": 197.74578958333586,
      "v": 100
    },
    {
      "midi": 33,
      "hit": false,
      "t": 117541.94158958287,
      "d": 232.5818354166695,
      "v": 81
    },
    {
      "midi": 60,
      "hit": false,
      "t": 117782.72014166621,
      "d": 253.07362708332948,
      "v": 99
    },
    {
      "midi": 64,
      "hit": false,
      "t": 117782.72014166621,
      "d": 253.07362708332948,
      "v": 99
    },
    {
      "midi": 36,
      "hit": false,
      "t": 117782.72014166621,
      "d": 422.1309083333326,
      "v": 91
    },
    {
      "midi": 67,
      "hit": false,
      "t": 117787.84308958288,
      "d": 253.07362708332948,
      "v": 99
    },
    {
      "midi": 36,
      "hit": false,
      "t": 118273.49855208288,
      "d": 235.65560416666267,
      "v": 90
    },
    {
      "midi": 62,
      "hit": false,
      "t": 118283.74444791621,
      "d": 133.1966458333336,
      "v": 99
    },
    {
      "midi": 65,
      "hit": false,
      "t": 118283.74444791621,
      "d": 133.1966458333336,
      "v": 99
    },
    {
      "midi": 69,
      "hit": false,
      "t": 118283.74444791621,
      "d": 133.1966458333336,
      "v": 99
    },
    {
      "midi": 62,
      "hit": false,
      "t": 118288.8673958334,
      "d": 2213.1135000000068,
      "v": 1
    },
    {
      "midi": 69,
      "hit": false,
      "t": 118288.8673958334,
      "d": 2213.1135000000068,
      "v": 1
    },
    {
      "midi": 69,
      "hit": false,
      "t": 118520.4246416662,
      "d": 460.040722916674,
      "v": 102
    },
    {
      "midi": 62,
      "hit": false,
      "t": 118524.52299999954,
      "d": 459.0161333333381,
      "v": 102
    },
    {
      "midi": 65,
      "hit": false,
      "t": 118524.52299999954,
      "d": 459.0161333333381,
      "v": 102
    },
    {
      "midi": 38,
      "hit": false,
      "t": 118525.54758958287,
      "d": 203.89332708333677,
      "v": 90
    },
    {
      "midi": 36,
      "hit": false,
      "t": 118765.30155208288,
      "d": 105.5327270833368,
      "v": 91
    },
    {
      "midi": 34,
      "hit": false,
      "t": 119011.20305208287,
      "d": 464.1390812500031,
      "v": 90
    },
    {
      "midi": 62,
      "hit": false,
      "t": 119016.32599999954,
      "d": 459.0161333333381,
      "v": 102
    },
    {
      "midi": 65,
      "hit": false,
      "t": 119021.4489479162,
      "d": 459.0161333333381,
      "v": 102
    },
    {
      "midi": 69,
      "hit": false,
      "t": 119021.4489479162,
      "d": 459.0161333333381,
      "v": 102
    },
    {
      "midi": 62,
      "hit": false,
      "t": 119504.0306416662,
      "d": 460.04072291665943,
      "v": 92
    },
    {
      "midi": 65,
      "hit": false,
      "t": 119504.0306416662,
      "d": 460.04072291665943,
      "v": 92
    },
    {
      "midi": 69,
      "hit": false,
      "t": 119508.12899999954,
      "d": 459.0161333333235,
      "v": 92
    },
    {
      "midi": 33,
      "hit": false,
      "t": 119509.15358958287,
      "d": 465.16367083332443,
      "v": 92
    },
    {
      "midi": 31,
      "hit": false,
      "t": 119994.80905208286,
      "d": 409.83583333334536,
      "v": 90
    },
    {
      "midi": 62,
      "hit": false,
      "t": 119999.93199999952,
      "d": 251.02444791667222,
      "v": 99
    },
    {
      "midi": 65,
      "hit": false,
      "t": 120000.95658958286,
      "d": 253.07362708332948,
      "v": 99
    },
    {
      "midi": 58,
      "hit": false,
      "t": 120005.05494791619,
      "d": 251.02444791667222,
      "v": 99
    },
    {
      "midi": 58,
      "hit": false,
      "t": 120384.15309374953,
      "d": 177.25399791667587,
      "v": 94
    },
    {
      "midi": 65,
      "hit": false,
      "t": 120389.27604166619,
      "d": 177.25399791667587,
      "v": 94
    },
    {
      "midi": 62,
      "hit": false,
      "t": 120390.30063124953,
      "d": 178.27858750001178,
      "v": 94
    },
    {
      "midi": 62,
      "hit": false,
      "t": 120503.00548541674,
      "d": 485.655462499999,
      "v": 1
    },
    {
      "midi": 72,
      "hit": false,
      "t": 120503.00548541674,
      "d": 485.655462499999,
      "v": 1
    },
    {
      "midi": 65,
      "hit": false,
      "t": 120738.66108958288,
      "d": 91.18847291666316,
      "v": 102
    },
    {
      "midi": 67,
      "hit": false,
      "t": 120979.4396416662,
      "d": 285.8604937499913,
      "v": 102
    },
    {
      "midi": 60,
      "hit": false,
      "t": 120984.56258958287,
      "d": 285.8604937499913,
      "v": 102
    },
    {
      "midi": 64,
      "hit": false,
      "t": 120984.56258958287,
      "d": 285.8604937499913,
      "v": 102
    },
    {
      "midi": 33,
      "hit": false,
      "t": 120988.6609479162,
      "d": 394.46698958332126,
      "v": 91
    },
    {
      "midi": 64,
      "hit": false,
      "t": 120989.68553750007,
      "d": 1228.482910416671,
      "v": 1
    },
    {
      "midi": 72,
      "hit": false,
      "t": 120989.68553750007,
      "d": 1228.482910416671,
      "v": 1
    },
    {
      "midi": 67,
      "hit": false,
      "t": 121367.75909374953,
      "d": 197.74578958333586,
      "v": 100
    },
    {
      "midi": 60,
      "hit": false,
      "t": 121368.78368333286,
      "d": 198.77037916667177,
      "v": 100
    },
    {
      "midi": 64,
      "hit": false,
      "t": 121372.88204166619,
      "d": 197.74578958333586,
      "v": 100
    },
    {
      "midi": 33,
      "hit": false,
      "t": 121476.36558958286,
      "d": 237.7047833333345,
      "v": 81
    },
    {
      "midi": 64,
      "hit": false,
      "t": 121717.14414166618,
      "d": 253.07362708332948,
      "v": 99
    },
    {
      "midi": 67,
      "hit": false,
      "t": 121717.14414166618,
      "d": 253.07362708332948,
      "v": 99
    },
    {
      "midi": 60,
      "hit": false,
      "t": 121722.26708958285,
      "d": 253.07362708332948,
      "v": 99
    },
    {
      "midi": 36,
      "hit": false,
      "t": 121726.36544791618,
      "d": 420.0817291666608,
      "v": 91
    },
    {
      "midi": 65,
      "hit": false,
      "t": 122208.94714166617,
      "d": 135.24582500000542,
      "v": 99
    },
    {
      "midi": 69,
      "hit": false,
      "t": 122208.94714166617,
      "d": 135.24582500000542,
      "v": 99
    },
    {
      "midi": 62,
      "hit": false,
      "t": 122213.0454999995,
      "d": 133.19664583334816,
      "v": 99
    },
    {
      "midi": 36,
      "hit": false,
      "t": 122214.07008958283,
      "d": 237.70478333334904,
      "v": 90
    },
    {
      "midi": 65,
      "hit": false,
      "t": 122219.19303750008,
      "d": 249.9998583333363,
      "v": 1
    },
    {
      "midi": 72,
      "hit": false,
      "t": 122219.19303750008,
      "d": 249.9998583333363,
      "v": 1
    },
    {
      "midi": 65,
      "hit": false,
      "t": 122454.84864166618,
      "d": 460.04072291665943,
      "v": 102
    },
    {
      "midi": 69,
      "hit": false,
      "t": 122454.84864166618,
      "d": 460.04072291665943,
      "v": 102
    },
    {
      "midi": 62,
      "hit": false,
      "t": 122458.9469999995,
      "d": 459.0161333333235,
      "v": 102
    },
    {
      "midi": 38,
      "hit": false,
      "t": 122464.06994791617,
      "d": 79.91798749999725,
      "v": 90
    },
    {
      "midi": 62,
      "hit": false,
      "t": 122470.21748541675,
      "d": 485.655462499999,
      "v": 1
    },
    {
      "midi": 74,
      "hit": false,
      "t": 122470.21748541675,
      "d": 485.655462499999,
      "v": 1
    },
    {
      "midi": 36,
      "hit": false,
      "t": 122699.72555208283,
      "d": 105.5327270833368,
      "v": 91
    },
    {
      "midi": 69,
      "hit": false,
      "t": 122945.62705208283,
      "d": 459.0161333333235,
      "v": 102
    },
    {
      "midi": 65,
      "hit": false,
      "t": 122950.74999999949,
      "d": 459.0161333333235,
      "v": 102
    },
    {
      "midi": 62,
      "hit": false,
      "t": 122955.87294791616,
      "d": 459.0161333333235,
      "v": 102
    },
    {
      "midi": 34,
      "hit": false,
      "t": 122955.87294791616,
      "d": 464.1390812499885,
      "v": 90
    },
    {
      "midi": 62,
      "hit": false,
      "t": 122956.89753750009,
      "d": 495.901358333329,
      "v": 1
    },
    {
      "midi": 67,
      "hit": false,
      "t": 122956.89753750009,
      "d": 495.901358333329,
      "v": 1
    },
    {
      "midi": 65,
      "hit": false,
      "t": 123437.43005208281,
      "d": 459.0161333333235,
      "v": 92
    },
    {
      "midi": 62,
      "hit": false,
      "t": 123438.45464166615,
      "d": 460.04072291665943,
      "v": 92
    },
    {
      "midi": 69,
      "hit": false,
      "t": 123447.67594791614,
      "d": 459.0161333333381,
      "v": 92
    },
    {
      "midi": 33,
      "hit": false,
      "t": 123447.67594791614,
      "d": 464.1390812500031,
      "v": 92
    },
    {
      "midi": 65,
      "hit": false,
      "t": 123453.82348541675,
      "d": 982.5814104166639,
      "v": 1
    },
    {
      "midi": 69,
      "hit": false,
      "t": 123453.82348541675,
      "d": 982.5814104166639,
      "v": 1
    },
    {
      "midi": 31,
      "hit": false,
      "t": 123929.23305208281,
      "d": 409.83583333331626,
      "v": 90
    },
    {
      "midi": 58,
      "hit": false,
      "t": 123934.35599999948,
      "d": 251.02444791667222,
      "v": 99
    },
    {
      "midi": 62,
      "hit": false,
      "t": 123934.35599999948,
      "d": 251.02444791667222,
      "v": 99
    },
    {
      "midi": 65,
      "hit": false,
      "t": 123935.38058958281,
      "d": 253.07362708332948,
      "v": 99
    },
    {
      "midi": 62,
      "hit": false,
      "t": 124319.6016833328,
      "d": 178.27858749999723,
      "v": 94
    },
    {
      "midi": 58,
      "hit": false,
      "t": 124328.8229895828,
      "d": 177.25399791667587,
      "v": 94
    },
    {
      "midi": 65,
      "hit": false,
      "t": 124328.8229895828,
      "d": 177.25399791667587,
      "v": 94
    },
    {
      "midi": 33,
      "hit": false,
      "t": 124422.06064166613,
      "d": 434.42598333333444,
      "v": 88
    },
    {
      "midi": 62,
      "hit": false,
      "t": 124437.42948541675,
      "d": 483.60628333332716,
      "v": 1
    },
    {
      "midi": 72,
      "hit": false,
      "t": 124437.42948541675,
      "d": 483.60628333332716,
      "v": 1
    },
    {
      "midi": 65,
      "hit": false,
      "t": 124677.18344791613,
      "d": 90.16388333332725,
      "v": 102
    },
    {
      "midi": 33,
      "hit": false,
      "t": 124913.86364166613,
      "d": 396.5161687499931,
      "v": 91
    },
    {
      "midi": 64,
      "hit": false,
      "t": 124918.9865895828,
      "d": 285.8604937499913,
      "v": 102
    },
    {
      "midi": 67,
      "hit": false,
      "t": 124918.9865895828,
      "d": 285.8604937499913,
      "v": 102
    },
    {
      "midi": 60,
      "hit": false,
      "t": 124923.08494791613,
      "d": 284.8359041666554,
      "v": 102
    },
    {
      "midi": 64,
      "hit": false,
      "t": 124923.08494791675,
      "d": 1232.5812687500002,
      "v": 1
    },
    {
      "midi": 72,
      "hit": false,
      "t": 124923.08494791675,
      "d": 1232.5812687500002,
      "v": 1
    },
    {
      "midi": 67,
      "hit": false,
      "t": 125303.20768333279,
      "d": 198.77037916667177,
      "v": 100
    },
    {
      "midi": 60,
      "hit": false,
      "t": 125308.33063124945,
      "d": 198.77037916667177,
      "v": 100
    },
    {
      "midi": 64,
      "hit": false,
      "t": 125308.33063124945,
      "d": 198.77037916667177,
      "v": 100
    },
    {
      "midi": 33,
      "hit": false,
      "t": 125414.88794791613,
      "d": 225.40970833333267,
      "v": 81
    },
    {
      "midi": 36,
      "hit": false,
      "t": 125650.54355208279,
      "d": 420.0817291666608,
      "v": 91
    },
    {
      "midi": 64,
      "hit": false,
      "t": 125651.56814166612,
      "d": 253.07362708332948,
      "v": 99
    },
    {
      "midi": 60,
      "hit": false,
      "t": 125656.69108958279,
      "d": 253.07362708332948,
      "v": 99
    },
    {
      "midi": 67,
      "hit": false,
      "t": 125656.69108958279,
      "d": 253.07362708332948,
      "v": 99
    },
    {
      "midi": 69,
      "hit": false,
      "t": 126142.34655208279,
      "d": 133.1966458333336,
      "v": 99
    },
    {
      "midi": 65,
      "hit": false,
      "t": 126143.37114166612,
      "d": 135.24582499999087,
      "v": 99
    },
    {
      "midi": 36,
      "hit": false,
      "t": 126143.37114166612,
      "d": 237.70478333331994,
      "v": 90
    },
    {
      "midi": 62,
      "hit": false,
      "t": 126148.49408958279,
      "d": 135.24582499999087,
      "v": 99
    },
    {
      "midi": 62,
      "hit": false,
      "t": 126157.71539583342,
      "d": 1721.3105000000069,
      "v": 1
    },
    {
      "midi": 69,
      "hit": false,
      "t": 126157.71539583342,
      "d": 1721.3105000000069,
      "v": 1
    },
    {
      "midi": 38,
      "hit": false,
      "t": 126398.49394791611,
      "d": 79.91798749999725,
      "v": 90
    },
    {
      "midi": 62,
      "hit": false,
      "t": 126398.49394791611,
      "d": 459.0161333333381,
      "v": 102
    },
    {
      "midi": 65,
      "hit": false,
      "t": 126398.49394791611,
      "d": 459.0161333333381,
      "v": 102
    },
    {
      "midi": 69,
      "hit": false,
      "t": 126398.49394791611,
      "d": 459.0161333333381,
      "v": 102
    },
    {
      "midi": 36,
      "hit": false,
      "t": 126635.17414166611,
      "d": 106.5573166666727,
      "v": 91
    },
    {
      "midi": 65,
      "hit": false,
      "t": 126881.07564166612,
      "d": 460.04072291665943,
      "v": 102
    },
    {
      "midi": 69,
      "hit": false,
      "t": 126885.17399999945,
      "d": 459.0161333333235,
      "v": 102
    },
    {
      "midi": 34,
      "hit": false,
      "t": 126886.19858958278,
      "d": 465.16367083332443,
      "v": 90
    },
    {
      "midi": 62,
      "hit": false,
      "t": 126890.29694791611,
      "d": 459.0161333333235,
      "v": 102
    },
    {
      "midi": 69,
      "hit": false,
      "t": 127372.8786416661,
      "d": 460.04072291665943,
      "v": 92
    },
    {
      "midi": 33,
      "hit": false,
      "t": 127376.97699999943,
      "d": 464.1390812499885,
      "v": 92
    },
    {
      "midi": 62,
      "hit": false,
      "t": 127378.00158958277,
      "d": 460.04072291665943,
      "v": 92
    },
    {
      "midi": 65,
      "hit": false,
      "t": 127378.00158958277,
      "d": 460.04072291665943,
      "v": 92
    },
    {
      "midi": 62,
      "hit": false,
      "t": 127863.65705208275,
      "d": 251.02444791665766,
      "v": 99
    },
    {
      "midi": 59,
      "hit": false,
      "t": 127864.68164166609,
      "d": 253.07362708331493,
      "v": 99
    },
    {
      "midi": 65,
      "hit": false,
      "t": 127869.80458958275,
      "d": 253.07362708331493,
      "v": 99
    },
    {
      "midi": 31,
      "hit": false,
      "t": 127873.90294791608,
      "d": 230.53265624999767,
      "v": 92
    },
    {
      "midi": 67,
      "hit": false,
      "t": 127880.05048541677,
      "d": 1953.8923354166618,
      "v": 1
    },
    {
      "midi": 71,
      "hit": false,
      "t": 127880.05048541677,
      "d": 1953.8923354166618,
      "v": 1
    },
    {
      "midi": 35,
      "hit": false,
      "t": 128114.68149999941,
      "d": 87.09011458331952,
      "v": 90
    },
    {
      "midi": 62,
      "hit": false,
      "t": 128253.0010937494,
      "d": 177.25399791666132,
      "v": 94
    },
    {
      "midi": 38,
      "hit": false,
      "t": 128254.02568333273,
      "d": 94.26224166665634,
      "v": 87
    },
    {
      "midi": 59,
      "hit": false,
      "t": 128258.12404166606,
      "d": 177.25399791666132,
      "v": 94
    },
    {
      "midi": 65,
      "hit": false,
      "t": 128258.12404166606,
      "d": 177.25399791666132,
      "v": 94
    },
    {
      "midi": 41,
      "hit": false,
      "t": 128360.58299999939,
      "d": 230.53265624999767,
      "v": 90
    },
    {
      "midi": 65,
      "hit": false,
      "t": 128601.36155208272,
      "d": 90.16388333332725,
      "v": 102
    },
    {
      "midi": 38,
      "hit": false,
      "t": 128601.36155208272,
      "d": 105.53272708332224,
      "v": 86
    },
    {
      "midi": 35,
      "hit": false,
      "t": 128745.8286833327,
      "d": 94.26224166667089,
      "v": 89
    },
    {
      "midi": 65,
      "hit": false,
      "t": 128847.26305208271,
      "d": 284.83590416666993,
      "v": 102
    },
    {
      "midi": 59,
      "hit": false,
      "t": 128852.38599999937,
      "d": 284.83590416666993,
      "v": 102
    },
    {
      "midi": 31,
      "hit": false,
      "t": 128853.41058958271,
      "d": 237.7047833333345,
      "v": 90
    },
    {
      "midi": 62,
      "hit": false,
      "t": 128853.41058958271,
      "d": 285.86049375000584,
      "v": 102
    },
    {
      "midi": 35,
      "hit": false,
      "t": 129103.41044791605,
      "d": 100.4097791666718,
      "v": 88
    },
    {
      "midi": 62,
      "hit": false,
      "t": 129241.73004166604,
      "d": 197.7457895833213,
      "v": 100
    },
    {
      "midi": 59,
      "hit": false,
      "t": 129242.75463124938,
      "d": 198.77037916665722,
      "v": 100
    },
    {
      "midi": 38,
      "hit": false,
      "t": 129246.85298958271,
      "d": 92.21306249999907,
      "v": 87
    },
    {
      "midi": 65,
      "hit": false,
      "t": 129246.85298958271,
      "d": 197.7457895833213,
      "v": 100
    },
    {
      "midi": 41,
      "hit": false,
      "t": 129349.31194791604,
      "d": 187.49989374999132,
      "v": 91
    },
    {
      "midi": 38,
      "hit": false,
      "t": 129584.9675520827,
      "d": 105.5327270833368,
      "v": 86
    },
    {
      "midi": 59,
      "hit": false,
      "t": 129585.99214166604,
      "d": 242.8277312499995,
      "v": 99
    },
    {
      "midi": 62,
      "hit": false,
      "t": 129595.21344791603,
      "d": 230.53265625001222,
      "v": 99
    },
    {
      "midi": 65,
      "hit": false,
      "t": 129595.21344791603,
      "d": 238.72937291668495,
      "v": 99
    },
    {
      "midi": 35,
      "hit": false,
      "t": 129729.4346833327,
      "d": 94.26224166667089,
      "v": 89
    },
    {
      "midi": 62,
      "hit": false,
      "t": 129830.86905208271,
      "d": 15.368843750009546,
      "v": 99
    },
    {
      "midi": 59,
      "hit": false,
      "t": 129831.89364166604,
      "d": 7.172127083336818,
      "v": 99
    },
    {
      "midi": 65,
      "hit": false,
      "t": 129837.01658958271,
      "d": 9.221306250008638,
      "v": 99
    },
    {
      "midi": 31,
      "hit": false,
      "t": 129841.11494791605,
      "d": 230.53265624999767,
      "v": 92
    },
    {
      "midi": 35,
      "hit": false,
      "t": 130081.89349999938,
      "d": 87.09011458333407,
      "v": 90
    },
    {
      "midi": 62,
      "hit": false,
      "t": 130220.21309374938,
      "d": 177.25399791666132,
      "v": 94
    },
    {
      "midi": 38,
      "hit": false,
      "t": 130221.23768333271,
      "d": 94.26224166665634,
      "v": 87
    },
    {
      "midi": 59,
      "hit": false,
      "t": 130225.33604166604,
      "d": 177.25399791666132,
      "v": 94
    },
    {
      "midi": 65,
      "hit": false,
      "t": 130225.33604166604,
      "d": 177.25399791666132,
      "v": 94
    },
    {
      "midi": 41,
      "hit": false,
      "t": 130327.79499999937,
      "d": 230.53265624999767,
      "v": 90
    },
    {
      "midi": 65,
      "hit": false,
      "t": 130568.5735520827,
      "d": 90.16388333332725,
      "v": 102
    },
    {
      "midi": 38,
      "hit": false,
      "t": 130568.5735520827,
      "d": 105.53272708332224,
      "v": 86
    },
    {
      "midi": 35,
      "hit": false,
      "t": 130713.04068333269,
      "d": 94.26224166667089,
      "v": 89
    },
    {
      "midi": 65,
      "hit": false,
      "t": 130814.4750520827,
      "d": 284.83590416666993,
      "v": 102
    },
    {
      "midi": 59,
      "hit": false,
      "t": 130819.59799999936,
      "d": 284.8359041666845,
      "v": 102
    },
    {
      "midi": 31,
      "hit": false,
      "t": 130820.6225895827,
      "d": 237.7047833333345,
      "v": 90
    },
    {
      "midi": 62,
      "hit": false,
      "t": 130820.6225895827,
      "d": 285.8604937500204,
      "v": 102
    },
    {
      "midi": 35,
      "hit": false,
      "t": 131070.62244791603,
      "d": 100.4097791666718,
      "v": 88
    },
    {
      "midi": 62,
      "hit": false,
      "t": 131208.94204166604,
      "d": 197.74578958333586,
      "v": 100
    },
    {
      "midi": 59,
      "hit": false,
      "t": 131209.96663124938,
      "d": 198.77037916667177,
      "v": 100
    },
    {
      "midi": 38,
      "hit": false,
      "t": 131214.06498958272,
      "d": 92.21306249999907,
      "v": 87
    },
    {
      "midi": 65,
      "hit": false,
      "t": 131214.06498958272,
      "d": 197.74578958333586,
      "v": 100
    },
    {
      "midi": 41,
      "hit": false,
      "t": 131316.52394791605,
      "d": 187.49989375000587,
      "v": 91
    },
    {
      "midi": 38,
      "hit": false,
      "t": 131552.17955208273,
      "d": 351.434227083344,
      "v": 86
    },
    {
      "midi": 59,
      "hit": false,
      "t": 131553.20414166606,
      "d": 376.02437708334764,
      "v": 99
    },
    {
      "midi": 62,
      "hit": false,
      "t": 131562.42544791606,
      "d": 373.9751979166758,
      "v": 99
    },
    {
      "midi": 65,
      "hit": false,
      "t": 131562.42544791606,
      "d": 373.9751979166758,
      "v": 99
    },
    {
      "midi": 65,
      "hit": false,
      "t": 132289.88405208272,
      "d": 202.8687375000154,
      "v": 102
    },
    {
      "midi": 57,
      "hit": false,
      "t": 132295.0069999994,
      "d": 207.99168541666586,
      "v": 102
    },
    {
      "midi": 36,
      "hit": false,
      "t": 132296.03158958274,
      "d": 198.77037916667177,
      "v": 90
    },
    {
      "midi": 60,
      "hit": false,
      "t": 132296.03158958274,
      "d": 212.0900437500095,
      "v": 102
    },
    {
      "midi": 62,
      "hit": false,
      "t": 132535.78555208276,
      "d": 197.74578958333586,
      "v": 100
    },
    {
      "midi": 59,
      "hit": false,
      "t": 132536.8101416661,
      "d": 198.77037916667177,
      "v": 100
    },
    {
      "midi": 67,
      "hit": false,
      "t": 132540.90849999944,
      "d": 197.74578958333586,
      "v": 100
    },
    {
      "midi": 38,
      "hit": false,
      "t": 132540.90849999944,
      "d": 215.16381249998813,
      "v": 87
    },
    {
      "midi": 71,
      "hit": false,
      "t": 133273.49005208275,
      "d": 197.74578958333586,
      "v": 100
    },
    {
      "midi": 67,
      "hit": false,
      "t": 133274.5146416661,
      "d": 198.77037916667177,
      "v": 100
    },
    {
      "midi": 74,
      "hit": false,
      "t": 133278.61299999943,
      "d": 197.74578958333586,
      "v": 100
    },
    {
      "midi": 43,
      "hit": false,
      "t": 133278.61299999943,
      "d": 215.16381249998813,
      "v": 87
    },
    {
      "midi": 62,
      "hit": false,
      "t": 133770.41599999942,
      "d": 251.02444791665766,
      "v": 99
    },
    {
      "midi": 65,
      "hit": false,
      "t": 133770.41599999942,
      "d": 251.02444791665766,
      "v": 99
    },
    {
      "midi": 69,
      "hit": false,
      "t": 133770.41599999942,
      "d": 251.02444791665766,
      "v": 99
    },
    {
      "midi": 38,
      "hit": false,
      "t": 133770.41599999942,
      "d": 425.2046770833258,
      "v": 91
    },
    {
      "midi": 60,
      "hit": false,
      "t": 134159.76004166607,
      "d": 177.25399791667587,
      "v": 94
    },
    {
      "midi": 64,
      "hit": false,
      "t": 134159.76004166607,
      "d": 177.25399791667587,
      "v": 94
    },
    {
      "midi": 67,
      "hit": false,
      "t": 134159.76004166607,
      "d": 177.25399791667587,
      "v": 94
    },
    {
      "midi": 36,
      "hit": false,
      "t": 134262.2189999994,
      "d": 425.2046770833258,
      "v": 81
    },
    {
      "midi": 60,
      "hit": false,
      "t": 134508.1204999994,
      "d": 90.16388333332725,
      "v": 102
    },
    {
      "midi": 64,
      "hit": false,
      "t": 134508.1204999994,
      "d": 90.16388333332725,
      "v": 102
    },
    {
      "midi": 67,
      "hit": false,
      "t": 134508.1204999994,
      "d": 90.16388333332725,
      "v": 102
    },
    {
      "midi": 60,
      "hit": false,
      "t": 134754.0219999994,
      "d": 284.8359041666554,
      "v": 102
    },
    {
      "midi": 64,
      "hit": false,
      "t": 134754.0219999994,
      "d": 284.8359041666554,
      "v": 102
    },
    {
      "midi": 67,
      "hit": false,
      "t": 134754.0219999994,
      "d": 284.8359041666554,
      "v": 102
    },
    {
      "midi": 38,
      "hit": false,
      "t": 134754.0219999994,
      "d": 425.2046770833258,
      "v": 86
    },
    {
      "midi": 62,
      "hit": false,
      "t": 135143.36604166604,
      "d": 197.74578958333586,
      "v": 100
    },
    {
      "midi": 65,
      "hit": false,
      "t": 135143.36604166604,
      "d": 197.74578958333586,
      "v": 100
    },
    {
      "midi": 69,
      "hit": false,
      "t": 135143.36604166604,
      "d": 197.74578958333586,
      "v": 100
    },
    {
      "midi": 36,
      "hit": false,
      "t": 135245.82499999937,
      "d": 425.2046770833258,
      "v": 86
    },
    {
      "midi": 60,
      "hit": false,
      "t": 135491.72649999938,
      "d": 87.09011458331952,
      "v": 102
    },
    {
      "midi": 64,
      "hit": false,
      "t": 135491.72649999938,
      "d": 87.09011458331952,
      "v": 102
    },
    {
      "midi": 67,
      "hit": false,
      "t": 135491.72649999938,
      "d": 87.09011458331952,
      "v": 102
    },
    {
      "midi": 59,
      "hit": false,
      "t": 135737.62799999936,
      "d": 251.02444791665766,
      "v": 99
    },
    {
      "midi": 62,
      "hit": false,
      "t": 135737.62799999936,
      "d": 251.02444791665766,
      "v": 99
    },
    {
      "midi": 67,
      "hit": false,
      "t": 135737.62799999936,
      "d": 251.02444791665766,
      "v": 99
    },
    {
      "midi": 35,
      "hit": false,
      "t": 135737.62799999936,
      "d": 425.2046770833258,
      "v": 86
    },
    {
      "midi": 59,
      "hit": false,
      "t": 136126.972041666,
      "d": 133.19664583331905,
      "v": 99
    },
    {
      "midi": 62,
      "hit": false,
      "t": 136126.972041666,
      "d": 133.19664583331905,
      "v": 99
    },
    {
      "midi": 67,
      "hit": false,
      "t": 136126.972041666,
      "d": 133.19664583331905,
      "v": 99
    },
    {
      "midi": 35,
      "hit": false,
      "t": 136229.43099999934,
      "d": 425.2046770832967,
      "v": 86
    },
    {
      "midi": 59,
      "hit": false,
      "t": 136475.33249999932,
      "d": 90.16388333332725,
      "v": 102
    },
    {
      "midi": 62,
      "hit": false,
      "t": 136475.33249999932,
      "d": 90.16388333332725,
      "v": 102
    },
    {
      "midi": 67,
      "hit": false,
      "t": 136475.33249999932,
      "d": 90.16388333332725,
      "v": 102
    },
    {
      "midi": 60,
      "hit": false,
      "t": 136721.2339999993,
      "d": 266.3932916666672,
      "v": 102
    },
    {
      "midi": 62,
      "hit": false,
      "t": 136721.2339999993,
      "d": 266.3932916666672,
      "v": 102
    },
    {
      "midi": 65,
      "hit": false,
      "t": 136721.2339999993,
      "d": 266.3932916666672,
      "v": 102
    },
    {
      "midi": 36,
      "hit": false,
      "t": 136721.2339999993,
      "d": 425.2046770833258,
      "v": 87
    },
    {
      "midi": 60,
      "hit": false,
      "t": 137110.57804166595,
      "d": 184.42612499999814,
      "v": 100
    },
    {
      "midi": 62,
      "hit": false,
      "t": 137110.57804166595,
      "d": 184.42612499999814,
      "v": 100
    },
    {
      "midi": 65,
      "hit": false,
      "t": 137110.57804166595,
      "d": 184.42612499999814,
      "v": 100
    },
    {
      "midi": 36,
      "hit": false,
      "t": 137213.03699999928,
      "d": 425.2046770833258,
      "v": 88
    },
    {
      "midi": 60,
      "hit": false,
      "t": 137458.9384999993,
      "d": 79.91798749999725,
      "v": 102
    },
    {
      "midi": 62,
      "hit": false,
      "t": 137458.9384999993,
      "d": 79.91798749999725,
      "v": 102
    },
    {
      "midi": 65,
      "hit": false,
      "t": 137458.9384999993,
      "d": 79.91798749999725,
      "v": 102
    },
    {
      "midi": 62,
      "hit": false,
      "t": 137704.83999999927,
      "d": 251.02444791665766,
      "v": 99
    },
    {
      "midi": 65,
      "hit": false,
      "t": 137704.83999999927,
      "d": 251.02444791665766,
      "v": 99
    },
    {
      "midi": 69,
      "hit": false,
      "t": 137704.83999999927,
      "d": 251.02444791665766,
      "v": 99
    },
    {
      "midi": 38,
      "hit": false,
      "t": 137704.83999999927,
      "d": 425.2046770833258,
      "v": 91
    },
    {
      "midi": 60,
      "hit": false,
      "t": 138094.18404166593,
      "d": 177.25399791667587,
      "v": 94
    },
    {
      "midi": 64,
      "hit": false,
      "t": 138094.18404166593,
      "d": 177.25399791667587,
      "v": 94
    },
    {
      "midi": 67,
      "hit": false,
      "t": 138094.18404166593,
      "d": 177.25399791667587,
      "v": 94
    },
    {
      "midi": 29,
      "hit": false,
      "t": 138196.64299999925,
      "d": 425.2046770833258,
      "v": 81
    },
    {
      "midi": 60,
      "hit": false,
      "t": 138442.54449999926,
      "d": 90.16388333332725,
      "v": 102
    },
    {
      "midi": 64,
      "hit": false,
      "t": 138442.54449999926,
      "d": 90.16388333332725,
      "v": 102
    },
    {
      "midi": 67,
      "hit": false,
      "t": 138442.54449999926,
      "d": 90.16388333332725,
      "v": 102
    },
    {
      "midi": 60,
      "hit": false,
      "t": 138688.44599999924,
      "d": 284.8359041666554,
      "v": 102
    },
    {
      "midi": 64,
      "hit": false,
      "t": 138688.44599999924,
      "d": 284.8359041666554,
      "v": 102
    },
    {
      "midi": 67,
      "hit": false,
      "t": 138688.44599999924,
      "d": 284.8359041666554,
      "v": 102
    },
    {
      "midi": 29,
      "hit": false,
      "t": 138688.44599999924,
      "d": 425.2046770833258,
      "v": 86
    },
    {
      "midi": 62,
      "hit": false,
      "t": 139077.7900416659,
      "d": 197.74578958333586,
      "v": 100
    },
    {
      "midi": 65,
      "hit": false,
      "t": 139077.7900416659,
      "d": 197.74578958333586,
      "v": 100
    },
    {
      "midi": 69,
      "hit": false,
      "t": 139077.7900416659,
      "d": 197.74578958333586,
      "v": 100
    },
    {
      "midi": 34,
      "hit": false,
      "t": 139180.24899999922,
      "d": 425.2046770833258,
      "v": 86
    },
    {
      "midi": 60,
      "hit": false,
      "t": 139426.15049999923,
      "d": 87.09011458331952,
      "v": 102
    },
    {
      "midi": 64,
      "hit": false,
      "t": 139426.15049999923,
      "d": 87.09011458331952,
      "v": 102
    },
    {
      "midi": 67,
      "hit": false,
      "t": 139426.15049999923,
      "d": 87.09011458331952,
      "v": 102
    },
    {
      "midi": 58,
      "hit": false,
      "t": 139672.0519999992,
      "d": 251.02444791665766,
      "v": 99
    },
    {
      "midi": 62,
      "hit": false,
      "t": 139672.0519999992,
      "d": 251.02444791665766,
      "v": 99
    },
    {
      "midi": 65,
      "hit": false,
      "t": 139672.0519999992,
      "d": 251.02444791665766,
      "v": 99
    },
    {
      "midi": 31,
      "hit": false,
      "t": 139672.0519999992,
      "d": 425.2046770833258,
      "v": 86
    },
    {
      "midi": 58,
      "hit": false,
      "t": 140061.39604166587,
      "d": 133.19664583331905,
      "v": 99
    },
    {
      "midi": 62,
      "hit": false,
      "t": 140061.39604166587,
      "d": 133.19664583331905,
      "v": 99
    },
    {
      "midi": 65,
      "hit": false,
      "t": 140061.39604166587,
      "d": 133.19664583331905,
      "v": 99
    },
    {
      "midi": 31,
      "hit": false,
      "t": 140163.8549999992,
      "d": 425.2046770832967,
      "v": 86
    },
    {
      "midi": 58,
      "hit": false,
      "t": 140409.75649999917,
      "d": 90.16388333332725,
      "v": 102
    },
    {
      "midi": 62,
      "hit": false,
      "t": 140409.75649999917,
      "d": 90.16388333332725,
      "v": 102
    },
    {
      "midi": 65,
      "hit": false,
      "t": 140409.75649999917,
      "d": 90.16388333332725,
      "v": 102
    },
    {
      "midi": 60,
      "hit": false,
      "t": 140655.65799999915,
      "d": 266.3932916666672,
      "v": 102
    },
    {
      "midi": 64,
      "hit": false,
      "t": 140655.65799999915,
      "d": 266.3932916666672,
      "v": 102
    },
    {
      "midi": 67,
      "hit": false,
      "t": 140655.65799999915,
      "d": 266.3932916666672,
      "v": 102
    },
    {
      "midi": 33,
      "hit": false,
      "t": 140655.65799999915,
      "d": 425.2046770833258,
      "v": 87
    },
    {
      "midi": 60,
      "hit": false,
      "t": 141045.0020416658,
      "d": 184.42612499999814,
      "v": 100
    },
    {
      "midi": 64,
      "hit": false,
      "t": 141045.0020416658,
      "d": 184.42612499999814,
      "v": 100
    },
    {
      "midi": 67,
      "hit": false,
      "t": 141045.0020416658,
      "d": 184.42612499999814,
      "v": 100
    },
    {
      "midi": 33,
      "hit": false,
      "t": 141147.46099999914,
      "d": 425.2046770833258,
      "v": 88
    },
    {
      "midi": 60,
      "hit": false,
      "t": 141393.36249999914,
      "d": 79.91798749999725,
      "v": 102
    },
    {
      "midi": 64,
      "hit": false,
      "t": 141393.36249999914,
      "d": 79.91798749999725,
      "v": 102
    },
    {
      "midi": 67,
      "hit": false,
      "t": 141393.36249999914,
      "d": 79.91798749999725,
      "v": 102
    },
    {
      "midi": 62,
      "hit": false,
      "t": 141639.26399999912,
      "d": 251.02444791665766,
      "v": 99
    },
    {
      "midi": 65,
      "hit": false,
      "t": 141639.26399999912,
      "d": 251.02444791665766,
      "v": 99
    },
    {
      "midi": 69,
      "hit": false,
      "t": 141639.26399999912,
      "d": 251.02444791665766,
      "v": 99
    },
    {
      "midi": 38,
      "hit": false,
      "t": 141639.26399999912,
      "d": 425.2046770833258,
      "v": 91
    },
    {
      "midi": 60,
      "hit": false,
      "t": 142028.60804166578,
      "d": 177.25399791667587,
      "v": 94
    },
    {
      "midi": 64,
      "hit": false,
      "t": 142028.60804166578,
      "d": 177.25399791667587,
      "v": 94
    },
    {
      "midi": 67,
      "hit": false,
      "t": 142028.60804166578,
      "d": 177.25399791667587,
      "v": 94
    },
    {
      "midi": 36,
      "hit": false,
      "t": 142131.0669999991,
      "d": 425.2046770833258,
      "v": 81
    },
    {
      "midi": 60,
      "hit": false,
      "t": 142376.96849999912,
      "d": 90.16388333332725,
      "v": 102
    },
    {
      "midi": 64,
      "hit": false,
      "t": 142376.96849999912,
      "d": 90.16388333332725,
      "v": 102
    },
    {
      "midi": 67,
      "hit": false,
      "t": 142376.96849999912,
      "d": 90.16388333332725,
      "v": 102
    },
    {
      "midi": 60,
      "hit": false,
      "t": 142622.8699999991,
      "d": 284.8359041666554,
      "v": 102
    },
    {
      "midi": 64,
      "hit": false,
      "t": 142622.8699999991,
      "d": 284.8359041666554,
      "v": 102
    },
    {
      "midi": 67,
      "hit": false,
      "t": 142622.8699999991,
      "d": 284.8359041666554,
      "v": 102
    },
    {
      "midi": 38,
      "hit": false,
      "t": 142622.8699999991,
      "d": 425.2046770833258,
      "v": 86
    },
    {
      "midi": 62,
      "hit": false,
      "t": 143012.21404166575,
      "d": 197.74578958333586,
      "v": 100
    },
    {
      "midi": 65,
      "hit": false,
      "t": 143012.21404166575,
      "d": 197.74578958333586,
      "v": 100
    },
    {
      "midi": 69,
      "hit": false,
      "t": 143012.21404166575,
      "d": 197.74578958333586,
      "v": 100
    },
    {
      "midi": 36,
      "hit": false,
      "t": 143114.67299999908,
      "d": 425.2046770833258,
      "v": 86
    },
    {
      "midi": 60,
      "hit": false,
      "t": 143360.5744999991,
      "d": 87.09011458331952,
      "v": 102
    },
    {
      "midi": 64,
      "hit": false,
      "t": 143360.5744999991,
      "d": 87.09011458331952,
      "v": 102
    },
    {
      "midi": 67,
      "hit": false,
      "t": 143360.5744999991,
      "d": 87.09011458331952,
      "v": 102
    },
    {
      "midi": 59,
      "hit": false,
      "t": 143606.47599999906,
      "d": 251.02444791665766,
      "v": 99
    },
    {
      "midi": 62,
      "hit": false,
      "t": 143606.47599999906,
      "d": 251.02444791665766,
      "v": 99
    },
    {
      "midi": 67,
      "hit": false,
      "t": 143606.47599999906,
      "d": 251.02444791665766,
      "v": 99
    },
    {
      "midi": 35,
      "hit": false,
      "t": 143606.47599999906,
      "d": 425.2046770833258,
      "v": 86
    },
    {
      "midi": 59,
      "hit": false,
      "t": 143995.82004166572,
      "d": 133.19664583331905,
      "v": 99
    },
    {
      "midi": 62,
      "hit": false,
      "t": 143995.82004166572,
      "d": 133.19664583331905,
      "v": 99
    },
    {
      "midi": 67,
      "hit": false,
      "t": 143995.82004166572,
      "d": 133.19664583331905,
      "v": 99
    },
    {
      "midi": 35,
      "hit": false,
      "t": 144098.27899999905,
      "d": 425.2046770832967,
      "v": 86
    },
    {
      "midi": 59,
      "hit": false,
      "t": 144344.18049999903,
      "d": 90.16388333332725,
      "v": 102
    },
    {
      "midi": 62,
      "hit": false,
      "t": 144344.18049999903,
      "d": 90.16388333332725,
      "v": 102
    },
    {
      "midi": 67,
      "hit": false,
      "t": 144344.18049999903,
      "d": 90.16388333332725,
      "v": 102
    },
    {
      "midi": 60,
      "hit": false,
      "t": 144590.081999999,
      "d": 266.3932916666672,
      "v": 102
    },
    {
      "midi": 62,
      "hit": false,
      "t": 144590.081999999,
      "d": 266.3932916666672,
      "v": 102
    },
    {
      "midi": 65,
      "hit": false,
      "t": 144590.081999999,
      "d": 266.3932916666672,
      "v": 102
    },
    {
      "midi": 36,
      "hit": false,
      "t": 144590.081999999,
      "d": 425.2046770833258,
      "v": 87
    },
    {
      "midi": 60,
      "hit": false,
      "t": 144979.42604166566,
      "d": 184.42612499999814,
      "v": 100
    },
    {
      "midi": 62,
      "hit": false,
      "t": 144979.42604166566,
      "d": 184.42612499999814,
      "v": 100
    },
    {
      "midi": 65,
      "hit": false,
      "t": 144979.42604166566,
      "d": 184.42612499999814,
      "v": 100
    },
    {
      "midi": 36,
      "hit": false,
      "t": 145081.884999999,
      "d": 425.2046770833258,
      "v": 88
    },
    {
      "midi": 60,
      "hit": false,
      "t": 145327.786499999,
      "d": 79.91798749999725,
      "v": 102
    },
    {
      "midi": 62,
      "hit": false,
      "t": 145327.786499999,
      "d": 79.91798749999725,
      "v": 102
    },
    {
      "midi": 65,
      "hit": false,
      "t": 145327.786499999,
      "d": 79.91798749999725,
      "v": 102
    },
    {
      "midi": 62,
      "hit": false,
      "t": 145573.68799999898,
      "d": 251.02444791665766,
      "v": 99
    },
    {
      "midi": 65,
      "hit": false,
      "t": 145573.68799999898,
      "d": 251.02444791665766,
      "v": 99
    },
    {
      "midi": 69,
      "hit": false,
      "t": 145573.68799999898,
      "d": 251.02444791665766,
      "v": 99
    },
    {
      "midi": 38,
      "hit": false,
      "t": 145573.68799999898,
      "d": 425.2046770833258,
      "v": 91
    },
    {
      "midi": 60,
      "hit": false,
      "t": 145963.03204166563,
      "d": 177.25399791667587,
      "v": 94
    },
    {
      "midi": 64,
      "hit": false,
      "t": 145963.03204166563,
      "d": 177.25399791667587,
      "v": 94
    },
    {
      "midi": 67,
      "hit": false,
      "t": 145963.03204166563,
      "d": 177.25399791667587,
      "v": 94
    },
    {
      "midi": 29,
      "hit": false,
      "t": 146065.49099999896,
      "d": 425.2046770833258,
      "v": 81
    },
    {
      "midi": 60,
      "hit": false,
      "t": 146311.39249999897,
      "d": 90.16388333332725,
      "v": 102
    },
    {
      "midi": 64,
      "hit": false,
      "t": 146311.39249999897,
      "d": 90.16388333332725,
      "v": 102
    },
    {
      "midi": 67,
      "hit": false,
      "t": 146311.39249999897,
      "d": 90.16388333332725,
      "v": 102
    },
    {
      "midi": 60,
      "hit": false,
      "t": 146557.29399999895,
      "d": 284.8359041666554,
      "v": 102
    },
    {
      "midi": 64,
      "hit": false,
      "t": 146557.29399999895,
      "d": 284.8359041666554,
      "v": 102
    },
    {
      "midi": 67,
      "hit": false,
      "t": 146557.29399999895,
      "d": 284.8359041666554,
      "v": 102
    },
    {
      "midi": 29,
      "hit": false,
      "t": 146557.29399999895,
      "d": 425.2046770833258,
      "v": 86
    },
    {
      "midi": 62,
      "hit": false,
      "t": 146946.6380416656,
      "d": 197.74578958333586,
      "v": 100
    },
    {
      "midi": 65,
      "hit": false,
      "t": 146946.6380416656,
      "d": 197.74578958333586,
      "v": 100
    },
    {
      "midi": 69,
      "hit": false,
      "t": 146946.6380416656,
      "d": 197.74578958333586,
      "v": 100
    },
    {
      "midi": 34,
      "hit": false,
      "t": 147049.09699999893,
      "d": 425.2046770833258,
      "v": 86
    },
    {
      "midi": 60,
      "hit": false,
      "t": 147294.99849999894,
      "d": 87.09011458331952,
      "v": 102
    },
    {
      "midi": 64,
      "hit": false,
      "t": 147294.99849999894,
      "d": 87.09011458331952,
      "v": 102
    },
    {
      "midi": 67,
      "hit": false,
      "t": 147294.99849999894,
      "d": 87.09011458331952,
      "v": 102
    },
    {
      "midi": 58,
      "hit": false,
      "t": 147540.89999999892,
      "d": 251.02444791665766,
      "v": 99
    },
    {
      "midi": 62,
      "hit": false,
      "t": 147540.89999999892,
      "d": 251.02444791665766,
      "v": 99
    },
    {
      "midi": 65,
      "hit": false,
      "t": 147540.89999999892,
      "d": 251.02444791665766,
      "v": 99
    },
    {
      "midi": 31,
      "hit": false,
      "t": 147540.89999999892,
      "d": 425.2046770833258,
      "v": 86
    },
    {
      "midi": 58,
      "hit": false,
      "t": 147930.24404166557,
      "d": 133.19664583331905,
      "v": 99
    },
    {
      "midi": 62,
      "hit": false,
      "t": 147930.24404166557,
      "d": 133.19664583331905,
      "v": 99
    },
    {
      "midi": 65,
      "hit": false,
      "t": 147930.24404166557,
      "d": 133.19664583331905,
      "v": 99
    },
    {
      "midi": 31,
      "hit": false,
      "t": 148032.7029999989,
      "d": 425.2046770832967,
      "v": 86
    },
    {
      "midi": 58,
      "hit": false,
      "t": 148278.60449999888,
      "d": 90.16388333332725,
      "v": 102
    },
    {
      "midi": 62,
      "hit": false,
      "t": 148278.60449999888,
      "d": 90.16388333332725,
      "v": 102
    },
    {
      "midi": 65,
      "hit": false,
      "t": 148278.60449999888,
      "d": 90.16388333332725,
      "v": 102
    },
    {
      "midi": 60,
      "hit": false,
      "t": 148524.50599999886,
      "d": 266.3932916666672,
      "v": 102
    },
    {
      "midi": 64,
      "hit": false,
      "t": 148524.50599999886,
      "d": 266.3932916666672,
      "v": 102
    },
    {
      "midi": 67,
      "hit": false,
      "t": 148524.50599999886,
      "d": 266.3932916666672,
      "v": 102
    },
    {
      "midi": 33,
      "hit": false,
      "t": 148524.50599999886,
      "d": 425.2046770833258,
      "v": 87
    },
    {
      "midi": 60,
      "hit": false,
      "t": 148913.85004166552,
      "d": 184.42612499999814,
      "v": 100
    },
    {
      "midi": 64,
      "hit": false,
      "t": 148913.85004166552,
      "d": 184.42612499999814,
      "v": 100
    },
    {
      "midi": 67,
      "hit": false,
      "t": 148913.85004166552,
      "d": 184.42612499999814,
      "v": 100
    },
    {
      "midi": 33,
      "hit": false,
      "t": 149016.30899999884,
      "d": 425.2046770833258,
      "v": 88
    },
    {
      "midi": 60,
      "hit": false,
      "t": 149262.21049999885,
      "d": 79.91798749999725,
      "v": 102
    },
    {
      "midi": 64,
      "hit": false,
      "t": 149262.21049999885,
      "d": 79.91798749999725,
      "v": 102
    },
    {
      "midi": 67,
      "hit": false,
      "t": 149262.21049999885,
      "d": 79.91798749999725,
      "v": 102
    },
    {
      "midi": 62,
      "hit": false,
      "t": 149508.11199999883,
      "d": 251.02444791665766,
      "v": 99
    },
    {
      "midi": 65,
      "hit": false,
      "t": 149508.11199999883,
      "d": 251.02444791665766,
      "v": 99
    },
    {
      "midi": 69,
      "hit": false,
      "t": 149508.11199999883,
      "d": 251.02444791665766,
      "v": 99
    },
    {
      "midi": 38,
      "hit": false,
      "t": 149508.11199999883,
      "d": 425.2046770833258,
      "v": 91
    },
    {
      "midi": 60,
      "hit": false,
      "t": 149897.4560416655,
      "d": 177.25399791667587,
      "v": 94
    },
    {
      "midi": 64,
      "hit": false,
      "t": 149897.4560416655,
      "d": 177.25399791667587,
      "v": 94
    },
    {
      "midi": 67,
      "hit": false,
      "t": 149897.4560416655,
      "d": 177.25399791667587,
      "v": 94
    },
    {
      "midi": 36,
      "hit": false,
      "t": 149999.91499999881,
      "d": 425.2046770833258,
      "v": 81
    },
    {
      "midi": 60,
      "hit": false,
      "t": 150245.81649999882,
      "d": 90.16388333332725,
      "v": 102
    },
    {
      "midi": 64,
      "hit": false,
      "t": 150245.81649999882,
      "d": 90.16388333332725,
      "v": 102
    },
    {
      "midi": 67,
      "hit": false,
      "t": 150245.81649999882,
      "d": 90.16388333332725,
      "v": 102
    },
    {
      "midi": 60,
      "hit": false,
      "t": 150491.7179999988,
      "d": 284.8359041666554,
      "v": 102
    },
    {
      "midi": 64,
      "hit": false,
      "t": 150491.7179999988,
      "d": 284.8359041666554,
      "v": 102
    },
    {
      "midi": 67,
      "hit": false,
      "t": 150491.7179999988,
      "d": 284.8359041666554,
      "v": 102
    },
    {
      "midi": 38,
      "hit": false,
      "t": 150491.7179999988,
      "d": 425.2046770833258,
      "v": 86
    },
    {
      "midi": 62,
      "hit": false,
      "t": 150881.06204166546,
      "d": 197.74578958333586,
      "v": 100
    },
    {
      "midi": 65,
      "hit": false,
      "t": 150881.06204166546,
      "d": 197.74578958333586,
      "v": 100
    },
    {
      "midi": 69,
      "hit": false,
      "t": 150881.06204166546,
      "d": 197.74578958333586,
      "v": 100
    },
    {
      "midi": 36,
      "hit": false,
      "t": 150983.5209999988,
      "d": 425.2046770833258,
      "v": 86
    },
    {
      "midi": 60,
      "hit": false,
      "t": 151229.4224999988,
      "d": 87.09011458331952,
      "v": 102
    },
    {
      "midi": 64,
      "hit": false,
      "t": 151229.4224999988,
      "d": 87.09011458331952,
      "v": 102
    },
    {
      "midi": 67,
      "hit": false,
      "t": 151229.4224999988,
      "d": 87.09011458331952,
      "v": 102
    },
    {
      "midi": 59,
      "hit": false,
      "t": 151475.32399999877,
      "d": 251.02444791665766,
      "v": 99
    },
    {
      "midi": 62,
      "hit": false,
      "t": 151475.32399999877,
      "d": 251.02444791665766,
      "v": 99
    },
    {
      "midi": 67,
      "hit": false,
      "t": 151475.32399999877,
      "d": 251.02444791665766,
      "v": 99
    },
    {
      "midi": 35,
      "hit": false,
      "t": 151475.32399999877,
      "d": 425.2046770833258,
      "v": 86
    },
    {
      "midi": 59,
      "hit": false,
      "t": 151864.66804166543,
      "d": 133.19664583331905,
      "v": 99
    },
    {
      "midi": 62,
      "hit": false,
      "t": 151864.66804166543,
      "d": 133.19664583331905,
      "v": 99
    },
    {
      "midi": 67,
      "hit": false,
      "t": 151864.66804166543,
      "d": 133.19664583331905,
      "v": 99
    },
    {
      "midi": 35,
      "hit": false,
      "t": 151967.12699999876,
      "d": 425.2046770832967,
      "v": 86
    },
    {
      "midi": 59,
      "hit": false,
      "t": 152213.02849999873,
      "d": 90.16388333332725,
      "v": 102
    },
    {
      "midi": 62,
      "hit": false,
      "t": 152213.02849999873,
      "d": 90.16388333332725,
      "v": 102
    },
    {
      "midi": 67,
      "hit": false,
      "t": 152213.02849999873,
      "d": 90.16388333332725,
      "v": 102
    },
    {
      "midi": 60,
      "hit": false,
      "t": 152458.9299999987,
      "d": 266.3932916666672,
      "v": 102
    },
    {
      "midi": 62,
      "hit": false,
      "t": 152458.9299999987,
      "d": 266.3932916666672,
      "v": 102
    },
    {
      "midi": 65,
      "hit": false,
      "t": 152458.9299999987,
      "d": 266.3932916666672,
      "v": 102
    },
    {
      "midi": 36,
      "hit": false,
      "t": 152458.9299999987,
      "d": 425.2046770833258,
      "v": 87
    },
    {
      "midi": 60,
      "hit": false,
      "t": 152848.27404166537,
      "d": 184.42612499999814,
      "v": 100
    },
    {
      "midi": 62,
      "hit": false,
      "t": 152848.27404166537,
      "d": 184.42612499999814,
      "v": 100
    },
    {
      "midi": 65,
      "hit": false,
      "t": 152848.27404166537,
      "d": 184.42612499999814,
      "v": 100
    },
    {
      "midi": 36,
      "hit": false,
      "t": 152950.7329999987,
      "d": 425.2046770833258,
      "v": 88
    },
    {
      "midi": 60,
      "hit": false,
      "t": 153196.6344999987,
      "d": 79.91798749999725,
      "v": 102
    },
    {
      "midi": 62,
      "hit": false,
      "t": 153196.6344999987,
      "d": 79.91798749999725,
      "v": 102
    },
    {
      "midi": 65,
      "hit": false,
      "t": 153196.6344999987,
      "d": 79.91798749999725,
      "v": 102
    },
    {
      "midi": 62,
      "hit": false,
      "t": 153442.53599999868,
      "d": 251.02444791665766,
      "v": 99
    },
    {
      "midi": 65,
      "hit": false,
      "t": 153442.53599999868,
      "d": 251.02444791665766,
      "v": 99
    },
    {
      "midi": 69,
      "hit": false,
      "t": 153442.53599999868,
      "d": 251.02444791665766,
      "v": 99
    },
    {
      "midi": 38,
      "hit": false,
      "t": 153442.53599999868,
      "d": 425.2046770833258,
      "v": 91
    },
    {
      "midi": 60,
      "hit": false,
      "t": 153831.88004166534,
      "d": 177.25399791667587,
      "v": 94
    },
    {
      "midi": 64,
      "hit": false,
      "t": 153831.88004166534,
      "d": 177.25399791667587,
      "v": 94
    },
    {
      "midi": 67,
      "hit": false,
      "t": 153831.88004166534,
      "d": 177.25399791667587,
      "v": 94
    },
    {
      "midi": 29,
      "hit": false,
      "t": 153934.33899999867,
      "d": 425.2046770833258,
      "v": 81
    },
    {
      "midi": 60,
      "hit": false,
      "t": 154180.24049999868,
      "d": 90.16388333332725,
      "v": 102
    },
    {
      "midi": 64,
      "hit": false,
      "t": 154180.24049999868,
      "d": 90.16388333332725,
      "v": 102
    },
    {
      "midi": 67,
      "hit": false,
      "t": 154180.24049999868,
      "d": 90.16388333332725,
      "v": 102
    },
    {
      "midi": 60,
      "hit": false,
      "t": 154426.14199999865,
      "d": 284.8359041666554,
      "v": 102
    },
    {
      "midi": 64,
      "hit": false,
      "t": 154426.14199999865,
      "d": 284.8359041666554,
      "v": 102
    },
    {
      "midi": 67,
      "hit": false,
      "t": 154426.14199999865,
      "d": 284.8359041666554,
      "v": 102
    },
    {
      "midi": 29,
      "hit": false,
      "t": 154426.14199999865,
      "d": 425.2046770833258,
      "v": 86
    },
    {
      "midi": 62,
      "hit": false,
      "t": 154815.4860416653,
      "d": 197.74578958333586,
      "v": 100
    },
    {
      "midi": 65,
      "hit": false,
      "t": 154815.4860416653,
      "d": 197.74578958333586,
      "v": 100
    },
    {
      "midi": 69,
      "hit": false,
      "t": 154815.4860416653,
      "d": 197.74578958333586,
      "v": 100
    },
    {
      "midi": 34,
      "hit": false,
      "t": 154917.94499999864,
      "d": 425.2046770833258,
      "v": 86
    },
    {
      "midi": 60,
      "hit": false,
      "t": 155163.84649999865,
      "d": 87.09011458331952,
      "v": 102
    },
    {
      "midi": 64,
      "hit": false,
      "t": 155163.84649999865,
      "d": 87.09011458331952,
      "v": 102
    },
    {
      "midi": 67,
      "hit": false,
      "t": 155163.84649999865,
      "d": 87.09011458331952,
      "v": 102
    },
    {
      "midi": 58,
      "hit": false,
      "t": 155409.74799999862,
      "d": 251.02444791665766,
      "v": 99
    },
    {
      "midi": 62,
      "hit": false,
      "t": 155409.74799999862,
      "d": 251.02444791665766,
      "v": 99
    },
    {
      "midi": 65,
      "hit": false,
      "t": 155409.74799999862,
      "d": 251.02444791665766,
      "v": 99
    },
    {
      "midi": 31,
      "hit": false,
      "t": 155409.74799999862,
      "d": 425.2046770833258,
      "v": 86
    },
    {
      "midi": 58,
      "hit": false,
      "t": 155799.09204166528,
      "d": 133.19664583331905,
      "v": 99
    },
    {
      "midi": 62,
      "hit": false,
      "t": 155799.09204166528,
      "d": 133.19664583331905,
      "v": 99
    },
    {
      "midi": 65,
      "hit": false,
      "t": 155799.09204166528,
      "d": 133.19664583331905,
      "v": 99
    },
    {
      "midi": 31,
      "hit": false,
      "t": 155901.5509999986,
      "d": 425.2046770832967,
      "v": 86
    },
    {
      "midi": 58,
      "hit": false,
      "t": 156147.4524999986,
      "d": 90.16388333332725,
      "v": 102
    },
    {
      "midi": 62,
      "hit": false,
      "t": 156147.4524999986,
      "d": 90.16388333332725,
      "v": 102
    },
    {
      "midi": 65,
      "hit": false,
      "t": 156147.4524999986,
      "d": 90.16388333332725,
      "v": 102
    },
    {
      "midi": 60,
      "hit": false,
      "t": 156393.35399999857,
      "d": 266.3932916666672,
      "v": 102
    },
    {
      "midi": 64,
      "hit": false,
      "t": 156393.35399999857,
      "d": 266.3932916666672,
      "v": 102
    },
    {
      "midi": 67,
      "hit": false,
      "t": 156393.35399999857,
      "d": 266.3932916666672,
      "v": 102
    },
    {
      "midi": 33,
      "hit": false,
      "t": 156393.35399999857,
      "d": 425.2046770833258,
      "v": 87
    },
    {
      "midi": 60,
      "hit": false,
      "t": 156782.69804166522,
      "d": 184.42612499999814,
      "v": 100
    },
    {
      "midi": 64,
      "hit": false,
      "t": 156782.69804166522,
      "d": 184.42612499999814,
      "v": 100
    },
    {
      "midi": 67,
      "hit": false,
      "t": 156782.69804166522,
      "d": 184.42612499999814,
      "v": 100
    },
    {
      "midi": 33,
      "hit": false,
      "t": 156885.15699999855,
      "d": 425.2046770833258,
      "v": 88
    },
    {
      "midi": 60,
      "hit": false,
      "t": 157131.05849999856,
      "d": 79.91798749999725,
      "v": 102
    },
    {
      "midi": 64,
      "hit": false,
      "t": 157131.05849999856,
      "d": 79.91798749999725,
      "v": 102
    },
    {
      "midi": 67,
      "hit": false,
      "t": 157131.05849999856,
      "d": 79.91798749999725,
      "v": 102
    },
    {
      "midi": 62,
      "hit": false,
      "t": 157376.95999999854,
      "d": 251.02444791665766,
      "v": 99
    },
    {
      "midi": 65,
      "hit": false,
      "t": 157376.95999999854,
      "d": 251.02444791665766,
      "v": 99
    },
    {
      "midi": 69,
      "hit": false,
      "t": 157376.95999999854,
      "d": 251.02444791665766,
      "v": 99
    },
    {
      "midi": 38,
      "hit": false,
      "t": 157376.95999999854,
      "d": 425.2046770833258,
      "v": 91
    },
    {
      "midi": 60,
      "hit": false,
      "t": 157766.3040416652,
      "d": 177.25399791667587,
      "v": 94
    },
    {
      "midi": 64,
      "hit": false,
      "t": 157766.3040416652,
      "d": 177.25399791667587,
      "v": 94
    },
    {
      "midi": 67,
      "hit": false,
      "t": 157766.3040416652,
      "d": 177.25399791667587,
      "v": 94
    },
    {
      "midi": 36,
      "hit": false,
      "t": 157868.76299999852,
      "d": 425.2046770833258,
      "v": 81
    },
    {
      "midi": 60,
      "hit": false,
      "t": 158114.66449999853,
      "d": 90.16388333332725,
      "v": 102
    },
    {
      "midi": 64,
      "hit": false,
      "t": 158114.66449999853,
      "d": 90.16388333332725,
      "v": 102
    },
    {
      "midi": 67,
      "hit": false,
      "t": 158114.66449999853,
      "d": 90.16388333332725,
      "v": 102
    },
    {
      "midi": 60,
      "hit": false,
      "t": 158360.5659999985,
      "d": 284.8359041666554,
      "v": 102
    },
    {
      "midi": 64,
      "hit": false,
      "t": 158360.5659999985,
      "d": 284.8359041666554,
      "v": 102
    },
    {
      "midi": 67,
      "hit": false,
      "t": 158360.5659999985,
      "d": 284.8359041666554,
      "v": 102
    },
    {
      "midi": 38,
      "hit": false,
      "t": 158360.5659999985,
      "d": 425.2046770833258,
      "v": 86
    },
    {
      "midi": 62,
      "hit": false,
      "t": 158749.91004166516,
      "d": 197.74578958333586,
      "v": 100
    },
    {
      "midi": 65,
      "hit": false,
      "t": 158749.91004166516,
      "d": 197.74578958333586,
      "v": 100
    },
    {
      "midi": 69,
      "hit": false,
      "t": 158749.91004166516,
      "d": 197.74578958333586,
      "v": 100
    },
    {
      "midi": 36,
      "hit": false,
      "t": 158852.3689999985,
      "d": 425.2046770833258,
      "v": 86
    },
    {
      "midi": 60,
      "hit": false,
      "t": 159098.2704999985,
      "d": 87.09011458331952,
      "v": 102
    },
    {
      "midi": 64,
      "hit": false,
      "t": 159098.2704999985,
      "d": 87.09011458331952,
      "v": 102
    },
    {
      "midi": 67,
      "hit": false,
      "t": 159098.2704999985,
      "d": 87.09011458331952,
      "v": 102
    },
    {
      "midi": 59,
      "hit": false,
      "t": 159344.17199999848,
      "d": 251.02444791665766,
      "v": 99
    },
    {
      "midi": 62,
      "hit": false,
      "t": 159344.17199999848,
      "d": 251.02444791665766,
      "v": 99
    },
    {
      "midi": 67,
      "hit": false,
      "t": 159344.17199999848,
      "d": 251.02444791665766,
      "v": 99
    },
    {
      "midi": 35,
      "hit": false,
      "t": 159344.17199999848,
      "d": 425.2046770833258,
      "v": 86
    },
    {
      "midi": 59,
      "hit": false,
      "t": 159733.51604166513,
      "d": 133.19664583331905,
      "v": 99
    },
    {
      "midi": 62,
      "hit": false,
      "t": 159733.51604166513,
      "d": 133.19664583331905,
      "v": 99
    },
    {
      "midi": 67,
      "hit": false,
      "t": 159733.51604166513,
      "d": 133.19664583331905,
      "v": 99
    },
    {
      "midi": 35,
      "hit": false,
      "t": 159835.97499999846,
      "d": 425.2046770832967,
      "v": 86
    },
    {
      "midi": 59,
      "hit": false,
      "t": 160081.87649999844,
      "d": 90.16388333332725,
      "v": 102
    },
    {
      "midi": 62,
      "hit": false,
      "t": 160081.87649999844,
      "d": 90.16388333332725,
      "v": 102
    },
    {
      "midi": 67,
      "hit": false,
      "t": 160081.87649999844,
      "d": 90.16388333332725,
      "v": 102
    },
    {
      "midi": 60,
      "hit": false,
      "t": 160327.77799999842,
      "d": 266.3932916666672,
      "v": 102
    },
    {
      "midi": 62,
      "hit": false,
      "t": 160327.77799999842,
      "d": 266.3932916666672,
      "v": 102
    },
    {
      "midi": 65,
      "hit": false,
      "t": 160327.77799999842,
      "d": 266.3932916666672,
      "v": 102
    },
    {
      "midi": 36,
      "hit": false,
      "t": 160327.77799999842,
      "d": 425.2046770833258,
      "v": 87
    },
    {
      "midi": 60,
      "hit": false,
      "t": 160717.12204166508,
      "d": 184.42612499999814,
      "v": 100
    },
    {
      "midi": 62,
      "hit": false,
      "t": 160717.12204166508,
      "d": 184.42612499999814,
      "v": 100
    },
    {
      "midi": 65,
      "hit": false,
      "t": 160717.12204166508,
      "d": 184.42612499999814,
      "v": 100
    },
    {
      "midi": 36,
      "hit": false,
      "t": 160819.5809999984,
      "d": 425.2046770833258,
      "v": 88
    },
    {
      "midi": 60,
      "hit": false,
      "t": 161065.4824999984,
      "d": 79.91798749999725,
      "v": 102
    },
    {
      "midi": 62,
      "hit": false,
      "t": 161065.4824999984,
      "d": 79.91798749999725,
      "v": 102
    },
    {
      "midi": 65,
      "hit": false,
      "t": 161065.4824999984,
      "d": 79.91798749999725,
      "v": 102
    },
    {
      "midi": 62,
      "hit": false,
      "t": 161311.3839999984,
      "d": 251.02444791665766,
      "v": 99
    },
    {
      "midi": 65,
      "hit": false,
      "t": 161311.3839999984,
      "d": 251.02444791665766,
      "v": 99
    },
    {
      "midi": 69,
      "hit": false,
      "t": 161311.3839999984,
      "d": 251.02444791665766,
      "v": 99
    },
    {
      "midi": 38,
      "hit": false,
      "t": 161311.3839999984,
      "d": 425.2046770833258,
      "v": 91
    },
    {
      "midi": 60,
      "hit": false,
      "t": 161700.72804166505,
      "d": 177.25399791667587,
      "v": 94
    },
    {
      "midi": 64,
      "hit": false,
      "t": 161700.72804166505,
      "d": 177.25399791667587,
      "v": 94
    },
    {
      "midi": 67,
      "hit": false,
      "t": 161700.72804166505,
      "d": 177.25399791667587,
      "v": 94
    },
    {
      "midi": 29,
      "hit": false,
      "t": 161803.18699999838,
      "d": 425.2046770833258,
      "v": 81
    },
    {
      "midi": 60,
      "hit": false,
      "t": 162049.08849999838,
      "d": 90.16388333332725,
      "v": 102
    },
    {
      "midi": 64,
      "hit": false,
      "t": 162049.08849999838,
      "d": 90.16388333332725,
      "v": 102
    },
    {
      "midi": 67,
      "hit": false,
      "t": 162049.08849999838,
      "d": 90.16388333332725,
      "v": 102
    },
    {
      "midi": 60,
      "hit": false,
      "t": 162294.98999999836,
      "d": 284.8359041666554,
      "v": 102
    },
    {
      "midi": 64,
      "hit": false,
      "t": 162294.98999999836,
      "d": 284.8359041666554,
      "v": 102
    },
    {
      "midi": 67,
      "hit": false,
      "t": 162294.98999999836,
      "d": 284.8359041666554,
      "v": 102
    },
    {
      "midi": 29,
      "hit": false,
      "t": 162294.98999999836,
      "d": 425.2046770833258,
      "v": 86
    },
    {
      "midi": 62,
      "hit": false,
      "t": 162684.33404166502,
      "d": 197.74578958333586,
      "v": 100
    },
    {
      "midi": 65,
      "hit": false,
      "t": 162684.33404166502,
      "d": 197.74578958333586,
      "v": 100
    },
    {
      "midi": 69,
      "hit": false,
      "t": 162684.33404166502,
      "d": 197.74578958333586,
      "v": 100
    },
    {
      "midi": 34,
      "hit": false,
      "t": 162786.79299999835,
      "d": 425.2046770833258,
      "v": 86
    },
    {
      "midi": 60,
      "hit": false,
      "t": 163032.69449999835,
      "d": 87.09011458331952,
      "v": 102
    },
    {
      "midi": 64,
      "hit": false,
      "t": 163032.69449999835,
      "d": 87.09011458331952,
      "v": 102
    },
    {
      "midi": 67,
      "hit": false,
      "t": 163032.69449999835,
      "d": 87.09011458331952,
      "v": 102
    },
    {
      "midi": 58,
      "hit": false,
      "t": 163278.59599999833,
      "d": 251.02444791665766,
      "v": 99
    },
    {
      "midi": 62,
      "hit": false,
      "t": 163278.59599999833,
      "d": 251.02444791665766,
      "v": 99
    },
    {
      "midi": 65,
      "hit": false,
      "t": 163278.59599999833,
      "d": 251.02444791665766,
      "v": 99
    },
    {
      "midi": 31,
      "hit": false,
      "t": 163278.59599999833,
      "d": 425.2046770833258,
      "v": 86
    },
    {
      "midi": 58,
      "hit": false,
      "t": 163667.940041665,
      "d": 133.19664583331905,
      "v": 99
    },
    {
      "midi": 62,
      "hit": false,
      "t": 163667.940041665,
      "d": 133.19664583331905,
      "v": 99
    },
    {
      "midi": 65,
      "hit": false,
      "t": 163667.940041665,
      "d": 133.19664583331905,
      "v": 99
    },
    {
      "midi": 31,
      "hit": false,
      "t": 163770.39899999832,
      "d": 425.2046770832967,
      "v": 86
    },
    {
      "midi": 58,
      "hit": false,
      "t": 164016.3004999983,
      "d": 90.16388333332725,
      "v": 102
    },
    {
      "midi": 62,
      "hit": false,
      "t": 164016.3004999983,
      "d": 90.16388333332725,
      "v": 102
    },
    {
      "midi": 65,
      "hit": false,
      "t": 164016.3004999983,
      "d": 90.16388333332725,
      "v": 102
    },
    {
      "midi": 60,
      "hit": false,
      "t": 164262.20199999827,
      "d": 266.3932916666672,
      "v": 102
    },
    {
      "midi": 64,
      "hit": false,
      "t": 164262.20199999827,
      "d": 266.3932916666672,
      "v": 102
    },
    {
      "midi": 67,
      "hit": false,
      "t": 164262.20199999827,
      "d": 266.3932916666672,
      "v": 102
    },
    {
      "midi": 33,
      "hit": false,
      "t": 164262.20199999827,
      "d": 425.2046770833258,
      "v": 87
    },
    {
      "midi": 60,
      "hit": false,
      "t": 164651.54604166493,
      "d": 184.42612499999814,
      "v": 100
    },
    {
      "midi": 64,
      "hit": false,
      "t": 164651.54604166493,
      "d": 184.42612499999814,
      "v": 100
    },
    {
      "midi": 67,
      "hit": false,
      "t": 164651.54604166493,
      "d": 184.42612499999814,
      "v": 100
    },
    {
      "midi": 33,
      "hit": false,
      "t": 164754.00499999826,
      "d": 425.2046770833258,
      "v": 88
    },
    {
      "midi": 60,
      "hit": false,
      "t": 164999.90649999827,
      "d": 79.91798749999725,
      "v": 102
    },
    {
      "midi": 64,
      "hit": false,
      "t": 164999.90649999827,
      "d": 79.91798749999725,
      "v": 102
    },
    {
      "midi": 67,
      "hit": false,
      "t": 164999.90649999827,
      "d": 79.91798749999725,
      "v": 102
    },
    {
      "midi": 65,
      "hit": false,
      "t": 165246.83258958158,
      "d": 388.31945208334946,
      "v": 87
    },
    {
      "midi": 55,
      "hit": false,
      "t": 165250.93094791492,
      "d": 387.29486250001355,
      "v": 87
    },
    {
      "midi": 57,
      "hit": false,
      "t": 165738.6355895816,
      "d": 408.81124375000945,
      "v": 87
    },
    {
      "midi": 65,
      "hit": false,
      "t": 165742.73394791494,
      "d": 407.78665416667354,
      "v": 87
    },
    {
      "midi": 65,
      "hit": false,
      "t": 166230.4385895816,
      "d": 376.02437708334764,
      "v": 89
    },
    {
      "midi": 58,
      "hit": false,
      "t": 166234.53694791495,
      "d": 373.9751979166758,
      "v": 89
    },
    {
      "midi": 60,
      "hit": false,
      "t": 166721.2169999983,
      "d": 300.2047479166649,
      "v": 90
    },
    {
      "midi": 64,
      "hit": false,
      "t": 166721.2169999983,
      "d": 300.2047479166649,
      "v": 90
    },
    {
      "midi": 62,
      "hit": false,
      "t": 167105.4380937483,
      "d": 284.8359041666845,
      "v": 87
    },
    {
      "midi": 65,
      "hit": false,
      "t": 167110.56104166497,
      "d": 284.8359041666845,
      "v": 87
    },
    {
      "midi": 64,
      "hit": false,
      "t": 167454.823141665,
      "d": 84.01634583337,
      "v": 85
    },
    {
      "midi": 72,
      "hit": false,
      "t": 167454.823141665,
      "d": 84.01634583337,
      "v": 85
    },
    {
      "midi": 67,
      "hit": false,
      "t": 167459.94608958167,
      "d": 84.01634583337,
      "v": 85
    },
    {
      "midi": 60,
      "hit": false,
      "t": 167464.04444791502,
      "d": 81.96716666669818,
      "v": 85
    },
    {
      "midi": 67,
      "hit": false,
      "t": 167699.70005208172,
      "d": 85.0409354166768,
      "v": 92
    },
    {
      "midi": 60,
      "hit": false,
      "t": 167700.72464166506,
      "d": 86.06552500001271,
      "v": 92
    },
    {
      "midi": 72,
      "hit": false,
      "t": 167700.72464166506,
      "d": 86.06552500001271,
      "v": 92
    },
    {
      "midi": 64,
      "hit": false,
      "t": 167705.84758958174,
      "d": 86.06552500001271,
      "v": 92
    },
    {
      "midi": 60,
      "hit": false,
      "t": 167945.60155208176,
      "d": 74.7950395833177,
      "v": 92
    },
    {
      "midi": 64,
      "hit": false,
      "t": 167955.8474479151,
      "d": 74.7950395833177,
      "v": 92
    },
    {
      "midi": 67,
      "hit": false,
      "t": 167955.8474479151,
      "d": 74.7950395833177,
      "v": 92
    },
    {
      "midi": 72,
      "hit": false,
      "t": 167955.8474479151,
      "d": 74.7950395833177,
      "v": 92
    },
    {
      "midi": 72,
      "hit": false,
      "t": 168191.50305208174,
      "d": 315.5735916667036,
      "v": 92
    },
    {
      "midi": 64,
      "hit": false,
      "t": 168196.62599999842,
      "d": 315.5735916667036,
      "v": 92
    },
    {
      "midi": 67,
      "hit": false,
      "t": 168196.62599999842,
      "d": 315.5735916667036,
      "v": 92
    },
    {
      "midi": 60,
      "hit": false,
      "t": 168201.7489479151,
      "d": 315.5735916667036,
      "v": 92
    },
    {
      "midi": 69,
      "hit": false,
      "t": 168580.84709374848,
      "d": 377.04896666665445,
      "v": 86
    },
    {
      "midi": 74,
      "hit": false,
      "t": 168586.99463124847,
      "d": 232.5818354166695,
      "v": 86
    },
    {
      "midi": 62,
      "hit": false,
      "t": 168591.0929895818,
      "d": 377.04896666665445,
      "v": 86
    },
    {
      "midi": 65,
      "hit": false,
      "t": 168591.0929895818,
      "d": 377.04896666665445,
      "v": 86
    },
    {
      "midi": 74,
      "hit": false,
      "t": 168827.7731833318,
      "d": 60.45078541667317,
      "v": 74
    },
    {
      "midi": 74,
      "hit": false,
      "t": 168935.3550895818,
      "d": 196.72119999999995,
      "v": 84
    },
    {
      "midi": 55,
      "hit": false,
      "t": 169176.13364166513,
      "d": 388.31945208334946,
      "v": 87
    },
    {
      "midi": 65,
      "hit": false,
      "t": 169181.2565895818,
      "d": 388.31945208334946,
      "v": 87
    },
    {
      "midi": 57,
      "hit": false,
      "t": 169666.91205208184,
      "d": 407.78665416667354,
      "v": 87
    },
    {
      "midi": 65,
      "hit": false,
      "t": 169677.15794791517,
      "d": 407.78665416667354,
      "v": 87
    },
    {
      "midi": 58,
      "hit": false,
      "t": 170159.7396416652,
      "d": 376.02437708334764,
      "v": 89
    },
    {
      "midi": 65,
      "hit": false,
      "t": 170164.86258958187,
      "d": 376.02437708334764,
      "v": 89
    },
    {
      "midi": 64,
      "hit": false,
      "t": 170650.5180520819,
      "d": 300.2047479166649,
      "v": 90
    },
    {
      "midi": 60,
      "hit": false,
      "t": 170651.54264166523,
      "d": 301.22933750000084,
      "v": 90
    },
    {
      "midi": 62,
      "hit": false,
      "t": 171039.86209374855,
      "d": 284.8359041666554,
      "v": 87
    },
    {
      "midi": 65,
      "hit": false,
      "t": 171050.10798958188,
      "d": 284.8359041666554,
      "v": 87
    },
    {
      "midi": 67,
      "hit": false,
      "t": 171393.34549999854,
      "d": 81.96716666666907,
      "v": 85
    },
    {
      "midi": 64,
      "hit": false,
      "t": 171394.37008958188,
      "d": 84.01634583334089,
      "v": 85
    },
    {
      "midi": 60,
      "hit": false,
      "t": 171398.46844791522,
      "d": 81.96716666666907,
      "v": 85
    },
    {
      "midi": 72,
      "hit": false,
      "t": 171398.46844791522,
      "d": 81.96716666666907,
      "v": 85
    },
    {
      "midi": 72,
      "hit": false,
      "t": 171635.14864166523,
      "d": 86.06552500001271,
      "v": 92
    },
    {
      "midi": 67,
      "hit": false,
      "t": 171639.24699999858,
      "d": 85.0409354166768,
      "v": 92
    },
    {
      "midi": 64,
      "hit": false,
      "t": 171640.2715895819,
      "d": 86.06552500001271,
      "v": 92
    },
    {
      "midi": 60,
      "hit": false,
      "t": 171644.36994791526,
      "d": 85.0409354166768,
      "v": 92
    },
    {
      "midi": 67,
      "hit": false,
      "t": 171885.1484999986,
      "d": 74.7950395833468,
      "v": 92
    },
    {
      "midi": 72,
      "hit": false,
      "t": 171885.1484999986,
      "d": 74.7950395833468,
      "v": 92
    },
    {
      "midi": 64,
      "hit": false,
      "t": 171886.17308958195,
      "d": 75.81962916668272,
      "v": 92
    },
    {
      "midi": 60,
      "hit": false,
      "t": 171890.2714479153,
      "d": 74.7950395833468,
      "v": 92
    },
    {
      "midi": 67,
      "hit": false,
      "t": 172125.92705208197,
      "d": 315.5735916666745,
      "v": 92
    },
    {
      "midi": 72,
      "hit": false,
      "t": 172126.9516416653,
      "d": 316.5981812500104,
      "v": 92
    },
    {
      "midi": 60,
      "hit": false,
      "t": 172131.04999999865,
      "d": 315.5735916666745,
      "v": 92
    },
    {
      "midi": 64,
      "hit": false,
      "t": 172131.04999999865,
      "d": 315.5735916666745,
      "v": 92
    },
    {
      "midi": 62,
      "hit": false,
      "t": 172515.27109374866,
      "d": 377.04896666665445,
      "v": 86
    },
    {
      "midi": 65,
      "hit": false,
      "t": 172515.27109374866,
      "d": 377.04896666665445,
      "v": 86
    },
    {
      "midi": 74,
      "hit": false,
      "t": 172516.295683332,
      "d": 244.8769104166713,
      "v": 86
    },
    {
      "midi": 69,
      "hit": false,
      "t": 172516.295683332,
      "d": 378.07355624999036,
      "v": 86
    },
    {
      "midi": 74,
      "hit": false,
      "t": 172771.418489582,
      "d": 46.106531249999534,
      "v": 74
    },
    {
      "midi": 74,
      "hit": false,
      "t": 172873.87744791532,
      "d": 194.67202083332813,
      "v": 84
    },
    {
      "midi": 65,
      "hit": false,
      "t": 173114.65599999865,
      "d": 387.29486250001355,
      "v": 87
    },
    {
      "midi": 55,
      "hit": false,
      "t": 173119.77894791533,
      "d": 387.29486250001355,
      "v": 87
    },
    {
      "midi": 57,
      "hit": false,
      "t": 173606.45899999866,
      "d": 407.78665416667354,
      "v": 87
    },
    {
      "midi": 65,
      "hit": false,
      "t": 173611.58194791534,
      "d": 407.78665416667354,
      "v": 87
    },
    {
      "midi": 58,
      "hit": false,
      "t": 174094.16364166536,
      "d": 376.02437708334764,
      "v": 89
    },
    {
      "midi": 65,
      "hit": false,
      "t": 174099.28658958204,
      "d": 376.02437708334764,
      "v": 89
    },
    {
      "midi": 64,
      "hit": false,
      "t": 174590.06499999872,
      "d": 300.20474791669403,
      "v": 90
    },
    {
      "midi": 60,
      "hit": false,
      "t": 174595.1879479154,
      "d": 300.20474791669403,
      "v": 90
    },
    {
      "midi": 65,
      "hit": false,
      "t": 174974.28609374876,
      "d": 284.8359041666554,
      "v": 87
    },
    {
      "midi": 62,
      "hit": false,
      "t": 174975.3106833321,
      "d": 285.8604937499913,
      "v": 87
    },
    {
      "midi": 64,
      "hit": false,
      "t": 175327.76949999874,
      "d": 81.96716666666907,
      "v": 85
    },
    {
      "midi": 67,
      "hit": false,
      "t": 175328.79408958208,
      "d": 84.01634583334089,
      "v": 85
    },
    {
      "midi": 72,
      "hit": false,
      "t": 175328.79408958208,
      "d": 84.01634583334089,
      "v": 85
    },
    {
      "midi": 60,
      "hit": false,
      "t": 175332.89244791542,
      "d": 81.96716666666907,
      "v": 85
    },
    {
      "midi": 60,
      "hit": false,
      "t": 175568.5480520821,
      "d": 85.0409354166768,
      "v": 92
    },
    {
      "midi": 72,
      "hit": false,
      "t": 175568.5480520821,
      "d": 85.0409354166768,
      "v": 92
    },
    {
      "midi": 64,
      "hit": false,
      "t": 175573.67099999878,
      "d": 85.0409354166768,
      "v": 92
    },
    {
      "midi": 67,
      "hit": false,
      "t": 175574.69558958212,
      "d": 86.06552500001271,
      "v": 92
    },
    {
      "midi": 60,
      "hit": false,
      "t": 175819.5724999988,
      "d": 74.7950395833468,
      "v": 92
    },
    {
      "midi": 64,
      "hit": false,
      "t": 175819.5724999988,
      "d": 74.7950395833468,
      "v": 92
    },
    {
      "midi": 72,
      "hit": false,
      "t": 175819.5724999988,
      "d": 74.7950395833468,
      "v": 92
    },
    {
      "midi": 67,
      "hit": false,
      "t": 175824.69544791547,
      "d": 74.7950395833468,
      "v": 92
    },
    {
      "midi": 60,
      "hit": false,
      "t": 176061.37564166548,
      "d": 316.5981812500104,
      "v": 92
    },
    {
      "midi": 64,
      "hit": false,
      "t": 176065.47399999882,
      "d": 315.5735916666745,
      "v": 92
    },
    {
      "midi": 67,
      "hit": false,
      "t": 176070.5969479155,
      "d": 315.5735916666745,
      "v": 92
    },
    {
      "midi": 72,
      "hit": false,
      "t": 176070.5969479155,
      "d": 315.5735916666745,
      "v": 92
    },
    {
      "midi": 65,
      "hit": false,
      "t": 176450.71968333217,
      "d": 378.07355624999036,
      "v": 86
    },
    {
      "midi": 69,
      "hit": false,
      "t": 176450.71968333217,
      "d": 378.07355624999036,
      "v": 86
    },
    {
      "midi": 74,
      "hit": false,
      "t": 176454.8180416655,
      "d": 233.6064250000054,
      "v": 86
    },
    {
      "midi": 62,
      "hit": false,
      "t": 176459.9409895822,
      "d": 377.04896666662535,
      "v": 86
    },
    {
      "midi": 74,
      "hit": false,
      "t": 176696.62118333217,
      "d": 58.40160625000135,
      "v": 74
    },
    {
      "midi": 74,
      "hit": false,
      "t": 176808.3014479155,
      "d": 194.67202083332813,
      "v": 84
    },
    {
      "midi": 46,
      "hit": false,
      "t": 177043.95705208214,
      "d": 387.29486250001355,
      "v": 87
    },
    {
      "midi": 58,
      "hit": false,
      "t": 177044.98164166548,
      "d": 388.31945208334946,
      "v": 87
    },
    {
      "midi": 65,
      "hit": false,
      "t": 177044.98164166548,
      "d": 388.31945208334946,
      "v": 87
    },
    {
      "midi": 65,
      "hit": false,
      "t": 177536.7846416655,
      "d": 408.81124375000945,
      "v": 87
    },
    {
      "midi": 55,
      "hit": false,
      "t": 177540.88299999884,
      "d": 407.78665416667354,
      "v": 87
    },
    {
      "midi": 43,
      "hit": false,
      "t": 177541.90758958217,
      "d": 408.81124375000945,
      "v": 87
    },
    {
      "midi": 41,
      "hit": false,
      "t": 178033.7105895822,
      "d": 376.02437708334764,
      "v": 89
    },
    {
      "midi": 65,
      "hit": false,
      "t": 178033.7105895822,
      "d": 376.02437708334764,
      "v": 89
    },
    {
      "midi": 53,
      "hit": false,
      "t": 178037.80894791553,
      "d": 373.9751979166758,
      "v": 89
    },
    {
      "midi": 55,
      "hit": false,
      "t": 178524.48899999887,
      "d": 373.9751979166758,
      "v": 90
    },
    {
      "midi": 43,
      "hit": false,
      "t": 178525.5135895822,
      "d": 376.02437708334764,
      "v": 90
    },
    {
      "midi": 65,
      "hit": false,
      "t": 178525.5135895822,
      "d": 376.02437708334764,
      "v": 90
    },
    {
      "midi": 46,
      "hit": false,
      "t": 179011.16905208223,
      "d": 284.8359041666845,
      "v": 87
    },
    {
      "midi": 65,
      "hit": false,
      "t": 179012.19364166557,
      "d": 285.8604937500204,
      "v": 87
    },
    {
      "midi": 58,
      "hit": false,
      "t": 179017.31658958225,
      "d": 285.8604937500204,
      "v": 87
    },
    {
      "midi": 58,
      "hit": false,
      "t": 179508.09499999892,
      "d": 387.29486250001355,
      "v": 87
    },
    {
      "midi": 46,
      "hit": false,
      "t": 179509.11958958226,
      "d": 388.31945208334946,
      "v": 87
    },
    {
      "midi": 65,
      "hit": false,
      "t": 179513.2179479156,
      "d": 387.29486250001355,
      "v": 87
    },
    {
      "midi": 60,
      "hit": false,
      "t": 179995.79964166562,
      "d": 142.41795208334224,
      "v": 87
    },
    {
      "midi": 48,
      "hit": false,
      "t": 180000.9225895823,
      "d": 142.41795208334224,
      "v": 87
    },
    {
      "midi": 64,
      "hit": false,
      "t": 180000.9225895823,
      "d": 142.41795208334224,
      "v": 87
    },
    {
      "midi": 60,
      "hit": false,
      "t": 180240.67655208232,
      "d": 387.29486250001355,
      "v": 87
    },
    {
      "midi": 48,
      "hit": false,
      "t": 180245.799499999,
      "d": 387.29486250001355,
      "v": 87
    },
    {
      "midi": 64,
      "hit": false,
      "t": 180246.82408958234,
      "d": 388.31945208334946,
      "v": 87
    },
    {
      "midi": 60,
      "hit": false,
      "t": 180732.47955208237,
      "d": 387.29486250001355,
      "v": 87
    },
    {
      "midi": 50,
      "hit": false,
      "t": 180737.60249999905,
      "d": 387.29486250001355,
      "v": 87
    },
    {
      "midi": 64,
      "hit": false,
      "t": 180738.62708958238,
      "d": 388.31945208334946,
      "v": 87
    },
    {
      "midi": 60,
      "hit": false,
      "t": 181225.30714166575,
      "d": 142.41795208334224,
      "v": 87
    },
    {
      "midi": 50,
      "hit": false,
      "t": 181230.43008958243,
      "d": 142.41795208334224,
      "v": 87
    },
    {
      "midi": 64,
      "hit": false,
      "t": 181230.43008958243,
      "d": 142.41795208334224,
      "v": 87
    },
    {
      "midi": 64,
      "hit": false,
      "t": 181470.18405208245,
      "d": 387.29486249998445,
      "v": 78
    },
    {
      "midi": 50,
      "hit": false,
      "t": 181480.42994791578,
      "d": 387.29486249998445,
      "v": 78
    },
    {
      "midi": 60,
      "hit": false,
      "t": 181480.42994791578,
      "d": 387.29486249998445,
      "v": 78
    },
    {
      "midi": 60,
      "hit": false,
      "t": 181963.01164166577,
      "d": 142.41795208334224,
      "v": 87
    },
    {
      "midi": 50,
      "hit": false,
      "t": 181968.13458958245,
      "d": 142.41795208334224,
      "v": 87
    },
    {
      "midi": 64,
      "hit": false,
      "t": 181968.13458958245,
      "d": 142.41795208334224,
      "v": 87
    },
    {
      "midi": 60,
      "hit": false,
      "t": 182207.88855208247,
      "d": 387.29486250001355,
      "v": 87
    },
    {
      "midi": 50,
      "hit": false,
      "t": 182213.01149999915,
      "d": 387.29486250001355,
      "v": 87
    },
    {
      "midi": 64,
      "hit": false,
      "t": 182214.03608958249,
      "d": 388.31945208334946,
      "v": 87
    },
    {
      "midi": 62,
      "hit": false,
      "t": 182699.6915520825,
      "d": 387.29486250001355,
      "v": 87
    },
    {
      "midi": 50,
      "hit": false,
      "t": 182704.8144999992,
      "d": 387.29486250001355,
      "v": 87
    },
    {
      "midi": 66,
      "hit": false,
      "t": 182705.83908958253,
      "d": 388.31945208334946,
      "v": 87
    },
    {
      "midi": 62,
      "hit": false,
      "t": 183192.5191416659,
      "d": 142.41795208334224,
      "v": 87
    },
    {
      "midi": 50,
      "hit": false,
      "t": 183197.64208958257,
      "d": 142.41795208334224,
      "v": 87
    },
    {
      "midi": 66,
      "hit": false,
      "t": 183197.64208958257,
      "d": 142.41795208334224,
      "v": 87
    },
    {
      "midi": 62,
      "hit": false,
      "t": 183438.42064166593,
      "d": 142.41795208334224,
      "v": 98
    },
    {
      "midi": 50,
      "hit": false,
      "t": 183443.5435895826,
      "d": 142.41795208334224,
      "v": 98
    },
    {
      "midi": 66,
      "hit": false,
      "t": 183443.5435895826,
      "d": 142.41795208334224,
      "v": 98
    },
    {
      "midi": 62,
      "hit": false,
      "t": 183683.29755208263,
      "d": 141.39336250000633,
      "v": 87
    },
    {
      "midi": 50,
      "hit": false,
      "t": 183688.4204999993,
      "d": 141.39336250000633,
      "v": 87
    },
    {
      "midi": 66,
      "hit": false,
      "t": 183689.44508958264,
      "d": 142.41795208334224,
      "v": 87
    },
    {
      "midi": 62,
      "hit": false,
      "t": 183930.223641666,
      "d": 142.41795208334224,
      "v": 98
    },
    {
      "midi": 50,
      "hit": false,
      "t": 183935.34658958268,
      "d": 142.41795208334224,
      "v": 98
    },
    {
      "midi": 66,
      "hit": false,
      "t": 183935.34658958268,
      "d": 142.41795208334224,
      "v": 98
    },
    {
      "midi": 62,
      "hit": false,
      "t": 184175.1005520827,
      "d": 141.39336250000633,
      "v": 87
    },
    {
      "midi": 50,
      "hit": false,
      "t": 184180.22349999938,
      "d": 141.39336250000633,
      "v": 87
    },
    {
      "midi": 66,
      "hit": false,
      "t": 184181.24808958272,
      "d": 142.41795208334224,
      "v": 87
    },
    {
      "midi": 62,
      "hit": false,
      "t": 184422.02664166607,
      "d": 142.41795208334224,
      "v": 98
    },
    {
      "midi": 50,
      "hit": false,
      "t": 184427.14958958275,
      "d": 142.41795208334224,
      "v": 98
    },
    {
      "midi": 66,
      "hit": false,
      "t": 184427.14958958275,
      "d": 142.41795208334224,
      "v": 98
    },
    {
      "midi": 62,
      "hit": false,
      "t": 184666.90355208277,
      "d": 141.39336250000633,
      "v": 87
    },
    {
      "midi": 50,
      "hit": false,
      "t": 184672.02649999945,
      "d": 141.39336250000633,
      "v": 87
    },
    {
      "midi": 66,
      "hit": false,
      "t": 184673.0510895828,
      "d": 142.41795208334224,
      "v": 87
    },
    {
      "midi": 58,
      "hit": false,
      "t": 184917.92799999946,
      "d": 245.90150000000722,
      "v": 99
    },
    {
      "midi": 65,
      "hit": false,
      "t": 184917.92799999946,
      "d": 248.97526875001495,
      "v": 99
    },
    {
      "midi": 62,
      "hit": false,
      "t": 184917.92799999946,
      "d": 251.02444791668677,
      "v": 99
    },
    {
      "midi": 31,
      "hit": false,
      "t": 184917.92799999946,
      "d": 407.78665416670265,
      "v": 90
    },
    {
      "midi": 58,
      "hit": false,
      "t": 185303.1736833328,
      "d": 178.27858750004089,
      "v": 94
    },
    {
      "midi": 65,
      "hit": false,
      "t": 185308.29663124948,
      "d": 178.27858750004089,
      "v": 94
    },
    {
      "midi": 62,
      "hit": false,
      "t": 185312.39498958283,
      "d": 177.25399791670498,
      "v": 94
    },
    {
      "midi": 62,
      "hit": false,
      "t": 185421.00148541678,
      "d": 483.60628333332716,
      "v": 1
    },
    {
      "midi": 72,
      "hit": false,
      "t": 185421.00148541678,
      "d": 483.60628333332716,
      "v": 1
    },
    {
      "midi": 65,
      "hit": false,
      "t": 185650.50955208286,
      "d": 90.16388333332725,
      "v": 102
    },
    {
      "midi": 60,
      "hit": false,
      "t": 185897.43564166618,
      "d": 285.8604937500204,
      "v": 102
    },
    {
      "midi": 67,
      "hit": false,
      "t": 185897.43564166618,
      "d": 285.8604937500204,
      "v": 102
    },
    {
      "midi": 64,
      "hit": false,
      "t": 185901.53399999952,
      "d": 284.8359041666845,
      "v": 102
    },
    {
      "midi": 33,
      "hit": false,
      "t": 185902.55858958286,
      "d": 396.51616875003674,
      "v": 91
    },
    {
      "midi": 64,
      "hit": false,
      "t": 185906.65694791678,
      "d": 1232.5812687500147,
      "v": 1
    },
    {
      "midi": 72,
      "hit": false,
      "t": 185906.65694791678,
      "d": 1232.5812687500147,
      "v": 1
    },
    {
      "midi": 67,
      "hit": false,
      "t": 186285.75509374953,
      "d": 197.74578958336497,
      "v": 100
    },
    {
      "midi": 60,
      "hit": false,
      "t": 186290.8780416662,
      "d": 197.74578958336497,
      "v": 100
    },
    {
      "midi": 64,
      "hit": false,
      "t": 186296.00098958288,
      "d": 197.74578958336497,
      "v": 100
    },
    {
      "midi": 33,
      "hit": false,
      "t": 186394.3615895829,
      "d": 232.5818354166695,
      "v": 81
    },
    {
      "midi": 60,
      "hit": false,
      "t": 186635.14014166623,
      "d": 253.0736270833586,
      "v": 99
    },
    {
      "midi": 64,
      "hit": false,
      "t": 186635.14014166623,
      "d": 253.0736270833586,
      "v": 99
    },
    {
      "midi": 36,
      "hit": false,
      "t": 186635.14014166623,
      "d": 422.1309083333763,
      "v": 91
    },
    {
      "midi": 67,
      "hit": false,
      "t": 186640.2630895829,
      "d": 253.0736270833586,
      "v": 99
    },
    {
      "midi": 36,
      "hit": false,
      "t": 187125.91855208293,
      "d": 235.65560416664812,
      "v": 90
    },
    {
      "midi": 62,
      "hit": false,
      "t": 187136.16444791626,
      "d": 133.19664583331905,
      "v": 99
    },
    {
      "midi": 65,
      "hit": false,
      "t": 187136.16444791626,
      "d": 133.19664583331905,
      "v": 99
    },
    {
      "midi": 69,
      "hit": false,
      "t": 187136.16444791626,
      "d": 133.19664583331905,
      "v": 99
    },
    {
      "midi": 62,
      "hit": false,
      "t": 187141.28739583347,
      "d": 2213.1135000000068,
      "v": 1
    },
    {
      "midi": 69,
      "hit": false,
      "t": 187141.28739583347,
      "d": 2213.1135000000068,
      "v": 1
    },
    {
      "midi": 69,
      "hit": false,
      "t": 187372.84464166625,
      "d": 460.04072291668854,
      "v": 102
    },
    {
      "midi": 62,
      "hit": false,
      "t": 187376.9429999996,
      "d": 459.0161333333526,
      "v": 102
    },
    {
      "midi": 65,
      "hit": false,
      "t": 187376.9429999996,
      "d": 459.0161333333526,
      "v": 102
    },
    {
      "midi": 38,
      "hit": false,
      "t": 187377.96758958293,
      "d": 203.89332708332222,
      "v": 90
    },
    {
      "midi": 36,
      "hit": false,
      "t": 187617.72155208292,
      "d": 105.5327270833368,
      "v": 91
    },
    {
      "midi": 34,
      "hit": false,
      "t": 187863.62305208296,
      "d": 464.1390812500322,
      "v": 90
    },
    {
      "midi": 62,
      "hit": false,
      "t": 187868.74599999964,
      "d": 459.0161333333526,
      "v": 102
    },
    {
      "midi": 65,
      "hit": false,
      "t": 187873.86894791631,
      "d": 459.0161333333526,
      "v": 102
    },
    {
      "midi": 69,
      "hit": false,
      "t": 187873.86894791631,
      "d": 459.0161333333526,
      "v": 102
    },
    {
      "midi": 62,
      "hit": false,
      "t": 188356.45064166634,
      "d": 460.04072291668854,
      "v": 92
    },
    {
      "midi": 65,
      "hit": false,
      "t": 188356.45064166634,
      "d": 460.04072291668854,
      "v": 92
    },
    {
      "midi": 69,
      "hit": false,
      "t": 188360.54899999968,
      "d": 459.0161333333526,
      "v": 92
    },
    {
      "midi": 33,
      "hit": false,
      "t": 188361.57358958301,
      "d": 465.163670833339,
      "v": 92
    },
    {
      "midi": 31,
      "hit": false,
      "t": 188847.229052083,
      "d": 409.83583333340357,
      "v": 90
    },
    {
      "midi": 62,
      "hit": false,
      "t": 188852.3519999997,
      "d": 251.02444791668677,
      "v": 99
    },
    {
      "midi": 65,
      "hit": false,
      "t": 188853.37658958303,
      "d": 253.0736270833586,
      "v": 99
    },
    {
      "midi": 58,
      "hit": false,
      "t": 188857.47494791637,
      "d": 251.02444791668677,
      "v": 99
    },
    {
      "midi": 58,
      "hit": false,
      "t": 189236.57309374973,
      "d": 177.25399791667587,
      "v": 94
    },
    {
      "midi": 65,
      "hit": false,
      "t": 189241.6960416664,
      "d": 177.25399791667587,
      "v": 94
    },
    {
      "midi": 62,
      "hit": false,
      "t": 189242.72063124974,
      "d": 178.27858750001178,
      "v": 94
    },
    {
      "midi": 62,
      "hit": false,
      "t": 189355.4254854168,
      "d": 485.655462499999,
      "v": 1
    },
    {
      "midi": 72,
      "hit": false,
      "t": 189355.4254854168,
      "d": 485.655462499999,
      "v": 1
    },
    {
      "midi": 65,
      "hit": false,
      "t": 189591.08108958308,
      "d": 91.18847291666316,
      "v": 102
    },
    {
      "midi": 67,
      "hit": false,
      "t": 189831.8596416664,
      "d": 285.8604937500204,
      "v": 102
    },
    {
      "midi": 60,
      "hit": false,
      "t": 189836.9825895831,
      "d": 285.8604937500204,
      "v": 102
    },
    {
      "midi": 64,
      "hit": false,
      "t": 189836.9825895831,
      "d": 285.8604937500204,
      "v": 102
    },
    {
      "midi": 33,
      "hit": false,
      "t": 189841.08094791643,
      "d": 394.4669895833649,
      "v": 91
    },
    {
      "midi": 64,
      "hit": false,
      "t": 189842.10553750015,
      "d": 1228.482910416671,
      "v": 1
    },
    {
      "midi": 72,
      "hit": false,
      "t": 189842.10553750015,
      "d": 1228.482910416671,
      "v": 1
    },
    {
      "midi": 67,
      "hit": false,
      "t": 190220.1790937498,
      "d": 197.74578958333586,
      "v": 100
    },
    {
      "midi": 60,
      "hit": false,
      "t": 190221.20368333312,
      "d": 198.77037916667177,
      "v": 100
    },
    {
      "midi": 64,
      "hit": false,
      "t": 190225.30204166647,
      "d": 197.74578958333586,
      "v": 100
    },
    {
      "midi": 33,
      "hit": false,
      "t": 190328.78558958313,
      "d": 237.70478333334904,
      "v": 81
    },
    {
      "midi": 64,
      "hit": false,
      "t": 190569.5641416665,
      "d": 253.0736270833586,
      "v": 99
    },
    {
      "midi": 67,
      "hit": false,
      "t": 190569.5641416665,
      "d": 253.0736270833586,
      "v": 99
    },
    {
      "midi": 60,
      "hit": false,
      "t": 190574.68708958317,
      "d": 253.0736270833586,
      "v": 99
    },
    {
      "midi": 36,
      "hit": false,
      "t": 190578.7854479165,
      "d": 420.08172916667536,
      "v": 91
    },
    {
      "midi": 65,
      "hit": false,
      "t": 191061.36714166653,
      "d": 135.24582500001998,
      "v": 99
    },
    {
      "midi": 69,
      "hit": false,
      "t": 191061.36714166653,
      "d": 135.24582500001998,
      "v": 99
    },
    {
      "midi": 62,
      "hit": false,
      "t": 191065.46549999987,
      "d": 133.19664583334816,
      "v": 99
    },
    {
      "midi": 36,
      "hit": false,
      "t": 191066.4900895832,
      "d": 237.70478333334904,
      "v": 90
    },
    {
      "midi": 65,
      "hit": false,
      "t": 191071.61303750015,
      "d": 249.99985833332175,
      "v": 1
    },
    {
      "midi": 72,
      "hit": false,
      "t": 191071.61303750015,
      "d": 249.99985833332175,
      "v": 1
    },
    {
      "midi": 65,
      "hit": false,
      "t": 191307.26864166657,
      "d": 460.04072291671764,
      "v": 102
    },
    {
      "midi": 69,
      "hit": false,
      "t": 191307.26864166657,
      "d": 460.04072291671764,
      "v": 102
    },
    {
      "midi": 62,
      "hit": false,
      "t": 191311.3669999999,
      "d": 459.01613333338173,
      "v": 102
    },
    {
      "midi": 38,
      "hit": false,
      "t": 191316.4899479166,
      "d": 79.91798749999725,
      "v": 90
    },
    {
      "midi": 62,
      "hit": false,
      "t": 191322.6374854168,
      "d": 485.655462499999,
      "v": 1
    },
    {
      "midi": 74,
      "hit": false,
      "t": 191322.6374854168,
      "d": 485.655462499999,
      "v": 1
    },
    {
      "midi": 36,
      "hit": false,
      "t": 191552.14555208327,
      "d": 105.5327270833368,
      "v": 91
    },
    {
      "midi": 69,
      "hit": false,
      "t": 191798.0470520833,
      "d": 459.0161333333526,
      "v": 102
    },
    {
      "midi": 65,
      "hit": false,
      "t": 191803.16999999998,
      "d": 459.0161333333526,
      "v": 102
    },
    {
      "midi": 62,
      "hit": false,
      "t": 191808.29294791666,
      "d": 459.0161333333526,
      "v": 102
    },
    {
      "midi": 34,
      "hit": false,
      "t": 191808.29294791666,
      "d": 464.1390812500322,
      "v": 90
    },
    {
      "midi": 62,
      "hit": false,
      "t": 191809.31753750014,
      "d": 495.901358333329,
      "v": 1
    },
    {
      "midi": 67,
      "hit": false,
      "t": 191809.31753750014,
      "d": 495.901358333329,
      "v": 1
    },
    {
      "midi": 65,
      "hit": false,
      "t": 192289.85005208335,
      "d": 459.0161333333235,
      "v": 92
    },
    {
      "midi": 62,
      "hit": false,
      "t": 192290.87464166668,
      "d": 460.04072291665943,
      "v": 92
    },
    {
      "midi": 69,
      "hit": false,
      "t": 192300.09594791668,
      "d": 459.0161333333235,
      "v": 92
    },
    {
      "midi": 33,
      "hit": false,
      "t": 192300.09594791668,
      "d": 464.1390812500031,
      "v": 92
    },
    {
      "midi": 65,
      "hit": false,
      "t": 192306.2434854168,
      "d": 982.5814104166639,
      "v": 1
    },
    {
      "midi": 69,
      "hit": false,
      "t": 192306.2434854168,
      "d": 982.5814104166639,
      "v": 1
    },
    {
      "midi": 31,
      "hit": false,
      "t": 192781.65305208333,
      "d": 409.83583333334536,
      "v": 90
    },
    {
      "midi": 58,
      "hit": false,
      "t": 192786.776,
      "d": 251.02444791665766,
      "v": 99
    },
    {
      "midi": 62,
      "hit": false,
      "t": 192786.776,
      "d": 251.02444791665766,
      "v": 99
    },
    {
      "midi": 65,
      "hit": false,
      "t": 192787.80058958335,
      "d": 253.07362708332948,
      "v": 99
    },
    {
      "midi": 62,
      "hit": false,
      "t": 193172.02168333335,
      "d": 178.27858749998268,
      "v": 94
    },
    {
      "midi": 58,
      "hit": false,
      "t": 193181.24298958335,
      "d": 177.25399791664677,
      "v": 94
    },
    {
      "midi": 65,
      "hit": false,
      "t": 193181.24298958335,
      "d": 177.25399791664677,
      "v": 94
    },
    {
      "midi": 33,
      "hit": false,
      "t": 193274.48064166668,
      "d": 434.4259833332908,
      "v": 88
    },
    {
      "midi": 62,
      "hit": false,
      "t": 193289.8494854168,
      "d": 483.60628333332716,
      "v": 1
    },
    {
      "midi": 72,
      "hit": false,
      "t": 193289.8494854168,
      "d": 483.60628333332716,
      "v": 1
    },
    {
      "midi": 65,
      "hit": false,
      "t": 193529.60344791666,
      "d": 90.16388333332725,
      "v": 102
    },
    {
      "midi": 33,
      "hit": false,
      "t": 193766.28364166664,
      "d": 396.51616875006584,
      "v": 91
    },
    {
      "midi": 64,
      "hit": false,
      "t": 193771.40658958332,
      "d": 285.8604937500204,
      "v": 102
    },
    {
      "midi": 67,
      "hit": false,
      "t": 193771.40658958332,
      "d": 285.8604937500204,
      "v": 102
    },
    {
      "midi": 60,
      "hit": false,
      "t": 193775.50494791666,
      "d": 284.8359041666845,
      "v": 102
    },
    {
      "midi": 64,
      "hit": false,
      "t": 193775.5049479168,
      "d": 1232.5812687499856,
      "v": 1
    },
    {
      "midi": 72,
      "hit": false,
      "t": 193775.5049479168,
      "d": 1232.5812687499856,
      "v": 1
    },
    {
      "midi": 67,
      "hit": false,
      "t": 194155.62768333335,
      "d": 198.77037916667177,
      "v": 100
    },
    {
      "midi": 60,
      "hit": false,
      "t": 194160.75063125003,
      "d": 198.77037916667177,
      "v": 100
    },
    {
      "midi": 64,
      "hit": false,
      "t": 194160.75063125003,
      "d": 198.77037916667177,
      "v": 100
    },
    {
      "midi": 33,
      "hit": false,
      "t": 194267.3079479167,
      "d": 225.40970833331812,
      "v": 81
    },
    {
      "midi": 36,
      "hit": false,
      "t": 194502.96355208335,
      "d": 420.08172916670446,
      "v": 91
    },
    {
      "midi": 64,
      "hit": false,
      "t": 194503.9881416667,
      "d": 253.0736270833586,
      "v": 99
    },
    {
      "midi": 60,
      "hit": false,
      "t": 194509.11108958337,
      "d": 253.0736270833586,
      "v": 99
    },
    {
      "midi": 67,
      "hit": false,
      "t": 194509.11108958337,
      "d": 253.0736270833586,
      "v": 99
    },
    {
      "midi": 69,
      "hit": false,
      "t": 194994.7665520834,
      "d": 133.19664583334816,
      "v": 99
    },
    {
      "midi": 65,
      "hit": false,
      "t": 194995.79114166673,
      "d": 135.24582500001998,
      "v": 99
    },
    {
      "midi": 36,
      "hit": false,
      "t": 194995.79114166673,
      "d": 237.70478333337815,
      "v": 90
    },
    {
      "midi": 62,
      "hit": false,
      "t": 195000.9140895834,
      "d": 135.24582500001998,
      "v": 99
    },
    {
      "midi": 62,
      "hit": false,
      "t": 195010.13539583347,
      "d": 1721.3104999999923,
      "v": 1
    },
    {
      "midi": 69,
      "hit": false,
      "t": 195010.13539583347,
      "d": 1721.3104999999923,
      "v": 1
    },
    {
      "midi": 38,
      "hit": false,
      "t": 195250.91394791676,
      "d": 79.91798749999725,
      "v": 90
    },
    {
      "midi": 62,
      "hit": false,
      "t": 195250.91394791676,
      "d": 459.0161333333235,
      "v": 102
    },
    {
      "midi": 65,
      "hit": false,
      "t": 195250.91394791676,
      "d": 459.0161333333235,
      "v": 102
    },
    {
      "midi": 69,
      "hit": false,
      "t": 195250.91394791676,
      "d": 459.0161333333235,
      "v": 102
    },
    {
      "midi": 36,
      "hit": false,
      "t": 195487.59414166675,
      "d": 106.5573166666727,
      "v": 91
    },
    {
      "midi": 65,
      "hit": false,
      "t": 195733.49564166676,
      "d": 460.04072291668854,
      "v": 102
    },
    {
      "midi": 69,
      "hit": false,
      "t": 195737.5940000001,
      "d": 459.0161333333526,
      "v": 102
    },
    {
      "midi": 34,
      "hit": false,
      "t": 195738.61858958344,
      "d": 465.1636708333681,
      "v": 90
    },
    {
      "midi": 62,
      "hit": false,
      "t": 195742.71694791678,
      "d": 459.0161333333526,
      "v": 102
    },
    {
      "midi": 69,
      "hit": false,
      "t": 196225.2986416668,
      "d": 460.04072291668854,
      "v": 92
    },
    {
      "midi": 33,
      "hit": false,
      "t": 196229.39700000014,
      "d": 464.1390812500322,
      "v": 92
    },
    {
      "midi": 62,
      "hit": false,
      "t": 196230.42158958348,
      "d": 460.04072291668854,
      "v": 92
    },
    {
      "midi": 65,
      "hit": false,
      "t": 196230.42158958348,
      "d": 460.04072291668854,
      "v": 92
    },
    {
      "midi": 62,
      "hit": false,
      "t": 196716.0770520835,
      "d": 251.02444791668677,
      "v": 99
    },
    {
      "midi": 59,
      "hit": false,
      "t": 196717.10164166684,
      "d": 253.0736270833586,
      "v": 99
    },
    {
      "midi": 65,
      "hit": false,
      "t": 196722.22458958352,
      "d": 253.0736270833586,
      "v": 99
    },
    {
      "midi": 31,
      "hit": false,
      "t": 196726.32294791687,
      "d": 230.53265624999767,
      "v": 92
    },
    {
      "midi": 67,
      "hit": false,
      "t": 196732.4704854168,
      "d": 2194.6708874999895,
      "v": 1
    },
    {
      "midi": 71,
      "hit": false,
      "t": 196732.4704854168,
      "d": 2194.6708874999895,
      "v": 1
    },
    {
      "midi": 35,
      "hit": false,
      "t": 196967.1015000002,
      "d": 87.09011458334862,
      "v": 90
    },
    {
      "midi": 62,
      "hit": false,
      "t": 197105.42109375022,
      "d": 177.25399791667587,
      "v": 94
    },
    {
      "midi": 38,
      "hit": false,
      "t": 197106.44568333356,
      "d": 94.26224166667089,
      "v": 87
    },
    {
      "midi": 59,
      "hit": false,
      "t": 197110.5440416669,
      "d": 177.25399791667587,
      "v": 94
    },
    {
      "midi": 65,
      "hit": false,
      "t": 197110.5440416669,
      "d": 177.25399791667587,
      "v": 94
    },
    {
      "midi": 41,
      "hit": false,
      "t": 197213.00300000023,
      "d": 230.53265625002678,
      "v": 90
    },
    {
      "midi": 65,
      "hit": false,
      "t": 197453.7815520836,
      "d": 90.16388333332725,
      "v": 102
    },
    {
      "midi": 38,
      "hit": false,
      "t": 197453.7815520836,
      "d": 105.5327270833368,
      "v": 86
    },
    {
      "midi": 35,
      "hit": false,
      "t": 197598.2486833336,
      "d": 94.26224166667089,
      "v": 89
    },
    {
      "midi": 65,
      "hit": false,
      "t": 197699.6830520836,
      "d": 284.8359041666845,
      "v": 102
    },
    {
      "midi": 59,
      "hit": false,
      "t": 197704.80600000027,
      "d": 284.8359041666845,
      "v": 102
    },
    {
      "midi": 31,
      "hit": false,
      "t": 197705.8305895836,
      "d": 237.70478333331994,
      "v": 90
    },
    {
      "midi": 62,
      "hit": false,
      "t": 197705.8305895836,
      "d": 285.8604937500204,
      "v": 102
    },
    {
      "midi": 35,
      "hit": false,
      "t": 197955.83044791693,
      "d": 100.40977916668635,
      "v": 88
    },
    {
      "midi": 62,
      "hit": false,
      "t": 198094.15004166696,
      "d": 197.74578958333586,
      "v": 100
    },
    {
      "midi": 59,
      "hit": false,
      "t": 198095.1746312503,
      "d": 198.77037916667177,
      "v": 100
    },
    {
      "midi": 38,
      "hit": false,
      "t": 198099.27298958364,
      "d": 92.21306249999907,
      "v": 87
    },
    {
      "midi": 65,
      "hit": false,
      "t": 198099.27298958364,
      "d": 197.74578958333586,
      "v": 100
    },
    {
      "midi": 41,
      "hit": false,
      "t": 198201.73194791697,
      "d": 187.49989375000587,
      "v": 91
    },
    {
      "midi": 38,
      "hit": false,
      "t": 198437.38755208364,
      "d": 105.5327270833368,
      "v": 86
    },
    {
      "midi": 59,
      "hit": false,
      "t": 198438.41214166698,
      "d": 253.0736270833586,
      "v": 99
    },
    {
      "midi": 62,
      "hit": false,
      "t": 198447.63344791697,
      "d": 251.02444791671587,
      "v": 99
    },
    {
      "midi": 65,
      "hit": false,
      "t": 198447.63344791697,
      "d": 251.02444791671587,
      "v": 99
    },
    {
      "midi": 35,
      "hit": false,
      "t": 198581.85468333366,
      "d": 94.26224166667089,
      "v": 89
    },
    {
      "midi": 31,
      "hit": false,
      "t": 198693.534947917,
      "d": 172.13105000002543,
      "v": 92
    },
    {
      "midi": 60,
      "hit": false,
      "t": 198929.19055208346,
      "d": 640.368489583343,
      "v": 1
    },
    {
      "midi": 69,
      "hit": false,
      "t": 198929.19055208372,
      "d": 379.0981458333554,
      "v": 99
    },
    {
      "midi": 31,
      "hit": false,
      "t": 198930.21514166705,
      "d": 173.15563958336134,
      "v": 90
    },
    {
      "midi": 62,
      "hit": false,
      "t": 198934.3135000004,
      "d": 377.04896666668355,
      "v": 99
    },
    {
      "midi": 65,
      "hit": false,
      "t": 198939.43644791708,
      "d": 379.09814583332627,
      "v": 99
    },
    {
      "midi": 31,
      "hit": false,
      "t": 199175.09205208375,
      "d": 172.13104999999632,
      "v": 92
    },
    {
      "midi": 62,
      "hit": false,
      "t": 199318.5345937504,
      "d": 213.1146333333454,
      "v": 102
    },
    {
      "midi": 69,
      "hit": false,
      "t": 199319.55918333374,
      "d": 214.13922291668132,
      "v": 102
    },
    {
      "midi": 65,
      "hit": false,
      "t": 199324.68213125042,
      "d": 214.13922291668132,
      "v": 102
    },
    {
      "midi": 31,
      "hit": false,
      "t": 199420.99355208376,
      "d": 172.13104999999632,
      "v": 90
    },
    {
      "midi": 62,
      "hit": false,
      "t": 199570.58363125013,
      "d": 1587.0892645833374,
      "v": 1
    },
    {
      "midi": 69,
      "hit": false,
      "t": 199666.89505208377,
      "d": 459.0161333333235,
      "v": 102
    },
    {
      "midi": 31,
      "hit": false,
      "t": 199667.9196416671,
      "d": 173.15563958333223,
      "v": 92
    },
    {
      "midi": 62,
      "hit": false,
      "t": 199667.9196416671,
      "d": 460.04072291665943,
      "v": 102
    },
    {
      "midi": 65,
      "hit": false,
      "t": 199673.04258958378,
      "d": 460.04072291665943,
      "v": 102
    },
    {
      "midi": 65,
      "hit": false,
      "t": 200163.82100000043,
      "d": 459.0161333333526,
      "v": 92
    },
    {
      "midi": 69,
      "hit": false,
      "t": 200163.82100000043,
      "d": 459.0161333333526,
      "v": 92
    },
    {
      "midi": 31,
      "hit": false,
      "t": 200164.84558958377,
      "d": 419.05713958333945,
      "v": 90
    },
    {
      "midi": 62,
      "hit": false,
      "t": 200168.9439479171,
      "d": 459.0161333333526,
      "v": 92
    },
    {
      "midi": 58,
      "hit": false,
      "t": 200655.62400000048,
      "d": 245.90150000000722,
      "v": 99
    },
    {
      "midi": 65,
      "hit": false,
      "t": 200655.62400000048,
      "d": 248.97526875001495,
      "v": 99
    },
    {
      "midi": 62,
      "hit": false,
      "t": 200655.62400000048,
      "d": 251.02444791668677,
      "v": 99
    },
    {
      "midi": 31,
      "hit": false,
      "t": 200655.62400000048,
      "d": 407.78665416670265,
      "v": 90
    },
    {
      "midi": 58,
      "hit": false,
      "t": 201040.86968333382,
      "d": 178.27858750004089,
      "v": 94
    },
    {
      "midi": 65,
      "hit": false,
      "t": 201045.9926312505,
      "d": 178.27858750004089,
      "v": 94
    },
    {
      "midi": 62,
      "hit": false,
      "t": 201050.09098958384,
      "d": 177.25399791670498,
      "v": 94
    },
    {
      "midi": 62,
      "hit": false,
      "t": 201158.6974854168,
      "d": 483.60628333332716,
      "v": 1
    },
    {
      "midi": 72,
      "hit": false,
      "t": 201158.6974854168,
      "d": 483.60628333332716,
      "v": 1
    },
    {
      "midi": 65,
      "hit": false,
      "t": 201388.20555208388,
      "d": 90.16388333332725,
      "v": 102
    },
    {
      "midi": 60,
      "hit": false,
      "t": 201635.1316416672,
      "d": 285.8604937500204,
      "v": 102
    },
    {
      "midi": 67,
      "hit": false,
      "t": 201635.1316416672,
      "d": 285.8604937500204,
      "v": 102
    },
    {
      "midi": 64,
      "hit": false,
      "t": 201639.23000000053,
      "d": 284.8359041666845,
      "v": 102
    },
    {
      "midi": 33,
      "hit": false,
      "t": 201640.25458958387,
      "d": 396.51616875003674,
      "v": 91
    },
    {
      "midi": 64,
      "hit": false,
      "t": 201644.3529479168,
      "d": 1232.5812687499856,
      "v": 1
    },
    {
      "midi": 72,
      "hit": false,
      "t": 201644.3529479168,
      "d": 1232.5812687499856,
      "v": 1
    },
    {
      "midi": 67,
      "hit": false,
      "t": 202023.45109375054,
      "d": 197.74578958336497,
      "v": 100
    },
    {
      "midi": 60,
      "hit": false,
      "t": 202028.57404166722,
      "d": 197.74578958336497,
      "v": 100
    },
    {
      "midi": 64,
      "hit": false,
      "t": 202033.6969895839,
      "d": 197.74578958336497,
      "v": 100
    },
    {
      "midi": 33,
      "hit": false,
      "t": 202132.0575895839,
      "d": 232.5818354166695,
      "v": 81
    },
    {
      "midi": 60,
      "hit": false,
      "t": 202372.83614166724,
      "d": 253.0736270833586,
      "v": 99
    },
    {
      "midi": 64,
      "hit": false,
      "t": 202372.83614166724,
      "d": 253.0736270833586,
      "v": 99
    },
    {
      "midi": 36,
      "hit": false,
      "t": 202372.83614166724,
      "d": 422.1309083333763,
      "v": 91
    },
    {
      "midi": 67,
      "hit": false,
      "t": 202377.95908958392,
      "d": 253.0736270833586,
      "v": 99
    },
    {
      "midi": 36,
      "hit": false,
      "t": 202863.61455208395,
      "d": 235.65560416664812,
      "v": 90
    },
    {
      "midi": 62,
      "hit": false,
      "t": 202873.86044791728,
      "d": 133.19664583331905,
      "v": 99
    },
    {
      "midi": 65,
      "hit": false,
      "t": 202873.86044791728,
      "d": 133.19664583331905,
      "v": 99
    },
    {
      "midi": 69,
      "hit": false,
      "t": 202873.86044791728,
      "d": 133.19664583331905,
      "v": 99
    },
    {
      "midi": 62,
      "hit": false,
      "t": 202878.98339583346,
      "d": 2213.1135000000068,
      "v": 1
    },
    {
      "midi": 69,
      "hit": false,
      "t": 202878.98339583346,
      "d": 2213.1135000000068,
      "v": 1
    },
    {
      "midi": 69,
      "hit": false,
      "t": 203110.54064166726,
      "d": 460.04072291668854,
      "v": 102
    },
    {
      "midi": 62,
      "hit": false,
      "t": 203114.6390000006,
      "d": 459.0161333333526,
      "v": 102
    },
    {
      "midi": 65,
      "hit": false,
      "t": 203114.6390000006,
      "d": 459.0161333333526,
      "v": 102
    },
    {
      "midi": 38,
      "hit": false,
      "t": 203115.66358958394,
      "d": 203.89332708332222,
      "v": 90
    },
    {
      "midi": 36,
      "hit": false,
      "t": 203355.41755208393,
      "d": 105.5327270833368,
      "v": 91
    },
    {
      "midi": 34,
      "hit": false,
      "t": 203601.31905208397,
      "d": 464.1390812500322,
      "v": 90
    },
    {
      "midi": 62,
      "hit": false,
      "t": 203606.44200000065,
      "d": 459.0161333333526,
      "v": 102
    },
    {
      "midi": 65,
      "hit": false,
      "t": 203611.56494791733,
      "d": 459.0161333333526,
      "v": 102
    },
    {
      "midi": 69,
      "hit": false,
      "t": 203611.56494791733,
      "d": 459.0161333333526,
      "v": 102
    },
    {
      "midi": 62,
      "hit": false,
      "t": 204094.14664166735,
      "d": 460.04072291668854,
      "v": 92
    },
    {
      "midi": 65,
      "hit": false,
      "t": 204094.14664166735,
      "d": 460.04072291668854,
      "v": 92
    },
    {
      "midi": 69,
      "hit": false,
      "t": 204098.2450000007,
      "d": 459.0161333333526,
      "v": 92
    },
    {
      "midi": 33,
      "hit": false,
      "t": 204099.26958958403,
      "d": 465.163670833339,
      "v": 92
    },
    {
      "midi": 31,
      "hit": false,
      "t": 204584.92505208403,
      "d": 409.83583333340357,
      "v": 90
    },
    {
      "midi": 62,
      "hit": false,
      "t": 204590.0480000007,
      "d": 251.02444791668677,
      "v": 99
    },
    {
      "midi": 65,
      "hit": false,
      "t": 204591.07258958404,
      "d": 253.0736270833586,
      "v": 99
    },
    {
      "midi": 58,
      "hit": false,
      "t": 204595.1709479174,
      "d": 251.02444791668677,
      "v": 99
    },
    {
      "midi": 58,
      "hit": false,
      "t": 204974.26909375074,
      "d": 177.25399791667587,
      "v": 94
    },
    {
      "midi": 65,
      "hit": false,
      "t": 204979.39204166742,
      "d": 177.25399791667587,
      "v": 94
    },
    {
      "midi": 62,
      "hit": false,
      "t": 204980.41663125076,
      "d": 178.27858750001178,
      "v": 94
    },
    {
      "midi": 62,
      "hit": false,
      "t": 205093.1214854168,
      "d": 485.655462499999,
      "v": 1
    },
    {
      "midi": 72,
      "hit": false,
      "t": 205093.1214854168,
      "d": 485.655462499999,
      "v": 1
    },
    {
      "midi": 65,
      "hit": false,
      "t": 205328.7770895841,
      "d": 91.18847291666316,
      "v": 102
    },
    {
      "midi": 67,
      "hit": false,
      "t": 205569.55564166742,
      "d": 285.8604937500204,
      "v": 102
    },
    {
      "midi": 60,
      "hit": false,
      "t": 205574.6785895841,
      "d": 285.8604937500204,
      "v": 102
    },
    {
      "midi": 64,
      "hit": false,
      "t": 205574.6785895841,
      "d": 285.8604937500204,
      "v": 102
    },
    {
      "midi": 33,
      "hit": false,
      "t": 205578.77694791745,
      "d": 394.4669895833649,
      "v": 91
    },
    {
      "midi": 64,
      "hit": false,
      "t": 205579.80153750014,
      "d": 1228.482910416671,
      "v": 1
    },
    {
      "midi": 72,
      "hit": false,
      "t": 205579.80153750014,
      "d": 1228.482910416671,
      "v": 1
    },
    {
      "midi": 67,
      "hit": false,
      "t": 205957.8750937508,
      "d": 197.74578958333586,
      "v": 100
    },
    {
      "midi": 60,
      "hit": false,
      "t": 205958.89968333414,
      "d": 198.77037916667177,
      "v": 100
    },
    {
      "midi": 64,
      "hit": false,
      "t": 205962.99804166748,
      "d": 197.74578958333586,
      "v": 100
    },
    {
      "midi": 33,
      "hit": false,
      "t": 206066.48158958415,
      "d": 237.70478333334904,
      "v": 81
    },
    {
      "midi": 64,
      "hit": false,
      "t": 206307.2601416675,
      "d": 253.0736270833586,
      "v": 99
    },
    {
      "midi": 67,
      "hit": false,
      "t": 206307.2601416675,
      "d": 253.0736270833586,
      "v": 99
    },
    {
      "midi": 60,
      "hit": false,
      "t": 206312.38308958418,
      "d": 253.0736270833586,
      "v": 99
    },
    {
      "midi": 36,
      "hit": false,
      "t": 206316.48144791753,
      "d": 420.08172916667536,
      "v": 91
    },
    {
      "midi": 65,
      "hit": false,
      "t": 206799.06314166755,
      "d": 135.24582500001998,
      "v": 99
    },
    {
      "midi": 69,
      "hit": false,
      "t": 206799.06314166755,
      "d": 135.24582500001998,
      "v": 99
    },
    {
      "midi": 62,
      "hit": false,
      "t": 206803.1615000009,
      "d": 133.19664583334816,
      "v": 99
    },
    {
      "midi": 36,
      "hit": false,
      "t": 206804.18608958423,
      "d": 237.70478333334904,
      "v": 90
    },
    {
      "midi": 65,
      "hit": false,
      "t": 206809.30903750015,
      "d": 249.99985833332175,
      "v": 1
    },
    {
      "midi": 72,
      "hit": false,
      "t": 206809.30903750015,
      "d": 249.99985833332175,
      "v": 1
    },
    {
      "midi": 65,
      "hit": false,
      "t": 207044.96464166758,
      "d": 460.04072291671764,
      "v": 102
    },
    {
      "midi": 69,
      "hit": false,
      "t": 207044.96464166758,
      "d": 460.04072291671764,
      "v": 102
    },
    {
      "midi": 62,
      "hit": false,
      "t": 207049.06300000093,
      "d": 459.01613333338173,
      "v": 102
    },
    {
      "midi": 38,
      "hit": false,
      "t": 207054.1859479176,
      "d": 79.91798749999725,
      "v": 90
    },
    {
      "midi": 62,
      "hit": false,
      "t": 207060.3334854168,
      "d": 485.655462499999,
      "v": 1
    },
    {
      "midi": 74,
      "hit": false,
      "t": 207060.3334854168,
      "d": 485.655462499999,
      "v": 1
    },
    {
      "midi": 36,
      "hit": false,
      "t": 207289.84155208428,
      "d": 105.5327270833368,
      "v": 91
    },
    {
      "midi": 69,
      "hit": false,
      "t": 207535.74305208432,
      "d": 459.0161333333526,
      "v": 102
    },
    {
      "midi": 65,
      "hit": false,
      "t": 207540.866000001,
      "d": 459.0161333333526,
      "v": 102
    },
    {
      "midi": 62,
      "hit": false,
      "t": 207545.98894791768,
      "d": 459.0161333333526,
      "v": 102
    },
    {
      "midi": 34,
      "hit": false,
      "t": 207545.98894791768,
      "d": 464.1390812500322,
      "v": 90
    },
    {
      "midi": 62,
      "hit": false,
      "t": 207547.01353750014,
      "d": 495.901358333329,
      "v": 1
    },
    {
      "midi": 67,
      "hit": false,
      "t": 207547.01353750014,
      "d": 495.901358333329,
      "v": 1
    },
    {
      "midi": 65,
      "hit": false,
      "t": 208027.54605208436,
      "d": 459.0161333333235,
      "v": 92
    },
    {
      "midi": 62,
      "hit": false,
      "t": 208028.5706416677,
      "d": 460.04072291665943,
      "v": 92
    },
    {
      "midi": 69,
      "hit": false,
      "t": 208037.7919479177,
      "d": 459.0161333333235,
      "v": 92
    },
    {
      "midi": 33,
      "hit": false,
      "t": 208037.7919479177,
      "d": 464.1390812500031,
      "v": 92
    },
    {
      "midi": 65,
      "hit": false,
      "t": 208043.9394854168,
      "d": 982.5814104166639,
      "v": 1
    },
    {
      "midi": 69,
      "hit": false,
      "t": 208043.9394854168,
      "d": 982.5814104166639,
      "v": 1
    },
    {
      "midi": 31,
      "hit": false,
      "t": 208519.34905208435,
      "d": 409.83583333334536,
      "v": 90
    },
    {
      "midi": 58,
      "hit": false,
      "t": 208524.47200000103,
      "d": 251.02444791665766,
      "v": 99
    },
    {
      "midi": 62,
      "hit": false,
      "t": 208524.47200000103,
      "d": 251.02444791665766,
      "v": 99
    },
    {
      "midi": 65,
      "hit": false,
      "t": 208525.49658958436,
      "d": 253.07362708332948,
      "v": 99
    },
    {
      "midi": 62,
      "hit": false,
      "t": 208909.71768333437,
      "d": 178.27858749998268,
      "v": 94
    },
    {
      "midi": 58,
      "hit": false,
      "t": 208918.93898958436,
      "d": 177.25399791664677,
      "v": 94
    },
    {
      "midi": 65,
      "hit": false,
      "t": 208918.93898958436,
      "d": 177.25399791664677,
      "v": 94
    },
    {
      "midi": 33,
      "hit": false,
      "t": 209012.1766416677,
      "d": 434.4259833332908,
      "v": 88
    },
    {
      "midi": 62,
      "hit": false,
      "t": 209027.5454854168,
      "d": 483.60628333332716,
      "v": 1
    },
    {
      "midi": 72,
      "hit": false,
      "t": 209027.5454854168,
      "d": 483.60628333332716,
      "v": 1
    },
    {
      "midi": 65,
      "hit": false,
      "t": 209267.29944791767,
      "d": 90.16388333332725,
      "v": 102
    },
    {
      "midi": 33,
      "hit": false,
      "t": 209503.97964166765,
      "d": 396.51616875006584,
      "v": 91
    },
    {
      "midi": 64,
      "hit": false,
      "t": 209509.10258958433,
      "d": 285.8604937500204,
      "v": 102
    },
    {
      "midi": 67,
      "hit": false,
      "t": 209509.10258958433,
      "d": 285.8604937500204,
      "v": 102
    },
    {
      "midi": 64,
      "hit": false,
      "t": 209513.2009479168,
      "d": 1232.5812687499856,
      "v": 1
    },
    {
      "midi": 72,
      "hit": false,
      "t": 209513.2009479168,
      "d": 1232.5812687499856,
      "v": 1
    },
    {
      "midi": 60,
      "hit": false,
      "t": 209513.20094791768,
      "d": 284.8359041666845,
      "v": 102
    },
    {
      "midi": 67,
      "hit": false,
      "t": 209893.32368333437,
      "d": 198.77037916667177,
      "v": 100
    },
    {
      "midi": 60,
      "hit": false,
      "t": 209898.44663125105,
      "d": 198.77037916667177,
      "v": 100
    },
    {
      "midi": 64,
      "hit": false,
      "t": 209898.44663125105,
      "d": 198.77037916667177,
      "v": 100
    },
    {
      "midi": 33,
      "hit": false,
      "t": 210005.00394791772,
      "d": 225.40970833331812,
      "v": 81
    },
    {
      "midi": 36,
      "hit": false,
      "t": 210240.65955208437,
      "d": 420.08172916670446,
      "v": 91
    },
    {
      "midi": 64,
      "hit": false,
      "t": 210241.6841416677,
      "d": 253.0736270833586,
      "v": 99
    },
    {
      "midi": 60,
      "hit": false,
      "t": 210246.80708958438,
      "d": 253.0736270833586,
      "v": 99
    },
    {
      "midi": 67,
      "hit": false,
      "t": 210246.80708958438,
      "d": 253.0736270833586,
      "v": 99
    },
    {
      "midi": 69,
      "hit": false,
      "t": 210732.4625520844,
      "d": 133.19664583334816,
      "v": 99
    },
    {
      "midi": 65,
      "hit": false,
      "t": 210733.48714166775,
      "d": 135.24582500001998,
      "v": 99
    },
    {
      "midi": 36,
      "hit": false,
      "t": 210733.48714166775,
      "d": 237.70478333337815,
      "v": 90
    },
    {
      "midi": 62,
      "hit": false,
      "t": 210738.61008958443,
      "d": 135.24582500001998,
      "v": 99
    },
    {
      "midi": 62,
      "hit": false,
      "t": 210747.83139583346,
      "d": 1721.3104999999923,
      "v": 1
    },
    {
      "midi": 69,
      "hit": false,
      "t": 210747.83139583346,
      "d": 1721.3104999999923,
      "v": 1
    },
    {
      "midi": 38,
      "hit": false,
      "t": 210988.60994791778,
      "d": 79.91798749999725,
      "v": 90
    },
    {
      "midi": 62,
      "hit": false,
      "t": 210988.60994791778,
      "d": 459.0161333333235,
      "v": 102
    },
    {
      "midi": 65,
      "hit": false,
      "t": 210988.60994791778,
      "d": 459.0161333333235,
      "v": 102
    },
    {
      "midi": 69,
      "hit": false,
      "t": 210988.60994791778,
      "d": 459.0161333333235,
      "v": 102
    },
    {
      "midi": 36,
      "hit": false,
      "t": 211225.29014166776,
      "d": 106.5573166666727,
      "v": 91
    },
    {
      "midi": 65,
      "hit": false,
      "t": 211471.19164166777,
      "d": 460.04072291668854,
      "v": 102
    },
    {
      "midi": 69,
      "hit": false,
      "t": 211475.2900000011,
      "d": 459.0161333333526,
      "v": 102
    },
    {
      "midi": 34,
      "hit": false,
      "t": 211476.31458958445,
      "d": 465.1636708333681,
      "v": 90
    },
    {
      "midi": 62,
      "hit": false,
      "t": 211480.4129479178,
      "d": 459.0161333333526,
      "v": 102
    },
    {
      "midi": 69,
      "hit": false,
      "t": 211962.9946416678,
      "d": 460.04072291668854,
      "v": 92
    },
    {
      "midi": 33,
      "hit": false,
      "t": 211967.09300000116,
      "d": 464.1390812500322,
      "v": 92
    },
    {
      "midi": 62,
      "hit": false,
      "t": 211968.1175895845,
      "d": 460.04072291668854,
      "v": 92
    },
    {
      "midi": 65,
      "hit": false,
      "t": 211968.1175895845,
      "d": 460.04072291668854,
      "v": 92
    },
    {
      "midi": 62,
      "hit": false,
      "t": 212453.77305208452,
      "d": 251.02444791668677,
      "v": 99
    },
    {
      "midi": 59,
      "hit": false,
      "t": 212454.79764166786,
      "d": 253.0736270833586,
      "v": 99
    },
    {
      "midi": 65,
      "hit": false,
      "t": 212459.92058958454,
      "d": 253.0736270833586,
      "v": 99
    },
    {
      "midi": 31,
      "hit": false,
      "t": 212464.01894791788,
      "d": 230.53265624999767,
      "v": 92
    },
    {
      "midi": 67,
      "hit": false,
      "t": 212470.1664854168,
      "d": 1953.8923354166618,
      "v": 1
    },
    {
      "midi": 71,
      "hit": false,
      "t": 212470.1664854168,
      "d": 1953.8923354166618,
      "v": 1
    },
    {
      "midi": 35,
      "hit": false,
      "t": 212704.7975000012,
      "d": 87.09011458334862,
      "v": 90
    },
    {
      "midi": 62,
      "hit": false,
      "t": 212843.11709375124,
      "d": 177.25399791667587,
      "v": 94
    },
    {
      "midi": 38,
      "hit": false,
      "t": 212844.14168333457,
      "d": 94.26224166667089,
      "v": 87
    },
    {
      "midi": 59,
      "hit": false,
      "t": 212848.24004166792,
      "d": 177.25399791667587,
      "v": 94
    },
    {
      "midi": 65,
      "hit": false,
      "t": 212848.24004166792,
      "d": 177.25399791667587,
      "v": 94
    },
    {
      "midi": 41,
      "hit": false,
      "t": 212950.69900000124,
      "d": 230.53265625002678,
      "v": 90
    },
    {
      "midi": 65,
      "hit": false,
      "t": 213191.4775520846,
      "d": 90.16388333332725,
      "v": 102
    },
    {
      "midi": 38,
      "hit": false,
      "t": 213191.4775520846,
      "d": 105.5327270833368,
      "v": 86
    },
    {
      "midi": 35,
      "hit": false,
      "t": 213335.94468333462,
      "d": 94.26224166667089,
      "v": 89
    },
    {
      "midi": 65,
      "hit": false,
      "t": 213437.3790520846,
      "d": 284.8359041666845,
      "v": 102
    },
    {
      "midi": 59,
      "hit": false,
      "t": 213442.5020000013,
      "d": 284.8359041666845,
      "v": 102
    },
    {
      "midi": 31,
      "hit": false,
      "t": 213443.52658958462,
      "d": 237.70478333331994,
      "v": 90
    },
    {
      "midi": 62,
      "hit": false,
      "t": 213443.52658958462,
      "d": 285.8604937500204,
      "v": 102
    },
    {
      "midi": 35,
      "hit": false,
      "t": 213693.52644791795,
      "d": 100.40977916668635,
      "v": 88
    },
    {
      "midi": 62,
      "hit": false,
      "t": 213831.84604166797,
      "d": 197.74578958333586,
      "v": 100
    },
    {
      "midi": 59,
      "hit": false,
      "t": 213832.8706312513,
      "d": 198.77037916667177,
      "v": 100
    },
    {
      "midi": 38,
      "hit": false,
      "t": 213836.96898958465,
      "d": 92.21306249999907,
      "v": 87
    },
    {
      "midi": 65,
      "hit": false,
      "t": 213836.96898958465,
      "d": 197.74578958333586,
      "v": 100
    },
    {
      "midi": 41,
      "hit": false,
      "t": 213939.42794791798,
      "d": 187.49989375000587,
      "v": 91
    },
    {
      "midi": 38,
      "hit": false,
      "t": 214175.08355208466,
      "d": 105.5327270833368,
      "v": 86
    },
    {
      "midi": 59,
      "hit": false,
      "t": 214176.108141668,
      "d": 242.8277312500286,
      "v": 99
    },
    {
      "midi": 62,
      "hit": false,
      "t": 214185.329447918,
      "d": 230.53265625002678,
      "v": 99
    },
    {
      "midi": 65,
      "hit": false,
      "t": 214185.329447918,
      "d": 238.72937291671406,
      "v": 99
    },
    {
      "midi": 35,
      "hit": false,
      "t": 214319.55068333467,
      "d": 94.26224166667089,
      "v": 89
    },
    {
      "midi": 62,
      "hit": false,
      "t": 214420.9850520847,
      "d": 15.36884375003865,
      "v": 99
    },
    {
      "midi": 59,
      "hit": false,
      "t": 214422.00964166803,
      "d": 7.17212708335137,
      "v": 99
    },
    {
      "midi": 65,
      "hit": false,
      "t": 214427.1325895847,
      "d": 9.22130625002319,
      "v": 99
    },
    {
      "midi": 31,
      "hit": false,
      "t": 214431.23094791805,
      "d": 230.53265625002678,
      "v": 92
    },
    {
      "midi": 35,
      "hit": false,
      "t": 214672.0095000014,
      "d": 87.09011458331952,
      "v": 90
    },
    {
      "midi": 62,
      "hit": false,
      "t": 214810.3290937514,
      "d": 177.25399791667587,
      "v": 94
    },
    {
      "midi": 38,
      "hit": false,
      "t": 214811.35368333475,
      "d": 94.26224166667089,
      "v": 87
    },
    {
      "midi": 59,
      "hit": false,
      "t": 214815.4520416681,
      "d": 177.25399791667587,
      "v": 94
    },
    {
      "midi": 65,
      "hit": false,
      "t": 214815.4520416681,
      "d": 177.25399791667587,
      "v": 94
    },
    {
      "midi": 41,
      "hit": false,
      "t": 214917.91100000142,
      "d": 230.53265625002678,
      "v": 90
    },
    {
      "midi": 65,
      "hit": false,
      "t": 215158.68955208478,
      "d": 90.16388333332725,
      "v": 102
    },
    {
      "midi": 38,
      "hit": false,
      "t": 215158.68955208478,
      "d": 105.5327270833368,
      "v": 86
    },
    {
      "midi": 35,
      "hit": false,
      "t": 215303.1566833348,
      "d": 94.26224166667089,
      "v": 89
    },
    {
      "midi": 65,
      "hit": false,
      "t": 215404.59105208478,
      "d": 284.8359041666845,
      "v": 102
    },
    {
      "midi": 59,
      "hit": false,
      "t": 215409.71400000146,
      "d": 284.8359041666845,
      "v": 102
    },
    {
      "midi": 31,
      "hit": false,
      "t": 215410.7385895848,
      "d": 237.70478333331994,
      "v": 90
    },
    {
      "midi": 62,
      "hit": false,
      "t": 215410.7385895848,
      "d": 285.8604937500204,
      "v": 102
    },
    {
      "midi": 35,
      "hit": false,
      "t": 215660.73844791812,
      "d": 100.40977916668635,
      "v": 88
    },
    {
      "midi": 62,
      "hit": false,
      "t": 215799.05804166815,
      "d": 197.74578958333586,
      "v": 100
    },
    {
      "midi": 59,
      "hit": false,
      "t": 215800.08263125148,
      "d": 198.77037916667177,
      "v": 100
    },
    {
      "midi": 38,
      "hit": false,
      "t": 215804.18098958483,
      "d": 92.21306249999907,
      "v": 87
    },
    {
      "midi": 65,
      "hit": false,
      "t": 215804.18098958483,
      "d": 197.74578958333586,
      "v": 100
    },
    {
      "midi": 41,
      "hit": false,
      "t": 215906.63994791816,
      "d": 187.49989375000587,
      "v": 91
    },
    {
      "midi": 38,
      "hit": false,
      "t": 216142.29555208483,
      "d": 105.5327270833368,
      "v": 86
    },
    {
      "midi": 59,
      "hit": false,
      "t": 216143.32014166817,
      "d": 168.03269166668179,
      "v": 99
    },
    {
      "midi": 62,
      "hit": false,
      "t": 216152.54144791816,
      "d": 167.00810208334588,
      "v": 99
    },
    {
      "midi": 65,
      "hit": false,
      "t": 216152.54144791816,
      "d": 167.00810208334588,
      "v": 99
    },
    {
      "midi": 35,
      "hit": false,
      "t": 216286.76268333485,
      "d": 94.26224166667089,
      "v": 89
    },
    {
      "midi": 62,
      "hit": false,
      "t": 216388.19705208484,
      "d": 251.02444791668677,
      "v": 99
    },
    {
      "midi": 59,
      "hit": false,
      "t": 216389.22164166818,
      "d": 253.0736270833586,
      "v": 99
    },
    {
      "midi": 65,
      "hit": false,
      "t": 216394.34458958486,
      "d": 253.0736270833586,
      "v": 99
    },
    {
      "midi": 31,
      "hit": false,
      "t": 216398.4429479182,
      "d": 230.53265624999767,
      "v": 92
    },
    {
      "midi": 35,
      "hit": false,
      "t": 216639.22150000153,
      "d": 87.09011458334862,
      "v": 90
    },
    {
      "midi": 62,
      "hit": false,
      "t": 216777.54109375156,
      "d": 177.25399791667587,
      "v": 94
    },
    {
      "midi": 38,
      "hit": false,
      "t": 216778.5656833349,
      "d": 94.26224166667089,
      "v": 87
    },
    {
      "midi": 59,
      "hit": false,
      "t": 216782.66404166823,
      "d": 177.25399791667587,
      "v": 94
    },
    {
      "midi": 65,
      "hit": false,
      "t": 216782.66404166823,
      "d": 177.25399791667587,
      "v": 94
    },
    {
      "midi": 41,
      "hit": false,
      "t": 216885.12300000156,
      "d": 230.53265625002678,
      "v": 90
    },
    {
      "midi": 65,
      "hit": false,
      "t": 217125.90155208492,
      "d": 90.16388333332725,
      "v": 102
    },
    {
      "midi": 38,
      "hit": false,
      "t": 217125.90155208492,
      "d": 105.5327270833368,
      "v": 86
    },
    {
      "midi": 35,
      "hit": false,
      "t": 217270.36868333493,
      "d": 94.26224166667089,
      "v": 89
    },
    {
      "midi": 65,
      "hit": false,
      "t": 217371.80305208493,
      "d": 284.8359041666845,
      "v": 102
    },
    {
      "midi": 59,
      "hit": false,
      "t": 217376.9260000016,
      "d": 284.8359041666845,
      "v": 102
    },
    {
      "midi": 31,
      "hit": false,
      "t": 217377.95058958494,
      "d": 237.70478333331994,
      "v": 90
    },
    {
      "midi": 62,
      "hit": false,
      "t": 217377.95058958494,
      "d": 285.8604937500204,
      "v": 102
    },
    {
      "midi": 35,
      "hit": false,
      "t": 217627.95044791827,
      "d": 100.40977916668635,
      "v": 88
    },
    {
      "midi": 62,
      "hit": false,
      "t": 217766.2700416683,
      "d": 197.74578958333586,
      "v": 100
    },
    {
      "midi": 59,
      "hit": false,
      "t": 217767.29463125163,
      "d": 198.77037916667177,
      "v": 100
    },
    {
      "midi": 38,
      "hit": false,
      "t": 217771.39298958497,
      "d": 92.21306249999907,
      "v": 87
    },
    {
      "midi": 65,
      "hit": false,
      "t": 217771.39298958497,
      "d": 197.74578958333586,
      "v": 100
    },
    {
      "midi": 41,
      "hit": false,
      "t": 217873.8519479183,
      "d": 187.49989375000587,
      "v": 91
    },
    {
      "midi": 38,
      "hit": false,
      "t": 218109.50755208498,
      "d": 105.5327270833368,
      "v": 86
    },
    {
      "midi": 59,
      "hit": false,
      "t": 218110.53214166831,
      "d": 242.8277312500286,
      "v": 99
    },
    {
      "midi": 62,
      "hit": false,
      "t": 218119.7534479183,
      "d": 230.53265625002678,
      "v": 99
    },
    {
      "midi": 65,
      "hit": false,
      "t": 218119.7534479183,
      "d": 238.72937291671406,
      "v": 99
    },
    {
      "midi": 35,
      "hit": false,
      "t": 218253.974683335,
      "d": 94.26224166667089,
      "v": 89
    },
    {
      "midi": 62,
      "hit": false,
      "t": 218355.40905208501,
      "d": 15.36884375003865,
      "v": 99
    },
    {
      "midi": 59,
      "hit": false,
      "t": 218356.43364166835,
      "d": 7.17212708335137,
      "v": 99
    },
    {
      "midi": 65,
      "hit": false,
      "t": 218361.55658958503,
      "d": 9.22130625002319,
      "v": 99
    },
    {
      "midi": 31,
      "hit": false,
      "t": 218365.65494791837,
      "d": 230.53265625002678,
      "v": 92
    },
    {
      "midi": 35,
      "hit": false,
      "t": 218606.43350000173,
      "d": 87.09011458331952,
      "v": 90
    },
    {
      "midi": 62,
      "hit": false,
      "t": 218744.75309375173,
      "d": 177.25399791667587,
      "v": 94
    },
    {
      "midi": 38,
      "hit": false,
      "t": 218745.77768333507,
      "d": 94.26224166667089,
      "v": 87
    },
    {
      "midi": 59,
      "hit": false,
      "t": 218749.8760416684,
      "d": 177.25399791667587,
      "v": 94
    },
    {
      "midi": 65,
      "hit": false,
      "t": 218749.8760416684,
      "d": 177.25399791667587,
      "v": 94
    },
    {
      "midi": 41,
      "hit": false,
      "t": 218852.33500000174,
      "d": 230.53265625002678,
      "v": 90
    },
    {
      "midi": 65,
      "hit": false,
      "t": 219093.1135520851,
      "d": 90.16388333332725,
      "v": 102
    },
    {
      "midi": 38,
      "hit": false,
      "t": 219093.1135520851,
      "d": 105.5327270833368,
      "v": 86
    },
    {
      "midi": 35,
      "hit": false,
      "t": 219237.5806833351,
      "d": 94.26224166667089,
      "v": 89
    },
    {
      "midi": 65,
      "hit": false,
      "t": 219339.0150520851,
      "d": 284.8359041666845,
      "v": 102
    },
    {
      "midi": 59,
      "hit": false,
      "t": 219344.13800000178,
      "d": 284.8359041666845,
      "v": 102
    },
    {
      "midi": 31,
      "hit": false,
      "t": 219345.16258958512,
      "d": 237.70478333331994,
      "v": 90
    },
    {
      "midi": 62,
      "hit": false,
      "t": 219345.16258958512,
      "d": 285.8604937500204,
      "v": 102
    },
    {
      "midi": 35,
      "hit": false,
      "t": 219595.16244791844,
      "d": 100.40977916668635,
      "v": 88
    },
    {
      "midi": 62,
      "hit": false,
      "t": 219733.48204166847,
      "d": 197.74578958333586,
      "v": 100
    },
    {
      "midi": 59,
      "hit": false,
      "t": 219734.5066312518,
      "d": 198.77037916667177,
      "v": 100
    },
    {
      "midi": 38,
      "hit": false,
      "t": 219738.60498958515,
      "d": 92.21306249999907,
      "v": 87
    },
    {
      "midi": 65,
      "hit": false,
      "t": 219738.60498958515,
      "d": 197.74578958333586,
      "v": 100
    },
    {
      "midi": 62,
      "hit": false,
      "t": 219841.0639479168,
      "d": 248.97526874998584,
      "v": 1
    },
    {
      "midi": 67,
      "hit": false,
      "t": 219841.0639479168,
      "d": 248.97526874998584,
      "v": 1
    },
    {
      "midi": 41,
      "hit": false,
      "t": 219841.06394791848,
      "d": 187.49989375000587,
      "v": 91
    },
    {
      "midi": 38,
      "hit": false,
      "t": 220076.71955208515,
      "d": 474.38497708333307,
      "v": 86
    },
    {
      "midi": 57,
      "hit": false,
      "t": 220077.7441416685,
      "d": 413.9341916666599,
      "v": 99
    },
    {
      "midi": 62,
      "hit": false,
      "t": 220086.96544791848,
      "d": 412.909602083324,
      "v": 99
    },
    {
      "midi": 65,
      "hit": false,
      "t": 220086.96544791848,
      "d": 412.909602083324,
      "v": 99
    },
    {
      "midi": 65,
      "hit": false,
      "t": 220092.08839583345,
      "d": 4168.0304250000045,
      "v": 1
    },
    {
      "midi": 69,
      "hit": false,
      "t": 220092.08839583345,
      "d": 4168.0304250000045,
      "v": 1
    },
    {
      "midi": 74,
      "hit": false,
      "t": 220092.08839583345,
      "d": 4168.0304250000045,
      "v": 1
    },
    {
      "midi": 38,
      "hit": false,
      "t": 220578.7684479185,
      "d": 187.49989375000587,
      "v": 91
    },
    {
      "midi": 53,
      "hit": false,
      "t": 220578.7684479185,
      "d": 187.49989375000587,
      "v": 91
    },
    {
      "midi": 62,
      "hit": false,
      "t": 220578.7684479185,
      "d": 187.49989375000587,
      "v": 91
    },
    {
      "midi": 38,
      "hit": false,
      "t": 220814.42405208517,
      "d": 474.38497708330397,
      "v": 75
    },
    {
      "midi": 57,
      "hit": false,
      "t": 220815.4486416685,
      "d": 444.6718791666499,
      "v": 88
    },
    {
      "midi": 62,
      "hit": false,
      "t": 220824.6699479185,
      "d": 443.647289583314,
      "v": 88
    },
    {
      "midi": 65,
      "hit": false,
      "t": 220824.6699479185,
      "d": 443.647289583314,
      "v": 88
    },
    {
      "midi": 38,
      "hit": false,
      "t": 221306.22705208513,
      "d": 474.38497708330397,
      "v": 86
    },
    {
      "midi": 57,
      "hit": false,
      "t": 221307.25164166847,
      "d": 444.6718791666499,
      "v": 99
    },
    {
      "midi": 62,
      "hit": false,
      "t": 221316.47294791846,
      "d": 443.647289583314,
      "v": 99
    },
    {
      "midi": 65,
      "hit": false,
      "t": 221316.47294791846,
      "d": 443.647289583314,
      "v": 99
    },
    {
      "midi": 38,
      "hit": false,
      "t": 221798.0300520851,
      "d": 474.38497708330397,
      "v": 75
    },
    {
      "midi": 57,
      "hit": false,
      "t": 221799.05464166842,
      "d": 444.6718791666499,
      "v": 88
    },
    {
      "midi": 62,
      "hit": false,
      "t": 221808.27594791842,
      "d": 443.647289583314,
      "v": 88
    },
    {
      "midi": 65,
      "hit": false,
      "t": 221808.27594791842,
      "d": 443.647289583314,
      "v": 88
    },
    {
      "midi": 38,
      "hit": false,
      "t": 222289.83305208504,
      "d": 474.38497708330397,
      "v": 86
    },
    {
      "midi": 57,
      "hit": false,
      "t": 222290.85764166838,
      "d": 444.6718791666499,
      "v": 99
    },
    {
      "midi": 62,
      "hit": false,
      "t": 222300.07894791837,
      "d": 443.647289583314,
      "v": 99
    },
    {
      "midi": 65,
      "hit": false,
      "t": 222300.07894791837,
      "d": 443.647289583314,
      "v": 99
    },
    {
      "midi": 38,
      "hit": false,
      "t": 222781.636052085,
      "d": 474.38497708330397,
      "v": 75
    },
    {
      "midi": 57,
      "hit": false,
      "t": 222782.66064166834,
      "d": 444.6718791666499,
      "v": 88
    },
    {
      "midi": 62,
      "hit": false,
      "t": 222791.88194791833,
      "d": 443.647289583314,
      "v": 88
    },
    {
      "midi": 65,
      "hit": false,
      "t": 222791.88194791833,
      "d": 443.647289583314,
      "v": 88
    },
    {
      "midi": 38,
      "hit": false,
      "t": 223273.43905208496,
      "d": 474.38497708330397,
      "v": 86
    },
    {
      "midi": 57,
      "hit": false,
      "t": 223274.4636416683,
      "d": 444.6718791666499,
      "v": 99
    },
    {
      "midi": 62,
      "hit": false,
      "t": 223283.6849479183,
      "d": 443.647289583314,
      "v": 99
    },
    {
      "midi": 65,
      "hit": false,
      "t": 223283.6849479183,
      "d": 443.647289583314,
      "v": 99
    },
    {
      "midi": 38,
      "hit": false,
      "t": 223765.2420520849,
      "d": 474.38497708330397,
      "v": 75
    },
    {
      "midi": 57,
      "hit": false,
      "t": 223766.26664166825,
      "d": 444.6718791666499,
      "v": 88
    },
    {
      "midi": 62,
      "hit": false,
      "t": 223775.48794791824,
      "d": 443.647289583314,
      "v": 88
    },
    {
      "midi": 65,
      "hit": false,
      "t": 223775.48794791824,
      "d": 443.647289583314,
      "v": 88
    },
    {
      "midi": 57,
      "hit": false,
      "t": 224262.16800000155,
      "d": 245.90150000000722,
      "v": 99
    },
    {
      "midi": 65,
      "hit": false,
      "t": 224262.16800000155,
      "d": 248.97526875001495,
      "v": 99
    },
    {
      "midi": 62,
      "hit": false,
      "t": 224262.16800000155,
      "d": 251.02444791668677,
      "v": 99
    },
    {
      "midi": 38,
      "hit": false,
      "t": 224262.16800000155,
      "d": 407.78665416667354,
      "v": 90
    },
    {
      "midi": 86,
      "hit": false,
      "t": 225246.79858958488,
      "d": 60.45078541667317,
      "v": 61
    },
    {
      "midi": 88,
      "hit": false,
      "t": 225291.88053125155,
      "d": 46.10653125002864,
      "v": 42
    },
    {
      "midi": 89,
      "hit": false,
      "t": 225322.61821875157,
      "d": 40.98358333334909,
      "v": 70
    },
    {
      "midi": 91,
      "hit": false,
      "t": 225353.35590625159,
      "d": 126.02451874999679,
      "v": 68
    },
    {
      "midi": 93,
      "hit": false,
      "t": 225420.97881875158,
      "d": 224.38511875001132,
      "v": 45
    },
    {
      "midi": 69,
      "hit": false,
      "t": 226726.3059479168,
      "d": 484.63087291669217,
      "v": 1
    },
    {
      "midi": 65,
      "hit": false,
      "t": 226727.33053750012,
      "d": 483.60628333335626,
      "v": 1
    },
    {
      "midi": 62,
      "hit": false,
      "t": 226731.42889583347,
      "d": 479.5079250000126,
      "v": 1
    },
    {
      "midi": 59,
      "hit": false,
      "t": 227208.88764166826,
      "d": 285.8604937500204,
      "v": 102
    },
    {
      "midi": 67,
      "hit": false,
      "t": 227208.88764166826,
      "d": 285.8604937500204,
      "v": 102
    },
    {
      "midi": 64,
      "hit": false,
      "t": 227212.9860000016,
      "d": 284.8359041666845,
      "v": 102
    },
    {
      "midi": 50,
      "hit": false,
      "t": 227214.01058958494,
      "d": 396.51616875003674,
      "v": 91
    },
    {
      "midi": 67,
      "hit": false,
      "t": 227597.2070937516,
      "d": 197.74578958336497,
      "v": 100
    },
    {
      "midi": 59,
      "hit": false,
      "t": 227602.3300416683,
      "d": 197.74578958336497,
      "v": 100
    },
    {
      "midi": 64,
      "hit": false,
      "t": 227607.45298958497,
      "d": 197.74578958336497,
      "v": 100
    },
    {
      "midi": 50,
      "hit": false,
      "t": 227705.81358958498,
      "d": 232.5818354166695,
      "v": 81
    },
    {
      "midi": 50,
      "hit": false,
      "t": 227946.5921416683,
      "d": 198.77037916667177,
      "v": 91
    },
    {
      "midi": 59,
      "hit": false,
      "t": 227946.5921416683,
      "d": 239.75396249999176,
      "v": 99
    },
    {
      "midi": 64,
      "hit": false,
      "t": 227946.5921416683,
      "d": 239.75396249999176,
      "v": 99
    },
    {
      "midi": 67,
      "hit": false,
      "t": 227951.715089585,
      "d": 234.6310145833122,
      "v": 99
    },
    {
      "midi": 59,
      "hit": false,
      "t": 228196.59200000163,
      "d": 126.02451874999679,
      "v": 99
    },
    {
      "midi": 64,
      "hit": false,
      "t": 228196.59200000163,
      "d": 126.02451874999679,
      "v": 99
    },
    {
      "midi": 67,
      "hit": false,
      "t": 228196.59200000163,
      "d": 126.02451874999679,
      "v": 99
    },
    {
      "midi": 38,
      "hit": false,
      "t": 228196.59200000163,
      "d": 407.78665416664444,
      "v": 90
    },
    {
      "midi": 62,
      "hit": false,
      "t": 228341.05913125162,
      "d": 314.54900208333856,
      "v": 99
    },
    {
      "midi": 65,
      "hit": false,
      "t": 228341.05913125162,
      "d": 314.54900208333856,
      "v": 99
    },
    {
      "midi": 69,
      "hit": false,
      "t": 228341.05913125162,
      "d": 314.54900208333856,
      "v": 99
    },
    {
      "midi": 62,
      "hit": false,
      "t": 228683.27205208497,
      "d": 177.25399791667587,
      "v": 94
    },
    {
      "midi": 69,
      "hit": false,
      "t": 228688.39500000165,
      "d": 177.25399791667587,
      "v": 94
    },
    {
      "midi": 65,
      "hit": false,
      "t": 228689.41958958498,
      "d": 178.27858750001178,
      "v": 94
    },
    {
      "midi": 88,
      "hit": false,
      "t": 229205.812739585,
      "d": 56.35242708332953,
      "v": 59
    },
    {
      "midi": 86,
      "hit": false,
      "t": 229246.79632291832,
      "d": 44.05735208335682,
      "v": 64
    },
    {
      "midi": 84,
      "hit": false,
      "t": 229277.53401041834,
      "d": 56.35242708332953,
      "v": 70
    },
    {
      "midi": 83,
      "hit": false,
      "t": 229309.29628750167,
      "d": 65.57373333335272,
      "v": 62
    },
    {
      "midi": 81,
      "hit": false,
      "t": 229359.501177085,
      "d": 56.352427083358634,
      "v": 62
    },
    {
      "midi": 79,
      "hit": false,
      "t": 229400.48476041836,
      "d": 51.229479166679084,
      "v": 61
    },
    {
      "midi": 76,
      "hit": false,
      "t": 229410.7306562517,
      "d": 56.352427083358634,
      "v": 59
    },
    {
      "midi": 77,
      "hit": false,
      "t": 229432.24703750171,
      "d": 60.45078541667317,
      "v": 60
    },
    {
      "midi": 74,
      "hit": false,
      "t": 229451.71423958504,
      "d": 44.05735208335682,
      "v": 64
    },
    {
      "midi": 72,
      "hit": false,
      "t": 229482.45192708506,
      "d": 56.35242708332953,
      "v": 70
    },
    {
      "midi": 71,
      "hit": false,
      "t": 229514.21420416838,
      "d": 65.57373333335272,
      "v": 62
    },
    {
      "midi": 69,
      "hit": false,
      "t": 229564.41909375173,
      "d": 56.352427083358634,
      "v": 62
    },
    {
      "midi": 67,
      "hit": false,
      "t": 229605.40267708508,
      "d": 51.229479166679084,
      "v": 61
    },
    {
      "midi": 65,
      "hit": false,
      "t": 229637.16495416843,
      "d": 60.45078541664407,
      "v": 60
    },
    {
      "midi": 64,
      "hit": false,
      "t": 229718.10753125174,
      "d": 56.35242708332953,
      "v": 59
    },
    {
      "midi": 65,
      "hit": false,
      "t": 229739.62391250173,
      "d": 60.45078541667317,
      "v": 60
    },
    {
      "midi": 62,
      "hit": false,
      "t": 229759.09111458506,
      "d": 44.05735208335682,
      "v": 64
    },
    {
      "midi": 60,
      "hit": false,
      "t": 229789.82880208507,
      "d": 56.35242708332953,
      "v": 70
    },
    {
      "midi": 59,
      "hit": false,
      "t": 229821.5910791684,
      "d": 65.57373333335272,
      "v": 62
    },
    {
      "midi": 57,
      "hit": false,
      "t": 229871.79596875174,
      "d": 56.352427083358634,
      "v": 62
    },
    {
      "midi": 55,
      "hit": false,
      "t": 229912.7795520851,
      "d": 51.229479166679084,
      "v": 61
    },
    {
      "midi": 53,
      "hit": false,
      "t": 229944.54182916845,
      "d": 1044.056785416673,
      "v": 60
    },
    {
      "midi": 69,
      "hit": false,
      "t": 230660.7299479168,
      "d": 484.63087291669217,
      "v": 1
    },
    {
      "midi": 65,
      "hit": false,
      "t": 230661.75453750015,
      "d": 483.60628333335626,
      "v": 1
    },
    {
      "midi": 62,
      "hit": false,
      "t": 230665.8528958335,
      "d": 479.5079250000126,
      "v": 1
    },
    {
      "midi": 59,
      "hit": false,
      "t": 231143.31164166846,
      "d": 285.8604937500204,
      "v": 102
    },
    {
      "midi": 67,
      "hit": false,
      "t": 231143.31164166846,
      "d": 285.8604937500204,
      "v": 102
    },
    {
      "midi": 64,
      "hit": false,
      "t": 231147.4100000018,
      "d": 284.8359041666845,
      "v": 102
    },
    {
      "midi": 50,
      "hit": false,
      "t": 231148.43458958514,
      "d": 396.51616875003674,
      "v": 91
    },
    {
      "midi": 67,
      "hit": false,
      "t": 231531.6310937518,
      "d": 197.74578958336497,
      "v": 100
    },
    {
      "midi": 59,
      "hit": false,
      "t": 231536.7540416685,
      "d": 197.74578958336497,
      "v": 100
    },
    {
      "midi": 64,
      "hit": false,
      "t": 231541.87698958517,
      "d": 197.74578958336497,
      "v": 100
    },
    {
      "midi": 50,
      "hit": false,
      "t": 231640.2375895852,
      "d": 232.5818354166695,
      "v": 81
    },
    {
      "midi": 50,
      "hit": false,
      "t": 231881.01614166852,
      "d": 198.77037916667177,
      "v": 91
    },
    {
      "midi": 59,
      "hit": false,
      "t": 231881.01614166852,
      "d": 239.75396249999176,
      "v": 99
    },
    {
      "midi": 64,
      "hit": false,
      "t": 231881.01614166852,
      "d": 239.75396249999176,
      "v": 99
    },
    {
      "midi": 67,
      "hit": false,
      "t": 231886.1390895852,
      "d": 234.6310145833122,
      "v": 99
    },
    {
      "midi": 59,
      "hit": false,
      "t": 232131.01600000184,
      "d": 126.02451874999679,
      "v": 99
    },
    {
      "midi": 64,
      "hit": false,
      "t": 232131.01600000184,
      "d": 126.02451874999679,
      "v": 99
    },
    {
      "midi": 67,
      "hit": false,
      "t": 232131.01600000184,
      "d": 126.02451874999679,
      "v": 99
    },
    {
      "midi": 38,
      "hit": false,
      "t": 232131.01600000184,
      "d": 407.78665416664444,
      "v": 90
    },
    {
      "midi": 62,
      "hit": false,
      "t": 232275.48313125182,
      "d": 314.54900208333856,
      "v": 99
    },
    {
      "midi": 65,
      "hit": false,
      "t": 232275.48313125182,
      "d": 314.54900208333856,
      "v": 99
    },
    {
      "midi": 69,
      "hit": false,
      "t": 232275.48313125182,
      "d": 314.54900208333856,
      "v": 99
    },
    {
      "midi": 62,
      "hit": false,
      "t": 232617.69605208517,
      "d": 177.25399791667587,
      "v": 94
    },
    {
      "midi": 69,
      "hit": false,
      "t": 232622.81900000185,
      "d": 177.25399791667587,
      "v": 94
    },
    {
      "midi": 65,
      "hit": false,
      "t": 232623.8435895852,
      "d": 178.27858750001178,
      "v": 94
    },
    {
      "midi": 74,
      "hit": false,
      "t": 233177.1219645852,
      "d": 60.45078541667317,
      "v": 61
    },
    {
      "midi": 76,
      "hit": false,
      "t": 233222.20390625187,
      "d": 46.10653125002864,
      "v": 42
    },
    {
      "midi": 77,
      "hit": false,
      "t": 233252.9415937519,
      "d": 40.98358333334909,
      "v": 70
    },
    {
      "midi": 79,
      "hit": false,
      "t": 233283.6792812519,
      "d": 126.02451874999679,
      "v": 68
    },
    {
      "midi": 81,
      "hit": false,
      "t": 233351.3021937519,
      "d": 224.38511875001132,
      "v": 45
    },
    {
      "midi": 81,
      "hit": false,
      "t": 233684.29380833526,
      "d": 101.43436874999315,
      "v": 49
    },
    {
      "midi": 79,
      "hit": false,
      "t": 233766.26097500193,
      "d": 75.81962916665361,
      "v": 46
    },
    {
      "midi": 77,
      "hit": false,
      "t": 233826.71176041858,
      "d": 76.84421874998952,
      "v": 52
    },
    {
      "midi": 76,
      "hit": false,
      "t": 233884.08877708524,
      "d": 84.01634583331179,
      "v": 48
    },
    {
      "midi": 74,
      "hit": false,
      "t": 233945.56415208522,
      "d": 63.5245541666518,
      "v": 37
    },
    {
      "midi": 74,
      "hit": false,
      "t": 234170.97386041854,
      "d": 80.94257708333316,
      "v": 46
    },
    {
      "midi": 76,
      "hit": false,
      "t": 234227.32628750187,
      "d": 80.94257708333316,
      "v": 20
    },
    {
      "midi": 77,
      "hit": false,
      "t": 234292.9000208352,
      "d": 54.30324791665771,
      "v": 46
    },
    {
      "midi": 79,
      "hit": false,
      "t": 234329.7852458352,
      "d": 55.32783749999362,
      "v": 59
    },
    {
      "midi": 81,
      "hit": false,
      "t": 234369.74423958518,
      "d": 197.74578958333586,
      "v": 62
    },
    {
      "midi": 69,
      "hit": false,
      "t": 234595.15394791684,
      "d": 484.63087291669217,
      "v": 1
    },
    {
      "midi": 65,
      "hit": false,
      "t": 234596.17853750018,
      "d": 483.60628333335626,
      "v": 1
    },
    {
      "midi": 62,
      "hit": false,
      "t": 234600.27689583352,
      "d": 479.5079250000126,
      "v": 1
    },
    {
      "midi": 88,
      "hit": false,
      "t": 234615.6457395852,
      "d": 56.352427083358634,
      "v": 59
    },
    {
      "midi": 86,
      "hit": false,
      "t": 234656.62932291854,
      "d": 44.05735208335682,
      "v": 64
    },
    {
      "midi": 84,
      "hit": false,
      "t": 234687.36701041856,
      "d": 56.35242708332953,
      "v": 70
    },
    {
      "midi": 59,
      "hit": false,
      "t": 235077.73564166855,
      "d": 285.8604937500204,
      "v": 102
    },
    {
      "midi": 67,
      "hit": false,
      "t": 235077.73564166855,
      "d": 285.8604937500204,
      "v": 102
    },
    {
      "midi": 64,
      "hit": false,
      "t": 235081.8340000019,
      "d": 284.8359041666845,
      "v": 102
    },
    {
      "midi": 50,
      "hit": false,
      "t": 235082.85858958523,
      "d": 396.51616875003674,
      "v": 91
    },
    {
      "midi": 67,
      "hit": false,
      "t": 235466.0550937519,
      "d": 197.74578958336497,
      "v": 100
    },
    {
      "midi": 59,
      "hit": false,
      "t": 235471.17804166858,
      "d": 197.74578958336497,
      "v": 100
    },
    {
      "midi": 64,
      "hit": false,
      "t": 235476.30098958526,
      "d": 197.74578958336497,
      "v": 100
    },
    {
      "midi": 50,
      "hit": false,
      "t": 235574.66158958527,
      "d": 232.5818354166695,
      "v": 81
    },
    {
      "midi": 50,
      "hit": false,
      "t": 235815.4401416686,
      "d": 198.77037916667177,
      "v": 91
    },
    {
      "midi": 59,
      "hit": false,
      "t": 235815.4401416686,
      "d": 239.75396249999176,
      "v": 99
    },
    {
      "midi": 64,
      "hit": false,
      "t": 235815.4401416686,
      "d": 239.75396249999176,
      "v": 99
    },
    {
      "midi": 67,
      "hit": false,
      "t": 235820.56308958528,
      "d": 234.6310145833122,
      "v": 99
    },
    {
      "midi": 59,
      "hit": false,
      "t": 236065.44000000192,
      "d": 126.02451874999679,
      "v": 99
    },
    {
      "midi": 64,
      "hit": false,
      "t": 236065.44000000192,
      "d": 126.02451874999679,
      "v": 99
    },
    {
      "midi": 67,
      "hit": false,
      "t": 236065.44000000192,
      "d": 126.02451874999679,
      "v": 99
    },
    {
      "midi": 38,
      "hit": false,
      "t": 236065.44000000192,
      "d": 407.78665416664444,
      "v": 90
    },
    {
      "midi": 62,
      "hit": false,
      "t": 236209.9071312519,
      "d": 314.54900208333856,
      "v": 99
    },
    {
      "midi": 65,
      "hit": false,
      "t": 236209.9071312519,
      "d": 314.54900208333856,
      "v": 99
    },
    {
      "midi": 69,
      "hit": false,
      "t": 236209.9071312519,
      "d": 314.54900208333856,
      "v": 99
    },
    {
      "midi": 62,
      "hit": false,
      "t": 236552.12005208526,
      "d": 177.25399791667587,
      "v": 94
    },
    {
      "midi": 69,
      "hit": false,
      "t": 236557.24300000194,
      "d": 177.25399791667587,
      "v": 94
    },
    {
      "midi": 65,
      "hit": false,
      "t": 236558.26758958527,
      "d": 178.27858750001178,
      "v": 94
    },
    {
      "midi": 88,
      "hit": false,
      "t": 237074.6607395853,
      "d": 56.35242708332953,
      "v": 59
    },
    {
      "midi": 86,
      "hit": false,
      "t": 237115.6443229186,
      "d": 44.05735208335682,
      "v": 64
    },
    {
      "midi": 84,
      "hit": false,
      "t": 237146.38201041863,
      "d": 56.35242708332953,
      "v": 70
    },
    {
      "midi": 83,
      "hit": false,
      "t": 237178.14428750196,
      "d": 65.57373333335272,
      "v": 62
    },
    {
      "midi": 81,
      "hit": false,
      "t": 237228.3491770853,
      "d": 56.352427083358634,
      "v": 62
    },
    {
      "midi": 79,
      "hit": false,
      "t": 237269.33276041865,
      "d": 51.229479166679084,
      "v": 61
    },
    {
      "midi": 76,
      "hit": false,
      "t": 237279.57865625198,
      "d": 56.352427083358634,
      "v": 59
    },
    {
      "midi": 77,
      "hit": false,
      "t": 237301.095037502,
      "d": 60.45078541667317,
      "v": 60
    },
    {
      "midi": 74,
      "hit": false,
      "t": 237320.56223958533,
      "d": 44.05735208335682,
      "v": 64
    },
    {
      "midi": 72,
      "hit": false,
      "t": 237351.29992708535,
      "d": 56.35242708332953,
      "v": 70
    },
    {
      "midi": 71,
      "hit": false,
      "t": 237383.06220416867,
      "d": 65.57373333335272,
      "v": 62
    },
    {
      "midi": 69,
      "hit": false,
      "t": 237433.26709375202,
      "d": 56.352427083358634,
      "v": 62
    },
    {
      "midi": 67,
      "hit": false,
      "t": 237474.25067708537,
      "d": 51.229479166679084,
      "v": 61
    },
    {
      "midi": 65,
      "hit": false,
      "t": 237506.01295416872,
      "d": 60.45078541664407,
      "v": 60
    },
    {
      "midi": 64,
      "hit": false,
      "t": 237586.95553125202,
      "d": 56.35242708332953,
      "v": 59
    },
    {
      "midi": 65,
      "hit": false,
      "t": 237608.47191250202,
      "d": 60.45078541667317,
      "v": 60
    },
    {
      "midi": 62,
      "hit": false,
      "t": 237627.93911458534,
      "d": 44.05735208335682,
      "v": 64
    },
    {
      "midi": 60,
      "hit": false,
      "t": 237658.67680208536,
      "d": 56.35242708332953,
      "v": 70
    },
    {
      "midi": 59,
      "hit": false,
      "t": 237690.4390791687,
      "d": 65.57373333335272,
      "v": 62
    },
    {
      "midi": 57,
      "hit": false,
      "t": 237740.64396875203,
      "d": 56.352427083358634,
      "v": 62
    },
    {
      "midi": 55,
      "hit": false,
      "t": 237781.62755208538,
      "d": 51.229479166679084,
      "v": 61
    },
    {
      "midi": 53,
      "hit": false,
      "t": 237813.38982916874,
      "d": 1044.056785416673,
      "v": 60
    },
    {
      "midi": 59,
      "hit": false,
      "t": 239012.15964166875,
      "d": 285.8604937500204,
      "v": 102
    },
    {
      "midi": 67,
      "hit": false,
      "t": 239012.15964166875,
      "d": 285.8604937500204,
      "v": 102
    },
    {
      "midi": 64,
      "hit": false,
      "t": 239016.2580000021,
      "d": 284.8359041666845,
      "v": 102
    },
    {
      "midi": 50,
      "hit": false,
      "t": 239017.28258958543,
      "d": 396.51616875003674,
      "v": 91
    },
    {
      "midi": 67,
      "hit": false,
      "t": 239400.4790937521,
      "d": 197.74578958336497,
      "v": 100
    },
    {
      "midi": 59,
      "hit": false,
      "t": 239405.60204166878,
      "d": 197.74578958336497,
      "v": 100
    },
    {
      "midi": 64,
      "hit": false,
      "t": 239410.72498958546,
      "d": 197.74578958336497,
      "v": 100
    },
    {
      "midi": 50,
      "hit": false,
      "t": 239509.08558958548,
      "d": 232.5818354166695,
      "v": 81
    },
    {
      "midi": 50,
      "hit": false,
      "t": 239749.8641416688,
      "d": 198.77037916667177,
      "v": 91
    },
    {
      "midi": 59,
      "hit": false,
      "t": 239749.8641416688,
      "d": 239.75396249999176,
      "v": 99
    },
    {
      "midi": 64,
      "hit": false,
      "t": 239749.8641416688,
      "d": 239.75396249999176,
      "v": 99
    },
    {
      "midi": 67,
      "hit": false,
      "t": 239754.98708958548,
      "d": 234.6310145833122,
      "v": 99
    },
    {
      "midi": 59,
      "hit": false,
      "t": 239999.86400000213,
      "d": 126.02451874999679,
      "v": 99
    },
    {
      "midi": 64,
      "hit": false,
      "t": 239999.86400000213,
      "d": 126.02451874999679,
      "v": 99
    },
    {
      "midi": 67,
      "hit": false,
      "t": 239999.86400000213,
      "d": 126.02451874999679,
      "v": 99
    },
    {
      "midi": 38,
      "hit": false,
      "t": 239999.86400000213,
      "d": 407.78665416664444,
      "v": 90
    },
    {
      "midi": 62,
      "hit": false,
      "t": 240144.3311312521,
      "d": 314.54900208333856,
      "v": 99
    },
    {
      "midi": 65,
      "hit": false,
      "t": 240144.3311312521,
      "d": 314.54900208333856,
      "v": 99
    },
    {
      "midi": 69,
      "hit": false,
      "t": 240144.3311312521,
      "d": 314.54900208333856,
      "v": 99
    },
    {
      "midi": 62,
      "hit": false,
      "t": 240486.54405208546,
      "d": 177.25399791667587,
      "v": 94
    },
    {
      "midi": 69,
      "hit": false,
      "t": 240491.66700000214,
      "d": 177.25399791667587,
      "v": 94
    },
    {
      "midi": 65,
      "hit": false,
      "t": 240492.69158958548,
      "d": 178.27858750001178,
      "v": 94
    },
    {
      "midi": 88,
      "hit": false,
      "t": 241029.57653125215,
      "d": 56.35242708332953,
      "v": 59
    },
    {
      "midi": 86,
      "hit": false,
      "t": 241070.56011458547,
      "d": 44.05735208335682,
      "v": 64
    },
    {
      "midi": 84,
      "hit": false,
      "t": 241101.2978020855,
      "d": 56.35242708332953,
      "v": 70
    },
    {
      "midi": 83,
      "hit": false,
      "t": 241133.06007916882,
      "d": 65.57373333335272,
      "v": 62
    },
    {
      "midi": 81,
      "hit": false,
      "t": 241183.26496875216,
      "d": 56.352427083358634,
      "v": 62
    },
    {
      "midi": 79,
      "hit": false,
      "t": 241224.2485520855,
      "d": 51.229479166679084,
      "v": 61
    },
    {
      "midi": 76,
      "hit": false,
      "t": 241234.49444791884,
      "d": 56.352427083358634,
      "v": 59
    },
    {
      "midi": 77,
      "hit": false,
      "t": 241256.01082916887,
      "d": 60.45078541667317,
      "v": 60
    },
    {
      "midi": 74,
      "hit": false,
      "t": 241275.4780312522,
      "d": 44.05735208335682,
      "v": 64
    },
    {
      "midi": 72,
      "hit": false,
      "t": 241306.2157187522,
      "d": 56.35242708332953,
      "v": 70
    },
    {
      "midi": 71,
      "hit": false,
      "t": 241337.97799583554,
      "d": 65.57373333335272,
      "v": 62
    },
    {
      "midi": 69,
      "hit": false,
      "t": 241388.18288541888,
      "d": 56.352427083358634,
      "v": 62
    },
    {
      "midi": 67,
      "hit": false,
      "t": 241429.16646875223,
      "d": 51.229479166679084,
      "v": 61
    },
    {
      "midi": 65,
      "hit": false,
      "t": 241460.92874583558,
      "d": 60.45078541664407,
      "v": 60
    },
    {
      "midi": 64,
      "hit": false,
      "t": 241541.8713229189,
      "d": 56.35242708332953,
      "v": 59
    },
    {
      "midi": 65,
      "hit": false,
      "t": 241563.38770416888,
      "d": 60.45078541667317,
      "v": 60
    },
    {
      "midi": 62,
      "hit": false,
      "t": 241582.8549062522,
      "d": 44.05735208335682,
      "v": 64
    },
    {
      "midi": 60,
      "hit": false,
      "t": 241613.59259375223,
      "d": 56.35242708332953,
      "v": 70
    },
    {
      "midi": 59,
      "hit": false,
      "t": 241645.35487083555,
      "d": 65.57373333335272,
      "v": 62
    },
    {
      "midi": 57,
      "hit": false,
      "t": 241695.5597604189,
      "d": 56.352427083358634,
      "v": 62
    },
    {
      "midi": 55,
      "hit": false,
      "t": 241736.54334375224,
      "d": 51.229479166679084,
      "v": 61
    },
    {
      "midi": 53,
      "hit": false,
      "t": 241768.3056208356,
      "d": 1044.056785416673,
      "v": 60
    },
    {
      "midi": 59,
      "hit": false,
      "t": 242946.58364166893,
      "d": 285.8604937500495,
      "v": 102
    },
    {
      "midi": 67,
      "hit": false,
      "t": 242946.58364166893,
      "d": 285.8604937500495,
      "v": 102
    },
    {
      "midi": 64,
      "hit": false,
      "t": 242950.68200000227,
      "d": 284.8359041667136,
      "v": 102
    },
    {
      "midi": 74,
      "hit": false,
      "t": 242951.7065895856,
      "d": 60.45078541667317,
      "v": 61
    },
    {
      "midi": 50,
      "hit": false,
      "t": 242951.7065895856,
      "d": 396.51616875006584,
      "v": 91
    },
    {
      "midi": 76,
      "hit": false,
      "t": 242996.78853125227,
      "d": 46.10653125002864,
      "v": 42
    },
    {
      "midi": 77,
      "hit": false,
      "t": 243027.5262187523,
      "d": 40.98358333334909,
      "v": 70
    },
    {
      "midi": 79,
      "hit": false,
      "t": 243058.2639062523,
      "d": 126.02451874999679,
      "v": 68
    },
    {
      "midi": 81,
      "hit": false,
      "t": 243125.8868187523,
      "d": 224.38511875004042,
      "v": 45
    },
    {
      "midi": 67,
      "hit": false,
      "t": 243334.9030937523,
      "d": 197.74578958336497,
      "v": 100
    },
    {
      "midi": 59,
      "hit": false,
      "t": 243340.02604166899,
      "d": 197.74578958336497,
      "v": 100
    },
    {
      "midi": 64,
      "hit": false,
      "t": 243345.14898958566,
      "d": 197.74578958336497,
      "v": 100
    },
    {
      "midi": 50,
      "hit": false,
      "t": 243443.50958958568,
      "d": 232.5818354166404,
      "v": 81
    },
    {
      "midi": 81,
      "hit": false,
      "t": 243458.8784333357,
      "d": 101.43436874999315,
      "v": 49
    },
    {
      "midi": 79,
      "hit": false,
      "t": 243540.84560000236,
      "d": 75.81962916665361,
      "v": 46
    },
    {
      "midi": 77,
      "hit": false,
      "t": 243601.296385419,
      "d": 76.84421874998952,
      "v": 52
    },
    {
      "midi": 76,
      "hit": false,
      "t": 243658.67340208567,
      "d": 84.01634583331179,
      "v": 48
    },
    {
      "midi": 50,
      "hit": false,
      "t": 243684.28814166898,
      "d": 198.77037916664267,
      "v": 91
    },
    {
      "midi": 59,
      "hit": false,
      "t": 243684.28814166898,
      "d": 239.75396249996265,
      "v": 99
    },
    {
      "midi": 64,
      "hit": false,
      "t": 243684.28814166898,
      "d": 239.75396249996265,
      "v": 99
    },
    {
      "midi": 67,
      "hit": false,
      "t": 243689.41108958566,
      "d": 234.6310145832831,
      "v": 99
    },
    {
      "midi": 74,
      "hit": false,
      "t": 243720.14877708565,
      "d": 63.5245541666518,
      "v": 37
    },
    {
      "midi": 59,
      "hit": false,
      "t": 243934.28800000227,
      "d": 126.02451874999679,
      "v": 99
    },
    {
      "midi": 64,
      "hit": false,
      "t": 243934.28800000227,
      "d": 126.02451874999679,
      "v": 99
    },
    {
      "midi": 67,
      "hit": false,
      "t": 243934.28800000227,
      "d": 126.02451874999679,
      "v": 99
    },
    {
      "midi": 38,
      "hit": false,
      "t": 243934.28800000227,
      "d": 407.78665416664444,
      "v": 90
    },
    {
      "midi": 74,
      "hit": false,
      "t": 243945.55848541894,
      "d": 80.94257708333316,
      "v": 46
    },
    {
      "midi": 76,
      "hit": false,
      "t": 244001.91091250227,
      "d": 80.94257708333316,
      "v": 20
    },
    {
      "midi": 77,
      "hit": false,
      "t": 244067.4846458356,
      "d": 54.30324791665771,
      "v": 46
    },
    {
      "midi": 62,
      "hit": false,
      "t": 244078.75513125226,
      "d": 314.54900208333856,
      "v": 99
    },
    {
      "midi": 65,
      "hit": false,
      "t": 244078.75513125226,
      "d": 314.54900208333856,
      "v": 99
    },
    {
      "midi": 69,
      "hit": false,
      "t": 244078.75513125226,
      "d": 314.54900208333856,
      "v": 99
    },
    {
      "midi": 79,
      "hit": false,
      "t": 244104.3698708356,
      "d": 55.32783749999362,
      "v": 59
    },
    {
      "midi": 81,
      "hit": false,
      "t": 244144.32886458558,
      "d": 197.74578958333586,
      "v": 62
    },
    {
      "midi": 88,
      "hit": false,
      "t": 244390.2303645856,
      "d": 56.35242708338774,
      "v": 59
    },
    {
      "midi": 62,
      "hit": false,
      "t": 244420.9680520856,
      "d": 177.25399791673408,
      "v": 94
    },
    {
      "midi": 69,
      "hit": false,
      "t": 244426.09100000228,
      "d": 177.25399791673408,
      "v": 94
    },
    {
      "midi": 65,
      "hit": false,
      "t": 244427.11558958562,
      "d": 178.27858750007,
      "v": 94
    },
    {
      "midi": 86,
      "hit": false,
      "t": 244431.21394791896,
      "d": 44.05735208335682,
      "v": 64
    },
    {
      "midi": 84,
      "hit": false,
      "t": 244461.95163541898,
      "d": 56.35242708332953,
      "v": 70
    },
    {
      "midi": 83,
      "hit": false,
      "t": 244493.7139125023,
      "d": 65.57373333335272,
      "v": 62
    },
    {
      "midi": 81,
      "hit": false,
      "t": 244543.91880208565,
      "d": 56.352427083358634,
      "v": 62
    },
    {
      "midi": 79,
      "hit": false,
      "t": 244584.902385419,
      "d": 51.229479166679084,
      "v": 61
    },
    {
      "midi": 77,
      "hit": false,
      "t": 244616.66466250236,
      "d": 60.45078541664407,
      "v": 60
    },
    {
      "midi": 76,
      "hit": false,
      "t": 244657.64824583568,
      "d": 58.40160625000135,
      "v": 61
    },
    {
      "midi": 74,
      "hit": false,
      "t": 244702.73018750234,
      "d": 182.37694583335542,
      "v": 58
    },
    {
      "midi": 83,
      "hit": false,
      "t": 244780.59899583567,
      "d": 65.57373333335272,
      "v": 62
    },
    {
      "midi": 81,
      "hit": false,
      "t": 244830.803885419,
      "d": 56.352427083358634,
      "v": 62
    },
    {
      "midi": 79,
      "hit": false,
      "t": 244871.78746875236,
      "d": 51.229479166679084,
      "v": 61
    },
    {
      "midi": 77,
      "hit": false,
      "t": 244903.5497458357,
      "d": 60.45078541664407,
      "v": 60
    },
    {
      "midi": 76,
      "hit": false,
      "t": 244944.53332916903,
      "d": 58.40160625000135,
      "v": 61
    },
    {
      "midi": 74,
      "hit": false,
      "t": 244989.6152708357,
      "d": 674.1799458333699,
      "v": 58
    },
    {
      "midi": 72,
      "hit": false,
      "t": 245026.5004958357,
      "d": 65.57373333335272,
      "v": 62
    },
    {
      "midi": 70,
      "hit": false,
      "t": 245076.70538541905,
      "d": 56.352427083358634,
      "v": 62
    },
    {
      "midi": 69,
      "hit": false,
      "t": 245117.6889687524,
      "d": 51.229479166679084,
      "v": 61
    },
    {
      "midi": 67,
      "hit": false,
      "t": 245149.45124583575,
      "d": 60.45078541664407,
      "v": 60
    },
    {
      "midi": 64,
      "hit": false,
      "t": 245190.43482916907,
      "d": 58.40160625000135,
      "v": 61
    },
    {
      "midi": 62,
      "hit": false,
      "t": 245235.51677083573,
      "d": 663.9340500000108,
      "v": 58
    },
    {
      "midi": 62,
      "hit": false,
      "t": 245902.52458958575,
      "d": 7.172127083322266,
      "v": 88
    },
    {
      "midi": 38,
      "hit": false,
      "t": 245902.52458958575,
      "d": 45.081941666663624,
      "v": 91
    },
    {
      "midi": 50,
      "hit": false,
      "t": 245902.52458958575,
      "d": 45.081941666663624,
      "v": 91
    },
    {
      "midi": 65,
      "hit": false,
      "t": 245902.52458958575,
      "d": 437.4997520833276,
      "v": 88
    },
    {
      "midi": 69,
      "hit": false,
      "t": 245902.52458958575,
      "d": 437.4997520833276,
      "v": 88
    },
    {
      "midi": 38,
      "hit": false,
      "t": 246039.8195937524,
      "d": 289.95885208333493,
      "v": 91
    },
    {
      "midi": 50,
      "hit": false,
      "t": 246039.8195937524,
      "d": 289.95885208333493,
      "v": 91
    },
    {
      "midi": 36,
      "hit": false,
      "t": 246394.32758958574,
      "d": 48.155710416671354,
      "v": 91
    },
    {
      "midi": 48,
      "hit": false,
      "t": 246394.32758958574,
      "d": 48.155710416671354,
      "v": 91
    },
    {
      "midi": 62,
      "hit": false,
      "t": 246394.32758958574,
      "d": 437.4997520833276,
      "v": 74
    },
    {
      "midi": 65,
      "hit": false,
      "t": 246394.32758958574,
      "d": 437.4997520833276,
      "v": 74
    },
    {
      "midi": 69,
      "hit": false,
      "t": 246394.32758958574,
      "d": 437.4997520833276,
      "v": 74
    },
    {
      "midi": 36,
      "hit": false,
      "t": 246541.86848958573,
      "d": 266.3932916666672,
      "v": 88
    },
    {
      "midi": 48,
      "hit": false,
      "t": 246541.86848958573,
      "d": 266.3932916666672,
      "v": 88
    },
    {
      "midi": 67,
      "hit": false,
      "t": 246644.32744791688,
      "d": 1232.5812687499856,
      "v": 1
    },
    {
      "midi": 33,
      "hit": false,
      "t": 246879.98305208574,
      "d": 61.47537499997998,
      "v": 91
    },
    {
      "midi": 45,
      "hit": false,
      "t": 246879.98305208574,
      "d": 61.47537499997998,
      "v": 91
    },
    {
      "midi": 62,
      "hit": false,
      "t": 246886.13058958572,
      "d": 437.4997520833276,
      "v": 88
    },
    {
      "midi": 65,
      "hit": false,
      "t": 246886.13058958572,
      "d": 437.4997520833276,
      "v": 88
    },
    {
      "midi": 69,
      "hit": false,
      "t": 246886.13058958572,
      "d": 437.4997520833276,
      "v": 88
    },
    {
      "midi": 33,
      "hit": false,
      "t": 247029.57313125237,
      "d": 288.934262499999,
      "v": 91
    },
    {
      "midi": 45,
      "hit": false,
      "t": 247029.57313125237,
      "d": 288.934262499999,
      "v": 91
    },
    {
      "midi": 31,
      "hit": false,
      "t": 247371.78605208572,
      "d": 102.45895833332906,
      "v": 92
    },
    {
      "midi": 43,
      "hit": false,
      "t": 247371.78605208572,
      "d": 102.45895833332906,
      "v": 92
    },
    {
      "midi": 62,
      "hit": false,
      "t": 247377.9335895857,
      "d": 437.4997520833276,
      "v": 74
    },
    {
      "midi": 65,
      "hit": false,
      "t": 247377.9335895857,
      "d": 437.4997520833276,
      "v": 74
    },
    {
      "midi": 69,
      "hit": false,
      "t": 247377.9335895857,
      "d": 437.4997520833276,
      "v": 74
    },
    {
      "midi": 29,
      "hit": false,
      "t": 247622.81050000238,
      "d": 100.40977916665724,
      "v": 95
    },
    {
      "midi": 41,
      "hit": false,
      "t": 247622.81050000238,
      "d": 100.40977916665724,
      "v": 95
    },
    {
      "midi": 64,
      "hit": false,
      "t": 247878.95789583353,
      "d": 243.8523208333354,
      "v": 1
    },
    {
      "midi": 72,
      "hit": false,
      "t": 247878.95789583353,
      "d": 243.8523208333354,
      "v": 1
    },
    {
      "midi": 36,
      "hit": false,
      "t": 248109.4905520857,
      "d": 235.65560416664812,
      "v": 90
    },
    {
      "midi": 62,
      "hit": false,
      "t": 248119.73644791904,
      "d": 133.19664583331905,
      "v": 99
    },
    {
      "midi": 65,
      "hit": false,
      "t": 248119.73644791904,
      "d": 133.19664583331905,
      "v": 99
    },
    {
      "midi": 69,
      "hit": false,
      "t": 248119.73644791904,
      "d": 133.19664583331905,
      "v": 99
    },
    {
      "midi": 62,
      "hit": false,
      "t": 248124.85939583354,
      "d": 2213.1135000000068,
      "v": 1
    },
    {
      "midi": 69,
      "hit": false,
      "t": 248124.85939583354,
      "d": 2213.1135000000068,
      "v": 1
    },
    {
      "midi": 69,
      "hit": false,
      "t": 248356.41664166903,
      "d": 460.04072291668854,
      "v": 102
    },
    {
      "midi": 62,
      "hit": false,
      "t": 248360.51500000237,
      "d": 459.0161333333526,
      "v": 102
    },
    {
      "midi": 65,
      "hit": false,
      "t": 248360.51500000237,
      "d": 459.0161333333526,
      "v": 102
    },
    {
      "midi": 38,
      "hit": false,
      "t": 248361.5395895857,
      "d": 203.89332708332222,
      "v": 90
    },
    {
      "midi": 36,
      "hit": false,
      "t": 248601.2935520857,
      "d": 105.5327270833368,
      "v": 91
    },
    {
      "midi": 34,
      "hit": false,
      "t": 248847.19505208574,
      "d": 464.1390812500322,
      "v": 90
    },
    {
      "midi": 62,
      "hit": false,
      "t": 248852.31800000241,
      "d": 459.0161333333526,
      "v": 102
    },
    {
      "midi": 65,
      "hit": false,
      "t": 248857.4409479191,
      "d": 459.0161333333526,
      "v": 102
    },
    {
      "midi": 69,
      "hit": false,
      "t": 248857.4409479191,
      "d": 459.0161333333526,
      "v": 102
    },
    {
      "midi": 62,
      "hit": false,
      "t": 249340.02264166911,
      "d": 460.04072291668854,
      "v": 92
    },
    {
      "midi": 65,
      "hit": false,
      "t": 249340.02264166911,
      "d": 460.04072291668854,
      "v": 92
    },
    {
      "midi": 69,
      "hit": false,
      "t": 249344.12100000246,
      "d": 459.0161333333526,
      "v": 92
    },
    {
      "midi": 33,
      "hit": false,
      "t": 249345.1455895858,
      "d": 465.163670833339,
      "v": 92
    },
    {
      "midi": 31,
      "hit": false,
      "t": 249830.8010520858,
      "d": 409.83583333340357,
      "v": 90
    },
    {
      "midi": 62,
      "hit": false,
      "t": 249835.92400000247,
      "d": 251.02444791668677,
      "v": 99
    },
    {
      "midi": 65,
      "hit": false,
      "t": 249836.9485895858,
      "d": 253.0736270833586,
      "v": 99
    },
    {
      "midi": 58,
      "hit": false,
      "t": 249841.04694791915,
      "d": 251.02444791668677,
      "v": 99
    },
    {
      "midi": 58,
      "hit": false,
      "t": 250220.1450937525,
      "d": 177.25399791667587,
      "v": 94
    },
    {
      "midi": 65,
      "hit": false,
      "t": 250225.2680416692,
      "d": 177.25399791667587,
      "v": 94
    },
    {
      "midi": 62,
      "hit": false,
      "t": 250226.29263125252,
      "d": 178.27858750001178,
      "v": 94
    },
    {
      "midi": 62,
      "hit": false,
      "t": 250338.99748541688,
      "d": 485.655462499999,
      "v": 1
    },
    {
      "midi": 72,
      "hit": false,
      "t": 250338.99748541688,
      "d": 485.655462499999,
      "v": 1
    },
    {
      "midi": 65,
      "hit": false,
      "t": 250574.65308958586,
      "d": 91.18847291666316,
      "v": 102
    },
    {
      "midi": 67,
      "hit": false,
      "t": 250815.4316416692,
      "d": 285.8604937500204,
      "v": 102
    },
    {
      "midi": 60,
      "hit": false,
      "t": 250820.55458958587,
      "d": 285.8604937500204,
      "v": 102
    },
    {
      "midi": 64,
      "hit": false,
      "t": 250820.55458958587,
      "d": 285.8604937500204,
      "v": 102
    },
    {
      "midi": 33,
      "hit": false,
      "t": 250824.6529479192,
      "d": 394.4669895833649,
      "v": 91
    },
    {
      "midi": 64,
      "hit": false,
      "t": 250825.67753750022,
      "d": 1228.482910416671,
      "v": 1
    },
    {
      "midi": 72,
      "hit": false,
      "t": 250825.67753750022,
      "d": 1228.482910416671,
      "v": 1
    },
    {
      "midi": 67,
      "hit": false,
      "t": 251203.75109375257,
      "d": 197.74578958333586,
      "v": 100
    },
    {
      "midi": 60,
      "hit": false,
      "t": 251204.7756833359,
      "d": 198.77037916667177,
      "v": 100
    },
    {
      "midi": 64,
      "hit": false,
      "t": 251208.87404166925,
      "d": 197.74578958333586,
      "v": 100
    },
    {
      "midi": 33,
      "hit": false,
      "t": 251312.3575895859,
      "d": 237.70478333334904,
      "v": 81
    },
    {
      "midi": 64,
      "hit": false,
      "t": 251553.13614166927,
      "d": 253.0736270833586,
      "v": 99
    },
    {
      "midi": 67,
      "hit": false,
      "t": 251553.13614166927,
      "d": 253.0736270833586,
      "v": 99
    },
    {
      "midi": 60,
      "hit": false,
      "t": 251558.25908958595,
      "d": 253.0736270833586,
      "v": 99
    },
    {
      "midi": 36,
      "hit": false,
      "t": 251562.3574479193,
      "d": 420.08172916667536,
      "v": 91
    },
    {
      "midi": 65,
      "hit": false,
      "t": 252044.9391416693,
      "d": 135.24582500001998,
      "v": 99
    },
    {
      "midi": 69,
      "hit": false,
      "t": 252044.9391416693,
      "d": 135.24582500001998,
      "v": 99
    },
    {
      "midi": 62,
      "hit": false,
      "t": 252049.03750000265,
      "d": 133.19664583334816,
      "v": 99
    },
    {
      "midi": 36,
      "hit": false,
      "t": 252050.062089586,
      "d": 237.70478333334904,
      "v": 90
    },
    {
      "midi": 65,
      "hit": false,
      "t": 252055.18503750023,
      "d": 249.99985833332175,
      "v": 1
    },
    {
      "midi": 72,
      "hit": false,
      "t": 252055.18503750023,
      "d": 249.99985833332175,
      "v": 1
    },
    {
      "midi": 65,
      "hit": false,
      "t": 252290.84064166935,
      "d": 460.04072291671764,
      "v": 102
    },
    {
      "midi": 69,
      "hit": false,
      "t": 252290.84064166935,
      "d": 460.04072291671764,
      "v": 102
    },
    {
      "midi": 62,
      "hit": false,
      "t": 252294.9390000027,
      "d": 459.01613333338173,
      "v": 102
    },
    {
      "midi": 38,
      "hit": false,
      "t": 252300.06194791937,
      "d": 79.91798749999725,
      "v": 90
    },
    {
      "midi": 62,
      "hit": false,
      "t": 252306.20948541688,
      "d": 485.655462499999,
      "v": 1
    },
    {
      "midi": 74,
      "hit": false,
      "t": 252306.20948541688,
      "d": 485.655462499999,
      "v": 1
    },
    {
      "midi": 36,
      "hit": false,
      "t": 252535.71755208605,
      "d": 105.5327270833368,
      "v": 91
    },
    {
      "midi": 69,
      "hit": false,
      "t": 252781.61905208608,
      "d": 459.0161333333526,
      "v": 102
    },
    {
      "midi": 65,
      "hit": false,
      "t": 252786.74200000276,
      "d": 459.0161333333526,
      "v": 102
    },
    {
      "midi": 62,
      "hit": false,
      "t": 252791.86494791944,
      "d": 459.0161333333526,
      "v": 102
    },
    {
      "midi": 34,
      "hit": false,
      "t": 252791.86494791944,
      "d": 464.1390812500322,
      "v": 90
    },
    {
      "midi": 62,
      "hit": false,
      "t": 252792.88953750022,
      "d": 495.901358333329,
      "v": 1
    },
    {
      "midi": 67,
      "hit": false,
      "t": 252792.88953750022,
      "d": 495.901358333329,
      "v": 1
    },
    {
      "midi": 65,
      "hit": false,
      "t": 253273.42205208613,
      "d": 459.0161333333235,
      "v": 92
    },
    {
      "midi": 62,
      "hit": false,
      "t": 253274.44664166946,
      "d": 460.04072291665943,
      "v": 92
    },
    {
      "midi": 69,
      "hit": false,
      "t": 253283.66794791946,
      "d": 459.0161333333235,
      "v": 92
    },
    {
      "midi": 33,
      "hit": false,
      "t": 253283.66794791946,
      "d": 464.1390812500031,
      "v": 92
    },
    {
      "midi": 65,
      "hit": false,
      "t": 253289.81548541688,
      "d": 982.5814104166639,
      "v": 1
    },
    {
      "midi": 69,
      "hit": false,
      "t": 253289.81548541688,
      "d": 982.5814104166639,
      "v": 1
    },
    {
      "midi": 31,
      "hit": false,
      "t": 253765.2250520861,
      "d": 409.83583333334536,
      "v": 90
    },
    {
      "midi": 58,
      "hit": false,
      "t": 253770.3480000028,
      "d": 251.02444791665766,
      "v": 99
    },
    {
      "midi": 62,
      "hit": false,
      "t": 253770.3480000028,
      "d": 251.02444791665766,
      "v": 99
    },
    {
      "midi": 65,
      "hit": false,
      "t": 253771.37258958613,
      "d": 253.07362708332948,
      "v": 99
    },
    {
      "midi": 62,
      "hit": false,
      "t": 254155.59368333613,
      "d": 178.27858749998268,
      "v": 94
    },
    {
      "midi": 58,
      "hit": false,
      "t": 254164.81498958613,
      "d": 177.25399791664677,
      "v": 94
    },
    {
      "midi": 65,
      "hit": false,
      "t": 254164.81498958613,
      "d": 177.25399791664677,
      "v": 94
    },
    {
      "midi": 33,
      "hit": false,
      "t": 254258.05264166946,
      "d": 434.4259833332908,
      "v": 88
    },
    {
      "midi": 62,
      "hit": false,
      "t": 254273.42148541688,
      "d": 483.60628333332716,
      "v": 1
    },
    {
      "midi": 72,
      "hit": false,
      "t": 254273.42148541688,
      "d": 483.60628333332716,
      "v": 1
    },
    {
      "midi": 65,
      "hit": false,
      "t": 254513.17544791944,
      "d": 90.16388333332725,
      "v": 102
    },
    {
      "midi": 33,
      "hit": false,
      "t": 254749.85564166942,
      "d": 396.51616875006584,
      "v": 91
    },
    {
      "midi": 64,
      "hit": false,
      "t": 254754.9785895861,
      "d": 285.8604937500204,
      "v": 102
    },
    {
      "midi": 67,
      "hit": false,
      "t": 254754.9785895861,
      "d": 285.8604937500204,
      "v": 102
    },
    {
      "midi": 64,
      "hit": false,
      "t": 254759.07694791688,
      "d": 1232.5812687500147,
      "v": 1
    },
    {
      "midi": 72,
      "hit": false,
      "t": 254759.07694791688,
      "d": 1232.5812687500147,
      "v": 1
    },
    {
      "midi": 60,
      "hit": false,
      "t": 254759.07694791944,
      "d": 284.8359041666845,
      "v": 102
    },
    {
      "midi": 67,
      "hit": false,
      "t": 255139.19968333613,
      "d": 198.77037916667177,
      "v": 100
    },
    {
      "midi": 60,
      "hit": false,
      "t": 255144.3226312528,
      "d": 198.77037916667177,
      "v": 100
    },
    {
      "midi": 64,
      "hit": false,
      "t": 255144.3226312528,
      "d": 198.77037916667177,
      "v": 100
    },
    {
      "midi": 33,
      "hit": false,
      "t": 255250.8799479195,
      "d": 225.40970833331812,
      "v": 81
    },
    {
      "midi": 36,
      "hit": false,
      "t": 255486.53555208613,
      "d": 420.08172916670446,
      "v": 91
    },
    {
      "midi": 64,
      "hit": false,
      "t": 255487.56014166947,
      "d": 253.0736270833586,
      "v": 99
    },
    {
      "midi": 60,
      "hit": false,
      "t": 255492.68308958615,
      "d": 253.0736270833586,
      "v": 99
    },
    {
      "midi": 67,
      "hit": false,
      "t": 255492.68308958615,
      "d": 253.0736270833586,
      "v": 99
    },
    {
      "midi": 36,
      "hit": false,
      "t": 255978.33855208618,
      "d": 235.65560416664812,
      "v": 90
    },
    {
      "midi": 62,
      "hit": false,
      "t": 255988.5844479195,
      "d": 133.19664583331905,
      "v": 99
    },
    {
      "midi": 65,
      "hit": false,
      "t": 255988.5844479195,
      "d": 133.19664583331905,
      "v": 99
    },
    {
      "midi": 69,
      "hit": false,
      "t": 255988.5844479195,
      "d": 133.19664583331905,
      "v": 99
    },
    {
      "midi": 62,
      "hit": false,
      "t": 255993.70739583357,
      "d": 971.310924999998,
      "v": 1
    },
    {
      "midi": 69,
      "hit": false,
      "t": 255993.70739583357,
      "d": 971.310924999998,
      "v": 1
    },
    {
      "midi": 69,
      "hit": false,
      "t": 256225.2646416695,
      "d": 460.04072291668854,
      "v": 102
    },
    {
      "midi": 62,
      "hit": false,
      "t": 256229.36300000284,
      "d": 459.0161333333526,
      "v": 102
    },
    {
      "midi": 65,
      "hit": false,
      "t": 256229.36300000284,
      "d": 459.0161333333526,
      "v": 102
    },
    {
      "midi": 38,
      "hit": false,
      "t": 256230.38758958617,
      "d": 203.89332708332222,
      "v": 90
    },
    {
      "midi": 36,
      "hit": false,
      "t": 256470.14155208616,
      "d": 105.5327270833368,
      "v": 91
    },
    {
      "midi": 34,
      "hit": false,
      "t": 256716.0430520862,
      "d": 464.1390812500322,
      "v": 90
    },
    {
      "midi": 62,
      "hit": false,
      "t": 256721.16600000288,
      "d": 459.0161333333526,
      "v": 102
    },
    {
      "midi": 65,
      "hit": false,
      "t": 256726.28894791956,
      "d": 459.0161333333526,
      "v": 102
    },
    {
      "midi": 69,
      "hit": false,
      "t": 256726.28894791956,
      "d": 459.0161333333526,
      "v": 102
    },
    {
      "midi": 62,
      "hit": false,
      "t": 257208.87064166958,
      "d": 460.04072291668854,
      "v": 92
    },
    {
      "midi": 65,
      "hit": false,
      "t": 257208.87064166958,
      "d": 460.04072291668854,
      "v": 92
    },
    {
      "midi": 69,
      "hit": false,
      "t": 257212.96900000292,
      "d": 459.0161333333526,
      "v": 92
    },
    {
      "midi": 33,
      "hit": false,
      "t": 257213.99358958626,
      "d": 465.163670833339,
      "v": 92
    },
    {
      "midi": 31,
      "hit": false,
      "t": 257699.64905208626,
      "d": 409.83583333340357,
      "v": 90
    },
    {
      "midi": 62,
      "hit": false,
      "t": 257704.77200000294,
      "d": 251.02444791668677,
      "v": 99
    },
    {
      "midi": 65,
      "hit": false,
      "t": 257705.79658958627,
      "d": 253.0736270833586,
      "v": 99
    },
    {
      "midi": 58,
      "hit": false,
      "t": 257709.89494791962,
      "d": 251.02444791668677,
      "v": 99
    },
    {
      "midi": 58,
      "hit": false,
      "t": 258088.99309375297,
      "d": 177.25399791667587,
      "v": 94
    },
    {
      "midi": 65,
      "hit": false,
      "t": 258094.11604166965,
      "d": 177.25399791667587,
      "v": 94
    },
    {
      "midi": 62,
      "hit": false,
      "t": 258095.140631253,
      "d": 178.27858750001178,
      "v": 94
    },
    {
      "midi": 65,
      "hit": false,
      "t": 258443.50108958632,
      "d": 91.18847291666316,
      "v": 102
    },
    {
      "midi": 67,
      "hit": false,
      "t": 258684.27964166965,
      "d": 285.8604937500204,
      "v": 102
    },
    {
      "midi": 60,
      "hit": false,
      "t": 258689.40258958633,
      "d": 285.8604937500204,
      "v": 102
    },
    {
      "midi": 64,
      "hit": false,
      "t": 258689.40258958633,
      "d": 285.8604937500204,
      "v": 102
    },
    {
      "midi": 33,
      "hit": false,
      "t": 258693.50094791967,
      "d": 394.4669895833649,
      "v": 91
    },
    {
      "midi": 67,
      "hit": false,
      "t": 259072.59909375303,
      "d": 197.74578958333586,
      "v": 100
    },
    {
      "midi": 60,
      "hit": false,
      "t": 259073.62368333637,
      "d": 198.77037916667177,
      "v": 100
    },
    {
      "midi": 64,
      "hit": false,
      "t": 259077.7220416697,
      "d": 197.74578958333586,
      "v": 100
    },
    {
      "midi": 33,
      "hit": false,
      "t": 259181.20558958637,
      "d": 237.70478333334904,
      "v": 81
    },
    {
      "midi": 64,
      "hit": false,
      "t": 259421.98414166973,
      "d": 253.0736270833586,
      "v": 99
    },
    {
      "midi": 67,
      "hit": false,
      "t": 259421.98414166973,
      "d": 253.0736270833586,
      "v": 99
    },
    {
      "midi": 60,
      "hit": false,
      "t": 259427.1070895864,
      "d": 253.0736270833586,
      "v": 99
    },
    {
      "midi": 36,
      "hit": false,
      "t": 259431.20544791975,
      "d": 420.08172916667536,
      "v": 91
    },
    {
      "midi": 65,
      "hit": false,
      "t": 259913.78714166977,
      "d": 135.24582500001998,
      "v": 99
    },
    {
      "midi": 69,
      "hit": false,
      "t": 259913.78714166977,
      "d": 135.24582500001998,
      "v": 99
    },
    {
      "midi": 62,
      "hit": false,
      "t": 259917.88550000312,
      "d": 133.19664583334816,
      "v": 99
    },
    {
      "midi": 36,
      "hit": false,
      "t": 259918.91008958645,
      "d": 237.70478333334904,
      "v": 90
    },
    {
      "midi": 65,
      "hit": false,
      "t": 260159.6886416698,
      "d": 460.04072291671764,
      "v": 102
    },
    {
      "midi": 69,
      "hit": false,
      "t": 260159.6886416698,
      "d": 460.04072291671764,
      "v": 102
    },
    {
      "midi": 62,
      "hit": false,
      "t": 260163.78700000315,
      "d": 459.01613333338173,
      "v": 102
    },
    {
      "midi": 38,
      "hit": false,
      "t": 260168.90994791983,
      "d": 79.91798749999725,
      "v": 90
    },
    {
      "midi": 36,
      "hit": false,
      "t": 260404.5655520865,
      "d": 105.5327270833368,
      "v": 91
    },
    {
      "midi": 69,
      "hit": false,
      "t": 260650.46705208655,
      "d": 459.0161333333526,
      "v": 102
    },
    {
      "midi": 65,
      "hit": false,
      "t": 260655.59000000323,
      "d": 459.0161333333526,
      "v": 102
    },
    {
      "midi": 62,
      "hit": false,
      "t": 260660.7129479199,
      "d": 459.0161333333526,
      "v": 102
    },
    {
      "midi": 34,
      "hit": false,
      "t": 260660.7129479199,
      "d": 464.1390812500322,
      "v": 90
    },
    {
      "midi": 65,
      "hit": false,
      "t": 261142.2700520866,
      "d": 459.0161333333235,
      "v": 92
    },
    {
      "midi": 62,
      "hit": false,
      "t": 261143.29464166993,
      "d": 460.04072291665943,
      "v": 92
    },
    {
      "midi": 69,
      "hit": false,
      "t": 261152.51594791992,
      "d": 459.0161333333235,
      "v": 92
    },
    {
      "midi": 33,
      "hit": false,
      "t": 261152.51594791992,
      "d": 464.1390812500031,
      "v": 92
    },
    {
      "midi": 31,
      "hit": false,
      "t": 261634.07305208658,
      "d": 409.83583333334536,
      "v": 90
    },
    {
      "midi": 58,
      "hit": false,
      "t": 261639.19600000326,
      "d": 251.02444791665766,
      "v": 99
    },
    {
      "midi": 62,
      "hit": false,
      "t": 261639.19600000326,
      "d": 251.02444791665766,
      "v": 99
    },
    {
      "midi": 65,
      "hit": false,
      "t": 261640.2205895866,
      "d": 253.07362708332948,
      "v": 99
    },
    {
      "midi": 62,
      "hit": false,
      "t": 262024.4416833366,
      "d": 178.27858750001178,
      "v": 94
    },
    {
      "midi": 58,
      "hit": false,
      "t": 262033.6629895866,
      "d": 177.25399791670498,
      "v": 94
    },
    {
      "midi": 65,
      "hit": false,
      "t": 262033.6629895866,
      "d": 177.25399791670498,
      "v": 94
    },
    {
      "midi": 33,
      "hit": false,
      "t": 262126.90064166993,
      "d": 434.4259833333781,
      "v": 88
    },
    {
      "midi": 62,
      "hit": false,
      "t": 262142.2694854169,
      "d": 483.60628333335626,
      "v": 1
    },
    {
      "midi": 72,
      "hit": false,
      "t": 262142.2694854169,
      "d": 483.60628333335626,
      "v": 1
    },
    {
      "midi": 65,
      "hit": false,
      "t": 262382.02344792,
      "d": 90.16388333332725,
      "v": 102
    },
    {
      "midi": 33,
      "hit": false,
      "t": 262618.70364167,
      "d": 396.51616875006584,
      "v": 91
    },
    {
      "midi": 64,
      "hit": false,
      "t": 262623.8265895867,
      "d": 285.8604937500204,
      "v": 102
    },
    {
      "midi": 67,
      "hit": false,
      "t": 262623.8265895867,
      "d": 285.8604937500204,
      "v": 102
    },
    {
      "midi": 64,
      "hit": false,
      "t": 262627.92494791694,
      "d": 1232.5812687500147,
      "v": 1
    },
    {
      "midi": 72,
      "hit": false,
      "t": 262627.92494791694,
      "d": 1232.5812687500147,
      "v": 1
    },
    {
      "midi": 60,
      "hit": false,
      "t": 262627.92494792,
      "d": 284.8359041666845,
      "v": 102
    },
    {
      "midi": 67,
      "hit": false,
      "t": 263008.0476833367,
      "d": 198.77037916664267,
      "v": 100
    },
    {
      "midi": 60,
      "hit": false,
      "t": 263013.1706312534,
      "d": 198.77037916664267,
      "v": 100
    },
    {
      "midi": 64,
      "hit": false,
      "t": 263013.1706312534,
      "d": 198.77037916664267,
      "v": 100
    },
    {
      "midi": 33,
      "hit": false,
      "t": 263119.72794792004,
      "d": 225.40970833331812,
      "v": 81
    },
    {
      "midi": 36,
      "hit": false,
      "t": 263355.3835520867,
      "d": 420.08172916667536,
      "v": 91
    },
    {
      "midi": 64,
      "hit": false,
      "t": 263356.40814167005,
      "d": 253.07362708332948,
      "v": 99
    },
    {
      "midi": 60,
      "hit": false,
      "t": 263361.53108958673,
      "d": 253.07362708332948,
      "v": 99
    },
    {
      "midi": 67,
      "hit": false,
      "t": 263361.53108958673,
      "d": 253.07362708332948,
      "v": 99
    },
    {
      "midi": 36,
      "hit": false,
      "t": 263847.1865520867,
      "d": 235.65560416667722,
      "v": 90
    },
    {
      "midi": 62,
      "hit": false,
      "t": 263857.4324479201,
      "d": 133.19664583331905,
      "v": 99
    },
    {
      "midi": 65,
      "hit": false,
      "t": 263857.4324479201,
      "d": 133.19664583331905,
      "v": 99
    },
    {
      "midi": 69,
      "hit": false,
      "t": 263857.4324479201,
      "d": 133.19664583331905,
      "v": 99
    },
    {
      "midi": 62,
      "hit": false,
      "t": 263862.5553958336,
      "d": 2213.1134999999776,
      "v": 1
    },
    {
      "midi": 69,
      "hit": false,
      "t": 263862.5553958336,
      "d": 2213.1134999999776,
      "v": 1
    },
    {
      "midi": 69,
      "hit": false,
      "t": 264094.1126416701,
      "d": 460.0407229166012,
      "v": 102
    },
    {
      "midi": 62,
      "hit": false,
      "t": 264098.21100000344,
      "d": 459.0161333332653,
      "v": 102
    },
    {
      "midi": 65,
      "hit": false,
      "t": 264098.21100000344,
      "d": 459.0161333332653,
      "v": 102
    },
    {
      "midi": 38,
      "hit": false,
      "t": 264099.2355895868,
      "d": 203.89332708332222,
      "v": 90
    },
    {
      "midi": 36,
      "hit": false,
      "t": 264338.98955208674,
      "d": 105.53272708330769,
      "v": 91
    },
    {
      "midi": 34,
      "hit": false,
      "t": 264584.8910520867,
      "d": 464.1390812500031,
      "v": 90
    },
    {
      "midi": 62,
      "hit": false,
      "t": 264590.0140000034,
      "d": 459.0161333333235,
      "v": 102
    },
    {
      "midi": 65,
      "hit": false,
      "t": 264595.1369479201,
      "d": 459.0161333333235,
      "v": 102
    },
    {
      "midi": 69,
      "hit": false,
      "t": 264595.1369479201,
      "d": 459.0161333333235,
      "v": 102
    },
    {
      "midi": 62,
      "hit": false,
      "t": 265077.7186416701,
      "d": 460.04072291665943,
      "v": 92
    },
    {
      "midi": 65,
      "hit": false,
      "t": 265077.7186416701,
      "d": 460.04072291665943,
      "v": 92
    },
    {
      "midi": 69,
      "hit": false,
      "t": 265081.8170000034,
      "d": 459.0161333333235,
      "v": 92
    },
    {
      "midi": 33,
      "hit": false,
      "t": 265082.84158958675,
      "d": 465.163670833339,
      "v": 92
    },
    {
      "midi": 31,
      "hit": false,
      "t": 265568.49705208675,
      "d": 409.83583333331626,
      "v": 90
    },
    {
      "midi": 62,
      "hit": false,
      "t": 265573.62000000343,
      "d": 251.02444791665766,
      "v": 99
    },
    {
      "midi": 65,
      "hit": false,
      "t": 265574.64458958677,
      "d": 253.07362708332948,
      "v": 99
    },
    {
      "midi": 58,
      "hit": false,
      "t": 265578.7429479201,
      "d": 251.02444791665766,
      "v": 99
    },
    {
      "midi": 58,
      "hit": false,
      "t": 265957.8410937534,
      "d": 177.25399791664677,
      "v": 94
    },
    {
      "midi": 65,
      "hit": false,
      "t": 265962.9640416701,
      "d": 177.25399791664677,
      "v": 94
    },
    {
      "midi": 62,
      "hit": false,
      "t": 265963.9886312534,
      "d": 178.27858749998268,
      "v": 94
    },
    {
      "midi": 62,
      "hit": false,
      "t": 266076.69348541694,
      "d": 485.655462499999,
      "v": 1
    },
    {
      "midi": 72,
      "hit": false,
      "t": 266076.69348541694,
      "d": 485.655462499999,
      "v": 1
    },
    {
      "midi": 65,
      "hit": false,
      "t": 266312.34908958676,
      "d": 91.18847291666316,
      "v": 102
    },
    {
      "midi": 67,
      "hit": false,
      "t": 266553.1276416701,
      "d": 285.8604937500204,
      "v": 102
    },
    {
      "midi": 60,
      "hit": false,
      "t": 266558.2505895868,
      "d": 285.8604937500204,
      "v": 102
    },
    {
      "midi": 64,
      "hit": false,
      "t": 266558.2505895868,
      "d": 285.8604937500204,
      "v": 102
    },
    {
      "midi": 33,
      "hit": false,
      "t": 266562.34894792014,
      "d": 394.466989583394,
      "v": 91
    },
    {
      "midi": 64,
      "hit": false,
      "t": 266563.3735375003,
      "d": 1228.482910416671,
      "v": 1
    },
    {
      "midi": 72,
      "hit": false,
      "t": 266563.3735375003,
      "d": 1228.482910416671,
      "v": 1
    },
    {
      "midi": 67,
      "hit": false,
      "t": 266941.4470937535,
      "d": 197.74578958336497,
      "v": 100
    },
    {
      "midi": 60,
      "hit": false,
      "t": 266942.47168333683,
      "d": 198.77037916670088,
      "v": 100
    },
    {
      "midi": 64,
      "hit": false,
      "t": 266946.5700416702,
      "d": 197.74578958336497,
      "v": 100
    },
    {
      "midi": 33,
      "hit": false,
      "t": 267050.05358958687,
      "d": 237.70478333334904,
      "v": 81
    },
    {
      "midi": 64,
      "hit": false,
      "t": 267290.8321416702,
      "d": 253.07362708332948,
      "v": 99
    },
    {
      "midi": 67,
      "hit": false,
      "t": 267290.8321416702,
      "d": 253.07362708332948,
      "v": 99
    },
    {
      "midi": 60,
      "hit": false,
      "t": 267295.9550895869,
      "d": 253.07362708332948,
      "v": 99
    },
    {
      "midi": 36,
      "hit": false,
      "t": 267300.05344792025,
      "d": 420.08172916667536,
      "v": 91
    },
    {
      "midi": 65,
      "hit": false,
      "t": 267782.63514167024,
      "d": 135.24582499999087,
      "v": 99
    },
    {
      "midi": 69,
      "hit": false,
      "t": 267782.63514167024,
      "d": 135.24582499999087,
      "v": 99
    },
    {
      "midi": 62,
      "hit": false,
      "t": 267786.7335000036,
      "d": 133.19664583331905,
      "v": 99
    },
    {
      "midi": 36,
      "hit": false,
      "t": 267787.7580895869,
      "d": 237.70478333329083,
      "v": 90
    },
    {
      "midi": 65,
      "hit": false,
      "t": 267792.8810375003,
      "d": 249.99985833332175,
      "v": 1
    },
    {
      "midi": 72,
      "hit": false,
      "t": 267792.8810375003,
      "d": 249.99985833332175,
      "v": 1
    },
    {
      "midi": 65,
      "hit": false,
      "t": 268028.5366416702,
      "d": 460.04072291665943,
      "v": 102
    },
    {
      "midi": 69,
      "hit": false,
      "t": 268028.5366416702,
      "d": 460.04072291665943,
      "v": 102
    },
    {
      "midi": 62,
      "hit": false,
      "t": 268032.63500000356,
      "d": 459.0161333333235,
      "v": 102
    },
    {
      "midi": 38,
      "hit": false,
      "t": 268037.75794792024,
      "d": 79.91798750002636,
      "v": 90
    },
    {
      "midi": 62,
      "hit": false,
      "t": 268043.90548541694,
      "d": 485.655462499999,
      "v": 1
    },
    {
      "midi": 74,
      "hit": false,
      "t": 268043.90548541694,
      "d": 485.655462499999,
      "v": 1
    },
    {
      "midi": 36,
      "hit": false,
      "t": 268273.4135520869,
      "d": 105.53272708330769,
      "v": 91
    },
    {
      "midi": 69,
      "hit": false,
      "t": 268519.3150520869,
      "d": 459.01613333338173,
      "v": 102
    },
    {
      "midi": 65,
      "hit": false,
      "t": 268524.4380000036,
      "d": 459.01613333338173,
      "v": 102
    },
    {
      "midi": 62,
      "hit": false,
      "t": 268529.56094792025,
      "d": 459.01613333338173,
      "v": 102
    },
    {
      "midi": 34,
      "hit": false,
      "t": 268529.56094792025,
      "d": 464.1390812500613,
      "v": 90
    },
    {
      "midi": 62,
      "hit": false,
      "t": 268530.5855375003,
      "d": 495.9013583333581,
      "v": 1
    },
    {
      "midi": 67,
      "hit": false,
      "t": 268530.5855375003,
      "d": 495.9013583333581,
      "v": 1
    },
    {
      "midi": 65,
      "hit": false,
      "t": 269011.11805208697,
      "d": 459.01613333338173,
      "v": 92
    },
    {
      "midi": 62,
      "hit": false,
      "t": 269012.1426416703,
      "d": 460.04072291671764,
      "v": 92
    },
    {
      "midi": 69,
      "hit": false,
      "t": 269021.3639479203,
      "d": 459.01613333338173,
      "v": 92
    },
    {
      "midi": 33,
      "hit": false,
      "t": 269021.3639479203,
      "d": 464.1390812500613,
      "v": 92
    },
    {
      "midi": 65,
      "hit": false,
      "t": 269027.51148541697,
      "d": 982.581410416693,
      "v": 1
    },
    {
      "midi": 69,
      "hit": false,
      "t": 269027.51148541697,
      "d": 982.581410416693,
      "v": 1
    },
    {
      "midi": 31,
      "hit": false,
      "t": 269502.92105208704,
      "d": 409.83583333337447,
      "v": 90
    },
    {
      "midi": 58,
      "hit": false,
      "t": 269508.0440000037,
      "d": 251.02444791665766,
      "v": 99
    },
    {
      "midi": 62,
      "hit": false,
      "t": 269508.0440000037,
      "d": 251.02444791665766,
      "v": 99
    },
    {
      "midi": 65,
      "hit": false,
      "t": 269509.06858958706,
      "d": 253.07362708332948,
      "v": 99
    },
    {
      "midi": 62,
      "hit": false,
      "t": 269893.28968333703,
      "d": 178.27858750004089,
      "v": 94
    },
    {
      "midi": 58,
      "hit": false,
      "t": 269902.51098958706,
      "d": 177.25399791670498,
      "v": 94
    },
    {
      "midi": 65,
      "hit": false,
      "t": 269902.51098958706,
      "d": 177.25399791670498,
      "v": 94
    },
    {
      "midi": 33,
      "hit": false,
      "t": 269995.7486416704,
      "d": 434.4259833333781,
      "v": 88
    },
    {
      "midi": 62,
      "hit": false,
      "t": 270011.117485417,
      "d": 483.60628333332716,
      "v": 1
    },
    {
      "midi": 72,
      "hit": false,
      "t": 270011.117485417,
      "d": 483.60628333332716,
      "v": 1
    },
    {
      "midi": 65,
      "hit": false,
      "t": 270250.87144792045,
      "d": 90.16388333332725,
      "v": 102
    },
    {
      "midi": 33,
      "hit": false,
      "t": 270487.55164167046,
      "d": 396.51616875006584,
      "v": 91
    },
    {
      "midi": 64,
      "hit": false,
      "t": 270492.67458958714,
      "d": 285.8604937500204,
      "v": 102
    },
    {
      "midi": 67,
      "hit": false,
      "t": 270492.67458958714,
      "d": 285.8604937500204,
      "v": 102
    },
    {
      "midi": 64,
      "hit": false,
      "t": 270496.772947917,
      "d": 1232.5812687500147,
      "v": 1
    },
    {
      "midi": 72,
      "hit": false,
      "t": 270496.772947917,
      "d": 1232.5812687500147,
      "v": 1
    },
    {
      "midi": 60,
      "hit": false,
      "t": 270496.7729479205,
      "d": 284.8359041666845,
      "v": 102
    },
    {
      "midi": 67,
      "hit": false,
      "t": 270876.8956833372,
      "d": 198.77037916664267,
      "v": 100
    },
    {
      "midi": 60,
      "hit": false,
      "t": 270882.01863125386,
      "d": 198.77037916664267,
      "v": 100
    },
    {
      "midi": 64,
      "hit": false,
      "t": 270882.01863125386,
      "d": 198.77037916664267,
      "v": 100
    },
    {
      "midi": 33,
      "hit": false,
      "t": 270988.5759479205,
      "d": 225.40970833331812,
      "v": 81
    },
    {
      "midi": 36,
      "hit": false,
      "t": 271224.2315520872,
      "d": 420.08172916667536,
      "v": 91
    },
    {
      "midi": 64,
      "hit": false,
      "t": 271225.2561416705,
      "d": 253.07362708332948,
      "v": 99
    },
    {
      "midi": 60,
      "hit": false,
      "t": 271230.3790895872,
      "d": 253.07362708332948,
      "v": 99
    },
    {
      "midi": 67,
      "hit": false,
      "t": 271230.3790895872,
      "d": 253.07362708332948,
      "v": 99
    },
    {
      "midi": 36,
      "hit": false,
      "t": 271716.0345520872,
      "d": 235.65560416667722,
      "v": 90
    },
    {
      "midi": 62,
      "hit": false,
      "t": 271726.28044792055,
      "d": 133.19664583331905,
      "v": 99
    },
    {
      "midi": 65,
      "hit": false,
      "t": 271726.28044792055,
      "d": 133.19664583331905,
      "v": 99
    },
    {
      "midi": 69,
      "hit": false,
      "t": 271726.28044792055,
      "d": 133.19664583331905,
      "v": 99
    },
    {
      "midi": 62,
      "hit": false,
      "t": 271731.4033958337,
      "d": 725.4094250000198,
      "v": 1
    },
    {
      "midi": 69,
      "hit": false,
      "t": 271731.4033958337,
      "d": 725.4094250000198,
      "v": 1
    },
    {
      "midi": 69,
      "hit": false,
      "t": 271962.96064167056,
      "d": 460.0407229166012,
      "v": 102
    },
    {
      "midi": 62,
      "hit": false,
      "t": 271967.0590000039,
      "d": 459.0161333332653,
      "v": 102
    },
    {
      "midi": 65,
      "hit": false,
      "t": 271967.0590000039,
      "d": 459.0161333332653,
      "v": 102
    },
    {
      "midi": 38,
      "hit": false,
      "t": 271968.08358958724,
      "d": 203.89332708332222,
      "v": 90
    },
    {
      "midi": 36,
      "hit": false,
      "t": 272207.8375520872,
      "d": 105.53272708330769,
      "v": 91
    },
    {
      "midi": 34,
      "hit": false,
      "t": 272453.7390520872,
      "d": 464.1390812500031,
      "v": 90
    },
    {
      "midi": 62,
      "hit": false,
      "t": 272458.86200000386,
      "d": 459.0161333333235,
      "v": 102
    },
    {
      "midi": 65,
      "hit": false,
      "t": 272463.98494792054,
      "d": 459.0161333333235,
      "v": 102
    },
    {
      "midi": 69,
      "hit": false,
      "t": 272463.98494792054,
      "d": 459.0161333333235,
      "v": 102
    },
    {
      "midi": 62,
      "hit": false,
      "t": 272946.56664167054,
      "d": 460.04072291665943,
      "v": 92
    },
    {
      "midi": 65,
      "hit": false,
      "t": 272946.56664167054,
      "d": 460.04072291665943,
      "v": 92
    },
    {
      "midi": 69,
      "hit": false,
      "t": 272950.6650000039,
      "d": 459.0161333333235,
      "v": 92
    },
    {
      "midi": 33,
      "hit": false,
      "t": 272951.6895895872,
      "d": 465.163670833339,
      "v": 92
    },
    {
      "midi": 31,
      "hit": false,
      "t": 273437.3450520872,
      "d": 409.83583333331626,
      "v": 90
    },
    {
      "midi": 62,
      "hit": false,
      "t": 273442.4680000039,
      "d": 251.02444791665766,
      "v": 99
    },
    {
      "midi": 65,
      "hit": false,
      "t": 273443.49258958723,
      "d": 253.07362708332948,
      "v": 99
    },
    {
      "midi": 58,
      "hit": false,
      "t": 273447.5909479206,
      "d": 251.02444791665766,
      "v": 99
    },
    {
      "midi": 58,
      "hit": false,
      "t": 273826.68909375387,
      "d": 177.25399791664677,
      "v": 94
    },
    {
      "midi": 65,
      "hit": false,
      "t": 273831.81204167055,
      "d": 177.25399791664677,
      "v": 94
    },
    {
      "midi": 62,
      "hit": false,
      "t": 273832.8366312539,
      "d": 178.27858749998268,
      "v": 94
    },
    {
      "midi": 65,
      "hit": false,
      "t": 274181.1970895872,
      "d": 91.18847291666316,
      "v": 102
    },
    {
      "midi": 67,
      "hit": false,
      "t": 274421.9756416706,
      "d": 285.8604937500204,
      "v": 102
    },
    {
      "midi": 60,
      "hit": false,
      "t": 274427.09858958726,
      "d": 285.8604937500204,
      "v": 102
    },
    {
      "midi": 64,
      "hit": false,
      "t": 274427.09858958726,
      "d": 285.8604937500204,
      "v": 102
    },
    {
      "midi": 33,
      "hit": false,
      "t": 274431.1969479206,
      "d": 394.466989583394,
      "v": 91
    },
    {
      "midi": 67,
      "hit": false,
      "t": 274810.29509375396,
      "d": 197.74578958336497,
      "v": 100
    },
    {
      "midi": 60,
      "hit": false,
      "t": 274811.3196833373,
      "d": 198.77037916670088,
      "v": 100
    },
    {
      "midi": 64,
      "hit": false,
      "t": 274815.41804167064,
      "d": 197.74578958336497,
      "v": 100
    },
    {
      "midi": 33,
      "hit": false,
      "t": 274918.90158958733,
      "d": 237.70478333334904,
      "v": 81
    },
    {
      "midi": 64,
      "hit": false,
      "t": 275159.6801416707,
      "d": 253.07362708332948,
      "v": 99
    },
    {
      "midi": 67,
      "hit": false,
      "t": 275159.6801416707,
      "d": 253.07362708332948,
      "v": 99
    },
    {
      "midi": 60,
      "hit": false,
      "t": 275164.80308958737,
      "d": 253.07362708332948,
      "v": 99
    },
    {
      "midi": 36,
      "hit": false,
      "t": 275168.9014479207,
      "d": 420.08172916667536,
      "v": 91
    },
    {
      "midi": 65,
      "hit": false,
      "t": 275651.4831416707,
      "d": 135.24582499999087,
      "v": 99
    },
    {
      "midi": 69,
      "hit": false,
      "t": 275651.4831416707,
      "d": 135.24582499999087,
      "v": 99
    },
    {
      "midi": 62,
      "hit": false,
      "t": 275655.58150000405,
      "d": 133.19664583331905,
      "v": 99
    },
    {
      "midi": 36,
      "hit": false,
      "t": 275656.6060895874,
      "d": 237.70478333329083,
      "v": 90
    },
    {
      "midi": 65,
      "hit": false,
      "t": 275897.3846416707,
      "d": 460.04072291665943,
      "v": 102
    },
    {
      "midi": 69,
      "hit": false,
      "t": 275897.3846416707,
      "d": 460.04072291665943,
      "v": 102
    },
    {
      "midi": 62,
      "hit": false,
      "t": 275901.483000004,
      "d": 459.0161333333235,
      "v": 102
    },
    {
      "midi": 38,
      "hit": false,
      "t": 275906.6059479207,
      "d": 79.91798750002636,
      "v": 90
    },
    {
      "midi": 36,
      "hit": false,
      "t": 276142.2615520874,
      "d": 105.53272708330769,
      "v": 91
    },
    {
      "midi": 69,
      "hit": false,
      "t": 276388.16305208736,
      "d": 459.01613333338173,
      "v": 102
    },
    {
      "midi": 65,
      "hit": false,
      "t": 276393.28600000404,
      "d": 459.01613333338173,
      "v": 102
    },
    {
      "midi": 62,
      "hit": false,
      "t": 276398.4089479207,
      "d": 459.01613333338173,
      "v": 102
    },
    {
      "midi": 34,
      "hit": false,
      "t": 276398.4089479207,
      "d": 464.1390812500613,
      "v": 90
    },
    {
      "midi": 65,
      "hit": false,
      "t": 276879.96605208743,
      "d": 459.01613333338173,
      "v": 92
    },
    {
      "midi": 62,
      "hit": false,
      "t": 276880.99064167077,
      "d": 460.04072291671764,
      "v": 92
    },
    {
      "midi": 69,
      "hit": false,
      "t": 276890.2119479208,
      "d": 459.01613333338173,
      "v": 92
    },
    {
      "midi": 33,
      "hit": false,
      "t": 276890.2119479208,
      "d": 464.1390812500613,
      "v": 92
    },
    {
      "midi": 50,
      "hit": false,
      "t": 286229.3460000042,
      "d": 136.27041458326858,
      "v": 87
    },
    {
      "midi": 88,
      "hit": false,
      "t": 286254.96073958755,
      "d": 56.35242708330043,
      "v": 48
    },
    {
      "midi": 86,
      "hit": false,
      "t": 286295.94432292087,
      "d": 44.05735208326951,
      "v": 53
    },
    {
      "midi": 84,
      "hit": false,
      "t": 286326.68201042083,
      "d": 56.35242708330043,
      "v": 59
    },
    {
      "midi": 83,
      "hit": false,
      "t": 286358.4442875041,
      "d": 65.57373333332362,
      "v": 51
    },
    {
      "midi": 81,
      "hit": false,
      "t": 286408.64917708747,
      "d": 56.352427083358634,
      "v": 51
    },
    {
      "midi": 79,
      "hit": false,
      "t": 286449.6327604208,
      "d": 51.22947916673729,
      "v": 50
    },
    {
      "midi": 76,
      "hit": false,
      "t": 286459.87865625415,
      "d": 56.352427083358634,
      "v": 48
    },
    {
      "midi": 50,
      "hit": false,
      "t": 286475.2475000042,
      "d": 138.3195937499986,
      "v": 93
    },
    {
      "midi": 77,
      "hit": false,
      "t": 286481.3950375042,
      "d": 60.45078541664407,
      "v": 49
    },
    {
      "midi": 74,
      "hit": false,
      "t": 286500.8622395875,
      "d": 44.057352083327714,
      "v": 53
    },
    {
      "midi": 72,
      "hit": false,
      "t": 286531.5999270875,
      "d": 56.352427083358634,
      "v": 59
    },
    {
      "midi": 71,
      "hit": false,
      "t": 286563.36220417084,
      "d": 65.57373333332362,
      "v": 51
    },
    {
      "midi": 69,
      "hit": false,
      "t": 286613.5670937542,
      "d": 56.35242708330043,
      "v": 51
    },
    {
      "midi": 67,
      "hit": false,
      "t": 286654.5506770875,
      "d": 51.22947916662088,
      "v": 50
    },
    {
      "midi": 65,
      "hit": false,
      "t": 286686.3129541708,
      "d": 60.45078541664407,
      "v": 49
    },
    {
      "midi": 50,
      "hit": false,
      "t": 286721.1490000041,
      "d": 141.39336250000633,
      "v": 94
    },
    {
      "midi": 64,
      "hit": false,
      "t": 286767.2555312541,
      "d": 56.35242708330043,
      "v": 48
    },
    {
      "midi": 65,
      "hit": false,
      "t": 286788.7719125041,
      "d": 60.45078541664407,
      "v": 49
    },
    {
      "midi": 62,
      "hit": false,
      "t": 286808.2391145874,
      "d": 44.057352083327714,
      "v": 53
    },
    {
      "midi": 60,
      "hit": false,
      "t": 286838.9768020874,
      "d": 56.35242708341684,
      "v": 59
    },
    {
      "midi": 59,
      "hit": false,
      "t": 286870.7390791708,
      "d": 65.57373333332362,
      "v": 51
    },
    {
      "midi": 57,
      "hit": false,
      "t": 286920.94396875415,
      "d": 56.352427083358634,
      "v": 51
    },
    {
      "midi": 55,
      "hit": false,
      "t": 286961.92755208747,
      "d": 51.229479166679084,
      "v": 50
    },
    {
      "midi": 50,
      "hit": false,
      "t": 286967.05050000414,
      "d": 143.44254166667815,
      "v": 93
    },
    {
      "midi": 53,
      "hit": false,
      "t": 286993.6898291708,
      "d": 1044.056785416673,
      "v": 49
    },
    {
      "midi": 50,
      "hit": false,
      "t": 301967.04200000415,
      "d": 136.27041458326858,
      "v": 87
    },
    {
      "midi": 88,
      "hit": false,
      "t": 301992.6567395875,
      "d": 56.35242708330043,
      "v": 48
    },
    {
      "midi": 86,
      "hit": false,
      "t": 302033.6403229208,
      "d": 44.05735208326951,
      "v": 53
    },
    {
      "midi": 84,
      "hit": false,
      "t": 302064.37801042077,
      "d": 56.35242708330043,
      "v": 59
    },
    {
      "midi": 83,
      "hit": false,
      "t": 302096.14028750407,
      "d": 65.57373333332362,
      "v": 51
    },
    {
      "midi": 81,
      "hit": false,
      "t": 302146.3451770874,
      "d": 56.352427083358634,
      "v": 51
    },
    {
      "midi": 79,
      "hit": false,
      "t": 302187.3287604207,
      "d": 51.22947916673729,
      "v": 50
    },
    {
      "midi": 76,
      "hit": false,
      "t": 302197.5746562541,
      "d": 56.352427083358634,
      "v": 48
    },
    {
      "midi": 50,
      "hit": false,
      "t": 302212.9435000041,
      "d": 138.3195937499986,
      "v": 93
    },
    {
      "midi": 77,
      "hit": false,
      "t": 302219.09103750414,
      "d": 60.45078541664407,
      "v": 49
    },
    {
      "midi": 74,
      "hit": false,
      "t": 302238.55823958747,
      "d": 44.057352083327714,
      "v": 53
    },
    {
      "midi": 72,
      "hit": false,
      "t": 302269.2959270874,
      "d": 56.352427083358634,
      "v": 59
    },
    {
      "midi": 71,
      "hit": false,
      "t": 302301.0582041708,
      "d": 65.57373333332362,
      "v": 51
    },
    {
      "midi": 69,
      "hit": false,
      "t": 302351.2630937541,
      "d": 56.35242708330043,
      "v": 51
    },
    {
      "midi": 67,
      "hit": false,
      "t": 302392.24667708745,
      "d": 51.22947916662088,
      "v": 50
    },
    {
      "midi": 65,
      "hit": false,
      "t": 302424.00895417074,
      "d": 60.45078541664407,
      "v": 49
    },
    {
      "midi": 50,
      "hit": false,
      "t": 302458.84500000405,
      "d": 141.39336250000633,
      "v": 94
    },
    {
      "midi": 64,
      "hit": false,
      "t": 302504.95153125405,
      "d": 56.35242708330043,
      "v": 48
    },
    {
      "midi": 65,
      "hit": false,
      "t": 302526.46791250404,
      "d": 60.45078541664407,
      "v": 49
    },
    {
      "midi": 62,
      "hit": false,
      "t": 302545.93511458737,
      "d": 44.057352083327714,
      "v": 53
    },
    {
      "midi": 60,
      "hit": false,
      "t": 302576.6728020873,
      "d": 56.35242708341684,
      "v": 59
    },
    {
      "midi": 59,
      "hit": false,
      "t": 302608.43507917074,
      "d": 65.57373333332362,
      "v": 51
    },
    {
      "midi": 57,
      "hit": false,
      "t": 302658.6399687541,
      "d": 56.352427083358634,
      "v": 51
    },
    {
      "midi": 55,
      "hit": false,
      "t": 302699.6235520874,
      "d": 51.229479166679084,
      "v": 50
    },
    {
      "midi": 50,
      "hit": false,
      "t": 302704.7465000041,
      "d": 143.44254166667815,
      "v": 93
    },
    {
      "midi": 53,
      "hit": false,
      "t": 302731.38582917076,
      "d": 1044.056785416673,
      "v": 49
    },
    {
      "midi": 48,
      "hit": false,
      "t": 306639.1705000041,
      "d": 90.16388333332725,
      "v": 86
    },
    {
      "midi": 50,
      "hit": false,
      "t": 306782.61304167076,
      "d": 95.2868312500068,
      "v": 74
    },
    {
      "midi": 50,
      "hit": false,
      "t": 306885.0720000041,
      "d": 136.27041458332678,
      "v": 81
    },
    {
      "midi": 50,
      "hit": false,
      "t": 307130.9735000041,
      "d": 138.3195937499986,
      "v": 87
    },
    {
      "midi": 50,
      "hit": false,
      "t": 307376.8750000041,
      "d": 141.39336250000633,
      "v": 88
    },
    {
      "midi": 50,
      "hit": false,
      "t": 307622.77650000405,
      "d": 143.44254166667815,
      "v": 87
    },
    {
      "midi": 50,
      "hit": false,
      "t": 307868.6780000041,
      "d": 136.27041458332678,
      "v": 87
    },
    {
      "midi": 50,
      "hit": false,
      "t": 308114.57950000407,
      "d": 138.3195937499986,
      "v": 93
    },
    {
      "midi": 50,
      "hit": false,
      "t": 308360.48100000405,
      "d": 141.39336250000633,
      "v": 94
    },
    {
      "midi": 50,
      "hit": false,
      "t": 308606.382500004,
      "d": 143.44254166667815,
      "v": 93
    },
    {
      "midi": 58,
      "hit": false,
      "t": 308852.28400000406,
      "d": 245.9014999999781,
      "v": 102
    },
    {
      "midi": 65,
      "hit": false,
      "t": 308852.28400000406,
      "d": 248.97526874998584,
      "v": 102
    },
    {
      "midi": 62,
      "hit": false,
      "t": 308852.28400000406,
      "d": 251.02444791665766,
      "v": 102
    },
    {
      "midi": 31,
      "hit": false,
      "t": 308852.28400000406,
      "d": 407.78665416664444,
      "v": 93
    },
    {
      "midi": 58,
      "hit": false,
      "t": 309237.5296833374,
      "d": 178.27858749998268,
      "v": 97
    },
    {
      "midi": 65,
      "hit": false,
      "t": 309242.65263125405,
      "d": 178.27858749998268,
      "v": 97
    },
    {
      "midi": 62,
      "hit": false,
      "t": 309246.7509895874,
      "d": 177.25399791664677,
      "v": 97
    },
    {
      "midi": 65,
      "hit": false,
      "t": 309584.8655520874,
      "d": 90.16388333332725,
      "v": 105
    },
    {
      "midi": 60,
      "hit": false,
      "t": 309831.7916416707,
      "d": 285.8604937500204,
      "v": 105
    },
    {
      "midi": 67,
      "hit": false,
      "t": 309831.7916416707,
      "d": 285.8604937500204,
      "v": 105
    },
    {
      "midi": 64,
      "hit": false,
      "t": 309835.89000000403,
      "d": 284.8359041666845,
      "v": 105
    },
    {
      "midi": 33,
      "hit": false,
      "t": 309836.91458958737,
      "d": 396.51616875006584,
      "v": 94
    },
    {
      "midi": 67,
      "hit": false,
      "t": 310220.11109375407,
      "d": 197.74578958336497,
      "v": 103
    },
    {
      "midi": 60,
      "hit": false,
      "t": 310225.23404167074,
      "d": 197.74578958336497,
      "v": 103
    },
    {
      "midi": 64,
      "hit": false,
      "t": 310230.3569895874,
      "d": 197.74578958336497,
      "v": 103
    },
    {
      "midi": 33,
      "hit": false,
      "t": 310328.71758958744,
      "d": 232.5818354166695,
      "v": 84
    },
    {
      "midi": 60,
      "hit": false,
      "t": 310569.4961416708,
      "d": 253.07362708332948,
      "v": 102
    },
    {
      "midi": 64,
      "hit": false,
      "t": 310569.4961416708,
      "d": 253.07362708332948,
      "v": 102
    },
    {
      "midi": 36,
      "hit": false,
      "t": 310569.4961416708,
      "d": 422.1309083333472,
      "v": 94
    },
    {
      "midi": 67,
      "hit": false,
      "t": 310574.6190895875,
      "d": 253.07362708332948,
      "v": 102
    },
    {
      "midi": 36,
      "hit": false,
      "t": 311060.2745520875,
      "d": 235.65560416667722,
      "v": 93
    },
    {
      "midi": 62,
      "hit": false,
      "t": 311070.52044792083,
      "d": 133.19664583331905,
      "v": 102
    },
    {
      "midi": 65,
      "hit": false,
      "t": 311070.52044792083,
      "d": 133.19664583331905,
      "v": 102
    },
    {
      "midi": 69,
      "hit": false,
      "t": 311070.52044792083,
      "d": 133.19664583331905,
      "v": 102
    },
    {
      "midi": 69,
      "hit": false,
      "t": 311307.20064167085,
      "d": 460.0407229166012,
      "v": 105
    },
    {
      "midi": 62,
      "hit": false,
      "t": 311311.2990000042,
      "d": 459.0161333332653,
      "v": 105
    },
    {
      "midi": 65,
      "hit": false,
      "t": 311311.2990000042,
      "d": 459.0161333332653,
      "v": 105
    },
    {
      "midi": 38,
      "hit": false,
      "t": 311312.3235895875,
      "d": 203.89332708332222,
      "v": 93
    },
    {
      "midi": 36,
      "hit": false,
      "t": 311552.0775520875,
      "d": 105.53272708330769,
      "v": 94
    },
    {
      "midi": 34,
      "hit": false,
      "t": 311797.97905208747,
      "d": 464.1390812500031,
      "v": 93
    },
    {
      "midi": 62,
      "hit": false,
      "t": 311803.10200000415,
      "d": 459.0161333333235,
      "v": 105
    },
    {
      "midi": 65,
      "hit": false,
      "t": 311808.2249479208,
      "d": 459.0161333333235,
      "v": 105
    },
    {
      "midi": 69,
      "hit": false,
      "t": 311808.2249479208,
      "d": 459.0161333333235,
      "v": 105
    },
    {
      "midi": 62,
      "hit": false,
      "t": 312290.8066416708,
      "d": 460.04072291665943,
      "v": 95
    },
    {
      "midi": 65,
      "hit": false,
      "t": 312290.8066416708,
      "d": 460.04072291665943,
      "v": 95
    },
    {
      "midi": 69,
      "hit": false,
      "t": 312294.90500000416,
      "d": 459.0161333333235,
      "v": 95
    },
    {
      "midi": 33,
      "hit": false,
      "t": 312295.9295895875,
      "d": 465.163670833339,
      "v": 95
    },
    {
      "midi": 31,
      "hit": false,
      "t": 312781.5850520875,
      "d": 409.83583333331626,
      "v": 93
    },
    {
      "midi": 62,
      "hit": false,
      "t": 312786.7080000042,
      "d": 251.02444791665766,
      "v": 102
    },
    {
      "midi": 65,
      "hit": false,
      "t": 312787.7325895875,
      "d": 253.07362708332948,
      "v": 102
    },
    {
      "midi": 58,
      "hit": false,
      "t": 312791.83094792085,
      "d": 251.02444791665766,
      "v": 102
    },
    {
      "midi": 58,
      "hit": false,
      "t": 313170.92909375415,
      "d": 177.25399791664677,
      "v": 97
    },
    {
      "midi": 65,
      "hit": false,
      "t": 313176.05204167083,
      "d": 177.25399791664677,
      "v": 97
    },
    {
      "midi": 62,
      "hit": false,
      "t": 313177.07663125417,
      "d": 178.27858749998268,
      "v": 97
    },
    {
      "midi": 65,
      "hit": false,
      "t": 313525.4370895875,
      "d": 91.18847291666316,
      "v": 105
    },
    {
      "midi": 67,
      "hit": false,
      "t": 313766.21564167086,
      "d": 285.8604937500204,
      "v": 105
    },
    {
      "midi": 60,
      "hit": false,
      "t": 313771.33858958754,
      "d": 285.8604937500204,
      "v": 105
    },
    {
      "midi": 64,
      "hit": false,
      "t": 313771.33858958754,
      "d": 285.8604937500204,
      "v": 105
    },
    {
      "midi": 33,
      "hit": false,
      "t": 313775.4369479209,
      "d": 394.466989583394,
      "v": 94
    },
    {
      "midi": 67,
      "hit": false,
      "t": 314154.53509375424,
      "d": 197.74578958336497,
      "v": 103
    },
    {
      "midi": 60,
      "hit": false,
      "t": 314155.5596833376,
      "d": 198.77037916670088,
      "v": 103
    },
    {
      "midi": 64,
      "hit": false,
      "t": 314159.6580416709,
      "d": 197.74578958336497,
      "v": 103
    },
    {
      "midi": 33,
      "hit": false,
      "t": 314263.1415895876,
      "d": 237.70478333334904,
      "v": 84
    },
    {
      "midi": 64,
      "hit": false,
      "t": 314503.92014167097,
      "d": 253.07362708332948,
      "v": 102
    },
    {
      "midi": 67,
      "hit": false,
      "t": 314503.92014167097,
      "d": 253.07362708332948,
      "v": 102
    },
    {
      "midi": 60,
      "hit": false,
      "t": 314509.04308958765,
      "d": 253.07362708332948,
      "v": 102
    },
    {
      "midi": 36,
      "hit": false,
      "t": 314513.141447921,
      "d": 420.08172916667536,
      "v": 94
    },
    {
      "midi": 65,
      "hit": false,
      "t": 314995.723141671,
      "d": 135.24582499999087,
      "v": 102
    },
    {
      "midi": 69,
      "hit": false,
      "t": 314995.723141671,
      "d": 135.24582499999087,
      "v": 102
    },
    {
      "midi": 62,
      "hit": false,
      "t": 314999.8215000043,
      "d": 133.19664583331905,
      "v": 102
    },
    {
      "midi": 36,
      "hit": false,
      "t": 315000.84608958766,
      "d": 237.70478333329083,
      "v": 93
    },
    {
      "midi": 65,
      "hit": false,
      "t": 315241.62464167096,
      "d": 460.04072291665943,
      "v": 105
    },
    {
      "midi": 69,
      "hit": false,
      "t": 315241.62464167096,
      "d": 460.04072291665943,
      "v": 105
    },
    {
      "midi": 62,
      "hit": false,
      "t": 315245.7230000043,
      "d": 459.0161333333235,
      "v": 105
    },
    {
      "midi": 38,
      "hit": false,
      "t": 315250.845947921,
      "d": 79.91798750002636,
      "v": 93
    },
    {
      "midi": 36,
      "hit": false,
      "t": 315486.50155208766,
      "d": 105.53272708330769,
      "v": 94
    },
    {
      "midi": 69,
      "hit": false,
      "t": 315732.40305208764,
      "d": 459.01613333338173,
      "v": 105
    },
    {
      "midi": 65,
      "hit": false,
      "t": 315737.5260000043,
      "d": 459.01613333338173,
      "v": 105
    },
    {
      "midi": 62,
      "hit": false,
      "t": 315742.648947921,
      "d": 459.01613333338173,
      "v": 105
    },
    {
      "midi": 34,
      "hit": false,
      "t": 315742.648947921,
      "d": 464.1390812500613,
      "v": 93
    },
    {
      "midi": 65,
      "hit": false,
      "t": 316224.2060520877,
      "d": 459.01613333338173,
      "v": 95
    },
    {
      "midi": 62,
      "hit": false,
      "t": 316225.23064167105,
      "d": 460.04072291671764,
      "v": 95
    },
    {
      "midi": 69,
      "hit": false,
      "t": 316234.4519479211,
      "d": 459.01613333338173,
      "v": 95
    },
    {
      "midi": 33,
      "hit": false,
      "t": 316234.4519479211,
      "d": 464.1390812500613,
      "v": 95
    },
    {
      "midi": 31,
      "hit": false,
      "t": 316716.0090520878,
      "d": 1.02458958333591,
      "v": 93
    },
    {
      "midi": 58,
      "hit": false,
      "t": 316721.13200000447,
      "d": 245.9014999999781,
      "v": 102
    },
    {
      "midi": 65,
      "hit": false,
      "t": 316721.13200000447,
      "d": 248.97526874998584,
      "v": 102
    },
    {
      "midi": 62,
      "hit": false,
      "t": 316721.13200000447,
      "d": 251.02444791665766,
      "v": 102
    },
    {
      "midi": 31,
      "hit": false,
      "t": 316721.13200000447,
      "d": 404.7128854166949,
      "v": 93
    },
    {
      "midi": 58,
      "hit": false,
      "t": 317106.3776833378,
      "d": 178.27858750004089,
      "v": 97
    },
    {
      "midi": 65,
      "hit": false,
      "t": 317111.50063125446,
      "d": 178.27858750004089,
      "v": 97
    },
    {
      "midi": 62,
      "hit": false,
      "t": 317115.5989895878,
      "d": 177.25399791670498,
      "v": 97
    },
    {
      "midi": 65,
      "hit": false,
      "t": 317453.71355208784,
      "d": 90.16388333332725,
      "v": 105
    },
    {
      "midi": 60,
      "hit": false,
      "t": 317700.63964167115,
      "d": 285.8604937500204,
      "v": 105
    },
    {
      "midi": 67,
      "hit": false,
      "t": 317700.63964167115,
      "d": 285.8604937500204,
      "v": 105
    },
    {
      "midi": 64,
      "hit": false,
      "t": 317704.7380000045,
      "d": 284.8359041666845,
      "v": 105
    },
    {
      "midi": 33,
      "hit": false,
      "t": 317705.76258958783,
      "d": 396.51616875006584,
      "v": 94
    },
    {
      "midi": 67,
      "hit": false,
      "t": 318088.9590937545,
      "d": 197.74578958336497,
      "v": 103
    },
    {
      "midi": 60,
      "hit": false,
      "t": 318094.0820416712,
      "d": 197.74578958336497,
      "v": 103
    },
    {
      "midi": 64,
      "hit": false,
      "t": 318099.2049895879,
      "d": 197.74578958336497,
      "v": 103
    },
    {
      "midi": 33,
      "hit": false,
      "t": 318197.5655895879,
      "d": 232.5818354166695,
      "v": 84
    },
    {
      "midi": 60,
      "hit": false,
      "t": 318438.34414167126,
      "d": 253.07362708332948,
      "v": 102
    },
    {
      "midi": 64,
      "hit": false,
      "t": 318438.34414167126,
      "d": 253.07362708332948,
      "v": 102
    },
    {
      "midi": 36,
      "hit": false,
      "t": 318438.34414167126,
      "d": 422.1309083333472,
      "v": 94
    },
    {
      "midi": 67,
      "hit": false,
      "t": 318443.46708958794,
      "d": 253.07362708332948,
      "v": 102
    },
    {
      "midi": 36,
      "hit": false,
      "t": 318929.12255208794,
      "d": 235.65560416667722,
      "v": 93
    },
    {
      "midi": 62,
      "hit": false,
      "t": 318939.3684479213,
      "d": 133.19664583331905,
      "v": 102
    },
    {
      "midi": 65,
      "hit": false,
      "t": 318939.3684479213,
      "d": 133.19664583331905,
      "v": 102
    },
    {
      "midi": 69,
      "hit": false,
      "t": 318939.3684479213,
      "d": 133.19664583331905,
      "v": 102
    },
    {
      "midi": 69,
      "hit": false,
      "t": 319176.0486416713,
      "d": 460.0407229166012,
      "v": 105
    },
    {
      "midi": 62,
      "hit": false,
      "t": 319180.14700000465,
      "d": 459.0161333332653,
      "v": 105
    },
    {
      "midi": 65,
      "hit": false,
      "t": 319180.14700000465,
      "d": 459.0161333332653,
      "v": 105
    },
    {
      "midi": 38,
      "hit": false,
      "t": 319181.171589588,
      "d": 203.89332708332222,
      "v": 93
    },
    {
      "midi": 36,
      "hit": false,
      "t": 319420.92555208795,
      "d": 105.53272708330769,
      "v": 94
    },
    {
      "midi": 34,
      "hit": false,
      "t": 319666.82705208793,
      "d": 464.1390812500031,
      "v": 93
    },
    {
      "midi": 62,
      "hit": false,
      "t": 319671.9500000046,
      "d": 459.0161333333235,
      "v": 105
    },
    {
      "midi": 65,
      "hit": false,
      "t": 319677.0729479213,
      "d": 459.0161333333235,
      "v": 105
    },
    {
      "midi": 69,
      "hit": false,
      "t": 319677.0729479213,
      "d": 459.0161333333235,
      "v": 105
    },
    {
      "midi": 62,
      "hit": false,
      "t": 320159.6546416713,
      "d": 460.04072291665943,
      "v": 95
    },
    {
      "midi": 65,
      "hit": false,
      "t": 320159.6546416713,
      "d": 460.04072291665943,
      "v": 95
    },
    {
      "midi": 69,
      "hit": false,
      "t": 320163.7530000046,
      "d": 459.0161333333235,
      "v": 95
    },
    {
      "midi": 33,
      "hit": false,
      "t": 320164.77758958796,
      "d": 465.163670833339,
      "v": 95
    },
    {
      "midi": 31,
      "hit": false,
      "t": 320650.43305208796,
      "d": 409.83583333331626,
      "v": 93
    },
    {
      "midi": 62,
      "hit": false,
      "t": 320655.55600000464,
      "d": 251.02444791665766,
      "v": 102
    },
    {
      "midi": 65,
      "hit": false,
      "t": 320656.580589588,
      "d": 253.07362708332948,
      "v": 102
    },
    {
      "midi": 58,
      "hit": false,
      "t": 320660.6789479213,
      "d": 251.02444791665766,
      "v": 102
    },
    {
      "midi": 58,
      "hit": false,
      "t": 321039.7770937546,
      "d": 177.25399791664677,
      "v": 97
    },
    {
      "midi": 65,
      "hit": false,
      "t": 321044.9000416713,
      "d": 177.25399791664677,
      "v": 97
    },
    {
      "midi": 62,
      "hit": false,
      "t": 321045.92463125463,
      "d": 178.27858749998268,
      "v": 97
    },
    {
      "midi": 65,
      "hit": false,
      "t": 321394.28508958797,
      "d": 91.18847291666316,
      "v": 105
    },
    {
      "midi": 67,
      "hit": false,
      "t": 321635.0636416713,
      "d": 285.8604937500204,
      "v": 105
    },
    {
      "midi": 60,
      "hit": false,
      "t": 321640.186589588,
      "d": 285.8604937500204,
      "v": 105
    },
    {
      "midi": 64,
      "hit": false,
      "t": 321640.186589588,
      "d": 285.8604937500204,
      "v": 105
    },
    {
      "midi": 33,
      "hit": false,
      "t": 321644.28494792135,
      "d": 394.466989583394,
      "v": 94
    },
    {
      "midi": 67,
      "hit": false,
      "t": 322023.3830937547,
      "d": 197.74578958336497,
      "v": 103
    },
    {
      "midi": 60,
      "hit": false,
      "t": 322024.40768333804,
      "d": 198.77037916670088,
      "v": 103
    },
    {
      "midi": 64,
      "hit": false,
      "t": 322028.5060416714,
      "d": 197.74578958336497,
      "v": 103
    },
    {
      "midi": 33,
      "hit": false,
      "t": 322131.9895895881,
      "d": 237.70478333334904,
      "v": 84
    },
    {
      "midi": 64,
      "hit": false,
      "t": 322372.76814167143,
      "d": 253.07362708332948,
      "v": 102
    },
    {
      "midi": 67,
      "hit": false,
      "t": 322372.76814167143,
      "d": 253.07362708332948,
      "v": 102
    },
    {
      "midi": 60,
      "hit": false,
      "t": 322377.8910895881,
      "d": 253.07362708332948,
      "v": 102
    },
    {
      "midi": 36,
      "hit": false,
      "t": 322381.98944792146,
      "d": 420.08172916667536,
      "v": 94
    },
    {
      "midi": 65,
      "hit": false,
      "t": 322864.57114167145,
      "d": 135.24582499999087,
      "v": 102
    },
    {
      "midi": 69,
      "hit": false,
      "t": 322864.57114167145,
      "d": 135.24582499999087,
      "v": 102
    },
    {
      "midi": 62,
      "hit": false,
      "t": 322868.6695000048,
      "d": 133.19664583331905,
      "v": 102
    },
    {
      "midi": 36,
      "hit": false,
      "t": 322869.6940895881,
      "d": 237.70478333329083,
      "v": 93
    },
    {
      "midi": 65,
      "hit": false,
      "t": 323110.4726416714,
      "d": 460.04072291665943,
      "v": 105
    },
    {
      "midi": 69,
      "hit": false,
      "t": 323110.4726416714,
      "d": 460.04072291665943,
      "v": 105
    },
    {
      "midi": 62,
      "hit": false,
      "t": 323114.57100000477,
      "d": 459.0161333333235,
      "v": 105
    },
    {
      "midi": 38,
      "hit": false,
      "t": 323119.69394792145,
      "d": 79.91798750002636,
      "v": 93
    },
    {
      "midi": 36,
      "hit": false,
      "t": 323355.3495520881,
      "d": 105.53272708330769,
      "v": 94
    },
    {
      "midi": 69,
      "hit": false,
      "t": 323601.2510520881,
      "d": 459.01613333338173,
      "v": 105
    },
    {
      "midi": 65,
      "hit": false,
      "t": 323606.3740000048,
      "d": 459.01613333338173,
      "v": 105
    },
    {
      "midi": 62,
      "hit": false,
      "t": 323611.49694792146,
      "d": 459.01613333338173,
      "v": 105
    },
    {
      "midi": 34,
      "hit": false,
      "t": 323611.49694792146,
      "d": 464.1390812500613,
      "v": 93
    },
    {
      "midi": 65,
      "hit": false,
      "t": 324093.0540520882,
      "d": 459.01613333338173,
      "v": 95
    },
    {
      "midi": 62,
      "hit": false,
      "t": 324094.0786416715,
      "d": 460.04072291671764,
      "v": 95
    },
    {
      "midi": 69,
      "hit": false,
      "t": 324103.29994792154,
      "d": 459.01613333338173,
      "v": 95
    },
    {
      "midi": 33,
      "hit": false,
      "t": 324103.29994792154,
      "d": 464.1390812500613,
      "v": 95
    },
    {
      "midi": 31,
      "hit": false,
      "t": 324584.85705208825,
      "d": 1.02458958333591,
      "v": 93
    },
    {
      "midi": 72,
      "hit": false,
      "t": 324589.9800000004,
      "d": 2948.7688208333566,
      "v": 1
    },
    {
      "midi": 58,
      "hit": false,
      "t": 324589.9800000049,
      "d": 245.9014999999781,
      "v": 102
    },
    {
      "midi": 65,
      "hit": false,
      "t": 324589.9800000049,
      "d": 248.97526874998584,
      "v": 102
    },
    {
      "midi": 62,
      "hit": false,
      "t": 324589.9800000049,
      "d": 251.02444791665766,
      "v": 102
    },
    {
      "midi": 31,
      "hit": false,
      "t": 324589.9800000049,
      "d": 404.7128854166949,
      "v": 93
    },
    {
      "midi": 58,
      "hit": false,
      "t": 324975.22568333824,
      "d": 178.27858750004089,
      "v": 97
    },
    {
      "midi": 65,
      "hit": false,
      "t": 324980.3486312549,
      "d": 178.27858750004089,
      "v": 97
    },
    {
      "midi": 62,
      "hit": false,
      "t": 324984.44698958826,
      "d": 177.25399791670498,
      "v": 97
    },
    {
      "midi": 65,
      "hit": false,
      "t": 325322.5615520883,
      "d": 90.16388333332725,
      "v": 105
    },
    {
      "midi": 60,
      "hit": false,
      "t": 325569.4876416716,
      "d": 285.8604937500204,
      "v": 105
    },
    {
      "midi": 67,
      "hit": false,
      "t": 325569.4876416716,
      "d": 285.8604937500204,
      "v": 105
    },
    {
      "midi": 64,
      "hit": false,
      "t": 325573.58600000496,
      "d": 284.8359041666845,
      "v": 105
    },
    {
      "midi": 33,
      "hit": false,
      "t": 325574.6105895883,
      "d": 396.51616875006584,
      "v": 94
    },
    {
      "midi": 67,
      "hit": false,
      "t": 325957.807093755,
      "d": 197.74578958336497,
      "v": 103
    },
    {
      "midi": 60,
      "hit": false,
      "t": 325962.9300416717,
      "d": 197.74578958336497,
      "v": 103
    },
    {
      "midi": 64,
      "hit": false,
      "t": 325968.05298958835,
      "d": 197.74578958336497,
      "v": 103
    },
    {
      "midi": 33,
      "hit": false,
      "t": 326066.41358958837,
      "d": 232.5818354166695,
      "v": 84
    },
    {
      "midi": 60,
      "hit": false,
      "t": 326307.1921416717,
      "d": 253.07362708332948,
      "v": 102
    },
    {
      "midi": 64,
      "hit": false,
      "t": 326307.1921416717,
      "d": 253.07362708332948,
      "v": 102
    },
    {
      "midi": 36,
      "hit": false,
      "t": 326307.1921416717,
      "d": 422.1309083333472,
      "v": 94
    },
    {
      "midi": 67,
      "hit": false,
      "t": 326312.3150895884,
      "d": 253.07362708332948,
      "v": 102
    },
    {
      "midi": 36,
      "hit": false,
      "t": 326797.9705520884,
      "d": 235.65560416667722,
      "v": 93
    },
    {
      "midi": 62,
      "hit": false,
      "t": 326808.21644792176,
      "d": 133.19664583331905,
      "v": 102
    },
    {
      "midi": 65,
      "hit": false,
      "t": 326808.21644792176,
      "d": 133.19664583331905,
      "v": 102
    },
    {
      "midi": 69,
      "hit": false,
      "t": 326808.21644792176,
      "d": 133.19664583331905,
      "v": 102
    },
    {
      "midi": 69,
      "hit": false,
      "t": 327044.8966416718,
      "d": 460.0407229166012,
      "v": 105
    },
    {
      "midi": 62,
      "hit": false,
      "t": 327048.9950000051,
      "d": 459.0161333332653,
      "v": 105
    },
    {
      "midi": 65,
      "hit": false,
      "t": 327048.9950000051,
      "d": 459.0161333332653,
      "v": 105
    },
    {
      "midi": 38,
      "hit": false,
      "t": 327050.01958958845,
      "d": 203.89332708332222,
      "v": 93
    },
    {
      "midi": 36,
      "hit": false,
      "t": 327289.7735520884,
      "d": 105.53272708330769,
      "v": 94
    },
    {
      "midi": 34,
      "hit": false,
      "t": 327535.6750520884,
      "d": 464.1390812500031,
      "v": 93
    },
    {
      "midi": 67,
      "hit": false,
      "t": 327540.7980000004,
      "d": 489.7538208333426,
      "v": 1
    },
    {
      "midi": 62,
      "hit": false,
      "t": 327540.7980000051,
      "d": 459.0161333333235,
      "v": 105
    },
    {
      "midi": 65,
      "hit": false,
      "t": 327545.92094792175,
      "d": 459.0161333333235,
      "v": 105
    },
    {
      "midi": 69,
      "hit": false,
      "t": 327545.92094792175,
      "d": 459.0161333333235,
      "v": 105
    },
    {
      "midi": 62,
      "hit": false,
      "t": 328028.50264167174,
      "d": 460.04072291665943,
      "v": 95
    },
    {
      "midi": 65,
      "hit": false,
      "t": 328028.50264167174,
      "d": 460.04072291665943,
      "v": 95
    },
    {
      "midi": 62,
      "hit": false,
      "t": 328032.60100000043,
      "d": 243.8523208333063,
      "v": 1
    },
    {
      "midi": 69,
      "hit": false,
      "t": 328032.6010000051,
      "d": 459.0161333333235,
      "v": 95
    },
    {
      "midi": 33,
      "hit": false,
      "t": 328033.6255895884,
      "d": 465.163670833339,
      "v": 95
    },
    {
      "midi": 67,
      "hit": false,
      "t": 328278.5025000004,
      "d": 499.9997166667017,
      "v": 1
    },
    {
      "midi": 31,
      "hit": false,
      "t": 328519.2810520884,
      "d": 409.83583333331626,
      "v": 93
    },
    {
      "midi": 62,
      "hit": false,
      "t": 328524.4040000051,
      "d": 251.02444791665766,
      "v": 102
    },
    {
      "midi": 65,
      "hit": false,
      "t": 328525.42858958844,
      "d": 253.07362708332948,
      "v": 102
    },
    {
      "midi": 58,
      "hit": false,
      "t": 328529.5269479218,
      "d": 251.02444791665766,
      "v": 102
    },
    {
      "midi": 65,
      "hit": false,
      "t": 328770.3055000004,
      "d": 3686.473320833349,
      "v": 1
    },
    {
      "midi": 58,
      "hit": false,
      "t": 328908.6250937551,
      "d": 177.25399791664677,
      "v": 97
    },
    {
      "midi": 65,
      "hit": false,
      "t": 328913.74804167176,
      "d": 177.25399791664677,
      "v": 97
    },
    {
      "midi": 62,
      "hit": false,
      "t": 328914.7726312551,
      "d": 178.27858749998268,
      "v": 97
    },
    {
      "midi": 65,
      "hit": false,
      "t": 329263.13308958843,
      "d": 91.18847291666316,
      "v": 105
    },
    {
      "midi": 67,
      "hit": false,
      "t": 329503.9116416718,
      "d": 285.8604937500204,
      "v": 105
    },
    {
      "midi": 60,
      "hit": false,
      "t": 329509.03458958847,
      "d": 285.8604937500204,
      "v": 105
    },
    {
      "midi": 64,
      "hit": false,
      "t": 329509.03458958847,
      "d": 285.8604937500204,
      "v": 105
    },
    {
      "midi": 33,
      "hit": false,
      "t": 329513.1329479218,
      "d": 394.466989583394,
      "v": 94
    },
    {
      "midi": 67,
      "hit": false,
      "t": 329892.23109375517,
      "d": 197.74578958336497,
      "v": 103
    },
    {
      "midi": 60,
      "hit": false,
      "t": 329893.2556833385,
      "d": 198.77037916670088,
      "v": 103
    },
    {
      "midi": 64,
      "hit": false,
      "t": 329897.35404167185,
      "d": 197.74578958336497,
      "v": 103
    },
    {
      "midi": 33,
      "hit": false,
      "t": 330000.83758958854,
      "d": 237.70478333334904,
      "v": 84
    },
    {
      "midi": 64,
      "hit": false,
      "t": 330241.6161416719,
      "d": 253.07362708332948,
      "v": 102
    },
    {
      "midi": 67,
      "hit": false,
      "t": 330241.6161416719,
      "d": 253.07362708332948,
      "v": 102
    },
    {
      "midi": 60,
      "hit": false,
      "t": 330246.7390895886,
      "d": 253.07362708332948,
      "v": 102
    },
    {
      "midi": 36,
      "hit": false,
      "t": 330250.8374479219,
      "d": 420.08172916667536,
      "v": 94
    },
    {
      "midi": 65,
      "hit": false,
      "t": 330733.4191416719,
      "d": 135.24582499999087,
      "v": 102
    },
    {
      "midi": 69,
      "hit": false,
      "t": 330733.4191416719,
      "d": 135.24582499999087,
      "v": 102
    },
    {
      "midi": 62,
      "hit": false,
      "t": 330737.51750000525,
      "d": 133.19664583331905,
      "v": 102
    },
    {
      "midi": 36,
      "hit": false,
      "t": 330738.5420895886,
      "d": 237.70478333329083,
      "v": 93
    },
    {
      "midi": 65,
      "hit": false,
      "t": 330979.3206416719,
      "d": 460.04072291665943,
      "v": 105
    },
    {
      "midi": 69,
      "hit": false,
      "t": 330979.3206416719,
      "d": 460.04072291665943,
      "v": 105
    },
    {
      "midi": 62,
      "hit": false,
      "t": 330983.41900000523,
      "d": 459.0161333333235,
      "v": 105
    },
    {
      "midi": 38,
      "hit": false,
      "t": 330988.5419479219,
      "d": 79.91798750002636,
      "v": 93
    },
    {
      "midi": 36,
      "hit": false,
      "t": 331224.1975520886,
      "d": 105.53272708330769,
      "v": 94
    },
    {
      "midi": 69,
      "hit": false,
      "t": 331470.09905208857,
      "d": 459.01613333338173,
      "v": 105
    },
    {
      "midi": 65,
      "hit": false,
      "t": 331475.22200000525,
      "d": 459.01613333338173,
      "v": 105
    },
    {
      "midi": 62,
      "hit": false,
      "t": 331480.3449479219,
      "d": 459.01613333338173,
      "v": 105
    },
    {
      "midi": 34,
      "hit": false,
      "t": 331480.3449479219,
      "d": 464.1390812500613,
      "v": 93
    },
    {
      "midi": 65,
      "hit": false,
      "t": 331961.90205208864,
      "d": 459.01613333338173,
      "v": 95
    },
    {
      "midi": 62,
      "hit": false,
      "t": 331962.926641672,
      "d": 460.04072291671764,
      "v": 95
    },
    {
      "midi": 69,
      "hit": false,
      "t": 331972.147947922,
      "d": 459.01613333338173,
      "v": 95
    },
    {
      "midi": 33,
      "hit": false,
      "t": 331972.147947922,
      "d": 464.1390812500613,
      "v": 95
    },
    {
      "midi": 31,
      "hit": false,
      "t": 332453.7050520887,
      "d": 1.02458958333591,
      "v": 93
    },
    {
      "midi": 72,
      "hit": false,
      "t": 332458.82800000045,
      "d": 2948.7688208333566,
      "v": 1
    },
    {
      "midi": 58,
      "hit": false,
      "t": 332458.8280000054,
      "d": 245.9014999999781,
      "v": 102
    },
    {
      "midi": 65,
      "hit": false,
      "t": 332458.8280000054,
      "d": 248.97526874998584,
      "v": 102
    },
    {
      "midi": 62,
      "hit": false,
      "t": 332458.8280000054,
      "d": 251.02444791665766,
      "v": 102
    },
    {
      "midi": 31,
      "hit": false,
      "t": 332458.8280000054,
      "d": 404.7128854166949,
      "v": 93
    },
    {
      "midi": 58,
      "hit": false,
      "t": 332844.0736833387,
      "d": 178.27858750004089,
      "v": 97
    },
    {
      "midi": 65,
      "hit": false,
      "t": 332849.1966312554,
      "d": 178.27858750004089,
      "v": 97
    },
    {
      "midi": 62,
      "hit": false,
      "t": 332853.2949895887,
      "d": 177.25399791670498,
      "v": 97
    },
    {
      "midi": 65,
      "hit": false,
      "t": 333191.40955208876,
      "d": 90.16388333332725,
      "v": 105
    },
    {
      "midi": 60,
      "hit": false,
      "t": 333438.3356416721,
      "d": 285.8604937500204,
      "v": 105
    },
    {
      "midi": 67,
      "hit": false,
      "t": 333438.3356416721,
      "d": 285.8604937500204,
      "v": 105
    },
    {
      "midi": 64,
      "hit": false,
      "t": 333442.4340000054,
      "d": 284.8359041666845,
      "v": 105
    },
    {
      "midi": 33,
      "hit": false,
      "t": 333443.45858958876,
      "d": 396.51616875006584,
      "v": 94
    },
    {
      "midi": 67,
      "hit": false,
      "t": 333826.65509375546,
      "d": 197.74578958336497,
      "v": 103
    },
    {
      "midi": 60,
      "hit": false,
      "t": 333831.77804167214,
      "d": 197.74578958336497,
      "v": 103
    },
    {
      "midi": 64,
      "hit": false,
      "t": 333836.9009895888,
      "d": 197.74578958336497,
      "v": 103
    },
    {
      "midi": 33,
      "hit": false,
      "t": 333935.26158958883,
      "d": 232.5818354166695,
      "v": 84
    },
    {
      "midi": 60,
      "hit": false,
      "t": 334176.0401416722,
      "d": 253.07362708332948,
      "v": 102
    },
    {
      "midi": 64,
      "hit": false,
      "t": 334176.0401416722,
      "d": 253.07362708332948,
      "v": 102
    },
    {
      "midi": 36,
      "hit": false,
      "t": 334176.0401416722,
      "d": 422.1309083333472,
      "v": 94
    },
    {
      "midi": 67,
      "hit": false,
      "t": 334181.16308958887,
      "d": 253.07362708332948,
      "v": 102
    },
    {
      "midi": 36,
      "hit": false,
      "t": 334666.81855208887,
      "d": 235.65560416667722,
      "v": 93
    },
    {
      "midi": 62,
      "hit": false,
      "t": 334677.0644479222,
      "d": 133.19664583331905,
      "v": 102
    },
    {
      "midi": 65,
      "hit": false,
      "t": 334677.0644479222,
      "d": 133.19664583331905,
      "v": 102
    },
    {
      "midi": 69,
      "hit": false,
      "t": 334677.0644479222,
      "d": 133.19664583331905,
      "v": 102
    },
    {
      "midi": 69,
      "hit": false,
      "t": 334913.74464167224,
      "d": 460.0407229166012,
      "v": 105
    },
    {
      "midi": 62,
      "hit": false,
      "t": 334917.8430000056,
      "d": 459.0161333332653,
      "v": 105
    },
    {
      "midi": 65,
      "hit": false,
      "t": 334917.8430000056,
      "d": 459.0161333332653,
      "v": 105
    },
    {
      "midi": 38,
      "hit": false,
      "t": 334918.8675895889,
      "d": 203.89332708332222,
      "v": 93
    },
    {
      "midi": 36,
      "hit": false,
      "t": 335158.6215520889,
      "d": 105.53272708330769,
      "v": 94
    },
    {
      "midi": 34,
      "hit": false,
      "t": 335404.52305208886,
      "d": 464.1390812500031,
      "v": 93
    },
    {
      "midi": 67,
      "hit": false,
      "t": 335409.6460000005,
      "d": 489.7538208333426,
      "v": 1
    },
    {
      "midi": 62,
      "hit": false,
      "t": 335409.64600000554,
      "d": 459.0161333333235,
      "v": 105
    },
    {
      "midi": 65,
      "hit": false,
      "t": 335414.7689479222,
      "d": 459.0161333333235,
      "v": 105
    },
    {
      "midi": 69,
      "hit": false,
      "t": 335414.7689479222,
      "d": 459.0161333333235,
      "v": 105
    },
    {
      "midi": 62,
      "hit": false,
      "t": 335897.3506416722,
      "d": 460.04072291665943,
      "v": 95
    },
    {
      "midi": 65,
      "hit": false,
      "t": 335897.3506416722,
      "d": 460.04072291665943,
      "v": 95
    },
    {
      "midi": 62,
      "hit": false,
      "t": 335901.4490000005,
      "d": 243.8523208333063,
      "v": 1
    },
    {
      "midi": 69,
      "hit": false,
      "t": 335901.44900000555,
      "d": 459.0161333333235,
      "v": 95
    },
    {
      "midi": 33,
      "hit": false,
      "t": 335902.4735895889,
      "d": 465.163670833339,
      "v": 95
    },
    {
      "midi": 67,
      "hit": false,
      "t": 336147.35050000047,
      "d": 499.9997166667017,
      "v": 1
    },
    {
      "midi": 31,
      "hit": false,
      "t": 336388.1290520889,
      "d": 409.83583333331626,
      "v": 93
    },
    {
      "midi": 62,
      "hit": false,
      "t": 336393.25200000557,
      "d": 251.02444791665766,
      "v": 102
    },
    {
      "midi": 65,
      "hit": false,
      "t": 336394.2765895889,
      "d": 253.07362708332948,
      "v": 102
    },
    {
      "midi": 58,
      "hit": false,
      "t": 336398.37494792225,
      "d": 251.02444791665766,
      "v": 102
    },
    {
      "midi": 65,
      "hit": false,
      "t": 336639.1535000005,
      "d": 3686.473320833349,
      "v": 1
    },
    {
      "midi": 58,
      "hit": false,
      "t": 336777.47309375554,
      "d": 177.25399791664677,
      "v": 97
    },
    {
      "midi": 65,
      "hit": false,
      "t": 336782.5960416722,
      "d": 177.25399791664677,
      "v": 97
    },
    {
      "midi": 62,
      "hit": false,
      "t": 336783.62063125556,
      "d": 178.27858749998268,
      "v": 97
    },
    {
      "midi": 65,
      "hit": false,
      "t": 337131.9810895889,
      "d": 91.18847291666316,
      "v": 105
    },
    {
      "midi": 67,
      "hit": false,
      "t": 337372.75964167225,
      "d": 285.8604937500204,
      "v": 105
    },
    {
      "midi": 60,
      "hit": false,
      "t": 337377.88258958893,
      "d": 285.8604937500204,
      "v": 105
    },
    {
      "midi": 64,
      "hit": false,
      "t": 337377.88258958893,
      "d": 285.8604937500204,
      "v": 105
    },
    {
      "midi": 33,
      "hit": false,
      "t": 337381.9809479223,
      "d": 394.466989583394,
      "v": 94
    },
    {
      "midi": 67,
      "hit": false,
      "t": 337761.07909375563,
      "d": 197.74578958336497,
      "v": 103
    },
    {
      "midi": 60,
      "hit": false,
      "t": 337762.10368333897,
      "d": 198.77037916670088,
      "v": 103
    },
    {
      "midi": 64,
      "hit": false,
      "t": 337766.2020416723,
      "d": 197.74578958336497,
      "v": 103
    },
    {
      "midi": 33,
      "hit": false,
      "t": 337869.685589589,
      "d": 237.70478333334904,
      "v": 84
    },
    {
      "midi": 64,
      "hit": false,
      "t": 338110.46414167236,
      "d": 253.07362708332948,
      "v": 102
    },
    {
      "midi": 67,
      "hit": false,
      "t": 338110.46414167236,
      "d": 253.07362708332948,
      "v": 102
    },
    {
      "midi": 60,
      "hit": false,
      "t": 338115.58708958904,
      "d": 253.07362708332948,
      "v": 102
    },
    {
      "midi": 36,
      "hit": false,
      "t": 338119.6854479224,
      "d": 420.08172916667536,
      "v": 94
    },
    {
      "midi": 65,
      "hit": false,
      "t": 338602.2671416724,
      "d": 135.24582499999087,
      "v": 102
    },
    {
      "midi": 69,
      "hit": false,
      "t": 338602.2671416724,
      "d": 135.24582499999087,
      "v": 102
    },
    {
      "midi": 62,
      "hit": false,
      "t": 338606.3655000057,
      "d": 133.19664583331905,
      "v": 102
    },
    {
      "midi": 36,
      "hit": false,
      "t": 338607.39008958905,
      "d": 237.70478333329083,
      "v": 93
    },
    {
      "midi": 65,
      "hit": false,
      "t": 338848.16864167235,
      "d": 460.04072291665943,
      "v": 105
    },
    {
      "midi": 69,
      "hit": false,
      "t": 338848.16864167235,
      "d": 460.04072291665943,
      "v": 105
    },
    {
      "midi": 62,
      "hit": false,
      "t": 338852.2670000057,
      "d": 459.0161333333235,
      "v": 105
    },
    {
      "midi": 38,
      "hit": false,
      "t": 338857.3899479224,
      "d": 79.91798750002636,
      "v": 93
    },
    {
      "midi": 36,
      "hit": false,
      "t": 339093.04555208905,
      "d": 105.53272708330769,
      "v": 94
    },
    {
      "midi": 69,
      "hit": false,
      "t": 339338.94705208903,
      "d": 459.01613333338173,
      "v": 105
    },
    {
      "midi": 65,
      "hit": false,
      "t": 339344.0700000057,
      "d": 459.01613333338173,
      "v": 105
    },
    {
      "midi": 62,
      "hit": false,
      "t": 339349.1929479224,
      "d": 459.01613333338173,
      "v": 105
    },
    {
      "midi": 34,
      "hit": false,
      "t": 339349.1929479224,
      "d": 464.1390812500613,
      "v": 93
    },
    {
      "midi": 65,
      "hit": false,
      "t": 339830.7500520891,
      "d": 459.01613333338173,
      "v": 95
    },
    {
      "midi": 62,
      "hit": false,
      "t": 339831.77464167244,
      "d": 460.04072291671764,
      "v": 95
    },
    {
      "midi": 69,
      "hit": false,
      "t": 339840.99594792246,
      "d": 459.01613333338173,
      "v": 95
    },
    {
      "midi": 33,
      "hit": false,
      "t": 339840.99594792246,
      "d": 464.1390812500613,
      "v": 95
    },
    {
      "midi": 69,
      "hit": false,
      "t": 340322.5530520892,
      "d": 459.01613333338173,
      "v": 105
    },
    {
      "midi": 65,
      "hit": false,
      "t": 340327.67600000586,
      "d": 459.01613333338173,
      "v": 105
    },
    {
      "midi": 62,
      "hit": false,
      "t": 340332.79894792254,
      "d": 459.01613333338173,
      "v": 105
    },
    {
      "midi": 38,
      "hit": false,
      "t": 340332.79894792254,
      "d": 464.1390812500613,
      "v": 93
    }
  ]
}