{
  "jsonPath": "Rock/Brazilian Rock/Pato Fu/um-ponto-oito.json",
  "path": "Rock\\Brazilian Rock\\Pato Fu\\Um Ponto Oito.mid",
  "name": "Um Ponto Oito",
  "difficulty": "Advanced",
  "bpm": 75.01200192030726,
  "notes": [
    {
      "midi": 62,
      "hit": false,
      "t": 3199.4879999999994,
      "d": 319.9488000000001,
      "v": 77
    },
    {
      "midi": 50,
      "hit": false,
      "t": 3199.4879999999994,
      "d": 919.8527999999997,
      "v": 77
    },
    {
      "midi": 74,
      "hit": false,
      "t": 3199.4879999999994,
      "d": 319.9488000000001,
      "v": 77
    },
    {
      "midi": 62,
      "hit": false,
      "t": 3199.4879999999994,
      "d": 919.8527999999997,
      "v": 77
    },
    {
      "midi": 66,
      "hit": false,
      "t": 3599.4239999999995,
      "d": 291.6199999999999,
      "v": 77
    },
    {
      "midi": 78,
      "hit": false,
      "t": 3599.4239999999995,
      "d": 291.6199999999999,
      "v": 77
    },
    {
      "midi": 69,
      "hit": false,
      "t": 3999.359999999999,
      "d": 286.62080000000014,
      "v": 77
    },
    {
      "midi": 81,
      "hit": false,
      "t": 3999.359999999999,
      "d": 286.62080000000014,
      "v": 77
    },
    {
      "midi": 66,
      "hit": false,
      "t": 4399.295999999999,
      "d": 233.29600000000028,
      "v": 77
    },
    {
      "midi": 78,
      "hit": false,
      "t": 4399.295999999999,
      "d": 233.29600000000028,
      "v": 77
    },
    {
      "midi": 62,
      "hit": false,
      "t": 4799.232,
      "d": 283.28799999999956,
      "v": 77
    },
    {
      "midi": 42,
      "hit": false,
      "t": 4799.232,
      "d": 436.59679999999935,
      "v": 77
    },
    {
      "midi": 74,
      "hit": false,
      "t": 4799.232,
      "d": 283.28799999999956,
      "v": 77
    },
    {
      "midi": 54,
      "hit": false,
      "t": 4799.232,
      "d": 436.59679999999935,
      "v": 77
    },
    {
      "midi": 66,
      "hit": false,
      "t": 5199.168,
      "d": 199.96799999999985,
      "v": 77
    },
    {
      "midi": 78,
      "hit": false,
      "t": 5199.168,
      "d": 199.96799999999985,
      "v": 77
    },
    {
      "midi": 69,
      "hit": false,
      "t": 5599.103999999999,
      "d": 249.96000000000004,
      "v": 77
    },
    {
      "midi": 81,
      "hit": false,
      "t": 5599.103999999999,
      "d": 249.96000000000004,
      "v": 77
    },
    {
      "midi": 66,
      "hit": false,
      "t": 5999.039999999999,
      "d": 208.30000000000018,
      "v": 77
    },
    {
      "midi": 78,
      "hit": false,
      "t": 5999.039999999999,
      "d": 208.30000000000018,
      "v": 77
    },
    {
      "midi": 62,
      "hit": false,
      "t": 6398.976,
      "d": 316.616,
      "v": 77
    },
    {
      "midi": 43,
      "hit": false,
      "t": 6398.976,
      "d": 824.8680000000004,
      "v": 77
    },
    {
      "midi": 74,
      "hit": false,
      "t": 6398.976,
      "d": 316.616,
      "v": 77
    },
    {
      "midi": 55,
      "hit": false,
      "t": 6398.976,
      "d": 824.8680000000004,
      "v": 77
    },
    {
      "midi": 67,
      "hit": false,
      "t": 6798.911999999999,
      "d": 258.29200000000037,
      "v": 77
    },
    {
      "midi": 79,
      "hit": false,
      "t": 6798.911999999999,
      "d": 258.29200000000037,
      "v": 77
    },
    {
      "midi": 69,
      "hit": false,
      "t": 7198.848,
      "d": 299.9520000000002,
      "v": 77
    },
    {
      "midi": 81,
      "hit": false,
      "t": 7198.848,
      "d": 299.9520000000002,
      "v": 77
    },
    {
      "midi": 67,
      "hit": false,
      "t": 7598.784000000001,
      "d": 219.96479999999974,
      "v": 77
    },
    {
      "midi": 79,
      "hit": false,
      "t": 7598.784000000001,
      "d": 219.96479999999974,
      "v": 77
    },
    {
      "midi": 62,
      "hit": false,
      "t": 7998.72,
      "d": 303.28480000000036,
      "v": 77
    },
    {
      "midi": 57,
      "hit": false,
      "t": 7998.72,
      "d": 1158.1480000000001,
      "v": 77
    },
    {
      "midi": 74,
      "hit": false,
      "t": 7998.72,
      "d": 303.28480000000036,
      "v": 77
    },
    {
      "midi": 69,
      "hit": false,
      "t": 7998.72,
      "d": 1158.1480000000001,
      "v": 77
    },
    {
      "midi": 64,
      "hit": false,
      "t": 8398.656,
      "d": 386.60479999999916,
      "v": 77
    },
    {
      "midi": 76,
      "hit": false,
      "t": 8398.656,
      "d": 386.60479999999916,
      "v": 77
    },
    {
      "midi": 69,
      "hit": false,
      "t": 8798.592,
      "d": 344.9447999999993,
      "v": 77
    },
    {
      "midi": 81,
      "hit": false,
      "t": 8798.592,
      "d": 344.9447999999993,
      "v": 77
    },
    {
      "midi": 64,
      "hit": false,
      "t": 9198.528,
      "d": 149.97600000000057,
      "v": 77
    },
    {
      "midi": 76,
      "hit": false,
      "t": 9198.528,
      "d": 149.97600000000057,
      "v": 77
    },
    {
      "midi": 61,
      "hit": false,
      "t": 9598.464000000002,
      "d": 1366.4480000000003,
      "v": 77
    },
    {
      "midi": 64,
      "hit": false,
      "t": 9598.464000000002,
      "d": 1366.4480000000003,
      "v": 77
    },
    {
      "midi": 57,
      "hit": false,
      "t": 9598.464000000002,
      "d": 1369.7808000000005,
      "v": 77
    },
    {
      "midi": 69,
      "hit": false,
      "t": 9598.464000000002,
      "d": 1399.7759999999998,
      "v": 77
    },
    {
      "midi": 73,
      "hit": false,
      "t": 9598.464000000002,
      "d": 1366.4480000000003,
      "v": 77
    },
    {
      "midi": 76,
      "hit": false,
      "t": 9598.464000000002,
      "d": 1366.4480000000003,
      "v": 77
    },
    {
      "midi": 69,
      "hit": false,
      "t": 9598.464000000002,
      "d": 1369.7808000000005,
      "v": 77
    },
    {
      "midi": 81,
      "hit": false,
      "t": 9598.464000000002,
      "d": 1399.7759999999998,
      "v": 77
    },
    {
      "midi": 38,
      "hit": false,
      "t": 11198.208000000002,
      "d": 1074.8279999999995,
      "v": 77
    },
    {
      "midi": 62,
      "hit": false,
      "t": 11198.208000000002,
      "d": 1336.4527999999991,
      "v": 77
    },
    {
      "midi": 66,
      "hit": false,
      "t": 11198.208000000002,
      "d": 1369.7807999999986,
      "v": 77
    },
    {
      "midi": 57,
      "hit": false,
      "t": 11198.208000000002,
      "d": 1416.4399999999987,
      "v": 77
    },
    {
      "midi": 50,
      "hit": false,
      "t": 11198.208000000002,
      "d": 1074.8279999999995,
      "v": 77
    },
    {
      "midi": 74,
      "hit": false,
      "t": 11198.208000000002,
      "d": 1336.4527999999991,
      "v": 77
    },
    {
      "midi": 78,
      "hit": false,
      "t": 11198.208000000002,
      "d": 1369.7807999999986,
      "v": 77
    },
    {
      "midi": 69,
      "hit": false,
      "t": 11198.208000000002,
      "d": 1416.4399999999987,
      "v": 77
    },
    {
      "midi": 42,
      "hit": false,
      "t": 12797.952000000001,
      "d": 1099.8240000000005,
      "v": 77
    },
    {
      "midi": 62,
      "hit": false,
      "t": 12797.952000000001,
      "d": 1099.8240000000005,
      "v": 77
    },
    {
      "midi": 66,
      "hit": false,
      "t": 12797.952000000001,
      "d": 1108.1560000000009,
      "v": 77
    },
    {
      "midi": 57,
      "hit": false,
      "t": 12797.952000000001,
      "d": 1144.8168000000005,
      "v": 77
    },
    {
      "midi": 54,
      "hit": false,
      "t": 12797.952000000001,
      "d": 1099.8240000000005,
      "v": 77
    },
    {
      "midi": 74,
      "hit": false,
      "t": 12797.952000000001,
      "d": 1099.8240000000005,
      "v": 77
    },
    {
      "midi": 78,
      "hit": false,
      "t": 12797.952000000001,
      "d": 1108.1560000000009,
      "v": 77
    },
    {
      "midi": 69,
      "hit": false,
      "t": 12797.952000000001,
      "d": 1144.8168000000005,
      "v": 77
    },
    {
      "midi": 59,
      "hit": false,
      "t": 14397.696000000002,
      "d": 2661.2408000000014,
      "v": 77
    },
    {
      "midi": 55,
      "hit": false,
      "t": 14397.696000000002,
      "d": 2674.572000000002,
      "v": 77
    },
    {
      "midi": 62,
      "hit": false,
      "t": 14397.696000000002,
      "d": 2699.568000000001,
      "v": 77
    },
    {
      "midi": 43,
      "hit": false,
      "t": 14397.696000000002,
      "d": 2786.220800000001,
      "v": 77
    },
    {
      "midi": 71,
      "hit": false,
      "t": 14397.696000000002,
      "d": 2661.2408000000014,
      "v": 77
    },
    {
      "midi": 67,
      "hit": false,
      "t": 14397.696000000002,
      "d": 2674.572000000002,
      "v": 77
    },
    {
      "midi": 74,
      "hit": false,
      "t": 14397.696000000002,
      "d": 2699.568000000001,
      "v": 77
    },
    {
      "midi": 55,
      "hit": false,
      "t": 14397.696000000002,
      "d": 2786.220800000001,
      "v": 77
    },
    {
      "midi": 57,
      "hit": false,
      "t": 17597.184,
      "d": 661.5607999999993,
      "v": 77
    },
    {
      "midi": 50,
      "hit": false,
      "t": 17597.184,
      "d": 666.5599999999977,
      "v": 77
    },
    {
      "midi": 69,
      "hit": false,
      "t": 17597.184,
      "d": 661.5607999999993,
      "v": 77
    },
    {
      "midi": 62,
      "hit": false,
      "t": 17597.184,
      "d": 666.5599999999977,
      "v": 77
    },
    {
      "midi": 49,
      "hit": false,
      "t": 18397.056,
      "d": 486.58880000000136,
      "v": 77
    },
    {
      "midi": 57,
      "hit": false,
      "t": 18397.056,
      "d": 503.252800000002,
      "v": 77
    },
    {
      "midi": 61,
      "hit": false,
      "t": 18397.056,
      "d": 486.58880000000136,
      "v": 77
    },
    {
      "midi": 69,
      "hit": false,
      "t": 18397.056,
      "d": 503.252800000002,
      "v": 77
    },
    {
      "midi": 47,
      "hit": false,
      "t": 19196.928000000004,
      "d": 616.5679999999993,
      "v": 77
    },
    {
      "midi": 55,
      "hit": false,
      "t": 19196.928000000004,
      "d": 616.5679999999993,
      "v": 77
    },
    {
      "midi": 59,
      "hit": false,
      "t": 19196.928000000004,
      "d": 616.5679999999993,
      "v": 77
    },
    {
      "midi": 67,
      "hit": false,
      "t": 19196.928000000004,
      "d": 616.5679999999993,
      "v": 77
    },
    {
      "midi": 45,
      "hit": false,
      "t": 19996.800000000003,
      "d": 436.59679999999935,
      "v": 77
    },
    {
      "midi": 54,
      "hit": false,
      "t": 19996.800000000003,
      "d": 549.9120000000003,
      "v": 77
    },
    {
      "midi": 57,
      "hit": false,
      "t": 19996.800000000003,
      "d": 436.59679999999935,
      "v": 77
    },
    {
      "midi": 66,
      "hit": false,
      "t": 19996.800000000003,
      "d": 549.9120000000003,
      "v": 77
    },
    {
      "midi": 40,
      "hit": false,
      "t": 20796.672000000002,
      "d": 978.1768000000011,
      "v": 77
    },
    {
      "midi": 52,
      "hit": false,
      "t": 20796.672000000002,
      "d": 978.1768000000011,
      "v": 77
    },
    {
      "midi": 52,
      "hit": false,
      "t": 21196.608,
      "d": 678.2248000000036,
      "v": 77
    },
    {
      "midi": 64,
      "hit": false,
      "t": 21196.608,
      "d": 678.2248000000036,
      "v": 77
    },
    {
      "midi": 55,
      "hit": false,
      "t": 21596.544,
      "d": 278.2888000000021,
      "v": 77
    },
    {
      "midi": 67,
      "hit": false,
      "t": 21596.544,
      "d": 278.2888000000021,
      "v": 77
    },
    {
      "midi": 57,
      "hit": false,
      "t": 22396.416000000005,
      "d": 516.5839999999989,
      "v": 68
    },
    {
      "midi": 52,
      "hit": false,
      "t": 22396.416000000005,
      "d": 1483.0959999999977,
      "v": 77
    },
    {
      "midi": 45,
      "hit": false,
      "t": 22396.416000000005,
      "d": 1486.4287999999979,
      "v": 77
    },
    {
      "midi": 69,
      "hit": false,
      "t": 22396.416000000005,
      "d": 516.5839999999989,
      "v": 68
    },
    {
      "midi": 64,
      "hit": false,
      "t": 22396.416000000005,
      "d": 1483.0959999999977,
      "v": 77
    },
    {
      "midi": 57,
      "hit": false,
      "t": 22396.416000000005,
      "d": 1486.4287999999979,
      "v": 77
    },
    {
      "midi": 62,
      "hit": false,
      "t": 23196.288000000004,
      "d": 453.2607999999964,
      "v": 77
    },
    {
      "midi": 74,
      "hit": false,
      "t": 23196.288000000004,
      "d": 453.2607999999964,
      "v": 77
    },
    {
      "midi": 61,
      "hit": false,
      "t": 23596.224000000002,
      "d": 269.95679999999993,
      "v": 77
    },
    {
      "midi": 73,
      "hit": false,
      "t": 23596.224000000002,
      "d": 269.95679999999993,
      "v": 77
    },
    {
      "midi": 55,
      "hit": false,
      "t": 23996.160000000003,
      "d": 1024.8359999999993,
      "v": 77
    },
    {
      "midi": 59,
      "hit": false,
      "t": 23996.160000000003,
      "d": 1036.500799999998,
      "v": 77
    },
    {
      "midi": 43,
      "hit": false,
      "t": 23996.160000000003,
      "d": 1044.8327999999965,
      "v": 77
    },
    {
      "midi": 62,
      "hit": false,
      "t": 23996.160000000003,
      "d": 1049.8319999999949,
      "v": 77
    },
    {
      "midi": 67,
      "hit": false,
      "t": 23996.160000000003,
      "d": 1024.8359999999993,
      "v": 77
    },
    {
      "midi": 71,
      "hit": false,
      "t": 23996.160000000003,
      "d": 1036.500799999998,
      "v": 77
    },
    {
      "midi": 55,
      "hit": false,
      "t": 23996.160000000003,
      "d": 1044.8327999999965,
      "v": 77
    },
    {
      "midi": 74,
      "hit": false,
      "t": 23996.160000000003,
      "d": 1049.8319999999949,
      "v": 77
    },
    {
      "midi": 54,
      "hit": false,
      "t": 25595.904,
      "d": 1311.4568,
      "v": 77
    },
    {
      "midi": 57,
      "hit": false,
      "t": 25595.904,
      "d": 1311.4568,
      "v": 77
    },
    {
      "midi": 61,
      "hit": false,
      "t": 25595.904,
      "d": 1316.4559999999983,
      "v": 77
    },
    {
      "midi": 64,
      "hit": false,
      "t": 25595.904,
      "d": 1349.7839999999997,
      "v": 77
    },
    {
      "midi": 66,
      "hit": false,
      "t": 25595.904,
      "d": 1311.4568,
      "v": 77
    },
    {
      "midi": 69,
      "hit": false,
      "t": 25595.904,
      "d": 1311.4568,
      "v": 77
    },
    {
      "midi": 73,
      "hit": false,
      "t": 25595.904,
      "d": 1316.4559999999983,
      "v": 77
    },
    {
      "midi": 76,
      "hit": false,
      "t": 25595.904,
      "d": 1349.7839999999997,
      "v": 77
    },
    {
      "midi": 62,
      "hit": false,
      "t": 27195.647999999997,
      "d": 499.91999999999825,
      "v": 77
    },
    {
      "midi": 66,
      "hit": false,
      "t": 27195.647999999997,
      "d": 503.2527999999984,
      "v": 77
    },
    {
      "midi": 59,
      "hit": false,
      "t": 27195.647999999997,
      "d": 541.5799999999981,
      "v": 77
    },
    {
      "midi": 47,
      "hit": false,
      "t": 27195.647999999997,
      "d": 561.5767999999989,
      "v": 77
    },
    {
      "midi": 74,
      "hit": false,
      "t": 27195.647999999997,
      "d": 499.91999999999825,
      "v": 77
    },
    {
      "midi": 78,
      "hit": false,
      "t": 27195.647999999997,
      "d": 503.2527999999984,
      "v": 77
    },
    {
      "midi": 71,
      "hit": false,
      "t": 27195.647999999997,
      "d": 541.5799999999981,
      "v": 77
    },
    {
      "midi": 59,
      "hit": false,
      "t": 27195.647999999997,
      "d": 561.5767999999989,
      "v": 77
    },
    {
      "midi": 57,
      "hit": false,
      "t": 27995.519999999997,
      "d": 574.9080000000031,
      "v": 77
    },
    {
      "midi": 45,
      "hit": false,
      "t": 27995.519999999997,
      "d": 583.2400000000016,
      "v": 77
    },
    {
      "midi": 69,
      "hit": false,
      "t": 27995.519999999997,
      "d": 574.9080000000031,
      "v": 77
    },
    {
      "midi": 57,
      "hit": false,
      "t": 27995.519999999997,
      "d": 583.2400000000016,
      "v": 77
    },
    {
      "midi": 43,
      "hit": false,
      "t": 28795.392,
      "d": 558.2439999999988,
      "v": 77
    },
    {
      "midi": 55,
      "hit": false,
      "t": 28795.392,
      "d": 699.887999999999,
      "v": 77
    },
    {
      "midi": 55,
      "hit": false,
      "t": 28795.392,
      "d": 558.2439999999988,
      "v": 77
    },
    {
      "midi": 67,
      "hit": false,
      "t": 28795.392,
      "d": 699.887999999999,
      "v": 77
    },
    {
      "midi": 54,
      "hit": false,
      "t": 29595.264,
      "d": 299.95200000000114,
      "v": 77
    },
    {
      "midi": 42,
      "hit": false,
      "t": 29595.264,
      "d": 303.28480000000127,
      "v": 77
    },
    {
      "midi": 66,
      "hit": false,
      "t": 29595.264,
      "d": 299.95200000000114,
      "v": 77
    },
    {
      "midi": 54,
      "hit": false,
      "t": 29595.264,
      "d": 303.28480000000127,
      "v": 77
    },
    {
      "midi": 55,
      "hit": false,
      "t": 30395.136,
      "d": 399.9360000000015,
      "v": 77
    },
    {
      "midi": 52,
      "hit": false,
      "t": 30395.136,
      "d": 849.8640000000014,
      "v": 77
    },
    {
      "midi": 59,
      "hit": false,
      "t": 30395.136,
      "d": 899.8559999999998,
      "v": 77
    },
    {
      "midi": 40,
      "hit": false,
      "t": 30395.136,
      "d": 1369.7808000000005,
      "v": 77
    },
    {
      "midi": 67,
      "hit": false,
      "t": 30395.136,
      "d": 399.9360000000015,
      "v": 77
    },
    {
      "midi": 64,
      "hit": false,
      "t": 30395.136,
      "d": 849.8640000000014,
      "v": 77
    },
    {
      "midi": 71,
      "hit": false,
      "t": 30395.136,
      "d": 899.8559999999998,
      "v": 77
    },
    {
      "midi": 52,
      "hit": false,
      "t": 30395.136,
      "d": 1369.7808000000005,
      "v": 77
    },
    {
      "midi": 55,
      "hit": false,
      "t": 30795.072,
      "d": 824.8679999999986,
      "v": 77
    },
    {
      "midi": 67,
      "hit": false,
      "t": 30795.072,
      "d": 824.8679999999986,
      "v": 77
    },
    {
      "midi": 64,
      "hit": false,
      "t": 31195.008,
      "d": 441.59599999999773,
      "v": 77
    },
    {
      "midi": 76,
      "hit": false,
      "t": 31195.008,
      "d": 441.59599999999773,
      "v": 77
    },
    {
      "midi": 67,
      "hit": false,
      "t": 31594.944,
      "d": 411.6007999999965,
      "v": 77
    },
    {
      "midi": 79,
      "hit": false,
      "t": 31594.944,
      "d": 411.6007999999965,
      "v": 77
    },
    {
      "midi": 66,
      "hit": false,
      "t": 32394.816,
      "d": 578.2407999999996,
      "v": 77
    },
    {
      "midi": 78,
      "hit": false,
      "t": 32394.816,
      "d": 578.2407999999996,
      "v": 77
    },
    {
      "midi": 62,
      "hit": false,
      "t": 32794.752,
      "d": 761.544799999996,
      "v": 77
    },
    {
      "midi": 74,
      "hit": false,
      "t": 32794.752,
      "d": 761.544799999996,
      "v": 77
    },
    {
      "midi": 55,
      "hit": false,
      "t": 33994.56,
      "d": 774.8759999999966,
      "v": 77
    },
    {
      "midi": 67,
      "hit": false,
      "t": 33994.56,
      "d": 774.8759999999966,
      "v": 77
    },
    {
      "midi": 62,
      "hit": false,
      "t": 34394.496,
      "d": 299.9519999999975,
      "v": 77
    },
    {
      "midi": 74,
      "hit": false,
      "t": 34394.496,
      "d": 299.9519999999975,
      "v": 77
    },
    {
      "midi": 67,
      "hit": false,
      "t": 34794.43199999999,
      "d": 158.30799999999726,
      "v": 77
    },
    {
      "midi": 79,
      "hit": false,
      "t": 34794.43199999999,
      "d": 158.30799999999726,
      "v": 77
    },
    {
      "midi": 45,
      "hit": false,
      "t": 35194.36799999999,
      "d": 1599.744000000006,
      "v": 77
    },
    {
      "midi": 57,
      "hit": false,
      "t": 35194.36799999999,
      "d": 1599.744000000006,
      "v": 77
    },
    {
      "midi": 52,
      "hit": false,
      "t": 35594.30399999999,
      "d": 1199.8080000000045,
      "v": 77
    },
    {
      "midi": 64,
      "hit": false,
      "t": 35594.30399999999,
      "d": 1199.8080000000045,
      "v": 77
    },
    {
      "midi": 62,
      "hit": false,
      "t": 35994.23999999999,
      "d": 778.2088000000003,
      "v": 77
    },
    {
      "midi": 74,
      "hit": false,
      "t": 35994.23999999999,
      "d": 778.2088000000003,
      "v": 77
    },
    {
      "midi": 61,
      "hit": false,
      "t": 36794.111999999994,
      "d": 1324.7880000000005,
      "v": 74
    },
    {
      "midi": 52,
      "hit": false,
      "t": 36794.111999999994,
      "d": 1361.4487999999983,
      "v": 77
    },
    {
      "midi": 45,
      "hit": false,
      "t": 36794.111999999994,
      "d": 1391.4439999999959,
      "v": 77
    },
    {
      "midi": 73,
      "hit": false,
      "t": 36794.111999999994,
      "d": 1324.7880000000005,
      "v": 74
    },
    {
      "midi": 64,
      "hit": false,
      "t": 36794.111999999994,
      "d": 1361.4487999999983,
      "v": 77
    },
    {
      "midi": 57,
      "hit": false,
      "t": 36794.111999999994,
      "d": 1391.4439999999959,
      "v": 77
    },
    {
      "midi": 38,
      "hit": false,
      "t": 38393.85599999999,
      "d": 1074.827999999994,
      "v": 77
    },
    {
      "midi": 62,
      "hit": false,
      "t": 38393.85599999999,
      "d": 1336.4527999999918,
      "v": 77
    },
    {
      "midi": 66,
      "hit": false,
      "t": 38393.85599999999,
      "d": 1369.7807999999932,
      "v": 77
    },
    {
      "midi": 57,
      "hit": false,
      "t": 38393.85599999999,
      "d": 1416.439999999995,
      "v": 77
    },
    {
      "midi": 50,
      "hit": false,
      "t": 38393.85599999999,
      "d": 1074.827999999994,
      "v": 77
    },
    {
      "midi": 74,
      "hit": false,
      "t": 38393.85599999999,
      "d": 1336.4527999999918,
      "v": 77
    },
    {
      "midi": 78,
      "hit": false,
      "t": 38393.85599999999,
      "d": 1369.7807999999932,
      "v": 77
    },
    {
      "midi": 69,
      "hit": false,
      "t": 38393.85599999999,
      "d": 1416.439999999995,
      "v": 77
    },
    {
      "midi": 42,
      "hit": false,
      "t": 39993.599999999984,
      "d": 1099.8240000000005,
      "v": 77
    },
    {
      "midi": 62,
      "hit": false,
      "t": 39993.599999999984,
      "d": 1099.8240000000005,
      "v": 77
    },
    {
      "midi": 66,
      "hit": false,
      "t": 39993.599999999984,
      "d": 1108.1560000000027,
      "v": 77
    },
    {
      "midi": 57,
      "hit": false,
      "t": 39993.599999999984,
      "d": 1144.8168000000005,
      "v": 77
    },
    {
      "midi": 54,
      "hit": false,
      "t": 39993.599999999984,
      "d": 1099.8240000000005,
      "v": 77
    },
    {
      "midi": 74,
      "hit": false,
      "t": 39993.599999999984,
      "d": 1099.8240000000005,
      "v": 77
    },
    {
      "midi": 78,
      "hit": false,
      "t": 39993.599999999984,
      "d": 1108.1560000000027,
      "v": 77
    },
    {
      "midi": 69,
      "hit": false,
      "t": 39993.599999999984,
      "d": 1144.8168000000005,
      "v": 77
    },
    {
      "midi": 59,
      "hit": false,
      "t": 41593.34399999999,
      "d": 2661.2407999999996,
      "v": 77
    },
    {
      "midi": 55,
      "hit": false,
      "t": 41593.34399999999,
      "d": 2674.572,
      "v": 77
    },
    {
      "midi": 62,
      "hit": false,
      "t": 41593.34399999999,
      "d": 2699.5679999999993,
      "v": 77
    },
    {
      "midi": 43,
      "hit": false,
      "t": 41593.34399999999,
      "d": 2786.220800000003,
      "v": 77
    },
    {
      "midi": 71,
      "hit": false,
      "t": 41593.34399999999,
      "d": 2661.2407999999996,
      "v": 77
    },
    {
      "midi": 67,
      "hit": false,
      "t": 41593.34399999999,
      "d": 2674.572,
      "v": 77
    },
    {
      "midi": 74,
      "hit": false,
      "t": 41593.34399999999,
      "d": 2699.5679999999993,
      "v": 77
    },
    {
      "midi": 55,
      "hit": false,
      "t": 41593.34399999999,
      "d": 2786.220800000003,
      "v": 77
    },
    {
      "midi": 57,
      "hit": false,
      "t": 44792.831999999995,
      "d": 661.5607999999993,
      "v": 77
    },
    {
      "midi": 50,
      "hit": false,
      "t": 44792.831999999995,
      "d": 666.5599999999977,
      "v": 77
    },
    {
      "midi": 69,
      "hit": false,
      "t": 44792.831999999995,
      "d": 661.5607999999993,
      "v": 77
    },
    {
      "midi": 62,
      "hit": false,
      "t": 44792.831999999995,
      "d": 666.5599999999977,
      "v": 77
    },
    {
      "midi": 49,
      "hit": false,
      "t": 45592.70399999999,
      "d": 486.5887999999977,
      "v": 77
    },
    {
      "midi": 57,
      "hit": false,
      "t": 45592.70399999999,
      "d": 503.25279999999475,
      "v": 77
    },
    {
      "midi": 61,
      "hit": false,
      "t": 45592.70399999999,
      "d": 486.5887999999977,
      "v": 77
    },
    {
      "midi": 69,
      "hit": false,
      "t": 45592.70399999999,
      "d": 503.25279999999475,
      "v": 77
    },
    {
      "midi": 47,
      "hit": false,
      "t": 46392.57599999998,
      "d": 616.5679999999993,
      "v": 77
    },
    {
      "midi": 55,
      "hit": false,
      "t": 46392.57599999998,
      "d": 616.5679999999993,
      "v": 77
    },
    {
      "midi": 59,
      "hit": false,
      "t": 46392.57599999998,
      "d": 616.5679999999993,
      "v": 77
    },
    {
      "midi": 67,
      "hit": false,
      "t": 46392.57599999998,
      "d": 616.5679999999993,
      "v": 77
    },
    {
      "midi": 45,
      "hit": false,
      "t": 47192.44799999998,
      "d": 436.5968000000066,
      "v": 77
    },
    {
      "midi": 54,
      "hit": false,
      "t": 47192.44799999998,
      "d": 549.9120000000039,
      "v": 77
    },
    {
      "midi": 57,
      "hit": false,
      "t": 47192.44799999998,
      "d": 436.5968000000066,
      "v": 77
    },
    {
      "midi": 66,
      "hit": false,
      "t": 47192.44799999998,
      "d": 549.9120000000039,
      "v": 77
    },
    {
      "midi": 40,
      "hit": false,
      "t": 47992.319999999985,
      "d": 978.1768000000011,
      "v": 77
    },
    {
      "midi": 52,
      "hit": false,
      "t": 47992.319999999985,
      "d": 978.1768000000011,
      "v": 77
    },
    {
      "midi": 52,
      "hit": false,
      "t": 48392.25599999999,
      "d": 678.2247999999963,
      "v": 77
    },
    {
      "midi": 64,
      "hit": false,
      "t": 48392.25599999999,
      "d": 678.2247999999963,
      "v": 77
    },
    {
      "midi": 55,
      "hit": false,
      "t": 48792.19199999999,
      "d": 278.2887999999948,
      "v": 77
    },
    {
      "midi": 67,
      "hit": false,
      "t": 48792.19199999999,
      "d": 278.2887999999948,
      "v": 77
    },
    {
      "midi": 57,
      "hit": false,
      "t": 49592.063999999984,
      "d": 516.5840000000026,
      "v": 68
    },
    {
      "midi": 52,
      "hit": false,
      "t": 49592.063999999984,
      "d": 1483.096000000005,
      "v": 77
    },
    {
      "midi": 45,
      "hit": false,
      "t": 49592.063999999984,
      "d": 1486.4288000000015,
      "v": 77
    },
    {
      "midi": 69,
      "hit": false,
      "t": 49592.063999999984,
      "d": 516.5840000000026,
      "v": 68
    },
    {
      "midi": 64,
      "hit": false,
      "t": 49592.063999999984,
      "d": 1483.096000000005,
      "v": 77
    },
    {
      "midi": 57,
      "hit": false,
      "t": 49592.063999999984,
      "d": 1486.4288000000015,
      "v": 77
    },
    {
      "midi": 62,
      "hit": false,
      "t": 50391.93599999999,
      "d": 453.26080000000366,
      "v": 77
    },
    {
      "midi": 74,
      "hit": false,
      "t": 50391.93599999999,
      "d": 453.26080000000366,
      "v": 77
    },
    {
      "midi": 61,
      "hit": false,
      "t": 50791.87199999999,
      "d": 269.95679999999993,
      "v": 77
    },
    {
      "midi": 73,
      "hit": false,
      "t": 50791.87199999999,
      "d": 269.95679999999993,
      "v": 77
    },
    {
      "midi": 55,
      "hit": false,
      "t": 51191.80799999998,
      "d": 1024.8359999999957,
      "v": 77
    },
    {
      "midi": 59,
      "hit": false,
      "t": 51191.80799999998,
      "d": 1036.5007999999943,
      "v": 77
    },
    {
      "midi": 43,
      "hit": false,
      "t": 51191.80799999998,
      "d": 1044.8327999999965,
      "v": 77
    },
    {
      "midi": 62,
      "hit": false,
      "t": 51191.80799999998,
      "d": 1049.8319999999949,
      "v": 77
    },
    {
      "midi": 67,
      "hit": false,
      "t": 51191.80799999998,
      "d": 1024.8359999999957,
      "v": 77
    },
    {
      "midi": 71,
      "hit": false,
      "t": 51191.80799999998,
      "d": 1036.5007999999943,
      "v": 77
    },
    {
      "midi": 55,
      "hit": false,
      "t": 51191.80799999998,
      "d": 1044.8327999999965,
      "v": 77
    },
    {
      "midi": 74,
      "hit": false,
      "t": 51191.80799999998,
      "d": 1049.8319999999949,
      "v": 77
    },
    {
      "midi": 54,
      "hit": false,
      "t": 52791.551999999974,
      "d": 1311.4568,
      "v": 77
    },
    {
      "midi": 57,
      "hit": false,
      "t": 52791.551999999974,
      "d": 1311.4568,
      "v": 77
    },
    {
      "midi": 61,
      "hit": false,
      "t": 52791.551999999974,
      "d": 1316.4559999999983,
      "v": 77
    },
    {
      "midi": 64,
      "hit": false,
      "t": 52791.551999999974,
      "d": 1349.7839999999997,
      "v": 77
    },
    {
      "midi": 66,
      "hit": false,
      "t": 52791.551999999974,
      "d": 1311.4568,
      "v": 77
    },
    {
      "midi": 69,
      "hit": false,
      "t": 52791.551999999974,
      "d": 1311.4568,
      "v": 77
    },
    {
      "midi": 73,
      "hit": false,
      "t": 52791.551999999974,
      "d": 1316.4559999999983,
      "v": 77
    },
    {
      "midi": 76,
      "hit": false,
      "t": 52791.551999999974,
      "d": 1349.7839999999997,
      "v": 77
    },
    {
      "midi": 62,
      "hit": false,
      "t": 54391.29599999997,
      "d": 499.92000000000553,
      "v": 77
    },
    {
      "midi": 66,
      "hit": false,
      "t": 54391.29599999997,
      "d": 503.252800000002,
      "v": 77
    },
    {
      "midi": 59,
      "hit": false,
      "t": 54391.29599999997,
      "d": 541.5800000000017,
      "v": 77
    },
    {
      "midi": 47,
      "hit": false,
      "t": 54391.29599999997,
      "d": 561.5768000000025,
      "v": 77
    },
    {
      "midi": 74,
      "hit": false,
      "t": 54391.29599999997,
      "d": 499.92000000000553,
      "v": 77
    },
    {
      "midi": 78,
      "hit": false,
      "t": 54391.29599999997,
      "d": 503.252800000002,
      "v": 77
    },
    {
      "midi": 71,
      "hit": false,
      "t": 54391.29599999997,
      "d": 541.5800000000017,
      "v": 77
    },
    {
      "midi": 59,
      "hit": false,
      "t": 54391.29599999997,
      "d": 561.5768000000025,
      "v": 77
    },
    {
      "midi": 57,
      "hit": false,
      "t": 55191.167999999976,
      "d": 574.9079999999958,
      "v": 77
    },
    {
      "midi": 45,
      "hit": false,
      "t": 55191.167999999976,
      "d": 583.239999999998,
      "v": 77
    },
    {
      "midi": 69,
      "hit": false,
      "t": 55191.167999999976,
      "d": 574.9079999999958,
      "v": 77
    },
    {
      "midi": 57,
      "hit": false,
      "t": 55191.167999999976,
      "d": 583.239999999998,
      "v": 77
    },
    {
      "midi": 43,
      "hit": false,
      "t": 55991.03999999997,
      "d": 558.2439999999988,
      "v": 77
    },
    {
      "midi": 55,
      "hit": false,
      "t": 55991.03999999997,
      "d": 699.887999999999,
      "v": 77
    },
    {
      "midi": 55,
      "hit": false,
      "t": 55991.03999999997,
      "d": 558.2439999999988,
      "v": 77
    },
    {
      "midi": 67,
      "hit": false,
      "t": 55991.03999999997,
      "d": 699.887999999999,
      "v": 77
    },
    {
      "midi": 54,
      "hit": false,
      "t": 56790.91199999997,
      "d": 299.9519999999975,
      "v": 77
    },
    {
      "midi": 42,
      "hit": false,
      "t": 56790.91199999997,
      "d": 303.284799999994,
      "v": 77
    },
    {
      "midi": 66,
      "hit": false,
      "t": 56790.91199999997,
      "d": 299.9519999999975,
      "v": 77
    },
    {
      "midi": 54,
      "hit": false,
      "t": 56790.91199999997,
      "d": 303.284799999994,
      "v": 77
    },
    {
      "midi": 55,
      "hit": false,
      "t": 57590.78399999996,
      "d": 399.9360000000015,
      "v": 77
    },
    {
      "midi": 52,
      "hit": false,
      "t": 57590.78399999996,
      "d": 849.8639999999941,
      "v": 77
    },
    {
      "midi": 59,
      "hit": false,
      "t": 57590.78399999996,
      "d": 899.8559999999925,
      "v": 77
    },
    {
      "midi": 40,
      "hit": false,
      "t": 57590.78399999996,
      "d": 1369.780799999986,
      "v": 77
    },
    {
      "midi": 67,
      "hit": false,
      "t": 57590.78399999996,
      "d": 399.9360000000015,
      "v": 77
    },
    {
      "midi": 64,
      "hit": false,
      "t": 57590.78399999996,
      "d": 849.8639999999941,
      "v": 77
    },
    {
      "midi": 71,
      "hit": false,
      "t": 57590.78399999996,
      "d": 899.8559999999925,
      "v": 77
    },
    {
      "midi": 52,
      "hit": false,
      "t": 57590.78399999996,
      "d": 1369.780799999986,
      "v": 77
    },
    {
      "midi": 55,
      "hit": false,
      "t": 57990.719999999965,
      "d": 824.8679999999877,
      "v": 77
    },
    {
      "midi": 67,
      "hit": false,
      "t": 57990.719999999965,
      "d": 824.8679999999877,
      "v": 77
    },
    {
      "midi": 64,
      "hit": false,
      "t": 58390.65599999996,
      "d": 441.59599999999045,
      "v": 77
    },
    {
      "midi": 76,
      "hit": false,
      "t": 58390.65599999996,
      "d": 441.59599999999045,
      "v": 77
    },
    {
      "midi": 67,
      "hit": false,
      "t": 58790.59199999995,
      "d": 411.6007999999929,
      "v": 77
    },
    {
      "midi": 79,
      "hit": false,
      "t": 58790.59199999995,
      "d": 411.6007999999929,
      "v": 77
    },
    {
      "midi": 66,
      "hit": false,
      "t": 59590.46399999994,
      "d": 578.2407999999996,
      "v": 77
    },
    {
      "midi": 78,
      "hit": false,
      "t": 59590.46399999994,
      "d": 578.2407999999996,
      "v": 77
    },
    {
      "midi": 62,
      "hit": false,
      "t": 59990.39999999994,
      "d": 761.544799999996,
      "v": 77
    },
    {
      "midi": 74,
      "hit": false,
      "t": 59990.39999999994,
      "d": 761.544799999996,
      "v": 77
    },
    {
      "midi": 64,
      "hit": false,
      "t": 60790.27199999994,
      "d": 78.32080000000133,
      "v": 55
    },
    {
      "midi": 52,
      "hit": false,
      "t": 60790.27199999994,
      "d": 116.64800000000105,
      "v": 77
    },
    {
      "midi": 57,
      "hit": false,
      "t": 60790.27199999994,
      "d": 119.98079999999754,
      "v": 71
    },
    {
      "midi": 62,
      "hit": false,
      "t": 60790.27199999994,
      "d": 119.98079999999754,
      "v": 76
    },
    {
      "midi": 76,
      "hit": false,
      "t": 60790.27199999994,
      "d": 78.32080000000133,
      "v": 55
    },
    {
      "midi": 64,
      "hit": false,
      "t": 60790.27199999994,
      "d": 116.64800000000105,
      "v": 77
    },
    {
      "midi": 69,
      "hit": false,
      "t": 60790.27199999994,
      "d": 119.98079999999754,
      "v": 71
    },
    {
      "midi": 74,
      "hit": false,
      "t": 60790.27199999994,
      "d": 119.98079999999754,
      "v": 76
    },
    {
      "midi": 45,
      "hit": false,
      "t": 61190.20799999993,
      "d": 111.64880000000267,
      "v": 77
    },
    {
      "midi": 52,
      "hit": false,
      "t": 61190.20799999993,
      "d": 174.97200000000157,
      "v": 77
    },
    {
      "midi": 64,
      "hit": false,
      "t": 61190.20799999993,
      "d": 174.97200000000157,
      "v": 77
    },
    {
      "midi": 57,
      "hit": false,
      "t": 61190.20799999993,
      "d": 186.63680000000022,
      "v": 76
    },
    {
      "midi": 62,
      "hit": false,
      "t": 61190.20799999993,
      "d": 194.96880000000237,
      "v": 77
    },
    {
      "midi": 57,
      "hit": false,
      "t": 61190.20799999993,
      "d": 111.64880000000267,
      "v": 77
    },
    {
      "midi": 64,
      "hit": false,
      "t": 61190.20799999993,
      "d": 174.97200000000157,
      "v": 77
    },
    {
      "midi": 76,
      "hit": false,
      "t": 61190.20799999993,
      "d": 174.97200000000157,
      "v": 77
    },
    {
      "midi": 69,
      "hit": false,
      "t": 61190.20799999993,
      "d": 186.63680000000022,
      "v": 76
    },
    {
      "midi": 74,
      "hit": false,
      "t": 61190.20799999993,
      "d": 194.96880000000237,
      "v": 77
    },
    {
      "midi": 45,
      "hit": false,
      "t": 61590.143999999935,
      "d": 199.96800000000076,
      "v": 77
    },
    {
      "midi": 57,
      "hit": false,
      "t": 61590.143999999935,
      "d": 216.6319999999978,
      "v": 77
    },
    {
      "midi": 64,
      "hit": false,
      "t": 61590.143999999935,
      "d": 216.6319999999978,
      "v": 77
    },
    {
      "midi": 62,
      "hit": false,
      "t": 61590.143999999935,
      "d": 233.29599999999482,
      "v": 77
    },
    {
      "midi": 52,
      "hit": false,
      "t": 61590.143999999935,
      "d": 241.62799999999697,
      "v": 77
    },
    {
      "midi": 57,
      "hit": false,
      "t": 61590.143999999935,
      "d": 199.96800000000076,
      "v": 77
    },
    {
      "midi": 69,
      "hit": false,
      "t": 61590.143999999935,
      "d": 216.6319999999978,
      "v": 77
    },
    {
      "midi": 76,
      "hit": false,
      "t": 61590.143999999935,
      "d": 216.6319999999978,
      "v": 77
    },
    {
      "midi": 74,
      "hit": false,
      "t": 61590.143999999935,
      "d": 233.29599999999482,
      "v": 77
    },
    {
      "midi": 64,
      "hit": false,
      "t": 61590.143999999935,
      "d": 241.62799999999697,
      "v": 77
    },
    {
      "midi": 45,
      "hit": false,
      "t": 61990.07999999993,
      "d": 183.30399999999645,
      "v": 77
    },
    {
      "midi": 52,
      "hit": false,
      "t": 61990.07999999993,
      "d": 203.30079999999725,
      "v": 77
    },
    {
      "midi": 57,
      "hit": false,
      "t": 61990.07999999993,
      "d": 211.6327999999994,
      "v": 77
    },
    {
      "midi": 62,
      "hit": false,
      "t": 61990.07999999993,
      "d": 219.96480000000156,
      "v": 77
    },
    {
      "midi": 64,
      "hit": false,
      "t": 61990.07999999993,
      "d": 219.96480000000156,
      "v": 77
    },
    {
      "midi": 57,
      "hit": false,
      "t": 61990.07999999993,
      "d": 183.30399999999645,
      "v": 77
    },
    {
      "midi": 64,
      "hit": false,
      "t": 61990.07999999993,
      "d": 203.30079999999725,
      "v": 77
    },
    {
      "midi": 69,
      "hit": false,
      "t": 61990.07999999993,
      "d": 211.6327999999994,
      "v": 77
    },
    {
      "midi": 74,
      "hit": false,
      "t": 61990.07999999993,
      "d": 219.96480000000156,
      "v": 77
    },
    {
      "midi": 76,
      "hit": false,
      "t": 61990.07999999993,
      "d": 219.96480000000156,
      "v": 77
    },
    {
      "midi": 45,
      "hit": false,
      "t": 62390.01599999993,
      "d": 194.96880000000237,
      "v": 77
    },
    {
      "midi": 52,
      "hit": false,
      "t": 62390.01599999993,
      "d": 211.6327999999994,
      "v": 77
    },
    {
      "midi": 57,
      "hit": false,
      "t": 62390.01599999993,
      "d": 211.6327999999994,
      "v": 77
    },
    {
      "midi": 62,
      "hit": false,
      "t": 62390.01599999993,
      "d": 211.6327999999994,
      "v": 77
    },
    {
      "midi": 64,
      "hit": false,
      "t": 62390.01599999993,
      "d": 216.6319999999978,
      "v": 77
    },
    {
      "midi": 57,
      "hit": false,
      "t": 62390.01599999993,
      "d": 194.96880000000237,
      "v": 77
    },
    {
      "midi": 64,
      "hit": false,
      "t": 62390.01599999993,
      "d": 211.6327999999994,
      "v": 77
    },
    {
      "midi": 69,
      "hit": false,
      "t": 62390.01599999993,
      "d": 211.6327999999994,
      "v": 77
    },
    {
      "midi": 74,
      "hit": false,
      "t": 62390.01599999993,
      "d": 211.6327999999994,
      "v": 77
    },
    {
      "midi": 76,
      "hit": false,
      "t": 62390.01599999993,
      "d": 216.6319999999978,
      "v": 77
    },
    {
      "midi": 45,
      "hit": false,
      "t": 62789.951999999925,
      "d": 249.95999999999913,
      "v": 77
    },
    {
      "midi": 52,
      "hit": false,
      "t": 62789.951999999925,
      "d": 258.2920000000013,
      "v": 77
    },
    {
      "midi": 64,
      "hit": false,
      "t": 62789.951999999925,
      "d": 266.62400000000343,
      "v": 77
    },
    {
      "midi": 57,
      "hit": false,
      "t": 62789.951999999925,
      "d": 274.9560000000056,
      "v": 77
    },
    {
      "midi": 62,
      "hit": false,
      "t": 62789.951999999925,
      "d": 274.9560000000056,
      "v": 77
    },
    {
      "midi": 57,
      "hit": false,
      "t": 62789.951999999925,
      "d": 249.95999999999913,
      "v": 77
    },
    {
      "midi": 64,
      "hit": false,
      "t": 62789.951999999925,
      "d": 258.2920000000013,
      "v": 77
    },
    {
      "midi": 76,
      "hit": false,
      "t": 62789.951999999925,
      "d": 266.62400000000343,
      "v": 77
    },
    {
      "midi": 69,
      "hit": false,
      "t": 62789.951999999925,
      "d": 274.9560000000056,
      "v": 77
    },
    {
      "midi": 74,
      "hit": false,
      "t": 62789.951999999925,
      "d": 274.9560000000056,
      "v": 77
    },
    {
      "midi": 45,
      "hit": false,
      "t": 63189.88799999993,
      "d": 249.95999999999913,
      "v": 77
    },
    {
      "midi": 52,
      "hit": false,
      "t": 63189.88799999993,
      "d": 261.6247999999978,
      "v": 77
    },
    {
      "midi": 64,
      "hit": false,
      "t": 63189.88799999993,
      "d": 266.62399999999616,
      "v": 77
    },
    {
      "midi": 57,
      "hit": false,
      "t": 63189.88799999993,
      "d": 274.9559999999983,
      "v": 77
    },
    {
      "midi": 62,
      "hit": false,
      "t": 63189.88799999993,
      "d": 283.28800000000047,
      "v": 77
    },
    {
      "midi": 57,
      "hit": false,
      "t": 63189.88799999993,
      "d": 249.95999999999913,
      "v": 77
    },
    {
      "midi": 64,
      "hit": false,
      "t": 63189.88799999993,
      "d": 261.6247999999978,
      "v": 77
    },
    {
      "midi": 76,
      "hit": false,
      "t": 63189.88799999993,
      "d": 266.62399999999616,
      "v": 77
    },
    {
      "midi": 69,
      "hit": false,
      "t": 63189.88799999993,
      "d": 274.9559999999983,
      "v": 77
    },
    {
      "midi": 74,
      "hit": false,
      "t": 63189.88799999993,
      "d": 283.28800000000047,
      "v": 77
    },
    {
      "midi": 52,
      "hit": false,
      "t": 63589.823999999935,
      "d": 258.2920000000013,
      "v": 77
    },
    {
      "midi": 45,
      "hit": false,
      "t": 63589.823999999935,
      "d": 274.9559999999983,
      "v": 77
    },
    {
      "midi": 62,
      "hit": false,
      "t": 63589.823999999935,
      "d": 299.9519999999975,
      "v": 77
    },
    {
      "midi": 57,
      "hit": false,
      "t": 63589.823999999935,
      "d": 316.61599999999453,
      "v": 77
    },
    {
      "midi": 64,
      "hit": false,
      "t": 63589.823999999935,
      "d": 316.61599999999453,
      "v": 77
    },
    {
      "midi": 64,
      "hit": false,
      "t": 63589.823999999935,
      "d": 258.2920000000013,
      "v": 77
    },
    {
      "midi": 57,
      "hit": false,
      "t": 63589.823999999935,
      "d": 274.9559999999983,
      "v": 77
    },
    {
      "midi": 74,
      "hit": false,
      "t": 63589.823999999935,
      "d": 299.9519999999975,
      "v": 77
    },
    {
      "midi": 69,
      "hit": false,
      "t": 63589.823999999935,
      "d": 316.61599999999453,
      "v": 77
    },
    {
      "midi": 76,
      "hit": false,
      "t": 63589.823999999935,
      "d": 316.61599999999453,
      "v": 77
    },
    {
      "midi": 52,
      "hit": false,
      "t": 63989.75999999993,
      "d": 2794.5527999999977,
      "v": 77
    },
    {
      "midi": 61,
      "hit": false,
      "t": 63989.75999999993,
      "d": 2799.5520000000033,
      "v": 77
    },
    {
      "midi": 45,
      "hit": false,
      "t": 63989.75999999993,
      "d": 2816.2160000000076,
      "v": 77
    },
    {
      "midi": 57,
      "hit": false,
      "t": 63989.75999999993,
      "d": 2827.8808000000063,
      "v": 77
    },
    {
      "midi": 64,
      "hit": false,
      "t": 63989.75999999993,
      "d": 2857.876000000011,
      "v": 77
    },
    {
      "midi": 64,
      "hit": false,
      "t": 63989.75999999993,
      "d": 2794.5527999999977,
      "v": 77
    },
    {
      "midi": 73,
      "hit": false,
      "t": 63989.75999999993,
      "d": 2799.5520000000033,
      "v": 77
    },
    {
      "midi": 57,
      "hit": false,
      "t": 63989.75999999993,
      "d": 2816.2160000000076,
      "v": 77
    },
    {
      "midi": 69,
      "hit": false,
      "t": 63989.75999999993,
      "d": 2827.8808000000063,
      "v": 77
    },
    {
      "midi": 76,
      "hit": false,
      "t": 63989.75999999993,
      "d": 2857.876000000011,
      "v": 77
    },
    {
      "midi": 62,
      "hit": false,
      "t": 67189.24799999993,
      "d": 716.551999999996,
      "v": 77
    },
    {
      "midi": 66,
      "hit": false,
      "t": 67189.24799999993,
      "d": 974.8439999999828,
      "v": 77
    },
    {
      "midi": 69,
      "hit": false,
      "t": 67189.24799999993,
      "d": 1078.1607999999833,
      "v": 77
    },
    {
      "midi": 50,
      "hit": false,
      "t": 67189.24799999993,
      "d": 1366.4479999999894,
      "v": 77
    },
    {
      "midi": 57,
      "hit": false,
      "t": 67189.24799999993,
      "d": 1378.112799999988,
      "v": 77
    },
    {
      "midi": 74,
      "hit": false,
      "t": 67189.24799999993,
      "d": 716.551999999996,
      "v": 77
    },
    {
      "midi": 78,
      "hit": false,
      "t": 67189.24799999993,
      "d": 974.8439999999828,
      "v": 77
    },
    {
      "midi": 81,
      "hit": false,
      "t": 67189.24799999993,
      "d": 1078.1607999999833,
      "v": 77
    },
    {
      "midi": 62,
      "hit": false,
      "t": 67189.24799999993,
      "d": 1366.4479999999894,
      "v": 77
    },
    {
      "midi": 69,
      "hit": false,
      "t": 67189.24799999993,
      "d": 1378.112799999988,
      "v": 77
    },
    {
      "midi": 62,
      "hit": false,
      "t": 67989.11999999992,
      "d": 258.2920000000013,
      "v": 77
    },
    {
      "midi": 74,
      "hit": false,
      "t": 67989.11999999992,
      "d": 258.2920000000013,
      "v": 77
    },
    {
      "midi": 64,
      "hit": false,
      "t": 68389.05599999992,
      "d": 133.31200000000536,
      "v": 77
    },
    {
      "midi": 69,
      "hit": false,
      "t": 68389.05599999992,
      "d": 166.63999999999942,
      "v": 77
    },
    {
      "midi": 76,
      "hit": false,
      "t": 68389.05599999992,
      "d": 133.31200000000536,
      "v": 77
    },
    {
      "midi": 81,
      "hit": false,
      "t": 68389.05599999992,
      "d": 166.63999999999942,
      "v": 77
    },
    {
      "midi": 69,
      "hit": false,
      "t": 68788.99199999993,
      "d": 599.9040000000095,
      "v": 77
    },
    {
      "midi": 62,
      "hit": false,
      "t": 68788.99199999993,
      "d": 611.5688000000082,
      "v": 77
    },
    {
      "midi": 66,
      "hit": false,
      "t": 68788.99199999993,
      "d": 624.9000000000087,
      "v": 77
    },
    {
      "midi": 57,
      "hit": false,
      "t": 68788.99199999993,
      "d": 641.564000000013,
      "v": 77
    },
    {
      "midi": 50,
      "hit": false,
      "t": 68788.99199999993,
      "d": 658.2280000000173,
      "v": 77
    },
    {
      "midi": 81,
      "hit": false,
      "t": 68788.99199999993,
      "d": 599.9040000000095,
      "v": 77
    },
    {
      "midi": 74,
      "hit": false,
      "t": 68788.99199999993,
      "d": 611.5688000000082,
      "v": 77
    },
    {
      "midi": 78,
      "hit": false,
      "t": 68788.99199999993,
      "d": 624.9000000000087,
      "v": 77
    },
    {
      "midi": 69,
      "hit": false,
      "t": 68788.99199999993,
      "d": 641.564000000013,
      "v": 77
    },
    {
      "midi": 62,
      "hit": false,
      "t": 68788.99199999993,
      "d": 658.2280000000173,
      "v": 77
    },
    {
      "midi": 62,
      "hit": false,
      "t": 69588.86399999994,
      "d": 119.98080000000482,
      "v": 77
    },
    {
      "midi": 66,
      "hit": false,
      "t": 69588.86399999994,
      "d": 124.98000000001048,
      "v": 77
    },
    {
      "midi": 69,
      "hit": false,
      "t": 69588.86399999994,
      "d": 149.97600000000966,
      "v": 77
    },
    {
      "midi": 74,
      "hit": false,
      "t": 69588.86399999994,
      "d": 119.98080000000482,
      "v": 77
    },
    {
      "midi": 78,
      "hit": false,
      "t": 69588.86399999994,
      "d": 124.98000000001048,
      "v": 77
    },
    {
      "midi": 81,
      "hit": false,
      "t": 69588.86399999994,
      "d": 149.97600000000966,
      "v": 77
    },
    {
      "midi": 62,
      "hit": false,
      "t": 70388.73599999995,
      "d": 653.2287999999971,
      "v": 77
    },
    {
      "midi": 59,
      "hit": false,
      "t": 70388.73599999995,
      "d": 749.8799999999901,
      "v": 77
    },
    {
      "midi": 55,
      "hit": false,
      "t": 70388.73599999995,
      "d": 803.2047999999922,
      "v": 77
    },
    {
      "midi": 69,
      "hit": false,
      "t": 70388.73599999995,
      "d": 816.5359999999928,
      "v": 77
    },
    {
      "midi": 74,
      "hit": false,
      "t": 70388.73599999995,
      "d": 653.2287999999971,
      "v": 77
    },
    {
      "midi": 71,
      "hit": false,
      "t": 70388.73599999995,
      "d": 749.8799999999901,
      "v": 77
    },
    {
      "midi": 67,
      "hit": false,
      "t": 70388.73599999995,
      "d": 803.2047999999922,
      "v": 77
    },
    {
      "midi": 81,
      "hit": false,
      "t": 70388.73599999995,
      "d": 816.5359999999928,
      "v": 77
    },
    {
      "midi": 59,
      "hit": false,
      "t": 71988.47999999994,
      "d": 286.6207999999897,
      "v": 77
    },
    {
      "midi": 62,
      "hit": false,
      "t": 71988.47999999994,
      "d": 299.9519999999902,
      "v": 77
    },
    {
      "midi": 52,
      "hit": false,
      "t": 71988.47999999994,
      "d": 478.2567999999883,
      "v": 77
    },
    {
      "midi": 45,
      "hit": false,
      "t": 71988.47999999994,
      "d": 483.25599999999395,
      "v": 77
    },
    {
      "midi": 71,
      "hit": false,
      "t": 71988.47999999994,
      "d": 286.6207999999897,
      "v": 77
    },
    {
      "midi": 74,
      "hit": false,
      "t": 71988.47999999994,
      "d": 299.9519999999902,
      "v": 77
    },
    {
      "midi": 64,
      "hit": false,
      "t": 71988.47999999994,
      "d": 478.2567999999883,
      "v": 77
    },
    {
      "midi": 57,
      "hit": false,
      "t": 71988.47999999994,
      "d": 483.25599999999395,
      "v": 77
    },
    {
      "midi": 57,
      "hit": false,
      "t": 72788.35199999993,
      "d": 186.63679999999295,
      "v": 77
    },
    {
      "midi": 61,
      "hit": false,
      "t": 72788.35199999993,
      "d": 208.29999999998836,
      "v": 77
    },
    {
      "midi": 45,
      "hit": false,
      "t": 72788.35199999993,
      "d": 253.29279999999562,
      "v": 77
    },
    {
      "midi": 69,
      "hit": false,
      "t": 72788.35199999993,
      "d": 186.63679999999295,
      "v": 77
    },
    {
      "midi": 73,
      "hit": false,
      "t": 72788.35199999993,
      "d": 208.29999999998836,
      "v": 77
    },
    {
      "midi": 57,
      "hit": false,
      "t": 72788.35199999993,
      "d": 253.29279999999562,
      "v": 77
    },
    {
      "midi": 62,
      "hit": false,
      "t": 73588.22399999993,
      "d": 253.29279999999562,
      "v": 77
    },
    {
      "midi": 66,
      "hit": false,
      "t": 73588.22399999993,
      "d": 253.29279999999562,
      "v": 77
    },
    {
      "midi": 74,
      "hit": false,
      "t": 73588.22399999993,
      "d": 253.29279999999562,
      "v": 77
    },
    {
      "midi": 78,
      "hit": false,
      "t": 73588.22399999993,
      "d": 253.29279999999562,
      "v": 77
    },
    {
      "midi": 64,
      "hit": false,
      "t": 74388.09599999992,
      "d": 266.62399999999616,
      "v": 77
    },
    {
      "midi": 61,
      "hit": false,
      "t": 74388.09599999992,
      "d": 274.95599999999104,
      "v": 77
    },
    {
      "midi": 76,
      "hit": false,
      "t": 74388.09599999992,
      "d": 266.62399999999616,
      "v": 77
    },
    {
      "midi": 73,
      "hit": false,
      "t": 74388.09599999992,
      "d": 274.95599999999104,
      "v": 77
    },
    {
      "midi": 62,
      "hit": false,
      "t": 75187.9679999999,
      "d": 258.2920000000013,
      "v": 77
    },
    {
      "midi": 59,
      "hit": false,
      "t": 75187.9679999999,
      "d": 274.9560000000056,
      "v": 77
    },
    {
      "midi": 74,
      "hit": false,
      "t": 75187.9679999999,
      "d": 258.2920000000013,
      "v": 77
    },
    {
      "midi": 71,
      "hit": false,
      "t": 75187.9679999999,
      "d": 274.9560000000056,
      "v": 77
    },
    {
      "midi": 61,
      "hit": false,
      "t": 75987.83999999991,
      "d": 216.63200000001234,
      "v": 77
    },
    {
      "midi": 57,
      "hit": false,
      "t": 75987.83999999991,
      "d": 219.9648000000161,
      "v": 77
    },
    {
      "midi": 73,
      "hit": false,
      "t": 75987.83999999991,
      "d": 216.63200000001234,
      "v": 77
    },
    {
      "midi": 69,
      "hit": false,
      "t": 75987.83999999991,
      "d": 219.9648000000161,
      "v": 77
    },
    {
      "midi": 52,
      "hit": false,
      "t": 76787.71199999993,
      "d": 333.27999999999884,
      "v": 77
    },
    {
      "midi": 55,
      "hit": false,
      "t": 76787.71199999993,
      "d": 349.94400000000314,
      "v": 77
    },
    {
      "midi": 59,
      "hit": false,
      "t": 76787.71199999993,
      "d": 378.2728000000061,
      "v": 77
    },
    {
      "midi": 62,
      "hit": false,
      "t": 76787.71199999993,
      "d": 399.9360000000015,
      "v": 77
    },
    {
      "midi": 64,
      "hit": false,
      "t": 76787.71199999993,
      "d": 333.27999999999884,
      "v": 77
    },
    {
      "midi": 67,
      "hit": false,
      "t": 76787.71199999993,
      "d": 349.94400000000314,
      "v": 77
    },
    {
      "midi": 71,
      "hit": false,
      "t": 76787.71199999993,
      "d": 378.2728000000061,
      "v": 77
    },
    {
      "midi": 74,
      "hit": false,
      "t": 76787.71199999993,
      "d": 399.9360000000015,
      "v": 77
    },
    {
      "midi": 52,
      "hit": false,
      "t": 77187.64799999993,
      "d": 366.6079999999929,
      "v": 77
    },
    {
      "midi": 64,
      "hit": false,
      "t": 77187.64799999993,
      "d": 366.6079999999929,
      "v": 77
    },
    {
      "midi": 67,
      "hit": false,
      "t": 77587.58399999992,
      "d": 94.98480000000563,
      "v": 77
    },
    {
      "midi": 79,
      "hit": false,
      "t": 77587.58399999992,
      "d": 94.98480000000563,
      "v": 77
    },
    {
      "midi": 52,
      "hit": false,
      "t": 77987.51999999992,
      "d": 83.32000000000698,
      "v": 77
    },
    {
      "midi": 64,
      "hit": false,
      "t": 77987.51999999992,
      "d": 83.32000000000698,
      "v": 77
    },
    {
      "midi": 57,
      "hit": false,
      "t": 78387.45599999993,
      "d": 269.95679999999993,
      "v": 77
    },
    {
      "midi": 61,
      "hit": false,
      "t": 78387.45599999993,
      "d": 449.9279999999999,
      "v": 77
    },
    {
      "midi": 64,
      "hit": false,
      "t": 78387.45599999993,
      "d": 541.5800000000017,
      "v": 77
    },
    {
      "midi": 45,
      "hit": false,
      "t": 78387.45599999993,
      "d": 833.1999999999825,
      "v": 77
    },
    {
      "midi": 52,
      "hit": false,
      "t": 78387.45599999993,
      "d": 833.1999999999825,
      "v": 77
    },
    {
      "midi": 69,
      "hit": false,
      "t": 78387.45599999993,
      "d": 269.95679999999993,
      "v": 77
    },
    {
      "midi": 73,
      "hit": false,
      "t": 78387.45599999993,
      "d": 449.9279999999999,
      "v": 77
    },
    {
      "midi": 76,
      "hit": false,
      "t": 78387.45599999993,
      "d": 541.5800000000017,
      "v": 77
    },
    {
      "midi": 57,
      "hit": false,
      "t": 78387.45599999993,
      "d": 833.1999999999825,
      "v": 77
    },
    {
      "midi": 64,
      "hit": false,
      "t": 78387.45599999993,
      "d": 833.1999999999825,
      "v": 77
    },
    {
      "midi": 57,
      "hit": false,
      "t": 78787.39199999993,
      "d": 199.96799999999348,
      "v": 77
    },
    {
      "midi": 69,
      "hit": false,
      "t": 78787.39199999993,
      "d": 199.96799999999348,
      "v": 77
    },
    {
      "midi": 57,
      "hit": false,
      "t": 79187.32799999992,
      "d": 161.64079999999376,
      "v": 77
    },
    {
      "midi": 62,
      "hit": false,
      "t": 79187.32799999992,
      "d": 216.6319999999978,
      "v": 77
    },
    {
      "midi": 64,
      "hit": false,
      "t": 79187.32799999992,
      "d": 216.6319999999978,
      "v": 77
    },
    {
      "midi": 69,
      "hit": false,
      "t": 79187.32799999992,
      "d": 161.64079999999376,
      "v": 77
    },
    {
      "midi": 74,
      "hit": false,
      "t": 79187.32799999992,
      "d": 216.6319999999978,
      "v": 77
    },
    {
      "midi": 76,
      "hit": false,
      "t": 79187.32799999992,
      "d": 216.6319999999978,
      "v": 77
    },
    {
      "midi": 62,
      "hit": false,
      "t": 79987.19999999992,
      "d": 261.6247999999905,
      "v": 77
    },
    {
      "midi": 66,
      "hit": false,
      "t": 79987.19999999992,
      "d": 516.583999999988,
      "v": 77
    },
    {
      "midi": 69,
      "hit": false,
      "t": 79987.19999999992,
      "d": 611.5687999999936,
      "v": 77
    },
    {
      "midi": 50,
      "hit": false,
      "t": 79987.19999999992,
      "d": 1269.7967999999964,
      "v": 77
    },
    {
      "midi": 57,
      "hit": false,
      "t": 79987.19999999992,
      "d": 1294.7927999999956,
      "v": 77
    },
    {
      "midi": 74,
      "hit": false,
      "t": 79987.19999999992,
      "d": 261.6247999999905,
      "v": 77
    },
    {
      "midi": 78,
      "hit": false,
      "t": 79987.19999999992,
      "d": 516.583999999988,
      "v": 77
    },
    {
      "midi": 81,
      "hit": false,
      "t": 79987.19999999992,
      "d": 611.5687999999936,
      "v": 77
    },
    {
      "midi": 62,
      "hit": false,
      "t": 79987.19999999992,
      "d": 1269.7967999999964,
      "v": 77
    },
    {
      "midi": 69,
      "hit": false,
      "t": 79987.19999999992,
      "d": 1294.7927999999956,
      "v": 77
    },
    {
      "midi": 62,
      "hit": false,
      "t": 80387.13599999991,
      "d": 194.96880000000237,
      "v": 77
    },
    {
      "midi": 74,
      "hit": false,
      "t": 80387.13599999991,
      "d": 194.96880000000237,
      "v": 77
    },
    {
      "midi": 64,
      "hit": false,
      "t": 80787.07199999991,
      "d": 183.30400000000373,
      "v": 77
    },
    {
      "midi": 76,
      "hit": false,
      "t": 80787.07199999991,
      "d": 183.30400000000373,
      "v": 77
    },
    {
      "midi": 66,
      "hit": false,
      "t": 81187.00799999991,
      "d": 169.9728000000032,
      "v": 77
    },
    {
      "midi": 78,
      "hit": false,
      "t": 81187.00799999991,
      "d": 169.9728000000032,
      "v": 77
    },
    {
      "midi": 60,
      "hit": false,
      "t": 81586.94399999992,
      "d": 703.2207999999955,
      "v": 77
    },
    {
      "midi": 69,
      "hit": false,
      "t": 81586.94399999992,
      "d": 708.2200000000012,
      "v": 77
    },
    {
      "midi": 66,
      "hit": false,
      "t": 81586.94399999992,
      "d": 711.5528000000049,
      "v": 77
    },
    {
      "midi": 57,
      "hit": false,
      "t": 81586.94399999992,
      "d": 719.8847999999998,
      "v": 77
    },
    {
      "midi": 50,
      "hit": false,
      "t": 81586.94399999992,
      "d": 733.2160000000003,
      "v": 77
    },
    {
      "midi": 72,
      "hit": false,
      "t": 81586.94399999992,
      "d": 703.2207999999955,
      "v": 77
    },
    {
      "midi": 81,
      "hit": false,
      "t": 81586.94399999992,
      "d": 708.2200000000012,
      "v": 77
    },
    {
      "midi": 78,
      "hit": false,
      "t": 81586.94399999992,
      "d": 711.5528000000049,
      "v": 77
    },
    {
      "midi": 69,
      "hit": false,
      "t": 81586.94399999992,
      "d": 719.8847999999998,
      "v": 77
    },
    {
      "midi": 62,
      "hit": false,
      "t": 81586.94399999992,
      "d": 733.2160000000003,
      "v": 77
    },
    {
      "midi": 66,
      "hit": false,
      "t": 82386.81599999992,
      "d": 183.30400000000373,
      "v": 77
    },
    {
      "midi": 60,
      "hit": false,
      "t": 82386.81599999992,
      "d": 211.63280000000668,
      "v": 77
    },
    {
      "midi": 69,
      "hit": false,
      "t": 82386.81599999992,
      "d": 211.63280000000668,
      "v": 77
    },
    {
      "midi": 78,
      "hit": false,
      "t": 82386.81599999992,
      "d": 183.30400000000373,
      "v": 77
    },
    {
      "midi": 72,
      "hit": false,
      "t": 82386.81599999992,
      "d": 211.63280000000668,
      "v": 77
    },
    {
      "midi": 81,
      "hit": false,
      "t": 82386.81599999992,
      "d": 211.63280000000668,
      "v": 77
    },
    {
      "midi": 55,
      "hit": false,
      "t": 83186.68799999992,
      "d": 349.94400000000314,
      "v": 77
    },
    {
      "midi": 59,
      "hit": false,
      "t": 83186.68799999992,
      "d": 383.2719999999972,
      "v": 77
    },
    {
      "midi": 62,
      "hit": false,
      "t": 83186.68799999992,
      "d": 408.2679999999964,
      "v": 77
    },
    {
      "midi": 43,
      "hit": false,
      "t": 83186.68799999992,
      "d": 716.551999999996,
      "v": 77
    },
    {
      "midi": 67,
      "hit": false,
      "t": 83186.68799999992,
      "d": 349.94400000000314,
      "v": 77
    },
    {
      "midi": 71,
      "hit": false,
      "t": 83186.68799999992,
      "d": 383.2719999999972,
      "v": 77
    },
    {
      "midi": 74,
      "hit": false,
      "t": 83186.68799999992,
      "d": 408.2679999999964,
      "v": 77
    },
    {
      "midi": 55,
      "hit": false,
      "t": 83186.68799999992,
      "d": 716.551999999996,
      "v": 77
    },
    {
      "midi": 50,
      "hit": false,
      "t": 83586.62399999992,
      "d": 133.3119999999908,
      "v": 77
    },
    {
      "midi": 62,
      "hit": false,
      "t": 83586.62399999992,
      "d": 133.3119999999908,
      "v": 77
    },
    {
      "midi": 67,
      "hit": false,
      "t": 83986.55999999992,
      "d": 91.65200000000186,
      "v": 77
    },
    {
      "midi": 79,
      "hit": false,
      "t": 83986.55999999992,
      "d": 91.65200000000186,
      "v": 77
    },
    {
      "midi": 64,
      "hit": false,
      "t": 84786.43199999993,
      "d": 33.328000000008615,
      "v": 77
    },
    {
      "midi": 62,
      "hit": false,
      "t": 84786.43199999993,
      "d": 1441.4360000000015,
      "v": 77
    },
    {
      "midi": 68,
      "hit": false,
      "t": 84786.43199999993,
      "d": 1449.7679999999964,
      "v": 77
    },
    {
      "midi": 59,
      "hit": false,
      "t": 84786.43199999993,
      "d": 1486.4287999999942,
      "v": 77
    },
    {
      "midi": 71,
      "hit": false,
      "t": 84786.43199999993,
      "d": 1486.4287999999942,
      "v": 77
    },
    {
      "midi": 52,
      "hit": false,
      "t": 84786.43199999993,
      "d": 1499.7599999999948,
      "v": 77
    },
    {
      "midi": 76,
      "hit": false,
      "t": 84786.43199999993,
      "d": 33.328000000008615,
      "v": 77
    },
    {
      "midi": 74,
      "hit": false,
      "t": 84786.43199999993,
      "d": 1441.4360000000015,
      "v": 77
    },
    {
      "midi": 80,
      "hit": false,
      "t": 84786.43199999993,
      "d": 1449.7679999999964,
      "v": 77
    },
    {
      "midi": 71,
      "hit": false,
      "t": 84786.43199999993,
      "d": 1486.4287999999942,
      "v": 77
    },
    {
      "midi": 83,
      "hit": false,
      "t": 84786.43199999993,
      "d": 1486.4287999999942,
      "v": 77
    },
    {
      "midi": 64,
      "hit": false,
      "t": 84786.43199999993,
      "d": 1499.7599999999948,
      "v": 77
    },
    {
      "midi": 68,
      "hit": false,
      "t": 86386.17599999992,
      "d": 1299.7920000000013,
      "v": 77
    },
    {
      "midi": 59,
      "hit": false,
      "t": 86386.17599999992,
      "d": 1403.1088000000018,
      "v": 77
    },
    {
      "midi": 52,
      "hit": false,
      "t": 86386.17599999992,
      "d": 1433.1040000000066,
      "v": 77
    },
    {
      "midi": 62,
      "hit": false,
      "t": 86386.17599999992,
      "d": 1478.096800000014,
      "v": 77
    },
    {
      "midi": 80,
      "hit": false,
      "t": 86386.17599999992,
      "d": 1299.7920000000013,
      "v": 77
    },
    {
      "midi": 71,
      "hit": false,
      "t": 86386.17599999992,
      "d": 1403.1088000000018,
      "v": 77
    },
    {
      "midi": 64,
      "hit": false,
      "t": 86386.17599999992,
      "d": 1433.1040000000066,
      "v": 77
    },
    {
      "midi": 74,
      "hit": false,
      "t": 86386.17599999992,
      "d": 1478.096800000014,
      "v": 77
    },
    {
      "midi": 66,
      "hit": false,
      "t": 87985.91999999994,
      "d": 886.5247999999992,
      "v": 77
    },
    {
      "midi": 69,
      "hit": false,
      "t": 87985.91999999994,
      "d": 903.1888000000035,
      "v": 77
    },
    {
      "midi": 62,
      "hit": false,
      "t": 87985.91999999994,
      "d": 928.1848000000027,
      "v": 77
    },
    {
      "midi": 78,
      "hit": false,
      "t": 87985.91999999994,
      "d": 886.5247999999992,
      "v": 77
    },
    {
      "midi": 81,
      "hit": false,
      "t": 87985.91999999994,
      "d": 903.1888000000035,
      "v": 77
    },
    {
      "midi": 74,
      "hit": false,
      "t": 87985.91999999994,
      "d": 928.1848000000027,
      "v": 77
    },
    {
      "midi": 59,
      "hit": false,
      "t": 89585.66399999995,
      "d": 908.1880000000092,
      "v": 77
    },
    {
      "midi": 62,
      "hit": false,
      "t": 89585.66399999995,
      "d": 941.5160000000033,
      "v": 77
    },
    {
      "midi": 66,
      "hit": false,
      "t": 89585.66399999995,
      "d": 949.8479999999981,
      "v": 77
    },
    {
      "midi": 71,
      "hit": false,
      "t": 89585.66399999995,
      "d": 908.1880000000092,
      "v": 77
    },
    {
      "midi": 74,
      "hit": false,
      "t": 89585.66399999995,
      "d": 941.5160000000033,
      "v": 77
    },
    {
      "midi": 78,
      "hit": false,
      "t": 89585.66399999995,
      "d": 949.8479999999981,
      "v": 77
    },
    {
      "midi": 55,
      "hit": false,
      "t": 90985.43999999994,
      "d": 949.8479999999981,
      "v": 75
    },
    {
      "midi": 52,
      "hit": false,
      "t": 90985.43999999994,
      "d": 994.8408000000054,
      "v": 61
    },
    {
      "midi": 67,
      "hit": false,
      "t": 90985.43999999994,
      "d": 949.8479999999981,
      "v": 75
    },
    {
      "midi": 64,
      "hit": false,
      "t": 90985.43999999994,
      "d": 994.8408000000054,
      "v": 61
    },
    {
      "midi": 64,
      "hit": false,
      "t": 91185.40799999994,
      "d": 853.1968000000052,
      "v": 77
    },
    {
      "midi": 59,
      "hit": false,
      "t": 91185.40799999994,
      "d": 883.19200000001,
      "v": 77
    },
    {
      "midi": 76,
      "hit": false,
      "t": 91185.40799999994,
      "d": 853.1968000000052,
      "v": 77
    },
    {
      "midi": 71,
      "hit": false,
      "t": 91185.40799999994,
      "d": 883.19200000001,
      "v": 77
    },
    {
      "midi": 62,
      "hit": false,
      "t": 92785.15199999994,
      "d": 283.28800000000047,
      "v": 77
    },
    {
      "midi": 45,
      "hit": false,
      "t": 92785.15199999994,
      "d": 441.596000000005,
      "v": 77
    },
    {
      "midi": 52,
      "hit": false,
      "t": 92785.15199999994,
      "d": 458.2600000000093,
      "v": 77
    },
    {
      "midi": 74,
      "hit": false,
      "t": 92785.15199999994,
      "d": 283.28800000000047,
      "v": 77
    },
    {
      "midi": 57,
      "hit": false,
      "t": 92785.15199999994,
      "d": 441.596000000005,
      "v": 77
    },
    {
      "midi": 64,
      "hit": false,
      "t": 92785.15199999994,
      "d": 458.2600000000093,
      "v": 77
    },
    {
      "midi": 61,
      "hit": false,
      "t": 93585.02399999995,
      "d": 553.2448000000004,
      "v": 77
    },
    {
      "midi": 45,
      "hit": false,
      "t": 93585.02399999995,
      "d": 558.244000000006,
      "v": 77
    },
    {
      "midi": 52,
      "hit": false,
      "t": 93585.02399999995,
      "d": 558.244000000006,
      "v": 77
    },
    {
      "midi": 57,
      "hit": false,
      "t": 93585.02399999995,
      "d": 574.9080000000104,
      "v": 77
    },
    {
      "midi": 73,
      "hit": false,
      "t": 93585.02399999995,
      "d": 553.2448000000004,
      "v": 77
    },
    {
      "midi": 57,
      "hit": false,
      "t": 93585.02399999995,
      "d": 558.244000000006,
      "v": 77
    },
    {
      "midi": 64,
      "hit": false,
      "t": 93585.02399999995,
      "d": 558.244000000006,
      "v": 77
    },
    {
      "midi": 69,
      "hit": false,
      "t": 93585.02399999995,
      "d": 574.9080000000104,
      "v": 77
    },
    {
      "midi": 62,
      "hit": false,
      "t": 94384.89599999996,
      "d": 1041.5,
      "v": 77
    },
    {
      "midi": 69,
      "hit": false,
      "t": 94384.89599999996,
      "d": 1074.827999999994,
      "v": 77
    },
    {
      "midi": 66,
      "hit": false,
      "t": 94384.89599999996,
      "d": 1086.4927999999927,
      "v": 77
    },
    {
      "midi": 50,
      "hit": false,
      "t": 94384.89599999996,
      "d": 1299.7919999999867,
      "v": 77
    },
    {
      "midi": 74,
      "hit": false,
      "t": 94384.89599999996,
      "d": 1041.5,
      "v": 77
    },
    {
      "midi": 81,
      "hit": false,
      "t": 94384.89599999996,
      "d": 1074.827999999994,
      "v": 77
    },
    {
      "midi": 78,
      "hit": false,
      "t": 94384.89599999996,
      "d": 1086.4927999999927,
      "v": 77
    },
    {
      "midi": 62,
      "hit": false,
      "t": 94384.89599999996,
      "d": 1299.7919999999867,
      "v": 77
    },
    {
      "midi": 62,
      "hit": false,
      "t": 95584.70399999995,
      "d": 283.28800000000047,
      "v": 77
    },
    {
      "midi": 74,
      "hit": false,
      "t": 95584.70399999995,
      "d": 283.28800000000047,
      "v": 77
    },
    {
      "midi": 50,
      "hit": false,
      "t": 95984.63999999996,
      "d": 586.5727999999945,
      "v": 77
    },
    {
      "midi": 64,
      "hit": false,
      "t": 95984.63999999996,
      "d": 691.5559999999969,
      "v": 77
    },
    {
      "midi": 62,
      "hit": false,
      "t": 95984.63999999996,
      "d": 586.5727999999945,
      "v": 77
    },
    {
      "midi": 76,
      "hit": false,
      "t": 95984.63999999996,
      "d": 691.5559999999969,
      "v": 77
    },
    {
      "midi": 66,
      "hit": false,
      "t": 96784.51199999996,
      "d": 208.3000000000029,
      "v": 77
    },
    {
      "midi": 78,
      "hit": false,
      "t": 96784.51199999996,
      "d": 208.3000000000029,
      "v": 77
    },
    {
      "midi": 62,
      "hit": false,
      "t": 97584.38399999996,
      "d": 866.5280000000057,
      "v": 77
    },
    {
      "midi": 67,
      "hit": false,
      "t": 97584.38399999996,
      "d": 899.8559999999998,
      "v": 77
    },
    {
      "midi": 59,
      "hit": false,
      "t": 97584.38399999996,
      "d": 919.8527999999933,
      "v": 77
    },
    {
      "midi": 55,
      "hit": false,
      "t": 97584.38399999996,
      "d": 949.8479999999981,
      "v": 77
    },
    {
      "midi": 74,
      "hit": false,
      "t": 97584.38399999996,
      "d": 866.5280000000057,
      "v": 77
    },
    {
      "midi": 79,
      "hit": false,
      "t": 97584.38399999996,
      "d": 899.8559999999998,
      "v": 77
    },
    {
      "midi": 71,
      "hit": false,
      "t": 97584.38399999996,
      "d": 919.8527999999933,
      "v": 77
    },
    {
      "midi": 67,
      "hit": false,
      "t": 97584.38399999996,
      "d": 949.8479999999981,
      "v": 77
    },
    {
      "midi": 62,
      "hit": false,
      "t": 99184.12799999995,
      "d": 341.6119999999937,
      "v": 77
    },
    {
      "midi": 59,
      "hit": false,
      "t": 99184.12799999995,
      "d": 349.9439999999886,
      "v": 77
    },
    {
      "midi": 52,
      "hit": false,
      "t": 99184.12799999995,
      "d": 433.2639999999956,
      "v": 77
    },
    {
      "midi": 45,
      "hit": false,
      "t": 99184.12799999995,
      "d": 453.2607999999891,
      "v": 77
    },
    {
      "midi": 74,
      "hit": false,
      "t": 99184.12799999995,
      "d": 341.6119999999937,
      "v": 77
    },
    {
      "midi": 71,
      "hit": false,
      "t": 99184.12799999995,
      "d": 349.9439999999886,
      "v": 77
    },
    {
      "midi": 64,
      "hit": false,
      "t": 99184.12799999995,
      "d": 433.2639999999956,
      "v": 77
    },
    {
      "midi": 57,
      "hit": false,
      "t": 99184.12799999995,
      "d": 453.2607999999891,
      "v": 77
    },
    {
      "midi": 52,
      "hit": false,
      "t": 100783.87199999994,
      "d": 1186.476800000004,
      "v": 77
    },
    {
      "midi": 57,
      "hit": false,
      "t": 100783.87199999994,
      "d": 1211.4728000000032,
      "v": 77
    },
    {
      "midi": 45,
      "hit": false,
      "t": 100783.87199999994,
      "d": 1216.4720000000088,
      "v": 77
    },
    {
      "midi": 61,
      "hit": false,
      "t": 100783.87199999994,
      "d": 1224.8040000000037,
      "v": 77
    },
    {
      "midi": 64,
      "hit": false,
      "t": 100783.87199999994,
      "d": 1186.476800000004,
      "v": 77
    },
    {
      "midi": 69,
      "hit": false,
      "t": 100783.87199999994,
      "d": 1211.4728000000032,
      "v": 77
    },
    {
      "midi": 57,
      "hit": false,
      "t": 100783.87199999994,
      "d": 1216.4720000000088,
      "v": 77
    },
    {
      "midi": 73,
      "hit": false,
      "t": 100783.87199999994,
      "d": 1224.8040000000037,
      "v": 77
    },
    {
      "midi": 38,
      "hit": false,
      "t": 102383.61599999995,
      "d": 1074.8280000000086,
      "v": 77
    },
    {
      "midi": 62,
      "hit": false,
      "t": 102383.61599999995,
      "d": 1336.4528000000137,
      "v": 77
    },
    {
      "midi": 66,
      "hit": false,
      "t": 102383.61599999995,
      "d": 1369.7808000000077,
      "v": 77
    },
    {
      "midi": 57,
      "hit": false,
      "t": 102383.61599999995,
      "d": 1416.4400000000023,
      "v": 77
    },
    {
      "midi": 50,
      "hit": false,
      "t": 102383.61599999995,
      "d": 1074.8280000000086,
      "v": 77
    },
    {
      "midi": 74,
      "hit": false,
      "t": 102383.61599999995,
      "d": 1336.4528000000137,
      "v": 77
    },
    {
      "midi": 78,
      "hit": false,
      "t": 102383.61599999995,
      "d": 1369.7808000000077,
      "v": 77
    },
    {
      "midi": 69,
      "hit": false,
      "t": 102383.61599999995,
      "d": 1416.4400000000023,
      "v": 77
    },
    {
      "midi": 42,
      "hit": false,
      "t": 103983.35999999996,
      "d": 1099.8239999999932,
      "v": 77
    },
    {
      "midi": 62,
      "hit": false,
      "t": 103983.35999999996,
      "d": 1099.8239999999932,
      "v": 77
    },
    {
      "midi": 66,
      "hit": false,
      "t": 103983.35999999996,
      "d": 1108.1559999999881,
      "v": 77
    },
    {
      "midi": 57,
      "hit": false,
      "t": 103983.35999999996,
      "d": 1144.816799999986,
      "v": 77
    },
    {
      "midi": 54,
      "hit": false,
      "t": 103983.35999999996,
      "d": 1099.8239999999932,
      "v": 77
    },
    {
      "midi": 74,
      "hit": false,
      "t": 103983.35999999996,
      "d": 1099.8239999999932,
      "v": 77
    },
    {
      "midi": 78,
      "hit": false,
      "t": 103983.35999999996,
      "d": 1108.1559999999881,
      "v": 77
    },
    {
      "midi": 69,
      "hit": false,
      "t": 103983.35999999996,
      "d": 1144.816799999986,
      "v": 77
    },
    {
      "midi": 59,
      "hit": false,
      "t": 105583.10399999995,
      "d": 2661.2407999999996,
      "v": 77
    },
    {
      "midi": 55,
      "hit": false,
      "t": 105583.10399999995,
      "d": 2674.572,
      "v": 77
    },
    {
      "midi": 62,
      "hit": false,
      "t": 105583.10399999995,
      "d": 2699.5679999999993,
      "v": 77
    },
    {
      "midi": 43,
      "hit": false,
      "t": 105583.10399999995,
      "d": 2786.2207999999955,
      "v": 77
    },
    {
      "midi": 71,
      "hit": false,
      "t": 105583.10399999995,
      "d": 2661.2407999999996,
      "v": 77
    },
    {
      "midi": 67,
      "hit": false,
      "t": 105583.10399999995,
      "d": 2674.572,
      "v": 77
    },
    {
      "midi": 74,
      "hit": false,
      "t": 105583.10399999995,
      "d": 2699.5679999999993,
      "v": 77
    },
    {
      "midi": 55,
      "hit": false,
      "t": 105583.10399999995,
      "d": 2786.2207999999955,
      "v": 77
    },
    {
      "midi": 57,
      "hit": false,
      "t": 108782.59199999995,
      "d": 661.5608000000066,
      "v": 77
    },
    {
      "midi": 50,
      "hit": false,
      "t": 108782.59199999995,
      "d": 666.5600000000122,
      "v": 77
    },
    {
      "midi": 69,
      "hit": false,
      "t": 108782.59199999995,
      "d": 661.5608000000066,
      "v": 77
    },
    {
      "midi": 62,
      "hit": false,
      "t": 108782.59199999995,
      "d": 666.5600000000122,
      "v": 77
    },
    {
      "midi": 49,
      "hit": false,
      "t": 109582.46399999996,
      "d": 486.5887999999977,
      "v": 77
    },
    {
      "midi": 57,
      "hit": false,
      "t": 109582.46399999996,
      "d": 503.252800000002,
      "v": 77
    },
    {
      "midi": 61,
      "hit": false,
      "t": 109582.46399999996,
      "d": 486.5887999999977,
      "v": 77
    },
    {
      "midi": 69,
      "hit": false,
      "t": 109582.46399999996,
      "d": 503.252800000002,
      "v": 77
    },
    {
      "midi": 47,
      "hit": false,
      "t": 110382.33599999997,
      "d": 616.5679999999993,
      "v": 77
    },
    {
      "midi": 55,
      "hit": false,
      "t": 110382.33599999997,
      "d": 616.5679999999993,
      "v": 77
    },
    {
      "midi": 59,
      "hit": false,
      "t": 110382.33599999997,
      "d": 616.5679999999993,
      "v": 77
    },
    {
      "midi": 67,
      "hit": false,
      "t": 110382.33599999997,
      "d": 616.5679999999993,
      "v": 77
    },
    {
      "midi": 45,
      "hit": false,
      "t": 111182.20799999996,
      "d": 436.59679999999935,
      "v": 77
    },
    {
      "midi": 54,
      "hit": false,
      "t": 111182.20799999996,
      "d": 549.9119999999966,
      "v": 77
    },
    {
      "midi": 57,
      "hit": false,
      "t": 111182.20799999996,
      "d": 436.59679999999935,
      "v": 77
    },
    {
      "midi": 66,
      "hit": false,
      "t": 111182.20799999996,
      "d": 549.9119999999966,
      "v": 77
    },
    {
      "midi": 40,
      "hit": false,
      "t": 111982.07999999996,
      "d": 978.1767999999865,
      "v": 77
    },
    {
      "midi": 52,
      "hit": false,
      "t": 111982.07999999996,
      "d": 978.1767999999865,
      "v": 77
    },
    {
      "midi": 52,
      "hit": false,
      "t": 112382.01599999995,
      "d": 678.2247999999963,
      "v": 77
    },
    {
      "midi": 64,
      "hit": false,
      "t": 112382.01599999995,
      "d": 678.2247999999963,
      "v": 77
    },
    {
      "midi": 55,
      "hit": false,
      "t": 112781.95199999995,
      "d": 278.2887999999948,
      "v": 77
    },
    {
      "midi": 67,
      "hit": false,
      "t": 112781.95199999995,
      "d": 278.2887999999948,
      "v": 77
    },
    {
      "midi": 57,
      "hit": false,
      "t": 113581.82399999994,
      "d": 516.5840000000026,
      "v": 68
    },
    {
      "midi": 52,
      "hit": false,
      "t": 113581.82399999994,
      "d": 1483.096000000005,
      "v": 77
    },
    {
      "midi": 45,
      "hit": false,
      "t": 113581.82399999994,
      "d": 1486.4288000000088,
      "v": 77
    },
    {
      "midi": 69,
      "hit": false,
      "t": 113581.82399999994,
      "d": 516.5840000000026,
      "v": 68
    },
    {
      "midi": 64,
      "hit": false,
      "t": 113581.82399999994,
      "d": 1483.096000000005,
      "v": 77
    },
    {
      "midi": 57,
      "hit": false,
      "t": 113581.82399999994,
      "d": 1486.4288000000088,
      "v": 77
    },
    {
      "midi": 62,
      "hit": false,
      "t": 114381.69599999994,
      "d": 453.26080000000366,
      "v": 77
    },
    {
      "midi": 74,
      "hit": false,
      "t": 114381.69599999994,
      "d": 453.26080000000366,
      "v": 77
    },
    {
      "midi": 61,
      "hit": false,
      "t": 114781.63199999994,
      "d": 269.95679999999993,
      "v": 77
    },
    {
      "midi": 73,
      "hit": false,
      "t": 114781.63199999994,
      "d": 269.95679999999993,
      "v": 77
    },
    {
      "midi": 55,
      "hit": false,
      "t": 115181.56799999994,
      "d": 1024.8359999999957,
      "v": 77
    },
    {
      "midi": 59,
      "hit": false,
      "t": 115181.56799999994,
      "d": 1036.5007999999943,
      "v": 77
    },
    {
      "midi": 43,
      "hit": false,
      "t": 115181.56799999994,
      "d": 1044.8327999999892,
      "v": 77
    },
    {
      "midi": 62,
      "hit": false,
      "t": 115181.56799999994,
      "d": 1049.8319999999949,
      "v": 77
    },
    {
      "midi": 67,
      "hit": false,
      "t": 115181.56799999994,
      "d": 1024.8359999999957,
      "v": 77
    },
    {
      "midi": 71,
      "hit": false,
      "t": 115181.56799999994,
      "d": 1036.5007999999943,
      "v": 77
    },
    {
      "midi": 55,
      "hit": false,
      "t": 115181.56799999994,
      "d": 1044.8327999999892,
      "v": 77
    },
    {
      "midi": 74,
      "hit": false,
      "t": 115181.56799999994,
      "d": 1049.8319999999949,
      "v": 77
    },
    {
      "midi": 54,
      "hit": false,
      "t": 116781.31199999993,
      "d": 1311.4568,
      "v": 77
    },
    {
      "midi": 57,
      "hit": false,
      "t": 116781.31199999993,
      "d": 1311.4568,
      "v": 77
    },
    {
      "midi": 61,
      "hit": false,
      "t": 116781.31199999993,
      "d": 1316.4560000000056,
      "v": 77
    },
    {
      "midi": 64,
      "hit": false,
      "t": 116781.31199999993,
      "d": 1349.7839999999997,
      "v": 77
    },
    {
      "midi": 66,
      "hit": false,
      "t": 116781.31199999993,
      "d": 1311.4568,
      "v": 77
    },
    {
      "midi": 69,
      "hit": false,
      "t": 116781.31199999993,
      "d": 1311.4568,
      "v": 77
    },
    {
      "midi": 73,
      "hit": false,
      "t": 116781.31199999993,
      "d": 1316.4560000000056,
      "v": 77
    },
    {
      "midi": 76,
      "hit": false,
      "t": 116781.31199999993,
      "d": 1349.7839999999997,
      "v": 77
    },
    {
      "midi": 62,
      "hit": false,
      "t": 118381.05599999994,
      "d": 499.91999999999825,
      "v": 77
    },
    {
      "midi": 66,
      "hit": false,
      "t": 118381.05599999994,
      "d": 503.252800000002,
      "v": 77
    },
    {
      "midi": 59,
      "hit": false,
      "t": 118381.05599999994,
      "d": 541.5800000000017,
      "v": 77
    },
    {
      "midi": 47,
      "hit": false,
      "t": 118381.05599999994,
      "d": 561.5767999999953,
      "v": 77
    },
    {
      "midi": 74,
      "hit": false,
      "t": 118381.05599999994,
      "d": 499.91999999999825,
      "v": 77
    },
    {
      "midi": 78,
      "hit": false,
      "t": 118381.05599999994,
      "d": 503.252800000002,
      "v": 77
    },
    {
      "midi": 71,
      "hit": false,
      "t": 118381.05599999994,
      "d": 541.5800000000017,
      "v": 77
    },
    {
      "midi": 59,
      "hit": false,
      "t": 118381.05599999994,
      "d": 561.5767999999953,
      "v": 77
    },
    {
      "midi": 57,
      "hit": false,
      "t": 119180.92799999993,
      "d": 574.9079999999958,
      "v": 77
    },
    {
      "midi": 45,
      "hit": false,
      "t": 119180.92799999993,
      "d": 583.2399999999907,
      "v": 77
    },
    {
      "midi": 69,
      "hit": false,
      "t": 119180.92799999993,
      "d": 574.9079999999958,
      "v": 77
    },
    {
      "midi": 57,
      "hit": false,
      "t": 119180.92799999993,
      "d": 583.2399999999907,
      "v": 77
    },
    {
      "midi": 43,
      "hit": false,
      "t": 119980.79999999992,
      "d": 558.2439999999915,
      "v": 77
    },
    {
      "midi": 55,
      "hit": false,
      "t": 119980.79999999992,
      "d": 699.8879999999917,
      "v": 77
    },
    {
      "midi": 55,
      "hit": false,
      "t": 119980.79999999992,
      "d": 558.2439999999915,
      "v": 77
    },
    {
      "midi": 67,
      "hit": false,
      "t": 119980.79999999992,
      "d": 699.8879999999917,
      "v": 77
    },
    {
      "midi": 54,
      "hit": false,
      "t": 120780.67199999992,
      "d": 299.9520000000048,
      "v": 77
    },
    {
      "midi": 42,
      "hit": false,
      "t": 120780.67199999992,
      "d": 303.28480000000854,
      "v": 77
    },
    {
      "midi": 66,
      "hit": false,
      "t": 120780.67199999992,
      "d": 299.9520000000048,
      "v": 77
    },
    {
      "midi": 54,
      "hit": false,
      "t": 120780.67199999992,
      "d": 303.28480000000854,
      "v": 77
    },
    {
      "midi": 55,
      "hit": false,
      "t": 121580.54399999992,
      "d": 399.9360000000015,
      "v": 77
    },
    {
      "midi": 52,
      "hit": false,
      "t": 121580.54399999992,
      "d": 849.8640000000014,
      "v": 77
    },
    {
      "midi": 59,
      "hit": false,
      "t": 121580.54399999992,
      "d": 899.8559999999998,
      "v": 77
    },
    {
      "midi": 40,
      "hit": false,
      "t": 121580.54399999992,
      "d": 1369.7808000000077,
      "v": 77
    },
    {
      "midi": 67,
      "hit": false,
      "t": 121580.54399999992,
      "d": 399.9360000000015,
      "v": 77
    },
    {
      "midi": 64,
      "hit": false,
      "t": 121580.54399999992,
      "d": 849.8640000000014,
      "v": 77
    },
    {
      "midi": 71,
      "hit": false,
      "t": 121580.54399999992,
      "d": 899.8559999999998,
      "v": 77
    },
    {
      "midi": 52,
      "hit": false,
      "t": 121580.54399999992,
      "d": 1369.7808000000077,
      "v": 77
    },
    {
      "midi": 55,
      "hit": false,
      "t": 121980.47999999992,
      "d": 824.8680000000022,
      "v": 77
    },
    {
      "midi": 67,
      "hit": false,
      "t": 121980.47999999992,
      "d": 824.8680000000022,
      "v": 77
    },
    {
      "midi": 64,
      "hit": false,
      "t": 122380.41599999992,
      "d": 441.596000000005,
      "v": 77
    },
    {
      "midi": 76,
      "hit": false,
      "t": 122380.41599999992,
      "d": 441.596000000005,
      "v": 77
    },
    {
      "midi": 67,
      "hit": false,
      "t": 122780.35199999993,
      "d": 411.6008000000147,
      "v": 77
    },
    {
      "midi": 79,
      "hit": false,
      "t": 122780.35199999993,
      "d": 411.6008000000147,
      "v": 77
    },
    {
      "midi": 66,
      "hit": false,
      "t": 123580.22399999994,
      "d": 578.2407999999996,
      "v": 77
    },
    {
      "midi": 78,
      "hit": false,
      "t": 123580.22399999994,
      "d": 578.2407999999996,
      "v": 77
    },
    {
      "midi": 62,
      "hit": false,
      "t": 123980.15999999995,
      "d": 761.5448000000033,
      "v": 77
    },
    {
      "midi": 74,
      "hit": false,
      "t": 123980.15999999995,
      "d": 761.5448000000033,
      "v": 77
    },
    {
      "midi": 64,
      "hit": false,
      "t": 124780.03199999995,
      "d": 78.32080000000133,
      "v": 55
    },
    {
      "midi": 52,
      "hit": false,
      "t": 124780.03199999995,
      "d": 116.64800000000105,
      "v": 77
    },
    {
      "midi": 57,
      "hit": false,
      "t": 124780.03199999995,
      "d": 119.98080000000482,
      "v": 71
    },
    {
      "midi": 62,
      "hit": false,
      "t": 124780.03199999995,
      "d": 119.98080000000482,
      "v": 76
    },
    {
      "midi": 76,
      "hit": false,
      "t": 124780.03199999995,
      "d": 78.32080000000133,
      "v": 55
    },
    {
      "midi": 64,
      "hit": false,
      "t": 124780.03199999995,
      "d": 116.64800000000105,
      "v": 77
    },
    {
      "midi": 69,
      "hit": false,
      "t": 124780.03199999995,
      "d": 119.98080000000482,
      "v": 71
    },
    {
      "midi": 74,
      "hit": false,
      "t": 124780.03199999995,
      "d": 119.98080000000482,
      "v": 76
    },
    {
      "midi": 45,
      "hit": false,
      "t": 125179.96799999995,
      "d": 111.64879999999539,
      "v": 77
    },
    {
      "midi": 52,
      "hit": false,
      "t": 125179.96799999995,
      "d": 174.9719999999943,
      "v": 77
    },
    {
      "midi": 64,
      "hit": false,
      "t": 125179.96799999995,
      "d": 174.9719999999943,
      "v": 77
    },
    {
      "midi": 57,
      "hit": false,
      "t": 125179.96799999995,
      "d": 186.63679999999295,
      "v": 76
    },
    {
      "midi": 62,
      "hit": false,
      "t": 125179.96799999995,
      "d": 194.96879999998782,
      "v": 77
    },
    {
      "midi": 57,
      "hit": false,
      "t": 125179.96799999995,
      "d": 111.64879999999539,
      "v": 77
    },
    {
      "midi": 64,
      "hit": false,
      "t": 125179.96799999995,
      "d": 174.9719999999943,
      "v": 77
    },
    {
      "midi": 76,
      "hit": false,
      "t": 125179.96799999995,
      "d": 174.9719999999943,
      "v": 77
    },
    {
      "midi": 69,
      "hit": false,
      "t": 125179.96799999995,
      "d": 186.63679999999295,
      "v": 76
    },
    {
      "midi": 74,
      "hit": false,
      "t": 125179.96799999995,
      "d": 194.96879999998782,
      "v": 77
    },
    {
      "midi": 45,
      "hit": false,
      "t": 125579.90399999994,
      "d": 199.96799999999348,
      "v": 77
    },
    {
      "midi": 57,
      "hit": false,
      "t": 125579.90399999994,
      "d": 216.6319999999978,
      "v": 77
    },
    {
      "midi": 64,
      "hit": false,
      "t": 125579.90399999994,
      "d": 216.6319999999978,
      "v": 77
    },
    {
      "midi": 62,
      "hit": false,
      "t": 125579.90399999994,
      "d": 233.2960000000021,
      "v": 77
    },
    {
      "midi": 52,
      "hit": false,
      "t": 125579.90399999994,
      "d": 241.62799999999697,
      "v": 77
    },
    {
      "midi": 57,
      "hit": false,
      "t": 125579.90399999994,
      "d": 199.96799999999348,
      "v": 77
    },
    {
      "midi": 69,
      "hit": false,
      "t": 125579.90399999994,
      "d": 216.6319999999978,
      "v": 77
    },
    {
      "midi": 76,
      "hit": false,
      "t": 125579.90399999994,
      "d": 216.6319999999978,
      "v": 77
    },
    {
      "midi": 74,
      "hit": false,
      "t": 125579.90399999994,
      "d": 233.2960000000021,
      "v": 77
    },
    {
      "midi": 64,
      "hit": false,
      "t": 125579.90399999994,
      "d": 241.62799999999697,
      "v": 77
    },
    {
      "midi": 45,
      "hit": false,
      "t": 125979.83999999994,
      "d": 183.30400000000373,
      "v": 77
    },
    {
      "midi": 52,
      "hit": false,
      "t": 125979.83999999994,
      "d": 203.30079999999725,
      "v": 77
    },
    {
      "midi": 57,
      "hit": false,
      "t": 125979.83999999994,
      "d": 211.63279999999213,
      "v": 77
    },
    {
      "midi": 62,
      "hit": false,
      "t": 125979.83999999994,
      "d": 219.964799999987,
      "v": 77
    },
    {
      "midi": 64,
      "hit": false,
      "t": 125979.83999999994,
      "d": 219.964799999987,
      "v": 77
    },
    {
      "midi": 57,
      "hit": false,
      "t": 125979.83999999994,
      "d": 183.30400000000373,
      "v": 77
    },
    {
      "midi": 64,
      "hit": false,
      "t": 125979.83999999994,
      "d": 203.30079999999725,
      "v": 77
    },
    {
      "midi": 69,
      "hit": false,
      "t": 125979.83999999994,
      "d": 211.63279999999213,
      "v": 77
    },
    {
      "midi": 74,
      "hit": false,
      "t": 125979.83999999994,
      "d": 219.964799999987,
      "v": 77
    },
    {
      "midi": 76,
      "hit": false,
      "t": 125979.83999999994,
      "d": 219.964799999987,
      "v": 77
    },
    {
      "midi": 45,
      "hit": false,
      "t": 126379.77599999993,
      "d": 194.96880000000237,
      "v": 77
    },
    {
      "midi": 52,
      "hit": false,
      "t": 126379.77599999993,
      "d": 211.63280000000668,
      "v": 77
    },
    {
      "midi": 57,
      "hit": false,
      "t": 126379.77599999993,
      "d": 211.63280000000668,
      "v": 77
    },
    {
      "midi": 62,
      "hit": false,
      "t": 126379.77599999993,
      "d": 211.63280000000668,
      "v": 77
    },
    {
      "midi": 64,
      "hit": false,
      "t": 126379.77599999993,
      "d": 216.63200000001234,
      "v": 77
    },
    {
      "midi": 57,
      "hit": false,
      "t": 126379.77599999993,
      "d": 194.96880000000237,
      "v": 77
    },
    {
      "midi": 64,
      "hit": false,
      "t": 126379.77599999993,
      "d": 211.63280000000668,
      "v": 77
    },
    {
      "midi": 69,
      "hit": false,
      "t": 126379.77599999993,
      "d": 211.63280000000668,
      "v": 77
    },
    {
      "midi": 74,
      "hit": false,
      "t": 126379.77599999993,
      "d": 211.63280000000668,
      "v": 77
    },
    {
      "midi": 76,
      "hit": false,
      "t": 126379.77599999993,
      "d": 216.63200000001234,
      "v": 77
    },
    {
      "midi": 45,
      "hit": false,
      "t": 126779.71199999994,
      "d": 249.9600000000064,
      "v": 77
    },
    {
      "midi": 52,
      "hit": false,
      "t": 126779.71199999994,
      "d": 258.2920000000013,
      "v": 77
    },
    {
      "midi": 64,
      "hit": false,
      "t": 126779.71199999994,
      "d": 266.62399999999616,
      "v": 77
    },
    {
      "midi": 57,
      "hit": false,
      "t": 126779.71199999994,
      "d": 274.95599999999104,
      "v": 77
    },
    {
      "midi": 62,
      "hit": false,
      "t": 126779.71199999994,
      "d": 274.95599999999104,
      "v": 77
    },
    {
      "midi": 57,
      "hit": false,
      "t": 126779.71199999994,
      "d": 249.9600000000064,
      "v": 77
    },
    {
      "midi": 64,
      "hit": false,
      "t": 126779.71199999994,
      "d": 258.2920000000013,
      "v": 77
    },
    {
      "midi": 76,
      "hit": false,
      "t": 126779.71199999994,
      "d": 266.62399999999616,
      "v": 77
    },
    {
      "midi": 69,
      "hit": false,
      "t": 126779.71199999994,
      "d": 274.95599999999104,
      "v": 77
    },
    {
      "midi": 74,
      "hit": false,
      "t": 126779.71199999994,
      "d": 274.95599999999104,
      "v": 77
    },
    {
      "midi": 45,
      "hit": false,
      "t": 127179.64799999993,
      "d": 249.9600000000064,
      "v": 77
    },
    {
      "midi": 52,
      "hit": false,
      "t": 127179.64799999993,
      "d": 261.62480000000505,
      "v": 77
    },
    {
      "midi": 64,
      "hit": false,
      "t": 127179.64799999993,
      "d": 266.6240000000107,
      "v": 77
    },
    {
      "midi": 57,
      "hit": false,
      "t": 127179.64799999993,
      "d": 274.9560000000056,
      "v": 77
    },
    {
      "midi": 62,
      "hit": false,
      "t": 127179.64799999993,
      "d": 283.28800000000047,
      "v": 77
    },
    {
      "midi": 57,
      "hit": false,
      "t": 127179.64799999993,
      "d": 249.9600000000064,
      "v": 77
    },
    {
      "midi": 64,
      "hit": false,
      "t": 127179.64799999993,
      "d": 261.62480000000505,
      "v": 77
    },
    {
      "midi": 76,
      "hit": false,
      "t": 127179.64799999993,
      "d": 266.6240000000107,
      "v": 77
    },
    {
      "midi": 69,
      "hit": false,
      "t": 127179.64799999993,
      "d": 274.9560000000056,
      "v": 77
    },
    {
      "midi": 74,
      "hit": false,
      "t": 127179.64799999993,
      "d": 283.28800000000047,
      "v": 77
    },
    {
      "midi": 52,
      "hit": false,
      "t": 127579.58399999993,
      "d": 258.2920000000013,
      "v": 77
    },
    {
      "midi": 45,
      "hit": false,
      "t": 127579.58399999993,
      "d": 274.9560000000056,
      "v": 77
    },
    {
      "midi": 62,
      "hit": false,
      "t": 127579.58399999993,
      "d": 299.9520000000048,
      "v": 77
    },
    {
      "midi": 57,
      "hit": false,
      "t": 127579.58399999993,
      "d": 316.6160000000091,
      "v": 77
    },
    {
      "midi": 64,
      "hit": false,
      "t": 127579.58399999993,
      "d": 316.6160000000091,
      "v": 77
    },
    {
      "midi": 64,
      "hit": false,
      "t": 127579.58399999993,
      "d": 258.2920000000013,
      "v": 77
    },
    {
      "midi": 57,
      "hit": false,
      "t": 127579.58399999993,
      "d": 274.9560000000056,
      "v": 77
    },
    {
      "midi": 74,
      "hit": false,
      "t": 127579.58399999993,
      "d": 299.9520000000048,
      "v": 77
    },
    {
      "midi": 69,
      "hit": false,
      "t": 127579.58399999993,
      "d": 316.6160000000091,
      "v": 77
    },
    {
      "midi": 76,
      "hit": false,
      "t": 127579.58399999993,
      "d": 316.6160000000091,
      "v": 77
    },
    {
      "midi": 64,
      "hit": false,
      "t": 127979.51999999995,
      "d": 1599.744000000006,
      "v": 77
    },
    {
      "midi": 57,
      "hit": false,
      "t": 127979.51999999995,
      "d": 2399.6159999999945,
      "v": 77
    },
    {
      "midi": 61,
      "hit": false,
      "t": 127979.51999999995,
      "d": 2399.6159999999945,
      "v": 77
    },
    {
      "midi": 52,
      "hit": false,
      "t": 127979.51999999995,
      "d": 2794.5527999999904,
      "v": 77
    },
    {
      "midi": 45,
      "hit": false,
      "t": 127979.51999999995,
      "d": 2816.2160000000003,
      "v": 77
    },
    {
      "midi": 76,
      "hit": false,
      "t": 127979.51999999995,
      "d": 1599.744000000006,
      "v": 77
    },
    {
      "midi": 69,
      "hit": false,
      "t": 127979.51999999995,
      "d": 2399.6159999999945,
      "v": 77
    },
    {
      "midi": 73,
      "hit": false,
      "t": 127979.51999999995,
      "d": 2399.6159999999945,
      "v": 77
    },
    {
      "midi": 64,
      "hit": false,
      "t": 127979.51999999995,
      "d": 2794.5527999999904,
      "v": 77
    },
    {
      "midi": 57,
      "hit": false,
      "t": 127979.51999999995,
      "d": 2816.2160000000003,
      "v": 77
    },
    {
      "midi": 59,
      "hit": false,
      "t": 129579.26399999995,
      "d": 653.2287999999971,
      "v": 77
    },
    {
      "midi": 62,
      "hit": false,
      "t": 129579.26399999995,
      "d": 674.8919999999925,
      "v": 77
    },
    {
      "midi": 64,
      "hit": false,
      "t": 129579.26399999995,
      "d": 799.8719999999885,
      "v": 77
    },
    {
      "midi": 71,
      "hit": false,
      "t": 129579.26399999995,
      "d": 653.2287999999971,
      "v": 77
    },
    {
      "midi": 74,
      "hit": false,
      "t": 129579.26399999995,
      "d": 674.8919999999925,
      "v": 77
    },
    {
      "midi": 76,
      "hit": false,
      "t": 129579.26399999995,
      "d": 799.8719999999885,
      "v": 77
    },
    {
      "midi": 61,
      "hit": false,
      "t": 130379.13599999994,
      "d": 399.9360000000015,
      "v": 77
    },
    {
      "midi": 57,
      "hit": false,
      "t": 130379.13599999994,
      "d": 428.26480000000447,
      "v": 77
    },
    {
      "midi": 64,
      "hit": false,
      "t": 130379.13599999994,
      "d": 458.2600000000093,
      "v": 77
    },
    {
      "midi": 73,
      "hit": false,
      "t": 130379.13599999994,
      "d": 399.9360000000015,
      "v": 77
    },
    {
      "midi": 69,
      "hit": false,
      "t": 130379.13599999994,
      "d": 428.26480000000447,
      "v": 77
    },
    {
      "midi": 76,
      "hit": false,
      "t": 130379.13599999994,
      "d": 458.2600000000093,
      "v": 77
    },
    {
      "midi": 62,
      "hit": false,
      "t": 131179.00799999994,
      "d": 2369.6208000000042,
      "v": 77
    },
    {
      "midi": 59,
      "hit": false,
      "t": 131179.00799999994,
      "d": 2382.95199999999,
      "v": 77
    },
    {
      "midi": 71,
      "hit": false,
      "t": 131179.00799999994,
      "d": 2386.284799999994,
      "v": 77
    },
    {
      "midi": 55,
      "hit": false,
      "t": 131179.00799999994,
      "d": 2402.9487999999837,
      "v": 77
    },
    {
      "midi": 67,
      "hit": false,
      "t": 131179.00799999994,
      "d": 2411.2807999999786,
      "v": 77
    },
    {
      "midi": 74,
      "hit": false,
      "t": 131179.00799999994,
      "d": 2369.6208000000042,
      "v": 77
    },
    {
      "midi": 71,
      "hit": false,
      "t": 131179.00799999994,
      "d": 2382.95199999999,
      "v": 77
    },
    {
      "midi": 83,
      "hit": false,
      "t": 131179.00799999994,
      "d": 2386.284799999994,
      "v": 77
    },
    {
      "midi": 67,
      "hit": false,
      "t": 131179.00799999994,
      "d": 2402.9487999999837,
      "v": 77
    },
    {
      "midi": 79,
      "hit": false,
      "t": 131179.00799999994,
      "d": 2411.2807999999786,
      "v": 77
    },
    {
      "midi": 54,
      "hit": false,
      "t": 134378.49599999993,
      "d": 349.9440000000177,
      "v": 77
    },
    {
      "midi": 61,
      "hit": false,
      "t": 134378.49599999993,
      "d": 386.6048000000301,
      "v": 77
    },
    {
      "midi": 57,
      "hit": false,
      "t": 134378.49599999993,
      "d": 394.93680000002496,
      "v": 77
    },
    {
      "midi": 64,
      "hit": false,
      "t": 134378.49599999993,
      "d": 428.2648000000336,
      "v": 77
    },
    {
      "midi": 66,
      "hit": false,
      "t": 134378.49599999993,
      "d": 349.9440000000177,
      "v": 77
    },
    {
      "midi": 73,
      "hit": false,
      "t": 134378.49599999993,
      "d": 386.6048000000301,
      "v": 77
    },
    {
      "midi": 69,
      "hit": false,
      "t": 134378.49599999993,
      "d": 394.93680000002496,
      "v": 77
    },
    {
      "midi": 76,
      "hit": false,
      "t": 134378.49599999993,
      "d": 428.2648000000336,
      "v": 77
    },
    {
      "midi": 59,
      "hit": false,
      "t": 135578.30399999995,
      "d": 1344.784799999994,
      "v": 77
    },
    {
      "midi": 62,
      "hit": false,
      "t": 135578.30399999995,
      "d": 1349.783999999985,
      "v": 77
    },
    {
      "midi": 66,
      "hit": false,
      "t": 135578.30399999995,
      "d": 1383.1119999999937,
      "v": 77
    },
    {
      "midi": 71,
      "hit": false,
      "t": 135578.30399999995,
      "d": 1344.784799999994,
      "v": 77
    },
    {
      "midi": 74,
      "hit": false,
      "t": 135578.30399999995,
      "d": 1349.783999999985,
      "v": 77
    },
    {
      "midi": 78,
      "hit": false,
      "t": 135578.30399999995,
      "d": 1383.1119999999937,
      "v": 77
    },
    {
      "midi": 59,
      "hit": false,
      "t": 137577.98399999994,
      "d": 619.9008000000031,
      "v": 77
    },
    {
      "midi": 55,
      "hit": false,
      "t": 137577.98399999994,
      "d": 666.5599999999977,
      "v": 77
    },
    {
      "midi": 52,
      "hit": false,
      "t": 137577.98399999994,
      "d": 686.5567999999912,
      "v": 77
    },
    {
      "midi": 62,
      "hit": false,
      "t": 137577.98399999994,
      "d": 699.8879999999772,
      "v": 77
    },
    {
      "midi": 71,
      "hit": false,
      "t": 137577.98399999994,
      "d": 619.9008000000031,
      "v": 77
    },
    {
      "midi": 67,
      "hit": false,
      "t": 137577.98399999994,
      "d": 666.5599999999977,
      "v": 77
    },
    {
      "midi": 64,
      "hit": false,
      "t": 137577.98399999994,
      "d": 686.5567999999912,
      "v": 77
    },
    {
      "midi": 74,
      "hit": false,
      "t": 137577.98399999994,
      "d": 699.8879999999772,
      "v": 77
    },
    {
      "midi": 54,
      "hit": false,
      "t": 139177.72799999992,
      "d": 749.8800000000047,
      "v": 77
    },
    {
      "midi": 49,
      "hit": false,
      "t": 139177.72799999992,
      "d": 761.5448000000033,
      "v": 77
    },
    {
      "midi": 66,
      "hit": false,
      "t": 139177.72799999992,
      "d": 769.8767999999982,
      "v": 77
    },
    {
      "midi": 57,
      "hit": false,
      "t": 139177.72799999992,
      "d": 774.8759999999893,
      "v": 77
    },
    {
      "midi": 61,
      "hit": false,
      "t": 139177.72799999992,
      "d": 799.872000000003,
      "v": 77
    },
    {
      "midi": 66,
      "hit": false,
      "t": 139177.72799999992,
      "d": 749.8800000000047,
      "v": 77
    },
    {
      "midi": 61,
      "hit": false,
      "t": 139177.72799999992,
      "d": 761.5448000000033,
      "v": 77
    },
    {
      "midi": 78,
      "hit": false,
      "t": 139177.72799999992,
      "d": 769.8767999999982,
      "v": 77
    },
    {
      "midi": 69,
      "hit": false,
      "t": 139177.72799999992,
      "d": 774.8759999999893,
      "v": 77
    },
    {
      "midi": 73,
      "hit": false,
      "t": 139177.72799999992,
      "d": 799.872000000003,
      "v": 77
    },
    {
      "midi": 43,
      "hit": false,
      "t": 140777.47199999992,
      "d": 1069.8287999999884,
      "v": 77
    },
    {
      "midi": 55,
      "hit": false,
      "t": 140777.47199999992,
      "d": 1116.487999999983,
      "v": 77
    },
    {
      "midi": 59,
      "hit": false,
      "t": 140777.47199999992,
      "d": 1133.1519999999728,
      "v": 77
    },
    {
      "midi": 62,
      "hit": false,
      "t": 140777.47199999992,
      "d": 1136.4847999999765,
      "v": 77
    },
    {
      "midi": 55,
      "hit": false,
      "t": 140777.47199999992,
      "d": 1069.8287999999884,
      "v": 77
    },
    {
      "midi": 67,
      "hit": false,
      "t": 140777.47199999992,
      "d": 1116.487999999983,
      "v": 77
    },
    {
      "midi": 71,
      "hit": false,
      "t": 140777.47199999992,
      "d": 1133.1519999999728,
      "v": 77
    },
    {
      "midi": 74,
      "hit": false,
      "t": 140777.47199999992,
      "d": 1136.4847999999765,
      "v": 77
    },
    {
      "midi": 52,
      "hit": false,
      "t": 142377.2159999999,
      "d": 258.29199999998673,
      "v": 77
    },
    {
      "midi": 45,
      "hit": false,
      "t": 142377.2159999999,
      "d": 261.6247999999905,
      "v": 77
    },
    {
      "midi": 59,
      "hit": false,
      "t": 142377.2159999999,
      "d": 266.6239999999816,
      "v": 77
    },
    {
      "midi": 62,
      "hit": false,
      "t": 142377.2159999999,
      "d": 274.9559999999765,
      "v": 77
    },
    {
      "midi": 64,
      "hit": false,
      "t": 142377.2159999999,
      "d": 258.29199999998673,
      "v": 77
    },
    {
      "midi": 57,
      "hit": false,
      "t": 142377.2159999999,
      "d": 261.6247999999905,
      "v": 77
    },
    {
      "midi": 71,
      "hit": false,
      "t": 142377.2159999999,
      "d": 266.6239999999816,
      "v": 77
    },
    {
      "midi": 74,
      "hit": false,
      "t": 142377.2159999999,
      "d": 274.9559999999765,
      "v": 77
    },
    {
      "midi": 45,
      "hit": false,
      "t": 142777.15199999989,
      "d": 83.32000000000698,
      "v": 77
    },
    {
      "midi": 52,
      "hit": false,
      "t": 142777.15199999989,
      "d": 116.6480000000156,
      "v": 77
    },
    {
      "midi": 59,
      "hit": false,
      "t": 142777.15199999989,
      "d": 166.64000000001397,
      "v": 77
    },
    {
      "midi": 62,
      "hit": false,
      "t": 142777.15199999989,
      "d": 183.30400000000373,
      "v": 77
    },
    {
      "midi": 57,
      "hit": false,
      "t": 142777.15199999989,
      "d": 83.32000000000698,
      "v": 77
    },
    {
      "midi": 64,
      "hit": false,
      "t": 142777.15199999989,
      "d": 116.6480000000156,
      "v": 77
    },
    {
      "midi": 71,
      "hit": false,
      "t": 142777.15199999989,
      "d": 166.64000000001397,
      "v": 77
    },
    {
      "midi": 74,
      "hit": false,
      "t": 142777.15199999989,
      "d": 183.30400000000373,
      "v": 77
    },
    {
      "midi": 62,
      "hit": false,
      "t": 143177.08799999987,
      "d": 144.976800000004,
      "v": 77
    },
    {
      "midi": 45,
      "hit": false,
      "t": 143177.08799999987,
      "d": 149.9759999999951,
      "v": 77
    },
    {
      "midi": 52,
      "hit": false,
      "t": 143177.08799999987,
      "d": 149.9759999999951,
      "v": 77
    },
    {
      "midi": 59,
      "hit": false,
      "t": 143177.08799999987,
      "d": 169.97279999998864,
      "v": 77
    },
    {
      "midi": 74,
      "hit": false,
      "t": 143177.08799999987,
      "d": 144.976800000004,
      "v": 77
    },
    {
      "midi": 57,
      "hit": false,
      "t": 143177.08799999987,
      "d": 149.9759999999951,
      "v": 77
    },
    {
      "midi": 64,
      "hit": false,
      "t": 143177.08799999987,
      "d": 149.9759999999951,
      "v": 77
    },
    {
      "midi": 71,
      "hit": false,
      "t": 143177.08799999987,
      "d": 169.97279999998864,
      "v": 77
    },
    {
      "midi": 52,
      "hit": false,
      "t": 143577.02399999986,
      "d": 94.98480000000563,
      "v": 77
    },
    {
      "midi": 45,
      "hit": false,
      "t": 143577.02399999986,
      "d": 119.98080000001937,
      "v": 77
    },
    {
      "midi": 62,
      "hit": false,
      "t": 143577.02399999986,
      "d": 124.98000000001048,
      "v": 66
    },
    {
      "midi": 64,
      "hit": false,
      "t": 143577.02399999986,
      "d": 94.98480000000563,
      "v": 77
    },
    {
      "midi": 57,
      "hit": false,
      "t": 143577.02399999986,
      "d": 119.98080000001937,
      "v": 77
    },
    {
      "midi": 74,
      "hit": false,
      "t": 143577.02399999986,
      "d": 124.98000000001048,
      "v": 66
    },
    {
      "midi": 52,
      "hit": false,
      "t": 143976.95999999985,
      "d": 103.31680000000051,
      "v": 77
    },
    {
      "midi": 45,
      "hit": false,
      "t": 143976.95999999985,
      "d": 128.31280000001425,
      "v": 77
    },
    {
      "midi": 69,
      "hit": false,
      "t": 143976.95999999985,
      "d": 186.6368000000075,
      "v": 77
    },
    {
      "midi": 62,
      "hit": false,
      "t": 143976.95999999985,
      "d": 199.96799999999348,
      "v": 77
    },
    {
      "midi": 59,
      "hit": false,
      "t": 143976.95999999985,
      "d": 208.29999999998836,
      "v": 77
    },
    {
      "midi": 64,
      "hit": false,
      "t": 143976.95999999985,
      "d": 103.31680000000051,
      "v": 77
    },
    {
      "midi": 57,
      "hit": false,
      "t": 143976.95999999985,
      "d": 128.31280000001425,
      "v": 77
    },
    {
      "midi": 81,
      "hit": false,
      "t": 143976.95999999985,
      "d": 186.6368000000075,
      "v": 77
    },
    {
      "midi": 74,
      "hit": false,
      "t": 143976.95999999985,
      "d": 199.96799999999348,
      "v": 77
    },
    {
      "midi": 71,
      "hit": false,
      "t": 143976.95999999985,
      "d": 208.29999999998836,
      "v": 77
    },
    {
      "midi": 45,
      "hit": false,
      "t": 144376.89599999983,
      "d": 153.30879999999888,
      "v": 77
    },
    {
      "midi": 52,
      "hit": false,
      "t": 144376.89599999983,
      "d": 183.30400000000373,
      "v": 77
    },
    {
      "midi": 59,
      "hit": false,
      "t": 144376.89599999983,
      "d": 249.95999999999185,
      "v": 77
    },
    {
      "midi": 69,
      "hit": false,
      "t": 144376.89599999983,
      "d": 249.95999999999185,
      "v": 77
    },
    {
      "midi": 62,
      "hit": false,
      "t": 144376.89599999983,
      "d": 258.29199999998673,
      "v": 77
    },
    {
      "midi": 57,
      "hit": false,
      "t": 144376.89599999983,
      "d": 153.30879999999888,
      "v": 77
    },
    {
      "midi": 64,
      "hit": false,
      "t": 144376.89599999983,
      "d": 183.30400000000373,
      "v": 77
    },
    {
      "midi": 71,
      "hit": false,
      "t": 144376.89599999983,
      "d": 249.95999999999185,
      "v": 77
    },
    {
      "midi": 81,
      "hit": false,
      "t": 144376.89599999983,
      "d": 249.95999999999185,
      "v": 77
    },
    {
      "midi": 74,
      "hit": false,
      "t": 144376.89599999983,
      "d": 258.29199999998673,
      "v": 77
    },
    {
      "midi": 52,
      "hit": false,
      "t": 144776.83199999982,
      "d": 178.30480000001262,
      "v": 77
    },
    {
      "midi": 45,
      "hit": false,
      "t": 144776.83199999982,
      "d": 199.96800000002258,
      "v": 77
    },
    {
      "midi": 59,
      "hit": false,
      "t": 144776.83199999982,
      "d": 233.2960000000312,
      "v": 77
    },
    {
      "midi": 62,
      "hit": false,
      "t": 144776.83199999982,
      "d": 236.62880000003497,
      "v": 77
    },
    {
      "midi": 69,
      "hit": false,
      "t": 144776.83199999982,
      "d": 244.96080000002985,
      "v": 77
    },
    {
      "midi": 64,
      "hit": false,
      "t": 144776.83199999982,
      "d": 178.30480000001262,
      "v": 77
    },
    {
      "midi": 57,
      "hit": false,
      "t": 144776.83199999982,
      "d": 199.96800000002258,
      "v": 77
    },
    {
      "midi": 71,
      "hit": false,
      "t": 144776.83199999982,
      "d": 233.2960000000312,
      "v": 77
    },
    {
      "midi": 74,
      "hit": false,
      "t": 144776.83199999982,
      "d": 236.62880000003497,
      "v": 77
    },
    {
      "midi": 81,
      "hit": false,
      "t": 144776.83199999982,
      "d": 244.96080000002985,
      "v": 77
    },
    {
      "midi": 59,
      "hit": false,
      "t": 145176.76799999984,
      "d": 119.98079999999027,
      "v": 77
    },
    {
      "midi": 62,
      "hit": false,
      "t": 145176.76799999984,
      "d": 136.64479999998002,
      "v": 77
    },
    {
      "midi": 69,
      "hit": false,
      "t": 145176.76799999984,
      "d": 161.64079999999376,
      "v": 77
    },
    {
      "midi": 45,
      "hit": false,
      "t": 145176.76799999984,
      "d": 186.6368000000075,
      "v": 77
    },
    {
      "midi": 52,
      "hit": false,
      "t": 145176.76799999984,
      "d": 194.96880000000237,
      "v": 77
    },
    {
      "midi": 71,
      "hit": false,
      "t": 145176.76799999984,
      "d": 119.98079999999027,
      "v": 77
    },
    {
      "midi": 74,
      "hit": false,
      "t": 145176.76799999984,
      "d": 136.64479999998002,
      "v": 77
    },
    {
      "midi": 81,
      "hit": false,
      "t": 145176.76799999984,
      "d": 161.64079999999376,
      "v": 77
    },
    {
      "midi": 57,
      "hit": false,
      "t": 145176.76799999984,
      "d": 186.6368000000075,
      "v": 77
    },
    {
      "midi": 64,
      "hit": false,
      "t": 145176.76799999984,
      "d": 194.96880000000237,
      "v": 77
    },
    {
      "midi": 45,
      "hit": false,
      "t": 145576.70399999985,
      "d": 1261.464799999987,
      "v": 77
    },
    {
      "midi": 52,
      "hit": false,
      "t": 145576.70399999985,
      "d": 1261.464799999987,
      "v": 77
    },
    {
      "midi": 69,
      "hit": false,
      "t": 145576.70399999985,
      "d": 1294.7927999999956,
      "v": 77
    },
    {
      "midi": 61,
      "hit": false,
      "t": 145576.70399999985,
      "d": 1303.1247999999905,
      "v": 77
    },
    {
      "midi": 64,
      "hit": false,
      "t": 145576.70399999985,
      "d": 1316.4559999999765,
      "v": 77
    },
    {
      "midi": 57,
      "hit": false,
      "t": 145576.70399999985,
      "d": 1261.464799999987,
      "v": 77
    },
    {
      "midi": 64,
      "hit": false,
      "t": 145576.70399999985,
      "d": 1261.464799999987,
      "v": 77
    },
    {
      "midi": 81,
      "hit": false,
      "t": 145576.70399999985,
      "d": 1294.7927999999956,
      "v": 77
    },
    {
      "midi": 73,
      "hit": false,
      "t": 145576.70399999985,
      "d": 1303.1247999999905,
      "v": 77
    },
    {
      "midi": 76,
      "hit": false,
      "t": 145576.70399999985,
      "d": 1316.4559999999765,
      "v": 77
    },
    {
      "midi": 45,
      "hit": false,
      "t": 147176.44799999983,
      "d": 149.9759999999951,
      "v": 77
    },
    {
      "midi": 69,
      "hit": false,
      "t": 147176.44799999983,
      "d": 219.964799999987,
      "v": 77
    },
    {
      "midi": 52,
      "hit": false,
      "t": 147176.44799999983,
      "d": 228.29679999998189,
      "v": 77
    },
    {
      "midi": 64,
      "hit": false,
      "t": 147176.44799999983,
      "d": 233.295999999973,
      "v": 77
    },
    {
      "midi": 61,
      "hit": false,
      "t": 147176.44799999983,
      "d": 249.95999999996275,
      "v": 77
    },
    {
      "midi": 57,
      "hit": false,
      "t": 147176.44799999983,
      "d": 149.9759999999951,
      "v": 77
    },
    {
      "midi": 81,
      "hit": false,
      "t": 147176.44799999983,
      "d": 219.964799999987,
      "v": 77
    },
    {
      "midi": 64,
      "hit": false,
      "t": 147176.44799999983,
      "d": 228.29679999998189,
      "v": 77
    },
    {
      "midi": 76,
      "hit": false,
      "t": 147176.44799999983,
      "d": 233.295999999973,
      "v": 77
    },
    {
      "midi": 73,
      "hit": false,
      "t": 147176.44799999983,
      "d": 249.95999999996275,
      "v": 77
    },
    {
      "midi": 45,
      "hit": false,
      "t": 147776.35199999978,
      "d": 183.30400000000373,
      "v": 77
    },
    {
      "midi": 52,
      "hit": false,
      "t": 147776.35199999978,
      "d": 194.96880000000237,
      "v": 77
    },
    {
      "midi": 64,
      "hit": false,
      "t": 147776.35199999978,
      "d": 244.96080000000075,
      "v": 77
    },
    {
      "midi": 69,
      "hit": false,
      "t": 147776.35199999978,
      "d": 244.96080000000075,
      "v": 77
    },
    {
      "midi": 61,
      "hit": false,
      "t": 147776.35199999978,
      "d": 249.95999999999185,
      "v": 77
    },
    {
      "midi": 57,
      "hit": false,
      "t": 147776.35199999978,
      "d": 183.30400000000373,
      "v": 77
    },
    {
      "midi": 64,
      "hit": false,
      "t": 147776.35199999978,
      "d": 194.96880000000237,
      "v": 77
    },
    {
      "midi": 76,
      "hit": false,
      "t": 147776.35199999978,
      "d": 244.96080000000075,
      "v": 77
    },
    {
      "midi": 81,
      "hit": false,
      "t": 147776.35199999978,
      "d": 244.96080000000075,
      "v": 77
    },
    {
      "midi": 73,
      "hit": false,
      "t": 147776.35199999978,
      "d": 249.95999999999185,
      "v": 77
    },
    {
      "midi": 52,
      "hit": false,
      "t": 148376.25599999976,
      "d": 169.97279999998864,
      "v": 77
    },
    {
      "midi": 64,
      "hit": false,
      "t": 148376.25599999976,
      "d": 178.30479999998352,
      "v": 77
    },
    {
      "midi": 45,
      "hit": false,
      "t": 148376.25599999976,
      "d": 183.30399999997462,
      "v": 77
    },
    {
      "midi": 61,
      "hit": false,
      "t": 148376.25599999976,
      "d": 186.6367999999784,
      "v": 77
    },
    {
      "midi": 69,
      "hit": false,
      "t": 148376.25599999976,
      "d": 199.96799999996438,
      "v": 77
    },
    {
      "midi": 64,
      "hit": false,
      "t": 148376.25599999976,
      "d": 169.97279999998864,
      "v": 77
    },
    {
      "midi": 76,
      "hit": false,
      "t": 148376.25599999976,
      "d": 178.30479999998352,
      "v": 77
    },
    {
      "midi": 57,
      "hit": false,
      "t": 148376.25599999976,
      "d": 183.30399999997462,
      "v": 77
    },
    {
      "midi": 73,
      "hit": false,
      "t": 148376.25599999976,
      "d": 186.6367999999784,
      "v": 77
    },
    {
      "midi": 81,
      "hit": false,
      "t": 148376.25599999976,
      "d": 199.96799999996438,
      "v": 77
    },
    {
      "midi": 50,
      "hit": false,
      "t": 148776.19199999972,
      "d": 758.2119999999995,
      "v": 77
    },
    {
      "midi": 62,
      "hit": false,
      "t": 148776.19199999972,
      "d": 766.5439999999944,
      "v": 77
    },
    {
      "midi": 66,
      "hit": false,
      "t": 148776.19199999972,
      "d": 766.5439999999944,
      "v": 77
    },
    {
      "midi": 69,
      "hit": false,
      "t": 148776.19199999972,
      "d": 774.8759999999893,
      "v": 77
    },
    {
      "midi": 62,
      "hit": false,
      "t": 148776.19199999972,
      "d": 758.2119999999995,
      "v": 77
    },
    {
      "midi": 74,
      "hit": false,
      "t": 148776.19199999972,
      "d": 766.5439999999944,
      "v": 77
    },
    {
      "midi": 78,
      "hit": false,
      "t": 148776.19199999972,
      "d": 766.5439999999944,
      "v": 77
    },
    {
      "midi": 81,
      "hit": false,
      "t": 148776.19199999972,
      "d": 774.8759999999893,
      "v": 77
    },
    {
      "midi": 66,
      "hit": false,
      "t": 150375.9359999997,
      "d": 1008.1719999999914,
      "v": 77
    },
    {
      "midi": 69,
      "hit": false,
      "t": 150375.9359999997,
      "d": 1028.168799999985,
      "v": 77
    },
    {
      "midi": 74,
      "hit": false,
      "t": 150375.9359999997,
      "d": 1058.1639999999898,
      "v": 77
    },
    {
      "midi": 78,
      "hit": false,
      "t": 150375.9359999997,
      "d": 1008.1719999999914,
      "v": 77
    },
    {
      "midi": 81,
      "hit": false,
      "t": 150375.9359999997,
      "d": 1028.168799999985,
      "v": 77
    },
    {
      "midi": 86,
      "hit": false,
      "t": 150375.9359999997,
      "d": 1058.1639999999898,
      "v": 77
    },
    {
      "midi": 62,
      "hit": false,
      "t": 151975.67999999967,
      "d": 653.2288000000117,
      "v": 77
    },
    {
      "midi": 59,
      "hit": false,
      "t": 151975.67999999967,
      "d": 749.8800000000047,
      "v": 77
    },
    {
      "midi": 55,
      "hit": false,
      "t": 151975.67999999967,
      "d": 803.2048000000068,
      "v": 77
    },
    {
      "midi": 69,
      "hit": false,
      "t": 151975.67999999967,
      "d": 816.5359999999928,
      "v": 77
    },
    {
      "midi": 74,
      "hit": false,
      "t": 151975.67999999967,
      "d": 653.2288000000117,
      "v": 77
    },
    {
      "midi": 71,
      "hit": false,
      "t": 151975.67999999967,
      "d": 749.8800000000047,
      "v": 77
    },
    {
      "midi": 67,
      "hit": false,
      "t": 151975.67999999967,
      "d": 803.2048000000068,
      "v": 77
    },
    {
      "midi": 81,
      "hit": false,
      "t": 151975.67999999967,
      "d": 816.5359999999928,
      "v": 77
    },
    {
      "midi": 59,
      "hit": false,
      "t": 153575.42399999968,
      "d": 286.62080000003334,
      "v": 77
    },
    {
      "midi": 62,
      "hit": false,
      "t": 153575.42399999968,
      "d": 299.9520000000193,
      "v": 77
    },
    {
      "midi": 52,
      "hit": false,
      "t": 153575.42399999968,
      "d": 478.25680000003194,
      "v": 77
    },
    {
      "midi": 45,
      "hit": false,
      "t": 153575.42399999968,
      "d": 483.25600000002305,
      "v": 77
    },
    {
      "midi": 71,
      "hit": false,
      "t": 153575.42399999968,
      "d": 286.62080000003334,
      "v": 77
    },
    {
      "midi": 74,
      "hit": false,
      "t": 153575.42399999968,
      "d": 299.9520000000193,
      "v": 77
    },
    {
      "midi": 64,
      "hit": false,
      "t": 153575.42399999968,
      "d": 478.25680000003194,
      "v": 77
    },
    {
      "midi": 57,
      "hit": false,
      "t": 153575.42399999968,
      "d": 483.25600000002305,
      "v": 77
    },
    {
      "midi": 57,
      "hit": false,
      "t": 154375.2959999997,
      "d": 186.6368000000075,
      "v": 77
    },
    {
      "midi": 61,
      "hit": false,
      "t": 154375.2959999997,
      "d": 208.30000000001746,
      "v": 77
    },
    {
      "midi": 45,
      "hit": false,
      "t": 154375.2959999997,
      "d": 253.29280000002473,
      "v": 77
    },
    {
      "midi": 69,
      "hit": false,
      "t": 154375.2959999997,
      "d": 186.6368000000075,
      "v": 77
    },
    {
      "midi": 73,
      "hit": false,
      "t": 154375.2959999997,
      "d": 208.30000000001746,
      "v": 77
    },
    {
      "midi": 57,
      "hit": false,
      "t": 154375.2959999997,
      "d": 253.29280000002473,
      "v": 77
    },
    {
      "midi": 62,
      "hit": false,
      "t": 155175.16799999974,
      "d": 253.29279999999562,
      "v": 77
    },
    {
      "midi": 66,
      "hit": false,
      "t": 155175.16799999974,
      "d": 253.29279999999562,
      "v": 77
    },
    {
      "midi": 74,
      "hit": false,
      "t": 155175.16799999974,
      "d": 253.29279999999562,
      "v": 77
    },
    {
      "midi": 78,
      "hit": false,
      "t": 155175.16799999974,
      "d": 253.29279999999562,
      "v": 77
    },
    {
      "midi": 64,
      "hit": false,
      "t": 155975.03999999975,
      "d": 266.6239999999816,
      "v": 77
    },
    {
      "midi": 61,
      "hit": false,
      "t": 155975.03999999975,
      "d": 274.9559999999765,
      "v": 77
    },
    {
      "midi": 76,
      "hit": false,
      "t": 155975.03999999975,
      "d": 266.6239999999816,
      "v": 77
    },
    {
      "midi": 73,
      "hit": false,
      "t": 155975.03999999975,
      "d": 274.9559999999765,
      "v": 77
    },
    {
      "midi": 62,
      "hit": false,
      "t": 156774.91199999972,
      "d": 258.29200000001583,
      "v": 77
    },
    {
      "midi": 59,
      "hit": false,
      "t": 156774.91199999972,
      "d": 274.9560000000056,
      "v": 77
    },
    {
      "midi": 74,
      "hit": false,
      "t": 156774.91199999972,
      "d": 258.29200000001583,
      "v": 77
    },
    {
      "midi": 71,
      "hit": false,
      "t": 156774.91199999972,
      "d": 274.9560000000056,
      "v": 77
    },
    {
      "midi": 61,
      "hit": false,
      "t": 157574.78399999972,
      "d": 216.63200000001234,
      "v": 77
    },
    {
      "midi": 57,
      "hit": false,
      "t": 157574.78399999972,
      "d": 219.9648000000161,
      "v": 77
    },
    {
      "midi": 73,
      "hit": false,
      "t": 157574.78399999972,
      "d": 216.63200000001234,
      "v": 77
    },
    {
      "midi": 69,
      "hit": false,
      "t": 157574.78399999972,
      "d": 219.9648000000161,
      "v": 77
    },
    {
      "midi": 52,
      "hit": false,
      "t": 158374.65599999973,
      "d": 333.27999999999884,
      "v": 77
    },
    {
      "midi": 55,
      "hit": false,
      "t": 158374.65599999973,
      "d": 349.9439999999886,
      "v": 77
    },
    {
      "midi": 59,
      "hit": false,
      "t": 158374.65599999973,
      "d": 378.272799999977,
      "v": 77
    },
    {
      "midi": 62,
      "hit": false,
      "t": 158374.65599999973,
      "d": 399.93599999998696,
      "v": 77
    },
    {
      "midi": 64,
      "hit": false,
      "t": 158374.65599999973,
      "d": 333.27999999999884,
      "v": 77
    },
    {
      "midi": 67,
      "hit": false,
      "t": 158374.65599999973,
      "d": 349.9439999999886,
      "v": 77
    },
    {
      "midi": 71,
      "hit": false,
      "t": 158374.65599999973,
      "d": 378.272799999977,
      "v": 77
    },
    {
      "midi": 74,
      "hit": false,
      "t": 158374.65599999973,
      "d": 399.93599999998696,
      "v": 77
    },
    {
      "midi": 52,
      "hit": false,
      "t": 158774.5919999997,
      "d": 366.60800000000745,
      "v": 77
    },
    {
      "midi": 64,
      "hit": false,
      "t": 158774.5919999997,
      "d": 366.60800000000745,
      "v": 77
    },
    {
      "midi": 67,
      "hit": false,
      "t": 159174.52799999973,
      "d": 94.98480000000563,
      "v": 77
    },
    {
      "midi": 79,
      "hit": false,
      "t": 159174.52799999973,
      "d": 94.98480000000563,
      "v": 77
    },
    {
      "midi": 52,
      "hit": false,
      "t": 159574.46399999975,
      "d": 83.32000000000698,
      "v": 77
    },
    {
      "midi": 64,
      "hit": false,
      "t": 159574.46399999975,
      "d": 83.32000000000698,
      "v": 77
    },
    {
      "midi": 57,
      "hit": false,
      "t": 159974.39999999973,
      "d": 269.9567999999854,
      "v": 77
    },
    {
      "midi": 61,
      "hit": false,
      "t": 159974.39999999973,
      "d": 449.92799999998533,
      "v": 77
    },
    {
      "midi": 64,
      "hit": false,
      "t": 159974.39999999973,
      "d": 541.5799999999872,
      "v": 77
    },
    {
      "midi": 45,
      "hit": false,
      "t": 159974.39999999973,
      "d": 833.1999999999825,
      "v": 77
    },
    {
      "midi": 52,
      "hit": false,
      "t": 159974.39999999973,
      "d": 833.1999999999825,
      "v": 77
    },
    {
      "midi": 69,
      "hit": false,
      "t": 159974.39999999973,
      "d": 269.9567999999854,
      "v": 77
    },
    {
      "midi": 73,
      "hit": false,
      "t": 159974.39999999973,
      "d": 449.92799999998533,
      "v": 77
    },
    {
      "midi": 76,
      "hit": false,
      "t": 159974.39999999973,
      "d": 541.5799999999872,
      "v": 77
    },
    {
      "midi": 57,
      "hit": false,
      "t": 159974.39999999973,
      "d": 833.1999999999825,
      "v": 77
    },
    {
      "midi": 64,
      "hit": false,
      "t": 159974.39999999973,
      "d": 833.1999999999825,
      "v": 77
    },
    {
      "midi": 57,
      "hit": false,
      "t": 160374.33599999972,
      "d": 199.96799999999348,
      "v": 77
    },
    {
      "midi": 69,
      "hit": false,
      "t": 160374.33599999972,
      "d": 199.96799999999348,
      "v": 77
    },
    {
      "midi": 57,
      "hit": false,
      "t": 160774.2719999997,
      "d": 161.64080000002286,
      "v": 77
    },
    {
      "midi": 62,
      "hit": false,
      "t": 160774.2719999997,
      "d": 216.63200000001234,
      "v": 77
    },
    {
      "midi": 64,
      "hit": false,
      "t": 160774.2719999997,
      "d": 216.63200000001234,
      "v": 77
    },
    {
      "midi": 69,
      "hit": false,
      "t": 160774.2719999997,
      "d": 161.64080000002286,
      "v": 77
    },
    {
      "midi": 74,
      "hit": false,
      "t": 160774.2719999997,
      "d": 216.63200000001234,
      "v": 77
    },
    {
      "midi": 76,
      "hit": false,
      "t": 160774.2719999997,
      "d": 216.63200000001234,
      "v": 77
    },
    {
      "midi": 62,
      "hit": false,
      "t": 161574.1439999997,
      "d": 261.6248000000196,
      "v": 77
    },
    {
      "midi": 66,
      "hit": false,
      "t": 161574.1439999997,
      "d": 516.5840000000026,
      "v": 77
    },
    {
      "midi": 69,
      "hit": false,
      "t": 161574.1439999997,
      "d": 611.5687999999791,
      "v": 77
    },
    {
      "midi": 50,
      "hit": false,
      "t": 161574.1439999997,
      "d": 1269.7967999999819,
      "v": 77
    },
    {
      "midi": 57,
      "hit": false,
      "t": 161574.1439999997,
      "d": 1294.7927999999956,
      "v": 77
    },
    {
      "midi": 74,
      "hit": false,
      "t": 161574.1439999997,
      "d": 261.6248000000196,
      "v": 77
    },
    {
      "midi": 78,
      "hit": false,
      "t": 161574.1439999997,
      "d": 516.5840000000026,
      "v": 77
    },
    {
      "midi": 81,
      "hit": false,
      "t": 161574.1439999997,
      "d": 611.5687999999791,
      "v": 77
    },
    {
      "midi": 62,
      "hit": false,
      "t": 161574.1439999997,
      "d": 1269.7967999999819,
      "v": 77
    },
    {
      "midi": 69,
      "hit": false,
      "t": 161574.1439999997,
      "d": 1294.7927999999956,
      "v": 77
    },
    {
      "midi": 62,
      "hit": false,
      "t": 161974.07999999973,
      "d": 194.96879999997327,
      "v": 77
    },
    {
      "midi": 74,
      "hit": false,
      "t": 161974.07999999973,
      "d": 194.96879999997327,
      "v": 77
    },
    {
      "midi": 64,
      "hit": false,
      "t": 162374.01599999968,
      "d": 183.30400000000373,
      "v": 77
    },
    {
      "midi": 76,
      "hit": false,
      "t": 162374.01599999968,
      "d": 183.30400000000373,
      "v": 77
    },
    {
      "midi": 66,
      "hit": false,
      "t": 162773.9519999997,
      "d": 169.97280000001774,
      "v": 77
    },
    {
      "midi": 78,
      "hit": false,
      "t": 162773.9519999997,
      "d": 169.97280000001774,
      "v": 77
    },
    {
      "midi": 60,
      "hit": false,
      "t": 163173.88799999972,
      "d": 703.2208000000101,
      "v": 77
    },
    {
      "midi": 69,
      "hit": false,
      "t": 163173.88799999972,
      "d": 708.2200000000012,
      "v": 77
    },
    {
      "midi": 66,
      "hit": false,
      "t": 163173.88799999972,
      "d": 711.5528000000049,
      "v": 77
    },
    {
      "midi": 57,
      "hit": false,
      "t": 163173.88799999972,
      "d": 719.8847999999998,
      "v": 77
    },
    {
      "midi": 50,
      "hit": false,
      "t": 163173.88799999972,
      "d": 733.2159999999858,
      "v": 77
    },
    {
      "midi": 72,
      "hit": false,
      "t": 163173.88799999972,
      "d": 703.2208000000101,
      "v": 77
    },
    {
      "midi": 81,
      "hit": false,
      "t": 163173.88799999972,
      "d": 708.2200000000012,
      "v": 77
    },
    {
      "midi": 78,
      "hit": false,
      "t": 163173.88799999972,
      "d": 711.5528000000049,
      "v": 77
    },
    {
      "midi": 69,
      "hit": false,
      "t": 163173.88799999972,
      "d": 719.8847999999998,
      "v": 77
    },
    {
      "midi": 62,
      "hit": false,
      "t": 163173.88799999972,
      "d": 733.2159999999858,
      "v": 77
    },
    {
      "midi": 66,
      "hit": false,
      "t": 163973.7599999997,
      "d": 183.30400000000373,
      "v": 77
    },
    {
      "midi": 60,
      "hit": false,
      "t": 163973.7599999997,
      "d": 211.63279999999213,
      "v": 77
    },
    {
      "midi": 69,
      "hit": false,
      "t": 163973.7599999997,
      "d": 211.63279999999213,
      "v": 77
    },
    {
      "midi": 78,
      "hit": false,
      "t": 163973.7599999997,
      "d": 183.30400000000373,
      "v": 77
    },
    {
      "midi": 72,
      "hit": false,
      "t": 163973.7599999997,
      "d": 211.63279999999213,
      "v": 77
    },
    {
      "midi": 81,
      "hit": false,
      "t": 163973.7599999997,
      "d": 211.63279999999213,
      "v": 77
    },
    {
      "midi": 55,
      "hit": false,
      "t": 164773.6319999997,
      "d": 349.9439999999886,
      "v": 77
    },
    {
      "midi": 59,
      "hit": false,
      "t": 164773.6319999997,
      "d": 383.2719999999972,
      "v": 77
    },
    {
      "midi": 62,
      "hit": false,
      "t": 164773.6319999997,
      "d": 408.26799999998184,
      "v": 77
    },
    {
      "midi": 43,
      "hit": false,
      "t": 164773.6319999997,
      "d": 716.551999999996,
      "v": 77
    },
    {
      "midi": 67,
      "hit": false,
      "t": 164773.6319999997,
      "d": 349.9439999999886,
      "v": 77
    },
    {
      "midi": 71,
      "hit": false,
      "t": 164773.6319999997,
      "d": 383.2719999999972,
      "v": 77
    },
    {
      "midi": 74,
      "hit": false,
      "t": 164773.6319999997,
      "d": 408.26799999998184,
      "v": 77
    },
    {
      "midi": 55,
      "hit": false,
      "t": 164773.6319999997,
      "d": 716.551999999996,
      "v": 77
    },
    {
      "midi": 50,
      "hit": false,
      "t": 165173.56799999968,
      "d": 133.31200000000536,
      "v": 77
    },
    {
      "midi": 62,
      "hit": false,
      "t": 165173.56799999968,
      "d": 133.31200000000536,
      "v": 77
    },
    {
      "midi": 67,
      "hit": false,
      "t": 165573.5039999997,
      "d": 91.65200000000186,
      "v": 77
    },
    {
      "midi": 79,
      "hit": false,
      "t": 165573.5039999997,
      "d": 91.65200000000186,
      "v": 77
    },
    {
      "midi": 64,
      "hit": false,
      "t": 166373.3759999997,
      "d": 33.32799999997951,
      "v": 77
    },
    {
      "midi": 62,
      "hit": false,
      "t": 166373.3759999997,
      "d": 1441.435999999987,
      "v": 77
    },
    {
      "midi": 68,
      "hit": false,
      "t": 166373.3759999997,
      "d": 1449.7679999999818,
      "v": 77
    },
    {
      "midi": 59,
      "hit": false,
      "t": 166373.3759999997,
      "d": 1486.4287999999942,
      "v": 77
    },
    {
      "midi": 71,
      "hit": false,
      "t": 166373.3759999997,
      "d": 1486.4287999999942,
      "v": 77
    },
    {
      "midi": 52,
      "hit": false,
      "t": 166373.3759999997,
      "d": 1499.7599999999802,
      "v": 77
    },
    {
      "midi": 76,
      "hit": false,
      "t": 166373.3759999997,
      "d": 33.32799999997951,
      "v": 77
    },
    {
      "midi": 74,
      "hit": false,
      "t": 166373.3759999997,
      "d": 1441.435999999987,
      "v": 77
    },
    {
      "midi": 80,
      "hit": false,
      "t": 166373.3759999997,
      "d": 1449.7679999999818,
      "v": 77
    },
    {
      "midi": 71,
      "hit": false,
      "t": 166373.3759999997,
      "d": 1486.4287999999942,
      "v": 77
    },
    {
      "midi": 83,
      "hit": false,
      "t": 166373.3759999997,
      "d": 1486.4287999999942,
      "v": 77
    },
    {
      "midi": 64,
      "hit": false,
      "t": 166373.3759999997,
      "d": 1499.7599999999802,
      "v": 77
    },
    {
      "midi": 68,
      "hit": false,
      "t": 167973.11999999968,
      "d": 1299.7919999999867,
      "v": 77
    },
    {
      "midi": 59,
      "hit": false,
      "t": 167973.11999999968,
      "d": 1403.1087999999872,
      "v": 77
    },
    {
      "midi": 52,
      "hit": false,
      "t": 167973.11999999968,
      "d": 1433.103999999992,
      "v": 77
    },
    {
      "midi": 62,
      "hit": false,
      "t": 167973.11999999968,
      "d": 1478.0967999999993,
      "v": 77
    },
    {
      "midi": 80,
      "hit": false,
      "t": 167973.11999999968,
      "d": 1299.7919999999867,
      "v": 77
    },
    {
      "midi": 71,
      "hit": false,
      "t": 167973.11999999968,
      "d": 1403.1087999999872,
      "v": 77
    },
    {
      "midi": 64,
      "hit": false,
      "t": 167973.11999999968,
      "d": 1433.103999999992,
      "v": 77
    },
    {
      "midi": 74,
      "hit": false,
      "t": 167973.11999999968,
      "d": 1478.0967999999993,
      "v": 77
    },
    {
      "midi": 66,
      "hit": false,
      "t": 169572.86399999965,
      "d": 886.5248000000138,
      "v": 77
    },
    {
      "midi": 69,
      "hit": false,
      "t": 169572.86399999965,
      "d": 903.1888000000035,
      "v": 77
    },
    {
      "midi": 62,
      "hit": false,
      "t": 169572.86399999965,
      "d": 928.1848000000173,
      "v": 77
    },
    {
      "midi": 78,
      "hit": false,
      "t": 169572.86399999965,
      "d": 886.5248000000138,
      "v": 77
    },
    {
      "midi": 81,
      "hit": false,
      "t": 169572.86399999965,
      "d": 903.1888000000035,
      "v": 77
    },
    {
      "midi": 74,
      "hit": false,
      "t": 169572.86399999965,
      "d": 928.1848000000173,
      "v": 77
    },
    {
      "midi": 59,
      "hit": false,
      "t": 171172.60799999966,
      "d": 908.1879999999946,
      "v": 77
    },
    {
      "midi": 62,
      "hit": false,
      "t": 171172.60799999966,
      "d": 941.5160000000033,
      "v": 77
    },
    {
      "midi": 66,
      "hit": false,
      "t": 171172.60799999966,
      "d": 949.8479999999981,
      "v": 77
    },
    {
      "midi": 71,
      "hit": false,
      "t": 171172.60799999966,
      "d": 908.1879999999946,
      "v": 77
    },
    {
      "midi": 74,
      "hit": false,
      "t": 171172.60799999966,
      "d": 941.5160000000033,
      "v": 77
    },
    {
      "midi": 78,
      "hit": false,
      "t": 171172.60799999966,
      "d": 949.8479999999981,
      "v": 77
    },
    {
      "midi": 55,
      "hit": false,
      "t": 172572.38399999967,
      "d": 949.8480000000272,
      "v": 75
    },
    {
      "midi": 52,
      "hit": false,
      "t": 172572.38399999967,
      "d": 994.8408000000054,
      "v": 61
    },
    {
      "midi": 67,
      "hit": false,
      "t": 172572.38399999967,
      "d": 949.8480000000272,
      "v": 75
    },
    {
      "midi": 64,
      "hit": false,
      "t": 172572.38399999967,
      "d": 994.8408000000054,
      "v": 61
    },
    {
      "midi": 64,
      "hit": false,
      "t": 172772.3519999997,
      "d": 853.1967999999761,
      "v": 77
    },
    {
      "midi": 59,
      "hit": false,
      "t": 172772.3519999997,
      "d": 883.1919999999809,
      "v": 77
    },
    {
      "midi": 76,
      "hit": false,
      "t": 172772.3519999997,
      "d": 853.1967999999761,
      "v": 77
    },
    {
      "midi": 71,
      "hit": false,
      "t": 172772.3519999997,
      "d": 883.1919999999809,
      "v": 77
    },
    {
      "midi": 62,
      "hit": false,
      "t": 174372.09599999967,
      "d": 283.28800000002957,
      "v": 77
    },
    {
      "midi": 45,
      "hit": false,
      "t": 174372.09599999967,
      "d": 441.59600000001956,
      "v": 77
    },
    {
      "midi": 52,
      "hit": false,
      "t": 174372.09599999967,
      "d": 458.2600000000093,
      "v": 77
    },
    {
      "midi": 74,
      "hit": false,
      "t": 174372.09599999967,
      "d": 283.28800000002957,
      "v": 77
    },
    {
      "midi": 57,
      "hit": false,
      "t": 174372.09599999967,
      "d": 441.59600000001956,
      "v": 77
    },
    {
      "midi": 64,
      "hit": false,
      "t": 174372.09599999967,
      "d": 458.2600000000093,
      "v": 77
    },
    {
      "midi": 61,
      "hit": false,
      "t": 175171.96799999967,
      "d": 553.2447999999858,
      "v": 77
    },
    {
      "midi": 45,
      "hit": false,
      "t": 175171.96799999967,
      "d": 558.243999999977,
      "v": 77
    },
    {
      "midi": 52,
      "hit": false,
      "t": 175171.96799999967,
      "d": 558.243999999977,
      "v": 77
    },
    {
      "midi": 57,
      "hit": false,
      "t": 175171.96799999967,
      "d": 574.9079999999667,
      "v": 77
    },
    {
      "midi": 73,
      "hit": false,
      "t": 175171.96799999967,
      "d": 553.2447999999858,
      "v": 77
    },
    {
      "midi": 57,
      "hit": false,
      "t": 175171.96799999967,
      "d": 558.243999999977,
      "v": 77
    },
    {
      "midi": 64,
      "hit": false,
      "t": 175171.96799999967,
      "d": 558.243999999977,
      "v": 77
    },
    {
      "midi": 69,
      "hit": false,
      "t": 175171.96799999967,
      "d": 574.9079999999667,
      "v": 77
    },
    {
      "midi": 66,
      "hit": false,
      "t": 175971.83999999965,
      "d": 886.5248000000138,
      "v": 77
    },
    {
      "midi": 69,
      "hit": false,
      "t": 175971.83999999965,
      "d": 903.1888000000035,
      "v": 77
    },
    {
      "midi": 62,
      "hit": false,
      "t": 175971.83999999965,
      "d": 928.1848000000173,
      "v": 77
    },
    {
      "midi": 78,
      "hit": false,
      "t": 175971.83999999965,
      "d": 886.5248000000138,
      "v": 77
    },
    {
      "midi": 81,
      "hit": false,
      "t": 175971.83999999965,
      "d": 903.1888000000035,
      "v": 77
    },
    {
      "midi": 74,
      "hit": false,
      "t": 175971.83999999965,
      "d": 928.1848000000173,
      "v": 77
    },
    {
      "midi": 59,
      "hit": false,
      "t": 177571.58399999965,
      "d": 908.1879999999946,
      "v": 77
    },
    {
      "midi": 62,
      "hit": false,
      "t": 177571.58399999965,
      "d": 941.5160000000033,
      "v": 77
    },
    {
      "midi": 66,
      "hit": false,
      "t": 177571.58399999965,
      "d": 949.8479999999981,
      "v": 77
    },
    {
      "midi": 71,
      "hit": false,
      "t": 177571.58399999965,
      "d": 908.1879999999946,
      "v": 77
    },
    {
      "midi": 74,
      "hit": false,
      "t": 177571.58399999965,
      "d": 941.5160000000033,
      "v": 77
    },
    {
      "midi": 78,
      "hit": false,
      "t": 177571.58399999965,
      "d": 949.8479999999981,
      "v": 77
    },
    {
      "midi": 55,
      "hit": false,
      "t": 178971.35999999967,
      "d": 949.8480000000272,
      "v": 75
    },
    {
      "midi": 52,
      "hit": false,
      "t": 178971.35999999967,
      "d": 994.8408000000054,
      "v": 61
    },
    {
      "midi": 67,
      "hit": false,
      "t": 178971.35999999967,
      "d": 949.8480000000272,
      "v": 75
    },
    {
      "midi": 64,
      "hit": false,
      "t": 178971.35999999967,
      "d": 994.8408000000054,
      "v": 61
    },
    {
      "midi": 64,
      "hit": false,
      "t": 179171.3279999997,
      "d": 853.1967999999761,
      "v": 77
    },
    {
      "midi": 59,
      "hit": false,
      "t": 179171.3279999997,
      "d": 883.1919999999809,
      "v": 77
    },
    {
      "midi": 76,
      "hit": false,
      "t": 179171.3279999997,
      "d": 853.1967999999761,
      "v": 77
    },
    {
      "midi": 71,
      "hit": false,
      "t": 179171.3279999997,
      "d": 883.1919999999809,
      "v": 77
    },
    {
      "midi": 62,
      "hit": false,
      "t": 180771.07199999967,
      "d": 283.28800000002957,
      "v": 77
    },
    {
      "midi": 45,
      "hit": false,
      "t": 180771.07199999967,
      "d": 441.59600000001956,
      "v": 77
    },
    {
      "midi": 52,
      "hit": false,
      "t": 180771.07199999967,
      "d": 458.2600000000093,
      "v": 77
    },
    {
      "midi": 74,
      "hit": false,
      "t": 180771.07199999967,
      "d": 283.28800000002957,
      "v": 77
    },
    {
      "midi": 57,
      "hit": false,
      "t": 180771.07199999967,
      "d": 441.59600000001956,
      "v": 77
    },
    {
      "midi": 64,
      "hit": false,
      "t": 180771.07199999967,
      "d": 458.2600000000093,
      "v": 77
    },
    {
      "midi": 61,
      "hit": false,
      "t": 181570.94399999967,
      "d": 553.2447999999858,
      "v": 77
    },
    {
      "midi": 45,
      "hit": false,
      "t": 181570.94399999967,
      "d": 558.243999999977,
      "v": 77
    },
    {
      "midi": 52,
      "hit": false,
      "t": 181570.94399999967,
      "d": 558.243999999977,
      "v": 77
    },
    {
      "midi": 57,
      "hit": false,
      "t": 181570.94399999967,
      "d": 574.9079999999667,
      "v": 77
    },
    {
      "midi": 73,
      "hit": false,
      "t": 181570.94399999967,
      "d": 553.2447999999858,
      "v": 77
    },
    {
      "midi": 57,
      "hit": false,
      "t": 181570.94399999967,
      "d": 558.243999999977,
      "v": 77
    },
    {
      "midi": 64,
      "hit": false,
      "t": 181570.94399999967,
      "d": 558.243999999977,
      "v": 77
    },
    {
      "midi": 69,
      "hit": false,
      "t": 181570.94399999967,
      "d": 574.9079999999667,
      "v": 77
    },
    {
      "midi": 66,
      "hit": false,
      "t": 182370.81599999964,
      "d": 886.5248000000138,
      "v": 77
    },
    {
      "midi": 69,
      "hit": false,
      "t": 182370.81599999964,
      "d": 903.1888000000035,
      "v": 77
    },
    {
      "midi": 62,
      "hit": false,
      "t": 182370.81599999964,
      "d": 928.1848000000173,
      "v": 77
    },
    {
      "midi": 78,
      "hit": false,
      "t": 182370.81599999964,
      "d": 886.5248000000138,
      "v": 77
    },
    {
      "midi": 81,
      "hit": false,
      "t": 182370.81599999964,
      "d": 903.1888000000035,
      "v": 77
    },
    {
      "midi": 74,
      "hit": false,
      "t": 182370.81599999964,
      "d": 928.1848000000173,
      "v": 77
    },
    {
      "midi": 59,
      "hit": false,
      "t": 183970.55999999965,
      "d": 908.1879999999946,
      "v": 77
    },
    {
      "midi": 62,
      "hit": false,
      "t": 183970.55999999965,
      "d": 941.5160000000033,
      "v": 77
    },
    {
      "midi": 66,
      "hit": false,
      "t": 183970.55999999965,
      "d": 949.8479999999981,
      "v": 77
    },
    {
      "midi": 71,
      "hit": false,
      "t": 183970.55999999965,
      "d": 908.1879999999946,
      "v": 77
    },
    {
      "midi": 74,
      "hit": false,
      "t": 183970.55999999965,
      "d": 941.5160000000033,
      "v": 77
    },
    {
      "midi": 78,
      "hit": false,
      "t": 183970.55999999965,
      "d": 949.8479999999981,
      "v": 77
    },
    {
      "midi": 55,
      "hit": false,
      "t": 185370.33599999966,
      "d": 949.8480000000272,
      "v": 75
    },
    {
      "midi": 52,
      "hit": false,
      "t": 185370.33599999966,
      "d": 994.8408000000054,
      "v": 61
    },
    {
      "midi": 67,
      "hit": false,
      "t": 185370.33599999966,
      "d": 949.8480000000272,
      "v": 75
    },
    {
      "midi": 64,
      "hit": false,
      "t": 185370.33599999966,
      "d": 994.8408000000054,
      "v": 61
    },
    {
      "midi": 64,
      "hit": false,
      "t": 185570.30399999968,
      "d": 853.1967999999761,
      "v": 77
    },
    {
      "midi": 59,
      "hit": false,
      "t": 185570.30399999968,
      "d": 883.1919999999809,
      "v": 77
    },
    {
      "midi": 76,
      "hit": false,
      "t": 185570.30399999968,
      "d": 853.1967999999761,
      "v": 77
    },
    {
      "midi": 71,
      "hit": false,
      "t": 185570.30399999968,
      "d": 883.1919999999809,
      "v": 77
    },
    {
      "midi": 62,
      "hit": false,
      "t": 187170.04799999966,
      "d": 283.28800000002957,
      "v": 77
    },
    {
      "midi": 45,
      "hit": false,
      "t": 187170.04799999966,
      "d": 441.59600000001956,
      "v": 77
    },
    {
      "midi": 52,
      "hit": false,
      "t": 187170.04799999966,
      "d": 458.2600000000093,
      "v": 77
    },
    {
      "midi": 74,
      "hit": false,
      "t": 187170.04799999966,
      "d": 283.28800000002957,
      "v": 77
    },
    {
      "midi": 57,
      "hit": false,
      "t": 187170.04799999966,
      "d": 441.59600000001956,
      "v": 77
    },
    {
      "midi": 64,
      "hit": false,
      "t": 187170.04799999966,
      "d": 458.2600000000093,
      "v": 77
    },
    {
      "midi": 61,
      "hit": false,
      "t": 187969.91999999966,
      "d": 553.2447999999858,
      "v": 77
    },
    {
      "midi": 45,
      "hit": false,
      "t": 187969.91999999966,
      "d": 558.243999999977,
      "v": 77
    },
    {
      "midi": 52,
      "hit": false,
      "t": 187969.91999999966,
      "d": 558.243999999977,
      "v": 77
    },
    {
      "midi": 57,
      "hit": false,
      "t": 187969.91999999966,
      "d": 574.9079999999667,
      "v": 77
    },
    {
      "midi": 73,
      "hit": false,
      "t": 187969.91999999966,
      "d": 553.2447999999858,
      "v": 77
    },
    {
      "midi": 57,
      "hit": false,
      "t": 187969.91999999966,
      "d": 558.243999999977,
      "v": 77
    },
    {
      "midi": 64,
      "hit": false,
      "t": 187969.91999999966,
      "d": 558.243999999977,
      "v": 77
    },
    {
      "midi": 69,
      "hit": false,
      "t": 187969.91999999966,
      "d": 574.9079999999667,
      "v": 77
    },
    {
      "midi": 62,
      "hit": false,
      "t": 188769.79199999964,
      "d": 1041.500000000029,
      "v": 77
    },
    {
      "midi": 69,
      "hit": false,
      "t": 188769.79199999964,
      "d": 1074.8280000000377,
      "v": 77
    },
    {
      "midi": 66,
      "hit": false,
      "t": 188769.79199999964,
      "d": 1086.4928000000364,
      "v": 77
    },
    {
      "midi": 50,
      "hit": false,
      "t": 188769.79199999964,
      "d": 1299.792000000045,
      "v": 77
    },
    {
      "midi": 74,
      "hit": false,
      "t": 188769.79199999964,
      "d": 1041.500000000029,
      "v": 77
    },
    {
      "midi": 81,
      "hit": false,
      "t": 188769.79199999964,
      "d": 1074.8280000000377,
      "v": 77
    },
    {
      "midi": 78,
      "hit": false,
      "t": 188769.79199999964,
      "d": 1086.4928000000364,
      "v": 77
    },
    {
      "midi": 62,
      "hit": false,
      "t": 188769.79199999964,
      "d": 1299.792000000045,
      "v": 77
    },
    {
      "midi": 62,
      "hit": false,
      "t": 189969.5999999997,
      "d": 283.28800000000047,
      "v": 77
    },
    {
      "midi": 74,
      "hit": false,
      "t": 189969.5999999997,
      "d": 283.28800000000047,
      "v": 77
    },
    {
      "midi": 50,
      "hit": false,
      "t": 190369.53599999967,
      "d": 586.5727999999945,
      "v": 77
    },
    {
      "midi": 64,
      "hit": false,
      "t": 190369.53599999967,
      "d": 691.5559999999823,
      "v": 77
    },
    {
      "midi": 62,
      "hit": false,
      "t": 190369.53599999967,
      "d": 586.5727999999945,
      "v": 77
    },
    {
      "midi": 76,
      "hit": false,
      "t": 190369.53599999967,
      "d": 691.5559999999823,
      "v": 77
    },
    {
      "midi": 66,
      "hit": false,
      "t": 191169.40799999965,
      "d": 208.29999999998836,
      "v": 77
    },
    {
      "midi": 78,
      "hit": false,
      "t": 191169.40799999965,
      "d": 208.29999999998836,
      "v": 77
    },
    {
      "midi": 67,
      "hit": false,
      "t": 191969.27999999965,
      "d": 1144.8168000000005,
      "v": 77
    },
    {
      "midi": 62,
      "hit": false,
      "t": 191969.27999999965,
      "d": 1269.796800000011,
      "v": 77
    },
    {
      "midi": 59,
      "hit": false,
      "t": 191969.27999999965,
      "d": 1336.4527999999991,
      "v": 77
    },
    {
      "midi": 55,
      "hit": false,
      "t": 191969.27999999965,
      "d": 1383.1119999999937,
      "v": 77
    },
    {
      "midi": 79,
      "hit": false,
      "t": 191969.27999999965,
      "d": 1144.8168000000005,
      "v": 77
    },
    {
      "midi": 74,
      "hit": false,
      "t": 191969.27999999965,
      "d": 1269.796800000011,
      "v": 77
    },
    {
      "midi": 71,
      "hit": false,
      "t": 191969.27999999965,
      "d": 1336.4527999999991,
      "v": 77
    },
    {
      "midi": 67,
      "hit": false,
      "t": 191969.27999999965,
      "d": 1383.1119999999937,
      "v": 77
    },
    {
      "midi": 62,
      "hit": false,
      "t": 193569.02399999966,
      "d": 274.9559999999765,
      "v": 77
    },
    {
      "midi": 59,
      "hit": false,
      "t": 193569.02399999966,
      "d": 299.9519999999902,
      "v": 77
    },
    {
      "midi": 74,
      "hit": false,
      "t": 193569.02399999966,
      "d": 274.9559999999765,
      "v": 77
    },
    {
      "midi": 71,
      "hit": false,
      "t": 193569.02399999966,
      "d": 299.9519999999902,
      "v": 77
    },
    {
      "midi": 61,
      "hit": false,
      "t": 194368.89599999963,
      "d": 203.30079999999725,
      "v": 77
    },
    {
      "midi": 57,
      "hit": false,
      "t": 194368.89599999963,
      "d": 216.63199999998324,
      "v": 77
    },
    {
      "midi": 52,
      "hit": false,
      "t": 194368.89599999963,
      "d": 219.964799999987,
      "v": 77
    },
    {
      "midi": 45,
      "hit": false,
      "t": 194368.89599999963,
      "d": 233.295999999973,
      "v": 77
    },
    {
      "midi": 73,
      "hit": false,
      "t": 194368.89599999963,
      "d": 203.30079999999725,
      "v": 77
    },
    {
      "midi": 69,
      "hit": false,
      "t": 194368.89599999963,
      "d": 216.63199999998324,
      "v": 77
    },
    {
      "midi": 64,
      "hit": false,
      "t": 194368.89599999963,
      "d": 219.964799999987,
      "v": 77
    },
    {
      "midi": 57,
      "hit": false,
      "t": 194368.89599999963,
      "d": 233.295999999973,
      "v": 77
    },
    {
      "midi": 50,
      "hit": false,
      "t": 195168.7679999996,
      "d": 5565.776000000013,
      "v": 77
    },
    {
      "midi": 57,
      "hit": false,
      "t": 195168.7679999996,
      "d": 5602.436800000025,
      "v": 77
    },
    {
      "midi": 54,
      "hit": false,
      "t": 195168.7679999996,
      "d": 5610.76880000002,
      "v": 77
    },
    {
      "midi": 62,
      "hit": false,
      "t": 195168.7679999996,
      "d": 5632.43200000003,
      "v": 77
    },
    {
      "midi": 62,
      "hit": false,
      "t": 195168.7679999996,
      "d": 5565.776000000013,
      "v": 77
    },
    {
      "midi": 69,
      "hit": false,
      "t": 195168.7679999996,
      "d": 5602.436800000025,
      "v": 77
    },
    {
      "midi": 66,
      "hit": false,
      "t": 195168.7679999996,
      "d": 5610.76880000002,
      "v": 77
    },
    {
      "midi": 74,
      "hit": false,
      "t": 195168.7679999996,
      "d": 5632.43200000003,
      "v": 77
    }
  ]
}