{
  "jsonPath": "Unknown/Unknown/Global Deejays Feat Rozalla/everybodys-free-2009-rework.json",
  "path": "Unknown\\Unknown\\Global Deejays Feat Rozalla\\Everybodys free (2009 Rework).mid",
  "name": "Everybodys free (2009 Rework)",
  "difficulty": "Advanced",
  "bpm": 122.99996925000768,
  "notes": [
    {
      "midi": 33,
      "hit": false,
      "t": 0,
      "d": 121.95125000000002,
      "v": 113
    },
    {
      "midi": 52,
      "hit": false,
      "t": 0,
      "d": 3658.5375000000004,
      "v": 101
    },
    {
      "midi": 57,
      "hit": false,
      "t": 0,
      "d": 3658.5375000000004,
      "v": 102
    },
    {
      "midi": 60,
      "hit": false,
      "t": 0,
      "d": 3658.5375000000004,
      "v": 116
    },
    {
      "midi": 64,
      "hit": false,
      "t": 0,
      "d": 3658.5375000000004,
      "v": 112
    },
    {
      "midi": 69,
      "hit": false,
      "t": 0,
      "d": 3658.5375000000004,
      "v": 108
    },
    {
      "midi": 72,
      "hit": false,
      "t": 0,
      "d": 3658.5375000000004,
      "v": 105
    },
    {
      "midi": 45,
      "hit": false,
      "t": 0,
      "d": 166.66670833333336,
      "v": 125
    },
    {
      "midi": 33,
      "hit": false,
      "t": 243.90250000000003,
      "d": 3414.635,
      "v": 106
    },
    {
      "midi": 45,
      "hit": false,
      "t": 243.90250000000003,
      "d": 2483.740458333333,
      "v": 106
    },
    {
      "midi": 40,
      "hit": false,
      "t": 2682.9275000000002,
      "d": 130.08133333333308,
      "v": 101
    },
    {
      "midi": 43,
      "hit": false,
      "t": 2804.87875,
      "d": 154.47158333333346,
      "v": 97
    },
    {
      "midi": 45,
      "hit": false,
      "t": 2926.83,
      "d": 97.56100000000015,
      "v": 86
    },
    {
      "midi": 43,
      "hit": false,
      "t": 3170.7325,
      "d": 77.2357916666665,
      "v": 105
    },
    {
      "midi": 40,
      "hit": false,
      "t": 3414.6349999999998,
      "d": 138.21141666666654,
      "v": 112
    },
    {
      "midi": 43,
      "hit": false,
      "t": 3658.5374999999995,
      "d": 81.30083333333323,
      "v": 105
    },
    {
      "midi": 45,
      "hit": false,
      "t": 3902.4399999999996,
      "d": 166.6667083333332,
      "v": 125
    },
    {
      "midi": 33,
      "hit": false,
      "t": 3902.4400000000005,
      "d": 121.95125000000007,
      "v": 113
    },
    {
      "midi": 52,
      "hit": false,
      "t": 3902.4400000000005,
      "d": 3658.5375000000004,
      "v": 101
    },
    {
      "midi": 57,
      "hit": false,
      "t": 3902.4400000000005,
      "d": 3658.5375000000004,
      "v": 102
    },
    {
      "midi": 60,
      "hit": false,
      "t": 3902.4400000000005,
      "d": 3658.5375000000004,
      "v": 116
    },
    {
      "midi": 64,
      "hit": false,
      "t": 3902.4400000000005,
      "d": 3658.5375000000004,
      "v": 112
    },
    {
      "midi": 69,
      "hit": false,
      "t": 3902.4400000000005,
      "d": 3658.5375000000004,
      "v": 108
    },
    {
      "midi": 72,
      "hit": false,
      "t": 3902.4400000000005,
      "d": 3658.5375000000004,
      "v": 105
    },
    {
      "midi": 45,
      "hit": false,
      "t": 4146.3425,
      "d": 2483.7404583333337,
      "v": 106
    },
    {
      "midi": 33,
      "hit": false,
      "t": 4146.342500000001,
      "d": 3414.635,
      "v": 106
    },
    {
      "midi": 40,
      "hit": false,
      "t": 6585.3675,
      "d": 130.08133333333353,
      "v": 101
    },
    {
      "midi": 43,
      "hit": false,
      "t": 6707.31875,
      "d": 154.471583333333,
      "v": 97
    },
    {
      "midi": 45,
      "hit": false,
      "t": 6829.27,
      "d": 97.5609999999997,
      "v": 86
    },
    {
      "midi": 43,
      "hit": false,
      "t": 7073.172500000001,
      "d": 77.23579166666696,
      "v": 105
    },
    {
      "midi": 40,
      "hit": false,
      "t": 7317.075000000001,
      "d": 138.211416666667,
      "v": 112
    },
    {
      "midi": 43,
      "hit": false,
      "t": 7560.977500000001,
      "d": 81.30083333333369,
      "v": 105
    },
    {
      "midi": 33,
      "hit": false,
      "t": 7804.880000000001,
      "d": 121.95125000000007,
      "v": 113
    },
    {
      "midi": 52,
      "hit": false,
      "t": 7804.880000000001,
      "d": 3658.5375000000004,
      "v": 101
    },
    {
      "midi": 57,
      "hit": false,
      "t": 7804.880000000001,
      "d": 3658.5375000000004,
      "v": 102
    },
    {
      "midi": 60,
      "hit": false,
      "t": 7804.880000000001,
      "d": 3658.5375000000004,
      "v": 116
    },
    {
      "midi": 64,
      "hit": false,
      "t": 7804.880000000001,
      "d": 3658.5375000000004,
      "v": 112
    },
    {
      "midi": 69,
      "hit": false,
      "t": 7804.880000000001,
      "d": 3658.5375000000004,
      "v": 108
    },
    {
      "midi": 72,
      "hit": false,
      "t": 7804.880000000001,
      "d": 3658.5375000000004,
      "v": 105
    },
    {
      "midi": 45,
      "hit": false,
      "t": 7804.880000000001,
      "d": 166.6667083333332,
      "v": 125
    },
    {
      "midi": 33,
      "hit": false,
      "t": 8048.782500000001,
      "d": 3414.635,
      "v": 106
    },
    {
      "midi": 45,
      "hit": false,
      "t": 8048.782500000001,
      "d": 2483.7404583333337,
      "v": 106
    },
    {
      "midi": 40,
      "hit": false,
      "t": 10487.8075,
      "d": 130.08133333333353,
      "v": 101
    },
    {
      "midi": 43,
      "hit": false,
      "t": 10609.75875,
      "d": 154.4715833333339,
      "v": 97
    },
    {
      "midi": 45,
      "hit": false,
      "t": 10731.710000000001,
      "d": 97.5609999999997,
      "v": 86
    },
    {
      "midi": 43,
      "hit": false,
      "t": 10975.612500000001,
      "d": 77.23579166666605,
      "v": 105
    },
    {
      "midi": 40,
      "hit": false,
      "t": 11219.515000000001,
      "d": 138.211416666667,
      "v": 112
    },
    {
      "midi": 43,
      "hit": false,
      "t": 11463.417500000001,
      "d": 81.30083333333278,
      "v": 105
    },
    {
      "midi": 33,
      "hit": false,
      "t": 11707.320000000002,
      "d": 121.95125000000007,
      "v": 113
    },
    {
      "midi": 52,
      "hit": false,
      "t": 11707.320000000002,
      "d": 3658.5375000000004,
      "v": 101
    },
    {
      "midi": 57,
      "hit": false,
      "t": 11707.320000000002,
      "d": 3658.5375000000004,
      "v": 102
    },
    {
      "midi": 60,
      "hit": false,
      "t": 11707.320000000002,
      "d": 3658.5375000000004,
      "v": 116
    },
    {
      "midi": 64,
      "hit": false,
      "t": 11707.320000000002,
      "d": 3658.5375000000004,
      "v": 112
    },
    {
      "midi": 69,
      "hit": false,
      "t": 11707.320000000002,
      "d": 3658.5375000000004,
      "v": 108
    },
    {
      "midi": 72,
      "hit": false,
      "t": 11707.320000000002,
      "d": 3658.5375000000004,
      "v": 105
    },
    {
      "midi": 45,
      "hit": false,
      "t": 11707.320000000002,
      "d": 166.6667083333341,
      "v": 125
    },
    {
      "midi": 33,
      "hit": false,
      "t": 11951.222500000002,
      "d": 3414.635,
      "v": 106
    },
    {
      "midi": 45,
      "hit": false,
      "t": 11951.222500000002,
      "d": 2483.7404583333337,
      "v": 106
    },
    {
      "midi": 40,
      "hit": false,
      "t": 14390.247500000001,
      "d": 130.08133333333353,
      "v": 101
    },
    {
      "midi": 43,
      "hit": false,
      "t": 14512.198750000001,
      "d": 154.4715833333339,
      "v": 97
    },
    {
      "midi": 45,
      "hit": false,
      "t": 14634.150000000001,
      "d": 97.5609999999997,
      "v": 86
    },
    {
      "midi": 43,
      "hit": false,
      "t": 14878.052500000002,
      "d": 77.23579166666605,
      "v": 105
    },
    {
      "midi": 40,
      "hit": false,
      "t": 15121.955000000002,
      "d": 138.211416666667,
      "v": 112
    },
    {
      "midi": 43,
      "hit": false,
      "t": 15365.857500000002,
      "d": 81.30083333333278,
      "v": 105
    },
    {
      "midi": 67,
      "hit": false,
      "t": 25853.665,
      "d": 89.43091666666805,
      "v": 102
    },
    {
      "midi": 76,
      "hit": false,
      "t": 25853.665,
      "d": 89.43091666666805,
      "v": 101
    },
    {
      "midi": 55,
      "hit": false,
      "t": 25853.665,
      "d": 93.49595833333296,
      "v": 94
    },
    {
      "midi": 72,
      "hit": false,
      "t": 25853.665,
      "d": 97.56099999999788,
      "v": 101
    },
    {
      "midi": 64,
      "hit": false,
      "t": 25853.665,
      "d": 101.62604166666279,
      "v": 105
    },
    {
      "midi": 60,
      "hit": false,
      "t": 25853.665,
      "d": 109.75612499999625,
      "v": 106
    },
    {
      "midi": 67,
      "hit": false,
      "t": 26178.868333333332,
      "d": 89.43091666666805,
      "v": 99
    },
    {
      "midi": 76,
      "hit": false,
      "t": 26178.868333333332,
      "d": 89.43091666666805,
      "v": 98
    },
    {
      "midi": 55,
      "hit": false,
      "t": 26178.868333333332,
      "d": 93.49595833333296,
      "v": 92
    },
    {
      "midi": 72,
      "hit": false,
      "t": 26178.868333333332,
      "d": 97.56099999999788,
      "v": 98
    },
    {
      "midi": 64,
      "hit": false,
      "t": 26178.868333333332,
      "d": 101.62604166666279,
      "v": 102
    },
    {
      "midi": 60,
      "hit": false,
      "t": 26178.868333333332,
      "d": 109.75612499999625,
      "v": 103
    },
    {
      "midi": 67,
      "hit": false,
      "t": 26504.071666666663,
      "d": 89.43091666666805,
      "v": 95
    },
    {
      "midi": 76,
      "hit": false,
      "t": 26504.071666666663,
      "d": 89.43091666666805,
      "v": 94
    },
    {
      "midi": 55,
      "hit": false,
      "t": 26504.071666666663,
      "d": 93.49595833333296,
      "v": 88
    },
    {
      "midi": 72,
      "hit": false,
      "t": 26504.071666666663,
      "d": 97.56099999999788,
      "v": 94
    },
    {
      "midi": 64,
      "hit": false,
      "t": 26504.071666666663,
      "d": 101.62604166666279,
      "v": 97
    },
    {
      "midi": 60,
      "hit": false,
      "t": 26504.071666666663,
      "d": 109.75612499999625,
      "v": 98
    },
    {
      "midi": 67,
      "hit": false,
      "t": 26829.274999999994,
      "d": 89.43091666666442,
      "v": 108
    },
    {
      "midi": 76,
      "hit": false,
      "t": 26829.274999999994,
      "d": 89.43091666666442,
      "v": 102
    },
    {
      "midi": 72,
      "hit": false,
      "t": 26829.274999999994,
      "d": 97.56099999999424,
      "v": 104
    },
    {
      "midi": 55,
      "hit": false,
      "t": 26841.470124999993,
      "d": 81.30083333333096,
      "v": 85
    },
    {
      "midi": 64,
      "hit": false,
      "t": 26841.470124999993,
      "d": 89.43091666666078,
      "v": 99
    },
    {
      "midi": 60,
      "hit": false,
      "t": 26841.470124999993,
      "d": 97.56099999999424,
      "v": 99
    },
    {
      "midi": 67,
      "hit": false,
      "t": 27154.47833333332,
      "d": 89.43091666666442,
      "v": 105
    },
    {
      "midi": 76,
      "hit": false,
      "t": 27154.47833333332,
      "d": 89.43091666666442,
      "v": 99
    },
    {
      "midi": 72,
      "hit": false,
      "t": 27154.47833333332,
      "d": 97.56099999999424,
      "v": 101
    },
    {
      "midi": 55,
      "hit": false,
      "t": 27166.67345833332,
      "d": 81.30083333333096,
      "v": 83
    },
    {
      "midi": 64,
      "hit": false,
      "t": 27166.67345833332,
      "d": 89.43091666666078,
      "v": 97
    },
    {
      "midi": 60,
      "hit": false,
      "t": 27166.67345833332,
      "d": 97.56099999999424,
      "v": 97
    },
    {
      "midi": 67,
      "hit": false,
      "t": 27479.68166666665,
      "d": 89.43091666666442,
      "v": 100
    },
    {
      "midi": 76,
      "hit": false,
      "t": 27479.68166666665,
      "d": 89.43091666666442,
      "v": 95
    },
    {
      "midi": 72,
      "hit": false,
      "t": 27479.68166666665,
      "d": 97.56099999999424,
      "v": 97
    },
    {
      "midi": 55,
      "hit": false,
      "t": 27491.876791666647,
      "d": 81.30083333333096,
      "v": 79
    },
    {
      "midi": 64,
      "hit": false,
      "t": 27491.876791666647,
      "d": 89.43091666666078,
      "v": 93
    },
    {
      "midi": 60,
      "hit": false,
      "t": 27491.876791666647,
      "d": 97.56099999999424,
      "v": 93
    },
    {
      "midi": 67,
      "hit": false,
      "t": 27804.884999999977,
      "d": 89.43091666666442,
      "v": 94
    },
    {
      "midi": 76,
      "hit": false,
      "t": 27804.884999999977,
      "d": 89.43091666666442,
      "v": 89
    },
    {
      "midi": 72,
      "hit": false,
      "t": 27804.884999999977,
      "d": 97.56099999999424,
      "v": 91
    },
    {
      "midi": 55,
      "hit": false,
      "t": 27817.080124999975,
      "d": 81.30083333333096,
      "v": 74
    },
    {
      "midi": 64,
      "hit": false,
      "t": 27817.080124999975,
      "d": 89.43091666666078,
      "v": 87
    },
    {
      "midi": 60,
      "hit": false,
      "t": 27817.080124999975,
      "d": 97.56099999999424,
      "v": 87
    },
    {
      "midi": 67,
      "hit": false,
      "t": 28130.088333333304,
      "d": 89.43091666666442,
      "v": 86
    },
    {
      "midi": 76,
      "hit": false,
      "t": 28130.088333333304,
      "d": 89.43091666666442,
      "v": 82
    },
    {
      "midi": 72,
      "hit": false,
      "t": 28130.088333333304,
      "d": 97.56099999999424,
      "v": 83
    },
    {
      "midi": 55,
      "hit": false,
      "t": 28142.283458333302,
      "d": 81.30083333333096,
      "v": 68
    },
    {
      "midi": 64,
      "hit": false,
      "t": 28142.283458333302,
      "d": 89.43091666666078,
      "v": 80
    },
    {
      "midi": 60,
      "hit": false,
      "t": 28142.283458333302,
      "d": 97.56099999999424,
      "v": 80
    },
    {
      "midi": 67,
      "hit": false,
      "t": 28455.29166666663,
      "d": 89.43091666666442,
      "v": 77
    },
    {
      "midi": 76,
      "hit": false,
      "t": 28455.29166666663,
      "d": 89.43091666666442,
      "v": 74
    },
    {
      "midi": 72,
      "hit": false,
      "t": 28455.29166666663,
      "d": 97.56099999999424,
      "v": 75
    },
    {
      "midi": 55,
      "hit": false,
      "t": 28467.48679166663,
      "d": 81.30083333333096,
      "v": 61
    },
    {
      "midi": 64,
      "hit": false,
      "t": 28467.48679166663,
      "d": 89.43091666666078,
      "v": 72
    },
    {
      "midi": 60,
      "hit": false,
      "t": 28467.48679166663,
      "d": 97.56099999999424,
      "v": 72
    },
    {
      "midi": 67,
      "hit": false,
      "t": 28780.49499999996,
      "d": 89.43091666666442,
      "v": 68
    },
    {
      "midi": 76,
      "hit": false,
      "t": 28780.49499999996,
      "d": 89.43091666666442,
      "v": 65
    },
    {
      "midi": 72,
      "hit": false,
      "t": 28780.49499999996,
      "d": 97.56099999999424,
      "v": 66
    },
    {
      "midi": 55,
      "hit": false,
      "t": 28792.690124999957,
      "d": 81.30083333333096,
      "v": 54
    },
    {
      "midi": 64,
      "hit": false,
      "t": 28792.690124999957,
      "d": 89.43091666666078,
      "v": 63
    },
    {
      "midi": 60,
      "hit": false,
      "t": 28792.690124999957,
      "d": 97.56099999999424,
      "v": 63
    },
    {
      "midi": 67,
      "hit": false,
      "t": 29105.698333333286,
      "d": 89.43091666666442,
      "v": 59
    },
    {
      "midi": 76,
      "hit": false,
      "t": 29105.698333333286,
      "d": 89.43091666666442,
      "v": 56
    },
    {
      "midi": 72,
      "hit": false,
      "t": 29105.698333333286,
      "d": 97.56099999999424,
      "v": 57
    },
    {
      "midi": 55,
      "hit": false,
      "t": 29117.893458333285,
      "d": 81.30083333333096,
      "v": 46
    },
    {
      "midi": 64,
      "hit": false,
      "t": 29117.893458333285,
      "d": 89.43091666666078,
      "v": 54
    },
    {
      "midi": 60,
      "hit": false,
      "t": 29117.893458333285,
      "d": 97.56099999999424,
      "v": 54
    },
    {
      "midi": 67,
      "hit": false,
      "t": 29430.901666666614,
      "d": 89.43091666666442,
      "v": 50
    },
    {
      "midi": 76,
      "hit": false,
      "t": 29430.901666666614,
      "d": 89.43091666666442,
      "v": 47
    },
    {
      "midi": 72,
      "hit": false,
      "t": 29430.901666666614,
      "d": 97.56099999999424,
      "v": 48
    },
    {
      "midi": 55,
      "hit": false,
      "t": 29443.096791666612,
      "d": 81.30083333333096,
      "v": 39
    },
    {
      "midi": 64,
      "hit": false,
      "t": 29443.096791666612,
      "d": 89.43091666666078,
      "v": 45
    },
    {
      "midi": 60,
      "hit": false,
      "t": 29443.096791666612,
      "d": 97.56099999999424,
      "v": 45
    },
    {
      "midi": 67,
      "hit": false,
      "t": 29756.10499999994,
      "d": 89.43091666666442,
      "v": 41
    },
    {
      "midi": 76,
      "hit": false,
      "t": 29756.10499999994,
      "d": 89.43091666666442,
      "v": 39
    },
    {
      "midi": 72,
      "hit": false,
      "t": 29756.10499999994,
      "d": 97.56099999999424,
      "v": 40
    },
    {
      "midi": 55,
      "hit": false,
      "t": 29768.30012499994,
      "d": 81.30083333333096,
      "v": 32
    },
    {
      "midi": 64,
      "hit": false,
      "t": 29768.30012499994,
      "d": 89.43091666666078,
      "v": 37
    },
    {
      "midi": 60,
      "hit": false,
      "t": 29768.30012499994,
      "d": 97.56099999999424,
      "v": 37
    },
    {
      "midi": 67,
      "hit": false,
      "t": 30081.30833333327,
      "d": 89.43091666666442,
      "v": 33
    },
    {
      "midi": 76,
      "hit": false,
      "t": 30081.30833333327,
      "d": 89.43091666666442,
      "v": 31
    },
    {
      "midi": 72,
      "hit": false,
      "t": 30081.30833333327,
      "d": 97.56099999999424,
      "v": 32
    },
    {
      "midi": 55,
      "hit": false,
      "t": 30093.503458333267,
      "d": 81.30083333333096,
      "v": 26
    },
    {
      "midi": 64,
      "hit": false,
      "t": 30093.503458333267,
      "d": 89.43091666666078,
      "v": 30
    },
    {
      "midi": 60,
      "hit": false,
      "t": 30093.503458333267,
      "d": 97.56099999999424,
      "v": 30
    },
    {
      "midi": 67,
      "hit": false,
      "t": 30406.511666666596,
      "d": 89.43091666666442,
      "v": 26
    },
    {
      "midi": 76,
      "hit": false,
      "t": 30406.511666666596,
      "d": 89.43091666666442,
      "v": 24
    },
    {
      "midi": 72,
      "hit": false,
      "t": 30406.511666666596,
      "d": 97.56099999999424,
      "v": 25
    },
    {
      "midi": 55,
      "hit": false,
      "t": 30418.706791666595,
      "d": 81.30083333333096,
      "v": 20
    },
    {
      "midi": 64,
      "hit": false,
      "t": 30418.706791666595,
      "d": 89.43091666666078,
      "v": 24
    },
    {
      "midi": 60,
      "hit": false,
      "t": 30418.706791666595,
      "d": 97.56099999999424,
      "v": 24
    },
    {
      "midi": 67,
      "hit": false,
      "t": 30731.714999999924,
      "d": 89.43091666666442,
      "v": 20
    },
    {
      "midi": 76,
      "hit": false,
      "t": 30731.714999999924,
      "d": 89.43091666666442,
      "v": 18
    },
    {
      "midi": 72,
      "hit": false,
      "t": 30731.714999999924,
      "d": 97.56099999999424,
      "v": 19
    },
    {
      "midi": 55,
      "hit": false,
      "t": 30743.910124999922,
      "d": 81.30083333333096,
      "v": 15
    },
    {
      "midi": 64,
      "hit": false,
      "t": 30743.910124999922,
      "d": 89.43091666666078,
      "v": 18
    },
    {
      "midi": 60,
      "hit": false,
      "t": 30743.910124999922,
      "d": 97.56099999999424,
      "v": 18
    },
    {
      "midi": 67,
      "hit": false,
      "t": 31056.91833333325,
      "d": 89.43091666666442,
      "v": 15
    },
    {
      "midi": 76,
      "hit": false,
      "t": 31056.91833333325,
      "d": 89.43091666666442,
      "v": 13
    },
    {
      "midi": 72,
      "hit": false,
      "t": 31056.91833333325,
      "d": 97.56099999999424,
      "v": 14
    },
    {
      "midi": 55,
      "hit": false,
      "t": 31069.11345833325,
      "d": 81.30083333333096,
      "v": 11
    },
    {
      "midi": 64,
      "hit": false,
      "t": 31069.11345833325,
      "d": 89.43091666666078,
      "v": 13
    },
    {
      "midi": 60,
      "hit": false,
      "t": 31069.11345833325,
      "d": 97.56099999999424,
      "v": 13
    },
    {
      "midi": 67,
      "hit": false,
      "t": 31382.12166666658,
      "d": 89.43091666666442,
      "v": 11
    },
    {
      "midi": 76,
      "hit": false,
      "t": 31382.12166666658,
      "d": 89.43091666666442,
      "v": 9
    },
    {
      "midi": 72,
      "hit": false,
      "t": 31382.12166666658,
      "d": 97.56099999999424,
      "v": 10
    },
    {
      "midi": 55,
      "hit": false,
      "t": 31394.316791666577,
      "d": 81.30083333333096,
      "v": 8
    },
    {
      "midi": 64,
      "hit": false,
      "t": 31394.316791666577,
      "d": 89.43091666666078,
      "v": 9
    },
    {
      "midi": 60,
      "hit": false,
      "t": 31394.316791666577,
      "d": 97.56099999999424,
      "v": 9
    },
    {
      "midi": 67,
      "hit": false,
      "t": 31707.324999999906,
      "d": 89.43091666666442,
      "v": 8
    },
    {
      "midi": 76,
      "hit": false,
      "t": 31707.324999999906,
      "d": 89.43091666666442,
      "v": 6
    },
    {
      "midi": 72,
      "hit": false,
      "t": 31707.324999999906,
      "d": 97.56099999999424,
      "v": 7
    },
    {
      "midi": 55,
      "hit": false,
      "t": 31719.520124999905,
      "d": 81.30083333333096,
      "v": 5
    },
    {
      "midi": 64,
      "hit": false,
      "t": 31719.520124999905,
      "d": 89.43091666666078,
      "v": 6
    },
    {
      "midi": 60,
      "hit": false,
      "t": 31719.520124999905,
      "d": 97.56099999999424,
      "v": 6
    },
    {
      "midi": 67,
      "hit": false,
      "t": 32032.528333333234,
      "d": 89.43091666666442,
      "v": 5
    },
    {
      "midi": 72,
      "hit": false,
      "t": 32032.528333333234,
      "d": 101.62604166666279,
      "v": 5
    },
    {
      "midi": 76,
      "hit": false,
      "t": 32032.528333333234,
      "d": 101.62604166666279,
      "v": 4
    },
    {
      "midi": 64,
      "hit": false,
      "t": 32044.723458333232,
      "d": 89.43091666666442,
      "v": 4
    },
    {
      "midi": 55,
      "hit": false,
      "t": 32044.723458333232,
      "d": 97.56099999999788,
      "v": 3
    },
    {
      "midi": 60,
      "hit": false,
      "t": 32044.723458333232,
      "d": 97.56099999999788,
      "v": 4
    },
    {
      "midi": 67,
      "hit": false,
      "t": 32357.731666666565,
      "d": 89.43091666666442,
      "v": 3
    },
    {
      "midi": 72,
      "hit": false,
      "t": 32357.731666666565,
      "d": 101.62604166666279,
      "v": 3
    },
    {
      "midi": 76,
      "hit": false,
      "t": 32357.731666666565,
      "d": 101.62604166666279,
      "v": 2
    },
    {
      "midi": 55,
      "hit": false,
      "t": 32369.926791666563,
      "d": 97.56099999999788,
      "v": 2
    },
    {
      "midi": 64,
      "hit": false,
      "t": 32369.926791666563,
      "d": 105.69108333333133,
      "v": 2
    },
    {
      "midi": 60,
      "hit": false,
      "t": 32369.926791666563,
      "d": 113.8211666666648,
      "v": 2
    },
    {
      "midi": 67,
      "hit": false,
      "t": 32682.934999999896,
      "d": 89.43091666666442,
      "v": 2
    },
    {
      "midi": 72,
      "hit": false,
      "t": 32682.934999999896,
      "d": 101.62604166666279,
      "v": 2
    },
    {
      "midi": 76,
      "hit": false,
      "t": 32682.934999999896,
      "d": 101.62604166666279,
      "v": 1
    },
    {
      "midi": 55,
      "hit": false,
      "t": 32695.130124999894,
      "d": 97.56099999999424,
      "v": 1
    },
    {
      "midi": 64,
      "hit": false,
      "t": 32695.130124999894,
      "d": 105.69108333332406,
      "v": 1
    },
    {
      "midi": 60,
      "hit": false,
      "t": 32695.130124999894,
      "d": 113.82116666665388,
      "v": 1
    },
    {
      "midi": 67,
      "hit": false,
      "t": 33008.13833333321,
      "d": 89.43091666666442,
      "v": 1
    },
    {
      "midi": 72,
      "hit": false,
      "t": 33008.13833333321,
      "d": 101.62604166666279,
      "v": 1
    },
    {
      "midi": 40,
      "hit": false,
      "t": 45121.9625,
      "d": 81.3008333333346,
      "v": 113
    },
    {
      "midi": 43,
      "hit": false,
      "t": 45365.865000000005,
      "d": 73.1707499999975,
      "v": 105
    },
    {
      "midi": 38,
      "hit": false,
      "t": 45609.7675,
      "d": 81.3008333333346,
      "v": 99
    },
    {
      "midi": 40,
      "hit": false,
      "t": 45853.670000000006,
      "d": 77.23579166666605,
      "v": 113
    },
    {
      "midi": 35,
      "hit": false,
      "t": 46097.5725,
      "d": 60.97562499999913,
      "v": 97
    },
    {
      "midi": 38,
      "hit": false,
      "t": 46341.475,
      "d": 101.62604166667006,
      "v": 99
    },
    {
      "midi": 35,
      "hit": false,
      "t": 46585.3775,
      "d": 56.91058333333058,
      "v": 99
    },
    {
      "midi": 72,
      "hit": false,
      "t": 47317.084999999875,
      "d": 81.3008333333346,
      "v": 104
    },
    {
      "midi": 69,
      "hit": false,
      "t": 47317.084999999875,
      "d": 89.43091666666442,
      "v": 106
    },
    {
      "midi": 76,
      "hit": false,
      "t": 47317.084999999875,
      "d": 89.43091666666442,
      "v": 101
    },
    {
      "midi": 64,
      "hit": false,
      "t": 47317.084999999875,
      "d": 93.49595833333296,
      "v": 105
    },
    {
      "midi": 60,
      "hit": false,
      "t": 47317.084999999875,
      "d": 97.56100000000151,
      "v": 105
    },
    {
      "midi": 57,
      "hit": false,
      "t": 47317.084999999875,
      "d": 105.69108333333133,
      "v": 93
    },
    {
      "midi": 76,
      "hit": false,
      "t": 48288.62995833321,
      "d": 93.49595833332569,
      "v": 101
    },
    {
      "midi": 69,
      "hit": false,
      "t": 48292.694999999876,
      "d": 81.30083333332732,
      "v": 106
    },
    {
      "midi": 72,
      "hit": false,
      "t": 48292.694999999876,
      "d": 81.30083333332732,
      "v": 110
    },
    {
      "midi": 57,
      "hit": false,
      "t": 48292.694999999876,
      "d": 93.49595833332569,
      "v": 88
    },
    {
      "midi": 60,
      "hit": false,
      "t": 48292.694999999876,
      "d": 97.56099999999424,
      "v": 102
    },
    {
      "midi": 64,
      "hit": false,
      "t": 48300.825083333206,
      "d": 89.43091666666442,
      "v": 104
    },
    {
      "midi": 76,
      "hit": false,
      "t": 49280.50012499987,
      "d": 89.43091666667169,
      "v": 105
    },
    {
      "midi": 60,
      "hit": false,
      "t": 49280.50012499987,
      "d": 97.56100000000879,
      "v": 108
    },
    {
      "midi": 67,
      "hit": false,
      "t": 49288.6302083332,
      "d": 69.10570833333622,
      "v": 108
    },
    {
      "midi": 72,
      "hit": false,
      "t": 49288.6302083332,
      "d": 73.17075000000477,
      "v": 101
    },
    {
      "midi": 55,
      "hit": false,
      "t": 49288.6302083332,
      "d": 77.23579166667332,
      "v": 91
    },
    {
      "midi": 64,
      "hit": false,
      "t": 49288.6302083332,
      "d": 85.36587500001042,
      "v": 105
    },
    {
      "midi": 55,
      "hit": false,
      "t": 50256.110124999876,
      "d": 73.17075000000477,
      "v": 94
    },
    {
      "midi": 60,
      "hit": false,
      "t": 50256.110124999876,
      "d": 93.49595833334024,
      "v": 108
    },
    {
      "midi": 76,
      "hit": false,
      "t": 50256.110124999876,
      "d": 93.49595833334024,
      "v": 104
    },
    {
      "midi": 67,
      "hit": false,
      "t": 50260.175166666544,
      "d": 73.17075000000477,
      "v": 113
    },
    {
      "midi": 64,
      "hit": false,
      "t": 50260.175166666544,
      "d": 85.36587500000314,
      "v": 112
    },
    {
      "midi": 72,
      "hit": false,
      "t": 50260.175166666544,
      "d": 85.36587500000314,
      "v": 105
    },
    {
      "midi": 77,
      "hit": false,
      "t": 51235.78516666655,
      "d": 81.3008333333346,
      "v": 101
    },
    {
      "midi": 69,
      "hit": false,
      "t": 51235.78516666655,
      "d": 89.43091666666442,
      "v": 106
    },
    {
      "midi": 72,
      "hit": false,
      "t": 51235.78516666655,
      "d": 89.43091666666442,
      "v": 108
    },
    {
      "midi": 57,
      "hit": false,
      "t": 51235.78516666655,
      "d": 97.56099999999424,
      "v": 95
    },
    {
      "midi": 60,
      "hit": false,
      "t": 51235.78516666655,
      "d": 97.56099999999424,
      "v": 105
    },
    {
      "midi": 65,
      "hit": false,
      "t": 51247.98029166655,
      "d": 89.43091666666442,
      "v": 99
    },
    {
      "midi": 69,
      "hit": false,
      "t": 52195.13499999988,
      "d": 81.3008333333346,
      "v": 110
    },
    {
      "midi": 77,
      "hit": false,
      "t": 52195.13499999988,
      "d": 81.3008333333346,
      "v": 100
    },
    {
      "midi": 72,
      "hit": false,
      "t": 52195.13499999988,
      "d": 85.36587500000314,
      "v": 110
    },
    {
      "midi": 60,
      "hit": false,
      "t": 52195.13499999988,
      "d": 109.75612499999988,
      "v": 105
    },
    {
      "midi": 57,
      "hit": false,
      "t": 52195.13499999988,
      "d": 113.82116666666843,
      "v": 95
    },
    {
      "midi": 65,
      "hit": false,
      "t": 52195.13499999988,
      "d": 121.95124999999825,
      "v": 99
    },
    {
      "midi": 67,
      "hit": false,
      "t": 53154.48483333321,
      "d": 89.43091666666442,
      "v": 106
    },
    {
      "midi": 71,
      "hit": false,
      "t": 53154.48483333321,
      "d": 89.43091666666442,
      "v": 112
    },
    {
      "midi": 76,
      "hit": false,
      "t": 53154.48483333321,
      "d": 93.49595833333296,
      "v": 101
    },
    {
      "midi": 55,
      "hit": false,
      "t": 53154.48483333321,
      "d": 105.69108333333133,
      "v": 95
    },
    {
      "midi": 59,
      "hit": false,
      "t": 53154.48483333321,
      "d": 105.69108333333133,
      "v": 104
    },
    {
      "midi": 64,
      "hit": false,
      "t": 53166.67995833321,
      "d": 85.36587500000314,
      "v": 99
    },
    {
      "midi": 76,
      "hit": false,
      "t": 54138.22491666654,
      "d": 89.43091666667169,
      "v": 101
    },
    {
      "midi": 67,
      "hit": false,
      "t": 54142.28995833321,
      "d": 93.49595833333296,
      "v": 108
    },
    {
      "midi": 71,
      "hit": false,
      "t": 54142.28995833321,
      "d": 97.56100000000151,
      "v": 108
    },
    {
      "midi": 55,
      "hit": false,
      "t": 54142.28995833321,
      "d": 109.75612499999988,
      "v": 87
    },
    {
      "midi": 59,
      "hit": false,
      "t": 54146.35499999988,
      "d": 101.62604166666279,
      "v": 100
    },
    {
      "midi": 64,
      "hit": false,
      "t": 54146.35499999988,
      "d": 101.62604166666279,
      "v": 101
    },
    {
      "midi": 76,
      "hit": false,
      "t": 62910.58483333321,
      "d": 89.43091666666442,
      "v": 101
    },
    {
      "midi": 69,
      "hit": false,
      "t": 62918.71491666654,
      "d": 77.23579166666605,
      "v": 108
    },
    {
      "midi": 72,
      "hit": false,
      "t": 62918.71491666654,
      "d": 77.23579166666605,
      "v": 101
    },
    {
      "midi": 64,
      "hit": false,
      "t": 62926.84499999987,
      "d": 85.36587500000314,
      "v": 104
    },
    {
      "midi": 57,
      "hit": false,
      "t": 62926.84499999987,
      "d": 93.49595833333296,
      "v": 90
    },
    {
      "midi": 60,
      "hit": false,
      "t": 62926.84499999987,
      "d": 93.49595833333296,
      "v": 102
    },
    {
      "midi": 76,
      "hit": false,
      "t": 63890.25987499987,
      "d": 77.23579166666605,
      "v": 104
    },
    {
      "midi": 69,
      "hit": false,
      "t": 63890.25987499987,
      "d": 81.3008333333346,
      "v": 108
    },
    {
      "midi": 72,
      "hit": false,
      "t": 63898.3899583332,
      "d": 65.04066666666768,
      "v": 110
    },
    {
      "midi": 57,
      "hit": false,
      "t": 63902.45499999987,
      "d": 81.3008333333346,
      "v": 97
    },
    {
      "midi": 64,
      "hit": false,
      "t": 63902.45499999987,
      "d": 81.3008333333346,
      "v": 108
    },
    {
      "midi": 60,
      "hit": false,
      "t": 63902.45499999987,
      "d": 85.36587500000314,
      "v": 110
    },
    {
      "midi": 76,
      "hit": false,
      "t": 64857.73979166654,
      "d": 89.43091666667169,
      "v": 104
    },
    {
      "midi": 67,
      "hit": false,
      "t": 64861.80483333321,
      "d": 81.3008333333346,
      "v": 113
    },
    {
      "midi": 72,
      "hit": false,
      "t": 64861.80483333321,
      "d": 85.36587500000314,
      "v": 110
    },
    {
      "midi": 60,
      "hit": false,
      "t": 64873.99995833321,
      "d": 81.3008333333346,
      "v": 106
    },
    {
      "midi": 55,
      "hit": false,
      "t": 64873.99995833321,
      "d": 93.49595833333296,
      "v": 95
    },
    {
      "midi": 64,
      "hit": false,
      "t": 64878.06499999988,
      "d": 77.23579166666605,
      "v": 110
    },
    {
      "midi": 67,
      "hit": false,
      "t": 65853.67499999987,
      "d": 85.36587500000314,
      "v": 110
    },
    {
      "midi": 72,
      "hit": false,
      "t": 65853.67499999987,
      "d": 85.36587500000314,
      "v": 110
    },
    {
      "midi": 55,
      "hit": false,
      "t": 65853.67499999987,
      "d": 93.49595833334024,
      "v": 83
    },
    {
      "midi": 76,
      "hit": false,
      "t": 65853.67499999987,
      "d": 93.49595833334024,
      "v": 104
    },
    {
      "midi": 64,
      "hit": false,
      "t": 65853.67499999987,
      "d": 113.82116666667571,
      "v": 101
    },
    {
      "midi": 60,
      "hit": false,
      "t": 65853.67499999987,
      "d": 117.88620833333698,
      "v": 106
    },
    {
      "midi": 76,
      "hit": false,
      "t": 66829.28499999987,
      "d": 56.91058333333058,
      "v": 95
    },
    {
      "midi": 77,
      "hit": false,
      "t": 66829.28499999987,
      "d": 77.23579166666605,
      "v": 99
    },
    {
      "midi": 69,
      "hit": false,
      "t": 66829.28499999987,
      "d": 85.36587500000314,
      "v": 105
    },
    {
      "midi": 72,
      "hit": false,
      "t": 66829.28499999987,
      "d": 85.36587500000314,
      "v": 101
    },
    {
      "midi": 60,
      "hit": false,
      "t": 66829.28499999987,
      "d": 109.75612499999988,
      "v": 105
    },
    {
      "midi": 57,
      "hit": false,
      "t": 66829.28499999987,
      "d": 117.88620833333698,
      "v": 90
    },
    {
      "midi": 65,
      "hit": false,
      "t": 66845.54516666653,
      "d": 109.75612500001444,
      "v": 99
    },
    {
      "midi": 69,
      "hit": false,
      "t": 67804.89499999987,
      "d": 93.49595833332569,
      "v": 106
    },
    {
      "midi": 72,
      "hit": false,
      "t": 67804.89499999987,
      "d": 97.56099999998696,
      "v": 101
    },
    {
      "midi": 77,
      "hit": false,
      "t": 67804.89499999987,
      "d": 105.69108333332406,
      "v": 104
    },
    {
      "midi": 65,
      "hit": false,
      "t": 67821.15516666653,
      "d": 93.49595833332569,
      "v": 101
    },
    {
      "midi": 60,
      "hit": false,
      "t": 67821.15516666653,
      "d": 101.62604166666279,
      "v": 104
    },
    {
      "midi": 57,
      "hit": false,
      "t": 67821.15516666653,
      "d": 109.75612499999988,
      "v": 94
    },
    {
      "midi": 40,
      "hit": false,
      "t": 68536.60250000001,
      "d": 81.30083333332732,
      "v": 117
    },
    {
      "midi": 55,
      "hit": false,
      "t": 68760.17979166654,
      "d": 93.49595833332569,
      "v": 90
    },
    {
      "midi": 64,
      "hit": false,
      "t": 68760.17979166654,
      "d": 93.49595833332569,
      "v": 101
    },
    {
      "midi": 59,
      "hit": false,
      "t": 68760.17979166654,
      "d": 101.62604166664823,
      "v": 104
    },
    {
      "midi": 76,
      "hit": false,
      "t": 68764.2448333332,
      "d": 85.36587500000314,
      "v": 101
    },
    {
      "midi": 67,
      "hit": false,
      "t": 68764.2448333332,
      "d": 89.43091666666442,
      "v": 106
    },
    {
      "midi": 71,
      "hit": false,
      "t": 68764.2448333332,
      "d": 93.49595833332569,
      "v": 112
    },
    {
      "midi": 43,
      "hit": false,
      "t": 68780.505,
      "d": 77.23579166666605,
      "v": 112
    },
    {
      "midi": 38,
      "hit": false,
      "t": 69024.4075,
      "d": 65.04066666666768,
      "v": 97
    },
    {
      "midi": 40,
      "hit": false,
      "t": 69268.31,
      "d": 85.36587500000314,
      "v": 120
    },
    {
      "midi": 35,
      "hit": false,
      "t": 69512.2125,
      "d": 73.17075000000477,
      "v": 101
    },
    {
      "midi": 55,
      "hit": false,
      "t": 69752.04995833318,
      "d": 101.62604166664823,
      "v": 95
    },
    {
      "midi": 59,
      "hit": false,
      "t": 69752.04995833318,
      "d": 105.6910833333095,
      "v": 102
    },
    {
      "midi": 64,
      "hit": false,
      "t": 69756.11499999985,
      "d": 89.43091666666442,
      "v": 106
    },
    {
      "midi": 67,
      "hit": false,
      "t": 69756.11499999985,
      "d": 89.43091666666442,
      "v": 108
    },
    {
      "midi": 76,
      "hit": false,
      "t": 69756.11499999985,
      "d": 89.43091666666442,
      "v": 101
    },
    {
      "midi": 71,
      "hit": false,
      "t": 69756.11499999985,
      "d": 93.49595833332569,
      "v": 104
    },
    {
      "midi": 38,
      "hit": false,
      "t": 69756.115,
      "d": 105.69108333333861,
      "v": 110
    },
    {
      "midi": 35,
      "hit": false,
      "t": 70000.01750000002,
      "d": 60.9756250000064,
      "v": 101
    },
    {
      "midi": 76,
      "hit": false,
      "t": 70227.65983333316,
      "d": 101.62604166666279,
      "v": 100
    },
    {
      "midi": 72,
      "hit": false,
      "t": 70227.65983333316,
      "d": 105.69108333332406,
      "v": 104
    },
    {
      "midi": 76,
      "hit": false,
      "t": 70475.62737499982,
      "d": 113.82116666666116,
      "v": 93
    },
    {
      "midi": 72,
      "hit": false,
      "t": 70475.62737499982,
      "d": 117.88620833332243,
      "v": 97
    },
    {
      "midi": 69,
      "hit": false,
      "t": 70715.46483333314,
      "d": 85.36587499998859,
      "v": 92
    },
    {
      "midi": 64,
      "hit": false,
      "t": 70731.7249999998,
      "d": 77.23579166666605,
      "v": 101
    },
    {
      "midi": 60,
      "hit": false,
      "t": 70731.7249999998,
      "d": 85.36587500000314,
      "v": 105
    },
    {
      "midi": 57,
      "hit": false,
      "t": 70731.7249999998,
      "d": 93.49595833334024,
      "v": 95
    },
    {
      "midi": 76,
      "hit": false,
      "t": 70995.95270833315,
      "d": 97.56100000000151,
      "v": 95
    },
    {
      "midi": 72,
      "hit": false,
      "t": 71000.01774999981,
      "d": 93.49595833334024,
      "v": 99
    },
    {
      "midi": 72,
      "hit": false,
      "t": 71471.56258333314,
      "d": 113.82116666666116,
      "v": 100
    },
    {
      "midi": 76,
      "hit": false,
      "t": 71471.56258333314,
      "d": 113.82116666666116,
      "v": 101
    },
    {
      "midi": 60,
      "hit": false,
      "t": 71699.20491666647,
      "d": 97.56099999998696,
      "v": 110
    },
    {
      "midi": 57,
      "hit": false,
      "t": 71703.26995833313,
      "d": 77.23579166666605,
      "v": 96
    },
    {
      "midi": 69,
      "hit": false,
      "t": 71707.33499999979,
      "d": 77.23579166666605,
      "v": 88
    },
    {
      "midi": 64,
      "hit": false,
      "t": 71707.33499999979,
      "d": 85.36587500000314,
      "v": 112
    },
    {
      "midi": 76,
      "hit": false,
      "t": 72658.55474999979,
      "d": 89.43091666664986,
      "v": 101
    },
    {
      "midi": 72,
      "hit": false,
      "t": 72662.61979166645,
      "d": 93.49595833332569,
      "v": 110
    },
    {
      "midi": 67,
      "hit": false,
      "t": 72666.68483333311,
      "d": 89.43091666666442,
      "v": 108
    },
    {
      "midi": 55,
      "hit": false,
      "t": 72670.74987499978,
      "d": 93.49595833332569,
      "v": 94
    },
    {
      "midi": 60,
      "hit": false,
      "t": 72670.74987499978,
      "d": 105.69108333332406,
      "v": 104
    },
    {
      "midi": 64,
      "hit": false,
      "t": 72674.81491666644,
      "d": 85.36587500000314,
      "v": 104
    },
    {
      "midi": 76,
      "hit": false,
      "t": 73654.4899583331,
      "d": 89.43091666664986,
      "v": 102
    },
    {
      "midi": 60,
      "hit": false,
      "t": 73654.4899583331,
      "d": 105.6910833333095,
      "v": 105
    },
    {
      "midi": 67,
      "hit": false,
      "t": 73658.55499999976,
      "d": 81.30083333332732,
      "v": 105
    },
    {
      "midi": 72,
      "hit": false,
      "t": 73658.55499999976,
      "d": 89.43091666664986,
      "v": 102
    },
    {
      "midi": 64,
      "hit": false,
      "t": 73658.55499999976,
      "d": 93.49595833331114,
      "v": 105
    },
    {
      "midi": 55,
      "hit": false,
      "t": 73658.55499999976,
      "d": 101.62604166664823,
      "v": 87
    },
    {
      "midi": 72,
      "hit": false,
      "t": 74634.16499999975,
      "d": 85.36587500000314,
      "v": 101
    },
    {
      "midi": 69,
      "hit": false,
      "t": 74634.16499999975,
      "d": 89.43091666666442,
      "v": 100
    },
    {
      "midi": 77,
      "hit": false,
      "t": 74634.16499999975,
      "d": 89.43091666666442,
      "v": 96
    },
    {
      "midi": 60,
      "hit": false,
      "t": 74634.16499999975,
      "d": 101.62604166666279,
      "v": 101
    },
    {
      "midi": 57,
      "hit": false,
      "t": 74634.16499999975,
      "d": 105.69108333332406,
      "v": 89
    },
    {
      "midi": 65,
      "hit": false,
      "t": 74654.49020833308,
      "d": 81.30083333332732,
      "v": 99
    },
    {
      "midi": 57,
      "hit": false,
      "t": 75609.77499999973,
      "d": 105.69108333332406,
      "v": 91
    },
    {
      "midi": 77,
      "hit": false,
      "t": 75621.97012499973,
      "d": 89.43091666666442,
      "v": 95
    },
    {
      "midi": 60,
      "hit": false,
      "t": 75621.97012499973,
      "d": 93.49595833332569,
      "v": 99
    },
    {
      "midi": 69,
      "hit": false,
      "t": 75626.03516666639,
      "d": 85.36587500000314,
      "v": 99
    },
    {
      "midi": 65,
      "hit": false,
      "t": 75626.03516666639,
      "d": 89.43091666666442,
      "v": 100
    },
    {
      "midi": 72,
      "hit": false,
      "t": 75626.03516666639,
      "d": 89.43091666666442,
      "v": 101
    },
    {
      "midi": 47,
      "hit": false,
      "t": 76097.58000000002,
      "d": 121.95124999999825,
      "v": 106
    },
    {
      "midi": 48,
      "hit": false,
      "t": 76219.53125000001,
      "d": 130.08133333333535,
      "v": 90
    },
    {
      "midi": 47,
      "hit": false,
      "t": 76341.48250000001,
      "d": 81.30083333334187,
      "v": 101
    },
    {
      "midi": 64,
      "hit": false,
      "t": 76585.38499999972,
      "d": 97.56099999998696,
      "v": 104
    },
    {
      "midi": 55,
      "hit": false,
      "t": 76585.38499999972,
      "d": 101.62604166664823,
      "v": 90
    },
    {
      "midi": 59,
      "hit": false,
      "t": 76585.38499999972,
      "d": 113.8211666666466,
      "v": 101
    },
    {
      "midi": 47,
      "hit": false,
      "t": 76585.38500000002,
      "d": 81.30083333332732,
      "v": 102
    },
    {
      "midi": 76,
      "hit": false,
      "t": 76601.64516666638,
      "d": 85.36587499998859,
      "v": 95
    },
    {
      "midi": 71,
      "hit": false,
      "t": 76601.64516666638,
      "d": 93.49595833332569,
      "v": 99
    },
    {
      "midi": 67,
      "hit": false,
      "t": 76605.71020833304,
      "d": 81.30083333332732,
      "v": 97
    },
    {
      "midi": 43,
      "hit": false,
      "t": 77073.19000000002,
      "d": 81.30083333332732,
      "v": 104
    },
    {
      "midi": 40,
      "hit": false,
      "t": 77317.09250000001,
      "d": 56.91058333333058,
      "v": 104
    },
    {
      "midi": 67,
      "hit": false,
      "t": 77560.9949999997,
      "d": 93.49595833332569,
      "v": 102
    },
    {
      "midi": 76,
      "hit": false,
      "t": 77560.9949999997,
      "d": 97.56099999998696,
      "v": 100
    },
    {
      "midi": 71,
      "hit": false,
      "t": 77560.9949999997,
      "d": 101.62604166664823,
      "v": 101
    },
    {
      "midi": 55,
      "hit": false,
      "t": 77560.9949999997,
      "d": 109.75612499998533,
      "v": 95
    },
    {
      "midi": 59,
      "hit": false,
      "t": 77560.9949999997,
      "d": 113.8211666666466,
      "v": 102
    },
    {
      "midi": 43,
      "hit": false,
      "t": 77560.99500000001,
      "d": 93.49595833332569,
      "v": 106
    },
    {
      "midi": 64,
      "hit": false,
      "t": 77577.25516666636,
      "d": 105.69108333332406,
      "v": 108
    },
    {
      "midi": 40,
      "hit": false,
      "t": 77642.29583333334,
      "d": 56.91058333333058,
      "v": 101
    },
    {
      "midi": 45,
      "hit": false,
      "t": 77804.8975,
      "d": 60.9756250000064,
      "v": 108
    },
    {
      "midi": 67,
      "hit": false,
      "t": 77886.19833333303,
      "d": 93.49595833332569,
      "v": 99
    },
    {
      "midi": 76,
      "hit": false,
      "t": 77886.19833333303,
      "d": 97.56099999998696,
      "v": 97
    },
    {
      "midi": 71,
      "hit": false,
      "t": 77886.19833333303,
      "d": 101.62604166664823,
      "v": 98
    },
    {
      "midi": 55,
      "hit": false,
      "t": 77886.19833333303,
      "d": 109.75612499998533,
      "v": 93
    },
    {
      "midi": 59,
      "hit": false,
      "t": 77886.19833333303,
      "d": 113.8211666666466,
      "v": 99
    },
    {
      "midi": 43,
      "hit": false,
      "t": 77886.19833333335,
      "d": 93.49595833332569,
      "v": 103
    },
    {
      "midi": 64,
      "hit": false,
      "t": 77902.45849999969,
      "d": 105.69108333332406,
      "v": 105
    },
    {
      "midi": 40,
      "hit": false,
      "t": 77967.49916666668,
      "d": 56.91058333333058,
      "v": 97
    },
    {
      "midi": 45,
      "hit": false,
      "t": 78130.10083333334,
      "d": 60.9756250000064,
      "v": 105
    },
    {
      "midi": 67,
      "hit": false,
      "t": 78211.40166666635,
      "d": 93.49595833332569,
      "v": 95
    },
    {
      "midi": 76,
      "hit": false,
      "t": 78211.40166666635,
      "d": 97.56099999998696,
      "v": 93
    },
    {
      "midi": 71,
      "hit": false,
      "t": 78211.40166666635,
      "d": 101.62604166664823,
      "v": 94
    },
    {
      "midi": 55,
      "hit": false,
      "t": 78211.40166666635,
      "d": 109.75612499998533,
      "v": 89
    },
    {
      "midi": 59,
      "hit": false,
      "t": 78211.40166666635,
      "d": 113.8211666666466,
      "v": 95
    },
    {
      "midi": 43,
      "hit": false,
      "t": 78211.40166666669,
      "d": 93.49595833332569,
      "v": 98
    },
    {
      "midi": 64,
      "hit": false,
      "t": 78227.66183333301,
      "d": 105.69108333332406,
      "v": 100
    },
    {
      "midi": 40,
      "hit": false,
      "t": 78292.70250000001,
      "d": 56.91058333333058,
      "v": 91
    },
    {
      "midi": 45,
      "hit": false,
      "t": 78455.30416666668,
      "d": 60.9756250000064,
      "v": 100
    },
    {
      "midi": 67,
      "hit": false,
      "t": 78536.60499999968,
      "d": 93.49595833332569,
      "v": 89
    },
    {
      "midi": 76,
      "hit": false,
      "t": 78536.60499999968,
      "d": 97.56099999998696,
      "v": 87
    },
    {
      "midi": 71,
      "hit": false,
      "t": 78536.60499999968,
      "d": 101.62604166664823,
      "v": 88
    },
    {
      "midi": 55,
      "hit": false,
      "t": 78536.60499999968,
      "d": 109.75612499998533,
      "v": 83
    },
    {
      "midi": 59,
      "hit": false,
      "t": 78536.60499999968,
      "d": 113.8211666666466,
      "v": 89
    },
    {
      "midi": 43,
      "hit": false,
      "t": 78536.60500000003,
      "d": 93.49595833332569,
      "v": 92
    },
    {
      "midi": 64,
      "hit": false,
      "t": 78552.86516666634,
      "d": 105.69108333332406,
      "v": 94
    },
    {
      "midi": 40,
      "hit": false,
      "t": 78617.90583333335,
      "d": 56.91058333333058,
      "v": 83
    },
    {
      "midi": 45,
      "hit": false,
      "t": 78780.50750000002,
      "d": 60.9756250000064,
      "v": 94
    },
    {
      "midi": 67,
      "hit": false,
      "t": 78861.808333333,
      "d": 93.49595833332569,
      "v": 82
    },
    {
      "midi": 76,
      "hit": false,
      "t": 78861.808333333,
      "d": 97.56099999998696,
      "v": 80
    },
    {
      "midi": 71,
      "hit": false,
      "t": 78861.808333333,
      "d": 101.62604166664823,
      "v": 81
    },
    {
      "midi": 55,
      "hit": false,
      "t": 78861.808333333,
      "d": 109.75612499998533,
      "v": 76
    },
    {
      "midi": 59,
      "hit": false,
      "t": 78861.808333333,
      "d": 113.8211666666466,
      "v": 82
    },
    {
      "midi": 43,
      "hit": false,
      "t": 78861.80833333336,
      "d": 93.49595833332569,
      "v": 84
    },
    {
      "midi": 64,
      "hit": false,
      "t": 78878.06849999966,
      "d": 105.69108333332406,
      "v": 86
    },
    {
      "midi": 40,
      "hit": false,
      "t": 78943.10916666669,
      "d": 56.91058333333058,
      "v": 75
    },
    {
      "midi": 45,
      "hit": false,
      "t": 79105.71083333336,
      "d": 60.9756250000064,
      "v": 86
    },
    {
      "midi": 67,
      "hit": false,
      "t": 79187.01166666632,
      "d": 93.49595833332569,
      "v": 74
    },
    {
      "midi": 76,
      "hit": false,
      "t": 79187.01166666632,
      "d": 97.56099999998696,
      "v": 72
    },
    {
      "midi": 71,
      "hit": false,
      "t": 79187.01166666632,
      "d": 101.62604166664823,
      "v": 73
    },
    {
      "midi": 55,
      "hit": false,
      "t": 79187.01166666632,
      "d": 109.75612499998533,
      "v": 68
    },
    {
      "midi": 59,
      "hit": false,
      "t": 79187.01166666632,
      "d": 113.8211666666466,
      "v": 74
    },
    {
      "midi": 43,
      "hit": false,
      "t": 79187.0116666667,
      "d": 93.49595833332569,
      "v": 75
    },
    {
      "midi": 64,
      "hit": false,
      "t": 79203.27183333298,
      "d": 105.69108333332406,
      "v": 77
    },
    {
      "midi": 40,
      "hit": false,
      "t": 79268.31250000003,
      "d": 56.91058333333058,
      "v": 66
    },
    {
      "midi": 45,
      "hit": false,
      "t": 79430.9141666667,
      "d": 60.9756250000064,
      "v": 77
    },
    {
      "midi": 67,
      "hit": false,
      "t": 79512.21499999965,
      "d": 93.49595833332569,
      "v": 65
    },
    {
      "midi": 76,
      "hit": false,
      "t": 79512.21499999965,
      "d": 97.56099999998696,
      "v": 63
    },
    {
      "midi": 71,
      "hit": false,
      "t": 79512.21499999965,
      "d": 101.62604166664823,
      "v": 64
    },
    {
      "midi": 55,
      "hit": false,
      "t": 79512.21499999965,
      "d": 109.75612499998533,
      "v": 60
    },
    {
      "midi": 59,
      "hit": false,
      "t": 79512.21499999965,
      "d": 113.8211666666466,
      "v": 65
    },
    {
      "midi": 43,
      "hit": false,
      "t": 79512.21500000004,
      "d": 93.49595833332569,
      "v": 66
    },
    {
      "midi": 64,
      "hit": false,
      "t": 79528.4751666663,
      "d": 105.69108333332406,
      "v": 68
    },
    {
      "midi": 40,
      "hit": false,
      "t": 79593.51583333337,
      "d": 56.91058333333058,
      "v": 57
    },
    {
      "midi": 45,
      "hit": false,
      "t": 79756.11750000004,
      "d": 60.9756250000064,
      "v": 68
    },
    {
      "midi": 67,
      "hit": false,
      "t": 79837.41833333297,
      "d": 93.49595833332569,
      "v": 56
    },
    {
      "midi": 76,
      "hit": false,
      "t": 79837.41833333297,
      "d": 97.56099999998696,
      "v": 54
    },
    {
      "midi": 71,
      "hit": false,
      "t": 79837.41833333297,
      "d": 101.62604166664823,
      "v": 55
    },
    {
      "midi": 55,
      "hit": false,
      "t": 79837.41833333297,
      "d": 109.75612499998533,
      "v": 52
    },
    {
      "midi": 59,
      "hit": false,
      "t": 79837.41833333297,
      "d": 113.8211666666466,
      "v": 56
    },
    {
      "midi": 43,
      "hit": false,
      "t": 79837.41833333338,
      "d": 93.49595833332569,
      "v": 57
    },
    {
      "midi": 64,
      "hit": false,
      "t": 79853.67849999963,
      "d": 105.69108333332406,
      "v": 59
    },
    {
      "midi": 40,
      "hit": false,
      "t": 79918.7191666667,
      "d": 56.91058333333058,
      "v": 48
    },
    {
      "midi": 45,
      "hit": false,
      "t": 80081.32083333338,
      "d": 60.9756250000064,
      "v": 59
    },
    {
      "midi": 67,
      "hit": false,
      "t": 80162.6216666663,
      "d": 93.49595833332569,
      "v": 47
    },
    {
      "midi": 76,
      "hit": false,
      "t": 80162.6216666663,
      "d": 97.56099999998696,
      "v": 45
    },
    {
      "midi": 71,
      "hit": false,
      "t": 80162.6216666663,
      "d": 101.62604166664823,
      "v": 46
    },
    {
      "midi": 55,
      "hit": false,
      "t": 80162.6216666663,
      "d": 109.75612499998533,
      "v": 44
    },
    {
      "midi": 59,
      "hit": false,
      "t": 80162.6216666663,
      "d": 113.8211666666466,
      "v": 47
    },
    {
      "midi": 43,
      "hit": false,
      "t": 80162.62166666672,
      "d": 93.49595833332569,
      "v": 48
    },
    {
      "midi": 64,
      "hit": false,
      "t": 80178.88183333295,
      "d": 105.69108333332406,
      "v": 50
    },
    {
      "midi": 40,
      "hit": false,
      "t": 80243.92250000004,
      "d": 56.91058333333058,
      "v": 40
    },
    {
      "midi": 45,
      "hit": false,
      "t": 80406.52416666671,
      "d": 60.9756250000064,
      "v": 50
    },
    {
      "midi": 67,
      "hit": false,
      "t": 80487.82499999962,
      "d": 93.49595833332569,
      "v": 39
    },
    {
      "midi": 76,
      "hit": false,
      "t": 80487.82499999962,
      "d": 97.56099999998696,
      "v": 37
    },
    {
      "midi": 71,
      "hit": false,
      "t": 80487.82499999962,
      "d": 101.62604166664823,
      "v": 38
    },
    {
      "midi": 55,
      "hit": false,
      "t": 80487.82499999962,
      "d": 109.75612499998533,
      "v": 36
    },
    {
      "midi": 59,
      "hit": false,
      "t": 80487.82499999962,
      "d": 113.8211666666466,
      "v": 39
    },
    {
      "midi": 43,
      "hit": false,
      "t": 80487.82500000006,
      "d": 93.49595833332569,
      "v": 40
    },
    {
      "midi": 64,
      "hit": false,
      "t": 80504.08516666628,
      "d": 105.69108333332406,
      "v": 41
    },
    {
      "midi": 40,
      "hit": false,
      "t": 80569.12583333338,
      "d": 56.91058333333058,
      "v": 32
    },
    {
      "midi": 45,
      "hit": false,
      "t": 80731.72750000005,
      "d": 60.9756250000064,
      "v": 41
    },
    {
      "midi": 67,
      "hit": false,
      "t": 80813.02833333294,
      "d": 93.49595833332569,
      "v": 31
    },
    {
      "midi": 76,
      "hit": false,
      "t": 80813.02833333294,
      "d": 97.56099999998696,
      "v": 30
    },
    {
      "midi": 71,
      "hit": false,
      "t": 80813.02833333294,
      "d": 101.62604166664823,
      "v": 31
    },
    {
      "midi": 55,
      "hit": false,
      "t": 80813.02833333294,
      "d": 109.75612499998533,
      "v": 29
    },
    {
      "midi": 59,
      "hit": false,
      "t": 80813.02833333294,
      "d": 113.8211666666466,
      "v": 31
    },
    {
      "midi": 43,
      "hit": false,
      "t": 80813.0283333334,
      "d": 93.49595833332569,
      "v": 32
    },
    {
      "midi": 64,
      "hit": false,
      "t": 80829.2884999996,
      "d": 105.69108333332406,
      "v": 33
    },
    {
      "midi": 40,
      "hit": false,
      "t": 80894.32916666672,
      "d": 56.91058333333058,
      "v": 25
    },
    {
      "midi": 45,
      "hit": false,
      "t": 81056.93083333339,
      "d": 60.9756250000064,
      "v": 33
    },
    {
      "midi": 67,
      "hit": false,
      "t": 81138.23166666627,
      "d": 93.49595833332569,
      "v": 24
    },
    {
      "midi": 76,
      "hit": false,
      "t": 81138.23166666627,
      "d": 97.56099999998696,
      "v": 24
    },
    {
      "midi": 71,
      "hit": false,
      "t": 81138.23166666627,
      "d": 101.62604166664823,
      "v": 24
    },
    {
      "midi": 55,
      "hit": false,
      "t": 81138.23166666627,
      "d": 109.75612499998533,
      "v": 23
    },
    {
      "midi": 59,
      "hit": false,
      "t": 81138.23166666627,
      "d": 113.8211666666466,
      "v": 24
    },
    {
      "midi": 43,
      "hit": false,
      "t": 81138.23166666673,
      "d": 93.49595833332569,
      "v": 25
    },
    {
      "midi": 64,
      "hit": false,
      "t": 81154.49183333293,
      "d": 105.69108333332406,
      "v": 26
    },
    {
      "midi": 40,
      "hit": false,
      "t": 81219.53250000006,
      "d": 56.91058333333058,
      "v": 19
    },
    {
      "midi": 45,
      "hit": false,
      "t": 81382.13416666673,
      "d": 60.9756250000064,
      "v": 26
    },
    {
      "midi": 67,
      "hit": false,
      "t": 81463.43499999959,
      "d": 93.49595833332569,
      "v": 18
    },
    {
      "midi": 76,
      "hit": false,
      "t": 81463.43499999959,
      "d": 97.56099999998696,
      "v": 18
    },
    {
      "midi": 71,
      "hit": false,
      "t": 81463.43499999959,
      "d": 101.62604166664823,
      "v": 18
    },
    {
      "midi": 55,
      "hit": false,
      "t": 81463.43499999959,
      "d": 109.75612499998533,
      "v": 18
    },
    {
      "midi": 59,
      "hit": false,
      "t": 81463.43499999959,
      "d": 113.8211666666466,
      "v": 18
    },
    {
      "midi": 43,
      "hit": false,
      "t": 81463.43500000007,
      "d": 93.49595833332569,
      "v": 19
    },
    {
      "midi": 64,
      "hit": false,
      "t": 81479.69516666625,
      "d": 105.69108333332406,
      "v": 20
    },
    {
      "midi": 40,
      "hit": false,
      "t": 81544.7358333334,
      "d": 56.91058333333058,
      "v": 14
    },
    {
      "midi": 45,
      "hit": false,
      "t": 81707.33750000007,
      "d": 60.9756250000064,
      "v": 20
    },
    {
      "midi": 67,
      "hit": false,
      "t": 81788.63833333291,
      "d": 93.49595833332569,
      "v": 13
    },
    {
      "midi": 76,
      "hit": false,
      "t": 81788.63833333291,
      "d": 97.56099999998696,
      "v": 13
    },
    {
      "midi": 71,
      "hit": false,
      "t": 81788.63833333291,
      "d": 101.62604166664823,
      "v": 13
    },
    {
      "midi": 55,
      "hit": false,
      "t": 81788.63833333291,
      "d": 109.75612499998533,
      "v": 13
    },
    {
      "midi": 59,
      "hit": false,
      "t": 81788.63833333291,
      "d": 113.8211666666466,
      "v": 13
    },
    {
      "midi": 43,
      "hit": false,
      "t": 81788.63833333341,
      "d": 93.49595833332569,
      "v": 14
    },
    {
      "midi": 64,
      "hit": false,
      "t": 81804.89849999957,
      "d": 105.69108333332406,
      "v": 15
    },
    {
      "midi": 40,
      "hit": false,
      "t": 81869.93916666674,
      "d": 56.91058333333058,
      "v": 10
    },
    {
      "midi": 45,
      "hit": false,
      "t": 82032.5408333334,
      "d": 60.9756250000064,
      "v": 15
    },
    {
      "midi": 67,
      "hit": false,
      "t": 82113.84166666624,
      "d": 93.49595833332569,
      "v": 9
    },
    {
      "midi": 76,
      "hit": false,
      "t": 82113.84166666624,
      "d": 97.56099999998696,
      "v": 9
    },
    {
      "midi": 71,
      "hit": false,
      "t": 82113.84166666624,
      "d": 101.62604166664823,
      "v": 9
    },
    {
      "midi": 55,
      "hit": false,
      "t": 82113.84166666624,
      "d": 109.75612499998533,
      "v": 9
    },
    {
      "midi": 59,
      "hit": false,
      "t": 82113.84166666624,
      "d": 113.8211666666466,
      "v": 9
    },
    {
      "midi": 43,
      "hit": false,
      "t": 82113.84166666675,
      "d": 93.49595833332569,
      "v": 10
    },
    {
      "midi": 64,
      "hit": false,
      "t": 82130.1018333329,
      "d": 105.69108333332406,
      "v": 11
    },
    {
      "midi": 40,
      "hit": false,
      "t": 82195.14250000007,
      "d": 56.91058333333058,
      "v": 7
    },
    {
      "midi": 45,
      "hit": false,
      "t": 82357.74416666674,
      "d": 60.9756250000064,
      "v": 11
    },
    {
      "midi": 67,
      "hit": false,
      "t": 82439.04499999956,
      "d": 93.49595833332569,
      "v": 6
    },
    {
      "midi": 76,
      "hit": false,
      "t": 82439.04499999956,
      "d": 97.56099999998696,
      "v": 6
    },
    {
      "midi": 71,
      "hit": false,
      "t": 82439.04499999956,
      "d": 101.62604166664823,
      "v": 6
    },
    {
      "midi": 55,
      "hit": false,
      "t": 82439.04499999956,
      "d": 109.75612499998533,
      "v": 6
    },
    {
      "midi": 59,
      "hit": false,
      "t": 82439.04499999956,
      "d": 113.8211666666466,
      "v": 6
    },
    {
      "midi": 43,
      "hit": false,
      "t": 82439.04500000009,
      "d": 93.49595833332569,
      "v": 7
    },
    {
      "midi": 64,
      "hit": false,
      "t": 82455.30516666622,
      "d": 105.69108333332406,
      "v": 8
    },
    {
      "midi": 40,
      "hit": false,
      "t": 82520.34583333341,
      "d": 56.91058333333058,
      "v": 5
    },
    {
      "midi": 45,
      "hit": false,
      "t": 82682.94750000008,
      "d": 60.9756250000064,
      "v": 8
    },
    {
      "midi": 67,
      "hit": false,
      "t": 82764.24833333289,
      "d": 93.49595833332569,
      "v": 4
    },
    {
      "midi": 76,
      "hit": false,
      "t": 82764.24833333289,
      "d": 97.56099999998696,
      "v": 4
    },
    {
      "midi": 71,
      "hit": false,
      "t": 82764.24833333289,
      "d": 101.62604166664823,
      "v": 4
    },
    {
      "midi": 55,
      "hit": false,
      "t": 82764.24833333289,
      "d": 109.75612499998533,
      "v": 4
    },
    {
      "midi": 59,
      "hit": false,
      "t": 82764.24833333289,
      "d": 113.8211666666466,
      "v": 4
    },
    {
      "midi": 43,
      "hit": false,
      "t": 82764.24833333342,
      "d": 93.49595833332569,
      "v": 5
    },
    {
      "midi": 64,
      "hit": false,
      "t": 82780.50849999955,
      "d": 105.69108333332406,
      "v": 5
    },
    {
      "midi": 40,
      "hit": false,
      "t": 82845.54916666675,
      "d": 56.91058333333058,
      "v": 3
    },
    {
      "midi": 45,
      "hit": false,
      "t": 83008.15083333342,
      "d": 60.9756250000064,
      "v": 5
    },
    {
      "midi": 67,
      "hit": false,
      "t": 83089.45166666621,
      "d": 93.49595833332569,
      "v": 2
    },
    {
      "midi": 76,
      "hit": false,
      "t": 83089.45166666621,
      "d": 97.56099999998696,
      "v": 2
    },
    {
      "midi": 71,
      "hit": false,
      "t": 83089.45166666621,
      "d": 101.62604166664823,
      "v": 2
    },
    {
      "midi": 55,
      "hit": false,
      "t": 83089.45166666621,
      "d": 109.75612499998533,
      "v": 2
    },
    {
      "midi": 59,
      "hit": false,
      "t": 83089.45166666621,
      "d": 113.8211666666466,
      "v": 2
    },
    {
      "midi": 43,
      "hit": false,
      "t": 83089.45166666676,
      "d": 93.49595833332569,
      "v": 3
    },
    {
      "midi": 64,
      "hit": false,
      "t": 83105.71183333287,
      "d": 105.69108333332406,
      "v": 3
    },
    {
      "midi": 40,
      "hit": false,
      "t": 83170.75250000009,
      "d": 56.91058333333058,
      "v": 2
    },
    {
      "midi": 45,
      "hit": false,
      "t": 83333.35416666676,
      "d": 60.9756250000064,
      "v": 3
    },
    {
      "midi": 67,
      "hit": false,
      "t": 83414.65499999953,
      "d": 93.49595833332569,
      "v": 1
    },
    {
      "midi": 76,
      "hit": false,
      "t": 83414.65499999953,
      "d": 97.56099999998696,
      "v": 1
    },
    {
      "midi": 71,
      "hit": false,
      "t": 83414.65499999953,
      "d": 101.62604166664823,
      "v": 1
    },
    {
      "midi": 55,
      "hit": false,
      "t": 83414.65499999953,
      "d": 109.75612499998533,
      "v": 1
    },
    {
      "midi": 59,
      "hit": false,
      "t": 83414.65499999953,
      "d": 113.8211666666466,
      "v": 1
    },
    {
      "midi": 43,
      "hit": false,
      "t": 83414.6550000001,
      "d": 93.49595833332569,
      "v": 2
    },
    {
      "midi": 64,
      "hit": false,
      "t": 83430.9151666662,
      "d": 105.69108333332406,
      "v": 2
    },
    {
      "midi": 40,
      "hit": false,
      "t": 83495.95583333343,
      "d": 56.91058333333058,
      "v": 1
    },
    {
      "midi": 45,
      "hit": false,
      "t": 83658.5575000001,
      "d": 60.9756250000064,
      "v": 2
    },
    {
      "midi": 43,
      "hit": false,
      "t": 83739.85833333344,
      "d": 93.49595833334024,
      "v": 1
    },
    {
      "midi": 64,
      "hit": false,
      "t": 83756.11849999952,
      "d": 105.69108333333861,
      "v": 1
    },
    {
      "midi": 45,
      "hit": false,
      "t": 83983.76083333345,
      "d": 60.9756250000064,
      "v": 1
    },
    {
      "midi": 40,
      "hit": false,
      "t": 84146.36250000012,
      "d": 93.49595833334024,
      "v": 121
    },
    {
      "midi": 43,
      "hit": false,
      "t": 84390.26500000013,
      "d": 77.23579166666605,
      "v": 104
    },
    {
      "midi": 38,
      "hit": false,
      "t": 84634.16750000013,
      "d": 77.23579166666605,
      "v": 99
    },
    {
      "midi": 40,
      "hit": false,
      "t": 84878.07000000012,
      "d": 93.49595833334024,
      "v": 117
    },
    {
      "midi": 35,
      "hit": false,
      "t": 85121.97250000013,
      "d": 73.17075000000477,
      "v": 104
    },
    {
      "midi": 35,
      "hit": false,
      "t": 85609.77750000014,
      "d": 77.23579166666605,
      "v": 108
    },
    {
      "midi": 67,
      "hit": false,
      "t": 89268.31499999952,
      "d": 89.43091666666442,
      "v": 108
    },
    {
      "midi": 72,
      "hit": false,
      "t": 89268.31499999952,
      "d": 101.62604166666279,
      "v": 104
    },
    {
      "midi": 76,
      "hit": false,
      "t": 89268.31499999952,
      "d": 101.62604166666279,
      "v": 102
    },
    {
      "midi": 55,
      "hit": false,
      "t": 89280.51012499952,
      "d": 97.56100000000151,
      "v": 85
    },
    {
      "midi": 64,
      "hit": false,
      "t": 89280.51012499952,
      "d": 105.69108333333861,
      "v": 99
    },
    {
      "midi": 60,
      "hit": false,
      "t": 89280.51012499952,
      "d": 113.82116666667571,
      "v": 99
    },
    {
      "midi": 67,
      "hit": false,
      "t": 89593.51833333286,
      "d": 89.43091666666442,
      "v": 105
    },
    {
      "midi": 72,
      "hit": false,
      "t": 89593.51833333286,
      "d": 101.62604166666279,
      "v": 101
    },
    {
      "midi": 76,
      "hit": false,
      "t": 89593.51833333286,
      "d": 101.62604166666279,
      "v": 99
    },
    {
      "midi": 55,
      "hit": false,
      "t": 89605.71345833286,
      "d": 97.56100000000151,
      "v": 83
    },
    {
      "midi": 64,
      "hit": false,
      "t": 89605.71345833286,
      "d": 105.69108333333861,
      "v": 97
    },
    {
      "midi": 60,
      "hit": false,
      "t": 89605.71345833286,
      "d": 113.82116666667571,
      "v": 97
    },
    {
      "midi": 67,
      "hit": false,
      "t": 89918.7216666662,
      "d": 89.43091666666442,
      "v": 100
    },
    {
      "midi": 72,
      "hit": false,
      "t": 89918.7216666662,
      "d": 101.62604166666279,
      "v": 97
    },
    {
      "midi": 76,
      "hit": false,
      "t": 89918.7216666662,
      "d": 101.62604166666279,
      "v": 95
    },
    {
      "midi": 55,
      "hit": false,
      "t": 89930.9167916662,
      "d": 97.56100000000151,
      "v": 79
    },
    {
      "midi": 64,
      "hit": false,
      "t": 89930.9167916662,
      "d": 105.69108333333861,
      "v": 93
    },
    {
      "midi": 60,
      "hit": false,
      "t": 89930.9167916662,
      "d": 113.82116666667571,
      "v": 93
    },
    {
      "midi": 67,
      "hit": false,
      "t": 90243.92499999954,
      "d": 89.43091666666442,
      "v": 94
    },
    {
      "midi": 72,
      "hit": false,
      "t": 90243.92499999954,
      "d": 101.62604166666279,
      "v": 91
    },
    {
      "midi": 76,
      "hit": false,
      "t": 90243.92499999954,
      "d": 101.62604166666279,
      "v": 89
    },
    {
      "midi": 55,
      "hit": false,
      "t": 90256.12012499954,
      "d": 97.56100000000151,
      "v": 74
    },
    {
      "midi": 64,
      "hit": false,
      "t": 90256.12012499954,
      "d": 105.69108333333861,
      "v": 87
    },
    {
      "midi": 60,
      "hit": false,
      "t": 90256.12012499954,
      "d": 113.82116666667571,
      "v": 87
    },
    {
      "midi": 67,
      "hit": false,
      "t": 90569.12833333288,
      "d": 89.43091666666442,
      "v": 86
    },
    {
      "midi": 72,
      "hit": false,
      "t": 90569.12833333288,
      "d": 101.62604166666279,
      "v": 83
    },
    {
      "midi": 76,
      "hit": false,
      "t": 90569.12833333288,
      "d": 101.62604166666279,
      "v": 82
    },
    {
      "midi": 55,
      "hit": false,
      "t": 90581.32345833287,
      "d": 97.56100000000151,
      "v": 68
    },
    {
      "midi": 64,
      "hit": false,
      "t": 90581.32345833287,
      "d": 105.69108333333861,
      "v": 80
    },
    {
      "midi": 60,
      "hit": false,
      "t": 90581.32345833287,
      "d": 113.82116666667571,
      "v": 80
    },
    {
      "midi": 67,
      "hit": false,
      "t": 90894.33166666621,
      "d": 89.43091666666442,
      "v": 77
    },
    {
      "midi": 72,
      "hit": false,
      "t": 90894.33166666621,
      "d": 101.62604166666279,
      "v": 75
    },
    {
      "midi": 76,
      "hit": false,
      "t": 90894.33166666621,
      "d": 101.62604166666279,
      "v": 74
    },
    {
      "midi": 55,
      "hit": false,
      "t": 90906.52679166621,
      "d": 97.56100000000151,
      "v": 61
    },
    {
      "midi": 64,
      "hit": false,
      "t": 90906.52679166621,
      "d": 105.69108333333861,
      "v": 72
    },
    {
      "midi": 60,
      "hit": false,
      "t": 90906.52679166621,
      "d": 113.82116666667571,
      "v": 72
    },
    {
      "midi": 67,
      "hit": false,
      "t": 91219.53499999955,
      "d": 89.43091666666442,
      "v": 68
    },
    {
      "midi": 72,
      "hit": false,
      "t": 91219.53499999955,
      "d": 101.62604166666279,
      "v": 66
    },
    {
      "midi": 76,
      "hit": false,
      "t": 91219.53499999955,
      "d": 101.62604166666279,
      "v": 65
    },
    {
      "midi": 55,
      "hit": false,
      "t": 91231.73012499955,
      "d": 97.56100000000151,
      "v": 54
    },
    {
      "midi": 64,
      "hit": false,
      "t": 91231.73012499955,
      "d": 105.69108333333861,
      "v": 63
    },
    {
      "midi": 60,
      "hit": false,
      "t": 91231.73012499955,
      "d": 113.82116666667571,
      "v": 63
    },
    {
      "midi": 67,
      "hit": false,
      "t": 91544.73833333289,
      "d": 89.43091666666442,
      "v": 59
    },
    {
      "midi": 72,
      "hit": false,
      "t": 91544.73833333289,
      "d": 101.62604166666279,
      "v": 57
    },
    {
      "midi": 76,
      "hit": false,
      "t": 91544.73833333289,
      "d": 101.62604166666279,
      "v": 56
    },
    {
      "midi": 55,
      "hit": false,
      "t": 91556.93345833289,
      "d": 97.56100000000151,
      "v": 46
    },
    {
      "midi": 64,
      "hit": false,
      "t": 91556.93345833289,
      "d": 105.69108333333861,
      "v": 54
    },
    {
      "midi": 60,
      "hit": false,
      "t": 91556.93345833289,
      "d": 113.82116666667571,
      "v": 54
    },
    {
      "midi": 67,
      "hit": false,
      "t": 91869.94166666623,
      "d": 89.43091666666442,
      "v": 50
    },
    {
      "midi": 72,
      "hit": false,
      "t": 91869.94166666623,
      "d": 101.62604166666279,
      "v": 48
    },
    {
      "midi": 76,
      "hit": false,
      "t": 91869.94166666623,
      "d": 101.62604166666279,
      "v": 47
    },
    {
      "midi": 55,
      "hit": false,
      "t": 91882.13679166623,
      "d": 97.56100000000151,
      "v": 39
    },
    {
      "midi": 64,
      "hit": false,
      "t": 91882.13679166623,
      "d": 105.69108333333861,
      "v": 45
    },
    {
      "midi": 60,
      "hit": false,
      "t": 91882.13679166623,
      "d": 113.82116666667571,
      "v": 45
    },
    {
      "midi": 67,
      "hit": false,
      "t": 92195.14499999957,
      "d": 89.43091666666442,
      "v": 41
    },
    {
      "midi": 72,
      "hit": false,
      "t": 92195.14499999957,
      "d": 101.62604166666279,
      "v": 40
    },
    {
      "midi": 76,
      "hit": false,
      "t": 92195.14499999957,
      "d": 101.62604166666279,
      "v": 39
    },
    {
      "midi": 55,
      "hit": false,
      "t": 92207.34012499957,
      "d": 97.56100000000151,
      "v": 32
    },
    {
      "midi": 64,
      "hit": false,
      "t": 92207.34012499957,
      "d": 105.69108333333861,
      "v": 37
    },
    {
      "midi": 60,
      "hit": false,
      "t": 92207.34012499957,
      "d": 113.82116666667571,
      "v": 37
    },
    {
      "midi": 67,
      "hit": false,
      "t": 92520.3483333329,
      "d": 89.43091666666442,
      "v": 33
    },
    {
      "midi": 72,
      "hit": false,
      "t": 92520.3483333329,
      "d": 101.62604166666279,
      "v": 32
    },
    {
      "midi": 76,
      "hit": false,
      "t": 92520.3483333329,
      "d": 101.62604166666279,
      "v": 31
    },
    {
      "midi": 55,
      "hit": false,
      "t": 92532.5434583329,
      "d": 97.56100000000151,
      "v": 26
    },
    {
      "midi": 64,
      "hit": false,
      "t": 92532.5434583329,
      "d": 105.69108333333861,
      "v": 30
    },
    {
      "midi": 60,
      "hit": false,
      "t": 92532.5434583329,
      "d": 113.82116666667571,
      "v": 30
    },
    {
      "midi": 67,
      "hit": false,
      "t": 92845.55166666624,
      "d": 89.43091666666442,
      "v": 26
    },
    {
      "midi": 72,
      "hit": false,
      "t": 92845.55166666624,
      "d": 101.62604166666279,
      "v": 25
    },
    {
      "midi": 76,
      "hit": false,
      "t": 92845.55166666624,
      "d": 101.62604166666279,
      "v": 24
    },
    {
      "midi": 55,
      "hit": false,
      "t": 92857.74679166624,
      "d": 97.56100000000151,
      "v": 20
    },
    {
      "midi": 64,
      "hit": false,
      "t": 92857.74679166624,
      "d": 105.69108333333861,
      "v": 24
    },
    {
      "midi": 60,
      "hit": false,
      "t": 92857.74679166624,
      "d": 113.82116666667571,
      "v": 24
    },
    {
      "midi": 67,
      "hit": false,
      "t": 93170.75499999958,
      "d": 89.43091666666442,
      "v": 20
    },
    {
      "midi": 72,
      "hit": false,
      "t": 93170.75499999958,
      "d": 101.62604166666279,
      "v": 19
    },
    {
      "midi": 76,
      "hit": false,
      "t": 93170.75499999958,
      "d": 101.62604166666279,
      "v": 18
    },
    {
      "midi": 55,
      "hit": false,
      "t": 93182.95012499958,
      "d": 97.56100000000151,
      "v": 15
    },
    {
      "midi": 64,
      "hit": false,
      "t": 93182.95012499958,
      "d": 105.69108333333861,
      "v": 18
    },
    {
      "midi": 60,
      "hit": false,
      "t": 93182.95012499958,
      "d": 113.82116666667571,
      "v": 18
    },
    {
      "midi": 67,
      "hit": false,
      "t": 93495.95833333292,
      "d": 89.43091666666442,
      "v": 15
    },
    {
      "midi": 72,
      "hit": false,
      "t": 93495.95833333292,
      "d": 101.62604166666279,
      "v": 14
    },
    {
      "midi": 76,
      "hit": false,
      "t": 93495.95833333292,
      "d": 101.62604166666279,
      "v": 13
    },
    {
      "midi": 55,
      "hit": false,
      "t": 93508.15345833292,
      "d": 97.56100000000151,
      "v": 11
    },
    {
      "midi": 64,
      "hit": false,
      "t": 93508.15345833292,
      "d": 105.69108333333861,
      "v": 13
    },
    {
      "midi": 60,
      "hit": false,
      "t": 93508.15345833292,
      "d": 113.82116666667571,
      "v": 13
    },
    {
      "midi": 67,
      "hit": false,
      "t": 93821.16166666626,
      "d": 89.43091666666442,
      "v": 11
    },
    {
      "midi": 72,
      "hit": false,
      "t": 93821.16166666626,
      "d": 101.62604166666279,
      "v": 10
    },
    {
      "midi": 76,
      "hit": false,
      "t": 93821.16166666626,
      "d": 101.62604166666279,
      "v": 9
    },
    {
      "midi": 55,
      "hit": false,
      "t": 93833.35679166626,
      "d": 97.56100000000151,
      "v": 8
    },
    {
      "midi": 64,
      "hit": false,
      "t": 93833.35679166626,
      "d": 105.69108333333861,
      "v": 9
    },
    {
      "midi": 60,
      "hit": false,
      "t": 93833.35679166626,
      "d": 113.82116666667571,
      "v": 9
    },
    {
      "midi": 67,
      "hit": false,
      "t": 94146.3649999996,
      "d": 89.43091666666442,
      "v": 8
    },
    {
      "midi": 72,
      "hit": false,
      "t": 94146.3649999996,
      "d": 101.62604166666279,
      "v": 7
    },
    {
      "midi": 76,
      "hit": false,
      "t": 94146.3649999996,
      "d": 101.62604166666279,
      "v": 6
    },
    {
      "midi": 55,
      "hit": false,
      "t": 94158.5601249996,
      "d": 97.56100000000151,
      "v": 5
    },
    {
      "midi": 64,
      "hit": false,
      "t": 94158.5601249996,
      "d": 105.69108333333861,
      "v": 6
    },
    {
      "midi": 60,
      "hit": false,
      "t": 94158.5601249996,
      "d": 113.82116666667571,
      "v": 6
    },
    {
      "midi": 67,
      "hit": false,
      "t": 94471.56833333294,
      "d": 89.43091666666442,
      "v": 5
    },
    {
      "midi": 72,
      "hit": false,
      "t": 94471.56833333294,
      "d": 101.62604166666279,
      "v": 5
    },
    {
      "midi": 76,
      "hit": false,
      "t": 94471.56833333294,
      "d": 101.62604166666279,
      "v": 4
    },
    {
      "midi": 55,
      "hit": false,
      "t": 94483.76345833293,
      "d": 97.56100000000151,
      "v": 3
    },
    {
      "midi": 64,
      "hit": false,
      "t": 94483.76345833293,
      "d": 105.69108333333861,
      "v": 4
    },
    {
      "midi": 60,
      "hit": false,
      "t": 94483.76345833293,
      "d": 113.82116666667571,
      "v": 4
    },
    {
      "midi": 67,
      "hit": false,
      "t": 94796.77166666627,
      "d": 89.43091666666442,
      "v": 3
    },
    {
      "midi": 72,
      "hit": false,
      "t": 94796.77166666627,
      "d": 101.62604166666279,
      "v": 3
    },
    {
      "midi": 76,
      "hit": false,
      "t": 94796.77166666627,
      "d": 101.62604166666279,
      "v": 2
    },
    {
      "midi": 55,
      "hit": false,
      "t": 94808.96679166627,
      "d": 97.56100000000151,
      "v": 2
    },
    {
      "midi": 64,
      "hit": false,
      "t": 94808.96679166627,
      "d": 105.69108333333861,
      "v": 2
    },
    {
      "midi": 60,
      "hit": false,
      "t": 94808.96679166627,
      "d": 113.82116666667571,
      "v": 2
    },
    {
      "midi": 67,
      "hit": false,
      "t": 95121.97499999961,
      "d": 89.43091666666442,
      "v": 2
    },
    {
      "midi": 72,
      "hit": false,
      "t": 95121.97499999961,
      "d": 101.62604166666279,
      "v": 2
    },
    {
      "midi": 76,
      "hit": false,
      "t": 95121.97499999961,
      "d": 101.62604166666279,
      "v": 1
    },
    {
      "midi": 55,
      "hit": false,
      "t": 95134.17012499961,
      "d": 97.56100000000151,
      "v": 1
    },
    {
      "midi": 64,
      "hit": false,
      "t": 95134.17012499961,
      "d": 105.69108333333861,
      "v": 1
    },
    {
      "midi": 60,
      "hit": false,
      "t": 95134.17012499961,
      "d": 113.82116666667571,
      "v": 1
    },
    {
      "midi": 67,
      "hit": false,
      "t": 95447.17833333295,
      "d": 89.43091666666442,
      "v": 1
    },
    {
      "midi": 72,
      "hit": false,
      "t": 95447.17833333295,
      "d": 101.62604166666279,
      "v": 1
    },
    {
      "midi": 43,
      "hit": false,
      "t": 117073.20000000014,
      "d": 109.75612499999988,
      "v": 106
    },
    {
      "midi": 45,
      "hit": false,
      "t": 117195.15125000014,
      "d": 97.56100000000151,
      "v": 101
    },
    {
      "midi": 72,
      "hit": false,
      "t": 117561.00499999961,
      "d": 85.36587500000314,
      "v": 104
    },
    {
      "midi": 76,
      "hit": false,
      "t": 117561.00499999961,
      "d": 85.36587500000314,
      "v": 100
    },
    {
      "midi": 69,
      "hit": false,
      "t": 117561.00499999961,
      "d": 89.43091666666442,
      "v": 105
    },
    {
      "midi": 64,
      "hit": false,
      "t": 117561.00499999961,
      "d": 93.49595833332569,
      "v": 105
    },
    {
      "midi": 60,
      "hit": false,
      "t": 117561.00499999961,
      "d": 101.62604166666279,
      "v": 106
    },
    {
      "midi": 57,
      "hit": false,
      "t": 117561.00499999961,
      "d": 109.75612499999988,
      "v": 95
    },
    {
      "midi": 45,
      "hit": false,
      "t": 117561.00500000014,
      "d": 81.30083333332732,
      "v": 110
    },
    {
      "midi": 43,
      "hit": false,
      "t": 117561.00500000014,
      "d": 109.75612499999988,
      "v": 103
    },
    {
      "midi": 45,
      "hit": false,
      "t": 117682.95625000013,
      "d": 97.56100000000151,
      "v": 98
    },
    {
      "midi": 72,
      "hit": false,
      "t": 118048.8099999996,
      "d": 85.36587500000314,
      "v": 101
    },
    {
      "midi": 76,
      "hit": false,
      "t": 118048.8099999996,
      "d": 85.36587500000314,
      "v": 97
    },
    {
      "midi": 69,
      "hit": false,
      "t": 118048.8099999996,
      "d": 89.43091666666442,
      "v": 102
    },
    {
      "midi": 64,
      "hit": false,
      "t": 118048.8099999996,
      "d": 93.49595833332569,
      "v": 102
    },
    {
      "midi": 60,
      "hit": false,
      "t": 118048.8099999996,
      "d": 101.62604166666279,
      "v": 103
    },
    {
      "midi": 57,
      "hit": false,
      "t": 118048.8099999996,
      "d": 109.75612499999988,
      "v": 93
    },
    {
      "midi": 45,
      "hit": false,
      "t": 118048.81000000013,
      "d": 81.30083333332732,
      "v": 107
    },
    {
      "midi": 43,
      "hit": false,
      "t": 118048.81000000013,
      "d": 109.75612499999988,
      "v": 98
    },
    {
      "midi": 45,
      "hit": false,
      "t": 118170.76125000013,
      "d": 97.56100000000151,
      "v": 94
    },
    {
      "midi": 72,
      "hit": false,
      "t": 118536.6149999996,
      "d": 85.36587500000314,
      "v": 97
    },
    {
      "midi": 76,
      "hit": false,
      "t": 118536.6149999996,
      "d": 85.36587500000314,
      "v": 93
    },
    {
      "midi": 69,
      "hit": false,
      "t": 118536.6149999996,
      "d": 89.43091666666442,
      "v": 97
    },
    {
      "midi": 64,
      "hit": false,
      "t": 118536.6149999996,
      "d": 93.49595833332569,
      "v": 97
    },
    {
      "midi": 60,
      "hit": false,
      "t": 118536.6149999996,
      "d": 101.62604166666279,
      "v": 98
    },
    {
      "midi": 57,
      "hit": false,
      "t": 118536.6149999996,
      "d": 109.75612499999988,
      "v": 89
    },
    {
      "midi": 45,
      "hit": false,
      "t": 118536.61500000012,
      "d": 81.30083333332732,
      "v": 102
    },
    {
      "midi": 43,
      "hit": false,
      "t": 118536.61500000012,
      "d": 109.75612499999988,
      "v": 92
    },
    {
      "midi": 45,
      "hit": false,
      "t": 118658.56625000012,
      "d": 97.56100000000151,
      "v": 88
    },
    {
      "midi": 72,
      "hit": false,
      "t": 119024.41999999959,
      "d": 85.36587500000314,
      "v": 91
    },
    {
      "midi": 76,
      "hit": false,
      "t": 119024.41999999959,
      "d": 85.36587500000314,
      "v": 87
    },
    {
      "midi": 69,
      "hit": false,
      "t": 119024.41999999959,
      "d": 89.43091666666442,
      "v": 91
    },
    {
      "midi": 64,
      "hit": false,
      "t": 119024.41999999959,
      "d": 93.49595833332569,
      "v": 91
    },
    {
      "midi": 60,
      "hit": false,
      "t": 119024.41999999959,
      "d": 101.62604166666279,
      "v": 92
    },
    {
      "midi": 57,
      "hit": false,
      "t": 119024.41999999959,
      "d": 109.75612499999988,
      "v": 83
    },
    {
      "midi": 45,
      "hit": false,
      "t": 119024.42000000011,
      "d": 81.30083333332732,
      "v": 96
    },
    {
      "midi": 43,
      "hit": false,
      "t": 119024.42000000011,
      "d": 109.75612499999988,
      "v": 84
    },
    {
      "midi": 45,
      "hit": false,
      "t": 119146.37125000011,
      "d": 97.56100000000151,
      "v": 81
    },
    {
      "midi": 72,
      "hit": false,
      "t": 119512.22499999958,
      "d": 85.36587500000314,
      "v": 83
    },
    {
      "midi": 76,
      "hit": false,
      "t": 119512.22499999958,
      "d": 85.36587500000314,
      "v": 80
    },
    {
      "midi": 69,
      "hit": false,
      "t": 119512.22499999958,
      "d": 89.43091666666442,
      "v": 83
    },
    {
      "midi": 64,
      "hit": false,
      "t": 119512.22499999958,
      "d": 93.49595833332569,
      "v": 83
    },
    {
      "midi": 60,
      "hit": false,
      "t": 119512.22499999958,
      "d": 101.62604166666279,
      "v": 84
    },
    {
      "midi": 57,
      "hit": false,
      "t": 119512.22499999958,
      "d": 109.75612499999988,
      "v": 76
    },
    {
      "midi": 45,
      "hit": false,
      "t": 119512.22500000011,
      "d": 81.30083333332732,
      "v": 88
    },
    {
      "midi": 43,
      "hit": false,
      "t": 119512.22500000011,
      "d": 109.75612499999988,
      "v": 75
    },
    {
      "midi": 45,
      "hit": false,
      "t": 119634.1762500001,
      "d": 97.56100000000151,
      "v": 73
    },
    {
      "midi": 72,
      "hit": false,
      "t": 120000.02999999958,
      "d": 85.36587500000314,
      "v": 75
    },
    {
      "midi": 76,
      "hit": false,
      "t": 120000.02999999958,
      "d": 85.36587500000314,
      "v": 72
    },
    {
      "midi": 69,
      "hit": false,
      "t": 120000.02999999958,
      "d": 89.43091666666442,
      "v": 75
    },
    {
      "midi": 64,
      "hit": false,
      "t": 120000.02999999958,
      "d": 93.49595833332569,
      "v": 75
    },
    {
      "midi": 60,
      "hit": false,
      "t": 120000.02999999958,
      "d": 101.62604166666279,
      "v": 75
    },
    {
      "midi": 57,
      "hit": false,
      "t": 120000.02999999958,
      "d": 109.75612499999988,
      "v": 68
    },
    {
      "midi": 45,
      "hit": false,
      "t": 120000.0300000001,
      "d": 81.30083333332732,
      "v": 79
    },
    {
      "midi": 43,
      "hit": false,
      "t": 120000.0300000001,
      "d": 109.75612499999988,
      "v": 66
    },
    {
      "midi": 45,
      "hit": false,
      "t": 120121.9812500001,
      "d": 97.56100000000151,
      "v": 64
    },
    {
      "midi": 72,
      "hit": false,
      "t": 120487.83499999957,
      "d": 85.36587500000314,
      "v": 66
    },
    {
      "midi": 76,
      "hit": false,
      "t": 120487.83499999957,
      "d": 85.36587500000314,
      "v": 63
    },
    {
      "midi": 69,
      "hit": false,
      "t": 120487.83499999957,
      "d": 89.43091666666442,
      "v": 66
    },
    {
      "midi": 64,
      "hit": false,
      "t": 120487.83499999957,
      "d": 93.49595833332569,
      "v": 66
    },
    {
      "midi": 60,
      "hit": false,
      "t": 120487.83499999957,
      "d": 101.62604166666279,
      "v": 66
    },
    {
      "midi": 57,
      "hit": false,
      "t": 120487.83499999957,
      "d": 109.75612499999988,
      "v": 60
    },
    {
      "midi": 45,
      "hit": false,
      "t": 120487.8350000001,
      "d": 81.30083333332732,
      "v": 69
    },
    {
      "midi": 43,
      "hit": false,
      "t": 120487.8350000001,
      "d": 109.75612499999988,
      "v": 57
    },
    {
      "midi": 45,
      "hit": false,
      "t": 120609.78625000009,
      "d": 97.56100000000151,
      "v": 55
    },
    {
      "midi": 72,
      "hit": false,
      "t": 120975.63999999956,
      "d": 85.36587500000314,
      "v": 57
    },
    {
      "midi": 76,
      "hit": false,
      "t": 120975.63999999956,
      "d": 85.36587500000314,
      "v": 54
    },
    {
      "midi": 69,
      "hit": false,
      "t": 120975.63999999956,
      "d": 89.43091666666442,
      "v": 57
    },
    {
      "midi": 64,
      "hit": false,
      "t": 120975.63999999956,
      "d": 93.49595833332569,
      "v": 57
    },
    {
      "midi": 60,
      "hit": false,
      "t": 120975.63999999956,
      "d": 101.62604166666279,
      "v": 57
    },
    {
      "midi": 57,
      "hit": false,
      "t": 120975.63999999956,
      "d": 109.75612499999988,
      "v": 52
    },
    {
      "midi": 45,
      "hit": false,
      "t": 120975.64000000009,
      "d": 81.30083333332732,
      "v": 59
    },
    {
      "midi": 43,
      "hit": false,
      "t": 120975.64000000009,
      "d": 109.75612499999988,
      "v": 48
    },
    {
      "midi": 45,
      "hit": false,
      "t": 121097.59125000008,
      "d": 97.56100000000151,
      "v": 46
    },
    {
      "midi": 72,
      "hit": false,
      "t": 121463.44499999956,
      "d": 85.36587500000314,
      "v": 48
    },
    {
      "midi": 76,
      "hit": false,
      "t": 121463.44499999956,
      "d": 85.36587500000314,
      "v": 45
    },
    {
      "midi": 69,
      "hit": false,
      "t": 121463.44499999956,
      "d": 89.43091666666442,
      "v": 48
    },
    {
      "midi": 64,
      "hit": false,
      "t": 121463.44499999956,
      "d": 93.49595833332569,
      "v": 48
    },
    {
      "midi": 60,
      "hit": false,
      "t": 121463.44499999956,
      "d": 101.62604166666279,
      "v": 48
    },
    {
      "midi": 57,
      "hit": false,
      "t": 121463.44499999956,
      "d": 109.75612499999988,
      "v": 44
    },
    {
      "midi": 45,
      "hit": false,
      "t": 121463.44500000008,
      "d": 81.30083333332732,
      "v": 50
    },
    {
      "midi": 43,
      "hit": false,
      "t": 121463.44500000008,
      "d": 109.75612499999988,
      "v": 40
    },
    {
      "midi": 45,
      "hit": false,
      "t": 121585.39625000008,
      "d": 97.56100000000151,
      "v": 38
    },
    {
      "midi": 72,
      "hit": false,
      "t": 121951.24999999955,
      "d": 85.36587500000314,
      "v": 40
    },
    {
      "midi": 76,
      "hit": false,
      "t": 121951.24999999955,
      "d": 85.36587500000314,
      "v": 37
    },
    {
      "midi": 69,
      "hit": false,
      "t": 121951.24999999955,
      "d": 89.43091666666442,
      "v": 40
    },
    {
      "midi": 64,
      "hit": false,
      "t": 121951.24999999955,
      "d": 93.49595833332569,
      "v": 40
    },
    {
      "midi": 60,
      "hit": false,
      "t": 121951.24999999955,
      "d": 101.62604166666279,
      "v": 40
    },
    {
      "midi": 57,
      "hit": false,
      "t": 121951.24999999955,
      "d": 109.75612499999988,
      "v": 36
    },
    {
      "midi": 45,
      "hit": false,
      "t": 121951.25000000007,
      "d": 81.30083333332732,
      "v": 41
    },
    {
      "midi": 43,
      "hit": false,
      "t": 121951.25000000007,
      "d": 109.75612499999988,
      "v": 32
    },
    {
      "midi": 45,
      "hit": false,
      "t": 122073.20125000007,
      "d": 97.56100000000151,
      "v": 31
    },
    {
      "midi": 72,
      "hit": false,
      "t": 122439.05499999954,
      "d": 85.36587500000314,
      "v": 32
    },
    {
      "midi": 76,
      "hit": false,
      "t": 122439.05499999954,
      "d": 85.36587500000314,
      "v": 30
    },
    {
      "midi": 69,
      "hit": false,
      "t": 122439.05499999954,
      "d": 89.43091666666442,
      "v": 32
    },
    {
      "midi": 64,
      "hit": false,
      "t": 122439.05499999954,
      "d": 93.49595833332569,
      "v": 32
    },
    {
      "midi": 60,
      "hit": false,
      "t": 122439.05499999954,
      "d": 101.62604166666279,
      "v": 32
    },
    {
      "midi": 57,
      "hit": false,
      "t": 122439.05499999954,
      "d": 109.75612499999988,
      "v": 29
    },
    {
      "midi": 45,
      "hit": false,
      "t": 122439.05500000007,
      "d": 81.30083333332732,
      "v": 33
    },
    {
      "midi": 43,
      "hit": false,
      "t": 122439.05500000007,
      "d": 109.75612499999988,
      "v": 25
    },
    {
      "midi": 45,
      "hit": false,
      "t": 122561.00625000006,
      "d": 97.56100000000151,
      "v": 24
    },
    {
      "midi": 72,
      "hit": false,
      "t": 122926.85999999953,
      "d": 85.36587500000314,
      "v": 25
    },
    {
      "midi": 76,
      "hit": false,
      "t": 122926.85999999953,
      "d": 85.36587500000314,
      "v": 24
    },
    {
      "midi": 69,
      "hit": false,
      "t": 122926.85999999953,
      "d": 89.43091666666442,
      "v": 25
    },
    {
      "midi": 64,
      "hit": false,
      "t": 122926.85999999953,
      "d": 93.49595833332569,
      "v": 25
    },
    {
      "midi": 60,
      "hit": false,
      "t": 122926.85999999953,
      "d": 101.62604166666279,
      "v": 25
    },
    {
      "midi": 57,
      "hit": false,
      "t": 122926.85999999953,
      "d": 109.75612499999988,
      "v": 23
    },
    {
      "midi": 45,
      "hit": false,
      "t": 122926.86000000006,
      "d": 81.30083333332732,
      "v": 26
    },
    {
      "midi": 43,
      "hit": false,
      "t": 122926.86000000006,
      "d": 109.75612499999988,
      "v": 19
    },
    {
      "midi": 45,
      "hit": false,
      "t": 123048.81125000006,
      "d": 97.56100000000151,
      "v": 18
    },
    {
      "midi": 72,
      "hit": false,
      "t": 123414.66499999953,
      "d": 85.36587500000314,
      "v": 19
    },
    {
      "midi": 76,
      "hit": false,
      "t": 123414.66499999953,
      "d": 85.36587500000314,
      "v": 18
    },
    {
      "midi": 69,
      "hit": false,
      "t": 123414.66499999953,
      "d": 89.43091666666442,
      "v": 19
    },
    {
      "midi": 64,
      "hit": false,
      "t": 123414.66499999953,
      "d": 93.49595833332569,
      "v": 19
    },
    {
      "midi": 60,
      "hit": false,
      "t": 123414.66499999953,
      "d": 101.62604166666279,
      "v": 19
    },
    {
      "midi": 57,
      "hit": false,
      "t": 123414.66499999953,
      "d": 109.75612499999988,
      "v": 18
    },
    {
      "midi": 45,
      "hit": false,
      "t": 123414.66500000005,
      "d": 81.30083333332732,
      "v": 20
    },
    {
      "midi": 43,
      "hit": false,
      "t": 123414.66500000005,
      "d": 109.75612499999988,
      "v": 14
    },
    {
      "midi": 45,
      "hit": false,
      "t": 123536.61625000005,
      "d": 97.56100000000151,
      "v": 13
    },
    {
      "midi": 72,
      "hit": false,
      "t": 123902.46999999952,
      "d": 85.36587500000314,
      "v": 14
    },
    {
      "midi": 76,
      "hit": false,
      "t": 123902.46999999952,
      "d": 85.36587500000314,
      "v": 13
    },
    {
      "midi": 69,
      "hit": false,
      "t": 123902.46999999952,
      "d": 89.43091666666442,
      "v": 14
    },
    {
      "midi": 64,
      "hit": false,
      "t": 123902.46999999952,
      "d": 93.49595833332569,
      "v": 14
    },
    {
      "midi": 60,
      "hit": false,
      "t": 123902.46999999952,
      "d": 101.62604166666279,
      "v": 14
    },
    {
      "midi": 57,
      "hit": false,
      "t": 123902.46999999952,
      "d": 109.75612499999988,
      "v": 13
    },
    {
      "midi": 45,
      "hit": false,
      "t": 123902.47000000004,
      "d": 81.30083333332732,
      "v": 15
    },
    {
      "midi": 43,
      "hit": false,
      "t": 123902.47000000004,
      "d": 109.75612499999988,
      "v": 10
    },
    {
      "midi": 45,
      "hit": false,
      "t": 124024.42125000004,
      "d": 97.56100000000151,
      "v": 9
    },
    {
      "midi": 72,
      "hit": false,
      "t": 124390.27499999951,
      "d": 85.36587500000314,
      "v": 10
    },
    {
      "midi": 76,
      "hit": false,
      "t": 124390.27499999951,
      "d": 85.36587500000314,
      "v": 9
    },
    {
      "midi": 69,
      "hit": false,
      "t": 124390.27499999951,
      "d": 89.43091666666442,
      "v": 10
    },
    {
      "midi": 64,
      "hit": false,
      "t": 124390.27499999951,
      "d": 93.49595833332569,
      "v": 10
    },
    {
      "midi": 60,
      "hit": false,
      "t": 124390.27499999951,
      "d": 101.62604166666279,
      "v": 10
    },
    {
      "midi": 57,
      "hit": false,
      "t": 124390.27499999951,
      "d": 109.75612499999988,
      "v": 9
    },
    {
      "midi": 45,
      "hit": false,
      "t": 124390.27500000004,
      "d": 81.30083333332732,
      "v": 11
    },
    {
      "midi": 43,
      "hit": false,
      "t": 124390.27500000004,
      "d": 109.75612499999988,
      "v": 7
    },
    {
      "midi": 45,
      "hit": false,
      "t": 124512.22625000004,
      "d": 97.56100000000151,
      "v": 6
    },
    {
      "midi": 43,
      "hit": false,
      "t": 179512.24000000005,
      "d": 109.75612500001444,
      "v": 106
    },
    {
      "midi": 45,
      "hit": false,
      "t": 179634.19125000006,
      "d": 97.56099999998696,
      "v": 101
    },
    {
      "midi": 43,
      "hit": false,
      "t": 179837.4433333334,
      "d": 109.75612500001444,
      "v": 104
    },
    {
      "midi": 45,
      "hit": false,
      "t": 180000.04500000007,
      "d": 56.91058333334513,
      "v": 110
    },
    {
      "midi": 43,
      "hit": false,
      "t": 180162.64666666675,
      "d": 109.75612500001444,
      "v": 101
    },
    {
      "midi": 45,
      "hit": false,
      "t": 180325.24833333344,
      "d": 56.91058333334513,
      "v": 108
    },
    {
      "midi": 43,
      "hit": false,
      "t": 180487.85000000012,
      "d": 109.75612500001444,
      "v": 98
    },
    {
      "midi": 45,
      "hit": false,
      "t": 180650.4516666668,
      "d": 56.91058333334513,
      "v": 105
    },
    {
      "midi": 43,
      "hit": false,
      "t": 180813.0533333335,
      "d": 109.75612500001444,
      "v": 94
    },
    {
      "midi": 45,
      "hit": false,
      "t": 180975.65500000017,
      "d": 56.91058333334513,
      "v": 101
    },
    {
      "midi": 43,
      "hit": false,
      "t": 181138.25666666686,
      "d": 109.75612500001444,
      "v": 89
    },
    {
      "midi": 45,
      "hit": false,
      "t": 181300.85833333354,
      "d": 56.91058333334513,
      "v": 97
    },
    {
      "midi": 43,
      "hit": false,
      "t": 181463.46000000022,
      "d": 109.75612500001444,
      "v": 83
    },
    {
      "midi": 45,
      "hit": false,
      "t": 181626.0616666669,
      "d": 56.91058333334513,
      "v": 92
    },
    {
      "midi": 43,
      "hit": false,
      "t": 181788.6633333336,
      "d": 109.75612500001444,
      "v": 77
    },
    {
      "midi": 45,
      "hit": false,
      "t": 181951.26500000028,
      "d": 56.91058333334513,
      "v": 86
    },
    {
      "midi": 43,
      "hit": false,
      "t": 182113.86666666696,
      "d": 109.75612500001444,
      "v": 71
    },
    {
      "midi": 45,
      "hit": false,
      "t": 182276.46833333364,
      "d": 56.91058333334513,
      "v": 80
    },
    {
      "midi": 43,
      "hit": false,
      "t": 182439.07000000033,
      "d": 109.75612500001444,
      "v": 64
    },
    {
      "midi": 45,
      "hit": false,
      "t": 182601.671666667,
      "d": 56.91058333334513,
      "v": 73
    },
    {
      "midi": 43,
      "hit": false,
      "t": 182764.2733333337,
      "d": 109.75612500001444,
      "v": 57
    },
    {
      "midi": 45,
      "hit": false,
      "t": 182926.87500000038,
      "d": 56.91058333334513,
      "v": 66
    },
    {
      "midi": 43,
      "hit": false,
      "t": 183089.47666666706,
      "d": 109.75612500001444,
      "v": 51
    },
    {
      "midi": 45,
      "hit": false,
      "t": 183252.07833333375,
      "d": 56.91058333334513,
      "v": 59
    },
    {
      "midi": 43,
      "hit": false,
      "t": 183414.68000000043,
      "d": 109.75612500001444,
      "v": 45
    },
    {
      "midi": 45,
      "hit": false,
      "t": 183577.2816666671,
      "d": 56.91058333334513,
      "v": 52
    },
    {
      "midi": 43,
      "hit": false,
      "t": 183739.8833333338,
      "d": 109.75612500001444,
      "v": 39
    },
    {
      "midi": 45,
      "hit": false,
      "t": 183902.48500000048,
      "d": 56.91058333334513,
      "v": 46
    },
    {
      "midi": 43,
      "hit": false,
      "t": 184065.08666666716,
      "d": 109.75612500001444,
      "v": 33
    },
    {
      "midi": 45,
      "hit": false,
      "t": 184227.68833333385,
      "d": 56.91058333334513,
      "v": 40
    },
    {
      "midi": 43,
      "hit": false,
      "t": 184390.29000000053,
      "d": 109.75612500001444,
      "v": 28
    },
    {
      "midi": 45,
      "hit": false,
      "t": 184552.89166666722,
      "d": 56.91058333334513,
      "v": 34
    },
    {
      "midi": 43,
      "hit": false,
      "t": 184715.4933333339,
      "d": 109.75612500001444,
      "v": 23
    },
    {
      "midi": 45,
      "hit": false,
      "t": 184878.09500000058,
      "d": 56.91058333334513,
      "v": 29
    },
    {
      "midi": 43,
      "hit": false,
      "t": 185040.69666666727,
      "d": 109.75612500001444,
      "v": 19
    },
    {
      "midi": 59,
      "hit": false,
      "t": 185609.8025000006,
      "d": 105.69108333333861,
      "v": 106
    },
    {
      "midi": 62,
      "hit": false,
      "t": 185609.8025000006,
      "d": 117.88620833333698,
      "v": 100
    },
    {
      "midi": 59,
      "hit": false,
      "t": 185935.00583333394,
      "d": 105.69108333333861,
      "v": 104
    },
    {
      "midi": 62,
      "hit": false,
      "t": 185935.00583333394,
      "d": 117.88620833333698,
      "v": 98
    },
    {
      "midi": 64,
      "hit": false,
      "t": 186097.60750000062,
      "d": 97.56099999998696,
      "v": 98
    },
    {
      "midi": 60,
      "hit": false,
      "t": 186097.60750000062,
      "d": 101.62604166666279,
      "v": 101
    },
    {
      "midi": 59,
      "hit": false,
      "t": 186341.51000000062,
      "d": 24.39024999999674,
      "v": 101
    },
    {
      "midi": 62,
      "hit": false,
      "t": 186341.51000000062,
      "d": 36.58537499999511,
      "v": 106
    },
    {
      "midi": 64,
      "hit": false,
      "t": 186422.81083333396,
      "d": 97.56099999998696,
      "v": 97
    },
    {
      "midi": 60,
      "hit": false,
      "t": 186422.81083333396,
      "d": 101.62604166666279,
      "v": 99
    },
    {
      "midi": 59,
      "hit": false,
      "t": 186666.71333333396,
      "d": 24.39024999999674,
      "v": 99
    },
    {
      "midi": 62,
      "hit": false,
      "t": 186666.71333333396,
      "d": 36.58537499999511,
      "v": 104
    },
    {
      "midi": 64,
      "hit": false,
      "t": 186829.31500000064,
      "d": 16.260166666674195,
      "v": 101
    },
    {
      "midi": 60,
      "hit": false,
      "t": 186829.31500000064,
      "d": 20.32520833335002,
      "v": 112
    },
    {
      "midi": 59,
      "hit": false,
      "t": 186991.91666666733,
      "d": 24.39024999999674,
      "v": 97
    },
    {
      "midi": 62,
      "hit": false,
      "t": 186991.91666666733,
      "d": 36.58537499999511,
      "v": 101
    },
    {
      "midi": 64,
      "hit": false,
      "t": 187154.518333334,
      "d": 16.260166666674195,
      "v": 99
    },
    {
      "midi": 60,
      "hit": false,
      "t": 187154.518333334,
      "d": 20.32520833335002,
      "v": 110
    },
    {
      "midi": 59,
      "hit": false,
      "t": 187317.1200000007,
      "d": 24.39024999999674,
      "v": 94
    },
    {
      "midi": 62,
      "hit": false,
      "t": 187317.1200000007,
      "d": 36.58537499999511,
      "v": 98
    },
    {
      "midi": 64,
      "hit": false,
      "t": 187479.72166666738,
      "d": 16.260166666674195,
      "v": 97
    },
    {
      "midi": 60,
      "hit": false,
      "t": 187479.72166666738,
      "d": 20.32520833335002,
      "v": 107
    },
    {
      "midi": 59,
      "hit": false,
      "t": 187642.32333333406,
      "d": 24.39024999999674,
      "v": 90
    },
    {
      "midi": 62,
      "hit": false,
      "t": 187642.32333333406,
      "d": 36.58537499999511,
      "v": 94
    },
    {
      "midi": 76,
      "hit": false,
      "t": 187788.66483333285,
      "d": 89.43091666666442,
      "v": 101
    },
    {
      "midi": 69,
      "hit": false,
      "t": 187796.79491666617,
      "d": 77.23579166666605,
      "v": 108
    },
    {
      "midi": 72,
      "hit": false,
      "t": 187796.79491666617,
      "d": 77.23579166666605,
      "v": 101
    },
    {
      "midi": 64,
      "hit": false,
      "t": 187804.92500000075,
      "d": 16.260166666674195,
      "v": 94
    },
    {
      "midi": 60,
      "hit": false,
      "t": 187804.92500000075,
      "d": 20.32520833335002,
      "v": 103
    },
    {
      "midi": 59,
      "hit": false,
      "t": 187967.52666666743,
      "d": 24.39024999999674,
      "v": 85
    },
    {
      "midi": 62,
      "hit": false,
      "t": 187967.52666666743,
      "d": 36.58537499999511,
      "v": 89
    },
    {
      "midi": 76,
      "hit": false,
      "t": 188113.8681666662,
      "d": 89.43091666666442,
      "v": 99
    },
    {
      "midi": 69,
      "hit": false,
      "t": 188121.9982499995,
      "d": 77.23579166666605,
      "v": 106
    },
    {
      "midi": 72,
      "hit": false,
      "t": 188121.9982499995,
      "d": 77.23579166666605,
      "v": 99
    },
    {
      "midi": 64,
      "hit": false,
      "t": 188130.1283333341,
      "d": 16.260166666674195,
      "v": 90
    },
    {
      "midi": 60,
      "hit": false,
      "t": 188130.1283333341,
      "d": 20.32520833335002,
      "v": 98
    },
    {
      "midi": 59,
      "hit": false,
      "t": 188292.7300000008,
      "d": 24.39024999999674,
      "v": 80
    },
    {
      "midi": 62,
      "hit": false,
      "t": 188292.7300000008,
      "d": 36.58537499999511,
      "v": 83
    },
    {
      "midi": 76,
      "hit": false,
      "t": 188439.07149999953,
      "d": 89.43091666666442,
      "v": 97
    },
    {
      "midi": 69,
      "hit": false,
      "t": 188447.20158333285,
      "d": 77.23579166666605,
      "v": 103
    },
    {
      "midi": 72,
      "hit": false,
      "t": 188447.20158333285,
      "d": 77.23579166666605,
      "v": 97
    },
    {
      "midi": 64,
      "hit": false,
      "t": 188455.33166666748,
      "d": 16.260166666674195,
      "v": 85
    },
    {
      "midi": 60,
      "hit": false,
      "t": 188455.33166666748,
      "d": 20.32520833335002,
      "v": 93
    },
    {
      "midi": 59,
      "hit": false,
      "t": 188617.93333333416,
      "d": 24.39024999999674,
      "v": 74
    },
    {
      "midi": 62,
      "hit": false,
      "t": 188617.93333333416,
      "d": 36.58537499999511,
      "v": 77
    },
    {
      "midi": 76,
      "hit": false,
      "t": 188764.27483333286,
      "d": 89.43091666666442,
      "v": 94
    },
    {
      "midi": 69,
      "hit": false,
      "t": 188772.4049166662,
      "d": 77.23579166666605,
      "v": 99
    },
    {
      "midi": 72,
      "hit": false,
      "t": 188772.4049166662,
      "d": 77.23579166666605,
      "v": 94
    },
    {
      "midi": 64,
      "hit": false,
      "t": 188780.53500000085,
      "d": 16.260166666674195,
      "v": 80
    },
    {
      "midi": 60,
      "hit": false,
      "t": 188780.53500000085,
      "d": 20.32520833335002,
      "v": 87
    },
    {
      "midi": 59,
      "hit": false,
      "t": 188943.13666666753,
      "d": 24.39024999999674,
      "v": 68
    },
    {
      "midi": 62,
      "hit": false,
      "t": 188943.13666666753,
      "d": 36.58537499999511,
      "v": 71
    },
    {
      "midi": 76,
      "hit": false,
      "t": 189089.4781666662,
      "d": 89.43091666666442,
      "v": 90
    },
    {
      "midi": 69,
      "hit": false,
      "t": 189097.60824999952,
      "d": 77.23579166666605,
      "v": 95
    },
    {
      "midi": 72,
      "hit": false,
      "t": 189097.60824999952,
      "d": 77.23579166666605,
      "v": 90
    },
    {
      "midi": 64,
      "hit": false,
      "t": 189105.73833333421,
      "d": 16.260166666674195,
      "v": 74
    },
    {
      "midi": 60,
      "hit": false,
      "t": 189105.73833333421,
      "d": 20.32520833335002,
      "v": 81
    },
    {
      "midi": 59,
      "hit": false,
      "t": 189268.3400000009,
      "d": 24.39024999999674,
      "v": 62
    },
    {
      "midi": 62,
      "hit": false,
      "t": 189268.3400000009,
      "d": 36.58537499999511,
      "v": 64
    },
    {
      "midi": 76,
      "hit": false,
      "t": 189414.68149999954,
      "d": 89.43091666666442,
      "v": 85
    },
    {
      "midi": 69,
      "hit": false,
      "t": 189422.81158333286,
      "d": 77.23579166666605,
      "v": 90
    },
    {
      "midi": 72,
      "hit": false,
      "t": 189422.81158333286,
      "d": 77.23579166666605,
      "v": 85
    },
    {
      "midi": 64,
      "hit": false,
      "t": 189430.94166666758,
      "d": 16.260166666674195,
      "v": 68
    },
    {
      "midi": 60,
      "hit": false,
      "t": 189430.94166666758,
      "d": 20.32520833335002,
      "v": 74
    },
    {
      "midi": 59,
      "hit": false,
      "t": 189593.54333333427,
      "d": 24.39024999999674,
      "v": 56
    },
    {
      "midi": 62,
      "hit": false,
      "t": 189593.54333333427,
      "d": 36.58537499999511,
      "v": 57
    },
    {
      "midi": 76,
      "hit": false,
      "t": 189739.88483333288,
      "d": 89.43091666666442,
      "v": 80
    },
    {
      "midi": 69,
      "hit": false,
      "t": 189748.0149166662,
      "d": 77.23579166666605,
      "v": 84
    },
    {
      "midi": 72,
      "hit": false,
      "t": 189748.0149166662,
      "d": 77.23579166666605,
      "v": 80
    },
    {
      "midi": 64,
      "hit": false,
      "t": 189756.14500000095,
      "d": 16.260166666674195,
      "v": 62
    },
    {
      "midi": 60,
      "hit": false,
      "t": 189756.14500000095,
      "d": 20.32520833335002,
      "v": 67
    },
    {
      "midi": 59,
      "hit": false,
      "t": 189918.74666666763,
      "d": 24.39024999999674,
      "v": 50
    },
    {
      "midi": 62,
      "hit": false,
      "t": 189918.74666666763,
      "d": 36.58537499999511,
      "v": 51
    },
    {
      "midi": 76,
      "hit": false,
      "t": 190065.08816666622,
      "d": 89.43091666666442,
      "v": 74
    },
    {
      "midi": 69,
      "hit": false,
      "t": 190073.21824999954,
      "d": 77.23579166666605,
      "v": 78
    },
    {
      "midi": 72,
      "hit": false,
      "t": 190073.21824999954,
      "d": 77.23579166666605,
      "v": 74
    },
    {
      "midi": 64,
      "hit": false,
      "t": 190081.34833333432,
      "d": 16.260166666674195,
      "v": 56
    },
    {
      "midi": 60,
      "hit": false,
      "t": 190081.34833333432,
      "d": 20.32520833335002,
      "v": 60
    },
    {
      "midi": 59,
      "hit": false,
      "t": 190243.950000001,
      "d": 24.39024999999674,
      "v": 44
    },
    {
      "midi": 62,
      "hit": false,
      "t": 190243.950000001,
      "d": 36.58537499999511,
      "v": 45
    },
    {
      "midi": 76,
      "hit": false,
      "t": 190390.29149999956,
      "d": 89.43091666666442,
      "v": 68
    },
    {
      "midi": 69,
      "hit": false,
      "t": 190398.42158333288,
      "d": 77.23579166666605,
      "v": 71
    },
    {
      "midi": 72,
      "hit": false,
      "t": 190398.42158333288,
      "d": 77.23579166666605,
      "v": 68
    },
    {
      "midi": 64,
      "hit": false,
      "t": 190406.55166666768,
      "d": 16.260166666674195,
      "v": 50
    },
    {
      "midi": 60,
      "hit": false,
      "t": 190406.55166666768,
      "d": 20.32520833335002,
      "v": 53
    },
    {
      "midi": 59,
      "hit": false,
      "t": 190569.15333333437,
      "d": 24.39024999999674,
      "v": 38
    },
    {
      "midi": 62,
      "hit": false,
      "t": 190569.15333333437,
      "d": 36.58537499999511,
      "v": 39
    },
    {
      "midi": 76,
      "hit": false,
      "t": 190715.4948333329,
      "d": 89.43091666666442,
      "v": 62
    },
    {
      "midi": 69,
      "hit": false,
      "t": 190723.62491666622,
      "d": 77.23579166666605,
      "v": 64
    },
    {
      "midi": 72,
      "hit": false,
      "t": 190723.62491666622,
      "d": 77.23579166666605,
      "v": 62
    },
    {
      "midi": 64,
      "hit": false,
      "t": 190731.75500000105,
      "d": 16.260166666674195,
      "v": 44
    },
    {
      "midi": 60,
      "hit": false,
      "t": 190731.75500000105,
      "d": 20.32520833335002,
      "v": 46
    },
    {
      "midi": 59,
      "hit": false,
      "t": 190894.35666666774,
      "d": 24.39024999999674,
      "v": 33
    },
    {
      "midi": 62,
      "hit": false,
      "t": 190894.35666666774,
      "d": 36.58537499999511,
      "v": 33
    },
    {
      "midi": 76,
      "hit": false,
      "t": 191040.69816666623,
      "d": 89.43091666666442,
      "v": 56
    },
    {
      "midi": 69,
      "hit": false,
      "t": 191048.82824999955,
      "d": 77.23579166666605,
      "v": 57
    },
    {
      "midi": 72,
      "hit": false,
      "t": 191048.82824999955,
      "d": 77.23579166666605,
      "v": 56
    },
    {
      "midi": 64,
      "hit": false,
      "t": 191056.95833333442,
      "d": 16.260166666674195,
      "v": 38
    },
    {
      "midi": 60,
      "hit": false,
      "t": 191056.95833333442,
      "d": 20.32520833335002,
      "v": 40
    },
    {
      "midi": 59,
      "hit": false,
      "t": 191219.5600000011,
      "d": 24.39024999999674,
      "v": 28
    },
    {
      "midi": 62,
      "hit": false,
      "t": 191219.5600000011,
      "d": 36.58537499999511,
      "v": 28
    },
    {
      "midi": 76,
      "hit": false,
      "t": 191365.90149999957,
      "d": 89.43091666666442,
      "v": 50
    },
    {
      "midi": 69,
      "hit": false,
      "t": 191374.0315833329,
      "d": 77.23579166666605,
      "v": 51
    },
    {
      "midi": 72,
      "hit": false,
      "t": 191374.0315833329,
      "d": 77.23579166666605,
      "v": 50
    },
    {
      "midi": 64,
      "hit": false,
      "t": 191382.1616666678,
      "d": 16.260166666674195,
      "v": 33
    },
    {
      "midi": 60,
      "hit": false,
      "t": 191382.1616666678,
      "d": 20.32520833335002,
      "v": 34
    },
    {
      "midi": 59,
      "hit": false,
      "t": 191544.76333333447,
      "d": 24.39024999999674,
      "v": 23
    },
    {
      "midi": 62,
      "hit": false,
      "t": 191544.76333333447,
      "d": 36.58537499999511,
      "v": 23
    },
    {
      "midi": 76,
      "hit": false,
      "t": 191691.1048333329,
      "d": 89.43091666666442,
      "v": 44
    },
    {
      "midi": 69,
      "hit": false,
      "t": 191699.23491666623,
      "d": 77.23579166666605,
      "v": 45
    },
    {
      "midi": 72,
      "hit": false,
      "t": 191699.23491666623,
      "d": 77.23579166666605,
      "v": 44
    },
    {
      "midi": 64,
      "hit": false,
      "t": 191707.36500000115,
      "d": 16.260166666674195,
      "v": 28
    },
    {
      "midi": 60,
      "hit": false,
      "t": 191707.36500000115,
      "d": 20.32520833335002,
      "v": 29
    },
    {
      "midi": 59,
      "hit": false,
      "t": 191869.96666666784,
      "d": 24.39024999999674,
      "v": 19
    },
    {
      "midi": 62,
      "hit": false,
      "t": 191869.96666666784,
      "d": 36.58537499999511,
      "v": 19
    },
    {
      "midi": 76,
      "hit": false,
      "t": 192016.30816666625,
      "d": 89.43091666666442,
      "v": 38
    },
    {
      "midi": 69,
      "hit": false,
      "t": 192024.43824999957,
      "d": 77.23579166666605,
      "v": 39
    },
    {
      "midi": 72,
      "hit": false,
      "t": 192024.43824999957,
      "d": 77.23579166666605,
      "v": 38
    },
    {
      "midi": 64,
      "hit": false,
      "t": 192032.56833333452,
      "d": 16.260166666674195,
      "v": 23
    },
    {
      "midi": 60,
      "hit": false,
      "t": 192032.56833333452,
      "d": 20.32520833335002,
      "v": 24
    },
    {
      "midi": 59,
      "hit": false,
      "t": 192195.1700000012,
      "d": 24.39024999999674,
      "v": 15
    },
    {
      "midi": 62,
      "hit": false,
      "t": 192195.1700000012,
      "d": 36.58537499999511,
      "v": 15
    },
    {
      "midi": 76,
      "hit": false,
      "t": 192341.5114999996,
      "d": 89.43091666666442,
      "v": 33
    },
    {
      "midi": 69,
      "hit": false,
      "t": 192349.6415833329,
      "d": 77.23579166666605,
      "v": 33
    },
    {
      "midi": 72,
      "hit": false,
      "t": 192349.6415833329,
      "d": 77.23579166666605,
      "v": 33
    },
    {
      "midi": 64,
      "hit": false,
      "t": 192357.7716666679,
      "d": 16.260166666674195,
      "v": 19
    },
    {
      "midi": 60,
      "hit": false,
      "t": 192357.7716666679,
      "d": 20.32520833335002,
      "v": 20
    },
    {
      "midi": 59,
      "hit": false,
      "t": 192520.37333333457,
      "d": 24.39024999999674,
      "v": 12
    },
    {
      "midi": 62,
      "hit": false,
      "t": 192520.37333333457,
      "d": 36.58537499999511,
      "v": 12
    },
    {
      "midi": 76,
      "hit": false,
      "t": 192666.71483333292,
      "d": 89.43091666666442,
      "v": 28
    },
    {
      "midi": 69,
      "hit": false,
      "t": 192674.84491666625,
      "d": 77.23579166666605,
      "v": 28
    },
    {
      "midi": 72,
      "hit": false,
      "t": 192674.84491666625,
      "d": 77.23579166666605,
      "v": 28
    },
    {
      "midi": 64,
      "hit": false,
      "t": 192682.97500000126,
      "d": 16.260166666674195,
      "v": 15
    },
    {
      "midi": 60,
      "hit": false,
      "t": 192682.97500000126,
      "d": 20.32520833335002,
      "v": 16
    },
    {
      "midi": 59,
      "hit": false,
      "t": 192845.57666666794,
      "d": 24.39024999999674,
      "v": 9
    },
    {
      "midi": 62,
      "hit": false,
      "t": 192845.57666666794,
      "d": 36.58537499999511,
      "v": 9
    },
    {
      "midi": 76,
      "hit": false,
      "t": 192991.91816666626,
      "d": 89.43091666666442,
      "v": 23
    },
    {
      "midi": 69,
      "hit": false,
      "t": 193000.04824999959,
      "d": 77.23579166666605,
      "v": 23
    },
    {
      "midi": 72,
      "hit": false,
      "t": 193000.04824999959,
      "d": 77.23579166666605,
      "v": 23
    },
    {
      "midi": 64,
      "hit": false,
      "t": 193008.17833333462,
      "d": 16.260166666674195,
      "v": 12
    },
    {
      "midi": 60,
      "hit": false,
      "t": 193008.17833333462,
      "d": 20.32520833335002,
      "v": 13
    },
    {
      "midi": 59,
      "hit": false,
      "t": 193170.7800000013,
      "d": 24.39024999999674,
      "v": 7
    },
    {
      "midi": 62,
      "hit": false,
      "t": 193170.7800000013,
      "d": 36.58537499999511,
      "v": 7
    },
    {
      "midi": 76,
      "hit": false,
      "t": 193317.1214999996,
      "d": 89.43091666666442,
      "v": 19
    },
    {
      "midi": 69,
      "hit": false,
      "t": 193325.25158333292,
      "d": 77.23579166666605,
      "v": 19
    },
    {
      "midi": 72,
      "hit": false,
      "t": 193325.25158333292,
      "d": 77.23579166666605,
      "v": 19
    },
    {
      "midi": 64,
      "hit": false,
      "t": 193333.381666668,
      "d": 16.260166666674195,
      "v": 9
    },
    {
      "midi": 60,
      "hit": false,
      "t": 193333.381666668,
      "d": 20.32520833335002,
      "v": 10
    },
    {
      "midi": 59,
      "hit": false,
      "t": 193495.98333333468,
      "d": 24.39024999999674,
      "v": 5
    },
    {
      "midi": 62,
      "hit": false,
      "t": 193495.98333333468,
      "d": 36.58537499999511,
      "v": 5
    },
    {
      "midi": 76,
      "hit": false,
      "t": 193642.32483333294,
      "d": 89.43091666666442,
      "v": 15
    },
    {
      "midi": 69,
      "hit": false,
      "t": 193650.45491666626,
      "d": 77.23579166666605,
      "v": 15
    },
    {
      "midi": 72,
      "hit": false,
      "t": 193650.45491666626,
      "d": 77.23579166666605,
      "v": 15
    },
    {
      "midi": 64,
      "hit": false,
      "t": 193658.58500000136,
      "d": 16.260166666674195,
      "v": 7
    },
    {
      "midi": 60,
      "hit": false,
      "t": 193658.58500000136,
      "d": 20.32520833335002,
      "v": 8
    },
    {
      "midi": 59,
      "hit": false,
      "t": 193821.18666666804,
      "d": 24.39024999999674,
      "v": 3
    },
    {
      "midi": 62,
      "hit": false,
      "t": 193821.18666666804,
      "d": 36.58537499999511,
      "v": 3
    },
    {
      "midi": 76,
      "hit": false,
      "t": 193967.52816666628,
      "d": 89.43091666666442,
      "v": 12
    },
    {
      "midi": 69,
      "hit": false,
      "t": 193975.6582499996,
      "d": 77.23579166666605,
      "v": 12
    },
    {
      "midi": 72,
      "hit": false,
      "t": 193975.6582499996,
      "d": 77.23579166666605,
      "v": 12
    },
    {
      "midi": 64,
      "hit": false,
      "t": 193983.78833333473,
      "d": 16.260166666674195,
      "v": 5
    },
    {
      "midi": 60,
      "hit": false,
      "t": 193983.78833333473,
      "d": 20.32520833335002,
      "v": 6
    },
    {
      "midi": 59,
      "hit": false,
      "t": 194146.3900000014,
      "d": 182.92687500003376,
      "v": 2
    },
    {
      "midi": 62,
      "hit": false,
      "t": 194146.3900000014,
      "d": 191.0569583333563,
      "v": 2
    },
    {
      "midi": 76,
      "hit": false,
      "t": 194292.73149999962,
      "d": 89.43091666666442,
      "v": 9
    },
    {
      "midi": 69,
      "hit": false,
      "t": 194300.86158333294,
      "d": 77.23579166666605,
      "v": 9
    },
    {
      "midi": 72,
      "hit": false,
      "t": 194300.86158333294,
      "d": 77.23579166666605,
      "v": 9
    },
    {
      "midi": 64,
      "hit": false,
      "t": 194308.9916666681,
      "d": 16.260166666674195,
      "v": 3
    },
    {
      "midi": 60,
      "hit": false,
      "t": 194308.9916666681,
      "d": 20.32520833335002,
      "v": 4
    },
    {
      "midi": 59,
      "hit": false,
      "t": 194471.59333333478,
      "d": 182.92687499997555,
      "v": 1
    },
    {
      "midi": 62,
      "hit": false,
      "t": 194471.59333333478,
      "d": 191.0569583332981,
      "v": 1
    },
    {
      "midi": 76,
      "hit": false,
      "t": 194617.93483333295,
      "d": 89.43091666666442,
      "v": 7
    },
    {
      "midi": 69,
      "hit": false,
      "t": 194626.06491666628,
      "d": 77.23579166666605,
      "v": 7
    },
    {
      "midi": 72,
      "hit": false,
      "t": 194626.06491666628,
      "d": 77.23579166666605,
      "v": 7
    },
    {
      "midi": 60,
      "hit": false,
      "t": 194634.19500000143,
      "d": 73.17074999999022,
      "v": 3
    },
    {
      "midi": 64,
      "hit": false,
      "t": 194634.19500000143,
      "d": 85.36587499998859,
      "v": 2
    },
    {
      "midi": 76,
      "hit": false,
      "t": 194943.1381666663,
      "d": 89.43091666666442,
      "v": 5
    },
    {
      "midi": 69,
      "hit": false,
      "t": 194951.26824999962,
      "d": 77.23579166666605,
      "v": 5
    },
    {
      "midi": 72,
      "hit": false,
      "t": 194951.26824999962,
      "d": 77.23579166666605,
      "v": 5
    },
    {
      "midi": 60,
      "hit": false,
      "t": 194959.39833333474,
      "d": 73.17074999999022,
      "v": 2
    },
    {
      "midi": 64,
      "hit": false,
      "t": 194959.39833333474,
      "d": 85.36587499998859,
      "v": 1
    },
    {
      "midi": 76,
      "hit": false,
      "t": 195268.34149999963,
      "d": 89.43091666666442,
      "v": 3
    },
    {
      "midi": 69,
      "hit": false,
      "t": 195276.47158333295,
      "d": 77.23579166666605,
      "v": 3
    },
    {
      "midi": 72,
      "hit": false,
      "t": 195276.47158333295,
      "d": 77.23579166666605,
      "v": 3
    },
    {
      "midi": 60,
      "hit": false,
      "t": 195284.60166666805,
      "d": 73.17074999999022,
      "v": 1
    },
    {
      "midi": 76,
      "hit": false,
      "t": 195593.54483333297,
      "d": 89.43091666666442,
      "v": 2
    },
    {
      "midi": 69,
      "hit": false,
      "t": 195601.6749166663,
      "d": 77.23579166666605,
      "v": 2
    },
    {
      "midi": 72,
      "hit": false,
      "t": 195601.6749166663,
      "d": 77.23579166666605,
      "v": 2
    },
    {
      "midi": 64,
      "hit": false,
      "t": 195609.80499999961,
      "d": 77.23579166669515,
      "v": 101
    },
    {
      "midi": 60,
      "hit": false,
      "t": 195609.80499999961,
      "d": 85.3658750000177,
      "v": 105
    },
    {
      "midi": 57,
      "hit": false,
      "t": 195609.80499999961,
      "d": 93.49595833334024,
      "v": 95
    },
    {
      "midi": 76,
      "hit": false,
      "t": 195918.7481666663,
      "d": 52.845541666669305,
      "v": 1
    },
    {
      "midi": 72,
      "hit": false,
      "t": 195926.87824999963,
      "d": 44.71545833334676,
      "v": 1
    },
    {
      "midi": 69,
      "hit": false,
      "t": 195926.87824999963,
      "d": 77.23579166666605,
      "v": 1
    },
    {
      "midi": 72,
      "hit": false,
      "t": 196349.64258333296,
      "d": 113.82116666666116,
      "v": 100
    },
    {
      "midi": 76,
      "hit": false,
      "t": 196349.64258333296,
      "d": 113.82116666666116,
      "v": 101
    },
    {
      "midi": 60,
      "hit": false,
      "t": 196577.28491666628,
      "d": 97.56100000001607,
      "v": 110
    },
    {
      "midi": 57,
      "hit": false,
      "t": 196581.34995833295,
      "d": 77.23579166666605,
      "v": 96
    },
    {
      "midi": 69,
      "hit": false,
      "t": 196585.41499999963,
      "d": 77.23579166666605,
      "v": 88
    },
    {
      "midi": 64,
      "hit": false,
      "t": 196585.41499999963,
      "d": 85.36587499998859,
      "v": 112
    },
    {
      "midi": 76,
      "hit": false,
      "t": 197536.63474999962,
      "d": 89.43091666669352,
      "v": 101
    },
    {
      "midi": 72,
      "hit": false,
      "t": 197540.6997916663,
      "d": 93.49595833334024,
      "v": 110
    },
    {
      "midi": 67,
      "hit": false,
      "t": 197544.76483333297,
      "d": 89.43091666666442,
      "v": 108
    },
    {
      "midi": 55,
      "hit": false,
      "t": 197548.82987499965,
      "d": 93.49595833334024,
      "v": 94
    },
    {
      "midi": 60,
      "hit": false,
      "t": 197548.82987499965,
      "d": 105.69108333333861,
      "v": 104
    },
    {
      "midi": 64,
      "hit": false,
      "t": 197552.89491666632,
      "d": 85.36587499998859,
      "v": 104
    },
    {
      "midi": 76,
      "hit": false,
      "t": 198532.56995833298,
      "d": 89.43091666669352,
      "v": 102
    },
    {
      "midi": 60,
      "hit": false,
      "t": 198532.56995833298,
      "d": 105.69108333336771,
      "v": 105
    },
    {
      "midi": 67,
      "hit": false,
      "t": 198536.63499999966,
      "d": 81.30083333334187,
      "v": 105
    },
    {
      "midi": 72,
      "hit": false,
      "t": 198536.63499999966,
      "d": 89.43091666669352,
      "v": 102
    },
    {
      "midi": 64,
      "hit": false,
      "t": 198536.63499999966,
      "d": 93.49595833336934,
      "v": 105
    },
    {
      "midi": 55,
      "hit": false,
      "t": 198536.63499999966,
      "d": 101.62604166669189,
      "v": 87
    },
    {
      "midi": 67,
      "hit": false,
      "t": 213170.78499999968,
      "d": 89.43091666666442,
      "v": 102
    },
    {
      "midi": 76,
      "hit": false,
      "t": 213170.78499999968,
      "d": 89.43091666666442,
      "v": 101
    },
    {
      "midi": 55,
      "hit": false,
      "t": 213170.78499999968,
      "d": 93.49595833334024,
      "v": 94
    },
    {
      "midi": 72,
      "hit": false,
      "t": 213170.78499999968,
      "d": 97.56100000001607,
      "v": 101
    },
    {
      "midi": 64,
      "hit": false,
      "t": 213170.78499999968,
      "d": 101.62604166669189,
      "v": 105
    },
    {
      "midi": 60,
      "hit": false,
      "t": 213170.78499999968,
      "d": 109.75612500001444,
      "v": 106
    },
    {
      "midi": 43,
      "hit": false,
      "t": 241951.28000000137,
      "d": 109.75612500001444,
      "v": 106
    },
    {
      "midi": 45,
      "hit": false,
      "t": 242073.23125000138,
      "d": 97.56099999998696,
      "v": 101
    },
    {
      "midi": 45,
      "hit": false,
      "t": 242439.08500000136,
      "d": 81.30083333334187,
      "v": 110
    },
    {
      "midi": 33,
      "hit": false,
      "t": 265365.9199999997,
      "d": 121.9512499999837,
      "v": 113
    },
    {
      "midi": 52,
      "hit": false,
      "t": 265365.9199999997,
      "d": 3658.5374999999767,
      "v": 101
    },
    {
      "midi": 57,
      "hit": false,
      "t": 265365.9199999997,
      "d": 3658.5374999999767,
      "v": 102
    },
    {
      "midi": 60,
      "hit": false,
      "t": 265365.9199999997,
      "d": 3658.5374999999767,
      "v": 116
    },
    {
      "midi": 64,
      "hit": false,
      "t": 265365.9199999997,
      "d": 3658.5374999999767,
      "v": 112
    },
    {
      "midi": 69,
      "hit": false,
      "t": 265365.9199999997,
      "d": 3658.5374999999767,
      "v": 108
    },
    {
      "midi": 72,
      "hit": false,
      "t": 265365.9199999997,
      "d": 3658.5374999999767,
      "v": 105
    },
    {
      "midi": 45,
      "hit": false,
      "t": 265365.9200000014,
      "d": 166.66670833335957,
      "v": 125
    },
    {
      "midi": 33,
      "hit": false,
      "t": 265609.82249999966,
      "d": 3414.6350000000093,
      "v": 106
    },
    {
      "midi": 45,
      "hit": false,
      "t": 265609.8225000014,
      "d": 2483.740458333341,
      "v": 106
    }
  ]
}