{
  "jsonPath": "Unknown/Unknown/New York PhilharmonicLeonard Bernstein/the-carnival-of-the-animalsxiv-finale.json",
  "path": "Unknown\\Unknown\\New York PhilharmonicLeonard Bernstein\\The Carnival Of The AnimalsXIV Finale.mid",
  "name": "The Carnival Of The AnimalsXIV Finale",
  "difficulty": "Advanced",
  "bpm": 180.00018000018,
  "notes": [
    {
      "midi": 74,
      "hit": false,
      "t": 0,
      "d": 110.29400000000001,
      "v": 127
    },
    {
      "midi": 79,
      "hit": false,
      "t": 0,
      "d": 110.29400000000001,
      "v": 127
    },
    {
      "midi": 81,
      "hit": false,
      "t": 110.29400000000001,
      "d": 110.29400000000001,
      "v": 127
    },
    {
      "midi": 86,
      "hit": false,
      "t": 110.29400000000001,
      "d": 110.29400000000001,
      "v": 127
    },
    {
      "midi": 74,
      "hit": false,
      "t": 220.58800000000002,
      "d": 110.29400000000004,
      "v": 127
    },
    {
      "midi": 79,
      "hit": false,
      "t": 220.58800000000002,
      "d": 110.29400000000004,
      "v": 127
    },
    {
      "midi": 81,
      "hit": false,
      "t": 330.88200000000006,
      "d": 110.29399999999998,
      "v": 127
    },
    {
      "midi": 86,
      "hit": false,
      "t": 330.88200000000006,
      "d": 110.29399999999998,
      "v": 127
    },
    {
      "midi": 74,
      "hit": false,
      "t": 441.17600000000004,
      "d": 110.29399999999998,
      "v": 127
    },
    {
      "midi": 79,
      "hit": false,
      "t": 441.17600000000004,
      "d": 110.29399999999998,
      "v": 127
    },
    {
      "midi": 81,
      "hit": false,
      "t": 551.47,
      "d": 110.29399999999998,
      "v": 127
    },
    {
      "midi": 86,
      "hit": false,
      "t": 551.47,
      "d": 110.29399999999998,
      "v": 127
    },
    {
      "midi": 74,
      "hit": false,
      "t": 661.764,
      "d": 110.29399999999998,
      "v": 127
    },
    {
      "midi": 79,
      "hit": false,
      "t": 661.764,
      "d": 110.29399999999998,
      "v": 127
    },
    {
      "midi": 81,
      "hit": false,
      "t": 772.058,
      "d": 110.29399999999998,
      "v": 127
    },
    {
      "midi": 86,
      "hit": false,
      "t": 772.058,
      "d": 110.29399999999998,
      "v": 127
    },
    {
      "midi": 74,
      "hit": false,
      "t": 882.352,
      "d": 110.29399999999998,
      "v": 127
    },
    {
      "midi": 79,
      "hit": false,
      "t": 882.352,
      "d": 110.29399999999998,
      "v": 127
    },
    {
      "midi": 81,
      "hit": false,
      "t": 992.646,
      "d": 110.2940000000001,
      "v": 127
    },
    {
      "midi": 86,
      "hit": false,
      "t": 992.646,
      "d": 110.2940000000001,
      "v": 127
    },
    {
      "midi": 74,
      "hit": false,
      "t": 1102.94,
      "d": 110.2940000000001,
      "v": 127
    },
    {
      "midi": 79,
      "hit": false,
      "t": 1102.94,
      "d": 110.2940000000001,
      "v": 127
    },
    {
      "midi": 81,
      "hit": false,
      "t": 1213.2340000000002,
      "d": 110.2940000000001,
      "v": 127
    },
    {
      "midi": 86,
      "hit": false,
      "t": 1213.2340000000002,
      "d": 110.2940000000001,
      "v": 127
    },
    {
      "midi": 74,
      "hit": false,
      "t": 1323.5280000000002,
      "d": 110.2940000000001,
      "v": 127
    },
    {
      "midi": 79,
      "hit": false,
      "t": 1323.5280000000002,
      "d": 110.2940000000001,
      "v": 127
    },
    {
      "midi": 81,
      "hit": false,
      "t": 1433.8220000000003,
      "d": 110.2940000000001,
      "v": 127
    },
    {
      "midi": 86,
      "hit": false,
      "t": 1433.8220000000003,
      "d": 110.2940000000001,
      "v": 127
    },
    {
      "midi": 74,
      "hit": false,
      "t": 1544.1160000000004,
      "d": 110.2940000000001,
      "v": 127
    },
    {
      "midi": 79,
      "hit": false,
      "t": 1544.1160000000004,
      "d": 110.2940000000001,
      "v": 127
    },
    {
      "midi": 81,
      "hit": false,
      "t": 1654.4100000000005,
      "d": 110.2940000000001,
      "v": 127
    },
    {
      "midi": 86,
      "hit": false,
      "t": 1654.4100000000005,
      "d": 110.2940000000001,
      "v": 127
    },
    {
      "midi": 74,
      "hit": false,
      "t": 1764.7040000000006,
      "d": 110.2940000000001,
      "v": 127
    },
    {
      "midi": 79,
      "hit": false,
      "t": 1764.7040000000006,
      "d": 110.2940000000001,
      "v": 127
    },
    {
      "midi": 81,
      "hit": false,
      "t": 1874.9980000000007,
      "d": 110.2940000000001,
      "v": 127
    },
    {
      "midi": 86,
      "hit": false,
      "t": 1874.9980000000007,
      "d": 110.2940000000001,
      "v": 127
    },
    {
      "midi": 74,
      "hit": false,
      "t": 1985.2920000000008,
      "d": 110.29399999999987,
      "v": 127
    },
    {
      "midi": 79,
      "hit": false,
      "t": 1985.2920000000008,
      "d": 110.29399999999987,
      "v": 127
    },
    {
      "midi": 81,
      "hit": false,
      "t": 2095.5860000000007,
      "d": 110.29399999999987,
      "v": 127
    },
    {
      "midi": 86,
      "hit": false,
      "t": 2095.5860000000007,
      "d": 110.29399999999987,
      "v": 127
    },
    {
      "midi": 74,
      "hit": false,
      "t": 2205.8800000000006,
      "d": 110.29399999999987,
      "v": 127
    },
    {
      "midi": 79,
      "hit": false,
      "t": 2205.8800000000006,
      "d": 110.29399999999987,
      "v": 127
    },
    {
      "midi": 81,
      "hit": false,
      "t": 2316.1740000000004,
      "d": 110.29399999999987,
      "v": 127
    },
    {
      "midi": 86,
      "hit": false,
      "t": 2316.1740000000004,
      "d": 110.29399999999987,
      "v": 127
    },
    {
      "midi": 74,
      "hit": false,
      "t": 2426.4680000000003,
      "d": 110.29399999999987,
      "v": 127
    },
    {
      "midi": 79,
      "hit": false,
      "t": 2426.4680000000003,
      "d": 110.29399999999987,
      "v": 127
    },
    {
      "midi": 81,
      "hit": false,
      "t": 2536.762,
      "d": 110.29399999999987,
      "v": 127
    },
    {
      "midi": 86,
      "hit": false,
      "t": 2536.762,
      "d": 110.29399999999987,
      "v": 127
    },
    {
      "midi": 74,
      "hit": false,
      "t": 2647.056,
      "d": 110.29399999999987,
      "v": 127
    },
    {
      "midi": 79,
      "hit": false,
      "t": 2647.056,
      "d": 110.29399999999987,
      "v": 127
    },
    {
      "midi": 81,
      "hit": false,
      "t": 2757.35,
      "d": 110.29399999999987,
      "v": 127
    },
    {
      "midi": 86,
      "hit": false,
      "t": 2757.35,
      "d": 110.29399999999987,
      "v": 127
    },
    {
      "midi": 74,
      "hit": false,
      "t": 2867.644,
      "d": 110.29399999999987,
      "v": 127
    },
    {
      "midi": 79,
      "hit": false,
      "t": 2867.644,
      "d": 110.29399999999987,
      "v": 127
    },
    {
      "midi": 81,
      "hit": false,
      "t": 2977.9379999999996,
      "d": 110.29399999999987,
      "v": 127
    },
    {
      "midi": 86,
      "hit": false,
      "t": 2977.9379999999996,
      "d": 110.29399999999987,
      "v": 127
    },
    {
      "midi": 74,
      "hit": false,
      "t": 3088.2319999999995,
      "d": 110.29399999999987,
      "v": 127
    },
    {
      "midi": 79,
      "hit": false,
      "t": 3088.2319999999995,
      "d": 110.29399999999987,
      "v": 127
    },
    {
      "midi": 81,
      "hit": false,
      "t": 3198.5259999999994,
      "d": 110.29399999999987,
      "v": 127
    },
    {
      "midi": 86,
      "hit": false,
      "t": 3198.5259999999994,
      "d": 110.29399999999987,
      "v": 127
    },
    {
      "midi": 74,
      "hit": false,
      "t": 3308.8199999999993,
      "d": 110.29399999999987,
      "v": 127
    },
    {
      "midi": 79,
      "hit": false,
      "t": 3308.8199999999993,
      "d": 110.29399999999987,
      "v": 127
    },
    {
      "midi": 81,
      "hit": false,
      "t": 3419.113999999999,
      "d": 110.29399999999987,
      "v": 127
    },
    {
      "midi": 86,
      "hit": false,
      "t": 3419.113999999999,
      "d": 110.29399999999987,
      "v": 127
    },
    {
      "midi": 74,
      "hit": false,
      "t": 3529.407999999999,
      "d": 110.29399999999987,
      "v": 127
    },
    {
      "midi": 79,
      "hit": false,
      "t": 3529.407999999999,
      "d": 110.29399999999987,
      "v": 127
    },
    {
      "midi": 62,
      "hit": false,
      "t": 3529.4080000000004,
      "d": 110.29399999999987,
      "v": 127
    },
    {
      "midi": 67,
      "hit": false,
      "t": 3529.4080000000004,
      "d": 110.29399999999987,
      "v": 127
    },
    {
      "midi": 81,
      "hit": false,
      "t": 3639.701999999999,
      "d": 110.29399999999987,
      "v": 127
    },
    {
      "midi": 86,
      "hit": false,
      "t": 3639.701999999999,
      "d": 110.29399999999987,
      "v": 127
    },
    {
      "midi": 69,
      "hit": false,
      "t": 3639.702,
      "d": 110.29399999999987,
      "v": 127
    },
    {
      "midi": 74,
      "hit": false,
      "t": 3639.702,
      "d": 110.29399999999987,
      "v": 127
    },
    {
      "midi": 74,
      "hit": false,
      "t": 3749.9959999999987,
      "d": 110.29399999999987,
      "v": 127
    },
    {
      "midi": 79,
      "hit": false,
      "t": 3749.9959999999987,
      "d": 110.29399999999987,
      "v": 127
    },
    {
      "midi": 62,
      "hit": false,
      "t": 3749.996,
      "d": 110.29399999999987,
      "v": 127
    },
    {
      "midi": 67,
      "hit": false,
      "t": 3749.996,
      "d": 110.29399999999987,
      "v": 127
    },
    {
      "midi": 81,
      "hit": false,
      "t": 3860.2899999999986,
      "d": 110.29399999999987,
      "v": 127
    },
    {
      "midi": 86,
      "hit": false,
      "t": 3860.2899999999986,
      "d": 110.29399999999987,
      "v": 127
    },
    {
      "midi": 69,
      "hit": false,
      "t": 3860.29,
      "d": 110.29399999999987,
      "v": 127
    },
    {
      "midi": 74,
      "hit": false,
      "t": 3860.29,
      "d": 110.29399999999987,
      "v": 127
    },
    {
      "midi": 74,
      "hit": false,
      "t": 3970.5839999999985,
      "d": 110.29399999999987,
      "v": 127
    },
    {
      "midi": 79,
      "hit": false,
      "t": 3970.5839999999985,
      "d": 110.29399999999987,
      "v": 127
    },
    {
      "midi": 62,
      "hit": false,
      "t": 3970.584,
      "d": 110.29399999999987,
      "v": 127
    },
    {
      "midi": 67,
      "hit": false,
      "t": 3970.584,
      "d": 110.29399999999987,
      "v": 127
    },
    {
      "midi": 81,
      "hit": false,
      "t": 4080.8779999999983,
      "d": 110.29400000000032,
      "v": 127
    },
    {
      "midi": 86,
      "hit": false,
      "t": 4080.8779999999983,
      "d": 110.29400000000032,
      "v": 127
    },
    {
      "midi": 69,
      "hit": false,
      "t": 4080.8779999999997,
      "d": 110.29399999999987,
      "v": 127
    },
    {
      "midi": 74,
      "hit": false,
      "t": 4080.8779999999997,
      "d": 110.29399999999987,
      "v": 127
    },
    {
      "midi": 74,
      "hit": false,
      "t": 4191.171999999999,
      "d": 110.29399999999987,
      "v": 127
    },
    {
      "midi": 79,
      "hit": false,
      "t": 4191.171999999999,
      "d": 110.29399999999987,
      "v": 127
    },
    {
      "midi": 62,
      "hit": false,
      "t": 4191.172,
      "d": 110.29399999999987,
      "v": 127
    },
    {
      "midi": 67,
      "hit": false,
      "t": 4191.172,
      "d": 110.29399999999987,
      "v": 127
    },
    {
      "midi": 81,
      "hit": false,
      "t": 4301.4659999999985,
      "d": 110.29399999999987,
      "v": 127
    },
    {
      "midi": 86,
      "hit": false,
      "t": 4301.4659999999985,
      "d": 110.29399999999987,
      "v": 127
    },
    {
      "midi": 69,
      "hit": false,
      "t": 4301.465999999999,
      "d": 110.29399999999987,
      "v": 127
    },
    {
      "midi": 74,
      "hit": false,
      "t": 4301.465999999999,
      "d": 110.29399999999987,
      "v": 127
    },
    {
      "midi": 74,
      "hit": false,
      "t": 4411.759999999998,
      "d": 110.29399999999987,
      "v": 127
    },
    {
      "midi": 79,
      "hit": false,
      "t": 4411.759999999998,
      "d": 110.29399999999987,
      "v": 127
    },
    {
      "midi": 62,
      "hit": false,
      "t": 4411.759999999999,
      "d": 110.29399999999987,
      "v": 127
    },
    {
      "midi": 67,
      "hit": false,
      "t": 4411.759999999999,
      "d": 110.29399999999987,
      "v": 127
    },
    {
      "midi": 81,
      "hit": false,
      "t": 4522.053999999998,
      "d": 110.29399999999987,
      "v": 127
    },
    {
      "midi": 86,
      "hit": false,
      "t": 4522.053999999998,
      "d": 110.29399999999987,
      "v": 127
    },
    {
      "midi": 69,
      "hit": false,
      "t": 4522.053999999999,
      "d": 110.29399999999987,
      "v": 127
    },
    {
      "midi": 74,
      "hit": false,
      "t": 4522.053999999999,
      "d": 110.29399999999987,
      "v": 127
    },
    {
      "midi": 74,
      "hit": false,
      "t": 4632.347999999998,
      "d": 110.29399999999987,
      "v": 127
    },
    {
      "midi": 79,
      "hit": false,
      "t": 4632.347999999998,
      "d": 110.29399999999987,
      "v": 127
    },
    {
      "midi": 62,
      "hit": false,
      "t": 4632.347999999999,
      "d": 110.29399999999987,
      "v": 127
    },
    {
      "midi": 67,
      "hit": false,
      "t": 4632.347999999999,
      "d": 110.29399999999987,
      "v": 127
    },
    {
      "midi": 81,
      "hit": false,
      "t": 4742.641999999998,
      "d": 110.29399999999987,
      "v": 127
    },
    {
      "midi": 86,
      "hit": false,
      "t": 4742.641999999998,
      "d": 110.29399999999987,
      "v": 127
    },
    {
      "midi": 69,
      "hit": false,
      "t": 4742.641999999999,
      "d": 110.29399999999987,
      "v": 127
    },
    {
      "midi": 74,
      "hit": false,
      "t": 4742.641999999999,
      "d": 110.29399999999987,
      "v": 127
    },
    {
      "midi": 74,
      "hit": false,
      "t": 4852.935999999998,
      "d": 110.29399999999987,
      "v": 127
    },
    {
      "midi": 79,
      "hit": false,
      "t": 4852.935999999998,
      "d": 110.29399999999987,
      "v": 127
    },
    {
      "midi": 62,
      "hit": false,
      "t": 4852.935999999999,
      "d": 110.29399999999987,
      "v": 127
    },
    {
      "midi": 67,
      "hit": false,
      "t": 4852.935999999999,
      "d": 110.29399999999987,
      "v": 127
    },
    {
      "midi": 81,
      "hit": false,
      "t": 4963.229999999998,
      "d": 110.29399999999987,
      "v": 127
    },
    {
      "midi": 86,
      "hit": false,
      "t": 4963.229999999998,
      "d": 110.29399999999987,
      "v": 127
    },
    {
      "midi": 69,
      "hit": false,
      "t": 4963.229999999999,
      "d": 110.29399999999987,
      "v": 127
    },
    {
      "midi": 74,
      "hit": false,
      "t": 4963.229999999999,
      "d": 110.29399999999987,
      "v": 127
    },
    {
      "midi": 74,
      "hit": false,
      "t": 5073.523999999998,
      "d": 110.29399999999987,
      "v": 127
    },
    {
      "midi": 79,
      "hit": false,
      "t": 5073.523999999998,
      "d": 110.29399999999987,
      "v": 127
    },
    {
      "midi": 62,
      "hit": false,
      "t": 5073.5239999999985,
      "d": 110.29399999999987,
      "v": 127
    },
    {
      "midi": 67,
      "hit": false,
      "t": 5073.5239999999985,
      "d": 110.29399999999987,
      "v": 127
    },
    {
      "midi": 81,
      "hit": false,
      "t": 5183.8179999999975,
      "d": 110.29399999999987,
      "v": 127
    },
    {
      "midi": 86,
      "hit": false,
      "t": 5183.8179999999975,
      "d": 110.29399999999987,
      "v": 127
    },
    {
      "midi": 69,
      "hit": false,
      "t": 5183.817999999998,
      "d": 110.29399999999987,
      "v": 127
    },
    {
      "midi": 74,
      "hit": false,
      "t": 5183.817999999998,
      "d": 110.29399999999987,
      "v": 127
    },
    {
      "midi": 74,
      "hit": false,
      "t": 5294.111999999997,
      "d": 110.29399999999987,
      "v": 127
    },
    {
      "midi": 79,
      "hit": false,
      "t": 5294.111999999997,
      "d": 110.29399999999987,
      "v": 127
    },
    {
      "midi": 62,
      "hit": false,
      "t": 5294.111999999998,
      "d": 110.29399999999987,
      "v": 127
    },
    {
      "midi": 67,
      "hit": false,
      "t": 5294.111999999998,
      "d": 110.29399999999987,
      "v": 127
    },
    {
      "midi": 81,
      "hit": false,
      "t": 5404.405999999997,
      "d": 110.29399999999987,
      "v": 127
    },
    {
      "midi": 86,
      "hit": false,
      "t": 5404.405999999997,
      "d": 110.29399999999987,
      "v": 127
    },
    {
      "midi": 69,
      "hit": false,
      "t": 5404.405999999998,
      "d": 110.29399999999987,
      "v": 127
    },
    {
      "midi": 74,
      "hit": false,
      "t": 5404.405999999998,
      "d": 110.29399999999987,
      "v": 127
    },
    {
      "midi": 74,
      "hit": false,
      "t": 5514.699999999997,
      "d": 110.29399999999987,
      "v": 127
    },
    {
      "midi": 79,
      "hit": false,
      "t": 5514.699999999997,
      "d": 110.29399999999987,
      "v": 127
    },
    {
      "midi": 62,
      "hit": false,
      "t": 5514.699999999998,
      "d": 110.29399999999987,
      "v": 127
    },
    {
      "midi": 67,
      "hit": false,
      "t": 5514.699999999998,
      "d": 110.29399999999987,
      "v": 127
    },
    {
      "midi": 81,
      "hit": false,
      "t": 5624.993999999997,
      "d": 110.29399999999987,
      "v": 127
    },
    {
      "midi": 86,
      "hit": false,
      "t": 5624.993999999997,
      "d": 110.29399999999987,
      "v": 127
    },
    {
      "midi": 69,
      "hit": false,
      "t": 5624.993999999998,
      "d": 110.29399999999987,
      "v": 127
    },
    {
      "midi": 74,
      "hit": false,
      "t": 5624.993999999998,
      "d": 110.29399999999987,
      "v": 127
    },
    {
      "midi": 74,
      "hit": false,
      "t": 5735.287999999997,
      "d": 110.29399999999987,
      "v": 127
    },
    {
      "midi": 79,
      "hit": false,
      "t": 5735.287999999997,
      "d": 110.29399999999987,
      "v": 127
    },
    {
      "midi": 62,
      "hit": false,
      "t": 5735.287999999998,
      "d": 110.29399999999987,
      "v": 127
    },
    {
      "midi": 67,
      "hit": false,
      "t": 5735.287999999998,
      "d": 110.29399999999987,
      "v": 127
    },
    {
      "midi": 81,
      "hit": false,
      "t": 5845.581999999997,
      "d": 110.29399999999987,
      "v": 127
    },
    {
      "midi": 86,
      "hit": false,
      "t": 5845.581999999997,
      "d": 110.29399999999987,
      "v": 127
    },
    {
      "midi": 69,
      "hit": false,
      "t": 5845.581999999998,
      "d": 110.29399999999987,
      "v": 127
    },
    {
      "midi": 74,
      "hit": false,
      "t": 5845.581999999998,
      "d": 110.29399999999987,
      "v": 127
    },
    {
      "midi": 74,
      "hit": false,
      "t": 5955.875999999997,
      "d": 110.29399999999987,
      "v": 127
    },
    {
      "midi": 79,
      "hit": false,
      "t": 5955.875999999997,
      "d": 110.29399999999987,
      "v": 127
    },
    {
      "midi": 62,
      "hit": false,
      "t": 5955.8759999999975,
      "d": 110.29399999999987,
      "v": 127
    },
    {
      "midi": 67,
      "hit": false,
      "t": 5955.8759999999975,
      "d": 110.29399999999987,
      "v": 127
    },
    {
      "midi": 81,
      "hit": false,
      "t": 6066.169999999996,
      "d": 110.29399999999987,
      "v": 127
    },
    {
      "midi": 86,
      "hit": false,
      "t": 6066.169999999996,
      "d": 110.29399999999987,
      "v": 127
    },
    {
      "midi": 69,
      "hit": false,
      "t": 6066.169999999997,
      "d": 110.29399999999987,
      "v": 127
    },
    {
      "midi": 74,
      "hit": false,
      "t": 6066.169999999997,
      "d": 110.29399999999987,
      "v": 127
    },
    {
      "midi": 74,
      "hit": false,
      "t": 6176.463999999996,
      "d": 110.29399999999987,
      "v": 127
    },
    {
      "midi": 79,
      "hit": false,
      "t": 6176.463999999996,
      "d": 110.29399999999987,
      "v": 127
    },
    {
      "midi": 62,
      "hit": false,
      "t": 6176.463999999997,
      "d": 110.29399999999987,
      "v": 127
    },
    {
      "midi": 67,
      "hit": false,
      "t": 6176.463999999997,
      "d": 110.29399999999987,
      "v": 127
    },
    {
      "midi": 81,
      "hit": false,
      "t": 6286.757999999996,
      "d": 110.29399999999987,
      "v": 127
    },
    {
      "midi": 86,
      "hit": false,
      "t": 6286.757999999996,
      "d": 110.29399999999987,
      "v": 127
    },
    {
      "midi": 69,
      "hit": false,
      "t": 6286.757999999997,
      "d": 110.29399999999987,
      "v": 127
    },
    {
      "midi": 74,
      "hit": false,
      "t": 6286.757999999997,
      "d": 110.29399999999987,
      "v": 127
    },
    {
      "midi": 74,
      "hit": false,
      "t": 6397.051999999996,
      "d": 110.29399999999987,
      "v": 127
    },
    {
      "midi": 79,
      "hit": false,
      "t": 6397.051999999996,
      "d": 110.29399999999987,
      "v": 127
    },
    {
      "midi": 62,
      "hit": false,
      "t": 6397.051999999997,
      "d": 110.29399999999987,
      "v": 127
    },
    {
      "midi": 67,
      "hit": false,
      "t": 6397.051999999997,
      "d": 110.29399999999987,
      "v": 127
    },
    {
      "midi": 81,
      "hit": false,
      "t": 6507.345999999996,
      "d": 110.29399999999987,
      "v": 127
    },
    {
      "midi": 86,
      "hit": false,
      "t": 6507.345999999996,
      "d": 110.29399999999987,
      "v": 127
    },
    {
      "midi": 69,
      "hit": false,
      "t": 6507.345999999997,
      "d": 110.29399999999987,
      "v": 127
    },
    {
      "midi": 74,
      "hit": false,
      "t": 6507.345999999997,
      "d": 110.29399999999987,
      "v": 127
    },
    {
      "midi": 74,
      "hit": false,
      "t": 6617.639999999996,
      "d": 110.29399999999987,
      "v": 127
    },
    {
      "midi": 79,
      "hit": false,
      "t": 6617.639999999996,
      "d": 110.29399999999987,
      "v": 127
    },
    {
      "midi": 62,
      "hit": false,
      "t": 6617.639999999997,
      "d": 110.29399999999987,
      "v": 127
    },
    {
      "midi": 67,
      "hit": false,
      "t": 6617.639999999997,
      "d": 110.29399999999987,
      "v": 127
    },
    {
      "midi": 81,
      "hit": false,
      "t": 6727.933999999996,
      "d": 110.29399999999987,
      "v": 127
    },
    {
      "midi": 86,
      "hit": false,
      "t": 6727.933999999996,
      "d": 110.29399999999987,
      "v": 127
    },
    {
      "midi": 69,
      "hit": false,
      "t": 6727.933999999997,
      "d": 110.29399999999987,
      "v": 127
    },
    {
      "midi": 74,
      "hit": false,
      "t": 6727.933999999997,
      "d": 110.29399999999987,
      "v": 127
    },
    {
      "midi": 74,
      "hit": false,
      "t": 6838.2279999999955,
      "d": 110.29399999999987,
      "v": 127
    },
    {
      "midi": 79,
      "hit": false,
      "t": 6838.2279999999955,
      "d": 110.29399999999987,
      "v": 127
    },
    {
      "midi": 62,
      "hit": false,
      "t": 6838.227999999996,
      "d": 110.29399999999987,
      "v": 127
    },
    {
      "midi": 67,
      "hit": false,
      "t": 6838.227999999996,
      "d": 110.29399999999987,
      "v": 127
    },
    {
      "midi": 81,
      "hit": false,
      "t": 6948.521999999995,
      "d": 110.29399999999987,
      "v": 127
    },
    {
      "midi": 86,
      "hit": false,
      "t": 6948.521999999995,
      "d": 110.29399999999987,
      "v": 127
    },
    {
      "midi": 69,
      "hit": false,
      "t": 6948.521999999996,
      "d": 110.29399999999987,
      "v": 127
    },
    {
      "midi": 74,
      "hit": false,
      "t": 6948.521999999996,
      "d": 110.29399999999987,
      "v": 127
    },
    {
      "midi": 74,
      "hit": false,
      "t": 7058.815999999995,
      "d": 110.29399999999987,
      "v": 127
    },
    {
      "midi": 79,
      "hit": false,
      "t": 7058.815999999995,
      "d": 110.29399999999987,
      "v": 127
    },
    {
      "midi": 62,
      "hit": false,
      "t": 7058.815999999996,
      "d": 110.29399999999987,
      "v": 127
    },
    {
      "midi": 67,
      "hit": false,
      "t": 7058.815999999996,
      "d": 110.29399999999987,
      "v": 127
    },
    {
      "midi": 81,
      "hit": false,
      "t": 7169.109999999995,
      "d": 110.29399999999987,
      "v": 127
    },
    {
      "midi": 86,
      "hit": false,
      "t": 7169.109999999995,
      "d": 110.29399999999987,
      "v": 127
    },
    {
      "midi": 69,
      "hit": false,
      "t": 7169.109999999996,
      "d": 110.29399999999987,
      "v": 127
    },
    {
      "midi": 74,
      "hit": false,
      "t": 7169.109999999996,
      "d": 110.29399999999987,
      "v": 127
    },
    {
      "midi": 74,
      "hit": false,
      "t": 7279.403999999995,
      "d": 110.29399999999987,
      "v": 127
    },
    {
      "midi": 79,
      "hit": false,
      "t": 7279.403999999995,
      "d": 110.29399999999987,
      "v": 127
    },
    {
      "midi": 62,
      "hit": false,
      "t": 7279.403999999996,
      "d": 110.29399999999987,
      "v": 127
    },
    {
      "midi": 67,
      "hit": false,
      "t": 7279.403999999996,
      "d": 110.29399999999987,
      "v": 127
    },
    {
      "midi": 81,
      "hit": false,
      "t": 7389.697999999995,
      "d": 110.29399999999987,
      "v": 127
    },
    {
      "midi": 86,
      "hit": false,
      "t": 7389.697999999995,
      "d": 110.29399999999987,
      "v": 127
    },
    {
      "midi": 69,
      "hit": false,
      "t": 7389.697999999996,
      "d": 110.29399999999987,
      "v": 127
    },
    {
      "midi": 74,
      "hit": false,
      "t": 7389.697999999996,
      "d": 110.29399999999987,
      "v": 127
    },
    {
      "midi": 74,
      "hit": false,
      "t": 7499.991999999995,
      "d": 110.29399999999987,
      "v": 127
    },
    {
      "midi": 79,
      "hit": false,
      "t": 7499.991999999995,
      "d": 110.29399999999987,
      "v": 127
    },
    {
      "midi": 62,
      "hit": false,
      "t": 7499.991999999996,
      "d": 110.29399999999987,
      "v": 127
    },
    {
      "midi": 67,
      "hit": false,
      "t": 7499.991999999996,
      "d": 110.29399999999987,
      "v": 127
    },
    {
      "midi": 81,
      "hit": false,
      "t": 7610.285999999995,
      "d": 110.29399999999987,
      "v": 127
    },
    {
      "midi": 86,
      "hit": false,
      "t": 7610.285999999995,
      "d": 110.29399999999987,
      "v": 127
    },
    {
      "midi": 69,
      "hit": false,
      "t": 7610.2859999999955,
      "d": 110.29399999999987,
      "v": 127
    },
    {
      "midi": 74,
      "hit": false,
      "t": 7610.2859999999955,
      "d": 110.29399999999987,
      "v": 127
    },
    {
      "midi": 74,
      "hit": false,
      "t": 7720.5799999999945,
      "d": 110.29399999999987,
      "v": 127
    },
    {
      "midi": 79,
      "hit": false,
      "t": 7720.5799999999945,
      "d": 110.29399999999987,
      "v": 127
    },
    {
      "midi": 62,
      "hit": false,
      "t": 7720.579999999995,
      "d": 110.29399999999987,
      "v": 127
    },
    {
      "midi": 67,
      "hit": false,
      "t": 7720.579999999995,
      "d": 110.29399999999987,
      "v": 127
    },
    {
      "midi": 81,
      "hit": false,
      "t": 7830.873999999994,
      "d": 110.29399999999987,
      "v": 127
    },
    {
      "midi": 86,
      "hit": false,
      "t": 7830.873999999994,
      "d": 110.29399999999987,
      "v": 127
    },
    {
      "midi": 69,
      "hit": false,
      "t": 7830.873999999995,
      "d": 110.29399999999987,
      "v": 127
    },
    {
      "midi": 74,
      "hit": false,
      "t": 7830.873999999995,
      "d": 110.29399999999987,
      "v": 127
    },
    {
      "midi": 74,
      "hit": false,
      "t": 7941.167999999994,
      "d": 110.29399999999987,
      "v": 127
    },
    {
      "midi": 79,
      "hit": false,
      "t": 7941.167999999994,
      "d": 110.29399999999987,
      "v": 127
    },
    {
      "midi": 62,
      "hit": false,
      "t": 7941.167999999995,
      "d": 110.29399999999987,
      "v": 127
    },
    {
      "midi": 67,
      "hit": false,
      "t": 7941.167999999995,
      "d": 110.29399999999987,
      "v": 127
    },
    {
      "midi": 31,
      "hit": false,
      "t": 7941.167999999995,
      "d": 441.1760000000004,
      "v": 127
    },
    {
      "midi": 43,
      "hit": false,
      "t": 7941.167999999995,
      "d": 441.1760000000004,
      "v": 127
    },
    {
      "midi": 81,
      "hit": false,
      "t": 8051.461999999994,
      "d": 110.29399999999987,
      "v": 127
    },
    {
      "midi": 86,
      "hit": false,
      "t": 8051.461999999994,
      "d": 110.29399999999987,
      "v": 127
    },
    {
      "midi": 69,
      "hit": false,
      "t": 8051.461999999995,
      "d": 110.29399999999987,
      "v": 127
    },
    {
      "midi": 74,
      "hit": false,
      "t": 8051.461999999995,
      "d": 110.29399999999987,
      "v": 127
    },
    {
      "midi": 74,
      "hit": false,
      "t": 8161.755999999994,
      "d": 110.29399999999987,
      "v": 127
    },
    {
      "midi": 79,
      "hit": false,
      "t": 8161.755999999994,
      "d": 110.29399999999987,
      "v": 127
    },
    {
      "midi": 62,
      "hit": false,
      "t": 8161.755999999995,
      "d": 110.29400000000078,
      "v": 127
    },
    {
      "midi": 67,
      "hit": false,
      "t": 8161.755999999995,
      "d": 110.29400000000078,
      "v": 127
    },
    {
      "midi": 81,
      "hit": false,
      "t": 8272.049999999994,
      "d": 110.29399999999987,
      "v": 127
    },
    {
      "midi": 86,
      "hit": false,
      "t": 8272.049999999994,
      "d": 110.29399999999987,
      "v": 127
    },
    {
      "midi": 69,
      "hit": false,
      "t": 8272.049999999996,
      "d": 110.29399999999987,
      "v": 127
    },
    {
      "midi": 74,
      "hit": false,
      "t": 8272.049999999996,
      "d": 110.29399999999987,
      "v": 127
    },
    {
      "midi": 74,
      "hit": false,
      "t": 8382.343999999994,
      "d": 110.29399999999987,
      "v": 127
    },
    {
      "midi": 79,
      "hit": false,
      "t": 8382.343999999994,
      "d": 110.29399999999987,
      "v": 127
    },
    {
      "midi": 62,
      "hit": false,
      "t": 8382.343999999996,
      "d": 110.29399999999987,
      "v": 127
    },
    {
      "midi": 67,
      "hit": false,
      "t": 8382.343999999996,
      "d": 110.29399999999987,
      "v": 127
    },
    {
      "midi": 37,
      "hit": false,
      "t": 8382.343999999996,
      "d": 441.1759999999995,
      "v": 127
    },
    {
      "midi": 49,
      "hit": false,
      "t": 8382.343999999996,
      "d": 441.1759999999995,
      "v": 127
    },
    {
      "midi": 81,
      "hit": false,
      "t": 8492.637999999994,
      "d": 110.29399999999987,
      "v": 127
    },
    {
      "midi": 86,
      "hit": false,
      "t": 8492.637999999994,
      "d": 110.29399999999987,
      "v": 127
    },
    {
      "midi": 69,
      "hit": false,
      "t": 8492.637999999995,
      "d": 110.29399999999987,
      "v": 127
    },
    {
      "midi": 74,
      "hit": false,
      "t": 8492.637999999995,
      "d": 110.29399999999987,
      "v": 127
    },
    {
      "midi": 74,
      "hit": false,
      "t": 8602.931999999993,
      "d": 110.29399999999987,
      "v": 127
    },
    {
      "midi": 79,
      "hit": false,
      "t": 8602.931999999993,
      "d": 110.29399999999987,
      "v": 127
    },
    {
      "midi": 62,
      "hit": false,
      "t": 8602.931999999995,
      "d": 110.29399999999987,
      "v": 127
    },
    {
      "midi": 67,
      "hit": false,
      "t": 8602.931999999995,
      "d": 110.29399999999987,
      "v": 127
    },
    {
      "midi": 81,
      "hit": false,
      "t": 8713.225999999993,
      "d": 110.29399999999987,
      "v": 127
    },
    {
      "midi": 86,
      "hit": false,
      "t": 8713.225999999993,
      "d": 110.29399999999987,
      "v": 127
    },
    {
      "midi": 69,
      "hit": false,
      "t": 8713.225999999995,
      "d": 110.29399999999987,
      "v": 127
    },
    {
      "midi": 74,
      "hit": false,
      "t": 8713.225999999995,
      "d": 110.29399999999987,
      "v": 127
    },
    {
      "midi": 74,
      "hit": false,
      "t": 8823.519999999993,
      "d": 110.29399999999987,
      "v": 127
    },
    {
      "midi": 79,
      "hit": false,
      "t": 8823.519999999993,
      "d": 110.29399999999987,
      "v": 127
    },
    {
      "midi": 62,
      "hit": false,
      "t": 8823.519999999995,
      "d": 110.29399999999987,
      "v": 127
    },
    {
      "midi": 67,
      "hit": false,
      "t": 8823.519999999995,
      "d": 110.29399999999987,
      "v": 127
    },
    {
      "midi": 38,
      "hit": false,
      "t": 8823.519999999995,
      "d": 220.58799999999974,
      "v": 127
    },
    {
      "midi": 50,
      "hit": false,
      "t": 8823.519999999995,
      "d": 220.58799999999974,
      "v": 127
    },
    {
      "midi": 81,
      "hit": false,
      "t": 8933.813999999993,
      "d": 110.29399999999987,
      "v": 127
    },
    {
      "midi": 86,
      "hit": false,
      "t": 8933.813999999993,
      "d": 110.29399999999987,
      "v": 127
    },
    {
      "midi": 69,
      "hit": false,
      "t": 8933.813999999995,
      "d": 110.29399999999987,
      "v": 127
    },
    {
      "midi": 74,
      "hit": false,
      "t": 8933.813999999995,
      "d": 110.29399999999987,
      "v": 127
    },
    {
      "midi": 74,
      "hit": false,
      "t": 9044.107999999993,
      "d": 110.29399999999987,
      "v": 127
    },
    {
      "midi": 79,
      "hit": false,
      "t": 9044.107999999993,
      "d": 110.29399999999987,
      "v": 127
    },
    {
      "midi": 62,
      "hit": false,
      "t": 9044.107999999995,
      "d": 110.29399999999987,
      "v": 127
    },
    {
      "midi": 67,
      "hit": false,
      "t": 9044.107999999995,
      "d": 110.29399999999987,
      "v": 127
    },
    {
      "midi": 81,
      "hit": false,
      "t": 9154.401999999993,
      "d": 110.29399999999987,
      "v": 127
    },
    {
      "midi": 86,
      "hit": false,
      "t": 9154.401999999993,
      "d": 110.29399999999987,
      "v": 127
    },
    {
      "midi": 69,
      "hit": false,
      "t": 9154.401999999995,
      "d": 110.29399999999987,
      "v": 127
    },
    {
      "midi": 74,
      "hit": false,
      "t": 9154.401999999995,
      "d": 110.29399999999987,
      "v": 127
    },
    {
      "midi": 74,
      "hit": false,
      "t": 9264.695999999993,
      "d": 110.29399999999987,
      "v": 127
    },
    {
      "midi": 79,
      "hit": false,
      "t": 9264.695999999993,
      "d": 110.29399999999987,
      "v": 127
    },
    {
      "midi": 62,
      "hit": false,
      "t": 9264.695999999994,
      "d": 110.29399999999987,
      "v": 127
    },
    {
      "midi": 67,
      "hit": false,
      "t": 9264.695999999994,
      "d": 110.29399999999987,
      "v": 127
    },
    {
      "midi": 81,
      "hit": false,
      "t": 9374.989999999993,
      "d": 110.29399999999987,
      "v": 127
    },
    {
      "midi": 86,
      "hit": false,
      "t": 9374.989999999993,
      "d": 110.29399999999987,
      "v": 127
    },
    {
      "midi": 69,
      "hit": false,
      "t": 9374.989999999994,
      "d": 110.29399999999987,
      "v": 127
    },
    {
      "midi": 74,
      "hit": false,
      "t": 9374.989999999994,
      "d": 110.29399999999987,
      "v": 127
    },
    {
      "midi": 74,
      "hit": false,
      "t": 9485.283999999992,
      "d": 110.29399999999987,
      "v": 127
    },
    {
      "midi": 79,
      "hit": false,
      "t": 9485.283999999992,
      "d": 110.29399999999987,
      "v": 127
    },
    {
      "midi": 62,
      "hit": false,
      "t": 9485.283999999994,
      "d": 110.29399999999987,
      "v": 127
    },
    {
      "midi": 67,
      "hit": false,
      "t": 9485.283999999994,
      "d": 110.29399999999987,
      "v": 127
    },
    {
      "midi": 81,
      "hit": false,
      "t": 9595.577999999992,
      "d": 110.29399999999987,
      "v": 127
    },
    {
      "midi": 86,
      "hit": false,
      "t": 9595.577999999992,
      "d": 110.29399999999987,
      "v": 127
    },
    {
      "midi": 69,
      "hit": false,
      "t": 9595.577999999994,
      "d": 110.29399999999987,
      "v": 127
    },
    {
      "midi": 74,
      "hit": false,
      "t": 9595.577999999994,
      "d": 110.29399999999987,
      "v": 127
    },
    {
      "midi": 74,
      "hit": false,
      "t": 9705.871999999992,
      "d": 110.29399999999987,
      "v": 127
    },
    {
      "midi": 79,
      "hit": false,
      "t": 9705.871999999992,
      "d": 110.29399999999987,
      "v": 127
    },
    {
      "midi": 62,
      "hit": false,
      "t": 9705.871999999994,
      "d": 110.29399999999987,
      "v": 127
    },
    {
      "midi": 67,
      "hit": false,
      "t": 9705.871999999994,
      "d": 110.29399999999987,
      "v": 127
    },
    {
      "midi": 31,
      "hit": false,
      "t": 9705.871999999994,
      "d": 441.1759999999995,
      "v": 127
    },
    {
      "midi": 43,
      "hit": false,
      "t": 9705.871999999994,
      "d": 441.1759999999995,
      "v": 127
    },
    {
      "midi": 81,
      "hit": false,
      "t": 9816.165999999992,
      "d": 110.29399999999987,
      "v": 127
    },
    {
      "midi": 86,
      "hit": false,
      "t": 9816.165999999992,
      "d": 110.29399999999987,
      "v": 127
    },
    {
      "midi": 69,
      "hit": false,
      "t": 9816.165999999994,
      "d": 110.29399999999987,
      "v": 127
    },
    {
      "midi": 74,
      "hit": false,
      "t": 9816.165999999994,
      "d": 110.29399999999987,
      "v": 127
    },
    {
      "midi": 74,
      "hit": false,
      "t": 9926.459999999992,
      "d": 110.29399999999987,
      "v": 127
    },
    {
      "midi": 79,
      "hit": false,
      "t": 9926.459999999992,
      "d": 110.29399999999987,
      "v": 127
    },
    {
      "midi": 62,
      "hit": false,
      "t": 9926.459999999994,
      "d": 110.29399999999987,
      "v": 127
    },
    {
      "midi": 67,
      "hit": false,
      "t": 9926.459999999994,
      "d": 110.29399999999987,
      "v": 127
    },
    {
      "midi": 81,
      "hit": false,
      "t": 10036.753999999992,
      "d": 110.29399999999987,
      "v": 127
    },
    {
      "midi": 86,
      "hit": false,
      "t": 10036.753999999992,
      "d": 110.29399999999987,
      "v": 127
    },
    {
      "midi": 69,
      "hit": false,
      "t": 10036.753999999994,
      "d": 110.29399999999987,
      "v": 127
    },
    {
      "midi": 74,
      "hit": false,
      "t": 10036.753999999994,
      "d": 110.29399999999987,
      "v": 127
    },
    {
      "midi": 74,
      "hit": false,
      "t": 10147.047999999992,
      "d": 110.29399999999987,
      "v": 127
    },
    {
      "midi": 79,
      "hit": false,
      "t": 10147.047999999992,
      "d": 110.29399999999987,
      "v": 127
    },
    {
      "midi": 62,
      "hit": false,
      "t": 10147.047999999993,
      "d": 110.29399999999987,
      "v": 127
    },
    {
      "midi": 67,
      "hit": false,
      "t": 10147.047999999993,
      "d": 110.29399999999987,
      "v": 127
    },
    {
      "midi": 37,
      "hit": false,
      "t": 10147.047999999993,
      "d": 441.1759999999995,
      "v": 127
    },
    {
      "midi": 49,
      "hit": false,
      "t": 10147.047999999993,
      "d": 441.1759999999995,
      "v": 127
    },
    {
      "midi": 81,
      "hit": false,
      "t": 10257.341999999991,
      "d": 110.29399999999987,
      "v": 127
    },
    {
      "midi": 86,
      "hit": false,
      "t": 10257.341999999991,
      "d": 110.29399999999987,
      "v": 127
    },
    {
      "midi": 69,
      "hit": false,
      "t": 10257.341999999993,
      "d": 110.29399999999987,
      "v": 127
    },
    {
      "midi": 74,
      "hit": false,
      "t": 10257.341999999993,
      "d": 110.29399999999987,
      "v": 127
    },
    {
      "midi": 74,
      "hit": false,
      "t": 10367.635999999991,
      "d": 110.29399999999987,
      "v": 127
    },
    {
      "midi": 79,
      "hit": false,
      "t": 10367.635999999991,
      "d": 110.29399999999987,
      "v": 127
    },
    {
      "midi": 62,
      "hit": false,
      "t": 10367.635999999993,
      "d": 110.29399999999987,
      "v": 127
    },
    {
      "midi": 67,
      "hit": false,
      "t": 10367.635999999993,
      "d": 110.29399999999987,
      "v": 127
    },
    {
      "midi": 81,
      "hit": false,
      "t": 10477.929999999991,
      "d": 110.29399999999987,
      "v": 127
    },
    {
      "midi": 86,
      "hit": false,
      "t": 10477.929999999991,
      "d": 110.29399999999987,
      "v": 127
    },
    {
      "midi": 69,
      "hit": false,
      "t": 10477.929999999993,
      "d": 110.29399999999987,
      "v": 127
    },
    {
      "midi": 74,
      "hit": false,
      "t": 10477.929999999993,
      "d": 110.29399999999987,
      "v": 127
    },
    {
      "midi": 74,
      "hit": false,
      "t": 10588.223999999991,
      "d": 110.29399999999987,
      "v": 127
    },
    {
      "midi": 79,
      "hit": false,
      "t": 10588.223999999991,
      "d": 110.29399999999987,
      "v": 127
    },
    {
      "midi": 62,
      "hit": false,
      "t": 10588.223999999993,
      "d": 110.29399999999987,
      "v": 127
    },
    {
      "midi": 67,
      "hit": false,
      "t": 10588.223999999993,
      "d": 110.29399999999987,
      "v": 127
    },
    {
      "midi": 38,
      "hit": false,
      "t": 10588.223999999993,
      "d": 220.58799999999974,
      "v": 127
    },
    {
      "midi": 50,
      "hit": false,
      "t": 10588.223999999993,
      "d": 220.58799999999974,
      "v": 127
    },
    {
      "midi": 81,
      "hit": false,
      "t": 10698.517999999991,
      "d": 110.29399999999987,
      "v": 127
    },
    {
      "midi": 86,
      "hit": false,
      "t": 10698.517999999991,
      "d": 110.29399999999987,
      "v": 127
    },
    {
      "midi": 69,
      "hit": false,
      "t": 10698.517999999993,
      "d": 110.29399999999987,
      "v": 127
    },
    {
      "midi": 74,
      "hit": false,
      "t": 10698.517999999993,
      "d": 110.29399999999987,
      "v": 127
    },
    {
      "midi": 74,
      "hit": false,
      "t": 10808.81199999999,
      "d": 110.29399999999987,
      "v": 127
    },
    {
      "midi": 79,
      "hit": false,
      "t": 10808.81199999999,
      "d": 110.29399999999987,
      "v": 127
    },
    {
      "midi": 62,
      "hit": false,
      "t": 10808.811999999993,
      "d": 110.29399999999987,
      "v": 127
    },
    {
      "midi": 67,
      "hit": false,
      "t": 10808.811999999993,
      "d": 110.29399999999987,
      "v": 127
    },
    {
      "midi": 81,
      "hit": false,
      "t": 10919.10599999999,
      "d": 110.29399999999987,
      "v": 127
    },
    {
      "midi": 86,
      "hit": false,
      "t": 10919.10599999999,
      "d": 110.29399999999987,
      "v": 127
    },
    {
      "midi": 69,
      "hit": false,
      "t": 10919.105999999992,
      "d": 110.29399999999987,
      "v": 127
    },
    {
      "midi": 74,
      "hit": false,
      "t": 10919.105999999992,
      "d": 110.29399999999987,
      "v": 127
    },
    {
      "midi": 74,
      "hit": false,
      "t": 11029.39999999999,
      "d": 110.29399999999987,
      "v": 127
    },
    {
      "midi": 79,
      "hit": false,
      "t": 11029.39999999999,
      "d": 110.29399999999987,
      "v": 127
    },
    {
      "midi": 62,
      "hit": false,
      "t": 11029.399999999992,
      "d": 110.29399999999987,
      "v": 127
    },
    {
      "midi": 67,
      "hit": false,
      "t": 11029.399999999992,
      "d": 110.29399999999987,
      "v": 127
    },
    {
      "midi": 81,
      "hit": false,
      "t": 11139.69399999999,
      "d": 110.29399999999987,
      "v": 127
    },
    {
      "midi": 86,
      "hit": false,
      "t": 11139.69399999999,
      "d": 110.29399999999987,
      "v": 127
    },
    {
      "midi": 69,
      "hit": false,
      "t": 11139.693999999992,
      "d": 110.29399999999987,
      "v": 127
    },
    {
      "midi": 74,
      "hit": false,
      "t": 11139.693999999992,
      "d": 110.29399999999987,
      "v": 127
    },
    {
      "midi": 74,
      "hit": false,
      "t": 11249.98799999999,
      "d": 110.29399999999987,
      "v": 127
    },
    {
      "midi": 79,
      "hit": false,
      "t": 11249.98799999999,
      "d": 110.29399999999987,
      "v": 127
    },
    {
      "midi": 62,
      "hit": false,
      "t": 11249.987999999992,
      "d": 110.29399999999987,
      "v": 127
    },
    {
      "midi": 67,
      "hit": false,
      "t": 11249.987999999992,
      "d": 110.29399999999987,
      "v": 127
    },
    {
      "midi": 81,
      "hit": false,
      "t": 11360.28199999999,
      "d": 110.29399999999987,
      "v": 127
    },
    {
      "midi": 86,
      "hit": false,
      "t": 11360.28199999999,
      "d": 110.29399999999987,
      "v": 127
    },
    {
      "midi": 69,
      "hit": false,
      "t": 11360.281999999992,
      "d": 110.29399999999987,
      "v": 127
    },
    {
      "midi": 74,
      "hit": false,
      "t": 11360.281999999992,
      "d": 110.29399999999987,
      "v": 127
    },
    {
      "midi": 74,
      "hit": false,
      "t": 11470.57599999999,
      "d": 110.29399999999987,
      "v": 127
    },
    {
      "midi": 79,
      "hit": false,
      "t": 11470.57599999999,
      "d": 110.29399999999987,
      "v": 127
    },
    {
      "midi": 62,
      "hit": false,
      "t": 11470.575999999992,
      "d": 110.29399999999987,
      "v": 127
    },
    {
      "midi": 67,
      "hit": false,
      "t": 11470.575999999992,
      "d": 110.29399999999987,
      "v": 127
    },
    {
      "midi": 31,
      "hit": false,
      "t": 11470.575999999992,
      "d": 441.1759999999995,
      "v": 127
    },
    {
      "midi": 43,
      "hit": false,
      "t": 11470.575999999992,
      "d": 441.1759999999995,
      "v": 127
    },
    {
      "midi": 81,
      "hit": false,
      "t": 11580.86999999999,
      "d": 110.29399999999987,
      "v": 127
    },
    {
      "midi": 86,
      "hit": false,
      "t": 11580.86999999999,
      "d": 110.29399999999987,
      "v": 127
    },
    {
      "midi": 69,
      "hit": false,
      "t": 11580.869999999992,
      "d": 110.29399999999987,
      "v": 127
    },
    {
      "midi": 74,
      "hit": false,
      "t": 11580.869999999992,
      "d": 110.29399999999987,
      "v": 127
    },
    {
      "midi": 74,
      "hit": false,
      "t": 11691.16399999999,
      "d": 110.29399999999987,
      "v": 127
    },
    {
      "midi": 79,
      "hit": false,
      "t": 11691.16399999999,
      "d": 110.29399999999987,
      "v": 127
    },
    {
      "midi": 62,
      "hit": false,
      "t": 11691.163999999992,
      "d": 110.29399999999987,
      "v": 127
    },
    {
      "midi": 67,
      "hit": false,
      "t": 11691.163999999992,
      "d": 110.29399999999987,
      "v": 127
    },
    {
      "midi": 81,
      "hit": false,
      "t": 11801.45799999999,
      "d": 110.29399999999987,
      "v": 127
    },
    {
      "midi": 86,
      "hit": false,
      "t": 11801.45799999999,
      "d": 110.29399999999987,
      "v": 127
    },
    {
      "midi": 69,
      "hit": false,
      "t": 11801.457999999991,
      "d": 110.29399999999987,
      "v": 127
    },
    {
      "midi": 74,
      "hit": false,
      "t": 11801.457999999991,
      "d": 110.29399999999987,
      "v": 127
    },
    {
      "midi": 74,
      "hit": false,
      "t": 11911.75199999999,
      "d": 110.29399999999987,
      "v": 127
    },
    {
      "midi": 79,
      "hit": false,
      "t": 11911.75199999999,
      "d": 110.29399999999987,
      "v": 127
    },
    {
      "midi": 62,
      "hit": false,
      "t": 11911.751999999991,
      "d": 110.29399999999987,
      "v": 127
    },
    {
      "midi": 67,
      "hit": false,
      "t": 11911.751999999991,
      "d": 110.29399999999987,
      "v": 127
    },
    {
      "midi": 37,
      "hit": false,
      "t": 11911.751999999991,
      "d": 441.1759999999995,
      "v": 127
    },
    {
      "midi": 49,
      "hit": false,
      "t": 11911.751999999991,
      "d": 441.1759999999995,
      "v": 127
    },
    {
      "midi": 81,
      "hit": false,
      "t": 12022.04599999999,
      "d": 110.29399999999987,
      "v": 127
    },
    {
      "midi": 86,
      "hit": false,
      "t": 12022.04599999999,
      "d": 110.29399999999987,
      "v": 127
    },
    {
      "midi": 69,
      "hit": false,
      "t": 12022.045999999991,
      "d": 110.29399999999987,
      "v": 127
    },
    {
      "midi": 74,
      "hit": false,
      "t": 12022.045999999991,
      "d": 110.29399999999987,
      "v": 127
    },
    {
      "midi": 74,
      "hit": false,
      "t": 12132.33999999999,
      "d": 110.29399999999987,
      "v": 127
    },
    {
      "midi": 79,
      "hit": false,
      "t": 12132.33999999999,
      "d": 110.29399999999987,
      "v": 127
    },
    {
      "midi": 62,
      "hit": false,
      "t": 12132.339999999991,
      "d": 110.29399999999987,
      "v": 127
    },
    {
      "midi": 67,
      "hit": false,
      "t": 12132.339999999991,
      "d": 110.29399999999987,
      "v": 127
    },
    {
      "midi": 81,
      "hit": false,
      "t": 12242.63399999999,
      "d": 110.29399999999987,
      "v": 127
    },
    {
      "midi": 86,
      "hit": false,
      "t": 12242.63399999999,
      "d": 110.29399999999987,
      "v": 127
    },
    {
      "midi": 69,
      "hit": false,
      "t": 12242.633999999991,
      "d": 110.29399999999987,
      "v": 127
    },
    {
      "midi": 74,
      "hit": false,
      "t": 12242.633999999991,
      "d": 110.29399999999987,
      "v": 127
    },
    {
      "midi": 74,
      "hit": false,
      "t": 12352.927999999989,
      "d": 110.29399999999987,
      "v": 127
    },
    {
      "midi": 79,
      "hit": false,
      "t": 12352.927999999989,
      "d": 110.29399999999987,
      "v": 127
    },
    {
      "midi": 62,
      "hit": false,
      "t": 12352.92799999999,
      "d": 110.29399999999987,
      "v": 127
    },
    {
      "midi": 67,
      "hit": false,
      "t": 12352.92799999999,
      "d": 110.29399999999987,
      "v": 127
    },
    {
      "midi": 38,
      "hit": false,
      "t": 12352.92799999999,
      "d": 220.58799999999974,
      "v": 127
    },
    {
      "midi": 50,
      "hit": false,
      "t": 12352.92799999999,
      "d": 220.58799999999974,
      "v": 127
    },
    {
      "midi": 81,
      "hit": false,
      "t": 12463.221999999989,
      "d": 110.29399999999987,
      "v": 127
    },
    {
      "midi": 86,
      "hit": false,
      "t": 12463.221999999989,
      "d": 110.29399999999987,
      "v": 127
    },
    {
      "midi": 69,
      "hit": false,
      "t": 12463.22199999999,
      "d": 110.29399999999987,
      "v": 127
    },
    {
      "midi": 74,
      "hit": false,
      "t": 12463.22199999999,
      "d": 110.29399999999987,
      "v": 127
    },
    {
      "midi": 74,
      "hit": false,
      "t": 12573.515999999989,
      "d": 110.29399999999987,
      "v": 127
    },
    {
      "midi": 79,
      "hit": false,
      "t": 12573.515999999989,
      "d": 110.29399999999987,
      "v": 127
    },
    {
      "midi": 62,
      "hit": false,
      "t": 12573.51599999999,
      "d": 110.29399999999987,
      "v": 127
    },
    {
      "midi": 67,
      "hit": false,
      "t": 12573.51599999999,
      "d": 110.29399999999987,
      "v": 127
    },
    {
      "midi": 81,
      "hit": false,
      "t": 12683.809999999989,
      "d": 110.29399999999987,
      "v": 127
    },
    {
      "midi": 86,
      "hit": false,
      "t": 12683.809999999989,
      "d": 110.29399999999987,
      "v": 127
    },
    {
      "midi": 69,
      "hit": false,
      "t": 12683.80999999999,
      "d": 110.29399999999987,
      "v": 127
    },
    {
      "midi": 74,
      "hit": false,
      "t": 12683.80999999999,
      "d": 110.29399999999987,
      "v": 127
    },
    {
      "midi": 74,
      "hit": false,
      "t": 12794.103999999988,
      "d": 110.29399999999987,
      "v": 127
    },
    {
      "midi": 79,
      "hit": false,
      "t": 12794.103999999988,
      "d": 110.29399999999987,
      "v": 127
    },
    {
      "midi": 62,
      "hit": false,
      "t": 12794.10399999999,
      "d": 110.29399999999987,
      "v": 127
    },
    {
      "midi": 67,
      "hit": false,
      "t": 12794.10399999999,
      "d": 110.29399999999987,
      "v": 127
    },
    {
      "midi": 81,
      "hit": false,
      "t": 12904.397999999988,
      "d": 110.29399999999987,
      "v": 127
    },
    {
      "midi": 86,
      "hit": false,
      "t": 12904.397999999988,
      "d": 110.29399999999987,
      "v": 127
    },
    {
      "midi": 69,
      "hit": false,
      "t": 12904.39799999999,
      "d": 110.29399999999987,
      "v": 127
    },
    {
      "midi": 74,
      "hit": false,
      "t": 12904.39799999999,
      "d": 110.29399999999987,
      "v": 127
    },
    {
      "midi": 74,
      "hit": false,
      "t": 13014.691999999988,
      "d": 110.29399999999987,
      "v": 127
    },
    {
      "midi": 79,
      "hit": false,
      "t": 13014.691999999988,
      "d": 110.29399999999987,
      "v": 127
    },
    {
      "midi": 62,
      "hit": false,
      "t": 13014.69199999999,
      "d": 110.29399999999987,
      "v": 127
    },
    {
      "midi": 67,
      "hit": false,
      "t": 13014.69199999999,
      "d": 110.29399999999987,
      "v": 127
    },
    {
      "midi": 81,
      "hit": false,
      "t": 13124.985999999988,
      "d": 110.29399999999987,
      "v": 127
    },
    {
      "midi": 86,
      "hit": false,
      "t": 13124.985999999988,
      "d": 110.29399999999987,
      "v": 127
    },
    {
      "midi": 69,
      "hit": false,
      "t": 13124.98599999999,
      "d": 110.29399999999987,
      "v": 127
    },
    {
      "midi": 74,
      "hit": false,
      "t": 13124.98599999999,
      "d": 110.29399999999987,
      "v": 127
    },
    {
      "midi": 74,
      "hit": false,
      "t": 13235.279999999988,
      "d": 110.29399999999987,
      "v": 127
    },
    {
      "midi": 79,
      "hit": false,
      "t": 13235.279999999988,
      "d": 110.29399999999987,
      "v": 127
    },
    {
      "midi": 62,
      "hit": false,
      "t": 13235.27999999999,
      "d": 110.29399999999987,
      "v": 127
    },
    {
      "midi": 67,
      "hit": false,
      "t": 13235.27999999999,
      "d": 110.29399999999987,
      "v": 127
    },
    {
      "midi": 31,
      "hit": false,
      "t": 13235.27999999999,
      "d": 441.1759999999995,
      "v": 127
    },
    {
      "midi": 43,
      "hit": false,
      "t": 13235.27999999999,
      "d": 441.1759999999995,
      "v": 127
    },
    {
      "midi": 81,
      "hit": false,
      "t": 13345.573999999988,
      "d": 110.29399999999987,
      "v": 127
    },
    {
      "midi": 86,
      "hit": false,
      "t": 13345.573999999988,
      "d": 110.29399999999987,
      "v": 127
    },
    {
      "midi": 69,
      "hit": false,
      "t": 13345.57399999999,
      "d": 110.29399999999987,
      "v": 127
    },
    {
      "midi": 74,
      "hit": false,
      "t": 13345.57399999999,
      "d": 110.29399999999987,
      "v": 127
    },
    {
      "midi": 74,
      "hit": false,
      "t": 13455.867999999988,
      "d": 110.29399999999987,
      "v": 127
    },
    {
      "midi": 79,
      "hit": false,
      "t": 13455.867999999988,
      "d": 110.29399999999987,
      "v": 127
    },
    {
      "midi": 62,
      "hit": false,
      "t": 13455.86799999999,
      "d": 110.29399999999987,
      "v": 127
    },
    {
      "midi": 67,
      "hit": false,
      "t": 13455.86799999999,
      "d": 110.29399999999987,
      "v": 127
    },
    {
      "midi": 81,
      "hit": false,
      "t": 13566.161999999988,
      "d": 110.29399999999987,
      "v": 127
    },
    {
      "midi": 86,
      "hit": false,
      "t": 13566.161999999988,
      "d": 110.29399999999987,
      "v": 127
    },
    {
      "midi": 69,
      "hit": false,
      "t": 13566.16199999999,
      "d": 110.29399999999987,
      "v": 127
    },
    {
      "midi": 74,
      "hit": false,
      "t": 13566.16199999999,
      "d": 110.29399999999987,
      "v": 127
    },
    {
      "midi": 74,
      "hit": false,
      "t": 13676.455999999987,
      "d": 110.29399999999987,
      "v": 127
    },
    {
      "midi": 79,
      "hit": false,
      "t": 13676.455999999987,
      "d": 110.29399999999987,
      "v": 127
    },
    {
      "midi": 62,
      "hit": false,
      "t": 13676.45599999999,
      "d": 110.29399999999987,
      "v": 127
    },
    {
      "midi": 67,
      "hit": false,
      "t": 13676.45599999999,
      "d": 110.29399999999987,
      "v": 127
    },
    {
      "midi": 37,
      "hit": false,
      "t": 13676.45599999999,
      "d": 441.1759999999995,
      "v": 127
    },
    {
      "midi": 49,
      "hit": false,
      "t": 13676.45599999999,
      "d": 441.1759999999995,
      "v": 127
    },
    {
      "midi": 81,
      "hit": false,
      "t": 13786.749999999987,
      "d": 110.29399999999987,
      "v": 127
    },
    {
      "midi": 86,
      "hit": false,
      "t": 13786.749999999987,
      "d": 110.29399999999987,
      "v": 127
    },
    {
      "midi": 69,
      "hit": false,
      "t": 13786.749999999989,
      "d": 110.29399999999987,
      "v": 127
    },
    {
      "midi": 74,
      "hit": false,
      "t": 13786.749999999989,
      "d": 110.29399999999987,
      "v": 127
    },
    {
      "midi": 74,
      "hit": false,
      "t": 13897.043999999987,
      "d": 110.29399999999987,
      "v": 127
    },
    {
      "midi": 79,
      "hit": false,
      "t": 13897.043999999987,
      "d": 110.29399999999987,
      "v": 127
    },
    {
      "midi": 62,
      "hit": false,
      "t": 13897.043999999989,
      "d": 110.29399999999987,
      "v": 127
    },
    {
      "midi": 67,
      "hit": false,
      "t": 13897.043999999989,
      "d": 110.29399999999987,
      "v": 127
    },
    {
      "midi": 81,
      "hit": false,
      "t": 14007.337999999987,
      "d": 110.29399999999987,
      "v": 127
    },
    {
      "midi": 86,
      "hit": false,
      "t": 14007.337999999987,
      "d": 110.29399999999987,
      "v": 127
    },
    {
      "midi": 69,
      "hit": false,
      "t": 14007.337999999989,
      "d": 110.29399999999987,
      "v": 127
    },
    {
      "midi": 74,
      "hit": false,
      "t": 14007.337999999989,
      "d": 110.29399999999987,
      "v": 127
    },
    {
      "midi": 74,
      "hit": false,
      "t": 14117.631999999987,
      "d": 220.58799999999974,
      "v": 127
    },
    {
      "midi": 79,
      "hit": false,
      "t": 14117.631999999987,
      "d": 220.58799999999974,
      "v": 127
    },
    {
      "midi": 38,
      "hit": false,
      "t": 14117.631999999989,
      "d": 220.58799999999974,
      "v": 127
    },
    {
      "midi": 50,
      "hit": false,
      "t": 14117.631999999989,
      "d": 220.58799999999974,
      "v": 127
    },
    {
      "midi": 62,
      "hit": false,
      "t": 14117.631999999989,
      "d": 220.58799999999974,
      "v": 127
    },
    {
      "midi": 67,
      "hit": false,
      "t": 14117.631999999989,
      "d": 220.58799999999974,
      "v": 127
    },
    {
      "midi": 31,
      "hit": false,
      "t": 14558.807999999988,
      "d": 62.49993333333259,
      "v": 127
    },
    {
      "midi": 33,
      "hit": false,
      "t": 14621.30793333332,
      "d": 62.49993333333259,
      "v": 127
    },
    {
      "midi": 35,
      "hit": false,
      "t": 14683.807866666653,
      "d": 62.49993333333259,
      "v": 127
    },
    {
      "midi": 36,
      "hit": false,
      "t": 14746.307799999986,
      "d": 62.49993333333259,
      "v": 127
    },
    {
      "midi": 38,
      "hit": false,
      "t": 14808.807733333319,
      "d": 62.49993333333259,
      "v": 127
    },
    {
      "midi": 40,
      "hit": false,
      "t": 14871.307666666651,
      "d": 62.49993333333259,
      "v": 127
    },
    {
      "midi": 41,
      "hit": false,
      "t": 14933.807599999984,
      "d": 62.49993333333259,
      "v": 127
    },
    {
      "midi": 43,
      "hit": false,
      "t": 14999.983999999982,
      "d": 62.49993333333259,
      "v": 127
    },
    {
      "midi": 45,
      "hit": false,
      "t": 15062.483933333315,
      "d": 62.49993333333259,
      "v": 127
    },
    {
      "midi": 47,
      "hit": false,
      "t": 15124.983866666647,
      "d": 62.49993333333259,
      "v": 127
    },
    {
      "midi": 48,
      "hit": false,
      "t": 15187.48379999998,
      "d": 62.49993333333259,
      "v": 127
    },
    {
      "midi": 50,
      "hit": false,
      "t": 15249.983733333313,
      "d": 62.49993333333259,
      "v": 127
    },
    {
      "midi": 52,
      "hit": false,
      "t": 15312.483666666645,
      "d": 62.49993333333259,
      "v": 127
    },
    {
      "midi": 53,
      "hit": false,
      "t": 15374.983599999978,
      "d": 62.49993333333259,
      "v": 127
    },
    {
      "midi": 55,
      "hit": false,
      "t": 15441.159999999976,
      "d": 62.49993333333259,
      "v": 127
    },
    {
      "midi": 57,
      "hit": false,
      "t": 15503.659933333309,
      "d": 62.49993333333259,
      "v": 127
    },
    {
      "midi": 59,
      "hit": false,
      "t": 15566.159866666641,
      "d": 62.49993333333259,
      "v": 127
    },
    {
      "midi": 60,
      "hit": false,
      "t": 15628.659799999974,
      "d": 62.49993333333259,
      "v": 127
    },
    {
      "midi": 62,
      "hit": false,
      "t": 15691.159733333307,
      "d": 62.49993333333259,
      "v": 127
    },
    {
      "midi": 64,
      "hit": false,
      "t": 15753.65966666664,
      "d": 62.49993333333259,
      "v": 127
    },
    {
      "midi": 65,
      "hit": false,
      "t": 15816.159599999972,
      "d": 62.49993333333259,
      "v": 127
    },
    {
      "midi": 67,
      "hit": false,
      "t": 15882.335999999987,
      "d": 62.49993333333259,
      "v": 127
    },
    {
      "midi": 69,
      "hit": false,
      "t": 15944.83593333332,
      "d": 62.49993333333259,
      "v": 127
    },
    {
      "midi": 71,
      "hit": false,
      "t": 16007.335866666652,
      "d": 62.49993333333259,
      "v": 127
    },
    {
      "midi": 72,
      "hit": false,
      "t": 16069.835799999984,
      "d": 62.49993333333259,
      "v": 127
    },
    {
      "midi": 74,
      "hit": false,
      "t": 16132.335733333317,
      "d": 62.49993333333259,
      "v": 127
    },
    {
      "midi": 76,
      "hit": false,
      "t": 16194.83566666665,
      "d": 62.49993333333259,
      "v": 127
    },
    {
      "midi": 77,
      "hit": false,
      "t": 16257.335599999982,
      "d": 62.49993333333259,
      "v": 127
    },
    {
      "midi": 67,
      "hit": false,
      "t": 16323.51199999998,
      "d": 62.49993333333259,
      "v": 127
    },
    {
      "midi": 69,
      "hit": false,
      "t": 16386.011933333313,
      "d": 62.49993333333259,
      "v": 127
    },
    {
      "midi": 71,
      "hit": false,
      "t": 16448.511866666646,
      "d": 62.49993333333259,
      "v": 127
    },
    {
      "midi": 72,
      "hit": false,
      "t": 16511.01179999998,
      "d": 62.49993333333259,
      "v": 127
    },
    {
      "midi": 74,
      "hit": false,
      "t": 16573.51173333331,
      "d": 62.49993333333259,
      "v": 127
    },
    {
      "midi": 76,
      "hit": false,
      "t": 16636.011666666644,
      "d": 62.49993333333259,
      "v": 127
    },
    {
      "midi": 77,
      "hit": false,
      "t": 16698.511599999976,
      "d": 62.49993333333259,
      "v": 127
    },
    {
      "midi": 79,
      "hit": false,
      "t": 16764.687999999976,
      "d": 62.49993333333259,
      "v": 127
    },
    {
      "midi": 81,
      "hit": false,
      "t": 16827.18793333331,
      "d": 62.49993333333259,
      "v": 127
    },
    {
      "midi": 83,
      "hit": false,
      "t": 16889.68786666664,
      "d": 62.49993333333259,
      "v": 127
    },
    {
      "midi": 84,
      "hit": false,
      "t": 16952.187799999974,
      "d": 62.49993333333259,
      "v": 127
    },
    {
      "midi": 86,
      "hit": false,
      "t": 17014.687733333307,
      "d": 62.49993333333259,
      "v": 127
    },
    {
      "midi": 88,
      "hit": false,
      "t": 17077.18766666664,
      "d": 62.49993333333259,
      "v": 127
    },
    {
      "midi": 89,
      "hit": false,
      "t": 17139.687599999972,
      "d": 62.49993333333259,
      "v": 127
    },
    {
      "midi": 79,
      "hit": false,
      "t": 17205.863999999972,
      "d": 62.49993333333259,
      "v": 127
    },
    {
      "midi": 81,
      "hit": false,
      "t": 17268.363933333305,
      "d": 62.49993333333259,
      "v": 127
    },
    {
      "midi": 83,
      "hit": false,
      "t": 17330.863866666637,
      "d": 62.49993333333259,
      "v": 127
    },
    {
      "midi": 84,
      "hit": false,
      "t": 17393.36379999997,
      "d": 62.49993333333259,
      "v": 127
    },
    {
      "midi": 86,
      "hit": false,
      "t": 17455.863733333303,
      "d": 62.49993333333259,
      "v": 127
    },
    {
      "midi": 88,
      "hit": false,
      "t": 17518.363666666635,
      "d": 62.49993333333259,
      "v": 127
    },
    {
      "midi": 89,
      "hit": false,
      "t": 17580.863599999968,
      "d": 62.49993333333259,
      "v": 127
    },
    {
      "midi": 91,
      "hit": false,
      "t": 17647.039999999968,
      "d": 62.49993333333259,
      "v": 127
    },
    {
      "midi": 93,
      "hit": false,
      "t": 17709.5399333333,
      "d": 62.49993333333259,
      "v": 127
    },
    {
      "midi": 95,
      "hit": false,
      "t": 17772.039866666633,
      "d": 62.49993333333259,
      "v": 127
    },
    {
      "midi": 96,
      "hit": false,
      "t": 17834.539799999966,
      "d": 62.49993333333259,
      "v": 127
    },
    {
      "midi": 98,
      "hit": false,
      "t": 17897.0397333333,
      "d": 62.49993333333259,
      "v": 127
    },
    {
      "midi": 100,
      "hit": false,
      "t": 17959.53966666663,
      "d": 62.49993333333259,
      "v": 127
    },
    {
      "midi": 101,
      "hit": false,
      "t": 18022.039599999964,
      "d": 62.49993333333259,
      "v": 127
    },
    {
      "midi": 43,
      "hit": false,
      "t": 18088.21599999997,
      "d": 62.49993333333259,
      "v": 127
    },
    {
      "midi": 45,
      "hit": false,
      "t": 18150.715933333304,
      "d": 62.49993333333259,
      "v": 127
    },
    {
      "midi": 47,
      "hit": false,
      "t": 18213.215866666636,
      "d": 62.49993333333259,
      "v": 127
    },
    {
      "midi": 48,
      "hit": false,
      "t": 18275.71579999997,
      "d": 62.49993333333259,
      "v": 127
    },
    {
      "midi": 50,
      "hit": false,
      "t": 18338.2157333333,
      "d": 62.49993333333259,
      "v": 127
    },
    {
      "midi": 52,
      "hit": false,
      "t": 18400.715666666634,
      "d": 62.49993333333259,
      "v": 127
    },
    {
      "midi": 53,
      "hit": false,
      "t": 18463.215599999967,
      "d": 62.49993333333259,
      "v": 127
    },
    {
      "midi": 55,
      "hit": false,
      "t": 18529.391999999967,
      "d": 62.49993333333259,
      "v": 127
    },
    {
      "midi": 57,
      "hit": false,
      "t": 18591.8919333333,
      "d": 62.49993333333259,
      "v": 127
    },
    {
      "midi": 59,
      "hit": false,
      "t": 18654.391866666632,
      "d": 62.49993333333259,
      "v": 127
    },
    {
      "midi": 60,
      "hit": false,
      "t": 18716.891799999965,
      "d": 62.49993333333259,
      "v": 127
    },
    {
      "midi": 62,
      "hit": false,
      "t": 18779.391733333297,
      "d": 62.49993333333259,
      "v": 127
    },
    {
      "midi": 64,
      "hit": false,
      "t": 18841.89166666663,
      "d": 62.49993333333259,
      "v": 127
    },
    {
      "midi": 65,
      "hit": false,
      "t": 18904.391599999963,
      "d": 62.49993333333259,
      "v": 127
    },
    {
      "midi": 67,
      "hit": false,
      "t": 18970.567999999963,
      "d": 62.49993333333259,
      "v": 127
    },
    {
      "midi": 69,
      "hit": false,
      "t": 19033.067933333296,
      "d": 62.49993333333259,
      "v": 127
    },
    {
      "midi": 71,
      "hit": false,
      "t": 19095.567866666628,
      "d": 62.49993333333259,
      "v": 127
    },
    {
      "midi": 72,
      "hit": false,
      "t": 19158.06779999996,
      "d": 62.49993333333259,
      "v": 127
    },
    {
      "midi": 74,
      "hit": false,
      "t": 19220.567733333293,
      "d": 62.49993333333259,
      "v": 127
    },
    {
      "midi": 76,
      "hit": false,
      "t": 19283.067666666626,
      "d": 62.49993333333259,
      "v": 127
    },
    {
      "midi": 77,
      "hit": false,
      "t": 19345.56759999996,
      "d": 62.49993333333259,
      "v": 127
    },
    {
      "midi": 79,
      "hit": false,
      "t": 19411.74399999996,
      "d": 62.49993333333259,
      "v": 127
    },
    {
      "midi": 81,
      "hit": false,
      "t": 19474.24393333329,
      "d": 62.49993333333259,
      "v": 127
    },
    {
      "midi": 83,
      "hit": false,
      "t": 19536.743866666624,
      "d": 62.49993333333259,
      "v": 127
    },
    {
      "midi": 84,
      "hit": false,
      "t": 19599.243799999957,
      "d": 62.49993333333259,
      "v": 127
    },
    {
      "midi": 86,
      "hit": false,
      "t": 19661.74373333329,
      "d": 62.49993333333259,
      "v": 127
    },
    {
      "midi": 88,
      "hit": false,
      "t": 19724.24366666662,
      "d": 62.49993333333259,
      "v": 127
    },
    {
      "midi": 89,
      "hit": false,
      "t": 19786.743599999954,
      "d": 62.49993333333259,
      "v": 127
    },
    {
      "midi": 76,
      "hit": false,
      "t": 19852.919999999955,
      "d": 110.29400000000169,
      "v": 127
    },
    {
      "midi": 88,
      "hit": false,
      "t": 19852.919999999955,
      "d": 110.29400000000169,
      "v": 127
    },
    {
      "midi": 36,
      "hit": false,
      "t": 19852.919999999962,
      "d": 220.58799999999974,
      "v": 127
    },
    {
      "midi": 48,
      "hit": false,
      "t": 19852.919999999962,
      "d": 220.58799999999974,
      "v": 127
    },
    {
      "midi": 60,
      "hit": false,
      "t": 19852.919999999962,
      "d": 220.58799999999974,
      "v": 127
    },
    {
      "midi": 60,
      "hit": false,
      "t": 20073.50799999996,
      "d": 220.58799999999974,
      "v": 127
    },
    {
      "midi": 64,
      "hit": false,
      "t": 20073.50799999996,
      "d": 220.58799999999974,
      "v": 127
    },
    {
      "midi": 67,
      "hit": false,
      "t": 20073.50799999996,
      "d": 220.58799999999974,
      "v": 127
    },
    {
      "midi": 76,
      "hit": false,
      "t": 20294.095999999958,
      "d": 110.29400000000169,
      "v": 127
    },
    {
      "midi": 88,
      "hit": false,
      "t": 20294.095999999958,
      "d": 110.29400000000169,
      "v": 127
    },
    {
      "midi": 48,
      "hit": false,
      "t": 20294.09599999996,
      "d": 220.58799999999974,
      "v": 127
    },
    {
      "midi": 60,
      "hit": false,
      "t": 20294.09599999996,
      "d": 220.58799999999974,
      "v": 127
    },
    {
      "midi": 60,
      "hit": false,
      "t": 20514.68399999996,
      "d": 220.58799999999974,
      "v": 127
    },
    {
      "midi": 64,
      "hit": false,
      "t": 20514.68399999996,
      "d": 220.58799999999974,
      "v": 127
    },
    {
      "midi": 67,
      "hit": false,
      "t": 20514.68399999996,
      "d": 220.58799999999974,
      "v": 127
    },
    {
      "midi": 76,
      "hit": false,
      "t": 20735.27199999996,
      "d": 110.29400000000169,
      "v": 127
    },
    {
      "midi": 88,
      "hit": false,
      "t": 20735.27199999996,
      "d": 110.29400000000169,
      "v": 127
    },
    {
      "midi": 47,
      "hit": false,
      "t": 20735.27199999996,
      "d": 220.58799999999974,
      "v": 127
    },
    {
      "midi": 59,
      "hit": false,
      "t": 20735.27199999996,
      "d": 220.58799999999974,
      "v": 127
    },
    {
      "midi": 59,
      "hit": false,
      "t": 20955.85999999996,
      "d": 220.58799999999974,
      "v": 127
    },
    {
      "midi": 64,
      "hit": false,
      "t": 20955.85999999996,
      "d": 220.58799999999974,
      "v": 127
    },
    {
      "midi": 67,
      "hit": false,
      "t": 20955.85999999996,
      "d": 220.58799999999974,
      "v": 127
    },
    {
      "midi": 47,
      "hit": false,
      "t": 21176.44799999996,
      "d": 220.58799999999974,
      "v": 127
    },
    {
      "midi": 59,
      "hit": false,
      "t": 21176.44799999996,
      "d": 220.58799999999974,
      "v": 127
    },
    {
      "midi": 76,
      "hit": false,
      "t": 21176.447999999964,
      "d": 110.29400000000169,
      "v": 127
    },
    {
      "midi": 88,
      "hit": false,
      "t": 21176.447999999964,
      "d": 110.29400000000169,
      "v": 127
    },
    {
      "midi": 59,
      "hit": false,
      "t": 21397.03599999996,
      "d": 220.58799999999974,
      "v": 127
    },
    {
      "midi": 64,
      "hit": false,
      "t": 21397.03599999996,
      "d": 220.58799999999974,
      "v": 127
    },
    {
      "midi": 67,
      "hit": false,
      "t": 21397.03599999996,
      "d": 220.58799999999974,
      "v": 127
    },
    {
      "midi": 46,
      "hit": false,
      "t": 21617.62399999996,
      "d": 220.58799999999974,
      "v": 127
    },
    {
      "midi": 58,
      "hit": false,
      "t": 21617.62399999996,
      "d": 220.58799999999974,
      "v": 127
    },
    {
      "midi": 76,
      "hit": false,
      "t": 21617.623999999967,
      "d": 147.0586666666677,
      "v": 127
    },
    {
      "midi": 88,
      "hit": false,
      "t": 21617.623999999967,
      "d": 147.0586666666677,
      "v": 127
    },
    {
      "midi": 77,
      "hit": false,
      "t": 21764.682666666635,
      "d": 147.0586666666677,
      "v": 127
    },
    {
      "midi": 89,
      "hit": false,
      "t": 21764.682666666635,
      "d": 147.0586666666677,
      "v": 127
    },
    {
      "midi": 58,
      "hit": false,
      "t": 21838.21199999996,
      "d": 220.58799999999974,
      "v": 127
    },
    {
      "midi": 62,
      "hit": false,
      "t": 21838.21199999996,
      "d": 220.58799999999974,
      "v": 127
    },
    {
      "midi": 64,
      "hit": false,
      "t": 21838.21199999996,
      "d": 220.58799999999974,
      "v": 127
    },
    {
      "midi": 67,
      "hit": false,
      "t": 21838.21199999996,
      "d": 220.58799999999974,
      "v": 127
    },
    {
      "midi": 76,
      "hit": false,
      "t": 21911.741333333302,
      "d": 147.0586666666677,
      "v": 127
    },
    {
      "midi": 88,
      "hit": false,
      "t": 21911.741333333302,
      "d": 147.0586666666677,
      "v": 127
    },
    {
      "midi": 46,
      "hit": false,
      "t": 22058.79999999996,
      "d": 220.58799999999974,
      "v": 127
    },
    {
      "midi": 58,
      "hit": false,
      "t": 22058.79999999996,
      "d": 220.58799999999974,
      "v": 127
    },
    {
      "midi": 75,
      "hit": false,
      "t": 22058.79999999997,
      "d": 110.29400000000169,
      "v": 127
    },
    {
      "midi": 87,
      "hit": false,
      "t": 22058.79999999997,
      "d": 110.29400000000169,
      "v": 127
    },
    {
      "midi": 58,
      "hit": false,
      "t": 22279.38799999996,
      "d": 220.58799999999974,
      "v": 127
    },
    {
      "midi": 62,
      "hit": false,
      "t": 22279.38799999996,
      "d": 220.58799999999974,
      "v": 127
    },
    {
      "midi": 64,
      "hit": false,
      "t": 22279.38799999996,
      "d": 220.58799999999974,
      "v": 127
    },
    {
      "midi": 67,
      "hit": false,
      "t": 22279.38799999996,
      "d": 220.58799999999974,
      "v": 127
    },
    {
      "midi": 76,
      "hit": false,
      "t": 22279.387999999974,
      "d": 110.29400000000169,
      "v": 127
    },
    {
      "midi": 88,
      "hit": false,
      "t": 22279.387999999974,
      "d": 110.29400000000169,
      "v": 127
    },
    {
      "midi": 45,
      "hit": false,
      "t": 22499.97599999996,
      "d": 220.58799999999974,
      "v": 127
    },
    {
      "midi": 57,
      "hit": false,
      "t": 22499.97599999996,
      "d": 220.58799999999974,
      "v": 127
    },
    {
      "midi": 81,
      "hit": false,
      "t": 22499.975999999977,
      "d": 110.29400000000169,
      "v": 127
    },
    {
      "midi": 93,
      "hit": false,
      "t": 22499.975999999977,
      "d": 110.29400000000169,
      "v": 127
    },
    {
      "midi": 57,
      "hit": false,
      "t": 22720.56399999996,
      "d": 220.58799999999974,
      "v": 127
    },
    {
      "midi": 61,
      "hit": false,
      "t": 22720.56399999996,
      "d": 220.58799999999974,
      "v": 127
    },
    {
      "midi": 64,
      "hit": false,
      "t": 22720.56399999996,
      "d": 220.58799999999974,
      "v": 127
    },
    {
      "midi": 67,
      "hit": false,
      "t": 22720.56399999996,
      "d": 220.58799999999974,
      "v": 127
    },
    {
      "midi": 79,
      "hit": false,
      "t": 22720.56399999998,
      "d": 110.29400000000169,
      "v": 127
    },
    {
      "midi": 91,
      "hit": false,
      "t": 22720.56399999998,
      "d": 110.29400000000169,
      "v": 127
    },
    {
      "midi": 45,
      "hit": false,
      "t": 22941.15199999996,
      "d": 220.58799999999974,
      "v": 127
    },
    {
      "midi": 57,
      "hit": false,
      "t": 22941.15199999996,
      "d": 220.58799999999974,
      "v": 127
    },
    {
      "midi": 77,
      "hit": false,
      "t": 22941.151999999984,
      "d": 110.29400000000169,
      "v": 127
    },
    {
      "midi": 89,
      "hit": false,
      "t": 22941.151999999984,
      "d": 110.29400000000169,
      "v": 127
    },
    {
      "midi": 57,
      "hit": false,
      "t": 23161.739999999958,
      "d": 220.58799999999974,
      "v": 127
    },
    {
      "midi": 61,
      "hit": false,
      "t": 23161.739999999958,
      "d": 220.58799999999974,
      "v": 127
    },
    {
      "midi": 64,
      "hit": false,
      "t": 23161.739999999958,
      "d": 220.58799999999974,
      "v": 127
    },
    {
      "midi": 67,
      "hit": false,
      "t": 23161.739999999958,
      "d": 220.58799999999974,
      "v": 127
    },
    {
      "midi": 76,
      "hit": false,
      "t": 23161.739999999987,
      "d": 110.29400000000169,
      "v": 127
    },
    {
      "midi": 88,
      "hit": false,
      "t": 23161.739999999987,
      "d": 110.29400000000169,
      "v": 127
    },
    {
      "midi": 34,
      "hit": false,
      "t": 23382.327999999958,
      "d": 220.58799999999974,
      "v": 127
    },
    {
      "midi": 46,
      "hit": false,
      "t": 23382.327999999958,
      "d": 220.58799999999974,
      "v": 127
    },
    {
      "midi": 58,
      "hit": false,
      "t": 23382.327999999958,
      "d": 220.58799999999974,
      "v": 127
    },
    {
      "midi": 74,
      "hit": false,
      "t": 23382.32799999999,
      "d": 110.29400000000169,
      "v": 127
    },
    {
      "midi": 86,
      "hit": false,
      "t": 23382.32799999999,
      "d": 110.29400000000169,
      "v": 127
    },
    {
      "midi": 62,
      "hit": false,
      "t": 23602.915999999957,
      "d": 220.58799999999974,
      "v": 127
    },
    {
      "midi": 65,
      "hit": false,
      "t": 23602.915999999957,
      "d": 220.58799999999974,
      "v": 127
    },
    {
      "midi": 46,
      "hit": false,
      "t": 23823.503999999957,
      "d": 220.58799999999974,
      "v": 121
    },
    {
      "midi": 58,
      "hit": false,
      "t": 23823.503999999957,
      "d": 220.58799999999974,
      "v": 127
    },
    {
      "midi": 74,
      "hit": false,
      "t": 23823.503999999994,
      "d": 110.29400000000169,
      "v": 127
    },
    {
      "midi": 86,
      "hit": false,
      "t": 23823.503999999994,
      "d": 110.29400000000169,
      "v": 127
    },
    {
      "midi": 62,
      "hit": false,
      "t": 24044.091999999957,
      "d": 220.58799999999974,
      "v": 127
    },
    {
      "midi": 65,
      "hit": false,
      "t": 24044.091999999957,
      "d": 220.58799999999974,
      "v": 127
    },
    {
      "midi": 45,
      "hit": false,
      "t": 24264.679999999957,
      "d": 220.58799999999974,
      "v": 127
    },
    {
      "midi": 57,
      "hit": false,
      "t": 24264.679999999957,
      "d": 220.58799999999974,
      "v": 127
    },
    {
      "midi": 74,
      "hit": false,
      "t": 24264.679999999997,
      "d": 110.29400000000169,
      "v": 127
    },
    {
      "midi": 86,
      "hit": false,
      "t": 24264.679999999997,
      "d": 110.29400000000169,
      "v": 127
    },
    {
      "midi": 62,
      "hit": false,
      "t": 24485.267999999956,
      "d": 220.58799999999974,
      "v": 127
    },
    {
      "midi": 65,
      "hit": false,
      "t": 24485.267999999956,
      "d": 220.58799999999974,
      "v": 127
    },
    {
      "midi": 45,
      "hit": false,
      "t": 24705.855999999956,
      "d": 220.58799999999974,
      "v": 127
    },
    {
      "midi": 57,
      "hit": false,
      "t": 24705.855999999956,
      "d": 220.58799999999974,
      "v": 127
    },
    {
      "midi": 74,
      "hit": false,
      "t": 24705.856,
      "d": 110.29400000000169,
      "v": 127
    },
    {
      "midi": 86,
      "hit": false,
      "t": 24705.856,
      "d": 110.29400000000169,
      "v": 127
    },
    {
      "midi": 62,
      "hit": false,
      "t": 24926.443999999956,
      "d": 220.58799999999974,
      "v": 127
    },
    {
      "midi": 65,
      "hit": false,
      "t": 24926.443999999956,
      "d": 220.58799999999974,
      "v": 127
    },
    {
      "midi": 44,
      "hit": false,
      "t": 25147.031999999956,
      "d": 220.58799999999974,
      "v": 127
    },
    {
      "midi": 56,
      "hit": false,
      "t": 25147.031999999956,
      "d": 220.58799999999974,
      "v": 127
    },
    {
      "midi": 74,
      "hit": false,
      "t": 25147.032000000003,
      "d": 147.0586666666677,
      "v": 127
    },
    {
      "midi": 86,
      "hit": false,
      "t": 25147.032000000003,
      "d": 147.0586666666677,
      "v": 127
    },
    {
      "midi": 76,
      "hit": false,
      "t": 25294.09066666667,
      "d": 147.0586666666677,
      "v": 127
    },
    {
      "midi": 88,
      "hit": false,
      "t": 25294.09066666667,
      "d": 147.0586666666677,
      "v": 127
    },
    {
      "midi": 60,
      "hit": false,
      "t": 25367.619999999955,
      "d": 220.58799999999974,
      "v": 127
    },
    {
      "midi": 62,
      "hit": false,
      "t": 25367.619999999955,
      "d": 220.58799999999974,
      "v": 127
    },
    {
      "midi": 65,
      "hit": false,
      "t": 25367.619999999955,
      "d": 220.58799999999974,
      "v": 127
    },
    {
      "midi": 74,
      "hit": false,
      "t": 25441.14933333334,
      "d": 147.0586666666677,
      "v": 127
    },
    {
      "midi": 86,
      "hit": false,
      "t": 25441.14933333334,
      "d": 147.0586666666677,
      "v": 127
    },
    {
      "midi": 44,
      "hit": false,
      "t": 25588.207999999955,
      "d": 220.58799999999974,
      "v": 127
    },
    {
      "midi": 56,
      "hit": false,
      "t": 25588.207999999955,
      "d": 220.58799999999974,
      "v": 127
    },
    {
      "midi": 73,
      "hit": false,
      "t": 25588.208000000006,
      "d": 110.29400000000169,
      "v": 127
    },
    {
      "midi": 85,
      "hit": false,
      "t": 25588.208000000006,
      "d": 110.29400000000169,
      "v": 127
    },
    {
      "midi": 60,
      "hit": false,
      "t": 25808.795999999955,
      "d": 220.58799999999974,
      "v": 127
    },
    {
      "midi": 62,
      "hit": false,
      "t": 25808.795999999955,
      "d": 220.58799999999974,
      "v": 127
    },
    {
      "midi": 65,
      "hit": false,
      "t": 25808.795999999955,
      "d": 220.58799999999974,
      "v": 127
    },
    {
      "midi": 74,
      "hit": false,
      "t": 25808.79600000001,
      "d": 110.29400000000169,
      "v": 127
    },
    {
      "midi": 86,
      "hit": false,
      "t": 25808.79600000001,
      "d": 110.29400000000169,
      "v": 127
    },
    {
      "midi": 43,
      "hit": false,
      "t": 26029.383999999955,
      "d": 220.58799999999974,
      "v": 127
    },
    {
      "midi": 55,
      "hit": false,
      "t": 26029.383999999955,
      "d": 220.58799999999974,
      "v": 127
    },
    {
      "midi": 79,
      "hit": false,
      "t": 26029.384000000013,
      "d": 110.29400000000169,
      "v": 127
    },
    {
      "midi": 91,
      "hit": false,
      "t": 26029.384000000013,
      "d": 110.29400000000169,
      "v": 127
    },
    {
      "midi": 59,
      "hit": false,
      "t": 26249.971999999954,
      "d": 220.58799999999974,
      "v": 127
    },
    {
      "midi": 62,
      "hit": false,
      "t": 26249.971999999954,
      "d": 220.58799999999974,
      "v": 127
    },
    {
      "midi": 65,
      "hit": false,
      "t": 26249.971999999954,
      "d": 220.58799999999974,
      "v": 127
    },
    {
      "midi": 77,
      "hit": false,
      "t": 26249.972000000016,
      "d": 110.29400000000169,
      "v": 127
    },
    {
      "midi": 89,
      "hit": false,
      "t": 26249.972000000016,
      "d": 110.29400000000169,
      "v": 127
    },
    {
      "midi": 43,
      "hit": false,
      "t": 26470.559999999954,
      "d": 220.58799999999974,
      "v": 127
    },
    {
      "midi": 55,
      "hit": false,
      "t": 26470.559999999954,
      "d": 220.58799999999974,
      "v": 127
    },
    {
      "midi": 76,
      "hit": false,
      "t": 26470.56000000002,
      "d": 110.29400000000169,
      "v": 127
    },
    {
      "midi": 88,
      "hit": false,
      "t": 26470.56000000002,
      "d": 110.29400000000169,
      "v": 127
    },
    {
      "midi": 59,
      "hit": false,
      "t": 26691.147999999954,
      "d": 220.58799999999974,
      "v": 127
    },
    {
      "midi": 62,
      "hit": false,
      "t": 26691.147999999954,
      "d": 220.58799999999974,
      "v": 127
    },
    {
      "midi": 65,
      "hit": false,
      "t": 26691.147999999954,
      "d": 220.58799999999974,
      "v": 127
    },
    {
      "midi": 74,
      "hit": false,
      "t": 26691.148000000023,
      "d": 110.29400000000169,
      "v": 127
    },
    {
      "midi": 86,
      "hit": false,
      "t": 26691.148000000023,
      "d": 110.29400000000169,
      "v": 127
    },
    {
      "midi": 33,
      "hit": false,
      "t": 26911.735999999953,
      "d": 220.58799999999974,
      "v": 127
    },
    {
      "midi": 45,
      "hit": false,
      "t": 26911.735999999953,
      "d": 220.58799999999974,
      "v": 127
    },
    {
      "midi": 57,
      "hit": false,
      "t": 26911.735999999953,
      "d": 220.58799999999974,
      "v": 127
    },
    {
      "midi": 72,
      "hit": false,
      "t": 26911.736000000026,
      "d": 110.29400000000169,
      "v": 127
    },
    {
      "midi": 84,
      "hit": false,
      "t": 26911.736000000026,
      "d": 110.29400000000169,
      "v": 127
    },
    {
      "midi": 60,
      "hit": false,
      "t": 27132.323999999953,
      "d": 220.58799999999974,
      "v": 127
    },
    {
      "midi": 64,
      "hit": false,
      "t": 27132.323999999953,
      "d": 220.58799999999974,
      "v": 127
    },
    {
      "midi": 45,
      "hit": false,
      "t": 27352.911999999953,
      "d": 220.58799999999974,
      "v": 127
    },
    {
      "midi": 57,
      "hit": false,
      "t": 27352.911999999953,
      "d": 220.58799999999974,
      "v": 127
    },
    {
      "midi": 72,
      "hit": false,
      "t": 27352.91200000003,
      "d": 110.29400000000169,
      "v": 127
    },
    {
      "midi": 84,
      "hit": false,
      "t": 27352.91200000003,
      "d": 110.29400000000169,
      "v": 127
    },
    {
      "midi": 60,
      "hit": false,
      "t": 27573.499999999953,
      "d": 220.58799999999974,
      "v": 127
    },
    {
      "midi": 64,
      "hit": false,
      "t": 27573.499999999953,
      "d": 220.58799999999974,
      "v": 127
    },
    {
      "midi": 43,
      "hit": false,
      "t": 27794.087999999952,
      "d": 220.58799999999974,
      "v": 127
    },
    {
      "midi": 55,
      "hit": false,
      "t": 27794.087999999952,
      "d": 220.58799999999974,
      "v": 127
    },
    {
      "midi": 72,
      "hit": false,
      "t": 27794.088000000032,
      "d": 110.29400000000169,
      "v": 127
    },
    {
      "midi": 84,
      "hit": false,
      "t": 27794.088000000032,
      "d": 110.29400000000169,
      "v": 127
    },
    {
      "midi": 58,
      "hit": false,
      "t": 28014.675999999952,
      "d": 220.58799999999974,
      "v": 127
    },
    {
      "midi": 64,
      "hit": false,
      "t": 28014.675999999952,
      "d": 220.58799999999974,
      "v": 127
    },
    {
      "midi": 43,
      "hit": false,
      "t": 28235.263999999952,
      "d": 220.58799999999974,
      "v": 127
    },
    {
      "midi": 55,
      "hit": false,
      "t": 28235.263999999952,
      "d": 220.58799999999974,
      "v": 127
    },
    {
      "midi": 72,
      "hit": false,
      "t": 28235.264000000036,
      "d": 110.29400000000169,
      "v": 127
    },
    {
      "midi": 84,
      "hit": false,
      "t": 28235.264000000036,
      "d": 110.29400000000169,
      "v": 127
    },
    {
      "midi": 58,
      "hit": false,
      "t": 28455.85199999995,
      "d": 220.58799999999974,
      "v": 127
    },
    {
      "midi": 64,
      "hit": false,
      "t": 28455.85199999995,
      "d": 220.58799999999974,
      "v": 127
    },
    {
      "midi": 41,
      "hit": false,
      "t": 28676.43999999995,
      "d": 220.58799999999974,
      "v": 127
    },
    {
      "midi": 53,
      "hit": false,
      "t": 28676.43999999995,
      "d": 220.58799999999974,
      "v": 127
    },
    {
      "midi": 72,
      "hit": false,
      "t": 28676.44000000004,
      "d": 147.0586666666677,
      "v": 127
    },
    {
      "midi": 84,
      "hit": false,
      "t": 28676.44000000004,
      "d": 147.0586666666677,
      "v": 127
    },
    {
      "midi": 74,
      "hit": false,
      "t": 28823.498666666706,
      "d": 147.0586666666677,
      "v": 127
    },
    {
      "midi": 86,
      "hit": false,
      "t": 28823.498666666706,
      "d": 147.0586666666677,
      "v": 127
    },
    {
      "midi": 57,
      "hit": false,
      "t": 28897.02799999995,
      "d": 220.58799999999974,
      "v": 127
    },
    {
      "midi": 60,
      "hit": false,
      "t": 28897.02799999995,
      "d": 220.58799999999974,
      "v": 127
    },
    {
      "midi": 65,
      "hit": false,
      "t": 28897.02799999995,
      "d": 220.58799999999974,
      "v": 127
    },
    {
      "midi": 72,
      "hit": false,
      "t": 28970.557333333374,
      "d": 147.0586666666677,
      "v": 127
    },
    {
      "midi": 84,
      "hit": false,
      "t": 28970.557333333374,
      "d": 147.0586666666677,
      "v": 127
    },
    {
      "midi": 41,
      "hit": false,
      "t": 29117.61599999995,
      "d": 220.58799999999974,
      "v": 127
    },
    {
      "midi": 53,
      "hit": false,
      "t": 29117.61599999995,
      "d": 220.58799999999974,
      "v": 127
    },
    {
      "midi": 71,
      "hit": false,
      "t": 29117.616000000042,
      "d": 110.29400000000169,
      "v": 127
    },
    {
      "midi": 83,
      "hit": false,
      "t": 29117.616000000042,
      "d": 110.29400000000169,
      "v": 127
    },
    {
      "midi": 57,
      "hit": false,
      "t": 29338.20399999995,
      "d": 220.58799999999974,
      "v": 127
    },
    {
      "midi": 60,
      "hit": false,
      "t": 29338.20399999995,
      "d": 220.58799999999974,
      "v": 127
    },
    {
      "midi": 65,
      "hit": false,
      "t": 29338.20399999995,
      "d": 220.58799999999974,
      "v": 127
    },
    {
      "midi": 72,
      "hit": false,
      "t": 29338.204000000045,
      "d": 110.29400000000169,
      "v": 127
    },
    {
      "midi": 84,
      "hit": false,
      "t": 29338.204000000045,
      "d": 110.29400000000169,
      "v": 127
    },
    {
      "midi": 38,
      "hit": false,
      "t": 29558.79199999995,
      "d": 220.58799999999974,
      "v": 127
    },
    {
      "midi": 50,
      "hit": false,
      "t": 29558.79199999995,
      "d": 220.58799999999974,
      "v": 127
    },
    {
      "midi": 77,
      "hit": false,
      "t": 29558.79200000005,
      "d": 110.29400000000169,
      "v": 127
    },
    {
      "midi": 89,
      "hit": false,
      "t": 29558.79200000005,
      "d": 110.29400000000169,
      "v": 127
    },
    {
      "midi": 53,
      "hit": false,
      "t": 29779.37999999995,
      "d": 220.58799999999974,
      "v": 127
    },
    {
      "midi": 57,
      "hit": false,
      "t": 29779.37999999995,
      "d": 220.58799999999974,
      "v": 127
    },
    {
      "midi": 62,
      "hit": false,
      "t": 29779.37999999995,
      "d": 220.58799999999974,
      "v": 127
    },
    {
      "midi": 76,
      "hit": false,
      "t": 29779.380000000052,
      "d": 110.29400000000169,
      "v": 127
    },
    {
      "midi": 88,
      "hit": false,
      "t": 29779.380000000052,
      "d": 110.29400000000169,
      "v": 127
    },
    {
      "midi": 38,
      "hit": false,
      "t": 29999.96799999995,
      "d": 220.58799999999974,
      "v": 127
    },
    {
      "midi": 50,
      "hit": false,
      "t": 29999.96799999995,
      "d": 220.58799999999974,
      "v": 127
    },
    {
      "midi": 74,
      "hit": false,
      "t": 29999.968000000055,
      "d": 110.29400000000169,
      "v": 127
    },
    {
      "midi": 86,
      "hit": false,
      "t": 29999.968000000055,
      "d": 110.29400000000169,
      "v": 127
    },
    {
      "midi": 53,
      "hit": false,
      "t": 30220.55599999995,
      "d": 220.58799999999974,
      "v": 127
    },
    {
      "midi": 57,
      "hit": false,
      "t": 30220.55599999995,
      "d": 220.58799999999974,
      "v": 127
    },
    {
      "midi": 62,
      "hit": false,
      "t": 30220.55599999995,
      "d": 220.58799999999974,
      "v": 127
    },
    {
      "midi": 72,
      "hit": false,
      "t": 30220.55600000006,
      "d": 110.29400000000169,
      "v": 127
    },
    {
      "midi": 84,
      "hit": false,
      "t": 30220.55600000006,
      "d": 110.29400000000169,
      "v": 127
    },
    {
      "midi": 31,
      "hit": false,
      "t": 30441.14399999995,
      "d": 220.58799999999974,
      "v": 127
    },
    {
      "midi": 43,
      "hit": false,
      "t": 30441.14399999995,
      "d": 220.58799999999974,
      "v": 127
    },
    {
      "midi": 55,
      "hit": false,
      "t": 30441.14399999995,
      "d": 220.58799999999974,
      "v": 127
    },
    {
      "midi": 72,
      "hit": false,
      "t": 30441.144000000062,
      "d": 110.29400000000169,
      "v": 127
    },
    {
      "midi": 84,
      "hit": false,
      "t": 30441.144000000062,
      "d": 110.29400000000169,
      "v": 127
    },
    {
      "midi": 59,
      "hit": false,
      "t": 30661.73199999995,
      "d": 220.58799999999974,
      "v": 127
    },
    {
      "midi": 62,
      "hit": false,
      "t": 30661.73199999995,
      "d": 220.58799999999974,
      "v": 127
    },
    {
      "midi": 71,
      "hit": false,
      "t": 30661.732000000065,
      "d": 110.29400000000169,
      "v": 127
    },
    {
      "midi": 83,
      "hit": false,
      "t": 30661.732000000065,
      "d": 110.29400000000169,
      "v": 127
    },
    {
      "midi": 43,
      "hit": false,
      "t": 30882.31999999995,
      "d": 220.58799999999974,
      "v": 127
    },
    {
      "midi": 55,
      "hit": false,
      "t": 30882.31999999995,
      "d": 220.58799999999974,
      "v": 127
    },
    {
      "midi": 74,
      "hit": false,
      "t": 30882.32000000007,
      "d": 110.29400000000169,
      "v": 127
    },
    {
      "midi": 86,
      "hit": false,
      "t": 30882.32000000007,
      "d": 110.29400000000169,
      "v": 127
    },
    {
      "midi": 59,
      "hit": false,
      "t": 31102.90799999995,
      "d": 220.58799999999974,
      "v": 127
    },
    {
      "midi": 62,
      "hit": false,
      "t": 31102.90799999995,
      "d": 220.58799999999974,
      "v": 127
    },
    {
      "midi": 71,
      "hit": false,
      "t": 31102.908000000072,
      "d": 110.29400000000169,
      "v": 127
    },
    {
      "midi": 83,
      "hit": false,
      "t": 31102.908000000072,
      "d": 110.29400000000169,
      "v": 127
    },
    {
      "midi": 33,
      "hit": false,
      "t": 31323.49599999995,
      "d": 220.58799999999974,
      "v": 127
    },
    {
      "midi": 45,
      "hit": false,
      "t": 31323.49599999995,
      "d": 220.58799999999974,
      "v": 127
    },
    {
      "midi": 57,
      "hit": false,
      "t": 31323.49599999995,
      "d": 220.58799999999974,
      "v": 127
    },
    {
      "midi": 71,
      "hit": false,
      "t": 31323.496000000076,
      "d": 110.29400000000169,
      "v": 127
    },
    {
      "midi": 83,
      "hit": false,
      "t": 31323.496000000076,
      "d": 110.29400000000169,
      "v": 127
    },
    {
      "midi": 60,
      "hit": false,
      "t": 31544.083999999948,
      "d": 220.58799999999974,
      "v": 127
    },
    {
      "midi": 62,
      "hit": false,
      "t": 31544.083999999948,
      "d": 220.58799999999974,
      "v": 127
    },
    {
      "midi": 66,
      "hit": false,
      "t": 31544.083999999948,
      "d": 220.58799999999974,
      "v": 127
    },
    {
      "midi": 69,
      "hit": false,
      "t": 31544.08400000008,
      "d": 110.29400000000169,
      "v": 127
    },
    {
      "midi": 81,
      "hit": false,
      "t": 31544.08400000008,
      "d": 110.29400000000169,
      "v": 127
    },
    {
      "midi": 45,
      "hit": false,
      "t": 31764.671999999948,
      "d": 220.58799999999974,
      "v": 127
    },
    {
      "midi": 57,
      "hit": false,
      "t": 31764.671999999948,
      "d": 220.58799999999974,
      "v": 127
    },
    {
      "midi": 74,
      "hit": false,
      "t": 31764.672000000082,
      "d": 110.29400000000169,
      "v": 127
    },
    {
      "midi": 86,
      "hit": false,
      "t": 31764.672000000082,
      "d": 110.29400000000169,
      "v": 127
    },
    {
      "midi": 60,
      "hit": false,
      "t": 31985.259999999947,
      "d": 220.58799999999974,
      "v": 127
    },
    {
      "midi": 62,
      "hit": false,
      "t": 31985.259999999947,
      "d": 220.58799999999974,
      "v": 127
    },
    {
      "midi": 66,
      "hit": false,
      "t": 31985.259999999947,
      "d": 220.58799999999974,
      "v": 127
    },
    {
      "midi": 69,
      "hit": false,
      "t": 31985.260000000086,
      "d": 110.29400000000169,
      "v": 127
    },
    {
      "midi": 81,
      "hit": false,
      "t": 31985.260000000086,
      "d": 110.29400000000169,
      "v": 127
    },
    {
      "midi": 35,
      "hit": false,
      "t": 32205.847999999947,
      "d": 220.58799999999974,
      "v": 127
    },
    {
      "midi": 47,
      "hit": false,
      "t": 32205.847999999947,
      "d": 220.58799999999974,
      "v": 127
    },
    {
      "midi": 59,
      "hit": false,
      "t": 32205.847999999947,
      "d": 220.58799999999974,
      "v": 127
    },
    {
      "midi": 69,
      "hit": false,
      "t": 32205.84800000009,
      "d": 110.29400000000169,
      "v": 127
    },
    {
      "midi": 81,
      "hit": false,
      "t": 32205.84800000009,
      "d": 110.29400000000169,
      "v": 127
    },
    {
      "midi": 62,
      "hit": false,
      "t": 32426.435999999947,
      "d": 220.58799999999974,
      "v": 127
    },
    {
      "midi": 67,
      "hit": false,
      "t": 32426.436000000092,
      "d": 110.29400000000169,
      "v": 127
    },
    {
      "midi": 79,
      "hit": false,
      "t": 32426.436000000092,
      "d": 110.29400000000169,
      "v": 127
    },
    {
      "midi": 47,
      "hit": false,
      "t": 32647.023999999947,
      "d": 220.58800000000338,
      "v": 127
    },
    {
      "midi": 59,
      "hit": false,
      "t": 32647.023999999947,
      "d": 220.58800000000338,
      "v": 127
    },
    {
      "midi": 66,
      "hit": false,
      "t": 32647.024000000096,
      "d": 110.29400000000169,
      "v": 127
    },
    {
      "midi": 78,
      "hit": false,
      "t": 32647.024000000096,
      "d": 110.29400000000169,
      "v": 127
    },
    {
      "midi": 62,
      "hit": false,
      "t": 32867.61199999995,
      "d": 220.58800000000338,
      "v": 127
    },
    {
      "midi": 67,
      "hit": false,
      "t": 32867.612000000096,
      "d": 110.29400000000169,
      "v": 127
    },
    {
      "midi": 79,
      "hit": false,
      "t": 32867.612000000096,
      "d": 110.29400000000169,
      "v": 127
    },
    {
      "midi": 31,
      "hit": false,
      "t": 33088.19999999995,
      "d": 220.58800000000338,
      "v": 127
    },
    {
      "midi": 43,
      "hit": false,
      "t": 33088.19999999995,
      "d": 220.58800000000338,
      "v": 127
    },
    {
      "midi": 55,
      "hit": false,
      "t": 33088.19999999995,
      "d": 220.58800000000338,
      "v": 127
    },
    {
      "midi": 69,
      "hit": false,
      "t": 33088.2000000001,
      "d": 110.29400000000169,
      "v": 127
    },
    {
      "midi": 81,
      "hit": false,
      "t": 33088.2000000001,
      "d": 110.29400000000169,
      "v": 127
    },
    {
      "midi": 59,
      "hit": false,
      "t": 33308.78799999996,
      "d": 220.58800000000338,
      "v": 127
    },
    {
      "midi": 62,
      "hit": false,
      "t": 33308.78799999996,
      "d": 220.58800000000338,
      "v": 127
    },
    {
      "midi": 65,
      "hit": false,
      "t": 33308.78799999996,
      "d": 220.58800000000338,
      "v": 127
    },
    {
      "midi": 67,
      "hit": false,
      "t": 33308.78799999996,
      "d": 220.58800000000338,
      "v": 127
    },
    {
      "midi": 71,
      "hit": false,
      "t": 33308.7880000001,
      "d": 110.29400000000169,
      "v": 127
    },
    {
      "midi": 83,
      "hit": false,
      "t": 33308.7880000001,
      "d": 110.29400000000169,
      "v": 127
    },
    {
      "midi": 43,
      "hit": false,
      "t": 33529.37599999996,
      "d": 220.58800000000338,
      "v": 127
    },
    {
      "midi": 55,
      "hit": false,
      "t": 33529.37599999996,
      "d": 220.58800000000338,
      "v": 127
    },
    {
      "midi": 72,
      "hit": false,
      "t": 33529.376000000106,
      "d": 110.29400000000169,
      "v": 127
    },
    {
      "midi": 84,
      "hit": false,
      "t": 33529.376000000106,
      "d": 110.29400000000169,
      "v": 127
    },
    {
      "midi": 59,
      "hit": false,
      "t": 33749.96399999996,
      "d": 220.58800000000338,
      "v": 127
    },
    {
      "midi": 62,
      "hit": false,
      "t": 33749.96399999996,
      "d": 220.58800000000338,
      "v": 127
    },
    {
      "midi": 65,
      "hit": false,
      "t": 33749.96399999996,
      "d": 220.58800000000338,
      "v": 127
    },
    {
      "midi": 67,
      "hit": false,
      "t": 33749.96399999996,
      "d": 220.58800000000338,
      "v": 127
    },
    {
      "midi": 74,
      "hit": false,
      "t": 33749.96400000011,
      "d": 110.29400000000169,
      "v": 127
    },
    {
      "midi": 86,
      "hit": false,
      "t": 33749.96400000011,
      "d": 110.29400000000169,
      "v": 127
    },
    {
      "midi": 36,
      "hit": false,
      "t": 33970.55199999997,
      "d": 220.58800000000338,
      "v": 127
    },
    {
      "midi": 48,
      "hit": false,
      "t": 33970.55199999997,
      "d": 220.58800000000338,
      "v": 127
    },
    {
      "midi": 60,
      "hit": false,
      "t": 33970.55199999997,
      "d": 220.58800000000338,
      "v": 127
    },
    {
      "midi": 76,
      "hit": false,
      "t": 33970.55200000011,
      "d": 110.29400000000169,
      "v": 127
    },
    {
      "midi": 88,
      "hit": false,
      "t": 33970.55200000011,
      "d": 110.29400000000169,
      "v": 127
    },
    {
      "midi": 60,
      "hit": false,
      "t": 34191.13999999997,
      "d": 220.58800000000338,
      "v": 127
    },
    {
      "midi": 64,
      "hit": false,
      "t": 34191.13999999997,
      "d": 220.58800000000338,
      "v": 127
    },
    {
      "midi": 67,
      "hit": false,
      "t": 34191.13999999997,
      "d": 220.58800000000338,
      "v": 127
    },
    {
      "midi": 48,
      "hit": false,
      "t": 34411.727999999974,
      "d": 220.58800000000338,
      "v": 126
    },
    {
      "midi": 60,
      "hit": false,
      "t": 34411.727999999974,
      "d": 220.58800000000338,
      "v": 127
    },
    {
      "midi": 76,
      "hit": false,
      "t": 34411.72800000011,
      "d": 110.29400000000169,
      "v": 127
    },
    {
      "midi": 88,
      "hit": false,
      "t": 34411.72800000011,
      "d": 110.29400000000169,
      "v": 127
    },
    {
      "midi": 60,
      "hit": false,
      "t": 34632.31599999998,
      "d": 220.58800000000338,
      "v": 127
    },
    {
      "midi": 64,
      "hit": false,
      "t": 34632.31599999998,
      "d": 220.58800000000338,
      "v": 127
    },
    {
      "midi": 67,
      "hit": false,
      "t": 34632.31599999998,
      "d": 220.58800000000338,
      "v": 127
    },
    {
      "midi": 47,
      "hit": false,
      "t": 34852.90399999998,
      "d": 220.58800000000338,
      "v": 125
    },
    {
      "midi": 59,
      "hit": false,
      "t": 34852.90399999998,
      "d": 220.58800000000338,
      "v": 127
    },
    {
      "midi": 76,
      "hit": false,
      "t": 34852.90400000011,
      "d": 110.29400000000169,
      "v": 127
    },
    {
      "midi": 88,
      "hit": false,
      "t": 34852.90400000011,
      "d": 110.29400000000169,
      "v": 127
    },
    {
      "midi": 59,
      "hit": false,
      "t": 35073.491999999984,
      "d": 220.58800000000338,
      "v": 127
    },
    {
      "midi": 64,
      "hit": false,
      "t": 35073.491999999984,
      "d": 220.58800000000338,
      "v": 127
    },
    {
      "midi": 67,
      "hit": false,
      "t": 35073.491999999984,
      "d": 220.58800000000338,
      "v": 127
    },
    {
      "midi": 47,
      "hit": false,
      "t": 35294.07999999999,
      "d": 220.58800000000338,
      "v": 125
    },
    {
      "midi": 59,
      "hit": false,
      "t": 35294.07999999999,
      "d": 220.58800000000338,
      "v": 127
    },
    {
      "midi": 76,
      "hit": false,
      "t": 35294.08000000011,
      "d": 110.29400000000169,
      "v": 127
    },
    {
      "midi": 88,
      "hit": false,
      "t": 35294.08000000011,
      "d": 110.29400000000169,
      "v": 127
    },
    {
      "midi": 59,
      "hit": false,
      "t": 35514.66799999999,
      "d": 220.58800000000338,
      "v": 127
    },
    {
      "midi": 64,
      "hit": false,
      "t": 35514.66799999999,
      "d": 220.58800000000338,
      "v": 127
    },
    {
      "midi": 67,
      "hit": false,
      "t": 35514.66799999999,
      "d": 220.58800000000338,
      "v": 127
    },
    {
      "midi": 46,
      "hit": false,
      "t": 35735.255999999994,
      "d": 220.58800000000338,
      "v": 127
    },
    {
      "midi": 58,
      "hit": false,
      "t": 35735.255999999994,
      "d": 220.58800000000338,
      "v": 127
    },
    {
      "midi": 76,
      "hit": false,
      "t": 35735.25600000011,
      "d": 147.05866666666407,
      "v": 127
    },
    {
      "midi": 88,
      "hit": false,
      "t": 35735.25600000011,
      "d": 147.05866666666407,
      "v": 127
    },
    {
      "midi": 77,
      "hit": false,
      "t": 35882.314666666774,
      "d": 147.05866666666407,
      "v": 127
    },
    {
      "midi": 89,
      "hit": false,
      "t": 35882.314666666774,
      "d": 147.05866666666407,
      "v": 127
    },
    {
      "midi": 58,
      "hit": false,
      "t": 35955.844,
      "d": 220.58800000000338,
      "v": 127
    },
    {
      "midi": 62,
      "hit": false,
      "t": 35955.844,
      "d": 220.58800000000338,
      "v": 127
    },
    {
      "midi": 64,
      "hit": false,
      "t": 35955.844,
      "d": 220.58800000000338,
      "v": 127
    },
    {
      "midi": 67,
      "hit": false,
      "t": 35955.844,
      "d": 220.58800000000338,
      "v": 127
    },
    {
      "midi": 76,
      "hit": false,
      "t": 36029.37333333344,
      "d": 147.05866666666407,
      "v": 127
    },
    {
      "midi": 88,
      "hit": false,
      "t": 36029.37333333344,
      "d": 147.05866666666407,
      "v": 127
    },
    {
      "midi": 46,
      "hit": false,
      "t": 36176.432,
      "d": 220.58800000000338,
      "v": 127
    },
    {
      "midi": 58,
      "hit": false,
      "t": 36176.432,
      "d": 220.58800000000338,
      "v": 127
    },
    {
      "midi": 75,
      "hit": false,
      "t": 36176.4320000001,
      "d": 110.29400000000169,
      "v": 127
    },
    {
      "midi": 87,
      "hit": false,
      "t": 36176.4320000001,
      "d": 110.29400000000169,
      "v": 127
    },
    {
      "midi": 58,
      "hit": false,
      "t": 36397.020000000004,
      "d": 220.58800000000338,
      "v": 127
    },
    {
      "midi": 62,
      "hit": false,
      "t": 36397.020000000004,
      "d": 220.58800000000338,
      "v": 127
    },
    {
      "midi": 64,
      "hit": false,
      "t": 36397.020000000004,
      "d": 220.58800000000338,
      "v": 127
    },
    {
      "midi": 67,
      "hit": false,
      "t": 36397.020000000004,
      "d": 220.58800000000338,
      "v": 127
    },
    {
      "midi": 76,
      "hit": false,
      "t": 36397.020000000106,
      "d": 110.29400000000169,
      "v": 127
    },
    {
      "midi": 88,
      "hit": false,
      "t": 36397.020000000106,
      "d": 110.29400000000169,
      "v": 127
    },
    {
      "midi": 45,
      "hit": false,
      "t": 36617.60800000001,
      "d": 220.58800000000338,
      "v": 125
    },
    {
      "midi": 57,
      "hit": false,
      "t": 36617.60800000001,
      "d": 220.58800000000338,
      "v": 127
    },
    {
      "midi": 81,
      "hit": false,
      "t": 36617.60800000011,
      "d": 110.29400000000169,
      "v": 127
    },
    {
      "midi": 93,
      "hit": false,
      "t": 36617.60800000011,
      "d": 110.29400000000169,
      "v": 127
    },
    {
      "midi": 57,
      "hit": false,
      "t": 36838.19600000001,
      "d": 220.58800000000338,
      "v": 127
    },
    {
      "midi": 61,
      "hit": false,
      "t": 36838.19600000001,
      "d": 220.58800000000338,
      "v": 127
    },
    {
      "midi": 64,
      "hit": false,
      "t": 36838.19600000001,
      "d": 220.58800000000338,
      "v": 127
    },
    {
      "midi": 67,
      "hit": false,
      "t": 36838.19600000001,
      "d": 220.58800000000338,
      "v": 127
    },
    {
      "midi": 79,
      "hit": false,
      "t": 36838.19600000011,
      "d": 110.29400000000169,
      "v": 127
    },
    {
      "midi": 91,
      "hit": false,
      "t": 36838.19600000011,
      "d": 110.29400000000169,
      "v": 127
    },
    {
      "midi": 45,
      "hit": false,
      "t": 37058.784000000014,
      "d": 220.58800000000338,
      "v": 127
    },
    {
      "midi": 57,
      "hit": false,
      "t": 37058.784000000014,
      "d": 220.58800000000338,
      "v": 127
    },
    {
      "midi": 77,
      "hit": false,
      "t": 37058.784000000116,
      "d": 110.29400000000169,
      "v": 127
    },
    {
      "midi": 89,
      "hit": false,
      "t": 37058.784000000116,
      "d": 110.29400000000169,
      "v": 127
    },
    {
      "midi": 57,
      "hit": false,
      "t": 37279.37200000002,
      "d": 220.58800000000338,
      "v": 127
    },
    {
      "midi": 61,
      "hit": false,
      "t": 37279.37200000002,
      "d": 220.58800000000338,
      "v": 127
    },
    {
      "midi": 64,
      "hit": false,
      "t": 37279.37200000002,
      "d": 220.58800000000338,
      "v": 127
    },
    {
      "midi": 67,
      "hit": false,
      "t": 37279.37200000002,
      "d": 220.58800000000338,
      "v": 127
    },
    {
      "midi": 76,
      "hit": false,
      "t": 37279.37200000012,
      "d": 110.29400000000169,
      "v": 127
    },
    {
      "midi": 88,
      "hit": false,
      "t": 37279.37200000012,
      "d": 110.29400000000169,
      "v": 127
    },
    {
      "midi": 34,
      "hit": false,
      "t": 37499.96000000002,
      "d": 220.58800000000338,
      "v": 127
    },
    {
      "midi": 46,
      "hit": false,
      "t": 37499.96000000002,
      "d": 220.58800000000338,
      "v": 127
    },
    {
      "midi": 58,
      "hit": false,
      "t": 37499.96000000002,
      "d": 220.58800000000338,
      "v": 127
    },
    {
      "midi": 74,
      "hit": false,
      "t": 37499.96000000012,
      "d": 110.29400000000169,
      "v": 127
    },
    {
      "midi": 86,
      "hit": false,
      "t": 37499.96000000012,
      "d": 110.29400000000169,
      "v": 127
    },
    {
      "midi": 62,
      "hit": false,
      "t": 37720.548000000024,
      "d": 220.58800000000338,
      "v": 127
    },
    {
      "midi": 65,
      "hit": false,
      "t": 37720.548000000024,
      "d": 220.58800000000338,
      "v": 127
    },
    {
      "midi": 46,
      "hit": false,
      "t": 37941.13600000003,
      "d": 220.58800000000338,
      "v": 126
    },
    {
      "midi": 58,
      "hit": false,
      "t": 37941.13600000003,
      "d": 220.58800000000338,
      "v": 127
    },
    {
      "midi": 74,
      "hit": false,
      "t": 37941.13600000012,
      "d": 110.29400000000169,
      "v": 127
    },
    {
      "midi": 86,
      "hit": false,
      "t": 37941.13600000012,
      "d": 110.29400000000169,
      "v": 127
    },
    {
      "midi": 62,
      "hit": false,
      "t": 38161.72400000003,
      "d": 220.58800000000338,
      "v": 127
    },
    {
      "midi": 65,
      "hit": false,
      "t": 38161.72400000003,
      "d": 220.58800000000338,
      "v": 127
    },
    {
      "midi": 45,
      "hit": false,
      "t": 38382.312000000034,
      "d": 220.58800000000338,
      "v": 127
    },
    {
      "midi": 57,
      "hit": false,
      "t": 38382.312000000034,
      "d": 220.58800000000338,
      "v": 127
    },
    {
      "midi": 74,
      "hit": false,
      "t": 38382.31200000012,
      "d": 110.29400000000169,
      "v": 127
    },
    {
      "midi": 86,
      "hit": false,
      "t": 38382.31200000012,
      "d": 110.29400000000169,
      "v": 127
    },
    {
      "midi": 62,
      "hit": false,
      "t": 38602.90000000004,
      "d": 220.58800000000338,
      "v": 127
    },
    {
      "midi": 65,
      "hit": false,
      "t": 38602.90000000004,
      "d": 220.58800000000338,
      "v": 127
    },
    {
      "midi": 45,
      "hit": false,
      "t": 38823.48800000004,
      "d": 220.58800000000338,
      "v": 127
    },
    {
      "midi": 57,
      "hit": false,
      "t": 38823.48800000004,
      "d": 220.58800000000338,
      "v": 127
    },
    {
      "midi": 74,
      "hit": false,
      "t": 38823.48800000012,
      "d": 110.29400000000169,
      "v": 127
    },
    {
      "midi": 86,
      "hit": false,
      "t": 38823.48800000012,
      "d": 110.29400000000169,
      "v": 127
    },
    {
      "midi": 62,
      "hit": false,
      "t": 39044.076000000045,
      "d": 220.58800000000338,
      "v": 127
    },
    {
      "midi": 65,
      "hit": false,
      "t": 39044.076000000045,
      "d": 220.58800000000338,
      "v": 127
    },
    {
      "midi": 44,
      "hit": false,
      "t": 39264.66400000005,
      "d": 220.58800000000338,
      "v": 127
    },
    {
      "midi": 56,
      "hit": false,
      "t": 39264.66400000005,
      "d": 220.58800000000338,
      "v": 127
    },
    {
      "midi": 74,
      "hit": false,
      "t": 39264.66400000012,
      "d": 147.05866666666407,
      "v": 127
    },
    {
      "midi": 86,
      "hit": false,
      "t": 39264.66400000012,
      "d": 147.05866666666407,
      "v": 127
    },
    {
      "midi": 76,
      "hit": false,
      "t": 39411.722666666785,
      "d": 147.05866666666407,
      "v": 127
    },
    {
      "midi": 88,
      "hit": false,
      "t": 39411.722666666785,
      "d": 147.05866666666407,
      "v": 127
    },
    {
      "midi": 60,
      "hit": false,
      "t": 39485.25200000005,
      "d": 220.58800000000338,
      "v": 127
    },
    {
      "midi": 62,
      "hit": false,
      "t": 39485.25200000005,
      "d": 220.58800000000338,
      "v": 127
    },
    {
      "midi": 65,
      "hit": false,
      "t": 39485.25200000005,
      "d": 220.58800000000338,
      "v": 127
    },
    {
      "midi": 74,
      "hit": false,
      "t": 39558.78133333345,
      "d": 147.05866666666407,
      "v": 127
    },
    {
      "midi": 86,
      "hit": false,
      "t": 39558.78133333345,
      "d": 147.05866666666407,
      "v": 127
    },
    {
      "midi": 44,
      "hit": false,
      "t": 39705.840000000055,
      "d": 220.58800000000338,
      "v": 127
    },
    {
      "midi": 56,
      "hit": false,
      "t": 39705.840000000055,
      "d": 220.58800000000338,
      "v": 127
    },
    {
      "midi": 73,
      "hit": false,
      "t": 39705.84000000011,
      "d": 110.29400000000169,
      "v": 127
    },
    {
      "midi": 85,
      "hit": false,
      "t": 39705.84000000011,
      "d": 110.29400000000169,
      "v": 127
    },
    {
      "midi": 60,
      "hit": false,
      "t": 39926.42800000006,
      "d": 220.58800000000338,
      "v": 127
    },
    {
      "midi": 62,
      "hit": false,
      "t": 39926.42800000006,
      "d": 220.58800000000338,
      "v": 127
    },
    {
      "midi": 65,
      "hit": false,
      "t": 39926.42800000006,
      "d": 220.58800000000338,
      "v": 127
    },
    {
      "midi": 74,
      "hit": false,
      "t": 39926.428000000116,
      "d": 110.29400000000169,
      "v": 127
    },
    {
      "midi": 86,
      "hit": false,
      "t": 39926.428000000116,
      "d": 110.29400000000169,
      "v": 127
    },
    {
      "midi": 43,
      "hit": false,
      "t": 40147.01600000006,
      "d": 220.58800000000338,
      "v": 127
    },
    {
      "midi": 55,
      "hit": false,
      "t": 40147.01600000006,
      "d": 220.58800000000338,
      "v": 127
    },
    {
      "midi": 79,
      "hit": false,
      "t": 40147.01600000012,
      "d": 110.29400000000169,
      "v": 127
    },
    {
      "midi": 91,
      "hit": false,
      "t": 40147.01600000012,
      "d": 110.29400000000169,
      "v": 127
    },
    {
      "midi": 59,
      "hit": false,
      "t": 40367.604000000065,
      "d": 220.58800000000338,
      "v": 127
    },
    {
      "midi": 62,
      "hit": false,
      "t": 40367.604000000065,
      "d": 220.58800000000338,
      "v": 127
    },
    {
      "midi": 65,
      "hit": false,
      "t": 40367.604000000065,
      "d": 220.58800000000338,
      "v": 127
    },
    {
      "midi": 77,
      "hit": false,
      "t": 40367.60400000012,
      "d": 110.29400000000169,
      "v": 127
    },
    {
      "midi": 89,
      "hit": false,
      "t": 40367.60400000012,
      "d": 110.29400000000169,
      "v": 127
    },
    {
      "midi": 43,
      "hit": false,
      "t": 40588.19200000007,
      "d": 220.58800000000338,
      "v": 127
    },
    {
      "midi": 55,
      "hit": false,
      "t": 40588.19200000007,
      "d": 220.58800000000338,
      "v": 127
    },
    {
      "midi": 76,
      "hit": false,
      "t": 40588.19200000013,
      "d": 110.29400000000169,
      "v": 127
    },
    {
      "midi": 88,
      "hit": false,
      "t": 40588.19200000013,
      "d": 110.29400000000169,
      "v": 127
    },
    {
      "midi": 59,
      "hit": false,
      "t": 40808.78000000007,
      "d": 220.58800000000338,
      "v": 127
    },
    {
      "midi": 62,
      "hit": false,
      "t": 40808.78000000007,
      "d": 220.58800000000338,
      "v": 127
    },
    {
      "midi": 65,
      "hit": false,
      "t": 40808.78000000007,
      "d": 220.58800000000338,
      "v": 127
    },
    {
      "midi": 74,
      "hit": false,
      "t": 40808.78000000013,
      "d": 110.29400000000169,
      "v": 127
    },
    {
      "midi": 86,
      "hit": false,
      "t": 40808.78000000013,
      "d": 110.29400000000169,
      "v": 127
    },
    {
      "midi": 33,
      "hit": false,
      "t": 41029.368000000075,
      "d": 220.58800000000338,
      "v": 127
    },
    {
      "midi": 45,
      "hit": false,
      "t": 41029.368000000075,
      "d": 220.58800000000338,
      "v": 127
    },
    {
      "midi": 57,
      "hit": false,
      "t": 41029.368000000075,
      "d": 220.58800000000338,
      "v": 127
    },
    {
      "midi": 72,
      "hit": false,
      "t": 41029.36800000013,
      "d": 110.29400000000169,
      "v": 127
    },
    {
      "midi": 84,
      "hit": false,
      "t": 41029.36800000013,
      "d": 110.29400000000169,
      "v": 127
    },
    {
      "midi": 60,
      "hit": false,
      "t": 41249.95600000008,
      "d": 220.58800000000338,
      "v": 127
    },
    {
      "midi": 64,
      "hit": false,
      "t": 41249.95600000008,
      "d": 220.58800000000338,
      "v": 127
    },
    {
      "midi": 45,
      "hit": false,
      "t": 41470.54400000008,
      "d": 220.58800000000338,
      "v": 127
    },
    {
      "midi": 57,
      "hit": false,
      "t": 41470.54400000008,
      "d": 220.58800000000338,
      "v": 127
    },
    {
      "midi": 72,
      "hit": false,
      "t": 41470.54400000013,
      "d": 110.29400000000169,
      "v": 127
    },
    {
      "midi": 84,
      "hit": false,
      "t": 41470.54400000013,
      "d": 110.29400000000169,
      "v": 127
    },
    {
      "midi": 60,
      "hit": false,
      "t": 41691.132000000085,
      "d": 220.58800000000338,
      "v": 127
    },
    {
      "midi": 64,
      "hit": false,
      "t": 41691.132000000085,
      "d": 220.58800000000338,
      "v": 127
    },
    {
      "midi": 43,
      "hit": false,
      "t": 41911.72000000009,
      "d": 220.58800000000338,
      "v": 127
    },
    {
      "midi": 55,
      "hit": false,
      "t": 41911.72000000009,
      "d": 220.58800000000338,
      "v": 127
    },
    {
      "midi": 72,
      "hit": false,
      "t": 41911.72000000013,
      "d": 110.29400000000169,
      "v": 127
    },
    {
      "midi": 84,
      "hit": false,
      "t": 41911.72000000013,
      "d": 110.29400000000169,
      "v": 127
    },
    {
      "midi": 58,
      "hit": false,
      "t": 42132.30800000009,
      "d": 220.58800000000338,
      "v": 127
    },
    {
      "midi": 64,
      "hit": false,
      "t": 42132.30800000009,
      "d": 220.58800000000338,
      "v": 127
    },
    {
      "midi": 43,
      "hit": false,
      "t": 42352.896000000095,
      "d": 220.58800000000338,
      "v": 127
    },
    {
      "midi": 55,
      "hit": false,
      "t": 42352.896000000095,
      "d": 220.58800000000338,
      "v": 127
    },
    {
      "midi": 72,
      "hit": false,
      "t": 42352.89600000013,
      "d": 110.29400000000169,
      "v": 127
    },
    {
      "midi": 84,
      "hit": false,
      "t": 42352.89600000013,
      "d": 110.29400000000169,
      "v": 127
    },
    {
      "midi": 58,
      "hit": false,
      "t": 42573.4840000001,
      "d": 220.58800000000338,
      "v": 127
    },
    {
      "midi": 64,
      "hit": false,
      "t": 42573.4840000001,
      "d": 220.58800000000338,
      "v": 127
    },
    {
      "midi": 41,
      "hit": false,
      "t": 42794.0720000001,
      "d": 220.58800000000338,
      "v": 127
    },
    {
      "midi": 53,
      "hit": false,
      "t": 42794.0720000001,
      "d": 220.58800000000338,
      "v": 127
    },
    {
      "midi": 72,
      "hit": false,
      "t": 42794.07200000013,
      "d": 147.05866666666407,
      "v": 127
    },
    {
      "midi": 84,
      "hit": false,
      "t": 42794.07200000013,
      "d": 147.05866666666407,
      "v": 127
    },
    {
      "midi": 74,
      "hit": false,
      "t": 42941.130666666795,
      "d": 147.05866666666407,
      "v": 127
    },
    {
      "midi": 86,
      "hit": false,
      "t": 42941.130666666795,
      "d": 147.05866666666407,
      "v": 127
    },
    {
      "midi": 57,
      "hit": false,
      "t": 43014.660000000105,
      "d": 220.58800000000338,
      "v": 127
    },
    {
      "midi": 60,
      "hit": false,
      "t": 43014.660000000105,
      "d": 220.58800000000338,
      "v": 127
    },
    {
      "midi": 65,
      "hit": false,
      "t": 43014.660000000105,
      "d": 220.58800000000338,
      "v": 127
    },
    {
      "midi": 72,
      "hit": false,
      "t": 43088.18933333346,
      "d": 147.05866666666407,
      "v": 127
    },
    {
      "midi": 84,
      "hit": false,
      "t": 43088.18933333346,
      "d": 147.05866666666407,
      "v": 127
    },
    {
      "midi": 41,
      "hit": false,
      "t": 43235.24800000011,
      "d": 220.58800000000338,
      "v": 127
    },
    {
      "midi": 53,
      "hit": false,
      "t": 43235.24800000011,
      "d": 220.58800000000338,
      "v": 127
    },
    {
      "midi": 71,
      "hit": false,
      "t": 43235.24800000012,
      "d": 110.29400000000169,
      "v": 127
    },
    {
      "midi": 83,
      "hit": false,
      "t": 43235.24800000012,
      "d": 110.29400000000169,
      "v": 127
    },
    {
      "midi": 57,
      "hit": false,
      "t": 43455.83600000011,
      "d": 220.58800000000338,
      "v": 127
    },
    {
      "midi": 60,
      "hit": false,
      "t": 43455.83600000011,
      "d": 220.58800000000338,
      "v": 127
    },
    {
      "midi": 65,
      "hit": false,
      "t": 43455.83600000011,
      "d": 220.58800000000338,
      "v": 127
    },
    {
      "midi": 72,
      "hit": false,
      "t": 43455.83600000013,
      "d": 110.29400000000169,
      "v": 127
    },
    {
      "midi": 84,
      "hit": false,
      "t": 43455.83600000013,
      "d": 110.29400000000169,
      "v": 127
    },
    {
      "midi": 38,
      "hit": false,
      "t": 43676.424000000115,
      "d": 220.58800000000338,
      "v": 117
    },
    {
      "midi": 50,
      "hit": false,
      "t": 43676.424000000115,
      "d": 220.58800000000338,
      "v": 127
    },
    {
      "midi": 77,
      "hit": false,
      "t": 43676.42400000013,
      "d": 110.29400000000169,
      "v": 127
    },
    {
      "midi": 89,
      "hit": false,
      "t": 43676.42400000013,
      "d": 110.29400000000169,
      "v": 127
    },
    {
      "midi": 53,
      "hit": false,
      "t": 43897.01200000012,
      "d": 220.58800000000338,
      "v": 127
    },
    {
      "midi": 57,
      "hit": false,
      "t": 43897.01200000012,
      "d": 220.58800000000338,
      "v": 127
    },
    {
      "midi": 62,
      "hit": false,
      "t": 43897.01200000012,
      "d": 220.58800000000338,
      "v": 127
    },
    {
      "midi": 76,
      "hit": false,
      "t": 43897.01200000013,
      "d": 110.29400000000169,
      "v": 127
    },
    {
      "midi": 88,
      "hit": false,
      "t": 43897.01200000013,
      "d": 110.29400000000169,
      "v": 127
    },
    {
      "midi": 38,
      "hit": false,
      "t": 44117.60000000012,
      "d": 220.58800000000338,
      "v": 124
    },
    {
      "midi": 50,
      "hit": false,
      "t": 44117.60000000012,
      "d": 220.58800000000338,
      "v": 127
    },
    {
      "midi": 74,
      "hit": false,
      "t": 44117.60000000014,
      "d": 110.29400000000169,
      "v": 127
    },
    {
      "midi": 86,
      "hit": false,
      "t": 44117.60000000014,
      "d": 110.29400000000169,
      "v": 127
    },
    {
      "midi": 53,
      "hit": false,
      "t": 44338.188000000126,
      "d": 220.58800000000338,
      "v": 127
    },
    {
      "midi": 57,
      "hit": false,
      "t": 44338.188000000126,
      "d": 220.58800000000338,
      "v": 127
    },
    {
      "midi": 62,
      "hit": false,
      "t": 44338.188000000126,
      "d": 220.58800000000338,
      "v": 127
    },
    {
      "midi": 72,
      "hit": false,
      "t": 44338.18800000014,
      "d": 110.29400000000169,
      "v": 127
    },
    {
      "midi": 84,
      "hit": false,
      "t": 44338.18800000014,
      "d": 110.29400000000169,
      "v": 127
    },
    {
      "midi": 43,
      "hit": false,
      "t": 44558.77600000013,
      "d": 220.58800000000338,
      "v": 127
    },
    {
      "midi": 55,
      "hit": false,
      "t": 44558.77600000013,
      "d": 220.58800000000338,
      "v": 127
    },
    {
      "midi": 72,
      "hit": false,
      "t": 44558.77600000014,
      "d": 110.29400000000169,
      "v": 127
    },
    {
      "midi": 84,
      "hit": false,
      "t": 44558.77600000014,
      "d": 110.29400000000169,
      "v": 127
    },
    {
      "midi": 59,
      "hit": false,
      "t": 44779.36400000013,
      "d": 220.58800000000338,
      "v": 127
    },
    {
      "midi": 65,
      "hit": false,
      "t": 44779.36400000013,
      "d": 220.58800000000338,
      "v": 127
    },
    {
      "midi": 71,
      "hit": false,
      "t": 44779.36400000015,
      "d": 110.29400000000169,
      "v": 127
    },
    {
      "midi": 83,
      "hit": false,
      "t": 44779.36400000015,
      "d": 110.29400000000169,
      "v": 127
    },
    {
      "midi": 43,
      "hit": false,
      "t": 44999.952000000136,
      "d": 220.58800000000338,
      "v": 127
    },
    {
      "midi": 55,
      "hit": false,
      "t": 44999.952000000136,
      "d": 220.58800000000338,
      "v": 127
    },
    {
      "midi": 74,
      "hit": false,
      "t": 44999.95200000015,
      "d": 110.29400000000169,
      "v": 127
    },
    {
      "midi": 86,
      "hit": false,
      "t": 44999.95200000015,
      "d": 110.29400000000169,
      "v": 127
    },
    {
      "midi": 60,
      "hit": false,
      "t": 45220.54000000014,
      "d": 220.58800000000338,
      "v": 127
    },
    {
      "midi": 65,
      "hit": false,
      "t": 45220.54000000014,
      "d": 220.58800000000338,
      "v": 127
    },
    {
      "midi": 72,
      "hit": false,
      "t": 45220.540000000154,
      "d": 110.29400000000169,
      "v": 127
    },
    {
      "midi": 84,
      "hit": false,
      "t": 45220.540000000154,
      "d": 110.29400000000169,
      "v": 127
    },
    {
      "midi": 43,
      "hit": false,
      "t": 45441.12800000014,
      "d": 220.58800000000338,
      "v": 127
    },
    {
      "midi": 55,
      "hit": false,
      "t": 45441.12800000014,
      "d": 220.58800000000338,
      "v": 127
    },
    {
      "midi": 76,
      "hit": false,
      "t": 45441.12800000016,
      "d": 110.29400000000169,
      "v": 127
    },
    {
      "midi": 88,
      "hit": false,
      "t": 45441.12800000016,
      "d": 110.29400000000169,
      "v": 127
    },
    {
      "midi": 62,
      "hit": false,
      "t": 45661.716000000146,
      "d": 220.58800000000338,
      "v": 127
    },
    {
      "midi": 65,
      "hit": false,
      "t": 45661.716000000146,
      "d": 220.58800000000338,
      "v": 127
    },
    {
      "midi": 74,
      "hit": false,
      "t": 45661.71600000016,
      "d": 110.29400000000169,
      "v": 127
    },
    {
      "midi": 86,
      "hit": false,
      "t": 45661.71600000016,
      "d": 110.29400000000169,
      "v": 127
    },
    {
      "midi": 43,
      "hit": false,
      "t": 45882.30400000015,
      "d": 220.58800000000338,
      "v": 127
    },
    {
      "midi": 55,
      "hit": false,
      "t": 45882.30400000015,
      "d": 220.58800000000338,
      "v": 127
    },
    {
      "midi": 77,
      "hit": false,
      "t": 45882.304000000164,
      "d": 110.29400000000169,
      "v": 127
    },
    {
      "midi": 89,
      "hit": false,
      "t": 45882.304000000164,
      "d": 110.29400000000169,
      "v": 127
    },
    {
      "midi": 60,
      "hit": false,
      "t": 46102.89200000015,
      "d": 220.58800000000338,
      "v": 127
    },
    {
      "midi": 64,
      "hit": false,
      "t": 46102.89200000015,
      "d": 220.58800000000338,
      "v": 127
    },
    {
      "midi": 76,
      "hit": false,
      "t": 46102.89200000017,
      "d": 110.29400000000169,
      "v": 127
    },
    {
      "midi": 88,
      "hit": false,
      "t": 46102.89200000017,
      "d": 110.29400000000169,
      "v": 127
    },
    {
      "midi": 43,
      "hit": false,
      "t": 46323.480000000156,
      "d": 220.58800000000338,
      "v": 127
    },
    {
      "midi": 55,
      "hit": false,
      "t": 46323.480000000156,
      "d": 220.58800000000338,
      "v": 127
    },
    {
      "midi": 79,
      "hit": false,
      "t": 46323.48000000017,
      "d": 110.29400000000169,
      "v": 127
    },
    {
      "midi": 91,
      "hit": false,
      "t": 46323.48000000017,
      "d": 110.29400000000169,
      "v": 127
    },
    {
      "midi": 60,
      "hit": false,
      "t": 46544.06800000016,
      "d": 220.58800000000338,
      "v": 127
    },
    {
      "midi": 62,
      "hit": false,
      "t": 46544.06800000016,
      "d": 220.58800000000338,
      "v": 127
    },
    {
      "midi": 66,
      "hit": false,
      "t": 46544.06800000016,
      "d": 220.58800000000338,
      "v": 127
    },
    {
      "midi": 78,
      "hit": false,
      "t": 46544.068000000174,
      "d": 110.29400000000169,
      "v": 127
    },
    {
      "midi": 90,
      "hit": false,
      "t": 46544.068000000174,
      "d": 110.29400000000169,
      "v": 127
    },
    {
      "midi": 43,
      "hit": false,
      "t": 46764.65600000016,
      "d": 220.58800000000338,
      "v": 127
    },
    {
      "midi": 55,
      "hit": false,
      "t": 46764.65600000016,
      "d": 220.58800000000338,
      "v": 127
    },
    {
      "midi": 84,
      "hit": false,
      "t": 46764.65600000018,
      "d": 110.29400000000169,
      "v": 127
    },
    {
      "midi": 96,
      "hit": false,
      "t": 46764.65600000018,
      "d": 110.29400000000169,
      "v": 127
    },
    {
      "midi": 60,
      "hit": false,
      "t": 46985.244000000166,
      "d": 220.58800000000338,
      "v": 127
    },
    {
      "midi": 62,
      "hit": false,
      "t": 46985.244000000166,
      "d": 220.58800000000338,
      "v": 127
    },
    {
      "midi": 66,
      "hit": false,
      "t": 46985.244000000166,
      "d": 220.58800000000338,
      "v": 127
    },
    {
      "midi": 78,
      "hit": false,
      "t": 46985.24400000018,
      "d": 110.29400000000169,
      "v": 127
    },
    {
      "midi": 90,
      "hit": false,
      "t": 46985.24400000018,
      "d": 110.29400000000169,
      "v": 127
    },
    {
      "midi": 43,
      "hit": false,
      "t": 47205.83200000017,
      "d": 220.58800000000338,
      "v": 127
    },
    {
      "midi": 55,
      "hit": false,
      "t": 47205.83200000017,
      "d": 220.58800000000338,
      "v": 127
    },
    {
      "midi": 59,
      "hit": false,
      "t": 47205.83200000017,
      "d": 220.58800000000338,
      "v": 127
    },
    {
      "midi": 62,
      "hit": false,
      "t": 47205.83200000017,
      "d": 220.58800000000338,
      "v": 127
    },
    {
      "midi": 67,
      "hit": false,
      "t": 47205.83200000017,
      "d": 220.58800000000338,
      "v": 127
    },
    {
      "midi": 79,
      "hit": false,
      "t": 47205.832000000184,
      "d": 220.58800000000338,
      "v": 127
    },
    {
      "midi": 91,
      "hit": false,
      "t": 47205.832000000184,
      "d": 220.58800000000338,
      "v": 127
    },
    {
      "midi": 83,
      "hit": false,
      "t": 47426.42000000019,
      "d": 110.29400000000169,
      "v": 127
    },
    {
      "midi": 95,
      "hit": false,
      "t": 47426.42000000019,
      "d": 110.29400000000169,
      "v": 127
    },
    {
      "midi": 86,
      "hit": false,
      "t": 47536.71400000019,
      "d": 110.29400000000169,
      "v": 127
    },
    {
      "midi": 98,
      "hit": false,
      "t": 47536.71400000019,
      "d": 110.29400000000169,
      "v": 127
    },
    {
      "midi": 91,
      "hit": false,
      "t": 47647.00800000019,
      "d": 110.29400000000169,
      "v": 127
    },
    {
      "midi": 103,
      "hit": false,
      "t": 47647.00800000019,
      "d": 110.29400000000169,
      "v": 127
    },
    {
      "midi": 43,
      "hit": false,
      "t": 48088.184000000176,
      "d": 220.58800000000338,
      "v": 127
    },
    {
      "midi": 48,
      "hit": false,
      "t": 48088.184000000176,
      "d": 220.58800000000338,
      "v": 127
    },
    {
      "midi": 51,
      "hit": false,
      "t": 48088.184000000176,
      "d": 220.58800000000338,
      "v": 127
    },
    {
      "midi": 55,
      "hit": false,
      "t": 48088.184000000176,
      "d": 220.58800000000338,
      "v": 127
    },
    {
      "midi": 48,
      "hit": false,
      "t": 48088.18400000019,
      "d": 110.29400000000169,
      "v": 126
    },
    {
      "midi": 50,
      "hit": false,
      "t": 48198.47800000019,
      "d": 110.29400000000169,
      "v": 126
    },
    {
      "midi": 51,
      "hit": false,
      "t": 48308.772000000194,
      "d": 110.29400000000169,
      "v": 127
    },
    {
      "midi": 55,
      "hit": false,
      "t": 48419.066000000195,
      "d": 110.29400000000169,
      "v": 127
    },
    {
      "midi": 43,
      "hit": false,
      "t": 48529.36000000018,
      "d": 220.58800000000338,
      "v": 127
    },
    {
      "midi": 48,
      "hit": false,
      "t": 48529.36000000018,
      "d": 220.58800000000338,
      "v": 127
    },
    {
      "midi": 53,
      "hit": false,
      "t": 48529.36000000018,
      "d": 220.58800000000338,
      "v": 127
    },
    {
      "midi": 56,
      "hit": false,
      "t": 48529.36000000018,
      "d": 220.58800000000338,
      "v": 127
    },
    {
      "midi": 53,
      "hit": false,
      "t": 48529.3600000002,
      "d": 110.29400000000169,
      "v": 125
    },
    {
      "midi": 55,
      "hit": false,
      "t": 48639.6540000002,
      "d": 110.29400000000169,
      "v": 126
    },
    {
      "midi": 56,
      "hit": false,
      "t": 48749.9480000002,
      "d": 110.29400000000169,
      "v": 127
    },
    {
      "midi": 60,
      "hit": false,
      "t": 48860.2420000002,
      "d": 110.29400000000169,
      "v": 127
    },
    {
      "midi": 43,
      "hit": false,
      "t": 48970.53600000019,
      "d": 220.58800000000338,
      "v": 127
    },
    {
      "midi": 48,
      "hit": false,
      "t": 48970.53600000019,
      "d": 220.58800000000338,
      "v": 127
    },
    {
      "midi": 51,
      "hit": false,
      "t": 48970.53600000019,
      "d": 220.58800000000338,
      "v": 127
    },
    {
      "midi": 55,
      "hit": false,
      "t": 48970.53600000019,
      "d": 220.58800000000338,
      "v": 127
    },
    {
      "midi": 60,
      "hit": false,
      "t": 48970.536000000204,
      "d": 110.29400000000169,
      "v": 126
    },
    {
      "midi": 62,
      "hit": false,
      "t": 49080.830000000205,
      "d": 110.29400000000169,
      "v": 126
    },
    {
      "midi": 63,
      "hit": false,
      "t": 49191.12400000021,
      "d": 110.29400000000169,
      "v": 127
    },
    {
      "midi": 67,
      "hit": false,
      "t": 49301.41800000021,
      "d": 110.29400000000169,
      "v": 127
    },
    {
      "midi": 43,
      "hit": false,
      "t": 49411.712000000196,
      "d": 220.58800000000338,
      "v": 127
    },
    {
      "midi": 48,
      "hit": false,
      "t": 49411.712000000196,
      "d": 220.58800000000338,
      "v": 127
    },
    {
      "midi": 53,
      "hit": false,
      "t": 49411.712000000196,
      "d": 220.58800000000338,
      "v": 127
    },
    {
      "midi": 56,
      "hit": false,
      "t": 49411.712000000196,
      "d": 220.58800000000338,
      "v": 127
    },
    {
      "midi": 65,
      "hit": false,
      "t": 49411.71200000021,
      "d": 110.29400000000169,
      "v": 125
    },
    {
      "midi": 67,
      "hit": false,
      "t": 49522.00600000021,
      "d": 110.29400000000169,
      "v": 126
    },
    {
      "midi": 68,
      "hit": false,
      "t": 49632.300000000214,
      "d": 110.29400000000169,
      "v": 127
    },
    {
      "midi": 72,
      "hit": false,
      "t": 49742.594000000216,
      "d": 110.29400000000169,
      "v": 127
    },
    {
      "midi": 43,
      "hit": false,
      "t": 49852.8880000002,
      "d": 220.58800000000338,
      "v": 127
    },
    {
      "midi": 48,
      "hit": false,
      "t": 49852.8880000002,
      "d": 220.58800000000338,
      "v": 127
    },
    {
      "midi": 51,
      "hit": false,
      "t": 49852.8880000002,
      "d": 220.58800000000338,
      "v": 127
    },
    {
      "midi": 55,
      "hit": false,
      "t": 49852.8880000002,
      "d": 220.58800000000338,
      "v": 127
    },
    {
      "midi": 72,
      "hit": false,
      "t": 49852.88800000022,
      "d": 110.29400000000169,
      "v": 126
    },
    {
      "midi": 74,
      "hit": false,
      "t": 49963.18200000022,
      "d": 110.29400000000169,
      "v": 126
    },
    {
      "midi": 75,
      "hit": false,
      "t": 50073.47600000022,
      "d": 110.29400000000169,
      "v": 127
    },
    {
      "midi": 79,
      "hit": false,
      "t": 50183.77000000022,
      "d": 110.29400000000169,
      "v": 127
    },
    {
      "midi": 43,
      "hit": false,
      "t": 50294.06400000021,
      "d": 220.58800000000338,
      "v": 127
    },
    {
      "midi": 48,
      "hit": false,
      "t": 50294.06400000021,
      "d": 220.58800000000338,
      "v": 127
    },
    {
      "midi": 53,
      "hit": false,
      "t": 50294.06400000021,
      "d": 220.58800000000338,
      "v": 127
    },
    {
      "midi": 56,
      "hit": false,
      "t": 50294.06400000021,
      "d": 220.58800000000338,
      "v": 127
    },
    {
      "midi": 77,
      "hit": false,
      "t": 50294.064000000224,
      "d": 110.29400000000169,
      "v": 125
    },
    {
      "midi": 79,
      "hit": false,
      "t": 50404.358000000226,
      "d": 110.29400000000169,
      "v": 126
    },
    {
      "midi": 80,
      "hit": false,
      "t": 50514.65200000023,
      "d": 110.29400000000169,
      "v": 127
    },
    {
      "midi": 84,
      "hit": false,
      "t": 50624.94600000023,
      "d": 110.29400000000169,
      "v": 127
    },
    {
      "midi": 43,
      "hit": false,
      "t": 50735.240000000216,
      "d": 220.58800000000338,
      "v": 127
    },
    {
      "midi": 48,
      "hit": false,
      "t": 50735.240000000216,
      "d": 220.58800000000338,
      "v": 127
    },
    {
      "midi": 51,
      "hit": false,
      "t": 50735.240000000216,
      "d": 220.58800000000338,
      "v": 127
    },
    {
      "midi": 55,
      "hit": false,
      "t": 50735.240000000216,
      "d": 220.58800000000338,
      "v": 127
    },
    {
      "midi": 84,
      "hit": false,
      "t": 50735.24000000023,
      "d": 110.29400000000169,
      "v": 126
    },
    {
      "midi": 86,
      "hit": false,
      "t": 50845.53400000023,
      "d": 110.29400000000169,
      "v": 126
    },
    {
      "midi": 87,
      "hit": false,
      "t": 50955.828000000234,
      "d": 110.29400000000169,
      "v": 127
    },
    {
      "midi": 91,
      "hit": false,
      "t": 51066.122000000236,
      "d": 110.29400000000169,
      "v": 127
    },
    {
      "midi": 43,
      "hit": false,
      "t": 51176.41600000022,
      "d": 220.58800000000338,
      "v": 127
    },
    {
      "midi": 48,
      "hit": false,
      "t": 51176.41600000022,
      "d": 220.58800000000338,
      "v": 127
    },
    {
      "midi": 53,
      "hit": false,
      "t": 51176.41600000022,
      "d": 220.58800000000338,
      "v": 127
    },
    {
      "midi": 56,
      "hit": false,
      "t": 51176.41600000022,
      "d": 220.58800000000338,
      "v": 127
    },
    {
      "midi": 89,
      "hit": false,
      "t": 51176.41600000024,
      "d": 110.29400000000169,
      "v": 125
    },
    {
      "midi": 91,
      "hit": false,
      "t": 51286.71000000024,
      "d": 110.29400000000169,
      "v": 126
    },
    {
      "midi": 92,
      "hit": false,
      "t": 51397.00400000024,
      "d": 110.29400000000169,
      "v": 127
    },
    {
      "midi": 96,
      "hit": false,
      "t": 51507.29800000024,
      "d": 110.29400000000169,
      "v": 127
    },
    {
      "midi": 43,
      "hit": false,
      "t": 51617.59200000023,
      "d": 220.58800000000338,
      "v": 127
    },
    {
      "midi": 48,
      "hit": false,
      "t": 51617.59200000023,
      "d": 220.58800000000338,
      "v": 127
    },
    {
      "midi": 51,
      "hit": false,
      "t": 51617.59200000023,
      "d": 220.58800000000338,
      "v": 127
    },
    {
      "midi": 55,
      "hit": false,
      "t": 51617.59200000023,
      "d": 220.58800000000338,
      "v": 127
    },
    {
      "midi": 99,
      "hit": false,
      "t": 51617.592000000244,
      "d": 110.29400000000169,
      "v": 127
    },
    {
      "midi": 101,
      "hit": false,
      "t": 51727.886000000246,
      "d": 110.29400000000169,
      "v": 127
    },
    {
      "midi": 103,
      "hit": false,
      "t": 51838.18000000025,
      "d": 110.29400000000169,
      "v": 127
    },
    {
      "midi": 96,
      "hit": false,
      "t": 51948.47400000025,
      "d": 110.29400000000169,
      "v": 127
    },
    {
      "midi": 43,
      "hit": false,
      "t": 52058.76800000024,
      "d": 220.58800000000338,
      "v": 127
    },
    {
      "midi": 47,
      "hit": false,
      "t": 52058.76800000024,
      "d": 220.58800000000338,
      "v": 127
    },
    {
      "midi": 50,
      "hit": false,
      "t": 52058.76800000024,
      "d": 220.58800000000338,
      "v": 127
    },
    {
      "midi": 55,
      "hit": false,
      "t": 52058.76800000024,
      "d": 220.58800000000338,
      "v": 127
    },
    {
      "midi": 95,
      "hit": false,
      "t": 52058.76800000025,
      "d": 110.29400000000169,
      "v": 127
    },
    {
      "midi": 96,
      "hit": false,
      "t": 52169.06200000025,
      "d": 110.29400000000169,
      "v": 127
    },
    {
      "midi": 98,
      "hit": false,
      "t": 52279.356000000254,
      "d": 110.29400000000169,
      "v": 127
    },
    {
      "midi": 89,
      "hit": false,
      "t": 52389.650000000256,
      "d": 110.29400000000169,
      "v": 127
    },
    {
      "midi": 43,
      "hit": false,
      "t": 52499.94400000024,
      "d": 220.58800000000338,
      "v": 127
    },
    {
      "midi": 48,
      "hit": false,
      "t": 52499.94400000024,
      "d": 220.58800000000338,
      "v": 127
    },
    {
      "midi": 51,
      "hit": false,
      "t": 52499.94400000024,
      "d": 220.58800000000338,
      "v": 127
    },
    {
      "midi": 55,
      "hit": false,
      "t": 52499.94400000024,
      "d": 220.58800000000338,
      "v": 127
    },
    {
      "midi": 87,
      "hit": false,
      "t": 52499.94400000026,
      "d": 110.29400000000169,
      "v": 127
    },
    {
      "midi": 89,
      "hit": false,
      "t": 52610.23800000026,
      "d": 110.29400000000169,
      "v": 127
    },
    {
      "midi": 91,
      "hit": false,
      "t": 52720.53200000026,
      "d": 110.29400000000169,
      "v": 127
    },
    {
      "midi": 84,
      "hit": false,
      "t": 52830.82600000026,
      "d": 110.29400000000169,
      "v": 127
    },
    {
      "midi": 43,
      "hit": false,
      "t": 52941.12000000025,
      "d": 220.58800000000338,
      "v": 127
    },
    {
      "midi": 47,
      "hit": false,
      "t": 52941.12000000025,
      "d": 220.58800000000338,
      "v": 127
    },
    {
      "midi": 50,
      "hit": false,
      "t": 52941.12000000025,
      "d": 220.58800000000338,
      "v": 127
    },
    {
      "midi": 55,
      "hit": false,
      "t": 52941.12000000025,
      "d": 220.58800000000338,
      "v": 127
    },
    {
      "midi": 83,
      "hit": false,
      "t": 52941.120000000265,
      "d": 110.29400000000169,
      "v": 127
    },
    {
      "midi": 84,
      "hit": false,
      "t": 53051.414000000266,
      "d": 110.29400000000169,
      "v": 127
    },
    {
      "midi": 86,
      "hit": false,
      "t": 53161.70800000027,
      "d": 110.29400000000169,
      "v": 127
    },
    {
      "midi": 77,
      "hit": false,
      "t": 53272.00200000027,
      "d": 110.29400000000169,
      "v": 127
    },
    {
      "midi": 43,
      "hit": false,
      "t": 53382.29600000026,
      "d": 220.58800000000338,
      "v": 127
    },
    {
      "midi": 48,
      "hit": false,
      "t": 53382.29600000026,
      "d": 220.58800000000338,
      "v": 127
    },
    {
      "midi": 51,
      "hit": false,
      "t": 53382.29600000026,
      "d": 220.58800000000338,
      "v": 127
    },
    {
      "midi": 55,
      "hit": false,
      "t": 53382.29600000026,
      "d": 220.58800000000338,
      "v": 127
    },
    {
      "midi": 75,
      "hit": false,
      "t": 53382.29600000027,
      "d": 110.29400000000169,
      "v": 127
    },
    {
      "midi": 77,
      "hit": false,
      "t": 53492.59000000027,
      "d": 110.29400000000169,
      "v": 127
    },
    {
      "midi": 79,
      "hit": false,
      "t": 53602.884000000275,
      "d": 110.29400000000169,
      "v": 127
    },
    {
      "midi": 72,
      "hit": false,
      "t": 53713.17800000028,
      "d": 110.29400000000169,
      "v": 127
    },
    {
      "midi": 43,
      "hit": false,
      "t": 53823.47200000026,
      "d": 220.58800000000338,
      "v": 127
    },
    {
      "midi": 45,
      "hit": false,
      "t": 53823.47200000026,
      "d": 220.58800000000338,
      "v": 127
    },
    {
      "midi": 50,
      "hit": false,
      "t": 53823.47200000026,
      "d": 220.58800000000338,
      "v": 127
    },
    {
      "midi": 54,
      "hit": false,
      "t": 53823.47200000026,
      "d": 220.58800000000338,
      "v": 127
    },
    {
      "midi": 74,
      "hit": false,
      "t": 53823.47200000028,
      "d": 110.29400000000169,
      "v": 127
    },
    {
      "midi": 72,
      "hit": false,
      "t": 53933.76600000028,
      "d": 110.29400000000169,
      "v": 127
    },
    {
      "midi": 71,
      "hit": false,
      "t": 54044.06000000028,
      "d": 110.29400000000169,
      "v": 127
    },
    {
      "midi": 69,
      "hit": false,
      "t": 54154.35400000028,
      "d": 110.29400000000169,
      "v": 127
    },
    {
      "midi": 43,
      "hit": false,
      "t": 54264.64800000027,
      "d": 220.58800000000338,
      "v": 127
    },
    {
      "midi": 47,
      "hit": false,
      "t": 54264.64800000027,
      "d": 220.58800000000338,
      "v": 127
    },
    {
      "midi": 50,
      "hit": false,
      "t": 54264.64800000027,
      "d": 220.58800000000338,
      "v": 127
    },
    {
      "midi": 55,
      "hit": false,
      "t": 54264.64800000027,
      "d": 220.58800000000338,
      "v": 127
    },
    {
      "midi": 72,
      "hit": false,
      "t": 54264.648000000285,
      "d": 110.29400000000169,
      "v": 127
    },
    {
      "midi": 71,
      "hit": false,
      "t": 54374.94200000029,
      "d": 110.29400000000169,
      "v": 127
    },
    {
      "midi": 69,
      "hit": false,
      "t": 54485.23600000029,
      "d": 110.29400000000169,
      "v": 127
    },
    {
      "midi": 67,
      "hit": false,
      "t": 54595.53000000029,
      "d": 110.29400000000169,
      "v": 127
    },
    {
      "midi": 43,
      "hit": false,
      "t": 54705.82400000028,
      "d": 220.58800000000338,
      "v": 127
    },
    {
      "midi": 55,
      "hit": false,
      "t": 54705.82400000028,
      "d": 220.58800000000338,
      "v": 127
    },
    {
      "midi": 67,
      "hit": false,
      "t": 54705.82400000029,
      "d": 110.29400000000169,
      "v": 127
    },
    {
      "midi": 65,
      "hit": false,
      "t": 54816.11800000029,
      "d": 110.29400000000169,
      "v": 127
    },
    {
      "midi": 63,
      "hit": false,
      "t": 54926.412000000295,
      "d": 110.29400000000169,
      "v": 127
    },
    {
      "midi": 62,
      "hit": false,
      "t": 55036.7060000003,
      "d": 110.29400000000169,
      "v": 127
    },
    {
      "midi": 43,
      "hit": false,
      "t": 55147.000000000284,
      "d": 220.58800000000338,
      "v": 127
    },
    {
      "midi": 48,
      "hit": false,
      "t": 55147.000000000284,
      "d": 220.58800000000338,
      "v": 127
    },
    {
      "midi": 51,
      "hit": false,
      "t": 55147.000000000284,
      "d": 220.58800000000338,
      "v": 127
    },
    {
      "midi": 55,
      "hit": false,
      "t": 55147.000000000284,
      "d": 220.58800000000338,
      "v": 127
    },
    {
      "midi": 60,
      "hit": false,
      "t": 55147.0000000003,
      "d": 110.29400000000169,
      "v": 126
    },
    {
      "midi": 62,
      "hit": false,
      "t": 55257.2940000003,
      "d": 110.29400000000169,
      "v": 126
    },
    {
      "midi": 63,
      "hit": false,
      "t": 55367.5880000003,
      "d": 110.29400000000169,
      "v": 127
    },
    {
      "midi": 67,
      "hit": false,
      "t": 55477.8820000003,
      "d": 110.29400000000169,
      "v": 127
    },
    {
      "midi": 43,
      "hit": false,
      "t": 55588.17600000029,
      "d": 220.58800000000338,
      "v": 127
    },
    {
      "midi": 48,
      "hit": false,
      "t": 55588.17600000029,
      "d": 220.58800000000338,
      "v": 127
    },
    {
      "midi": 53,
      "hit": false,
      "t": 55588.17600000029,
      "d": 220.58800000000338,
      "v": 127
    },
    {
      "midi": 56,
      "hit": false,
      "t": 55588.17600000029,
      "d": 220.58800000000338,
      "v": 127
    },
    {
      "midi": 65,
      "hit": false,
      "t": 55588.176000000305,
      "d": 110.29400000000169,
      "v": 125
    },
    {
      "midi": 67,
      "hit": false,
      "t": 55698.47000000031,
      "d": 110.29400000000169,
      "v": 126
    },
    {
      "midi": 68,
      "hit": false,
      "t": 55808.76400000031,
      "d": 110.29400000000169,
      "v": 127
    },
    {
      "midi": 72,
      "hit": false,
      "t": 55919.05800000031,
      "d": 110.29400000000169,
      "v": 127
    },
    {
      "midi": 43,
      "hit": false,
      "t": 56029.3520000003,
      "d": 220.58800000000338,
      "v": 127
    },
    {
      "midi": 48,
      "hit": false,
      "t": 56029.3520000003,
      "d": 220.58800000000338,
      "v": 127
    },
    {
      "midi": 51,
      "hit": false,
      "t": 56029.3520000003,
      "d": 220.58800000000338,
      "v": 127
    },
    {
      "midi": 55,
      "hit": false,
      "t": 56029.3520000003,
      "d": 220.58800000000338,
      "v": 127
    },
    {
      "midi": 72,
      "hit": false,
      "t": 56029.35200000031,
      "d": 110.29400000000169,
      "v": 126
    },
    {
      "midi": 74,
      "hit": false,
      "t": 56139.64600000031,
      "d": 110.29400000000169,
      "v": 126
    },
    {
      "midi": 75,
      "hit": false,
      "t": 56249.940000000315,
      "d": 110.29400000000169,
      "v": 127
    },
    {
      "midi": 79,
      "hit": false,
      "t": 56360.23400000032,
      "d": 110.29400000000169,
      "v": 127
    },
    {
      "midi": 43,
      "hit": false,
      "t": 56470.528000000304,
      "d": 220.58800000000338,
      "v": 127
    },
    {
      "midi": 48,
      "hit": false,
      "t": 56470.528000000304,
      "d": 220.58800000000338,
      "v": 127
    },
    {
      "midi": 53,
      "hit": false,
      "t": 56470.528000000304,
      "d": 220.58800000000338,
      "v": 127
    },
    {
      "midi": 56,
      "hit": false,
      "t": 56470.528000000304,
      "d": 220.58800000000338,
      "v": 127
    },
    {
      "midi": 77,
      "hit": false,
      "t": 56470.52800000032,
      "d": 110.29400000000169,
      "v": 125
    },
    {
      "midi": 79,
      "hit": false,
      "t": 56580.82200000032,
      "d": 110.29400000000169,
      "v": 126
    },
    {
      "midi": 80,
      "hit": false,
      "t": 56691.11600000032,
      "d": 110.29400000000169,
      "v": 127
    },
    {
      "midi": 84,
      "hit": false,
      "t": 56801.41000000032,
      "d": 110.29400000000169,
      "v": 127
    },
    {
      "midi": 43,
      "hit": false,
      "t": 56911.70400000031,
      "d": 220.58800000000338,
      "v": 127
    },
    {
      "midi": 48,
      "hit": false,
      "t": 56911.70400000031,
      "d": 220.58800000000338,
      "v": 127
    },
    {
      "midi": 51,
      "hit": false,
      "t": 56911.70400000031,
      "d": 220.58800000000338,
      "v": 127
    },
    {
      "midi": 55,
      "hit": false,
      "t": 56911.70400000031,
      "d": 220.58800000000338,
      "v": 127
    },
    {
      "midi": 72,
      "hit": false,
      "t": 56911.704000000325,
      "d": 110.29400000000169,
      "v": 126
    },
    {
      "midi": 74,
      "hit": false,
      "t": 57021.99800000033,
      "d": 110.29400000000169,
      "v": 126
    },
    {
      "midi": 75,
      "hit": false,
      "t": 57132.29200000033,
      "d": 110.29400000000169,
      "v": 127
    },
    {
      "midi": 79,
      "hit": false,
      "t": 57242.58600000033,
      "d": 110.29400000000169,
      "v": 127
    },
    {
      "midi": 43,
      "hit": false,
      "t": 57352.88000000032,
      "d": 220.58800000000338,
      "v": 127
    },
    {
      "midi": 48,
      "hit": false,
      "t": 57352.88000000032,
      "d": 220.58800000000338,
      "v": 127
    },
    {
      "midi": 53,
      "hit": false,
      "t": 57352.88000000032,
      "d": 220.58800000000338,
      "v": 127
    },
    {
      "midi": 56,
      "hit": false,
      "t": 57352.88000000032,
      "d": 220.58800000000338,
      "v": 127
    },
    {
      "midi": 77,
      "hit": false,
      "t": 57352.88000000033,
      "d": 110.29400000000169,
      "v": 125
    },
    {
      "midi": 79,
      "hit": false,
      "t": 57463.174000000334,
      "d": 110.29400000000169,
      "v": 126
    },
    {
      "midi": 80,
      "hit": false,
      "t": 57573.468000000335,
      "d": 110.29400000000169,
      "v": 127
    },
    {
      "midi": 84,
      "hit": false,
      "t": 57683.76200000034,
      "d": 110.29400000000169,
      "v": 127
    },
    {
      "midi": 43,
      "hit": false,
      "t": 57794.056000000324,
      "d": 220.58800000000338,
      "v": 127
    },
    {
      "midi": 48,
      "hit": false,
      "t": 57794.056000000324,
      "d": 220.58800000000338,
      "v": 127
    },
    {
      "midi": 51,
      "hit": false,
      "t": 57794.056000000324,
      "d": 220.58800000000338,
      "v": 127
    },
    {
      "midi": 55,
      "hit": false,
      "t": 57794.056000000324,
      "d": 220.58800000000338,
      "v": 127
    },
    {
      "midi": 84,
      "hit": false,
      "t": 57794.05600000034,
      "d": 110.29400000000169,
      "v": 126
    },
    {
      "midi": 86,
      "hit": false,
      "t": 57904.35000000034,
      "d": 110.29400000000169,
      "v": 126
    },
    {
      "midi": 87,
      "hit": false,
      "t": 58014.64400000034,
      "d": 110.29400000000169,
      "v": 127
    },
    {
      "midi": 91,
      "hit": false,
      "t": 58124.938000000344,
      "d": 110.29400000000169,
      "v": 127
    },
    {
      "midi": 43,
      "hit": false,
      "t": 58235.23200000033,
      "d": 220.58800000000338,
      "v": 127
    },
    {
      "midi": 48,
      "hit": false,
      "t": 58235.23200000033,
      "d": 220.58800000000338,
      "v": 127
    },
    {
      "midi": 53,
      "hit": false,
      "t": 58235.23200000033,
      "d": 220.58800000000338,
      "v": 127
    },
    {
      "midi": 56,
      "hit": false,
      "t": 58235.23200000033,
      "d": 220.58800000000338,
      "v": 127
    },
    {
      "midi": 89,
      "hit": false,
      "t": 58235.232000000346,
      "d": 110.29400000000169,
      "v": 125
    },
    {
      "midi": 91,
      "hit": false,
      "t": 58345.52600000035,
      "d": 110.29400000000169,
      "v": 126
    },
    {
      "midi": 92,
      "hit": false,
      "t": 58455.82000000035,
      "d": 110.29400000000169,
      "v": 127
    },
    {
      "midi": 96,
      "hit": false,
      "t": 58566.11400000035,
      "d": 110.29400000000169,
      "v": 127
    },
    {
      "midi": 43,
      "hit": false,
      "t": 58676.40800000034,
      "d": 220.58800000000338,
      "v": 127
    },
    {
      "midi": 48,
      "hit": false,
      "t": 58676.40800000034,
      "d": 220.58800000000338,
      "v": 127
    },
    {
      "midi": 51,
      "hit": false,
      "t": 58676.40800000034,
      "d": 220.58800000000338,
      "v": 127
    },
    {
      "midi": 55,
      "hit": false,
      "t": 58676.40800000034,
      "d": 220.58800000000338,
      "v": 127
    },
    {
      "midi": 99,
      "hit": false,
      "t": 58676.40800000035,
      "d": 110.29400000000169,
      "v": 127
    },
    {
      "midi": 101,
      "hit": false,
      "t": 58786.702000000354,
      "d": 110.29400000000169,
      "v": 127
    },
    {
      "midi": 103,
      "hit": false,
      "t": 58896.996000000356,
      "d": 110.29400000000169,
      "v": 127
    },
    {
      "midi": 96,
      "hit": false,
      "t": 59007.29000000036,
      "d": 110.29400000000169,
      "v": 127
    },
    {
      "midi": 43,
      "hit": false,
      "t": 59117.584000000345,
      "d": 220.58800000000338,
      "v": 127
    },
    {
      "midi": 48,
      "hit": false,
      "t": 59117.584000000345,
      "d": 220.58800000000338,
      "v": 127
    },
    {
      "midi": 53,
      "hit": false,
      "t": 59117.584000000345,
      "d": 220.58800000000338,
      "v": 127
    },
    {
      "midi": 56,
      "hit": false,
      "t": 59117.584000000345,
      "d": 220.58800000000338,
      "v": 127
    },
    {
      "midi": 95,
      "hit": false,
      "t": 59117.58400000036,
      "d": 110.29400000000169,
      "v": 127
    },
    {
      "midi": 96,
      "hit": false,
      "t": 59227.87800000036,
      "d": 110.29400000000169,
      "v": 127
    },
    {
      "midi": 98,
      "hit": false,
      "t": 59338.17200000036,
      "d": 110.29400000000169,
      "v": 127
    },
    {
      "midi": 89,
      "hit": false,
      "t": 59448.466000000364,
      "d": 110.29400000000169,
      "v": 127
    },
    {
      "midi": 43,
      "hit": false,
      "t": 59558.76000000035,
      "d": 220.58800000000338,
      "v": 127
    },
    {
      "midi": 48,
      "hit": false,
      "t": 59558.76000000035,
      "d": 220.58800000000338,
      "v": 127
    },
    {
      "midi": 51,
      "hit": false,
      "t": 59558.76000000035,
      "d": 220.58800000000338,
      "v": 127
    },
    {
      "midi": 55,
      "hit": false,
      "t": 59558.76000000035,
      "d": 220.58800000000338,
      "v": 127
    },
    {
      "midi": 87,
      "hit": false,
      "t": 59558.760000000366,
      "d": 110.29400000000169,
      "v": 127
    },
    {
      "midi": 89,
      "hit": false,
      "t": 59669.05400000037,
      "d": 110.29400000000169,
      "v": 127
    },
    {
      "midi": 91,
      "hit": false,
      "t": 59779.34800000037,
      "d": 110.29400000000169,
      "v": 127
    },
    {
      "midi": 84,
      "hit": false,
      "t": 59889.64200000037,
      "d": 110.29400000000169,
      "v": 127
    },
    {
      "midi": 43,
      "hit": false,
      "t": 59999.93600000036,
      "d": 220.58800000000338,
      "v": 127
    },
    {
      "midi": 48,
      "hit": false,
      "t": 59999.93600000036,
      "d": 220.58800000000338,
      "v": 127
    },
    {
      "midi": 53,
      "hit": false,
      "t": 59999.93600000036,
      "d": 220.58800000000338,
      "v": 127
    },
    {
      "midi": 56,
      "hit": false,
      "t": 59999.93600000036,
      "d": 220.58800000000338,
      "v": 127
    },
    {
      "midi": 83,
      "hit": false,
      "t": 59999.93600000037,
      "d": 110.29400000000169,
      "v": 127
    },
    {
      "midi": 84,
      "hit": false,
      "t": 60110.230000000374,
      "d": 110.29400000000169,
      "v": 127
    },
    {
      "midi": 86,
      "hit": false,
      "t": 60220.524000000376,
      "d": 110.29400000000169,
      "v": 127
    },
    {
      "midi": 77,
      "hit": false,
      "t": 60330.81800000038,
      "d": 110.29400000000169,
      "v": 127
    },
    {
      "midi": 43,
      "hit": false,
      "t": 60441.112000000365,
      "d": 220.58800000000338,
      "v": 127
    },
    {
      "midi": 48,
      "hit": false,
      "t": 60441.112000000365,
      "d": 220.58800000000338,
      "v": 127
    },
    {
      "midi": 51,
      "hit": false,
      "t": 60441.112000000365,
      "d": 220.58800000000338,
      "v": 127
    },
    {
      "midi": 55,
      "hit": false,
      "t": 60441.112000000365,
      "d": 220.58800000000338,
      "v": 127
    },
    {
      "midi": 75,
      "hit": false,
      "t": 60441.11200000038,
      "d": 110.29400000000169,
      "v": 127
    },
    {
      "midi": 77,
      "hit": false,
      "t": 60551.40600000038,
      "d": 110.29400000000169,
      "v": 127
    },
    {
      "midi": 79,
      "hit": false,
      "t": 60661.70000000038,
      "d": 110.29400000000169,
      "v": 127
    },
    {
      "midi": 72,
      "hit": false,
      "t": 60771.994000000384,
      "d": 110.29400000000169,
      "v": 127
    },
    {
      "midi": 43,
      "hit": false,
      "t": 60882.28800000037,
      "d": 220.58800000000338,
      "v": 127
    },
    {
      "midi": 45,
      "hit": false,
      "t": 60882.28800000037,
      "d": 220.58800000000338,
      "v": 127
    },
    {
      "midi": 50,
      "hit": false,
      "t": 60882.28800000037,
      "d": 220.58800000000338,
      "v": 127
    },
    {
      "midi": 54,
      "hit": false,
      "t": 60882.28800000037,
      "d": 220.58800000000338,
      "v": 127
    },
    {
      "midi": 74,
      "hit": false,
      "t": 60882.288000000386,
      "d": 110.29400000000169,
      "v": 127
    },
    {
      "midi": 72,
      "hit": false,
      "t": 60992.58200000039,
      "d": 110.29400000000169,
      "v": 127
    },
    {
      "midi": 71,
      "hit": false,
      "t": 61102.87600000039,
      "d": 110.29400000000169,
      "v": 127
    },
    {
      "midi": 69,
      "hit": false,
      "t": 61213.17000000039,
      "d": 110.29400000000169,
      "v": 127
    },
    {
      "midi": 43,
      "hit": false,
      "t": 61323.46400000038,
      "d": 220.58800000000338,
      "v": 127
    },
    {
      "midi": 47,
      "hit": false,
      "t": 61323.46400000038,
      "d": 220.58800000000338,
      "v": 127
    },
    {
      "midi": 50,
      "hit": false,
      "t": 61323.46400000038,
      "d": 220.58800000000338,
      "v": 127
    },
    {
      "midi": 55,
      "hit": false,
      "t": 61323.46400000038,
      "d": 220.58800000000338,
      "v": 127
    },
    {
      "midi": 72,
      "hit": false,
      "t": 61323.46400000039,
      "d": 110.29400000000169,
      "v": 127
    },
    {
      "midi": 71,
      "hit": false,
      "t": 61433.758000000395,
      "d": 110.29400000000169,
      "v": 127
    },
    {
      "midi": 69,
      "hit": false,
      "t": 61544.052000000396,
      "d": 110.29400000000169,
      "v": 127
    },
    {
      "midi": 67,
      "hit": false,
      "t": 61654.3460000004,
      "d": 110.29400000000169,
      "v": 127
    },
    {
      "midi": 43,
      "hit": false,
      "t": 61764.640000000385,
      "d": 220.58800000000338,
      "v": 127
    },
    {
      "midi": 55,
      "hit": false,
      "t": 61764.640000000385,
      "d": 220.58800000000338,
      "v": 127
    },
    {
      "midi": 67,
      "hit": false,
      "t": 61764.6400000004,
      "d": 110.29400000000169,
      "v": 127
    },
    {
      "midi": 65,
      "hit": false,
      "t": 61874.9340000004,
      "d": 110.29400000000169,
      "v": 127
    },
    {
      "midi": 64,
      "hit": false,
      "t": 61985.2280000004,
      "d": 110.29400000000169,
      "v": 127
    },
    {
      "midi": 62,
      "hit": false,
      "t": 62095.522000000405,
      "d": 110.29400000000169,
      "v": 127
    },
    {
      "midi": 43,
      "hit": false,
      "t": 62205.81600000039,
      "d": 220.58800000000338,
      "v": 127
    },
    {
      "midi": 48,
      "hit": false,
      "t": 62205.81600000039,
      "d": 220.58800000000338,
      "v": 127
    },
    {
      "midi": 52,
      "hit": false,
      "t": 62205.81600000039,
      "d": 220.58800000000338,
      "v": 127
    },
    {
      "midi": 55,
      "hit": false,
      "t": 62205.81600000039,
      "d": 220.58800000000338,
      "v": 127
    },
    {
      "midi": 72,
      "hit": false,
      "t": 62205.816000000406,
      "d": 110.29400000000169,
      "v": 123
    },
    {
      "midi": 70,
      "hit": false,
      "t": 62316.11000000041,
      "d": 110.29400000000169,
      "v": 125
    },
    {
      "midi": 68,
      "hit": false,
      "t": 62426.40400000041,
      "d": 110.29400000000169,
      "v": 123
    },
    {
      "midi": 67,
      "hit": false,
      "t": 62536.69800000041,
      "d": 110.29400000000169,
      "v": 127
    },
    {
      "midi": 43,
      "hit": false,
      "t": 62646.9920000004,
      "d": 220.58800000000338,
      "v": 127
    },
    {
      "midi": 48,
      "hit": false,
      "t": 62646.9920000004,
      "d": 220.58800000000338,
      "v": 127
    },
    {
      "midi": 56,
      "hit": false,
      "t": 62646.9920000004,
      "d": 220.58800000000338,
      "v": 127
    },
    {
      "midi": 65,
      "hit": false,
      "t": 62646.99200000041,
      "d": 110.29400000000169,
      "v": 127
    },
    {
      "midi": 68,
      "hit": false,
      "t": 62757.286000000415,
      "d": 110.29400000000169,
      "v": 127
    },
    {
      "midi": 72,
      "hit": false,
      "t": 62867.58000000042,
      "d": 110.29400000000169,
      "v": 127
    },
    {
      "midi": 77,
      "hit": false,
      "t": 62977.87400000042,
      "d": 110.29400000000169,
      "v": 127
    },
    {
      "midi": 43,
      "hit": false,
      "t": 63088.168000000405,
      "d": 220.58800000000338,
      "v": 127
    },
    {
      "midi": 48,
      "hit": false,
      "t": 63088.168000000405,
      "d": 220.58800000000338,
      "v": 127
    },
    {
      "midi": 52,
      "hit": false,
      "t": 63088.168000000405,
      "d": 220.58800000000338,
      "v": 127
    },
    {
      "midi": 55,
      "hit": false,
      "t": 63088.168000000405,
      "d": 220.58800000000338,
      "v": 127
    },
    {
      "midi": 84,
      "hit": false,
      "t": 63088.16800000042,
      "d": 110.29400000000169,
      "v": 127
    },
    {
      "midi": 82,
      "hit": false,
      "t": 63198.46200000042,
      "d": 110.29400000000169,
      "v": 127
    },
    {
      "midi": 80,
      "hit": false,
      "t": 63308.75600000042,
      "d": 110.29400000000169,
      "v": 127
    },
    {
      "midi": 79,
      "hit": false,
      "t": 63419.050000000425,
      "d": 110.29400000000169,
      "v": 127
    },
    {
      "midi": 43,
      "hit": false,
      "t": 63529.34400000041,
      "d": 220.58800000000338,
      "v": 127
    },
    {
      "midi": 48,
      "hit": false,
      "t": 63529.34400000041,
      "d": 220.58800000000338,
      "v": 127
    },
    {
      "midi": 56,
      "hit": false,
      "t": 63529.34400000041,
      "d": 220.58800000000338,
      "v": 127
    },
    {
      "midi": 77,
      "hit": false,
      "t": 63529.34400000043,
      "d": 110.29400000000169,
      "v": 125
    },
    {
      "midi": 80,
      "hit": false,
      "t": 63639.63800000043,
      "d": 110.29400000000169,
      "v": 126
    },
    {
      "midi": 84,
      "hit": false,
      "t": 63749.93200000043,
      "d": 110.29400000000169,
      "v": 126
    },
    {
      "midi": 89,
      "hit": false,
      "t": 63860.22600000043,
      "d": 110.29400000000169,
      "v": 127
    },
    {
      "midi": 43,
      "hit": false,
      "t": 63970.52000000042,
      "d": 220.58800000000338,
      "v": 127
    },
    {
      "midi": 45,
      "hit": false,
      "t": 63970.52000000042,
      "d": 220.58800000000338,
      "v": 127
    },
    {
      "midi": 50,
      "hit": false,
      "t": 63970.52000000042,
      "d": 220.58800000000338,
      "v": 127
    },
    {
      "midi": 54,
      "hit": false,
      "t": 63970.52000000042,
      "d": 220.58800000000338,
      "v": 127
    },
    {
      "midi": 74,
      "hit": false,
      "t": 63970.52000000043,
      "d": 110.29400000000169,
      "v": 127
    },
    {
      "midi": 72,
      "hit": false,
      "t": 64080.814000000435,
      "d": 110.29400000000169,
      "v": 127
    },
    {
      "midi": 71,
      "hit": false,
      "t": 64191.10800000044,
      "d": 110.29400000000169,
      "v": 126
    },
    {
      "midi": 69,
      "hit": false,
      "t": 64301.40200000044,
      "d": 110.29400000000169,
      "v": 122
    },
    {
      "midi": 43,
      "hit": false,
      "t": 64411.696000000426,
      "d": 220.58800000000338,
      "v": 127
    },
    {
      "midi": 47,
      "hit": false,
      "t": 64411.696000000426,
      "d": 220.58800000000338,
      "v": 127
    },
    {
      "midi": 50,
      "hit": false,
      "t": 64411.696000000426,
      "d": 220.58800000000338,
      "v": 127
    },
    {
      "midi": 55,
      "hit": false,
      "t": 64411.696000000426,
      "d": 220.58800000000338,
      "v": 127
    },
    {
      "midi": 67,
      "hit": false,
      "t": 64411.69600000044,
      "d": 110.29400000000169,
      "v": 127
    },
    {
      "midi": 71,
      "hit": false,
      "t": 64521.99000000044,
      "d": 110.29400000000169,
      "v": 127
    },
    {
      "midi": 74,
      "hit": false,
      "t": 64632.28400000044,
      "d": 110.29400000000169,
      "v": 127
    },
    {
      "midi": 79,
      "hit": false,
      "t": 64742.578000000445,
      "d": 110.29400000000169,
      "v": 127
    },
    {
      "midi": 43,
      "hit": false,
      "t": 64852.87200000043,
      "d": 220.58800000000338,
      "v": 127
    },
    {
      "midi": 45,
      "hit": false,
      "t": 64852.87200000043,
      "d": 220.58800000000338,
      "v": 127
    },
    {
      "midi": 50,
      "hit": false,
      "t": 64852.87200000043,
      "d": 220.58800000000338,
      "v": 127
    },
    {
      "midi": 54,
      "hit": false,
      "t": 64852.87200000043,
      "d": 220.58800000000338,
      "v": 127
    },
    {
      "midi": 86,
      "hit": false,
      "t": 64852.87200000045,
      "d": 110.29400000000169,
      "v": 108
    },
    {
      "midi": 84,
      "hit": false,
      "t": 64963.16600000045,
      "d": 110.29400000000169,
      "v": 115
    },
    {
      "midi": 83,
      "hit": false,
      "t": 65073.46000000045,
      "d": 110.29400000000169,
      "v": 119
    },
    {
      "midi": 81,
      "hit": false,
      "t": 65183.75400000045,
      "d": 110.29400000000169,
      "v": 127
    },
    {
      "midi": 43,
      "hit": false,
      "t": 65294.04800000044,
      "d": 220.58800000000338,
      "v": 127
    },
    {
      "midi": 47,
      "hit": false,
      "t": 65294.04800000044,
      "d": 220.58800000000338,
      "v": 127
    },
    {
      "midi": 50,
      "hit": false,
      "t": 65294.04800000044,
      "d": 220.58800000000338,
      "v": 127
    },
    {
      "midi": 55,
      "hit": false,
      "t": 65294.04800000044,
      "d": 220.58800000000338,
      "v": 127
    },
    {
      "midi": 79,
      "hit": false,
      "t": 65294.04800000045,
      "d": 110.29400000000169,
      "v": 127
    },
    {
      "midi": 83,
      "hit": false,
      "t": 65404.342000000455,
      "d": 110.29400000000169,
      "v": 127
    },
    {
      "midi": 86,
      "hit": false,
      "t": 65514.63600000046,
      "d": 110.29400000000169,
      "v": 127
    },
    {
      "midi": 91,
      "hit": false,
      "t": 65624.93000000046,
      "d": 110.29399999999441,
      "v": 127
    },
    {
      "midi": 43,
      "hit": false,
      "t": 65735.22400000044,
      "d": 220.58800000000338,
      "v": 127
    },
    {
      "midi": 46,
      "hit": false,
      "t": 65735.22400000044,
      "d": 220.58800000000338,
      "v": 127
    },
    {
      "midi": 51,
      "hit": false,
      "t": 65735.22400000044,
      "d": 220.58800000000338,
      "v": 127
    },
    {
      "midi": 55,
      "hit": false,
      "t": 65735.22400000044,
      "d": 220.58800000000338,
      "v": 127
    },
    {
      "midi": 75,
      "hit": false,
      "t": 65735.22400000045,
      "d": 110.29399999999441,
      "v": 127
    },
    {
      "midi": 74,
      "hit": false,
      "t": 65845.51800000045,
      "d": 110.29399999999441,
      "v": 127
    },
    {
      "midi": 72,
      "hit": false,
      "t": 65955.81200000044,
      "d": 110.29399999999441,
      "v": 127
    },
    {
      "midi": 70,
      "hit": false,
      "t": 66066.10600000044,
      "d": 110.29399999999441,
      "v": 127
    },
    {
      "midi": 68,
      "hit": false,
      "t": 66176.40000000043,
      "d": 110.29399999999441,
      "v": 127
    },
    {
      "midi": 43,
      "hit": false,
      "t": 66176.40000000045,
      "d": 220.58800000000338,
      "v": 127
    },
    {
      "midi": 48,
      "hit": false,
      "t": 66176.40000000045,
      "d": 220.58800000000338,
      "v": 127
    },
    {
      "midi": 51,
      "hit": false,
      "t": 66176.40000000045,
      "d": 220.58800000000338,
      "v": 127
    },
    {
      "midi": 56,
      "hit": false,
      "t": 66176.40000000045,
      "d": 220.58800000000338,
      "v": 127
    },
    {
      "midi": 72,
      "hit": false,
      "t": 66286.69400000043,
      "d": 110.29399999999441,
      "v": 127
    },
    {
      "midi": 75,
      "hit": false,
      "t": 66396.98800000042,
      "d": 110.29399999999441,
      "v": 127
    },
    {
      "midi": 80,
      "hit": false,
      "t": 66507.28200000041,
      "d": 110.29399999999441,
      "v": 127
    },
    {
      "midi": 87,
      "hit": false,
      "t": 66617.57600000041,
      "d": 110.29399999999441,
      "v": 127
    },
    {
      "midi": 43,
      "hit": false,
      "t": 66617.57600000045,
      "d": 220.58800000000338,
      "v": 127
    },
    {
      "midi": 46,
      "hit": false,
      "t": 66617.57600000045,
      "d": 220.58800000000338,
      "v": 127
    },
    {
      "midi": 51,
      "hit": false,
      "t": 66617.57600000045,
      "d": 220.58800000000338,
      "v": 127
    },
    {
      "midi": 55,
      "hit": false,
      "t": 66617.57600000045,
      "d": 220.58800000000338,
      "v": 127
    },
    {
      "midi": 86,
      "hit": false,
      "t": 66727.8700000004,
      "d": 110.29399999999441,
      "v": 127
    },
    {
      "midi": 84,
      "hit": false,
      "t": 66838.1640000004,
      "d": 110.29399999999441,
      "v": 127
    },
    {
      "midi": 82,
      "hit": false,
      "t": 66948.45800000039,
      "d": 110.29399999999441,
      "v": 127
    },
    {
      "midi": 80,
      "hit": false,
      "t": 67058.75200000039,
      "d": 110.29399999999441,
      "v": 127
    },
    {
      "midi": 43,
      "hit": false,
      "t": 67058.75200000046,
      "d": 220.58800000000338,
      "v": 127
    },
    {
      "midi": 48,
      "hit": false,
      "t": 67058.75200000046,
      "d": 220.58800000000338,
      "v": 127
    },
    {
      "midi": 51,
      "hit": false,
      "t": 67058.75200000046,
      "d": 220.58800000000338,
      "v": 127
    },
    {
      "midi": 56,
      "hit": false,
      "t": 67058.75200000046,
      "d": 220.58800000000338,
      "v": 127
    },
    {
      "midi": 84,
      "hit": false,
      "t": 67169.04600000038,
      "d": 110.29399999999441,
      "v": 127
    },
    {
      "midi": 87,
      "hit": false,
      "t": 67279.34000000037,
      "d": 110.29399999999441,
      "v": 127
    },
    {
      "midi": 92,
      "hit": false,
      "t": 67389.63400000037,
      "d": 110.29399999999441,
      "v": 127
    },
    {
      "midi": 77,
      "hit": false,
      "t": 67499.92800000036,
      "d": 110.29399999999441,
      "v": 127
    },
    {
      "midi": 43,
      "hit": false,
      "t": 67499.92800000047,
      "d": 220.58800000000338,
      "v": 127
    },
    {
      "midi": 45,
      "hit": false,
      "t": 67499.92800000047,
      "d": 220.58800000000338,
      "v": 127
    },
    {
      "midi": 50,
      "hit": false,
      "t": 67499.92800000047,
      "d": 220.58800000000338,
      "v": 127
    },
    {
      "midi": 53,
      "hit": false,
      "t": 67499.92800000047,
      "d": 220.58800000000338,
      "v": 127
    },
    {
      "midi": 75,
      "hit": false,
      "t": 67610.22200000036,
      "d": 110.29399999999441,
      "v": 127
    },
    {
      "midi": 74,
      "hit": false,
      "t": 67720.51600000035,
      "d": 110.29399999999441,
      "v": 127
    },
    {
      "midi": 72,
      "hit": false,
      "t": 67830.81000000035,
      "d": 110.29399999999441,
      "v": 127
    },
    {
      "midi": 70,
      "hit": false,
      "t": 67941.10400000034,
      "d": 110.29399999999441,
      "v": 127
    },
    {
      "midi": 43,
      "hit": false,
      "t": 67941.10400000047,
      "d": 220.58800000000338,
      "v": 127
    },
    {
      "midi": 46,
      "hit": false,
      "t": 67941.10400000047,
      "d": 220.58800000000338,
      "v": 127
    },
    {
      "midi": 50,
      "hit": false,
      "t": 67941.10400000047,
      "d": 220.58800000000338,
      "v": 127
    },
    {
      "midi": 53,
      "hit": false,
      "t": 67941.10400000047,
      "d": 220.58800000000338,
      "v": 127
    },
    {
      "midi": 74,
      "hit": false,
      "t": 68051.39800000034,
      "d": 110.29399999999441,
      "v": 127
    },
    {
      "midi": 77,
      "hit": false,
      "t": 68161.69200000033,
      "d": 110.29399999999441,
      "v": 127
    },
    {
      "midi": 82,
      "hit": false,
      "t": 68271.98600000032,
      "d": 110.29399999999441,
      "v": 127
    },
    {
      "midi": 89,
      "hit": false,
      "t": 68382.28000000032,
      "d": 110.29399999999441,
      "v": 127
    },
    {
      "midi": 43,
      "hit": false,
      "t": 68382.28000000048,
      "d": 220.58800000000338,
      "v": 127
    },
    {
      "midi": 45,
      "hit": false,
      "t": 68382.28000000048,
      "d": 220.58800000000338,
      "v": 127
    },
    {
      "midi": 50,
      "hit": false,
      "t": 68382.28000000048,
      "d": 220.58800000000338,
      "v": 127
    },
    {
      "midi": 53,
      "hit": false,
      "t": 68382.28000000048,
      "d": 220.58800000000338,
      "v": 127
    },
    {
      "midi": 87,
      "hit": false,
      "t": 68492.57400000031,
      "d": 110.29399999999441,
      "v": 127
    },
    {
      "midi": 86,
      "hit": false,
      "t": 68602.86800000031,
      "d": 110.29399999999441,
      "v": 127
    },
    {
      "midi": 84,
      "hit": false,
      "t": 68713.1620000003,
      "d": 110.29399999999441,
      "v": 127
    },
    {
      "midi": 82,
      "hit": false,
      "t": 68823.4560000003,
      "d": 110.29399999999441,
      "v": 127
    },
    {
      "midi": 43,
      "hit": false,
      "t": 68823.45600000049,
      "d": 220.58800000000338,
      "v": 127
    },
    {
      "midi": 46,
      "hit": false,
      "t": 68823.45600000049,
      "d": 220.58800000000338,
      "v": 127
    },
    {
      "midi": 50,
      "hit": false,
      "t": 68823.45600000049,
      "d": 220.58800000000338,
      "v": 127
    },
    {
      "midi": 53,
      "hit": false,
      "t": 68823.45600000049,
      "d": 220.58800000000338,
      "v": 127
    },
    {
      "midi": 86,
      "hit": false,
      "t": 68933.75000000029,
      "d": 110.29399999999441,
      "v": 127
    },
    {
      "midi": 89,
      "hit": false,
      "t": 69044.04400000029,
      "d": 110.29399999999441,
      "v": 127
    },
    {
      "midi": 94,
      "hit": false,
      "t": 69154.33800000028,
      "d": 110.29399999999441,
      "v": 127
    },
    {
      "midi": 65,
      "hit": false,
      "t": 69264.63200000027,
      "d": 110.29399999999441,
      "v": 127
    },
    {
      "midi": 43,
      "hit": false,
      "t": 69264.63200000049,
      "d": 220.58800000000338,
      "v": 127
    },
    {
      "midi": 50,
      "hit": false,
      "t": 69264.63200000049,
      "d": 220.58800000000338,
      "v": 127
    },
    {
      "midi": 53,
      "hit": false,
      "t": 69264.63200000049,
      "d": 220.58800000000338,
      "v": 127
    },
    {
      "midi": 59,
      "hit": false,
      "t": 69264.63200000049,
      "d": 220.58800000000338,
      "v": 127
    },
    {
      "midi": 64,
      "hit": false,
      "t": 69374.92600000027,
      "d": 110.29399999999441,
      "v": 127
    },
    {
      "midi": 62,
      "hit": false,
      "t": 69485.22000000026,
      "d": 110.29399999999441,
      "v": 127
    },
    {
      "midi": 50,
      "hit": false,
      "t": 69485.2200000005,
      "d": 220.58800000000338,
      "v": 127
    },
    {
      "midi": 53,
      "hit": false,
      "t": 69485.2200000005,
      "d": 220.58800000000338,
      "v": 127
    },
    {
      "midi": 59,
      "hit": false,
      "t": 69485.2200000005,
      "d": 220.58800000000338,
      "v": 127
    },
    {
      "midi": 60,
      "hit": false,
      "t": 69595.51400000026,
      "d": 110.29399999999441,
      "v": 127
    },
    {
      "midi": 59,
      "hit": false,
      "t": 69705.80800000025,
      "d": 110.29399999999441,
      "v": 127
    },
    {
      "midi": 50,
      "hit": false,
      "t": 69705.8080000005,
      "d": 220.58800000000338,
      "v": 127
    },
    {
      "midi": 53,
      "hit": false,
      "t": 69705.8080000005,
      "d": 220.58800000000338,
      "v": 127
    },
    {
      "midi": 59,
      "hit": false,
      "t": 69705.8080000005,
      "d": 220.58800000000338,
      "v": 127
    },
    {
      "midi": 62,
      "hit": false,
      "t": 69816.10200000025,
      "d": 110.29399999999441,
      "v": 127
    },
    {
      "midi": 65,
      "hit": false,
      "t": 69926.39600000024,
      "d": 110.29399999999441,
      "v": 127
    },
    {
      "midi": 50,
      "hit": false,
      "t": 69926.3960000005,
      "d": 220.58800000000338,
      "v": 127
    },
    {
      "midi": 53,
      "hit": false,
      "t": 69926.3960000005,
      "d": 220.58800000000338,
      "v": 127
    },
    {
      "midi": 59,
      "hit": false,
      "t": 69926.3960000005,
      "d": 220.58800000000338,
      "v": 127
    },
    {
      "midi": 71,
      "hit": false,
      "t": 70036.69000000024,
      "d": 110.29399999999441,
      "v": 127
    },
    {
      "midi": 69,
      "hit": false,
      "t": 70146.98400000023,
      "d": 110.29399999999441,
      "v": 127
    },
    {
      "midi": 50,
      "hit": false,
      "t": 70146.9840000005,
      "d": 220.58800000000338,
      "v": 127
    },
    {
      "midi": 53,
      "hit": false,
      "t": 70146.9840000005,
      "d": 220.58800000000338,
      "v": 127
    },
    {
      "midi": 59,
      "hit": false,
      "t": 70146.9840000005,
      "d": 220.58800000000338,
      "v": 127
    },
    {
      "midi": 67,
      "hit": false,
      "t": 70257.27800000022,
      "d": 110.29399999999441,
      "v": 127
    },
    {
      "midi": 65,
      "hit": false,
      "t": 70367.57200000022,
      "d": 110.29399999999441,
      "v": 127
    },
    {
      "midi": 50,
      "hit": false,
      "t": 70367.57200000051,
      "d": 220.58800000000338,
      "v": 127
    },
    {
      "midi": 53,
      "hit": false,
      "t": 70367.57200000051,
      "d": 220.58800000000338,
      "v": 127
    },
    {
      "midi": 59,
      "hit": false,
      "t": 70367.57200000051,
      "d": 220.58800000000338,
      "v": 127
    },
    {
      "midi": 64,
      "hit": false,
      "t": 70477.86600000021,
      "d": 110.29399999999441,
      "v": 127
    },
    {
      "midi": 62,
      "hit": false,
      "t": 70588.1600000002,
      "d": 110.29399999999441,
      "v": 127
    },
    {
      "midi": 50,
      "hit": false,
      "t": 70588.16000000051,
      "d": 220.58800000000338,
      "v": 127
    },
    {
      "midi": 53,
      "hit": false,
      "t": 70588.16000000051,
      "d": 220.58800000000338,
      "v": 127
    },
    {
      "midi": 59,
      "hit": false,
      "t": 70588.16000000051,
      "d": 220.58800000000338,
      "v": 127
    },
    {
      "midi": 65,
      "hit": false,
      "t": 70698.4540000002,
      "d": 110.29399999999441,
      "v": 127
    },
    {
      "midi": 71,
      "hit": false,
      "t": 70808.7480000002,
      "d": 110.29399999999441,
      "v": 127
    },
    {
      "midi": 50,
      "hit": false,
      "t": 70808.74800000052,
      "d": 220.58800000000338,
      "v": 127
    },
    {
      "midi": 53,
      "hit": false,
      "t": 70808.74800000052,
      "d": 220.58800000000338,
      "v": 127
    },
    {
      "midi": 59,
      "hit": false,
      "t": 70808.74800000052,
      "d": 220.58800000000338,
      "v": 127
    },
    {
      "midi": 74,
      "hit": false,
      "t": 70919.04200000019,
      "d": 110.29399999999441,
      "v": 127
    },
    {
      "midi": 77,
      "hit": false,
      "t": 71029.33600000018,
      "d": 110.29399999999441,
      "v": 127
    },
    {
      "midi": 55,
      "hit": false,
      "t": 71029.33600000052,
      "d": 220.58800000000338,
      "v": 127
    },
    {
      "midi": 59,
      "hit": false,
      "t": 71029.33600000052,
      "d": 220.58800000000338,
      "v": 127
    },
    {
      "midi": 62,
      "hit": false,
      "t": 71029.33600000052,
      "d": 220.58800000000338,
      "v": 127
    },
    {
      "midi": 65,
      "hit": false,
      "t": 71029.33600000052,
      "d": 220.58800000000338,
      "v": 127
    },
    {
      "midi": 76,
      "hit": false,
      "t": 71139.63000000018,
      "d": 110.29399999999441,
      "v": 127
    },
    {
      "midi": 74,
      "hit": false,
      "t": 71249.92400000017,
      "d": 110.29399999999441,
      "v": 127
    },
    {
      "midi": 55,
      "hit": false,
      "t": 71249.92400000052,
      "d": 220.58800000000338,
      "v": 127
    },
    {
      "midi": 59,
      "hit": false,
      "t": 71249.92400000052,
      "d": 220.58800000000338,
      "v": 127
    },
    {
      "midi": 62,
      "hit": false,
      "t": 71249.92400000052,
      "d": 220.58800000000338,
      "v": 127
    },
    {
      "midi": 65,
      "hit": false,
      "t": 71249.92400000052,
      "d": 220.58800000000338,
      "v": 127
    },
    {
      "midi": 72,
      "hit": false,
      "t": 71360.21800000017,
      "d": 110.29399999999441,
      "v": 127
    },
    {
      "midi": 71,
      "hit": false,
      "t": 71470.51200000016,
      "d": 110.29399999999441,
      "v": 127
    },
    {
      "midi": 55,
      "hit": false,
      "t": 71470.51200000053,
      "d": 220.58800000000338,
      "v": 127
    },
    {
      "midi": 59,
      "hit": false,
      "t": 71470.51200000053,
      "d": 220.58800000000338,
      "v": 127
    },
    {
      "midi": 62,
      "hit": false,
      "t": 71470.51200000053,
      "d": 220.58800000000338,
      "v": 127
    },
    {
      "midi": 65,
      "hit": false,
      "t": 71470.51200000053,
      "d": 220.58800000000338,
      "v": 127
    },
    {
      "midi": 74,
      "hit": false,
      "t": 71580.80600000016,
      "d": 110.29399999999441,
      "v": 127
    },
    {
      "midi": 77,
      "hit": false,
      "t": 71691.10000000015,
      "d": 110.29399999999441,
      "v": 127
    },
    {
      "midi": 55,
      "hit": false,
      "t": 71691.10000000053,
      "d": 220.58800000000338,
      "v": 127
    },
    {
      "midi": 59,
      "hit": false,
      "t": 71691.10000000053,
      "d": 220.58800000000338,
      "v": 127
    },
    {
      "midi": 62,
      "hit": false,
      "t": 71691.10000000053,
      "d": 220.58800000000338,
      "v": 127
    },
    {
      "midi": 65,
      "hit": false,
      "t": 71691.10000000053,
      "d": 220.58800000000338,
      "v": 127
    },
    {
      "midi": 83,
      "hit": false,
      "t": 71801.39400000015,
      "d": 110.29399999999441,
      "v": 127
    },
    {
      "midi": 81,
      "hit": false,
      "t": 71911.68800000014,
      "d": 110.29399999999441,
      "v": 127
    },
    {
      "midi": 55,
      "hit": false,
      "t": 71911.68800000053,
      "d": 220.58800000000338,
      "v": 127
    },
    {
      "midi": 59,
      "hit": false,
      "t": 71911.68800000053,
      "d": 220.58800000000338,
      "v": 127
    },
    {
      "midi": 62,
      "hit": false,
      "t": 71911.68800000053,
      "d": 220.58800000000338,
      "v": 127
    },
    {
      "midi": 65,
      "hit": false,
      "t": 71911.68800000053,
      "d": 220.58800000000338,
      "v": 127
    },
    {
      "midi": 79,
      "hit": false,
      "t": 72021.98200000013,
      "d": 110.29399999999441,
      "v": 127
    },
    {
      "midi": 77,
      "hit": false,
      "t": 72132.27600000013,
      "d": 110.29399999999441,
      "v": 127
    },
    {
      "midi": 55,
      "hit": false,
      "t": 72132.27600000054,
      "d": 220.58800000000338,
      "v": 127
    },
    {
      "midi": 59,
      "hit": false,
      "t": 72132.27600000054,
      "d": 220.58800000000338,
      "v": 127
    },
    {
      "midi": 62,
      "hit": false,
      "t": 72132.27600000054,
      "d": 220.58800000000338,
      "v": 127
    },
    {
      "midi": 65,
      "hit": false,
      "t": 72132.27600000054,
      "d": 220.58800000000338,
      "v": 127
    },
    {
      "midi": 76,
      "hit": false,
      "t": 72242.57000000012,
      "d": 110.29399999999441,
      "v": 127
    },
    {
      "midi": 74,
      "hit": false,
      "t": 72352.86400000012,
      "d": 110.29399999999441,
      "v": 127
    },
    {
      "midi": 55,
      "hit": false,
      "t": 72352.86400000054,
      "d": 220.58800000000338,
      "v": 127
    },
    {
      "midi": 59,
      "hit": false,
      "t": 72352.86400000054,
      "d": 220.58800000000338,
      "v": 127
    },
    {
      "midi": 62,
      "hit": false,
      "t": 72352.86400000054,
      "d": 220.58800000000338,
      "v": 127
    },
    {
      "midi": 65,
      "hit": false,
      "t": 72352.86400000054,
      "d": 220.58800000000338,
      "v": 127
    },
    {
      "midi": 77,
      "hit": false,
      "t": 72463.15800000011,
      "d": 110.29399999999441,
      "v": 127
    },
    {
      "midi": 83,
      "hit": false,
      "t": 72573.4520000001,
      "d": 110.29399999999441,
      "v": 127
    },
    {
      "midi": 55,
      "hit": false,
      "t": 72573.45200000054,
      "d": 220.58800000000338,
      "v": 127
    },
    {
      "midi": 59,
      "hit": false,
      "t": 72573.45200000054,
      "d": 220.58800000000338,
      "v": 127
    },
    {
      "midi": 62,
      "hit": false,
      "t": 72573.45200000054,
      "d": 220.58800000000338,
      "v": 127
    },
    {
      "midi": 65,
      "hit": false,
      "t": 72573.45200000054,
      "d": 220.58800000000338,
      "v": 127
    },
    {
      "midi": 86,
      "hit": false,
      "t": 72683.7460000001,
      "d": 110.29399999999441,
      "v": 127
    },
    {
      "midi": 89,
      "hit": false,
      "t": 72794.0400000001,
      "d": 110.29399999999441,
      "v": 127
    },
    {
      "midi": 55,
      "hit": false,
      "t": 72794.04000000055,
      "d": 220.58800000000338,
      "v": 127
    },
    {
      "midi": 59,
      "hit": false,
      "t": 72794.04000000055,
      "d": 220.58800000000338,
      "v": 127
    },
    {
      "midi": 62,
      "hit": false,
      "t": 72794.04000000055,
      "d": 220.58800000000338,
      "v": 127
    },
    {
      "midi": 65,
      "hit": false,
      "t": 72794.04000000055,
      "d": 220.58800000000338,
      "v": 127
    },
    {
      "midi": 88,
      "hit": false,
      "t": 72904.33400000009,
      "d": 110.29399999999441,
      "v": 127
    },
    {
      "midi": 86,
      "hit": false,
      "t": 73014.62800000008,
      "d": 110.29399999999441,
      "v": 127
    },
    {
      "midi": 55,
      "hit": false,
      "t": 73014.62800000055,
      "d": 220.58800000000338,
      "v": 127
    },
    {
      "midi": 59,
      "hit": false,
      "t": 73014.62800000055,
      "d": 220.58800000000338,
      "v": 127
    },
    {
      "midi": 62,
      "hit": false,
      "t": 73014.62800000055,
      "d": 220.58800000000338,
      "v": 127
    },
    {
      "midi": 65,
      "hit": false,
      "t": 73014.62800000055,
      "d": 220.58800000000338,
      "v": 127
    },
    {
      "midi": 84,
      "hit": false,
      "t": 73124.92200000008,
      "d": 110.29399999999441,
      "v": 127
    },
    {
      "midi": 83,
      "hit": false,
      "t": 73235.21600000007,
      "d": 110.29399999999441,
      "v": 127
    },
    {
      "midi": 55,
      "hit": false,
      "t": 73235.21600000055,
      "d": 220.58800000000338,
      "v": 127
    },
    {
      "midi": 59,
      "hit": false,
      "t": 73235.21600000055,
      "d": 220.58800000000338,
      "v": 127
    },
    {
      "midi": 62,
      "hit": false,
      "t": 73235.21600000055,
      "d": 220.58800000000338,
      "v": 127
    },
    {
      "midi": 65,
      "hit": false,
      "t": 73235.21600000055,
      "d": 220.58800000000338,
      "v": 127
    },
    {
      "midi": 86,
      "hit": false,
      "t": 73345.51000000007,
      "d": 110.29399999999441,
      "v": 127
    },
    {
      "midi": 89,
      "hit": false,
      "t": 73455.80400000006,
      "d": 110.29399999999441,
      "v": 127
    },
    {
      "midi": 55,
      "hit": false,
      "t": 73455.80400000056,
      "d": 220.58800000000338,
      "v": 127
    },
    {
      "midi": 59,
      "hit": false,
      "t": 73455.80400000056,
      "d": 220.58800000000338,
      "v": 127
    },
    {
      "midi": 62,
      "hit": false,
      "t": 73455.80400000056,
      "d": 220.58800000000338,
      "v": 127
    },
    {
      "midi": 65,
      "hit": false,
      "t": 73455.80400000056,
      "d": 220.58800000000338,
      "v": 127
    },
    {
      "midi": 95,
      "hit": false,
      "t": 73566.09800000006,
      "d": 110.29399999999441,
      "v": 127
    },
    {
      "midi": 93,
      "hit": false,
      "t": 73676.39200000005,
      "d": 110.29399999999441,
      "v": 127
    },
    {
      "midi": 55,
      "hit": false,
      "t": 73676.39200000056,
      "d": 220.58800000000338,
      "v": 127
    },
    {
      "midi": 59,
      "hit": false,
      "t": 73676.39200000056,
      "d": 220.58800000000338,
      "v": 127
    },
    {
      "midi": 62,
      "hit": false,
      "t": 73676.39200000056,
      "d": 220.58800000000338,
      "v": 127
    },
    {
      "midi": 65,
      "hit": false,
      "t": 73676.39200000056,
      "d": 220.58800000000338,
      "v": 127
    },
    {
      "midi": 91,
      "hit": false,
      "t": 73786.68600000005,
      "d": 110.29399999999441,
      "v": 127
    },
    {
      "midi": 89,
      "hit": false,
      "t": 73896.98000000004,
      "d": 110.29399999999441,
      "v": 127
    },
    {
      "midi": 55,
      "hit": false,
      "t": 73896.98000000056,
      "d": 220.58800000000338,
      "v": 127
    },
    {
      "midi": 59,
      "hit": false,
      "t": 73896.98000000056,
      "d": 220.58800000000338,
      "v": 127
    },
    {
      "midi": 62,
      "hit": false,
      "t": 73896.98000000056,
      "d": 220.58800000000338,
      "v": 127
    },
    {
      "midi": 65,
      "hit": false,
      "t": 73896.98000000056,
      "d": 220.58800000000338,
      "v": 127
    },
    {
      "midi": 88,
      "hit": false,
      "t": 74007.27400000003,
      "d": 110.29399999999441,
      "v": 127
    },
    {
      "midi": 86,
      "hit": false,
      "t": 74117.56800000003,
      "d": 110.29399999999441,
      "v": 127
    },
    {
      "midi": 55,
      "hit": false,
      "t": 74117.56800000057,
      "d": 220.58800000000338,
      "v": 127
    },
    {
      "midi": 59,
      "hit": false,
      "t": 74117.56800000057,
      "d": 220.58800000000338,
      "v": 127
    },
    {
      "midi": 62,
      "hit": false,
      "t": 74117.56800000057,
      "d": 220.58800000000338,
      "v": 127
    },
    {
      "midi": 65,
      "hit": false,
      "t": 74117.56800000057,
      "d": 220.58800000000338,
      "v": 127
    },
    {
      "midi": 89,
      "hit": false,
      "t": 74227.86200000002,
      "d": 110.29399999999441,
      "v": 127
    },
    {
      "midi": 95,
      "hit": false,
      "t": 74338.15600000002,
      "d": 110.29399999999441,
      "v": 127
    },
    {
      "midi": 55,
      "hit": false,
      "t": 74338.15600000057,
      "d": 220.58800000000338,
      "v": 127
    },
    {
      "midi": 59,
      "hit": false,
      "t": 74338.15600000057,
      "d": 220.58800000000338,
      "v": 127
    },
    {
      "midi": 62,
      "hit": false,
      "t": 74338.15600000057,
      "d": 220.58800000000338,
      "v": 127
    },
    {
      "midi": 65,
      "hit": false,
      "t": 74338.15600000057,
      "d": 220.58800000000338,
      "v": 127
    },
    {
      "midi": 98,
      "hit": false,
      "t": 74448.45000000001,
      "d": 110.29399999999441,
      "v": 127
    },
    {
      "midi": 93,
      "hit": false,
      "t": 74558.744,
      "d": 110.29399999999441,
      "v": 127
    },
    {
      "midi": 101,
      "hit": false,
      "t": 74558.744,
      "d": 110.29399999999441,
      "v": 127
    },
    {
      "midi": 55,
      "hit": false,
      "t": 74558.74400000057,
      "d": 220.58800000000338,
      "v": 127
    },
    {
      "midi": 60,
      "hit": false,
      "t": 74558.74400000057,
      "d": 220.58800000000338,
      "v": 127
    },
    {
      "midi": 65,
      "hit": false,
      "t": 74558.74400000057,
      "d": 220.58800000000338,
      "v": 127
    },
    {
      "midi": 69,
      "hit": false,
      "t": 74558.74400000057,
      "d": 220.58800000000338,
      "v": 127
    },
    {
      "midi": 91,
      "hit": false,
      "t": 74669.038,
      "d": 110.29399999999441,
      "v": 127
    },
    {
      "midi": 100,
      "hit": false,
      "t": 74669.038,
      "d": 110.29399999999441,
      "v": 127
    },
    {
      "midi": 89,
      "hit": false,
      "t": 74779.332,
      "d": 110.29399999999441,
      "v": 127
    },
    {
      "midi": 98,
      "hit": false,
      "t": 74779.332,
      "d": 110.29399999999441,
      "v": 127
    },
    {
      "midi": 88,
      "hit": false,
      "t": 74889.62599999999,
      "d": 110.29399999999441,
      "v": 127
    },
    {
      "midi": 96,
      "hit": false,
      "t": 74889.62599999999,
      "d": 110.29399999999441,
      "v": 127
    },
    {
      "midi": 86,
      "hit": false,
      "t": 74999.91999999998,
      "d": 110.29399999999441,
      "v": 127
    },
    {
      "midi": 95,
      "hit": false,
      "t": 74999.91999999998,
      "d": 110.29399999999441,
      "v": 127
    },
    {
      "midi": 84,
      "hit": false,
      "t": 75110.21399999998,
      "d": 110.29399999999441,
      "v": 127
    },
    {
      "midi": 93,
      "hit": false,
      "t": 75110.21399999998,
      "d": 110.29399999999441,
      "v": 127
    },
    {
      "midi": 83,
      "hit": false,
      "t": 75220.50799999997,
      "d": 110.29399999999441,
      "v": 127
    },
    {
      "midi": 91,
      "hit": false,
      "t": 75220.50799999997,
      "d": 110.29399999999441,
      "v": 127
    },
    {
      "midi": 81,
      "hit": false,
      "t": 75330.80199999997,
      "d": 110.29399999999441,
      "v": 127
    },
    {
      "midi": 89,
      "hit": false,
      "t": 75330.80199999997,
      "d": 110.29399999999441,
      "v": 127
    },
    {
      "midi": 79,
      "hit": false,
      "t": 75441.09599999996,
      "d": 110.29399999999441,
      "v": 127
    },
    {
      "midi": 88,
      "hit": false,
      "t": 75441.09599999996,
      "d": 110.29399999999441,
      "v": 127
    },
    {
      "midi": 77,
      "hit": false,
      "t": 75551.38999999996,
      "d": 110.29399999999441,
      "v": 127
    },
    {
      "midi": 86,
      "hit": false,
      "t": 75551.38999999996,
      "d": 110.29399999999441,
      "v": 127
    },
    {
      "midi": 76,
      "hit": false,
      "t": 75661.68399999995,
      "d": 110.29399999999441,
      "v": 127
    },
    {
      "midi": 84,
      "hit": false,
      "t": 75661.68399999995,
      "d": 110.29399999999441,
      "v": 127
    },
    {
      "midi": 74,
      "hit": false,
      "t": 75771.97799999994,
      "d": 110.29399999999441,
      "v": 127
    },
    {
      "midi": 83,
      "hit": false,
      "t": 75771.97799999994,
      "d": 110.29399999999441,
      "v": 127
    },
    {
      "midi": 72,
      "hit": false,
      "t": 75882.27199999994,
      "d": 110.29399999999441,
      "v": 127
    },
    {
      "midi": 81,
      "hit": false,
      "t": 75882.27199999994,
      "d": 110.29399999999441,
      "v": 127
    },
    {
      "midi": 71,
      "hit": false,
      "t": 75992.56599999993,
      "d": 110.29399999999441,
      "v": 127
    },
    {
      "midi": 79,
      "hit": false,
      "t": 75992.56599999993,
      "d": 110.29399999999441,
      "v": 127
    },
    {
      "midi": 69,
      "hit": false,
      "t": 76102.85999999993,
      "d": 110.29399999999441,
      "v": 127
    },
    {
      "midi": 77,
      "hit": false,
      "t": 76102.85999999993,
      "d": 110.29399999999441,
      "v": 127
    },
    {
      "midi": 67,
      "hit": false,
      "t": 76213.15399999992,
      "d": 110.29399999999441,
      "v": 127
    },
    {
      "midi": 76,
      "hit": false,
      "t": 76213.15399999992,
      "d": 110.29399999999441,
      "v": 127
    },
    {
      "midi": 65,
      "hit": false,
      "t": 76323.44799999992,
      "d": 110.29399999999441,
      "v": 127
    },
    {
      "midi": 74,
      "hit": false,
      "t": 76323.44799999992,
      "d": 110.29399999999441,
      "v": 127
    },
    {
      "midi": 64,
      "hit": false,
      "t": 76433.74199999991,
      "d": 110.29399999999441,
      "v": 127
    },
    {
      "midi": 72,
      "hit": false,
      "t": 76433.74199999991,
      "d": 110.29399999999441,
      "v": 127
    },
    {
      "midi": 62,
      "hit": false,
      "t": 76544.0359999999,
      "d": 110.29399999999441,
      "v": 127
    },
    {
      "midi": 71,
      "hit": false,
      "t": 76544.0359999999,
      "d": 110.29399999999441,
      "v": 127
    },
    {
      "midi": 60,
      "hit": false,
      "t": 76654.3299999999,
      "d": 110.29399999999441,
      "v": 127
    },
    {
      "midi": 69,
      "hit": false,
      "t": 76654.3299999999,
      "d": 110.29399999999441,
      "v": 127
    },
    {
      "midi": 59,
      "hit": false,
      "t": 76764.6239999999,
      "d": 110.29399999999441,
      "v": 127
    },
    {
      "midi": 67,
      "hit": false,
      "t": 76764.6239999999,
      "d": 110.29399999999441,
      "v": 127
    },
    {
      "midi": 57,
      "hit": false,
      "t": 76874.91799999989,
      "d": 110.29399999999441,
      "v": 127
    },
    {
      "midi": 65,
      "hit": false,
      "t": 76874.91799999989,
      "d": 110.29399999999441,
      "v": 127
    },
    {
      "midi": 55,
      "hit": false,
      "t": 76985.21199999988,
      "d": 110.29399999999441,
      "v": 127
    },
    {
      "midi": 64,
      "hit": false,
      "t": 76985.21199999988,
      "d": 110.29399999999441,
      "v": 127
    },
    {
      "midi": 53,
      "hit": false,
      "t": 77095.50599999988,
      "d": 110.29399999999441,
      "v": 127
    },
    {
      "midi": 62,
      "hit": false,
      "t": 77095.50599999988,
      "d": 110.29399999999441,
      "v": 127
    },
    {
      "midi": 52,
      "hit": false,
      "t": 77205.79999999987,
      "d": 110.29399999999441,
      "v": 127
    },
    {
      "midi": 60,
      "hit": false,
      "t": 77205.79999999987,
      "d": 110.29399999999441,
      "v": 127
    },
    {
      "midi": 50,
      "hit": false,
      "t": 77316.09399999987,
      "d": 110.29399999999441,
      "v": 127
    },
    {
      "midi": 59,
      "hit": false,
      "t": 77316.09399999987,
      "d": 110.29399999999441,
      "v": 127
    },
    {
      "midi": 48,
      "hit": false,
      "t": 77426.38799999986,
      "d": 110.29399999999441,
      "v": 127
    },
    {
      "midi": 57,
      "hit": false,
      "t": 77426.38799999986,
      "d": 110.29399999999441,
      "v": 127
    },
    {
      "midi": 47,
      "hit": false,
      "t": 77536.68199999986,
      "d": 110.29399999999441,
      "v": 127
    },
    {
      "midi": 55,
      "hit": false,
      "t": 77536.68199999986,
      "d": 110.29399999999441,
      "v": 127
    },
    {
      "midi": 45,
      "hit": false,
      "t": 77646.97599999985,
      "d": 110.29399999999441,
      "v": 127
    },
    {
      "midi": 53,
      "hit": false,
      "t": 77646.97599999985,
      "d": 110.29399999999441,
      "v": 127
    },
    {
      "midi": 43,
      "hit": false,
      "t": 77757.26999999984,
      "d": 110.29399999999441,
      "v": 127
    },
    {
      "midi": 52,
      "hit": false,
      "t": 77757.26999999984,
      "d": 110.29399999999441,
      "v": 127
    },
    {
      "midi": 41,
      "hit": false,
      "t": 77867.56399999984,
      "d": 110.29399999999441,
      "v": 127
    },
    {
      "midi": 50,
      "hit": false,
      "t": 77867.56399999984,
      "d": 110.29399999999441,
      "v": 127
    },
    {
      "midi": 38,
      "hit": false,
      "t": 77977.85799999983,
      "d": 110.29399999999441,
      "v": 127
    },
    {
      "midi": 47,
      "hit": false,
      "t": 77977.85799999983,
      "d": 110.29399999999441,
      "v": 127
    },
    {
      "midi": 76,
      "hit": false,
      "t": 78088.15199999983,
      "d": 110.29399999999441,
      "v": 127
    },
    {
      "midi": 88,
      "hit": false,
      "t": 78088.15199999983,
      "d": 110.29399999999441,
      "v": 127
    },
    {
      "midi": 36,
      "hit": false,
      "t": 78088.15200000058,
      "d": 220.58800000000338,
      "v": 127
    },
    {
      "midi": 48,
      "hit": false,
      "t": 78088.15200000058,
      "d": 220.58800000000338,
      "v": 127
    },
    {
      "midi": 60,
      "hit": false,
      "t": 78088.15200000058,
      "d": 220.58800000000338,
      "v": 127
    },
    {
      "midi": 60,
      "hit": false,
      "t": 78308.74000000059,
      "d": 220.58800000000338,
      "v": 127
    },
    {
      "midi": 64,
      "hit": false,
      "t": 78308.74000000059,
      "d": 220.58800000000338,
      "v": 127
    },
    {
      "midi": 67,
      "hit": false,
      "t": 78308.74000000059,
      "d": 220.58800000000338,
      "v": 127
    },
    {
      "midi": 76,
      "hit": false,
      "t": 78529.32799999982,
      "d": 110.29399999999441,
      "v": 127
    },
    {
      "midi": 88,
      "hit": false,
      "t": 78529.32799999982,
      "d": 110.29399999999441,
      "v": 127
    },
    {
      "midi": 48,
      "hit": false,
      "t": 78529.32800000059,
      "d": 220.58800000000338,
      "v": 127
    },
    {
      "midi": 60,
      "hit": false,
      "t": 78529.32800000059,
      "d": 220.58800000000338,
      "v": 127
    },
    {
      "midi": 60,
      "hit": false,
      "t": 78749.9160000006,
      "d": 220.58800000000338,
      "v": 127
    },
    {
      "midi": 64,
      "hit": false,
      "t": 78749.9160000006,
      "d": 220.58800000000338,
      "v": 127
    },
    {
      "midi": 67,
      "hit": false,
      "t": 78749.9160000006,
      "d": 220.58800000000338,
      "v": 127
    },
    {
      "midi": 76,
      "hit": false,
      "t": 78970.50399999981,
      "d": 110.29399999999441,
      "v": 127
    },
    {
      "midi": 88,
      "hit": false,
      "t": 78970.50399999981,
      "d": 110.29399999999441,
      "v": 127
    },
    {
      "midi": 47,
      "hit": false,
      "t": 78970.5040000006,
      "d": 220.58800000000338,
      "v": 127
    },
    {
      "midi": 59,
      "hit": false,
      "t": 78970.5040000006,
      "d": 220.58800000000338,
      "v": 127
    },
    {
      "midi": 59,
      "hit": false,
      "t": 79191.0920000006,
      "d": 220.58800000000338,
      "v": 127
    },
    {
      "midi": 64,
      "hit": false,
      "t": 79191.0920000006,
      "d": 220.58800000000338,
      "v": 127
    },
    {
      "midi": 67,
      "hit": false,
      "t": 79191.0920000006,
      "d": 220.58800000000338,
      "v": 127
    },
    {
      "midi": 76,
      "hit": false,
      "t": 79411.6799999998,
      "d": 110.29399999999441,
      "v": 127
    },
    {
      "midi": 88,
      "hit": false,
      "t": 79411.6799999998,
      "d": 110.29399999999441,
      "v": 127
    },
    {
      "midi": 47,
      "hit": false,
      "t": 79411.6800000006,
      "d": 220.58800000000338,
      "v": 127
    },
    {
      "midi": 59,
      "hit": false,
      "t": 79411.6800000006,
      "d": 220.58800000000338,
      "v": 127
    },
    {
      "midi": 59,
      "hit": false,
      "t": 79632.26800000061,
      "d": 220.58800000000338,
      "v": 127
    },
    {
      "midi": 64,
      "hit": false,
      "t": 79632.26800000061,
      "d": 220.58800000000338,
      "v": 127
    },
    {
      "midi": 67,
      "hit": false,
      "t": 79632.26800000061,
      "d": 220.58800000000338,
      "v": 127
    },
    {
      "midi": 76,
      "hit": false,
      "t": 79852.8559999998,
      "d": 147.05866666666407,
      "v": 127
    },
    {
      "midi": 88,
      "hit": false,
      "t": 79852.8559999998,
      "d": 147.05866666666407,
      "v": 127
    },
    {
      "midi": 46,
      "hit": false,
      "t": 79852.85600000061,
      "d": 220.58800000000338,
      "v": 127
    },
    {
      "midi": 58,
      "hit": false,
      "t": 79852.85600000061,
      "d": 220.58800000000338,
      "v": 127
    },
    {
      "midi": 77,
      "hit": false,
      "t": 79999.91466666646,
      "d": 147.05866666666407,
      "v": 127
    },
    {
      "midi": 89,
      "hit": false,
      "t": 79999.91466666646,
      "d": 147.05866666666407,
      "v": 127
    },
    {
      "midi": 58,
      "hit": false,
      "t": 80073.44400000061,
      "d": 220.58800000000338,
      "v": 127
    },
    {
      "midi": 62,
      "hit": false,
      "t": 80073.44400000061,
      "d": 220.58800000000338,
      "v": 127
    },
    {
      "midi": 64,
      "hit": false,
      "t": 80073.44400000061,
      "d": 220.58800000000338,
      "v": 127
    },
    {
      "midi": 67,
      "hit": false,
      "t": 80073.44400000061,
      "d": 220.58800000000338,
      "v": 127
    },
    {
      "midi": 76,
      "hit": false,
      "t": 80146.97333333312,
      "d": 147.05866666666407,
      "v": 127
    },
    {
      "midi": 88,
      "hit": false,
      "t": 80146.97333333312,
      "d": 147.05866666666407,
      "v": 127
    },
    {
      "midi": 75,
      "hit": false,
      "t": 80294.03199999979,
      "d": 110.29399999999441,
      "v": 127
    },
    {
      "midi": 87,
      "hit": false,
      "t": 80294.03199999979,
      "d": 110.29399999999441,
      "v": 127
    },
    {
      "midi": 46,
      "hit": false,
      "t": 80294.03200000062,
      "d": 220.58800000000338,
      "v": 127
    },
    {
      "midi": 58,
      "hit": false,
      "t": 80294.03200000062,
      "d": 220.58800000000338,
      "v": 127
    },
    {
      "midi": 76,
      "hit": false,
      "t": 80514.61999999978,
      "d": 110.29399999999441,
      "v": 127
    },
    {
      "midi": 88,
      "hit": false,
      "t": 80514.61999999978,
      "d": 110.29399999999441,
      "v": 127
    },
    {
      "midi": 58,
      "hit": false,
      "t": 80514.62000000062,
      "d": 220.58800000000338,
      "v": 127
    },
    {
      "midi": 62,
      "hit": false,
      "t": 80514.62000000062,
      "d": 220.58800000000338,
      "v": 127
    },
    {
      "midi": 64,
      "hit": false,
      "t": 80514.62000000062,
      "d": 220.58800000000338,
      "v": 127
    },
    {
      "midi": 67,
      "hit": false,
      "t": 80514.62000000062,
      "d": 220.58800000000338,
      "v": 127
    },
    {
      "midi": 81,
      "hit": false,
      "t": 80735.20799999977,
      "d": 110.29399999999441,
      "v": 127
    },
    {
      "midi": 93,
      "hit": false,
      "t": 80735.20799999977,
      "d": 110.29399999999441,
      "v": 127
    },
    {
      "midi": 45,
      "hit": false,
      "t": 80735.20800000062,
      "d": 220.58800000000338,
      "v": 127
    },
    {
      "midi": 57,
      "hit": false,
      "t": 80735.20800000062,
      "d": 220.58800000000338,
      "v": 127
    },
    {
      "midi": 79,
      "hit": false,
      "t": 80955.79599999975,
      "d": 110.29399999999441,
      "v": 127
    },
    {
      "midi": 91,
      "hit": false,
      "t": 80955.79599999975,
      "d": 110.29399999999441,
      "v": 127
    },
    {
      "midi": 57,
      "hit": false,
      "t": 80955.79600000063,
      "d": 220.58800000000338,
      "v": 127
    },
    {
      "midi": 61,
      "hit": false,
      "t": 80955.79600000063,
      "d": 220.58800000000338,
      "v": 127
    },
    {
      "midi": 64,
      "hit": false,
      "t": 80955.79600000063,
      "d": 220.58800000000338,
      "v": 127
    },
    {
      "midi": 67,
      "hit": false,
      "t": 80955.79600000063,
      "d": 220.58800000000338,
      "v": 127
    },
    {
      "midi": 77,
      "hit": false,
      "t": 81176.38399999974,
      "d": 110.29399999999441,
      "v": 127
    },
    {
      "midi": 89,
      "hit": false,
      "t": 81176.38399999974,
      "d": 110.29399999999441,
      "v": 127
    },
    {
      "midi": 45,
      "hit": false,
      "t": 81176.38400000063,
      "d": 220.58800000000338,
      "v": 127
    },
    {
      "midi": 57,
      "hit": false,
      "t": 81176.38400000063,
      "d": 220.58800000000338,
      "v": 127
    },
    {
      "midi": 76,
      "hit": false,
      "t": 81396.97199999973,
      "d": 110.29399999999441,
      "v": 127
    },
    {
      "midi": 88,
      "hit": false,
      "t": 81396.97199999973,
      "d": 110.29399999999441,
      "v": 127
    },
    {
      "midi": 57,
      "hit": false,
      "t": 81396.97200000063,
      "d": 220.58800000000338,
      "v": 127
    },
    {
      "midi": 61,
      "hit": false,
      "t": 81396.97200000063,
      "d": 220.58800000000338,
      "v": 127
    },
    {
      "midi": 64,
      "hit": false,
      "t": 81396.97200000063,
      "d": 220.58800000000338,
      "v": 127
    },
    {
      "midi": 67,
      "hit": false,
      "t": 81396.97200000063,
      "d": 220.58800000000338,
      "v": 127
    },
    {
      "midi": 74,
      "hit": false,
      "t": 81617.55999999972,
      "d": 110.29399999999441,
      "v": 127
    },
    {
      "midi": 86,
      "hit": false,
      "t": 81617.55999999972,
      "d": 110.29399999999441,
      "v": 127
    },
    {
      "midi": 34,
      "hit": false,
      "t": 81617.56000000064,
      "d": 220.58800000000338,
      "v": 127
    },
    {
      "midi": 46,
      "hit": false,
      "t": 81617.56000000064,
      "d": 220.58800000000338,
      "v": 127
    },
    {
      "midi": 58,
      "hit": false,
      "t": 81617.56000000064,
      "d": 220.58800000000338,
      "v": 127
    },
    {
      "midi": 62,
      "hit": false,
      "t": 81838.14800000064,
      "d": 220.58800000000338,
      "v": 127
    },
    {
      "midi": 65,
      "hit": false,
      "t": 81838.14800000064,
      "d": 220.58800000000338,
      "v": 127
    },
    {
      "midi": 74,
      "hit": false,
      "t": 82058.73599999971,
      "d": 110.29399999999441,
      "v": 127
    },
    {
      "midi": 86,
      "hit": false,
      "t": 82058.73599999971,
      "d": 110.29399999999441,
      "v": 127
    },
    {
      "midi": 46,
      "hit": false,
      "t": 82058.73600000064,
      "d": 220.58800000000338,
      "v": 127
    },
    {
      "midi": 58,
      "hit": false,
      "t": 82058.73600000064,
      "d": 220.58800000000338,
      "v": 127
    },
    {
      "midi": 62,
      "hit": false,
      "t": 82279.32400000065,
      "d": 220.58800000000338,
      "v": 127
    },
    {
      "midi": 65,
      "hit": false,
      "t": 82279.32400000065,
      "d": 220.58800000000338,
      "v": 127
    },
    {
      "midi": 74,
      "hit": false,
      "t": 82499.9119999997,
      "d": 110.29399999999441,
      "v": 127
    },
    {
      "midi": 86,
      "hit": false,
      "t": 82499.9119999997,
      "d": 110.29399999999441,
      "v": 127
    },
    {
      "midi": 45,
      "hit": false,
      "t": 82499.91200000065,
      "d": 220.58800000000338,
      "v": 127
    },
    {
      "midi": 57,
      "hit": false,
      "t": 82499.91200000065,
      "d": 220.58800000000338,
      "v": 127
    },
    {
      "midi": 62,
      "hit": false,
      "t": 82720.50000000065,
      "d": 220.58800000000338,
      "v": 127
    },
    {
      "midi": 65,
      "hit": false,
      "t": 82720.50000000065,
      "d": 220.58800000000338,
      "v": 127
    },
    {
      "midi": 74,
      "hit": false,
      "t": 82941.0879999997,
      "d": 110.29399999999441,
      "v": 127
    },
    {
      "midi": 86,
      "hit": false,
      "t": 82941.0879999997,
      "d": 110.29399999999441,
      "v": 127
    },
    {
      "midi": 45,
      "hit": false,
      "t": 82941.08800000066,
      "d": 220.58800000000338,
      "v": 127
    },
    {
      "midi": 57,
      "hit": false,
      "t": 82941.08800000066,
      "d": 220.58800000000338,
      "v": 127
    },
    {
      "midi": 62,
      "hit": false,
      "t": 83161.67600000066,
      "d": 220.58800000000338,
      "v": 127
    },
    {
      "midi": 65,
      "hit": false,
      "t": 83161.67600000066,
      "d": 220.58800000000338,
      "v": 127
    },
    {
      "midi": 74,
      "hit": false,
      "t": 83382.26399999969,
      "d": 147.05866666666407,
      "v": 127
    },
    {
      "midi": 86,
      "hit": false,
      "t": 83382.26399999969,
      "d": 147.05866666666407,
      "v": 127
    },
    {
      "midi": 44,
      "hit": false,
      "t": 83382.26400000066,
      "d": 220.58800000000338,
      "v": 127
    },
    {
      "midi": 56,
      "hit": false,
      "t": 83382.26400000066,
      "d": 220.58800000000338,
      "v": 127
    },
    {
      "midi": 76,
      "hit": false,
      "t": 83529.32266666635,
      "d": 147.05866666666407,
      "v": 127
    },
    {
      "midi": 88,
      "hit": false,
      "t": 83529.32266666635,
      "d": 147.05866666666407,
      "v": 127
    },
    {
      "midi": 60,
      "hit": false,
      "t": 83602.85200000067,
      "d": 220.58800000000338,
      "v": 127
    },
    {
      "midi": 62,
      "hit": false,
      "t": 83602.85200000067,
      "d": 220.58800000000338,
      "v": 127
    },
    {
      "midi": 65,
      "hit": false,
      "t": 83602.85200000067,
      "d": 220.58800000000338,
      "v": 127
    },
    {
      "midi": 74,
      "hit": false,
      "t": 83676.38133333302,
      "d": 147.05866666666407,
      "v": 127
    },
    {
      "midi": 86,
      "hit": false,
      "t": 83676.38133333302,
      "d": 147.05866666666407,
      "v": 127
    },
    {
      "midi": 73,
      "hit": false,
      "t": 83823.43999999968,
      "d": 110.29399999999441,
      "v": 127
    },
    {
      "midi": 85,
      "hit": false,
      "t": 83823.43999999968,
      "d": 110.29399999999441,
      "v": 127
    },
    {
      "midi": 44,
      "hit": false,
      "t": 83823.44000000067,
      "d": 220.58800000000338,
      "v": 127
    },
    {
      "midi": 56,
      "hit": false,
      "t": 83823.44000000067,
      "d": 220.58800000000338,
      "v": 127
    },
    {
      "midi": 74,
      "hit": false,
      "t": 84044.02799999967,
      "d": 110.29399999999441,
      "v": 127
    },
    {
      "midi": 86,
      "hit": false,
      "t": 84044.02799999967,
      "d": 110.29399999999441,
      "v": 127
    },
    {
      "midi": 60,
      "hit": false,
      "t": 84044.02800000068,
      "d": 220.58800000000338,
      "v": 127
    },
    {
      "midi": 62,
      "hit": false,
      "t": 84044.02800000068,
      "d": 220.58800000000338,
      "v": 127
    },
    {
      "midi": 65,
      "hit": false,
      "t": 84044.02800000068,
      "d": 220.58800000000338,
      "v": 127
    },
    {
      "midi": 79,
      "hit": false,
      "t": 84264.61599999966,
      "d": 110.29399999999441,
      "v": 127
    },
    {
      "midi": 91,
      "hit": false,
      "t": 84264.61599999966,
      "d": 110.29399999999441,
      "v": 127
    },
    {
      "midi": 43,
      "hit": false,
      "t": 84264.61600000068,
      "d": 220.58800000000338,
      "v": 127
    },
    {
      "midi": 55,
      "hit": false,
      "t": 84264.61600000068,
      "d": 220.58800000000338,
      "v": 127
    },
    {
      "midi": 77,
      "hit": false,
      "t": 84485.20399999965,
      "d": 110.29399999999441,
      "v": 127
    },
    {
      "midi": 89,
      "hit": false,
      "t": 84485.20399999965,
      "d": 110.29399999999441,
      "v": 127
    },
    {
      "midi": 59,
      "hit": false,
      "t": 84485.20400000068,
      "d": 220.58800000000338,
      "v": 127
    },
    {
      "midi": 62,
      "hit": false,
      "t": 84485.20400000068,
      "d": 220.58800000000338,
      "v": 127
    },
    {
      "midi": 65,
      "hit": false,
      "t": 84485.20400000068,
      "d": 220.58800000000338,
      "v": 127
    },
    {
      "midi": 76,
      "hit": false,
      "t": 84705.79199999964,
      "d": 110.29399999999441,
      "v": 127
    },
    {
      "midi": 88,
      "hit": false,
      "t": 84705.79199999964,
      "d": 110.29399999999441,
      "v": 127
    },
    {
      "midi": 43,
      "hit": false,
      "t": 84705.79200000069,
      "d": 220.58800000000338,
      "v": 127
    },
    {
      "midi": 55,
      "hit": false,
      "t": 84705.79200000069,
      "d": 220.58800000000338,
      "v": 127
    },
    {
      "midi": 74,
      "hit": false,
      "t": 84926.37999999963,
      "d": 110.29399999999441,
      "v": 127
    },
    {
      "midi": 86,
      "hit": false,
      "t": 84926.37999999963,
      "d": 110.29399999999441,
      "v": 127
    },
    {
      "midi": 59,
      "hit": false,
      "t": 84926.38000000069,
      "d": 220.58800000000338,
      "v": 127
    },
    {
      "midi": 62,
      "hit": false,
      "t": 84926.38000000069,
      "d": 220.58800000000338,
      "v": 127
    },
    {
      "midi": 65,
      "hit": false,
      "t": 84926.38000000069,
      "d": 220.58800000000338,
      "v": 127
    },
    {
      "midi": 72,
      "hit": false,
      "t": 85146.96799999962,
      "d": 110.29399999999441,
      "v": 127
    },
    {
      "midi": 84,
      "hit": false,
      "t": 85146.96799999962,
      "d": 110.29399999999441,
      "v": 127
    },
    {
      "midi": 33,
      "hit": false,
      "t": 85146.96800000069,
      "d": 220.58800000000338,
      "v": 127
    },
    {
      "midi": 45,
      "hit": false,
      "t": 85146.96800000069,
      "d": 220.58800000000338,
      "v": 127
    },
    {
      "midi": 57,
      "hit": false,
      "t": 85146.96800000069,
      "d": 220.58800000000338,
      "v": 127
    },
    {
      "midi": 60,
      "hit": false,
      "t": 85367.5560000007,
      "d": 220.58800000000338,
      "v": 127
    },
    {
      "midi": 64,
      "hit": false,
      "t": 85367.5560000007,
      "d": 220.58800000000338,
      "v": 127
    },
    {
      "midi": 72,
      "hit": false,
      "t": 85588.14399999961,
      "d": 110.29399999999441,
      "v": 127
    },
    {
      "midi": 84,
      "hit": false,
      "t": 85588.14399999961,
      "d": 110.29399999999441,
      "v": 127
    },
    {
      "midi": 45,
      "hit": false,
      "t": 85588.1440000007,
      "d": 220.58800000000338,
      "v": 127
    },
    {
      "midi": 57,
      "hit": false,
      "t": 85588.1440000007,
      "d": 220.58800000000338,
      "v": 127
    },
    {
      "midi": 60,
      "hit": false,
      "t": 85808.7320000007,
      "d": 220.58800000000338,
      "v": 127
    },
    {
      "midi": 64,
      "hit": false,
      "t": 85808.7320000007,
      "d": 220.58800000000338,
      "v": 127
    },
    {
      "midi": 72,
      "hit": false,
      "t": 86029.3199999996,
      "d": 110.29399999999441,
      "v": 127
    },
    {
      "midi": 84,
      "hit": false,
      "t": 86029.3199999996,
      "d": 110.29399999999441,
      "v": 127
    },
    {
      "midi": 43,
      "hit": false,
      "t": 86029.3200000007,
      "d": 220.58800000000338,
      "v": 127
    },
    {
      "midi": 55,
      "hit": false,
      "t": 86029.3200000007,
      "d": 220.58800000000338,
      "v": 127
    },
    {
      "midi": 58,
      "hit": false,
      "t": 86249.90800000071,
      "d": 220.58800000000338,
      "v": 127
    },
    {
      "midi": 64,
      "hit": false,
      "t": 86249.90800000071,
      "d": 220.58800000000338,
      "v": 127
    },
    {
      "midi": 72,
      "hit": false,
      "t": 86470.49599999959,
      "d": 110.29399999999441,
      "v": 127
    },
    {
      "midi": 84,
      "hit": false,
      "t": 86470.49599999959,
      "d": 110.29399999999441,
      "v": 127
    },
    {
      "midi": 43,
      "hit": false,
      "t": 86470.49600000071,
      "d": 220.58800000000338,
      "v": 127
    },
    {
      "midi": 55,
      "hit": false,
      "t": 86470.49600000071,
      "d": 220.58800000000338,
      "v": 127
    },
    {
      "midi": 58,
      "hit": false,
      "t": 86691.08400000072,
      "d": 220.58800000000338,
      "v": 127
    },
    {
      "midi": 64,
      "hit": false,
      "t": 86691.08400000072,
      "d": 220.58800000000338,
      "v": 127
    },
    {
      "midi": 72,
      "hit": false,
      "t": 86911.67199999958,
      "d": 147.05866666666407,
      "v": 127
    },
    {
      "midi": 84,
      "hit": false,
      "t": 86911.67199999958,
      "d": 147.05866666666407,
      "v": 127
    },
    {
      "midi": 41,
      "hit": false,
      "t": 86911.67200000072,
      "d": 220.58800000000338,
      "v": 127
    },
    {
      "midi": 53,
      "hit": false,
      "t": 86911.67200000072,
      "d": 220.58800000000338,
      "v": 127
    },
    {
      "midi": 74,
      "hit": false,
      "t": 87058.73066666625,
      "d": 147.05866666666407,
      "v": 127
    },
    {
      "midi": 86,
      "hit": false,
      "t": 87058.73066666625,
      "d": 147.05866666666407,
      "v": 127
    },
    {
      "midi": 57,
      "hit": false,
      "t": 87132.26000000072,
      "d": 220.58800000000338,
      "v": 127
    },
    {
      "midi": 60,
      "hit": false,
      "t": 87132.26000000072,
      "d": 220.58800000000338,
      "v": 127
    },
    {
      "midi": 65,
      "hit": false,
      "t": 87132.26000000072,
      "d": 220.58800000000338,
      "v": 127
    },
    {
      "midi": 72,
      "hit": false,
      "t": 87205.78933333291,
      "d": 147.05866666666407,
      "v": 127
    },
    {
      "midi": 84,
      "hit": false,
      "t": 87205.78933333291,
      "d": 147.05866666666407,
      "v": 127
    },
    {
      "midi": 71,
      "hit": false,
      "t": 87352.84799999958,
      "d": 110.29399999999441,
      "v": 127
    },
    {
      "midi": 83,
      "hit": false,
      "t": 87352.84799999958,
      "d": 110.29399999999441,
      "v": 127
    },
    {
      "midi": 41,
      "hit": false,
      "t": 87352.84800000073,
      "d": 220.58800000000338,
      "v": 127
    },
    {
      "midi": 53,
      "hit": false,
      "t": 87352.84800000073,
      "d": 220.58800000000338,
      "v": 127
    },
    {
      "midi": 72,
      "hit": false,
      "t": 87573.43599999956,
      "d": 110.29399999999441,
      "v": 127
    },
    {
      "midi": 84,
      "hit": false,
      "t": 87573.43599999956,
      "d": 110.29399999999441,
      "v": 127
    },
    {
      "midi": 57,
      "hit": false,
      "t": 87573.43600000073,
      "d": 220.58800000000338,
      "v": 127
    },
    {
      "midi": 60,
      "hit": false,
      "t": 87573.43600000073,
      "d": 220.58800000000338,
      "v": 127
    },
    {
      "midi": 65,
      "hit": false,
      "t": 87573.43600000073,
      "d": 220.58800000000338,
      "v": 127
    },
    {
      "midi": 77,
      "hit": false,
      "t": 87794.02399999955,
      "d": 110.29399999999441,
      "v": 127
    },
    {
      "midi": 89,
      "hit": false,
      "t": 87794.02399999955,
      "d": 110.29399999999441,
      "v": 127
    },
    {
      "midi": 38,
      "hit": false,
      "t": 87794.02400000073,
      "d": 220.58800000000338,
      "v": 126
    },
    {
      "midi": 50,
      "hit": false,
      "t": 87794.02400000073,
      "d": 220.58800000000338,
      "v": 127
    },
    {
      "midi": 76,
      "hit": false,
      "t": 88014.61199999954,
      "d": 110.29399999999441,
      "v": 127
    },
    {
      "midi": 88,
      "hit": false,
      "t": 88014.61199999954,
      "d": 110.29399999999441,
      "v": 127
    },
    {
      "midi": 53,
      "hit": false,
      "t": 88014.61200000074,
      "d": 220.58800000000338,
      "v": 127
    },
    {
      "midi": 57,
      "hit": false,
      "t": 88014.61200000074,
      "d": 220.58800000000338,
      "v": 127
    },
    {
      "midi": 62,
      "hit": false,
      "t": 88014.61200000074,
      "d": 220.58800000000338,
      "v": 127
    },
    {
      "midi": 74,
      "hit": false,
      "t": 88235.19999999953,
      "d": 110.29399999999441,
      "v": 127
    },
    {
      "midi": 86,
      "hit": false,
      "t": 88235.19999999953,
      "d": 110.29399999999441,
      "v": 127
    },
    {
      "midi": 38,
      "hit": false,
      "t": 88235.20000000074,
      "d": 220.58800000000338,
      "v": 127
    },
    {
      "midi": 50,
      "hit": false,
      "t": 88235.20000000074,
      "d": 220.58800000000338,
      "v": 127
    },
    {
      "midi": 72,
      "hit": false,
      "t": 88455.78799999952,
      "d": 110.29399999999441,
      "v": 127
    },
    {
      "midi": 84,
      "hit": false,
      "t": 88455.78799999952,
      "d": 110.29399999999441,
      "v": 127
    },
    {
      "midi": 53,
      "hit": false,
      "t": 88455.78800000074,
      "d": 220.58800000000338,
      "v": 127
    },
    {
      "midi": 57,
      "hit": false,
      "t": 88455.78800000074,
      "d": 220.58800000000338,
      "v": 127
    },
    {
      "midi": 62,
      "hit": false,
      "t": 88455.78800000074,
      "d": 220.58800000000338,
      "v": 127
    },
    {
      "midi": 72,
      "hit": false,
      "t": 88676.37599999951,
      "d": 110.29399999999441,
      "v": 127
    },
    {
      "midi": 84,
      "hit": false,
      "t": 88676.37599999951,
      "d": 110.29399999999441,
      "v": 127
    },
    {
      "midi": 31,
      "hit": false,
      "t": 88676.37600000075,
      "d": 220.58800000000338,
      "v": 127
    },
    {
      "midi": 43,
      "hit": false,
      "t": 88676.37600000075,
      "d": 220.58800000000338,
      "v": 127
    },
    {
      "midi": 55,
      "hit": false,
      "t": 88676.37600000075,
      "d": 220.58800000000338,
      "v": 127
    },
    {
      "midi": 71,
      "hit": false,
      "t": 88896.9639999995,
      "d": 110.29399999999441,
      "v": 127
    },
    {
      "midi": 83,
      "hit": false,
      "t": 88896.9639999995,
      "d": 110.29399999999441,
      "v": 127
    },
    {
      "midi": 59,
      "hit": false,
      "t": 88896.96400000075,
      "d": 220.58800000000338,
      "v": 127
    },
    {
      "midi": 62,
      "hit": false,
      "t": 88896.96400000075,
      "d": 220.58800000000338,
      "v": 127
    },
    {
      "midi": 74,
      "hit": false,
      "t": 89117.55199999949,
      "d": 110.29399999999441,
      "v": 127
    },
    {
      "midi": 86,
      "hit": false,
      "t": 89117.55199999949,
      "d": 110.29399999999441,
      "v": 127
    },
    {
      "midi": 43,
      "hit": false,
      "t": 89117.55200000075,
      "d": 220.58800000000338,
      "v": 127
    },
    {
      "midi": 55,
      "hit": false,
      "t": 89117.55200000075,
      "d": 220.58800000000338,
      "v": 127
    },
    {
      "midi": 71,
      "hit": false,
      "t": 89338.13999999948,
      "d": 110.29399999999441,
      "v": 127
    },
    {
      "midi": 83,
      "hit": false,
      "t": 89338.13999999948,
      "d": 110.29399999999441,
      "v": 127
    },
    {
      "midi": 59,
      "hit": false,
      "t": 89338.14000000076,
      "d": 220.58800000000338,
      "v": 127
    },
    {
      "midi": 62,
      "hit": false,
      "t": 89338.14000000076,
      "d": 220.58800000000338,
      "v": 127
    },
    {
      "midi": 71,
      "hit": false,
      "t": 89558.72799999946,
      "d": 110.29399999999441,
      "v": 127
    },
    {
      "midi": 83,
      "hit": false,
      "t": 89558.72799999946,
      "d": 110.29399999999441,
      "v": 127
    },
    {
      "midi": 33,
      "hit": false,
      "t": 89558.72800000076,
      "d": 220.58800000000338,
      "v": 127
    },
    {
      "midi": 45,
      "hit": false,
      "t": 89558.72800000076,
      "d": 220.58800000000338,
      "v": 127
    },
    {
      "midi": 57,
      "hit": false,
      "t": 89558.72800000076,
      "d": 220.58800000000338,
      "v": 127
    },
    {
      "midi": 69,
      "hit": false,
      "t": 89779.31599999945,
      "d": 110.29399999999441,
      "v": 127
    },
    {
      "midi": 81,
      "hit": false,
      "t": 89779.31599999945,
      "d": 110.29399999999441,
      "v": 127
    },
    {
      "midi": 60,
      "hit": false,
      "t": 89779.31600000076,
      "d": 220.58800000000338,
      "v": 127
    },
    {
      "midi": 62,
      "hit": false,
      "t": 89779.31600000076,
      "d": 220.58800000000338,
      "v": 127
    },
    {
      "midi": 66,
      "hit": false,
      "t": 89779.31600000076,
      "d": 220.58800000000338,
      "v": 127
    },
    {
      "midi": 74,
      "hit": false,
      "t": 89999.90399999944,
      "d": 110.29399999999441,
      "v": 127
    },
    {
      "midi": 86,
      "hit": false,
      "t": 89999.90399999944,
      "d": 110.29399999999441,
      "v": 127
    },
    {
      "midi": 45,
      "hit": false,
      "t": 89999.90400000077,
      "d": 220.58800000000338,
      "v": 127
    },
    {
      "midi": 57,
      "hit": false,
      "t": 89999.90400000077,
      "d": 220.58800000000338,
      "v": 127
    },
    {
      "midi": 69,
      "hit": false,
      "t": 90220.49199999943,
      "d": 110.29399999999441,
      "v": 127
    },
    {
      "midi": 81,
      "hit": false,
      "t": 90220.49199999943,
      "d": 110.29399999999441,
      "v": 127
    },
    {
      "midi": 60,
      "hit": false,
      "t": 90220.49200000077,
      "d": 220.58800000000338,
      "v": 127
    },
    {
      "midi": 62,
      "hit": false,
      "t": 90220.49200000077,
      "d": 220.58800000000338,
      "v": 127
    },
    {
      "midi": 66,
      "hit": false,
      "t": 90220.49200000077,
      "d": 220.58800000000338,
      "v": 127
    },
    {
      "midi": 69,
      "hit": false,
      "t": 90441.07999999942,
      "d": 110.29399999999441,
      "v": 127
    },
    {
      "midi": 81,
      "hit": false,
      "t": 90441.07999999942,
      "d": 110.29399999999441,
      "v": 127
    },
    {
      "midi": 35,
      "hit": false,
      "t": 90441.08000000077,
      "d": 220.58800000000338,
      "v": 127
    },
    {
      "midi": 47,
      "hit": false,
      "t": 90441.08000000077,
      "d": 220.58800000000338,
      "v": 127
    },
    {
      "midi": 59,
      "hit": false,
      "t": 90441.08000000077,
      "d": 220.58800000000338,
      "v": 127
    },
    {
      "midi": 67,
      "hit": false,
      "t": 90661.66799999941,
      "d": 110.29399999999441,
      "v": 127
    },
    {
      "midi": 79,
      "hit": false,
      "t": 90661.66799999941,
      "d": 110.29399999999441,
      "v": 127
    },
    {
      "midi": 62,
      "hit": false,
      "t": 90661.66800000078,
      "d": 220.58800000000338,
      "v": 127
    },
    {
      "midi": 66,
      "hit": false,
      "t": 90882.2559999994,
      "d": 110.29399999999441,
      "v": 127
    },
    {
      "midi": 78,
      "hit": false,
      "t": 90882.2559999994,
      "d": 110.29399999999441,
      "v": 127
    },
    {
      "midi": 47,
      "hit": false,
      "t": 90882.25600000078,
      "d": 220.58800000000338,
      "v": 127
    },
    {
      "midi": 59,
      "hit": false,
      "t": 90882.25600000078,
      "d": 220.58800000000338,
      "v": 127
    },
    {
      "midi": 67,
      "hit": false,
      "t": 91102.84399999939,
      "d": 110.29399999999441,
      "v": 127
    },
    {
      "midi": 79,
      "hit": false,
      "t": 91102.84399999939,
      "d": 110.29399999999441,
      "v": 127
    },
    {
      "midi": 62,
      "hit": false,
      "t": 91102.84400000078,
      "d": 220.58800000000338,
      "v": 127
    },
    {
      "midi": 69,
      "hit": false,
      "t": 91323.43199999937,
      "d": 110.29399999999441,
      "v": 127
    },
    {
      "midi": 81,
      "hit": false,
      "t": 91323.43199999937,
      "d": 110.29399999999441,
      "v": 127
    },
    {
      "midi": 31,
      "hit": false,
      "t": 91323.43200000079,
      "d": 220.58800000000338,
      "v": 127
    },
    {
      "midi": 43,
      "hit": false,
      "t": 91323.43200000079,
      "d": 220.58800000000338,
      "v": 127
    },
    {
      "midi": 55,
      "hit": false,
      "t": 91323.43200000079,
      "d": 220.58800000000338,
      "v": 127
    },
    {
      "midi": 71,
      "hit": false,
      "t": 91544.01999999936,
      "d": 110.29399999999441,
      "v": 127
    },
    {
      "midi": 83,
      "hit": false,
      "t": 91544.01999999936,
      "d": 110.29399999999441,
      "v": 127
    },
    {
      "midi": 59,
      "hit": false,
      "t": 91544.02000000079,
      "d": 220.58800000000338,
      "v": 127
    },
    {
      "midi": 62,
      "hit": false,
      "t": 91544.02000000079,
      "d": 220.58800000000338,
      "v": 127
    },
    {
      "midi": 65,
      "hit": false,
      "t": 91544.02000000079,
      "d": 220.58800000000338,
      "v": 127
    },
    {
      "midi": 67,
      "hit": false,
      "t": 91544.02000000079,
      "d": 220.58800000000338,
      "v": 127
    },
    {
      "midi": 72,
      "hit": false,
      "t": 91764.60799999935,
      "d": 110.29399999999441,
      "v": 127
    },
    {
      "midi": 84,
      "hit": false,
      "t": 91764.60799999935,
      "d": 110.29399999999441,
      "v": 127
    },
    {
      "midi": 43,
      "hit": false,
      "t": 91764.6080000008,
      "d": 220.58800000000338,
      "v": 127
    },
    {
      "midi": 55,
      "hit": false,
      "t": 91764.6080000008,
      "d": 220.58800000000338,
      "v": 127
    },
    {
      "midi": 74,
      "hit": false,
      "t": 91985.19599999934,
      "d": 110.29399999999441,
      "v": 127
    },
    {
      "midi": 86,
      "hit": false,
      "t": 91985.19599999934,
      "d": 110.29399999999441,
      "v": 127
    },
    {
      "midi": 59,
      "hit": false,
      "t": 91985.1960000008,
      "d": 220.58800000000338,
      "v": 127
    },
    {
      "midi": 62,
      "hit": false,
      "t": 91985.1960000008,
      "d": 220.58800000000338,
      "v": 127
    },
    {
      "midi": 65,
      "hit": false,
      "t": 91985.1960000008,
      "d": 220.58800000000338,
      "v": 127
    },
    {
      "midi": 67,
      "hit": false,
      "t": 91985.1960000008,
      "d": 220.58800000000338,
      "v": 127
    },
    {
      "midi": 76,
      "hit": false,
      "t": 92205.78399999933,
      "d": 110.29399999999441,
      "v": 127
    },
    {
      "midi": 88,
      "hit": false,
      "t": 92205.78399999933,
      "d": 110.29399999999441,
      "v": 127
    },
    {
      "midi": 36,
      "hit": false,
      "t": 92205.7840000008,
      "d": 220.58800000000338,
      "v": 127
    },
    {
      "midi": 48,
      "hit": false,
      "t": 92205.7840000008,
      "d": 220.58800000000338,
      "v": 127
    },
    {
      "midi": 60,
      "hit": false,
      "t": 92205.7840000008,
      "d": 220.58800000000338,
      "v": 127
    },
    {
      "midi": 60,
      "hit": false,
      "t": 92426.3720000008,
      "d": 220.58800000000338,
      "v": 127
    },
    {
      "midi": 64,
      "hit": false,
      "t": 92426.3720000008,
      "d": 220.58800000000338,
      "v": 127
    },
    {
      "midi": 67,
      "hit": false,
      "t": 92426.3720000008,
      "d": 220.58800000000338,
      "v": 127
    },
    {
      "midi": 76,
      "hit": false,
      "t": 92646.95999999932,
      "d": 110.29399999999441,
      "v": 127
    },
    {
      "midi": 88,
      "hit": false,
      "t": 92646.95999999932,
      "d": 110.29399999999441,
      "v": 127
    },
    {
      "midi": 48,
      "hit": false,
      "t": 92646.9600000008,
      "d": 220.58800000000338,
      "v": 127
    },
    {
      "midi": 60,
      "hit": false,
      "t": 92646.9600000008,
      "d": 220.58800000000338,
      "v": 127
    },
    {
      "midi": 60,
      "hit": false,
      "t": 92867.54800000081,
      "d": 220.58800000000338,
      "v": 127
    },
    {
      "midi": 64,
      "hit": false,
      "t": 92867.54800000081,
      "d": 220.58800000000338,
      "v": 127
    },
    {
      "midi": 67,
      "hit": false,
      "t": 92867.54800000081,
      "d": 220.58800000000338,
      "v": 127
    },
    {
      "midi": 76,
      "hit": false,
      "t": 93088.13599999931,
      "d": 110.29399999999441,
      "v": 127
    },
    {
      "midi": 88,
      "hit": false,
      "t": 93088.13599999931,
      "d": 110.29399999999441,
      "v": 127
    },
    {
      "midi": 47,
      "hit": false,
      "t": 93088.13600000081,
      "d": 220.58800000000338,
      "v": 127
    },
    {
      "midi": 59,
      "hit": false,
      "t": 93088.13600000081,
      "d": 220.58800000000338,
      "v": 127
    },
    {
      "midi": 59,
      "hit": false,
      "t": 93308.72400000082,
      "d": 220.58800000000338,
      "v": 127
    },
    {
      "midi": 64,
      "hit": false,
      "t": 93308.72400000082,
      "d": 220.58800000000338,
      "v": 127
    },
    {
      "midi": 67,
      "hit": false,
      "t": 93308.72400000082,
      "d": 220.58800000000338,
      "v": 127
    },
    {
      "midi": 76,
      "hit": false,
      "t": 93529.3119999993,
      "d": 110.29399999999441,
      "v": 127
    },
    {
      "midi": 88,
      "hit": false,
      "t": 93529.3119999993,
      "d": 110.29399999999441,
      "v": 127
    },
    {
      "midi": 47,
      "hit": false,
      "t": 93529.31200000082,
      "d": 220.58800000000338,
      "v": 127
    },
    {
      "midi": 59,
      "hit": false,
      "t": 93529.31200000082,
      "d": 220.58800000000338,
      "v": 127
    },
    {
      "midi": 59,
      "hit": false,
      "t": 93749.90000000082,
      "d": 220.58800000000338,
      "v": 127
    },
    {
      "midi": 64,
      "hit": false,
      "t": 93749.90000000082,
      "d": 220.58800000000338,
      "v": 127
    },
    {
      "midi": 67,
      "hit": false,
      "t": 93749.90000000082,
      "d": 220.58800000000338,
      "v": 127
    },
    {
      "midi": 76,
      "hit": false,
      "t": 93970.4879999993,
      "d": 147.05866666666407,
      "v": 127
    },
    {
      "midi": 88,
      "hit": false,
      "t": 93970.4879999993,
      "d": 147.05866666666407,
      "v": 127
    },
    {
      "midi": 46,
      "hit": false,
      "t": 93970.48800000083,
      "d": 220.58800000000338,
      "v": 127
    },
    {
      "midi": 58,
      "hit": false,
      "t": 93970.48800000083,
      "d": 220.58800000000338,
      "v": 127
    },
    {
      "midi": 77,
      "hit": false,
      "t": 94117.54666666596,
      "d": 147.05866666666407,
      "v": 127
    },
    {
      "midi": 89,
      "hit": false,
      "t": 94117.54666666596,
      "d": 147.05866666666407,
      "v": 127
    },
    {
      "midi": 58,
      "hit": false,
      "t": 94191.07600000083,
      "d": 220.58800000000338,
      "v": 127
    },
    {
      "midi": 62,
      "hit": false,
      "t": 94191.07600000083,
      "d": 220.58800000000338,
      "v": 127
    },
    {
      "midi": 64,
      "hit": false,
      "t": 94191.07600000083,
      "d": 220.58800000000338,
      "v": 127
    },
    {
      "midi": 67,
      "hit": false,
      "t": 94191.07600000083,
      "d": 220.58800000000338,
      "v": 127
    },
    {
      "midi": 76,
      "hit": false,
      "t": 94264.60533333263,
      "d": 147.05866666666407,
      "v": 127
    },
    {
      "midi": 88,
      "hit": false,
      "t": 94264.60533333263,
      "d": 147.05866666666407,
      "v": 127
    },
    {
      "midi": 75,
      "hit": false,
      "t": 94411.66399999929,
      "d": 110.29399999999441,
      "v": 127
    },
    {
      "midi": 87,
      "hit": false,
      "t": 94411.66399999929,
      "d": 110.29399999999441,
      "v": 127
    },
    {
      "midi": 46,
      "hit": false,
      "t": 94411.66400000083,
      "d": 220.58800000000338,
      "v": 127
    },
    {
      "midi": 58,
      "hit": false,
      "t": 94411.66400000083,
      "d": 220.58800000000338,
      "v": 127
    },
    {
      "midi": 76,
      "hit": false,
      "t": 94632.25199999928,
      "d": 110.29399999999441,
      "v": 127
    },
    {
      "midi": 88,
      "hit": false,
      "t": 94632.25199999928,
      "d": 110.29399999999441,
      "v": 127
    },
    {
      "midi": 58,
      "hit": false,
      "t": 94632.25200000084,
      "d": 220.58800000000338,
      "v": 127
    },
    {
      "midi": 62,
      "hit": false,
      "t": 94632.25200000084,
      "d": 220.58800000000338,
      "v": 127
    },
    {
      "midi": 64,
      "hit": false,
      "t": 94632.25200000084,
      "d": 220.58800000000338,
      "v": 127
    },
    {
      "midi": 67,
      "hit": false,
      "t": 94632.25200000084,
      "d": 220.58800000000338,
      "v": 127
    },
    {
      "midi": 81,
      "hit": false,
      "t": 94852.83999999927,
      "d": 110.29399999999441,
      "v": 127
    },
    {
      "midi": 93,
      "hit": false,
      "t": 94852.83999999927,
      "d": 110.29399999999441,
      "v": 127
    },
    {
      "midi": 45,
      "hit": false,
      "t": 94852.84000000084,
      "d": 220.58800000000338,
      "v": 127
    },
    {
      "midi": 57,
      "hit": false,
      "t": 94852.84000000084,
      "d": 220.58800000000338,
      "v": 127
    },
    {
      "midi": 79,
      "hit": false,
      "t": 95073.42799999926,
      "d": 110.29399999999441,
      "v": 127
    },
    {
      "midi": 91,
      "hit": false,
      "t": 95073.42799999926,
      "d": 110.29399999999441,
      "v": 127
    },
    {
      "midi": 57,
      "hit": false,
      "t": 95073.42800000084,
      "d": 220.58800000000338,
      "v": 127
    },
    {
      "midi": 61,
      "hit": false,
      "t": 95073.42800000084,
      "d": 220.58800000000338,
      "v": 127
    },
    {
      "midi": 64,
      "hit": false,
      "t": 95073.42800000084,
      "d": 220.58800000000338,
      "v": 127
    },
    {
      "midi": 67,
      "hit": false,
      "t": 95073.42800000084,
      "d": 220.58800000000338,
      "v": 127
    },
    {
      "midi": 77,
      "hit": false,
      "t": 95294.01599999925,
      "d": 110.29399999999441,
      "v": 127
    },
    {
      "midi": 89,
      "hit": false,
      "t": 95294.01599999925,
      "d": 110.29399999999441,
      "v": 127
    },
    {
      "midi": 45,
      "hit": false,
      "t": 95294.01600000085,
      "d": 220.58800000000338,
      "v": 127
    },
    {
      "midi": 57,
      "hit": false,
      "t": 95294.01600000085,
      "d": 220.58800000000338,
      "v": 127
    },
    {
      "midi": 76,
      "hit": false,
      "t": 95514.60399999924,
      "d": 110.29399999999441,
      "v": 127
    },
    {
      "midi": 88,
      "hit": false,
      "t": 95514.60399999924,
      "d": 110.29399999999441,
      "v": 127
    },
    {
      "midi": 57,
      "hit": false,
      "t": 95514.60400000085,
      "d": 220.58800000000338,
      "v": 127
    },
    {
      "midi": 61,
      "hit": false,
      "t": 95514.60400000085,
      "d": 220.58800000000338,
      "v": 127
    },
    {
      "midi": 64,
      "hit": false,
      "t": 95514.60400000085,
      "d": 220.58800000000338,
      "v": 127
    },
    {
      "midi": 67,
      "hit": false,
      "t": 95514.60400000085,
      "d": 220.58800000000338,
      "v": 127
    },
    {
      "midi": 74,
      "hit": false,
      "t": 95735.19199999922,
      "d": 110.29399999999441,
      "v": 127
    },
    {
      "midi": 86,
      "hit": false,
      "t": 95735.19199999922,
      "d": 110.29399999999441,
      "v": 127
    },
    {
      "midi": 34,
      "hit": false,
      "t": 95735.19200000085,
      "d": 220.58800000000338,
      "v": 127
    },
    {
      "midi": 46,
      "hit": false,
      "t": 95735.19200000085,
      "d": 220.58800000000338,
      "v": 127
    },
    {
      "midi": 58,
      "hit": false,
      "t": 95735.19200000085,
      "d": 220.58800000000338,
      "v": 127
    },
    {
      "midi": 62,
      "hit": false,
      "t": 95955.78000000086,
      "d": 220.58800000000338,
      "v": 127
    },
    {
      "midi": 65,
      "hit": false,
      "t": 95955.78000000086,
      "d": 220.58800000000338,
      "v": 127
    },
    {
      "midi": 74,
      "hit": false,
      "t": 96176.36799999922,
      "d": 110.29399999999441,
      "v": 127
    },
    {
      "midi": 86,
      "hit": false,
      "t": 96176.36799999922,
      "d": 110.29399999999441,
      "v": 127
    },
    {
      "midi": 46,
      "hit": false,
      "t": 96176.36800000086,
      "d": 220.58800000000338,
      "v": 126
    },
    {
      "midi": 58,
      "hit": false,
      "t": 96176.36800000086,
      "d": 220.58800000000338,
      "v": 127
    },
    {
      "midi": 62,
      "hit": false,
      "t": 96396.95600000086,
      "d": 220.58800000000338,
      "v": 127
    },
    {
      "midi": 65,
      "hit": false,
      "t": 96396.95600000086,
      "d": 220.58800000000338,
      "v": 127
    },
    {
      "midi": 74,
      "hit": false,
      "t": 96617.54399999921,
      "d": 110.29399999999441,
      "v": 127
    },
    {
      "midi": 86,
      "hit": false,
      "t": 96617.54399999921,
      "d": 110.29399999999441,
      "v": 127
    },
    {
      "midi": 45,
      "hit": false,
      "t": 96617.54400000087,
      "d": 220.58800000000338,
      "v": 127
    },
    {
      "midi": 57,
      "hit": false,
      "t": 96617.54400000087,
      "d": 220.58800000000338,
      "v": 127
    },
    {
      "midi": 62,
      "hit": false,
      "t": 96838.13200000087,
      "d": 220.58800000000338,
      "v": 127
    },
    {
      "midi": 65,
      "hit": false,
      "t": 96838.13200000087,
      "d": 220.58800000000338,
      "v": 127
    },
    {
      "midi": 74,
      "hit": false,
      "t": 97058.7199999992,
      "d": 110.29399999999441,
      "v": 127
    },
    {
      "midi": 86,
      "hit": false,
      "t": 97058.7199999992,
      "d": 110.29399999999441,
      "v": 127
    },
    {
      "midi": 45,
      "hit": false,
      "t": 97058.72000000087,
      "d": 220.58800000000338,
      "v": 127
    },
    {
      "midi": 57,
      "hit": false,
      "t": 97058.72000000087,
      "d": 220.58800000000338,
      "v": 127
    },
    {
      "midi": 62,
      "hit": false,
      "t": 97279.30800000088,
      "d": 220.58800000000338,
      "v": 127
    },
    {
      "midi": 65,
      "hit": false,
      "t": 97279.30800000088,
      "d": 220.58800000000338,
      "v": 127
    },
    {
      "midi": 74,
      "hit": false,
      "t": 97499.8959999992,
      "d": 147.05866666666407,
      "v": 127
    },
    {
      "midi": 86,
      "hit": false,
      "t": 97499.8959999992,
      "d": 147.05866666666407,
      "v": 127
    },
    {
      "midi": 44,
      "hit": false,
      "t": 97499.89600000088,
      "d": 220.58800000000338,
      "v": 127
    },
    {
      "midi": 56,
      "hit": false,
      "t": 97499.89600000088,
      "d": 220.58800000000338,
      "v": 127
    },
    {
      "midi": 76,
      "hit": false,
      "t": 97646.95466666586,
      "d": 147.05866666666407,
      "v": 127
    },
    {
      "midi": 88,
      "hit": false,
      "t": 97646.95466666586,
      "d": 147.05866666666407,
      "v": 127
    },
    {
      "midi": 60,
      "hit": false,
      "t": 97720.48400000088,
      "d": 220.58800000000338,
      "v": 127
    },
    {
      "midi": 62,
      "hit": false,
      "t": 97720.48400000088,
      "d": 220.58800000000338,
      "v": 127
    },
    {
      "midi": 65,
      "hit": false,
      "t": 97720.48400000088,
      "d": 220.58800000000338,
      "v": 127
    },
    {
      "midi": 74,
      "hit": false,
      "t": 97794.01333333252,
      "d": 147.05866666666407,
      "v": 127
    },
    {
      "midi": 86,
      "hit": false,
      "t": 97794.01333333252,
      "d": 147.05866666666407,
      "v": 127
    },
    {
      "midi": 73,
      "hit": false,
      "t": 97941.07199999919,
      "d": 110.29399999999441,
      "v": 127
    },
    {
      "midi": 85,
      "hit": false,
      "t": 97941.07199999919,
      "d": 110.29399999999441,
      "v": 127
    },
    {
      "midi": 44,
      "hit": false,
      "t": 97941.07200000089,
      "d": 220.58800000000338,
      "v": 127
    },
    {
      "midi": 56,
      "hit": false,
      "t": 97941.07200000089,
      "d": 220.58800000000338,
      "v": 127
    },
    {
      "midi": 74,
      "hit": false,
      "t": 98161.65999999917,
      "d": 110.29399999999441,
      "v": 127
    },
    {
      "midi": 86,
      "hit": false,
      "t": 98161.65999999917,
      "d": 110.29399999999441,
      "v": 127
    },
    {
      "midi": 60,
      "hit": false,
      "t": 98161.66000000089,
      "d": 220.58800000000338,
      "v": 127
    },
    {
      "midi": 62,
      "hit": false,
      "t": 98161.66000000089,
      "d": 220.58800000000338,
      "v": 127
    },
    {
      "midi": 65,
      "hit": false,
      "t": 98161.66000000089,
      "d": 220.58800000000338,
      "v": 127
    },
    {
      "midi": 79,
      "hit": false,
      "t": 98382.24799999916,
      "d": 110.29399999999441,
      "v": 127
    },
    {
      "midi": 91,
      "hit": false,
      "t": 98382.24799999916,
      "d": 110.29399999999441,
      "v": 127
    },
    {
      "midi": 43,
      "hit": false,
      "t": 98382.2480000009,
      "d": 220.58800000000338,
      "v": 127
    },
    {
      "midi": 55,
      "hit": false,
      "t": 98382.2480000009,
      "d": 220.58800000000338,
      "v": 127
    },
    {
      "midi": 77,
      "hit": false,
      "t": 98602.83599999915,
      "d": 110.29399999999441,
      "v": 127
    },
    {
      "midi": 89,
      "hit": false,
      "t": 98602.83599999915,
      "d": 110.29399999999441,
      "v": 127
    },
    {
      "midi": 59,
      "hit": false,
      "t": 98602.8360000009,
      "d": 220.58800000000338,
      "v": 127
    },
    {
      "midi": 62,
      "hit": false,
      "t": 98602.8360000009,
      "d": 220.58800000000338,
      "v": 127
    },
    {
      "midi": 65,
      "hit": false,
      "t": 98602.8360000009,
      "d": 220.58800000000338,
      "v": 127
    },
    {
      "midi": 76,
      "hit": false,
      "t": 98823.42399999914,
      "d": 110.29399999999441,
      "v": 127
    },
    {
      "midi": 88,
      "hit": false,
      "t": 98823.42399999914,
      "d": 110.29399999999441,
      "v": 127
    },
    {
      "midi": 43,
      "hit": false,
      "t": 98823.4240000009,
      "d": 220.58800000000338,
      "v": 127
    },
    {
      "midi": 55,
      "hit": false,
      "t": 98823.4240000009,
      "d": 220.58800000000338,
      "v": 127
    },
    {
      "midi": 74,
      "hit": false,
      "t": 99044.01199999913,
      "d": 110.29399999999441,
      "v": 127
    },
    {
      "midi": 86,
      "hit": false,
      "t": 99044.01199999913,
      "d": 110.29399999999441,
      "v": 127
    },
    {
      "midi": 59,
      "hit": false,
      "t": 99044.0120000009,
      "d": 220.58800000000338,
      "v": 127
    },
    {
      "midi": 62,
      "hit": false,
      "t": 99044.0120000009,
      "d": 220.58800000000338,
      "v": 127
    },
    {
      "midi": 65,
      "hit": false,
      "t": 99044.0120000009,
      "d": 220.58800000000338,
      "v": 127
    },
    {
      "midi": 72,
      "hit": false,
      "t": 99264.59999999912,
      "d": 110.29399999999441,
      "v": 127
    },
    {
      "midi": 84,
      "hit": false,
      "t": 99264.59999999912,
      "d": 110.29399999999441,
      "v": 127
    },
    {
      "midi": 33,
      "hit": false,
      "t": 99264.60000000091,
      "d": 220.58800000000338,
      "v": 127
    },
    {
      "midi": 45,
      "hit": false,
      "t": 99264.60000000091,
      "d": 220.58800000000338,
      "v": 127
    },
    {
      "midi": 57,
      "hit": false,
      "t": 99264.60000000091,
      "d": 220.58800000000338,
      "v": 127
    },
    {
      "midi": 60,
      "hit": false,
      "t": 99485.18800000091,
      "d": 220.58800000000338,
      "v": 127
    },
    {
      "midi": 64,
      "hit": false,
      "t": 99485.18800000091,
      "d": 220.58800000000338,
      "v": 127
    },
    {
      "midi": 72,
      "hit": false,
      "t": 99705.77599999911,
      "d": 110.29399999999441,
      "v": 127
    },
    {
      "midi": 84,
      "hit": false,
      "t": 99705.77599999911,
      "d": 110.29399999999441,
      "v": 127
    },
    {
      "midi": 45,
      "hit": false,
      "t": 99705.77600000091,
      "d": 220.58800000000338,
      "v": 127
    },
    {
      "midi": 57,
      "hit": false,
      "t": 99705.77600000091,
      "d": 220.58800000000338,
      "v": 127
    },
    {
      "midi": 60,
      "hit": false,
      "t": 99926.36400000092,
      "d": 220.58800000000338,
      "v": 127
    },
    {
      "midi": 64,
      "hit": false,
      "t": 99926.36400000092,
      "d": 220.58800000000338,
      "v": 127
    },
    {
      "midi": 72,
      "hit": false,
      "t": 100146.9519999991,
      "d": 110.29399999999441,
      "v": 127
    },
    {
      "midi": 84,
      "hit": false,
      "t": 100146.9519999991,
      "d": 110.29399999999441,
      "v": 127
    },
    {
      "midi": 43,
      "hit": false,
      "t": 100146.95200000092,
      "d": 220.58800000000338,
      "v": 127
    },
    {
      "midi": 55,
      "hit": false,
      "t": 100146.95200000092,
      "d": 220.58800000000338,
      "v": 127
    },
    {
      "midi": 58,
      "hit": false,
      "t": 100367.54000000092,
      "d": 220.58800000000338,
      "v": 127
    },
    {
      "midi": 64,
      "hit": false,
      "t": 100367.54000000092,
      "d": 220.58800000000338,
      "v": 127
    },
    {
      "midi": 72,
      "hit": false,
      "t": 100588.1279999991,
      "d": 110.29399999999441,
      "v": 127
    },
    {
      "midi": 84,
      "hit": false,
      "t": 100588.1279999991,
      "d": 110.29399999999441,
      "v": 127
    },
    {
      "midi": 43,
      "hit": false,
      "t": 100588.12800000093,
      "d": 220.58800000000338,
      "v": 127
    },
    {
      "midi": 55,
      "hit": false,
      "t": 100588.12800000093,
      "d": 220.58800000000338,
      "v": 127
    },
    {
      "midi": 58,
      "hit": false,
      "t": 100808.71600000093,
      "d": 220.58800000000338,
      "v": 127
    },
    {
      "midi": 64,
      "hit": false,
      "t": 100808.71600000093,
      "d": 220.58800000000338,
      "v": 127
    },
    {
      "midi": 72,
      "hit": false,
      "t": 101029.30399999909,
      "d": 147.05866666666407,
      "v": 127
    },
    {
      "midi": 84,
      "hit": false,
      "t": 101029.30399999909,
      "d": 147.05866666666407,
      "v": 127
    },
    {
      "midi": 41,
      "hit": false,
      "t": 101029.30400000094,
      "d": 220.58800000000338,
      "v": 127
    },
    {
      "midi": 53,
      "hit": false,
      "t": 101029.30400000094,
      "d": 220.58800000000338,
      "v": 127
    },
    {
      "midi": 74,
      "hit": false,
      "t": 101176.36266666575,
      "d": 147.05866666666407,
      "v": 127
    },
    {
      "midi": 86,
      "hit": false,
      "t": 101176.36266666575,
      "d": 147.05866666666407,
      "v": 127
    },
    {
      "midi": 57,
      "hit": false,
      "t": 101249.89200000094,
      "d": 220.58800000000338,
      "v": 127
    },
    {
      "midi": 60,
      "hit": false,
      "t": 101249.89200000094,
      "d": 220.58800000000338,
      "v": 127
    },
    {
      "midi": 65,
      "hit": false,
      "t": 101249.89200000094,
      "d": 220.58800000000338,
      "v": 127
    },
    {
      "midi": 72,
      "hit": false,
      "t": 101323.42133333242,
      "d": 147.05866666666407,
      "v": 127
    },
    {
      "midi": 84,
      "hit": false,
      "t": 101323.42133333242,
      "d": 147.05866666666407,
      "v": 127
    },
    {
      "midi": 71,
      "hit": false,
      "t": 101470.47999999908,
      "d": 110.29399999999441,
      "v": 127
    },
    {
      "midi": 83,
      "hit": false,
      "t": 101470.47999999908,
      "d": 110.29399999999441,
      "v": 127
    },
    {
      "midi": 41,
      "hit": false,
      "t": 101470.48000000094,
      "d": 220.58800000000338,
      "v": 127
    },
    {
      "midi": 53,
      "hit": false,
      "t": 101470.48000000094,
      "d": 220.58800000000338,
      "v": 127
    },
    {
      "midi": 72,
      "hit": false,
      "t": 101691.06799999907,
      "d": 110.29399999999441,
      "v": 127
    },
    {
      "midi": 84,
      "hit": false,
      "t": 101691.06799999907,
      "d": 110.29399999999441,
      "v": 127
    },
    {
      "midi": 57,
      "hit": false,
      "t": 101691.06800000095,
      "d": 220.58800000000338,
      "v": 127
    },
    {
      "midi": 60,
      "hit": false,
      "t": 101691.06800000095,
      "d": 220.58800000000338,
      "v": 127
    },
    {
      "midi": 65,
      "hit": false,
      "t": 101691.06800000095,
      "d": 220.58800000000338,
      "v": 127
    },
    {
      "midi": 77,
      "hit": false,
      "t": 101911.65599999906,
      "d": 110.29399999999441,
      "v": 127
    },
    {
      "midi": 89,
      "hit": false,
      "t": 101911.65599999906,
      "d": 110.29399999999441,
      "v": 127
    },
    {
      "midi": 38,
      "hit": false,
      "t": 101911.65600000095,
      "d": 220.58800000000338,
      "v": 127
    },
    {
      "midi": 50,
      "hit": false,
      "t": 101911.65600000095,
      "d": 220.58800000000338,
      "v": 127
    },
    {
      "midi": 76,
      "hit": false,
      "t": 102132.24399999905,
      "d": 110.29399999999441,
      "v": 127
    },
    {
      "midi": 88,
      "hit": false,
      "t": 102132.24399999905,
      "d": 110.29399999999441,
      "v": 127
    },
    {
      "midi": 53,
      "hit": false,
      "t": 102132.24400000095,
      "d": 220.58800000000338,
      "v": 127
    },
    {
      "midi": 57,
      "hit": false,
      "t": 102132.24400000095,
      "d": 220.58800000000338,
      "v": 127
    },
    {
      "midi": 62,
      "hit": false,
      "t": 102132.24400000095,
      "d": 220.58800000000338,
      "v": 127
    },
    {
      "midi": 74,
      "hit": false,
      "t": 102352.83199999903,
      "d": 110.29399999999441,
      "v": 127
    },
    {
      "midi": 86,
      "hit": false,
      "t": 102352.83199999903,
      "d": 110.29399999999441,
      "v": 127
    },
    {
      "midi": 38,
      "hit": false,
      "t": 102352.83200000096,
      "d": 220.58800000000338,
      "v": 127
    },
    {
      "midi": 50,
      "hit": false,
      "t": 102352.83200000096,
      "d": 220.58800000000338,
      "v": 127
    },
    {
      "midi": 72,
      "hit": false,
      "t": 102573.41999999902,
      "d": 110.29399999999441,
      "v": 127
    },
    {
      "midi": 84,
      "hit": false,
      "t": 102573.41999999902,
      "d": 110.29399999999441,
      "v": 127
    },
    {
      "midi": 53,
      "hit": false,
      "t": 102573.42000000096,
      "d": 220.58800000000338,
      "v": 127
    },
    {
      "midi": 57,
      "hit": false,
      "t": 102573.42000000096,
      "d": 220.58800000000338,
      "v": 127
    },
    {
      "midi": 62,
      "hit": false,
      "t": 102573.42000000096,
      "d": 220.58800000000338,
      "v": 127
    },
    {
      "midi": 91,
      "hit": false,
      "t": 102794.00799999901,
      "d": 55.146999999997206,
      "v": 127
    },
    {
      "midi": 72,
      "hit": false,
      "t": 102794.00799999901,
      "d": 220.58799999998882,
      "v": 127
    },
    {
      "midi": 84,
      "hit": false,
      "t": 102794.00799999901,
      "d": 220.58799999998882,
      "v": 127
    },
    {
      "midi": 43,
      "hit": false,
      "t": 102794.00800000096,
      "d": 220.58800000000338,
      "v": 127
    },
    {
      "midi": 55,
      "hit": false,
      "t": 102794.00800000096,
      "d": 220.58800000000338,
      "v": 127
    },
    {
      "midi": 93,
      "hit": false,
      "t": 102849.15499999901,
      "d": 55.146999999997206,
      "v": 127
    },
    {
      "midi": 91,
      "hit": false,
      "t": 102904.301999999,
      "d": 55.146999999997206,
      "v": 127
    },
    {
      "midi": 93,
      "hit": false,
      "t": 102959.448999999,
      "d": 55.146999999997206,
      "v": 127
    },
    {
      "midi": 91,
      "hit": false,
      "t": 103014.595999999,
      "d": 55.146999999997206,
      "v": 127
    },
    {
      "midi": 71,
      "hit": false,
      "t": 103014.595999999,
      "d": 110.29399999999441,
      "v": 127
    },
    {
      "midi": 83,
      "hit": false,
      "t": 103014.595999999,
      "d": 110.29399999999441,
      "v": 127
    },
    {
      "midi": 59,
      "hit": false,
      "t": 103014.59600000097,
      "d": 220.58800000000338,
      "v": 127
    },
    {
      "midi": 62,
      "hit": false,
      "t": 103014.59600000097,
      "d": 220.58800000000338,
      "v": 127
    },
    {
      "midi": 65,
      "hit": false,
      "t": 103014.59600000097,
      "d": 220.58800000000338,
      "v": 127
    },
    {
      "midi": 93,
      "hit": false,
      "t": 103069.742999999,
      "d": 55.146999999997206,
      "v": 127
    },
    {
      "midi": 91,
      "hit": false,
      "t": 103124.889999999,
      "d": 55.146999999997206,
      "v": 127
    },
    {
      "midi": 93,
      "hit": false,
      "t": 103180.03699999899,
      "d": 55.146999999997206,
      "v": 127
    },
    {
      "midi": 91,
      "hit": false,
      "t": 103235.18399999899,
      "d": 55.146999999997206,
      "v": 127
    },
    {
      "midi": 74,
      "hit": false,
      "t": 103235.18399999899,
      "d": 110.29399999999441,
      "v": 127
    },
    {
      "midi": 86,
      "hit": false,
      "t": 103235.18399999899,
      "d": 110.29399999999441,
      "v": 127
    },
    {
      "midi": 43,
      "hit": false,
      "t": 103235.18400000097,
      "d": 220.58800000000338,
      "v": 127
    },
    {
      "midi": 59,
      "hit": false,
      "t": 103235.18400000097,
      "d": 220.58800000000338,
      "v": 127
    },
    {
      "midi": 62,
      "hit": false,
      "t": 103235.18400000097,
      "d": 220.58800000000338,
      "v": 127
    },
    {
      "midi": 65,
      "hit": false,
      "t": 103235.18400000097,
      "d": 220.58800000000338,
      "v": 127
    },
    {
      "midi": 93,
      "hit": false,
      "t": 103290.33099999899,
      "d": 55.146999999997206,
      "v": 127
    },
    {
      "midi": 91,
      "hit": false,
      "t": 103345.47799999898,
      "d": 55.146999999997206,
      "v": 127
    },
    {
      "midi": 93,
      "hit": false,
      "t": 103400.62499999898,
      "d": 55.146999999997206,
      "v": 127
    },
    {
      "midi": 91,
      "hit": false,
      "t": 103455.77199999898,
      "d": 55.146999999997206,
      "v": 127
    },
    {
      "midi": 71,
      "hit": false,
      "t": 103455.77199999898,
      "d": 110.29399999999441,
      "v": 127
    },
    {
      "midi": 83,
      "hit": false,
      "t": 103455.77199999898,
      "d": 110.29399999999441,
      "v": 127
    },
    {
      "midi": 59,
      "hit": false,
      "t": 103455.77200000097,
      "d": 220.58800000000338,
      "v": 127
    },
    {
      "midi": 62,
      "hit": false,
      "t": 103455.77200000097,
      "d": 220.58800000000338,
      "v": 127
    },
    {
      "midi": 65,
      "hit": false,
      "t": 103455.77200000097,
      "d": 220.58800000000338,
      "v": 127
    },
    {
      "midi": 93,
      "hit": false,
      "t": 103510.91899999898,
      "d": 55.146999999997206,
      "v": 127
    },
    {
      "midi": 91,
      "hit": false,
      "t": 103566.06599999897,
      "d": 55.146999999997206,
      "v": 125
    },
    {
      "midi": 93,
      "hit": false,
      "t": 103621.21299999897,
      "d": 55.146999999997206,
      "v": 125
    },
    {
      "midi": 91,
      "hit": false,
      "t": 103676.35999999897,
      "d": 55.146999999997206,
      "v": 127
    },
    {
      "midi": 74,
      "hit": false,
      "t": 103676.35999999897,
      "d": 220.58799999998882,
      "v": 127
    },
    {
      "midi": 86,
      "hit": false,
      "t": 103676.35999999897,
      "d": 220.58799999998882,
      "v": 126
    },
    {
      "midi": 43,
      "hit": false,
      "t": 103676.36000000098,
      "d": 220.58800000000338,
      "v": 127
    },
    {
      "midi": 55,
      "hit": false,
      "t": 103676.36000000098,
      "d": 220.58800000000338,
      "v": 127
    },
    {
      "midi": 93,
      "hit": false,
      "t": 103731.50699999896,
      "d": 55.146999999997206,
      "v": 127
    },
    {
      "midi": 91,
      "hit": false,
      "t": 103786.65399999896,
      "d": 55.146999999997206,
      "v": 127
    },
    {
      "midi": 93,
      "hit": false,
      "t": 103841.80099999896,
      "d": 55.146999999997206,
      "v": 127
    },
    {
      "midi": 91,
      "hit": false,
      "t": 103896.94799999896,
      "d": 55.146999999997206,
      "v": 127
    },
    {
      "midi": 72,
      "hit": false,
      "t": 103896.94799999896,
      "d": 110.29399999999441,
      "v": 127
    },
    {
      "midi": 84,
      "hit": false,
      "t": 103896.94799999896,
      "d": 110.29399999999441,
      "v": 127
    },
    {
      "midi": 60,
      "hit": false,
      "t": 103896.94800000098,
      "d": 220.58800000000338,
      "v": 127
    },
    {
      "midi": 64,
      "hit": false,
      "t": 103896.94800000098,
      "d": 220.58800000000338,
      "v": 127
    },
    {
      "midi": 67,
      "hit": false,
      "t": 103896.94800000098,
      "d": 220.58800000000338,
      "v": 127
    },
    {
      "midi": 93,
      "hit": false,
      "t": 103952.09499999895,
      "d": 55.146999999997206,
      "v": 127
    },
    {
      "midi": 91,
      "hit": false,
      "t": 104007.24199999895,
      "d": 55.146999999997206,
      "v": 127
    },
    {
      "midi": 93,
      "hit": false,
      "t": 104062.38899999895,
      "d": 55.146999999997206,
      "v": 127
    },
    {
      "midi": 91,
      "hit": false,
      "t": 104117.53599999895,
      "d": 55.146999999997206,
      "v": 127
    },
    {
      "midi": 76,
      "hit": false,
      "t": 104117.53599999895,
      "d": 110.29399999999441,
      "v": 122
    },
    {
      "midi": 88,
      "hit": false,
      "t": 104117.53599999895,
      "d": 110.29399999999441,
      "v": 127
    },
    {
      "midi": 43,
      "hit": false,
      "t": 104117.53600000098,
      "d": 220.58800000000338,
      "v": 127
    },
    {
      "midi": 60,
      "hit": false,
      "t": 104117.53600000098,
      "d": 220.58800000000338,
      "v": 127
    },
    {
      "midi": 64,
      "hit": false,
      "t": 104117.53600000098,
      "d": 220.58800000000338,
      "v": 127
    },
    {
      "midi": 67,
      "hit": false,
      "t": 104117.53600000098,
      "d": 220.58800000000338,
      "v": 127
    },
    {
      "midi": 93,
      "hit": false,
      "t": 104172.68299999894,
      "d": 55.146999999997206,
      "v": 127
    },
    {
      "midi": 91,
      "hit": false,
      "t": 104227.82999999894,
      "d": 55.146999999997206,
      "v": 127
    },
    {
      "midi": 93,
      "hit": false,
      "t": 104282.97699999894,
      "d": 55.146999999997206,
      "v": 127
    },
    {
      "midi": 91,
      "hit": false,
      "t": 104338.12399999893,
      "d": 55.146999999997206,
      "v": 127
    },
    {
      "midi": 72,
      "hit": false,
      "t": 104338.12399999893,
      "d": 110.29399999999441,
      "v": 127
    },
    {
      "midi": 84,
      "hit": false,
      "t": 104338.12399999893,
      "d": 110.29399999999441,
      "v": 127
    },
    {
      "midi": 60,
      "hit": false,
      "t": 104338.12400000099,
      "d": 220.58800000000338,
      "v": 127
    },
    {
      "midi": 64,
      "hit": false,
      "t": 104338.12400000099,
      "d": 220.58800000000338,
      "v": 127
    },
    {
      "midi": 67,
      "hit": false,
      "t": 104338.12400000099,
      "d": 220.58800000000338,
      "v": 127
    },
    {
      "midi": 93,
      "hit": false,
      "t": 104393.27099999893,
      "d": 55.146999999997206,
      "v": 127
    },
    {
      "midi": 91,
      "hit": false,
      "t": 104448.41799999893,
      "d": 55.146999999997206,
      "v": 127
    },
    {
      "midi": 93,
      "hit": false,
      "t": 104503.56499999893,
      "d": 55.146999999997206,
      "v": 127
    },
    {
      "midi": 91,
      "hit": false,
      "t": 104558.71199999892,
      "d": 55.146999999997206,
      "v": 127
    },
    {
      "midi": 72,
      "hit": false,
      "t": 104558.71199999892,
      "d": 220.58799999998882,
      "v": 127
    },
    {
      "midi": 84,
      "hit": false,
      "t": 104558.71199999892,
      "d": 220.58799999998882,
      "v": 127
    },
    {
      "midi": 43,
      "hit": false,
      "t": 104558.71200000099,
      "d": 220.58800000000338,
      "v": 127
    },
    {
      "midi": 55,
      "hit": false,
      "t": 104558.71200000099,
      "d": 220.58800000000338,
      "v": 127
    },
    {
      "midi": 93,
      "hit": false,
      "t": 104613.85899999892,
      "d": 55.146999999997206,
      "v": 127
    },
    {
      "midi": 91,
      "hit": false,
      "t": 104669.00599999892,
      "d": 55.146999999997206,
      "v": 127
    },
    {
      "midi": 93,
      "hit": false,
      "t": 104724.15299999891,
      "d": 55.146999999997206,
      "v": 127
    },
    {
      "midi": 91,
      "hit": false,
      "t": 104779.29999999891,
      "d": 55.146999999997206,
      "v": 127
    },
    {
      "midi": 71,
      "hit": false,
      "t": 104779.29999999891,
      "d": 110.29399999999441,
      "v": 127
    },
    {
      "midi": 83,
      "hit": false,
      "t": 104779.29999999891,
      "d": 110.29399999999441,
      "v": 127
    },
    {
      "midi": 59,
      "hit": false,
      "t": 104779.30000000099,
      "d": 220.58800000000338,
      "v": 127
    },
    {
      "midi": 62,
      "hit": false,
      "t": 104779.30000000099,
      "d": 220.58800000000338,
      "v": 127
    },
    {
      "midi": 65,
      "hit": false,
      "t": 104779.30000000099,
      "d": 220.58800000000338,
      "v": 127
    },
    {
      "midi": 93,
      "hit": false,
      "t": 104834.44699999891,
      "d": 55.146999999997206,
      "v": 127
    },
    {
      "midi": 91,
      "hit": false,
      "t": 104889.5939999989,
      "d": 55.146999999997206,
      "v": 127
    },
    {
      "midi": 93,
      "hit": false,
      "t": 104944.7409999989,
      "d": 55.146999999997206,
      "v": 127
    },
    {
      "midi": 91,
      "hit": false,
      "t": 104999.8879999989,
      "d": 55.146999999997206,
      "v": 127
    },
    {
      "midi": 74,
      "hit": false,
      "t": 104999.8879999989,
      "d": 110.29399999999441,
      "v": 127
    },
    {
      "midi": 86,
      "hit": false,
      "t": 104999.8879999989,
      "d": 110.29399999999441,
      "v": 127
    },
    {
      "midi": 43,
      "hit": false,
      "t": 104999.888000001,
      "d": 220.58800000000338,
      "v": 127
    },
    {
      "midi": 59,
      "hit": false,
      "t": 104999.888000001,
      "d": 220.58800000000338,
      "v": 127
    },
    {
      "midi": 62,
      "hit": false,
      "t": 104999.888000001,
      "d": 220.58800000000338,
      "v": 127
    },
    {
      "midi": 65,
      "hit": false,
      "t": 104999.888000001,
      "d": 220.58800000000338,
      "v": 127
    },
    {
      "midi": 93,
      "hit": false,
      "t": 105055.0349999989,
      "d": 55.146999999997206,
      "v": 127
    },
    {
      "midi": 91,
      "hit": false,
      "t": 105110.1819999989,
      "d": 55.146999999997206,
      "v": 127
    },
    {
      "midi": 93,
      "hit": false,
      "t": 105165.32899999889,
      "d": 55.146999999997206,
      "v": 127
    },
    {
      "midi": 91,
      "hit": false,
      "t": 105220.47599999889,
      "d": 55.146999999997206,
      "v": 127
    },
    {
      "midi": 71,
      "hit": false,
      "t": 105220.47599999889,
      "d": 110.29399999999441,
      "v": 127
    },
    {
      "midi": 83,
      "hit": false,
      "t": 105220.47599999889,
      "d": 110.29399999999441,
      "v": 127
    },
    {
      "midi": 59,
      "hit": false,
      "t": 105220.476000001,
      "d": 220.58800000000338,
      "v": 127
    },
    {
      "midi": 62,
      "hit": false,
      "t": 105220.476000001,
      "d": 220.58800000000338,
      "v": 127
    },
    {
      "midi": 65,
      "hit": false,
      "t": 105220.476000001,
      "d": 220.58800000000338,
      "v": 127
    },
    {
      "midi": 93,
      "hit": false,
      "t": 105275.62299999889,
      "d": 55.146999999997206,
      "v": 127
    },
    {
      "midi": 91,
      "hit": false,
      "t": 105330.76999999888,
      "d": 55.146999999997206,
      "v": 127
    },
    {
      "midi": 93,
      "hit": false,
      "t": 105385.91699999888,
      "d": 55.146999999997206,
      "v": 127
    },
    {
      "midi": 91,
      "hit": false,
      "t": 105441.06399999888,
      "d": 55.146999999997206,
      "v": 127
    },
    {
      "midi": 74,
      "hit": false,
      "t": 105441.06399999888,
      "d": 220.58799999998882,
      "v": 127
    },
    {
      "midi": 86,
      "hit": false,
      "t": 105441.06399999888,
      "d": 220.58799999998882,
      "v": 126
    },
    {
      "midi": 43,
      "hit": false,
      "t": 105441.064000001,
      "d": 220.58800000000338,
      "v": 127
    },
    {
      "midi": 55,
      "hit": false,
      "t": 105441.064000001,
      "d": 220.58800000000338,
      "v": 127
    },
    {
      "midi": 93,
      "hit": false,
      "t": 105496.21099999888,
      "d": 55.146999999997206,
      "v": 127
    },
    {
      "midi": 91,
      "hit": false,
      "t": 105551.35799999887,
      "d": 55.146999999997206,
      "v": 127
    },
    {
      "midi": 93,
      "hit": false,
      "t": 105606.50499999887,
      "d": 55.146999999997206,
      "v": 127
    },
    {
      "midi": 91,
      "hit": false,
      "t": 105661.65199999887,
      "d": 55.146999999997206,
      "v": 127
    },
    {
      "midi": 72,
      "hit": false,
      "t": 105661.65199999887,
      "d": 110.29399999999441,
      "v": 127
    },
    {
      "midi": 84,
      "hit": false,
      "t": 105661.65199999887,
      "d": 110.29399999999441,
      "v": 127
    },
    {
      "midi": 60,
      "hit": false,
      "t": 105661.652000001,
      "d": 220.58800000000338,
      "v": 127
    },
    {
      "midi": 64,
      "hit": false,
      "t": 105661.652000001,
      "d": 220.58800000000338,
      "v": 127
    },
    {
      "midi": 67,
      "hit": false,
      "t": 105661.652000001,
      "d": 220.58800000000338,
      "v": 127
    },
    {
      "midi": 93,
      "hit": false,
      "t": 105716.79899999886,
      "d": 55.146999999997206,
      "v": 127
    },
    {
      "midi": 91,
      "hit": false,
      "t": 105771.94599999886,
      "d": 55.146999999997206,
      "v": 127
    },
    {
      "midi": 93,
      "hit": false,
      "t": 105827.09299999886,
      "d": 55.146999999997206,
      "v": 127
    },
    {
      "midi": 91,
      "hit": false,
      "t": 105882.23999999886,
      "d": 55.146999999997206,
      "v": 127
    },
    {
      "midi": 76,
      "hit": false,
      "t": 105882.23999999886,
      "d": 110.29399999999441,
      "v": 122
    },
    {
      "midi": 88,
      "hit": false,
      "t": 105882.23999999886,
      "d": 110.29399999999441,
      "v": 127
    },
    {
      "midi": 43,
      "hit": false,
      "t": 105882.24000000101,
      "d": 220.58800000000338,
      "v": 127
    },
    {
      "midi": 60,
      "hit": false,
      "t": 105882.24000000101,
      "d": 220.58800000000338,
      "v": 127
    },
    {
      "midi": 64,
      "hit": false,
      "t": 105882.24000000101,
      "d": 220.58800000000338,
      "v": 127
    },
    {
      "midi": 67,
      "hit": false,
      "t": 105882.24000000101,
      "d": 220.58800000000338,
      "v": 127
    },
    {
      "midi": 93,
      "hit": false,
      "t": 105937.38699999885,
      "d": 55.146999999997206,
      "v": 127
    },
    {
      "midi": 91,
      "hit": false,
      "t": 105992.53399999885,
      "d": 55.146999999997206,
      "v": 127
    },
    {
      "midi": 93,
      "hit": false,
      "t": 106047.68099999885,
      "d": 55.146999999997206,
      "v": 127
    },
    {
      "midi": 91,
      "hit": false,
      "t": 106102.82799999884,
      "d": 55.146999999997206,
      "v": 127
    },
    {
      "midi": 72,
      "hit": false,
      "t": 106102.82799999884,
      "d": 110.29399999999441,
      "v": 127
    },
    {
      "midi": 84,
      "hit": false,
      "t": 106102.82799999884,
      "d": 110.29399999999441,
      "v": 127
    },
    {
      "midi": 60,
      "hit": false,
      "t": 106102.82800000101,
      "d": 220.58800000000338,
      "v": 127
    },
    {
      "midi": 64,
      "hit": false,
      "t": 106102.82800000101,
      "d": 220.58800000000338,
      "v": 127
    },
    {
      "midi": 67,
      "hit": false,
      "t": 106102.82800000101,
      "d": 220.58800000000338,
      "v": 127
    },
    {
      "midi": 93,
      "hit": false,
      "t": 106157.97499999884,
      "d": 55.146999999997206,
      "v": 127
    },
    {
      "midi": 91,
      "hit": false,
      "t": 106213.12199999884,
      "d": 55.146999999997206,
      "v": 127
    },
    {
      "midi": 93,
      "hit": false,
      "t": 106268.26899999884,
      "d": 55.146999999997206,
      "v": 127
    },
    {
      "midi": 91,
      "hit": false,
      "t": 106323.41599999883,
      "d": 55.146999999997206,
      "v": 127
    },
    {
      "midi": 71,
      "hit": false,
      "t": 106323.41599999883,
      "d": 220.58799999998882,
      "v": 126
    },
    {
      "midi": 83,
      "hit": false,
      "t": 106323.41599999883,
      "d": 220.58799999998882,
      "v": 126
    },
    {
      "midi": 43,
      "hit": false,
      "t": 106323.41600000102,
      "d": 220.58800000000338,
      "v": 127
    },
    {
      "midi": 55,
      "hit": false,
      "t": 106323.41600000102,
      "d": 220.58800000000338,
      "v": 127
    },
    {
      "midi": 93,
      "hit": false,
      "t": 106378.56299999883,
      "d": 55.146999999997206,
      "v": 127
    },
    {
      "midi": 91,
      "hit": false,
      "t": 106433.70999999883,
      "d": 55.146999999997206,
      "v": 127
    },
    {
      "midi": 93,
      "hit": false,
      "t": 106488.85699999882,
      "d": 55.146999999997206,
      "v": 127
    },
    {
      "midi": 91,
      "hit": false,
      "t": 106544.00399999882,
      "d": 55.146999999997206,
      "v": 127
    },
    {
      "midi": 72,
      "hit": false,
      "t": 106544.00399999882,
      "d": 220.58799999998882,
      "v": 127
    },
    {
      "midi": 84,
      "hit": false,
      "t": 106544.00399999882,
      "d": 220.58799999998882,
      "v": 123
    },
    {
      "midi": 59,
      "hit": false,
      "t": 106544.00400000102,
      "d": 220.58800000000338,
      "v": 127
    },
    {
      "midi": 62,
      "hit": false,
      "t": 106544.00400000102,
      "d": 220.58800000000338,
      "v": 127
    },
    {
      "midi": 65,
      "hit": false,
      "t": 106544.00400000102,
      "d": 220.58800000000338,
      "v": 127
    },
    {
      "midi": 93,
      "hit": false,
      "t": 106599.15099999882,
      "d": 55.146999999997206,
      "v": 127
    },
    {
      "midi": 91,
      "hit": false,
      "t": 106654.29799999882,
      "d": 55.146999999997206,
      "v": 127
    },
    {
      "midi": 93,
      "hit": false,
      "t": 106709.44499999881,
      "d": 55.146999999997206,
      "v": 127
    },
    {
      "midi": 91,
      "hit": false,
      "t": 106764.59199999881,
      "d": 55.146999999997206,
      "v": 127
    },
    {
      "midi": 74,
      "hit": false,
      "t": 106764.59199999881,
      "d": 220.58799999998882,
      "v": 127
    },
    {
      "midi": 86,
      "hit": false,
      "t": 106764.59199999881,
      "d": 220.58799999998882,
      "v": 127
    },
    {
      "midi": 43,
      "hit": false,
      "t": 106764.59200000102,
      "d": 220.58800000000338,
      "v": 127
    },
    {
      "midi": 59,
      "hit": false,
      "t": 106764.59200000102,
      "d": 220.58800000000338,
      "v": 127
    },
    {
      "midi": 62,
      "hit": false,
      "t": 106764.59200000102,
      "d": 220.58800000000338,
      "v": 127
    },
    {
      "midi": 65,
      "hit": false,
      "t": 106764.59200000102,
      "d": 220.58800000000338,
      "v": 127
    },
    {
      "midi": 93,
      "hit": false,
      "t": 106819.73899999881,
      "d": 55.146999999997206,
      "v": 127
    },
    {
      "midi": 91,
      "hit": false,
      "t": 106874.8859999988,
      "d": 55.146999999997206,
      "v": 127
    },
    {
      "midi": 93,
      "hit": false,
      "t": 106930.0329999988,
      "d": 55.146999999997206,
      "v": 127
    },
    {
      "midi": 79,
      "hit": false,
      "t": 106985.1799999988,
      "d": 220.58799999998882,
      "v": 127
    },
    {
      "midi": 59,
      "hit": false,
      "t": 106985.18000000103,
      "d": 220.58800000000338,
      "v": 127
    },
    {
      "midi": 62,
      "hit": false,
      "t": 106985.18000000103,
      "d": 220.58800000000338,
      "v": 127
    },
    {
      "midi": 65,
      "hit": false,
      "t": 106985.18000000103,
      "d": 220.58800000000338,
      "v": 127
    },
    {
      "midi": 93,
      "hit": false,
      "t": 107040.3269999988,
      "d": 55.146999999997206,
      "v": 126
    },
    {
      "midi": 91,
      "hit": false,
      "t": 107095.4739999988,
      "d": 55.146999999997206,
      "v": 121
    },
    {
      "midi": 93,
      "hit": false,
      "t": 107150.62099999879,
      "d": 55.146999999997206,
      "v": 127
    },
    {
      "midi": 91,
      "hit": false,
      "t": 107205.76799999879,
      "d": 55.146999999997206,
      "v": 118
    },
    {
      "midi": 72,
      "hit": false,
      "t": 107205.76799999879,
      "d": 220.58799999998882,
      "v": 127
    },
    {
      "midi": 84,
      "hit": false,
      "t": 107205.76799999879,
      "d": 220.58799999998882,
      "v": 127
    },
    {
      "midi": 43,
      "hit": false,
      "t": 107205.76800000103,
      "d": 220.58800000000338,
      "v": 127
    },
    {
      "midi": 55,
      "hit": false,
      "t": 107205.76800000103,
      "d": 220.58800000000338,
      "v": 127
    },
    {
      "midi": 93,
      "hit": false,
      "t": 107260.91499999879,
      "d": 55.146999999997206,
      "v": 127
    },
    {
      "midi": 91,
      "hit": false,
      "t": 107316.06199999878,
      "d": 55.146999999997206,
      "v": 127
    },
    {
      "midi": 93,
      "hit": false,
      "t": 107371.20899999878,
      "d": 55.146999999997206,
      "v": 126
    },
    {
      "midi": 91,
      "hit": false,
      "t": 107426.35599999878,
      "d": 55.146999999997206,
      "v": 127
    },
    {
      "midi": 74,
      "hit": false,
      "t": 107426.35599999878,
      "d": 220.58799999998882,
      "v": 127
    },
    {
      "midi": 86,
      "hit": false,
      "t": 107426.35599999878,
      "d": 220.58799999998882,
      "v": 127
    },
    {
      "midi": 60,
      "hit": false,
      "t": 107426.35600000103,
      "d": 220.58800000000338,
      "v": 127
    },
    {
      "midi": 64,
      "hit": false,
      "t": 107426.35600000103,
      "d": 220.58800000000338,
      "v": 127
    },
    {
      "midi": 67,
      "hit": false,
      "t": 107426.35600000103,
      "d": 220.58800000000338,
      "v": 127
    },
    {
      "midi": 93,
      "hit": false,
      "t": 107481.50299999877,
      "d": 55.146999999997206,
      "v": 127
    },
    {
      "midi": 91,
      "hit": false,
      "t": 107536.64999999877,
      "d": 55.146999999997206,
      "v": 127
    },
    {
      "midi": 93,
      "hit": false,
      "t": 107591.79699999877,
      "d": 55.146999999997206,
      "v": 127
    },
    {
      "midi": 91,
      "hit": false,
      "t": 107646.94399999877,
      "d": 55.146999999997206,
      "v": 127
    },
    {
      "midi": 76,
      "hit": false,
      "t": 107646.94399999877,
      "d": 220.58799999998882,
      "v": 127
    },
    {
      "midi": 88,
      "hit": false,
      "t": 107646.94399999877,
      "d": 220.58799999998882,
      "v": 127
    },
    {
      "midi": 43,
      "hit": false,
      "t": 107646.94400000104,
      "d": 220.58800000000338,
      "v": 105
    },
    {
      "midi": 60,
      "hit": false,
      "t": 107646.94400000104,
      "d": 220.58800000000338,
      "v": 127
    },
    {
      "midi": 64,
      "hit": false,
      "t": 107646.94400000104,
      "d": 220.58800000000338,
      "v": 127
    },
    {
      "midi": 67,
      "hit": false,
      "t": 107646.94400000104,
      "d": 220.58800000000338,
      "v": 127
    },
    {
      "midi": 93,
      "hit": false,
      "t": 107702.09099999876,
      "d": 55.146999999997206,
      "v": 127
    },
    {
      "midi": 91,
      "hit": false,
      "t": 107757.23799999876,
      "d": 55.146999999997206,
      "v": 127
    },
    {
      "midi": 93,
      "hit": false,
      "t": 107812.38499999876,
      "d": 55.146999999997206,
      "v": 127
    },
    {
      "midi": 79,
      "hit": false,
      "t": 107867.53199999876,
      "d": 220.58799999998882,
      "v": 127
    },
    {
      "midi": 60,
      "hit": false,
      "t": 107867.53200000104,
      "d": 220.58800000000338,
      "v": 127
    },
    {
      "midi": 64,
      "hit": false,
      "t": 107867.53200000104,
      "d": 220.58800000000338,
      "v": 127
    },
    {
      "midi": 67,
      "hit": false,
      "t": 107867.53200000104,
      "d": 220.58800000000338,
      "v": 127
    },
    {
      "midi": 93,
      "hit": false,
      "t": 107922.67899999875,
      "d": 55.146999999997206,
      "v": 126
    },
    {
      "midi": 91,
      "hit": false,
      "t": 107977.82599999875,
      "d": 55.146999999997206,
      "v": 124
    },
    {
      "midi": 93,
      "hit": false,
      "t": 108032.97299999875,
      "d": 55.146999999997206,
      "v": 126
    },
    {
      "midi": 91,
      "hit": false,
      "t": 108088.11999999874,
      "d": 55.146999999997206,
      "v": 121
    },
    {
      "midi": 71,
      "hit": false,
      "t": 108088.11999999874,
      "d": 220.58799999998882,
      "v": 126
    },
    {
      "midi": 83,
      "hit": false,
      "t": 108088.11999999874,
      "d": 220.58799999998882,
      "v": 126
    },
    {
      "midi": 43,
      "hit": false,
      "t": 108088.12000000104,
      "d": 220.58800000000338,
      "v": 127
    },
    {
      "midi": 55,
      "hit": false,
      "t": 108088.12000000104,
      "d": 220.58800000000338,
      "v": 127
    },
    {
      "midi": 93,
      "hit": false,
      "t": 108143.26699999874,
      "d": 55.146999999997206,
      "v": 127
    },
    {
      "midi": 91,
      "hit": false,
      "t": 108198.41399999874,
      "d": 55.146999999997206,
      "v": 126
    },
    {
      "midi": 93,
      "hit": false,
      "t": 108253.56099999874,
      "d": 55.146999999997206,
      "v": 122
    },
    {
      "midi": 91,
      "hit": false,
      "t": 108308.70799999873,
      "d": 55.146999999997206,
      "v": 127
    },
    {
      "midi": 72,
      "hit": false,
      "t": 108308.70799999873,
      "d": 220.58799999998882,
      "v": 127
    },
    {
      "midi": 84,
      "hit": false,
      "t": 108308.70799999873,
      "d": 220.58799999998882,
      "v": 123
    },
    {
      "midi": 59,
      "hit": false,
      "t": 108308.70800000105,
      "d": 220.58800000000338,
      "v": 127
    },
    {
      "midi": 62,
      "hit": false,
      "t": 108308.70800000105,
      "d": 220.58800000000338,
      "v": 127
    },
    {
      "midi": 65,
      "hit": false,
      "t": 108308.70800000105,
      "d": 220.58800000000338,
      "v": 127
    },
    {
      "midi": 93,
      "hit": false,
      "t": 108363.85499999873,
      "d": 55.146999999997206,
      "v": 127
    },
    {
      "midi": 91,
      "hit": false,
      "t": 108419.00199999873,
      "d": 55.146999999997206,
      "v": 127
    },
    {
      "midi": 93,
      "hit": false,
      "t": 108474.14899999872,
      "d": 55.146999999997206,
      "v": 127
    },
    {
      "midi": 91,
      "hit": false,
      "t": 108529.29599999872,
      "d": 55.146999999997206,
      "v": 127
    },
    {
      "midi": 74,
      "hit": false,
      "t": 108529.29599999872,
      "d": 220.58799999998882,
      "v": 127
    },
    {
      "midi": 86,
      "hit": false,
      "t": 108529.29599999872,
      "d": 220.58799999998882,
      "v": 127
    },
    {
      "midi": 43,
      "hit": false,
      "t": 108529.29600000105,
      "d": 220.58800000000338,
      "v": 127
    },
    {
      "midi": 59,
      "hit": false,
      "t": 108529.29600000105,
      "d": 220.58800000000338,
      "v": 127
    },
    {
      "midi": 62,
      "hit": false,
      "t": 108529.29600000105,
      "d": 220.58800000000338,
      "v": 127
    },
    {
      "midi": 65,
      "hit": false,
      "t": 108529.29600000105,
      "d": 220.58800000000338,
      "v": 127
    },
    {
      "midi": 93,
      "hit": false,
      "t": 108584.44299999872,
      "d": 55.146999999997206,
      "v": 127
    },
    {
      "midi": 91,
      "hit": false,
      "t": 108639.58999999872,
      "d": 55.146999999997206,
      "v": 127
    },
    {
      "midi": 93,
      "hit": false,
      "t": 108694.73699999871,
      "d": 55.146999999997206,
      "v": 127
    },
    {
      "midi": 79,
      "hit": false,
      "t": 108749.88399999871,
      "d": 220.58799999998882,
      "v": 127
    },
    {
      "midi": 59,
      "hit": false,
      "t": 108749.88400000105,
      "d": 220.58800000000338,
      "v": 127
    },
    {
      "midi": 62,
      "hit": false,
      "t": 108749.88400000105,
      "d": 220.58800000000338,
      "v": 127
    },
    {
      "midi": 65,
      "hit": false,
      "t": 108749.88400000105,
      "d": 220.58800000000338,
      "v": 127
    },
    {
      "midi": 93,
      "hit": false,
      "t": 108805.03099999871,
      "d": 55.146999999997206,
      "v": 126
    },
    {
      "midi": 91,
      "hit": false,
      "t": 108860.1779999987,
      "d": 55.146999999997206,
      "v": 125
    },
    {
      "midi": 93,
      "hit": false,
      "t": 108915.3249999987,
      "d": 55.146999999997206,
      "v": 127
    },
    {
      "midi": 91,
      "hit": false,
      "t": 108970.4719999987,
      "d": 55.146999999997206,
      "v": 127
    },
    {
      "midi": 72,
      "hit": false,
      "t": 108970.4719999987,
      "d": 220.58799999998882,
      "v": 127
    },
    {
      "midi": 84,
      "hit": false,
      "t": 108970.4719999987,
      "d": 220.58799999998882,
      "v": 127
    },
    {
      "midi": 43,
      "hit": false,
      "t": 108970.47200000106,
      "d": 220.58800000000338,
      "v": 127
    },
    {
      "midi": 55,
      "hit": false,
      "t": 108970.47200000106,
      "d": 220.58800000000338,
      "v": 127
    },
    {
      "midi": 93,
      "hit": false,
      "t": 109025.6189999987,
      "d": 55.146999999997206,
      "v": 127
    },
    {
      "midi": 91,
      "hit": false,
      "t": 109080.7659999987,
      "d": 55.146999999997206,
      "v": 127
    },
    {
      "midi": 93,
      "hit": false,
      "t": 109135.91299999869,
      "d": 55.146999999997206,
      "v": 127
    },
    {
      "midi": 91,
      "hit": false,
      "t": 109191.05999999869,
      "d": 55.146999999997206,
      "v": 127
    },
    {
      "midi": 74,
      "hit": false,
      "t": 109191.05999999869,
      "d": 220.58799999998882,
      "v": 127
    },
    {
      "midi": 86,
      "hit": false,
      "t": 109191.05999999869,
      "d": 220.58799999998882,
      "v": 127
    },
    {
      "midi": 60,
      "hit": false,
      "t": 109191.06000000106,
      "d": 220.58800000000338,
      "v": 127
    },
    {
      "midi": 64,
      "hit": false,
      "t": 109191.06000000106,
      "d": 220.58800000000338,
      "v": 127
    },
    {
      "midi": 67,
      "hit": false,
      "t": 109191.06000000106,
      "d": 220.58800000000338,
      "v": 127
    },
    {
      "midi": 93,
      "hit": false,
      "t": 109246.20699999869,
      "d": 55.146999999997206,
      "v": 127
    },
    {
      "midi": 91,
      "hit": false,
      "t": 109301.35399999868,
      "d": 55.146999999997206,
      "v": 127
    },
    {
      "midi": 93,
      "hit": false,
      "t": 109356.50099999868,
      "d": 55.146999999997206,
      "v": 127
    },
    {
      "midi": 91,
      "hit": false,
      "t": 109411.64799999868,
      "d": 55.146999999997206,
      "v": 127
    },
    {
      "midi": 76,
      "hit": false,
      "t": 109411.64799999868,
      "d": 220.58799999998882,
      "v": 127
    },
    {
      "midi": 88,
      "hit": false,
      "t": 109411.64799999868,
      "d": 220.58799999998882,
      "v": 127
    },
    {
      "midi": 43,
      "hit": false,
      "t": 109411.64800000106,
      "d": 220.58800000000338,
      "v": 127
    },
    {
      "midi": 60,
      "hit": false,
      "t": 109411.64800000106,
      "d": 220.58800000000338,
      "v": 127
    },
    {
      "midi": 64,
      "hit": false,
      "t": 109411.64800000106,
      "d": 220.58800000000338,
      "v": 127
    },
    {
      "midi": 67,
      "hit": false,
      "t": 109411.64800000106,
      "d": 220.58800000000338,
      "v": 127
    },
    {
      "midi": 93,
      "hit": false,
      "t": 109466.79499999867,
      "d": 55.146999999997206,
      "v": 127
    },
    {
      "midi": 91,
      "hit": false,
      "t": 109521.94199999867,
      "d": 55.146999999997206,
      "v": 126
    },
    {
      "midi": 93,
      "hit": false,
      "t": 109577.08899999867,
      "d": 55.146999999997206,
      "v": 127
    },
    {
      "midi": 79,
      "hit": false,
      "t": 109632.23599999867,
      "d": 220.58799999998882,
      "v": 127
    },
    {
      "midi": 60,
      "hit": false,
      "t": 109632.23600000107,
      "d": 220.58800000000338,
      "v": 127
    },
    {
      "midi": 64,
      "hit": false,
      "t": 109632.23600000107,
      "d": 220.58800000000338,
      "v": 127
    },
    {
      "midi": 67,
      "hit": false,
      "t": 109632.23600000107,
      "d": 220.58800000000338,
      "v": 127
    },
    {
      "midi": 93,
      "hit": false,
      "t": 109687.38299999866,
      "d": 55.146999999997206,
      "v": 127
    },
    {
      "midi": 91,
      "hit": false,
      "t": 109742.52999999866,
      "d": 55.146999999997206,
      "v": 127
    },
    {
      "midi": 93,
      "hit": false,
      "t": 109797.67699999866,
      "d": 55.146999999997206,
      "v": 127
    },
    {
      "midi": 72,
      "hit": false,
      "t": 109852.82399999865,
      "d": 441.17600000000675,
      "v": 127
    },
    {
      "midi": 77,
      "hit": false,
      "t": 109852.82399999865,
      "d": 441.17600000000675,
      "v": 127
    },
    {
      "midi": 84,
      "hit": false,
      "t": 109852.82399999865,
      "d": 441.17600000000675,
      "v": 127
    },
    {
      "midi": 89,
      "hit": false,
      "t": 109852.82399999865,
      "d": 441.17600000000675,
      "v": 127
    },
    {
      "midi": 41,
      "hit": false,
      "t": 109852.82400000107,
      "d": 441.17600000000675,
      "v": 127
    },
    {
      "midi": 57,
      "hit": false,
      "t": 109852.82400000107,
      "d": 441.17600000000675,
      "v": 127
    },
    {
      "midi": 60,
      "hit": false,
      "t": 109852.82400000107,
      "d": 441.17600000000675,
      "v": 127
    },
    {
      "midi": 65,
      "hit": false,
      "t": 109852.82400000107,
      "d": 441.17600000000675,
      "v": 127
    },
    {
      "midi": 77,
      "hit": false,
      "t": 110293.99999999866,
      "d": 220.58800000000338,
      "v": 127
    },
    {
      "midi": 77,
      "hit": false,
      "t": 110514.58799999866,
      "d": 220.58800000000338,
      "v": 127
    },
    {
      "midi": 77,
      "hit": false,
      "t": 110735.17599999867,
      "d": 220.58800000000338,
      "v": 127
    },
    {
      "midi": 77,
      "hit": false,
      "t": 110955.76399999867,
      "d": 220.58800000000338,
      "v": 127
    },
    {
      "midi": 77,
      "hit": false,
      "t": 111176.35199999867,
      "d": 220.58800000000338,
      "v": 127
    },
    {
      "midi": 69,
      "hit": false,
      "t": 111176.35200000108,
      "d": 220.58800000000338,
      "v": 125
    },
    {
      "midi": 77,
      "hit": false,
      "t": 111396.93999999868,
      "d": 220.58800000000338,
      "v": 127
    },
    {
      "midi": 69,
      "hit": false,
      "t": 111396.94000000108,
      "d": 220.58800000000338,
      "v": 127
    },
    {
      "midi": 84,
      "hit": false,
      "t": 111617.52799999868,
      "d": 441.17600000000675,
      "v": 127
    },
    {
      "midi": 69,
      "hit": false,
      "t": 111617.52800000108,
      "d": 220.58800000000338,
      "v": 127
    },
    {
      "midi": 69,
      "hit": false,
      "t": 111838.11600000109,
      "d": 220.58800000000338,
      "v": 127
    },
    {
      "midi": 77,
      "hit": false,
      "t": 112058.70399999869,
      "d": 220.58800000000338,
      "v": 127
    },
    {
      "midi": 69,
      "hit": false,
      "t": 112058.70400000109,
      "d": 220.58800000000338,
      "v": 127
    },
    {
      "midi": 77,
      "hit": false,
      "t": 112279.29199999869,
      "d": 220.58800000000338,
      "v": 127
    },
    {
      "midi": 69,
      "hit": false,
      "t": 112279.29200000109,
      "d": 220.58800000000338,
      "v": 127
    },
    {
      "midi": 77,
      "hit": false,
      "t": 112499.8799999987,
      "d": 220.58800000000338,
      "v": 127
    },
    {
      "midi": 76,
      "hit": false,
      "t": 112499.8800000011,
      "d": 441.17600000000675,
      "v": 127
    },
    {
      "midi": 77,
      "hit": false,
      "t": 112720.4679999987,
      "d": 220.58800000000338,
      "v": 127
    },
    {
      "midi": 77,
      "hit": false,
      "t": 112941.0559999987,
      "d": 220.58800000000338,
      "v": 127
    },
    {
      "midi": 69,
      "hit": false,
      "t": 112941.0560000011,
      "d": 220.58800000000338,
      "v": 127
    },
    {
      "midi": 77,
      "hit": false,
      "t": 113161.6439999987,
      "d": 220.58800000000338,
      "v": 127
    },
    {
      "midi": 69,
      "hit": false,
      "t": 113161.6440000011,
      "d": 220.58800000000338,
      "v": 127
    },
    {
      "midi": 69,
      "hit": false,
      "t": 113382.23199999871,
      "d": 220.58800000000338,
      "v": 127
    },
    {
      "midi": 84,
      "hit": false,
      "t": 113382.23199999871,
      "d": 441.17600000000675,
      "v": 127
    },
    {
      "midi": 69,
      "hit": false,
      "t": 113382.23200000111,
      "d": 220.58800000000338,
      "v": 127
    },
    {
      "midi": 69,
      "hit": false,
      "t": 113602.81999999871,
      "d": 220.58800000000338,
      "v": 127
    },
    {
      "midi": 69,
      "hit": false,
      "t": 113602.82000000111,
      "d": 220.58800000000338,
      "v": 127
    },
    {
      "midi": 77,
      "hit": false,
      "t": 113823.40799999872,
      "d": 220.58800000000338,
      "v": 127
    },
    {
      "midi": 76,
      "hit": false,
      "t": 113823.40799999872,
      "d": 441.17600000000675,
      "v": 127
    },
    {
      "midi": 69,
      "hit": false,
      "t": 113823.40800000112,
      "d": 220.58800000000338,
      "v": 127
    },
    {
      "midi": 77,
      "hit": false,
      "t": 114043.99599999872,
      "d": 220.58800000000338,
      "v": 127
    },
    {
      "midi": 67,
      "hit": false,
      "t": 114043.99600000112,
      "d": 220.58800000000338,
      "v": 127
    },
    {
      "midi": 69,
      "hit": false,
      "t": 114264.58399999872,
      "d": 220.58800000000338,
      "v": 127
    },
    {
      "midi": 84,
      "hit": false,
      "t": 114264.58399999872,
      "d": 441.17600000000675,
      "v": 127
    },
    {
      "midi": 65,
      "hit": false,
      "t": 114264.58400000112,
      "d": 220.58800000000338,
      "v": 127
    },
    {
      "midi": 69,
      "hit": false,
      "t": 114485.17199999873,
      "d": 220.58800000000338,
      "v": 127
    },
    {
      "midi": 64,
      "hit": false,
      "t": 114485.17200000113,
      "d": 220.58800000000338,
      "v": 127
    },
    {
      "midi": 77,
      "hit": false,
      "t": 114705.75999999873,
      "d": 220.58800000000338,
      "v": 127
    },
    {
      "midi": 76,
      "hit": false,
      "t": 114705.75999999873,
      "d": 441.17600000000675,
      "v": 127
    },
    {
      "midi": 62,
      "hit": false,
      "t": 114705.76000000113,
      "d": 220.58800000000338,
      "v": 127
    },
    {
      "midi": 77,
      "hit": false,
      "t": 114926.34799999873,
      "d": 220.58800000000338,
      "v": 127
    },
    {
      "midi": 60,
      "hit": false,
      "t": 114926.34800000113,
      "d": 220.58800000000338,
      "v": 127
    },
    {
      "midi": 69,
      "hit": false,
      "t": 115146.93599999874,
      "d": 220.58800000000338,
      "v": 127
    },
    {
      "midi": 84,
      "hit": false,
      "t": 115146.93599999874,
      "d": 441.17600000000675,
      "v": 127
    },
    {
      "midi": 59,
      "hit": false,
      "t": 115146.93600000114,
      "d": 220.58800000000338,
      "v": 127
    },
    {
      "midi": 69,
      "hit": false,
      "t": 115367.52399999874,
      "d": 220.58800000000338,
      "v": 127
    },
    {
      "midi": 57,
      "hit": false,
      "t": 115367.52400000114,
      "d": 220.58800000000338,
      "v": 127
    },
    {
      "midi": 77,
      "hit": false,
      "t": 115588.11199999874,
      "d": 220.58800000000338,
      "v": 127
    },
    {
      "midi": 76,
      "hit": false,
      "t": 115588.11199999874,
      "d": 441.17600000000675,
      "v": 127
    },
    {
      "midi": 55,
      "hit": false,
      "t": 115588.11200000114,
      "d": 220.58800000000338,
      "v": 127
    },
    {
      "midi": 77,
      "hit": false,
      "t": 115808.69999999875,
      "d": 220.58800000000338,
      "v": 127
    },
    {
      "midi": 53,
      "hit": false,
      "t": 115808.70000000115,
      "d": 220.58800000000338,
      "v": 127
    },
    {
      "midi": 84,
      "hit": false,
      "t": 116029.28799999875,
      "d": 441.17600000000675,
      "v": 127
    },
    {
      "midi": 51,
      "hit": false,
      "t": 116029.28800000115,
      "d": 220.58800000000338,
      "v": 127
    },
    {
      "midi": 50,
      "hit": false,
      "t": 116249.87600000115,
      "d": 220.58800000000338,
      "v": 127
    },
    {
      "midi": 78,
      "hit": false,
      "t": 116470.46399999876,
      "d": 220.58800000000338,
      "v": 127
    },
    {
      "midi": 48,
      "hit": false,
      "t": 116470.46400000116,
      "d": 220.58800000000338,
      "v": 127
    },
    {
      "midi": 78,
      "hit": false,
      "t": 116691.05199999876,
      "d": 220.58800000000338,
      "v": 127
    },
    {
      "midi": 45,
      "hit": false,
      "t": 116691.05200000116,
      "d": 220.58800000000338,
      "v": 127
    },
    {
      "midi": 77,
      "hit": false,
      "t": 116911.63999999876,
      "d": 441.17600000000675,
      "v": 127
    },
    {
      "midi": 79,
      "hit": false,
      "t": 116911.63999999876,
      "d": 441.17600000000675,
      "v": 127
    },
    {
      "midi": 47,
      "hit": false,
      "t": 116911.64000000116,
      "d": 441.17600000000675,
      "v": 127
    },
    {
      "midi": 50,
      "hit": false,
      "t": 116911.64000000116,
      "d": 441.17600000000675,
      "v": 127
    },
    {
      "midi": 55,
      "hit": false,
      "t": 116911.64000000116,
      "d": 441.17600000000675,
      "v": 127
    },
    {
      "midi": 67,
      "hit": false,
      "t": 117352.81599999877,
      "d": 220.58800000000338,
      "v": 126
    },
    {
      "midi": 67,
      "hit": false,
      "t": 117573.40399999877,
      "d": 220.58800000000338,
      "v": 127
    },
    {
      "midi": 67,
      "hit": false,
      "t": 117793.99199999878,
      "d": 220.58800000000338,
      "v": 127
    },
    {
      "midi": 67,
      "hit": false,
      "t": 118014.57999999878,
      "d": 220.58800000000338,
      "v": 127
    },
    {
      "midi": 67,
      "hit": false,
      "t": 118235.16799999878,
      "d": 220.58800000000338,
      "v": 127
    },
    {
      "midi": 59,
      "hit": false,
      "t": 118235.16800000117,
      "d": 220.58800000000338,
      "v": 127
    },
    {
      "midi": 67,
      "hit": false,
      "t": 118455.75599999879,
      "d": 220.58800000000338,
      "v": 127
    },
    {
      "midi": 59,
      "hit": false,
      "t": 118455.75600000117,
      "d": 220.58800000000338,
      "v": 127
    },
    {
      "midi": 74,
      "hit": false,
      "t": 118676.34399999879,
      "d": 441.17600000000675,
      "v": 127
    },
    {
      "midi": 59,
      "hit": false,
      "t": 118676.34400000118,
      "d": 220.58800000000338,
      "v": 127
    },
    {
      "midi": 59,
      "hit": false,
      "t": 118896.9319999988,
      "d": 220.58800000000338,
      "v": 127
    },
    {
      "midi": 59,
      "hit": false,
      "t": 118896.93200000118,
      "d": 220.58800000000338,
      "v": 127
    },
    {
      "midi": 67,
      "hit": false,
      "t": 119117.5199999988,
      "d": 220.58800000000338,
      "v": 127
    },
    {
      "midi": 65,
      "hit": false,
      "t": 119117.5199999988,
      "d": 441.17600000000675,
      "v": 127
    },
    {
      "midi": 59,
      "hit": false,
      "t": 119117.52000000118,
      "d": 220.58800000000338,
      "v": 127
    },
    {
      "midi": 67,
      "hit": false,
      "t": 119338.1079999988,
      "d": 220.58800000000338,
      "v": 127
    },
    {
      "midi": 59,
      "hit": false,
      "t": 119338.10800000119,
      "d": 220.58800000000338,
      "v": 127
    },
    {
      "midi": 59,
      "hit": false,
      "t": 119558.6959999988,
      "d": 220.58800000000338,
      "v": 127
    },
    {
      "midi": 67,
      "hit": false,
      "t": 119558.6959999988,
      "d": 220.58800000000338,
      "v": 127
    },
    {
      "midi": 65,
      "hit": false,
      "t": 119558.69600000119,
      "d": 441.17600000000675,
      "v": 127
    },
    {
      "midi": 59,
      "hit": false,
      "t": 119779.2839999988,
      "d": 220.58800000000338,
      "v": 127
    },
    {
      "midi": 67,
      "hit": false,
      "t": 119779.2839999988,
      "d": 220.58800000000338,
      "v": 127
    },
    {
      "midi": 67,
      "hit": false,
      "t": 119999.87199999881,
      "d": 220.58800000000338,
      "v": 127
    },
    {
      "midi": 65,
      "hit": false,
      "t": 119999.87199999881,
      "d": 441.17600000000675,
      "v": 127
    },
    {
      "midi": 59,
      "hit": false,
      "t": 119999.8720000012,
      "d": 220.58800000000338,
      "v": 127
    },
    {
      "midi": 67,
      "hit": false,
      "t": 120220.45999999881,
      "d": 220.58800000000338,
      "v": 127
    },
    {
      "midi": 59,
      "hit": false,
      "t": 120220.4600000012,
      "d": 220.58800000000338,
      "v": 127
    },
    {
      "midi": 59,
      "hit": false,
      "t": 120441.04799999882,
      "d": 220.58800000000338,
      "v": 127
    },
    {
      "midi": 74,
      "hit": false,
      "t": 120441.04799999882,
      "d": 441.17600000000675,
      "v": 127
    },
    {
      "midi": 59,
      "hit": false,
      "t": 120441.0480000012,
      "d": 220.58800000000338,
      "v": 127
    },
    {
      "midi": 59,
      "hit": false,
      "t": 120661.63599999882,
      "d": 220.58800000000338,
      "v": 127
    },
    {
      "midi": 59,
      "hit": false,
      "t": 120661.6360000012,
      "d": 220.58800000000338,
      "v": 127
    },
    {
      "midi": 67,
      "hit": false,
      "t": 120882.22399999882,
      "d": 220.58800000000338,
      "v": 127
    },
    {
      "midi": 65,
      "hit": false,
      "t": 120882.22399999882,
      "d": 441.17600000000675,
      "v": 127
    },
    {
      "midi": 31,
      "hit": false,
      "t": 120882.22400000121,
      "d": 110.29399999999441,
      "v": 127
    },
    {
      "midi": 43,
      "hit": false,
      "t": 120882.22400000121,
      "d": 110.29399999999441,
      "v": 127
    },
    {
      "midi": 67,
      "hit": false,
      "t": 121102.81199999883,
      "d": 220.58800000000338,
      "v": 127
    },
    {
      "midi": 33,
      "hit": false,
      "t": 121102.8120000012,
      "d": 110.29399999999441,
      "v": 127
    },
    {
      "midi": 45,
      "hit": false,
      "t": 121102.8120000012,
      "d": 110.29399999999441,
      "v": 127
    },
    {
      "midi": 59,
      "hit": false,
      "t": 121323.39999999883,
      "d": 220.58800000000338,
      "v": 127
    },
    {
      "midi": 74,
      "hit": false,
      "t": 121323.39999999883,
      "d": 441.17600000000675,
      "v": 127
    },
    {
      "midi": 35,
      "hit": false,
      "t": 121323.40000000119,
      "d": 110.29399999999441,
      "v": 126
    },
    {
      "midi": 47,
      "hit": false,
      "t": 121323.40000000119,
      "d": 110.29399999999441,
      "v": 124
    },
    {
      "midi": 59,
      "hit": false,
      "t": 121543.98799999883,
      "d": 220.58800000000338,
      "v": 127
    },
    {
      "midi": 36,
      "hit": false,
      "t": 121543.98800000118,
      "d": 110.29399999999441,
      "v": 126
    },
    {
      "midi": 48,
      "hit": false,
      "t": 121543.98800000118,
      "d": 110.29399999999441,
      "v": 123
    },
    {
      "midi": 67,
      "hit": false,
      "t": 121764.57599999884,
      "d": 220.58800000000338,
      "v": 127
    },
    {
      "midi": 65,
      "hit": false,
      "t": 121764.57599999884,
      "d": 441.17600000000675,
      "v": 127
    },
    {
      "midi": 38,
      "hit": false,
      "t": 121764.57600000117,
      "d": 110.29399999999441,
      "v": 127
    },
    {
      "midi": 50,
      "hit": false,
      "t": 121764.57600000117,
      "d": 110.29399999999441,
      "v": 127
    },
    {
      "midi": 67,
      "hit": false,
      "t": 121985.16399999884,
      "d": 220.58800000000338,
      "v": 127
    },
    {
      "midi": 40,
      "hit": false,
      "t": 121985.16400000115,
      "d": 110.29399999999441,
      "v": 127
    },
    {
      "midi": 52,
      "hit": false,
      "t": 121985.16400000115,
      "d": 110.29399999999441,
      "v": 125
    },
    {
      "midi": 74,
      "hit": false,
      "t": 122205.75199999884,
      "d": 441.17600000000675,
      "v": 127
    },
    {
      "midi": 41,
      "hit": false,
      "t": 122205.75200000114,
      "d": 110.29399999999441,
      "v": 127
    },
    {
      "midi": 53,
      "hit": false,
      "t": 122205.75200000114,
      "d": 110.29399999999441,
      "v": 125
    },
    {
      "midi": 43,
      "hit": false,
      "t": 122426.34000000113,
      "d": 110.29399999999441,
      "v": 127
    },
    {
      "midi": 55,
      "hit": false,
      "t": 122426.34000000113,
      "d": 110.29399999999441,
      "v": 126
    },
    {
      "midi": 67,
      "hit": false,
      "t": 122646.92799999885,
      "d": 220.58800000000338,
      "v": 127
    },
    {
      "midi": 45,
      "hit": false,
      "t": 122646.92800000112,
      "d": 110.29399999999441,
      "v": 126
    },
    {
      "midi": 57,
      "hit": false,
      "t": 122646.92800000112,
      "d": 110.29399999999441,
      "v": 123
    },
    {
      "midi": 67,
      "hit": false,
      "t": 122867.51599999885,
      "d": 220.58800000000338,
      "v": 127
    },
    {
      "midi": 47,
      "hit": false,
      "t": 122867.51600000111,
      "d": 110.29399999999441,
      "v": 126
    },
    {
      "midi": 59,
      "hit": false,
      "t": 122867.51600000111,
      "d": 110.29399999999441,
      "v": 125
    },
    {
      "midi": 74,
      "hit": false,
      "t": 123088.10399999886,
      "d": 441.17600000000675,
      "v": 127
    },
    {
      "midi": 48,
      "hit": false,
      "t": 123088.1040000011,
      "d": 110.29399999999441,
      "v": 127
    },
    {
      "midi": 60,
      "hit": false,
      "t": 123088.1040000011,
      "d": 110.29399999999441,
      "v": 127
    },
    {
      "midi": 49,
      "hit": false,
      "t": 123308.69200000109,
      "d": 110.29399999999441,
      "v": 127
    },
    {
      "midi": 61,
      "hit": false,
      "t": 123308.69200000109,
      "d": 110.29399999999441,
      "v": 127
    },
    {
      "midi": 67,
      "hit": false,
      "t": 123529.27999999886,
      "d": 220.58800000000338,
      "v": 127
    },
    {
      "midi": 50,
      "hit": false,
      "t": 123529.28000000108,
      "d": 110.29399999999441,
      "v": 127
    },
    {
      "midi": 62,
      "hit": false,
      "t": 123529.28000000108,
      "d": 110.29399999999441,
      "v": 127
    },
    {
      "midi": 67,
      "hit": false,
      "t": 123749.86799999887,
      "d": 220.58800000000338,
      "v": 127
    },
    {
      "midi": 55,
      "hit": false,
      "t": 123749.86800000106,
      "d": 110.29399999999441,
      "v": 127
    },
    {
      "midi": 67,
      "hit": false,
      "t": 123749.86800000106,
      "d": 110.29399999999441,
      "v": 127
    },
    {
      "midi": 70,
      "hit": false,
      "t": 123970.45599999887,
      "d": 220.58800000000338,
      "v": 125
    },
    {
      "midi": 72,
      "hit": false,
      "t": 123970.45599999887,
      "d": 220.58800000000338,
      "v": 127
    },
    {
      "midi": 76,
      "hit": false,
      "t": 123970.45599999887,
      "d": 220.58800000000338,
      "v": 119
    },
    {
      "midi": 46,
      "hit": false,
      "t": 123970.45600000105,
      "d": 220.58800000000338,
      "v": 127
    },
    {
      "midi": 52,
      "hit": false,
      "t": 123970.45600000105,
      "d": 220.58800000000338,
      "v": 127
    },
    {
      "midi": 55,
      "hit": false,
      "t": 123970.45600000105,
      "d": 220.58800000000338,
      "v": 127
    },
    {
      "midi": 34,
      "hit": false,
      "t": 124191.04400000106,
      "d": 110.29399999999441,
      "v": 127
    },
    {
      "midi": 46,
      "hit": false,
      "t": 124191.04400000106,
      "d": 110.29399999999441,
      "v": 127
    },
    {
      "midi": 66,
      "hit": false,
      "t": 124301.33799999887,
      "d": 110.29399999999441,
      "v": 127
    },
    {
      "midi": 60,
      "hit": false,
      "t": 124411.63199999886,
      "d": 220.58800000000338,
      "v": 127
    },
    {
      "midi": 64,
      "hit": false,
      "t": 124411.63199999886,
      "d": 220.58800000000338,
      "v": 127
    },
    {
      "midi": 67,
      "hit": false,
      "t": 124411.63199999886,
      "d": 220.58800000000338,
      "v": 127
    },
    {
      "midi": 34,
      "hit": false,
      "t": 124411.63200000105,
      "d": 110.29399999999441,
      "v": 127
    },
    {
      "midi": 46,
      "hit": false,
      "t": 124411.63200000105,
      "d": 110.29399999999441,
      "v": 127
    },
    {
      "midi": 34,
      "hit": false,
      "t": 124632.22000000103,
      "d": 110.29399999999441,
      "v": 124
    },
    {
      "midi": 46,
      "hit": false,
      "t": 124632.22000000103,
      "d": 110.29399999999441,
      "v": 127
    },
    {
      "midi": 71,
      "hit": false,
      "t": 124742.51399999886,
      "d": 110.29399999999441,
      "v": 127
    },
    {
      "midi": 64,
      "hit": false,
      "t": 124852.80799999885,
      "d": 220.58800000000338,
      "v": 127
    },
    {
      "midi": 67,
      "hit": false,
      "t": 124852.80799999885,
      "d": 220.58800000000338,
      "v": 126
    },
    {
      "midi": 72,
      "hit": false,
      "t": 124852.80799999885,
      "d": 220.58800000000338,
      "v": 127
    },
    {
      "midi": 34,
      "hit": false,
      "t": 124852.80800000102,
      "d": 110.29399999999441,
      "v": 127
    },
    {
      "midi": 46,
      "hit": false,
      "t": 124852.80800000102,
      "d": 110.29399999999441,
      "v": 127
    },
    {
      "midi": 34,
      "hit": false,
      "t": 125073.39600000101,
      "d": 110.29399999999441,
      "v": 126
    },
    {
      "midi": 46,
      "hit": false,
      "t": 125073.39600000101,
      "d": 110.29399999999441,
      "v": 127
    },
    {
      "midi": 75,
      "hit": false,
      "t": 125183.68999999885,
      "d": 110.29399999999441,
      "v": 127
    },
    {
      "midi": 67,
      "hit": false,
      "t": 125293.98399999885,
      "d": 220.58800000000338,
      "v": 127
    },
    {
      "midi": 72,
      "hit": false,
      "t": 125293.98399999885,
      "d": 220.58800000000338,
      "v": 127
    },
    {
      "midi": 76,
      "hit": false,
      "t": 125293.98399999885,
      "d": 220.58800000000338,
      "v": 127
    },
    {
      "midi": 34,
      "hit": false,
      "t": 125293.984000001,
      "d": 110.29399999999441,
      "v": 125
    },
    {
      "midi": 46,
      "hit": false,
      "t": 125293.984000001,
      "d": 110.29399999999441,
      "v": 127
    },
    {
      "midi": 34,
      "hit": false,
      "t": 125514.57200000099,
      "d": 110.29399999999441,
      "v": 127
    },
    {
      "midi": 46,
      "hit": false,
      "t": 125514.57200000099,
      "d": 110.29399999999441,
      "v": 127
    },
    {
      "midi": 78,
      "hit": false,
      "t": 125624.86599999884,
      "d": 110.29399999999441,
      "v": 127
    },
    {
      "midi": 72,
      "hit": false,
      "t": 125735.15999999884,
      "d": 220.58800000000338,
      "v": 122
    },
    {
      "midi": 76,
      "hit": false,
      "t": 125735.15999999884,
      "d": 220.58800000000338,
      "v": 127
    },
    {
      "midi": 79,
      "hit": false,
      "t": 125735.15999999884,
      "d": 220.58800000000338,
      "v": 127
    },
    {
      "midi": 34,
      "hit": false,
      "t": 125735.16000000098,
      "d": 110.29399999999441,
      "v": 127
    },
    {
      "midi": 46,
      "hit": false,
      "t": 125735.16000000098,
      "d": 110.29399999999441,
      "v": 127
    },
    {
      "midi": 34,
      "hit": false,
      "t": 125955.74800000097,
      "d": 110.29399999999441,
      "v": 127
    },
    {
      "midi": 46,
      "hit": false,
      "t": 125955.74800000097,
      "d": 110.29399999999441,
      "v": 127
    },
    {
      "midi": 83,
      "hit": false,
      "t": 126066.04199999884,
      "d": 110.29399999999441,
      "v": 127
    },
    {
      "midi": 76,
      "hit": false,
      "t": 126176.33599999883,
      "d": 220.58800000000338,
      "v": 123
    },
    {
      "midi": 79,
      "hit": false,
      "t": 126176.33599999883,
      "d": 220.58800000000338,
      "v": 127
    },
    {
      "midi": 84,
      "hit": false,
      "t": 126176.33599999883,
      "d": 220.58800000000338,
      "v": 127
    },
    {
      "midi": 34,
      "hit": false,
      "t": 126176.33600000096,
      "d": 110.29399999999441,
      "v": 127
    },
    {
      "midi": 46,
      "hit": false,
      "t": 126176.33600000096,
      "d": 110.29399999999441,
      "v": 127
    },
    {
      "midi": 34,
      "hit": false,
      "t": 126396.92400000094,
      "d": 110.29399999999441,
      "v": 126
    },
    {
      "midi": 46,
      "hit": false,
      "t": 126396.92400000094,
      "d": 110.29399999999441,
      "v": 127
    },
    {
      "midi": 87,
      "hit": false,
      "t": 126507.21799999883,
      "d": 110.29399999999441,
      "v": 127
    },
    {
      "midi": 79,
      "hit": false,
      "t": 126617.51199999882,
      "d": 220.58800000000338,
      "v": 124
    },
    {
      "midi": 84,
      "hit": false,
      "t": 126617.51199999882,
      "d": 220.58800000000338,
      "v": 127
    },
    {
      "midi": 88,
      "hit": false,
      "t": 126617.51199999882,
      "d": 220.58800000000338,
      "v": 127
    },
    {
      "midi": 34,
      "hit": false,
      "t": 126617.51200000093,
      "d": 110.29399999999441,
      "v": 127
    },
    {
      "midi": 46,
      "hit": false,
      "t": 126617.51200000093,
      "d": 110.29399999999441,
      "v": 127
    },
    {
      "midi": 34,
      "hit": false,
      "t": 126838.10000000092,
      "d": 110.29399999999441,
      "v": 127
    },
    {
      "midi": 46,
      "hit": false,
      "t": 126838.10000000092,
      "d": 110.29399999999441,
      "v": 127
    },
    {
      "midi": 90,
      "hit": false,
      "t": 126948.39399999882,
      "d": 110.29399999999441,
      "v": 127
    },
    {
      "midi": 84,
      "hit": false,
      "t": 127058.68799999882,
      "d": 220.58800000000338,
      "v": 127
    },
    {
      "midi": 88,
      "hit": false,
      "t": 127058.68799999882,
      "d": 220.58800000000338,
      "v": 127
    },
    {
      "midi": 91,
      "hit": false,
      "t": 127058.68799999882,
      "d": 220.58800000000338,
      "v": 127
    },
    {
      "midi": 34,
      "hit": false,
      "t": 127058.68800000091,
      "d": 110.29399999999441,
      "v": 127
    },
    {
      "midi": 46,
      "hit": false,
      "t": 127058.68800000091,
      "d": 110.29399999999441,
      "v": 127
    },
    {
      "midi": 34,
      "hit": false,
      "t": 127279.2760000009,
      "d": 110.29399999999441,
      "v": 127
    },
    {
      "midi": 46,
      "hit": false,
      "t": 127279.2760000009,
      "d": 110.29399999999441,
      "v": 127
    },
    {
      "midi": 90,
      "hit": false,
      "t": 127389.56999999881,
      "d": 110.29399999999441,
      "v": 127
    },
    {
      "midi": 83,
      "hit": false,
      "t": 127499.86399999881,
      "d": 220.58800000000338,
      "v": 126
    },
    {
      "midi": 88,
      "hit": false,
      "t": 127499.86399999881,
      "d": 220.58800000000338,
      "v": 127
    },
    {
      "midi": 91,
      "hit": false,
      "t": 127499.86399999881,
      "d": 220.58800000000338,
      "v": 127
    },
    {
      "midi": 35,
      "hit": false,
      "t": 127499.86400000089,
      "d": 110.29399999999441,
      "v": 127
    },
    {
      "midi": 47,
      "hit": false,
      "t": 127499.86400000089,
      "d": 110.29399999999441,
      "v": 127
    },
    {
      "midi": 35,
      "hit": false,
      "t": 127720.45200000088,
      "d": 110.29399999999441,
      "v": 127
    },
    {
      "midi": 47,
      "hit": false,
      "t": 127720.45200000088,
      "d": 110.29399999999441,
      "v": 127
    },
    {
      "midi": 70,
      "hit": false,
      "t": 127830.7459999988,
      "d": 110.29399999999441,
      "v": 127
    },
    {
      "midi": 64,
      "hit": false,
      "t": 127941.0399999988,
      "d": 220.58800000000338,
      "v": 125
    },
    {
      "midi": 67,
      "hit": false,
      "t": 127941.0399999988,
      "d": 220.58800000000338,
      "v": 126
    },
    {
      "midi": 71,
      "hit": false,
      "t": 127941.0399999988,
      "d": 220.58800000000338,
      "v": 127
    },
    {
      "midi": 35,
      "hit": false,
      "t": 127941.04000000087,
      "d": 110.29399999999441,
      "v": 127
    },
    {
      "midi": 47,
      "hit": false,
      "t": 127941.04000000087,
      "d": 110.29399999999441,
      "v": 127
    },
    {
      "midi": 35,
      "hit": false,
      "t": 128161.62800000086,
      "d": 110.29399999999441,
      "v": 127
    },
    {
      "midi": 47,
      "hit": false,
      "t": 128161.62800000086,
      "d": 110.29399999999441,
      "v": 127
    },
    {
      "midi": 75,
      "hit": false,
      "t": 128271.9219999988,
      "d": 110.29399999999441,
      "v": 127
    },
    {
      "midi": 67,
      "hit": false,
      "t": 128382.21599999879,
      "d": 220.58800000000338,
      "v": 127
    },
    {
      "midi": 71,
      "hit": false,
      "t": 128382.21599999879,
      "d": 220.58800000000338,
      "v": 127
    },
    {
      "midi": 76,
      "hit": false,
      "t": 128382.21599999879,
      "d": 220.58800000000338,
      "v": 127
    },
    {
      "midi": 35,
      "hit": false,
      "t": 128382.21600000084,
      "d": 110.29399999999441,
      "v": 125
    },
    {
      "midi": 47,
      "hit": false,
      "t": 128382.21600000084,
      "d": 110.29399999999441,
      "v": 127
    },
    {
      "midi": 35,
      "hit": false,
      "t": 128602.80400000083,
      "d": 110.29399999999441,
      "v": 127
    },
    {
      "midi": 47,
      "hit": false,
      "t": 128602.80400000083,
      "d": 110.29399999999441,
      "v": 127
    },
    {
      "midi": 78,
      "hit": false,
      "t": 128713.09799999879,
      "d": 110.29399999999441,
      "v": 127
    },
    {
      "midi": 71,
      "hit": false,
      "t": 128823.39199999878,
      "d": 220.58800000000338,
      "v": 127
    },
    {
      "midi": 76,
      "hit": false,
      "t": 128823.39199999878,
      "d": 220.58800000000338,
      "v": 127
    },
    {
      "midi": 79,
      "hit": false,
      "t": 128823.39199999878,
      "d": 220.58800000000338,
      "v": 127
    },
    {
      "midi": 35,
      "hit": false,
      "t": 128823.39200000082,
      "d": 110.29399999999441,
      "v": 127
    },
    {
      "midi": 47,
      "hit": false,
      "t": 128823.39200000082,
      "d": 110.29399999999441,
      "v": 127
    },
    {
      "midi": 35,
      "hit": false,
      "t": 129043.98000000081,
      "d": 110.29399999999441,
      "v": 127
    },
    {
      "midi": 47,
      "hit": false,
      "t": 129043.98000000081,
      "d": 110.29399999999441,
      "v": 127
    },
    {
      "midi": 83,
      "hit": false,
      "t": 129154.27399999878,
      "d": 110.29399999999441,
      "v": 127
    },
    {
      "midi": 76,
      "hit": false,
      "t": 129264.56799999878,
      "d": 220.58800000000338,
      "v": 127
    },
    {
      "midi": 79,
      "hit": false,
      "t": 129264.56799999878,
      "d": 220.58800000000338,
      "v": 127
    },
    {
      "midi": 83,
      "hit": false,
      "t": 129264.56799999878,
      "d": 220.58800000000338,
      "v": 127
    },
    {
      "midi": 35,
      "hit": false,
      "t": 129264.5680000008,
      "d": 110.29399999999441,
      "v": 127
    },
    {
      "midi": 47,
      "hit": false,
      "t": 129264.5680000008,
      "d": 110.29399999999441,
      "v": 127
    },
    {
      "midi": 35,
      "hit": false,
      "t": 129485.15600000079,
      "d": 110.29399999999441,
      "v": 127
    },
    {
      "midi": 47,
      "hit": false,
      "t": 129485.15600000079,
      "d": 110.29399999999441,
      "v": 127
    },
    {
      "midi": 85,
      "hit": false,
      "t": 129595.44999999877,
      "d": 110.29399999999441,
      "v": 127
    },
    {
      "midi": 79,
      "hit": false,
      "t": 129705.74399999877,
      "d": 220.58800000000338,
      "v": 127
    },
    {
      "midi": 83,
      "hit": false,
      "t": 129705.74399999877,
      "d": 220.58800000000338,
      "v": 127
    },
    {
      "midi": 88,
      "hit": false,
      "t": 129705.74399999877,
      "d": 220.58800000000338,
      "v": 127
    },
    {
      "midi": 35,
      "hit": false,
      "t": 129705.74400000078,
      "d": 110.29399999999441,
      "v": 127
    },
    {
      "midi": 47,
      "hit": false,
      "t": 129705.74400000078,
      "d": 110.29399999999441,
      "v": 127
    },
    {
      "midi": 35,
      "hit": false,
      "t": 129926.33200000077,
      "d": 110.29399999999441,
      "v": 127
    },
    {
      "midi": 47,
      "hit": false,
      "t": 129926.33200000077,
      "d": 110.29399999999441,
      "v": 127
    },
    {
      "midi": 90,
      "hit": false,
      "t": 130036.62599999877,
      "d": 110.29399999999441,
      "v": 127
    },
    {
      "midi": 83,
      "hit": false,
      "t": 130146.91999999876,
      "d": 220.58800000000338,
      "v": 121
    },
    {
      "midi": 88,
      "hit": false,
      "t": 130146.91999999876,
      "d": 220.58800000000338,
      "v": 127
    },
    {
      "midi": 91,
      "hit": false,
      "t": 130146.91999999876,
      "d": 220.58800000000338,
      "v": 127
    },
    {
      "midi": 35,
      "hit": false,
      "t": 130146.92000000075,
      "d": 110.29399999999441,
      "v": 127
    },
    {
      "midi": 47,
      "hit": false,
      "t": 130146.92000000075,
      "d": 110.29399999999441,
      "v": 127
    },
    {
      "midi": 35,
      "hit": false,
      "t": 130367.50800000074,
      "d": 110.29399999999441,
      "v": 127
    },
    {
      "midi": 47,
      "hit": false,
      "t": 130367.50800000074,
      "d": 110.29399999999441,
      "v": 127
    },
    {
      "midi": 94,
      "hit": false,
      "t": 130477.80199999876,
      "d": 110.29399999999441,
      "v": 127
    },
    {
      "midi": 88,
      "hit": false,
      "t": 130588.09599999875,
      "d": 220.58800000000338,
      "v": 127
    },
    {
      "midi": 91,
      "hit": false,
      "t": 130588.09599999875,
      "d": 220.58800000000338,
      "v": 127
    },
    {
      "midi": 95,
      "hit": false,
      "t": 130588.09599999875,
      "d": 220.58800000000338,
      "v": 127
    },
    {
      "midi": 35,
      "hit": false,
      "t": 130588.09600000073,
      "d": 110.29399999999441,
      "v": 126
    },
    {
      "midi": 47,
      "hit": false,
      "t": 130588.09600000073,
      "d": 110.29399999999441,
      "v": 127
    },
    {
      "midi": 35,
      "hit": false,
      "t": 130808.68400000072,
      "d": 110.29399999999441,
      "v": 127
    },
    {
      "midi": 47,
      "hit": false,
      "t": 130808.68400000072,
      "d": 110.29399999999441,
      "v": 127
    },
    {
      "midi": 93,
      "hit": false,
      "t": 130918.97799999875,
      "d": 110.29399999999441,
      "v": 127
    },
    {
      "midi": 88,
      "hit": false,
      "t": 131029.27199999875,
      "d": 220.58799999998882,
      "v": 127
    },
    {
      "midi": 91,
      "hit": false,
      "t": 131029.27199999875,
      "d": 220.58799999998882,
      "v": 127
    },
    {
      "midi": 94,
      "hit": false,
      "t": 131029.27199999875,
      "d": 220.58799999998882,
      "v": 127
    },
    {
      "midi": 36,
      "hit": false,
      "t": 131029.27200000071,
      "d": 110.29400000000896,
      "v": 127
    },
    {
      "midi": 48,
      "hit": false,
      "t": 131029.27200000071,
      "d": 110.29400000000896,
      "v": 127
    },
    {
      "midi": 36,
      "hit": false,
      "t": 131249.8600000007,
      "d": 110.29399999999441,
      "v": 127
    },
    {
      "midi": 48,
      "hit": false,
      "t": 131249.8600000007,
      "d": 110.29399999999441,
      "v": 127
    },
    {
      "midi": 69,
      "hit": false,
      "t": 131360.15399999873,
      "d": 110.29399999999441,
      "v": 127
    },
    {
      "midi": 64,
      "hit": false,
      "t": 131470.44799999872,
      "d": 220.58799999998882,
      "v": 127
    },
    {
      "midi": 67,
      "hit": false,
      "t": 131470.44799999872,
      "d": 220.58799999998882,
      "v": 127
    },
    {
      "midi": 70,
      "hit": false,
      "t": 131470.44799999872,
      "d": 220.58799999998882,
      "v": 127
    },
    {
      "midi": 36,
      "hit": false,
      "t": 131470.4480000007,
      "d": 110.29399999999441,
      "v": 127
    },
    {
      "midi": 48,
      "hit": false,
      "t": 131470.4480000007,
      "d": 110.29399999999441,
      "v": 127
    },
    {
      "midi": 36,
      "hit": false,
      "t": 131691.0360000007,
      "d": 110.29399999999441,
      "v": 127
    },
    {
      "midi": 48,
      "hit": false,
      "t": 131691.0360000007,
      "d": 110.29399999999441,
      "v": 127
    },
    {
      "midi": 75,
      "hit": false,
      "t": 131801.3299999987,
      "d": 110.29399999999441,
      "v": 127
    },
    {
      "midi": 67,
      "hit": false,
      "t": 131911.6239999987,
      "d": 220.58799999998882,
      "v": 127
    },
    {
      "midi": 70,
      "hit": false,
      "t": 131911.6239999987,
      "d": 220.58799999998882,
      "v": 127
    },
    {
      "midi": 76,
      "hit": false,
      "t": 131911.6239999987,
      "d": 220.58799999998882,
      "v": 127
    },
    {
      "midi": 36,
      "hit": false,
      "t": 131911.62400000068,
      "d": 110.29399999999441,
      "v": 127
    },
    {
      "midi": 48,
      "hit": false,
      "t": 131911.62400000068,
      "d": 110.29399999999441,
      "v": 127
    },
    {
      "midi": 36,
      "hit": false,
      "t": 132132.21200000067,
      "d": 110.29399999999441,
      "v": 127
    },
    {
      "midi": 48,
      "hit": false,
      "t": 132132.21200000067,
      "d": 110.29399999999441,
      "v": 127
    },
    {
      "midi": 78,
      "hit": false,
      "t": 132242.50599999868,
      "d": 110.29399999999441,
      "v": 127
    },
    {
      "midi": 70,
      "hit": false,
      "t": 132352.79999999868,
      "d": 220.58799999998882,
      "v": 127
    },
    {
      "midi": 76,
      "hit": false,
      "t": 132352.79999999868,
      "d": 220.58799999998882,
      "v": 127
    },
    {
      "midi": 79,
      "hit": false,
      "t": 132352.79999999868,
      "d": 220.58799999998882,
      "v": 127
    },
    {
      "midi": 36,
      "hit": false,
      "t": 132352.80000000066,
      "d": 110.29399999999441,
      "v": 127
    },
    {
      "midi": 48,
      "hit": false,
      "t": 132352.80000000066,
      "d": 110.29399999999441,
      "v": 127
    },
    {
      "midi": 36,
      "hit": false,
      "t": 132573.38800000065,
      "d": 110.29399999999441,
      "v": 127
    },
    {
      "midi": 48,
      "hit": false,
      "t": 132573.38800000065,
      "d": 110.29399999999441,
      "v": 127
    },
    {
      "midi": 81,
      "hit": false,
      "t": 132683.68199999866,
      "d": 110.29399999999441,
      "v": 127
    },
    {
      "midi": 76,
      "hit": false,
      "t": 132793.97599999866,
      "d": 220.58799999998882,
      "v": 127
    },
    {
      "midi": 79,
      "hit": false,
      "t": 132793.97599999866,
      "d": 220.58799999998882,
      "v": 127
    },
    {
      "midi": 82,
      "hit": false,
      "t": 132793.97599999866,
      "d": 220.58799999998882,
      "v": 127
    },
    {
      "midi": 37,
      "hit": false,
      "t": 132793.97600000064,
      "d": 110.29399999999441,
      "v": 127
    },
    {
      "midi": 49,
      "hit": false,
      "t": 132793.97600000064,
      "d": 110.29399999999441,
      "v": 127
    },
    {
      "midi": 37,
      "hit": false,
      "t": 133014.56400000062,
      "d": 110.29399999999441,
      "v": 127
    },
    {
      "midi": 49,
      "hit": false,
      "t": 133014.56400000062,
      "d": 110.29399999999441,
      "v": 127
    },
    {
      "midi": 87,
      "hit": false,
      "t": 133124.85799999864,
      "d": 110.29399999999441,
      "v": 127
    },
    {
      "midi": 79,
      "hit": false,
      "t": 133235.15199999863,
      "d": 220.58799999998882,
      "v": 125
    },
    {
      "midi": 82,
      "hit": false,
      "t": 133235.15199999863,
      "d": 220.58799999998882,
      "v": 127
    },
    {
      "midi": 88,
      "hit": false,
      "t": 133235.15199999863,
      "d": 220.58799999998882,
      "v": 127
    },
    {
      "midi": 37,
      "hit": false,
      "t": 133235.1520000006,
      "d": 110.29399999999441,
      "v": 127
    },
    {
      "midi": 49,
      "hit": false,
      "t": 133235.1520000006,
      "d": 110.29399999999441,
      "v": 127
    },
    {
      "midi": 37,
      "hit": false,
      "t": 133455.7400000006,
      "d": 110.29399999999441,
      "v": 127
    },
    {
      "midi": 49,
      "hit": false,
      "t": 133455.7400000006,
      "d": 110.29399999999441,
      "v": 127
    },
    {
      "midi": 90,
      "hit": false,
      "t": 133566.03399999862,
      "d": 110.29399999999441,
      "v": 127
    },
    {
      "midi": 82,
      "hit": false,
      "t": 133676.3279999986,
      "d": 220.58799999998882,
      "v": 127
    },
    {
      "midi": 88,
      "hit": false,
      "t": 133676.3279999986,
      "d": 220.58799999998882,
      "v": 127
    },
    {
      "midi": 91,
      "hit": false,
      "t": 133676.3279999986,
      "d": 220.58799999998882,
      "v": 127
    },
    {
      "midi": 37,
      "hit": false,
      "t": 133676.3280000006,
      "d": 110.29399999999441,
      "v": 127
    },
    {
      "midi": 49,
      "hit": false,
      "t": 133676.3280000006,
      "d": 110.29399999999441,
      "v": 127
    },
    {
      "midi": 37,
      "hit": false,
      "t": 133896.91600000058,
      "d": 110.29399999999441,
      "v": 127
    },
    {
      "midi": 49,
      "hit": false,
      "t": 133896.91600000058,
      "d": 110.29399999999441,
      "v": 127
    },
    {
      "midi": 94,
      "hit": false,
      "t": 134007.2099999986,
      "d": 110.29399999999441,
      "v": 127
    },
    {
      "midi": 88,
      "hit": false,
      "t": 134117.5039999986,
      "d": 220.58799999998882,
      "v": 127
    },
    {
      "midi": 91,
      "hit": false,
      "t": 134117.5039999986,
      "d": 220.58799999998882,
      "v": 127
    },
    {
      "midi": 95,
      "hit": false,
      "t": 134117.5039999986,
      "d": 220.58799999998882,
      "v": 127
    },
    {
      "midi": 37,
      "hit": false,
      "t": 134117.50400000057,
      "d": 110.29399999999441,
      "v": 127
    },
    {
      "midi": 49,
      "hit": false,
      "t": 134117.50400000057,
      "d": 110.29399999999441,
      "v": 127
    },
    {
      "midi": 37,
      "hit": false,
      "t": 134338.09200000056,
      "d": 110.29399999999441,
      "v": 127
    },
    {
      "midi": 49,
      "hit": false,
      "t": 134338.09200000056,
      "d": 110.29399999999441,
      "v": 127
    },
    {
      "midi": 94,
      "hit": false,
      "t": 134448.38599999857,
      "d": 110.29399999999441,
      "v": 127
    },
    {
      "midi": 86,
      "hit": false,
      "t": 134558.67999999857,
      "d": 220.58799999998882,
      "v": 127
    },
    {
      "midi": 91,
      "hit": false,
      "t": 134558.67999999857,
      "d": 220.58799999998882,
      "v": 127
    },
    {
      "midi": 95,
      "hit": false,
      "t": 134558.67999999857,
      "d": 220.58799999998882,
      "v": 127
    },
    {
      "midi": 38,
      "hit": false,
      "t": 134558.68000000055,
      "d": 220.58799999998882,
      "v": 127
    },
    {
      "midi": 50,
      "hit": false,
      "t": 134558.68000000055,
      "d": 220.58799999998882,
      "v": 127
    },
    {
      "midi": 59,
      "hit": false,
      "t": 134999.85599999854,
      "d": 55.146999999997206,
      "v": 127
    },
    {
      "midi": 53,
      "hit": false,
      "t": 134999.85600000052,
      "d": 110.29399999999441,
      "v": 125
    },
    {
      "midi": 57,
      "hit": false,
      "t": 134999.85600000052,
      "d": 110.29399999999441,
      "v": 127
    },
    {
      "midi": 60,
      "hit": false,
      "t": 135055.00299999854,
      "d": 55.146999999997206,
      "v": 127
    },
    {
      "midi": 62,
      "hit": false,
      "t": 135110.14999999854,
      "d": 55.146999999997206,
      "v": 127
    },
    {
      "midi": 64,
      "hit": false,
      "t": 135165.29699999854,
      "d": 55.146999999997206,
      "v": 127
    },
    {
      "midi": 65,
      "hit": false,
      "t": 135220.44399999853,
      "d": 44.117599999997765,
      "v": 127
    },
    {
      "midi": 53,
      "hit": false,
      "t": 135220.4440000005,
      "d": 110.29399999999441,
      "v": 127
    },
    {
      "midi": 57,
      "hit": false,
      "t": 135220.4440000005,
      "d": 110.29399999999441,
      "v": 127
    },
    {
      "midi": 67,
      "hit": false,
      "t": 135264.56159999853,
      "d": 44.117599999997765,
      "v": 127
    },
    {
      "midi": 69,
      "hit": false,
      "t": 135308.67919999853,
      "d": 44.117599999997765,
      "v": 127
    },
    {
      "midi": 71,
      "hit": false,
      "t": 135352.79679999853,
      "d": 44.117599999997765,
      "v": 127
    },
    {
      "midi": 72,
      "hit": false,
      "t": 135396.91439999852,
      "d": 44.117599999997765,
      "v": 127
    },
    {
      "midi": 74,
      "hit": false,
      "t": 135441.03199999852,
      "d": 55.146999999997206,
      "v": 127
    },
    {
      "midi": 53,
      "hit": false,
      "t": 135441.0320000005,
      "d": 441.17600000000675,
      "v": 127
    },
    {
      "midi": 57,
      "hit": false,
      "t": 135441.0320000005,
      "d": 441.17600000000675,
      "v": 127
    },
    {
      "midi": 62,
      "hit": false,
      "t": 135441.0320000005,
      "d": 441.17600000000675,
      "v": 127
    },
    {
      "midi": 76,
      "hit": false,
      "t": 135496.17899999852,
      "d": 55.146999999997206,
      "v": 127
    },
    {
      "midi": 77,
      "hit": false,
      "t": 135551.32599999852,
      "d": 55.146999999997206,
      "v": 127
    },
    {
      "midi": 79,
      "hit": false,
      "t": 135606.4729999985,
      "d": 55.146999999997206,
      "v": 127
    },
    {
      "midi": 81,
      "hit": false,
      "t": 135661.6199999985,
      "d": 55.146999999997206,
      "v": 127
    },
    {
      "midi": 83,
      "hit": false,
      "t": 135716.7669999985,
      "d": 55.146999999997206,
      "v": 127
    },
    {
      "midi": 84,
      "hit": false,
      "t": 135771.9139999985,
      "d": 55.146999999997206,
      "v": 127
    },
    {
      "midi": 86,
      "hit": false,
      "t": 135827.0609999985,
      "d": 55.146999999997206,
      "v": 127
    },
    {
      "midi": 88,
      "hit": false,
      "t": 135882.2079999985,
      "d": 55.146999999997206,
      "v": 127
    },
    {
      "midi": 52,
      "hit": false,
      "t": 135882.2080000005,
      "d": 110.29399999999441,
      "v": 126
    },
    {
      "midi": 55,
      "hit": false,
      "t": 135882.2080000005,
      "d": 110.29399999999441,
      "v": 127
    },
    {
      "midi": 60,
      "hit": false,
      "t": 135882.2080000005,
      "d": 110.29399999999441,
      "v": 124
    },
    {
      "midi": 89,
      "hit": false,
      "t": 135937.3549999985,
      "d": 55.146999999997206,
      "v": 127
    },
    {
      "midi": 91,
      "hit": false,
      "t": 135992.5019999985,
      "d": 55.146999999997206,
      "v": 127
    },
    {
      "midi": 93,
      "hit": false,
      "t": 136047.6489999985,
      "d": 55.146999999997206,
      "v": 127
    },
    {
      "midi": 95,
      "hit": false,
      "t": 136102.7959999985,
      "d": 55.146999999997206,
      "v": 127
    },
    {
      "midi": 52,
      "hit": false,
      "t": 136102.7960000005,
      "d": 110.29399999999441,
      "v": 124
    },
    {
      "midi": 55,
      "hit": false,
      "t": 136102.7960000005,
      "d": 110.29399999999441,
      "v": 126
    },
    {
      "midi": 60,
      "hit": false,
      "t": 136102.7960000005,
      "d": 110.29399999999441,
      "v": 124
    },
    {
      "midi": 96,
      "hit": false,
      "t": 136157.9429999985,
      "d": 55.146999999997206,
      "v": 127
    },
    {
      "midi": 98,
      "hit": false,
      "t": 136213.08999999848,
      "d": 55.146999999997206,
      "v": 127
    },
    {
      "midi": 100,
      "hit": false,
      "t": 136268.23699999848,
      "d": 55.146999999997206,
      "v": 127
    },
    {
      "midi": 101,
      "hit": false,
      "t": 136323.38399999848,
      "d": 220.58799999998882,
      "v": 127
    },
    {
      "midi": 43,
      "hit": false,
      "t": 136323.3840000005,
      "d": 220.58799999998882,
      "v": 127
    },
    {
      "midi": 50,
      "hit": false,
      "t": 136323.3840000005,
      "d": 220.58799999998882,
      "v": 127
    },
    {
      "midi": 59,
      "hit": false,
      "t": 136323.3840000005,
      "d": 220.58799999998882,
      "v": 127
    },
    {
      "midi": 59,
      "hit": false,
      "t": 136764.55999999846,
      "d": 55.146999999997206,
      "v": 127
    },
    {
      "midi": 53,
      "hit": false,
      "t": 136764.56000000046,
      "d": 110.29399999999441,
      "v": 127
    },
    {
      "midi": 57,
      "hit": false,
      "t": 136764.56000000046,
      "d": 110.29399999999441,
      "v": 127
    },
    {
      "midi": 60,
      "hit": false,
      "t": 136819.70699999845,
      "d": 55.146999999997206,
      "v": 127
    },
    {
      "midi": 62,
      "hit": false,
      "t": 136874.85399999845,
      "d": 55.146999999997206,
      "v": 127
    },
    {
      "midi": 64,
      "hit": false,
      "t": 136930.00099999845,
      "d": 55.146999999997206,
      "v": 127
    },
    {
      "midi": 65,
      "hit": false,
      "t": 136985.14799999844,
      "d": 44.117599999997765,
      "v": 127
    },
    {
      "midi": 53,
      "hit": false,
      "t": 136985.14800000045,
      "d": 110.29399999999441,
      "v": 127
    },
    {
      "midi": 57,
      "hit": false,
      "t": 136985.14800000045,
      "d": 110.29399999999441,
      "v": 127
    },
    {
      "midi": 67,
      "hit": false,
      "t": 137029.26559999844,
      "d": 44.117599999997765,
      "v": 127
    },
    {
      "midi": 69,
      "hit": false,
      "t": 137073.38319999844,
      "d": 44.117599999997765,
      "v": 127
    },
    {
      "midi": 71,
      "hit": false,
      "t": 137117.50079999844,
      "d": 44.117599999997765,
      "v": 127
    },
    {
      "midi": 72,
      "hit": false,
      "t": 137161.61839999844,
      "d": 44.117599999997765,
      "v": 127
    },
    {
      "midi": 74,
      "hit": false,
      "t": 137205.73599999843,
      "d": 55.146999999997206,
      "v": 127
    },
    {
      "midi": 53,
      "hit": false,
      "t": 137205.73600000044,
      "d": 441.17600000000675,
      "v": 127
    },
    {
      "midi": 57,
      "hit": false,
      "t": 137205.73600000044,
      "d": 441.17600000000675,
      "v": 127
    },
    {
      "midi": 62,
      "hit": false,
      "t": 137205.73600000044,
      "d": 441.17600000000675,
      "v": 127
    },
    {
      "midi": 76,
      "hit": false,
      "t": 137260.88299999843,
      "d": 55.146999999997206,
      "v": 127
    },
    {
      "midi": 77,
      "hit": false,
      "t": 137316.02999999843,
      "d": 55.146999999997206,
      "v": 127
    },
    {
      "midi": 79,
      "hit": false,
      "t": 137371.17699999842,
      "d": 55.146999999997206,
      "v": 127
    },
    {
      "midi": 81,
      "hit": false,
      "t": 137426.32399999842,
      "d": 55.146999999997206,
      "v": 127
    },
    {
      "midi": 83,
      "hit": false,
      "t": 137481.47099999842,
      "d": 55.146999999997206,
      "v": 127
    },
    {
      "midi": 84,
      "hit": false,
      "t": 137536.61799999842,
      "d": 55.146999999997206,
      "v": 127
    },
    {
      "midi": 86,
      "hit": false,
      "t": 137591.7649999984,
      "d": 55.146999999997206,
      "v": 127
    },
    {
      "midi": 88,
      "hit": false,
      "t": 137646.9119999984,
      "d": 55.146999999997206,
      "v": 127
    },
    {
      "midi": 52,
      "hit": false,
      "t": 137646.91200000045,
      "d": 110.29399999999441,
      "v": 125
    },
    {
      "midi": 55,
      "hit": false,
      "t": 137646.91200000045,
      "d": 110.29399999999441,
      "v": 127
    },
    {
      "midi": 60,
      "hit": false,
      "t": 137646.91200000045,
      "d": 110.29399999999441,
      "v": 123
    },
    {
      "midi": 89,
      "hit": false,
      "t": 137702.0589999984,
      "d": 55.146999999997206,
      "v": 127
    },
    {
      "midi": 91,
      "hit": false,
      "t": 137757.2059999984,
      "d": 55.146999999997206,
      "v": 127
    },
    {
      "midi": 93,
      "hit": false,
      "t": 137812.3529999984,
      "d": 55.146999999997206,
      "v": 127
    },
    {
      "midi": 95,
      "hit": false,
      "t": 137867.4999999984,
      "d": 55.146999999997206,
      "v": 127
    },
    {
      "midi": 52,
      "hit": false,
      "t": 137867.50000000044,
      "d": 110.29399999999441,
      "v": 127
    },
    {
      "midi": 55,
      "hit": false,
      "t": 137867.50000000044,
      "d": 110.29399999999441,
      "v": 127
    },
    {
      "midi": 60,
      "hit": false,
      "t": 137867.50000000044,
      "d": 110.29399999999441,
      "v": 125
    },
    {
      "midi": 96,
      "hit": false,
      "t": 137922.6469999984,
      "d": 55.146999999997206,
      "v": 127
    },
    {
      "midi": 98,
      "hit": false,
      "t": 137977.7939999984,
      "d": 55.146999999997206,
      "v": 127
    },
    {
      "midi": 100,
      "hit": false,
      "t": 138032.9409999984,
      "d": 55.146999999997206,
      "v": 127
    },
    {
      "midi": 101,
      "hit": false,
      "t": 138088.0879999984,
      "d": 220.58799999998882,
      "v": 127
    },
    {
      "midi": 43,
      "hit": false,
      "t": 138088.08800000043,
      "d": 220.58799999998882,
      "v": 127
    },
    {
      "midi": 50,
      "hit": false,
      "t": 138088.08800000043,
      "d": 220.58799999998882,
      "v": 127
    },
    {
      "midi": 59,
      "hit": false,
      "t": 138088.08800000043,
      "d": 220.58799999998882,
      "v": 127
    },
    {
      "midi": 65,
      "hit": false,
      "t": 138529.26399999837,
      "d": 220.58799999998882,
      "v": 123
    },
    {
      "midi": 71,
      "hit": false,
      "t": 138529.26399999837,
      "d": 220.58799999998882,
      "v": 127
    },
    {
      "midi": 74,
      "hit": false,
      "t": 138529.26399999837,
      "d": 220.58799999998882,
      "v": 127
    },
    {
      "midi": 77,
      "hit": false,
      "t": 138529.26399999837,
      "d": 220.58799999998882,
      "v": 123
    },
    {
      "midi": 83,
      "hit": false,
      "t": 138529.26399999837,
      "d": 220.58799999998882,
      "v": 127
    },
    {
      "midi": 86,
      "hit": false,
      "t": 138529.26399999837,
      "d": 220.58799999998882,
      "v": 127
    },
    {
      "midi": 89,
      "hit": false,
      "t": 138529.26399999837,
      "d": 220.58799999998882,
      "v": 117
    },
    {
      "midi": 43,
      "hit": false,
      "t": 138529.2640000004,
      "d": 110.29399999999441,
      "v": 127
    },
    {
      "midi": 45,
      "hit": false,
      "t": 138639.5580000004,
      "d": 110.29399999999441,
      "v": 127
    },
    {
      "midi": 65,
      "hit": false,
      "t": 138749.85199999835,
      "d": 220.58799999998882,
      "v": 119
    },
    {
      "midi": 71,
      "hit": false,
      "t": 138749.85199999835,
      "d": 220.58799999998882,
      "v": 127
    },
    {
      "midi": 74,
      "hit": false,
      "t": 138749.85199999835,
      "d": 220.58799999998882,
      "v": 127
    },
    {
      "midi": 77,
      "hit": false,
      "t": 138749.85199999835,
      "d": 220.58799999998882,
      "v": 119
    },
    {
      "midi": 83,
      "hit": false,
      "t": 138749.85199999835,
      "d": 220.58799999998882,
      "v": 127
    },
    {
      "midi": 86,
      "hit": false,
      "t": 138749.85199999835,
      "d": 220.58799999998882,
      "v": 127
    },
    {
      "midi": 89,
      "hit": false,
      "t": 138749.85199999835,
      "d": 220.58799999998882,
      "v": 119
    },
    {
      "midi": 47,
      "hit": false,
      "t": 138749.8520000004,
      "d": 110.29399999999441,
      "v": 127
    },
    {
      "midi": 48,
      "hit": false,
      "t": 138860.1460000004,
      "d": 110.29399999999441,
      "v": 127
    },
    {
      "midi": 65,
      "hit": false,
      "t": 138970.43999999834,
      "d": 441.17600000000675,
      "v": 124
    },
    {
      "midi": 71,
      "hit": false,
      "t": 138970.43999999834,
      "d": 441.17600000000675,
      "v": 127
    },
    {
      "midi": 74,
      "hit": false,
      "t": 138970.43999999834,
      "d": 441.17600000000675,
      "v": 127
    },
    {
      "midi": 77,
      "hit": false,
      "t": 138970.43999999834,
      "d": 441.17600000000675,
      "v": 124
    },
    {
      "midi": 83,
      "hit": false,
      "t": 138970.43999999834,
      "d": 441.17600000000675,
      "v": 127
    },
    {
      "midi": 86,
      "hit": false,
      "t": 138970.43999999834,
      "d": 441.17600000000675,
      "v": 127
    },
    {
      "midi": 89,
      "hit": false,
      "t": 138970.43999999834,
      "d": 441.17600000000675,
      "v": 118
    },
    {
      "midi": 50,
      "hit": false,
      "t": 138970.44000000038,
      "d": 110.29399999999441,
      "v": 127
    },
    {
      "midi": 48,
      "hit": false,
      "t": 139080.73400000038,
      "d": 110.29399999999441,
      "v": 127
    },
    {
      "midi": 47,
      "hit": false,
      "t": 139191.02800000037,
      "d": 110.29399999999441,
      "v": 127
    },
    {
      "midi": 45,
      "hit": false,
      "t": 139301.32200000036,
      "d": 110.29399999999441,
      "v": 127
    },
    {
      "midi": 65,
      "hit": false,
      "t": 139411.61599999835,
      "d": 220.58799999998882,
      "v": 125
    },
    {
      "midi": 71,
      "hit": false,
      "t": 139411.61599999835,
      "d": 220.58799999998882,
      "v": 127
    },
    {
      "midi": 74,
      "hit": false,
      "t": 139411.61599999835,
      "d": 220.58799999998882,
      "v": 127
    },
    {
      "midi": 77,
      "hit": false,
      "t": 139411.61599999835,
      "d": 220.58799999998882,
      "v": 125
    },
    {
      "midi": 83,
      "hit": false,
      "t": 139411.61599999835,
      "d": 220.58799999998882,
      "v": 127
    },
    {
      "midi": 86,
      "hit": false,
      "t": 139411.61599999835,
      "d": 220.58799999998882,
      "v": 127
    },
    {
      "midi": 89,
      "hit": false,
      "t": 139411.61599999835,
      "d": 220.58799999998882,
      "v": 119
    },
    {
      "midi": 43,
      "hit": false,
      "t": 139411.61600000036,
      "d": 110.29399999999441,
      "v": 127
    },
    {
      "midi": 45,
      "hit": false,
      "t": 139521.91000000035,
      "d": 110.29399999999441,
      "v": 127
    },
    {
      "midi": 65,
      "hit": false,
      "t": 139632.20399999834,
      "d": 220.58799999998882,
      "v": 122
    },
    {
      "midi": 71,
      "hit": false,
      "t": 139632.20399999834,
      "d": 220.58799999998882,
      "v": 127
    },
    {
      "midi": 74,
      "hit": false,
      "t": 139632.20399999834,
      "d": 220.58799999998882,
      "v": 127
    },
    {
      "midi": 77,
      "hit": false,
      "t": 139632.20399999834,
      "d": 220.58799999998882,
      "v": 122
    },
    {
      "midi": 83,
      "hit": false,
      "t": 139632.20399999834,
      "d": 220.58799999998882,
      "v": 127
    },
    {
      "midi": 86,
      "hit": false,
      "t": 139632.20399999834,
      "d": 220.58799999998882,
      "v": 127
    },
    {
      "midi": 89,
      "hit": false,
      "t": 139632.20399999834,
      "d": 220.58799999998882,
      "v": 110
    },
    {
      "midi": 47,
      "hit": false,
      "t": 139632.20400000035,
      "d": 110.29399999999441,
      "v": 127
    },
    {
      "midi": 48,
      "hit": false,
      "t": 139742.49800000034,
      "d": 110.29399999999441,
      "v": 127
    },
    {
      "midi": 65,
      "hit": false,
      "t": 139852.79199999833,
      "d": 441.17600000000675,
      "v": 125
    },
    {
      "midi": 71,
      "hit": false,
      "t": 139852.79199999833,
      "d": 441.17600000000675,
      "v": 127
    },
    {
      "midi": 74,
      "hit": false,
      "t": 139852.79199999833,
      "d": 441.17600000000675,
      "v": 127
    },
    {
      "midi": 77,
      "hit": false,
      "t": 139852.79199999833,
      "d": 441.17600000000675,
      "v": 125
    },
    {
      "midi": 83,
      "hit": false,
      "t": 139852.79199999833,
      "d": 441.17600000000675,
      "v": 127
    },
    {
      "midi": 86,
      "hit": false,
      "t": 139852.79199999833,
      "d": 441.17600000000675,
      "v": 127
    },
    {
      "midi": 89,
      "hit": false,
      "t": 139852.79199999833,
      "d": 441.17600000000675,
      "v": 121
    },
    {
      "midi": 50,
      "hit": false,
      "t": 139852.79200000034,
      "d": 110.29399999999441,
      "v": 127
    },
    {
      "midi": 48,
      "hit": false,
      "t": 139963.08600000033,
      "d": 110.29399999999441,
      "v": 127
    },
    {
      "midi": 47,
      "hit": false,
      "t": 140073.38000000032,
      "d": 110.29399999999441,
      "v": 127
    },
    {
      "midi": 45,
      "hit": false,
      "t": 140183.67400000032,
      "d": 110.29399999999441,
      "v": 127
    },
    {
      "midi": 65,
      "hit": false,
      "t": 140293.96799999833,
      "d": 220.58799999998882,
      "v": 119
    },
    {
      "midi": 71,
      "hit": false,
      "t": 140293.96799999833,
      "d": 220.58799999998882,
      "v": 126
    },
    {
      "midi": 74,
      "hit": false,
      "t": 140293.96799999833,
      "d": 220.58799999998882,
      "v": 125
    },
    {
      "midi": 77,
      "hit": false,
      "t": 140293.96799999833,
      "d": 220.58799999998882,
      "v": 119
    },
    {
      "midi": 83,
      "hit": false,
      "t": 140293.96799999833,
      "d": 220.58799999998882,
      "v": 126
    },
    {
      "midi": 86,
      "hit": false,
      "t": 140293.96799999833,
      "d": 220.58799999998882,
      "v": 125
    },
    {
      "midi": 89,
      "hit": false,
      "t": 140293.96799999833,
      "d": 220.58799999998882,
      "v": 103
    },
    {
      "midi": 43,
      "hit": false,
      "t": 140293.9680000003,
      "d": 110.29399999999441,
      "v": 127
    },
    {
      "midi": 45,
      "hit": false,
      "t": 140404.2620000003,
      "d": 110.29399999999441,
      "v": 127
    },
    {
      "midi": 65,
      "hit": false,
      "t": 140514.55599999832,
      "d": 220.58799999998882,
      "v": 122
    },
    {
      "midi": 71,
      "hit": false,
      "t": 140514.55599999832,
      "d": 220.58799999998882,
      "v": 126
    },
    {
      "midi": 74,
      "hit": false,
      "t": 140514.55599999832,
      "d": 220.58799999998882,
      "v": 127
    },
    {
      "midi": 77,
      "hit": false,
      "t": 140514.55599999832,
      "d": 220.58799999998882,
      "v": 122
    },
    {
      "midi": 83,
      "hit": false,
      "t": 140514.55599999832,
      "d": 220.58799999998882,
      "v": 126
    },
    {
      "midi": 86,
      "hit": false,
      "t": 140514.55599999832,
      "d": 220.58799999998882,
      "v": 127
    },
    {
      "midi": 89,
      "hit": false,
      "t": 140514.55599999832,
      "d": 220.58799999998882,
      "v": 113
    },
    {
      "midi": 47,
      "hit": false,
      "t": 140514.5560000003,
      "d": 110.29399999999441,
      "v": 127
    },
    {
      "midi": 48,
      "hit": false,
      "t": 140624.8500000003,
      "d": 110.29399999999441,
      "v": 127
    },
    {
      "midi": 65,
      "hit": false,
      "t": 140735.1439999983,
      "d": 441.17600000000675,
      "v": 126
    },
    {
      "midi": 71,
      "hit": false,
      "t": 140735.1439999983,
      "d": 441.17600000000675,
      "v": 127
    },
    {
      "midi": 74,
      "hit": false,
      "t": 140735.1439999983,
      "d": 441.17600000000675,
      "v": 127
    },
    {
      "midi": 77,
      "hit": false,
      "t": 140735.1439999983,
      "d": 441.17600000000675,
      "v": 126
    },
    {
      "midi": 83,
      "hit": false,
      "t": 140735.1439999983,
      "d": 441.17600000000675,
      "v": 127
    },
    {
      "midi": 86,
      "hit": false,
      "t": 140735.1439999983,
      "d": 441.17600000000675,
      "v": 127
    },
    {
      "midi": 89,
      "hit": false,
      "t": 140735.1439999983,
      "d": 441.17600000000675,
      "v": 121
    },
    {
      "midi": 50,
      "hit": false,
      "t": 140735.1440000003,
      "d": 110.29399999999441,
      "v": 127
    },
    {
      "midi": 48,
      "hit": false,
      "t": 140845.4380000003,
      "d": 110.29399999999441,
      "v": 127
    },
    {
      "midi": 47,
      "hit": false,
      "t": 140955.73200000028,
      "d": 110.29399999999441,
      "v": 127
    },
    {
      "midi": 45,
      "hit": false,
      "t": 141066.02600000027,
      "d": 110.29399999999441,
      "v": 127
    },
    {
      "midi": 65,
      "hit": false,
      "t": 141176.31999999832,
      "d": 220.58799999998882,
      "v": 122
    },
    {
      "midi": 71,
      "hit": false,
      "t": 141176.31999999832,
      "d": 220.58799999998882,
      "v": 127
    },
    {
      "midi": 74,
      "hit": false,
      "t": 141176.31999999832,
      "d": 220.58799999998882,
      "v": 126
    },
    {
      "midi": 77,
      "hit": false,
      "t": 141176.31999999832,
      "d": 220.58799999998882,
      "v": 122
    },
    {
      "midi": 83,
      "hit": false,
      "t": 141176.31999999832,
      "d": 220.58799999998882,
      "v": 127
    },
    {
      "midi": 86,
      "hit": false,
      "t": 141176.31999999832,
      "d": 220.58799999998882,
      "v": 126
    },
    {
      "midi": 89,
      "hit": false,
      "t": 141176.31999999832,
      "d": 220.58799999998882,
      "v": 112
    },
    {
      "midi": 43,
      "hit": false,
      "t": 141176.32000000027,
      "d": 110.29399999999441,
      "v": 127
    },
    {
      "midi": 41,
      "hit": false,
      "t": 141286.61400000026,
      "d": 110.29399999999441,
      "v": 127
    },
    {
      "midi": 65,
      "hit": false,
      "t": 141396.9079999983,
      "d": 220.58799999998882,
      "v": 123
    },
    {
      "midi": 71,
      "hit": false,
      "t": 141396.9079999983,
      "d": 220.58799999998882,
      "v": 127
    },
    {
      "midi": 74,
      "hit": false,
      "t": 141396.9079999983,
      "d": 220.58799999998882,
      "v": 127
    },
    {
      "midi": 77,
      "hit": false,
      "t": 141396.9079999983,
      "d": 220.58799999998882,
      "v": 123
    },
    {
      "midi": 83,
      "hit": false,
      "t": 141396.9079999983,
      "d": 220.58799999998882,
      "v": 127
    },
    {
      "midi": 86,
      "hit": false,
      "t": 141396.9079999983,
      "d": 220.58799999998882,
      "v": 127
    },
    {
      "midi": 89,
      "hit": false,
      "t": 141396.9079999983,
      "d": 220.58799999998882,
      "v": 117
    },
    {
      "midi": 40,
      "hit": false,
      "t": 141396.90800000026,
      "d": 110.29399999999441,
      "v": 127
    },
    {
      "midi": 38,
      "hit": false,
      "t": 141507.20200000025,
      "d": 110.29399999999441,
      "v": 127
    },
    {
      "midi": 64,
      "hit": false,
      "t": 141617.4959999983,
      "d": 220.58799999998882,
      "v": 127
    },
    {
      "midi": 76,
      "hit": false,
      "t": 141617.4959999983,
      "d": 220.58799999998882,
      "v": 127
    },
    {
      "midi": 88,
      "hit": false,
      "t": 141617.4959999983,
      "d": 220.58799999998882,
      "v": 127
    },
    {
      "midi": 36,
      "hit": false,
      "t": 141617.49600000025,
      "d": 220.58799999998882,
      "v": 127
    },
    {
      "midi": 48,
      "hit": false,
      "t": 141617.49600000025,
      "d": 220.58799999998882,
      "v": 127
    },
    {
      "midi": 60,
      "hit": false,
      "t": 141838.08399999829,
      "d": 220.58799999998882,
      "v": 127
    },
    {
      "midi": 72,
      "hit": false,
      "t": 141838.08399999829,
      "d": 220.58799999998882,
      "v": 127
    },
    {
      "midi": 84,
      "hit": false,
      "t": 141838.08399999829,
      "d": 220.58799999998882,
      "v": 127
    },
    {
      "midi": 64,
      "hit": false,
      "t": 142058.67199999827,
      "d": 220.58799999998882,
      "v": 127
    },
    {
      "midi": 76,
      "hit": false,
      "t": 142058.67199999827,
      "d": 220.58799999998882,
      "v": 127
    },
    {
      "midi": 88,
      "hit": false,
      "t": 142058.67199999827,
      "d": 220.58799999998882,
      "v": 127
    },
    {
      "midi": 40,
      "hit": false,
      "t": 142058.67200000022,
      "d": 220.58799999998882,
      "v": 127
    },
    {
      "midi": 52,
      "hit": false,
      "t": 142058.67200000022,
      "d": 220.58799999998882,
      "v": 127
    },
    {
      "midi": 59,
      "hit": false,
      "t": 142279.25999999826,
      "d": 220.58799999998882,
      "v": 127
    },
    {
      "midi": 71,
      "hit": false,
      "t": 142279.25999999826,
      "d": 220.58799999998882,
      "v": 127
    },
    {
      "midi": 83,
      "hit": false,
      "t": 142279.25999999826,
      "d": 220.58799999998882,
      "v": 127
    },
    {
      "midi": 64,
      "hit": false,
      "t": 142499.84799999825,
      "d": 220.58799999998882,
      "v": 127
    },
    {
      "midi": 76,
      "hit": false,
      "t": 142499.84799999825,
      "d": 220.58799999998882,
      "v": 127
    },
    {
      "midi": 88,
      "hit": false,
      "t": 142499.84799999825,
      "d": 220.58799999998882,
      "v": 127
    },
    {
      "midi": 41,
      "hit": false,
      "t": 142499.8480000002,
      "d": 220.58799999998882,
      "v": 127
    },
    {
      "midi": 53,
      "hit": false,
      "t": 142499.8480000002,
      "d": 220.58799999998882,
      "v": 127
    },
    {
      "midi": 57,
      "hit": false,
      "t": 142720.43599999824,
      "d": 220.58799999998882,
      "v": 125
    },
    {
      "midi": 69,
      "hit": false,
      "t": 142720.43599999824,
      "d": 220.58799999998882,
      "v": 125
    },
    {
      "midi": 81,
      "hit": false,
      "t": 142720.43599999824,
      "d": 220.58799999998882,
      "v": 127
    },
    {
      "midi": 64,
      "hit": false,
      "t": 142941.02399999823,
      "d": 220.58799999998882,
      "v": 127
    },
    {
      "midi": 76,
      "hit": false,
      "t": 142941.02399999823,
      "d": 220.58799999998882,
      "v": 127
    },
    {
      "midi": 88,
      "hit": false,
      "t": 142941.02399999823,
      "d": 220.58799999998882,
      "v": 127
    },
    {
      "midi": 42,
      "hit": false,
      "t": 142941.02400000018,
      "d": 220.58799999998882,
      "v": 127
    },
    {
      "midi": 54,
      "hit": false,
      "t": 142941.02400000018,
      "d": 220.58799999998882,
      "v": 127
    },
    {
      "midi": 56,
      "hit": false,
      "t": 143161.61199999822,
      "d": 220.58799999998882,
      "v": 127
    },
    {
      "midi": 68,
      "hit": false,
      "t": 143161.61199999822,
      "d": 220.58799999998882,
      "v": 127
    },
    {
      "midi": 80,
      "hit": false,
      "t": 143161.61199999822,
      "d": 220.58799999998882,
      "v": 127
    },
    {
      "midi": 76,
      "hit": false,
      "t": 143382.1999999982,
      "d": 110.29399999999441,
      "v": 127
    },
    {
      "midi": 88,
      "hit": false,
      "t": 143382.1999999982,
      "d": 110.29399999999441,
      "v": 127
    },
    {
      "midi": 43,
      "hit": false,
      "t": 143382.20000000016,
      "d": 441.17600000000675,
      "v": 126
    },
    {
      "midi": 48,
      "hit": false,
      "t": 143382.20000000016,
      "d": 441.17600000000675,
      "v": 127
    },
    {
      "midi": 52,
      "hit": false,
      "t": 143382.20000000016,
      "d": 441.17600000000675,
      "v": 127
    },
    {
      "midi": 55,
      "hit": false,
      "t": 143382.20000000016,
      "d": 441.17600000000675,
      "v": 122
    },
    {
      "midi": 74,
      "hit": false,
      "t": 143492.4939999982,
      "d": 110.29399999999441,
      "v": 127
    },
    {
      "midi": 86,
      "hit": false,
      "t": 143492.4939999982,
      "d": 110.29399999999441,
      "v": 127
    },
    {
      "midi": 72,
      "hit": false,
      "t": 143602.7879999982,
      "d": 110.29399999999441,
      "v": 127
    },
    {
      "midi": 84,
      "hit": false,
      "t": 143602.7879999982,
      "d": 110.29399999999441,
      "v": 127
    },
    {
      "midi": 71,
      "hit": false,
      "t": 143713.0819999982,
      "d": 110.29399999999441,
      "v": 127
    },
    {
      "midi": 83,
      "hit": false,
      "t": 143713.0819999982,
      "d": 110.29399999999441,
      "v": 127
    },
    {
      "midi": 69,
      "hit": false,
      "t": 143823.37599999818,
      "d": 110.29399999999441,
      "v": 127
    },
    {
      "midi": 81,
      "hit": false,
      "t": 143823.37599999818,
      "d": 110.29399999999441,
      "v": 127
    },
    {
      "midi": 67,
      "hit": false,
      "t": 143933.66999999818,
      "d": 110.29399999999441,
      "v": 127
    },
    {
      "midi": 79,
      "hit": false,
      "t": 143933.66999999818,
      "d": 110.29399999999441,
      "v": 127
    },
    {
      "midi": 65,
      "hit": false,
      "t": 144043.96399999817,
      "d": 110.29399999999441,
      "v": 127
    },
    {
      "midi": 77,
      "hit": false,
      "t": 144043.96399999817,
      "d": 110.29399999999441,
      "v": 127
    },
    {
      "midi": 64,
      "hit": false,
      "t": 144154.25799999817,
      "d": 110.29399999999441,
      "v": 127
    },
    {
      "midi": 76,
      "hit": false,
      "t": 144154.25799999817,
      "d": 110.29399999999441,
      "v": 127
    },
    {
      "midi": 62,
      "hit": false,
      "t": 144264.55199999816,
      "d": 110.29399999999441,
      "v": 127
    },
    {
      "midi": 74,
      "hit": false,
      "t": 144264.55199999816,
      "d": 110.29399999999441,
      "v": 127
    },
    {
      "midi": 43,
      "hit": false,
      "t": 144264.55200000017,
      "d": 441.17600000000675,
      "v": 127
    },
    {
      "midi": 47,
      "hit": false,
      "t": 144264.55200000017,
      "d": 441.17600000000675,
      "v": 127
    },
    {
      "midi": 50,
      "hit": false,
      "t": 144264.55200000017,
      "d": 441.17600000000675,
      "v": 127
    },
    {
      "midi": 55,
      "hit": false,
      "t": 144264.55200000017,
      "d": 441.17600000000675,
      "v": 123
    },
    {
      "midi": 64,
      "hit": false,
      "t": 144374.84599999816,
      "d": 110.29399999999441,
      "v": 127
    },
    {
      "midi": 76,
      "hit": false,
      "t": 144374.84599999816,
      "d": 110.29399999999441,
      "v": 127
    },
    {
      "midi": 65,
      "hit": false,
      "t": 144485.13999999815,
      "d": 110.29399999999441,
      "v": 127
    },
    {
      "midi": 77,
      "hit": false,
      "t": 144485.13999999815,
      "d": 110.29399999999441,
      "v": 127
    },
    {
      "midi": 67,
      "hit": false,
      "t": 144595.43399999815,
      "d": 110.29399999999441,
      "v": 127
    },
    {
      "midi": 79,
      "hit": false,
      "t": 144595.43399999815,
      "d": 110.29399999999441,
      "v": 127
    },
    {
      "midi": 69,
      "hit": false,
      "t": 144705.72799999814,
      "d": 110.29399999999441,
      "v": 127
    },
    {
      "midi": 81,
      "hit": false,
      "t": 144705.72799999814,
      "d": 110.29399999999441,
      "v": 127
    },
    {
      "midi": 71,
      "hit": false,
      "t": 144816.02199999813,
      "d": 110.29399999999441,
      "v": 127
    },
    {
      "midi": 83,
      "hit": false,
      "t": 144816.02199999813,
      "d": 110.29399999999441,
      "v": 127
    },
    {
      "midi": 72,
      "hit": false,
      "t": 144926.31599999813,
      "d": 110.29399999999441,
      "v": 127
    },
    {
      "midi": 84,
      "hit": false,
      "t": 144926.31599999813,
      "d": 110.29399999999441,
      "v": 127
    },
    {
      "midi": 74,
      "hit": false,
      "t": 145036.60999999812,
      "d": 110.29399999999441,
      "v": 127
    },
    {
      "midi": 86,
      "hit": false,
      "t": 145036.60999999812,
      "d": 110.29399999999441,
      "v": 127
    },
    {
      "midi": 64,
      "hit": false,
      "t": 145146.90399999812,
      "d": 220.58799999998882,
      "v": 127
    },
    {
      "midi": 76,
      "hit": false,
      "t": 145146.90399999812,
      "d": 220.58799999998882,
      "v": 127
    },
    {
      "midi": 88,
      "hit": false,
      "t": 145146.90399999812,
      "d": 220.58799999998882,
      "v": 127
    },
    {
      "midi": 36,
      "hit": false,
      "t": 145146.90400000018,
      "d": 220.58799999998882,
      "v": 127
    },
    {
      "midi": 48,
      "hit": false,
      "t": 145146.90400000018,
      "d": 220.58799999998882,
      "v": 127
    },
    {
      "midi": 60,
      "hit": false,
      "t": 145367.4919999981,
      "d": 220.58799999998882,
      "v": 127
    },
    {
      "midi": 72,
      "hit": false,
      "t": 145367.4919999981,
      "d": 220.58799999998882,
      "v": 127
    },
    {
      "midi": 84,
      "hit": false,
      "t": 145367.4919999981,
      "d": 220.58799999998882,
      "v": 127
    },
    {
      "midi": 64,
      "hit": false,
      "t": 145588.0799999981,
      "d": 220.58799999998882,
      "v": 127
    },
    {
      "midi": 76,
      "hit": false,
      "t": 145588.0799999981,
      "d": 220.58799999998882,
      "v": 127
    },
    {
      "midi": 88,
      "hit": false,
      "t": 145588.0799999981,
      "d": 220.58799999998882,
      "v": 127
    },
    {
      "midi": 40,
      "hit": false,
      "t": 145588.08000000016,
      "d": 220.58799999998882,
      "v": 127
    },
    {
      "midi": 52,
      "hit": false,
      "t": 145588.08000000016,
      "d": 220.58799999998882,
      "v": 127
    },
    {
      "midi": 59,
      "hit": false,
      "t": 145808.66799999808,
      "d": 220.58799999998882,
      "v": 127
    },
    {
      "midi": 71,
      "hit": false,
      "t": 145808.66799999808,
      "d": 220.58799999998882,
      "v": 127
    },
    {
      "midi": 83,
      "hit": false,
      "t": 145808.66799999808,
      "d": 220.58799999998882,
      "v": 127
    },
    {
      "midi": 64,
      "hit": false,
      "t": 146029.25599999807,
      "d": 220.58799999998882,
      "v": 127
    },
    {
      "midi": 76,
      "hit": false,
      "t": 146029.25599999807,
      "d": 220.58799999998882,
      "v": 127
    },
    {
      "midi": 88,
      "hit": false,
      "t": 146029.25599999807,
      "d": 220.58799999998882,
      "v": 127
    },
    {
      "midi": 41,
      "hit": false,
      "t": 146029.25600000014,
      "d": 220.58799999998882,
      "v": 127
    },
    {
      "midi": 53,
      "hit": false,
      "t": 146029.25600000014,
      "d": 220.58799999998882,
      "v": 127
    },
    {
      "midi": 57,
      "hit": false,
      "t": 146249.84399999806,
      "d": 220.58799999998882,
      "v": 125
    },
    {
      "midi": 69,
      "hit": false,
      "t": 146249.84399999806,
      "d": 220.58799999998882,
      "v": 125
    },
    {
      "midi": 81,
      "hit": false,
      "t": 146249.84399999806,
      "d": 220.58799999998882,
      "v": 127
    },
    {
      "midi": 64,
      "hit": false,
      "t": 146470.43199999805,
      "d": 220.58799999998882,
      "v": 127
    },
    {
      "midi": 76,
      "hit": false,
      "t": 146470.43199999805,
      "d": 220.58799999998882,
      "v": 127
    },
    {
      "midi": 88,
      "hit": false,
      "t": 146470.43199999805,
      "d": 220.58799999998882,
      "v": 127
    },
    {
      "midi": 42,
      "hit": false,
      "t": 146470.43200000012,
      "d": 220.58799999998882,
      "v": 127
    },
    {
      "midi": 54,
      "hit": false,
      "t": 146470.43200000012,
      "d": 220.58799999998882,
      "v": 127
    },
    {
      "midi": 56,
      "hit": false,
      "t": 146691.01999999804,
      "d": 220.58799999998882,
      "v": 127
    },
    {
      "midi": 68,
      "hit": false,
      "t": 146691.01999999804,
      "d": 220.58799999998882,
      "v": 127
    },
    {
      "midi": 80,
      "hit": false,
      "t": 146691.01999999804,
      "d": 220.58799999998882,
      "v": 127
    },
    {
      "midi": 76,
      "hit": false,
      "t": 146911.60799999803,
      "d": 110.29399999999441,
      "v": 127
    },
    {
      "midi": 88,
      "hit": false,
      "t": 146911.60799999803,
      "d": 110.29399999999441,
      "v": 127
    },
    {
      "midi": 43,
      "hit": false,
      "t": 146911.6080000001,
      "d": 441.17600000000675,
      "v": 127
    },
    {
      "midi": 48,
      "hit": false,
      "t": 146911.6080000001,
      "d": 441.17600000000675,
      "v": 127
    },
    {
      "midi": 52,
      "hit": false,
      "t": 146911.6080000001,
      "d": 441.17600000000675,
      "v": 127
    },
    {
      "midi": 55,
      "hit": false,
      "t": 146911.6080000001,
      "d": 441.17600000000675,
      "v": 124
    },
    {
      "midi": 74,
      "hit": false,
      "t": 147021.90199999802,
      "d": 110.29399999999441,
      "v": 127
    },
    {
      "midi": 86,
      "hit": false,
      "t": 147021.90199999802,
      "d": 110.29399999999441,
      "v": 127
    },
    {
      "midi": 72,
      "hit": false,
      "t": 147132.19599999802,
      "d": 110.29399999999441,
      "v": 127
    },
    {
      "midi": 84,
      "hit": false,
      "t": 147132.19599999802,
      "d": 110.29399999999441,
      "v": 127
    },
    {
      "midi": 71,
      "hit": false,
      "t": 147242.489999998,
      "d": 110.29399999999441,
      "v": 127
    },
    {
      "midi": 83,
      "hit": false,
      "t": 147242.489999998,
      "d": 110.29399999999441,
      "v": 127
    },
    {
      "midi": 69,
      "hit": false,
      "t": 147352.783999998,
      "d": 110.29399999999441,
      "v": 127
    },
    {
      "midi": 81,
      "hit": false,
      "t": 147352.783999998,
      "d": 110.29399999999441,
      "v": 127
    },
    {
      "midi": 67,
      "hit": false,
      "t": 147463.077999998,
      "d": 110.29399999999441,
      "v": 127
    },
    {
      "midi": 79,
      "hit": false,
      "t": 147463.077999998,
      "d": 110.29399999999441,
      "v": 127
    },
    {
      "midi": 65,
      "hit": false,
      "t": 147573.371999998,
      "d": 110.29399999999441,
      "v": 127
    },
    {
      "midi": 77,
      "hit": false,
      "t": 147573.371999998,
      "d": 110.29399999999441,
      "v": 127
    },
    {
      "midi": 64,
      "hit": false,
      "t": 147683.665999998,
      "d": 110.29399999999441,
      "v": 127
    },
    {
      "midi": 76,
      "hit": false,
      "t": 147683.665999998,
      "d": 110.29399999999441,
      "v": 127
    },
    {
      "midi": 62,
      "hit": false,
      "t": 147793.95999999798,
      "d": 110.29399999999441,
      "v": 127
    },
    {
      "midi": 74,
      "hit": false,
      "t": 147793.95999999798,
      "d": 110.29399999999441,
      "v": 127
    },
    {
      "midi": 43,
      "hit": false,
      "t": 147793.9600000001,
      "d": 441.17600000000675,
      "v": 125
    },
    {
      "midi": 47,
      "hit": false,
      "t": 147793.9600000001,
      "d": 441.17600000000675,
      "v": 127
    },
    {
      "midi": 50,
      "hit": false,
      "t": 147793.9600000001,
      "d": 441.17600000000675,
      "v": 127
    },
    {
      "midi": 55,
      "hit": false,
      "t": 147793.9600000001,
      "d": 441.17600000000675,
      "v": 119
    },
    {
      "midi": 64,
      "hit": false,
      "t": 147904.25399999798,
      "d": 110.29399999999441,
      "v": 127
    },
    {
      "midi": 76,
      "hit": false,
      "t": 147904.25399999798,
      "d": 110.29399999999441,
      "v": 127
    },
    {
      "midi": 65,
      "hit": false,
      "t": 148014.54799999797,
      "d": 110.29399999999441,
      "v": 127
    },
    {
      "midi": 77,
      "hit": false,
      "t": 148014.54799999797,
      "d": 110.29399999999441,
      "v": 127
    },
    {
      "midi": 67,
      "hit": false,
      "t": 148124.84199999797,
      "d": 110.29399999999441,
      "v": 127
    },
    {
      "midi": 79,
      "hit": false,
      "t": 148124.84199999797,
      "d": 110.29399999999441,
      "v": 127
    },
    {
      "midi": 69,
      "hit": false,
      "t": 148235.13599999796,
      "d": 110.29399999999441,
      "v": 127
    },
    {
      "midi": 81,
      "hit": false,
      "t": 148235.13599999796,
      "d": 110.29399999999441,
      "v": 127
    },
    {
      "midi": 71,
      "hit": false,
      "t": 148345.42999999796,
      "d": 110.29399999999441,
      "v": 127
    },
    {
      "midi": 83,
      "hit": false,
      "t": 148345.42999999796,
      "d": 110.29399999999441,
      "v": 127
    },
    {
      "midi": 72,
      "hit": false,
      "t": 148455.72399999795,
      "d": 110.29399999999441,
      "v": 127
    },
    {
      "midi": 84,
      "hit": false,
      "t": 148455.72399999795,
      "d": 110.29399999999441,
      "v": 127
    },
    {
      "midi": 74,
      "hit": false,
      "t": 148566.01799999794,
      "d": 110.29399999999441,
      "v": 127
    },
    {
      "midi": 86,
      "hit": false,
      "t": 148566.01799999794,
      "d": 110.29399999999441,
      "v": 127
    },
    {
      "midi": 76,
      "hit": false,
      "t": 148676.31199999794,
      "d": 110.29399999999441,
      "v": 127
    },
    {
      "midi": 84,
      "hit": false,
      "t": 148676.31199999794,
      "d": 110.29399999999441,
      "v": 127
    },
    {
      "midi": 36,
      "hit": false,
      "t": 148676.31200000012,
      "d": 220.58799999998882,
      "v": 125
    },
    {
      "midi": 43,
      "hit": false,
      "t": 148676.31200000012,
      "d": 220.58799999998882,
      "v": 127
    },
    {
      "midi": 48,
      "hit": false,
      "t": 148676.31200000012,
      "d": 220.58799999998882,
      "v": 124
    },
    {
      "midi": 88,
      "hit": false,
      "t": 148786.60599999793,
      "d": 110.29399999999441,
      "v": 127
    },
    {
      "midi": 76,
      "hit": false,
      "t": 148896.89999999793,
      "d": 110.29399999999441,
      "v": 125
    },
    {
      "midi": 84,
      "hit": false,
      "t": 148896.89999999793,
      "d": 110.29399999999441,
      "v": 127
    },
    {
      "midi": 88,
      "hit": false,
      "t": 149007.19399999792,
      "d": 110.29399999999441,
      "v": 123
    },
    {
      "midi": 87,
      "hit": false,
      "t": 149062.34099999792,
      "d": 55.146999999997206,
      "v": 127
    },
    {
      "midi": 99,
      "hit": false,
      "t": 149062.34099999792,
      "d": 55.146999999997206,
      "v": 127
    },
    {
      "midi": 76,
      "hit": false,
      "t": 149117.48799999792,
      "d": 110.29399999999441,
      "v": 119
    },
    {
      "midi": 84,
      "hit": false,
      "t": 149117.48799999792,
      "d": 110.29399999999441,
      "v": 127
    },
    {
      "midi": 100,
      "hit": false,
      "t": 149117.48799999792,
      "d": 220.58799999998882,
      "v": 127
    },
    {
      "midi": 88,
      "hit": false,
      "t": 149227.7819999979,
      "d": 110.29399999999441,
      "v": 127
    },
    {
      "midi": 76,
      "hit": false,
      "t": 149338.0759999979,
      "d": 110.29399999999441,
      "v": 124
    },
    {
      "midi": 84,
      "hit": false,
      "t": 149338.0759999979,
      "d": 110.29399999999441,
      "v": 127
    },
    {
      "midi": 88,
      "hit": false,
      "t": 149448.3699999979,
      "d": 110.29399999999441,
      "v": 127
    },
    {
      "midi": 76,
      "hit": false,
      "t": 149558.6639999979,
      "d": 110.29399999999441,
      "v": 127
    },
    {
      "midi": 84,
      "hit": false,
      "t": 149558.6639999979,
      "d": 110.29399999999441,
      "v": 127
    },
    {
      "midi": 34,
      "hit": false,
      "t": 149558.6640000001,
      "d": 661.7639999999956,
      "v": 127
    },
    {
      "midi": 46,
      "hit": false,
      "t": 149558.6640000001,
      "d": 661.7639999999956,
      "v": 127
    },
    {
      "midi": 88,
      "hit": false,
      "t": 149668.9579999979,
      "d": 110.29399999999441,
      "v": 127
    },
    {
      "midi": 76,
      "hit": false,
      "t": 149779.25199999788,
      "d": 110.29399999999441,
      "v": 126
    },
    {
      "midi": 84,
      "hit": false,
      "t": 149779.25199999788,
      "d": 110.29399999999441,
      "v": 127
    },
    {
      "midi": 88,
      "hit": false,
      "t": 149889.54599999788,
      "d": 110.29399999999441,
      "v": 127
    },
    {
      "midi": 76,
      "hit": false,
      "t": 149999.83999999787,
      "d": 110.29399999999441,
      "v": 125
    },
    {
      "midi": 84,
      "hit": false,
      "t": 149999.83999999787,
      "d": 110.29399999999441,
      "v": 127
    },
    {
      "midi": 88,
      "hit": false,
      "t": 150110.13399999787,
      "d": 110.29399999999441,
      "v": 127
    },
    {
      "midi": 76,
      "hit": false,
      "t": 150220.42799999786,
      "d": 110.29399999999441,
      "v": 123
    },
    {
      "midi": 84,
      "hit": false,
      "t": 150220.42799999786,
      "d": 110.29399999999441,
      "v": 127
    },
    {
      "midi": 34,
      "hit": false,
      "t": 150220.4280000001,
      "d": 220.58799999998882,
      "v": 127
    },
    {
      "midi": 46,
      "hit": false,
      "t": 150220.4280000001,
      "d": 220.58799999998882,
      "v": 127
    },
    {
      "midi": 88,
      "hit": false,
      "t": 150330.72199999786,
      "d": 110.29399999999441,
      "v": 127
    },
    {
      "midi": 76,
      "hit": false,
      "t": 150441.01599999785,
      "d": 110.29399999999441,
      "v": 124
    },
    {
      "midi": 84,
      "hit": false,
      "t": 150441.01599999785,
      "d": 110.29399999999441,
      "v": 127
    },
    {
      "midi": 33,
      "hit": false,
      "t": 150441.0160000001,
      "d": 220.58799999998882,
      "v": 127
    },
    {
      "midi": 45,
      "hit": false,
      "t": 150441.0160000001,
      "d": 220.58799999998882,
      "v": 127
    },
    {
      "midi": 88,
      "hit": false,
      "t": 150551.30999999784,
      "d": 110.29399999999441,
      "v": 127
    },
    {
      "midi": 76,
      "hit": false,
      "t": 150661.60399999784,
      "d": 110.29399999999441,
      "v": 125
    },
    {
      "midi": 84,
      "hit": false,
      "t": 150661.60399999784,
      "d": 110.29399999999441,
      "v": 127
    },
    {
      "midi": 88,
      "hit": false,
      "t": 150771.89799999783,
      "d": 110.29399999999441,
      "v": 127
    },
    {
      "midi": 87,
      "hit": false,
      "t": 150827.04499999783,
      "d": 55.146999999997206,
      "v": 124
    },
    {
      "midi": 99,
      "hit": false,
      "t": 150827.04499999783,
      "d": 55.146999999997206,
      "v": 127
    },
    {
      "midi": 76,
      "hit": false,
      "t": 150882.19199999783,
      "d": 110.29399999999441,
      "v": 127
    },
    {
      "midi": 84,
      "hit": false,
      "t": 150882.19199999783,
      "d": 110.29399999999441,
      "v": 127
    },
    {
      "midi": 100,
      "hit": false,
      "t": 150882.19199999783,
      "d": 220.58799999998882,
      "v": 127
    },
    {
      "midi": 88,
      "hit": false,
      "t": 150992.48599999782,
      "d": 110.29399999999441,
      "v": 127
    },
    {
      "midi": 76,
      "hit": false,
      "t": 151102.77999999782,
      "d": 110.29399999999441,
      "v": 127
    },
    {
      "midi": 84,
      "hit": false,
      "t": 151102.77999999782,
      "d": 110.29399999999441,
      "v": 127
    },
    {
      "midi": 88,
      "hit": false,
      "t": 151213.0739999978,
      "d": 110.29399999999441,
      "v": 127
    },
    {
      "midi": 76,
      "hit": false,
      "t": 151323.3679999978,
      "d": 110.29399999999441,
      "v": 127
    },
    {
      "midi": 84,
      "hit": false,
      "t": 151323.3679999978,
      "d": 110.29399999999441,
      "v": 127
    },
    {
      "midi": 32,
      "hit": false,
      "t": 151323.36800000007,
      "d": 661.7639999999956,
      "v": 127
    },
    {
      "midi": 44,
      "hit": false,
      "t": 151323.36800000007,
      "d": 661.7639999999956,
      "v": 127
    },
    {
      "midi": 88,
      "hit": false,
      "t": 151433.6619999978,
      "d": 110.29399999999441,
      "v": 127
    },
    {
      "midi": 76,
      "hit": false,
      "t": 151543.9559999978,
      "d": 110.29399999999441,
      "v": 127
    },
    {
      "midi": 84,
      "hit": false,
      "t": 151543.9559999978,
      "d": 110.29399999999441,
      "v": 127
    },
    {
      "midi": 88,
      "hit": false,
      "t": 151654.2499999978,
      "d": 110.29399999999441,
      "v": 127
    },
    {
      "midi": 76,
      "hit": false,
      "t": 151764.54399999778,
      "d": 110.29399999999441,
      "v": 127
    },
    {
      "midi": 84,
      "hit": false,
      "t": 151764.54399999778,
      "d": 110.29399999999441,
      "v": 127
    },
    {
      "midi": 88,
      "hit": false,
      "t": 151874.83799999778,
      "d": 110.29399999999441,
      "v": 127
    },
    {
      "midi": 76,
      "hit": false,
      "t": 151985.13199999777,
      "d": 110.29399999999441,
      "v": 124
    },
    {
      "midi": 84,
      "hit": false,
      "t": 151985.13199999777,
      "d": 110.29399999999441,
      "v": 127
    },
    {
      "midi": 32,
      "hit": false,
      "t": 151985.13200000007,
      "d": 220.58799999998882,
      "v": 127
    },
    {
      "midi": 44,
      "hit": false,
      "t": 151985.13200000007,
      "d": 220.58799999998882,
      "v": 127
    },
    {
      "midi": 88,
      "hit": false,
      "t": 152095.42599999777,
      "d": 110.29399999999441,
      "v": 127
    },
    {
      "midi": 76,
      "hit": false,
      "t": 152205.71999999776,
      "d": 110.29399999999441,
      "v": 127
    },
    {
      "midi": 84,
      "hit": false,
      "t": 152205.71999999776,
      "d": 110.29399999999441,
      "v": 127
    },
    {
      "midi": 31,
      "hit": false,
      "t": 152205.72000000006,
      "d": 220.58799999998882,
      "v": 127
    },
    {
      "midi": 43,
      "hit": false,
      "t": 152205.72000000006,
      "d": 220.58799999998882,
      "v": 127
    },
    {
      "midi": 88,
      "hit": false,
      "t": 152316.01399999775,
      "d": 110.29399999999441,
      "v": 127
    },
    {
      "midi": 76,
      "hit": false,
      "t": 152426.30799999775,
      "d": 110.29399999999441,
      "v": 126
    },
    {
      "midi": 84,
      "hit": false,
      "t": 152426.30799999775,
      "d": 110.29399999999441,
      "v": 127
    },
    {
      "midi": 88,
      "hit": false,
      "t": 152536.60199999774,
      "d": 110.29399999999441,
      "v": 127
    },
    {
      "midi": 87,
      "hit": false,
      "t": 152591.74899999774,
      "d": 55.146999999997206,
      "v": 127
    },
    {
      "midi": 99,
      "hit": false,
      "t": 152591.74899999774,
      "d": 55.146999999997206,
      "v": 127
    },
    {
      "midi": 76,
      "hit": false,
      "t": 152646.89599999774,
      "d": 110.29399999999441,
      "v": 127
    },
    {
      "midi": 84,
      "hit": false,
      "t": 152646.89599999774,
      "d": 110.29399999999441,
      "v": 127
    },
    {
      "midi": 100,
      "hit": false,
      "t": 152646.89599999774,
      "d": 220.58799999998882,
      "v": 127
    },
    {
      "midi": 88,
      "hit": false,
      "t": 152757.18999999773,
      "d": 110.29399999999441,
      "v": 127
    },
    {
      "midi": 76,
      "hit": false,
      "t": 152867.48399999773,
      "d": 110.29399999999441,
      "v": 127
    },
    {
      "midi": 84,
      "hit": false,
      "t": 152867.48399999773,
      "d": 110.29399999999441,
      "v": 127
    },
    {
      "midi": 88,
      "hit": false,
      "t": 152977.77799999772,
      "d": 110.29399999999441,
      "v": 127
    },
    {
      "midi": 76,
      "hit": false,
      "t": 153088.07199999772,
      "d": 110.29399999999441,
      "v": 127
    },
    {
      "midi": 84,
      "hit": false,
      "t": 153088.07199999772,
      "d": 110.29399999999441,
      "v": 127
    },
    {
      "midi": 33,
      "hit": false,
      "t": 153088.07200000004,
      "d": 220.58799999998882,
      "v": 127
    },
    {
      "midi": 45,
      "hit": false,
      "t": 153088.07200000004,
      "d": 220.58799999998882,
      "v": 127
    },
    {
      "midi": 88,
      "hit": false,
      "t": 153198.3659999977,
      "d": 110.29399999999441,
      "v": 127
    },
    {
      "midi": 76,
      "hit": false,
      "t": 153308.6599999977,
      "d": 110.29399999999441,
      "v": 126
    },
    {
      "midi": 84,
      "hit": false,
      "t": 153308.6599999977,
      "d": 110.29399999999441,
      "v": 127
    },
    {
      "midi": 88,
      "hit": false,
      "t": 153418.9539999977,
      "d": 110.29399999999441,
      "v": 127
    },
    {
      "midi": 87,
      "hit": false,
      "t": 153474.1009999977,
      "d": 55.146999999997206,
      "v": 127
    },
    {
      "midi": 99,
      "hit": false,
      "t": 153474.1009999977,
      "d": 55.146999999997206,
      "v": 127
    },
    {
      "midi": 76,
      "hit": false,
      "t": 153529.2479999977,
      "d": 110.29399999999441,
      "v": 127
    },
    {
      "midi": 84,
      "hit": false,
      "t": 153529.2479999977,
      "d": 110.29399999999441,
      "v": 127
    },
    {
      "midi": 100,
      "hit": false,
      "t": 153529.2479999977,
      "d": 220.58799999998882,
      "v": 127
    },
    {
      "midi": 88,
      "hit": false,
      "t": 153639.5419999977,
      "d": 110.29399999999441,
      "v": 127
    },
    {
      "midi": 76,
      "hit": false,
      "t": 153749.83599999768,
      "d": 110.29399999999441,
      "v": 125
    },
    {
      "midi": 84,
      "hit": false,
      "t": 153749.83599999768,
      "d": 110.29399999999441,
      "v": 127
    },
    {
      "midi": 88,
      "hit": false,
      "t": 153860.12999999768,
      "d": 110.29399999999441,
      "v": 127
    },
    {
      "midi": 76,
      "hit": false,
      "t": 153970.42399999767,
      "d": 110.29399999999441,
      "v": 127
    },
    {
      "midi": 84,
      "hit": false,
      "t": 153970.42399999767,
      "d": 110.29399999999441,
      "v": 127
    },
    {
      "midi": 34,
      "hit": false,
      "t": 153970.42400000003,
      "d": 220.58799999998882,
      "v": 127
    },
    {
      "midi": 46,
      "hit": false,
      "t": 153970.42400000003,
      "d": 220.58799999998882,
      "v": 127
    },
    {
      "midi": 88,
      "hit": false,
      "t": 154080.71799999767,
      "d": 110.29399999999441,
      "v": 127
    },
    {
      "midi": 76,
      "hit": false,
      "t": 154191.01199999766,
      "d": 110.29399999999441,
      "v": 126
    },
    {
      "midi": 84,
      "hit": false,
      "t": 154191.01199999766,
      "d": 110.29399999999441,
      "v": 127
    },
    {
      "midi": 88,
      "hit": false,
      "t": 154301.30599999765,
      "d": 110.29399999999441,
      "v": 127
    },
    {
      "midi": 87,
      "hit": false,
      "t": 154356.45299999765,
      "d": 55.146999999997206,
      "v": 127
    },
    {
      "midi": 99,
      "hit": false,
      "t": 154356.45299999765,
      "d": 55.146999999997206,
      "v": 127
    },
    {
      "midi": 76,
      "hit": false,
      "t": 154411.59999999765,
      "d": 110.29399999999441,
      "v": 127
    },
    {
      "midi": 84,
      "hit": false,
      "t": 154411.59999999765,
      "d": 110.29399999999441,
      "v": 127
    },
    {
      "midi": 100,
      "hit": false,
      "t": 154411.59999999765,
      "d": 220.58799999998882,
      "v": 127
    },
    {
      "midi": 88,
      "hit": false,
      "t": 154521.89399999764,
      "d": 110.29399999999441,
      "v": 127
    },
    {
      "midi": 76,
      "hit": false,
      "t": 154632.18799999764,
      "d": 110.29399999999441,
      "v": 127
    },
    {
      "midi": 84,
      "hit": false,
      "t": 154632.18799999764,
      "d": 110.29399999999441,
      "v": 127
    },
    {
      "midi": 88,
      "hit": false,
      "t": 154742.48199999763,
      "d": 110.29399999999441,
      "v": 127
    },
    {
      "midi": 76,
      "hit": false,
      "t": 154852.77599999763,
      "d": 110.29399999999441,
      "v": 127
    },
    {
      "midi": 84,
      "hit": false,
      "t": 154852.77599999763,
      "d": 110.29399999999441,
      "v": 127
    },
    {
      "midi": 35,
      "hit": false,
      "t": 154852.776,
      "d": 220.58799999998882,
      "v": 127
    },
    {
      "midi": 47,
      "hit": false,
      "t": 154852.776,
      "d": 220.58799999998882,
      "v": 127
    },
    {
      "midi": 88,
      "hit": false,
      "t": 154963.06999999762,
      "d": 110.29399999999441,
      "v": 127
    },
    {
      "midi": 76,
      "hit": false,
      "t": 155073.36399999761,
      "d": 110.29399999999441,
      "v": 126
    },
    {
      "midi": 84,
      "hit": false,
      "t": 155073.36399999761,
      "d": 110.29399999999441,
      "v": 127
    },
    {
      "midi": 88,
      "hit": false,
      "t": 155183.6579999976,
      "d": 110.29399999999441,
      "v": 127
    },
    {
      "midi": 87,
      "hit": false,
      "t": 155238.8049999976,
      "d": 55.146999999997206,
      "v": 127
    },
    {
      "midi": 99,
      "hit": false,
      "t": 155238.8049999976,
      "d": 55.146999999997206,
      "v": 127
    },
    {
      "midi": 76,
      "hit": false,
      "t": 155293.9519999976,
      "d": 110.29399999999441,
      "v": 127
    },
    {
      "midi": 84,
      "hit": false,
      "t": 155293.9519999976,
      "d": 110.29399999999441,
      "v": 127
    },
    {
      "midi": 100,
      "hit": false,
      "t": 155293.9519999976,
      "d": 220.58799999998882,
      "v": 127
    },
    {
      "midi": 88,
      "hit": false,
      "t": 155404.2459999976,
      "d": 110.29399999999441,
      "v": 127
    },
    {
      "midi": 76,
      "hit": false,
      "t": 155514.5399999976,
      "d": 110.29399999999441,
      "v": 125
    },
    {
      "midi": 84,
      "hit": false,
      "t": 155514.5399999976,
      "d": 110.29399999999441,
      "v": 127
    },
    {
      "midi": 88,
      "hit": false,
      "t": 155624.8339999976,
      "d": 110.29399999999441,
      "v": 127
    },
    {
      "midi": 72,
      "hit": false,
      "t": 155735.12799999758,
      "d": 220.58799999998882,
      "v": 127
    },
    {
      "midi": 76,
      "hit": false,
      "t": 155735.12799999758,
      "d": 220.58799999998882,
      "v": 127
    },
    {
      "midi": 84,
      "hit": false,
      "t": 155735.12799999758,
      "d": 220.58799999998882,
      "v": 125
    },
    {
      "midi": 36,
      "hit": false,
      "t": 155735.128,
      "d": 220.58799999998882,
      "v": 127
    },
    {
      "midi": 48,
      "hit": false,
      "t": 155735.128,
      "d": 220.58799999998882,
      "v": 127
    },
    {
      "midi": 71,
      "hit": false,
      "t": 155955.71599999757,
      "d": 220.58799999998882,
      "v": 127
    },
    {
      "midi": 74,
      "hit": false,
      "t": 155955.71599999757,
      "d": 220.58799999998882,
      "v": 127
    },
    {
      "midi": 83,
      "hit": false,
      "t": 155955.71599999757,
      "d": 220.58799999998882,
      "v": 125
    },
    {
      "midi": 31,
      "hit": false,
      "t": 155955.716,
      "d": 220.58799999998882,
      "v": 127
    },
    {
      "midi": 43,
      "hit": false,
      "t": 155955.716,
      "d": 220.58799999998882,
      "v": 127
    },
    {
      "midi": 72,
      "hit": false,
      "t": 156176.30399999756,
      "d": 220.58799999998882,
      "v": 126
    },
    {
      "midi": 76,
      "hit": false,
      "t": 156176.30399999756,
      "d": 220.58799999998882,
      "v": 127
    },
    {
      "midi": 84,
      "hit": false,
      "t": 156176.30399999756,
      "d": 220.58799999998882,
      "v": 110
    },
    {
      "midi": 36,
      "hit": false,
      "t": 156176.30399999997,
      "d": 220.58799999998882,
      "v": 127
    },
    {
      "midi": 48,
      "hit": false,
      "t": 156176.30399999997,
      "d": 220.58799999998882,
      "v": 127
    },
    {
      "midi": 71,
      "hit": false,
      "t": 156396.89199999755,
      "d": 220.58799999998882,
      "v": 124
    },
    {
      "midi": 74,
      "hit": false,
      "t": 156396.89199999755,
      "d": 220.58799999998882,
      "v": 127
    },
    {
      "midi": 83,
      "hit": false,
      "t": 156396.89199999755,
      "d": 220.58799999998882,
      "v": 118
    },
    {
      "midi": 31,
      "hit": false,
      "t": 156396.89199999996,
      "d": 220.58799999998882,
      "v": 127
    },
    {
      "midi": 43,
      "hit": false,
      "t": 156396.89199999996,
      "d": 220.58799999998882,
      "v": 127
    },
    {
      "midi": 72,
      "hit": false,
      "t": 156617.47999999754,
      "d": 220.58799999998882,
      "v": 126
    },
    {
      "midi": 76,
      "hit": false,
      "t": 156617.47999999754,
      "d": 220.58799999998882,
      "v": 127
    },
    {
      "midi": 84,
      "hit": false,
      "t": 156617.47999999754,
      "d": 220.58799999998882,
      "v": 127
    },
    {
      "midi": 36,
      "hit": false,
      "t": 156617.47999999995,
      "d": 220.58799999998882,
      "v": 127
    },
    {
      "midi": 48,
      "hit": false,
      "t": 156617.47999999995,
      "d": 220.58799999998882,
      "v": 127
    },
    {
      "midi": 71,
      "hit": false,
      "t": 156838.06799999753,
      "d": 220.58799999998882,
      "v": 117
    },
    {
      "midi": 74,
      "hit": false,
      "t": 156838.06799999753,
      "d": 220.58799999998882,
      "v": 127
    },
    {
      "midi": 83,
      "hit": false,
      "t": 156838.06799999753,
      "d": 220.58799999998882,
      "v": 117
    },
    {
      "midi": 31,
      "hit": false,
      "t": 156838.06799999994,
      "d": 220.58799999998882,
      "v": 127
    },
    {
      "midi": 43,
      "hit": false,
      "t": 156838.06799999994,
      "d": 220.58799999998882,
      "v": 127
    },
    {
      "midi": 72,
      "hit": false,
      "t": 157058.6559999975,
      "d": 220.58799999998882,
      "v": 125
    },
    {
      "midi": 76,
      "hit": false,
      "t": 157058.6559999975,
      "d": 220.58799999998882,
      "v": 127
    },
    {
      "midi": 84,
      "hit": false,
      "t": 157058.6559999975,
      "d": 220.58799999998882,
      "v": 118
    },
    {
      "midi": 36,
      "hit": false,
      "t": 157058.65599999993,
      "d": 220.58799999998882,
      "v": 127
    },
    {
      "midi": 48,
      "hit": false,
      "t": 157058.65599999993,
      "d": 220.58799999998882,
      "v": 127
    },
    {
      "midi": 71,
      "hit": false,
      "t": 157279.2439999975,
      "d": 220.58799999998882,
      "v": 122
    },
    {
      "midi": 74,
      "hit": false,
      "t": 157279.2439999975,
      "d": 220.58799999998882,
      "v": 123
    },
    {
      "midi": 83,
      "hit": false,
      "t": 157279.2439999975,
      "d": 220.58799999998882,
      "v": 119
    },
    {
      "midi": 31,
      "hit": false,
      "t": 157279.24399999992,
      "d": 220.58799999998882,
      "v": 127
    },
    {
      "midi": 43,
      "hit": false,
      "t": 157279.24399999992,
      "d": 220.58799999998882,
      "v": 127
    },
    {
      "midi": 72,
      "hit": false,
      "t": 157499.8319999975,
      "d": 220.58799999998882,
      "v": 118
    },
    {
      "midi": 76,
      "hit": false,
      "t": 157499.8319999975,
      "d": 220.58799999998882,
      "v": 125
    },
    {
      "midi": 84,
      "hit": false,
      "t": 157499.8319999975,
      "d": 220.58799999998882,
      "v": 118
    },
    {
      "midi": 88,
      "hit": false,
      "t": 157499.8319999975,
      "d": 220.58799999998882,
      "v": 125
    },
    {
      "midi": 96,
      "hit": false,
      "t": 157499.8319999975,
      "d": 220.58799999998882,
      "v": 123
    },
    {
      "midi": 36,
      "hit": false,
      "t": 157499.8319999999,
      "d": 220.58799999998882,
      "v": 127
    },
    {
      "midi": 48,
      "hit": false,
      "t": 157499.8319999999,
      "d": 220.58799999998882,
      "v": 127
    },
    {
      "midi": 71,
      "hit": false,
      "t": 157720.41999999748,
      "d": 220.58799999998882,
      "v": 115
    },
    {
      "midi": 74,
      "hit": false,
      "t": 157720.41999999748,
      "d": 220.58799999998882,
      "v": 124
    },
    {
      "midi": 83,
      "hit": false,
      "t": 157720.41999999748,
      "d": 220.58799999998882,
      "v": 115
    },
    {
      "midi": 86,
      "hit": false,
      "t": 157720.41999999748,
      "d": 220.58799999998882,
      "v": 124
    },
    {
      "midi": 95,
      "hit": false,
      "t": 157720.41999999748,
      "d": 220.58799999998882,
      "v": 117
    },
    {
      "midi": 31,
      "hit": false,
      "t": 157720.4199999999,
      "d": 220.58799999998882,
      "v": 127
    },
    {
      "midi": 43,
      "hit": false,
      "t": 157720.4199999999,
      "d": 220.58799999998882,
      "v": 127
    },
    {
      "midi": 72,
      "hit": false,
      "t": 157941.00799999747,
      "d": 220.58799999998882,
      "v": 118
    },
    {
      "midi": 76,
      "hit": false,
      "t": 157941.00799999747,
      "d": 220.58799999998882,
      "v": 122
    },
    {
      "midi": 84,
      "hit": false,
      "t": 157941.00799999747,
      "d": 220.58799999998882,
      "v": 118
    },
    {
      "midi": 88,
      "hit": false,
      "t": 157941.00799999747,
      "d": 220.58799999998882,
      "v": 122
    },
    {
      "midi": 96,
      "hit": false,
      "t": 157941.00799999747,
      "d": 220.58799999998882,
      "v": 117
    },
    {
      "midi": 36,
      "hit": false,
      "t": 157941.00799999989,
      "d": 220.58799999998882,
      "v": 127
    },
    {
      "midi": 48,
      "hit": false,
      "t": 157941.00799999989,
      "d": 220.58799999998882,
      "v": 127
    },
    {
      "midi": 71,
      "hit": false,
      "t": 158161.59599999746,
      "d": 220.58799999998882,
      "v": 112
    },
    {
      "midi": 74,
      "hit": false,
      "t": 158161.59599999746,
      "d": 220.58799999998882,
      "v": 123
    },
    {
      "midi": 83,
      "hit": false,
      "t": 158161.59599999746,
      "d": 220.58799999998882,
      "v": 112
    },
    {
      "midi": 86,
      "hit": false,
      "t": 158161.59599999746,
      "d": 220.58799999998882,
      "v": 123
    },
    {
      "midi": 95,
      "hit": false,
      "t": 158161.59599999746,
      "d": 220.58799999998882,
      "v": 123
    },
    {
      "midi": 31,
      "hit": false,
      "t": 158161.59599999987,
      "d": 220.58799999998882,
      "v": 127
    },
    {
      "midi": 43,
      "hit": false,
      "t": 158161.59599999987,
      "d": 220.58799999998882,
      "v": 127
    },
    {
      "midi": 72,
      "hit": false,
      "t": 158382.18399999745,
      "d": 220.58799999998882,
      "v": 118
    },
    {
      "midi": 76,
      "hit": false,
      "t": 158382.18399999745,
      "d": 220.58799999998882,
      "v": 124
    },
    {
      "midi": 84,
      "hit": false,
      "t": 158382.18399999745,
      "d": 220.58799999998882,
      "v": 118
    },
    {
      "midi": 88,
      "hit": false,
      "t": 158382.18399999745,
      "d": 220.58799999998882,
      "v": 124
    },
    {
      "midi": 96,
      "hit": false,
      "t": 158382.18399999745,
      "d": 220.58799999998882,
      "v": 123
    },
    {
      "midi": 36,
      "hit": false,
      "t": 158382.18399999986,
      "d": 220.58799999998882,
      "v": 127
    },
    {
      "midi": 48,
      "hit": false,
      "t": 158382.18399999986,
      "d": 220.58799999998882,
      "v": 127
    },
    {
      "midi": 71,
      "hit": false,
      "t": 158602.77199999744,
      "d": 220.58799999998882,
      "v": 113
    },
    {
      "midi": 74,
      "hit": false,
      "t": 158602.77199999744,
      "d": 220.58799999998882,
      "v": 123
    },
    {
      "midi": 83,
      "hit": false,
      "t": 158602.77199999744,
      "d": 220.58799999998882,
      "v": 113
    },
    {
      "midi": 86,
      "hit": false,
      "t": 158602.77199999744,
      "d": 220.58799999998882,
      "v": 123
    },
    {
      "midi": 95,
      "hit": false,
      "t": 158602.77199999744,
      "d": 220.58799999998882,
      "v": 112
    },
    {
      "midi": 31,
      "hit": false,
      "t": 158602.77199999985,
      "d": 220.58799999998882,
      "v": 127
    },
    {
      "midi": 43,
      "hit": false,
      "t": 158602.77199999985,
      "d": 220.58799999998882,
      "v": 127
    },
    {
      "midi": 72,
      "hit": false,
      "t": 158823.35999999742,
      "d": 220.58799999998882,
      "v": 117
    },
    {
      "midi": 76,
      "hit": false,
      "t": 158823.35999999742,
      "d": 220.58799999998882,
      "v": 123
    },
    {
      "midi": 84,
      "hit": false,
      "t": 158823.35999999742,
      "d": 220.58799999998882,
      "v": 117
    },
    {
      "midi": 88,
      "hit": false,
      "t": 158823.35999999742,
      "d": 220.58799999998882,
      "v": 123
    },
    {
      "midi": 96,
      "hit": false,
      "t": 158823.35999999742,
      "d": 220.58799999998882,
      "v": 124
    },
    {
      "midi": 36,
      "hit": false,
      "t": 158823.35999999984,
      "d": 220.58799999998882,
      "v": 127
    },
    {
      "midi": 48,
      "hit": false,
      "t": 158823.35999999984,
      "d": 220.58799999998882,
      "v": 127
    },
    {
      "midi": 71,
      "hit": false,
      "t": 159043.9479999974,
      "d": 220.58799999998882,
      "v": 124
    },
    {
      "midi": 74,
      "hit": false,
      "t": 159043.9479999974,
      "d": 220.58799999998882,
      "v": 125
    },
    {
      "midi": 83,
      "hit": false,
      "t": 159043.9479999974,
      "d": 220.58799999998882,
      "v": 124
    },
    {
      "midi": 86,
      "hit": false,
      "t": 159043.9479999974,
      "d": 220.58799999998882,
      "v": 125
    },
    {
      "midi": 95,
      "hit": false,
      "t": 159043.9479999974,
      "d": 220.58799999998882,
      "v": 119
    },
    {
      "midi": 31,
      "hit": false,
      "t": 159043.94799999983,
      "d": 220.58799999998882,
      "v": 127
    },
    {
      "midi": 43,
      "hit": false,
      "t": 159043.94799999983,
      "d": 220.58799999998882,
      "v": 127
    },
    {
      "midi": 67,
      "hit": false,
      "t": 159264.5359999974,
      "d": 441.17600000000675,
      "v": 127
    },
    {
      "midi": 72,
      "hit": false,
      "t": 159264.5359999974,
      "d": 441.17600000000675,
      "v": 127
    },
    {
      "midi": 76,
      "hit": false,
      "t": 159264.5359999974,
      "d": 441.17600000000675,
      "v": 127
    },
    {
      "midi": 79,
      "hit": false,
      "t": 159264.5359999974,
      "d": 441.17600000000675,
      "v": 127
    },
    {
      "midi": 84,
      "hit": false,
      "t": 159264.5359999974,
      "d": 441.17600000000675,
      "v": 127
    },
    {
      "midi": 88,
      "hit": false,
      "t": 159264.5359999974,
      "d": 441.17600000000675,
      "v": 127
    },
    {
      "midi": 96,
      "hit": false,
      "t": 159264.5359999974,
      "d": 441.17600000000675,
      "v": 127
    },
    {
      "midi": 36,
      "hit": false,
      "t": 159264.53599999982,
      "d": 441.17600000000675,
      "v": 127
    },
    {
      "midi": 48,
      "hit": false,
      "t": 159264.53599999982,
      "d": 441.17600000000675,
      "v": 127
    },
    {
      "midi": 72,
      "hit": false,
      "t": 160146.88799999742,
      "d": 441.17600000000675,
      "v": 127
    },
    {
      "midi": 76,
      "hit": false,
      "t": 160146.88799999742,
      "d": 441.17600000000675,
      "v": 127
    },
    {
      "midi": 79,
      "hit": false,
      "t": 160146.88799999742,
      "d": 441.17600000000675,
      "v": 127
    },
    {
      "midi": 84,
      "hit": false,
      "t": 160146.88799999742,
      "d": 441.17600000000675,
      "v": 127
    },
    {
      "midi": 88,
      "hit": false,
      "t": 160146.88799999742,
      "d": 441.17600000000675,
      "v": 127
    },
    {
      "midi": 91,
      "hit": false,
      "t": 160146.88799999742,
      "d": 441.17600000000675,
      "v": 127
    },
    {
      "midi": 96,
      "hit": false,
      "t": 160146.88799999742,
      "d": 441.17600000000675,
      "v": 127
    },
    {
      "midi": 100,
      "hit": false,
      "t": 160146.88799999742,
      "d": 441.17600000000675,
      "v": 127
    },
    {
      "midi": 36,
      "hit": false,
      "t": 160146.88799999983,
      "d": 441.17600000000675,
      "v": 127
    },
    {
      "midi": 48,
      "hit": false,
      "t": 160146.88799999983,
      "d": 441.17600000000675,
      "v": 127
    },
    {
      "midi": 60,
      "hit": false,
      "t": 161029.23999999743,
      "d": 441.17600000000675,
      "v": 127
    },
    {
      "midi": 64,
      "hit": false,
      "t": 161029.23999999743,
      "d": 441.17600000000675,
      "v": 127
    },
    {
      "midi": 67,
      "hit": false,
      "t": 161029.23999999743,
      "d": 441.17600000000675,
      "v": 127
    },
    {
      "midi": 72,
      "hit": false,
      "t": 161029.23999999743,
      "d": 441.17600000000675,
      "v": 127
    },
    {
      "midi": 24,
      "hit": false,
      "t": 161029.23999999985,
      "d": 441.17600000000675,
      "v": 127
    },
    {
      "midi": 36,
      "hit": false,
      "t": 161029.23999999985,
      "d": 441.17600000000675,
      "v": 127
    }
  ]
}