{
  "jsonPath": "Classical/Classical/Sergei Rachmaninoff/song-without-words-op-67-no-4.json",
  "path": "Classical\\Classical\\Sergei Rachmaninoff\\Song Without Words_ Op 67_ No 4.mid",
  "name": "Song Without Words_ Op 67_ No 4",
  "difficulty": "Advanced",
  "bpm": 120,
  "notes": [
    {
      "midi": 67,
      "hit": false,
      "t": 3691.6666666666665,
      "d": 62.5,
      "v": 67
    },
    {
      "midi": 68,
      "hit": false,
      "t": 3781.25,
      "d": 52.083333333333485,
      "v": 54
    },
    {
      "midi": 67,
      "hit": false,
      "t": 3866.666666666667,
      "d": 56.25,
      "v": 42
    },
    {
      "midi": 66,
      "hit": false,
      "t": 3947.916666666667,
      "d": 54.166666666666515,
      "v": 53
    },
    {
      "midi": 65,
      "hit": false,
      "t": 4031.25,
      "d": 18.75,
      "v": 51
    },
    {
      "midi": 66,
      "hit": false,
      "t": 4110.416666666667,
      "d": 52.08333333333303,
      "v": 45
    },
    {
      "midi": 67,
      "hit": false,
      "t": 4195.833333333334,
      "d": 60.41666666666788,
      "v": 62
    },
    {
      "midi": 68,
      "hit": false,
      "t": 4279.166666666669,
      "d": 50,
      "v": 54
    },
    {
      "midi": 67,
      "hit": false,
      "t": 4360.416666666669,
      "d": 60.41666666666697,
      "v": 46
    },
    {
      "midi": 66,
      "hit": false,
      "t": 4441.666666666669,
      "d": 50,
      "v": 56
    },
    {
      "midi": 65,
      "hit": false,
      "t": 4527.083333333335,
      "d": 39.58333333333303,
      "v": 51
    },
    {
      "midi": 66,
      "hit": false,
      "t": 4608.333333333335,
      "d": 45.83333333333303,
      "v": 58
    },
    {
      "midi": 67,
      "hit": false,
      "t": 4695.833333333335,
      "d": 66.66666666666697,
      "v": 66
    },
    {
      "midi": 68,
      "hit": false,
      "t": 4775.000000000002,
      "d": 62.5,
      "v": 56
    },
    {
      "midi": 67,
      "hit": false,
      "t": 4862.500000000002,
      "d": 60.41666666666697,
      "v": 47
    },
    {
      "midi": 66,
      "hit": false,
      "t": 4941.666666666669,
      "d": 50,
      "v": 57
    },
    {
      "midi": 65,
      "hit": false,
      "t": 5025.000000000002,
      "d": 47.91666666666697,
      "v": 54
    },
    {
      "midi": 66,
      "hit": false,
      "t": 5102.083333333336,
      "d": 68.75,
      "v": 59
    },
    {
      "midi": 67,
      "hit": false,
      "t": 5189.583333333336,
      "d": 81.25,
      "v": 61
    },
    {
      "midi": 69,
      "hit": false,
      "t": 5270.833333333336,
      "d": 79.16666666666697,
      "v": 59
    },
    {
      "midi": 67,
      "hit": false,
      "t": 5362.500000000003,
      "d": 77.08333333333394,
      "v": 55
    },
    {
      "midi": 65,
      "hit": false,
      "t": 5435.41666666667,
      "d": 47.91666666666697,
      "v": 65
    },
    {
      "midi": 76,
      "hit": false,
      "t": 5520.833333333337,
      "d": 56.25,
      "v": 77
    },
    {
      "midi": 55,
      "hit": false,
      "t": 5522.91666666667,
      "d": 43.75,
      "v": 57
    },
    {
      "midi": 64,
      "hit": false,
      "t": 5522.91666666667,
      "d": 60.41666666666697,
      "v": 74
    },
    {
      "midi": 48,
      "hit": false,
      "t": 5527.083333333337,
      "d": 45.83333333333303,
      "v": 47
    },
    {
      "midi": 74,
      "hit": false,
      "t": 5704.16666666667,
      "d": 125,
      "v": 78
    },
    {
      "midi": 57,
      "hit": false,
      "t": 5716.66666666667,
      "d": 89.58333333333303,
      "v": 69
    },
    {
      "midi": 48,
      "hit": false,
      "t": 5718.750000000003,
      "d": 72.91666666666697,
      "v": 61
    },
    {
      "midi": 65,
      "hit": false,
      "t": 5810.41666666667,
      "d": 54.16666666666697,
      "v": 49
    },
    {
      "midi": 64,
      "hit": false,
      "t": 5883.333333333337,
      "d": 45.83333333333303,
      "v": 51
    },
    {
      "midi": 65,
      "hit": false,
      "t": 5960.41666666667,
      "d": 60.41666666666697,
      "v": 58
    },
    {
      "midi": 72,
      "hit": false,
      "t": 6035.41666666667,
      "d": 72.91666666666606,
      "v": 72
    },
    {
      "midi": 57,
      "hit": false,
      "t": 6047.91666666667,
      "d": 27.08333333333303,
      "v": 63
    },
    {
      "midi": 48,
      "hit": false,
      "t": 6050.000000000003,
      "d": 16.66666666666697,
      "v": 49
    },
    {
      "midi": 65,
      "hit": false,
      "t": 6118.750000000003,
      "d": 45.83333333333303,
      "v": 67
    },
    {
      "midi": 71,
      "hit": false,
      "t": 6220.833333333336,
      "d": 125.00000000000091,
      "v": 80
    },
    {
      "midi": 62,
      "hit": false,
      "t": 6225.000000000003,
      "d": 75.00000000000091,
      "v": 62
    },
    {
      "midi": 48,
      "hit": false,
      "t": 6229.16666666667,
      "d": 66.66666666666697,
      "v": 57
    },
    {
      "midi": 65,
      "hit": false,
      "t": 6314.583333333337,
      "d": 58.33333333333303,
      "v": 60
    },
    {
      "midi": 64,
      "hit": false,
      "t": 6393.750000000003,
      "d": 43.75,
      "v": 58
    },
    {
      "midi": 65,
      "hit": false,
      "t": 6472.91666666667,
      "d": 64.58333333333303,
      "v": 59
    },
    {
      "midi": 69,
      "hit": false,
      "t": 6558.333333333336,
      "d": 81.25,
      "v": 61
    },
    {
      "midi": 59,
      "hit": false,
      "t": 6560.416666666669,
      "d": 35.41666666666697,
      "v": 64
    },
    {
      "midi": 48,
      "hit": false,
      "t": 6566.666666666669,
      "d": 18.75,
      "v": 49
    },
    {
      "midi": 65,
      "hit": false,
      "t": 6639.583333333336,
      "d": 62.5,
      "v": 66
    },
    {
      "midi": 67,
      "hit": false,
      "t": 6737.500000000003,
      "d": 122.91666666666697,
      "v": 76
    },
    {
      "midi": 60,
      "hit": false,
      "t": 6741.66666666667,
      "d": 202.08333333333212,
      "v": 61
    },
    {
      "midi": 48,
      "hit": false,
      "t": 6747.91666666667,
      "d": 152.08333333333303,
      "v": 59
    },
    {
      "midi": 64,
      "hit": false,
      "t": 6860.41666666667,
      "d": 66.66666666666606,
      "v": 62
    },
    {
      "midi": 63,
      "hit": false,
      "t": 6941.666666666669,
      "d": 58.33333333333303,
      "v": 72
    },
    {
      "midi": 64,
      "hit": false,
      "t": 7020.833333333335,
      "d": 58.33333333333303,
      "v": 61
    },
    {
      "midi": 60,
      "hit": false,
      "t": 7102.083333333335,
      "d": 64.58333333333303,
      "v": 55
    },
    {
      "midi": 67,
      "hit": false,
      "t": 7114.583333333335,
      "d": 52.08333333333303,
      "v": 62
    },
    {
      "midi": 64,
      "hit": false,
      "t": 7185.416666666668,
      "d": 64.58333333333303,
      "v": 59
    },
    {
      "midi": 67,
      "hit": false,
      "t": 7289.583333333334,
      "d": 45.83333333333303,
      "v": 55
    },
    {
      "midi": 59,
      "hit": false,
      "t": 7289.583333333334,
      "d": 62.5,
      "v": 55
    },
    {
      "midi": 62,
      "hit": false,
      "t": 7379.166666666667,
      "d": 64.58333333333303,
      "v": 44
    },
    {
      "midi": 59,
      "hit": false,
      "t": 7464.583333333333,
      "d": 60.41666666666697,
      "v": 58
    },
    {
      "midi": 66,
      "hit": false,
      "t": 7468.75,
      "d": 29.16666666666606,
      "v": 56
    },
    {
      "midi": 69,
      "hit": false,
      "t": 7470.833333333333,
      "d": 37.5,
      "v": 57
    },
    {
      "midi": 62,
      "hit": false,
      "t": 7547.916666666667,
      "d": 72.91666666666697,
      "v": 43
    },
    {
      "midi": 59,
      "hit": false,
      "t": 7637.500000000001,
      "d": 68.75000000000091,
      "v": 61
    },
    {
      "midi": 71,
      "hit": false,
      "t": 7645.833333333334,
      "d": 43.75000000000091,
      "v": 77
    },
    {
      "midi": 67,
      "hit": false,
      "t": 7656.250000000001,
      "d": 16.66666666666697,
      "v": 47
    },
    {
      "midi": 62,
      "hit": false,
      "t": 7722.916666666669,
      "d": 64.58333333333303,
      "v": 47
    },
    {
      "midi": 74,
      "hit": false,
      "t": 7812.500000000002,
      "d": 41.66666666666697,
      "v": 69
    },
    {
      "midi": 57,
      "hit": false,
      "t": 7814.583333333335,
      "d": 64.58333333333394,
      "v": 64
    },
    {
      "midi": 72,
      "hit": false,
      "t": 7814.583333333335,
      "d": 75.00000000000091,
      "v": 74
    },
    {
      "midi": 67,
      "hit": false,
      "t": 7825.000000000002,
      "d": 16.66666666666697,
      "v": 53
    },
    {
      "midi": 64,
      "hit": false,
      "t": 7906.250000000003,
      "d": 64.58333333333303,
      "v": 46
    },
    {
      "midi": 57,
      "hit": false,
      "t": 7981.250000000003,
      "d": 64.58333333333394,
      "v": 58
    },
    {
      "midi": 71,
      "hit": false,
      "t": 7985.41666666667,
      "d": 47.91666666666697,
      "v": 77
    },
    {
      "midi": 67,
      "hit": false,
      "t": 7995.833333333337,
      "d": 37.5,
      "v": 53
    },
    {
      "midi": 64,
      "hit": false,
      "t": 8068.750000000004,
      "d": 95.83333333333303,
      "v": 45
    },
    {
      "midi": 72,
      "hit": false,
      "t": 8156.250000000004,
      "d": 47.91666666666606,
      "v": 73
    },
    {
      "midi": 57,
      "hit": false,
      "t": 8162.500000000004,
      "d": 68.75,
      "v": 61
    },
    {
      "midi": 67,
      "hit": false,
      "t": 8164.583333333337,
      "d": 35.41666666666697,
      "v": 59
    },
    {
      "midi": 64,
      "hit": false,
      "t": 8245.833333333338,
      "d": 41.66666666666606,
      "v": 66
    },
    {
      "midi": 50,
      "hit": false,
      "t": 8327.083333333338,
      "d": 89.58333333333212,
      "v": 70
    },
    {
      "midi": 72,
      "hit": false,
      "t": 8339.583333333338,
      "d": 66.66666666666606,
      "v": 75
    },
    {
      "midi": 65,
      "hit": false,
      "t": 8343.750000000004,
      "d": 47.91666666666606,
      "v": 72
    },
    {
      "midi": 62,
      "hit": false,
      "t": 8410.41666666667,
      "d": 64.58333333333394,
      "v": 66
    },
    {
      "midi": 76,
      "hit": false,
      "t": 8504.16666666667,
      "d": 62.5,
      "v": 75
    },
    {
      "midi": 50,
      "hit": false,
      "t": 8504.16666666667,
      "d": 68.75,
      "v": 72
    },
    {
      "midi": 65,
      "hit": false,
      "t": 8508.333333333336,
      "d": 39.58333333333394,
      "v": 61
    },
    {
      "midi": 60,
      "hit": false,
      "t": 8583.333333333336,
      "d": 75,
      "v": 66
    },
    {
      "midi": 50,
      "hit": false,
      "t": 8668.750000000002,
      "d": 102.08333333333576,
      "v": 70
    },
    {
      "midi": 74,
      "hit": false,
      "t": 8677.083333333336,
      "d": 35.41666666666788,
      "v": 78
    },
    {
      "midi": 65,
      "hit": false,
      "t": 8679.16666666667,
      "d": 39.58333333333394,
      "v": 70
    },
    {
      "midi": 59,
      "hit": false,
      "t": 8758.333333333338,
      "d": 41.66666666666606,
      "v": 71
    },
    {
      "midi": 55,
      "hit": false,
      "t": 8845.833333333338,
      "d": 81.25000000000182,
      "v": 74
    },
    {
      "midi": 72,
      "hit": false,
      "t": 8847.916666666672,
      "d": 70.83333333333394,
      "v": 69
    },
    {
      "midi": 65,
      "hit": false,
      "t": 8854.166666666672,
      "d": 37.5,
      "v": 70
    },
    {
      "midi": 64,
      "hit": false,
      "t": 8925.000000000005,
      "d": 70.83333333333394,
      "v": 61
    },
    {
      "midi": 55,
      "hit": false,
      "t": 9014.58333333334,
      "d": 114.58333333333394,
      "v": 72
    },
    {
      "midi": 71,
      "hit": false,
      "t": 9016.666666666673,
      "d": 77.08333333333394,
      "v": 77
    },
    {
      "midi": 65,
      "hit": false,
      "t": 9025.000000000007,
      "d": 41.66666666666606,
      "v": 64
    },
    {
      "midi": 62,
      "hit": false,
      "t": 9097.916666666673,
      "d": 72.91666666666606,
      "v": 56
    },
    {
      "midi": 55,
      "hit": false,
      "t": 9183.33333333334,
      "d": 104.16666666666606,
      "v": 71
    },
    {
      "midi": 69,
      "hit": false,
      "t": 9185.416666666673,
      "d": 47.91666666666606,
      "v": 80
    },
    {
      "midi": 65,
      "hit": false,
      "t": 9189.58333333334,
      "d": 50,
      "v": 66
    },
    {
      "midi": 60,
      "hit": false,
      "t": 9270.83333333334,
      "d": 60.41666666666606,
      "v": 62
    },
    {
      "midi": 59,
      "hit": false,
      "t": 9350.000000000005,
      "d": 116.66666666666606,
      "v": 80
    },
    {
      "midi": 67,
      "hit": false,
      "t": 9354.166666666672,
      "d": 100,
      "v": 74
    },
    {
      "midi": 65,
      "hit": false,
      "t": 9437.500000000005,
      "d": 56.25,
      "v": 70
    },
    {
      "midi": 64,
      "hit": false,
      "t": 9508.33333333334,
      "d": 79.16666666666788,
      "v": 60
    },
    {
      "midi": 65,
      "hit": false,
      "t": 9585.416666666673,
      "d": 60.41666666666788,
      "v": 64
    },
    {
      "midi": 76,
      "hit": false,
      "t": 9670.833333333341,
      "d": 56.25,
      "v": 72
    },
    {
      "midi": 55,
      "hit": false,
      "t": 9672.916666666675,
      "d": 39.58333333333212,
      "v": 57
    },
    {
      "midi": 48,
      "hit": false,
      "t": 9677.083333333341,
      "d": 18.75,
      "v": 58
    },
    {
      "midi": 64,
      "hit": false,
      "t": 9758.333333333341,
      "d": 54.16666666666606,
      "v": 61
    },
    {
      "midi": 74,
      "hit": false,
      "t": 9872.916666666673,
      "d": 85.41666666666788,
      "v": 73
    },
    {
      "midi": 57,
      "hit": false,
      "t": 9879.166666666673,
      "d": 58.33333333333394,
      "v": 64
    },
    {
      "midi": 48,
      "hit": false,
      "t": 9881.250000000007,
      "d": 58.33333333333394,
      "v": 55
    },
    {
      "midi": 65,
      "hit": false,
      "t": 9962.500000000007,
      "d": 52.08333333333394,
      "v": 57
    },
    {
      "midi": 64,
      "hit": false,
      "t": 10045.833333333341,
      "d": 64.58333333333394,
      "v": 52
    },
    {
      "midi": 65,
      "hit": false,
      "t": 10129.166666666675,
      "d": 58.33333333333394,
      "v": 59
    },
    {
      "midi": 72,
      "hit": false,
      "t": 10206.25000000001,
      "d": 70.83333333333394,
      "v": 66
    },
    {
      "midi": 57,
      "hit": false,
      "t": 10214.583333333343,
      "d": 35.41666666666606,
      "v": 64
    },
    {
      "midi": 48,
      "hit": false,
      "t": 10225.00000000001,
      "d": 16.66666666666606,
      "v": 46
    },
    {
      "midi": 65,
      "hit": false,
      "t": 10289.583333333343,
      "d": 64.58333333333394,
      "v": 63
    },
    {
      "midi": 71,
      "hit": false,
      "t": 10379.166666666677,
      "d": 108.33333333333394,
      "v": 76
    },
    {
      "midi": 62,
      "hit": false,
      "t": 10381.250000000011,
      "d": 64.58333333333394,
      "v": 60
    },
    {
      "midi": 48,
      "hit": false,
      "t": 10387.500000000011,
      "d": 52.08333333333394,
      "v": 56
    },
    {
      "midi": 65,
      "hit": false,
      "t": 10468.750000000011,
      "d": 56.25,
      "v": 61
    },
    {
      "midi": 64,
      "hit": false,
      "t": 10547.916666666677,
      "d": 54.16666666666606,
      "v": 59
    },
    {
      "midi": 65,
      "hit": false,
      "t": 10627.083333333343,
      "d": 62.5,
      "v": 65
    },
    {
      "midi": 69,
      "hit": false,
      "t": 10702.083333333343,
      "d": 77.08333333333394,
      "v": 61
    },
    {
      "midi": 59,
      "hit": false,
      "t": 10710.416666666677,
      "d": 35.41666666666606,
      "v": 64
    },
    {
      "midi": 48,
      "hit": false,
      "t": 10716.666666666677,
      "d": 16.66666666666606,
      "v": 56
    },
    {
      "midi": 65,
      "hit": false,
      "t": 10785.416666666677,
      "d": 56.25,
      "v": 62
    },
    {
      "midi": 67,
      "hit": false,
      "t": 10879.166666666677,
      "d": 85.41666666666788,
      "v": 71
    },
    {
      "midi": 60,
      "hit": false,
      "t": 10881.250000000011,
      "d": 172.91666666666788,
      "v": 61
    },
    {
      "midi": 48,
      "hit": false,
      "t": 10883.333333333345,
      "d": 125,
      "v": 63
    },
    {
      "midi": 64,
      "hit": false,
      "t": 10970.833333333345,
      "d": 58.33333333333394,
      "v": 53
    },
    {
      "midi": 63,
      "hit": false,
      "t": 11050.000000000013,
      "d": 56.25,
      "v": 65
    },
    {
      "midi": 64,
      "hit": false,
      "t": 11127.083333333347,
      "d": 47.91666666666606,
      "v": 52
    },
    {
      "midi": 67,
      "hit": false,
      "t": 11218.750000000013,
      "d": 45.83333333333394,
      "v": 50
    },
    {
      "midi": 60,
      "hit": false,
      "t": 11222.916666666679,
      "d": 56.25000000000182,
      "v": 51
    },
    {
      "midi": 64,
      "hit": false,
      "t": 11297.91666666668,
      "d": 60.41666666666606,
      "v": 50
    },
    {
      "midi": 59,
      "hit": false,
      "t": 11393.750000000013,
      "d": 52.08333333333394,
      "v": 52
    },
    {
      "midi": 67,
      "hit": false,
      "t": 11395.833333333347,
      "d": 45.83333333333394,
      "v": 53
    },
    {
      "midi": 62,
      "hit": false,
      "t": 11475.000000000013,
      "d": 70.83333333333394,
      "v": 39
    },
    {
      "midi": 59,
      "hit": false,
      "t": 11566.66666666668,
      "d": 60.41666666666606,
      "v": 53
    },
    {
      "midi": 66,
      "hit": false,
      "t": 11568.750000000015,
      "d": 29.16666666666606,
      "v": 51
    },
    {
      "midi": 69,
      "hit": false,
      "t": 11572.91666666668,
      "d": 22.91666666666606,
      "v": 52
    },
    {
      "midi": 62,
      "hit": false,
      "t": 11647.91666666668,
      "d": 68.75,
      "v": 45
    },
    {
      "midi": 59,
      "hit": false,
      "t": 11733.333333333347,
      "d": 66.66666666666606,
      "v": 56
    },
    {
      "midi": 71,
      "hit": false,
      "t": 11737.500000000013,
      "d": 43.75,
      "v": 70
    },
    {
      "midi": 67,
      "hit": false,
      "t": 11741.666666666679,
      "d": 39.58333333333394,
      "v": 49
    },
    {
      "midi": 62,
      "hit": false,
      "t": 11812.500000000013,
      "d": 58.33333333333394,
      "v": 54
    },
    {
      "midi": 57,
      "hit": false,
      "t": 11893.750000000013,
      "d": 70.83333333333394,
      "v": 64
    },
    {
      "midi": 74,
      "hit": false,
      "t": 11902.083333333347,
      "d": 66.66666666666606,
      "v": 70
    },
    {
      "midi": 67,
      "hit": false,
      "t": 11908.333333333347,
      "d": 50,
      "v": 57
    },
    {
      "midi": 64,
      "hit": false,
      "t": 11983.333333333347,
      "d": 66.66666666666606,
      "v": 63
    },
    {
      "midi": 72,
      "hit": false,
      "t": 12066.666666666679,
      "d": 104.16666666666606,
      "v": 67
    },
    {
      "midi": 57,
      "hit": false,
      "t": 12068.750000000013,
      "d": 68.74999999999818,
      "v": 58
    },
    {
      "midi": 69,
      "hit": false,
      "t": 12072.916666666679,
      "d": 41.66666666666606,
      "v": 63
    },
    {
      "midi": 64,
      "hit": false,
      "t": 12150.000000000011,
      "d": 77.08333333333394,
      "v": 55
    },
    {
      "midi": 57,
      "hit": false,
      "t": 12237.500000000011,
      "d": 70.83333333333212,
      "v": 65
    },
    {
      "midi": 71,
      "hit": false,
      "t": 12241.666666666677,
      "d": 33.33333333333394,
      "v": 80
    },
    {
      "midi": 67,
      "hit": false,
      "t": 12250.000000000011,
      "d": 35.41666666666606,
      "v": 62
    },
    {
      "midi": 64,
      "hit": false,
      "t": 12316.666666666677,
      "d": 39.58333333333394,
      "v": 70
    },
    {
      "midi": 50,
      "hit": false,
      "t": 12400.000000000011,
      "d": 72.91666666666606,
      "v": 66
    },
    {
      "midi": 69,
      "hit": false,
      "t": 12404.166666666677,
      "d": 64.58333333333394,
      "v": 74
    },
    {
      "midi": 66,
      "hit": false,
      "t": 12408.333333333343,
      "d": 45.83333333333394,
      "v": 72
    },
    {
      "midi": 60,
      "hit": false,
      "t": 12481.250000000011,
      "d": 56.25,
      "v": 61
    },
    {
      "midi": 50,
      "hit": false,
      "t": 12566.666666666677,
      "d": 62.5,
      "v": 74
    },
    {
      "midi": 71,
      "hit": false,
      "t": 12570.833333333343,
      "d": 64.58333333333394,
      "v": 77
    },
    {
      "midi": 66,
      "hit": false,
      "t": 12575.00000000001,
      "d": 39.58333333333394,
      "v": 77
    },
    {
      "midi": 62,
      "hit": false,
      "t": 12641.666666666677,
      "d": 60.41666666666606,
      "v": 70
    },
    {
      "midi": 50,
      "hit": false,
      "t": 12725.00000000001,
      "d": 110.41666666666788,
      "v": 63
    },
    {
      "midi": 69,
      "hit": false,
      "t": 12733.333333333343,
      "d": 83.33333333333394,
      "v": 68
    },
    {
      "midi": 66,
      "hit": false,
      "t": 12737.50000000001,
      "d": 50,
      "v": 68
    },
    {
      "midi": 60,
      "hit": false,
      "t": 12802.083333333343,
      "d": 56.25,
      "v": 66
    },
    {
      "midi": 59,
      "hit": false,
      "t": 12902.083333333343,
      "d": 52.08333333333212,
      "v": 67
    },
    {
      "midi": 55,
      "hit": false,
      "t": 12902.083333333343,
      "d": 347.91666666666606,
      "v": 68
    },
    {
      "midi": 67,
      "hit": false,
      "t": 12906.25000000001,
      "d": 93.75,
      "v": 78
    },
    {
      "midi": 62,
      "hit": false,
      "t": 13008.333333333343,
      "d": 66.66666666666606,
      "v": 66
    },
    {
      "midi": 59,
      "hit": false,
      "t": 13089.583333333343,
      "d": 166.66666666666606,
      "v": 71
    },
    {
      "midi": 62,
      "hit": false,
      "t": 13162.50000000001,
      "d": 125,
      "v": 66
    },
    {
      "midi": 67,
      "hit": false,
      "t": 13250.00000000001,
      "d": 72.91666666666606,
      "v": 70
    },
    {
      "midi": 71,
      "hit": false,
      "t": 13333.333333333341,
      "d": 66.66666666666606,
      "v": 72
    },
    {
      "midi": 74,
      "hit": false,
      "t": 13420.833333333341,
      "d": 79.16666666666606,
      "v": 74
    },
    {
      "midi": 71,
      "hit": false,
      "t": 13506.250000000007,
      "d": 56.25,
      "v": 63
    },
    {
      "midi": 67,
      "hit": false,
      "t": 13581.250000000007,
      "d": 85.41666666666788,
      "v": 59
    },
    {
      "midi": 71,
      "hit": false,
      "t": 13658.333333333341,
      "d": 70.83333333333394,
      "v": 74
    },
    {
      "midi": 74,
      "hit": false,
      "t": 13735.416666666675,
      "d": 72.91666666666606,
      "v": 74
    },
    {
      "midi": 67,
      "hit": false,
      "t": 13737.50000000001,
      "d": 66.66666666666606,
      "v": 66
    },
    {
      "midi": 71,
      "hit": false,
      "t": 13808.333333333341,
      "d": 62.5,
      "v": 73
    },
    {
      "midi": 55,
      "hit": false,
      "t": 13856.250000000007,
      "d": 45.83333333333394,
      "v": 67
    },
    {
      "midi": 77,
      "hit": false,
      "t": 13895.833333333341,
      "d": 81.25,
      "v": 71
    },
    {
      "midi": 69,
      "hit": false,
      "t": 13906.250000000007,
      "d": 168.75,
      "v": 86
    },
    {
      "midi": 72,
      "hit": false,
      "t": 13993.750000000007,
      "d": 62.5,
      "v": 61
    },
    {
      "midi": 76,
      "hit": false,
      "t": 14068.750000000007,
      "d": 47.91666666666606,
      "v": 69
    },
    {
      "midi": 67,
      "hit": false,
      "t": 14070.833333333341,
      "d": 181.25,
      "v": 75
    },
    {
      "midi": 71,
      "hit": false,
      "t": 14154.166666666673,
      "d": 56.25,
      "v": 62
    },
    {
      "midi": 65,
      "hit": false,
      "t": 14231.250000000007,
      "d": 154.16666666666788,
      "v": 77
    },
    {
      "midi": 74,
      "hit": false,
      "t": 14233.333333333341,
      "d": 58.33333333333394,
      "v": 73
    },
    {
      "midi": 69,
      "hit": false,
      "t": 14318.75000000001,
      "d": 56.25,
      "v": 58
    },
    {
      "midi": 64,
      "hit": false,
      "t": 14389.583333333341,
      "d": 172.91666666666424,
      "v": 83
    },
    {
      "midi": 72,
      "hit": false,
      "t": 14393.750000000007,
      "d": 54.16666666666606,
      "v": 66
    },
    {
      "midi": 67,
      "hit": false,
      "t": 14470.83333333334,
      "d": 54.16666666666606,
      "v": 57
    },
    {
      "midi": 71,
      "hit": false,
      "t": 14550.000000000005,
      "d": 58.33333333333394,
      "v": 68
    },
    {
      "midi": 62,
      "hit": false,
      "t": 14560.416666666672,
      "d": 170.83333333333758,
      "v": 71
    },
    {
      "midi": 65,
      "hit": false,
      "t": 14641.666666666673,
      "d": 58.33333333333394,
      "v": 59
    },
    {
      "midi": 69,
      "hit": false,
      "t": 14714.583333333341,
      "d": 54.16666666666788,
      "v": 66
    },
    {
      "midi": 60,
      "hit": false,
      "t": 14716.666666666675,
      "d": 164.58333333333394,
      "v": 74
    },
    {
      "midi": 65,
      "hit": false,
      "t": 14795.833333333343,
      "d": 54.16666666666606,
      "v": 57
    },
    {
      "midi": 67,
      "hit": false,
      "t": 14875.00000000001,
      "d": 52.08333333333394,
      "v": 69
    },
    {
      "midi": 59,
      "hit": false,
      "t": 14877.083333333343,
      "d": 170.83333333333212,
      "v": 76
    },
    {
      "midi": 65,
      "hit": false,
      "t": 14958.333333333343,
      "d": 66.66666666666606,
      "v": 64
    },
    {
      "midi": 71,
      "hit": false,
      "t": 15043.75000000001,
      "d": 66.66666666666606,
      "v": 65
    },
    {
      "midi": 62,
      "hit": false,
      "t": 15047.916666666675,
      "d": 179.16666666666606,
      "v": 78
    },
    {
      "midi": 65,
      "hit": false,
      "t": 15129.166666666675,
      "d": 66.66666666666606,
      "v": 62
    },
    {
      "midi": 69,
      "hit": false,
      "t": 15212.500000000007,
      "d": 62.5,
      "v": 74
    },
    {
      "midi": 60,
      "hit": false,
      "t": 15214.583333333341,
      "d": 47.91666666666606,
      "v": 71
    },
    {
      "midi": 65,
      "hit": false,
      "t": 15289.583333333341,
      "d": 72.91666666666606,
      "v": 66
    },
    {
      "midi": 67,
      "hit": false,
      "t": 15364.583333333341,
      "d": 43.75,
      "v": 76
    },
    {
      "midi": 55,
      "hit": false,
      "t": 15379.166666666675,
      "d": 239.58333333333212,
      "v": 73
    },
    {
      "midi": 59,
      "hit": false,
      "t": 15379.166666666675,
      "d": 410.41666666666606,
      "v": 78
    },
    {
      "midi": 62,
      "hit": false,
      "t": 15458.333333333341,
      "d": 364.58333333333394,
      "v": 73
    },
    {
      "midi": 65,
      "hit": false,
      "t": 15545.833333333341,
      "d": 131.25,
      "v": 80
    },
    {
      "midi": 67,
      "hit": false,
      "t": 15614.583333333341,
      "d": 72.91666666666606,
      "v": 67
    },
    {
      "midi": 71,
      "hit": false,
      "t": 15687.500000000007,
      "d": 75,
      "v": 71
    },
    {
      "midi": 74,
      "hit": false,
      "t": 15768.750000000007,
      "d": 68.75000000000182,
      "v": 61
    },
    {
      "midi": 55,
      "hit": false,
      "t": 15793.750000000007,
      "d": 50.00000000000182,
      "v": 57
    },
    {
      "midi": 69,
      "hit": false,
      "t": 15856.25000000001,
      "d": 47.91666666666606,
      "v": 67
    },
    {
      "midi": 77,
      "hit": false,
      "t": 15868.75000000001,
      "d": 37.5,
      "v": 71
    },
    {
      "midi": 72,
      "hit": false,
      "t": 15947.916666666675,
      "d": 39.58333333333394,
      "v": 63
    },
    {
      "midi": 76,
      "hit": false,
      "t": 16022.916666666675,
      "d": 47.91666666666788,
      "v": 64
    },
    {
      "midi": 67,
      "hit": false,
      "t": 16025.00000000001,
      "d": 39.58333333333394,
      "v": 61
    },
    {
      "midi": 71,
      "hit": false,
      "t": 16108.333333333343,
      "d": 45.83333333333394,
      "v": 54
    },
    {
      "midi": 74,
      "hit": false,
      "t": 16187.500000000011,
      "d": 50,
      "v": 59
    },
    {
      "midi": 65,
      "hit": false,
      "t": 16193.750000000011,
      "d": 29.16666666666606,
      "v": 66
    },
    {
      "midi": 69,
      "hit": false,
      "t": 16268.750000000011,
      "d": 56.25,
      "v": 56
    },
    {
      "midi": 72,
      "hit": false,
      "t": 16354.166666666677,
      "d": 52.08333333333394,
      "v": 64
    },
    {
      "midi": 64,
      "hit": false,
      "t": 16358.333333333343,
      "d": 43.75,
      "v": 64
    },
    {
      "midi": 67,
      "hit": false,
      "t": 16431.25000000001,
      "d": 50,
      "v": 55
    },
    {
      "midi": 62,
      "hit": false,
      "t": 16516.66666666668,
      "d": 31.25,
      "v": 66
    },
    {
      "midi": 71,
      "hit": false,
      "t": 16525.00000000001,
      "d": 45.83333333333576,
      "v": 60
    },
    {
      "midi": 65,
      "hit": false,
      "t": 16602.083333333347,
      "d": 47.91666666666788,
      "v": 55
    },
    {
      "midi": 69,
      "hit": false,
      "t": 16681.250000000015,
      "d": 47.91666666666788,
      "v": 64
    },
    {
      "midi": 60,
      "hit": false,
      "t": 16683.333333333347,
      "d": 35.41666666666788,
      "v": 64
    },
    {
      "midi": 65,
      "hit": false,
      "t": 16760.416666666682,
      "d": 50,
      "v": 55
    },
    {
      "midi": 59,
      "hit": false,
      "t": 16843.750000000015,
      "d": 29.16666666666788,
      "v": 66
    },
    {
      "midi": 67,
      "hit": false,
      "t": 16854.166666666682,
      "d": 22.91666666666788,
      "v": 56
    },
    {
      "midi": 65,
      "hit": false,
      "t": 16925.00000000002,
      "d": 54.16666666666788,
      "v": 58
    },
    {
      "midi": 62,
      "hit": false,
      "t": 17008.333333333354,
      "d": 16.66666666666788,
      "v": 61
    },
    {
      "midi": 71,
      "hit": false,
      "t": 17012.500000000022,
      "d": 45.83333333333212,
      "v": 57
    },
    {
      "midi": 65,
      "hit": false,
      "t": 17083.333333333354,
      "d": 50,
      "v": 54
    },
    {
      "midi": 60,
      "hit": false,
      "t": 17154.166666666686,
      "d": 16.66666666666424,
      "v": 61
    },
    {
      "midi": 69,
      "hit": false,
      "t": 17162.50000000002,
      "d": 47.91666666666424,
      "v": 60
    },
    {
      "midi": 65,
      "hit": false,
      "t": 17237.500000000015,
      "d": 60.41666666666788,
      "v": 58
    },
    {
      "midi": 67,
      "hit": false,
      "t": 17320.83333333335,
      "d": 50.00000000000364,
      "v": 66
    },
    {
      "midi": 55,
      "hit": false,
      "t": 17325.00000000002,
      "d": 208.33333333333576,
      "v": 57
    },
    {
      "midi": 59,
      "hit": false,
      "t": 17337.50000000002,
      "d": 197.91666666666788,
      "v": 46
    },
    {
      "midi": 62,
      "hit": false,
      "t": 17414.583333333354,
      "d": 125,
      "v": 64
    },
    {
      "midi": 67,
      "hit": false,
      "t": 17495.833333333354,
      "d": 77.08333333333212,
      "v": 58
    },
    {
      "midi": 71,
      "hit": false,
      "t": 17581.25000000002,
      "d": 66.66666666666788,
      "v": 55
    },
    {
      "midi": 74,
      "hit": false,
      "t": 17643.75000000002,
      "d": 87.50000000000364,
      "v": 63
    },
    {
      "midi": 79,
      "hit": false,
      "t": 17720.833333333354,
      "d": 37.5,
      "v": 59
    },
    {
      "midi": 60,
      "hit": false,
      "t": 17766.666666666686,
      "d": 33.33333333333212,
      "v": 64
    },
    {
      "midi": 74,
      "hit": false,
      "t": 17802.08333333335,
      "d": 52.08333333333212,
      "v": 80
    },
    {
      "midi": 82,
      "hit": false,
      "t": 17820.83333333335,
      "d": 50,
      "v": 74
    },
    {
      "midi": 77,
      "hit": false,
      "t": 17891.666666666682,
      "d": 50,
      "v": 76
    },
    {
      "midi": 81,
      "hit": false,
      "t": 17970.83333333335,
      "d": 47.91666666666424,
      "v": 69
    },
    {
      "midi": 72,
      "hit": false,
      "t": 17972.916666666682,
      "d": 43.75,
      "v": 63
    },
    {
      "midi": 76,
      "hit": false,
      "t": 18052.083333333347,
      "d": 50,
      "v": 57
    },
    {
      "midi": 79,
      "hit": false,
      "t": 18127.083333333347,
      "d": 77.08333333333212,
      "v": 65
    },
    {
      "midi": 70,
      "hit": false,
      "t": 18131.250000000015,
      "d": 39.58333333333212,
      "v": 80
    },
    {
      "midi": 74,
      "hit": false,
      "t": 18208.333333333347,
      "d": 54.16666666666788,
      "v": 69
    },
    {
      "midi": 69,
      "hit": false,
      "t": 18285.416666666682,
      "d": 66.66666666666788,
      "v": 72
    },
    {
      "midi": 77,
      "hit": false,
      "t": 18289.58333333335,
      "d": 56.25,
      "v": 70
    },
    {
      "midi": 72,
      "hit": false,
      "t": 18370.83333333335,
      "d": 50,
      "v": 61
    },
    {
      "midi": 67,
      "hit": false,
      "t": 18447.916666666682,
      "d": 33.33333333333212,
      "v": 73
    },
    {
      "midi": 76,
      "hit": false,
      "t": 18454.166666666682,
      "d": 60.41666666666424,
      "v": 62
    },
    {
      "midi": 70,
      "hit": false,
      "t": 18535.41666666668,
      "d": 54.16666666666788,
      "v": 68
    },
    {
      "midi": 65,
      "hit": false,
      "t": 18614.583333333347,
      "d": 35.41666666666424,
      "v": 77
    },
    {
      "midi": 74,
      "hit": false,
      "t": 18616.66666666668,
      "d": 64.58333333333212,
      "v": 59
    },
    {
      "midi": 70,
      "hit": false,
      "t": 18697.91666666668,
      "d": 50,
      "v": 62
    },
    {
      "midi": 64,
      "hit": false,
      "t": 18770.833333333347,
      "d": 35.41666666666788,
      "v": 73
    },
    {
      "midi": 72,
      "hit": false,
      "t": 18775.000000000015,
      "d": 52.08333333333212,
      "v": 70
    },
    {
      "midi": 70,
      "hit": false,
      "t": 18858.333333333347,
      "d": 50,
      "v": 63
    },
    {
      "midi": 76,
      "hit": false,
      "t": 18939.583333333347,
      "d": 60.41666666666424,
      "v": 75
    },
    {
      "midi": 67,
      "hit": false,
      "t": 18941.66666666668,
      "d": 31.25,
      "v": 77
    },
    {
      "midi": 70,
      "hit": false,
      "t": 19016.66666666668,
      "d": 45.83333333333212,
      "v": 68
    },
    {
      "midi": 74,
      "hit": false,
      "t": 19095.833333333343,
      "d": 60.41666666666788,
      "v": 60
    },
    {
      "midi": 65,
      "hit": false,
      "t": 19097.916666666675,
      "d": 35.41666666666788,
      "v": 73
    },
    {
      "midi": 70,
      "hit": false,
      "t": 19172.91666666668,
      "d": 52.08333333333212,
      "v": 72
    },
    {
      "midi": 64,
      "hit": false,
      "t": 19258.333333333343,
      "d": 43.75,
      "v": 66
    },
    {
      "midi": 72,
      "hit": false,
      "t": 19260.416666666675,
      "d": 52.08333333333576,
      "v": 61
    },
    {
      "midi": 70,
      "hit": false,
      "t": 19339.583333333343,
      "d": 41.66666666666788,
      "v": 61
    },
    {
      "midi": 76,
      "hit": false,
      "t": 19410.41666666668,
      "d": 72.91666666666788,
      "v": 73
    },
    {
      "midi": 67,
      "hit": false,
      "t": 19412.50000000001,
      "d": 60.41666666666788,
      "v": 76
    },
    {
      "midi": 70,
      "hit": false,
      "t": 19491.66666666668,
      "d": 47.91666666666788,
      "v": 74
    },
    {
      "midi": 74,
      "hit": false,
      "t": 19564.583333333347,
      "d": 75,
      "v": 55
    },
    {
      "midi": 65,
      "hit": false,
      "t": 19572.91666666668,
      "d": 37.5,
      "v": 68
    },
    {
      "midi": 70,
      "hit": false,
      "t": 19639.583333333347,
      "d": 39.58333333333212,
      "v": 74
    },
    {
      "midi": 64,
      "hit": false,
      "t": 19739.583333333347,
      "d": 70.83333333333212,
      "v": 55
    },
    {
      "midi": 72,
      "hit": false,
      "t": 19741.66666666668,
      "d": 83.33333333333212,
      "v": 80
    },
    {
      "midi": 67,
      "hit": false,
      "t": 19750.00000000001,
      "d": 93.75,
      "v": 47
    },
    {
      "midi": 70,
      "hit": false,
      "t": 19816.66666666668,
      "d": 77.08333333333212,
      "v": 68
    },
    {
      "midi": 76,
      "hit": false,
      "t": 19893.75000000001,
      "d": 35.41666666666424,
      "v": 71
    },
    {
      "midi": 67,
      "hit": false,
      "t": 19902.083333333343,
      "d": 97.91666666666788,
      "v": 48
    },
    {
      "midi": 64,
      "hit": false,
      "t": 19906.25000000001,
      "d": 60.41666666666424,
      "v": 62
    },
    {
      "midi": 74,
      "hit": false,
      "t": 19908.333333333343,
      "d": 62.5,
      "v": 83
    },
    {
      "midi": 70,
      "hit": false,
      "t": 19975.00000000001,
      "d": 81.25,
      "v": 74
    },
    {
      "midi": 64,
      "hit": false,
      "t": 20066.66666666668,
      "d": 87.5,
      "v": 59
    },
    {
      "midi": 67,
      "hit": false,
      "t": 20072.91666666668,
      "d": 118.75,
      "v": 39
    },
    {
      "midi": 72,
      "hit": false,
      "t": 20075.00000000001,
      "d": 45.83333333333212,
      "v": 83
    },
    {
      "midi": 70,
      "hit": false,
      "t": 20150.00000000001,
      "d": 60.41666666666788,
      "v": 66
    },
    {
      "midi": 65,
      "hit": false,
      "t": 20227.083333333347,
      "d": 172.91666666666788,
      "v": 72
    },
    {
      "midi": 72,
      "hit": false,
      "t": 20237.500000000015,
      "d": 52.08333333333212,
      "v": 77
    },
    {
      "midi": 69,
      "hit": false,
      "t": 20318.750000000015,
      "d": 60.41666666666788,
      "v": 73
    },
    {
      "midi": 77,
      "hit": false,
      "t": 20400.000000000015,
      "d": 58.33333333333212,
      "v": 81
    },
    {
      "midi": 69,
      "hit": false,
      "t": 20479.16666666668,
      "d": 54.16666666666788,
      "v": 78
    },
    {
      "midi": 72,
      "hit": false,
      "t": 20564.583333333347,
      "d": 60.41666666666788,
      "v": 66
    },
    {
      "midi": 69,
      "hit": false,
      "t": 20641.666666666682,
      "d": 47.91666666666788,
      "v": 66
    },
    {
      "midi": 61,
      "hit": false,
      "t": 20718.75000000002,
      "d": 62.5,
      "v": 48
    },
    {
      "midi": 64,
      "hit": false,
      "t": 20722.916666666686,
      "d": 81.25,
      "v": 54
    },
    {
      "midi": 67,
      "hit": false,
      "t": 20797.916666666686,
      "d": 75,
      "v": 60
    },
    {
      "midi": 72,
      "hit": false,
      "t": 20870.833333333354,
      "d": 31.250000000003638,
      "v": 56
    },
    {
      "midi": 61,
      "hit": false,
      "t": 20877.083333333354,
      "d": 66.66666666667152,
      "v": 68
    },
    {
      "midi": 70,
      "hit": false,
      "t": 20881.250000000022,
      "d": 64.58333333333576,
      "v": 80
    },
    {
      "midi": 64,
      "hit": false,
      "t": 20885.41666666669,
      "d": 89.58333333333212,
      "v": 60
    },
    {
      "midi": 67,
      "hit": false,
      "t": 20954.16666666669,
      "d": 83.33333333333212,
      "v": 65
    },
    {
      "midi": 61,
      "hit": false,
      "t": 21050.000000000022,
      "d": 77.08333333333576,
      "v": 60
    },
    {
      "midi": 64,
      "hit": false,
      "t": 21054.16666666669,
      "d": 97.91666666666788,
      "v": 46
    },
    {
      "midi": 69,
      "hit": false,
      "t": 21058.333333333358,
      "d": 35.41666666666788,
      "v": 77
    },
    {
      "midi": 67,
      "hit": false,
      "t": 21135.41666666669,
      "d": 58.33333333333576,
      "v": 62
    },
    {
      "midi": 62,
      "hit": false,
      "t": 21210.416666666693,
      "d": 147.91666666666788,
      "v": 71
    },
    {
      "midi": 69,
      "hit": false,
      "t": 21214.58333333336,
      "d": 41.66666666666788,
      "v": 66
    },
    {
      "midi": 65,
      "hit": false,
      "t": 21302.08333333336,
      "d": 62.5,
      "v": 61
    },
    {
      "midi": 74,
      "hit": false,
      "t": 21383.33333333336,
      "d": 68.75,
      "v": 66
    },
    {
      "midi": 65,
      "hit": false,
      "t": 21462.50000000003,
      "d": 54.16666666666788,
      "v": 57
    },
    {
      "midi": 69,
      "hit": false,
      "t": 21550.00000000003,
      "d": 52.08333333333576,
      "v": 59
    },
    {
      "midi": 65,
      "hit": false,
      "t": 21625.000000000033,
      "d": 41.66666666666788,
      "v": 58
    },
    {
      "midi": 59,
      "hit": false,
      "t": 21708.33333333337,
      "d": 54.16666666666788,
      "v": 54
    },
    {
      "midi": 62,
      "hit": false,
      "t": 21712.500000000036,
      "d": 66.66666666666788,
      "v": 47
    },
    {
      "midi": 65,
      "hit": false,
      "t": 21785.416666666704,
      "d": 70.83333333333212,
      "v": 55
    },
    {
      "midi": 71,
      "hit": false,
      "t": 21860.416666666704,
      "d": 37.5,
      "v": 66
    },
    {
      "midi": 59,
      "hit": false,
      "t": 21872.916666666704,
      "d": 60.41666666666788,
      "v": 63
    },
    {
      "midi": 69,
      "hit": false,
      "t": 21877.083333333372,
      "d": 58.33333333333212,
      "v": 74
    },
    {
      "midi": 62,
      "hit": false,
      "t": 21877.083333333372,
      "d": 70.83333333333212,
      "v": 51
    },
    {
      "midi": 65,
      "hit": false,
      "t": 21947.916666666704,
      "d": 68.75,
      "v": 61
    },
    {
      "midi": 59,
      "hit": false,
      "t": 22037.500000000036,
      "d": 77.08333333333212,
      "v": 59
    },
    {
      "midi": 67,
      "hit": false,
      "t": 22039.58333333337,
      "d": 41.66666666666788,
      "v": 73
    },
    {
      "midi": 62,
      "hit": false,
      "t": 22050.000000000036,
      "d": 93.75,
      "v": 38
    },
    {
      "midi": 65,
      "hit": false,
      "t": 22118.750000000036,
      "d": 56.25,
      "v": 58
    },
    {
      "midi": 60,
      "hit": false,
      "t": 22191.666666666704,
      "d": 214.58333333333576,
      "v": 71
    },
    {
      "midi": 67,
      "hit": false,
      "t": 22208.333333333372,
      "d": 41.66666666666788,
      "v": 64
    },
    {
      "midi": 64,
      "hit": false,
      "t": 22293.75000000004,
      "d": 58.33333333333212,
      "v": 62
    },
    {
      "midi": 72,
      "hit": false,
      "t": 22383.333333333372,
      "d": 60.41666666666788,
      "v": 59
    },
    {
      "midi": 64,
      "hit": false,
      "t": 22464.583333333372,
      "d": 45.83333333333212,
      "v": 59
    },
    {
      "midi": 67,
      "hit": false,
      "t": 22552.083333333372,
      "d": 47.91666666666788,
      "v": 49
    },
    {
      "midi": 64,
      "hit": false,
      "t": 22622.916666666708,
      "d": 54.16666666666788,
      "v": 61
    },
    {
      "midi": 57,
      "hit": false,
      "t": 22714.583333333376,
      "d": 66.66666666666788,
      "v": 49
    },
    {
      "midi": 60,
      "hit": false,
      "t": 22718.750000000044,
      "d": 77.08333333333212,
      "v": 51
    },
    {
      "midi": 63,
      "hit": false,
      "t": 22789.583333333376,
      "d": 72.91666666666788,
      "v": 63
    },
    {
      "midi": 69,
      "hit": false,
      "t": 22862.500000000044,
      "d": 20.83333333333576,
      "v": 56
    },
    {
      "midi": 67,
      "hit": false,
      "t": 22870.833333333376,
      "d": 60.41666666667152,
      "v": 73
    },
    {
      "midi": 57,
      "hit": false,
      "t": 22875.000000000044,
      "d": 72.91666666667152,
      "v": 58
    },
    {
      "midi": 60,
      "hit": false,
      "t": 22879.16666666671,
      "d": 79.16666666667152,
      "v": 50
    },
    {
      "midi": 63,
      "hit": false,
      "t": 22947.916666666715,
      "d": 83.33333333333576,
      "v": 70
    },
    {
      "midi": 66,
      "hit": false,
      "t": 23035.41666666672,
      "d": 66.66666666666788,
      "v": 81
    },
    {
      "midi": 57,
      "hit": false,
      "t": 23043.75000000005,
      "d": 66.66666666666788,
      "v": 61
    },
    {
      "midi": 60,
      "hit": false,
      "t": 23047.91666666672,
      "d": 83.33333333333212,
      "v": 51
    },
    {
      "midi": 63,
      "hit": false,
      "t": 23118.75000000005,
      "d": 50,
      "v": 79
    },
    {
      "midi": 60,
      "hit": false,
      "t": 23195.833333333383,
      "d": 270.83333333333576,
      "v": 62
    },
    {
      "midi": 66,
      "hit": false,
      "t": 23200.00000000005,
      "d": 58.33333333333212,
      "v": 84
    },
    {
      "midi": 57,
      "hit": false,
      "t": 23200.00000000005,
      "d": 287.5,
      "v": 70
    },
    {
      "midi": 62,
      "hit": false,
      "t": 23287.50000000005,
      "d": 58.33333333333212,
      "v": 66
    },
    {
      "midi": 72,
      "hit": false,
      "t": 23368.75000000005,
      "d": 62.5,
      "v": 72
    },
    {
      "midi": 62,
      "hit": false,
      "t": 23450.00000000005,
      "d": 54.16666666666788,
      "v": 76
    },
    {
      "midi": 66,
      "hit": false,
      "t": 23531.25000000005,
      "d": 66.66666666666788,
      "v": 82
    },
    {
      "midi": 62,
      "hit": false,
      "t": 23612.50000000005,
      "d": 64.58333333333212,
      "v": 72
    },
    {
      "midi": 59,
      "hit": false,
      "t": 23691.666666666715,
      "d": 66.66666666666788,
      "v": 83
    },
    {
      "midi": 62,
      "hit": false,
      "t": 23768.75000000005,
      "d": 52.08333333333212,
      "v": 73
    },
    {
      "midi": 61,
      "hit": false,
      "t": 23847.916666666715,
      "d": 52.08333333333212,
      "v": 69
    },
    {
      "midi": 62,
      "hit": false,
      "t": 23933.33333333338,
      "d": 56.25,
      "v": 70
    },
    {
      "midi": 67,
      "hit": false,
      "t": 24010.41666666671,
      "d": 50,
      "v": 63
    },
    {
      "midi": 59,
      "hit": false,
      "t": 24016.66666666671,
      "d": 39.58333333333212,
      "v": 70
    },
    {
      "midi": 62,
      "hit": false,
      "t": 24087.500000000044,
      "d": 70.83333333333212,
      "v": 59
    },
    {
      "midi": 55,
      "hit": false,
      "t": 24179.166666666708,
      "d": 43.75,
      "v": 76
    },
    {
      "midi": 71,
      "hit": false,
      "t": 24183.333333333376,
      "d": 62.5,
      "v": 78
    },
    {
      "midi": 67,
      "hit": false,
      "t": 24258.333333333376,
      "d": 56.25,
      "v": 66
    },
    {
      "midi": 69,
      "hit": false,
      "t": 24350.000000000044,
      "d": 72.91666666666788,
      "v": 76
    },
    {
      "midi": 60,
      "hit": false,
      "t": 24354.16666666671,
      "d": 60.41666666666788,
      "v": 74
    },
    {
      "midi": 66,
      "hit": false,
      "t": 24427.08333333338,
      "d": 56.25,
      "v": 70
    },
    {
      "midi": 67,
      "hit": false,
      "t": 24512.500000000047,
      "d": 47.91666666666788,
      "v": 63
    },
    {
      "midi": 59,
      "hit": false,
      "t": 24516.666666666715,
      "d": 33.33333333333212,
      "v": 73
    },
    {
      "midi": 62,
      "hit": false,
      "t": 24587.500000000047,
      "d": 64.58333333333212,
      "v": 58
    },
    {
      "midi": 55,
      "hit": false,
      "t": 24677.08333333338,
      "d": 35.41666666666788,
      "v": 73
    },
    {
      "midi": 71,
      "hit": false,
      "t": 24681.250000000047,
      "d": 58.33333333333212,
      "v": 80
    },
    {
      "midi": 67,
      "hit": false,
      "t": 24758.33333333338,
      "d": 43.75,
      "v": 65
    },
    {
      "midi": 69,
      "hit": false,
      "t": 24837.500000000047,
      "d": 70.83333333333212,
      "v": 80
    },
    {
      "midi": 60,
      "hit": false,
      "t": 24841.666666666715,
      "d": 58.33333333333212,
      "v": 76
    },
    {
      "midi": 66,
      "hit": false,
      "t": 24920.83333333338,
      "d": 62.5,
      "v": 67
    },
    {
      "midi": 67,
      "hit": false,
      "t": 25002.08333333338,
      "d": 56.25,
      "v": 67
    },
    {
      "midi": 59,
      "hit": false,
      "t": 25002.08333333338,
      "d": 60.41666666666788,
      "v": 69
    },
    {
      "midi": 62,
      "hit": false,
      "t": 25075.000000000047,
      "d": 64.58333333333212,
      "v": 70
    },
    {
      "midi": 57,
      "hit": false,
      "t": 25170.83333333338,
      "d": 204.16666666666788,
      "v": 81
    },
    {
      "midi": 72,
      "hit": false,
      "t": 25175.000000000047,
      "d": 110.41666666666788,
      "v": 74
    },
    {
      "midi": 60,
      "hit": false,
      "t": 25175.000000000047,
      "d": 152.08333333333576,
      "v": 81
    },
    {
      "midi": 50,
      "hit": false,
      "t": 25179.166666666715,
      "d": 208.33333333333212,
      "v": 71
    },
    {
      "midi": 69,
      "hit": false,
      "t": 25256.250000000047,
      "d": 85.41666666666788,
      "v": 72
    },
    {
      "midi": 66,
      "hit": false,
      "t": 25343.750000000047,
      "d": 60.41666666666788,
      "v": 78
    },
    {
      "midi": 62,
      "hit": false,
      "t": 25420.833333333383,
      "d": 79.16666666666788,
      "v": 59
    },
    {
      "midi": 69,
      "hit": false,
      "t": 25491.66666666672,
      "d": 79.16666666666424,
      "v": 70
    },
    {
      "midi": 66,
      "hit": false,
      "t": 25570.833333333383,
      "d": 85.41666666666424,
      "v": 71
    },
    {
      "midi": 43,
      "hit": false,
      "t": 25608.333333333383,
      "d": 145.83333333333212,
      "v": 64
    },
    {
      "midi": 50,
      "hit": false,
      "t": 25629.166666666715,
      "d": 125,
      "v": 55
    },
    {
      "midi": 74,
      "hit": false,
      "t": 25677.08333333338,
      "d": 79.16666666666788,
      "v": 80
    },
    {
      "midi": 59,
      "hit": false,
      "t": 25687.500000000047,
      "d": 106.25,
      "v": 80
    },
    {
      "midi": 71,
      "hit": false,
      "t": 25750.000000000047,
      "d": 106.25,
      "v": 65
    },
    {
      "midi": 67,
      "hit": false,
      "t": 25837.500000000047,
      "d": 45.83333333333212,
      "v": 62
    },
    {
      "midi": 62,
      "hit": false,
      "t": 25910.41666666671,
      "d": 56.24999999999636,
      "v": 50
    },
    {
      "midi": 67,
      "hit": false,
      "t": 25997.91666666671,
      "d": 39.58333333333212,
      "v": 55
    },
    {
      "midi": 59,
      "hit": false,
      "t": 26012.500000000044,
      "d": 18.75,
      "v": 67
    },
    {
      "midi": 62,
      "hit": false,
      "t": 26081.250000000044,
      "d": 70.83333333333212,
      "v": 49
    },
    {
      "midi": 55,
      "hit": false,
      "t": 26179.166666666708,
      "d": 16.66666666666788,
      "v": 64
    },
    {
      "midi": 71,
      "hit": false,
      "t": 26183.333333333376,
      "d": 47.91666666666788,
      "v": 64
    },
    {
      "midi": 67,
      "hit": false,
      "t": 26266.66666666671,
      "d": 33.33333333333212,
      "v": 54
    },
    {
      "midi": 60,
      "hit": false,
      "t": 26350.000000000044,
      "d": 20.83333333333212,
      "v": 49
    },
    {
      "midi": 69,
      "hit": false,
      "t": 26350.000000000044,
      "d": 43.75,
      "v": 60
    },
    {
      "midi": 66,
      "hit": false,
      "t": 26437.500000000044,
      "d": 41.66666666666788,
      "v": 63
    },
    {
      "midi": 59,
      "hit": false,
      "t": 26516.66666666671,
      "d": 18.75,
      "v": 64
    },
    {
      "midi": 67,
      "hit": false,
      "t": 26522.91666666671,
      "d": 39.58333333333212,
      "v": 57
    },
    {
      "midi": 62,
      "hit": false,
      "t": 26600.000000000044,
      "d": 45.83333333333212,
      "v": 50
    },
    {
      "midi": 55,
      "hit": false,
      "t": 26675.000000000044,
      "d": 16.66666666666788,
      "v": 68
    },
    {
      "midi": 71,
      "hit": false,
      "t": 26687.500000000044,
      "d": 50,
      "v": 66
    },
    {
      "midi": 67,
      "hit": false,
      "t": 26764.583333333376,
      "d": 37.5,
      "v": 62
    },
    {
      "midi": 69,
      "hit": false,
      "t": 26841.666666666708,
      "d": 58.33333333333576,
      "v": 64
    },
    {
      "midi": 60,
      "hit": false,
      "t": 26845.833333333376,
      "d": 37.5,
      "v": 62
    },
    {
      "midi": 66,
      "hit": false,
      "t": 26927.083333333376,
      "d": 56.25,
      "v": 67
    },
    {
      "midi": 59,
      "hit": false,
      "t": 27008.333333333376,
      "d": 31.250000000003638,
      "v": 46
    },
    {
      "midi": 67,
      "hit": false,
      "t": 27012.500000000044,
      "d": 50.00000000000364,
      "v": 66
    },
    {
      "midi": 60,
      "hit": false,
      "t": 27016.66666666671,
      "d": 18.75,
      "v": 39
    },
    {
      "midi": 62,
      "hit": false,
      "t": 27087.500000000047,
      "d": 56.25,
      "v": 61
    },
    {
      "midi": 72,
      "hit": false,
      "t": 27183.33333333338,
      "d": 79.16666666666424,
      "v": 64
    },
    {
      "midi": 57,
      "hit": false,
      "t": 27185.41666666671,
      "d": 208.33333333333576,
      "v": 73
    },
    {
      "midi": 60,
      "hit": false,
      "t": 27187.500000000044,
      "d": 164.58333333333576,
      "v": 68
    },
    {
      "midi": 50,
      "hit": false,
      "t": 27191.66666666671,
      "d": 210.41666666666788,
      "v": 63
    },
    {
      "midi": 69,
      "hit": false,
      "t": 27275.000000000044,
      "d": 72.91666666666788,
      "v": 62
    },
    {
      "midi": 66,
      "hit": false,
      "t": 27362.500000000047,
      "d": 56.25,
      "v": 75
    },
    {
      "midi": 62,
      "hit": false,
      "t": 27437.500000000047,
      "d": 56.25,
      "v": 63
    },
    {
      "midi": 66,
      "hit": false,
      "t": 27514.583333333376,
      "d": 50.00000000000364,
      "v": 69
    },
    {
      "midi": 62,
      "hit": false,
      "t": 27589.58333333338,
      "d": 54.16666666666788,
      "v": 52
    },
    {
      "midi": 43,
      "hit": false,
      "t": 27652.08333333338,
      "d": 87.50000000000364,
      "v": 61
    },
    {
      "midi": 50,
      "hit": false,
      "t": 27675.000000000047,
      "d": 66.66666666666788,
      "v": 43
    },
    {
      "midi": 59,
      "hit": false,
      "t": 27700.000000000047,
      "d": 64.58333333333576,
      "v": 77
    },
    {
      "midi": 67,
      "hit": false,
      "t": 27704.166666666715,
      "d": 70.83333333333576,
      "v": 81
    },
    {
      "midi": 69,
      "hit": false,
      "t": 27797.91666666672,
      "d": 66.66666666666788,
      "v": 51
    },
    {
      "midi": 67,
      "hit": false,
      "t": 27883.333333333387,
      "d": 66.66666666666788,
      "v": 70
    },
    {
      "midi": 66,
      "hit": false,
      "t": 27964.583333333387,
      "d": 54.16666666666788,
      "v": 69
    },
    {
      "midi": 65,
      "hit": false,
      "t": 28039.583333333387,
      "d": 54.16666666666788,
      "v": 64
    },
    {
      "midi": 66,
      "hit": false,
      "t": 28122.916666666722,
      "d": 60.41666666666424,
      "v": 62
    },
    {
      "midi": 67,
      "hit": false,
      "t": 28204.16666666672,
      "d": 50,
      "v": 64
    },
    {
      "midi": 69,
      "hit": false,
      "t": 28289.583333333387,
      "d": 58.33333333333212,
      "v": 57
    },
    {
      "midi": 67,
      "hit": false,
      "t": 28366.66666666672,
      "d": 77.08333333333212,
      "v": 58
    },
    {
      "midi": 66,
      "hit": false,
      "t": 28447.91666666672,
      "d": 66.66666666666788,
      "v": 66
    },
    {
      "midi": 63,
      "hit": false,
      "t": 28527.083333333387,
      "d": 118.75000000000364,
      "v": 88
    },
    {
      "midi": 65,
      "hit": false,
      "t": 28531.250000000055,
      "d": 81.25,
      "v": 72
    },
    {
      "midi": 60,
      "hit": false,
      "t": 28531.250000000055,
      "d": 104.16666666666788,
      "v": 70
    },
    {
      "midi": 66,
      "hit": false,
      "t": 28616.666666666722,
      "d": 72.91666666666788,
      "v": 74
    },
    {
      "midi": 59,
      "hit": false,
      "t": 28704.166666666722,
      "d": 120.83333333333212,
      "v": 70
    },
    {
      "midi": 62,
      "hit": false,
      "t": 28706.250000000055,
      "d": 106.25,
      "v": 72
    },
    {
      "midi": 67,
      "hit": false,
      "t": 28712.500000000055,
      "d": 60.41666666666788,
      "v": 68
    },
    {
      "midi": 55,
      "hit": false,
      "t": 28712.500000000055,
      "d": 104.16666666666788,
      "v": 67
    },
    {
      "midi": 69,
      "hit": false,
      "t": 28793.750000000055,
      "d": 79.16666666666788,
      "v": 57
    },
    {
      "midi": 67,
      "hit": false,
      "t": 28881.250000000055,
      "d": 66.66666666666788,
      "v": 61
    },
    {
      "midi": 66,
      "hit": false,
      "t": 28960.416666666722,
      "d": 70.83333333333212,
      "v": 68
    },
    {
      "midi": 65,
      "hit": false,
      "t": 29047.916666666722,
      "d": 89.58333333333212,
      "v": 68
    },
    {
      "midi": 63,
      "hit": false,
      "t": 29056.250000000055,
      "d": 131.25,
      "v": 90
    },
    {
      "midi": 60,
      "hit": false,
      "t": 29062.500000000055,
      "d": 127.08333333333212,
      "v": 68
    },
    {
      "midi": 66,
      "hit": false,
      "t": 29145.833333333387,
      "d": 75,
      "v": 69
    },
    {
      "midi": 59,
      "hit": false,
      "t": 29222.91666666672,
      "d": 112.50000000000364,
      "v": 69
    },
    {
      "midi": 67,
      "hit": false,
      "t": 29229.16666666672,
      "d": 64.58333333333576,
      "v": 66
    },
    {
      "midi": 62,
      "hit": false,
      "t": 29229.16666666672,
      "d": 93.75000000000364,
      "v": 74
    },
    {
      "midi": 55,
      "hit": false,
      "t": 29233.333333333387,
      "d": 89.58333333333576,
      "v": 58
    },
    {
      "midi": 69,
      "hit": false,
      "t": 29316.666666666722,
      "d": 75,
      "v": 40
    },
    {
      "midi": 67,
      "hit": false,
      "t": 29397.916666666722,
      "d": 81.25,
      "v": 47
    },
    {
      "midi": 66,
      "hit": false,
      "t": 29487.500000000055,
      "d": 62.5,
      "v": 54
    },
    {
      "midi": 63,
      "hit": false,
      "t": 29562.500000000055,
      "d": 137.5,
      "v": 77
    },
    {
      "midi": 65,
      "hit": false,
      "t": 29566.666666666722,
      "d": 102.08333333333212,
      "v": 66
    },
    {
      "midi": 60,
      "hit": false,
      "t": 29568.750000000055,
      "d": 139.58333333333212,
      "v": 61
    },
    {
      "midi": 66,
      "hit": false,
      "t": 29654.166666666722,
      "d": 89.58333333332848,
      "v": 69
    },
    {
      "midi": 62,
      "hit": false,
      "t": 29729.16666666672,
      "d": 214.58333333333212,
      "v": 52
    },
    {
      "midi": 59,
      "hit": false,
      "t": 29729.16666666672,
      "d": 220.83333333333212,
      "v": 65
    },
    {
      "midi": 55,
      "hit": false,
      "t": 29737.50000000005,
      "d": 202.08333333333212,
      "v": 64
    },
    {
      "midi": 67,
      "hit": false,
      "t": 29745.833333333383,
      "d": 70.83333333333212,
      "v": 66
    },
    {
      "midi": 69,
      "hit": false,
      "t": 29829.166666666715,
      "d": 85.41666666666788,
      "v": 59
    },
    {
      "midi": 67,
      "hit": false,
      "t": 29914.583333333383,
      "d": 87.5,
      "v": 59
    },
    {
      "midi": 66,
      "hit": false,
      "t": 30000.00000000005,
      "d": 72.91666666666424,
      "v": 66
    },
    {
      "midi": 65,
      "hit": false,
      "t": 30087.500000000047,
      "d": 77.08333333333212,
      "v": 59
    },
    {
      "midi": 66,
      "hit": false,
      "t": 30170.83333333338,
      "d": 70.83333333333212,
      "v": 54
    },
    {
      "midi": 67,
      "hit": false,
      "t": 30256.250000000044,
      "d": 66.66666666666788,
      "v": 53
    },
    {
      "midi": 68,
      "hit": false,
      "t": 30337.500000000044,
      "d": 70.83333333333212,
      "v": 57
    },
    {
      "midi": 67,
      "hit": false,
      "t": 30418.750000000044,
      "d": 72.91666666666788,
      "v": 42
    },
    {
      "midi": 66,
      "hit": false,
      "t": 30497.91666666671,
      "d": 77.08333333333212,
      "v": 53
    },
    {
      "midi": 75,
      "hit": false,
      "t": 30581.250000000044,
      "d": 185.41666666666424,
      "v": 68
    },
    {
      "midi": 65,
      "hit": false,
      "t": 30587.500000000044,
      "d": 83.33333333333576,
      "v": 61
    },
    {
      "midi": 72,
      "hit": false,
      "t": 30593.750000000044,
      "d": 154.16666666666788,
      "v": 61
    },
    {
      "midi": 66,
      "hit": false,
      "t": 30683.33333333338,
      "d": 66.66666666666424,
      "v": 50
    },
    {
      "midi": 67,
      "hit": false,
      "t": 30764.583333333376,
      "d": 60.41666666666424,
      "v": 51
    },
    {
      "midi": 74,
      "hit": false,
      "t": 30766.666666666708,
      "d": 72.91666666666424,
      "v": 62
    },
    {
      "midi": 71,
      "hit": false,
      "t": 30772.916666666708,
      "d": 58.33333333333212,
      "v": 46
    },
    {
      "midi": 68,
      "hit": false,
      "t": 30843.75000000004,
      "d": 66.66666666666788,
      "v": 44
    },
    {
      "midi": 67,
      "hit": false,
      "t": 30920.833333333376,
      "d": 75,
      "v": 44
    },
    {
      "midi": 66,
      "hit": false,
      "t": 30997.916666666708,
      "d": 64.58333333333212,
      "v": 48
    },
    {
      "midi": 65,
      "hit": false,
      "t": 31077.083333333372,
      "d": 102.08333333333212,
      "v": 55
    },
    {
      "midi": 75,
      "hit": false,
      "t": 31089.583333333372,
      "d": 172.91666666666424,
      "v": 60
    },
    {
      "midi": 72,
      "hit": false,
      "t": 31102.083333333372,
      "d": 141.66666666666424,
      "v": 55
    },
    {
      "midi": 66,
      "hit": false,
      "t": 31187.500000000036,
      "d": 81.25,
      "v": 54
    },
    {
      "midi": 74,
      "hit": false,
      "t": 31260.416666666704,
      "d": 64.58333333333212,
      "v": 61
    },
    {
      "midi": 71,
      "hit": false,
      "t": 31268.750000000036,
      "d": 22.91666666666788,
      "v": 54
    },
    {
      "midi": 67,
      "hit": false,
      "t": 31275.000000000036,
      "d": 60.41666666666788,
      "v": 52
    },
    {
      "midi": 68,
      "hit": false,
      "t": 31362.500000000036,
      "d": 52.08333333333212,
      "v": 45
    },
    {
      "midi": 67,
      "hit": false,
      "t": 31427.08333333337,
      "d": 79.16666666666788,
      "v": 37
    },
    {
      "midi": 66,
      "hit": false,
      "t": 31510.416666666704,
      "d": 72.91666666666788,
      "v": 49
    },
    {
      "midi": 75,
      "hit": false,
      "t": 31593.75000000004,
      "d": 181.25000000000364,
      "v": 56
    },
    {
      "midi": 65,
      "hit": false,
      "t": 31597.916666666708,
      "d": 93.75,
      "v": 57
    },
    {
      "midi": 72,
      "hit": false,
      "t": 31608.333333333376,
      "d": 168.75,
      "v": 51
    },
    {
      "midi": 66,
      "hit": false,
      "t": 31702.083333333376,
      "d": 75,
      "v": 53
    },
    {
      "midi": 74,
      "hit": false,
      "t": 31770.833333333376,
      "d": 91.66666666666424,
      "v": 58
    },
    {
      "midi": 71,
      "hit": false,
      "t": 31781.250000000044,
      "d": 83.33333333332848,
      "v": 55
    },
    {
      "midi": 67,
      "hit": false,
      "t": 31783.333333333376,
      "d": 64.58333333333212,
      "v": 51
    },
    {
      "midi": 68,
      "hit": false,
      "t": 31854.166666666708,
      "d": 70.83333333333212,
      "v": 65
    },
    {
      "midi": 67,
      "hit": false,
      "t": 31935.416666666708,
      "d": 87.5,
      "v": 44
    },
    {
      "midi": 66,
      "hit": false,
      "t": 32022.916666666708,
      "d": 72.91666666666788,
      "v": 61
    },
    {
      "midi": 65,
      "hit": false,
      "t": 32102.083333333376,
      "d": 85.41666666666424,
      "v": 60
    },
    {
      "midi": 66,
      "hit": false,
      "t": 32185.416666666708,
      "d": 87.5,
      "v": 67
    },
    {
      "midi": 67,
      "hit": false,
      "t": 32268.75000000004,
      "d": 72.91666666666788,
      "v": 70
    },
    {
      "midi": 69,
      "hit": false,
      "t": 32339.583333333376,
      "d": 120.83333333333212,
      "v": 55
    },
    {
      "midi": 67,
      "hit": false,
      "t": 32435.416666666708,
      "d": 95.83333333333212,
      "v": 53
    },
    {
      "midi": 65,
      "hit": false,
      "t": 32516.666666666708,
      "d": 54.16666666666424,
      "v": 69
    },
    {
      "midi": 64,
      "hit": false,
      "t": 32608.333333333372,
      "d": 64.58333333333212,
      "v": 70
    },
    {
      "midi": 55,
      "hit": false,
      "t": 32610.416666666704,
      "d": 58.33333333333212,
      "v": 76
    },
    {
      "midi": 48,
      "hit": false,
      "t": 32612.500000000036,
      "d": 52.08333333333576,
      "v": 70
    },
    {
      "midi": 76,
      "hit": false,
      "t": 32614.58333333337,
      "d": 52.08333333333576,
      "v": 69
    },
    {
      "midi": 74,
      "hit": false,
      "t": 32625.000000000036,
      "d": 16.66666666666788,
      "v": 38
    },
    {
      "midi": 74,
      "hit": false,
      "t": 32887.50000000004,
      "d": 93.75000000000728,
      "v": 64
    },
    {
      "midi": 48,
      "hit": false,
      "t": 32902.08333333337,
      "d": 54.16666666667152,
      "v": 37
    },
    {
      "midi": 57,
      "hit": false,
      "t": 32904.16666666671,
      "d": 50,
      "v": 42
    },
    {
      "midi": 65,
      "hit": false,
      "t": 32979.16666666671,
      "d": 50,
      "v": 47
    },
    {
      "midi": 64,
      "hit": false,
      "t": 33066.66666666671,
      "d": 52.08333333333576,
      "v": 47
    },
    {
      "midi": 65,
      "hit": false,
      "t": 33137.500000000044,
      "d": 62.5,
      "v": 55
    },
    {
      "midi": 72,
      "hit": false,
      "t": 33222.91666666671,
      "d": 62.5,
      "v": 62
    },
    {
      "midi": 57,
      "hit": false,
      "t": 33225.000000000044,
      "d": 29.16666666666424,
      "v": 64
    },
    {
      "midi": 48,
      "hit": false,
      "t": 33235.41666666671,
      "d": 16.66666666666424,
      "v": 48
    },
    {
      "midi": 65,
      "hit": false,
      "t": 33304.16666666671,
      "d": 60.41666666666424,
      "v": 58
    },
    {
      "midi": 71,
      "hit": false,
      "t": 33389.58333333337,
      "d": 91.66666666667152,
      "v": 71
    },
    {
      "midi": 62,
      "hit": false,
      "t": 33391.66666666671,
      "d": 37.5,
      "v": 64
    },
    {
      "midi": 48,
      "hit": false,
      "t": 33400.000000000044,
      "d": 16.66666666666424,
      "v": 49
    },
    {
      "midi": 65,
      "hit": false,
      "t": 33479.16666666671,
      "d": 58.33333333333576,
      "v": 59
    },
    {
      "midi": 64,
      "hit": false,
      "t": 33558.33333333338,
      "d": 56.25,
      "v": 55
    },
    {
      "midi": 65,
      "hit": false,
      "t": 33645.83333333338,
      "d": 56.25,
      "v": 59
    },
    {
      "midi": 59,
      "hit": false,
      "t": 33716.666666666715,
      "d": 43.75,
      "v": 65
    },
    {
      "midi": 69,
      "hit": false,
      "t": 33716.666666666715,
      "d": 95.83333333332848,
      "v": 57
    },
    {
      "midi": 48,
      "hit": false,
      "t": 33729.166666666715,
      "d": 16.66666666666424,
      "v": 53
    },
    {
      "midi": 65,
      "hit": false,
      "t": 33802.08333333338,
      "d": 72.91666666666424,
      "v": 60
    },
    {
      "midi": 67,
      "hit": false,
      "t": 33900.000000000044,
      "d": 85.41666666667152,
      "v": 67
    },
    {
      "midi": 60,
      "hit": false,
      "t": 33902.08333333338,
      "d": 147.91666666667152,
      "v": 59
    },
    {
      "midi": 48,
      "hit": false,
      "t": 33904.166666666715,
      "d": 114.58333333333576,
      "v": 57
    },
    {
      "midi": 64,
      "hit": false,
      "t": 34000.00000000005,
      "d": 68.75,
      "v": 57
    },
    {
      "midi": 63,
      "hit": false,
      "t": 34079.166666666715,
      "d": 58.33333333333576,
      "v": 69
    },
    {
      "midi": 64,
      "hit": false,
      "t": 34160.416666666715,
      "d": 56.25,
      "v": 51
    },
    {
      "midi": 60,
      "hit": false,
      "t": 34245.83333333339,
      "d": 68.75,
      "v": 47
    },
    {
      "midi": 67,
      "hit": false,
      "t": 34250.00000000005,
      "d": 52.08333333333576,
      "v": 61
    },
    {
      "midi": 64,
      "hit": false,
      "t": 34331.25000000005,
      "d": 62.5,
      "v": 53
    },
    {
      "midi": 59,
      "hit": false,
      "t": 34418.75000000005,
      "d": 64.58333333333576,
      "v": 64
    },
    {
      "midi": 67,
      "hit": false,
      "t": 34420.83333333339,
      "d": 54.16666666666424,
      "v": 55
    },
    {
      "midi": 62,
      "hit": false,
      "t": 34512.50000000005,
      "d": 60.41666666666424,
      "v": 44
    },
    {
      "midi": 59,
      "hit": false,
      "t": 34591.666666666715,
      "d": 58.33333333333576,
      "v": 59
    },
    {
      "midi": 66,
      "hit": false,
      "t": 34593.75000000005,
      "d": 35.41666666666424,
      "v": 59
    },
    {
      "midi": 69,
      "hit": false,
      "t": 34597.916666666715,
      "d": 37.5,
      "v": 60
    },
    {
      "midi": 62,
      "hit": false,
      "t": 34666.666666666715,
      "d": 70.83333333333576,
      "v": 50
    },
    {
      "midi": 59,
      "hit": false,
      "t": 34756.25000000005,
      "d": 66.66666666666424,
      "v": 63
    },
    {
      "midi": 71,
      "hit": false,
      "t": 34766.666666666715,
      "d": 45.83333333333576,
      "v": 72
    },
    {
      "midi": 67,
      "hit": false,
      "t": 34770.83333333338,
      "d": 20.83333333333576,
      "v": 54
    },
    {
      "midi": 62,
      "hit": false,
      "t": 34837.50000000005,
      "d": 54.16666666666424,
      "v": 50
    },
    {
      "midi": 72,
      "hit": false,
      "t": 34920.83333333338,
      "d": 70.83333333334303,
      "v": 70
    },
    {
      "midi": 74,
      "hit": false,
      "t": 34922.916666666715,
      "d": 18.750000000007276,
      "v": 64
    },
    {
      "midi": 57,
      "hit": false,
      "t": 34925.00000000005,
      "d": 62.500000000007276,
      "v": 59
    },
    {
      "midi": 67,
      "hit": false,
      "t": 34933.33333333339,
      "d": 16.666666666671517,
      "v": 43
    },
    {
      "midi": 64,
      "hit": false,
      "t": 35008.33333333339,
      "d": 70.83333333333576,
      "v": 49
    },
    {
      "midi": 57,
      "hit": false,
      "t": 35087.50000000006,
      "d": 68.74999999999272,
      "v": 63
    },
    {
      "midi": 71,
      "hit": false,
      "t": 35091.66666666672,
      "d": 54.16666666666424,
      "v": 75
    },
    {
      "midi": 67,
      "hit": false,
      "t": 35104.16666666672,
      "d": 18.75,
      "v": 54
    },
    {
      "midi": 64,
      "hit": false,
      "t": 35175.00000000005,
      "d": 85.41666666667152,
      "v": 50
    },
    {
      "midi": 72,
      "hit": false,
      "t": 35258.33333333339,
      "d": 47.91666666667152,
      "v": 72
    },
    {
      "midi": 57,
      "hit": false,
      "t": 35260.41666666672,
      "d": 58.33333333333576,
      "v": 62
    },
    {
      "midi": 67,
      "hit": false,
      "t": 35266.66666666672,
      "d": 39.58333333333576,
      "v": 63
    },
    {
      "midi": 64,
      "hit": false,
      "t": 35333.333333333394,
      "d": 47.91666666666424,
      "v": 65
    },
    {
      "midi": 50,
      "hit": false,
      "t": 35418.75000000006,
      "d": 56.25,
      "v": 51
    },
    {
      "midi": 72,
      "hit": false,
      "t": 35427.083333333394,
      "d": 64.58333333332848,
      "v": 80
    },
    {
      "midi": 65,
      "hit": false,
      "t": 35433.333333333394,
      "d": 47.91666666666424,
      "v": 68
    },
    {
      "midi": 62,
      "hit": false,
      "t": 35500.00000000006,
      "d": 62.5,
      "v": 66
    },
    {
      "midi": 76,
      "hit": false,
      "t": 35587.50000000006,
      "d": 62.5,
      "v": 77
    },
    {
      "midi": 50,
      "hit": false,
      "t": 35587.50000000006,
      "d": 77.08333333333576,
      "v": 74
    },
    {
      "midi": 65,
      "hit": false,
      "t": 35591.66666666672,
      "d": 50,
      "v": 73
    },
    {
      "midi": 60,
      "hit": false,
      "t": 35662.50000000006,
      "d": 72.91666666667152,
      "v": 65
    },
    {
      "midi": 74,
      "hit": false,
      "t": 35754.16666666673,
      "d": 39.58333333332848,
      "v": 77
    },
    {
      "midi": 50,
      "hit": false,
      "t": 35754.16666666673,
      "d": 91.66666666665697,
      "v": 71
    },
    {
      "midi": 65,
      "hit": false,
      "t": 35758.333333333394,
      "d": 41.66666666666424,
      "v": 69
    },
    {
      "midi": 59,
      "hit": false,
      "t": 35835.41666666672,
      "d": 39.58333333332848,
      "v": 73
    },
    {
      "midi": 55,
      "hit": false,
      "t": 35920.83333333339,
      "d": 77.08333333333576,
      "v": 70
    },
    {
      "midi": 72,
      "hit": false,
      "t": 35925.00000000005,
      "d": 64.58333333333576,
      "v": 68
    },
    {
      "midi": 65,
      "hit": false,
      "t": 35927.08333333339,
      "d": 39.58333333333576,
      "v": 70
    },
    {
      "midi": 64,
      "hit": false,
      "t": 35997.91666666672,
      "d": 58.33333333332848,
      "v": 62
    },
    {
      "midi": 55,
      "hit": false,
      "t": 36085.41666666671,
      "d": 83.33333333333576,
      "v": 69
    },
    {
      "midi": 71,
      "hit": false,
      "t": 36089.58333333337,
      "d": 54.16666666667152,
      "v": 71
    },
    {
      "midi": 65,
      "hit": false,
      "t": 36097.91666666671,
      "d": 31.25,
      "v": 52
    },
    {
      "midi": 62,
      "hit": false,
      "t": 36168.750000000044,
      "d": 72.91666666666424,
      "v": 59
    },
    {
      "midi": 55,
      "hit": false,
      "t": 36250.000000000044,
      "d": 93.75000000001455,
      "v": 58
    },
    {
      "midi": 69,
      "hit": false,
      "t": 36258.33333333338,
      "d": 41.66666666667152,
      "v": 67
    },
    {
      "midi": 65,
      "hit": false,
      "t": 36266.666666666715,
      "d": 41.66666666667152,
      "v": 55
    },
    {
      "midi": 60,
      "hit": false,
      "t": 36335.41666666672,
      "d": 91.66666666667152,
      "v": 60
    },
    {
      "midi": 67,
      "hit": false,
      "t": 36420.833333333394,
      "d": 75,
      "v": 71
    },
    {
      "midi": 59,
      "hit": false,
      "t": 36422.91666666673,
      "d": 149.99999999999272,
      "v": 75
    },
    {
      "midi": 65,
      "hit": false,
      "t": 36502.083333333394,
      "d": 66.66666666666424,
      "v": 64
    },
    {
      "midi": 64,
      "hit": false,
      "t": 36583.33333333339,
      "d": 64.58333333333576,
      "v": 62
    },
    {
      "midi": 65,
      "hit": false,
      "t": 36668.75000000006,
      "d": 54.16666666666424,
      "v": 64
    },
    {
      "midi": 59,
      "hit": false,
      "t": 36745.83333333339,
      "d": 70.83333333332848,
      "v": 55
    },
    {
      "midi": 67,
      "hit": false,
      "t": 36756.25000000005,
      "d": 56.25,
      "v": 66
    },
    {
      "midi": 62,
      "hit": false,
      "t": 36829.166666666715,
      "d": 62.5,
      "v": 53
    },
    {
      "midi": 67,
      "hit": false,
      "t": 36920.83333333339,
      "d": 39.58333333333576,
      "v": 67
    },
    {
      "midi": 58,
      "hit": false,
      "t": 36920.83333333339,
      "d": 50,
      "v": 63
    },
    {
      "midi": 64,
      "hit": false,
      "t": 36939.58333333339,
      "d": 16.666666666671517,
      "v": 38
    },
    {
      "midi": 60,
      "hit": false,
      "t": 37002.08333333339,
      "d": 58.33333333333576,
      "v": 43
    },
    {
      "midi": 58,
      "hit": false,
      "t": 37089.58333333339,
      "d": 60.41666666667152,
      "v": 51
    },
    {
      "midi": 69,
      "hit": false,
      "t": 37091.66666666672,
      "d": 45.83333333333576,
      "v": 61
    },
    {
      "midi": 64,
      "hit": false,
      "t": 37100.00000000006,
      "d": 18.75,
      "v": 46
    },
    {
      "midi": 60,
      "hit": false,
      "t": 37166.66666666672,
      "d": 62.5,
      "v": 37
    },
    {
      "midi": 58,
      "hit": false,
      "t": 37254.16666666672,
      "d": 58.33333333333576,
      "v": 56
    },
    {
      "midi": 67,
      "hit": false,
      "t": 37262.50000000006,
      "d": 18.75,
      "v": 61
    },
    {
      "midi": 64,
      "hit": false,
      "t": 37270.833333333394,
      "d": 16.66666666666424,
      "v": 55
    },
    {
      "midi": 60,
      "hit": false,
      "t": 37331.25000000006,
      "d": 60.41666666666424,
      "v": 40
    },
    {
      "midi": 74,
      "hit": false,
      "t": 37425.00000000006,
      "d": 72.91666666666424,
      "v": 65
    },
    {
      "midi": 57,
      "hit": false,
      "t": 37439.583333333394,
      "d": 335.4166666666715,
      "v": 49
    },
    {
      "midi": 65,
      "hit": false,
      "t": 37514.58333333339,
      "d": 64.58333333333576,
      "v": 51
    },
    {
      "midi": 72,
      "hit": false,
      "t": 37595.83333333339,
      "d": 75.00000000000728,
      "v": 56
    },
    {
      "midi": 65,
      "hit": false,
      "t": 37672.91666666673,
      "d": 60.41666666666424,
      "v": 59
    },
    {
      "midi": 69,
      "hit": false,
      "t": 37760.41666666673,
      "d": 58.33333333333576,
      "v": 58
    },
    {
      "midi": 65,
      "hit": false,
      "t": 37822.91666666673,
      "d": 41.66666666666424,
      "v": 55
    },
    {
      "midi": 58,
      "hit": false,
      "t": 37912.50000000006,
      "d": 52.08333333332848,
      "v": 65
    },
    {
      "midi": 67,
      "hit": false,
      "t": 37916.66666666672,
      "d": 35.41666666666424,
      "v": 64
    },
    {
      "midi": 64,
      "hit": false,
      "t": 37925.00000000006,
      "d": 16.66666666666424,
      "v": 44
    },
    {
      "midi": 60,
      "hit": false,
      "t": 37989.58333333339,
      "d": 58.33333333333576,
      "v": 49
    },
    {
      "midi": 58,
      "hit": false,
      "t": 38070.83333333339,
      "d": 54.16666666666424,
      "v": 62
    },
    {
      "midi": 69,
      "hit": false,
      "t": 38077.08333333339,
      "d": 64.58333333332848,
      "v": 65
    },
    {
      "midi": 64,
      "hit": false,
      "t": 38087.50000000005,
      "d": 16.66666666666424,
      "v": 53
    },
    {
      "midi": 60,
      "hit": false,
      "t": 38147.916666666715,
      "d": 45.83333333333576,
      "v": 36
    },
    {
      "midi": 58,
      "hit": false,
      "t": 38218.75000000005,
      "d": 72.91666666667152,
      "v": 53
    },
    {
      "midi": 67,
      "hit": false,
      "t": 38239.58333333339,
      "d": 37.5,
      "v": 66
    },
    {
      "midi": 64,
      "hit": false,
      "t": 38252.08333333339,
      "d": 16.66666666666424,
      "v": 57
    },
    {
      "midi": 60,
      "hit": false,
      "t": 38293.75000000006,
      "d": 64.58333333333576,
      "v": 50
    },
    {
      "midi": 72,
      "hit": false,
      "t": 38410.41666666673,
      "d": 260.4166666666788,
      "v": 62
    },
    {
      "midi": 57,
      "hit": false,
      "t": 38418.750000000065,
      "d": 300.0000000000073,
      "v": 52
    },
    {
      "midi": 65,
      "hit": false,
      "t": 38508.3333333334,
      "d": 45.83333333333576,
      "v": 48
    },
    {
      "midi": 64,
      "hit": false,
      "t": 38575.00000000007,
      "d": 81.25,
      "v": 49
    },
    {
      "midi": 65,
      "hit": false,
      "t": 38652.08333333341,
      "d": 89.58333333332848,
      "v": 59
    },
    {
      "midi": 69,
      "hit": false,
      "t": 38729.16666666674,
      "d": 37.5,
      "v": 56
    },
    {
      "midi": 74,
      "hit": false,
      "t": 38912.500000000065,
      "d": 50.000000000007276,
      "v": 73
    },
    {
      "midi": 65,
      "hit": false,
      "t": 38914.5833333334,
      "d": 66.66666666667152,
      "v": 57
    },
    {
      "midi": 71,
      "hit": false,
      "t": 38922.91666666674,
      "d": 37.5,
      "v": 55
    },
    {
      "midi": 67,
      "hit": false,
      "t": 38995.83333333341,
      "d": 58.33333333333576,
      "v": 50
    },
    {
      "midi": 76,
      "hit": false,
      "t": 39077.08333333341,
      "d": 45.83333333332848,
      "v": 66
    },
    {
      "midi": 65,
      "hit": false,
      "t": 39083.33333333341,
      "d": 45.83333333332848,
      "v": 61
    },
    {
      "midi": 71,
      "hit": false,
      "t": 39087.50000000007,
      "d": 18.75,
      "v": 57
    },
    {
      "midi": 67,
      "hit": false,
      "t": 39147.91666666674,
      "d": 70.83333333333576,
      "v": 47
    },
    {
      "midi": 65,
      "hit": false,
      "t": 39239.58333333341,
      "d": 47.91666666666424,
      "v": 55
    },
    {
      "midi": 74,
      "hit": false,
      "t": 39245.83333333341,
      "d": 18.75,
      "v": 70
    },
    {
      "midi": 71,
      "hit": false,
      "t": 39250.00000000007,
      "d": 18.75,
      "v": 53
    },
    {
      "midi": 67,
      "hit": false,
      "t": 39300.00000000007,
      "d": 62.5,
      "v": 53
    },
    {
      "midi": 64,
      "hit": false,
      "t": 39404.16666666674,
      "d": 449.9999999999927,
      "v": 67
    },
    {
      "midi": 81,
      "hit": false,
      "t": 39408.3333333334,
      "d": 150,
      "v": 76
    },
    {
      "midi": 72,
      "hit": false,
      "t": 39504.16666666674,
      "d": 85.41666666666424,
      "v": 55
    },
    {
      "midi": 79,
      "hit": false,
      "t": 39581.250000000065,
      "d": 81.25,
      "v": 66
    },
    {
      "midi": 72,
      "hit": false,
      "t": 39658.3333333334,
      "d": 64.58333333332848,
      "v": 63
    },
    {
      "midi": 76,
      "hit": false,
      "t": 39741.66666666673,
      "d": 64.58333333333576,
      "v": 69
    },
    {
      "midi": 72,
      "hit": false,
      "t": 39816.66666666673,
      "d": 39.58333333333576,
      "v": 57
    },
    {
      "midi": 74,
      "hit": false,
      "t": 39893.75000000007,
      "d": 43.75,
      "v": 81
    },
    {
      "midi": 65,
      "hit": false,
      "t": 39897.91666666674,
      "d": 56.250000000007276,
      "v": 71
    },
    {
      "midi": 71,
      "hit": false,
      "t": 39906.25000000007,
      "d": 33.33333333333576,
      "v": 58
    },
    {
      "midi": 67,
      "hit": false,
      "t": 39983.33333333341,
      "d": 54.16666666666424,
      "v": 55
    },
    {
      "midi": 65,
      "hit": false,
      "t": 40064.58333333341,
      "d": 68.75,
      "v": 64
    },
    {
      "midi": 76,
      "hit": false,
      "t": 40064.58333333341,
      "d": 70.83333333333576,
      "v": 75
    },
    {
      "midi": 71,
      "hit": false,
      "t": 40077.08333333341,
      "d": 20.83333333333576,
      "v": 55
    },
    {
      "midi": 67,
      "hit": false,
      "t": 40150.00000000008,
      "d": 52.08333333333576,
      "v": 41
    },
    {
      "midi": 65,
      "hit": false,
      "t": 40220.833333333416,
      "d": 43.75,
      "v": 66
    },
    {
      "midi": 74,
      "hit": false,
      "t": 40229.16666666675,
      "d": 33.33333333332848,
      "v": 73
    },
    {
      "midi": 71,
      "hit": false,
      "t": 40233.333333333416,
      "d": 68.75,
      "v": 65
    },
    {
      "midi": 67,
      "hit": false,
      "t": 40285.41666666675,
      "d": 70.83333333332848,
      "v": 58
    },
    {
      "midi": 79,
      "hit": false,
      "t": 40387.50000000008,
      "d": 245.83333333333576,
      "v": 78
    },
    {
      "midi": 64,
      "hit": false,
      "t": 40387.50000000008,
      "d": 333.33333333333576,
      "v": 75
    },
    {
      "midi": 72,
      "hit": false,
      "t": 40475.00000000008,
      "d": 62.5,
      "v": 64
    },
    {
      "midi": 71,
      "hit": false,
      "t": 40543.75000000008,
      "d": 104.16666666667152,
      "v": 65
    },
    {
      "midi": 72,
      "hit": false,
      "t": 40627.083333333416,
      "d": 95.83333333333576,
      "v": 74
    },
    {
      "midi": 76,
      "hit": false,
      "t": 40702.083333333416,
      "d": 43.75,
      "v": 72
    },
    {
      "midi": 78,
      "hit": false,
      "t": 40893.75000000008,
      "d": 62.5,
      "v": 69
    },
    {
      "midi": 69,
      "hit": false,
      "t": 40900.00000000008,
      "d": 54.16666666666424,
      "v": 61
    },
    {
      "midi": 75,
      "hit": false,
      "t": 40987.50000000008,
      "d": 52.08333333333576,
      "v": 57
    },
    {
      "midi": 69,
      "hit": false,
      "t": 41056.25000000008,
      "d": 47.91666666667152,
      "v": 49
    },
    {
      "midi": 79,
      "hit": false,
      "t": 41064.583333333416,
      "d": 45.83333333333576,
      "v": 53
    },
    {
      "midi": 72,
      "hit": false,
      "t": 41143.75000000009,
      "d": 68.75,
      "v": 47
    },
    {
      "midi": 69,
      "hit": false,
      "t": 41220.83333333342,
      "d": 39.58333333333576,
      "v": 46
    },
    {
      "midi": 78,
      "hit": false,
      "t": 41222.91666666676,
      "d": 56.25,
      "v": 53
    },
    {
      "midi": 75,
      "hit": false,
      "t": 41310.41666666676,
      "d": 45.83333333333576,
      "v": 51
    },
    {
      "midi": 79,
      "hit": false,
      "t": 41387.500000000095,
      "d": 58.33333333333576,
      "v": 68
    },
    {
      "midi": 69,
      "hit": false,
      "t": 41393.750000000095,
      "d": 37.5,
      "v": 55
    },
    {
      "midi": 72,
      "hit": false,
      "t": 41472.916666666766,
      "d": 52.08333333333576,
      "v": 51
    },
    {
      "midi": 78,
      "hit": false,
      "t": 41550.0000000001,
      "d": 60.41666666667152,
      "v": 60
    },
    {
      "midi": 69,
      "hit": false,
      "t": 41552.08333333344,
      "d": 37.5,
      "v": 50
    },
    {
      "midi": 75,
      "hit": false,
      "t": 41631.25000000011,
      "d": 54.16666666666424,
      "v": 56
    },
    {
      "midi": 69,
      "hit": false,
      "t": 41706.25000000011,
      "d": 41.66666666667152,
      "v": 57
    },
    {
      "midi": 79,
      "hit": false,
      "t": 41708.333333333445,
      "d": 50,
      "v": 59
    },
    {
      "midi": 72,
      "hit": false,
      "t": 41785.41666666678,
      "d": 52.08333333333576,
      "v": 51
    },
    {
      "midi": 78,
      "hit": false,
      "t": 41862.50000000012,
      "d": 70.83333333333576,
      "v": 74
    },
    {
      "midi": 68,
      "hit": false,
      "t": 41870.83333333345,
      "d": 41.66666666666424,
      "v": 59
    },
    {
      "midi": 75,
      "hit": false,
      "t": 41947.91666666679,
      "d": 52.08333333333576,
      "v": 60
    },
    {
      "midi": 79,
      "hit": false,
      "t": 42022.91666666679,
      "d": 47.91666666666424,
      "v": 64
    },
    {
      "midi": 68,
      "hit": false,
      "t": 42025.000000000124,
      "d": 35.41666666666424,
      "v": 60
    },
    {
      "midi": 72,
      "hit": false,
      "t": 42102.08333333345,
      "d": 60.41666666666424,
      "v": 41
    },
    {
      "midi": 78,
      "hit": false,
      "t": 42179.16666666678,
      "d": 60.41666666667152,
      "v": 76
    },
    {
      "midi": 68,
      "hit": false,
      "t": 42193.75000000012,
      "d": 39.58333333333576,
      "v": 70
    },
    {
      "midi": 75,
      "hit": false,
      "t": 42256.25000000012,
      "d": 56.25,
      "v": 72
    },
    {
      "midi": 79,
      "hit": false,
      "t": 42333.33333333345,
      "d": 60.41666666666424,
      "v": 64
    },
    {
      "midi": 68,
      "hit": false,
      "t": 42345.83333333345,
      "d": 37.5,
      "v": 76
    },
    {
      "midi": 72,
      "hit": false,
      "t": 42412.50000000012,
      "d": 68.75,
      "v": 64
    },
    {
      "midi": 78,
      "hit": false,
      "t": 42487.50000000012,
      "d": 66.66666666666424,
      "v": 83
    },
    {
      "midi": 68,
      "hit": false,
      "t": 42489.58333333345,
      "d": 47.91666666666424,
      "v": 80
    },
    {
      "midi": 75,
      "hit": false,
      "t": 42556.25000000012,
      "d": 60.41666666666424,
      "v": 76
    },
    {
      "midi": 84,
      "hit": false,
      "t": 42631.25000000012,
      "d": 39.58333333332848,
      "v": 74
    },
    {
      "midi": 68,
      "hit": false,
      "t": 42641.66666666678,
      "d": 39.58333333332848,
      "v": 83
    },
    {
      "midi": 78,
      "hit": false,
      "t": 42839.58333333344,
      "d": 75,
      "v": 78
    },
    {
      "midi": 67,
      "hit": false,
      "t": 42847.91666666677,
      "d": 54.16666666666424,
      "v": 49
    },
    {
      "midi": 75,
      "hit": false,
      "t": 42912.5000000001,
      "d": 54.16666666667152,
      "v": 63
    },
    {
      "midi": 72,
      "hit": false,
      "t": 42997.91666666677,
      "d": 52.08333333333576,
      "v": 57
    },
    {
      "midi": 75,
      "hit": false,
      "t": 43081.25000000011,
      "d": 47.91666666666424,
      "v": 61
    },
    {
      "midi": 78,
      "hit": false,
      "t": 43141.66666666677,
      "d": 77.08333333333576,
      "v": 59
    },
    {
      "midi": 81,
      "hit": false,
      "t": 43220.833333333445,
      "d": 60.41666666666424,
      "v": 63
    },
    {
      "midi": 79,
      "hit": false,
      "t": 43306.25000000011,
      "d": 72.91666666666424,
      "v": 72
    },
    {
      "midi": 65,
      "hit": false,
      "t": 43308.333333333445,
      "d": 150,
      "v": 66
    },
    {
      "midi": 59,
      "hit": false,
      "t": 43312.50000000011,
      "d": 183.33333333332848,
      "v": 67
    },
    {
      "midi": 55,
      "hit": false,
      "t": 43312.50000000011,
      "d": 210.41666666666424,
      "v": 62
    },
    {
      "midi": 62,
      "hit": false,
      "t": 43316.66666666677,
      "d": 162.5,
      "v": 59
    },
    {
      "midi": 77,
      "hit": false,
      "t": 43393.75000000011,
      "d": 64.58333333333576,
      "v": 48
    },
    {
      "midi": 74,
      "hit": false,
      "t": 43475.00000000011,
      "d": 52.08333333332848,
      "v": 58
    },
    {
      "midi": 71,
      "hit": false,
      "t": 43562.5000000001,
      "d": 39.58333333333576,
      "v": 44
    },
    {
      "midi": 67,
      "hit": false,
      "t": 43641.66666666677,
      "d": 66.66666666666424,
      "v": 44
    },
    {
      "midi": 71,
      "hit": false,
      "t": 43718.7500000001,
      "d": 47.91666666666424,
      "v": 47
    },
    {
      "midi": 72,
      "hit": false,
      "t": 43804.166666666766,
      "d": 212.50000000000728,
      "v": 55
    },
    {
      "midi": 48,
      "hit": false,
      "t": 43808.33333333343,
      "d": 222.9166666666788,
      "v": 50
    },
    {
      "midi": 52,
      "hit": false,
      "t": 43893.7500000001,
      "d": 154.1666666666788,
      "v": 53
    },
    {
      "midi": 55,
      "hit": false,
      "t": 43960.416666666766,
      "d": 102.08333333335031,
      "v": 49
    },
    {
      "midi": 60,
      "hit": false,
      "t": 44033.333333333445,
      "d": 45.83333333333576,
      "v": 59
    },
    {
      "midi": 64,
      "hit": false,
      "t": 44120.83333333345,
      "d": 85.41666666667152,
      "v": 55
    },
    {
      "midi": 67,
      "hit": false,
      "t": 44191.66666666679,
      "d": 95.83333333333576,
      "v": 60
    },
    {
      "midi": 72,
      "hit": false,
      "t": 44266.66666666679,
      "d": 93.75,
      "v": 75
    },
    {
      "midi": 55,
      "hit": false,
      "t": 44268.750000000124,
      "d": 231.25,
      "v": 69
    },
    {
      "midi": 60,
      "hit": false,
      "t": 44350.000000000124,
      "d": 160.41666666666424,
      "v": 66
    },
    {
      "midi": 64,
      "hit": false,
      "t": 44429.16666666679,
      "d": 100,
      "v": 77
    },
    {
      "midi": 67,
      "hit": false,
      "t": 44506.250000000124,
      "d": 122.91666666666424,
      "v": 67
    },
    {
      "midi": 72,
      "hit": false,
      "t": 44585.41666666679,
      "d": 112.5,
      "v": 70
    },
    {
      "midi": 76,
      "hit": false,
      "t": 44664.58333333345,
      "d": 39.58333333333576,
      "v": 76
    },
    {
      "midi": 52,
      "hit": false,
      "t": 44683.33333333345,
      "d": 47.91666666666424,
      "v": 61
    },
    {
      "midi": 65,
      "hit": false,
      "t": 44735.41666666678,
      "d": 58.33333333333576,
      "v": 80
    },
    {
      "midi": 74,
      "hit": false,
      "t": 44743.75000000012,
      "d": 85.41666666666424,
      "v": 96
    },
    {
      "midi": 69,
      "hit": false,
      "t": 44841.66666666678,
      "d": 47.91666666666424,
      "v": 61
    },
    {
      "midi": 64,
      "hit": false,
      "t": 44900.00000000011,
      "d": 75.00000000000728,
      "v": 51
    },
    {
      "midi": 72,
      "hit": false,
      "t": 44914.583333333445,
      "d": 52.08333333333576,
      "v": 56
    },
    {
      "midi": 67,
      "hit": false,
      "t": 44993.75000000012,
      "d": 56.25,
      "v": 52
    },
    {
      "midi": 62,
      "hit": false,
      "t": 45068.75000000012,
      "d": 18.75,
      "v": 60
    },
    {
      "midi": 71,
      "hit": false,
      "t": 45072.91666666678,
      "d": 89.58333333333576,
      "v": 61
    },
    {
      "midi": 65,
      "hit": false,
      "t": 45162.50000000012,
      "d": 50,
      "v": 54
    },
    {
      "midi": 69,
      "hit": false,
      "t": 45231.25000000012,
      "d": 45.83333333332848,
      "v": 56
    },
    {
      "midi": 60,
      "hit": false,
      "t": 45235.41666666678,
      "d": 43.75,
      "v": 59
    },
    {
      "midi": 64,
      "hit": false,
      "t": 45312.50000000012,
      "d": 64.58333333333576,
      "v": 55
    },
    {
      "midi": 59,
      "hit": false,
      "t": 45397.91666666679,
      "d": 33.33333333333576,
      "v": 63
    },
    {
      "midi": 68,
      "hit": false,
      "t": 45400.000000000124,
      "d": 58.33333333333576,
      "v": 66
    },
    {
      "midi": 62,
      "hit": false,
      "t": 45479.166666666795,
      "d": 52.08333333333576,
      "v": 55
    },
    {
      "midi": 65,
      "hit": false,
      "t": 45554.166666666795,
      "d": 43.75,
      "v": 63
    },
    {
      "midi": 57,
      "hit": false,
      "t": 45558.33333333346,
      "d": 39.58333333333576,
      "v": 53
    },
    {
      "midi": 62,
      "hit": false,
      "t": 45635.416666666795,
      "d": 62.5,
      "v": 49
    },
    {
      "midi": 56,
      "hit": false,
      "t": 45712.50000000013,
      "d": 41.66666666666424,
      "v": 74
    },
    {
      "midi": 64,
      "hit": false,
      "t": 45722.916666666795,
      "d": 45.83333333333576,
      "v": 67
    },
    {
      "midi": 62,
      "hit": false,
      "t": 45800.00000000013,
      "d": 60.41666666666424,
      "v": 51
    },
    {
      "midi": 59,
      "hit": false,
      "t": 45881.25000000013,
      "d": 37.5,
      "v": 66
    },
    {
      "midi": 68,
      "hit": false,
      "t": 45881.25000000013,
      "d": 58.33333333333576,
      "v": 66
    },
    {
      "midi": 62,
      "hit": false,
      "t": 45962.50000000013,
      "d": 62.5,
      "v": 51
    },
    {
      "midi": 57,
      "hit": false,
      "t": 46043.75000000013,
      "d": 37.5,
      "v": 60
    },
    {
      "midi": 65,
      "hit": false,
      "t": 46045.83333333347,
      "d": 56.25,
      "v": 70
    },
    {
      "midi": 62,
      "hit": false,
      "t": 46122.9166666668,
      "d": 62.5,
      "v": 60
    },
    {
      "midi": 64,
      "hit": false,
      "t": 46206.25000000014,
      "d": 68.75,
      "v": 75
    },
    {
      "midi": 56,
      "hit": false,
      "t": 46208.333333333474,
      "d": 225,
      "v": 74
    },
    {
      "midi": 52,
      "hit": false,
      "t": 46212.50000000014,
      "d": 231.25,
      "v": 57
    },
    {
      "midi": 59,
      "hit": false,
      "t": 46277.083333333474,
      "d": 150,
      "v": 62
    },
    {
      "midi": 62,
      "hit": false,
      "t": 46366.66666666681,
      "d": 70.83333333332848,
      "v": 71
    },
    {
      "midi": 64,
      "hit": false,
      "t": 46439.583333333474,
      "d": 79.16666666666424,
      "v": 78
    },
    {
      "midi": 68,
      "hit": false,
      "t": 46510.4166666668,
      "d": 77.08333333333576,
      "v": 63
    },
    {
      "midi": 71,
      "hit": false,
      "t": 46583.333333333474,
      "d": 50,
      "v": 61
    },
    {
      "midi": 52,
      "hit": false,
      "t": 46614.583333333474,
      "d": 35.41666666666424,
      "v": 61
    },
    {
      "midi": 65,
      "hit": false,
      "t": 46664.583333333474,
      "d": 43.75,
      "v": 71
    },
    {
      "midi": 74,
      "hit": false,
      "t": 46672.91666666681,
      "d": 37.5,
      "v": 74
    },
    {
      "midi": 69,
      "hit": false,
      "t": 46762.500000000146,
      "d": 35.41666666666424,
      "v": 61
    },
    {
      "midi": 72,
      "hit": false,
      "t": 46835.41666666681,
      "d": 43.75,
      "v": 63
    },
    {
      "midi": 64,
      "hit": false,
      "t": 46839.583333333474,
      "d": 20.83333333333576,
      "v": 57
    },
    {
      "midi": 67,
      "hit": false,
      "t": 46925.000000000146,
      "d": 39.58333333333576,
      "v": 47
    },
    {
      "midi": 71,
      "hit": false,
      "t": 46997.91666666682,
      "d": 45.83333333333576,
      "v": 61
    },
    {
      "midi": 62,
      "hit": false,
      "t": 47000.00000000015,
      "d": 18.75,
      "v": 57
    },
    {
      "midi": 65,
      "hit": false,
      "t": 47079.16666666682,
      "d": 47.91666666666424,
      "v": 49
    },
    {
      "midi": 69,
      "hit": false,
      "t": 47158.33333333348,
      "d": 45.83333333333576,
      "v": 60
    },
    {
      "midi": 60,
      "hit": false,
      "t": 47160.41666666682,
      "d": 41.66666666666424,
      "v": 57
    },
    {
      "midi": 64,
      "hit": false,
      "t": 47237.50000000015,
      "d": 52.08333333333576,
      "v": 47
    },
    {
      "midi": 68,
      "hit": false,
      "t": 47322.916666666824,
      "d": 47.91666666667152,
      "v": 61
    },
    {
      "midi": 59,
      "hit": false,
      "t": 47325.00000000016,
      "d": 18.75,
      "v": 60
    },
    {
      "midi": 62,
      "hit": false,
      "t": 47402.083333333496,
      "d": 47.91666666666424,
      "v": 46
    },
    {
      "midi": 57,
      "hit": false,
      "t": 47483.333333333496,
      "d": 39.58333333333576,
      "v": 61
    },
    {
      "midi": 65,
      "hit": false,
      "t": 47485.41666666683,
      "d": 39.58333333333576,
      "v": 64
    },
    {
      "midi": 62,
      "hit": false,
      "t": 47558.3333333335,
      "d": 54.16666666666424,
      "v": 53
    },
    {
      "midi": 56,
      "hit": false,
      "t": 47639.5833333335,
      "d": 37.5,
      "v": 68
    },
    {
      "midi": 64,
      "hit": false,
      "t": 47650.00000000017,
      "d": 37.5,
      "v": 64
    },
    {
      "midi": 62,
      "hit": false,
      "t": 47729.16666666683,
      "d": 52.08333333333576,
      "v": 52
    },
    {
      "midi": 59,
      "hit": false,
      "t": 47804.16666666683,
      "d": 43.75,
      "v": 54
    },
    {
      "midi": 68,
      "hit": false,
      "t": 47810.41666666683,
      "d": 52.08333333333576,
      "v": 63
    },
    {
      "midi": 62,
      "hit": false,
      "t": 47887.50000000017,
      "d": 56.25,
      "v": 53
    },
    {
      "midi": 57,
      "hit": false,
      "t": 47954.16666666683,
      "d": 18.75,
      "v": 63
    },
    {
      "midi": 65,
      "hit": false,
      "t": 47972.91666666683,
      "d": 43.75,
      "v": 68
    },
    {
      "midi": 62,
      "hit": false,
      "t": 48041.66666666683,
      "d": 60.41666666666424,
      "v": 60
    },
    {
      "midi": 64,
      "hit": false,
      "t": 48125.00000000016,
      "d": 54.16666666666424,
      "v": 73
    },
    {
      "midi": 56,
      "hit": false,
      "t": 48127.083333333496,
      "d": 260.41666666666424,
      "v": 70
    },
    {
      "midi": 52,
      "hit": false,
      "t": 48133.333333333496,
      "d": 235.41666666665697,
      "v": 57
    },
    {
      "midi": 59,
      "hit": false,
      "t": 48218.75000000015,
      "d": 166.66666666667152,
      "v": 64
    },
    {
      "midi": 64,
      "hit": false,
      "t": 48295.83333333349,
      "d": 104.16666666667152,
      "v": 78
    },
    {
      "midi": 68,
      "hit": false,
      "t": 48370.83333333349,
      "d": 85.41666666667152,
      "v": 87
    },
    {
      "midi": 71,
      "hit": false,
      "t": 48435.416666666824,
      "d": 95.83333333333576,
      "v": 70
    },
    {
      "midi": 76,
      "hit": false,
      "t": 48514.583333333496,
      "d": 58.33333333332848,
      "v": 66
    },
    {
      "midi": 57,
      "hit": false,
      "t": 48550.00000000016,
      "d": 60.41666666666424,
      "v": 59
    },
    {
      "midi": 79,
      "hit": false,
      "t": 48610.416666666824,
      "d": 66.66666666666424,
      "v": 80
    },
    {
      "midi": 70,
      "hit": false,
      "t": 48616.666666666824,
      "d": 35.41666666666424,
      "v": 87
    },
    {
      "midi": 74,
      "hit": false,
      "t": 48693.75000000015,
      "d": 60.41666666666424,
      "v": 83
    },
    {
      "midi": 77,
      "hit": false,
      "t": 48775.00000000015,
      "d": 45.83333333333576,
      "v": 73
    },
    {
      "midi": 69,
      "hit": false,
      "t": 48777.08333333349,
      "d": 50,
      "v": 65
    },
    {
      "midi": 72,
      "hit": false,
      "t": 48852.08333333349,
      "d": 52.08333333333576,
      "v": 64
    },
    {
      "midi": 76,
      "hit": false,
      "t": 48931.25000000016,
      "d": 81.25,
      "v": 66
    },
    {
      "midi": 67,
      "hit": false,
      "t": 48931.25000000016,
      "d": 93.75,
      "v": 70
    },
    {
      "midi": 70,
      "hit": false,
      "t": 49014.583333333496,
      "d": 52.08333333332848,
      "v": 59
    },
    {
      "midi": 65,
      "hit": false,
      "t": 49087.50000000016,
      "d": 31.25,
      "v": 74
    },
    {
      "midi": 74,
      "hit": false,
      "t": 49093.75000000016,
      "d": 50,
      "v": 68
    },
    {
      "midi": 69,
      "hit": false,
      "t": 49168.75000000016,
      "d": 54.16666666666424,
      "v": 65
    },
    {
      "midi": 64,
      "hit": false,
      "t": 49243.75000000016,
      "d": 43.75,
      "v": 64
    },
    {
      "midi": 73,
      "hit": false,
      "t": 49247.916666666824,
      "d": 56.25,
      "v": 75
    },
    {
      "midi": 67,
      "hit": false,
      "t": 49329.166666666824,
      "d": 52.08333333333576,
      "v": 59
    },
    {
      "midi": 62,
      "hit": false,
      "t": 49402.083333333496,
      "d": 29.16666666666424,
      "v": 70
    },
    {
      "midi": 70,
      "hit": false,
      "t": 49402.083333333496,
      "d": 45.83333333332848,
      "v": 77
    },
    {
      "midi": 67,
      "hit": false,
      "t": 49483.33333333349,
      "d": 54.16666666666424,
      "v": 55
    },
    {
      "midi": 61,
      "hit": false,
      "t": 49556.25000000015,
      "d": 43.75,
      "v": 62
    },
    {
      "midi": 69,
      "hit": false,
      "t": 49560.41666666682,
      "d": 41.66666666667152,
      "v": 68
    },
    {
      "midi": 67,
      "hit": false,
      "t": 49639.58333333349,
      "d": 58.33333333333576,
      "v": 56
    },
    {
      "midi": 73,
      "hit": false,
      "t": 49722.916666666824,
      "d": 54.16666666666424,
      "v": 87
    },
    {
      "midi": 64,
      "hit": false,
      "t": 49725.00000000016,
      "d": 47.91666666666424,
      "v": 77
    },
    {
      "midi": 67,
      "hit": false,
      "t": 49814.58333333349,
      "d": 50,
      "v": 57
    },
    {
      "midi": 70,
      "hit": false,
      "t": 49893.75000000015,
      "d": 52.08333333332848,
      "v": 68
    },
    {
      "midi": 62,
      "hit": false,
      "t": 49897.91666666682,
      "d": 16.66666666666424,
      "v": 53
    },
    {
      "midi": 67,
      "hit": false,
      "t": 49972.91666666682,
      "d": 56.25,
      "v": 48
    },
    {
      "midi": 69,
      "hit": false,
      "t": 50062.50000000015,
      "d": 37.5,
      "v": 62
    },
    {
      "midi": 61,
      "hit": false,
      "t": 50062.50000000015,
      "d": 43.75,
      "v": 59
    },
    {
      "midi": 67,
      "hit": false,
      "t": 50147.91666666682,
      "d": 43.75,
      "v": 42
    },
    {
      "midi": 64,
      "hit": false,
      "t": 50218.75000000015,
      "d": 50,
      "v": 78
    },
    {
      "midi": 73,
      "hit": false,
      "t": 50220.83333333349,
      "d": 56.25,
      "v": 85
    },
    {
      "midi": 67,
      "hit": false,
      "t": 50312.50000000015,
      "d": 52.08333333333576,
      "v": 50
    },
    {
      "midi": 70,
      "hit": false,
      "t": 50381.25000000015,
      "d": 54.16666666666424,
      "v": 75
    },
    {
      "midi": 62,
      "hit": false,
      "t": 50383.33333333349,
      "d": 16.66666666666424,
      "v": 64
    },
    {
      "midi": 67,
      "hit": false,
      "t": 50462.50000000015,
      "d": 45.83333333333576,
      "v": 55
    },
    {
      "midi": 61,
      "hit": false,
      "t": 50527.08333333349,
      "d": 56.25,
      "v": 74
    },
    {
      "midi": 64,
      "hit": false,
      "t": 50535.416666666824,
      "d": 56.25,
      "v": 59
    },
    {
      "midi": 69,
      "hit": false,
      "t": 50539.58333333349,
      "d": 54.16666666667152,
      "v": 75
    },
    {
      "midi": 67,
      "hit": false,
      "t": 50612.50000000016,
      "d": 75,
      "v": 61
    },
    {
      "midi": 72,
      "hit": false,
      "t": 50691.666666666824,
      "d": 52.08333333333576,
      "v": 64
    },
    {
      "midi": 61,
      "hit": false,
      "t": 50697.916666666824,
      "d": 58.33333333333576,
      "v": 71
    },
    {
      "midi": 64,
      "hit": false,
      "t": 50700.00000000016,
      "d": 104.16666666667152,
      "v": 70
    },
    {
      "midi": 70,
      "hit": false,
      "t": 50712.50000000016,
      "d": 56.25,
      "v": 76
    },
    {
      "midi": 67,
      "hit": false,
      "t": 50770.833333333496,
      "d": 66.66666666667152,
      "v": 64
    },
    {
      "midi": 61,
      "hit": false,
      "t": 50852.0833333335,
      "d": 70.83333333332848,
      "v": 63
    },
    {
      "midi": 69,
      "hit": false,
      "t": 50868.75000000017,
      "d": 43.75,
      "v": 86
    },
    {
      "midi": 67,
      "hit": false,
      "t": 50906.25000000017,
      "d": 62.5,
      "v": 55
    },
    {
      "midi": 62,
      "hit": false,
      "t": 50995.8333333335,
      "d": 168.75000000000728,
      "v": 78
    },
    {
      "midi": 69,
      "hit": false,
      "t": 51012.50000000017,
      "d": 45.83333333333576,
      "v": 80
    },
    {
      "midi": 65,
      "hit": false,
      "t": 51085.41666666684,
      "d": 64.58333333333576,
      "v": 73
    },
    {
      "midi": 74,
      "hit": false,
      "t": 51168.750000000175,
      "d": 106.25,
      "v": 73
    },
    {
      "midi": 65,
      "hit": false,
      "t": 51241.66666666684,
      "d": 54.16666666667152,
      "v": 70
    },
    {
      "midi": 69,
      "hit": false,
      "t": 51318.750000000175,
      "d": 58.33333333333576,
      "v": 66
    },
    {
      "midi": 65,
      "hit": false,
      "t": 51389.58333333351,
      "d": 58.33333333333576,
      "v": 61
    },
    {
      "midi": 59,
      "hit": false,
      "t": 51475.000000000175,
      "d": 52.08333333333576,
      "v": 55
    },
    {
      "midi": 62,
      "hit": false,
      "t": 51477.08333333351,
      "d": 54.16666666666424,
      "v": 49
    },
    {
      "midi": 65,
      "hit": false,
      "t": 51543.750000000175,
      "d": 72.91666666666424,
      "v": 61
    },
    {
      "midi": 71,
      "hit": false,
      "t": 51625.000000000175,
      "d": 39.58333333333576,
      "v": 66
    },
    {
      "midi": 62,
      "hit": false,
      "t": 51629.16666666684,
      "d": 75.00000000000728,
      "v": 58
    },
    {
      "midi": 59,
      "hit": false,
      "t": 51637.500000000175,
      "d": 62.500000000007276,
      "v": 59
    },
    {
      "midi": 69,
      "hit": false,
      "t": 51639.58333333351,
      "d": 58.33333333333576,
      "v": 70
    },
    {
      "midi": 65,
      "hit": false,
      "t": 51706.25000000018,
      "d": 60.41666666666424,
      "v": 55
    },
    {
      "midi": 59,
      "hit": false,
      "t": 51785.416666666846,
      "d": 81.25,
      "v": 52
    },
    {
      "midi": 67,
      "hit": false,
      "t": 51802.08333333351,
      "d": 50,
      "v": 70
    },
    {
      "midi": 65,
      "hit": false,
      "t": 51860.416666666846,
      "d": 60.41666666666424,
      "v": 52
    },
    {
      "midi": 60,
      "hit": false,
      "t": 51954.166666666846,
      "d": 122.91666666667152,
      "v": 66
    },
    {
      "midi": 67,
      "hit": false,
      "t": 51972.916666666846,
      "d": 39.58333333333576,
      "v": 64
    },
    {
      "midi": 64,
      "hit": false,
      "t": 52050.00000000018,
      "d": 50,
      "v": 54
    },
    {
      "midi": 72,
      "hit": false,
      "t": 52131.25000000018,
      "d": 64.58333333333576,
      "v": 57
    },
    {
      "midi": 64,
      "hit": false,
      "t": 52204.16666666685,
      "d": 45.83333333333576,
      "v": 64
    },
    {
      "midi": 67,
      "hit": false,
      "t": 52289.583333333525,
      "d": 47.91666666666424,
      "v": 52
    },
    {
      "midi": 64,
      "hit": false,
      "t": 52362.50000000019,
      "d": 45.83333333333576,
      "v": 57
    },
    {
      "midi": 57,
      "hit": false,
      "t": 52447.91666666686,
      "d": 60.416666666656965,
      "v": 52
    },
    {
      "midi": 60,
      "hit": false,
      "t": 52452.083333333525,
      "d": 85.41666666666424,
      "v": 57
    },
    {
      "midi": 64,
      "hit": false,
      "t": 52522.91666666685,
      "d": 70.83333333333576,
      "v": 59
    },
    {
      "midi": 67,
      "hit": false,
      "t": 52602.083333333525,
      "d": 41.66666666666424,
      "v": 61
    },
    {
      "midi": 69,
      "hit": false,
      "t": 52602.083333333525,
      "d": 47.91666666666424,
      "v": 58
    },
    {
      "midi": 60,
      "hit": false,
      "t": 52606.25000000019,
      "d": 66.66666666666424,
      "v": 50
    },
    {
      "midi": 57,
      "hit": false,
      "t": 52608.333333333525,
      "d": 54.16666666666424,
      "v": 59
    },
    {
      "midi": 64,
      "hit": false,
      "t": 52679.16666666685,
      "d": 64.58333333333576,
      "v": 55
    },
    {
      "midi": 66,
      "hit": false,
      "t": 52754.16666666685,
      "d": 41.66666666667152,
      "v": 70
    },
    {
      "midi": 60,
      "hit": false,
      "t": 52762.50000000019,
      "d": 52.08333333333576,
      "v": 46
    },
    {
      "midi": 57,
      "hit": false,
      "t": 52764.583333333525,
      "d": 50,
      "v": 52
    },
    {
      "midi": 64,
      "hit": false,
      "t": 52827.083333333525,
      "d": 60.41666666666424,
      "v": 66
    },
    {
      "midi": 60,
      "hit": false,
      "t": 52918.75000000019,
      "d": 185.41666666667152,
      "v": 60
    },
    {
      "midi": 57,
      "hit": false,
      "t": 52920.833333333525,
      "d": 177.08333333333576,
      "v": 64
    },
    {
      "midi": 66,
      "hit": false,
      "t": 52927.083333333525,
      "d": 58.33333333333576,
      "v": 68
    },
    {
      "midi": 64,
      "hit": false,
      "t": 53004.16666666686,
      "d": 66.66666666666424,
      "v": 64
    },
    {
      "midi": 72,
      "hit": false,
      "t": 53085.41666666686,
      "d": 75,
      "v": 68
    },
    {
      "midi": 64,
      "hit": false,
      "t": 53168.7500000002,
      "d": 50,
      "v": 75
    },
    {
      "midi": 66,
      "hit": false,
      "t": 53247.91666666686,
      "d": 70.83333333333576,
      "v": 71
    },
    {
      "midi": 64,
      "hit": false,
      "t": 53320.83333333353,
      "d": 64.58333333333576,
      "v": 72
    },
    {
      "midi": 59,
      "hit": false,
      "t": 53408.33333333353,
      "d": 83.33333333332848,
      "v": 65
    },
    {
      "midi": 57,
      "hit": false,
      "t": 53412.5000000002,
      "d": 56.25,
      "v": 50
    },
    {
      "midi": 63,
      "hit": false,
      "t": 53487.5000000002,
      "d": 58.33333333332848,
      "v": 71
    },
    {
      "midi": 69,
      "hit": false,
      "t": 53545.833333333525,
      "d": 37.500000000007276,
      "v": 64
    },
    {
      "midi": 67,
      "hit": false,
      "t": 53554.16666666686,
      "d": 62.500000000007276,
      "v": 81
    },
    {
      "midi": 59,
      "hit": false,
      "t": 53556.2500000002,
      "d": 79.16666666667152,
      "v": 68
    },
    {
      "midi": 57,
      "hit": false,
      "t": 53562.5000000002,
      "d": 47.91666666667152,
      "v": 58
    },
    {
      "midi": 63,
      "hit": false,
      "t": 53627.08333333353,
      "d": 60.41666666667152,
      "v": 69
    },
    {
      "midi": 59,
      "hit": false,
      "t": 53706.250000000204,
      "d": 95.83333333333576,
      "v": 55
    },
    {
      "midi": 66,
      "hit": false,
      "t": 53708.33333333354,
      "d": 81.25,
      "v": 88
    },
    {
      "midi": 57,
      "hit": false,
      "t": 53710.416666666875,
      "d": 60.41666666666424,
      "v": 47
    },
    {
      "midi": 63,
      "hit": false,
      "t": 53787.500000000204,
      "d": 47.91666666667152,
      "v": 75
    },
    {
      "midi": 59,
      "hit": false,
      "t": 53860.416666666875,
      "d": 247.9166666666788,
      "v": 75
    },
    {
      "midi": 57,
      "hit": false,
      "t": 53862.50000000021,
      "d": 247.9166666666788,
      "v": 66
    },
    {
      "midi": 66,
      "hit": false,
      "t": 53872.916666666875,
      "d": 58.33333333333576,
      "v": 97
    },
    {
      "midi": 63,
      "hit": false,
      "t": 53956.25000000021,
      "d": 52.08333333333576,
      "v": 81
    },
    {
      "midi": 71,
      "hit": false,
      "t": 54029.16666666688,
      "d": 70.83333333333576,
      "v": 80
    },
    {
      "midi": 63,
      "hit": false,
      "t": 54110.41666666689,
      "d": 56.25,
      "v": 90
    },
    {
      "midi": 66,
      "hit": false,
      "t": 54191.66666666689,
      "d": 72.91666666667152,
      "v": 78
    },
    {
      "midi": 63,
      "hit": false,
      "t": 54262.500000000226,
      "d": 54.16666666667152,
      "v": 80
    },
    {
      "midi": 56,
      "hit": false,
      "t": 54358.33333333356,
      "d": 187.5,
      "v": 90
    },
    {
      "midi": 59,
      "hit": false,
      "t": 54452.08333333356,
      "d": 54.16666666666424,
      "v": 63
    },
    {
      "midi": 58,
      "hit": false,
      "t": 54533.33333333356,
      "d": 39.58333333333576,
      "v": 57
    },
    {
      "midi": 59,
      "hit": false,
      "t": 54600.00000000023,
      "d": 50,
      "v": 67
    },
    {
      "midi": 56,
      "hit": false,
      "t": 54672.9166666669,
      "d": 56.25,
      "v": 79
    },
    {
      "midi": 64,
      "hit": false,
      "t": 54677.08333333356,
      "d": 50,
      "v": 71
    },
    {
      "midi": 59,
      "hit": false,
      "t": 54750.00000000023,
      "d": 60.41666666666424,
      "v": 65
    },
    {
      "midi": 68,
      "hit": false,
      "t": 54831.25000000023,
      "d": 77.08333333332848,
      "v": 83
    },
    {
      "midi": 52,
      "hit": false,
      "t": 54835.4166666669,
      "d": 50,
      "v": 70
    },
    {
      "midi": 64,
      "hit": false,
      "t": 54914.58333333356,
      "d": 52.08333333333576,
      "v": 70
    },
    {
      "midi": 57,
      "hit": false,
      "t": 54995.83333333356,
      "d": 27.08333333333576,
      "v": 84
    },
    {
      "midi": 66,
      "hit": false,
      "t": 54995.83333333356,
      "d": 72.91666666667152,
      "v": 76
    },
    {
      "midi": 63,
      "hit": false,
      "t": 55077.08333333357,
      "d": 47.91666666666424,
      "v": 76
    },
    {
      "midi": 64,
      "hit": false,
      "t": 55154.1666666669,
      "d": 52.08333333333576,
      "v": 66
    },
    {
      "midi": 56,
      "hit": false,
      "t": 55156.25000000023,
      "d": 29.16666666666424,
      "v": 78
    },
    {
      "midi": 59,
      "hit": false,
      "t": 55233.33333333357,
      "d": 66.66666666666424,
      "v": 66
    },
    {
      "midi": 52,
      "hit": false,
      "t": 55314.58333333357,
      "d": 41.66666666667152,
      "v": 68
    },
    {
      "midi": 68,
      "hit": false,
      "t": 55316.666666666904,
      "d": 66.66666666667152,
      "v": 80
    },
    {
      "midi": 64,
      "hit": false,
      "t": 55391.66666666691,
      "d": 47.91666666666424,
      "v": 67
    },
    {
      "midi": 66,
      "hit": false,
      "t": 55470.833333333576,
      "d": 91.66666666666424,
      "v": 81
    },
    {
      "midi": 57,
      "hit": false,
      "t": 55475.00000000024,
      "d": 29.16666666666424,
      "v": 87
    },
    {
      "midi": 63,
      "hit": false,
      "t": 55550.00000000024,
      "d": 60.41666666666424,
      "v": 71
    },
    {
      "midi": 56,
      "hit": false,
      "t": 55633.33333333357,
      "d": 20.83333333333576,
      "v": 76
    },
    {
      "midi": 64,
      "hit": false,
      "t": 55635.416666666904,
      "d": 50,
      "v": 72
    },
    {
      "midi": 59,
      "hit": false,
      "t": 55710.416666666904,
      "d": 54.16666666666424,
      "v": 73
    },
    {
      "midi": 54,
      "hit": false,
      "t": 55789.58333333357,
      "d": 275.0000000000073,
      "v": 87
    },
    {
      "midi": 57,
      "hit": false,
      "t": 55795.83333333357,
      "d": 260.4166666666715,
      "v": 80
    },
    {
      "midi": 47,
      "hit": false,
      "t": 55797.916666666904,
      "d": 275.0000000000073,
      "v": 74
    },
    {
      "midi": 69,
      "hit": false,
      "t": 55804.166666666904,
      "d": 208.33333333332848,
      "v": 75
    },
    {
      "midi": 66,
      "hit": false,
      "t": 55895.83333333357,
      "d": 104.16666666666424,
      "v": 63
    },
    {
      "midi": 63,
      "hit": false,
      "t": 55970.83333333357,
      "d": 68.75,
      "v": 71
    },
    {
      "midi": 59,
      "hit": false,
      "t": 56054.166666666904,
      "d": 62.500000000007276,
      "v": 75
    },
    {
      "midi": 66,
      "hit": false,
      "t": 56122.91666666691,
      "d": 62.5,
      "v": 78
    },
    {
      "midi": 63,
      "hit": false,
      "t": 56195.833333333576,
      "d": 62.5,
      "v": 77
    },
    {
      "midi": 40,
      "hit": false,
      "t": 56243.75000000024,
      "d": 179.16666666666424,
      "v": 65
    },
    {
      "midi": 47,
      "hit": false,
      "t": 56270.833333333576,
      "d": 166.66666666665697,
      "v": 56
    },
    {
      "midi": 71,
      "hit": false,
      "t": 56312.50000000024,
      "d": 120.83333333332848,
      "v": 87
    },
    {
      "midi": 56,
      "hit": false,
      "t": 56322.916666666904,
      "d": 131.24999999999272,
      "v": 80
    },
    {
      "midi": 68,
      "hit": false,
      "t": 56395.83333333357,
      "d": 87.49999999999272,
      "v": 80
    },
    {
      "midi": 64,
      "hit": false,
      "t": 56485.4166666669,
      "d": 58.33333333333576,
      "v": 80
    },
    {
      "midi": 59,
      "hit": false,
      "t": 56556.25000000023,
      "d": 60.41666666667152,
      "v": 80
    },
    {
      "midi": 56,
      "hit": false,
      "t": 56631.25000000024,
      "d": 33.33333333333576,
      "v": 80
    },
    {
      "midi": 64,
      "hit": false,
      "t": 56639.583333333576,
      "d": 35.41666666666424,
      "v": 80
    },
    {
      "midi": 59,
      "hit": false,
      "t": 56714.583333333576,
      "d": 68.75,
      "v": 80
    },
    {
      "midi": 52,
      "hit": false,
      "t": 56797.91666666691,
      "d": 16.666666666671517,
      "v": 65
    },
    {
      "midi": 68,
      "hit": false,
      "t": 56806.25000000025,
      "d": 66.66666666667152,
      "v": 76
    },
    {
      "midi": 64,
      "hit": false,
      "t": 56883.33333333358,
      "d": 41.66666666666424,
      "v": 64
    },
    {
      "midi": 57,
      "hit": false,
      "t": 56952.08333333358,
      "d": 37.5,
      "v": 58
    },
    {
      "midi": 66,
      "hit": false,
      "t": 56958.33333333358,
      "d": 66.66666666666424,
      "v": 60
    },
    {
      "midi": 63,
      "hit": false,
      "t": 57041.66666666691,
      "d": 47.91666666666424,
      "v": 65
    },
    {
      "midi": 56,
      "hit": false,
      "t": 57116.66666666691,
      "d": 27.08333333333576,
      "v": 69
    },
    {
      "midi": 64,
      "hit": false,
      "t": 57118.75000000025,
      "d": 41.66666666666424,
      "v": 61
    },
    {
      "midi": 59,
      "hit": false,
      "t": 57197.91666666691,
      "d": 54.16666666666424,
      "v": 52
    },
    {
      "midi": 52,
      "hit": false,
      "t": 57268.75000000024,
      "d": 16.66666666666424,
      "v": 67
    },
    {
      "midi": 68,
      "hit": false,
      "t": 57275.00000000024,
      "d": 64.58333333332848,
      "v": 74
    },
    {
      "midi": 64,
      "hit": false,
      "t": 57350.00000000023,
      "d": 45.83333333333576,
      "v": 66
    },
    {
      "midi": 57,
      "hit": false,
      "t": 57425.00000000023,
      "d": 43.75,
      "v": 64
    },
    {
      "midi": 66,
      "hit": false,
      "t": 57425.00000000023,
      "d": 75,
      "v": 63
    },
    {
      "midi": 63,
      "hit": false,
      "t": 57506.25000000023,
      "d": 56.25,
      "v": 70
    },
    {
      "midi": 56,
      "hit": false,
      "t": 57581.25000000023,
      "d": 31.25,
      "v": 74
    },
    {
      "midi": 64,
      "hit": false,
      "t": 57585.4166666669,
      "d": 52.08333333333576,
      "v": 68
    },
    {
      "midi": 59,
      "hit": false,
      "t": 57664.58333333357,
      "d": 47.91666666666424,
      "v": 63
    },
    {
      "midi": 69,
      "hit": false,
      "t": 57760.4166666669,
      "d": 197.91666666667152,
      "v": 70
    },
    {
      "midi": 54,
      "hit": false,
      "t": 57762.50000000023,
      "d": 185.41666666667152,
      "v": 68
    },
    {
      "midi": 57,
      "hit": false,
      "t": 57766.6666666669,
      "d": 166.66666666667152,
      "v": 52
    },
    {
      "midi": 47,
      "hit": false,
      "t": 57766.6666666669,
      "d": 187.50000000000728,
      "v": 57
    },
    {
      "midi": 66,
      "hit": false,
      "t": 57854.166666666904,
      "d": 91.66666666666424,
      "v": 62
    },
    {
      "midi": 63,
      "hit": false,
      "t": 57937.50000000023,
      "d": 56.25,
      "v": 70
    },
    {
      "midi": 59,
      "hit": false,
      "t": 58012.50000000023,
      "d": 47.91666666666424,
      "v": 64
    },
    {
      "midi": 63,
      "hit": false,
      "t": 58089.58333333356,
      "d": 47.91666666666424,
      "v": 76
    },
    {
      "midi": 59,
      "hit": false,
      "t": 58162.500000000226,
      "d": 50,
      "v": 59
    },
    {
      "midi": 40,
      "hit": false,
      "t": 58170.83333333356,
      "d": 160.41666666666424,
      "v": 55
    },
    {
      "midi": 47,
      "hit": false,
      "t": 58210.41666666689,
      "d": 139.58333333333576,
      "v": 54
    },
    {
      "midi": 64,
      "hit": false,
      "t": 58254.1666666669,
      "d": 72.91666666666424,
      "v": 88
    },
    {
      "midi": 56,
      "hit": false,
      "t": 58260.4166666669,
      "d": 108.33333333332848,
      "v": 82
    },
    {
      "midi": 66,
      "hit": false,
      "t": 58354.16666666689,
      "d": 70.83333333333576,
      "v": 66
    },
    {
      "midi": 64,
      "hit": false,
      "t": 58427.08333333356,
      "d": 62.5,
      "v": 69
    },
    {
      "midi": 63,
      "hit": false,
      "t": 58497.9166666669,
      "d": 52.08333333333576,
      "v": 78
    },
    {
      "midi": 62,
      "hit": false,
      "t": 58570.83333333357,
      "d": 54.16666666666424,
      "v": 67
    },
    {
      "midi": 63,
      "hit": false,
      "t": 58641.6666666669,
      "d": 72.91666666666424,
      "v": 69
    },
    {
      "midi": 64,
      "hit": false,
      "t": 58727.08333333356,
      "d": 68.75,
      "v": 74
    },
    {
      "midi": 66,
      "hit": false,
      "t": 58808.33333333356,
      "d": 66.66666666666424,
      "v": 58
    },
    {
      "midi": 64,
      "hit": false,
      "t": 58883.33333333356,
      "d": 70.83333333333576,
      "v": 70
    },
    {
      "midi": 63,
      "hit": false,
      "t": 58968.75000000023,
      "d": 60.41666666666424,
      "v": 68
    },
    {
      "midi": 57,
      "hit": false,
      "t": 59035.4166666669,
      "d": 152.08333333332848,
      "v": 80
    },
    {
      "midi": 60,
      "hit": false,
      "t": 59035.4166666669,
      "d": 175,
      "v": 74
    },
    {
      "midi": 62,
      "hit": false,
      "t": 59045.83333333356,
      "d": 58.33333333333576,
      "v": 67
    },
    {
      "midi": 63,
      "hit": false,
      "t": 59120.83333333356,
      "d": 56.25,
      "v": 75
    },
    {
      "midi": 56,
      "hit": false,
      "t": 59202.08333333356,
      "d": 68.75000000000728,
      "v": 83
    },
    {
      "midi": 59,
      "hit": false,
      "t": 59204.1666666669,
      "d": 58.33333333333576,
      "v": 77
    },
    {
      "midi": 64,
      "hit": false,
      "t": 59204.1666666669,
      "d": 68.75000000000728,
      "v": 74
    },
    {
      "midi": 66,
      "hit": false,
      "t": 59289.58333333357,
      "d": 68.75,
      "v": 60
    },
    {
      "midi": 64,
      "hit": false,
      "t": 59366.666666666904,
      "d": 72.91666666666424,
      "v": 70
    },
    {
      "midi": 63,
      "hit": false,
      "t": 59447.916666666904,
      "d": 66.66666666666424,
      "v": 76
    },
    {
      "midi": 62,
      "hit": false,
      "t": 59533.33333333357,
      "d": 97.91666666666424,
      "v": 68
    },
    {
      "midi": 60,
      "hit": false,
      "t": 59537.50000000023,
      "d": 175,
      "v": 77
    },
    {
      "midi": 57,
      "hit": false,
      "t": 59543.75000000023,
      "d": 158.33333333333576,
      "v": 71
    },
    {
      "midi": 63,
      "hit": false,
      "t": 59620.83333333357,
      "d": 77.08333333332848,
      "v": 79
    },
    {
      "midi": 64,
      "hit": false,
      "t": 59700.00000000023,
      "d": 64.58333333333576,
      "v": 74
    },
    {
      "midi": 56,
      "hit": false,
      "t": 59702.08333333357,
      "d": 64.58333333333576,
      "v": 88
    },
    {
      "midi": 59,
      "hit": false,
      "t": 59706.25000000023,
      "d": 58.33333333333576,
      "v": 73
    },
    {
      "midi": 66,
      "hit": false,
      "t": 59777.08333333357,
      "d": 79.16666666666424,
      "v": 59
    },
    {
      "midi": 64,
      "hit": false,
      "t": 59858.33333333357,
      "d": 77.08333333333576,
      "v": 55
    },
    {
      "midi": 63,
      "hit": false,
      "t": 59939.58333333357,
      "d": 56.25,
      "v": 74
    },
    {
      "midi": 62,
      "hit": false,
      "t": 60020.83333333357,
      "d": 68.75,
      "v": 61
    },
    {
      "midi": 57,
      "hit": false,
      "t": 60029.166666666904,
      "d": 133.3333333333212,
      "v": 56
    },
    {
      "midi": 60,
      "hit": false,
      "t": 60029.166666666904,
      "d": 158.3333333333212,
      "v": 43
    },
    {
      "midi": 63,
      "hit": false,
      "t": 60097.916666666904,
      "d": 79.16666666665697,
      "v": 68
    },
    {
      "midi": 59,
      "hit": false,
      "t": 60181.250000000226,
      "d": 114.58333333332848,
      "v": 66
    },
    {
      "midi": 56,
      "hit": false,
      "t": 60183.33333333356,
      "d": 122.91666666665697,
      "v": 63
    },
    {
      "midi": 64,
      "hit": false,
      "t": 60191.66666666689,
      "d": 56.25,
      "v": 61
    },
    {
      "midi": 65,
      "hit": false,
      "t": 60266.66666666689,
      "d": 64.58333333332848,
      "v": 47
    },
    {
      "midi": 64,
      "hit": false,
      "t": 60343.75000000022,
      "d": 75,
      "v": 60
    },
    {
      "midi": 63,
      "hit": false,
      "t": 60431.25000000022,
      "d": 56.25,
      "v": 68
    },
    {
      "midi": 62,
      "hit": false,
      "t": 60510.41666666688,
      "d": 45.83333333333576,
      "v": 56
    },
    {
      "midi": 63,
      "hit": false,
      "t": 60581.25000000022,
      "d": 62.5,
      "v": 68
    },
    {
      "midi": 64,
      "hit": false,
      "t": 60658.333333333554,
      "d": 60.41666666666424,
      "v": 64
    },
    {
      "midi": 65,
      "hit": false,
      "t": 60729.16666666688,
      "d": 77.08333333333576,
      "v": 53
    },
    {
      "midi": 64,
      "hit": false,
      "t": 60814.583333333554,
      "d": 77.08333333333576,
      "v": 65
    },
    {
      "midi": 63,
      "hit": false,
      "t": 60900.000000000226,
      "d": 60.41666666666424,
      "v": 66
    },
    {
      "midi": 69,
      "hit": false,
      "t": 60975.000000000226,
      "d": 131.25000000000728,
      "v": 55
    },
    {
      "midi": 72,
      "hit": false,
      "t": 60977.08333333356,
      "d": 145.83333333333576,
      "v": 62
    },
    {
      "midi": 62,
      "hit": false,
      "t": 60979.1666666669,
      "d": 70.83333333333576,
      "v": 51
    },
    {
      "midi": 63,
      "hit": false,
      "t": 61056.25000000023,
      "d": 68.75,
      "v": 68
    },
    {
      "midi": 71,
      "hit": false,
      "t": 61133.33333333357,
      "d": 35.41666666667152,
      "v": 64
    },
    {
      "midi": 68,
      "hit": false,
      "t": 61135.416666666904,
      "d": 35.41666666667152,
      "v": 74
    },
    {
      "midi": 64,
      "hit": false,
      "t": 61141.666666666904,
      "d": 47.91666666667152,
      "v": 60
    },
    {
      "midi": 65,
      "hit": false,
      "t": 61220.833333333576,
      "d": 56.25,
      "v": 48
    },
    {
      "midi": 64,
      "hit": false,
      "t": 61291.66666666691,
      "d": 83.33333333333576,
      "v": 62
    },
    {
      "midi": 63,
      "hit": false,
      "t": 61383.33333333358,
      "d": 54.16666666666424,
      "v": 61
    },
    {
      "midi": 62,
      "hit": false,
      "t": 61454.16666666691,
      "d": 81.25,
      "v": 56
    },
    {
      "midi": 72,
      "hit": false,
      "t": 61458.333333333576,
      "d": 164.58333333332848,
      "v": 59
    },
    {
      "midi": 69,
      "hit": false,
      "t": 61460.41666666691,
      "d": 154.16666666666424,
      "v": 60
    },
    {
      "midi": 63,
      "hit": false,
      "t": 61539.583333333576,
      "d": 72.91666666666424,
      "v": 62
    },
    {
      "midi": 64,
      "hit": false,
      "t": 61618.75000000024,
      "d": 58.33333333332848,
      "v": 64
    },
    {
      "midi": 68,
      "hit": false,
      "t": 61618.75000000024,
      "d": 68.74999999999272,
      "v": 61
    },
    {
      "midi": 71,
      "hit": false,
      "t": 61622.916666666904,
      "d": 77.08333333332848,
      "v": 65
    },
    {
      "midi": 65,
      "hit": false,
      "t": 61691.6666666669,
      "d": 75,
      "v": 47
    },
    {
      "midi": 64,
      "hit": false,
      "t": 61772.9166666669,
      "d": 66.66666666666424,
      "v": 57
    },
    {
      "midi": 63,
      "hit": false,
      "t": 61847.9166666669,
      "d": 54.16666666666424,
      "v": 68
    },
    {
      "midi": 62,
      "hit": false,
      "t": 61922.9166666669,
      "d": 66.66666666666424,
      "v": 59
    },
    {
      "midi": 72,
      "hit": false,
      "t": 61925.00000000023,
      "d": 137.49999999999272,
      "v": 59
    },
    {
      "midi": 69,
      "hit": false,
      "t": 61929.1666666669,
      "d": 120.83333333332848,
      "v": 54
    },
    {
      "midi": 63,
      "hit": false,
      "t": 62008.33333333356,
      "d": 68.75,
      "v": 63
    },
    {
      "midi": 64,
      "hit": false,
      "t": 62087.500000000226,
      "d": 70.83333333332848,
      "v": 60
    },
    {
      "midi": 71,
      "hit": false,
      "t": 62087.500000000226,
      "d": 172.91666666666424,
      "v": 65
    },
    {
      "midi": 68,
      "hit": false,
      "t": 62091.66666666689,
      "d": 187.5,
      "v": 62
    },
    {
      "midi": 65,
      "hit": false,
      "t": 62162.50000000022,
      "d": 95.83333333333576,
      "v": 56
    },
    {
      "midi": 64,
      "hit": false,
      "t": 62252.083333333554,
      "d": 83.33333333333576,
      "v": 60
    },
    {
      "midi": 63,
      "hit": false,
      "t": 62335.41666666689,
      "d": 66.66666666666424,
      "v": 68
    },
    {
      "midi": 62,
      "hit": false,
      "t": 62410.41666666689,
      "d": 64.58333333333576,
      "v": 61
    },
    {
      "midi": 63,
      "hit": false,
      "t": 62481.250000000226,
      "d": 56.25,
      "v": 70
    },
    {
      "midi": 64,
      "hit": false,
      "t": 62552.08333333356,
      "d": 54.16666666666424,
      "v": 74
    },
    {
      "midi": 65,
      "hit": false,
      "t": 62614.58333333356,
      "d": 72.91666666666424,
      "v": 80
    },
    {
      "midi": 66,
      "hit": false,
      "t": 62693.750000000226,
      "d": 100,
      "v": 66
    },
    {
      "midi": 65,
      "hit": false,
      "t": 62777.08333333356,
      "d": 54.16666666666424,
      "v": 66
    },
    {
      "midi": 64,
      "hit": false,
      "t": 62847.91666666689,
      "d": 64.58333333333576,
      "v": 68
    },
    {
      "midi": 58,
      "hit": false,
      "t": 62922.91666666689,
      "d": 145.83333333333576,
      "v": 82
    },
    {
      "midi": 61,
      "hit": false,
      "t": 62922.91666666689,
      "d": 172.91666666667152,
      "v": 80
    },
    {
      "midi": 63,
      "hit": false,
      "t": 62927.083333333554,
      "d": 83.33333333333576,
      "v": 82
    },
    {
      "midi": 64,
      "hit": false,
      "t": 63018.750000000226,
      "d": 72.91666666666424,
      "v": 70
    },
    {
      "midi": 60,
      "hit": false,
      "t": 63093.750000000226,
      "d": 64.58333333333576,
      "v": 55
    },
    {
      "midi": 57,
      "hit": false,
      "t": 63102.08333333356,
      "d": 52.08333333333576,
      "v": 70
    },
    {
      "midi": 65,
      "hit": false,
      "t": 63102.08333333356,
      "d": 81.25,
      "v": 69
    },
    {
      "midi": 66,
      "hit": false,
      "t": 63185.4166666669,
      "d": 81.25,
      "v": 69
    },
    {
      "midi": 65,
      "hit": false,
      "t": 63266.6666666669,
      "d": 58.33333333333576,
      "v": 64
    },
    {
      "midi": 64,
      "hit": false,
      "t": 63341.6666666669,
      "d": 66.66666666666424,
      "v": 67
    },
    {
      "midi": 63,
      "hit": false,
      "t": 63420.83333333356,
      "d": 83.33333333333576,
      "v": 78
    },
    {
      "midi": 61,
      "hit": false,
      "t": 63422.9166666669,
      "d": 179.16666666667152,
      "v": 76
    },
    {
      "midi": 58,
      "hit": false,
      "t": 63429.1666666669,
      "d": 160.41666666667152,
      "v": 72
    },
    {
      "midi": 64,
      "hit": false,
      "t": 63512.50000000023,
      "d": 70.83333333333576,
      "v": 70
    },
    {
      "midi": 60,
      "hit": false,
      "t": 63581.25000000023,
      "d": 93.75,
      "v": 53
    },
    {
      "midi": 57,
      "hit": false,
      "t": 63589.58333333357,
      "d": 87.5,
      "v": 69
    },
    {
      "midi": 65,
      "hit": false,
      "t": 63593.75000000023,
      "d": 68.75,
      "v": 74
    },
    {
      "midi": 66,
      "hit": false,
      "t": 63662.50000000023,
      "d": 89.58333333333576,
      "v": 70
    },
    {
      "midi": 65,
      "hit": false,
      "t": 63750.00000000023,
      "d": 56.25,
      "v": 66
    },
    {
      "midi": 64,
      "hit": false,
      "t": 63827.08333333357,
      "d": 60.41666666666424,
      "v": 61
    },
    {
      "midi": 63,
      "hit": false,
      "t": 63904.1666666669,
      "d": 62.499999999992724,
      "v": 76
    },
    {
      "midi": 61,
      "hit": false,
      "t": 63908.33333333356,
      "d": 139.58333333332848,
      "v": 69
    },
    {
      "midi": 58,
      "hit": false,
      "t": 63912.500000000226,
      "d": 125,
      "v": 66
    },
    {
      "midi": 64,
      "hit": false,
      "t": 63981.250000000226,
      "d": 72.91666666666424,
      "v": 70
    },
    {
      "midi": 60,
      "hit": false,
      "t": 64047.91666666689,
      "d": 160.41666666665697,
      "v": 53
    },
    {
      "midi": 57,
      "hit": false,
      "t": 64058.333333333554,
      "d": 145.83333333332848,
      "v": 70
    },
    {
      "midi": 65,
      "hit": false,
      "t": 64062.50000000022,
      "d": 62.5,
      "v": 75
    },
    {
      "midi": 66,
      "hit": false,
      "t": 64125.00000000022,
      "d": 104.16666666666424,
      "v": 70
    },
    {
      "midi": 65,
      "hit": false,
      "t": 64204.16666666688,
      "d": 56.25,
      "v": 69
    },
    {
      "midi": 64,
      "hit": false,
      "t": 64275.00000000022,
      "d": 50,
      "v": 63
    },
    {
      "midi": 63,
      "hit": false,
      "t": 64341.66666666688,
      "d": 47.91666666666424,
      "v": 69
    },
    {
      "midi": 64,
      "hit": false,
      "t": 64406.25000000021,
      "d": 50,
      "v": 59
    },
    {
      "midi": 65,
      "hit": false,
      "t": 64460.416666666875,
      "d": 64.58333333332848,
      "v": 61
    },
    {
      "midi": 66,
      "hit": false,
      "t": 64520.83333333354,
      "d": 72.91666666665697,
      "v": 74
    },
    {
      "midi": 67,
      "hit": false,
      "t": 64606.2500000002,
      "d": 93.75,
      "v": 53
    },
    {
      "midi": 68,
      "hit": false,
      "t": 64697.91666666686,
      "d": 75,
      "v": 66
    },
    {
      "midi": 67,
      "hit": false,
      "t": 64772.91666666686,
      "d": 79.16666666666424,
      "v": 65
    },
    {
      "midi": 66,
      "hit": false,
      "t": 64856.25000000019,
      "d": 54.16666666666424,
      "v": 68
    },
    {
      "midi": 75,
      "hit": false,
      "t": 64916.66666666685,
      "d": 170.83333333332848,
      "v": 53
    },
    {
      "midi": 72,
      "hit": false,
      "t": 64927.08333333352,
      "d": 150,
      "v": 50
    },
    {
      "midi": 65,
      "hit": false,
      "t": 64931.25000000018,
      "d": 77.08333333333576,
      "v": 65
    },
    {
      "midi": 66,
      "hit": false,
      "t": 65006.25000000018,
      "d": 77.08333333333576,
      "v": 58
    },
    {
      "midi": 74,
      "hit": false,
      "t": 65093.75000000018,
      "d": 39.58333333333576,
      "v": 66
    },
    {
      "midi": 67,
      "hit": false,
      "t": 65093.75000000018,
      "d": 64.58333333333576,
      "v": 64
    },
    {
      "midi": 71,
      "hit": false,
      "t": 65100.00000000018,
      "d": 33.33333333333576,
      "v": 61
    },
    {
      "midi": 68,
      "hit": false,
      "t": 65181.25000000018,
      "d": 64.58333333333576,
      "v": 56
    },
    {
      "midi": 67,
      "hit": false,
      "t": 65260.41666666685,
      "d": 81.25,
      "v": 51
    },
    {
      "midi": 66,
      "hit": false,
      "t": 65337.50000000019,
      "d": 58.33333333332848,
      "v": 57
    },
    {
      "midi": 75,
      "hit": false,
      "t": 65408.33333333352,
      "d": 160.41666666667152,
      "v": 63
    },
    {
      "midi": 65,
      "hit": false,
      "t": 65412.50000000018,
      "d": 83.33333333333576,
      "v": 59
    },
    {
      "midi": 72,
      "hit": false,
      "t": 65420.83333333352,
      "d": 147.91666666667152,
      "v": 49
    },
    {
      "midi": 66,
      "hit": false,
      "t": 65502.08333333352,
      "d": 72.91666666667152,
      "v": 53
    },
    {
      "midi": 74,
      "hit": false,
      "t": 65564.58333333352,
      "d": 50.00000000001455,
      "v": 61
    },
    {
      "midi": 71,
      "hit": false,
      "t": 65568.75000000019,
      "d": 41.66666666667152,
      "v": 60
    },
    {
      "midi": 67,
      "hit": false,
      "t": 65575.00000000019,
      "d": 64.58333333334303,
      "v": 65
    },
    {
      "midi": 68,
      "hit": false,
      "t": 65656.2500000002,
      "d": 58.33333333332848,
      "v": 56
    },
    {
      "midi": 67,
      "hit": false,
      "t": 65733.33333333353,
      "d": 77.08333333332848,
      "v": 46
    },
    {
      "midi": 66,
      "hit": false,
      "t": 65810.41666666686,
      "d": 64.58333333332848,
      "v": 61
    },
    {
      "midi": 65,
      "hit": false,
      "t": 65893.75000000019,
      "d": 75,
      "v": 56
    },
    {
      "midi": 75,
      "hit": false,
      "t": 65900.00000000019,
      "d": 152.08333333334303,
      "v": 53
    },
    {
      "midi": 72,
      "hit": false,
      "t": 65912.50000000019,
      "d": 135.41666666667152,
      "v": 43
    },
    {
      "midi": 66,
      "hit": false,
      "t": 65977.08333333352,
      "d": 83.33333333334303,
      "v": 54
    },
    {
      "midi": 74,
      "hit": false,
      "t": 66043.75000000019,
      "d": 66.66666666667152,
      "v": 61
    },
    {
      "midi": 71,
      "hit": false,
      "t": 66047.91666666686,
      "d": 50,
      "v": 56
    },
    {
      "midi": 67,
      "hit": false,
      "t": 66062.50000000019,
      "d": 64.58333333334303,
      "v": 60
    },
    {
      "midi": 68,
      "hit": false,
      "t": 66135.41666666686,
      "d": 83.33333333332848,
      "v": 55
    },
    {
      "midi": 67,
      "hit": false,
      "t": 66218.75000000019,
      "d": 83.33333333332848,
      "v": 70
    },
    {
      "midi": 66,
      "hit": false,
      "t": 66300.00000000019,
      "d": 66.66666666665697,
      "v": 75
    },
    {
      "midi": 65,
      "hit": false,
      "t": 66379.16666666685,
      "d": 79.16666666665697,
      "v": 68
    },
    {
      "midi": 66,
      "hit": false,
      "t": 66450.00000000017,
      "d": 102.08333333332848,
      "v": 68
    },
    {
      "midi": 67,
      "hit": false,
      "t": 66541.66666666683,
      "d": 68.75,
      "v": 82
    },
    {
      "midi": 69,
      "hit": false,
      "t": 66608.3333333335,
      "d": 122.91666666665697,
      "v": 70
    },
    {
      "midi": 67,
      "hit": false,
      "t": 66700.00000000016,
      "d": 72.91666666665697,
      "v": 74
    },
    {
      "midi": 65,
      "hit": false,
      "t": 66770.83333333349,
      "d": 54.166666666656965,
      "v": 90
    },
    {
      "midi": 64,
      "hit": false,
      "t": 66860.41666666682,
      "d": 54.166666666656965,
      "v": 67
    },
    {
      "midi": 76,
      "hit": false,
      "t": 66860.41666666682,
      "d": 56.24999999998545,
      "v": 80
    },
    {
      "midi": 55,
      "hit": false,
      "t": 66866.66666666682,
      "d": 18.75,
      "v": 66
    },
    {
      "midi": 48,
      "hit": false,
      "t": 66870.83333333349,
      "d": 16.666666666656965,
      "v": 59
    },
    {
      "midi": 74,
      "hit": false,
      "t": 67131.25000000015,
      "d": 93.75,
      "v": 57
    },
    {
      "midi": 57,
      "hit": false,
      "t": 67141.66666666682,
      "d": 75,
      "v": 51
    },
    {
      "midi": 48,
      "hit": false,
      "t": 67143.75000000015,
      "d": 68.75,
      "v": 40
    },
    {
      "midi": 65,
      "hit": false,
      "t": 67227.08333333347,
      "d": 56.25,
      "v": 43
    },
    {
      "midi": 64,
      "hit": false,
      "t": 67297.9166666668,
      "d": 62.5,
      "v": 52
    },
    {
      "midi": 65,
      "hit": false,
      "t": 67375.00000000013,
      "d": 62.5,
      "v": 53
    },
    {
      "midi": 57,
      "hit": false,
      "t": 67452.08333333346,
      "d": 25,
      "v": 52
    },
    {
      "midi": 72,
      "hit": false,
      "t": 67456.25000000013,
      "d": 54.16666666667152,
      "v": 59
    },
    {
      "midi": 48,
      "hit": false,
      "t": 67464.58333333346,
      "d": 16.666666666671517,
      "v": 31
    },
    {
      "midi": 65,
      "hit": false,
      "t": 67531.25000000013,
      "d": 66.66666666667152,
      "v": 54
    },
    {
      "midi": 71,
      "hit": false,
      "t": 67625.00000000013,
      "d": 118.74999999998545,
      "v": 66
    },
    {
      "midi": 62,
      "hit": false,
      "t": 67637.50000000013,
      "d": 64.58333333332848,
      "v": 48
    },
    {
      "midi": 48,
      "hit": false,
      "t": 67637.50000000013,
      "d": 66.66666666665697,
      "v": 43
    },
    {
      "midi": 65,
      "hit": false,
      "t": 67710.41666666679,
      "d": 62.5,
      "v": 55
    },
    {
      "midi": 64,
      "hit": false,
      "t": 67793.75000000012,
      "d": 52.08333333332848,
      "v": 54
    },
    {
      "midi": 65,
      "hit": false,
      "t": 67870.83333333344,
      "d": 58.33333333332848,
      "v": 53
    },
    {
      "midi": 69,
      "hit": false,
      "t": 67943.7500000001,
      "d": 66.66666666667152,
      "v": 59
    },
    {
      "midi": 59,
      "hit": false,
      "t": 67947.91666666677,
      "d": 20.833333333328483,
      "v": 55
    },
    {
      "midi": 48,
      "hit": false,
      "t": 67956.2500000001,
      "d": 18.75,
      "v": 38
    },
    {
      "midi": 65,
      "hit": false,
      "t": 68016.66666666677,
      "d": 56.25,
      "v": 64
    },
    {
      "midi": 67,
      "hit": false,
      "t": 68129.16666666677,
      "d": 91.66666666665697,
      "v": 64
    },
    {
      "midi": 60,
      "hit": false,
      "t": 68131.2500000001,
      "d": 185.41666666665697,
      "v": 55
    },
    {
      "midi": 48,
      "hit": false,
      "t": 68137.5000000001,
      "d": 149.99999999998545,
      "v": 50
    },
    {
      "midi": 64,
      "hit": false,
      "t": 68227.08333333343,
      "d": 58.33333333332848,
      "v": 51
    },
    {
      "midi": 63,
      "hit": false,
      "t": 68310.41666666676,
      "d": 52.08333333332848,
      "v": 66
    },
    {
      "midi": 64,
      "hit": false,
      "t": 68381.25000000009,
      "d": 52.08333333332848,
      "v": 49
    },
    {
      "midi": 67,
      "hit": false,
      "t": 68458.33333333342,
      "d": 47.91666666667152,
      "v": 57
    },
    {
      "midi": 60,
      "hit": false,
      "t": 68470.83333333342,
      "d": 54.16666666667152,
      "v": 53
    },
    {
      "midi": 64,
      "hit": false,
      "t": 68543.75000000009,
      "d": 54.16666666667152,
      "v": 53
    },
    {
      "midi": 67,
      "hit": false,
      "t": 68631.25000000009,
      "d": 58.333333333343035,
      "v": 58
    },
    {
      "midi": 59,
      "hit": false,
      "t": 68641.66666666676,
      "d": 16.666666666671517,
      "v": 50
    },
    {
      "midi": 62,
      "hit": false,
      "t": 68725.0000000001,
      "d": 58.33333333332848,
      "v": 36
    },
    {
      "midi": 66,
      "hit": false,
      "t": 68795.83333333343,
      "d": 35.416666666656965,
      "v": 54
    },
    {
      "midi": 69,
      "hit": false,
      "t": 68797.91666666676,
      "d": 41.666666666656965,
      "v": 57
    },
    {
      "midi": 59,
      "hit": false,
      "t": 68800.00000000009,
      "d": 52.08333333332848,
      "v": 56
    },
    {
      "midi": 62,
      "hit": false,
      "t": 68879.16666666674,
      "d": 64.58333333332848,
      "v": 40
    },
    {
      "midi": 59,
      "hit": false,
      "t": 68954.16666666674,
      "d": 70.83333333332848,
      "v": 55
    },
    {
      "midi": 71,
      "hit": false,
      "t": 68962.50000000007,
      "d": 45.83333333332848,
      "v": 57
    },
    {
      "midi": 67,
      "hit": false,
      "t": 68972.91666666674,
      "d": 20.833333333328483,
      "v": 46
    },
    {
      "midi": 62,
      "hit": false,
      "t": 69039.5833333334,
      "d": 47.91666666667152,
      "v": 46
    },
    {
      "midi": 74,
      "hit": false,
      "t": 69083.3333333334,
      "d": 18.75,
      "v": 65
    },
    {
      "midi": 72,
      "hit": false,
      "t": 69110.41666666673,
      "d": 75,
      "v": 65
    },
    {
      "midi": 57,
      "hit": false,
      "t": 69120.8333333334,
      "d": 66.66666666665697,
      "v": 54
    },
    {
      "midi": 67,
      "hit": false,
      "t": 69125.00000000007,
      "d": 20.833333333328483,
      "v": 40
    },
    {
      "midi": 64,
      "hit": false,
      "t": 69208.33333333339,
      "d": 58.33333333332848,
      "v": 48
    },
    {
      "midi": 57,
      "hit": false,
      "t": 69285.41666666672,
      "d": 52.08333333332848,
      "v": 53
    },
    {
      "midi": 71,
      "hit": false,
      "t": 69285.41666666672,
      "d": 58.33333333332848,
      "v": 71
    },
    {
      "midi": 67,
      "hit": false,
      "t": 69304.16666666672,
      "d": 18.75,
      "v": 41
    },
    {
      "midi": 64,
      "hit": false,
      "t": 69364.58333333337,
      "d": 66.66666666667152,
      "v": 48
    },
    {
      "midi": 57,
      "hit": false,
      "t": 69445.83333333337,
      "d": 58.333333333343035,
      "v": 53
    },
    {
      "midi": 72,
      "hit": false,
      "t": 69447.9166666667,
      "d": 45.833333333343035,
      "v": 71
    },
    {
      "midi": 67,
      "hit": false,
      "t": 69458.33333333337,
      "d": 16.666666666671517,
      "v": 53
    },
    {
      "midi": 64,
      "hit": false,
      "t": 69520.83333333339,
      "d": 45.83333333332848,
      "v": 65
    },
    {
      "midi": 50,
      "hit": false,
      "t": 69600.00000000004,
      "d": 66.66666666667152,
      "v": 70
    },
    {
      "midi": 72,
      "hit": false,
      "t": 69610.41666666672,
      "d": 62.5,
      "v": 74
    },
    {
      "midi": 65,
      "hit": false,
      "t": 69612.50000000004,
      "d": 47.91666666667152,
      "v": 70
    },
    {
      "midi": 62,
      "hit": false,
      "t": 69683.33333333339,
      "d": 60.41666666667152,
      "v": 57
    },
    {
      "midi": 76,
      "hit": false,
      "t": 69762.50000000006,
      "d": 70.83333333331393,
      "v": 75
    },
    {
      "midi": 50,
      "hit": false,
      "t": 69764.58333333339,
      "d": 68.74999999998545,
      "v": 72
    },
    {
      "midi": 65,
      "hit": false,
      "t": 69766.66666666672,
      "d": 45.83333333332848,
      "v": 71
    },
    {
      "midi": 60,
      "hit": false,
      "t": 69837.50000000004,
      "d": 75,
      "v": 69
    },
    {
      "midi": 74,
      "hit": false,
      "t": 69918.75000000004,
      "d": 45.83333333332848,
      "v": 77
    },
    {
      "midi": 65,
      "hit": false,
      "t": 69920.83333333337,
      "d": 58.33333333332848,
      "v": 70
    },
    {
      "midi": 50,
      "hit": false,
      "t": 69925.00000000004,
      "d": 85.41666666665697,
      "v": 74
    },
    {
      "midi": 59,
      "hit": false,
      "t": 69997.9166666667,
      "d": 41.66666666667152,
      "v": 71
    },
    {
      "midi": 72,
      "hit": false,
      "t": 70079.1666666667,
      "d": 66.66666666667152,
      "v": 70
    },
    {
      "midi": 55,
      "hit": false,
      "t": 70083.33333333337,
      "d": 66.66666666667152,
      "v": 65
    },
    {
      "midi": 65,
      "hit": false,
      "t": 70085.4166666667,
      "d": 41.66666666667152,
      "v": 68
    },
    {
      "midi": 64,
      "hit": false,
      "t": 70154.16666666672,
      "d": 58.33333333332848,
      "v": 64
    },
    {
      "midi": 55,
      "hit": false,
      "t": 70233.33333333337,
      "d": 83.33333333334303,
      "v": 73
    },
    {
      "midi": 71,
      "hit": false,
      "t": 70237.50000000004,
      "d": 64.58333333334303,
      "v": 70
    },
    {
      "midi": 65,
      "hit": false,
      "t": 70247.91666666672,
      "d": 41.66666666667152,
      "v": 60
    },
    {
      "midi": 62,
      "hit": false,
      "t": 70314.58333333339,
      "d": 70.83333333332848,
      "v": 63
    },
    {
      "midi": 55,
      "hit": false,
      "t": 70389.58333333339,
      "d": 100,
      "v": 58
    },
    {
      "midi": 69,
      "hit": false,
      "t": 70404.16666666672,
      "d": 47.91666666667152,
      "v": 70
    },
    {
      "midi": 65,
      "hit": false,
      "t": 70410.41666666672,
      "d": 64.58333333334303,
      "v": 59
    },
    {
      "midi": 60,
      "hit": false,
      "t": 70477.08333333339,
      "d": 104.16666666667152,
      "v": 58
    },
    {
      "midi": 59,
      "hit": false,
      "t": 70562.50000000006,
      "d": 64.58333333332848,
      "v": 74
    },
    {
      "midi": 67,
      "hit": false,
      "t": 70562.50000000006,
      "d": 75,
      "v": 72
    },
    {
      "midi": 65,
      "hit": false,
      "t": 70641.66666666673,
      "d": 58.33333333332848,
      "v": 65
    },
    {
      "midi": 64,
      "hit": false,
      "t": 70716.66666666673,
      "d": 75,
      "v": 60
    },
    {
      "midi": 65,
      "hit": false,
      "t": 70804.16666666673,
      "d": 66.66666666667152,
      "v": 63
    },
    {
      "midi": 59,
      "hit": false,
      "t": 70877.0833333334,
      "d": 72.91666666665697,
      "v": 57
    },
    {
      "midi": 67,
      "hit": false,
      "t": 70891.66666666673,
      "d": 52.08333333332848,
      "v": 69
    },
    {
      "midi": 64,
      "hit": false,
      "t": 70904.16666666673,
      "d": 41.666666666656965,
      "v": 53
    },
    {
      "midi": 62,
      "hit": false,
      "t": 70964.58333333339,
      "d": 50,
      "v": 57
    },
    {
      "midi": 58,
      "hit": false,
      "t": 71054.16666666672,
      "d": 58.33333333332848,
      "v": 50
    },
    {
      "midi": 67,
      "hit": false,
      "t": 71060.41666666672,
      "d": 37.5,
      "v": 53
    },
    {
      "midi": 60,
      "hit": false,
      "t": 71133.33333333337,
      "d": 54.16666666667152,
      "v": 38
    },
    {
      "midi": 69,
      "hit": false,
      "t": 71218.75000000004,
      "d": 50,
      "v": 58
    },
    {
      "midi": 58,
      "hit": false,
      "t": 71218.75000000004,
      "d": 52.08333333332848,
      "v": 50
    },
    {
      "midi": 64,
      "hit": false,
      "t": 71231.25000000004,
      "d": 18.75,
      "v": 41
    },
    {
      "midi": 60,
      "hit": false,
      "t": 71297.9166666667,
      "d": 52.08333333332848,
      "v": 36
    },
    {
      "midi": 58,
      "hit": false,
      "t": 71375.00000000003,
      "d": 56.25,
      "v": 45
    },
    {
      "midi": 67,
      "hit": false,
      "t": 71383.33333333336,
      "d": 16.666666666671517,
      "v": 59
    },
    {
      "midi": 64,
      "hit": false,
      "t": 71387.50000000003,
      "d": 18.75,
      "v": 57
    },
    {
      "midi": 60,
      "hit": false,
      "t": 71443.75000000003,
      "d": 58.33333333332848,
      "v": 39
    },
    {
      "midi": 74,
      "hit": false,
      "t": 71537.50000000003,
      "d": 118.75,
      "v": 64
    },
    {
      "midi": 57,
      "hit": false,
      "t": 71543.75000000003,
      "d": 268.75,
      "v": 46
    },
    {
      "midi": 65,
      "hit": false,
      "t": 71620.83333333336,
      "d": 85.41666666667152,
      "v": 53
    },
    {
      "midi": 72,
      "hit": false,
      "t": 71700.00000000003,
      "d": 102.08333333332848,
      "v": 57
    },
    {
      "midi": 65,
      "hit": false,
      "t": 71781.25000000003,
      "d": 60.41666666667152,
      "v": 56
    },
    {
      "midi": 69,
      "hit": false,
      "t": 71872.9166666667,
      "d": 77.08333333332848,
      "v": 48
    },
    {
      "midi": 65,
      "hit": false,
      "t": 71941.6666666667,
      "d": 31.25,
      "v": 47
    },
    {
      "midi": 67,
      "hit": false,
      "t": 72020.83333333337,
      "d": 39.58333333332848,
      "v": 59
    },
    {
      "midi": 58,
      "hit": false,
      "t": 72020.83333333337,
      "d": 64.58333333332848,
      "v": 51
    },
    {
      "midi": 64,
      "hit": false,
      "t": 72029.1666666667,
      "d": 18.75,
      "v": 57
    },
    {
      "midi": 60,
      "hit": false,
      "t": 72100.00000000003,
      "d": 56.25,
      "v": 49
    },
    {
      "midi": 58,
      "hit": false,
      "t": 72183.33333333336,
      "d": 58.333333333343035,
      "v": 49
    },
    {
      "midi": 69,
      "hit": false,
      "t": 72185.41666666669,
      "d": 60.41666666668607,
      "v": 63
    },
    {
      "midi": 64,
      "hit": false,
      "t": 72195.83333333336,
      "d": 16.666666666671517,
      "v": 55
    },
    {
      "midi": 60,
      "hit": false,
      "t": 72258.33333333337,
      "d": 45.83333333332848,
      "v": 38
    },
    {
      "midi": 58,
      "hit": false,
      "t": 72331.25000000003,
      "d": 70.83333333334303,
      "v": 51
    },
    {
      "midi": 67,
      "hit": false,
      "t": 72347.9166666667,
      "d": 16.666666666671517,
      "v": 59
    },
    {
      "midi": 64,
      "hit": false,
      "t": 72354.1666666667,
      "d": 72.91666666667152,
      "v": 43
    },
    {
      "midi": 60,
      "hit": false,
      "t": 72412.50000000004,
      "d": 56.25,
      "v": 39
    },
    {
      "midi": 72,
      "hit": false,
      "t": 72510.41666666672,
      "d": 341.6666666666715,
      "v": 70
    },
    {
      "midi": 57,
      "hit": false,
      "t": 72525.00000000004,
      "d": 312.50000000001455,
      "v": 55
    },
    {
      "midi": 65,
      "hit": false,
      "t": 72600.00000000004,
      "d": 50,
      "v": 50
    },
    {
      "midi": 64,
      "hit": false,
      "t": 72670.83333333339,
      "d": 95.83333333332848,
      "v": 53
    },
    {
      "midi": 65,
      "hit": false,
      "t": 72752.08333333339,
      "d": 93.75,
      "v": 57
    },
    {
      "midi": 69,
      "hit": false,
      "t": 72831.25000000006,
      "d": 33.33333333332848,
      "v": 69
    },
    {
      "midi": 74,
      "hit": false,
      "t": 73004.16666666672,
      "d": 52.08333333332848,
      "v": 68
    },
    {
      "midi": 71,
      "hit": false,
      "t": 73012.50000000004,
      "d": 43.75,
      "v": 48
    },
    {
      "midi": 65,
      "hit": false,
      "t": 73014.58333333337,
      "d": 62.5,
      "v": 39
    },
    {
      "midi": 67,
      "hit": false,
      "t": 73085.4166666667,
      "d": 66.66666666667152,
      "v": 46
    },
    {
      "midi": 76,
      "hit": false,
      "t": 73170.83333333337,
      "d": 89.58333333334303,
      "v": 66
    },
    {
      "midi": 65,
      "hit": false,
      "t": 73177.08333333337,
      "d": 68.75000000001455,
      "v": 61
    },
    {
      "midi": 71,
      "hit": false,
      "t": 73181.25000000004,
      "d": 35.41666666667152,
      "v": 63
    },
    {
      "midi": 67,
      "hit": false,
      "t": 73258.33333333339,
      "d": 54.166666666656965,
      "v": 47
    },
    {
      "midi": 65,
      "hit": false,
      "t": 73329.16666666672,
      "d": 50,
      "v": 61
    },
    {
      "midi": 74,
      "hit": false,
      "t": 73331.25000000004,
      "d": 35.41666666667152,
      "v": 68
    },
    {
      "midi": 71,
      "hit": false,
      "t": 73335.41666666672,
      "d": 52.08333333332848,
      "v": 66
    },
    {
      "midi": 67,
      "hit": false,
      "t": 73387.50000000004,
      "d": 70.83333333332848,
      "v": 53
    },
    {
      "midi": 64,
      "hit": false,
      "t": 73481.25000000004,
      "d": 335.4166666666715,
      "v": 70
    },
    {
      "midi": 81,
      "hit": false,
      "t": 73491.66666666672,
      "d": 222.91666666667152,
      "v": 81
    },
    {
      "midi": 72,
      "hit": false,
      "t": 73583.33333333339,
      "d": 93.75,
      "v": 61
    },
    {
      "midi": 79,
      "hit": false,
      "t": 73662.50000000006,
      "d": 112.49999999998545,
      "v": 70
    },
    {
      "midi": 72,
      "hit": false,
      "t": 73741.66666666672,
      "d": 64.58333333332848,
      "v": 65
    },
    {
      "midi": 76,
      "hit": false,
      "t": 73816.66666666672,
      "d": 54.16666666667152,
      "v": 72
    },
    {
      "midi": 72,
      "hit": false,
      "t": 73889.58333333339,
      "d": 37.5,
      "v": 59
    },
    {
      "midi": 65,
      "hit": false,
      "t": 73962.50000000006,
      "d": 58.33333333332848,
      "v": 71
    },
    {
      "midi": 74,
      "hit": false,
      "t": 73964.58333333339,
      "d": 47.91666666667152,
      "v": 83
    },
    {
      "midi": 71,
      "hit": false,
      "t": 73977.08333333339,
      "d": 16.666666666671517,
      "v": 63
    },
    {
      "midi": 67,
      "hit": false,
      "t": 74041.66666666672,
      "d": 68.75,
      "v": 61
    },
    {
      "midi": 76,
      "hit": false,
      "t": 74125.00000000004,
      "d": 70.83333333332848,
      "v": 77
    },
    {
      "midi": 65,
      "hit": false,
      "t": 74129.16666666672,
      "d": 64.58333333332848,
      "v": 70
    },
    {
      "midi": 71,
      "hit": false,
      "t": 74135.41666666672,
      "d": 18.75,
      "v": 52
    },
    {
      "midi": 67,
      "hit": false,
      "t": 74204.1666666667,
      "d": 60.41666666667152,
      "v": 55
    },
    {
      "midi": 65,
      "hit": false,
      "t": 74283.33333333337,
      "d": 70.83333333332848,
      "v": 64
    },
    {
      "midi": 74,
      "hit": false,
      "t": 74293.75000000004,
      "d": 58.33333333332848,
      "v": 70
    },
    {
      "midi": 71,
      "hit": false,
      "t": 74312.50000000004,
      "d": 74.99999999998545,
      "v": 57
    },
    {
      "midi": 67,
      "hit": false,
      "t": 74360.4166666667,
      "d": 58.33333333332848,
      "v": 60
    },
    {
      "midi": 64,
      "hit": false,
      "t": 74445.83333333336,
      "d": 337.5,
      "v": 76
    },
    {
      "midi": 79,
      "hit": false,
      "t": 74450.00000000003,
      "d": 268.75,
      "v": 81
    },
    {
      "midi": 72,
      "hit": false,
      "t": 74535.4166666667,
      "d": 64.58333333332848,
      "v": 62
    },
    {
      "midi": 71,
      "hit": false,
      "t": 74606.25000000003,
      "d": 108.33333333332848,
      "v": 66
    },
    {
      "midi": 72,
      "hit": false,
      "t": 74693.75000000003,
      "d": 89.58333333332848,
      "v": 70
    },
    {
      "midi": 76,
      "hit": false,
      "t": 74758.33333333336,
      "d": 45.83333333332848,
      "v": 66
    },
    {
      "midi": 78,
      "hit": false,
      "t": 74939.58333333336,
      "d": 60.41666666667152,
      "v": 66
    },
    {
      "midi": 69,
      "hit": false,
      "t": 74956.25000000003,
      "d": 50,
      "v": 57
    },
    {
      "midi": 75,
      "hit": false,
      "t": 75029.1666666667,
      "d": 56.25,
      "v": 57
    },
    {
      "midi": 69,
      "hit": false,
      "t": 75106.25000000003,
      "d": 37.5,
      "v": 47
    },
    {
      "midi": 79,
      "hit": false,
      "t": 75114.58333333336,
      "d": 47.91666666667152,
      "v": 42
    },
    {
      "midi": 72,
      "hit": false,
      "t": 75193.75000000003,
      "d": 60.41666666667152,
      "v": 44
    },
    {
      "midi": 69,
      "hit": false,
      "t": 75264.58333333337,
      "d": 35.41666666667152,
      "v": 44
    },
    {
      "midi": 78,
      "hit": false,
      "t": 75270.83333333337,
      "d": 62.5,
      "v": 58
    },
    {
      "midi": 75,
      "hit": false,
      "t": 75350.00000000004,
      "d": 45.83333333332848,
      "v": 56
    },
    {
      "midi": 79,
      "hit": false,
      "t": 75420.83333333337,
      "d": 62.5,
      "v": 70
    },
    {
      "midi": 69,
      "hit": false,
      "t": 75425.00000000004,
      "d": 39.58333333332848,
      "v": 51
    },
    {
      "midi": 72,
      "hit": false,
      "t": 75502.08333333337,
      "d": 54.16666666667152,
      "v": 53
    },
    {
      "midi": 69,
      "hit": false,
      "t": 75585.41666666672,
      "d": 33.33333333332848,
      "v": 46
    },
    {
      "midi": 78,
      "hit": false,
      "t": 75585.41666666672,
      "d": 64.58333333332848,
      "v": 60
    },
    {
      "midi": 75,
      "hit": false,
      "t": 75668.75000000004,
      "d": 58.33333333332848,
      "v": 63
    },
    {
      "midi": 69,
      "hit": false,
      "t": 75737.50000000004,
      "d": 45.833333333343035,
      "v": 56
    },
    {
      "midi": 79,
      "hit": false,
      "t": 75745.83333333337,
      "d": 54.16666666668607,
      "v": 59
    },
    {
      "midi": 72,
      "hit": false,
      "t": 75820.8333333334,
      "d": 64.58333333332848,
      "v": 44
    },
    {
      "midi": 78,
      "hit": false,
      "t": 75891.66666666673,
      "d": 68.75,
      "v": 74
    },
    {
      "midi": 68,
      "hit": false,
      "t": 75897.91666666673,
      "d": 37.5,
      "v": 64
    },
    {
      "midi": 75,
      "hit": false,
      "t": 75970.8333333334,
      "d": 60.41666666667152,
      "v": 73
    },
    {
      "midi": 79,
      "hit": false,
      "t": 76047.91666666674,
      "d": 60.41666666667152,
      "v": 62
    },
    {
      "midi": 68,
      "hit": false,
      "t": 76054.16666666674,
      "d": 41.66666666667152,
      "v": 68
    },
    {
      "midi": 72,
      "hit": false,
      "t": 76122.91666666674,
      "d": 64.58333333332848,
      "v": 55
    },
    {
      "midi": 78,
      "hit": false,
      "t": 76200.00000000007,
      "d": 72.91666666667152,
      "v": 79
    },
    {
      "midi": 68,
      "hit": false,
      "t": 76214.5833333334,
      "d": 47.91666666667152,
      "v": 77
    },
    {
      "midi": 75,
      "hit": false,
      "t": 76275.00000000007,
      "d": 56.25,
      "v": 77
    },
    {
      "midi": 79,
      "hit": false,
      "t": 76352.0833333334,
      "d": 68.75000000001455,
      "v": 64
    },
    {
      "midi": 68,
      "hit": false,
      "t": 76362.50000000007,
      "d": 47.91666666667152,
      "v": 81
    },
    {
      "midi": 72,
      "hit": false,
      "t": 76439.58333333342,
      "d": 58.33333333332848,
      "v": 68
    },
    {
      "midi": 78,
      "hit": false,
      "t": 76508.33333333342,
      "d": 75,
      "v": 92
    },
    {
      "midi": 68,
      "hit": false,
      "t": 76518.75000000009,
      "d": 45.83333333332848,
      "v": 87
    },
    {
      "midi": 75,
      "hit": false,
      "t": 76581.25000000009,
      "d": 62.5,
      "v": 83
    },
    {
      "midi": 84,
      "hit": false,
      "t": 76650.00000000009,
      "d": 33.333333333343035,
      "v": 94
    },
    {
      "midi": 68,
      "hit": false,
      "t": 76660.41666666676,
      "d": 33.333333333343035,
      "v": 94
    },
    {
      "midi": 78,
      "hit": false,
      "t": 76864.58333333344,
      "d": 87.5,
      "v": 68
    },
    {
      "midi": 67,
      "hit": false,
      "t": 76868.75000000012,
      "d": 72.91666666665697,
      "v": 41
    },
    {
      "midi": 75,
      "hit": false,
      "t": 76939.58333333344,
      "d": 60.41666666667152,
      "v": 63
    },
    {
      "midi": 72,
      "hit": false,
      "t": 77012.50000000012,
      "d": 72.91666666667152,
      "v": 53
    },
    {
      "midi": 75,
      "hit": false,
      "t": 77081.25000000012,
      "d": 70.83333333334303,
      "v": 49
    },
    {
      "midi": 78,
      "hit": false,
      "t": 77145.83333333346,
      "d": 108.33333333332848,
      "v": 52
    },
    {
      "midi": 81,
      "hit": false,
      "t": 77247.91666666679,
      "d": 77.08333333332848,
      "v": 56
    },
    {
      "midi": 65,
      "hit": false,
      "t": 77314.58333333346,
      "d": 60.416666666656965,
      "v": 61
    },
    {
      "midi": 55,
      "hit": false,
      "t": 77316.66666666679,
      "d": 70.83333333332848,
      "v": 61
    },
    {
      "midi": 79,
      "hit": false,
      "t": 77318.75000000012,
      "d": 93.75,
      "v": 70
    },
    {
      "midi": 62,
      "hit": false,
      "t": 77322.91666666679,
      "d": 60.416666666656965,
      "v": 55
    },
    {
      "midi": 59,
      "hit": false,
      "t": 77327.08333333344,
      "d": 56.25,
      "v": 59
    },
    {
      "midi": 77,
      "hit": false,
      "t": 77400.00000000012,
      "d": 68.75,
      "v": 70
    },
    {
      "midi": 74,
      "hit": false,
      "t": 77479.16666666679,
      "d": 41.66666666667152,
      "v": 43
    },
    {
      "midi": 71,
      "hit": false,
      "t": 77543.75000000013,
      "d": 52.08333333332848,
      "v": 55
    },
    {
      "midi": 67,
      "hit": false,
      "t": 77629.16666666679,
      "d": 68.75,
      "v": 51
    },
    {
      "midi": 71,
      "hit": false,
      "t": 77693.75000000012,
      "d": 87.5,
      "v": 61
    },
    {
      "midi": 48,
      "hit": false,
      "t": 77777.08333333344,
      "d": 214.58333333332848,
      "v": 52
    },
    {
      "midi": 72,
      "hit": false,
      "t": 77781.25000000012,
      "d": 204.16666666665697,
      "v": 63
    },
    {
      "midi": 52,
      "hit": false,
      "t": 77847.91666666677,
      "d": 172.91666666667152,
      "v": 52
    },
    {
      "midi": 55,
      "hit": false,
      "t": 77929.16666666677,
      "d": 97.91666666667152,
      "v": 55
    },
    {
      "midi": 60,
      "hit": false,
      "t": 78004.16666666677,
      "d": 62.5,
      "v": 61
    },
    {
      "midi": 64,
      "hit": false,
      "t": 78089.58333333344,
      "d": 89.58333333332848,
      "v": 43
    },
    {
      "midi": 67,
      "hit": false,
      "t": 78160.41666666677,
      "d": 91.66666666667152,
      "v": 67
    },
    {
      "midi": 72,
      "hit": false,
      "t": 78233.33333333344,
      "d": 60.41666666667152,
      "v": 73
    },
    {
      "midi": 55,
      "hit": false,
      "t": 78241.66666666677,
      "d": 218.75000000001455,
      "v": 66
    },
    {
      "midi": 60,
      "hit": false,
      "t": 78325.00000000012,
      "d": 139.58333333334303,
      "v": 72
    },
    {
      "midi": 64,
      "hit": false,
      "t": 78397.91666666679,
      "d": 93.75,
      "v": 74
    },
    {
      "midi": 72,
      "hit": false,
      "t": 78479.16666666679,
      "d": 85.41666666665697,
      "v": 72
    },
    {
      "midi": 76,
      "hit": false,
      "t": 78550.00000000012,
      "d": 81.25,
      "v": 75
    },
    {
      "midi": 79,
      "hit": false,
      "t": 78627.08333333344,
      "d": 52.083333333343035,
      "v": 74
    },
    {
      "midi": 66,
      "hit": false,
      "t": 78712.50000000012,
      "d": 54.166666666656965,
      "v": 72
    },
    {
      "midi": 57,
      "hit": false,
      "t": 78714.58333333344,
      "d": 35.41666666667152,
      "v": 64
    },
    {
      "midi": 78,
      "hit": false,
      "t": 78714.58333333344,
      "d": 68.75,
      "v": 87
    },
    {
      "midi": 60,
      "hit": false,
      "t": 78718.75000000012,
      "d": 39.58333333332848,
      "v": 61
    },
    {
      "midi": 63,
      "hit": false,
      "t": 78718.75000000012,
      "d": 45.83333333332848,
      "v": 65
    },
    {
      "midi": 75,
      "hit": false,
      "t": 78793.75000000012,
      "d": 60.41666666667152,
      "v": 70
    },
    {
      "midi": 79,
      "hit": false,
      "t": 78875.00000000012,
      "d": 62.5,
      "v": 56
    },
    {
      "midi": 66,
      "hit": false,
      "t": 78881.25000000012,
      "d": 35.41666666667152,
      "v": 50
    },
    {
      "midi": 60,
      "hit": false,
      "t": 78885.41666666679,
      "d": 18.75,
      "v": 48
    },
    {
      "midi": 63,
      "hit": false,
      "t": 78891.66666666679,
      "d": 16.666666666671517,
      "v": 45
    },
    {
      "midi": 72,
      "hit": false,
      "t": 78962.50000000012,
      "d": 56.25,
      "v": 53
    },
    {
      "midi": 78,
      "hit": false,
      "t": 79037.50000000012,
      "d": 60.41666666667152,
      "v": 63
    },
    {
      "midi": 66,
      "hit": false,
      "t": 79045.83333333344,
      "d": 39.583333333343035,
      "v": 47
    },
    {
      "midi": 57,
      "hit": false,
      "t": 79047.91666666677,
      "d": 16.666666666671517,
      "v": 53
    },
    {
      "midi": 60,
      "hit": false,
      "t": 79050.0000000001,
      "d": 18.750000000014552,
      "v": 51
    },
    {
      "midi": 63,
      "hit": false,
      "t": 79054.16666666677,
      "d": 18.750000000014552,
      "v": 45
    },
    {
      "midi": 75,
      "hit": false,
      "t": 79112.50000000012,
      "d": 52.08333333332848,
      "v": 65
    },
    {
      "midi": 79,
      "hit": false,
      "t": 79187.50000000012,
      "d": 64.58333333334303,
      "v": 64
    },
    {
      "midi": 66,
      "hit": false,
      "t": 79202.08333333344,
      "d": 43.75000000001455,
      "v": 76
    },
    {
      "midi": 63,
      "hit": false,
      "t": 79206.25000000012,
      "d": 41.66666666667152,
      "v": 65
    },
    {
      "midi": 60,
      "hit": false,
      "t": 79208.33333333344,
      "d": 20.833333333343035,
      "v": 57
    },
    {
      "midi": 57,
      "hit": false,
      "t": 79212.50000000012,
      "d": 16.666666666671517,
      "v": 47
    },
    {
      "midi": 72,
      "hit": false,
      "t": 79279.16666666679,
      "d": 70.83333333332848,
      "v": 50
    },
    {
      "midi": 78,
      "hit": false,
      "t": 79354.16666666679,
      "d": 64.58333333332848,
      "v": 70
    },
    {
      "midi": 66,
      "hit": false,
      "t": 79364.58333333346,
      "d": 41.666666666656965,
      "v": 53
    },
    {
      "midi": 60,
      "hit": false,
      "t": 79372.91666666679,
      "d": 20.833333333328483,
      "v": 47
    },
    {
      "midi": 57,
      "hit": false,
      "t": 79375.00000000012,
      "d": 16.666666666671517,
      "v": 38
    },
    {
      "midi": 63,
      "hit": false,
      "t": 79379.16666666679,
      "d": 12.5,
      "v": 47
    },
    {
      "midi": 75,
      "hit": false,
      "t": 79431.25000000012,
      "d": 60.41666666667152,
      "v": 70
    },
    {
      "midi": 79,
      "hit": false,
      "t": 79504.16666666679,
      "d": 56.25000000001455,
      "v": 64
    },
    {
      "midi": 57,
      "hit": false,
      "t": 79508.33333333346,
      "d": 20.833333333343035,
      "v": 61
    },
    {
      "midi": 66,
      "hit": false,
      "t": 79508.33333333346,
      "d": 35.41666666667152,
      "v": 63
    },
    {
      "midi": 60,
      "hit": false,
      "t": 79512.50000000013,
      "d": 33.33333333332848,
      "v": 61
    },
    {
      "midi": 63,
      "hit": false,
      "t": 79512.50000000013,
      "d": 37.5,
      "v": 61
    },
    {
      "midi": 72,
      "hit": false,
      "t": 79585.4166666668,
      "d": 58.33333333332848,
      "v": 51
    },
    {
      "midi": 78,
      "hit": false,
      "t": 79656.25000000013,
      "d": 72.91666666665697,
      "v": 80
    },
    {
      "midi": 56,
      "hit": false,
      "t": 79662.50000000013,
      "d": 37.5,
      "v": 68
    },
    {
      "midi": 66,
      "hit": false,
      "t": 79664.58333333346,
      "d": 43.75,
      "v": 75
    },
    {
      "midi": 63,
      "hit": false,
      "t": 79666.66666666679,
      "d": 47.91666666667152,
      "v": 68
    },
    {
      "midi": 60,
      "hit": false,
      "t": 79670.83333333346,
      "d": 37.5,
      "v": 64
    },
    {
      "midi": 75,
      "hit": false,
      "t": 79731.25000000012,
      "d": 64.58333333332848,
      "v": 77
    },
    {
      "midi": 79,
      "hit": false,
      "t": 79810.41666666677,
      "d": 64.58333333331393,
      "v": 64
    },
    {
      "midi": 56,
      "hit": false,
      "t": 79814.58333333344,
      "d": 41.666666666656965,
      "v": 74
    },
    {
      "midi": 66,
      "hit": false,
      "t": 79818.75000000012,
      "d": 45.83333333331393,
      "v": 74
    },
    {
      "midi": 63,
      "hit": false,
      "t": 79820.83333333344,
      "d": 43.74999999998545,
      "v": 69
    },
    {
      "midi": 60,
      "hit": false,
      "t": 79822.91666666677,
      "d": 43.74999999998545,
      "v": 67
    },
    {
      "midi": 72,
      "hit": false,
      "t": 79889.58333333342,
      "d": 66.66666666667152,
      "v": 62
    },
    {
      "midi": 78,
      "hit": false,
      "t": 79966.66666666676,
      "d": 68.74999999998545,
      "v": 80
    },
    {
      "midi": 66,
      "hit": false,
      "t": 79968.75000000009,
      "d": 50,
      "v": 74
    },
    {
      "midi": 56,
      "hit": false,
      "t": 79970.83333333342,
      "d": 35.41666666667152,
      "v": 67
    },
    {
      "midi": 60,
      "hit": false,
      "t": 79975.00000000009,
      "d": 41.66666666667152,
      "v": 67
    },
    {
      "midi": 63,
      "hit": false,
      "t": 79975.00000000009,
      "d": 52.08333333332848,
      "v": 72
    },
    {
      "midi": 75,
      "hit": false,
      "t": 80041.66666666674,
      "d": 58.33333333332848,
      "v": 80
    },
    {
      "midi": 79,
      "hit": false,
      "t": 80116.66666666674,
      "d": 66.66666666665697,
      "v": 65
    },
    {
      "midi": 56,
      "hit": false,
      "t": 80122.91666666674,
      "d": 29.166666666671517,
      "v": 75
    },
    {
      "midi": 63,
      "hit": false,
      "t": 80125.00000000007,
      "d": 41.66666666667152,
      "v": 74
    },
    {
      "midi": 66,
      "hit": false,
      "t": 80125.00000000007,
      "d": 43.75,
      "v": 78
    },
    {
      "midi": 60,
      "hit": false,
      "t": 80129.16666666674,
      "d": 37.5,
      "v": 70
    },
    {
      "midi": 72,
      "hit": false,
      "t": 80200.00000000007,
      "d": 77.08333333332848,
      "v": 60
    },
    {
      "midi": 78,
      "hit": false,
      "t": 80272.91666666674,
      "d": 70.83333333331393,
      "v": 81
    },
    {
      "midi": 56,
      "hit": false,
      "t": 80275.00000000007,
      "d": 60.416666666656965,
      "v": 76
    },
    {
      "midi": 66,
      "hit": false,
      "t": 80279.16666666673,
      "d": 45.83333333332848,
      "v": 76
    },
    {
      "midi": 63,
      "hit": false,
      "t": 80281.25000000006,
      "d": 39.58333333332848,
      "v": 72
    },
    {
      "midi": 60,
      "hit": false,
      "t": 80281.25000000006,
      "d": 43.75,
      "v": 70
    },
    {
      "midi": 75,
      "hit": false,
      "t": 80347.91666666673,
      "d": 52.08333333332848,
      "v": 81
    },
    {
      "midi": 84,
      "hit": false,
      "t": 80416.66666666673,
      "d": 39.583333333343035,
      "v": 83
    },
    {
      "midi": 56,
      "hit": false,
      "t": 80420.8333333334,
      "d": 41.66666666667152,
      "v": 76
    },
    {
      "midi": 60,
      "hit": false,
      "t": 80422.91666666673,
      "d": 45.833333333343035,
      "v": 73
    },
    {
      "midi": 66,
      "hit": false,
      "t": 80422.91666666673,
      "d": 47.91666666667152,
      "v": 80
    },
    {
      "midi": 63,
      "hit": false,
      "t": 80427.0833333334,
      "d": 41.66666666667152,
      "v": 77
    },
    {
      "midi": 55,
      "hit": false,
      "t": 80706.25000000009,
      "d": 108.33333333332848,
      "v": 61
    },
    {
      "midi": 78,
      "hit": false,
      "t": 80712.50000000009,
      "d": 108.33333333332848,
      "v": 79
    },
    {
      "midi": 66,
      "hit": false,
      "t": 80725.00000000009,
      "d": 68.75,
      "v": 50
    },
    {
      "midi": 60,
      "hit": false,
      "t": 80733.33333333342,
      "d": 102.08333333332848,
      "v": 43
    },
    {
      "midi": 63,
      "hit": false,
      "t": 80737.50000000009,
      "d": 91.66666666665697,
      "v": 39
    },
    {
      "midi": 75,
      "hit": false,
      "t": 80789.58333333342,
      "d": 64.58333333332848,
      "v": 66
    },
    {
      "midi": 72,
      "hit": false,
      "t": 80872.91666666674,
      "d": 66.66666666667152,
      "v": 55
    },
    {
      "midi": 75,
      "hit": false,
      "t": 80950.00000000009,
      "d": 68.75,
      "v": 53
    },
    {
      "midi": 78,
      "hit": false,
      "t": 81008.33333333342,
      "d": 79.16666666667152,
      "v": 50
    },
    {
      "midi": 81,
      "hit": false,
      "t": 81112.50000000009,
      "d": 75,
      "v": 66
    },
    {
      "midi": 79,
      "hit": false,
      "t": 81179.16666666676,
      "d": 79.16666666664241,
      "v": 64
    },
    {
      "midi": 55,
      "hit": false,
      "t": 81183.33333333343,
      "d": 104.16666666662786,
      "v": 46
    },
    {
      "midi": 65,
      "hit": false,
      "t": 81185.41666666676,
      "d": 64.58333333331393,
      "v": 59
    },
    {
      "midi": 62,
      "hit": false,
      "t": 81189.58333333342,
      "d": 70.83333333331393,
      "v": 54
    },
    {
      "midi": 59,
      "hit": false,
      "t": 81191.66666666674,
      "d": 81.24999999998545,
      "v": 59
    },
    {
      "midi": 77,
      "hit": false,
      "t": 81256.25000000007,
      "d": 85.41666666665697,
      "v": 68
    },
    {
      "midi": 74,
      "hit": false,
      "t": 81331.25000000006,
      "d": 50,
      "v": 63
    },
    {
      "midi": 71,
      "hit": false,
      "t": 81400.00000000006,
      "d": 64.58333333332848,
      "v": 58
    },
    {
      "midi": 67,
      "hit": false,
      "t": 81483.33333333339,
      "d": 66.66666666665697,
      "v": 58
    },
    {
      "midi": 71,
      "hit": false,
      "t": 81543.75000000004,
      "d": 87.5,
      "v": 54
    },
    {
      "midi": 48,
      "hit": false,
      "t": 81645.83333333337,
      "d": 156.25,
      "v": 46
    },
    {
      "midi": 72,
      "hit": false,
      "t": 81650.00000000004,
      "d": 100,
      "v": 66
    },
    {
      "midi": 67,
      "hit": false,
      "t": 81747.91666666672,
      "d": 54.166666666656965,
      "v": 47
    },
    {
      "midi": 55,
      "hit": false,
      "t": 81814.58333333337,
      "d": 118.74999999998545,
      "v": 39
    },
    {
      "midi": 64,
      "hit": false,
      "t": 81820.83333333337,
      "d": 58.33333333332848,
      "v": 56
    },
    {
      "midi": 67,
      "hit": false,
      "t": 81893.75000000003,
      "d": 47.916666666656965,
      "v": 52
    },
    {
      "midi": 76,
      "hit": false,
      "t": 81960.41666666669,
      "d": 72.91666666667152,
      "v": 77
    },
    {
      "midi": 60,
      "hit": false,
      "t": 81964.58333333336,
      "d": 43.75,
      "v": 73
    },
    {
      "midi": 67,
      "hit": false,
      "t": 82041.66666666669,
      "d": 33.33333333332848,
      "v": 70
    },
    {
      "midi": 74,
      "hit": false,
      "t": 82143.75000000001,
      "d": 104.16666666665697,
      "v": 78
    },
    {
      "midi": 48,
      "hit": false,
      "t": 82152.08333333334,
      "d": 100,
      "v": 68
    },
    {
      "midi": 65,
      "hit": false,
      "t": 82233.33333333334,
      "d": 52.08333333332848,
      "v": 56
    },
    {
      "midi": 64,
      "hit": false,
      "t": 82308.33333333334,
      "d": 52.08333333332848,
      "v": 58
    },
    {
      "midi": 57,
      "hit": false,
      "t": 82314.58333333334,
      "d": 20.833333333328483,
      "v": 49
    },
    {
      "midi": 65,
      "hit": false,
      "t": 82375,
      "d": 58.33333333332848,
      "v": 55
    },
    {
      "midi": 72,
      "hit": false,
      "t": 82450,
      "d": 64.58333333332848,
      "v": 77
    },
    {
      "midi": 60,
      "hit": false,
      "t": 82458.33333333333,
      "d": 43.75,
      "v": 54
    },
    {
      "midi": 65,
      "hit": false,
      "t": 82525,
      "d": 52.08333333332848,
      "v": 69
    },
    {
      "midi": 71,
      "hit": false,
      "t": 82618.75,
      "d": 139.58333333334303,
      "v": 86
    },
    {
      "midi": 48,
      "hit": false,
      "t": 82620.83333333333,
      "d": 54.16666666667152,
      "v": 70
    },
    {
      "midi": 65,
      "hit": false,
      "t": 82704.16666666667,
      "d": 56.25,
      "v": 59
    },
    {
      "midi": 64,
      "hit": false,
      "t": 82772.91666666667,
      "d": 54.16666666667152,
      "v": 63
    },
    {
      "midi": 62,
      "hit": false,
      "t": 82777.08333333334,
      "d": 75,
      "v": 46
    },
    {
      "midi": 65,
      "hit": false,
      "t": 82850.00000000001,
      "d": 47.916666666656965,
      "v": 62
    },
    {
      "midi": 60,
      "hit": false,
      "t": 82916.66666666667,
      "d": 18.75,
      "v": 62
    },
    {
      "midi": 69,
      "hit": false,
      "t": 82922.91666666667,
      "d": 77.08333333332848,
      "v": 68
    },
    {
      "midi": 65,
      "hit": false,
      "t": 83002.08333333333,
      "d": 47.91666666667152,
      "v": 75
    },
    {
      "midi": 67,
      "hit": false,
      "t": 83077.08333333333,
      "d": 77.08333333332848,
      "v": 77
    },
    {
      "midi": 48,
      "hit": false,
      "t": 83079.16666666666,
      "d": 112.5,
      "v": 62
    },
    {
      "midi": 65,
      "hit": false,
      "t": 83160.41666666666,
      "d": 50,
      "v": 66
    },
    {
      "midi": 64,
      "hit": false,
      "t": 83231.24999999999,
      "d": 52.08333333332848,
      "v": 66
    },
    {
      "midi": 59,
      "hit": false,
      "t": 83233.33333333331,
      "d": 56.25,
      "v": 60
    },
    {
      "midi": 65,
      "hit": false,
      "t": 83306.24999999999,
      "d": 47.91666666667152,
      "v": 64
    },
    {
      "midi": 69,
      "hit": false,
      "t": 83377.08333333333,
      "d": 66.66666666665697,
      "v": 67
    },
    {
      "midi": 60,
      "hit": false,
      "t": 83379.16666666666,
      "d": 43.75,
      "v": 63
    },
    {
      "midi": 65,
      "hit": false,
      "t": 83458.33333333331,
      "d": 47.91666666667152,
      "v": 72
    },
    {
      "midi": 67,
      "hit": false,
      "t": 83527.08333333331,
      "d": 68.75,
      "v": 71
    },
    {
      "midi": 48,
      "hit": false,
      "t": 83527.08333333331,
      "d": 81.25,
      "v": 64
    },
    {
      "midi": 65,
      "hit": false,
      "t": 83604.16666666664,
      "d": 58.333333333343035,
      "v": 72
    },
    {
      "midi": 59,
      "hit": false,
      "t": 83672.91666666666,
      "d": 108.33333333332848,
      "v": 61
    },
    {
      "midi": 64,
      "hit": false,
      "t": 83681.24999999999,
      "d": 64.58333333332848,
      "v": 70
    },
    {
      "midi": 65,
      "hit": false,
      "t": 83752.08333333331,
      "d": 66.66666666667152,
      "v": 73
    },
    {
      "midi": 69,
      "hit": false,
      "t": 83824.99999999999,
      "d": 56.25,
      "v": 77
    },
    {
      "midi": 57,
      "hit": false,
      "t": 83831.24999999999,
      "d": 45.83333333332848,
      "v": 64
    },
    {
      "midi": 48,
      "hit": false,
      "t": 83991.66666666666,
      "d": 72.91666666665697,
      "v": 52
    },
    {
      "midi": 67,
      "hit": false,
      "t": 83999.99999999999,
      "d": 37.5,
      "v": 68
    },
    {
      "midi": 55,
      "hit": false,
      "t": 84068.74999999999,
      "d": 102.08333333332848,
      "v": 53
    },
    {
      "midi": 58,
      "hit": false,
      "t": 84149.99999999999,
      "d": 75,
      "v": 58
    },
    {
      "midi": 74,
      "hit": false,
      "t": 84156.24999999999,
      "d": 45.83333333332848,
      "v": 62
    },
    {
      "midi": 62,
      "hit": false,
      "t": 84164.58333333331,
      "d": 18.75,
      "v": 38
    },
    {
      "midi": 59,
      "hit": false,
      "t": 84218.74999999999,
      "d": 64.58333333332848,
      "v": 51
    },
    {
      "midi": 58,
      "hit": false,
      "t": 84295.83333333331,
      "d": 77.08333333334303,
      "v": 54
    },
    {
      "midi": 67,
      "hit": false,
      "t": 84299.99999999999,
      "d": 56.25000000001455,
      "v": 64
    },
    {
      "midi": 65,
      "hit": false,
      "t": 84304.16666666666,
      "d": 16.666666666671517,
      "v": 57
    },
    {
      "midi": 62,
      "hit": false,
      "t": 84310.41666666666,
      "d": 16.666666666671517,
      "v": 41
    },
    {
      "midi": 59,
      "hit": false,
      "t": 84364.58333333333,
      "d": 50,
      "v": 60
    },
    {
      "midi": 48,
      "hit": false,
      "t": 84443.75,
      "d": 66.66666666667152,
      "v": 67
    },
    {
      "midi": 67,
      "hit": false,
      "t": 84454.16666666667,
      "d": 37.5,
      "v": 72
    },
    {
      "midi": 64,
      "hit": false,
      "t": 84468.75,
      "d": 16.666666666671517,
      "v": 55
    },
    {
      "midi": 55,
      "hit": false,
      "t": 84518.75,
      "d": 110.41666666667152,
      "v": 61
    },
    {
      "midi": 59,
      "hit": false,
      "t": 84595.83333333333,
      "d": 77.08333333334303,
      "v": 71
    },
    {
      "midi": 69,
      "hit": false,
      "t": 84600,
      "d": 50,
      "v": 77
    },
    {
      "midi": 64,
      "hit": false,
      "t": 84610.41666666667,
      "d": 16.666666666671517,
      "v": 67
    },
    {
      "midi": 60,
      "hit": false,
      "t": 84675,
      "d": 60.41666666667152,
      "v": 57
    },
    {
      "midi": 67,
      "hit": false,
      "t": 84747.91666666667,
      "d": 49.99999999998545,
      "v": 77
    },
    {
      "midi": 59,
      "hit": false,
      "t": 84747.91666666667,
      "d": 54.166666666656965,
      "v": 65
    },
    {
      "midi": 64,
      "hit": false,
      "t": 84756.25,
      "d": 39.58333333332848,
      "v": 69
    },
    {
      "midi": 60,
      "hit": false,
      "t": 84802.08333333333,
      "d": 62.5,
      "v": 64
    },
    {
      "midi": 48,
      "hit": false,
      "t": 84889.58333333333,
      "d": 100,
      "v": 68
    },
    {
      "midi": 67,
      "hit": false,
      "t": 84900,
      "d": 52.08333333332848,
      "v": 74
    },
    {
      "midi": 62,
      "hit": false,
      "t": 84902.08333333333,
      "d": 39.58333333332848,
      "v": 71
    },
    {
      "midi": 65,
      "hit": false,
      "t": 84902.08333333333,
      "d": 39.58333333332848,
      "v": 73
    },
    {
      "midi": 55,
      "hit": false,
      "t": 84970.83333333333,
      "d": 125.00000000001455,
      "v": 61
    },
    {
      "midi": 58,
      "hit": false,
      "t": 85037.5,
      "d": 85.41666666667152,
      "v": 70
    },
    {
      "midi": 74,
      "hit": false,
      "t": 85043.75,
      "d": 52.083333333343035,
      "v": 71
    },
    {
      "midi": 62,
      "hit": false,
      "t": 85060.41666666667,
      "d": 18.75,
      "v": 39
    },
    {
      "midi": 65,
      "hit": false,
      "t": 85064.58333333334,
      "d": 14.583333333328483,
      "v": 37
    },
    {
      "midi": 59,
      "hit": false,
      "t": 85110.41666666667,
      "d": 70.83333333332848,
      "v": 69
    },
    {
      "midi": 67,
      "hit": false,
      "t": 85189.58333333333,
      "d": 70.83333333332848,
      "v": 73
    },
    {
      "midi": 62,
      "hit": false,
      "t": 85197.91666666666,
      "d": 35.41666666667152,
      "v": 64
    },
    {
      "midi": 65,
      "hit": false,
      "t": 85197.91666666666,
      "d": 37.5,
      "v": 64
    },
    {
      "midi": 58,
      "hit": false,
      "t": 85202.08333333333,
      "d": 95.83333333332848,
      "v": 65
    },
    {
      "midi": 55,
      "hit": false,
      "t": 85208.33333333333,
      "d": 20.833333333328483,
      "v": 31
    },
    {
      "midi": 59,
      "hit": false,
      "t": 85277.08333333333,
      "d": 52.08333333332848,
      "v": 71
    },
    {
      "midi": 48,
      "hit": false,
      "t": 85352.08333333333,
      "d": 79.16666666668607,
      "v": 74
    },
    {
      "midi": 67,
      "hit": false,
      "t": 85362.5,
      "d": 56.25000000001455,
      "v": 81
    },
    {
      "midi": 64,
      "hit": false,
      "t": 85366.66666666667,
      "d": 35.41666666667152,
      "v": 76
    },
    {
      "midi": 55,
      "hit": false,
      "t": 85427.08333333334,
      "d": 110.41666666667152,
      "v": 63
    },
    {
      "midi": 59,
      "hit": false,
      "t": 85510.41666666669,
      "d": 77.08333333332848,
      "v": 77
    },
    {
      "midi": 60,
      "hit": false,
      "t": 85577.08333333334,
      "d": 77.08333333334303,
      "v": 57
    },
    {
      "midi": 59,
      "hit": false,
      "t": 85656.25000000001,
      "d": 52.08333333332848,
      "v": 72
    },
    {
      "midi": 76,
      "hit": false,
      "t": 85662.50000000001,
      "d": 43.75,
      "v": 80
    },
    {
      "midi": 67,
      "hit": false,
      "t": 85666.66666666669,
      "d": 31.25,
      "v": 76
    },
    {
      "midi": 60,
      "hit": false,
      "t": 85725.00000000001,
      "d": 43.75,
      "v": 64
    },
    {
      "midi": 48,
      "hit": false,
      "t": 85852.08333333336,
      "d": 66.66666666667152,
      "v": 59
    },
    {
      "midi": 74,
      "hit": false,
      "t": 85856.25000000003,
      "d": 79.16666666667152,
      "v": 68
    },
    {
      "midi": 66,
      "hit": false,
      "t": 85939.58333333337,
      "d": 54.16666666667152,
      "v": 62
    },
    {
      "midi": 57,
      "hit": false,
      "t": 86016.66666666672,
      "d": 16.666666666656965,
      "v": 59
    },
    {
      "midi": 65,
      "hit": false,
      "t": 86018.75000000004,
      "d": 52.08333333332848,
      "v": 57
    },
    {
      "midi": 66,
      "hit": false,
      "t": 86089.58333333337,
      "d": 56.25,
      "v": 65
    },
    {
      "midi": 72,
      "hit": false,
      "t": 86168.75000000004,
      "d": 72.91666666667152,
      "v": 63
    },
    {
      "midi": 60,
      "hit": false,
      "t": 86170.83333333337,
      "d": 41.66666666667152,
      "v": 62
    },
    {
      "midi": 66,
      "hit": false,
      "t": 86243.75000000004,
      "d": 39.58333333332848,
      "v": 61
    },
    {
      "midi": 71,
      "hit": false,
      "t": 86314.58333333337,
      "d": 85.41666666667152,
      "v": 75
    },
    {
      "midi": 48,
      "hit": false,
      "t": 86320.83333333337,
      "d": 35.41666666667152,
      "v": 64
    },
    {
      "midi": 65,
      "hit": false,
      "t": 86402.08333333337,
      "d": 43.75,
      "v": 52
    },
    {
      "midi": 62,
      "hit": false,
      "t": 86468.75000000004,
      "d": 54.16666666667152,
      "v": 59
    },
    {
      "midi": 64,
      "hit": false,
      "t": 86472.91666666672,
      "d": 41.66666666667152,
      "v": 59
    },
    {
      "midi": 65,
      "hit": false,
      "t": 86552.08333333339,
      "d": 45.83333333332848,
      "v": 57
    },
    {
      "midi": 60,
      "hit": false,
      "t": 86616.66666666672,
      "d": 16.666666666656965,
      "v": 65
    },
    {
      "midi": 69,
      "hit": false,
      "t": 86618.75000000004,
      "d": 66.66666666665697,
      "v": 66
    },
    {
      "midi": 65,
      "hit": false,
      "t": 86700.00000000003,
      "d": 37.5,
      "v": 71
    },
    {
      "midi": 67,
      "hit": false,
      "t": 86768.75000000003,
      "d": 64.58333333332848,
      "v": 75
    },
    {
      "midi": 48,
      "hit": false,
      "t": 86775.00000000003,
      "d": 60.416666666656965,
      "v": 52
    },
    {
      "midi": 65,
      "hit": false,
      "t": 86850.00000000001,
      "d": 39.58333333332848,
      "v": 60
    },
    {
      "midi": 64,
      "hit": false,
      "t": 86920.83333333334,
      "d": 50,
      "v": 54
    },
    {
      "midi": 59,
      "hit": false,
      "t": 86925.00000000001,
      "d": 43.75,
      "v": 58
    },
    {
      "midi": 65,
      "hit": false,
      "t": 86989.58333333334,
      "d": 52.08333333332848,
      "v": 64
    },
    {
      "midi": 60,
      "hit": false,
      "t": 87064.58333333334,
      "d": 45.83333333332848,
      "v": 68
    },
    {
      "midi": 69,
      "hit": false,
      "t": 87066.66666666667,
      "d": 75,
      "v": 55
    },
    {
      "midi": 65,
      "hit": false,
      "t": 87139.58333333334,
      "d": 54.166666666656965,
      "v": 66
    },
    {
      "midi": 67,
      "hit": false,
      "t": 87210.41666666667,
      "d": 62.5,
      "v": 64
    },
    {
      "midi": 48,
      "hit": false,
      "t": 87212.5,
      "d": 56.25,
      "v": 63
    },
    {
      "midi": 65,
      "hit": false,
      "t": 87285.41666666667,
      "d": 52.08333333332848,
      "v": 59
    },
    {
      "midi": 64,
      "hit": false,
      "t": 87356.25,
      "d": 64.58333333332848,
      "v": 65
    },
    {
      "midi": 59,
      "hit": false,
      "t": 87358.33333333333,
      "d": 104.16666666667152,
      "v": 60
    },
    {
      "midi": 65,
      "hit": false,
      "t": 87431.25,
      "d": 64.58333333332848,
      "v": 66
    },
    {
      "midi": 69,
      "hit": false,
      "t": 87500,
      "d": 52.08333333332848,
      "v": 68
    },
    {
      "midi": 57,
      "hit": false,
      "t": 87508.33333333333,
      "d": 37.5,
      "v": 55
    },
    {
      "midi": 48,
      "hit": false,
      "t": 87660.41666666666,
      "d": 77.08333333334303,
      "v": 64
    },
    {
      "midi": 67,
      "hit": false,
      "t": 87664.58333333333,
      "d": 37.5,
      "v": 76
    },
    {
      "midi": 55,
      "hit": false,
      "t": 87743.75,
      "d": 137.50000000001455,
      "v": 52
    },
    {
      "midi": 74,
      "hit": false,
      "t": 87816.66666666667,
      "d": 54.16666666667152,
      "v": 72
    },
    {
      "midi": 58,
      "hit": false,
      "t": 87818.75,
      "d": 83.33333333335759,
      "v": 61
    },
    {
      "midi": 65,
      "hit": false,
      "t": 87825,
      "d": 16.666666666671517,
      "v": 59
    },
    {
      "midi": 62,
      "hit": false,
      "t": 87831.25,
      "d": 16.666666666671517,
      "v": 38
    },
    {
      "midi": 59,
      "hit": false,
      "t": 87885.41666666669,
      "d": 68.75,
      "v": 57
    },
    {
      "midi": 67,
      "hit": false,
      "t": 87966.66666666669,
      "d": 54.166666666656965,
      "v": 72
    },
    {
      "midi": 58,
      "hit": false,
      "t": 87966.66666666669,
      "d": 72.91666666665697,
      "v": 56
    },
    {
      "midi": 65,
      "hit": false,
      "t": 87972.91666666669,
      "d": 18.75,
      "v": 62
    },
    {
      "midi": 62,
      "hit": false,
      "t": 87981.25000000001,
      "d": 18.75,
      "v": 43
    },
    {
      "midi": 59,
      "hit": false,
      "t": 88033.33333333334,
      "d": 47.91666666667152,
      "v": 66
    },
    {
      "midi": 48,
      "hit": false,
      "t": 88114.58333333334,
      "d": 68.75,
      "v": 66
    },
    {
      "midi": 67,
      "hit": false,
      "t": 88120.83333333334,
      "d": 37.5,
      "v": 74
    },
    {
      "midi": 64,
      "hit": false,
      "t": 88133.33333333334,
      "d": 16.666666666671517,
      "v": 62
    },
    {
      "midi": 55,
      "hit": false,
      "t": 88191.66666666667,
      "d": 112.5,
      "v": 57
    },
    {
      "midi": 59,
      "hit": false,
      "t": 88270.83333333334,
      "d": 70.83333333332848,
      "v": 64
    },
    {
      "midi": 69,
      "hit": false,
      "t": 88272.91666666667,
      "d": 47.91666666667152,
      "v": 73
    },
    {
      "midi": 64,
      "hit": false,
      "t": 88287.5,
      "d": 16.666666666671517,
      "v": 52
    },
    {
      "midi": 60,
      "hit": false,
      "t": 88350,
      "d": 56.25,
      "v": 49
    },
    {
      "midi": 59,
      "hit": false,
      "t": 88414.58333333333,
      "d": 70.83333333332848,
      "v": 57
    },
    {
      "midi": 67,
      "hit": false,
      "t": 88425,
      "d": 45.83333333332848,
      "v": 74
    },
    {
      "midi": 64,
      "hit": false,
      "t": 88433.33333333333,
      "d": 16.666666666671517,
      "v": 64
    },
    {
      "midi": 60,
      "hit": false,
      "t": 88485.41666666666,
      "d": 56.25,
      "v": 49
    },
    {
      "midi": 48,
      "hit": false,
      "t": 88564.58333333333,
      "d": 79.16666666664241,
      "v": 61
    },
    {
      "midi": 67,
      "hit": false,
      "t": 88572.91666666666,
      "d": 47.916666666656965,
      "v": 69
    },
    {
      "midi": 62,
      "hit": false,
      "t": 88579.16666666666,
      "d": 16.666666666656965,
      "v": 59
    },
    {
      "midi": 65,
      "hit": false,
      "t": 88581.24999999999,
      "d": 18.75,
      "v": 55
    },
    {
      "midi": 55,
      "hit": false,
      "t": 88635.41666666664,
      "d": 247.91666666662786,
      "v": 64
    },
    {
      "midi": 58,
      "hit": false,
      "t": 88708.3333333333,
      "d": 79.16666666664241,
      "v": 70
    },
    {
      "midi": 74,
      "hit": false,
      "t": 88716.66666666663,
      "d": 52.08333333331393,
      "v": 67
    },
    {
      "midi": 67,
      "hit": false,
      "t": 88724.99999999996,
      "d": 18.75,
      "v": 59
    },
    {
      "midi": 65,
      "hit": false,
      "t": 88727.08333333328,
      "d": 18.75,
      "v": 52
    },
    {
      "midi": 62,
      "hit": false,
      "t": 88731.24999999996,
      "d": 16.666666666656965,
      "v": 37
    },
    {
      "midi": 59,
      "hit": false,
      "t": 88781.24999999994,
      "d": 62.5,
      "v": 55
    },
    {
      "midi": 58,
      "hit": false,
      "t": 88858.33333333327,
      "d": 66.66666666665697,
      "v": 61
    },
    {
      "midi": 67,
      "hit": false,
      "t": 88872.9166666666,
      "d": 64.58333333332848,
      "v": 70
    },
    {
      "midi": 65,
      "hit": false,
      "t": 88879.1666666666,
      "d": 16.666666666671517,
      "v": 58
    },
    {
      "midi": 62,
      "hit": false,
      "t": 88883.33333333327,
      "d": 20.833333333328483,
      "v": 43
    },
    {
      "midi": 59,
      "hit": false,
      "t": 88929.1666666666,
      "d": 41.666666666656965,
      "v": 55
    },
    {
      "midi": 48,
      "hit": false,
      "t": 89033.33333333326,
      "d": 95.83333333332848,
      "v": 74
    },
    {
      "midi": 67,
      "hit": false,
      "t": 89041.66666666658,
      "d": 97.91666666667152,
      "v": 81
    },
    {
      "midi": 64,
      "hit": false,
      "t": 89049.99999999991,
      "d": 62.5,
      "v": 75
    },
    {
      "midi": 69,
      "hit": false,
      "t": 89156.24999999993,
      "d": 79.16666666667152,
      "v": 61
    },
    {
      "midi": 67,
      "hit": false,
      "t": 89231.24999999993,
      "d": 70.83333333334303,
      "v": 68
    },
    {
      "midi": 66,
      "hit": false,
      "t": 89312.49999999994,
      "d": 56.25,
      "v": 69
    },
    {
      "midi": 63,
      "hit": false,
      "t": 89383.33333333327,
      "d": 177.08333333334303,
      "v": 68
    },
    {
      "midi": 65,
      "hit": false,
      "t": 89387.49999999994,
      "d": 79.16666666667152,
      "v": 66
    },
    {
      "midi": 60,
      "hit": false,
      "t": 89391.66666666661,
      "d": 287.49999999998545,
      "v": 65
    },
    {
      "midi": 66,
      "hit": false,
      "t": 89468.74999999994,
      "d": 64.58333333332848,
      "v": 74
    },
    {
      "midi": 64,
      "hit": false,
      "t": 89545.83333333327,
      "d": 118.75,
      "v": 88
    },
    {
      "midi": 67,
      "hit": false,
      "t": 89549.99999999994,
      "d": 68.75,
      "v": 78
    },
    {
      "midi": 69,
      "hit": false,
      "t": 89643.74999999994,
      "d": 74.99999999998545,
      "v": 63
    },
    {
      "midi": 67,
      "hit": false,
      "t": 89727.08333333326,
      "d": 60.41666666667152,
      "v": 61
    },
    {
      "midi": 66,
      "hit": false,
      "t": 89804.1666666666,
      "d": 66.66666666667152,
      "v": 56
    },
    {
      "midi": 63,
      "hit": false,
      "t": 89893.74999999994,
      "d": 133.33333333332848,
      "v": 70
    },
    {
      "midi": 65,
      "hit": false,
      "t": 89897.91666666661,
      "d": 75,
      "v": 71
    },
    {
      "midi": 60,
      "hit": false,
      "t": 89897.91666666661,
      "d": 299.99999999998545,
      "v": 51
    },
    {
      "midi": 66,
      "hit": false,
      "t": 89981.24999999994,
      "d": 56.25,
      "v": 72
    },
    {
      "midi": 64,
      "hit": false,
      "t": 90052.08333333327,
      "d": 156.25,
      "v": 77
    },
    {
      "midi": 67,
      "hit": false,
      "t": 90064.58333333327,
      "d": 70.83333333332848,
      "v": 81
    },
    {
      "midi": 69,
      "hit": false,
      "t": 90154.1666666666,
      "d": 79.16666666667152,
      "v": 63
    },
    {
      "midi": 67,
      "hit": false,
      "t": 90235.4166666666,
      "d": 66.66666666667152,
      "v": 64
    },
    {
      "midi": 66,
      "hit": false,
      "t": 90331.24999999994,
      "d": 50,
      "v": 53
    },
    {
      "midi": 65,
      "hit": false,
      "t": 90406.24999999994,
      "d": 60.41666666667152,
      "v": 63
    },
    {
      "midi": 63,
      "hit": false,
      "t": 90410.41666666661,
      "d": 68.75,
      "v": 61
    },
    {
      "midi": 60,
      "hit": false,
      "t": 90410.41666666661,
      "d": 287.5,
      "v": 54
    },
    {
      "midi": 66,
      "hit": false,
      "t": 90485.41666666661,
      "d": 62.5,
      "v": 61
    },
    {
      "midi": 67,
      "hit": false,
      "t": 90568.74999999994,
      "d": 79.16666666667152,
      "v": 76
    },
    {
      "midi": 64,
      "hit": false,
      "t": 90572.91666666661,
      "d": 179.16666666667152,
      "v": 80
    },
    {
      "midi": 69,
      "hit": false,
      "t": 90656.24999999994,
      "d": 89.58333333334303,
      "v": 64
    },
    {
      "midi": 67,
      "hit": false,
      "t": 90741.66666666661,
      "d": 68.75,
      "v": 64
    },
    {
      "midi": 66,
      "hit": false,
      "t": 90835.41666666661,
      "d": 50,
      "v": 60
    },
    {
      "midi": 60,
      "hit": false,
      "t": 90902.08333333328,
      "d": 287.50000000001455,
      "v": 56
    },
    {
      "midi": 65,
      "hit": false,
      "t": 90904.16666666661,
      "d": 70.83333333334303,
      "v": 57
    },
    {
      "midi": 63,
      "hit": false,
      "t": 90908.33333333328,
      "d": 106.25,
      "v": 65
    },
    {
      "midi": 66,
      "hit": false,
      "t": 90983.33333333328,
      "d": 77.08333333332848,
      "v": 67
    },
    {
      "midi": 67,
      "hit": false,
      "t": 91077.08333333328,
      "d": 97.91666666667152,
      "v": 72
    },
    {
      "midi": 64,
      "hit": false,
      "t": 91089.58333333328,
      "d": 106.25000000001455,
      "v": 66
    },
    {
      "midi": 68,
      "hit": false,
      "t": 91179.16666666663,
      "d": 77.08333333334303,
      "v": 63
    },
    {
      "midi": 67,
      "hit": false,
      "t": 91268.74999999997,
      "d": 75,
      "v": 59
    },
    {
      "midi": 66,
      "hit": false,
      "t": 91349.99999999997,
      "d": 62.5,
      "v": 59
    },
    {
      "midi": 65,
      "hit": false,
      "t": 91437.49999999997,
      "d": 75,
      "v": 59
    },
    {
      "midi": 66,
      "hit": false,
      "t": 91516.66666666664,
      "d": 70.83333333334303,
      "v": 57
    },
    {
      "midi": 67,
      "hit": false,
      "t": 91599.99999999999,
      "d": 62.5,
      "v": 60
    },
    {
      "midi": 68,
      "hit": false,
      "t": 91691.66666666666,
      "d": 62.5,
      "v": 66
    },
    {
      "midi": 67,
      "hit": false,
      "t": 91772.91666666666,
      "d": 56.25,
      "v": 51
    },
    {
      "midi": 66,
      "hit": false,
      "t": 91845.83333333333,
      "d": 54.16666666667152,
      "v": 61
    },
    {
      "midi": 75,
      "hit": false,
      "t": 91935.41666666667,
      "d": 181.24999999998545,
      "v": 53
    },
    {
      "midi": 65,
      "hit": false,
      "t": 91937.5,
      "d": 81.25,
      "v": 61
    },
    {
      "midi": 72,
      "hit": false,
      "t": 91952.08333333333,
      "d": 272.9166666666715,
      "v": 47
    },
    {
      "midi": 66,
      "hit": false,
      "t": 92033.33333333333,
      "d": 64.58333333332848,
      "v": 62
    },
    {
      "midi": 67,
      "hit": false,
      "t": 92120.83333333333,
      "d": 89.58333333334303,
      "v": 67
    },
    {
      "midi": 76,
      "hit": false,
      "t": 92125,
      "d": 87.5,
      "v": 66
    },
    {
      "midi": 68,
      "hit": false,
      "t": 92218.75,
      "d": 70.83333333332848,
      "v": 66
    },
    {
      "midi": 67,
      "hit": false,
      "t": 92306.25,
      "d": 56.25,
      "v": 46
    },
    {
      "midi": 66,
      "hit": false,
      "t": 92383.33333333333,
      "d": 56.25,
      "v": 59
    },
    {
      "midi": 75,
      "hit": false,
      "t": 92466.66666666666,
      "d": 145.83333333332848,
      "v": 52
    },
    {
      "midi": 65,
      "hit": false,
      "t": 92474.99999999999,
      "d": 62.5,
      "v": 61
    },
    {
      "midi": 72,
      "hit": false,
      "t": 92479.16666666666,
      "d": 283.33333333331393,
      "v": 53
    },
    {
      "midi": 66,
      "hit": false,
      "t": 92552.08333333331,
      "d": 60.41666666667152,
      "v": 51
    },
    {
      "midi": 67,
      "hit": false,
      "t": 92637.49999999999,
      "d": 91.66666666665697,
      "v": 67
    },
    {
      "midi": 76,
      "hit": false,
      "t": 92645.83333333331,
      "d": 114.58333333332848,
      "v": 64
    },
    {
      "midi": 68,
      "hit": false,
      "t": 92737.49999999997,
      "d": 75,
      "v": 59
    },
    {
      "midi": 67,
      "hit": false,
      "t": 92827.0833333333,
      "d": 72.91666666667152,
      "v": 51
    },
    {
      "midi": 66,
      "hit": false,
      "t": 92914.5833333333,
      "d": 50,
      "v": 54
    },
    {
      "midi": 65,
      "hit": false,
      "t": 92985.41666666663,
      "d": 75,
      "v": 52
    },
    {
      "midi": 75,
      "hit": false,
      "t": 92989.5833333333,
      "d": 152.08333333332848,
      "v": 47
    },
    {
      "midi": 72,
      "hit": false,
      "t": 93020.8333333333,
      "d": 166.66666666667152,
      "v": 25
    },
    {
      "midi": 66,
      "hit": false,
      "t": 93070.8333333333,
      "d": 68.75,
      "v": 56
    },
    {
      "midi": 76,
      "hit": false,
      "t": 93158.3333333333,
      "d": 25,
      "v": 55
    },
    {
      "midi": 67,
      "hit": false,
      "t": 93162.49999999997,
      "d": 43.75,
      "v": 67
    },
    {
      "midi": 63,
      "hit": false,
      "t": 93345.8333333333,
      "d": 79.16666666667152,
      "v": 90
    },
    {
      "midi": 64,
      "hit": false,
      "t": 93431.24999999997,
      "d": 93.75,
      "v": 70
    },
    {
      "midi": 65,
      "hit": false,
      "t": 93518.74999999997,
      "d": 54.16666666667152,
      "v": 61
    },
    {
      "midi": 64,
      "hit": false,
      "t": 93585.41666666664,
      "d": 93.75,
      "v": 62
    },
    {
      "midi": 66,
      "hit": false,
      "t": 93679.16666666664,
      "d": 68.75,
      "v": 68
    },
    {
      "midi": 67,
      "hit": false,
      "t": 93749.99999999997,
      "d": 95.83333333332848,
      "v": 58
    },
    {
      "midi": 69,
      "hit": false,
      "t": 93831.24999999997,
      "d": 56.25,
      "v": 62
    },
    {
      "midi": 67,
      "hit": false,
      "t": 93904.16666666664,
      "d": 70.83333333332848,
      "v": 61
    },
    {
      "midi": 71,
      "hit": false,
      "t": 93985.41666666664,
      "d": 91.66666666665697,
      "v": 75
    },
    {
      "midi": 72,
      "hit": false,
      "t": 94068.74999999997,
      "d": 99.99999999998545,
      "v": 73
    },
    {
      "midi": 55,
      "hit": false,
      "t": 94112.49999999997,
      "d": 24.999999999985448,
      "v": 73
    },
    {
      "midi": 60,
      "hit": false,
      "t": 94114.5833333333,
      "d": 50,
      "v": 73
    },
    {
      "midi": 64,
      "hit": false,
      "t": 94116.66666666663,
      "d": 50,
      "v": 80
    },
    {
      "midi": 74,
      "hit": false,
      "t": 94141.66666666663,
      "d": 62.5,
      "v": 67
    },
    {
      "midi": 72,
      "hit": false,
      "t": 94235.41666666663,
      "d": 66.66666666667152,
      "v": 57
    },
    {
      "midi": 75,
      "hit": false,
      "t": 94327.0833333333,
      "d": 70.83333333332848,
      "v": 69
    },
    {
      "midi": 76,
      "hit": false,
      "t": 94399.99999999996,
      "d": 85.41666666665697,
      "v": 63
    },
    {
      "midi": 77,
      "hit": false,
      "t": 94470.83333333328,
      "d": 56.25,
      "v": 70
    },
    {
      "midi": 76,
      "hit": false,
      "t": 94549.99999999996,
      "d": 68.75,
      "v": 59
    },
    {
      "midi": 60,
      "hit": false,
      "t": 94620.83333333328,
      "d": 24.999999999985448,
      "v": 64
    },
    {
      "midi": 64,
      "hit": false,
      "t": 94622.91666666661,
      "d": 22.916666666656965,
      "v": 70
    },
    {
      "midi": 67,
      "hit": false,
      "t": 94624.99999999994,
      "d": 22.916666666656965,
      "v": 70
    },
    {
      "midi": 78,
      "hit": false,
      "t": 94631.24999999994,
      "d": 64.58333333332848,
      "v": 75
    },
    {
      "midi": 79,
      "hit": false,
      "t": 94699.99999999994,
      "d": 95.83333333332848,
      "v": 69
    },
    {
      "midi": 81,
      "hit": false,
      "t": 94781.24999999994,
      "d": 52.08333333332848,
      "v": 60
    },
    {
      "midi": 79,
      "hit": false,
      "t": 94860.4166666666,
      "d": 56.25,
      "v": 55
    },
    {
      "midi": 83,
      "hit": false,
      "t": 94945.83333333327,
      "d": 64.58333333334303,
      "v": 48
    },
    {
      "midi": 84,
      "hit": false,
      "t": 95006.24999999994,
      "d": 68.75,
      "v": 68
    },
    {
      "midi": 64,
      "hit": false,
      "t": 95062.49999999994,
      "d": 27.083333333343035,
      "v": 58
    },
    {
      "midi": 72,
      "hit": false,
      "t": 95068.74999999994,
      "d": 29.166666666671517,
      "v": 51
    },
    {
      "midi": 67,
      "hit": false,
      "t": 95070.83333333327,
      "d": 27.083333333343035,
      "v": 46
    },
    {
      "midi": 86,
      "hit": false,
      "t": 95079.16666666661,
      "d": 43.75,
      "v": 55
    },
    {
      "midi": 84,
      "hit": false,
      "t": 95158.33333333328,
      "d": 62.5,
      "v": 59
    },
    {
      "midi": 87,
      "hit": false,
      "t": 95249.99999999996,
      "d": 50,
      "v": 48
    },
    {
      "midi": 88,
      "hit": false,
      "t": 95314.58333333328,
      "d": 64.58333333332848,
      "v": 57
    },
    {
      "midi": 89,
      "hit": false,
      "t": 95389.58333333328,
      "d": 29.166666666671517,
      "v": 45
    },
    {
      "midi": 88,
      "hit": false,
      "t": 95437.49999999996,
      "d": 77.08333333332848,
      "v": 47
    },
    {
      "midi": 72,
      "hit": false,
      "t": 95533.33333333328,
      "d": 45.83333333331393,
      "v": 40
    },
    {
      "midi": 90,
      "hit": false,
      "t": 95537.49999999996,
      "d": 39.58333333331393,
      "v": 45
    },
    {
      "midi": 76,
      "hit": false,
      "t": 95545.83333333328,
      "d": 45.83333333331393,
      "v": 49
    },
    {
      "midi": 67,
      "hit": false,
      "t": 95562.49999999994,
      "d": 45.83333333331393,
      "v": 40
    },
    {
      "midi": 91,
      "hit": false,
      "t": 95593.74999999993,
      "d": 75,
      "v": 51
    },
    {
      "midi": 93,
      "hit": false,
      "t": 95668.74999999993,
      "d": 29.166666666671517,
      "v": 51
    },
    {
      "midi": 91,
      "hit": false,
      "t": 95735.4166666666,
      "d": 43.75,
      "v": 55
    },
    {
      "midi": 95,
      "hit": false,
      "t": 95833.33333333327,
      "d": 68.75,
      "v": 41
    },
    {
      "midi": 96,
      "hit": false,
      "t": 95918.74999999994,
      "d": 70.83333333332848,
      "v": 43
    },
    {
      "midi": 100,
      "hit": false,
      "t": 95999.99999999994,
      "d": 47.916666666656965,
      "v": 70
    },
    {
      "midi": 76,
      "hit": false,
      "t": 96012.49999999994,
      "d": 27.083333333328483,
      "v": 51
    },
    {
      "midi": 79,
      "hit": false,
      "t": 96014.58333333327,
      "d": 27.083333333328483,
      "v": 53
    },
    {
      "midi": 72,
      "hit": false,
      "t": 96020.83333333327,
      "d": 22.916666666656965,
      "v": 53
    },
    {
      "midi": 43,
      "hit": false,
      "t": 96543.74999999993,
      "d": 89.58333333335759,
      "v": 38
    },
    {
      "midi": 65,
      "hit": false,
      "t": 96604.1666666666,
      "d": 72.91666666668607,
      "v": 46
    },
    {
      "midi": 55,
      "hit": false,
      "t": 96614.58333333327,
      "d": 27.083333333343035,
      "v": 44
    },
    {
      "midi": 71,
      "hit": false,
      "t": 96618.74999999994,
      "d": 72.91666666667152,
      "v": 59
    },
    {
      "midi": 74,
      "hit": false,
      "t": 96641.66666666661,
      "d": 64.58333333332848,
      "v": 54
    },
    {
      "midi": 79,
      "hit": false,
      "t": 96677.08333333328,
      "d": 45.83333333332848,
      "v": 59
    },
    {
      "midi": 36,
      "hit": false,
      "t": 97420.83333333328,
      "d": 339.58333333334303,
      "v": 28
    },
    {
      "midi": 48,
      "hit": false,
      "t": 97468.74999999996,
      "d": 277.0833333333285,
      "v": 42
    },
    {
      "midi": 64,
      "hit": false,
      "t": 97537.49999999996,
      "d": 200,
      "v": 36
    },
    {
      "midi": 67,
      "hit": false,
      "t": 97583.33333333328,
      "d": 156.25,
      "v": 36
    },
    {
      "midi": 72,
      "hit": false,
      "t": 97643.74999999996,
      "d": 112.5,
      "v": 55
    },
    {
      "midi": 119,
      "hit": false,
      "t": 100716.66666666663,
      "d": 500,
      "v": 1
    }
  ]
}