{
  "jsonPath": "Unknown/Unknown/Eddie Sender/endless-harmony.json",
  "path": "Unknown\\Unknown\\Eddie Sender\\Endless Harmony.mid",
  "name": "Endless Harmony",
  "difficulty": "Advanced",
  "bpm": 126.000126000126,
  "notes": [
    {
      "midi": 31,
      "hit": false,
      "t": 9523.800000000001,
      "d": 1904.7600000000002,
      "v": 100
    },
    {
      "midi": 43,
      "hit": false,
      "t": 9523.800000000001,
      "d": 1904.7600000000002,
      "v": 100
    },
    {
      "midi": 50,
      "hit": false,
      "t": 9523.800000000001,
      "d": 1904.7600000000002,
      "v": 100
    },
    {
      "midi": 55,
      "hit": false,
      "t": 9523.800000000001,
      "d": 1904.7600000000002,
      "v": 100
    },
    {
      "midi": 58,
      "hit": false,
      "t": 9523.800000000001,
      "d": 1904.7600000000002,
      "v": 100
    },
    {
      "midi": 34,
      "hit": false,
      "t": 11428.560000000001,
      "d": 1904.7600000000002,
      "v": 100
    },
    {
      "midi": 46,
      "hit": false,
      "t": 11428.560000000001,
      "d": 1904.7600000000002,
      "v": 100
    },
    {
      "midi": 50,
      "hit": false,
      "t": 11428.560000000001,
      "d": 1904.7600000000002,
      "v": 100
    },
    {
      "midi": 53,
      "hit": false,
      "t": 11428.560000000001,
      "d": 1904.7600000000002,
      "v": 100
    },
    {
      "midi": 58,
      "hit": false,
      "t": 11428.560000000001,
      "d": 1904.7600000000002,
      "v": 100
    },
    {
      "midi": 38,
      "hit": false,
      "t": 13333.320000000002,
      "d": 1904.7600000000002,
      "v": 100
    },
    {
      "midi": 50,
      "hit": false,
      "t": 13333.320000000002,
      "d": 1904.7600000000002,
      "v": 100
    },
    {
      "midi": 53,
      "hit": false,
      "t": 13333.320000000002,
      "d": 1904.7600000000002,
      "v": 100
    },
    {
      "midi": 57,
      "hit": false,
      "t": 13333.320000000002,
      "d": 1904.7600000000002,
      "v": 100
    },
    {
      "midi": 62,
      "hit": false,
      "t": 13333.320000000002,
      "d": 1904.7600000000002,
      "v": 100
    },
    {
      "midi": 36,
      "hit": false,
      "t": 15238.080000000002,
      "d": 1904.7599999999984,
      "v": 100
    },
    {
      "midi": 48,
      "hit": false,
      "t": 15238.080000000002,
      "d": 1904.7599999999984,
      "v": 100
    },
    {
      "midi": 55,
      "hit": false,
      "t": 15238.080000000002,
      "d": 1904.7599999999984,
      "v": 100
    },
    {
      "midi": 60,
      "hit": false,
      "t": 15238.080000000002,
      "d": 1904.7599999999984,
      "v": 100
    },
    {
      "midi": 64,
      "hit": false,
      "t": 15238.080000000002,
      "d": 1904.7599999999984,
      "v": 100
    },
    {
      "midi": 31,
      "hit": false,
      "t": 17142.84,
      "d": 1904.7599999999984,
      "v": 100
    },
    {
      "midi": 43,
      "hit": false,
      "t": 17142.84,
      "d": 1904.7599999999984,
      "v": 100
    },
    {
      "midi": 50,
      "hit": false,
      "t": 17142.84,
      "d": 1904.7599999999984,
      "v": 100
    },
    {
      "midi": 55,
      "hit": false,
      "t": 17142.84,
      "d": 1904.7599999999984,
      "v": 100
    },
    {
      "midi": 58,
      "hit": false,
      "t": 17142.84,
      "d": 1904.7599999999984,
      "v": 100
    },
    {
      "midi": 34,
      "hit": false,
      "t": 19047.6,
      "d": 1904.7599999999984,
      "v": 100
    },
    {
      "midi": 46,
      "hit": false,
      "t": 19047.6,
      "d": 1904.7599999999984,
      "v": 100
    },
    {
      "midi": 50,
      "hit": false,
      "t": 19047.6,
      "d": 1904.7599999999984,
      "v": 100
    },
    {
      "midi": 53,
      "hit": false,
      "t": 19047.6,
      "d": 1904.7599999999984,
      "v": 100
    },
    {
      "midi": 58,
      "hit": false,
      "t": 19047.6,
      "d": 1904.7599999999984,
      "v": 100
    },
    {
      "midi": 38,
      "hit": false,
      "t": 20952.359999999997,
      "d": 1904.7599999999984,
      "v": 100
    },
    {
      "midi": 50,
      "hit": false,
      "t": 20952.359999999997,
      "d": 1904.7599999999984,
      "v": 100
    },
    {
      "midi": 53,
      "hit": false,
      "t": 20952.359999999997,
      "d": 1904.7599999999984,
      "v": 100
    },
    {
      "midi": 57,
      "hit": false,
      "t": 20952.359999999997,
      "d": 1904.7599999999984,
      "v": 100
    },
    {
      "midi": 62,
      "hit": false,
      "t": 20952.359999999997,
      "d": 1904.7599999999984,
      "v": 100
    },
    {
      "midi": 36,
      "hit": false,
      "t": 22857.119999999995,
      "d": 1904.7599999999984,
      "v": 100
    },
    {
      "midi": 48,
      "hit": false,
      "t": 22857.119999999995,
      "d": 1904.7599999999984,
      "v": 100
    },
    {
      "midi": 55,
      "hit": false,
      "t": 22857.119999999995,
      "d": 1904.7599999999984,
      "v": 100
    },
    {
      "midi": 60,
      "hit": false,
      "t": 22857.119999999995,
      "d": 1904.7599999999984,
      "v": 100
    },
    {
      "midi": 64,
      "hit": false,
      "t": 22857.119999999995,
      "d": 1904.7599999999984,
      "v": 100
    },
    {
      "midi": 31,
      "hit": false,
      "t": 24761.879999999994,
      "d": 1904.7599999999984,
      "v": 100
    },
    {
      "midi": 43,
      "hit": false,
      "t": 24761.879999999994,
      "d": 1904.7599999999984,
      "v": 100
    },
    {
      "midi": 50,
      "hit": false,
      "t": 24761.879999999994,
      "d": 1904.7599999999984,
      "v": 100
    },
    {
      "midi": 55,
      "hit": false,
      "t": 24761.879999999994,
      "d": 1904.7599999999984,
      "v": 100
    },
    {
      "midi": 58,
      "hit": false,
      "t": 24761.879999999994,
      "d": 1904.7599999999984,
      "v": 100
    },
    {
      "midi": 34,
      "hit": false,
      "t": 26666.639999999992,
      "d": 1904.7599999999984,
      "v": 100
    },
    {
      "midi": 46,
      "hit": false,
      "t": 26666.639999999992,
      "d": 1904.7599999999984,
      "v": 100
    },
    {
      "midi": 50,
      "hit": false,
      "t": 26666.639999999992,
      "d": 1904.7599999999984,
      "v": 100
    },
    {
      "midi": 53,
      "hit": false,
      "t": 26666.639999999992,
      "d": 1904.7599999999984,
      "v": 100
    },
    {
      "midi": 58,
      "hit": false,
      "t": 26666.639999999992,
      "d": 1904.7599999999984,
      "v": 100
    },
    {
      "midi": 38,
      "hit": false,
      "t": 28571.39999999999,
      "d": 1904.7599999999984,
      "v": 100
    },
    {
      "midi": 50,
      "hit": false,
      "t": 28571.39999999999,
      "d": 1904.7599999999984,
      "v": 100
    },
    {
      "midi": 53,
      "hit": false,
      "t": 28571.39999999999,
      "d": 1904.7599999999984,
      "v": 100
    },
    {
      "midi": 57,
      "hit": false,
      "t": 28571.39999999999,
      "d": 1904.7599999999984,
      "v": 100
    },
    {
      "midi": 62,
      "hit": false,
      "t": 28571.39999999999,
      "d": 1904.7599999999984,
      "v": 100
    },
    {
      "midi": 36,
      "hit": false,
      "t": 30476.15999999999,
      "d": 1904.7599999999984,
      "v": 100
    },
    {
      "midi": 48,
      "hit": false,
      "t": 30476.15999999999,
      "d": 1904.7599999999984,
      "v": 100
    },
    {
      "midi": 55,
      "hit": false,
      "t": 30476.15999999999,
      "d": 1904.7599999999984,
      "v": 100
    },
    {
      "midi": 60,
      "hit": false,
      "t": 30476.15999999999,
      "d": 1904.7599999999984,
      "v": 100
    },
    {
      "midi": 64,
      "hit": false,
      "t": 30476.15999999999,
      "d": 1904.7599999999984,
      "v": 100
    },
    {
      "midi": 31,
      "hit": false,
      "t": 32380.919999999987,
      "d": 1904.7599999999984,
      "v": 100
    },
    {
      "midi": 43,
      "hit": false,
      "t": 32380.919999999987,
      "d": 1904.7599999999984,
      "v": 100
    },
    {
      "midi": 50,
      "hit": false,
      "t": 32380.919999999987,
      "d": 1904.7599999999984,
      "v": 100
    },
    {
      "midi": 55,
      "hit": false,
      "t": 32380.919999999987,
      "d": 1904.7599999999984,
      "v": 100
    },
    {
      "midi": 58,
      "hit": false,
      "t": 32380.919999999987,
      "d": 1904.7599999999984,
      "v": 100
    },
    {
      "midi": 34,
      "hit": false,
      "t": 34285.679999999986,
      "d": 1904.760000000002,
      "v": 100
    },
    {
      "midi": 46,
      "hit": false,
      "t": 34285.679999999986,
      "d": 1904.760000000002,
      "v": 100
    },
    {
      "midi": 50,
      "hit": false,
      "t": 34285.679999999986,
      "d": 1904.760000000002,
      "v": 100
    },
    {
      "midi": 53,
      "hit": false,
      "t": 34285.679999999986,
      "d": 1904.760000000002,
      "v": 100
    },
    {
      "midi": 58,
      "hit": false,
      "t": 34285.679999999986,
      "d": 1904.760000000002,
      "v": 100
    },
    {
      "midi": 38,
      "hit": false,
      "t": 36190.43999999999,
      "d": 1904.760000000002,
      "v": 100
    },
    {
      "midi": 50,
      "hit": false,
      "t": 36190.43999999999,
      "d": 1904.760000000002,
      "v": 100
    },
    {
      "midi": 53,
      "hit": false,
      "t": 36190.43999999999,
      "d": 1904.760000000002,
      "v": 100
    },
    {
      "midi": 57,
      "hit": false,
      "t": 36190.43999999999,
      "d": 1904.760000000002,
      "v": 100
    },
    {
      "midi": 62,
      "hit": false,
      "t": 36190.43999999999,
      "d": 1904.760000000002,
      "v": 100
    },
    {
      "midi": 36,
      "hit": false,
      "t": 38095.19999999999,
      "d": 7619.040000000001,
      "v": 100
    },
    {
      "midi": 48,
      "hit": false,
      "t": 38095.19999999999,
      "d": 7619.040000000001,
      "v": 100
    },
    {
      "midi": 55,
      "hit": false,
      "t": 38095.19999999999,
      "d": 7619.040000000001,
      "v": 100
    },
    {
      "midi": 60,
      "hit": false,
      "t": 38095.19999999999,
      "d": 7619.040000000001,
      "v": 100
    },
    {
      "midi": 64,
      "hit": false,
      "t": 38095.19999999999,
      "d": 7619.040000000001,
      "v": 100
    },
    {
      "midi": 43,
      "hit": false,
      "t": 45714.23999999999,
      "d": 714.2850000000035,
      "v": 100
    },
    {
      "midi": 50,
      "hit": false,
      "t": 46190.42999999999,
      "d": 357.14250000000175,
      "v": 100
    },
    {
      "midi": 55,
      "hit": false,
      "t": 46190.42999999999,
      "d": 357.14250000000175,
      "v": 100
    },
    {
      "midi": 58,
      "hit": false,
      "t": 46190.42999999999,
      "d": 357.14250000000175,
      "v": 100
    },
    {
      "midi": 43,
      "hit": false,
      "t": 46428.524999999994,
      "d": 357.14250000000175,
      "v": 100
    },
    {
      "midi": 50,
      "hit": false,
      "t": 46547.572499999995,
      "d": 357.14250000000175,
      "v": 100
    },
    {
      "midi": 55,
      "hit": false,
      "t": 46547.572499999995,
      "d": 357.14250000000175,
      "v": 100
    },
    {
      "midi": 58,
      "hit": false,
      "t": 46547.572499999995,
      "d": 357.14250000000175,
      "v": 100
    },
    {
      "midi": 43,
      "hit": false,
      "t": 46785.667499999996,
      "d": 357.14250000000175,
      "v": 100
    },
    {
      "midi": 50,
      "hit": false,
      "t": 46904.715,
      "d": 238.09500000000116,
      "v": 100
    },
    {
      "midi": 55,
      "hit": false,
      "t": 46904.715,
      "d": 238.09500000000116,
      "v": 100
    },
    {
      "midi": 58,
      "hit": false,
      "t": 46904.715,
      "d": 238.09500000000116,
      "v": 100
    },
    {
      "midi": 45,
      "hit": false,
      "t": 47142.81,
      "d": 476.1900000000023,
      "v": 100
    },
    {
      "midi": 50,
      "hit": false,
      "t": 47142.81,
      "d": 476.1900000000023,
      "v": 100
    },
    {
      "midi": 55,
      "hit": false,
      "t": 47142.81,
      "d": 476.1900000000023,
      "v": 100
    },
    {
      "midi": 58,
      "hit": false,
      "t": 47142.81,
      "d": 476.1900000000023,
      "v": 100
    },
    {
      "midi": 46,
      "hit": false,
      "t": 47619,
      "d": 714.2850000000035,
      "v": 100
    },
    {
      "midi": 50,
      "hit": false,
      "t": 48095.19,
      "d": 357.14250000000175,
      "v": 100
    },
    {
      "midi": 53,
      "hit": false,
      "t": 48095.19,
      "d": 357.14250000000175,
      "v": 100
    },
    {
      "midi": 58,
      "hit": false,
      "t": 48095.19,
      "d": 357.14250000000175,
      "v": 100
    },
    {
      "midi": 46,
      "hit": false,
      "t": 48333.285,
      "d": 357.14250000000175,
      "v": 100
    },
    {
      "midi": 50,
      "hit": false,
      "t": 48452.332500000004,
      "d": 357.14250000000175,
      "v": 100
    },
    {
      "midi": 53,
      "hit": false,
      "t": 48452.332500000004,
      "d": 357.14250000000175,
      "v": 100
    },
    {
      "midi": 58,
      "hit": false,
      "t": 48452.332500000004,
      "d": 357.14250000000175,
      "v": 100
    },
    {
      "midi": 46,
      "hit": false,
      "t": 48690.427500000005,
      "d": 357.14250000000175,
      "v": 100
    },
    {
      "midi": 50,
      "hit": false,
      "t": 48809.475000000006,
      "d": 238.09500000000116,
      "v": 100
    },
    {
      "midi": 53,
      "hit": false,
      "t": 48809.475000000006,
      "d": 238.09500000000116,
      "v": 100
    },
    {
      "midi": 58,
      "hit": false,
      "t": 48809.475000000006,
      "d": 238.09500000000116,
      "v": 100
    },
    {
      "midi": 50,
      "hit": false,
      "t": 49047.57000000001,
      "d": 238.09500000000116,
      "v": 100
    },
    {
      "midi": 53,
      "hit": false,
      "t": 49047.57000000001,
      "d": 238.09500000000116,
      "v": 100
    },
    {
      "midi": 58,
      "hit": false,
      "t": 49047.57000000001,
      "d": 238.09500000000116,
      "v": 100
    },
    {
      "midi": 48,
      "hit": false,
      "t": 49047.57000000001,
      "d": 476.1900000000023,
      "v": 100
    },
    {
      "midi": 50,
      "hit": false,
      "t": 49285.66500000001,
      "d": 238.09500000000116,
      "v": 100
    },
    {
      "midi": 53,
      "hit": false,
      "t": 49285.66500000001,
      "d": 238.09500000000116,
      "v": 100
    },
    {
      "midi": 58,
      "hit": false,
      "t": 49285.66500000001,
      "d": 238.09500000000116,
      "v": 100
    },
    {
      "midi": 50,
      "hit": false,
      "t": 49523.76000000001,
      "d": 714.2850000000035,
      "v": 100
    },
    {
      "midi": 53,
      "hit": false,
      "t": 49999.95000000001,
      "d": 357.14250000000175,
      "v": 100
    },
    {
      "midi": 57,
      "hit": false,
      "t": 49999.95000000001,
      "d": 357.14250000000175,
      "v": 100
    },
    {
      "midi": 62,
      "hit": false,
      "t": 49999.95000000001,
      "d": 357.14250000000175,
      "v": 100
    },
    {
      "midi": 50,
      "hit": false,
      "t": 50238.04500000001,
      "d": 357.14250000000175,
      "v": 100
    },
    {
      "midi": 53,
      "hit": false,
      "t": 50357.09250000001,
      "d": 357.14250000000175,
      "v": 100
    },
    {
      "midi": 57,
      "hit": false,
      "t": 50357.09250000001,
      "d": 357.14250000000175,
      "v": 100
    },
    {
      "midi": 62,
      "hit": false,
      "t": 50357.09250000001,
      "d": 357.14250000000175,
      "v": 100
    },
    {
      "midi": 50,
      "hit": false,
      "t": 50595.187500000015,
      "d": 357.14250000000175,
      "v": 100
    },
    {
      "midi": 53,
      "hit": false,
      "t": 50714.235000000015,
      "d": 238.09500000000116,
      "v": 100
    },
    {
      "midi": 57,
      "hit": false,
      "t": 50714.235000000015,
      "d": 238.09500000000116,
      "v": 100
    },
    {
      "midi": 62,
      "hit": false,
      "t": 50714.235000000015,
      "d": 238.09500000000116,
      "v": 100
    },
    {
      "midi": 53,
      "hit": false,
      "t": 50952.330000000016,
      "d": 238.09500000000116,
      "v": 100
    },
    {
      "midi": 57,
      "hit": false,
      "t": 50952.330000000016,
      "d": 238.09500000000116,
      "v": 100
    },
    {
      "midi": 62,
      "hit": false,
      "t": 50952.330000000016,
      "d": 238.09500000000116,
      "v": 100
    },
    {
      "midi": 50,
      "hit": false,
      "t": 50952.330000000016,
      "d": 476.1900000000023,
      "v": 100
    },
    {
      "midi": 53,
      "hit": false,
      "t": 51190.42500000002,
      "d": 238.09500000000116,
      "v": 100
    },
    {
      "midi": 57,
      "hit": false,
      "t": 51190.42500000002,
      "d": 238.09500000000116,
      "v": 100
    },
    {
      "midi": 62,
      "hit": false,
      "t": 51190.42500000002,
      "d": 238.09500000000116,
      "v": 100
    },
    {
      "midi": 48,
      "hit": false,
      "t": 51428.52000000002,
      "d": 714.2850000000035,
      "v": 100
    },
    {
      "midi": 55,
      "hit": false,
      "t": 51904.71000000002,
      "d": 357.14250000000175,
      "v": 100
    },
    {
      "midi": 60,
      "hit": false,
      "t": 51904.71000000002,
      "d": 357.14250000000175,
      "v": 100
    },
    {
      "midi": 64,
      "hit": false,
      "t": 51904.71000000002,
      "d": 357.14250000000175,
      "v": 100
    },
    {
      "midi": 48,
      "hit": false,
      "t": 52142.80500000002,
      "d": 357.14250000000175,
      "v": 100
    },
    {
      "midi": 55,
      "hit": false,
      "t": 52261.85250000002,
      "d": 357.14250000000175,
      "v": 100
    },
    {
      "midi": 60,
      "hit": false,
      "t": 52261.85250000002,
      "d": 357.14250000000175,
      "v": 100
    },
    {
      "midi": 64,
      "hit": false,
      "t": 52261.85250000002,
      "d": 357.14250000000175,
      "v": 100
    },
    {
      "midi": 48,
      "hit": false,
      "t": 52499.947500000024,
      "d": 357.14250000000175,
      "v": 100
    },
    {
      "midi": 55,
      "hit": false,
      "t": 52618.995000000024,
      "d": 238.09500000000116,
      "v": 100
    },
    {
      "midi": 60,
      "hit": false,
      "t": 52618.995000000024,
      "d": 238.09500000000116,
      "v": 100
    },
    {
      "midi": 64,
      "hit": false,
      "t": 52618.995000000024,
      "d": 238.09500000000116,
      "v": 100
    },
    {
      "midi": 48,
      "hit": false,
      "t": 52857.090000000026,
      "d": 238.09500000000116,
      "v": 100
    },
    {
      "midi": 55,
      "hit": false,
      "t": 52857.090000000026,
      "d": 238.09500000000116,
      "v": 100
    },
    {
      "midi": 60,
      "hit": false,
      "t": 52857.090000000026,
      "d": 238.09500000000116,
      "v": 100
    },
    {
      "midi": 64,
      "hit": false,
      "t": 52857.090000000026,
      "d": 238.09500000000116,
      "v": 100
    },
    {
      "midi": 45,
      "hit": false,
      "t": 53095.18500000003,
      "d": 238.09500000000116,
      "v": 100
    },
    {
      "midi": 55,
      "hit": false,
      "t": 53095.18500000003,
      "d": 238.09500000000116,
      "v": 100
    },
    {
      "midi": 60,
      "hit": false,
      "t": 53095.18500000003,
      "d": 238.09500000000116,
      "v": 100
    },
    {
      "midi": 64,
      "hit": false,
      "t": 53095.18500000003,
      "d": 238.09500000000116,
      "v": 100
    },
    {
      "midi": 43,
      "hit": false,
      "t": 53333.28000000003,
      "d": 714.2850000000035,
      "v": 100
    },
    {
      "midi": 50,
      "hit": false,
      "t": 53809.47000000003,
      "d": 357.14250000000175,
      "v": 100
    },
    {
      "midi": 55,
      "hit": false,
      "t": 53809.47000000003,
      "d": 357.14250000000175,
      "v": 100
    },
    {
      "midi": 58,
      "hit": false,
      "t": 53809.47000000003,
      "d": 357.14250000000175,
      "v": 100
    },
    {
      "midi": 43,
      "hit": false,
      "t": 54047.56500000003,
      "d": 357.14250000000175,
      "v": 100
    },
    {
      "midi": 50,
      "hit": false,
      "t": 54166.61250000003,
      "d": 357.14250000000175,
      "v": 100
    },
    {
      "midi": 55,
      "hit": false,
      "t": 54166.61250000003,
      "d": 357.14250000000175,
      "v": 100
    },
    {
      "midi": 58,
      "hit": false,
      "t": 54166.61250000003,
      "d": 357.14250000000175,
      "v": 100
    },
    {
      "midi": 43,
      "hit": false,
      "t": 54404.70750000003,
      "d": 357.14250000000175,
      "v": 100
    },
    {
      "midi": 50,
      "hit": false,
      "t": 54523.755000000034,
      "d": 238.09500000000116,
      "v": 100
    },
    {
      "midi": 55,
      "hit": false,
      "t": 54523.755000000034,
      "d": 238.09500000000116,
      "v": 100
    },
    {
      "midi": 58,
      "hit": false,
      "t": 54523.755000000034,
      "d": 238.09500000000116,
      "v": 100
    },
    {
      "midi": 45,
      "hit": false,
      "t": 54761.850000000035,
      "d": 476.1900000000023,
      "v": 100
    },
    {
      "midi": 50,
      "hit": false,
      "t": 54761.850000000035,
      "d": 476.1900000000023,
      "v": 100
    },
    {
      "midi": 55,
      "hit": false,
      "t": 54761.850000000035,
      "d": 476.1900000000023,
      "v": 100
    },
    {
      "midi": 58,
      "hit": false,
      "t": 54761.850000000035,
      "d": 476.1900000000023,
      "v": 100
    },
    {
      "midi": 46,
      "hit": false,
      "t": 55238.04000000004,
      "d": 714.2850000000035,
      "v": 100
    },
    {
      "midi": 50,
      "hit": false,
      "t": 55714.23000000004,
      "d": 357.14250000000175,
      "v": 100
    },
    {
      "midi": 53,
      "hit": false,
      "t": 55714.23000000004,
      "d": 357.14250000000175,
      "v": 100
    },
    {
      "midi": 58,
      "hit": false,
      "t": 55714.23000000004,
      "d": 357.14250000000175,
      "v": 100
    },
    {
      "midi": 46,
      "hit": false,
      "t": 55952.32500000004,
      "d": 357.14250000000175,
      "v": 100
    },
    {
      "midi": 50,
      "hit": false,
      "t": 56071.37250000004,
      "d": 357.14250000000175,
      "v": 100
    },
    {
      "midi": 53,
      "hit": false,
      "t": 56071.37250000004,
      "d": 357.14250000000175,
      "v": 100
    },
    {
      "midi": 58,
      "hit": false,
      "t": 56071.37250000004,
      "d": 357.14250000000175,
      "v": 100
    },
    {
      "midi": 46,
      "hit": false,
      "t": 56309.46750000004,
      "d": 357.14250000000175,
      "v": 100
    },
    {
      "midi": 50,
      "hit": false,
      "t": 56428.51500000004,
      "d": 238.09500000000116,
      "v": 100
    },
    {
      "midi": 53,
      "hit": false,
      "t": 56428.51500000004,
      "d": 238.09500000000116,
      "v": 100
    },
    {
      "midi": 58,
      "hit": false,
      "t": 56428.51500000004,
      "d": 238.09500000000116,
      "v": 100
    },
    {
      "midi": 50,
      "hit": false,
      "t": 56666.610000000044,
      "d": 238.09500000000116,
      "v": 100
    },
    {
      "midi": 53,
      "hit": false,
      "t": 56666.610000000044,
      "d": 238.09500000000116,
      "v": 100
    },
    {
      "midi": 58,
      "hit": false,
      "t": 56666.610000000044,
      "d": 238.09500000000116,
      "v": 100
    },
    {
      "midi": 48,
      "hit": false,
      "t": 56666.610000000044,
      "d": 476.1900000000023,
      "v": 100
    },
    {
      "midi": 50,
      "hit": false,
      "t": 56904.705000000045,
      "d": 238.09500000000116,
      "v": 100
    },
    {
      "midi": 53,
      "hit": false,
      "t": 56904.705000000045,
      "d": 238.09500000000116,
      "v": 100
    },
    {
      "midi": 58,
      "hit": false,
      "t": 56904.705000000045,
      "d": 238.09500000000116,
      "v": 100
    },
    {
      "midi": 50,
      "hit": false,
      "t": 57142.80000000005,
      "d": 714.2850000000035,
      "v": 100
    },
    {
      "midi": 53,
      "hit": false,
      "t": 57618.99000000005,
      "d": 357.14250000000175,
      "v": 100
    },
    {
      "midi": 57,
      "hit": false,
      "t": 57618.99000000005,
      "d": 357.14250000000175,
      "v": 100
    },
    {
      "midi": 62,
      "hit": false,
      "t": 57618.99000000005,
      "d": 357.14250000000175,
      "v": 100
    },
    {
      "midi": 50,
      "hit": false,
      "t": 57857.08500000005,
      "d": 357.14250000000175,
      "v": 100
    },
    {
      "midi": 53,
      "hit": false,
      "t": 57976.13250000005,
      "d": 357.14250000000175,
      "v": 100
    },
    {
      "midi": 57,
      "hit": false,
      "t": 57976.13250000005,
      "d": 357.14250000000175,
      "v": 100
    },
    {
      "midi": 62,
      "hit": false,
      "t": 57976.13250000005,
      "d": 357.14250000000175,
      "v": 100
    },
    {
      "midi": 50,
      "hit": false,
      "t": 58214.22750000005,
      "d": 357.14250000000175,
      "v": 100
    },
    {
      "midi": 53,
      "hit": false,
      "t": 58333.27500000005,
      "d": 238.09500000000116,
      "v": 100
    },
    {
      "midi": 57,
      "hit": false,
      "t": 58333.27500000005,
      "d": 238.09500000000116,
      "v": 100
    },
    {
      "midi": 62,
      "hit": false,
      "t": 58333.27500000005,
      "d": 238.09500000000116,
      "v": 100
    },
    {
      "midi": 53,
      "hit": false,
      "t": 58571.37000000005,
      "d": 238.09500000000116,
      "v": 100
    },
    {
      "midi": 57,
      "hit": false,
      "t": 58571.37000000005,
      "d": 238.09500000000116,
      "v": 100
    },
    {
      "midi": 62,
      "hit": false,
      "t": 58571.37000000005,
      "d": 238.09500000000116,
      "v": 100
    },
    {
      "midi": 50,
      "hit": false,
      "t": 58571.37000000005,
      "d": 476.1900000000023,
      "v": 100
    },
    {
      "midi": 53,
      "hit": false,
      "t": 58809.465000000055,
      "d": 238.09500000000116,
      "v": 100
    },
    {
      "midi": 57,
      "hit": false,
      "t": 58809.465000000055,
      "d": 238.09500000000116,
      "v": 100
    },
    {
      "midi": 62,
      "hit": false,
      "t": 58809.465000000055,
      "d": 238.09500000000116,
      "v": 100
    },
    {
      "midi": 48,
      "hit": false,
      "t": 59047.560000000056,
      "d": 714.2850000000035,
      "v": 100
    },
    {
      "midi": 55,
      "hit": false,
      "t": 59523.75000000006,
      "d": 357.14250000000175,
      "v": 100
    },
    {
      "midi": 60,
      "hit": false,
      "t": 59523.75000000006,
      "d": 357.14250000000175,
      "v": 100
    },
    {
      "midi": 64,
      "hit": false,
      "t": 59523.75000000006,
      "d": 357.14250000000175,
      "v": 100
    },
    {
      "midi": 48,
      "hit": false,
      "t": 59761.84500000006,
      "d": 357.14250000000175,
      "v": 100
    },
    {
      "midi": 55,
      "hit": false,
      "t": 59880.89250000006,
      "d": 357.14250000000175,
      "v": 100
    },
    {
      "midi": 60,
      "hit": false,
      "t": 59880.89250000006,
      "d": 357.14250000000175,
      "v": 100
    },
    {
      "midi": 64,
      "hit": false,
      "t": 59880.89250000006,
      "d": 357.14250000000175,
      "v": 100
    },
    {
      "midi": 48,
      "hit": false,
      "t": 60118.98750000006,
      "d": 357.14250000000175,
      "v": 100
    },
    {
      "midi": 55,
      "hit": false,
      "t": 60238.03500000006,
      "d": 238.09500000000116,
      "v": 100
    },
    {
      "midi": 60,
      "hit": false,
      "t": 60238.03500000006,
      "d": 238.09500000000116,
      "v": 100
    },
    {
      "midi": 64,
      "hit": false,
      "t": 60238.03500000006,
      "d": 238.09500000000116,
      "v": 100
    },
    {
      "midi": 48,
      "hit": false,
      "t": 60476.13000000006,
      "d": 238.09500000000116,
      "v": 100
    },
    {
      "midi": 55,
      "hit": false,
      "t": 60476.13000000006,
      "d": 238.09500000000116,
      "v": 100
    },
    {
      "midi": 60,
      "hit": false,
      "t": 60476.13000000006,
      "d": 238.09500000000116,
      "v": 100
    },
    {
      "midi": 64,
      "hit": false,
      "t": 60476.13000000006,
      "d": 238.09500000000116,
      "v": 100
    },
    {
      "midi": 45,
      "hit": false,
      "t": 60714.225000000064,
      "d": 238.09500000000116,
      "v": 100
    },
    {
      "midi": 55,
      "hit": false,
      "t": 60714.225000000064,
      "d": 238.09500000000116,
      "v": 100
    },
    {
      "midi": 60,
      "hit": false,
      "t": 60714.225000000064,
      "d": 238.09500000000116,
      "v": 100
    },
    {
      "midi": 64,
      "hit": false,
      "t": 60714.225000000064,
      "d": 238.09500000000116,
      "v": 100
    },
    {
      "midi": 43,
      "hit": false,
      "t": 60952.320000000065,
      "d": 714.2850000000035,
      "v": 100
    },
    {
      "midi": 50,
      "hit": false,
      "t": 61428.51000000007,
      "d": 357.14250000000175,
      "v": 100
    },
    {
      "midi": 55,
      "hit": false,
      "t": 61428.51000000007,
      "d": 357.14250000000175,
      "v": 100
    },
    {
      "midi": 58,
      "hit": false,
      "t": 61428.51000000007,
      "d": 357.14250000000175,
      "v": 100
    },
    {
      "midi": 43,
      "hit": false,
      "t": 61666.60500000007,
      "d": 357.14250000000175,
      "v": 100
    },
    {
      "midi": 50,
      "hit": false,
      "t": 61785.65250000007,
      "d": 357.14250000000175,
      "v": 100
    },
    {
      "midi": 55,
      "hit": false,
      "t": 61785.65250000007,
      "d": 357.14250000000175,
      "v": 100
    },
    {
      "midi": 58,
      "hit": false,
      "t": 61785.65250000007,
      "d": 357.14250000000175,
      "v": 100
    },
    {
      "midi": 43,
      "hit": false,
      "t": 62023.74750000007,
      "d": 357.14250000000175,
      "v": 100
    },
    {
      "midi": 50,
      "hit": false,
      "t": 62142.79500000007,
      "d": 238.09500000000116,
      "v": 100
    },
    {
      "midi": 55,
      "hit": false,
      "t": 62142.79500000007,
      "d": 238.09500000000116,
      "v": 100
    },
    {
      "midi": 58,
      "hit": false,
      "t": 62142.79500000007,
      "d": 238.09500000000116,
      "v": 100
    },
    {
      "midi": 45,
      "hit": false,
      "t": 62380.89000000007,
      "d": 476.1900000000023,
      "v": 100
    },
    {
      "midi": 50,
      "hit": false,
      "t": 62380.89000000007,
      "d": 476.1900000000023,
      "v": 100
    },
    {
      "midi": 55,
      "hit": false,
      "t": 62380.89000000007,
      "d": 476.1900000000023,
      "v": 100
    },
    {
      "midi": 58,
      "hit": false,
      "t": 62380.89000000007,
      "d": 476.1900000000023,
      "v": 100
    },
    {
      "midi": 46,
      "hit": false,
      "t": 62857.080000000075,
      "d": 714.2850000000035,
      "v": 100
    },
    {
      "midi": 50,
      "hit": false,
      "t": 63333.27000000008,
      "d": 357.14250000000175,
      "v": 100
    },
    {
      "midi": 53,
      "hit": false,
      "t": 63333.27000000008,
      "d": 357.14250000000175,
      "v": 100
    },
    {
      "midi": 58,
      "hit": false,
      "t": 63333.27000000008,
      "d": 357.14250000000175,
      "v": 100
    },
    {
      "midi": 46,
      "hit": false,
      "t": 63571.36500000008,
      "d": 357.14250000000175,
      "v": 100
    },
    {
      "midi": 50,
      "hit": false,
      "t": 63690.41250000008,
      "d": 357.14250000000175,
      "v": 100
    },
    {
      "midi": 53,
      "hit": false,
      "t": 63690.41250000008,
      "d": 357.14250000000175,
      "v": 100
    },
    {
      "midi": 58,
      "hit": false,
      "t": 63690.41250000008,
      "d": 357.14250000000175,
      "v": 100
    },
    {
      "midi": 46,
      "hit": false,
      "t": 63928.50750000008,
      "d": 357.14250000000175,
      "v": 100
    },
    {
      "midi": 50,
      "hit": false,
      "t": 64047.55500000008,
      "d": 238.09500000000116,
      "v": 100
    },
    {
      "midi": 53,
      "hit": false,
      "t": 64047.55500000008,
      "d": 238.09500000000116,
      "v": 100
    },
    {
      "midi": 58,
      "hit": false,
      "t": 64047.55500000008,
      "d": 238.09500000000116,
      "v": 100
    },
    {
      "midi": 50,
      "hit": false,
      "t": 64285.65000000008,
      "d": 238.09500000000116,
      "v": 100
    },
    {
      "midi": 53,
      "hit": false,
      "t": 64285.65000000008,
      "d": 238.09500000000116,
      "v": 100
    },
    {
      "midi": 58,
      "hit": false,
      "t": 64285.65000000008,
      "d": 238.09500000000116,
      "v": 100
    },
    {
      "midi": 48,
      "hit": false,
      "t": 64285.65000000008,
      "d": 476.1900000000023,
      "v": 100
    },
    {
      "midi": 50,
      "hit": false,
      "t": 64523.74500000008,
      "d": 238.09500000000116,
      "v": 100
    },
    {
      "midi": 53,
      "hit": false,
      "t": 64523.74500000008,
      "d": 238.09500000000116,
      "v": 100
    },
    {
      "midi": 58,
      "hit": false,
      "t": 64523.74500000008,
      "d": 238.09500000000116,
      "v": 100
    },
    {
      "midi": 50,
      "hit": false,
      "t": 64761.840000000084,
      "d": 714.2850000000035,
      "v": 100
    },
    {
      "midi": 53,
      "hit": false,
      "t": 65238.030000000086,
      "d": 357.14250000000175,
      "v": 100
    },
    {
      "midi": 57,
      "hit": false,
      "t": 65238.030000000086,
      "d": 357.14250000000175,
      "v": 100
    },
    {
      "midi": 62,
      "hit": false,
      "t": 65238.030000000086,
      "d": 357.14250000000175,
      "v": 100
    },
    {
      "midi": 50,
      "hit": false,
      "t": 65476.12500000009,
      "d": 357.14250000000175,
      "v": 100
    },
    {
      "midi": 53,
      "hit": false,
      "t": 65595.17250000009,
      "d": 357.14250000000175,
      "v": 100
    },
    {
      "midi": 57,
      "hit": false,
      "t": 65595.17250000009,
      "d": 357.14250000000175,
      "v": 100
    },
    {
      "midi": 62,
      "hit": false,
      "t": 65595.17250000009,
      "d": 357.14250000000175,
      "v": 100
    },
    {
      "midi": 50,
      "hit": false,
      "t": 65833.26750000009,
      "d": 357.14250000000175,
      "v": 100
    },
    {
      "midi": 53,
      "hit": false,
      "t": 65952.31500000009,
      "d": 238.09500000000116,
      "v": 100
    },
    {
      "midi": 57,
      "hit": false,
      "t": 65952.31500000009,
      "d": 238.09500000000116,
      "v": 100
    },
    {
      "midi": 62,
      "hit": false,
      "t": 65952.31500000009,
      "d": 238.09500000000116,
      "v": 100
    },
    {
      "midi": 53,
      "hit": false,
      "t": 66190.41000000009,
      "d": 238.09500000000116,
      "v": 100
    },
    {
      "midi": 57,
      "hit": false,
      "t": 66190.41000000009,
      "d": 238.09500000000116,
      "v": 100
    },
    {
      "midi": 62,
      "hit": false,
      "t": 66190.41000000009,
      "d": 238.09500000000116,
      "v": 100
    },
    {
      "midi": 50,
      "hit": false,
      "t": 66190.41000000009,
      "d": 476.1900000000023,
      "v": 100
    },
    {
      "midi": 53,
      "hit": false,
      "t": 66428.50500000009,
      "d": 238.09500000000116,
      "v": 100
    },
    {
      "midi": 57,
      "hit": false,
      "t": 66428.50500000009,
      "d": 238.09500000000116,
      "v": 100
    },
    {
      "midi": 62,
      "hit": false,
      "t": 66428.50500000009,
      "d": 238.09500000000116,
      "v": 100
    },
    {
      "midi": 48,
      "hit": false,
      "t": 66666.6000000001,
      "d": 714.2850000000035,
      "v": 100
    },
    {
      "midi": 55,
      "hit": false,
      "t": 67142.7900000001,
      "d": 357.14250000000175,
      "v": 100
    },
    {
      "midi": 60,
      "hit": false,
      "t": 67142.7900000001,
      "d": 357.14250000000175,
      "v": 100
    },
    {
      "midi": 64,
      "hit": false,
      "t": 67142.7900000001,
      "d": 357.14250000000175,
      "v": 100
    },
    {
      "midi": 48,
      "hit": false,
      "t": 67380.8850000001,
      "d": 357.14250000000175,
      "v": 100
    },
    {
      "midi": 55,
      "hit": false,
      "t": 67499.9325000001,
      "d": 357.14250000000175,
      "v": 100
    },
    {
      "midi": 60,
      "hit": false,
      "t": 67499.9325000001,
      "d": 357.14250000000175,
      "v": 100
    },
    {
      "midi": 64,
      "hit": false,
      "t": 67499.9325000001,
      "d": 357.14250000000175,
      "v": 100
    },
    {
      "midi": 48,
      "hit": false,
      "t": 67738.0275000001,
      "d": 357.14250000000175,
      "v": 100
    },
    {
      "midi": 55,
      "hit": false,
      "t": 67857.0750000001,
      "d": 238.09500000000116,
      "v": 100
    },
    {
      "midi": 60,
      "hit": false,
      "t": 67857.0750000001,
      "d": 238.09500000000116,
      "v": 100
    },
    {
      "midi": 64,
      "hit": false,
      "t": 67857.0750000001,
      "d": 238.09500000000116,
      "v": 100
    },
    {
      "midi": 48,
      "hit": false,
      "t": 68095.1700000001,
      "d": 238.09500000000116,
      "v": 100
    },
    {
      "midi": 55,
      "hit": false,
      "t": 68095.1700000001,
      "d": 238.09500000000116,
      "v": 100
    },
    {
      "midi": 60,
      "hit": false,
      "t": 68095.1700000001,
      "d": 238.09500000000116,
      "v": 100
    },
    {
      "midi": 64,
      "hit": false,
      "t": 68095.1700000001,
      "d": 238.09500000000116,
      "v": 100
    },
    {
      "midi": 45,
      "hit": false,
      "t": 68333.2650000001,
      "d": 238.09500000000116,
      "v": 100
    },
    {
      "midi": 55,
      "hit": false,
      "t": 68333.2650000001,
      "d": 238.09500000000116,
      "v": 100
    },
    {
      "midi": 60,
      "hit": false,
      "t": 68333.2650000001,
      "d": 238.09500000000116,
      "v": 100
    },
    {
      "midi": 64,
      "hit": false,
      "t": 68333.2650000001,
      "d": 238.09500000000116,
      "v": 100
    },
    {
      "midi": 43,
      "hit": false,
      "t": 68571.3600000001,
      "d": 714.2850000000035,
      "v": 100
    },
    {
      "midi": 50,
      "hit": false,
      "t": 69047.5500000001,
      "d": 357.14250000000175,
      "v": 100
    },
    {
      "midi": 55,
      "hit": false,
      "t": 69047.5500000001,
      "d": 357.14250000000175,
      "v": 100
    },
    {
      "midi": 58,
      "hit": false,
      "t": 69047.5500000001,
      "d": 357.14250000000175,
      "v": 100
    },
    {
      "midi": 43,
      "hit": false,
      "t": 69285.6450000001,
      "d": 357.14250000000175,
      "v": 100
    },
    {
      "midi": 50,
      "hit": false,
      "t": 69404.6925000001,
      "d": 357.14250000000175,
      "v": 100
    },
    {
      "midi": 55,
      "hit": false,
      "t": 69404.6925000001,
      "d": 357.14250000000175,
      "v": 100
    },
    {
      "midi": 58,
      "hit": false,
      "t": 69404.6925000001,
      "d": 357.14250000000175,
      "v": 100
    },
    {
      "midi": 43,
      "hit": false,
      "t": 69642.78750000011,
      "d": 357.14250000000175,
      "v": 100
    },
    {
      "midi": 50,
      "hit": false,
      "t": 69761.83500000011,
      "d": 238.09500000000116,
      "v": 100
    },
    {
      "midi": 55,
      "hit": false,
      "t": 69761.83500000011,
      "d": 238.09500000000116,
      "v": 100
    },
    {
      "midi": 58,
      "hit": false,
      "t": 69761.83500000011,
      "d": 238.09500000000116,
      "v": 100
    },
    {
      "midi": 45,
      "hit": false,
      "t": 69999.93000000011,
      "d": 476.1900000000023,
      "v": 100
    },
    {
      "midi": 50,
      "hit": false,
      "t": 69999.93000000011,
      "d": 476.1900000000023,
      "v": 100
    },
    {
      "midi": 55,
      "hit": false,
      "t": 69999.93000000011,
      "d": 476.1900000000023,
      "v": 100
    },
    {
      "midi": 58,
      "hit": false,
      "t": 69999.93000000011,
      "d": 476.1900000000023,
      "v": 100
    },
    {
      "midi": 46,
      "hit": false,
      "t": 70476.12000000011,
      "d": 714.2850000000035,
      "v": 100
    },
    {
      "midi": 50,
      "hit": false,
      "t": 70952.31000000011,
      "d": 357.14250000000175,
      "v": 100
    },
    {
      "midi": 53,
      "hit": false,
      "t": 70952.31000000011,
      "d": 357.14250000000175,
      "v": 100
    },
    {
      "midi": 58,
      "hit": false,
      "t": 70952.31000000011,
      "d": 357.14250000000175,
      "v": 100
    },
    {
      "midi": 46,
      "hit": false,
      "t": 71190.40500000012,
      "d": 357.14250000000175,
      "v": 100
    },
    {
      "midi": 50,
      "hit": false,
      "t": 71309.45250000012,
      "d": 357.14250000000175,
      "v": 100
    },
    {
      "midi": 53,
      "hit": false,
      "t": 71309.45250000012,
      "d": 357.14250000000175,
      "v": 100
    },
    {
      "midi": 58,
      "hit": false,
      "t": 71309.45250000012,
      "d": 357.14250000000175,
      "v": 100
    },
    {
      "midi": 46,
      "hit": false,
      "t": 71547.54750000012,
      "d": 357.14250000000175,
      "v": 100
    },
    {
      "midi": 50,
      "hit": false,
      "t": 71666.59500000012,
      "d": 238.09500000000116,
      "v": 100
    },
    {
      "midi": 53,
      "hit": false,
      "t": 71666.59500000012,
      "d": 238.09500000000116,
      "v": 100
    },
    {
      "midi": 58,
      "hit": false,
      "t": 71666.59500000012,
      "d": 238.09500000000116,
      "v": 100
    },
    {
      "midi": 50,
      "hit": false,
      "t": 71904.69000000012,
      "d": 238.09500000000116,
      "v": 100
    },
    {
      "midi": 53,
      "hit": false,
      "t": 71904.69000000012,
      "d": 238.09500000000116,
      "v": 100
    },
    {
      "midi": 58,
      "hit": false,
      "t": 71904.69000000012,
      "d": 238.09500000000116,
      "v": 100
    },
    {
      "midi": 48,
      "hit": false,
      "t": 71904.69000000012,
      "d": 476.1900000000023,
      "v": 100
    },
    {
      "midi": 50,
      "hit": false,
      "t": 72142.78500000012,
      "d": 238.09500000000116,
      "v": 100
    },
    {
      "midi": 53,
      "hit": false,
      "t": 72142.78500000012,
      "d": 238.09500000000116,
      "v": 100
    },
    {
      "midi": 58,
      "hit": false,
      "t": 72142.78500000012,
      "d": 238.09500000000116,
      "v": 100
    },
    {
      "midi": 50,
      "hit": false,
      "t": 72380.88000000012,
      "d": 714.2850000000035,
      "v": 100
    },
    {
      "midi": 53,
      "hit": false,
      "t": 72857.07000000012,
      "d": 357.14250000000175,
      "v": 100
    },
    {
      "midi": 57,
      "hit": false,
      "t": 72857.07000000012,
      "d": 357.14250000000175,
      "v": 100
    },
    {
      "midi": 62,
      "hit": false,
      "t": 72857.07000000012,
      "d": 357.14250000000175,
      "v": 100
    },
    {
      "midi": 50,
      "hit": false,
      "t": 73095.16500000012,
      "d": 357.14250000000175,
      "v": 100
    },
    {
      "midi": 53,
      "hit": false,
      "t": 73214.21250000013,
      "d": 357.14250000000175,
      "v": 100
    },
    {
      "midi": 57,
      "hit": false,
      "t": 73214.21250000013,
      "d": 357.14250000000175,
      "v": 100
    },
    {
      "midi": 62,
      "hit": false,
      "t": 73214.21250000013,
      "d": 357.14250000000175,
      "v": 100
    },
    {
      "midi": 50,
      "hit": false,
      "t": 73452.30750000013,
      "d": 357.14250000000175,
      "v": 100
    },
    {
      "midi": 53,
      "hit": false,
      "t": 73571.35500000013,
      "d": 238.09500000000116,
      "v": 100
    },
    {
      "midi": 57,
      "hit": false,
      "t": 73571.35500000013,
      "d": 238.09500000000116,
      "v": 100
    },
    {
      "midi": 62,
      "hit": false,
      "t": 73571.35500000013,
      "d": 238.09500000000116,
      "v": 100
    },
    {
      "midi": 53,
      "hit": false,
      "t": 73809.45000000013,
      "d": 238.09500000000116,
      "v": 100
    },
    {
      "midi": 57,
      "hit": false,
      "t": 73809.45000000013,
      "d": 238.09500000000116,
      "v": 100
    },
    {
      "midi": 62,
      "hit": false,
      "t": 73809.45000000013,
      "d": 238.09500000000116,
      "v": 100
    },
    {
      "midi": 50,
      "hit": false,
      "t": 73809.45000000013,
      "d": 476.1900000000023,
      "v": 100
    },
    {
      "midi": 53,
      "hit": false,
      "t": 74047.54500000013,
      "d": 238.09500000000116,
      "v": 100
    },
    {
      "midi": 57,
      "hit": false,
      "t": 74047.54500000013,
      "d": 238.09500000000116,
      "v": 100
    },
    {
      "midi": 62,
      "hit": false,
      "t": 74047.54500000013,
      "d": 238.09500000000116,
      "v": 100
    },
    {
      "midi": 48,
      "hit": false,
      "t": 74285.64000000013,
      "d": 714.2850000000035,
      "v": 100
    },
    {
      "midi": 55,
      "hit": false,
      "t": 74761.83000000013,
      "d": 357.14250000000175,
      "v": 100
    },
    {
      "midi": 60,
      "hit": false,
      "t": 74761.83000000013,
      "d": 357.14250000000175,
      "v": 100
    },
    {
      "midi": 64,
      "hit": false,
      "t": 74761.83000000013,
      "d": 357.14250000000175,
      "v": 100
    },
    {
      "midi": 48,
      "hit": false,
      "t": 74999.92500000013,
      "d": 357.14250000000175,
      "v": 100
    },
    {
      "midi": 55,
      "hit": false,
      "t": 75118.97250000013,
      "d": 357.14250000000175,
      "v": 100
    },
    {
      "midi": 60,
      "hit": false,
      "t": 75118.97250000013,
      "d": 357.14250000000175,
      "v": 100
    },
    {
      "midi": 64,
      "hit": false,
      "t": 75118.97250000013,
      "d": 357.14250000000175,
      "v": 100
    },
    {
      "midi": 48,
      "hit": false,
      "t": 75357.06750000014,
      "d": 357.14250000000175,
      "v": 100
    },
    {
      "midi": 55,
      "hit": false,
      "t": 75476.11500000014,
      "d": 238.09500000000116,
      "v": 100
    },
    {
      "midi": 60,
      "hit": false,
      "t": 75476.11500000014,
      "d": 238.09500000000116,
      "v": 100
    },
    {
      "midi": 64,
      "hit": false,
      "t": 75476.11500000014,
      "d": 238.09500000000116,
      "v": 100
    },
    {
      "midi": 48,
      "hit": false,
      "t": 75714.21000000014,
      "d": 238.09500000000116,
      "v": 100
    },
    {
      "midi": 55,
      "hit": false,
      "t": 75714.21000000014,
      "d": 238.09500000000116,
      "v": 100
    },
    {
      "midi": 60,
      "hit": false,
      "t": 75714.21000000014,
      "d": 238.09500000000116,
      "v": 100
    },
    {
      "midi": 64,
      "hit": false,
      "t": 75714.21000000014,
      "d": 238.09500000000116,
      "v": 100
    },
    {
      "midi": 45,
      "hit": false,
      "t": 75952.30500000014,
      "d": 238.09500000000116,
      "v": 100
    },
    {
      "midi": 55,
      "hit": false,
      "t": 75952.30500000014,
      "d": 238.09500000000116,
      "v": 100
    },
    {
      "midi": 60,
      "hit": false,
      "t": 75952.30500000014,
      "d": 238.09500000000116,
      "v": 100
    },
    {
      "midi": 64,
      "hit": false,
      "t": 75952.30500000014,
      "d": 238.09500000000116,
      "v": 100
    },
    {
      "midi": 43,
      "hit": false,
      "t": 76190.40000000014,
      "d": 714.2850000000035,
      "v": 100
    },
    {
      "midi": 50,
      "hit": false,
      "t": 76666.59000000014,
      "d": 357.14250000000175,
      "v": 100
    },
    {
      "midi": 55,
      "hit": false,
      "t": 76666.59000000014,
      "d": 357.14250000000175,
      "v": 100
    },
    {
      "midi": 58,
      "hit": false,
      "t": 76666.59000000014,
      "d": 357.14250000000175,
      "v": 100
    },
    {
      "midi": 43,
      "hit": false,
      "t": 76904.68500000014,
      "d": 357.14250000000175,
      "v": 100
    },
    {
      "midi": 50,
      "hit": false,
      "t": 77023.73250000014,
      "d": 357.14250000000175,
      "v": 100
    },
    {
      "midi": 55,
      "hit": false,
      "t": 77023.73250000014,
      "d": 357.14250000000175,
      "v": 100
    },
    {
      "midi": 58,
      "hit": false,
      "t": 77023.73250000014,
      "d": 357.14250000000175,
      "v": 100
    },
    {
      "midi": 43,
      "hit": false,
      "t": 77261.82750000014,
      "d": 357.14250000000175,
      "v": 100
    },
    {
      "midi": 50,
      "hit": false,
      "t": 77380.87500000015,
      "d": 238.09500000000116,
      "v": 100
    },
    {
      "midi": 55,
      "hit": false,
      "t": 77380.87500000015,
      "d": 238.09500000000116,
      "v": 100
    },
    {
      "midi": 58,
      "hit": false,
      "t": 77380.87500000015,
      "d": 238.09500000000116,
      "v": 100
    },
    {
      "midi": 45,
      "hit": false,
      "t": 77618.97000000015,
      "d": 476.1900000000023,
      "v": 100
    },
    {
      "midi": 50,
      "hit": false,
      "t": 77618.97000000015,
      "d": 476.1900000000023,
      "v": 100
    },
    {
      "midi": 55,
      "hit": false,
      "t": 77618.97000000015,
      "d": 476.1900000000023,
      "v": 100
    },
    {
      "midi": 58,
      "hit": false,
      "t": 77618.97000000015,
      "d": 476.1900000000023,
      "v": 100
    },
    {
      "midi": 46,
      "hit": false,
      "t": 78095.16000000015,
      "d": 714.2850000000035,
      "v": 100
    },
    {
      "midi": 50,
      "hit": false,
      "t": 78571.35000000015,
      "d": 357.14250000000175,
      "v": 100
    },
    {
      "midi": 53,
      "hit": false,
      "t": 78571.35000000015,
      "d": 357.14250000000175,
      "v": 100
    },
    {
      "midi": 58,
      "hit": false,
      "t": 78571.35000000015,
      "d": 357.14250000000175,
      "v": 100
    },
    {
      "midi": 46,
      "hit": false,
      "t": 78809.44500000015,
      "d": 357.14250000000175,
      "v": 100
    },
    {
      "midi": 50,
      "hit": false,
      "t": 78928.49250000015,
      "d": 357.14250000000175,
      "v": 100
    },
    {
      "midi": 53,
      "hit": false,
      "t": 78928.49250000015,
      "d": 357.14250000000175,
      "v": 100
    },
    {
      "midi": 58,
      "hit": false,
      "t": 78928.49250000015,
      "d": 357.14250000000175,
      "v": 100
    },
    {
      "midi": 46,
      "hit": false,
      "t": 79166.58750000015,
      "d": 357.14250000000175,
      "v": 100
    },
    {
      "midi": 50,
      "hit": false,
      "t": 79285.63500000015,
      "d": 238.09500000000116,
      "v": 100
    },
    {
      "midi": 53,
      "hit": false,
      "t": 79285.63500000015,
      "d": 238.09500000000116,
      "v": 100
    },
    {
      "midi": 58,
      "hit": false,
      "t": 79285.63500000015,
      "d": 238.09500000000116,
      "v": 100
    },
    {
      "midi": 50,
      "hit": false,
      "t": 79523.73000000016,
      "d": 238.09500000000116,
      "v": 100
    },
    {
      "midi": 53,
      "hit": false,
      "t": 79523.73000000016,
      "d": 238.09500000000116,
      "v": 100
    },
    {
      "midi": 58,
      "hit": false,
      "t": 79523.73000000016,
      "d": 238.09500000000116,
      "v": 100
    },
    {
      "midi": 48,
      "hit": false,
      "t": 79523.73000000016,
      "d": 476.1900000000023,
      "v": 100
    },
    {
      "midi": 50,
      "hit": false,
      "t": 79761.82500000016,
      "d": 238.09500000000116,
      "v": 100
    },
    {
      "midi": 53,
      "hit": false,
      "t": 79761.82500000016,
      "d": 238.09500000000116,
      "v": 100
    },
    {
      "midi": 58,
      "hit": false,
      "t": 79761.82500000016,
      "d": 238.09500000000116,
      "v": 100
    },
    {
      "midi": 50,
      "hit": false,
      "t": 79999.92000000016,
      "d": 714.2850000000035,
      "v": 100
    },
    {
      "midi": 53,
      "hit": false,
      "t": 80476.11000000016,
      "d": 357.14250000000175,
      "v": 100
    },
    {
      "midi": 57,
      "hit": false,
      "t": 80476.11000000016,
      "d": 357.14250000000175,
      "v": 100
    },
    {
      "midi": 62,
      "hit": false,
      "t": 80476.11000000016,
      "d": 357.14250000000175,
      "v": 100
    },
    {
      "midi": 50,
      "hit": false,
      "t": 80714.20500000016,
      "d": 357.14250000000175,
      "v": 100
    },
    {
      "midi": 53,
      "hit": false,
      "t": 80833.25250000016,
      "d": 357.14250000000175,
      "v": 100
    },
    {
      "midi": 57,
      "hit": false,
      "t": 80833.25250000016,
      "d": 357.14250000000175,
      "v": 100
    },
    {
      "midi": 62,
      "hit": false,
      "t": 80833.25250000016,
      "d": 357.14250000000175,
      "v": 100
    },
    {
      "midi": 50,
      "hit": false,
      "t": 81071.34750000016,
      "d": 357.14250000000175,
      "v": 100
    },
    {
      "midi": 53,
      "hit": false,
      "t": 81190.39500000016,
      "d": 238.09500000000116,
      "v": 100
    },
    {
      "midi": 57,
      "hit": false,
      "t": 81190.39500000016,
      "d": 238.09500000000116,
      "v": 100
    },
    {
      "midi": 62,
      "hit": false,
      "t": 81190.39500000016,
      "d": 238.09500000000116,
      "v": 100
    },
    {
      "midi": 53,
      "hit": false,
      "t": 81428.49000000017,
      "d": 238.09500000000116,
      "v": 100
    },
    {
      "midi": 57,
      "hit": false,
      "t": 81428.49000000017,
      "d": 238.09500000000116,
      "v": 100
    },
    {
      "midi": 62,
      "hit": false,
      "t": 81428.49000000017,
      "d": 238.09500000000116,
      "v": 100
    },
    {
      "midi": 50,
      "hit": false,
      "t": 81428.49000000017,
      "d": 476.1900000000023,
      "v": 100
    },
    {
      "midi": 53,
      "hit": false,
      "t": 81666.58500000017,
      "d": 238.09500000000116,
      "v": 100
    },
    {
      "midi": 57,
      "hit": false,
      "t": 81666.58500000017,
      "d": 238.09500000000116,
      "v": 100
    },
    {
      "midi": 62,
      "hit": false,
      "t": 81666.58500000017,
      "d": 238.09500000000116,
      "v": 100
    },
    {
      "midi": 48,
      "hit": false,
      "t": 81904.68000000017,
      "d": 714.2850000000035,
      "v": 100
    },
    {
      "midi": 55,
      "hit": false,
      "t": 82380.87000000017,
      "d": 357.14250000000175,
      "v": 100
    },
    {
      "midi": 60,
      "hit": false,
      "t": 82380.87000000017,
      "d": 357.14250000000175,
      "v": 100
    },
    {
      "midi": 64,
      "hit": false,
      "t": 82380.87000000017,
      "d": 357.14250000000175,
      "v": 100
    },
    {
      "midi": 48,
      "hit": false,
      "t": 82618.96500000017,
      "d": 357.14250000000175,
      "v": 100
    },
    {
      "midi": 55,
      "hit": false,
      "t": 82738.01250000017,
      "d": 357.14250000000175,
      "v": 100
    },
    {
      "midi": 60,
      "hit": false,
      "t": 82738.01250000017,
      "d": 357.14250000000175,
      "v": 100
    },
    {
      "midi": 64,
      "hit": false,
      "t": 82738.01250000017,
      "d": 357.14250000000175,
      "v": 100
    },
    {
      "midi": 48,
      "hit": false,
      "t": 82976.10750000017,
      "d": 357.14250000000175,
      "v": 100
    },
    {
      "midi": 55,
      "hit": false,
      "t": 83095.15500000017,
      "d": 238.09500000000116,
      "v": 100
    },
    {
      "midi": 60,
      "hit": false,
      "t": 83095.15500000017,
      "d": 238.09500000000116,
      "v": 100
    },
    {
      "midi": 64,
      "hit": false,
      "t": 83095.15500000017,
      "d": 238.09500000000116,
      "v": 100
    },
    {
      "midi": 48,
      "hit": false,
      "t": 83333.25000000017,
      "d": 238.09500000000116,
      "v": 100
    },
    {
      "midi": 55,
      "hit": false,
      "t": 83333.25000000017,
      "d": 238.09500000000116,
      "v": 100
    },
    {
      "midi": 60,
      "hit": false,
      "t": 83333.25000000017,
      "d": 238.09500000000116,
      "v": 100
    },
    {
      "midi": 64,
      "hit": false,
      "t": 83333.25000000017,
      "d": 238.09500000000116,
      "v": 100
    },
    {
      "midi": 45,
      "hit": false,
      "t": 83571.34500000018,
      "d": 238.09500000000116,
      "v": 100
    },
    {
      "midi": 55,
      "hit": false,
      "t": 83571.34500000018,
      "d": 238.09500000000116,
      "v": 100
    },
    {
      "midi": 60,
      "hit": false,
      "t": 83571.34500000018,
      "d": 238.09500000000116,
      "v": 100
    },
    {
      "midi": 64,
      "hit": false,
      "t": 83571.34500000018,
      "d": 238.09500000000116,
      "v": 100
    },
    {
      "midi": 31,
      "hit": false,
      "t": 83809.44000000018,
      "d": 1904.7599999999948,
      "v": 100
    },
    {
      "midi": 43,
      "hit": false,
      "t": 83809.44000000018,
      "d": 1904.7599999999948,
      "v": 100
    },
    {
      "midi": 50,
      "hit": false,
      "t": 83809.44000000018,
      "d": 1904.7599999999948,
      "v": 100
    },
    {
      "midi": 55,
      "hit": false,
      "t": 83809.44000000018,
      "d": 1904.7599999999948,
      "v": 100
    },
    {
      "midi": 58,
      "hit": false,
      "t": 83809.44000000018,
      "d": 1904.7599999999948,
      "v": 100
    },
    {
      "midi": 34,
      "hit": false,
      "t": 85714.20000000017,
      "d": 1904.7599999999948,
      "v": 100
    },
    {
      "midi": 46,
      "hit": false,
      "t": 85714.20000000017,
      "d": 1904.7599999999948,
      "v": 100
    },
    {
      "midi": 50,
      "hit": false,
      "t": 85714.20000000017,
      "d": 1904.7599999999948,
      "v": 100
    },
    {
      "midi": 53,
      "hit": false,
      "t": 85714.20000000017,
      "d": 1904.7599999999948,
      "v": 100
    },
    {
      "midi": 58,
      "hit": false,
      "t": 85714.20000000017,
      "d": 1904.7599999999948,
      "v": 100
    },
    {
      "midi": 38,
      "hit": false,
      "t": 87618.96000000017,
      "d": 1904.7599999999948,
      "v": 100
    },
    {
      "midi": 50,
      "hit": false,
      "t": 87618.96000000017,
      "d": 1904.7599999999948,
      "v": 100
    },
    {
      "midi": 53,
      "hit": false,
      "t": 87618.96000000017,
      "d": 1904.7599999999948,
      "v": 100
    },
    {
      "midi": 57,
      "hit": false,
      "t": 87618.96000000017,
      "d": 1904.7599999999948,
      "v": 100
    },
    {
      "midi": 62,
      "hit": false,
      "t": 87618.96000000017,
      "d": 1904.7599999999948,
      "v": 100
    },
    {
      "midi": 36,
      "hit": false,
      "t": 89523.72000000016,
      "d": 1904.7599999999948,
      "v": 100
    },
    {
      "midi": 48,
      "hit": false,
      "t": 89523.72000000016,
      "d": 1904.7599999999948,
      "v": 100
    },
    {
      "midi": 55,
      "hit": false,
      "t": 89523.72000000016,
      "d": 1904.7599999999948,
      "v": 100
    },
    {
      "midi": 60,
      "hit": false,
      "t": 89523.72000000016,
      "d": 1904.7599999999948,
      "v": 100
    },
    {
      "midi": 64,
      "hit": false,
      "t": 89523.72000000016,
      "d": 1904.7599999999948,
      "v": 100
    },
    {
      "midi": 31,
      "hit": false,
      "t": 91428.48000000016,
      "d": 1904.7599999999948,
      "v": 100
    },
    {
      "midi": 43,
      "hit": false,
      "t": 91428.48000000016,
      "d": 1904.7599999999948,
      "v": 100
    },
    {
      "midi": 50,
      "hit": false,
      "t": 91428.48000000016,
      "d": 1904.7599999999948,
      "v": 100
    },
    {
      "midi": 55,
      "hit": false,
      "t": 91428.48000000016,
      "d": 1904.7599999999948,
      "v": 100
    },
    {
      "midi": 58,
      "hit": false,
      "t": 91428.48000000016,
      "d": 1904.7599999999948,
      "v": 100
    },
    {
      "midi": 34,
      "hit": false,
      "t": 93333.24000000015,
      "d": 1904.7599999999948,
      "v": 100
    },
    {
      "midi": 46,
      "hit": false,
      "t": 93333.24000000015,
      "d": 1904.7599999999948,
      "v": 100
    },
    {
      "midi": 50,
      "hit": false,
      "t": 93333.24000000015,
      "d": 1904.7599999999948,
      "v": 100
    },
    {
      "midi": 53,
      "hit": false,
      "t": 93333.24000000015,
      "d": 1904.7599999999948,
      "v": 100
    },
    {
      "midi": 58,
      "hit": false,
      "t": 93333.24000000015,
      "d": 1904.7599999999948,
      "v": 100
    },
    {
      "midi": 38,
      "hit": false,
      "t": 95238.00000000015,
      "d": 1904.7599999999948,
      "v": 100
    },
    {
      "midi": 50,
      "hit": false,
      "t": 95238.00000000015,
      "d": 1904.7599999999948,
      "v": 100
    },
    {
      "midi": 53,
      "hit": false,
      "t": 95238.00000000015,
      "d": 1904.7599999999948,
      "v": 100
    },
    {
      "midi": 57,
      "hit": false,
      "t": 95238.00000000015,
      "d": 1904.7599999999948,
      "v": 100
    },
    {
      "midi": 62,
      "hit": false,
      "t": 95238.00000000015,
      "d": 1904.7599999999948,
      "v": 100
    },
    {
      "midi": 36,
      "hit": false,
      "t": 97142.76000000014,
      "d": 1904.7599999999948,
      "v": 100
    },
    {
      "midi": 48,
      "hit": false,
      "t": 97142.76000000014,
      "d": 1904.7599999999948,
      "v": 100
    },
    {
      "midi": 55,
      "hit": false,
      "t": 97142.76000000014,
      "d": 1904.7599999999948,
      "v": 100
    },
    {
      "midi": 60,
      "hit": false,
      "t": 97142.76000000014,
      "d": 1904.7599999999948,
      "v": 100
    },
    {
      "midi": 64,
      "hit": false,
      "t": 97142.76000000014,
      "d": 1904.7599999999948,
      "v": 100
    },
    {
      "midi": 31,
      "hit": false,
      "t": 99047.52000000014,
      "d": 1904.7599999999948,
      "v": 100
    },
    {
      "midi": 43,
      "hit": false,
      "t": 99047.52000000014,
      "d": 1904.7599999999948,
      "v": 100
    },
    {
      "midi": 50,
      "hit": false,
      "t": 99047.52000000014,
      "d": 1904.7599999999948,
      "v": 100
    },
    {
      "midi": 55,
      "hit": false,
      "t": 99047.52000000014,
      "d": 1904.7599999999948,
      "v": 100
    },
    {
      "midi": 58,
      "hit": false,
      "t": 99047.52000000014,
      "d": 1904.7599999999948,
      "v": 100
    },
    {
      "midi": 34,
      "hit": false,
      "t": 100952.28000000013,
      "d": 1904.7599999999948,
      "v": 100
    },
    {
      "midi": 46,
      "hit": false,
      "t": 100952.28000000013,
      "d": 1904.7599999999948,
      "v": 100
    },
    {
      "midi": 50,
      "hit": false,
      "t": 100952.28000000013,
      "d": 1904.7599999999948,
      "v": 100
    },
    {
      "midi": 53,
      "hit": false,
      "t": 100952.28000000013,
      "d": 1904.7599999999948,
      "v": 100
    },
    {
      "midi": 58,
      "hit": false,
      "t": 100952.28000000013,
      "d": 1904.7599999999948,
      "v": 100
    },
    {
      "midi": 38,
      "hit": false,
      "t": 102857.04000000012,
      "d": 1904.7599999999948,
      "v": 100
    },
    {
      "midi": 50,
      "hit": false,
      "t": 102857.04000000012,
      "d": 1904.7599999999948,
      "v": 100
    },
    {
      "midi": 53,
      "hit": false,
      "t": 102857.04000000012,
      "d": 1904.7599999999948,
      "v": 100
    },
    {
      "midi": 57,
      "hit": false,
      "t": 102857.04000000012,
      "d": 1904.7599999999948,
      "v": 100
    },
    {
      "midi": 62,
      "hit": false,
      "t": 102857.04000000012,
      "d": 1904.7599999999948,
      "v": 100
    },
    {
      "midi": 36,
      "hit": false,
      "t": 104761.80000000012,
      "d": 1904.7599999999948,
      "v": 100
    },
    {
      "midi": 48,
      "hit": false,
      "t": 104761.80000000012,
      "d": 1904.7599999999948,
      "v": 100
    },
    {
      "midi": 55,
      "hit": false,
      "t": 104761.80000000012,
      "d": 1904.7599999999948,
      "v": 100
    },
    {
      "midi": 60,
      "hit": false,
      "t": 104761.80000000012,
      "d": 1904.7599999999948,
      "v": 100
    },
    {
      "midi": 64,
      "hit": false,
      "t": 104761.80000000012,
      "d": 1904.7599999999948,
      "v": 100
    },
    {
      "midi": 31,
      "hit": false,
      "t": 106666.56000000011,
      "d": 1904.7599999999948,
      "v": 100
    },
    {
      "midi": 43,
      "hit": false,
      "t": 106666.56000000011,
      "d": 1904.7599999999948,
      "v": 100
    },
    {
      "midi": 50,
      "hit": false,
      "t": 106666.56000000011,
      "d": 1904.7599999999948,
      "v": 100
    },
    {
      "midi": 55,
      "hit": false,
      "t": 106666.56000000011,
      "d": 1904.7599999999948,
      "v": 100
    },
    {
      "midi": 58,
      "hit": false,
      "t": 106666.56000000011,
      "d": 1904.7599999999948,
      "v": 100
    },
    {
      "midi": 34,
      "hit": false,
      "t": 108571.32000000011,
      "d": 1904.7599999999948,
      "v": 100
    },
    {
      "midi": 46,
      "hit": false,
      "t": 108571.32000000011,
      "d": 1904.7599999999948,
      "v": 100
    },
    {
      "midi": 50,
      "hit": false,
      "t": 108571.32000000011,
      "d": 1904.7599999999948,
      "v": 100
    },
    {
      "midi": 53,
      "hit": false,
      "t": 108571.32000000011,
      "d": 1904.7599999999948,
      "v": 100
    },
    {
      "midi": 58,
      "hit": false,
      "t": 108571.32000000011,
      "d": 1904.7599999999948,
      "v": 100
    },
    {
      "midi": 38,
      "hit": false,
      "t": 110476.0800000001,
      "d": 1904.7599999999948,
      "v": 100
    },
    {
      "midi": 50,
      "hit": false,
      "t": 110476.0800000001,
      "d": 1904.7599999999948,
      "v": 100
    },
    {
      "midi": 53,
      "hit": false,
      "t": 110476.0800000001,
      "d": 1904.7599999999948,
      "v": 100
    },
    {
      "midi": 57,
      "hit": false,
      "t": 110476.0800000001,
      "d": 1904.7599999999948,
      "v": 100
    },
    {
      "midi": 62,
      "hit": false,
      "t": 110476.0800000001,
      "d": 1904.7599999999948,
      "v": 100
    },
    {
      "midi": 43,
      "hit": false,
      "t": 116190.3600000001,
      "d": 714.2850000000035,
      "v": 100
    },
    {
      "midi": 50,
      "hit": false,
      "t": 116666.5500000001,
      "d": 357.14250000000175,
      "v": 100
    },
    {
      "midi": 55,
      "hit": false,
      "t": 116666.5500000001,
      "d": 357.14250000000175,
      "v": 100
    },
    {
      "midi": 58,
      "hit": false,
      "t": 116666.5500000001,
      "d": 357.14250000000175,
      "v": 100
    },
    {
      "midi": 43,
      "hit": false,
      "t": 116904.6450000001,
      "d": 357.14250000000175,
      "v": 100
    },
    {
      "midi": 50,
      "hit": false,
      "t": 117023.6925000001,
      "d": 357.14250000000175,
      "v": 100
    },
    {
      "midi": 55,
      "hit": false,
      "t": 117023.6925000001,
      "d": 357.14250000000175,
      "v": 100
    },
    {
      "midi": 58,
      "hit": false,
      "t": 117023.6925000001,
      "d": 357.14250000000175,
      "v": 100
    },
    {
      "midi": 43,
      "hit": false,
      "t": 117261.78750000011,
      "d": 357.14250000000175,
      "v": 100
    },
    {
      "midi": 50,
      "hit": false,
      "t": 117380.83500000011,
      "d": 238.09500000000116,
      "v": 100
    },
    {
      "midi": 55,
      "hit": false,
      "t": 117380.83500000011,
      "d": 238.09500000000116,
      "v": 100
    },
    {
      "midi": 58,
      "hit": false,
      "t": 117380.83500000011,
      "d": 238.09500000000116,
      "v": 100
    },
    {
      "midi": 45,
      "hit": false,
      "t": 117618.93000000011,
      "d": 476.1900000000023,
      "v": 100
    },
    {
      "midi": 50,
      "hit": false,
      "t": 117618.93000000011,
      "d": 476.1900000000023,
      "v": 100
    },
    {
      "midi": 55,
      "hit": false,
      "t": 117618.93000000011,
      "d": 476.1900000000023,
      "v": 100
    },
    {
      "midi": 58,
      "hit": false,
      "t": 117618.93000000011,
      "d": 476.1900000000023,
      "v": 100
    },
    {
      "midi": 46,
      "hit": false,
      "t": 118095.12000000011,
      "d": 714.2850000000035,
      "v": 100
    },
    {
      "midi": 50,
      "hit": false,
      "t": 118571.31000000011,
      "d": 357.14250000000175,
      "v": 100
    },
    {
      "midi": 53,
      "hit": false,
      "t": 118571.31000000011,
      "d": 357.14250000000175,
      "v": 100
    },
    {
      "midi": 58,
      "hit": false,
      "t": 118571.31000000011,
      "d": 357.14250000000175,
      "v": 100
    },
    {
      "midi": 46,
      "hit": false,
      "t": 118809.40500000012,
      "d": 357.14250000000175,
      "v": 100
    },
    {
      "midi": 50,
      "hit": false,
      "t": 118928.45250000012,
      "d": 357.14250000000175,
      "v": 100
    },
    {
      "midi": 53,
      "hit": false,
      "t": 118928.45250000012,
      "d": 357.14250000000175,
      "v": 100
    },
    {
      "midi": 58,
      "hit": false,
      "t": 118928.45250000012,
      "d": 357.14250000000175,
      "v": 100
    },
    {
      "midi": 46,
      "hit": false,
      "t": 119166.54750000012,
      "d": 357.14250000000175,
      "v": 100
    },
    {
      "midi": 50,
      "hit": false,
      "t": 119285.59500000012,
      "d": 238.09500000000116,
      "v": 100
    },
    {
      "midi": 53,
      "hit": false,
      "t": 119285.59500000012,
      "d": 238.09500000000116,
      "v": 100
    },
    {
      "midi": 58,
      "hit": false,
      "t": 119285.59500000012,
      "d": 238.09500000000116,
      "v": 100
    },
    {
      "midi": 50,
      "hit": false,
      "t": 119523.69000000012,
      "d": 238.09500000000116,
      "v": 100
    },
    {
      "midi": 53,
      "hit": false,
      "t": 119523.69000000012,
      "d": 238.09500000000116,
      "v": 100
    },
    {
      "midi": 58,
      "hit": false,
      "t": 119523.69000000012,
      "d": 238.09500000000116,
      "v": 100
    },
    {
      "midi": 48,
      "hit": false,
      "t": 119523.69000000012,
      "d": 476.1900000000023,
      "v": 100
    },
    {
      "midi": 50,
      "hit": false,
      "t": 119761.78500000012,
      "d": 238.09500000000116,
      "v": 100
    },
    {
      "midi": 53,
      "hit": false,
      "t": 119761.78500000012,
      "d": 238.09500000000116,
      "v": 100
    },
    {
      "midi": 58,
      "hit": false,
      "t": 119761.78500000012,
      "d": 238.09500000000116,
      "v": 100
    },
    {
      "midi": 50,
      "hit": false,
      "t": 119999.88000000012,
      "d": 714.2850000000035,
      "v": 100
    },
    {
      "midi": 53,
      "hit": false,
      "t": 120476.07000000012,
      "d": 357.14250000000175,
      "v": 100
    },
    {
      "midi": 57,
      "hit": false,
      "t": 120476.07000000012,
      "d": 357.14250000000175,
      "v": 100
    },
    {
      "midi": 62,
      "hit": false,
      "t": 120476.07000000012,
      "d": 357.14250000000175,
      "v": 100
    },
    {
      "midi": 50,
      "hit": false,
      "t": 120714.16500000012,
      "d": 357.14250000000175,
      "v": 100
    },
    {
      "midi": 53,
      "hit": false,
      "t": 120833.21250000013,
      "d": 357.14250000000175,
      "v": 100
    },
    {
      "midi": 57,
      "hit": false,
      "t": 120833.21250000013,
      "d": 357.14250000000175,
      "v": 100
    },
    {
      "midi": 62,
      "hit": false,
      "t": 120833.21250000013,
      "d": 357.14250000000175,
      "v": 100
    },
    {
      "midi": 50,
      "hit": false,
      "t": 121071.30750000013,
      "d": 357.14250000000175,
      "v": 100
    },
    {
      "midi": 53,
      "hit": false,
      "t": 121190.35500000013,
      "d": 238.09500000000116,
      "v": 100
    },
    {
      "midi": 57,
      "hit": false,
      "t": 121190.35500000013,
      "d": 238.09500000000116,
      "v": 100
    },
    {
      "midi": 62,
      "hit": false,
      "t": 121190.35500000013,
      "d": 238.09500000000116,
      "v": 100
    },
    {
      "midi": 53,
      "hit": false,
      "t": 121428.45000000013,
      "d": 238.09500000000116,
      "v": 100
    },
    {
      "midi": 57,
      "hit": false,
      "t": 121428.45000000013,
      "d": 238.09500000000116,
      "v": 100
    },
    {
      "midi": 62,
      "hit": false,
      "t": 121428.45000000013,
      "d": 238.09500000000116,
      "v": 100
    },
    {
      "midi": 50,
      "hit": false,
      "t": 121428.45000000013,
      "d": 476.1900000000023,
      "v": 100
    },
    {
      "midi": 53,
      "hit": false,
      "t": 121666.54500000013,
      "d": 238.09500000000116,
      "v": 100
    },
    {
      "midi": 57,
      "hit": false,
      "t": 121666.54500000013,
      "d": 238.09500000000116,
      "v": 100
    },
    {
      "midi": 62,
      "hit": false,
      "t": 121666.54500000013,
      "d": 238.09500000000116,
      "v": 100
    },
    {
      "midi": 48,
      "hit": false,
      "t": 121904.64000000013,
      "d": 714.2850000000035,
      "v": 100
    },
    {
      "midi": 55,
      "hit": false,
      "t": 122380.83000000013,
      "d": 357.14250000000175,
      "v": 100
    },
    {
      "midi": 60,
      "hit": false,
      "t": 122380.83000000013,
      "d": 357.14250000000175,
      "v": 100
    },
    {
      "midi": 64,
      "hit": false,
      "t": 122380.83000000013,
      "d": 357.14250000000175,
      "v": 100
    },
    {
      "midi": 48,
      "hit": false,
      "t": 122618.92500000013,
      "d": 357.14250000000175,
      "v": 100
    },
    {
      "midi": 55,
      "hit": false,
      "t": 122737.97250000013,
      "d": 357.14250000000175,
      "v": 100
    },
    {
      "midi": 60,
      "hit": false,
      "t": 122737.97250000013,
      "d": 357.14250000000175,
      "v": 100
    },
    {
      "midi": 64,
      "hit": false,
      "t": 122737.97250000013,
      "d": 357.14250000000175,
      "v": 100
    },
    {
      "midi": 48,
      "hit": false,
      "t": 122976.06750000014,
      "d": 357.14250000000175,
      "v": 100
    },
    {
      "midi": 55,
      "hit": false,
      "t": 123095.11500000014,
      "d": 238.09500000000116,
      "v": 100
    },
    {
      "midi": 60,
      "hit": false,
      "t": 123095.11500000014,
      "d": 238.09500000000116,
      "v": 100
    },
    {
      "midi": 64,
      "hit": false,
      "t": 123095.11500000014,
      "d": 238.09500000000116,
      "v": 100
    },
    {
      "midi": 48,
      "hit": false,
      "t": 123333.21000000014,
      "d": 238.09500000000116,
      "v": 100
    },
    {
      "midi": 55,
      "hit": false,
      "t": 123333.21000000014,
      "d": 238.09500000000116,
      "v": 100
    },
    {
      "midi": 60,
      "hit": false,
      "t": 123333.21000000014,
      "d": 238.09500000000116,
      "v": 100
    },
    {
      "midi": 64,
      "hit": false,
      "t": 123333.21000000014,
      "d": 238.09500000000116,
      "v": 100
    },
    {
      "midi": 45,
      "hit": false,
      "t": 123571.30500000014,
      "d": 238.09500000000116,
      "v": 100
    },
    {
      "midi": 55,
      "hit": false,
      "t": 123571.30500000014,
      "d": 238.09500000000116,
      "v": 100
    },
    {
      "midi": 60,
      "hit": false,
      "t": 123571.30500000014,
      "d": 238.09500000000116,
      "v": 100
    },
    {
      "midi": 64,
      "hit": false,
      "t": 123571.30500000014,
      "d": 238.09500000000116,
      "v": 100
    },
    {
      "midi": 43,
      "hit": false,
      "t": 123809.40000000014,
      "d": 714.2850000000035,
      "v": 100
    },
    {
      "midi": 50,
      "hit": false,
      "t": 124285.59000000014,
      "d": 357.14250000000175,
      "v": 100
    },
    {
      "midi": 55,
      "hit": false,
      "t": 124285.59000000014,
      "d": 357.14250000000175,
      "v": 100
    },
    {
      "midi": 58,
      "hit": false,
      "t": 124285.59000000014,
      "d": 357.14250000000175,
      "v": 100
    },
    {
      "midi": 43,
      "hit": false,
      "t": 124523.68500000014,
      "d": 357.14250000000175,
      "v": 100
    },
    {
      "midi": 50,
      "hit": false,
      "t": 124642.73250000014,
      "d": 357.14250000000175,
      "v": 100
    },
    {
      "midi": 55,
      "hit": false,
      "t": 124642.73250000014,
      "d": 357.14250000000175,
      "v": 100
    },
    {
      "midi": 58,
      "hit": false,
      "t": 124642.73250000014,
      "d": 357.14250000000175,
      "v": 100
    },
    {
      "midi": 43,
      "hit": false,
      "t": 124880.82750000014,
      "d": 357.14250000000175,
      "v": 100
    },
    {
      "midi": 50,
      "hit": false,
      "t": 124999.87500000015,
      "d": 238.09500000000116,
      "v": 100
    },
    {
      "midi": 55,
      "hit": false,
      "t": 124999.87500000015,
      "d": 238.09500000000116,
      "v": 100
    },
    {
      "midi": 58,
      "hit": false,
      "t": 124999.87500000015,
      "d": 238.09500000000116,
      "v": 100
    },
    {
      "midi": 45,
      "hit": false,
      "t": 125237.97000000015,
      "d": 476.1900000000023,
      "v": 100
    },
    {
      "midi": 50,
      "hit": false,
      "t": 125237.97000000015,
      "d": 476.1900000000023,
      "v": 100
    },
    {
      "midi": 55,
      "hit": false,
      "t": 125237.97000000015,
      "d": 476.1900000000023,
      "v": 100
    },
    {
      "midi": 58,
      "hit": false,
      "t": 125237.97000000015,
      "d": 476.1900000000023,
      "v": 100
    },
    {
      "midi": 46,
      "hit": false,
      "t": 125714.16000000015,
      "d": 714.2850000000035,
      "v": 100
    },
    {
      "midi": 50,
      "hit": false,
      "t": 126190.35000000015,
      "d": 357.14250000000175,
      "v": 100
    },
    {
      "midi": 53,
      "hit": false,
      "t": 126190.35000000015,
      "d": 357.14250000000175,
      "v": 100
    },
    {
      "midi": 58,
      "hit": false,
      "t": 126190.35000000015,
      "d": 357.14250000000175,
      "v": 100
    },
    {
      "midi": 46,
      "hit": false,
      "t": 126428.44500000015,
      "d": 357.14250000000175,
      "v": 100
    },
    {
      "midi": 50,
      "hit": false,
      "t": 126547.49250000015,
      "d": 357.14250000000175,
      "v": 100
    },
    {
      "midi": 53,
      "hit": false,
      "t": 126547.49250000015,
      "d": 357.14250000000175,
      "v": 100
    },
    {
      "midi": 58,
      "hit": false,
      "t": 126547.49250000015,
      "d": 357.14250000000175,
      "v": 100
    },
    {
      "midi": 46,
      "hit": false,
      "t": 126785.58750000015,
      "d": 357.14250000000175,
      "v": 100
    },
    {
      "midi": 50,
      "hit": false,
      "t": 126904.63500000015,
      "d": 238.09500000000116,
      "v": 100
    },
    {
      "midi": 53,
      "hit": false,
      "t": 126904.63500000015,
      "d": 238.09500000000116,
      "v": 100
    },
    {
      "midi": 58,
      "hit": false,
      "t": 126904.63500000015,
      "d": 238.09500000000116,
      "v": 100
    },
    {
      "midi": 50,
      "hit": false,
      "t": 127142.73000000016,
      "d": 238.09500000000116,
      "v": 100
    },
    {
      "midi": 53,
      "hit": false,
      "t": 127142.73000000016,
      "d": 238.09500000000116,
      "v": 100
    },
    {
      "midi": 58,
      "hit": false,
      "t": 127142.73000000016,
      "d": 238.09500000000116,
      "v": 100
    },
    {
      "midi": 48,
      "hit": false,
      "t": 127142.73000000016,
      "d": 476.1900000000023,
      "v": 100
    },
    {
      "midi": 50,
      "hit": false,
      "t": 127380.82500000016,
      "d": 238.09500000000116,
      "v": 100
    },
    {
      "midi": 53,
      "hit": false,
      "t": 127380.82500000016,
      "d": 238.09500000000116,
      "v": 100
    },
    {
      "midi": 58,
      "hit": false,
      "t": 127380.82500000016,
      "d": 238.09500000000116,
      "v": 100
    },
    {
      "midi": 50,
      "hit": false,
      "t": 127618.92000000016,
      "d": 714.2850000000035,
      "v": 100
    },
    {
      "midi": 53,
      "hit": false,
      "t": 128095.11000000016,
      "d": 357.14250000000175,
      "v": 100
    },
    {
      "midi": 57,
      "hit": false,
      "t": 128095.11000000016,
      "d": 357.14250000000175,
      "v": 100
    },
    {
      "midi": 62,
      "hit": false,
      "t": 128095.11000000016,
      "d": 357.14250000000175,
      "v": 100
    },
    {
      "midi": 50,
      "hit": false,
      "t": 128333.20500000016,
      "d": 357.14250000000175,
      "v": 100
    },
    {
      "midi": 53,
      "hit": false,
      "t": 128452.25250000016,
      "d": 357.14250000000175,
      "v": 100
    },
    {
      "midi": 57,
      "hit": false,
      "t": 128452.25250000016,
      "d": 357.14250000000175,
      "v": 100
    },
    {
      "midi": 62,
      "hit": false,
      "t": 128452.25250000016,
      "d": 357.14250000000175,
      "v": 100
    },
    {
      "midi": 50,
      "hit": false,
      "t": 128690.34750000016,
      "d": 357.14250000000175,
      "v": 100
    },
    {
      "midi": 53,
      "hit": false,
      "t": 128809.39500000016,
      "d": 238.09500000000116,
      "v": 100
    },
    {
      "midi": 57,
      "hit": false,
      "t": 128809.39500000016,
      "d": 238.09500000000116,
      "v": 100
    },
    {
      "midi": 62,
      "hit": false,
      "t": 128809.39500000016,
      "d": 238.09500000000116,
      "v": 100
    },
    {
      "midi": 53,
      "hit": false,
      "t": 129047.49000000017,
      "d": 238.09500000000116,
      "v": 100
    },
    {
      "midi": 57,
      "hit": false,
      "t": 129047.49000000017,
      "d": 238.09500000000116,
      "v": 100
    },
    {
      "midi": 62,
      "hit": false,
      "t": 129047.49000000017,
      "d": 238.09500000000116,
      "v": 100
    },
    {
      "midi": 50,
      "hit": false,
      "t": 129047.49000000017,
      "d": 476.1900000000023,
      "v": 100
    },
    {
      "midi": 53,
      "hit": false,
      "t": 129285.58500000017,
      "d": 238.09500000000116,
      "v": 100
    },
    {
      "midi": 57,
      "hit": false,
      "t": 129285.58500000017,
      "d": 238.09500000000116,
      "v": 100
    },
    {
      "midi": 62,
      "hit": false,
      "t": 129285.58500000017,
      "d": 238.09500000000116,
      "v": 100
    },
    {
      "midi": 48,
      "hit": false,
      "t": 129523.68000000017,
      "d": 714.2850000000035,
      "v": 100
    },
    {
      "midi": 55,
      "hit": false,
      "t": 129999.87000000017,
      "d": 357.14250000000175,
      "v": 100
    },
    {
      "midi": 60,
      "hit": false,
      "t": 129999.87000000017,
      "d": 357.14250000000175,
      "v": 100
    },
    {
      "midi": 64,
      "hit": false,
      "t": 129999.87000000017,
      "d": 357.14250000000175,
      "v": 100
    },
    {
      "midi": 48,
      "hit": false,
      "t": 130237.96500000017,
      "d": 357.14250000000175,
      "v": 100
    },
    {
      "midi": 55,
      "hit": false,
      "t": 130357.01250000017,
      "d": 357.14250000000175,
      "v": 100
    },
    {
      "midi": 60,
      "hit": false,
      "t": 130357.01250000017,
      "d": 357.14250000000175,
      "v": 100
    },
    {
      "midi": 64,
      "hit": false,
      "t": 130357.01250000017,
      "d": 357.14250000000175,
      "v": 100
    },
    {
      "midi": 48,
      "hit": false,
      "t": 130595.10750000017,
      "d": 357.14250000000175,
      "v": 100
    },
    {
      "midi": 55,
      "hit": false,
      "t": 130714.15500000017,
      "d": 238.09500000000116,
      "v": 100
    },
    {
      "midi": 60,
      "hit": false,
      "t": 130714.15500000017,
      "d": 238.09500000000116,
      "v": 100
    },
    {
      "midi": 64,
      "hit": false,
      "t": 130714.15500000017,
      "d": 238.09500000000116,
      "v": 100
    },
    {
      "midi": 48,
      "hit": false,
      "t": 130952.25000000017,
      "d": 238.09500000000116,
      "v": 100
    },
    {
      "midi": 55,
      "hit": false,
      "t": 130952.25000000017,
      "d": 238.09500000000116,
      "v": 100
    },
    {
      "midi": 60,
      "hit": false,
      "t": 130952.25000000017,
      "d": 238.09500000000116,
      "v": 100
    },
    {
      "midi": 64,
      "hit": false,
      "t": 130952.25000000017,
      "d": 238.09500000000116,
      "v": 100
    },
    {
      "midi": 45,
      "hit": false,
      "t": 131190.34500000018,
      "d": 238.09500000000116,
      "v": 100
    },
    {
      "midi": 55,
      "hit": false,
      "t": 131190.34500000018,
      "d": 238.09500000000116,
      "v": 100
    },
    {
      "midi": 60,
      "hit": false,
      "t": 131190.34500000018,
      "d": 238.09500000000116,
      "v": 100
    },
    {
      "midi": 64,
      "hit": false,
      "t": 131190.34500000018,
      "d": 238.09500000000116,
      "v": 100
    },
    {
      "midi": 43,
      "hit": false,
      "t": 131428.44000000018,
      "d": 714.2850000000035,
      "v": 100
    },
    {
      "midi": 50,
      "hit": false,
      "t": 131904.63000000018,
      "d": 357.1424999999872,
      "v": 100
    },
    {
      "midi": 55,
      "hit": false,
      "t": 131904.63000000018,
      "d": 357.1424999999872,
      "v": 100
    },
    {
      "midi": 58,
      "hit": false,
      "t": 131904.63000000018,
      "d": 357.1424999999872,
      "v": 100
    },
    {
      "midi": 43,
      "hit": false,
      "t": 132142.72500000018,
      "d": 357.1424999999872,
      "v": 100
    },
    {
      "midi": 50,
      "hit": false,
      "t": 132261.77250000017,
      "d": 357.1424999999872,
      "v": 100
    },
    {
      "midi": 55,
      "hit": false,
      "t": 132261.77250000017,
      "d": 357.1424999999872,
      "v": 100
    },
    {
      "midi": 58,
      "hit": false,
      "t": 132261.77250000017,
      "d": 357.1424999999872,
      "v": 100
    },
    {
      "midi": 43,
      "hit": false,
      "t": 132499.86750000017,
      "d": 357.1424999999872,
      "v": 100
    },
    {
      "midi": 50,
      "hit": false,
      "t": 132618.91500000015,
      "d": 238.09500000000116,
      "v": 100
    },
    {
      "midi": 55,
      "hit": false,
      "t": 132618.91500000015,
      "d": 238.09500000000116,
      "v": 100
    },
    {
      "midi": 58,
      "hit": false,
      "t": 132618.91500000015,
      "d": 238.09500000000116,
      "v": 100
    },
    {
      "midi": 45,
      "hit": false,
      "t": 132857.01000000015,
      "d": 476.1900000000023,
      "v": 100
    },
    {
      "midi": 50,
      "hit": false,
      "t": 132857.01000000015,
      "d": 476.1900000000023,
      "v": 100
    },
    {
      "midi": 55,
      "hit": false,
      "t": 132857.01000000015,
      "d": 476.1900000000023,
      "v": 100
    },
    {
      "midi": 58,
      "hit": false,
      "t": 132857.01000000015,
      "d": 476.1900000000023,
      "v": 100
    },
    {
      "midi": 46,
      "hit": false,
      "t": 133333.20000000016,
      "d": 714.2850000000035,
      "v": 100
    },
    {
      "midi": 50,
      "hit": false,
      "t": 133809.39000000016,
      "d": 357.1424999999872,
      "v": 100
    },
    {
      "midi": 53,
      "hit": false,
      "t": 133809.39000000016,
      "d": 357.1424999999872,
      "v": 100
    },
    {
      "midi": 58,
      "hit": false,
      "t": 133809.39000000016,
      "d": 357.1424999999872,
      "v": 100
    },
    {
      "midi": 46,
      "hit": false,
      "t": 134047.48500000016,
      "d": 357.1424999999872,
      "v": 100
    },
    {
      "midi": 50,
      "hit": false,
      "t": 134166.53250000015,
      "d": 357.1424999999872,
      "v": 100
    },
    {
      "midi": 53,
      "hit": false,
      "t": 134166.53250000015,
      "d": 357.1424999999872,
      "v": 100
    },
    {
      "midi": 58,
      "hit": false,
      "t": 134166.53250000015,
      "d": 357.1424999999872,
      "v": 100
    },
    {
      "midi": 46,
      "hit": false,
      "t": 134404.62750000015,
      "d": 357.1424999999872,
      "v": 100
    },
    {
      "midi": 50,
      "hit": false,
      "t": 134523.67500000013,
      "d": 238.09500000000116,
      "v": 100
    },
    {
      "midi": 53,
      "hit": false,
      "t": 134523.67500000013,
      "d": 238.09500000000116,
      "v": 100
    },
    {
      "midi": 58,
      "hit": false,
      "t": 134523.67500000013,
      "d": 238.09500000000116,
      "v": 100
    },
    {
      "midi": 50,
      "hit": false,
      "t": 134761.77000000014,
      "d": 238.09500000000116,
      "v": 100
    },
    {
      "midi": 53,
      "hit": false,
      "t": 134761.77000000014,
      "d": 238.09500000000116,
      "v": 100
    },
    {
      "midi": 58,
      "hit": false,
      "t": 134761.77000000014,
      "d": 238.09500000000116,
      "v": 100
    },
    {
      "midi": 48,
      "hit": false,
      "t": 134761.77000000014,
      "d": 476.1900000000023,
      "v": 100
    },
    {
      "midi": 50,
      "hit": false,
      "t": 134999.86500000014,
      "d": 238.09500000000116,
      "v": 100
    },
    {
      "midi": 53,
      "hit": false,
      "t": 134999.86500000014,
      "d": 238.09500000000116,
      "v": 100
    },
    {
      "midi": 58,
      "hit": false,
      "t": 134999.86500000014,
      "d": 238.09500000000116,
      "v": 100
    },
    {
      "midi": 50,
      "hit": false,
      "t": 135237.96000000014,
      "d": 714.2850000000035,
      "v": 100
    },
    {
      "midi": 53,
      "hit": false,
      "t": 135714.15000000014,
      "d": 357.1424999999872,
      "v": 100
    },
    {
      "midi": 57,
      "hit": false,
      "t": 135714.15000000014,
      "d": 357.1424999999872,
      "v": 100
    },
    {
      "midi": 62,
      "hit": false,
      "t": 135714.15000000014,
      "d": 357.1424999999872,
      "v": 100
    },
    {
      "midi": 50,
      "hit": false,
      "t": 135952.24500000014,
      "d": 357.1424999999872,
      "v": 100
    },
    {
      "midi": 53,
      "hit": false,
      "t": 136071.29250000013,
      "d": 357.1424999999872,
      "v": 100
    },
    {
      "midi": 57,
      "hit": false,
      "t": 136071.29250000013,
      "d": 357.1424999999872,
      "v": 100
    },
    {
      "midi": 62,
      "hit": false,
      "t": 136071.29250000013,
      "d": 357.1424999999872,
      "v": 100
    },
    {
      "midi": 50,
      "hit": false,
      "t": 136309.38750000013,
      "d": 357.1424999999872,
      "v": 100
    },
    {
      "midi": 53,
      "hit": false,
      "t": 136428.4350000001,
      "d": 238.09500000000116,
      "v": 100
    },
    {
      "midi": 57,
      "hit": false,
      "t": 136428.4350000001,
      "d": 238.09500000000116,
      "v": 100
    },
    {
      "midi": 62,
      "hit": false,
      "t": 136428.4350000001,
      "d": 238.09500000000116,
      "v": 100
    },
    {
      "midi": 53,
      "hit": false,
      "t": 136666.53000000012,
      "d": 238.09500000000116,
      "v": 100
    },
    {
      "midi": 57,
      "hit": false,
      "t": 136666.53000000012,
      "d": 238.09500000000116,
      "v": 100
    },
    {
      "midi": 62,
      "hit": false,
      "t": 136666.53000000012,
      "d": 238.09500000000116,
      "v": 100
    },
    {
      "midi": 50,
      "hit": false,
      "t": 136666.53000000012,
      "d": 476.1900000000023,
      "v": 100
    },
    {
      "midi": 53,
      "hit": false,
      "t": 136904.62500000012,
      "d": 238.09500000000116,
      "v": 100
    },
    {
      "midi": 57,
      "hit": false,
      "t": 136904.62500000012,
      "d": 238.09500000000116,
      "v": 100
    },
    {
      "midi": 62,
      "hit": false,
      "t": 136904.62500000012,
      "d": 238.09500000000116,
      "v": 100
    },
    {
      "midi": 48,
      "hit": false,
      "t": 137142.72000000012,
      "d": 714.2850000000035,
      "v": 100
    },
    {
      "midi": 55,
      "hit": false,
      "t": 137618.91000000012,
      "d": 357.1424999999872,
      "v": 100
    },
    {
      "midi": 60,
      "hit": false,
      "t": 137618.91000000012,
      "d": 357.1424999999872,
      "v": 100
    },
    {
      "midi": 64,
      "hit": false,
      "t": 137618.91000000012,
      "d": 357.1424999999872,
      "v": 100
    },
    {
      "midi": 48,
      "hit": false,
      "t": 137857.00500000012,
      "d": 357.1424999999872,
      "v": 100
    },
    {
      "midi": 55,
      "hit": false,
      "t": 137976.0525000001,
      "d": 357.1424999999872,
      "v": 100
    },
    {
      "midi": 60,
      "hit": false,
      "t": 137976.0525000001,
      "d": 357.1424999999872,
      "v": 100
    },
    {
      "midi": 64,
      "hit": false,
      "t": 137976.0525000001,
      "d": 357.1424999999872,
      "v": 100
    },
    {
      "midi": 48,
      "hit": false,
      "t": 138214.1475000001,
      "d": 357.1424999999872,
      "v": 100
    },
    {
      "midi": 55,
      "hit": false,
      "t": 138333.1950000001,
      "d": 238.09500000000116,
      "v": 100
    },
    {
      "midi": 60,
      "hit": false,
      "t": 138333.1950000001,
      "d": 238.09500000000116,
      "v": 100
    },
    {
      "midi": 64,
      "hit": false,
      "t": 138333.1950000001,
      "d": 238.09500000000116,
      "v": 100
    },
    {
      "midi": 48,
      "hit": false,
      "t": 138571.2900000001,
      "d": 238.09500000000116,
      "v": 100
    },
    {
      "midi": 55,
      "hit": false,
      "t": 138571.2900000001,
      "d": 238.09500000000116,
      "v": 100
    },
    {
      "midi": 60,
      "hit": false,
      "t": 138571.2900000001,
      "d": 238.09500000000116,
      "v": 100
    },
    {
      "midi": 64,
      "hit": false,
      "t": 138571.2900000001,
      "d": 238.09500000000116,
      "v": 100
    },
    {
      "midi": 45,
      "hit": false,
      "t": 138809.3850000001,
      "d": 238.09500000000116,
      "v": 100
    },
    {
      "midi": 55,
      "hit": false,
      "t": 138809.3850000001,
      "d": 238.09500000000116,
      "v": 100
    },
    {
      "midi": 60,
      "hit": false,
      "t": 138809.3850000001,
      "d": 238.09500000000116,
      "v": 100
    },
    {
      "midi": 64,
      "hit": false,
      "t": 138809.3850000001,
      "d": 238.09500000000116,
      "v": 100
    },
    {
      "midi": 43,
      "hit": false,
      "t": 139047.4800000001,
      "d": 714.2850000000035,
      "v": 100
    },
    {
      "midi": 50,
      "hit": false,
      "t": 139523.6700000001,
      "d": 357.1424999999872,
      "v": 100
    },
    {
      "midi": 55,
      "hit": false,
      "t": 139523.6700000001,
      "d": 357.1424999999872,
      "v": 100
    },
    {
      "midi": 58,
      "hit": false,
      "t": 139523.6700000001,
      "d": 357.1424999999872,
      "v": 100
    },
    {
      "midi": 43,
      "hit": false,
      "t": 139761.7650000001,
      "d": 357.1424999999872,
      "v": 100
    },
    {
      "midi": 50,
      "hit": false,
      "t": 139880.8125000001,
      "d": 357.1424999999872,
      "v": 100
    },
    {
      "midi": 55,
      "hit": false,
      "t": 139880.8125000001,
      "d": 357.1424999999872,
      "v": 100
    },
    {
      "midi": 58,
      "hit": false,
      "t": 139880.8125000001,
      "d": 357.1424999999872,
      "v": 100
    },
    {
      "midi": 43,
      "hit": false,
      "t": 140118.9075000001,
      "d": 357.1424999999872,
      "v": 100
    },
    {
      "midi": 50,
      "hit": false,
      "t": 140237.95500000007,
      "d": 238.09500000000116,
      "v": 100
    },
    {
      "midi": 55,
      "hit": false,
      "t": 140237.95500000007,
      "d": 238.09500000000116,
      "v": 100
    },
    {
      "midi": 58,
      "hit": false,
      "t": 140237.95500000007,
      "d": 238.09500000000116,
      "v": 100
    },
    {
      "midi": 45,
      "hit": false,
      "t": 140476.05000000008,
      "d": 476.1900000000023,
      "v": 100
    },
    {
      "midi": 50,
      "hit": false,
      "t": 140476.05000000008,
      "d": 476.1900000000023,
      "v": 100
    },
    {
      "midi": 55,
      "hit": false,
      "t": 140476.05000000008,
      "d": 476.1900000000023,
      "v": 100
    },
    {
      "midi": 58,
      "hit": false,
      "t": 140476.05000000008,
      "d": 476.1900000000023,
      "v": 100
    },
    {
      "midi": 46,
      "hit": false,
      "t": 140952.24000000008,
      "d": 714.2850000000035,
      "v": 100
    },
    {
      "midi": 50,
      "hit": false,
      "t": 141428.43000000008,
      "d": 357.1424999999872,
      "v": 100
    },
    {
      "midi": 53,
      "hit": false,
      "t": 141428.43000000008,
      "d": 357.1424999999872,
      "v": 100
    },
    {
      "midi": 58,
      "hit": false,
      "t": 141428.43000000008,
      "d": 357.1424999999872,
      "v": 100
    },
    {
      "midi": 46,
      "hit": false,
      "t": 141666.52500000008,
      "d": 357.1424999999872,
      "v": 100
    },
    {
      "midi": 50,
      "hit": false,
      "t": 141785.57250000007,
      "d": 357.1424999999872,
      "v": 100
    },
    {
      "midi": 53,
      "hit": false,
      "t": 141785.57250000007,
      "d": 357.1424999999872,
      "v": 100
    },
    {
      "midi": 58,
      "hit": false,
      "t": 141785.57250000007,
      "d": 357.1424999999872,
      "v": 100
    },
    {
      "midi": 46,
      "hit": false,
      "t": 142023.66750000007,
      "d": 357.1424999999872,
      "v": 100
    },
    {
      "midi": 50,
      "hit": false,
      "t": 142142.71500000005,
      "d": 238.09500000000116,
      "v": 100
    },
    {
      "midi": 53,
      "hit": false,
      "t": 142142.71500000005,
      "d": 238.09500000000116,
      "v": 100
    },
    {
      "midi": 58,
      "hit": false,
      "t": 142142.71500000005,
      "d": 238.09500000000116,
      "v": 100
    },
    {
      "midi": 50,
      "hit": false,
      "t": 142380.81000000006,
      "d": 238.09500000000116,
      "v": 100
    },
    {
      "midi": 53,
      "hit": false,
      "t": 142380.81000000006,
      "d": 238.09500000000116,
      "v": 100
    },
    {
      "midi": 58,
      "hit": false,
      "t": 142380.81000000006,
      "d": 238.09500000000116,
      "v": 100
    },
    {
      "midi": 48,
      "hit": false,
      "t": 142380.81000000006,
      "d": 476.1900000000023,
      "v": 100
    },
    {
      "midi": 50,
      "hit": false,
      "t": 142618.90500000006,
      "d": 238.09500000000116,
      "v": 100
    },
    {
      "midi": 53,
      "hit": false,
      "t": 142618.90500000006,
      "d": 238.09500000000116,
      "v": 100
    },
    {
      "midi": 58,
      "hit": false,
      "t": 142618.90500000006,
      "d": 238.09500000000116,
      "v": 100
    },
    {
      "midi": 50,
      "hit": false,
      "t": 142857.00000000006,
      "d": 714.2850000000035,
      "v": 100
    },
    {
      "midi": 53,
      "hit": false,
      "t": 143333.19000000006,
      "d": 357.1424999999872,
      "v": 100
    },
    {
      "midi": 57,
      "hit": false,
      "t": 143333.19000000006,
      "d": 357.1424999999872,
      "v": 100
    },
    {
      "midi": 62,
      "hit": false,
      "t": 143333.19000000006,
      "d": 357.1424999999872,
      "v": 100
    },
    {
      "midi": 50,
      "hit": false,
      "t": 143571.28500000006,
      "d": 357.1424999999872,
      "v": 100
    },
    {
      "midi": 53,
      "hit": false,
      "t": 143690.33250000005,
      "d": 357.1424999999872,
      "v": 100
    },
    {
      "midi": 57,
      "hit": false,
      "t": 143690.33250000005,
      "d": 357.1424999999872,
      "v": 100
    },
    {
      "midi": 62,
      "hit": false,
      "t": 143690.33250000005,
      "d": 357.1424999999872,
      "v": 100
    },
    {
      "midi": 50,
      "hit": false,
      "t": 143928.42750000005,
      "d": 357.1424999999872,
      "v": 100
    },
    {
      "midi": 53,
      "hit": false,
      "t": 144047.47500000003,
      "d": 238.09500000000116,
      "v": 100
    },
    {
      "midi": 57,
      "hit": false,
      "t": 144047.47500000003,
      "d": 238.09500000000116,
      "v": 100
    },
    {
      "midi": 62,
      "hit": false,
      "t": 144047.47500000003,
      "d": 238.09500000000116,
      "v": 100
    },
    {
      "midi": 53,
      "hit": false,
      "t": 144285.57000000004,
      "d": 238.09500000000116,
      "v": 100
    },
    {
      "midi": 57,
      "hit": false,
      "t": 144285.57000000004,
      "d": 238.09500000000116,
      "v": 100
    },
    {
      "midi": 62,
      "hit": false,
      "t": 144285.57000000004,
      "d": 238.09500000000116,
      "v": 100
    },
    {
      "midi": 50,
      "hit": false,
      "t": 144285.57000000004,
      "d": 476.1900000000023,
      "v": 100
    },
    {
      "midi": 53,
      "hit": false,
      "t": 144523.66500000004,
      "d": 238.09500000000116,
      "v": 100
    },
    {
      "midi": 57,
      "hit": false,
      "t": 144523.66500000004,
      "d": 238.09500000000116,
      "v": 100
    },
    {
      "midi": 62,
      "hit": false,
      "t": 144523.66500000004,
      "d": 238.09500000000116,
      "v": 100
    },
    {
      "midi": 48,
      "hit": false,
      "t": 144761.76000000004,
      "d": 714.2850000000035,
      "v": 100
    },
    {
      "midi": 55,
      "hit": false,
      "t": 145237.95000000004,
      "d": 357.1424999999872,
      "v": 100
    },
    {
      "midi": 60,
      "hit": false,
      "t": 145237.95000000004,
      "d": 357.1424999999872,
      "v": 100
    },
    {
      "midi": 64,
      "hit": false,
      "t": 145237.95000000004,
      "d": 357.1424999999872,
      "v": 100
    },
    {
      "midi": 48,
      "hit": false,
      "t": 145476.04500000004,
      "d": 357.1424999999872,
      "v": 100
    },
    {
      "midi": 55,
      "hit": false,
      "t": 145595.09250000003,
      "d": 357.1424999999872,
      "v": 100
    },
    {
      "midi": 60,
      "hit": false,
      "t": 145595.09250000003,
      "d": 357.1424999999872,
      "v": 100
    },
    {
      "midi": 64,
      "hit": false,
      "t": 145595.09250000003,
      "d": 357.1424999999872,
      "v": 100
    },
    {
      "midi": 48,
      "hit": false,
      "t": 145833.18750000003,
      "d": 357.1424999999872,
      "v": 100
    },
    {
      "midi": 55,
      "hit": false,
      "t": 145952.23500000002,
      "d": 238.09500000000116,
      "v": 100
    },
    {
      "midi": 60,
      "hit": false,
      "t": 145952.23500000002,
      "d": 238.09500000000116,
      "v": 100
    },
    {
      "midi": 64,
      "hit": false,
      "t": 145952.23500000002,
      "d": 238.09500000000116,
      "v": 100
    },
    {
      "midi": 48,
      "hit": false,
      "t": 146190.33000000002,
      "d": 238.09500000000116,
      "v": 100
    },
    {
      "midi": 55,
      "hit": false,
      "t": 146190.33000000002,
      "d": 238.09500000000116,
      "v": 100
    },
    {
      "midi": 60,
      "hit": false,
      "t": 146190.33000000002,
      "d": 238.09500000000116,
      "v": 100
    },
    {
      "midi": 64,
      "hit": false,
      "t": 146190.33000000002,
      "d": 238.09500000000116,
      "v": 100
    },
    {
      "midi": 45,
      "hit": false,
      "t": 146428.42500000002,
      "d": 238.09500000000116,
      "v": 100
    },
    {
      "midi": 55,
      "hit": false,
      "t": 146428.42500000002,
      "d": 238.09500000000116,
      "v": 100
    },
    {
      "midi": 60,
      "hit": false,
      "t": 146428.42500000002,
      "d": 238.09500000000116,
      "v": 100
    },
    {
      "midi": 64,
      "hit": false,
      "t": 146428.42500000002,
      "d": 238.09500000000116,
      "v": 100
    },
    {
      "midi": 43,
      "hit": false,
      "t": 146666.52000000002,
      "d": 7619.040000000008,
      "v": 100
    },
    {
      "midi": 50,
      "hit": false,
      "t": 146666.52000000002,
      "d": 7619.040000000008,
      "v": 100
    },
    {
      "midi": 55,
      "hit": false,
      "t": 146666.52000000002,
      "d": 7619.040000000008,
      "v": 100
    },
    {
      "midi": 58,
      "hit": false,
      "t": 146666.52000000002,
      "d": 7619.040000000008,
      "v": 100
    },
    {
      "midi": 43,
      "hit": false,
      "t": 171428.40000000002,
      "d": 714.2850000000035,
      "v": 100
    },
    {
      "midi": 50,
      "hit": false,
      "t": 171904.59000000003,
      "d": 357.1424999999872,
      "v": 100
    },
    {
      "midi": 55,
      "hit": false,
      "t": 171904.59000000003,
      "d": 357.1424999999872,
      "v": 100
    },
    {
      "midi": 58,
      "hit": false,
      "t": 171904.59000000003,
      "d": 357.1424999999872,
      "v": 100
    },
    {
      "midi": 43,
      "hit": false,
      "t": 172142.68500000003,
      "d": 357.1424999999872,
      "v": 100
    },
    {
      "midi": 50,
      "hit": false,
      "t": 172261.7325,
      "d": 357.1424999999872,
      "v": 100
    },
    {
      "midi": 55,
      "hit": false,
      "t": 172261.7325,
      "d": 357.1424999999872,
      "v": 100
    },
    {
      "midi": 58,
      "hit": false,
      "t": 172261.7325,
      "d": 357.1424999999872,
      "v": 100
    },
    {
      "midi": 43,
      "hit": false,
      "t": 172499.8275,
      "d": 357.1424999999872,
      "v": 100
    },
    {
      "midi": 50,
      "hit": false,
      "t": 172618.875,
      "d": 238.09500000000116,
      "v": 100
    },
    {
      "midi": 55,
      "hit": false,
      "t": 172618.875,
      "d": 238.09500000000116,
      "v": 100
    },
    {
      "midi": 58,
      "hit": false,
      "t": 172618.875,
      "d": 238.09500000000116,
      "v": 100
    },
    {
      "midi": 45,
      "hit": false,
      "t": 172856.97,
      "d": 476.1900000000023,
      "v": 100
    },
    {
      "midi": 50,
      "hit": false,
      "t": 172856.97,
      "d": 476.1900000000023,
      "v": 100
    },
    {
      "midi": 55,
      "hit": false,
      "t": 172856.97,
      "d": 476.1900000000023,
      "v": 100
    },
    {
      "midi": 58,
      "hit": false,
      "t": 172856.97,
      "d": 476.1900000000023,
      "v": 100
    },
    {
      "midi": 46,
      "hit": false,
      "t": 173333.16,
      "d": 714.2850000000035,
      "v": 100
    },
    {
      "midi": 50,
      "hit": false,
      "t": 173809.35,
      "d": 357.1424999999872,
      "v": 100
    },
    {
      "midi": 53,
      "hit": false,
      "t": 173809.35,
      "d": 357.1424999999872,
      "v": 100
    },
    {
      "midi": 58,
      "hit": false,
      "t": 173809.35,
      "d": 357.1424999999872,
      "v": 100
    },
    {
      "midi": 46,
      "hit": false,
      "t": 174047.445,
      "d": 357.1424999999872,
      "v": 100
    },
    {
      "midi": 50,
      "hit": false,
      "t": 174166.4925,
      "d": 357.1424999999872,
      "v": 100
    },
    {
      "midi": 53,
      "hit": false,
      "t": 174166.4925,
      "d": 357.1424999999872,
      "v": 100
    },
    {
      "midi": 58,
      "hit": false,
      "t": 174166.4925,
      "d": 357.1424999999872,
      "v": 100
    },
    {
      "midi": 46,
      "hit": false,
      "t": 174404.5875,
      "d": 357.1424999999872,
      "v": 100
    },
    {
      "midi": 50,
      "hit": false,
      "t": 174523.63499999998,
      "d": 238.09500000000116,
      "v": 100
    },
    {
      "midi": 53,
      "hit": false,
      "t": 174523.63499999998,
      "d": 238.09500000000116,
      "v": 100
    },
    {
      "midi": 58,
      "hit": false,
      "t": 174523.63499999998,
      "d": 238.09500000000116,
      "v": 100
    },
    {
      "midi": 50,
      "hit": false,
      "t": 174761.72999999998,
      "d": 238.09500000000116,
      "v": 100
    },
    {
      "midi": 53,
      "hit": false,
      "t": 174761.72999999998,
      "d": 238.09500000000116,
      "v": 100
    },
    {
      "midi": 58,
      "hit": false,
      "t": 174761.72999999998,
      "d": 238.09500000000116,
      "v": 100
    },
    {
      "midi": 48,
      "hit": false,
      "t": 174761.72999999998,
      "d": 476.1900000000023,
      "v": 100
    },
    {
      "midi": 50,
      "hit": false,
      "t": 174999.82499999998,
      "d": 238.09500000000116,
      "v": 100
    },
    {
      "midi": 53,
      "hit": false,
      "t": 174999.82499999998,
      "d": 238.09500000000116,
      "v": 100
    },
    {
      "midi": 58,
      "hit": false,
      "t": 174999.82499999998,
      "d": 238.09500000000116,
      "v": 100
    },
    {
      "midi": 50,
      "hit": false,
      "t": 175237.91999999998,
      "d": 714.2850000000035,
      "v": 100
    },
    {
      "midi": 53,
      "hit": false,
      "t": 175714.11,
      "d": 357.1424999999872,
      "v": 100
    },
    {
      "midi": 57,
      "hit": false,
      "t": 175714.11,
      "d": 357.1424999999872,
      "v": 100
    },
    {
      "midi": 62,
      "hit": false,
      "t": 175714.11,
      "d": 357.1424999999872,
      "v": 100
    },
    {
      "midi": 50,
      "hit": false,
      "t": 175952.205,
      "d": 357.1424999999872,
      "v": 100
    },
    {
      "midi": 53,
      "hit": false,
      "t": 176071.25249999997,
      "d": 357.1424999999872,
      "v": 100
    },
    {
      "midi": 57,
      "hit": false,
      "t": 176071.25249999997,
      "d": 357.1424999999872,
      "v": 100
    },
    {
      "midi": 62,
      "hit": false,
      "t": 176071.25249999997,
      "d": 357.1424999999872,
      "v": 100
    },
    {
      "midi": 50,
      "hit": false,
      "t": 176309.34749999997,
      "d": 357.1424999999872,
      "v": 100
    },
    {
      "midi": 53,
      "hit": false,
      "t": 176428.39499999996,
      "d": 238.09500000000116,
      "v": 100
    },
    {
      "midi": 57,
      "hit": false,
      "t": 176428.39499999996,
      "d": 238.09500000000116,
      "v": 100
    },
    {
      "midi": 62,
      "hit": false,
      "t": 176428.39499999996,
      "d": 238.09500000000116,
      "v": 100
    },
    {
      "midi": 53,
      "hit": false,
      "t": 176666.48999999996,
      "d": 238.09500000000116,
      "v": 100
    },
    {
      "midi": 57,
      "hit": false,
      "t": 176666.48999999996,
      "d": 238.09500000000116,
      "v": 100
    },
    {
      "midi": 62,
      "hit": false,
      "t": 176666.48999999996,
      "d": 238.09500000000116,
      "v": 100
    },
    {
      "midi": 50,
      "hit": false,
      "t": 176666.48999999996,
      "d": 476.1900000000023,
      "v": 100
    },
    {
      "midi": 53,
      "hit": false,
      "t": 176904.58499999996,
      "d": 238.09500000000116,
      "v": 100
    },
    {
      "midi": 57,
      "hit": false,
      "t": 176904.58499999996,
      "d": 238.09500000000116,
      "v": 100
    },
    {
      "midi": 62,
      "hit": false,
      "t": 176904.58499999996,
      "d": 238.09500000000116,
      "v": 100
    },
    {
      "midi": 48,
      "hit": false,
      "t": 177142.67999999996,
      "d": 714.2850000000035,
      "v": 100
    },
    {
      "midi": 55,
      "hit": false,
      "t": 177618.86999999997,
      "d": 357.1424999999872,
      "v": 100
    },
    {
      "midi": 60,
      "hit": false,
      "t": 177618.86999999997,
      "d": 357.1424999999872,
      "v": 100
    },
    {
      "midi": 64,
      "hit": false,
      "t": 177618.86999999997,
      "d": 357.1424999999872,
      "v": 100
    },
    {
      "midi": 48,
      "hit": false,
      "t": 177856.96499999997,
      "d": 357.1424999999872,
      "v": 100
    },
    {
      "midi": 55,
      "hit": false,
      "t": 177976.01249999995,
      "d": 357.1424999999872,
      "v": 100
    },
    {
      "midi": 60,
      "hit": false,
      "t": 177976.01249999995,
      "d": 357.1424999999872,
      "v": 100
    },
    {
      "midi": 64,
      "hit": false,
      "t": 177976.01249999995,
      "d": 357.1424999999872,
      "v": 100
    },
    {
      "midi": 48,
      "hit": false,
      "t": 178214.10749999995,
      "d": 357.1424999999872,
      "v": 100
    },
    {
      "midi": 55,
      "hit": false,
      "t": 178333.15499999994,
      "d": 238.09500000000116,
      "v": 100
    },
    {
      "midi": 60,
      "hit": false,
      "t": 178333.15499999994,
      "d": 238.09500000000116,
      "v": 100
    },
    {
      "midi": 64,
      "hit": false,
      "t": 178333.15499999994,
      "d": 238.09500000000116,
      "v": 100
    },
    {
      "midi": 48,
      "hit": false,
      "t": 178571.24999999994,
      "d": 238.09500000000116,
      "v": 100
    },
    {
      "midi": 55,
      "hit": false,
      "t": 178571.24999999994,
      "d": 238.09500000000116,
      "v": 100
    },
    {
      "midi": 60,
      "hit": false,
      "t": 178571.24999999994,
      "d": 238.09500000000116,
      "v": 100
    },
    {
      "midi": 64,
      "hit": false,
      "t": 178571.24999999994,
      "d": 238.09500000000116,
      "v": 100
    },
    {
      "midi": 45,
      "hit": false,
      "t": 178809.34499999994,
      "d": 238.09500000000116,
      "v": 100
    },
    {
      "midi": 55,
      "hit": false,
      "t": 178809.34499999994,
      "d": 238.09500000000116,
      "v": 100
    },
    {
      "midi": 60,
      "hit": false,
      "t": 178809.34499999994,
      "d": 238.09500000000116,
      "v": 100
    },
    {
      "midi": 64,
      "hit": false,
      "t": 178809.34499999994,
      "d": 238.09500000000116,
      "v": 100
    },
    {
      "midi": 43,
      "hit": false,
      "t": 179047.43999999994,
      "d": 714.2850000000035,
      "v": 100
    },
    {
      "midi": 50,
      "hit": false,
      "t": 179523.62999999995,
      "d": 357.1424999999872,
      "v": 100
    },
    {
      "midi": 55,
      "hit": false,
      "t": 179523.62999999995,
      "d": 357.1424999999872,
      "v": 100
    },
    {
      "midi": 58,
      "hit": false,
      "t": 179523.62999999995,
      "d": 357.1424999999872,
      "v": 100
    },
    {
      "midi": 43,
      "hit": false,
      "t": 179761.72499999995,
      "d": 357.1424999999872,
      "v": 100
    },
    {
      "midi": 50,
      "hit": false,
      "t": 179880.77249999993,
      "d": 357.1424999999872,
      "v": 100
    },
    {
      "midi": 55,
      "hit": false,
      "t": 179880.77249999993,
      "d": 357.1424999999872,
      "v": 100
    },
    {
      "midi": 58,
      "hit": false,
      "t": 179880.77249999993,
      "d": 357.1424999999872,
      "v": 100
    },
    {
      "midi": 43,
      "hit": false,
      "t": 180118.86749999993,
      "d": 357.1424999999872,
      "v": 100
    },
    {
      "midi": 50,
      "hit": false,
      "t": 180237.91499999992,
      "d": 238.09500000000116,
      "v": 100
    },
    {
      "midi": 55,
      "hit": false,
      "t": 180237.91499999992,
      "d": 238.09500000000116,
      "v": 100
    },
    {
      "midi": 58,
      "hit": false,
      "t": 180237.91499999992,
      "d": 238.09500000000116,
      "v": 100
    },
    {
      "midi": 45,
      "hit": false,
      "t": 180476.00999999992,
      "d": 476.1900000000023,
      "v": 100
    },
    {
      "midi": 50,
      "hit": false,
      "t": 180476.00999999992,
      "d": 476.1900000000023,
      "v": 100
    },
    {
      "midi": 55,
      "hit": false,
      "t": 180476.00999999992,
      "d": 476.1900000000023,
      "v": 100
    },
    {
      "midi": 58,
      "hit": false,
      "t": 180476.00999999992,
      "d": 476.1900000000023,
      "v": 100
    },
    {
      "midi": 46,
      "hit": false,
      "t": 180952.19999999992,
      "d": 714.2850000000035,
      "v": 100
    },
    {
      "midi": 50,
      "hit": false,
      "t": 181428.38999999993,
      "d": 357.1424999999872,
      "v": 100
    },
    {
      "midi": 53,
      "hit": false,
      "t": 181428.38999999993,
      "d": 357.1424999999872,
      "v": 100
    },
    {
      "midi": 58,
      "hit": false,
      "t": 181428.38999999993,
      "d": 357.1424999999872,
      "v": 100
    },
    {
      "midi": 46,
      "hit": false,
      "t": 181666.48499999993,
      "d": 357.1424999999872,
      "v": 100
    },
    {
      "midi": 50,
      "hit": false,
      "t": 181785.5324999999,
      "d": 357.1424999999872,
      "v": 100
    },
    {
      "midi": 53,
      "hit": false,
      "t": 181785.5324999999,
      "d": 357.1424999999872,
      "v": 100
    },
    {
      "midi": 58,
      "hit": false,
      "t": 181785.5324999999,
      "d": 357.1424999999872,
      "v": 100
    },
    {
      "midi": 46,
      "hit": false,
      "t": 182023.62749999992,
      "d": 357.1424999999872,
      "v": 100
    },
    {
      "midi": 50,
      "hit": false,
      "t": 182142.6749999999,
      "d": 238.09500000000116,
      "v": 100
    },
    {
      "midi": 53,
      "hit": false,
      "t": 182142.6749999999,
      "d": 238.09500000000116,
      "v": 100
    },
    {
      "midi": 58,
      "hit": false,
      "t": 182142.6749999999,
      "d": 238.09500000000116,
      "v": 100
    },
    {
      "midi": 50,
      "hit": false,
      "t": 182380.7699999999,
      "d": 238.09500000000116,
      "v": 100
    },
    {
      "midi": 53,
      "hit": false,
      "t": 182380.7699999999,
      "d": 238.09500000000116,
      "v": 100
    },
    {
      "midi": 58,
      "hit": false,
      "t": 182380.7699999999,
      "d": 238.09500000000116,
      "v": 100
    },
    {
      "midi": 48,
      "hit": false,
      "t": 182380.7699999999,
      "d": 476.1900000000023,
      "v": 100
    },
    {
      "midi": 50,
      "hit": false,
      "t": 182618.8649999999,
      "d": 238.09500000000116,
      "v": 100
    },
    {
      "midi": 53,
      "hit": false,
      "t": 182618.8649999999,
      "d": 238.09500000000116,
      "v": 100
    },
    {
      "midi": 58,
      "hit": false,
      "t": 182618.8649999999,
      "d": 238.09500000000116,
      "v": 100
    },
    {
      "midi": 50,
      "hit": false,
      "t": 182856.9599999999,
      "d": 714.2850000000035,
      "v": 100
    },
    {
      "midi": 53,
      "hit": false,
      "t": 183333.1499999999,
      "d": 357.1424999999872,
      "v": 100
    },
    {
      "midi": 57,
      "hit": false,
      "t": 183333.1499999999,
      "d": 357.1424999999872,
      "v": 100
    },
    {
      "midi": 62,
      "hit": false,
      "t": 183333.1499999999,
      "d": 357.1424999999872,
      "v": 100
    },
    {
      "midi": 50,
      "hit": false,
      "t": 183571.2449999999,
      "d": 357.1424999999872,
      "v": 100
    },
    {
      "midi": 53,
      "hit": false,
      "t": 183690.2924999999,
      "d": 357.1424999999872,
      "v": 100
    },
    {
      "midi": 57,
      "hit": false,
      "t": 183690.2924999999,
      "d": 357.1424999999872,
      "v": 100
    },
    {
      "midi": 62,
      "hit": false,
      "t": 183690.2924999999,
      "d": 357.1424999999872,
      "v": 100
    },
    {
      "midi": 50,
      "hit": false,
      "t": 183928.3874999999,
      "d": 357.1424999999872,
      "v": 100
    },
    {
      "midi": 53,
      "hit": false,
      "t": 184047.43499999988,
      "d": 238.09500000000116,
      "v": 100
    },
    {
      "midi": 57,
      "hit": false,
      "t": 184047.43499999988,
      "d": 238.09500000000116,
      "v": 100
    },
    {
      "midi": 62,
      "hit": false,
      "t": 184047.43499999988,
      "d": 238.09500000000116,
      "v": 100
    },
    {
      "midi": 53,
      "hit": false,
      "t": 184285.52999999988,
      "d": 238.09500000000116,
      "v": 100
    },
    {
      "midi": 57,
      "hit": false,
      "t": 184285.52999999988,
      "d": 238.09500000000116,
      "v": 100
    },
    {
      "midi": 62,
      "hit": false,
      "t": 184285.52999999988,
      "d": 238.09500000000116,
      "v": 100
    },
    {
      "midi": 50,
      "hit": false,
      "t": 184285.52999999988,
      "d": 476.1900000000023,
      "v": 100
    },
    {
      "midi": 53,
      "hit": false,
      "t": 184523.62499999988,
      "d": 238.09500000000116,
      "v": 100
    },
    {
      "midi": 57,
      "hit": false,
      "t": 184523.62499999988,
      "d": 238.09500000000116,
      "v": 100
    },
    {
      "midi": 62,
      "hit": false,
      "t": 184523.62499999988,
      "d": 238.09500000000116,
      "v": 100
    },
    {
      "midi": 48,
      "hit": false,
      "t": 184761.71999999988,
      "d": 714.2850000000035,
      "v": 100
    },
    {
      "midi": 55,
      "hit": false,
      "t": 185237.9099999999,
      "d": 357.1424999999872,
      "v": 100
    },
    {
      "midi": 60,
      "hit": false,
      "t": 185237.9099999999,
      "d": 357.1424999999872,
      "v": 100
    },
    {
      "midi": 64,
      "hit": false,
      "t": 185237.9099999999,
      "d": 357.1424999999872,
      "v": 100
    },
    {
      "midi": 48,
      "hit": false,
      "t": 185476.0049999999,
      "d": 357.1424999999872,
      "v": 100
    },
    {
      "midi": 55,
      "hit": false,
      "t": 185595.05249999987,
      "d": 357.1424999999872,
      "v": 100
    },
    {
      "midi": 60,
      "hit": false,
      "t": 185595.05249999987,
      "d": 357.1424999999872,
      "v": 100
    },
    {
      "midi": 64,
      "hit": false,
      "t": 185595.05249999987,
      "d": 357.1424999999872,
      "v": 100
    },
    {
      "midi": 48,
      "hit": false,
      "t": 185833.14749999988,
      "d": 357.1424999999872,
      "v": 100
    },
    {
      "midi": 55,
      "hit": false,
      "t": 185952.19499999986,
      "d": 238.09500000000116,
      "v": 100
    },
    {
      "midi": 60,
      "hit": false,
      "t": 185952.19499999986,
      "d": 238.09500000000116,
      "v": 100
    },
    {
      "midi": 64,
      "hit": false,
      "t": 185952.19499999986,
      "d": 238.09500000000116,
      "v": 100
    },
    {
      "midi": 48,
      "hit": false,
      "t": 186190.28999999986,
      "d": 238.09500000000116,
      "v": 100
    },
    {
      "midi": 55,
      "hit": false,
      "t": 186190.28999999986,
      "d": 238.09500000000116,
      "v": 100
    },
    {
      "midi": 60,
      "hit": false,
      "t": 186190.28999999986,
      "d": 238.09500000000116,
      "v": 100
    },
    {
      "midi": 64,
      "hit": false,
      "t": 186190.28999999986,
      "d": 238.09500000000116,
      "v": 100
    },
    {
      "midi": 45,
      "hit": false,
      "t": 186428.38499999986,
      "d": 238.09500000000116,
      "v": 100
    },
    {
      "midi": 55,
      "hit": false,
      "t": 186428.38499999986,
      "d": 238.09500000000116,
      "v": 100
    },
    {
      "midi": 60,
      "hit": false,
      "t": 186428.38499999986,
      "d": 238.09500000000116,
      "v": 100
    },
    {
      "midi": 64,
      "hit": false,
      "t": 186428.38499999986,
      "d": 238.09500000000116,
      "v": 100
    },
    {
      "midi": 43,
      "hit": false,
      "t": 186666.47999999986,
      "d": 714.2850000000035,
      "v": 100
    },
    {
      "midi": 50,
      "hit": false,
      "t": 187142.66999999987,
      "d": 357.1424999999872,
      "v": 100
    },
    {
      "midi": 55,
      "hit": false,
      "t": 187142.66999999987,
      "d": 357.1424999999872,
      "v": 100
    },
    {
      "midi": 58,
      "hit": false,
      "t": 187142.66999999987,
      "d": 357.1424999999872,
      "v": 100
    },
    {
      "midi": 43,
      "hit": false,
      "t": 187380.76499999987,
      "d": 357.1424999999872,
      "v": 100
    },
    {
      "midi": 50,
      "hit": false,
      "t": 187499.81249999985,
      "d": 357.1424999999872,
      "v": 100
    },
    {
      "midi": 55,
      "hit": false,
      "t": 187499.81249999985,
      "d": 357.1424999999872,
      "v": 100
    },
    {
      "midi": 58,
      "hit": false,
      "t": 187499.81249999985,
      "d": 357.1424999999872,
      "v": 100
    },
    {
      "midi": 43,
      "hit": false,
      "t": 187737.90749999986,
      "d": 357.1424999999872,
      "v": 100
    },
    {
      "midi": 50,
      "hit": false,
      "t": 187856.95499999984,
      "d": 238.09500000000116,
      "v": 100
    },
    {
      "midi": 55,
      "hit": false,
      "t": 187856.95499999984,
      "d": 238.09500000000116,
      "v": 100
    },
    {
      "midi": 58,
      "hit": false,
      "t": 187856.95499999984,
      "d": 238.09500000000116,
      "v": 100
    },
    {
      "midi": 45,
      "hit": false,
      "t": 188095.04999999984,
      "d": 476.1900000000023,
      "v": 100
    },
    {
      "midi": 50,
      "hit": false,
      "t": 188095.04999999984,
      "d": 476.1900000000023,
      "v": 100
    },
    {
      "midi": 55,
      "hit": false,
      "t": 188095.04999999984,
      "d": 476.1900000000023,
      "v": 100
    },
    {
      "midi": 58,
      "hit": false,
      "t": 188095.04999999984,
      "d": 476.1900000000023,
      "v": 100
    },
    {
      "midi": 46,
      "hit": false,
      "t": 188571.23999999985,
      "d": 714.2850000000035,
      "v": 100
    },
    {
      "midi": 50,
      "hit": false,
      "t": 189047.42999999985,
      "d": 357.1424999999872,
      "v": 100
    },
    {
      "midi": 53,
      "hit": false,
      "t": 189047.42999999985,
      "d": 357.1424999999872,
      "v": 100
    },
    {
      "midi": 58,
      "hit": false,
      "t": 189047.42999999985,
      "d": 357.1424999999872,
      "v": 100
    },
    {
      "midi": 46,
      "hit": false,
      "t": 189285.52499999985,
      "d": 357.1424999999872,
      "v": 100
    },
    {
      "midi": 50,
      "hit": false,
      "t": 189404.57249999983,
      "d": 357.1424999999872,
      "v": 100
    },
    {
      "midi": 53,
      "hit": false,
      "t": 189404.57249999983,
      "d": 357.1424999999872,
      "v": 100
    },
    {
      "midi": 58,
      "hit": false,
      "t": 189404.57249999983,
      "d": 357.1424999999872,
      "v": 100
    },
    {
      "midi": 46,
      "hit": false,
      "t": 189642.66749999984,
      "d": 357.1424999999872,
      "v": 100
    },
    {
      "midi": 50,
      "hit": false,
      "t": 189761.71499999982,
      "d": 238.09500000000116,
      "v": 100
    },
    {
      "midi": 53,
      "hit": false,
      "t": 189761.71499999982,
      "d": 238.09500000000116,
      "v": 100
    },
    {
      "midi": 58,
      "hit": false,
      "t": 189761.71499999982,
      "d": 238.09500000000116,
      "v": 100
    },
    {
      "midi": 50,
      "hit": false,
      "t": 189999.80999999982,
      "d": 238.09500000000116,
      "v": 100
    },
    {
      "midi": 53,
      "hit": false,
      "t": 189999.80999999982,
      "d": 238.09500000000116,
      "v": 100
    },
    {
      "midi": 58,
      "hit": false,
      "t": 189999.80999999982,
      "d": 238.09500000000116,
      "v": 100
    },
    {
      "midi": 48,
      "hit": false,
      "t": 189999.80999999982,
      "d": 476.1900000000023,
      "v": 100
    },
    {
      "midi": 50,
      "hit": false,
      "t": 190237.90499999982,
      "d": 238.09500000000116,
      "v": 100
    },
    {
      "midi": 53,
      "hit": false,
      "t": 190237.90499999982,
      "d": 238.09500000000116,
      "v": 100
    },
    {
      "midi": 58,
      "hit": false,
      "t": 190237.90499999982,
      "d": 238.09500000000116,
      "v": 100
    },
    {
      "midi": 50,
      "hit": false,
      "t": 190475.99999999983,
      "d": 714.2850000000035,
      "v": 100
    },
    {
      "midi": 53,
      "hit": false,
      "t": 190952.18999999983,
      "d": 357.1424999999872,
      "v": 100
    },
    {
      "midi": 57,
      "hit": false,
      "t": 190952.18999999983,
      "d": 357.1424999999872,
      "v": 100
    },
    {
      "midi": 62,
      "hit": false,
      "t": 190952.18999999983,
      "d": 357.1424999999872,
      "v": 100
    },
    {
      "midi": 50,
      "hit": false,
      "t": 191190.28499999983,
      "d": 357.1424999999872,
      "v": 100
    },
    {
      "midi": 53,
      "hit": false,
      "t": 191309.33249999981,
      "d": 357.1424999999872,
      "v": 100
    },
    {
      "midi": 57,
      "hit": false,
      "t": 191309.33249999981,
      "d": 357.1424999999872,
      "v": 100
    },
    {
      "midi": 62,
      "hit": false,
      "t": 191309.33249999981,
      "d": 357.1424999999872,
      "v": 100
    },
    {
      "midi": 50,
      "hit": false,
      "t": 191547.42749999982,
      "d": 357.1424999999872,
      "v": 100
    },
    {
      "midi": 53,
      "hit": false,
      "t": 191666.4749999998,
      "d": 238.09500000000116,
      "v": 100
    },
    {
      "midi": 57,
      "hit": false,
      "t": 191666.4749999998,
      "d": 238.09500000000116,
      "v": 100
    },
    {
      "midi": 62,
      "hit": false,
      "t": 191666.4749999998,
      "d": 238.09500000000116,
      "v": 100
    },
    {
      "midi": 53,
      "hit": false,
      "t": 191904.5699999998,
      "d": 238.09500000000116,
      "v": 100
    },
    {
      "midi": 57,
      "hit": false,
      "t": 191904.5699999998,
      "d": 238.09500000000116,
      "v": 100
    },
    {
      "midi": 62,
      "hit": false,
      "t": 191904.5699999998,
      "d": 238.09500000000116,
      "v": 100
    },
    {
      "midi": 50,
      "hit": false,
      "t": 191904.5699999998,
      "d": 476.1900000000023,
      "v": 100
    },
    {
      "midi": 53,
      "hit": false,
      "t": 192142.6649999998,
      "d": 238.09500000000116,
      "v": 100
    },
    {
      "midi": 57,
      "hit": false,
      "t": 192142.6649999998,
      "d": 238.09500000000116,
      "v": 100
    },
    {
      "midi": 62,
      "hit": false,
      "t": 192142.6649999998,
      "d": 238.09500000000116,
      "v": 100
    },
    {
      "midi": 48,
      "hit": false,
      "t": 192380.7599999998,
      "d": 714.2850000000035,
      "v": 100
    },
    {
      "midi": 55,
      "hit": false,
      "t": 192856.9499999998,
      "d": 357.1424999999872,
      "v": 100
    },
    {
      "midi": 60,
      "hit": false,
      "t": 192856.9499999998,
      "d": 357.1424999999872,
      "v": 100
    },
    {
      "midi": 64,
      "hit": false,
      "t": 192856.9499999998,
      "d": 357.1424999999872,
      "v": 100
    },
    {
      "midi": 48,
      "hit": false,
      "t": 193095.0449999998,
      "d": 357.1424999999872,
      "v": 100
    },
    {
      "midi": 55,
      "hit": false,
      "t": 193214.0924999998,
      "d": 357.1424999999872,
      "v": 100
    },
    {
      "midi": 60,
      "hit": false,
      "t": 193214.0924999998,
      "d": 357.1424999999872,
      "v": 100
    },
    {
      "midi": 64,
      "hit": false,
      "t": 193214.0924999998,
      "d": 357.1424999999872,
      "v": 100
    },
    {
      "midi": 48,
      "hit": false,
      "t": 193452.1874999998,
      "d": 357.1424999999872,
      "v": 100
    },
    {
      "midi": 55,
      "hit": false,
      "t": 193571.23499999978,
      "d": 238.09500000000116,
      "v": 100
    },
    {
      "midi": 60,
      "hit": false,
      "t": 193571.23499999978,
      "d": 238.09500000000116,
      "v": 100
    },
    {
      "midi": 64,
      "hit": false,
      "t": 193571.23499999978,
      "d": 238.09500000000116,
      "v": 100
    },
    {
      "midi": 48,
      "hit": false,
      "t": 193809.32999999978,
      "d": 238.09500000000116,
      "v": 100
    },
    {
      "midi": 55,
      "hit": false,
      "t": 193809.32999999978,
      "d": 238.09500000000116,
      "v": 100
    },
    {
      "midi": 60,
      "hit": false,
      "t": 193809.32999999978,
      "d": 238.09500000000116,
      "v": 100
    },
    {
      "midi": 64,
      "hit": false,
      "t": 193809.32999999978,
      "d": 238.09500000000116,
      "v": 100
    },
    {
      "midi": 45,
      "hit": false,
      "t": 194047.42499999978,
      "d": 238.09500000000116,
      "v": 100
    },
    {
      "midi": 55,
      "hit": false,
      "t": 194047.42499999978,
      "d": 238.09500000000116,
      "v": 100
    },
    {
      "midi": 60,
      "hit": false,
      "t": 194047.42499999978,
      "d": 238.09500000000116,
      "v": 100
    },
    {
      "midi": 64,
      "hit": false,
      "t": 194047.42499999978,
      "d": 238.09500000000116,
      "v": 100
    },
    {
      "midi": 43,
      "hit": false,
      "t": 194285.5199999998,
      "d": 714.2850000000035,
      "v": 100
    },
    {
      "midi": 50,
      "hit": false,
      "t": 194761.7099999998,
      "d": 357.1424999999872,
      "v": 100
    },
    {
      "midi": 55,
      "hit": false,
      "t": 194761.7099999998,
      "d": 357.1424999999872,
      "v": 100
    },
    {
      "midi": 58,
      "hit": false,
      "t": 194761.7099999998,
      "d": 357.1424999999872,
      "v": 100
    },
    {
      "midi": 43,
      "hit": false,
      "t": 194999.8049999998,
      "d": 357.1424999999872,
      "v": 100
    },
    {
      "midi": 50,
      "hit": false,
      "t": 195118.85249999978,
      "d": 357.1424999999872,
      "v": 100
    },
    {
      "midi": 55,
      "hit": false,
      "t": 195118.85249999978,
      "d": 357.1424999999872,
      "v": 100
    },
    {
      "midi": 58,
      "hit": false,
      "t": 195118.85249999978,
      "d": 357.1424999999872,
      "v": 100
    },
    {
      "midi": 43,
      "hit": false,
      "t": 195356.94749999978,
      "d": 357.1424999999872,
      "v": 100
    },
    {
      "midi": 50,
      "hit": false,
      "t": 195475.99499999976,
      "d": 238.09500000000116,
      "v": 100
    },
    {
      "midi": 55,
      "hit": false,
      "t": 195475.99499999976,
      "d": 238.09500000000116,
      "v": 100
    },
    {
      "midi": 58,
      "hit": false,
      "t": 195475.99499999976,
      "d": 238.09500000000116,
      "v": 100
    },
    {
      "midi": 45,
      "hit": false,
      "t": 195714.08999999976,
      "d": 476.1900000000023,
      "v": 100
    },
    {
      "midi": 50,
      "hit": false,
      "t": 195714.08999999976,
      "d": 476.1900000000023,
      "v": 100
    },
    {
      "midi": 55,
      "hit": false,
      "t": 195714.08999999976,
      "d": 476.1900000000023,
      "v": 100
    },
    {
      "midi": 58,
      "hit": false,
      "t": 195714.08999999976,
      "d": 476.1900000000023,
      "v": 100
    },
    {
      "midi": 46,
      "hit": false,
      "t": 196190.27999999977,
      "d": 714.2850000000035,
      "v": 100
    },
    {
      "midi": 50,
      "hit": false,
      "t": 196666.46999999977,
      "d": 357.1424999999872,
      "v": 100
    },
    {
      "midi": 53,
      "hit": false,
      "t": 196666.46999999977,
      "d": 357.1424999999872,
      "v": 100
    },
    {
      "midi": 58,
      "hit": false,
      "t": 196666.46999999977,
      "d": 357.1424999999872,
      "v": 100
    },
    {
      "midi": 46,
      "hit": false,
      "t": 196904.56499999977,
      "d": 357.1424999999872,
      "v": 100
    },
    {
      "midi": 50,
      "hit": false,
      "t": 197023.61249999976,
      "d": 357.1424999999872,
      "v": 100
    },
    {
      "midi": 53,
      "hit": false,
      "t": 197023.61249999976,
      "d": 357.1424999999872,
      "v": 100
    },
    {
      "midi": 58,
      "hit": false,
      "t": 197023.61249999976,
      "d": 357.1424999999872,
      "v": 100
    },
    {
      "midi": 46,
      "hit": false,
      "t": 197261.70749999976,
      "d": 357.1424999999872,
      "v": 100
    },
    {
      "midi": 50,
      "hit": false,
      "t": 197380.75499999974,
      "d": 238.09500000000116,
      "v": 100
    },
    {
      "midi": 53,
      "hit": false,
      "t": 197380.75499999974,
      "d": 238.09500000000116,
      "v": 100
    },
    {
      "midi": 58,
      "hit": false,
      "t": 197380.75499999974,
      "d": 238.09500000000116,
      "v": 100
    },
    {
      "midi": 50,
      "hit": false,
      "t": 197618.84999999974,
      "d": 238.09500000000116,
      "v": 100
    },
    {
      "midi": 53,
      "hit": false,
      "t": 197618.84999999974,
      "d": 238.09500000000116,
      "v": 100
    },
    {
      "midi": 58,
      "hit": false,
      "t": 197618.84999999974,
      "d": 238.09500000000116,
      "v": 100
    },
    {
      "midi": 48,
      "hit": false,
      "t": 197618.84999999974,
      "d": 476.1900000000023,
      "v": 100
    },
    {
      "midi": 50,
      "hit": false,
      "t": 197856.94499999975,
      "d": 238.09500000000116,
      "v": 100
    },
    {
      "midi": 53,
      "hit": false,
      "t": 197856.94499999975,
      "d": 238.09500000000116,
      "v": 100
    },
    {
      "midi": 58,
      "hit": false,
      "t": 197856.94499999975,
      "d": 238.09500000000116,
      "v": 100
    },
    {
      "midi": 50,
      "hit": false,
      "t": 198095.03999999975,
      "d": 714.2850000000035,
      "v": 100
    },
    {
      "midi": 53,
      "hit": false,
      "t": 198571.22999999975,
      "d": 357.1424999999872,
      "v": 100
    },
    {
      "midi": 57,
      "hit": false,
      "t": 198571.22999999975,
      "d": 357.1424999999872,
      "v": 100
    },
    {
      "midi": 62,
      "hit": false,
      "t": 198571.22999999975,
      "d": 357.1424999999872,
      "v": 100
    },
    {
      "midi": 50,
      "hit": false,
      "t": 198809.32499999975,
      "d": 357.1424999999872,
      "v": 100
    },
    {
      "midi": 53,
      "hit": false,
      "t": 198928.37249999974,
      "d": 357.1424999999872,
      "v": 100
    },
    {
      "midi": 57,
      "hit": false,
      "t": 198928.37249999974,
      "d": 357.1424999999872,
      "v": 100
    },
    {
      "midi": 62,
      "hit": false,
      "t": 198928.37249999974,
      "d": 357.1424999999872,
      "v": 100
    },
    {
      "midi": 50,
      "hit": false,
      "t": 199166.46749999974,
      "d": 357.1424999999872,
      "v": 100
    },
    {
      "midi": 53,
      "hit": false,
      "t": 199285.51499999972,
      "d": 238.09500000000116,
      "v": 100
    },
    {
      "midi": 57,
      "hit": false,
      "t": 199285.51499999972,
      "d": 238.09500000000116,
      "v": 100
    },
    {
      "midi": 62,
      "hit": false,
      "t": 199285.51499999972,
      "d": 238.09500000000116,
      "v": 100
    },
    {
      "midi": 53,
      "hit": false,
      "t": 199523.60999999972,
      "d": 238.09500000000116,
      "v": 100
    },
    {
      "midi": 57,
      "hit": false,
      "t": 199523.60999999972,
      "d": 238.09500000000116,
      "v": 100
    },
    {
      "midi": 62,
      "hit": false,
      "t": 199523.60999999972,
      "d": 238.09500000000116,
      "v": 100
    },
    {
      "midi": 50,
      "hit": false,
      "t": 199523.60999999972,
      "d": 476.1900000000023,
      "v": 100
    },
    {
      "midi": 53,
      "hit": false,
      "t": 199761.70499999973,
      "d": 238.09500000000116,
      "v": 100
    },
    {
      "midi": 57,
      "hit": false,
      "t": 199761.70499999973,
      "d": 238.09500000000116,
      "v": 100
    },
    {
      "midi": 62,
      "hit": false,
      "t": 199761.70499999973,
      "d": 238.09500000000116,
      "v": 100
    },
    {
      "midi": 48,
      "hit": false,
      "t": 199999.79999999973,
      "d": 714.2850000000035,
      "v": 100
    },
    {
      "midi": 55,
      "hit": false,
      "t": 200475.98999999973,
      "d": 357.1424999999872,
      "v": 100
    },
    {
      "midi": 60,
      "hit": false,
      "t": 200475.98999999973,
      "d": 357.1424999999872,
      "v": 100
    },
    {
      "midi": 64,
      "hit": false,
      "t": 200475.98999999973,
      "d": 357.1424999999872,
      "v": 100
    },
    {
      "midi": 48,
      "hit": false,
      "t": 200714.08499999973,
      "d": 357.1424999999872,
      "v": 100
    },
    {
      "midi": 55,
      "hit": false,
      "t": 200833.13249999972,
      "d": 357.1424999999872,
      "v": 100
    },
    {
      "midi": 60,
      "hit": false,
      "t": 200833.13249999972,
      "d": 357.1424999999872,
      "v": 100
    },
    {
      "midi": 64,
      "hit": false,
      "t": 200833.13249999972,
      "d": 357.1424999999872,
      "v": 100
    },
    {
      "midi": 48,
      "hit": false,
      "t": 201071.22749999972,
      "d": 357.1424999999872,
      "v": 100
    },
    {
      "midi": 55,
      "hit": false,
      "t": 201190.2749999997,
      "d": 238.09500000000116,
      "v": 100
    },
    {
      "midi": 60,
      "hit": false,
      "t": 201190.2749999997,
      "d": 238.09500000000116,
      "v": 100
    },
    {
      "midi": 64,
      "hit": false,
      "t": 201190.2749999997,
      "d": 238.09500000000116,
      "v": 100
    },
    {
      "midi": 48,
      "hit": false,
      "t": 201428.3699999997,
      "d": 238.09500000000116,
      "v": 100
    },
    {
      "midi": 55,
      "hit": false,
      "t": 201428.3699999997,
      "d": 238.09500000000116,
      "v": 100
    },
    {
      "midi": 60,
      "hit": false,
      "t": 201428.3699999997,
      "d": 238.09500000000116,
      "v": 100
    },
    {
      "midi": 64,
      "hit": false,
      "t": 201428.3699999997,
      "d": 238.09500000000116,
      "v": 100
    },
    {
      "midi": 45,
      "hit": false,
      "t": 201666.4649999997,
      "d": 238.09500000000116,
      "v": 100
    },
    {
      "midi": 55,
      "hit": false,
      "t": 201666.4649999997,
      "d": 238.09500000000116,
      "v": 100
    },
    {
      "midi": 60,
      "hit": false,
      "t": 201666.4649999997,
      "d": 238.09500000000116,
      "v": 100
    },
    {
      "midi": 64,
      "hit": false,
      "t": 201666.4649999997,
      "d": 238.09500000000116,
      "v": 100
    },
    {
      "midi": 43,
      "hit": false,
      "t": 201904.5599999997,
      "d": 714.2850000000035,
      "v": 100
    },
    {
      "midi": 50,
      "hit": false,
      "t": 202380.7499999997,
      "d": 357.1424999999872,
      "v": 100
    },
    {
      "midi": 55,
      "hit": false,
      "t": 202380.7499999997,
      "d": 357.1424999999872,
      "v": 100
    },
    {
      "midi": 58,
      "hit": false,
      "t": 202380.7499999997,
      "d": 357.1424999999872,
      "v": 100
    },
    {
      "midi": 43,
      "hit": false,
      "t": 202618.8449999997,
      "d": 357.1424999999872,
      "v": 100
    },
    {
      "midi": 50,
      "hit": false,
      "t": 202737.8924999997,
      "d": 357.1424999999872,
      "v": 100
    },
    {
      "midi": 55,
      "hit": false,
      "t": 202737.8924999997,
      "d": 357.1424999999872,
      "v": 100
    },
    {
      "midi": 58,
      "hit": false,
      "t": 202737.8924999997,
      "d": 357.1424999999872,
      "v": 100
    },
    {
      "midi": 43,
      "hit": false,
      "t": 202975.9874999997,
      "d": 357.1424999999872,
      "v": 100
    },
    {
      "midi": 50,
      "hit": false,
      "t": 203095.03499999968,
      "d": 238.09500000000116,
      "v": 100
    },
    {
      "midi": 55,
      "hit": false,
      "t": 203095.03499999968,
      "d": 238.09500000000116,
      "v": 100
    },
    {
      "midi": 58,
      "hit": false,
      "t": 203095.03499999968,
      "d": 238.09500000000116,
      "v": 100
    },
    {
      "midi": 45,
      "hit": false,
      "t": 203333.12999999968,
      "d": 476.1900000000023,
      "v": 100
    },
    {
      "midi": 50,
      "hit": false,
      "t": 203333.12999999968,
      "d": 476.1900000000023,
      "v": 100
    },
    {
      "midi": 55,
      "hit": false,
      "t": 203333.12999999968,
      "d": 476.1900000000023,
      "v": 100
    },
    {
      "midi": 58,
      "hit": false,
      "t": 203333.12999999968,
      "d": 476.1900000000023,
      "v": 100
    },
    {
      "midi": 46,
      "hit": false,
      "t": 203809.3199999997,
      "d": 714.2850000000035,
      "v": 100
    },
    {
      "midi": 50,
      "hit": false,
      "t": 204285.5099999997,
      "d": 357.1424999999872,
      "v": 100
    },
    {
      "midi": 53,
      "hit": false,
      "t": 204285.5099999997,
      "d": 357.1424999999872,
      "v": 100
    },
    {
      "midi": 58,
      "hit": false,
      "t": 204285.5099999997,
      "d": 357.1424999999872,
      "v": 100
    },
    {
      "midi": 46,
      "hit": false,
      "t": 204523.6049999997,
      "d": 357.1424999999872,
      "v": 100
    },
    {
      "midi": 50,
      "hit": false,
      "t": 204642.65249999968,
      "d": 357.1424999999872,
      "v": 100
    },
    {
      "midi": 53,
      "hit": false,
      "t": 204642.65249999968,
      "d": 357.1424999999872,
      "v": 100
    },
    {
      "midi": 58,
      "hit": false,
      "t": 204642.65249999968,
      "d": 357.1424999999872,
      "v": 100
    },
    {
      "midi": 46,
      "hit": false,
      "t": 204880.74749999968,
      "d": 357.1424999999872,
      "v": 100
    },
    {
      "midi": 50,
      "hit": false,
      "t": 204999.79499999966,
      "d": 238.09500000000116,
      "v": 100
    },
    {
      "midi": 53,
      "hit": false,
      "t": 204999.79499999966,
      "d": 238.09500000000116,
      "v": 100
    },
    {
      "midi": 58,
      "hit": false,
      "t": 204999.79499999966,
      "d": 238.09500000000116,
      "v": 100
    },
    {
      "midi": 50,
      "hit": false,
      "t": 205237.88999999966,
      "d": 238.09500000000116,
      "v": 100
    },
    {
      "midi": 53,
      "hit": false,
      "t": 205237.88999999966,
      "d": 238.09500000000116,
      "v": 100
    },
    {
      "midi": 58,
      "hit": false,
      "t": 205237.88999999966,
      "d": 238.09500000000116,
      "v": 100
    },
    {
      "midi": 48,
      "hit": false,
      "t": 205237.88999999966,
      "d": 476.1900000000023,
      "v": 100
    },
    {
      "midi": 50,
      "hit": false,
      "t": 205475.98499999967,
      "d": 238.09500000000116,
      "v": 100
    },
    {
      "midi": 53,
      "hit": false,
      "t": 205475.98499999967,
      "d": 238.09500000000116,
      "v": 100
    },
    {
      "midi": 58,
      "hit": false,
      "t": 205475.98499999967,
      "d": 238.09500000000116,
      "v": 100
    },
    {
      "midi": 50,
      "hit": false,
      "t": 205714.07999999967,
      "d": 714.2850000000035,
      "v": 100
    },
    {
      "midi": 53,
      "hit": false,
      "t": 206190.26999999967,
      "d": 357.1424999999872,
      "v": 100
    },
    {
      "midi": 57,
      "hit": false,
      "t": 206190.26999999967,
      "d": 357.1424999999872,
      "v": 100
    },
    {
      "midi": 62,
      "hit": false,
      "t": 206190.26999999967,
      "d": 357.1424999999872,
      "v": 100
    },
    {
      "midi": 50,
      "hit": false,
      "t": 206428.36499999967,
      "d": 357.1424999999872,
      "v": 100
    },
    {
      "midi": 53,
      "hit": false,
      "t": 206547.41249999966,
      "d": 357.1424999999872,
      "v": 100
    },
    {
      "midi": 57,
      "hit": false,
      "t": 206547.41249999966,
      "d": 357.1424999999872,
      "v": 100
    },
    {
      "midi": 62,
      "hit": false,
      "t": 206547.41249999966,
      "d": 357.1424999999872,
      "v": 100
    },
    {
      "midi": 50,
      "hit": false,
      "t": 206785.50749999966,
      "d": 357.1424999999872,
      "v": 100
    },
    {
      "midi": 53,
      "hit": false,
      "t": 206904.55499999964,
      "d": 238.09500000000116,
      "v": 100
    },
    {
      "midi": 57,
      "hit": false,
      "t": 206904.55499999964,
      "d": 238.09500000000116,
      "v": 100
    },
    {
      "midi": 62,
      "hit": false,
      "t": 206904.55499999964,
      "d": 238.09500000000116,
      "v": 100
    },
    {
      "midi": 53,
      "hit": false,
      "t": 207142.64999999964,
      "d": 238.09500000000116,
      "v": 100
    },
    {
      "midi": 57,
      "hit": false,
      "t": 207142.64999999964,
      "d": 238.09500000000116,
      "v": 100
    },
    {
      "midi": 62,
      "hit": false,
      "t": 207142.64999999964,
      "d": 238.09500000000116,
      "v": 100
    },
    {
      "midi": 50,
      "hit": false,
      "t": 207142.64999999964,
      "d": 476.1900000000023,
      "v": 100
    },
    {
      "midi": 53,
      "hit": false,
      "t": 207380.74499999965,
      "d": 238.09500000000116,
      "v": 100
    },
    {
      "midi": 57,
      "hit": false,
      "t": 207380.74499999965,
      "d": 238.09500000000116,
      "v": 100
    },
    {
      "midi": 62,
      "hit": false,
      "t": 207380.74499999965,
      "d": 238.09500000000116,
      "v": 100
    },
    {
      "midi": 48,
      "hit": false,
      "t": 207618.83999999965,
      "d": 714.2850000000035,
      "v": 100
    },
    {
      "midi": 55,
      "hit": false,
      "t": 208095.02999999965,
      "d": 357.1424999999872,
      "v": 100
    },
    {
      "midi": 60,
      "hit": false,
      "t": 208095.02999999965,
      "d": 357.1424999999872,
      "v": 100
    },
    {
      "midi": 64,
      "hit": false,
      "t": 208095.02999999965,
      "d": 357.1424999999872,
      "v": 100
    },
    {
      "midi": 48,
      "hit": false,
      "t": 208333.12499999965,
      "d": 357.1424999999872,
      "v": 100
    },
    {
      "midi": 55,
      "hit": false,
      "t": 208452.17249999964,
      "d": 357.1424999999872,
      "v": 100
    },
    {
      "midi": 60,
      "hit": false,
      "t": 208452.17249999964,
      "d": 357.1424999999872,
      "v": 100
    },
    {
      "midi": 64,
      "hit": false,
      "t": 208452.17249999964,
      "d": 357.1424999999872,
      "v": 100
    },
    {
      "midi": 48,
      "hit": false,
      "t": 208690.26749999964,
      "d": 357.1424999999872,
      "v": 100
    },
    {
      "midi": 55,
      "hit": false,
      "t": 208809.31499999962,
      "d": 238.09500000000116,
      "v": 100
    },
    {
      "midi": 60,
      "hit": false,
      "t": 208809.31499999962,
      "d": 238.09500000000116,
      "v": 100
    },
    {
      "midi": 64,
      "hit": false,
      "t": 208809.31499999962,
      "d": 238.09500000000116,
      "v": 100
    },
    {
      "midi": 48,
      "hit": false,
      "t": 209047.40999999963,
      "d": 238.09500000000116,
      "v": 100
    },
    {
      "midi": 55,
      "hit": false,
      "t": 209047.40999999963,
      "d": 238.09500000000116,
      "v": 100
    },
    {
      "midi": 60,
      "hit": false,
      "t": 209047.40999999963,
      "d": 238.09500000000116,
      "v": 100
    },
    {
      "midi": 64,
      "hit": false,
      "t": 209047.40999999963,
      "d": 238.09500000000116,
      "v": 100
    },
    {
      "midi": 48,
      "hit": false,
      "t": 209285.50499999963,
      "d": 238.09500000000116,
      "v": 100
    },
    {
      "midi": 55,
      "hit": false,
      "t": 209285.50499999963,
      "d": 238.09500000000116,
      "v": 100
    },
    {
      "midi": 60,
      "hit": false,
      "t": 209285.50499999963,
      "d": 238.09500000000116,
      "v": 100
    },
    {
      "midi": 64,
      "hit": false,
      "t": 209285.50499999963,
      "d": 238.09500000000116,
      "v": 100
    },
    {
      "midi": 65,
      "hit": false,
      "t": 209523.59999999963,
      "d": 238.09500000008848,
      "v": 100
    },
    {
      "midi": 38,
      "hit": false,
      "t": 209523.59999999963,
      "d": 3809.52000000095,
      "v": 100
    },
    {
      "midi": 50,
      "hit": false,
      "t": 209523.59999999963,
      "d": 3809.52000000095,
      "v": 100
    },
    {
      "midi": 53,
      "hit": false,
      "t": 209523.59999999963,
      "d": 3809.52000000095,
      "v": 100
    },
    {
      "midi": 57,
      "hit": false,
      "t": 209523.59999999963,
      "d": 3809.52000000095,
      "v": 100
    },
    {
      "midi": 62,
      "hit": false,
      "t": 209523.59999999963,
      "d": 3809.52000000095,
      "v": 100
    }
  ]
}