{
  "jsonPath": "Rock/Metalcore/Mirage/non-mollare-mai.json",
  "path": "Rock\\Metalcore\\Mirage\\Non mollare mai.mid",
  "name": "Non mollare mai",
  "difficulty": "Advanced",
  "bpm": 73.99998273333736,
  "notes": [
    {
      "midi": 77,
      "hit": false,
      "t": 6486.488,
      "d": 291.38520312500077,
      "v": 58
    },
    {
      "midi": 76,
      "hit": false,
      "t": 6689.190750000001,
      "d": 223.8176197916673,
      "v": 34
    },
    {
      "midi": 74,
      "hit": false,
      "t": 6891.893500000001,
      "d": 375.8446822916667,
      "v": 44
    },
    {
      "midi": 72,
      "hit": false,
      "t": 7094.596250000001,
      "d": 363.175760416666,
      "v": 42
    },
    {
      "midi": 77,
      "hit": false,
      "t": 7297.299000000001,
      "d": 261.8243854166658,
      "v": 48
    },
    {
      "midi": 76,
      "hit": false,
      "t": 7500.00175,
      "d": 240.70951562499977,
      "v": 44
    },
    {
      "midi": 74,
      "hit": false,
      "t": 7702.7045,
      "d": 380.06765625000025,
      "v": 45
    },
    {
      "midi": 72,
      "hit": false,
      "t": 7905.40725,
      "d": 599.6623020833322,
      "v": 43
    },
    {
      "midi": 77,
      "hit": false,
      "t": 8108.11,
      "d": 308.2770989583323,
      "v": 49
    },
    {
      "midi": 76,
      "hit": false,
      "t": 8310.81275,
      "d": 270.27033333333384,
      "v": 61
    },
    {
      "midi": 74,
      "hit": false,
      "t": 8513.5155,
      "d": 426.5203697916677,
      "v": 50
    },
    {
      "midi": 72,
      "hit": false,
      "t": 8716.21825,
      "d": 667.2298854166675,
      "v": 49
    },
    {
      "midi": 77,
      "hit": false,
      "t": 8918.921,
      "d": 291.38520312500077,
      "v": 51
    },
    {
      "midi": 76,
      "hit": false,
      "t": 9121.62375,
      "d": 282.93925520833363,
      "v": 45
    },
    {
      "midi": 74,
      "hit": false,
      "t": 9324.326500000001,
      "d": 316.72304687500036,
      "v": 58
    },
    {
      "midi": 72,
      "hit": false,
      "t": 9527.029250000001,
      "d": 426.5203697916677,
      "v": 46
    },
    {
      "midi": 77,
      "hit": false,
      "t": 9729.732000000002,
      "d": 249.1554635416669,
      "v": 51
    },
    {
      "midi": 76,
      "hit": false,
      "t": 9932.434750000002,
      "d": 278.716281250001,
      "v": 43
    },
    {
      "midi": 74,
      "hit": false,
      "t": 10135.137500000003,
      "d": 342.06089062499996,
      "v": 61
    },
    {
      "midi": 72,
      "hit": false,
      "t": 10337.840250000003,
      "d": 439.1892916666675,
      "v": 50
    },
    {
      "midi": 77,
      "hit": false,
      "t": 10540.543000000003,
      "d": 274.4933072916665,
      "v": 59
    },
    {
      "midi": 76,
      "hit": false,
      "t": 10743.245750000004,
      "d": 325.1689947916657,
      "v": 55
    },
    {
      "midi": 74,
      "hit": false,
      "t": 10945.948500000002,
      "d": 688.3447552083344,
      "v": 62
    },
    {
      "midi": 72,
      "hit": false,
      "t": 11148.651250000003,
      "d": 692.567729166667,
      "v": 54
    },
    {
      "midi": 77,
      "hit": false,
      "t": 11351.354000000003,
      "d": 515.2028229166663,
      "v": 59
    },
    {
      "midi": 76,
      "hit": false,
      "t": 11554.056750000003,
      "d": 346.2838645833326,
      "v": 50
    },
    {
      "midi": 74,
      "hit": false,
      "t": 11756.759500000004,
      "d": 608.1082499999993,
      "v": 61
    },
    {
      "midi": 72,
      "hit": false,
      "t": 11959.462250000002,
      "d": 658.7839375000003,
      "v": 62
    },
    {
      "midi": 77,
      "hit": false,
      "t": 12162.165000000003,
      "d": 532.0947187500005,
      "v": 62
    },
    {
      "midi": 76,
      "hit": false,
      "t": 12364.867750000003,
      "d": 350.5068385416671,
      "v": 45
    },
    {
      "midi": 74,
      "hit": false,
      "t": 12567.570500000003,
      "d": 641.8920416666679,
      "v": 64
    },
    {
      "midi": 72,
      "hit": false,
      "t": 12770.273250000004,
      "d": 532.0947187500005,
      "v": 52
    },
    {
      "midi": 77,
      "hit": false,
      "t": 12972.976000000004,
      "d": 287.1622291666663,
      "v": 62
    },
    {
      "midi": 76,
      "hit": false,
      "t": 13175.678750000005,
      "d": 249.1554635416669,
      "v": 52
    },
    {
      "midi": 74,
      "hit": false,
      "t": 13378.381500000005,
      "d": 295.60817708333343,
      "v": 44
    },
    {
      "midi": 72,
      "hit": false,
      "t": 13581.084250000005,
      "d": 316.72304687500036,
      "v": 51
    },
    {
      "midi": 77,
      "hit": false,
      "t": 13783.787000000006,
      "d": 211.14869791666752,
      "v": 49
    },
    {
      "midi": 76,
      "hit": false,
      "t": 13986.489750000006,
      "d": 253.37843749999956,
      "v": 47
    },
    {
      "midi": 74,
      "hit": false,
      "t": 14189.192500000006,
      "d": 384.290630208332,
      "v": 52
    },
    {
      "midi": 72,
      "hit": false,
      "t": 14391.895250000005,
      "d": 409.6284739583334,
      "v": 46
    },
    {
      "midi": 77,
      "hit": false,
      "t": 14594.598000000005,
      "d": 287.1622291666663,
      "v": 54
    },
    {
      "midi": 76,
      "hit": false,
      "t": 14797.300750000006,
      "d": 278.71628124999916,
      "v": 51
    },
    {
      "midi": 74,
      "hit": false,
      "t": 15000.003500000004,
      "d": 430.74334375000035,
      "v": 62
    },
    {
      "midi": 72,
      "hit": false,
      "t": 15202.706250000005,
      "d": 430.74334375000035,
      "v": 47
    },
    {
      "midi": 77,
      "hit": false,
      "t": 15405.409000000005,
      "d": 211.14869791666752,
      "v": 52
    },
    {
      "midi": 76,
      "hit": false,
      "t": 15608.111750000005,
      "d": 249.1554635416669,
      "v": 47
    },
    {
      "midi": 74,
      "hit": false,
      "t": 15810.814500000006,
      "d": 236.4865416666671,
      "v": 49
    },
    {
      "midi": 72,
      "hit": false,
      "t": 16013.517250000006,
      "d": 430.74334374999853,
      "v": 46
    },
    {
      "midi": 77,
      "hit": false,
      "t": 16216.220000000007,
      "d": 236.48654166666347,
      "v": 59
    },
    {
      "midi": 76,
      "hit": false,
      "t": 16418.922750000005,
      "d": 261.8243854166649,
      "v": 51
    },
    {
      "midi": 74,
      "hit": false,
      "t": 16621.625500000002,
      "d": 692.5677291666689,
      "v": 52
    },
    {
      "midi": 72,
      "hit": false,
      "t": 16824.328250000002,
      "d": 612.3312239583356,
      "v": 61
    },
    {
      "midi": 77,
      "hit": false,
      "t": 17027.031000000003,
      "d": 354.7298125000016,
      "v": 61
    },
    {
      "midi": 76,
      "hit": false,
      "t": 17229.733750000003,
      "d": 329.391968750002,
      "v": 64
    },
    {
      "midi": 74,
      "hit": false,
      "t": 17432.436500000003,
      "d": 696.7907031249997,
      "v": 70
    },
    {
      "midi": 72,
      "hit": false,
      "t": 17635.139250000004,
      "d": 637.6690677083352,
      "v": 70
    },
    {
      "midi": 77,
      "hit": false,
      "t": 17837.842000000004,
      "d": 532.0947187500024,
      "v": 70
    },
    {
      "midi": 76,
      "hit": false,
      "t": 18040.544750000005,
      "d": 502.5339010416683,
      "v": 62
    },
    {
      "midi": 74,
      "hit": false,
      "t": 18243.247500000005,
      "d": 713.682598958334,
      "v": 72
    },
    {
      "midi": 72,
      "hit": false,
      "t": 18445.950250000005,
      "d": 730.5744947916683,
      "v": 66
    },
    {
      "midi": 77,
      "hit": false,
      "t": 18648.653000000006,
      "d": 553.2095885416675,
      "v": 68
    },
    {
      "midi": 76,
      "hit": false,
      "t": 18851.355750000006,
      "d": 363.1757604166669,
      "v": 59
    },
    {
      "midi": 74,
      "hit": false,
      "t": 19054.058500000006,
      "d": 523.6487708333334,
      "v": 62
    },
    {
      "midi": 72,
      "hit": false,
      "t": 19256.761250000007,
      "d": 519.4257968749989,
      "v": 41
    },
    {
      "midi": 67,
      "hit": false,
      "t": 43986.496750000006,
      "d": 865.7096614583279,
      "v": 78
    },
    {
      "midi": 77,
      "hit": false,
      "t": 44189.1995,
      "d": 1228.8854218749912,
      "v": 78
    },
    {
      "midi": 76,
      "hit": false,
      "t": 44391.90225,
      "d": 1034.6286197916634,
      "v": 87
    },
    {
      "midi": 72,
      "hit": false,
      "t": 44797.30775,
      "d": 625.0001458333281,
      "v": 64
    },
    {
      "midi": 67,
      "hit": false,
      "t": 45000.0105,
      "d": 426.52036979166587,
      "v": 47
    },
    {
      "midi": 36,
      "hit": false,
      "t": 68108.124,
      "d": 3243.244000000006,
      "v": 96
    },
    {
      "midi": 48,
      "hit": false,
      "t": 68108.124,
      "d": 3243.244000000006,
      "v": 93
    },
    {
      "midi": 65,
      "hit": false,
      "t": 71351.368,
      "d": 1402.0273541666684,
      "v": 87
    },
    {
      "midi": 57,
      "hit": false,
      "t": 71351.368,
      "d": 1414.6962760416645,
      "v": 87
    },
    {
      "midi": 60,
      "hit": false,
      "t": 71351.368,
      "d": 1423.1422239583335,
      "v": 90
    },
    {
      "midi": 53,
      "hit": false,
      "t": 71351.368,
      "d": 1440.0341197916714,
      "v": 90
    },
    {
      "midi": 55,
      "hit": false,
      "t": 72972.99,
      "d": 1520.2706250000047,
      "v": 90
    },
    {
      "midi": 64,
      "hit": false,
      "t": 72972.99,
      "d": 1528.7165729166736,
      "v": 99
    },
    {
      "midi": 52,
      "hit": false,
      "t": 72972.99,
      "d": 1545.6084687500115,
      "v": 82
    },
    {
      "midi": 60,
      "hit": false,
      "t": 72972.99,
      "d": 1566.7233385416766,
      "v": 102
    },
    {
      "midi": 65,
      "hit": false,
      "t": 74594.61200000001,
      "d": 1427.3651979166607,
      "v": 96
    },
    {
      "midi": 57,
      "hit": false,
      "t": 74594.61200000001,
      "d": 1431.588171874988,
      "v": 87
    },
    {
      "midi": 62,
      "hit": false,
      "t": 74594.61200000001,
      "d": 1435.811145833315,
      "v": 93
    },
    {
      "midi": 50,
      "hit": false,
      "t": 74594.61200000001,
      "d": 1478.0408854166453,
      "v": 90
    },
    {
      "midi": 57,
      "hit": false,
      "t": 76216.23399999998,
      "d": 1427.3651979166607,
      "v": 87
    },
    {
      "midi": 64,
      "hit": false,
      "t": 76216.23399999998,
      "d": 1465.3719635416637,
      "v": 82
    },
    {
      "midi": 60,
      "hit": false,
      "t": 76216.23399999998,
      "d": 1499.155755208325,
      "v": 93
    },
    {
      "midi": 48,
      "hit": false,
      "t": 76216.23399999998,
      "d": 1541.3854947916552,
      "v": 84
    },
    {
      "midi": 46,
      "hit": false,
      "t": 77842.0789739583,
      "d": 1414.69627604165,
      "v": 93
    },
    {
      "midi": 65,
      "hit": false,
      "t": 77846.30194791663,
      "d": 1406.2503281249956,
      "v": 87
    },
    {
      "midi": 62,
      "hit": false,
      "t": 77846.30194791663,
      "d": 1427.3651979166607,
      "v": 93
    },
    {
      "midi": 60,
      "hit": false,
      "t": 79459.47799999996,
      "d": 1406.2503281249956,
      "v": 93
    },
    {
      "midi": 65,
      "hit": false,
      "t": 79459.47799999996,
      "d": 1418.9192499999917,
      "v": 90
    },
    {
      "midi": 45,
      "hit": false,
      "t": 79459.47799999996,
      "d": 1435.8111458333296,
      "v": 82
    },
    {
      "midi": 58,
      "hit": false,
      "t": 81081.09999999996,
      "d": 498.31092708333745,
      "v": 87
    },
    {
      "midi": 62,
      "hit": false,
      "t": 81081.09999999996,
      "d": 498.31092708333745,
      "v": 96
    },
    {
      "midi": 43,
      "hit": false,
      "t": 81081.09999999996,
      "d": 519.4257968750026,
      "v": 82
    },
    {
      "midi": 53,
      "hit": false,
      "t": 81689.20824999997,
      "d": 684.1217812499963,
      "v": 87
    },
    {
      "midi": 45,
      "hit": false,
      "t": 81689.20824999997,
      "d": 705.2366510416614,
      "v": 84
    },
    {
      "midi": 60,
      "hit": false,
      "t": 81689.20824999997,
      "d": 722.1285468749993,
      "v": 99
    },
    {
      "midi": 46,
      "hit": false,
      "t": 82500.01924999997,
      "d": 646.1150156249932,
      "v": 96
    },
    {
      "midi": 53,
      "hit": false,
      "t": 82500.01924999997,
      "d": 646.1150156249932,
      "v": 80
    },
    {
      "midi": 62,
      "hit": false,
      "t": 82500.01924999997,
      "d": 654.5609635416622,
      "v": 96
    },
    {
      "midi": 55,
      "hit": false,
      "t": 83310.83024999997,
      "d": 844.5947916666628,
      "v": 87
    },
    {
      "midi": 48,
      "hit": false,
      "t": 83310.83024999997,
      "d": 865.7096614583279,
      "v": 87
    },
    {
      "midi": 64,
      "hit": false,
      "t": 83310.83024999997,
      "d": 869.9326354166551,
      "v": 102
    },
    {
      "midi": 60,
      "hit": false,
      "t": 83310.83024999997,
      "d": 878.3785833333241,
      "v": 90
    },
    {
      "midi": 65,
      "hit": false,
      "t": 84324.34399999995,
      "d": 1402.0273541666684,
      "v": 87
    },
    {
      "midi": 57,
      "hit": false,
      "t": 84324.34399999995,
      "d": 1414.6962760416645,
      "v": 87
    },
    {
      "midi": 60,
      "hit": false,
      "t": 84324.34399999995,
      "d": 1423.1422239583335,
      "v": 90
    },
    {
      "midi": 53,
      "hit": false,
      "t": 84324.34399999995,
      "d": 1440.0341197916714,
      "v": 90
    },
    {
      "midi": 55,
      "hit": false,
      "t": 85945.96599999996,
      "d": 1520.2706250000047,
      "v": 90
    },
    {
      "midi": 64,
      "hit": false,
      "t": 85945.96599999996,
      "d": 1528.7165729166736,
      "v": 99
    },
    {
      "midi": 52,
      "hit": false,
      "t": 85945.96599999996,
      "d": 1545.6084687500115,
      "v": 82
    },
    {
      "midi": 60,
      "hit": false,
      "t": 85945.96599999996,
      "d": 1566.7233385416766,
      "v": 102
    },
    {
      "midi": 65,
      "hit": false,
      "t": 87567.58799999996,
      "d": 1427.3651979166607,
      "v": 96
    },
    {
      "midi": 57,
      "hit": false,
      "t": 87567.58799999996,
      "d": 1431.588171874988,
      "v": 87
    },
    {
      "midi": 62,
      "hit": false,
      "t": 87567.58799999996,
      "d": 1435.811145833315,
      "v": 93
    },
    {
      "midi": 50,
      "hit": false,
      "t": 87567.58799999996,
      "d": 1478.0408854166453,
      "v": 90
    },
    {
      "midi": 57,
      "hit": false,
      "t": 89189.20999999993,
      "d": 1427.3651979166607,
      "v": 87
    },
    {
      "midi": 64,
      "hit": false,
      "t": 89189.20999999993,
      "d": 1465.3719635416637,
      "v": 82
    },
    {
      "midi": 60,
      "hit": false,
      "t": 89189.20999999993,
      "d": 1499.155755208325,
      "v": 93
    },
    {
      "midi": 48,
      "hit": false,
      "t": 89189.20999999993,
      "d": 1541.3854947916552,
      "v": 84
    },
    {
      "midi": 46,
      "hit": false,
      "t": 90815.05497395825,
      "d": 1414.69627604165,
      "v": 93
    },
    {
      "midi": 65,
      "hit": false,
      "t": 90819.27794791658,
      "d": 1406.2503281249956,
      "v": 87
    },
    {
      "midi": 62,
      "hit": false,
      "t": 90819.27794791658,
      "d": 1427.3651979166607,
      "v": 93
    },
    {
      "midi": 60,
      "hit": false,
      "t": 92432.45399999991,
      "d": 1406.2503281249956,
      "v": 93
    },
    {
      "midi": 65,
      "hit": false,
      "t": 92432.45399999991,
      "d": 1418.9192499999917,
      "v": 90
    },
    {
      "midi": 45,
      "hit": false,
      "t": 92432.45399999991,
      "d": 1435.8111458333296,
      "v": 82
    },
    {
      "midi": 58,
      "hit": false,
      "t": 94054.07599999991,
      "d": 527.8717447916715,
      "v": 102
    },
    {
      "midi": 62,
      "hit": false,
      "t": 94054.07599999991,
      "d": 532.0947187499987,
      "v": 99
    },
    {
      "midi": 43,
      "hit": false,
      "t": 94054.07599999991,
      "d": 553.2095885416638,
      "v": 96
    },
    {
      "midi": 53,
      "hit": false,
      "t": 94662.1842499999,
      "d": 823.4799218749977,
      "v": 87
    },
    {
      "midi": 45,
      "hit": false,
      "t": 94662.1842499999,
      "d": 836.1488437499938,
      "v": 102
    },
    {
      "midi": 60,
      "hit": false,
      "t": 94662.1842499999,
      "d": 857.263713541659,
      "v": 102
    },
    {
      "midi": 53,
      "hit": false,
      "t": 95675.6979999999,
      "d": 494.0879531249957,
      "v": 93
    },
    {
      "midi": 46,
      "hit": false,
      "t": 95675.6979999999,
      "d": 519.4257968750026,
      "v": 105
    },
    {
      "midi": 62,
      "hit": false,
      "t": 95675.6979999999,
      "d": 519.4257968750026,
      "v": 105
    },
    {
      "midi": 55,
      "hit": false,
      "t": 96283.8062499999,
      "d": 874.1556093749969,
      "v": 93
    },
    {
      "midi": 64,
      "hit": false,
      "t": 96283.8062499999,
      "d": 899.4934531250037,
      "v": 105
    },
    {
      "midi": 48,
      "hit": false,
      "t": 96283.8062499999,
      "d": 941.723192708334,
      "v": 102
    },
    {
      "midi": 65,
      "hit": false,
      "t": 97297.3199999999,
      "d": 1402.0273541666684,
      "v": 87
    },
    {
      "midi": 57,
      "hit": false,
      "t": 97297.3199999999,
      "d": 1414.6962760416645,
      "v": 87
    },
    {
      "midi": 60,
      "hit": false,
      "t": 97297.3199999999,
      "d": 1423.1422239583335,
      "v": 90
    },
    {
      "midi": 53,
      "hit": false,
      "t": 97297.3199999999,
      "d": 1440.0341197916714,
      "v": 90
    },
    {
      "midi": 55,
      "hit": false,
      "t": 98918.94199999991,
      "d": 1520.2706250000047,
      "v": 90
    },
    {
      "midi": 64,
      "hit": false,
      "t": 98918.94199999991,
      "d": 1528.7165729166736,
      "v": 99
    },
    {
      "midi": 52,
      "hit": false,
      "t": 98918.94199999991,
      "d": 1545.6084687500115,
      "v": 82
    },
    {
      "midi": 60,
      "hit": false,
      "t": 98918.94199999991,
      "d": 1566.7233385416766,
      "v": 102
    },
    {
      "midi": 65,
      "hit": false,
      "t": 100540.56399999991,
      "d": 1427.3651979166607,
      "v": 96
    },
    {
      "midi": 57,
      "hit": false,
      "t": 100540.56399999991,
      "d": 1431.588171874988,
      "v": 87
    },
    {
      "midi": 62,
      "hit": false,
      "t": 100540.56399999991,
      "d": 1435.811145833315,
      "v": 93
    },
    {
      "midi": 50,
      "hit": false,
      "t": 100540.56399999991,
      "d": 1478.0408854166453,
      "v": 90
    },
    {
      "midi": 57,
      "hit": false,
      "t": 102162.18599999989,
      "d": 1427.3651979166607,
      "v": 87
    },
    {
      "midi": 64,
      "hit": false,
      "t": 102162.18599999989,
      "d": 1465.3719635416637,
      "v": 82
    },
    {
      "midi": 60,
      "hit": false,
      "t": 102162.18599999989,
      "d": 1499.155755208325,
      "v": 93
    },
    {
      "midi": 48,
      "hit": false,
      "t": 102162.18599999989,
      "d": 1541.3854947916552,
      "v": 84
    },
    {
      "midi": 48,
      "hit": false,
      "t": 103783.80799999987,
      "d": 1241.5543437500019,
      "v": 80
    },
    {
      "midi": 55,
      "hit": false,
      "t": 103783.80799999987,
      "d": 1241.5543437500019,
      "v": 90
    },
    {
      "midi": 60,
      "hit": false,
      "t": 103783.80799999987,
      "d": 1258.4462395833398,
      "v": 93
    },
    {
      "midi": 65,
      "hit": false,
      "t": 103783.80799999987,
      "d": 1279.561109375005,
      "v": 90
    },
    {
      "midi": 55,
      "hit": false,
      "t": 105202.72724999988,
      "d": 1469.5949375000055,
      "v": 102
    },
    {
      "midi": 60,
      "hit": false,
      "t": 105202.72724999988,
      "d": 1507.6017031250085,
      "v": 99
    },
    {
      "midi": 64,
      "hit": false,
      "t": 105202.72724999988,
      "d": 1541.3854947916698,
      "v": 99
    },
    {
      "midi": 48,
      "hit": false,
      "t": 105202.72724999988,
      "d": 1739.8652708333393,
      "v": 93
    },
    {
      "midi": 67,
      "hit": false,
      "t": 107027.05199999988,
      "d": 2690.0344114583277,
      "v": 87
    },
    {
      "midi": 62,
      "hit": false,
      "t": 107027.05199999988,
      "d": 2702.703333333324,
      "v": 93
    },
    {
      "midi": 59,
      "hit": false,
      "t": 108040.56574999988,
      "d": 891.0475052083348,
      "v": 10
    },
    {
      "midi": 67,
      "hit": false,
      "t": 109864.89049999986,
      "d": 270.27033333333384,
      "v": 72
    },
    {
      "midi": 62,
      "hit": false,
      "t": 109864.89049999986,
      "d": 282.93925520833,
      "v": 70
    },
    {
      "midi": 47,
      "hit": false,
      "t": 110270.29599999986,
      "d": 2364.8654166666674,
      "v": 76
    },
    {
      "midi": 62,
      "hit": false,
      "t": 110270.29599999986,
      "d": 2732.2641510416724,
      "v": 102
    },
    {
      "midi": 66,
      "hit": false,
      "t": 110270.29599999986,
      "d": 2740.7100989583414,
      "v": 99
    },
    {
      "midi": 52,
      "hit": false,
      "t": 113513.53999999986,
      "d": 2825.169578125002,
      "v": 87
    },
    {
      "midi": 67,
      "hit": false,
      "t": 113513.53999999986,
      "d": 2968.7506927083305,
      "v": 99
    },
    {
      "midi": 59,
      "hit": false,
      "t": 113513.53999999986,
      "d": 3044.7642239583365,
      "v": 82
    },
    {
      "midi": 62,
      "hit": false,
      "t": 116756.78399999987,
      "d": 2508.446531249996,
      "v": 93
    },
    {
      "midi": 47,
      "hit": false,
      "t": 116756.78399999987,
      "d": 2576.014114583333,
      "v": 78
    },
    {
      "midi": 79,
      "hit": false,
      "t": 118783.81149999987,
      "d": 1161.3178385416686,
      "v": 105
    },
    {
      "midi": 67,
      "hit": false,
      "t": 118783.81149999987,
      "d": 1178.2097343750065,
      "v": 102
    },
    {
      "midi": 66,
      "hit": false,
      "t": 118986.51424999986,
      "d": 325.1689947916748,
      "v": 87
    },
    {
      "midi": 78,
      "hit": false,
      "t": 118986.51424999986,
      "d": 958.6150885416719,
      "v": 99
    },
    {
      "midi": 62,
      "hit": false,
      "t": 119391.91974999987,
      "d": 548.9866145833366,
      "v": 93
    },
    {
      "midi": 74,
      "hit": false,
      "t": 119391.91974999987,
      "d": 548.9866145833366,
      "v": 105
    },
    {
      "midi": 48,
      "hit": false,
      "t": 120000.02799999987,
      "d": 1123.3110729166656,
      "v": 93
    },
    {
      "midi": 67,
      "hit": false,
      "t": 120000.02799999987,
      "d": 1406.2503281249956,
      "v": 90
    },
    {
      "midi": 64,
      "hit": false,
      "t": 120000.02799999987,
      "d": 1423.1422239583335,
      "v": 93
    },
    {
      "midi": 51,
      "hit": false,
      "t": 121621.64999999988,
      "d": 1038.8515937500051,
      "v": 84
    },
    {
      "midi": 67,
      "hit": false,
      "t": 121621.64999999988,
      "d": 1414.696276041679,
      "v": 99
    },
    {
      "midi": 60,
      "hit": false,
      "t": 121621.64999999988,
      "d": 1440.034119791686,
      "v": 84
    },
    {
      "midi": 47,
      "hit": false,
      "t": 123243.2719999999,
      "d": 781.2501822916674,
      "v": 50
    },
    {
      "midi": 67,
      "hit": false,
      "t": 123243.2719999999,
      "d": 1410.4733020833373,
      "v": 93
    },
    {
      "midi": 62,
      "hit": false,
      "t": 123243.2719999999,
      "d": 1423.1422239583335,
      "v": 99
    },
    {
      "midi": 52,
      "hit": false,
      "t": 124864.8939999999,
      "d": 523.6487708333298,
      "v": 99
    },
    {
      "midi": 57,
      "hit": false,
      "t": 124864.8939999999,
      "d": 532.0947187499987,
      "v": 99
    },
    {
      "midi": 66,
      "hit": false,
      "t": 124864.8939999999,
      "d": 548.9866145833366,
      "v": 102
    },
    {
      "midi": 59,
      "hit": false,
      "t": 125473.0022499999,
      "d": 924.831296874996,
      "v": 99
    },
    {
      "midi": 52,
      "hit": false,
      "t": 125473.0022499999,
      "d": 937.5002187499922,
      "v": 102
    },
    {
      "midi": 67,
      "hit": false,
      "t": 125473.0022499999,
      "d": 950.1691406249884,
      "v": 99
    },
    {
      "midi": 45,
      "hit": false,
      "t": 126486.51599999989,
      "d": 76.01353125000605,
      "v": 42
    },
    {
      "midi": 67,
      "hit": false,
      "t": 126486.51599999989,
      "d": 1545.6084687500115,
      "v": 90
    },
    {
      "midi": 61,
      "hit": false,
      "t": 126486.51599999989,
      "d": 2922.2979791666876,
      "v": 84
    },
    {
      "midi": 55,
      "hit": false,
      "t": 128108.1379999999,
      "d": 1123.3110729166656,
      "v": 64
    },
    {
      "midi": 38,
      "hit": false,
      "t": 129729.75999999991,
      "d": 3243.2439999999915,
      "v": 96
    },
    {
      "midi": 50,
      "hit": false,
      "t": 129729.75999999991,
      "d": 3243.2439999999915,
      "v": 93
    },
    {
      "midi": 67,
      "hit": false,
      "t": 132973.0039999999,
      "d": 1402.0273541666684,
      "v": 87
    },
    {
      "midi": 59,
      "hit": false,
      "t": 132973.0039999999,
      "d": 1414.696276041679,
      "v": 87
    },
    {
      "midi": 62,
      "hit": false,
      "t": 132973.0039999999,
      "d": 1423.1422239583335,
      "v": 90
    },
    {
      "midi": 55,
      "hit": false,
      "t": 132973.0039999999,
      "d": 1440.0341197916714,
      "v": 90
    },
    {
      "midi": 57,
      "hit": false,
      "t": 134594.6259999999,
      "d": 1520.2706250000047,
      "v": 90
    },
    {
      "midi": 66,
      "hit": false,
      "t": 134594.6259999999,
      "d": 1528.716572916659,
      "v": 99
    },
    {
      "midi": 54,
      "hit": false,
      "t": 134594.6259999999,
      "d": 1545.608468749997,
      "v": 82
    },
    {
      "midi": 62,
      "hit": false,
      "t": 134594.6259999999,
      "d": 1566.723338541662,
      "v": 102
    },
    {
      "midi": 67,
      "hit": false,
      "t": 136216.2479999999,
      "d": 1427.3651979166607,
      "v": 96
    },
    {
      "midi": 59,
      "hit": false,
      "t": 136216.2479999999,
      "d": 1431.588171874988,
      "v": 87
    },
    {
      "midi": 64,
      "hit": false,
      "t": 136216.2479999999,
      "d": 1435.811145833315,
      "v": 93
    },
    {
      "midi": 52,
      "hit": false,
      "t": 136216.2479999999,
      "d": 1478.0408854166453,
      "v": 90
    },
    {
      "midi": 59,
      "hit": false,
      "t": 137837.86999999988,
      "d": 1427.3651979166607,
      "v": 87
    },
    {
      "midi": 66,
      "hit": false,
      "t": 137837.86999999988,
      "d": 1465.3719635416637,
      "v": 82
    },
    {
      "midi": 62,
      "hit": false,
      "t": 137837.86999999988,
      "d": 1499.1557552083395,
      "v": 93
    },
    {
      "midi": 50,
      "hit": false,
      "t": 137837.86999999988,
      "d": 1541.3854947916698,
      "v": 84
    },
    {
      "midi": 48,
      "hit": false,
      "t": 139463.7149739582,
      "d": 1414.69627604165,
      "v": 93
    },
    {
      "midi": 67,
      "hit": false,
      "t": 139467.93794791654,
      "d": 1406.2503281249956,
      "v": 87
    },
    {
      "midi": 64,
      "hit": false,
      "t": 139467.93794791654,
      "d": 1427.3651979166607,
      "v": 93
    },
    {
      "midi": 62,
      "hit": false,
      "t": 141081.11399999986,
      "d": 1406.2503281249956,
      "v": 93
    },
    {
      "midi": 67,
      "hit": false,
      "t": 141081.11399999986,
      "d": 1418.9192500000063,
      "v": 90
    },
    {
      "midi": 47,
      "hit": false,
      "t": 141081.11399999986,
      "d": 1435.8111458333442,
      "v": 82
    },
    {
      "midi": 60,
      "hit": false,
      "t": 142702.73599999986,
      "d": 498.31092708333745,
      "v": 87
    },
    {
      "midi": 64,
      "hit": false,
      "t": 142702.73599999986,
      "d": 498.31092708333745,
      "v": 96
    },
    {
      "midi": 45,
      "hit": false,
      "t": 142702.73599999986,
      "d": 519.4257968750026,
      "v": 82
    },
    {
      "midi": 55,
      "hit": false,
      "t": 143310.84424999985,
      "d": 684.1217812499963,
      "v": 87
    },
    {
      "midi": 47,
      "hit": false,
      "t": 143310.84424999985,
      "d": 705.2366510416614,
      "v": 84
    },
    {
      "midi": 62,
      "hit": false,
      "t": 143310.84424999985,
      "d": 722.1285468749993,
      "v": 99
    },
    {
      "midi": 48,
      "hit": false,
      "t": 144121.65524999984,
      "d": 646.1150156249932,
      "v": 96
    },
    {
      "midi": 55,
      "hit": false,
      "t": 144121.65524999984,
      "d": 646.1150156249932,
      "v": 80
    },
    {
      "midi": 64,
      "hit": false,
      "t": 144121.65524999984,
      "d": 654.5609635416477,
      "v": 96
    },
    {
      "midi": 57,
      "hit": false,
      "t": 144932.46624999982,
      "d": 844.5947916666628,
      "v": 87
    },
    {
      "midi": 50,
      "hit": false,
      "t": 144932.46624999982,
      "d": 865.7096614583279,
      "v": 87
    },
    {
      "midi": 66,
      "hit": false,
      "t": 144932.46624999982,
      "d": 869.9326354166551,
      "v": 102
    },
    {
      "midi": 62,
      "hit": false,
      "t": 144932.46624999982,
      "d": 878.3785833333095,
      "v": 90
    },
    {
      "midi": 67,
      "hit": false,
      "t": 145945.9799999998,
      "d": 1402.0273541666684,
      "v": 87
    },
    {
      "midi": 59,
      "hit": false,
      "t": 145945.9799999998,
      "d": 1414.696276041679,
      "v": 87
    },
    {
      "midi": 62,
      "hit": false,
      "t": 145945.9799999998,
      "d": 1423.1422239583335,
      "v": 90
    },
    {
      "midi": 55,
      "hit": false,
      "t": 145945.9799999998,
      "d": 1440.0341197916714,
      "v": 90
    },
    {
      "midi": 57,
      "hit": false,
      "t": 147567.6019999998,
      "d": 1520.2706250000047,
      "v": 90
    },
    {
      "midi": 66,
      "hit": false,
      "t": 147567.6019999998,
      "d": 1528.716572916659,
      "v": 99
    },
    {
      "midi": 54,
      "hit": false,
      "t": 147567.6019999998,
      "d": 1545.608468749997,
      "v": 82
    },
    {
      "midi": 62,
      "hit": false,
      "t": 147567.6019999998,
      "d": 1566.723338541662,
      "v": 102
    },
    {
      "midi": 67,
      "hit": false,
      "t": 149189.2239999998,
      "d": 1427.3651979166607,
      "v": 96
    },
    {
      "midi": 59,
      "hit": false,
      "t": 149189.2239999998,
      "d": 1431.588171874988,
      "v": 87
    },
    {
      "midi": 64,
      "hit": false,
      "t": 149189.2239999998,
      "d": 1435.811145833315,
      "v": 93
    },
    {
      "midi": 52,
      "hit": false,
      "t": 149189.2239999998,
      "d": 1478.0408854166453,
      "v": 90
    },
    {
      "midi": 59,
      "hit": false,
      "t": 150810.8459999998,
      "d": 1427.3651979166607,
      "v": 87
    },
    {
      "midi": 66,
      "hit": false,
      "t": 150810.8459999998,
      "d": 1465.3719635416637,
      "v": 82
    },
    {
      "midi": 62,
      "hit": false,
      "t": 150810.8459999998,
      "d": 1499.1557552083395,
      "v": 93
    },
    {
      "midi": 50,
      "hit": false,
      "t": 150810.8459999998,
      "d": 1541.3854947916698,
      "v": 84
    },
    {
      "midi": 48,
      "hit": false,
      "t": 152436.69097395812,
      "d": 1414.69627604165,
      "v": 93
    },
    {
      "midi": 67,
      "hit": false,
      "t": 152440.91394791644,
      "d": 1406.2503281249956,
      "v": 87
    },
    {
      "midi": 64,
      "hit": false,
      "t": 152440.91394791644,
      "d": 1427.3651979166607,
      "v": 93
    },
    {
      "midi": 62,
      "hit": false,
      "t": 154054.08999999976,
      "d": 1406.2503281249956,
      "v": 93
    },
    {
      "midi": 67,
      "hit": false,
      "t": 154054.08999999976,
      "d": 1418.9192500000063,
      "v": 90
    },
    {
      "midi": 47,
      "hit": false,
      "t": 154054.08999999976,
      "d": 1435.8111458333442,
      "v": 82
    },
    {
      "midi": 60,
      "hit": false,
      "t": 155675.71199999977,
      "d": 527.871744791657,
      "v": 102
    },
    {
      "midi": 64,
      "hit": false,
      "t": 155675.71199999977,
      "d": 532.0947187499842,
      "v": 99
    },
    {
      "midi": 45,
      "hit": false,
      "t": 155675.71199999977,
      "d": 553.2095885416493,
      "v": 96
    },
    {
      "midi": 55,
      "hit": false,
      "t": 156283.82024999976,
      "d": 823.4799218749977,
      "v": 87
    },
    {
      "midi": 47,
      "hit": false,
      "t": 156283.82024999976,
      "d": 836.1488437500084,
      "v": 102
    },
    {
      "midi": 62,
      "hit": false,
      "t": 156283.82024999976,
      "d": 857.2637135416735,
      "v": 102
    },
    {
      "midi": 55,
      "hit": false,
      "t": 157297.33399999977,
      "d": 494.08795312501024,
      "v": 93
    },
    {
      "midi": 48,
      "hit": false,
      "t": 157297.33399999977,
      "d": 519.4257968750026,
      "v": 105
    },
    {
      "midi": 64,
      "hit": false,
      "t": 157297.33399999977,
      "d": 519.4257968750026,
      "v": 105
    },
    {
      "midi": 57,
      "hit": false,
      "t": 157905.44224999976,
      "d": 874.1556093750114,
      "v": 93
    },
    {
      "midi": 66,
      "hit": false,
      "t": 157905.44224999976,
      "d": 899.4934531250037,
      "v": 105
    },
    {
      "midi": 50,
      "hit": false,
      "t": 157905.44224999976,
      "d": 941.723192708334,
      "v": 102
    },
    {
      "midi": 52,
      "hit": false,
      "t": 158918.95599999977,
      "d": 2326.8586510416644,
      "v": 93
    },
    {
      "midi": 59,
      "hit": false,
      "t": 158918.95599999977,
      "d": 2356.419468749984,
      "v": 84
    },
    {
      "midi": 67,
      "hit": false,
      "t": 158918.95599999977,
      "d": 2491.554635416658,
      "v": 99
    },
    {
      "midi": 59,
      "hit": false,
      "t": 161351.38899999976,
      "d": 80.23650520833326,
      "v": 43
    },
    {
      "midi": 59,
      "hit": false,
      "t": 161554.09174999976,
      "d": 527.871744791657,
      "v": 82
    },
    {
      "midi": 52,
      "hit": false,
      "t": 161554.09174999976,
      "d": 540.5406666666677,
      "v": 90
    },
    {
      "midi": 67,
      "hit": false,
      "t": 161554.09174999976,
      "d": 553.2095885416784,
      "v": 93
    },
    {
      "midi": 66,
      "hit": false,
      "t": 162162.19999999978,
      "d": 3053.210171874991,
      "v": 102
    },
    {
      "midi": 59,
      "hit": false,
      "t": 162162.19999999978,
      "d": 3061.6561197916453,
      "v": 72
    },
    {
      "midi": 50,
      "hit": false,
      "t": 162162.19999999978,
      "d": 3070.1020677082997,
      "v": 96
    },
    {
      "midi": 64,
      "hit": false,
      "t": 165405.44399999976,
      "d": 2314.189729166683,
      "v": 102
    },
    {
      "midi": 60,
      "hit": false,
      "t": 165405.44399999976,
      "d": 2322.635677083337,
      "v": 105
    },
    {
      "midi": 48,
      "hit": false,
      "t": 165405.44399999976,
      "d": 2360.6424427083402,
      "v": 96
    },
    {
      "midi": 55,
      "hit": false,
      "t": 165810.84949999975,
      "d": 308.2770989583223,
      "v": 68
    },
    {
      "midi": 56,
      "hit": false,
      "t": 166216.25499999974,
      "d": 739.0204427083372,
      "v": 102
    },
    {
      "midi": 57,
      "hit": false,
      "t": 167027.06599999976,
      "d": 717.9055729166721,
      "v": 93
    },
    {
      "midi": 57,
      "hit": false,
      "t": 167837.87699999977,
      "d": 743.2434166666644,
      "v": 87
    },
    {
      "midi": 50,
      "hit": false,
      "t": 167837.87699999977,
      "d": 751.6893645833188,
      "v": 96
    },
    {
      "midi": 62,
      "hit": false,
      "t": 167837.87699999977,
      "d": 768.5812604166567,
      "v": 105
    },
    {
      "midi": 66,
      "hit": false,
      "t": 167837.87699999977,
      "d": 810.810999999987,
      "v": 87
    },
    {
      "midi": 57,
      "hit": false,
      "t": 168648.68799999976,
      "d": 1173.9867604166793,
      "v": 99
    },
    {
      "midi": 62,
      "hit": false,
      "t": 168648.68799999976,
      "d": 1566.723338541662,
      "v": 99
    },
    {
      "midi": 47,
      "hit": false,
      "t": 168648.68799999976,
      "d": 3065.8790937499725,
      "v": 84
    },
    {
      "midi": 57,
      "hit": false,
      "t": 170067.60724999977,
      "d": 380.06765625000116,
      "v": 102
    },
    {
      "midi": 69,
      "hit": false,
      "t": 170067.60724999977,
      "d": 1173.9867604166502,
      "v": 99
    },
    {
      "midi": 55,
      "hit": false,
      "t": 170473.01274999976,
      "d": 447.6352395833237,
      "v": 99
    },
    {
      "midi": 67,
      "hit": false,
      "t": 170473.01274999976,
      "d": 701.0136770833342,
      "v": 96
    },
    {
      "midi": 54,
      "hit": false,
      "t": 170878.41824999976,
      "d": 451.8582135416509,
      "v": 96
    },
    {
      "midi": 66,
      "hit": false,
      "t": 170878.41824999976,
      "d": 498.31092708330834,
      "v": 99
    },
    {
      "midi": 67,
      "hit": false,
      "t": 171283.82374999975,
      "d": 523.6487708333298,
      "v": 90
    },
    {
      "midi": 55,
      "hit": false,
      "t": 171283.82374999975,
      "d": 570.1014843749872,
      "v": 96
    },
    {
      "midi": 45,
      "hit": false,
      "t": 171891.93199999974,
      "d": 1250.0002916666563,
      "v": 102
    },
    {
      "midi": 64,
      "hit": false,
      "t": 171891.93199999974,
      "d": 1250.0002916666563,
      "v": 93
    },
    {
      "midi": 60,
      "hit": false,
      "t": 171891.93199999974,
      "d": 1258.4462395833107,
      "v": 102
    },
    {
      "midi": 57,
      "hit": false,
      "t": 171891.93199999974,
      "d": 1271.1151614583214,
      "v": 90
    },
    {
      "midi": 45,
      "hit": false,
      "t": 173310.85124999972,
      "d": 646.1150156249932,
      "v": 96
    },
    {
      "midi": 60,
      "hit": false,
      "t": 173310.85124999972,
      "d": 663.0069114583312,
      "v": 93
    },
    {
      "midi": 64,
      "hit": false,
      "t": 173310.85124999972,
      "d": 663.0069114583312,
      "v": 93
    },
    {
      "midi": 57,
      "hit": false,
      "t": 173310.85124999972,
      "d": 667.2298854166584,
      "v": 84
    },
    {
      "midi": 45,
      "hit": false,
      "t": 174121.6622499997,
      "d": 945.946166666632,
      "v": 102
    },
    {
      "midi": 57,
      "hit": false,
      "t": 174121.6622499997,
      "d": 954.3921145832865,
      "v": 90
    },
    {
      "midi": 60,
      "hit": false,
      "t": 174121.6622499997,
      "d": 954.3921145832865,
      "v": 96
    },
    {
      "midi": 64,
      "hit": false,
      "t": 174932.4732499997,
      "d": 105.57434895832557,
      "v": 90
    },
    {
      "midi": 59,
      "hit": false,
      "t": 174932.4732499997,
      "d": 1790.5409583332948,
      "v": 90
    },
    {
      "midi": 55,
      "hit": false,
      "t": 174932.4732499997,
      "d": 1798.9869062499492,
      "v": 90
    },
    {
      "midi": 42,
      "hit": false,
      "t": 178378.41999999963,
      "d": 1376.689510416676,
      "v": 93
    },
    {
      "midi": 64,
      "hit": false,
      "t": 178378.41999999963,
      "d": 1380.9124843750033,
      "v": 87
    },
    {
      "midi": 58,
      "hit": false,
      "t": 178378.41999999963,
      "d": 1402.0273541666684,
      "v": 84
    },
    {
      "midi": 64,
      "hit": false,
      "t": 180000.04199999964,
      "d": 1511.8246770833211,
      "v": 84
    },
    {
      "midi": 59,
      "hit": false,
      "t": 180000.04199999964,
      "d": 1516.0476510416484,
      "v": 84
    },
    {
      "midi": 43,
      "hit": false,
      "t": 180000.04199999964,
      "d": 1524.4935989583028,
      "v": 90
    },
    {
      "midi": 62,
      "hit": false,
      "t": 181621.6639999996,
      "d": 2081.9261614583374,
      "v": 105
    },
    {
      "midi": 57,
      "hit": false,
      "t": 181621.6639999996,
      "d": 2994.088536458323,
      "v": 93
    },
    {
      "midi": 66,
      "hit": false,
      "t": 181621.6639999996,
      "d": 3103.8858593749756,
      "v": 90
    },
    {
      "midi": 50,
      "hit": false,
      "t": 181621.6639999996,
      "d": 3205.237234374974,
      "v": 99
    },
    {
      "midi": 38,
      "hit": false,
      "t": 183040.58324999962,
      "d": 1824.3247499999707,
      "v": 102
    },
    {
      "midi": 62,
      "hit": false,
      "t": 183851.3942499996,
      "d": 118.24327083333628,
      "v": 39
    },
    {
      "midi": 62,
      "hit": false,
      "t": 184054.0969999996,
      "d": 679.89880729164,
      "v": 41
    },
    {
      "midi": 69,
      "hit": false,
      "t": 184864.9079999996,
      "d": 1402.0273541666684,
      "v": 87
    },
    {
      "midi": 61,
      "hit": false,
      "t": 184864.9079999996,
      "d": 1414.696276041679,
      "v": 87
    },
    {
      "midi": 64,
      "hit": false,
      "t": 184864.9079999996,
      "d": 1423.1422239583335,
      "v": 90
    },
    {
      "midi": 57,
      "hit": false,
      "t": 184864.9079999996,
      "d": 1440.0341197916714,
      "v": 90
    },
    {
      "midi": 59,
      "hit": false,
      "t": 186486.5299999996,
      "d": 1520.2706250000047,
      "v": 90
    },
    {
      "midi": 68,
      "hit": false,
      "t": 186486.5299999996,
      "d": 1528.716572916659,
      "v": 99
    },
    {
      "midi": 56,
      "hit": false,
      "t": 186486.5299999996,
      "d": 1545.608468749997,
      "v": 82
    },
    {
      "midi": 64,
      "hit": false,
      "t": 186486.5299999996,
      "d": 1566.723338541662,
      "v": 102
    },
    {
      "midi": 69,
      "hit": false,
      "t": 188108.1519999996,
      "d": 1427.3651979166607,
      "v": 96
    },
    {
      "midi": 61,
      "hit": false,
      "t": 188108.1519999996,
      "d": 1431.588171874988,
      "v": 87
    },
    {
      "midi": 66,
      "hit": false,
      "t": 188108.1519999996,
      "d": 1435.811145833315,
      "v": 93
    },
    {
      "midi": 54,
      "hit": false,
      "t": 188108.1519999996,
      "d": 1478.0408854166453,
      "v": 90
    },
    {
      "midi": 61,
      "hit": false,
      "t": 189729.77399999957,
      "d": 1427.3651979166607,
      "v": 87
    },
    {
      "midi": 68,
      "hit": false,
      "t": 189729.77399999957,
      "d": 1465.3719635416637,
      "v": 82
    },
    {
      "midi": 64,
      "hit": false,
      "t": 189729.77399999957,
      "d": 1499.1557552083395,
      "v": 93
    },
    {
      "midi": 52,
      "hit": false,
      "t": 189729.77399999957,
      "d": 1541.3854947916698,
      "v": 84
    },
    {
      "midi": 50,
      "hit": false,
      "t": 191355.6189739579,
      "d": 1414.69627604165,
      "v": 93
    },
    {
      "midi": 69,
      "hit": false,
      "t": 191359.84194791623,
      "d": 1406.2503281249956,
      "v": 87
    },
    {
      "midi": 66,
      "hit": false,
      "t": 191359.84194791623,
      "d": 1427.3651979166607,
      "v": 93
    },
    {
      "midi": 64,
      "hit": false,
      "t": 192973.01799999955,
      "d": 1406.2503281249956,
      "v": 93
    },
    {
      "midi": 69,
      "hit": false,
      "t": 192973.01799999955,
      "d": 1418.9192500000063,
      "v": 90
    },
    {
      "midi": 49,
      "hit": false,
      "t": 192973.01799999955,
      "d": 1435.8111458333442,
      "v": 82
    },
    {
      "midi": 62,
      "hit": false,
      "t": 194594.63999999955,
      "d": 498.31092708333745,
      "v": 87
    },
    {
      "midi": 66,
      "hit": false,
      "t": 194594.63999999955,
      "d": 498.31092708333745,
      "v": 96
    },
    {
      "midi": 47,
      "hit": false,
      "t": 194594.63999999955,
      "d": 519.4257968750026,
      "v": 82
    },
    {
      "midi": 57,
      "hit": false,
      "t": 195202.74824999954,
      "d": 684.1217812499963,
      "v": 87
    },
    {
      "midi": 49,
      "hit": false,
      "t": 195202.74824999954,
      "d": 705.2366510416614,
      "v": 84
    },
    {
      "midi": 64,
      "hit": false,
      "t": 195202.74824999954,
      "d": 722.1285468749993,
      "v": 99
    },
    {
      "midi": 50,
      "hit": false,
      "t": 196013.55924999953,
      "d": 646.1150156249932,
      "v": 96
    },
    {
      "midi": 57,
      "hit": false,
      "t": 196013.55924999953,
      "d": 646.1150156249932,
      "v": 80
    },
    {
      "midi": 66,
      "hit": false,
      "t": 196013.55924999953,
      "d": 654.5609635416477,
      "v": 96
    },
    {
      "midi": 59,
      "hit": false,
      "t": 196824.3702499995,
      "d": 844.5947916666628,
      "v": 87
    },
    {
      "midi": 52,
      "hit": false,
      "t": 196824.3702499995,
      "d": 865.7096614583279,
      "v": 87
    },
    {
      "midi": 68,
      "hit": false,
      "t": 196824.3702499995,
      "d": 869.9326354166551,
      "v": 102
    },
    {
      "midi": 64,
      "hit": false,
      "t": 196824.3702499995,
      "d": 878.3785833333095,
      "v": 90
    },
    {
      "midi": 69,
      "hit": false,
      "t": 197837.8839999995,
      "d": 1402.0273541666684,
      "v": 87
    },
    {
      "midi": 61,
      "hit": false,
      "t": 197837.8839999995,
      "d": 1414.696276041679,
      "v": 87
    },
    {
      "midi": 64,
      "hit": false,
      "t": 197837.8839999995,
      "d": 1423.1422239583335,
      "v": 90
    },
    {
      "midi": 57,
      "hit": false,
      "t": 197837.8839999995,
      "d": 1440.0341197916714,
      "v": 90
    },
    {
      "midi": 59,
      "hit": false,
      "t": 199459.5059999995,
      "d": 1520.2706250000047,
      "v": 90
    },
    {
      "midi": 68,
      "hit": false,
      "t": 199459.5059999995,
      "d": 1528.716572916659,
      "v": 99
    },
    {
      "midi": 56,
      "hit": false,
      "t": 199459.5059999995,
      "d": 1545.608468749997,
      "v": 82
    },
    {
      "midi": 64,
      "hit": false,
      "t": 199459.5059999995,
      "d": 1566.723338541662,
      "v": 102
    },
    {
      "midi": 69,
      "hit": false,
      "t": 201081.1279999995,
      "d": 1427.3651979166607,
      "v": 96
    },
    {
      "midi": 61,
      "hit": false,
      "t": 201081.1279999995,
      "d": 1431.588171874988,
      "v": 87
    },
    {
      "midi": 66,
      "hit": false,
      "t": 201081.1279999995,
      "d": 1435.811145833315,
      "v": 93
    },
    {
      "midi": 54,
      "hit": false,
      "t": 201081.1279999995,
      "d": 1478.0408854166453,
      "v": 90
    },
    {
      "midi": 61,
      "hit": false,
      "t": 202702.74999999948,
      "d": 1427.3651979166607,
      "v": 87
    },
    {
      "midi": 68,
      "hit": false,
      "t": 202702.74999999948,
      "d": 1465.3719635416637,
      "v": 82
    },
    {
      "midi": 64,
      "hit": false,
      "t": 202702.74999999948,
      "d": 1499.1557552083395,
      "v": 93
    },
    {
      "midi": 52,
      "hit": false,
      "t": 202702.74999999948,
      "d": 1541.3854947916698,
      "v": 84
    },
    {
      "midi": 50,
      "hit": false,
      "t": 204328.5949739578,
      "d": 1414.69627604165,
      "v": 93
    },
    {
      "midi": 69,
      "hit": false,
      "t": 204332.81794791613,
      "d": 1406.2503281249956,
      "v": 87
    },
    {
      "midi": 66,
      "hit": false,
      "t": 204332.81794791613,
      "d": 1427.3651979166607,
      "v": 93
    },
    {
      "midi": 64,
      "hit": false,
      "t": 205945.99399999945,
      "d": 1406.2503281249956,
      "v": 93
    },
    {
      "midi": 69,
      "hit": false,
      "t": 205945.99399999945,
      "d": 1418.9192500000063,
      "v": 90
    },
    {
      "midi": 49,
      "hit": false,
      "t": 205945.99399999945,
      "d": 1435.8111458333442,
      "v": 82
    },
    {
      "midi": 62,
      "hit": false,
      "t": 207567.61599999946,
      "d": 527.871744791657,
      "v": 102
    },
    {
      "midi": 66,
      "hit": false,
      "t": 207567.61599999946,
      "d": 532.0947187499842,
      "v": 99
    },
    {
      "midi": 47,
      "hit": false,
      "t": 207567.61599999946,
      "d": 553.2095885416493,
      "v": 96
    },
    {
      "midi": 57,
      "hit": false,
      "t": 208175.72424999945,
      "d": 823.4799218749977,
      "v": 87
    },
    {
      "midi": 49,
      "hit": false,
      "t": 208175.72424999945,
      "d": 836.1488437500084,
      "v": 102
    },
    {
      "midi": 64,
      "hit": false,
      "t": 208175.72424999945,
      "d": 857.2637135416735,
      "v": 102
    },
    {
      "midi": 57,
      "hit": false,
      "t": 209189.23799999946,
      "d": 494.08795312501024,
      "v": 93
    },
    {
      "midi": 50,
      "hit": false,
      "t": 209189.23799999946,
      "d": 519.4257968750026,
      "v": 105
    },
    {
      "midi": 66,
      "hit": false,
      "t": 209189.23799999946,
      "d": 519.4257968750026,
      "v": 105
    },
    {
      "midi": 52,
      "hit": false,
      "t": 209797.34624999945,
      "d": 709.4596249999886,
      "v": 102
    },
    {
      "midi": 59,
      "hit": false,
      "t": 209797.34624999945,
      "d": 709.4596249999886,
      "v": 93
    },
    {
      "midi": 68,
      "hit": false,
      "t": 209797.34624999945,
      "d": 709.4596249999886,
      "v": 105
    },
    {
      "midi": 64,
      "hit": false,
      "t": 211418.96824999945,
      "d": 1452.703041666653,
      "v": 90
    },
    {
      "midi": 57,
      "hit": false,
      "t": 211418.96824999945,
      "d": 1575.1692864583165,
      "v": 90
    },
    {
      "midi": 45,
      "hit": false,
      "t": 211418.96824999945,
      "d": 1689.1895833333256,
      "v": 99
    },
    {
      "midi": 59,
      "hit": false,
      "t": 213243.29299999945,
      "d": 1520.2706250000047,
      "v": 90
    },
    {
      "midi": 68,
      "hit": false,
      "t": 213243.29299999945,
      "d": 1528.716572916659,
      "v": 99
    },
    {
      "midi": 56,
      "hit": false,
      "t": 213243.29299999945,
      "d": 1545.608468749997,
      "v": 82
    },
    {
      "midi": 64,
      "hit": false,
      "t": 213243.29299999945,
      "d": 1566.723338541662,
      "v": 102
    },
    {
      "midi": 69,
      "hit": false,
      "t": 214864.91499999946,
      "d": 1427.3651979166607,
      "v": 96
    },
    {
      "midi": 61,
      "hit": false,
      "t": 214864.91499999946,
      "d": 1431.588171874988,
      "v": 87
    },
    {
      "midi": 66,
      "hit": false,
      "t": 214864.91499999946,
      "d": 1435.811145833315,
      "v": 93
    },
    {
      "midi": 54,
      "hit": false,
      "t": 214864.91499999946,
      "d": 1478.0408854166453,
      "v": 90
    },
    {
      "midi": 61,
      "hit": false,
      "t": 216486.53699999943,
      "d": 1427.3651979166607,
      "v": 87
    },
    {
      "midi": 68,
      "hit": false,
      "t": 216486.53699999943,
      "d": 1465.3719635416637,
      "v": 82
    },
    {
      "midi": 64,
      "hit": false,
      "t": 216486.53699999943,
      "d": 1499.1557552083395,
      "v": 93
    },
    {
      "midi": 52,
      "hit": false,
      "t": 216486.53699999943,
      "d": 1541.3854947916698,
      "v": 84
    },
    {
      "midi": 50,
      "hit": false,
      "t": 218112.38197395776,
      "d": 1414.69627604165,
      "v": 93
    },
    {
      "midi": 69,
      "hit": false,
      "t": 218116.6049479161,
      "d": 1406.2503281249956,
      "v": 87
    },
    {
      "midi": 66,
      "hit": false,
      "t": 218116.6049479161,
      "d": 1427.3651979166607,
      "v": 93
    },
    {
      "midi": 64,
      "hit": false,
      "t": 219729.7809999994,
      "d": 1406.2503281249956,
      "v": 93
    },
    {
      "midi": 69,
      "hit": false,
      "t": 219729.7809999994,
      "d": 1418.9192500000063,
      "v": 90
    },
    {
      "midi": 49,
      "hit": false,
      "t": 219729.7809999994,
      "d": 1435.8111458333442,
      "v": 82
    },
    {
      "midi": 62,
      "hit": false,
      "t": 221351.4029999994,
      "d": 498.31092708333745,
      "v": 87
    },
    {
      "midi": 66,
      "hit": false,
      "t": 221351.4029999994,
      "d": 498.31092708333745,
      "v": 96
    },
    {
      "midi": 47,
      "hit": false,
      "t": 221351.4029999994,
      "d": 519.4257968750026,
      "v": 82
    },
    {
      "midi": 57,
      "hit": false,
      "t": 221959.5112499994,
      "d": 684.1217812499963,
      "v": 87
    },
    {
      "midi": 49,
      "hit": false,
      "t": 221959.5112499994,
      "d": 705.2366510416614,
      "v": 84
    },
    {
      "midi": 64,
      "hit": false,
      "t": 221959.5112499994,
      "d": 722.1285468749993,
      "v": 99
    },
    {
      "midi": 50,
      "hit": false,
      "t": 222770.3222499994,
      "d": 646.1150156249932,
      "v": 96
    },
    {
      "midi": 57,
      "hit": false,
      "t": 222770.3222499994,
      "d": 646.1150156249932,
      "v": 80
    },
    {
      "midi": 66,
      "hit": false,
      "t": 222770.3222499994,
      "d": 654.5609635416477,
      "v": 96
    },
    {
      "midi": 59,
      "hit": false,
      "t": 223581.13324999937,
      "d": 844.5947916666628,
      "v": 87
    },
    {
      "midi": 52,
      "hit": false,
      "t": 223581.13324999937,
      "d": 865.7096614583279,
      "v": 87
    },
    {
      "midi": 68,
      "hit": false,
      "t": 223581.13324999937,
      "d": 869.9326354166551,
      "v": 102
    },
    {
      "midi": 64,
      "hit": false,
      "t": 223581.13324999937,
      "d": 878.3785833333095,
      "v": 90
    },
    {
      "midi": 69,
      "hit": false,
      "t": 224594.64699999936,
      "d": 1402.0273541666684,
      "v": 87
    },
    {
      "midi": 61,
      "hit": false,
      "t": 224594.64699999936,
      "d": 1414.696276041679,
      "v": 87
    },
    {
      "midi": 64,
      "hit": false,
      "t": 224594.64699999936,
      "d": 1423.1422239583335,
      "v": 90
    },
    {
      "midi": 57,
      "hit": false,
      "t": 224594.64699999936,
      "d": 1440.0341197916714,
      "v": 90
    },
    {
      "midi": 59,
      "hit": false,
      "t": 226216.26899999936,
      "d": 1520.2706250000047,
      "v": 90
    },
    {
      "midi": 68,
      "hit": false,
      "t": 226216.26899999936,
      "d": 1528.716572916659,
      "v": 99
    },
    {
      "midi": 56,
      "hit": false,
      "t": 226216.26899999936,
      "d": 1545.608468749997,
      "v": 82
    },
    {
      "midi": 64,
      "hit": false,
      "t": 226216.26899999936,
      "d": 1566.723338541662,
      "v": 102
    },
    {
      "midi": 69,
      "hit": false,
      "t": 227837.89099999936,
      "d": 1427.3651979166607,
      "v": 96
    },
    {
      "midi": 61,
      "hit": false,
      "t": 227837.89099999936,
      "d": 1431.588171874988,
      "v": 87
    },
    {
      "midi": 66,
      "hit": false,
      "t": 227837.89099999936,
      "d": 1435.811145833315,
      "v": 93
    },
    {
      "midi": 54,
      "hit": false,
      "t": 227837.89099999936,
      "d": 1478.0408854166453,
      "v": 90
    },
    {
      "midi": 61,
      "hit": false,
      "t": 229459.51299999934,
      "d": 1427.3651979166607,
      "v": 87
    },
    {
      "midi": 68,
      "hit": false,
      "t": 229459.51299999934,
      "d": 1465.3719635416637,
      "v": 82
    },
    {
      "midi": 64,
      "hit": false,
      "t": 229459.51299999934,
      "d": 1499.1557552083395,
      "v": 93
    },
    {
      "midi": 52,
      "hit": false,
      "t": 229459.51299999934,
      "d": 1541.3854947916698,
      "v": 84
    },
    {
      "midi": 50,
      "hit": false,
      "t": 231085.35797395767,
      "d": 1414.69627604165,
      "v": 93
    },
    {
      "midi": 69,
      "hit": false,
      "t": 231089.580947916,
      "d": 1406.2503281249956,
      "v": 87
    },
    {
      "midi": 66,
      "hit": false,
      "t": 231089.580947916,
      "d": 1427.3651979166607,
      "v": 93
    },
    {
      "midi": 64,
      "hit": false,
      "t": 232702.7569999993,
      "d": 1406.2503281249956,
      "v": 93
    },
    {
      "midi": 69,
      "hit": false,
      "t": 232702.7569999993,
      "d": 1418.9192500000063,
      "v": 90
    },
    {
      "midi": 49,
      "hit": false,
      "t": 232702.7569999993,
      "d": 1435.8111458333442,
      "v": 82
    },
    {
      "midi": 62,
      "hit": false,
      "t": 234324.37899999932,
      "d": 527.871744791657,
      "v": 102
    },
    {
      "midi": 66,
      "hit": false,
      "t": 234324.37899999932,
      "d": 532.0947187499842,
      "v": 99
    },
    {
      "midi": 47,
      "hit": false,
      "t": 234324.37899999932,
      "d": 553.2095885416493,
      "v": 96
    },
    {
      "midi": 57,
      "hit": false,
      "t": 234932.4872499993,
      "d": 823.4799218749977,
      "v": 87
    },
    {
      "midi": 49,
      "hit": false,
      "t": 234932.4872499993,
      "d": 836.1488437500084,
      "v": 102
    },
    {
      "midi": 64,
      "hit": false,
      "t": 234932.4872499993,
      "d": 857.2637135416735,
      "v": 102
    },
    {
      "midi": 57,
      "hit": false,
      "t": 235946.00099999932,
      "d": 494.08795312501024,
      "v": 93
    },
    {
      "midi": 50,
      "hit": false,
      "t": 235946.00099999932,
      "d": 519.4257968750026,
      "v": 105
    },
    {
      "midi": 66,
      "hit": false,
      "t": 235946.00099999932,
      "d": 519.4257968750026,
      "v": 105
    },
    {
      "midi": 52,
      "hit": false,
      "t": 236554.1092499993,
      "d": 709.4596249999886,
      "v": 102
    },
    {
      "midi": 59,
      "hit": false,
      "t": 236554.1092499993,
      "d": 709.4596249999886,
      "v": 93
    },
    {
      "midi": 68,
      "hit": false,
      "t": 236554.1092499993,
      "d": 709.4596249999886,
      "v": 105
    },
    {
      "midi": 52,
      "hit": false,
      "t": 239193.46797395762,
      "d": 6431.589338541671,
      "v": 87
    },
    {
      "midi": 81,
      "hit": false,
      "t": 239201.91392187428,
      "d": 4708.61596354167,
      "v": 105
    },
    {
      "midi": 69,
      "hit": false,
      "t": 239206.1368958326,
      "d": 4860.643026041682,
      "v": 82
    },
    {
      "midi": 45,
      "hit": false,
      "t": 239206.1368958326,
      "d": 6503.37989583335,
      "v": 90
    },
    {
      "midi": 57,
      "hit": false,
      "t": 240663.06291145761,
      "d": 3635.980578125018,
      "v": 11
    }
  ]
}