{
  "jsonPath": "Unknown/Unknown/3 Doors Down with Soul Children Of Chicago/presence-of-the-lord.json",
  "path": "Unknown\\Unknown\\3 Doors Down with Soul Children Of Chicago\\Presence Of The Lord.mid",
  "name": "Presence Of The Lord",
  "difficulty": "Advanced",
  "bpm": 60,
  "notes": [
    {
      "midi": 60,
      "hit": false,
      "t": 4000,
      "d": 958.333333333333,
      "v": 96
    },
    {
      "midi": 69,
      "hit": false,
      "t": 5000,
      "d": 697.916666666667,
      "v": 107
    },
    {
      "midi": 67,
      "hit": false,
      "t": 5739.583333333334,
      "d": 114.58333333333303,
      "v": 90
    },
    {
      "midi": 65,
      "hit": false,
      "t": 5875,
      "d": 114.58333333333303,
      "v": 83
    },
    {
      "midi": 67,
      "hit": false,
      "t": 6010.416666666666,
      "d": 729.166666666667,
      "v": 87
    },
    {
      "midi": 65,
      "hit": false,
      "t": 6760.416666666666,
      "d": 104.16666666666697,
      "v": 88
    },
    {
      "midi": 64,
      "hit": false,
      "t": 6885.416666666666,
      "d": 125,
      "v": 90
    },
    {
      "midi": 65,
      "hit": false,
      "t": 7010.416666666666,
      "d": 677.083333333333,
      "v": 97
    },
    {
      "midi": 64,
      "hit": false,
      "t": 7760.416666666666,
      "d": 83.33333333333303,
      "v": 85
    },
    {
      "midi": 62,
      "hit": false,
      "t": 7885.416666666666,
      "d": 93.75,
      "v": 78
    },
    {
      "midi": 60,
      "hit": false,
      "t": 8010.416666666666,
      "d": 760.4166666666661,
      "v": 88
    },
    {
      "midi": 62,
      "hit": false,
      "t": 8739.583333333332,
      "d": 93.75,
      "v": 94
    },
    {
      "midi": 60,
      "hit": false,
      "t": 8864.583333333332,
      "d": 114.58333333333394,
      "v": 93
    },
    {
      "midi": 69,
      "hit": false,
      "t": 9010.416666666666,
      "d": 687.5,
      "v": 104
    },
    {
      "midi": 67,
      "hit": false,
      "t": 9760.416666666666,
      "d": 93.75,
      "v": 79
    },
    {
      "midi": 65,
      "hit": false,
      "t": 9875,
      "d": 83.33333333333394,
      "v": 78
    },
    {
      "midi": 67,
      "hit": false,
      "t": 10000,
      "d": 656.25,
      "v": 97
    },
    {
      "midi": 65,
      "hit": false,
      "t": 10739.583333333334,
      "d": 114.58333333333394,
      "v": 81
    },
    {
      "midi": 64,
      "hit": false,
      "t": 10864.583333333334,
      "d": 93.75,
      "v": 85
    },
    {
      "midi": 65,
      "hit": false,
      "t": 10989.583333333334,
      "d": 729.1666666666661,
      "v": 105
    },
    {
      "midi": 64,
      "hit": false,
      "t": 11750,
      "d": 83.33333333333394,
      "v": 83
    },
    {
      "midi": 62,
      "hit": false,
      "t": 11864.583333333334,
      "d": 83.33333333333394,
      "v": 83
    },
    {
      "midi": 62,
      "hit": false,
      "t": 11989.583333333334,
      "d": 135.41666666666606,
      "v": 102
    },
    {
      "midi": 60,
      "hit": false,
      "t": 12135.416666666666,
      "d": 822.9166666666661,
      "v": 80
    },
    {
      "midi": 65,
      "hit": false,
      "t": 13010.416666666666,
      "d": 697.9166666666661,
      "v": 110
    },
    {
      "midi": 64,
      "hit": false,
      "t": 13749.999999999998,
      "d": 83.33333333333394,
      "v": 70
    },
    {
      "midi": 62,
      "hit": false,
      "t": 13874.999999999998,
      "d": 114.58333333333394,
      "v": 83
    },
    {
      "midi": 64,
      "hit": false,
      "t": 13999.999999999998,
      "d": 687.5,
      "v": 97
    },
    {
      "midi": 62,
      "hit": false,
      "t": 14739.583333333332,
      "d": 72.91666666666606,
      "v": 72
    },
    {
      "midi": 60,
      "hit": false,
      "t": 14885.416666666664,
      "d": 83.33333333333394,
      "v": 72
    },
    {
      "midi": 62,
      "hit": false,
      "t": 14989.583333333332,
      "d": 729.1666666666661,
      "v": 91
    },
    {
      "midi": 60,
      "hit": false,
      "t": 15739.583333333332,
      "d": 93.75,
      "v": 74
    },
    {
      "midi": 59,
      "hit": false,
      "t": 15885.416666666666,
      "d": 93.75,
      "v": 85
    },
    {
      "midi": 60,
      "hit": false,
      "t": 16010.416666666666,
      "d": 687.4999999999982,
      "v": 98
    },
    {
      "midi": 62,
      "hit": false,
      "t": 16760.416666666664,
      "d": 83.33333333333212,
      "v": 73
    },
    {
      "midi": 64,
      "hit": false,
      "t": 16885.416666666664,
      "d": 104.16666666666788,
      "v": 95
    },
    {
      "midi": 65,
      "hit": false,
      "t": 17010.416666666664,
      "d": 718.75,
      "v": 105
    },
    {
      "midi": 64,
      "hit": false,
      "t": 17760.416666666664,
      "d": 62.5,
      "v": 62
    },
    {
      "midi": 62,
      "hit": false,
      "t": 17885.416666666664,
      "d": 83.33333333333212,
      "v": 76
    },
    {
      "midi": 64,
      "hit": false,
      "t": 18010.416666666664,
      "d": 697.9166666666679,
      "v": 97
    },
    {
      "midi": 62,
      "hit": false,
      "t": 18760.416666666664,
      "d": 83.33333333333212,
      "v": 76
    },
    {
      "midi": 60,
      "hit": false,
      "t": 18885.416666666664,
      "d": 72.91666666666788,
      "v": 80
    },
    {
      "midi": 62,
      "hit": false,
      "t": 18989.583333333332,
      "d": 729.1666666666679,
      "v": 86
    },
    {
      "midi": 60,
      "hit": false,
      "t": 19750,
      "d": 93.75,
      "v": 74
    },
    {
      "midi": 59,
      "hit": false,
      "t": 19864.583333333332,
      "d": 104.16666666666788,
      "v": 87
    },
    {
      "midi": 60,
      "hit": false,
      "t": 20000,
      "d": 968.75,
      "v": 110
    },
    {
      "midi": 65,
      "hit": false,
      "t": 21000,
      "d": 291.6666666666679,
      "v": 122
    },
    {
      "midi": 64,
      "hit": false,
      "t": 21250,
      "d": 250,
      "v": 91
    },
    {
      "midi": 62,
      "hit": false,
      "t": 21500,
      "d": 218.75,
      "v": 97
    },
    {
      "midi": 60,
      "hit": false,
      "t": 21739.583333333332,
      "d": 229.16666666666788,
      "v": 91
    },
    {
      "midi": 58,
      "hit": false,
      "t": 21937.5,
      "d": 52.08333333333212,
      "v": 74
    },
    {
      "midi": 59,
      "hit": false,
      "t": 22010.416666666664,
      "d": 229.16666666666788,
      "v": 100
    },
    {
      "midi": 55,
      "hit": false,
      "t": 22239.583333333332,
      "d": 781.25,
      "v": 100
    },
    {
      "midi": 67,
      "hit": false,
      "t": 23250,
      "d": 239.58333333333212,
      "v": 118
    },
    {
      "midi": 69,
      "hit": false,
      "t": 23500,
      "d": 270.8333333333321,
      "v": 108
    },
    {
      "midi": 71,
      "hit": false,
      "t": 23750,
      "d": 239.58333333333212,
      "v": 102
    },
    {
      "midi": 72,
      "hit": false,
      "t": 24010.416666666664,
      "d": 2239.5833333333358,
      "v": 98
    },
    {
      "midi": 69,
      "hit": false,
      "t": 24249.999999999996,
      "d": 229.16666666666788,
      "v": 85
    },
    {
      "midi": 64,
      "hit": false,
      "t": 24489.583333333332,
      "d": 666.6666666666679,
      "v": 89
    },
    {
      "midi": 69,
      "hit": false,
      "t": 24750,
      "d": 1427.0833333333321,
      "v": 91
    },
    {
      "midi": 62,
      "hit": false,
      "t": 25250,
      "d": 1062.5,
      "v": 101
    },
    {
      "midi": 64,
      "hit": false,
      "t": 25500,
      "d": 1500.0000000000036,
      "v": 101
    },
    {
      "midi": 57,
      "hit": false,
      "t": 26000,
      "d": 385.4166666666679,
      "v": 86
    },
    {
      "midi": 69,
      "hit": false,
      "t": 26239.583333333332,
      "d": 760.4166666666715,
      "v": 85
    },
    {
      "midi": 60,
      "hit": false,
      "t": 26500,
      "d": 322.9166666666679,
      "v": 77
    },
    {
      "midi": 57,
      "hit": false,
      "t": 26500,
      "d": 364.58333333333576,
      "v": 80
    },
    {
      "midi": 60,
      "hit": false,
      "t": 27000.000000000004,
      "d": 239.58333333333212,
      "v": 97
    },
    {
      "midi": 62,
      "hit": false,
      "t": 27239.583333333336,
      "d": 229.16666666666788,
      "v": 108
    },
    {
      "midi": 64,
      "hit": false,
      "t": 27489.583333333336,
      "d": 468.75,
      "v": 112
    },
    {
      "midi": 68,
      "hit": false,
      "t": 27947.916666666668,
      "d": 31.25,
      "v": 86
    },
    {
      "midi": 65,
      "hit": false,
      "t": 28000,
      "d": 1437.5000000000036,
      "v": 96
    },
    {
      "midi": 69,
      "hit": false,
      "t": 28010.416666666668,
      "d": 1458.3333333333358,
      "v": 108
    },
    {
      "midi": 72,
      "hit": false,
      "t": 28239.583333333336,
      "d": 1489.5833333333321,
      "v": 114
    },
    {
      "midi": 68,
      "hit": false,
      "t": 29458.333333333336,
      "d": 20.83333333333576,
      "v": 88
    },
    {
      "midi": 65,
      "hit": false,
      "t": 29500.000000000004,
      "d": 2354.166666666668,
      "v": 90
    },
    {
      "midi": 69,
      "hit": false,
      "t": 29520.833333333336,
      "d": 1541.6666666666679,
      "v": 118
    },
    {
      "midi": 72,
      "hit": false,
      "t": 29739.583333333336,
      "d": 1072.9166666666679,
      "v": 97
    },
    {
      "midi": 77,
      "hit": false,
      "t": 30489.583333333336,
      "d": 1427.0833333333358,
      "v": 114
    },
    {
      "midi": 72,
      "hit": false,
      "t": 30979.16666666667,
      "d": 333.3333333333321,
      "v": 101
    },
    {
      "midi": 69,
      "hit": false,
      "t": 31239.583333333336,
      "d": 625.0000000000036,
      "v": 90
    },
    {
      "midi": 72,
      "hit": false,
      "t": 31479.16666666667,
      "d": 385.4166666666679,
      "v": 105
    },
    {
      "midi": 48,
      "hit": false,
      "t": 32000.000000000004,
      "d": 927.0833333333394,
      "v": 104
    },
    {
      "midi": 64,
      "hit": false,
      "t": 32010.41666666667,
      "d": 989.5833333333358,
      "v": 90
    },
    {
      "midi": 67,
      "hit": false,
      "t": 32010.41666666667,
      "d": 989.5833333333358,
      "v": 90
    },
    {
      "midi": 60,
      "hit": false,
      "t": 32020.83333333334,
      "d": 843.7500000000036,
      "v": 85
    },
    {
      "midi": 69,
      "hit": false,
      "t": 33000.00000000001,
      "d": 593.75,
      "v": 101
    },
    {
      "midi": 53,
      "hit": false,
      "t": 33000.00000000001,
      "d": 968.75,
      "v": 118
    },
    {
      "midi": 72,
      "hit": false,
      "t": 33000.00000000001,
      "d": 989.5833333333285,
      "v": 107
    },
    {
      "midi": 67,
      "hit": false,
      "t": 33739.58333333334,
      "d": 156.25,
      "v": 96
    },
    {
      "midi": 65,
      "hit": false,
      "t": 33875.00000000001,
      "d": 104.16666666666424,
      "v": 77
    },
    {
      "midi": 52,
      "hit": false,
      "t": 34000,
      "d": 916.6666666666642,
      "v": 114
    },
    {
      "midi": 72,
      "hit": false,
      "t": 34000,
      "d": 989.5833333333285,
      "v": 101
    },
    {
      "midi": 67,
      "hit": false,
      "t": 34010.416666666664,
      "d": 739.5833333333358,
      "v": 107
    },
    {
      "midi": 65,
      "hit": false,
      "t": 34750,
      "d": 125,
      "v": 96
    },
    {
      "midi": 64,
      "hit": false,
      "t": 34875,
      "d": 114.58333333332848,
      "v": 88
    },
    {
      "midi": 65,
      "hit": false,
      "t": 35010.416666666664,
      "d": 739.5833333333285,
      "v": 112
    },
    {
      "midi": 72,
      "hit": false,
      "t": 35010.416666666664,
      "d": 989.5833333333285,
      "v": 105
    },
    {
      "midi": 50,
      "hit": false,
      "t": 35020.83333333333,
      "d": 885.4166666666642,
      "v": 114
    },
    {
      "midi": 64,
      "hit": false,
      "t": 35760.41666666666,
      "d": 93.75,
      "v": 94
    },
    {
      "midi": 62,
      "hit": false,
      "t": 35874.99999999999,
      "d": 62.5,
      "v": 79
    },
    {
      "midi": 63,
      "hit": false,
      "t": 35968.74999999999,
      "d": 41.66666666666424,
      "v": 86
    },
    {
      "midi": 67,
      "hit": false,
      "t": 35999.99999999999,
      "d": 989.5833333333285,
      "v": 90
    },
    {
      "midi": 64,
      "hit": false,
      "t": 36010.41666666666,
      "d": 989.5833333333285,
      "v": 102
    },
    {
      "midi": 48,
      "hit": false,
      "t": 36020.83333333332,
      "d": 968.75,
      "v": 112
    },
    {
      "midi": 65,
      "hit": false,
      "t": 36999.999999999985,
      "d": 250,
      "v": 122
    },
    {
      "midi": 69,
      "hit": false,
      "t": 36999.999999999985,
      "d": 281.25,
      "v": 118
    },
    {
      "midi": 64,
      "hit": false,
      "t": 37239.58333333332,
      "d": 239.58333333332848,
      "v": 107
    },
    {
      "midi": 67,
      "hit": false,
      "t": 37239.58333333332,
      "d": 239.58333333332848,
      "v": 107
    },
    {
      "midi": 62,
      "hit": false,
      "t": 37499.999999999985,
      "d": 239.58333333333576,
      "v": 103
    },
    {
      "midi": 65,
      "hit": false,
      "t": 37499.999999999985,
      "d": 270.83333333333576,
      "v": 103
    },
    {
      "midi": 60,
      "hit": false,
      "t": 37749.999999999985,
      "d": 239.58333333333576,
      "v": 98
    },
    {
      "midi": 64,
      "hit": false,
      "t": 37749.999999999985,
      "d": 239.58333333333576,
      "v": 98
    },
    {
      "midi": 62,
      "hit": false,
      "t": 38010.41666666666,
      "d": 739.5833333333358,
      "v": 101
    },
    {
      "midi": 59,
      "hit": false,
      "t": 38010.41666666666,
      "d": 989.5833333333358,
      "v": 96
    },
    {
      "midi": 69,
      "hit": false,
      "t": 38760.41666666666,
      "d": 281.25,
      "v": 116
    },
    {
      "midi": 62,
      "hit": false,
      "t": 38760.41666666666,
      "d": 729.1666666666642,
      "v": 102
    },
    {
      "midi": 71,
      "hit": false,
      "t": 39010.41666666666,
      "d": 562.4999999999927,
      "v": 94
    },
    {
      "midi": 67,
      "hit": false,
      "t": 39239.58333333332,
      "d": 593.7499999999927,
      "v": 101
    },
    {
      "midi": 62,
      "hit": false,
      "t": 39499.999999999985,
      "d": 291.66666666666424,
      "v": 100
    },
    {
      "midi": 59,
      "hit": false,
      "t": 39749.999999999985,
      "d": 249.99999999999272,
      "v": 85
    },
    {
      "midi": 60,
      "hit": false,
      "t": 40010.41666666664,
      "d": 489.58333333333576,
      "v": 101
    },
    {
      "midi": 57,
      "hit": false,
      "t": 40260.41666666664,
      "d": 2427.0833333333358,
      "v": 77
    },
    {
      "midi": 60,
      "hit": false,
      "t": 40510.41666666664,
      "d": 739.5833333333358,
      "v": 97
    },
    {
      "midi": 62,
      "hit": false,
      "t": 40749.99999999998,
      "d": 291.66666666666424,
      "v": 86
    },
    {
      "midi": 64,
      "hit": false,
      "t": 40999.99999999998,
      "d": 489.5833333333285,
      "v": 91
    },
    {
      "midi": 60,
      "hit": false,
      "t": 41260.41666666664,
      "d": 197.91666666666424,
      "v": 79
    },
    {
      "midi": 63,
      "hit": false,
      "t": 41416.66666666664,
      "d": 62.5,
      "v": 69
    },
    {
      "midi": 60,
      "hit": false,
      "t": 41479.16666666664,
      "d": 739.5833333333358,
      "v": 89
    },
    {
      "midi": 64,
      "hit": false,
      "t": 41510.41666666664,
      "d": 229.16666666666424,
      "v": 105
    },
    {
      "midi": 69,
      "hit": false,
      "t": 41510.41666666664,
      "d": 1447.9166666666715,
      "v": 115
    },
    {
      "midi": 64,
      "hit": false,
      "t": 41760.41666666664,
      "d": 229.16666666666424,
      "v": 97
    },
    {
      "midi": 64,
      "hit": false,
      "t": 42010.41666666664,
      "d": 989.5833333333358,
      "v": 97
    },
    {
      "midi": 60,
      "hit": false,
      "t": 42239.583333333314,
      "d": 270.8333333333285,
      "v": 89
    },
    {
      "midi": 62,
      "hit": false,
      "t": 42499.99999999998,
      "d": 489.58333333333576,
      "v": 107
    },
    {
      "midi": 57,
      "hit": false,
      "t": 42739.583333333314,
      "d": 739.5833333333285,
      "v": 83
    },
    {
      "midi": 60,
      "hit": false,
      "t": 42999.99999999998,
      "d": 989.5833333333285,
      "v": 112
    },
    {
      "midi": 57,
      "hit": false,
      "t": 43499.99999999998,
      "d": 260.41666666666424,
      "v": 84
    },
    {
      "midi": 55,
      "hit": false,
      "t": 43749.99999999998,
      "d": 239.58333333332848,
      "v": 69
    },
    {
      "midi": 54,
      "hit": false,
      "t": 44020.83333333331,
      "d": 791.6666666666642,
      "v": 95
    },
    {
      "midi": 38,
      "hit": false,
      "t": 44499.99999999997,
      "d": 3489.5833333333358,
      "v": 90
    },
    {
      "midi": 65,
      "hit": false,
      "t": 44999.99999999997,
      "d": 93.75,
      "v": 90
    },
    {
      "midi": 66,
      "hit": false,
      "t": 45041.666666666635,
      "d": 416.66666666666424,
      "v": 111
    },
    {
      "midi": 74,
      "hit": false,
      "t": 45260.416666666635,
      "d": 208.33333333332848,
      "v": 110
    },
    {
      "midi": 64,
      "hit": false,
      "t": 45499.99999999996,
      "d": 645.8333333333358,
      "v": 100
    },
    {
      "midi": 72,
      "hit": false,
      "t": 45520.8333333333,
      "d": 1239.583333333343,
      "v": 104
    },
    {
      "midi": 66,
      "hit": false,
      "t": 46229.166666666635,
      "d": 281.25,
      "v": 120
    },
    {
      "midi": 64,
      "hit": false,
      "t": 46489.5833333333,
      "d": 229.16666666667152,
      "v": 93
    },
    {
      "midi": 62,
      "hit": false,
      "t": 46739.58333333331,
      "d": 218.75,
      "v": 76
    },
    {
      "midi": 64,
      "hit": false,
      "t": 46989.58333333331,
      "d": 739.5833333333285,
      "v": 114
    },
    {
      "midi": 57,
      "hit": false,
      "t": 47270.83333333331,
      "d": 229.16666666666424,
      "v": 84
    },
    {
      "midi": 60,
      "hit": false,
      "t": 47510.416666666635,
      "d": 458.33333333333576,
      "v": 100
    },
    {
      "midi": 58,
      "hit": false,
      "t": 47968.74999999997,
      "d": 41.66666666667152,
      "v": 89
    },
    {
      "midi": 59,
      "hit": false,
      "t": 48020.83333333331,
      "d": 854.1666666666642,
      "v": 112
    },
    {
      "midi": 67,
      "hit": false,
      "t": 48249.99999999997,
      "d": 1239.5833333333285,
      "v": 90
    },
    {
      "midi": 62,
      "hit": false,
      "t": 48520.83333333331,
      "d": 458.3333333333285,
      "v": 90
    },
    {
      "midi": 62,
      "hit": false,
      "t": 48999.99999999997,
      "d": 645.8333333333285,
      "v": 90
    },
    {
      "midi": 71,
      "hit": false,
      "t": 49010.416666666635,
      "d": 739.5833333333285,
      "v": 110
    },
    {
      "midi": 64,
      "hit": false,
      "t": 49760.41666666663,
      "d": 166.66666666666424,
      "v": 96
    },
    {
      "midi": 72,
      "hit": false,
      "t": 49770.83333333329,
      "d": 177.08333333333576,
      "v": 96
    },
    {
      "midi": 71,
      "hit": false,
      "t": 50020.83333333329,
      "d": 302.0833333333285,
      "v": 114
    },
    {
      "midi": 62,
      "hit": false,
      "t": 50031.249999999956,
      "d": 260.41666666666424,
      "v": 114
    },
    {
      "midi": 59,
      "hit": false,
      "t": 50499.999999999956,
      "d": 229.16666666666424,
      "v": 102
    },
    {
      "midi": 64,
      "hit": false,
      "t": 50499.999999999956,
      "d": 239.58333333332848,
      "v": 105
    },
    {
      "midi": 67,
      "hit": false,
      "t": 50499.999999999956,
      "d": 239.58333333332848,
      "v": 105
    },
    {
      "midi": 62,
      "hit": false,
      "t": 50999.99999999995,
      "d": 250,
      "v": 107
    },
    {
      "midi": 67,
      "hit": false,
      "t": 50999.99999999995,
      "d": 250,
      "v": 112
    },
    {
      "midi": 71,
      "hit": false,
      "t": 50999.99999999995,
      "d": 250,
      "v": 108
    },
    {
      "midi": 64,
      "hit": false,
      "t": 51510.41666666661,
      "d": 3281.2499999999927,
      "v": 107
    },
    {
      "midi": 72,
      "hit": false,
      "t": 51510.41666666661,
      "d": 3302.0833333333285,
      "v": 112
    },
    {
      "midi": 69,
      "hit": false,
      "t": 51520.83333333328,
      "d": 3260.4166666666642,
      "v": 118
    },
    {
      "midi": 69,
      "hit": false,
      "t": 54989.58333333328,
      "d": 104.16666666666424,
      "v": 104
    },
    {
      "midi": 72,
      "hit": false,
      "t": 54999.99999999994,
      "d": 145.83333333333576,
      "v": 90
    },
    {
      "midi": 71,
      "hit": false,
      "t": 55124.99999999994,
      "d": 93.75,
      "v": 89
    },
    {
      "midi": 69,
      "hit": false,
      "t": 55218.74999999994,
      "d": 62.5,
      "v": 83
    },
    {
      "midi": 67,
      "hit": false,
      "t": 55281.24999999994,
      "d": 177.08333333333576,
      "v": 97
    },
    {
      "midi": 64,
      "hit": false,
      "t": 55489.58333333328,
      "d": 177.08333333333576,
      "v": 97
    },
    {
      "midi": 62,
      "hit": false,
      "t": 55739.58333333328,
      "d": 239.58333333333576,
      "v": 83
    },
    {
      "midi": 60,
      "hit": false,
      "t": 55989.58333333328,
      "d": 739.5833333333358,
      "v": 110
    },
    {
      "midi": 65,
      "hit": false,
      "t": 56260.41666666661,
      "d": 739.5833333333358,
      "v": 103
    },
    {
      "midi": 53,
      "hit": false,
      "t": 56510.41666666661,
      "d": 697.9166666666715,
      "v": 96
    },
    {
      "midi": 56,
      "hit": false,
      "t": 56718.74999999995,
      "d": 62.5,
      "v": 92
    },
    {
      "midi": 57,
      "hit": false,
      "t": 56760.41666666661,
      "d": 229.16666666667152,
      "v": 105
    },
    {
      "midi": 60,
      "hit": false,
      "t": 56999.99999999995,
      "d": 489.58333333333576,
      "v": 97
    },
    {
      "midi": 53,
      "hit": false,
      "t": 57239.583333333285,
      "d": 989.5833333333358,
      "v": 86
    },
    {
      "midi": 62,
      "hit": false,
      "t": 57489.583333333285,
      "d": 270.8333333333285,
      "v": 104
    },
    {
      "midi": 57,
      "hit": false,
      "t": 57749.99999999995,
      "d": 489.58333333333576,
      "v": 101
    },
    {
      "midi": 60,
      "hit": false,
      "t": 57999.99999999995,
      "d": 208.33333333333576,
      "v": 96
    },
    {
      "midi": 55,
      "hit": false,
      "t": 58489.583333333285,
      "d": 239.58333333333576,
      "v": 118
    },
    {
      "midi": 59,
      "hit": false,
      "t": 58489.583333333285,
      "d": 260.4166666666715,
      "v": 116
    },
    {
      "midi": 64,
      "hit": false,
      "t": 58489.583333333285,
      "d": 281.2500000000073,
      "v": 107
    },
    {
      "midi": 59,
      "hit": false,
      "t": 58989.58333333329,
      "d": 208.33333333333576,
      "v": 116
    },
    {
      "midi": 62,
      "hit": false,
      "t": 58989.58333333329,
      "d": 218.75,
      "v": 118
    },
    {
      "midi": 67,
      "hit": false,
      "t": 58989.58333333329,
      "d": 250,
      "v": 105
    },
    {
      "midi": 69,
      "hit": false,
      "t": 59489.58333333329,
      "d": 3625,
      "v": 127
    },
    {
      "midi": 64,
      "hit": false,
      "t": 59489.58333333329,
      "d": 3635.4166666666642,
      "v": 114
    },
    {
      "midi": 72,
      "hit": false,
      "t": 59499.999999999956,
      "d": 3614.5833333333358,
      "v": 122
    },
    {
      "midi": 45,
      "hit": false,
      "t": 61999.999999999956,
      "d": 177.08333333333576,
      "v": 97
    },
    {
      "midi": 52,
      "hit": false,
      "t": 61999.999999999956,
      "d": 177.08333333333576,
      "v": 97
    },
    {
      "midi": 45,
      "hit": false,
      "t": 62499.999999999956,
      "d": 1489.5833333333285,
      "v": 90
    },
    {
      "midi": 52,
      "hit": false,
      "t": 62499.999999999956,
      "d": 1489.5833333333285,
      "v": 90
    },
    {
      "midi": 68,
      "hit": false,
      "t": 63239.58333333329,
      "d": 41.66666666666424,
      "v": 117
    },
    {
      "midi": 72,
      "hit": false,
      "t": 63239.58333333329,
      "d": 739.5833333333285,
      "v": 101
    },
    {
      "midi": 69,
      "hit": false,
      "t": 63291.66666666662,
      "d": 239.58333333333576,
      "v": 108
    },
    {
      "midi": 67,
      "hit": false,
      "t": 63499.999999999956,
      "d": 489.5833333333285,
      "v": 86
    },
    {
      "midi": 38,
      "hit": false,
      "t": 63999.99999999995,
      "d": 1927.0833333333358,
      "v": 98
    },
    {
      "midi": 50,
      "hit": false,
      "t": 63999.99999999995,
      "d": 1947.9166666666642,
      "v": 96
    },
    {
      "midi": 72,
      "hit": false,
      "t": 64249.99999999995,
      "d": 1750.0000000000073,
      "v": 102
    },
    {
      "midi": 69,
      "hit": false,
      "t": 64249.99999999995,
      "d": 1770.8333333333358,
      "v": 101
    },
    {
      "midi": 67,
      "hit": false,
      "t": 64749.99999999995,
      "d": 239.58333333333576,
      "v": 98
    },
    {
      "midi": 66,
      "hit": false,
      "t": 64999.99999999995,
      "d": 989.5833333333358,
      "v": 99
    },
    {
      "midi": 62,
      "hit": false,
      "t": 65499.99999999995,
      "d": 489.58333333333576,
      "v": 90
    },
    {
      "midi": 43,
      "hit": false,
      "t": 65999.99999999996,
      "d": 1937.5000000000146,
      "v": 107
    },
    {
      "midi": 62,
      "hit": false,
      "t": 66239.58333333328,
      "d": 1739.5833333333576,
      "v": 116
    },
    {
      "midi": 67,
      "hit": false,
      "t": 66239.58333333328,
      "d": 1739.5833333333576,
      "v": 105
    },
    {
      "midi": 57,
      "hit": false,
      "t": 66499.99999999996,
      "d": 229.16666666667152,
      "v": 95
    },
    {
      "midi": 59,
      "hit": false,
      "t": 66739.5833333333,
      "d": 1239.583333333343,
      "v": 110
    },
    {
      "midi": 55,
      "hit": false,
      "t": 67249.99999999997,
      "d": 208.33333333332848,
      "v": 68
    },
    {
      "midi": 57,
      "hit": false,
      "t": 67489.5833333333,
      "d": 322.9166666666715,
      "v": 112
    },
    {
      "midi": 53,
      "hit": false,
      "t": 67749.99999999997,
      "d": 239.58333333334303,
      "v": 75
    },
    {
      "midi": 60,
      "hit": false,
      "t": 67999.99999999999,
      "d": 1489.5833333333285,
      "v": 90
    },
    {
      "midi": 64,
      "hit": false,
      "t": 67999.99999999999,
      "d": 1489.5833333333285,
      "v": 86
    },
    {
      "midi": 36,
      "hit": false,
      "t": 67999.99999999999,
      "d": 1791.666666666657,
      "v": 86
    },
    {
      "midi": 48,
      "hit": false,
      "t": 67999.99999999999,
      "d": 1791.666666666657,
      "v": 87
    },
    {
      "midi": 55,
      "hit": false,
      "t": 67999.99999999999,
      "d": 1989.583333333314,
      "v": 88
    },
    {
      "midi": 65,
      "hit": false,
      "t": 69489.58333333331,
      "d": 93.75,
      "v": 98
    },
    {
      "midi": 67,
      "hit": false,
      "t": 69489.58333333331,
      "d": 239.58333333332848,
      "v": 93
    },
    {
      "midi": 72,
      "hit": false,
      "t": 69489.58333333331,
      "d": 239.58333333332848,
      "v": 102
    },
    {
      "midi": 64,
      "hit": false,
      "t": 69614.58333333331,
      "d": 93.75,
      "v": 96
    },
    {
      "midi": 62,
      "hit": false,
      "t": 69739.58333333331,
      "d": 104.16666666665697,
      "v": 86
    },
    {
      "midi": 60,
      "hit": false,
      "t": 69864.5833333333,
      "d": 145.83333333334303,
      "v": 77
    },
    {
      "midi": 43,
      "hit": false,
      "t": 69989.5833333333,
      "d": 1802.083333333343,
      "v": 78
    },
    {
      "midi": 50,
      "hit": false,
      "t": 69999.99999999997,
      "d": 1906.25,
      "v": 90
    },
    {
      "midi": 67,
      "hit": false,
      "t": 70010.41666666664,
      "d": 1489.5833333333285,
      "v": 90
    },
    {
      "midi": 59,
      "hit": false,
      "t": 70010.41666666664,
      "d": 1989.583333333343,
      "v": 95
    },
    {
      "midi": 62,
      "hit": false,
      "t": 70010.41666666664,
      "d": 1989.583333333343,
      "v": 101
    },
    {
      "midi": 69,
      "hit": false,
      "t": 71510.41666666664,
      "d": 83.33333333332848,
      "v": 101
    },
    {
      "midi": 74,
      "hit": false,
      "t": 71510.41666666664,
      "d": 218.75,
      "v": 100
    },
    {
      "midi": 71,
      "hit": false,
      "t": 71635.41666666664,
      "d": 145.83333333332848,
      "v": 83
    },
    {
      "midi": 69,
      "hit": false,
      "t": 71760.41666666664,
      "d": 104.16666666667152,
      "v": 86
    },
    {
      "midi": 67,
      "hit": false,
      "t": 71885.41666666664,
      "d": 93.75,
      "v": 80
    },
    {
      "midi": 69,
      "hit": false,
      "t": 71989.58333333331,
      "d": 739.583333333343,
      "v": 86
    },
    {
      "midi": 64,
      "hit": false,
      "t": 72010.41666666666,
      "d": 697.9166666666715,
      "v": 88
    },
    {
      "midi": 72,
      "hit": false,
      "t": 72010.41666666666,
      "d": 906.25,
      "v": 88
    },
    {
      "midi": 45,
      "hit": false,
      "t": 72010.41666666666,
      "d": 3989.5833333333576,
      "v": 82
    },
    {
      "midi": 52,
      "hit": false,
      "t": 72010.41666666666,
      "d": 3989.5833333333576,
      "v": 74
    },
    {
      "midi": 60,
      "hit": false,
      "t": 72489.58333333333,
      "d": 583.3333333333285,
      "v": 80
    },
    {
      "midi": 64,
      "hit": false,
      "t": 72749.99999999999,
      "d": 739.5833333333285,
      "v": 91
    },
    {
      "midi": 69,
      "hit": false,
      "t": 72749.99999999999,
      "d": 739.5833333333285,
      "v": 96
    },
    {
      "midi": 60,
      "hit": false,
      "t": 73249.99999999999,
      "d": 885.4166666666715,
      "v": 73
    },
    {
      "midi": 62,
      "hit": false,
      "t": 73489.58333333331,
      "d": 739.583333333343,
      "v": 101
    },
    {
      "midi": 67,
      "hit": false,
      "t": 73499.99999999999,
      "d": 1239.583333333343,
      "v": 91
    },
    {
      "midi": 60,
      "hit": false,
      "t": 74239.58333333333,
      "d": 260.4166666666715,
      "v": 85
    },
    {
      "midi": 57,
      "hit": false,
      "t": 74500,
      "d": 989.583333333343,
      "v": 78
    },
    {
      "midi": 62,
      "hit": false,
      "t": 74750,
      "d": 989.583333333343,
      "v": 100
    },
    {
      "midi": 64,
      "hit": false,
      "t": 75000,
      "d": 291.6666666666715,
      "v": 98
    },
    {
      "midi": 67,
      "hit": false,
      "t": 75250,
      "d": 739.583333333343,
      "v": 107
    },
    {
      "midi": 59,
      "hit": false,
      "t": 75500.00000000001,
      "d": 489.5833333333285,
      "v": 90
    },
    {
      "midi": 64,
      "hit": false,
      "t": 75739.58333333334,
      "d": 229.16666666667152,
      "v": 90
    },
    {
      "midi": 55,
      "hit": false,
      "t": 76010.41666666669,
      "d": 239.58333333332848,
      "v": 63
    },
    {
      "midi": 60,
      "hit": false,
      "t": 76010.41666666669,
      "d": 239.58333333332848,
      "v": 64
    },
    {
      "midi": 64,
      "hit": false,
      "t": 76010.41666666669,
      "d": 239.58333333332848,
      "v": 56
    },
    {
      "midi": 41,
      "hit": false,
      "t": 76010.41666666669,
      "d": 500.00000000001455,
      "v": 59
    },
    {
      "midi": 29,
      "hit": false,
      "t": 76010.41666666669,
      "d": 1791.6666666666715,
      "v": 52
    },
    {
      "midi": 57,
      "hit": false,
      "t": 76260.41666666669,
      "d": 187.5,
      "v": 62
    },
    {
      "midi": 65,
      "hit": false,
      "t": 76260.41666666669,
      "d": 197.91666666667152,
      "v": 69
    },
    {
      "midi": 60,
      "hit": false,
      "t": 76260.41666666669,
      "d": 208.33333333334303,
      "v": 63
    },
    {
      "midi": 57,
      "hit": false,
      "t": 76510.4166666667,
      "d": 489.5833333333285,
      "v": 78
    },
    {
      "midi": 60,
      "hit": false,
      "t": 76510.4166666667,
      "d": 489.5833333333285,
      "v": 86
    },
    {
      "midi": 65,
      "hit": false,
      "t": 76510.4166666667,
      "d": 489.5833333333285,
      "v": 90
    },
    {
      "midi": 41,
      "hit": false,
      "t": 76760.4166666667,
      "d": 291.6666666666715,
      "v": 96
    },
    {
      "midi": 63,
      "hit": false,
      "t": 77010.4166666667,
      "d": 31.25,
      "v": 80
    },
    {
      "midi": 57,
      "hit": false,
      "t": 77010.4166666667,
      "d": 291.6666666666715,
      "v": 110
    },
    {
      "midi": 60,
      "hit": false,
      "t": 77010.4166666667,
      "d": 739.5833333333285,
      "v": 116
    },
    {
      "midi": 65,
      "hit": false,
      "t": 77010.4166666667,
      "d": 1239.583333333314,
      "v": 114
    },
    {
      "midi": 41,
      "hit": false,
      "t": 77270.83333333337,
      "d": 562.4999999999854,
      "v": 78
    },
    {
      "midi": 56,
      "hit": false,
      "t": 77447.9166666667,
      "d": 62.5,
      "v": 92
    },
    {
      "midi": 57,
      "hit": false,
      "t": 77500.00000000003,
      "d": 489.5833333333285,
      "v": 101
    },
    {
      "midi": 60,
      "hit": false,
      "t": 77770.83333333336,
      "d": 187.5,
      "v": 83
    },
    {
      "midi": 55,
      "hit": false,
      "t": 78010.41666666669,
      "d": 1739.5833333333285,
      "v": 83
    },
    {
      "midi": 50,
      "hit": false,
      "t": 78010.41666666669,
      "d": 1927.0833333333285,
      "v": 83
    },
    {
      "midi": 43,
      "hit": false,
      "t": 78031.25000000001,
      "d": 1927.0833333333285,
      "v": 74
    },
    {
      "midi": 65,
      "hit": false,
      "t": 78510.41666666669,
      "d": 218.75,
      "v": 86
    },
    {
      "midi": 67,
      "hit": false,
      "t": 78750.00000000001,
      "d": 739.5833333333285,
      "v": 94
    },
    {
      "midi": 63,
      "hit": false,
      "t": 78968.75000000001,
      "d": 31.25,
      "v": 88
    },
    {
      "midi": 64,
      "hit": false,
      "t": 79000.00000000001,
      "d": 218.75,
      "v": 118
    },
    {
      "midi": 62,
      "hit": false,
      "t": 79250.00000000001,
      "d": 239.58333333332848,
      "v": 94
    },
    {
      "midi": 60,
      "hit": false,
      "t": 79500.00000000001,
      "d": 489.5833333333285,
      "v": 88
    },
    {
      "midi": 57,
      "hit": false,
      "t": 79750.00000000001,
      "d": 239.58333333332848,
      "v": 79
    },
    {
      "midi": 52,
      "hit": false,
      "t": 80000.00000000001,
      "d": 989.583333333343,
      "v": 83
    },
    {
      "midi": 55,
      "hit": false,
      "t": 80000.00000000001,
      "d": 989.583333333343,
      "v": 88
    },
    {
      "midi": 62,
      "hit": false,
      "t": 80750.00000000001,
      "d": 125,
      "v": 80
    },
    {
      "midi": 64,
      "hit": false,
      "t": 80875.00000000001,
      "d": 104.16666666667152,
      "v": 87
    },
    {
      "midi": 60,
      "hit": false,
      "t": 81010.41666666669,
      "d": 708.3333333333285,
      "v": 79
    },
    {
      "midi": 65,
      "hit": false,
      "t": 81010.41666666669,
      "d": 729.166666666657,
      "v": 97
    },
    {
      "midi": 57,
      "hit": false,
      "t": 81010.41666666669,
      "d": 739.5833333333285,
      "v": 80
    },
    {
      "midi": 64,
      "hit": false,
      "t": 81750.00000000001,
      "d": 93.75,
      "v": 85
    },
    {
      "midi": 62,
      "hit": false,
      "t": 81864.58333333334,
      "d": 83.33333333332848,
      "v": 82
    },
    {
      "midi": 64,
      "hit": false,
      "t": 81989.58333333334,
      "d": 770.8333333333285,
      "v": 93
    },
    {
      "midi": 55,
      "hit": false,
      "t": 81989.58333333334,
      "d": 802.0833333333285,
      "v": 84
    },
    {
      "midi": 59,
      "hit": false,
      "t": 81989.58333333334,
      "d": 802.0833333333285,
      "v": 77
    },
    {
      "midi": 62,
      "hit": false,
      "t": 82760.41666666667,
      "d": 83.33333333332848,
      "v": 81
    },
    {
      "midi": 60,
      "hit": false,
      "t": 82875,
      "d": 93.75,
      "v": 90
    },
    {
      "midi": 53,
      "hit": false,
      "t": 82989.58333333333,
      "d": 739.583333333343,
      "v": 72
    },
    {
      "midi": 57,
      "hit": false,
      "t": 82989.58333333333,
      "d": 770.8333333333576,
      "v": 72
    },
    {
      "midi": 62,
      "hit": false,
      "t": 83000,
      "d": 739.583333333343,
      "v": 95
    },
    {
      "midi": 60,
      "hit": false,
      "t": 83750.00000000001,
      "d": 104.16666666667152,
      "v": 86
    },
    {
      "midi": 59,
      "hit": false,
      "t": 83864.58333333336,
      "d": 93.75,
      "v": 83
    },
    {
      "midi": 60,
      "hit": false,
      "t": 83989.58333333336,
      "d": 708.3333333333285,
      "v": 100
    },
    {
      "midi": 52,
      "hit": false,
      "t": 83989.58333333336,
      "d": 770.8333333333285,
      "v": 79
    },
    {
      "midi": 55,
      "hit": false,
      "t": 83989.58333333336,
      "d": 770.8333333333285,
      "v": 83
    },
    {
      "midi": 62,
      "hit": false,
      "t": 84739.58333333336,
      "d": 104.16666666665697,
      "v": 95
    },
    {
      "midi": 64,
      "hit": false,
      "t": 84864.58333333334,
      "d": 93.75,
      "v": 93
    },
    {
      "midi": 57,
      "hit": false,
      "t": 84989.58333333334,
      "d": 854.1666666666715,
      "v": 86
    },
    {
      "midi": 65,
      "hit": false,
      "t": 85000.00000000001,
      "d": 791.6666666666715,
      "v": 110
    },
    {
      "midi": 60,
      "hit": false,
      "t": 85000.00000000001,
      "d": 843.75,
      "v": 82
    },
    {
      "midi": 64,
      "hit": false,
      "t": 85760.41666666669,
      "d": 114.58333333332848,
      "v": 74
    },
    {
      "midi": 62,
      "hit": false,
      "t": 85885.41666666669,
      "d": 93.75,
      "v": 77
    },
    {
      "midi": 59,
      "hit": false,
      "t": 86010.41666666669,
      "d": 729.1666666666715,
      "v": 80
    },
    {
      "midi": 55,
      "hit": false,
      "t": 86010.41666666669,
      "d": 739.583333333343,
      "v": 80
    },
    {
      "midi": 64,
      "hit": false,
      "t": 86010.41666666669,
      "d": 739.583333333343,
      "v": 100
    },
    {
      "midi": 62,
      "hit": false,
      "t": 86760.4166666667,
      "d": 72.91666666667152,
      "v": 80
    },
    {
      "midi": 60,
      "hit": false,
      "t": 86885.4166666667,
      "d": 41.66666666667152,
      "v": 83
    },
    {
      "midi": 53,
      "hit": false,
      "t": 87000.00000000004,
      "d": 687.5,
      "v": 78
    },
    {
      "midi": 57,
      "hit": false,
      "t": 87000.00000000004,
      "d": 697.9166666666715,
      "v": 79
    },
    {
      "midi": 62,
      "hit": false,
      "t": 87000.00000000004,
      "d": 708.333333333343,
      "v": 104
    },
    {
      "midi": 60,
      "hit": false,
      "t": 87739.58333333339,
      "d": 93.75,
      "v": 89
    },
    {
      "midi": 59,
      "hit": false,
      "t": 87864.58333333339,
      "d": 72.91666666667152,
      "v": 90
    },
    {
      "midi": 60,
      "hit": false,
      "t": 87989.58333333339,
      "d": 1489.5833333333285,
      "v": 100
    },
    {
      "midi": 52,
      "hit": false,
      "t": 87989.58333333339,
      "d": 1989.583333333343,
      "v": 73
    },
    {
      "midi": 55,
      "hit": false,
      "t": 87989.58333333339,
      "d": 1989.583333333343,
      "v": 72
    },
    {
      "midi": 65,
      "hit": false,
      "t": 88989.58333333339,
      "d": 239.58333333334303,
      "v": 98
    },
    {
      "midi": 72,
      "hit": false,
      "t": 88989.58333333339,
      "d": 739.5833333333285,
      "v": 102
    },
    {
      "midi": 67,
      "hit": false,
      "t": 89000.00000000006,
      "d": 302.0833333333285,
      "v": 98
    },
    {
      "midi": 64,
      "hit": false,
      "t": 89250.00000000006,
      "d": 739.583333333343,
      "v": 88
    },
    {
      "midi": 62,
      "hit": false,
      "t": 89489.58333333339,
      "d": 218.75,
      "v": 90
    },
    {
      "midi": 60,
      "hit": false,
      "t": 89739.58333333339,
      "d": 208.33333333334303,
      "v": 87
    },
    {
      "midi": 67,
      "hit": false,
      "t": 89750.00000000006,
      "d": 1531.2500000000146,
      "v": 78
    },
    {
      "midi": 60,
      "hit": false,
      "t": 90010.41666666673,
      "d": 260.4166666666715,
      "v": 106
    },
    {
      "midi": 62,
      "hit": false,
      "t": 90260.41666666673,
      "d": 1302.083333333343,
      "v": 94
    },
    {
      "midi": 59,
      "hit": false,
      "t": 90500.00000000007,
      "d": 625,
      "v": 90
    },
    {
      "midi": 59,
      "hit": false,
      "t": 91239.5833333334,
      "d": 760.4166666666715,
      "v": 80
    },
    {
      "midi": 67,
      "hit": false,
      "t": 91489.5833333334,
      "d": 500,
      "v": 114
    },
    {
      "midi": 62,
      "hit": false,
      "t": 91739.5833333334,
      "d": 250,
      "v": 90
    },
    {
      "midi": 57,
      "hit": false,
      "t": 92010.41666666674,
      "d": 989.5833333333285,
      "v": 87
    },
    {
      "midi": 64,
      "hit": false,
      "t": 92010.41666666674,
      "d": 989.5833333333285,
      "v": 96
    },
    {
      "midi": 60,
      "hit": false,
      "t": 92260.41666666674,
      "d": 687.5,
      "v": 80
    },
    {
      "midi": 52,
      "hit": false,
      "t": 92760.41666666674,
      "d": 916.666666666657,
      "v": 86
    },
    {
      "midi": 45,
      "hit": false,
      "t": 92760.41666666674,
      "d": 3239.583333333343,
      "v": 55
    },
    {
      "midi": 60,
      "hit": false,
      "t": 93010.41666666674,
      "d": 239.58333333332848,
      "v": 68
    },
    {
      "midi": 69,
      "hit": false,
      "t": 93010.41666666674,
      "d": 239.58333333332848,
      "v": 86
    },
    {
      "midi": 62,
      "hit": false,
      "t": 93250.00000000007,
      "d": 239.58333333332848,
      "v": 97
    },
    {
      "midi": 71,
      "hit": false,
      "t": 93250.00000000007,
      "d": 239.58333333332848,
      "v": 108
    },
    {
      "midi": 64,
      "hit": false,
      "t": 93510.41666666673,
      "d": 739.583333333343,
      "v": 112
    },
    {
      "midi": 72,
      "hit": false,
      "t": 93510.41666666673,
      "d": 989.583333333343,
      "v": 127
    },
    {
      "midi": 52,
      "hit": false,
      "t": 93750.00000000007,
      "d": 2239.583333333343,
      "v": 86
    },
    {
      "midi": 57,
      "hit": false,
      "t": 94000.00000000007,
      "d": 989.583333333343,
      "v": 86
    },
    {
      "midi": 67,
      "hit": false,
      "t": 94260.41666666674,
      "d": 250,
      "v": 78
    },
    {
      "midi": 69,
      "hit": false,
      "t": 94510.41666666674,
      "d": 739.583333333343,
      "v": 104
    },
    {
      "midi": 72,
      "hit": false,
      "t": 94510.41666666674,
      "d": 739.583333333343,
      "v": 104
    },
    {
      "midi": 62,
      "hit": false,
      "t": 95010.41666666674,
      "d": 197.91666666667152,
      "v": 75
    },
    {
      "midi": 64,
      "hit": false,
      "t": 95260.41666666676,
      "d": 291.6666666666715,
      "v": 95
    },
    {
      "midi": 69,
      "hit": false,
      "t": 95260.41666666676,
      "d": 750,
      "v": 100
    },
    {
      "midi": 60,
      "hit": false,
      "t": 95510.41666666676,
      "d": 229.16666666667152,
      "v": 85
    },
    {
      "midi": 62,
      "hit": false,
      "t": 95760.41666666676,
      "d": 208.33333333332848,
      "v": 77
    },
    {
      "midi": 41,
      "hit": false,
      "t": 96000.00000000009,
      "d": 1968.7499999999854,
      "v": 80
    },
    {
      "midi": 48,
      "hit": false,
      "t": 96000.00000000009,
      "d": 1968.7499999999854,
      "v": 80
    },
    {
      "midi": 56,
      "hit": false,
      "t": 96447.91666666676,
      "d": 72.91666666665697,
      "v": 75
    },
    {
      "midi": 57,
      "hit": false,
      "t": 96500.00000000009,
      "d": 489.5833333333285,
      "v": 88
    },
    {
      "midi": 60,
      "hit": false,
      "t": 96750.00000000009,
      "d": 218.75,
      "v": 90
    },
    {
      "midi": 65,
      "hit": false,
      "t": 96750.00000000009,
      "d": 218.75,
      "v": 67
    },
    {
      "midi": 65,
      "hit": false,
      "t": 97000.00000000009,
      "d": 489.5833333333285,
      "v": 68
    },
    {
      "midi": 60,
      "hit": false,
      "t": 97000.00000000009,
      "d": 739.5833333333285,
      "v": 96
    },
    {
      "midi": 57,
      "hit": false,
      "t": 97250.00000000009,
      "d": 739.5833333333139,
      "v": 78
    },
    {
      "midi": 65,
      "hit": false,
      "t": 97510.41666666674,
      "d": 510.41666666665697,
      "v": 108
    },
    {
      "midi": 60,
      "hit": false,
      "t": 97760.41666666674,
      "d": 239.58333333332848,
      "v": 78
    },
    {
      "midi": 41,
      "hit": false,
      "t": 98000.00000000007,
      "d": 1989.583333333343,
      "v": 83
    },
    {
      "midi": 48,
      "hit": false,
      "t": 98000.00000000007,
      "d": 1989.583333333343,
      "v": 85
    },
    {
      "midi": 57,
      "hit": false,
      "t": 98000.00000000007,
      "d": 1989.583333333343,
      "v": 71
    },
    {
      "midi": 68,
      "hit": false,
      "t": 98250.00000000007,
      "d": 10.416666666671517,
      "v": 109
    },
    {
      "midi": 69,
      "hit": false,
      "t": 98281.25000000007,
      "d": 697.9166666666715,
      "v": 83
    },
    {
      "midi": 72,
      "hit": false,
      "t": 98510.41666666674,
      "d": 489.5833333333285,
      "v": 108
    },
    {
      "midi": 69,
      "hit": false,
      "t": 99010.41666666674,
      "d": 239.58333333332848,
      "v": 122
    },
    {
      "midi": 67,
      "hit": false,
      "t": 99260.41666666674,
      "d": 208.33333333332848,
      "v": 91
    },
    {
      "midi": 65,
      "hit": false,
      "t": 99510.41666666674,
      "d": 229.16666666667152,
      "v": 84
    },
    {
      "midi": 67,
      "hit": false,
      "t": 99760.41666666674,
      "d": 1239.583333333343,
      "v": 83
    },
    {
      "midi": 62,
      "hit": false,
      "t": 100000.00000000009,
      "d": 291.6666666666715,
      "v": 94
    },
    {
      "midi": 64,
      "hit": false,
      "t": 100250.00000000009,
      "d": 739.5833333333285,
      "v": 83
    },
    {
      "midi": 60,
      "hit": false,
      "t": 100500.00000000009,
      "d": 489.5833333333285,
      "v": 76
    },
    {
      "midi": 72,
      "hit": false,
      "t": 101000.00000000009,
      "d": 989.583333333343,
      "v": 84
    },
    {
      "midi": 69,
      "hit": false,
      "t": 101010.41666666676,
      "d": 739.583333333343,
      "v": 98
    },
    {
      "midi": 67,
      "hit": false,
      "t": 101739.58333333343,
      "d": 135.41666666667152,
      "v": 81
    },
    {
      "midi": 65,
      "hit": false,
      "t": 101864.58333333343,
      "d": 104.16666666667152,
      "v": 84
    },
    {
      "midi": 67,
      "hit": false,
      "t": 102010.41666666676,
      "d": 739.5833333333285,
      "v": 102
    },
    {
      "midi": 72,
      "hit": false,
      "t": 102010.41666666676,
      "d": 895.8333333333285,
      "v": 104
    },
    {
      "midi": 65,
      "hit": false,
      "t": 102760.41666666676,
      "d": 114.58333333332848,
      "v": 89
    },
    {
      "midi": 64,
      "hit": false,
      "t": 102885.41666666676,
      "d": 72.91666666665697,
      "v": 80
    },
    {
      "midi": 65,
      "hit": false,
      "t": 103010.41666666674,
      "d": 666.6666666666715,
      "v": 97
    },
    {
      "midi": 72,
      "hit": false,
      "t": 103010.41666666674,
      "d": 989.583333333343,
      "v": 105
    },
    {
      "midi": 64,
      "hit": false,
      "t": 103739.58333333342,
      "d": 93.75,
      "v": 83
    },
    {
      "midi": 62,
      "hit": false,
      "t": 103864.58333333342,
      "d": 52.08333333332848,
      "v": 85
    },
    {
      "midi": 63,
      "hit": false,
      "t": 103958.33333333342,
      "d": 72.91666666667152,
      "v": 54
    },
    {
      "midi": 36,
      "hit": false,
      "t": 104000.00000000009,
      "d": 1989.5833333333285,
      "v": 83
    },
    {
      "midi": 64,
      "hit": false,
      "t": 104020.83333333342,
      "d": 1114.583333333343,
      "v": 98
    },
    {
      "midi": 60,
      "hit": false,
      "t": 104250.00000000009,
      "d": 1239.583333333343,
      "v": 80
    },
    {
      "midi": 55,
      "hit": false,
      "t": 104500.00000000009,
      "d": 989.583333333343,
      "v": 73
    },
    {
      "midi": 64,
      "hit": false,
      "t": 105260.41666666676,
      "d": 739.5833333333285,
      "v": 102
    },
    {
      "midi": 62,
      "hit": false,
      "t": 105510.41666666676,
      "d": 218.75,
      "v": 89
    },
    {
      "midi": 60,
      "hit": false,
      "t": 105750.00000000009,
      "d": 260.4166666666715,
      "v": 78
    },
    {
      "midi": 43,
      "hit": false,
      "t": 106000.00000000009,
      "d": 1989.5833333333721,
      "v": 83
    },
    {
      "midi": 62,
      "hit": false,
      "t": 106010.41666666676,
      "d": 197.91666666667152,
      "v": 76
    },
    {
      "midi": 62,
      "hit": false,
      "t": 106260.41666666676,
      "d": 1250.0000000000146,
      "v": 97
    },
    {
      "midi": 57,
      "hit": false,
      "t": 106510.41666666676,
      "d": 260.41666666665697,
      "v": 98
    },
    {
      "midi": 50,
      "hit": false,
      "t": 106510.41666666676,
      "d": 1489.5833333333721,
      "v": 80
    },
    {
      "midi": 59,
      "hit": false,
      "t": 106750.00000000009,
      "d": 760.4166666666861,
      "v": 88
    },
    {
      "midi": 55,
      "hit": false,
      "t": 107000.00000000009,
      "d": 989.5833333333721,
      "v": 76
    },
    {
      "midi": 64,
      "hit": false,
      "t": 107260.41666666676,
      "d": 197.91666666667152,
      "v": 52
    },
    {
      "midi": 60,
      "hit": false,
      "t": 107500.0000000001,
      "d": 239.58333333334303,
      "v": 72
    },
    {
      "midi": 69,
      "hit": false,
      "t": 107510.41666666677,
      "d": 239.58333333334303,
      "v": 66
    },
    {
      "midi": 62,
      "hit": false,
      "t": 107739.58333333344,
      "d": 239.58333333334303,
      "v": 86
    },
    {
      "midi": 71,
      "hit": false,
      "t": 107750.00000000012,
      "d": 239.58333333334303,
      "v": 96
    },
    {
      "midi": 64,
      "hit": false,
      "t": 108000.00000000013,
      "d": 218.75,
      "v": 93
    },
    {
      "midi": 72,
      "hit": false,
      "t": 108000.00000000013,
      "d": 375,
      "v": 114
    },
    {
      "midi": 45,
      "hit": false,
      "t": 108000.00000000013,
      "d": 1968.7499999999854,
      "v": 80
    },
    {
      "midi": 52,
      "hit": false,
      "t": 108000.00000000013,
      "d": 1968.7499999999854,
      "v": 86
    },
    {
      "midi": 64,
      "hit": false,
      "t": 108239.58333333346,
      "d": 697.9166666666715,
      "v": 83
    },
    {
      "midi": 72,
      "hit": false,
      "t": 108500.00000000013,
      "d": 437.5,
      "v": 91
    },
    {
      "midi": 72,
      "hit": false,
      "t": 109000.00000000013,
      "d": 489.5833333333285,
      "v": 99
    },
    {
      "midi": 69,
      "hit": false,
      "t": 109000.00000000013,
      "d": 520.8333333333285,
      "v": 100
    },
    {
      "midi": 62,
      "hit": false,
      "t": 109510.41666666679,
      "d": 437.5,
      "v": 80
    },
    {
      "midi": 71,
      "hit": false,
      "t": 109510.41666666679,
      "d": 479.16666666665697,
      "v": 84
    },
    {
      "midi": 52,
      "hit": false,
      "t": 110000.00000000012,
      "d": 583.3333333333285,
      "v": 83
    },
    {
      "midi": 45,
      "hit": false,
      "t": 110000.00000000012,
      "d": 1947.916666666657,
      "v": 83
    },
    {
      "midi": 64,
      "hit": false,
      "t": 110250.00000000012,
      "d": 1739.5833333333285,
      "v": 102
    },
    {
      "midi": 69,
      "hit": false,
      "t": 110260.41666666679,
      "d": 1739.5833333333285,
      "v": 90
    },
    {
      "midi": 60,
      "hit": false,
      "t": 110500.00000000012,
      "d": 489.5833333333285,
      "v": 89
    },
    {
      "midi": 52,
      "hit": false,
      "t": 110760.41666666677,
      "d": 583.3333333333285,
      "v": 87
    },
    {
      "midi": 62,
      "hit": false,
      "t": 111010.41666666677,
      "d": 750,
      "v": 104
    },
    {
      "midi": 59,
      "hit": false,
      "t": 111250.0000000001,
      "d": 739.583333333343,
      "v": 83
    },
    {
      "midi": 52,
      "hit": false,
      "t": 111510.41666666677,
      "d": 375,
      "v": 83
    },
    {
      "midi": 50,
      "hit": false,
      "t": 112000.00000000012,
      "d": 3802.083333333343,
      "v": 114
    },
    {
      "midi": 38,
      "hit": false,
      "t": 112510.41666666679,
      "d": 3385.4166666666715,
      "v": 78
    },
    {
      "midi": 64,
      "hit": false,
      "t": 113000.00000000012,
      "d": 2989.583333333343,
      "v": 114
    },
    {
      "midi": 69,
      "hit": false,
      "t": 113000.00000000012,
      "d": 2989.583333333343,
      "v": 120
    },
    {
      "midi": 66,
      "hit": false,
      "t": 113250.00000000012,
      "d": 2739.583333333343,
      "v": 95
    },
    {
      "midi": 60,
      "hit": false,
      "t": 113500.00000000012,
      "d": 187.5,
      "v": 83
    },
    {
      "midi": 57,
      "hit": false,
      "t": 113760.41666666679,
      "d": 156.25,
      "v": 71
    },
    {
      "midi": 62,
      "hit": false,
      "t": 114000.00000000012,
      "d": 322.9166666666715,
      "v": 118
    },
    {
      "midi": 57,
      "hit": false,
      "t": 114250.00000000012,
      "d": 197.91666666667152,
      "v": 76
    },
    {
      "midi": 57,
      "hit": false,
      "t": 114500.00000000012,
      "d": 208.33333333332848,
      "v": 86
    },
    {
      "midi": 59,
      "hit": false,
      "t": 114750.00000000012,
      "d": 500,
      "v": 105
    },
    {
      "midi": 57,
      "hit": false,
      "t": 115239.58333333344,
      "d": 208.33333333334303,
      "v": 68
    },
    {
      "midi": 60,
      "hit": false,
      "t": 115489.58333333346,
      "d": 416.6666666666715,
      "v": 110
    },
    {
      "midi": 57,
      "hit": false,
      "t": 115760.41666666679,
      "d": 135.41666666667152,
      "v": 61
    },
    {
      "midi": 57,
      "hit": false,
      "t": 116000.00000000013,
      "d": 229.16666666667152,
      "v": 101
    },
    {
      "midi": 50,
      "hit": false,
      "t": 116000.00000000013,
      "d": 645.833333333343,
      "v": 81
    },
    {
      "midi": 62,
      "hit": false,
      "t": 116000.00000000013,
      "d": 989.583333333343,
      "v": 101
    },
    {
      "midi": 43,
      "hit": false,
      "t": 116000.00000000013,
      "d": 2333.3333333333285,
      "v": 79
    },
    {
      "midi": 59,
      "hit": false,
      "t": 116239.58333333347,
      "d": 708.3333333333285,
      "v": 80
    },
    {
      "midi": 55,
      "hit": false,
      "t": 116489.58333333347,
      "d": 489.5833333333285,
      "v": 79
    },
    {
      "midi": 50,
      "hit": false,
      "t": 116739.58333333347,
      "d": 1562.4999999999854,
      "v": 78
    },
    {
      "midi": 59,
      "hit": false,
      "t": 117000.00000000015,
      "d": 489.5833333333285,
      "v": 93
    },
    {
      "midi": 67,
      "hit": false,
      "t": 117000.00000000015,
      "d": 489.5833333333285,
      "v": 98
    },
    {
      "midi": 60,
      "hit": false,
      "t": 117510.4166666668,
      "d": 489.5833333333285,
      "v": 95
    },
    {
      "midi": 69,
      "hit": false,
      "t": 117510.4166666668,
      "d": 489.5833333333285,
      "v": 108
    },
    {
      "midi": 62,
      "hit": false,
      "t": 118010.4166666668,
      "d": 270.8333333333285,
      "v": 116
    },
    {
      "midi": 71,
      "hit": false,
      "t": 118010.4166666668,
      "d": 312.49999999998545,
      "v": 127
    },
    {
      "midi": 55,
      "hit": false,
      "t": 118510.41666666679,
      "d": 250,
      "v": 112
    },
    {
      "midi": 59,
      "hit": false,
      "t": 118510.41666666679,
      "d": 260.4166666666715,
      "v": 110
    },
    {
      "midi": 64,
      "hit": false,
      "t": 118510.41666666679,
      "d": 270.83333333334303,
      "v": 107
    },
    {
      "midi": 59,
      "hit": false,
      "t": 119000.00000000013,
      "d": 270.8333333333285,
      "v": 110
    },
    {
      "midi": 62,
      "hit": false,
      "t": 119000.00000000013,
      "d": 270.8333333333285,
      "v": 116
    },
    {
      "midi": 67,
      "hit": false,
      "t": 119000.00000000013,
      "d": 270.8333333333285,
      "v": 112
    },
    {
      "midi": 60,
      "hit": false,
      "t": 119500.00000000013,
      "d": 4489.583333333343,
      "v": 112
    },
    {
      "midi": 64,
      "hit": false,
      "t": 119510.4166666668,
      "d": 4489.583333333343,
      "v": 118
    },
    {
      "midi": 69,
      "hit": false,
      "t": 119510.4166666668,
      "d": 4489.583333333343,
      "v": 118
    },
    {
      "midi": 41,
      "hit": false,
      "t": 124000.00000000015,
      "d": 1750.0000000000146,
      "v": 87
    },
    {
      "midi": 48,
      "hit": false,
      "t": 124000.00000000015,
      "d": 1750.0000000000146,
      "v": 93
    },
    {
      "midi": 53,
      "hit": false,
      "t": 124000.00000000015,
      "d": 1802.083333333343,
      "v": 90
    },
    {
      "midi": 68,
      "hit": false,
      "t": 124218.75000000015,
      "d": 52.08333333332848,
      "v": 120
    },
    {
      "midi": 69,
      "hit": false,
      "t": 124250.00000000015,
      "d": 739.583333333343,
      "v": 84
    },
    {
      "midi": 65,
      "hit": false,
      "t": 124250.00000000015,
      "d": 1020.833333333343,
      "v": 96
    },
    {
      "midi": 72,
      "hit": false,
      "t": 124500.00000000015,
      "d": 489.58333333334303,
      "v": 110
    },
    {
      "midi": 74,
      "hit": false,
      "t": 124750.00000000015,
      "d": 239.58333333334303,
      "v": 102
    },
    {
      "midi": 68,
      "hit": false,
      "t": 124968.75000000015,
      "d": 10.416666666671517,
      "v": 123
    },
    {
      "midi": 69,
      "hit": false,
      "t": 125020.83333333349,
      "d": 489.58333333334303,
      "v": 112
    },
    {
      "midi": 72,
      "hit": false,
      "t": 125500.00000000016,
      "d": 562.5,
      "v": 104
    },
    {
      "midi": 65,
      "hit": false,
      "t": 125750.00000000016,
      "d": 322.9166666666715,
      "v": 93
    },
    {
      "midi": 69,
      "hit": false,
      "t": 125770.83333333349,
      "d": 322.9166666666715,
      "v": 112
    },
    {
      "midi": 48,
      "hit": false,
      "t": 125958.33333333349,
      "d": 385.4166666666715,
      "v": 85
    },
    {
      "midi": 53,
      "hit": false,
      "t": 125968.75000000016,
      "d": 375,
      "v": 90
    },
    {
      "midi": 57,
      "hit": false,
      "t": 125968.75000000016,
      "d": 375,
      "v": 101
    },
    {
      "midi": 41,
      "hit": false,
      "t": 125979.16666666683,
      "d": 395.8333333333285,
      "v": 78
    },
    {
      "midi": 60,
      "hit": false,
      "t": 126229.16666666683,
      "d": 239.58333333332848,
      "v": 85
    },
    {
      "midi": 59,
      "hit": false,
      "t": 126479.16666666683,
      "d": 270.8333333333285,
      "v": 120
    },
    {
      "midi": 64,
      "hit": false,
      "t": 126479.16666666683,
      "d": 270.8333333333285,
      "v": 104
    },
    {
      "midi": 67,
      "hit": false,
      "t": 126500.00000000016,
      "d": 270.8333333333285,
      "v": 104
    },
    {
      "midi": 71,
      "hit": false,
      "t": 126989.58333333349,
      "d": 270.83333333334303,
      "v": 112
    },
    {
      "midi": 67,
      "hit": false,
      "t": 126989.58333333349,
      "d": 281.25000000001455,
      "v": 120
    },
    {
      "midi": 62,
      "hit": false,
      "t": 127000.00000000016,
      "d": 281.25000000001455,
      "v": 120
    },
    {
      "midi": 72,
      "hit": false,
      "t": 127479.16666666685,
      "d": 1489.583333333343,
      "v": 118
    },
    {
      "midi": 64,
      "hit": false,
      "t": 127479.16666666685,
      "d": 1739.5833333333576,
      "v": 120
    },
    {
      "midi": 52,
      "hit": false,
      "t": 127479.16666666685,
      "d": 4260.41666666673,
      "v": 108
    },
    {
      "midi": 45,
      "hit": false,
      "t": 127479.16666666685,
      "d": 4291.66666666673,
      "v": 108
    },
    {
      "midi": 69,
      "hit": false,
      "t": 127489.58333333352,
      "d": 1489.583333333343,
      "v": 127
    },
    {
      "midi": 72,
      "hit": false,
      "t": 129020.83333333353,
      "d": 458.33333333334303,
      "v": 120
    },
    {
      "midi": 69,
      "hit": false,
      "t": 129020.83333333353,
      "d": 489.58333333334303,
      "v": 118
    },
    {
      "midi": 64,
      "hit": false,
      "t": 129250.0000000002,
      "d": 1239.5833333333285,
      "v": 78
    },
    {
      "midi": 67,
      "hit": false,
      "t": 129500.0000000002,
      "d": 218.75,
      "v": 98
    },
    {
      "midi": 72,
      "hit": false,
      "t": 129510.41666666688,
      "d": 958.3333333333285,
      "v": 105
    },
    {
      "midi": 69,
      "hit": false,
      "t": 129750.0000000002,
      "d": 687.5,
      "v": 96
    },
    {
      "midi": 72,
      "hit": false,
      "t": 130500.0000000002,
      "d": 72.91666666667152,
      "v": 62
    },
    {
      "midi": 69,
      "hit": false,
      "t": 130500.0000000002,
      "d": 83.33333333334303,
      "v": 52
    },
    {
      "midi": 69,
      "hit": false,
      "t": 130666.66666666688,
      "d": 52.08333333332848,
      "v": 83
    },
    {
      "midi": 72,
      "hit": false,
      "t": 130666.66666666688,
      "d": 52.08333333332848,
      "v": 82
    },
    {
      "midi": 72,
      "hit": false,
      "t": 130822.91666666688,
      "d": 52.083333333343035,
      "v": 89
    },
    {
      "midi": 69,
      "hit": false,
      "t": 130833.33333333355,
      "d": 52.083333333343035,
      "v": 88
    },
    {
      "midi": 72,
      "hit": false,
      "t": 130989.58333333356,
      "d": 177.08333333332848,
      "v": 112
    },
    {
      "midi": 69,
      "hit": false,
      "t": 131000.00000000023,
      "d": 197.91666666665697,
      "v": 101
    },
    {
      "midi": 67,
      "hit": false,
      "t": 131156.25000000023,
      "d": 145.83333333331393,
      "v": 100
    },
    {
      "midi": 64,
      "hit": false,
      "t": 131322.9166666669,
      "d": 114.58333333334303,
      "v": 100
    },
    {
      "midi": 62,
      "hit": false,
      "t": 131489.58333333358,
      "d": 166.66666666665697,
      "v": 84
    },
    {
      "midi": 60,
      "hit": false,
      "t": 131656.25000000023,
      "d": 125,
      "v": 66
    },
    {
      "midi": 57,
      "hit": false,
      "t": 131822.9166666669,
      "d": 135.41666666665697,
      "v": 76
    },
    {
      "midi": 45,
      "hit": false,
      "t": 132000.0000000002,
      "d": 1875,
      "v": 107
    },
    {
      "midi": 38,
      "hit": false,
      "t": 132000.0000000002,
      "d": 1937.5,
      "v": 100
    },
    {
      "midi": 60,
      "hit": false,
      "t": 132500.0000000002,
      "d": 666.6666666666861,
      "v": 93
    },
    {
      "midi": 57,
      "hit": false,
      "t": 132500.0000000002,
      "d": 1197.916666666657,
      "v": 90
    },
    {
      "midi": 66,
      "hit": false,
      "t": 132989.58333333355,
      "d": 343.75,
      "v": 94
    },
    {
      "midi": 69,
      "hit": false,
      "t": 132989.58333333355,
      "d": 739.5833333333139,
      "v": 105
    },
    {
      "midi": 60,
      "hit": false,
      "t": 133260.4166666669,
      "d": 343.7499999999709,
      "v": 88
    },
    {
      "midi": 66,
      "hit": false,
      "t": 133500.0000000002,
      "d": 166.66666666665697,
      "v": 91
    },
    {
      "midi": 58,
      "hit": false,
      "t": 133677.08333333352,
      "d": 31.25,
      "v": 97
    },
    {
      "midi": 59,
      "hit": false,
      "t": 133750.0000000002,
      "d": 489.58333333331393,
      "v": 105
    },
    {
      "midi": 67,
      "hit": false,
      "t": 133979.16666666686,
      "d": 239.58333333331393,
      "v": 105
    },
    {
      "midi": 50,
      "hit": false,
      "t": 133989.58333333352,
      "d": 1937.499999999971,
      "v": 104
    },
    {
      "midi": 43,
      "hit": false,
      "t": 133989.58333333352,
      "d": 1968.749999999971,
      "v": 98
    },
    {
      "midi": 57,
      "hit": false,
      "t": 134250.00000000017,
      "d": 489.58333333331393,
      "v": 86
    },
    {
      "midi": 65,
      "hit": false,
      "t": 134250.00000000017,
      "d": 687.4999999999709,
      "v": 101
    },
    {
      "midi": 55,
      "hit": false,
      "t": 134729.16666666683,
      "d": 677.0833333333139,
      "v": 101
    },
    {
      "midi": 64,
      "hit": false,
      "t": 134979.1666666668,
      "d": 468.75,
      "v": 108
    },
    {
      "midi": 53,
      "hit": false,
      "t": 135510.4166666668,
      "d": 375,
      "v": 83
    },
    {
      "midi": 62,
      "hit": false,
      "t": 135510.4166666668,
      "d": 395.83333333334303,
      "v": 96
    },
    {
      "midi": 55,
      "hit": false,
      "t": 135750.00000000015,
      "d": 239.58333333334303,
      "v": 100
    },
    {
      "midi": 63,
      "hit": false,
      "t": 135947.91666666683,
      "d": 10.416666666656965,
      "v": 120
    },
    {
      "midi": 48,
      "hit": false,
      "t": 136000.00000000015,
      "d": 1895.833333333343,
      "v": 91
    },
    {
      "midi": 36,
      "hit": false,
      "t": 136000.00000000015,
      "d": 2052.083333333343,
      "v": 89
    },
    {
      "midi": 64,
      "hit": false,
      "t": 136020.8333333335,
      "d": 822.916666666657,
      "v": 112
    },
    {
      "midi": 67,
      "hit": false,
      "t": 136489.5833333335,
      "d": 385.41666666665697,
      "v": 96
    },
    {
      "midi": 65,
      "hit": false,
      "t": 136989.5833333335,
      "d": 197.91666666665697,
      "v": 100
    },
    {
      "midi": 72,
      "hit": false,
      "t": 136989.5833333335,
      "d": 406.25,
      "v": 107
    },
    {
      "midi": 67,
      "hit": false,
      "t": 136989.5833333335,
      "d": 437.5,
      "v": 101
    },
    {
      "midi": 64,
      "hit": false,
      "t": 137250.00000000015,
      "d": 281.25,
      "v": 90
    },
    {
      "midi": 62,
      "hit": false,
      "t": 137489.5833333335,
      "d": 270.83333333334303,
      "v": 101
    },
    {
      "midi": 60,
      "hit": false,
      "t": 137739.5833333335,
      "d": 250,
      "v": 82
    },
    {
      "midi": 62,
      "hit": false,
      "t": 137989.5833333335,
      "d": 989.5833333333139,
      "v": 96
    },
    {
      "midi": 67,
      "hit": false,
      "t": 137989.5833333335,
      "d": 989.5833333333139,
      "v": 94
    },
    {
      "midi": 43,
      "hit": false,
      "t": 138250.00000000015,
      "d": 1625,
      "v": 101
    },
    {
      "midi": 31,
      "hit": false,
      "t": 138510.4166666668,
      "d": 1375,
      "v": 85
    },
    {
      "midi": 58,
      "hit": false,
      "t": 139000.00000000015,
      "d": 20.833333333343035,
      "v": 95
    },
    {
      "midi": 59,
      "hit": false,
      "t": 139031.25000000015,
      "d": 989.5833333333139,
      "v": 102
    },
    {
      "midi": 62,
      "hit": false,
      "t": 139250.00000000015,
      "d": 250,
      "v": 93
    },
    {
      "midi": 67,
      "hit": false,
      "t": 139500.00000000015,
      "d": 489.58333333331393,
      "v": 116
    },
    {
      "midi": 45,
      "hit": false,
      "t": 140000.00000000012,
      "d": 3916.666666666657,
      "v": 88
    },
    {
      "midi": 52,
      "hit": false,
      "t": 140000.00000000012,
      "d": 3916.666666666657,
      "v": 75
    },
    {
      "midi": 68,
      "hit": false,
      "t": 140218.75000000012,
      "d": 31.25,
      "v": 111
    },
    {
      "midi": 69,
      "hit": false,
      "t": 140250.00000000012,
      "d": 989.5833333333139,
      "v": 108
    },
    {
      "midi": 72,
      "hit": false,
      "t": 140489.58333333346,
      "d": 739.5833333333139,
      "v": 107
    },
    {
      "midi": 64,
      "hit": false,
      "t": 140500.00000000012,
      "d": 739.5833333333139,
      "v": 87
    },
    {
      "midi": 62,
      "hit": false,
      "t": 141250.0000000001,
      "d": 739.583333333343,
      "v": 101
    },
    {
      "midi": 71,
      "hit": false,
      "t": 141250.0000000001,
      "d": 739.583333333343,
      "v": 105
    },
    {
      "midi": 60,
      "hit": false,
      "t": 141989.58333333343,
      "d": 531.25,
      "v": 86
    },
    {
      "midi": 69,
      "hit": false,
      "t": 141989.58333333343,
      "d": 1989.583333333343,
      "v": 96
    },
    {
      "midi": 62,
      "hit": false,
      "t": 142500.0000000001,
      "d": 187.5,
      "v": 80
    },
    {
      "midi": 64,
      "hit": false,
      "t": 142739.58333333343,
      "d": 1239.583333333343,
      "v": 83
    },
    {
      "midi": 60,
      "hit": false,
      "t": 142989.58333333343,
      "d": 500,
      "v": 116
    },
    {
      "midi": 59,
      "hit": false,
      "t": 143500.0000000001,
      "d": 239.58333333334303,
      "v": 95
    },
    {
      "midi": 56,
      "hit": false,
      "t": 143958.33333333343,
      "d": 20.833333333343035,
      "v": 99
    },
    {
      "midi": 48,
      "hit": false,
      "t": 144010.41666666677,
      "d": 895.833333333343,
      "v": 86
    },
    {
      "midi": 57,
      "hit": false,
      "t": 144010.41666666677,
      "d": 1239.583333333314,
      "v": 105
    },
    {
      "midi": 41,
      "hit": false,
      "t": 144010.41666666677,
      "d": 1958.3333333332848,
      "v": 76
    },
    {
      "midi": 60,
      "hit": false,
      "t": 144260.41666666677,
      "d": 187.5,
      "v": 91
    },
    {
      "midi": 60,
      "hit": false,
      "t": 144510.41666666677,
      "d": 729.166666666657,
      "v": 98
    },
    {
      "midi": 48,
      "hit": false,
      "t": 145010.41666666677,
      "d": 947.9166666666279,
      "v": 85
    },
    {
      "midi": 57,
      "hit": false,
      "t": 145260.41666666674,
      "d": 656.25,
      "v": 83
    },
    {
      "midi": 65,
      "hit": false,
      "t": 145510.41666666674,
      "d": 239.58333333334303,
      "v": 108
    },
    {
      "midi": 67,
      "hit": false,
      "t": 145760.41666666674,
      "d": 729.1666666666279,
      "v": 110
    },
    {
      "midi": 43,
      "hit": false,
      "t": 146000.00000000006,
      "d": 989.5833333332848,
      "v": 84
    },
    {
      "midi": 50,
      "hit": false,
      "t": 146000.00000000006,
      "d": 1989.5833333332557,
      "v": 93
    },
    {
      "midi": 63,
      "hit": false,
      "t": 146468.75000000006,
      "d": 10.416666666656965,
      "v": 114
    },
    {
      "midi": 67,
      "hit": false,
      "t": 146500.00000000003,
      "d": 593.7499999999709,
      "v": 100
    },
    {
      "midi": 64,
      "hit": false,
      "t": 146500.00000000003,
      "d": 604.1666666666279,
      "v": 104
    },
    {
      "midi": 55,
      "hit": false,
      "t": 146760.4166666667,
      "d": 427.08333333331393,
      "v": 93
    },
    {
      "midi": 43,
      "hit": false,
      "t": 147000,
      "d": 989.5833333333139,
      "v": 96
    },
    {
      "midi": 65,
      "hit": false,
      "t": 147250,
      "d": 739.5833333333139,
      "v": 116
    },
    {
      "midi": 62,
      "hit": false,
      "t": 147260.41666666666,
      "d": 739.5833333333139,
      "v": 112
    },
    {
      "midi": 57,
      "hit": false,
      "t": 147510.41666666666,
      "d": 489.58333333331393,
      "v": 82
    },
    {
      "midi": 60,
      "hit": false,
      "t": 148010.41666666663,
      "d": 760.4166666666861,
      "v": 86
    },
    {
      "midi": 52,
      "hit": false,
      "t": 148010.41666666663,
      "d": 989.583333333343,
      "v": 78
    },
    {
      "midi": 55,
      "hit": false,
      "t": 148010.41666666663,
      "d": 989.583333333343,
      "v": 98
    },
    {
      "midi": 62,
      "hit": false,
      "t": 148749.99999999997,
      "d": 93.75,
      "v": 68
    },
    {
      "midi": 64,
      "hit": false,
      "t": 148864.5833333333,
      "d": 125,
      "v": 88
    },
    {
      "midi": 65,
      "hit": false,
      "t": 149010.41666666663,
      "d": 729.166666666657,
      "v": 104
    },
    {
      "midi": 60,
      "hit": false,
      "t": 149010.41666666663,
      "d": 739.5833333333139,
      "v": 80
    },
    {
      "midi": 57,
      "hit": false,
      "t": 149010.41666666663,
      "d": 760.4166666666279,
      "v": 90
    },
    {
      "midi": 64,
      "hit": false,
      "t": 149760.4166666666,
      "d": 83.33333333331393,
      "v": 70
    },
    {
      "midi": 62,
      "hit": false,
      "t": 149874.9999999999,
      "d": 93.75,
      "v": 75
    },
    {
      "midi": 64,
      "hit": false,
      "t": 149989.58333333326,
      "d": 739.583333333343,
      "v": 97
    },
    {
      "midi": 55,
      "hit": false,
      "t": 149989.58333333326,
      "d": 843.75,
      "v": 83
    },
    {
      "midi": 59,
      "hit": false,
      "t": 149989.58333333326,
      "d": 843.75,
      "v": 76
    },
    {
      "midi": 62,
      "hit": false,
      "t": 150760.4166666666,
      "d": 72.91666666665697,
      "v": 83
    },
    {
      "midi": 60,
      "hit": false,
      "t": 150874.9999999999,
      "d": 41.666666666656965,
      "v": 86
    },
    {
      "midi": 67,
      "hit": false,
      "t": 150999.9999999999,
      "d": 708.3333333333139,
      "v": 93
    },
    {
      "midi": 53,
      "hit": false,
      "t": 150999.9999999999,
      "d": 927.0833333333139,
      "v": 72
    },
    {
      "midi": 57,
      "hit": false,
      "t": 150999.9999999999,
      "d": 989.5833333333139,
      "v": 74
    },
    {
      "midi": 62,
      "hit": false,
      "t": 151010.41666666657,
      "d": 656.25,
      "v": 90
    },
    {
      "midi": 60,
      "hit": false,
      "t": 151739.58333333323,
      "d": 62.5,
      "v": 76
    },
    {
      "midi": 59,
      "hit": false,
      "t": 151864.58333333323,
      "d": 83.33333333334303,
      "v": 86
    },
    {
      "midi": 52,
      "hit": false,
      "t": 151989.58333333323,
      "d": 989.583333333343,
      "v": 76
    },
    {
      "midi": 55,
      "hit": false,
      "t": 151989.58333333323,
      "d": 989.583333333343,
      "v": 80
    },
    {
      "midi": 60,
      "hit": false,
      "t": 151989.58333333323,
      "d": 989.583333333343,
      "v": 95
    },
    {
      "midi": 64,
      "hit": false,
      "t": 151999.99999999988,
      "d": 979.1666666666861,
      "v": 104
    },
    {
      "midi": 67,
      "hit": false,
      "t": 152239.58333333323,
      "d": 739.583333333343,
      "v": 89
    },
    {
      "midi": 72,
      "hit": false,
      "t": 152489.58333333323,
      "d": 458.33333333334303,
      "v": 101
    },
    {
      "midi": 60,
      "hit": false,
      "t": 152999.9999999999,
      "d": 979.166666666657,
      "v": 96
    },
    {
      "midi": 65,
      "hit": false,
      "t": 152999.9999999999,
      "d": 979.166666666657,
      "v": 101
    },
    {
      "midi": 69,
      "hit": false,
      "t": 153010.41666666657,
      "d": 947.916666666657,
      "v": 104
    },
    {
      "midi": 72,
      "hit": false,
      "t": 153010.41666666657,
      "d": 1489.583333333343,
      "v": 107
    },
    {
      "midi": 59,
      "hit": false,
      "t": 154010.41666666657,
      "d": 895.833333333343,
      "v": 98
    },
    {
      "midi": 64,
      "hit": false,
      "t": 154010.41666666657,
      "d": 895.833333333343,
      "v": 97
    },
    {
      "midi": 67,
      "hit": false,
      "t": 154010.41666666657,
      "d": 958.333333333343,
      "v": 110
    },
    {
      "midi": 72,
      "hit": false,
      "t": 154510.41666666657,
      "d": 1489.583333333343,
      "v": 102
    },
    {
      "midi": 57,
      "hit": false,
      "t": 154989.58333333326,
      "d": 906.25,
      "v": 96
    },
    {
      "midi": 65,
      "hit": false,
      "t": 154989.58333333326,
      "d": 989.583333333343,
      "v": 102
    },
    {
      "midi": 62,
      "hit": false,
      "t": 154999.9999999999,
      "d": 916.6666666666861,
      "v": 102
    },
    {
      "midi": 40,
      "hit": false,
      "t": 155989.58333333326,
      "d": 3989.583333333314,
      "v": 93
    },
    {
      "midi": 45,
      "hit": false,
      "t": 155999.9999999999,
      "d": 3989.583333333314,
      "v": 104
    },
    {
      "midi": 33,
      "hit": false,
      "t": 156010.41666666657,
      "d": 3989.583333333314,
      "v": 90
    },
    {
      "midi": 52,
      "hit": false,
      "t": 156010.41666666657,
      "d": 3989.583333333314,
      "v": 90
    },
    {
      "midi": 57,
      "hit": false,
      "t": 156010.41666666657,
      "d": 3989.583333333314,
      "v": 102
    },
    {
      "midi": 59,
      "hit": false,
      "t": 156010.41666666657,
      "d": 3989.583333333314,
      "v": 104
    },
    {
      "midi": 64,
      "hit": false,
      "t": 156010.41666666657,
      "d": 3989.583333333314,
      "v": 101
    },
    {
      "midi": 31,
      "hit": false,
      "t": 168010.41666666654,
      "d": 479.16666666665697,
      "v": 116
    },
    {
      "midi": 33,
      "hit": false,
      "t": 168510.41666666654,
      "d": 729.166666666657,
      "v": 113
    },
    {
      "midi": 36,
      "hit": false,
      "t": 169499.99999999985,
      "d": 489.58333333334303,
      "v": 114
    },
    {
      "midi": 38,
      "hit": false,
      "t": 170010.41666666654,
      "d": 729.166666666657,
      "v": 110
    },
    {
      "midi": 38,
      "hit": false,
      "t": 171010.41666666654,
      "d": 489.58333333334303,
      "v": 105
    },
    {
      "midi": 40,
      "hit": false,
      "t": 171510.41666666654,
      "d": 625,
      "v": 116
    },
    {
      "midi": 43,
      "hit": false,
      "t": 172489.5833333332,
      "d": 489.58333333334303,
      "v": 116
    },
    {
      "midi": 45,
      "hit": false,
      "t": 172999.99999999988,
      "d": 614.583333333343,
      "v": 112
    },
    {
      "midi": 33,
      "hit": false,
      "t": 173989.58333333323,
      "d": 1447.916666666657,
      "v": 120
    },
    {
      "midi": 31,
      "hit": false,
      "t": 176010.41666666654,
      "d": 479.16666666665697,
      "v": 116
    },
    {
      "midi": 33,
      "hit": false,
      "t": 176510.41666666654,
      "d": 729.1666666666861,
      "v": 113
    },
    {
      "midi": 67,
      "hit": false,
      "t": 176999.99999999988,
      "d": 1114.583333333343,
      "v": 101
    },
    {
      "midi": 64,
      "hit": false,
      "t": 176999.99999999988,
      "d": 1135.416666666686,
      "v": 100
    },
    {
      "midi": 69,
      "hit": false,
      "t": 176999.99999999988,
      "d": 1145.833333333343,
      "v": 104
    },
    {
      "midi": 72,
      "hit": false,
      "t": 176999.99999999988,
      "d": 1145.833333333343,
      "v": 102
    },
    {
      "midi": 36,
      "hit": false,
      "t": 177499.99999999988,
      "d": 489.58333333334303,
      "v": 114
    },
    {
      "midi": 38,
      "hit": false,
      "t": 178010.41666666657,
      "d": 729.166666666657,
      "v": 110
    },
    {
      "midi": 66,
      "hit": false,
      "t": 178999.99999999988,
      "d": 1145.833333333314,
      "v": 105
    },
    {
      "midi": 69,
      "hit": false,
      "t": 178999.99999999988,
      "d": 1166.666666666657,
      "v": 104
    },
    {
      "midi": 72,
      "hit": false,
      "t": 178999.99999999988,
      "d": 1177.083333333314,
      "v": 105
    },
    {
      "midi": 62,
      "hit": false,
      "t": 178999.99999999988,
      "d": 1187.499999999971,
      "v": 110
    },
    {
      "midi": 38,
      "hit": false,
      "t": 179010.41666666654,
      "d": 489.58333333334303,
      "v": 105
    },
    {
      "midi": 40,
      "hit": false,
      "t": 179510.41666666654,
      "d": 625,
      "v": 116
    },
    {
      "midi": 43,
      "hit": false,
      "t": 180489.5833333332,
      "d": 489.58333333334303,
      "v": 116
    },
    {
      "midi": 45,
      "hit": false,
      "t": 180999.99999999988,
      "d": 614.583333333343,
      "v": 112
    },
    {
      "midi": 72,
      "hit": false,
      "t": 180999.99999999988,
      "d": 1072.916666666686,
      "v": 104
    },
    {
      "midi": 67,
      "hit": false,
      "t": 180999.99999999988,
      "d": 1093.750000000029,
      "v": 105
    },
    {
      "midi": 69,
      "hit": false,
      "t": 180999.99999999988,
      "d": 1093.750000000029,
      "v": 104
    },
    {
      "midi": 64,
      "hit": false,
      "t": 180999.99999999988,
      "d": 1166.666666666686,
      "v": 102
    },
    {
      "midi": 33,
      "hit": false,
      "t": 181989.58333333323,
      "d": 1447.916666666686,
      "v": 120
    },
    {
      "midi": 60,
      "hit": false,
      "t": 183010.41666666657,
      "d": 989.583333333343,
      "v": 101
    },
    {
      "midi": 64,
      "hit": false,
      "t": 183010.41666666657,
      "d": 1020.833333333343,
      "v": 98
    },
    {
      "midi": 67,
      "hit": false,
      "t": 183010.41666666657,
      "d": 1020.833333333343,
      "v": 97
    },
    {
      "midi": 69,
      "hit": false,
      "t": 183010.41666666657,
      "d": 1052.083333333343,
      "v": 98
    },
    {
      "midi": 31,
      "hit": false,
      "t": 184010.41666666657,
      "d": 479.16666666668607,
      "v": 116
    },
    {
      "midi": 33,
      "hit": false,
      "t": 184510.4166666666,
      "d": 729.1666666666861,
      "v": 113
    },
    {
      "midi": 67,
      "hit": false,
      "t": 184999.99999999994,
      "d": 1114.583333333343,
      "v": 101
    },
    {
      "midi": 64,
      "hit": false,
      "t": 184999.99999999994,
      "d": 1135.416666666686,
      "v": 100
    },
    {
      "midi": 69,
      "hit": false,
      "t": 184999.99999999994,
      "d": 1145.833333333343,
      "v": 104
    },
    {
      "midi": 72,
      "hit": false,
      "t": 184999.99999999994,
      "d": 1145.833333333343,
      "v": 102
    },
    {
      "midi": 36,
      "hit": false,
      "t": 185499.99999999994,
      "d": 489.58333333334303,
      "v": 114
    },
    {
      "midi": 38,
      "hit": false,
      "t": 186010.41666666663,
      "d": 729.166666666657,
      "v": 110
    },
    {
      "midi": 66,
      "hit": false,
      "t": 186999.99999999994,
      "d": 1145.833333333314,
      "v": 105
    },
    {
      "midi": 69,
      "hit": false,
      "t": 186999.99999999994,
      "d": 1166.666666666657,
      "v": 104
    },
    {
      "midi": 72,
      "hit": false,
      "t": 186999.99999999994,
      "d": 1177.083333333314,
      "v": 105
    },
    {
      "midi": 62,
      "hit": false,
      "t": 186999.99999999994,
      "d": 1187.499999999971,
      "v": 110
    },
    {
      "midi": 38,
      "hit": false,
      "t": 187010.4166666666,
      "d": 489.58333333334303,
      "v": 105
    },
    {
      "midi": 40,
      "hit": false,
      "t": 187510.4166666666,
      "d": 625,
      "v": 116
    },
    {
      "midi": 43,
      "hit": false,
      "t": 188489.58333333326,
      "d": 489.58333333334303,
      "v": 116
    },
    {
      "midi": 45,
      "hit": false,
      "t": 188999.99999999994,
      "d": 614.583333333343,
      "v": 112
    },
    {
      "midi": 72,
      "hit": false,
      "t": 188999.99999999994,
      "d": 1072.916666666686,
      "v": 104
    },
    {
      "midi": 67,
      "hit": false,
      "t": 188999.99999999994,
      "d": 1093.750000000029,
      "v": 105
    },
    {
      "midi": 69,
      "hit": false,
      "t": 188999.99999999994,
      "d": 1093.750000000029,
      "v": 104
    },
    {
      "midi": 64,
      "hit": false,
      "t": 188999.99999999994,
      "d": 1166.666666666686,
      "v": 102
    },
    {
      "midi": 33,
      "hit": false,
      "t": 189989.58333333328,
      "d": 1447.916666666686,
      "v": 120
    },
    {
      "midi": 60,
      "hit": false,
      "t": 191010.41666666663,
      "d": 989.583333333343,
      "v": 101
    },
    {
      "midi": 64,
      "hit": false,
      "t": 191010.41666666663,
      "d": 1020.833333333343,
      "v": 98
    },
    {
      "midi": 67,
      "hit": false,
      "t": 191010.41666666663,
      "d": 1020.833333333343,
      "v": 97
    },
    {
      "midi": 69,
      "hit": false,
      "t": 191010.41666666663,
      "d": 1052.083333333343,
      "v": 98
    },
    {
      "midi": 31,
      "hit": false,
      "t": 192010.41666666663,
      "d": 479.16666666668607,
      "v": 116
    },
    {
      "midi": 33,
      "hit": false,
      "t": 192510.41666666666,
      "d": 729.1666666666861,
      "v": 113
    },
    {
      "midi": 67,
      "hit": false,
      "t": 193000,
      "d": 1114.583333333343,
      "v": 101
    },
    {
      "midi": 64,
      "hit": false,
      "t": 193000,
      "d": 1135.416666666686,
      "v": 100
    },
    {
      "midi": 69,
      "hit": false,
      "t": 193000,
      "d": 1145.833333333343,
      "v": 104
    },
    {
      "midi": 72,
      "hit": false,
      "t": 193000,
      "d": 1145.833333333343,
      "v": 102
    },
    {
      "midi": 36,
      "hit": false,
      "t": 193500,
      "d": 489.58333333334303,
      "v": 114
    },
    {
      "midi": 38,
      "hit": false,
      "t": 194010.4166666667,
      "d": 729.166666666657,
      "v": 110
    },
    {
      "midi": 66,
      "hit": false,
      "t": 195000,
      "d": 1145.833333333314,
      "v": 105
    },
    {
      "midi": 69,
      "hit": false,
      "t": 195000,
      "d": 1166.666666666657,
      "v": 104
    },
    {
      "midi": 72,
      "hit": false,
      "t": 195000,
      "d": 1177.083333333314,
      "v": 105
    },
    {
      "midi": 62,
      "hit": false,
      "t": 195000,
      "d": 1187.499999999971,
      "v": 110
    },
    {
      "midi": 38,
      "hit": false,
      "t": 195010.41666666666,
      "d": 489.58333333334303,
      "v": 105
    },
    {
      "midi": 40,
      "hit": false,
      "t": 195510.41666666666,
      "d": 625,
      "v": 116
    },
    {
      "midi": 43,
      "hit": false,
      "t": 196489.5833333333,
      "d": 489.58333333334303,
      "v": 116
    },
    {
      "midi": 45,
      "hit": false,
      "t": 197000,
      "d": 614.583333333343,
      "v": 112
    },
    {
      "midi": 72,
      "hit": false,
      "t": 197000,
      "d": 1072.916666666686,
      "v": 104
    },
    {
      "midi": 67,
      "hit": false,
      "t": 197000,
      "d": 1093.750000000029,
      "v": 105
    },
    {
      "midi": 69,
      "hit": false,
      "t": 197000,
      "d": 1093.750000000029,
      "v": 104
    },
    {
      "midi": 64,
      "hit": false,
      "t": 197000,
      "d": 1166.666666666686,
      "v": 102
    },
    {
      "midi": 33,
      "hit": false,
      "t": 197989.58333333334,
      "d": 1447.916666666686,
      "v": 120
    },
    {
      "midi": 60,
      "hit": false,
      "t": 199010.4166666667,
      "d": 989.583333333343,
      "v": 101
    },
    {
      "midi": 64,
      "hit": false,
      "t": 199010.4166666667,
      "d": 1020.833333333343,
      "v": 98
    },
    {
      "midi": 67,
      "hit": false,
      "t": 199010.4166666667,
      "d": 1020.833333333343,
      "v": 97
    },
    {
      "midi": 69,
      "hit": false,
      "t": 199010.4166666667,
      "d": 1052.083333333343,
      "v": 98
    },
    {
      "midi": 31,
      "hit": false,
      "t": 200010.4166666667,
      "d": 479.16666666668607,
      "v": 116
    },
    {
      "midi": 33,
      "hit": false,
      "t": 200510.41666666672,
      "d": 729.1666666666861,
      "v": 113
    },
    {
      "midi": 67,
      "hit": false,
      "t": 201000.00000000006,
      "d": 1114.583333333343,
      "v": 101
    },
    {
      "midi": 64,
      "hit": false,
      "t": 201000.00000000006,
      "d": 1135.416666666686,
      "v": 100
    },
    {
      "midi": 69,
      "hit": false,
      "t": 201000.00000000006,
      "d": 1145.833333333343,
      "v": 104
    },
    {
      "midi": 72,
      "hit": false,
      "t": 201000.00000000006,
      "d": 1145.833333333343,
      "v": 102
    },
    {
      "midi": 36,
      "hit": false,
      "t": 201500.00000000006,
      "d": 489.58333333334303,
      "v": 114
    },
    {
      "midi": 38,
      "hit": false,
      "t": 202010.41666666674,
      "d": 729.166666666657,
      "v": 110
    },
    {
      "midi": 66,
      "hit": false,
      "t": 203000.00000000006,
      "d": 1145.833333333314,
      "v": 105
    },
    {
      "midi": 69,
      "hit": false,
      "t": 203000.00000000006,
      "d": 1166.666666666657,
      "v": 104
    },
    {
      "midi": 72,
      "hit": false,
      "t": 203000.00000000006,
      "d": 1177.083333333314,
      "v": 105
    },
    {
      "midi": 62,
      "hit": false,
      "t": 203000.00000000006,
      "d": 1187.499999999971,
      "v": 110
    },
    {
      "midi": 38,
      "hit": false,
      "t": 203010.41666666672,
      "d": 489.58333333334303,
      "v": 105
    },
    {
      "midi": 40,
      "hit": false,
      "t": 203510.41666666672,
      "d": 625,
      "v": 116
    },
    {
      "midi": 43,
      "hit": false,
      "t": 204489.58333333337,
      "d": 489.58333333334303,
      "v": 116
    },
    {
      "midi": 45,
      "hit": false,
      "t": 205000.00000000006,
      "d": 614.583333333343,
      "v": 112
    },
    {
      "midi": 72,
      "hit": false,
      "t": 205000.00000000006,
      "d": 1072.916666666686,
      "v": 104
    },
    {
      "midi": 67,
      "hit": false,
      "t": 205000.00000000006,
      "d": 1093.750000000029,
      "v": 105
    },
    {
      "midi": 69,
      "hit": false,
      "t": 205000.00000000006,
      "d": 1093.750000000029,
      "v": 104
    },
    {
      "midi": 64,
      "hit": false,
      "t": 205000.00000000006,
      "d": 1166.666666666686,
      "v": 102
    },
    {
      "midi": 33,
      "hit": false,
      "t": 205989.5833333334,
      "d": 1447.916666666686,
      "v": 120
    },
    {
      "midi": 60,
      "hit": false,
      "t": 207010.41666666674,
      "d": 989.583333333343,
      "v": 101
    },
    {
      "midi": 64,
      "hit": false,
      "t": 207010.41666666674,
      "d": 1020.833333333343,
      "v": 98
    },
    {
      "midi": 67,
      "hit": false,
      "t": 207010.41666666674,
      "d": 1020.833333333343,
      "v": 97
    },
    {
      "midi": 69,
      "hit": false,
      "t": 207010.41666666674,
      "d": 1052.083333333343,
      "v": 98
    },
    {
      "midi": 36,
      "hit": false,
      "t": 208000.0000000001,
      "d": 489.58333333334303,
      "v": 104
    },
    {
      "midi": 38,
      "hit": false,
      "t": 208500.0000000001,
      "d": 739.5833333332848,
      "v": 108
    },
    {
      "midi": 72,
      "hit": false,
      "t": 208510.41666666674,
      "d": 510.41666666665697,
      "v": 98
    },
    {
      "midi": 62,
      "hit": false,
      "t": 208510.41666666674,
      "d": 520.8333333333139,
      "v": 97
    },
    {
      "midi": 69,
      "hit": false,
      "t": 208510.41666666674,
      "d": 531.2499999999709,
      "v": 102
    },
    {
      "midi": 62,
      "hit": false,
      "t": 209260.41666666672,
      "d": 468.75,
      "v": 105
    },
    {
      "midi": 69,
      "hit": false,
      "t": 209260.41666666672,
      "d": 468.75,
      "v": 108
    },
    {
      "midi": 72,
      "hit": false,
      "t": 209260.41666666672,
      "d": 489.58333333334303,
      "v": 107
    },
    {
      "midi": 29,
      "hit": false,
      "t": 209489.58333333337,
      "d": 489.58333333334303,
      "v": 105
    },
    {
      "midi": 69,
      "hit": false,
      "t": 209989.58333333337,
      "d": 583.333333333343,
      "v": 110
    },
    {
      "midi": 62,
      "hit": false,
      "t": 209989.58333333337,
      "d": 604.1666666666861,
      "v": 107
    },
    {
      "midi": 72,
      "hit": false,
      "t": 209989.58333333337,
      "d": 604.1666666666861,
      "v": 107
    },
    {
      "midi": 31,
      "hit": false,
      "t": 210010.41666666672,
      "d": 739.583333333343,
      "v": 114
    },
    {
      "midi": 67,
      "hit": false,
      "t": 210760.41666666672,
      "d": 489.58333333331393,
      "v": 88
    },
    {
      "midi": 71,
      "hit": false,
      "t": 210760.41666666672,
      "d": 531.2499999999709,
      "v": 93
    },
    {
      "midi": 62,
      "hit": false,
      "t": 210760.41666666672,
      "d": 552.0833333333139,
      "v": 90
    },
    {
      "midi": 31,
      "hit": false,
      "t": 210989.58333333337,
      "d": 458.33333333331393,
      "v": 102
    },
    {
      "midi": 33,
      "hit": false,
      "t": 211500.00000000003,
      "d": 604.166666666657,
      "v": 116
    },
    {
      "midi": 62,
      "hit": false,
      "t": 211510.4166666667,
      "d": 593.75,
      "v": 80
    },
    {
      "midi": 65,
      "hit": false,
      "t": 211510.4166666667,
      "d": 593.75,
      "v": 90
    },
    {
      "midi": 69,
      "hit": false,
      "t": 211510.4166666667,
      "d": 635.416666666657,
      "v": 81
    },
    {
      "midi": 36,
      "hit": false,
      "t": 212489.58333333334,
      "d": 489.58333333334303,
      "v": 114
    },
    {
      "midi": 72,
      "hit": false,
      "t": 212510.4166666667,
      "d": 520.8333333333139,
      "v": 114
    },
    {
      "midi": 62,
      "hit": false,
      "t": 212510.4166666667,
      "d": 541.666666666657,
      "v": 110
    },
    {
      "midi": 69,
      "hit": false,
      "t": 212510.4166666667,
      "d": 562.5,
      "v": 114
    },
    {
      "midi": 38,
      "hit": false,
      "t": 212989.58333333334,
      "d": 802.0833333333721,
      "v": 122
    },
    {
      "midi": 72,
      "hit": false,
      "t": 213260.4166666667,
      "d": 437.5,
      "v": 114
    },
    {
      "midi": 62,
      "hit": false,
      "t": 213260.4166666667,
      "d": 458.33333333334303,
      "v": 110
    },
    {
      "midi": 69,
      "hit": false,
      "t": 213260.4166666667,
      "d": 479.16666666668607,
      "v": 112
    },
    {
      "midi": 69,
      "hit": false,
      "t": 214010.41666666672,
      "d": 593.75,
      "v": 114
    },
    {
      "midi": 72,
      "hit": false,
      "t": 214010.41666666672,
      "d": 593.75,
      "v": 112
    },
    {
      "midi": 62,
      "hit": false,
      "t": 214010.41666666672,
      "d": 625,
      "v": 110
    },
    {
      "midi": 26,
      "hit": false,
      "t": 214010.41666666672,
      "d": 1750,
      "v": 124
    },
    {
      "midi": 67,
      "hit": false,
      "t": 214760.41666666672,
      "d": 531.25,
      "v": 100
    },
    {
      "midi": 71,
      "hit": false,
      "t": 214760.41666666672,
      "d": 562.5,
      "v": 95
    },
    {
      "midi": 62,
      "hit": false,
      "t": 214760.41666666672,
      "d": 583.333333333343,
      "v": 101
    },
    {
      "midi": 62,
      "hit": false,
      "t": 215510.41666666672,
      "d": 416.66666666665697,
      "v": 87
    },
    {
      "midi": 65,
      "hit": false,
      "t": 215510.41666666672,
      "d": 416.66666666665697,
      "v": 95
    },
    {
      "midi": 69,
      "hit": false,
      "t": 215510.41666666672,
      "d": 489.58333333331393,
      "v": 90
    },
    {
      "midi": 36,
      "hit": false,
      "t": 216010.4166666667,
      "d": 416.66666666665697,
      "v": 118
    },
    {
      "midi": 38,
      "hit": false,
      "t": 216500,
      "d": 708.3333333333139,
      "v": 107
    },
    {
      "midi": 72,
      "hit": false,
      "t": 216510.41666666666,
      "d": 489.58333333331393,
      "v": 107
    },
    {
      "midi": 69,
      "hit": false,
      "t": 216510.41666666666,
      "d": 520.8333333333139,
      "v": 108
    },
    {
      "midi": 62,
      "hit": false,
      "t": 216520.8333333333,
      "d": 500,
      "v": 104
    },
    {
      "midi": 72,
      "hit": false,
      "t": 217260.41666666666,
      "d": 406.25,
      "v": 112
    },
    {
      "midi": 62,
      "hit": false,
      "t": 217260.41666666666,
      "d": 427.08333333334303,
      "v": 108
    },
    {
      "midi": 69,
      "hit": false,
      "t": 217260.41666666666,
      "d": 447.91666666668607,
      "v": 114
    },
    {
      "midi": 29,
      "hit": false,
      "t": 217489.5833333333,
      "d": 479.16666666668607,
      "v": 108
    },
    {
      "midi": 69,
      "hit": false,
      "t": 217989.58333333334,
      "d": 645.833333333343,
      "v": 112
    },
    {
      "midi": 62,
      "hit": false,
      "t": 217989.58333333334,
      "d": 687.5,
      "v": 104
    },
    {
      "midi": 72,
      "hit": false,
      "t": 217989.58333333334,
      "d": 687.5,
      "v": 112
    },
    {
      "midi": 31,
      "hit": false,
      "t": 217989.58333333334,
      "d": 729.166666666657,
      "v": 112
    },
    {
      "midi": 71,
      "hit": false,
      "t": 218760.41666666666,
      "d": 562.5,
      "v": 95
    },
    {
      "midi": 67,
      "hit": false,
      "t": 218770.8333333333,
      "d": 500,
      "v": 95
    },
    {
      "midi": 62,
      "hit": false,
      "t": 218770.8333333333,
      "d": 947.9166666666861,
      "v": 87
    },
    {
      "midi": 31,
      "hit": false,
      "t": 218989.5833333333,
      "d": 541.6666666666861,
      "v": 104
    },
    {
      "midi": 33,
      "hit": false,
      "t": 219489.5833333333,
      "d": 760.4166666666861,
      "v": 112
    },
    {
      "midi": 65,
      "hit": false,
      "t": 219510.41666666666,
      "d": 197.91666666668607,
      "v": 91
    },
    {
      "midi": 69,
      "hit": false,
      "t": 219510.41666666666,
      "d": 229.16666666668607,
      "v": 82
    },
    {
      "midi": 36,
      "hit": false,
      "t": 220489.58333333334,
      "d": 479.16666666668607,
      "v": 112
    },
    {
      "midi": 69,
      "hit": false,
      "t": 220510.4166666667,
      "d": 479.16666666668607,
      "v": 101
    },
    {
      "midi": 72,
      "hit": false,
      "t": 220510.4166666667,
      "d": 500,
      "v": 102
    },
    {
      "midi": 62,
      "hit": false,
      "t": 220510.4166666667,
      "d": 520.833333333343,
      "v": 98
    },
    {
      "midi": 38,
      "hit": false,
      "t": 221000.00000000003,
      "d": 708.3333333333139,
      "v": 122
    },
    {
      "midi": 72,
      "hit": false,
      "t": 221250.00000000003,
      "d": 437.5,
      "v": 108
    },
    {
      "midi": 62,
      "hit": false,
      "t": 221250.00000000003,
      "d": 447.91666666665697,
      "v": 98
    },
    {
      "midi": 69,
      "hit": false,
      "t": 221250.00000000003,
      "d": 447.91666666665697,
      "v": 110
    },
    {
      "midi": 26,
      "hit": false,
      "t": 221989.58333333334,
      "d": 1260.416666666657,
      "v": 127
    },
    {
      "midi": 69,
      "hit": false,
      "t": 222010.4166666667,
      "d": 604.166666666657,
      "v": 116
    },
    {
      "midi": 72,
      "hit": false,
      "t": 222010.4166666667,
      "d": 614.5833333333139,
      "v": 112
    },
    {
      "midi": 62,
      "hit": false,
      "t": 222010.4166666667,
      "d": 635.416666666657,
      "v": 114
    },
    {
      "midi": 67,
      "hit": false,
      "t": 222760.4166666667,
      "d": 458.33333333331393,
      "v": 94
    },
    {
      "midi": 71,
      "hit": false,
      "t": 222760.4166666667,
      "d": 510.41666666665697,
      "v": 97
    },
    {
      "midi": 62,
      "hit": false,
      "t": 222770.83333333334,
      "d": 520.833333333343,
      "v": 93
    },
    {
      "midi": 62,
      "hit": false,
      "t": 223510.4166666667,
      "d": 187.5,
      "v": 80
    },
    {
      "midi": 65,
      "hit": false,
      "t": 223510.4166666667,
      "d": 218.75,
      "v": 91
    },
    {
      "midi": 69,
      "hit": false,
      "t": 223510.4166666667,
      "d": 250,
      "v": 85
    },
    {
      "midi": 28,
      "hit": false,
      "t": 224010.4166666667,
      "d": 395.83333333334303,
      "v": 127
    },
    {
      "midi": 28,
      "hit": false,
      "t": 224489.58333333337,
      "d": 614.583333333343,
      "v": 116
    },
    {
      "midi": 74,
      "hit": false,
      "t": 224500.00000000003,
      "d": 552.083333333343,
      "v": 116
    },
    {
      "midi": 64,
      "hit": false,
      "t": 224500.00000000003,
      "d": 583.333333333343,
      "v": 104
    },
    {
      "midi": 71,
      "hit": false,
      "t": 224500.00000000003,
      "d": 583.333333333343,
      "v": 116
    },
    {
      "midi": 64,
      "hit": false,
      "t": 225260.41666666672,
      "d": 447.91666666665697,
      "v": 108
    },
    {
      "midi": 74,
      "hit": false,
      "t": 225260.41666666672,
      "d": 468.75,
      "v": 112
    },
    {
      "midi": 71,
      "hit": false,
      "t": 225260.41666666672,
      "d": 479.16666666665697,
      "v": 114
    },
    {
      "midi": 31,
      "hit": false,
      "t": 225489.58333333337,
      "d": 510.41666666665697,
      "v": 122
    },
    {
      "midi": 71,
      "hit": false,
      "t": 225989.58333333337,
      "d": 541.666666666657,
      "v": 120
    },
    {
      "midi": 64,
      "hit": false,
      "t": 225989.58333333337,
      "d": 583.3333333333139,
      "v": 108
    },
    {
      "midi": 74,
      "hit": false,
      "t": 225989.58333333337,
      "d": 583.3333333333139,
      "v": 116
    },
    {
      "midi": 33,
      "hit": false,
      "t": 226010.4166666667,
      "d": 635.416666666657,
      "v": 120
    },
    {
      "midi": 69,
      "hit": false,
      "t": 226750,
      "d": 520.833333333343,
      "v": 108
    },
    {
      "midi": 73,
      "hit": false,
      "t": 226750,
      "d": 520.833333333343,
      "v": 123
    },
    {
      "midi": 64,
      "hit": false,
      "t": 226750,
      "d": 572.9166666666861,
      "v": 95
    },
    {
      "midi": 33,
      "hit": false,
      "t": 226989.58333333334,
      "d": 510.41666666665697,
      "v": 120
    },
    {
      "midi": 62,
      "hit": false,
      "t": 227489.58333333334,
      "d": 593.7499999999709,
      "v": 81
    },
    {
      "midi": 71,
      "hit": false,
      "t": 227489.58333333334,
      "d": 624.9999999999709,
      "v": 97
    },
    {
      "midi": 67,
      "hit": false,
      "t": 227500,
      "d": 572.916666666657,
      "v": 95
    },
    {
      "midi": 35,
      "hit": false,
      "t": 227510.41666666666,
      "d": 677.0833333333139,
      "v": 112
    },
    {
      "midi": 38,
      "hit": false,
      "t": 228489.5833333333,
      "d": 479.16666666665697,
      "v": 120
    },
    {
      "midi": 74,
      "hit": false,
      "t": 228499.99999999997,
      "d": 593.75,
      "v": 118
    },
    {
      "midi": 71,
      "hit": false,
      "t": 228499.99999999997,
      "d": 614.583333333343,
      "v": 116
    },
    {
      "midi": 64,
      "hit": false,
      "t": 228499.99999999997,
      "d": 625,
      "v": 107
    },
    {
      "midi": 40,
      "hit": false,
      "t": 228989.5833333333,
      "d": 677.0833333333139,
      "v": 118
    },
    {
      "midi": 74,
      "hit": false,
      "t": 229260.41666666663,
      "d": 416.66666666665697,
      "v": 110
    },
    {
      "midi": 64,
      "hit": false,
      "t": 229260.41666666663,
      "d": 427.08333333331393,
      "v": 107
    },
    {
      "midi": 71,
      "hit": false,
      "t": 229260.41666666663,
      "d": 427.08333333331393,
      "v": 110
    },
    {
      "midi": 71,
      "hit": false,
      "t": 230010.4166666666,
      "d": 531.25,
      "v": 120
    },
    {
      "midi": 74,
      "hit": false,
      "t": 230010.4166666666,
      "d": 531.25,
      "v": 120
    },
    {
      "midi": 64,
      "hit": false,
      "t": 230010.4166666666,
      "d": 593.75,
      "v": 108
    },
    {
      "midi": 28,
      "hit": false,
      "t": 230010.4166666666,
      "d": 1552.083333333343,
      "v": 120
    },
    {
      "midi": 69,
      "hit": false,
      "t": 230760.4166666666,
      "d": 437.5,
      "v": 114
    },
    {
      "midi": 73,
      "hit": false,
      "t": 230760.4166666666,
      "d": 447.91666666665697,
      "v": 123
    },
    {
      "midi": 64,
      "hit": false,
      "t": 230760.4166666666,
      "d": 479.16666666665697,
      "v": 101
    },
    {
      "midi": 71,
      "hit": false,
      "t": 231489.58333333326,
      "d": 333.33333333334303,
      "v": 83
    },
    {
      "midi": 62,
      "hit": false,
      "t": 231510.4166666666,
      "d": 260.41666666668607,
      "v": 83
    },
    {
      "midi": 67,
      "hit": false,
      "t": 231510.4166666666,
      "d": 270.83333333334303,
      "v": 86
    },
    {
      "midi": 28,
      "hit": false,
      "t": 231989.58333333326,
      "d": 427.08333333334303,
      "v": 122
    },
    {
      "midi": 28,
      "hit": false,
      "t": 232489.58333333326,
      "d": 677.0833333333139,
      "v": 108
    },
    {
      "midi": 62,
      "hit": false,
      "t": 232499.9999999999,
      "d": 479.16666666665697,
      "v": 100
    },
    {
      "midi": 67,
      "hit": false,
      "t": 232499.9999999999,
      "d": 520.8333333333139,
      "v": 104
    },
    {
      "midi": 71,
      "hit": false,
      "t": 232499.9999999999,
      "d": 541.666666666657,
      "v": 98
    },
    {
      "midi": 69,
      "hit": false,
      "t": 233260.41666666657,
      "d": 427.08333333331393,
      "v": 112
    },
    {
      "midi": 73,
      "hit": false,
      "t": 233260.41666666657,
      "d": 427.08333333331393,
      "v": 120
    },
    {
      "midi": 64,
      "hit": false,
      "t": 233260.41666666657,
      "d": 499.9999999999709,
      "v": 95
    },
    {
      "midi": 31,
      "hit": false,
      "t": 233489.58333333323,
      "d": 500,
      "v": 116
    },
    {
      "midi": 66,
      "hit": false,
      "t": 233937.49999999988,
      "d": 114.58333333337214,
      "v": 126
    },
    {
      "midi": 33,
      "hit": false,
      "t": 233989.58333333323,
      "d": 781.2500000000291,
      "v": 116
    },
    {
      "midi": 71,
      "hit": false,
      "t": 234010.41666666657,
      "d": 2239.583333333372,
      "v": 104
    },
    {
      "midi": 67,
      "hit": false,
      "t": 234031.2499999999,
      "d": 2239.583333333372,
      "v": 107
    },
    {
      "midi": 64,
      "hit": false,
      "t": 234760.4166666666,
      "d": 520.8333333333139,
      "v": 100
    },
    {
      "midi": 33,
      "hit": false,
      "t": 234989.58333333326,
      "d": 479.16666666665697,
      "v": 120
    },
    {
      "midi": 35,
      "hit": false,
      "t": 235489.58333333326,
      "d": 666.6666666666861,
      "v": 116
    },
    {
      "midi": 62,
      "hit": false,
      "t": 235510.4166666666,
      "d": 739.583333333343,
      "v": 78
    },
    {
      "midi": 38,
      "hit": false,
      "t": 236489.58333333328,
      "d": 458.33333333331393,
      "v": 118
    },
    {
      "midi": 62,
      "hit": false,
      "t": 236499.99999999994,
      "d": 479.16666666665697,
      "v": 101
    },
    {
      "midi": 71,
      "hit": false,
      "t": 236499.99999999994,
      "d": 499.9999999999709,
      "v": 105
    },
    {
      "midi": 67,
      "hit": false,
      "t": 236510.4166666666,
      "d": 489.58333333331393,
      "v": 104
    },
    {
      "midi": 40,
      "hit": false,
      "t": 236989.58333333326,
      "d": 541.666666666657,
      "v": 118
    },
    {
      "midi": 64,
      "hit": false,
      "t": 237249.9999999999,
      "d": 541.6666666666861,
      "v": 88
    },
    {
      "midi": 73,
      "hit": false,
      "t": 237260.41666666657,
      "d": 427.08333333334303,
      "v": 107
    },
    {
      "midi": 69,
      "hit": false,
      "t": 237260.41666666657,
      "d": 447.91666666668607,
      "v": 102
    },
    {
      "midi": 66,
      "hit": false,
      "t": 237927.08333333326,
      "d": 83.33333333334303,
      "v": 127
    },
    {
      "midi": 71,
      "hit": false,
      "t": 237989.58333333326,
      "d": 1875,
      "v": 104
    },
    {
      "midi": 28,
      "hit": false,
      "t": 238010.4166666666,
      "d": 1531.25,
      "v": 120
    },
    {
      "midi": 67,
      "hit": false,
      "t": 238010.4166666666,
      "d": 1729.166666666657,
      "v": 127
    },
    {
      "midi": 64,
      "hit": false,
      "t": 238749.99999999994,
      "d": 447.91666666665697,
      "v": 104
    },
    {
      "midi": 62,
      "hit": false,
      "t": 239489.58333333326,
      "d": 322.91666666665697,
      "v": 90
    },
    {
      "midi": 62,
      "hit": false,
      "t": 239999.9999999999,
      "d": 3052.083333333343,
      "v": 127
    },
    {
      "midi": 50,
      "hit": false,
      "t": 239999.9999999999,
      "d": 3072.916666666686,
      "v": 95
    },
    {
      "midi": 57,
      "hit": false,
      "t": 239999.9999999999,
      "d": 3093.750000000029,
      "v": 114
    },
    {
      "midi": 38,
      "hit": false,
      "t": 239999.9999999999,
      "d": 3135.416666666686,
      "v": 95
    },
    {
      "midi": 66,
      "hit": false,
      "t": 239999.9999999999,
      "d": 3239.583333333343,
      "v": 117
    },
    {
      "midi": 64,
      "hit": false,
      "t": 243489.58333333326,
      "d": 3375,
      "v": 114
    },
    {
      "midi": 60,
      "hit": false,
      "t": 243499.9999999999,
      "d": 3302.083333333343,
      "v": 120
    },
    {
      "midi": 55,
      "hit": false,
      "t": 243499.9999999999,
      "d": 3312.5,
      "v": 127
    },
    {
      "midi": 36,
      "hit": false,
      "t": 243499.9999999999,
      "d": 3427.083333333343,
      "v": 100
    },
    {
      "midi": 48,
      "hit": false,
      "t": 243499.9999999999,
      "d": 3447.916666666686,
      "v": 104
    },
    {
      "midi": 62,
      "hit": false,
      "t": 247489.58333333326,
      "d": 3281.25,
      "v": 118
    },
    {
      "midi": 70,
      "hit": false,
      "t": 247489.58333333326,
      "d": 3291.666666666657,
      "v": 114
    },
    {
      "midi": 58,
      "hit": false,
      "t": 247489.58333333326,
      "d": 3322.916666666657,
      "v": 101
    },
    {
      "midi": 46,
      "hit": false,
      "t": 247489.58333333326,
      "d": 3406.25,
      "v": 99
    },
    {
      "midi": 34,
      "hit": false,
      "t": 247489.58333333326,
      "d": 3437.5,
      "v": 97
    },
    {
      "midi": 65,
      "hit": false,
      "t": 247499.9999999999,
      "d": 3239.583333333343,
      "v": 94
    },
    {
      "midi": 55,
      "hit": false,
      "t": 251489.58333333326,
      "d": 4031.25,
      "v": 127
    },
    {
      "midi": 59,
      "hit": false,
      "t": 251489.58333333326,
      "d": 4031.25,
      "v": 120
    },
    {
      "midi": 62,
      "hit": false,
      "t": 251489.58333333326,
      "d": 4062.5,
      "v": 120
    },
    {
      "midi": 67,
      "hit": false,
      "t": 251489.58333333326,
      "d": 4125,
      "v": 120
    },
    {
      "midi": 31,
      "hit": false,
      "t": 251489.58333333326,
      "d": 4135.416666666657,
      "v": 112
    },
    {
      "midi": 43,
      "hit": false,
      "t": 251489.58333333326,
      "d": 4135.416666666657,
      "v": 101
    },
    {
      "midi": 52,
      "hit": false,
      "t": 255999.9999999999,
      "d": 989.5833333333139,
      "v": 89
    },
    {
      "midi": 55,
      "hit": false,
      "t": 255999.9999999999,
      "d": 989.5833333333139,
      "v": 100
    },
    {
      "midi": 65,
      "hit": false,
      "t": 256510.41666666657,
      "d": 208.33333333334303,
      "v": 94
    },
    {
      "midi": 65,
      "hit": false,
      "t": 256760.41666666657,
      "d": 395.83333333334303,
      "v": 107
    },
    {
      "midi": 57,
      "hit": false,
      "t": 257010.41666666657,
      "d": 989.5833333333139,
      "v": 97
    },
    {
      "midi": 60,
      "hit": false,
      "t": 257010.41666666657,
      "d": 989.5833333333139,
      "v": 95
    },
    {
      "midi": 64,
      "hit": false,
      "t": 257260.41666666657,
      "d": 218.75,
      "v": 100
    },
    {
      "midi": 62,
      "hit": false,
      "t": 257510.41666666657,
      "d": 385.41666666665697,
      "v": 114
    },
    {
      "midi": 55,
      "hit": false,
      "t": 257989.58333333323,
      "d": 989.5833333333139,
      "v": 96
    },
    {
      "midi": 64,
      "hit": false,
      "t": 257999.99999999988,
      "d": 697.916666666657,
      "v": 112
    },
    {
      "midi": 59,
      "hit": false,
      "t": 257999.99999999988,
      "d": 989.5833333333139,
      "v": 87
    },
    {
      "midi": 62,
      "hit": false,
      "t": 258760.41666666654,
      "d": 458.33333333334303,
      "v": 114
    },
    {
      "midi": 53,
      "hit": false,
      "t": 259010.41666666654,
      "d": 989.5833333333139,
      "v": 81
    },
    {
      "midi": 57,
      "hit": false,
      "t": 259010.41666666654,
      "d": 989.5833333333139,
      "v": 87
    },
    {
      "midi": 60,
      "hit": false,
      "t": 259260.41666666654,
      "d": 218.75,
      "v": 93
    },
    {
      "midi": 62,
      "hit": false,
      "t": 259510.41666666654,
      "d": 354.16666666665697,
      "v": 107
    },
    {
      "midi": 60,
      "hit": false,
      "t": 259999.99999999985,
      "d": 770.8333333333139,
      "v": 90
    },
    {
      "midi": 52,
      "hit": false,
      "t": 259999.99999999985,
      "d": 989.5833333332848,
      "v": 83
    },
    {
      "midi": 55,
      "hit": false,
      "t": 259999.99999999985,
      "d": 989.5833333332848,
      "v": 83
    },
    {
      "midi": 62,
      "hit": false,
      "t": 260760.4166666665,
      "d": 114.58333333331393,
      "v": 80
    },
    {
      "midi": 64,
      "hit": false,
      "t": 260885.41666666648,
      "d": 93.75,
      "v": 75
    },
    {
      "midi": 65,
      "hit": false,
      "t": 261010.41666666648,
      "d": 750,
      "v": 105
    },
    {
      "midi": 57,
      "hit": false,
      "t": 261010.41666666648,
      "d": 989.5833333333139,
      "v": 80
    },
    {
      "midi": 60,
      "hit": false,
      "t": 261010.41666666648,
      "d": 989.5833333333139,
      "v": 83
    },
    {
      "midi": 64,
      "hit": false,
      "t": 261749.99999999983,
      "d": 52.08333333331393,
      "v": 76
    },
    {
      "midi": 62,
      "hit": false,
      "t": 261843.7499999998,
      "d": 83.33333333334303,
      "v": 67
    },
    {
      "midi": 55,
      "hit": false,
      "t": 261989.58333333314,
      "d": 989.5833333333139,
      "v": 80
    },
    {
      "midi": 64,
      "hit": false,
      "t": 261999.9999999998,
      "d": 791.666666666657,
      "v": 104
    },
    {
      "midi": 59,
      "hit": false,
      "t": 261999.9999999998,
      "d": 822.916666666657,
      "v": 70
    },
    {
      "midi": 62,
      "hit": false,
      "t": 262760.41666666645,
      "d": 72.91666666668607,
      "v": 76
    },
    {
      "midi": 60,
      "hit": false,
      "t": 262885.41666666645,
      "d": 93.75,
      "v": 81
    },
    {
      "midi": 62,
      "hit": false,
      "t": 263010.41666666645,
      "d": 687.5,
      "v": 101
    },
    {
      "midi": 57,
      "hit": false,
      "t": 263010.41666666645,
      "d": 927.0833333333139,
      "v": 70
    },
    {
      "midi": 53,
      "hit": false,
      "t": 263010.41666666645,
      "d": 937.5,
      "v": 76
    },
    {
      "midi": 60,
      "hit": false,
      "t": 263760.41666666645,
      "d": 93.75,
      "v": 94
    },
    {
      "midi": 59,
      "hit": false,
      "t": 263874.99999999977,
      "d": 114.58333333337214,
      "v": 90
    },
    {
      "midi": 60,
      "hit": false,
      "t": 263989.58333333314,
      "d": 1239.583333333314,
      "v": 96
    },
    {
      "midi": 52,
      "hit": false,
      "t": 263989.58333333314,
      "d": 1489.583333333314,
      "v": 67
    },
    {
      "midi": 55,
      "hit": false,
      "t": 263989.58333333314,
      "d": 1489.583333333314,
      "v": 69
    },
    {
      "midi": 36,
      "hit": false,
      "t": 264010.41666666645,
      "d": 1927.083333333314,
      "v": 93
    },
    {
      "midi": 65,
      "hit": false,
      "t": 265010.41666666645,
      "d": 270.83333333331393,
      "v": 100
    },
    {
      "midi": 67,
      "hit": false,
      "t": 265010.41666666645,
      "d": 989.5833333333139,
      "v": 95
    },
    {
      "midi": 72,
      "hit": false,
      "t": 265010.41666666645,
      "d": 989.5833333333139,
      "v": 97
    },
    {
      "midi": 64,
      "hit": false,
      "t": 265260.41666666645,
      "d": 250,
      "v": 83
    },
    {
      "midi": 62,
      "hit": false,
      "t": 265510.41666666645,
      "d": 239.58333333331393,
      "v": 82
    },
    {
      "midi": 60,
      "hit": false,
      "t": 265760.41666666645,
      "d": 239.58333333331393,
      "v": 78
    },
    {
      "midi": 67,
      "hit": false,
      "t": 266010.41666666645,
      "d": 1125,
      "v": 90
    },
    {
      "midi": 62,
      "hit": false,
      "t": 266010.41666666645,
      "d": 1427.083333333314,
      "v": 91
    },
    {
      "midi": 50,
      "hit": false,
      "t": 266010.41666666645,
      "d": 1760.4166666666279,
      "v": 76
    },
    {
      "midi": 43,
      "hit": false,
      "t": 266010.41666666645,
      "d": 1770.833333333314,
      "v": 83
    },
    {
      "midi": 59,
      "hit": false,
      "t": 266510.41666666645,
      "d": 989.5833333333139,
      "v": 83
    },
    {
      "midi": 67,
      "hit": false,
      "t": 267260.41666666645,
      "d": 677.0833333333721,
      "v": 127
    },
    {
      "midi": 62,
      "hit": false,
      "t": 267510.41666666645,
      "d": 375,
      "v": 83
    },
    {
      "midi": 59,
      "hit": false,
      "t": 267749.99999999977,
      "d": 145.83333333337214,
      "v": 67
    },
    {
      "midi": 60,
      "hit": false,
      "t": 268010.4166666665,
      "d": 218.75,
      "v": 97
    },
    {
      "midi": 52,
      "hit": false,
      "t": 268010.4166666665,
      "d": 1072.916666666686,
      "v": 89
    },
    {
      "midi": 45,
      "hit": false,
      "t": 268010.4166666665,
      "d": 2218.75,
      "v": 90
    },
    {
      "midi": 57,
      "hit": false,
      "t": 268260.4166666665,
      "d": 1239.5833333333721,
      "v": 76
    },
    {
      "midi": 60,
      "hit": false,
      "t": 268510.4166666665,
      "d": 739.5833333333721,
      "v": 79
    },
    {
      "midi": 62,
      "hit": false,
      "t": 268760.4166666665,
      "d": 427.08333333337214,
      "v": 83
    },
    {
      "midi": 64,
      "hit": false,
      "t": 269010.4166666665,
      "d": 489.58333333337214,
      "v": 78
    },
    {
      "midi": 52,
      "hit": false,
      "t": 269249.9999999999,
      "d": 1239.5833333332557,
      "v": 72
    },
    {
      "midi": 60,
      "hit": false,
      "t": 269510.41666666657,
      "d": 239.58333333331393,
      "v": 86
    },
    {
      "midi": 69,
      "hit": false,
      "t": 269510.41666666657,
      "d": 239.58333333331393,
      "v": 82
    },
    {
      "midi": 62,
      "hit": false,
      "t": 269749.9999999999,
      "d": 239.58333333331393,
      "v": 101
    },
    {
      "midi": 71,
      "hit": false,
      "t": 269749.9999999999,
      "d": 239.58333333331393,
      "v": 112
    },
    {
      "midi": 64,
      "hit": false,
      "t": 270010.4166666665,
      "d": 1177.083333333314,
      "v": 110
    },
    {
      "midi": 72,
      "hit": false,
      "t": 270010.4166666665,
      "d": 1989.583333333314,
      "v": 120
    },
    {
      "midi": 45,
      "hit": false,
      "t": 270249.9999999998,
      "d": 489.58333333331393,
      "v": 80
    },
    {
      "midi": 52,
      "hit": false,
      "t": 270499.9999999998,
      "d": 1489.583333333314,
      "v": 93
    },
    {
      "midi": 45,
      "hit": false,
      "t": 270749.9999999998,
      "d": 1239.583333333314,
      "v": 91
    },
    {
      "midi": 67,
      "hit": false,
      "t": 271249.9999999998,
      "d": 333.33333333331393,
      "v": 93
    },
    {
      "midi": 65,
      "hit": false,
      "t": 271499.9999999998,
      "d": 208.33333333331393,
      "v": 100
    },
    {
      "midi": 64,
      "hit": false,
      "t": 271739.58333333314,
      "d": 239.58333333331393,
      "v": 76
    },
    {
      "midi": 65,
      "hit": false,
      "t": 272010.4166666665,
      "d": 1989.5833333333721,
      "v": 102
    },
    {
      "midi": 69,
      "hit": false,
      "t": 272010.4166666665,
      "d": 1989.5833333333721,
      "v": 89
    },
    {
      "midi": 41,
      "hit": false,
      "t": 272010.4166666665,
      "d": 3989.583333333372,
      "v": 81
    },
    {
      "midi": 48,
      "hit": false,
      "t": 272010.4166666665,
      "d": 3989.583333333372,
      "v": 88
    },
    {
      "midi": 60,
      "hit": false,
      "t": 272510.4166666665,
      "d": 489.58333333331393,
      "v": 72
    },
    {
      "midi": 56,
      "hit": false,
      "t": 272947.9166666665,
      "d": 31.25,
      "v": 82
    },
    {
      "midi": 57,
      "hit": false,
      "t": 273010.4166666665,
      "d": 239.58333333331393,
      "v": 86
    },
    {
      "midi": 60,
      "hit": false,
      "t": 273260.4166666665,
      "d": 166.66666666668607,
      "v": 90
    },
    {
      "midi": 60,
      "hit": false,
      "t": 273499.9999999999,
      "d": 239.58333333331393,
      "v": 94
    },
    {
      "midi": 57,
      "hit": false,
      "t": 273749.9999999999,
      "d": 739.5833333333721,
      "v": 94
    },
    {
      "midi": 62,
      "hit": false,
      "t": 274010.41666666657,
      "d": 489.58333333337214,
      "v": 107
    },
    {
      "midi": 60,
      "hit": false,
      "t": 274499.99999999994,
      "d": 489.58333333331393,
      "v": 87
    },
    {
      "midi": 53,
      "hit": false,
      "t": 274739.58333333326,
      "d": 770.8333333333139,
      "v": 80
    },
    {
      "midi": 68,
      "hit": false,
      "t": 274947.91666666657,
      "d": 41.66666666668607,
      "v": 126
    },
    {
      "midi": 72,
      "hit": false,
      "t": 274989.58333333326,
      "d": 739.5833333333139,
      "v": 97
    },
    {
      "midi": 69,
      "hit": false,
      "t": 274999.99999999994,
      "d": 739.5833333333139,
      "v": 120
    },
    {
      "midi": 67,
      "hit": false,
      "t": 275239.58333333326,
      "d": 218.75,
      "v": 95
    },
    {
      "midi": 65,
      "hit": false,
      "t": 275489.58333333326,
      "d": 197.91666666662786,
      "v": 91
    },
    {
      "midi": 67,
      "hit": false,
      "t": 275739.58333333326,
      "d": 239.58333333331393,
      "v": 94
    },
    {
      "midi": 52,
      "hit": false,
      "t": 276010.41666666657,
      "d": 864.5833333333139,
      "v": 83
    },
    {
      "midi": 55,
      "hit": false,
      "t": 276010.41666666657,
      "d": 895.8333333333139,
      "v": 90
    },
    {
      "midi": 67,
      "hit": false,
      "t": 276249.9999999999,
      "d": 739.5833333333139,
      "v": 97
    },
    {
      "midi": 62,
      "hit": false,
      "t": 276489.5833333332,
      "d": 260.41666666668607,
      "v": 88
    },
    {
      "midi": 64,
      "hit": false,
      "t": 276739.5833333332,
      "d": 187.5,
      "v": 80
    },
    {
      "midi": 57,
      "hit": false,
      "t": 276999.9999999999,
      "d": 875,
      "v": 93
    },
    {
      "midi": 65,
      "hit": false,
      "t": 277010.41666666657,
      "d": 739.5833333333139,
      "v": 108
    },
    {
      "midi": 60,
      "hit": false,
      "t": 277010.41666666657,
      "d": 812.5,
      "v": 88
    },
    {
      "midi": 69,
      "hit": false,
      "t": 277010.41666666657,
      "d": 989.5833333333139,
      "v": 101
    },
    {
      "midi": 64,
      "hit": false,
      "t": 277749.9999999999,
      "d": 104.16666666668607,
      "v": 78
    },
    {
      "midi": 62,
      "hit": false,
      "t": 277874.9999999999,
      "d": 83.33333333331393,
      "v": 93
    },
    {
      "midi": 55,
      "hit": false,
      "t": 278010.41666666657,
      "d": 729.1666666666861,
      "v": 87
    },
    {
      "midi": 59,
      "hit": false,
      "t": 278010.41666666657,
      "d": 739.5833333333721,
      "v": 78
    },
    {
      "midi": 64,
      "hit": false,
      "t": 278010.41666666657,
      "d": 739.5833333333721,
      "v": 90
    },
    {
      "midi": 67,
      "hit": false,
      "t": 278010.41666666657,
      "d": 989.5833333333721,
      "v": 101
    },
    {
      "midi": 62,
      "hit": false,
      "t": 278739.58333333326,
      "d": 72.91666666668607,
      "v": 89
    },
    {
      "midi": 60,
      "hit": false,
      "t": 278864.58333333326,
      "d": 104.16666666668607,
      "v": 79
    },
    {
      "midi": 53,
      "hit": false,
      "t": 278989.58333333326,
      "d": 750,
      "v": 76
    },
    {
      "midi": 57,
      "hit": false,
      "t": 278989.58333333326,
      "d": 760.4166666666861,
      "v": 75
    },
    {
      "midi": 62,
      "hit": false,
      "t": 278989.58333333326,
      "d": 989.5833333333139,
      "v": 94
    },
    {
      "midi": 65,
      "hit": false,
      "t": 278999.99999999994,
      "d": 739.5833333333139,
      "v": 110
    },
    {
      "midi": 67,
      "hit": false,
      "t": 279749.99999999994,
      "d": 145.83333333331393,
      "v": 83
    },
    {
      "midi": 65,
      "hit": false,
      "t": 279864.58333333326,
      "d": 114.58333333331393,
      "v": 75
    },
    {
      "midi": 64,
      "hit": false,
      "t": 279999.9999999999,
      "d": 1239.5833333333721,
      "v": 69
    },
    {
      "midi": 52,
      "hit": false,
      "t": 280010.41666666657,
      "d": 1989.583333333314,
      "v": 81
    },
    {
      "midi": 55,
      "hit": false,
      "t": 280010.41666666657,
      "d": 1989.583333333314,
      "v": 87
    },
    {
      "midi": 60,
      "hit": false,
      "t": 280010.41666666657,
      "d": 1989.583333333314,
      "v": 90
    },
    {
      "midi": 69,
      "hit": false,
      "t": 281010.41666666657,
      "d": 322.91666666668607,
      "v": 110
    },
    {
      "midi": 72,
      "hit": false,
      "t": 281010.41666666657,
      "d": 427.08333333337214,
      "v": 105
    },
    {
      "midi": 67,
      "hit": false,
      "t": 281249.99999999994,
      "d": 281.25,
      "v": 87
    },
    {
      "midi": 65,
      "hit": false,
      "t": 281510.4166666666,
      "d": 197.91666666662786,
      "v": 86
    },
    {
      "midi": 64,
      "hit": false,
      "t": 281760.41666666657,
      "d": 260.41666666668607,
      "v": 97
    },
    {
      "midi": 67,
      "hit": false,
      "t": 281760.41666666657,
      "d": 2239.5833333332557,
      "v": 90
    },
    {
      "midi": 50,
      "hit": false,
      "t": 281999.9999999999,
      "d": 1854.1666666666279,
      "v": 85
    },
    {
      "midi": 43,
      "hit": false,
      "t": 281999.9999999999,
      "d": 1874.9999999999418,
      "v": 87
    },
    {
      "midi": 62,
      "hit": false,
      "t": 282010.41666666657,
      "d": 1156.25,
      "v": 97
    },
    {
      "midi": 69,
      "hit": false,
      "t": 282510.41666666657,
      "d": 239.58333333331393,
      "v": 116
    },
    {
      "midi": 74,
      "hit": false,
      "t": 282510.41666666657,
      "d": 1489.5833333332557,
      "v": 110
    },
    {
      "midi": 71,
      "hit": false,
      "t": 282760.41666666657,
      "d": 1239.5833333332557,
      "v": 100
    },
    {
      "midi": 62,
      "hit": false,
      "t": 283249.9999999999,
      "d": 312.5,
      "v": 102
    },
    {
      "midi": 60,
      "hit": false,
      "t": 283510.41666666657,
      "d": 260.41666666662786,
      "v": 75
    },
    {
      "midi": 59,
      "hit": false,
      "t": 283749.9999999999,
      "d": 239.58333333325572,
      "v": 88
    },
    {
      "midi": 60,
      "hit": false,
      "t": 283999.9999999998,
      "d": 489.58333333331393,
      "v": 88
    },
    {
      "midi": 52,
      "hit": false,
      "t": 284010.4166666665,
      "d": 3927.0833333332557,
      "v": 90
    },
    {
      "midi": 45,
      "hit": false,
      "t": 284010.4166666665,
      "d": 3937.499999999942,
      "v": 89
    },
    {
      "midi": 57,
      "hit": false,
      "t": 284249.9999999998,
      "d": 270.83333333331393,
      "v": 82
    },
    {
      "midi": 60,
      "hit": false,
      "t": 284499.9999999998,
      "d": 281.25,
      "v": 90
    },
    {
      "midi": 62,
      "hit": false,
      "t": 284749.9999999998,
      "d": 156.25,
      "v": 93
    },
    {
      "midi": 62,
      "hit": false,
      "t": 284947.9166666665,
      "d": 83.33333333331393,
      "v": 83
    },
    {
      "midi": 63,
      "hit": false,
      "t": 284999.9999999998,
      "d": 93.75,
      "v": 85
    },
    {
      "midi": 64,
      "hit": false,
      "t": 285052.08333333314,
      "d": 739.5833333333139,
      "v": 87
    },
    {
      "midi": 69,
      "hit": false,
      "t": 285249.9999999998,
      "d": 739.5833333332557,
      "v": 120
    },
    {
      "midi": 62,
      "hit": false,
      "t": 285739.58333333314,
      "d": 197.91666666662786,
      "v": 90
    },
    {
      "midi": 62,
      "hit": false,
      "t": 285999.99999999977,
      "d": 270.83333333337214,
      "v": 101
    },
    {
      "midi": 57,
      "hit": false,
      "t": 286260.41666666645,
      "d": 208.33333333337214,
      "v": 96
    },
    {
      "midi": 60,
      "hit": false,
      "t": 286489.58333333314,
      "d": 239.58333333331393,
      "v": 74
    },
    {
      "midi": 62,
      "hit": false,
      "t": 286749.99999999977,
      "d": 187.5,
      "v": 90
    },
    {
      "midi": 64,
      "hit": false,
      "t": 286999.99999999977,
      "d": 208.33333333331393,
      "v": 120
    },
    {
      "midi": 60,
      "hit": false,
      "t": 287249.99999999977,
      "d": 208.33333333331393,
      "v": 104
    },
    {
      "midi": 57,
      "hit": false,
      "t": 287499.99999999977,
      "d": 229.16666666668607,
      "v": 97
    },
    {
      "midi": 55,
      "hit": false,
      "t": 287749.99999999977,
      "d": 239.58333333337214,
      "v": 80
    },
    {
      "midi": 55,
      "hit": false,
      "t": 287999.9999999998,
      "d": 208.33333333331393,
      "v": 90
    },
    {
      "midi": 38,
      "hit": false,
      "t": 287999.9999999998,
      "d": 3583.333333333372,
      "v": 84
    },
    {
      "midi": 45,
      "hit": false,
      "t": 287999.9999999998,
      "d": 3739.583333333372,
      "v": 87
    },
    {
      "midi": 54,
      "hit": false,
      "t": 288239.58333333314,
      "d": 1739.583333333314,
      "v": 97
    },
    {
      "midi": 62,
      "hit": false,
      "t": 288760.41666666645,
      "d": 1239.583333333314,
      "v": 90
    },
    {
      "midi": 64,
      "hit": false,
      "t": 289260.41666666645,
      "d": 239.58333333331393,
      "v": 110
    },
    {
      "midi": 69,
      "hit": false,
      "t": 289260.41666666645,
      "d": 1656.2500000000582,
      "v": 116
    },
    {
      "midi": 66,
      "hit": false,
      "t": 289499.99999999977,
      "d": 239.58333333331393,
      "v": 87
    },
    {
      "midi": 64,
      "hit": false,
      "t": 289749.99999999977,
      "d": 1239.5833333334303,
      "v": 94
    },
    {
      "midi": 62,
      "hit": false,
      "t": 290260.41666666645,
      "d": 489.58333333337214,
      "v": 108
    },
    {
      "midi": 60,
      "hit": false,
      "t": 290739.58333333314,
      "d": 270.83333333337214,
      "v": 100
    },
    {
      "midi": 57,
      "hit": false,
      "t": 290989.5833333332,
      "d": 239.58333333331393,
      "v": 74
    },
    {
      "midi": 62,
      "hit": false,
      "t": 291239.5833333332,
      "d": 302.08333333331393,
      "v": 118
    },
    {
      "midi": 60,
      "hit": false,
      "t": 291489.5833333332,
      "d": 489.58333333331393,
      "v": 86
    },
    {
      "midi": 58,
      "hit": false,
      "t": 291999.9999999998,
      "d": 20.83333333337214,
      "v": 97
    },
    {
      "midi": 50,
      "hit": false,
      "t": 292010.4166666665,
      "d": 2052.0833333334303,
      "v": 78
    },
    {
      "midi": 59,
      "hit": false,
      "t": 292031.2499999999,
      "d": 385.41666666668607,
      "v": 87
    },
    {
      "midi": 43,
      "hit": false,
      "t": 292031.2499999999,
      "d": 2072.9166666667443,
      "v": 71
    },
    {
      "midi": 67,
      "hit": false,
      "t": 292260.41666666657,
      "d": 989.5833333333139,
      "v": 111
    },
    {
      "midi": 62,
      "hit": false,
      "t": 292531.2499999999,
      "d": 739.5833333333721,
      "v": 86
    },
    {
      "midi": 60,
      "hit": false,
      "t": 293260.41666666657,
      "d": 239.58333333337214,
      "v": 87
    },
    {
      "midi": 69,
      "hit": false,
      "t": 293260.41666666657,
      "d": 239.58333333337214,
      "v": 101
    },
    {
      "midi": 62,
      "hit": false,
      "t": 293499.99999999994,
      "d": 739.5833333333721,
      "v": 120
    },
    {
      "midi": 71,
      "hit": false,
      "t": 293510.4166666666,
      "d": 739.5833333333721,
      "v": 127
    },
    {
      "midi": 59,
      "hit": false,
      "t": 294489.5833333333,
      "d": 260.41666666668607,
      "v": 120
    },
    {
      "midi": 64,
      "hit": false,
      "t": 294489.5833333333,
      "d": 270.83333333337214,
      "v": 118
    },
    {
      "midi": 67,
      "hit": false,
      "t": 294489.5833333333,
      "d": 270.83333333337214,
      "v": 114
    },
    {
      "midi": 62,
      "hit": false,
      "t": 294989.5833333334,
      "d": 270.83333333331393,
      "v": 116
    },
    {
      "midi": 67,
      "hit": false,
      "t": 294989.5833333334,
      "d": 270.83333333331393,
      "v": 122
    },
    {
      "midi": 71,
      "hit": false,
      "t": 294989.5833333334,
      "d": 270.83333333331393,
      "v": 112
    },
    {
      "midi": 52,
      "hit": false,
      "t": 295489.5833333334,
      "d": 4364.583333333372,
      "v": 104
    },
    {
      "midi": 64,
      "hit": false,
      "t": 295489.5833333334,
      "d": 4489.583333333372,
      "v": 122
    },
    {
      "midi": 69,
      "hit": false,
      "t": 295489.5833333334,
      "d": 4489.583333333372,
      "v": 127
    },
    {
      "midi": 72,
      "hit": false,
      "t": 295489.5833333334,
      "d": 4489.583333333372,
      "v": 127
    },
    {
      "midi": 45,
      "hit": false,
      "t": 295500.00000000006,
      "d": 4375,
      "v": 118
    },
    {
      "midi": 60,
      "hit": false,
      "t": 300000.00000000006,
      "d": 1197.916666666686,
      "v": 101
    },
    {
      "midi": 57,
      "hit": false,
      "t": 300000.00000000006,
      "d": 1239.5833333333721,
      "v": 100
    },
    {
      "midi": 48,
      "hit": false,
      "t": 300000.00000000006,
      "d": 2270.8333333334303,
      "v": 83
    },
    {
      "midi": 41,
      "hit": false,
      "t": 300000.00000000006,
      "d": 2312.5000000001164,
      "v": 90
    },
    {
      "midi": 65,
      "hit": false,
      "t": 300239.5833333334,
      "d": 239.58333333331393,
      "v": 94
    },
    {
      "midi": 67,
      "hit": false,
      "t": 300489.5833333334,
      "d": 322.91666666668607,
      "v": 105
    },
    {
      "midi": 65,
      "hit": false,
      "t": 300750.00000000006,
      "d": 239.58333333331393,
      "v": 84
    },
    {
      "midi": 65,
      "hit": false,
      "t": 301000.00000000006,
      "d": 1239.5833333334303,
      "v": 121
    },
    {
      "midi": 60,
      "hit": false,
      "t": 301250.0000000001,
      "d": 416.66666666662786,
      "v": 94
    },
    {
      "midi": 56,
      "hit": false,
      "t": 301427.08333333343,
      "d": 10.41666666668607,
      "v": 75
    },
    {
      "midi": 57,
      "hit": false,
      "t": 301489.58333333343,
      "d": 739.5833333333721,
      "v": 102
    },
    {
      "midi": 60,
      "hit": false,
      "t": 301739.58333333343,
      "d": 239.58333333331393,
      "v": 95
    },
    {
      "midi": 53,
      "hit": false,
      "t": 301989.58333333343,
      "d": 260.4166666667443,
      "v": 96
    },
    {
      "midi": 60,
      "hit": false,
      "t": 302000.0000000001,
      "d": 239.58333333337214,
      "v": 95
    },
    {
      "midi": 59,
      "hit": false,
      "t": 302489.5833333335,
      "d": 218.75,
      "v": 110
    },
    {
      "midi": 67,
      "hit": false,
      "t": 302489.5833333335,
      "d": 218.75,
      "v": 102
    },
    {
      "midi": 64,
      "hit": false,
      "t": 302489.5833333335,
      "d": 239.58333333331393,
      "v": 96
    },
    {
      "midi": 62,
      "hit": false,
      "t": 302989.5833333335,
      "d": 239.58333333331393,
      "v": 118
    },
    {
      "midi": 67,
      "hit": false,
      "t": 302989.5833333335,
      "d": 239.58333333331393,
      "v": 118
    },
    {
      "midi": 71,
      "hit": false,
      "t": 302989.5833333335,
      "d": 239.58333333331393,
      "v": 104
    },
    {
      "midi": 72,
      "hit": false,
      "t": 303489.5833333335,
      "d": 1739.5833333333721,
      "v": 122
    },
    {
      "midi": 69,
      "hit": false,
      "t": 303489.5833333335,
      "d": 3739.583333333314,
      "v": 127
    },
    {
      "midi": 64,
      "hit": false,
      "t": 303489.5833333335,
      "d": 4489.583333333314,
      "v": 114
    },
    {
      "midi": 52,
      "hit": false,
      "t": 303500.0000000002,
      "d": 4260.416666666628,
      "v": 110
    },
    {
      "midi": 45,
      "hit": false,
      "t": 303500.0000000002,
      "d": 4281.249999999942,
      "v": 118
    },
    {
      "midi": 74,
      "hit": false,
      "t": 305260.41666666686,
      "d": 197.91666666668607,
      "v": 105
    },
    {
      "midi": 76,
      "hit": false,
      "t": 305489.58333333355,
      "d": 239.58333333331393,
      "v": 81
    },
    {
      "midi": 79,
      "hit": false,
      "t": 305739.58333333355,
      "d": 166.66666666668607,
      "v": 101
    },
    {
      "midi": 79,
      "hit": false,
      "t": 305989.58333333355,
      "d": 322.91666666668607,
      "v": 112
    },
    {
      "midi": 74,
      "hit": false,
      "t": 306250.00000000023,
      "d": 260.41666666662786,
      "v": 84
    },
    {
      "midi": 76,
      "hit": false,
      "t": 306489.58333333355,
      "d": 260.41666666662786,
      "v": 112
    },
    {
      "midi": 72,
      "hit": false,
      "t": 306750.0000000002,
      "d": 218.75,
      "v": 75
    },
    {
      "midi": 74,
      "hit": false,
      "t": 306989.5833333335,
      "d": 270.83333333331393,
      "v": 114
    },
    {
      "midi": 69,
      "hit": false,
      "t": 307260.4166666668,
      "d": 739.5833333333139,
      "v": 80
    },
    {
      "midi": 74,
      "hit": false,
      "t": 307510.4166666668,
      "d": 270.83333333331393,
      "v": 120
    },
    {
      "midi": 71,
      "hit": false,
      "t": 307750.0000000001,
      "d": 197.91666666668607,
      "v": 75
    },
    {
      "midi": 38,
      "hit": false,
      "t": 308010.4166666668,
      "d": 1989.583333333314,
      "v": 90
    },
    {
      "midi": 45,
      "hit": false,
      "t": 308010.4166666668,
      "d": 1989.583333333314,
      "v": 95
    },
    {
      "midi": 62,
      "hit": false,
      "t": 308250.0000000001,
      "d": 218.75,
      "v": 90
    },
    {
      "midi": 72,
      "hit": false,
      "t": 308500.0000000001,
      "d": 291.66666666668607,
      "v": 105
    },
    {
      "midi": 69,
      "hit": false,
      "t": 308510.4166666668,
      "d": 239.58333333331393,
      "v": 104
    },
    {
      "midi": 67,
      "hit": false,
      "t": 308750.0000000001,
      "d": 239.58333333337214,
      "v": 88
    },
    {
      "midi": 66,
      "hit": false,
      "t": 309000.0000000002,
      "d": 270.83333333331393,
      "v": 117
    },
    {
      "midi": 64,
      "hit": false,
      "t": 309250.0000000002,
      "d": 229.16666666662786,
      "v": 97
    },
    {
      "midi": 62,
      "hit": false,
      "t": 309500.0000000001,
      "d": 239.58333333331393,
      "v": 97
    },
    {
      "midi": 60,
      "hit": false,
      "t": 309750.0000000001,
      "d": 739.5833333333139,
      "v": 110
    },
    {
      "midi": 50,
      "hit": false,
      "t": 310000.0000000001,
      "d": 1739.5833333333721,
      "v": 95
    },
    {
      "midi": 43,
      "hit": false,
      "t": 310000.0000000001,
      "d": 1989.5833333333721,
      "v": 90
    },
    {
      "midi": 62,
      "hit": false,
      "t": 310239.58333333343,
      "d": 739.5833333333139,
      "v": 104
    },
    {
      "midi": 59,
      "hit": false,
      "t": 310739.58333333343,
      "d": 187.5,
      "v": 80
    },
    {
      "midi": 60,
      "hit": false,
      "t": 310989.58333333343,
      "d": 270.83333333337214,
      "v": 120
    },
    {
      "midi": 57,
      "hit": false,
      "t": 311250.0000000001,
      "d": 208.33333333337214,
      "v": 107
    },
    {
      "midi": 53,
      "hit": false,
      "t": 311489.5833333335,
      "d": 281.25,
      "v": 114
    },
    {
      "midi": 55,
      "hit": false,
      "t": 311739.5833333335,
      "d": 197.91666666668607,
      "v": 93
    },
    {
      "midi": 36,
      "hit": false,
      "t": 312000.0000000002,
      "d": 1989.583333333314,
      "v": 86
    },
    {
      "midi": 43,
      "hit": false,
      "t": 312000.0000000002,
      "d": 1989.583333333314,
      "v": 102
    },
    {
      "midi": 48,
      "hit": false,
      "t": 312000.0000000002,
      "d": 1989.583333333314,
      "v": 102
    },
    {
      "midi": 65,
      "hit": false,
      "t": 312989.5833333335,
      "d": 260.41666666668607,
      "v": 120
    },
    {
      "midi": 72,
      "hit": false,
      "t": 312989.5833333335,
      "d": 989.5833333333139,
      "v": 118
    },
    {
      "midi": 67,
      "hit": false,
      "t": 313000.0000000002,
      "d": 958.3333333333139,
      "v": 116
    },
    {
      "midi": 64,
      "hit": false,
      "t": 313250.0000000002,
      "d": 218.75,
      "v": 98
    },
    {
      "midi": 62,
      "hit": false,
      "t": 313500.0000000002,
      "d": 250,
      "v": 98
    },
    {
      "midi": 60,
      "hit": false,
      "t": 313750.0000000002,
      "d": 177.08333333331393,
      "v": 91
    },
    {
      "midi": 67,
      "hit": false,
      "t": 313989.5833333335,
      "d": 1010.4166666666279,
      "v": 101
    },
    {
      "midi": 62,
      "hit": false,
      "t": 313989.5833333335,
      "d": 1041.6666666666279,
      "v": 107
    },
    {
      "midi": 50,
      "hit": false,
      "t": 313989.5833333335,
      "d": 1989.583333333314,
      "v": 100
    },
    {
      "midi": 43,
      "hit": false,
      "t": 314010.4166666668,
      "d": 354.16666666668607,
      "v": 94
    },
    {
      "midi": 43,
      "hit": false,
      "t": 314510.4166666668,
      "d": 1437.5,
      "v": 105
    },
    {
      "midi": 55,
      "hit": false,
      "t": 315000.0000000001,
      "d": 989.5833333333721,
      "v": 94
    },
    {
      "midi": 58,
      "hit": false,
      "t": 315218.7500000001,
      "d": 31.25,
      "v": 91
    },
    {
      "midi": 59,
      "hit": false,
      "t": 315260.4166666668,
      "d": 739.5833333333721,
      "v": 127
    },
    {
      "midi": 67,
      "hit": false,
      "t": 315500.0000000001,
      "d": 989.5833333333721,
      "v": 108
    },
    {
      "midi": 45,
      "hit": false,
      "t": 316000.0000000002,
      "d": 3989.583333333314,
      "v": 87
    },
    {
      "midi": 52,
      "hit": false,
      "t": 316000.0000000002,
      "d": 3989.583333333314,
      "v": 89
    },
    {
      "midi": 62,
      "hit": false,
      "t": 316239.5833333335,
      "d": 218.75,
      "v": 89
    },
    {
      "midi": 64,
      "hit": false,
      "t": 316489.5833333335,
      "d": 489.58333333331393,
      "v": 110
    },
    {
      "midi": 69,
      "hit": false,
      "t": 316489.5833333335,
      "d": 3489.583333333314,
      "v": 107
    },
    {
      "midi": 62,
      "hit": false,
      "t": 316739.5833333335,
      "d": 239.58333333331393,
      "v": 85
    },
    {
      "midi": 64,
      "hit": false,
      "t": 316989.5833333335,
      "d": 989.5833333333139,
      "v": 95
    },
    {
      "midi": 60,
      "hit": false,
      "t": 317239.5833333335,
      "d": 218.75,
      "v": 93
    },
    {
      "midi": 62,
      "hit": false,
      "t": 317510.4166666668,
      "d": 281.25,
      "v": 74
    },
    {
      "midi": 59,
      "hit": false,
      "t": 317750.0000000001,
      "d": 447.91666666668607,
      "v": 98
    },
    {
      "midi": 62,
      "hit": false,
      "t": 317979.1666666668,
      "d": 187.5,
      "v": 40
    },
    {
      "midi": 60,
      "hit": false,
      "t": 318260.4166666668,
      "d": 312.5,
      "v": 116
    },
    {
      "midi": 57,
      "hit": false,
      "t": 318500.0000000001,
      "d": 583.3333333333139,
      "v": 91
    },
    {
      "midi": 62,
      "hit": false,
      "t": 318750.0000000001,
      "d": 1239.5833333333721,
      "v": 112
    },
    {
      "midi": 64,
      "hit": false,
      "t": 318989.58333333343,
      "d": 989.5833333333721,
      "v": 91
    },
    {
      "midi": 59,
      "hit": false,
      "t": 319239.58333333343,
      "d": 489.58333333337214,
      "v": 83
    },
    {
      "midi": 55,
      "hit": false,
      "t": 319500.0000000001,
      "d": 489.58333333337214,
      "v": 102
    },
    {
      "midi": 57,
      "hit": false,
      "t": 319760.4166666668,
      "d": 218.75,
      "v": 89
    },
    {
      "midi": 41,
      "hit": false,
      "t": 320010.4166666668,
      "d": 1947.916666666686,
      "v": 107
    },
    {
      "midi": 60,
      "hit": false,
      "t": 320010.4166666668,
      "d": 1989.5833333333721,
      "v": 105
    },
    {
      "midi": 69,
      "hit": false,
      "t": 320010.4166666668,
      "d": 2489.583333333372,
      "v": 105
    },
    {
      "midi": 48,
      "hit": false,
      "t": 320250.0000000001,
      "d": 1739.5833333333721,
      "v": 85
    },
    {
      "midi": 53,
      "hit": false,
      "t": 320510.4166666668,
      "d": 1489.5833333333721,
      "v": 87
    },
    {
      "midi": 72,
      "hit": false,
      "t": 321010.4166666668,
      "d": 750,
      "v": 105
    },
    {
      "midi": 65,
      "hit": false,
      "t": 321010.4166666668,
      "d": 1239.5833333333721,
      "v": 112
    },
    {
      "midi": 43,
      "hit": false,
      "t": 321989.5833333335,
      "d": 1989.5833333333721,
      "v": 88
    },
    {
      "midi": 50,
      "hit": false,
      "t": 321989.5833333335,
      "d": 1989.5833333333721,
      "v": 90
    },
    {
      "midi": 60,
      "hit": false,
      "t": 322250.0000000002,
      "d": 739.5833333333139,
      "v": 78
    },
    {
      "midi": 65,
      "hit": false,
      "t": 322500.0000000002,
      "d": 489.58333333331393,
      "v": 101
    },
    {
      "midi": 69,
      "hit": false,
      "t": 322750.0000000002,
      "d": 562.5,
      "v": 112
    },
    {
      "midi": 66,
      "hit": false,
      "t": 323208.3333333335,
      "d": 10.41666666668607,
      "v": 114
    },
    {
      "midi": 67,
      "hit": false,
      "t": 323260.41666666686,
      "d": 239.58333333331393,
      "v": 100
    },
    {
      "midi": 65,
      "hit": false,
      "t": 323489.5833333335,
      "d": 489.58333333337214,
      "v": 90
    },
    {
      "midi": 60,
      "hit": false,
      "t": 324010.41666666686,
      "d": 656.25,
      "v": 90
    },
    {
      "midi": 52,
      "hit": false,
      "t": 324010.41666666686,
      "d": 989.5833333333721,
      "v": 80
    },
    {
      "midi": 55,
      "hit": false,
      "t": 324010.41666666686,
      "d": 989.5833333333721,
      "v": 90
    },
    {
      "midi": 62,
      "hit": false,
      "t": 324739.58333333355,
      "d": 104.16666666668607,
      "v": 76
    },
    {
      "midi": 64,
      "hit": false,
      "t": 324875.00000000023,
      "d": 114.58333333331393,
      "v": 94
    },
    {
      "midi": 65,
      "hit": false,
      "t": 325000.00000000023,
      "d": 739.5833333333139,
      "v": 120
    },
    {
      "midi": 57,
      "hit": false,
      "t": 325000.00000000023,
      "d": 989.5833333332557,
      "v": 84
    },
    {
      "midi": 60,
      "hit": false,
      "t": 325000.00000000023,
      "d": 989.5833333332557,
      "v": 83
    },
    {
      "midi": 64,
      "hit": false,
      "t": 325760.41666666686,
      "d": 83.33333333331393,
      "v": 90
    },
    {
      "midi": 62,
      "hit": false,
      "t": 325864.5833333335,
      "d": 104.16666666668607,
      "v": 81
    },
    {
      "midi": 64,
      "hit": false,
      "t": 325989.5833333335,
      "d": 666.6666666666861,
      "v": 107
    },
    {
      "midi": 59,
      "hit": false,
      "t": 325989.5833333335,
      "d": 802.0833333333721,
      "v": 72
    },
    {
      "midi": 55,
      "hit": false,
      "t": 325989.5833333335,
      "d": 989.5833333333721,
      "v": 89
    },
    {
      "midi": 62,
      "hit": false,
      "t": 326750.0000000002,
      "d": 72.91666666668607,
      "v": 89
    },
    {
      "midi": 60,
      "hit": false,
      "t": 326864.58333333355,
      "d": 83.33333333331393,
      "v": 82
    },
    {
      "midi": 62,
      "hit": false,
      "t": 326989.58333333355,
      "d": 645.8333333333139,
      "v": 112
    },
    {
      "midi": 53,
      "hit": false,
      "t": 326989.58333333355,
      "d": 989.5833333333139,
      "v": 80
    },
    {
      "midi": 57,
      "hit": false,
      "t": 326989.58333333355,
      "d": 989.5833333333139,
      "v": 77
    },
    {
      "midi": 60,
      "hit": false,
      "t": 327739.58333333355,
      "d": 72.91666666668607,
      "v": 91
    },
    {
      "midi": 59,
      "hit": false,
      "t": 327864.58333333355,
      "d": 93.75,
      "v": 80
    },
    {
      "midi": 60,
      "hit": false,
      "t": 327989.58333333355,
      "d": 687.5,
      "v": 108
    },
    {
      "midi": 52,
      "hit": false,
      "t": 328000.00000000023,
      "d": 989.5833333333139,
      "v": 78
    },
    {
      "midi": 55,
      "hit": false,
      "t": 328000.00000000023,
      "d": 989.5833333333139,
      "v": 86
    },
    {
      "midi": 62,
      "hit": false,
      "t": 328760.41666666686,
      "d": 72.91666666668607,
      "v": 90
    },
    {
      "midi": 64,
      "hit": false,
      "t": 328875.00000000023,
      "d": 93.75,
      "v": 81
    },
    {
      "midi": 65,
      "hit": false,
      "t": 329000.00000000023,
      "d": 343.75,
      "v": 127
    },
    {
      "midi": 60,
      "hit": false,
      "t": 329010.4166666669,
      "d": 906.25,
      "v": 107
    },
    {
      "midi": 57,
      "hit": false,
      "t": 329010.4166666669,
      "d": 916.6666666666861,
      "v": 102
    },
    {
      "midi": 68,
      "hit": false,
      "t": 329218.75000000023,
      "d": 31.25,
      "v": 127
    },
    {
      "midi": 69,
      "hit": false,
      "t": 329250.00000000023,
      "d": 843.7500000000582,
      "v": 114
    },
    {
      "midi": 72,
      "hit": false,
      "t": 329500.00000000023,
      "d": 593.7500000000582,
      "v": 108
    },
    {
      "midi": 59,
      "hit": false,
      "t": 330020.8333333336,
      "d": 947.9166666666861,
      "v": 110
    },
    {
      "midi": 55,
      "hit": false,
      "t": 330020.8333333336,
      "d": 958.3333333333721,
      "v": 107
    },
    {
      "midi": 72,
      "hit": false,
      "t": 330250.0000000003,
      "d": 989.5833333333721,
      "v": 118
    },
    {
      "midi": 69,
      "hit": false,
      "t": 330260.416666667,
      "d": 302.08333333331393,
      "v": 118
    },
    {
      "midi": 67,
      "hit": false,
      "t": 330541.666666667,
      "d": 739.5833333333139,
      "v": 94
    },
    {
      "midi": 53,
      "hit": false,
      "t": 331000.0000000003,
      "d": 916.6666666666279,
      "v": 98
    },
    {
      "midi": 57,
      "hit": false,
      "t": 331010.416666667,
      "d": 927.0833333332557,
      "v": 112
    },
    {
      "midi": 65,
      "hit": false,
      "t": 331260.416666667,
      "d": 375,
      "v": 114
    },
    {
      "midi": 67,
      "hit": false,
      "t": 331510.416666667,
      "d": 291.66666666662786,
      "v": 83
    },
    {
      "midi": 62,
      "hit": false,
      "t": 331781.2500000003,
      "d": 239.58333333331393,
      "v": 74
    },
    {
      "midi": 55,
      "hit": false,
      "t": 332000.00000000023,
      "d": 989.5833333333721,
      "v": 112
    },
    {
      "midi": 52,
      "hit": false,
      "t": 332010.4166666669,
      "d": 989.5833333333721,
      "v": 90
    },
    {
      "midi": 57,
      "hit": false,
      "t": 333000.0000000003,
      "d": 989.5833333333139,
      "v": 76
    },
    {
      "midi": 60,
      "hit": false,
      "t": 333000.0000000003,
      "d": 989.5833333333139,
      "v": 69
    },
    {
      "midi": 65,
      "hit": false,
      "t": 333010.416666667,
      "d": 239.58333333331393,
      "v": 87
    },
    {
      "midi": 67,
      "hit": false,
      "t": 333250.0000000003,
      "d": 489.58333333331393,
      "v": 98
    },
    {
      "midi": 65,
      "hit": false,
      "t": 333500.0000000003,
      "d": 489.58333333331393,
      "v": 92
    },
    {
      "midi": 64,
      "hit": false,
      "t": 334000.0000000003,
      "d": 489.58333333337214,
      "v": 83
    },
    {
      "midi": 55,
      "hit": false,
      "t": 334000.0000000003,
      "d": 989.5833333333721,
      "v": 78
    },
    {
      "midi": 59,
      "hit": false,
      "t": 334000.0000000003,
      "d": 989.5833333333721,
      "v": 75
    },
    {
      "midi": 67,
      "hit": false,
      "t": 334260.416666667,
      "d": 739.5833333333721,
      "v": 99
    },
    {
      "midi": 64,
      "hit": false,
      "t": 334510.416666667,
      "d": 489.58333333337214,
      "v": 93
    },
    {
      "midi": 62,
      "hit": false,
      "t": 334989.58333333366,
      "d": 437.5,
      "v": 90
    },
    {
      "midi": 53,
      "hit": false,
      "t": 334989.58333333366,
      "d": 833.3333333333139,
      "v": 72
    },
    {
      "midi": 57,
      "hit": false,
      "t": 334989.58333333366,
      "d": 989.5833333333139,
      "v": 72
    },
    {
      "midi": 65,
      "hit": false,
      "t": 335239.58333333366,
      "d": 239.58333333331393,
      "v": 74
    },
    {
      "midi": 62,
      "hit": false,
      "t": 335510.416666667,
      "d": 489.58333333331393,
      "v": 90
    },
    {
      "midi": 65,
      "hit": false,
      "t": 335510.416666667,
      "d": 489.58333333331393,
      "v": 81
    },
    {
      "midi": 36,
      "hit": false,
      "t": 336000.0000000003,
      "d": 3947.916666666628,
      "v": 77
    },
    {
      "midi": 55,
      "hit": false,
      "t": 336010.416666667,
      "d": 3895.833333333314,
      "v": 80
    },
    {
      "midi": 59,
      "hit": false,
      "t": 336010.416666667,
      "d": 3916.666666666628,
      "v": 97
    },
    {
      "midi": 64,
      "hit": false,
      "t": 336010.416666667,
      "d": 3937.499999999942,
      "v": 98
    },
    {
      "midi": 52,
      "hit": false,
      "t": 336010.416666667,
      "d": 3947.916666666628,
      "v": 77
    },
    {
      "midi": 66,
      "hit": false,
      "t": 336468.7500000003,
      "d": 302.08333333331393,
      "v": 81
    },
    {
      "midi": 66,
      "hit": false,
      "t": 336812.5000000003,
      "d": 395.83333333331393,
      "v": 75
    },
    {
      "midi": 66,
      "hit": false,
      "t": 337239.5833333336,
      "d": 968.75,
      "v": 68
    },
    {
      "midi": 66,
      "hit": false,
      "t": 338302.0833333336,
      "d": 1447.916666666686,
      "v": 44
    }
  ]
}