{
  "jsonPath": "Rock/Deep Progressive Trance/Kamui/victory-virus-inc-mix.json",
  "path": "Rock\\Deep Progressive Trance\\Kamui\\Victory (Virus Inc Mix).mid",
  "name": "Victory (Virus Inc Mix)",
  "difficulty": "Advanced",
  "bpm": 140.00014000014,
  "notes": [
    {
      "midi": 61,
      "hit": false,
      "t": 0,
      "d": 105.35703750000002,
      "v": 100
    },
    {
      "midi": 61,
      "hit": false,
      "t": 214.2855,
      "d": 105.35703749999999,
      "v": 100
    },
    {
      "midi": 61,
      "hit": false,
      "t": 428.571,
      "d": 105.35703750000005,
      "v": 100
    },
    {
      "midi": 58,
      "hit": false,
      "t": 642.8565000000001,
      "d": 105.35703750000005,
      "v": 100
    },
    {
      "midi": 58,
      "hit": false,
      "t": 857.1420000000002,
      "d": 105.35703750000005,
      "v": 100
    },
    {
      "midi": 58,
      "hit": false,
      "t": 1071.4275000000002,
      "d": 105.35703749999993,
      "v": 100
    },
    {
      "midi": 60,
      "hit": false,
      "t": 1285.7130000000002,
      "d": 105.35703749999993,
      "v": 100
    },
    {
      "midi": 60,
      "hit": false,
      "t": 1499.9985000000001,
      "d": 105.35703749999993,
      "v": 100
    },
    {
      "midi": 60,
      "hit": false,
      "t": 1714.284,
      "d": 105.35703749999993,
      "v": 100
    },
    {
      "midi": 53,
      "hit": false,
      "t": 1928.5695,
      "d": 105.35703749999993,
      "v": 100
    },
    {
      "midi": 53,
      "hit": false,
      "t": 2142.855,
      "d": 105.35703749999993,
      "v": 100
    },
    {
      "midi": 53,
      "hit": false,
      "t": 2357.1405,
      "d": 105.35703749999993,
      "v": 100
    },
    {
      "midi": 53,
      "hit": false,
      "t": 2571.426,
      "d": 105.35703749999993,
      "v": 100
    },
    {
      "midi": 53,
      "hit": false,
      "t": 2785.7115,
      "d": 105.35703749999993,
      "v": 100
    },
    {
      "midi": 53,
      "hit": false,
      "t": 2999.997,
      "d": 105.35703749999993,
      "v": 100
    },
    {
      "midi": 53,
      "hit": false,
      "t": 3214.2825,
      "d": 105.35703749999993,
      "v": 100
    },
    {
      "midi": 61,
      "hit": false,
      "t": 3428.5679999999998,
      "d": 105.35703749999993,
      "v": 100
    },
    {
      "midi": 61,
      "hit": false,
      "t": 3642.8534999999997,
      "d": 105.35703749999993,
      "v": 100
    },
    {
      "midi": 61,
      "hit": false,
      "t": 3857.1389999999997,
      "d": 105.35703749999993,
      "v": 100
    },
    {
      "midi": 58,
      "hit": false,
      "t": 4071.4244999999996,
      "d": 105.35703750000039,
      "v": 100
    },
    {
      "midi": 58,
      "hit": false,
      "t": 4285.71,
      "d": 105.35703749999993,
      "v": 100
    },
    {
      "midi": 58,
      "hit": false,
      "t": 4499.9955,
      "d": 105.35703749999993,
      "v": 100
    },
    {
      "midi": 56,
      "hit": false,
      "t": 4714.281,
      "d": 105.35703749999993,
      "v": 100
    },
    {
      "midi": 56,
      "hit": false,
      "t": 4928.5665,
      "d": 105.35703749999993,
      "v": 100
    },
    {
      "midi": 56,
      "hit": false,
      "t": 5142.852,
      "d": 105.35703749999993,
      "v": 100
    },
    {
      "midi": 53,
      "hit": false,
      "t": 5357.1375,
      "d": 105.35703749999993,
      "v": 100
    },
    {
      "midi": 53,
      "hit": false,
      "t": 5571.423,
      "d": 105.35703749999993,
      "v": 100
    },
    {
      "midi": 53,
      "hit": false,
      "t": 5785.7085,
      "d": 105.35703749999993,
      "v": 100
    },
    {
      "midi": 53,
      "hit": false,
      "t": 5999.994,
      "d": 105.35703749999993,
      "v": 100
    },
    {
      "midi": 53,
      "hit": false,
      "t": 6214.2795,
      "d": 105.35703749999993,
      "v": 100
    },
    {
      "midi": 53,
      "hit": false,
      "t": 6428.565,
      "d": 105.35703749999993,
      "v": 100
    },
    {
      "midi": 53,
      "hit": false,
      "t": 6642.8505,
      "d": 105.35703749999993,
      "v": 100
    },
    {
      "midi": 61,
      "hit": false,
      "t": 6857.1359999999995,
      "d": 105.35703749999993,
      "v": 100
    },
    {
      "midi": 61,
      "hit": false,
      "t": 7071.4214999999995,
      "d": 105.35703749999993,
      "v": 100
    },
    {
      "midi": 61,
      "hit": false,
      "t": 7285.706999999999,
      "d": 105.35703749999993,
      "v": 100
    },
    {
      "midi": 58,
      "hit": false,
      "t": 7499.992499999999,
      "d": 105.35703749999993,
      "v": 100
    },
    {
      "midi": 58,
      "hit": false,
      "t": 7714.277999999999,
      "d": 105.35703749999993,
      "v": 100
    },
    {
      "midi": 58,
      "hit": false,
      "t": 7928.563499999999,
      "d": 105.35703749999993,
      "v": 100
    },
    {
      "midi": 60,
      "hit": false,
      "t": 8142.848999999999,
      "d": 105.35703750000084,
      "v": 100
    },
    {
      "midi": 60,
      "hit": false,
      "t": 8357.1345,
      "d": 105.35703749999993,
      "v": 100
    },
    {
      "midi": 60,
      "hit": false,
      "t": 8571.42,
      "d": 105.35703749999993,
      "v": 100
    },
    {
      "midi": 53,
      "hit": false,
      "t": 8785.7055,
      "d": 105.35703749999993,
      "v": 100
    },
    {
      "midi": 53,
      "hit": false,
      "t": 8999.991,
      "d": 105.35703749999993,
      "v": 100
    },
    {
      "midi": 53,
      "hit": false,
      "t": 9214.2765,
      "d": 105.35703749999993,
      "v": 100
    },
    {
      "midi": 53,
      "hit": false,
      "t": 9428.562,
      "d": 105.35703749999993,
      "v": 100
    },
    {
      "midi": 53,
      "hit": false,
      "t": 9642.8475,
      "d": 105.35703749999993,
      "v": 100
    },
    {
      "midi": 53,
      "hit": false,
      "t": 9857.133,
      "d": 105.35703749999993,
      "v": 100
    },
    {
      "midi": 53,
      "hit": false,
      "t": 10071.4185,
      "d": 105.35703749999993,
      "v": 100
    },
    {
      "midi": 61,
      "hit": false,
      "t": 10285.704,
      "d": 105.35703749999993,
      "v": 100
    },
    {
      "midi": 61,
      "hit": false,
      "t": 10499.9895,
      "d": 105.35703749999993,
      "v": 100
    },
    {
      "midi": 61,
      "hit": false,
      "t": 10714.275,
      "d": 105.35703749999993,
      "v": 100
    },
    {
      "midi": 58,
      "hit": false,
      "t": 10928.5605,
      "d": 105.35703749999993,
      "v": 100
    },
    {
      "midi": 58,
      "hit": false,
      "t": 11142.846,
      "d": 105.35703749999993,
      "v": 100
    },
    {
      "midi": 58,
      "hit": false,
      "t": 11357.1315,
      "d": 105.35703749999993,
      "v": 100
    },
    {
      "midi": 56,
      "hit": false,
      "t": 11571.417,
      "d": 105.35703749999993,
      "v": 100
    },
    {
      "midi": 56,
      "hit": false,
      "t": 11785.7025,
      "d": 105.35703749999993,
      "v": 100
    },
    {
      "midi": 56,
      "hit": false,
      "t": 11999.988,
      "d": 105.35703749999993,
      "v": 100
    },
    {
      "midi": 60,
      "hit": false,
      "t": 12214.2735,
      "d": 105.35703749999993,
      "v": 100
    },
    {
      "midi": 60,
      "hit": false,
      "t": 12428.559,
      "d": 105.35703749999993,
      "v": 100
    },
    {
      "midi": 60,
      "hit": false,
      "t": 12642.8445,
      "d": 105.35703749999993,
      "v": 100
    },
    {
      "midi": 60,
      "hit": false,
      "t": 12857.13,
      "d": 105.35703749999993,
      "v": 100
    },
    {
      "midi": 60,
      "hit": false,
      "t": 13071.4155,
      "d": 105.35703749999993,
      "v": 100
    },
    {
      "midi": 60,
      "hit": false,
      "t": 13285.701,
      "d": 105.35703749999993,
      "v": 100
    },
    {
      "midi": 60,
      "hit": false,
      "t": 13499.986499999999,
      "d": 105.35703749999993,
      "v": 100
    },
    {
      "midi": 61,
      "hit": false,
      "t": 13714.271999999999,
      "d": 105.35703749999993,
      "v": 100
    },
    {
      "midi": 37,
      "hit": false,
      "t": 13714.271999999999,
      "d": 641.0707875000007,
      "v": 100
    },
    {
      "midi": 61,
      "hit": false,
      "t": 13928.557499999999,
      "d": 105.35703749999993,
      "v": 100
    },
    {
      "midi": 61,
      "hit": false,
      "t": 14142.842999999999,
      "d": 105.35703749999993,
      "v": 100
    },
    {
      "midi": 58,
      "hit": false,
      "t": 14357.128499999999,
      "d": 105.35703749999993,
      "v": 100
    },
    {
      "midi": 34,
      "hit": false,
      "t": 14357.128499999999,
      "d": 641.0707875000007,
      "v": 100
    },
    {
      "midi": 58,
      "hit": false,
      "t": 14571.413999999999,
      "d": 105.35703749999993,
      "v": 100
    },
    {
      "midi": 58,
      "hit": false,
      "t": 14785.699499999999,
      "d": 105.35703749999993,
      "v": 100
    },
    {
      "midi": 60,
      "hit": false,
      "t": 14999.984999999999,
      "d": 105.35703749999993,
      "v": 100
    },
    {
      "midi": 32,
      "hit": false,
      "t": 14999.984999999999,
      "d": 641.0707875000007,
      "v": 100
    },
    {
      "midi": 60,
      "hit": false,
      "t": 15214.270499999999,
      "d": 105.35703749999993,
      "v": 100
    },
    {
      "midi": 60,
      "hit": false,
      "t": 15428.555999999999,
      "d": 105.35703749999993,
      "v": 100
    },
    {
      "midi": 53,
      "hit": false,
      "t": 15642.841499999999,
      "d": 105.35703749999993,
      "v": 100
    },
    {
      "midi": 34,
      "hit": false,
      "t": 15642.841499999999,
      "d": 1069.6417875000006,
      "v": 100
    },
    {
      "midi": 53,
      "hit": false,
      "t": 15857.126999999999,
      "d": 105.35703749999993,
      "v": 100
    },
    {
      "midi": 53,
      "hit": false,
      "t": 16071.412499999999,
      "d": 105.35703749999993,
      "v": 100
    },
    {
      "midi": 53,
      "hit": false,
      "t": 16285.697999999999,
      "d": 105.35703749999993,
      "v": 100
    },
    {
      "midi": 53,
      "hit": false,
      "t": 16499.9835,
      "d": 105.35703750000175,
      "v": 100
    },
    {
      "midi": 53,
      "hit": false,
      "t": 16714.269,
      "d": 105.35703750000175,
      "v": 100
    },
    {
      "midi": 53,
      "hit": false,
      "t": 16928.554500000002,
      "d": 105.35703750000175,
      "v": 100
    },
    {
      "midi": 61,
      "hit": false,
      "t": 17142.840000000004,
      "d": 105.35703750000175,
      "v": 100
    },
    {
      "midi": 37,
      "hit": false,
      "t": 17142.840000000004,
      "d": 641.0707875000044,
      "v": 100
    },
    {
      "midi": 61,
      "hit": false,
      "t": 17357.125500000006,
      "d": 105.35703750000175,
      "v": 100
    },
    {
      "midi": 61,
      "hit": false,
      "t": 17571.411000000007,
      "d": 105.35703750000175,
      "v": 100
    },
    {
      "midi": 58,
      "hit": false,
      "t": 17785.69650000001,
      "d": 105.35703750000175,
      "v": 100
    },
    {
      "midi": 41,
      "hit": false,
      "t": 17785.69650000001,
      "d": 641.0707875000044,
      "v": 100
    },
    {
      "midi": 58,
      "hit": false,
      "t": 17999.98200000001,
      "d": 105.35703750000175,
      "v": 100
    },
    {
      "midi": 58,
      "hit": false,
      "t": 18214.267500000013,
      "d": 105.35703750000175,
      "v": 100
    },
    {
      "midi": 56,
      "hit": false,
      "t": 18428.553000000014,
      "d": 105.35703750000175,
      "v": 100
    },
    {
      "midi": 32,
      "hit": false,
      "t": 18428.553000000014,
      "d": 641.0707875000044,
      "v": 100
    },
    {
      "midi": 56,
      "hit": false,
      "t": 18642.838500000016,
      "d": 105.35703750000175,
      "v": 100
    },
    {
      "midi": 56,
      "hit": false,
      "t": 18857.124000000018,
      "d": 105.35703750000175,
      "v": 100
    },
    {
      "midi": 53,
      "hit": false,
      "t": 19071.40950000002,
      "d": 105.35703750000175,
      "v": 100
    },
    {
      "midi": 29,
      "hit": false,
      "t": 19071.40950000002,
      "d": 1069.641787500008,
      "v": 100
    },
    {
      "midi": 53,
      "hit": false,
      "t": 19285.69500000002,
      "d": 105.35703750000175,
      "v": 100
    },
    {
      "midi": 53,
      "hit": false,
      "t": 19499.980500000023,
      "d": 105.35703750000175,
      "v": 100
    },
    {
      "midi": 53,
      "hit": false,
      "t": 19714.266000000025,
      "d": 105.35703750000175,
      "v": 100
    },
    {
      "midi": 53,
      "hit": false,
      "t": 19928.551500000027,
      "d": 105.35703750000175,
      "v": 100
    },
    {
      "midi": 53,
      "hit": false,
      "t": 20142.83700000003,
      "d": 105.35703750000175,
      "v": 100
    },
    {
      "midi": 53,
      "hit": false,
      "t": 20357.12250000003,
      "d": 105.35703750000175,
      "v": 100
    },
    {
      "midi": 61,
      "hit": false,
      "t": 20571.408000000032,
      "d": 105.35703750000175,
      "v": 100
    },
    {
      "midi": 37,
      "hit": false,
      "t": 20571.408000000032,
      "d": 641.0707875000044,
      "v": 100
    },
    {
      "midi": 61,
      "hit": false,
      "t": 20785.693500000034,
      "d": 105.35703750000175,
      "v": 100
    },
    {
      "midi": 61,
      "hit": false,
      "t": 20999.979000000036,
      "d": 105.35703750000175,
      "v": 100
    },
    {
      "midi": 58,
      "hit": false,
      "t": 21214.264500000038,
      "d": 105.35703750000175,
      "v": 100
    },
    {
      "midi": 34,
      "hit": false,
      "t": 21214.264500000038,
      "d": 641.0707875000044,
      "v": 100
    },
    {
      "midi": 58,
      "hit": false,
      "t": 21428.55000000004,
      "d": 105.35703750000175,
      "v": 100
    },
    {
      "midi": 58,
      "hit": false,
      "t": 21642.83550000004,
      "d": 105.35703750000175,
      "v": 100
    },
    {
      "midi": 60,
      "hit": false,
      "t": 21857.121000000043,
      "d": 105.35703750000175,
      "v": 100
    },
    {
      "midi": 32,
      "hit": false,
      "t": 21857.121000000043,
      "d": 641.0707875000044,
      "v": 100
    },
    {
      "midi": 60,
      "hit": false,
      "t": 22071.406500000045,
      "d": 105.35703750000175,
      "v": 100
    },
    {
      "midi": 60,
      "hit": false,
      "t": 22285.692000000046,
      "d": 105.35703750000175,
      "v": 100
    },
    {
      "midi": 53,
      "hit": false,
      "t": 22499.977500000048,
      "d": 105.35703750000175,
      "v": 100
    },
    {
      "midi": 34,
      "hit": false,
      "t": 22499.977500000048,
      "d": 1069.641787500008,
      "v": 100
    },
    {
      "midi": 53,
      "hit": false,
      "t": 22714.26300000005,
      "d": 105.35703750000175,
      "v": 100
    },
    {
      "midi": 53,
      "hit": false,
      "t": 22928.54850000005,
      "d": 105.35703750000175,
      "v": 100
    },
    {
      "midi": 53,
      "hit": false,
      "t": 23142.834000000053,
      "d": 105.35703750000175,
      "v": 100
    },
    {
      "midi": 53,
      "hit": false,
      "t": 23357.119500000055,
      "d": 105.35703750000175,
      "v": 100
    },
    {
      "midi": 53,
      "hit": false,
      "t": 23571.405000000057,
      "d": 105.35703750000175,
      "v": 100
    },
    {
      "midi": 53,
      "hit": false,
      "t": 23785.69050000006,
      "d": 105.35703750000175,
      "v": 100
    },
    {
      "midi": 65,
      "hit": false,
      "t": 23999.97600000006,
      "d": 105.35703750000175,
      "v": 100
    },
    {
      "midi": 37,
      "hit": false,
      "t": 23999.97600000006,
      "d": 641.0707875000044,
      "v": 100
    },
    {
      "midi": 65,
      "hit": false,
      "t": 24214.261500000062,
      "d": 105.35703750000175,
      "v": 100
    },
    {
      "midi": 65,
      "hit": false,
      "t": 24428.547000000064,
      "d": 105.35703750000175,
      "v": 100
    },
    {
      "midi": 63,
      "hit": false,
      "t": 24642.832500000066,
      "d": 105.35703750000175,
      "v": 100
    },
    {
      "midi": 41,
      "hit": false,
      "t": 24642.832500000066,
      "d": 641.0707875000044,
      "v": 100
    },
    {
      "midi": 63,
      "hit": false,
      "t": 24857.118000000068,
      "d": 105.35703750000175,
      "v": 100
    },
    {
      "midi": 63,
      "hit": false,
      "t": 25071.40350000007,
      "d": 105.35703750000175,
      "v": 100
    },
    {
      "midi": 65,
      "hit": false,
      "t": 25285.68900000007,
      "d": 105.35703750000175,
      "v": 100
    },
    {
      "midi": 32,
      "hit": false,
      "t": 25285.68900000007,
      "d": 641.0707875000044,
      "v": 100
    },
    {
      "midi": 65,
      "hit": false,
      "t": 25499.974500000073,
      "d": 105.35703750000175,
      "v": 100
    },
    {
      "midi": 65,
      "hit": false,
      "t": 25714.260000000075,
      "d": 105.35703750000175,
      "v": 100
    },
    {
      "midi": 68,
      "hit": false,
      "t": 25928.545500000077,
      "d": 105.35703750000175,
      "v": 100
    },
    {
      "midi": 29,
      "hit": false,
      "t": 25928.545500000077,
      "d": 1069.641787500008,
      "v": 100
    },
    {
      "midi": 68,
      "hit": false,
      "t": 26142.83100000008,
      "d": 105.35703750000175,
      "v": 100
    },
    {
      "midi": 68,
      "hit": false,
      "t": 26357.11650000008,
      "d": 105.35703750000175,
      "v": 100
    },
    {
      "midi": 68,
      "hit": false,
      "t": 26571.402000000082,
      "d": 105.35703750000175,
      "v": 100
    },
    {
      "midi": 68,
      "hit": false,
      "t": 26785.687500000084,
      "d": 105.35703750000175,
      "v": 100
    },
    {
      "midi": 68,
      "hit": false,
      "t": 26999.973000000085,
      "d": 105.35703750000175,
      "v": 100
    },
    {
      "midi": 68,
      "hit": false,
      "t": 27214.258500000087,
      "d": 105.35703750000175,
      "v": 100
    },
    {
      "midi": 61,
      "hit": false,
      "t": 27428.54400000009,
      "d": 105.35703750000175,
      "v": 100
    },
    {
      "midi": 37,
      "hit": false,
      "t": 27428.54400000009,
      "d": 641.0707875000044,
      "v": 100
    },
    {
      "midi": 61,
      "hit": false,
      "t": 27642.82950000009,
      "d": 105.35703750000175,
      "v": 100
    },
    {
      "midi": 61,
      "hit": false,
      "t": 27857.115000000093,
      "d": 105.35703750000175,
      "v": 100
    },
    {
      "midi": 58,
      "hit": false,
      "t": 28071.400500000094,
      "d": 105.35703750000175,
      "v": 100
    },
    {
      "midi": 34,
      "hit": false,
      "t": 28071.400500000094,
      "d": 641.0707875000044,
      "v": 100
    },
    {
      "midi": 58,
      "hit": false,
      "t": 28285.686000000096,
      "d": 105.35703750000175,
      "v": 100
    },
    {
      "midi": 58,
      "hit": false,
      "t": 28499.971500000098,
      "d": 105.35703750000175,
      "v": 100
    },
    {
      "midi": 60,
      "hit": false,
      "t": 28714.2570000001,
      "d": 105.35703750000175,
      "v": 100
    },
    {
      "midi": 32,
      "hit": false,
      "t": 28714.2570000001,
      "d": 641.0707875000044,
      "v": 100
    },
    {
      "midi": 60,
      "hit": false,
      "t": 28928.5425000001,
      "d": 105.35703750000175,
      "v": 100
    },
    {
      "midi": 60,
      "hit": false,
      "t": 29142.828000000103,
      "d": 105.35703750000175,
      "v": 100
    },
    {
      "midi": 53,
      "hit": false,
      "t": 29357.113500000105,
      "d": 105.35703750000175,
      "v": 100
    },
    {
      "midi": 34,
      "hit": false,
      "t": 29357.113500000105,
      "d": 1069.641787500008,
      "v": 100
    },
    {
      "midi": 53,
      "hit": false,
      "t": 29571.399000000107,
      "d": 105.35703750000175,
      "v": 100
    },
    {
      "midi": 53,
      "hit": false,
      "t": 29785.68450000011,
      "d": 105.35703750000175,
      "v": 100
    },
    {
      "midi": 53,
      "hit": false,
      "t": 29999.97000000011,
      "d": 105.35703750000175,
      "v": 100
    },
    {
      "midi": 53,
      "hit": false,
      "t": 30214.255500000112,
      "d": 105.35703750000175,
      "v": 100
    },
    {
      "midi": 53,
      "hit": false,
      "t": 30428.541000000114,
      "d": 105.35703750000175,
      "v": 100
    },
    {
      "midi": 53,
      "hit": false,
      "t": 30642.826500000116,
      "d": 105.35703750000175,
      "v": 100
    },
    {
      "midi": 61,
      "hit": false,
      "t": 30857.112000000117,
      "d": 105.35703750000175,
      "v": 100
    },
    {
      "midi": 37,
      "hit": false,
      "t": 30857.112000000117,
      "d": 641.0707875000044,
      "v": 100
    },
    {
      "midi": 61,
      "hit": false,
      "t": 31071.39750000012,
      "d": 105.35703750000175,
      "v": 100
    },
    {
      "midi": 61,
      "hit": false,
      "t": 31285.68300000012,
      "d": 105.35703750000175,
      "v": 100
    },
    {
      "midi": 58,
      "hit": false,
      "t": 31499.968500000123,
      "d": 105.35703750000175,
      "v": 100
    },
    {
      "midi": 41,
      "hit": false,
      "t": 31499.968500000123,
      "d": 641.0707875000044,
      "v": 100
    },
    {
      "midi": 58,
      "hit": false,
      "t": 31714.254000000125,
      "d": 105.35703750000175,
      "v": 100
    },
    {
      "midi": 58,
      "hit": false,
      "t": 31928.539500000126,
      "d": 105.35703750000175,
      "v": 100
    },
    {
      "midi": 56,
      "hit": false,
      "t": 32142.825000000128,
      "d": 105.35703750000175,
      "v": 100
    },
    {
      "midi": 32,
      "hit": false,
      "t": 32142.825000000128,
      "d": 641.070787500008,
      "v": 100
    },
    {
      "midi": 56,
      "hit": false,
      "t": 32357.11050000013,
      "d": 105.35703750000175,
      "v": 100
    },
    {
      "midi": 56,
      "hit": false,
      "t": 32571.39600000013,
      "d": 105.35703750000175,
      "v": 100
    },
    {
      "midi": 53,
      "hit": false,
      "t": 32785.68150000014,
      "d": 105.35703749999811,
      "v": 100
    },
    {
      "midi": 29,
      "hit": false,
      "t": 32785.68150000014,
      "d": 1069.6417874999897,
      "v": 100
    },
    {
      "midi": 53,
      "hit": false,
      "t": 32999.967000000135,
      "d": 105.35703749999811,
      "v": 100
    },
    {
      "midi": 53,
      "hit": false,
      "t": 33214.25250000013,
      "d": 105.35703749999811,
      "v": 100
    },
    {
      "midi": 53,
      "hit": false,
      "t": 33428.53800000013,
      "d": 105.35703749999811,
      "v": 100
    },
    {
      "midi": 53,
      "hit": false,
      "t": 33642.82350000013,
      "d": 105.35703749999811,
      "v": 100
    },
    {
      "midi": 53,
      "hit": false,
      "t": 33857.10900000013,
      "d": 105.35703749999811,
      "v": 100
    },
    {
      "midi": 53,
      "hit": false,
      "t": 34071.394500000126,
      "d": 105.35703749999811,
      "v": 100
    },
    {
      "midi": 61,
      "hit": false,
      "t": 34285.680000000124,
      "d": 105.35703749999811,
      "v": 100
    },
    {
      "midi": 37,
      "hit": false,
      "t": 34285.680000000124,
      "d": 641.0707874999935,
      "v": 100
    },
    {
      "midi": 61,
      "hit": false,
      "t": 34499.96550000012,
      "d": 105.35703749999811,
      "v": 100
    },
    {
      "midi": 61,
      "hit": false,
      "t": 34714.25100000012,
      "d": 105.35703749999811,
      "v": 100
    },
    {
      "midi": 58,
      "hit": false,
      "t": 34928.53650000012,
      "d": 105.35703749999811,
      "v": 100
    },
    {
      "midi": 34,
      "hit": false,
      "t": 34928.53650000012,
      "d": 641.0707874999935,
      "v": 100
    },
    {
      "midi": 58,
      "hit": false,
      "t": 35142.82200000012,
      "d": 105.35703749999811,
      "v": 100
    },
    {
      "midi": 58,
      "hit": false,
      "t": 35357.107500000115,
      "d": 105.35703749999811,
      "v": 100
    },
    {
      "midi": 60,
      "hit": false,
      "t": 35571.39300000011,
      "d": 105.35703749999811,
      "v": 100
    },
    {
      "midi": 32,
      "hit": false,
      "t": 35571.39300000011,
      "d": 641.0707874999935,
      "v": 100
    },
    {
      "midi": 60,
      "hit": false,
      "t": 35785.67850000011,
      "d": 105.35703749999811,
      "v": 100
    },
    {
      "midi": 60,
      "hit": false,
      "t": 35999.96400000011,
      "d": 105.35703749999811,
      "v": 100
    },
    {
      "midi": 53,
      "hit": false,
      "t": 36214.24950000011,
      "d": 105.35703749999811,
      "v": 100
    },
    {
      "midi": 34,
      "hit": false,
      "t": 36214.24950000011,
      "d": 1069.6417874999897,
      "v": 100
    },
    {
      "midi": 53,
      "hit": false,
      "t": 36428.535000000105,
      "d": 105.35703749999811,
      "v": 100
    },
    {
      "midi": 53,
      "hit": false,
      "t": 36642.8205000001,
      "d": 105.35703749999811,
      "v": 100
    },
    {
      "midi": 53,
      "hit": false,
      "t": 36857.1060000001,
      "d": 105.35703749999811,
      "v": 100
    },
    {
      "midi": 53,
      "hit": false,
      "t": 37071.3915000001,
      "d": 105.35703749999811,
      "v": 100
    },
    {
      "midi": 53,
      "hit": false,
      "t": 37285.6770000001,
      "d": 105.35703749999811,
      "v": 100
    },
    {
      "midi": 53,
      "hit": false,
      "t": 37499.962500000096,
      "d": 105.35703749999811,
      "v": 100
    },
    {
      "midi": 61,
      "hit": false,
      "t": 37714.248000000094,
      "d": 105.35703749999811,
      "v": 100
    },
    {
      "midi": 37,
      "hit": false,
      "t": 37714.248000000094,
      "d": 641.0707874999935,
      "v": 100
    },
    {
      "midi": 61,
      "hit": false,
      "t": 37928.53350000009,
      "d": 105.35703749999811,
      "v": 100
    },
    {
      "midi": 61,
      "hit": false,
      "t": 38142.81900000009,
      "d": 105.35703749999811,
      "v": 100
    },
    {
      "midi": 58,
      "hit": false,
      "t": 38357.10450000009,
      "d": 105.35703749999811,
      "v": 100
    },
    {
      "midi": 41,
      "hit": false,
      "t": 38357.10450000009,
      "d": 641.0707874999935,
      "v": 100
    },
    {
      "midi": 58,
      "hit": false,
      "t": 38571.39000000009,
      "d": 105.35703749999811,
      "v": 100
    },
    {
      "midi": 58,
      "hit": false,
      "t": 38785.675500000085,
      "d": 105.35703749999811,
      "v": 100
    },
    {
      "midi": 56,
      "hit": false,
      "t": 38999.96100000008,
      "d": 105.35703749999811,
      "v": 100
    },
    {
      "midi": 32,
      "hit": false,
      "t": 38999.96100000008,
      "d": 641.0707874999935,
      "v": 100
    },
    {
      "midi": 56,
      "hit": false,
      "t": 39214.24650000008,
      "d": 105.35703749999811,
      "v": 100
    },
    {
      "midi": 56,
      "hit": false,
      "t": 39428.53200000008,
      "d": 105.35703749999811,
      "v": 100
    },
    {
      "midi": 60,
      "hit": false,
      "t": 39642.81750000008,
      "d": 105.35703749999811,
      "v": 100
    },
    {
      "midi": 29,
      "hit": false,
      "t": 39642.81750000008,
      "d": 1069.6417874999897,
      "v": 100
    },
    {
      "midi": 60,
      "hit": false,
      "t": 39857.103000000076,
      "d": 105.35703749999811,
      "v": 100
    },
    {
      "midi": 60,
      "hit": false,
      "t": 40071.388500000074,
      "d": 105.35703749999811,
      "v": 100
    },
    {
      "midi": 60,
      "hit": false,
      "t": 40285.67400000007,
      "d": 105.35703749999811,
      "v": 100
    },
    {
      "midi": 60,
      "hit": false,
      "t": 40499.95950000007,
      "d": 105.35703749999811,
      "v": 100
    },
    {
      "midi": 60,
      "hit": false,
      "t": 40714.24500000007,
      "d": 105.35703749999811,
      "v": 100
    },
    {
      "midi": 60,
      "hit": false,
      "t": 40928.530500000066,
      "d": 105.35703749999811,
      "v": 100
    },
    {
      "midi": 37,
      "hit": false,
      "t": 41142.816000000064,
      "d": 641.0707875000007,
      "v": 100
    },
    {
      "midi": 61,
      "hit": false,
      "t": 41142.816000000064,
      "d": 641.0707875000007,
      "v": 100
    },
    {
      "midi": 34,
      "hit": false,
      "t": 41785.672500000066,
      "d": 641.0707875000007,
      "v": 100
    },
    {
      "midi": 58,
      "hit": false,
      "t": 41785.672500000066,
      "d": 641.0707875000007,
      "v": 100
    },
    {
      "midi": 32,
      "hit": false,
      "t": 42428.52900000007,
      "d": 641.0707875000007,
      "v": 100
    },
    {
      "midi": 60,
      "hit": false,
      "t": 42428.52900000007,
      "d": 641.0707875000007,
      "v": 100
    },
    {
      "midi": 34,
      "hit": false,
      "t": 43071.38550000007,
      "d": 1069.641787499997,
      "v": 100
    },
    {
      "midi": 53,
      "hit": false,
      "t": 43071.38550000007,
      "d": 1069.641787499997,
      "v": 100
    },
    {
      "midi": 37,
      "hit": false,
      "t": 44571.384000000064,
      "d": 641.0707875000007,
      "v": 100
    },
    {
      "midi": 56,
      "hit": false,
      "t": 44571.384000000064,
      "d": 641.0707875000007,
      "v": 100
    },
    {
      "midi": 41,
      "hit": false,
      "t": 45214.240500000065,
      "d": 641.0707875000007,
      "v": 100
    },
    {
      "midi": 53,
      "hit": false,
      "t": 45214.240500000065,
      "d": 641.0707875000007,
      "v": 100
    },
    {
      "midi": 32,
      "hit": false,
      "t": 45857.09700000007,
      "d": 641.0707875000007,
      "v": 100
    },
    {
      "midi": 51,
      "hit": false,
      "t": 45857.09700000007,
      "d": 641.0707875000007,
      "v": 100
    },
    {
      "midi": 29,
      "hit": false,
      "t": 46499.95350000007,
      "d": 1069.641787499997,
      "v": 100
    },
    {
      "midi": 53,
      "hit": false,
      "t": 46499.95350000007,
      "d": 1069.641787499997,
      "v": 100
    },
    {
      "midi": 37,
      "hit": false,
      "t": 47999.95200000006,
      "d": 641.0707875000007,
      "v": 100
    },
    {
      "midi": 61,
      "hit": false,
      "t": 47999.95200000006,
      "d": 641.0707875000007,
      "v": 100
    },
    {
      "midi": 34,
      "hit": false,
      "t": 48642.808500000065,
      "d": 641.0707875000007,
      "v": 100
    },
    {
      "midi": 63,
      "hit": false,
      "t": 48642.808500000065,
      "d": 641.0707875000007,
      "v": 100
    },
    {
      "midi": 32,
      "hit": false,
      "t": 49285.665000000066,
      "d": 641.0707875000007,
      "v": 100
    },
    {
      "midi": 60,
      "hit": false,
      "t": 49285.665000000066,
      "d": 641.0707875000007,
      "v": 100
    },
    {
      "midi": 34,
      "hit": false,
      "t": 49928.52150000007,
      "d": 1069.641787499997,
      "v": 100
    },
    {
      "midi": 58,
      "hit": false,
      "t": 49928.52150000007,
      "d": 1069.641787499997,
      "v": 100
    },
    {
      "midi": 37,
      "hit": false,
      "t": 51428.52000000006,
      "d": 641.0707875000007,
      "v": 100
    },
    {
      "midi": 58,
      "hit": false,
      "t": 51428.52000000006,
      "d": 641.0707875000007,
      "v": 100
    },
    {
      "midi": 41,
      "hit": false,
      "t": 52071.376500000064,
      "d": 641.0707875000007,
      "v": 100
    },
    {
      "midi": 56,
      "hit": false,
      "t": 52071.376500000064,
      "d": 641.0707875000007,
      "v": 100
    },
    {
      "midi": 32,
      "hit": false,
      "t": 52714.233000000066,
      "d": 641.0707875000007,
      "v": 100
    },
    {
      "midi": 53,
      "hit": false,
      "t": 52714.233000000066,
      "d": 641.0707875000007,
      "v": 100
    },
    {
      "midi": 29,
      "hit": false,
      "t": 53357.08950000007,
      "d": 1069.641787499997,
      "v": 100
    },
    {
      "midi": 56,
      "hit": false,
      "t": 53357.08950000007,
      "d": 1069.641787499997,
      "v": 100
    },
    {
      "midi": 37,
      "hit": false,
      "t": 54857.08800000006,
      "d": 641.0707875000007,
      "v": 100
    },
    {
      "midi": 61,
      "hit": false,
      "t": 54857.08800000006,
      "d": 641.0707875000007,
      "v": 100
    },
    {
      "midi": 34,
      "hit": false,
      "t": 55499.94450000006,
      "d": 641.0707875000007,
      "v": 100
    },
    {
      "midi": 58,
      "hit": false,
      "t": 55499.94450000006,
      "d": 641.0707875000007,
      "v": 100
    },
    {
      "midi": 32,
      "hit": false,
      "t": 56142.801000000065,
      "d": 641.0707875000007,
      "v": 100
    },
    {
      "midi": 60,
      "hit": false,
      "t": 56142.801000000065,
      "d": 641.0707875000007,
      "v": 100
    },
    {
      "midi": 34,
      "hit": false,
      "t": 56785.65750000007,
      "d": 1283.9272875000024,
      "v": 100
    },
    {
      "midi": 53,
      "hit": false,
      "t": 56785.65750000007,
      "d": 1283.9272875000024,
      "v": 100
    },
    {
      "midi": 37,
      "hit": false,
      "t": 58285.65600000007,
      "d": 641.0707875000007,
      "v": 100
    },
    {
      "midi": 56,
      "hit": false,
      "t": 58285.65600000007,
      "d": 641.0707875000007,
      "v": 100
    },
    {
      "midi": 41,
      "hit": false,
      "t": 58928.51250000007,
      "d": 641.0707875000007,
      "v": 100
    },
    {
      "midi": 53,
      "hit": false,
      "t": 58928.51250000007,
      "d": 641.0707875000007,
      "v": 100
    },
    {
      "midi": 32,
      "hit": false,
      "t": 59571.36900000007,
      "d": 641.0707875000007,
      "v": 100
    },
    {
      "midi": 51,
      "hit": false,
      "t": 59571.36900000007,
      "d": 641.0707875000007,
      "v": 100
    },
    {
      "midi": 29,
      "hit": false,
      "t": 60214.22550000007,
      "d": 1069.641787499997,
      "v": 100
    },
    {
      "midi": 53,
      "hit": false,
      "t": 60214.22550000007,
      "d": 1069.641787499997,
      "v": 100
    },
    {
      "midi": 37,
      "hit": false,
      "t": 61714.22400000007,
      "d": 641.0707875000007,
      "v": 100
    },
    {
      "midi": 61,
      "hit": false,
      "t": 61714.22400000007,
      "d": 641.0707875000007,
      "v": 100
    },
    {
      "midi": 34,
      "hit": false,
      "t": 62357.08050000007,
      "d": 641.0707875000007,
      "v": 100
    },
    {
      "midi": 63,
      "hit": false,
      "t": 62357.08050000007,
      "d": 641.0707875000007,
      "v": 100
    },
    {
      "midi": 32,
      "hit": false,
      "t": 62999.93700000007,
      "d": 641.0707875000007,
      "v": 100
    },
    {
      "midi": 60,
      "hit": false,
      "t": 62999.93700000007,
      "d": 641.0707875000007,
      "v": 100
    },
    {
      "midi": 34,
      "hit": false,
      "t": 63642.79350000007,
      "d": 1069.641787499997,
      "v": 100
    },
    {
      "midi": 58,
      "hit": false,
      "t": 63642.79350000007,
      "d": 1069.641787499997,
      "v": 100
    },
    {
      "midi": 37,
      "hit": false,
      "t": 65142.79200000007,
      "d": 641.0707875000007,
      "v": 100
    },
    {
      "midi": 58,
      "hit": false,
      "t": 65142.79200000007,
      "d": 641.0707875000007,
      "v": 100
    },
    {
      "midi": 41,
      "hit": false,
      "t": 65785.64850000007,
      "d": 641.0707874999935,
      "v": 100
    },
    {
      "midi": 56,
      "hit": false,
      "t": 65785.64850000007,
      "d": 641.0707874999935,
      "v": 100
    },
    {
      "midi": 32,
      "hit": false,
      "t": 66428.50500000006,
      "d": 641.0707874999935,
      "v": 100
    },
    {
      "midi": 60,
      "hit": false,
      "t": 66428.50500000006,
      "d": 641.0707874999935,
      "v": 100
    },
    {
      "midi": 29,
      "hit": false,
      "t": 67071.36150000006,
      "d": 1069.6417875000043,
      "v": 100
    },
    {
      "midi": 53,
      "hit": false,
      "t": 67071.36150000006,
      "d": 1069.6417875000043,
      "v": 100
    }
  ]
}