{
  "jsonPath": "Unknown/Unknown/Pop Divas United/stickwitu-made-famous-by-the-pussycat-dolls.json",
  "path": "Unknown\\Unknown\\Pop Divas United\\Stickwitu (Made Famous by The Pussycat Dolls).mid",
  "name": "Stickwitu (Made Famous by The Pussycat Dolls)",
  "difficulty": "Advanced",
  "bpm": 80,
  "notes": [
    {
      "midi": 38,
      "hit": false,
      "t": 6000,
      "d": 1496.875,
      "v": 63
    },
    {
      "midi": 50,
      "hit": false,
      "t": 6000,
      "d": 1496.875,
      "v": 63
    },
    {
      "midi": 57,
      "hit": false,
      "t": 6000,
      "d": 1496.875,
      "v": 66
    },
    {
      "midi": 62,
      "hit": false,
      "t": 6000,
      "d": 1496.875,
      "v": 75
    },
    {
      "midi": 66,
      "hit": false,
      "t": 6000,
      "d": 1496.875,
      "v": 87
    },
    {
      "midi": 38,
      "hit": false,
      "t": 6000,
      "d": 1496.875,
      "v": 53
    },
    {
      "midi": 50,
      "hit": false,
      "t": 6000,
      "d": 1496.875,
      "v": 53
    },
    {
      "midi": 57,
      "hit": false,
      "t": 6000,
      "d": 1496.875,
      "v": 54
    },
    {
      "midi": 62,
      "hit": false,
      "t": 6000,
      "d": 1496.875,
      "v": 65
    },
    {
      "midi": 66,
      "hit": false,
      "t": 6000,
      "d": 1496.875,
      "v": 77
    },
    {
      "midi": 49,
      "hit": false,
      "t": 7500,
      "d": 1496.875,
      "v": 78
    },
    {
      "midi": 59,
      "hit": false,
      "t": 7500,
      "d": 1496.875,
      "v": 66
    },
    {
      "midi": 61,
      "hit": false,
      "t": 7500,
      "d": 1496.875,
      "v": 89
    },
    {
      "midi": 69,
      "hit": false,
      "t": 7500,
      "d": 1496.875,
      "v": 88
    },
    {
      "midi": 49,
      "hit": false,
      "t": 7500,
      "d": 1496.875,
      "v": 68
    },
    {
      "midi": 59,
      "hit": false,
      "t": 7500,
      "d": 1496.875,
      "v": 54
    },
    {
      "midi": 61,
      "hit": false,
      "t": 7500,
      "d": 1496.875,
      "v": 79
    },
    {
      "midi": 69,
      "hit": false,
      "t": 7500,
      "d": 1496.875,
      "v": 78
    },
    {
      "midi": 47,
      "hit": false,
      "t": 9000,
      "d": 1496.875,
      "v": 56
    },
    {
      "midi": 57,
      "hit": false,
      "t": 9000,
      "d": 1496.875,
      "v": 66
    },
    {
      "midi": 59,
      "hit": false,
      "t": 9000,
      "d": 1496.875,
      "v": 72
    },
    {
      "midi": 62,
      "hit": false,
      "t": 9000,
      "d": 1496.875,
      "v": 82
    },
    {
      "midi": 69,
      "hit": false,
      "t": 9000,
      "d": 1496.875,
      "v": 80
    },
    {
      "midi": 47,
      "hit": false,
      "t": 9000,
      "d": 1496.875,
      "v": 46
    },
    {
      "midi": 57,
      "hit": false,
      "t": 9000,
      "d": 1496.875,
      "v": 54
    },
    {
      "midi": 59,
      "hit": false,
      "t": 9000,
      "d": 1496.875,
      "v": 62
    },
    {
      "midi": 62,
      "hit": false,
      "t": 9000,
      "d": 1496.875,
      "v": 72
    },
    {
      "midi": 69,
      "hit": false,
      "t": 9000,
      "d": 1496.875,
      "v": 70
    },
    {
      "midi": 45,
      "hit": false,
      "t": 10500,
      "d": 371.875,
      "v": 64
    },
    {
      "midi": 55,
      "hit": false,
      "t": 10500,
      "d": 371.875,
      "v": 66
    },
    {
      "midi": 57,
      "hit": false,
      "t": 10500,
      "d": 371.875,
      "v": 56
    },
    {
      "midi": 61,
      "hit": false,
      "t": 10500,
      "d": 371.875,
      "v": 104
    },
    {
      "midi": 45,
      "hit": false,
      "t": 10500,
      "d": 371.875,
      "v": 54
    },
    {
      "midi": 55,
      "hit": false,
      "t": 10500,
      "d": 371.875,
      "v": 54
    },
    {
      "midi": 57,
      "hit": false,
      "t": 10500,
      "d": 371.875,
      "v": 46
    },
    {
      "midi": 61,
      "hit": false,
      "t": 10500,
      "d": 371.875,
      "v": 94
    },
    {
      "midi": 47,
      "hit": false,
      "t": 10875,
      "d": 371.875,
      "v": 46
    },
    {
      "midi": 59,
      "hit": false,
      "t": 10875,
      "d": 371.875,
      "v": 77
    },
    {
      "midi": 62,
      "hit": false,
      "t": 10875,
      "d": 371.875,
      "v": 81
    },
    {
      "midi": 57,
      "hit": false,
      "t": 10875,
      "d": 1121.875,
      "v": 66
    },
    {
      "midi": 47,
      "hit": false,
      "t": 10875,
      "d": 371.875,
      "v": 36
    },
    {
      "midi": 59,
      "hit": false,
      "t": 10875,
      "d": 371.875,
      "v": 67
    },
    {
      "midi": 62,
      "hit": false,
      "t": 10875,
      "d": 371.875,
      "v": 71
    },
    {
      "midi": 57,
      "hit": false,
      "t": 10875,
      "d": 1121.875,
      "v": 54
    },
    {
      "midi": 49,
      "hit": false,
      "t": 11250,
      "d": 746.875,
      "v": 48
    },
    {
      "midi": 61,
      "hit": false,
      "t": 11250,
      "d": 746.875,
      "v": 87
    },
    {
      "midi": 64,
      "hit": false,
      "t": 11250,
      "d": 746.875,
      "v": 84
    },
    {
      "midi": 49,
      "hit": false,
      "t": 11250,
      "d": 746.875,
      "v": 38
    },
    {
      "midi": 61,
      "hit": false,
      "t": 11250,
      "d": 746.875,
      "v": 77
    },
    {
      "midi": 64,
      "hit": false,
      "t": 11250,
      "d": 746.875,
      "v": 74
    },
    {
      "midi": 38,
      "hit": false,
      "t": 12000,
      "d": 1496.875,
      "v": 69
    },
    {
      "midi": 50,
      "hit": false,
      "t": 12000,
      "d": 1496.875,
      "v": 56
    },
    {
      "midi": 57,
      "hit": false,
      "t": 12000,
      "d": 1496.875,
      "v": 66
    },
    {
      "midi": 62,
      "hit": false,
      "t": 12000,
      "d": 1496.875,
      "v": 78
    },
    {
      "midi": 66,
      "hit": false,
      "t": 12000,
      "d": 1496.875,
      "v": 94
    },
    {
      "midi": 38,
      "hit": false,
      "t": 12000,
      "d": 1496.875,
      "v": 59
    },
    {
      "midi": 50,
      "hit": false,
      "t": 12000,
      "d": 1496.875,
      "v": 46
    },
    {
      "midi": 57,
      "hit": false,
      "t": 12000,
      "d": 1496.875,
      "v": 54
    },
    {
      "midi": 62,
      "hit": false,
      "t": 12000,
      "d": 1496.875,
      "v": 68
    },
    {
      "midi": 66,
      "hit": false,
      "t": 12000,
      "d": 1496.875,
      "v": 84
    },
    {
      "midi": 49,
      "hit": false,
      "t": 13500,
      "d": 1496.875,
      "v": 78
    },
    {
      "midi": 59,
      "hit": false,
      "t": 13500,
      "d": 1496.875,
      "v": 66
    },
    {
      "midi": 61,
      "hit": false,
      "t": 13500,
      "d": 1496.875,
      "v": 85
    },
    {
      "midi": 69,
      "hit": false,
      "t": 13500,
      "d": 1496.875,
      "v": 86
    },
    {
      "midi": 49,
      "hit": false,
      "t": 13500,
      "d": 1496.875,
      "v": 68
    },
    {
      "midi": 59,
      "hit": false,
      "t": 13500,
      "d": 1496.875,
      "v": 54
    },
    {
      "midi": 61,
      "hit": false,
      "t": 13500,
      "d": 1496.875,
      "v": 75
    },
    {
      "midi": 69,
      "hit": false,
      "t": 13500,
      "d": 1496.875,
      "v": 76
    },
    {
      "midi": 47,
      "hit": false,
      "t": 15000,
      "d": 1496.875,
      "v": 54
    },
    {
      "midi": 57,
      "hit": false,
      "t": 15000,
      "d": 1496.875,
      "v": 66
    },
    {
      "midi": 59,
      "hit": false,
      "t": 15000,
      "d": 1496.875,
      "v": 75
    },
    {
      "midi": 62,
      "hit": false,
      "t": 15000,
      "d": 1496.875,
      "v": 79
    },
    {
      "midi": 69,
      "hit": false,
      "t": 15000,
      "d": 1496.875,
      "v": 86
    },
    {
      "midi": 47,
      "hit": false,
      "t": 15000,
      "d": 1496.875,
      "v": 44
    },
    {
      "midi": 57,
      "hit": false,
      "t": 15000,
      "d": 1496.875,
      "v": 54
    },
    {
      "midi": 59,
      "hit": false,
      "t": 15000,
      "d": 1496.875,
      "v": 65
    },
    {
      "midi": 62,
      "hit": false,
      "t": 15000,
      "d": 1496.875,
      "v": 69
    },
    {
      "midi": 69,
      "hit": false,
      "t": 15000,
      "d": 1496.875,
      "v": 76
    },
    {
      "midi": 45,
      "hit": false,
      "t": 16500,
      "d": 371.875,
      "v": 62
    },
    {
      "midi": 55,
      "hit": false,
      "t": 16500,
      "d": 371.875,
      "v": 54
    },
    {
      "midi": 57,
      "hit": false,
      "t": 16500,
      "d": 371.875,
      "v": 72
    },
    {
      "midi": 61,
      "hit": false,
      "t": 16500,
      "d": 371.875,
      "v": 82
    },
    {
      "midi": 45,
      "hit": false,
      "t": 16500,
      "d": 371.875,
      "v": 52
    },
    {
      "midi": 55,
      "hit": false,
      "t": 16500,
      "d": 371.875,
      "v": 54
    },
    {
      "midi": 57,
      "hit": false,
      "t": 16500,
      "d": 371.875,
      "v": 62
    },
    {
      "midi": 61,
      "hit": false,
      "t": 16500,
      "d": 371.875,
      "v": 72
    },
    {
      "midi": 47,
      "hit": false,
      "t": 16875,
      "d": 371.875,
      "v": 40
    },
    {
      "midi": 59,
      "hit": false,
      "t": 16875,
      "d": 371.875,
      "v": 66
    },
    {
      "midi": 62,
      "hit": false,
      "t": 16875,
      "d": 371.875,
      "v": 74
    },
    {
      "midi": 57,
      "hit": false,
      "t": 16875,
      "d": 746.875,
      "v": 54
    },
    {
      "midi": 47,
      "hit": false,
      "t": 16875,
      "d": 371.875,
      "v": 30
    },
    {
      "midi": 59,
      "hit": false,
      "t": 16875,
      "d": 371.875,
      "v": 56
    },
    {
      "midi": 62,
      "hit": false,
      "t": 16875,
      "d": 371.875,
      "v": 64
    },
    {
      "midi": 57,
      "hit": false,
      "t": 16875,
      "d": 746.875,
      "v": 54
    },
    {
      "midi": 49,
      "hit": false,
      "t": 17250,
      "d": 371.875,
      "v": 66
    },
    {
      "midi": 61,
      "hit": false,
      "t": 17250,
      "d": 371.875,
      "v": 88
    },
    {
      "midi": 64,
      "hit": false,
      "t": 17250,
      "d": 371.875,
      "v": 87
    },
    {
      "midi": 49,
      "hit": false,
      "t": 17250,
      "d": 371.875,
      "v": 56
    },
    {
      "midi": 61,
      "hit": false,
      "t": 17250,
      "d": 371.875,
      "v": 78
    },
    {
      "midi": 64,
      "hit": false,
      "t": 17250,
      "d": 371.875,
      "v": 77
    },
    {
      "midi": 38,
      "hit": false,
      "t": 18000,
      "d": 1496.875,
      "v": 63
    },
    {
      "midi": 50,
      "hit": false,
      "t": 18000,
      "d": 1496.875,
      "v": 63
    },
    {
      "midi": 57,
      "hit": false,
      "t": 18000,
      "d": 1496.875,
      "v": 66
    },
    {
      "midi": 62,
      "hit": false,
      "t": 18000,
      "d": 1496.875,
      "v": 75
    },
    {
      "midi": 66,
      "hit": false,
      "t": 18000,
      "d": 1496.875,
      "v": 87
    },
    {
      "midi": 38,
      "hit": false,
      "t": 18000,
      "d": 1496.875,
      "v": 53
    },
    {
      "midi": 50,
      "hit": false,
      "t": 18000,
      "d": 1496.875,
      "v": 53
    },
    {
      "midi": 57,
      "hit": false,
      "t": 18000,
      "d": 1496.875,
      "v": 54
    },
    {
      "midi": 62,
      "hit": false,
      "t": 18000,
      "d": 1496.875,
      "v": 65
    },
    {
      "midi": 66,
      "hit": false,
      "t": 18000,
      "d": 1496.875,
      "v": 77
    },
    {
      "midi": 49,
      "hit": false,
      "t": 19500,
      "d": 1496.875,
      "v": 78
    },
    {
      "midi": 59,
      "hit": false,
      "t": 19500,
      "d": 1496.875,
      "v": 66
    },
    {
      "midi": 61,
      "hit": false,
      "t": 19500,
      "d": 1496.875,
      "v": 89
    },
    {
      "midi": 69,
      "hit": false,
      "t": 19500,
      "d": 1496.875,
      "v": 88
    },
    {
      "midi": 49,
      "hit": false,
      "t": 19500,
      "d": 1496.875,
      "v": 68
    },
    {
      "midi": 59,
      "hit": false,
      "t": 19500,
      "d": 1496.875,
      "v": 54
    },
    {
      "midi": 61,
      "hit": false,
      "t": 19500,
      "d": 1496.875,
      "v": 79
    },
    {
      "midi": 69,
      "hit": false,
      "t": 19500,
      "d": 1496.875,
      "v": 78
    },
    {
      "midi": 47,
      "hit": false,
      "t": 21000,
      "d": 1496.875,
      "v": 56
    },
    {
      "midi": 57,
      "hit": false,
      "t": 21000,
      "d": 1496.875,
      "v": 66
    },
    {
      "midi": 59,
      "hit": false,
      "t": 21000,
      "d": 1496.875,
      "v": 72
    },
    {
      "midi": 62,
      "hit": false,
      "t": 21000,
      "d": 1496.875,
      "v": 82
    },
    {
      "midi": 69,
      "hit": false,
      "t": 21000,
      "d": 1496.875,
      "v": 80
    },
    {
      "midi": 47,
      "hit": false,
      "t": 21000,
      "d": 1496.875,
      "v": 46
    },
    {
      "midi": 57,
      "hit": false,
      "t": 21000,
      "d": 1496.875,
      "v": 54
    },
    {
      "midi": 59,
      "hit": false,
      "t": 21000,
      "d": 1496.875,
      "v": 62
    },
    {
      "midi": 62,
      "hit": false,
      "t": 21000,
      "d": 1496.875,
      "v": 72
    },
    {
      "midi": 69,
      "hit": false,
      "t": 21000,
      "d": 1496.875,
      "v": 70
    },
    {
      "midi": 45,
      "hit": false,
      "t": 22500,
      "d": 371.875,
      "v": 64
    },
    {
      "midi": 55,
      "hit": false,
      "t": 22500,
      "d": 371.875,
      "v": 66
    },
    {
      "midi": 57,
      "hit": false,
      "t": 22500,
      "d": 371.875,
      "v": 56
    },
    {
      "midi": 61,
      "hit": false,
      "t": 22500,
      "d": 371.875,
      "v": 104
    },
    {
      "midi": 45,
      "hit": false,
      "t": 22500,
      "d": 371.875,
      "v": 54
    },
    {
      "midi": 55,
      "hit": false,
      "t": 22500,
      "d": 371.875,
      "v": 54
    },
    {
      "midi": 57,
      "hit": false,
      "t": 22500,
      "d": 371.875,
      "v": 46
    },
    {
      "midi": 61,
      "hit": false,
      "t": 22500,
      "d": 371.875,
      "v": 94
    },
    {
      "midi": 47,
      "hit": false,
      "t": 22875,
      "d": 371.875,
      "v": 46
    },
    {
      "midi": 59,
      "hit": false,
      "t": 22875,
      "d": 371.875,
      "v": 77
    },
    {
      "midi": 62,
      "hit": false,
      "t": 22875,
      "d": 371.875,
      "v": 81
    },
    {
      "midi": 57,
      "hit": false,
      "t": 22875,
      "d": 1121.875,
      "v": 66
    },
    {
      "midi": 47,
      "hit": false,
      "t": 22875,
      "d": 371.875,
      "v": 36
    },
    {
      "midi": 59,
      "hit": false,
      "t": 22875,
      "d": 371.875,
      "v": 67
    },
    {
      "midi": 62,
      "hit": false,
      "t": 22875,
      "d": 371.875,
      "v": 71
    },
    {
      "midi": 57,
      "hit": false,
      "t": 22875,
      "d": 1121.875,
      "v": 54
    },
    {
      "midi": 49,
      "hit": false,
      "t": 23250,
      "d": 746.875,
      "v": 48
    },
    {
      "midi": 61,
      "hit": false,
      "t": 23250,
      "d": 746.875,
      "v": 87
    },
    {
      "midi": 64,
      "hit": false,
      "t": 23250,
      "d": 746.875,
      "v": 84
    },
    {
      "midi": 49,
      "hit": false,
      "t": 23250,
      "d": 746.875,
      "v": 38
    },
    {
      "midi": 61,
      "hit": false,
      "t": 23250,
      "d": 746.875,
      "v": 77
    },
    {
      "midi": 64,
      "hit": false,
      "t": 23250,
      "d": 746.875,
      "v": 74
    },
    {
      "midi": 38,
      "hit": false,
      "t": 24000,
      "d": 1496.875,
      "v": 69
    },
    {
      "midi": 50,
      "hit": false,
      "t": 24000,
      "d": 1496.875,
      "v": 56
    },
    {
      "midi": 57,
      "hit": false,
      "t": 24000,
      "d": 1496.875,
      "v": 66
    },
    {
      "midi": 62,
      "hit": false,
      "t": 24000,
      "d": 1496.875,
      "v": 78
    },
    {
      "midi": 66,
      "hit": false,
      "t": 24000,
      "d": 1496.875,
      "v": 94
    },
    {
      "midi": 38,
      "hit": false,
      "t": 24000,
      "d": 1496.875,
      "v": 59
    },
    {
      "midi": 50,
      "hit": false,
      "t": 24000,
      "d": 1496.875,
      "v": 46
    },
    {
      "midi": 57,
      "hit": false,
      "t": 24000,
      "d": 1496.875,
      "v": 54
    },
    {
      "midi": 62,
      "hit": false,
      "t": 24000,
      "d": 1496.875,
      "v": 68
    },
    {
      "midi": 66,
      "hit": false,
      "t": 24000,
      "d": 1496.875,
      "v": 84
    },
    {
      "midi": 49,
      "hit": false,
      "t": 25500,
      "d": 1496.875,
      "v": 78
    },
    {
      "midi": 59,
      "hit": false,
      "t": 25500,
      "d": 1496.875,
      "v": 66
    },
    {
      "midi": 61,
      "hit": false,
      "t": 25500,
      "d": 1496.875,
      "v": 85
    },
    {
      "midi": 69,
      "hit": false,
      "t": 25500,
      "d": 1496.875,
      "v": 86
    },
    {
      "midi": 49,
      "hit": false,
      "t": 25500,
      "d": 1496.875,
      "v": 68
    },
    {
      "midi": 59,
      "hit": false,
      "t": 25500,
      "d": 1496.875,
      "v": 54
    },
    {
      "midi": 61,
      "hit": false,
      "t": 25500,
      "d": 1496.875,
      "v": 75
    },
    {
      "midi": 69,
      "hit": false,
      "t": 25500,
      "d": 1496.875,
      "v": 76
    },
    {
      "midi": 47,
      "hit": false,
      "t": 27000,
      "d": 1496.875,
      "v": 54
    },
    {
      "midi": 57,
      "hit": false,
      "t": 27000,
      "d": 1496.875,
      "v": 66
    },
    {
      "midi": 62,
      "hit": false,
      "t": 27000,
      "d": 1500,
      "v": 74
    },
    {
      "midi": 66,
      "hit": false,
      "t": 27000,
      "d": 1500,
      "v": 71
    },
    {
      "midi": 59,
      "hit": false,
      "t": 27000,
      "d": 1531.25,
      "v": 52
    },
    {
      "midi": 47,
      "hit": false,
      "t": 27000,
      "d": 1496.875,
      "v": 44
    },
    {
      "midi": 57,
      "hit": false,
      "t": 27000,
      "d": 1496.875,
      "v": 54
    },
    {
      "midi": 62,
      "hit": false,
      "t": 27000,
      "d": 1500,
      "v": 64
    },
    {
      "midi": 66,
      "hit": false,
      "t": 27000,
      "d": 1500,
      "v": 61
    },
    {
      "midi": 59,
      "hit": false,
      "t": 27000,
      "d": 1531.25,
      "v": 42
    },
    {
      "midi": 45,
      "hit": false,
      "t": 28500,
      "d": 371.875,
      "v": 62
    },
    {
      "midi": 57,
      "hit": false,
      "t": 28500,
      "d": 1496.875,
      "v": 50
    },
    {
      "midi": 61,
      "hit": false,
      "t": 28500,
      "d": 1496.875,
      "v": 77
    },
    {
      "midi": 64,
      "hit": false,
      "t": 28500,
      "d": 1496.875,
      "v": 68
    },
    {
      "midi": 45,
      "hit": false,
      "t": 28500,
      "d": 371.875,
      "v": 52
    },
    {
      "midi": 57,
      "hit": false,
      "t": 28500,
      "d": 1496.875,
      "v": 40
    },
    {
      "midi": 61,
      "hit": false,
      "t": 28500,
      "d": 1496.875,
      "v": 67
    },
    {
      "midi": 64,
      "hit": false,
      "t": 28500,
      "d": 1496.875,
      "v": 58
    },
    {
      "midi": 47,
      "hit": false,
      "t": 28875,
      "d": 371.875,
      "v": 40
    },
    {
      "midi": 47,
      "hit": false,
      "t": 28875,
      "d": 371.875,
      "v": 30
    },
    {
      "midi": 49,
      "hit": false,
      "t": 29250,
      "d": 371.875,
      "v": 66
    },
    {
      "midi": 49,
      "hit": false,
      "t": 29250,
      "d": 371.875,
      "v": 56
    },
    {
      "midi": 38,
      "hit": false,
      "t": 30000,
      "d": 1496.875,
      "v": 63
    },
    {
      "midi": 50,
      "hit": false,
      "t": 30000,
      "d": 1496.875,
      "v": 63
    },
    {
      "midi": 57,
      "hit": false,
      "t": 30000,
      "d": 1496.875,
      "v": 66
    },
    {
      "midi": 62,
      "hit": false,
      "t": 30000,
      "d": 1496.875,
      "v": 75
    },
    {
      "midi": 66,
      "hit": false,
      "t": 30000,
      "d": 1496.875,
      "v": 87
    },
    {
      "midi": 38,
      "hit": false,
      "t": 30000,
      "d": 1496.875,
      "v": 53
    },
    {
      "midi": 50,
      "hit": false,
      "t": 30000,
      "d": 1496.875,
      "v": 53
    },
    {
      "midi": 57,
      "hit": false,
      "t": 30000,
      "d": 1496.875,
      "v": 54
    },
    {
      "midi": 62,
      "hit": false,
      "t": 30000,
      "d": 1496.875,
      "v": 65
    },
    {
      "midi": 66,
      "hit": false,
      "t": 30000,
      "d": 1496.875,
      "v": 77
    },
    {
      "midi": 49,
      "hit": false,
      "t": 31500,
      "d": 1496.875,
      "v": 78
    },
    {
      "midi": 59,
      "hit": false,
      "t": 31500,
      "d": 1496.875,
      "v": 66
    },
    {
      "midi": 61,
      "hit": false,
      "t": 31500,
      "d": 1496.875,
      "v": 89
    },
    {
      "midi": 69,
      "hit": false,
      "t": 31500,
      "d": 1496.875,
      "v": 88
    },
    {
      "midi": 49,
      "hit": false,
      "t": 31500,
      "d": 1496.875,
      "v": 68
    },
    {
      "midi": 59,
      "hit": false,
      "t": 31500,
      "d": 1496.875,
      "v": 54
    },
    {
      "midi": 61,
      "hit": false,
      "t": 31500,
      "d": 1496.875,
      "v": 79
    },
    {
      "midi": 69,
      "hit": false,
      "t": 31500,
      "d": 1496.875,
      "v": 78
    },
    {
      "midi": 47,
      "hit": false,
      "t": 33000,
      "d": 1496.875,
      "v": 56
    },
    {
      "midi": 57,
      "hit": false,
      "t": 33000,
      "d": 1496.875,
      "v": 66
    },
    {
      "midi": 59,
      "hit": false,
      "t": 33000,
      "d": 1496.875,
      "v": 72
    },
    {
      "midi": 62,
      "hit": false,
      "t": 33000,
      "d": 1496.875,
      "v": 82
    },
    {
      "midi": 69,
      "hit": false,
      "t": 33000,
      "d": 1496.875,
      "v": 80
    },
    {
      "midi": 47,
      "hit": false,
      "t": 33000,
      "d": 1496.875,
      "v": 46
    },
    {
      "midi": 57,
      "hit": false,
      "t": 33000,
      "d": 1496.875,
      "v": 54
    },
    {
      "midi": 59,
      "hit": false,
      "t": 33000,
      "d": 1496.875,
      "v": 62
    },
    {
      "midi": 62,
      "hit": false,
      "t": 33000,
      "d": 1496.875,
      "v": 72
    },
    {
      "midi": 69,
      "hit": false,
      "t": 33000,
      "d": 1496.875,
      "v": 70
    },
    {
      "midi": 45,
      "hit": false,
      "t": 34500,
      "d": 371.875,
      "v": 64
    },
    {
      "midi": 55,
      "hit": false,
      "t": 34500,
      "d": 371.875,
      "v": 66
    },
    {
      "midi": 57,
      "hit": false,
      "t": 34500,
      "d": 371.875,
      "v": 56
    },
    {
      "midi": 61,
      "hit": false,
      "t": 34500,
      "d": 371.875,
      "v": 104
    },
    {
      "midi": 45,
      "hit": false,
      "t": 34500,
      "d": 371.875,
      "v": 54
    },
    {
      "midi": 55,
      "hit": false,
      "t": 34500,
      "d": 371.875,
      "v": 54
    },
    {
      "midi": 57,
      "hit": false,
      "t": 34500,
      "d": 371.875,
      "v": 46
    },
    {
      "midi": 61,
      "hit": false,
      "t": 34500,
      "d": 371.875,
      "v": 94
    },
    {
      "midi": 47,
      "hit": false,
      "t": 34875,
      "d": 371.875,
      "v": 46
    },
    {
      "midi": 59,
      "hit": false,
      "t": 34875,
      "d": 371.875,
      "v": 77
    },
    {
      "midi": 62,
      "hit": false,
      "t": 34875,
      "d": 371.875,
      "v": 81
    },
    {
      "midi": 57,
      "hit": false,
      "t": 34875,
      "d": 1121.875,
      "v": 66
    },
    {
      "midi": 47,
      "hit": false,
      "t": 34875,
      "d": 371.875,
      "v": 36
    },
    {
      "midi": 59,
      "hit": false,
      "t": 34875,
      "d": 371.875,
      "v": 67
    },
    {
      "midi": 62,
      "hit": false,
      "t": 34875,
      "d": 371.875,
      "v": 71
    },
    {
      "midi": 57,
      "hit": false,
      "t": 34875,
      "d": 1121.875,
      "v": 54
    },
    {
      "midi": 49,
      "hit": false,
      "t": 35250,
      "d": 746.875,
      "v": 48
    },
    {
      "midi": 61,
      "hit": false,
      "t": 35250,
      "d": 746.875,
      "v": 87
    },
    {
      "midi": 64,
      "hit": false,
      "t": 35250,
      "d": 746.875,
      "v": 84
    },
    {
      "midi": 49,
      "hit": false,
      "t": 35250,
      "d": 746.875,
      "v": 38
    },
    {
      "midi": 61,
      "hit": false,
      "t": 35250,
      "d": 746.875,
      "v": 77
    },
    {
      "midi": 64,
      "hit": false,
      "t": 35250,
      "d": 746.875,
      "v": 74
    },
    {
      "midi": 38,
      "hit": false,
      "t": 36000,
      "d": 1496.875,
      "v": 69
    },
    {
      "midi": 50,
      "hit": false,
      "t": 36000,
      "d": 1496.875,
      "v": 56
    },
    {
      "midi": 57,
      "hit": false,
      "t": 36000,
      "d": 1496.875,
      "v": 66
    },
    {
      "midi": 62,
      "hit": false,
      "t": 36000,
      "d": 1496.875,
      "v": 78
    },
    {
      "midi": 66,
      "hit": false,
      "t": 36000,
      "d": 1496.875,
      "v": 94
    },
    {
      "midi": 38,
      "hit": false,
      "t": 36000,
      "d": 1496.875,
      "v": 59
    },
    {
      "midi": 50,
      "hit": false,
      "t": 36000,
      "d": 1496.875,
      "v": 46
    },
    {
      "midi": 57,
      "hit": false,
      "t": 36000,
      "d": 1496.875,
      "v": 54
    },
    {
      "midi": 62,
      "hit": false,
      "t": 36000,
      "d": 1496.875,
      "v": 68
    },
    {
      "midi": 66,
      "hit": false,
      "t": 36000,
      "d": 1496.875,
      "v": 84
    },
    {
      "midi": 49,
      "hit": false,
      "t": 37500,
      "d": 1496.875,
      "v": 78
    },
    {
      "midi": 59,
      "hit": false,
      "t": 37500,
      "d": 1496.875,
      "v": 66
    },
    {
      "midi": 61,
      "hit": false,
      "t": 37500,
      "d": 1496.875,
      "v": 85
    },
    {
      "midi": 69,
      "hit": false,
      "t": 37500,
      "d": 1496.875,
      "v": 86
    },
    {
      "midi": 49,
      "hit": false,
      "t": 37500,
      "d": 1496.875,
      "v": 68
    },
    {
      "midi": 59,
      "hit": false,
      "t": 37500,
      "d": 1496.875,
      "v": 54
    },
    {
      "midi": 61,
      "hit": false,
      "t": 37500,
      "d": 1496.875,
      "v": 75
    },
    {
      "midi": 69,
      "hit": false,
      "t": 37500,
      "d": 1496.875,
      "v": 76
    },
    {
      "midi": 59,
      "hit": false,
      "t": 39000,
      "d": 1121.875,
      "v": 75
    },
    {
      "midi": 62,
      "hit": false,
      "t": 39000,
      "d": 1121.875,
      "v": 79
    },
    {
      "midi": 69,
      "hit": false,
      "t": 39000,
      "d": 1121.875,
      "v": 86
    },
    {
      "midi": 47,
      "hit": false,
      "t": 39000,
      "d": 1496.875,
      "v": 54
    },
    {
      "midi": 57,
      "hit": false,
      "t": 39000,
      "d": 1496.875,
      "v": 66
    },
    {
      "midi": 59,
      "hit": false,
      "t": 39000,
      "d": 1121.875,
      "v": 65
    },
    {
      "midi": 62,
      "hit": false,
      "t": 39000,
      "d": 1121.875,
      "v": 69
    },
    {
      "midi": 69,
      "hit": false,
      "t": 39000,
      "d": 1121.875,
      "v": 76
    },
    {
      "midi": 47,
      "hit": false,
      "t": 39000,
      "d": 1496.875,
      "v": 44
    },
    {
      "midi": 57,
      "hit": false,
      "t": 39000,
      "d": 1496.875,
      "v": 54
    },
    {
      "midi": 45,
      "hit": false,
      "t": 40500,
      "d": 1496.875,
      "v": 77
    },
    {
      "midi": 57,
      "hit": false,
      "t": 40500,
      "d": 1496.875,
      "v": 53
    },
    {
      "midi": 61,
      "hit": false,
      "t": 40500,
      "d": 1496.875,
      "v": 79
    },
    {
      "midi": 64,
      "hit": false,
      "t": 40500,
      "d": 1496.875,
      "v": 79
    },
    {
      "midi": 45,
      "hit": false,
      "t": 40500,
      "d": 1496.875,
      "v": 67
    },
    {
      "midi": 57,
      "hit": false,
      "t": 40500,
      "d": 1496.875,
      "v": 43
    },
    {
      "midi": 61,
      "hit": false,
      "t": 40500,
      "d": 1496.875,
      "v": 69
    },
    {
      "midi": 64,
      "hit": false,
      "t": 40500,
      "d": 1496.875,
      "v": 69
    },
    {
      "midi": 38,
      "hit": false,
      "t": 42000,
      "d": 1496.875,
      "v": 63
    },
    {
      "midi": 50,
      "hit": false,
      "t": 42000,
      "d": 1496.875,
      "v": 63
    },
    {
      "midi": 57,
      "hit": false,
      "t": 42000,
      "d": 1496.875,
      "v": 66
    },
    {
      "midi": 62,
      "hit": false,
      "t": 42000,
      "d": 1496.875,
      "v": 75
    },
    {
      "midi": 66,
      "hit": false,
      "t": 42000,
      "d": 1496.875,
      "v": 87
    },
    {
      "midi": 38,
      "hit": false,
      "t": 42000,
      "d": 1496.875,
      "v": 53
    },
    {
      "midi": 50,
      "hit": false,
      "t": 42000,
      "d": 1496.875,
      "v": 53
    },
    {
      "midi": 57,
      "hit": false,
      "t": 42000,
      "d": 1496.875,
      "v": 54
    },
    {
      "midi": 62,
      "hit": false,
      "t": 42000,
      "d": 1496.875,
      "v": 65
    },
    {
      "midi": 66,
      "hit": false,
      "t": 42000,
      "d": 1496.875,
      "v": 77
    },
    {
      "midi": 49,
      "hit": false,
      "t": 43500,
      "d": 1496.875,
      "v": 78
    },
    {
      "midi": 59,
      "hit": false,
      "t": 43500,
      "d": 1496.875,
      "v": 66
    },
    {
      "midi": 61,
      "hit": false,
      "t": 43500,
      "d": 1496.875,
      "v": 89
    },
    {
      "midi": 69,
      "hit": false,
      "t": 43500,
      "d": 1496.875,
      "v": 88
    },
    {
      "midi": 49,
      "hit": false,
      "t": 43500,
      "d": 1496.875,
      "v": 68
    },
    {
      "midi": 59,
      "hit": false,
      "t": 43500,
      "d": 1496.875,
      "v": 54
    },
    {
      "midi": 61,
      "hit": false,
      "t": 43500,
      "d": 1496.875,
      "v": 79
    },
    {
      "midi": 69,
      "hit": false,
      "t": 43500,
      "d": 1496.875,
      "v": 78
    },
    {
      "midi": 47,
      "hit": false,
      "t": 45000,
      "d": 1496.875,
      "v": 56
    },
    {
      "midi": 57,
      "hit": false,
      "t": 45000,
      "d": 1496.875,
      "v": 66
    },
    {
      "midi": 59,
      "hit": false,
      "t": 45000,
      "d": 1496.875,
      "v": 72
    },
    {
      "midi": 62,
      "hit": false,
      "t": 45000,
      "d": 1496.875,
      "v": 82
    },
    {
      "midi": 69,
      "hit": false,
      "t": 45000,
      "d": 1496.875,
      "v": 80
    },
    {
      "midi": 47,
      "hit": false,
      "t": 45000,
      "d": 1496.875,
      "v": 46
    },
    {
      "midi": 57,
      "hit": false,
      "t": 45000,
      "d": 1496.875,
      "v": 54
    },
    {
      "midi": 59,
      "hit": false,
      "t": 45000,
      "d": 1496.875,
      "v": 62
    },
    {
      "midi": 62,
      "hit": false,
      "t": 45000,
      "d": 1496.875,
      "v": 72
    },
    {
      "midi": 69,
      "hit": false,
      "t": 45000,
      "d": 1496.875,
      "v": 70
    },
    {
      "midi": 45,
      "hit": false,
      "t": 46500,
      "d": 371.875,
      "v": 64
    },
    {
      "midi": 55,
      "hit": false,
      "t": 46500,
      "d": 371.875,
      "v": 66
    },
    {
      "midi": 57,
      "hit": false,
      "t": 46500,
      "d": 371.875,
      "v": 56
    },
    {
      "midi": 61,
      "hit": false,
      "t": 46500,
      "d": 371.875,
      "v": 104
    },
    {
      "midi": 45,
      "hit": false,
      "t": 46500,
      "d": 371.875,
      "v": 54
    },
    {
      "midi": 55,
      "hit": false,
      "t": 46500,
      "d": 371.875,
      "v": 54
    },
    {
      "midi": 57,
      "hit": false,
      "t": 46500,
      "d": 371.875,
      "v": 46
    },
    {
      "midi": 61,
      "hit": false,
      "t": 46500,
      "d": 371.875,
      "v": 94
    },
    {
      "midi": 47,
      "hit": false,
      "t": 46875,
      "d": 371.875,
      "v": 46
    },
    {
      "midi": 59,
      "hit": false,
      "t": 46875,
      "d": 371.875,
      "v": 77
    },
    {
      "midi": 62,
      "hit": false,
      "t": 46875,
      "d": 371.875,
      "v": 81
    },
    {
      "midi": 57,
      "hit": false,
      "t": 46875,
      "d": 1121.875,
      "v": 66
    },
    {
      "midi": 47,
      "hit": false,
      "t": 46875,
      "d": 371.875,
      "v": 36
    },
    {
      "midi": 59,
      "hit": false,
      "t": 46875,
      "d": 371.875,
      "v": 67
    },
    {
      "midi": 62,
      "hit": false,
      "t": 46875,
      "d": 371.875,
      "v": 71
    },
    {
      "midi": 57,
      "hit": false,
      "t": 46875,
      "d": 1121.875,
      "v": 54
    },
    {
      "midi": 49,
      "hit": false,
      "t": 47250,
      "d": 746.875,
      "v": 48
    },
    {
      "midi": 61,
      "hit": false,
      "t": 47250,
      "d": 746.875,
      "v": 87
    },
    {
      "midi": 64,
      "hit": false,
      "t": 47250,
      "d": 746.875,
      "v": 84
    },
    {
      "midi": 49,
      "hit": false,
      "t": 47250,
      "d": 746.875,
      "v": 38
    },
    {
      "midi": 61,
      "hit": false,
      "t": 47250,
      "d": 746.875,
      "v": 77
    },
    {
      "midi": 64,
      "hit": false,
      "t": 47250,
      "d": 746.875,
      "v": 74
    },
    {
      "midi": 38,
      "hit": false,
      "t": 48000,
      "d": 1496.875,
      "v": 69
    },
    {
      "midi": 50,
      "hit": false,
      "t": 48000,
      "d": 1496.875,
      "v": 56
    },
    {
      "midi": 57,
      "hit": false,
      "t": 48000,
      "d": 1496.875,
      "v": 66
    },
    {
      "midi": 62,
      "hit": false,
      "t": 48000,
      "d": 1496.875,
      "v": 78
    },
    {
      "midi": 66,
      "hit": false,
      "t": 48000,
      "d": 1496.875,
      "v": 94
    },
    {
      "midi": 38,
      "hit": false,
      "t": 48000,
      "d": 1496.875,
      "v": 59
    },
    {
      "midi": 50,
      "hit": false,
      "t": 48000,
      "d": 1496.875,
      "v": 46
    },
    {
      "midi": 57,
      "hit": false,
      "t": 48000,
      "d": 1496.875,
      "v": 54
    },
    {
      "midi": 62,
      "hit": false,
      "t": 48000,
      "d": 1496.875,
      "v": 68
    },
    {
      "midi": 66,
      "hit": false,
      "t": 48000,
      "d": 1496.875,
      "v": 84
    },
    {
      "midi": 49,
      "hit": false,
      "t": 49500,
      "d": 1496.875,
      "v": 78
    },
    {
      "midi": 59,
      "hit": false,
      "t": 49500,
      "d": 1496.875,
      "v": 66
    },
    {
      "midi": 61,
      "hit": false,
      "t": 49500,
      "d": 1496.875,
      "v": 85
    },
    {
      "midi": 69,
      "hit": false,
      "t": 49500,
      "d": 1496.875,
      "v": 86
    },
    {
      "midi": 49,
      "hit": false,
      "t": 49500,
      "d": 1496.875,
      "v": 68
    },
    {
      "midi": 59,
      "hit": false,
      "t": 49500,
      "d": 1496.875,
      "v": 54
    },
    {
      "midi": 61,
      "hit": false,
      "t": 49500,
      "d": 1496.875,
      "v": 75
    },
    {
      "midi": 69,
      "hit": false,
      "t": 49500,
      "d": 1496.875,
      "v": 76
    },
    {
      "midi": 59,
      "hit": false,
      "t": 51000,
      "d": 1121.875,
      "v": 75
    },
    {
      "midi": 62,
      "hit": false,
      "t": 51000,
      "d": 1121.875,
      "v": 79
    },
    {
      "midi": 69,
      "hit": false,
      "t": 51000,
      "d": 1121.875,
      "v": 86
    },
    {
      "midi": 47,
      "hit": false,
      "t": 51000,
      "d": 1496.875,
      "v": 54
    },
    {
      "midi": 57,
      "hit": false,
      "t": 51000,
      "d": 1496.875,
      "v": 66
    },
    {
      "midi": 59,
      "hit": false,
      "t": 51000,
      "d": 1121.875,
      "v": 65
    },
    {
      "midi": 62,
      "hit": false,
      "t": 51000,
      "d": 1121.875,
      "v": 69
    },
    {
      "midi": 69,
      "hit": false,
      "t": 51000,
      "d": 1121.875,
      "v": 76
    },
    {
      "midi": 47,
      "hit": false,
      "t": 51000,
      "d": 1496.875,
      "v": 44
    },
    {
      "midi": 57,
      "hit": false,
      "t": 51000,
      "d": 1496.875,
      "v": 54
    },
    {
      "midi": 45,
      "hit": false,
      "t": 52500,
      "d": 371.875,
      "v": 62
    },
    {
      "midi": 55,
      "hit": false,
      "t": 52500,
      "d": 371.875,
      "v": 54
    },
    {
      "midi": 57,
      "hit": false,
      "t": 52500,
      "d": 371.875,
      "v": 72
    },
    {
      "midi": 61,
      "hit": false,
      "t": 52500,
      "d": 371.875,
      "v": 82
    },
    {
      "midi": 45,
      "hit": false,
      "t": 52500,
      "d": 371.875,
      "v": 52
    },
    {
      "midi": 55,
      "hit": false,
      "t": 52500,
      "d": 371.875,
      "v": 54
    },
    {
      "midi": 57,
      "hit": false,
      "t": 52500,
      "d": 371.875,
      "v": 62
    },
    {
      "midi": 61,
      "hit": false,
      "t": 52500,
      "d": 371.875,
      "v": 72
    },
    {
      "midi": 47,
      "hit": false,
      "t": 52875,
      "d": 371.875,
      "v": 40
    },
    {
      "midi": 59,
      "hit": false,
      "t": 52875,
      "d": 371.875,
      "v": 66
    },
    {
      "midi": 62,
      "hit": false,
      "t": 52875,
      "d": 371.875,
      "v": 74
    },
    {
      "midi": 57,
      "hit": false,
      "t": 52875,
      "d": 746.875,
      "v": 54
    },
    {
      "midi": 47,
      "hit": false,
      "t": 52875,
      "d": 371.875,
      "v": 30
    },
    {
      "midi": 59,
      "hit": false,
      "t": 52875,
      "d": 371.875,
      "v": 56
    },
    {
      "midi": 62,
      "hit": false,
      "t": 52875,
      "d": 371.875,
      "v": 64
    },
    {
      "midi": 57,
      "hit": false,
      "t": 52875,
      "d": 746.875,
      "v": 54
    },
    {
      "midi": 49,
      "hit": false,
      "t": 53250,
      "d": 371.875,
      "v": 66
    },
    {
      "midi": 61,
      "hit": false,
      "t": 53250,
      "d": 371.875,
      "v": 88
    },
    {
      "midi": 64,
      "hit": false,
      "t": 53250,
      "d": 371.875,
      "v": 87
    },
    {
      "midi": 49,
      "hit": false,
      "t": 53250,
      "d": 371.875,
      "v": 56
    },
    {
      "midi": 61,
      "hit": false,
      "t": 53250,
      "d": 371.875,
      "v": 78
    },
    {
      "midi": 64,
      "hit": false,
      "t": 53250,
      "d": 371.875,
      "v": 77
    },
    {
      "midi": 38,
      "hit": false,
      "t": 54000,
      "d": 1496.875,
      "v": 63
    },
    {
      "midi": 50,
      "hit": false,
      "t": 54000,
      "d": 1496.875,
      "v": 63
    },
    {
      "midi": 57,
      "hit": false,
      "t": 54000,
      "d": 1496.875,
      "v": 66
    },
    {
      "midi": 62,
      "hit": false,
      "t": 54000,
      "d": 1496.875,
      "v": 75
    },
    {
      "midi": 66,
      "hit": false,
      "t": 54000,
      "d": 1496.875,
      "v": 87
    },
    {
      "midi": 38,
      "hit": false,
      "t": 54000,
      "d": 1496.875,
      "v": 53
    },
    {
      "midi": 50,
      "hit": false,
      "t": 54000,
      "d": 1496.875,
      "v": 53
    },
    {
      "midi": 57,
      "hit": false,
      "t": 54000,
      "d": 1496.875,
      "v": 54
    },
    {
      "midi": 62,
      "hit": false,
      "t": 54000,
      "d": 1496.875,
      "v": 65
    },
    {
      "midi": 66,
      "hit": false,
      "t": 54000,
      "d": 1496.875,
      "v": 77
    },
    {
      "midi": 49,
      "hit": false,
      "t": 55500,
      "d": 1496.875,
      "v": 78
    },
    {
      "midi": 59,
      "hit": false,
      "t": 55500,
      "d": 1496.875,
      "v": 66
    },
    {
      "midi": 61,
      "hit": false,
      "t": 55500,
      "d": 1496.875,
      "v": 89
    },
    {
      "midi": 69,
      "hit": false,
      "t": 55500,
      "d": 1496.875,
      "v": 88
    },
    {
      "midi": 49,
      "hit": false,
      "t": 55500,
      "d": 1496.875,
      "v": 68
    },
    {
      "midi": 59,
      "hit": false,
      "t": 55500,
      "d": 1496.875,
      "v": 54
    },
    {
      "midi": 61,
      "hit": false,
      "t": 55500,
      "d": 1496.875,
      "v": 79
    },
    {
      "midi": 69,
      "hit": false,
      "t": 55500,
      "d": 1496.875,
      "v": 78
    },
    {
      "midi": 47,
      "hit": false,
      "t": 57000,
      "d": 1496.875,
      "v": 56
    },
    {
      "midi": 57,
      "hit": false,
      "t": 57000,
      "d": 1496.875,
      "v": 66
    },
    {
      "midi": 59,
      "hit": false,
      "t": 57000,
      "d": 1496.875,
      "v": 72
    },
    {
      "midi": 62,
      "hit": false,
      "t": 57000,
      "d": 1496.875,
      "v": 82
    },
    {
      "midi": 69,
      "hit": false,
      "t": 57000,
      "d": 1496.875,
      "v": 80
    },
    {
      "midi": 47,
      "hit": false,
      "t": 57000,
      "d": 1496.875,
      "v": 46
    },
    {
      "midi": 57,
      "hit": false,
      "t": 57000,
      "d": 1496.875,
      "v": 54
    },
    {
      "midi": 59,
      "hit": false,
      "t": 57000,
      "d": 1496.875,
      "v": 62
    },
    {
      "midi": 62,
      "hit": false,
      "t": 57000,
      "d": 1496.875,
      "v": 72
    },
    {
      "midi": 69,
      "hit": false,
      "t": 57000,
      "d": 1496.875,
      "v": 70
    },
    {
      "midi": 45,
      "hit": false,
      "t": 58500,
      "d": 371.875,
      "v": 64
    },
    {
      "midi": 55,
      "hit": false,
      "t": 58500,
      "d": 371.875,
      "v": 66
    },
    {
      "midi": 57,
      "hit": false,
      "t": 58500,
      "d": 371.875,
      "v": 56
    },
    {
      "midi": 61,
      "hit": false,
      "t": 58500,
      "d": 371.875,
      "v": 104
    },
    {
      "midi": 45,
      "hit": false,
      "t": 58500,
      "d": 371.875,
      "v": 54
    },
    {
      "midi": 55,
      "hit": false,
      "t": 58500,
      "d": 371.875,
      "v": 54
    },
    {
      "midi": 57,
      "hit": false,
      "t": 58500,
      "d": 371.875,
      "v": 46
    },
    {
      "midi": 61,
      "hit": false,
      "t": 58500,
      "d": 371.875,
      "v": 94
    },
    {
      "midi": 47,
      "hit": false,
      "t": 58875,
      "d": 371.875,
      "v": 46
    },
    {
      "midi": 59,
      "hit": false,
      "t": 58875,
      "d": 371.875,
      "v": 77
    },
    {
      "midi": 62,
      "hit": false,
      "t": 58875,
      "d": 371.875,
      "v": 81
    },
    {
      "midi": 57,
      "hit": false,
      "t": 58875,
      "d": 1121.875,
      "v": 66
    },
    {
      "midi": 47,
      "hit": false,
      "t": 58875,
      "d": 371.875,
      "v": 36
    },
    {
      "midi": 59,
      "hit": false,
      "t": 58875,
      "d": 371.875,
      "v": 67
    },
    {
      "midi": 62,
      "hit": false,
      "t": 58875,
      "d": 371.875,
      "v": 71
    },
    {
      "midi": 57,
      "hit": false,
      "t": 58875,
      "d": 1121.875,
      "v": 54
    },
    {
      "midi": 49,
      "hit": false,
      "t": 59250,
      "d": 746.875,
      "v": 48
    },
    {
      "midi": 61,
      "hit": false,
      "t": 59250,
      "d": 746.875,
      "v": 87
    },
    {
      "midi": 64,
      "hit": false,
      "t": 59250,
      "d": 746.875,
      "v": 84
    },
    {
      "midi": 49,
      "hit": false,
      "t": 59250,
      "d": 746.875,
      "v": 38
    },
    {
      "midi": 61,
      "hit": false,
      "t": 59250,
      "d": 746.875,
      "v": 77
    },
    {
      "midi": 64,
      "hit": false,
      "t": 59250,
      "d": 746.875,
      "v": 74
    },
    {
      "midi": 38,
      "hit": false,
      "t": 60000,
      "d": 1496.875,
      "v": 69
    },
    {
      "midi": 50,
      "hit": false,
      "t": 60000,
      "d": 1496.875,
      "v": 56
    },
    {
      "midi": 57,
      "hit": false,
      "t": 60000,
      "d": 1496.875,
      "v": 66
    },
    {
      "midi": 62,
      "hit": false,
      "t": 60000,
      "d": 1496.875,
      "v": 78
    },
    {
      "midi": 66,
      "hit": false,
      "t": 60000,
      "d": 1496.875,
      "v": 94
    },
    {
      "midi": 38,
      "hit": false,
      "t": 60000,
      "d": 1496.875,
      "v": 59
    },
    {
      "midi": 50,
      "hit": false,
      "t": 60000,
      "d": 1496.875,
      "v": 46
    },
    {
      "midi": 57,
      "hit": false,
      "t": 60000,
      "d": 1496.875,
      "v": 54
    },
    {
      "midi": 62,
      "hit": false,
      "t": 60000,
      "d": 1496.875,
      "v": 68
    },
    {
      "midi": 66,
      "hit": false,
      "t": 60000,
      "d": 1496.875,
      "v": 84
    },
    {
      "midi": 49,
      "hit": false,
      "t": 61500,
      "d": 1496.875,
      "v": 78
    },
    {
      "midi": 59,
      "hit": false,
      "t": 61500,
      "d": 1496.875,
      "v": 66
    },
    {
      "midi": 61,
      "hit": false,
      "t": 61500,
      "d": 1496.875,
      "v": 85
    },
    {
      "midi": 69,
      "hit": false,
      "t": 61500,
      "d": 1496.875,
      "v": 86
    },
    {
      "midi": 49,
      "hit": false,
      "t": 61500,
      "d": 1496.875,
      "v": 68
    },
    {
      "midi": 59,
      "hit": false,
      "t": 61500,
      "d": 1496.875,
      "v": 54
    },
    {
      "midi": 61,
      "hit": false,
      "t": 61500,
      "d": 1496.875,
      "v": 75
    },
    {
      "midi": 69,
      "hit": false,
      "t": 61500,
      "d": 1496.875,
      "v": 76
    },
    {
      "midi": 59,
      "hit": false,
      "t": 63000,
      "d": 1121.875,
      "v": 75
    },
    {
      "midi": 62,
      "hit": false,
      "t": 63000,
      "d": 1121.875,
      "v": 79
    },
    {
      "midi": 69,
      "hit": false,
      "t": 63000,
      "d": 1121.875,
      "v": 86
    },
    {
      "midi": 47,
      "hit": false,
      "t": 63000,
      "d": 1496.875,
      "v": 54
    },
    {
      "midi": 57,
      "hit": false,
      "t": 63000,
      "d": 1496.875,
      "v": 66
    },
    {
      "midi": 59,
      "hit": false,
      "t": 63000,
      "d": 1121.875,
      "v": 65
    },
    {
      "midi": 62,
      "hit": false,
      "t": 63000,
      "d": 1121.875,
      "v": 69
    },
    {
      "midi": 69,
      "hit": false,
      "t": 63000,
      "d": 1121.875,
      "v": 76
    },
    {
      "midi": 47,
      "hit": false,
      "t": 63000,
      "d": 1496.875,
      "v": 44
    },
    {
      "midi": 57,
      "hit": false,
      "t": 63000,
      "d": 1496.875,
      "v": 54
    },
    {
      "midi": 45,
      "hit": false,
      "t": 64500,
      "d": 1496.875,
      "v": 72
    },
    {
      "midi": 57,
      "hit": false,
      "t": 64500,
      "d": 1496.875,
      "v": 52
    },
    {
      "midi": 61,
      "hit": false,
      "t": 64500,
      "d": 1496.875,
      "v": 80
    },
    {
      "midi": 64,
      "hit": false,
      "t": 64500,
      "d": 1496.875,
      "v": 72
    },
    {
      "midi": 45,
      "hit": false,
      "t": 64500,
      "d": 1496.875,
      "v": 62
    },
    {
      "midi": 57,
      "hit": false,
      "t": 64500,
      "d": 1496.875,
      "v": 42
    },
    {
      "midi": 61,
      "hit": false,
      "t": 64500,
      "d": 1496.875,
      "v": 70
    },
    {
      "midi": 64,
      "hit": false,
      "t": 64500,
      "d": 1496.875,
      "v": 62
    },
    {
      "midi": 38,
      "hit": false,
      "t": 66000,
      "d": 1496.875,
      "v": 63
    },
    {
      "midi": 50,
      "hit": false,
      "t": 66000,
      "d": 1496.875,
      "v": 63
    },
    {
      "midi": 57,
      "hit": false,
      "t": 66000,
      "d": 1496.875,
      "v": 66
    },
    {
      "midi": 62,
      "hit": false,
      "t": 66000,
      "d": 1496.875,
      "v": 75
    },
    {
      "midi": 66,
      "hit": false,
      "t": 66000,
      "d": 1496.875,
      "v": 87
    },
    {
      "midi": 38,
      "hit": false,
      "t": 66000,
      "d": 1496.875,
      "v": 53
    },
    {
      "midi": 50,
      "hit": false,
      "t": 66000,
      "d": 1496.875,
      "v": 53
    },
    {
      "midi": 57,
      "hit": false,
      "t": 66000,
      "d": 1496.875,
      "v": 54
    },
    {
      "midi": 62,
      "hit": false,
      "t": 66000,
      "d": 1496.875,
      "v": 65
    },
    {
      "midi": 66,
      "hit": false,
      "t": 66000,
      "d": 1496.875,
      "v": 77
    },
    {
      "midi": 49,
      "hit": false,
      "t": 67500,
      "d": 1496.875,
      "v": 78
    },
    {
      "midi": 59,
      "hit": false,
      "t": 67500,
      "d": 1496.875,
      "v": 66
    },
    {
      "midi": 61,
      "hit": false,
      "t": 67500,
      "d": 1496.875,
      "v": 89
    },
    {
      "midi": 69,
      "hit": false,
      "t": 67500,
      "d": 1496.875,
      "v": 88
    },
    {
      "midi": 49,
      "hit": false,
      "t": 67500,
      "d": 1496.875,
      "v": 68
    },
    {
      "midi": 59,
      "hit": false,
      "t": 67500,
      "d": 1496.875,
      "v": 54
    },
    {
      "midi": 61,
      "hit": false,
      "t": 67500,
      "d": 1496.875,
      "v": 79
    },
    {
      "midi": 69,
      "hit": false,
      "t": 67500,
      "d": 1496.875,
      "v": 78
    },
    {
      "midi": 47,
      "hit": false,
      "t": 69000,
      "d": 1496.875,
      "v": 56
    },
    {
      "midi": 57,
      "hit": false,
      "t": 69000,
      "d": 1496.875,
      "v": 66
    },
    {
      "midi": 59,
      "hit": false,
      "t": 69000,
      "d": 1496.875,
      "v": 72
    },
    {
      "midi": 62,
      "hit": false,
      "t": 69000,
      "d": 1496.875,
      "v": 82
    },
    {
      "midi": 69,
      "hit": false,
      "t": 69000,
      "d": 1496.875,
      "v": 80
    },
    {
      "midi": 47,
      "hit": false,
      "t": 69000,
      "d": 1496.875,
      "v": 46
    },
    {
      "midi": 57,
      "hit": false,
      "t": 69000,
      "d": 1496.875,
      "v": 54
    },
    {
      "midi": 59,
      "hit": false,
      "t": 69000,
      "d": 1496.875,
      "v": 62
    },
    {
      "midi": 62,
      "hit": false,
      "t": 69000,
      "d": 1496.875,
      "v": 72
    },
    {
      "midi": 69,
      "hit": false,
      "t": 69000,
      "d": 1496.875,
      "v": 70
    },
    {
      "midi": 45,
      "hit": false,
      "t": 70500,
      "d": 371.875,
      "v": 64
    },
    {
      "midi": 55,
      "hit": false,
      "t": 70500,
      "d": 371.875,
      "v": 66
    },
    {
      "midi": 57,
      "hit": false,
      "t": 70500,
      "d": 371.875,
      "v": 56
    },
    {
      "midi": 61,
      "hit": false,
      "t": 70500,
      "d": 371.875,
      "v": 104
    },
    {
      "midi": 45,
      "hit": false,
      "t": 70500,
      "d": 371.875,
      "v": 54
    },
    {
      "midi": 55,
      "hit": false,
      "t": 70500,
      "d": 371.875,
      "v": 54
    },
    {
      "midi": 57,
      "hit": false,
      "t": 70500,
      "d": 371.875,
      "v": 46
    },
    {
      "midi": 61,
      "hit": false,
      "t": 70500,
      "d": 371.875,
      "v": 94
    },
    {
      "midi": 47,
      "hit": false,
      "t": 70875,
      "d": 371.875,
      "v": 46
    },
    {
      "midi": 59,
      "hit": false,
      "t": 70875,
      "d": 371.875,
      "v": 77
    },
    {
      "midi": 62,
      "hit": false,
      "t": 70875,
      "d": 371.875,
      "v": 81
    },
    {
      "midi": 57,
      "hit": false,
      "t": 70875,
      "d": 1121.875,
      "v": 66
    },
    {
      "midi": 47,
      "hit": false,
      "t": 70875,
      "d": 371.875,
      "v": 36
    },
    {
      "midi": 59,
      "hit": false,
      "t": 70875,
      "d": 371.875,
      "v": 67
    },
    {
      "midi": 62,
      "hit": false,
      "t": 70875,
      "d": 371.875,
      "v": 71
    },
    {
      "midi": 57,
      "hit": false,
      "t": 70875,
      "d": 1121.875,
      "v": 54
    },
    {
      "midi": 49,
      "hit": false,
      "t": 71250,
      "d": 746.875,
      "v": 48
    },
    {
      "midi": 61,
      "hit": false,
      "t": 71250,
      "d": 746.875,
      "v": 87
    },
    {
      "midi": 64,
      "hit": false,
      "t": 71250,
      "d": 746.875,
      "v": 84
    },
    {
      "midi": 49,
      "hit": false,
      "t": 71250,
      "d": 746.875,
      "v": 38
    },
    {
      "midi": 61,
      "hit": false,
      "t": 71250,
      "d": 746.875,
      "v": 77
    },
    {
      "midi": 64,
      "hit": false,
      "t": 71250,
      "d": 746.875,
      "v": 74
    },
    {
      "midi": 38,
      "hit": false,
      "t": 72000,
      "d": 1496.875,
      "v": 69
    },
    {
      "midi": 50,
      "hit": false,
      "t": 72000,
      "d": 1496.875,
      "v": 56
    },
    {
      "midi": 57,
      "hit": false,
      "t": 72000,
      "d": 1496.875,
      "v": 66
    },
    {
      "midi": 62,
      "hit": false,
      "t": 72000,
      "d": 1496.875,
      "v": 78
    },
    {
      "midi": 66,
      "hit": false,
      "t": 72000,
      "d": 1496.875,
      "v": 94
    },
    {
      "midi": 38,
      "hit": false,
      "t": 72000,
      "d": 1496.875,
      "v": 59
    },
    {
      "midi": 50,
      "hit": false,
      "t": 72000,
      "d": 1496.875,
      "v": 46
    },
    {
      "midi": 57,
      "hit": false,
      "t": 72000,
      "d": 1496.875,
      "v": 54
    },
    {
      "midi": 62,
      "hit": false,
      "t": 72000,
      "d": 1496.875,
      "v": 68
    },
    {
      "midi": 66,
      "hit": false,
      "t": 72000,
      "d": 1496.875,
      "v": 84
    },
    {
      "midi": 49,
      "hit": false,
      "t": 73500,
      "d": 1496.875,
      "v": 78
    },
    {
      "midi": 59,
      "hit": false,
      "t": 73500,
      "d": 1496.875,
      "v": 66
    },
    {
      "midi": 61,
      "hit": false,
      "t": 73500,
      "d": 1496.875,
      "v": 85
    },
    {
      "midi": 69,
      "hit": false,
      "t": 73500,
      "d": 1496.875,
      "v": 86
    },
    {
      "midi": 49,
      "hit": false,
      "t": 73500,
      "d": 1496.875,
      "v": 68
    },
    {
      "midi": 59,
      "hit": false,
      "t": 73500,
      "d": 1496.875,
      "v": 54
    },
    {
      "midi": 61,
      "hit": false,
      "t": 73500,
      "d": 1496.875,
      "v": 75
    },
    {
      "midi": 69,
      "hit": false,
      "t": 73500,
      "d": 1496.875,
      "v": 76
    },
    {
      "midi": 47,
      "hit": false,
      "t": 75000,
      "d": 1496.875,
      "v": 54
    },
    {
      "midi": 57,
      "hit": false,
      "t": 75000,
      "d": 1496.875,
      "v": 66
    },
    {
      "midi": 62,
      "hit": false,
      "t": 75000,
      "d": 1500,
      "v": 74
    },
    {
      "midi": 66,
      "hit": false,
      "t": 75000,
      "d": 1500,
      "v": 71
    },
    {
      "midi": 59,
      "hit": false,
      "t": 75000,
      "d": 1531.25,
      "v": 52
    },
    {
      "midi": 47,
      "hit": false,
      "t": 75000,
      "d": 1496.875,
      "v": 44
    },
    {
      "midi": 57,
      "hit": false,
      "t": 75000,
      "d": 1496.875,
      "v": 54
    },
    {
      "midi": 62,
      "hit": false,
      "t": 75000,
      "d": 1500,
      "v": 64
    },
    {
      "midi": 66,
      "hit": false,
      "t": 75000,
      "d": 1500,
      "v": 61
    },
    {
      "midi": 59,
      "hit": false,
      "t": 75000,
      "d": 1531.25,
      "v": 42
    },
    {
      "midi": 45,
      "hit": false,
      "t": 76500,
      "d": 371.875,
      "v": 62
    },
    {
      "midi": 57,
      "hit": false,
      "t": 76500,
      "d": 1496.875,
      "v": 50
    },
    {
      "midi": 61,
      "hit": false,
      "t": 76500,
      "d": 1496.875,
      "v": 77
    },
    {
      "midi": 64,
      "hit": false,
      "t": 76500,
      "d": 1496.875,
      "v": 68
    },
    {
      "midi": 45,
      "hit": false,
      "t": 76500,
      "d": 371.875,
      "v": 52
    },
    {
      "midi": 57,
      "hit": false,
      "t": 76500,
      "d": 1496.875,
      "v": 40
    },
    {
      "midi": 61,
      "hit": false,
      "t": 76500,
      "d": 1496.875,
      "v": 67
    },
    {
      "midi": 64,
      "hit": false,
      "t": 76500,
      "d": 1496.875,
      "v": 58
    },
    {
      "midi": 47,
      "hit": false,
      "t": 76875,
      "d": 371.875,
      "v": 40
    },
    {
      "midi": 47,
      "hit": false,
      "t": 76875,
      "d": 371.875,
      "v": 30
    },
    {
      "midi": 49,
      "hit": false,
      "t": 77250,
      "d": 371.875,
      "v": 66
    },
    {
      "midi": 49,
      "hit": false,
      "t": 77250,
      "d": 371.875,
      "v": 56
    },
    {
      "midi": 57,
      "hit": false,
      "t": 77437.5,
      "d": 371.875,
      "v": 1
    },
    {
      "midi": 69,
      "hit": false,
      "t": 77437.5,
      "d": 371.875,
      "v": 1
    },
    {
      "midi": 61,
      "hit": false,
      "t": 77812.5,
      "d": 371.875,
      "v": 1
    },
    {
      "midi": 73,
      "hit": false,
      "t": 77812.5,
      "d": 371.875,
      "v": 1
    },
    {
      "midi": 38,
      "hit": false,
      "t": 78000,
      "d": 1496.875,
      "v": 63
    },
    {
      "midi": 50,
      "hit": false,
      "t": 78000,
      "d": 1496.875,
      "v": 63
    },
    {
      "midi": 57,
      "hit": false,
      "t": 78000,
      "d": 1496.875,
      "v": 66
    },
    {
      "midi": 62,
      "hit": false,
      "t": 78000,
      "d": 1496.875,
      "v": 75
    },
    {
      "midi": 66,
      "hit": false,
      "t": 78000,
      "d": 1496.875,
      "v": 87
    },
    {
      "midi": 38,
      "hit": false,
      "t": 78000,
      "d": 1496.875,
      "v": 53
    },
    {
      "midi": 50,
      "hit": false,
      "t": 78000,
      "d": 1496.875,
      "v": 53
    },
    {
      "midi": 57,
      "hit": false,
      "t": 78000,
      "d": 1496.875,
      "v": 54
    },
    {
      "midi": 62,
      "hit": false,
      "t": 78000,
      "d": 1496.875,
      "v": 65
    },
    {
      "midi": 66,
      "hit": false,
      "t": 78000,
      "d": 1496.875,
      "v": 77
    },
    {
      "midi": 71,
      "hit": false,
      "t": 78187.5,
      "d": 371.875,
      "v": 1
    },
    {
      "midi": 74,
      "hit": false,
      "t": 78187.5,
      "d": 371.875,
      "v": 1
    },
    {
      "midi": 69,
      "hit": false,
      "t": 78562.5,
      "d": 559.375,
      "v": 1
    },
    {
      "midi": 73,
      "hit": false,
      "t": 78562.5,
      "d": 559.375,
      "v": 1
    },
    {
      "midi": 66,
      "hit": false,
      "t": 79125,
      "d": 184.375,
      "v": 1
    },
    {
      "midi": 69,
      "hit": false,
      "t": 79125,
      "d": 184.375,
      "v": 1
    },
    {
      "midi": 69,
      "hit": false,
      "t": 79312.5,
      "d": 371.875,
      "v": 1
    },
    {
      "midi": 73,
      "hit": false,
      "t": 79312.5,
      "d": 371.875,
      "v": 1
    },
    {
      "midi": 49,
      "hit": false,
      "t": 79500,
      "d": 1496.875,
      "v": 78
    },
    {
      "midi": 59,
      "hit": false,
      "t": 79500,
      "d": 1496.875,
      "v": 66
    },
    {
      "midi": 61,
      "hit": false,
      "t": 79500,
      "d": 1496.875,
      "v": 89
    },
    {
      "midi": 69,
      "hit": false,
      "t": 79500,
      "d": 1496.875,
      "v": 88
    },
    {
      "midi": 49,
      "hit": false,
      "t": 79500,
      "d": 1496.875,
      "v": 68
    },
    {
      "midi": 59,
      "hit": false,
      "t": 79500,
      "d": 1496.875,
      "v": 54
    },
    {
      "midi": 61,
      "hit": false,
      "t": 79500,
      "d": 1496.875,
      "v": 79
    },
    {
      "midi": 69,
      "hit": false,
      "t": 79500,
      "d": 1496.875,
      "v": 78
    },
    {
      "midi": 71,
      "hit": false,
      "t": 79687.5,
      "d": 371.875,
      "v": 1
    },
    {
      "midi": 74,
      "hit": false,
      "t": 79687.5,
      "d": 371.875,
      "v": 1
    },
    {
      "midi": 69,
      "hit": false,
      "t": 80062.5,
      "d": 559.375,
      "v": 1
    },
    {
      "midi": 73,
      "hit": false,
      "t": 80062.5,
      "d": 559.375,
      "v": 1
    },
    {
      "midi": 66,
      "hit": false,
      "t": 80625,
      "d": 184.375,
      "v": 1
    },
    {
      "midi": 69,
      "hit": false,
      "t": 80625,
      "d": 184.375,
      "v": 1
    },
    {
      "midi": 69,
      "hit": false,
      "t": 80812.5,
      "d": 371.875,
      "v": 1
    },
    {
      "midi": 73,
      "hit": false,
      "t": 80812.5,
      "d": 371.875,
      "v": 1
    },
    {
      "midi": 47,
      "hit": false,
      "t": 81000,
      "d": 1496.875,
      "v": 56
    },
    {
      "midi": 57,
      "hit": false,
      "t": 81000,
      "d": 1496.875,
      "v": 66
    },
    {
      "midi": 59,
      "hit": false,
      "t": 81000,
      "d": 1496.875,
      "v": 72
    },
    {
      "midi": 62,
      "hit": false,
      "t": 81000,
      "d": 1496.875,
      "v": 82
    },
    {
      "midi": 69,
      "hit": false,
      "t": 81000,
      "d": 1496.875,
      "v": 80
    },
    {
      "midi": 47,
      "hit": false,
      "t": 81000,
      "d": 1496.875,
      "v": 46
    },
    {
      "midi": 57,
      "hit": false,
      "t": 81000,
      "d": 1496.875,
      "v": 54
    },
    {
      "midi": 59,
      "hit": false,
      "t": 81000,
      "d": 1496.875,
      "v": 62
    },
    {
      "midi": 62,
      "hit": false,
      "t": 81000,
      "d": 1496.875,
      "v": 72
    },
    {
      "midi": 69,
      "hit": false,
      "t": 81000,
      "d": 1496.875,
      "v": 70
    },
    {
      "midi": 71,
      "hit": false,
      "t": 81187.5,
      "d": 371.875,
      "v": 1
    },
    {
      "midi": 74,
      "hit": false,
      "t": 81187.5,
      "d": 371.875,
      "v": 1
    },
    {
      "midi": 69,
      "hit": false,
      "t": 81562.5,
      "d": 559.375,
      "v": 1
    },
    {
      "midi": 73,
      "hit": false,
      "t": 81562.5,
      "d": 559.375,
      "v": 1
    },
    {
      "midi": 64,
      "hit": false,
      "t": 82125,
      "d": 184.375,
      "v": 1
    },
    {
      "midi": 69,
      "hit": false,
      "t": 82125,
      "d": 184.375,
      "v": 1
    },
    {
      "midi": 62,
      "hit": false,
      "t": 82312.5,
      "d": 184.375,
      "v": 1
    },
    {
      "midi": 66,
      "hit": false,
      "t": 82312.5,
      "d": 184.375,
      "v": 1
    },
    {
      "midi": 45,
      "hit": false,
      "t": 82500,
      "d": 371.875,
      "v": 64
    },
    {
      "midi": 55,
      "hit": false,
      "t": 82500,
      "d": 371.875,
      "v": 66
    },
    {
      "midi": 57,
      "hit": false,
      "t": 82500,
      "d": 371.875,
      "v": 56
    },
    {
      "midi": 61,
      "hit": false,
      "t": 82500,
      "d": 371.875,
      "v": 104
    },
    {
      "midi": 45,
      "hit": false,
      "t": 82500,
      "d": 371.875,
      "v": 54
    },
    {
      "midi": 55,
      "hit": false,
      "t": 82500,
      "d": 371.875,
      "v": 54
    },
    {
      "midi": 57,
      "hit": false,
      "t": 82500,
      "d": 371.875,
      "v": 46
    },
    {
      "midi": 61,
      "hit": false,
      "t": 82500,
      "d": 371.875,
      "v": 94
    },
    {
      "midi": 57,
      "hit": false,
      "t": 82500,
      "d": 198.4375,
      "v": 1
    },
    {
      "midi": 64,
      "hit": false,
      "t": 82500,
      "d": 198.4375,
      "v": 1
    },
    {
      "midi": 54,
      "hit": false,
      "t": 82687.5,
      "d": 184.375,
      "v": 1
    },
    {
      "midi": 62,
      "hit": false,
      "t": 82687.5,
      "d": 184.375,
      "v": 1
    },
    {
      "midi": 47,
      "hit": false,
      "t": 82875,
      "d": 371.875,
      "v": 46
    },
    {
      "midi": 59,
      "hit": false,
      "t": 82875,
      "d": 371.875,
      "v": 77
    },
    {
      "midi": 62,
      "hit": false,
      "t": 82875,
      "d": 371.875,
      "v": 81
    },
    {
      "midi": 57,
      "hit": false,
      "t": 82875,
      "d": 1121.875,
      "v": 66
    },
    {
      "midi": 47,
      "hit": false,
      "t": 82875,
      "d": 371.875,
      "v": 36
    },
    {
      "midi": 59,
      "hit": false,
      "t": 82875,
      "d": 371.875,
      "v": 67
    },
    {
      "midi": 62,
      "hit": false,
      "t": 82875,
      "d": 371.875,
      "v": 71
    },
    {
      "midi": 57,
      "hit": false,
      "t": 82875,
      "d": 1121.875,
      "v": 54
    },
    {
      "midi": 52,
      "hit": false,
      "t": 82875,
      "d": 371.875,
      "v": 1
    },
    {
      "midi": 61,
      "hit": false,
      "t": 82875,
      "d": 371.875,
      "v": 1
    },
    {
      "midi": 49,
      "hit": false,
      "t": 83250,
      "d": 746.875,
      "v": 48
    },
    {
      "midi": 61,
      "hit": false,
      "t": 83250,
      "d": 746.875,
      "v": 87
    },
    {
      "midi": 64,
      "hit": false,
      "t": 83250,
      "d": 746.875,
      "v": 84
    },
    {
      "midi": 49,
      "hit": false,
      "t": 83250,
      "d": 746.875,
      "v": 38
    },
    {
      "midi": 61,
      "hit": false,
      "t": 83250,
      "d": 746.875,
      "v": 77
    },
    {
      "midi": 64,
      "hit": false,
      "t": 83250,
      "d": 746.875,
      "v": 74
    },
    {
      "midi": 38,
      "hit": false,
      "t": 84000,
      "d": 1496.875,
      "v": 69
    },
    {
      "midi": 50,
      "hit": false,
      "t": 84000,
      "d": 1496.875,
      "v": 56
    },
    {
      "midi": 57,
      "hit": false,
      "t": 84000,
      "d": 1496.875,
      "v": 66
    },
    {
      "midi": 62,
      "hit": false,
      "t": 84000,
      "d": 1496.875,
      "v": 78
    },
    {
      "midi": 66,
      "hit": false,
      "t": 84000,
      "d": 1496.875,
      "v": 94
    },
    {
      "midi": 38,
      "hit": false,
      "t": 84000,
      "d": 1496.875,
      "v": 59
    },
    {
      "midi": 50,
      "hit": false,
      "t": 84000,
      "d": 1496.875,
      "v": 46
    },
    {
      "midi": 57,
      "hit": false,
      "t": 84000,
      "d": 1496.875,
      "v": 54
    },
    {
      "midi": 62,
      "hit": false,
      "t": 84000,
      "d": 1496.875,
      "v": 68
    },
    {
      "midi": 66,
      "hit": false,
      "t": 84000,
      "d": 1496.875,
      "v": 84
    },
    {
      "midi": 49,
      "hit": false,
      "t": 85500,
      "d": 1496.875,
      "v": 78
    },
    {
      "midi": 59,
      "hit": false,
      "t": 85500,
      "d": 1496.875,
      "v": 66
    },
    {
      "midi": 61,
      "hit": false,
      "t": 85500,
      "d": 1496.875,
      "v": 85
    },
    {
      "midi": 69,
      "hit": false,
      "t": 85500,
      "d": 1496.875,
      "v": 86
    },
    {
      "midi": 49,
      "hit": false,
      "t": 85500,
      "d": 1496.875,
      "v": 68
    },
    {
      "midi": 59,
      "hit": false,
      "t": 85500,
      "d": 1496.875,
      "v": 54
    },
    {
      "midi": 61,
      "hit": false,
      "t": 85500,
      "d": 1496.875,
      "v": 75
    },
    {
      "midi": 69,
      "hit": false,
      "t": 85500,
      "d": 1496.875,
      "v": 76
    },
    {
      "midi": 59,
      "hit": false,
      "t": 87000,
      "d": 1121.875,
      "v": 75
    },
    {
      "midi": 62,
      "hit": false,
      "t": 87000,
      "d": 1121.875,
      "v": 79
    },
    {
      "midi": 69,
      "hit": false,
      "t": 87000,
      "d": 1121.875,
      "v": 86
    },
    {
      "midi": 47,
      "hit": false,
      "t": 87000,
      "d": 1496.875,
      "v": 54
    },
    {
      "midi": 57,
      "hit": false,
      "t": 87000,
      "d": 1496.875,
      "v": 66
    },
    {
      "midi": 59,
      "hit": false,
      "t": 87000,
      "d": 1121.875,
      "v": 65
    },
    {
      "midi": 62,
      "hit": false,
      "t": 87000,
      "d": 1121.875,
      "v": 69
    },
    {
      "midi": 69,
      "hit": false,
      "t": 87000,
      "d": 1121.875,
      "v": 76
    },
    {
      "midi": 47,
      "hit": false,
      "t": 87000,
      "d": 1496.875,
      "v": 44
    },
    {
      "midi": 57,
      "hit": false,
      "t": 87000,
      "d": 1496.875,
      "v": 54
    },
    {
      "midi": 45,
      "hit": false,
      "t": 88500,
      "d": 1496.875,
      "v": 77
    },
    {
      "midi": 57,
      "hit": false,
      "t": 88500,
      "d": 1496.875,
      "v": 53
    },
    {
      "midi": 61,
      "hit": false,
      "t": 88500,
      "d": 1496.875,
      "v": 79
    },
    {
      "midi": 64,
      "hit": false,
      "t": 88500,
      "d": 1496.875,
      "v": 79
    },
    {
      "midi": 45,
      "hit": false,
      "t": 88500,
      "d": 1496.875,
      "v": 67
    },
    {
      "midi": 57,
      "hit": false,
      "t": 88500,
      "d": 1496.875,
      "v": 43
    },
    {
      "midi": 61,
      "hit": false,
      "t": 88500,
      "d": 1496.875,
      "v": 69
    },
    {
      "midi": 64,
      "hit": false,
      "t": 88500,
      "d": 1496.875,
      "v": 69
    },
    {
      "midi": 64,
      "hit": false,
      "t": 89250,
      "d": 173.4375,
      "v": 1
    },
    {
      "midi": 69,
      "hit": false,
      "t": 89250,
      "d": 195.3125,
      "v": 1
    },
    {
      "midi": 66,
      "hit": false,
      "t": 89437.5,
      "d": 390.625,
      "v": 1
    },
    {
      "midi": 71,
      "hit": false,
      "t": 89437.5,
      "d": 390.625,
      "v": 1
    },
    {
      "midi": 69,
      "hit": false,
      "t": 89831.25,
      "d": 1057.8125,
      "v": 1
    },
    {
      "midi": 73,
      "hit": false,
      "t": 89846.875,
      "d": 998.4375,
      "v": 1
    },
    {
      "midi": 38,
      "hit": false,
      "t": 90000,
      "d": 1496.875,
      "v": 63
    },
    {
      "midi": 50,
      "hit": false,
      "t": 90000,
      "d": 1496.875,
      "v": 63
    },
    {
      "midi": 57,
      "hit": false,
      "t": 90000,
      "d": 1496.875,
      "v": 66
    },
    {
      "midi": 62,
      "hit": false,
      "t": 90000,
      "d": 1496.875,
      "v": 75
    },
    {
      "midi": 66,
      "hit": false,
      "t": 90000,
      "d": 1496.875,
      "v": 87
    },
    {
      "midi": 38,
      "hit": false,
      "t": 90000,
      "d": 1496.875,
      "v": 53
    },
    {
      "midi": 50,
      "hit": false,
      "t": 90000,
      "d": 1496.875,
      "v": 53
    },
    {
      "midi": 57,
      "hit": false,
      "t": 90000,
      "d": 1496.875,
      "v": 54
    },
    {
      "midi": 62,
      "hit": false,
      "t": 90000,
      "d": 1496.875,
      "v": 65
    },
    {
      "midi": 66,
      "hit": false,
      "t": 90000,
      "d": 1496.875,
      "v": 77
    },
    {
      "midi": 49,
      "hit": false,
      "t": 91500,
      "d": 1496.875,
      "v": 78
    },
    {
      "midi": 59,
      "hit": false,
      "t": 91500,
      "d": 1496.875,
      "v": 66
    },
    {
      "midi": 61,
      "hit": false,
      "t": 91500,
      "d": 1496.875,
      "v": 89
    },
    {
      "midi": 69,
      "hit": false,
      "t": 91500,
      "d": 1496.875,
      "v": 88
    },
    {
      "midi": 49,
      "hit": false,
      "t": 91500,
      "d": 1496.875,
      "v": 68
    },
    {
      "midi": 59,
      "hit": false,
      "t": 91500,
      "d": 1496.875,
      "v": 54
    },
    {
      "midi": 61,
      "hit": false,
      "t": 91500,
      "d": 1496.875,
      "v": 79
    },
    {
      "midi": 69,
      "hit": false,
      "t": 91500,
      "d": 1496.875,
      "v": 78
    },
    {
      "midi": 47,
      "hit": false,
      "t": 93000,
      "d": 1496.875,
      "v": 56
    },
    {
      "midi": 57,
      "hit": false,
      "t": 93000,
      "d": 1496.875,
      "v": 66
    },
    {
      "midi": 59,
      "hit": false,
      "t": 93000,
      "d": 1496.875,
      "v": 72
    },
    {
      "midi": 62,
      "hit": false,
      "t": 93000,
      "d": 1496.875,
      "v": 82
    },
    {
      "midi": 69,
      "hit": false,
      "t": 93000,
      "d": 1496.875,
      "v": 80
    },
    {
      "midi": 47,
      "hit": false,
      "t": 93000,
      "d": 1496.875,
      "v": 46
    },
    {
      "midi": 57,
      "hit": false,
      "t": 93000,
      "d": 1496.875,
      "v": 54
    },
    {
      "midi": 59,
      "hit": false,
      "t": 93000,
      "d": 1496.875,
      "v": 62
    },
    {
      "midi": 62,
      "hit": false,
      "t": 93000,
      "d": 1496.875,
      "v": 72
    },
    {
      "midi": 69,
      "hit": false,
      "t": 93000,
      "d": 1496.875,
      "v": 70
    },
    {
      "midi": 45,
      "hit": false,
      "t": 94500,
      "d": 371.875,
      "v": 64
    },
    {
      "midi": 55,
      "hit": false,
      "t": 94500,
      "d": 371.875,
      "v": 66
    },
    {
      "midi": 57,
      "hit": false,
      "t": 94500,
      "d": 371.875,
      "v": 56
    },
    {
      "midi": 61,
      "hit": false,
      "t": 94500,
      "d": 371.875,
      "v": 104
    },
    {
      "midi": 45,
      "hit": false,
      "t": 94500,
      "d": 371.875,
      "v": 54
    },
    {
      "midi": 55,
      "hit": false,
      "t": 94500,
      "d": 371.875,
      "v": 54
    },
    {
      "midi": 57,
      "hit": false,
      "t": 94500,
      "d": 371.875,
      "v": 46
    },
    {
      "midi": 61,
      "hit": false,
      "t": 94500,
      "d": 371.875,
      "v": 94
    },
    {
      "midi": 47,
      "hit": false,
      "t": 94875,
      "d": 371.875,
      "v": 46
    },
    {
      "midi": 59,
      "hit": false,
      "t": 94875,
      "d": 371.875,
      "v": 77
    },
    {
      "midi": 62,
      "hit": false,
      "t": 94875,
      "d": 371.875,
      "v": 81
    },
    {
      "midi": 57,
      "hit": false,
      "t": 94875,
      "d": 1121.875,
      "v": 66
    },
    {
      "midi": 47,
      "hit": false,
      "t": 94875,
      "d": 371.875,
      "v": 36
    },
    {
      "midi": 59,
      "hit": false,
      "t": 94875,
      "d": 371.875,
      "v": 67
    },
    {
      "midi": 62,
      "hit": false,
      "t": 94875,
      "d": 371.875,
      "v": 71
    },
    {
      "midi": 57,
      "hit": false,
      "t": 94875,
      "d": 1121.875,
      "v": 54
    },
    {
      "midi": 49,
      "hit": false,
      "t": 95250,
      "d": 746.875,
      "v": 48
    },
    {
      "midi": 61,
      "hit": false,
      "t": 95250,
      "d": 746.875,
      "v": 87
    },
    {
      "midi": 64,
      "hit": false,
      "t": 95250,
      "d": 746.875,
      "v": 84
    },
    {
      "midi": 49,
      "hit": false,
      "t": 95250,
      "d": 746.875,
      "v": 38
    },
    {
      "midi": 61,
      "hit": false,
      "t": 95250,
      "d": 746.875,
      "v": 77
    },
    {
      "midi": 64,
      "hit": false,
      "t": 95250,
      "d": 746.875,
      "v": 74
    },
    {
      "midi": 38,
      "hit": false,
      "t": 96000,
      "d": 1496.875,
      "v": 69
    },
    {
      "midi": 50,
      "hit": false,
      "t": 96000,
      "d": 1496.875,
      "v": 56
    },
    {
      "midi": 57,
      "hit": false,
      "t": 96000,
      "d": 1496.875,
      "v": 66
    },
    {
      "midi": 62,
      "hit": false,
      "t": 96000,
      "d": 1496.875,
      "v": 78
    },
    {
      "midi": 66,
      "hit": false,
      "t": 96000,
      "d": 1496.875,
      "v": 94
    },
    {
      "midi": 38,
      "hit": false,
      "t": 96000,
      "d": 1496.875,
      "v": 59
    },
    {
      "midi": 50,
      "hit": false,
      "t": 96000,
      "d": 1496.875,
      "v": 46
    },
    {
      "midi": 57,
      "hit": false,
      "t": 96000,
      "d": 1496.875,
      "v": 54
    },
    {
      "midi": 62,
      "hit": false,
      "t": 96000,
      "d": 1496.875,
      "v": 68
    },
    {
      "midi": 66,
      "hit": false,
      "t": 96000,
      "d": 1496.875,
      "v": 84
    },
    {
      "midi": 49,
      "hit": false,
      "t": 97500,
      "d": 1496.875,
      "v": 78
    },
    {
      "midi": 59,
      "hit": false,
      "t": 97500,
      "d": 1496.875,
      "v": 66
    },
    {
      "midi": 61,
      "hit": false,
      "t": 97500,
      "d": 1496.875,
      "v": 85
    },
    {
      "midi": 69,
      "hit": false,
      "t": 97500,
      "d": 1496.875,
      "v": 86
    },
    {
      "midi": 49,
      "hit": false,
      "t": 97500,
      "d": 1496.875,
      "v": 68
    },
    {
      "midi": 59,
      "hit": false,
      "t": 97500,
      "d": 1496.875,
      "v": 54
    },
    {
      "midi": 61,
      "hit": false,
      "t": 97500,
      "d": 1496.875,
      "v": 75
    },
    {
      "midi": 69,
      "hit": false,
      "t": 97500,
      "d": 1496.875,
      "v": 76
    },
    {
      "midi": 47,
      "hit": false,
      "t": 99000,
      "d": 1496.875,
      "v": 54
    },
    {
      "midi": 57,
      "hit": false,
      "t": 99000,
      "d": 1496.875,
      "v": 66
    },
    {
      "midi": 62,
      "hit": false,
      "t": 99000,
      "d": 1500,
      "v": 74
    },
    {
      "midi": 66,
      "hit": false,
      "t": 99000,
      "d": 1500,
      "v": 71
    },
    {
      "midi": 59,
      "hit": false,
      "t": 99000,
      "d": 1531.25,
      "v": 52
    },
    {
      "midi": 47,
      "hit": false,
      "t": 99000,
      "d": 1496.875,
      "v": 44
    },
    {
      "midi": 57,
      "hit": false,
      "t": 99000,
      "d": 1496.875,
      "v": 54
    },
    {
      "midi": 62,
      "hit": false,
      "t": 99000,
      "d": 1500,
      "v": 64
    },
    {
      "midi": 66,
      "hit": false,
      "t": 99000,
      "d": 1500,
      "v": 61
    },
    {
      "midi": 59,
      "hit": false,
      "t": 99000,
      "d": 1531.25,
      "v": 42
    },
    {
      "midi": 45,
      "hit": false,
      "t": 100500,
      "d": 1496.875,
      "v": 77
    },
    {
      "midi": 57,
      "hit": false,
      "t": 100500,
      "d": 1496.875,
      "v": 50
    },
    {
      "midi": 61,
      "hit": false,
      "t": 100500,
      "d": 1496.875,
      "v": 77
    },
    {
      "midi": 64,
      "hit": false,
      "t": 100500,
      "d": 1496.875,
      "v": 68
    },
    {
      "midi": 45,
      "hit": false,
      "t": 100500,
      "d": 1496.875,
      "v": 67
    },
    {
      "midi": 57,
      "hit": false,
      "t": 100500,
      "d": 1496.875,
      "v": 40
    },
    {
      "midi": 61,
      "hit": false,
      "t": 100500,
      "d": 1496.875,
      "v": 67
    },
    {
      "midi": 64,
      "hit": false,
      "t": 100500,
      "d": 1496.875,
      "v": 58
    },
    {
      "midi": 38,
      "hit": false,
      "t": 102000,
      "d": 1496.875,
      "v": 63
    },
    {
      "midi": 50,
      "hit": false,
      "t": 102000,
      "d": 1496.875,
      "v": 63
    },
    {
      "midi": 62,
      "hit": false,
      "t": 102000,
      "d": 1496.875,
      "v": 75
    },
    {
      "midi": 66,
      "hit": false,
      "t": 102000,
      "d": 1496.875,
      "v": 87
    },
    {
      "midi": 38,
      "hit": false,
      "t": 102000,
      "d": 1496.875,
      "v": 53
    },
    {
      "midi": 50,
      "hit": false,
      "t": 102000,
      "d": 1496.875,
      "v": 53
    },
    {
      "midi": 62,
      "hit": false,
      "t": 102000,
      "d": 1496.875,
      "v": 65
    },
    {
      "midi": 66,
      "hit": false,
      "t": 102000,
      "d": 1496.875,
      "v": 77
    },
    {
      "midi": 47,
      "hit": false,
      "t": 103500,
      "d": 1496.875,
      "v": 67
    },
    {
      "midi": 59,
      "hit": false,
      "t": 103500,
      "d": 1496.875,
      "v": 65
    },
    {
      "midi": 62,
      "hit": false,
      "t": 103500,
      "d": 1496.875,
      "v": 81
    },
    {
      "midi": 66,
      "hit": false,
      "t": 103500,
      "d": 1496.875,
      "v": 76
    },
    {
      "midi": 47,
      "hit": false,
      "t": 103500,
      "d": 1496.875,
      "v": 57
    },
    {
      "midi": 59,
      "hit": false,
      "t": 103500,
      "d": 1496.875,
      "v": 55
    },
    {
      "midi": 62,
      "hit": false,
      "t": 103500,
      "d": 1496.875,
      "v": 71
    },
    {
      "midi": 66,
      "hit": false,
      "t": 103500,
      "d": 1496.875,
      "v": 66
    },
    {
      "midi": 49,
      "hit": false,
      "t": 105000,
      "d": 1496.875,
      "v": 87
    },
    {
      "midi": 61,
      "hit": false,
      "t": 105000,
      "d": 1496.875,
      "v": 55
    },
    {
      "midi": 64,
      "hit": false,
      "t": 105000,
      "d": 1496.875,
      "v": 80
    },
    {
      "midi": 68,
      "hit": false,
      "t": 105000,
      "d": 1496.875,
      "v": 88
    },
    {
      "midi": 49,
      "hit": false,
      "t": 105000,
      "d": 1496.875,
      "v": 77
    },
    {
      "midi": 61,
      "hit": false,
      "t": 105000,
      "d": 1496.875,
      "v": 45
    },
    {
      "midi": 64,
      "hit": false,
      "t": 105000,
      "d": 1496.875,
      "v": 70
    },
    {
      "midi": 68,
      "hit": false,
      "t": 105000,
      "d": 1496.875,
      "v": 78
    },
    {
      "midi": 42,
      "hit": false,
      "t": 106500,
      "d": 1496.875,
      "v": 80
    },
    {
      "midi": 61,
      "hit": false,
      "t": 106500,
      "d": 1496.875,
      "v": 73
    },
    {
      "midi": 66,
      "hit": false,
      "t": 106500,
      "d": 1496.875,
      "v": 94
    },
    {
      "midi": 69,
      "hit": false,
      "t": 106500,
      "d": 1496.875,
      "v": 82
    },
    {
      "midi": 42,
      "hit": false,
      "t": 106500,
      "d": 1496.875,
      "v": 70
    },
    {
      "midi": 61,
      "hit": false,
      "t": 106500,
      "d": 1496.875,
      "v": 63
    },
    {
      "midi": 66,
      "hit": false,
      "t": 106500,
      "d": 1496.875,
      "v": 84
    },
    {
      "midi": 69,
      "hit": false,
      "t": 106500,
      "d": 1496.875,
      "v": 72
    },
    {
      "midi": 38,
      "hit": false,
      "t": 108000,
      "d": 1496.875,
      "v": 69
    },
    {
      "midi": 50,
      "hit": false,
      "t": 108000,
      "d": 1496.875,
      "v": 56
    },
    {
      "midi": 62,
      "hit": false,
      "t": 108000,
      "d": 1496.875,
      "v": 78
    },
    {
      "midi": 66,
      "hit": false,
      "t": 108000,
      "d": 1496.875,
      "v": 94
    },
    {
      "midi": 38,
      "hit": false,
      "t": 108000,
      "d": 1496.875,
      "v": 59
    },
    {
      "midi": 50,
      "hit": false,
      "t": 108000,
      "d": 1496.875,
      "v": 46
    },
    {
      "midi": 62,
      "hit": false,
      "t": 108000,
      "d": 1496.875,
      "v": 68
    },
    {
      "midi": 66,
      "hit": false,
      "t": 108000,
      "d": 1496.875,
      "v": 84
    },
    {
      "midi": 49,
      "hit": false,
      "t": 109500,
      "d": 1496.875,
      "v": 78
    },
    {
      "midi": 61,
      "hit": false,
      "t": 109500,
      "d": 1496.875,
      "v": 85
    },
    {
      "midi": 69,
      "hit": false,
      "t": 109500,
      "d": 1496.875,
      "v": 86
    },
    {
      "midi": 49,
      "hit": false,
      "t": 109500,
      "d": 1496.875,
      "v": 68
    },
    {
      "midi": 61,
      "hit": false,
      "t": 109500,
      "d": 1496.875,
      "v": 75
    },
    {
      "midi": 69,
      "hit": false,
      "t": 109500,
      "d": 1496.875,
      "v": 76
    },
    {
      "midi": 47,
      "hit": false,
      "t": 111000,
      "d": 1496.875,
      "v": 54
    },
    {
      "midi": 59,
      "hit": false,
      "t": 111000,
      "d": 1496.875,
      "v": 75
    },
    {
      "midi": 62,
      "hit": false,
      "t": 111000,
      "d": 1496.875,
      "v": 79
    },
    {
      "midi": 69,
      "hit": false,
      "t": 111000,
      "d": 1496.875,
      "v": 86
    },
    {
      "midi": 47,
      "hit": false,
      "t": 111000,
      "d": 1496.875,
      "v": 44
    },
    {
      "midi": 59,
      "hit": false,
      "t": 111000,
      "d": 1496.875,
      "v": 65
    },
    {
      "midi": 62,
      "hit": false,
      "t": 111000,
      "d": 1496.875,
      "v": 69
    },
    {
      "midi": 69,
      "hit": false,
      "t": 111000,
      "d": 1496.875,
      "v": 76
    },
    {
      "midi": 45,
      "hit": false,
      "t": 112500,
      "d": 1496.875,
      "v": 77
    },
    {
      "midi": 57,
      "hit": false,
      "t": 112500,
      "d": 1496.875,
      "v": 53
    },
    {
      "midi": 61,
      "hit": false,
      "t": 112500,
      "d": 1496.875,
      "v": 79
    },
    {
      "midi": 64,
      "hit": false,
      "t": 112500,
      "d": 1496.875,
      "v": 79
    },
    {
      "midi": 45,
      "hit": false,
      "t": 112500,
      "d": 1496.875,
      "v": 67
    },
    {
      "midi": 57,
      "hit": false,
      "t": 112500,
      "d": 1496.875,
      "v": 43
    },
    {
      "midi": 61,
      "hit": false,
      "t": 112500,
      "d": 1496.875,
      "v": 69
    },
    {
      "midi": 64,
      "hit": false,
      "t": 112500,
      "d": 1496.875,
      "v": 69
    },
    {
      "midi": 73,
      "hit": false,
      "t": 115125,
      "d": 1121.875,
      "v": 104
    },
    {
      "midi": 78,
      "hit": false,
      "t": 115125,
      "d": 1129.6875,
      "v": 124
    },
    {
      "midi": 81,
      "hit": false,
      "t": 115125,
      "d": 1131.25,
      "v": 99
    },
    {
      "midi": 68,
      "hit": false,
      "t": 117000,
      "d": 60.9375,
      "v": 110
    },
    {
      "midi": 64,
      "hit": false,
      "t": 117000,
      "d": 82.8125,
      "v": 85
    },
    {
      "midi": 71,
      "hit": false,
      "t": 117750,
      "d": 95.3125,
      "v": 87
    },
    {
      "midi": 66,
      "hit": false,
      "t": 118125,
      "d": 92.1875,
      "v": 102
    },
    {
      "midi": 61,
      "hit": false,
      "t": 118125,
      "d": 123.4375,
      "v": 92
    },
    {
      "midi": 69,
      "hit": false,
      "t": 118125,
      "d": 154.6875,
      "v": 46
    },
    {
      "midi": 69,
      "hit": false,
      "t": 118500,
      "d": 371.875,
      "v": 1
    },
    {
      "midi": 68,
      "hit": false,
      "t": 118875,
      "d": 371.875,
      "v": 1
    },
    {
      "midi": 64,
      "hit": false,
      "t": 119250,
      "d": 371.875,
      "v": 1
    },
    {
      "midi": 61,
      "hit": false,
      "t": 119625,
      "d": 184.375,
      "v": 1
    },
    {
      "midi": 68,
      "hit": false,
      "t": 119625,
      "d": 60.9375,
      "v": 98
    },
    {
      "midi": 64,
      "hit": false,
      "t": 119625,
      "d": 76.5625,
      "v": 89
    },
    {
      "midi": 66,
      "hit": false,
      "t": 119812.5,
      "d": 834.375,
      "v": 1
    },
    {
      "midi": 61,
      "hit": false,
      "t": 120000,
      "d": 951.5625,
      "v": 85
    },
    {
      "midi": 66,
      "hit": false,
      "t": 120000,
      "d": 951.5625,
      "v": 94
    },
    {
      "midi": 69,
      "hit": false,
      "t": 120000,
      "d": 965.625,
      "v": 89
    },
    {
      "midi": 81,
      "hit": false,
      "t": 121273.4375,
      "d": 159.375,
      "v": 100
    },
    {
      "midi": 78,
      "hit": false,
      "t": 121335.9375,
      "d": 120.3125,
      "v": 105
    },
    {
      "midi": 73,
      "hit": false,
      "t": 121415.625,
      "d": 78.125,
      "v": 106
    },
    {
      "midi": 69,
      "hit": false,
      "t": 121482.8125,
      "d": 92.1875,
      "v": 107
    },
    {
      "midi": 81,
      "hit": false,
      "t": 121687.5,
      "d": 371.875,
      "v": 86
    },
    {
      "midi": 81,
      "hit": false,
      "t": 121687.5,
      "d": 371.875,
      "v": 76
    },
    {
      "midi": 78,
      "hit": false,
      "t": 122062.5,
      "d": 559.375,
      "v": 89
    },
    {
      "midi": 78,
      "hit": false,
      "t": 122062.5,
      "d": 559.375,
      "v": 79
    },
    {
      "midi": 92,
      "hit": false,
      "t": 123000,
      "d": 559.375,
      "v": 88
    },
    {
      "midi": 92,
      "hit": false,
      "t": 123000,
      "d": 559.375,
      "v": 78
    },
    {
      "midi": 68,
      "hit": false,
      "t": 123000,
      "d": 60.9375,
      "v": 110
    },
    {
      "midi": 64,
      "hit": false,
      "t": 123000,
      "d": 82.8125,
      "v": 85
    },
    {
      "midi": 71,
      "hit": false,
      "t": 123750,
      "d": 95.3125,
      "v": 87
    },
    {
      "midi": 95,
      "hit": false,
      "t": 123839.0625,
      "d": 559.375,
      "v": 71
    },
    {
      "midi": 95,
      "hit": false,
      "t": 123839.0625,
      "d": 559.375,
      "v": 61
    },
    {
      "midi": 93,
      "hit": false,
      "t": 124125,
      "d": 934.375,
      "v": 83
    },
    {
      "midi": 93,
      "hit": false,
      "t": 124125,
      "d": 934.375,
      "v": 73
    },
    {
      "midi": 66,
      "hit": false,
      "t": 124125,
      "d": 92.1875,
      "v": 102
    },
    {
      "midi": 61,
      "hit": false,
      "t": 124125,
      "d": 123.4375,
      "v": 92
    },
    {
      "midi": 69,
      "hit": false,
      "t": 124125,
      "d": 154.6875,
      "v": 46
    },
    {
      "midi": 66,
      "hit": false,
      "t": 126000,
      "d": 57.8125,
      "v": 106
    },
    {
      "midi": 61,
      "hit": false,
      "t": 126000,
      "d": 64.0625,
      "v": 90
    },
    {
      "midi": 69,
      "hit": false,
      "t": 126000,
      "d": 67.1875,
      "v": 90
    },
    {
      "midi": 78,
      "hit": false,
      "t": 127312.5,
      "d": 64.0625,
      "v": 108
    },
    {
      "midi": 73,
      "hit": false,
      "t": 127312.5,
      "d": 70.3125,
      "v": 108
    },
    {
      "midi": 81,
      "hit": false,
      "t": 127312.5,
      "d": 92.1875,
      "v": 88
    },
    {
      "midi": 73,
      "hit": false,
      "t": 127500,
      "d": 746.875,
      "v": 110
    },
    {
      "midi": 78,
      "hit": false,
      "t": 127500,
      "d": 746.875,
      "v": 110
    },
    {
      "midi": 81,
      "hit": false,
      "t": 127500,
      "d": 746.875,
      "v": 110
    },
    {
      "midi": 92,
      "hit": false,
      "t": 129000,
      "d": 746.875,
      "v": 112
    },
    {
      "midi": 92,
      "hit": false,
      "t": 129000,
      "d": 746.875,
      "v": 102
    },
    {
      "midi": 61,
      "hit": false,
      "t": 129000,
      "d": 1120.3125,
      "v": 1
    },
    {
      "midi": 65,
      "hit": false,
      "t": 129000,
      "d": 1123.4375,
      "v": 1
    },
    {
      "midi": 68,
      "hit": false,
      "t": 129000,
      "d": 1125,
      "v": 1
    },
    {
      "midi": 65,
      "hit": false,
      "t": 129000,
      "d": 710.9375,
      "v": 85
    },
    {
      "midi": 68,
      "hit": false,
      "t": 129000,
      "d": 717.1875,
      "v": 90
    },
    {
      "midi": 61,
      "hit": false,
      "t": 129000,
      "d": 865.625,
      "v": 84
    },
    {
      "midi": 95,
      "hit": false,
      "t": 129750,
      "d": 371.875,
      "v": 88
    },
    {
      "midi": 95,
      "hit": false,
      "t": 129750,
      "d": 371.875,
      "v": 78
    },
    {
      "midi": 93,
      "hit": false,
      "t": 130125,
      "d": 746.875,
      "v": 88
    },
    {
      "midi": 93,
      "hit": false,
      "t": 130125,
      "d": 746.875,
      "v": 78
    },
    {
      "midi": 61,
      "hit": false,
      "t": 130125,
      "d": 1829.6875,
      "v": 1
    },
    {
      "midi": 66,
      "hit": false,
      "t": 130125,
      "d": 1831.25,
      "v": 1
    },
    {
      "midi": 69,
      "hit": false,
      "t": 130125,
      "d": 1839.0625,
      "v": 1
    },
    {
      "midi": 69,
      "hit": false,
      "t": 130125,
      "d": 1356.25,
      "v": 84
    },
    {
      "midi": 61,
      "hit": false,
      "t": 130125,
      "d": 1364.0625,
      "v": 78
    },
    {
      "midi": 88,
      "hit": false,
      "t": 130875,
      "d": 184.375,
      "v": 85
    },
    {
      "midi": 88,
      "hit": false,
      "t": 130875,
      "d": 184.375,
      "v": 75
    },
    {
      "midi": 88,
      "hit": false,
      "t": 131250,
      "d": 371.875,
      "v": 86
    },
    {
      "midi": 88,
      "hit": false,
      "t": 131250,
      "d": 371.875,
      "v": 76
    },
    {
      "midi": 66,
      "hit": false,
      "t": 131256.25,
      "d": 221.875,
      "v": 98
    },
    {
      "midi": 68,
      "hit": false,
      "t": 131440.625,
      "d": 231.25,
      "v": 89
    },
    {
      "midi": 90,
      "hit": false,
      "t": 131625,
      "d": 184.375,
      "v": 86
    },
    {
      "midi": 90,
      "hit": false,
      "t": 131625,
      "d": 184.375,
      "v": 76
    },
    {
      "midi": 69,
      "hit": false,
      "t": 131629.6875,
      "d": 271.875,
      "v": 86
    },
    {
      "midi": 90,
      "hit": false,
      "t": 132000,
      "d": 746.875,
      "v": 86
    },
    {
      "midi": 93,
      "hit": false,
      "t": 132000,
      "d": 746.875,
      "v": 85
    },
    {
      "midi": 97,
      "hit": false,
      "t": 132000,
      "d": 746.875,
      "v": 88
    },
    {
      "midi": 90,
      "hit": false,
      "t": 132000,
      "d": 746.875,
      "v": 76
    },
    {
      "midi": 93,
      "hit": false,
      "t": 132000,
      "d": 746.875,
      "v": 75
    },
    {
      "midi": 97,
      "hit": false,
      "t": 132000,
      "d": 746.875,
      "v": 78
    },
    {
      "midi": 90,
      "hit": false,
      "t": 132000,
      "d": 31.25,
      "v": 84
    },
    {
      "midi": 93,
      "hit": false,
      "t": 132000,
      "d": 34.375,
      "v": 87
    },
    {
      "midi": 97,
      "hit": false,
      "t": 132000,
      "d": 40.625,
      "v": 98
    },
    {
      "midi": 56,
      "hit": false,
      "t": 135000,
      "d": 53.125,
      "v": 79
    },
    {
      "midi": 52,
      "hit": false,
      "t": 135000,
      "d": 62.5,
      "v": 45
    },
    {
      "midi": 59,
      "hit": false,
      "t": 135000,
      "d": 84.375,
      "v": 72
    },
    {
      "midi": 40,
      "hit": false,
      "t": 135000,
      "d": 143.75,
      "v": 80
    },
    {
      "midi": 28,
      "hit": false,
      "t": 135000,
      "d": 159.375,
      "v": 81
    },
    {
      "midi": 56,
      "hit": false,
      "t": 135750,
      "d": 76.5625,
      "v": 102
    },
    {
      "midi": 52,
      "hit": false,
      "t": 135750,
      "d": 93.75,
      "v": 73
    },
    {
      "midi": 59,
      "hit": false,
      "t": 135750,
      "d": 104.6875,
      "v": 80
    },
    {
      "midi": 28,
      "hit": false,
      "t": 135750,
      "d": 143.75,
      "v": 80
    },
    {
      "midi": 40,
      "hit": false,
      "t": 135750,
      "d": 159.375,
      "v": 82
    },
    {
      "midi": 56,
      "hit": false,
      "t": 136500,
      "d": 95.3125,
      "v": 127
    },
    {
      "midi": 59,
      "hit": false,
      "t": 136500,
      "d": 103.125,
      "v": 86
    },
    {
      "midi": 52,
      "hit": false,
      "t": 136500,
      "d": 106.25,
      "v": 102
    },
    {
      "midi": 40,
      "hit": false,
      "t": 136500,
      "d": 126.5625,
      "v": 89
    },
    {
      "midi": 28,
      "hit": false,
      "t": 136500,
      "d": 132.8125,
      "v": 86
    },
    {
      "midi": 73,
      "hit": false,
      "t": 137250,
      "d": 559.375,
      "v": 1
    },
    {
      "midi": 76,
      "hit": false,
      "t": 137250,
      "d": 559.375,
      "v": 1
    },
    {
      "midi": 69,
      "hit": false,
      "t": 137812.5,
      "d": 934.375,
      "v": 1
    },
    {
      "midi": 73,
      "hit": false,
      "t": 137812.5,
      "d": 934.375,
      "v": 1
    },
    {
      "midi": 38,
      "hit": false,
      "t": 162000,
      "d": 1496.875,
      "v": 63
    },
    {
      "midi": 50,
      "hit": false,
      "t": 162000,
      "d": 1496.875,
      "v": 63
    },
    {
      "midi": 57,
      "hit": false,
      "t": 162000,
      "d": 1496.875,
      "v": 66
    },
    {
      "midi": 62,
      "hit": false,
      "t": 162000,
      "d": 1496.875,
      "v": 75
    },
    {
      "midi": 66,
      "hit": false,
      "t": 162000,
      "d": 1496.875,
      "v": 87
    },
    {
      "midi": 38,
      "hit": false,
      "t": 162000,
      "d": 1496.875,
      "v": 53
    },
    {
      "midi": 50,
      "hit": false,
      "t": 162000,
      "d": 1496.875,
      "v": 53
    },
    {
      "midi": 57,
      "hit": false,
      "t": 162000,
      "d": 1496.875,
      "v": 54
    },
    {
      "midi": 62,
      "hit": false,
      "t": 162000,
      "d": 1496.875,
      "v": 65
    },
    {
      "midi": 66,
      "hit": false,
      "t": 162000,
      "d": 1496.875,
      "v": 77
    },
    {
      "midi": 49,
      "hit": false,
      "t": 163500,
      "d": 1496.875,
      "v": 78
    },
    {
      "midi": 59,
      "hit": false,
      "t": 163500,
      "d": 1496.875,
      "v": 66
    },
    {
      "midi": 61,
      "hit": false,
      "t": 163500,
      "d": 1496.875,
      "v": 89
    },
    {
      "midi": 69,
      "hit": false,
      "t": 163500,
      "d": 1496.875,
      "v": 88
    },
    {
      "midi": 49,
      "hit": false,
      "t": 163500,
      "d": 1496.875,
      "v": 68
    },
    {
      "midi": 59,
      "hit": false,
      "t": 163500,
      "d": 1496.875,
      "v": 54
    },
    {
      "midi": 61,
      "hit": false,
      "t": 163500,
      "d": 1496.875,
      "v": 79
    },
    {
      "midi": 69,
      "hit": false,
      "t": 163500,
      "d": 1496.875,
      "v": 78
    },
    {
      "midi": 47,
      "hit": false,
      "t": 165000,
      "d": 1496.875,
      "v": 56
    },
    {
      "midi": 57,
      "hit": false,
      "t": 165000,
      "d": 1496.875,
      "v": 66
    },
    {
      "midi": 59,
      "hit": false,
      "t": 165000,
      "d": 1496.875,
      "v": 72
    },
    {
      "midi": 62,
      "hit": false,
      "t": 165000,
      "d": 1496.875,
      "v": 82
    },
    {
      "midi": 69,
      "hit": false,
      "t": 165000,
      "d": 1496.875,
      "v": 80
    },
    {
      "midi": 47,
      "hit": false,
      "t": 165000,
      "d": 1496.875,
      "v": 46
    },
    {
      "midi": 57,
      "hit": false,
      "t": 165000,
      "d": 1496.875,
      "v": 54
    },
    {
      "midi": 59,
      "hit": false,
      "t": 165000,
      "d": 1496.875,
      "v": 62
    },
    {
      "midi": 62,
      "hit": false,
      "t": 165000,
      "d": 1496.875,
      "v": 72
    },
    {
      "midi": 69,
      "hit": false,
      "t": 165000,
      "d": 1496.875,
      "v": 70
    },
    {
      "midi": 45,
      "hit": false,
      "t": 166500,
      "d": 371.875,
      "v": 64
    },
    {
      "midi": 55,
      "hit": false,
      "t": 166500,
      "d": 371.875,
      "v": 66
    },
    {
      "midi": 57,
      "hit": false,
      "t": 166500,
      "d": 371.875,
      "v": 56
    },
    {
      "midi": 61,
      "hit": false,
      "t": 166500,
      "d": 371.875,
      "v": 104
    },
    {
      "midi": 45,
      "hit": false,
      "t": 166500,
      "d": 371.875,
      "v": 54
    },
    {
      "midi": 55,
      "hit": false,
      "t": 166500,
      "d": 371.875,
      "v": 54
    },
    {
      "midi": 57,
      "hit": false,
      "t": 166500,
      "d": 371.875,
      "v": 46
    },
    {
      "midi": 61,
      "hit": false,
      "t": 166500,
      "d": 371.875,
      "v": 94
    },
    {
      "midi": 47,
      "hit": false,
      "t": 166875,
      "d": 371.875,
      "v": 46
    },
    {
      "midi": 59,
      "hit": false,
      "t": 166875,
      "d": 371.875,
      "v": 77
    },
    {
      "midi": 62,
      "hit": false,
      "t": 166875,
      "d": 371.875,
      "v": 81
    },
    {
      "midi": 57,
      "hit": false,
      "t": 166875,
      "d": 1121.875,
      "v": 66
    },
    {
      "midi": 47,
      "hit": false,
      "t": 166875,
      "d": 371.875,
      "v": 36
    },
    {
      "midi": 59,
      "hit": false,
      "t": 166875,
      "d": 371.875,
      "v": 67
    },
    {
      "midi": 62,
      "hit": false,
      "t": 166875,
      "d": 371.875,
      "v": 71
    },
    {
      "midi": 57,
      "hit": false,
      "t": 166875,
      "d": 1121.875,
      "v": 54
    },
    {
      "midi": 49,
      "hit": false,
      "t": 167250,
      "d": 746.875,
      "v": 48
    },
    {
      "midi": 61,
      "hit": false,
      "t": 167250,
      "d": 746.875,
      "v": 87
    },
    {
      "midi": 64,
      "hit": false,
      "t": 167250,
      "d": 746.875,
      "v": 84
    },
    {
      "midi": 49,
      "hit": false,
      "t": 167250,
      "d": 746.875,
      "v": 38
    },
    {
      "midi": 61,
      "hit": false,
      "t": 167250,
      "d": 746.875,
      "v": 77
    },
    {
      "midi": 64,
      "hit": false,
      "t": 167250,
      "d": 746.875,
      "v": 74
    },
    {
      "midi": 38,
      "hit": false,
      "t": 168000,
      "d": 1496.875,
      "v": 69
    },
    {
      "midi": 50,
      "hit": false,
      "t": 168000,
      "d": 1496.875,
      "v": 56
    },
    {
      "midi": 57,
      "hit": false,
      "t": 168000,
      "d": 1496.875,
      "v": 66
    },
    {
      "midi": 62,
      "hit": false,
      "t": 168000,
      "d": 1496.875,
      "v": 78
    },
    {
      "midi": 66,
      "hit": false,
      "t": 168000,
      "d": 1496.875,
      "v": 94
    },
    {
      "midi": 38,
      "hit": false,
      "t": 168000,
      "d": 1496.875,
      "v": 59
    },
    {
      "midi": 50,
      "hit": false,
      "t": 168000,
      "d": 1496.875,
      "v": 46
    },
    {
      "midi": 57,
      "hit": false,
      "t": 168000,
      "d": 1496.875,
      "v": 54
    },
    {
      "midi": 62,
      "hit": false,
      "t": 168000,
      "d": 1496.875,
      "v": 68
    },
    {
      "midi": 66,
      "hit": false,
      "t": 168000,
      "d": 1496.875,
      "v": 84
    },
    {
      "midi": 49,
      "hit": false,
      "t": 169500,
      "d": 1496.875,
      "v": 78
    },
    {
      "midi": 59,
      "hit": false,
      "t": 169500,
      "d": 1496.875,
      "v": 66
    },
    {
      "midi": 61,
      "hit": false,
      "t": 169500,
      "d": 1496.875,
      "v": 85
    },
    {
      "midi": 69,
      "hit": false,
      "t": 169500,
      "d": 1496.875,
      "v": 86
    },
    {
      "midi": 49,
      "hit": false,
      "t": 169500,
      "d": 1496.875,
      "v": 68
    },
    {
      "midi": 59,
      "hit": false,
      "t": 169500,
      "d": 1496.875,
      "v": 54
    },
    {
      "midi": 61,
      "hit": false,
      "t": 169500,
      "d": 1496.875,
      "v": 75
    },
    {
      "midi": 69,
      "hit": false,
      "t": 169500,
      "d": 1496.875,
      "v": 76
    },
    {
      "midi": 59,
      "hit": false,
      "t": 171000,
      "d": 1121.875,
      "v": 75
    },
    {
      "midi": 62,
      "hit": false,
      "t": 171000,
      "d": 1121.875,
      "v": 79
    },
    {
      "midi": 69,
      "hit": false,
      "t": 171000,
      "d": 1121.875,
      "v": 86
    },
    {
      "midi": 47,
      "hit": false,
      "t": 171000,
      "d": 1496.875,
      "v": 54
    },
    {
      "midi": 57,
      "hit": false,
      "t": 171000,
      "d": 1496.875,
      "v": 66
    },
    {
      "midi": 59,
      "hit": false,
      "t": 171000,
      "d": 1121.875,
      "v": 65
    },
    {
      "midi": 62,
      "hit": false,
      "t": 171000,
      "d": 1121.875,
      "v": 69
    },
    {
      "midi": 69,
      "hit": false,
      "t": 171000,
      "d": 1121.875,
      "v": 76
    },
    {
      "midi": 47,
      "hit": false,
      "t": 171000,
      "d": 1496.875,
      "v": 44
    },
    {
      "midi": 57,
      "hit": false,
      "t": 171000,
      "d": 1496.875,
      "v": 54
    },
    {
      "midi": 45,
      "hit": false,
      "t": 172500,
      "d": 371.875,
      "v": 62
    },
    {
      "midi": 55,
      "hit": false,
      "t": 172500,
      "d": 371.875,
      "v": 54
    },
    {
      "midi": 57,
      "hit": false,
      "t": 172500,
      "d": 371.875,
      "v": 72
    },
    {
      "midi": 61,
      "hit": false,
      "t": 172500,
      "d": 371.875,
      "v": 82
    },
    {
      "midi": 45,
      "hit": false,
      "t": 172500,
      "d": 371.875,
      "v": 52
    },
    {
      "midi": 55,
      "hit": false,
      "t": 172500,
      "d": 371.875,
      "v": 54
    },
    {
      "midi": 57,
      "hit": false,
      "t": 172500,
      "d": 371.875,
      "v": 62
    },
    {
      "midi": 61,
      "hit": false,
      "t": 172500,
      "d": 371.875,
      "v": 72
    },
    {
      "midi": 47,
      "hit": false,
      "t": 172875,
      "d": 371.875,
      "v": 40
    },
    {
      "midi": 59,
      "hit": false,
      "t": 172875,
      "d": 371.875,
      "v": 66
    },
    {
      "midi": 62,
      "hit": false,
      "t": 172875,
      "d": 371.875,
      "v": 74
    },
    {
      "midi": 57,
      "hit": false,
      "t": 172875,
      "d": 746.875,
      "v": 54
    },
    {
      "midi": 47,
      "hit": false,
      "t": 172875,
      "d": 371.875,
      "v": 30
    },
    {
      "midi": 59,
      "hit": false,
      "t": 172875,
      "d": 371.875,
      "v": 56
    },
    {
      "midi": 62,
      "hit": false,
      "t": 172875,
      "d": 371.875,
      "v": 64
    },
    {
      "midi": 57,
      "hit": false,
      "t": 172875,
      "d": 746.875,
      "v": 54
    },
    {
      "midi": 49,
      "hit": false,
      "t": 173250,
      "d": 371.875,
      "v": 66
    },
    {
      "midi": 61,
      "hit": false,
      "t": 173250,
      "d": 371.875,
      "v": 88
    },
    {
      "midi": 64,
      "hit": false,
      "t": 173250,
      "d": 371.875,
      "v": 87
    },
    {
      "midi": 49,
      "hit": false,
      "t": 173250,
      "d": 371.875,
      "v": 56
    },
    {
      "midi": 61,
      "hit": false,
      "t": 173250,
      "d": 371.875,
      "v": 78
    },
    {
      "midi": 64,
      "hit": false,
      "t": 173250,
      "d": 371.875,
      "v": 77
    },
    {
      "midi": 38,
      "hit": false,
      "t": 174000,
      "d": 1496.875,
      "v": 63
    },
    {
      "midi": 50,
      "hit": false,
      "t": 174000,
      "d": 1496.875,
      "v": 63
    },
    {
      "midi": 57,
      "hit": false,
      "t": 174000,
      "d": 1496.875,
      "v": 66
    },
    {
      "midi": 62,
      "hit": false,
      "t": 174000,
      "d": 1496.875,
      "v": 75
    },
    {
      "midi": 66,
      "hit": false,
      "t": 174000,
      "d": 1496.875,
      "v": 87
    },
    {
      "midi": 38,
      "hit": false,
      "t": 174000,
      "d": 1496.875,
      "v": 53
    },
    {
      "midi": 50,
      "hit": false,
      "t": 174000,
      "d": 1496.875,
      "v": 53
    },
    {
      "midi": 57,
      "hit": false,
      "t": 174000,
      "d": 1496.875,
      "v": 54
    },
    {
      "midi": 62,
      "hit": false,
      "t": 174000,
      "d": 1496.875,
      "v": 65
    },
    {
      "midi": 66,
      "hit": false,
      "t": 174000,
      "d": 1496.875,
      "v": 77
    },
    {
      "midi": 49,
      "hit": false,
      "t": 175500,
      "d": 1496.875,
      "v": 78
    },
    {
      "midi": 59,
      "hit": false,
      "t": 175500,
      "d": 1496.875,
      "v": 66
    },
    {
      "midi": 61,
      "hit": false,
      "t": 175500,
      "d": 1496.875,
      "v": 89
    },
    {
      "midi": 69,
      "hit": false,
      "t": 175500,
      "d": 1496.875,
      "v": 88
    },
    {
      "midi": 49,
      "hit": false,
      "t": 175500,
      "d": 1496.875,
      "v": 68
    },
    {
      "midi": 59,
      "hit": false,
      "t": 175500,
      "d": 1496.875,
      "v": 54
    },
    {
      "midi": 61,
      "hit": false,
      "t": 175500,
      "d": 1496.875,
      "v": 79
    },
    {
      "midi": 69,
      "hit": false,
      "t": 175500,
      "d": 1496.875,
      "v": 78
    },
    {
      "midi": 47,
      "hit": false,
      "t": 177000,
      "d": 1496.875,
      "v": 56
    },
    {
      "midi": 57,
      "hit": false,
      "t": 177000,
      "d": 1496.875,
      "v": 66
    },
    {
      "midi": 59,
      "hit": false,
      "t": 177000,
      "d": 1496.875,
      "v": 72
    },
    {
      "midi": 62,
      "hit": false,
      "t": 177000,
      "d": 1496.875,
      "v": 82
    },
    {
      "midi": 69,
      "hit": false,
      "t": 177000,
      "d": 1496.875,
      "v": 80
    },
    {
      "midi": 47,
      "hit": false,
      "t": 177000,
      "d": 1496.875,
      "v": 46
    },
    {
      "midi": 57,
      "hit": false,
      "t": 177000,
      "d": 1496.875,
      "v": 54
    },
    {
      "midi": 59,
      "hit": false,
      "t": 177000,
      "d": 1496.875,
      "v": 62
    },
    {
      "midi": 62,
      "hit": false,
      "t": 177000,
      "d": 1496.875,
      "v": 72
    },
    {
      "midi": 69,
      "hit": false,
      "t": 177000,
      "d": 1496.875,
      "v": 70
    },
    {
      "midi": 45,
      "hit": false,
      "t": 178500,
      "d": 371.875,
      "v": 64
    },
    {
      "midi": 55,
      "hit": false,
      "t": 178500,
      "d": 371.875,
      "v": 66
    },
    {
      "midi": 57,
      "hit": false,
      "t": 178500,
      "d": 371.875,
      "v": 56
    },
    {
      "midi": 61,
      "hit": false,
      "t": 178500,
      "d": 371.875,
      "v": 104
    },
    {
      "midi": 45,
      "hit": false,
      "t": 178500,
      "d": 371.875,
      "v": 54
    },
    {
      "midi": 55,
      "hit": false,
      "t": 178500,
      "d": 371.875,
      "v": 54
    },
    {
      "midi": 57,
      "hit": false,
      "t": 178500,
      "d": 371.875,
      "v": 46
    },
    {
      "midi": 61,
      "hit": false,
      "t": 178500,
      "d": 371.875,
      "v": 94
    },
    {
      "midi": 47,
      "hit": false,
      "t": 178875,
      "d": 371.875,
      "v": 46
    },
    {
      "midi": 59,
      "hit": false,
      "t": 178875,
      "d": 371.875,
      "v": 77
    },
    {
      "midi": 62,
      "hit": false,
      "t": 178875,
      "d": 371.875,
      "v": 81
    },
    {
      "midi": 57,
      "hit": false,
      "t": 178875,
      "d": 1121.875,
      "v": 66
    },
    {
      "midi": 47,
      "hit": false,
      "t": 178875,
      "d": 371.875,
      "v": 36
    },
    {
      "midi": 59,
      "hit": false,
      "t": 178875,
      "d": 371.875,
      "v": 67
    },
    {
      "midi": 62,
      "hit": false,
      "t": 178875,
      "d": 371.875,
      "v": 71
    },
    {
      "midi": 57,
      "hit": false,
      "t": 178875,
      "d": 1121.875,
      "v": 54
    },
    {
      "midi": 49,
      "hit": false,
      "t": 179250,
      "d": 746.875,
      "v": 48
    },
    {
      "midi": 61,
      "hit": false,
      "t": 179250,
      "d": 746.875,
      "v": 87
    },
    {
      "midi": 64,
      "hit": false,
      "t": 179250,
      "d": 746.875,
      "v": 84
    },
    {
      "midi": 49,
      "hit": false,
      "t": 179250,
      "d": 746.875,
      "v": 38
    },
    {
      "midi": 61,
      "hit": false,
      "t": 179250,
      "d": 746.875,
      "v": 77
    },
    {
      "midi": 64,
      "hit": false,
      "t": 179250,
      "d": 746.875,
      "v": 74
    },
    {
      "midi": 38,
      "hit": false,
      "t": 180000,
      "d": 1496.875,
      "v": 69
    },
    {
      "midi": 50,
      "hit": false,
      "t": 180000,
      "d": 1496.875,
      "v": 56
    },
    {
      "midi": 57,
      "hit": false,
      "t": 180000,
      "d": 1496.875,
      "v": 66
    },
    {
      "midi": 62,
      "hit": false,
      "t": 180000,
      "d": 1496.875,
      "v": 78
    },
    {
      "midi": 66,
      "hit": false,
      "t": 180000,
      "d": 1496.875,
      "v": 94
    },
    {
      "midi": 38,
      "hit": false,
      "t": 180000,
      "d": 1496.875,
      "v": 59
    },
    {
      "midi": 50,
      "hit": false,
      "t": 180000,
      "d": 1496.875,
      "v": 46
    },
    {
      "midi": 57,
      "hit": false,
      "t": 180000,
      "d": 1496.875,
      "v": 54
    },
    {
      "midi": 62,
      "hit": false,
      "t": 180000,
      "d": 1496.875,
      "v": 68
    },
    {
      "midi": 66,
      "hit": false,
      "t": 180000,
      "d": 1496.875,
      "v": 84
    },
    {
      "midi": 49,
      "hit": false,
      "t": 181500,
      "d": 1496.875,
      "v": 78
    },
    {
      "midi": 59,
      "hit": false,
      "t": 181500,
      "d": 1496.875,
      "v": 66
    },
    {
      "midi": 61,
      "hit": false,
      "t": 181500,
      "d": 1496.875,
      "v": 85
    },
    {
      "midi": 69,
      "hit": false,
      "t": 181500,
      "d": 1496.875,
      "v": 86
    },
    {
      "midi": 49,
      "hit": false,
      "t": 181500,
      "d": 1496.875,
      "v": 68
    },
    {
      "midi": 59,
      "hit": false,
      "t": 181500,
      "d": 1496.875,
      "v": 54
    },
    {
      "midi": 61,
      "hit": false,
      "t": 181500,
      "d": 1496.875,
      "v": 75
    },
    {
      "midi": 69,
      "hit": false,
      "t": 181500,
      "d": 1496.875,
      "v": 76
    },
    {
      "midi": 59,
      "hit": false,
      "t": 183000,
      "d": 1121.875,
      "v": 75
    },
    {
      "midi": 62,
      "hit": false,
      "t": 183000,
      "d": 1121.875,
      "v": 79
    },
    {
      "midi": 69,
      "hit": false,
      "t": 183000,
      "d": 1121.875,
      "v": 86
    },
    {
      "midi": 47,
      "hit": false,
      "t": 183000,
      "d": 1496.875,
      "v": 54
    },
    {
      "midi": 57,
      "hit": false,
      "t": 183000,
      "d": 1496.875,
      "v": 66
    },
    {
      "midi": 59,
      "hit": false,
      "t": 183000,
      "d": 1121.875,
      "v": 65
    },
    {
      "midi": 62,
      "hit": false,
      "t": 183000,
      "d": 1121.875,
      "v": 69
    },
    {
      "midi": 69,
      "hit": false,
      "t": 183000,
      "d": 1121.875,
      "v": 76
    },
    {
      "midi": 47,
      "hit": false,
      "t": 183000,
      "d": 1496.875,
      "v": 44
    },
    {
      "midi": 57,
      "hit": false,
      "t": 183000,
      "d": 1496.875,
      "v": 54
    },
    {
      "midi": 45,
      "hit": false,
      "t": 184500,
      "d": 1496.875,
      "v": 72
    },
    {
      "midi": 57,
      "hit": false,
      "t": 184500,
      "d": 1496.875,
      "v": 52
    },
    {
      "midi": 61,
      "hit": false,
      "t": 184500,
      "d": 1496.875,
      "v": 80
    },
    {
      "midi": 64,
      "hit": false,
      "t": 184500,
      "d": 1496.875,
      "v": 72
    },
    {
      "midi": 45,
      "hit": false,
      "t": 184500,
      "d": 1496.875,
      "v": 62
    },
    {
      "midi": 57,
      "hit": false,
      "t": 184500,
      "d": 1496.875,
      "v": 42
    },
    {
      "midi": 61,
      "hit": false,
      "t": 184500,
      "d": 1496.875,
      "v": 70
    },
    {
      "midi": 64,
      "hit": false,
      "t": 184500,
      "d": 1496.875,
      "v": 62
    },
    {
      "midi": 38,
      "hit": false,
      "t": 186000,
      "d": 1496.875,
      "v": 63
    },
    {
      "midi": 50,
      "hit": false,
      "t": 186000,
      "d": 1496.875,
      "v": 63
    },
    {
      "midi": 57,
      "hit": false,
      "t": 186000,
      "d": 1496.875,
      "v": 66
    },
    {
      "midi": 62,
      "hit": false,
      "t": 186000,
      "d": 1496.875,
      "v": 75
    },
    {
      "midi": 66,
      "hit": false,
      "t": 186000,
      "d": 1496.875,
      "v": 87
    },
    {
      "midi": 38,
      "hit": false,
      "t": 186000,
      "d": 1496.875,
      "v": 53
    },
    {
      "midi": 50,
      "hit": false,
      "t": 186000,
      "d": 1496.875,
      "v": 53
    },
    {
      "midi": 57,
      "hit": false,
      "t": 186000,
      "d": 1496.875,
      "v": 54
    },
    {
      "midi": 62,
      "hit": false,
      "t": 186000,
      "d": 1496.875,
      "v": 65
    },
    {
      "midi": 66,
      "hit": false,
      "t": 186000,
      "d": 1496.875,
      "v": 77
    },
    {
      "midi": 49,
      "hit": false,
      "t": 187500,
      "d": 1496.875,
      "v": 78
    },
    {
      "midi": 59,
      "hit": false,
      "t": 187500,
      "d": 1496.875,
      "v": 66
    },
    {
      "midi": 61,
      "hit": false,
      "t": 187500,
      "d": 1496.875,
      "v": 89
    },
    {
      "midi": 69,
      "hit": false,
      "t": 187500,
      "d": 1496.875,
      "v": 88
    },
    {
      "midi": 49,
      "hit": false,
      "t": 187500,
      "d": 1496.875,
      "v": 68
    },
    {
      "midi": 59,
      "hit": false,
      "t": 187500,
      "d": 1496.875,
      "v": 54
    },
    {
      "midi": 61,
      "hit": false,
      "t": 187500,
      "d": 1496.875,
      "v": 79
    },
    {
      "midi": 69,
      "hit": false,
      "t": 187500,
      "d": 1496.875,
      "v": 78
    },
    {
      "midi": 47,
      "hit": false,
      "t": 189000,
      "d": 1496.875,
      "v": 56
    },
    {
      "midi": 57,
      "hit": false,
      "t": 189000,
      "d": 1496.875,
      "v": 66
    },
    {
      "midi": 59,
      "hit": false,
      "t": 189000,
      "d": 1496.875,
      "v": 72
    },
    {
      "midi": 62,
      "hit": false,
      "t": 189000,
      "d": 1496.875,
      "v": 82
    },
    {
      "midi": 69,
      "hit": false,
      "t": 189000,
      "d": 1496.875,
      "v": 80
    },
    {
      "midi": 47,
      "hit": false,
      "t": 189000,
      "d": 1496.875,
      "v": 46
    },
    {
      "midi": 57,
      "hit": false,
      "t": 189000,
      "d": 1496.875,
      "v": 54
    },
    {
      "midi": 59,
      "hit": false,
      "t": 189000,
      "d": 1496.875,
      "v": 62
    },
    {
      "midi": 62,
      "hit": false,
      "t": 189000,
      "d": 1496.875,
      "v": 72
    },
    {
      "midi": 69,
      "hit": false,
      "t": 189000,
      "d": 1496.875,
      "v": 70
    },
    {
      "midi": 45,
      "hit": false,
      "t": 190500,
      "d": 371.875,
      "v": 64
    },
    {
      "midi": 55,
      "hit": false,
      "t": 190500,
      "d": 371.875,
      "v": 66
    },
    {
      "midi": 57,
      "hit": false,
      "t": 190500,
      "d": 371.875,
      "v": 56
    },
    {
      "midi": 61,
      "hit": false,
      "t": 190500,
      "d": 371.875,
      "v": 104
    },
    {
      "midi": 45,
      "hit": false,
      "t": 190500,
      "d": 371.875,
      "v": 54
    },
    {
      "midi": 55,
      "hit": false,
      "t": 190500,
      "d": 371.875,
      "v": 54
    },
    {
      "midi": 57,
      "hit": false,
      "t": 190500,
      "d": 371.875,
      "v": 46
    },
    {
      "midi": 61,
      "hit": false,
      "t": 190500,
      "d": 371.875,
      "v": 94
    },
    {
      "midi": 47,
      "hit": false,
      "t": 190875,
      "d": 371.875,
      "v": 46
    },
    {
      "midi": 59,
      "hit": false,
      "t": 190875,
      "d": 371.875,
      "v": 77
    },
    {
      "midi": 62,
      "hit": false,
      "t": 190875,
      "d": 371.875,
      "v": 81
    },
    {
      "midi": 57,
      "hit": false,
      "t": 190875,
      "d": 1121.875,
      "v": 66
    },
    {
      "midi": 47,
      "hit": false,
      "t": 190875,
      "d": 371.875,
      "v": 36
    },
    {
      "midi": 59,
      "hit": false,
      "t": 190875,
      "d": 371.875,
      "v": 67
    },
    {
      "midi": 62,
      "hit": false,
      "t": 190875,
      "d": 371.875,
      "v": 71
    },
    {
      "midi": 57,
      "hit": false,
      "t": 190875,
      "d": 1121.875,
      "v": 54
    },
    {
      "midi": 49,
      "hit": false,
      "t": 191250,
      "d": 746.875,
      "v": 48
    },
    {
      "midi": 61,
      "hit": false,
      "t": 191250,
      "d": 746.875,
      "v": 87
    },
    {
      "midi": 64,
      "hit": false,
      "t": 191250,
      "d": 746.875,
      "v": 84
    },
    {
      "midi": 49,
      "hit": false,
      "t": 191250,
      "d": 746.875,
      "v": 38
    },
    {
      "midi": 61,
      "hit": false,
      "t": 191250,
      "d": 746.875,
      "v": 77
    },
    {
      "midi": 64,
      "hit": false,
      "t": 191250,
      "d": 746.875,
      "v": 74
    },
    {
      "midi": 38,
      "hit": false,
      "t": 192000,
      "d": 1496.875,
      "v": 69
    },
    {
      "midi": 50,
      "hit": false,
      "t": 192000,
      "d": 1496.875,
      "v": 56
    },
    {
      "midi": 57,
      "hit": false,
      "t": 192000,
      "d": 1496.875,
      "v": 66
    },
    {
      "midi": 62,
      "hit": false,
      "t": 192000,
      "d": 1496.875,
      "v": 78
    },
    {
      "midi": 66,
      "hit": false,
      "t": 192000,
      "d": 1496.875,
      "v": 94
    },
    {
      "midi": 38,
      "hit": false,
      "t": 192000,
      "d": 1496.875,
      "v": 59
    },
    {
      "midi": 50,
      "hit": false,
      "t": 192000,
      "d": 1496.875,
      "v": 46
    },
    {
      "midi": 57,
      "hit": false,
      "t": 192000,
      "d": 1496.875,
      "v": 54
    },
    {
      "midi": 62,
      "hit": false,
      "t": 192000,
      "d": 1496.875,
      "v": 68
    },
    {
      "midi": 66,
      "hit": false,
      "t": 192000,
      "d": 1496.875,
      "v": 84
    },
    {
      "midi": 49,
      "hit": false,
      "t": 193500,
      "d": 1496.875,
      "v": 78
    },
    {
      "midi": 59,
      "hit": false,
      "t": 193500,
      "d": 1496.875,
      "v": 66
    },
    {
      "midi": 61,
      "hit": false,
      "t": 193500,
      "d": 1496.875,
      "v": 85
    },
    {
      "midi": 69,
      "hit": false,
      "t": 193500,
      "d": 1496.875,
      "v": 86
    },
    {
      "midi": 49,
      "hit": false,
      "t": 193500,
      "d": 1496.875,
      "v": 68
    },
    {
      "midi": 59,
      "hit": false,
      "t": 193500,
      "d": 1496.875,
      "v": 54
    },
    {
      "midi": 61,
      "hit": false,
      "t": 193500,
      "d": 1496.875,
      "v": 75
    },
    {
      "midi": 69,
      "hit": false,
      "t": 193500,
      "d": 1496.875,
      "v": 76
    },
    {
      "midi": 47,
      "hit": false,
      "t": 195000,
      "d": 1496.875,
      "v": 54
    },
    {
      "midi": 57,
      "hit": false,
      "t": 195000,
      "d": 1496.875,
      "v": 66
    },
    {
      "midi": 62,
      "hit": false,
      "t": 195000,
      "d": 1500,
      "v": 74
    },
    {
      "midi": 66,
      "hit": false,
      "t": 195000,
      "d": 1500,
      "v": 71
    },
    {
      "midi": 59,
      "hit": false,
      "t": 195000,
      "d": 1531.25,
      "v": 52
    },
    {
      "midi": 47,
      "hit": false,
      "t": 195000,
      "d": 1496.875,
      "v": 44
    },
    {
      "midi": 57,
      "hit": false,
      "t": 195000,
      "d": 1496.875,
      "v": 54
    },
    {
      "midi": 62,
      "hit": false,
      "t": 195000,
      "d": 1500,
      "v": 64
    },
    {
      "midi": 66,
      "hit": false,
      "t": 195000,
      "d": 1500,
      "v": 61
    },
    {
      "midi": 59,
      "hit": false,
      "t": 195000,
      "d": 1531.25,
      "v": 42
    },
    {
      "midi": 45,
      "hit": false,
      "t": 196500,
      "d": 1496.875,
      "v": 77
    },
    {
      "midi": 57,
      "hit": false,
      "t": 196500,
      "d": 1496.875,
      "v": 50
    },
    {
      "midi": 61,
      "hit": false,
      "t": 196500,
      "d": 1496.875,
      "v": 77
    },
    {
      "midi": 64,
      "hit": false,
      "t": 196500,
      "d": 1496.875,
      "v": 68
    },
    {
      "midi": 45,
      "hit": false,
      "t": 196500,
      "d": 1496.875,
      "v": 67
    },
    {
      "midi": 57,
      "hit": false,
      "t": 196500,
      "d": 1496.875,
      "v": 40
    },
    {
      "midi": 61,
      "hit": false,
      "t": 196500,
      "d": 1496.875,
      "v": 67
    },
    {
      "midi": 64,
      "hit": false,
      "t": 196500,
      "d": 1496.875,
      "v": 58
    },
    {
      "midi": 38,
      "hit": false,
      "t": 198000,
      "d": 1496.875,
      "v": 63
    },
    {
      "midi": 50,
      "hit": false,
      "t": 198000,
      "d": 1496.875,
      "v": 63
    },
    {
      "midi": 62,
      "hit": false,
      "t": 198000,
      "d": 1496.875,
      "v": 75
    },
    {
      "midi": 66,
      "hit": false,
      "t": 198000,
      "d": 1496.875,
      "v": 87
    },
    {
      "midi": 38,
      "hit": false,
      "t": 198000,
      "d": 1496.875,
      "v": 53
    },
    {
      "midi": 50,
      "hit": false,
      "t": 198000,
      "d": 1496.875,
      "v": 53
    },
    {
      "midi": 62,
      "hit": false,
      "t": 198000,
      "d": 1496.875,
      "v": 65
    },
    {
      "midi": 66,
      "hit": false,
      "t": 198000,
      "d": 1496.875,
      "v": 77
    },
    {
      "midi": 47,
      "hit": false,
      "t": 199500,
      "d": 1496.875,
      "v": 67
    },
    {
      "midi": 59,
      "hit": false,
      "t": 199500,
      "d": 1496.875,
      "v": 65
    },
    {
      "midi": 62,
      "hit": false,
      "t": 199500,
      "d": 1496.875,
      "v": 81
    },
    {
      "midi": 66,
      "hit": false,
      "t": 199500,
      "d": 1496.875,
      "v": 76
    },
    {
      "midi": 47,
      "hit": false,
      "t": 199500,
      "d": 1496.875,
      "v": 57
    },
    {
      "midi": 59,
      "hit": false,
      "t": 199500,
      "d": 1496.875,
      "v": 55
    },
    {
      "midi": 62,
      "hit": false,
      "t": 199500,
      "d": 1496.875,
      "v": 71
    },
    {
      "midi": 66,
      "hit": false,
      "t": 199500,
      "d": 1496.875,
      "v": 66
    },
    {
      "midi": 49,
      "hit": false,
      "t": 201000,
      "d": 1496.875,
      "v": 87
    },
    {
      "midi": 61,
      "hit": false,
      "t": 201000,
      "d": 1496.875,
      "v": 55
    },
    {
      "midi": 64,
      "hit": false,
      "t": 201000,
      "d": 1496.875,
      "v": 80
    },
    {
      "midi": 68,
      "hit": false,
      "t": 201000,
      "d": 1496.875,
      "v": 88
    },
    {
      "midi": 49,
      "hit": false,
      "t": 201000,
      "d": 1496.875,
      "v": 77
    },
    {
      "midi": 61,
      "hit": false,
      "t": 201000,
      "d": 1496.875,
      "v": 45
    },
    {
      "midi": 64,
      "hit": false,
      "t": 201000,
      "d": 1496.875,
      "v": 70
    },
    {
      "midi": 68,
      "hit": false,
      "t": 201000,
      "d": 1496.875,
      "v": 78
    },
    {
      "midi": 42,
      "hit": false,
      "t": 202500,
      "d": 1496.875,
      "v": 80
    },
    {
      "midi": 61,
      "hit": false,
      "t": 202500,
      "d": 1496.875,
      "v": 73
    },
    {
      "midi": 66,
      "hit": false,
      "t": 202500,
      "d": 1496.875,
      "v": 94
    },
    {
      "midi": 69,
      "hit": false,
      "t": 202500,
      "d": 1496.875,
      "v": 82
    },
    {
      "midi": 42,
      "hit": false,
      "t": 202500,
      "d": 1496.875,
      "v": 70
    },
    {
      "midi": 61,
      "hit": false,
      "t": 202500,
      "d": 1496.875,
      "v": 63
    },
    {
      "midi": 66,
      "hit": false,
      "t": 202500,
      "d": 1496.875,
      "v": 84
    },
    {
      "midi": 69,
      "hit": false,
      "t": 202500,
      "d": 1496.875,
      "v": 72
    },
    {
      "midi": 74,
      "hit": false,
      "t": 202875,
      "d": 192.1875,
      "v": 1
    },
    {
      "midi": 73,
      "hit": false,
      "t": 203062.5,
      "d": 184.375,
      "v": 1
    },
    {
      "midi": 76,
      "hit": false,
      "t": 203250,
      "d": 371.875,
      "v": 1
    },
    {
      "midi": 74,
      "hit": false,
      "t": 203625,
      "d": 184.375,
      "v": 1
    },
    {
      "midi": 73,
      "hit": false,
      "t": 203812.5,
      "d": 451.5625,
      "v": 1
    },
    {
      "midi": 38,
      "hit": false,
      "t": 204000,
      "d": 1496.875,
      "v": 69
    },
    {
      "midi": 50,
      "hit": false,
      "t": 204000,
      "d": 1496.875,
      "v": 56
    },
    {
      "midi": 62,
      "hit": false,
      "t": 204000,
      "d": 1496.875,
      "v": 78
    },
    {
      "midi": 66,
      "hit": false,
      "t": 204000,
      "d": 1496.875,
      "v": 94
    },
    {
      "midi": 38,
      "hit": false,
      "t": 204000,
      "d": 1496.875,
      "v": 59
    },
    {
      "midi": 50,
      "hit": false,
      "t": 204000,
      "d": 1496.875,
      "v": 46
    },
    {
      "midi": 62,
      "hit": false,
      "t": 204000,
      "d": 1496.875,
      "v": 68
    },
    {
      "midi": 66,
      "hit": false,
      "t": 204000,
      "d": 1496.875,
      "v": 84
    },
    {
      "midi": 69,
      "hit": false,
      "t": 204223.4375,
      "d": 523.4375,
      "v": 1
    },
    {
      "midi": 49,
      "hit": false,
      "t": 205500,
      "d": 1496.875,
      "v": 78
    },
    {
      "midi": 61,
      "hit": false,
      "t": 205500,
      "d": 1496.875,
      "v": 85
    },
    {
      "midi": 69,
      "hit": false,
      "t": 205500,
      "d": 1496.875,
      "v": 86
    },
    {
      "midi": 49,
      "hit": false,
      "t": 205500,
      "d": 1496.875,
      "v": 68
    },
    {
      "midi": 61,
      "hit": false,
      "t": 205500,
      "d": 1496.875,
      "v": 75
    },
    {
      "midi": 69,
      "hit": false,
      "t": 205500,
      "d": 1496.875,
      "v": 76
    },
    {
      "midi": 47,
      "hit": false,
      "t": 207000,
      "d": 1496.875,
      "v": 54
    },
    {
      "midi": 59,
      "hit": false,
      "t": 207000,
      "d": 1496.875,
      "v": 75
    },
    {
      "midi": 62,
      "hit": false,
      "t": 207000,
      "d": 1496.875,
      "v": 79
    },
    {
      "midi": 69,
      "hit": false,
      "t": 207000,
      "d": 1496.875,
      "v": 86
    },
    {
      "midi": 47,
      "hit": false,
      "t": 207000,
      "d": 1496.875,
      "v": 44
    },
    {
      "midi": 59,
      "hit": false,
      "t": 207000,
      "d": 1496.875,
      "v": 65
    },
    {
      "midi": 62,
      "hit": false,
      "t": 207000,
      "d": 1496.875,
      "v": 69
    },
    {
      "midi": 69,
      "hit": false,
      "t": 207000,
      "d": 1496.875,
      "v": 76
    },
    {
      "midi": 45,
      "hit": false,
      "t": 208500,
      "d": 4496.875,
      "v": 77
    },
    {
      "midi": 45,
      "hit": false,
      "t": 208500,
      "d": 4496.875,
      "v": 67
    },
    {
      "midi": 59,
      "hit": false,
      "t": 208875,
      "d": 371.875,
      "v": 55
    },
    {
      "midi": 59,
      "hit": false,
      "t": 208875,
      "d": 371.875,
      "v": 45
    },
    {
      "midi": 61,
      "hit": false,
      "t": 209250,
      "d": 3746.875,
      "v": 59
    },
    {
      "midi": 61,
      "hit": false,
      "t": 209250,
      "d": 3746.875,
      "v": 49
    }
  ]
}