{
  "jsonPath": "Pop/Classic Italian Pop/Anna Oxa/mezzo-angolo-di-cielo.json",
  "path": "Pop\\Classic Italian Pop\\Anna Oxa\\Mezzo Angolo Di Cielo.mid",
  "name": "Mezzo Angolo Di Cielo",
  "difficulty": "Advanced",
  "bpm": 106.00144868646538,
  "notes": [
    {
      "midi": 28,
      "hit": false,
      "t": 114.56006250000002,
      "d": 164.49650000000003,
      "v": 67
    },
    {
      "midi": 40,
      "hit": false,
      "t": 279.05656250000004,
      "d": 281.994,
      "v": 55
    },
    {
      "midi": 52,
      "hit": false,
      "t": 563.988,
      "d": 279.05656250000004,
      "v": 47
    },
    {
      "midi": 28,
      "hit": false,
      "t": 845.9820000000001,
      "d": 279.05656250000004,
      "v": 75
    },
    {
      "midi": 40,
      "hit": false,
      "t": 1127.976,
      "d": 279.0565624999999,
      "v": 55
    },
    {
      "midi": 52,
      "hit": false,
      "t": 1409.97,
      "d": 279.05656250000015,
      "v": 63
    },
    {
      "midi": 40,
      "hit": false,
      "t": 1691.9640000000002,
      "d": 279.05656250000015,
      "v": 55
    },
    {
      "midi": 52,
      "hit": false,
      "t": 1973.9580000000003,
      "d": 279.05656250000015,
      "v": 63
    },
    {
      "midi": 28,
      "hit": false,
      "t": 2255.9520000000007,
      "d": 279.0565624999999,
      "v": 71
    },
    {
      "midi": 40,
      "hit": false,
      "t": 2537.946000000001,
      "d": 279.0565624999999,
      "v": 35
    },
    {
      "midi": 52,
      "hit": false,
      "t": 2819.940000000001,
      "d": 279.0565624999999,
      "v": 79
    },
    {
      "midi": 28,
      "hit": false,
      "t": 3101.934000000001,
      "d": 281.99400000000014,
      "v": 55
    },
    {
      "midi": 40,
      "hit": false,
      "t": 3386.8654375000015,
      "d": 276.11912500000017,
      "v": 47
    },
    {
      "midi": 59,
      "hit": false,
      "t": 3665.922000000001,
      "d": 91.06056250000029,
      "v": 55
    },
    {
      "midi": 64,
      "hit": false,
      "t": 3665.922000000001,
      "d": 117.4975000000004,
      "v": 55
    },
    {
      "midi": 66,
      "hit": false,
      "t": 3668.859437500001,
      "d": 135.12212500000032,
      "v": 47
    },
    {
      "midi": 69,
      "hit": false,
      "t": 3668.859437500001,
      "d": 138.05956250000054,
      "v": 59
    },
    {
      "midi": 52,
      "hit": false,
      "t": 3674.7343125000016,
      "d": 270.2442500000002,
      "v": 75
    },
    {
      "midi": 64,
      "hit": false,
      "t": 3947.9160000000015,
      "d": 140.99699999999984,
      "v": 55
    },
    {
      "midi": 66,
      "hit": false,
      "t": 3947.9160000000015,
      "d": 164.49649999999974,
      "v": 43
    },
    {
      "midi": 69,
      "hit": false,
      "t": 3947.9160000000015,
      "d": 185.05856249999988,
      "v": 43
    },
    {
      "midi": 40,
      "hit": false,
      "t": 3947.916000000002,
      "d": 279.0565624999999,
      "v": 63
    },
    {
      "midi": 66,
      "hit": false,
      "t": 4229.910000000002,
      "d": 91.06056249999983,
      "v": 27
    },
    {
      "midi": 64,
      "hit": false,
      "t": 4229.910000000002,
      "d": 114.56006249999973,
      "v": 43
    },
    {
      "midi": 52,
      "hit": false,
      "t": 4232.847437500002,
      "d": 279.0565624999999,
      "v": 63
    },
    {
      "midi": 59,
      "hit": false,
      "t": 4511.904000000001,
      "d": 117.49749999999949,
      "v": 67
    },
    {
      "midi": 64,
      "hit": false,
      "t": 4511.904000000001,
      "d": 140.9969999999994,
      "v": 67
    },
    {
      "midi": 69,
      "hit": false,
      "t": 4514.841437500001,
      "d": 161.55906249999953,
      "v": 67
    },
    {
      "midi": 66,
      "hit": false,
      "t": 4514.841437500001,
      "d": 182.12112499999967,
      "v": 63
    },
    {
      "midi": 28,
      "hit": false,
      "t": 4517.778875000003,
      "d": 276.11912500000017,
      "v": 75
    },
    {
      "midi": 59,
      "hit": false,
      "t": 4793.898000000001,
      "d": 114.56006249999973,
      "v": 23
    },
    {
      "midi": 64,
      "hit": false,
      "t": 4796.835437500001,
      "d": 158.62162499999977,
      "v": 51
    },
    {
      "midi": 66,
      "hit": false,
      "t": 4796.835437500001,
      "d": 185.05856249999943,
      "v": 39
    },
    {
      "midi": 69,
      "hit": false,
      "t": 4796.835437500001,
      "d": 205.62062499999956,
      "v": 43
    },
    {
      "midi": 40,
      "hit": false,
      "t": 4799.772875000003,
      "d": 273.1816875000004,
      "v": 51
    },
    {
      "midi": 64,
      "hit": false,
      "t": 5072.9545625,
      "d": 140.9970000000003,
      "v": 27
    },
    {
      "midi": 59,
      "hit": false,
      "t": 5072.9545625,
      "d": 164.4965000000002,
      "v": 35
    },
    {
      "midi": 52,
      "hit": false,
      "t": 5072.954562500004,
      "d": 281.9939999999997,
      "v": 79
    },
    {
      "midi": 59,
      "hit": false,
      "t": 5354.948562500001,
      "d": 143.93443750000006,
      "v": 63
    },
    {
      "midi": 64,
      "hit": false,
      "t": 5354.948562500001,
      "d": 143.93443750000006,
      "v": 59
    },
    {
      "midi": 66,
      "hit": false,
      "t": 5360.823437500001,
      "d": 161.55906249999953,
      "v": 51
    },
    {
      "midi": 69,
      "hit": false,
      "t": 5360.823437500001,
      "d": 164.4964999999993,
      "v": 63
    },
    {
      "midi": 28,
      "hit": false,
      "t": 5363.760875000004,
      "d": 273.1816875000004,
      "v": 55
    },
    {
      "midi": 64,
      "hit": false,
      "t": 5639.88,
      "d": 138.05956249999963,
      "v": 39
    },
    {
      "midi": 66,
      "hit": false,
      "t": 5639.88,
      "d": 161.55906249999953,
      "v": 35
    },
    {
      "midi": 69,
      "hit": false,
      "t": 5639.88,
      "d": 164.4964999999993,
      "v": 27
    },
    {
      "midi": 40,
      "hit": false,
      "t": 5639.880000000004,
      "d": 279.0565624999999,
      "v": 63
    },
    {
      "midi": 64,
      "hit": false,
      "t": 5921.874,
      "d": 70.4984999999997,
      "v": 15
    },
    {
      "midi": 59,
      "hit": false,
      "t": 5921.874,
      "d": 185.05856249999943,
      "v": 43
    },
    {
      "midi": 52,
      "hit": false,
      "t": 5924.811437500004,
      "d": 279.0565624999999,
      "v": 67
    },
    {
      "midi": 59,
      "hit": false,
      "t": 6203.8679999999995,
      "d": 161.55906250000044,
      "v": 59
    },
    {
      "midi": 64,
      "hit": false,
      "t": 6203.8679999999995,
      "d": 161.55906250000044,
      "v": 63
    },
    {
      "midi": 69,
      "hit": false,
      "t": 6203.8679999999995,
      "d": 161.55906250000044,
      "v": 67
    },
    {
      "midi": 66,
      "hit": false,
      "t": 6203.8679999999995,
      "d": 187.9960000000001,
      "v": 51
    },
    {
      "midi": 40,
      "hit": false,
      "t": 6203.868000000004,
      "d": 281.9939999999997,
      "v": 35
    },
    {
      "midi": 59,
      "hit": false,
      "t": 6485.861999999999,
      "d": 114.56006249999973,
      "v": 35
    },
    {
      "midi": 64,
      "hit": false,
      "t": 6485.861999999999,
      "d": 138.05956249999963,
      "v": 47
    },
    {
      "midi": 66,
      "hit": false,
      "t": 6485.861999999999,
      "d": 161.55906249999953,
      "v": 43
    },
    {
      "midi": 69,
      "hit": false,
      "t": 6485.861999999999,
      "d": 185.05856249999943,
      "v": 39
    },
    {
      "midi": 52,
      "hit": false,
      "t": 6485.862000000004,
      "d": 281.9939999999997,
      "v": 75
    },
    {
      "midi": 64,
      "hit": false,
      "t": 6767.855999999999,
      "d": 117.4975000000004,
      "v": 27
    },
    {
      "midi": 59,
      "hit": false,
      "t": 6767.855999999999,
      "d": 138.05956250000054,
      "v": 27
    },
    {
      "midi": 28,
      "hit": false,
      "t": 6770.793437500003,
      "d": 279.0565624999999,
      "v": 83
    },
    {
      "midi": 64,
      "hit": false,
      "t": 7049.849999999999,
      "d": 161.55906249999953,
      "v": 59
    },
    {
      "midi": 59,
      "hit": false,
      "t": 7049.849999999999,
      "d": 187.99599999999919,
      "v": 63
    },
    {
      "midi": 69,
      "hit": false,
      "t": 7052.787437499999,
      "d": 161.55906249999953,
      "v": 63
    },
    {
      "midi": 66,
      "hit": false,
      "t": 7052.787437499999,
      "d": 185.05856249999943,
      "v": 51
    },
    {
      "midi": 40,
      "hit": false,
      "t": 7055.7248750000035,
      "d": 276.11912500000017,
      "v": 51
    },
    {
      "midi": 59,
      "hit": false,
      "t": 7334.781437499999,
      "d": 138.05956249999963,
      "v": 35
    },
    {
      "midi": 64,
      "hit": false,
      "t": 7334.781437499999,
      "d": 138.05956249999963,
      "v": 47
    },
    {
      "midi": 69,
      "hit": false,
      "t": 7337.718874999999,
      "d": 138.05956249999963,
      "v": 35
    },
    {
      "midi": 66,
      "hit": false,
      "t": 7337.718874999999,
      "d": 155.6841875,
      "v": 39
    },
    {
      "midi": 52,
      "hit": false,
      "t": 7337.718875000004,
      "d": 273.1816875000004,
      "v": 75
    },
    {
      "midi": 64,
      "hit": false,
      "t": 7613.837999999999,
      "d": 138.05956249999963,
      "v": 39
    },
    {
      "midi": 59,
      "hit": false,
      "t": 7613.837999999999,
      "d": 161.55906249999953,
      "v": 39
    },
    {
      "midi": 28,
      "hit": false,
      "t": 7616.775437500005,
      "d": 279.0565624999999,
      "v": 59
    },
    {
      "midi": 59,
      "hit": false,
      "t": 7895.8319999999985,
      "d": 161.55906249999953,
      "v": 59
    },
    {
      "midi": 64,
      "hit": false,
      "t": 7898.769437499998,
      "d": 138.05956249999963,
      "v": 59
    },
    {
      "midi": 66,
      "hit": false,
      "t": 7898.769437499998,
      "d": 161.55906249999953,
      "v": 47
    },
    {
      "midi": 69,
      "hit": false,
      "t": 7898.769437499998,
      "d": 185.05856249999943,
      "v": 59
    },
    {
      "midi": 40,
      "hit": false,
      "t": 7901.706875000005,
      "d": 276.11912500000017,
      "v": 47
    },
    {
      "midi": 59,
      "hit": false,
      "t": 8177.825999999997,
      "d": 140.9969999999994,
      "v": 35
    },
    {
      "midi": 64,
      "hit": false,
      "t": 8177.825999999997,
      "d": 161.55906249999862,
      "v": 51
    },
    {
      "midi": 66,
      "hit": false,
      "t": 8177.825999999997,
      "d": 187.99599999999919,
      "v": 43
    },
    {
      "midi": 69,
      "hit": false,
      "t": 8177.825999999997,
      "d": 187.99599999999919,
      "v": 43
    },
    {
      "midi": 52,
      "hit": false,
      "t": 8177.8260000000055,
      "d": 281.9939999999997,
      "v": 71
    },
    {
      "midi": 64,
      "hit": false,
      "t": 8459.819999999996,
      "d": 93.99799999999959,
      "v": 27
    },
    {
      "midi": 59,
      "hit": false,
      "t": 8459.819999999996,
      "d": 138.05956249999872,
      "v": 39
    },
    {
      "midi": 40,
      "hit": false,
      "t": 8459.820000000005,
      "d": 281.9940000000006,
      "v": 55
    },
    {
      "midi": 59,
      "hit": false,
      "t": 8741.813999999995,
      "d": 164.4964999999993,
      "v": 59
    },
    {
      "midi": 64,
      "hit": false,
      "t": 8741.813999999995,
      "d": 187.99599999999919,
      "v": 59
    },
    {
      "midi": 66,
      "hit": false,
      "t": 8741.813999999995,
      "d": 187.99599999999919,
      "v": 43
    },
    {
      "midi": 69,
      "hit": false,
      "t": 8741.813999999995,
      "d": 187.99599999999919,
      "v": 59
    },
    {
      "midi": 52,
      "hit": false,
      "t": 8741.814000000006,
      "d": 281.9940000000006,
      "v": 75
    },
    {
      "midi": 59,
      "hit": false,
      "t": 9023.807999999994,
      "d": 140.9970000000012,
      "v": 35
    },
    {
      "midi": 64,
      "hit": false,
      "t": 9026.745437499994,
      "d": 158.62162499999977,
      "v": 55
    },
    {
      "midi": 66,
      "hit": false,
      "t": 9026.745437499994,
      "d": 185.05856250000033,
      "v": 43
    },
    {
      "midi": 69,
      "hit": false,
      "t": 9026.745437499994,
      "d": 185.05856250000033,
      "v": 51
    },
    {
      "midi": 28,
      "hit": false,
      "t": 9029.682875000006,
      "d": 276.11912499999926,
      "v": 87
    },
    {
      "midi": 64,
      "hit": false,
      "t": 9305.801999999994,
      "d": 140.9969999999994,
      "v": 51
    },
    {
      "midi": 66,
      "hit": false,
      "t": 9305.801999999994,
      "d": 161.55906249999862,
      "v": 43
    },
    {
      "midi": 59,
      "hit": false,
      "t": 9305.801999999994,
      "d": 187.99599999999919,
      "v": 47
    },
    {
      "midi": 40,
      "hit": false,
      "t": 9305.802000000005,
      "d": 281.9940000000006,
      "v": 79
    },
    {
      "midi": 64,
      "hit": false,
      "t": 9587.795999999993,
      "d": 164.4964999999993,
      "v": 59
    },
    {
      "midi": 59,
      "hit": false,
      "t": 9587.795999999993,
      "d": 185.05856249999852,
      "v": 59
    },
    {
      "midi": 66,
      "hit": false,
      "t": 9587.795999999993,
      "d": 187.99599999999919,
      "v": 47
    },
    {
      "midi": 69,
      "hit": false,
      "t": 9587.795999999993,
      "d": 187.99599999999919,
      "v": 59
    },
    {
      "midi": 52,
      "hit": false,
      "t": 9587.796000000006,
      "d": 279.0565624999999,
      "v": 83
    },
    {
      "midi": 64,
      "hit": false,
      "t": 9869.789999999992,
      "d": 140.9970000000012,
      "v": 47
    },
    {
      "midi": 66,
      "hit": false,
      "t": 9869.789999999992,
      "d": 164.4965000000011,
      "v": 39
    },
    {
      "midi": 69,
      "hit": false,
      "t": 9872.727437499992,
      "d": 161.55906250000044,
      "v": 51
    },
    {
      "midi": 28,
      "hit": false,
      "t": 9872.727437500005,
      "d": 279.0565624999999,
      "v": 87
    },
    {
      "midi": 64,
      "hit": false,
      "t": 10151.783999999992,
      "d": 114.56006250000064,
      "v": 43
    },
    {
      "midi": 59,
      "hit": false,
      "t": 10151.783999999992,
      "d": 140.9970000000012,
      "v": 39
    },
    {
      "midi": 66,
      "hit": false,
      "t": 10154.721437499993,
      "d": 138.05956250000054,
      "v": 35
    },
    {
      "midi": 40,
      "hit": false,
      "t": 10154.721437500006,
      "d": 279.0565624999999,
      "v": 83
    },
    {
      "midi": 59,
      "hit": false,
      "t": 10433.777999999993,
      "d": 187.99600000000282,
      "v": 59
    },
    {
      "midi": 64,
      "hit": false,
      "t": 10436.715437499994,
      "d": 158.6216250000016,
      "v": 55
    },
    {
      "midi": 66,
      "hit": false,
      "t": 10436.715437499994,
      "d": 185.05856250000215,
      "v": 47
    },
    {
      "midi": 69,
      "hit": false,
      "t": 10439.652874999994,
      "d": 182.12112500000148,
      "v": 63
    },
    {
      "midi": 52,
      "hit": false,
      "t": 10439.652875000005,
      "d": 273.1816875000004,
      "v": 87
    },
    {
      "midi": 59,
      "hit": false,
      "t": 10715.771999999995,
      "d": 91.06056250000074,
      "v": 23
    },
    {
      "midi": 64,
      "hit": false,
      "t": 10718.709437499996,
      "d": 114.56006250000064,
      "v": 43
    },
    {
      "midi": 66,
      "hit": false,
      "t": 10718.709437499996,
      "d": 161.55906250000044,
      "v": 35
    },
    {
      "midi": 69,
      "hit": false,
      "t": 10718.709437499996,
      "d": 161.55906250000044,
      "v": 47
    },
    {
      "midi": 40,
      "hit": false,
      "t": 10721.646875000006,
      "d": 276.11912499999926,
      "v": 83
    },
    {
      "midi": 59,
      "hit": false,
      "t": 10997.765999999996,
      "d": 187.996000000001,
      "v": 43
    },
    {
      "midi": 64,
      "hit": false,
      "t": 11000.703437499997,
      "d": 158.62162499999977,
      "v": 51
    },
    {
      "midi": 66,
      "hit": false,
      "t": 11000.703437499997,
      "d": 161.55906250000044,
      "v": 39
    },
    {
      "midi": 52,
      "hit": false,
      "t": 11003.640875000005,
      "d": 276.11912499999926,
      "v": 103
    },
    {
      "midi": 59,
      "hit": false,
      "t": 11279.759999999997,
      "d": 140.9969999999994,
      "v": 59
    },
    {
      "midi": 64,
      "hit": false,
      "t": 11279.759999999997,
      "d": 161.55906249999862,
      "v": 59
    },
    {
      "midi": 66,
      "hit": false,
      "t": 11279.759999999997,
      "d": 185.05856249999852,
      "v": 51
    },
    {
      "midi": 69,
      "hit": false,
      "t": 11279.759999999997,
      "d": 187.99599999999919,
      "v": 63
    },
    {
      "midi": 28,
      "hit": false,
      "t": 11279.760000000004,
      "d": 281.9940000000006,
      "v": 111
    },
    {
      "midi": 59,
      "hit": false,
      "t": 11561.753999999995,
      "d": 114.56006250000064,
      "v": 27
    },
    {
      "midi": 64,
      "hit": false,
      "t": 11561.753999999995,
      "d": 138.05956250000054,
      "v": 35
    },
    {
      "midi": 69,
      "hit": false,
      "t": 11561.753999999995,
      "d": 140.9970000000012,
      "v": 31
    },
    {
      "midi": 66,
      "hit": false,
      "t": 11561.753999999995,
      "d": 161.55906250000044,
      "v": 31
    },
    {
      "midi": 40,
      "hit": false,
      "t": 11561.754000000004,
      "d": 281.9940000000006,
      "v": 103
    },
    {
      "midi": 59,
      "hit": false,
      "t": 11843.747999999996,
      "d": 161.55906250000044,
      "v": 47
    },
    {
      "midi": 64,
      "hit": false,
      "t": 11843.747999999996,
      "d": 164.4965000000011,
      "v": 47
    },
    {
      "midi": 66,
      "hit": false,
      "t": 11846.685437499997,
      "d": 111.62262499999997,
      "v": 31
    },
    {
      "midi": 52,
      "hit": false,
      "t": 11849.622875000005,
      "d": 276.11912499999926,
      "v": 103
    },
    {
      "midi": 59,
      "hit": false,
      "t": 12125.741999999997,
      "d": 164.4965000000011,
      "v": 67
    },
    {
      "midi": 64,
      "hit": false,
      "t": 12125.741999999997,
      "d": 187.996000000001,
      "v": 63
    },
    {
      "midi": 66,
      "hit": false,
      "t": 12128.679437499997,
      "d": 185.05856250000033,
      "v": 59
    },
    {
      "midi": 69,
      "hit": false,
      "t": 12131.616874999998,
      "d": 182.12112499999967,
      "v": 63
    },
    {
      "midi": 28,
      "hit": false,
      "t": 12131.616875000003,
      "d": 276.11912499999926,
      "v": 111
    },
    {
      "midi": 71,
      "hit": false,
      "t": 12410.673437499998,
      "d": 675.6106249999993,
      "v": 79
    },
    {
      "midi": 63,
      "hit": false,
      "t": 12410.673437499998,
      "d": 699.1101249999992,
      "v": 75
    },
    {
      "midi": 66,
      "hit": false,
      "t": 12410.673437499998,
      "d": 722.6096249999991,
      "v": 71
    },
    {
      "midi": 40,
      "hit": false,
      "t": 12410.673437500003,
      "d": 279.0565624999999,
      "v": 103
    },
    {
      "midi": 52,
      "hit": false,
      "t": 12692.667437500004,
      "d": 276.11912499999926,
      "v": 107
    },
    {
      "midi": 40,
      "hit": false,
      "t": 12971.724000000004,
      "d": 281.9940000000006,
      "v": 115
    },
    {
      "midi": 61,
      "hit": false,
      "t": 13253.717999999997,
      "d": 469.9899999999998,
      "v": 75
    },
    {
      "midi": 64,
      "hit": false,
      "t": 13253.717999999997,
      "d": 469.9899999999998,
      "v": 75
    },
    {
      "midi": 69,
      "hit": false,
      "t": 13253.717999999997,
      "d": 469.9899999999998,
      "v": 79
    },
    {
      "midi": 52,
      "hit": false,
      "t": 13253.718000000004,
      "d": 279.0565624999999,
      "v": 103
    },
    {
      "midi": 28,
      "hit": false,
      "t": 13535.712000000005,
      "d": 281.9940000000006,
      "v": 107
    },
    {
      "midi": 64,
      "hit": false,
      "t": 13817.705999999996,
      "d": 114.56006250000064,
      "v": 51
    },
    {
      "midi": 59,
      "hit": false,
      "t": 13817.705999999996,
      "d": 138.05956250000054,
      "v": 59
    },
    {
      "midi": 66,
      "hit": false,
      "t": 13817.705999999996,
      "d": 140.9970000000012,
      "v": 39
    },
    {
      "midi": 40,
      "hit": false,
      "t": 13817.706000000006,
      "d": 281.9940000000006,
      "v": 83
    },
    {
      "midi": 59,
      "hit": false,
      "t": 14099.699999999997,
      "d": 114.56006250000064,
      "v": 63
    },
    {
      "midi": 64,
      "hit": false,
      "t": 14099.699999999997,
      "d": 117.49750000000131,
      "v": 55
    },
    {
      "midi": 66,
      "hit": false,
      "t": 14099.699999999997,
      "d": 164.4965000000011,
      "v": 47
    },
    {
      "midi": 69,
      "hit": false,
      "t": 14099.699999999997,
      "d": 164.4965000000011,
      "v": 55
    },
    {
      "midi": 52,
      "hit": false,
      "t": 14099.700000000006,
      "d": 281.9940000000006,
      "v": 111
    },
    {
      "midi": 59,
      "hit": false,
      "t": 14381.693999999998,
      "d": 70.4984999999997,
      "v": 63
    },
    {
      "midi": 64,
      "hit": false,
      "t": 14381.693999999998,
      "d": 140.9969999999994,
      "v": 59
    },
    {
      "midi": 66,
      "hit": false,
      "t": 14381.693999999998,
      "d": 190.93343749999985,
      "v": 47
    },
    {
      "midi": 69,
      "hit": false,
      "t": 14381.693999999998,
      "d": 190.93343749999985,
      "v": 51
    },
    {
      "midi": 28,
      "hit": false,
      "t": 14381.694000000007,
      "d": 281.9940000000006,
      "v": 87
    },
    {
      "midi": 64,
      "hit": false,
      "t": 14663.687999999998,
      "d": 140.9969999999994,
      "v": 71
    },
    {
      "midi": 69,
      "hit": false,
      "t": 14663.687999999998,
      "d": 161.55906249999862,
      "v": 71
    },
    {
      "midi": 66,
      "hit": false,
      "t": 14663.687999999998,
      "d": 187.99599999999919,
      "v": 67
    },
    {
      "midi": 40,
      "hit": false,
      "t": 14663.688000000007,
      "d": 281.9940000000006,
      "v": 95
    },
    {
      "midi": 64,
      "hit": false,
      "t": 14948.619437499998,
      "d": 135.12212499999987,
      "v": 51
    },
    {
      "midi": 59,
      "hit": false,
      "t": 14948.619437499998,
      "d": 161.55906250000044,
      "v": 43
    },
    {
      "midi": 66,
      "hit": false,
      "t": 14948.619437499998,
      "d": 161.55906250000044,
      "v": 43
    },
    {
      "midi": 52,
      "hit": false,
      "t": 14951.556875000007,
      "d": 279.0565624999999,
      "v": 99
    },
    {
      "midi": 64,
      "hit": false,
      "t": 15230.613437499998,
      "d": 161.55906250000044,
      "v": 59
    },
    {
      "midi": 66,
      "hit": false,
      "t": 15230.613437499998,
      "d": 161.55906250000044,
      "v": 51
    },
    {
      "midi": 69,
      "hit": false,
      "t": 15230.613437499998,
      "d": 161.55906250000044,
      "v": 55
    },
    {
      "midi": 40,
      "hit": false,
      "t": 15236.488312500007,
      "d": 276.11912499999926,
      "v": 67
    },
    {
      "midi": 64,
      "hit": false,
      "t": 15512.607437499999,
      "d": 138.05956250000054,
      "v": 51
    },
    {
      "midi": 66,
      "hit": false,
      "t": 15512.607437499999,
      "d": 138.05956250000054,
      "v": 35
    },
    {
      "midi": 69,
      "hit": false,
      "t": 15512.607437499999,
      "d": 158.62162499999977,
      "v": 47
    },
    {
      "midi": 52,
      "hit": false,
      "t": 15512.607437500006,
      "d": 279.0565624999999,
      "v": 107
    },
    {
      "midi": 64,
      "hit": false,
      "t": 15791.663999999999,
      "d": 140.9969999999994,
      "v": 63
    },
    {
      "midi": 66,
      "hit": false,
      "t": 15791.663999999999,
      "d": 161.55906249999862,
      "v": 51
    },
    {
      "midi": 69,
      "hit": false,
      "t": 15791.663999999999,
      "d": 161.55906249999862,
      "v": 59
    },
    {
      "midi": 28,
      "hit": false,
      "t": 15791.664000000006,
      "d": 281.9940000000006,
      "v": 99
    },
    {
      "midi": 59,
      "hit": false,
      "t": 16073.657999999998,
      "d": 91.06056250000074,
      "v": 47
    },
    {
      "midi": 64,
      "hit": false,
      "t": 16073.657999999998,
      "d": 114.56006250000064,
      "v": 51
    },
    {
      "midi": 66,
      "hit": false,
      "t": 16076.595437499998,
      "d": 132.1846874999992,
      "v": 43
    },
    {
      "midi": 40,
      "hit": false,
      "t": 16079.532875000006,
      "d": 276.11912499999926,
      "v": 83
    },
    {
      "midi": 69,
      "hit": false,
      "t": 16355.651999999998,
      "d": 96.93543750000026,
      "v": 43
    },
    {
      "midi": 71,
      "hit": false,
      "t": 16358.589437499999,
      "d": 67.56106250000084,
      "v": 39
    },
    {
      "midi": 76,
      "hit": false,
      "t": 16358.589437499999,
      "d": 138.05956249999872,
      "v": 63
    },
    {
      "midi": 52,
      "hit": false,
      "t": 16361.526875000005,
      "d": 276.11912499999926,
      "v": 107
    },
    {
      "midi": 64,
      "hit": false,
      "t": 16637.645999999997,
      "d": 140.9969999999994,
      "v": 63
    },
    {
      "midi": 66,
      "hit": false,
      "t": 16640.583437499998,
      "d": 161.55906250000044,
      "v": 55
    },
    {
      "midi": 69,
      "hit": false,
      "t": 16640.583437499998,
      "d": 161.55906250000044,
      "v": 55
    },
    {
      "midi": 76,
      "hit": false,
      "t": 16640.583437499998,
      "d": 164.4965000000011,
      "v": 55
    },
    {
      "midi": 28,
      "hit": false,
      "t": 16640.583437500005,
      "d": 279.05656250000175,
      "v": 91
    },
    {
      "midi": 64,
      "hit": false,
      "t": 16919.64,
      "d": 140.9969999999994,
      "v": 59
    },
    {
      "midi": 66,
      "hit": false,
      "t": 16919.64,
      "d": 140.9969999999994,
      "v": 59
    },
    {
      "midi": 69,
      "hit": false,
      "t": 16919.64,
      "d": 161.55906250000044,
      "v": 59
    },
    {
      "midi": 76,
      "hit": false,
      "t": 16919.64,
      "d": 164.4965000000011,
      "v": 67
    },
    {
      "midi": 40,
      "hit": false,
      "t": 16919.640000000007,
      "d": 281.9939999999988,
      "v": 79
    },
    {
      "midi": 64,
      "hit": false,
      "t": 17201.634000000002,
      "d": 161.55906250000044,
      "v": 59
    },
    {
      "midi": 66,
      "hit": false,
      "t": 17201.634000000002,
      "d": 161.55906250000044,
      "v": 55
    },
    {
      "midi": 76,
      "hit": false,
      "t": 17201.634000000002,
      "d": 161.55906250000044,
      "v": 63
    },
    {
      "midi": 69,
      "hit": false,
      "t": 17201.634000000002,
      "d": 190.93343749999985,
      "v": 55
    },
    {
      "midi": 52,
      "hit": false,
      "t": 17201.634000000005,
      "d": 281.9939999999988,
      "v": 103
    },
    {
      "midi": 64,
      "hit": false,
      "t": 17483.628,
      "d": 167.43393750000178,
      "v": 59
    },
    {
      "midi": 66,
      "hit": false,
      "t": 17483.628,
      "d": 167.43393750000178,
      "v": 59
    },
    {
      "midi": 69,
      "hit": false,
      "t": 17483.628,
      "d": 187.99600000000282,
      "v": 63
    },
    {
      "midi": 76,
      "hit": false,
      "t": 17483.628,
      "d": 187.99600000000282,
      "v": 67
    },
    {
      "midi": 40,
      "hit": false,
      "t": 17483.628000000004,
      "d": 281.9939999999988,
      "v": 87
    },
    {
      "midi": 64,
      "hit": false,
      "t": 17765.622000000003,
      "d": 114.56006250000064,
      "v": 63
    },
    {
      "midi": 66,
      "hit": false,
      "t": 17765.622000000003,
      "d": 117.49750000000131,
      "v": 59
    },
    {
      "midi": 69,
      "hit": false,
      "t": 17765.622000000003,
      "d": 138.05956250000236,
      "v": 59
    },
    {
      "midi": 76,
      "hit": false,
      "t": 17765.622000000003,
      "d": 164.4965000000011,
      "v": 71
    },
    {
      "midi": 52,
      "hit": false,
      "t": 17765.622000000003,
      "d": 284.93143749999945,
      "v": 107
    },
    {
      "midi": 66,
      "hit": false,
      "t": 18050.553437500002,
      "d": 67.56106250000084,
      "v": 67
    },
    {
      "midi": 64,
      "hit": false,
      "t": 18050.553437500002,
      "d": 111.62262500000361,
      "v": 75
    },
    {
      "midi": 69,
      "hit": false,
      "t": 18053.490875000003,
      "d": 85.18568750000122,
      "v": 71
    },
    {
      "midi": 76,
      "hit": false,
      "t": 18053.490875000003,
      "d": 111.62262500000361,
      "v": 75
    },
    {
      "midi": 28,
      "hit": false,
      "t": 18056.428312500004,
      "d": 273.1816875000004,
      "v": 107
    },
    {
      "midi": 40,
      "hit": false,
      "t": 18329.610000000004,
      "d": 279.05656250000175,
      "v": 107
    },
    {
      "midi": 66,
      "hit": false,
      "t": 18329.610000000008,
      "d": 91.06056249999892,
      "v": 47
    },
    {
      "midi": 64,
      "hit": false,
      "t": 18329.610000000008,
      "d": 114.56006250000064,
      "v": 51
    },
    {
      "midi": 69,
      "hit": false,
      "t": 18329.610000000008,
      "d": 114.56006250000064,
      "v": 51
    },
    {
      "midi": 66,
      "hit": false,
      "t": 18611.60400000001,
      "d": 91.06056249999892,
      "v": 63
    },
    {
      "midi": 64,
      "hit": false,
      "t": 18611.60400000001,
      "d": 117.49749999999767,
      "v": 71
    },
    {
      "midi": 69,
      "hit": false,
      "t": 18611.60400000001,
      "d": 120.43493749999834,
      "v": 63
    },
    {
      "midi": 76,
      "hit": false,
      "t": 18614.54143750001,
      "d": 117.49749999999767,
      "v": 71
    },
    {
      "midi": 52,
      "hit": false,
      "t": 18617.478875000004,
      "d": 276.1191250000011,
      "v": 111
    },
    {
      "midi": 28,
      "hit": false,
      "t": 18893.598000000005,
      "d": 281.9939999999988,
      "v": 107
    },
    {
      "midi": 64,
      "hit": false,
      "t": 18893.59800000001,
      "d": 117.49750000000131,
      "v": 39
    },
    {
      "midi": 66,
      "hit": false,
      "t": 18893.59800000001,
      "d": 117.49750000000131,
      "v": 43
    },
    {
      "midi": 69,
      "hit": false,
      "t": 18893.59800000001,
      "d": 117.49750000000131,
      "v": 47
    },
    {
      "midi": 40,
      "hit": false,
      "t": 19175.592000000004,
      "d": 281.9939999999988,
      "v": 111
    },
    {
      "midi": 64,
      "hit": false,
      "t": 19175.59200000001,
      "d": 114.56006250000064,
      "v": 63
    },
    {
      "midi": 66,
      "hit": false,
      "t": 19175.59200000001,
      "d": 117.49750000000131,
      "v": 59
    },
    {
      "midi": 76,
      "hit": false,
      "t": 19175.59200000001,
      "d": 117.49750000000131,
      "v": 67
    },
    {
      "midi": 69,
      "hit": false,
      "t": 19175.59200000001,
      "d": 138.05956250000236,
      "v": 59
    },
    {
      "midi": 64,
      "hit": false,
      "t": 19457.586000000014,
      "d": 93.99799999999959,
      "v": 51
    },
    {
      "midi": 66,
      "hit": false,
      "t": 19460.523437500015,
      "d": 93.99799999999959,
      "v": 47
    },
    {
      "midi": 69,
      "hit": false,
      "t": 19460.523437500015,
      "d": 114.56006250000064,
      "v": 55
    },
    {
      "midi": 52,
      "hit": false,
      "t": 19463.460875000004,
      "d": 276.1191250000011,
      "v": 115
    },
    {
      "midi": 64,
      "hit": false,
      "t": 19739.580000000016,
      "d": 93.99799999999959,
      "v": 71
    },
    {
      "midi": 66,
      "hit": false,
      "t": 19739.580000000016,
      "d": 93.99799999999959,
      "v": 63
    },
    {
      "midi": 69,
      "hit": false,
      "t": 19742.517437500017,
      "d": 111.62262499999997,
      "v": 67
    },
    {
      "midi": 76,
      "hit": false,
      "t": 19742.517437500017,
      "d": 138.05956249999872,
      "v": 71
    },
    {
      "midi": 40,
      "hit": false,
      "t": 19745.454875000007,
      "d": 276.1191250000011,
      "v": 111
    },
    {
      "midi": 52,
      "hit": false,
      "t": 20021.574000000008,
      "d": 281.9939999999988,
      "v": 127
    },
    {
      "midi": 64,
      "hit": false,
      "t": 20021.574000000015,
      "d": 93.99799999999959,
      "v": 59
    },
    {
      "midi": 66,
      "hit": false,
      "t": 20021.574000000015,
      "d": 93.99799999999959,
      "v": 51
    },
    {
      "midi": 69,
      "hit": false,
      "t": 20021.574000000015,
      "d": 117.49750000000131,
      "v": 55
    },
    {
      "midi": 64,
      "hit": false,
      "t": 20306.505437500018,
      "d": 91.06056249999892,
      "v": 75
    },
    {
      "midi": 66,
      "hit": false,
      "t": 20306.505437500018,
      "d": 114.56006250000064,
      "v": 67
    },
    {
      "midi": 69,
      "hit": false,
      "t": 20306.505437500018,
      "d": 138.05956250000236,
      "v": 71
    },
    {
      "midi": 76,
      "hit": false,
      "t": 20306.505437500018,
      "d": 138.05956250000236,
      "v": 75
    },
    {
      "midi": 28,
      "hit": false,
      "t": 20309.442875000008,
      "d": 276.1191250000011,
      "v": 127
    },
    {
      "midi": 64,
      "hit": false,
      "t": 20585.56200000002,
      "d": 117.49750000000131,
      "v": 55
    },
    {
      "midi": 66,
      "hit": false,
      "t": 20585.56200000002,
      "d": 117.49750000000131,
      "v": 51
    },
    {
      "midi": 40,
      "hit": false,
      "t": 20588.49943750001,
      "d": 279.05656250000175,
      "v": 127
    },
    {
      "midi": 69,
      "hit": false,
      "t": 20588.49943750002,
      "d": 114.56006250000064,
      "v": 55
    },
    {
      "midi": 64,
      "hit": false,
      "t": 20867.556000000022,
      "d": 114.56006250000064,
      "v": 75
    },
    {
      "midi": 66,
      "hit": false,
      "t": 20870.493437500023,
      "d": 138.05956249999872,
      "v": 67
    },
    {
      "midi": 76,
      "hit": false,
      "t": 20870.493437500023,
      "d": 138.05956249999872,
      "v": 75
    },
    {
      "midi": 69,
      "hit": false,
      "t": 20870.493437500023,
      "d": 182.12112499999785,
      "v": 75
    },
    {
      "midi": 52,
      "hit": false,
      "t": 20876.36831250001,
      "d": 273.1816875000004,
      "v": 127
    },
    {
      "midi": 64,
      "hit": false,
      "t": 21149.55000000002,
      "d": 93.99799999999959,
      "v": 67
    },
    {
      "midi": 28,
      "hit": false,
      "t": 21152.48743750001,
      "d": 279.05656250000175,
      "v": 127
    },
    {
      "midi": 66,
      "hit": false,
      "t": 21152.48743750002,
      "d": 91.06056249999892,
      "v": 63
    },
    {
      "midi": 69,
      "hit": false,
      "t": 21152.48743750002,
      "d": 91.06056249999892,
      "v": 63
    },
    {
      "midi": 66,
      "hit": false,
      "t": 21434.48143750002,
      "d": 487.61462499999834,
      "v": 71
    },
    {
      "midi": 63,
      "hit": false,
      "t": 21434.48143750002,
      "d": 631.5490624999984,
      "v": 75
    },
    {
      "midi": 71,
      "hit": false,
      "t": 21434.48143750002,
      "d": 652.1111249999994,
      "v": 79
    },
    {
      "midi": 40,
      "hit": false,
      "t": 21440.35631250001,
      "d": 273.1816875000004,
      "v": 127
    },
    {
      "midi": 52,
      "hit": false,
      "t": 21713.53800000001,
      "d": 281.9939999999988,
      "v": 127
    },
    {
      "midi": 40,
      "hit": false,
      "t": 21995.53200000001,
      "d": 284.93143749999945,
      "v": 127
    },
    {
      "midi": 61,
      "hit": false,
      "t": 22283.40087500002,
      "d": 343.6801875000019,
      "v": 75
    },
    {
      "midi": 64,
      "hit": false,
      "t": 22286.338312500022,
      "d": 434.74075000000084,
      "v": 75
    },
    {
      "midi": 69,
      "hit": false,
      "t": 22286.338312500022,
      "d": 464.11512500000026,
      "v": 63
    },
    {
      "midi": 52,
      "hit": false,
      "t": 22292.21318750001,
      "d": 264.3693749999984,
      "v": 103
    },
    {
      "midi": 28,
      "hit": false,
      "t": 22559.520000000008,
      "d": 281.9939999999988,
      "v": 107
    },
    {
      "midi": 59,
      "hit": false,
      "t": 22841.51400000002,
      "d": 140.9969999999994,
      "v": 59
    },
    {
      "midi": 64,
      "hit": false,
      "t": 22841.51400000002,
      "d": 140.9969999999994,
      "v": 51
    },
    {
      "midi": 40,
      "hit": false,
      "t": 22844.451437500007,
      "d": 279.05656250000175,
      "v": 83
    },
    {
      "midi": 66,
      "hit": false,
      "t": 22844.45143750002,
      "d": 138.05956249999872,
      "v": 39
    },
    {
      "midi": 59,
      "hit": false,
      "t": 23123.50800000002,
      "d": 114.56006250000064,
      "v": 71
    },
    {
      "midi": 64,
      "hit": false,
      "t": 23123.50800000002,
      "d": 114.56006250000064,
      "v": 59
    },
    {
      "midi": 66,
      "hit": false,
      "t": 23123.50800000002,
      "d": 140.9969999999994,
      "v": 59
    },
    {
      "midi": 52,
      "hit": false,
      "t": 23126.44543750001,
      "d": 284.93143749999945,
      "v": 111
    },
    {
      "midi": 69,
      "hit": false,
      "t": 23126.44543750002,
      "d": 138.05956249999872,
      "v": 67
    },
    {
      "midi": 28,
      "hit": false,
      "t": 23411.37687500001,
      "d": 279.05656250000175,
      "v": 87
    },
    {
      "midi": 59,
      "hit": false,
      "t": 23411.37687500002,
      "d": 108.6851874999993,
      "v": 63
    },
    {
      "midi": 64,
      "hit": false,
      "t": 23411.37687500002,
      "d": 111.62262499999997,
      "v": 55
    },
    {
      "midi": 66,
      "hit": false,
      "t": 23411.37687500002,
      "d": 111.62262499999997,
      "v": 47
    },
    {
      "midi": 69,
      "hit": false,
      "t": 23411.37687500002,
      "d": 138.05956249999872,
      "v": 55
    },
    {
      "midi": 40,
      "hit": false,
      "t": 23690.43343750001,
      "d": 279.05656250000175,
      "v": 95
    },
    {
      "midi": 59,
      "hit": false,
      "t": 23690.433437500018,
      "d": 111.62262499999997,
      "v": 71
    },
    {
      "midi": 64,
      "hit": false,
      "t": 23690.433437500018,
      "d": 114.56006250000064,
      "v": 67
    },
    {
      "midi": 69,
      "hit": false,
      "t": 23690.433437500018,
      "d": 114.56006250000064,
      "v": 67
    },
    {
      "midi": 66,
      "hit": false,
      "t": 23690.433437500018,
      "d": 138.05956250000236,
      "v": 63
    },
    {
      "midi": 59,
      "hit": false,
      "t": 23969.49000000002,
      "d": 120.43493749999834,
      "v": 35
    },
    {
      "midi": 64,
      "hit": false,
      "t": 23972.42743750002,
      "d": 91.06056249999892,
      "v": 43
    },
    {
      "midi": 66,
      "hit": false,
      "t": 23972.42743750002,
      "d": 117.49749999999767,
      "v": 43
    },
    {
      "midi": 52,
      "hit": false,
      "t": 23975.364875000014,
      "d": 276.1191250000011,
      "v": 99
    },
    {
      "midi": 40,
      "hit": false,
      "t": 24251.484000000015,
      "d": 281.9939999999988,
      "v": 67
    },
    {
      "midi": 59,
      "hit": false,
      "t": 24251.48400000002,
      "d": 91.06056249999892,
      "v": 63
    },
    {
      "midi": 64,
      "hit": false,
      "t": 24251.48400000002,
      "d": 93.99799999999959,
      "v": 63
    },
    {
      "midi": 66,
      "hit": false,
      "t": 24251.48400000002,
      "d": 140.9969999999994,
      "v": 63
    },
    {
      "midi": 69,
      "hit": false,
      "t": 24251.48400000002,
      "d": 140.9969999999994,
      "v": 67
    },
    {
      "midi": 52,
      "hit": false,
      "t": 24533.478000000014,
      "d": 281.9939999999988,
      "v": 107
    },
    {
      "midi": 59,
      "hit": false,
      "t": 24533.478000000017,
      "d": 93.99799999999959,
      "v": 43
    },
    {
      "midi": 64,
      "hit": false,
      "t": 24533.478000000017,
      "d": 96.93543750000026,
      "v": 43
    },
    {
      "midi": 66,
      "hit": false,
      "t": 24533.478000000017,
      "d": 114.56006250000064,
      "v": 43
    },
    {
      "midi": 59,
      "hit": false,
      "t": 24818.409437500017,
      "d": 91.06056249999892,
      "v": 67
    },
    {
      "midi": 64,
      "hit": false,
      "t": 24818.409437500017,
      "d": 91.06056249999892,
      "v": 63
    },
    {
      "midi": 66,
      "hit": false,
      "t": 24818.409437500017,
      "d": 138.05956249999872,
      "v": 63
    },
    {
      "midi": 69,
      "hit": false,
      "t": 24821.346875000017,
      "d": 135.12212499999805,
      "v": 71
    },
    {
      "midi": 28,
      "hit": false,
      "t": 24824.28431250001,
      "d": 273.1816875000004,
      "v": 99
    },
    {
      "midi": 59,
      "hit": false,
      "t": 25097.466000000015,
      "d": 93.99800000000323,
      "v": 43
    },
    {
      "midi": 64,
      "hit": false,
      "t": 25100.403437500016,
      "d": 67.56106250000084,
      "v": 39
    },
    {
      "midi": 66,
      "hit": false,
      "t": 25100.403437500016,
      "d": 111.62262500000361,
      "v": 47
    },
    {
      "midi": 40,
      "hit": false,
      "t": 25103.340875000013,
      "d": 276.1191250000011,
      "v": 83
    },
    {
      "midi": 64,
      "hit": false,
      "t": 25379.46000000002,
      "d": 93.99799999999959,
      "v": 59
    },
    {
      "midi": 59,
      "hit": false,
      "t": 25379.46000000002,
      "d": 117.49750000000131,
      "v": 63
    },
    {
      "midi": 66,
      "hit": false,
      "t": 25382.39743750002,
      "d": 114.56006250000064,
      "v": 55
    },
    {
      "midi": 69,
      "hit": false,
      "t": 25382.39743750002,
      "d": 114.56006250000064,
      "v": 63
    },
    {
      "midi": 52,
      "hit": false,
      "t": 25385.334875000015,
      "d": 276.1191250000011,
      "v": 107
    },
    {
      "midi": 28,
      "hit": false,
      "t": 25661.454000000016,
      "d": 279.05656250000175,
      "v": 91
    },
    {
      "midi": 64,
      "hit": false,
      "t": 25661.454000000023,
      "d": 67.56106250000084,
      "v": 43
    },
    {
      "midi": 59,
      "hit": false,
      "t": 25661.454000000023,
      "d": 93.99799999999959,
      "v": 43
    },
    {
      "midi": 69,
      "hit": false,
      "t": 25661.454000000023,
      "d": 93.99799999999959,
      "v": 51
    },
    {
      "midi": 66,
      "hit": false,
      "t": 25661.454000000023,
      "d": 114.56006250000064,
      "v": 39
    },
    {
      "midi": 40,
      "hit": false,
      "t": 25943.44800000002,
      "d": 284.93143749999945,
      "v": 79
    },
    {
      "midi": 59,
      "hit": false,
      "t": 25943.448000000026,
      "d": 91.06056249999892,
      "v": 71
    },
    {
      "midi": 64,
      "hit": false,
      "t": 25943.448000000026,
      "d": 93.99799999999959,
      "v": 63
    },
    {
      "midi": 69,
      "hit": false,
      "t": 25943.448000000026,
      "d": 114.56006250000064,
      "v": 71
    },
    {
      "midi": 66,
      "hit": false,
      "t": 25943.448000000026,
      "d": 140.9969999999994,
      "v": 59
    },
    {
      "midi": 52,
      "hit": false,
      "t": 26228.379437500018,
      "d": 279.05656250000175,
      "v": 103
    },
    {
      "midi": 59,
      "hit": false,
      "t": 26228.379437500025,
      "d": 91.06056249999892,
      "v": 43
    },
    {
      "midi": 64,
      "hit": false,
      "t": 26228.379437500025,
      "d": 91.06056249999892,
      "v": 55
    },
    {
      "midi": 40,
      "hit": false,
      "t": 26507.43600000002,
      "d": 279.05656250000175,
      "v": 87
    },
    {
      "midi": 59,
      "hit": false,
      "t": 26507.436000000023,
      "d": 93.99799999999959,
      "v": 63
    },
    {
      "midi": 64,
      "hit": false,
      "t": 26507.436000000023,
      "d": 93.99799999999959,
      "v": 55
    },
    {
      "midi": 66,
      "hit": false,
      "t": 26507.436000000023,
      "d": 140.9969999999994,
      "v": 67
    },
    {
      "midi": 69,
      "hit": false,
      "t": 26507.436000000023,
      "d": 140.9969999999994,
      "v": 67
    },
    {
      "midi": 66,
      "hit": false,
      "t": 26789.430000000022,
      "d": 67.56106250000084,
      "v": 27
    },
    {
      "midi": 59,
      "hit": false,
      "t": 26789.430000000022,
      "d": 91.06056250000256,
      "v": 47
    },
    {
      "midi": 52,
      "hit": false,
      "t": 26792.367437500023,
      "d": 279.05656250000175,
      "v": 107
    },
    {
      "midi": 64,
      "hit": false,
      "t": 27071.424000000025,
      "d": 117.49750000000131,
      "v": 75
    },
    {
      "midi": 66,
      "hit": false,
      "t": 27071.424000000025,
      "d": 117.49750000000131,
      "v": 71
    },
    {
      "midi": 69,
      "hit": false,
      "t": 27071.424000000025,
      "d": 140.99700000000303,
      "v": 71
    },
    {
      "midi": 76,
      "hit": false,
      "t": 27071.424000000025,
      "d": 140.99700000000303,
      "v": 75
    },
    {
      "midi": 28,
      "hit": false,
      "t": 27071.424000000025,
      "d": 281.9939999999988,
      "v": 107
    },
    {
      "midi": 40,
      "hit": false,
      "t": 27353.418000000023,
      "d": 281.9939999999988,
      "v": 107
    },
    {
      "midi": 64,
      "hit": false,
      "t": 27353.418000000027,
      "d": 93.99799999999959,
      "v": 39
    },
    {
      "midi": 66,
      "hit": false,
      "t": 27353.418000000027,
      "d": 114.56006250000064,
      "v": 43
    },
    {
      "midi": 69,
      "hit": false,
      "t": 27353.418000000027,
      "d": 117.49750000000131,
      "v": 43
    },
    {
      "midi": 52,
      "hit": false,
      "t": 27635.412000000022,
      "d": 281.9939999999988,
      "v": 111
    },
    {
      "midi": 64,
      "hit": false,
      "t": 27635.41200000003,
      "d": 91.06056249999892,
      "v": 67
    },
    {
      "midi": 66,
      "hit": false,
      "t": 27635.41200000003,
      "d": 114.56006250000064,
      "v": 59
    },
    {
      "midi": 69,
      "hit": false,
      "t": 27635.41200000003,
      "d": 117.49750000000131,
      "v": 59
    },
    {
      "midi": 76,
      "hit": false,
      "t": 27635.41200000003,
      "d": 140.99700000000303,
      "v": 71
    },
    {
      "midi": 28,
      "hit": false,
      "t": 27917.40600000002,
      "d": 281.9939999999988,
      "v": 107
    },
    {
      "midi": 64,
      "hit": false,
      "t": 27917.40600000003,
      "d": 91.06056249999892,
      "v": 51
    },
    {
      "midi": 66,
      "hit": false,
      "t": 27917.40600000003,
      "d": 91.06056249999892,
      "v": 51
    },
    {
      "midi": 69,
      "hit": false,
      "t": 27917.40600000003,
      "d": 117.49749999999767,
      "v": 51
    },
    {
      "midi": 40,
      "hit": false,
      "t": 28199.40000000002,
      "d": 281.9939999999988,
      "v": 111
    },
    {
      "midi": 64,
      "hit": false,
      "t": 28199.40000000003,
      "d": 93.99799999999959,
      "v": 59
    },
    {
      "midi": 66,
      "hit": false,
      "t": 28199.40000000003,
      "d": 117.49750000000131,
      "v": 55
    },
    {
      "midi": 76,
      "hit": false,
      "t": 28199.40000000003,
      "d": 120.43493750000198,
      "v": 71
    },
    {
      "midi": 69,
      "hit": false,
      "t": 28199.40000000003,
      "d": 140.99700000000303,
      "v": 51
    },
    {
      "midi": 52,
      "hit": false,
      "t": 28481.39400000002,
      "d": 281.9939999999988,
      "v": 115
    },
    {
      "midi": 64,
      "hit": false,
      "t": 28481.394000000033,
      "d": 93.99799999999959,
      "v": 27
    },
    {
      "midi": 66,
      "hit": false,
      "t": 28481.394000000033,
      "d": 114.56006250000064,
      "v": 27
    },
    {
      "midi": 69,
      "hit": false,
      "t": 28481.394000000033,
      "d": 117.49750000000131,
      "v": 35
    },
    {
      "midi": 40,
      "hit": false,
      "t": 28763.388000000017,
      "d": 281.9939999999988,
      "v": 111
    },
    {
      "midi": 64,
      "hit": false,
      "t": 28763.388000000035,
      "d": 114.56006250000064,
      "v": 75
    },
    {
      "midi": 66,
      "hit": false,
      "t": 28763.388000000035,
      "d": 117.49750000000131,
      "v": 67
    },
    {
      "midi": 69,
      "hit": false,
      "t": 28763.388000000035,
      "d": 117.49750000000131,
      "v": 71
    },
    {
      "midi": 76,
      "hit": false,
      "t": 28763.388000000035,
      "d": 120.43493750000198,
      "v": 75
    },
    {
      "midi": 64,
      "hit": false,
      "t": 29048.31943750004,
      "d": 91.06056249999892,
      "v": 47
    },
    {
      "midi": 66,
      "hit": false,
      "t": 29048.31943750004,
      "d": 91.06056249999892,
      "v": 43
    },
    {
      "midi": 69,
      "hit": false,
      "t": 29051.25687500004,
      "d": 111.62262499999997,
      "v": 47
    },
    {
      "midi": 52,
      "hit": false,
      "t": 29054.194312500014,
      "d": 273.1816875000004,
      "v": 127
    },
    {
      "midi": 64,
      "hit": false,
      "t": 29327.37600000004,
      "d": 67.56106250000084,
      "v": 59
    },
    {
      "midi": 66,
      "hit": false,
      "t": 29327.37600000004,
      "d": 93.99799999999959,
      "v": 59
    },
    {
      "midi": 76,
      "hit": false,
      "t": 29330.31343750004,
      "d": 117.49749999999767,
      "v": 71
    },
    {
      "midi": 69,
      "hit": false,
      "t": 29330.31343750004,
      "d": 138.05956249999872,
      "v": 59
    },
    {
      "midi": 28,
      "hit": false,
      "t": 29333.250875000016,
      "d": 276.1191250000011,
      "v": 127
    },
    {
      "midi": 64,
      "hit": false,
      "t": 29609.37000000004,
      "d": 91.06056249999892,
      "v": 59
    },
    {
      "midi": 66,
      "hit": false,
      "t": 29612.30743750004,
      "d": 91.06056249999892,
      "v": 55
    },
    {
      "midi": 69,
      "hit": false,
      "t": 29612.30743750004,
      "d": 114.56006250000064,
      "v": 59
    },
    {
      "midi": 40,
      "hit": false,
      "t": 29615.24487500002,
      "d": 276.1191250000011,
      "v": 127
    },
    {
      "midi": 64,
      "hit": false,
      "t": 29894.301437500042,
      "d": 111.62262499999997,
      "v": 75
    },
    {
      "midi": 66,
      "hit": false,
      "t": 29894.301437500042,
      "d": 135.1221250000017,
      "v": 71
    },
    {
      "midi": 69,
      "hit": false,
      "t": 29894.301437500042,
      "d": 158.6216250000034,
      "v": 75
    },
    {
      "midi": 52,
      "hit": false,
      "t": 29897.23887500002,
      "d": 276.1191250000011,
      "v": 127
    },
    {
      "midi": 76,
      "hit": false,
      "t": 29897.238875000043,
      "d": 132.18468750000102,
      "v": 75
    },
    {
      "midi": 28,
      "hit": false,
      "t": 30173.358000000022,
      "d": 281.9939999999988,
      "v": 127
    },
    {
      "midi": 64,
      "hit": false,
      "t": 30173.358000000044,
      "d": 117.49750000000131,
      "v": 71
    },
    {
      "midi": 66,
      "hit": false,
      "t": 30173.358000000044,
      "d": 140.99700000000303,
      "v": 67
    },
    {
      "midi": 69,
      "hit": false,
      "t": 30173.358000000044,
      "d": 161.55906250000407,
      "v": 71
    },
    {
      "midi": 40,
      "hit": false,
      "t": 30458.28943750002,
      "d": 279.05656250000175,
      "v": 127
    },
    {
      "midi": 52,
      "hit": false,
      "t": 30737.346000000023,
      "d": 279.05656250000175,
      "v": 127
    },
    {
      "midi": 40,
      "hit": false,
      "t": 31019.340000000026,
      "d": 281.9939999999988,
      "v": 127
    },
    {
      "midi": 52,
      "hit": false,
      "t": 31301.334000000024,
      "d": 284.93143749999945,
      "v": 103
    },
    {
      "midi": 28,
      "hit": false,
      "t": 31589.202875000025,
      "d": 273.1816875000004,
      "v": 107
    },
    {
      "midi": 40,
      "hit": false,
      "t": 31865.322000000026,
      "d": 279.05656250000175,
      "v": 83
    },
    {
      "midi": 52,
      "hit": false,
      "t": 32150.25343750003,
      "d": 279.05656250000175,
      "v": 111
    },
    {
      "midi": 28,
      "hit": false,
      "t": 32429.31000000003,
      "d": 279.05656250000175,
      "v": 87
    },
    {
      "midi": 40,
      "hit": false,
      "t": 32711.304000000033,
      "d": 281.9939999999988,
      "v": 95
    },
    {
      "midi": 52,
      "hit": false,
      "t": 32996.23543750003,
      "d": 279.05656250000175,
      "v": 99
    },
    {
      "midi": 40,
      "hit": false,
      "t": 33275.29200000003,
      "d": 279.05656250000175,
      "v": 67
    },
    {
      "midi": 52,
      "hit": false,
      "t": 33557.28600000003,
      "d": 279.05656250000175,
      "v": 107
    },
    {
      "midi": 28,
      "hit": false,
      "t": 33836.34256250003,
      "d": 281.9939999999988,
      "v": 99
    },
    {
      "midi": 40,
      "hit": false,
      "t": 34121.27400000003,
      "d": 279.05656250000175,
      "v": 83
    },
    {
      "midi": 52,
      "hit": false,
      "t": 34403.268000000025,
      "d": 279.05656250000175,
      "v": 107
    },
    {
      "midi": 28,
      "hit": false,
      "t": 34688.19943750003,
      "d": 276.11912499999744,
      "v": 91
    },
    {
      "midi": 40,
      "hit": false,
      "t": 34973.130875000024,
      "d": 273.1816875000004,
      "v": 103
    },
    {
      "midi": 52,
      "hit": false,
      "t": 35249.25000000002,
      "d": 279.05656250000175,
      "v": 107
    },
    {
      "midi": 40,
      "hit": false,
      "t": 35531.24400000002,
      "d": 284.9314375000031,
      "v": 115
    },
    {
      "midi": 52,
      "hit": false,
      "t": 35822.050312500025,
      "d": 270.2442500000034,
      "v": 103
    },
    {
      "midi": 28,
      "hit": false,
      "t": 36095.232000000025,
      "d": 279.05656250000175,
      "v": 107
    },
    {
      "midi": 40,
      "hit": false,
      "t": 36377.226000000024,
      "d": 279.05656250000175,
      "v": 83
    },
    {
      "midi": 52,
      "hit": false,
      "t": 36659.22000000002,
      "d": 281.9939999999988,
      "v": 111
    },
    {
      "midi": 28,
      "hit": false,
      "t": 36944.15143750002,
      "d": 279.05656250000175,
      "v": 87
    },
    {
      "midi": 40,
      "hit": false,
      "t": 37226.14543750002,
      "d": 276.11912499999744,
      "v": 95
    },
    {
      "midi": 52,
      "hit": false,
      "t": 37502.264562500015,
      "d": 281.9939999999988,
      "v": 99
    },
    {
      "midi": 40,
      "hit": false,
      "t": 37787.19600000001,
      "d": 279.05656250000175,
      "v": 67
    },
    {
      "midi": 52,
      "hit": false,
      "t": 38069.19000000001,
      "d": 279.05656250000175,
      "v": 107
    },
    {
      "midi": 28,
      "hit": false,
      "t": 38351.18400000001,
      "d": 281.9939999999988,
      "v": 99
    },
    {
      "midi": 40,
      "hit": false,
      "t": 38633.17800000001,
      "d": 279.05656250000175,
      "v": 83
    },
    {
      "midi": 52,
      "hit": false,
      "t": 38918.10943750001,
      "d": 276.11912499999744,
      "v": 107
    },
    {
      "midi": 28,
      "hit": false,
      "t": 39197.166000000005,
      "d": 279.05656250000175,
      "v": 91
    },
    {
      "midi": 40,
      "hit": false,
      "t": 39479.16,
      "d": 281.9939999999988,
      "v": 103
    },
    {
      "midi": 52,
      "hit": false,
      "t": 39761.154,
      "d": 279.05656250000175,
      "v": 107
    },
    {
      "midi": 40,
      "hit": false,
      "t": 40043.148,
      "d": 284.9314375000031,
      "v": 115
    },
    {
      "midi": 52,
      "hit": false,
      "t": 40331.016875,
      "d": 273.1816875000004,
      "v": 103
    },
    {
      "midi": 28,
      "hit": false,
      "t": 40604.1985625,
      "d": 281.9939999999988,
      "v": 107
    },
    {
      "midi": 40,
      "hit": false,
      "t": 40886.1925625,
      "d": 284.9314375000031,
      "v": 83
    },
    {
      "midi": 52,
      "hit": false,
      "t": 41174.0614375,
      "d": 279.05656250000175,
      "v": 111
    },
    {
      "midi": 28,
      "hit": false,
      "t": 41456.0554375,
      "d": 276.11912499999744,
      "v": 87
    },
    {
      "midi": 40,
      "hit": false,
      "t": 41735.111999999994,
      "d": 279.05656250000175,
      "v": 95
    },
    {
      "midi": 52,
      "hit": false,
      "t": 42017.10599999999,
      "d": 279.05656250000175,
      "v": 99
    },
    {
      "midi": 40,
      "hit": false,
      "t": 42296.162562499994,
      "d": 281.9939999999988,
      "v": 67
    },
    {
      "midi": 52,
      "hit": false,
      "t": 42581.09399999999,
      "d": 279.05656250000175,
      "v": 107
    },
    {
      "midi": 28,
      "hit": false,
      "t": 42866.02543749999,
      "d": 276.11912499999744,
      "v": 99
    },
    {
      "midi": 40,
      "hit": false,
      "t": 43142.14456249999,
      "d": 281.9939999999988,
      "v": 83
    },
    {
      "midi": 52,
      "hit": false,
      "t": 43427.07599999999,
      "d": 276.11912499999744,
      "v": 107
    },
    {
      "midi": 28,
      "hit": false,
      "t": 43706.13256249998,
      "d": 284.9314375000031,
      "v": 91
    },
    {
      "midi": 40,
      "hit": false,
      "t": 43999.87631249998,
      "d": 270.2442500000034,
      "v": 103
    },
    {
      "midi": 52,
      "hit": false,
      "t": 44273.05799999998,
      "d": 279.05656250000175,
      "v": 107
    },
    {
      "midi": 40,
      "hit": false,
      "t": 44552.114562499984,
      "d": 284.9314375000031,
      "v": 115
    },
    {
      "midi": 52,
      "hit": false,
      "t": 44837.04599999999,
      "d": 284.9314375000031,
      "v": 103
    },
    {
      "midi": 28,
      "hit": false,
      "t": 45124.91487499999,
      "d": 276.11912499999744,
      "v": 107
    },
    {
      "midi": 40,
      "hit": false,
      "t": 45403.97143749998,
      "d": 276.11912499999744,
      "v": 83
    },
    {
      "midi": 52,
      "hit": false,
      "t": 45680.09056249998,
      "d": 279.05656250000175,
      "v": 111
    },
    {
      "midi": 28,
      "hit": false,
      "t": 45959.14712499998,
      "d": 287.8688750000001,
      "v": 87
    },
    {
      "midi": 40,
      "hit": false,
      "t": 46247.01599999998,
      "d": 279.05656250000175,
      "v": 95
    },
    {
      "midi": 52,
      "hit": false,
      "t": 46529.00999999998,
      "d": 279.05656250000175,
      "v": 99
    },
    {
      "midi": 40,
      "hit": false,
      "t": 46811.00399999998,
      "d": 279.05656250000175,
      "v": 67
    },
    {
      "midi": 52,
      "hit": false,
      "t": 47090.06056249998,
      "d": 281.9939999999988,
      "v": 107
    },
    {
      "midi": 28,
      "hit": false,
      "t": 47372.05456249998,
      "d": 281.9939999999988,
      "v": 107
    },
    {
      "midi": 40,
      "hit": false,
      "t": 47656.985999999975,
      "d": 281.9939999999988,
      "v": 83
    },
    {
      "midi": 52,
      "hit": false,
      "t": 47944.854874999975,
      "d": 276.11912499999744,
      "v": 111
    },
    {
      "midi": 28,
      "hit": false,
      "t": 48220.97399999997,
      "d": 279.05656250000175,
      "v": 87
    },
    {
      "midi": 40,
      "hit": false,
      "t": 48500.030562499975,
      "d": 281.9939999999988,
      "v": 95
    },
    {
      "midi": 52,
      "hit": false,
      "t": 48782.02456249997,
      "d": 279.05656250000175,
      "v": 99
    },
    {
      "midi": 40,
      "hit": false,
      "t": 49061.081124999975,
      "d": 284.9314375000031,
      "v": 67
    },
    {
      "midi": 52,
      "hit": false,
      "t": 49348.949999999975,
      "d": 279.05656250000175,
      "v": 107
    },
    {
      "midi": 28,
      "hit": false,
      "t": 49630.943999999974,
      "d": 279.05656250000175,
      "v": 99
    },
    {
      "midi": 40,
      "hit": false,
      "t": 49910.000562499976,
      "d": 279.05656250000175,
      "v": 83
    },
    {
      "midi": 52,
      "hit": false,
      "t": 50194.93199999998,
      "d": 279.05656250000175,
      "v": 107
    },
    {
      "midi": 28,
      "hit": false,
      "t": 50473.98856249998,
      "d": 284.9314375000031,
      "v": 91
    },
    {
      "midi": 40,
      "hit": false,
      "t": 50758.919999999984,
      "d": 279.05656250000175,
      "v": 103
    },
    {
      "midi": 52,
      "hit": false,
      "t": 51040.91399999998,
      "d": 279.05656250000175,
      "v": 107
    },
    {
      "midi": 40,
      "hit": false,
      "t": 51319.970562499984,
      "d": 287.8688750000001,
      "v": 115
    },
    {
      "midi": 52,
      "hit": false,
      "t": 51610.77687499998,
      "d": 273.1816875000004,
      "v": 103
    },
    {
      "midi": 28,
      "hit": false,
      "t": 51883.95856249998,
      "d": 281.9939999999988,
      "v": 107
    },
    {
      "midi": 40,
      "hit": false,
      "t": 52165.95256249998,
      "d": 284.9314375000031,
      "v": 83
    },
    {
      "midi": 52,
      "hit": false,
      "t": 52453.82143749998,
      "d": 276.11912499999744,
      "v": 111
    },
    {
      "midi": 28,
      "hit": false,
      "t": 52732.877999999975,
      "d": 279.05656250000175,
      "v": 87
    },
    {
      "midi": 40,
      "hit": false,
      "t": 53014.871999999974,
      "d": 281.9939999999988,
      "v": 95
    },
    {
      "midi": 52,
      "hit": false,
      "t": 53299.80343749997,
      "d": 279.05656250000175,
      "v": 99
    },
    {
      "midi": 40,
      "hit": false,
      "t": 53578.85999999997,
      "d": 279.05656250000175,
      "v": 67
    },
    {
      "midi": 52,
      "hit": false,
      "t": 53857.91656249997,
      "d": 281.9939999999988,
      "v": 107
    },
    {
      "midi": 28,
      "hit": false,
      "t": 54142.84799999997,
      "d": 276.11912499999744,
      "v": 99
    },
    {
      "midi": 40,
      "hit": false,
      "t": 54421.90456249996,
      "d": 284.9314375000031,
      "v": 83
    },
    {
      "midi": 52,
      "hit": false,
      "t": 54706.83599999997,
      "d": 279.05656250000175,
      "v": 107
    },
    {
      "midi": 28,
      "hit": false,
      "t": 54985.89256249997,
      "d": 281.9939999999988,
      "v": 91
    },
    {
      "midi": 40,
      "hit": false,
      "t": 55279.63631249997,
      "d": 270.2442500000034,
      "v": 103
    },
    {
      "midi": 52,
      "hit": false,
      "t": 55552.81799999997,
      "d": 279.05656250000175,
      "v": 107
    },
    {
      "midi": 40,
      "hit": false,
      "t": 55834.81199999997,
      "d": 287.8688750000001,
      "v": 115
    },
    {
      "midi": 52,
      "hit": false,
      "t": 56128.55574999997,
      "d": 270.2442500000034,
      "v": 103
    },
    {
      "midi": 28,
      "hit": false,
      "t": 56398.799999999974,
      "d": 279.05656250000175,
      "v": 107
    },
    {
      "midi": 40,
      "hit": false,
      "t": 56680.79399999997,
      "d": 279.05656250000175,
      "v": 83
    },
    {
      "midi": 52,
      "hit": false,
      "t": 56959.850562499974,
      "d": 281.9939999999988,
      "v": 111
    },
    {
      "midi": 28,
      "hit": false,
      "t": 57244.78199999997,
      "d": 279.05656250000175,
      "v": 87
    },
    {
      "midi": 40,
      "hit": false,
      "t": 57529.71343749997,
      "d": 276.11912499999744,
      "v": 95
    },
    {
      "midi": 52,
      "hit": false,
      "t": 57808.76999999997,
      "d": 279.05656250000175,
      "v": 99
    },
    {
      "midi": 40,
      "hit": false,
      "t": 58090.76399999997,
      "d": 279.05656250000175,
      "v": 67
    },
    {
      "midi": 52,
      "hit": false,
      "t": 58369.82056249997,
      "d": 284.9314375000031,
      "v": 107
    },
    {
      "midi": 28,
      "hit": false,
      "t": 58657.68943749997,
      "d": 276.11912499999744,
      "v": 99
    },
    {
      "midi": 40,
      "hit": false,
      "t": 58939.68343749997,
      "d": 276.11912499999744,
      "v": 83
    },
    {
      "midi": 52,
      "hit": false,
      "t": 59218.73999999996,
      "d": 279.05656250000175,
      "v": 107
    },
    {
      "midi": 28,
      "hit": false,
      "t": 59503.671437499965,
      "d": 276.11912499999744,
      "v": 91
    },
    {
      "midi": 40,
      "hit": false,
      "t": 59782.72799999996,
      "d": 281.9939999999988,
      "v": 103
    },
    {
      "midi": 52,
      "hit": false,
      "t": 60067.659437499955,
      "d": 279.05656250000175,
      "v": 107
    },
    {
      "midi": 40,
      "hit": false,
      "t": 60349.653437499954,
      "d": 276.11912499999744,
      "v": 115
    },
    {
      "midi": 52,
      "hit": false,
      "t": 60628.70999999995,
      "d": 279.05656250000175,
      "v": 103
    },
    {
      "midi": 28,
      "hit": false,
      "t": 60913.64143749995,
      "d": 276.11912499999744,
      "v": 107
    },
    {
      "midi": 40,
      "hit": false,
      "t": 61192.697999999946,
      "d": 281.9939999999988,
      "v": 83
    },
    {
      "midi": 52,
      "hit": false,
      "t": 61480.566874999946,
      "d": 276.11912499999744,
      "v": 111
    },
    {
      "midi": 28,
      "hit": false,
      "t": 61756.68599999994,
      "d": 279.05656250000175,
      "v": 87
    },
    {
      "midi": 40,
      "hit": false,
      "t": 62044.55487499994,
      "d": 273.1816875000004,
      "v": 95
    },
    {
      "midi": 52,
      "hit": false,
      "t": 62317.736562499944,
      "d": 281.9939999999988,
      "v": 99
    },
    {
      "midi": 40,
      "hit": false,
      "t": 62599.73056249994,
      "d": 281.9939999999988,
      "v": 67
    },
    {
      "midi": 52,
      "hit": false,
      "t": 62887.59943749994,
      "d": 279.05656250000175,
      "v": 107
    },
    {
      "midi": 28,
      "hit": false,
      "t": 63166.655999999944,
      "d": 279.05656250000175,
      "v": 99
    },
    {
      "midi": 40,
      "hit": false,
      "t": 63445.712562499946,
      "d": 279.05656250000175,
      "v": 83
    },
    {
      "midi": 52,
      "hit": false,
      "t": 63730.64399999995,
      "d": 281.9939999999988,
      "v": 107
    },
    {
      "midi": 28,
      "hit": false,
      "t": 64012.63799999995,
      "d": 281.9939999999988,
      "v": 91
    },
    {
      "midi": 40,
      "hit": false,
      "t": 64294.63199999995,
      "d": 279.05656250000175,
      "v": 103
    },
    {
      "midi": 52,
      "hit": false,
      "t": 64576.625999999946,
      "d": 279.05656250000175,
      "v": 107
    },
    {
      "midi": 40,
      "hit": false,
      "t": 64855.68256249995,
      "d": 281.9939999999988,
      "v": 115
    },
    {
      "midi": 52,
      "hit": false,
      "t": 65149.42631249995,
      "d": 273.1816875000004,
      "v": 103
    },
    {
      "midi": 28,
      "hit": false,
      "t": 65425.545437499946,
      "d": 279.05656249999447,
      "v": 107
    },
    {
      "midi": 40,
      "hit": false,
      "t": 65707.53943749995,
      "d": 276.11912499999744,
      "v": 83
    },
    {
      "midi": 52,
      "hit": false,
      "t": 65986.59599999995,
      "d": 284.9314374999958,
      "v": 111
    },
    {
      "midi": 28,
      "hit": false,
      "t": 66274.46487499995,
      "d": 273.18168749999313,
      "v": 87
    },
    {
      "midi": 40,
      "hit": false,
      "t": 66553.52143749993,
      "d": 276.11912499999744,
      "v": 95
    },
    {
      "midi": 52,
      "hit": false,
      "t": 66829.64056249993,
      "d": 281.99400000000605,
      "v": 99
    },
    {
      "midi": 40,
      "hit": false,
      "t": 67111.63456249994,
      "d": 279.05656250000175,
      "v": 67
    },
    {
      "midi": 52,
      "hit": false,
      "t": 67399.50343749994,
      "d": 276.11912499999744,
      "v": 107
    },
    {
      "midi": 28,
      "hit": false,
      "t": 67681.49743749993,
      "d": 276.11912499999744,
      "v": 99
    },
    {
      "midi": 40,
      "hit": false,
      "t": 67960.55399999993,
      "d": 279.05656250000175,
      "v": 83
    },
    {
      "midi": 52,
      "hit": false,
      "t": 68242.54799999994,
      "d": 279.05656250000175,
      "v": 107
    },
    {
      "midi": 28,
      "hit": false,
      "t": 68527.47943749993,
      "d": 276.11912499999744,
      "v": 91
    },
    {
      "midi": 40,
      "hit": false,
      "t": 68806.53599999993,
      "d": 279.05656250000175,
      "v": 103
    },
    {
      "midi": 52,
      "hit": false,
      "t": 69088.52999999994,
      "d": 279.05656250000175,
      "v": 107
    },
    {
      "midi": 40,
      "hit": false,
      "t": 69370.52399999995,
      "d": 281.99400000000605,
      "v": 115
    },
    {
      "midi": 52,
      "hit": false,
      "t": 69655.45543749996,
      "d": 276.11912499999744,
      "v": 103
    },
    {
      "midi": 28,
      "hit": false,
      "t": 69937.44943749995,
      "d": 276.11912499999744,
      "v": 107
    },
    {
      "midi": 40,
      "hit": false,
      "t": 70213.56856249995,
      "d": 281.99400000000605,
      "v": 83
    },
    {
      "midi": 52,
      "hit": false,
      "t": 70501.43743749995,
      "d": 281.99400000000605,
      "v": 111
    },
    {
      "midi": 28,
      "hit": false,
      "t": 70786.36887499996,
      "d": 279.05656250000175,
      "v": 87
    },
    {
      "midi": 40,
      "hit": false,
      "t": 71074.23774999996,
      "d": 267.30681249999907,
      "v": 95
    },
    {
      "midi": 52,
      "hit": false,
      "t": 71344.48199999996,
      "d": 279.05656250000175,
      "v": 99
    },
    {
      "midi": 40,
      "hit": false,
      "t": 71629.41343749996,
      "d": 276.11912499999744,
      "v": 67
    },
    {
      "midi": 52,
      "hit": false,
      "t": 71908.46999999996,
      "d": 281.99400000000605,
      "v": 107
    },
    {
      "midi": 28,
      "hit": false,
      "t": 72193.40143749997,
      "d": 276.11912499999744,
      "v": 107
    },
    {
      "midi": 40,
      "hit": false,
      "t": 72469.52056249997,
      "d": 281.99400000000605,
      "v": 83
    },
    {
      "midi": 52,
      "hit": false,
      "t": 72757.38943749997,
      "d": 276.11912499999744,
      "v": 111
    },
    {
      "midi": 28,
      "hit": false,
      "t": 73033.50856249996,
      "d": 281.99400000000605,
      "v": 87
    },
    {
      "midi": 40,
      "hit": false,
      "t": 73315.50256249997,
      "d": 279.05656250000175,
      "v": 95
    },
    {
      "midi": 52,
      "hit": false,
      "t": 73594.55912499997,
      "d": 287.8688750000001,
      "v": 99
    },
    {
      "midi": 40,
      "hit": false,
      "t": 73885.36543749998,
      "d": 276.11912499999744,
      "v": 67
    },
    {
      "midi": 52,
      "hit": false,
      "t": 74167.35943749997,
      "d": 276.11912499999744,
      "v": 107
    },
    {
      "midi": 28,
      "hit": false,
      "t": 74443.47856249996,
      "d": 281.99400000000605,
      "v": 99
    },
    {
      "midi": 40,
      "hit": false,
      "t": 74728.40999999997,
      "d": 281.99400000000605,
      "v": 83
    },
    {
      "midi": 52,
      "hit": false,
      "t": 75010.40399999998,
      "d": 281.99400000000605,
      "v": 107
    },
    {
      "midi": 28,
      "hit": false,
      "t": 75292.39799999999,
      "d": 279.05656250000175,
      "v": 91
    },
    {
      "midi": 40,
      "hit": false,
      "t": 75580.26687499999,
      "d": 273.18168749999313,
      "v": 103
    },
    {
      "midi": 52,
      "hit": false,
      "t": 75856.38599999998,
      "d": 279.05656250000175,
      "v": 107
    },
    {
      "midi": 40,
      "hit": false,
      "t": 76138.37999999999,
      "d": 284.9314374999958,
      "v": 115
    },
    {
      "midi": 52,
      "hit": false,
      "t": 76429.18631249998,
      "d": 273.18168749999313,
      "v": 103
    },
    {
      "midi": 28,
      "hit": false,
      "t": 76702.36799999997,
      "d": 279.05656250000175,
      "v": 107
    },
    {
      "midi": 40,
      "hit": false,
      "t": 76981.42456249997,
      "d": 281.99400000000605,
      "v": 83
    },
    {
      "midi": 52,
      "hit": false,
      "t": 77266.35599999999,
      "d": 281.99400000000605,
      "v": 111
    },
    {
      "midi": 28,
      "hit": false,
      "t": 77548.34999999999,
      "d": 279.05656250000175,
      "v": 87
    },
    {
      "midi": 40,
      "hit": false,
      "t": 77833.28143749999,
      "d": 276.11912499999744,
      "v": 95
    },
    {
      "midi": 52,
      "hit": false,
      "t": 78109.40056249998,
      "d": 281.99400000000605,
      "v": 99
    },
    {
      "midi": 40,
      "hit": false,
      "t": 78394.332,
      "d": 279.05656250000175,
      "v": 67
    },
    {
      "midi": 52,
      "hit": false,
      "t": 78673.3885625,
      "d": 281.99400000000605,
      "v": 107
    },
    {
      "midi": 28,
      "hit": false,
      "t": 78958.32,
      "d": 279.05656250000175,
      "v": 99
    },
    {
      "midi": 40,
      "hit": false,
      "t": 79240.31400000001,
      "d": 279.05656250000175,
      "v": 83
    },
    {
      "midi": 52,
      "hit": false,
      "t": 79519.37056250001,
      "d": 281.99400000000605,
      "v": 107
    },
    {
      "midi": 28,
      "hit": false,
      "t": 79804.30200000003,
      "d": 279.05656250000175,
      "v": 91
    },
    {
      "midi": 52,
      "hit": false,
      "t": 80089.23343750002,
      "d": 276.11912499999744,
      "v": 115
    },
    {
      "midi": 68,
      "hit": false,
      "t": 80092.17087500003,
      "d": 276.11912499999744,
      "v": 115
    },
    {
      "midi": 48,
      "hit": false,
      "t": 80371.22743750003,
      "d": 279.05656250000175,
      "v": 103
    },
    {
      "midi": 63,
      "hit": false,
      "t": 80374.16487500003,
      "d": 276.11912499999744,
      "v": 111
    },
    {
      "midi": 49,
      "hit": false,
      "t": 80653.22143750003,
      "d": 279.05656250000175,
      "v": 99
    },
    {
      "midi": 64,
      "hit": false,
      "t": 80656.15887500004,
      "d": 276.11912499999744,
      "v": 111
    },
    {
      "midi": 56,
      "hit": false,
      "t": 80932.27800000003,
      "d": 4132.974562500007,
      "v": 115
    },
    {
      "midi": 37,
      "hit": false,
      "t": 80932.27800000003,
      "d": 4179.973562500003,
      "v": 111
    },
    {
      "midi": 59,
      "hit": false,
      "t": 84598.20000000004,
      "d": 702.0475624999963,
      "v": 115
    },
    {
      "midi": 49,
      "hit": false,
      "t": 84598.20000000004,
      "d": 869.4814999999944,
      "v": 115
    },
    {
      "midi": 61,
      "hit": false,
      "t": 84604.07487500003,
      "d": 508.176687500003,
      "v": 115
    },
    {
      "midi": 64,
      "hit": false,
      "t": 84607.01231250004,
      "d": 531.6761874999938,
      "v": 115
    },
    {
      "midi": 68,
      "hit": false,
      "t": 84607.01231250004,
      "d": 672.6731874999969,
      "v": 115
    },
    {
      "midi": 58,
      "hit": false,
      "t": 85447.11943750003,
      "d": 3448.5516250000073,
      "v": 111
    },
    {
      "midi": 54,
      "hit": false,
      "t": 85447.11943750003,
      "d": 3613.048125000001,
      "v": 111
    },
    {
      "midi": 42,
      "hit": false,
      "t": 85726.17600000004,
      "d": 3357.491062500005,
      "v": 115
    },
    {
      "midi": 42,
      "hit": false,
      "t": 90246.89231250004,
      "d": 270.2442500000034,
      "v": 103
    },
    {
      "midi": 61,
      "hit": false,
      "t": 90246.89231250004,
      "d": 1122.1011250000156,
      "v": 111
    },
    {
      "midi": 64,
      "hit": false,
      "t": 90246.89231250004,
      "d": 1122.1011250000156,
      "v": 111
    },
    {
      "midi": 44,
      "hit": false,
      "t": 90517.13656250005,
      "d": 281.99400000000605,
      "v": 111
    },
    {
      "midi": 45,
      "hit": false,
      "t": 90799.13056250005,
      "d": 281.99400000000605,
      "v": 115
    },
    {
      "midi": 46,
      "hit": false,
      "t": 91089.93687500006,
      "d": 279.05656250000175,
      "v": 115
    },
    {
      "midi": 47,
      "hit": false,
      "t": 91368.99343750006,
      "d": 279.05656250000175,
      "v": 115
    },
    {
      "midi": 49,
      "hit": false,
      "t": 91653.92487500006,
      "d": 279.05656250000175,
      "v": 111
    },
    {
      "midi": 61,
      "hit": false,
      "t": 91653.92487500006,
      "d": 279.05656250000175,
      "v": 115
    },
    {
      "midi": 52,
      "hit": false,
      "t": 91935.91887500006,
      "d": 279.05656250000175,
      "v": 115
    },
    {
      "midi": 64,
      "hit": false,
      "t": 91938.85631250007,
      "d": 276.11912499999744,
      "v": 115
    },
    {
      "midi": 49,
      "hit": false,
      "t": 92217.91287500007,
      "d": 249.68218750000233,
      "v": 111
    },
    {
      "midi": 61,
      "hit": false,
      "t": 92217.91287500007,
      "d": 249.68218750000233,
      "v": 115
    },
    {
      "midi": 64,
      "hit": false,
      "t": 92496.96943750003,
      "d": 675.6106250000012,
      "v": 87
    },
    {
      "midi": 57,
      "hit": false,
      "t": 92496.96943750003,
      "d": 793.1081249999988,
      "v": 87
    },
    {
      "midi": 61,
      "hit": false,
      "t": 92496.96943750003,
      "d": 840.107124999995,
      "v": 83
    },
    {
      "midi": 56,
      "hit": false,
      "t": 93337.07656250002,
      "d": 2258.8894374999945,
      "v": 75
    },
    {
      "midi": 59,
      "hit": false,
      "t": 93337.07656250002,
      "d": 2258.8894374999945,
      "v": 79
    },
    {
      "midi": 64,
      "hit": false,
      "t": 93337.07656250002,
      "d": 2258.8894374999945,
      "v": 83
    },
    {
      "midi": 59,
      "hit": false,
      "t": 95595.96600000001,
      "d": 984.0415625000023,
      "v": 83
    },
    {
      "midi": 64,
      "hit": false,
      "t": 95595.96600000001,
      "d": 1057.4775000000081,
      "v": 87
    },
    {
      "midi": 68,
      "hit": false,
      "t": 95595.96600000001,
      "d": 1078.0395625000092,
      "v": 83
    },
    {
      "midi": 45,
      "hit": false,
      "t": 97008.87343750002,
      "d": 3404.49006250003,
      "v": 87
    },
    {
      "midi": 57,
      "hit": false,
      "t": 97566.98656250002,
      "d": 258.4945000000007,
      "v": 87
    },
    {
      "midi": 61,
      "hit": false,
      "t": 97566.98656250002,
      "d": 281.99400000000605,
      "v": 83
    },
    {
      "midi": 57,
      "hit": false,
      "t": 97848.98056250003,
      "d": 46.99899999999616,
      "v": 79
    },
    {
      "midi": 56,
      "hit": false,
      "t": 97848.98056250003,
      "d": 728.4844999999914,
      "v": 83
    },
    {
      "midi": 59,
      "hit": false,
      "t": 97848.98056250003,
      "d": 892.9809999999998,
      "v": 83
    },
    {
      "midi": 61,
      "hit": false,
      "t": 98697.90000000002,
      "d": 255.55706250001094,
      "v": 83
    },
    {
      "midi": 56,
      "hit": false,
      "t": 98697.90000000002,
      "d": 352.4925000000221,
      "v": 83
    },
    {
      "midi": 57,
      "hit": false,
      "t": 98976.95656250004,
      "d": 1362.971000000005,
      "v": 87
    },
    {
      "midi": 64,
      "hit": false,
      "t": 98976.95656250004,
      "d": 1436.4069375000108,
      "v": 87
    },
    {
      "midi": 61,
      "hit": false,
      "t": 98976.95656250004,
      "d": 1950.458500000008,
      "v": 75
    },
    {
      "midi": 66,
      "hit": false,
      "t": 100389.86400000005,
      "d": 537.5510625000024,
      "v": 87
    },
    {
      "midi": 57,
      "hit": false,
      "t": 100389.86400000005,
      "d": 1125.03856250002,
      "v": 83
    },
    {
      "midi": 64,
      "hit": false,
      "t": 100950.91456250005,
      "d": 258.4945000000007,
      "v": 87
    },
    {
      "midi": 66,
      "hit": false,
      "t": 101232.90856250006,
      "d": 258.4945000000007,
      "v": 79
    },
    {
      "midi": 57,
      "hit": false,
      "t": 101523.71487500006,
      "d": 790.1706874999945,
      "v": 87
    },
    {
      "midi": 61,
      "hit": false,
      "t": 101523.71487500006,
      "d": 837.1696874999907,
      "v": 83
    },
    {
      "midi": 64,
      "hit": false,
      "t": 101526.65231250007,
      "d": 672.6731874999969,
      "v": 87
    },
    {
      "midi": 56,
      "hit": false,
      "t": 102360.88456250005,
      "d": 2258.8894374999945,
      "v": 75
    },
    {
      "midi": 59,
      "hit": false,
      "t": 102360.88456250005,
      "d": 2258.8894374999945,
      "v": 79
    },
    {
      "midi": 64,
      "hit": false,
      "t": 102360.88456250005,
      "d": 2261.826874999999,
      "v": 83
    },
    {
      "midi": 59,
      "hit": false,
      "t": 104628.58631250005,
      "d": 975.229250000004,
      "v": 83
    },
    {
      "midi": 64,
      "hit": false,
      "t": 104628.58631250005,
      "d": 1048.6651875000098,
      "v": 87
    },
    {
      "midi": 68,
      "hit": false,
      "t": 104628.58631250005,
      "d": 1116.226250000007,
      "v": 83
    },
    {
      "midi": 64,
      "hit": false,
      "t": 105744.81256250005,
      "d": 96.93543749999662,
      "v": 87
    },
    {
      "midi": 64,
      "hit": false,
      "t": 105885.80956250006,
      "d": 70.49850000000151,
      "v": 63
    },
    {
      "midi": 64,
      "hit": false,
      "t": 106032.68143750005,
      "d": 64.6236249999929,
      "v": 75
    },
    {
      "midi": 64,
      "hit": false,
      "t": 106308.80056250005,
      "d": 93.99800000000687,
      "v": 83
    },
    {
      "midi": 57,
      "hit": false,
      "t": 106593.73200000006,
      "d": 255.55706250001094,
      "v": 83
    },
    {
      "midi": 64,
      "hit": false,
      "t": 106596.66943750007,
      "d": 229.12012500000128,
      "v": 87
    },
    {
      "midi": 61,
      "hit": false,
      "t": 106596.66943750007,
      "d": 349.55506250000326,
      "v": 83
    },
    {
      "midi": 56,
      "hit": false,
      "t": 106875.72600000007,
      "d": 1007.5410625000077,
      "v": 79
    },
    {
      "midi": 64,
      "hit": false,
      "t": 106878.66343750007,
      "d": 722.6096249999973,
      "v": 63
    },
    {
      "midi": 59,
      "hit": false,
      "t": 106878.66343750007,
      "d": 1051.6026249999995,
      "v": 83
    },
    {
      "midi": 64,
      "hit": false,
      "t": 107721.70800000007,
      "d": 208.55806250000023,
      "v": 87
    },
    {
      "midi": 64,
      "hit": false,
      "t": 108003.70200000008,
      "d": 1031.0405624999985,
      "v": 83
    },
    {
      "midi": 57,
      "hit": false,
      "t": 108003.70200000008,
      "d": 2561.445499999987,
      "v": 75
    },
    {
      "midi": 61,
      "hit": false,
      "t": 108003.70200000008,
      "d": 2561.445499999987,
      "v": 83
    },
    {
      "midi": 64,
      "hit": false,
      "t": 109134.61543750008,
      "d": 464.1151249999966,
      "v": 87
    },
    {
      "midi": 64,
      "hit": false,
      "t": 109695.66600000007,
      "d": 255.5570624999964,
      "v": 75
    },
    {
      "midi": 64,
      "hit": false,
      "t": 109977.66000000006,
      "d": 587.4875000000029,
      "v": 79
    },
    {
      "midi": 40,
      "hit": false,
      "t": 110259.65400000007,
      "d": 305.49349999999686,
      "v": 83
    },
    {
      "midi": 42,
      "hit": false,
      "t": 110538.71056250007,
      "d": 1644.9650000000256,
      "v": 87
    },
    {
      "midi": 57,
      "hit": false,
      "t": 111105.63600000007,
      "d": 326.05556250001246,
      "v": 87
    },
    {
      "midi": 59,
      "hit": false,
      "t": 111387.63000000008,
      "d": 631.5490625000093,
      "v": 87
    },
    {
      "midi": 57,
      "hit": false,
      "t": 111951.61800000009,
      "d": 161.55906250000407,
      "v": 83
    },
    {
      "midi": 54,
      "hit": false,
      "t": 112089.67756250009,
      "d": 164.49650000000838,
      "v": 83
    },
    {
      "midi": 49,
      "hit": false,
      "t": 112230.67456250009,
      "d": 187.99599999999919,
      "v": 83
    },
    {
      "midi": 49,
      "hit": false,
      "t": 112512.6685625001,
      "d": 234.99499999999534,
      "v": 79
    },
    {
      "midi": 49,
      "hit": false,
      "t": 112806.41231250009,
      "d": 951.7297499999986,
      "v": 83
    },
    {
      "midi": 56,
      "hit": false,
      "t": 113082.53143750009,
      "d": 276.11912499999744,
      "v": 79
    },
    {
      "midi": 61,
      "hit": false,
      "t": 113361.58800000009,
      "d": 279.05656250000175,
      "v": 79
    },
    {
      "midi": 64,
      "hit": false,
      "t": 113646.51943750009,
      "d": 205.62062500001048,
      "v": 83
    },
    {
      "midi": 63,
      "hit": false,
      "t": 113925.5760000001,
      "d": 326.0555624999979,
      "v": 79
    },
    {
      "midi": 47,
      "hit": false,
      "t": 113925.5760000001,
      "d": 1148.5380625000107,
      "v": 79
    },
    {
      "midi": 59,
      "hit": false,
      "t": 114204.6325625001,
      "d": 234.99499999999534,
      "v": 79
    },
    {
      "midi": 56,
      "hit": false,
      "t": 114492.5014375001,
      "d": 511.11412500000733,
      "v": 79
    },
    {
      "midi": 45,
      "hit": false,
      "t": 114956.6165625001,
      "d": 2255.9520000000484,
      "v": 71
    },
    {
      "midi": 52,
      "hit": false,
      "t": 114980.1160625001,
      "d": 2255.9520000000484,
      "v": 75
    },
    {
      "midi": 59,
      "hit": false,
      "t": 115074.11406250011,
      "d": 563.9879999999976,
      "v": 87
    },
    {
      "midi": 57,
      "hit": false,
      "t": 115620.47743750011,
      "d": 208.55806250000023,
      "v": 83
    },
    {
      "midi": 57,
      "hit": false,
      "t": 115899.53400000012,
      "d": 302.5560625000071,
      "v": 79
    },
    {
      "midi": 64,
      "hit": false,
      "t": 116181.52800000012,
      "d": 1172.0375625000452,
      "v": 87
    },
    {
      "midi": 57,
      "hit": false,
      "t": 116463.52200000013,
      "d": 208.55806250000023,
      "v": 79
    },
    {
      "midi": 57,
      "hit": false,
      "t": 116745.51600000013,
      "d": 211.49550000000454,
      "v": 71
    },
    {
      "midi": 57,
      "hit": false,
      "t": 117030.44743750014,
      "d": 182.12112500000512,
      "v": 83
    },
    {
      "midi": 57,
      "hit": false,
      "t": 117309.50400000016,
      "d": 302.5560625000071,
      "v": 87
    },
    {
      "midi": 45,
      "hit": false,
      "t": 117309.50400000016,
      "d": 328.9930000000022,
      "v": 83
    },
    {
      "midi": 52,
      "hit": false,
      "t": 117309.50400000016,
      "d": 349.55506250000326,
      "v": 87
    },
    {
      "midi": 64,
      "hit": false,
      "t": 129717.24000000002,
      "d": 302.5560625000071,
      "v": 127
    },
    {
      "midi": 69,
      "hit": false,
      "t": 129975.73450000002,
      "d": 328.9930000000022,
      "v": 127
    },
    {
      "midi": 71,
      "hit": false,
      "t": 130278.29056250003,
      "d": 308.43093750000116,
      "v": 127
    },
    {
      "midi": 76,
      "hit": false,
      "t": 130566.15943750003,
      "d": 1545.0921249999956,
      "v": 127
    },
    {
      "midi": 64,
      "hit": false,
      "t": 138435.55450000003,
      "d": 91.06056250000256,
      "v": 127
    },
    {
      "midi": 64,
      "hit": false,
      "t": 138714.61106250004,
      "d": 328.99300000001676,
      "v": 127
    },
    {
      "midi": 69,
      "hit": false,
      "t": 138996.60506250005,
      "d": 284.9314375000249,
      "v": 127
    },
    {
      "midi": 71,
      "hit": false,
      "t": 139302.09856250006,
      "d": 281.99399999997695,
      "v": 127
    },
    {
      "midi": 76,
      "hit": false,
      "t": 139563.53050000005,
      "d": 1360.0335625000007,
      "v": 127
    },
    {
      "midi": 69,
      "hit": false,
      "t": 141276.05656250005,
      "d": 305.4935000000114,
      "v": 127
    },
    {
      "midi": 71,
      "hit": false,
      "t": 141581.55006250006,
      "d": 281.99399999997695,
      "v": 127
    },
    {
      "midi": 69,
      "hit": false,
      "t": 141842.98200000005,
      "d": 519.9264374999912,
      "v": 127
    },
    {
      "midi": 69,
      "hit": false,
      "t": 142404.03256250004,
      "d": 284.9314374999958,
      "v": 127
    },
    {
      "midi": 71,
      "hit": false,
      "t": 142688.96400000004,
      "d": 281.99400000000605,
      "v": 127
    },
    {
      "midi": 76,
      "hit": false,
      "t": 142970.95800000004,
      "d": 728.4844999999914,
      "v": 127
    },
    {
      "midi": 76,
      "hit": false,
      "t": 143814.00256250004,
      "d": 93.99799999999232,
      "v": 127
    },
    {
      "midi": 71,
      "hit": false,
      "t": 144659.98456250003,
      "d": 234.99499999999534,
      "v": 127
    },
    {
      "midi": 80,
      "hit": false,
      "t": 144918.47906250003,
      "d": 117.49749999999767,
      "v": 127
    },
    {
      "midi": 71,
      "hit": false,
      "t": 145790.89800000002,
      "d": 161.55906249998952,
      "v": 127
    },
    {
      "midi": 80,
      "hit": false,
      "t": 146049.39250000002,
      "d": 255.55706250001094,
      "v": 127
    },
    {
      "midi": 78,
      "hit": false,
      "t": 146328.44906250003,
      "d": 563.9880000000121,
      "v": 127
    },
    {
      "midi": 80,
      "hit": false,
      "t": 146918.87400000004,
      "d": 279.0565625000163,
      "v": 127
    },
    {
      "midi": 76,
      "hit": false,
      "t": 147174.43106250005,
      "d": 281.99400000000605,
      "v": 127
    },
    {
      "midi": 71,
      "hit": false,
      "t": 147479.92456250006,
      "d": 308.43093750000116,
      "v": 127
    },
    {
      "midi": 69,
      "hit": false,
      "t": 147776.60575000008,
      "d": 290.8063125000044,
      "v": 127
    },
    {
      "midi": 66,
      "hit": false,
      "t": 148043.91256250007,
      "d": 258.4945000000007,
      "v": 115
    },
    {
      "midi": 69,
      "hit": false,
      "t": 148328.84400000007,
      "d": 279.0565624999872,
      "v": 127
    },
    {
      "midi": 71,
      "hit": false,
      "t": 148613.77543750007,
      "d": 323.11812500000815,
      "v": 127
    },
    {
      "midi": 68,
      "hit": false,
      "t": 149148.38906250006,
      "d": 46.99900000001071,
      "v": 119
    },
    {
      "midi": 68,
      "hit": false,
      "t": 149453.88256250008,
      "d": 70.49849999998696,
      "v": 127
    },
    {
      "midi": 68,
      "hit": false,
      "t": 150023.74543750007,
      "d": 88.1231250000128,
      "v": 127
    },
    {
      "midi": 76,
      "hit": false,
      "t": 150581.85856250007,
      "d": 258.4945000000007,
      "v": 127
    },
    {
      "midi": 75,
      "hit": false,
      "t": 150863.85256250008,
      "d": 211.49549999999,
      "v": 127
    },
    {
      "midi": 71,
      "hit": false,
      "t": 151122.34706250008,
      "d": 164.49650000000838,
      "v": 127
    },
    {
      "midi": 68,
      "hit": false,
      "t": 151709.8345625001,
      "d": 234.99499999999534,
      "v": 127
    },
    {
      "midi": 66,
      "hit": false,
      "t": 151971.26650000009,
      "d": 255.55706250001094,
      "v": 127
    },
    {
      "midi": 68,
      "hit": false,
      "t": 152250.3230625001,
      "d": 281.99400000000605,
      "v": 127
    },
    {
      "midi": 64,
      "hit": false,
      "t": 152532.3170625001,
      "d": 255.55706250001094,
      "v": 127
    },
    {
      "midi": 59,
      "hit": false,
      "t": 152814.3110625001,
      "d": 281.99400000000605,
      "v": 127
    },
    {
      "midi": 57,
      "hit": false,
      "t": 153072.8055625001,
      "d": 543.4259374999965,
      "v": 127
    },
    {
      "midi": 64,
      "hit": false,
      "t": 189499.96800000087,
      "d": 678.5480624999909,
      "v": 87
    },
    {
      "midi": 57,
      "hit": false,
      "t": 189499.96800000087,
      "d": 796.0455624999886,
      "v": 87
    },
    {
      "midi": 61,
      "hit": false,
      "t": 189499.96800000087,
      "d": 845.9819999999891,
      "v": 83
    },
    {
      "midi": 56,
      "hit": false,
      "t": 190345.95000000086,
      "d": 2253.0145625000005,
      "v": 75
    },
    {
      "midi": 59,
      "hit": false,
      "t": 190345.95000000086,
      "d": 2253.0145625000005,
      "v": 79
    },
    {
      "midi": 64,
      "hit": false,
      "t": 190345.95000000086,
      "d": 2255.95199999999,
      "v": 83
    },
    {
      "midi": 59,
      "hit": false,
      "t": 192610.71431250084,
      "d": 975.229250000004,
      "v": 83
    },
    {
      "midi": 64,
      "hit": false,
      "t": 192610.71431250084,
      "d": 1045.727749999991,
      "v": 87
    },
    {
      "midi": 68,
      "hit": false,
      "t": 192610.71431250084,
      "d": 1069.2272499999963,
      "v": 83
    },
    {
      "midi": 45,
      "hit": false,
      "t": 194011.87200000085,
      "d": 3404.4900624999427,
      "v": 87
    },
    {
      "midi": 57,
      "hit": false,
      "t": 194578.79743750085,
      "d": 252.61962499999208,
      "v": 87
    },
    {
      "midi": 61,
      "hit": false,
      "t": 194578.79743750085,
      "d": 279.0565624999872,
      "v": 83
    },
    {
      "midi": 57,
      "hit": false,
      "t": 194860.79143750083,
      "d": 44.06156249999185,
      "v": 79
    },
    {
      "midi": 56,
      "hit": false,
      "t": 194860.79143750083,
      "d": 722.6096249999828,
      "v": 83
    },
    {
      "midi": 59,
      "hit": false,
      "t": 194863.72887500082,
      "d": 884.1686875000014,
      "v": 83
    },
    {
      "midi": 61,
      "hit": false,
      "t": 195700.8985625008,
      "d": 258.4945000000007,
      "v": 83
    },
    {
      "midi": 56,
      "hit": false,
      "t": 195700.8985625008,
      "d": 355.42993749998277,
      "v": 83
    },
    {
      "midi": 57,
      "hit": false,
      "t": 195985.8300000008,
      "d": 1360.0335625000007,
      "v": 87
    },
    {
      "midi": 64,
      "hit": false,
      "t": 195985.8300000008,
      "d": 1433.4694999999774,
      "v": 87
    },
    {
      "midi": 61,
      "hit": false,
      "t": 195985.8300000008,
      "d": 1947.521062499989,
      "v": 75
    },
    {
      "midi": 57,
      "hit": false,
      "t": 197404.6123125008,
      "d": 1119.1636875000258,
      "v": 83
    },
    {
      "midi": 66,
      "hit": false,
      "t": 197407.5497500008,
      "d": 528.7387499999895,
      "v": 87
    },
    {
      "midi": 64,
      "hit": false,
      "t": 197959.7880000008,
      "d": 255.55706250001094,
      "v": 87
    },
    {
      "midi": 66,
      "hit": false,
      "t": 198244.7194375008,
      "d": 255.55706250001094,
      "v": 79
    },
    {
      "midi": 64,
      "hit": false,
      "t": 198526.71343750082,
      "d": 675.6106250000012,
      "v": 87
    },
    {
      "midi": 57,
      "hit": false,
      "t": 198526.71343750082,
      "d": 793.1081249999988,
      "v": 87
    },
    {
      "midi": 61,
      "hit": false,
      "t": 198526.71343750082,
      "d": 840.1071250000095,
      "v": 83
    },
    {
      "midi": 56,
      "hit": false,
      "t": 199366.82056250083,
      "d": 2255.95199999999,
      "v": 75
    },
    {
      "midi": 59,
      "hit": false,
      "t": 199366.82056250083,
      "d": 2258.88943749998,
      "v": 79
    },
    {
      "midi": 64,
      "hit": false,
      "t": 199366.82056250083,
      "d": 2258.88943749998,
      "v": 83
    },
    {
      "midi": 59,
      "hit": false,
      "t": 201625.7100000008,
      "d": 986.9789999999921,
      "v": 83
    },
    {
      "midi": 64,
      "hit": false,
      "t": 201625.7100000008,
      "d": 1054.5400624999893,
      "v": 87
    },
    {
      "midi": 68,
      "hit": false,
      "t": 201625.7100000008,
      "d": 1125.0385624999763,
      "v": 83
    },
    {
      "midi": 64,
      "hit": false,
      "t": 202753.68600000077,
      "d": 91.06056250000256,
      "v": 87
    },
    {
      "midi": 64,
      "hit": false,
      "t": 202894.68300000078,
      "d": 67.5610624999972,
      "v": 63
    },
    {
      "midi": 64,
      "hit": false,
      "t": 203041.5548750008,
      "d": 61.68618749998859,
      "v": 75
    },
    {
      "midi": 64,
      "hit": false,
      "t": 203317.67400000078,
      "d": 91.06056250000256,
      "v": 83
    },
    {
      "midi": 64,
      "hit": false,
      "t": 203602.60543750078,
      "d": 232.0575625000056,
      "v": 87
    },
    {
      "midi": 57,
      "hit": false,
      "t": 203602.60543750078,
      "d": 252.61962499999208,
      "v": 83
    },
    {
      "midi": 61,
      "hit": false,
      "t": 203602.60543750078,
      "d": 349.55506249997416,
      "v": 83
    },
    {
      "midi": 64,
      "hit": false,
      "t": 203881.66200000077,
      "d": 725.5470624999725,
      "v": 63
    },
    {
      "midi": 56,
      "hit": false,
      "t": 203881.66200000077,
      "d": 984.0415624999732,
      "v": 79
    },
    {
      "midi": 59,
      "hit": false,
      "t": 203881.66200000077,
      "d": 1054.5400624999602,
      "v": 83
    },
    {
      "midi": 64,
      "hit": false,
      "t": 204730.58143750075,
      "d": 205.62062499998137,
      "v": 87
    },
    {
      "midi": 64,
      "hit": false,
      "t": 205006.70056250072,
      "d": 1036.9154374999925,
      "v": 83
    },
    {
      "midi": 57,
      "hit": false,
      "t": 205006.70056250072,
      "d": 2561.4454999999725,
      "v": 75
    },
    {
      "midi": 61,
      "hit": false,
      "t": 205006.70056250072,
      "d": 2561.4454999999725,
      "v": 83
    },
    {
      "midi": 64,
      "hit": false,
      "t": 206137.6140000007,
      "d": 467.05256250000093,
      "v": 87
    },
    {
      "midi": 64,
      "hit": false,
      "t": 206698.6645625007,
      "d": 258.4945000000007,
      "v": 75
    },
    {
      "midi": 64,
      "hit": false,
      "t": 206983.5960000007,
      "d": 587.4874999999884,
      "v": 79
    },
    {
      "midi": 40,
      "hit": false,
      "t": 207265.5900000007,
      "d": 308.43093749997206,
      "v": 83
    },
    {
      "midi": 42,
      "hit": false,
      "t": 207553.45887500068,
      "d": 1636.15268749994,
      "v": 87
    },
    {
      "midi": 57,
      "hit": false,
      "t": 208111.57200000065,
      "d": 326.0555624999979,
      "v": 87
    },
    {
      "midi": 59,
      "hit": false,
      "t": 208390.62856250064,
      "d": 634.4864999999991,
      "v": 87
    },
    {
      "midi": 57,
      "hit": false,
      "t": 208954.61656250065,
      "d": 164.49649999997928,
      "v": 83
    },
    {
      "midi": 54,
      "hit": false,
      "t": 209095.61356250063,
      "d": 164.49650000000838,
      "v": 83
    },
    {
      "midi": 49,
      "hit": false,
      "t": 209236.61056250063,
      "d": 187.99600000001374,
      "v": 83
    },
    {
      "midi": 49,
      "hit": false,
      "t": 209518.60456250064,
      "d": 234.99499999999534,
      "v": 79
    },
    {
      "midi": 49,
      "hit": false,
      "t": 209803.53600000063,
      "d": 960.5420624999679,
      "v": 83
    },
    {
      "midi": 56,
      "hit": false,
      "t": 210082.59256250062,
      "d": 281.99400000000605,
      "v": 79
    },
    {
      "midi": 61,
      "hit": false,
      "t": 210364.58656250063,
      "d": 284.9314374999958,
      "v": 79
    },
    {
      "midi": 64,
      "hit": false,
      "t": 210652.4554375006,
      "d": 205.62062499998137,
      "v": 83
    },
    {
      "midi": 63,
      "hit": false,
      "t": 210931.5120000006,
      "d": 326.0555624999979,
      "v": 79
    },
    {
      "midi": 47,
      "hit": false,
      "t": 210931.5120000006,
      "d": 1148.5380625000107,
      "v": 79
    },
    {
      "midi": 59,
      "hit": false,
      "t": 211210.5685625006,
      "d": 234.99500000002445,
      "v": 79
    },
    {
      "midi": 56,
      "hit": false,
      "t": 211492.56256250062,
      "d": 516.9890000000014,
      "v": 79
    },
    {
      "midi": 45,
      "hit": false,
      "t": 211962.5525625006,
      "d": 2255.95199999999,
      "v": 71
    },
    {
      "midi": 52,
      "hit": false,
      "t": 211991.92693750063,
      "d": 2250.0771249999816,
      "v": 75
    },
    {
      "midi": 59,
      "hit": false,
      "t": 212082.9875000006,
      "d": 561.0505624999932,
      "v": 87
    },
    {
      "midi": 57,
      "hit": false,
      "t": 212623.4760000006,
      "d": 208.55806250000023,
      "v": 83
    },
    {
      "midi": 57,
      "hit": false,
      "t": 212905.4700000006,
      "d": 305.4934999999823,
      "v": 79
    },
    {
      "midi": 64,
      "hit": false,
      "t": 213184.5265625006,
      "d": 1130.913437500014,
      "v": 87
    },
    {
      "midi": 69,
      "hit": false,
      "t": 213184.5265625006,
      "d": 1130.913437500014,
      "v": 87
    },
    {
      "midi": 57,
      "hit": false,
      "t": 213472.39543750059,
      "d": 205.62062500001048,
      "v": 79
    },
    {
      "midi": 57,
      "hit": false,
      "t": 213751.4520000006,
      "d": 208.55806250000023,
      "v": 71
    },
    {
      "midi": 57,
      "hit": false,
      "t": 214033.4460000006,
      "d": 185.05856249999488,
      "v": 83
    },
    {
      "midi": 64,
      "hit": false,
      "t": 214315.4400000006,
      "d": 561.0505624999932,
      "v": 87
    },
    {
      "midi": 69,
      "hit": false,
      "t": 214315.4400000006,
      "d": 563.987999999983,
      "v": 87
    },
    {
      "midi": 57,
      "hit": false,
      "t": 214597.43400000062,
      "d": 302.55606249996345,
      "v": 79
    },
    {
      "midi": 64,
      "hit": false,
      "t": 214882.3654375006,
      "d": 1125.0385625000054,
      "v": 87
    },
    {
      "midi": 69,
      "hit": false,
      "t": 214882.3654375006,
      "d": 1125.0385625000054,
      "v": 87
    },
    {
      "midi": 57,
      "hit": false,
      "t": 215164.3594375006,
      "d": 229.12012499998673,
      "v": 79
    },
    {
      "midi": 57,
      "hit": false,
      "t": 215446.35343750057,
      "d": 205.62062500001048,
      "v": 71
    },
    {
      "midi": 57,
      "hit": false,
      "t": 215725.4100000006,
      "d": 185.05856249999488,
      "v": 83
    },
    {
      "midi": 64,
      "hit": false,
      "t": 216007.4040000006,
      "d": 281.99400000000605,
      "v": 87
    },
    {
      "midi": 57,
      "hit": false,
      "t": 216289.3980000006,
      "d": 234.99499999999534,
      "v": 79
    },
    {
      "midi": 64,
      "hit": false,
      "t": 216577.26687500058,
      "d": 672.6731875000114,
      "v": 87
    },
    {
      "midi": 57,
      "hit": false,
      "t": 216577.26687500058,
      "d": 790.1706875000091,
      "v": 87
    },
    {
      "midi": 61,
      "hit": false,
      "t": 216577.26687500058,
      "d": 840.1071250000095,
      "v": 83
    },
    {
      "midi": 56,
      "hit": false,
      "t": 217426.1863125006,
      "d": 2244.202250000002,
      "v": 75
    },
    {
      "midi": 59,
      "hit": false,
      "t": 217426.1863125006,
      "d": 2244.202250000002,
      "v": 79
    },
    {
      "midi": 64,
      "hit": false,
      "t": 217426.1863125006,
      "d": 2244.202250000002,
      "v": 83
    },
    {
      "midi": 59,
      "hit": false,
      "t": 219670.3885625006,
      "d": 986.9789999999921,
      "v": 83
    },
    {
      "midi": 64,
      "hit": false,
      "t": 219670.3885625006,
      "d": 1057.477499999979,
      "v": 87
    },
    {
      "midi": 68,
      "hit": false,
      "t": 219670.3885625006,
      "d": 1080.9769999999844,
      "v": 83
    },
    {
      "midi": 45,
      "hit": false,
      "t": 221089.17087500056,
      "d": 3407.4274999999325,
      "v": 87
    },
    {
      "midi": 57,
      "hit": false,
      "t": 221650.22143750056,
      "d": 252.61962499999208,
      "v": 87
    },
    {
      "midi": 61,
      "hit": false,
      "t": 221650.22143750056,
      "d": 279.0565624999872,
      "v": 83
    },
    {
      "midi": 57,
      "hit": false,
      "t": 221932.21543750053,
      "d": 41.124125000002095,
      "v": 79
    },
    {
      "midi": 56,
      "hit": false,
      "t": 221932.21543750053,
      "d": 722.6096250000119,
      "v": 83
    },
    {
      "midi": 59,
      "hit": false,
      "t": 221932.21543750053,
      "d": 887.1061249999912,
      "v": 83
    },
    {
      "midi": 61,
      "hit": false,
      "t": 222775.26000000053,
      "d": 255.55706249998184,
      "v": 83
    },
    {
      "midi": 56,
      "hit": false,
      "t": 222775.26000000053,
      "d": 352.4924999999639,
      "v": 83
    },
    {
      "midi": 57,
      "hit": false,
      "t": 223063.12887500052,
      "d": 1354.158687499992,
      "v": 87
    },
    {
      "midi": 61,
      "hit": false,
      "t": 223063.12887500052,
      "d": 1944.5836249999702,
      "v": 75
    },
    {
      "midi": 64,
      "hit": false,
      "t": 223066.0663125005,
      "d": 1430.5320624999877,
      "v": 87
    },
    {
      "midi": 57,
      "hit": false,
      "t": 224476.0363125005,
      "d": 1119.1636874999967,
      "v": 83
    },
    {
      "midi": 66,
      "hit": false,
      "t": 224478.9737500005,
      "d": 528.7387499999895,
      "v": 87
    },
    {
      "midi": 64,
      "hit": false,
      "t": 225031.2120000005,
      "d": 255.55706250001094,
      "v": 87
    },
    {
      "midi": 66,
      "hit": false,
      "t": 225316.14343750052,
      "d": 252.61962499999208,
      "v": 79
    },
    {
      "midi": 64,
      "hit": false,
      "t": 225595.2000000005,
      "d": 678.5480624999909,
      "v": 87
    },
    {
      "midi": 57,
      "hit": false,
      "t": 225595.2000000005,
      "d": 796.0455624999886,
      "v": 87
    },
    {
      "midi": 61,
      "hit": false,
      "t": 225595.2000000005,
      "d": 843.0445624999993,
      "v": 83
    },
    {
      "midi": 56,
      "hit": false,
      "t": 226447.0568750005,
      "d": 2247.139687499992,
      "v": 75
    },
    {
      "midi": 59,
      "hit": false,
      "t": 226447.0568750005,
      "d": 2247.139687499992,
      "v": 79
    },
    {
      "midi": 64,
      "hit": false,
      "t": 226449.9943125005,
      "d": 2244.202250000002,
      "v": 83
    },
    {
      "midi": 59,
      "hit": false,
      "t": 228703.0088750005,
      "d": 981.1041249999835,
      "v": 83
    },
    {
      "midi": 64,
      "hit": false,
      "t": 228705.94631250048,
      "d": 1048.6651874999807,
      "v": 87
    },
    {
      "midi": 68,
      "hit": false,
      "t": 228705.94631250048,
      "d": 1116.2262499999779,
      "v": 83
    },
    {
      "midi": 64,
      "hit": false,
      "t": 229825.11000000045,
      "d": 91.06056250000256,
      "v": 87
    },
    {
      "midi": 64,
      "hit": false,
      "t": 229966.10700000045,
      "d": 70.49849999998696,
      "v": 63
    },
    {
      "midi": 64,
      "hit": false,
      "t": 230107.10400000043,
      "d": 67.5610624999972,
      "v": 75
    },
    {
      "midi": 64,
      "hit": false,
      "t": 230389.09800000043,
      "d": 93.99799999999232,
      "v": 83
    },
    {
      "midi": 64,
      "hit": false,
      "t": 230668.15456250042,
      "d": 237.9324375000142,
      "v": 87
    },
    {
      "midi": 57,
      "hit": false,
      "t": 230668.15456250042,
      "d": 258.4945000000007,
      "v": 83
    },
    {
      "midi": 61,
      "hit": false,
      "t": 230668.15456250042,
      "d": 358.36737500000163,
      "v": 83
    },
    {
      "midi": 64,
      "hit": false,
      "t": 230953.08600000042,
      "d": 725.5470625000016,
      "v": 63
    },
    {
      "midi": 56,
      "hit": false,
      "t": 230953.08600000042,
      "d": 984.0415625000023,
      "v": 79
    },
    {
      "midi": 59,
      "hit": false,
      "t": 230953.08600000042,
      "d": 1057.477499999979,
      "v": 83
    },
    {
      "midi": 64,
      "hit": false,
      "t": 231799.0680000004,
      "d": 208.55806250000023,
      "v": 87
    },
    {
      "midi": 64,
      "hit": false,
      "t": 232081.06200000038,
      "d": 1031.040562500013,
      "v": 83
    },
    {
      "midi": 57,
      "hit": false,
      "t": 232081.06200000038,
      "d": 2558.5080624999828,
      "v": 75
    },
    {
      "midi": 61,
      "hit": false,
      "t": 232081.06200000038,
      "d": 2561.4454999999725,
      "v": 83
    },
    {
      "midi": 64,
      "hit": false,
      "t": 233206.1005625004,
      "d": 469.9899999999907,
      "v": 87
    },
    {
      "midi": 64,
      "hit": false,
      "t": 233773.0260000004,
      "d": 255.55706250001094,
      "v": 75
    },
    {
      "midi": 64,
      "hit": false,
      "t": 234055.0200000004,
      "d": 587.4874999999593,
      "v": 79
    },
    {
      "midi": 40,
      "hit": false,
      "t": 234334.07656250038,
      "d": 308.43093749997206,
      "v": 83
    },
    {
      "midi": 42,
      "hit": false,
      "t": 234619.00800000038,
      "d": 1644.9649999999674,
      "v": 87
    },
    {
      "midi": 57,
      "hit": false,
      "t": 235185.93343750035,
      "d": 326.0555624999979,
      "v": 87
    },
    {
      "midi": 59,
      "hit": false,
      "t": 235464.99000000034,
      "d": 628.6116250000196,
      "v": 87
    },
    {
      "midi": 57,
      "hit": false,
      "t": 236026.04056250036,
      "d": 164.49649999997928,
      "v": 83
    },
    {
      "midi": 54,
      "hit": false,
      "t": 236164.10012500035,
      "d": 170.3713749999879,
      "v": 83
    },
    {
      "midi": 49,
      "hit": false,
      "t": 236308.03456250034,
      "d": 187.99599999998463,
      "v": 83
    },
    {
      "midi": 49,
      "hit": false,
      "t": 236595.90343750032,
      "d": 229.12012499998673,
      "v": 79
    },
    {
      "midi": 49,
      "hit": false,
      "t": 236880.83487500032,
      "d": 954.6671874999593,
      "v": 83
    },
    {
      "midi": 56,
      "hit": false,
      "t": 237156.95400000032,
      "d": 279.0565624999872,
      "v": 79
    },
    {
      "midi": 61,
      "hit": false,
      "t": 237438.9480000003,
      "d": 279.0565624999872,
      "v": 79
    },
    {
      "midi": 64,
      "hit": false,
      "t": 237720.94200000027,
      "d": 208.55806250000023,
      "v": 83
    },
    {
      "midi": 63,
      "hit": false,
      "t": 238002.93600000028,
      "d": 326.0555624999979,
      "v": 79
    },
    {
      "midi": 47,
      "hit": false,
      "t": 238002.93600000028,
      "d": 1148.5380625000107,
      "v": 79
    },
    {
      "midi": 59,
      "hit": false,
      "t": 238284.93000000028,
      "d": 232.0575625000056,
      "v": 79
    },
    {
      "midi": 56,
      "hit": false,
      "t": 238566.9240000003,
      "d": 514.0515625000116,
      "v": 79
    },
    {
      "midi": 45,
      "hit": false,
      "t": 239033.9765625003,
      "d": 2255.95199999999,
      "v": 71
    },
    {
      "midi": 52,
      "hit": false,
      "t": 239057.4760625003,
      "d": 2255.95199999999,
      "v": 75
    },
    {
      "midi": 59,
      "hit": false,
      "t": 239151.4740625003,
      "d": 563.987999999983,
      "v": 87
    },
    {
      "midi": 57,
      "hit": false,
      "t": 239694.90000000029,
      "d": 208.55806250000023,
      "v": 83
    },
    {
      "midi": 57,
      "hit": false,
      "t": 239979.83143750028,
      "d": 302.55606249999255,
      "v": 79
    },
    {
      "midi": 64,
      "hit": false,
      "t": 240258.88800000027,
      "d": 1172.037562500016,
      "v": 87
    },
    {
      "midi": 57,
      "hit": false,
      "t": 240543.81943750026,
      "d": 205.62062500001048,
      "v": 79
    },
    {
      "midi": 57,
      "hit": false,
      "t": 240825.81343750027,
      "d": 205.62062500001048,
      "v": 71
    },
    {
      "midi": 57,
      "hit": false,
      "t": 241104.8700000003,
      "d": 185.05856249999488,
      "v": 83
    },
    {
      "midi": 57,
      "hit": false,
      "t": 241386.8640000003,
      "d": 302.55606249999255,
      "v": 87
    },
    {
      "midi": 45,
      "hit": false,
      "t": 241386.8640000003,
      "d": 326.0555624999979,
      "v": 83
    },
    {
      "midi": 52,
      "hit": false,
      "t": 241386.8640000003,
      "d": 349.55506250000326,
      "v": 87
    }
  ]
}