{
  "jsonPath": "Rock/Album Rock/Billy Joel/scenes-from-an-italian-restaurant.json",
  "path": "Rock\\Album Rock\\Billy Joel\\Scenes From An Italian Restaurant.mid",
  "name": "Scenes From An Italian Restaurant",
  "difficulty": "Advanced",
  "bpm": 82.00082000820008,
  "notes": [
    {
      "midi": 60,
      "hit": false,
      "t": 4285.68,
      "d": 1695.0199218750004,
      "v": 87
    },
    {
      "midi": 63,
      "hit": false,
      "t": 4285.68,
      "d": 1711.760859375,
      "v": 97
    },
    {
      "midi": 48,
      "hit": false,
      "t": 4285.68,
      "d": 1748.0328906249997,
      "v": 84
    },
    {
      "midi": 67,
      "hit": false,
      "t": 4285.68,
      "d": 1756.403359375,
      "v": 83
    },
    {
      "midi": 56,
      "hit": false,
      "t": 6425.72984375,
      "d": 1279.2866406249996,
      "v": 78
    },
    {
      "midi": 65,
      "hit": false,
      "t": 6425.72984375,
      "d": 1279.2866406249996,
      "v": 94
    },
    {
      "midi": 60,
      "hit": false,
      "t": 6425.72984375,
      "d": 1357.411015625,
      "v": 94
    },
    {
      "midi": 41,
      "hit": false,
      "t": 6425.72984375,
      "d": 1393.6830468749995,
      "v": 79
    },
    {
      "midi": 43,
      "hit": false,
      "t": 8016.11890625,
      "d": 280.4107031249987,
      "v": 87
    },
    {
      "midi": 58,
      "hit": false,
      "t": 8016.11890625,
      "d": 283.2008593749979,
      "v": 90
    },
    {
      "midi": 62,
      "hit": false,
      "t": 8016.11890625,
      "d": 291.5713281249973,
      "v": 92
    },
    {
      "midi": 63,
      "hit": false,
      "t": 8551.828906249997,
      "d": 500.8330468749991,
      "v": 92
    },
    {
      "midi": 56,
      "hit": false,
      "t": 8554.619062499996,
      "d": 442.23976562499956,
      "v": 82
    },
    {
      "midi": 60,
      "hit": false,
      "t": 8554.619062499996,
      "d": 467.35117187499964,
      "v": 94
    },
    {
      "midi": 44,
      "hit": false,
      "t": 8554.619062499996,
      "d": 1474.597578124998,
      "v": 90
    },
    {
      "midi": 56,
      "hit": false,
      "t": 9743.225624999995,
      "d": 609.6491406249988,
      "v": 7
    },
    {
      "midi": 60,
      "hit": false,
      "t": 9771.127187499995,
      "d": 90.68007812500036,
      "v": 84
    },
    {
      "midi": 63,
      "hit": false,
      "t": 9905.054687499995,
      "d": 93.47023437499956,
      "v": 96
    },
    {
      "midi": 67,
      "hit": false,
      "t": 10047.352656249994,
      "d": 121.37179687500065,
      "v": 92
    },
    {
      "midi": 44,
      "hit": false,
      "t": 10181.280156249994,
      "d": 232.97804687499956,
      "v": 69
    },
    {
      "midi": 70,
      "hit": false,
      "t": 10317.997812499994,
      "d": 62.77851562499927,
      "v": 102
    },
    {
      "midi": 43,
      "hit": false,
      "t": 10694.668906249994,
      "d": 899.8253906250011,
      "v": 80
    },
    {
      "midi": 65,
      "hit": false,
      "t": 10716.990156249994,
      "d": 1354.6208593750016,
      "v": 92
    },
    {
      "midi": 55,
      "hit": false,
      "t": 10716.990156249994,
      "d": 1402.0535156250007,
      "v": 90
    },
    {
      "midi": 70,
      "hit": false,
      "t": 10716.990156249994,
      "d": 1625.2660156250022,
      "v": 87
    },
    {
      "midi": 62,
      "hit": false,
      "t": 10719.780312499994,
      "d": 1136.9886718750022,
      "v": 86
    },
    {
      "midi": 43,
      "hit": false,
      "t": 11785.619999999995,
      "d": 955.6285156250015,
      "v": 63
    },
    {
      "midi": 62,
      "hit": false,
      "t": 12047.894687499997,
      "d": 313.892578125,
      "v": 74
    },
    {
      "midi": 55,
      "hit": false,
      "t": 12310.169374999996,
      "d": 341.7941406250011,
      "v": 73
    },
    {
      "midi": 67,
      "hit": false,
      "t": 12446.887031249997,
      "d": 129.74226562500007,
      "v": 79
    },
    {
      "midi": 63,
      "hit": false,
      "t": 12859.830156249996,
      "d": 1033.752890624999,
      "v": 78
    },
    {
      "midi": 67,
      "hit": false,
      "t": 12859.830156249996,
      "d": 1067.2347656249985,
      "v": 87
    },
    {
      "midi": 72,
      "hit": false,
      "t": 12862.620312499996,
      "d": 1061.6544531250001,
      "v": 83
    },
    {
      "midi": 48,
      "hit": false,
      "t": 12862.620312499996,
      "d": 1759.1935156250001,
      "v": 85
    },
    {
      "midi": 63,
      "hit": false,
      "t": 14455.799531249995,
      "d": 177.17492187500102,
      "v": 76
    },
    {
      "midi": 67,
      "hit": false,
      "t": 14455.799531249995,
      "d": 185.54539062500044,
      "v": 87
    },
    {
      "midi": 72,
      "hit": false,
      "t": 14455.799531249995,
      "d": 372.48585937499956,
      "v": 87
    },
    {
      "midi": 41,
      "hit": false,
      "t": 14849.211562499995,
      "d": 1025.3824218750015,
      "v": 46
    },
    {
      "midi": 53,
      "hit": false,
      "t": 14891.063906249996,
      "d": 1583.4136718749996,
      "v": 73
    },
    {
      "midi": 72,
      "hit": false,
      "t": 14991.509531249996,
      "d": 1538.771171874998,
      "v": 85
    },
    {
      "midi": 63,
      "hit": false,
      "t": 14994.299687499995,
      "d": 1176.050859375002,
      "v": 81
    },
    {
      "midi": 68,
      "hit": false,
      "t": 14994.299687499995,
      "d": 1516.4499218749988,
      "v": 88
    },
    {
      "midi": 63,
      "hit": false,
      "t": 16322.414062499996,
      "d": 152.06351562499913,
      "v": 48
    },
    {
      "midi": 43,
      "hit": false,
      "t": 16729.776874999992,
      "d": 272.0402343750029,
      "v": 84
    },
    {
      "midi": 55,
      "hit": false,
      "t": 16732.567031249993,
      "d": 210.65679687500233,
      "v": 80
    },
    {
      "midi": 67,
      "hit": false,
      "t": 16732.567031249993,
      "d": 210.65679687500233,
      "v": 92
    },
    {
      "midi": 72,
      "hit": false,
      "t": 16732.567031249993,
      "d": 280.4107031250023,
      "v": 81
    },
    {
      "midi": 63,
      "hit": false,
      "t": 16735.357187499994,
      "d": 207.8666406250013,
      "v": 75
    },
    {
      "midi": 72,
      "hit": false,
      "t": 17153.880624999994,
      "d": 1480.1778906250001,
      "v": 79
    },
    {
      "midi": 56,
      "hit": false,
      "t": 17153.880624999994,
      "d": 1826.1572656250028,
      "v": 88
    },
    {
      "midi": 63,
      "hit": false,
      "t": 17156.670781249995,
      "d": 1159.3099218749994,
      "v": 77
    },
    {
      "midi": 44,
      "hit": false,
      "t": 17156.670781249995,
      "d": 1259.7555468749997,
      "v": 78
    },
    {
      "midi": 67,
      "hit": false,
      "t": 17156.670781249995,
      "d": 1309.9783593749999,
      "v": 89
    },
    {
      "midi": 63,
      "hit": false,
      "t": 18468.044218749994,
      "d": 224.60757812500015,
      "v": 59
    },
    {
      "midi": 44,
      "hit": false,
      "t": 18741.479531249995,
      "d": 249.71898437500204,
      "v": 61
    },
    {
      "midi": 72,
      "hit": false,
      "t": 18880.987343749995,
      "d": 177.17492187500102,
      "v": 89
    },
    {
      "midi": 43,
      "hit": false,
      "t": 19285.559999999998,
      "d": 905.405703125005,
      "v": 84
    },
    {
      "midi": 62,
      "hit": false,
      "t": 19288.35015625,
      "d": 1446.696015625006,
      "v": 78
    },
    {
      "midi": 70,
      "hit": false,
      "t": 19288.35015625,
      "d": 1463.436953125005,
      "v": 81
    },
    {
      "midi": 55,
      "hit": false,
      "t": 19288.35015625,
      "d": 1499.7089843750036,
      "v": 76
    },
    {
      "midi": 65,
      "hit": false,
      "t": 19291.1403125,
      "d": 1441.115703125004,
      "v": 89
    },
    {
      "midi": 60,
      "hit": false,
      "t": 21428.4,
      "d": 657.0817968750016,
      "v": 83
    },
    {
      "midi": 67,
      "hit": false,
      "t": 21428.4,
      "d": 749.1569531250025,
      "v": 87
    },
    {
      "midi": 63,
      "hit": false,
      "t": 21428.4,
      "d": 757.5274218750019,
      "v": 79
    },
    {
      "midi": 48,
      "hit": false,
      "t": 21428.4,
      "d": 810.5403906249994,
      "v": 84
    },
    {
      "midi": 60,
      "hit": false,
      "t": 22226.3846875,
      "d": 87.88992187499753,
      "v": 51
    },
    {
      "midi": 48,
      "hit": false,
      "t": 22497.02984375,
      "d": 249.7189843749984,
      "v": 79
    },
    {
      "midi": 48,
      "hit": false,
      "t": 23035.53,
      "d": 152.06351562499913,
      "v": 84
    },
    {
      "midi": 60,
      "hit": false,
      "t": 23035.53,
      "d": 154.85367187500015,
      "v": 83
    },
    {
      "midi": 63,
      "hit": false,
      "t": 23038.32015625,
      "d": 143.6930468749997,
      "v": 83
    },
    {
      "midi": 67,
      "hit": false,
      "t": 23038.32015625,
      "d": 205.0764843750003,
      "v": 92
    },
    {
      "midi": 56,
      "hit": false,
      "t": 23571.24,
      "d": 489.6724218750023,
      "v": 82
    },
    {
      "midi": 60,
      "hit": false,
      "t": 23571.24,
      "d": 495.2527343750007,
      "v": 93
    },
    {
      "midi": 65,
      "hit": false,
      "t": 23571.24,
      "d": 509.2035156250022,
      "v": 88
    },
    {
      "midi": 53,
      "hit": false,
      "t": 23574.030156250003,
      "d": 908.1958593750023,
      "v": 79
    },
    {
      "midi": 53,
      "hit": false,
      "t": 24648.240312500006,
      "d": 230.18789062499854,
      "v": 63
    },
    {
      "midi": 53,
      "hit": false,
      "t": 25172.789687500004,
      "d": 149.27335937500175,
      "v": 66
    },
    {
      "midi": 60,
      "hit": false,
      "t": 25172.789687500004,
      "d": 255.29929687500044,
      "v": 87
    },
    {
      "midi": 63,
      "hit": false,
      "t": 25172.789687500004,
      "d": 255.29929687500044,
      "v": 90
    },
    {
      "midi": 70,
      "hit": false,
      "t": 25172.789687500004,
      "d": 269.2500781250019,
      "v": 87
    },
    {
      "midi": 56,
      "hit": false,
      "t": 25708.499687500003,
      "d": 735.206171875001,
      "v": 72
    },
    {
      "midi": 60,
      "hit": false,
      "t": 25711.289843750004,
      "d": 565.0066406249971,
      "v": 84
    },
    {
      "midi": 63,
      "hit": false,
      "t": 25711.289843750004,
      "d": 609.6491406249988,
      "v": 88
    },
    {
      "midi": 44,
      "hit": false,
      "t": 25711.289843750004,
      "d": 620.8097656249993,
      "v": 70
    },
    {
      "midi": 67,
      "hit": false,
      "t": 25711.289843750004,
      "d": 640.3408593749991,
      "v": 88
    },
    {
      "midi": 44,
      "hit": false,
      "t": 26788.290156250005,
      "d": 838.4419531250023,
      "v": 65
    },
    {
      "midi": 63,
      "hit": false,
      "t": 27318.419843750005,
      "d": 193.91585937499985,
      "v": 93
    },
    {
      "midi": 67,
      "hit": false,
      "t": 27318.419843750005,
      "d": 193.91585937499985,
      "v": 87
    },
    {
      "midi": 56,
      "hit": false,
      "t": 27318.419843750005,
      "d": 207.8666406250013,
      "v": 76
    },
    {
      "midi": 60,
      "hit": false,
      "t": 27318.419843750005,
      "d": 207.8666406250013,
      "v": 87
    },
    {
      "midi": 62,
      "hit": false,
      "t": 27854.129843750008,
      "d": 246.92882812500102,
      "v": 94
    },
    {
      "midi": 58,
      "hit": false,
      "t": 27854.129843750008,
      "d": 252.50914062499942,
      "v": 78
    },
    {
      "midi": 65,
      "hit": false,
      "t": 27854.129843750008,
      "d": 269.25007812499825,
      "v": 91
    },
    {
      "midi": 55,
      "hit": false,
      "t": 27854.129843750008,
      "d": 272.0402343749993,
      "v": 75
    },
    {
      "midi": 43,
      "hit": false,
      "t": 27854.129843750008,
      "d": 1814.996640624995,
      "v": 73
    },
    {
      "midi": 55,
      "hit": false,
      "t": 28375.889062500006,
      "d": 793.7994531250006,
      "v": 59
    },
    {
      "midi": 62,
      "hit": false,
      "t": 28654.904687500006,
      "d": 341.7941406250029,
      "v": 85
    },
    {
      "midi": 70,
      "hit": false,
      "t": 28654.904687500006,
      "d": 400.3874218750025,
      "v": 87
    },
    {
      "midi": 65,
      "hit": false,
      "t": 28654.904687500006,
      "d": 425.4988281250007,
      "v": 89
    },
    {
      "midi": 62,
      "hit": false,
      "t": 29182.244218750006,
      "d": 37.66710937500102,
      "v": 54
    },
    {
      "midi": 70,
      "hit": false,
      "t": 29461.259843750006,
      "d": 202.28632812499927,
      "v": 78
    },
    {
      "midi": 62,
      "hit": false,
      "t": 29461.259843750006,
      "d": 213.44695312499607,
      "v": 87
    },
    {
      "midi": 55,
      "hit": false,
      "t": 29461.259843750006,
      "d": 227.39773437499753,
      "v": 84
    },
    {
      "midi": 48,
      "hit": false,
      "t": 29885.363593750004,
      "d": 1921.022578125001,
      "v": 79
    },
    {
      "midi": 60,
      "hit": false,
      "t": 29974.648593750004,
      "d": 924.9367968749975,
      "v": 86
    },
    {
      "midi": 63,
      "hit": false,
      "t": 30008.130468750005,
      "d": 679.4030468749988,
      "v": 82
    },
    {
      "midi": 67,
      "hit": false,
      "t": 30008.130468750005,
      "d": 816.1207031249978,
      "v": 88
    },
    {
      "midi": 72,
      "hit": false,
      "t": 30008.130468750005,
      "d": 891.4549218749962,
      "v": 84
    },
    {
      "midi": 60,
      "hit": false,
      "t": 31604.099843750002,
      "d": 185.54539062500407,
      "v": 72
    },
    {
      "midi": 67,
      "hit": false,
      "t": 31606.890000000003,
      "d": 138.1127343750013,
      "v": 89
    },
    {
      "midi": 63,
      "hit": false,
      "t": 31606.890000000003,
      "d": 146.48320312500073,
      "v": 85
    },
    {
      "midi": 72,
      "hit": false,
      "t": 31606.890000000003,
      "d": 179.96507812500204,
      "v": 83
    },
    {
      "midi": 53,
      "hit": false,
      "t": 32150.970468750005,
      "d": 774.2683593749971,
      "v": 86
    },
    {
      "midi": 68,
      "hit": false,
      "t": 32153.760625000006,
      "d": 880.2942968749958,
      "v": 91
    },
    {
      "midi": 63,
      "hit": false,
      "t": 32153.760625000006,
      "d": 905.405703124994,
      "v": 82
    },
    {
      "midi": 72,
      "hit": false,
      "t": 32153.760625000006,
      "d": 916.5663281249908,
      "v": 89
    },
    {
      "midi": 53,
      "hit": false,
      "t": 33214.02,
      "d": 199.49617187499825,
      "v": 66
    },
    {
      "midi": 70,
      "hit": false,
      "t": 33749.729999999996,
      "d": 179.96507812499476,
      "v": 79
    },
    {
      "midi": 55,
      "hit": false,
      "t": 33749.729999999996,
      "d": 185.5453906249968,
      "v": 85
    },
    {
      "midi": 62,
      "hit": false,
      "t": 33749.729999999996,
      "d": 205.0764843750003,
      "v": 86
    },
    {
      "midi": 67,
      "hit": false,
      "t": 33752.52015624999,
      "d": 166.01429687500058,
      "v": 85
    },
    {
      "midi": 44,
      "hit": false,
      "t": 34285.439999999995,
      "d": 347.3744531249904,
      "v": 73
    },
    {
      "midi": 56,
      "hit": false,
      "t": 34285.439999999995,
      "d": 1558.302265624996,
      "v": 70
    },
    {
      "midi": 60,
      "hit": false,
      "t": 34288.23015624999,
      "d": 269.25007812499825,
      "v": 84
    },
    {
      "midi": 63,
      "hit": false,
      "t": 34288.23015624999,
      "d": 291.5713281249991,
      "v": 86
    },
    {
      "midi": 67,
      "hit": false,
      "t": 34288.23015624999,
      "d": 302.7319531249959,
      "v": 90
    },
    {
      "midi": 63,
      "hit": false,
      "t": 35083.42468749999,
      "d": 87.88992187500116,
      "v": 78
    },
    {
      "midi": 67,
      "hit": false,
      "t": 35220.14234374999,
      "d": 73.93914062499971,
      "v": 83
    },
    {
      "midi": 44,
      "hit": false,
      "t": 35351.27968749999,
      "d": 832.8616406250003,
      "v": 69
    },
    {
      "midi": 68,
      "hit": false,
      "t": 35354.06984374999,
      "d": 132.5324218750029,
      "v": 91
    },
    {
      "midi": 70,
      "hit": false,
      "t": 35496.36781249999,
      "d": 219.02726562500175,
      "v": 92
    },
    {
      "midi": 72,
      "hit": false,
      "t": 35758.642499999994,
      "d": 679.4030468749916,
      "v": 92
    },
    {
      "midi": 56,
      "hit": false,
      "t": 35892.56999999999,
      "d": 280.4107031250023,
      "v": 52
    },
    {
      "midi": 43,
      "hit": false,
      "t": 36425.489843749994,
      "d": 863.5533593749933,
      "v": 76
    },
    {
      "midi": 55,
      "hit": false,
      "t": 36425.489843749994,
      "d": 1279.2866406249886,
      "v": 77
    },
    {
      "midi": 70,
      "hit": false,
      "t": 36428.27999999999,
      "d": 1307.1882031249916,
      "v": 69
    },
    {
      "midi": 62,
      "hit": false,
      "t": 36431.07015624999,
      "d": 1131.4083593749965,
      "v": 83
    },
    {
      "midi": 65,
      "hit": false,
      "t": 36431.07015624999,
      "d": 1273.706328124994,
      "v": 90
    },
    {
      "midi": 43,
      "hit": false,
      "t": 37496.909843749985,
      "d": 997.4808593749985,
      "v": 68
    },
    {
      "midi": 62,
      "hit": false,
      "t": 37761.974687499984,
      "d": 118.58164062500146,
      "v": 35
    },
    {
      "midi": 65,
      "hit": false,
      "t": 38029.82968749999,
      "d": 453.400390625,
      "v": 85
    },
    {
      "midi": 70,
      "hit": false,
      "t": 38029.82968749999,
      "d": 475.7216406249936,
      "v": 73
    },
    {
      "midi": 55,
      "hit": false,
      "t": 38032.619843749984,
      "d": 433.8692968750038,
      "v": 64
    },
    {
      "midi": 62,
      "hit": false,
      "t": 38032.619843749984,
      "d": 447.82007812500524,
      "v": 81
    },
    {
      "midi": 60,
      "hit": false,
      "t": 38571.11999999998,
      "d": 1695.0199218750058,
      "v": 87
    },
    {
      "midi": 63,
      "hit": false,
      "t": 38571.11999999998,
      "d": 1711.7608593750047,
      "v": 97
    },
    {
      "midi": 48,
      "hit": false,
      "t": 38571.11999999998,
      "d": 1748.032890625007,
      "v": 84
    },
    {
      "midi": 67,
      "hit": false,
      "t": 38571.11999999998,
      "d": 1756.4033593750064,
      "v": 83
    },
    {
      "midi": 56,
      "hit": false,
      "t": 40711.16984374999,
      "d": 1279.286640624996,
      "v": 78
    },
    {
      "midi": 65,
      "hit": false,
      "t": 40711.16984374999,
      "d": 1279.286640624996,
      "v": 94
    },
    {
      "midi": 60,
      "hit": false,
      "t": 40711.16984374999,
      "d": 1357.4110156249953,
      "v": 94
    },
    {
      "midi": 41,
      "hit": false,
      "t": 40711.16984374999,
      "d": 1393.6830468749977,
      "v": 79
    },
    {
      "midi": 43,
      "hit": false,
      "t": 42301.558906249986,
      "d": 280.4107031250023,
      "v": 87
    },
    {
      "midi": 58,
      "hit": false,
      "t": 42301.558906249986,
      "d": 283.2008593749997,
      "v": 90
    },
    {
      "midi": 62,
      "hit": false,
      "t": 42301.558906249986,
      "d": 291.5713281249991,
      "v": 92
    },
    {
      "midi": 63,
      "hit": false,
      "t": 42837.268906249985,
      "d": 500.83304687499185,
      "v": 92
    },
    {
      "midi": 56,
      "hit": false,
      "t": 42840.05906249998,
      "d": 442.2397656249959,
      "v": 82
    },
    {
      "midi": 60,
      "hit": false,
      "t": 42840.05906249998,
      "d": 467.3511718749942,
      "v": 94
    },
    {
      "midi": 44,
      "hit": false,
      "t": 42840.05906249998,
      "d": 1474.5975781250017,
      "v": 90
    },
    {
      "midi": 56,
      "hit": false,
      "t": 44028.66562499998,
      "d": 609.6491406250061,
      "v": 7
    },
    {
      "midi": 60,
      "hit": false,
      "t": 44056.56718749998,
      "d": 90.68007812499854,
      "v": 84
    },
    {
      "midi": 63,
      "hit": false,
      "t": 44190.49468749998,
      "d": 93.4702343750032,
      "v": 96
    },
    {
      "midi": 67,
      "hit": false,
      "t": 44332.792656249985,
      "d": 121.37179687499884,
      "v": 92
    },
    {
      "midi": 44,
      "hit": false,
      "t": 44466.72015624998,
      "d": 232.9780468750032,
      "v": 69
    },
    {
      "midi": 70,
      "hit": false,
      "t": 44603.437812499986,
      "d": 62.77851562500291,
      "v": 102
    },
    {
      "midi": 43,
      "hit": false,
      "t": 44980.10890624999,
      "d": 899.8253906249956,
      "v": 80
    },
    {
      "midi": 65,
      "hit": false,
      "t": 45002.43015624999,
      "d": 1354.620859374998,
      "v": 92
    },
    {
      "midi": 55,
      "hit": false,
      "t": 45002.43015624999,
      "d": 1402.053515624997,
      "v": 90
    },
    {
      "midi": 70,
      "hit": false,
      "t": 45002.43015624999,
      "d": 1625.2660156249985,
      "v": 87
    },
    {
      "midi": 62,
      "hit": false,
      "t": 45005.22031249999,
      "d": 1136.9886718749985,
      "v": 86
    },
    {
      "midi": 43,
      "hit": false,
      "t": 46071.05999999998,
      "d": 955.6285156250087,
      "v": 63
    },
    {
      "midi": 62,
      "hit": false,
      "t": 46333.334687499984,
      "d": 313.8925781250073,
      "v": 74
    },
    {
      "midi": 55,
      "hit": false,
      "t": 46595.609374999985,
      "d": 341.7941406250029,
      "v": 73
    },
    {
      "midi": 67,
      "hit": false,
      "t": 46732.32703124999,
      "d": 129.74226562499825,
      "v": 79
    },
    {
      "midi": 63,
      "hit": false,
      "t": 47145.27015624999,
      "d": 1033.7528906249936,
      "v": 78
    },
    {
      "midi": 67,
      "hit": false,
      "t": 47145.27015624999,
      "d": 1067.2347656249913,
      "v": 87
    },
    {
      "midi": 72,
      "hit": false,
      "t": 47148.06031249999,
      "d": 1061.6544531249965,
      "v": 83
    },
    {
      "midi": 48,
      "hit": false,
      "t": 47148.06031249999,
      "d": 1759.1935156249965,
      "v": 85
    },
    {
      "midi": 63,
      "hit": false,
      "t": 48741.23953124999,
      "d": 177.17492187499738,
      "v": 76
    },
    {
      "midi": 67,
      "hit": false,
      "t": 48741.23953124999,
      "d": 185.5453906249968,
      "v": 87
    },
    {
      "midi": 72,
      "hit": false,
      "t": 48741.23953124999,
      "d": 372.4858593749959,
      "v": 87
    },
    {
      "midi": 41,
      "hit": false,
      "t": 49134.65156249998,
      "d": 1025.3824218749942,
      "v": 46
    },
    {
      "midi": 53,
      "hit": false,
      "t": 49176.50390624998,
      "d": 1583.4136718749942,
      "v": 73
    },
    {
      "midi": 72,
      "hit": false,
      "t": 49276.94953124998,
      "d": 1538.7711718749997,
      "v": 85
    },
    {
      "midi": 63,
      "hit": false,
      "t": 49279.739687499976,
      "d": 1176.0508593749983,
      "v": 81
    },
    {
      "midi": 68,
      "hit": false,
      "t": 49279.739687499976,
      "d": 1516.4499218749988,
      "v": 88
    },
    {
      "midi": 63,
      "hit": false,
      "t": 50607.85406249997,
      "d": 152.06351562499913,
      "v": 48
    },
    {
      "midi": 43,
      "hit": false,
      "t": 51015.21687499998,
      "d": 272.0402343750029,
      "v": 84
    },
    {
      "midi": 55,
      "hit": false,
      "t": 51018.007031249974,
      "d": 210.65679687500233,
      "v": 80
    },
    {
      "midi": 67,
      "hit": false,
      "t": 51018.007031249974,
      "d": 210.65679687500233,
      "v": 92
    },
    {
      "midi": 72,
      "hit": false,
      "t": 51018.007031249974,
      "d": 280.4107031250023,
      "v": 81
    },
    {
      "midi": 63,
      "hit": false,
      "t": 51020.79718749997,
      "d": 207.86664062500495,
      "v": 75
    },
    {
      "midi": 72,
      "hit": false,
      "t": 51439.32062499998,
      "d": 1480.1778906249965,
      "v": 79
    },
    {
      "midi": 56,
      "hit": false,
      "t": 51439.32062499998,
      "d": 1826.1572656249991,
      "v": 88
    },
    {
      "midi": 63,
      "hit": false,
      "t": 51442.110781249976,
      "d": 1159.3099218749994,
      "v": 77
    },
    {
      "midi": 44,
      "hit": false,
      "t": 51442.110781249976,
      "d": 1259.7555468749997,
      "v": 78
    },
    {
      "midi": 67,
      "hit": false,
      "t": 51442.110781249976,
      "d": 1309.9783593749962,
      "v": 89
    },
    {
      "midi": 63,
      "hit": false,
      "t": 52753.484218749974,
      "d": 224.60757812500378,
      "v": 59
    },
    {
      "midi": 44,
      "hit": false,
      "t": 53026.91953124998,
      "d": 249.71898437499476,
      "v": 61
    },
    {
      "midi": 72,
      "hit": false,
      "t": 53166.42734374998,
      "d": 177.17492187499738,
      "v": 89
    },
    {
      "midi": 43,
      "hit": false,
      "t": 53570.99999999998,
      "d": 905.4057031249904,
      "v": 84
    },
    {
      "midi": 62,
      "hit": false,
      "t": 53573.790156249976,
      "d": 1446.6960156249916,
      "v": 78
    },
    {
      "midi": 70,
      "hit": false,
      "t": 53573.790156249976,
      "d": 1463.4369531249904,
      "v": 81
    },
    {
      "midi": 55,
      "hit": false,
      "t": 53573.790156249976,
      "d": 1499.7089843749927,
      "v": 76
    },
    {
      "midi": 65,
      "hit": false,
      "t": 53576.58031249997,
      "d": 1441.1157031249968,
      "v": 89
    },
    {
      "midi": 57,
      "hit": false,
      "t": 55713.840000000004,
      "d": 210.65679687500233,
      "v": 87
    },
    {
      "midi": 60,
      "hit": false,
      "t": 55713.840000000004,
      "d": 319.4728906250093,
      "v": 88
    },
    {
      "midi": 65,
      "hit": false,
      "t": 55713.840000000004,
      "d": 336.21382812500815,
      "v": 90
    },
    {
      "midi": 53,
      "hit": false,
      "t": 55713.840000000004,
      "d": 1410.4239843750038,
      "v": 80
    },
    {
      "midi": 41,
      "hit": false,
      "t": 55713.840000000004,
      "d": 2013.0977343749983,
      "v": 73
    },
    {
      "midi": 57,
      "hit": false,
      "t": 55978.90484375001,
      "d": 149.27335937500175,
      "v": 60
    },
    {
      "midi": 57,
      "hit": false,
      "t": 56246.75984375001,
      "d": 154.8536718749965,
      "v": 83
    },
    {
      "midi": 60,
      "hit": false,
      "t": 56246.75984375001,
      "d": 255.2992968749968,
      "v": 80
    },
    {
      "midi": 65,
      "hit": false,
      "t": 56246.75984375001,
      "d": 283.20085937499243,
      "v": 86
    },
    {
      "midi": 57,
      "hit": false,
      "t": 56517.405000000006,
      "d": 115.7914843749968,
      "v": 60
    },
    {
      "midi": 57,
      "hit": false,
      "t": 56782.469843750005,
      "d": 140.90289062500233,
      "v": 82
    },
    {
      "midi": 60,
      "hit": false,
      "t": 56782.469843750005,
      "d": 246.92882812500466,
      "v": 85
    },
    {
      "midi": 65,
      "hit": false,
      "t": 56782.469843750005,
      "d": 263.6697656250035,
      "v": 88
    },
    {
      "midi": 57,
      "hit": false,
      "t": 57047.53468750001,
      "d": 115.7914843749968,
      "v": 80
    },
    {
      "midi": 53,
      "hit": false,
      "t": 57181.46218750001,
      "d": 475.7216406249936,
      "v": 72
    },
    {
      "midi": 67,
      "hit": false,
      "t": 57315.38968750001,
      "d": 140.90289062499505,
      "v": 97
    },
    {
      "midi": 72,
      "hit": false,
      "t": 57315.38968750001,
      "d": 227.3977343749939,
      "v": 85
    },
    {
      "midi": 69,
      "hit": false,
      "t": 57449.317187500004,
      "d": 113.00132812499942,
      "v": 76
    },
    {
      "midi": 65,
      "hit": false,
      "t": 57580.454531250005,
      "d": 115.7914843749968,
      "v": 77
    },
    {
      "midi": 60,
      "hit": false,
      "t": 57714.38203125,
      "d": 124.16195312499622,
      "v": 57
    },
    {
      "midi": 62,
      "hit": false,
      "t": 57851.0996875,
      "d": 246.92882812499738,
      "v": 85
    },
    {
      "midi": 67,
      "hit": false,
      "t": 57851.0996875,
      "d": 305.5221093749933,
      "v": 87
    },
    {
      "midi": 41,
      "hit": false,
      "t": 57851.0996875,
      "d": 2018.6780468749857,
      "v": 77
    },
    {
      "midi": 53,
      "hit": false,
      "t": 57851.0996875,
      "d": 2029.8386718749825,
      "v": 76
    },
    {
      "midi": 58,
      "hit": false,
      "t": 57853.889843749996,
      "d": 146.4832031249971,
      "v": 79
    },
    {
      "midi": 58,
      "hit": false,
      "t": 58118.954687499994,
      "d": 138.11273437499767,
      "v": 61
    },
    {
      "midi": 58,
      "hit": false,
      "t": 58384.01953124999,
      "d": 143.6930468749997,
      "v": 67
    },
    {
      "midi": 67,
      "hit": false,
      "t": 58384.01953124999,
      "d": 260.87960937499884,
      "v": 87
    },
    {
      "midi": 62,
      "hit": false,
      "t": 58386.80968749999,
      "d": 244.138671875,
      "v": 93
    },
    {
      "midi": 58,
      "hit": false,
      "t": 58657.45484374999,
      "d": 146.4832031249971,
      "v": 48
    },
    {
      "midi": 58,
      "hit": false,
      "t": 58925.30984374999,
      "d": 113.00132812499942,
      "v": 67
    },
    {
      "midi": 67,
      "hit": false,
      "t": 58925.30984374999,
      "d": 182.75523437499942,
      "v": 89
    },
    {
      "midi": 62,
      "hit": false,
      "t": 58925.30984374999,
      "d": 227.39773437500116,
      "v": 92
    },
    {
      "midi": 58,
      "hit": false,
      "t": 59184.79437499999,
      "d": 115.7914843749968,
      "v": 69
    },
    {
      "midi": 72,
      "hit": false,
      "t": 59329.882499999985,
      "d": 124.16195312500349,
      "v": 107
    },
    {
      "midi": 77,
      "hit": false,
      "t": 59329.882499999985,
      "d": 274.8303906250003,
      "v": 97
    },
    {
      "midi": 74,
      "hit": false,
      "t": 59469.390312499985,
      "d": 129.74226562499825,
      "v": 64
    },
    {
      "midi": 70,
      "hit": false,
      "t": 59594.947343749984,
      "d": 118.58164062500146,
      "v": 93
    },
    {
      "midi": 65,
      "hit": false,
      "t": 59728.87484374998,
      "d": 113.00132812499942,
      "v": 76
    },
    {
      "midi": 62,
      "hit": false,
      "t": 59860.01218749998,
      "d": 115.7914843749968,
      "v": 80
    },
    {
      "midi": 60,
      "hit": false,
      "t": 59996.72984374998,
      "d": 163.22414062499593,
      "v": 89
    },
    {
      "midi": 67,
      "hit": false,
      "t": 59996.72984374998,
      "d": 246.92882812499738,
      "v": 84
    },
    {
      "midi": 53,
      "hit": false,
      "t": 59996.72984374998,
      "d": 1390.8928906249857,
      "v": 96
    },
    {
      "midi": 41,
      "hit": false,
      "t": 59996.72984374998,
      "d": 1842.8982031249834,
      "v": 77
    },
    {
      "midi": 64,
      "hit": false,
      "t": 59999.519999999975,
      "d": 227.39773437500116,
      "v": 80
    },
    {
      "midi": 60,
      "hit": false,
      "t": 60264.58484374997,
      "d": 115.7914843749968,
      "v": 70
    },
    {
      "midi": 64,
      "hit": false,
      "t": 60538.02015624997,
      "d": 205.0764843750003,
      "v": 77
    },
    {
      "midi": 67,
      "hit": false,
      "t": 60538.02015624997,
      "d": 213.4469531249997,
      "v": 82
    },
    {
      "midi": 72,
      "hit": false,
      "t": 60538.02015624997,
      "d": 241.34851562500262,
      "v": 77
    },
    {
      "midi": 60,
      "hit": false,
      "t": 60540.81031249997,
      "d": 124.16195312500349,
      "v": 73
    },
    {
      "midi": 60,
      "hit": false,
      "t": 60800.29484374997,
      "d": 126.95210937500087,
      "v": 71
    },
    {
      "midi": 60,
      "hit": false,
      "t": 61073.73015624997,
      "d": 160.43398437499854,
      "v": 82
    },
    {
      "midi": 64,
      "hit": false,
      "t": 61073.73015624997,
      "d": 224.6075781249965,
      "v": 85
    },
    {
      "midi": 72,
      "hit": false,
      "t": 61073.73015624997,
      "d": 258.0894531249942,
      "v": 87
    },
    {
      "midi": 67,
      "hit": false,
      "t": 61073.73015624997,
      "d": 266.4599218749936,
      "v": 83
    },
    {
      "midi": 60,
      "hit": false,
      "t": 61341.58515624997,
      "d": 113.00132812499942,
      "v": 72
    },
    {
      "midi": 53,
      "hit": false,
      "t": 61603.85984374997,
      "d": 255.29929687498952,
      "v": 79
    },
    {
      "midi": 60,
      "hit": false,
      "t": 61606.649999999965,
      "d": 138.11273437499767,
      "v": 93
    },
    {
      "midi": 64,
      "hit": false,
      "t": 61606.649999999965,
      "d": 249.71898437499476,
      "v": 97
    },
    {
      "midi": 67,
      "hit": false,
      "t": 61606.649999999965,
      "d": 249.71898437499476,
      "v": 97
    },
    {
      "midi": 72,
      "hit": false,
      "t": 61609.44015624996,
      "d": 244.138671875,
      "v": 91
    },
    {
      "midi": 60,
      "hit": false,
      "t": 61871.714843749956,
      "d": 113.00132812499942,
      "v": 80
    },
    {
      "midi": 41,
      "hit": false,
      "t": 62139.56984374995,
      "d": 288.78117187499447,
      "v": 79
    },
    {
      "midi": 53,
      "hit": false,
      "t": 62139.56984374995,
      "d": 319.47289062499476,
      "v": 94
    },
    {
      "midi": 62,
      "hit": false,
      "t": 62142.35999999995,
      "d": 269.25007812499825,
      "v": 104
    },
    {
      "midi": 70,
      "hit": false,
      "t": 62142.35999999995,
      "d": 272.04023437499563,
      "v": 99
    },
    {
      "midi": 65,
      "hit": false,
      "t": 62142.35999999995,
      "d": 277.6205468749977,
      "v": 107
    },
    {
      "midi": 41,
      "hit": false,
      "t": 62672.48968749995,
      "d": 174.38476562499272,
      "v": 78
    },
    {
      "midi": 53,
      "hit": false,
      "t": 62675.279843749944,
      "d": 135.32257812499302,
      "v": 94
    },
    {
      "midi": 62,
      "hit": false,
      "t": 62675.279843749944,
      "d": 149.27335937499447,
      "v": 87
    },
    {
      "midi": 65,
      "hit": false,
      "t": 62675.279843749944,
      "d": 157.6438281249939,
      "v": 85
    },
    {
      "midi": 70,
      "hit": false,
      "t": 62675.279843749944,
      "d": 196.7060156249936,
      "v": 82
    },
    {
      "midi": 65,
      "hit": false,
      "t": 62943.13484374994,
      "d": 1036.5430468749837,
      "v": 81
    },
    {
      "midi": 41,
      "hit": false,
      "t": 62945.92499999994,
      "d": 386.4366406249974,
      "v": 89
    },
    {
      "midi": 53,
      "hit": false,
      "t": 62945.92499999994,
      "d": 425.4988281249971,
      "v": 98
    },
    {
      "midi": 60,
      "hit": false,
      "t": 62945.92499999994,
      "d": 1033.7528906249863,
      "v": 86
    },
    {
      "midi": 69,
      "hit": false,
      "t": 62948.715156249935,
      "d": 1036.543046874991,
      "v": 84
    },
    {
      "midi": 41,
      "hit": false,
      "t": 63478.84484374993,
      "d": 113.00132812499942,
      "v": 84
    },
    {
      "midi": 53,
      "hit": false,
      "t": 63478.84484374993,
      "d": 113.00132812499942,
      "v": 94
    },
    {
      "midi": 43,
      "hit": false,
      "t": 63612.77234374993,
      "d": 113.00132812499942,
      "v": 84
    },
    {
      "midi": 55,
      "hit": false,
      "t": 63612.77234374993,
      "d": 113.00132812499942,
      "v": 100
    },
    {
      "midi": 45,
      "hit": false,
      "t": 63743.90968749993,
      "d": 115.7914843749968,
      "v": 83
    },
    {
      "midi": 57,
      "hit": false,
      "t": 63743.90968749993,
      "d": 115.7914843749968,
      "v": 98
    },
    {
      "midi": 58,
      "hit": false,
      "t": 63877.83718749993,
      "d": 115.7914843749968,
      "v": 97
    },
    {
      "midi": 46,
      "hit": false,
      "t": 63880.627343749926,
      "d": 115.7914843749968,
      "v": 99
    },
    {
      "midi": 60,
      "hit": false,
      "t": 64014.554843749924,
      "d": 115.79148437500407,
      "v": 100
    },
    {
      "midi": 48,
      "hit": false,
      "t": 64020.135156249926,
      "d": 113.00132812499942,
      "v": 71
    },
    {
      "midi": 62,
      "hit": false,
      "t": 64145.692187499924,
      "d": 113.00132812499942,
      "v": 98
    },
    {
      "midi": 50,
      "hit": false,
      "t": 64145.692187499924,
      "d": 115.7914843749968,
      "v": 73
    },
    {
      "midi": 55,
      "hit": false,
      "t": 64285.199999999924,
      "d": 160.43398437499854,
      "v": 85
    },
    {
      "midi": 43,
      "hit": false,
      "t": 64285.199999999924,
      "d": 712.8849218749965,
      "v": 85
    },
    {
      "midi": 62,
      "hit": false,
      "t": 64287.99015624992,
      "d": 110.21117187500204,
      "v": 94
    },
    {
      "midi": 67,
      "hit": false,
      "t": 64287.99015624992,
      "d": 126.95210937500087,
      "v": 102
    },
    {
      "midi": 71,
      "hit": false,
      "t": 64287.99015624992,
      "d": 143.6930468749997,
      "v": 90
    },
    {
      "midi": 55,
      "hit": false,
      "t": 64553.05499999992,
      "d": 682.1932031250035,
      "v": 75
    },
    {
      "midi": 67,
      "hit": false,
      "t": 64823.70015624992,
      "d": 157.64382812500116,
      "v": 96
    },
    {
      "midi": 74,
      "hit": false,
      "t": 64823.70015624992,
      "d": 269.25007812499825,
      "v": 105
    },
    {
      "midi": 79,
      "hit": false,
      "t": 64823.70015624992,
      "d": 269.25007812499825,
      "v": 91
    },
    {
      "midi": 43,
      "hit": false,
      "t": 65094.34531249992,
      "d": 113.00132812499942,
      "v": 94
    },
    {
      "midi": 67,
      "hit": false,
      "t": 65099.92562499992,
      "d": 20.926171874998545,
      "v": 76
    },
    {
      "midi": 65,
      "hit": false,
      "t": 65362.200312499925,
      "d": 174.38476562500728,
      "v": 101
    },
    {
      "midi": 72,
      "hit": false,
      "t": 65362.200312499925,
      "d": 266.4599218750009,
      "v": 99
    },
    {
      "midi": 69,
      "hit": false,
      "t": 65362.200312499925,
      "d": 280.41070312499505,
      "v": 100
    },
    {
      "midi": 45,
      "hit": false,
      "t": 65362.200312499925,
      "d": 341.79414062499563,
      "v": 91
    },
    {
      "midi": 57,
      "hit": false,
      "t": 65362.200312499925,
      "d": 378.0661718749834,
      "v": 107
    },
    {
      "midi": 65,
      "hit": false,
      "t": 65635.63562499992,
      "d": 82.30960937499185,
      "v": 92
    },
    {
      "midi": 67,
      "hit": false,
      "t": 65900.70046874991,
      "d": 149.27335937500175,
      "v": 96
    },
    {
      "midi": 47,
      "hit": false,
      "t": 65900.70046874991,
      "d": 291.5713281250064,
      "v": 87
    },
    {
      "midi": 59,
      "hit": false,
      "t": 65900.70046874991,
      "d": 330.6335156250134,
      "v": 105
    },
    {
      "midi": 74,
      "hit": false,
      "t": 65903.49062499992,
      "d": 244.138671875,
      "v": 98
    },
    {
      "midi": 71,
      "hit": false,
      "t": 65903.49062499992,
      "d": 274.83039062500757,
      "v": 98
    },
    {
      "midi": 67,
      "hit": false,
      "t": 66165.76531249992,
      "d": 110.21117187500931,
      "v": 79
    },
    {
      "midi": 48,
      "hit": false,
      "t": 66433.62031249993,
      "d": 880.2942968749849,
      "v": 91
    },
    {
      "midi": 67,
      "hit": false,
      "t": 66436.41046874993,
      "d": 163.22414062499593,
      "v": 95
    },
    {
      "midi": 72,
      "hit": false,
      "t": 66436.41046874993,
      "d": 252.50914062498487,
      "v": 104
    },
    {
      "midi": 76,
      "hit": false,
      "t": 66436.41046874993,
      "d": 283.20085937499243,
      "v": 96
    },
    {
      "midi": 60,
      "hit": false,
      "t": 66436.41046874993,
      "d": 291.57132812499185,
      "v": 108
    },
    {
      "midi": 67,
      "hit": false,
      "t": 66701.47531249993,
      "d": 68.35882812499767,
      "v": 75
    },
    {
      "midi": 60,
      "hit": false,
      "t": 66835.40281249992,
      "d": 470.14132812499884,
      "v": 93
    },
    {
      "midi": 74,
      "hit": false,
      "t": 66974.91062499992,
      "d": 140.90289062500233,
      "v": 106
    },
    {
      "midi": 79,
      "hit": false,
      "t": 66974.91062499992,
      "d": 305.5221093750006,
      "v": 85
    },
    {
      "midi": 76,
      "hit": false,
      "t": 67108.83812499992,
      "d": 104.630859375,
      "v": 91
    },
    {
      "midi": 72,
      "hit": false,
      "t": 67239.97546874992,
      "d": 71.14898437498778,
      "v": 98
    },
    {
      "midi": 62,
      "hit": false,
      "t": 67499.45999999992,
      "d": 90.68007812500582,
      "v": 86
    },
    {
      "midi": 50,
      "hit": false,
      "t": 67499.45999999992,
      "d": 263.6697656250035,
      "v": 84
    },
    {
      "midi": 74,
      "hit": false,
      "t": 67502.25015624992,
      "d": 408.75789062499825,
      "v": 103
    },
    {
      "midi": 65,
      "hit": false,
      "t": 67502.25015624992,
      "d": 417.1283593749977,
      "v": 89
    },
    {
      "midi": 70,
      "hit": false,
      "t": 67502.25015624992,
      "d": 436.65945312500116,
      "v": 107
    },
    {
      "midi": 62,
      "hit": false,
      "t": 67650.12843749992,
      "d": 185.54539062500407,
      "v": 58
    },
    {
      "midi": 72,
      "hit": false,
      "t": 68032.37984374992,
      "d": 272.04023437498836,
      "v": 100
    },
    {
      "midi": 67,
      "hit": false,
      "t": 68032.37984374992,
      "d": 299.94179687499127,
      "v": 94
    },
    {
      "midi": 76,
      "hit": false,
      "t": 68032.37984374992,
      "d": 311.10242187499534,
      "v": 84
    },
    {
      "midi": 64,
      "hit": false,
      "t": 68032.37984374992,
      "d": 394.8071093749895,
      "v": 100
    },
    {
      "midi": 52,
      "hit": false,
      "t": 68032.37984374992,
      "d": 467.3511718749942,
      "v": 85
    },
    {
      "midi": 65,
      "hit": false,
      "t": 68570.87999999992,
      "d": 179.9650781250093,
      "v": 101
    },
    {
      "midi": 72,
      "hit": false,
      "t": 68570.87999999992,
      "d": 258.08945312500873,
      "v": 105
    },
    {
      "midi": 69,
      "hit": false,
      "t": 68570.87999999992,
      "d": 269.2500781250128,
      "v": 107
    },
    {
      "midi": 53,
      "hit": false,
      "t": 68570.87999999992,
      "d": 1371.3617968750477,
      "v": 107
    },
    {
      "midi": 65,
      "hit": false,
      "t": 68841.52515624993,
      "d": 110.21117187499476,
      "v": 83
    },
    {
      "midi": 41,
      "hit": false,
      "t": 69109.38015624993,
      "d": 450.61023437502445,
      "v": 96
    },
    {
      "midi": 69,
      "hit": false,
      "t": 69112.17031249993,
      "d": 143.69304687500698,
      "v": 120
    },
    {
      "midi": 72,
      "hit": false,
      "t": 69112.17031249993,
      "d": 344.58429687500757,
      "v": 106
    },
    {
      "midi": 67,
      "hit": false,
      "t": 69243.30765624993,
      "d": 152.0635156250064,
      "v": 92
    },
    {
      "midi": 65,
      "hit": false,
      "t": 69382.81546874993,
      "d": 386.43664062503376,
      "v": 103
    },
    {
      "midi": 72,
      "hit": false,
      "t": 69511.16265624994,
      "d": 523.1542968750146,
      "v": 94
    },
    {
      "midi": 69,
      "hit": false,
      "t": 69513.95281249995,
      "d": 366.9055468750157,
      "v": 118
    },
    {
      "midi": 41,
      "hit": false,
      "t": 69650.67046874996,
      "d": 601.278671875014,
      "v": 78
    },
    {
      "midi": 65,
      "hit": false,
      "t": 69904.57468749996,
      "d": 135.32257812500757,
      "v": 83
    },
    {
      "midi": 53,
      "hit": false,
      "t": 70038.50218749997,
      "d": 559.4263281250169,
      "v": 90
    },
    {
      "midi": 67,
      "hit": false,
      "t": 70178.00999999997,
      "d": 140.90289062501688,
      "v": 109
    },
    {
      "midi": 72,
      "hit": false,
      "t": 70178.00999999997,
      "d": 249.71898437502387,
      "v": 100
    },
    {
      "midi": 69,
      "hit": false,
      "t": 70306.35718749998,
      "d": 129.7422656250128,
      "v": 94
    },
    {
      "midi": 65,
      "hit": false,
      "t": 70443.07484374999,
      "d": 101.84070312499534,
      "v": 102
    },
    {
      "midi": 53,
      "hit": false,
      "t": 70708.13968749998,
      "d": 160.43398437500582,
      "v": 98
    },
    {
      "midi": 41,
      "hit": false,
      "t": 70710.92984374998,
      "d": 961.2088281250035,
      "v": 105
    },
    {
      "midi": 53,
      "hit": false,
      "t": 70978.78484374998,
      "d": 1114.6674218750122,
      "v": 104
    },
    {
      "midi": 70,
      "hit": false,
      "t": 71243.84968749998,
      "d": 163.22414062499593,
      "v": 110
    },
    {
      "midi": 65,
      "hit": false,
      "t": 71243.84968749998,
      "d": 690.5636718750029,
      "v": 98
    },
    {
      "midi": 74,
      "hit": false,
      "t": 71243.84968749998,
      "d": 991.9005468750111,
      "v": 99
    },
    {
      "midi": 69,
      "hit": false,
      "t": 71380.56734374998,
      "d": 126.9521093749936,
      "v": 94
    },
    {
      "midi": 67,
      "hit": false,
      "t": 71511.70468749998,
      "d": 126.9521093749936,
      "v": 86
    },
    {
      "midi": 70,
      "hit": false,
      "t": 71642.84203124998,
      "d": 609.6491406250134,
      "v": 101
    },
    {
      "midi": 41,
      "hit": false,
      "t": 71779.55968749999,
      "d": 1025.3824218750087,
      "v": 94
    },
    {
      "midi": 65,
      "hit": false,
      "t": 72047.41468749999,
      "d": 157.64382812501572,
      "v": 72
    },
    {
      "midi": 53,
      "hit": false,
      "t": 72184.13234375,
      "d": 612.4392968750035,
      "v": 87
    },
    {
      "midi": 65,
      "hit": false,
      "t": 72318.05984374999,
      "d": 205.07648437499302,
      "v": 80
    },
    {
      "midi": 69,
      "hit": false,
      "t": 72318.05984374999,
      "d": 207.86664062499767,
      "v": 81
    },
    {
      "midi": 74,
      "hit": false,
      "t": 72318.05984374999,
      "d": 210.65679687500233,
      "v": 89
    },
    {
      "midi": 65,
      "hit": false,
      "t": 72585.91484374998,
      "d": 179.9650781250093,
      "v": 80
    },
    {
      "midi": 70,
      "hit": false,
      "t": 72585.91484374998,
      "d": 179.9650781250093,
      "v": 84
    },
    {
      "midi": 74,
      "hit": false,
      "t": 72585.91484374998,
      "d": 191.1257031250134,
      "v": 90
    },
    {
      "midi": 67,
      "hit": false,
      "t": 72856.56,
      "d": 224.60757812501106,
      "v": 89
    },
    {
      "midi": 60,
      "hit": false,
      "t": 72856.56,
      "d": 227.39773437501572,
      "v": 91
    },
    {
      "midi": 64,
      "hit": false,
      "t": 72856.56,
      "d": 235.76820312501513,
      "v": 94
    },
    {
      "midi": 48,
      "hit": false,
      "t": 72856.56,
      "d": 799.3797656250244,
      "v": 95
    },
    {
      "midi": 55,
      "hit": false,
      "t": 73121.62484374997,
      "d": 737.9963281250093,
      "v": 84
    },
    {
      "midi": 60,
      "hit": false,
      "t": 73383.89953125002,
      "d": 177.17492187500466,
      "v": 94
    },
    {
      "midi": 67,
      "hit": false,
      "t": 73383.89953125002,
      "d": 235.76820312500058,
      "v": 94
    },
    {
      "midi": 64,
      "hit": false,
      "t": 73383.89953125002,
      "d": 255.29929687500407,
      "v": 105
    },
    {
      "midi": 64,
      "hit": false,
      "t": 73386.68968749998,
      "d": 531.5247656249994,
      "v": 75
    },
    {
      "midi": 60,
      "hit": false,
      "t": 73662.91515625002,
      "d": 40.45726562499476,
      "v": 67
    },
    {
      "midi": 53,
      "hit": false,
      "t": 73927.98000000001,
      "d": 802.1699218750146,
      "v": 103
    },
    {
      "midi": 57,
      "hit": false,
      "t": 73930.77015624999,
      "d": 871.923828125,
      "v": 87
    },
    {
      "midi": 60,
      "hit": false,
      "t": 73930.77015625002,
      "d": 277.6205468749977,
      "v": 94
    },
    {
      "midi": 64,
      "hit": false,
      "t": 73930.77015625002,
      "d": 277.6205468749977,
      "v": 99
    },
    {
      "midi": 69,
      "hit": false,
      "t": 73930.77015625002,
      "d": 280.4107031250023,
      "v": 88
    },
    {
      "midi": 64,
      "hit": false,
      "t": 74198.62515624998,
      "d": 693.3538281250076,
      "v": 85
    },
    {
      "midi": 60,
      "hit": false,
      "t": 74458.10968750002,
      "d": 205.07648437500757,
      "v": 100
    },
    {
      "midi": 64,
      "hit": false,
      "t": 74458.10968750002,
      "d": 280.4107031250023,
      "v": 108
    },
    {
      "midi": 69,
      "hit": false,
      "t": 74458.10968750002,
      "d": 302.7319531249959,
      "v": 98
    },
    {
      "midi": 60,
      "hit": false,
      "t": 74731.54500000003,
      "d": 48.82773437499418,
      "v": 72
    },
    {
      "midi": 57,
      "hit": false,
      "t": 74993.81968749998,
      "d": 221.8174218750064,
      "v": 92
    },
    {
      "midi": 65,
      "hit": false,
      "t": 74996.60984375002,
      "d": 294.36148437501106,
      "v": 101
    },
    {
      "midi": 62,
      "hit": false,
      "t": 74996.60984375002,
      "d": 302.7319531250105,
      "v": 95
    },
    {
      "midi": 69,
      "hit": false,
      "t": 74996.60984375002,
      "d": 305.52210937501513,
      "v": 93
    },
    {
      "midi": 58,
      "hit": false,
      "t": 74996.60984375002,
      "d": 620.8097656250175,
      "v": 79
    },
    {
      "midi": 46,
      "hit": false,
      "t": 74996.60984375002,
      "d": 849.602578125021,
      "v": 78
    },
    {
      "midi": 58,
      "hit": false,
      "t": 75258.88453124999,
      "d": 1759.193515625011,
      "v": 78
    },
    {
      "midi": 62,
      "hit": false,
      "t": 75526.73953124999,
      "d": 1382.5224218750081,
      "v": 68
    },
    {
      "midi": 65,
      "hit": false,
      "t": 75535.11000000003,
      "d": 308.31226562500524,
      "v": 105
    },
    {
      "midi": 69,
      "hit": false,
      "t": 75535.11000000003,
      "d": 313.89257812501455,
      "v": 96
    },
    {
      "midi": 62,
      "hit": false,
      "t": 75535.11000000003,
      "d": 322.26304687501397,
      "v": 98
    },
    {
      "midi": 65,
      "hit": false,
      "t": 75800.17484374999,
      "d": 1206.7425781250058,
      "v": 84
    },
    {
      "midi": 58,
      "hit": false,
      "t": 75800.17484375004,
      "d": 576.1672656250157,
      "v": 87
    },
    {
      "midi": 62,
      "hit": false,
      "t": 76068.02984375005,
      "d": 238.55835937500524,
      "v": 94
    },
    {
      "midi": 65,
      "hit": false,
      "t": 76068.02984375005,
      "d": 238.55835937500524,
      "v": 102
    },
    {
      "midi": 69,
      "hit": false,
      "t": 76068.02984375005,
      "d": 238.55835937500524,
      "v": 94
    },
    {
      "midi": 46,
      "hit": false,
      "t": 76068.02984375005,
      "d": 684.9833593750081,
      "v": 96
    },
    {
      "midi": 58,
      "hit": false,
      "t": 76600.94968750005,
      "d": 124.16195312500349,
      "v": 102
    },
    {
      "midi": 62,
      "hit": false,
      "t": 76603.73984375005,
      "d": 48.82773437499418,
      "v": 91
    },
    {
      "midi": 65,
      "hit": false,
      "t": 76603.73984375005,
      "d": 48.82773437499418,
      "v": 96
    },
    {
      "midi": 69,
      "hit": false,
      "t": 76603.73984375005,
      "d": 65.56867187499302,
      "v": 98
    },
    {
      "midi": 76,
      "hit": false,
      "t": 77136.65968750005,
      "d": 241.34851562499534,
      "v": 100
    },
    {
      "midi": 48,
      "hit": false,
      "t": 77136.65968750005,
      "d": 955.6285156250087,
      "v": 89
    },
    {
      "midi": 59,
      "hit": false,
      "t": 77139.44984375,
      "d": 989.1103906249919,
      "v": 101
    },
    {
      "midi": 67,
      "hit": false,
      "t": 77139.44984375006,
      "d": 241.34851562499534,
      "v": 98
    },
    {
      "midi": 71,
      "hit": false,
      "t": 77139.44984375006,
      "d": 252.50914062499942,
      "v": 105
    },
    {
      "midi": 64,
      "hit": false,
      "t": 77407.30484375,
      "d": 782.6388281249965,
      "v": 96
    },
    {
      "midi": 67,
      "hit": false,
      "t": 77675.15984375007,
      "d": 126.9521093749936,
      "v": 98
    },
    {
      "midi": 71,
      "hit": false,
      "t": 77675.15984375007,
      "d": 258.0894531249942,
      "v": 106
    },
    {
      "midi": 76,
      "hit": false,
      "t": 77675.15984375007,
      "d": 302.7319531249959,
      "v": 94
    },
    {
      "midi": 67,
      "hit": false,
      "t": 77940.22468750006,
      "d": 48.82773437500873,
      "v": 68
    },
    {
      "midi": 57,
      "hit": false,
      "t": 78210.86984375,
      "d": 916.5663281250017,
      "v": 98
    },
    {
      "midi": 69,
      "hit": false,
      "t": 78213.66000000006,
      "d": 269.2500781250128,
      "v": 96
    },
    {
      "midi": 64,
      "hit": false,
      "t": 78213.66000000006,
      "d": 277.6205468750122,
      "v": 92
    },
    {
      "midi": 72,
      "hit": false,
      "t": 78213.66000000006,
      "d": 277.6205468750122,
      "v": 88
    },
    {
      "midi": 53,
      "hit": false,
      "t": 78213.66000000006,
      "d": 813.3305468749895,
      "v": 98
    },
    {
      "midi": 64,
      "hit": false,
      "t": 78481.515,
      "d": 696.1439843749977,
      "v": 93
    },
    {
      "midi": 64,
      "hit": false,
      "t": 78749.37000000007,
      "d": 205.07648437499302,
      "v": 98
    },
    {
      "midi": 69,
      "hit": false,
      "t": 78749.37000000007,
      "d": 297.1516406249866,
      "v": 107
    },
    {
      "midi": 72,
      "hit": false,
      "t": 78749.37000000007,
      "d": 316.6827343749901,
      "v": 99
    },
    {
      "midi": 64,
      "hit": false,
      "t": 79020.01515625005,
      "d": 65.56867187500757,
      "v": 66
    },
    {
      "midi": 57,
      "hit": false,
      "t": 79285.08,
      "d": 221.8174218750064,
      "v": 100
    },
    {
      "midi": 74,
      "hit": false,
      "t": 79285.08000000006,
      "d": 313.892578125,
      "v": 89
    },
    {
      "midi": 58,
      "hit": false,
      "t": 79285.08000000006,
      "d": 615.2294531250081,
      "v": 105
    },
    {
      "midi": 65,
      "hit": false,
      "t": 79287.87015625006,
      "d": 299.9417968750058,
      "v": 94
    },
    {
      "midi": 69,
      "hit": false,
      "t": 79287.87015625006,
      "d": 305.5221093750006,
      "v": 98
    },
    {
      "midi": 58,
      "hit": false,
      "t": 79547.3546875,
      "d": 1661.5380468750081,
      "v": 102
    },
    {
      "midi": 62,
      "hit": false,
      "t": 79812.41953125001,
      "d": 1449.4861718750035,
      "v": 100
    },
    {
      "midi": 69,
      "hit": false,
      "t": 79820.79000000007,
      "d": 330.63351562499884,
      "v": 105
    },
    {
      "midi": 74,
      "hit": false,
      "t": 79820.79000000007,
      "d": 330.63351562499884,
      "v": 89
    },
    {
      "midi": 65,
      "hit": false,
      "t": 79820.79000000007,
      "d": 333.4236718750035,
      "v": 95
    },
    {
      "midi": 65,
      "hit": false,
      "t": 80085.85484375001,
      "d": 1164.8902343749942,
      "v": 100
    },
    {
      "midi": 58,
      "hit": false,
      "t": 80091.43515625007,
      "d": 54.40804687500349,
      "v": 101
    },
    {
      "midi": 58,
      "hit": false,
      "t": 80353.70984375007,
      "d": 737.9963281249948,
      "v": 101
    },
    {
      "midi": 74,
      "hit": false,
      "t": 80356.50000000007,
      "d": 216.2371093749971,
      "v": 89
    },
    {
      "midi": 69,
      "hit": false,
      "t": 80356.50000000007,
      "d": 221.81742187499185,
      "v": 104
    },
    {
      "midi": 65,
      "hit": false,
      "t": 80356.50000000007,
      "d": 246.9288281249901,
      "v": 95
    },
    {
      "midi": 65,
      "hit": false,
      "t": 80889.41984375006,
      "d": 138.11273437499767,
      "v": 98
    },
    {
      "midi": 74,
      "hit": false,
      "t": 80892.21000000006,
      "d": 179.96507812499476,
      "v": 83
    },
    {
      "midi": 69,
      "hit": false,
      "t": 80892.21000000006,
      "d": 244.138671875,
      "v": 109
    },
    {
      "midi": 65,
      "hit": false,
      "t": 81165.64531250007,
      "d": 34.876953125,
      "v": 76
    },
    {
      "midi": 58,
      "hit": false,
      "t": 81422.33968750002,
      "d": 1881.9603906249977,
      "v": 98
    },
    {
      "midi": 51,
      "hit": false,
      "t": 81427.92000000007,
      "d": 835.6517968750268,
      "v": 107
    },
    {
      "midi": 70,
      "hit": false,
      "t": 81430.71015625008,
      "d": 297.1516406250157,
      "v": 112
    },
    {
      "midi": 74,
      "hit": false,
      "t": 81430.71015625008,
      "d": 299.9417968750204,
      "v": 98
    },
    {
      "midi": 67,
      "hit": false,
      "t": 81430.71015625008,
      "d": 336.2138281250227,
      "v": 98
    },
    {
      "midi": 62,
      "hit": false,
      "t": 81698.56515625001,
      "d": 1655.9577343749988,
      "v": 100
    },
    {
      "midi": 67,
      "hit": false,
      "t": 81966.4201562501,
      "d": 129.74226562499825,
      "v": 81
    },
    {
      "midi": 70,
      "hit": false,
      "t": 81966.4201562501,
      "d": 224.6075781249965,
      "v": 82
    },
    {
      "midi": 74,
      "hit": false,
      "t": 81966.4201562501,
      "d": 235.76820312500058,
      "v": 95
    },
    {
      "midi": 63,
      "hit": false,
      "t": 81969.21031250001,
      "d": 1385.3125781249983,
      "v": 96
    },
    {
      "midi": 67,
      "hit": false,
      "t": 82225.9046875001,
      "d": 152.0635156250064,
      "v": 58
    },
    {
      "midi": 67,
      "hit": false,
      "t": 82231.48500000002,
      "d": 1128.6182031249919,
      "v": 88
    },
    {
      "midi": 74,
      "hit": false,
      "t": 82496.5498437501,
      "d": 132.53242187501746,
      "v": 84
    },
    {
      "midi": 51,
      "hit": false,
      "t": 82496.5498437501,
      "d": 422.70867187502154,
      "v": 89
    },
    {
      "midi": 70,
      "hit": false,
      "t": 82499.3400000001,
      "d": 118.58164062500873,
      "v": 58
    },
    {
      "midi": 67,
      "hit": false,
      "t": 82502.1301562501,
      "d": 129.7422656250128,
      "v": 71
    },
    {
      "midi": 70,
      "hit": false,
      "t": 82761.61468750011,
      "d": 101.84070312499534,
      "v": 76
    },
    {
      "midi": 77,
      "hit": false,
      "t": 82761.61468750011,
      "d": 160.43398437500582,
      "v": 89
    },
    {
      "midi": 67,
      "hit": false,
      "t": 82761.61468750011,
      "d": 339.00398437499825,
      "v": 79
    },
    {
      "midi": 74,
      "hit": false,
      "t": 82898.33234375011,
      "d": 442.2397656250105,
      "v": 98
    },
    {
      "midi": 70,
      "hit": false,
      "t": 82901.12250000011,
      "d": 157.64382812500116,
      "v": 70
    },
    {
      "midi": 51,
      "hit": false,
      "t": 83035.05000000012,
      "d": 325.0532031250041,
      "v": 88
    },
    {
      "midi": 70,
      "hit": false,
      "t": 83168.97750000011,
      "d": 124.16195312500349,
      "v": 92
    },
    {
      "midi": 67,
      "hit": false,
      "t": 83302.90500000012,
      "d": 82.3096093750064,
      "v": 98
    },
    {
      "midi": 56,
      "hit": false,
      "t": 83562.38953125001,
      "d": 1901.4914843750012,
      "v": 98
    },
    {
      "midi": 67,
      "hit": false,
      "t": 83565.17968750012,
      "d": 274.83039062500757,
      "v": 98
    },
    {
      "midi": 72,
      "hit": false,
      "t": 83565.17968750012,
      "d": 305.5221093750006,
      "v": 98
    },
    {
      "midi": 63,
      "hit": false,
      "t": 83565.17968750012,
      "d": 358.53507812500175,
      "v": 101
    },
    {
      "midi": 56,
      "hit": false,
      "t": 83565.17968750012,
      "d": 855.1828906249866,
      "v": 101
    },
    {
      "midi": 60,
      "hit": false,
      "t": 83835.82484375002,
      "d": 1667.118359375003,
      "v": 82
    },
    {
      "midi": 63,
      "hit": false,
      "t": 84100.88968750002,
      "d": 1513.6597656249942,
      "v": 105
    },
    {
      "midi": 63,
      "hit": false,
      "t": 84103.67984375011,
      "d": 121.37179687499884,
      "v": 72
    },
    {
      "midi": 67,
      "hit": false,
      "t": 84103.67984375011,
      "d": 221.81742187499185,
      "v": 89
    },
    {
      "midi": 72,
      "hit": false,
      "t": 84103.67984375011,
      "d": 272.04023437498836,
      "v": 96
    },
    {
      "midi": 67,
      "hit": false,
      "t": 84368.74468750002,
      "d": 1251.385078124993,
      "v": 102
    },
    {
      "midi": 63,
      "hit": false,
      "t": 84377.1151562501,
      "d": 51.617890624998836,
      "v": 21
    },
    {
      "midi": 63,
      "hit": false,
      "t": 84644.9701562501,
      "d": 138.11273437499767,
      "v": 78
    },
    {
      "midi": 72,
      "hit": false,
      "t": 84644.9701562501,
      "d": 140.90289062500233,
      "v": 83
    },
    {
      "midi": 56,
      "hit": false,
      "t": 84644.9701562501,
      "d": 461.7708593749994,
      "v": 96
    },
    {
      "midi": 67,
      "hit": false,
      "t": 84647.7603125001,
      "d": 132.53242187498836,
      "v": 72
    },
    {
      "midi": 74,
      "hit": false,
      "t": 84907.2448437501,
      "d": 149.27335937500175,
      "v": 94
    },
    {
      "midi": 63,
      "hit": false,
      "t": 84907.2448437501,
      "d": 565.0066406249971,
      "v": 75
    },
    {
      "midi": 67,
      "hit": false,
      "t": 84907.2448437501,
      "d": 578.9574218749913,
      "v": 89
    },
    {
      "midi": 72,
      "hit": false,
      "t": 85043.9625000001,
      "d": 269.25007812499825,
      "v": 91
    },
    {
      "midi": 56,
      "hit": false,
      "t": 85183.4703125001,
      "d": 341.7941406250029,
      "v": 91
    },
    {
      "midi": 70,
      "hit": false,
      "t": 85314.6076562501,
      "d": 149.27335937500175,
      "v": 65
    },
    {
      "midi": 72,
      "hit": false,
      "t": 85448.5351562501,
      "d": 73.93914062499243,
      "v": 90
    },
    {
      "midi": 58,
      "hit": false,
      "t": 85713.6,
      "d": 2074.4811718750134,
      "v": 107
    },
    {
      "midi": 51,
      "hit": false,
      "t": 85716.3901562501,
      "d": 874.7139843750047,
      "v": 85
    },
    {
      "midi": 67,
      "hit": false,
      "t": 85719.1803125001,
      "d": 366.90554687500116,
      "v": 89
    },
    {
      "midi": 70,
      "hit": false,
      "t": 85719.1803125001,
      "d": 366.90554687500116,
      "v": 101
    },
    {
      "midi": 74,
      "hit": false,
      "t": 85719.1803125001,
      "d": 372.4858593749959,
      "v": 84
    },
    {
      "midi": 62,
      "hit": false,
      "t": 85978.66484375001,
      "d": 1764.7738281250058,
      "v": 83
    },
    {
      "midi": 67,
      "hit": false,
      "t": 86246.5198437501,
      "d": 196.70601562500815,
      "v": 90
    },
    {
      "midi": 70,
      "hit": false,
      "t": 86246.5198437501,
      "d": 266.45992187500815,
      "v": 102
    },
    {
      "midi": 74,
      "hit": false,
      "t": 86246.5198437501,
      "d": 283.200859375007,
      "v": 98
    },
    {
      "midi": 63,
      "hit": false,
      "t": 86249.31000000001,
      "d": 1505.2892968750093,
      "v": 101
    },
    {
      "midi": 67,
      "hit": false,
      "t": 86514.3748437501,
      "d": 104.630859375,
      "v": 72
    },
    {
      "midi": 67,
      "hit": false,
      "t": 86519.95515625001,
      "d": 1248.594921875003,
      "v": 94
    },
    {
      "midi": 74,
      "hit": false,
      "t": 86787.81015625011,
      "d": 126.9521093749936,
      "v": 84
    },
    {
      "midi": 67,
      "hit": false,
      "t": 86787.81015625011,
      "d": 177.1749218749901,
      "v": 79
    },
    {
      "midi": 70,
      "hit": false,
      "t": 86787.81015625011,
      "d": 182.75523437498487,
      "v": 76
    },
    {
      "midi": 51,
      "hit": false,
      "t": 86787.81015625011,
      "d": 425.49882812498254,
      "v": 108
    },
    {
      "midi": 70,
      "hit": false,
      "t": 87047.29468750009,
      "d": 578.9574218750058,
      "v": 65
    },
    {
      "midi": 67,
      "hit": false,
      "t": 87050.0848437501,
      "d": 90.68007812500582,
      "v": 67
    },
    {
      "midi": 75,
      "hit": false,
      "t": 87050.0848437501,
      "d": 121.37179687499884,
      "v": 96
    },
    {
      "midi": 77,
      "hit": false,
      "t": 87186.80250000009,
      "d": 260.87960937499884,
      "v": 103
    },
    {
      "midi": 67,
      "hit": false,
      "t": 87186.80250000009,
      "d": 456.19054687500466,
      "v": 65
    },
    {
      "midi": 51,
      "hit": false,
      "t": 87317.9398437501,
      "d": 305.5221093750006,
      "v": 96
    },
    {
      "midi": 75,
      "hit": false,
      "t": 87449.0771875001,
      "d": 140.90289062500233,
      "v": 99
    },
    {
      "midi": 74,
      "hit": false,
      "t": 87588.5850000001,
      "d": 62.77851562500291,
      "v": 93
    },
    {
      "midi": 56,
      "hit": false,
      "t": 87850.85968750002,
      "d": 1926.6028906249994,
      "v": 86
    },
    {
      "midi": 67,
      "hit": false,
      "t": 87853.6498437501,
      "d": 341.7941406250029,
      "v": 101
    },
    {
      "midi": 72,
      "hit": false,
      "t": 87853.6498437501,
      "d": 364.1153906249965,
      "v": 107
    },
    {
      "midi": 56,
      "hit": false,
      "t": 87853.6498437501,
      "d": 857.9730468750204,
      "v": 105
    },
    {
      "midi": 63,
      "hit": false,
      "t": 87856.4400000001,
      "d": 333.4236718750035,
      "v": 99
    },
    {
      "midi": 60,
      "hit": false,
      "t": 88121.50484375002,
      "d": 1569.462890625,
      "v": 79
    },
    {
      "midi": 63,
      "hit": false,
      "t": 88386.56968750003,
      "d": 1312.7685156249936,
      "v": 73
    },
    {
      "midi": 67,
      "hit": false,
      "t": 88386.5696875001,
      "d": 308.31226562500524,
      "v": 92
    },
    {
      "midi": 72,
      "hit": false,
      "t": 88386.5696875001,
      "d": 319.4728906250093,
      "v": 95
    },
    {
      "midi": 63,
      "hit": false,
      "t": 88386.5696875001,
      "d": 322.26304687501397,
      "v": 74
    },
    {
      "midi": 70,
      "hit": false,
      "t": 88657.21484375003,
      "d": 1100.716640624989,
      "v": 78
    },
    {
      "midi": 70,
      "hit": false,
      "t": 88791.14234375012,
      "d": 101.84070312499534,
      "v": 70
    },
    {
      "midi": 67,
      "hit": false,
      "t": 88793.93250000013,
      "d": 76.72929687499709,
      "v": 70
    },
    {
      "midi": 63,
      "hit": false,
      "t": 88796.72265625013,
      "d": 57.1982031249936,
      "v": 35
    },
    {
      "midi": 56,
      "hit": false,
      "t": 88925.06984375011,
      "d": 419.9185156249878,
      "v": 92
    },
    {
      "midi": 67,
      "hit": false,
      "t": 88930.6501562501,
      "d": 126.95210937500815,
      "v": 91
    },
    {
      "midi": 72,
      "hit": false,
      "t": 88930.6501562501,
      "d": 135.32257812500757,
      "v": 98
    },
    {
      "midi": 63,
      "hit": false,
      "t": 88930.6501562501,
      "d": 140.90289062500233,
      "v": 79
    },
    {
      "midi": 63,
      "hit": false,
      "t": 89198.5051562501,
      "d": 135.32257812499302,
      "v": 105
    },
    {
      "midi": 67,
      "hit": false,
      "t": 89198.5051562501,
      "d": 152.06351562499185,
      "v": 99
    },
    {
      "midi": 72,
      "hit": false,
      "t": 89198.5051562501,
      "d": 160.43398437499127,
      "v": 104
    },
    {
      "midi": 70,
      "hit": false,
      "t": 89466.3601562501,
      "d": 196.70601562500815,
      "v": 107
    },
    {
      "midi": 63,
      "hit": false,
      "t": 89469.1503125001,
      "d": 193.9158593750035,
      "v": 102
    },
    {
      "midi": 67,
      "hit": false,
      "t": 89469.1503125001,
      "d": 196.70601562500815,
      "v": 103
    },
    {
      "midi": 56,
      "hit": false,
      "t": 89469.1503125001,
      "d": 386.43664062500466,
      "v": 113
    },
    {
      "midi": 63,
      "hit": false,
      "t": 89728.63484375011,
      "d": 90.68007812499127,
      "v": 56
    },
    {
      "midi": 67,
      "hit": false,
      "t": 89728.63484375011,
      "d": 93.47023437499593,
      "v": 83
    },
    {
      "midi": 72,
      "hit": false,
      "t": 89728.63484375011,
      "d": 113.00132812499942,
      "v": 98
    },
    {
      "midi": 67,
      "hit": false,
      "t": 89999.28000000012,
      "d": 305.52210937501513,
      "v": 61
    },
    {
      "midi": 62,
      "hit": false,
      "t": 90002.07015625012,
      "d": 676.6128906250087,
      "v": 100
    },
    {
      "midi": 50,
      "hit": false,
      "t": 90002.07015625012,
      "d": 1270.916171875011,
      "v": 91
    },
    {
      "midi": 74,
      "hit": false,
      "t": 90004.86031250012,
      "d": 386.43664062500466,
      "v": 91
    },
    {
      "midi": 64,
      "hit": false,
      "t": 90808.42531250013,
      "d": 57.1982031249936,
      "v": 72
    },
    {
      "midi": 62,
      "hit": false,
      "t": 90939.56265625013,
      "d": 922.1466406250111,
      "v": 84
    },
    {
      "midi": 64,
      "hit": false,
      "t": 91070.70000000013,
      "d": 146.4832031249971,
      "v": 89
    },
    {
      "midi": 67,
      "hit": false,
      "t": 91070.70000000013,
      "d": 221.8174218750064,
      "v": 100
    },
    {
      "midi": 50,
      "hit": false,
      "t": 91332.97468750003,
      "d": 168.80445312500524,
      "v": 71
    },
    {
      "midi": 64,
      "hit": false,
      "t": 91469.69234375014,
      "d": 174.384765625,
      "v": 96
    },
    {
      "midi": 67,
      "hit": false,
      "t": 91469.69234375014,
      "d": 244.138671875,
      "v": 107
    },
    {
      "midi": 50,
      "hit": false,
      "t": 91600.82968750014,
      "d": 721.2553906249959,
      "v": 91
    },
    {
      "midi": 50,
      "hit": false,
      "t": 91603.61984375003,
      "d": 191.12570312499884,
      "v": 91
    },
    {
      "midi": 64,
      "hit": false,
      "t": 91737.54734375014,
      "d": 274.83039062500757,
      "v": 94
    },
    {
      "midi": 50,
      "hit": false,
      "t": 91868.68468750003,
      "d": 191.12570312499884,
      "v": 93
    },
    {
      "midi": 67,
      "hit": false,
      "t": 91871.47484375014,
      "d": 171.59460937499534,
      "v": 94
    },
    {
      "midi": 50,
      "hit": false,
      "t": 92136.53968750003,
      "d": 205.07648437499302,
      "v": 100
    },
    {
      "midi": 62,
      "hit": false,
      "t": 92139.32984375014,
      "d": 908.1958593749878,
      "v": 89
    },
    {
      "midi": 72,
      "hit": false,
      "t": 92276.04750000013,
      "d": 68.35882812499767,
      "v": 84
    },
    {
      "midi": 67,
      "hit": false,
      "t": 92276.04750000013,
      "d": 85.09976562499651,
      "v": 79
    },
    {
      "midi": 50,
      "hit": false,
      "t": 92407.18484375002,
      "d": 126.9521093749936,
      "v": 94
    },
    {
      "midi": 72,
      "hit": false,
      "t": 92541.11234375012,
      "d": 32.08679687499534,
      "v": 80
    },
    {
      "midi": 67,
      "hit": false,
      "t": 92541.11234375012,
      "d": 37.667109374990105,
      "v": 72
    },
    {
      "midi": 50,
      "hit": false,
      "t": 92672.2496875,
      "d": 149.27335937500175,
      "v": 91
    },
    {
      "midi": 67,
      "hit": false,
      "t": 92675.03984375011,
      "d": 132.5324218750029,
      "v": 105
    },
    {
      "midi": 72,
      "hit": false,
      "t": 92675.03984375011,
      "d": 213.44695312500698,
      "v": 113
    },
    {
      "midi": 50,
      "hit": false,
      "t": 92675.03984375011,
      "d": 852.3927343750111,
      "v": 91
    },
    {
      "midi": 50,
      "hit": false,
      "t": 92940.1046875,
      "d": 193.9158593750035,
      "v": 96
    },
    {
      "midi": 67,
      "hit": false,
      "t": 92940.10468750012,
      "d": 26.506484375000582,
      "v": 56
    },
    {
      "midi": 67,
      "hit": false,
      "t": 93074.03218750012,
      "d": 160.43398437500582,
      "v": 100
    },
    {
      "midi": 74,
      "hit": false,
      "t": 93074.03218750012,
      "d": 168.80445312500524,
      "v": 108
    },
    {
      "midi": 62,
      "hit": false,
      "t": 93210.74984375,
      "d": 1000.2710156250105,
      "v": 108
    },
    {
      "midi": 50,
      "hit": false,
      "t": 93210.74984375,
      "d": 1003.0611718750151,
      "v": 90
    },
    {
      "midi": 62,
      "hit": false,
      "t": 93213.54000000012,
      "d": 1028.172578125028,
      "v": 105
    },
    {
      "midi": 74,
      "hit": false,
      "t": 93347.46750000013,
      "d": 113.00132812499942,
      "v": 107
    },
    {
      "midi": 67,
      "hit": false,
      "t": 93347.46750000013,
      "d": 121.37179687499884,
      "v": 89
    },
    {
      "midi": 67,
      "hit": false,
      "t": 93478.60484375,
      "d": 729.6258593750099,
      "v": 97
    },
    {
      "midi": 72,
      "hit": false,
      "t": 93484.18515625013,
      "d": 90.68007812500582,
      "v": 91
    },
    {
      "midi": 67,
      "hit": false,
      "t": 93486.97531250013,
      "d": 96.26039062500058,
      "v": 52
    },
    {
      "midi": 74,
      "hit": false,
      "t": 93620.90281250014,
      "d": 143.69304687500698,
      "v": 98
    },
    {
      "midi": 67,
      "hit": false,
      "t": 93620.90281250014,
      "d": 325.0532031250041,
      "v": 63
    },
    {
      "midi": 74,
      "hit": false,
      "t": 93743.6696875,
      "d": 481.30195312501746,
      "v": 97
    },
    {
      "midi": 50,
      "hit": false,
      "t": 93746.45984375014,
      "d": 520.3641406250099,
      "v": 91
    },
    {
      "midi": 79,
      "hit": false,
      "t": 93752.04015625014,
      "d": 188.33554687500873,
      "v": 103
    },
    {
      "midi": 79,
      "hit": false,
      "t": 94019.89515625015,
      "d": 221.8174218750064,
      "v": 99
    },
    {
      "midi": 67,
      "hit": false,
      "t": 94019.89515625015,
      "d": 224.60757812501106,
      "v": 92
    },
    {
      "midi": 72,
      "hit": false,
      "t": 94284.96000000002,
      "d": 1929.393046875004,
      "v": 77
    },
    {
      "midi": 76,
      "hit": false,
      "t": 94284.96000000002,
      "d": 1940.5536718750081,
      "v": 66
    },
    {
      "midi": 67,
      "hit": false,
      "t": 94284.96000000002,
      "d": 1982.4060156250052,
      "v": 74
    },
    {
      "midi": 57,
      "hit": false,
      "t": 94284.96000000002,
      "d": 1990.7764843750047,
      "v": 75
    },
    {
      "midi": 45,
      "hit": false,
      "t": 94284.96000000002,
      "d": 2082.8516406249983,
      "v": 62
    },
    {
      "midi": 69,
      "hit": false,
      "t": 96425.00984375001,
      "d": 1898.7013281249965,
      "v": 77
    },
    {
      "midi": 67,
      "hit": false,
      "t": 96425.00984375001,
      "d": 1904.2816406249913,
      "v": 70
    },
    {
      "midi": 71,
      "hit": false,
      "t": 96425.00984375001,
      "d": 1907.071796874996,
      "v": 72
    },
    {
      "midi": 74,
      "hit": false,
      "t": 96425.00984375001,
      "d": 1929.3930468749895,
      "v": 75
    },
    {
      "midi": 55,
      "hit": false,
      "t": 96425.00984375001,
      "d": 1957.2946093749924,
      "v": 70
    },
    {
      "midi": 43,
      "hit": false,
      "t": 96425.00984375001,
      "d": 1965.6650781249919,
      "v": 65
    },
    {
      "midi": 72,
      "hit": false,
      "t": 98570.64,
      "d": 1929.393046875004,
      "v": 77
    },
    {
      "midi": 76,
      "hit": false,
      "t": 98570.64,
      "d": 1940.5536718750081,
      "v": 66
    },
    {
      "midi": 67,
      "hit": false,
      "t": 98570.64,
      "d": 1982.4060156250052,
      "v": 74
    },
    {
      "midi": 57,
      "hit": false,
      "t": 98570.64,
      "d": 1990.7764843750047,
      "v": 75
    },
    {
      "midi": 45,
      "hit": false,
      "t": 98570.64,
      "d": 2082.8516406249983,
      "v": 62
    },
    {
      "midi": 69,
      "hit": false,
      "t": 100710.68984374999,
      "d": 1898.7013281249965,
      "v": 77
    },
    {
      "midi": 67,
      "hit": false,
      "t": 100710.68984374999,
      "d": 1904.2816406249913,
      "v": 70
    },
    {
      "midi": 71,
      "hit": false,
      "t": 100710.68984374999,
      "d": 1907.071796874996,
      "v": 72
    },
    {
      "midi": 74,
      "hit": false,
      "t": 100710.68984374999,
      "d": 1929.3930468749895,
      "v": 75
    },
    {
      "midi": 55,
      "hit": false,
      "t": 100710.68984374999,
      "d": 1957.2946093749924,
      "v": 70
    },
    {
      "midi": 43,
      "hit": false,
      "t": 100710.68984374999,
      "d": 1965.6650781249919,
      "v": 65
    },
    {
      "midi": 72,
      "hit": false,
      "t": 102856.31999999998,
      "d": 1929.393046875004,
      "v": 77
    },
    {
      "midi": 76,
      "hit": false,
      "t": 102856.31999999998,
      "d": 1940.5536718750081,
      "v": 66
    },
    {
      "midi": 67,
      "hit": false,
      "t": 102856.31999999998,
      "d": 1982.4060156250052,
      "v": 74
    },
    {
      "midi": 57,
      "hit": false,
      "t": 102856.31999999998,
      "d": 1990.7764843750047,
      "v": 75
    },
    {
      "midi": 45,
      "hit": false,
      "t": 102856.31999999998,
      "d": 2082.8516406249983,
      "v": 62
    },
    {
      "midi": 69,
      "hit": false,
      "t": 104996.36984374997,
      "d": 1898.7013281249965,
      "v": 77
    },
    {
      "midi": 67,
      "hit": false,
      "t": 104996.36984374997,
      "d": 1904.2816406249913,
      "v": 70
    },
    {
      "midi": 71,
      "hit": false,
      "t": 104996.36984374997,
      "d": 1907.071796874996,
      "v": 72
    },
    {
      "midi": 74,
      "hit": false,
      "t": 104996.36984374997,
      "d": 1929.3930468749895,
      "v": 75
    },
    {
      "midi": 55,
      "hit": false,
      "t": 104996.36984374997,
      "d": 1957.2946093749924,
      "v": 70
    },
    {
      "midi": 43,
      "hit": false,
      "t": 104996.36984374997,
      "d": 1965.6650781249919,
      "v": 65
    },
    {
      "midi": 72,
      "hit": false,
      "t": 107141.99999999996,
      "d": 1929.393046875004,
      "v": 77
    },
    {
      "midi": 76,
      "hit": false,
      "t": 107141.99999999996,
      "d": 1940.5536718750081,
      "v": 66
    },
    {
      "midi": 67,
      "hit": false,
      "t": 107141.99999999996,
      "d": 1982.4060156250052,
      "v": 74
    },
    {
      "midi": 57,
      "hit": false,
      "t": 107141.99999999996,
      "d": 1990.7764843750047,
      "v": 75
    },
    {
      "midi": 45,
      "hit": false,
      "t": 107141.99999999996,
      "d": 2082.8516406249983,
      "v": 62
    },
    {
      "midi": 69,
      "hit": false,
      "t": 109282.04984374995,
      "d": 1898.7013281249965,
      "v": 77
    },
    {
      "midi": 67,
      "hit": false,
      "t": 109282.04984374995,
      "d": 1904.2816406249913,
      "v": 70
    },
    {
      "midi": 71,
      "hit": false,
      "t": 109282.04984374995,
      "d": 1907.071796874996,
      "v": 72
    },
    {
      "midi": 74,
      "hit": false,
      "t": 109282.04984374995,
      "d": 1929.3930468749895,
      "v": 75
    },
    {
      "midi": 55,
      "hit": false,
      "t": 109282.04984374995,
      "d": 1957.2946093749924,
      "v": 70
    },
    {
      "midi": 43,
      "hit": false,
      "t": 109282.04984374995,
      "d": 1965.6650781249919,
      "v": 65
    },
    {
      "midi": 72,
      "hit": false,
      "t": 111427.67999999993,
      "d": 1929.393046875004,
      "v": 77
    },
    {
      "midi": 76,
      "hit": false,
      "t": 111427.67999999993,
      "d": 1940.5536718750081,
      "v": 66
    },
    {
      "midi": 67,
      "hit": false,
      "t": 111427.67999999993,
      "d": 1982.4060156250052,
      "v": 74
    },
    {
      "midi": 57,
      "hit": false,
      "t": 111427.67999999993,
      "d": 1990.7764843750047,
      "v": 75
    },
    {
      "midi": 45,
      "hit": false,
      "t": 111427.67999999993,
      "d": 2082.8516406249983,
      "v": 62
    },
    {
      "midi": 69,
      "hit": false,
      "t": 113567.72984374993,
      "d": 1898.7013281249965,
      "v": 77
    },
    {
      "midi": 67,
      "hit": false,
      "t": 113567.72984374993,
      "d": 1904.2816406249913,
      "v": 70
    },
    {
      "midi": 71,
      "hit": false,
      "t": 113567.72984374993,
      "d": 1907.071796874996,
      "v": 72
    },
    {
      "midi": 74,
      "hit": false,
      "t": 113567.72984374993,
      "d": 1929.3930468749895,
      "v": 75
    },
    {
      "midi": 55,
      "hit": false,
      "t": 113567.72984374993,
      "d": 1957.2946093749924,
      "v": 70
    },
    {
      "midi": 43,
      "hit": false,
      "t": 113567.72984374993,
      "d": 1965.6650781249919,
      "v": 65
    },
    {
      "midi": 60,
      "hit": false,
      "t": 115713.35999999991,
      "d": 643.1310156249965,
      "v": 89
    },
    {
      "midi": 55,
      "hit": false,
      "t": 115713.35999999991,
      "d": 648.7113281249913,
      "v": 85
    },
    {
      "midi": 64,
      "hit": false,
      "t": 115713.35999999991,
      "d": 665.4522656249901,
      "v": 81
    },
    {
      "midi": 45,
      "hit": false,
      "t": 115713.35999999991,
      "d": 721.2553906249959,
      "v": 89
    },
    {
      "midi": 62,
      "hit": false,
      "t": 116781.9898437499,
      "d": 696.1439843749977,
      "v": 89
    },
    {
      "midi": 57,
      "hit": false,
      "t": 116781.9898437499,
      "d": 712.8849218749965,
      "v": 85
    },
    {
      "midi": 66,
      "hit": false,
      "t": 116781.9898437499,
      "d": 715.6750781250012,
      "v": 77
    },
    {
      "midi": 47,
      "hit": false,
      "t": 116781.9898437499,
      "d": 735.2061718750047,
      "v": 85
    },
    {
      "midi": 48,
      "hit": false,
      "t": 117853.40984374992,
      "d": 1293.2374218750192,
      "v": 87
    },
    {
      "midi": 59,
      "hit": false,
      "t": 117856.19999999992,
      "d": 1173.2607031250081,
      "v": 91
    },
    {
      "midi": 64,
      "hit": false,
      "t": 117858.99015624993,
      "d": 1170.4705468750035,
      "v": 94
    },
    {
      "midi": 67,
      "hit": false,
      "t": 117858.99015624993,
      "d": 1178.841015625003,
      "v": 84
    },
    {
      "midi": 47,
      "hit": false,
      "t": 119454.95953124994,
      "d": 280.4107031250023,
      "v": 83
    },
    {
      "midi": 71,
      "hit": false,
      "t": 119457.74968749995,
      "d": 205.07648437500757,
      "v": 81
    },
    {
      "midi": 67,
      "hit": false,
      "t": 119457.74968749995,
      "d": 213.44695312500698,
      "v": 77
    },
    {
      "midi": 62,
      "hit": false,
      "t": 119457.74968749995,
      "d": 219.02726562500175,
      "v": 75
    },
    {
      "midi": 55,
      "hit": false,
      "t": 120001.83015624994,
      "d": 68.35882812499767,
      "v": 79
    },
    {
      "midi": 64,
      "hit": false,
      "t": 120001.83015624994,
      "d": 707.3046093750017,
      "v": 83
    },
    {
      "midi": 57,
      "hit": false,
      "t": 120001.83015624994,
      "d": 724.0455468750006,
      "v": 77
    },
    {
      "midi": 60,
      "hit": false,
      "t": 120001.83015624994,
      "d": 735.2061718750047,
      "v": 84
    },
    {
      "midi": 67,
      "hit": false,
      "t": 120001.83015624994,
      "d": 737.9963281250093,
      "v": 77
    },
    {
      "midi": 45,
      "hit": false,
      "t": 120001.83015624994,
      "d": 785.4289843750157,
      "v": 77
    },
    {
      "midi": 47,
      "hit": false,
      "t": 120004.62031249994,
      "d": 48.82773437499418,
      "v": 84
    },
    {
      "midi": 47,
      "hit": false,
      "t": 121067.66984374996,
      "d": 698.9341406250023,
      "v": 98
    },
    {
      "midi": 62,
      "hit": false,
      "t": 121070.45999999996,
      "d": 592.908203125,
      "v": 98
    },
    {
      "midi": 57,
      "hit": false,
      "t": 121070.45999999996,
      "d": 615.2294531249936,
      "v": 87
    },
    {
      "midi": 66,
      "hit": false,
      "t": 121070.45999999996,
      "d": 634.7605468749971,
      "v": 78
    },
    {
      "midi": 59,
      "hit": false,
      "t": 122139.08984374996,
      "d": 207.86664062499767,
      "v": 72
    },
    {
      "midi": 64,
      "hit": false,
      "t": 122139.08984374996,
      "d": 227.39773437500116,
      "v": 80
    },
    {
      "midi": 69,
      "hit": false,
      "t": 122139.08984374996,
      "d": 230.18789062500582,
      "v": 87
    },
    {
      "midi": 40,
      "hit": false,
      "t": 122139.08984374996,
      "d": 821.7010156250326,
      "v": 84
    },
    {
      "midi": 64,
      "hit": false,
      "t": 122415.31531249997,
      "d": 96.26039062501513,
      "v": 50
    },
    {
      "midi": 69,
      "hit": false,
      "t": 122415.31531249997,
      "d": 99.05054687501979,
      "v": 51
    },
    {
      "midi": 59,
      "hit": false,
      "t": 122418.10546874997,
      "d": 90.68007812500582,
      "v": 39
    },
    {
      "midi": 59,
      "hit": false,
      "t": 122677.58999999998,
      "d": 138.11273437499767,
      "v": 70
    },
    {
      "midi": 64,
      "hit": false,
      "t": 122677.58999999998,
      "d": 154.8536718749965,
      "v": 67
    },
    {
      "midi": 52,
      "hit": false,
      "t": 122677.58999999998,
      "d": 721.255390625025,
      "v": 72
    },
    {
      "midi": 69,
      "hit": false,
      "t": 122680.38015624999,
      "d": 152.06351562499185,
      "v": 75
    },
    {
      "midi": 59,
      "hit": false,
      "t": 122948.23515624998,
      "d": 104.630859375,
      "v": 62
    },
    {
      "midi": 64,
      "hit": false,
      "t": 122948.23515624998,
      "d": 107.42101562500466,
      "v": 56
    },
    {
      "midi": 69,
      "hit": false,
      "t": 122948.23515624998,
      "d": 110.21117187500931,
      "v": 60
    },
    {
      "midi": 40,
      "hit": false,
      "t": 123210.50984375,
      "d": 774.2683593750262,
      "v": 80
    },
    {
      "midi": 59,
      "hit": false,
      "t": 123216.09015625,
      "d": 124.16195312500349,
      "v": 80
    },
    {
      "midi": 64,
      "hit": false,
      "t": 123216.09015625,
      "d": 124.16195312500349,
      "v": 76
    },
    {
      "midi": 69,
      "hit": false,
      "t": 123216.09015625,
      "d": 126.95210937500815,
      "v": 85
    },
    {
      "midi": 64,
      "hit": false,
      "t": 123481.15500000001,
      "d": 104.630859375,
      "v": 72
    },
    {
      "midi": 59,
      "hit": false,
      "t": 123483.94515625002,
      "d": 104.630859375,
      "v": 77
    },
    {
      "midi": 69,
      "hit": false,
      "t": 123483.94515625002,
      "d": 107.42101562500466,
      "v": 85
    },
    {
      "midi": 52,
      "hit": false,
      "t": 123715.52812500003,
      "d": 372.4858593749959,
      "v": 107
    },
    {
      "midi": 59,
      "hit": false,
      "t": 123749.01000000002,
      "d": 149.27335937500175,
      "v": 98
    },
    {
      "midi": 64,
      "hit": false,
      "t": 123749.01000000002,
      "d": 149.27335937500175,
      "v": 105
    },
    {
      "midi": 69,
      "hit": false,
      "t": 123749.01000000002,
      "d": 152.0635156250064,
      "v": 91
    },
    {
      "midi": 59,
      "hit": false,
      "t": 124016.86500000002,
      "d": 85.09976562499651,
      "v": 101
    },
    {
      "midi": 64,
      "hit": false,
      "t": 124016.86500000002,
      "d": 99.05054687499069,
      "v": 102
    },
    {
      "midi": 69,
      "hit": false,
      "t": 124019.65515625002,
      "d": 87.88992187498661,
      "v": 94
    },
    {
      "midi": 65,
      "hit": false,
      "t": 124284.72000000002,
      "d": 199.49617187499825,
      "v": 87
    },
    {
      "midi": 70,
      "hit": false,
      "t": 124284.72000000002,
      "d": 199.49617187499825,
      "v": 84
    },
    {
      "midi": 53,
      "hit": false,
      "t": 124284.72000000002,
      "d": 433.86929687501106,
      "v": 91
    },
    {
      "midi": 41,
      "hit": false,
      "t": 124284.72000000002,
      "d": 824.4911718750227,
      "v": 84
    },
    {
      "midi": 60,
      "hit": false,
      "t": 124287.51015625002,
      "d": 177.17492187500466,
      "v": 87
    },
    {
      "midi": 60,
      "hit": false,
      "t": 124555.36515625002,
      "d": 160.43398437500582,
      "v": 79
    },
    {
      "midi": 65,
      "hit": false,
      "t": 124558.15531250002,
      "d": 160.43398437500582,
      "v": 77
    },
    {
      "midi": 70,
      "hit": false,
      "t": 124558.15531250002,
      "d": 160.43398437500582,
      "v": 78
    },
    {
      "midi": 60,
      "hit": false,
      "t": 124823.22015625003,
      "d": 182.75523437501397,
      "v": 92
    },
    {
      "midi": 65,
      "hit": false,
      "t": 124823.22015625003,
      "d": 191.1257031250134,
      "v": 91
    },
    {
      "midi": 53,
      "hit": false,
      "t": 124823.22015625003,
      "d": 894.2450781250227,
      "v": 105
    },
    {
      "midi": 70,
      "hit": false,
      "t": 124826.01031250003,
      "d": 177.17492187500466,
      "v": 93
    },
    {
      "midi": 60,
      "hit": false,
      "t": 125091.07515625004,
      "d": 113.00132812499942,
      "v": 76
    },
    {
      "midi": 65,
      "hit": false,
      "t": 125091.07515625004,
      "d": 113.00132812499942,
      "v": 78
    },
    {
      "midi": 70,
      "hit": false,
      "t": 125093.86531250004,
      "d": 96.26039062500058,
      "v": 73
    },
    {
      "midi": 41,
      "hit": false,
      "t": 125350.55968750003,
      "d": 749.1569531250134,
      "v": 98
    },
    {
      "midi": 60,
      "hit": false,
      "t": 125353.34984375004,
      "d": 157.64382812500116,
      "v": 89
    },
    {
      "midi": 70,
      "hit": false,
      "t": 125353.34984375004,
      "d": 160.43398437500582,
      "v": 84
    },
    {
      "midi": 65,
      "hit": false,
      "t": 125353.34984375004,
      "d": 168.80445312500524,
      "v": 87
    },
    {
      "midi": 60,
      "hit": false,
      "t": 125626.78515625004,
      "d": 107.42101562500466,
      "v": 85
    },
    {
      "midi": 65,
      "hit": false,
      "t": 125626.78515625004,
      "d": 110.21117187500931,
      "v": 85
    },
    {
      "midi": 70,
      "hit": false,
      "t": 125626.78515625004,
      "d": 118.58164062500873,
      "v": 78
    },
    {
      "midi": 53,
      "hit": false,
      "t": 125889.05984375006,
      "d": 308.3122656249907,
      "v": 107
    },
    {
      "midi": 65,
      "hit": false,
      "t": 125894.64015625005,
      "d": 85.09976562499651,
      "v": 94
    },
    {
      "midi": 60,
      "hit": false,
      "t": 125894.64015625005,
      "d": 107.4210156249901,
      "v": 89
    },
    {
      "midi": 70,
      "hit": false,
      "t": 125894.64015625005,
      "d": 110.21117187499476,
      "v": 94
    },
    {
      "midi": 65,
      "hit": false,
      "t": 126162.49515625005,
      "d": 46.037578125004075,
      "v": 94
    },
    {
      "midi": 60,
      "hit": false,
      "t": 126162.49515625005,
      "d": 71.14898437500233,
      "v": 91
    },
    {
      "midi": 70,
      "hit": false,
      "t": 126162.49515625005,
      "d": 71.14898437500233,
      "v": 94
    },
    {
      "midi": 60,
      "hit": false,
      "t": 126427.56000000006,
      "d": 166.01429687501513,
      "v": 100
    },
    {
      "midi": 41,
      "hit": false,
      "t": 126427.56000000006,
      "d": 297.15164062503027,
      "v": 96
    },
    {
      "midi": 53,
      "hit": false,
      "t": 126427.56000000006,
      "d": 302.73195312502503,
      "v": 99
    },
    {
      "midi": 70,
      "hit": false,
      "t": 126430.35015625006,
      "d": 157.64382812500116,
      "v": 105
    },
    {
      "midi": 65,
      "hit": false,
      "t": 126430.35015625006,
      "d": 174.38476562501455,
      "v": 104
    },
    {
      "midi": 65,
      "hit": false,
      "t": 126695.41500000008,
      "d": 110.21117187499476,
      "v": 87
    },
    {
      "midi": 70,
      "hit": false,
      "t": 126695.41500000008,
      "d": 110.21117187499476,
      "v": 83
    },
    {
      "midi": 60,
      "hit": false,
      "t": 126695.41500000008,
      "d": 113.00132812499942,
      "v": 87
    },
    {
      "midi": 41,
      "hit": false,
      "t": 126963.27000000008,
      "d": 255.29929687501863,
      "v": 98
    },
    {
      "midi": 53,
      "hit": false,
      "t": 126963.27000000008,
      "d": 266.4599218750227,
      "v": 94
    },
    {
      "midi": 60,
      "hit": false,
      "t": 126966.06015625008,
      "d": 154.85367187501106,
      "v": 101
    },
    {
      "midi": 65,
      "hit": false,
      "t": 126966.06015625008,
      "d": 174.38476562501455,
      "v": 105
    },
    {
      "midi": 70,
      "hit": false,
      "t": 126966.06015625008,
      "d": 174.38476562501455,
      "v": 108
    },
    {
      "midi": 70,
      "hit": false,
      "t": 127233.9151562501,
      "d": 138.11273437499767,
      "v": 98
    },
    {
      "midi": 60,
      "hit": false,
      "t": 127233.9151562501,
      "d": 143.69304687499243,
      "v": 99
    },
    {
      "midi": 65,
      "hit": false,
      "t": 127233.9151562501,
      "d": 152.06351562499185,
      "v": 100
    },
    {
      "midi": 41,
      "hit": false,
      "t": 127493.3996875001,
      "d": 311.1024218750099,
      "v": 93
    },
    {
      "midi": 53,
      "hit": false,
      "t": 127493.3996875001,
      "d": 330.6335156250134,
      "v": 98
    },
    {
      "midi": 60,
      "hit": false,
      "t": 127496.18984375011,
      "d": 174.384765625,
      "v": 109
    },
    {
      "midi": 70,
      "hit": false,
      "t": 127498.98000000011,
      "d": 171.59460937499534,
      "v": 113
    },
    {
      "midi": 65,
      "hit": false,
      "t": 127498.98000000011,
      "d": 182.75523437499942,
      "v": 113
    },
    {
      "midi": 70,
      "hit": false,
      "t": 127764.04484375012,
      "d": 138.11273437499767,
      "v": 110
    },
    {
      "midi": 65,
      "hit": false,
      "t": 127764.04484375012,
      "d": 140.90289062500233,
      "v": 107
    },
    {
      "midi": 60,
      "hit": false,
      "t": 127764.04484375012,
      "d": 146.4832031249971,
      "v": 103
    },
    {
      "midi": 53,
      "hit": false,
      "t": 128003.99828125011,
      "d": 9.765546875001746,
      "v": 44
    },
    {
      "midi": 41,
      "hit": false,
      "t": 128029.10968750011,
      "d": 464.5610156250186,
      "v": 86
    },
    {
      "midi": 60,
      "hit": false,
      "t": 128031.89984375011,
      "d": 202.2863281250029,
      "v": 114
    },
    {
      "midi": 53,
      "hit": false,
      "t": 128031.89984375011,
      "d": 461.77085937501397,
      "v": 107
    },
    {
      "midi": 70,
      "hit": false,
      "t": 128034.69000000012,
      "d": 196.7060156249936,
      "v": 117
    },
    {
      "midi": 65,
      "hit": false,
      "t": 128034.69000000012,
      "d": 202.2863281250029,
      "v": 115
    },
    {
      "midi": 68,
      "hit": false,
      "t": 128037.48015625012,
      "d": 1.3950781250023283,
      "v": 94
    },
    {
      "midi": 60,
      "hit": false,
      "t": 128305.33515625012,
      "d": 177.17492187500466,
      "v": 92
    },
    {
      "midi": 65,
      "hit": false,
      "t": 128305.33515625012,
      "d": 185.54539062500407,
      "v": 83
    },
    {
      "midi": 70,
      "hit": false,
      "t": 128305.33515625012,
      "d": 185.54539062500407,
      "v": 90
    },
    {
      "midi": 64,
      "hit": false,
      "t": 128570.40000000013,
      "d": 2546.0175781250146,
      "v": 102
    },
    {
      "midi": 67,
      "hit": false,
      "t": 128570.40000000013,
      "d": 2554.3880468750285,
      "v": 91
    },
    {
      "midi": 60,
      "hit": false,
      "t": 128570.40000000013,
      "d": 2559.968359375038,
      "v": 91
    },
    {
      "midi": 64,
      "hit": false,
      "t": 128570.40000000015,
      "d": 520.3641406249953,
      "v": 98
    },
    {
      "midi": 67,
      "hit": false,
      "t": 128570.40000000015,
      "d": 606.8589843749942,
      "v": 106
    },
    {
      "midi": 72,
      "hit": false,
      "t": 128570.40000000015,
      "d": 626.3900781249977,
      "v": 91
    },
    {
      "midi": 48,
      "hit": false,
      "t": 128570.40000000015,
      "d": 698.9341406250023,
      "v": 91
    },
    {
      "midi": 60,
      "hit": false,
      "t": 128570.40000000015,
      "d": 779.8486718750064,
      "v": 98
    },
    {
      "midi": 64,
      "hit": false,
      "t": 129371.17484375017,
      "d": 90.68007812500582,
      "v": 62
    },
    {
      "midi": 67,
      "hit": false,
      "t": 129639.02984375016,
      "d": 124.16195312500349,
      "v": 109
    },
    {
      "midi": 64,
      "hit": false,
      "t": 129639.02984375016,
      "d": 129.74226562499825,
      "v": 98
    },
    {
      "midi": 72,
      "hit": false,
      "t": 129639.02984375016,
      "d": 163.22414062499593,
      "v": 98
    },
    {
      "midi": 48,
      "hit": false,
      "t": 129639.02984375016,
      "d": 690.5636718749884,
      "v": 88
    },
    {
      "midi": 60,
      "hit": false,
      "t": 129639.02984375016,
      "d": 698.9341406249878,
      "v": 104
    },
    {
      "midi": 72,
      "hit": false,
      "t": 130169.15953125016,
      "d": 135.32257812499302,
      "v": 102
    },
    {
      "midi": 76,
      "hit": false,
      "t": 130169.15953125016,
      "d": 157.6438281249866,
      "v": 99
    },
    {
      "midi": 67,
      "hit": false,
      "t": 130169.15953125016,
      "d": 160.43398437499127,
      "v": 94
    },
    {
      "midi": 60,
      "hit": false,
      "t": 130710.44984375015,
      "d": 531.5247656249703,
      "v": 95
    },
    {
      "midi": 48,
      "hit": false,
      "t": 130710.44984375015,
      "d": 534.314921874975,
      "v": 87
    },
    {
      "midi": 79,
      "hit": false,
      "t": 130716.03015625014,
      "d": 447.8200781249907,
      "v": 90
    },
    {
      "midi": 76,
      "hit": false,
      "t": 130716.03015625014,
      "d": 458.9807031249802,
      "v": 99
    },
    {
      "midi": 72,
      "hit": false,
      "t": 130716.03015625014,
      "d": 472.9314843749744,
      "v": 108
    },
    {
      "midi": 70,
      "hit": false,
      "t": 131519.5951562501,
      "d": 85.09976562499651,
      "v": 69
    },
    {
      "midi": 72,
      "hit": false,
      "t": 131519.5951562501,
      "d": 90.68007812500582,
      "v": 86
    },
    {
      "midi": 77,
      "hit": false,
      "t": 131519.5951562501,
      "d": 107.42101562500466,
      "v": 83
    },
    {
      "midi": 65,
      "hit": false,
      "t": 131767.91906250015,
      "d": 880.294296875014,
      "v": 93
    },
    {
      "midi": 58,
      "hit": false,
      "t": 131773.49937500016,
      "d": 902.615546874993,
      "v": 94
    },
    {
      "midi": 60,
      "hit": false,
      "t": 131773.49937500016,
      "d": 924.9367968750012,
      "v": 98
    },
    {
      "midi": 70,
      "hit": false,
      "t": 131781.86984375012,
      "d": 341.79414062498836,
      "v": 90
    },
    {
      "midi": 72,
      "hit": false,
      "t": 131781.86984375012,
      "d": 352.9547656249779,
      "v": 98
    },
    {
      "midi": 77,
      "hit": false,
      "t": 131781.86984375012,
      "d": 394.8071093749895,
      "v": 89
    },
    {
      "midi": 48,
      "hit": false,
      "t": 131781.86984375012,
      "d": 718.4652343750058,
      "v": 85
    },
    {
      "midi": 60,
      "hit": false,
      "t": 131781.86984375012,
      "d": 802.1699218750291,
      "v": 103
    },
    {
      "midi": 70,
      "hit": false,
      "t": 132317.5798437501,
      "d": 230.18789062503492,
      "v": 86
    },
    {
      "midi": 72,
      "hit": false,
      "t": 132320.3700000001,
      "d": 163.22414062501048,
      "v": 96
    },
    {
      "midi": 77,
      "hit": false,
      "t": 132323.16015625012,
      "d": 185.54539062501863,
      "v": 93
    },
    {
      "midi": 67,
      "hit": false,
      "t": 132839.33906250016,
      "d": 2105.172890624992,
      "v": 80
    },
    {
      "midi": 60,
      "hit": false,
      "t": 132839.33906250016,
      "d": 2116.3335156249814,
      "v": 85
    },
    {
      "midi": 64,
      "hit": false,
      "t": 132839.33906250016,
      "d": 2138.6547656249895,
      "v": 88
    },
    {
      "midi": 48,
      "hit": false,
      "t": 132844.91937500014,
      "d": 813.3305468750477,
      "v": 83
    },
    {
      "midi": 76,
      "hit": false,
      "t": 132847.70953125015,
      "d": 612.4392968750326,
      "v": 89
    },
    {
      "midi": 72,
      "hit": false,
      "t": 132847.70953125015,
      "d": 631.9703906250361,
      "v": 92
    },
    {
      "midi": 67,
      "hit": false,
      "t": 132847.70953125015,
      "d": 654.2916406250442,
      "v": 92
    },
    {
      "midi": 60,
      "hit": false,
      "t": 132847.70953125015,
      "d": 849.6025781250501,
      "v": 90
    },
    {
      "midi": 79,
      "hit": false,
      "t": 133662.4351562502,
      "d": 171.59460937499534,
      "v": 81
    },
    {
      "midi": 67,
      "hit": false,
      "t": 133919.1295312502,
      "d": 447.8200781250198,
      "v": 82
    },
    {
      "midi": 72,
      "hit": false,
      "t": 133919.1295312502,
      "d": 447.8200781250198,
      "v": 89
    },
    {
      "midi": 60,
      "hit": false,
      "t": 133919.1295312502,
      "d": 704.5144531250116,
      "v": 94
    },
    {
      "midi": 48,
      "hit": false,
      "t": 133919.1295312502,
      "d": 707.3046093750163,
      "v": 84
    },
    {
      "midi": 72,
      "hit": false,
      "t": 134457.62968750022,
      "d": 79.5194531249872,
      "v": 89
    },
    {
      "midi": 76,
      "hit": false,
      "t": 134457.62968750022,
      "d": 96.26039062498603,
      "v": 81
    },
    {
      "midi": 67,
      "hit": false,
      "t": 134457.62968750022,
      "d": 115.79148437498952,
      "v": 80
    },
    {
      "midi": 48,
      "hit": false,
      "t": 135001.7101562502,
      "d": 751.9471093750326,
      "v": 84
    },
    {
      "midi": 60,
      "hit": false,
      "t": 135001.7101562502,
      "d": 754.7372656250373,
      "v": 78
    },
    {
      "midi": 64,
      "hit": false,
      "t": 135007.2904687502,
      "d": 573.3771093750256,
      "v": 83
    },
    {
      "midi": 72,
      "hit": false,
      "t": 135007.2904687502,
      "d": 612.4392968750326,
      "v": 85
    },
    {
      "midi": 67,
      "hit": false,
      "t": 135010.0806250002,
      "d": 562.216484375007,
      "v": 89
    },
    {
      "midi": 65,
      "hit": false,
      "t": 135805.27515625022,
      "d": 43.24742187501397,
      "v": 84
    },
    {
      "midi": 65,
      "hit": false,
      "t": 136050.80890625014,
      "d": 386.43664062500466,
      "v": 89
    },
    {
      "midi": 60,
      "hit": false,
      "t": 136050.80890625014,
      "d": 389.2267968750093,
      "v": 95
    },
    {
      "midi": 58,
      "hit": false,
      "t": 136050.80890625014,
      "d": 392.01695312501397,
      "v": 83
    },
    {
      "midi": 48,
      "hit": false,
      "t": 136059.17937500024,
      "d": 626.3900781249686,
      "v": 78
    },
    {
      "midi": 60,
      "hit": false,
      "t": 136059.17937500024,
      "d": 657.0817968749907,
      "v": 83
    },
    {
      "midi": 70,
      "hit": false,
      "t": 136061.96953125024,
      "d": 291.57132812499185,
      "v": 96
    },
    {
      "midi": 72,
      "hit": false,
      "t": 136061.96953125024,
      "d": 305.52210937498603,
      "v": 98
    },
    {
      "midi": 77,
      "hit": false,
      "t": 136061.96953125024,
      "d": 316.68273437497555,
      "v": 83
    },
    {
      "midi": 65,
      "hit": false,
      "t": 136061.96953125024,
      "d": 350.1646093749732,
      "v": 88
    },
    {
      "midi": 70,
      "hit": false,
      "t": 136597.6795312502,
      "d": 113.00132812501397,
      "v": 104
    },
    {
      "midi": 72,
      "hit": false,
      "t": 136597.6795312502,
      "d": 179.9650781250093,
      "v": 104
    },
    {
      "midi": 65,
      "hit": false,
      "t": 136597.6795312502,
      "d": 210.65679687500233,
      "v": 96
    },
    {
      "midi": 77,
      "hit": false,
      "t": 136600.4696875002,
      "d": 241.34851562499534,
      "v": 85
    },
    {
      "midi": 58,
      "hit": false,
      "t": 136631.16140625015,
      "d": 288.7811718749872,
      "v": 78
    },
    {
      "midi": 60,
      "hit": false,
      "t": 136631.16140625015,
      "d": 380.85632812499534,
      "v": 89
    },
    {
      "midi": 65,
      "hit": false,
      "t": 136631.16140625015,
      "d": 386.43664062500466,
      "v": 91
    },
    {
      "midi": 58,
      "hit": false,
      "t": 137130.5993750002,
      "d": 852.3927343750256,
      "v": 92
    },
    {
      "midi": 46,
      "hit": false,
      "t": 137141.76000000018,
      "d": 1923.8127343750384,
      "v": 82
    },
    {
      "midi": 65,
      "hit": false,
      "t": 137147.3403125002,
      "d": 567.7967968750163,
      "v": 97
    },
    {
      "midi": 65,
      "hit": false,
      "t": 137150.13046875014,
      "d": 1382.5224218750081,
      "v": 89
    },
    {
      "midi": 70,
      "hit": false,
      "t": 137150.1304687502,
      "d": 679.4030468750279,
      "v": 108
    },
    {
      "midi": 74,
      "hit": false,
      "t": 137150.1304687502,
      "d": 693.3538281250221,
      "v": 102
    },
    {
      "midi": 77,
      "hit": false,
      "t": 137152.9206250002,
      "d": 679.4030468750279,
      "v": 96
    },
    {
      "midi": 62,
      "hit": false,
      "t": 137155.71078125015,
      "d": 1365.7814843750093,
      "v": 98
    },
    {
      "midi": 58,
      "hit": false,
      "t": 137155.71078125015,
      "d": 1382.5224218750081,
      "v": 97
    },
    {
      "midi": 65,
      "hit": false,
      "t": 137948.11515625022,
      "d": 101.84070312499534,
      "v": 98
    },
    {
      "midi": 65,
      "hit": false,
      "t": 138204.8095312502,
      "d": 322.26304687501397,
      "v": 92
    },
    {
      "midi": 58,
      "hit": false,
      "t": 138204.8095312502,
      "d": 746.3667968749942,
      "v": 102
    },
    {
      "midi": 77,
      "hit": false,
      "t": 138207.59968750022,
      "d": 950.048203125014,
      "v": 99
    },
    {
      "midi": 74,
      "hit": false,
      "t": 138469.87437500022,
      "d": 534.3149218749895,
      "v": 78
    },
    {
      "midi": 70,
      "hit": false,
      "t": 138746.0998437502,
      "d": 263.6697656250035,
      "v": 107
    },
    {
      "midi": 65,
      "hit": false,
      "t": 139013.95484375022,
      "d": 104.630859375,
      "v": 93
    },
    {
      "midi": 67,
      "hit": false,
      "t": 139270.64921875016,
      "d": 1541.5613281250116,
      "v": 94
    },
    {
      "midi": 60,
      "hit": false,
      "t": 139270.64921875016,
      "d": 1547.141640625021,
      "v": 94
    },
    {
      "midi": 62,
      "hit": false,
      "t": 139270.64921875016,
      "d": 1566.6727343750244,
      "v": 108
    },
    {
      "midi": 55,
      "hit": false,
      "t": 139284.60000000024,
      "d": 902.6155468750512,
      "v": 80
    },
    {
      "midi": 43,
      "hit": false,
      "t": 139284.60000000024,
      "d": 1156.5197656250675,
      "v": 81
    },
    {
      "midi": 67,
      "hit": false,
      "t": 139544.08453125024,
      "d": 285.99101562504075,
      "v": 80
    },
    {
      "midi": 74,
      "hit": false,
      "t": 139552.45500000025,
      "d": 238.5583593750198,
      "v": 85
    },
    {
      "midi": 72,
      "hit": false,
      "t": 139555.24515625025,
      "d": 230.18789062500582,
      "v": 76
    },
    {
      "midi": 67,
      "hit": false,
      "t": 140350.4396875003,
      "d": 316.68273437500466,
      "v": 78
    },
    {
      "midi": 72,
      "hit": false,
      "t": 140353.2298437503,
      "d": 311.10242187499534,
      "v": 89
    },
    {
      "midi": 74,
      "hit": false,
      "t": 140353.2298437503,
      "d": 327.8433593749942,
      "v": 91
    },
    {
      "midi": 79,
      "hit": false,
      "t": 140353.2298437503,
      "d": 358.5350781249872,
      "v": 89
    },
    {
      "midi": 55,
      "hit": false,
      "t": 140894.5201562503,
      "d": 90.68007812500582,
      "v": 74
    },
    {
      "midi": 65,
      "hit": false,
      "t": 141154.0046875003,
      "d": 65.56867187499302,
      "v": 85
    },
    {
      "midi": 65,
      "hit": false,
      "t": 141416.2793750002,
      "d": 2040.9992968750012,
      "v": 94
    },
    {
      "midi": 41,
      "hit": false,
      "t": 141416.2793750003,
      "d": 531.5247656249849,
      "v": 81
    },
    {
      "midi": 53,
      "hit": false,
      "t": 141416.2793750003,
      "d": 3257.507421874994,
      "v": 94
    },
    {
      "midi": 65,
      "hit": false,
      "t": 141419.0695312503,
      "d": 238.5583593749907,
      "v": 89
    },
    {
      "midi": 57,
      "hit": false,
      "t": 141421.8596875002,
      "d": 1990.7764843750047,
      "v": 98
    },
    {
      "midi": 60,
      "hit": false,
      "t": 141421.8596875002,
      "d": 2038.2091406249965,
      "v": 102
    },
    {
      "midi": 69,
      "hit": false,
      "t": 141421.8596875003,
      "d": 235.76820312498603,
      "v": 89
    },
    {
      "midi": 72,
      "hit": false,
      "t": 141421.8596875003,
      "d": 244.138671875,
      "v": 88
    },
    {
      "midi": 77,
      "hit": false,
      "t": 141421.8596875003,
      "d": 325.0532031249895,
      "v": 87
    },
    {
      "midi": 41,
      "hit": false,
      "t": 142490.4895312503,
      "d": 2961.7508593749953,
      "v": 84
    },
    {
      "midi": 77,
      "hit": false,
      "t": 142493.2796875003,
      "d": 68.35882812499767,
      "v": 70
    },
    {
      "midi": 89,
      "hit": false,
      "t": 142493.2796875003,
      "d": 163.22414062498137,
      "v": 90
    },
    {
      "midi": 84,
      "hit": false,
      "t": 142624.41703125028,
      "d": 154.8536718749965,
      "v": 79
    },
    {
      "midi": 81,
      "hit": false,
      "t": 142761.13468750028,
      "d": 73.93914062500698,
      "v": 83
    },
    {
      "midi": 77,
      "hit": false,
      "t": 142889.4818750003,
      "d": 65.56867187499302,
      "v": 55
    },
    {
      "midi": 84,
      "hit": false,
      "t": 143020.61921875027,
      "d": 124.16195312500349,
      "v": 105
    },
    {
      "midi": 81,
      "hit": false,
      "t": 143154.54671875027,
      "d": 93.47023437501048,
      "v": 80
    },
    {
      "midi": 72,
      "hit": false,
      "t": 143427.98203125029,
      "d": 146.48320312498254,
      "v": 103
    },
    {
      "midi": 69,
      "hit": false,
      "t": 143556.32921875018,
      "d": 1502.4991406250047,
      "v": 84
    },
    {
      "midi": 65,
      "hit": false,
      "t": 143561.9095312502,
      "d": 1499.708984375,
      "v": 87
    },
    {
      "midi": 77,
      "hit": false,
      "t": 143564.69968750028,
      "d": 163.22414062498137,
      "v": 84
    },
    {
      "midi": 60,
      "hit": false,
      "t": 143567.4898437502,
      "d": 1480.1778906249965,
      "v": 89
    },
    {
      "midi": 72,
      "hit": false,
      "t": 143698.62718750027,
      "d": 143.69304687500698,
      "v": 82
    },
    {
      "midi": 69,
      "hit": false,
      "t": 143835.34484375027,
      "d": 99.05054687501979,
      "v": 84
    },
    {
      "midi": 65,
      "hit": false,
      "t": 143972.0625000003,
      "d": 87.88992187500116,
      "v": 91
    },
    {
      "midi": 72,
      "hit": false,
      "t": 144100.4096875003,
      "d": 113.00132812501397,
      "v": 102
    },
    {
      "midi": 69,
      "hit": false,
      "t": 144234.33718750032,
      "d": 85.09976562499651,
      "v": 96
    },
    {
      "midi": 65,
      "hit": false,
      "t": 144371.05484375032,
      "d": 29.296640624990687,
      "v": 55
    },
    {
      "midi": 60,
      "hit": false,
      "t": 144504.9823437503,
      "d": 138.11273437499767,
      "v": 101
    },
    {
      "midi": 65,
      "hit": false,
      "t": 144644.4901562503,
      "d": 154.8536718749965,
      "v": 73
    },
    {
      "midi": 60,
      "hit": false,
      "t": 144767.2570312503,
      "d": 146.48320312498254,
      "v": 64
    },
    {
      "midi": 57,
      "hit": false,
      "t": 144901.1845312503,
      "d": 124.16195312500349,
      "v": 73
    },
    {
      "midi": 53,
      "hit": false,
      "t": 145032.3218750003,
      "d": 143.69304687497788,
      "v": 80
    },
    {
      "midi": 57,
      "hit": false,
      "t": 145163.4592187503,
      "d": 149.2733593749872,
      "v": 85
    },
    {
      "midi": 60,
      "hit": false,
      "t": 145294.5965625003,
      "d": 157.64382812500116,
      "v": 83
    },
    {
      "midi": 65,
      "hit": false,
      "t": 145434.1043750003,
      "d": 93.47023437501048,
      "v": 80
    },
    {
      "midi": 72,
      "hit": false,
      "t": 145576.4023437503,
      "d": 57.19820312500815,
      "v": 93
    },
    {
      "midi": 64,
      "hit": false,
      "t": 145713.1200000002,
      "d": 2546.017578125,
      "v": 102
    },
    {
      "midi": 67,
      "hit": false,
      "t": 145713.1200000002,
      "d": 2554.388046875014,
      "v": 91
    },
    {
      "midi": 60,
      "hit": false,
      "t": 145713.1200000002,
      "d": 2559.9683593750233,
      "v": 91
    },
    {
      "midi": 64,
      "hit": false,
      "t": 145713.1200000003,
      "d": 157.64382812500116,
      "v": 85
    },
    {
      "midi": 60,
      "hit": false,
      "t": 145713.1200000003,
      "d": 285.99101562501164,
      "v": 93
    },
    {
      "midi": 67,
      "hit": false,
      "t": 145713.1200000003,
      "d": 291.57132812502095,
      "v": 102
    },
    {
      "midi": 72,
      "hit": false,
      "t": 145713.1200000003,
      "d": 350.16460937503143,
      "v": 91
    },
    {
      "midi": 48,
      "hit": false,
      "t": 145713.1200000003,
      "d": 922.1466406250547,
      "v": 85
    },
    {
      "midi": 64,
      "hit": false,
      "t": 145975.3946875003,
      "d": 82.30960937502095,
      "v": 68
    },
    {
      "midi": 60,
      "hit": false,
      "t": 146246.03984375033,
      "d": 888.6647656250279,
      "v": 94
    },
    {
      "midi": 72,
      "hit": false,
      "t": 146513.89484375034,
      "d": 366.90554687500116,
      "v": 110
    },
    {
      "midi": 67,
      "hit": false,
      "t": 146513.89484375034,
      "d": 372.4858593750105,
      "v": 94
    },
    {
      "midi": 76,
      "hit": false,
      "t": 146513.89484375034,
      "d": 403.1775781250035,
      "v": 94
    },
    {
      "midi": 48,
      "hit": false,
      "t": 146792.91046875034,
      "d": 857.9730468749767,
      "v": 78
    },
    {
      "midi": 67,
      "hit": false,
      "t": 147046.81468750036,
      "d": 414.338203124993,
      "v": 73
    },
    {
      "midi": 74,
      "hit": false,
      "t": 147046.81468750036,
      "d": 531.5247656249849,
      "v": 83
    },
    {
      "midi": 60,
      "hit": false,
      "t": 147325.83031250036,
      "d": 838.4419531249732,
      "v": 98
    },
    {
      "midi": 67,
      "hit": false,
      "t": 147590.89515625034,
      "d": 333.4236718749744,
      "v": 84
    },
    {
      "midi": 72,
      "hit": false,
      "t": 147590.89515625034,
      "d": 612.4392968750035,
      "v": 102
    },
    {
      "midi": 48,
      "hit": false,
      "t": 147850.3796875003,
      "d": 799.3797656250244,
      "v": 83
    },
    {
      "midi": 67,
      "hit": false,
      "t": 148121.02484375032,
      "d": 185.54539062501863,
      "v": 58
    },
    {
      "midi": 60,
      "hit": false,
      "t": 148388.87984375033,
      "d": 305.52210937501513,
      "v": 102
    },
    {
      "midi": 67,
      "hit": false,
      "t": 148653.94468750033,
      "d": 87.88992187500116,
      "v": 73
    },
    {
      "midi": 72,
      "hit": false,
      "t": 148653.94468750033,
      "d": 230.18789062500582,
      "v": 87
    },
    {
      "midi": 65,
      "hit": false,
      "t": 148910.6390625002,
      "d": 880.294296875014,
      "v": 93
    },
    {
      "midi": 58,
      "hit": false,
      "t": 148916.21937500022,
      "d": 902.615546874993,
      "v": 94
    },
    {
      "midi": 60,
      "hit": false,
      "t": 148916.21937500022,
      "d": 924.9367968750012,
      "v": 98
    },
    {
      "midi": 48,
      "hit": false,
      "t": 148921.79968750034,
      "d": 791.0092968750105,
      "v": 84
    },
    {
      "midi": 70,
      "hit": false,
      "t": 148924.58984375035,
      "d": 392.01695312498487,
      "v": 99
    },
    {
      "midi": 60,
      "hit": false,
      "t": 148924.58984375035,
      "d": 394.8071093749895,
      "v": 107
    },
    {
      "midi": 72,
      "hit": false,
      "t": 148924.58984375035,
      "d": 422.7086718749779,
      "v": 88
    },
    {
      "midi": 65,
      "hit": false,
      "t": 148927.38000000035,
      "d": 378.0661718749907,
      "v": 101
    },
    {
      "midi": 60,
      "hit": false,
      "t": 149460.29984375034,
      "d": 241.34851562502445,
      "v": 101
    },
    {
      "midi": 70,
      "hit": false,
      "t": 149463.09000000035,
      "d": 191.12570312499884,
      "v": 101
    },
    {
      "midi": 72,
      "hit": false,
      "t": 149463.09000000035,
      "d": 196.70601562500815,
      "v": 98
    },
    {
      "midi": 65,
      "hit": false,
      "t": 149463.09000000035,
      "d": 221.81742187502095,
      "v": 94
    },
    {
      "midi": 67,
      "hit": false,
      "t": 149982.05906250022,
      "d": 2105.172890624992,
      "v": 80
    },
    {
      "midi": 60,
      "hit": false,
      "t": 149982.05906250022,
      "d": 2116.3335156249814,
      "v": 85
    },
    {
      "midi": 64,
      "hit": false,
      "t": 149982.05906250022,
      "d": 2138.6547656249895,
      "v": 88
    },
    {
      "midi": 60,
      "hit": false,
      "t": 149996.00984375036,
      "d": 297.15164062503027,
      "v": 101
    },
    {
      "midi": 67,
      "hit": false,
      "t": 149996.00984375036,
      "d": 336.21382812503725,
      "v": 94
    },
    {
      "midi": 72,
      "hit": false,
      "t": 149996.00984375036,
      "d": 369.6957031250349,
      "v": 97
    },
    {
      "midi": 48,
      "hit": false,
      "t": 149996.00984375036,
      "d": 855.1828906250303,
      "v": 84
    },
    {
      "midi": 64,
      "hit": false,
      "t": 149998.80000000037,
      "d": 163.22414062501048,
      "v": 90
    },
    {
      "midi": 64,
      "hit": false,
      "t": 150258.2845312504,
      "d": 110.21117187500931,
      "v": 74
    },
    {
      "midi": 60,
      "hit": false,
      "t": 150528.9296875004,
      "d": 913.7761718749534,
      "v": 106
    },
    {
      "midi": 67,
      "hit": false,
      "t": 150799.5748437504,
      "d": 428.2889843749581,
      "v": 95
    },
    {
      "midi": 72,
      "hit": false,
      "t": 150799.5748437504,
      "d": 431.07914062496275,
      "v": 109
    },
    {
      "midi": 76,
      "hit": false,
      "t": 150799.5748437504,
      "d": 431.07914062496275,
      "v": 96
    },
    {
      "midi": 48,
      "hit": false,
      "t": 151067.42984375037,
      "d": 877.5041406249511,
      "v": 91
    },
    {
      "midi": 74,
      "hit": false,
      "t": 151343.65531250037,
      "d": 361.32523437496275,
      "v": 97
    },
    {
      "midi": 67,
      "hit": false,
      "t": 151343.65531250037,
      "d": 372.48585937495227,
      "v": 90
    },
    {
      "midi": 72,
      "hit": false,
      "t": 151349.23562500038,
      "d": 46.03757812498952,
      "v": 95
    },
    {
      "midi": 60,
      "hit": false,
      "t": 151608.72015625035,
      "d": 852.3927343749674,
      "v": 101
    },
    {
      "midi": 72,
      "hit": false,
      "t": 151870.99484375032,
      "d": 191.12570312496973,
      "v": 113
    },
    {
      "midi": 76,
      "hit": false,
      "t": 151870.99484375032,
      "d": 199.4961718749837,
      "v": 98
    },
    {
      "midi": 67,
      "hit": false,
      "t": 151870.99484375032,
      "d": 397.5972656249942,
      "v": 98
    },
    {
      "midi": 48,
      "hit": false,
      "t": 152130.47937500032,
      "d": 796.5896093750198,
      "v": 82
    },
    {
      "midi": 79,
      "hit": false,
      "t": 152403.9146875003,
      "d": 553.8460156250512,
      "v": 96
    },
    {
      "midi": 67,
      "hit": false,
      "t": 152406.7048437503,
      "d": 308.3122656250198,
      "v": 79
    },
    {
      "midi": 60,
      "hit": false,
      "t": 152671.76968750032,
      "d": 841.2321093750652,
      "v": 80
    },
    {
      "midi": 67,
      "hit": false,
      "t": 152934.04437500035,
      "d": 113.00132812501397,
      "v": 80
    },
    {
      "midi": 65,
      "hit": false,
      "t": 153193.5289062502,
      "d": 386.43664062500466,
      "v": 89
    },
    {
      "midi": 60,
      "hit": false,
      "t": 153193.5289062502,
      "d": 389.2267968750093,
      "v": 95
    },
    {
      "midi": 58,
      "hit": false,
      "t": 153193.5289062502,
      "d": 392.01695312501397,
      "v": 83
    },
    {
      "midi": 48,
      "hit": false,
      "t": 153204.68953125036,
      "d": 651.5014843750105,
      "v": 76
    },
    {
      "midi": 70,
      "hit": false,
      "t": 153207.47968750037,
      "d": 366.90554687500116,
      "v": 87
    },
    {
      "midi": 72,
      "hit": false,
      "t": 153207.47968750037,
      "d": 372.4858593750105,
      "v": 94
    },
    {
      "midi": 65,
      "hit": false,
      "t": 153210.26984375037,
      "d": 392.01695312501397,
      "v": 84
    },
    {
      "midi": 60,
      "hit": false,
      "t": 153737.60937500038,
      "d": 138.11273437499767,
      "v": 96
    },
    {
      "midi": 65,
      "hit": false,
      "t": 153740.39953125038,
      "d": 143.69304687500698,
      "v": 77
    },
    {
      "midi": 77,
      "hit": false,
      "t": 153740.39953125038,
      "d": 160.43398437500582,
      "v": 89
    },
    {
      "midi": 58,
      "hit": false,
      "t": 153773.8814062502,
      "d": 288.7811718749872,
      "v": 78
    },
    {
      "midi": 60,
      "hit": false,
      "t": 153773.8814062502,
      "d": 380.85632812499534,
      "v": 89
    },
    {
      "midi": 65,
      "hit": false,
      "t": 153773.8814062502,
      "d": 386.43664062500466,
      "v": 91
    },
    {
      "midi": 46,
      "hit": false,
      "t": 154119.86078125038,
      "d": 891.4549218750326,
      "v": 58
    },
    {
      "midi": 58,
      "hit": false,
      "t": 154178.4540625004,
      "d": 827.2813281250128,
      "v": 82
    },
    {
      "midi": 65,
      "hit": false,
      "t": 154256.5784375004,
      "d": 562.2164843749779,
      "v": 81
    },
    {
      "midi": 70,
      "hit": false,
      "t": 154267.7390625004,
      "d": 551.0558593749884,
      "v": 98
    },
    {
      "midi": 74,
      "hit": false,
      "t": 154273.3193750004,
      "d": 567.7967968749872,
      "v": 94
    },
    {
      "midi": 77,
      "hit": false,
      "t": 154273.3193750004,
      "d": 592.908203125,
      "v": 96
    },
    {
      "midi": 65,
      "hit": false,
      "t": 154292.8504687502,
      "d": 1382.5224218750081,
      "v": 89
    },
    {
      "midi": 62,
      "hit": false,
      "t": 154298.4307812502,
      "d": 1365.7814843750093,
      "v": 98
    },
    {
      "midi": 58,
      "hit": false,
      "t": 154298.4307812502,
      "d": 1382.5224218750081,
      "v": 97
    },
    {
      "midi": 58,
      "hit": false,
      "t": 155350.31968750042,
      "d": 347.3744531250268,
      "v": 84
    },
    {
      "midi": 46,
      "hit": false,
      "t": 155353.10984375043,
      "d": 631.9703906250652,
      "v": 62
    },
    {
      "midi": 77,
      "hit": false,
      "t": 155620.96484375044,
      "d": 277.6205468750268,
      "v": 87
    },
    {
      "midi": 82,
      "hit": false,
      "t": 155623.75500000044,
      "d": 299.9417968750349,
      "v": 101
    },
    {
      "midi": 58,
      "hit": false,
      "t": 155891.61000000045,
      "d": 87.88992187503027,
      "v": 86
    },
    {
      "midi": 67,
      "hit": false,
      "t": 156413.36921875022,
      "d": 1541.5613281250116,
      "v": 94
    },
    {
      "midi": 60,
      "hit": false,
      "t": 156413.36921875022,
      "d": 1547.141640625021,
      "v": 94
    },
    {
      "midi": 62,
      "hit": false,
      "t": 156413.36921875022,
      "d": 1566.6727343750244,
      "v": 108
    },
    {
      "midi": 67,
      "hit": false,
      "t": 156427.3200000005,
      "d": 802.1699218749709,
      "v": 87
    },
    {
      "midi": 55,
      "hit": false,
      "t": 156438.4806250005,
      "d": 1229.0638281249849,
      "v": 69
    },
    {
      "midi": 79,
      "hit": false,
      "t": 156695.17500000048,
      "d": 411.54804687498836,
      "v": 89
    },
    {
      "midi": 84,
      "hit": false,
      "t": 156965.82015625047,
      "d": 258.0894531249942,
      "v": 105
    },
    {
      "midi": 79,
      "hit": false,
      "t": 157230.88500000047,
      "d": 168.8044531249907,
      "v": 94
    },
    {
      "midi": 67,
      "hit": false,
      "t": 157493.15968750048,
      "d": 643.1310156249965,
      "v": 88
    },
    {
      "midi": 74,
      "hit": false,
      "t": 157752.64421875047,
      "d": 523.154296875,
      "v": 97
    },
    {
      "midi": 55,
      "hit": false,
      "t": 158023.28937500046,
      "d": 224.6075781250256,
      "v": 81
    },
    {
      "midi": 72,
      "hit": false,
      "t": 158291.14437500047,
      "d": 107.42101562500466,
      "v": 85
    },
    {
      "midi": 65,
      "hit": false,
      "t": 158558.99937500025,
      "d": 2040.9992968750012,
      "v": 94
    },
    {
      "midi": 53,
      "hit": false,
      "t": 158561.78953125048,
      "d": 936.0974218749907,
      "v": 84
    },
    {
      "midi": 57,
      "hit": false,
      "t": 158564.57968750026,
      "d": 1990.7764843750047,
      "v": 98
    },
    {
      "midi": 60,
      "hit": false,
      "t": 158564.57968750026,
      "d": 2038.2091406249965,
      "v": 102
    },
    {
      "midi": 65,
      "hit": false,
      "t": 158564.5796875005,
      "d": 336.21382812497905,
      "v": 98
    },
    {
      "midi": 69,
      "hit": false,
      "t": 158835.22484375047,
      "d": 793.799453124986,
      "v": 62
    },
    {
      "midi": 65,
      "hit": false,
      "t": 159097.49953125048,
      "d": 1368.571640625014,
      "v": 98
    },
    {
      "midi": 77,
      "hit": false,
      "t": 159370.93484375047,
      "d": 336.21382812500815,
      "v": 89
    },
    {
      "midi": 72,
      "hit": false,
      "t": 159370.93484375047,
      "d": 414.3382031250221,
      "v": 91
    },
    {
      "midi": 53,
      "hit": false,
      "t": 159633.20953125047,
      "d": 202.28632812501746,
      "v": 50
    },
    {
      "midi": 69,
      "hit": false,
      "t": 159909.4350000005,
      "d": 118.58164062499418,
      "v": 39
    },
    {
      "midi": 53,
      "hit": false,
      "t": 160168.9195312505,
      "d": 777.0585156250163,
      "v": 77
    },
    {
      "midi": 69,
      "hit": false,
      "t": 160445.14500000048,
      "d": 311.10242187502445,
      "v": 91
    },
    {
      "midi": 77,
      "hit": false,
      "t": 160445.14500000048,
      "d": 325.0532031250186,
      "v": 94
    },
    {
      "midi": 72,
      "hit": false,
      "t": 160445.14500000048,
      "d": 327.8433593750233,
      "v": 91
    },
    {
      "midi": 69,
      "hit": false,
      "t": 160699.04921875024,
      "d": 1502.4991406250047,
      "v": 84
    },
    {
      "midi": 65,
      "hit": false,
      "t": 160704.62953125025,
      "d": 1499.708984375,
      "v": 87
    },
    {
      "midi": 60,
      "hit": false,
      "t": 160710.20984375026,
      "d": 1480.1778906249965,
      "v": 89
    },
    {
      "midi": 65,
      "hit": false,
      "t": 160713.0000000005,
      "d": 830.0714843750757,
      "v": 83
    },
    {
      "midi": 77,
      "hit": false,
      "t": 160983.6451562505,
      "d": 115.79148437501863,
      "v": 84
    },
    {
      "midi": 69,
      "hit": false,
      "t": 160986.43531250051,
      "d": 118.58164062502328,
      "v": 84
    },
    {
      "midi": 53,
      "hit": false,
      "t": 161248.71000000054,
      "d": 751.9471093750326,
      "v": 85
    },
    {
      "midi": 69,
      "hit": false,
      "t": 161251.50015625055,
      "d": 140.90289062500233,
      "v": 94
    },
    {
      "midi": 77,
      "hit": false,
      "t": 161251.50015625055,
      "d": 146.48320312501164,
      "v": 99
    },
    {
      "midi": 69,
      "hit": false,
      "t": 161516.56500000056,
      "d": 46.03757812501863,
      "v": 75
    },
    {
      "midi": 77,
      "hit": false,
      "t": 161522.14531250056,
      "d": 26.506484375015134,
      "v": 61
    },
    {
      "midi": 69,
      "hit": false,
      "t": 161647.70234375057,
      "d": 115.79148437498952,
      "v": 87
    },
    {
      "midi": 77,
      "hit": false,
      "t": 161647.70234375057,
      "d": 126.95210937497905,
      "v": 93
    },
    {
      "midi": 65,
      "hit": false,
      "t": 161784.42000000054,
      "d": 791.0092968750396,
      "v": 85
    },
    {
      "midi": 69,
      "hit": false,
      "t": 161912.76718750055,
      "d": 51.61789062502794,
      "v": 89
    },
    {
      "midi": 77,
      "hit": false,
      "t": 161915.55734375055,
      "d": 40.45726562500931,
      "v": 78
    },
    {
      "midi": 69,
      "hit": false,
      "t": 162043.9045312506,
      "d": 115.79148437498952,
      "v": 91
    },
    {
      "midi": 77,
      "hit": false,
      "t": 162043.9045312506,
      "d": 124.16195312500349,
      "v": 91
    },
    {
      "midi": 69,
      "hit": false,
      "t": 162308.9693750006,
      "d": 126.95210937497905,
      "v": 100
    },
    {
      "midi": 77,
      "hit": false,
      "t": 162308.9693750006,
      "d": 138.11273437496857,
      "v": 99
    },
    {
      "midi": 53,
      "hit": false,
      "t": 162308.9693750006,
      "d": 447.8200781249616,
      "v": 91
    },
    {
      "midi": 69,
      "hit": false,
      "t": 162582.4046875006,
      "d": 132.53242187498836,
      "v": 102
    },
    {
      "midi": 77,
      "hit": false,
      "t": 162582.4046875006,
      "d": 160.43398437497672,
      "v": 106
    },
    {
      "midi": 64,
      "hit": false,
      "t": 162855.84000000026,
      "d": 2546.017578125,
      "v": 102
    },
    {
      "midi": 67,
      "hit": false,
      "t": 162855.84000000026,
      "d": 2554.388046875014,
      "v": 91
    },
    {
      "midi": 60,
      "hit": false,
      "t": 162855.84000000026,
      "d": 2559.9683593750233,
      "v": 91
    },
    {
      "midi": 76,
      "hit": false,
      "t": 162855.84000000055,
      "d": 160.43398437500582,
      "v": 106
    },
    {
      "midi": 62,
      "hit": false,
      "t": 162855.84000000055,
      "d": 274.8303906250221,
      "v": 113
    },
    {
      "midi": 67,
      "hit": false,
      "t": 162855.84000000055,
      "d": 442.2397656250396,
      "v": 98
    },
    {
      "midi": 60,
      "hit": false,
      "t": 162855.84000000055,
      "d": 456.19054687503376,
      "v": 98
    },
    {
      "midi": 55,
      "hit": false,
      "t": 162855.84000000055,
      "d": 475.72164062503725,
      "v": 91
    },
    {
      "midi": 48,
      "hit": false,
      "t": 162855.84000000055,
      "d": 910.9860156250361,
      "v": 85
    },
    {
      "midi": 64,
      "hit": false,
      "t": 163123.69500000056,
      "d": 166.01429687501513,
      "v": 70
    },
    {
      "midi": 60,
      "hit": false,
      "t": 163397.13031250058,
      "d": 202.28632812498836,
      "v": 85
    },
    {
      "midi": 64,
      "hit": false,
      "t": 163397.13031250058,
      "d": 297.15164062500116,
      "v": 95
    },
    {
      "midi": 67,
      "hit": false,
      "t": 163397.13031250058,
      "d": 394.8071093750186,
      "v": 91
    },
    {
      "midi": 55,
      "hit": false,
      "t": 163397.13031250058,
      "d": 877.5041406250384,
      "v": 87
    },
    {
      "midi": 60,
      "hit": false,
      "t": 163664.98531250056,
      "d": 163.22414062503958,
      "v": 79
    },
    {
      "midi": 62,
      "hit": false,
      "t": 163930.0501562506,
      "d": 285.99101562501164,
      "v": 102
    },
    {
      "midi": 60,
      "hit": false,
      "t": 163930.0501562506,
      "d": 372.4858593750105,
      "v": 84
    },
    {
      "midi": 67,
      "hit": false,
      "t": 163930.0501562506,
      "d": 372.4858593750105,
      "v": 93
    },
    {
      "midi": 48,
      "hit": false,
      "t": 163932.8403125006,
      "d": 813.3305468749895,
      "v": 73
    },
    {
      "midi": 64,
      "hit": false,
      "t": 164195.1150000006,
      "d": 126.95210937500815,
      "v": 69
    },
    {
      "midi": 55,
      "hit": false,
      "t": 164457.3896875006,
      "d": 684.983359374979,
      "v": 81
    },
    {
      "midi": 60,
      "hit": false,
      "t": 164460.1798437506,
      "d": 157.64382812497206,
      "v": 83
    },
    {
      "midi": 64,
      "hit": false,
      "t": 164460.1798437506,
      "d": 274.830390624993,
      "v": 88
    },
    {
      "midi": 67,
      "hit": false,
      "t": 164460.1798437506,
      "d": 386.43664062497555,
      "v": 86
    },
    {
      "midi": 60,
      "hit": false,
      "t": 164728.0348437506,
      "d": 182.75523437498487,
      "v": 70
    },
    {
      "midi": 48,
      "hit": false,
      "t": 164995.88984375057,
      "d": 763.107734374993,
      "v": 87
    },
    {
      "midi": 62,
      "hit": false,
      "t": 164998.68000000058,
      "d": 274.8303906250221,
      "v": 94
    },
    {
      "midi": 60,
      "hit": false,
      "t": 164998.68000000058,
      "d": 392.01695312501397,
      "v": 85
    },
    {
      "midi": 67,
      "hit": false,
      "t": 165001.47015625058,
      "d": 355.74492187501164,
      "v": 92
    },
    {
      "midi": 64,
      "hit": false,
      "t": 165266.5350000006,
      "d": 126.95210937500815,
      "v": 83
    },
    {
      "midi": 60,
      "hit": false,
      "t": 165531.5998437506,
      "d": 166.01429687498603,
      "v": 76
    },
    {
      "midi": 64,
      "hit": false,
      "t": 165531.5998437506,
      "d": 252.50914062498487,
      "v": 83
    },
    {
      "midi": 67,
      "hit": false,
      "t": 165531.5998437506,
      "d": 366.90554687497206,
      "v": 84
    },
    {
      "midi": 55,
      "hit": false,
      "t": 165531.5998437506,
      "d": 1293.2374218749464,
      "v": 79
    },
    {
      "midi": 60,
      "hit": false,
      "t": 165799.45484375057,
      "d": 146.48320312498254,
      "v": 71
    },
    {
      "midi": 65,
      "hit": false,
      "t": 166053.35906250027,
      "d": 880.294296875014,
      "v": 93
    },
    {
      "midi": 58,
      "hit": false,
      "t": 166058.93937500028,
      "d": 902.615546874993,
      "v": 94
    },
    {
      "midi": 60,
      "hit": false,
      "t": 166058.93937500028,
      "d": 924.9367968750012,
      "v": 98
    },
    {
      "midi": 67,
      "hit": false,
      "t": 166067.30984375055,
      "d": 341.79414062498836,
      "v": 89
    },
    {
      "midi": 65,
      "hit": false,
      "t": 166067.30984375055,
      "d": 358.5350781249872,
      "v": 94
    },
    {
      "midi": 60,
      "hit": false,
      "t": 166067.30984375055,
      "d": 361.32523437499185,
      "v": 83
    },
    {
      "midi": 48,
      "hit": false,
      "t": 166067.30984375055,
      "d": 707.3046093749872,
      "v": 89
    },
    {
      "midi": 60,
      "hit": false,
      "t": 166603.01984375055,
      "d": 135.32257812499302,
      "v": 94
    },
    {
      "midi": 65,
      "hit": false,
      "t": 166605.81000000055,
      "d": 191.12570312499884,
      "v": 108
    },
    {
      "midi": 67,
      "hit": false,
      "t": 166605.81000000055,
      "d": 283.2008593749779,
      "v": 98
    },
    {
      "midi": 60,
      "hit": false,
      "t": 166870.87484375053,
      "d": 107.42101562500466,
      "v": 74
    },
    {
      "midi": 67,
      "hit": false,
      "t": 167124.77906250028,
      "d": 2105.172890624992,
      "v": 80
    },
    {
      "midi": 60,
      "hit": false,
      "t": 167124.77906250028,
      "d": 2116.3335156249814,
      "v": 85
    },
    {
      "midi": 64,
      "hit": false,
      "t": 167124.77906250028,
      "d": 2138.6547656249895,
      "v": 88
    },
    {
      "midi": 48,
      "hit": false,
      "t": 167138.72984375054,
      "d": 802.1699218750291,
      "v": 95
    },
    {
      "midi": 55,
      "hit": false,
      "t": 167138.72984375054,
      "d": 877.5041406250384,
      "v": 91
    },
    {
      "midi": 62,
      "hit": false,
      "t": 167141.52000000054,
      "d": 244.138671875,
      "v": 108
    },
    {
      "midi": 67,
      "hit": false,
      "t": 167141.52000000054,
      "d": 383.646484375,
      "v": 98
    },
    {
      "midi": 60,
      "hit": false,
      "t": 167141.52000000054,
      "d": 408.7578906250128,
      "v": 98
    },
    {
      "midi": 64,
      "hit": false,
      "t": 167406.58484375055,
      "d": 188.33554687499418,
      "v": 75
    },
    {
      "midi": 60,
      "hit": false,
      "t": 167680.02015625054,
      "d": 166.01429687501513,
      "v": 85
    },
    {
      "midi": 64,
      "hit": false,
      "t": 167680.02015625054,
      "d": 244.1386718750291,
      "v": 87
    },
    {
      "midi": 67,
      "hit": false,
      "t": 167680.02015625054,
      "d": 333.4236718750326,
      "v": 90
    },
    {
      "midi": 60,
      "hit": false,
      "t": 167945.08500000057,
      "d": 129.7422656250128,
      "v": 75
    },
    {
      "midi": 55,
      "hit": false,
      "t": 168212.94000000058,
      "d": 760.3175781249593,
      "v": 69
    },
    {
      "midi": 48,
      "hit": false,
      "t": 168212.94000000058,
      "d": 788.2191406249476,
      "v": 84
    },
    {
      "midi": 62,
      "hit": false,
      "t": 168215.7301562506,
      "d": 230.18789062497672,
      "v": 98
    },
    {
      "midi": 60,
      "hit": false,
      "t": 168215.7301562506,
      "d": 347.37445312496857,
      "v": 91
    },
    {
      "midi": 67,
      "hit": false,
      "t": 168215.7301562506,
      "d": 347.37445312496857,
      "v": 94
    },
    {
      "midi": 64,
      "hit": false,
      "t": 168475.21468750056,
      "d": 168.8044531249907,
      "v": 80
    },
    {
      "midi": 60,
      "hit": false,
      "t": 168745.85984375054,
      "d": 188.33554687499418,
      "v": 83
    },
    {
      "midi": 64,
      "hit": false,
      "t": 168745.85984375054,
      "d": 238.5583593749907,
      "v": 92
    },
    {
      "midi": 67,
      "hit": false,
      "t": 168745.85984375054,
      "d": 330.63351562496973,
      "v": 91
    },
    {
      "midi": 60,
      "hit": false,
      "t": 169010.92468750052,
      "d": 118.58164062499418,
      "v": 79
    },
    {
      "midi": 60,
      "hit": false,
      "t": 169278.77968750053,
      "d": 380.85632812502445,
      "v": 96
    },
    {
      "midi": 62,
      "hit": false,
      "t": 169281.56984375053,
      "d": 241.34851562499534,
      "v": 107
    },
    {
      "midi": 67,
      "hit": false,
      "t": 169281.56984375053,
      "d": 369.6957031250058,
      "v": 98
    },
    {
      "midi": 55,
      "hit": false,
      "t": 169281.56984375053,
      "d": 729.6258593750244,
      "v": 95
    },
    {
      "midi": 48,
      "hit": false,
      "t": 169281.56984375053,
      "d": 740.786484375014,
      "v": 94
    },
    {
      "midi": 64,
      "hit": false,
      "t": 169543.84453125054,
      "d": 166.01429687501513,
      "v": 81
    },
    {
      "midi": 60,
      "hit": false,
      "t": 169817.27984375056,
      "d": 138.11273437499767,
      "v": 87
    },
    {
      "midi": 64,
      "hit": false,
      "t": 169817.27984375056,
      "d": 235.76820312498603,
      "v": 87
    },
    {
      "midi": 67,
      "hit": false,
      "t": 169817.27984375056,
      "d": 308.3122656249907,
      "v": 89
    },
    {
      "midi": 60,
      "hit": false,
      "t": 170082.34468750053,
      "d": 104.630859375,
      "v": 77
    },
    {
      "midi": 65,
      "hit": false,
      "t": 170336.24890625026,
      "d": 386.43664062500466,
      "v": 89
    },
    {
      "midi": 60,
      "hit": false,
      "t": 170336.24890625026,
      "d": 389.2267968750093,
      "v": 95
    },
    {
      "midi": 58,
      "hit": false,
      "t": 170336.24890625026,
      "d": 392.01695312501397,
      "v": 83
    },
    {
      "midi": 65,
      "hit": false,
      "t": 170352.98984375052,
      "d": 269.2500781250128,
      "v": 106
    },
    {
      "midi": 67,
      "hit": false,
      "t": 170352.98984375052,
      "d": 274.8303906250221,
      "v": 95
    },
    {
      "midi": 60,
      "hit": false,
      "t": 170352.98984375052,
      "d": 288.7811718750163,
      "v": 98
    },
    {
      "midi": 55,
      "hit": false,
      "t": 170352.98984375052,
      "d": 559.4263281250023,
      "v": 89
    },
    {
      "midi": 48,
      "hit": false,
      "t": 170352.98984375052,
      "d": 595.6983593750047,
      "v": 90
    },
    {
      "midi": 65,
      "hit": false,
      "t": 170885.90968750053,
      "d": 65.56867187499302,
      "v": 110
    },
    {
      "midi": 60,
      "hit": false,
      "t": 170885.90968750053,
      "d": 68.35882812499767,
      "v": 103
    },
    {
      "midi": 67,
      "hit": false,
      "t": 170885.90968750053,
      "d": 82.30960937499185,
      "v": 98
    },
    {
      "midi": 58,
      "hit": false,
      "t": 170916.60140625027,
      "d": 288.7811718749872,
      "v": 78
    },
    {
      "midi": 60,
      "hit": false,
      "t": 170916.60140625027,
      "d": 380.85632812499534,
      "v": 89
    },
    {
      "midi": 65,
      "hit": false,
      "t": 170916.60140625027,
      "d": 386.43664062500466,
      "v": 91
    },
    {
      "midi": 46,
      "hit": false,
      "t": 171257.0004687505,
      "d": 1611.3152343749825,
      "v": 66
    },
    {
      "midi": 58,
      "hit": false,
      "t": 171329.54453125052,
      "d": 531.524765625014,
      "v": 99
    },
    {
      "midi": 62,
      "hit": false,
      "t": 171402.08859375052,
      "d": 213.44695312500698,
      "v": 102
    },
    {
      "midi": 70,
      "hit": false,
      "t": 171404.87875000053,
      "d": 330.63351562499884,
      "v": 113
    },
    {
      "midi": 65,
      "hit": false,
      "t": 171404.87875000053,
      "d": 344.584296874993,
      "v": 107
    },
    {
      "midi": 65,
      "hit": false,
      "t": 171435.57046875026,
      "d": 1382.5224218750081,
      "v": 89
    },
    {
      "midi": 62,
      "hit": false,
      "t": 171441.15078125027,
      "d": 1365.7814843750093,
      "v": 98
    },
    {
      "midi": 58,
      "hit": false,
      "t": 171441.15078125027,
      "d": 1382.5224218750081,
      "v": 97
    },
    {
      "midi": 62,
      "hit": false,
      "t": 171962.91000000053,
      "d": 115.79148437498952,
      "v": 92
    },
    {
      "midi": 58,
      "hit": false,
      "t": 172225.18468750053,
      "d": 1005.8513281249616,
      "v": 97
    },
    {
      "midi": 70,
      "hit": false,
      "t": 172495.82984375051,
      "d": 168.8044531249907,
      "v": 92
    },
    {
      "midi": 62,
      "hit": false,
      "t": 172495.82984375051,
      "d": 182.75523437498487,
      "v": 100
    },
    {
      "midi": 65,
      "hit": false,
      "t": 172495.82984375051,
      "d": 185.54539062498952,
      "v": 98
    },
    {
      "midi": 65,
      "hit": false,
      "t": 172766.4750000005,
      "d": 389.2267968750093,
      "v": 79
    },
    {
      "midi": 70,
      "hit": false,
      "t": 172766.4750000005,
      "d": 403.1775781250035,
      "v": 85
    },
    {
      "midi": 62,
      "hit": false,
      "t": 172769.2651562505,
      "d": 344.584296874993,
      "v": 76
    },
    {
      "midi": 46,
      "hit": false,
      "t": 173037.1201562505,
      "d": 205.07648437499302,
      "v": 94
    },
    {
      "midi": 62,
      "hit": false,
      "t": 173299.3948437505,
      "d": 171.59460937499534,
      "v": 94
    },
    {
      "midi": 67,
      "hit": false,
      "t": 173556.08921875028,
      "d": 1541.5613281250116,
      "v": 94
    },
    {
      "midi": 60,
      "hit": false,
      "t": 173556.08921875028,
      "d": 1547.141640625021,
      "v": 94
    },
    {
      "midi": 62,
      "hit": false,
      "t": 173556.08921875028,
      "d": 1566.6727343750244,
      "v": 108
    },
    {
      "midi": 43,
      "hit": false,
      "t": 173567.24984375047,
      "d": 327.8433593749942,
      "v": 87
    },
    {
      "midi": 62,
      "hit": false,
      "t": 173570.04000000047,
      "d": 143.69304687497788,
      "v": 87
    },
    {
      "midi": 72,
      "hit": false,
      "t": 173570.04000000047,
      "d": 269.2500781249837,
      "v": 85
    },
    {
      "midi": 67,
      "hit": false,
      "t": 173570.04000000047,
      "d": 308.3122656249907,
      "v": 87
    },
    {
      "midi": 55,
      "hit": false,
      "t": 173570.04000000047,
      "d": 972.369453124993,
      "v": 101
    },
    {
      "midi": 62,
      "hit": false,
      "t": 173840.68515625046,
      "d": 210.65679687500233,
      "v": 69
    },
    {
      "midi": 43,
      "hit": false,
      "t": 174100.16968750046,
      "d": 1237.434296875028,
      "v": 85
    },
    {
      "midi": 62,
      "hit": false,
      "t": 174373.60500000045,
      "d": 146.48320312501164,
      "v": 101
    },
    {
      "midi": 72,
      "hit": false,
      "t": 174373.60500000045,
      "d": 274.8303906250221,
      "v": 100
    },
    {
      "midi": 67,
      "hit": false,
      "t": 174373.60500000045,
      "d": 372.4858593750105,
      "v": 110
    },
    {
      "midi": 62,
      "hit": false,
      "t": 174644.25015625046,
      "d": 177.17492187500466,
      "v": 65
    },
    {
      "midi": 55,
      "hit": false,
      "t": 174909.31500000047,
      "d": 392.01695312501397,
      "v": 99
    },
    {
      "midi": 62,
      "hit": false,
      "t": 175174.37984375047,
      "d": 107.42101562500466,
      "v": 105
    },
    {
      "midi": 67,
      "hit": false,
      "t": 175174.37984375047,
      "d": 224.6075781249965,
      "v": 112
    },
    {
      "midi": 72,
      "hit": false,
      "t": 175174.37984375047,
      "d": 291.57132812502095,
      "v": 102
    },
    {
      "midi": 62,
      "hit": false,
      "t": 175442.23484375048,
      "d": 90.68007812500582,
      "v": 77
    },
    {
      "midi": 65,
      "hit": false,
      "t": 175701.7193750003,
      "d": 2040.9992968750012,
      "v": 94
    },
    {
      "midi": 57,
      "hit": false,
      "t": 175707.29968750032,
      "d": 1990.7764843750047,
      "v": 98
    },
    {
      "midi": 60,
      "hit": false,
      "t": 175707.29968750032,
      "d": 2038.2091406249965,
      "v": 102
    },
    {
      "midi": 53,
      "hit": false,
      "t": 175712.8800000005,
      "d": 308.3122656250198,
      "v": 109
    },
    {
      "midi": 41,
      "hit": false,
      "t": 175712.8800000005,
      "d": 830.0714843750175,
      "v": 89
    },
    {
      "midi": 60,
      "hit": false,
      "t": 175715.6701562505,
      "d": 132.53242187498836,
      "v": 107
    },
    {
      "midi": 65,
      "hit": false,
      "t": 175715.6701562505,
      "d": 249.7189843750093,
      "v": 107
    },
    {
      "midi": 69,
      "hit": false,
      "t": 175715.6701562505,
      "d": 283.200859375007,
      "v": 110
    },
    {
      "midi": 60,
      "hit": false,
      "t": 175980.7350000005,
      "d": 79.5194531250163,
      "v": 74
    },
    {
      "midi": 53,
      "hit": false,
      "t": 176245.79984375052,
      "d": 1136.9886718750058,
      "v": 100
    },
    {
      "midi": 67,
      "hit": false,
      "t": 176510.86468750052,
      "d": 238.5583593749907,
      "v": 112
    },
    {
      "midi": 72,
      "hit": false,
      "t": 176510.86468750052,
      "d": 378.0661718749907,
      "v": 98
    },
    {
      "midi": 69,
      "hit": false,
      "t": 176781.5098437505,
      "d": 107.42101562500466,
      "v": 96
    },
    {
      "midi": 41,
      "hit": false,
      "t": 177046.5746875005,
      "d": 846.8124218750454,
      "v": 85
    },
    {
      "midi": 65,
      "hit": false,
      "t": 177314.42968750052,
      "d": 146.48320312501164,
      "v": 89
    },
    {
      "midi": 72,
      "hit": false,
      "t": 177314.42968750052,
      "d": 149.2733593750163,
      "v": 94
    },
    {
      "midi": 53,
      "hit": false,
      "t": 177585.07484375054,
      "d": 715.6750781250012,
      "v": 89
    },
    {
      "midi": 69,
      "hit": false,
      "t": 177841.7692187503,
      "d": 1502.4991406250047,
      "v": 84
    },
    {
      "midi": 65,
      "hit": false,
      "t": 177847.3495312503,
      "d": 1499.708984375,
      "v": 87
    },
    {
      "midi": 65,
      "hit": false,
      "t": 177850.13968750054,
      "d": 76.72929687501164,
      "v": 82
    },
    {
      "midi": 72,
      "hit": false,
      "t": 177850.13968750054,
      "d": 93.47023437501048,
      "v": 96
    },
    {
      "midi": 77,
      "hit": false,
      "t": 177850.13968750054,
      "d": 124.16195312500349,
      "v": 89
    },
    {
      "midi": 60,
      "hit": false,
      "t": 177852.92984375032,
      "d": 1480.1778906249965,
      "v": 89
    },
    {
      "midi": 41,
      "hit": false,
      "t": 178123.57500000054,
      "d": 855.1828906250303,
      "v": 89
    },
    {
      "midi": 77,
      "hit": false,
      "t": 178388.63984375054,
      "d": 422.708671875007,
      "v": 91
    },
    {
      "midi": 53,
      "hit": false,
      "t": 178656.49484375055,
      "d": 955.6285156250233,
      "v": 108
    },
    {
      "midi": 77,
      "hit": false,
      "t": 178924.34984375056,
      "d": 333.4236718750035,
      "v": 72
    },
    {
      "midi": 89,
      "hit": false,
      "t": 178924.34984375056,
      "d": 774.2683593750116,
      "v": 98
    },
    {
      "midi": 84,
      "hit": false,
      "t": 179189.41468750057,
      "d": 528.7346093750093,
      "v": 87
    },
    {
      "midi": 41,
      "hit": false,
      "t": 179454.47953125057,
      "d": 274.8303906250221,
      "v": 80
    },
    {
      "midi": 81,
      "hit": false,
      "t": 179460.05984375058,
      "d": 244.138671875,
      "v": 76
    },
    {
      "midi": 48,
      "hit": false,
      "t": 180006.9304687503,
      "d": 2866.8855468750116,
      "v": 87
    },
    {
      "midi": 60,
      "hit": false,
      "t": 180009.7206250006,
      "d": 2292.113359375042,
      "v": 100
    },
    {
      "midi": 48,
      "hit": false,
      "t": 180009.7206250006,
      "d": 2300.483828125056,
      "v": 95
    },
    {
      "midi": 67,
      "hit": false,
      "t": 180012.5107812506,
      "d": 2283.742890625028,
      "v": 94
    },
    {
      "midi": 72,
      "hit": false,
      "t": 180015.3009375006,
      "d": 2289.3232031250373,
      "v": 96
    },
    {
      "midi": 60,
      "hit": false,
      "t": 180018.0910937503,
      "d": 2691.1057031250093,
      "v": 99
    },
    {
      "midi": 64,
      "hit": false,
      "t": 180020.8812500003,
      "d": 2688.3155468750047,
      "v": 100
    },
    {
      "midi": 64,
      "hit": false,
      "t": 180020.88125000062,
      "d": 2272.5822656250093,
      "v": 94
    },
    {
      "midi": 67,
      "hit": false,
      "t": 180023.6714062503,
      "d": 2702.266328124999,
      "v": 99
    }
  ]
}