{
  "jsonPath": "Soundtracks/Video Game Music/Super Smash Bros/super-smash-bros-melee-hyruletemple.json",
  "path": "Soundtracks\\Video Game Music\\Super Smash Bros\\Super_Smash_Bros_Melee_HyruleTemple.mid",
  "name": "Super_Smash_Bros_Melee_HyruleTemple",
  "difficulty": "Advanced",
  "bpm": 145.00003625000906,
  "notes": [
    {
      "midi": 74,
      "hit": false,
      "t": 0,
      "d": 206.8965,
      "v": 100
    },
    {
      "midi": 70,
      "hit": false,
      "t": 206.8965,
      "d": 206.8965,
      "v": 100
    },
    {
      "midi": 67,
      "hit": false,
      "t": 413.793,
      "d": 206.89649999999995,
      "v": 100
    },
    {
      "midi": 74,
      "hit": false,
      "t": 620.6895,
      "d": 206.89650000000006,
      "v": 100
    },
    {
      "midi": 70,
      "hit": false,
      "t": 827.586,
      "d": 206.89650000000006,
      "v": 100
    },
    {
      "midi": 67,
      "hit": false,
      "t": 1034.4825,
      "d": 206.89650000000006,
      "v": 100
    },
    {
      "midi": 74,
      "hit": false,
      "t": 1241.3790000000001,
      "d": 206.89650000000006,
      "v": 100
    },
    {
      "midi": 70,
      "hit": false,
      "t": 1448.2755000000002,
      "d": 206.89650000000006,
      "v": 100
    },
    {
      "midi": 75,
      "hit": false,
      "t": 1655.1720000000003,
      "d": 206.89650000000006,
      "v": 100
    },
    {
      "midi": 70,
      "hit": false,
      "t": 1862.0685000000003,
      "d": 206.89649999999983,
      "v": 100
    },
    {
      "midi": 67,
      "hit": false,
      "t": 2068.965,
      "d": 206.89649999999983,
      "v": 100
    },
    {
      "midi": 75,
      "hit": false,
      "t": 2275.8615,
      "d": 206.89649999999983,
      "v": 100
    },
    {
      "midi": 70,
      "hit": false,
      "t": 2482.758,
      "d": 206.89649999999983,
      "v": 100
    },
    {
      "midi": 67,
      "hit": false,
      "t": 2689.6544999999996,
      "d": 206.89649999999983,
      "v": 100
    },
    {
      "midi": 75,
      "hit": false,
      "t": 2896.5509999999995,
      "d": 206.89649999999983,
      "v": 100
    },
    {
      "midi": 70,
      "hit": false,
      "t": 3103.4474999999993,
      "d": 206.89649999999983,
      "v": 100
    },
    {
      "midi": 76,
      "hit": false,
      "t": 3310.343999999999,
      "d": 206.89649999999983,
      "v": 100
    },
    {
      "midi": 70,
      "hit": false,
      "t": 3517.240499999999,
      "d": 206.89649999999983,
      "v": 100
    },
    {
      "midi": 67,
      "hit": false,
      "t": 3724.136999999999,
      "d": 206.89649999999983,
      "v": 100
    },
    {
      "midi": 76,
      "hit": false,
      "t": 3931.0334999999986,
      "d": 206.89649999999983,
      "v": 100
    },
    {
      "midi": 70,
      "hit": false,
      "t": 4137.9299999999985,
      "d": 206.89649999999983,
      "v": 100
    },
    {
      "midi": 67,
      "hit": false,
      "t": 4344.826499999998,
      "d": 206.89649999999983,
      "v": 100
    },
    {
      "midi": 76,
      "hit": false,
      "t": 4551.722999999998,
      "d": 206.89649999999983,
      "v": 100
    },
    {
      "midi": 70,
      "hit": false,
      "t": 4758.619499999998,
      "d": 206.89649999999983,
      "v": 100
    },
    {
      "midi": 75,
      "hit": false,
      "t": 4965.515999999998,
      "d": 206.89649999999983,
      "v": 100
    },
    {
      "midi": 70,
      "hit": false,
      "t": 5172.412499999998,
      "d": 206.89649999999983,
      "v": 100
    },
    {
      "midi": 67,
      "hit": false,
      "t": 5379.3089999999975,
      "d": 206.89649999999983,
      "v": 100
    },
    {
      "midi": 75,
      "hit": false,
      "t": 5586.205499999997,
      "d": 206.89649999999983,
      "v": 100
    },
    {
      "midi": 70,
      "hit": false,
      "t": 5793.101999999997,
      "d": 206.89649999999983,
      "v": 100
    },
    {
      "midi": 67,
      "hit": false,
      "t": 5999.998499999997,
      "d": 206.89649999999983,
      "v": 100
    },
    {
      "midi": 75,
      "hit": false,
      "t": 6206.894999999997,
      "d": 206.89649999999983,
      "v": 100
    },
    {
      "midi": 70,
      "hit": false,
      "t": 6413.791499999997,
      "d": 206.89649999999983,
      "v": 100
    },
    {
      "midi": 74,
      "hit": false,
      "t": 6620.6879999999965,
      "d": 620.6894999999995,
      "v": 100
    },
    {
      "midi": 70,
      "hit": false,
      "t": 6827.584499999996,
      "d": 620.6894999999995,
      "v": 100
    },
    {
      "midi": 67,
      "hit": false,
      "t": 7034.480999999996,
      "d": 620.6894999999995,
      "v": 100
    },
    {
      "midi": 74,
      "hit": false,
      "t": 7241.377499999996,
      "d": 620.6894999999995,
      "v": 100
    },
    {
      "midi": 70,
      "hit": false,
      "t": 7448.273999999996,
      "d": 620.6894999999995,
      "v": 100
    },
    {
      "midi": 67,
      "hit": false,
      "t": 7655.170499999996,
      "d": 1034.482500000001,
      "v": 100
    },
    {
      "midi": 74,
      "hit": false,
      "t": 7862.0669999999955,
      "d": 2068.9650000000056,
      "v": 100
    },
    {
      "midi": 70,
      "hit": false,
      "t": 8068.963499999995,
      "d": 413.7930000000006,
      "v": 100
    },
    {
      "midi": 75,
      "hit": false,
      "t": 8275.859999999995,
      "d": 620.6895000000022,
      "v": 100
    },
    {
      "midi": 70,
      "hit": false,
      "t": 8482.756499999996,
      "d": 620.6895000000022,
      "v": 100
    },
    {
      "midi": 67,
      "hit": false,
      "t": 8689.652999999997,
      "d": 620.6895000000022,
      "v": 100
    },
    {
      "midi": 75,
      "hit": false,
      "t": 8896.549499999997,
      "d": 620.6895000000022,
      "v": 100
    },
    {
      "midi": 70,
      "hit": false,
      "t": 9103.445999999998,
      "d": 620.6895000000022,
      "v": 100
    },
    {
      "midi": 67,
      "hit": false,
      "t": 9310.342499999999,
      "d": 1034.4825000000037,
      "v": 100
    },
    {
      "midi": 75,
      "hit": false,
      "t": 9517.239,
      "d": 2068.9650000000074,
      "v": 100
    },
    {
      "midi": 70,
      "hit": false,
      "t": 9724.1355,
      "d": 413.7930000000015,
      "v": 100
    },
    {
      "midi": 76,
      "hit": false,
      "t": 9931.032000000001,
      "d": 620.6895000000022,
      "v": 100
    },
    {
      "midi": 70,
      "hit": false,
      "t": 10137.928500000002,
      "d": 620.6895000000022,
      "v": 100
    },
    {
      "midi": 67,
      "hit": false,
      "t": 10344.825000000003,
      "d": 620.6895000000022,
      "v": 100
    },
    {
      "midi": 76,
      "hit": false,
      "t": 10551.721500000003,
      "d": 620.6895000000022,
      "v": 100
    },
    {
      "midi": 70,
      "hit": false,
      "t": 10758.618000000004,
      "d": 615.5170875000022,
      "v": 100
    },
    {
      "midi": 67,
      "hit": false,
      "t": 10965.514500000005,
      "d": 1034.4825000000037,
      "v": 100
    },
    {
      "midi": 76,
      "hit": false,
      "t": 11172.411000000006,
      "d": 2068.9650000000074,
      "v": 100
    },
    {
      "midi": 70,
      "hit": false,
      "t": 11379.307500000006,
      "d": 413.7930000000015,
      "v": 100
    },
    {
      "midi": 75,
      "hit": false,
      "t": 11586.204000000007,
      "d": 620.6895000000022,
      "v": 100
    },
    {
      "midi": 70,
      "hit": false,
      "t": 11793.100500000008,
      "d": 620.6895000000022,
      "v": 100
    },
    {
      "midi": 67,
      "hit": false,
      "t": 11999.997000000008,
      "d": 620.6895000000022,
      "v": 100
    },
    {
      "midi": 75,
      "hit": false,
      "t": 12206.89350000001,
      "d": 620.6895000000022,
      "v": 100
    },
    {
      "midi": 70,
      "hit": false,
      "t": 12413.79000000001,
      "d": 620.6895000000022,
      "v": 100
    },
    {
      "midi": 67,
      "hit": false,
      "t": 12620.68650000001,
      "d": 1034.4825000000037,
      "v": 100
    },
    {
      "midi": 75,
      "hit": false,
      "t": 12827.583000000011,
      "d": 2068.9650000000074,
      "v": 100
    },
    {
      "midi": 70,
      "hit": false,
      "t": 13034.479500000012,
      "d": 413.7930000000015,
      "v": 100
    },
    {
      "midi": 58,
      "hit": false,
      "t": 13241.376,
      "d": 1655.1720000000005,
      "v": 100
    },
    {
      "midi": 62,
      "hit": false,
      "t": 13241.376,
      "d": 1655.1720000000005,
      "v": 100
    },
    {
      "midi": 55,
      "hit": false,
      "t": 13241.376,
      "d": 1655.1720000000005,
      "v": 100
    },
    {
      "midi": 74,
      "hit": false,
      "t": 13241.376000000013,
      "d": 620.6895000000022,
      "v": 100
    },
    {
      "midi": 70,
      "hit": false,
      "t": 13448.272500000014,
      "d": 620.6895000000022,
      "v": 100
    },
    {
      "midi": 67,
      "hit": false,
      "t": 13655.169000000014,
      "d": 620.6895000000022,
      "v": 100
    },
    {
      "midi": 74,
      "hit": false,
      "t": 13862.065500000015,
      "d": 620.6895000000022,
      "v": 100
    },
    {
      "midi": 70,
      "hit": false,
      "t": 14068.962000000016,
      "d": 620.6895000000022,
      "v": 100
    },
    {
      "midi": 67,
      "hit": false,
      "t": 14275.858500000017,
      "d": 1034.4825000000037,
      "v": 100
    },
    {
      "midi": 74,
      "hit": false,
      "t": 14482.755000000017,
      "d": 2068.9650000000056,
      "v": 100
    },
    {
      "midi": 70,
      "hit": false,
      "t": 14689.651500000018,
      "d": 413.7930000000015,
      "v": 100
    },
    {
      "midi": 63,
      "hit": false,
      "t": 14896.548,
      "d": 1655.1720000000005,
      "v": 100
    },
    {
      "midi": 58,
      "hit": false,
      "t": 14896.548,
      "d": 1655.1720000000005,
      "v": 100
    },
    {
      "midi": 55,
      "hit": false,
      "t": 14896.548,
      "d": 1655.1720000000005,
      "v": 100
    },
    {
      "midi": 75,
      "hit": false,
      "t": 14896.548000000019,
      "d": 620.6895000000022,
      "v": 100
    },
    {
      "midi": 70,
      "hit": false,
      "t": 15103.44450000002,
      "d": 620.6895000000022,
      "v": 100
    },
    {
      "midi": 67,
      "hit": false,
      "t": 15310.34100000002,
      "d": 620.6895000000022,
      "v": 100
    },
    {
      "midi": 75,
      "hit": false,
      "t": 15517.237500000021,
      "d": 620.6895000000022,
      "v": 100
    },
    {
      "midi": 70,
      "hit": false,
      "t": 15724.134000000022,
      "d": 620.6895000000022,
      "v": 100
    },
    {
      "midi": 67,
      "hit": false,
      "t": 15931.030500000023,
      "d": 1034.4824999999983,
      "v": 100
    },
    {
      "midi": 75,
      "hit": false,
      "t": 16137.927000000023,
      "d": 2068.964999999991,
      "v": 100
    },
    {
      "midi": 70,
      "hit": false,
      "t": 16344.823500000024,
      "d": 413.79299999999785,
      "v": 100
    },
    {
      "midi": 64,
      "hit": false,
      "t": 16551.72,
      "d": 1655.1719999999987,
      "v": 100
    },
    {
      "midi": 58,
      "hit": false,
      "t": 16551.72,
      "d": 1655.1719999999987,
      "v": 100
    },
    {
      "midi": 55,
      "hit": false,
      "t": 16551.72,
      "d": 1655.1719999999987,
      "v": 100
    },
    {
      "midi": 76,
      "hit": false,
      "t": 16551.720000000023,
      "d": 620.6894999999968,
      "v": 100
    },
    {
      "midi": 70,
      "hit": false,
      "t": 16758.616500000022,
      "d": 620.6894999999968,
      "v": 100
    },
    {
      "midi": 67,
      "hit": false,
      "t": 16965.51300000002,
      "d": 620.6894999999968,
      "v": 100
    },
    {
      "midi": 76,
      "hit": false,
      "t": 17172.40950000002,
      "d": 620.6894999999968,
      "v": 100
    },
    {
      "midi": 70,
      "hit": false,
      "t": 17379.30600000002,
      "d": 615.5170874999967,
      "v": 100
    },
    {
      "midi": 67,
      "hit": false,
      "t": 17586.202500000018,
      "d": 1034.4824999999946,
      "v": 100
    },
    {
      "midi": 76,
      "hit": false,
      "t": 17793.099000000017,
      "d": 2068.9649999999892,
      "v": 100
    },
    {
      "midi": 70,
      "hit": false,
      "t": 17999.995500000015,
      "d": 413.79299999999785,
      "v": 100
    },
    {
      "midi": 63,
      "hit": false,
      "t": 18206.892,
      "d": 1655.1719999999987,
      "v": 100
    },
    {
      "midi": 58,
      "hit": false,
      "t": 18206.892,
      "d": 1655.1719999999987,
      "v": 100
    },
    {
      "midi": 55,
      "hit": false,
      "t": 18206.892,
      "d": 1655.1719999999987,
      "v": 100
    },
    {
      "midi": 75,
      "hit": false,
      "t": 18206.892000000014,
      "d": 620.6894999999968,
      "v": 100
    },
    {
      "midi": 70,
      "hit": false,
      "t": 18413.788500000013,
      "d": 620.6894999999968,
      "v": 100
    },
    {
      "midi": 67,
      "hit": false,
      "t": 18620.685000000012,
      "d": 620.6894999999968,
      "v": 100
    },
    {
      "midi": 75,
      "hit": false,
      "t": 18827.58150000001,
      "d": 620.6894999999968,
      "v": 100
    },
    {
      "midi": 70,
      "hit": false,
      "t": 19034.47800000001,
      "d": 620.6894999999968,
      "v": 100
    },
    {
      "midi": 67,
      "hit": false,
      "t": 19241.37450000001,
      "d": 620.6894999999968,
      "v": 100
    },
    {
      "midi": 75,
      "hit": false,
      "t": 19448.271000000008,
      "d": 408.6205874999978,
      "v": 100
    },
    {
      "midi": 70,
      "hit": false,
      "t": 19655.167500000007,
      "d": 206.89649999999892,
      "v": 100
    },
    {
      "midi": 55,
      "hit": false,
      "t": 19862.064,
      "d": 206.89649999999892,
      "v": 100
    },
    {
      "midi": 62,
      "hit": false,
      "t": 19862.064,
      "d": 206.89649999999892,
      "v": 100
    },
    {
      "midi": 67,
      "hit": false,
      "t": 19862.064000000006,
      "d": 206.89649999999892,
      "v": 100
    },
    {
      "midi": 74,
      "hit": false,
      "t": 19862.064000000006,
      "d": 206.89649999999892,
      "v": 100
    },
    {
      "midi": 62,
      "hit": false,
      "t": 20068.960499999997,
      "d": 103.44825000000128,
      "v": 100
    },
    {
      "midi": 55,
      "hit": false,
      "t": 20068.960499999997,
      "d": 103.44825000000128,
      "v": 100
    },
    {
      "midi": 67,
      "hit": false,
      "t": 20068.960500000005,
      "d": 103.44825000000128,
      "v": 100
    },
    {
      "midi": 74,
      "hit": false,
      "t": 20068.960500000005,
      "d": 103.44825000000128,
      "v": 100
    },
    {
      "midi": 62,
      "hit": false,
      "t": 20482.7535,
      "d": 413.7930000000015,
      "v": 100
    },
    {
      "midi": 55,
      "hit": false,
      "t": 20482.7535,
      "d": 413.7930000000015,
      "v": 100
    },
    {
      "midi": 67,
      "hit": false,
      "t": 20482.753500000006,
      "d": 413.7930000000015,
      "v": 100
    },
    {
      "midi": 74,
      "hit": false,
      "t": 20482.753500000006,
      "d": 413.7930000000015,
      "v": 100
    },
    {
      "midi": 62,
      "hit": false,
      "t": 20896.5465,
      "d": 413.7930000000015,
      "v": 100
    },
    {
      "midi": 55,
      "hit": false,
      "t": 20896.5465,
      "d": 413.7930000000015,
      "v": 100
    },
    {
      "midi": 67,
      "hit": false,
      "t": 20896.546500000008,
      "d": 413.7930000000015,
      "v": 100
    },
    {
      "midi": 74,
      "hit": false,
      "t": 20896.546500000008,
      "d": 413.7930000000015,
      "v": 100
    },
    {
      "midi": 62,
      "hit": false,
      "t": 21310.339500000002,
      "d": 206.89649999999892,
      "v": 100
    },
    {
      "midi": 55,
      "hit": false,
      "t": 21310.339500000002,
      "d": 206.89649999999892,
      "v": 100
    },
    {
      "midi": 67,
      "hit": false,
      "t": 21310.33950000001,
      "d": 206.89649999999892,
      "v": 100
    },
    {
      "midi": 74,
      "hit": false,
      "t": 21310.33950000001,
      "d": 206.89649999999892,
      "v": 100
    },
    {
      "midi": 65,
      "hit": false,
      "t": 21517.236,
      "d": 1655.1720000000023,
      "v": 100
    },
    {
      "midi": 70,
      "hit": false,
      "t": 21517.236000000008,
      "d": 4965.516000000003,
      "v": 100
    },
    {
      "midi": 64,
      "hit": false,
      "t": 22137.9255,
      "d": 1034.482500000002,
      "v": 100
    },
    {
      "midi": 69,
      "hit": false,
      "t": 22137.92550000001,
      "d": 4344.826500000003,
      "v": 100
    },
    {
      "midi": 63,
      "hit": false,
      "t": 22758.615,
      "d": 413.7930000000015,
      "v": 100
    },
    {
      "midi": 68,
      "hit": false,
      "t": 22758.61500000001,
      "d": 3724.1370000000024,
      "v": 100
    },
    {
      "midi": 62,
      "hit": false,
      "t": 23172.408000000003,
      "d": 620.6894999999968,
      "v": 100
    },
    {
      "midi": 67,
      "hit": false,
      "t": 23172.40800000001,
      "d": 3310.344000000001,
      "v": 100
    },
    {
      "midi": 58,
      "hit": false,
      "t": 23379.304500000002,
      "d": 620.6894999999968,
      "v": 100
    },
    {
      "midi": 55,
      "hit": false,
      "t": 23586.201,
      "d": 620.6894999999968,
      "v": 100
    },
    {
      "midi": 62,
      "hit": false,
      "t": 23793.0975,
      "d": 620.6894999999968,
      "v": 100
    },
    {
      "midi": 58,
      "hit": false,
      "t": 23999.994,
      "d": 620.6894999999968,
      "v": 100
    },
    {
      "midi": 55,
      "hit": false,
      "t": 24206.890499999998,
      "d": 1034.4824999999946,
      "v": 100
    },
    {
      "midi": 58,
      "hit": false,
      "t": 24620.683499999996,
      "d": 413.79299999999785,
      "v": 100
    },
    {
      "midi": 62,
      "hit": false,
      "t": 24827.579999999994,
      "d": 620.6894999999968,
      "v": 100
    },
    {
      "midi": 58,
      "hit": false,
      "t": 25034.476499999993,
      "d": 620.6894999999968,
      "v": 100
    },
    {
      "midi": 55,
      "hit": false,
      "t": 25241.372999999992,
      "d": 620.6894999999968,
      "v": 100
    },
    {
      "midi": 62,
      "hit": false,
      "t": 25448.26949999999,
      "d": 620.6894999999968,
      "v": 100
    },
    {
      "midi": 58,
      "hit": false,
      "t": 25655.16599999999,
      "d": 620.6894999999968,
      "v": 100
    },
    {
      "midi": 55,
      "hit": false,
      "t": 25862.06249999999,
      "d": 1034.4824999999946,
      "v": 100
    },
    {
      "midi": 62,
      "hit": false,
      "t": 26068.958999999988,
      "d": 413.79299999999785,
      "v": 100
    },
    {
      "midi": 58,
      "hit": false,
      "t": 26275.855499999987,
      "d": 413.79299999999785,
      "v": 100
    },
    {
      "midi": 62,
      "hit": false,
      "t": 26482.751999999986,
      "d": 620.6894999999968,
      "v": 100
    },
    {
      "midi": 43,
      "hit": false,
      "t": 26482.751999999986,
      "d": 620.6894999999968,
      "v": 100
    },
    {
      "midi": 67,
      "hit": false,
      "t": 26482.75200000001,
      "d": 1655.1719999999987,
      "v": 100
    },
    {
      "midi": 58,
      "hit": false,
      "t": 26689.648499999985,
      "d": 620.6894999999968,
      "v": 100
    },
    {
      "midi": 55,
      "hit": false,
      "t": 26896.544999999984,
      "d": 620.6894999999968,
      "v": 100
    },
    {
      "midi": 38,
      "hit": false,
      "t": 26896.544999999984,
      "d": 620.6894999999968,
      "v": 100
    },
    {
      "midi": 62,
      "hit": false,
      "t": 27103.441499999983,
      "d": 620.6894999999968,
      "v": 100
    },
    {
      "midi": 43,
      "hit": false,
      "t": 27103.441499999983,
      "d": 1034.4824999999946,
      "v": 100
    },
    {
      "midi": 58,
      "hit": false,
      "t": 27310.33799999998,
      "d": 620.6894999999968,
      "v": 100
    },
    {
      "midi": 38,
      "hit": false,
      "t": 27517.23449999998,
      "d": 413.79299999999785,
      "v": 100
    },
    {
      "midi": 55,
      "hit": false,
      "t": 27517.23449999998,
      "d": 1034.4824999999946,
      "v": 100
    },
    {
      "midi": 69,
      "hit": false,
      "t": 27517.234500000013,
      "d": 620.6894999999968,
      "v": 100
    },
    {
      "midi": 62,
      "hit": false,
      "t": 27724.13099999998,
      "d": 413.79299999999785,
      "v": 100
    },
    {
      "midi": 46,
      "hit": false,
      "t": 27724.13099999998,
      "d": 413.79299999999785,
      "v": 100
    },
    {
      "midi": 70,
      "hit": false,
      "t": 27724.131000000012,
      "d": 413.79299999999785,
      "v": 100
    },
    {
      "midi": 38,
      "hit": false,
      "t": 27931.02749999998,
      "d": 206.89649999999892,
      "v": 100
    },
    {
      "midi": 58,
      "hit": false,
      "t": 27931.02749999998,
      "d": 413.79299999999785,
      "v": 100
    },
    {
      "midi": 74,
      "hit": false,
      "t": 27931.02750000001,
      "d": 206.89649999999892,
      "v": 100
    },
    {
      "midi": 63,
      "hit": false,
      "t": 28137.923999999977,
      "d": 620.6894999999968,
      "v": 100
    },
    {
      "midi": 43,
      "hit": false,
      "t": 28137.923999999977,
      "d": 620.6894999999968,
      "v": 100
    },
    {
      "midi": 75,
      "hit": false,
      "t": 28137.92400000001,
      "d": 1241.3790000000008,
      "v": 100
    },
    {
      "midi": 58,
      "hit": false,
      "t": 28344.820499999976,
      "d": 620.6894999999968,
      "v": 100
    },
    {
      "midi": 55,
      "hit": false,
      "t": 28551.716999999975,
      "d": 620.6894999999968,
      "v": 100
    },
    {
      "midi": 39,
      "hit": false,
      "t": 28551.716999999975,
      "d": 620.6894999999968,
      "v": 100
    },
    {
      "midi": 63,
      "hit": false,
      "t": 28758.613499999974,
      "d": 620.6894999999968,
      "v": 100
    },
    {
      "midi": 43,
      "hit": false,
      "t": 28758.613499999974,
      "d": 1034.4824999999946,
      "v": 100
    },
    {
      "midi": 70,
      "hit": false,
      "t": 28758.61350000001,
      "d": 1034.482500000002,
      "v": 100
    },
    {
      "midi": 58,
      "hit": false,
      "t": 28965.509999999973,
      "d": 620.6894999999968,
      "v": 100
    },
    {
      "midi": 39,
      "hit": false,
      "t": 29172.406499999972,
      "d": 413.79299999999785,
      "v": 100
    },
    {
      "midi": 55,
      "hit": false,
      "t": 29172.406499999972,
      "d": 1034.4824999999946,
      "v": 100
    },
    {
      "midi": 46,
      "hit": false,
      "t": 29379.30299999997,
      "d": 413.79299999999785,
      "v": 100
    },
    {
      "midi": 63,
      "hit": false,
      "t": 29379.30299999997,
      "d": 2068.9649999999892,
      "v": 100
    },
    {
      "midi": 75,
      "hit": false,
      "t": 29379.30300000001,
      "d": 413.7930000000015,
      "v": 100
    },
    {
      "midi": 39,
      "hit": false,
      "t": 29586.19949999997,
      "d": 206.89649999999892,
      "v": 100
    },
    {
      "midi": 58,
      "hit": false,
      "t": 29586.19949999997,
      "d": 413.79299999999785,
      "v": 100
    },
    {
      "midi": 64,
      "hit": false,
      "t": 29793.09599999997,
      "d": 620.6894999999968,
      "v": 100
    },
    {
      "midi": 43,
      "hit": false,
      "t": 29793.09599999997,
      "d": 620.6894999999968,
      "v": 100
    },
    {
      "midi": 76,
      "hit": false,
      "t": 29793.096000000012,
      "d": 1241.3790000000008,
      "v": 100
    },
    {
      "midi": 58,
      "hit": false,
      "t": 29999.992499999968,
      "d": 620.6894999999968,
      "v": 100
    },
    {
      "midi": 55,
      "hit": false,
      "t": 30206.888999999966,
      "d": 620.6894999999968,
      "v": 100
    },
    {
      "midi": 40,
      "hit": false,
      "t": 30206.888999999966,
      "d": 620.6894999999968,
      "v": 100
    },
    {
      "midi": 64,
      "hit": false,
      "t": 30413.785499999965,
      "d": 620.6894999999968,
      "v": 100
    },
    {
      "midi": 43,
      "hit": false,
      "t": 30413.785499999965,
      "d": 1034.4824999999946,
      "v": 100
    },
    {
      "midi": 70,
      "hit": false,
      "t": 30413.785500000013,
      "d": 1034.482500000002,
      "v": 100
    },
    {
      "midi": 58,
      "hit": false,
      "t": 30620.681999999964,
      "d": 615.5170874999967,
      "v": 100
    },
    {
      "midi": 40,
      "hit": false,
      "t": 30827.578499999963,
      "d": 413.79299999999785,
      "v": 100
    },
    {
      "midi": 55,
      "hit": false,
      "t": 30827.578499999963,
      "d": 1034.4824999999946,
      "v": 100
    },
    {
      "midi": 46,
      "hit": false,
      "t": 31034.474999999962,
      "d": 413.79299999999785,
      "v": 100
    },
    {
      "midi": 64,
      "hit": false,
      "t": 31034.474999999962,
      "d": 2068.9649999999965,
      "v": 100
    },
    {
      "midi": 76,
      "hit": false,
      "t": 31034.475000000013,
      "d": 413.7930000000015,
      "v": 100
    },
    {
      "midi": 40,
      "hit": false,
      "t": 31241.37149999996,
      "d": 206.89649999999892,
      "v": 100
    },
    {
      "midi": 58,
      "hit": false,
      "t": 31241.37149999996,
      "d": 413.79299999999785,
      "v": 100
    },
    {
      "midi": 63,
      "hit": false,
      "t": 31448.26799999996,
      "d": 620.6894999999968,
      "v": 100
    },
    {
      "midi": 43,
      "hit": false,
      "t": 31448.26799999996,
      "d": 620.6894999999968,
      "v": 100
    },
    {
      "midi": 75,
      "hit": false,
      "t": 31448.268000000015,
      "d": 1034.482500000002,
      "v": 100
    },
    {
      "midi": 58,
      "hit": false,
      "t": 31655.16449999996,
      "d": 620.6894999999968,
      "v": 100
    },
    {
      "midi": 55,
      "hit": false,
      "t": 31862.060999999958,
      "d": 620.6894999999968,
      "v": 100
    },
    {
      "midi": 39,
      "hit": false,
      "t": 31862.060999999958,
      "d": 620.6894999999968,
      "v": 100
    },
    {
      "midi": 79,
      "hit": false,
      "t": 31862.061000000016,
      "d": 1238.792793749999,
      "v": 100
    },
    {
      "midi": 63,
      "hit": false,
      "t": 32068.957499999957,
      "d": 620.6894999999968,
      "v": 100
    },
    {
      "midi": 43,
      "hit": false,
      "t": 32068.957499999957,
      "d": 1034.482500000002,
      "v": 100
    },
    {
      "midi": 77,
      "hit": false,
      "t": 32068.957500000015,
      "d": 1034.482500000002,
      "v": 100
    },
    {
      "midi": 58,
      "hit": false,
      "t": 32275.853999999956,
      "d": 620.6895000000004,
      "v": 100
    },
    {
      "midi": 39,
      "hit": false,
      "t": 32482.750499999955,
      "d": 413.7930000000015,
      "v": 100
    },
    {
      "midi": 55,
      "hit": false,
      "t": 32482.750499999955,
      "d": 1034.4825000000092,
      "v": 100
    },
    {
      "midi": 75,
      "hit": false,
      "t": 32482.750500000016,
      "d": 620.6895000000004,
      "v": 100
    },
    {
      "midi": 46,
      "hit": false,
      "t": 32689.646999999954,
      "d": 413.7930000000051,
      "v": 100
    },
    {
      "midi": 63,
      "hit": false,
      "t": 32689.646999999954,
      "d": 2068.9650000000256,
      "v": 100
    },
    {
      "midi": 39,
      "hit": false,
      "t": 32896.543499999956,
      "d": 206.89650000000256,
      "v": 100
    },
    {
      "midi": 58,
      "hit": false,
      "t": 32896.543499999956,
      "d": 413.7930000000051,
      "v": 100
    },
    {
      "midi": 62,
      "hit": false,
      "t": 33103.43999999996,
      "d": 620.6895000000077,
      "v": 100
    },
    {
      "midi": 43,
      "hit": false,
      "t": 33103.43999999996,
      "d": 620.6895000000077,
      "v": 100
    },
    {
      "midi": 79,
      "hit": false,
      "t": 33103.44000000002,
      "d": 1655.172000000006,
      "v": 100
    },
    {
      "midi": 58,
      "hit": false,
      "t": 33310.33649999996,
      "d": 620.6895000000077,
      "v": 100
    },
    {
      "midi": 55,
      "hit": false,
      "t": 33517.232999999964,
      "d": 620.6895000000077,
      "v": 100
    },
    {
      "midi": 38,
      "hit": false,
      "t": 33517.232999999964,
      "d": 620.6895000000077,
      "v": 100
    },
    {
      "midi": 62,
      "hit": false,
      "t": 33724.129499999966,
      "d": 620.6895000000077,
      "v": 100
    },
    {
      "midi": 43,
      "hit": false,
      "t": 33724.129499999966,
      "d": 1034.4825000000128,
      "v": 100
    },
    {
      "midi": 58,
      "hit": false,
      "t": 33931.02599999997,
      "d": 620.6895000000077,
      "v": 100
    },
    {
      "midi": 38,
      "hit": false,
      "t": 34137.92249999997,
      "d": 413.7930000000051,
      "v": 100
    },
    {
      "midi": 55,
      "hit": false,
      "t": 34137.92249999997,
      "d": 1034.4825000000128,
      "v": 100
    },
    {
      "midi": 81,
      "hit": false,
      "t": 34137.922500000015,
      "d": 620.6895000000077,
      "v": 100
    },
    {
      "midi": 46,
      "hit": false,
      "t": 34344.818999999974,
      "d": 413.7930000000051,
      "v": 100
    },
    {
      "midi": 62,
      "hit": false,
      "t": 34344.818999999974,
      "d": 2068.9650000000256,
      "v": 100
    },
    {
      "midi": 82,
      "hit": false,
      "t": 34344.81900000002,
      "d": 413.7930000000051,
      "v": 100
    },
    {
      "midi": 38,
      "hit": false,
      "t": 34551.71549999998,
      "d": 206.89650000000256,
      "v": 100
    },
    {
      "midi": 58,
      "hit": false,
      "t": 34551.71549999998,
      "d": 413.7930000000051,
      "v": 100
    },
    {
      "midi": 86,
      "hit": false,
      "t": 34551.71550000002,
      "d": 206.89650000000256,
      "v": 100
    },
    {
      "midi": 63,
      "hit": false,
      "t": 34758.61199999998,
      "d": 620.6895000000077,
      "v": 100
    },
    {
      "midi": 43,
      "hit": false,
      "t": 34758.61199999998,
      "d": 620.6895000000077,
      "v": 100
    },
    {
      "midi": 87,
      "hit": false,
      "t": 34758.61200000002,
      "d": 1241.3790000000008,
      "v": 100
    },
    {
      "midi": 58,
      "hit": false,
      "t": 34965.50849999998,
      "d": 620.6895000000077,
      "v": 100
    },
    {
      "midi": 55,
      "hit": false,
      "t": 35172.404999999984,
      "d": 620.6895000000077,
      "v": 100
    },
    {
      "midi": 39,
      "hit": false,
      "t": 35172.404999999984,
      "d": 620.6895000000077,
      "v": 100
    },
    {
      "midi": 63,
      "hit": false,
      "t": 35379.30149999999,
      "d": 620.6895000000077,
      "v": 100
    },
    {
      "midi": 43,
      "hit": false,
      "t": 35379.30149999999,
      "d": 1034.4825000000128,
      "v": 100
    },
    {
      "midi": 82,
      "hit": false,
      "t": 35379.30150000002,
      "d": 1034.4824999999983,
      "v": 100
    },
    {
      "midi": 58,
      "hit": false,
      "t": 35586.19799999999,
      "d": 620.6895000000077,
      "v": 100
    },
    {
      "midi": 39,
      "hit": false,
      "t": 35793.09449999999,
      "d": 413.7930000000051,
      "v": 100
    },
    {
      "midi": 55,
      "hit": false,
      "t": 35793.09449999999,
      "d": 1034.4825000000128,
      "v": 100
    },
    {
      "midi": 46,
      "hit": false,
      "t": 35999.990999999995,
      "d": 413.7930000000051,
      "v": 100
    },
    {
      "midi": 63,
      "hit": false,
      "t": 35999.990999999995,
      "d": 2068.9650000000183,
      "v": 100
    },
    {
      "midi": 87,
      "hit": false,
      "t": 35999.99100000002,
      "d": 413.79299999999785,
      "v": 100
    },
    {
      "midi": 39,
      "hit": false,
      "t": 36206.8875,
      "d": 206.89650000000256,
      "v": 100
    },
    {
      "midi": 58,
      "hit": false,
      "t": 36206.8875,
      "d": 413.7930000000051,
      "v": 100
    },
    {
      "midi": 64,
      "hit": false,
      "t": 36413.784,
      "d": 620.6895000000077,
      "v": 100
    },
    {
      "midi": 43,
      "hit": false,
      "t": 36413.784,
      "d": 620.6895000000077,
      "v": 100
    },
    {
      "midi": 88,
      "hit": false,
      "t": 36413.78400000002,
      "d": 1241.3790000000008,
      "v": 100
    },
    {
      "midi": 58,
      "hit": false,
      "t": 36620.6805,
      "d": 620.6895000000077,
      "v": 100
    },
    {
      "midi": 55,
      "hit": false,
      "t": 36827.577000000005,
      "d": 620.6895000000077,
      "v": 100
    },
    {
      "midi": 40,
      "hit": false,
      "t": 36827.577000000005,
      "d": 620.6895000000077,
      "v": 100
    },
    {
      "midi": 64,
      "hit": false,
      "t": 37034.47350000001,
      "d": 620.6895000000077,
      "v": 100
    },
    {
      "midi": 43,
      "hit": false,
      "t": 37034.47350000001,
      "d": 1034.4825000000055,
      "v": 100
    },
    {
      "midi": 82,
      "hit": false,
      "t": 37034.47350000002,
      "d": 1034.4824999999983,
      "v": 100
    },
    {
      "midi": 58,
      "hit": false,
      "t": 37241.37000000001,
      "d": 615.517087500004,
      "v": 100
    },
    {
      "midi": 40,
      "hit": false,
      "t": 37448.26650000001,
      "d": 413.79299999999785,
      "v": 100
    },
    {
      "midi": 55,
      "hit": false,
      "t": 37448.26650000001,
      "d": 1034.4825000000055,
      "v": 100
    },
    {
      "midi": 46,
      "hit": false,
      "t": 37655.163000000015,
      "d": 413.79299999999785,
      "v": 100
    },
    {
      "midi": 64,
      "hit": false,
      "t": 37655.163000000015,
      "d": 2068.9650000000183,
      "v": 100
    },
    {
      "midi": 88,
      "hit": false,
      "t": 37655.16300000002,
      "d": 413.79299999999785,
      "v": 100
    },
    {
      "midi": 40,
      "hit": false,
      "t": 37862.05950000001,
      "d": 206.89650000000256,
      "v": 100
    },
    {
      "midi": 58,
      "hit": false,
      "t": 37862.05950000001,
      "d": 413.7930000000051,
      "v": 100
    },
    {
      "midi": 63,
      "hit": false,
      "t": 38068.95600000001,
      "d": 620.6895000000077,
      "v": 100
    },
    {
      "midi": 43,
      "hit": false,
      "t": 38068.95600000001,
      "d": 620.6895000000077,
      "v": 100
    },
    {
      "midi": 87,
      "hit": false,
      "t": 38068.95600000002,
      "d": 1034.4824999999983,
      "v": 100
    },
    {
      "midi": 58,
      "hit": false,
      "t": 38275.852500000015,
      "d": 620.6895000000077,
      "v": 100
    },
    {
      "midi": 91,
      "hit": false,
      "t": 38482.74900000002,
      "d": 1238.792793749999,
      "v": 100
    },
    {
      "midi": 55,
      "hit": false,
      "t": 38482.74900000002,
      "d": 620.6895000000077,
      "v": 100
    },
    {
      "midi": 39,
      "hit": false,
      "t": 38482.74900000002,
      "d": 620.6895000000077,
      "v": 100
    },
    {
      "midi": 89,
      "hit": false,
      "t": 38689.64550000002,
      "d": 1034.4824999999983,
      "v": 100
    },
    {
      "midi": 63,
      "hit": false,
      "t": 38689.64550000002,
      "d": 620.6895000000077,
      "v": 100
    },
    {
      "midi": 43,
      "hit": false,
      "t": 38689.64550000002,
      "d": 1034.4825000000128,
      "v": 100
    },
    {
      "midi": 58,
      "hit": false,
      "t": 38896.54200000002,
      "d": 620.6895000000077,
      "v": 100
    },
    {
      "midi": 87,
      "hit": false,
      "t": 39103.43850000002,
      "d": 620.6895000000004,
      "v": 100
    },
    {
      "midi": 39,
      "hit": false,
      "t": 39103.438500000026,
      "d": 413.7930000000051,
      "v": 100
    },
    {
      "midi": 55,
      "hit": false,
      "t": 39103.438500000026,
      "d": 620.6895000000077,
      "v": 100
    },
    {
      "midi": 63,
      "hit": false,
      "t": 39310.33500000003,
      "d": 413.7930000000051,
      "v": 100
    },
    {
      "midi": 46,
      "hit": false,
      "t": 39310.33500000003,
      "d": 413.7930000000051,
      "v": 100
    },
    {
      "midi": 39,
      "hit": false,
      "t": 39517.23150000003,
      "d": 206.89650000000256,
      "v": 100
    },
    {
      "midi": 58,
      "hit": false,
      "t": 39517.23150000003,
      "d": 206.89650000000256,
      "v": 100
    },
    {
      "midi": 69,
      "hit": false,
      "t": 39724.12800000002,
      "d": 206.89650000000256,
      "v": 100
    },
    {
      "midi": 74,
      "hit": false,
      "t": 39724.12800000002,
      "d": 206.89650000000256,
      "v": 100
    },
    {
      "midi": 50,
      "hit": false,
      "t": 39724.12800000003,
      "d": 206.89650000000256,
      "v": 100
    },
    {
      "midi": 54,
      "hit": false,
      "t": 39724.12800000003,
      "d": 206.89650000000256,
      "v": 100
    },
    {
      "midi": 62,
      "hit": false,
      "t": 39724.12800000003,
      "d": 206.89650000000256,
      "v": 100
    },
    {
      "midi": 69,
      "hit": false,
      "t": 39931.02450000002,
      "d": 413.79299999999785,
      "v": 100
    },
    {
      "midi": 74,
      "hit": false,
      "t": 39931.02450000002,
      "d": 413.79299999999785,
      "v": 100
    },
    {
      "midi": 50,
      "hit": false,
      "t": 39931.024500000036,
      "d": 413.79299999999785,
      "v": 100
    },
    {
      "midi": 54,
      "hit": false,
      "t": 39931.024500000036,
      "d": 827.5859999999957,
      "v": 100
    },
    {
      "midi": 62,
      "hit": false,
      "t": 39931.024500000036,
      "d": 827.5859999999957,
      "v": 100
    },
    {
      "midi": 69,
      "hit": false,
      "t": 40344.81750000002,
      "d": 413.79299999999785,
      "v": 100
    },
    {
      "midi": 74,
      "hit": false,
      "t": 40344.81750000002,
      "d": 413.79299999999785,
      "v": 100
    },
    {
      "midi": 50,
      "hit": false,
      "t": 40344.817500000034,
      "d": 413.79299999999785,
      "v": 100
    },
    {
      "midi": 69,
      "hit": false,
      "t": 40758.61050000002,
      "d": 206.89650000000256,
      "v": 100
    },
    {
      "midi": 74,
      "hit": false,
      "t": 40758.61050000002,
      "d": 206.89650000000256,
      "v": 100
    },
    {
      "midi": 50,
      "hit": false,
      "t": 40758.61050000003,
      "d": 206.89650000000256,
      "v": 100
    },
    {
      "midi": 54,
      "hit": false,
      "t": 40758.61050000003,
      "d": 206.89650000000256,
      "v": 100
    },
    {
      "midi": 62,
      "hit": false,
      "t": 40758.61050000003,
      "d": 206.89650000000256,
      "v": 100
    },
    {
      "midi": 69,
      "hit": false,
      "t": 40965.50700000002,
      "d": 206.89650000000256,
      "v": 100
    },
    {
      "midi": 72,
      "hit": false,
      "t": 40965.50700000002,
      "d": 206.89650000000256,
      "v": 100
    },
    {
      "midi": 50,
      "hit": false,
      "t": 40965.507000000034,
      "d": 206.89650000000256,
      "v": 100
    },
    {
      "midi": 54,
      "hit": false,
      "t": 40965.507000000034,
      "d": 206.89650000000256,
      "v": 100
    },
    {
      "midi": 60,
      "hit": false,
      "t": 40965.507000000034,
      "d": 206.89650000000256,
      "v": 100
    },
    {
      "midi": 62,
      "hit": false,
      "t": 41793.09300000004,
      "d": 413.79299999999785,
      "v": 100
    },
    {
      "midi": 66,
      "hit": false,
      "t": 42206.886000000035,
      "d": 413.79299999999785,
      "v": 100
    },
    {
      "midi": 69,
      "hit": false,
      "t": 42620.67900000003,
      "d": 413.79299999999785,
      "v": 100
    },
    {
      "midi": 69,
      "hit": false,
      "t": 43034.47200000002,
      "d": 206.89650000000256,
      "v": 100
    },
    {
      "midi": 74,
      "hit": false,
      "t": 43034.47200000002,
      "d": 206.89650000000256,
      "v": 100
    },
    {
      "midi": 50,
      "hit": false,
      "t": 43034.47200000003,
      "d": 206.89650000000256,
      "v": 100
    },
    {
      "midi": 54,
      "hit": false,
      "t": 43034.47200000003,
      "d": 206.89650000000256,
      "v": 100
    },
    {
      "midi": 62,
      "hit": false,
      "t": 43034.47200000003,
      "d": 206.89650000000256,
      "v": 100
    },
    {
      "midi": 69,
      "hit": false,
      "t": 43241.368500000026,
      "d": 413.79299999999785,
      "v": 100
    },
    {
      "midi": 74,
      "hit": false,
      "t": 43241.368500000026,
      "d": 413.79299999999785,
      "v": 100
    },
    {
      "midi": 50,
      "hit": false,
      "t": 43241.36850000003,
      "d": 413.79299999999785,
      "v": 100
    },
    {
      "midi": 54,
      "hit": false,
      "t": 43241.36850000003,
      "d": 827.5859999999957,
      "v": 100
    },
    {
      "midi": 62,
      "hit": false,
      "t": 43241.36850000003,
      "d": 827.5859999999957,
      "v": 100
    },
    {
      "midi": 69,
      "hit": false,
      "t": 43655.161500000024,
      "d": 413.79299999999785,
      "v": 100
    },
    {
      "midi": 74,
      "hit": false,
      "t": 43655.161500000024,
      "d": 413.79299999999785,
      "v": 100
    },
    {
      "midi": 50,
      "hit": false,
      "t": 43655.16150000003,
      "d": 413.79299999999785,
      "v": 100
    },
    {
      "midi": 69,
      "hit": false,
      "t": 44068.95450000002,
      "d": 206.89650000000256,
      "v": 100
    },
    {
      "midi": 74,
      "hit": false,
      "t": 44068.95450000002,
      "d": 206.89650000000256,
      "v": 100
    },
    {
      "midi": 50,
      "hit": false,
      "t": 44068.95450000003,
      "d": 206.89650000000256,
      "v": 100
    },
    {
      "midi": 54,
      "hit": false,
      "t": 44068.95450000003,
      "d": 206.89650000000256,
      "v": 100
    },
    {
      "midi": 62,
      "hit": false,
      "t": 44068.95450000003,
      "d": 206.89650000000256,
      "v": 100
    },
    {
      "midi": 69,
      "hit": false,
      "t": 44275.851000000024,
      "d": 206.89650000000256,
      "v": 100
    },
    {
      "midi": 75,
      "hit": false,
      "t": 44275.851000000024,
      "d": 206.89650000000256,
      "v": 100
    },
    {
      "midi": 50,
      "hit": false,
      "t": 44275.85100000003,
      "d": 206.89650000000256,
      "v": 100
    },
    {
      "midi": 54,
      "hit": false,
      "t": 44275.85100000003,
      "d": 206.89650000000256,
      "v": 100
    },
    {
      "midi": 63,
      "hit": false,
      "t": 44275.85100000003,
      "d": 206.89650000000256,
      "v": 100
    },
    {
      "midi": 62,
      "hit": false,
      "t": 45103.437000000034,
      "d": 413.79299999999785,
      "v": 100
    },
    {
      "midi": 66,
      "hit": false,
      "t": 45517.23000000003,
      "d": 413.79299999999785,
      "v": 100
    },
    {
      "midi": 69,
      "hit": false,
      "t": 45931.02300000003,
      "d": 413.79299999999785,
      "v": 100
    },
    {
      "midi": 69,
      "hit": false,
      "t": 46344.81600000003,
      "d": 206.89650000000256,
      "v": 100
    },
    {
      "midi": 74,
      "hit": false,
      "t": 46344.81600000003,
      "d": 206.89650000000256,
      "v": 100
    },
    {
      "midi": 50,
      "hit": false,
      "t": 46344.81600000003,
      "d": 206.89650000000256,
      "v": 100
    },
    {
      "midi": 54,
      "hit": false,
      "t": 46344.81600000003,
      "d": 206.89650000000256,
      "v": 100
    },
    {
      "midi": 62,
      "hit": false,
      "t": 46344.81600000003,
      "d": 206.89650000000256,
      "v": 100
    },
    {
      "midi": 69,
      "hit": false,
      "t": 46551.71250000003,
      "d": 413.79299999999785,
      "v": 100
    },
    {
      "midi": 74,
      "hit": false,
      "t": 46551.71250000003,
      "d": 413.79299999999785,
      "v": 100
    },
    {
      "midi": 50,
      "hit": false,
      "t": 46551.71250000003,
      "d": 413.79299999999785,
      "v": 100
    },
    {
      "midi": 54,
      "hit": false,
      "t": 46551.71250000003,
      "d": 827.5859999999957,
      "v": 100
    },
    {
      "midi": 62,
      "hit": false,
      "t": 46551.71250000003,
      "d": 827.5859999999957,
      "v": 100
    },
    {
      "midi": 69,
      "hit": false,
      "t": 46965.50550000003,
      "d": 413.79299999999785,
      "v": 100
    },
    {
      "midi": 74,
      "hit": false,
      "t": 46965.50550000003,
      "d": 413.79299999999785,
      "v": 100
    },
    {
      "midi": 50,
      "hit": false,
      "t": 46965.50550000003,
      "d": 413.79299999999785,
      "v": 100
    },
    {
      "midi": 69,
      "hit": false,
      "t": 47379.298500000026,
      "d": 206.89650000000256,
      "v": 100
    },
    {
      "midi": 74,
      "hit": false,
      "t": 47379.298500000026,
      "d": 206.89650000000256,
      "v": 100
    },
    {
      "midi": 50,
      "hit": false,
      "t": 47379.298500000026,
      "d": 206.89650000000256,
      "v": 100
    },
    {
      "midi": 54,
      "hit": false,
      "t": 47379.298500000026,
      "d": 206.89650000000256,
      "v": 100
    },
    {
      "midi": 62,
      "hit": false,
      "t": 47379.298500000026,
      "d": 206.89650000000256,
      "v": 100
    },
    {
      "midi": 69,
      "hit": false,
      "t": 47586.19500000003,
      "d": 206.89650000000256,
      "v": 100
    },
    {
      "midi": 72,
      "hit": false,
      "t": 47586.19500000003,
      "d": 206.89650000000256,
      "v": 100
    },
    {
      "midi": 50,
      "hit": false,
      "t": 47586.19500000003,
      "d": 206.89650000000256,
      "v": 100
    },
    {
      "midi": 54,
      "hit": false,
      "t": 47586.19500000003,
      "d": 206.89650000000256,
      "v": 100
    },
    {
      "midi": 60,
      "hit": false,
      "t": 47586.19500000003,
      "d": 206.89650000000256,
      "v": 100
    },
    {
      "midi": 62,
      "hit": false,
      "t": 48413.78100000003,
      "d": 413.79299999999785,
      "v": 100
    },
    {
      "midi": 66,
      "hit": false,
      "t": 48827.57400000003,
      "d": 413.79299999999785,
      "v": 100
    },
    {
      "midi": 69,
      "hit": false,
      "t": 49241.36700000003,
      "d": 413.79299999999785,
      "v": 100
    },
    {
      "midi": 50,
      "hit": false,
      "t": 49655.160000000025,
      "d": 206.89650000000256,
      "v": 100
    },
    {
      "midi": 54,
      "hit": false,
      "t": 49655.160000000025,
      "d": 206.89650000000256,
      "v": 100
    },
    {
      "midi": 62,
      "hit": false,
      "t": 49655.160000000025,
      "d": 206.89650000000256,
      "v": 100
    },
    {
      "midi": 69,
      "hit": false,
      "t": 49655.16000000003,
      "d": 206.89650000000256,
      "v": 100
    },
    {
      "midi": 74,
      "hit": false,
      "t": 49655.16000000003,
      "d": 206.89650000000256,
      "v": 100
    },
    {
      "midi": 50,
      "hit": false,
      "t": 49862.05650000003,
      "d": 413.79299999999785,
      "v": 100
    },
    {
      "midi": 54,
      "hit": false,
      "t": 49862.05650000003,
      "d": 827.5859999999957,
      "v": 100
    },
    {
      "midi": 62,
      "hit": false,
      "t": 49862.05650000003,
      "d": 827.5859999999957,
      "v": 100
    },
    {
      "midi": 69,
      "hit": false,
      "t": 49862.056500000035,
      "d": 413.79299999999785,
      "v": 100
    },
    {
      "midi": 74,
      "hit": false,
      "t": 49862.056500000035,
      "d": 413.79299999999785,
      "v": 100
    },
    {
      "midi": 50,
      "hit": false,
      "t": 50275.849500000026,
      "d": 413.79299999999785,
      "v": 100
    },
    {
      "midi": 69,
      "hit": false,
      "t": 50275.84950000003,
      "d": 413.79299999999785,
      "v": 100
    },
    {
      "midi": 74,
      "hit": false,
      "t": 50275.84950000003,
      "d": 413.79299999999785,
      "v": 100
    },
    {
      "midi": 50,
      "hit": false,
      "t": 50689.64250000002,
      "d": 206.89650000000256,
      "v": 100
    },
    {
      "midi": 54,
      "hit": false,
      "t": 50689.64250000002,
      "d": 206.89650000000256,
      "v": 100
    },
    {
      "midi": 62,
      "hit": false,
      "t": 50689.64250000002,
      "d": 206.89650000000256,
      "v": 100
    },
    {
      "midi": 69,
      "hit": false,
      "t": 50689.64250000003,
      "d": 206.89650000000256,
      "v": 100
    },
    {
      "midi": 74,
      "hit": false,
      "t": 50689.64250000003,
      "d": 206.89650000000256,
      "v": 100
    },
    {
      "midi": 50,
      "hit": false,
      "t": 50896.539000000026,
      "d": 206.89650000000256,
      "v": 100
    },
    {
      "midi": 54,
      "hit": false,
      "t": 50896.539000000026,
      "d": 620.6895000000004,
      "v": 100
    },
    {
      "midi": 65,
      "hit": false,
      "t": 50896.539000000026,
      "d": 620.6895000000004,
      "v": 100
    },
    {
      "midi": 69,
      "hit": false,
      "t": 50896.53900000003,
      "d": 620.6895000000004,
      "v": 100
    },
    {
      "midi": 77,
      "hit": false,
      "t": 50896.53900000003,
      "d": 620.6895000000004,
      "v": 100
    },
    {
      "midi": 54,
      "hit": false,
      "t": 51517.22850000003,
      "d": 620.6895000000004,
      "v": 100
    },
    {
      "midi": 63,
      "hit": false,
      "t": 51517.22850000003,
      "d": 620.6895000000004,
      "v": 100
    },
    {
      "midi": 69,
      "hit": false,
      "t": 51517.228500000034,
      "d": 620.6895000000004,
      "v": 100
    },
    {
      "midi": 75,
      "hit": false,
      "t": 51517.228500000034,
      "d": 620.6895000000004,
      "v": 100
    },
    {
      "midi": 54,
      "hit": false,
      "t": 52137.91800000003,
      "d": 413.79299999999785,
      "v": 100
    },
    {
      "midi": 62,
      "hit": false,
      "t": 52137.91800000003,
      "d": 413.79299999999785,
      "v": 100
    },
    {
      "midi": 69,
      "hit": false,
      "t": 52137.918000000034,
      "d": 413.79299999999785,
      "v": 100
    },
    {
      "midi": 74,
      "hit": false,
      "t": 52137.918000000034,
      "d": 413.79299999999785,
      "v": 100
    },
    {
      "midi": 43,
      "hit": false,
      "t": 52551.711000000025,
      "d": 620.6895000000077,
      "v": 100
    },
    {
      "midi": 62,
      "hit": false,
      "t": 52551.711000000025,
      "d": 620.6895000000077,
      "v": 100
    },
    {
      "midi": 67,
      "hit": false,
      "t": 52551.71100000003,
      "d": 1655.172000000006,
      "v": 100
    },
    {
      "midi": 58,
      "hit": false,
      "t": 52758.60750000003,
      "d": 620.6895000000077,
      "v": 100
    },
    {
      "midi": 55,
      "hit": false,
      "t": 52965.50400000003,
      "d": 620.6895000000077,
      "v": 100
    },
    {
      "midi": 38,
      "hit": false,
      "t": 52965.50400000003,
      "d": 620.6895000000077,
      "v": 100
    },
    {
      "midi": 62,
      "hit": false,
      "t": 53172.40050000003,
      "d": 620.6895000000077,
      "v": 100
    },
    {
      "midi": 43,
      "hit": false,
      "t": 53172.40050000003,
      "d": 1034.4825000000128,
      "v": 100
    },
    {
      "midi": 58,
      "hit": false,
      "t": 53379.297000000035,
      "d": 620.6895000000077,
      "v": 100
    },
    {
      "midi": 69,
      "hit": false,
      "t": 53586.19350000003,
      "d": 620.6895000000077,
      "v": 100
    },
    {
      "midi": 38,
      "hit": false,
      "t": 53586.19350000004,
      "d": 413.7930000000051,
      "v": 100
    },
    {
      "midi": 55,
      "hit": false,
      "t": 53586.19350000004,
      "d": 1034.4825000000128,
      "v": 100
    },
    {
      "midi": 70,
      "hit": false,
      "t": 53793.09000000003,
      "d": 413.7930000000051,
      "v": 100
    },
    {
      "midi": 46,
      "hit": false,
      "t": 53793.09000000004,
      "d": 413.7930000000051,
      "v": 100
    },
    {
      "midi": 62,
      "hit": false,
      "t": 53793.09000000004,
      "d": 2068.9650000000256,
      "v": 100
    },
    {
      "midi": 74,
      "hit": false,
      "t": 53999.986500000035,
      "d": 206.89650000000256,
      "v": 100
    },
    {
      "midi": 38,
      "hit": false,
      "t": 53999.98650000004,
      "d": 206.89650000000256,
      "v": 100
    },
    {
      "midi": 58,
      "hit": false,
      "t": 53999.98650000004,
      "d": 413.7930000000051,
      "v": 100
    },
    {
      "midi": 75,
      "hit": false,
      "t": 54206.88300000004,
      "d": 1241.3790000000008,
      "v": 100
    },
    {
      "midi": 63,
      "hit": false,
      "t": 54206.883000000045,
      "d": 620.6895000000077,
      "v": 100
    },
    {
      "midi": 43,
      "hit": false,
      "t": 54206.883000000045,
      "d": 620.6895000000077,
      "v": 100
    },
    {
      "midi": 58,
      "hit": false,
      "t": 54413.77950000005,
      "d": 620.6895000000077,
      "v": 100
    },
    {
      "midi": 55,
      "hit": false,
      "t": 54620.67600000005,
      "d": 620.6895000000077,
      "v": 100
    },
    {
      "midi": 39,
      "hit": false,
      "t": 54620.67600000005,
      "d": 620.6895000000077,
      "v": 100
    },
    {
      "midi": 70,
      "hit": false,
      "t": 54827.57250000004,
      "d": 1034.4824999999983,
      "v": 100
    },
    {
      "midi": 63,
      "hit": false,
      "t": 54827.57250000005,
      "d": 620.6895000000077,
      "v": 100
    },
    {
      "midi": 43,
      "hit": false,
      "t": 54827.57250000005,
      "d": 1034.4825000000128,
      "v": 100
    },
    {
      "midi": 58,
      "hit": false,
      "t": 55034.469000000056,
      "d": 620.6895000000077,
      "v": 100
    },
    {
      "midi": 39,
      "hit": false,
      "t": 55241.36550000006,
      "d": 413.7930000000051,
      "v": 100
    },
    {
      "midi": 55,
      "hit": false,
      "t": 55241.36550000006,
      "d": 1034.4825000000128,
      "v": 100
    },
    {
      "midi": 75,
      "hit": false,
      "t": 55448.26200000004,
      "d": 413.79299999999785,
      "v": 100
    },
    {
      "midi": 46,
      "hit": false,
      "t": 55448.26200000006,
      "d": 413.7930000000051,
      "v": 100
    },
    {
      "midi": 63,
      "hit": false,
      "t": 55448.26200000006,
      "d": 2068.9650000000183,
      "v": 100
    },
    {
      "midi": 39,
      "hit": false,
      "t": 55655.15850000006,
      "d": 206.89650000000256,
      "v": 100
    },
    {
      "midi": 58,
      "hit": false,
      "t": 55655.15850000006,
      "d": 413.7930000000051,
      "v": 100
    },
    {
      "midi": 76,
      "hit": false,
      "t": 55862.05500000004,
      "d": 1241.3790000000008,
      "v": 100
    },
    {
      "midi": 64,
      "hit": false,
      "t": 55862.055000000066,
      "d": 620.6895000000077,
      "v": 100
    },
    {
      "midi": 43,
      "hit": false,
      "t": 55862.055000000066,
      "d": 620.6895000000077,
      "v": 100
    },
    {
      "midi": 58,
      "hit": false,
      "t": 56068.95150000007,
      "d": 620.6895000000077,
      "v": 100
    },
    {
      "midi": 55,
      "hit": false,
      "t": 56275.84800000007,
      "d": 620.6895000000077,
      "v": 100
    },
    {
      "midi": 40,
      "hit": false,
      "t": 56275.84800000007,
      "d": 620.6895000000077,
      "v": 100
    },
    {
      "midi": 70,
      "hit": false,
      "t": 56482.74450000004,
      "d": 1034.4824999999983,
      "v": 100
    },
    {
      "midi": 64,
      "hit": false,
      "t": 56482.74450000007,
      "d": 620.6895000000077,
      "v": 100
    },
    {
      "midi": 43,
      "hit": false,
      "t": 56482.74450000007,
      "d": 1034.4825000000055,
      "v": 100
    },
    {
      "midi": 58,
      "hit": false,
      "t": 56689.641000000076,
      "d": 615.517087500004,
      "v": 100
    },
    {
      "midi": 40,
      "hit": false,
      "t": 56896.53750000008,
      "d": 413.79299999999785,
      "v": 100
    },
    {
      "midi": 55,
      "hit": false,
      "t": 56896.53750000008,
      "d": 1034.4825000000055,
      "v": 100
    },
    {
      "midi": 76,
      "hit": false,
      "t": 57103.43400000004,
      "d": 413.79299999999785,
      "v": 100
    },
    {
      "midi": 46,
      "hit": false,
      "t": 57103.43400000008,
      "d": 413.79299999999785,
      "v": 100
    },
    {
      "midi": 64,
      "hit": false,
      "t": 57103.43400000008,
      "d": 2068.9650000000183,
      "v": 100
    },
    {
      "midi": 40,
      "hit": false,
      "t": 57310.33050000008,
      "d": 206.89650000000256,
      "v": 100
    },
    {
      "midi": 58,
      "hit": false,
      "t": 57310.33050000008,
      "d": 413.7930000000051,
      "v": 100
    },
    {
      "midi": 75,
      "hit": false,
      "t": 57517.227000000035,
      "d": 1034.4824999999983,
      "v": 100
    },
    {
      "midi": 63,
      "hit": false,
      "t": 57517.22700000008,
      "d": 620.6895000000077,
      "v": 100
    },
    {
      "midi": 43,
      "hit": false,
      "t": 57517.22700000008,
      "d": 620.6895000000077,
      "v": 100
    },
    {
      "midi": 58,
      "hit": false,
      "t": 57724.12350000008,
      "d": 620.6895000000077,
      "v": 100
    },
    {
      "midi": 79,
      "hit": false,
      "t": 57931.02000000003,
      "d": 1238.792793749999,
      "v": 100
    },
    {
      "midi": 55,
      "hit": false,
      "t": 57931.020000000084,
      "d": 620.6895000000077,
      "v": 100
    },
    {
      "midi": 39,
      "hit": false,
      "t": 57931.020000000084,
      "d": 620.6895000000077,
      "v": 100
    },
    {
      "midi": 77,
      "hit": false,
      "t": 58137.916500000036,
      "d": 1034.4824999999983,
      "v": 100
    },
    {
      "midi": 63,
      "hit": false,
      "t": 58137.91650000009,
      "d": 620.6895000000077,
      "v": 100
    },
    {
      "midi": 43,
      "hit": false,
      "t": 58137.91650000009,
      "d": 1034.4825000000128,
      "v": 100
    },
    {
      "midi": 58,
      "hit": false,
      "t": 58344.81300000009,
      "d": 620.6895000000077,
      "v": 100
    },
    {
      "midi": 75,
      "hit": false,
      "t": 58551.70950000003,
      "d": 620.6895000000004,
      "v": 100
    },
    {
      "midi": 39,
      "hit": false,
      "t": 58551.70950000009,
      "d": 413.7930000000051,
      "v": 100
    },
    {
      "midi": 55,
      "hit": false,
      "t": 58551.70950000009,
      "d": 1034.4825000000128,
      "v": 100
    },
    {
      "midi": 46,
      "hit": false,
      "t": 58758.606000000094,
      "d": 413.7930000000051,
      "v": 100
    },
    {
      "midi": 63,
      "hit": false,
      "t": 58758.606000000094,
      "d": 2068.9650000000256,
      "v": 100
    },
    {
      "midi": 39,
      "hit": false,
      "t": 58965.5025000001,
      "d": 206.89650000000256,
      "v": 100
    },
    {
      "midi": 58,
      "hit": false,
      "t": 58965.5025000001,
      "d": 413.7930000000051,
      "v": 100
    },
    {
      "midi": 79,
      "hit": false,
      "t": 59172.399000000034,
      "d": 1655.172000000006,
      "v": 100
    },
    {
      "midi": 62,
      "hit": false,
      "t": 59172.3990000001,
      "d": 620.6895000000077,
      "v": 100
    },
    {
      "midi": 43,
      "hit": false,
      "t": 59172.3990000001,
      "d": 620.6895000000077,
      "v": 100
    },
    {
      "midi": 58,
      "hit": false,
      "t": 59379.2955000001,
      "d": 620.6895000000077,
      "v": 100
    },
    {
      "midi": 55,
      "hit": false,
      "t": 59586.192000000105,
      "d": 620.6895000000077,
      "v": 100
    },
    {
      "midi": 38,
      "hit": false,
      "t": 59586.192000000105,
      "d": 620.6895000000077,
      "v": 100
    },
    {
      "midi": 62,
      "hit": false,
      "t": 59793.08850000011,
      "d": 620.6895000000077,
      "v": 100
    },
    {
      "midi": 43,
      "hit": false,
      "t": 59793.08850000011,
      "d": 1034.4825000000128,
      "v": 100
    },
    {
      "midi": 58,
      "hit": false,
      "t": 59999.98500000011,
      "d": 620.6895000000077,
      "v": 100
    },
    {
      "midi": 81,
      "hit": false,
      "t": 60206.88150000003,
      "d": 620.6895000000077,
      "v": 100
    },
    {
      "midi": 38,
      "hit": false,
      "t": 60206.88150000011,
      "d": 413.7930000000051,
      "v": 100
    },
    {
      "midi": 55,
      "hit": false,
      "t": 60206.88150000011,
      "d": 1034.4825000000128,
      "v": 100
    },
    {
      "midi": 82,
      "hit": false,
      "t": 60413.778000000035,
      "d": 413.7930000000051,
      "v": 100
    },
    {
      "midi": 46,
      "hit": false,
      "t": 60413.778000000115,
      "d": 413.7930000000051,
      "v": 100
    },
    {
      "midi": 62,
      "hit": false,
      "t": 60413.778000000115,
      "d": 2068.9650000000256,
      "v": 100
    },
    {
      "midi": 86,
      "hit": false,
      "t": 60620.67450000004,
      "d": 206.89650000000256,
      "v": 100
    },
    {
      "midi": 38,
      "hit": false,
      "t": 60620.67450000012,
      "d": 206.89650000000256,
      "v": 100
    },
    {
      "midi": 58,
      "hit": false,
      "t": 60620.67450000012,
      "d": 413.7930000000051,
      "v": 100
    },
    {
      "midi": 87,
      "hit": false,
      "t": 60827.57100000004,
      "d": 1241.3790000000008,
      "v": 100
    },
    {
      "midi": 63,
      "hit": false,
      "t": 60827.57100000012,
      "d": 620.6895000000077,
      "v": 100
    },
    {
      "midi": 43,
      "hit": false,
      "t": 60827.57100000012,
      "d": 620.6895000000077,
      "v": 100
    },
    {
      "midi": 58,
      "hit": false,
      "t": 61034.46750000012,
      "d": 620.6895000000077,
      "v": 100
    },
    {
      "midi": 55,
      "hit": false,
      "t": 61241.364000000125,
      "d": 620.6895000000077,
      "v": 100
    },
    {
      "midi": 39,
      "hit": false,
      "t": 61241.364000000125,
      "d": 620.6895000000077,
      "v": 100
    },
    {
      "midi": 82,
      "hit": false,
      "t": 61448.26050000004,
      "d": 1034.4824999999983,
      "v": 100
    },
    {
      "midi": 63,
      "hit": false,
      "t": 61448.26050000013,
      "d": 620.6895000000077,
      "v": 100
    },
    {
      "midi": 43,
      "hit": false,
      "t": 61448.26050000013,
      "d": 1034.4825000000128,
      "v": 100
    },
    {
      "midi": 58,
      "hit": false,
      "t": 61655.15700000013,
      "d": 620.6895000000077,
      "v": 100
    },
    {
      "midi": 39,
      "hit": false,
      "t": 61862.05350000013,
      "d": 413.7930000000051,
      "v": 100
    },
    {
      "midi": 55,
      "hit": false,
      "t": 61862.05350000013,
      "d": 1034.4825000000128,
      "v": 100
    },
    {
      "midi": 87,
      "hit": false,
      "t": 62068.95000000004,
      "d": 413.79299999999785,
      "v": 100
    },
    {
      "midi": 46,
      "hit": false,
      "t": 62068.950000000135,
      "d": 413.7930000000051,
      "v": 100
    },
    {
      "midi": 63,
      "hit": false,
      "t": 62068.950000000135,
      "d": 2068.9650000000183,
      "v": 100
    },
    {
      "midi": 39,
      "hit": false,
      "t": 62275.84650000014,
      "d": 206.89650000000256,
      "v": 100
    },
    {
      "midi": 58,
      "hit": false,
      "t": 62275.84650000014,
      "d": 413.7930000000051,
      "v": 100
    },
    {
      "midi": 88,
      "hit": false,
      "t": 62482.74300000004,
      "d": 1241.3790000000008,
      "v": 100
    },
    {
      "midi": 64,
      "hit": false,
      "t": 62482.74300000014,
      "d": 620.6895000000077,
      "v": 100
    },
    {
      "midi": 43,
      "hit": false,
      "t": 62482.74300000014,
      "d": 620.6895000000077,
      "v": 100
    },
    {
      "midi": 58,
      "hit": false,
      "t": 62689.63950000014,
      "d": 620.6895000000077,
      "v": 100
    },
    {
      "midi": 55,
      "hit": false,
      "t": 62896.536000000146,
      "d": 620.6895000000077,
      "v": 100
    },
    {
      "midi": 40,
      "hit": false,
      "t": 62896.536000000146,
      "d": 620.6895000000077,
      "v": 100
    },
    {
      "midi": 82,
      "hit": false,
      "t": 63103.43250000004,
      "d": 1034.4824999999983,
      "v": 100
    },
    {
      "midi": 64,
      "hit": false,
      "t": 63103.43250000015,
      "d": 620.6895000000077,
      "v": 100
    },
    {
      "midi": 43,
      "hit": false,
      "t": 63103.43250000015,
      "d": 1034.4825000000055,
      "v": 100
    },
    {
      "midi": 58,
      "hit": false,
      "t": 63310.32900000015,
      "d": 615.517087500004,
      "v": 100
    },
    {
      "midi": 40,
      "hit": false,
      "t": 63517.22550000015,
      "d": 413.79299999999785,
      "v": 100
    },
    {
      "midi": 55,
      "hit": false,
      "t": 63517.22550000015,
      "d": 1034.4825000000055,
      "v": 100
    },
    {
      "midi": 88,
      "hit": false,
      "t": 63724.12200000004,
      "d": 413.79299999999785,
      "v": 100
    },
    {
      "midi": 46,
      "hit": false,
      "t": 63724.122000000156,
      "d": 413.79299999999785,
      "v": 100
    },
    {
      "midi": 64,
      "hit": false,
      "t": 63724.122000000156,
      "d": 2068.9650000000183,
      "v": 100
    },
    {
      "midi": 40,
      "hit": false,
      "t": 63931.01850000015,
      "d": 206.89650000000256,
      "v": 100
    },
    {
      "midi": 58,
      "hit": false,
      "t": 63931.01850000015,
      "d": 413.7930000000051,
      "v": 100
    },
    {
      "midi": 87,
      "hit": false,
      "t": 64137.91500000004,
      "d": 1034.4824999999983,
      "v": 100
    },
    {
      "midi": 63,
      "hit": false,
      "t": 64137.915000000154,
      "d": 620.6895000000077,
      "v": 100
    },
    {
      "midi": 43,
      "hit": false,
      "t": 64137.915000000154,
      "d": 620.6895000000077,
      "v": 100
    },
    {
      "midi": 58,
      "hit": false,
      "t": 64344.811500000156,
      "d": 620.6895000000077,
      "v": 100
    },
    {
      "midi": 91,
      "hit": false,
      "t": 64551.708000000035,
      "d": 1238.792793749999,
      "v": 100
    },
    {
      "midi": 55,
      "hit": false,
      "t": 64551.70800000016,
      "d": 620.6895000000077,
      "v": 100
    },
    {
      "midi": 39,
      "hit": false,
      "t": 64551.70800000016,
      "d": 620.6895000000077,
      "v": 100
    },
    {
      "midi": 89,
      "hit": false,
      "t": 64758.60450000004,
      "d": 1034.482499999991,
      "v": 100
    },
    {
      "midi": 63,
      "hit": false,
      "t": 64758.60450000016,
      "d": 620.6895000000077,
      "v": 100
    },
    {
      "midi": 43,
      "hit": false,
      "t": 64758.60450000016,
      "d": 1034.4825000000128,
      "v": 100
    },
    {
      "midi": 58,
      "hit": false,
      "t": 64965.501000000164,
      "d": 620.6895000000077,
      "v": 100
    },
    {
      "midi": 87,
      "hit": false,
      "t": 65172.397500000036,
      "d": 620.6894999999931,
      "v": 100
    },
    {
      "midi": 39,
      "hit": false,
      "t": 65172.39750000017,
      "d": 413.7930000000051,
      "v": 100
    },
    {
      "midi": 55,
      "hit": false,
      "t": 65172.39750000017,
      "d": 620.6895000000077,
      "v": 100
    },
    {
      "midi": 63,
      "hit": false,
      "t": 65379.29400000017,
      "d": 413.7930000000051,
      "v": 100
    },
    {
      "midi": 46,
      "hit": false,
      "t": 65379.29400000017,
      "d": 413.7930000000051,
      "v": 100
    },
    {
      "midi": 39,
      "hit": false,
      "t": 65586.19050000017,
      "d": 206.89650000000256,
      "v": 100
    },
    {
      "midi": 58,
      "hit": false,
      "t": 65586.19050000017,
      "d": 206.89650000000256,
      "v": 100
    },
    {
      "midi": 72,
      "hit": false,
      "t": 65793.08700000003,
      "d": 620.6894999999931,
      "v": 100
    },
    {
      "midi": 57,
      "hit": false,
      "t": 65793.08700000017,
      "d": 1655.172000000006,
      "v": 100
    },
    {
      "midi": 60,
      "hit": false,
      "t": 65793.08700000017,
      "d": 1655.172000000006,
      "v": 100
    },
    {
      "midi": 54,
      "hit": false,
      "t": 65795.67320625017,
      "d": 618.1032937499986,
      "v": 100
    },
    {
      "midi": 48,
      "hit": false,
      "t": 65999.98350000016,
      "d": 620.6895000000077,
      "v": 100
    },
    {
      "midi": 69,
      "hit": false,
      "t": 66002.56970625003,
      "d": 1031.8962937500037,
      "v": 100
    },
    {
      "midi": 70,
      "hit": false,
      "t": 66206.88000000002,
      "d": 620.6895000000077,
      "v": 100
    },
    {
      "midi": 45,
      "hit": false,
      "t": 66206.88000000016,
      "d": 1241.3790000000154,
      "v": 100
    },
    {
      "midi": 72,
      "hit": false,
      "t": 66413.77650000002,
      "d": 1034.4825000000128,
      "v": 100
    },
    {
      "midi": 54,
      "hit": false,
      "t": 66413.77650000017,
      "d": 620.6895000000077,
      "v": 100
    },
    {
      "midi": 48,
      "hit": false,
      "t": 66620.67300000017,
      "d": 620.6895000000077,
      "v": 100
    },
    {
      "midi": 70,
      "hit": false,
      "t": 66827.56950000003,
      "d": 620.6895000000077,
      "v": 100
    },
    {
      "midi": 69,
      "hit": false,
      "t": 67034.46600000003,
      "d": 413.7930000000051,
      "v": 100
    },
    {
      "midi": 54,
      "hit": false,
      "t": 67034.46600000017,
      "d": 413.7930000000051,
      "v": 100
    },
    {
      "midi": 48,
      "hit": false,
      "t": 67241.36250000018,
      "d": 206.89650000000256,
      "v": 100
    },
    {
      "midi": 69,
      "hit": false,
      "t": 67448.25900000003,
      "d": 620.6894999999931,
      "v": 100
    },
    {
      "midi": 54,
      "hit": false,
      "t": 67448.25900000018,
      "d": 2.586206249994575,
      "v": 100
    },
    {
      "midi": 57,
      "hit": false,
      "t": 67448.25900000018,
      "d": 1655.172000000006,
      "v": 100
    },
    {
      "midi": 60,
      "hit": false,
      "t": 67448.25900000018,
      "d": 1655.172000000006,
      "v": 100
    },
    {
      "midi": 48,
      "hit": false,
      "t": 67655.15550000017,
      "d": 620.6895000000077,
      "v": 100
    },
    {
      "midi": 66,
      "hit": false,
      "t": 67657.74170625003,
      "d": 1031.8962937500037,
      "v": 100
    },
    {
      "midi": 67,
      "hit": false,
      "t": 67862.05200000003,
      "d": 620.6895000000077,
      "v": 100
    },
    {
      "midi": 45,
      "hit": false,
      "t": 67862.05200000017,
      "d": 1241.3790000000154,
      "v": 100
    },
    {
      "midi": 69,
      "hit": false,
      "t": 68068.94850000003,
      "d": 1034.4825000000128,
      "v": 100
    },
    {
      "midi": 54,
      "hit": false,
      "t": 68068.94850000017,
      "d": 620.6895000000077,
      "v": 100
    },
    {
      "midi": 48,
      "hit": false,
      "t": 68275.84500000018,
      "d": 620.6895000000077,
      "v": 100
    },
    {
      "midi": 67,
      "hit": false,
      "t": 68482.74150000003,
      "d": 620.6895000000077,
      "v": 100
    },
    {
      "midi": 66,
      "hit": false,
      "t": 68689.63800000004,
      "d": 413.7930000000051,
      "v": 100
    },
    {
      "midi": 54,
      "hit": false,
      "t": 68689.63800000018,
      "d": 413.7930000000051,
      "v": 100
    },
    {
      "midi": 48,
      "hit": false,
      "t": 68896.53450000018,
      "d": 206.89650000000256,
      "v": 100
    },
    {
      "midi": 77,
      "hit": false,
      "t": 69103.43100000004,
      "d": 1655.172000000006,
      "v": 100
    },
    {
      "midi": 44,
      "hit": false,
      "t": 69103.43100000019,
      "d": 620.6895000000077,
      "v": 100
    },
    {
      "midi": 56,
      "hit": false,
      "t": 69103.43100000019,
      "d": 1655.1720000000205,
      "v": 100
    },
    {
      "midi": 60,
      "hit": false,
      "t": 69103.43100000019,
      "d": 1655.1720000000205,
      "v": 100
    },
    {
      "midi": 65,
      "hit": false,
      "t": 69103.43100000019,
      "d": 1655.1720000000205,
      "v": 100
    },
    {
      "midi": 48,
      "hit": false,
      "t": 69310.32750000019,
      "d": 620.6895000000077,
      "v": 100
    },
    {
      "midi": 72,
      "hit": false,
      "t": 69312.91370625004,
      "d": 1031.8962937500037,
      "v": 100
    },
    {
      "midi": 74,
      "hit": false,
      "t": 69517.22400000003,
      "d": 620.6895000000077,
      "v": 100
    },
    {
      "midi": 53,
      "hit": false,
      "t": 69517.22400000019,
      "d": 620.6895000000077,
      "v": 100
    },
    {
      "midi": 75,
      "hit": false,
      "t": 69724.12050000003,
      "d": 1034.4825000000128,
      "v": 100
    },
    {
      "midi": 44,
      "hit": false,
      "t": 69724.1205000002,
      "d": 620.6895000000077,
      "v": 100
    },
    {
      "midi": 48,
      "hit": false,
      "t": 69931.0170000002,
      "d": 620.6895000000077,
      "v": 100
    },
    {
      "midi": 74,
      "hit": false,
      "t": 70137.91350000004,
      "d": 620.6895000000077,
      "v": 100
    },
    {
      "midi": 53,
      "hit": false,
      "t": 70137.9135000002,
      "d": 620.6895000000077,
      "v": 100
    },
    {
      "midi": 72,
      "hit": false,
      "t": 70344.81000000004,
      "d": 413.7930000000051,
      "v": 100
    },
    {
      "midi": 44,
      "hit": false,
      "t": 70344.8100000002,
      "d": 413.7930000000051,
      "v": 100
    },
    {
      "midi": 48,
      "hit": false,
      "t": 70551.7065000002,
      "d": 206.89650000000256,
      "v": 100
    },
    {
      "midi": 72,
      "hit": false,
      "t": 70758.60300000005,
      "d": 620.6894999999931,
      "v": 100
    },
    {
      "midi": 44,
      "hit": false,
      "t": 70758.6030000002,
      "d": 620.6895000000077,
      "v": 100
    },
    {
      "midi": 60,
      "hit": false,
      "t": 70758.6030000002,
      "d": 1655.1720000000205,
      "v": 100
    },
    {
      "midi": 56,
      "hit": false,
      "t": 70758.6030000002,
      "d": 1655.1720000000205,
      "v": 100
    },
    {
      "midi": 48,
      "hit": false,
      "t": 70965.49950000021,
      "d": 620.6895000000077,
      "v": 100
    },
    {
      "midi": 68,
      "hit": false,
      "t": 70968.08570625004,
      "d": 1445.6892937500088,
      "v": 100
    },
    {
      "midi": 70,
      "hit": false,
      "t": 71172.39600000004,
      "d": 1241.3790000000154,
      "v": 100
    },
    {
      "midi": 53,
      "hit": false,
      "t": 71172.39600000021,
      "d": 620.6895000000077,
      "v": 100
    },
    {
      "midi": 72,
      "hit": false,
      "t": 71379.29250000004,
      "d": 1034.4825000000128,
      "v": 100
    },
    {
      "midi": 44,
      "hit": false,
      "t": 71379.29250000021,
      "d": 620.6895000000077,
      "v": 100
    },
    {
      "midi": 48,
      "hit": false,
      "t": 71586.18900000022,
      "d": 620.6895000000077,
      "v": 100
    },
    {
      "midi": 74,
      "hit": false,
      "t": 71793.08550000004,
      "d": 620.6895000000077,
      "v": 100
    },
    {
      "midi": 53,
      "hit": false,
      "t": 71793.08550000022,
      "d": 620.6895000000077,
      "v": 100
    },
    {
      "midi": 75,
      "hit": false,
      "t": 71999.98200000005,
      "d": 413.7930000000051,
      "v": 100
    },
    {
      "midi": 44,
      "hit": false,
      "t": 71999.98200000022,
      "d": 413.7930000000051,
      "v": 100
    },
    {
      "midi": 48,
      "hit": false,
      "t": 72206.87850000022,
      "d": 206.89650000000256,
      "v": 100
    },
    {
      "midi": 72,
      "hit": false,
      "t": 72413.77500000005,
      "d": 620.6894999999931,
      "v": 100
    },
    {
      "midi": 54,
      "hit": false,
      "t": 72413.77500000023,
      "d": 620.6895000000077,
      "v": 100
    },
    {
      "midi": 57,
      "hit": false,
      "t": 72413.77500000023,
      "d": 1655.1720000000205,
      "v": 100
    },
    {
      "midi": 66,
      "hit": false,
      "t": 72413.77500000023,
      "d": 1655.1720000000205,
      "v": 100
    },
    {
      "midi": 60,
      "hit": false,
      "t": 72413.77500000023,
      "d": 1655.1720000000205,
      "v": 100
    },
    {
      "midi": 48,
      "hit": false,
      "t": 72620.67150000023,
      "d": 620.6895000000077,
      "v": 100
    },
    {
      "midi": 69,
      "hit": false,
      "t": 72623.25770625005,
      "d": 1031.8962937500037,
      "v": 100
    },
    {
      "midi": 70,
      "hit": false,
      "t": 72827.56800000004,
      "d": 620.6895000000077,
      "v": 100
    },
    {
      "midi": 45,
      "hit": false,
      "t": 72827.56800000023,
      "d": 1241.3790000000154,
      "v": 100
    },
    {
      "midi": 72,
      "hit": false,
      "t": 73034.46450000005,
      "d": 1034.4825000000128,
      "v": 100
    },
    {
      "midi": 54,
      "hit": false,
      "t": 73034.46450000023,
      "d": 620.6895000000077,
      "v": 100
    },
    {
      "midi": 48,
      "hit": false,
      "t": 73241.36100000024,
      "d": 620.6895000000077,
      "v": 100
    },
    {
      "midi": 70,
      "hit": false,
      "t": 73448.25750000005,
      "d": 620.6895000000077,
      "v": 100
    },
    {
      "midi": 69,
      "hit": false,
      "t": 73655.15400000005,
      "d": 413.7930000000051,
      "v": 100
    },
    {
      "midi": 54,
      "hit": false,
      "t": 73655.15400000024,
      "d": 413.7930000000051,
      "v": 100
    },
    {
      "midi": 48,
      "hit": false,
      "t": 73862.05050000024,
      "d": 206.89650000000256,
      "v": 100
    },
    {
      "midi": 69,
      "hit": false,
      "t": 74068.94700000006,
      "d": 620.6894999999931,
      "v": 100
    },
    {
      "midi": 54,
      "hit": false,
      "t": 74068.94700000025,
      "d": 620.6895000000077,
      "v": 100
    },
    {
      "midi": 60,
      "hit": false,
      "t": 74068.94700000025,
      "d": 1655.1720000000205,
      "v": 100
    },
    {
      "midi": 57,
      "hit": false,
      "t": 74068.94700000025,
      "d": 1655.1720000000205,
      "v": 100
    },
    {
      "midi": 66,
      "hit": false,
      "t": 74068.94700000025,
      "d": 1655.1720000000205,
      "v": 100
    },
    {
      "midi": 48,
      "hit": false,
      "t": 74275.84350000025,
      "d": 620.6895000000077,
      "v": 100
    },
    {
      "midi": 66,
      "hit": false,
      "t": 74278.42970625006,
      "d": 1031.8962937500037,
      "v": 100
    },
    {
      "midi": 67,
      "hit": false,
      "t": 74482.74000000005,
      "d": 620.6895000000077,
      "v": 100
    },
    {
      "midi": 45,
      "hit": false,
      "t": 74482.74000000025,
      "d": 1241.3790000000154,
      "v": 100
    },
    {
      "midi": 69,
      "hit": false,
      "t": 74689.63650000005,
      "d": 1034.4825000000128,
      "v": 100
    },
    {
      "midi": 54,
      "hit": false,
      "t": 74689.63650000026,
      "d": 620.6895000000077,
      "v": 100
    },
    {
      "midi": 48,
      "hit": false,
      "t": 74896.53300000026,
      "d": 620.6895000000077,
      "v": 100
    },
    {
      "midi": 67,
      "hit": false,
      "t": 75103.42950000006,
      "d": 620.6895000000077,
      "v": 100
    },
    {
      "midi": 66,
      "hit": false,
      "t": 75310.32600000006,
      "d": 413.7930000000051,
      "v": 100
    },
    {
      "midi": 54,
      "hit": false,
      "t": 75310.32600000026,
      "d": 413.7930000000051,
      "v": 100
    },
    {
      "midi": 48,
      "hit": false,
      "t": 75517.22250000027,
      "d": 206.89650000000256,
      "v": 100
    },
    {
      "midi": 62,
      "hit": false,
      "t": 75724.11900000006,
      "d": 620.6894999999931,
      "v": 100
    },
    {
      "midi": 54,
      "hit": false,
      "t": 75724.11900000027,
      "d": 206.89650000000256,
      "v": 100
    },
    {
      "midi": 50,
      "hit": false,
      "t": 75724.11900000027,
      "d": 620.6895000000077,
      "v": 100
    },
    {
      "midi": 54,
      "hit": false,
      "t": 75931.01550000027,
      "d": 413.7930000000051,
      "v": 100
    },
    {
      "midi": 63,
      "hit": false,
      "t": 76344.80850000006,
      "d": 1034.4824999999983,
      "v": 100
    },
    {
      "midi": 54,
      "hit": false,
      "t": 76344.80850000028,
      "d": 827.5859999999957,
      "v": 100
    },
    {
      "midi": 51,
      "hit": false,
      "t": 76344.80850000028,
      "d": 1034.4824999999983,
      "v": 100
    },
    {
      "midi": 54,
      "hit": false,
      "t": 77172.39450000027,
      "d": 206.89650000000256,
      "v": 100
    },
    {
      "midi": 62,
      "hit": false,
      "t": 77379.29100000006,
      "d": 1655.172000000006,
      "v": 100
    },
    {
      "midi": 54,
      "hit": false,
      "t": 77379.29100000027,
      "d": 206.89650000000256,
      "v": 100
    },
    {
      "midi": 69,
      "hit": false,
      "t": 77379.29100000027,
      "d": 1655.1720000000205,
      "v": 100
    },
    {
      "midi": 50,
      "hit": false,
      "t": 77379.29100000027,
      "d": 1655.1720000000205,
      "v": 100
    },
    {
      "midi": 54,
      "hit": false,
      "t": 77586.18750000028,
      "d": 206.89650000000256,
      "v": 100
    },
    {
      "midi": 66,
      "hit": false,
      "t": 77999.98050000005,
      "d": 1034.4825000000128,
      "v": 100
    },
    {
      "midi": 72,
      "hit": false,
      "t": 77999.98050000028,
      "d": 1034.4825000000128,
      "v": 100
    },
    {
      "midi": 54,
      "hit": false,
      "t": 77999.98050000028,
      "d": 1034.4825000000128,
      "v": 100
    },
    {
      "midi": 69,
      "hit": false,
      "t": 78413.77350000005,
      "d": 620.6895000000077,
      "v": 100
    },
    {
      "midi": 57,
      "hit": false,
      "t": 78413.77350000029,
      "d": 620.6895000000077,
      "v": 100
    },
    {
      "midi": 62,
      "hit": false,
      "t": 78413.77350000029,
      "d": 620.6895000000077,
      "v": 100
    },
    {
      "midi": 72,
      "hit": false,
      "t": 78827.56650000006,
      "d": 206.89650000000256,
      "v": 100
    },
    {
      "midi": 66,
      "hit": false,
      "t": 78827.56650000029,
      "d": 206.89650000000256,
      "v": 100
    },
    {
      "midi": 60,
      "hit": false,
      "t": 78827.56650000029,
      "d": 206.89650000000256,
      "v": 100
    },
    {
      "midi": 74,
      "hit": false,
      "t": 79034.46300000006,
      "d": 206.89650000000256,
      "v": 100
    },
    {
      "midi": 55,
      "hit": false,
      "t": 79034.4630000003,
      "d": 620.6894999999931,
      "v": 100
    },
    {
      "midi": 58,
      "hit": false,
      "t": 79034.4630000003,
      "d": 620.6894999999931,
      "v": 100
    },
    {
      "midi": 62,
      "hit": false,
      "t": 79034.4630000003,
      "d": 620.6894999999931,
      "v": 100
    },
    {
      "midi": 70,
      "hit": false,
      "t": 79034.4630000003,
      "d": 1655.1719999999914,
      "v": 100
    },
    {
      "midi": 70,
      "hit": false,
      "t": 79241.35950000006,
      "d": 206.89650000000256,
      "v": 100
    },
    {
      "midi": 67,
      "hit": false,
      "t": 79448.25600000007,
      "d": 206.89650000000256,
      "v": 100
    },
    {
      "midi": 74,
      "hit": false,
      "t": 79655.15250000007,
      "d": 206.89650000000256,
      "v": 100
    },
    {
      "midi": 58,
      "hit": false,
      "t": 79655.15250000029,
      "d": 620.6894999999931,
      "v": 100
    },
    {
      "midi": 55,
      "hit": false,
      "t": 79655.15250000029,
      "d": 620.6894999999931,
      "v": 100
    },
    {
      "midi": 62,
      "hit": false,
      "t": 79655.15250000029,
      "d": 620.6894999999931,
      "v": 100
    },
    {
      "midi": 70,
      "hit": false,
      "t": 79862.04900000007,
      "d": 206.89650000000256,
      "v": 100
    },
    {
      "midi": 67,
      "hit": false,
      "t": 80068.94550000007,
      "d": 206.89650000000256,
      "v": 100
    },
    {
      "midi": 70,
      "hit": false,
      "t": 80275.84200000008,
      "d": 206.89650000000256,
      "v": 100
    },
    {
      "midi": 55,
      "hit": false,
      "t": 80275.84200000028,
      "d": 413.7930000000051,
      "v": 100
    },
    {
      "midi": 58,
      "hit": false,
      "t": 80275.84200000028,
      "d": 413.7930000000051,
      "v": 100
    },
    {
      "midi": 62,
      "hit": false,
      "t": 80275.84200000028,
      "d": 413.7930000000051,
      "v": 100
    },
    {
      "midi": 74,
      "hit": false,
      "t": 80482.73850000008,
      "d": 206.89650000000256,
      "v": 100
    },
    {
      "midi": 72,
      "hit": false,
      "t": 80689.63500000008,
      "d": 206.89650000000256,
      "v": 100
    },
    {
      "midi": 56,
      "hit": false,
      "t": 80689.63500000029,
      "d": 620.6894999999931,
      "v": 100
    },
    {
      "midi": 60,
      "hit": false,
      "t": 80689.63500000029,
      "d": 620.6894999999931,
      "v": 100
    },
    {
      "midi": 53,
      "hit": false,
      "t": 80689.63500000029,
      "d": 620.6894999999931,
      "v": 100
    },
    {
      "midi": 68,
      "hit": false,
      "t": 80896.53150000008,
      "d": 206.89650000000256,
      "v": 100
    },
    {
      "midi": 65,
      "hit": false,
      "t": 81103.42800000009,
      "d": 206.89650000000256,
      "v": 100
    },
    {
      "midi": 72,
      "hit": false,
      "t": 81310.32450000009,
      "d": 206.89650000000256,
      "v": 100
    },
    {
      "midi": 56,
      "hit": false,
      "t": 81310.32450000028,
      "d": 620.6894999999931,
      "v": 100
    },
    {
      "midi": 60,
      "hit": false,
      "t": 81310.32450000028,
      "d": 620.6894999999931,
      "v": 100
    },
    {
      "midi": 53,
      "hit": false,
      "t": 81310.32450000028,
      "d": 620.6894999999931,
      "v": 100
    },
    {
      "midi": 68,
      "hit": false,
      "t": 81517.22100000009,
      "d": 206.89650000000256,
      "v": 100
    },
    {
      "midi": 65,
      "hit": false,
      "t": 81724.1175000001,
      "d": 206.89650000000256,
      "v": 100
    },
    {
      "midi": 68,
      "hit": false,
      "t": 81931.0140000001,
      "d": 206.89650000000256,
      "v": 100
    },
    {
      "midi": 56,
      "hit": false,
      "t": 81931.01400000027,
      "d": 413.7930000000051,
      "v": 100
    },
    {
      "midi": 60,
      "hit": false,
      "t": 81931.01400000027,
      "d": 413.7930000000051,
      "v": 100
    },
    {
      "midi": 53,
      "hit": false,
      "t": 81931.01400000027,
      "d": 413.7930000000051,
      "v": 100
    },
    {
      "midi": 72,
      "hit": false,
      "t": 82137.9105000001,
      "d": 206.89650000000256,
      "v": 100
    },
    {
      "midi": 71,
      "hit": false,
      "t": 82344.8070000001,
      "d": 206.89650000000256,
      "v": 100
    },
    {
      "midi": 52,
      "hit": false,
      "t": 82344.80700000028,
      "d": 620.6894999999931,
      "v": 100
    },
    {
      "midi": 59,
      "hit": false,
      "t": 82344.80700000028,
      "d": 620.6894999999931,
      "v": 100
    },
    {
      "midi": 55,
      "hit": false,
      "t": 82344.80700000028,
      "d": 620.6894999999931,
      "v": 100
    },
    {
      "midi": 67,
      "hit": false,
      "t": 82551.7035000001,
      "d": 206.89650000000256,
      "v": 100
    },
    {
      "midi": 64,
      "hit": false,
      "t": 82758.60000000011,
      "d": 206.89650000000256,
      "v": 100
    },
    {
      "midi": 71,
      "hit": false,
      "t": 82965.49650000011,
      "d": 206.89650000000256,
      "v": 100
    },
    {
      "midi": 52,
      "hit": false,
      "t": 82965.49650000027,
      "d": 620.6894999999931,
      "v": 100
    },
    {
      "midi": 55,
      "hit": false,
      "t": 82965.49650000027,
      "d": 620.6894999999931,
      "v": 100
    },
    {
      "midi": 59,
      "hit": false,
      "t": 82965.49650000027,
      "d": 620.6894999999931,
      "v": 100
    },
    {
      "midi": 67,
      "hit": false,
      "t": 83172.39300000011,
      "d": 206.89650000000256,
      "v": 100
    },
    {
      "midi": 64,
      "hit": false,
      "t": 83379.28950000012,
      "d": 206.89650000000256,
      "v": 100
    },
    {
      "midi": 67,
      "hit": false,
      "t": 83586.18600000012,
      "d": 206.89650000000256,
      "v": 100
    },
    {
      "midi": 52,
      "hit": false,
      "t": 83586.18600000026,
      "d": 413.7930000000051,
      "v": 100
    },
    {
      "midi": 59,
      "hit": false,
      "t": 83586.18600000026,
      "d": 413.7930000000051,
      "v": 100
    },
    {
      "midi": 55,
      "hit": false,
      "t": 83586.18600000026,
      "d": 413.7930000000051,
      "v": 100
    },
    {
      "midi": 71,
      "hit": false,
      "t": 83793.08250000012,
      "d": 206.89650000000256,
      "v": 100
    },
    {
      "midi": 72,
      "hit": false,
      "t": 83999.97900000012,
      "d": 206.89650000000256,
      "v": 100
    },
    {
      "midi": 56,
      "hit": false,
      "t": 83999.97900000027,
      "d": 620.6894999999931,
      "v": 100
    },
    {
      "midi": 53,
      "hit": false,
      "t": 83999.97900000027,
      "d": 620.6894999999931,
      "v": 100
    },
    {
      "midi": 60,
      "hit": false,
      "t": 83999.97900000027,
      "d": 620.6894999999931,
      "v": 100
    },
    {
      "midi": 68,
      "hit": false,
      "t": 84206.87550000013,
      "d": 206.89650000000256,
      "v": 100
    },
    {
      "midi": 65,
      "hit": false,
      "t": 84413.77200000013,
      "d": 206.89650000000256,
      "v": 100
    },
    {
      "midi": 72,
      "hit": false,
      "t": 84620.66850000013,
      "d": 206.89650000000256,
      "v": 100
    },
    {
      "midi": 56,
      "hit": false,
      "t": 84620.66850000026,
      "d": 620.6894999999931,
      "v": 100
    },
    {
      "midi": 53,
      "hit": false,
      "t": 84620.66850000026,
      "d": 620.6894999999931,
      "v": 100
    },
    {
      "midi": 60,
      "hit": false,
      "t": 84620.66850000026,
      "d": 620.6894999999931,
      "v": 100
    },
    {
      "midi": 68,
      "hit": false,
      "t": 84827.56500000013,
      "d": 206.89650000000256,
      "v": 100
    },
    {
      "midi": 65,
      "hit": false,
      "t": 85034.46150000014,
      "d": 206.89650000000256,
      "v": 100
    },
    {
      "midi": 68,
      "hit": false,
      "t": 85241.35800000014,
      "d": 206.89650000000256,
      "v": 100
    },
    {
      "midi": 56,
      "hit": false,
      "t": 85241.35800000025,
      "d": 413.7930000000051,
      "v": 100
    },
    {
      "midi": 53,
      "hit": false,
      "t": 85241.35800000025,
      "d": 413.7930000000051,
      "v": 100
    },
    {
      "midi": 60,
      "hit": false,
      "t": 85241.35800000025,
      "d": 413.7930000000051,
      "v": 100
    },
    {
      "midi": 72,
      "hit": false,
      "t": 85448.25450000014,
      "d": 206.89650000000256,
      "v": 100
    },
    {
      "midi": 74,
      "hit": false,
      "t": 85655.15100000014,
      "d": 2482.757999999987,
      "v": 100
    },
    {
      "midi": 50,
      "hit": false,
      "t": 85655.15100000026,
      "d": 413.79299999999057,
      "v": 100
    },
    {
      "midi": 62,
      "hit": false,
      "t": 85655.15100000026,
      "d": 3310.3440000000264,
      "v": 100
    },
    {
      "midi": 58,
      "hit": false,
      "t": 85657.73720625025,
      "d": 3307.757793750032,
      "v": 100
    },
    {
      "midi": 55,
      "hit": false,
      "t": 85862.04750000025,
      "d": 827.5860000000102,
      "v": 100
    },
    {
      "midi": 50,
      "hit": false,
      "t": 86068.94400000025,
      "d": 413.7930000000051,
      "v": 100
    },
    {
      "midi": 46,
      "hit": false,
      "t": 86275.84050000025,
      "d": 827.5860000000102,
      "v": 100
    },
    {
      "midi": 50,
      "hit": false,
      "t": 86482.73700000026,
      "d": 413.7930000000051,
      "v": 100
    },
    {
      "midi": 72,
      "hit": false,
      "t": 86689.63350000014,
      "d": 1172.413499999995,
      "v": 100
    },
    {
      "midi": 55,
      "hit": false,
      "t": 86689.63350000026,
      "d": 827.5860000000102,
      "v": 100
    },
    {
      "midi": 50,
      "hit": false,
      "t": 86896.53000000026,
      "d": 413.7930000000051,
      "v": 100
    },
    {
      "midi": 70,
      "hit": false,
      "t": 87103.42650000015,
      "d": 482.7584999999963,
      "v": 100
    },
    {
      "midi": 46,
      "hit": false,
      "t": 87103.42650000026,
      "d": 827.5860000000102,
      "v": 100
    },
    {
      "midi": 69,
      "hit": false,
      "t": 87310.32300000015,
      "d": 1655.1719999999623,
      "v": 100
    },
    {
      "midi": 50,
      "hit": false,
      "t": 87310.32300000027,
      "d": 413.7930000000051,
      "v": 100
    },
    {
      "midi": 55,
      "hit": false,
      "t": 87517.21950000027,
      "d": 827.5860000000102,
      "v": 100
    },
    {
      "midi": 70,
      "hit": false,
      "t": 87586.18500000014,
      "d": 1379.3099999999686,
      "v": 100
    },
    {
      "midi": 50,
      "hit": false,
      "t": 87724.11600000027,
      "d": 413.7930000000051,
      "v": 100
    },
    {
      "midi": 72,
      "hit": false,
      "t": 87862.04700000014,
      "d": 1103.4479999999749,
      "v": 100
    },
    {
      "midi": 46,
      "hit": false,
      "t": 87931.01250000027,
      "d": 827.5860000000102,
      "v": 100
    },
    {
      "midi": 74,
      "hit": false,
      "t": 88137.90900000013,
      "d": 827.5859999999811,
      "v": 100
    },
    {
      "midi": 50,
      "hit": false,
      "t": 88137.90900000028,
      "d": 413.7930000000051,
      "v": 100
    },
    {
      "midi": 55,
      "hit": false,
      "t": 88344.80550000028,
      "d": 620.6895000000077,
      "v": 100
    },
    {
      "midi": 75,
      "hit": false,
      "t": 88413.77100000012,
      "d": 551.7239999999874,
      "v": 100
    },
    {
      "midi": 50,
      "hit": false,
      "t": 88551.70200000028,
      "d": 413.7930000000051,
      "v": 100
    },
    {
      "midi": 77,
      "hit": false,
      "t": 88689.63300000012,
      "d": 275.8619999999937,
      "v": 100
    },
    {
      "midi": 46,
      "hit": false,
      "t": 88758.59850000028,
      "d": 206.89650000000256,
      "v": 100
    },
    {
      "midi": 77,
      "hit": false,
      "t": 88965.49500000011,
      "d": 3034.4819999999745,
      "v": 100
    },
    {
      "midi": 48,
      "hit": false,
      "t": 88965.49500000029,
      "d": 413.7930000000051,
      "v": 100
    },
    {
      "midi": 56,
      "hit": false,
      "t": 88965.49500000029,
      "d": 3310.344000000041,
      "v": 100
    },
    {
      "midi": 60,
      "hit": false,
      "t": 88965.49500000029,
      "d": 3310.344000000041,
      "v": 100
    },
    {
      "midi": 53,
      "hit": false,
      "t": 89172.39150000029,
      "d": 827.5860000000102,
      "v": 100
    },
    {
      "midi": 48,
      "hit": false,
      "t": 89379.28800000029,
      "d": 413.7930000000051,
      "v": 100
    },
    {
      "midi": 44,
      "hit": false,
      "t": 89586.1845000003,
      "d": 827.5860000000102,
      "v": 100
    },
    {
      "midi": 48,
      "hit": false,
      "t": 89793.0810000003,
      "d": 413.7930000000051,
      "v": 100
    },
    {
      "midi": 75,
      "hit": false,
      "t": 89999.97750000011,
      "d": 620.6895000000077,
      "v": 100
    },
    {
      "midi": 53,
      "hit": false,
      "t": 89999.9775000003,
      "d": 827.5860000000102,
      "v": 100
    },
    {
      "midi": 48,
      "hit": false,
      "t": 90206.8740000003,
      "d": 413.7930000000051,
      "v": 100
    },
    {
      "midi": 74,
      "hit": false,
      "t": 90413.77050000012,
      "d": 482.7584999999963,
      "v": 100
    },
    {
      "midi": 44,
      "hit": false,
      "t": 90413.7705000003,
      "d": 827.5860000000102,
      "v": 100
    },
    {
      "midi": 75,
      "hit": false,
      "t": 90620.66700000012,
      "d": 1103.4479999999749,
      "v": 100
    },
    {
      "midi": 48,
      "hit": false,
      "t": 90620.6670000003,
      "d": 413.7930000000051,
      "v": 100
    },
    {
      "midi": 53,
      "hit": false,
      "t": 90827.56350000031,
      "d": 827.5860000000102,
      "v": 100
    },
    {
      "midi": 74,
      "hit": false,
      "t": 90896.52900000011,
      "d": 551.7239999999874,
      "v": 100
    },
    {
      "midi": 48,
      "hit": false,
      "t": 91034.46000000031,
      "d": 413.7930000000051,
      "v": 100
    },
    {
      "midi": 72,
      "hit": false,
      "t": 91172.3910000001,
      "d": 1103.4479999999749,
      "v": 100
    },
    {
      "midi": 44,
      "hit": false,
      "t": 91241.35650000031,
      "d": 827.5860000000102,
      "v": 100
    },
    {
      "midi": 74,
      "hit": false,
      "t": 91448.2530000001,
      "d": 827.5859999999811,
      "v": 100
    },
    {
      "midi": 48,
      "hit": false,
      "t": 91448.25300000032,
      "d": 413.7930000000051,
      "v": 100
    },
    {
      "midi": 53,
      "hit": false,
      "t": 91655.14950000032,
      "d": 620.6895000000077,
      "v": 100
    },
    {
      "midi": 75,
      "hit": false,
      "t": 91724.11500000009,
      "d": 551.7239999999874,
      "v": 100
    },
    {
      "midi": 48,
      "hit": false,
      "t": 91862.04600000032,
      "d": 413.7930000000051,
      "v": 100
    },
    {
      "midi": 77,
      "hit": false,
      "t": 91999.97700000009,
      "d": 275.8619999999937,
      "v": 100
    },
    {
      "midi": 44,
      "hit": false,
      "t": 92068.94250000032,
      "d": 206.89650000000256,
      "v": 100
    },
    {
      "midi": 79,
      "hit": false,
      "t": 92275.83900000008,
      "d": 3034.4819999999745,
      "v": 100
    },
    {
      "midi": 47,
      "hit": false,
      "t": 92275.83900000033,
      "d": 413.7930000000051,
      "v": 100
    },
    {
      "midi": 59,
      "hit": false,
      "t": 92275.83900000033,
      "d": 3310.344000000041,
      "v": 100
    },
    {
      "midi": 52,
      "hit": false,
      "t": 92482.73550000033,
      "d": 827.5860000000102,
      "v": 100
    },
    {
      "midi": 47,
      "hit": false,
      "t": 92689.63200000033,
      "d": 413.7930000000051,
      "v": 100
    },
    {
      "midi": 55,
      "hit": false,
      "t": 92896.52850000034,
      "d": 827.5860000000102,
      "v": 100
    },
    {
      "midi": 47,
      "hit": false,
      "t": 93103.42500000034,
      "d": 413.7930000000051,
      "v": 100
    },
    {
      "midi": 67,
      "hit": false,
      "t": 93310.32150000008,
      "d": 2275.86149999997,
      "v": 100
    },
    {
      "midi": 52,
      "hit": false,
      "t": 93310.32150000034,
      "d": 827.5860000000102,
      "v": 100
    },
    {
      "midi": 47,
      "hit": false,
      "t": 93517.21800000034,
      "d": 413.7930000000051,
      "v": 100
    },
    {
      "midi": 69,
      "hit": false,
      "t": 93724.11450000008,
      "d": 1862.0684999999648,
      "v": 100
    },
    {
      "midi": 55,
      "hit": false,
      "t": 93724.11450000035,
      "d": 827.5860000000102,
      "v": 100
    },
    {
      "midi": 71,
      "hit": false,
      "t": 93931.01100000009,
      "d": 1655.1719999999623,
      "v": 100
    },
    {
      "midi": 47,
      "hit": false,
      "t": 93931.01100000035,
      "d": 413.7930000000051,
      "v": 100
    },
    {
      "midi": 52,
      "hit": false,
      "t": 94137.90750000035,
      "d": 827.5860000000102,
      "v": 100
    },
    {
      "midi": 72,
      "hit": false,
      "t": 94206.87300000008,
      "d": 1379.3099999999686,
      "v": 100
    },
    {
      "midi": 47,
      "hit": false,
      "t": 94344.80400000035,
      "d": 413.7930000000051,
      "v": 100
    },
    {
      "midi": 74,
      "hit": false,
      "t": 94482.73500000007,
      "d": 1103.4479999999749,
      "v": 100
    },
    {
      "midi": 55,
      "hit": false,
      "t": 94551.70050000036,
      "d": 827.5860000000102,
      "v": 100
    },
    {
      "midi": 76,
      "hit": false,
      "t": 94758.59700000007,
      "d": 827.5859999999811,
      "v": 100
    },
    {
      "midi": 47,
      "hit": false,
      "t": 94758.59700000036,
      "d": 413.7930000000051,
      "v": 100
    },
    {
      "midi": 52,
      "hit": false,
      "t": 94965.49350000036,
      "d": 620.6895000000077,
      "v": 100
    },
    {
      "midi": 77,
      "hit": false,
      "t": 95034.45900000006,
      "d": 551.7239999999874,
      "v": 100
    },
    {
      "midi": 47,
      "hit": false,
      "t": 95172.39000000036,
      "d": 413.7930000000051,
      "v": 100
    },
    {
      "midi": 79,
      "hit": false,
      "t": 95310.32100000005,
      "d": 275.8619999999937,
      "v": 100
    },
    {
      "midi": 55,
      "hit": false,
      "t": 95379.28650000037,
      "d": 206.89650000000256,
      "v": 100
    },
    {
      "midi": 77,
      "hit": false,
      "t": 95586.18300000005,
      "d": 3034.4819999999745,
      "v": 100
    },
    {
      "midi": 48,
      "hit": false,
      "t": 95586.18300000037,
      "d": 413.7930000000051,
      "v": 100
    },
    {
      "midi": 56,
      "hit": false,
      "t": 95586.18300000037,
      "d": 3310.344000000041,
      "v": 100
    },
    {
      "midi": 60,
      "hit": false,
      "t": 95586.18300000037,
      "d": 3310.344000000041,
      "v": 100
    },
    {
      "midi": 53,
      "hit": false,
      "t": 95793.07950000037,
      "d": 827.5860000000102,
      "v": 100
    },
    {
      "midi": 48,
      "hit": false,
      "t": 95999.97600000037,
      "d": 413.7930000000051,
      "v": 100
    },
    {
      "midi": 44,
      "hit": false,
      "t": 96206.87250000038,
      "d": 827.5860000000102,
      "v": 100
    },
    {
      "midi": 48,
      "hit": false,
      "t": 96413.76900000038,
      "d": 413.7930000000051,
      "v": 100
    },
    {
      "midi": 75,
      "hit": false,
      "t": 96620.66550000005,
      "d": 620.6895000000077,
      "v": 100
    },
    {
      "midi": 53,
      "hit": false,
      "t": 96620.66550000038,
      "d": 827.5860000000102,
      "v": 100
    },
    {
      "midi": 48,
      "hit": false,
      "t": 96827.56200000038,
      "d": 413.7930000000051,
      "v": 100
    },
    {
      "midi": 74,
      "hit": false,
      "t": 97034.45850000005,
      "d": 482.7584999999963,
      "v": 100
    },
    {
      "midi": 44,
      "hit": false,
      "t": 97034.45850000039,
      "d": 827.5860000000102,
      "v": 100
    },
    {
      "midi": 75,
      "hit": false,
      "t": 97241.35500000005,
      "d": 1103.4479999999749,
      "v": 100
    },
    {
      "midi": 48,
      "hit": false,
      "t": 97241.35500000039,
      "d": 413.7930000000051,
      "v": 100
    },
    {
      "midi": 53,
      "hit": false,
      "t": 97448.25150000039,
      "d": 827.5860000000102,
      "v": 100
    },
    {
      "midi": 74,
      "hit": false,
      "t": 97517.21700000005,
      "d": 551.7239999999874,
      "v": 100
    },
    {
      "midi": 48,
      "hit": false,
      "t": 97655.1480000004,
      "d": 413.7930000000051,
      "v": 100
    },
    {
      "midi": 72,
      "hit": false,
      "t": 97793.07900000004,
      "d": 1103.4479999999749,
      "v": 100
    },
    {
      "midi": 44,
      "hit": false,
      "t": 97862.0445000004,
      "d": 827.5860000000102,
      "v": 100
    },
    {
      "midi": 74,
      "hit": false,
      "t": 98068.94100000004,
      "d": 827.5859999999811,
      "v": 100
    },
    {
      "midi": 48,
      "hit": false,
      "t": 98068.9410000004,
      "d": 413.7930000000051,
      "v": 100
    },
    {
      "midi": 53,
      "hit": false,
      "t": 98275.8375000004,
      "d": 620.6895000000077,
      "v": 100
    },
    {
      "midi": 75,
      "hit": false,
      "t": 98344.80300000003,
      "d": 551.7239999999874,
      "v": 100
    },
    {
      "midi": 48,
      "hit": false,
      "t": 98482.7340000004,
      "d": 413.7930000000051,
      "v": 100
    },
    {
      "midi": 77,
      "hit": false,
      "t": 98620.66500000002,
      "d": 275.8619999999937,
      "v": 100
    },
    {
      "midi": 44,
      "hit": false,
      "t": 98689.6305000004,
      "d": 206.89650000000256,
      "v": 100
    },
    {
      "midi": 86,
      "hit": false,
      "t": 98896.52700000002,
      "d": 2482.757999999987,
      "v": 100
    },
    {
      "midi": 50,
      "hit": false,
      "t": 98896.52700000041,
      "d": 413.79299999999057,
      "v": 100
    },
    {
      "midi": 62,
      "hit": false,
      "t": 98896.52700000041,
      "d": 3310.3440000000264,
      "v": 100
    },
    {
      "midi": 58,
      "hit": false,
      "t": 98899.1132062504,
      "d": 3307.757793750032,
      "v": 100
    },
    {
      "midi": 55,
      "hit": false,
      "t": 99103.4235000004,
      "d": 827.5860000000102,
      "v": 100
    },
    {
      "midi": 50,
      "hit": false,
      "t": 99310.3200000004,
      "d": 413.7930000000051,
      "v": 100
    },
    {
      "midi": 46,
      "hit": false,
      "t": 99517.2165000004,
      "d": 827.5860000000102,
      "v": 100
    },
    {
      "midi": 50,
      "hit": false,
      "t": 99724.1130000004,
      "d": 413.7930000000051,
      "v": 100
    },
    {
      "midi": 84,
      "hit": false,
      "t": 99931.00950000001,
      "d": 1172.413499999995,
      "v": 100
    },
    {
      "midi": 55,
      "hit": false,
      "t": 99931.00950000041,
      "d": 827.5860000000102,
      "v": 100
    },
    {
      "midi": 50,
      "hit": false,
      "t": 100137.90600000041,
      "d": 413.7930000000051,
      "v": 100
    },
    {
      "midi": 82,
      "hit": false,
      "t": 100344.80250000002,
      "d": 482.7584999999963,
      "v": 100
    },
    {
      "midi": 46,
      "hit": false,
      "t": 100344.80250000041,
      "d": 827.5860000000102,
      "v": 100
    },
    {
      "midi": 81,
      "hit": false,
      "t": 100551.69900000002,
      "d": 1655.1719999999623,
      "v": 100
    },
    {
      "midi": 50,
      "hit": false,
      "t": 100551.69900000042,
      "d": 413.7930000000051,
      "v": 100
    },
    {
      "midi": 55,
      "hit": false,
      "t": 100758.59550000042,
      "d": 827.5860000000102,
      "v": 100
    },
    {
      "midi": 82,
      "hit": false,
      "t": 100827.56100000002,
      "d": 1379.3099999999686,
      "v": 100
    },
    {
      "midi": 50,
      "hit": false,
      "t": 100965.49200000042,
      "d": 413.7930000000051,
      "v": 100
    },
    {
      "midi": 84,
      "hit": false,
      "t": 101103.42300000001,
      "d": 1103.4479999999749,
      "v": 100
    },
    {
      "midi": 46,
      "hit": false,
      "t": 101172.38850000042,
      "d": 827.5860000000102,
      "v": 100
    },
    {
      "midi": 86,
      "hit": false,
      "t": 101379.285,
      "d": 827.5859999999811,
      "v": 100
    },
    {
      "midi": 50,
      "hit": false,
      "t": 101379.28500000043,
      "d": 413.7930000000051,
      "v": 100
    },
    {
      "midi": 55,
      "hit": false,
      "t": 101586.18150000043,
      "d": 620.6895000000077,
      "v": 100
    },
    {
      "midi": 87,
      "hit": false,
      "t": 101655.147,
      "d": 551.7239999999874,
      "v": 100
    },
    {
      "midi": 50,
      "hit": false,
      "t": 101793.07800000043,
      "d": 413.7930000000051,
      "v": 100
    },
    {
      "midi": 89,
      "hit": false,
      "t": 101931.00899999999,
      "d": 275.8619999999937,
      "v": 100
    },
    {
      "midi": 46,
      "hit": false,
      "t": 101999.97450000043,
      "d": 206.89650000000256,
      "v": 100
    },
    {
      "midi": 89,
      "hit": false,
      "t": 102206.87099999998,
      "d": 3034.4819999999745,
      "v": 100
    },
    {
      "midi": 48,
      "hit": false,
      "t": 102206.87100000044,
      "d": 413.7930000000051,
      "v": 100
    },
    {
      "midi": 56,
      "hit": false,
      "t": 102206.87100000044,
      "d": 3310.344000000041,
      "v": 100
    },
    {
      "midi": 60,
      "hit": false,
      "t": 102206.87100000044,
      "d": 3310.344000000041,
      "v": 100
    },
    {
      "midi": 53,
      "hit": false,
      "t": 102413.76750000044,
      "d": 827.5860000000102,
      "v": 100
    },
    {
      "midi": 48,
      "hit": false,
      "t": 102620.66400000044,
      "d": 413.7930000000051,
      "v": 100
    },
    {
      "midi": 44,
      "hit": false,
      "t": 102827.56050000044,
      "d": 827.5860000000102,
      "v": 100
    },
    {
      "midi": 48,
      "hit": false,
      "t": 103034.45700000045,
      "d": 413.7930000000051,
      "v": 100
    },
    {
      "midi": 87,
      "hit": false,
      "t": 103241.35349999998,
      "d": 620.6895000000077,
      "v": 100
    },
    {
      "midi": 53,
      "hit": false,
      "t": 103241.35350000045,
      "d": 827.5860000000102,
      "v": 100
    },
    {
      "midi": 48,
      "hit": false,
      "t": 103448.25000000045,
      "d": 413.7930000000051,
      "v": 100
    },
    {
      "midi": 86,
      "hit": false,
      "t": 103655.14649999999,
      "d": 482.7584999999963,
      "v": 100
    },
    {
      "midi": 44,
      "hit": false,
      "t": 103655.14650000045,
      "d": 827.5860000000102,
      "v": 100
    },
    {
      "midi": 87,
      "hit": false,
      "t": 103862.04299999999,
      "d": 1103.4479999999749,
      "v": 100
    },
    {
      "midi": 48,
      "hit": false,
      "t": 103862.04300000046,
      "d": 413.7930000000051,
      "v": 100
    },
    {
      "midi": 53,
      "hit": false,
      "t": 104068.93950000046,
      "d": 827.5860000000102,
      "v": 100
    },
    {
      "midi": 86,
      "hit": false,
      "t": 104137.90499999998,
      "d": 551.7239999999874,
      "v": 100
    },
    {
      "midi": 48,
      "hit": false,
      "t": 104275.83600000046,
      "d": 413.7930000000051,
      "v": 100
    },
    {
      "midi": 84,
      "hit": false,
      "t": 104413.76699999998,
      "d": 1103.4479999999749,
      "v": 100
    },
    {
      "midi": 44,
      "hit": false,
      "t": 104482.73250000046,
      "d": 827.5860000000102,
      "v": 100
    },
    {
      "midi": 86,
      "hit": false,
      "t": 104689.62899999997,
      "d": 827.5859999999811,
      "v": 100
    },
    {
      "midi": 48,
      "hit": false,
      "t": 104689.62900000047,
      "d": 413.7930000000051,
      "v": 100
    },
    {
      "midi": 53,
      "hit": false,
      "t": 104896.52550000047,
      "d": 620.6895000000077,
      "v": 100
    },
    {
      "midi": 87,
      "hit": false,
      "t": 104965.49099999997,
      "d": 551.7239999999874,
      "v": 100
    },
    {
      "midi": 48,
      "hit": false,
      "t": 105103.42200000047,
      "d": 413.7930000000051,
      "v": 100
    },
    {
      "midi": 89,
      "hit": false,
      "t": 105241.35299999996,
      "d": 275.8619999999937,
      "v": 100
    },
    {
      "midi": 44,
      "hit": false,
      "t": 105310.31850000047,
      "d": 206.89650000000256,
      "v": 100
    },
    {
      "midi": 91,
      "hit": false,
      "t": 105517.21499999995,
      "d": 3034.4819999999745,
      "v": 100
    },
    {
      "midi": 47,
      "hit": false,
      "t": 105517.21500000048,
      "d": 413.7930000000051,
      "v": 100
    },
    {
      "midi": 59,
      "hit": false,
      "t": 105517.21500000048,
      "d": 3310.344000000041,
      "v": 100
    },
    {
      "midi": 52,
      "hit": false,
      "t": 105724.11150000048,
      "d": 827.5860000000102,
      "v": 100
    },
    {
      "midi": 47,
      "hit": false,
      "t": 105931.00800000048,
      "d": 413.7930000000051,
      "v": 100
    },
    {
      "midi": 55,
      "hit": false,
      "t": 106137.90450000048,
      "d": 827.5860000000102,
      "v": 100
    },
    {
      "midi": 47,
      "hit": false,
      "t": 106344.80100000049,
      "d": 413.7930000000051,
      "v": 100
    },
    {
      "midi": 79,
      "hit": false,
      "t": 106551.69749999995,
      "d": 2275.86149999997,
      "v": 100
    },
    {
      "midi": 52,
      "hit": false,
      "t": 106551.69750000049,
      "d": 827.5860000000102,
      "v": 100
    },
    {
      "midi": 47,
      "hit": false,
      "t": 106758.59400000049,
      "d": 413.7930000000051,
      "v": 100
    },
    {
      "midi": 81,
      "hit": false,
      "t": 106965.49049999996,
      "d": 1862.0684999999648,
      "v": 100
    },
    {
      "midi": 55,
      "hit": false,
      "t": 106965.4905000005,
      "d": 827.5860000000102,
      "v": 100
    },
    {
      "midi": 83,
      "hit": false,
      "t": 107172.38699999996,
      "d": 1655.1719999999623,
      "v": 100
    },
    {
      "midi": 47,
      "hit": false,
      "t": 107172.3870000005,
      "d": 413.7930000000051,
      "v": 100
    },
    {
      "midi": 52,
      "hit": false,
      "t": 107379.2835000005,
      "d": 827.5860000000102,
      "v": 100
    },
    {
      "midi": 84,
      "hit": false,
      "t": 107448.24899999995,
      "d": 1379.3099999999686,
      "v": 100
    },
    {
      "midi": 47,
      "hit": false,
      "t": 107586.1800000005,
      "d": 413.7930000000051,
      "v": 100
    },
    {
      "midi": 86,
      "hit": false,
      "t": 107724.11099999995,
      "d": 1103.4479999999749,
      "v": 100
    },
    {
      "midi": 55,
      "hit": false,
      "t": 107793.0765000005,
      "d": 827.5860000000102,
      "v": 100
    },
    {
      "midi": 88,
      "hit": false,
      "t": 107999.97299999994,
      "d": 827.5859999999811,
      "v": 100
    },
    {
      "midi": 47,
      "hit": false,
      "t": 107999.97300000051,
      "d": 413.7930000000051,
      "v": 100
    },
    {
      "midi": 52,
      "hit": false,
      "t": 108206.86950000051,
      "d": 620.6895000000077,
      "v": 100
    },
    {
      "midi": 89,
      "hit": false,
      "t": 108275.83499999993,
      "d": 551.7239999999874,
      "v": 100
    },
    {
      "midi": 47,
      "hit": false,
      "t": 108413.76600000051,
      "d": 413.7930000000051,
      "v": 100
    },
    {
      "midi": 91,
      "hit": false,
      "t": 108551.69699999993,
      "d": 275.8619999999937,
      "v": 100
    },
    {
      "midi": 55,
      "hit": false,
      "t": 108620.66250000052,
      "d": 206.89650000000256,
      "v": 100
    },
    {
      "midi": 89,
      "hit": false,
      "t": 108827.55899999992,
      "d": 3034.4819999999745,
      "v": 100
    },
    {
      "midi": 48,
      "hit": false,
      "t": 108827.55900000052,
      "d": 413.7930000000051,
      "v": 100
    },
    {
      "midi": 56,
      "hit": false,
      "t": 108827.55900000052,
      "d": 3310.344000000041,
      "v": 100
    },
    {
      "midi": 60,
      "hit": false,
      "t": 108827.55900000052,
      "d": 3310.344000000041,
      "v": 100
    },
    {
      "midi": 53,
      "hit": false,
      "t": 109034.45550000052,
      "d": 827.5860000000102,
      "v": 100
    },
    {
      "midi": 48,
      "hit": false,
      "t": 109241.35200000052,
      "d": 413.7930000000051,
      "v": 100
    },
    {
      "midi": 44,
      "hit": false,
      "t": 109448.24850000053,
      "d": 827.5860000000102,
      "v": 100
    },
    {
      "midi": 48,
      "hit": false,
      "t": 109655.14500000053,
      "d": 413.7930000000051,
      "v": 100
    },
    {
      "midi": 87,
      "hit": false,
      "t": 109862.04149999992,
      "d": 620.6895000000077,
      "v": 100
    },
    {
      "midi": 53,
      "hit": false,
      "t": 109862.04150000053,
      "d": 827.5860000000102,
      "v": 100
    },
    {
      "midi": 48,
      "hit": false,
      "t": 110068.93800000053,
      "d": 413.7930000000051,
      "v": 100
    },
    {
      "midi": 86,
      "hit": false,
      "t": 110275.83449999992,
      "d": 482.7584999999963,
      "v": 100
    },
    {
      "midi": 44,
      "hit": false,
      "t": 110275.83450000054,
      "d": 827.5860000000102,
      "v": 100
    },
    {
      "midi": 87,
      "hit": false,
      "t": 110482.73099999993,
      "d": 1103.4479999999749,
      "v": 100
    },
    {
      "midi": 48,
      "hit": false,
      "t": 110482.73100000054,
      "d": 413.7930000000051,
      "v": 100
    },
    {
      "midi": 53,
      "hit": false,
      "t": 110689.62750000054,
      "d": 827.5860000000102,
      "v": 100
    },
    {
      "midi": 86,
      "hit": false,
      "t": 110758.59299999992,
      "d": 551.7239999999874,
      "v": 100
    },
    {
      "midi": 48,
      "hit": false,
      "t": 110896.52400000054,
      "d": 413.7930000000051,
      "v": 100
    },
    {
      "midi": 84,
      "hit": false,
      "t": 111034.45499999991,
      "d": 1103.4479999999749,
      "v": 100
    },
    {
      "midi": 44,
      "hit": false,
      "t": 111103.42050000055,
      "d": 827.5860000000102,
      "v": 100
    },
    {
      "midi": 86,
      "hit": false,
      "t": 111310.31699999991,
      "d": 827.5859999999811,
      "v": 100
    },
    {
      "midi": 48,
      "hit": false,
      "t": 111310.31700000055,
      "d": 413.7930000000051,
      "v": 100
    },
    {
      "midi": 53,
      "hit": false,
      "t": 111517.21350000055,
      "d": 620.6895000000077,
      "v": 100
    },
    {
      "midi": 87,
      "hit": false,
      "t": 111586.1789999999,
      "d": 551.7239999999874,
      "v": 100
    },
    {
      "midi": 48,
      "hit": false,
      "t": 111724.11000000055,
      "d": 413.7930000000051,
      "v": 100
    },
    {
      "midi": 89,
      "hit": false,
      "t": 111862.0409999999,
      "d": 275.8619999999937,
      "v": 100
    },
    {
      "midi": 44,
      "hit": false,
      "t": 111931.00650000056,
      "d": 206.89650000000256,
      "v": 100
    },
    {
      "midi": 74,
      "hit": false,
      "t": 112137.90299999989,
      "d": 2482.757999999987,
      "v": 100
    },
    {
      "midi": 50,
      "hit": false,
      "t": 112137.90300000056,
      "d": 413.7930000000051,
      "v": 100
    },
    {
      "midi": 58,
      "hit": false,
      "t": 112241.35125000056,
      "d": 620.6895000000077,
      "v": 100
    },
    {
      "midi": 55,
      "hit": false,
      "t": 112344.79950000056,
      "d": 620.6895000000077,
      "v": 100
    },
    {
      "midi": 62,
      "hit": false,
      "t": 112349.10984375056,
      "d": 409.4826562500093,
      "v": 100
    },
    {
      "midi": 67,
      "hit": false,
      "t": 112452.55809375056,
      "d": 202.58615625000675,
      "v": 100
    },
    {
      "midi": 50,
      "hit": false,
      "t": 112551.69600000056,
      "d": 413.7930000000051,
      "v": 100
    },
    {
      "midi": 70,
      "hit": false,
      "t": 112556.00634375056,
      "d": 823.2756562500144,
      "v": 100
    },
    {
      "midi": 67,
      "hit": false,
      "t": 112655.14425000057,
      "d": 620.6895000000077,
      "v": 100
    },
    {
      "midi": 62,
      "hit": false,
      "t": 112758.59250000057,
      "d": 413.7930000000051,
      "v": 100
    },
    {
      "midi": 46,
      "hit": false,
      "t": 112758.59250000057,
      "d": 827.5860000000102,
      "v": 100
    },
    {
      "midi": 58,
      "hit": false,
      "t": 112862.04075000057,
      "d": 206.89650000000256,
      "v": 100
    },
    {
      "midi": 55,
      "hit": false,
      "t": 112965.48900000057,
      "d": 206.89650000000256,
      "v": 100
    },
    {
      "midi": 50,
      "hit": false,
      "t": 112965.48900000057,
      "d": 413.7930000000051,
      "v": 100
    },
    {
      "midi": 58,
      "hit": false,
      "t": 113068.93725000057,
      "d": 620.6895000000077,
      "v": 100
    },
    {
      "midi": 72,
      "hit": false,
      "t": 113172.38549999989,
      "d": 1172.413499999995,
      "v": 100
    },
    {
      "midi": 62,
      "hit": false,
      "t": 113172.38550000057,
      "d": 413.7930000000051,
      "v": 100
    },
    {
      "midi": 55,
      "hit": false,
      "t": 113172.38550000057,
      "d": 620.6895000000077,
      "v": 100
    },
    {
      "midi": 67,
      "hit": false,
      "t": 113275.83375000057,
      "d": 206.89650000000256,
      "v": 100
    },
    {
      "midi": 50,
      "hit": false,
      "t": 113379.28200000057,
      "d": 413.7930000000051,
      "v": 100
    },
    {
      "midi": 70,
      "hit": false,
      "t": 113379.28200000057,
      "d": 827.5860000000102,
      "v": 100
    },
    {
      "midi": 67,
      "hit": false,
      "t": 113482.73025000058,
      "d": 620.6895000000077,
      "v": 100
    },
    {
      "midi": 70,
      "hit": false,
      "t": 113586.17849999989,
      "d": 482.7584999999963,
      "v": 100
    },
    {
      "midi": 62,
      "hit": false,
      "t": 113586.17850000058,
      "d": 413.7930000000051,
      "v": 100
    },
    {
      "midi": 46,
      "hit": false,
      "t": 113586.17850000058,
      "d": 827.5860000000102,
      "v": 100
    },
    {
      "midi": 58,
      "hit": false,
      "t": 113689.62675000058,
      "d": 206.89650000000256,
      "v": 100
    },
    {
      "midi": 69,
      "hit": false,
      "t": 113793.0749999999,
      "d": 1655.1719999999623,
      "v": 100
    },
    {
      "midi": 55,
      "hit": false,
      "t": 113793.07500000058,
      "d": 206.89650000000256,
      "v": 100
    },
    {
      "midi": 50,
      "hit": false,
      "t": 113793.07500000058,
      "d": 413.7930000000051,
      "v": 100
    },
    {
      "midi": 58,
      "hit": false,
      "t": 113896.52325000058,
      "d": 620.6895000000077,
      "v": 100
    },
    {
      "midi": 55,
      "hit": false,
      "t": 113999.97150000058,
      "d": 620.6895000000077,
      "v": 100
    },
    {
      "midi": 62,
      "hit": false,
      "t": 114004.28184375058,
      "d": 409.4826562500093,
      "v": 100
    },
    {
      "midi": 70,
      "hit": false,
      "t": 114068.93699999989,
      "d": 1379.3099999999686,
      "v": 100
    },
    {
      "midi": 67,
      "hit": false,
      "t": 114107.73009375058,
      "d": 202.58615625000675,
      "v": 100
    },
    {
      "midi": 50,
      "hit": false,
      "t": 114206.86800000058,
      "d": 413.7930000000051,
      "v": 100
    },
    {
      "midi": 70,
      "hit": false,
      "t": 114211.17834375058,
      "d": 823.2756562500144,
      "v": 100
    },
    {
      "midi": 67,
      "hit": false,
      "t": 114310.31625000059,
      "d": 620.6895000000077,
      "v": 100
    },
    {
      "midi": 72,
      "hit": false,
      "t": 114344.79899999988,
      "d": 1103.4479999999749,
      "v": 100
    },
    {
      "midi": 62,
      "hit": false,
      "t": 114413.76450000059,
      "d": 413.7930000000051,
      "v": 100
    },
    {
      "midi": 46,
      "hit": false,
      "t": 114413.76450000059,
      "d": 827.5860000000102,
      "v": 100
    },
    {
      "midi": 58,
      "hit": false,
      "t": 114517.21275000059,
      "d": 206.89650000000256,
      "v": 100
    },
    {
      "midi": 74,
      "hit": false,
      "t": 114620.66099999988,
      "d": 827.5859999999811,
      "v": 100
    },
    {
      "midi": 55,
      "hit": false,
      "t": 114620.66100000059,
      "d": 206.89650000000256,
      "v": 100
    },
    {
      "midi": 50,
      "hit": false,
      "t": 114620.66100000059,
      "d": 413.7930000000051,
      "v": 100
    },
    {
      "midi": 58,
      "hit": false,
      "t": 114724.10925000059,
      "d": 620.6895000000077,
      "v": 100
    },
    {
      "midi": 62,
      "hit": false,
      "t": 114827.55750000059,
      "d": 413.7930000000051,
      "v": 100
    },
    {
      "midi": 55,
      "hit": false,
      "t": 114827.55750000059,
      "d": 620.6895000000077,
      "v": 100
    },
    {
      "midi": 75,
      "hit": false,
      "t": 114896.52299999987,
      "d": 551.7239999999874,
      "v": 100
    },
    {
      "midi": 67,
      "hit": false,
      "t": 114931.0057500006,
      "d": 206.89650000000256,
      "v": 100
    },
    {
      "midi": 70,
      "hit": false,
      "t": 115034.4540000006,
      "d": 413.7930000000051,
      "v": 100
    },
    {
      "midi": 50,
      "hit": false,
      "t": 115034.4540000006,
      "d": 413.7930000000051,
      "v": 100
    },
    {
      "midi": 67,
      "hit": false,
      "t": 115137.9022500006,
      "d": 310.34475000000384,
      "v": 100
    },
    {
      "midi": 77,
      "hit": false,
      "t": 115172.38499999986,
      "d": 275.8619999999937,
      "v": 100
    },
    {
      "midi": 62,
      "hit": false,
      "t": 115241.3505000006,
      "d": 206.89650000000256,
      "v": 100
    },
    {
      "midi": 46,
      "hit": false,
      "t": 115241.3505000006,
      "d": 206.89650000000256,
      "v": 100
    },
    {
      "midi": 58,
      "hit": false,
      "t": 115344.7987500006,
      "d": 103.44825000000128,
      "v": 100
    },
    {
      "midi": 77,
      "hit": false,
      "t": 115448.24699999986,
      "d": 3034.4819999999745,
      "v": 100
    },
    {
      "midi": 48,
      "hit": false,
      "t": 115448.2470000006,
      "d": 413.7930000000051,
      "v": 100
    },
    {
      "midi": 56,
      "hit": false,
      "t": 115448.2470000006,
      "d": 827.5860000000102,
      "v": 100
    },
    {
      "midi": 60,
      "hit": false,
      "t": 115551.6952500006,
      "d": 620.6895000000077,
      "v": 100
    },
    {
      "midi": 53,
      "hit": false,
      "t": 115655.1435000006,
      "d": 827.5860000000102,
      "v": 100
    },
    {
      "midi": 65,
      "hit": false,
      "t": 115659.4538437506,
      "d": 409.4826562500093,
      "v": 100
    },
    {
      "midi": 68,
      "hit": false,
      "t": 115762.9020937506,
      "d": 202.58615625000675,
      "v": 100
    },
    {
      "midi": 48,
      "hit": false,
      "t": 115862.0400000006,
      "d": 413.7930000000051,
      "v": 100
    },
    {
      "midi": 72,
      "hit": false,
      "t": 115866.3503437506,
      "d": 823.2756562500144,
      "v": 100
    },
    {
      "midi": 68,
      "hit": false,
      "t": 115965.4882500006,
      "d": 620.6895000000077,
      "v": 100
    },
    {
      "midi": 65,
      "hit": false,
      "t": 116068.93650000061,
      "d": 413.7930000000051,
      "v": 100
    },
    {
      "midi": 44,
      "hit": false,
      "t": 116068.93650000061,
      "d": 827.5860000000102,
      "v": 100
    },
    {
      "midi": 60,
      "hit": false,
      "t": 116172.38475000061,
      "d": 206.89650000000256,
      "v": 100
    },
    {
      "midi": 48,
      "hit": false,
      "t": 116275.83300000061,
      "d": 413.7930000000051,
      "v": 100
    },
    {
      "midi": 56,
      "hit": false,
      "t": 116275.83300000061,
      "d": 827.5860000000102,
      "v": 100
    },
    {
      "midi": 60,
      "hit": false,
      "t": 116379.28125000061,
      "d": 620.6895000000077,
      "v": 100
    },
    {
      "midi": 75,
      "hit": false,
      "t": 116482.72949999986,
      "d": 620.6895000000077,
      "v": 100
    },
    {
      "midi": 65,
      "hit": false,
      "t": 116482.72950000061,
      "d": 413.7930000000051,
      "v": 100
    },
    {
      "midi": 53,
      "hit": false,
      "t": 116482.72950000061,
      "d": 827.5860000000102,
      "v": 100
    },
    {
      "midi": 68,
      "hit": false,
      "t": 116586.17775000061,
      "d": 206.89650000000256,
      "v": 100
    },
    {
      "midi": 48,
      "hit": false,
      "t": 116689.62600000062,
      "d": 413.7930000000051,
      "v": 100
    },
    {
      "midi": 72,
      "hit": false,
      "t": 116689.62600000062,
      "d": 827.5860000000102,
      "v": 100
    },
    {
      "midi": 68,
      "hit": false,
      "t": 116793.07425000062,
      "d": 620.6895000000077,
      "v": 100
    },
    {
      "midi": 74,
      "hit": false,
      "t": 116896.52249999986,
      "d": 482.7584999999963,
      "v": 100
    },
    {
      "midi": 65,
      "hit": false,
      "t": 116896.52250000062,
      "d": 413.7930000000051,
      "v": 100
    },
    {
      "midi": 44,
      "hit": false,
      "t": 116896.52250000062,
      "d": 827.5860000000102,
      "v": 100
    },
    {
      "midi": 60,
      "hit": false,
      "t": 116999.97075000062,
      "d": 206.89650000000256,
      "v": 100
    },
    {
      "midi": 75,
      "hit": false,
      "t": 117103.41899999986,
      "d": 1103.4479999999749,
      "v": 100
    },
    {
      "midi": 48,
      "hit": false,
      "t": 117103.41900000062,
      "d": 413.7930000000051,
      "v": 100
    },
    {
      "midi": 56,
      "hit": false,
      "t": 117103.41900000062,
      "d": 827.5860000000102,
      "v": 100
    },
    {
      "midi": 60,
      "hit": false,
      "t": 117206.86725000062,
      "d": 620.6895000000077,
      "v": 100
    },
    {
      "midi": 53,
      "hit": false,
      "t": 117310.31550000062,
      "d": 827.5860000000102,
      "v": 100
    },
    {
      "midi": 65,
      "hit": false,
      "t": 117314.62584375062,
      "d": 409.4826562500093,
      "v": 100
    },
    {
      "midi": 74,
      "hit": false,
      "t": 117379.28099999986,
      "d": 551.7239999999874,
      "v": 100
    },
    {
      "midi": 68,
      "hit": false,
      "t": 117418.07409375062,
      "d": 202.58615625000675,
      "v": 100
    },
    {
      "midi": 48,
      "hit": false,
      "t": 117517.21200000063,
      "d": 413.7930000000051,
      "v": 100
    },
    {
      "midi": 72,
      "hit": false,
      "t": 117521.52234375062,
      "d": 823.2756562500144,
      "v": 100
    },
    {
      "midi": 68,
      "hit": false,
      "t": 117620.66025000063,
      "d": 620.6895000000077,
      "v": 100
    },
    {
      "midi": 72,
      "hit": false,
      "t": 117655.14299999985,
      "d": 1103.4479999999749,
      "v": 100
    },
    {
      "midi": 65,
      "hit": false,
      "t": 117724.10850000063,
      "d": 413.7930000000051,
      "v": 100
    },
    {
      "midi": 44,
      "hit": false,
      "t": 117724.10850000063,
      "d": 827.5860000000102,
      "v": 100
    },
    {
      "midi": 60,
      "hit": false,
      "t": 117827.55675000063,
      "d": 206.89650000000256,
      "v": 100
    },
    {
      "midi": 74,
      "hit": false,
      "t": 117931.00499999984,
      "d": 827.5859999999811,
      "v": 100
    },
    {
      "midi": 48,
      "hit": false,
      "t": 117931.00500000063,
      "d": 413.7930000000051,
      "v": 100
    },
    {
      "midi": 56,
      "hit": false,
      "t": 117931.00500000063,
      "d": 827.5860000000102,
      "v": 100
    },
    {
      "midi": 60,
      "hit": false,
      "t": 118034.45325000063,
      "d": 620.6895000000077,
      "v": 100
    },
    {
      "midi": 65,
      "hit": false,
      "t": 118137.90150000063,
      "d": 413.7930000000051,
      "v": 100
    },
    {
      "midi": 53,
      "hit": false,
      "t": 118137.90150000063,
      "d": 620.6895000000077,
      "v": 100
    },
    {
      "midi": 75,
      "hit": false,
      "t": 118206.86699999984,
      "d": 551.7239999999874,
      "v": 100
    },
    {
      "midi": 68,
      "hit": false,
      "t": 118241.34975000063,
      "d": 206.89650000000256,
      "v": 100
    },
    {
      "midi": 72,
      "hit": false,
      "t": 118344.79800000064,
      "d": 413.7930000000051,
      "v": 100
    },
    {
      "midi": 48,
      "hit": false,
      "t": 118344.79800000064,
      "d": 413.7930000000051,
      "v": 100
    },
    {
      "midi": 68,
      "hit": false,
      "t": 118448.24625000064,
      "d": 310.34475000000384,
      "v": 100
    },
    {
      "midi": 77,
      "hit": false,
      "t": 118482.72899999983,
      "d": 275.8619999999937,
      "v": 100
    },
    {
      "midi": 65,
      "hit": false,
      "t": 118551.69450000064,
      "d": 206.89650000000256,
      "v": 100
    },
    {
      "midi": 44,
      "hit": false,
      "t": 118551.69450000064,
      "d": 206.89650000000256,
      "v": 100
    },
    {
      "midi": 60,
      "hit": false,
      "t": 118655.14275000064,
      "d": 103.44825000000128,
      "v": 100
    },
    {
      "midi": 79,
      "hit": false,
      "t": 118758.59099999983,
      "d": 3034.4819999999745,
      "v": 100
    },
    {
      "midi": 47,
      "hit": false,
      "t": 118758.59100000064,
      "d": 413.7930000000051,
      "v": 100
    },
    {
      "midi": 59,
      "hit": false,
      "t": 118862.03925000064,
      "d": 620.6895000000077,
      "v": 100
    },
    {
      "midi": 52,
      "hit": false,
      "t": 118965.48750000064,
      "d": 827.5860000000102,
      "v": 100
    },
    {
      "midi": 64,
      "hit": false,
      "t": 118969.79784375064,
      "d": 409.4826562500093,
      "v": 100
    },
    {
      "midi": 67,
      "hit": false,
      "t": 119073.24609375064,
      "d": 202.58615625000675,
      "v": 100
    },
    {
      "midi": 47,
      "hit": false,
      "t": 119172.38400000065,
      "d": 413.7930000000051,
      "v": 100
    },
    {
      "midi": 71,
      "hit": false,
      "t": 119176.69434375064,
      "d": 823.2756562500144,
      "v": 100
    },
    {
      "midi": 67,
      "hit": false,
      "t": 119275.83225000065,
      "d": 620.6895000000077,
      "v": 100
    },
    {
      "midi": 55,
      "hit": false,
      "t": 119379.28050000065,
      "d": 206.89650000000256,
      "v": 100
    },
    {
      "midi": 64,
      "hit": false,
      "t": 119379.28050000065,
      "d": 413.7930000000051,
      "v": 100
    },
    {
      "midi": 59,
      "hit": false,
      "t": 119482.72875000065,
      "d": 206.89650000000256,
      "v": 100
    },
    {
      "midi": 47,
      "hit": false,
      "t": 119586.17700000065,
      "d": 413.7930000000051,
      "v": 100
    },
    {
      "midi": 55,
      "hit": false,
      "t": 119586.17700000065,
      "d": 620.6895000000077,
      "v": 100
    },
    {
      "midi": 59,
      "hit": false,
      "t": 119689.62525000065,
      "d": 620.6895000000077,
      "v": 100
    },
    {
      "midi": 67,
      "hit": false,
      "t": 119793.07349999982,
      "d": 2275.86149999997,
      "v": 100
    },
    {
      "midi": 64,
      "hit": false,
      "t": 119793.07350000065,
      "d": 413.7930000000051,
      "v": 100
    },
    {
      "midi": 52,
      "hit": false,
      "t": 119793.07350000065,
      "d": 827.5860000000102,
      "v": 100
    },
    {
      "midi": 67,
      "hit": false,
      "t": 119896.52175000065,
      "d": 206.89650000000256,
      "v": 100
    },
    {
      "midi": 47,
      "hit": false,
      "t": 119999.97000000066,
      "d": 413.7930000000051,
      "v": 100
    },
    {
      "midi": 71,
      "hit": false,
      "t": 119999.97000000066,
      "d": 827.5860000000102,
      "v": 100
    },
    {
      "midi": 67,
      "hit": false,
      "t": 120103.41825000066,
      "d": 620.6895000000077,
      "v": 100
    },
    {
      "midi": 69,
      "hit": false,
      "t": 120206.86649999983,
      "d": 1862.0684999999648,
      "v": 100
    },
    {
      "midi": 55,
      "hit": false,
      "t": 120206.86650000066,
      "d": 206.89650000000256,
      "v": 100
    },
    {
      "midi": 64,
      "hit": false,
      "t": 120206.86650000066,
      "d": 413.7930000000051,
      "v": 100
    },
    {
      "midi": 59,
      "hit": false,
      "t": 120310.31475000066,
      "d": 206.89650000000256,
      "v": 100
    },
    {
      "midi": 71,
      "hit": false,
      "t": 120413.76299999983,
      "d": 1655.1719999999623,
      "v": 100
    },
    {
      "midi": 47,
      "hit": false,
      "t": 120413.76300000066,
      "d": 413.7930000000051,
      "v": 100
    },
    {
      "midi": 55,
      "hit": false,
      "t": 120413.76300000066,
      "d": 620.6895000000077,
      "v": 100
    },
    {
      "midi": 59,
      "hit": false,
      "t": 120517.21125000066,
      "d": 620.6895000000077,
      "v": 100
    },
    {
      "midi": 52,
      "hit": false,
      "t": 120620.65950000066,
      "d": 827.5860000000102,
      "v": 100
    },
    {
      "midi": 64,
      "hit": false,
      "t": 120624.96984375066,
      "d": 409.4826562500093,
      "v": 100
    },
    {
      "midi": 72,
      "hit": false,
      "t": 120689.62499999983,
      "d": 1379.3099999999686,
      "v": 100
    },
    {
      "midi": 67,
      "hit": false,
      "t": 120728.41809375066,
      "d": 202.58615625000675,
      "v": 100
    },
    {
      "midi": 47,
      "hit": false,
      "t": 120827.55600000067,
      "d": 413.7930000000051,
      "v": 100
    },
    {
      "midi": 71,
      "hit": false,
      "t": 120831.86634375066,
      "d": 823.2756562500144,
      "v": 100
    },
    {
      "midi": 67,
      "hit": false,
      "t": 120931.00425000067,
      "d": 620.6895000000077,
      "v": 100
    },
    {
      "midi": 74,
      "hit": false,
      "t": 120965.48699999982,
      "d": 1103.4479999999749,
      "v": 100
    },
    {
      "midi": 55,
      "hit": false,
      "t": 121034.45250000067,
      "d": 206.89650000000256,
      "v": 100
    },
    {
      "midi": 64,
      "hit": false,
      "t": 121034.45250000067,
      "d": 413.7930000000051,
      "v": 100
    },
    {
      "midi": 59,
      "hit": false,
      "t": 121137.90075000067,
      "d": 206.89650000000256,
      "v": 100
    },
    {
      "midi": 76,
      "hit": false,
      "t": 121241.34899999981,
      "d": 827.5859999999811,
      "v": 100
    },
    {
      "midi": 47,
      "hit": false,
      "t": 121241.34900000067,
      "d": 413.7930000000051,
      "v": 100
    },
    {
      "midi": 55,
      "hit": false,
      "t": 121241.34900000067,
      "d": 620.6895000000077,
      "v": 100
    },
    {
      "midi": 59,
      "hit": false,
      "t": 121344.79725000067,
      "d": 620.6895000000077,
      "v": 100
    },
    {
      "midi": 64,
      "hit": false,
      "t": 121448.24550000067,
      "d": 413.7930000000051,
      "v": 100
    },
    {
      "midi": 52,
      "hit": false,
      "t": 121448.24550000067,
      "d": 620.6895000000077,
      "v": 100
    },
    {
      "midi": 77,
      "hit": false,
      "t": 121517.2109999998,
      "d": 551.7239999999874,
      "v": 100
    },
    {
      "midi": 67,
      "hit": false,
      "t": 121551.69375000068,
      "d": 206.89650000000256,
      "v": 100
    },
    {
      "midi": 71,
      "hit": false,
      "t": 121655.14200000068,
      "d": 413.7930000000051,
      "v": 100
    },
    {
      "midi": 47,
      "hit": false,
      "t": 121655.14200000068,
      "d": 413.7930000000051,
      "v": 100
    },
    {
      "midi": 67,
      "hit": false,
      "t": 121758.59025000068,
      "d": 310.34475000000384,
      "v": 100
    },
    {
      "midi": 79,
      "hit": false,
      "t": 121793.0729999998,
      "d": 275.8619999999937,
      "v": 100
    },
    {
      "midi": 55,
      "hit": false,
      "t": 121862.03850000068,
      "d": 206.89650000000256,
      "v": 100
    },
    {
      "midi": 64,
      "hit": false,
      "t": 121862.03850000068,
      "d": 206.89650000000256,
      "v": 100
    },
    {
      "midi": 59,
      "hit": false,
      "t": 121965.48675000068,
      "d": 103.44825000000128,
      "v": 100
    },
    {
      "midi": 77,
      "hit": false,
      "t": 122068.9349999998,
      "d": 3034.4819999999745,
      "v": 100
    },
    {
      "midi": 48,
      "hit": false,
      "t": 122068.93500000068,
      "d": 413.7930000000051,
      "v": 100
    },
    {
      "midi": 56,
      "hit": false,
      "t": 122068.93500000068,
      "d": 827.5860000000102,
      "v": 100
    },
    {
      "midi": 60,
      "hit": false,
      "t": 122172.38325000068,
      "d": 620.6895000000077,
      "v": 100
    },
    {
      "midi": 53,
      "hit": false,
      "t": 122275.83150000068,
      "d": 827.5860000000102,
      "v": 100
    },
    {
      "midi": 65,
      "hit": false,
      "t": 122280.14184375068,
      "d": 409.4826562500093,
      "v": 100
    },
    {
      "midi": 68,
      "hit": false,
      "t": 122383.59009375068,
      "d": 202.58615625000675,
      "v": 100
    },
    {
      "midi": 48,
      "hit": false,
      "t": 122482.72800000069,
      "d": 413.7930000000051,
      "v": 100
    },
    {
      "midi": 72,
      "hit": false,
      "t": 122487.03834375068,
      "d": 823.2756562500144,
      "v": 100
    },
    {
      "midi": 68,
      "hit": false,
      "t": 122586.17625000069,
      "d": 620.6895000000077,
      "v": 100
    },
    {
      "midi": 65,
      "hit": false,
      "t": 122689.62450000069,
      "d": 413.7930000000051,
      "v": 100
    },
    {
      "midi": 44,
      "hit": false,
      "t": 122689.62450000069,
      "d": 827.5860000000102,
      "v": 100
    },
    {
      "midi": 60,
      "hit": false,
      "t": 122793.07275000069,
      "d": 206.89650000000256,
      "v": 100
    },
    {
      "midi": 48,
      "hit": false,
      "t": 122896.52100000069,
      "d": 413.7930000000051,
      "v": 100
    },
    {
      "midi": 56,
      "hit": false,
      "t": 122896.52100000069,
      "d": 827.5860000000102,
      "v": 100
    },
    {
      "midi": 60,
      "hit": false,
      "t": 122999.9692500007,
      "d": 620.6895000000077,
      "v": 100
    },
    {
      "midi": 75,
      "hit": false,
      "t": 123103.41749999979,
      "d": 620.6895000000077,
      "v": 100
    },
    {
      "midi": 65,
      "hit": false,
      "t": 123103.4175000007,
      "d": 413.7930000000051,
      "v": 100
    },
    {
      "midi": 53,
      "hit": false,
      "t": 123103.4175000007,
      "d": 827.5860000000102,
      "v": 100
    },
    {
      "midi": 68,
      "hit": false,
      "t": 123206.8657500007,
      "d": 206.89650000000256,
      "v": 100
    },
    {
      "midi": 48,
      "hit": false,
      "t": 123310.3140000007,
      "d": 413.7930000000051,
      "v": 100
    },
    {
      "midi": 72,
      "hit": false,
      "t": 123310.3140000007,
      "d": 827.5860000000102,
      "v": 100
    },
    {
      "midi": 68,
      "hit": false,
      "t": 123413.7622500007,
      "d": 620.6895000000077,
      "v": 100
    },
    {
      "midi": 74,
      "hit": false,
      "t": 123517.2104999998,
      "d": 482.7584999999963,
      "v": 100
    },
    {
      "midi": 65,
      "hit": false,
      "t": 123517.2105000007,
      "d": 413.7930000000051,
      "v": 100
    },
    {
      "midi": 44,
      "hit": false,
      "t": 123517.2105000007,
      "d": 827.5860000000102,
      "v": 100
    },
    {
      "midi": 60,
      "hit": false,
      "t": 123620.6587500007,
      "d": 206.89650000000256,
      "v": 100
    },
    {
      "midi": 75,
      "hit": false,
      "t": 123724.1069999998,
      "d": 1103.4479999999749,
      "v": 100
    },
    {
      "midi": 48,
      "hit": false,
      "t": 123724.1070000007,
      "d": 413.7930000000051,
      "v": 100
    },
    {
      "midi": 56,
      "hit": false,
      "t": 123724.1070000007,
      "d": 827.5860000000102,
      "v": 100
    },
    {
      "midi": 60,
      "hit": false,
      "t": 123827.5552500007,
      "d": 620.6895000000077,
      "v": 100
    },
    {
      "midi": 53,
      "hit": false,
      "t": 123931.0035000007,
      "d": 827.5860000000102,
      "v": 100
    },
    {
      "midi": 65,
      "hit": false,
      "t": 123935.3138437507,
      "d": 409.4826562500093,
      "v": 100
    },
    {
      "midi": 74,
      "hit": false,
      "t": 123999.9689999998,
      "d": 551.7239999999874,
      "v": 100
    },
    {
      "midi": 68,
      "hit": false,
      "t": 124038.7620937507,
      "d": 202.58615625000675,
      "v": 100
    },
    {
      "midi": 48,
      "hit": false,
      "t": 124137.9000000007,
      "d": 413.7930000000051,
      "v": 100
    },
    {
      "midi": 72,
      "hit": false,
      "t": 124142.2103437507,
      "d": 823.2756562500144,
      "v": 100
    },
    {
      "midi": 68,
      "hit": false,
      "t": 124241.34825000071,
      "d": 620.6895000000077,
      "v": 100
    },
    {
      "midi": 72,
      "hit": false,
      "t": 124275.83099999979,
      "d": 1103.4479999999749,
      "v": 100
    },
    {
      "midi": 65,
      "hit": false,
      "t": 124344.79650000071,
      "d": 413.7930000000051,
      "v": 100
    },
    {
      "midi": 44,
      "hit": false,
      "t": 124344.79650000071,
      "d": 827.5860000000102,
      "v": 100
    },
    {
      "midi": 60,
      "hit": false,
      "t": 124448.24475000071,
      "d": 206.89650000000256,
      "v": 100
    },
    {
      "midi": 74,
      "hit": false,
      "t": 124551.69299999978,
      "d": 827.5859999999811,
      "v": 100
    },
    {
      "midi": 48,
      "hit": false,
      "t": 124551.69300000071,
      "d": 413.7930000000051,
      "v": 100
    },
    {
      "midi": 56,
      "hit": false,
      "t": 124551.69300000071,
      "d": 827.5860000000102,
      "v": 100
    },
    {
      "midi": 60,
      "hit": false,
      "t": 124655.14125000071,
      "d": 620.6895000000077,
      "v": 100
    },
    {
      "midi": 65,
      "hit": false,
      "t": 124758.58950000071,
      "d": 413.7930000000051,
      "v": 100
    },
    {
      "midi": 53,
      "hit": false,
      "t": 124758.58950000071,
      "d": 620.6895000000077,
      "v": 100
    },
    {
      "midi": 75,
      "hit": false,
      "t": 124827.55499999977,
      "d": 551.7239999999874,
      "v": 100
    },
    {
      "midi": 68,
      "hit": false,
      "t": 124862.03775000072,
      "d": 206.89650000000256,
      "v": 100
    },
    {
      "midi": 72,
      "hit": false,
      "t": 124965.48600000072,
      "d": 413.7930000000051,
      "v": 100
    },
    {
      "midi": 48,
      "hit": false,
      "t": 124965.48600000072,
      "d": 413.7930000000051,
      "v": 100
    },
    {
      "midi": 68,
      "hit": false,
      "t": 125068.93425000072,
      "d": 310.34475000000384,
      "v": 100
    },
    {
      "midi": 77,
      "hit": false,
      "t": 125103.41699999977,
      "d": 275.8619999999937,
      "v": 100
    },
    {
      "midi": 65,
      "hit": false,
      "t": 125172.38250000072,
      "d": 206.89650000000256,
      "v": 100
    },
    {
      "midi": 44,
      "hit": false,
      "t": 125172.38250000072,
      "d": 206.89650000000256,
      "v": 100
    },
    {
      "midi": 60,
      "hit": false,
      "t": 125275.83075000072,
      "d": 103.44825000000128,
      "v": 100
    },
    {
      "midi": 86,
      "hit": false,
      "t": 125379.27899999976,
      "d": 2482.757999999987,
      "v": 100
    },
    {
      "midi": 50,
      "hit": false,
      "t": 125379.27900000072,
      "d": 413.7930000000051,
      "v": 100
    },
    {
      "midi": 58,
      "hit": false,
      "t": 125482.72725000072,
      "d": 620.6895000000077,
      "v": 100
    },
    {
      "midi": 55,
      "hit": false,
      "t": 125586.17550000073,
      "d": 620.6895000000077,
      "v": 100
    },
    {
      "midi": 62,
      "hit": false,
      "t": 125590.48584375072,
      "d": 409.4826562500093,
      "v": 100
    },
    {
      "midi": 67,
      "hit": false,
      "t": 125693.93409375072,
      "d": 202.58615625000675,
      "v": 100
    },
    {
      "midi": 50,
      "hit": false,
      "t": 125793.07200000073,
      "d": 413.7930000000051,
      "v": 100
    },
    {
      "midi": 70,
      "hit": false,
      "t": 125797.38234375072,
      "d": 823.2756562500144,
      "v": 100
    },
    {
      "midi": 67,
      "hit": false,
      "t": 125896.52025000073,
      "d": 620.6895000000077,
      "v": 100
    },
    {
      "midi": 62,
      "hit": false,
      "t": 125999.96850000073,
      "d": 413.7930000000051,
      "v": 100
    },
    {
      "midi": 46,
      "hit": false,
      "t": 125999.96850000073,
      "d": 827.5860000000102,
      "v": 100
    },
    {
      "midi": 58,
      "hit": false,
      "t": 126103.41675000073,
      "d": 206.89650000000256,
      "v": 100
    },
    {
      "midi": 55,
      "hit": false,
      "t": 126206.86500000073,
      "d": 206.89650000000256,
      "v": 100
    },
    {
      "midi": 50,
      "hit": false,
      "t": 126206.86500000073,
      "d": 413.7930000000051,
      "v": 100
    },
    {
      "midi": 58,
      "hit": false,
      "t": 126310.31325000073,
      "d": 620.6895000000077,
      "v": 100
    },
    {
      "midi": 84,
      "hit": false,
      "t": 126413.76149999976,
      "d": 1172.413499999995,
      "v": 100
    },
    {
      "midi": 62,
      "hit": false,
      "t": 126413.76150000074,
      "d": 413.7930000000051,
      "v": 100
    },
    {
      "midi": 55,
      "hit": false,
      "t": 126413.76150000074,
      "d": 620.6895000000077,
      "v": 100
    },
    {
      "midi": 67,
      "hit": false,
      "t": 126517.20975000074,
      "d": 206.89650000000256,
      "v": 100
    },
    {
      "midi": 50,
      "hit": false,
      "t": 126620.65800000074,
      "d": 413.7930000000051,
      "v": 100
    },
    {
      "midi": 70,
      "hit": false,
      "t": 126620.65800000074,
      "d": 827.5860000000102,
      "v": 100
    },
    {
      "midi": 67,
      "hit": false,
      "t": 126724.10625000074,
      "d": 620.6895000000077,
      "v": 100
    },
    {
      "midi": 82,
      "hit": false,
      "t": 126827.55449999977,
      "d": 482.7584999999963,
      "v": 100
    },
    {
      "midi": 62,
      "hit": false,
      "t": 126827.55450000074,
      "d": 413.7930000000051,
      "v": 100
    },
    {
      "midi": 46,
      "hit": false,
      "t": 126827.55450000074,
      "d": 827.5860000000102,
      "v": 100
    },
    {
      "midi": 58,
      "hit": false,
      "t": 126931.00275000074,
      "d": 206.89650000000256,
      "v": 100
    },
    {
      "midi": 81,
      "hit": false,
      "t": 127034.45099999977,
      "d": 1655.1719999999623,
      "v": 100
    },
    {
      "midi": 55,
      "hit": false,
      "t": 127034.45100000074,
      "d": 206.89650000000256,
      "v": 100
    },
    {
      "midi": 50,
      "hit": false,
      "t": 127034.45100000074,
      "d": 413.7930000000051,
      "v": 100
    },
    {
      "midi": 58,
      "hit": false,
      "t": 127137.89925000074,
      "d": 620.6895000000077,
      "v": 100
    },
    {
      "midi": 55,
      "hit": false,
      "t": 127241.34750000075,
      "d": 620.6895000000077,
      "v": 100
    },
    {
      "midi": 62,
      "hit": false,
      "t": 127245.65784375074,
      "d": 409.4826562500093,
      "v": 100
    },
    {
      "midi": 82,
      "hit": false,
      "t": 127310.31299999976,
      "d": 1379.3099999999686,
      "v": 100
    },
    {
      "midi": 67,
      "hit": false,
      "t": 127349.10609375074,
      "d": 202.58615625000675,
      "v": 100
    },
    {
      "midi": 50,
      "hit": false,
      "t": 127448.24400000075,
      "d": 413.7930000000051,
      "v": 100
    },
    {
      "midi": 70,
      "hit": false,
      "t": 127452.55434375074,
      "d": 823.2756562500144,
      "v": 100
    },
    {
      "midi": 67,
      "hit": false,
      "t": 127551.69225000075,
      "d": 620.6895000000077,
      "v": 100
    },
    {
      "midi": 84,
      "hit": false,
      "t": 127586.17499999976,
      "d": 1103.4479999999749,
      "v": 100
    },
    {
      "midi": 62,
      "hit": false,
      "t": 127655.14050000075,
      "d": 413.7930000000051,
      "v": 100
    },
    {
      "midi": 46,
      "hit": false,
      "t": 127655.14050000075,
      "d": 827.5860000000102,
      "v": 100
    },
    {
      "midi": 58,
      "hit": false,
      "t": 127758.58875000075,
      "d": 206.89650000000256,
      "v": 100
    },
    {
      "midi": 86,
      "hit": false,
      "t": 127862.03699999975,
      "d": 827.5859999999811,
      "v": 100
    },
    {
      "midi": 55,
      "hit": false,
      "t": 127862.03700000075,
      "d": 206.89650000000256,
      "v": 100
    },
    {
      "midi": 50,
      "hit": false,
      "t": 127862.03700000075,
      "d": 413.7930000000051,
      "v": 100
    },
    {
      "midi": 58,
      "hit": false,
      "t": 127965.48525000075,
      "d": 620.6895000000077,
      "v": 100
    },
    {
      "midi": 62,
      "hit": false,
      "t": 128068.93350000076,
      "d": 413.7930000000051,
      "v": 100
    },
    {
      "midi": 55,
      "hit": false,
      "t": 128068.93350000076,
      "d": 620.6895000000077,
      "v": 100
    },
    {
      "midi": 87,
      "hit": false,
      "t": 128137.89899999974,
      "d": 551.7239999999874,
      "v": 100
    },
    {
      "midi": 67,
      "hit": false,
      "t": 128172.38175000076,
      "d": 206.89650000000256,
      "v": 100
    },
    {
      "midi": 70,
      "hit": false,
      "t": 128275.83000000076,
      "d": 413.7930000000051,
      "v": 100
    },
    {
      "midi": 50,
      "hit": false,
      "t": 128275.83000000076,
      "d": 413.7930000000051,
      "v": 100
    },
    {
      "midi": 67,
      "hit": false,
      "t": 128379.27825000076,
      "d": 310.34475000000384,
      "v": 100
    },
    {
      "midi": 89,
      "hit": false,
      "t": 128413.76099999974,
      "d": 275.8619999999937,
      "v": 100
    },
    {
      "midi": 62,
      "hit": false,
      "t": 128482.72650000076,
      "d": 206.89650000000256,
      "v": 100
    },
    {
      "midi": 46,
      "hit": false,
      "t": 128482.72650000076,
      "d": 206.89650000000256,
      "v": 100
    },
    {
      "midi": 58,
      "hit": false,
      "t": 128586.17475000076,
      "d": 103.44825000000128,
      "v": 100
    },
    {
      "midi": 89,
      "hit": false,
      "t": 128689.62299999973,
      "d": 3034.481999999989,
      "v": 100
    },
    {
      "midi": 48,
      "hit": false,
      "t": 128689.62300000076,
      "d": 413.7930000000051,
      "v": 100
    },
    {
      "midi": 56,
      "hit": false,
      "t": 128793.07125000076,
      "d": 616.3791562500119,
      "v": 100
    },
    {
      "midi": 53,
      "hit": false,
      "t": 128896.51950000077,
      "d": 620.6895000000077,
      "v": 100
    },
    {
      "midi": 60,
      "hit": false,
      "t": 128900.82984375076,
      "d": 409.4826562500093,
      "v": 100
    },
    {
      "midi": 65,
      "hit": false,
      "t": 129004.27809375076,
      "d": 202.58615625000675,
      "v": 100
    },
    {
      "midi": 48,
      "hit": false,
      "t": 129103.41600000077,
      "d": 413.7930000000051,
      "v": 100
    },
    {
      "midi": 68,
      "hit": false,
      "t": 129107.72634375076,
      "d": 823.2756562500144,
      "v": 100
    },
    {
      "midi": 65,
      "hit": false,
      "t": 129206.86425000077,
      "d": 620.6895000000077,
      "v": 100
    },
    {
      "midi": 60,
      "hit": false,
      "t": 129310.31250000077,
      "d": 413.7930000000051,
      "v": 100
    },
    {
      "midi": 44,
      "hit": false,
      "t": 129310.31250000077,
      "d": 827.5860000000102,
      "v": 100
    },
    {
      "midi": 56,
      "hit": false,
      "t": 129413.76075000077,
      "d": 202.58615625000675,
      "v": 100
    },
    {
      "midi": 53,
      "hit": false,
      "t": 129517.20900000077,
      "d": 206.89650000000256,
      "v": 100
    },
    {
      "midi": 48,
      "hit": false,
      "t": 129517.20900000077,
      "d": 413.7930000000051,
      "v": 100
    },
    {
      "midi": 56,
      "hit": false,
      "t": 129620.65725000078,
      "d": 616.3791562500119,
      "v": 100
    },
    {
      "midi": 87,
      "hit": false,
      "t": 129724.10549999973,
      "d": 620.6895000000077,
      "v": 100
    },
    {
      "midi": 60,
      "hit": false,
      "t": 129724.10550000078,
      "d": 413.7930000000051,
      "v": 100
    },
    {
      "midi": 53,
      "hit": false,
      "t": 129724.10550000078,
      "d": 620.6895000000077,
      "v": 100
    },
    {
      "midi": 65,
      "hit": false,
      "t": 129827.55375000078,
      "d": 206.89650000000256,
      "v": 100
    },
    {
      "midi": 48,
      "hit": false,
      "t": 129931.00200000078,
      "d": 413.7930000000051,
      "v": 100
    },
    {
      "midi": 68,
      "hit": false,
      "t": 129931.00200000078,
      "d": 827.5860000000102,
      "v": 100
    },
    {
      "midi": 65,
      "hit": false,
      "t": 130034.45025000078,
      "d": 620.6895000000077,
      "v": 100
    },
    {
      "midi": 86,
      "hit": false,
      "t": 130137.89849999973,
      "d": 482.7584999999963,
      "v": 100
    },
    {
      "midi": 60,
      "hit": false,
      "t": 130137.89850000078,
      "d": 413.7930000000051,
      "v": 100
    },
    {
      "midi": 44,
      "hit": false,
      "t": 130137.89850000078,
      "d": 827.5860000000102,
      "v": 100
    },
    {
      "midi": 56,
      "hit": false,
      "t": 130241.34675000078,
      "d": 202.58615625000675,
      "v": 100
    },
    {
      "midi": 87,
      "hit": false,
      "t": 130344.79499999974,
      "d": 1103.4479999999894,
      "v": 100
    },
    {
      "midi": 53,
      "hit": false,
      "t": 130344.79500000078,
      "d": 206.89650000000256,
      "v": 100
    },
    {
      "midi": 48,
      "hit": false,
      "t": 130344.79500000078,
      "d": 413.7930000000051,
      "v": 100
    },
    {
      "midi": 56,
      "hit": false,
      "t": 130448.24325000079,
      "d": 616.3791562500119,
      "v": 100
    },
    {
      "midi": 53,
      "hit": false,
      "t": 130551.69150000079,
      "d": 620.6894999999931,
      "v": 100
    },
    {
      "midi": 60,
      "hit": false,
      "t": 130556.00184375078,
      "d": 409.4826562500093,
      "v": 100
    },
    {
      "midi": 86,
      "hit": false,
      "t": 130620.65699999973,
      "d": 551.724000000002,
      "v": 100
    },
    {
      "midi": 65,
      "hit": false,
      "t": 130659.45009375078,
      "d": 202.58615625000675,
      "v": 100
    },
    {
      "midi": 48,
      "hit": false,
      "t": 130758.58800000079,
      "d": 413.79299999999057,
      "v": 100
    },
    {
      "midi": 68,
      "hit": false,
      "t": 130762.89834375078,
      "d": 823.2756562499417,
      "v": 100
    },
    {
      "midi": 65,
      "hit": false,
      "t": 130862.03625000079,
      "d": 620.6894999999495,
      "v": 100
    },
    {
      "midi": 84,
      "hit": false,
      "t": 130896.51899999972,
      "d": 1103.4479999999894,
      "v": 100
    },
    {
      "midi": 60,
      "hit": false,
      "t": 130965.48450000079,
      "d": 413.79299999996147,
      "v": 100
    },
    {
      "midi": 44,
      "hit": false,
      "t": 130965.48450000079,
      "d": 827.5859999999084,
      "v": 100
    },
    {
      "midi": 56,
      "hit": false,
      "t": 131068.9327500008,
      "d": 202.58615624997765,
      "v": 100
    },
    {
      "midi": 86,
      "hit": false,
      "t": 131172.38099999973,
      "d": 827.5859999999811,
      "v": 100
    },
    {
      "midi": 53,
      "hit": false,
      "t": 131172.38100000078,
      "d": 206.89649999997346,
      "v": 100
    },
    {
      "midi": 48,
      "hit": false,
      "t": 131172.38100000078,
      "d": 413.7929999999469,
      "v": 100
    },
    {
      "midi": 56,
      "hit": false,
      "t": 131275.82925000077,
      "d": 616.3791562499246,
      "v": 100
    },
    {
      "midi": 60,
      "hit": false,
      "t": 131379.27750000075,
      "d": 413.7929999999469,
      "v": 100
    },
    {
      "midi": 53,
      "hit": false,
      "t": 131379.27750000075,
      "d": 620.6894999999204,
      "v": 100
    },
    {
      "midi": 87,
      "hit": false,
      "t": 131448.24299999973,
      "d": 551.7239999999874,
      "v": 100
    },
    {
      "midi": 65,
      "hit": false,
      "t": 131482.72575000074,
      "d": 206.89649999997346,
      "v": 100
    },
    {
      "midi": 68,
      "hit": false,
      "t": 131586.17400000073,
      "d": 413.7929999999469,
      "v": 100
    },
    {
      "midi": 48,
      "hit": false,
      "t": 131586.17400000073,
      "d": 413.7929999999469,
      "v": 100
    },
    {
      "midi": 65,
      "hit": false,
      "t": 131689.6222500007,
      "d": 310.3447499999602,
      "v": 100
    },
    {
      "midi": 89,
      "hit": false,
      "t": 131724.10499999972,
      "d": 275.8619999999937,
      "v": 100
    },
    {
      "midi": 60,
      "hit": false,
      "t": 131793.0705000007,
      "d": 206.89649999997346,
      "v": 100
    },
    {
      "midi": 44,
      "hit": false,
      "t": 131793.0705000007,
      "d": 206.89649999997346,
      "v": 100
    },
    {
      "midi": 56,
      "hit": false,
      "t": 131896.5187500007,
      "d": 103.44824999998673,
      "v": 100
    },
    {
      "midi": 91,
      "hit": false,
      "t": 131999.9669999997,
      "d": 3034.481999999989,
      "v": 100
    },
    {
      "midi": 47,
      "hit": false,
      "t": 131999.96700000067,
      "d": 413.7929999999469,
      "v": 100
    },
    {
      "midi": 59,
      "hit": false,
      "t": 132103.41525000066,
      "d": 620.6894999999204,
      "v": 100
    },
    {
      "midi": 52,
      "hit": false,
      "t": 132206.86350000065,
      "d": 827.5859999998938,
      "v": 100
    },
    {
      "midi": 64,
      "hit": false,
      "t": 132211.17384375064,
      "d": 409.4826562499511,
      "v": 100
    },
    {
      "midi": 67,
      "hit": false,
      "t": 132314.62209375063,
      "d": 202.58615624997765,
      "v": 100
    },
    {
      "midi": 47,
      "hit": false,
      "t": 132413.76000000062,
      "d": 413.7929999999469,
      "v": 100
    },
    {
      "midi": 71,
      "hit": false,
      "t": 132418.07034375062,
      "d": 823.275656249898,
      "v": 100
    },
    {
      "midi": 67,
      "hit": false,
      "t": 132517.2082500006,
      "d": 620.6894999999204,
      "v": 100
    },
    {
      "midi": 55,
      "hit": false,
      "t": 132620.6565000006,
      "d": 206.89649999997346,
      "v": 100
    },
    {
      "midi": 64,
      "hit": false,
      "t": 132620.6565000006,
      "d": 413.7929999999469,
      "v": 100
    },
    {
      "midi": 59,
      "hit": false,
      "t": 132724.10475000058,
      "d": 206.89649999997346,
      "v": 100
    },
    {
      "midi": 47,
      "hit": false,
      "t": 132827.55300000057,
      "d": 413.7929999999469,
      "v": 100
    },
    {
      "midi": 55,
      "hit": false,
      "t": 132827.55300000057,
      "d": 620.6894999999204,
      "v": 100
    },
    {
      "midi": 59,
      "hit": false,
      "t": 132931.00125000055,
      "d": 620.6894999999204,
      "v": 100
    },
    {
      "midi": 79,
      "hit": false,
      "t": 133034.44949999973,
      "d": 2275.86149999997,
      "v": 100
    },
    {
      "midi": 64,
      "hit": false,
      "t": 133034.44950000054,
      "d": 413.7929999999469,
      "v": 100
    },
    {
      "midi": 52,
      "hit": false,
      "t": 133034.44950000054,
      "d": 827.5859999998938,
      "v": 100
    },
    {
      "midi": 67,
      "hit": false,
      "t": 133137.89775000053,
      "d": 206.89649999997346,
      "v": 100
    },
    {
      "midi": 47,
      "hit": false,
      "t": 133241.3460000005,
      "d": 413.7929999999469,
      "v": 100
    },
    {
      "midi": 71,
      "hit": false,
      "t": 133241.3460000005,
      "d": 827.5859999998938,
      "v": 100
    },
    {
      "midi": 67,
      "hit": false,
      "t": 133344.7942500005,
      "d": 620.6894999999204,
      "v": 100
    },
    {
      "midi": 81,
      "hit": false,
      "t": 133448.24249999973,
      "d": 1862.0684999999648,
      "v": 100
    },
    {
      "midi": 55,
      "hit": false,
      "t": 133448.2425000005,
      "d": 206.89649999997346,
      "v": 100
    },
    {
      "midi": 64,
      "hit": false,
      "t": 133448.2425000005,
      "d": 413.7929999999469,
      "v": 100
    },
    {
      "midi": 59,
      "hit": false,
      "t": 133551.69075000047,
      "d": 206.89649999997346,
      "v": 100
    },
    {
      "midi": 83,
      "hit": false,
      "t": 133655.13899999973,
      "d": 1655.1719999999623,
      "v": 100
    },
    {
      "midi": 47,
      "hit": false,
      "t": 133655.13900000046,
      "d": 413.7929999999469,
      "v": 100
    },
    {
      "midi": 55,
      "hit": false,
      "t": 133655.13900000046,
      "d": 620.6894999999204,
      "v": 100
    },
    {
      "midi": 59,
      "hit": false,
      "t": 133758.58725000045,
      "d": 620.6894999999204,
      "v": 100
    },
    {
      "midi": 52,
      "hit": false,
      "t": 133862.03550000043,
      "d": 827.5859999998938,
      "v": 100
    },
    {
      "midi": 64,
      "hit": false,
      "t": 133866.34584375043,
      "d": 409.4826562499511,
      "v": 100
    },
    {
      "midi": 84,
      "hit": false,
      "t": 133931.00099999973,
      "d": 1379.3099999999686,
      "v": 100
    },
    {
      "midi": 67,
      "hit": false,
      "t": 133969.79409375042,
      "d": 202.58615624997765,
      "v": 100
    },
    {
      "midi": 47,
      "hit": false,
      "t": 134068.9320000004,
      "d": 413.7929999999469,
      "v": 100
    },
    {
      "midi": 71,
      "hit": false,
      "t": 134073.2423437504,
      "d": 823.275656249898,
      "v": 100
    },
    {
      "midi": 67,
      "hit": false,
      "t": 134172.3802500004,
      "d": 620.6894999999204,
      "v": 100
    },
    {
      "midi": 86,
      "hit": false,
      "t": 134206.86299999972,
      "d": 1103.4479999999749,
      "v": 100
    },
    {
      "midi": 55,
      "hit": false,
      "t": 134275.82850000038,
      "d": 206.89649999997346,
      "v": 100
    },
    {
      "midi": 64,
      "hit": false,
      "t": 134275.82850000038,
      "d": 413.7929999999469,
      "v": 100
    },
    {
      "midi": 59,
      "hit": false,
      "t": 134379.27675000037,
      "d": 206.89649999997346,
      "v": 100
    },
    {
      "midi": 88,
      "hit": false,
      "t": 134482.72499999971,
      "d": 827.5859999999811,
      "v": 100
    },
    {
      "midi": 47,
      "hit": false,
      "t": 134482.72500000036,
      "d": 413.7929999999469,
      "v": 100
    },
    {
      "midi": 55,
      "hit": false,
      "t": 134482.72500000036,
      "d": 620.6894999999204,
      "v": 100
    },
    {
      "midi": 59,
      "hit": false,
      "t": 134586.17325000034,
      "d": 620.6894999999204,
      "v": 100
    },
    {
      "midi": 64,
      "hit": false,
      "t": 134689.62150000033,
      "d": 413.7929999999469,
      "v": 100
    },
    {
      "midi": 52,
      "hit": false,
      "t": 134689.62150000033,
      "d": 620.6894999999204,
      "v": 100
    },
    {
      "midi": 89,
      "hit": false,
      "t": 134758.5869999997,
      "d": 551.7239999999874,
      "v": 100
    },
    {
      "midi": 67,
      "hit": false,
      "t": 134793.06975000032,
      "d": 206.89649999997346,
      "v": 100
    },
    {
      "midi": 71,
      "hit": false,
      "t": 134896.5180000003,
      "d": 413.7929999999469,
      "v": 100
    },
    {
      "midi": 47,
      "hit": false,
      "t": 134896.5180000003,
      "d": 413.7929999999469,
      "v": 100
    },
    {
      "midi": 67,
      "hit": false,
      "t": 134999.9662500003,
      "d": 310.3447499999602,
      "v": 100
    },
    {
      "midi": 91,
      "hit": false,
      "t": 135034.4489999997,
      "d": 275.8619999999937,
      "v": 100
    },
    {
      "midi": 55,
      "hit": false,
      "t": 135103.41450000028,
      "d": 206.89649999997346,
      "v": 100
    },
    {
      "midi": 64,
      "hit": false,
      "t": 135103.41450000028,
      "d": 206.89649999997346,
      "v": 100
    },
    {
      "midi": 59,
      "hit": false,
      "t": 135206.86275000026,
      "d": 103.44824999998673,
      "v": 100
    },
    {
      "midi": 89,
      "hit": false,
      "t": 135310.3109999997,
      "d": 3034.481999999989,
      "v": 100
    },
    {
      "midi": 48,
      "hit": false,
      "t": 135310.31100000025,
      "d": 413.7929999999469,
      "v": 100
    },
    {
      "midi": 56,
      "hit": false,
      "t": 135413.75925000024,
      "d": 616.3791562499246,
      "v": 100
    },
    {
      "midi": 53,
      "hit": false,
      "t": 135517.20750000022,
      "d": 620.6894999999204,
      "v": 100
    },
    {
      "midi": 60,
      "hit": false,
      "t": 135521.51784375022,
      "d": 409.4826562499511,
      "v": 100
    },
    {
      "midi": 65,
      "hit": false,
      "t": 135624.9660937502,
      "d": 202.58615624997765,
      "v": 100
    },
    {
      "midi": 48,
      "hit": false,
      "t": 135724.1040000002,
      "d": 413.7929999999469,
      "v": 100
    },
    {
      "midi": 68,
      "hit": false,
      "t": 135728.4143437502,
      "d": 823.275656249898,
      "v": 100
    },
    {
      "midi": 65,
      "hit": false,
      "t": 135827.55225000018,
      "d": 620.6894999999204,
      "v": 100
    },
    {
      "midi": 60,
      "hit": false,
      "t": 135931.00050000017,
      "d": 413.7929999999469,
      "v": 100
    },
    {
      "midi": 44,
      "hit": false,
      "t": 135931.00050000017,
      "d": 827.5859999998938,
      "v": 100
    },
    {
      "midi": 56,
      "hit": false,
      "t": 136034.44875000016,
      "d": 202.58615624997765,
      "v": 100
    },
    {
      "midi": 53,
      "hit": false,
      "t": 136137.89700000014,
      "d": 206.89649999997346,
      "v": 100
    },
    {
      "midi": 48,
      "hit": false,
      "t": 136137.89700000014,
      "d": 413.7929999999469,
      "v": 100
    },
    {
      "midi": 56,
      "hit": false,
      "t": 136241.34525000013,
      "d": 616.3791562499246,
      "v": 100
    },
    {
      "midi": 87,
      "hit": false,
      "t": 136344.7934999997,
      "d": 620.6895000000077,
      "v": 100
    },
    {
      "midi": 60,
      "hit": false,
      "t": 136344.79350000012,
      "d": 413.7929999999469,
      "v": 100
    },
    {
      "midi": 53,
      "hit": false,
      "t": 136344.79350000012,
      "d": 620.6894999999204,
      "v": 100
    },
    {
      "midi": 65,
      "hit": false,
      "t": 136448.2417500001,
      "d": 206.89649999997346,
      "v": 100
    },
    {
      "midi": 48,
      "hit": false,
      "t": 136551.6900000001,
      "d": 413.7929999999469,
      "v": 100
    },
    {
      "midi": 68,
      "hit": false,
      "t": 136551.6900000001,
      "d": 827.5859999998938,
      "v": 100
    },
    {
      "midi": 65,
      "hit": false,
      "t": 136655.13825000008,
      "d": 620.6894999999204,
      "v": 100
    },
    {
      "midi": 86,
      "hit": false,
      "t": 136758.5864999997,
      "d": 482.7584999999963,
      "v": 100
    },
    {
      "midi": 60,
      "hit": false,
      "t": 136758.58650000006,
      "d": 413.7929999999469,
      "v": 100
    },
    {
      "midi": 44,
      "hit": false,
      "t": 136758.58650000006,
      "d": 827.5859999998938,
      "v": 100
    },
    {
      "midi": 56,
      "hit": false,
      "t": 136862.03475000005,
      "d": 202.58615624997765,
      "v": 100
    },
    {
      "midi": 87,
      "hit": false,
      "t": 136965.48299999972,
      "d": 1103.4479999999749,
      "v": 100
    },
    {
      "midi": 53,
      "hit": false,
      "t": 136965.48300000004,
      "d": 206.89649999997346,
      "v": 100
    },
    {
      "midi": 48,
      "hit": false,
      "t": 136965.48300000004,
      "d": 413.7929999999469,
      "v": 100
    },
    {
      "midi": 56,
      "hit": false,
      "t": 137068.93125000002,
      "d": 616.3791562499246,
      "v": 100
    },
    {
      "midi": 53,
      "hit": false,
      "t": 137172.3795,
      "d": 620.6894999999204,
      "v": 100
    },
    {
      "midi": 60,
      "hit": false,
      "t": 137176.68984375,
      "d": 409.4826562499511,
      "v": 100
    },
    {
      "midi": 86,
      "hit": false,
      "t": 137241.3449999997,
      "d": 551.7239999999874,
      "v": 100
    },
    {
      "midi": 65,
      "hit": false,
      "t": 137280.13809375,
      "d": 202.58615624997765,
      "v": 100
    },
    {
      "midi": 48,
      "hit": false,
      "t": 137379.27599999998,
      "d": 413.7929999999469,
      "v": 100
    },
    {
      "midi": 68,
      "hit": false,
      "t": 137383.58634374998,
      "d": 823.275656249898,
      "v": 100
    },
    {
      "midi": 65,
      "hit": false,
      "t": 137482.72424999997,
      "d": 620.6894999999204,
      "v": 100
    },
    {
      "midi": 84,
      "hit": false,
      "t": 137517.2069999997,
      "d": 2758.6199999999953,
      "v": 100
    },
    {
      "midi": 60,
      "hit": false,
      "t": 137586.17249999996,
      "d": 413.7929999999469,
      "v": 100
    },
    {
      "midi": 44,
      "hit": false,
      "t": 137586.17249999996,
      "d": 827.5859999998938,
      "v": 100
    },
    {
      "midi": 56,
      "hit": false,
      "t": 137689.62074999994,
      "d": 202.58615624997765,
      "v": 100
    },
    {
      "midi": 86,
      "hit": false,
      "t": 137793.0689999997,
      "d": 2482.7580000000016,
      "v": 100
    },
    {
      "midi": 53,
      "hit": false,
      "t": 137793.06899999993,
      "d": 206.89649999997346,
      "v": 100
    },
    {
      "midi": 48,
      "hit": false,
      "t": 137793.06899999993,
      "d": 413.7929999999469,
      "v": 100
    },
    {
      "midi": 56,
      "hit": false,
      "t": 137896.51724999992,
      "d": 616.3791562499246,
      "v": 100
    },
    {
      "midi": 60,
      "hit": false,
      "t": 137999.9654999999,
      "d": 413.7929999999469,
      "v": 100
    },
    {
      "midi": 53,
      "hit": false,
      "t": 137999.9654999999,
      "d": 2275.8614999999118,
      "v": 100
    },
    {
      "midi": 87,
      "hit": false,
      "t": 138068.9309999997,
      "d": 2206.896000000008,
      "v": 100
    },
    {
      "midi": 65,
      "hit": false,
      "t": 138103.4137499999,
      "d": 206.89649999997346,
      "v": 100
    },
    {
      "midi": 68,
      "hit": false,
      "t": 138206.86199999988,
      "d": 2068.9649999999383,
      "v": 100
    },
    {
      "midi": 48,
      "hit": false,
      "t": 138206.86199999988,
      "d": 2068.9649999999383,
      "v": 100
    },
    {
      "midi": 65,
      "hit": false,
      "t": 138310.31024999986,
      "d": 1965.5167499999516,
      "v": 100
    },
    {
      "midi": 89,
      "hit": false,
      "t": 138344.79299999968,
      "d": 1931.0340000000142,
      "v": 100
    },
    {
      "midi": 60,
      "hit": false,
      "t": 138413.75849999985,
      "d": 1862.0684999999648,
      "v": 100
    },
    {
      "midi": 44,
      "hit": false,
      "t": 138413.75849999985,
      "d": 1862.0684999999648,
      "v": 100
    },
    {
      "midi": 56,
      "hit": false,
      "t": 138517.20674999984,
      "d": 1758.6202499999781,
      "v": 100
    },
    {
      "midi": 69,
      "hit": false,
      "t": 140275.8269999997,
      "d": 206.89650000000256,
      "v": 100
    },
    {
      "midi": 74,
      "hit": false,
      "t": 140275.8269999997,
      "d": 206.89650000000256,
      "v": 100
    },
    {
      "midi": 50,
      "hit": false,
      "t": 140275.82699999982,
      "d": 206.89650000000256,
      "v": 100
    },
    {
      "midi": 54,
      "hit": false,
      "t": 140275.82699999982,
      "d": 206.89650000000256,
      "v": 100
    },
    {
      "midi": 62,
      "hit": false,
      "t": 140275.82699999982,
      "d": 206.89650000000256,
      "v": 100
    },
    {
      "midi": 69,
      "hit": false,
      "t": 140482.7234999997,
      "d": 413.7930000000051,
      "v": 100
    },
    {
      "midi": 74,
      "hit": false,
      "t": 140482.7234999997,
      "d": 413.7930000000051,
      "v": 100
    },
    {
      "midi": 50,
      "hit": false,
      "t": 140482.72349999982,
      "d": 413.7930000000051,
      "v": 100
    },
    {
      "midi": 54,
      "hit": false,
      "t": 140482.72349999982,
      "d": 827.5860000000102,
      "v": 100
    },
    {
      "midi": 62,
      "hit": false,
      "t": 140482.72349999982,
      "d": 827.5860000000102,
      "v": 100
    },
    {
      "midi": 69,
      "hit": false,
      "t": 140896.5164999997,
      "d": 413.7930000000051,
      "v": 100
    },
    {
      "midi": 74,
      "hit": false,
      "t": 140896.5164999997,
      "d": 413.7930000000051,
      "v": 100
    },
    {
      "midi": 50,
      "hit": false,
      "t": 140896.51649999982,
      "d": 413.7930000000051,
      "v": 100
    },
    {
      "midi": 69,
      "hit": false,
      "t": 141310.3094999997,
      "d": 206.89650000000256,
      "v": 100
    },
    {
      "midi": 74,
      "hit": false,
      "t": 141310.3094999997,
      "d": 206.89650000000256,
      "v": 100
    },
    {
      "midi": 50,
      "hit": false,
      "t": 141310.30949999983,
      "d": 206.89650000000256,
      "v": 100
    },
    {
      "midi": 54,
      "hit": false,
      "t": 141310.30949999983,
      "d": 206.89650000000256,
      "v": 100
    },
    {
      "midi": 62,
      "hit": false,
      "t": 141310.30949999983,
      "d": 206.89650000000256,
      "v": 100
    },
    {
      "midi": 69,
      "hit": false,
      "t": 141517.2059999997,
      "d": 206.89650000000256,
      "v": 100
    },
    {
      "midi": 72,
      "hit": false,
      "t": 141517.2059999997,
      "d": 206.89650000000256,
      "v": 100
    },
    {
      "midi": 50,
      "hit": false,
      "t": 141517.20599999983,
      "d": 206.89650000000256,
      "v": 100
    },
    {
      "midi": 54,
      "hit": false,
      "t": 141517.20599999983,
      "d": 206.89650000000256,
      "v": 100
    },
    {
      "midi": 60,
      "hit": false,
      "t": 141517.20599999983,
      "d": 206.89650000000256,
      "v": 100
    },
    {
      "midi": 62,
      "hit": false,
      "t": 142344.79199999984,
      "d": 1241.3790000000154,
      "v": 100
    },
    {
      "midi": 66,
      "hit": false,
      "t": 142758.58499999985,
      "d": 827.5860000000102,
      "v": 100
    },
    {
      "midi": 69,
      "hit": false,
      "t": 143172.37799999985,
      "d": 413.7930000000051,
      "v": 100
    },
    {
      "midi": 69,
      "hit": false,
      "t": 143586.1709999997,
      "d": 206.89650000000256,
      "v": 100
    },
    {
      "midi": 74,
      "hit": false,
      "t": 143586.1709999997,
      "d": 206.89650000000256,
      "v": 100
    },
    {
      "midi": 50,
      "hit": false,
      "t": 143586.17099999986,
      "d": 206.89650000000256,
      "v": 100
    },
    {
      "midi": 54,
      "hit": false,
      "t": 143586.17099999986,
      "d": 206.89650000000256,
      "v": 100
    },
    {
      "midi": 62,
      "hit": false,
      "t": 143586.17099999986,
      "d": 206.89650000000256,
      "v": 100
    },
    {
      "midi": 69,
      "hit": false,
      "t": 143793.0674999997,
      "d": 413.7930000000051,
      "v": 100
    },
    {
      "midi": 74,
      "hit": false,
      "t": 143793.0674999997,
      "d": 413.7930000000051,
      "v": 100
    },
    {
      "midi": 50,
      "hit": false,
      "t": 143793.06749999986,
      "d": 413.7930000000051,
      "v": 100
    },
    {
      "midi": 54,
      "hit": false,
      "t": 143793.06749999986,
      "d": 827.5860000000102,
      "v": 100
    },
    {
      "midi": 62,
      "hit": false,
      "t": 143793.06749999986,
      "d": 827.5860000000102,
      "v": 100
    },
    {
      "midi": 69,
      "hit": false,
      "t": 144206.86049999972,
      "d": 413.7930000000051,
      "v": 100
    },
    {
      "midi": 74,
      "hit": false,
      "t": 144206.86049999972,
      "d": 413.7930000000051,
      "v": 100
    },
    {
      "midi": 50,
      "hit": false,
      "t": 144206.86049999986,
      "d": 413.7930000000051,
      "v": 100
    },
    {
      "midi": 69,
      "hit": false,
      "t": 144620.65349999972,
      "d": 206.89650000000256,
      "v": 100
    },
    {
      "midi": 74,
      "hit": false,
      "t": 144620.65349999972,
      "d": 206.89650000000256,
      "v": 100
    },
    {
      "midi": 50,
      "hit": false,
      "t": 144620.65349999987,
      "d": 206.89650000000256,
      "v": 100
    },
    {
      "midi": 54,
      "hit": false,
      "t": 144620.65349999987,
      "d": 206.89650000000256,
      "v": 100
    },
    {
      "midi": 62,
      "hit": false,
      "t": 144620.65349999987,
      "d": 206.89650000000256,
      "v": 100
    },
    {
      "midi": 69,
      "hit": false,
      "t": 144827.54999999973,
      "d": 206.89650000000256,
      "v": 100
    },
    {
      "midi": 75,
      "hit": false,
      "t": 144827.54999999973,
      "d": 206.89650000000256,
      "v": 100
    },
    {
      "midi": 50,
      "hit": false,
      "t": 144827.54999999987,
      "d": 206.89650000000256,
      "v": 100
    },
    {
      "midi": 54,
      "hit": false,
      "t": 144827.54999999987,
      "d": 206.89650000000256,
      "v": 100
    },
    {
      "midi": 63,
      "hit": false,
      "t": 144827.54999999987,
      "d": 206.89650000000256,
      "v": 100
    },
    {
      "midi": 62,
      "hit": false,
      "t": 145655.13599999988,
      "d": 1241.3790000000154,
      "v": 100
    },
    {
      "midi": 66,
      "hit": false,
      "t": 146068.9289999999,
      "d": 827.5860000000102,
      "v": 100
    },
    {
      "midi": 69,
      "hit": false,
      "t": 146482.7219999999,
      "d": 413.7930000000051,
      "v": 100
    },
    {
      "midi": 69,
      "hit": false,
      "t": 146896.51499999972,
      "d": 206.89650000000256,
      "v": 100
    },
    {
      "midi": 74,
      "hit": false,
      "t": 146896.51499999972,
      "d": 206.89650000000256,
      "v": 100
    },
    {
      "midi": 50,
      "hit": false,
      "t": 146896.5149999999,
      "d": 206.89650000000256,
      "v": 100
    },
    {
      "midi": 54,
      "hit": false,
      "t": 146896.5149999999,
      "d": 206.89650000000256,
      "v": 100
    },
    {
      "midi": 62,
      "hit": false,
      "t": 146896.5149999999,
      "d": 206.89650000000256,
      "v": 100
    },
    {
      "midi": 69,
      "hit": false,
      "t": 147103.41149999973,
      "d": 413.7930000000051,
      "v": 100
    },
    {
      "midi": 74,
      "hit": false,
      "t": 147103.41149999973,
      "d": 413.7930000000051,
      "v": 100
    },
    {
      "midi": 50,
      "hit": false,
      "t": 147103.4114999999,
      "d": 413.7930000000051,
      "v": 100
    },
    {
      "midi": 54,
      "hit": false,
      "t": 147103.4114999999,
      "d": 827.5860000000102,
      "v": 100
    },
    {
      "midi": 62,
      "hit": false,
      "t": 147103.4114999999,
      "d": 827.5860000000102,
      "v": 100
    },
    {
      "midi": 69,
      "hit": false,
      "t": 147517.20449999973,
      "d": 413.7930000000051,
      "v": 100
    },
    {
      "midi": 74,
      "hit": false,
      "t": 147517.20449999973,
      "d": 413.7930000000051,
      "v": 100
    },
    {
      "midi": 50,
      "hit": false,
      "t": 147517.2044999999,
      "d": 413.7930000000051,
      "v": 100
    },
    {
      "midi": 69,
      "hit": false,
      "t": 147930.99749999974,
      "d": 206.89650000000256,
      "v": 100
    },
    {
      "midi": 74,
      "hit": false,
      "t": 147930.99749999974,
      "d": 206.89650000000256,
      "v": 100
    },
    {
      "midi": 50,
      "hit": false,
      "t": 147930.9974999999,
      "d": 206.89650000000256,
      "v": 100
    },
    {
      "midi": 54,
      "hit": false,
      "t": 147930.9974999999,
      "d": 206.89650000000256,
      "v": 100
    },
    {
      "midi": 62,
      "hit": false,
      "t": 147930.9974999999,
      "d": 206.89650000000256,
      "v": 100
    },
    {
      "midi": 69,
      "hit": false,
      "t": 148137.89399999974,
      "d": 206.89650000000256,
      "v": 100
    },
    {
      "midi": 72,
      "hit": false,
      "t": 148137.89399999974,
      "d": 206.89650000000256,
      "v": 100
    },
    {
      "midi": 50,
      "hit": false,
      "t": 148137.8939999999,
      "d": 206.89650000000256,
      "v": 100
    },
    {
      "midi": 54,
      "hit": false,
      "t": 148137.8939999999,
      "d": 206.89650000000256,
      "v": 100
    },
    {
      "midi": 60,
      "hit": false,
      "t": 148137.8939999999,
      "d": 206.89650000000256,
      "v": 100
    },
    {
      "midi": 62,
      "hit": false,
      "t": 148965.47999999992,
      "d": 1241.3790000000154,
      "v": 100
    },
    {
      "midi": 66,
      "hit": false,
      "t": 149379.27299999993,
      "d": 827.5860000000102,
      "v": 100
    },
    {
      "midi": 69,
      "hit": false,
      "t": 149793.06599999993,
      "d": 413.7930000000051,
      "v": 100
    },
    {
      "midi": 69,
      "hit": false,
      "t": 150206.85899999973,
      "d": 206.89650000000256,
      "v": 100
    },
    {
      "midi": 74,
      "hit": false,
      "t": 150206.85899999973,
      "d": 206.89650000000256,
      "v": 100
    },
    {
      "midi": 50,
      "hit": false,
      "t": 150206.85899999994,
      "d": 206.89650000000256,
      "v": 100
    },
    {
      "midi": 54,
      "hit": false,
      "t": 150206.85899999994,
      "d": 206.89650000000256,
      "v": 100
    },
    {
      "midi": 62,
      "hit": false,
      "t": 150206.85899999994,
      "d": 206.89650000000256,
      "v": 100
    },
    {
      "midi": 69,
      "hit": false,
      "t": 150413.75549999974,
      "d": 413.7930000000051,
      "v": 100
    },
    {
      "midi": 74,
      "hit": false,
      "t": 150413.75549999974,
      "d": 413.7930000000051,
      "v": 100
    },
    {
      "midi": 50,
      "hit": false,
      "t": 150413.75549999994,
      "d": 413.7930000000051,
      "v": 100
    },
    {
      "midi": 54,
      "hit": false,
      "t": 150413.75549999994,
      "d": 827.5860000000102,
      "v": 100
    },
    {
      "midi": 62,
      "hit": false,
      "t": 150413.75549999994,
      "d": 827.5860000000102,
      "v": 100
    },
    {
      "midi": 69,
      "hit": false,
      "t": 150827.54849999974,
      "d": 413.7930000000051,
      "v": 100
    },
    {
      "midi": 74,
      "hit": false,
      "t": 150827.54849999974,
      "d": 413.7930000000051,
      "v": 100
    },
    {
      "midi": 50,
      "hit": false,
      "t": 150827.54849999995,
      "d": 413.7930000000051,
      "v": 100
    },
    {
      "midi": 69,
      "hit": false,
      "t": 151241.34149999975,
      "d": 206.89650000000256,
      "v": 100
    },
    {
      "midi": 74,
      "hit": false,
      "t": 151241.34149999975,
      "d": 206.89650000000256,
      "v": 100
    },
    {
      "midi": 50,
      "hit": false,
      "t": 151241.34149999995,
      "d": 206.89650000000256,
      "v": 100
    },
    {
      "midi": 54,
      "hit": false,
      "t": 151241.34149999995,
      "d": 206.89650000000256,
      "v": 100
    },
    {
      "midi": 62,
      "hit": false,
      "t": 151241.34149999995,
      "d": 206.89650000000256,
      "v": 100
    },
    {
      "midi": 69,
      "hit": false,
      "t": 151448.23799999975,
      "d": 620.6895000000077,
      "v": 100
    },
    {
      "midi": 77,
      "hit": false,
      "t": 151448.23799999975,
      "d": 620.6895000000077,
      "v": 100
    },
    {
      "midi": 50,
      "hit": false,
      "t": 151448.23799999995,
      "d": 620.6895000000077,
      "v": 100
    },
    {
      "midi": 54,
      "hit": false,
      "t": 151448.23799999995,
      "d": 620.6895000000077,
      "v": 100
    },
    {
      "midi": 65,
      "hit": false,
      "t": 151448.23799999995,
      "d": 620.6895000000077,
      "v": 100
    },
    {
      "midi": 69,
      "hit": false,
      "t": 152068.92749999976,
      "d": 620.6895000000077,
      "v": 100
    },
    {
      "midi": 75,
      "hit": false,
      "t": 152068.92749999976,
      "d": 620.6895000000077,
      "v": 100
    },
    {
      "midi": 54,
      "hit": false,
      "t": 152068.92749999996,
      "d": 620.6895000000077,
      "v": 100
    },
    {
      "midi": 63,
      "hit": false,
      "t": 152068.92749999996,
      "d": 620.6895000000077,
      "v": 100
    },
    {
      "midi": 69,
      "hit": false,
      "t": 152689.61699999977,
      "d": 413.7930000000051,
      "v": 100
    },
    {
      "midi": 74,
      "hit": false,
      "t": 152689.61699999977,
      "d": 413.7930000000051,
      "v": 100
    },
    {
      "midi": 57,
      "hit": false,
      "t": 152689.61699999997,
      "d": 413.7930000000051,
      "v": 100
    },
    {
      "midi": 54,
      "hit": false,
      "t": 152689.61699999997,
      "d": 413.7930000000051,
      "v": 100
    },
    {
      "midi": 62,
      "hit": false,
      "t": 152689.61699999997,
      "d": 413.7930000000051,
      "v": 100
    },
    {
      "midi": 67,
      "hit": false,
      "t": 153103.40999999977,
      "d": 2482.7580000000016,
      "v": 100
    },
    {
      "midi": 62,
      "hit": false,
      "t": 153103.40999999997,
      "d": 620.6895000000077,
      "v": 100
    },
    {
      "midi": 58,
      "hit": false,
      "t": 153310.30649999998,
      "d": 620.6895000000077,
      "v": 100
    },
    {
      "midi": 55,
      "hit": false,
      "t": 153517.20299999998,
      "d": 620.6895000000077,
      "v": 100
    },
    {
      "midi": 62,
      "hit": false,
      "t": 153724.09949999998,
      "d": 620.6895000000077,
      "v": 100
    },
    {
      "midi": 58,
      "hit": false,
      "t": 153930.99599999998,
      "d": 620.6895000000077,
      "v": 100
    },
    {
      "midi": 55,
      "hit": false,
      "t": 154137.8925,
      "d": 1034.4825000000128,
      "v": 100
    },
    {
      "midi": 62,
      "hit": false,
      "t": 154344.789,
      "d": 2068.9650000000256,
      "v": 100
    },
    {
      "midi": 58,
      "hit": false,
      "t": 154551.6855,
      "d": 413.7930000000051,
      "v": 100
    },
    {
      "midi": 63,
      "hit": false,
      "t": 154758.582,
      "d": 620.6895000000077,
      "v": 100
    },
    {
      "midi": 58,
      "hit": false,
      "t": 154965.4785,
      "d": 620.6895000000077,
      "v": 100
    },
    {
      "midi": 55,
      "hit": false,
      "t": 155172.375,
      "d": 620.6895000000077,
      "v": 100
    },
    {
      "midi": 63,
      "hit": false,
      "t": 155379.2715,
      "d": 620.6895000000077,
      "v": 100
    },
    {
      "midi": 58,
      "hit": false,
      "t": 155586.168,
      "d": 620.6895000000077,
      "v": 100
    },
    {
      "midi": 55,
      "hit": false,
      "t": 155793.0645,
      "d": 1034.4825000000128,
      "v": 100
    },
    {
      "midi": 63,
      "hit": false,
      "t": 155999.961,
      "d": 2068.9650000000256,
      "v": 100
    },
    {
      "midi": 58,
      "hit": false,
      "t": 156206.8575,
      "d": 413.7930000000051,
      "v": 100
    },
    {
      "midi": 64,
      "hit": false,
      "t": 156413.75400000002,
      "d": 620.6895000000077,
      "v": 100
    },
    {
      "midi": 58,
      "hit": false,
      "t": 156620.65050000002,
      "d": 620.6895000000077,
      "v": 100
    },
    {
      "midi": 55,
      "hit": false,
      "t": 156827.54700000002,
      "d": 620.6895000000077,
      "v": 100
    },
    {
      "midi": 64,
      "hit": false,
      "t": 157034.44350000002,
      "d": 620.6895000000077,
      "v": 100
    },
    {
      "midi": 58,
      "hit": false,
      "t": 157241.34000000003,
      "d": 615.5170875000185,
      "v": 100
    },
    {
      "midi": 55,
      "hit": false,
      "t": 157448.23650000003,
      "d": 1034.4825000000128,
      "v": 100
    },
    {
      "midi": 64,
      "hit": false,
      "t": 157655.13300000003,
      "d": 2068.9650000000256,
      "v": 100
    },
    {
      "midi": 58,
      "hit": false,
      "t": 157862.02950000003,
      "d": 413.7930000000051,
      "v": 100
    },
    {
      "midi": 63,
      "hit": false,
      "t": 158068.92600000004,
      "d": 620.6895000000077,
      "v": 100
    },
    {
      "midi": 58,
      "hit": false,
      "t": 158275.82250000004,
      "d": 620.6895000000077,
      "v": 100
    },
    {
      "midi": 55,
      "hit": false,
      "t": 158482.71900000004,
      "d": 620.6895000000077,
      "v": 100
    },
    {
      "midi": 63,
      "hit": false,
      "t": 158689.61550000004,
      "d": 620.6895000000077,
      "v": 100
    },
    {
      "midi": 58,
      "hit": false,
      "t": 158896.51200000005,
      "d": 620.6895000000077,
      "v": 100
    },
    {
      "midi": 55,
      "hit": false,
      "t": 159103.40850000005,
      "d": 1034.4825000000128,
      "v": 100
    },
    {
      "midi": 63,
      "hit": false,
      "t": 159310.30500000005,
      "d": 3724.137000000046,
      "v": 100
    },
    {
      "midi": 58,
      "hit": false,
      "t": 159517.20150000005,
      "d": 413.7930000000051,
      "v": 100
    },
    {
      "midi": 62,
      "hit": false,
      "t": 159724.09800000006,
      "d": 620.6895000000077,
      "v": 100
    },
    {
      "midi": 58,
      "hit": false,
      "t": 159930.99450000006,
      "d": 620.6895000000077,
      "v": 100
    },
    {
      "midi": 55,
      "hit": false,
      "t": 160137.89100000006,
      "d": 620.6895000000077,
      "v": 100
    },
    {
      "midi": 62,
      "hit": false,
      "t": 160344.78750000006,
      "d": 620.6895000000077,
      "v": 100
    },
    {
      "midi": 58,
      "hit": false,
      "t": 160551.68400000007,
      "d": 620.6895000000077,
      "v": 100
    },
    {
      "midi": 55,
      "hit": false,
      "t": 160758.58050000007,
      "d": 1034.4825000000128,
      "v": 100
    },
    {
      "midi": 62,
      "hit": false,
      "t": 160965.47700000007,
      "d": 413.7930000000051,
      "v": 100
    },
    {
      "midi": 58,
      "hit": false,
      "t": 161172.37350000007,
      "d": 413.7930000000051,
      "v": 100
    },
    {
      "midi": 62,
      "hit": false,
      "t": 161379.27000000008,
      "d": 620.6895000000077,
      "v": 100
    },
    {
      "midi": 58,
      "hit": false,
      "t": 161586.16650000008,
      "d": 620.6895000000077,
      "v": 100
    },
    {
      "midi": 55,
      "hit": false,
      "t": 161793.06300000008,
      "d": 620.6895000000077,
      "v": 100
    },
    {
      "midi": 62,
      "hit": false,
      "t": 161999.95950000008,
      "d": 620.6895000000077,
      "v": 100
    },
    {
      "midi": 58,
      "hit": false,
      "t": 162206.8560000001,
      "d": 620.6895000000077,
      "v": 100
    },
    {
      "midi": 55,
      "hit": false,
      "t": 162413.7525000001,
      "d": 620.6895000000077,
      "v": 100
    },
    {
      "midi": 62,
      "hit": false,
      "t": 162620.6490000001,
      "d": 5379.309000000008,
      "v": 100
    },
    {
      "midi": 58,
      "hit": false,
      "t": 162827.5455000001,
      "d": 5172.412500000006,
      "v": 100
    },
    {
      "midi": 55,
      "hit": false,
      "t": 163034.4420000001,
      "d": 4965.516000000003,
      "v": 100
    }
  ]
}