{
  "jsonPath": "Soundtracks/Video Game Music/Super Smash Bros/super-smash-bros-brawl-kidicarusunderworld.json",
  "path": "Soundtracks\\Video Game Music\\Super Smash Bros\\Super_Smash_Bros_Brawl_KidIcarusUnderworld.mid",
  "name": "Super_Smash_Bros_Brawl_KidIcarusUnderworld",
  "difficulty": "Advanced",
  "bpm": 139.00021776700783,
  "notes": [
    {
      "midi": 68,
      "hit": false,
      "t": 0,
      "d": 143.32261718750001,
      "v": 66
    },
    {
      "midi": 44,
      "hit": false,
      "t": 0,
      "d": 863.3080000000001,
      "v": 68
    },
    {
      "midi": 63,
      "hit": false,
      "t": 143.32261718750001,
      "d": 143.32261718750001,
      "v": 64
    },
    {
      "midi": 68,
      "hit": false,
      "t": 286.64523437500003,
      "d": 145.00876562500002,
      "v": 85
    },
    {
      "midi": 72,
      "hit": false,
      "t": 431.65400000000005,
      "d": 143.32261718750004,
      "v": 85
    },
    {
      "midi": 68,
      "hit": false,
      "t": 574.9766171875001,
      "d": 143.3226171875,
      "v": 68
    },
    {
      "midi": 72,
      "hit": false,
      "t": 718.2992343750001,
      "d": 145.00876562500002,
      "v": 82
    },
    {
      "midi": 75,
      "hit": false,
      "t": 863.3080000000001,
      "d": 431.6540000000001,
      "v": 85
    },
    {
      "midi": 42,
      "hit": false,
      "t": 863.3080000000001,
      "d": 863.3080000000001,
      "v": 75
    },
    {
      "midi": 72,
      "hit": false,
      "t": 1294.9620000000002,
      "d": 143.3226171875001,
      "v": 68
    },
    {
      "midi": 68,
      "hit": false,
      "t": 1581.6072343750004,
      "d": 145.00876562500002,
      "v": 68
    },
    {
      "midi": 41,
      "hit": false,
      "t": 1726.6160000000002,
      "d": 863.3080000000002,
      "v": 72
    },
    {
      "midi": 68,
      "hit": false,
      "t": 1726.6160000000004,
      "d": 431.654,
      "v": 86
    },
    {
      "midi": 73,
      "hit": false,
      "t": 1726.6160000000004,
      "d": 431.654,
      "v": 86
    },
    {
      "midi": 63,
      "hit": false,
      "t": 2158.2700000000004,
      "d": 143.32261718749987,
      "v": 77
    },
    {
      "midi": 72,
      "hit": false,
      "t": 2158.2700000000004,
      "d": 143.32261718749987,
      "v": 77
    },
    {
      "midi": 61,
      "hit": false,
      "t": 2444.915234375,
      "d": 145.0087656249998,
      "v": 69
    },
    {
      "midi": 70,
      "hit": false,
      "t": 2444.915234375,
      "d": 145.0087656249998,
      "v": 69
    },
    {
      "midi": 63,
      "hit": false,
      "t": 2589.924,
      "d": 431.654,
      "v": 72
    },
    {
      "midi": 68,
      "hit": false,
      "t": 2589.924,
      "d": 431.654,
      "v": 72
    },
    {
      "midi": 51,
      "hit": false,
      "t": 2589.9240000000004,
      "d": 863.308,
      "v": 87
    },
    {
      "midi": 61,
      "hit": false,
      "t": 3021.578,
      "d": 431.654,
      "v": 79
    },
    {
      "midi": 70,
      "hit": false,
      "t": 3021.578,
      "d": 431.654,
      "v": 79
    },
    {
      "midi": 60,
      "hit": false,
      "t": 3453.232,
      "d": 70.81823437499997,
      "v": 72
    },
    {
      "midi": 63,
      "hit": false,
      "t": 3453.232,
      "d": 70.81823437499997,
      "v": 72
    },
    {
      "midi": 68,
      "hit": false,
      "t": 3453.232,
      "d": 70.81823437499997,
      "v": 72
    },
    {
      "midi": 44,
      "hit": false,
      "t": 3453.2320000000004,
      "d": 70.81823437499997,
      "v": 70
    },
    {
      "midi": 60,
      "hit": false,
      "t": 3596.5546171875,
      "d": 70.81823437499997,
      "v": 75
    },
    {
      "midi": 63,
      "hit": false,
      "t": 3596.5546171875,
      "d": 70.81823437499997,
      "v": 75
    },
    {
      "midi": 68,
      "hit": false,
      "t": 3596.5546171875,
      "d": 70.81823437499997,
      "v": 75
    },
    {
      "midi": 44,
      "hit": false,
      "t": 3596.5546171875003,
      "d": 70.81823437499997,
      "v": 74
    },
    {
      "midi": 60,
      "hit": false,
      "t": 3739.8772343749997,
      "d": 72.5043828124999,
      "v": 74
    },
    {
      "midi": 63,
      "hit": false,
      "t": 3739.8772343749997,
      "d": 72.5043828124999,
      "v": 74
    },
    {
      "midi": 68,
      "hit": false,
      "t": 3739.8772343749997,
      "d": 72.5043828124999,
      "v": 74
    },
    {
      "midi": 44,
      "hit": false,
      "t": 3739.877234375,
      "d": 72.5043828124999,
      "v": 78
    },
    {
      "midi": 60,
      "hit": false,
      "t": 3884.8859999999995,
      "d": 215.82700000000023,
      "v": 76
    },
    {
      "midi": 63,
      "hit": false,
      "t": 3884.8859999999995,
      "d": 215.82700000000023,
      "v": 76
    },
    {
      "midi": 68,
      "hit": false,
      "t": 3884.8859999999995,
      "d": 215.82700000000023,
      "v": 76
    },
    {
      "midi": 44,
      "hit": false,
      "t": 3884.886,
      "d": 431.654,
      "v": 80
    },
    {
      "midi": 60,
      "hit": false,
      "t": 4316.54,
      "d": 70.81823437500043,
      "v": 79
    },
    {
      "midi": 63,
      "hit": false,
      "t": 4316.54,
      "d": 70.81823437500043,
      "v": 79
    },
    {
      "midi": 68,
      "hit": false,
      "t": 4316.54,
      "d": 70.81823437500043,
      "v": 79
    },
    {
      "midi": 44,
      "hit": false,
      "t": 4316.54,
      "d": 70.81823437500043,
      "v": 76
    },
    {
      "midi": 60,
      "hit": false,
      "t": 4459.8626171875,
      "d": 70.81823437500043,
      "v": 78
    },
    {
      "midi": 63,
      "hit": false,
      "t": 4459.8626171875,
      "d": 70.81823437500043,
      "v": 78
    },
    {
      "midi": 68,
      "hit": false,
      "t": 4459.8626171875,
      "d": 70.81823437500043,
      "v": 78
    },
    {
      "midi": 44,
      "hit": false,
      "t": 4459.8626171875,
      "d": 70.81823437500043,
      "v": 82
    },
    {
      "midi": 60,
      "hit": false,
      "t": 4603.185234375001,
      "d": 72.5043828124999,
      "v": 76
    },
    {
      "midi": 63,
      "hit": false,
      "t": 4603.185234375001,
      "d": 72.5043828124999,
      "v": 76
    },
    {
      "midi": 68,
      "hit": false,
      "t": 4603.185234375001,
      "d": 72.5043828124999,
      "v": 76
    },
    {
      "midi": 44,
      "hit": false,
      "t": 4603.185234375001,
      "d": 72.5043828124999,
      "v": 71
    },
    {
      "midi": 60,
      "hit": false,
      "t": 4748.194,
      "d": 215.82700000000023,
      "v": 76
    },
    {
      "midi": 63,
      "hit": false,
      "t": 4748.194,
      "d": 215.82700000000023,
      "v": 76
    },
    {
      "midi": 68,
      "hit": false,
      "t": 4748.194,
      "d": 215.82700000000023,
      "v": 76
    },
    {
      "midi": 44,
      "hit": false,
      "t": 4748.194,
      "d": 431.65400000000045,
      "v": 76
    },
    {
      "midi": 60,
      "hit": false,
      "t": 5179.848000000001,
      "d": 70.81823437500043,
      "v": 77
    },
    {
      "midi": 63,
      "hit": false,
      "t": 5179.848000000001,
      "d": 70.81823437500043,
      "v": 77
    },
    {
      "midi": 68,
      "hit": false,
      "t": 5179.848000000001,
      "d": 70.81823437500043,
      "v": 77
    },
    {
      "midi": 44,
      "hit": false,
      "t": 5179.848000000001,
      "d": 70.81823437500043,
      "v": 75
    },
    {
      "midi": 60,
      "hit": false,
      "t": 5323.170617187501,
      "d": 70.81823437500043,
      "v": 73
    },
    {
      "midi": 63,
      "hit": false,
      "t": 5323.170617187501,
      "d": 70.81823437500043,
      "v": 73
    },
    {
      "midi": 68,
      "hit": false,
      "t": 5323.170617187501,
      "d": 70.81823437500043,
      "v": 73
    },
    {
      "midi": 44,
      "hit": false,
      "t": 5323.170617187501,
      "d": 70.81823437500043,
      "v": 74
    },
    {
      "midi": 60,
      "hit": false,
      "t": 5466.4932343750015,
      "d": 72.5043828124999,
      "v": 77
    },
    {
      "midi": 63,
      "hit": false,
      "t": 5466.4932343750015,
      "d": 72.5043828124999,
      "v": 77
    },
    {
      "midi": 68,
      "hit": false,
      "t": 5466.4932343750015,
      "d": 72.5043828124999,
      "v": 77
    },
    {
      "midi": 44,
      "hit": false,
      "t": 5466.4932343750015,
      "d": 72.5043828124999,
      "v": 73
    },
    {
      "midi": 60,
      "hit": false,
      "t": 5611.502000000001,
      "d": 215.82700000000023,
      "v": 76
    },
    {
      "midi": 63,
      "hit": false,
      "t": 5611.502000000001,
      "d": 215.82700000000023,
      "v": 76
    },
    {
      "midi": 68,
      "hit": false,
      "t": 5611.502000000001,
      "d": 215.82700000000023,
      "v": 76
    },
    {
      "midi": 44,
      "hit": false,
      "t": 5611.502000000001,
      "d": 431.65400000000045,
      "v": 74
    },
    {
      "midi": 60,
      "hit": false,
      "t": 6043.156000000002,
      "d": 70.81823437500043,
      "v": 76
    },
    {
      "midi": 63,
      "hit": false,
      "t": 6043.156000000002,
      "d": 70.81823437500043,
      "v": 76
    },
    {
      "midi": 68,
      "hit": false,
      "t": 6043.156000000002,
      "d": 70.81823437500043,
      "v": 76
    },
    {
      "midi": 44,
      "hit": false,
      "t": 6043.156000000002,
      "d": 70.81823437500043,
      "v": 78
    },
    {
      "midi": 60,
      "hit": false,
      "t": 6186.478617187502,
      "d": 70.81823437500043,
      "v": 78
    },
    {
      "midi": 63,
      "hit": false,
      "t": 6186.478617187502,
      "d": 70.81823437500043,
      "v": 78
    },
    {
      "midi": 68,
      "hit": false,
      "t": 6186.478617187502,
      "d": 70.81823437500043,
      "v": 78
    },
    {
      "midi": 44,
      "hit": false,
      "t": 6186.478617187502,
      "d": 70.81823437500043,
      "v": 72
    },
    {
      "midi": 60,
      "hit": false,
      "t": 6329.801234375002,
      "d": 72.5043828124999,
      "v": 76
    },
    {
      "midi": 63,
      "hit": false,
      "t": 6329.801234375002,
      "d": 72.5043828124999,
      "v": 76
    },
    {
      "midi": 68,
      "hit": false,
      "t": 6329.801234375002,
      "d": 72.5043828124999,
      "v": 76
    },
    {
      "midi": 44,
      "hit": false,
      "t": 6329.801234375002,
      "d": 72.5043828124999,
      "v": 77
    },
    {
      "midi": 60,
      "hit": false,
      "t": 6474.810000000002,
      "d": 215.82700000000023,
      "v": 79
    },
    {
      "midi": 63,
      "hit": false,
      "t": 6474.810000000002,
      "d": 215.82700000000023,
      "v": 79
    },
    {
      "midi": 68,
      "hit": false,
      "t": 6474.810000000002,
      "d": 215.82700000000023,
      "v": 79
    },
    {
      "midi": 44,
      "hit": false,
      "t": 6474.810000000002,
      "d": 431.65400000000045,
      "v": 75
    },
    {
      "midi": 51,
      "hit": false,
      "t": 6906.464000000003,
      "d": 143.32261718750033,
      "v": 68
    },
    {
      "midi": 56,
      "hit": false,
      "t": 6906.464000000003,
      "d": 143.32261718750033,
      "v": 68
    },
    {
      "midi": 44,
      "hit": false,
      "t": 6906.464000000003,
      "d": 70.81823437500043,
      "v": 77
    },
    {
      "midi": 44,
      "hit": false,
      "t": 7049.786617187503,
      "d": 70.81823437500043,
      "v": 78
    },
    {
      "midi": 51,
      "hit": false,
      "t": 7193.109234375003,
      "d": 145.0087656249998,
      "v": 70
    },
    {
      "midi": 56,
      "hit": false,
      "t": 7193.109234375003,
      "d": 145.0087656249998,
      "v": 70
    },
    {
      "midi": 44,
      "hit": false,
      "t": 7193.109234375003,
      "d": 72.5043828124999,
      "v": 70
    },
    {
      "midi": 56,
      "hit": false,
      "t": 7338.118000000003,
      "d": 286.64523437499975,
      "v": 80
    },
    {
      "midi": 60,
      "hit": false,
      "t": 7338.118000000003,
      "d": 286.64523437499975,
      "v": 80
    },
    {
      "midi": 44,
      "hit": false,
      "t": 7338.118000000003,
      "d": 431.65400000000045,
      "v": 81
    },
    {
      "midi": 51,
      "hit": false,
      "t": 7624.763234375003,
      "d": 145.0087656249998,
      "v": 74
    },
    {
      "midi": 56,
      "hit": false,
      "t": 7624.763234375003,
      "d": 145.0087656249998,
      "v": 74
    },
    {
      "midi": 51,
      "hit": false,
      "t": 7769.772000000003,
      "d": 431.65400000000045,
      "v": 75
    },
    {
      "midi": 56,
      "hit": false,
      "t": 7769.772000000003,
      "d": 431.65400000000045,
      "v": 75
    },
    {
      "midi": 44,
      "hit": false,
      "t": 7769.772000000004,
      "d": 70.81823437500043,
      "v": 76
    },
    {
      "midi": 44,
      "hit": false,
      "t": 7913.094617187504,
      "d": 70.81823437500043,
      "v": 78
    },
    {
      "midi": 44,
      "hit": false,
      "t": 8056.417234375004,
      "d": 72.5043828124999,
      "v": 80
    },
    {
      "midi": 51,
      "hit": false,
      "t": 8201.426000000003,
      "d": 143.32261718749942,
      "v": 76
    },
    {
      "midi": 56,
      "hit": false,
      "t": 8201.426000000003,
      "d": 143.32261718749942,
      "v": 76
    },
    {
      "midi": 44,
      "hit": false,
      "t": 8201.426000000005,
      "d": 431.65400000000045,
      "v": 74
    },
    {
      "midi": 56,
      "hit": false,
      "t": 8344.748617187503,
      "d": 143.32261718749942,
      "v": 90
    },
    {
      "midi": 60,
      "hit": false,
      "t": 8344.748617187503,
      "d": 143.32261718749942,
      "v": 90
    },
    {
      "midi": 56,
      "hit": false,
      "t": 8488.071234375002,
      "d": 145.0087656249998,
      "v": 85
    },
    {
      "midi": 63,
      "hit": false,
      "t": 8488.071234375002,
      "d": 145.0087656249998,
      "v": 85
    },
    {
      "midi": 59,
      "hit": false,
      "t": 8633.080000000002,
      "d": 863.3080000000009,
      "v": 86
    },
    {
      "midi": 62,
      "hit": false,
      "t": 8633.080000000002,
      "d": 863.3080000000009,
      "v": 86
    },
    {
      "midi": 67,
      "hit": false,
      "t": 8633.080000000002,
      "d": 863.3080000000009,
      "v": 86
    },
    {
      "midi": 43,
      "hit": false,
      "t": 8633.080000000005,
      "d": 143.32261718749942,
      "v": 78
    },
    {
      "midi": 43,
      "hit": false,
      "t": 8776.402617187505,
      "d": 143.32261718749942,
      "v": 79
    },
    {
      "midi": 43,
      "hit": false,
      "t": 8919.725234375004,
      "d": 145.0087656249998,
      "v": 75
    },
    {
      "midi": 47,
      "hit": false,
      "t": 9064.734000000004,
      "d": 431.65400000000045,
      "v": 86
    },
    {
      "midi": 55,
      "hit": false,
      "t": 9064.734000000004,
      "d": 431.65400000000045,
      "v": 86
    },
    {
      "midi": 59,
      "hit": false,
      "t": 9496.388000000003,
      "d": 863.3080000000009,
      "v": 72
    },
    {
      "midi": 62,
      "hit": false,
      "t": 9496.388000000003,
      "d": 863.3080000000009,
      "v": 72
    },
    {
      "midi": 65,
      "hit": false,
      "t": 9496.388000000003,
      "d": 863.3080000000009,
      "v": 72
    },
    {
      "midi": 43,
      "hit": false,
      "t": 9496.388000000004,
      "d": 143.32261718749942,
      "v": 70
    },
    {
      "midi": 43,
      "hit": false,
      "t": 9639.710617187504,
      "d": 143.32261718749942,
      "v": 77
    },
    {
      "midi": 43,
      "hit": false,
      "t": 9783.033234375003,
      "d": 145.0087656249998,
      "v": 77
    },
    {
      "midi": 47,
      "hit": false,
      "t": 9928.042000000003,
      "d": 431.65400000000045,
      "v": 80
    },
    {
      "midi": 53,
      "hit": false,
      "t": 9928.042000000003,
      "d": 431.65400000000045,
      "v": 80
    },
    {
      "midi": 60,
      "hit": false,
      "t": 10359.696000000004,
      "d": 143.32261718749942,
      "v": 73
    },
    {
      "midi": 63,
      "hit": false,
      "t": 10359.696000000004,
      "d": 143.32261718749942,
      "v": 73
    },
    {
      "midi": 44,
      "hit": false,
      "t": 10359.696000000004,
      "d": 70.81823437499952,
      "v": 68
    },
    {
      "midi": 44,
      "hit": false,
      "t": 10503.018617187503,
      "d": 70.81823437499952,
      "v": 78
    },
    {
      "midi": 60,
      "hit": false,
      "t": 10646.341234375002,
      "d": 145.0087656249998,
      "v": 67
    },
    {
      "midi": 63,
      "hit": false,
      "t": 10646.341234375002,
      "d": 145.0087656249998,
      "v": 67
    },
    {
      "midi": 44,
      "hit": false,
      "t": 10646.341234375002,
      "d": 72.5043828124999,
      "v": 76
    },
    {
      "midi": 63,
      "hit": false,
      "t": 10791.350000000002,
      "d": 286.64523437500065,
      "v": 87
    },
    {
      "midi": 68,
      "hit": false,
      "t": 10791.350000000002,
      "d": 286.64523437500065,
      "v": 87
    },
    {
      "midi": 44,
      "hit": false,
      "t": 10791.350000000002,
      "d": 431.65400000000045,
      "v": 83
    },
    {
      "midi": 60,
      "hit": false,
      "t": 11077.995234375003,
      "d": 145.0087656249998,
      "v": 69
    },
    {
      "midi": 63,
      "hit": false,
      "t": 11077.995234375003,
      "d": 145.0087656249998,
      "v": 69
    },
    {
      "midi": 60,
      "hit": false,
      "t": 11223.004000000003,
      "d": 431.65400000000045,
      "v": 79
    },
    {
      "midi": 63,
      "hit": false,
      "t": 11223.004000000003,
      "d": 431.65400000000045,
      "v": 79
    },
    {
      "midi": 44,
      "hit": false,
      "t": 11223.004000000003,
      "d": 70.81823437499952,
      "v": 77
    },
    {
      "midi": 44,
      "hit": false,
      "t": 11366.326617187502,
      "d": 70.81823437499952,
      "v": 76
    },
    {
      "midi": 44,
      "hit": false,
      "t": 11509.649234375001,
      "d": 72.5043828124999,
      "v": 76
    },
    {
      "midi": 44,
      "hit": false,
      "t": 11654.658000000001,
      "d": 431.65400000000045,
      "v": 77
    },
    {
      "midi": 60,
      "hit": false,
      "t": 11654.658000000003,
      "d": 143.32261718749942,
      "v": 81
    },
    {
      "midi": 63,
      "hit": false,
      "t": 11654.658000000003,
      "d": 143.32261718749942,
      "v": 81
    },
    {
      "midi": 63,
      "hit": false,
      "t": 11797.980617187503,
      "d": 143.32261718749942,
      "v": 90
    },
    {
      "midi": 68,
      "hit": false,
      "t": 11797.980617187503,
      "d": 143.32261718749942,
      "v": 90
    },
    {
      "midi": 60,
      "hit": false,
      "t": 11941.303234375002,
      "d": 145.0087656249998,
      "v": 72
    },
    {
      "midi": 63,
      "hit": false,
      "t": 11941.303234375002,
      "d": 145.0087656249998,
      "v": 72
    },
    {
      "midi": 61,
      "hit": false,
      "t": 12086.312000000002,
      "d": 863.3080000000009,
      "v": 88
    },
    {
      "midi": 66,
      "hit": false,
      "t": 12086.312000000002,
      "d": 863.3080000000009,
      "v": 88
    },
    {
      "midi": 70,
      "hit": false,
      "t": 12086.312000000002,
      "d": 863.3080000000009,
      "v": 88
    },
    {
      "midi": 42,
      "hit": false,
      "t": 12086.312000000002,
      "d": 143.32261718749942,
      "v": 78
    },
    {
      "midi": 42,
      "hit": false,
      "t": 12229.634617187501,
      "d": 143.32261718749942,
      "v": 77
    },
    {
      "midi": 42,
      "hit": false,
      "t": 12372.957234375,
      "d": 145.0087656249998,
      "v": 75
    },
    {
      "midi": 46,
      "hit": false,
      "t": 12517.966,
      "d": 431.65400000000045,
      "v": 87
    },
    {
      "midi": 54,
      "hit": false,
      "t": 12517.966,
      "d": 431.65400000000045,
      "v": 87
    },
    {
      "midi": 49,
      "hit": false,
      "t": 12949.62,
      "d": 143.32261718749942,
      "v": 75
    },
    {
      "midi": 65,
      "hit": false,
      "t": 12949.620000000003,
      "d": 863.3080000000009,
      "v": 85
    },
    {
      "midi": 68,
      "hit": false,
      "t": 12949.620000000003,
      "d": 863.3080000000009,
      "v": 85
    },
    {
      "midi": 73,
      "hit": false,
      "t": 12949.620000000003,
      "d": 863.3080000000009,
      "v": 85
    },
    {
      "midi": 49,
      "hit": false,
      "t": 13092.9426171875,
      "d": 143.32261718749942,
      "v": 74
    },
    {
      "midi": 49,
      "hit": false,
      "t": 13236.265234375,
      "d": 145.0087656249998,
      "v": 77
    },
    {
      "midi": 53,
      "hit": false,
      "t": 13381.274,
      "d": 431.65400000000045,
      "v": 99
    },
    {
      "midi": 61,
      "hit": false,
      "t": 13381.274,
      "d": 431.65400000000045,
      "v": 99
    },
    {
      "midi": 44,
      "hit": false,
      "t": 13812.928,
      "d": 70.81823437499952,
      "v": 70
    },
    {
      "midi": 51,
      "hit": false,
      "t": 13812.928000000004,
      "d": 143.32261718749942,
      "v": 67
    },
    {
      "midi": 56,
      "hit": false,
      "t": 13812.928000000004,
      "d": 143.32261718749942,
      "v": 67
    },
    {
      "midi": 44,
      "hit": false,
      "t": 13956.2506171875,
      "d": 70.81823437499952,
      "v": 78
    },
    {
      "midi": 44,
      "hit": false,
      "t": 14099.573234374999,
      "d": 72.5043828124999,
      "v": 81
    },
    {
      "midi": 51,
      "hit": false,
      "t": 14099.573234375002,
      "d": 145.0087656249998,
      "v": 66
    },
    {
      "midi": 56,
      "hit": false,
      "t": 14099.573234375002,
      "d": 145.0087656249998,
      "v": 66
    },
    {
      "midi": 44,
      "hit": false,
      "t": 14244.581999999999,
      "d": 431.65400000000045,
      "v": 75
    },
    {
      "midi": 56,
      "hit": false,
      "t": 14244.582000000002,
      "d": 286.64523437500065,
      "v": 83
    },
    {
      "midi": 60,
      "hit": false,
      "t": 14244.582000000002,
      "d": 286.64523437500065,
      "v": 83
    },
    {
      "midi": 51,
      "hit": false,
      "t": 14531.227234375003,
      "d": 145.0087656249998,
      "v": 72
    },
    {
      "midi": 56,
      "hit": false,
      "t": 14531.227234375003,
      "d": 145.0087656249998,
      "v": 72
    },
    {
      "midi": 44,
      "hit": false,
      "t": 14676.235999999999,
      "d": 70.81823437499952,
      "v": 81
    },
    {
      "midi": 51,
      "hit": false,
      "t": 14676.236000000003,
      "d": 431.65400000000045,
      "v": 71
    },
    {
      "midi": 56,
      "hit": false,
      "t": 14676.236000000003,
      "d": 431.65400000000045,
      "v": 71
    },
    {
      "midi": 44,
      "hit": false,
      "t": 14819.558617187498,
      "d": 70.81823437499952,
      "v": 78
    },
    {
      "midi": 44,
      "hit": false,
      "t": 14962.881234374998,
      "d": 72.5043828124999,
      "v": 78
    },
    {
      "midi": 44,
      "hit": false,
      "t": 15107.889999999998,
      "d": 431.65400000000045,
      "v": 75
    },
    {
      "midi": 51,
      "hit": false,
      "t": 15107.890000000003,
      "d": 143.32261718749942,
      "v": 79
    },
    {
      "midi": 56,
      "hit": false,
      "t": 15107.890000000003,
      "d": 143.32261718749942,
      "v": 79
    },
    {
      "midi": 56,
      "hit": false,
      "t": 15251.212617187502,
      "d": 143.32261718749942,
      "v": 86
    },
    {
      "midi": 60,
      "hit": false,
      "t": 15251.212617187502,
      "d": 143.32261718749942,
      "v": 86
    },
    {
      "midi": 56,
      "hit": false,
      "t": 15394.535234375002,
      "d": 145.0087656249998,
      "v": 83
    },
    {
      "midi": 63,
      "hit": false,
      "t": 15394.535234375002,
      "d": 145.0087656249998,
      "v": 83
    },
    {
      "midi": 43,
      "hit": false,
      "t": 15539.543999999998,
      "d": 143.32261718749942,
      "v": 72
    },
    {
      "midi": 59,
      "hit": false,
      "t": 15539.544000000002,
      "d": 863.3080000000009,
      "v": 87
    },
    {
      "midi": 62,
      "hit": false,
      "t": 15539.544000000002,
      "d": 863.3080000000009,
      "v": 87
    },
    {
      "midi": 67,
      "hit": false,
      "t": 15539.544000000002,
      "d": 863.3080000000009,
      "v": 87
    },
    {
      "midi": 43,
      "hit": false,
      "t": 15682.866617187497,
      "d": 143.32261718749942,
      "v": 73
    },
    {
      "midi": 43,
      "hit": false,
      "t": 15826.189234374997,
      "d": 145.0087656249998,
      "v": 86
    },
    {
      "midi": 47,
      "hit": false,
      "t": 15971.197999999997,
      "d": 431.65399999999863,
      "v": 84
    },
    {
      "midi": 55,
      "hit": false,
      "t": 15971.197999999997,
      "d": 431.65399999999863,
      "v": 84
    },
    {
      "midi": 43,
      "hit": false,
      "t": 16402.851999999995,
      "d": 143.32261718749942,
      "v": 73
    },
    {
      "midi": 59,
      "hit": false,
      "t": 16402.852000000003,
      "d": 863.3080000000009,
      "v": 73
    },
    {
      "midi": 62,
      "hit": false,
      "t": 16402.852000000003,
      "d": 863.3080000000009,
      "v": 73
    },
    {
      "midi": 65,
      "hit": false,
      "t": 16402.852000000003,
      "d": 863.3080000000009,
      "v": 73
    },
    {
      "midi": 43,
      "hit": false,
      "t": 16546.174617187495,
      "d": 143.32261718749942,
      "v": 74
    },
    {
      "midi": 43,
      "hit": false,
      "t": 16689.497234374994,
      "d": 145.0087656249998,
      "v": 77
    },
    {
      "midi": 47,
      "hit": false,
      "t": 16834.505999999994,
      "d": 431.65399999999863,
      "v": 90
    },
    {
      "midi": 53,
      "hit": false,
      "t": 16834.505999999994,
      "d": 431.65399999999863,
      "v": 90
    },
    {
      "midi": 44,
      "hit": false,
      "t": 17266.159999999993,
      "d": 70.81823437500134,
      "v": 73
    },
    {
      "midi": 60,
      "hit": false,
      "t": 17266.160000000003,
      "d": 143.32261718749942,
      "v": 72
    },
    {
      "midi": 63,
      "hit": false,
      "t": 17266.160000000003,
      "d": 143.32261718749942,
      "v": 72
    },
    {
      "midi": 44,
      "hit": false,
      "t": 17409.482617187496,
      "d": 70.81823437500134,
      "v": 74
    },
    {
      "midi": 44,
      "hit": false,
      "t": 17552.805234375,
      "d": 72.50438281250172,
      "v": 75
    },
    {
      "midi": 60,
      "hit": false,
      "t": 17552.805234375002,
      "d": 145.0087656249998,
      "v": 72
    },
    {
      "midi": 63,
      "hit": false,
      "t": 17552.805234375002,
      "d": 145.0087656249998,
      "v": 72
    },
    {
      "midi": 63,
      "hit": false,
      "t": 17697.814000000002,
      "d": 286.64523437499884,
      "v": 89
    },
    {
      "midi": 68,
      "hit": false,
      "t": 17697.814000000002,
      "d": 286.64523437499884,
      "v": 89
    },
    {
      "midi": 44,
      "hit": false,
      "t": 17697.814000000002,
      "d": 431.65399999999863,
      "v": 77
    },
    {
      "midi": 60,
      "hit": false,
      "t": 17984.459234375,
      "d": 145.0087656249998,
      "v": 69
    },
    {
      "midi": 63,
      "hit": false,
      "t": 17984.459234375,
      "d": 145.0087656249998,
      "v": 69
    },
    {
      "midi": 60,
      "hit": false,
      "t": 18129.468,
      "d": 431.65399999999863,
      "v": 75
    },
    {
      "midi": 63,
      "hit": false,
      "t": 18129.468,
      "d": 431.65399999999863,
      "v": 75
    },
    {
      "midi": 44,
      "hit": false,
      "t": 18129.468,
      "d": 70.81823437500134,
      "v": 79
    },
    {
      "midi": 44,
      "hit": false,
      "t": 18272.790617187504,
      "d": 70.81823437500134,
      "v": 79
    },
    {
      "midi": 44,
      "hit": false,
      "t": 18416.113234375007,
      "d": 72.50438281250172,
      "v": 78
    },
    {
      "midi": 60,
      "hit": false,
      "t": 18561.122,
      "d": 143.32261718749942,
      "v": 77
    },
    {
      "midi": 63,
      "hit": false,
      "t": 18561.122,
      "d": 143.32261718749942,
      "v": 77
    },
    {
      "midi": 44,
      "hit": false,
      "t": 18561.12200000001,
      "d": 431.65399999999863,
      "v": 76
    },
    {
      "midi": 63,
      "hit": false,
      "t": 18704.4446171875,
      "d": 143.32261718749942,
      "v": 84
    },
    {
      "midi": 68,
      "hit": false,
      "t": 18704.4446171875,
      "d": 143.32261718749942,
      "v": 84
    },
    {
      "midi": 60,
      "hit": false,
      "t": 18847.767234375,
      "d": 145.0087656249998,
      "v": 71
    },
    {
      "midi": 63,
      "hit": false,
      "t": 18847.767234375,
      "d": 145.0087656249998,
      "v": 71
    },
    {
      "midi": 61,
      "hit": false,
      "t": 18992.775999999998,
      "d": 863.3080000000009,
      "v": 89
    },
    {
      "midi": 66,
      "hit": false,
      "t": 18992.775999999998,
      "d": 863.3080000000009,
      "v": 89
    },
    {
      "midi": 70,
      "hit": false,
      "t": 18992.775999999998,
      "d": 863.3080000000009,
      "v": 89
    },
    {
      "midi": 42,
      "hit": false,
      "t": 18992.77600000001,
      "d": 143.32261718749942,
      "v": 78
    },
    {
      "midi": 42,
      "hit": false,
      "t": 19136.09861718751,
      "d": 143.32261718749942,
      "v": 78
    },
    {
      "midi": 42,
      "hit": false,
      "t": 19279.421234375008,
      "d": 145.0087656249998,
      "v": 80
    },
    {
      "midi": 46,
      "hit": false,
      "t": 19424.430000000008,
      "d": 431.65399999999863,
      "v": 86
    },
    {
      "midi": 54,
      "hit": false,
      "t": 19424.430000000008,
      "d": 431.65399999999863,
      "v": 86
    },
    {
      "midi": 65,
      "hit": false,
      "t": 19856.084,
      "d": 863.3080000000009,
      "v": 84
    },
    {
      "midi": 68,
      "hit": false,
      "t": 19856.084,
      "d": 863.3080000000009,
      "v": 84
    },
    {
      "midi": 73,
      "hit": false,
      "t": 19856.084,
      "d": 863.3080000000009,
      "v": 84
    },
    {
      "midi": 49,
      "hit": false,
      "t": 19856.084000000006,
      "d": 143.32261718749942,
      "v": 72
    },
    {
      "midi": 49,
      "hit": false,
      "t": 19999.406617187506,
      "d": 143.32261718749942,
      "v": 75
    },
    {
      "midi": 49,
      "hit": false,
      "t": 20142.729234375005,
      "d": 145.0087656249998,
      "v": 73
    },
    {
      "midi": 53,
      "hit": false,
      "t": 20287.738000000005,
      "d": 431.65399999999863,
      "v": 98
    },
    {
      "midi": 61,
      "hit": false,
      "t": 20287.738000000005,
      "d": 431.65399999999863,
      "v": 98
    },
    {
      "midi": 68,
      "hit": false,
      "t": 20719.392,
      "d": 143.32261718749942,
      "v": 64
    },
    {
      "midi": 44,
      "hit": false,
      "t": 20719.392000000003,
      "d": 143.32261718749942,
      "v": 67
    },
    {
      "midi": 68,
      "hit": false,
      "t": 21006.037234375,
      "d": 145.0087656249998,
      "v": 66
    },
    {
      "midi": 44,
      "hit": false,
      "t": 21006.037234375002,
      "d": 145.0087656249998,
      "v": 70
    },
    {
      "midi": 63,
      "hit": false,
      "t": 21151.046,
      "d": 431.65399999999863,
      "v": 79
    },
    {
      "midi": 70,
      "hit": false,
      "t": 21151.046,
      "d": 431.65399999999863,
      "v": 79
    },
    {
      "midi": 43,
      "hit": false,
      "t": 21151.046000000002,
      "d": 431.65399999999863,
      "v": 74
    },
    {
      "midi": 72,
      "hit": false,
      "t": 21582.699999999997,
      "d": 431.65399999999863,
      "v": 82
    },
    {
      "midi": 42,
      "hit": false,
      "t": 21582.7,
      "d": 431.65399999999863,
      "v": 71
    },
    {
      "midi": 63,
      "hit": false,
      "t": 22014.353999999996,
      "d": 431.65399999999863,
      "v": 81
    },
    {
      "midi": 73,
      "hit": false,
      "t": 22014.353999999996,
      "d": 431.65399999999863,
      "v": 81
    },
    {
      "midi": 41,
      "hit": false,
      "t": 22014.354,
      "d": 431.65399999999863,
      "v": 72
    },
    {
      "midi": 68,
      "hit": false,
      "t": 22446.007999999994,
      "d": 431.65399999999863,
      "v": 67
    },
    {
      "midi": 40,
      "hit": false,
      "t": 22446.007999999998,
      "d": 431.65399999999863,
      "v": 75
    },
    {
      "midi": 59,
      "hit": false,
      "t": 22877.661999999993,
      "d": 286.64523437499884,
      "v": 67
    },
    {
      "midi": 40,
      "hit": false,
      "t": 22877.661999999997,
      "d": 143.32261718749942,
      "v": 72
    },
    {
      "midi": 68,
      "hit": false,
      "t": 23164.307234374992,
      "d": 145.0087656249998,
      "v": 91
    },
    {
      "midi": 40,
      "hit": false,
      "t": 23164.307234374995,
      "d": 145.0087656249998,
      "v": 72
    },
    {
      "midi": 70,
      "hit": false,
      "t": 23309.31599999999,
      "d": 143.32261718749942,
      "v": 85
    },
    {
      "midi": 40,
      "hit": false,
      "t": 23309.315999999995,
      "d": 431.65399999999863,
      "v": 73
    },
    {
      "midi": 66,
      "hit": false,
      "t": 23452.63861718749,
      "d": 143.32261718749942,
      "v": 66
    },
    {
      "midi": 70,
      "hit": false,
      "t": 23595.96123437499,
      "d": 145.0087656249998,
      "v": 83
    },
    {
      "midi": 75,
      "hit": false,
      "t": 23740.96999999999,
      "d": 143.32261718749942,
      "v": 87
    },
    {
      "midi": 40,
      "hit": false,
      "t": 23740.969999999994,
      "d": 143.32261718749942,
      "v": 80
    },
    {
      "midi": 72,
      "hit": false,
      "t": 23884.29261718749,
      "d": 143.32261718749942,
      "v": 67
    },
    {
      "midi": 75,
      "hit": false,
      "t": 24027.61523437499,
      "d": 145.0087656249998,
      "v": 85
    },
    {
      "midi": 40,
      "hit": false,
      "t": 24027.615234374993,
      "d": 145.0087656249998,
      "v": 68
    },
    {
      "midi": 60,
      "hit": false,
      "t": 24172.62399999999,
      "d": 143.32261718749942,
      "v": 71
    },
    {
      "midi": 72,
      "hit": false,
      "t": 24172.62399999999,
      "d": 143.32261718749942,
      "v": 71
    },
    {
      "midi": 44,
      "hit": false,
      "t": 24172.623999999993,
      "d": 431.65399999999863,
      "v": 79
    },
    {
      "midi": 61,
      "hit": false,
      "t": 24459.269234374988,
      "d": 145.0087656249998,
      "v": 65
    },
    {
      "midi": 73,
      "hit": false,
      "t": 24459.269234374988,
      "d": 145.0087656249998,
      "v": 65
    },
    {
      "midi": 63,
      "hit": false,
      "t": 24604.277999999988,
      "d": 143.32261718749942,
      "v": 80
    },
    {
      "midi": 75,
      "hit": false,
      "t": 24604.277999999988,
      "d": 143.32261718749942,
      "v": 80
    },
    {
      "midi": 44,
      "hit": false,
      "t": 24604.27799999999,
      "d": 143.32261718749942,
      "v": 76
    },
    {
      "midi": 61,
      "hit": false,
      "t": 24890.923234374986,
      "d": 145.0087656249998,
      "v": 66
    },
    {
      "midi": 73,
      "hit": false,
      "t": 24890.923234374986,
      "d": 145.0087656249998,
      "v": 66
    },
    {
      "midi": 44,
      "hit": false,
      "t": 24890.92323437499,
      "d": 145.0087656249998,
      "v": 69
    },
    {
      "midi": 60,
      "hit": false,
      "t": 25035.931999999986,
      "d": 863.3080000000009,
      "v": 75
    },
    {
      "midi": 72,
      "hit": false,
      "t": 25035.931999999986,
      "d": 863.3080000000009,
      "v": 75
    },
    {
      "midi": 44,
      "hit": false,
      "t": 25035.93199999999,
      "d": 431.65399999999863,
      "v": 78
    },
    {
      "midi": 44,
      "hit": false,
      "t": 25467.58599999999,
      "d": 143.32261718749942,
      "v": 75
    },
    {
      "midi": 44,
      "hit": false,
      "t": 25610.908617187488,
      "d": 143.32261718749942,
      "v": 75
    },
    {
      "midi": 44,
      "hit": false,
      "t": 25754.231234374987,
      "d": 145.0087656249998,
      "v": 75
    },
    {
      "midi": 68,
      "hit": false,
      "t": 25899.239999999987,
      "d": 143.32261718749942,
      "v": 67
    },
    {
      "midi": 44,
      "hit": false,
      "t": 25899.239999999987,
      "d": 143.32261718749942,
      "v": 78
    },
    {
      "midi": 68,
      "hit": false,
      "t": 26185.885234374986,
      "d": 145.0087656249998,
      "v": 71
    },
    {
      "midi": 44,
      "hit": false,
      "t": 26185.885234374986,
      "d": 145.0087656249998,
      "v": 70
    },
    {
      "midi": 63,
      "hit": false,
      "t": 26330.893999999986,
      "d": 431.65399999999863,
      "v": 82
    },
    {
      "midi": 70,
      "hit": false,
      "t": 26330.893999999986,
      "d": 431.65399999999863,
      "v": 82
    },
    {
      "midi": 43,
      "hit": false,
      "t": 26330.893999999986,
      "d": 431.65399999999863,
      "v": 74
    },
    {
      "midi": 72,
      "hit": false,
      "t": 26762.547999999984,
      "d": 431.65399999999863,
      "v": 80
    },
    {
      "midi": 42,
      "hit": false,
      "t": 26762.547999999984,
      "d": 431.65399999999863,
      "v": 78
    },
    {
      "midi": 63,
      "hit": false,
      "t": 27194.201999999983,
      "d": 431.65399999999863,
      "v": 81
    },
    {
      "midi": 73,
      "hit": false,
      "t": 27194.201999999983,
      "d": 431.65399999999863,
      "v": 81
    },
    {
      "midi": 41,
      "hit": false,
      "t": 27194.201999999983,
      "d": 431.65399999999863,
      "v": 77
    },
    {
      "midi": 68,
      "hit": false,
      "t": 27625.85599999998,
      "d": 431.65399999999863,
      "v": 63
    },
    {
      "midi": 40,
      "hit": false,
      "t": 27625.85599999998,
      "d": 431.65399999999863,
      "v": 71
    },
    {
      "midi": 59,
      "hit": false,
      "t": 28057.50999999998,
      "d": 286.64523437499884,
      "v": 63
    },
    {
      "midi": 40,
      "hit": false,
      "t": 28057.50999999998,
      "d": 143.32261718749942,
      "v": 76
    },
    {
      "midi": 40,
      "hit": false,
      "t": 28200.83261718748,
      "d": 143.32261718749942,
      "v": 72
    },
    {
      "midi": 68,
      "hit": false,
      "t": 28344.15523437498,
      "d": 145.0087656249998,
      "v": 92
    },
    {
      "midi": 40,
      "hit": false,
      "t": 28344.15523437498,
      "d": 145.0087656249998,
      "v": 78
    },
    {
      "midi": 70,
      "hit": false,
      "t": 28489.16399999998,
      "d": 143.32261718749942,
      "v": 81
    },
    {
      "midi": 52,
      "hit": false,
      "t": 28489.16399999998,
      "d": 718.2992343750011,
      "v": 86
    },
    {
      "midi": 66,
      "hit": false,
      "t": 28632.48661718748,
      "d": 143.32261718749942,
      "v": 68
    },
    {
      "midi": 70,
      "hit": false,
      "t": 28775.809234374978,
      "d": 145.0087656249998,
      "v": 80
    },
    {
      "midi": 75,
      "hit": false,
      "t": 28920.817999999977,
      "d": 143.32261718749942,
      "v": 94
    },
    {
      "midi": 72,
      "hit": false,
      "t": 29064.140617187477,
      "d": 143.32261718749942,
      "v": 73
    },
    {
      "midi": 75,
      "hit": false,
      "t": 29207.463234374976,
      "d": 145.0087656249998,
      "v": 85
    },
    {
      "midi": 40,
      "hit": false,
      "t": 29207.46323437498,
      "d": 145.0087656249998,
      "v": 63
    },
    {
      "midi": 60,
      "hit": false,
      "t": 29352.471999999976,
      "d": 143.32261718749942,
      "v": 70
    },
    {
      "midi": 72,
      "hit": false,
      "t": 29352.471999999976,
      "d": 143.32261718749942,
      "v": 70
    },
    {
      "midi": 44,
      "hit": false,
      "t": 29352.47199999998,
      "d": 431.65399999999863,
      "v": 77
    },
    {
      "midi": 61,
      "hit": false,
      "t": 29639.117234374975,
      "d": 145.0087656249998,
      "v": 69
    },
    {
      "midi": 73,
      "hit": false,
      "t": 29639.117234374975,
      "d": 145.0087656249998,
      "v": 69
    },
    {
      "midi": 63,
      "hit": false,
      "t": 29784.125999999975,
      "d": 143.32261718749942,
      "v": 79
    },
    {
      "midi": 75,
      "hit": false,
      "t": 29784.125999999975,
      "d": 143.32261718749942,
      "v": 79
    },
    {
      "midi": 44,
      "hit": false,
      "t": 29784.12599999998,
      "d": 143.32261718749942,
      "v": 77
    },
    {
      "midi": 61,
      "hit": false,
      "t": 30070.771234374974,
      "d": 145.0087656249998,
      "v": 66
    },
    {
      "midi": 73,
      "hit": false,
      "t": 30070.771234374974,
      "d": 145.0087656249998,
      "v": 66
    },
    {
      "midi": 44,
      "hit": false,
      "t": 30070.771234374977,
      "d": 145.0087656249998,
      "v": 66
    },
    {
      "midi": 60,
      "hit": false,
      "t": 30215.779999999973,
      "d": 431.65399999999863,
      "v": 74
    },
    {
      "midi": 72,
      "hit": false,
      "t": 30215.779999999973,
      "d": 431.65399999999863,
      "v": 74
    },
    {
      "midi": 44,
      "hit": false,
      "t": 30215.779999999977,
      "d": 431.65399999999863,
      "v": 77
    },
    {
      "midi": 68,
      "hit": false,
      "t": 30647.433999999972,
      "d": 143.32261718749942,
      "v": 66
    },
    {
      "midi": 44,
      "hit": false,
      "t": 30647.433999999976,
      "d": 143.32261718749942,
      "v": 76
    },
    {
      "midi": 72,
      "hit": false,
      "t": 30790.75661718747,
      "d": 143.32261718749942,
      "v": 80
    },
    {
      "midi": 73,
      "hit": false,
      "t": 30934.07923437497,
      "d": 145.0087656249998,
      "v": 82
    },
    {
      "midi": 44,
      "hit": false,
      "t": 30934.079234374974,
      "d": 145.0087656249998,
      "v": 71
    },
    {
      "midi": 70,
      "hit": false,
      "t": 31079.08799999997,
      "d": 863.3080000000009,
      "v": 83
    },
    {
      "midi": 75,
      "hit": false,
      "t": 31079.08799999997,
      "d": 863.3080000000009,
      "v": 83
    },
    {
      "midi": 42,
      "hit": false,
      "t": 31079.087999999974,
      "d": 431.65399999999863,
      "v": 74
    },
    {
      "midi": 42,
      "hit": false,
      "t": 31510.741999999973,
      "d": 143.32261718749942,
      "v": 77
    },
    {
      "midi": 42,
      "hit": false,
      "t": 31797.38723437497,
      "d": 145.0087656249998,
      "v": 69
    },
    {
      "midi": 72,
      "hit": false,
      "t": 31942.39599999997,
      "d": 431.65399999999863,
      "v": 71
    },
    {
      "midi": 54,
      "hit": false,
      "t": 31942.39599999997,
      "d": 431.65399999999863,
      "v": 85
    },
    {
      "midi": 70,
      "hit": false,
      "t": 32374.04999999997,
      "d": 143.32261718749942,
      "v": 81
    },
    {
      "midi": 73,
      "hit": false,
      "t": 32374.04999999997,
      "d": 143.32261718749942,
      "v": 81
    },
    {
      "midi": 49,
      "hit": false,
      "t": 32374.04999999997,
      "d": 431.65399999999863,
      "v": 73
    },
    {
      "midi": 68,
      "hit": false,
      "t": 32660.69523437497,
      "d": 145.0087656249998,
      "v": 68
    },
    {
      "midi": 72,
      "hit": false,
      "t": 32660.69523437497,
      "d": 145.0087656249998,
      "v": 68
    },
    {
      "midi": 65,
      "hit": false,
      "t": 32805.70399999997,
      "d": 863.3079999999973,
      "v": 81
    },
    {
      "midi": 68,
      "hit": false,
      "t": 32805.70399999997,
      "d": 863.3079999999973,
      "v": 81
    },
    {
      "midi": 73,
      "hit": false,
      "t": 32805.70399999997,
      "d": 863.3079999999973,
      "v": 81
    },
    {
      "midi": 41,
      "hit": false,
      "t": 32805.70399999997,
      "d": 431.65400000000227,
      "v": 67
    },
    {
      "midi": 41,
      "hit": false,
      "t": 33237.35799999997,
      "d": 143.32261718749942,
      "v": 78
    },
    {
      "midi": 41,
      "hit": false,
      "t": 33524.00323437497,
      "d": 145.00876562500343,
      "v": 66
    },
    {
      "midi": 61,
      "hit": false,
      "t": 33669.011999999966,
      "d": 431.65400000000227,
      "v": 70
    },
    {
      "midi": 68,
      "hit": false,
      "t": 33669.011999999966,
      "d": 431.65400000000227,
      "v": 70
    },
    {
      "midi": 53,
      "hit": false,
      "t": 33669.01199999997,
      "d": 431.65400000000227,
      "v": 90
    },
    {
      "midi": 61,
      "hit": false,
      "t": 34100.66599999997,
      "d": 431.65400000000227,
      "v": 77
    },
    {
      "midi": 70,
      "hit": false,
      "t": 34100.66599999997,
      "d": 431.65400000000227,
      "v": 77
    },
    {
      "midi": 37,
      "hit": false,
      "t": 34100.665999999976,
      "d": 431.65400000000227,
      "v": 64
    },
    {
      "midi": 68,
      "hit": false,
      "t": 34532.31999999997,
      "d": 431.65400000000227,
      "v": 82
    },
    {
      "midi": 72,
      "hit": false,
      "t": 34532.31999999997,
      "d": 431.65400000000227,
      "v": 82
    },
    {
      "midi": 39,
      "hit": false,
      "t": 34532.31999999998,
      "d": 143.32261718749942,
      "v": 77
    },
    {
      "midi": 39,
      "hit": false,
      "t": 34818.96523437498,
      "d": 145.00876562500343,
      "v": 69
    },
    {
      "midi": 70,
      "hit": false,
      "t": 34963.97399999997,
      "d": 143.32261718749942,
      "v": 77
    },
    {
      "midi": 73,
      "hit": false,
      "t": 34963.97399999997,
      "d": 143.32261718749942,
      "v": 77
    },
    {
      "midi": 39,
      "hit": false,
      "t": 34963.97399999998,
      "d": 143.32261718749942,
      "v": 76
    },
    {
      "midi": 68,
      "hit": false,
      "t": 35250.61923437497,
      "d": 145.00876562500343,
      "v": 65
    },
    {
      "midi": 72,
      "hit": false,
      "t": 35250.61923437497,
      "d": 145.00876562500343,
      "v": 65
    },
    {
      "midi": 39,
      "hit": false,
      "t": 35250.61923437498,
      "d": 145.00876562500343,
      "v": 71
    },
    {
      "midi": 65,
      "hit": false,
      "t": 35395.627999999975,
      "d": 431.65400000000227,
      "v": 68
    },
    {
      "midi": 70,
      "hit": false,
      "t": 35395.627999999975,
      "d": 431.65400000000227,
      "v": 68
    },
    {
      "midi": 38,
      "hit": false,
      "t": 35395.62799999998,
      "d": 143.32261718749942,
      "v": 74
    },
    {
      "midi": 38,
      "hit": false,
      "t": 35682.27323437498,
      "d": 145.00876562500343,
      "v": 68
    },
    {
      "midi": 65,
      "hit": false,
      "t": 35827.28199999998,
      "d": 431.65400000000227,
      "v": 73
    },
    {
      "midi": 68,
      "hit": false,
      "t": 35827.28199999998,
      "d": 431.65400000000227,
      "v": 73
    },
    {
      "midi": 38,
      "hit": false,
      "t": 35827.281999999985,
      "d": 143.32261718749942,
      "v": 75
    },
    {
      "midi": 38,
      "hit": false,
      "t": 36113.92723437498,
      "d": 145.00876562500343,
      "v": 67
    },
    {
      "midi": 61,
      "hit": false,
      "t": 36258.93599999998,
      "d": 431.65400000000227,
      "v": 76
    },
    {
      "midi": 65,
      "hit": false,
      "t": 36258.93599999998,
      "d": 431.65400000000227,
      "v": 76
    },
    {
      "midi": 68,
      "hit": false,
      "t": 36258.93599999998,
      "d": 431.65400000000227,
      "v": 76
    },
    {
      "midi": 37,
      "hit": false,
      "t": 36258.93599999999,
      "d": 143.32261718749942,
      "v": 70
    },
    {
      "midi": 37,
      "hit": false,
      "t": 36545.581234374986,
      "d": 145.00876562500343,
      "v": 67
    },
    {
      "midi": 63,
      "hit": false,
      "t": 36690.58999999998,
      "d": 431.65400000000227,
      "v": 74
    },
    {
      "midi": 67,
      "hit": false,
      "t": 36690.58999999998,
      "d": 431.65400000000227,
      "v": 74
    },
    {
      "midi": 37,
      "hit": false,
      "t": 36690.58999999999,
      "d": 143.32261718749942,
      "v": 76
    },
    {
      "midi": 37,
      "hit": false,
      "t": 36977.23523437499,
      "d": 145.00876562500343,
      "v": 66
    },
    {
      "midi": 58,
      "hit": false,
      "t": 37122.243999999984,
      "d": 431.65400000000227,
      "v": 72
    },
    {
      "midi": 61,
      "hit": false,
      "t": 37122.243999999984,
      "d": 431.65400000000227,
      "v": 72
    },
    {
      "midi": 65,
      "hit": false,
      "t": 37122.243999999984,
      "d": 431.65400000000227,
      "v": 72
    },
    {
      "midi": 39,
      "hit": false,
      "t": 37122.24399999999,
      "d": 143.32261718749942,
      "v": 78
    },
    {
      "midi": 39,
      "hit": false,
      "t": 37408.88923437499,
      "d": 145.00876562500343,
      "v": 73
    },
    {
      "midi": 63,
      "hit": false,
      "t": 37553.89799999999,
      "d": 431.65400000000227,
      "v": 77
    },
    {
      "midi": 67,
      "hit": false,
      "t": 37553.89799999999,
      "d": 431.65400000000227,
      "v": 77
    },
    {
      "midi": 39,
      "hit": false,
      "t": 37553.897999999994,
      "d": 143.32261718749942,
      "v": 77
    },
    {
      "midi": 39,
      "hit": false,
      "t": 37840.54323437499,
      "d": 145.00876562500343,
      "v": 66
    },
    {
      "midi": 68,
      "hit": false,
      "t": 37985.55199999999,
      "d": 143.32261718749942,
      "v": 85
    },
    {
      "midi": 44,
      "hit": false,
      "t": 37985.551999999996,
      "d": 574.9766171875017,
      "v": 79
    },
    {
      "midi": 63,
      "hit": false,
      "t": 38128.87461718749,
      "d": 143.32261718749942,
      "v": 67
    },
    {
      "midi": 68,
      "hit": false,
      "t": 38272.19723437499,
      "d": 145.00876562500343,
      "v": 85
    },
    {
      "midi": 72,
      "hit": false,
      "t": 38417.20599999999,
      "d": 143.32261718749942,
      "v": 88
    },
    {
      "midi": 68,
      "hit": false,
      "t": 38560.52861718749,
      "d": 143.32261718749942,
      "v": 70
    },
    {
      "midi": 72,
      "hit": false,
      "t": 38703.85123437499,
      "d": 145.00876562500343,
      "v": 84
    },
    {
      "midi": 44,
      "hit": false,
      "t": 38703.851234375,
      "d": 145.00876562500343,
      "v": 66
    },
    {
      "midi": 75,
      "hit": false,
      "t": 38848.85999999999,
      "d": 431.65400000000227,
      "v": 83
    },
    {
      "midi": 42,
      "hit": false,
      "t": 38848.86,
      "d": 574.9766171875017,
      "v": 74
    },
    {
      "midi": 72,
      "hit": false,
      "t": 39280.513999999996,
      "d": 143.32261718749942,
      "v": 67
    },
    {
      "midi": 68,
      "hit": false,
      "t": 39567.159234374994,
      "d": 145.00876562500343,
      "v": 66
    },
    {
      "midi": 42,
      "hit": false,
      "t": 39567.159234375,
      "d": 145.00876562500343,
      "v": 67
    },
    {
      "midi": 68,
      "hit": false,
      "t": 39712.168,
      "d": 431.65400000000227,
      "v": 84
    },
    {
      "midi": 73,
      "hit": false,
      "t": 39712.168,
      "d": 431.65400000000227,
      "v": 84
    },
    {
      "midi": 41,
      "hit": false,
      "t": 39712.168000000005,
      "d": 574.9766171875017,
      "v": 72
    },
    {
      "midi": 63,
      "hit": false,
      "t": 40143.822,
      "d": 143.32261718749942,
      "v": 74
    },
    {
      "midi": 72,
      "hit": false,
      "t": 40143.822,
      "d": 143.32261718749942,
      "v": 74
    },
    {
      "midi": 61,
      "hit": false,
      "t": 40430.467234375,
      "d": 145.00876562500343,
      "v": 69
    },
    {
      "midi": 70,
      "hit": false,
      "t": 40430.467234375,
      "d": 145.00876562500343,
      "v": 69
    },
    {
      "midi": 41,
      "hit": false,
      "t": 40430.467234375006,
      "d": 145.00876562500343,
      "v": 66
    },
    {
      "midi": 60,
      "hit": false,
      "t": 40575.476,
      "d": 431.65400000000227,
      "v": 68
    },
    {
      "midi": 68,
      "hit": false,
      "t": 40575.476,
      "d": 431.65400000000227,
      "v": 68
    },
    {
      "midi": 51,
      "hit": false,
      "t": 40575.47600000001,
      "d": 574.9766171875017,
      "v": 86
    },
    {
      "midi": 61,
      "hit": false,
      "t": 41007.130000000005,
      "d": 431.65400000000227,
      "v": 77
    },
    {
      "midi": 70,
      "hit": false,
      "t": 41007.130000000005,
      "d": 431.65400000000227,
      "v": 77
    },
    {
      "midi": 51,
      "hit": false,
      "t": 41293.77523437501,
      "d": 145.00876562500343,
      "v": 73
    },
    {
      "midi": 53,
      "hit": false,
      "t": 41438.78400000001,
      "d": 143.32261718749942,
      "v": 70
    },
    {
      "midi": 68,
      "hit": false,
      "t": 41438.78400000001,
      "d": 1726.6160000000018,
      "v": 72
    },
    {
      "midi": 37,
      "hit": false,
      "t": 41438.784000000014,
      "d": 574.9766171875017,
      "v": 66
    },
    {
      "midi": 56,
      "hit": false,
      "t": 41582.106617187506,
      "d": 143.32261718749942,
      "v": 78
    },
    {
      "midi": 61,
      "hit": false,
      "t": 41725.429234375006,
      "d": 145.00876562500343,
      "v": 90
    },
    {
      "midi": 63,
      "hit": false,
      "t": 41870.43800000001,
      "d": 143.32261718749942,
      "v": 83
    },
    {
      "midi": 61,
      "hit": false,
      "t": 42013.76061718751,
      "d": 143.32261718749942,
      "v": 75
    },
    {
      "midi": 63,
      "hit": false,
      "t": 42157.08323437501,
      "d": 145.00876562500343,
      "v": 78
    },
    {
      "midi": 49,
      "hit": false,
      "t": 42157.083234375015,
      "d": 145.00876562500343,
      "v": 69
    },
    {
      "midi": 65,
      "hit": false,
      "t": 42302.09200000001,
      "d": 863.3079999999973,
      "v": 81
    },
    {
      "midi": 56,
      "hit": false,
      "t": 42302.09200000002,
      "d": 431.65400000000227,
      "v": 80
    },
    {
      "midi": 49,
      "hit": false,
      "t": 42733.74600000002,
      "d": 431.65400000000227,
      "v": 67
    },
    {
      "midi": 51,
      "hit": false,
      "t": 43165.40000000001,
      "d": 143.32261718749942,
      "v": 70
    },
    {
      "midi": 36,
      "hit": false,
      "t": 43165.40000000002,
      "d": 574.9766171875017,
      "v": 66
    },
    {
      "midi": 56,
      "hit": false,
      "t": 43308.72261718751,
      "d": 143.32261718749942,
      "v": 82
    },
    {
      "midi": 58,
      "hit": false,
      "t": 43452.04523437501,
      "d": 145.00876562500343,
      "v": 73
    },
    {
      "midi": 63,
      "hit": false,
      "t": 43597.05400000001,
      "d": 143.32261718749942,
      "v": 84
    },
    {
      "midi": 68,
      "hit": false,
      "t": 43740.37661718751,
      "d": 143.32261718749942,
      "v": 88
    },
    {
      "midi": 73,
      "hit": false,
      "t": 43883.69923437501,
      "d": 145.00876562500343,
      "v": 91
    },
    {
      "midi": 48,
      "hit": false,
      "t": 43883.699234375024,
      "d": 145.00876562500343,
      "v": 68
    },
    {
      "midi": 72,
      "hit": false,
      "t": 44028.70800000001,
      "d": 863.3079999999973,
      "v": 79
    },
    {
      "midi": 56,
      "hit": false,
      "t": 44028.70800000003,
      "d": 431.65400000000227,
      "v": 82
    },
    {
      "midi": 48,
      "hit": false,
      "t": 44460.36200000003,
      "d": 431.65400000000227,
      "v": 70
    },
    {
      "midi": 61,
      "hit": false,
      "t": 44892.01600000001,
      "d": 431.65400000000227,
      "v": 60
    },
    {
      "midi": 68,
      "hit": false,
      "t": 44892.01600000001,
      "d": 1726.616000000009,
      "v": 77
    },
    {
      "midi": 34,
      "hit": false,
      "t": 44892.01600000003,
      "d": 431.65400000000227,
      "v": 65
    },
    {
      "midi": 60,
      "hit": false,
      "t": 45323.67000000001,
      "d": 143.32261718749942,
      "v": 69
    },
    {
      "midi": 36,
      "hit": false,
      "t": 45323.670000000035,
      "d": 431.65400000000227,
      "v": 75
    },
    {
      "midi": 61,
      "hit": false,
      "t": 45466.99261718751,
      "d": 143.32261718749942,
      "v": 77
    },
    {
      "midi": 63,
      "hit": false,
      "t": 45610.31523437501,
      "d": 145.00876562500343,
      "v": 89
    },
    {
      "midi": 61,
      "hit": false,
      "t": 45755.324000000015,
      "d": 431.65400000000227,
      "v": 81
    },
    {
      "midi": 65,
      "hit": false,
      "t": 45755.324000000015,
      "d": 431.65400000000227,
      "v": 81
    },
    {
      "midi": 37,
      "hit": false,
      "t": 45755.32400000004,
      "d": 431.65400000000227,
      "v": 78
    },
    {
      "midi": 67,
      "hit": false,
      "t": 46186.97800000002,
      "d": 431.65400000000227,
      "v": 79
    },
    {
      "midi": 38,
      "hit": false,
      "t": 46186.97800000004,
      "d": 431.65400000000227,
      "v": 78
    },
    {
      "midi": 61,
      "hit": false,
      "t": 46618.63200000002,
      "d": 431.65400000000227,
      "v": 76
    },
    {
      "midi": 68,
      "hit": false,
      "t": 46618.63200000002,
      "d": 431.65400000000227,
      "v": 76
    },
    {
      "midi": 39,
      "hit": false,
      "t": 46618.63200000004,
      "d": 431.65400000000227,
      "v": 76
    },
    {
      "midi": 70,
      "hit": false,
      "t": 47050.28600000002,
      "d": 143.32261718749942,
      "v": 82
    },
    {
      "midi": 39,
      "hit": false,
      "t": 47050.286000000044,
      "d": 143.32261718749942,
      "v": 76
    },
    {
      "midi": 68,
      "hit": false,
      "t": 47193.60861718752,
      "d": 143.32261718749942,
      "v": 71
    },
    {
      "midi": 70,
      "hit": false,
      "t": 47336.93123437502,
      "d": 145.00876562500343,
      "v": 81
    },
    {
      "midi": 39,
      "hit": false,
      "t": 47336.93123437504,
      "d": 145.00876562500343,
      "v": 67
    },
    {
      "midi": 72,
      "hit": false,
      "t": 47481.940000000024,
      "d": 143.32261718749942,
      "v": 81
    },
    {
      "midi": 61,
      "hit": false,
      "t": 47481.940000000024,
      "d": 431.65400000000227,
      "v": 81
    },
    {
      "midi": 39,
      "hit": false,
      "t": 47481.940000000046,
      "d": 143.32261718749942,
      "v": 73
    },
    {
      "midi": 70,
      "hit": false,
      "t": 47625.26261718752,
      "d": 143.32261718749942,
      "v": 78
    },
    {
      "midi": 41,
      "hit": false,
      "t": 47625.262617187545,
      "d": 143.32261718749942,
      "v": 77
    },
    {
      "midi": 72,
      "hit": false,
      "t": 47768.58523437502,
      "d": 145.00876562500343,
      "v": 85
    },
    {
      "midi": 39,
      "hit": false,
      "t": 47768.585234375045,
      "d": 145.00876562500343,
      "v": 71
    },
    {
      "midi": 73,
      "hit": false,
      "t": 47913.59400000003,
      "d": 431.65400000000227,
      "v": 77
    },
    {
      "midi": 43,
      "hit": false,
      "t": 47913.59400000005,
      "d": 431.65400000000227,
      "v": 84
    },
    {
      "midi": 64,
      "hit": false,
      "t": 48345.24800000003,
      "d": 70.81823437500134,
      "v": 70
    },
    {
      "midi": 68,
      "hit": false,
      "t": 48345.24800000003,
      "d": 70.81823437500134,
      "v": 70
    },
    {
      "midi": 71,
      "hit": false,
      "t": 48345.24800000003,
      "d": 70.81823437500134,
      "v": 70
    },
    {
      "midi": 40,
      "hit": false,
      "t": 48345.24800000005,
      "d": 1294.9619999999995,
      "v": 76
    },
    {
      "midi": 64,
      "hit": false,
      "t": 48488.57061718753,
      "d": 70.81823437500134,
      "v": 71
    },
    {
      "midi": 68,
      "hit": false,
      "t": 48488.57061718753,
      "d": 70.81823437500134,
      "v": 71
    },
    {
      "midi": 71,
      "hit": false,
      "t": 48488.57061718753,
      "d": 70.81823437500134,
      "v": 71
    },
    {
      "midi": 64,
      "hit": false,
      "t": 48631.89323437503,
      "d": 72.50438281249808,
      "v": 77
    },
    {
      "midi": 68,
      "hit": false,
      "t": 48631.89323437503,
      "d": 72.50438281249808,
      "v": 77
    },
    {
      "midi": 71,
      "hit": false,
      "t": 48631.89323437503,
      "d": 72.50438281249808,
      "v": 77
    },
    {
      "midi": 64,
      "hit": false,
      "t": 48776.902000000024,
      "d": 215.8269999999975,
      "v": 74
    },
    {
      "midi": 68,
      "hit": false,
      "t": 48776.902000000024,
      "d": 215.8269999999975,
      "v": 74
    },
    {
      "midi": 71,
      "hit": false,
      "t": 48776.902000000024,
      "d": 215.8269999999975,
      "v": 74
    },
    {
      "midi": 64,
      "hit": false,
      "t": 49208.55600000002,
      "d": 70.81823437500134,
      "v": 78
    },
    {
      "midi": 68,
      "hit": false,
      "t": 49208.55600000002,
      "d": 70.81823437500134,
      "v": 78
    },
    {
      "midi": 71,
      "hit": false,
      "t": 49208.55600000002,
      "d": 70.81823437500134,
      "v": 78
    },
    {
      "midi": 64,
      "hit": false,
      "t": 49351.87861718752,
      "d": 70.81823437500134,
      "v": 73
    },
    {
      "midi": 68,
      "hit": false,
      "t": 49351.87861718752,
      "d": 70.81823437500134,
      "v": 73
    },
    {
      "midi": 71,
      "hit": false,
      "t": 49351.87861718752,
      "d": 70.81823437500134,
      "v": 73
    },
    {
      "midi": 64,
      "hit": false,
      "t": 49495.20123437502,
      "d": 72.50438281249808,
      "v": 76
    },
    {
      "midi": 68,
      "hit": false,
      "t": 49495.20123437502,
      "d": 72.50438281249808,
      "v": 76
    },
    {
      "midi": 71,
      "hit": false,
      "t": 49495.20123437502,
      "d": 72.50438281249808,
      "v": 76
    },
    {
      "midi": 64,
      "hit": false,
      "t": 49640.210000000014,
      "d": 215.8269999999975,
      "v": 78
    },
    {
      "midi": 68,
      "hit": false,
      "t": 49640.210000000014,
      "d": 215.8269999999975,
      "v": 78
    },
    {
      "midi": 71,
      "hit": false,
      "t": 49640.210000000014,
      "d": 215.8269999999975,
      "v": 78
    },
    {
      "midi": 40,
      "hit": false,
      "t": 49640.21000000005,
      "d": 431.65400000000227,
      "v": 78
    },
    {
      "midi": 64,
      "hit": false,
      "t": 50071.86400000001,
      "d": 70.81823437500134,
      "v": 76
    },
    {
      "midi": 68,
      "hit": false,
      "t": 50071.86400000001,
      "d": 70.81823437500134,
      "v": 76
    },
    {
      "midi": 71,
      "hit": false,
      "t": 50071.86400000001,
      "d": 70.81823437500134,
      "v": 76
    },
    {
      "midi": 52,
      "hit": false,
      "t": 50071.86400000005,
      "d": 863.3079999999973,
      "v": 91
    },
    {
      "midi": 64,
      "hit": false,
      "t": 50215.18661718751,
      "d": 70.81823437500134,
      "v": 76
    },
    {
      "midi": 68,
      "hit": false,
      "t": 50215.18661718751,
      "d": 70.81823437500134,
      "v": 76
    },
    {
      "midi": 71,
      "hit": false,
      "t": 50215.18661718751,
      "d": 70.81823437500134,
      "v": 76
    },
    {
      "midi": 64,
      "hit": false,
      "t": 50358.50923437501,
      "d": 72.50438281249808,
      "v": 75
    },
    {
      "midi": 68,
      "hit": false,
      "t": 50358.50923437501,
      "d": 72.50438281249808,
      "v": 75
    },
    {
      "midi": 71,
      "hit": false,
      "t": 50358.50923437501,
      "d": 72.50438281249808,
      "v": 75
    },
    {
      "midi": 64,
      "hit": false,
      "t": 50503.518000000004,
      "d": 215.8269999999975,
      "v": 72
    },
    {
      "midi": 68,
      "hit": false,
      "t": 50503.518000000004,
      "d": 215.8269999999975,
      "v": 72
    },
    {
      "midi": 71,
      "hit": false,
      "t": 50503.518000000004,
      "d": 215.8269999999975,
      "v": 72
    },
    {
      "midi": 64,
      "hit": false,
      "t": 50935.172,
      "d": 70.81823437500134,
      "v": 76
    },
    {
      "midi": 68,
      "hit": false,
      "t": 50935.172,
      "d": 70.81823437500134,
      "v": 76
    },
    {
      "midi": 71,
      "hit": false,
      "t": 50935.172,
      "d": 70.81823437500134,
      "v": 76
    },
    {
      "midi": 40,
      "hit": false,
      "t": 50935.17200000005,
      "d": 863.3079999999973,
      "v": 65
    },
    {
      "midi": 64,
      "hit": false,
      "t": 51078.4946171875,
      "d": 70.81823437500134,
      "v": 76
    },
    {
      "midi": 68,
      "hit": false,
      "t": 51078.4946171875,
      "d": 70.81823437500134,
      "v": 76
    },
    {
      "midi": 71,
      "hit": false,
      "t": 51078.4946171875,
      "d": 70.81823437500134,
      "v": 76
    },
    {
      "midi": 64,
      "hit": false,
      "t": 51221.817234375,
      "d": 72.50438281249808,
      "v": 76
    },
    {
      "midi": 68,
      "hit": false,
      "t": 51221.817234375,
      "d": 72.50438281249808,
      "v": 76
    },
    {
      "midi": 71,
      "hit": false,
      "t": 51221.817234375,
      "d": 72.50438281249808,
      "v": 76
    },
    {
      "midi": 64,
      "hit": false,
      "t": 51366.825999999994,
      "d": 215.8269999999975,
      "v": 75
    },
    {
      "midi": 68,
      "hit": false,
      "t": 51366.825999999994,
      "d": 215.8269999999975,
      "v": 75
    },
    {
      "midi": 71,
      "hit": false,
      "t": 51366.825999999994,
      "d": 215.8269999999975,
      "v": 75
    },
    {
      "midi": 64,
      "hit": false,
      "t": 51798.47999999999,
      "d": 143.32261718749942,
      "v": 82
    },
    {
      "midi": 71,
      "hit": false,
      "t": 51798.47999999999,
      "d": 143.32261718749942,
      "v": 82
    },
    {
      "midi": 76,
      "hit": false,
      "t": 51798.47999999999,
      "d": 143.32261718749942,
      "v": 82
    },
    {
      "midi": 40,
      "hit": false,
      "t": 51798.48000000005,
      "d": 431.65400000000227,
      "v": 76
    },
    {
      "midi": 64,
      "hit": false,
      "t": 51941.80261718749,
      "d": 143.32261718749942,
      "v": 80
    },
    {
      "midi": 71,
      "hit": false,
      "t": 51941.80261718749,
      "d": 143.32261718749942,
      "v": 80
    },
    {
      "midi": 76,
      "hit": false,
      "t": 51941.80261718749,
      "d": 143.32261718749942,
      "v": 80
    },
    {
      "midi": 64,
      "hit": false,
      "t": 52085.12523437499,
      "d": 145.00876562500343,
      "v": 79
    },
    {
      "midi": 71,
      "hit": false,
      "t": 52085.12523437499,
      "d": 145.00876562500343,
      "v": 79
    },
    {
      "midi": 76,
      "hit": false,
      "t": 52085.12523437499,
      "d": 145.00876562500343,
      "v": 79
    },
    {
      "midi": 68,
      "hit": false,
      "t": 52230.13399999999,
      "d": 70.81823437500134,
      "v": 85
    },
    {
      "midi": 76,
      "hit": false,
      "t": 52230.13399999999,
      "d": 70.81823437500134,
      "v": 85
    },
    {
      "midi": 80,
      "hit": false,
      "t": 52230.13399999999,
      "d": 70.81823437500134,
      "v": 85
    },
    {
      "midi": 40,
      "hit": false,
      "t": 52230.13400000005,
      "d": 431.65400000000227,
      "v": 73
    },
    {
      "midi": 64,
      "hit": false,
      "t": 52516.77923437499,
      "d": 72.50438281249808,
      "v": 70
    },
    {
      "midi": 71,
      "hit": false,
      "t": 52516.77923437499,
      "d": 72.50438281249808,
      "v": 70
    },
    {
      "midi": 76,
      "hit": false,
      "t": 52516.77923437499,
      "d": 72.50438281249808,
      "v": 70
    },
    {
      "midi": 64,
      "hit": false,
      "t": 52661.787999999986,
      "d": 215.8269999999975,
      "v": 73
    },
    {
      "midi": 71,
      "hit": false,
      "t": 52661.787999999986,
      "d": 215.8269999999975,
      "v": 73
    },
    {
      "midi": 76,
      "hit": false,
      "t": 52661.787999999986,
      "d": 215.8269999999975,
      "v": 73
    },
    {
      "midi": 40,
      "hit": false,
      "t": 52661.78800000005,
      "d": 431.65400000000227,
      "v": 78
    },
    {
      "midi": 59,
      "hit": false,
      "t": 53093.44199999998,
      "d": 143.32261718749942,
      "v": 52
    },
    {
      "midi": 64,
      "hit": false,
      "t": 53093.44199999998,
      "d": 143.32261718749942,
      "v": 52
    },
    {
      "midi": 40,
      "hit": false,
      "t": 53093.442000000054,
      "d": 431.65400000000227,
      "v": 74
    },
    {
      "midi": 64,
      "hit": false,
      "t": 53236.76461718748,
      "d": 143.32261718749942,
      "v": 80
    },
    {
      "midi": 68,
      "hit": false,
      "t": 53236.76461718748,
      "d": 143.32261718749942,
      "v": 80
    },
    {
      "midi": 64,
      "hit": false,
      "t": 53380.08723437498,
      "d": 145.00876562500343,
      "v": 81
    },
    {
      "midi": 71,
      "hit": false,
      "t": 53380.08723437498,
      "d": 145.00876562500343,
      "v": 81
    },
    {
      "midi": 67,
      "hit": false,
      "t": 53525.09599999998,
      "d": 863.3079999999973,
      "v": 84
    },
    {
      "midi": 70,
      "hit": false,
      "t": 53525.09599999998,
      "d": 863.3079999999973,
      "v": 84
    },
    {
      "midi": 75,
      "hit": false,
      "t": 53525.09599999998,
      "d": 863.3079999999973,
      "v": 84
    },
    {
      "midi": 39,
      "hit": false,
      "t": 53525.096000000056,
      "d": 431.65400000000227,
      "v": 79
    },
    {
      "midi": 39,
      "hit": false,
      "t": 53956.75000000006,
      "d": 286.64523437499884,
      "v": 72
    },
    {
      "midi": 37,
      "hit": false,
      "t": 54243.39523437506,
      "d": 145.00876562500343,
      "v": 74
    },
    {
      "midi": 67,
      "hit": false,
      "t": 54388.40399999998,
      "d": 863.3079999999973,
      "v": 70
    },
    {
      "midi": 70,
      "hit": false,
      "t": 54388.40399999998,
      "d": 863.3079999999973,
      "v": 70
    },
    {
      "midi": 73,
      "hit": false,
      "t": 54388.40399999998,
      "d": 863.3079999999973,
      "v": 70
    },
    {
      "midi": 39,
      "hit": false,
      "t": 54388.40400000006,
      "d": 431.65400000000227,
      "v": 77
    },
    {
      "midi": 39,
      "hit": false,
      "t": 54820.05800000006,
      "d": 431.65400000000227,
      "v": 73
    },
    {
      "midi": 68,
      "hit": false,
      "t": 55251.71199999998,
      "d": 143.32261718749942,
      "v": 70
    },
    {
      "midi": 71,
      "hit": false,
      "t": 55251.71199999998,
      "d": 143.32261718749942,
      "v": 70
    },
    {
      "midi": 40,
      "hit": false,
      "t": 55251.712000000065,
      "d": 431.65400000000227,
      "v": 77
    },
    {
      "midi": 68,
      "hit": false,
      "t": 55395.03461718748,
      "d": 143.32261718749942,
      "v": 79
    },
    {
      "midi": 71,
      "hit": false,
      "t": 55395.03461718748,
      "d": 143.32261718749942,
      "v": 79
    },
    {
      "midi": 68,
      "hit": false,
      "t": 55538.35723437498,
      "d": 145.00876562500343,
      "v": 79
    },
    {
      "midi": 71,
      "hit": false,
      "t": 55538.35723437498,
      "d": 145.00876562500343,
      "v": 79
    },
    {
      "midi": 71,
      "hit": false,
      "t": 55683.36599999998,
      "d": 70.81823437500134,
      "v": 85
    },
    {
      "midi": 76,
      "hit": false,
      "t": 55683.36599999998,
      "d": 70.81823437500134,
      "v": 85
    },
    {
      "midi": 40,
      "hit": false,
      "t": 55683.36600000007,
      "d": 431.65400000000227,
      "v": 76
    },
    {
      "midi": 68,
      "hit": false,
      "t": 55970.01123437498,
      "d": 72.50438281249808,
      "v": 67
    },
    {
      "midi": 71,
      "hit": false,
      "t": 55970.01123437498,
      "d": 72.50438281249808,
      "v": 67
    },
    {
      "midi": 68,
      "hit": false,
      "t": 56115.019999999975,
      "d": 215.8269999999975,
      "v": 70
    },
    {
      "midi": 71,
      "hit": false,
      "t": 56115.019999999975,
      "d": 215.8269999999975,
      "v": 70
    },
    {
      "midi": 40,
      "hit": false,
      "t": 56115.02000000007,
      "d": 431.65400000000227,
      "v": 78
    },
    {
      "midi": 68,
      "hit": false,
      "t": 56546.67399999997,
      "d": 143.32261718749942,
      "v": 78
    },
    {
      "midi": 71,
      "hit": false,
      "t": 56546.67399999997,
      "d": 143.32261718749942,
      "v": 78
    },
    {
      "midi": 40,
      "hit": false,
      "t": 56546.67400000007,
      "d": 431.65400000000227,
      "v": 79
    },
    {
      "midi": 71,
      "hit": false,
      "t": 56689.99661718747,
      "d": 143.32261718749942,
      "v": 83
    },
    {
      "midi": 76,
      "hit": false,
      "t": 56689.99661718747,
      "d": 143.32261718749942,
      "v": 83
    },
    {
      "midi": 68,
      "hit": false,
      "t": 56833.31923437497,
      "d": 145.00876562500343,
      "v": 66
    },
    {
      "midi": 71,
      "hit": false,
      "t": 56833.31923437497,
      "d": 145.00876562500343,
      "v": 66
    },
    {
      "midi": 74,
      "hit": false,
      "t": 56978.32799999997,
      "d": 863.3080000000045,
      "v": 88
    },
    {
      "midi": 78,
      "hit": false,
      "t": 56978.32799999997,
      "d": 863.3080000000045,
      "v": 88
    },
    {
      "midi": 38,
      "hit": false,
      "t": 56978.328000000074,
      "d": 431.65400000000227,
      "v": 75
    },
    {
      "midi": 62,
      "hit": false,
      "t": 57409.981999999975,
      "d": 143.32261718749942,
      "v": 68
    },
    {
      "midi": 38,
      "hit": false,
      "t": 57409.98200000008,
      "d": 286.64523437499884,
      "v": 76
    },
    {
      "midi": 66,
      "hit": false,
      "t": 57553.304617187474,
      "d": 143.32261718749942,
      "v": 81
    },
    {
      "midi": 69,
      "hit": false,
      "t": 57696.62723437497,
      "d": 145.00876562500343,
      "v": 84
    },
    {
      "midi": 38,
      "hit": false,
      "t": 57696.627234375075,
      "d": 145.00876562500343,
      "v": 79
    },
    {
      "midi": 73,
      "hit": false,
      "t": 57841.63599999998,
      "d": 143.32261718749942,
      "v": 82
    },
    {
      "midi": 76,
      "hit": false,
      "t": 57841.63599999998,
      "d": 863.3080000000045,
      "v": 85
    },
    {
      "midi": 81,
      "hit": false,
      "t": 57841.63599999998,
      "d": 863.3080000000045,
      "v": 85
    },
    {
      "midi": 45,
      "hit": false,
      "t": 57841.63600000008,
      "d": 431.65400000000227,
      "v": 85
    },
    {
      "midi": 69,
      "hit": false,
      "t": 57984.958617187476,
      "d": 143.32261718749942,
      "v": 69
    },
    {
      "midi": 64,
      "hit": false,
      "t": 58128.281234374976,
      "d": 145.00876562500343,
      "v": 66
    },
    {
      "midi": 61,
      "hit": false,
      "t": 58273.28999999998,
      "d": 143.32261718749942,
      "v": 67
    },
    {
      "midi": 45,
      "hit": false,
      "t": 58273.29000000008,
      "d": 431.65400000000227,
      "v": 80
    },
    {
      "midi": 64,
      "hit": false,
      "t": 58416.61261718748,
      "d": 143.32261718749942,
      "v": 82
    },
    {
      "midi": 69,
      "hit": false,
      "t": 58559.93523437498,
      "d": 145.00876562500343,
      "v": 86
    },
    {
      "midi": 64,
      "hit": false,
      "t": 58704.94399999998,
      "d": 143.32261718749942,
      "v": 65
    },
    {
      "midi": 71,
      "hit": false,
      "t": 58704.94399999998,
      "d": 143.32261718749942,
      "v": 65
    },
    {
      "midi": 76,
      "hit": false,
      "t": 58704.94399999998,
      "d": 143.32261718749942,
      "v": 65
    },
    {
      "midi": 40,
      "hit": false,
      "t": 58704.94400000008,
      "d": 431.65400000000227,
      "v": 72
    },
    {
      "midi": 64,
      "hit": false,
      "t": 58848.26661718748,
      "d": 143.32261718749942,
      "v": 77
    },
    {
      "midi": 71,
      "hit": false,
      "t": 58848.26661718748,
      "d": 143.32261718749942,
      "v": 77
    },
    {
      "midi": 76,
      "hit": false,
      "t": 58848.26661718748,
      "d": 143.32261718749942,
      "v": 77
    },
    {
      "midi": 64,
      "hit": false,
      "t": 58991.58923437498,
      "d": 145.00876562500343,
      "v": 79
    },
    {
      "midi": 71,
      "hit": false,
      "t": 58991.58923437498,
      "d": 145.00876562500343,
      "v": 79
    },
    {
      "midi": 76,
      "hit": false,
      "t": 58991.58923437498,
      "d": 145.00876562500343,
      "v": 79
    },
    {
      "midi": 68,
      "hit": false,
      "t": 59136.59799999998,
      "d": 70.81823437500134,
      "v": 85
    },
    {
      "midi": 76,
      "hit": false,
      "t": 59136.59799999998,
      "d": 70.81823437500134,
      "v": 85
    },
    {
      "midi": 80,
      "hit": false,
      "t": 59136.59799999998,
      "d": 70.81823437500134,
      "v": 85
    },
    {
      "midi": 40,
      "hit": false,
      "t": 59136.598000000085,
      "d": 431.65400000000227,
      "v": 77
    },
    {
      "midi": 64,
      "hit": false,
      "t": 59423.24323437498,
      "d": 72.50438281249808,
      "v": 67
    },
    {
      "midi": 71,
      "hit": false,
      "t": 59423.24323437498,
      "d": 72.50438281249808,
      "v": 67
    },
    {
      "midi": 76,
      "hit": false,
      "t": 59423.24323437498,
      "d": 72.50438281249808,
      "v": 67
    },
    {
      "midi": 64,
      "hit": false,
      "t": 59568.25199999998,
      "d": 215.8269999999975,
      "v": 73
    },
    {
      "midi": 71,
      "hit": false,
      "t": 59568.25199999998,
      "d": 215.8269999999975,
      "v": 73
    },
    {
      "midi": 76,
      "hit": false,
      "t": 59568.25199999998,
      "d": 215.8269999999975,
      "v": 73
    },
    {
      "midi": 40,
      "hit": false,
      "t": 59568.25200000009,
      "d": 431.65400000000227,
      "v": 80
    },
    {
      "midi": 59,
      "hit": false,
      "t": 59999.90599999997,
      "d": 143.32261718749942,
      "v": 51
    },
    {
      "midi": 64,
      "hit": false,
      "t": 59999.90599999997,
      "d": 143.32261718749942,
      "v": 51
    },
    {
      "midi": 40,
      "hit": false,
      "t": 59999.90600000009,
      "d": 431.65400000000227,
      "v": 77
    },
    {
      "midi": 64,
      "hit": false,
      "t": 60143.22861718747,
      "d": 143.32261718749942,
      "v": 79
    },
    {
      "midi": 68,
      "hit": false,
      "t": 60143.22861718747,
      "d": 143.32261718749942,
      "v": 79
    },
    {
      "midi": 64,
      "hit": false,
      "t": 60286.55123437497,
      "d": 145.00876562500343,
      "v": 83
    },
    {
      "midi": 71,
      "hit": false,
      "t": 60286.55123437497,
      "d": 145.00876562500343,
      "v": 83
    },
    {
      "midi": 67,
      "hit": false,
      "t": 60431.559999999976,
      "d": 863.3079999999973,
      "v": 82
    },
    {
      "midi": 70,
      "hit": false,
      "t": 60431.559999999976,
      "d": 863.3079999999973,
      "v": 82
    },
    {
      "midi": 75,
      "hit": false,
      "t": 60431.559999999976,
      "d": 863.3079999999973,
      "v": 82
    },
    {
      "midi": 39,
      "hit": false,
      "t": 60431.56000000009,
      "d": 431.65400000000227,
      "v": 73
    },
    {
      "midi": 39,
      "hit": false,
      "t": 60863.214000000095,
      "d": 286.64523437499884,
      "v": 71
    },
    {
      "midi": 37,
      "hit": false,
      "t": 61149.85923437509,
      "d": 145.00876562500343,
      "v": 75
    },
    {
      "midi": 67,
      "hit": false,
      "t": 61294.86799999997,
      "d": 863.3079999999973,
      "v": 74
    },
    {
      "midi": 70,
      "hit": false,
      "t": 61294.86799999997,
      "d": 863.3079999999973,
      "v": 74
    },
    {
      "midi": 73,
      "hit": false,
      "t": 61294.86799999997,
      "d": 863.3079999999973,
      "v": 74
    },
    {
      "midi": 39,
      "hit": false,
      "t": 61294.8680000001,
      "d": 431.65400000000227,
      "v": 79
    },
    {
      "midi": 39,
      "hit": false,
      "t": 61726.5220000001,
      "d": 431.65400000000227,
      "v": 74
    },
    {
      "midi": 68,
      "hit": false,
      "t": 62158.17599999997,
      "d": 143.32261718749942,
      "v": 73
    },
    {
      "midi": 71,
      "hit": false,
      "t": 62158.17599999997,
      "d": 143.32261718749942,
      "v": 73
    },
    {
      "midi": 40,
      "hit": false,
      "t": 62158.1760000001,
      "d": 431.65400000000227,
      "v": 78
    },
    {
      "midi": 68,
      "hit": false,
      "t": 62301.49861718747,
      "d": 143.32261718749942,
      "v": 76
    },
    {
      "midi": 71,
      "hit": false,
      "t": 62301.49861718747,
      "d": 143.32261718749942,
      "v": 76
    },
    {
      "midi": 68,
      "hit": false,
      "t": 62444.82123437497,
      "d": 145.00876562500343,
      "v": 73
    },
    {
      "midi": 71,
      "hit": false,
      "t": 62444.82123437497,
      "d": 145.00876562500343,
      "v": 73
    },
    {
      "midi": 71,
      "hit": false,
      "t": 62589.82999999997,
      "d": 70.81823437500134,
      "v": 90
    },
    {
      "midi": 76,
      "hit": false,
      "t": 62589.82999999997,
      "d": 70.81823437500134,
      "v": 90
    },
    {
      "midi": 40,
      "hit": false,
      "t": 62589.8300000001,
      "d": 431.65400000000227,
      "v": 77
    },
    {
      "midi": 68,
      "hit": false,
      "t": 62876.47523437497,
      "d": 72.50438281249808,
      "v": 71
    },
    {
      "midi": 71,
      "hit": false,
      "t": 62876.47523437497,
      "d": 72.50438281249808,
      "v": 71
    },
    {
      "midi": 68,
      "hit": false,
      "t": 63021.48399999997,
      "d": 215.8269999999975,
      "v": 71
    },
    {
      "midi": 71,
      "hit": false,
      "t": 63021.48399999997,
      "d": 215.8269999999975,
      "v": 71
    },
    {
      "midi": 40,
      "hit": false,
      "t": 63021.484000000106,
      "d": 431.65400000000227,
      "v": 78
    },
    {
      "midi": 68,
      "hit": false,
      "t": 63453.13799999996,
      "d": 143.32261718749942,
      "v": 79
    },
    {
      "midi": 71,
      "hit": false,
      "t": 63453.13799999996,
      "d": 143.32261718749942,
      "v": 79
    },
    {
      "midi": 40,
      "hit": false,
      "t": 63453.13800000011,
      "d": 431.65400000000227,
      "v": 78
    },
    {
      "midi": 71,
      "hit": false,
      "t": 63596.46061718746,
      "d": 143.32261718749942,
      "v": 89
    },
    {
      "midi": 76,
      "hit": false,
      "t": 63596.46061718746,
      "d": 143.32261718749942,
      "v": 89
    },
    {
      "midi": 68,
      "hit": false,
      "t": 63739.78323437496,
      "d": 145.00876562500343,
      "v": 70
    },
    {
      "midi": 71,
      "hit": false,
      "t": 63739.78323437496,
      "d": 145.00876562500343,
      "v": 70
    },
    {
      "midi": 74,
      "hit": false,
      "t": 63884.791999999965,
      "d": 863.3080000000045,
      "v": 87
    },
    {
      "midi": 78,
      "hit": false,
      "t": 63884.791999999965,
      "d": 863.3080000000045,
      "v": 87
    },
    {
      "midi": 38,
      "hit": false,
      "t": 63884.79200000011,
      "d": 431.65400000000227,
      "v": 68
    },
    {
      "midi": 62,
      "hit": false,
      "t": 64316.44599999997,
      "d": 143.32261718749942,
      "v": 67
    },
    {
      "midi": 38,
      "hit": false,
      "t": 64316.44600000011,
      "d": 431.65400000000227,
      "v": 79
    },
    {
      "midi": 66,
      "hit": false,
      "t": 64459.76861718747,
      "d": 143.32261718749942,
      "v": 86
    },
    {
      "midi": 69,
      "hit": false,
      "t": 64603.091234374966,
      "d": 145.00876562500343,
      "v": 85
    },
    {
      "midi": 73,
      "hit": false,
      "t": 64748.09999999997,
      "d": 143.32261718749942,
      "v": 79
    },
    {
      "midi": 76,
      "hit": false,
      "t": 64748.09999999997,
      "d": 863.3079999999973,
      "v": 88
    },
    {
      "midi": 81,
      "hit": false,
      "t": 64748.09999999997,
      "d": 863.3079999999973,
      "v": 88
    },
    {
      "midi": 45,
      "hit": false,
      "t": 64748.100000000115,
      "d": 431.65400000000227,
      "v": 82
    },
    {
      "midi": 69,
      "hit": false,
      "t": 64891.42261718747,
      "d": 143.32261718749942,
      "v": 71
    },
    {
      "midi": 64,
      "hit": false,
      "t": 65034.74523437497,
      "d": 145.00876562500343,
      "v": 65
    },
    {
      "midi": 61,
      "hit": false,
      "t": 65179.75399999997,
      "d": 143.32261718749942,
      "v": 70
    },
    {
      "midi": 45,
      "hit": false,
      "t": 65179.75400000012,
      "d": 431.653999999995,
      "v": 80
    },
    {
      "midi": 64,
      "hit": false,
      "t": 65323.07661718747,
      "d": 143.32261718749942,
      "v": 82
    },
    {
      "midi": 69,
      "hit": false,
      "t": 65466.39923437497,
      "d": 145.00876562499616,
      "v": 85
    },
    {
      "midi": 64,
      "hit": false,
      "t": 65611.40799999997,
      "d": 143.32261718749942,
      "v": 69
    },
    {
      "midi": 71,
      "hit": false,
      "t": 65611.40799999997,
      "d": 143.32261718749942,
      "v": 69
    },
    {
      "midi": 76,
      "hit": false,
      "t": 65611.40799999997,
      "d": 143.32261718749942,
      "v": 69
    },
    {
      "midi": 40,
      "hit": false,
      "t": 65611.40800000011,
      "d": 143.32261718749942,
      "v": 73
    },
    {
      "midi": 64,
      "hit": false,
      "t": 65898.05323437497,
      "d": 145.00876562499616,
      "v": 67
    },
    {
      "midi": 76,
      "hit": false,
      "t": 65898.05323437497,
      "d": 145.00876562499616,
      "v": 67
    },
    {
      "midi": 40,
      "hit": false,
      "t": 65898.05323437511,
      "d": 145.00876562499616,
      "v": 70
    },
    {
      "midi": 66,
      "hit": false,
      "t": 66043.06199999996,
      "d": 431.653999999995,
      "v": 79
    },
    {
      "midi": 71,
      "hit": false,
      "t": 66043.06199999996,
      "d": 431.653999999995,
      "v": 79
    },
    {
      "midi": 78,
      "hit": false,
      "t": 66043.06199999996,
      "d": 431.653999999995,
      "v": 79
    },
    {
      "midi": 39,
      "hit": false,
      "t": 66043.0620000001,
      "d": 431.653999999995,
      "v": 73
    },
    {
      "midi": 68,
      "hit": false,
      "t": 66474.71599999996,
      "d": 431.653999999995,
      "v": 84
    },
    {
      "midi": 71,
      "hit": false,
      "t": 66474.71599999996,
      "d": 431.653999999995,
      "v": 84
    },
    {
      "midi": 80,
      "hit": false,
      "t": 66474.71599999996,
      "d": 431.653999999995,
      "v": 84
    },
    {
      "midi": 38,
      "hit": false,
      "t": 66474.7160000001,
      "d": 431.653999999995,
      "v": 77
    },
    {
      "midi": 69,
      "hit": false,
      "t": 66906.36999999995,
      "d": 431.653999999995,
      "v": 80
    },
    {
      "midi": 71,
      "hit": false,
      "t": 66906.36999999995,
      "d": 431.653999999995,
      "v": 80
    },
    {
      "midi": 81,
      "hit": false,
      "t": 66906.36999999995,
      "d": 431.653999999995,
      "v": 80
    },
    {
      "midi": 37,
      "hit": false,
      "t": 66906.3700000001,
      "d": 431.653999999995,
      "v": 71
    },
    {
      "midi": 36,
      "hit": false,
      "t": 67338.02400000009,
      "d": 431.653999999995,
      "v": 76
    },
    {
      "midi": 67,
      "hit": false,
      "t": 67769.67799999994,
      "d": 286.64523437499884,
      "v": 68
    },
    {
      "midi": 36,
      "hit": false,
      "t": 67769.67800000009,
      "d": 431.653999999995,
      "v": 78
    },
    {
      "midi": 76,
      "hit": false,
      "t": 68056.32323437494,
      "d": 145.00876562499616,
      "v": 87
    },
    {
      "midi": 78,
      "hit": false,
      "t": 68201.33199999994,
      "d": 143.32261718749942,
      "v": 82
    },
    {
      "midi": 36,
      "hit": false,
      "t": 68201.33200000008,
      "d": 431.653999999995,
      "v": 74
    },
    {
      "midi": 74,
      "hit": false,
      "t": 68344.65461718744,
      "d": 143.32261718749942,
      "v": 71
    },
    {
      "midi": 78,
      "hit": false,
      "t": 68487.97723437494,
      "d": 145.00876562499616,
      "v": 82
    },
    {
      "midi": 71,
      "hit": false,
      "t": 68632.98599999993,
      "d": 143.32261718749942,
      "v": 89
    },
    {
      "midi": 76,
      "hit": false,
      "t": 68632.98599999993,
      "d": 143.32261718749942,
      "v": 89
    },
    {
      "midi": 83,
      "hit": false,
      "t": 68632.98599999993,
      "d": 143.32261718749942,
      "v": 89
    },
    {
      "midi": 36,
      "hit": false,
      "t": 68632.98600000008,
      "d": 431.653999999995,
      "v": 79
    },
    {
      "midi": 80,
      "hit": false,
      "t": 68776.30861718743,
      "d": 143.32261718749942,
      "v": 73
    },
    {
      "midi": 71,
      "hit": false,
      "t": 68919.63123437493,
      "d": 145.00876562499616,
      "v": 82
    },
    {
      "midi": 76,
      "hit": false,
      "t": 68919.63123437493,
      "d": 145.00876562499616,
      "v": 82
    },
    {
      "midi": 83,
      "hit": false,
      "t": 68919.63123437493,
      "d": 145.00876562499616,
      "v": 82
    },
    {
      "midi": 68,
      "hit": false,
      "t": 69064.63999999993,
      "d": 143.32261718749942,
      "v": 70
    },
    {
      "midi": 80,
      "hit": false,
      "t": 69064.63999999993,
      "d": 143.32261718749942,
      "v": 70
    },
    {
      "midi": 40,
      "hit": false,
      "t": 69064.64000000007,
      "d": 431.653999999995,
      "v": 81
    },
    {
      "midi": 69,
      "hit": false,
      "t": 69351.28523437493,
      "d": 145.00876562499616,
      "v": 66
    },
    {
      "midi": 81,
      "hit": false,
      "t": 69351.28523437493,
      "d": 145.00876562499616,
      "v": 66
    },
    {
      "midi": 71,
      "hit": false,
      "t": 69496.29399999992,
      "d": 143.32261718749942,
      "v": 79
    },
    {
      "midi": 83,
      "hit": false,
      "t": 69496.29399999992,
      "d": 143.32261718749942,
      "v": 79
    },
    {
      "midi": 40,
      "hit": false,
      "t": 69496.29400000007,
      "d": 431.653999999995,
      "v": 73
    },
    {
      "midi": 69,
      "hit": false,
      "t": 69782.93923437492,
      "d": 145.00876562499616,
      "v": 65
    },
    {
      "midi": 81,
      "hit": false,
      "t": 69782.93923437492,
      "d": 145.00876562499616,
      "v": 65
    },
    {
      "midi": 68,
      "hit": false,
      "t": 69927.94799999992,
      "d": 863.3080000000045,
      "v": 69
    },
    {
      "midi": 80,
      "hit": false,
      "t": 69927.94799999992,
      "d": 863.3080000000045,
      "v": 69
    },
    {
      "midi": 40,
      "hit": false,
      "t": 69927.94800000006,
      "d": 431.653999999995,
      "v": 73
    },
    {
      "midi": 40,
      "hit": false,
      "t": 70359.60200000006,
      "d": 431.653999999995,
      "v": 74
    },
    {
      "midi": 64,
      "hit": false,
      "t": 70791.25599999992,
      "d": 143.32261718749942,
      "v": 70
    },
    {
      "midi": 71,
      "hit": false,
      "t": 70791.25599999992,
      "d": 143.32261718749942,
      "v": 70
    },
    {
      "midi": 76,
      "hit": false,
      "t": 70791.25599999992,
      "d": 143.32261718749942,
      "v": 70
    },
    {
      "midi": 40,
      "hit": false,
      "t": 70791.25600000005,
      "d": 143.32261718749942,
      "v": 77
    },
    {
      "midi": 64,
      "hit": false,
      "t": 71077.90123437492,
      "d": 145.00876562499616,
      "v": 68
    },
    {
      "midi": 76,
      "hit": false,
      "t": 71077.90123437492,
      "d": 145.00876562499616,
      "v": 68
    },
    {
      "midi": 40,
      "hit": false,
      "t": 71077.90123437505,
      "d": 145.00876562499616,
      "v": 65
    },
    {
      "midi": 66,
      "hit": false,
      "t": 71222.90999999992,
      "d": 431.653999999995,
      "v": 82
    },
    {
      "midi": 71,
      "hit": false,
      "t": 71222.90999999992,
      "d": 431.653999999995,
      "v": 82
    },
    {
      "midi": 78,
      "hit": false,
      "t": 71222.90999999992,
      "d": 431.653999999995,
      "v": 82
    },
    {
      "midi": 39,
      "hit": false,
      "t": 71222.91000000005,
      "d": 431.653999999995,
      "v": 73
    },
    {
      "midi": 68,
      "hit": false,
      "t": 71654.56399999991,
      "d": 431.653999999995,
      "v": 79
    },
    {
      "midi": 71,
      "hit": false,
      "t": 71654.56399999991,
      "d": 431.653999999995,
      "v": 79
    },
    {
      "midi": 80,
      "hit": false,
      "t": 71654.56399999991,
      "d": 431.653999999995,
      "v": 79
    },
    {
      "midi": 38,
      "hit": false,
      "t": 71654.56400000004,
      "d": 431.653999999995,
      "v": 71
    },
    {
      "midi": 69,
      "hit": false,
      "t": 72086.2179999999,
      "d": 431.653999999995,
      "v": 81
    },
    {
      "midi": 71,
      "hit": false,
      "t": 72086.2179999999,
      "d": 431.653999999995,
      "v": 81
    },
    {
      "midi": 81,
      "hit": false,
      "t": 72086.2179999999,
      "d": 431.653999999995,
      "v": 81
    },
    {
      "midi": 37,
      "hit": false,
      "t": 72086.21800000004,
      "d": 431.653999999995,
      "v": 75
    },
    {
      "midi": 36,
      "hit": false,
      "t": 72517.87200000003,
      "d": 431.653999999995,
      "v": 76
    },
    {
      "midi": 67,
      "hit": false,
      "t": 72949.5259999999,
      "d": 286.64523437499884,
      "v": 68
    },
    {
      "midi": 36,
      "hit": false,
      "t": 72949.52600000003,
      "d": 431.653999999995,
      "v": 77
    },
    {
      "midi": 76,
      "hit": false,
      "t": 73236.1712343749,
      "d": 145.00876562499616,
      "v": 92
    },
    {
      "midi": 78,
      "hit": false,
      "t": 73381.17999999989,
      "d": 143.32261718749942,
      "v": 79
    },
    {
      "midi": 36,
      "hit": false,
      "t": 73381.18000000002,
      "d": 431.653999999995,
      "v": 72
    },
    {
      "midi": 74,
      "hit": false,
      "t": 73524.50261718739,
      "d": 143.32261718749942,
      "v": 65
    },
    {
      "midi": 78,
      "hit": false,
      "t": 73667.82523437489,
      "d": 145.00876562499616,
      "v": 82
    },
    {
      "midi": 71,
      "hit": false,
      "t": 73812.83399999989,
      "d": 143.32261718749942,
      "v": 89
    },
    {
      "midi": 76,
      "hit": false,
      "t": 73812.83399999989,
      "d": 143.32261718749942,
      "v": 89
    },
    {
      "midi": 83,
      "hit": false,
      "t": 73812.83399999989,
      "d": 143.32261718749942,
      "v": 89
    },
    {
      "midi": 36,
      "hit": false,
      "t": 73812.83400000002,
      "d": 431.653999999995,
      "v": 76
    },
    {
      "midi": 80,
      "hit": false,
      "t": 73956.15661718739,
      "d": 143.32261718749942,
      "v": 76
    },
    {
      "midi": 71,
      "hit": false,
      "t": 74099.47923437488,
      "d": 145.00876562499616,
      "v": 82
    },
    {
      "midi": 76,
      "hit": false,
      "t": 74099.47923437488,
      "d": 145.00876562499616,
      "v": 82
    },
    {
      "midi": 83,
      "hit": false,
      "t": 74099.47923437488,
      "d": 145.00876562499616,
      "v": 82
    },
    {
      "midi": 68,
      "hit": false,
      "t": 74244.48799999988,
      "d": 143.32261718749942,
      "v": 68
    },
    {
      "midi": 80,
      "hit": false,
      "t": 74244.48799999988,
      "d": 143.32261718749942,
      "v": 68
    },
    {
      "midi": 40,
      "hit": false,
      "t": 74244.48800000001,
      "d": 431.653999999995,
      "v": 79
    },
    {
      "midi": 69,
      "hit": false,
      "t": 74531.13323437488,
      "d": 145.00876562499616,
      "v": 70
    },
    {
      "midi": 81,
      "hit": false,
      "t": 74531.13323437488,
      "d": 145.00876562499616,
      "v": 70
    },
    {
      "midi": 71,
      "hit": false,
      "t": 74676.14199999988,
      "d": 143.32261718749942,
      "v": 80
    },
    {
      "midi": 83,
      "hit": false,
      "t": 74676.14199999988,
      "d": 143.32261718749942,
      "v": 80
    },
    {
      "midi": 40,
      "hit": false,
      "t": 74676.142,
      "d": 431.653999999995,
      "v": 74
    },
    {
      "midi": 69,
      "hit": false,
      "t": 74962.78723437487,
      "d": 145.00876562499616,
      "v": 70
    },
    {
      "midi": 81,
      "hit": false,
      "t": 74962.78723437487,
      "d": 145.00876562499616,
      "v": 70
    },
    {
      "midi": 68,
      "hit": false,
      "t": 75107.79599999987,
      "d": 431.653999999995,
      "v": 71
    },
    {
      "midi": 80,
      "hit": false,
      "t": 75107.79599999987,
      "d": 431.653999999995,
      "v": 71
    },
    {
      "midi": 40,
      "hit": false,
      "t": 75107.796,
      "d": 431.653999999995,
      "v": 77
    },
    {
      "midi": 76,
      "hit": false,
      "t": 75539.44999999987,
      "d": 143.32261718749942,
      "v": 62
    },
    {
      "midi": 40,
      "hit": false,
      "t": 75539.45,
      "d": 431.653999999995,
      "v": 76
    },
    {
      "midi": 80,
      "hit": false,
      "t": 75682.77261718737,
      "d": 143.32261718749942,
      "v": 83
    },
    {
      "midi": 81,
      "hit": false,
      "t": 75826.09523437486,
      "d": 145.00876562499616,
      "v": 78
    },
    {
      "midi": 78,
      "hit": false,
      "t": 75971.10399999986,
      "d": 863.3080000000045,
      "v": 78
    },
    {
      "midi": 83,
      "hit": false,
      "t": 75971.10399999986,
      "d": 863.3080000000045,
      "v": 78
    },
    {
      "midi": 38,
      "hit": false,
      "t": 75971.10399999999,
      "d": 431.653999999995,
      "v": 75
    },
    {
      "midi": 38,
      "hit": false,
      "t": 76402.75799999999,
      "d": 286.64523437499884,
      "v": 76
    },
    {
      "midi": 38,
      "hit": false,
      "t": 76689.40323437499,
      "d": 145.00876562499616,
      "v": 75
    },
    {
      "midi": 80,
      "hit": false,
      "t": 76834.41199999987,
      "d": 431.653999999995,
      "v": 71
    },
    {
      "midi": 38,
      "hit": false,
      "t": 76834.41199999998,
      "d": 431.653999999995,
      "v": 73
    },
    {
      "midi": 78,
      "hit": false,
      "t": 77266.06599999986,
      "d": 143.32261718749942,
      "v": 80
    },
    {
      "midi": 81,
      "hit": false,
      "t": 77266.06599999986,
      "d": 143.32261718749942,
      "v": 80
    },
    {
      "midi": 38,
      "hit": false,
      "t": 77266.06599999998,
      "d": 431.653999999995,
      "v": 78
    },
    {
      "midi": 76,
      "hit": false,
      "t": 77552.71123437486,
      "d": 145.00876562499616,
      "v": 68
    },
    {
      "midi": 80,
      "hit": false,
      "t": 77552.71123437486,
      "d": 145.00876562499616,
      "v": 68
    },
    {
      "midi": 73,
      "hit": false,
      "t": 77697.71999999986,
      "d": 863.3080000000045,
      "v": 76
    },
    {
      "midi": 76,
      "hit": false,
      "t": 77697.71999999986,
      "d": 863.3080000000045,
      "v": 76
    },
    {
      "midi": 81,
      "hit": false,
      "t": 77697.71999999986,
      "d": 863.3080000000045,
      "v": 76
    },
    {
      "midi": 37,
      "hit": false,
      "t": 77697.71999999997,
      "d": 431.653999999995,
      "v": 77
    },
    {
      "midi": 37,
      "hit": false,
      "t": 78129.37399999997,
      "d": 286.64523437499884,
      "v": 74
    },
    {
      "midi": 37,
      "hit": false,
      "t": 78416.01923437497,
      "d": 145.00876562499616,
      "v": 74
    },
    {
      "midi": 69,
      "hit": false,
      "t": 78561.02799999986,
      "d": 431.653999999995,
      "v": 69
    },
    {
      "midi": 76,
      "hit": false,
      "t": 78561.02799999986,
      "d": 431.653999999995,
      "v": 69
    },
    {
      "midi": 37,
      "hit": false,
      "t": 78561.02799999996,
      "d": 431.653999999995,
      "v": 77
    },
    {
      "midi": 69,
      "hit": false,
      "t": 78992.68199999986,
      "d": 431.653999999995,
      "v": 83
    },
    {
      "midi": 78,
      "hit": false,
      "t": 78992.68199999986,
      "d": 431.653999999995,
      "v": 83
    },
    {
      "midi": 37,
      "hit": false,
      "t": 78992.68199999996,
      "d": 431.653999999995,
      "v": 73
    },
    {
      "midi": 76,
      "hit": false,
      "t": 79424.33599999985,
      "d": 431.653999999995,
      "v": 82
    },
    {
      "midi": 80,
      "hit": false,
      "t": 79424.33599999985,
      "d": 431.653999999995,
      "v": 82
    },
    {
      "midi": 35,
      "hit": false,
      "t": 79424.33599999995,
      "d": 431.653999999995,
      "v": 72
    },
    {
      "midi": 78,
      "hit": false,
      "t": 79855.98999999985,
      "d": 143.32261718749942,
      "v": 77
    },
    {
      "midi": 81,
      "hit": false,
      "t": 79855.98999999985,
      "d": 143.32261718749942,
      "v": 77
    },
    {
      "midi": 35,
      "hit": false,
      "t": 79855.98999999995,
      "d": 286.64523437499884,
      "v": 76
    },
    {
      "midi": 76,
      "hit": false,
      "t": 80142.63523437484,
      "d": 145.00876562499616,
      "v": 68
    },
    {
      "midi": 80,
      "hit": false,
      "t": 80142.63523437484,
      "d": 145.00876562499616,
      "v": 68
    },
    {
      "midi": 35,
      "hit": false,
      "t": 80142.63523437495,
      "d": 145.00876562499616,
      "v": 73
    },
    {
      "midi": 73,
      "hit": false,
      "t": 80287.64399999984,
      "d": 431.653999999995,
      "v": 69
    },
    {
      "midi": 78,
      "hit": false,
      "t": 80287.64399999984,
      "d": 431.653999999995,
      "v": 69
    },
    {
      "midi": 34,
      "hit": false,
      "t": 80287.64399999994,
      "d": 431.653999999995,
      "v": 77
    },
    {
      "midi": 73,
      "hit": false,
      "t": 80719.29799999984,
      "d": 431.653999999995,
      "v": 71
    },
    {
      "midi": 76,
      "hit": false,
      "t": 80719.29799999984,
      "d": 431.653999999995,
      "v": 71
    },
    {
      "midi": 34,
      "hit": false,
      "t": 80719.29799999994,
      "d": 286.64523437499884,
      "v": 77
    },
    {
      "midi": 34,
      "hit": false,
      "t": 81005.94323437494,
      "d": 145.00876562499616,
      "v": 73
    },
    {
      "midi": 69,
      "hit": false,
      "t": 81150.95199999983,
      "d": 431.653999999995,
      "v": 74
    },
    {
      "midi": 73,
      "hit": false,
      "t": 81150.95199999983,
      "d": 431.653999999995,
      "v": 74
    },
    {
      "midi": 76,
      "hit": false,
      "t": 81150.95199999983,
      "d": 431.653999999995,
      "v": 74
    },
    {
      "midi": 33,
      "hit": false,
      "t": 81150.95199999993,
      "d": 431.653999999995,
      "v": 73
    },
    {
      "midi": 71,
      "hit": false,
      "t": 81582.60599999983,
      "d": 431.653999999995,
      "v": 74
    },
    {
      "midi": 75,
      "hit": false,
      "t": 81582.60599999983,
      "d": 431.653999999995,
      "v": 74
    },
    {
      "midi": 33,
      "hit": false,
      "t": 81582.60599999993,
      "d": 286.64523437499884,
      "v": 74
    },
    {
      "midi": 33,
      "hit": false,
      "t": 81869.25123437493,
      "d": 145.00876562499616,
      "v": 76
    },
    {
      "midi": 66,
      "hit": false,
      "t": 82014.25999999982,
      "d": 431.653999999995,
      "v": 63
    },
    {
      "midi": 69,
      "hit": false,
      "t": 82014.25999999982,
      "d": 431.653999999995,
      "v": 63
    },
    {
      "midi": 73,
      "hit": false,
      "t": 82014.25999999982,
      "d": 431.653999999995,
      "v": 63
    },
    {
      "midi": 35,
      "hit": false,
      "t": 82014.25999999992,
      "d": 431.653999999995,
      "v": 82
    },
    {
      "midi": 71,
      "hit": false,
      "t": 82445.91399999982,
      "d": 431.653999999995,
      "v": 82
    },
    {
      "midi": 75,
      "hit": false,
      "t": 82445.91399999982,
      "d": 431.653999999995,
      "v": 82
    },
    {
      "midi": 35,
      "hit": false,
      "t": 82445.91399999992,
      "d": 143.32261718749942,
      "v": 77
    },
    {
      "midi": 35,
      "hit": false,
      "t": 82589.23661718742,
      "d": 143.32261718749942,
      "v": 79
    },
    {
      "midi": 35,
      "hit": false,
      "t": 82732.55923437492,
      "d": 145.00876562499616,
      "v": 75
    },
    {
      "midi": 64,
      "hit": false,
      "t": 82877.56799999981,
      "d": 143.32261718749942,
      "v": 78
    },
    {
      "midi": 76,
      "hit": false,
      "t": 82877.56799999981,
      "d": 143.32261718749942,
      "v": 78
    },
    {
      "midi": 40,
      "hit": false,
      "t": 82877.56799999991,
      "d": 431.653999999995,
      "v": 77
    },
    {
      "midi": 59,
      "hit": false,
      "t": 83020.89061718731,
      "d": 143.32261718749942,
      "v": 68
    },
    {
      "midi": 71,
      "hit": false,
      "t": 83020.89061718731,
      "d": 143.32261718749942,
      "v": 68
    },
    {
      "midi": 64,
      "hit": false,
      "t": 83164.21323437481,
      "d": 145.00876562499616,
      "v": 85
    },
    {
      "midi": 76,
      "hit": false,
      "t": 83164.21323437481,
      "d": 145.00876562499616,
      "v": 85
    },
    {
      "midi": 68,
      "hit": false,
      "t": 83309.2219999998,
      "d": 143.32261718749942,
      "v": 86
    },
    {
      "midi": 80,
      "hit": false,
      "t": 83309.2219999998,
      "d": 143.32261718749942,
      "v": 86
    },
    {
      "midi": 40,
      "hit": false,
      "t": 83309.2219999999,
      "d": 286.64523437499884,
      "v": 75
    },
    {
      "midi": 64,
      "hit": false,
      "t": 83452.5446171873,
      "d": 143.32261718749942,
      "v": 67
    },
    {
      "midi": 76,
      "hit": false,
      "t": 83452.5446171873,
      "d": 143.32261718749942,
      "v": 67
    },
    {
      "midi": 68,
      "hit": false,
      "t": 83595.8672343748,
      "d": 145.00876562499616,
      "v": 84
    },
    {
      "midi": 80,
      "hit": false,
      "t": 83595.8672343748,
      "d": 145.00876562499616,
      "v": 84
    },
    {
      "midi": 40,
      "hit": false,
      "t": 83595.8672343749,
      "d": 145.00876562499616,
      "v": 79
    },
    {
      "midi": 71,
      "hit": false,
      "t": 83740.8759999998,
      "d": 431.653999999995,
      "v": 87
    },
    {
      "midi": 83,
      "hit": false,
      "t": 83740.8759999998,
      "d": 431.653999999995,
      "v": 87
    },
    {
      "midi": 38,
      "hit": false,
      "t": 83740.8759999999,
      "d": 431.653999999995,
      "v": 74
    },
    {
      "midi": 68,
      "hit": false,
      "t": 84172.5299999998,
      "d": 143.32261718749942,
      "v": 71
    },
    {
      "midi": 80,
      "hit": false,
      "t": 84172.5299999998,
      "d": 143.32261718749942,
      "v": 71
    },
    {
      "midi": 38,
      "hit": false,
      "t": 84172.5299999999,
      "d": 286.64523437499884,
      "v": 78
    },
    {
      "midi": 64,
      "hit": false,
      "t": 84459.1752343748,
      "d": 145.00876562499616,
      "v": 68
    },
    {
      "midi": 76,
      "hit": false,
      "t": 84459.1752343748,
      "d": 145.00876562499616,
      "v": 68
    },
    {
      "midi": 38,
      "hit": false,
      "t": 84459.1752343749,
      "d": 145.00876562499616,
      "v": 74
    },
    {
      "midi": 69,
      "hit": false,
      "t": 84604.18399999979,
      "d": 431.653999999995,
      "v": 83
    },
    {
      "midi": 76,
      "hit": false,
      "t": 84604.18399999979,
      "d": 431.653999999995,
      "v": 83
    },
    {
      "midi": 81,
      "hit": false,
      "t": 84604.18399999979,
      "d": 431.653999999995,
      "v": 83
    },
    {
      "midi": 37,
      "hit": false,
      "t": 84604.18399999989,
      "d": 431.653999999995,
      "v": 77
    },
    {
      "midi": 68,
      "hit": false,
      "t": 85035.83799999979,
      "d": 143.32261718749942,
      "v": 72
    },
    {
      "midi": 71,
      "hit": false,
      "t": 85035.83799999979,
      "d": 143.32261718749942,
      "v": 72
    },
    {
      "midi": 80,
      "hit": false,
      "t": 85035.83799999979,
      "d": 143.32261718749942,
      "v": 72
    },
    {
      "midi": 37,
      "hit": false,
      "t": 85035.83799999989,
      "d": 286.64523437499884,
      "v": 76
    },
    {
      "midi": 66,
      "hit": false,
      "t": 85322.48323437478,
      "d": 145.00876562499616,
      "v": 66
    },
    {
      "midi": 69,
      "hit": false,
      "t": 85322.48323437478,
      "d": 145.00876562499616,
      "v": 66
    },
    {
      "midi": 78,
      "hit": false,
      "t": 85322.48323437478,
      "d": 145.00876562499616,
      "v": 66
    },
    {
      "midi": 37,
      "hit": false,
      "t": 85322.48323437489,
      "d": 145.00876562499616,
      "v": 72
    },
    {
      "midi": 64,
      "hit": false,
      "t": 85467.49199999978,
      "d": 431.653999999995,
      "v": 72
    },
    {
      "midi": 68,
      "hit": false,
      "t": 85467.49199999978,
      "d": 431.653999999995,
      "v": 72
    },
    {
      "midi": 76,
      "hit": false,
      "t": 85467.49199999978,
      "d": 431.653999999995,
      "v": 72
    },
    {
      "midi": 47,
      "hit": false,
      "t": 85467.49199999988,
      "d": 431.653999999995,
      "v": 86
    },
    {
      "midi": 66,
      "hit": false,
      "t": 85899.14599999978,
      "d": 431.653999999995,
      "v": 85
    },
    {
      "midi": 69,
      "hit": false,
      "t": 85899.14599999978,
      "d": 431.653999999995,
      "v": 85
    },
    {
      "midi": 78,
      "hit": false,
      "t": 85899.14599999978,
      "d": 431.653999999995,
      "v": 85
    },
    {
      "midi": 47,
      "hit": false,
      "t": 85899.14599999988,
      "d": 286.64523437499884,
      "v": 74
    },
    {
      "midi": 47,
      "hit": false,
      "t": 86185.79123437488,
      "d": 145.00876562499616,
      "v": 79
    },
    {
      "midi": 61,
      "hit": false,
      "t": 86330.79999999977,
      "d": 143.32261718749942,
      "v": 53
    },
    {
      "midi": 76,
      "hit": false,
      "t": 86330.79999999977,
      "d": 1726.6159999999945,
      "v": 71
    },
    {
      "midi": 33,
      "hit": false,
      "t": 86330.79999999987,
      "d": 574.9766171874944,
      "v": 66
    },
    {
      "midi": 64,
      "hit": false,
      "t": 86474.12261718727,
      "d": 143.32261718749942,
      "v": 75
    },
    {
      "midi": 69,
      "hit": false,
      "t": 86617.44523437477,
      "d": 145.00876562499616,
      "v": 88
    },
    {
      "midi": 71,
      "hit": false,
      "t": 86762.45399999977,
      "d": 143.32261718749942,
      "v": 81
    },
    {
      "midi": 69,
      "hit": false,
      "t": 86905.77661718726,
      "d": 143.32261718749942,
      "v": 77
    },
    {
      "midi": 71,
      "hit": false,
      "t": 87049.09923437476,
      "d": 145.00876562499616,
      "v": 84
    },
    {
      "midi": 45,
      "hit": false,
      "t": 87049.09923437487,
      "d": 145.00876562499616,
      "v": 67
    },
    {
      "midi": 73,
      "hit": false,
      "t": 87194.10799999976,
      "d": 863.3080000000045,
      "v": 81
    },
    {
      "midi": 52,
      "hit": false,
      "t": 87194.10799999986,
      "d": 431.653999999995,
      "v": 84
    },
    {
      "midi": 45,
      "hit": false,
      "t": 87625.76199999986,
      "d": 431.653999999995,
      "v": 73
    },
    {
      "midi": 59,
      "hit": false,
      "t": 88057.41599999976,
      "d": 143.32261718749942,
      "v": 63
    },
    {
      "midi": 32,
      "hit": false,
      "t": 88057.41599999985,
      "d": 574.9766171874944,
      "v": 67
    },
    {
      "midi": 64,
      "hit": false,
      "t": 88200.73861718726,
      "d": 143.32261718749942,
      "v": 84
    },
    {
      "midi": 66,
      "hit": false,
      "t": 88344.06123437476,
      "d": 145.00876562499616,
      "v": 85
    },
    {
      "midi": 71,
      "hit": false,
      "t": 88489.06999999976,
      "d": 143.32261718749942,
      "v": 87
    },
    {
      "midi": 76,
      "hit": false,
      "t": 88632.39261718726,
      "d": 143.32261718749942,
      "v": 86
    },
    {
      "midi": 81,
      "hit": false,
      "t": 88775.71523437476,
      "d": 145.00876562499616,
      "v": 87
    },
    {
      "midi": 44,
      "hit": false,
      "t": 88775.71523437485,
      "d": 145.00876562499616,
      "v": 67
    },
    {
      "midi": 80,
      "hit": false,
      "t": 88920.72399999975,
      "d": 863.3080000000045,
      "v": 77
    },
    {
      "midi": 52,
      "hit": false,
      "t": 88920.72399999984,
      "d": 431.653999999995,
      "v": 86
    },
    {
      "midi": 44,
      "hit": false,
      "t": 89352.37799999984,
      "d": 431.653999999995,
      "v": 71
    },
    {
      "midi": 69,
      "hit": false,
      "t": 89784.03199999976,
      "d": 431.653999999995,
      "v": 58
    },
    {
      "midi": 76,
      "hit": false,
      "t": 89784.03199999976,
      "d": 1726.61599999998,
      "v": 78
    },
    {
      "midi": 30,
      "hit": false,
      "t": 89784.03199999983,
      "d": 431.653999999995,
      "v": 62
    },
    {
      "midi": 68,
      "hit": false,
      "t": 90215.68599999975,
      "d": 143.32261718749942,
      "v": 71
    },
    {
      "midi": 32,
      "hit": false,
      "t": 90215.68599999983,
      "d": 143.32261718749942,
      "v": 77
    },
    {
      "midi": 69,
      "hit": false,
      "t": 90359.00861718725,
      "d": 143.32261718749942,
      "v": 78
    },
    {
      "midi": 30,
      "hit": false,
      "t": 90359.00861718733,
      "d": 143.32261718749942,
      "v": 74
    },
    {
      "midi": 71,
      "hit": false,
      "t": 90502.33123437475,
      "d": 145.00876562499616,
      "v": 80
    },
    {
      "midi": 32,
      "hit": false,
      "t": 90502.33123437483,
      "d": 145.00876562499616,
      "v": 73
    },
    {
      "midi": 69,
      "hit": false,
      "t": 90647.33999999975,
      "d": 431.653999999995,
      "v": 75
    },
    {
      "midi": 73,
      "hit": false,
      "t": 90647.33999999975,
      "d": 431.653999999995,
      "v": 75
    },
    {
      "midi": 33,
      "hit": false,
      "t": 90647.33999999982,
      "d": 431.653999999995,
      "v": 76
    },
    {
      "midi": 75,
      "hit": false,
      "t": 91078.99399999974,
      "d": 431.653999999995,
      "v": 81
    },
    {
      "midi": 34,
      "hit": false,
      "t": 91078.99399999982,
      "d": 431.653999999995,
      "v": 80
    },
    {
      "midi": 69,
      "hit": false,
      "t": 91510.64799999974,
      "d": 431.653999999995,
      "v": 80
    },
    {
      "midi": 76,
      "hit": false,
      "t": 91510.64799999974,
      "d": 431.653999999995,
      "v": 80
    },
    {
      "midi": 35,
      "hit": false,
      "t": 91510.64799999981,
      "d": 431.653999999995,
      "v": 81
    },
    {
      "midi": 78,
      "hit": false,
      "t": 91942.30199999973,
      "d": 143.32261718749942,
      "v": 83
    },
    {
      "midi": 35,
      "hit": false,
      "t": 91942.3019999998,
      "d": 431.653999999995,
      "v": 78
    },
    {
      "midi": 76,
      "hit": false,
      "t": 92085.62461718723,
      "d": 143.32261718749942,
      "v": 71
    },
    {
      "midi": 78,
      "hit": false,
      "t": 92228.94723437473,
      "d": 145.00876562499616,
      "v": 77
    },
    {
      "midi": 80,
      "hit": false,
      "t": 92373.95599999973,
      "d": 143.32261718749942,
      "v": 83
    },
    {
      "midi": 69,
      "hit": false,
      "t": 92373.95599999973,
      "d": 431.653999999995,
      "v": 83
    },
    {
      "midi": 35,
      "hit": false,
      "t": 92373.9559999998,
      "d": 143.32261718749942,
      "v": 72
    },
    {
      "midi": 78,
      "hit": false,
      "t": 92517.27861718723,
      "d": 143.32261718749942,
      "v": 79
    },
    {
      "midi": 37,
      "hit": false,
      "t": 92517.2786171873,
      "d": 143.32261718749942,
      "v": 84
    },
    {
      "midi": 80,
      "hit": false,
      "t": 92660.60123437473,
      "d": 145.00876562499616,
      "v": 86
    },
    {
      "midi": 35,
      "hit": false,
      "t": 92660.6012343748,
      "d": 145.00876562499616,
      "v": 75
    },
    {
      "midi": 81,
      "hit": false,
      "t": 92805.60999999972,
      "d": 431.653999999995,
      "v": 76
    },
    {
      "midi": 39,
      "hit": false,
      "t": 92805.6099999998,
      "d": 431.653999999995,
      "v": 80
    },
    {
      "midi": 60,
      "hit": false,
      "t": 93237.26399999972,
      "d": 143.32261718749942,
      "v": 52
    },
    {
      "midi": 64,
      "hit": false,
      "t": 93237.26399999972,
      "d": 143.32261718749942,
      "v": 52
    },
    {
      "midi": 67,
      "hit": false,
      "t": 93237.26399999972,
      "d": 143.32261718749942,
      "v": 52
    },
    {
      "midi": 48,
      "hit": false,
      "t": 93237.26399999979,
      "d": 1726.6159999999945,
      "v": 83
    },
    {
      "midi": 60,
      "hit": false,
      "t": 93380.58661718722,
      "d": 143.32261718749942,
      "v": 77
    },
    {
      "midi": 64,
      "hit": false,
      "t": 93380.58661718722,
      "d": 143.32261718749942,
      "v": 77
    },
    {
      "midi": 67,
      "hit": false,
      "t": 93380.58661718722,
      "d": 143.32261718749942,
      "v": 77
    },
    {
      "midi": 60,
      "hit": false,
      "t": 93523.90923437472,
      "d": 145.00876562499616,
      "v": 74
    },
    {
      "midi": 64,
      "hit": false,
      "t": 93523.90923437472,
      "d": 145.00876562499616,
      "v": 74
    },
    {
      "midi": 67,
      "hit": false,
      "t": 93523.90923437472,
      "d": 145.00876562499616,
      "v": 74
    },
    {
      "midi": 60,
      "hit": false,
      "t": 93668.91799999971,
      "d": 431.653999999995,
      "v": 74
    },
    {
      "midi": 64,
      "hit": false,
      "t": 93668.91799999971,
      "d": 431.653999999995,
      "v": 74
    },
    {
      "midi": 67,
      "hit": false,
      "t": 93668.91799999971,
      "d": 431.653999999995,
      "v": 74
    },
    {
      "midi": 60,
      "hit": false,
      "t": 94100.57199999971,
      "d": 143.32261718749942,
      "v": 81
    },
    {
      "midi": 64,
      "hit": false,
      "t": 94100.57199999971,
      "d": 143.32261718749942,
      "v": 81
    },
    {
      "midi": 67,
      "hit": false,
      "t": 94100.57199999971,
      "d": 143.32261718749942,
      "v": 81
    },
    {
      "midi": 60,
      "hit": false,
      "t": 94243.89461718721,
      "d": 143.32261718749942,
      "v": 79
    },
    {
      "midi": 64,
      "hit": false,
      "t": 94243.89461718721,
      "d": 143.32261718749942,
      "v": 79
    },
    {
      "midi": 67,
      "hit": false,
      "t": 94243.89461718721,
      "d": 143.32261718749942,
      "v": 79
    },
    {
      "midi": 60,
      "hit": false,
      "t": 94387.21723437471,
      "d": 145.00876562499616,
      "v": 77
    },
    {
      "midi": 64,
      "hit": false,
      "t": 94387.21723437471,
      "d": 145.00876562499616,
      "v": 77
    },
    {
      "midi": 67,
      "hit": false,
      "t": 94387.21723437471,
      "d": 145.00876562499616,
      "v": 77
    },
    {
      "midi": 60,
      "hit": false,
      "t": 94532.2259999997,
      "d": 431.653999999995,
      "v": 71
    },
    {
      "midi": 64,
      "hit": false,
      "t": 94532.2259999997,
      "d": 431.653999999995,
      "v": 71
    },
    {
      "midi": 67,
      "hit": false,
      "t": 94532.2259999997,
      "d": 431.653999999995,
      "v": 71
    },
    {
      "midi": 62,
      "hit": false,
      "t": 94963.8799999997,
      "d": 143.32261718749942,
      "v": 84
    },
    {
      "midi": 66,
      "hit": false,
      "t": 94963.8799999997,
      "d": 143.32261718749942,
      "v": 84
    },
    {
      "midi": 69,
      "hit": false,
      "t": 94963.8799999997,
      "d": 143.32261718749942,
      "v": 84
    },
    {
      "midi": 50,
      "hit": false,
      "t": 94963.87999999979,
      "d": 1726.6159999999945,
      "v": 79
    },
    {
      "midi": 62,
      "hit": false,
      "t": 95107.2026171872,
      "d": 143.32261718749942,
      "v": 77
    },
    {
      "midi": 66,
      "hit": false,
      "t": 95107.2026171872,
      "d": 143.32261718749942,
      "v": 77
    },
    {
      "midi": 69,
      "hit": false,
      "t": 95107.2026171872,
      "d": 143.32261718749942,
      "v": 77
    },
    {
      "midi": 62,
      "hit": false,
      "t": 95250.5252343747,
      "d": 145.00876562499616,
      "v": 77
    },
    {
      "midi": 66,
      "hit": false,
      "t": 95250.5252343747,
      "d": 145.00876562499616,
      "v": 77
    },
    {
      "midi": 69,
      "hit": false,
      "t": 95250.5252343747,
      "d": 145.00876562499616,
      "v": 77
    },
    {
      "midi": 62,
      "hit": false,
      "t": 95395.5339999997,
      "d": 431.653999999995,
      "v": 76
    },
    {
      "midi": 66,
      "hit": false,
      "t": 95395.5339999997,
      "d": 431.653999999995,
      "v": 76
    },
    {
      "midi": 69,
      "hit": false,
      "t": 95395.5339999997,
      "d": 431.653999999995,
      "v": 76
    },
    {
      "midi": 62,
      "hit": false,
      "t": 95827.18799999969,
      "d": 143.32261718749942,
      "v": 74
    },
    {
      "midi": 66,
      "hit": false,
      "t": 95827.18799999969,
      "d": 143.32261718749942,
      "v": 74
    },
    {
      "midi": 69,
      "hit": false,
      "t": 95827.18799999969,
      "d": 143.32261718749942,
      "v": 74
    },
    {
      "midi": 62,
      "hit": false,
      "t": 95970.51061718719,
      "d": 143.32261718749942,
      "v": 78
    },
    {
      "midi": 66,
      "hit": false,
      "t": 95970.51061718719,
      "d": 143.32261718749942,
      "v": 78
    },
    {
      "midi": 69,
      "hit": false,
      "t": 95970.51061718719,
      "d": 143.32261718749942,
      "v": 78
    },
    {
      "midi": 62,
      "hit": false,
      "t": 96113.83323437469,
      "d": 145.00876562499616,
      "v": 75
    },
    {
      "midi": 66,
      "hit": false,
      "t": 96113.83323437469,
      "d": 145.00876562499616,
      "v": 75
    },
    {
      "midi": 69,
      "hit": false,
      "t": 96113.83323437469,
      "d": 145.00876562499616,
      "v": 75
    },
    {
      "midi": 62,
      "hit": false,
      "t": 96258.84199999968,
      "d": 431.653999999995,
      "v": 78
    },
    {
      "midi": 66,
      "hit": false,
      "t": 96258.84199999968,
      "d": 431.653999999995,
      "v": 78
    },
    {
      "midi": 69,
      "hit": false,
      "t": 96258.84199999968,
      "d": 431.653999999995,
      "v": 78
    },
    {
      "midi": 64,
      "hit": false,
      "t": 96690.49599999968,
      "d": 143.32261718749942,
      "v": 83
    },
    {
      "midi": 68,
      "hit": false,
      "t": 96690.49599999968,
      "d": 143.32261718749942,
      "v": 83
    },
    {
      "midi": 71,
      "hit": false,
      "t": 96690.49599999968,
      "d": 143.32261718749942,
      "v": 83
    },
    {
      "midi": 52,
      "hit": false,
      "t": 96690.49599999978,
      "d": 863.3080000000045,
      "v": 75
    },
    {
      "midi": 64,
      "hit": false,
      "t": 96833.81861718718,
      "d": 143.32261718749942,
      "v": 75
    },
    {
      "midi": 68,
      "hit": false,
      "t": 96833.81861718718,
      "d": 143.32261718749942,
      "v": 75
    },
    {
      "midi": 71,
      "hit": false,
      "t": 96833.81861718718,
      "d": 143.32261718749942,
      "v": 75
    },
    {
      "midi": 64,
      "hit": false,
      "t": 96977.14123437468,
      "d": 145.00876562499616,
      "v": 75
    },
    {
      "midi": 68,
      "hit": false,
      "t": 96977.14123437468,
      "d": 145.00876562499616,
      "v": 75
    },
    {
      "midi": 71,
      "hit": false,
      "t": 96977.14123437468,
      "d": 145.00876562499616,
      "v": 75
    },
    {
      "midi": 64,
      "hit": false,
      "t": 97122.14999999967,
      "d": 431.653999999995,
      "v": 75
    },
    {
      "midi": 68,
      "hit": false,
      "t": 97122.14999999967,
      "d": 431.653999999995,
      "v": 75
    },
    {
      "midi": 71,
      "hit": false,
      "t": 97122.14999999967,
      "d": 431.653999999995,
      "v": 75
    },
    {
      "midi": 66,
      "hit": false,
      "t": 97553.80399999967,
      "d": 143.32261718749942,
      "v": 85
    },
    {
      "midi": 70,
      "hit": false,
      "t": 97553.80399999967,
      "d": 143.32261718749942,
      "v": 85
    },
    {
      "midi": 73,
      "hit": false,
      "t": 97553.80399999967,
      "d": 143.32261718749942,
      "v": 85
    },
    {
      "midi": 54,
      "hit": false,
      "t": 97553.80399999979,
      "d": 863.3080000000045,
      "v": 76
    },
    {
      "midi": 66,
      "hit": false,
      "t": 97697.12661718717,
      "d": 143.32261718749942,
      "v": 74
    },
    {
      "midi": 70,
      "hit": false,
      "t": 97697.12661718717,
      "d": 143.32261718749942,
      "v": 74
    },
    {
      "midi": 73,
      "hit": false,
      "t": 97697.12661718717,
      "d": 143.32261718749942,
      "v": 74
    },
    {
      "midi": 66,
      "hit": false,
      "t": 97840.44923437467,
      "d": 145.00876562499616,
      "v": 79
    },
    {
      "midi": 70,
      "hit": false,
      "t": 97840.44923437467,
      "d": 145.00876562499616,
      "v": 79
    },
    {
      "midi": 73,
      "hit": false,
      "t": 97840.44923437467,
      "d": 145.00876562499616,
      "v": 79
    },
    {
      "midi": 66,
      "hit": false,
      "t": 97985.45799999966,
      "d": 431.653999999995,
      "v": 77
    },
    {
      "midi": 70,
      "hit": false,
      "t": 97985.45799999966,
      "d": 431.653999999995,
      "v": 77
    },
    {
      "midi": 73,
      "hit": false,
      "t": 97985.45799999966,
      "d": 431.653999999995,
      "v": 77
    },
    {
      "midi": 68,
      "hit": false,
      "t": 98417.11199999966,
      "d": 143.32261718749942,
      "v": 80
    },
    {
      "midi": 72,
      "hit": false,
      "t": 98417.11199999966,
      "d": 143.32261718749942,
      "v": 80
    },
    {
      "midi": 75,
      "hit": false,
      "t": 98417.11199999966,
      "d": 143.32261718749942,
      "v": 80
    },
    {
      "midi": 56,
      "hit": false,
      "t": 98417.11199999979,
      "d": 1294.9619999999995,
      "v": 81
    },
    {
      "midi": 68,
      "hit": false,
      "t": 98560.43461718716,
      "d": 143.32261718749942,
      "v": 75
    },
    {
      "midi": 72,
      "hit": false,
      "t": 98560.43461718716,
      "d": 143.32261718749942,
      "v": 75
    },
    {
      "midi": 75,
      "hit": false,
      "t": 98560.43461718716,
      "d": 143.32261718749942,
      "v": 75
    },
    {
      "midi": 68,
      "hit": false,
      "t": 98703.75723437466,
      "d": 145.00876562499616,
      "v": 74
    },
    {
      "midi": 72,
      "hit": false,
      "t": 98703.75723437466,
      "d": 145.00876562499616,
      "v": 74
    },
    {
      "midi": 75,
      "hit": false,
      "t": 98703.75723437466,
      "d": 145.00876562499616,
      "v": 74
    },
    {
      "midi": 68,
      "hit": false,
      "t": 98848.76599999965,
      "d": 431.653999999995,
      "v": 76
    },
    {
      "midi": 72,
      "hit": false,
      "t": 98848.76599999965,
      "d": 431.653999999995,
      "v": 76
    },
    {
      "midi": 75,
      "hit": false,
      "t": 98848.76599999965,
      "d": 431.653999999995,
      "v": 76
    },
    {
      "midi": 68,
      "hit": false,
      "t": 99280.41999999965,
      "d": 143.32261718749942,
      "v": 76
    },
    {
      "midi": 72,
      "hit": false,
      "t": 99280.41999999965,
      "d": 143.32261718749942,
      "v": 76
    },
    {
      "midi": 75,
      "hit": false,
      "t": 99280.41999999965,
      "d": 143.32261718749942,
      "v": 76
    },
    {
      "midi": 68,
      "hit": false,
      "t": 99423.74261718715,
      "d": 143.32261718749942,
      "v": 75
    },
    {
      "midi": 72,
      "hit": false,
      "t": 99423.74261718715,
      "d": 143.32261718749942,
      "v": 75
    },
    {
      "midi": 75,
      "hit": false,
      "t": 99423.74261718715,
      "d": 143.32261718749942,
      "v": 75
    },
    {
      "midi": 68,
      "hit": false,
      "t": 99567.06523437465,
      "d": 145.00876562499616,
      "v": 76
    },
    {
      "midi": 72,
      "hit": false,
      "t": 99567.06523437465,
      "d": 145.00876562499616,
      "v": 76
    },
    {
      "midi": 75,
      "hit": false,
      "t": 99567.06523437465,
      "d": 145.00876562499616,
      "v": 76
    },
    {
      "midi": 68,
      "hit": false,
      "t": 99712.07399999964,
      "d": 431.653999999995,
      "v": 74
    },
    {
      "midi": 72,
      "hit": false,
      "t": 99712.07399999964,
      "d": 431.653999999995,
      "v": 74
    },
    {
      "midi": 75,
      "hit": false,
      "t": 99712.07399999964,
      "d": 431.653999999995,
      "v": 74
    },
    {
      "midi": 54,
      "hit": false,
      "t": 99998.71923437479,
      "d": 145.00876562499616,
      "v": 68
    },
    {
      "midi": 68,
      "hit": false,
      "t": 100143.72799999964,
      "d": 143.32261718749942,
      "v": 77
    },
    {
      "midi": 72,
      "hit": false,
      "t": 100143.72799999964,
      "d": 143.32261718749942,
      "v": 77
    },
    {
      "midi": 75,
      "hit": false,
      "t": 100143.72799999964,
      "d": 143.32261718749942,
      "v": 77
    },
    {
      "midi": 56,
      "hit": false,
      "t": 100143.72799999978,
      "d": 1726.6159999999945,
      "v": 78
    },
    {
      "midi": 68,
      "hit": false,
      "t": 100287.05061718714,
      "d": 143.32261718749942,
      "v": 76
    },
    {
      "midi": 72,
      "hit": false,
      "t": 100287.05061718714,
      "d": 143.32261718749942,
      "v": 76
    },
    {
      "midi": 75,
      "hit": false,
      "t": 100287.05061718714,
      "d": 143.32261718749942,
      "v": 76
    },
    {
      "midi": 68,
      "hit": false,
      "t": 100430.37323437464,
      "d": 145.00876562499616,
      "v": 76
    },
    {
      "midi": 72,
      "hit": false,
      "t": 100430.37323437464,
      "d": 145.00876562499616,
      "v": 76
    },
    {
      "midi": 75,
      "hit": false,
      "t": 100430.37323437464,
      "d": 145.00876562499616,
      "v": 76
    },
    {
      "midi": 68,
      "hit": false,
      "t": 100575.38199999963,
      "d": 431.653999999995,
      "v": 79
    },
    {
      "midi": 72,
      "hit": false,
      "t": 100575.38199999963,
      "d": 431.653999999995,
      "v": 79
    },
    {
      "midi": 75,
      "hit": false,
      "t": 100575.38199999963,
      "d": 431.653999999995,
      "v": 79
    },
    {
      "midi": 63,
      "hit": false,
      "t": 101870.34399999963,
      "d": 143.32261718749942,
      "v": 88
    },
    {
      "midi": 63,
      "hit": false,
      "t": 102156.98923437463,
      "d": 145.00876562499616,
      "v": 91
    },
    {
      "midi": 68,
      "hit": false,
      "t": 102301.99799999963,
      "d": 286.64523437499884,
      "v": 110
    },
    {
      "midi": 32,
      "hit": false,
      "t": 102301.99799999977,
      "d": 143.32261718749942,
      "v": 66
    },
    {
      "midi": 63,
      "hit": false,
      "t": 102588.64323437463,
      "d": 145.00876562499616,
      "v": 83
    },
    {
      "midi": 32,
      "hit": false,
      "t": 102588.64323437477,
      "d": 145.00876562499616,
      "v": 68
    },
    {
      "midi": 68,
      "hit": false,
      "t": 102733.65199999962,
      "d": 286.64523437499884,
      "v": 108
    },
    {
      "midi": 44,
      "hit": false,
      "t": 102733.65199999977,
      "d": 143.32261718749942,
      "v": 88
    },
    {
      "midi": 72,
      "hit": false,
      "t": 103020.29723437462,
      "d": 145.00876562499616,
      "v": 107
    },
    {
      "midi": 44,
      "hit": false,
      "t": 103020.29723437477,
      "d": 145.00876562499616,
      "v": 68
    },
    {
      "midi": 68,
      "hit": false,
      "t": 103165.30599999962,
      "d": 431.653999999995,
      "v": 87
    },
    {
      "midi": 44,
      "hit": false,
      "t": 103165.30599999976,
      "d": 143.32261718749942,
      "v": 77
    },
    {
      "midi": 44,
      "hit": false,
      "t": 103308.62861718726,
      "d": 143.32261718749942,
      "v": 79
    },
    {
      "midi": 44,
      "hit": false,
      "t": 103451.95123437476,
      "d": 145.00876562499616,
      "v": 80
    },
    {
      "midi": 68,
      "hit": false,
      "t": 103596.95999999961,
      "d": 286.64523437499884,
      "v": 97
    },
    {
      "midi": 44,
      "hit": false,
      "t": 103596.95999999976,
      "d": 431.653999999995,
      "v": 79
    },
    {
      "midi": 68,
      "hit": false,
      "t": 103883.60523437461,
      "d": 145.00876562499616,
      "v": 100
    },
    {
      "midi": 72,
      "hit": false,
      "t": 104028.61399999961,
      "d": 286.64523437499884,
      "v": 105
    },
    {
      "midi": 32,
      "hit": false,
      "t": 104028.61399999975,
      "d": 143.32261718749942,
      "v": 68
    },
    {
      "midi": 68,
      "hit": false,
      "t": 104315.25923437461,
      "d": 145.00876562499616,
      "v": 88
    },
    {
      "midi": 32,
      "hit": false,
      "t": 104315.25923437475,
      "d": 145.00876562499616,
      "v": 70
    },
    {
      "midi": 75,
      "hit": false,
      "t": 104460.2679999996,
      "d": 431.653999999995,
      "v": 115
    },
    {
      "midi": 44,
      "hit": false,
      "t": 104460.26799999975,
      "d": 143.32261718749942,
      "v": 88
    },
    {
      "midi": 44,
      "hit": false,
      "t": 104746.91323437475,
      "d": 145.00876562499616,
      "v": 67
    },
    {
      "midi": 75,
      "hit": false,
      "t": 104891.9219999996,
      "d": 431.653999999995,
      "v": 93
    },
    {
      "midi": 44,
      "hit": false,
      "t": 104891.92199999974,
      "d": 143.32261718749942,
      "v": 76
    },
    {
      "midi": 44,
      "hit": false,
      "t": 105035.24461718724,
      "d": 143.32261718749942,
      "v": 67
    },
    {
      "midi": 44,
      "hit": false,
      "t": 105178.56723437474,
      "d": 145.00876562499616,
      "v": 78
    },
    {
      "midi": 63,
      "hit": false,
      "t": 105323.5759999996,
      "d": 143.32261718749942,
      "v": 66
    },
    {
      "midi": 44,
      "hit": false,
      "t": 105323.57599999974,
      "d": 431.653999999995,
      "v": 75
    },
    {
      "midi": 63,
      "hit": false,
      "t": 105610.22123437459,
      "d": 145.00876562499616,
      "v": 88
    },
    {
      "midi": 63,
      "hit": false,
      "t": 105755.22999999959,
      "d": 286.64523437499884,
      "v": 111
    },
    {
      "midi": 68,
      "hit": false,
      "t": 105755.22999999959,
      "d": 286.64523437499884,
      "v": 111
    },
    {
      "midi": 32,
      "hit": false,
      "t": 105755.22999999973,
      "d": 143.32261718749942,
      "v": 65
    },
    {
      "midi": 60,
      "hit": false,
      "t": 106041.87523437459,
      "d": 145.00876562499616,
      "v": 84
    },
    {
      "midi": 63,
      "hit": false,
      "t": 106041.87523437459,
      "d": 145.00876562499616,
      "v": 84
    },
    {
      "midi": 32,
      "hit": false,
      "t": 106041.87523437473,
      "d": 145.00876562499616,
      "v": 68
    },
    {
      "midi": 63,
      "hit": false,
      "t": 106186.88399999958,
      "d": 286.64523437499884,
      "v": 105
    },
    {
      "midi": 68,
      "hit": false,
      "t": 106186.88399999958,
      "d": 286.64523437499884,
      "v": 105
    },
    {
      "midi": 44,
      "hit": false,
      "t": 106186.88399999973,
      "d": 143.32261718749942,
      "v": 82
    },
    {
      "midi": 68,
      "hit": false,
      "t": 106473.52923437458,
      "d": 145.00876562499616,
      "v": 111
    },
    {
      "midi": 72,
      "hit": false,
      "t": 106473.52923437458,
      "d": 145.00876562499616,
      "v": 111
    },
    {
      "midi": 44,
      "hit": false,
      "t": 106473.52923437473,
      "d": 145.00876562499616,
      "v": 67
    },
    {
      "midi": 63,
      "hit": false,
      "t": 106618.53799999958,
      "d": 431.653999999995,
      "v": 92
    },
    {
      "midi": 68,
      "hit": false,
      "t": 106618.53799999958,
      "d": 431.653999999995,
      "v": 92
    },
    {
      "midi": 44,
      "hit": false,
      "t": 106618.53799999972,
      "d": 143.32261718749942,
      "v": 74
    },
    {
      "midi": 44,
      "hit": false,
      "t": 106761.86061718722,
      "d": 143.32261718749942,
      "v": 77
    },
    {
      "midi": 44,
      "hit": false,
      "t": 106905.18323437472,
      "d": 145.00876562499616,
      "v": 77
    },
    {
      "midi": 63,
      "hit": false,
      "t": 107050.19199999957,
      "d": 286.64523437499884,
      "v": 101
    },
    {
      "midi": 68,
      "hit": false,
      "t": 107050.19199999957,
      "d": 286.64523437499884,
      "v": 101
    },
    {
      "midi": 44,
      "hit": false,
      "t": 107050.19199999972,
      "d": 431.653999999995,
      "v": 79
    },
    {
      "midi": 63,
      "hit": false,
      "t": 107336.83723437457,
      "d": 145.00876562499616,
      "v": 97
    },
    {
      "midi": 68,
      "hit": false,
      "t": 107336.83723437457,
      "d": 145.00876562499616,
      "v": 97
    },
    {
      "midi": 68,
      "hit": false,
      "t": 107481.84599999957,
      "d": 286.64523437499884,
      "v": 111
    },
    {
      "midi": 72,
      "hit": false,
      "t": 107481.84599999957,
      "d": 286.64523437499884,
      "v": 111
    },
    {
      "midi": 32,
      "hit": false,
      "t": 107481.84599999971,
      "d": 143.32261718749942,
      "v": 64
    },
    {
      "midi": 63,
      "hit": false,
      "t": 107768.49123437457,
      "d": 145.00876562499616,
      "v": 84
    },
    {
      "midi": 68,
      "hit": false,
      "t": 107768.49123437457,
      "d": 145.00876562499616,
      "v": 84
    },
    {
      "midi": 32,
      "hit": false,
      "t": 107768.49123437471,
      "d": 145.00876562499616,
      "v": 68
    },
    {
      "midi": 68,
      "hit": false,
      "t": 107913.49999999956,
      "d": 431.653999999995,
      "v": 118
    },
    {
      "midi": 75,
      "hit": false,
      "t": 107913.49999999956,
      "d": 431.653999999995,
      "v": 118
    },
    {
      "midi": 44,
      "hit": false,
      "t": 107913.49999999971,
      "d": 143.32261718749942,
      "v": 86
    },
    {
      "midi": 44,
      "hit": false,
      "t": 108200.14523437471,
      "d": 145.00876562499616,
      "v": 70
    },
    {
      "midi": 68,
      "hit": false,
      "t": 108345.15399999956,
      "d": 431.653999999995,
      "v": 97
    },
    {
      "midi": 75,
      "hit": false,
      "t": 108345.15399999956,
      "d": 431.653999999995,
      "v": 97
    },
    {
      "midi": 44,
      "hit": false,
      "t": 108345.1539999997,
      "d": 143.32261718749942,
      "v": 79
    },
    {
      "midi": 44,
      "hit": false,
      "t": 108488.4766171872,
      "d": 143.32261718749942,
      "v": 71
    },
    {
      "midi": 44,
      "hit": false,
      "t": 108631.7992343747,
      "d": 145.00876562499616,
      "v": 71
    },
    {
      "midi": 60,
      "hit": false,
      "t": 108776.80799999955,
      "d": 143.32261718749942,
      "v": 74
    },
    {
      "midi": 63,
      "hit": false,
      "t": 108776.80799999955,
      "d": 143.32261718749942,
      "v": 74
    },
    {
      "midi": 44,
      "hit": false,
      "t": 108776.8079999997,
      "d": 431.653999999995,
      "v": 80
    },
    {
      "midi": 60,
      "hit": false,
      "t": 109063.45323437455,
      "d": 145.00876562499616,
      "v": 88
    },
    {
      "midi": 63,
      "hit": false,
      "t": 109063.45323437455,
      "d": 145.00876562499616,
      "v": 88
    },
    {
      "midi": 68,
      "hit": false,
      "t": 109208.46199999955,
      "d": 286.64523437499884,
      "v": 122
    },
    {
      "midi": 72,
      "hit": false,
      "t": 109208.46199999955,
      "d": 286.64523437499884,
      "v": 122
    },
    {
      "midi": 80,
      "hit": false,
      "t": 109208.46199999955,
      "d": 286.64523437499884,
      "v": 122
    },
    {
      "midi": 32,
      "hit": false,
      "t": 109208.4619999997,
      "d": 143.32261718749942,
      "v": 67
    },
    {
      "midi": 63,
      "hit": false,
      "t": 109495.10723437455,
      "d": 145.00876562499616,
      "v": 86
    },
    {
      "midi": 68,
      "hit": false,
      "t": 109495.10723437455,
      "d": 145.00876562499616,
      "v": 86
    },
    {
      "midi": 75,
      "hit": false,
      "t": 109495.10723437455,
      "d": 145.00876562499616,
      "v": 86
    },
    {
      "midi": 32,
      "hit": false,
      "t": 109495.1072343747,
      "d": 145.00876562499616,
      "v": 70
    },
    {
      "midi": 68,
      "hit": false,
      "t": 109640.11599999954,
      "d": 286.64523437499884,
      "v": 113
    },
    {
      "midi": 72,
      "hit": false,
      "t": 109640.11599999954,
      "d": 286.64523437499884,
      "v": 113
    },
    {
      "midi": 80,
      "hit": false,
      "t": 109640.11599999954,
      "d": 286.64523437499884,
      "v": 113
    },
    {
      "midi": 44,
      "hit": false,
      "t": 109640.11599999969,
      "d": 143.32261718749942,
      "v": 82
    },
    {
      "midi": 72,
      "hit": false,
      "t": 109926.76123437454,
      "d": 145.00876562499616,
      "v": 112
    },
    {
      "midi": 75,
      "hit": false,
      "t": 109926.76123437454,
      "d": 145.00876562499616,
      "v": 112
    },
    {
      "midi": 84,
      "hit": false,
      "t": 109926.76123437454,
      "d": 145.00876562499616,
      "v": 112
    },
    {
      "midi": 44,
      "hit": false,
      "t": 109926.76123437469,
      "d": 145.00876562499616,
      "v": 67
    },
    {
      "midi": 68,
      "hit": false,
      "t": 110071.76999999954,
      "d": 431.653999999995,
      "v": 83
    },
    {
      "midi": 72,
      "hit": false,
      "t": 110071.76999999954,
      "d": 431.653999999995,
      "v": 83
    },
    {
      "midi": 80,
      "hit": false,
      "t": 110071.76999999954,
      "d": 431.653999999995,
      "v": 83
    },
    {
      "midi": 44,
      "hit": false,
      "t": 110071.76999999968,
      "d": 143.32261718749942,
      "v": 73
    },
    {
      "midi": 44,
      "hit": false,
      "t": 110215.09261718718,
      "d": 143.32261718749942,
      "v": 74
    },
    {
      "midi": 44,
      "hit": false,
      "t": 110358.41523437468,
      "d": 145.00876562499616,
      "v": 78
    },
    {
      "midi": 68,
      "hit": false,
      "t": 110503.42399999953,
      "d": 286.64523437499884,
      "v": 98
    },
    {
      "midi": 72,
      "hit": false,
      "t": 110503.42399999953,
      "d": 286.64523437499884,
      "v": 98
    },
    {
      "midi": 80,
      "hit": false,
      "t": 110503.42399999953,
      "d": 286.64523437499884,
      "v": 98
    },
    {
      "midi": 44,
      "hit": false,
      "t": 110503.42399999968,
      "d": 431.653999999995,
      "v": 77
    },
    {
      "midi": 68,
      "hit": false,
      "t": 110790.06923437453,
      "d": 145.00876562499616,
      "v": 96
    },
    {
      "midi": 72,
      "hit": false,
      "t": 110790.06923437453,
      "d": 145.00876562499616,
      "v": 96
    },
    {
      "midi": 80,
      "hit": false,
      "t": 110790.06923437453,
      "d": 145.00876562499616,
      "v": 96
    },
    {
      "midi": 72,
      "hit": false,
      "t": 110935.07799999953,
      "d": 286.64523437499884,
      "v": 109
    },
    {
      "midi": 75,
      "hit": false,
      "t": 110935.07799999953,
      "d": 286.64523437499884,
      "v": 109
    },
    {
      "midi": 84,
      "hit": false,
      "t": 110935.07799999953,
      "d": 286.64523437499884,
      "v": 109
    },
    {
      "midi": 32,
      "hit": false,
      "t": 110935.07799999967,
      "d": 143.32261718749942,
      "v": 70
    },
    {
      "midi": 68,
      "hit": false,
      "t": 111221.72323437453,
      "d": 145.00876562499616,
      "v": 88
    },
    {
      "midi": 72,
      "hit": false,
      "t": 111221.72323437453,
      "d": 145.00876562499616,
      "v": 88
    },
    {
      "midi": 80,
      "hit": false,
      "t": 111221.72323437453,
      "d": 145.00876562499616,
      "v": 88
    },
    {
      "midi": 32,
      "hit": false,
      "t": 111221.72323437467,
      "d": 145.00876562499616,
      "v": 64
    },
    {
      "midi": 75,
      "hit": false,
      "t": 111366.73199999952,
      "d": 431.653999999995,
      "v": 116
    },
    {
      "midi": 80,
      "hit": false,
      "t": 111366.73199999952,
      "d": 431.653999999995,
      "v": 116
    },
    {
      "midi": 87,
      "hit": false,
      "t": 111366.73199999952,
      "d": 431.653999999995,
      "v": 116
    },
    {
      "midi": 44,
      "hit": false,
      "t": 111366.73199999967,
      "d": 143.32261718749942,
      "v": 83
    },
    {
      "midi": 44,
      "hit": false,
      "t": 111653.37723437467,
      "d": 145.00876562499616,
      "v": 65
    },
    {
      "midi": 75,
      "hit": false,
      "t": 111798.38599999952,
      "d": 431.653999999995,
      "v": 101
    },
    {
      "midi": 80,
      "hit": false,
      "t": 111798.38599999952,
      "d": 431.653999999995,
      "v": 101
    },
    {
      "midi": 87,
      "hit": false,
      "t": 111798.38599999952,
      "d": 431.653999999995,
      "v": 101
    },
    {
      "midi": 44,
      "hit": false,
      "t": 111798.38599999966,
      "d": 143.32261718749942,
      "v": 75
    },
    {
      "midi": 44,
      "hit": false,
      "t": 111941.70861718716,
      "d": 143.32261718749942,
      "v": 74
    },
    {
      "midi": 44,
      "hit": false,
      "t": 112085.03123437466,
      "d": 145.00876562499616,
      "v": 69
    },
    {
      "midi": 58,
      "hit": false,
      "t": 112230.03999999951,
      "d": 431.653999999995,
      "v": 67
    },
    {
      "midi": 63,
      "hit": false,
      "t": 112230.03999999951,
      "d": 431.653999999995,
      "v": 67
    },
    {
      "midi": 63,
      "hit": false,
      "t": 112661.69399999951,
      "d": 143.32261718749942,
      "v": 109
    },
    {
      "midi": 68,
      "hit": false,
      "t": 112661.69399999951,
      "d": 143.32261718749942,
      "v": 109
    },
    {
      "midi": 63,
      "hit": false,
      "t": 112948.3392343745,
      "d": 1008.3167656250007,
      "v": 88
    },
    {
      "midi": 68,
      "hit": false,
      "t": 112948.3392343745,
      "d": 1008.3167656250007,
      "v": 88
    },
    {
      "midi": 68,
      "hit": false,
      "t": 113956.65599999951,
      "d": 143.32261718749942,
      "v": 94
    },
    {
      "midi": 44,
      "hit": false,
      "t": 113956.65599999965,
      "d": 143.32261718749942,
      "v": 88
    },
    {
      "midi": 56,
      "hit": false,
      "t": 113956.65599999965,
      "d": 143.32261718749942,
      "v": 88
    },
    {
      "midi": 71,
      "hit": false,
      "t": 114099.97861718701,
      "d": 143.32261718749942,
      "v": 109
    },
    {
      "midi": 47,
      "hit": false,
      "t": 114099.97861718715,
      "d": 143.32261718749942,
      "v": 80
    },
    {
      "midi": 59,
      "hit": false,
      "t": 114099.97861718715,
      "d": 143.32261718749942,
      "v": 80
    },
    {
      "midi": 72,
      "hit": false,
      "t": 114243.3012343745,
      "d": 145.00876562499616,
      "v": 105
    },
    {
      "midi": 48,
      "hit": false,
      "t": 114243.30123437465,
      "d": 145.00876562499616,
      "v": 83
    },
    {
      "midi": 60,
      "hit": false,
      "t": 114243.30123437465,
      "d": 145.00876562499616,
      "v": 83
    },
    {
      "midi": 73,
      "hit": false,
      "t": 114388.3099999995,
      "d": 143.32261718749942,
      "v": 101
    },
    {
      "midi": 49,
      "hit": false,
      "t": 114388.30999999965,
      "d": 143.32261718749942,
      "v": 82
    },
    {
      "midi": 61,
      "hit": false,
      "t": 114388.30999999965,
      "d": 143.32261718749942,
      "v": 82
    },
    {
      "midi": 72,
      "hit": false,
      "t": 114531.632617187,
      "d": 143.32261718749942,
      "v": 89
    },
    {
      "midi": 48,
      "hit": false,
      "t": 114531.63261718715,
      "d": 143.32261718749942,
      "v": 74
    },
    {
      "midi": 60,
      "hit": false,
      "t": 114531.63261718715,
      "d": 143.32261718749942,
      "v": 74
    },
    {
      "midi": 70,
      "hit": false,
      "t": 114674.9552343745,
      "d": 145.00876562499616,
      "v": 90
    },
    {
      "midi": 46,
      "hit": false,
      "t": 114674.95523437465,
      "d": 145.00876562499616,
      "v": 75
    },
    {
      "midi": 58,
      "hit": false,
      "t": 114674.95523437465,
      "d": 145.00876562499616,
      "v": 75
    },
    {
      "midi": 68,
      "hit": false,
      "t": 114819.9639999995,
      "d": 431.653999999995,
      "v": 86
    },
    {
      "midi": 44,
      "hit": false,
      "t": 114819.96399999964,
      "d": 431.653999999995,
      "v": 73
    },
    {
      "midi": 56,
      "hit": false,
      "t": 114819.96399999964,
      "d": 431.653999999995,
      "v": 73
    },
    {
      "midi": 68,
      "hit": false,
      "t": 115251.6179999995,
      "d": 3884.8859999999986,
      "v": 125
    },
    {
      "midi": 75,
      "hit": false,
      "t": 115251.6179999995,
      "d": 3884.8859999999986,
      "v": 125
    },
    {
      "midi": 80,
      "hit": false,
      "t": 115251.6179999995,
      "d": 3884.8859999999986,
      "v": 125
    },
    {
      "midi": 44,
      "hit": false,
      "t": 115251.61799999964,
      "d": 3884.8859999999986,
      "v": 76
    },
    {
      "midi": 51,
      "hit": false,
      "t": 115251.61799999964,
      "d": 3884.8859999999986,
      "v": 76
    },
    {
      "midi": 56,
      "hit": false,
      "t": 115251.61799999964,
      "d": 3884.8859999999986,
      "v": 76
    },
    {
      "midi": 51,
      "hit": false,
      "t": 119136.50399999949,
      "d": 143.32261718749942,
      "v": 82
    },
    {
      "midi": 56,
      "hit": false,
      "t": 119136.50399999949,
      "d": 143.32261718749942,
      "v": 82
    },
    {
      "midi": 44,
      "hit": false,
      "t": 119136.50399999964,
      "d": 70.81823437499406,
      "v": 71
    },
    {
      "midi": 44,
      "hit": false,
      "t": 119279.82661718714,
      "d": 70.81823437499406,
      "v": 73
    },
    {
      "midi": 51,
      "hit": false,
      "t": 119423.14923437449,
      "d": 145.00876562499616,
      "v": 87
    },
    {
      "midi": 56,
      "hit": false,
      "t": 119423.14923437449,
      "d": 145.00876562499616,
      "v": 87
    },
    {
      "midi": 44,
      "hit": false,
      "t": 119423.14923437464,
      "d": 72.50438281250536,
      "v": 79
    },
    {
      "midi": 56,
      "hit": false,
      "t": 119568.15799999949,
      "d": 286.64523437499884,
      "v": 102
    },
    {
      "midi": 60,
      "hit": false,
      "t": 119568.15799999949,
      "d": 286.64523437499884,
      "v": 102
    },
    {
      "midi": 44,
      "hit": false,
      "t": 119568.15799999965,
      "d": 431.653999999995,
      "v": 70
    },
    {
      "midi": 51,
      "hit": false,
      "t": 119854.80323437449,
      "d": 145.00876562499616,
      "v": 90
    },
    {
      "midi": 56,
      "hit": false,
      "t": 119854.80323437449,
      "d": 145.00876562499616,
      "v": 90
    },
    {
      "midi": 51,
      "hit": false,
      "t": 119999.81199999948,
      "d": 431.653999999995,
      "v": 96
    },
    {
      "midi": 56,
      "hit": false,
      "t": 119999.81199999948,
      "d": 431.653999999995,
      "v": 96
    },
    {
      "midi": 44,
      "hit": false,
      "t": 119999.81199999964,
      "d": 70.81823437499406,
      "v": 75
    },
    {
      "midi": 44,
      "hit": false,
      "t": 120143.13461718714,
      "d": 70.81823437499406,
      "v": 74
    },
    {
      "midi": 44,
      "hit": false,
      "t": 120286.45723437464,
      "d": 72.50438281250536,
      "v": 72
    },
    {
      "midi": 51,
      "hit": false,
      "t": 120431.46599999948,
      "d": 143.32261718749942,
      "v": 102
    },
    {
      "midi": 56,
      "hit": false,
      "t": 120431.46599999948,
      "d": 143.32261718749942,
      "v": 102
    },
    {
      "midi": 44,
      "hit": false,
      "t": 120431.46599999965,
      "d": 431.653999999995,
      "v": 77
    },
    {
      "midi": 56,
      "hit": false,
      "t": 120574.78861718698,
      "d": 143.32261718749942,
      "v": 109
    },
    {
      "midi": 60,
      "hit": false,
      "t": 120574.78861718698,
      "d": 143.32261718749942,
      "v": 109
    },
    {
      "midi": 56,
      "hit": false,
      "t": 120718.11123437448,
      "d": 145.00876562499616,
      "v": 107
    },
    {
      "midi": 63,
      "hit": false,
      "t": 120718.11123437448,
      "d": 145.00876562499616,
      "v": 107
    },
    {
      "midi": 59,
      "hit": false,
      "t": 120863.11999999947,
      "d": 863.3080000000045,
      "v": 108
    },
    {
      "midi": 62,
      "hit": false,
      "t": 120863.11999999947,
      "d": 863.3080000000045,
      "v": 108
    },
    {
      "midi": 67,
      "hit": false,
      "t": 120863.11999999947,
      "d": 863.3080000000045,
      "v": 108
    },
    {
      "midi": 43,
      "hit": false,
      "t": 120863.11999999965,
      "d": 143.32261718749942,
      "v": 77
    },
    {
      "midi": 43,
      "hit": false,
      "t": 121006.44261718715,
      "d": 143.32261718749942,
      "v": 76
    },
    {
      "midi": 43,
      "hit": false,
      "t": 121149.76523437464,
      "d": 145.00876562499616,
      "v": 79
    },
    {
      "midi": 47,
      "hit": false,
      "t": 121294.77399999964,
      "d": 431.653999999995,
      "v": 86
    },
    {
      "midi": 55,
      "hit": false,
      "t": 121294.77399999964,
      "d": 431.653999999995,
      "v": 86
    },
    {
      "midi": 59,
      "hit": false,
      "t": 121726.42799999948,
      "d": 863.3080000000045,
      "v": 94
    },
    {
      "midi": 62,
      "hit": false,
      "t": 121726.42799999948,
      "d": 863.3080000000045,
      "v": 94
    },
    {
      "midi": 65,
      "hit": false,
      "t": 121726.42799999948,
      "d": 863.3080000000045,
      "v": 94
    },
    {
      "midi": 43,
      "hit": false,
      "t": 121726.42799999964,
      "d": 143.32261718749942,
      "v": 69
    },
    {
      "midi": 43,
      "hit": false,
      "t": 121869.75061718714,
      "d": 143.32261718749942,
      "v": 77
    },
    {
      "midi": 43,
      "hit": false,
      "t": 122013.07323437463,
      "d": 145.00876562499616,
      "v": 75
    },
    {
      "midi": 47,
      "hit": false,
      "t": 122158.08199999963,
      "d": 431.653999999995,
      "v": 87
    },
    {
      "midi": 53,
      "hit": false,
      "t": 122158.08199999963,
      "d": 431.653999999995,
      "v": 87
    },
    {
      "midi": 60,
      "hit": false,
      "t": 122589.73599999948,
      "d": 143.32261718749942,
      "v": 93
    },
    {
      "midi": 63,
      "hit": false,
      "t": 122589.73599999948,
      "d": 143.32261718749942,
      "v": 93
    },
    {
      "midi": 44,
      "hit": false,
      "t": 122589.73599999963,
      "d": 70.81823437499406,
      "v": 70
    },
    {
      "midi": 44,
      "hit": false,
      "t": 122733.05861718713,
      "d": 70.81823437499406,
      "v": 75
    },
    {
      "midi": 60,
      "hit": false,
      "t": 122876.38123437448,
      "d": 145.00876562499616,
      "v": 86
    },
    {
      "midi": 63,
      "hit": false,
      "t": 122876.38123437448,
      "d": 145.00876562499616,
      "v": 86
    },
    {
      "midi": 44,
      "hit": false,
      "t": 122876.38123437462,
      "d": 72.50438281250536,
      "v": 78
    },
    {
      "midi": 63,
      "hit": false,
      "t": 123021.38999999948,
      "d": 286.64523437499884,
      "v": 110
    },
    {
      "midi": 68,
      "hit": false,
      "t": 123021.38999999948,
      "d": 286.64523437499884,
      "v": 110
    },
    {
      "midi": 44,
      "hit": false,
      "t": 123021.38999999964,
      "d": 431.653999999995,
      "v": 74
    },
    {
      "midi": 60,
      "hit": false,
      "t": 123308.03523437447,
      "d": 145.00876562499616,
      "v": 83
    },
    {
      "midi": 63,
      "hit": false,
      "t": 123308.03523437447,
      "d": 145.00876562499616,
      "v": 83
    },
    {
      "midi": 60,
      "hit": false,
      "t": 123453.04399999947,
      "d": 431.653999999995,
      "v": 95
    },
    {
      "midi": 63,
      "hit": false,
      "t": 123453.04399999947,
      "d": 431.653999999995,
      "v": 95
    },
    {
      "midi": 44,
      "hit": false,
      "t": 123453.04399999963,
      "d": 70.81823437499406,
      "v": 79
    },
    {
      "midi": 44,
      "hit": false,
      "t": 123596.36661718713,
      "d": 70.81823437499406,
      "v": 76
    },
    {
      "midi": 44,
      "hit": false,
      "t": 123739.68923437463,
      "d": 72.50438281250536,
      "v": 77
    },
    {
      "midi": 60,
      "hit": false,
      "t": 123884.69799999947,
      "d": 143.32261718749942,
      "v": 98
    },
    {
      "midi": 63,
      "hit": false,
      "t": 123884.69799999947,
      "d": 143.32261718749942,
      "v": 98
    },
    {
      "midi": 44,
      "hit": false,
      "t": 123884.69799999964,
      "d": 431.653999999995,
      "v": 75
    },
    {
      "midi": 63,
      "hit": false,
      "t": 124028.02061718696,
      "d": 143.32261718749942,
      "v": 111
    },
    {
      "midi": 68,
      "hit": false,
      "t": 124028.02061718696,
      "d": 143.32261718749942,
      "v": 111
    },
    {
      "midi": 60,
      "hit": false,
      "t": 124171.34323437446,
      "d": 145.00876562499616,
      "v": 84
    },
    {
      "midi": 63,
      "hit": false,
      "t": 124171.34323437446,
      "d": 145.00876562499616,
      "v": 84
    },
    {
      "midi": 61,
      "hit": false,
      "t": 124316.35199999946,
      "d": 863.3080000000045,
      "v": 108
    },
    {
      "midi": 66,
      "hit": false,
      "t": 124316.35199999946,
      "d": 863.3080000000045,
      "v": 108
    },
    {
      "midi": 70,
      "hit": false,
      "t": 124316.35199999946,
      "d": 863.3080000000045,
      "v": 108
    },
    {
      "midi": 42,
      "hit": false,
      "t": 124316.35199999964,
      "d": 143.32261718749942,
      "v": 75
    },
    {
      "midi": 42,
      "hit": false,
      "t": 124459.67461718713,
      "d": 143.32261718749942,
      "v": 73
    },
    {
      "midi": 42,
      "hit": false,
      "t": 124602.99723437463,
      "d": 145.00876562499616,
      "v": 78
    },
    {
      "midi": 46,
      "hit": false,
      "t": 124748.00599999963,
      "d": 431.653999999995,
      "v": 89
    },
    {
      "midi": 54,
      "hit": false,
      "t": 124748.00599999963,
      "d": 431.653999999995,
      "v": 89
    },
    {
      "midi": 65,
      "hit": false,
      "t": 125179.65999999947,
      "d": 863.3080000000045,
      "v": 113
    },
    {
      "midi": 68,
      "hit": false,
      "t": 125179.65999999947,
      "d": 863.3080000000045,
      "v": 113
    },
    {
      "midi": 73,
      "hit": false,
      "t": 125179.65999999947,
      "d": 863.3080000000045,
      "v": 113
    },
    {
      "midi": 49,
      "hit": false,
      "t": 125179.65999999963,
      "d": 143.32261718749942,
      "v": 74
    },
    {
      "midi": 49,
      "hit": false,
      "t": 125322.98261718712,
      "d": 143.32261718749942,
      "v": 76
    },
    {
      "midi": 49,
      "hit": false,
      "t": 125466.30523437462,
      "d": 145.00876562499616,
      "v": 74
    },
    {
      "midi": 53,
      "hit": false,
      "t": 125611.31399999962,
      "d": 431.653999999995,
      "v": 99
    },
    {
      "midi": 61,
      "hit": false,
      "t": 125611.31399999962,
      "d": 431.653999999995,
      "v": 99
    },
    {
      "midi": 51,
      "hit": false,
      "t": 126042.96799999947,
      "d": 143.32261718749942,
      "v": 88
    },
    {
      "midi": 56,
      "hit": false,
      "t": 126042.96799999947,
      "d": 143.32261718749942,
      "v": 88
    },
    {
      "midi": 44,
      "hit": false,
      "t": 126042.96799999962,
      "d": 70.81823437499406,
      "v": 71
    },
    {
      "midi": 44,
      "hit": false,
      "t": 126186.29061718711,
      "d": 70.81823437499406,
      "v": 74
    },
    {
      "midi": 51,
      "hit": false,
      "t": 126329.61323437447,
      "d": 145.00876562499616,
      "v": 90
    },
    {
      "midi": 56,
      "hit": false,
      "t": 126329.61323437447,
      "d": 145.00876562499616,
      "v": 90
    },
    {
      "midi": 44,
      "hit": false,
      "t": 126329.61323437461,
      "d": 72.50438281250536,
      "v": 72
    },
    {
      "midi": 56,
      "hit": false,
      "t": 126474.62199999946,
      "d": 286.64523437499884,
      "v": 103
    },
    {
      "midi": 60,
      "hit": false,
      "t": 126474.62199999946,
      "d": 286.64523437499884,
      "v": 103
    },
    {
      "midi": 44,
      "hit": false,
      "t": 126474.62199999962,
      "d": 431.653999999995,
      "v": 76
    },
    {
      "midi": 51,
      "hit": false,
      "t": 126761.26723437446,
      "d": 145.00876562499616,
      "v": 94
    },
    {
      "midi": 56,
      "hit": false,
      "t": 126761.26723437446,
      "d": 145.00876562499616,
      "v": 94
    },
    {
      "midi": 51,
      "hit": false,
      "t": 126906.27599999946,
      "d": 431.653999999995,
      "v": 97
    },
    {
      "midi": 56,
      "hit": false,
      "t": 126906.27599999946,
      "d": 431.653999999995,
      "v": 97
    },
    {
      "midi": 44,
      "hit": false,
      "t": 126906.27599999962,
      "d": 70.81823437499406,
      "v": 75
    },
    {
      "midi": 44,
      "hit": false,
      "t": 127049.59861718712,
      "d": 70.81823437499406,
      "v": 70
    },
    {
      "midi": 44,
      "hit": false,
      "t": 127192.92123437462,
      "d": 72.50438281250536,
      "v": 76
    },
    {
      "midi": 51,
      "hit": false,
      "t": 127337.92999999945,
      "d": 143.32261718749942,
      "v": 98
    },
    {
      "midi": 56,
      "hit": false,
      "t": 127337.92999999945,
      "d": 143.32261718749942,
      "v": 98
    },
    {
      "midi": 44,
      "hit": false,
      "t": 127337.92999999963,
      "d": 431.653999999995,
      "v": 77
    },
    {
      "midi": 56,
      "hit": false,
      "t": 127481.25261718695,
      "d": 143.32261718749942,
      "v": 105
    },
    {
      "midi": 60,
      "hit": false,
      "t": 127481.25261718695,
      "d": 143.32261718749942,
      "v": 105
    },
    {
      "midi": 56,
      "hit": false,
      "t": 127624.57523437445,
      "d": 145.00876562499616,
      "v": 106
    },
    {
      "midi": 63,
      "hit": false,
      "t": 127624.57523437445,
      "d": 145.00876562499616,
      "v": 106
    },
    {
      "midi": 59,
      "hit": false,
      "t": 127769.58399999945,
      "d": 863.3080000000045,
      "v": 111
    },
    {
      "midi": 62,
      "hit": false,
      "t": 127769.58399999945,
      "d": 863.3080000000045,
      "v": 111
    },
    {
      "midi": 67,
      "hit": false,
      "t": 127769.58399999945,
      "d": 863.3080000000045,
      "v": 111
    },
    {
      "midi": 43,
      "hit": false,
      "t": 127769.58399999962,
      "d": 143.32261718749942,
      "v": 75
    },
    {
      "midi": 43,
      "hit": false,
      "t": 127912.90661718712,
      "d": 143.32261718749942,
      "v": 78
    },
    {
      "midi": 43,
      "hit": false,
      "t": 128056.22923437462,
      "d": 145.00876562499616,
      "v": 76
    },
    {
      "midi": 47,
      "hit": false,
      "t": 128201.23799999962,
      "d": 431.653999999995,
      "v": 87
    },
    {
      "midi": 55,
      "hit": false,
      "t": 128201.23799999962,
      "d": 431.653999999995,
      "v": 87
    },
    {
      "midi": 59,
      "hit": false,
      "t": 128632.89199999945,
      "d": 863.3080000000045,
      "v": 97
    },
    {
      "midi": 62,
      "hit": false,
      "t": 128632.89199999945,
      "d": 863.3080000000045,
      "v": 97
    },
    {
      "midi": 65,
      "hit": false,
      "t": 128632.89199999945,
      "d": 863.3080000000045,
      "v": 97
    },
    {
      "midi": 43,
      "hit": false,
      "t": 128632.89199999961,
      "d": 143.32261718749942,
      "v": 64
    },
    {
      "midi": 43,
      "hit": false,
      "t": 128776.21461718711,
      "d": 143.32261718749942,
      "v": 73
    },
    {
      "midi": 43,
      "hit": false,
      "t": 128919.53723437461,
      "d": 145.00876562499616,
      "v": 76
    },
    {
      "midi": 47,
      "hit": false,
      "t": 129064.54599999961,
      "d": 431.653999999995,
      "v": 87
    },
    {
      "midi": 53,
      "hit": false,
      "t": 129064.54599999961,
      "d": 431.653999999995,
      "v": 87
    },
    {
      "midi": 60,
      "hit": false,
      "t": 129496.19999999946,
      "d": 143.32261718749942,
      "v": 92
    },
    {
      "midi": 63,
      "hit": false,
      "t": 129496.19999999946,
      "d": 143.32261718749942,
      "v": 92
    },
    {
      "midi": 44,
      "hit": false,
      "t": 129496.1999999996,
      "d": 70.81823437499406,
      "v": 72
    },
    {
      "midi": 44,
      "hit": false,
      "t": 129639.5226171871,
      "d": 70.81823437499406,
      "v": 77
    },
    {
      "midi": 60,
      "hit": false,
      "t": 129782.84523437446,
      "d": 145.00876562499616,
      "v": 86
    },
    {
      "midi": 63,
      "hit": false,
      "t": 129782.84523437446,
      "d": 145.00876562499616,
      "v": 86
    },
    {
      "midi": 44,
      "hit": false,
      "t": 129782.8452343746,
      "d": 72.50438281250536,
      "v": 77
    },
    {
      "midi": 63,
      "hit": false,
      "t": 129927.85399999945,
      "d": 286.64523437499884,
      "v": 105
    },
    {
      "midi": 68,
      "hit": false,
      "t": 129927.85399999945,
      "d": 286.64523437499884,
      "v": 105
    },
    {
      "midi": 44,
      "hit": false,
      "t": 129927.85399999961,
      "d": 431.653999999995,
      "v": 70
    },
    {
      "midi": 60,
      "hit": false,
      "t": 130214.49923437445,
      "d": 145.00876562499616,
      "v": 85
    },
    {
      "midi": 63,
      "hit": false,
      "t": 130214.49923437445,
      "d": 145.00876562499616,
      "v": 85
    },
    {
      "midi": 60,
      "hit": false,
      "t": 130359.50799999945,
      "d": 431.653999999995,
      "v": 97
    },
    {
      "midi": 63,
      "hit": false,
      "t": 130359.50799999945,
      "d": 431.653999999995,
      "v": 97
    },
    {
      "midi": 44,
      "hit": false,
      "t": 130359.50799999961,
      "d": 70.81823437499406,
      "v": 73
    },
    {
      "midi": 44,
      "hit": false,
      "t": 130502.83061718711,
      "d": 70.81823437499406,
      "v": 72
    },
    {
      "midi": 44,
      "hit": false,
      "t": 130646.15323437461,
      "d": 72.50438281250536,
      "v": 78
    },
    {
      "midi": 60,
      "hit": false,
      "t": 130791.16199999944,
      "d": 143.32261718749942,
      "v": 98
    },
    {
      "midi": 63,
      "hit": false,
      "t": 130791.16199999944,
      "d": 143.32261718749942,
      "v": 98
    },
    {
      "midi": 44,
      "hit": false,
      "t": 130791.16199999962,
      "d": 431.653999999995,
      "v": 72
    },
    {
      "midi": 63,
      "hit": false,
      "t": 130934.48461718694,
      "d": 143.32261718751397,
      "v": 106
    },
    {
      "midi": 68,
      "hit": false,
      "t": 130934.48461718694,
      "d": 143.32261718751397,
      "v": 106
    },
    {
      "midi": 60,
      "hit": false,
      "t": 131077.80723437446,
      "d": 145.0087656250107,
      "v": 91
    },
    {
      "midi": 63,
      "hit": false,
      "t": 131077.80723437446,
      "d": 145.0087656250107,
      "v": 91
    },
    {
      "midi": 61,
      "hit": false,
      "t": 131222.81599999947,
      "d": 863.30799999999,
      "v": 119
    },
    {
      "midi": 66,
      "hit": false,
      "t": 131222.81599999947,
      "d": 863.30799999999,
      "v": 119
    },
    {
      "midi": 70,
      "hit": false,
      "t": 131222.81599999947,
      "d": 863.30799999999,
      "v": 119
    },
    {
      "midi": 42,
      "hit": false,
      "t": 131222.8159999996,
      "d": 143.32261718751397,
      "v": 80
    },
    {
      "midi": 42,
      "hit": false,
      "t": 131366.13861718713,
      "d": 143.32261718751397,
      "v": 77
    },
    {
      "midi": 42,
      "hit": false,
      "t": 131509.46123437464,
      "d": 145.0087656250107,
      "v": 80
    },
    {
      "midi": 46,
      "hit": false,
      "t": 131654.46999999965,
      "d": 431.65400000000955,
      "v": 89
    },
    {
      "midi": 54,
      "hit": false,
      "t": 131654.46999999965,
      "d": 431.65400000000955,
      "v": 89
    },
    {
      "midi": 65,
      "hit": false,
      "t": 132086.12399999946,
      "d": 863.30799999999,
      "v": 106
    },
    {
      "midi": 68,
      "hit": false,
      "t": 132086.12399999946,
      "d": 863.30799999999,
      "v": 106
    },
    {
      "midi": 73,
      "hit": false,
      "t": 132086.12399999946,
      "d": 863.30799999999,
      "v": 106
    },
    {
      "midi": 49,
      "hit": false,
      "t": 132086.12399999966,
      "d": 143.32261718751397,
      "v": 73
    },
    {
      "midi": 49,
      "hit": false,
      "t": 132229.44661718718,
      "d": 143.32261718751397,
      "v": 81
    },
    {
      "midi": 49,
      "hit": false,
      "t": 132372.7692343747,
      "d": 145.0087656250107,
      "v": 73
    },
    {
      "midi": 53,
      "hit": false,
      "t": 132517.7779999997,
      "d": 431.65400000000955,
      "v": 96
    },
    {
      "midi": 61,
      "hit": false,
      "t": 132517.7779999997,
      "d": 431.65400000000955,
      "v": 96
    },
    {
      "midi": 68,
      "hit": false,
      "t": 132949.43199999945,
      "d": 143.32261718751397,
      "v": 86
    },
    {
      "midi": 44,
      "hit": false,
      "t": 132949.4319999997,
      "d": 143.32261718751397,
      "v": 69
    },
    {
      "midi": 68,
      "hit": false,
      "t": 133236.07723437448,
      "d": 145.0087656250107,
      "v": 91
    },
    {
      "midi": 44,
      "hit": false,
      "t": 133236.07723437474,
      "d": 145.0087656250107,
      "v": 66
    },
    {
      "midi": 63,
      "hit": false,
      "t": 133381.0859999995,
      "d": 431.65400000000955,
      "v": 102
    },
    {
      "midi": 70,
      "hit": false,
      "t": 133381.0859999995,
      "d": 431.65400000000955,
      "v": 102
    },
    {
      "midi": 43,
      "hit": false,
      "t": 133381.08599999975,
      "d": 431.65400000000955,
      "v": 70
    },
    {
      "midi": 72,
      "hit": false,
      "t": 133812.7399999995,
      "d": 431.65400000000955,
      "v": 104
    },
    {
      "midi": 42,
      "hit": false,
      "t": 133812.73999999976,
      "d": 431.65400000000955,
      "v": 73
    },
    {
      "midi": 63,
      "hit": false,
      "t": 134244.3939999995,
      "d": 431.65400000000955,
      "v": 102
    },
    {
      "midi": 73,
      "hit": false,
      "t": 134244.3939999995,
      "d": 431.65400000000955,
      "v": 102
    },
    {
      "midi": 41,
      "hit": false,
      "t": 134244.39399999977,
      "d": 431.65400000000955,
      "v": 74
    },
    {
      "midi": 68,
      "hit": false,
      "t": 134676.04799999952,
      "d": 431.65400000000955,
      "v": 57
    },
    {
      "midi": 40,
      "hit": false,
      "t": 134676.04799999978,
      "d": 431.65400000000955,
      "v": 78
    },
    {
      "midi": 59,
      "hit": false,
      "t": 135107.70199999952,
      "d": 286.64523437499884,
      "v": 63
    },
    {
      "midi": 40,
      "hit": false,
      "t": 135107.7019999998,
      "d": 143.32261718751397,
      "v": 77
    },
    {
      "midi": 68,
      "hit": false,
      "t": 135394.34723437452,
      "d": 145.0087656250107,
      "v": 88
    },
    {
      "midi": 40,
      "hit": false,
      "t": 135394.3472343748,
      "d": 145.0087656250107,
      "v": 68
    },
    {
      "midi": 70,
      "hit": false,
      "t": 135539.35599999953,
      "d": 143.32261718751397,
      "v": 82
    },
    {
      "midi": 40,
      "hit": false,
      "t": 135539.35599999983,
      "d": 431.65400000000955,
      "v": 74
    },
    {
      "midi": 66,
      "hit": false,
      "t": 135682.67861718705,
      "d": 143.32261718751397,
      "v": 60
    },
    {
      "midi": 70,
      "hit": false,
      "t": 135826.00123437456,
      "d": 145.0087656250107,
      "v": 77
    },
    {
      "midi": 75,
      "hit": false,
      "t": 135971.00999999957,
      "d": 143.32261718751397,
      "v": 83
    },
    {
      "midi": 40,
      "hit": false,
      "t": 135971.00999999983,
      "d": 143.32261718751397,
      "v": 72
    },
    {
      "midi": 72,
      "hit": false,
      "t": 136114.3326171871,
      "d": 143.32261718751397,
      "v": 70
    },
    {
      "midi": 75,
      "hit": false,
      "t": 136257.6552343746,
      "d": 145.0087656250107,
      "v": 74
    },
    {
      "midi": 40,
      "hit": false,
      "t": 136257.65523437486,
      "d": 145.0087656250107,
      "v": 70
    },
    {
      "midi": 60,
      "hit": false,
      "t": 136402.6639999996,
      "d": 143.32261718751397,
      "v": 87
    },
    {
      "midi": 72,
      "hit": false,
      "t": 136402.6639999996,
      "d": 143.32261718751397,
      "v": 87
    },
    {
      "midi": 44,
      "hit": false,
      "t": 136402.66399999987,
      "d": 431.65400000000955,
      "v": 80
    },
    {
      "midi": 61,
      "hit": false,
      "t": 136689.30923437464,
      "d": 145.0087656250107,
      "v": 89
    },
    {
      "midi": 73,
      "hit": false,
      "t": 136689.30923437464,
      "d": 145.0087656250107,
      "v": 89
    },
    {
      "midi": 63,
      "hit": false,
      "t": 136834.31799999965,
      "d": 143.32261718751397,
      "v": 106
    },
    {
      "midi": 75,
      "hit": false,
      "t": 136834.31799999965,
      "d": 143.32261718751397,
      "v": 106
    },
    {
      "midi": 44,
      "hit": false,
      "t": 136834.31799999988,
      "d": 143.32261718751397,
      "v": 73
    },
    {
      "midi": 61,
      "hit": false,
      "t": 137120.96323437468,
      "d": 145.0087656250107,
      "v": 93
    },
    {
      "midi": 73,
      "hit": false,
      "t": 137120.96323437468,
      "d": 145.0087656250107,
      "v": 93
    },
    {
      "midi": 44,
      "hit": false,
      "t": 137120.9632343749,
      "d": 145.0087656250107,
      "v": 67
    },
    {
      "midi": 60,
      "hit": false,
      "t": 137265.9719999997,
      "d": 863.30799999999,
      "v": 95
    },
    {
      "midi": 72,
      "hit": false,
      "t": 137265.9719999997,
      "d": 863.30799999999,
      "v": 95
    },
    {
      "midi": 44,
      "hit": false,
      "t": 137265.97199999992,
      "d": 431.65400000000955,
      "v": 74
    },
    {
      "midi": 44,
      "hit": false,
      "t": 137697.62599999993,
      "d": 143.32261718751397,
      "v": 74
    },
    {
      "midi": 44,
      "hit": false,
      "t": 137840.94861718745,
      "d": 143.32261718751397,
      "v": 77
    },
    {
      "midi": 44,
      "hit": false,
      "t": 137984.27123437496,
      "d": 145.0087656250107,
      "v": 74
    },
    {
      "midi": 68,
      "hit": false,
      "t": 138129.27999999968,
      "d": 143.32261718751397,
      "v": 87
    },
    {
      "midi": 44,
      "hit": false,
      "t": 138129.27999999997,
      "d": 143.32261718751397,
      "v": 75
    },
    {
      "midi": 68,
      "hit": false,
      "t": 138415.9252343747,
      "d": 145.0087656250107,
      "v": 85
    },
    {
      "midi": 44,
      "hit": false,
      "t": 138415.925234375,
      "d": 145.0087656250107,
      "v": 69
    },
    {
      "midi": 63,
      "hit": false,
      "t": 138560.93399999972,
      "d": 431.65400000000955,
      "v": 102
    },
    {
      "midi": 70,
      "hit": false,
      "t": 138560.93399999972,
      "d": 431.65400000000955,
      "v": 102
    },
    {
      "midi": 43,
      "hit": false,
      "t": 138560.934,
      "d": 431.65400000000955,
      "v": 74
    },
    {
      "midi": 72,
      "hit": false,
      "t": 138992.58799999973,
      "d": 431.65400000000955,
      "v": 106
    },
    {
      "midi": 42,
      "hit": false,
      "t": 138992.58800000002,
      "d": 431.65400000000955,
      "v": 73
    },
    {
      "midi": 63,
      "hit": false,
      "t": 139424.24199999974,
      "d": 431.65400000000955,
      "v": 102
    },
    {
      "midi": 73,
      "hit": false,
      "t": 139424.24199999974,
      "d": 431.65400000000955,
      "v": 102
    },
    {
      "midi": 41,
      "hit": false,
      "t": 139424.24200000003,
      "d": 431.65400000000955,
      "v": 74
    },
    {
      "midi": 68,
      "hit": false,
      "t": 139855.89599999975,
      "d": 431.65400000000955,
      "v": 63
    },
    {
      "midi": 40,
      "hit": false,
      "t": 139855.89600000004,
      "d": 431.65400000000955,
      "v": 72
    },
    {
      "midi": 59,
      "hit": false,
      "t": 140287.54999999976,
      "d": 286.64523437499884,
      "v": 64
    },
    {
      "midi": 40,
      "hit": false,
      "t": 140287.55000000005,
      "d": 143.32261718751397,
      "v": 77
    },
    {
      "midi": 40,
      "hit": false,
      "t": 140430.87261718756,
      "d": 143.32261718751397,
      "v": 83
    },
    {
      "midi": 68,
      "hit": false,
      "t": 140574.19523437475,
      "d": 145.0087656250107,
      "v": 82
    },
    {
      "midi": 40,
      "hit": false,
      "t": 140574.19523437507,
      "d": 145.0087656250107,
      "v": 74
    },
    {
      "midi": 70,
      "hit": false,
      "t": 140719.20399999977,
      "d": 143.32261718751397,
      "v": 83
    },
    {
      "midi": 52,
      "hit": false,
      "t": 140719.20400000009,
      "d": 718.2992343750084,
      "v": 87
    },
    {
      "midi": 66,
      "hit": false,
      "t": 140862.52661718728,
      "d": 143.32261718751397,
      "v": 63
    },
    {
      "midi": 70,
      "hit": false,
      "t": 141005.8492343748,
      "d": 145.0087656250107,
      "v": 76
    },
    {
      "midi": 75,
      "hit": false,
      "t": 141150.8579999998,
      "d": 143.32261718751397,
      "v": 78
    },
    {
      "midi": 72,
      "hit": false,
      "t": 141294.18061718732,
      "d": 143.32261718751397,
      "v": 69
    },
    {
      "midi": 75,
      "hit": false,
      "t": 141437.50323437483,
      "d": 145.0087656250107,
      "v": 76
    },
    {
      "midi": 40,
      "hit": false,
      "t": 141437.5032343751,
      "d": 145.0087656250107,
      "v": 69
    },
    {
      "midi": 60,
      "hit": false,
      "t": 141582.51199999984,
      "d": 143.32261718751397,
      "v": 92
    },
    {
      "midi": 72,
      "hit": false,
      "t": 141582.51199999984,
      "d": 143.32261718751397,
      "v": 92
    },
    {
      "midi": 44,
      "hit": false,
      "t": 141582.5120000001,
      "d": 431.65400000000955,
      "v": 74
    },
    {
      "midi": 61,
      "hit": false,
      "t": 141869.15723437487,
      "d": 145.0087656250107,
      "v": 90
    },
    {
      "midi": 73,
      "hit": false,
      "t": 141869.15723437487,
      "d": 145.0087656250107,
      "v": 90
    },
    {
      "midi": 63,
      "hit": false,
      "t": 142014.16599999988,
      "d": 143.32261718751397,
      "v": 106
    },
    {
      "midi": 75,
      "hit": false,
      "t": 142014.16599999988,
      "d": 143.32261718751397,
      "v": 106
    },
    {
      "midi": 44,
      "hit": false,
      "t": 142014.1660000001,
      "d": 143.32261718751397,
      "v": 78
    },
    {
      "midi": 61,
      "hit": false,
      "t": 142300.8112343749,
      "d": 145.0087656250107,
      "v": 90
    },
    {
      "midi": 73,
      "hit": false,
      "t": 142300.8112343749,
      "d": 145.0087656250107,
      "v": 90
    },
    {
      "midi": 44,
      "hit": false,
      "t": 142300.81123437514,
      "d": 145.0087656250107,
      "v": 71
    },
    {
      "midi": 60,
      "hit": false,
      "t": 142445.81999999992,
      "d": 431.65400000000955,
      "v": 90
    },
    {
      "midi": 72,
      "hit": false,
      "t": 142445.81999999992,
      "d": 431.65400000000955,
      "v": 90
    },
    {
      "midi": 44,
      "hit": false,
      "t": 142445.82000000015,
      "d": 431.65400000000955,
      "v": 71
    },
    {
      "midi": 68,
      "hit": false,
      "t": 142877.47399999993,
      "d": 143.32261718751397,
      "v": 82
    },
    {
      "midi": 44,
      "hit": false,
      "t": 142877.47400000016,
      "d": 143.32261718751397,
      "v": 77
    },
    {
      "midi": 72,
      "hit": false,
      "t": 143020.79661718744,
      "d": 143.32261718751397,
      "v": 109
    },
    {
      "midi": 73,
      "hit": false,
      "t": 143164.11923437496,
      "d": 145.0087656250107,
      "v": 99
    },
    {
      "midi": 44,
      "hit": false,
      "t": 143164.1192343752,
      "d": 145.0087656250107,
      "v": 69
    },
    {
      "midi": 70,
      "hit": false,
      "t": 143309.12799999997,
      "d": 863.30799999999,
      "v": 102
    },
    {
      "midi": 75,
      "hit": false,
      "t": 143309.12799999997,
      "d": 863.30799999999,
      "v": 102
    },
    {
      "midi": 42,
      "hit": false,
      "t": 143309.1280000002,
      "d": 431.65400000000955,
      "v": 76
    },
    {
      "midi": 42,
      "hit": false,
      "t": 143740.7820000002,
      "d": 143.32261718751397,
      "v": 74
    },
    {
      "midi": 42,
      "hit": false,
      "t": 144027.42723437524,
      "d": 145.0087656250107,
      "v": 66
    },
    {
      "midi": 72,
      "hit": false,
      "t": 144172.43599999996,
      "d": 431.65400000000955,
      "v": 95
    },
    {
      "midi": 54,
      "hit": false,
      "t": 144172.43600000025,
      "d": 431.65400000000955,
      "v": 86
    },
    {
      "midi": 70,
      "hit": false,
      "t": 144604.08999999997,
      "d": 143.32261718751397,
      "v": 100
    },
    {
      "midi": 73,
      "hit": false,
      "t": 144604.08999999997,
      "d": 143.32261718751397,
      "v": 100
    },
    {
      "midi": 49,
      "hit": false,
      "t": 144604.09000000026,
      "d": 431.65400000000955,
      "v": 74
    },
    {
      "midi": 68,
      "hit": false,
      "t": 144890.735234375,
      "d": 145.0087656250107,
      "v": 87
    },
    {
      "midi": 72,
      "hit": false,
      "t": 144890.735234375,
      "d": 145.0087656250107,
      "v": 87
    },
    {
      "midi": 65,
      "hit": false,
      "t": 145035.744,
      "d": 863.30799999999,
      "v": 100
    },
    {
      "midi": 68,
      "hit": false,
      "t": 145035.744,
      "d": 863.30799999999,
      "v": 100
    },
    {
      "midi": 73,
      "hit": false,
      "t": 145035.744,
      "d": 863.30799999999,
      "v": 100
    },
    {
      "midi": 41,
      "hit": false,
      "t": 145035.74400000027,
      "d": 431.65400000000955,
      "v": 68
    },
    {
      "midi": 41,
      "hit": false,
      "t": 145467.39800000028,
      "d": 143.32261718751397,
      "v": 70
    },
    {
      "midi": 41,
      "hit": false,
      "t": 145754.0432343753,
      "d": 145.0087656250107,
      "v": 73
    },
    {
      "midi": 61,
      "hit": false,
      "t": 145899.052,
      "d": 431.65400000000955,
      "v": 87
    },
    {
      "midi": 68,
      "hit": false,
      "t": 145899.052,
      "d": 431.65400000000955,
      "v": 87
    },
    {
      "midi": 53,
      "hit": false,
      "t": 145899.05200000032,
      "d": 431.65400000000955,
      "v": 86
    },
    {
      "midi": 61,
      "hit": false,
      "t": 146330.706,
      "d": 431.65400000000955,
      "v": 101
    },
    {
      "midi": 70,
      "hit": false,
      "t": 146330.706,
      "d": 431.65400000000955,
      "v": 101
    },
    {
      "midi": 37,
      "hit": false,
      "t": 146330.70600000033,
      "d": 431.65400000000955,
      "v": 69
    },
    {
      "midi": 68,
      "hit": false,
      "t": 146762.36000000002,
      "d": 431.65400000000955,
      "v": 109
    },
    {
      "midi": 72,
      "hit": false,
      "t": 146762.36000000002,
      "d": 431.65400000000955,
      "v": 109
    },
    {
      "midi": 39,
      "hit": false,
      "t": 146762.36000000034,
      "d": 143.32261718751397,
      "v": 80
    },
    {
      "midi": 39,
      "hit": false,
      "t": 147049.00523437536,
      "d": 145.0087656250107,
      "v": 69
    },
    {
      "midi": 70,
      "hit": false,
      "t": 147194.01400000002,
      "d": 143.32261718751397,
      "v": 97
    },
    {
      "midi": 73,
      "hit": false,
      "t": 147194.01400000002,
      "d": 143.32261718751397,
      "v": 97
    },
    {
      "midi": 39,
      "hit": false,
      "t": 147194.01400000037,
      "d": 143.32261718751397,
      "v": 73
    },
    {
      "midi": 68,
      "hit": false,
      "t": 147480.65923437505,
      "d": 145.0087656250107,
      "v": 89
    },
    {
      "midi": 72,
      "hit": false,
      "t": 147480.65923437505,
      "d": 145.0087656250107,
      "v": 89
    },
    {
      "midi": 39,
      "hit": false,
      "t": 147480.6592343754,
      "d": 145.0087656250107,
      "v": 68
    },
    {
      "midi": 65,
      "hit": false,
      "t": 147625.66800000006,
      "d": 431.65400000000955,
      "v": 92
    },
    {
      "midi": 70,
      "hit": false,
      "t": 147625.66800000006,
      "d": 431.65400000000955,
      "v": 92
    },
    {
      "midi": 38,
      "hit": false,
      "t": 147625.6680000004,
      "d": 143.32261718751397,
      "v": 78
    },
    {
      "midi": 38,
      "hit": false,
      "t": 147912.31323437544,
      "d": 145.0087656250107,
      "v": 67
    },
    {
      "midi": 65,
      "hit": false,
      "t": 148057.32200000007,
      "d": 431.65400000000955,
      "v": 88
    },
    {
      "midi": 68,
      "hit": false,
      "t": 148057.32200000007,
      "d": 431.65400000000955,
      "v": 88
    },
    {
      "midi": 38,
      "hit": false,
      "t": 148057.32200000045,
      "d": 143.32261718751397,
      "v": 75
    },
    {
      "midi": 38,
      "hit": false,
      "t": 148343.96723437548,
      "d": 145.0087656250107,
      "v": 67
    },
    {
      "midi": 61,
      "hit": false,
      "t": 148488.97600000008,
      "d": 431.65400000000955,
      "v": 100
    },
    {
      "midi": 65,
      "hit": false,
      "t": 148488.97600000008,
      "d": 431.65400000000955,
      "v": 100
    },
    {
      "midi": 68,
      "hit": false,
      "t": 148488.97600000008,
      "d": 431.65400000000955,
      "v": 100
    },
    {
      "midi": 37,
      "hit": false,
      "t": 148488.9760000005,
      "d": 143.32261718751397,
      "v": 70
    },
    {
      "midi": 37,
      "hit": false,
      "t": 148775.62123437552,
      "d": 145.0087656250107,
      "v": 67
    },
    {
      "midi": 63,
      "hit": false,
      "t": 148920.6300000001,
      "d": 431.65400000000955,
      "v": 92
    },
    {
      "midi": 67,
      "hit": false,
      "t": 148920.6300000001,
      "d": 431.65400000000955,
      "v": 92
    },
    {
      "midi": 37,
      "hit": false,
      "t": 148920.63000000053,
      "d": 143.32261718751397,
      "v": 71
    },
    {
      "midi": 37,
      "hit": false,
      "t": 149207.27523437556,
      "d": 145.0087656250107,
      "v": 65
    },
    {
      "midi": 58,
      "hit": false,
      "t": 149352.2840000001,
      "d": 431.65400000000955,
      "v": 96
    },
    {
      "midi": 61,
      "hit": false,
      "t": 149352.2840000001,
      "d": 431.65400000000955,
      "v": 96
    },
    {
      "midi": 65,
      "hit": false,
      "t": 149352.2840000001,
      "d": 431.65400000000955,
      "v": 96
    },
    {
      "midi": 39,
      "hit": false,
      "t": 149352.28400000057,
      "d": 143.32261718751397,
      "v": 79
    },
    {
      "midi": 39,
      "hit": false,
      "t": 149638.9292343756,
      "d": 145.0087656250107,
      "v": 67
    },
    {
      "midi": 63,
      "hit": false,
      "t": 149783.9380000001,
      "d": 431.65400000000955,
      "v": 99
    },
    {
      "midi": 67,
      "hit": false,
      "t": 149783.9380000001,
      "d": 431.65400000000955,
      "v": 99
    },
    {
      "midi": 39,
      "hit": false,
      "t": 149783.9380000006,
      "d": 143.32261718751397,
      "v": 73
    },
    {
      "midi": 39,
      "hit": false,
      "t": 150070.58323437563,
      "d": 145.0087656250107,
      "v": 65
    },
    {
      "midi": 68,
      "hit": false,
      "t": 150215.59200000012,
      "d": 143.32261718751397,
      "v": 100
    },
    {
      "midi": 44,
      "hit": false,
      "t": 150215.59200000064,
      "d": 574.9766171874944,
      "v": 80
    },
    {
      "midi": 63,
      "hit": false,
      "t": 150358.91461718763,
      "d": 143.32261718751397,
      "v": 87
    },
    {
      "midi": 68,
      "hit": false,
      "t": 150502.23723437515,
      "d": 145.0087656250107,
      "v": 107
    },
    {
      "midi": 72,
      "hit": false,
      "t": 150647.24600000016,
      "d": 143.32261718751397,
      "v": 111
    },
    {
      "midi": 68,
      "hit": false,
      "t": 150790.56861718767,
      "d": 143.32261718751397,
      "v": 88
    },
    {
      "midi": 72,
      "hit": false,
      "t": 150933.8912343752,
      "d": 145.0087656250107,
      "v": 106
    },
    {
      "midi": 44,
      "hit": false,
      "t": 150933.89123437565,
      "d": 145.0087656250107,
      "v": 72
    },
    {
      "midi": 75,
      "hit": false,
      "t": 151078.9000000002,
      "d": 431.65400000000955,
      "v": 113
    },
    {
      "midi": 42,
      "hit": false,
      "t": 151078.90000000066,
      "d": 574.9766171874944,
      "v": 77
    },
    {
      "midi": 72,
      "hit": false,
      "t": 151510.5540000002,
      "d": 143.32261718751397,
      "v": 94
    },
    {
      "midi": 68,
      "hit": false,
      "t": 151797.19923437524,
      "d": 145.0087656250107,
      "v": 87
    },
    {
      "midi": 42,
      "hit": false,
      "t": 151797.19923437567,
      "d": 145.0087656250107,
      "v": 67
    },
    {
      "midi": 68,
      "hit": false,
      "t": 151942.20800000025,
      "d": 431.65400000000955,
      "v": 107
    },
    {
      "midi": 73,
      "hit": false,
      "t": 151942.20800000025,
      "d": 431.65400000000955,
      "v": 107
    },
    {
      "midi": 41,
      "hit": false,
      "t": 151942.20800000068,
      "d": 574.9766171874944,
      "v": 71
    },
    {
      "midi": 63,
      "hit": false,
      "t": 152373.86200000026,
      "d": 143.32261718751397,
      "v": 99
    },
    {
      "midi": 72,
      "hit": false,
      "t": 152373.86200000026,
      "d": 143.32261718751397,
      "v": 99
    },
    {
      "midi": 61,
      "hit": false,
      "t": 152660.50723437528,
      "d": 145.0087656250107,
      "v": 88
    },
    {
      "midi": 70,
      "hit": false,
      "t": 152660.50723437528,
      "d": 145.0087656250107,
      "v": 88
    },
    {
      "midi": 41,
      "hit": false,
      "t": 152660.5072343757,
      "d": 145.0087656250107,
      "v": 66
    },
    {
      "midi": 60,
      "hit": false,
      "t": 152805.5160000003,
      "d": 431.65400000000955,
      "v": 92
    },
    {
      "midi": 68,
      "hit": false,
      "t": 152805.5160000003,
      "d": 431.65400000000955,
      "v": 92
    },
    {
      "midi": 51,
      "hit": false,
      "t": 152805.5160000007,
      "d": 574.9766171874944,
      "v": 85
    },
    {
      "midi": 61,
      "hit": false,
      "t": 153237.1700000003,
      "d": 431.65400000000955,
      "v": 101
    },
    {
      "midi": 70,
      "hit": false,
      "t": 153237.1700000003,
      "d": 431.65400000000955,
      "v": 101
    },
    {
      "midi": 51,
      "hit": false,
      "t": 153523.8152343757,
      "d": 145.0087656250107,
      "v": 69
    },
    {
      "midi": 53,
      "hit": false,
      "t": 153668.8240000003,
      "d": 143.32261718751397,
      "v": 62
    },
    {
      "midi": 68,
      "hit": false,
      "t": 153668.8240000003,
      "d": 1726.6160000000673,
      "v": 92
    },
    {
      "midi": 37,
      "hit": false,
      "t": 153668.82400000072,
      "d": 574.9766171874944,
      "v": 64
    },
    {
      "midi": 56,
      "hit": false,
      "t": 153812.14661718783,
      "d": 143.32261718751397,
      "v": 69
    },
    {
      "midi": 61,
      "hit": false,
      "t": 153955.46923437534,
      "d": 145.0087656250107,
      "v": 76
    },
    {
      "midi": 63,
      "hit": false,
      "t": 154100.47800000035,
      "d": 143.32261718751397,
      "v": 78
    },
    {
      "midi": 61,
      "hit": false,
      "t": 154243.80061718787,
      "d": 143.32261718751397,
      "v": 70
    },
    {
      "midi": 63,
      "hit": false,
      "t": 154387.12323437538,
      "d": 145.0087656250107,
      "v": 80
    },
    {
      "midi": 49,
      "hit": false,
      "t": 154387.12323437573,
      "d": 145.0087656250107,
      "v": 72
    },
    {
      "midi": 65,
      "hit": false,
      "t": 154532.1320000004,
      "d": 863.30799999999,
      "v": 76
    },
    {
      "midi": 56,
      "hit": false,
      "t": 154532.13200000074,
      "d": 431.65400000000955,
      "v": 80
    },
    {
      "midi": 49,
      "hit": false,
      "t": 154963.78600000075,
      "d": 431.65400000000955,
      "v": 72
    },
    {
      "midi": 51,
      "hit": false,
      "t": 155395.44000000038,
      "d": 143.32261718751397,
      "v": 61
    },
    {
      "midi": 36,
      "hit": false,
      "t": 155395.44000000076,
      "d": 574.9766171874944,
      "v": 65
    },
    {
      "midi": 56,
      "hit": false,
      "t": 155538.7626171879,
      "d": 143.32261718751397,
      "v": 77
    },
    {
      "midi": 58,
      "hit": false,
      "t": 155682.0852343754,
      "d": 145.0087656250107,
      "v": 68
    },
    {
      "midi": 63,
      "hit": false,
      "t": 155827.09400000042,
      "d": 143.32261718751397,
      "v": 79
    },
    {
      "midi": 68,
      "hit": false,
      "t": 155970.41661718793,
      "d": 143.32261718751397,
      "v": 87
    },
    {
      "midi": 73,
      "hit": false,
      "t": 156113.73923437545,
      "d": 145.0087656250107,
      "v": 79
    },
    {
      "midi": 48,
      "hit": false,
      "t": 156113.73923437577,
      "d": 145.0087656250107,
      "v": 71
    },
    {
      "midi": 72,
      "hit": false,
      "t": 156258.74800000046,
      "d": 863.30799999999,
      "v": 70
    },
    {
      "midi": 56,
      "hit": false,
      "t": 156258.74800000078,
      "d": 431.65400000000955,
      "v": 83
    },
    {
      "midi": 48,
      "hit": false,
      "t": 156690.4020000008,
      "d": 431.65400000000955,
      "v": 71
    },
    {
      "midi": 61,
      "hit": false,
      "t": 157122.05600000045,
      "d": 431.65400000000955,
      "v": 52
    },
    {
      "midi": 68,
      "hit": false,
      "t": 157122.05600000045,
      "d": 1726.6160000000673,
      "v": 94
    },
    {
      "midi": 34,
      "hit": false,
      "t": 157122.0560000008,
      "d": 431.65400000000955,
      "v": 64
    },
    {
      "midi": 60,
      "hit": false,
      "t": 157553.71000000046,
      "d": 143.32261718751397,
      "v": 64
    },
    {
      "midi": 36,
      "hit": false,
      "t": 157553.7100000008,
      "d": 431.65400000000955,
      "v": 80
    },
    {
      "midi": 61,
      "hit": false,
      "t": 157697.03261718797,
      "d": 143.32261718751397,
      "v": 78
    },
    {
      "midi": 63,
      "hit": false,
      "t": 157840.3552343755,
      "d": 145.0087656250107,
      "v": 75
    },
    {
      "midi": 61,
      "hit": false,
      "t": 157985.3640000005,
      "d": 431.65400000000955,
      "v": 74
    },
    {
      "midi": 65,
      "hit": false,
      "t": 157985.3640000005,
      "d": 431.65400000000955,
      "v": 74
    },
    {
      "midi": 37,
      "hit": false,
      "t": 157985.36400000082,
      "d": 431.65400000000955,
      "v": 75
    },
    {
      "midi": 67,
      "hit": false,
      "t": 158417.0180000005,
      "d": 431.65400000000955,
      "v": 76
    },
    {
      "midi": 38,
      "hit": false,
      "t": 158417.01800000083,
      "d": 431.65400000000955,
      "v": 79
    },
    {
      "midi": 61,
      "hit": false,
      "t": 158848.67200000052,
      "d": 431.65400000000955,
      "v": 94
    },
    {
      "midi": 68,
      "hit": false,
      "t": 158848.67200000052,
      "d": 431.65400000000955,
      "v": 94
    },
    {
      "midi": 39,
      "hit": false,
      "t": 158848.67200000084,
      "d": 431.65400000000955,
      "v": 76
    },
    {
      "midi": 70,
      "hit": false,
      "t": 159280.32600000052,
      "d": 143.32261718751397,
      "v": 109
    },
    {
      "midi": 39,
      "hit": false,
      "t": 159280.32600000084,
      "d": 143.32261718751397,
      "v": 81
    },
    {
      "midi": 68,
      "hit": false,
      "t": 159423.64861718804,
      "d": 143.32261718751397,
      "v": 88
    },
    {
      "midi": 70,
      "hit": false,
      "t": 159566.97123437555,
      "d": 145.0087656250107,
      "v": 104
    },
    {
      "midi": 39,
      "hit": false,
      "t": 159566.97123437587,
      "d": 145.0087656250107,
      "v": 68
    },
    {
      "midi": 72,
      "hit": false,
      "t": 159711.98000000056,
      "d": 143.32261718751397,
      "v": 102
    },
    {
      "midi": 61,
      "hit": false,
      "t": 159711.98000000056,
      "d": 431.65400000003865,
      "v": 102
    },
    {
      "midi": 39,
      "hit": false,
      "t": 159711.98000000088,
      "d": 143.32261718751397,
      "v": 73
    },
    {
      "midi": 70,
      "hit": false,
      "t": 159855.30261718808,
      "d": 143.32261718751397,
      "v": 98
    },
    {
      "midi": 41,
      "hit": false,
      "t": 159855.3026171884,
      "d": 143.32261718751397,
      "v": 83
    },
    {
      "midi": 72,
      "hit": false,
      "t": 159998.6252343756,
      "d": 145.0087656250107,
      "v": 108
    },
    {
      "midi": 39,
      "hit": false,
      "t": 159998.6252343759,
      "d": 145.0087656250107,
      "v": 78
    },
    {
      "midi": 73,
      "hit": false,
      "t": 160143.6340000006,
      "d": 431.65400000000955,
      "v": 102
    },
    {
      "midi": 43,
      "hit": false,
      "t": 160143.63400000092,
      "d": 431.65400000000955,
      "v": 82
    },
    {
      "midi": 64,
      "hit": false,
      "t": 160575.2880000006,
      "d": 70.81823437500861,
      "v": 91
    },
    {
      "midi": 68,
      "hit": false,
      "t": 160575.2880000006,
      "d": 70.81823437500861,
      "v": 91
    },
    {
      "midi": 71,
      "hit": false,
      "t": 160575.2880000006,
      "d": 70.81823437500861,
      "v": 91
    },
    {
      "midi": 40,
      "hit": false,
      "t": 160575.28800000093,
      "d": 1294.9619999999995,
      "v": 74
    },
    {
      "midi": 64,
      "hit": false,
      "t": 160718.61061718813,
      "d": 70.81823437500861,
      "v": 98
    },
    {
      "midi": 68,
      "hit": false,
      "t": 160718.61061718813,
      "d": 70.81823437500861,
      "v": 98
    },
    {
      "midi": 71,
      "hit": false,
      "t": 160718.61061718813,
      "d": 70.81823437500861,
      "v": 98
    },
    {
      "midi": 64,
      "hit": false,
      "t": 160861.93323437564,
      "d": 72.50438281250536,
      "v": 96
    },
    {
      "midi": 68,
      "hit": false,
      "t": 160861.93323437564,
      "d": 72.50438281250536,
      "v": 96
    },
    {
      "midi": 71,
      "hit": false,
      "t": 160861.93323437564,
      "d": 72.50438281250536,
      "v": 96
    },
    {
      "midi": 64,
      "hit": false,
      "t": 161006.94200000065,
      "d": 215.82699999999022,
      "v": 96
    },
    {
      "midi": 68,
      "hit": false,
      "t": 161006.94200000065,
      "d": 215.82699999999022,
      "v": 96
    },
    {
      "midi": 71,
      "hit": false,
      "t": 161006.94200000065,
      "d": 215.82699999999022,
      "v": 96
    },
    {
      "midi": 64,
      "hit": false,
      "t": 161438.59600000063,
      "d": 70.81823437500861,
      "v": 98
    },
    {
      "midi": 68,
      "hit": false,
      "t": 161438.59600000063,
      "d": 70.81823437500861,
      "v": 98
    },
    {
      "midi": 71,
      "hit": false,
      "t": 161438.59600000063,
      "d": 70.81823437500861,
      "v": 98
    },
    {
      "midi": 64,
      "hit": false,
      "t": 161581.91861718814,
      "d": 70.81823437500861,
      "v": 102
    },
    {
      "midi": 68,
      "hit": false,
      "t": 161581.91861718814,
      "d": 70.81823437500861,
      "v": 102
    },
    {
      "midi": 71,
      "hit": false,
      "t": 161581.91861718814,
      "d": 70.81823437500861,
      "v": 102
    },
    {
      "midi": 64,
      "hit": false,
      "t": 161725.24123437566,
      "d": 72.50438281250536,
      "v": 96
    },
    {
      "midi": 68,
      "hit": false,
      "t": 161725.24123437566,
      "d": 72.50438281250536,
      "v": 96
    },
    {
      "midi": 71,
      "hit": false,
      "t": 161725.24123437566,
      "d": 72.50438281250536,
      "v": 96
    },
    {
      "midi": 64,
      "hit": false,
      "t": 161870.25000000067,
      "d": 215.82699999999022,
      "v": 96
    },
    {
      "midi": 68,
      "hit": false,
      "t": 161870.25000000067,
      "d": 215.82699999999022,
      "v": 96
    },
    {
      "midi": 71,
      "hit": false,
      "t": 161870.25000000067,
      "d": 215.82699999999022,
      "v": 96
    },
    {
      "midi": 40,
      "hit": false,
      "t": 161870.25000000093,
      "d": 431.65400000000955,
      "v": 73
    },
    {
      "midi": 64,
      "hit": false,
      "t": 162301.90400000065,
      "d": 70.81823437500861,
      "v": 98
    },
    {
      "midi": 68,
      "hit": false,
      "t": 162301.90400000065,
      "d": 70.81823437500861,
      "v": 98
    },
    {
      "midi": 71,
      "hit": false,
      "t": 162301.90400000065,
      "d": 70.81823437500861,
      "v": 98
    },
    {
      "midi": 52,
      "hit": false,
      "t": 162301.90400000094,
      "d": 863.30799999999,
      "v": 88
    },
    {
      "midi": 64,
      "hit": false,
      "t": 162445.22661718816,
      "d": 70.81823437500861,
      "v": 96
    },
    {
      "midi": 68,
      "hit": false,
      "t": 162445.22661718816,
      "d": 70.81823437500861,
      "v": 96
    },
    {
      "midi": 71,
      "hit": false,
      "t": 162445.22661718816,
      "d": 70.81823437500861,
      "v": 96
    },
    {
      "midi": 64,
      "hit": false,
      "t": 162588.54923437568,
      "d": 72.50438281250536,
      "v": 100
    },
    {
      "midi": 68,
      "hit": false,
      "t": 162588.54923437568,
      "d": 72.50438281250536,
      "v": 100
    },
    {
      "midi": 71,
      "hit": false,
      "t": 162588.54923437568,
      "d": 72.50438281250536,
      "v": 100
    },
    {
      "midi": 64,
      "hit": false,
      "t": 162733.5580000007,
      "d": 215.82699999999022,
      "v": 95
    },
    {
      "midi": 68,
      "hit": false,
      "t": 162733.5580000007,
      "d": 215.82699999999022,
      "v": 95
    },
    {
      "midi": 71,
      "hit": false,
      "t": 162733.5580000007,
      "d": 215.82699999999022,
      "v": 95
    },
    {
      "midi": 64,
      "hit": false,
      "t": 163165.21200000067,
      "d": 70.81823437500861,
      "v": 96
    },
    {
      "midi": 68,
      "hit": false,
      "t": 163165.21200000067,
      "d": 70.81823437500861,
      "v": 96
    },
    {
      "midi": 71,
      "hit": false,
      "t": 163165.21200000067,
      "d": 70.81823437500861,
      "v": 96
    },
    {
      "midi": 40,
      "hit": false,
      "t": 163165.21200000093,
      "d": 863.30799999999,
      "v": 71
    },
    {
      "midi": 64,
      "hit": false,
      "t": 163308.53461718818,
      "d": 70.81823437500861,
      "v": 101
    },
    {
      "midi": 68,
      "hit": false,
      "t": 163308.53461718818,
      "d": 70.81823437500861,
      "v": 101
    },
    {
      "midi": 71,
      "hit": false,
      "t": 163308.53461718818,
      "d": 70.81823437500861,
      "v": 101
    },
    {
      "midi": 64,
      "hit": false,
      "t": 163451.8572343757,
      "d": 72.50438281250536,
      "v": 91
    },
    {
      "midi": 68,
      "hit": false,
      "t": 163451.8572343757,
      "d": 72.50438281250536,
      "v": 91
    },
    {
      "midi": 71,
      "hit": false,
      "t": 163451.8572343757,
      "d": 72.50438281250536,
      "v": 91
    },
    {
      "midi": 64,
      "hit": false,
      "t": 163596.8660000007,
      "d": 215.82699999999022,
      "v": 98
    },
    {
      "midi": 68,
      "hit": false,
      "t": 163596.8660000007,
      "d": 215.82699999999022,
      "v": 98
    },
    {
      "midi": 71,
      "hit": false,
      "t": 163596.8660000007,
      "d": 215.82699999999022,
      "v": 98
    },
    {
      "midi": 64,
      "hit": false,
      "t": 164028.5200000007,
      "d": 143.32261718751397,
      "v": 112
    },
    {
      "midi": 71,
      "hit": false,
      "t": 164028.5200000007,
      "d": 143.32261718751397,
      "v": 112
    },
    {
      "midi": 76,
      "hit": false,
      "t": 164028.5200000007,
      "d": 143.32261718751397,
      "v": 112
    },
    {
      "midi": 40,
      "hit": false,
      "t": 164028.52000000092,
      "d": 431.65400000000955,
      "v": 69
    },
    {
      "midi": 64,
      "hit": false,
      "t": 164171.8426171882,
      "d": 143.32261718751397,
      "v": 101
    },
    {
      "midi": 71,
      "hit": false,
      "t": 164171.8426171882,
      "d": 143.32261718751397,
      "v": 101
    },
    {
      "midi": 76,
      "hit": false,
      "t": 164171.8426171882,
      "d": 143.32261718751397,
      "v": 101
    },
    {
      "midi": 64,
      "hit": false,
      "t": 164315.16523437572,
      "d": 145.0087656250107,
      "v": 94
    },
    {
      "midi": 71,
      "hit": false,
      "t": 164315.16523437572,
      "d": 145.0087656250107,
      "v": 94
    },
    {
      "midi": 76,
      "hit": false,
      "t": 164315.16523437572,
      "d": 145.0087656250107,
      "v": 94
    },
    {
      "midi": 68,
      "hit": false,
      "t": 164460.17400000073,
      "d": 70.81823437500861,
      "v": 108
    },
    {
      "midi": 76,
      "hit": false,
      "t": 164460.17400000073,
      "d": 70.81823437500861,
      "v": 108
    },
    {
      "midi": 80,
      "hit": false,
      "t": 164460.17400000073,
      "d": 70.81823437500861,
      "v": 108
    },
    {
      "midi": 40,
      "hit": false,
      "t": 164460.17400000093,
      "d": 431.65400000000955,
      "v": 76
    },
    {
      "midi": 64,
      "hit": false,
      "t": 164746.81923437573,
      "d": 72.50438281250536,
      "v": 85
    },
    {
      "midi": 71,
      "hit": false,
      "t": 164746.81923437573,
      "d": 72.50438281250536,
      "v": 85
    },
    {
      "midi": 76,
      "hit": false,
      "t": 164746.81923437573,
      "d": 72.50438281250536,
      "v": 85
    },
    {
      "midi": 64,
      "hit": false,
      "t": 164891.82800000074,
      "d": 215.82699999999022,
      "v": 96
    },
    {
      "midi": 71,
      "hit": false,
      "t": 164891.82800000074,
      "d": 215.82699999999022,
      "v": 96
    },
    {
      "midi": 76,
      "hit": false,
      "t": 164891.82800000074,
      "d": 215.82699999999022,
      "v": 96
    },
    {
      "midi": 40,
      "hit": false,
      "t": 164891.82800000094,
      "d": 431.65400000000955,
      "v": 81
    },
    {
      "midi": 59,
      "hit": false,
      "t": 165323.48200000072,
      "d": 143.32261718751397,
      "v": 72
    },
    {
      "midi": 64,
      "hit": false,
      "t": 165323.48200000072,
      "d": 143.32261718751397,
      "v": 72
    },
    {
      "midi": 40,
      "hit": false,
      "t": 165323.48200000095,
      "d": 431.65400000000955,
      "v": 71
    },
    {
      "midi": 64,
      "hit": false,
      "t": 165466.80461718823,
      "d": 143.32261718751397,
      "v": 107
    },
    {
      "midi": 68,
      "hit": false,
      "t": 165466.80461718823,
      "d": 143.32261718751397,
      "v": 107
    },
    {
      "midi": 64,
      "hit": false,
      "t": 165610.12723437574,
      "d": 145.0087656250107,
      "v": 112
    },
    {
      "midi": 71,
      "hit": false,
      "t": 165610.12723437574,
      "d": 145.0087656250107,
      "v": 112
    },
    {
      "midi": 67,
      "hit": false,
      "t": 165755.13600000076,
      "d": 863.30799999999,
      "v": 108
    },
    {
      "midi": 70,
      "hit": false,
      "t": 165755.13600000076,
      "d": 863.30799999999,
      "v": 108
    },
    {
      "midi": 75,
      "hit": false,
      "t": 165755.13600000076,
      "d": 863.30799999999,
      "v": 108
    },
    {
      "midi": 39,
      "hit": false,
      "t": 165755.13600000096,
      "d": 431.65400000000955,
      "v": 75
    },
    {
      "midi": 39,
      "hit": false,
      "t": 166186.79000000097,
      "d": 286.64523437499884,
      "v": 77
    },
    {
      "midi": 37,
      "hit": false,
      "t": 166473.43523437597,
      "d": 145.0087656250107,
      "v": 77
    },
    {
      "midi": 67,
      "hit": false,
      "t": 166618.44400000075,
      "d": 863.30799999999,
      "v": 95
    },
    {
      "midi": 70,
      "hit": false,
      "t": 166618.44400000075,
      "d": 863.30799999999,
      "v": 95
    },
    {
      "midi": 73,
      "hit": false,
      "t": 166618.44400000075,
      "d": 863.30799999999,
      "v": 95
    },
    {
      "midi": 39,
      "hit": false,
      "t": 166618.44400000098,
      "d": 431.65400000000955,
      "v": 74
    },
    {
      "midi": 39,
      "hit": false,
      "t": 167050.098000001,
      "d": 431.65400000000955,
      "v": 77
    },
    {
      "midi": 68,
      "hit": false,
      "t": 167481.75200000074,
      "d": 143.32261718751397,
      "v": 93
    },
    {
      "midi": 71,
      "hit": false,
      "t": 167481.75200000074,
      "d": 143.32261718751397,
      "v": 93
    },
    {
      "midi": 40,
      "hit": false,
      "t": 167481.752000001,
      "d": 431.65400000000955,
      "v": 78
    },
    {
      "midi": 68,
      "hit": false,
      "t": 167625.07461718825,
      "d": 143.32261718751397,
      "v": 103
    },
    {
      "midi": 71,
      "hit": false,
      "t": 167625.07461718825,
      "d": 143.32261718751397,
      "v": 103
    },
    {
      "midi": 68,
      "hit": false,
      "t": 167768.39723437576,
      "d": 145.0087656250107,
      "v": 95
    },
    {
      "midi": 71,
      "hit": false,
      "t": 167768.39723437576,
      "d": 145.0087656250107,
      "v": 95
    },
    {
      "midi": 71,
      "hit": false,
      "t": 167913.40600000077,
      "d": 70.81823437500861,
      "v": 109
    },
    {
      "midi": 76,
      "hit": false,
      "t": 167913.40600000077,
      "d": 70.81823437500861,
      "v": 109
    },
    {
      "midi": 40,
      "hit": false,
      "t": 167913.406000001,
      "d": 431.65400000000955,
      "v": 75
    },
    {
      "midi": 68,
      "hit": false,
      "t": 168200.05123437577,
      "d": 72.50438281250536,
      "v": 86
    },
    {
      "midi": 71,
      "hit": false,
      "t": 168200.05123437577,
      "d": 72.50438281250536,
      "v": 86
    },
    {
      "midi": 68,
      "hit": false,
      "t": 168345.06000000078,
      "d": 215.82699999999022,
      "v": 93
    },
    {
      "midi": 71,
      "hit": false,
      "t": 168345.06000000078,
      "d": 215.82699999999022,
      "v": 93
    },
    {
      "midi": 40,
      "hit": false,
      "t": 168345.06000000102,
      "d": 431.65400000000955,
      "v": 82
    },
    {
      "midi": 68,
      "hit": false,
      "t": 168776.71400000076,
      "d": 143.32261718751397,
      "v": 99
    },
    {
      "midi": 71,
      "hit": false,
      "t": 168776.71400000076,
      "d": 143.32261718751397,
      "v": 99
    },
    {
      "midi": 40,
      "hit": false,
      "t": 168776.71400000103,
      "d": 431.65400000000955,
      "v": 75
    },
    {
      "midi": 71,
      "hit": false,
      "t": 168920.03661718828,
      "d": 143.32261718751397,
      "v": 109
    },
    {
      "midi": 76,
      "hit": false,
      "t": 168920.03661718828,
      "d": 143.32261718751397,
      "v": 109
    },
    {
      "midi": 68,
      "hit": false,
      "t": 169063.3592343758,
      "d": 145.0087656250107,
      "v": 88
    },
    {
      "midi": 71,
      "hit": false,
      "t": 169063.3592343758,
      "d": 145.0087656250107,
      "v": 88
    },
    {
      "midi": 74,
      "hit": false,
      "t": 169208.3680000008,
      "d": 863.3080000000482,
      "v": 113
    },
    {
      "midi": 78,
      "hit": false,
      "t": 169208.3680000008,
      "d": 863.3080000000482,
      "v": 113
    },
    {
      "midi": 38,
      "hit": false,
      "t": 169208.36800000104,
      "d": 431.65400000000955,
      "v": 74
    },
    {
      "midi": 62,
      "hit": false,
      "t": 169640.0220000008,
      "d": 143.32261718751397,
      "v": 65
    },
    {
      "midi": 38,
      "hit": false,
      "t": 169640.02200000104,
      "d": 286.64523437499884,
      "v": 75
    },
    {
      "midi": 66,
      "hit": false,
      "t": 169783.34461718833,
      "d": 143.32261718751397,
      "v": 76
    },
    {
      "midi": 69,
      "hit": false,
      "t": 169926.66723437584,
      "d": 145.0087656250107,
      "v": 78
    },
    {
      "midi": 38,
      "hit": false,
      "t": 169926.66723437604,
      "d": 145.0087656250107,
      "v": 75
    },
    {
      "midi": 73,
      "hit": false,
      "t": 170071.67600000085,
      "d": 143.32261718751397,
      "v": 80
    },
    {
      "midi": 76,
      "hit": false,
      "t": 170071.67600000085,
      "d": 863.3080000000773,
      "v": 109
    },
    {
      "midi": 81,
      "hit": false,
      "t": 170071.67600000085,
      "d": 863.3080000000773,
      "v": 109
    },
    {
      "midi": 45,
      "hit": false,
      "t": 170071.67600000105,
      "d": 431.65400000000955,
      "v": 85
    },
    {
      "midi": 69,
      "hit": false,
      "t": 170214.99861718836,
      "d": 143.32261718751397,
      "v": 65
    },
    {
      "midi": 64,
      "hit": false,
      "t": 170358.32123437588,
      "d": 145.0087656250107,
      "v": 59
    },
    {
      "midi": 61,
      "hit": false,
      "t": 170503.3300000009,
      "d": 143.32261718751397,
      "v": 62
    },
    {
      "midi": 45,
      "hit": false,
      "t": 170503.33000000106,
      "d": 431.65400000000955,
      "v": 77
    },
    {
      "midi": 64,
      "hit": false,
      "t": 170646.6526171884,
      "d": 143.32261718751397,
      "v": 83
    },
    {
      "midi": 69,
      "hit": false,
      "t": 170789.97523437592,
      "d": 145.0087656250107,
      "v": 82
    },
    {
      "midi": 64,
      "hit": false,
      "t": 170934.98400000093,
      "d": 143.32261718751397,
      "v": 89
    },
    {
      "midi": 71,
      "hit": false,
      "t": 170934.98400000093,
      "d": 143.32261718751397,
      "v": 89
    },
    {
      "midi": 76,
      "hit": false,
      "t": 170934.98400000093,
      "d": 143.32261718751397,
      "v": 89
    },
    {
      "midi": 40,
      "hit": false,
      "t": 170934.98400000107,
      "d": 431.65400000000955,
      "v": 74
    },
    {
      "midi": 64,
      "hit": false,
      "t": 171078.30661718844,
      "d": 143.32261718751397,
      "v": 99
    },
    {
      "midi": 71,
      "hit": false,
      "t": 171078.30661718844,
      "d": 143.32261718751397,
      "v": 99
    },
    {
      "midi": 76,
      "hit": false,
      "t": 171078.30661718844,
      "d": 143.32261718751397,
      "v": 99
    },
    {
      "midi": 64,
      "hit": false,
      "t": 171221.62923437596,
      "d": 145.0087656250107,
      "v": 102
    },
    {
      "midi": 71,
      "hit": false,
      "t": 171221.62923437596,
      "d": 145.0087656250107,
      "v": 102
    },
    {
      "midi": 76,
      "hit": false,
      "t": 171221.62923437596,
      "d": 145.0087656250107,
      "v": 102
    },
    {
      "midi": 68,
      "hit": false,
      "t": 171366.63800000097,
      "d": 70.81823437500861,
      "v": 106
    },
    {
      "midi": 76,
      "hit": false,
      "t": 171366.63800000097,
      "d": 70.81823437500861,
      "v": 106
    },
    {
      "midi": 80,
      "hit": false,
      "t": 171366.63800000097,
      "d": 70.81823437500861,
      "v": 106
    },
    {
      "midi": 40,
      "hit": false,
      "t": 171366.63800000108,
      "d": 431.65400000000955,
      "v": 79
    },
    {
      "midi": 64,
      "hit": false,
      "t": 171653.28323437597,
      "d": 72.50438281250536,
      "v": 88
    },
    {
      "midi": 71,
      "hit": false,
      "t": 171653.28323437597,
      "d": 72.50438281250536,
      "v": 88
    },
    {
      "midi": 76,
      "hit": false,
      "t": 171653.28323437597,
      "d": 72.50438281250536,
      "v": 88
    },
    {
      "midi": 64,
      "hit": false,
      "t": 171798.29200000098,
      "d": 215.82699999999022,
      "v": 92
    },
    {
      "midi": 71,
      "hit": false,
      "t": 171798.29200000098,
      "d": 215.82699999999022,
      "v": 92
    },
    {
      "midi": 76,
      "hit": false,
      "t": 171798.29200000098,
      "d": 215.82699999999022,
      "v": 92
    },
    {
      "midi": 40,
      "hit": false,
      "t": 171798.2920000011,
      "d": 431.65400000000955,
      "v": 74
    },
    {
      "midi": 59,
      "hit": false,
      "t": 172229.94600000096,
      "d": 143.32261718751397,
      "v": 73
    },
    {
      "midi": 64,
      "hit": false,
      "t": 172229.94600000096,
      "d": 143.32261718751397,
      "v": 73
    },
    {
      "midi": 40,
      "hit": false,
      "t": 172229.9460000011,
      "d": 431.65400000000955,
      "v": 76
    },
    {
      "midi": 64,
      "hit": false,
      "t": 172373.26861718847,
      "d": 143.32261718751397,
      "v": 105
    },
    {
      "midi": 68,
      "hit": false,
      "t": 172373.26861718847,
      "d": 143.32261718751397,
      "v": 105
    },
    {
      "midi": 64,
      "hit": false,
      "t": 172516.59123437598,
      "d": 145.0087656250107,
      "v": 102
    },
    {
      "midi": 71,
      "hit": false,
      "t": 172516.59123437598,
      "d": 145.0087656250107,
      "v": 102
    },
    {
      "midi": 67,
      "hit": false,
      "t": 172661.600000001,
      "d": 863.30799999999,
      "v": 108
    },
    {
      "midi": 70,
      "hit": false,
      "t": 172661.600000001,
      "d": 863.30799999999,
      "v": 108
    },
    {
      "midi": 75,
      "hit": false,
      "t": 172661.600000001,
      "d": 863.30799999999,
      "v": 108
    },
    {
      "midi": 39,
      "hit": false,
      "t": 172661.6000000011,
      "d": 431.65400000000955,
      "v": 74
    },
    {
      "midi": 39,
      "hit": false,
      "t": 173093.25400000112,
      "d": 286.64523437499884,
      "v": 79
    },
    {
      "midi": 37,
      "hit": false,
      "t": 173379.89923437612,
      "d": 145.0087656250107,
      "v": 76
    },
    {
      "midi": 67,
      "hit": false,
      "t": 173524.90800000099,
      "d": 863.30799999999,
      "v": 94
    },
    {
      "midi": 70,
      "hit": false,
      "t": 173524.90800000099,
      "d": 863.30799999999,
      "v": 94
    },
    {
      "midi": 73,
      "hit": false,
      "t": 173524.90800000099,
      "d": 863.30799999999,
      "v": 94
    },
    {
      "midi": 39,
      "hit": false,
      "t": 173524.90800000113,
      "d": 431.65400000000955,
      "v": 80
    },
    {
      "midi": 39,
      "hit": false,
      "t": 173956.56200000114,
      "d": 431.65400000000955,
      "v": 79
    },
    {
      "midi": 68,
      "hit": false,
      "t": 174388.21600000098,
      "d": 143.32261718751397,
      "v": 89
    },
    {
      "midi": 71,
      "hit": false,
      "t": 174388.21600000098,
      "d": 143.32261718751397,
      "v": 89
    },
    {
      "midi": 40,
      "hit": false,
      "t": 174388.21600000115,
      "d": 431.65400000000955,
      "v": 77
    },
    {
      "midi": 68,
      "hit": false,
      "t": 174531.5386171885,
      "d": 143.32261718751397,
      "v": 96
    },
    {
      "midi": 71,
      "hit": false,
      "t": 174531.5386171885,
      "d": 143.32261718751397,
      "v": 96
    },
    {
      "midi": 68,
      "hit": false,
      "t": 174674.861234376,
      "d": 145.0087656250107,
      "v": 94
    },
    {
      "midi": 71,
      "hit": false,
      "t": 174674.861234376,
      "d": 145.0087656250107,
      "v": 94
    },
    {
      "midi": 71,
      "hit": false,
      "t": 174819.870000001,
      "d": 70.81823437500861,
      "v": 112
    },
    {
      "midi": 76,
      "hit": false,
      "t": 174819.870000001,
      "d": 70.81823437500861,
      "v": 112
    },
    {
      "midi": 40,
      "hit": false,
      "t": 174819.87000000116,
      "d": 431.65400000000955,
      "v": 77
    },
    {
      "midi": 68,
      "hit": false,
      "t": 175106.515234376,
      "d": 72.50438281250536,
      "v": 84
    },
    {
      "midi": 71,
      "hit": false,
      "t": 175106.515234376,
      "d": 72.50438281250536,
      "v": 84
    },
    {
      "midi": 68,
      "hit": false,
      "t": 175251.52400000102,
      "d": 215.82699999999022,
      "v": 97
    },
    {
      "midi": 71,
      "hit": false,
      "t": 175251.52400000102,
      "d": 215.82699999999022,
      "v": 97
    },
    {
      "midi": 40,
      "hit": false,
      "t": 175251.52400000117,
      "d": 431.65400000000955,
      "v": 77
    },
    {
      "midi": 68,
      "hit": false,
      "t": 175683.178000001,
      "d": 143.32261718751397,
      "v": 99
    },
    {
      "midi": 71,
      "hit": false,
      "t": 175683.178000001,
      "d": 143.32261718751397,
      "v": 99
    },
    {
      "midi": 40,
      "hit": false,
      "t": 175683.17800000118,
      "d": 431.65400000000955,
      "v": 76
    },
    {
      "midi": 71,
      "hit": false,
      "t": 175826.50061718852,
      "d": 143.32261718751397,
      "v": 112
    },
    {
      "midi": 76,
      "hit": false,
      "t": 175826.50061718852,
      "d": 143.32261718751397,
      "v": 112
    },
    {
      "midi": 68,
      "hit": false,
      "t": 175969.82323437603,
      "d": 145.0087656250107,
      "v": 89
    },
    {
      "midi": 71,
      "hit": false,
      "t": 175969.82323437603,
      "d": 145.0087656250107,
      "v": 89
    },
    {
      "midi": 74,
      "hit": false,
      "t": 176114.83200000104,
      "d": 863.3080000000482,
      "v": 114
    },
    {
      "midi": 78,
      "hit": false,
      "t": 176114.83200000104,
      "d": 863.3080000000482,
      "v": 114
    },
    {
      "midi": 38,
      "hit": false,
      "t": 176114.8320000012,
      "d": 431.65400000000955,
      "v": 71
    },
    {
      "midi": 62,
      "hit": false,
      "t": 176546.48600000105,
      "d": 143.32261718751397,
      "v": 62
    },
    {
      "midi": 38,
      "hit": false,
      "t": 176546.4860000012,
      "d": 431.65400000000955,
      "v": 78
    },
    {
      "midi": 66,
      "hit": false,
      "t": 176689.80861718857,
      "d": 143.32261718751397,
      "v": 77
    },
    {
      "midi": 69,
      "hit": false,
      "t": 176833.13123437608,
      "d": 145.0087656250107,
      "v": 82
    },
    {
      "midi": 73,
      "hit": false,
      "t": 176978.1400000011,
      "d": 143.32261718751397,
      "v": 83
    },
    {
      "midi": 76,
      "hit": false,
      "t": 176978.1400000011,
      "d": 863.3080000000773,
      "v": 112
    },
    {
      "midi": 81,
      "hit": false,
      "t": 176978.1400000011,
      "d": 863.3080000000773,
      "v": 112
    },
    {
      "midi": 45,
      "hit": false,
      "t": 176978.1400000012,
      "d": 431.65400000000955,
      "v": 81
    },
    {
      "midi": 69,
      "hit": false,
      "t": 177121.4626171886,
      "d": 143.32261718751397,
      "v": 67
    },
    {
      "midi": 64,
      "hit": false,
      "t": 177264.78523437612,
      "d": 145.0087656250107,
      "v": 59
    },
    {
      "midi": 61,
      "hit": false,
      "t": 177409.79400000113,
      "d": 143.32261718751397,
      "v": 67
    },
    {
      "midi": 45,
      "hit": false,
      "t": 177409.79400000122,
      "d": 431.65400000000955,
      "v": 75
    },
    {
      "midi": 64,
      "hit": false,
      "t": 177553.11661718864,
      "d": 143.32261718751397,
      "v": 76
    },
    {
      "midi": 69,
      "hit": false,
      "t": 177696.43923437616,
      "d": 145.0087656250107,
      "v": 80
    },
    {
      "midi": 64,
      "hit": false,
      "t": 177841.44800000117,
      "d": 143.32261718751397,
      "v": 89
    },
    {
      "midi": 71,
      "hit": false,
      "t": 177841.44800000117,
      "d": 143.32261718751397,
      "v": 89
    },
    {
      "midi": 76,
      "hit": false,
      "t": 177841.44800000117,
      "d": 143.32261718751397,
      "v": 89
    },
    {
      "midi": 40,
      "hit": false,
      "t": 177841.44800000123,
      "d": 143.32261718751397,
      "v": 72
    },
    {
      "midi": 64,
      "hit": false,
      "t": 178128.0932343762,
      "d": 145.0087656250107,
      "v": 87
    },
    {
      "midi": 76,
      "hit": false,
      "t": 178128.0932343762,
      "d": 145.0087656250107,
      "v": 87
    },
    {
      "midi": 40,
      "hit": false,
      "t": 178128.09323437625,
      "d": 145.0087656250107,
      "v": 70
    },
    {
      "midi": 66,
      "hit": false,
      "t": 178273.1020000012,
      "d": 431.65400000000955,
      "v": 108
    },
    {
      "midi": 71,
      "hit": false,
      "t": 178273.1020000012,
      "d": 431.65400000000955,
      "v": 108
    },
    {
      "midi": 78,
      "hit": false,
      "t": 178273.1020000012,
      "d": 431.65400000000955,
      "v": 108
    },
    {
      "midi": 39,
      "hit": false,
      "t": 178273.10200000126,
      "d": 431.65400000000955,
      "v": 73
    },
    {
      "midi": 68,
      "hit": false,
      "t": 178704.75600000122,
      "d": 431.65400000000955,
      "v": 100
    },
    {
      "midi": 71,
      "hit": false,
      "t": 178704.75600000122,
      "d": 431.65400000000955,
      "v": 100
    },
    {
      "midi": 80,
      "hit": false,
      "t": 178704.75600000122,
      "d": 431.65400000000955,
      "v": 100
    },
    {
      "midi": 38,
      "hit": false,
      "t": 178704.75600000127,
      "d": 431.65400000000955,
      "v": 72
    },
    {
      "midi": 69,
      "hit": false,
      "t": 179136.41000000123,
      "d": 431.65400000000955,
      "v": 108
    },
    {
      "midi": 71,
      "hit": false,
      "t": 179136.41000000123,
      "d": 431.65400000000955,
      "v": 108
    },
    {
      "midi": 81,
      "hit": false,
      "t": 179136.41000000123,
      "d": 431.65400000000955,
      "v": 108
    },
    {
      "midi": 37,
      "hit": false,
      "t": 179136.41000000128,
      "d": 431.65400000000955,
      "v": 71
    },
    {
      "midi": 36,
      "hit": false,
      "t": 179568.0640000013,
      "d": 431.65400000000955,
      "v": 75
    },
    {
      "midi": 67,
      "hit": false,
      "t": 179999.71800000124,
      "d": 286.64523437499884,
      "v": 67
    },
    {
      "midi": 36,
      "hit": false,
      "t": 179999.7180000013,
      "d": 431.65400000000955,
      "v": 77
    },
    {
      "midi": 76,
      "hit": false,
      "t": 180286.36323437624,
      "d": 145.0087656250107,
      "v": 86
    },
    {
      "midi": 78,
      "hit": false,
      "t": 180431.37200000125,
      "d": 143.32261718751397,
      "v": 74
    },
    {
      "midi": 36,
      "hit": false,
      "t": 180431.3720000013,
      "d": 431.65400000000955,
      "v": 79
    },
    {
      "midi": 74,
      "hit": false,
      "t": 180574.69461718877,
      "d": 143.32261718751397,
      "v": 66
    },
    {
      "midi": 78,
      "hit": false,
      "t": 180718.01723437628,
      "d": 145.0087656250107,
      "v": 76
    },
    {
      "midi": 71,
      "hit": false,
      "t": 180863.0260000013,
      "d": 143.32261718751397,
      "v": 84
    },
    {
      "midi": 76,
      "hit": false,
      "t": 180863.0260000013,
      "d": 143.32261718751397,
      "v": 84
    },
    {
      "midi": 83,
      "hit": false,
      "t": 180863.0260000013,
      "d": 143.32261718751397,
      "v": 84
    },
    {
      "midi": 36,
      "hit": false,
      "t": 180863.02600000132,
      "d": 431.65400000000955,
      "v": 81
    },
    {
      "midi": 80,
      "hit": false,
      "t": 181006.3486171888,
      "d": 143.32261718751397,
      "v": 63
    },
    {
      "midi": 71,
      "hit": false,
      "t": 181149.67123437632,
      "d": 145.0087656250107,
      "v": 74
    },
    {
      "midi": 76,
      "hit": false,
      "t": 181149.67123437632,
      "d": 145.0087656250107,
      "v": 74
    },
    {
      "midi": 83,
      "hit": false,
      "t": 181149.67123437632,
      "d": 145.0087656250107,
      "v": 74
    },
    {
      "midi": 68,
      "hit": false,
      "t": 181294.68000000133,
      "d": 143.32261718751397,
      "v": 87
    },
    {
      "midi": 80,
      "hit": false,
      "t": 181294.68000000133,
      "d": 143.32261718751397,
      "v": 87
    },
    {
      "midi": 40,
      "hit": false,
      "t": 181294.68000000133,
      "d": 431.65400000000955,
      "v": 84
    },
    {
      "midi": 69,
      "hit": false,
      "t": 181581.32523437636,
      "d": 145.0087656250107,
      "v": 89
    },
    {
      "midi": 81,
      "hit": false,
      "t": 181581.32523437636,
      "d": 145.0087656250107,
      "v": 89
    },
    {
      "midi": 40,
      "hit": false,
      "t": 181726.33400000134,
      "d": 431.65400000000955,
      "v": 70
    },
    {
      "midi": 71,
      "hit": false,
      "t": 181726.33400000137,
      "d": 143.32261718751397,
      "v": 104
    },
    {
      "midi": 83,
      "hit": false,
      "t": 181726.33400000137,
      "d": 143.32261718751397,
      "v": 104
    },
    {
      "midi": 69,
      "hit": false,
      "t": 182012.9792343764,
      "d": 145.0087656250107,
      "v": 85
    },
    {
      "midi": 81,
      "hit": false,
      "t": 182012.9792343764,
      "d": 145.0087656250107,
      "v": 85
    },
    {
      "midi": 40,
      "hit": false,
      "t": 182157.98800000135,
      "d": 431.65400000000955,
      "v": 77
    },
    {
      "midi": 68,
      "hit": false,
      "t": 182157.9880000014,
      "d": 863.30799999999,
      "v": 88
    },
    {
      "midi": 80,
      "hit": false,
      "t": 182157.9880000014,
      "d": 863.30799999999,
      "v": 88
    },
    {
      "midi": 40,
      "hit": false,
      "t": 182589.64200000136,
      "d": 431.65400000000955,
      "v": 80
    },
    {
      "midi": 40,
      "hit": false,
      "t": 183021.29600000137,
      "d": 143.32261718751397,
      "v": 78
    },
    {
      "midi": 64,
      "hit": false,
      "t": 183021.2960000014,
      "d": 143.32261718751397,
      "v": 86
    },
    {
      "midi": 71,
      "hit": false,
      "t": 183021.2960000014,
      "d": 143.32261718751397,
      "v": 86
    },
    {
      "midi": 76,
      "hit": false,
      "t": 183021.2960000014,
      "d": 143.32261718751397,
      "v": 86
    },
    {
      "midi": 40,
      "hit": false,
      "t": 183307.9412343764,
      "d": 145.0087656250107,
      "v": 64
    },
    {
      "midi": 64,
      "hit": false,
      "t": 183307.94123437643,
      "d": 145.0087656250107,
      "v": 88
    },
    {
      "midi": 76,
      "hit": false,
      "t": 183307.94123437643,
      "d": 145.0087656250107,
      "v": 88
    },
    {
      "midi": 39,
      "hit": false,
      "t": 183452.9500000014,
      "d": 431.65400000000955,
      "v": 71
    },
    {
      "midi": 66,
      "hit": false,
      "t": 183452.95000000144,
      "d": 431.65400000000955,
      "v": 99
    },
    {
      "midi": 71,
      "hit": false,
      "t": 183452.95000000144,
      "d": 431.65400000000955,
      "v": 99
    },
    {
      "midi": 78,
      "hit": false,
      "t": 183452.95000000144,
      "d": 431.65400000000955,
      "v": 99
    },
    {
      "midi": 38,
      "hit": false,
      "t": 183884.60400000142,
      "d": 431.65400000000955,
      "v": 74
    },
    {
      "midi": 68,
      "hit": false,
      "t": 183884.60400000145,
      "d": 431.65400000000955,
      "v": 105
    },
    {
      "midi": 71,
      "hit": false,
      "t": 183884.60400000145,
      "d": 431.65400000000955,
      "v": 105
    },
    {
      "midi": 80,
      "hit": false,
      "t": 183884.60400000145,
      "d": 431.65400000000955,
      "v": 105
    },
    {
      "midi": 37,
      "hit": false,
      "t": 184316.25800000143,
      "d": 431.65400000000955,
      "v": 73
    },
    {
      "midi": 69,
      "hit": false,
      "t": 184316.25800000146,
      "d": 431.65400000000955,
      "v": 107
    },
    {
      "midi": 71,
      "hit": false,
      "t": 184316.25800000146,
      "d": 431.65400000000955,
      "v": 107
    },
    {
      "midi": 81,
      "hit": false,
      "t": 184316.25800000146,
      "d": 431.65400000000955,
      "v": 107
    },
    {
      "midi": 36,
      "hit": false,
      "t": 184747.91200000144,
      "d": 431.65400000000955,
      "v": 75
    },
    {
      "midi": 36,
      "hit": false,
      "t": 185179.56600000145,
      "d": 431.65400000000955,
      "v": 77
    },
    {
      "midi": 67,
      "hit": false,
      "t": 185179.56600000148,
      "d": 286.64523437499884,
      "v": 66
    },
    {
      "midi": 76,
      "hit": false,
      "t": 185466.21123437647,
      "d": 145.0087656250107,
      "v": 82
    },
    {
      "midi": 36,
      "hit": false,
      "t": 185611.22000000146,
      "d": 431.65400000000955,
      "v": 77
    },
    {
      "midi": 78,
      "hit": false,
      "t": 185611.2200000015,
      "d": 143.32261718751397,
      "v": 80
    },
    {
      "midi": 74,
      "hit": false,
      "t": 185754.542617189,
      "d": 143.32261718751397,
      "v": 66
    },
    {
      "midi": 78,
      "hit": false,
      "t": 185897.8652343765,
      "d": 145.0087656250107,
      "v": 79
    },
    {
      "midi": 36,
      "hit": false,
      "t": 186042.87400000147,
      "d": 431.65400000000955,
      "v": 72
    },
    {
      "midi": 71,
      "hit": false,
      "t": 186042.87400000152,
      "d": 143.32261718751397,
      "v": 77
    },
    {
      "midi": 76,
      "hit": false,
      "t": 186042.87400000152,
      "d": 143.32261718751397,
      "v": 77
    },
    {
      "midi": 83,
      "hit": false,
      "t": 186042.87400000152,
      "d": 143.32261718751397,
      "v": 77
    },
    {
      "midi": 80,
      "hit": false,
      "t": 186186.19661718904,
      "d": 143.32261718751397,
      "v": 63
    },
    {
      "midi": 71,
      "hit": false,
      "t": 186329.51923437655,
      "d": 145.0087656250107,
      "v": 77
    },
    {
      "midi": 76,
      "hit": false,
      "t": 186329.51923437655,
      "d": 145.0087656250107,
      "v": 77
    },
    {
      "midi": 83,
      "hit": false,
      "t": 186329.51923437655,
      "d": 145.0087656250107,
      "v": 77
    },
    {
      "midi": 40,
      "hit": false,
      "t": 186474.52800000148,
      "d": 431.65400000000955,
      "v": 81
    },
    {
      "midi": 68,
      "hit": false,
      "t": 186474.52800000156,
      "d": 143.32261718751397,
      "v": 91
    },
    {
      "midi": 80,
      "hit": false,
      "t": 186474.52800000156,
      "d": 143.32261718751397,
      "v": 91
    },
    {
      "midi": 69,
      "hit": false,
      "t": 186761.1732343766,
      "d": 145.0087656250107,
      "v": 88
    },
    {
      "midi": 81,
      "hit": false,
      "t": 186761.1732343766,
      "d": 145.0087656250107,
      "v": 88
    },
    {
      "midi": 40,
      "hit": false,
      "t": 186906.18200000148,
      "d": 431.65400000000955,
      "v": 76
    },
    {
      "midi": 71,
      "hit": false,
      "t": 186906.1820000016,
      "d": 143.32261718751397,
      "v": 106
    },
    {
      "midi": 83,
      "hit": false,
      "t": 186906.1820000016,
      "d": 143.32261718751397,
      "v": 106
    },
    {
      "midi": 69,
      "hit": false,
      "t": 187192.82723437663,
      "d": 145.0087656250107,
      "v": 86
    },
    {
      "midi": 81,
      "hit": false,
      "t": 187192.82723437663,
      "d": 145.0087656250107,
      "v": 86
    },
    {
      "midi": 40,
      "hit": false,
      "t": 187337.8360000015,
      "d": 431.65400000000955,
      "v": 74
    },
    {
      "midi": 68,
      "hit": false,
      "t": 187337.83600000164,
      "d": 431.65400000000955,
      "v": 94
    },
    {
      "midi": 80,
      "hit": false,
      "t": 187337.83600000164,
      "d": 431.65400000000955,
      "v": 94
    },
    {
      "midi": 40,
      "hit": false,
      "t": 187769.4900000015,
      "d": 431.65400000000955,
      "v": 77
    },
    {
      "midi": 76,
      "hit": false,
      "t": 187769.49000000165,
      "d": 143.32261718751397,
      "v": 87
    },
    {
      "midi": 80,
      "hit": false,
      "t": 187912.81261718916,
      "d": 143.32261718751397,
      "v": 111
    },
    {
      "midi": 81,
      "hit": false,
      "t": 188056.13523437668,
      "d": 145.0087656250107,
      "v": 104
    },
    {
      "midi": 38,
      "hit": false,
      "t": 188201.1440000015,
      "d": 431.65400000000955,
      "v": 76
    },
    {
      "midi": 78,
      "hit": false,
      "t": 188201.1440000017,
      "d": 863.30799999999,
      "v": 104
    },
    {
      "midi": 83,
      "hit": false,
      "t": 188201.1440000017,
      "d": 863.30799999999,
      "v": 104
    },
    {
      "midi": 38,
      "hit": false,
      "t": 188632.79800000152,
      "d": 286.64523437499884,
      "v": 78
    },
    {
      "midi": 38,
      "hit": false,
      "t": 188919.44323437652,
      "d": 145.0087656250107,
      "v": 79
    },
    {
      "midi": 38,
      "hit": false,
      "t": 189064.45200000153,
      "d": 431.65400000000955,
      "v": 79
    },
    {
      "midi": 80,
      "hit": false,
      "t": 189064.45200000168,
      "d": 431.65400000000955,
      "v": 88
    },
    {
      "midi": 38,
      "hit": false,
      "t": 189496.10600000154,
      "d": 431.65400000000955,
      "v": 73
    },
    {
      "midi": 78,
      "hit": false,
      "t": 189496.1060000017,
      "d": 143.32261718751397,
      "v": 96
    },
    {
      "midi": 81,
      "hit": false,
      "t": 189496.1060000017,
      "d": 143.32261718751397,
      "v": 96
    },
    {
      "midi": 76,
      "hit": false,
      "t": 189782.75123437672,
      "d": 145.0087656250107,
      "v": 90
    },
    {
      "midi": 80,
      "hit": false,
      "t": 189782.75123437672,
      "d": 145.0087656250107,
      "v": 90
    },
    {
      "midi": 37,
      "hit": false,
      "t": 189927.76000000155,
      "d": 431.65400000000955,
      "v": 80
    },
    {
      "midi": 73,
      "hit": false,
      "t": 189927.76000000173,
      "d": 863.30799999999,
      "v": 106
    },
    {
      "midi": 76,
      "hit": false,
      "t": 189927.76000000173,
      "d": 863.30799999999,
      "v": 106
    },
    {
      "midi": 81,
      "hit": false,
      "t": 189927.76000000173,
      "d": 863.30799999999,
      "v": 106
    },
    {
      "midi": 37,
      "hit": false,
      "t": 190359.41400000156,
      "d": 286.64523437499884,
      "v": 76
    },
    {
      "midi": 37,
      "hit": false,
      "t": 190646.05923437656,
      "d": 145.0087656250107,
      "v": 73
    },
    {
      "midi": 37,
      "hit": false,
      "t": 190791.06800000157,
      "d": 431.65400000000955,
      "v": 78
    },
    {
      "midi": 69,
      "hit": false,
      "t": 190791.06800000172,
      "d": 431.65400000000955,
      "v": 89
    },
    {
      "midi": 76,
      "hit": false,
      "t": 190791.06800000172,
      "d": 431.65400000000955,
      "v": 89
    },
    {
      "midi": 37,
      "hit": false,
      "t": 191222.72200000158,
      "d": 431.65400000000955,
      "v": 77
    },
    {
      "midi": 69,
      "hit": false,
      "t": 191222.72200000173,
      "d": 431.65400000000955,
      "v": 100
    },
    {
      "midi": 78,
      "hit": false,
      "t": 191222.72200000173,
      "d": 431.65400000000955,
      "v": 100
    },
    {
      "midi": 35,
      "hit": false,
      "t": 191654.3760000016,
      "d": 431.65400000000955,
      "v": 75
    },
    {
      "midi": 76,
      "hit": false,
      "t": 191654.37600000174,
      "d": 431.65400000000955,
      "v": 107
    },
    {
      "midi": 80,
      "hit": false,
      "t": 191654.37600000174,
      "d": 431.65400000000955,
      "v": 107
    },
    {
      "midi": 35,
      "hit": false,
      "t": 192086.0300000016,
      "d": 286.64523437499884,
      "v": 78
    },
    {
      "midi": 78,
      "hit": false,
      "t": 192086.03000000175,
      "d": 143.32261718751397,
      "v": 103
    },
    {
      "midi": 81,
      "hit": false,
      "t": 192086.03000000175,
      "d": 143.32261718751397,
      "v": 103
    },
    {
      "midi": 35,
      "hit": false,
      "t": 192372.6752343766,
      "d": 145.0087656250107,
      "v": 76
    },
    {
      "midi": 76,
      "hit": false,
      "t": 192372.67523437677,
      "d": 145.0087656250107,
      "v": 88
    },
    {
      "midi": 80,
      "hit": false,
      "t": 192372.67523437677,
      "d": 145.0087656250107,
      "v": 88
    },
    {
      "midi": 34,
      "hit": false,
      "t": 192517.6840000016,
      "d": 431.65400000000955,
      "v": 72
    },
    {
      "midi": 73,
      "hit": false,
      "t": 192517.68400000178,
      "d": 431.65400000000955,
      "v": 92
    },
    {
      "midi": 78,
      "hit": false,
      "t": 192517.68400000178,
      "d": 431.65400000000955,
      "v": 92
    },
    {
      "midi": 34,
      "hit": false,
      "t": 192949.33800000162,
      "d": 286.64523437499884,
      "v": 76
    },
    {
      "midi": 73,
      "hit": false,
      "t": 192949.3380000018,
      "d": 431.65400000000955,
      "v": 90
    },
    {
      "midi": 76,
      "hit": false,
      "t": 192949.3380000018,
      "d": 431.65400000000955,
      "v": 90
    },
    {
      "midi": 34,
      "hit": false,
      "t": 193235.98323437662,
      "d": 145.0087656250107,
      "v": 82
    },
    {
      "midi": 33,
      "hit": false,
      "t": 193380.99200000163,
      "d": 431.65400000000955,
      "v": 78
    },
    {
      "midi": 69,
      "hit": false,
      "t": 193380.9920000018,
      "d": 431.65400000000955,
      "v": 100
    },
    {
      "midi": 73,
      "hit": false,
      "t": 193380.9920000018,
      "d": 431.65400000000955,
      "v": 100
    },
    {
      "midi": 76,
      "hit": false,
      "t": 193380.9920000018,
      "d": 431.65400000000955,
      "v": 100
    },
    {
      "midi": 33,
      "hit": false,
      "t": 193812.64600000164,
      "d": 286.64523437499884,
      "v": 79
    },
    {
      "midi": 71,
      "hit": false,
      "t": 193812.6460000018,
      "d": 431.65400000000955,
      "v": 92
    },
    {
      "midi": 75,
      "hit": false,
      "t": 193812.6460000018,
      "d": 431.65400000000955,
      "v": 92
    },
    {
      "midi": 33,
      "hit": false,
      "t": 194099.29123437664,
      "d": 145.0087656250107,
      "v": 78
    },
    {
      "midi": 35,
      "hit": false,
      "t": 194244.30000000165,
      "d": 431.65400000000955,
      "v": 80
    },
    {
      "midi": 66,
      "hit": false,
      "t": 194244.30000000182,
      "d": 431.65400000000955,
      "v": 90
    },
    {
      "midi": 69,
      "hit": false,
      "t": 194244.30000000182,
      "d": 431.65400000000955,
      "v": 90
    },
    {
      "midi": 73,
      "hit": false,
      "t": 194244.30000000182,
      "d": 431.65400000000955,
      "v": 90
    },
    {
      "midi": 35,
      "hit": false,
      "t": 194675.95400000166,
      "d": 143.32261718751397,
      "v": 76
    },
    {
      "midi": 71,
      "hit": false,
      "t": 194675.95400000183,
      "d": 431.65400000000955,
      "v": 98
    },
    {
      "midi": 75,
      "hit": false,
      "t": 194675.95400000183,
      "d": 431.65400000000955,
      "v": 98
    },
    {
      "midi": 35,
      "hit": false,
      "t": 194819.27661718917,
      "d": 143.32261718751397,
      "v": 78
    },
    {
      "midi": 35,
      "hit": false,
      "t": 194962.59923437668,
      "d": 145.0087656250107,
      "v": 79
    },
    {
      "midi": 40,
      "hit": false,
      "t": 195107.6080000017,
      "d": 431.65400000000955,
      "v": 84
    },
    {
      "midi": 64,
      "hit": false,
      "t": 195107.60800000184,
      "d": 143.32261718751397,
      "v": 104
    },
    {
      "midi": 76,
      "hit": false,
      "t": 195107.60800000184,
      "d": 143.32261718751397,
      "v": 104
    },
    {
      "midi": 59,
      "hit": false,
      "t": 195250.93061718935,
      "d": 143.32261718751397,
      "v": 88
    },
    {
      "midi": 71,
      "hit": false,
      "t": 195250.93061718935,
      "d": 143.32261718751397,
      "v": 88
    },
    {
      "midi": 64,
      "hit": false,
      "t": 195394.25323437687,
      "d": 145.0087656250107,
      "v": 107
    },
    {
      "midi": 76,
      "hit": false,
      "t": 195394.25323437687,
      "d": 145.0087656250107,
      "v": 107
    },
    {
      "midi": 40,
      "hit": false,
      "t": 195539.2620000017,
      "d": 286.64523437499884,
      "v": 76
    },
    {
      "midi": 68,
      "hit": false,
      "t": 195539.26200000188,
      "d": 143.32261718751397,
      "v": 109
    },
    {
      "midi": 80,
      "hit": false,
      "t": 195539.26200000188,
      "d": 143.32261718751397,
      "v": 109
    },
    {
      "midi": 64,
      "hit": false,
      "t": 195682.5846171894,
      "d": 143.32261718751397,
      "v": 86
    },
    {
      "midi": 76,
      "hit": false,
      "t": 195682.5846171894,
      "d": 143.32261718751397,
      "v": 86
    },
    {
      "midi": 40,
      "hit": false,
      "t": 195825.9072343767,
      "d": 145.0087656250107,
      "v": 80
    },
    {
      "midi": 68,
      "hit": false,
      "t": 195825.9072343769,
      "d": 145.0087656250107,
      "v": 110
    },
    {
      "midi": 80,
      "hit": false,
      "t": 195825.9072343769,
      "d": 145.0087656250107,
      "v": 110
    },
    {
      "midi": 38,
      "hit": false,
      "t": 195970.91600000171,
      "d": 431.65400000000955,
      "v": 72
    },
    {
      "midi": 71,
      "hit": false,
      "t": 195970.91600000192,
      "d": 431.65400000000955,
      "v": 112
    },
    {
      "midi": 83,
      "hit": false,
      "t": 195970.91600000192,
      "d": 431.65400000000955,
      "v": 112
    },
    {
      "midi": 38,
      "hit": false,
      "t": 196402.57000000172,
      "d": 286.64523437499884,
      "v": 76
    },
    {
      "midi": 68,
      "hit": false,
      "t": 196402.57000000193,
      "d": 143.32261718751397,
      "v": 88
    },
    {
      "midi": 80,
      "hit": false,
      "t": 196402.57000000193,
      "d": 143.32261718751397,
      "v": 88
    },
    {
      "midi": 38,
      "hit": false,
      "t": 196689.21523437672,
      "d": 145.0087656250107,
      "v": 80
    },
    {
      "midi": 64,
      "hit": false,
      "t": 196689.21523437696,
      "d": 145.0087656250107,
      "v": 87
    },
    {
      "midi": 76,
      "hit": false,
      "t": 196689.21523437696,
      "d": 145.0087656250107,
      "v": 87
    },
    {
      "midi": 37,
      "hit": false,
      "t": 196834.22400000173,
      "d": 431.65400000000955,
      "v": 70
    },
    {
      "midi": 69,
      "hit": false,
      "t": 196834.22400000197,
      "d": 431.65400000000955,
      "v": 111
    },
    {
      "midi": 76,
      "hit": false,
      "t": 196834.22400000197,
      "d": 431.65400000000955,
      "v": 111
    },
    {
      "midi": 81,
      "hit": false,
      "t": 196834.22400000197,
      "d": 431.65400000000955,
      "v": 111
    },
    {
      "midi": 37,
      "hit": false,
      "t": 197265.87800000174,
      "d": 286.64523437499884,
      "v": 77
    },
    {
      "midi": 68,
      "hit": false,
      "t": 197265.87800000198,
      "d": 143.32261718751397,
      "v": 96
    },
    {
      "midi": 71,
      "hit": false,
      "t": 197265.87800000198,
      "d": 143.32261718751397,
      "v": 96
    },
    {
      "midi": 80,
      "hit": false,
      "t": 197265.87800000198,
      "d": 143.32261718751397,
      "v": 96
    },
    {
      "midi": 37,
      "hit": false,
      "t": 197552.52323437674,
      "d": 145.0087656250107,
      "v": 73
    },
    {
      "midi": 66,
      "hit": false,
      "t": 197552.523234377,
      "d": 145.0087656250107,
      "v": 94
    },
    {
      "midi": 69,
      "hit": false,
      "t": 197552.523234377,
      "d": 145.0087656250107,
      "v": 94
    },
    {
      "midi": 78,
      "hit": false,
      "t": 197552.523234377,
      "d": 145.0087656250107,
      "v": 94
    },
    {
      "midi": 47,
      "hit": false,
      "t": 197697.53200000175,
      "d": 431.65400000000955,
      "v": 88
    },
    {
      "midi": 64,
      "hit": false,
      "t": 197697.53200000201,
      "d": 431.65400000000955,
      "v": 91
    },
    {
      "midi": 68,
      "hit": false,
      "t": 197697.53200000201,
      "d": 431.65400000000955,
      "v": 91
    },
    {
      "midi": 76,
      "hit": false,
      "t": 197697.53200000201,
      "d": 431.65400000000955,
      "v": 91
    },
    {
      "midi": 47,
      "hit": false,
      "t": 198129.18600000176,
      "d": 286.64523437499884,
      "v": 79
    },
    {
      "midi": 66,
      "hit": false,
      "t": 198129.18600000202,
      "d": 431.65400000000955,
      "v": 104
    },
    {
      "midi": 69,
      "hit": false,
      "t": 198129.18600000202,
      "d": 431.65400000000955,
      "v": 104
    },
    {
      "midi": 78,
      "hit": false,
      "t": 198129.18600000202,
      "d": 431.65400000000955,
      "v": 104
    },
    {
      "midi": 47,
      "hit": false,
      "t": 198415.83123437676,
      "d": 145.0087656250107,
      "v": 77
    },
    {
      "midi": 33,
      "hit": false,
      "t": 198560.84000000177,
      "d": 574.9766171874944,
      "v": 69
    },
    {
      "midi": 61,
      "hit": false,
      "t": 198560.84000000203,
      "d": 143.32261718751397,
      "v": 52
    },
    {
      "midi": 76,
      "hit": false,
      "t": 198560.84000000203,
      "d": 1726.6160000000673,
      "v": 91
    },
    {
      "midi": 64,
      "hit": false,
      "t": 198704.16261718955,
      "d": 143.32261718751397,
      "v": 75
    },
    {
      "midi": 69,
      "hit": false,
      "t": 198847.48523437706,
      "d": 145.0087656250107,
      "v": 77
    },
    {
      "midi": 71,
      "hit": false,
      "t": 198992.49400000207,
      "d": 143.32261718751397,
      "v": 81
    },
    {
      "midi": 69,
      "hit": false,
      "t": 199135.8166171896,
      "d": 143.32261718751397,
      "v": 75
    },
    {
      "midi": 45,
      "hit": false,
      "t": 199279.13923437678,
      "d": 145.0087656250107,
      "v": 73
    },
    {
      "midi": 71,
      "hit": false,
      "t": 199279.1392343771,
      "d": 145.0087656250107,
      "v": 74
    },
    {
      "midi": 52,
      "hit": false,
      "t": 199424.1480000018,
      "d": 431.65400000000955,
      "v": 79
    },
    {
      "midi": 73,
      "hit": false,
      "t": 199424.1480000021,
      "d": 863.30799999999,
      "v": 73
    },
    {
      "midi": 45,
      "hit": false,
      "t": 199855.8020000018,
      "d": 431.65400000000955,
      "v": 70
    },
    {
      "midi": 32,
      "hit": false,
      "t": 200287.4560000018,
      "d": 574.9766171874944,
      "v": 63
    },
    {
      "midi": 59,
      "hit": false,
      "t": 200287.4560000021,
      "d": 143.32261718751397,
      "v": 59
    },
    {
      "midi": 64,
      "hit": false,
      "t": 200430.77861718962,
      "d": 143.32261718751397,
      "v": 79
    },
    {
      "midi": 66,
      "hit": false,
      "t": 200574.10123437713,
      "d": 145.0087656250107,
      "v": 78
    },
    {
      "midi": 71,
      "hit": false,
      "t": 200719.11000000214,
      "d": 143.32261718751397,
      "v": 80
    },
    {
      "midi": 76,
      "hit": false,
      "t": 200862.43261718965,
      "d": 143.32261718751397,
      "v": 86
    },
    {
      "midi": 44,
      "hit": false,
      "t": 201005.75523437682,
      "d": 145.0087656250107,
      "v": 72
    },
    {
      "midi": 81,
      "hit": false,
      "t": 201005.75523437717,
      "d": 145.0087656250107,
      "v": 80
    },
    {
      "midi": 52,
      "hit": false,
      "t": 201150.76400000183,
      "d": 431.65400000000955,
      "v": 80
    },
    {
      "midi": 80,
      "hit": false,
      "t": 201150.76400000218,
      "d": 863.30799999999,
      "v": 67
    },
    {
      "midi": 44,
      "hit": false,
      "t": 201582.41800000184,
      "d": 431.65400000000955,
      "v": 74
    },
    {
      "midi": 30,
      "hit": false,
      "t": 202014.07200000185,
      "d": 431.65400000000955,
      "v": 65
    },
    {
      "midi": 69,
      "hit": false,
      "t": 202014.07200000217,
      "d": 431.65400000000955,
      "v": 52
    },
    {
      "midi": 76,
      "hit": false,
      "t": 202014.07200000217,
      "d": 1726.6160000000673,
      "v": 97
    },
    {
      "midi": 32,
      "hit": false,
      "t": 202445.72600000186,
      "d": 143.32261718751397,
      "v": 75
    },
    {
      "midi": 68,
      "hit": false,
      "t": 202445.72600000218,
      "d": 143.32261718751397,
      "v": 69
    },
    {
      "midi": 30,
      "hit": false,
      "t": 202589.04861718937,
      "d": 143.32261718751397,
      "v": 74
    },
    {
      "midi": 69,
      "hit": false,
      "t": 202589.0486171897,
      "d": 143.32261718751397,
      "v": 69
    },
    {
      "midi": 32,
      "hit": false,
      "t": 202732.3712343769,
      "d": 145.0087656250107,
      "v": 77
    },
    {
      "midi": 71,
      "hit": false,
      "t": 202732.3712343772,
      "d": 145.0087656250107,
      "v": 76
    },
    {
      "midi": 33,
      "hit": false,
      "t": 202877.3800000019,
      "d": 431.65400000000955,
      "v": 79
    },
    {
      "midi": 69,
      "hit": false,
      "t": 202877.38000000222,
      "d": 431.65400000000955,
      "v": 77
    },
    {
      "midi": 73,
      "hit": false,
      "t": 202877.38000000222,
      "d": 431.65400000000955,
      "v": 77
    },
    {
      "midi": 34,
      "hit": false,
      "t": 203309.0340000019,
      "d": 431.65400000000955,
      "v": 75
    },
    {
      "midi": 75,
      "hit": false,
      "t": 203309.03400000223,
      "d": 431.65400000000955,
      "v": 78
    },
    {
      "midi": 35,
      "hit": false,
      "t": 203740.68800000192,
      "d": 431.65400000000955,
      "v": 79
    },
    {
      "midi": 69,
      "hit": false,
      "t": 203740.68800000224,
      "d": 431.65400000000955,
      "v": 97
    },
    {
      "midi": 76,
      "hit": false,
      "t": 203740.68800000224,
      "d": 431.65400000000955,
      "v": 97
    },
    {
      "midi": 35,
      "hit": false,
      "t": 204172.34200000193,
      "d": 431.65400000000955,
      "v": 76
    },
    {
      "midi": 78,
      "hit": false,
      "t": 204172.34200000225,
      "d": 143.32261718751397,
      "v": 104
    },
    {
      "midi": 76,
      "hit": false,
      "t": 204315.66461718976,
      "d": 143.32261718751397,
      "v": 95
    },
    {
      "midi": 78,
      "hit": false,
      "t": 204458.98723437727,
      "d": 145.0087656250107,
      "v": 100
    },
    {
      "midi": 35,
      "hit": false,
      "t": 204603.99600000193,
      "d": 143.32261718751397,
      "v": 75
    },
    {
      "midi": 80,
      "hit": false,
      "t": 204603.99600000228,
      "d": 143.32261718751397,
      "v": 103
    },
    {
      "midi": 69,
      "hit": false,
      "t": 204603.99600000228,
      "d": 431.65400000003865,
      "v": 103
    },
    {
      "midi": 37,
      "hit": false,
      "t": 204747.31861718945,
      "d": 143.32261718751397,
      "v": 77
    },
    {
      "midi": 78,
      "hit": false,
      "t": 204747.3186171898,
      "d": 143.32261718751397,
      "v": 95
    },
    {
      "midi": 35,
      "hit": false,
      "t": 204890.64123437696,
      "d": 145.0087656250107,
      "v": 78
    },
    {
      "midi": 80,
      "hit": false,
      "t": 204890.6412343773,
      "d": 145.0087656250107,
      "v": 110
    },
    {
      "midi": 39,
      "hit": false,
      "t": 205035.65000000197,
      "d": 431.65400000000955,
      "v": 80
    },
    {
      "midi": 81,
      "hit": false,
      "t": 205035.65000000232,
      "d": 431.65400000000955,
      "v": 103
    },
    {
      "midi": 48,
      "hit": false,
      "t": 205467.30400000198,
      "d": 1726.616000000009,
      "v": 86
    },
    {
      "midi": 60,
      "hit": false,
      "t": 205467.30400000233,
      "d": 143.32261718751397,
      "v": 69
    },
    {
      "midi": 64,
      "hit": false,
      "t": 205467.30400000233,
      "d": 143.32261718751397,
      "v": 69
    },
    {
      "midi": 67,
      "hit": false,
      "t": 205467.30400000233,
      "d": 143.32261718751397,
      "v": 69
    },
    {
      "midi": 60,
      "hit": false,
      "t": 205610.62661718985,
      "d": 143.32261718751397,
      "v": 92
    },
    {
      "midi": 64,
      "hit": false,
      "t": 205610.62661718985,
      "d": 143.32261718751397,
      "v": 92
    },
    {
      "midi": 67,
      "hit": false,
      "t": 205610.62661718985,
      "d": 143.32261718751397,
      "v": 92
    },
    {
      "midi": 60,
      "hit": false,
      "t": 205753.94923437736,
      "d": 145.0087656250107,
      "v": 98
    },
    {
      "midi": 64,
      "hit": false,
      "t": 205753.94923437736,
      "d": 145.0087656250107,
      "v": 98
    },
    {
      "midi": 67,
      "hit": false,
      "t": 205753.94923437736,
      "d": 145.0087656250107,
      "v": 98
    },
    {
      "midi": 60,
      "hit": false,
      "t": 205898.95800000237,
      "d": 431.65400000000955,
      "v": 97
    },
    {
      "midi": 64,
      "hit": false,
      "t": 205898.95800000237,
      "d": 431.65400000000955,
      "v": 97
    },
    {
      "midi": 67,
      "hit": false,
      "t": 205898.95800000237,
      "d": 431.65400000000955,
      "v": 97
    },
    {
      "midi": 60,
      "hit": false,
      "t": 206330.61200000238,
      "d": 143.32261718751397,
      "v": 100
    },
    {
      "midi": 64,
      "hit": false,
      "t": 206330.61200000238,
      "d": 143.32261718751397,
      "v": 100
    },
    {
      "midi": 67,
      "hit": false,
      "t": 206330.61200000238,
      "d": 143.32261718751397,
      "v": 100
    },
    {
      "midi": 60,
      "hit": false,
      "t": 206473.9346171899,
      "d": 143.32261718751397,
      "v": 98
    },
    {
      "midi": 64,
      "hit": false,
      "t": 206473.9346171899,
      "d": 143.32261718751397,
      "v": 98
    },
    {
      "midi": 67,
      "hit": false,
      "t": 206473.9346171899,
      "d": 143.32261718751397,
      "v": 98
    },
    {
      "midi": 60,
      "hit": false,
      "t": 206617.2572343774,
      "d": 145.0087656250107,
      "v": 102
    },
    {
      "midi": 64,
      "hit": false,
      "t": 206617.2572343774,
      "d": 145.0087656250107,
      "v": 102
    },
    {
      "midi": 67,
      "hit": false,
      "t": 206617.2572343774,
      "d": 145.0087656250107,
      "v": 102
    },
    {
      "midi": 60,
      "hit": false,
      "t": 206762.26600000242,
      "d": 431.65400000000955,
      "v": 97
    },
    {
      "midi": 64,
      "hit": false,
      "t": 206762.26600000242,
      "d": 431.65400000000955,
      "v": 97
    },
    {
      "midi": 67,
      "hit": false,
      "t": 206762.26600000242,
      "d": 431.65400000000955,
      "v": 97
    },
    {
      "midi": 50,
      "hit": false,
      "t": 207193.920000002,
      "d": 1726.616000000009,
      "v": 77
    },
    {
      "midi": 62,
      "hit": false,
      "t": 207193.92000000243,
      "d": 143.32261718751397,
      "v": 107
    },
    {
      "midi": 66,
      "hit": false,
      "t": 207193.92000000243,
      "d": 143.32261718751397,
      "v": 107
    },
    {
      "midi": 69,
      "hit": false,
      "t": 207193.92000000243,
      "d": 143.32261718751397,
      "v": 107
    },
    {
      "midi": 62,
      "hit": false,
      "t": 207337.24261718994,
      "d": 143.32261718751397,
      "v": 100
    },
    {
      "midi": 66,
      "hit": false,
      "t": 207337.24261718994,
      "d": 143.32261718751397,
      "v": 100
    },
    {
      "midi": 69,
      "hit": false,
      "t": 207337.24261718994,
      "d": 143.32261718751397,
      "v": 100
    },
    {
      "midi": 62,
      "hit": false,
      "t": 207480.56523437746,
      "d": 145.0087656250107,
      "v": 100
    },
    {
      "midi": 66,
      "hit": false,
      "t": 207480.56523437746,
      "d": 145.0087656250107,
      "v": 100
    },
    {
      "midi": 69,
      "hit": false,
      "t": 207480.56523437746,
      "d": 145.0087656250107,
      "v": 100
    },
    {
      "midi": 62,
      "hit": false,
      "t": 207625.57400000247,
      "d": 431.65400000000955,
      "v": 95
    },
    {
      "midi": 66,
      "hit": false,
      "t": 207625.57400000247,
      "d": 431.65400000000955,
      "v": 95
    },
    {
      "midi": 69,
      "hit": false,
      "t": 207625.57400000247,
      "d": 431.65400000000955,
      "v": 95
    },
    {
      "midi": 62,
      "hit": false,
      "t": 208057.22800000248,
      "d": 143.32261718751397,
      "v": 100
    },
    {
      "midi": 66,
      "hit": false,
      "t": 208057.22800000248,
      "d": 143.32261718751397,
      "v": 100
    },
    {
      "midi": 69,
      "hit": false,
      "t": 208057.22800000248,
      "d": 143.32261718751397,
      "v": 100
    },
    {
      "midi": 62,
      "hit": false,
      "t": 208200.55061719,
      "d": 143.32261718751397,
      "v": 97
    },
    {
      "midi": 66,
      "hit": false,
      "t": 208200.55061719,
      "d": 143.32261718751397,
      "v": 97
    },
    {
      "midi": 69,
      "hit": false,
      "t": 208200.55061719,
      "d": 143.32261718751397,
      "v": 97
    },
    {
      "midi": 62,
      "hit": false,
      "t": 208343.8732343775,
      "d": 145.0087656250107,
      "v": 99
    },
    {
      "midi": 66,
      "hit": false,
      "t": 208343.8732343775,
      "d": 145.0087656250107,
      "v": 99
    },
    {
      "midi": 69,
      "hit": false,
      "t": 208343.8732343775,
      "d": 145.0087656250107,
      "v": 99
    },
    {
      "midi": 62,
      "hit": false,
      "t": 208488.88200000252,
      "d": 431.65400000000955,
      "v": 95
    },
    {
      "midi": 66,
      "hit": false,
      "t": 208488.88200000252,
      "d": 431.65400000000955,
      "v": 95
    },
    {
      "midi": 69,
      "hit": false,
      "t": 208488.88200000252,
      "d": 431.65400000000955,
      "v": 95
    },
    {
      "midi": 52,
      "hit": false,
      "t": 208920.536000002,
      "d": 863.30799999999,
      "v": 73
    },
    {
      "midi": 64,
      "hit": false,
      "t": 208920.53600000252,
      "d": 143.32261718751397,
      "v": 102
    },
    {
      "midi": 68,
      "hit": false,
      "t": 208920.53600000252,
      "d": 143.32261718751397,
      "v": 102
    },
    {
      "midi": 71,
      "hit": false,
      "t": 208920.53600000252,
      "d": 143.32261718751397,
      "v": 102
    },
    {
      "midi": 64,
      "hit": false,
      "t": 209063.85861719004,
      "d": 143.32261718751397,
      "v": 100
    },
    {
      "midi": 68,
      "hit": false,
      "t": 209063.85861719004,
      "d": 143.32261718751397,
      "v": 100
    },
    {
      "midi": 71,
      "hit": false,
      "t": 209063.85861719004,
      "d": 143.32261718751397,
      "v": 100
    },
    {
      "midi": 64,
      "hit": false,
      "t": 209207.18123437755,
      "d": 145.0087656250107,
      "v": 97
    },
    {
      "midi": 68,
      "hit": false,
      "t": 209207.18123437755,
      "d": 145.0087656250107,
      "v": 97
    },
    {
      "midi": 71,
      "hit": false,
      "t": 209207.18123437755,
      "d": 145.0087656250107,
      "v": 97
    },
    {
      "midi": 64,
      "hit": false,
      "t": 209352.19000000256,
      "d": 431.65400000000955,
      "v": 93
    },
    {
      "midi": 68,
      "hit": false,
      "t": 209352.19000000256,
      "d": 431.65400000000955,
      "v": 93
    },
    {
      "midi": 71,
      "hit": false,
      "t": 209352.19000000256,
      "d": 431.65400000000955,
      "v": 93
    },
    {
      "midi": 54,
      "hit": false,
      "t": 209783.844000002,
      "d": 863.30799999999,
      "v": 86
    },
    {
      "midi": 66,
      "hit": false,
      "t": 209783.84400000257,
      "d": 143.32261718751397,
      "v": 104
    },
    {
      "midi": 70,
      "hit": false,
      "t": 209783.84400000257,
      "d": 143.32261718751397,
      "v": 104
    },
    {
      "midi": 73,
      "hit": false,
      "t": 209783.84400000257,
      "d": 143.32261718751397,
      "v": 104
    },
    {
      "midi": 66,
      "hit": false,
      "t": 209927.1666171901,
      "d": 143.32261718751397,
      "v": 100
    },
    {
      "midi": 70,
      "hit": false,
      "t": 209927.1666171901,
      "d": 143.32261718751397,
      "v": 100
    },
    {
      "midi": 73,
      "hit": false,
      "t": 209927.1666171901,
      "d": 143.32261718751397,
      "v": 100
    },
    {
      "midi": 66,
      "hit": false,
      "t": 210070.4892343776,
      "d": 145.0087656250107,
      "v": 99
    },
    {
      "midi": 70,
      "hit": false,
      "t": 210070.4892343776,
      "d": 145.0087656250107,
      "v": 99
    },
    {
      "midi": 73,
      "hit": false,
      "t": 210070.4892343776,
      "d": 145.0087656250107,
      "v": 99
    },
    {
      "midi": 66,
      "hit": false,
      "t": 210215.4980000026,
      "d": 431.65400000000955,
      "v": 96
    },
    {
      "midi": 70,
      "hit": false,
      "t": 210215.4980000026,
      "d": 431.65400000000955,
      "v": 96
    },
    {
      "midi": 73,
      "hit": false,
      "t": 210215.4980000026,
      "d": 431.65400000000955,
      "v": 96
    },
    {
      "midi": 56,
      "hit": false,
      "t": 210647.15200000198,
      "d": 1294.9619999999995,
      "v": 81
    },
    {
      "midi": 68,
      "hit": false,
      "t": 210647.15200000262,
      "d": 143.32261718751397,
      "v": 102
    },
    {
      "midi": 72,
      "hit": false,
      "t": 210647.15200000262,
      "d": 143.32261718751397,
      "v": 102
    },
    {
      "midi": 75,
      "hit": false,
      "t": 210647.15200000262,
      "d": 143.32261718751397,
      "v": 102
    },
    {
      "midi": 68,
      "hit": false,
      "t": 210790.47461719014,
      "d": 143.32261718751397,
      "v": 102
    },
    {
      "midi": 72,
      "hit": false,
      "t": 210790.47461719014,
      "d": 143.32261718751397,
      "v": 102
    },
    {
      "midi": 75,
      "hit": false,
      "t": 210790.47461719014,
      "d": 143.32261718751397,
      "v": 102
    },
    {
      "midi": 68,
      "hit": false,
      "t": 210933.79723437765,
      "d": 145.0087656250107,
      "v": 95
    },
    {
      "midi": 72,
      "hit": false,
      "t": 210933.79723437765,
      "d": 145.0087656250107,
      "v": 95
    },
    {
      "midi": 75,
      "hit": false,
      "t": 210933.79723437765,
      "d": 145.0087656250107,
      "v": 95
    },
    {
      "midi": 68,
      "hit": false,
      "t": 211078.80600000266,
      "d": 431.65400000000955,
      "v": 96
    },
    {
      "midi": 72,
      "hit": false,
      "t": 211078.80600000266,
      "d": 431.65400000000955,
      "v": 96
    },
    {
      "midi": 75,
      "hit": false,
      "t": 211078.80600000266,
      "d": 431.65400000000955,
      "v": 96
    },
    {
      "midi": 68,
      "hit": false,
      "t": 211510.46000000267,
      "d": 143.32261718751397,
      "v": 95
    },
    {
      "midi": 72,
      "hit": false,
      "t": 211510.46000000267,
      "d": 143.32261718751397,
      "v": 95
    },
    {
      "midi": 75,
      "hit": false,
      "t": 211510.46000000267,
      "d": 143.32261718751397,
      "v": 95
    },
    {
      "midi": 68,
      "hit": false,
      "t": 211653.78261719018,
      "d": 143.32261718751397,
      "v": 97
    },
    {
      "midi": 72,
      "hit": false,
      "t": 211653.78261719018,
      "d": 143.32261718751397,
      "v": 97
    },
    {
      "midi": 75,
      "hit": false,
      "t": 211653.78261719018,
      "d": 143.32261718751397,
      "v": 97
    },
    {
      "midi": 68,
      "hit": false,
      "t": 211797.1052343777,
      "d": 145.0087656250107,
      "v": 93
    },
    {
      "midi": 72,
      "hit": false,
      "t": 211797.1052343777,
      "d": 145.0087656250107,
      "v": 93
    },
    {
      "midi": 75,
      "hit": false,
      "t": 211797.1052343777,
      "d": 145.0087656250107,
      "v": 93
    },
    {
      "midi": 68,
      "hit": false,
      "t": 211942.1140000027,
      "d": 431.65400000000955,
      "v": 96
    },
    {
      "midi": 72,
      "hit": false,
      "t": 211942.1140000027,
      "d": 431.65400000000955,
      "v": 96
    },
    {
      "midi": 75,
      "hit": false,
      "t": 211942.1140000027,
      "d": 431.65400000000955,
      "v": 96
    },
    {
      "midi": 54,
      "hit": false,
      "t": 212228.75923437698,
      "d": 145.0087656250107,
      "v": 67
    },
    {
      "midi": 56,
      "hit": false,
      "t": 212373.768000002,
      "d": 1726.616000000009,
      "v": 75
    },
    {
      "midi": 68,
      "hit": false,
      "t": 212373.76800000272,
      "d": 143.32261718751397,
      "v": 91
    },
    {
      "midi": 72,
      "hit": false,
      "t": 212373.76800000272,
      "d": 143.32261718751397,
      "v": 91
    },
    {
      "midi": 75,
      "hit": false,
      "t": 212373.76800000272,
      "d": 143.32261718751397,
      "v": 91
    },
    {
      "midi": 68,
      "hit": false,
      "t": 212517.09061719023,
      "d": 143.32261718751397,
      "v": 87
    },
    {
      "midi": 72,
      "hit": false,
      "t": 212517.09061719023,
      "d": 143.32261718751397,
      "v": 87
    },
    {
      "midi": 75,
      "hit": false,
      "t": 212517.09061719023,
      "d": 143.32261718751397,
      "v": 87
    },
    {
      "midi": 68,
      "hit": false,
      "t": 212660.41323437775,
      "d": 145.0087656250107,
      "v": 91
    },
    {
      "midi": 72,
      "hit": false,
      "t": 212660.41323437775,
      "d": 145.0087656250107,
      "v": 91
    },
    {
      "midi": 75,
      "hit": false,
      "t": 212660.41323437775,
      "d": 145.0087656250107,
      "v": 91
    },
    {
      "midi": 68,
      "hit": false,
      "t": 212805.42200000276,
      "d": 431.65400000000955,
      "v": 92
    },
    {
      "midi": 72,
      "hit": false,
      "t": 212805.42200000276,
      "d": 431.65400000000955,
      "v": 92
    },
    {
      "midi": 75,
      "hit": false,
      "t": 212805.42200000276,
      "d": 431.65400000000955,
      "v": 92
    },
    {
      "midi": 63,
      "hit": false,
      "t": 214100.38400000276,
      "d": 143.32261718751397,
      "v": 88
    },
    {
      "midi": 63,
      "hit": false,
      "t": 214387.02923437778,
      "d": 145.0087656250107,
      "v": 91
    },
    {
      "midi": 32,
      "hit": false,
      "t": 214532.038000002,
      "d": 143.32261718751397,
      "v": 69
    },
    {
      "midi": 68,
      "hit": false,
      "t": 214532.0380000028,
      "d": 286.64523437499884,
      "v": 108
    },
    {
      "midi": 32,
      "hit": false,
      "t": 214818.68323437704,
      "d": 145.0087656250107,
      "v": 73
    },
    {
      "midi": 63,
      "hit": false,
      "t": 214818.6832343778,
      "d": 145.0087656250107,
      "v": 88
    },
    {
      "midi": 44,
      "hit": false,
      "t": 214963.69200000205,
      "d": 143.32261718751397,
      "v": 81
    },
    {
      "midi": 68,
      "hit": false,
      "t": 214963.6920000028,
      "d": 286.64523437499884,
      "v": 109
    },
    {
      "midi": 44,
      "hit": false,
      "t": 215250.33723437708,
      "d": 145.0087656250107,
      "v": 68
    },
    {
      "midi": 72,
      "hit": false,
      "t": 215250.3372343778,
      "d": 145.0087656250107,
      "v": 112
    },
    {
      "midi": 44,
      "hit": false,
      "t": 215395.3460000021,
      "d": 143.32261718751397,
      "v": 74
    },
    {
      "midi": 68,
      "hit": false,
      "t": 215395.3460000028,
      "d": 431.65400000000955,
      "v": 88
    },
    {
      "midi": 44,
      "hit": false,
      "t": 215538.6686171896,
      "d": 143.32261718751397,
      "v": 79
    },
    {
      "midi": 44,
      "hit": false,
      "t": 215681.9912343771,
      "d": 145.0087656250107,
      "v": 79
    },
    {
      "midi": 44,
      "hit": false,
      "t": 215827.00000000212,
      "d": 431.65400000000955,
      "v": 79
    },
    {
      "midi": 68,
      "hit": false,
      "t": 215827.00000000282,
      "d": 286.64523437499884,
      "v": 101
    },
    {
      "midi": 68,
      "hit": false,
      "t": 216113.64523437782,
      "d": 145.0087656250107,
      "v": 99
    },
    {
      "midi": 32,
      "hit": false,
      "t": 216258.65400000213,
      "d": 143.32261718751397,
      "v": 67
    },
    {
      "midi": 72,
      "hit": false,
      "t": 216258.65400000283,
      "d": 286.64523437499884,
      "v": 107
    },
    {
      "midi": 32,
      "hit": false,
      "t": 216545.29923437716,
      "d": 145.0087656250107,
      "v": 67
    },
    {
      "midi": 68,
      "hit": false,
      "t": 216545.29923437783,
      "d": 145.0087656250107,
      "v": 87
    },
    {
      "midi": 44,
      "hit": false,
      "t": 216690.30800000217,
      "d": 143.32261718751397,
      "v": 84
    },
    {
      "midi": 75,
      "hit": false,
      "t": 216690.30800000284,
      "d": 431.65400000000955,
      "v": 116
    },
    {
      "midi": 44,
      "hit": false,
      "t": 216976.9532343772,
      "d": 145.0087656250107,
      "v": 71
    },
    {
      "midi": 44,
      "hit": false,
      "t": 217121.9620000022,
      "d": 143.32261718751397,
      "v": 79
    },
    {
      "midi": 75,
      "hit": false,
      "t": 217121.96200000285,
      "d": 431.65400000000955,
      "v": 95
    },
    {
      "midi": 44,
      "hit": false,
      "t": 217265.28461718973,
      "d": 143.32261718751397,
      "v": 75
    },
    {
      "midi": 44,
      "hit": false,
      "t": 217408.60723437724,
      "d": 145.0087656250107,
      "v": 78
    },
    {
      "midi": 44,
      "hit": false,
      "t": 217553.61600000225,
      "d": 431.65400000000955,
      "v": 79
    },
    {
      "midi": 63,
      "hit": false,
      "t": 217553.61600000286,
      "d": 143.32261718751397,
      "v": 71
    },
    {
      "midi": 63,
      "hit": false,
      "t": 217840.2612343779,
      "d": 145.0087656250107,
      "v": 88
    },
    {
      "midi": 32,
      "hit": false,
      "t": 217985.27000000226,
      "d": 143.32261718751397,
      "v": 63
    },
    {
      "midi": 63,
      "hit": false,
      "t": 217985.2700000029,
      "d": 286.64523437499884,
      "v": 113
    },
    {
      "midi": 68,
      "hit": false,
      "t": 217985.2700000029,
      "d": 286.64523437499884,
      "v": 113
    },
    {
      "midi": 32,
      "hit": false,
      "t": 218271.9152343773,
      "d": 145.0087656250107,
      "v": 69
    },
    {
      "midi": 60,
      "hit": false,
      "t": 218271.9152343779,
      "d": 145.0087656250107,
      "v": 80
    },
    {
      "midi": 63,
      "hit": false,
      "t": 218271.9152343779,
      "d": 145.0087656250107,
      "v": 80
    },
    {
      "midi": 44,
      "hit": false,
      "t": 218416.9240000023,
      "d": 143.32261718751397,
      "v": 83
    },
    {
      "midi": 63,
      "hit": false,
      "t": 218416.9240000029,
      "d": 286.64523437499884,
      "v": 111
    },
    {
      "midi": 68,
      "hit": false,
      "t": 218416.9240000029,
      "d": 286.64523437499884,
      "v": 111
    },
    {
      "midi": 44,
      "hit": false,
      "t": 218703.56923437733,
      "d": 145.0087656250107,
      "v": 64
    },
    {
      "midi": 68,
      "hit": false,
      "t": 218703.5692343779,
      "d": 145.0087656250107,
      "v": 104
    },
    {
      "midi": 72,
      "hit": false,
      "t": 218703.5692343779,
      "d": 145.0087656250107,
      "v": 104
    },
    {
      "midi": 44,
      "hit": false,
      "t": 218848.57800000234,
      "d": 143.32261718751397,
      "v": 75
    },
    {
      "midi": 63,
      "hit": false,
      "t": 218848.57800000292,
      "d": 431.65400000000955,
      "v": 87
    },
    {
      "midi": 68,
      "hit": false,
      "t": 218848.57800000292,
      "d": 431.65400000000955,
      "v": 87
    },
    {
      "midi": 44,
      "hit": false,
      "t": 218991.90061718985,
      "d": 143.32261718751397,
      "v": 78
    },
    {
      "midi": 44,
      "hit": false,
      "t": 219135.22323437736,
      "d": 145.0087656250107,
      "v": 74
    },
    {
      "midi": 44,
      "hit": false,
      "t": 219280.23200000238,
      "d": 431.65400000000955,
      "v": 77
    },
    {
      "midi": 63,
      "hit": false,
      "t": 219280.23200000293,
      "d": 286.64523437499884,
      "v": 100
    },
    {
      "midi": 68,
      "hit": false,
      "t": 219280.23200000293,
      "d": 286.64523437499884,
      "v": 100
    },
    {
      "midi": 63,
      "hit": false,
      "t": 219566.87723437793,
      "d": 145.0087656250107,
      "v": 98
    },
    {
      "midi": 68,
      "hit": false,
      "t": 219566.87723437793,
      "d": 145.0087656250107,
      "v": 98
    },
    {
      "midi": 32,
      "hit": false,
      "t": 219711.88600000239,
      "d": 143.32261718751397,
      "v": 64
    },
    {
      "midi": 68,
      "hit": false,
      "t": 219711.88600000294,
      "d": 286.64523437499884,
      "v": 103
    },
    {
      "midi": 72,
      "hit": false,
      "t": 219711.88600000294,
      "d": 286.64523437499884,
      "v": 103
    },
    {
      "midi": 32,
      "hit": false,
      "t": 219998.5312343774,
      "d": 145.0087656250107,
      "v": 67
    },
    {
      "midi": 63,
      "hit": false,
      "t": 219998.53123437794,
      "d": 145.0087656250107,
      "v": 88
    },
    {
      "midi": 68,
      "hit": false,
      "t": 219998.53123437794,
      "d": 145.0087656250107,
      "v": 88
    },
    {
      "midi": 44,
      "hit": false,
      "t": 220143.54000000242,
      "d": 143.32261718751397,
      "v": 85
    },
    {
      "midi": 68,
      "hit": false,
      "t": 220143.54000000295,
      "d": 431.65400000000955,
      "v": 111
    },
    {
      "midi": 75,
      "hit": false,
      "t": 220143.54000000295,
      "d": 431.65400000000955,
      "v": 111
    },
    {
      "midi": 44,
      "hit": false,
      "t": 220430.18523437745,
      "d": 145.0087656250107,
      "v": 69
    },
    {
      "midi": 44,
      "hit": false,
      "t": 220575.19400000246,
      "d": 143.32261718751397,
      "v": 76
    },
    {
      "midi": 68,
      "hit": false,
      "t": 220575.19400000296,
      "d": 431.65400000000955,
      "v": 101
    },
    {
      "midi": 75,
      "hit": false,
      "t": 220575.19400000296,
      "d": 431.65400000000955,
      "v": 101
    },
    {
      "midi": 44,
      "hit": false,
      "t": 220718.51661718998,
      "d": 143.32261718751397,
      "v": 74
    },
    {
      "midi": 44,
      "hit": false,
      "t": 220861.8392343775,
      "d": 145.0087656250107,
      "v": 75
    },
    {
      "midi": 44,
      "hit": false,
      "t": 221006.8480000025,
      "d": 431.65400000000955,
      "v": 72
    },
    {
      "midi": 60,
      "hit": false,
      "t": 221006.84800000297,
      "d": 143.32261718751397,
      "v": 67
    },
    {
      "midi": 63,
      "hit": false,
      "t": 221006.84800000297,
      "d": 143.32261718751397,
      "v": 67
    },
    {
      "midi": 60,
      "hit": false,
      "t": 221293.493234378,
      "d": 145.0087656250107,
      "v": 86
    },
    {
      "midi": 63,
      "hit": false,
      "t": 221293.493234378,
      "d": 145.0087656250107,
      "v": 86
    },
    {
      "midi": 32,
      "hit": false,
      "t": 221438.5020000025,
      "d": 143.32261718751397,
      "v": 66
    },
    {
      "midi": 68,
      "hit": false,
      "t": 221438.502000003,
      "d": 286.64523437499884,
      "v": 127
    },
    {
      "midi": 72,
      "hit": false,
      "t": 221438.502000003,
      "d": 286.64523437499884,
      "v": 127
    },
    {
      "midi": 80,
      "hit": false,
      "t": 221438.502000003,
      "d": 286.64523437499884,
      "v": 127
    },
    {
      "midi": 32,
      "hit": false,
      "t": 221725.14723437754,
      "d": 145.0087656250107,
      "v": 70
    },
    {
      "midi": 63,
      "hit": false,
      "t": 221725.147234378,
      "d": 145.0087656250107,
      "v": 90
    },
    {
      "midi": 68,
      "hit": false,
      "t": 221725.147234378,
      "d": 145.0087656250107,
      "v": 90
    },
    {
      "midi": 75,
      "hit": false,
      "t": 221725.147234378,
      "d": 145.0087656250107,
      "v": 90
    },
    {
      "midi": 44,
      "hit": false,
      "t": 221870.15600000255,
      "d": 143.32261718751397,
      "v": 85
    },
    {
      "midi": 68,
      "hit": false,
      "t": 221870.15600000301,
      "d": 286.64523437499884,
      "v": 107
    },
    {
      "midi": 72,
      "hit": false,
      "t": 221870.15600000301,
      "d": 286.64523437499884,
      "v": 107
    },
    {
      "midi": 80,
      "hit": false,
      "t": 221870.15600000301,
      "d": 286.64523437499884,
      "v": 107
    },
    {
      "midi": 44,
      "hit": false,
      "t": 222156.80123437758,
      "d": 145.0087656250107,
      "v": 72
    },
    {
      "midi": 72,
      "hit": false,
      "t": 222156.801234378,
      "d": 145.0087656250107,
      "v": 108
    },
    {
      "midi": 75,
      "hit": false,
      "t": 222156.801234378,
      "d": 145.0087656250107,
      "v": 108
    },
    {
      "midi": 84,
      "hit": false,
      "t": 222156.801234378,
      "d": 145.0087656250107,
      "v": 108
    },
    {
      "midi": 44,
      "hit": false,
      "t": 222301.8100000026,
      "d": 143.32261718751397,
      "v": 77
    },
    {
      "midi": 68,
      "hit": false,
      "t": 222301.81000000302,
      "d": 431.65400000000955,
      "v": 88
    },
    {
      "midi": 72,
      "hit": false,
      "t": 222301.81000000302,
      "d": 431.65400000000955,
      "v": 88
    },
    {
      "midi": 80,
      "hit": false,
      "t": 222301.81000000302,
      "d": 431.65400000000955,
      "v": 88
    },
    {
      "midi": 44,
      "hit": false,
      "t": 222445.1326171901,
      "d": 143.32261718751397,
      "v": 76
    },
    {
      "midi": 44,
      "hit": false,
      "t": 222588.45523437762,
      "d": 145.0087656250107,
      "v": 76
    },
    {
      "midi": 44,
      "hit": false,
      "t": 222733.46400000263,
      "d": 431.65400000000955,
      "v": 78
    },
    {
      "midi": 68,
      "hit": false,
      "t": 222733.46400000303,
      "d": 286.64523437499884,
      "v": 100
    },
    {
      "midi": 72,
      "hit": false,
      "t": 222733.46400000303,
      "d": 286.64523437499884,
      "v": 100
    },
    {
      "midi": 80,
      "hit": false,
      "t": 222733.46400000303,
      "d": 286.64523437499884,
      "v": 100
    },
    {
      "midi": 68,
      "hit": false,
      "t": 223020.10923437803,
      "d": 145.0087656250107,
      "v": 96
    },
    {
      "midi": 72,
      "hit": false,
      "t": 223020.10923437803,
      "d": 145.0087656250107,
      "v": 96
    },
    {
      "midi": 80,
      "hit": false,
      "t": 223020.10923437803,
      "d": 145.0087656250107,
      "v": 96
    },
    {
      "midi": 32,
      "hit": false,
      "t": 223165.11800000264,
      "d": 143.32261718751397,
      "v": 66
    },
    {
      "midi": 72,
      "hit": false,
      "t": 223165.11800000304,
      "d": 286.64523437499884,
      "v": 110
    },
    {
      "midi": 75,
      "hit": false,
      "t": 223165.11800000304,
      "d": 286.64523437499884,
      "v": 110
    },
    {
      "midi": 84,
      "hit": false,
      "t": 223165.11800000304,
      "d": 286.64523437499884,
      "v": 110
    },
    {
      "midi": 32,
      "hit": false,
      "t": 223451.76323437766,
      "d": 145.0087656250107,
      "v": 69
    },
    {
      "midi": 68,
      "hit": false,
      "t": 223451.76323437804,
      "d": 145.0087656250107,
      "v": 84
    },
    {
      "midi": 72,
      "hit": false,
      "t": 223451.76323437804,
      "d": 145.0087656250107,
      "v": 84
    },
    {
      "midi": 80,
      "hit": false,
      "t": 223451.76323437804,
      "d": 145.0087656250107,
      "v": 84
    },
    {
      "midi": 44,
      "hit": false,
      "t": 223596.77200000267,
      "d": 143.32261718751397,
      "v": 79
    },
    {
      "midi": 75,
      "hit": false,
      "t": 223596.77200000305,
      "d": 431.65400000000955,
      "v": 120
    },
    {
      "midi": 80,
      "hit": false,
      "t": 223596.77200000305,
      "d": 431.65400000000955,
      "v": 120
    },
    {
      "midi": 87,
      "hit": false,
      "t": 223596.77200000305,
      "d": 431.65400000000955,
      "v": 120
    },
    {
      "midi": 44,
      "hit": false,
      "t": 223883.4172343777,
      "d": 145.0087656250107,
      "v": 69
    },
    {
      "midi": 44,
      "hit": false,
      "t": 224028.4260000027,
      "d": 143.32261718751397,
      "v": 74
    },
    {
      "midi": 75,
      "hit": false,
      "t": 224028.42600000306,
      "d": 431.65400000000955,
      "v": 100
    },
    {
      "midi": 80,
      "hit": false,
      "t": 224028.42600000306,
      "d": 431.65400000000955,
      "v": 100
    },
    {
      "midi": 87,
      "hit": false,
      "t": 224028.42600000306,
      "d": 431.65400000000955,
      "v": 100
    },
    {
      "midi": 44,
      "hit": false,
      "t": 224171.74861719023,
      "d": 143.32261718751397,
      "v": 78
    },
    {
      "midi": 44,
      "hit": false,
      "t": 224315.07123437774,
      "d": 145.0087656250107,
      "v": 77
    },
    {
      "midi": 58,
      "hit": false,
      "t": 224460.08000000307,
      "d": 431.65400000000955,
      "v": 69
    },
    {
      "midi": 63,
      "hit": false,
      "t": 224460.08000000307,
      "d": 431.65400000000955,
      "v": 69
    },
    {
      "midi": 63,
      "hit": false,
      "t": 224891.73400000308,
      "d": 143.32261718751397,
      "v": 105
    },
    {
      "midi": 68,
      "hit": false,
      "t": 224891.73400000308,
      "d": 143.32261718751397,
      "v": 105
    },
    {
      "midi": 63,
      "hit": false,
      "t": 225178.3792343781,
      "d": 1008.3167656250007,
      "v": 88
    },
    {
      "midi": 68,
      "hit": false,
      "t": 225178.3792343781,
      "d": 1008.3167656250007,
      "v": 88
    },
    {
      "midi": 44,
      "hit": false,
      "t": 226186.69600000276,
      "d": 143.32261718751397,
      "v": 85
    },
    {
      "midi": 56,
      "hit": false,
      "t": 226186.69600000276,
      "d": 143.32261718751397,
      "v": 85
    },
    {
      "midi": 68,
      "hit": false,
      "t": 226186.6960000031,
      "d": 143.32261718751397,
      "v": 101
    },
    {
      "midi": 47,
      "hit": false,
      "t": 226330.01861719028,
      "d": 143.32261718751397,
      "v": 85
    },
    {
      "midi": 59,
      "hit": false,
      "t": 226330.01861719028,
      "d": 143.32261718751397,
      "v": 85
    },
    {
      "midi": 71,
      "hit": false,
      "t": 226330.01861719062,
      "d": 143.32261718751397,
      "v": 110
    },
    {
      "midi": 48,
      "hit": false,
      "t": 226473.3412343778,
      "d": 145.0087656250107,
      "v": 85
    },
    {
      "midi": 60,
      "hit": false,
      "t": 226473.3412343778,
      "d": 145.0087656250107,
      "v": 85
    },
    {
      "midi": 72,
      "hit": false,
      "t": 226473.34123437814,
      "d": 145.0087656250107,
      "v": 107
    },
    {
      "midi": 49,
      "hit": false,
      "t": 226618.3500000028,
      "d": 143.32261718751397,
      "v": 81
    },
    {
      "midi": 61,
      "hit": false,
      "t": 226618.3500000028,
      "d": 143.32261718751397,
      "v": 81
    },
    {
      "midi": 73,
      "hit": false,
      "t": 226618.35000000315,
      "d": 143.32261718751397,
      "v": 103
    },
    {
      "midi": 48,
      "hit": false,
      "t": 226761.6726171903,
      "d": 143.32261718751397,
      "v": 72
    },
    {
      "midi": 60,
      "hit": false,
      "t": 226761.6726171903,
      "d": 143.32261718751397,
      "v": 72
    },
    {
      "midi": 72,
      "hit": false,
      "t": 226761.67261719066,
      "d": 143.32261718751397,
      "v": 92
    },
    {
      "midi": 46,
      "hit": false,
      "t": 226904.99523437783,
      "d": 145.0087656250107,
      "v": 73
    },
    {
      "midi": 58,
      "hit": false,
      "t": 226904.99523437783,
      "d": 145.0087656250107,
      "v": 73
    },
    {
      "midi": 70,
      "hit": false,
      "t": 226904.99523437818,
      "d": 145.0087656250107,
      "v": 88
    },
    {
      "midi": 44,
      "hit": false,
      "t": 227050.00400000284,
      "d": 431.65400000000955,
      "v": 73
    },
    {
      "midi": 56,
      "hit": false,
      "t": 227050.00400000284,
      "d": 431.65400000000955,
      "v": 73
    },
    {
      "midi": 68,
      "hit": false,
      "t": 227050.0040000032,
      "d": 431.65400000000955,
      "v": 91
    },
    {
      "midi": 44,
      "hit": false,
      "t": 227481.65800000285,
      "d": 3884.8859999999986,
      "v": 77
    },
    {
      "midi": 51,
      "hit": false,
      "t": 227481.65800000285,
      "d": 3884.8859999999986,
      "v": 77
    },
    {
      "midi": 56,
      "hit": false,
      "t": 227481.65800000285,
      "d": 3884.8859999999986,
      "v": 77
    },
    {
      "midi": 68,
      "hit": false,
      "t": 227481.6580000032,
      "d": 3884.8859999999986,
      "v": 121
    },
    {
      "midi": 75,
      "hit": false,
      "t": 227481.6580000032,
      "d": 3884.8859999999986,
      "v": 121
    },
    {
      "midi": 80,
      "hit": false,
      "t": 227481.6580000032,
      "d": 3884.8859999999986,
      "v": 121
    }
  ]
}