{
  "jsonPath": "Rock/Country Rock/Johnny Lee/whats-a-fool-like-me-doing-in-a-love-like-this.json",
  "path": "Rock\\Country Rock\\Johnny Lee\\Whats A Fool Like Me Doing In A Love Like This.mid",
  "name": "Whats A Fool Like Me Doing In A Love Like This",
  "difficulty": "Advanced",
  "bpm": 102.0000510000255,
  "notes": [
    {
      "midi": 44,
      "hit": false,
      "t": 2352.94,
      "d": 2352.939999999999,
      "v": 107
    },
    {
      "midi": 56,
      "hit": false,
      "t": 2647.0575,
      "d": 2058.8224999999993,
      "v": 114
    },
    {
      "midi": 58,
      "hit": false,
      "t": 2941.1749999999997,
      "d": 1764.7049999999995,
      "v": 110
    },
    {
      "midi": 63,
      "hit": false,
      "t": 3235.2924999999996,
      "d": 1470.5874999999996,
      "v": 105
    },
    {
      "midi": 46,
      "hit": false,
      "t": 4705.879999999999,
      "d": 2352.9400000000005,
      "v": 118
    },
    {
      "midi": 53,
      "hit": false,
      "t": 4999.9974999999995,
      "d": 2058.8225,
      "v": 111
    },
    {
      "midi": 58,
      "hit": false,
      "t": 5294.115,
      "d": 1764.705,
      "v": 108
    },
    {
      "midi": 63,
      "hit": false,
      "t": 5588.2325,
      "d": 1470.5874999999996,
      "v": 124
    },
    {
      "midi": 62,
      "hit": false,
      "t": 6176.4675,
      "d": 882.3525,
      "v": 109
    },
    {
      "midi": 44,
      "hit": false,
      "t": 7058.82,
      "d": 2352.9400000000005,
      "v": 84
    },
    {
      "midi": 56,
      "hit": false,
      "t": 7352.9375,
      "d": 2058.8225,
      "v": 107
    },
    {
      "midi": 58,
      "hit": false,
      "t": 7647.055,
      "d": 1764.705,
      "v": 106
    },
    {
      "midi": 63,
      "hit": false,
      "t": 7941.172500000001,
      "d": 1470.5874999999996,
      "v": 82
    },
    {
      "midi": 46,
      "hit": false,
      "t": 9411.76,
      "d": 2352.9400000000023,
      "v": 90
    },
    {
      "midi": 53,
      "hit": false,
      "t": 9705.8775,
      "d": 2058.822500000002,
      "v": 120
    },
    {
      "midi": 58,
      "hit": false,
      "t": 9999.995,
      "d": 1764.7050000000017,
      "v": 92
    },
    {
      "midi": 63,
      "hit": false,
      "t": 10294.112500000001,
      "d": 1470.5875000000015,
      "v": 84
    },
    {
      "midi": 62,
      "hit": false,
      "t": 10882.347500000002,
      "d": 882.3525000000009,
      "v": 92
    },
    {
      "midi": 56,
      "hit": false,
      "t": 39999.98,
      "d": 882.3525000000009,
      "v": 97
    },
    {
      "midi": 60,
      "hit": false,
      "t": 39999.98,
      "d": 882.3525000000009,
      "v": 90
    },
    {
      "midi": 63,
      "hit": false,
      "t": 39999.98,
      "d": 882.3525000000009,
      "v": 95
    },
    {
      "midi": 56,
      "hit": false,
      "t": 40882.332500000004,
      "d": 1470.5875000000015,
      "v": 109
    },
    {
      "midi": 60,
      "hit": false,
      "t": 40882.332500000004,
      "d": 1470.5875000000015,
      "v": 109
    },
    {
      "midi": 63,
      "hit": false,
      "t": 40882.332500000004,
      "d": 1470.5875000000015,
      "v": 69
    },
    {
      "midi": 58,
      "hit": false,
      "t": 42352.920000000006,
      "d": 882.3525000000009,
      "v": 72
    },
    {
      "midi": 62,
      "hit": false,
      "t": 42352.920000000006,
      "d": 882.3525000000009,
      "v": 94
    },
    {
      "midi": 65,
      "hit": false,
      "t": 42352.920000000006,
      "d": 882.3525000000009,
      "v": 77
    },
    {
      "midi": 58,
      "hit": false,
      "t": 43235.27250000001,
      "d": 1470.5875000000015,
      "v": 84
    },
    {
      "midi": 62,
      "hit": false,
      "t": 43235.27250000001,
      "d": 1470.5875000000015,
      "v": 72
    },
    {
      "midi": 65,
      "hit": false,
      "t": 43235.27250000001,
      "d": 1470.5875000000015,
      "v": 85
    },
    {
      "midi": 55,
      "hit": false,
      "t": 44705.86000000001,
      "d": 4705.879999999997,
      "v": 94
    },
    {
      "midi": 60,
      "hit": false,
      "t": 44705.86000000001,
      "d": 4705.879999999997,
      "v": 86
    },
    {
      "midi": 63,
      "hit": false,
      "t": 44705.86000000001,
      "d": 4705.879999999997,
      "v": 111
    },
    {
      "midi": 74,
      "hit": false,
      "t": 55882.325000000004,
      "d": 294.1175000000003,
      "v": 124
    },
    {
      "midi": 75,
      "hit": false,
      "t": 56176.442500000005,
      "d": 294.1175000000003,
      "v": 114
    },
    {
      "midi": 79,
      "hit": false,
      "t": 56470.560000000005,
      "d": 2352.9400000000023,
      "v": 119
    },
    {
      "midi": 44,
      "hit": false,
      "t": 58823.50000000001,
      "d": 2352.9400000000023,
      "v": 108
    },
    {
      "midi": 56,
      "hit": false,
      "t": 59117.61750000001,
      "d": 2058.822500000002,
      "v": 111
    },
    {
      "midi": 58,
      "hit": false,
      "t": 59411.73500000001,
      "d": 1764.7050000000017,
      "v": 101
    },
    {
      "midi": 63,
      "hit": false,
      "t": 59705.85250000001,
      "d": 1470.5875000000015,
      "v": 97
    },
    {
      "midi": 46,
      "hit": false,
      "t": 61176.44000000001,
      "d": 2352.9400000000023,
      "v": 104
    },
    {
      "midi": 53,
      "hit": false,
      "t": 61470.55750000001,
      "d": 2058.822500000002,
      "v": 113
    },
    {
      "midi": 58,
      "hit": false,
      "t": 61764.67500000001,
      "d": 1764.7050000000017,
      "v": 108
    },
    {
      "midi": 63,
      "hit": false,
      "t": 62058.79250000001,
      "d": 1470.5875000000015,
      "v": 101
    },
    {
      "midi": 62,
      "hit": false,
      "t": 62647.02750000001,
      "d": 882.3525000000009,
      "v": 97
    },
    {
      "midi": 44,
      "hit": false,
      "t": 63529.38000000001,
      "d": 2352.939999999995,
      "v": 104
    },
    {
      "midi": 56,
      "hit": false,
      "t": 63823.49750000001,
      "d": 2058.8224999999948,
      "v": 99
    },
    {
      "midi": 58,
      "hit": false,
      "t": 64117.61500000001,
      "d": 1764.7049999999945,
      "v": 112
    },
    {
      "midi": 63,
      "hit": false,
      "t": 64411.73250000001,
      "d": 1470.5874999999942,
      "v": 101
    },
    {
      "midi": 46,
      "hit": false,
      "t": 65882.32,
      "d": 2352.939999999973,
      "v": 109
    },
    {
      "midi": 53,
      "hit": false,
      "t": 66176.4375,
      "d": 2058.82249999998,
      "v": 113
    },
    {
      "midi": 58,
      "hit": false,
      "t": 66470.555,
      "d": 1764.7049999999872,
      "v": 113
    },
    {
      "midi": 63,
      "hit": false,
      "t": 66764.67249999999,
      "d": 1470.5874999999942,
      "v": 95
    },
    {
      "midi": 62,
      "hit": false,
      "t": 67352.90749999999,
      "d": 882.3524999999936,
      "v": 92
    },
    {
      "midi": 56,
      "hit": false,
      "t": 68529.37749999997,
      "d": 2058.82249999998,
      "v": 111
    },
    {
      "midi": 58,
      "hit": false,
      "t": 68823.49499999997,
      "d": 1764.7049999999872,
      "v": 101
    },
    {
      "midi": 63,
      "hit": false,
      "t": 69117.61249999996,
      "d": 1470.5874999999942,
      "v": 97
    },
    {
      "midi": 53,
      "hit": false,
      "t": 70882.31749999995,
      "d": 2058.82249999998,
      "v": 113
    },
    {
      "midi": 58,
      "hit": false,
      "t": 71176.43499999994,
      "d": 1764.7049999999872,
      "v": 108
    },
    {
      "midi": 63,
      "hit": false,
      "t": 71470.55249999993,
      "d": 1470.5874999999942,
      "v": 101
    },
    {
      "midi": 44,
      "hit": false,
      "t": 72941.13999999993,
      "d": 2352.939999999973,
      "v": 104
    },
    {
      "midi": 56,
      "hit": false,
      "t": 73235.25749999992,
      "d": 2058.82249999998,
      "v": 99
    },
    {
      "midi": 58,
      "hit": false,
      "t": 73529.37499999991,
      "d": 1764.7049999999872,
      "v": 112
    },
    {
      "midi": 63,
      "hit": false,
      "t": 73823.4924999999,
      "d": 1470.5874999999942,
      "v": 101
    },
    {
      "midi": 46,
      "hit": false,
      "t": 75294.0799999999,
      "d": 2352.939999999973,
      "v": 109
    },
    {
      "midi": 53,
      "hit": false,
      "t": 75588.1974999999,
      "d": 2058.82249999998,
      "v": 113
    },
    {
      "midi": 58,
      "hit": false,
      "t": 75882.31499999989,
      "d": 1764.7049999999872,
      "v": 113
    },
    {
      "midi": 62,
      "hit": false,
      "t": 76764.66749999988,
      "d": 882.3524999999936,
      "v": 92
    },
    {
      "midi": 63,
      "hit": false,
      "t": 94999.95249999987,
      "d": 294.117499999993,
      "v": 104
    },
    {
      "midi": 62,
      "hit": false,
      "t": 95294.06999999986,
      "d": 441.1762500000041,
      "v": 97
    },
    {
      "midi": 60,
      "hit": false,
      "t": 95735.24624999987,
      "d": 441.1762500000041,
      "v": 121
    },
    {
      "midi": 56,
      "hit": false,
      "t": 96176.42249999987,
      "d": 294.117499999993,
      "v": 127
    },
    {
      "midi": 55,
      "hit": false,
      "t": 96470.53999999986,
      "d": 2352.9400000000023,
      "v": 103
    },
    {
      "midi": 72,
      "hit": false,
      "t": 104999.94749999986,
      "d": 294.117499999993,
      "v": 123
    },
    {
      "midi": 74,
      "hit": false,
      "t": 105294.06499999986,
      "d": 294.117499999993,
      "v": 116
    },
    {
      "midi": 75,
      "hit": false,
      "t": 105588.18249999985,
      "d": 294.117499999993,
      "v": 105
    },
    {
      "midi": 82,
      "hit": false,
      "t": 105882.29999999984,
      "d": 2058.8224999999948,
      "v": 105
    },
    {
      "midi": 82,
      "hit": false,
      "t": 110294.06249999984,
      "d": 294.117499999993,
      "v": 125
    },
    {
      "midi": 55,
      "hit": false,
      "t": 110588.17999999983,
      "d": 4705.879999999976,
      "v": 94
    },
    {
      "midi": 60,
      "hit": false,
      "t": 110588.17999999983,
      "d": 4705.879999999976,
      "v": 86
    },
    {
      "midi": 63,
      "hit": false,
      "t": 110588.17999999983,
      "d": 4705.879999999976,
      "v": 111
    },
    {
      "midi": 74,
      "hit": false,
      "t": 114117.58999999984,
      "d": 294.117499999993,
      "v": 123
    },
    {
      "midi": 75,
      "hit": false,
      "t": 114411.70749999983,
      "d": 294.117499999993,
      "v": 107
    },
    {
      "midi": 72,
      "hit": false,
      "t": 114705.82499999982,
      "d": 294.117499999993,
      "v": 122
    },
    {
      "midi": 74,
      "hit": false,
      "t": 114999.94249999982,
      "d": 2647.0574999999953,
      "v": 122
    },
    {
      "midi": 74,
      "hit": false,
      "t": 121764.64499999981,
      "d": 294.117499999993,
      "v": 124
    },
    {
      "midi": 75,
      "hit": false,
      "t": 122058.76249999981,
      "d": 294.117499999993,
      "v": 114
    },
    {
      "midi": 79,
      "hit": false,
      "t": 122352.8799999998,
      "d": 2352.9400000000023,
      "v": 119
    },
    {
      "midi": 44,
      "hit": false,
      "t": 124705.8199999998,
      "d": 2352.939999999973,
      "v": 108
    },
    {
      "midi": 56,
      "hit": false,
      "t": 124999.9374999998,
      "d": 2058.82249999998,
      "v": 111
    },
    {
      "midi": 58,
      "hit": false,
      "t": 125294.05499999979,
      "d": 1764.7049999999872,
      "v": 101
    },
    {
      "midi": 63,
      "hit": false,
      "t": 125588.17249999978,
      "d": 1470.5874999999942,
      "v": 97
    },
    {
      "midi": 46,
      "hit": false,
      "t": 127058.75999999978,
      "d": 2352.939999999973,
      "v": 104
    },
    {
      "midi": 53,
      "hit": false,
      "t": 127352.87749999977,
      "d": 2058.82249999998,
      "v": 113
    },
    {
      "midi": 58,
      "hit": false,
      "t": 127646.99499999976,
      "d": 1764.7049999999872,
      "v": 108
    },
    {
      "midi": 63,
      "hit": false,
      "t": 127941.11249999976,
      "d": 1470.5874999999942,
      "v": 101
    },
    {
      "midi": 62,
      "hit": false,
      "t": 128529.34749999976,
      "d": 882.3524999999936,
      "v": 97
    },
    {
      "midi": 44,
      "hit": false,
      "t": 129411.69999999975,
      "d": 2352.939999999973,
      "v": 104
    },
    {
      "midi": 56,
      "hit": false,
      "t": 129705.81749999974,
      "d": 2058.82249999998,
      "v": 99
    },
    {
      "midi": 58,
      "hit": false,
      "t": 129999.93499999974,
      "d": 1764.7049999999872,
      "v": 112
    },
    {
      "midi": 63,
      "hit": false,
      "t": 130294.05249999973,
      "d": 1470.5874999999942,
      "v": 101
    },
    {
      "midi": 46,
      "hit": false,
      "t": 131764.63999999972,
      "d": 2352.939999999973,
      "v": 109
    },
    {
      "midi": 53,
      "hit": false,
      "t": 132058.75749999972,
      "d": 2058.82249999998,
      "v": 113
    },
    {
      "midi": 58,
      "hit": false,
      "t": 132352.8749999997,
      "d": 1764.7049999999872,
      "v": 113
    },
    {
      "midi": 63,
      "hit": false,
      "t": 132646.9924999997,
      "d": 1470.5874999999942,
      "v": 95
    },
    {
      "midi": 62,
      "hit": false,
      "t": 133235.2274999997,
      "d": 882.3525000000081,
      "v": 92
    },
    {
      "midi": 56,
      "hit": false,
      "t": 134411.6974999997,
      "d": 2058.82249999998,
      "v": 111
    },
    {
      "midi": 58,
      "hit": false,
      "t": 134705.81499999968,
      "d": 1764.7049999999872,
      "v": 101
    },
    {
      "midi": 63,
      "hit": false,
      "t": 134999.93249999968,
      "d": 1470.5874999999942,
      "v": 97
    },
    {
      "midi": 53,
      "hit": false,
      "t": 136764.63749999966,
      "d": 2058.82249999998,
      "v": 113
    },
    {
      "midi": 58,
      "hit": false,
      "t": 137058.75499999966,
      "d": 1764.7049999999872,
      "v": 108
    },
    {
      "midi": 63,
      "hit": false,
      "t": 137352.87249999965,
      "d": 1470.5874999999942,
      "v": 101
    },
    {
      "midi": 44,
      "hit": false,
      "t": 162352.85999999964,
      "d": 2352.939999999973,
      "v": 108
    },
    {
      "midi": 60,
      "hit": false,
      "t": 162352.85999999964,
      "d": 2352.939999999973,
      "v": 108
    },
    {
      "midi": 56,
      "hit": false,
      "t": 162646.97749999963,
      "d": 2058.82249999998,
      "v": 111
    },
    {
      "midi": 58,
      "hit": false,
      "t": 162941.09499999962,
      "d": 1764.7049999999872,
      "v": 101
    },
    {
      "midi": 63,
      "hit": false,
      "t": 163235.21249999962,
      "d": 1470.5874999999942,
      "v": 97
    },
    {
      "midi": 46,
      "hit": false,
      "t": 164705.7999999996,
      "d": 2352.939999999973,
      "v": 104
    },
    {
      "midi": 53,
      "hit": false,
      "t": 164999.9174999996,
      "d": 2058.82249999998,
      "v": 113
    },
    {
      "midi": 58,
      "hit": false,
      "t": 165294.0349999996,
      "d": 1764.7049999999872,
      "v": 108
    },
    {
      "midi": 63,
      "hit": false,
      "t": 165588.1524999996,
      "d": 1470.5874999999942,
      "v": 101
    },
    {
      "midi": 62,
      "hit": false,
      "t": 166176.38749999958,
      "d": 882.3525000000081,
      "v": 97
    },
    {
      "midi": 44,
      "hit": false,
      "t": 167058.73999999958,
      "d": 2352.939999999973,
      "v": 104
    },
    {
      "midi": 56,
      "hit": false,
      "t": 167352.85749999958,
      "d": 2058.82249999998,
      "v": 99
    },
    {
      "midi": 58,
      "hit": false,
      "t": 167646.97499999957,
      "d": 1764.7049999999872,
      "v": 112
    },
    {
      "midi": 63,
      "hit": false,
      "t": 167941.09249999956,
      "d": 1470.5874999999942,
      "v": 101
    },
    {
      "midi": 46,
      "hit": false,
      "t": 169411.67999999956,
      "d": 2352.939999999973,
      "v": 109
    },
    {
      "midi": 53,
      "hit": false,
      "t": 169705.79749999955,
      "d": 2058.82249999998,
      "v": 113
    },
    {
      "midi": 58,
      "hit": false,
      "t": 169999.91499999954,
      "d": 1764.7049999999872,
      "v": 113
    },
    {
      "midi": 63,
      "hit": false,
      "t": 170294.03249999954,
      "d": 1470.5874999999942,
      "v": 95
    },
    {
      "midi": 62,
      "hit": false,
      "t": 170882.26749999952,
      "d": 882.3525000000081,
      "v": 92
    },
    {
      "midi": 41,
      "hit": false,
      "t": 171764.61999999953,
      "d": 2352.939999999973,
      "v": 127
    },
    {
      "midi": 56,
      "hit": false,
      "t": 172058.73749999952,
      "d": 2058.82249999998,
      "v": 111
    },
    {
      "midi": 58,
      "hit": false,
      "t": 172352.85499999952,
      "d": 1764.7049999999872,
      "v": 101
    },
    {
      "midi": 63,
      "hit": false,
      "t": 172646.9724999995,
      "d": 1470.5874999999942,
      "v": 97
    },
    {
      "midi": 43,
      "hit": false,
      "t": 174117.5599999995,
      "d": 2352.939999999973,
      "v": 127
    },
    {
      "midi": 53,
      "hit": false,
      "t": 174411.6774999995,
      "d": 2058.82249999998,
      "v": 113
    },
    {
      "midi": 58,
      "hit": false,
      "t": 174705.7949999995,
      "d": 1764.7049999999872,
      "v": 108
    },
    {
      "midi": 63,
      "hit": false,
      "t": 174999.91249999948,
      "d": 1470.5874999999942,
      "v": 101
    },
    {
      "midi": 44,
      "hit": false,
      "t": 176470.49999999948,
      "d": 2352.939999999973,
      "v": 104
    },
    {
      "midi": 56,
      "hit": false,
      "t": 176764.61749999947,
      "d": 2058.82249999998,
      "v": 99
    },
    {
      "midi": 58,
      "hit": false,
      "t": 177058.73499999946,
      "d": 1764.7049999999872,
      "v": 112
    },
    {
      "midi": 63,
      "hit": false,
      "t": 177352.85249999946,
      "d": 1470.5874999999942,
      "v": 101
    },
    {
      "midi": 46,
      "hit": false,
      "t": 178823.43999999945,
      "d": 2352.9400000000023,
      "v": 109
    },
    {
      "midi": 53,
      "hit": false,
      "t": 179117.55749999944,
      "d": 2058.8225000000093,
      "v": 113
    },
    {
      "midi": 58,
      "hit": false,
      "t": 179411.67499999944,
      "d": 1764.7050000000163,
      "v": 113
    },
    {
      "midi": 62,
      "hit": false,
      "t": 180294.02749999944,
      "d": 882.3525000000081,
      "v": 92
    },
    {
      "midi": 44,
      "hit": false,
      "t": 181176.37999999945,
      "d": 2352.939999999973,
      "v": 108
    },
    {
      "midi": 56,
      "hit": false,
      "t": 181470.49749999944,
      "d": 2058.82249999998,
      "v": 111
    },
    {
      "midi": 58,
      "hit": false,
      "t": 181764.61499999944,
      "d": 1764.7049999999872,
      "v": 101
    },
    {
      "midi": 63,
      "hit": false,
      "t": 182058.73249999943,
      "d": 1470.5874999999942,
      "v": 97
    },
    {
      "midi": 46,
      "hit": false,
      "t": 183529.31999999942,
      "d": 2352.939999999973,
      "v": 104
    },
    {
      "midi": 53,
      "hit": false,
      "t": 183823.43749999942,
      "d": 2058.82249999998,
      "v": 113
    },
    {
      "midi": 58,
      "hit": false,
      "t": 184117.5549999994,
      "d": 1764.7049999999872,
      "v": 108
    },
    {
      "midi": 63,
      "hit": false,
      "t": 184411.6724999994,
      "d": 1470.5874999999942,
      "v": 101
    },
    {
      "midi": 62,
      "hit": false,
      "t": 184999.9074999994,
      "d": 882.3525000000081,
      "v": 97
    },
    {
      "midi": 44,
      "hit": false,
      "t": 185882.2599999994,
      "d": 2352.939999999973,
      "v": 104
    },
    {
      "midi": 56,
      "hit": false,
      "t": 186176.3774999994,
      "d": 2058.82249999998,
      "v": 99
    },
    {
      "midi": 58,
      "hit": false,
      "t": 186470.49499999938,
      "d": 1764.7049999999872,
      "v": 112
    },
    {
      "midi": 63,
      "hit": false,
      "t": 186764.61249999938,
      "d": 1470.5874999999942,
      "v": 101
    },
    {
      "midi": 46,
      "hit": false,
      "t": 188235.19999999937,
      "d": 2352.939999999973,
      "v": 109
    },
    {
      "midi": 53,
      "hit": false,
      "t": 188529.31749999936,
      "d": 2058.82249999998,
      "v": 113
    },
    {
      "midi": 58,
      "hit": false,
      "t": 188823.43499999936,
      "d": 1764.7049999999872,
      "v": 113
    },
    {
      "midi": 63,
      "hit": false,
      "t": 189117.55249999935,
      "d": 1470.5874999999942,
      "v": 95
    },
    {
      "midi": 62,
      "hit": false,
      "t": 189705.78749999934,
      "d": 882.3525000000081,
      "v": 92
    },
    {
      "midi": 56,
      "hit": false,
      "t": 190882.25749999934,
      "d": 2058.82249999998,
      "v": 111
    },
    {
      "midi": 58,
      "hit": false,
      "t": 191176.37499999933,
      "d": 1764.7049999999872,
      "v": 101
    },
    {
      "midi": 63,
      "hit": false,
      "t": 191470.49249999932,
      "d": 1470.5874999999942,
      "v": 97
    },
    {
      "midi": 53,
      "hit": false,
      "t": 193235.1974999993,
      "d": 2058.82249999998,
      "v": 113
    },
    {
      "midi": 58,
      "hit": false,
      "t": 193529.3149999993,
      "d": 1764.7049999999872,
      "v": 108
    },
    {
      "midi": 63,
      "hit": false,
      "t": 193823.4324999993,
      "d": 1470.5874999999942,
      "v": 101
    },
    {
      "midi": 44,
      "hit": false,
      "t": 195294.0199999993,
      "d": 2352.939999999973,
      "v": 104
    },
    {
      "midi": 56,
      "hit": false,
      "t": 195588.13749999928,
      "d": 2058.82249999998,
      "v": 99
    },
    {
      "midi": 58,
      "hit": false,
      "t": 195882.25499999928,
      "d": 1764.7049999999872,
      "v": 112
    },
    {
      "midi": 63,
      "hit": false,
      "t": 196176.37249999927,
      "d": 1470.5874999999942,
      "v": 101
    },
    {
      "midi": 46,
      "hit": false,
      "t": 197646.95999999926,
      "d": 2352.9400000000023,
      "v": 109
    },
    {
      "midi": 53,
      "hit": false,
      "t": 197941.07749999926,
      "d": 2058.8225000000093,
      "v": 113
    },
    {
      "midi": 58,
      "hit": false,
      "t": 198235.19499999925,
      "d": 1764.7050000000163,
      "v": 113
    },
    {
      "midi": 62,
      "hit": false,
      "t": 199117.54749999926,
      "d": 882.3525000000081,
      "v": 92
    },
    {
      "midi": 44,
      "hit": false,
      "t": 199999.89999999927,
      "d": 2352.939999999973,
      "v": 108
    },
    {
      "midi": 56,
      "hit": false,
      "t": 200294.01749999926,
      "d": 2058.82249999998,
      "v": 111
    },
    {
      "midi": 58,
      "hit": false,
      "t": 200588.13499999925,
      "d": 1764.7049999999872,
      "v": 101
    },
    {
      "midi": 63,
      "hit": false,
      "t": 200882.25249999925,
      "d": 1470.5874999999942,
      "v": 97
    },
    {
      "midi": 46,
      "hit": false,
      "t": 202352.83999999924,
      "d": 2352.939999999973,
      "v": 104
    },
    {
      "midi": 53,
      "hit": false,
      "t": 202646.95749999923,
      "d": 2058.82249999998,
      "v": 113
    },
    {
      "midi": 58,
      "hit": false,
      "t": 202941.07499999923,
      "d": 1764.7049999999872,
      "v": 108
    },
    {
      "midi": 63,
      "hit": false,
      "t": 203235.19249999922,
      "d": 1470.5874999999942,
      "v": 101
    },
    {
      "midi": 62,
      "hit": false,
      "t": 203823.4274999992,
      "d": 882.3525000000081,
      "v": 97
    },
    {
      "midi": 44,
      "hit": false,
      "t": 204705.7799999992,
      "d": 2352.939999999973,
      "v": 104
    },
    {
      "midi": 56,
      "hit": false,
      "t": 204999.8974999992,
      "d": 2058.82249999998,
      "v": 99
    },
    {
      "midi": 58,
      "hit": false,
      "t": 205294.0149999992,
      "d": 1764.7049999999872,
      "v": 112
    },
    {
      "midi": 63,
      "hit": false,
      "t": 205588.1324999992,
      "d": 1470.5874999999942,
      "v": 101
    },
    {
      "midi": 46,
      "hit": false,
      "t": 207058.7199999992,
      "d": 2352.939999999973,
      "v": 109
    },
    {
      "midi": 53,
      "hit": false,
      "t": 207352.83749999918,
      "d": 2058.82249999998,
      "v": 113
    },
    {
      "midi": 58,
      "hit": false,
      "t": 207646.95499999917,
      "d": 1764.7049999999872,
      "v": 113
    },
    {
      "midi": 63,
      "hit": false,
      "t": 207941.07249999917,
      "d": 1470.5874999999942,
      "v": 95
    },
    {
      "midi": 62,
      "hit": false,
      "t": 208529.30749999915,
      "d": 882.3525000000081,
      "v": 92
    },
    {
      "midi": 56,
      "hit": false,
      "t": 209705.77749999915,
      "d": 2058.82249999998,
      "v": 111
    },
    {
      "midi": 58,
      "hit": false,
      "t": 209999.89499999915,
      "d": 1764.7049999999872,
      "v": 101
    },
    {
      "midi": 63,
      "hit": false,
      "t": 210294.01249999914,
      "d": 1470.5874999999942,
      "v": 97
    },
    {
      "midi": 53,
      "hit": false,
      "t": 212058.71749999913,
      "d": 2058.82249999998,
      "v": 113
    },
    {
      "midi": 58,
      "hit": false,
      "t": 212352.83499999912,
      "d": 1764.7049999999872,
      "v": 108
    },
    {
      "midi": 63,
      "hit": false,
      "t": 212646.9524999991,
      "d": 1470.5874999999942,
      "v": 101
    },
    {
      "midi": 44,
      "hit": false,
      "t": 214117.5399999991,
      "d": 2352.939999999973,
      "v": 104
    },
    {
      "midi": 56,
      "hit": false,
      "t": 214411.6574999991,
      "d": 2058.82249999998,
      "v": 99
    },
    {
      "midi": 58,
      "hit": false,
      "t": 214705.7749999991,
      "d": 1764.7049999999872,
      "v": 112
    },
    {
      "midi": 63,
      "hit": false,
      "t": 214999.89249999908,
      "d": 1470.5874999999942,
      "v": 101
    },
    {
      "midi": 46,
      "hit": false,
      "t": 216470.47999999908,
      "d": 2352.9400000000023,
      "v": 109
    },
    {
      "midi": 53,
      "hit": false,
      "t": 216764.59749999907,
      "d": 2058.8225000000093,
      "v": 113
    },
    {
      "midi": 58,
      "hit": false,
      "t": 217058.71499999907,
      "d": 1764.7050000000163,
      "v": 113
    },
    {
      "midi": 62,
      "hit": false,
      "t": 217941.06749999907,
      "d": 882.3525000000081,
      "v": 92
    },
    {
      "midi": 44,
      "hit": false,
      "t": 218823.41999999908,
      "d": 2352.939999999973,
      "v": 108
    },
    {
      "midi": 56,
      "hit": false,
      "t": 219117.53749999907,
      "d": 2058.82249999998,
      "v": 111
    },
    {
      "midi": 58,
      "hit": false,
      "t": 219411.65499999907,
      "d": 1764.7049999999872,
      "v": 101
    },
    {
      "midi": 63,
      "hit": false,
      "t": 219705.77249999906,
      "d": 1470.5874999999942,
      "v": 97
    },
    {
      "midi": 46,
      "hit": false,
      "t": 221176.35999999905,
      "d": 2352.939999999973,
      "v": 104
    },
    {
      "midi": 53,
      "hit": false,
      "t": 221470.47749999905,
      "d": 2058.82249999998,
      "v": 113
    },
    {
      "midi": 58,
      "hit": false,
      "t": 221764.59499999904,
      "d": 1764.7049999999872,
      "v": 108
    },
    {
      "midi": 63,
      "hit": false,
      "t": 222058.71249999903,
      "d": 1470.5874999999942,
      "v": 101
    },
    {
      "midi": 62,
      "hit": false,
      "t": 222646.94749999902,
      "d": 882.3525000000081,
      "v": 97
    },
    {
      "midi": 44,
      "hit": false,
      "t": 223529.29999999903,
      "d": 2352.939999999973,
      "v": 104
    },
    {
      "midi": 56,
      "hit": false,
      "t": 223823.41749999902,
      "d": 2058.82249999998,
      "v": 99
    },
    {
      "midi": 58,
      "hit": false,
      "t": 224117.534999999,
      "d": 1764.7049999999872,
      "v": 112
    },
    {
      "midi": 63,
      "hit": false,
      "t": 224411.652499999,
      "d": 1470.5874999999942,
      "v": 101
    },
    {
      "midi": 46,
      "hit": false,
      "t": 225882.239999999,
      "d": 2352.939999999973,
      "v": 109
    },
    {
      "midi": 53,
      "hit": false,
      "t": 226176.357499999,
      "d": 2058.82249999998,
      "v": 113
    },
    {
      "midi": 58,
      "hit": false,
      "t": 226470.474999999,
      "d": 1764.7049999999872,
      "v": 113
    },
    {
      "midi": 63,
      "hit": false,
      "t": 226764.59249999898,
      "d": 1470.5874999999942,
      "v": 95
    },
    {
      "midi": 62,
      "hit": false,
      "t": 227352.82749999897,
      "d": 882.3525000000081,
      "v": 92
    },
    {
      "midi": 56,
      "hit": false,
      "t": 228529.29749999897,
      "d": 2058.82249999998,
      "v": 111
    },
    {
      "midi": 58,
      "hit": false,
      "t": 228823.41499999896,
      "d": 1764.7049999999872,
      "v": 101
    },
    {
      "midi": 63,
      "hit": false,
      "t": 229117.53249999895,
      "d": 1470.5874999999942,
      "v": 97
    },
    {
      "midi": 53,
      "hit": false,
      "t": 230882.23749999894,
      "d": 2058.82249999998,
      "v": 113
    },
    {
      "midi": 58,
      "hit": false,
      "t": 231176.35499999893,
      "d": 1764.7049999999872,
      "v": 108
    },
    {
      "midi": 63,
      "hit": false,
      "t": 231470.47249999893,
      "d": 1470.5874999999942,
      "v": 101
    },
    {
      "midi": 44,
      "hit": false,
      "t": 232941.05999999892,
      "d": 2352.939999999973,
      "v": 104
    },
    {
      "midi": 56,
      "hit": false,
      "t": 233235.1774999989,
      "d": 2058.82249999998,
      "v": 99
    },
    {
      "midi": 58,
      "hit": false,
      "t": 233529.2949999989,
      "d": 1764.7049999999872,
      "v": 112
    },
    {
      "midi": 63,
      "hit": false,
      "t": 233823.4124999989,
      "d": 1470.5874999999942,
      "v": 101
    },
    {
      "midi": 46,
      "hit": false,
      "t": 235293.9999999989,
      "d": 2352.9400000000023,
      "v": 109
    },
    {
      "midi": 53,
      "hit": false,
      "t": 235588.1174999989,
      "d": 2058.8225000000093,
      "v": 113
    },
    {
      "midi": 58,
      "hit": false,
      "t": 235882.23499999888,
      "d": 1764.7050000000163,
      "v": 113
    },
    {
      "midi": 62,
      "hit": false,
      "t": 236764.5874999989,
      "d": 882.3525000000081,
      "v": 92
    }
  ]
}