{
  "jsonPath": "Animes/Ah My Goddess MIDI Collection/despaired-of.json",
  "path": "Animes\\Ah My Goddess MIDI Collection\\Despaired of.mid",
  "name": "Despaired of",
  "difficulty": "Advanced",
  "bpm": 65.00260010400416,
  "notes": [
    {
      "midi": 57,
      "hit": false,
      "t": 7987.2,
      "d": 894.4000000000005,
      "v": 100
    },
    {
      "midi": 57,
      "hit": false,
      "t": 7987.2,
      "d": 894.4000000000005,
      "v": 100
    },
    {
      "midi": 69,
      "hit": false,
      "t": 7987.2,
      "d": 894.4000000000005,
      "v": 100
    },
    {
      "midi": 81,
      "hit": false,
      "t": 7987.2,
      "d": 894.4000000000005,
      "v": 100
    },
    {
      "midi": 33,
      "hit": false,
      "t": 7987.2,
      "d": 16015.999999999996,
      "v": 100
    },
    {
      "midi": 57,
      "hit": false,
      "t": 7987.2,
      "d": 894.4000000000005,
      "v": 100
    },
    {
      "midi": 45,
      "hit": false,
      "t": 7987.2,
      "d": 16015.999999999996,
      "v": 100
    },
    {
      "midi": 69,
      "hit": false,
      "t": 7987.2,
      "d": 894.4000000000005,
      "v": 100
    },
    {
      "midi": 64,
      "hit": false,
      "t": 8985.6,
      "d": 1788.7999999999993,
      "v": 100
    },
    {
      "midi": 64,
      "hit": false,
      "t": 8985.6,
      "d": 1788.7999999999993,
      "v": 100
    },
    {
      "midi": 76,
      "hit": false,
      "t": 8985.6,
      "d": 1788.7999999999993,
      "v": 100
    },
    {
      "midi": 88,
      "hit": false,
      "t": 8985.6,
      "d": 1788.7999999999993,
      "v": 100
    },
    {
      "midi": 64,
      "hit": false,
      "t": 8985.6,
      "d": 1788.7999999999993,
      "v": 100
    },
    {
      "midi": 76,
      "hit": false,
      "t": 8985.6,
      "d": 1788.7999999999993,
      "v": 100
    },
    {
      "midi": 59,
      "hit": false,
      "t": 10982.4,
      "d": 291.2000000000007,
      "v": 100
    },
    {
      "midi": 59,
      "hit": false,
      "t": 10982.4,
      "d": 291.2000000000007,
      "v": 100
    },
    {
      "midi": 71,
      "hit": false,
      "t": 10982.4,
      "d": 291.2000000000007,
      "v": 100
    },
    {
      "midi": 83,
      "hit": false,
      "t": 10982.4,
      "d": 291.2000000000007,
      "v": 100
    },
    {
      "midi": 59,
      "hit": false,
      "t": 10982.4,
      "d": 291.2000000000007,
      "v": 100
    },
    {
      "midi": 71,
      "hit": false,
      "t": 10982.4,
      "d": 291.2000000000007,
      "v": 100
    },
    {
      "midi": 60,
      "hit": false,
      "t": 11315.2,
      "d": 291.2000000000007,
      "v": 100
    },
    {
      "midi": 60,
      "hit": false,
      "t": 11315.2,
      "d": 291.2000000000007,
      "v": 100
    },
    {
      "midi": 72,
      "hit": false,
      "t": 11315.2,
      "d": 291.2000000000007,
      "v": 100
    },
    {
      "midi": 84,
      "hit": false,
      "t": 11315.2,
      "d": 291.2000000000007,
      "v": 100
    },
    {
      "midi": 60,
      "hit": false,
      "t": 11315.2,
      "d": 291.2000000000007,
      "v": 100
    },
    {
      "midi": 72,
      "hit": false,
      "t": 11315.2,
      "d": 291.2000000000007,
      "v": 100
    },
    {
      "midi": 62,
      "hit": false,
      "t": 11648.000000000002,
      "d": 291.2000000000007,
      "v": 100
    },
    {
      "midi": 62,
      "hit": false,
      "t": 11648.000000000002,
      "d": 291.2000000000007,
      "v": 100
    },
    {
      "midi": 74,
      "hit": false,
      "t": 11648.000000000002,
      "d": 291.2000000000007,
      "v": 100
    },
    {
      "midi": 86,
      "hit": false,
      "t": 11648.000000000002,
      "d": 291.2000000000007,
      "v": 100
    },
    {
      "midi": 62,
      "hit": false,
      "t": 11648.000000000002,
      "d": 291.2000000000007,
      "v": 100
    },
    {
      "midi": 74,
      "hit": false,
      "t": 11648.000000000002,
      "d": 291.2000000000007,
      "v": 100
    },
    {
      "midi": 57,
      "hit": false,
      "t": 11980.800000000003,
      "d": 894.3999999999996,
      "v": 100
    },
    {
      "midi": 57,
      "hit": false,
      "t": 11980.800000000003,
      "d": 894.3999999999996,
      "v": 100
    },
    {
      "midi": 69,
      "hit": false,
      "t": 11980.800000000003,
      "d": 894.3999999999996,
      "v": 100
    },
    {
      "midi": 81,
      "hit": false,
      "t": 11980.800000000003,
      "d": 894.3999999999996,
      "v": 100
    },
    {
      "midi": 57,
      "hit": false,
      "t": 11980.800000000003,
      "d": 894.3999999999996,
      "v": 100
    },
    {
      "midi": 69,
      "hit": false,
      "t": 11980.800000000003,
      "d": 894.3999999999996,
      "v": 100
    },
    {
      "midi": 64,
      "hit": false,
      "t": 12979.200000000003,
      "d": 2787.199999999999,
      "v": 100
    },
    {
      "midi": 64,
      "hit": false,
      "t": 12979.200000000003,
      "d": 2787.199999999999,
      "v": 100
    },
    {
      "midi": 76,
      "hit": false,
      "t": 12979.200000000003,
      "d": 2787.199999999999,
      "v": 100
    },
    {
      "midi": 88,
      "hit": false,
      "t": 12979.200000000003,
      "d": 2787.199999999999,
      "v": 100
    },
    {
      "midi": 64,
      "hit": false,
      "t": 12979.200000000003,
      "d": 2787.199999999999,
      "v": 100
    },
    {
      "midi": 76,
      "hit": false,
      "t": 12979.200000000003,
      "d": 2787.199999999999,
      "v": 100
    },
    {
      "midi": 57,
      "hit": false,
      "t": 15974.400000000001,
      "d": 894.4000000000015,
      "v": 100
    },
    {
      "midi": 57,
      "hit": false,
      "t": 15974.400000000001,
      "d": 894.4000000000015,
      "v": 100
    },
    {
      "midi": 69,
      "hit": false,
      "t": 15974.400000000001,
      "d": 894.4000000000015,
      "v": 100
    },
    {
      "midi": 81,
      "hit": false,
      "t": 15974.400000000001,
      "d": 894.4000000000015,
      "v": 100
    },
    {
      "midi": 57,
      "hit": false,
      "t": 15974.400000000001,
      "d": 894.4000000000015,
      "v": 100
    },
    {
      "midi": 69,
      "hit": false,
      "t": 15974.400000000001,
      "d": 894.4000000000015,
      "v": 100
    },
    {
      "midi": 64,
      "hit": false,
      "t": 16972.800000000003,
      "d": 1788.7999999999993,
      "v": 100
    },
    {
      "midi": 64,
      "hit": false,
      "t": 16972.800000000003,
      "d": 1788.7999999999993,
      "v": 100
    },
    {
      "midi": 76,
      "hit": false,
      "t": 16972.800000000003,
      "d": 1788.7999999999993,
      "v": 100
    },
    {
      "midi": 88,
      "hit": false,
      "t": 16972.800000000003,
      "d": 1788.7999999999993,
      "v": 100
    },
    {
      "midi": 64,
      "hit": false,
      "t": 16972.800000000003,
      "d": 1788.7999999999993,
      "v": 100
    },
    {
      "midi": 76,
      "hit": false,
      "t": 16972.800000000003,
      "d": 1788.7999999999993,
      "v": 100
    },
    {
      "midi": 59,
      "hit": false,
      "t": 18969.600000000002,
      "d": 291.2000000000007,
      "v": 100
    },
    {
      "midi": 59,
      "hit": false,
      "t": 18969.600000000002,
      "d": 291.2000000000007,
      "v": 100
    },
    {
      "midi": 71,
      "hit": false,
      "t": 18969.600000000002,
      "d": 291.2000000000007,
      "v": 100
    },
    {
      "midi": 83,
      "hit": false,
      "t": 18969.600000000002,
      "d": 291.2000000000007,
      "v": 100
    },
    {
      "midi": 59,
      "hit": false,
      "t": 18969.600000000002,
      "d": 291.2000000000007,
      "v": 100
    },
    {
      "midi": 71,
      "hit": false,
      "t": 18969.600000000002,
      "d": 291.2000000000007,
      "v": 100
    },
    {
      "midi": 60,
      "hit": false,
      "t": 19302.4,
      "d": 291.2000000000007,
      "v": 100
    },
    {
      "midi": 60,
      "hit": false,
      "t": 19302.4,
      "d": 291.2000000000007,
      "v": 100
    },
    {
      "midi": 72,
      "hit": false,
      "t": 19302.4,
      "d": 291.2000000000007,
      "v": 100
    },
    {
      "midi": 84,
      "hit": false,
      "t": 19302.4,
      "d": 291.2000000000007,
      "v": 100
    },
    {
      "midi": 60,
      "hit": false,
      "t": 19302.4,
      "d": 291.2000000000007,
      "v": 100
    },
    {
      "midi": 72,
      "hit": false,
      "t": 19302.4,
      "d": 291.2000000000007,
      "v": 100
    },
    {
      "midi": 62,
      "hit": false,
      "t": 19635.2,
      "d": 291.2000000000007,
      "v": 100
    },
    {
      "midi": 62,
      "hit": false,
      "t": 19635.2,
      "d": 291.2000000000007,
      "v": 100
    },
    {
      "midi": 74,
      "hit": false,
      "t": 19635.2,
      "d": 291.2000000000007,
      "v": 100
    },
    {
      "midi": 86,
      "hit": false,
      "t": 19635.2,
      "d": 291.2000000000007,
      "v": 100
    },
    {
      "midi": 62,
      "hit": false,
      "t": 19635.2,
      "d": 291.2000000000007,
      "v": 100
    },
    {
      "midi": 74,
      "hit": false,
      "t": 19635.2,
      "d": 291.2000000000007,
      "v": 100
    },
    {
      "midi": 57,
      "hit": false,
      "t": 19968,
      "d": 894.4000000000015,
      "v": 100
    },
    {
      "midi": 57,
      "hit": false,
      "t": 19968,
      "d": 894.4000000000015,
      "v": 100
    },
    {
      "midi": 69,
      "hit": false,
      "t": 19968,
      "d": 894.4000000000015,
      "v": 100
    },
    {
      "midi": 81,
      "hit": false,
      "t": 19968,
      "d": 894.4000000000015,
      "v": 100
    },
    {
      "midi": 57,
      "hit": false,
      "t": 19968,
      "d": 894.4000000000015,
      "v": 100
    },
    {
      "midi": 69,
      "hit": false,
      "t": 19968,
      "d": 894.4000000000015,
      "v": 100
    },
    {
      "midi": 64,
      "hit": false,
      "t": 20966.4,
      "d": 2787.2000000000007,
      "v": 100
    },
    {
      "midi": 64,
      "hit": false,
      "t": 20966.4,
      "d": 2787.2000000000007,
      "v": 100
    },
    {
      "midi": 76,
      "hit": false,
      "t": 20966.4,
      "d": 2787.2000000000007,
      "v": 100
    },
    {
      "midi": 88,
      "hit": false,
      "t": 20966.4,
      "d": 2787.2000000000007,
      "v": 100
    },
    {
      "midi": 64,
      "hit": false,
      "t": 20966.4,
      "d": 2787.2000000000007,
      "v": 100
    },
    {
      "midi": 76,
      "hit": false,
      "t": 20966.4,
      "d": 2787.2000000000007,
      "v": 100
    },
    {
      "midi": 34,
      "hit": false,
      "t": 23961.6,
      "d": 15579.199999999997,
      "v": 100
    },
    {
      "midi": 46,
      "hit": false,
      "t": 23961.6,
      "d": 15579.199999999997,
      "v": 100
    },
    {
      "midi": 58,
      "hit": false,
      "t": 23961.600000000002,
      "d": 894.4000000000015,
      "v": 100
    },
    {
      "midi": 58,
      "hit": false,
      "t": 23961.600000000002,
      "d": 894.4000000000015,
      "v": 100
    },
    {
      "midi": 70,
      "hit": false,
      "t": 23961.600000000002,
      "d": 894.4000000000015,
      "v": 100
    },
    {
      "midi": 82,
      "hit": false,
      "t": 23961.600000000002,
      "d": 894.4000000000015,
      "v": 100
    },
    {
      "midi": 58,
      "hit": false,
      "t": 23961.600000000002,
      "d": 894.4000000000015,
      "v": 100
    },
    {
      "midi": 70,
      "hit": false,
      "t": 23961.600000000002,
      "d": 894.4000000000015,
      "v": 100
    },
    {
      "midi": 65,
      "hit": false,
      "t": 24960.000000000004,
      "d": 1788.7999999999993,
      "v": 100
    },
    {
      "midi": 65,
      "hit": false,
      "t": 24960.000000000004,
      "d": 1788.7999999999993,
      "v": 100
    },
    {
      "midi": 77,
      "hit": false,
      "t": 24960.000000000004,
      "d": 1788.7999999999993,
      "v": 100
    },
    {
      "midi": 89,
      "hit": false,
      "t": 24960.000000000004,
      "d": 1788.7999999999993,
      "v": 100
    },
    {
      "midi": 65,
      "hit": false,
      "t": 24960.000000000004,
      "d": 1788.7999999999993,
      "v": 100
    },
    {
      "midi": 77,
      "hit": false,
      "t": 24960.000000000004,
      "d": 1788.7999999999993,
      "v": 100
    },
    {
      "midi": 60,
      "hit": false,
      "t": 26956.800000000003,
      "d": 291.2000000000007,
      "v": 100
    },
    {
      "midi": 60,
      "hit": false,
      "t": 26956.800000000003,
      "d": 291.2000000000007,
      "v": 100
    },
    {
      "midi": 72,
      "hit": false,
      "t": 26956.800000000003,
      "d": 291.2000000000007,
      "v": 100
    },
    {
      "midi": 84,
      "hit": false,
      "t": 26956.800000000003,
      "d": 291.2000000000007,
      "v": 100
    },
    {
      "midi": 60,
      "hit": false,
      "t": 26956.800000000003,
      "d": 291.2000000000007,
      "v": 100
    },
    {
      "midi": 72,
      "hit": false,
      "t": 26956.800000000003,
      "d": 291.2000000000007,
      "v": 100
    },
    {
      "midi": 61,
      "hit": false,
      "t": 27289.600000000002,
      "d": 291.2000000000007,
      "v": 100
    },
    {
      "midi": 61,
      "hit": false,
      "t": 27289.600000000002,
      "d": 291.2000000000007,
      "v": 100
    },
    {
      "midi": 73,
      "hit": false,
      "t": 27289.600000000002,
      "d": 291.2000000000007,
      "v": 100
    },
    {
      "midi": 85,
      "hit": false,
      "t": 27289.600000000002,
      "d": 291.2000000000007,
      "v": 100
    },
    {
      "midi": 61,
      "hit": false,
      "t": 27289.600000000002,
      "d": 291.2000000000007,
      "v": 100
    },
    {
      "midi": 73,
      "hit": false,
      "t": 27289.600000000002,
      "d": 291.2000000000007,
      "v": 100
    },
    {
      "midi": 63,
      "hit": false,
      "t": 27622.4,
      "d": 291.2000000000007,
      "v": 100
    },
    {
      "midi": 63,
      "hit": false,
      "t": 27622.4,
      "d": 291.2000000000007,
      "v": 100
    },
    {
      "midi": 75,
      "hit": false,
      "t": 27622.4,
      "d": 291.2000000000007,
      "v": 100
    },
    {
      "midi": 87,
      "hit": false,
      "t": 27622.4,
      "d": 291.2000000000007,
      "v": 100
    },
    {
      "midi": 63,
      "hit": false,
      "t": 27622.4,
      "d": 291.2000000000007,
      "v": 100
    },
    {
      "midi": 75,
      "hit": false,
      "t": 27622.4,
      "d": 291.2000000000007,
      "v": 100
    },
    {
      "midi": 58,
      "hit": false,
      "t": 27955.2,
      "d": 894.4000000000015,
      "v": 100
    },
    {
      "midi": 58,
      "hit": false,
      "t": 27955.2,
      "d": 894.4000000000015,
      "v": 100
    },
    {
      "midi": 70,
      "hit": false,
      "t": 27955.2,
      "d": 894.4000000000015,
      "v": 100
    },
    {
      "midi": 82,
      "hit": false,
      "t": 27955.2,
      "d": 894.4000000000015,
      "v": 100
    },
    {
      "midi": 58,
      "hit": false,
      "t": 27955.2,
      "d": 894.4000000000015,
      "v": 100
    },
    {
      "midi": 70,
      "hit": false,
      "t": 27955.2,
      "d": 894.4000000000015,
      "v": 100
    },
    {
      "midi": 65,
      "hit": false,
      "t": 28953.600000000002,
      "d": 2787.2000000000007,
      "v": 100
    },
    {
      "midi": 65,
      "hit": false,
      "t": 28953.600000000002,
      "d": 2787.2000000000007,
      "v": 100
    },
    {
      "midi": 77,
      "hit": false,
      "t": 28953.600000000002,
      "d": 2787.2000000000007,
      "v": 100
    },
    {
      "midi": 89,
      "hit": false,
      "t": 28953.600000000002,
      "d": 2787.2000000000007,
      "v": 100
    },
    {
      "midi": 65,
      "hit": false,
      "t": 28953.600000000002,
      "d": 2787.2000000000007,
      "v": 100
    },
    {
      "midi": 77,
      "hit": false,
      "t": 28953.600000000002,
      "d": 2787.2000000000007,
      "v": 100
    },
    {
      "midi": 58,
      "hit": false,
      "t": 31948.800000000003,
      "d": 894.4000000000015,
      "v": 100
    },
    {
      "midi": 58,
      "hit": false,
      "t": 31948.800000000003,
      "d": 894.4000000000015,
      "v": 100
    },
    {
      "midi": 70,
      "hit": false,
      "t": 31948.800000000003,
      "d": 894.4000000000015,
      "v": 100
    },
    {
      "midi": 82,
      "hit": false,
      "t": 31948.800000000003,
      "d": 894.4000000000015,
      "v": 100
    },
    {
      "midi": 58,
      "hit": false,
      "t": 31948.800000000003,
      "d": 894.4000000000015,
      "v": 100
    },
    {
      "midi": 70,
      "hit": false,
      "t": 31948.800000000003,
      "d": 894.4000000000015,
      "v": 100
    },
    {
      "midi": 65,
      "hit": false,
      "t": 32947.200000000004,
      "d": 1788.800000000003,
      "v": 100
    },
    {
      "midi": 65,
      "hit": false,
      "t": 32947.200000000004,
      "d": 1788.800000000003,
      "v": 100
    },
    {
      "midi": 77,
      "hit": false,
      "t": 32947.200000000004,
      "d": 1788.800000000003,
      "v": 100
    },
    {
      "midi": 89,
      "hit": false,
      "t": 32947.200000000004,
      "d": 1788.800000000003,
      "v": 100
    },
    {
      "midi": 65,
      "hit": false,
      "t": 32947.200000000004,
      "d": 1788.800000000003,
      "v": 100
    },
    {
      "midi": 77,
      "hit": false,
      "t": 32947.200000000004,
      "d": 1788.800000000003,
      "v": 100
    },
    {
      "midi": 60,
      "hit": false,
      "t": 34944.00000000001,
      "d": 291.1999999999971,
      "v": 100
    },
    {
      "midi": 60,
      "hit": false,
      "t": 34944.00000000001,
      "d": 291.1999999999971,
      "v": 100
    },
    {
      "midi": 72,
      "hit": false,
      "t": 34944.00000000001,
      "d": 291.1999999999971,
      "v": 100
    },
    {
      "midi": 84,
      "hit": false,
      "t": 34944.00000000001,
      "d": 291.1999999999971,
      "v": 100
    },
    {
      "midi": 60,
      "hit": false,
      "t": 34944.00000000001,
      "d": 291.1999999999971,
      "v": 100
    },
    {
      "midi": 72,
      "hit": false,
      "t": 34944.00000000001,
      "d": 291.1999999999971,
      "v": 100
    },
    {
      "midi": 61,
      "hit": false,
      "t": 35276.8,
      "d": 291.1999999999971,
      "v": 100
    },
    {
      "midi": 61,
      "hit": false,
      "t": 35276.8,
      "d": 291.1999999999971,
      "v": 100
    },
    {
      "midi": 73,
      "hit": false,
      "t": 35276.8,
      "d": 291.1999999999971,
      "v": 100
    },
    {
      "midi": 85,
      "hit": false,
      "t": 35276.8,
      "d": 291.1999999999971,
      "v": 100
    },
    {
      "midi": 61,
      "hit": false,
      "t": 35276.8,
      "d": 291.1999999999971,
      "v": 100
    },
    {
      "midi": 73,
      "hit": false,
      "t": 35276.8,
      "d": 291.1999999999971,
      "v": 100
    },
    {
      "midi": 63,
      "hit": false,
      "t": 35609.6,
      "d": 291.1999999999971,
      "v": 100
    },
    {
      "midi": 63,
      "hit": false,
      "t": 35609.6,
      "d": 291.1999999999971,
      "v": 100
    },
    {
      "midi": 75,
      "hit": false,
      "t": 35609.6,
      "d": 291.1999999999971,
      "v": 100
    },
    {
      "midi": 87,
      "hit": false,
      "t": 35609.6,
      "d": 291.1999999999971,
      "v": 100
    },
    {
      "midi": 63,
      "hit": false,
      "t": 35609.6,
      "d": 291.1999999999971,
      "v": 100
    },
    {
      "midi": 75,
      "hit": false,
      "t": 35609.6,
      "d": 291.1999999999971,
      "v": 100
    },
    {
      "midi": 58,
      "hit": false,
      "t": 35942.399999999994,
      "d": 894.4000000000015,
      "v": 100
    },
    {
      "midi": 58,
      "hit": false,
      "t": 35942.399999999994,
      "d": 894.4000000000015,
      "v": 100
    },
    {
      "midi": 70,
      "hit": false,
      "t": 35942.399999999994,
      "d": 894.4000000000015,
      "v": 100
    },
    {
      "midi": 82,
      "hit": false,
      "t": 35942.399999999994,
      "d": 894.4000000000015,
      "v": 100
    },
    {
      "midi": 58,
      "hit": false,
      "t": 35942.399999999994,
      "d": 894.4000000000015,
      "v": 100
    },
    {
      "midi": 70,
      "hit": false,
      "t": 35942.399999999994,
      "d": 894.4000000000015,
      "v": 100
    },
    {
      "midi": 65,
      "hit": false,
      "t": 36940.799999999996,
      "d": 2787.199999999997,
      "v": 100
    },
    {
      "midi": 65,
      "hit": false,
      "t": 36940.799999999996,
      "d": 2787.199999999997,
      "v": 100
    },
    {
      "midi": 77,
      "hit": false,
      "t": 36940.799999999996,
      "d": 2787.199999999997,
      "v": 100
    },
    {
      "midi": 89,
      "hit": false,
      "t": 36940.799999999996,
      "d": 2787.199999999997,
      "v": 100
    },
    {
      "midi": 65,
      "hit": false,
      "t": 36940.799999999996,
      "d": 2787.199999999997,
      "v": 100
    },
    {
      "midi": 77,
      "hit": false,
      "t": 36940.799999999996,
      "d": 2787.199999999997,
      "v": 100
    },
    {
      "midi": 70,
      "hit": false,
      "t": 39935.99999999999,
      "d": 894.4000000000015,
      "v": 100
    },
    {
      "midi": 58,
      "hit": false,
      "t": 39935.99999999999,
      "d": 894.4000000000015,
      "v": 100
    },
    {
      "midi": 70,
      "hit": false,
      "t": 39935.99999999999,
      "d": 894.4000000000015,
      "v": 100
    },
    {
      "midi": 34,
      "hit": false,
      "t": 39935.99999999999,
      "d": 24003.199999999997,
      "v": 100
    },
    {
      "midi": 58,
      "hit": false,
      "t": 39935.99999999999,
      "d": 894.4000000000015,
      "v": 100
    },
    {
      "midi": 46,
      "hit": false,
      "t": 39935.99999999999,
      "d": 24003.199999999997,
      "v": 100
    },
    {
      "midi": 48,
      "hit": false,
      "t": 39935.99999999999,
      "d": 20.80000000000291,
      "v": 112
    },
    {
      "midi": 57,
      "hit": false,
      "t": 39935.99999999999,
      "d": 20.80000000000291,
      "v": 112
    },
    {
      "midi": 58,
      "hit": false,
      "t": 39936,
      "d": 894.4000000000015,
      "v": 100
    },
    {
      "midi": 70,
      "hit": false,
      "t": 40934.399999999994,
      "d": 291.1999999999971,
      "v": 100
    },
    {
      "midi": 58,
      "hit": false,
      "t": 40934.399999999994,
      "d": 291.1999999999971,
      "v": 100
    },
    {
      "midi": 70,
      "hit": false,
      "t": 40934.399999999994,
      "d": 291.1999999999971,
      "v": 100
    },
    {
      "midi": 58,
      "hit": false,
      "t": 40934.399999999994,
      "d": 291.1999999999971,
      "v": 100
    },
    {
      "midi": 48,
      "hit": false,
      "t": 40934.399999999994,
      "d": 20.80000000000291,
      "v": 112
    },
    {
      "midi": 58,
      "hit": false,
      "t": 40934.4,
      "d": 291.1999999999971,
      "v": 100
    },
    {
      "midi": 72,
      "hit": false,
      "t": 41267.19999999999,
      "d": 291.1999999999971,
      "v": 100
    },
    {
      "midi": 60,
      "hit": false,
      "t": 41267.19999999999,
      "d": 291.1999999999971,
      "v": 100
    },
    {
      "midi": 72,
      "hit": false,
      "t": 41267.19999999999,
      "d": 291.1999999999971,
      "v": 100
    },
    {
      "midi": 60,
      "hit": false,
      "t": 41267.19999999999,
      "d": 291.1999999999971,
      "v": 100
    },
    {
      "midi": 43,
      "hit": false,
      "t": 41267.2,
      "d": 20.80000000000291,
      "v": 112
    },
    {
      "midi": 60,
      "hit": false,
      "t": 41267.2,
      "d": 291.1999999999971,
      "v": 100
    },
    {
      "midi": 73,
      "hit": false,
      "t": 41599.999999999985,
      "d": 291.1999999999971,
      "v": 100
    },
    {
      "midi": 61,
      "hit": false,
      "t": 41599.999999999985,
      "d": 291.1999999999971,
      "v": 100
    },
    {
      "midi": 73,
      "hit": false,
      "t": 41599.999999999985,
      "d": 291.1999999999971,
      "v": 100
    },
    {
      "midi": 61,
      "hit": false,
      "t": 41599.999999999985,
      "d": 291.1999999999971,
      "v": 100
    },
    {
      "midi": 61,
      "hit": false,
      "t": 41599.99999999999,
      "d": 291.1999999999971,
      "v": 100
    },
    {
      "midi": 48,
      "hit": false,
      "t": 41600,
      "d": 20.80000000000291,
      "v": 112
    },
    {
      "midi": 75,
      "hit": false,
      "t": 41932.79999999998,
      "d": 291.1999999999971,
      "v": 100
    },
    {
      "midi": 63,
      "hit": false,
      "t": 41932.79999999998,
      "d": 894.4000000000015,
      "v": 100
    },
    {
      "midi": 75,
      "hit": false,
      "t": 41932.79999999998,
      "d": 291.1999999999971,
      "v": 100
    },
    {
      "midi": 63,
      "hit": false,
      "t": 41932.79999999998,
      "d": 291.1999999999971,
      "v": 100
    },
    {
      "midi": 63,
      "hit": false,
      "t": 41932.79999999999,
      "d": 291.1999999999971,
      "v": 100
    },
    {
      "midi": 48,
      "hit": false,
      "t": 41932.8,
      "d": 20.80000000000291,
      "v": 112
    },
    {
      "midi": 73,
      "hit": false,
      "t": 42265.59999999998,
      "d": 291.1999999999971,
      "v": 100
    },
    {
      "midi": 73,
      "hit": false,
      "t": 42265.59999999998,
      "d": 291.1999999999971,
      "v": 100
    },
    {
      "midi": 61,
      "hit": false,
      "t": 42265.59999999998,
      "d": 291.1999999999971,
      "v": 100
    },
    {
      "midi": 61,
      "hit": false,
      "t": 42265.599999999984,
      "d": 291.1999999999971,
      "v": 100
    },
    {
      "midi": 72,
      "hit": false,
      "t": 42598.39999999997,
      "d": 291.1999999999971,
      "v": 100
    },
    {
      "midi": 72,
      "hit": false,
      "t": 42598.39999999997,
      "d": 291.1999999999971,
      "v": 100
    },
    {
      "midi": 60,
      "hit": false,
      "t": 42598.39999999997,
      "d": 291.1999999999971,
      "v": 100
    },
    {
      "midi": 60,
      "hit": false,
      "t": 42598.39999999998,
      "d": 291.1999999999971,
      "v": 100
    },
    {
      "midi": 73,
      "hit": false,
      "t": 42931.19999999997,
      "d": 291.1999999999971,
      "v": 100
    },
    {
      "midi": 73,
      "hit": false,
      "t": 42931.19999999997,
      "d": 291.1999999999971,
      "v": 100
    },
    {
      "midi": 61,
      "hit": false,
      "t": 42931.19999999997,
      "d": 291.1999999999971,
      "v": 100
    },
    {
      "midi": 61,
      "hit": false,
      "t": 42931.199999999975,
      "d": 291.1999999999971,
      "v": 100
    },
    {
      "midi": 61,
      "hit": false,
      "t": 42931.19999999998,
      "d": 291.1999999999971,
      "v": 100
    },
    {
      "midi": 48,
      "hit": false,
      "t": 42931.200000000004,
      "d": 20.80000000000291,
      "v": 112
    },
    {
      "midi": 72,
      "hit": false,
      "t": 43263.99999999996,
      "d": 291.1999999999971,
      "v": 100
    },
    {
      "midi": 72,
      "hit": false,
      "t": 43263.99999999996,
      "d": 291.1999999999971,
      "v": 100
    },
    {
      "midi": 60,
      "hit": false,
      "t": 43263.99999999996,
      "d": 291.1999999999971,
      "v": 100
    },
    {
      "midi": 60,
      "hit": false,
      "t": 43263.99999999997,
      "d": 291.1999999999971,
      "v": 100
    },
    {
      "midi": 60,
      "hit": false,
      "t": 43263.99999999998,
      "d": 291.1999999999971,
      "v": 100
    },
    {
      "midi": 43,
      "hit": false,
      "t": 43264.00000000001,
      "d": 20.80000000000291,
      "v": 112
    },
    {
      "midi": 68,
      "hit": false,
      "t": 43596.79999999996,
      "d": 291.1999999999971,
      "v": 100
    },
    {
      "midi": 68,
      "hit": false,
      "t": 43596.79999999996,
      "d": 291.1999999999971,
      "v": 100
    },
    {
      "midi": 56,
      "hit": false,
      "t": 43596.79999999996,
      "d": 291.1999999999971,
      "v": 100
    },
    {
      "midi": 56,
      "hit": false,
      "t": 43596.79999999997,
      "d": 291.1999999999971,
      "v": 100
    },
    {
      "midi": 56,
      "hit": false,
      "t": 43596.799999999974,
      "d": 291.1999999999971,
      "v": 100
    },
    {
      "midi": 48,
      "hit": false,
      "t": 43596.80000000001,
      "d": 20.80000000000291,
      "v": 112
    },
    {
      "midi": 70,
      "hit": false,
      "t": 43929.599999999955,
      "d": 894.4000000000015,
      "v": 100
    },
    {
      "midi": 70,
      "hit": false,
      "t": 43929.599999999955,
      "d": 894.4000000000015,
      "v": 100
    },
    {
      "midi": 58,
      "hit": false,
      "t": 43929.599999999955,
      "d": 894.4000000000015,
      "v": 100
    },
    {
      "midi": 58,
      "hit": false,
      "t": 43929.59999999996,
      "d": 894.4000000000015,
      "v": 100
    },
    {
      "midi": 58,
      "hit": false,
      "t": 43929.59999999997,
      "d": 894.4000000000015,
      "v": 100
    },
    {
      "midi": 48,
      "hit": false,
      "t": 43929.60000000001,
      "d": 20.80000000000291,
      "v": 112
    },
    {
      "midi": 57,
      "hit": false,
      "t": 43929.60000000001,
      "d": 20.80000000000291,
      "v": 112
    },
    {
      "midi": 77,
      "hit": false,
      "t": 44927.999999999956,
      "d": 2787.199999999997,
      "v": 100
    },
    {
      "midi": 77,
      "hit": false,
      "t": 44927.999999999956,
      "d": 2787.199999999997,
      "v": 100
    },
    {
      "midi": 65,
      "hit": false,
      "t": 44927.999999999956,
      "d": 2787.199999999997,
      "v": 100
    },
    {
      "midi": 65,
      "hit": false,
      "t": 44927.99999999996,
      "d": 2787.199999999997,
      "v": 100
    },
    {
      "midi": 65,
      "hit": false,
      "t": 44927.99999999997,
      "d": 1788.800000000003,
      "v": 100
    },
    {
      "midi": 48,
      "hit": false,
      "t": 45926.400000000016,
      "d": 20.80000000000291,
      "v": 112
    },
    {
      "midi": 43,
      "hit": false,
      "t": 46259.20000000002,
      "d": 20.80000000000291,
      "v": 112
    },
    {
      "midi": 48,
      "hit": false,
      "t": 46592.00000000002,
      "d": 20.80000000000291,
      "v": 112
    },
    {
      "midi": 65,
      "hit": false,
      "t": 46924.799999999974,
      "d": 291.1999999999971,
      "v": 100
    },
    {
      "midi": 48,
      "hit": false,
      "t": 46924.800000000025,
      "d": 20.80000000000291,
      "v": 112
    },
    {
      "midi": 61,
      "hit": false,
      "t": 47257.59999999997,
      "d": 291.1999999999971,
      "v": 100
    },
    {
      "midi": 43,
      "hit": false,
      "t": 47257.60000000003,
      "d": 20.80000000000291,
      "v": 112
    },
    {
      "midi": 58,
      "hit": false,
      "t": 47590.399999999965,
      "d": 291.1999999999971,
      "v": 100
    },
    {
      "midi": 48,
      "hit": false,
      "t": 47590.40000000003,
      "d": 20.80000000000291,
      "v": 112
    },
    {
      "midi": 70,
      "hit": false,
      "t": 47923.19999999995,
      "d": 894.4000000000015,
      "v": 100
    },
    {
      "midi": 70,
      "hit": false,
      "t": 47923.19999999995,
      "d": 894.4000000000015,
      "v": 100
    },
    {
      "midi": 58,
      "hit": false,
      "t": 47923.19999999995,
      "d": 894.4000000000015,
      "v": 100
    },
    {
      "midi": 58,
      "hit": false,
      "t": 47923.19999999996,
      "d": 894.4000000000015,
      "v": 100
    },
    {
      "midi": 58,
      "hit": false,
      "t": 47923.19999999996,
      "d": 894.4000000000015,
      "v": 100
    },
    {
      "midi": 48,
      "hit": false,
      "t": 47923.20000000003,
      "d": 20.80000000000291,
      "v": 112
    },
    {
      "midi": 57,
      "hit": false,
      "t": 47923.20000000003,
      "d": 20.80000000000291,
      "v": 112
    },
    {
      "midi": 70,
      "hit": false,
      "t": 48921.599999999955,
      "d": 291.1999999999971,
      "v": 100
    },
    {
      "midi": 70,
      "hit": false,
      "t": 48921.599999999955,
      "d": 291.1999999999971,
      "v": 100
    },
    {
      "midi": 58,
      "hit": false,
      "t": 48921.599999999955,
      "d": 291.1999999999971,
      "v": 100
    },
    {
      "midi": 58,
      "hit": false,
      "t": 48921.59999999996,
      "d": 291.1999999999971,
      "v": 100
    },
    {
      "midi": 58,
      "hit": false,
      "t": 48921.59999999996,
      "d": 291.1999999999971,
      "v": 100
    },
    {
      "midi": 48,
      "hit": false,
      "t": 48921.600000000035,
      "d": 20.80000000000291,
      "v": 112
    },
    {
      "midi": 72,
      "hit": false,
      "t": 49254.39999999995,
      "d": 291.1999999999971,
      "v": 100
    },
    {
      "midi": 72,
      "hit": false,
      "t": 49254.39999999995,
      "d": 291.1999999999971,
      "v": 100
    },
    {
      "midi": 60,
      "hit": false,
      "t": 49254.39999999995,
      "d": 291.1999999999971,
      "v": 100
    },
    {
      "midi": 60,
      "hit": false,
      "t": 49254.39999999996,
      "d": 291.1999999999971,
      "v": 100
    },
    {
      "midi": 60,
      "hit": false,
      "t": 49254.39999999996,
      "d": 291.1999999999971,
      "v": 100
    },
    {
      "midi": 43,
      "hit": false,
      "t": 49254.40000000004,
      "d": 20.80000000000291,
      "v": 112
    },
    {
      "midi": 73,
      "hit": false,
      "t": 49587.199999999946,
      "d": 291.1999999999971,
      "v": 100
    },
    {
      "midi": 73,
      "hit": false,
      "t": 49587.199999999946,
      "d": 291.1999999999971,
      "v": 100
    },
    {
      "midi": 61,
      "hit": false,
      "t": 49587.199999999946,
      "d": 291.1999999999971,
      "v": 100
    },
    {
      "midi": 61,
      "hit": false,
      "t": 49587.19999999995,
      "d": 291.1999999999971,
      "v": 100
    },
    {
      "midi": 61,
      "hit": false,
      "t": 49587.19999999995,
      "d": 291.1999999999971,
      "v": 100
    },
    {
      "midi": 48,
      "hit": false,
      "t": 49587.20000000004,
      "d": 20.80000000000291,
      "v": 112
    },
    {
      "midi": 75,
      "hit": false,
      "t": 49919.99999999994,
      "d": 291.1999999999971,
      "v": 100
    },
    {
      "midi": 75,
      "hit": false,
      "t": 49919.99999999994,
      "d": 291.1999999999971,
      "v": 100
    },
    {
      "midi": 63,
      "hit": false,
      "t": 49919.99999999994,
      "d": 291.1999999999971,
      "v": 100
    },
    {
      "midi": 63,
      "hit": false,
      "t": 49919.99999999995,
      "d": 894.4000000000015,
      "v": 100
    },
    {
      "midi": 63,
      "hit": false,
      "t": 49919.99999999995,
      "d": 291.1999999999971,
      "v": 100
    },
    {
      "midi": 48,
      "hit": false,
      "t": 49920.000000000044,
      "d": 20.80000000000291,
      "v": 112
    },
    {
      "midi": 73,
      "hit": false,
      "t": 50252.79999999994,
      "d": 291.1999999999971,
      "v": 100
    },
    {
      "midi": 73,
      "hit": false,
      "t": 50252.79999999994,
      "d": 291.1999999999971,
      "v": 100
    },
    {
      "midi": 61,
      "hit": false,
      "t": 50252.79999999994,
      "d": 291.1999999999971,
      "v": 100
    },
    {
      "midi": 61,
      "hit": false,
      "t": 50252.799999999945,
      "d": 291.1999999999971,
      "v": 100
    },
    {
      "midi": 72,
      "hit": false,
      "t": 50585.59999999993,
      "d": 291.1999999999971,
      "v": 100
    },
    {
      "midi": 72,
      "hit": false,
      "t": 50585.59999999993,
      "d": 291.1999999999971,
      "v": 100
    },
    {
      "midi": 60,
      "hit": false,
      "t": 50585.59999999993,
      "d": 291.1999999999971,
      "v": 100
    },
    {
      "midi": 60,
      "hit": false,
      "t": 50585.59999999994,
      "d": 291.1999999999971,
      "v": 100
    },
    {
      "midi": 73,
      "hit": false,
      "t": 50918.39999999993,
      "d": 291.1999999999971,
      "v": 100
    },
    {
      "midi": 73,
      "hit": false,
      "t": 50918.39999999993,
      "d": 291.1999999999971,
      "v": 100
    },
    {
      "midi": 61,
      "hit": false,
      "t": 50918.39999999993,
      "d": 291.1999999999971,
      "v": 100
    },
    {
      "midi": 61,
      "hit": false,
      "t": 50918.399999999936,
      "d": 291.1999999999971,
      "v": 100
    },
    {
      "midi": 61,
      "hit": false,
      "t": 50918.39999999995,
      "d": 291.1999999999971,
      "v": 100
    },
    {
      "midi": 48,
      "hit": false,
      "t": 50918.400000000045,
      "d": 20.80000000000291,
      "v": 112
    },
    {
      "midi": 72,
      "hit": false,
      "t": 51251.199999999924,
      "d": 291.1999999999971,
      "v": 100
    },
    {
      "midi": 72,
      "hit": false,
      "t": 51251.199999999924,
      "d": 291.1999999999971,
      "v": 100
    },
    {
      "midi": 60,
      "hit": false,
      "t": 51251.199999999924,
      "d": 291.1999999999971,
      "v": 100
    },
    {
      "midi": 60,
      "hit": false,
      "t": 51251.19999999993,
      "d": 291.1999999999971,
      "v": 100
    },
    {
      "midi": 60,
      "hit": false,
      "t": 51251.199999999946,
      "d": 291.1999999999971,
      "v": 100
    },
    {
      "midi": 43,
      "hit": false,
      "t": 51251.20000000005,
      "d": 20.80000000000291,
      "v": 112
    },
    {
      "midi": 68,
      "hit": false,
      "t": 51583.99999999992,
      "d": 291.1999999999971,
      "v": 100
    },
    {
      "midi": 68,
      "hit": false,
      "t": 51583.99999999992,
      "d": 291.1999999999971,
      "v": 100
    },
    {
      "midi": 56,
      "hit": false,
      "t": 51583.99999999992,
      "d": 291.1999999999971,
      "v": 100
    },
    {
      "midi": 56,
      "hit": false,
      "t": 51583.99999999993,
      "d": 291.1999999999971,
      "v": 100
    },
    {
      "midi": 56,
      "hit": false,
      "t": 51583.99999999994,
      "d": 291.1999999999971,
      "v": 100
    },
    {
      "midi": 48,
      "hit": false,
      "t": 51584.00000000005,
      "d": 20.80000000000291,
      "v": 112
    },
    {
      "midi": 70,
      "hit": false,
      "t": 51916.799999999916,
      "d": 894.4000000000015,
      "v": 100
    },
    {
      "midi": 70,
      "hit": false,
      "t": 51916.799999999916,
      "d": 894.4000000000015,
      "v": 100
    },
    {
      "midi": 58,
      "hit": false,
      "t": 51916.799999999916,
      "d": 894.4000000000015,
      "v": 100
    },
    {
      "midi": 58,
      "hit": false,
      "t": 51916.79999999992,
      "d": 894.4000000000015,
      "v": 100
    },
    {
      "midi": 58,
      "hit": false,
      "t": 51916.79999999994,
      "d": 894.4000000000015,
      "v": 100
    },
    {
      "midi": 48,
      "hit": false,
      "t": 51916.800000000054,
      "d": 20.80000000000291,
      "v": 112
    },
    {
      "midi": 57,
      "hit": false,
      "t": 51916.800000000054,
      "d": 20.80000000000291,
      "v": 112
    },
    {
      "midi": 77,
      "hit": false,
      "t": 52915.19999999992,
      "d": 2787.199999999997,
      "v": 100
    },
    {
      "midi": 77,
      "hit": false,
      "t": 52915.19999999992,
      "d": 2787.199999999997,
      "v": 100
    },
    {
      "midi": 65,
      "hit": false,
      "t": 52915.19999999992,
      "d": 2787.199999999997,
      "v": 100
    },
    {
      "midi": 65,
      "hit": false,
      "t": 52915.199999999924,
      "d": 2787.199999999997,
      "v": 100
    },
    {
      "midi": 65,
      "hit": false,
      "t": 52915.19999999994,
      "d": 1788.800000000003,
      "v": 100
    },
    {
      "midi": 48,
      "hit": false,
      "t": 53913.60000000006,
      "d": 20.80000000000291,
      "v": 112
    },
    {
      "midi": 43,
      "hit": false,
      "t": 54246.40000000006,
      "d": 20.80000000000291,
      "v": 112
    },
    {
      "midi": 48,
      "hit": false,
      "t": 54579.20000000006,
      "d": 20.80000000000291,
      "v": 112
    },
    {
      "midi": 65,
      "hit": false,
      "t": 54911.99999999994,
      "d": 291.1999999999971,
      "v": 100
    },
    {
      "midi": 48,
      "hit": false,
      "t": 54912.000000000065,
      "d": 20.80000000000291,
      "v": 112
    },
    {
      "midi": 61,
      "hit": false,
      "t": 55244.79999999994,
      "d": 291.1999999999971,
      "v": 100
    },
    {
      "midi": 43,
      "hit": false,
      "t": 55244.80000000007,
      "d": 20.80000000000291,
      "v": 112
    },
    {
      "midi": 58,
      "hit": false,
      "t": 55577.59999999993,
      "d": 291.1999999999971,
      "v": 100
    },
    {
      "midi": 48,
      "hit": false,
      "t": 55577.60000000007,
      "d": 20.80000000000291,
      "v": 112
    },
    {
      "midi": 70,
      "hit": false,
      "t": 55910.399999999914,
      "d": 894.4000000000015,
      "v": 100
    },
    {
      "midi": 70,
      "hit": false,
      "t": 55910.399999999914,
      "d": 894.4000000000015,
      "v": 100
    },
    {
      "midi": 58,
      "hit": false,
      "t": 55910.399999999914,
      "d": 894.4000000000015,
      "v": 100
    },
    {
      "midi": 58,
      "hit": false,
      "t": 55910.39999999992,
      "d": 894.4000000000015,
      "v": 100
    },
    {
      "midi": 58,
      "hit": false,
      "t": 55910.39999999993,
      "d": 894.4000000000015,
      "v": 100
    },
    {
      "midi": 82,
      "hit": false,
      "t": 55910.399999999994,
      "d": 894.4000000000015,
      "v": 100
    },
    {
      "midi": 70,
      "hit": false,
      "t": 55910.399999999994,
      "d": 894.4000000000015,
      "v": 100
    },
    {
      "midi": 48,
      "hit": false,
      "t": 55910.400000000074,
      "d": 20.80000000000291,
      "v": 112
    },
    {
      "midi": 57,
      "hit": false,
      "t": 55910.400000000074,
      "d": 20.80000000000291,
      "v": 112
    },
    {
      "midi": 70,
      "hit": false,
      "t": 56908.799999999916,
      "d": 291.1999999999971,
      "v": 100
    },
    {
      "midi": 70,
      "hit": false,
      "t": 56908.799999999916,
      "d": 291.1999999999971,
      "v": 100
    },
    {
      "midi": 58,
      "hit": false,
      "t": 56908.799999999916,
      "d": 291.1999999999971,
      "v": 100
    },
    {
      "midi": 58,
      "hit": false,
      "t": 56908.79999999992,
      "d": 291.1999999999971,
      "v": 100
    },
    {
      "midi": 58,
      "hit": false,
      "t": 56908.79999999993,
      "d": 291.1999999999971,
      "v": 100
    },
    {
      "midi": 82,
      "hit": false,
      "t": 56908.799999999996,
      "d": 291.1999999999971,
      "v": 100
    },
    {
      "midi": 70,
      "hit": false,
      "t": 56908.799999999996,
      "d": 291.1999999999971,
      "v": 100
    },
    {
      "midi": 48,
      "hit": false,
      "t": 56908.800000000076,
      "d": 20.80000000000291,
      "v": 112
    },
    {
      "midi": 72,
      "hit": false,
      "t": 57241.59999999991,
      "d": 291.1999999999971,
      "v": 100
    },
    {
      "midi": 72,
      "hit": false,
      "t": 57241.59999999991,
      "d": 291.1999999999971,
      "v": 100
    },
    {
      "midi": 60,
      "hit": false,
      "t": 57241.59999999991,
      "d": 291.1999999999971,
      "v": 100
    },
    {
      "midi": 60,
      "hit": false,
      "t": 57241.59999999992,
      "d": 291.1999999999971,
      "v": 100
    },
    {
      "midi": 60,
      "hit": false,
      "t": 57241.599999999926,
      "d": 291.1999999999971,
      "v": 100
    },
    {
      "midi": 84,
      "hit": false,
      "t": 57241.59999999999,
      "d": 291.1999999999971,
      "v": 100
    },
    {
      "midi": 72,
      "hit": false,
      "t": 57241.59999999999,
      "d": 291.1999999999971,
      "v": 100
    },
    {
      "midi": 43,
      "hit": false,
      "t": 57241.60000000008,
      "d": 20.80000000000291,
      "v": 112
    },
    {
      "midi": 73,
      "hit": false,
      "t": 57574.39999999991,
      "d": 291.1999999999971,
      "v": 100
    },
    {
      "midi": 73,
      "hit": false,
      "t": 57574.39999999991,
      "d": 291.1999999999971,
      "v": 100
    },
    {
      "midi": 61,
      "hit": false,
      "t": 57574.39999999991,
      "d": 291.1999999999971,
      "v": 100
    },
    {
      "midi": 61,
      "hit": false,
      "t": 57574.399999999914,
      "d": 291.1999999999971,
      "v": 100
    },
    {
      "midi": 61,
      "hit": false,
      "t": 57574.39999999992,
      "d": 291.1999999999971,
      "v": 100
    },
    {
      "midi": 85,
      "hit": false,
      "t": 57574.39999999999,
      "d": 291.1999999999971,
      "v": 100
    },
    {
      "midi": 73,
      "hit": false,
      "t": 57574.39999999999,
      "d": 291.1999999999971,
      "v": 100
    },
    {
      "midi": 48,
      "hit": false,
      "t": 57574.40000000008,
      "d": 20.80000000000291,
      "v": 112
    },
    {
      "midi": 75,
      "hit": false,
      "t": 57907.1999999999,
      "d": 291.1999999999971,
      "v": 100
    },
    {
      "midi": 75,
      "hit": false,
      "t": 57907.1999999999,
      "d": 291.1999999999971,
      "v": 100
    },
    {
      "midi": 63,
      "hit": false,
      "t": 57907.1999999999,
      "d": 291.1999999999971,
      "v": 100
    },
    {
      "midi": 63,
      "hit": false,
      "t": 57907.19999999991,
      "d": 291.1999999999971,
      "v": 100
    },
    {
      "midi": 63,
      "hit": false,
      "t": 57907.19999999992,
      "d": 894.4000000000015,
      "v": 100
    },
    {
      "midi": 87,
      "hit": false,
      "t": 57907.19999999998,
      "d": 291.1999999999971,
      "v": 100
    },
    {
      "midi": 75,
      "hit": false,
      "t": 57907.19999999998,
      "d": 291.1999999999971,
      "v": 100
    },
    {
      "midi": 48,
      "hit": false,
      "t": 57907.200000000084,
      "d": 20.80000000000291,
      "v": 112
    },
    {
      "midi": 57,
      "hit": false,
      "t": 57907.200000000084,
      "d": 20.80000000000291,
      "v": 112
    },
    {
      "midi": 73,
      "hit": false,
      "t": 58239.9999999999,
      "d": 291.1999999999971,
      "v": 100
    },
    {
      "midi": 73,
      "hit": false,
      "t": 58239.9999999999,
      "d": 291.1999999999971,
      "v": 100
    },
    {
      "midi": 61,
      "hit": false,
      "t": 58239.9999999999,
      "d": 291.1999999999971,
      "v": 100
    },
    {
      "midi": 61,
      "hit": false,
      "t": 58239.999999999905,
      "d": 291.1999999999971,
      "v": 100
    },
    {
      "midi": 85,
      "hit": false,
      "t": 58239.99999999998,
      "d": 291.1999999999971,
      "v": 100
    },
    {
      "midi": 73,
      "hit": false,
      "t": 58239.99999999998,
      "d": 291.1999999999971,
      "v": 100
    },
    {
      "midi": 72,
      "hit": false,
      "t": 58572.799999999894,
      "d": 291.1999999999971,
      "v": 100
    },
    {
      "midi": 72,
      "hit": false,
      "t": 58572.799999999894,
      "d": 291.1999999999971,
      "v": 100
    },
    {
      "midi": 60,
      "hit": false,
      "t": 58572.799999999894,
      "d": 291.1999999999971,
      "v": 100
    },
    {
      "midi": 60,
      "hit": false,
      "t": 58572.7999999999,
      "d": 291.1999999999971,
      "v": 100
    },
    {
      "midi": 84,
      "hit": false,
      "t": 58572.799999999974,
      "d": 291.1999999999971,
      "v": 100
    },
    {
      "midi": 72,
      "hit": false,
      "t": 58572.799999999974,
      "d": 291.1999999999971,
      "v": 100
    },
    {
      "midi": 73,
      "hit": false,
      "t": 58905.59999999989,
      "d": 291.1999999999971,
      "v": 100
    },
    {
      "midi": 73,
      "hit": false,
      "t": 58905.59999999989,
      "d": 291.1999999999971,
      "v": 100
    },
    {
      "midi": 61,
      "hit": false,
      "t": 58905.59999999989,
      "d": 291.1999999999971,
      "v": 100
    },
    {
      "midi": 61,
      "hit": false,
      "t": 58905.5999999999,
      "d": 291.1999999999971,
      "v": 100
    },
    {
      "midi": 61,
      "hit": false,
      "t": 58905.59999999992,
      "d": 291.1999999999971,
      "v": 100
    },
    {
      "midi": 85,
      "hit": false,
      "t": 58905.59999999997,
      "d": 291.1999999999971,
      "v": 100
    },
    {
      "midi": 73,
      "hit": false,
      "t": 58905.59999999997,
      "d": 291.1999999999971,
      "v": 100
    },
    {
      "midi": 48,
      "hit": false,
      "t": 58905.600000000086,
      "d": 20.80000000000291,
      "v": 112
    },
    {
      "midi": 72,
      "hit": false,
      "t": 59238.399999999885,
      "d": 291.1999999999971,
      "v": 100
    },
    {
      "midi": 72,
      "hit": false,
      "t": 59238.399999999885,
      "d": 291.1999999999971,
      "v": 100
    },
    {
      "midi": 60,
      "hit": false,
      "t": 59238.399999999885,
      "d": 291.1999999999971,
      "v": 100
    },
    {
      "midi": 60,
      "hit": false,
      "t": 59238.39999999989,
      "d": 291.1999999999971,
      "v": 100
    },
    {
      "midi": 60,
      "hit": false,
      "t": 59238.399999999914,
      "d": 291.1999999999971,
      "v": 100
    },
    {
      "midi": 84,
      "hit": false,
      "t": 59238.399999999965,
      "d": 291.1999999999971,
      "v": 100
    },
    {
      "midi": 72,
      "hit": false,
      "t": 59238.399999999965,
      "d": 291.1999999999971,
      "v": 100
    },
    {
      "midi": 43,
      "hit": false,
      "t": 59238.40000000009,
      "d": 20.80000000000291,
      "v": 112
    },
    {
      "midi": 68,
      "hit": false,
      "t": 59571.19999999988,
      "d": 291.1999999999971,
      "v": 100
    },
    {
      "midi": 68,
      "hit": false,
      "t": 59571.19999999988,
      "d": 291.1999999999971,
      "v": 100
    },
    {
      "midi": 56,
      "hit": false,
      "t": 59571.19999999988,
      "d": 291.1999999999971,
      "v": 100
    },
    {
      "midi": 56,
      "hit": false,
      "t": 59571.19999999989,
      "d": 291.1999999999971,
      "v": 100
    },
    {
      "midi": 56,
      "hit": false,
      "t": 59571.19999999991,
      "d": 291.1999999999971,
      "v": 100
    },
    {
      "midi": 80,
      "hit": false,
      "t": 59571.19999999996,
      "d": 291.1999999999971,
      "v": 100
    },
    {
      "midi": 68,
      "hit": false,
      "t": 59571.19999999996,
      "d": 291.1999999999971,
      "v": 100
    },
    {
      "midi": 48,
      "hit": false,
      "t": 59571.20000000009,
      "d": 20.80000000000291,
      "v": 112
    },
    {
      "midi": 70,
      "hit": false,
      "t": 59903.999999999876,
      "d": 4035.199999999997,
      "v": 100
    },
    {
      "midi": 70,
      "hit": false,
      "t": 59903.999999999876,
      "d": 4035.199999999997,
      "v": 100
    },
    {
      "midi": 58,
      "hit": false,
      "t": 59903.999999999876,
      "d": 4035.199999999997,
      "v": 100
    },
    {
      "midi": 58,
      "hit": false,
      "t": 59903.99999999988,
      "d": 4035.199999999997,
      "v": 100
    },
    {
      "midi": 58,
      "hit": false,
      "t": 59903.999999999905,
      "d": 4035.199999999997,
      "v": 100
    },
    {
      "midi": 82,
      "hit": false,
      "t": 59903.999999999956,
      "d": 4451.199999999997,
      "v": 100
    },
    {
      "midi": 70,
      "hit": false,
      "t": 59903.999999999956,
      "d": 4451.199999999997,
      "v": 100
    },
    {
      "midi": 57,
      "hit": false,
      "t": 59904.000000000095,
      "d": 20.80000000000291,
      "v": 112
    }
  ]
}