{
  "jsonPath": "Animes/Ah My Goddess MIDI Collection/illusion.json",
  "path": "Animes\\Ah My Goddess MIDI Collection\\Illusion.mid",
  "name": "Illusion",
  "difficulty": "Advanced",
  "bpm": 76.00006586672374,
  "notes": [
    {
      "midi": 67,
      "hit": false,
      "t": 6857.14,
      "d": 857.1424999999999,
      "v": 80
    },
    {
      "midi": 51,
      "hit": false,
      "t": 6857.14,
      "d": 6857.14,
      "v": 73
    },
    {
      "midi": 63,
      "hit": false,
      "t": 7714.2825,
      "d": 857.1425000000008,
      "v": 80
    },
    {
      "midi": 67,
      "hit": false,
      "t": 8571.425000000001,
      "d": 857.1424999999999,
      "v": 80
    },
    {
      "midi": 74,
      "hit": false,
      "t": 9428.567500000001,
      "d": 4285.7125000000015,
      "v": 80
    },
    {
      "midi": 50,
      "hit": false,
      "t": 13714.28,
      "d": 6857.140000000001,
      "v": 73
    },
    {
      "midi": 65,
      "hit": false,
      "t": 13714.280000000002,
      "d": 857.1424999999999,
      "v": 80
    },
    {
      "midi": 62,
      "hit": false,
      "t": 14571.422500000002,
      "d": 857.1424999999999,
      "v": 80
    },
    {
      "midi": 65,
      "hit": false,
      "t": 15428.565000000002,
      "d": 857.1424999999999,
      "v": 80
    },
    {
      "midi": 72,
      "hit": false,
      "t": 16285.707500000002,
      "d": 4285.7125,
      "v": 80
    },
    {
      "midi": 63,
      "hit": false,
      "t": 20571.420000000002,
      "d": 857.1425000000017,
      "v": 80
    },
    {
      "midi": 48,
      "hit": false,
      "t": 20571.420000000002,
      "d": 6857.139999999999,
      "v": 73
    },
    {
      "midi": 60,
      "hit": false,
      "t": 21428.562500000004,
      "d": 857.1425000000017,
      "v": 80
    },
    {
      "midi": 63,
      "hit": false,
      "t": 22285.705000000005,
      "d": 857.1425000000017,
      "v": 80
    },
    {
      "midi": 70,
      "hit": false,
      "t": 23142.847500000007,
      "d": 4285.7125000000015,
      "v": 80
    },
    {
      "midi": 46,
      "hit": false,
      "t": 27428.56,
      "d": 2571.4275000000016,
      "v": 73
    },
    {
      "midi": 62,
      "hit": false,
      "t": 27428.56000000001,
      "d": 857.1425000000017,
      "v": 80
    },
    {
      "midi": 58,
      "hit": false,
      "t": 28285.70250000001,
      "d": 857.1425000000017,
      "v": 80
    },
    {
      "midi": 62,
      "hit": false,
      "t": 29142.845000000012,
      "d": 857.1425000000017,
      "v": 80
    },
    {
      "midi": 48,
      "hit": false,
      "t": 29999.987500000003,
      "d": 1714.2849999999999,
      "v": 73
    },
    {
      "midi": 63,
      "hit": false,
      "t": 29999.987500000014,
      "d": 1714.2849999999999,
      "v": 80
    },
    {
      "midi": 50,
      "hit": false,
      "t": 31714.272500000003,
      "d": 2571.4275000000016,
      "v": 73
    },
    {
      "midi": 65,
      "hit": false,
      "t": 31714.272500000014,
      "d": 2571.427499999998,
      "v": 80
    },
    {
      "midi": 62,
      "hit": false,
      "t": 31714.272500000014,
      "d": 2571.427499999998,
      "v": 80
    },
    {
      "midi": 51,
      "hit": false,
      "t": 34285.700000000004,
      "d": 6857.139999999999,
      "v": 73
    },
    {
      "midi": 67,
      "hit": false,
      "t": 34285.70000000001,
      "d": 857.1425000000017,
      "v": 80
    },
    {
      "midi": 63,
      "hit": false,
      "t": 35142.84250000001,
      "d": 857.1425000000017,
      "v": 80
    },
    {
      "midi": 67,
      "hit": false,
      "t": 35999.985000000015,
      "d": 857.1425000000017,
      "v": 80
    },
    {
      "midi": 74,
      "hit": false,
      "t": 36857.12750000002,
      "d": 4285.7125000000015,
      "v": 80
    },
    {
      "midi": 50,
      "hit": false,
      "t": 41142.840000000004,
      "d": 6857.139999999999,
      "v": 73
    },
    {
      "midi": 65,
      "hit": false,
      "t": 41142.84000000002,
      "d": 857.1425000000017,
      "v": 80
    },
    {
      "midi": 62,
      "hit": false,
      "t": 41999.98250000002,
      "d": 857.1425000000017,
      "v": 80
    },
    {
      "midi": 65,
      "hit": false,
      "t": 42857.12500000002,
      "d": 857.1425000000017,
      "v": 80
    },
    {
      "midi": 72,
      "hit": false,
      "t": 43714.26750000002,
      "d": 4285.7125000000015,
      "v": 80
    },
    {
      "midi": 48,
      "hit": false,
      "t": 47999.98,
      "d": 6857.139999999999,
      "v": 73
    },
    {
      "midi": 63,
      "hit": false,
      "t": 47999.980000000025,
      "d": 857.1425000000017,
      "v": 80
    },
    {
      "midi": 60,
      "hit": false,
      "t": 48857.12250000003,
      "d": 857.1425000000017,
      "v": 80
    },
    {
      "midi": 63,
      "hit": false,
      "t": 49714.26500000003,
      "d": 857.1425000000017,
      "v": 80
    },
    {
      "midi": 70,
      "hit": false,
      "t": 50571.40750000003,
      "d": 2571.427499999998,
      "v": 80
    },
    {
      "midi": 72,
      "hit": false,
      "t": 53142.83500000003,
      "d": 1714.2850000000035,
      "v": 80
    },
    {
      "midi": 50,
      "hit": false,
      "t": 54857.12,
      "d": 6857.139999999999,
      "v": 73
    },
    {
      "midi": 69,
      "hit": false,
      "t": 54857.12000000003,
      "d": 6857.139999999999,
      "v": 80
    },
    {
      "midi": 66,
      "hit": false,
      "t": 54857.12000000003,
      "d": 6857.139999999999,
      "v": 80
    },
    {
      "midi": 50,
      "hit": false,
      "t": 61714.26,
      "d": 6857.140000000007,
      "v": 73
    },
    {
      "midi": 43,
      "hit": false,
      "t": 61714.26,
      "d": 6857.140000000007,
      "v": 73
    },
    {
      "midi": 62,
      "hit": false,
      "t": 61714.26000000003,
      "d": 6857.140000000007,
      "v": 80
    },
    {
      "midi": 58,
      "hit": false,
      "t": 61714.26000000003,
      "d": 6857.140000000007,
      "v": 80
    },
    {
      "midi": 55,
      "hit": false,
      "t": 61714.26000000003,
      "d": 6857.140000000007,
      "v": 80
    },
    {
      "midi": 67,
      "hit": false,
      "t": 63428.545000000006,
      "d": 857.1425000000017,
      "v": 90
    },
    {
      "midi": 67,
      "hit": false,
      "t": 63428.54500000001,
      "d": 857.1425000000017,
      "v": 70
    },
    {
      "midi": 69,
      "hit": false,
      "t": 64285.68750000001,
      "d": 857.1425000000017,
      "v": 90
    },
    {
      "midi": 69,
      "hit": false,
      "t": 64285.687500000015,
      "d": 857.1425000000017,
      "v": 70
    },
    {
      "midi": 70,
      "hit": false,
      "t": 65142.83000000001,
      "d": 2571.427499999998,
      "v": 90
    },
    {
      "midi": 70,
      "hit": false,
      "t": 65142.830000000016,
      "d": 2571.4275000000052,
      "v": 70
    },
    {
      "midi": 74,
      "hit": false,
      "t": 67714.2575,
      "d": 857.1425000000017,
      "v": 90
    },
    {
      "midi": 74,
      "hit": false,
      "t": 67714.25750000002,
      "d": 857.1425000000017,
      "v": 70
    },
    {
      "midi": 48,
      "hit": false,
      "t": 68571.40000000001,
      "d": 6857.139999999999,
      "v": 85
    },
    {
      "midi": 75,
      "hit": false,
      "t": 68571.40000000001,
      "d": 6857.139999999999,
      "v": 90
    },
    {
      "midi": 75,
      "hit": false,
      "t": 68571.40000000002,
      "d": 6857.139999999999,
      "v": 70
    },
    {
      "midi": 63,
      "hit": false,
      "t": 68571.40000000004,
      "d": 857.1425000000017,
      "v": 80
    },
    {
      "midi": 55,
      "hit": false,
      "t": 69428.54250000004,
      "d": 857.1425000000017,
      "v": 80
    },
    {
      "midi": 58,
      "hit": false,
      "t": 70285.68500000004,
      "d": 857.1425000000017,
      "v": 80
    },
    {
      "midi": 63,
      "hit": false,
      "t": 71142.82750000004,
      "d": 1714.2850000000035,
      "v": 80
    },
    {
      "midi": 55,
      "hit": false,
      "t": 72857.11250000005,
      "d": 857.1425000000017,
      "v": 80
    },
    {
      "midi": 58,
      "hit": false,
      "t": 73714.25500000005,
      "d": 857.1425000000017,
      "v": 80
    },
    {
      "midi": 63,
      "hit": false,
      "t": 74571.39750000005,
      "d": 857.1425000000017,
      "v": 80
    },
    {
      "midi": 41,
      "hit": false,
      "t": 75428.54000000001,
      "d": 6857.139999999999,
      "v": 85
    },
    {
      "midi": 60,
      "hit": false,
      "t": 75428.54000000005,
      "d": 6857.139999999999,
      "v": 80
    },
    {
      "midi": 53,
      "hit": false,
      "t": 75428.54000000005,
      "d": 6857.139999999999,
      "v": 80
    },
    {
      "midi": 65,
      "hit": false,
      "t": 77142.82500000001,
      "d": 857.1425000000017,
      "v": 90
    },
    {
      "midi": 65,
      "hit": false,
      "t": 77142.82500000003,
      "d": 857.1425000000017,
      "v": 70
    },
    {
      "midi": 67,
      "hit": false,
      "t": 77999.96750000001,
      "d": 857.1425000000017,
      "v": 90
    },
    {
      "midi": 67,
      "hit": false,
      "t": 77999.96750000003,
      "d": 857.1425000000017,
      "v": 70
    },
    {
      "midi": 69,
      "hit": false,
      "t": 78857.11000000002,
      "d": 2571.4275000000052,
      "v": 90
    },
    {
      "midi": 69,
      "hit": false,
      "t": 78857.11000000003,
      "d": 2571.4275000000052,
      "v": 70
    },
    {
      "midi": 75,
      "hit": false,
      "t": 81428.53750000002,
      "d": 857.1425000000017,
      "v": 90
    },
    {
      "midi": 75,
      "hit": false,
      "t": 81428.53750000003,
      "d": 857.1425000000017,
      "v": 70
    },
    {
      "midi": 46,
      "hit": false,
      "t": 82285.68000000001,
      "d": 6857.139999999999,
      "v": 85
    },
    {
      "midi": 74,
      "hit": false,
      "t": 82285.68000000002,
      "d": 6857.139999999999,
      "v": 90
    },
    {
      "midi": 74,
      "hit": false,
      "t": 82285.68000000004,
      "d": 6857.139999999999,
      "v": 70
    },
    {
      "midi": 62,
      "hit": false,
      "t": 82285.68000000005,
      "d": 857.1425000000017,
      "v": 80
    },
    {
      "midi": 53,
      "hit": false,
      "t": 83142.82250000005,
      "d": 857.1425000000017,
      "v": 80
    },
    {
      "midi": 58,
      "hit": false,
      "t": 83999.96500000005,
      "d": 857.1425000000017,
      "v": 80
    },
    {
      "midi": 62,
      "hit": false,
      "t": 84857.10750000006,
      "d": 1714.2850000000035,
      "v": 80
    },
    {
      "midi": 53,
      "hit": false,
      "t": 86571.39250000006,
      "d": 857.1425000000017,
      "v": 80
    },
    {
      "midi": 58,
      "hit": false,
      "t": 87428.53500000006,
      "d": 857.1425000000017,
      "v": 80
    },
    {
      "midi": 62,
      "hit": false,
      "t": 88285.67750000006,
      "d": 857.1425000000017,
      "v": 80
    },
    {
      "midi": 39,
      "hit": false,
      "t": 89142.82,
      "d": 6857.139999999999,
      "v": 85
    },
    {
      "midi": 67,
      "hit": false,
      "t": 89142.82000000007,
      "d": 6857.139999999999,
      "v": 80
    },
    {
      "midi": 63,
      "hit": false,
      "t": 89142.82000000007,
      "d": 6857.139999999999,
      "v": 80
    },
    {
      "midi": 63,
      "hit": false,
      "t": 90857.10500000003,
      "d": 857.1425000000017,
      "v": 90
    },
    {
      "midi": 63,
      "hit": false,
      "t": 90857.10500000004,
      "d": 857.1425000000017,
      "v": 70
    },
    {
      "midi": 65,
      "hit": false,
      "t": 91714.24750000003,
      "d": 857.1425000000017,
      "v": 90
    },
    {
      "midi": 65,
      "hit": false,
      "t": 91714.24750000004,
      "d": 857.1425000000017,
      "v": 70
    },
    {
      "midi": 67,
      "hit": false,
      "t": 92571.39000000003,
      "d": 1714.2850000000035,
      "v": 90
    },
    {
      "midi": 67,
      "hit": false,
      "t": 92571.39000000004,
      "d": 1714.2850000000035,
      "v": 70
    },
    {
      "midi": 74,
      "hit": false,
      "t": 94285.67500000003,
      "d": 857.1425000000017,
      "v": 90
    },
    {
      "midi": 74,
      "hit": false,
      "t": 94285.67500000005,
      "d": 857.1425000000017,
      "v": 70
    },
    {
      "midi": 70,
      "hit": false,
      "t": 95142.81750000003,
      "d": 857.1425000000017,
      "v": 90
    },
    {
      "midi": 70,
      "hit": false,
      "t": 95142.81750000005,
      "d": 857.1425000000017,
      "v": 70
    },
    {
      "midi": 36,
      "hit": false,
      "t": 95999.96,
      "d": 3428.570000000007,
      "v": 85
    },
    {
      "midi": 72,
      "hit": false,
      "t": 95999.96000000004,
      "d": 5999.997499999998,
      "v": 90
    },
    {
      "midi": 72,
      "hit": false,
      "t": 95999.96000000005,
      "d": 5999.997499999998,
      "v": 70
    },
    {
      "midi": 63,
      "hit": false,
      "t": 95999.96000000006,
      "d": 857.1425000000017,
      "v": 80
    },
    {
      "midi": 55,
      "hit": false,
      "t": 96857.10250000007,
      "d": 857.1425000000017,
      "v": 80
    },
    {
      "midi": 58,
      "hit": false,
      "t": 97714.24500000007,
      "d": 857.1425000000017,
      "v": 80
    },
    {
      "midi": 63,
      "hit": false,
      "t": 98571.38750000007,
      "d": 1714.2850000000035,
      "v": 80
    },
    {
      "midi": 48,
      "hit": false,
      "t": 99428.53000000001,
      "d": 3428.570000000007,
      "v": 85
    },
    {
      "midi": 55,
      "hit": false,
      "t": 100285.67250000007,
      "d": 857.1425000000017,
      "v": 80
    },
    {
      "midi": 58,
      "hit": false,
      "t": 101142.81500000008,
      "d": 857.1425000000017,
      "v": 80
    },
    {
      "midi": 70,
      "hit": false,
      "t": 101999.95750000003,
      "d": 857.1425000000017,
      "v": 90
    },
    {
      "midi": 70,
      "hit": false,
      "t": 101999.95750000005,
      "d": 857.1425000000017,
      "v": 70
    },
    {
      "midi": 63,
      "hit": false,
      "t": 101999.95750000008,
      "d": 857.1425000000017,
      "v": 80
    },
    {
      "midi": 38,
      "hit": false,
      "t": 102857.10000000002,
      "d": 3428.570000000007,
      "v": 85
    },
    {
      "midi": 69,
      "hit": false,
      "t": 102857.10000000003,
      "d": 5999.997499999998,
      "v": 90
    },
    {
      "midi": 69,
      "hit": false,
      "t": 102857.10000000005,
      "d": 5999.997499999998,
      "v": 70
    },
    {
      "midi": 62,
      "hit": false,
      "t": 102857.10000000008,
      "d": 857.1425000000017,
      "v": 80
    },
    {
      "midi": 54,
      "hit": false,
      "t": 103714.24250000008,
      "d": 857.1425000000017,
      "v": 80
    },
    {
      "midi": 57,
      "hit": false,
      "t": 104571.38500000008,
      "d": 857.1425000000017,
      "v": 80
    },
    {
      "midi": 62,
      "hit": false,
      "t": 105428.52750000008,
      "d": 1714.2850000000035,
      "v": 80
    },
    {
      "midi": 50,
      "hit": false,
      "t": 106285.67000000003,
      "d": 3428.570000000007,
      "v": 85
    },
    {
      "midi": 54,
      "hit": false,
      "t": 107142.81250000009,
      "d": 857.1425000000017,
      "v": 80
    },
    {
      "midi": 57,
      "hit": false,
      "t": 107999.95500000009,
      "d": 857.1425000000017,
      "v": 80
    },
    {
      "midi": 70,
      "hit": false,
      "t": 108857.09750000003,
      "d": 857.1425000000017,
      "v": 90
    },
    {
      "midi": 70,
      "hit": false,
      "t": 108857.09750000005,
      "d": 857.1425000000017,
      "v": 70
    },
    {
      "midi": 62,
      "hit": false,
      "t": 108857.09750000009,
      "d": 857.1425000000017,
      "v": 80
    },
    {
      "midi": 43,
      "hit": false,
      "t": 109714.24000000003,
      "d": 3428.570000000007,
      "v": 85
    },
    {
      "midi": 67,
      "hit": false,
      "t": 109714.24000000003,
      "d": 6857.139999999999,
      "v": 90
    },
    {
      "midi": 67,
      "hit": false,
      "t": 109714.24000000005,
      "d": 6857.139999999999,
      "v": 70
    },
    {
      "midi": 62,
      "hit": false,
      "t": 109714.24000000009,
      "d": 857.1425000000017,
      "v": 80
    },
    {
      "midi": 57,
      "hit": false,
      "t": 110571.3825000001,
      "d": 857.1425000000017,
      "v": 80
    },
    {
      "midi": 58,
      "hit": false,
      "t": 111428.5250000001,
      "d": 857.1425000000017,
      "v": 80
    },
    {
      "midi": 62,
      "hit": false,
      "t": 112285.6675000001,
      "d": 1714.2850000000035,
      "v": 80
    },
    {
      "midi": 55,
      "hit": false,
      "t": 113142.81000000004,
      "d": 3428.570000000007,
      "v": 85
    },
    {
      "midi": 55,
      "hit": false,
      "t": 113999.9525,
      "d": 857.1425000000017,
      "v": 85
    },
    {
      "midi": 67,
      "hit": false,
      "t": 113999.9525000001,
      "d": 857.1425000000017,
      "v": 80
    },
    {
      "midi": 50,
      "hit": false,
      "t": 114857.095,
      "d": 857.1425000000017,
      "v": 85
    },
    {
      "midi": 69,
      "hit": false,
      "t": 114857.0950000001,
      "d": 857.1425000000017,
      "v": 80
    },
    {
      "midi": 46,
      "hit": false,
      "t": 115714.2375,
      "d": 857.1425000000017,
      "v": 85
    },
    {
      "midi": 72,
      "hit": false,
      "t": 115714.2375000001,
      "d": 857.1425000000017,
      "v": 80
    },
    {
      "midi": 43,
      "hit": false,
      "t": 116571.38,
      "d": 4285.712499999994,
      "v": 85
    },
    {
      "midi": 43,
      "hit": false,
      "t": 116571.38000000005,
      "d": 6857.139999999999,
      "v": 85
    },
    {
      "midi": 74,
      "hit": false,
      "t": 116571.3800000001,
      "d": 6857.139999999999,
      "v": 80
    },
    {
      "midi": 62,
      "hit": false,
      "t": 116571.3800000001,
      "d": 6857.139999999999,
      "v": 70
    },
    {
      "midi": 55,
      "hit": false,
      "t": 116571.3800000001,
      "d": 6857.139999999999,
      "v": 70
    },
    {
      "midi": 58,
      "hit": false,
      "t": 116571.3800000001,
      "d": 6857.139999999999,
      "v": 70
    },
    {
      "midi": 62,
      "hit": false,
      "t": 118285.66500000001,
      "d": 1714.2850000000035,
      "v": 85
    },
    {
      "midi": 79,
      "hit": false,
      "t": 118285.66500000004,
      "d": 1714.2850000000035,
      "v": 100
    },
    {
      "midi": 67,
      "hit": false,
      "t": 118285.66500000005,
      "d": 1714.2850000000035,
      "v": 70
    },
    {
      "midi": 62,
      "hit": false,
      "t": 119999.95000000001,
      "d": 2571.4275000000052,
      "v": 85
    },
    {
      "midi": 79,
      "hit": false,
      "t": 119999.95000000004,
      "d": 2571.4275000000052,
      "v": 100
    },
    {
      "midi": 67,
      "hit": false,
      "t": 119999.95000000006,
      "d": 2571.4275000000052,
      "v": 70
    },
    {
      "midi": 43,
      "hit": false,
      "t": 120857.0925,
      "d": 857.1425000000017,
      "v": 85
    },
    {
      "midi": 55,
      "hit": false,
      "t": 121714.235,
      "d": 857.1425000000017,
      "v": 85
    },
    {
      "midi": 53,
      "hit": false,
      "t": 122571.3775,
      "d": 857.1425000000017,
      "v": 85
    },
    {
      "midi": 62,
      "hit": false,
      "t": 122571.37750000002,
      "d": 857.1425000000017,
      "v": 85
    },
    {
      "midi": 77,
      "hit": false,
      "t": 122571.37750000005,
      "d": 857.1425000000017,
      "v": 100
    },
    {
      "midi": 74,
      "hit": false,
      "t": 122571.37750000006,
      "d": 857.1425000000017,
      "v": 70
    },
    {
      "midi": 51,
      "hit": false,
      "t": 123428.52,
      "d": 5999.997499999998,
      "v": 85
    },
    {
      "midi": 63,
      "hit": false,
      "t": 123428.52000000002,
      "d": 4285.712499999994,
      "v": 85
    },
    {
      "midi": 39,
      "hit": false,
      "t": 123428.52000000005,
      "d": 6857.139999999999,
      "v": 85
    },
    {
      "midi": 79,
      "hit": false,
      "t": 123428.52000000005,
      "d": 6857.139999999999,
      "v": 100
    },
    {
      "midi": 75,
      "hit": false,
      "t": 123428.52000000005,
      "d": 6857.139999999999,
      "v": 100
    },
    {
      "midi": 75,
      "hit": false,
      "t": 123428.52000000006,
      "d": 6857.139999999999,
      "v": 70
    },
    {
      "midi": 63,
      "hit": false,
      "t": 123428.5200000001,
      "d": 857.1425000000017,
      "v": 80
    },
    {
      "midi": 58,
      "hit": false,
      "t": 123428.5200000001,
      "d": 857.1425000000017,
      "v": 80
    },
    {
      "midi": 55,
      "hit": false,
      "t": 123428.5200000001,
      "d": 857.1425000000017,
      "v": 80
    },
    {
      "midi": 51,
      "hit": false,
      "t": 124285.66250000011,
      "d": 857.1425000000017,
      "v": 80
    },
    {
      "midi": 63,
      "hit": false,
      "t": 125142.80500000011,
      "d": 857.1425000000017,
      "v": 80
    },
    {
      "midi": 58,
      "hit": false,
      "t": 125142.80500000011,
      "d": 857.1425000000017,
      "v": 80
    },
    {
      "midi": 55,
      "hit": false,
      "t": 125142.80500000011,
      "d": 857.1425000000017,
      "v": 80
    },
    {
      "midi": 51,
      "hit": false,
      "t": 125999.94750000011,
      "d": 857.1425000000017,
      "v": 80
    },
    {
      "midi": 63,
      "hit": false,
      "t": 126857.09000000011,
      "d": 857.1425000000017,
      "v": 80
    },
    {
      "midi": 58,
      "hit": false,
      "t": 126857.09000000011,
      "d": 857.1425000000017,
      "v": 80
    },
    {
      "midi": 55,
      "hit": false,
      "t": 126857.09000000011,
      "d": 857.1425000000017,
      "v": 80
    },
    {
      "midi": 62,
      "hit": false,
      "t": 127714.23250000001,
      "d": 857.1425000000017,
      "v": 85
    },
    {
      "midi": 51,
      "hit": false,
      "t": 127714.23250000011,
      "d": 857.1425000000017,
      "v": 80
    },
    {
      "midi": 63,
      "hit": false,
      "t": 128571.37500000001,
      "d": 857.1425000000017,
      "v": 85
    },
    {
      "midi": 63,
      "hit": false,
      "t": 128571.37500000012,
      "d": 857.1425000000017,
      "v": 80
    },
    {
      "midi": 58,
      "hit": false,
      "t": 128571.37500000012,
      "d": 857.1425000000017,
      "v": 80
    },
    {
      "midi": 55,
      "hit": false,
      "t": 128571.37500000012,
      "d": 857.1425000000017,
      "v": 80
    },
    {
      "midi": 51,
      "hit": false,
      "t": 129428.5175,
      "d": 428.5712499999936,
      "v": 85
    },
    {
      "midi": 65,
      "hit": false,
      "t": 129428.51750000002,
      "d": 428.5712499999936,
      "v": 85
    },
    {
      "midi": 51,
      "hit": false,
      "t": 129428.51750000012,
      "d": 857.1425000000017,
      "v": 80
    },
    {
      "midi": 50,
      "hit": false,
      "t": 129857.08875,
      "d": 428.5712499999936,
      "v": 85
    },
    {
      "midi": 67,
      "hit": false,
      "t": 129857.08875000001,
      "d": 428.5712499999936,
      "v": 85
    },
    {
      "midi": 48,
      "hit": false,
      "t": 130285.65999999999,
      "d": 6857.139999999999,
      "v": 85
    },
    {
      "midi": 65,
      "hit": false,
      "t": 130285.66,
      "d": 6857.140000000014,
      "v": 85
    },
    {
      "midi": 41,
      "hit": false,
      "t": 130285.66000000005,
      "d": 6857.139999999999,
      "v": 85
    },
    {
      "midi": 60,
      "hit": false,
      "t": 130285.66000000012,
      "d": 857.1424999999872,
      "v": 80
    },
    {
      "midi": 57,
      "hit": false,
      "t": 130285.66000000012,
      "d": 857.1424999999872,
      "v": 80
    },
    {
      "midi": 53,
      "hit": false,
      "t": 130285.66000000012,
      "d": 857.1424999999872,
      "v": 80
    },
    {
      "midi": 48,
      "hit": false,
      "t": 131142.8025000001,
      "d": 857.1424999999872,
      "v": 80
    },
    {
      "midi": 79,
      "hit": false,
      "t": 131999.94500000004,
      "d": 1714.2850000000035,
      "v": 100
    },
    {
      "midi": 72,
      "hit": false,
      "t": 131999.94500000007,
      "d": 1714.2850000000035,
      "v": 70
    },
    {
      "midi": 60,
      "hit": false,
      "t": 131999.9450000001,
      "d": 857.1424999999872,
      "v": 80
    },
    {
      "midi": 57,
      "hit": false,
      "t": 131999.9450000001,
      "d": 857.1424999999872,
      "v": 80
    },
    {
      "midi": 53,
      "hit": false,
      "t": 131999.9450000001,
      "d": 857.1424999999872,
      "v": 80
    },
    {
      "midi": 48,
      "hit": false,
      "t": 132857.08750000008,
      "d": 857.1424999999872,
      "v": 80
    },
    {
      "midi": 81,
      "hit": false,
      "t": 133714.23000000004,
      "d": 2571.4274999999907,
      "v": 100
    },
    {
      "midi": 60,
      "hit": false,
      "t": 133714.23000000007,
      "d": 857.1424999999872,
      "v": 80
    },
    {
      "midi": 57,
      "hit": false,
      "t": 133714.23000000007,
      "d": 857.1424999999872,
      "v": 80
    },
    {
      "midi": 53,
      "hit": false,
      "t": 133714.23000000007,
      "d": 857.1424999999872,
      "v": 80
    },
    {
      "midi": 72,
      "hit": false,
      "t": 133714.23000000007,
      "d": 2571.4274999999907,
      "v": 70
    },
    {
      "midi": 48,
      "hit": false,
      "t": 134571.37250000006,
      "d": 857.1424999999872,
      "v": 80
    },
    {
      "midi": 60,
      "hit": false,
      "t": 135428.51500000004,
      "d": 857.1424999999872,
      "v": 80
    },
    {
      "midi": 57,
      "hit": false,
      "t": 135428.51500000004,
      "d": 857.1424999999872,
      "v": 80
    },
    {
      "midi": 53,
      "hit": false,
      "t": 135428.51500000004,
      "d": 857.1424999999872,
      "v": 80
    },
    {
      "midi": 48,
      "hit": false,
      "t": 136285.65750000003,
      "d": 857.1424999999872,
      "v": 80
    },
    {
      "midi": 79,
      "hit": false,
      "t": 136285.65750000003,
      "d": 857.1424999999872,
      "v": 100
    },
    {
      "midi": 75,
      "hit": false,
      "t": 136285.65750000006,
      "d": 857.1424999999872,
      "v": 70
    },
    {
      "midi": 50,
      "hit": false,
      "t": 137142.8,
      "d": 3428.570000000007,
      "v": 85
    },
    {
      "midi": 69,
      "hit": false,
      "t": 137142.80000000002,
      "d": 857.1424999999872,
      "v": 80
    },
    {
      "midi": 66,
      "hit": false,
      "t": 137142.80000000002,
      "d": 857.1424999999872,
      "v": 80
    },
    {
      "midi": 62,
      "hit": false,
      "t": 137142.80000000002,
      "d": 857.1424999999872,
      "v": 80
    },
    {
      "midi": 78,
      "hit": false,
      "t": 137142.80000000002,
      "d": 6857.140000000014,
      "v": 100
    },
    {
      "midi": 66,
      "hit": false,
      "t": 137142.80000000002,
      "d": 1714.2850000000035,
      "v": 85
    },
    {
      "midi": 38,
      "hit": false,
      "t": 137142.80000000005,
      "d": 4285.712499999994,
      "v": 85
    },
    {
      "midi": 74,
      "hit": false,
      "t": 137142.80000000005,
      "d": 6857.140000000014,
      "v": 70
    },
    {
      "midi": 57,
      "hit": false,
      "t": 137999.9425,
      "d": 857.1424999999872,
      "v": 80
    },
    {
      "midi": 69,
      "hit": false,
      "t": 138857.085,
      "d": 857.1424999999872,
      "v": 80
    },
    {
      "midi": 66,
      "hit": false,
      "t": 138857.085,
      "d": 857.1424999999872,
      "v": 80
    },
    {
      "midi": 62,
      "hit": false,
      "t": 138857.085,
      "d": 857.1424999999872,
      "v": 80
    },
    {
      "midi": 57,
      "hit": false,
      "t": 139714.22749999998,
      "d": 857.1424999999872,
      "v": 80
    },
    {
      "midi": 66,
      "hit": false,
      "t": 139714.2275,
      "d": 428.57125000000815,
      "v": 85
    },
    {
      "midi": 67,
      "hit": false,
      "t": 140142.79875000002,
      "d": 428.57125000000815,
      "v": 85
    },
    {
      "midi": 69,
      "hit": false,
      "t": 140571.36999999997,
      "d": 857.1424999999872,
      "v": 80
    },
    {
      "midi": 66,
      "hit": false,
      "t": 140571.36999999997,
      "d": 857.1424999999872,
      "v": 80
    },
    {
      "midi": 62,
      "hit": false,
      "t": 140571.36999999997,
      "d": 857.1424999999872,
      "v": 80
    },
    {
      "midi": 54,
      "hit": false,
      "t": 140571.37,
      "d": 857.1424999999872,
      "v": 85
    },
    {
      "midi": 69,
      "hit": false,
      "t": 140571.37000000002,
      "d": 1714.2850000000035,
      "v": 85
    },
    {
      "midi": 57,
      "hit": false,
      "t": 141428.51249999995,
      "d": 857.1424999999872,
      "v": 80
    },
    {
      "midi": 55,
      "hit": false,
      "t": 141428.51249999998,
      "d": 857.1424999999872,
      "v": 85
    },
    {
      "midi": 38,
      "hit": false,
      "t": 141428.51250000004,
      "d": 857.1424999999872,
      "v": 85
    },
    {
      "midi": 69,
      "hit": false,
      "t": 142285.65499999994,
      "d": 857.1424999999872,
      "v": 80
    },
    {
      "midi": 66,
      "hit": false,
      "t": 142285.65499999994,
      "d": 857.1424999999872,
      "v": 80
    },
    {
      "midi": 62,
      "hit": false,
      "t": 142285.65499999994,
      "d": 857.1424999999872,
      "v": 80
    },
    {
      "midi": 57,
      "hit": false,
      "t": 142285.65499999997,
      "d": 1714.2850000000035,
      "v": 85
    },
    {
      "midi": 38,
      "hit": false,
      "t": 142285.65500000003,
      "d": 857.1424999999872,
      "v": 85
    },
    {
      "midi": 62,
      "hit": false,
      "t": 142285.65500000003,
      "d": 1714.2850000000035,
      "v": 85
    },
    {
      "midi": 57,
      "hit": false,
      "t": 143142.79749999993,
      "d": 857.1424999999872,
      "v": 80
    },
    {
      "midi": 38,
      "hit": false,
      "t": 143142.79750000002,
      "d": 857.1424999999872,
      "v": 85
    },
    {
      "midi": 67,
      "hit": false,
      "t": 143999.93999999992,
      "d": 857.1424999999872,
      "v": 80
    },
    {
      "midi": 62,
      "hit": false,
      "t": 143999.93999999992,
      "d": 857.1424999999872,
      "v": 80
    },
    {
      "midi": 59,
      "hit": false,
      "t": 143999.93999999992,
      "d": 857.1424999999872,
      "v": 80
    },
    {
      "midi": 55,
      "hit": false,
      "t": 143999.93999999997,
      "d": 4285.712499999994,
      "v": 85
    },
    {
      "midi": 43,
      "hit": false,
      "t": 143999.94,
      "d": 6857.140000000014,
      "v": 85
    },
    {
      "midi": 67,
      "hit": false,
      "t": 143999.94000000003,
      "d": 857.1424999999872,
      "v": 85
    },
    {
      "midi": 55,
      "hit": false,
      "t": 144857.0824999999,
      "d": 857.1424999999872,
      "v": 80
    },
    {
      "midi": 67,
      "hit": false,
      "t": 145714.2249999999,
      "d": 857.1424999999872,
      "v": 80
    },
    {
      "midi": 62,
      "hit": false,
      "t": 145714.2249999999,
      "d": 857.1424999999872,
      "v": 80
    },
    {
      "midi": 59,
      "hit": false,
      "t": 145714.2249999999,
      "d": 857.1424999999872,
      "v": 80
    },
    {
      "midi": 62,
      "hit": false,
      "t": 145714.225,
      "d": 2571.4274999999907,
      "v": 85
    },
    {
      "midi": 79,
      "hit": false,
      "t": 145714.22500000003,
      "d": 1714.2850000000035,
      "v": 100
    },
    {
      "midi": 74,
      "hit": false,
      "t": 145714.22500000006,
      "d": 1714.2850000000035,
      "v": 70
    },
    {
      "midi": 55,
      "hit": false,
      "t": 146571.36749999988,
      "d": 857.1424999999872,
      "v": 80
    },
    {
      "midi": 67,
      "hit": false,
      "t": 147428.50999999986,
      "d": 857.1424999999872,
      "v": 80
    },
    {
      "midi": 62,
      "hit": false,
      "t": 147428.50999999986,
      "d": 857.1424999999872,
      "v": 80
    },
    {
      "midi": 59,
      "hit": false,
      "t": 147428.50999999986,
      "d": 857.1424999999872,
      "v": 80
    },
    {
      "midi": 79,
      "hit": false,
      "t": 147428.51000000004,
      "d": 2571.4274999999907,
      "v": 100
    },
    {
      "midi": 74,
      "hit": false,
      "t": 147428.51000000007,
      "d": 2571.4274999999907,
      "v": 70
    },
    {
      "midi": 55,
      "hit": false,
      "t": 148285.65249999985,
      "d": 857.1424999999872,
      "v": 80
    },
    {
      "midi": 50,
      "hit": false,
      "t": 148285.65249999997,
      "d": 857.1424999999872,
      "v": 85
    },
    {
      "midi": 62,
      "hit": false,
      "t": 148285.6525,
      "d": 857.1424999999872,
      "v": 85
    },
    {
      "midi": 67,
      "hit": false,
      "t": 149142.79499999984,
      "d": 857.1424999999872,
      "v": 80
    },
    {
      "midi": 62,
      "hit": false,
      "t": 149142.79499999984,
      "d": 857.1424999999872,
      "v": 80
    },
    {
      "midi": 59,
      "hit": false,
      "t": 149142.79499999984,
      "d": 857.1424999999872,
      "v": 80
    },
    {
      "midi": 55,
      "hit": false,
      "t": 149142.79499999995,
      "d": 857.1424999999872,
      "v": 85
    },
    {
      "midi": 67,
      "hit": false,
      "t": 149142.79499999998,
      "d": 857.1424999999872,
      "v": 85
    },
    {
      "midi": 55,
      "hit": false,
      "t": 149999.93749999983,
      "d": 857.1424999999872,
      "v": 80
    },
    {
      "midi": 53,
      "hit": false,
      "t": 149999.93749999994,
      "d": 857.1424999999872,
      "v": 85
    },
    {
      "midi": 65,
      "hit": false,
      "t": 149999.93749999997,
      "d": 857.1424999999872,
      "v": 85
    },
    {
      "midi": 77,
      "hit": false,
      "t": 149999.93750000003,
      "d": 857.1424999999872,
      "v": 100
    },
    {
      "midi": 74,
      "hit": false,
      "t": 149999.93750000006,
      "d": 857.1424999999872,
      "v": 70
    },
    {
      "midi": 60,
      "hit": false,
      "t": 150857.0799999998,
      "d": 857.1424999999872,
      "v": 85
    },
    {
      "midi": 63,
      "hit": false,
      "t": 150857.0799999998,
      "d": 857.1424999999872,
      "v": 85
    },
    {
      "midi": 67,
      "hit": false,
      "t": 150857.0799999998,
      "d": 857.1424999999872,
      "v": 85
    },
    {
      "midi": 48,
      "hit": false,
      "t": 150857.07999999993,
      "d": 3428.570000000007,
      "v": 85
    },
    {
      "midi": 63,
      "hit": false,
      "t": 150857.07999999996,
      "d": 6857.140000000014,
      "v": 85
    },
    {
      "midi": 36,
      "hit": false,
      "t": 150857.08000000002,
      "d": 3428.570000000007,
      "v": 85
    },
    {
      "midi": 79,
      "hit": false,
      "t": 150857.08000000002,
      "d": 6857.140000000014,
      "v": 100
    },
    {
      "midi": 75,
      "hit": false,
      "t": 150857.08000000005,
      "d": 6857.140000000014,
      "v": 70
    },
    {
      "midi": 55,
      "hit": false,
      "t": 151714.2224999998,
      "d": 857.1424999999872,
      "v": 85
    },
    {
      "midi": 60,
      "hit": false,
      "t": 152571.3649999998,
      "d": 857.1424999999872,
      "v": 85
    },
    {
      "midi": 63,
      "hit": false,
      "t": 152571.3649999998,
      "d": 857.1424999999872,
      "v": 85
    },
    {
      "midi": 67,
      "hit": false,
      "t": 152571.3649999998,
      "d": 857.1424999999872,
      "v": 85
    },
    {
      "midi": 55,
      "hit": false,
      "t": 153428.50749999977,
      "d": 857.1424999999872,
      "v": 85
    },
    {
      "midi": 60,
      "hit": false,
      "t": 154285.64999999976,
      "d": 857.1424999999872,
      "v": 85
    },
    {
      "midi": 63,
      "hit": false,
      "t": 154285.64999999976,
      "d": 857.1424999999872,
      "v": 85
    },
    {
      "midi": 67,
      "hit": false,
      "t": 154285.64999999976,
      "d": 857.1424999999872,
      "v": 85
    },
    {
      "midi": 48,
      "hit": false,
      "t": 154285.64999999994,
      "d": 857.1424999999872,
      "v": 85
    },
    {
      "midi": 36,
      "hit": false,
      "t": 154285.65000000002,
      "d": 857.1424999999872,
      "v": 85
    },
    {
      "midi": 55,
      "hit": false,
      "t": 155142.79249999975,
      "d": 857.1424999999872,
      "v": 85
    },
    {
      "midi": 50,
      "hit": false,
      "t": 155142.79249999992,
      "d": 857.1424999999872,
      "v": 85
    },
    {
      "midi": 38,
      "hit": false,
      "t": 155142.7925,
      "d": 857.1424999999872,
      "v": 85
    },
    {
      "midi": 60,
      "hit": false,
      "t": 155999.93499999974,
      "d": 857.1424999999872,
      "v": 85
    },
    {
      "midi": 63,
      "hit": false,
      "t": 155999.93499999974,
      "d": 857.1424999999872,
      "v": 85
    },
    {
      "midi": 67,
      "hit": false,
      "t": 155999.93499999974,
      "d": 857.1424999999872,
      "v": 85
    },
    {
      "midi": 51,
      "hit": false,
      "t": 155999.9349999999,
      "d": 1714.2850000000035,
      "v": 85
    },
    {
      "midi": 39,
      "hit": false,
      "t": 155999.935,
      "d": 1714.2850000000035,
      "v": 85
    },
    {
      "midi": 58,
      "hit": false,
      "t": 156857.07749999972,
      "d": 857.1424999999872,
      "v": 85
    },
    {
      "midi": 61,
      "hit": false,
      "t": 157714.2199999997,
      "d": 857.1424999999872,
      "v": 85
    },
    {
      "midi": 64,
      "hit": false,
      "t": 157714.2199999997,
      "d": 857.1424999999872,
      "v": 85
    },
    {
      "midi": 57,
      "hit": false,
      "t": 157714.2199999997,
      "d": 857.1424999999872,
      "v": 85
    },
    {
      "midi": 52,
      "hit": false,
      "t": 157714.2199999999,
      "d": 5142.8550000000105,
      "v": 85
    },
    {
      "midi": 61,
      "hit": false,
      "t": 157714.21999999997,
      "d": 3428.570000000007,
      "v": 85
    },
    {
      "midi": 40,
      "hit": false,
      "t": 157714.22,
      "d": 6857.140000000014,
      "v": 85
    },
    {
      "midi": 57,
      "hit": false,
      "t": 158571.3624999997,
      "d": 857.1424999999872,
      "v": 85
    },
    {
      "midi": 61,
      "hit": false,
      "t": 159428.50499999968,
      "d": 857.1424999999872,
      "v": 85
    },
    {
      "midi": 64,
      "hit": false,
      "t": 159428.50499999968,
      "d": 857.1424999999872,
      "v": 85
    },
    {
      "midi": 57,
      "hit": false,
      "t": 159428.50499999968,
      "d": 857.1424999999872,
      "v": 85
    },
    {
      "midi": 79,
      "hit": false,
      "t": 159428.50500000003,
      "d": 1714.2850000000035,
      "v": 100
    },
    {
      "midi": 76,
      "hit": false,
      "t": 159428.50500000006,
      "d": 1714.2850000000035,
      "v": 70
    },
    {
      "midi": 57,
      "hit": false,
      "t": 160285.64749999967,
      "d": 857.1424999999872,
      "v": 85
    },
    {
      "midi": 61,
      "hit": false,
      "t": 161142.78999999966,
      "d": 857.1424999999872,
      "v": 85
    },
    {
      "midi": 64,
      "hit": false,
      "t": 161142.78999999966,
      "d": 857.1424999999872,
      "v": 85
    },
    {
      "midi": 57,
      "hit": false,
      "t": 161142.78999999966,
      "d": 857.1424999999872,
      "v": 85
    },
    {
      "midi": 69,
      "hit": false,
      "t": 161142.78999999998,
      "d": 2571.4274999999907,
      "v": 85
    },
    {
      "midi": 81,
      "hit": false,
      "t": 161142.79000000004,
      "d": 2571.4274999999907,
      "v": 100
    },
    {
      "midi": 76,
      "hit": false,
      "t": 161142.79000000007,
      "d": 2571.4274999999907,
      "v": 70
    },
    {
      "midi": 57,
      "hit": false,
      "t": 161999.93249999965,
      "d": 857.1424999999872,
      "v": 85
    },
    {
      "midi": 61,
      "hit": false,
      "t": 162857.07499999963,
      "d": 857.1424999999872,
      "v": 85
    },
    {
      "midi": 64,
      "hit": false,
      "t": 162857.07499999963,
      "d": 857.1424999999872,
      "v": 85
    },
    {
      "midi": 57,
      "hit": false,
      "t": 162857.07499999963,
      "d": 857.1424999999872,
      "v": 85
    },
    {
      "midi": 55,
      "hit": false,
      "t": 162857.07499999992,
      "d": 1714.2850000000035,
      "v": 85
    },
    {
      "midi": 57,
      "hit": false,
      "t": 163714.21749999962,
      "d": 857.1424999999872,
      "v": 85
    },
    {
      "midi": 67,
      "hit": false,
      "t": 163714.21749999997,
      "d": 857.1424999999872,
      "v": 85
    },
    {
      "midi": 82,
      "hit": false,
      "t": 163714.21750000003,
      "d": 857.1424999999872,
      "v": 100
    },
    {
      "midi": 76,
      "hit": false,
      "t": 163714.21750000006,
      "d": 857.1424999999872,
      "v": 70
    },
    {
      "midi": 62,
      "hit": false,
      "t": 164571.3599999996,
      "d": 857.1424999999872,
      "v": 90
    },
    {
      "midi": 66,
      "hit": false,
      "t": 164571.3599999996,
      "d": 857.1424999999872,
      "v": 90
    },
    {
      "midi": 69,
      "hit": false,
      "t": 164571.3599999996,
      "d": 857.1424999999872,
      "v": 90
    },
    {
      "midi": 54,
      "hit": false,
      "t": 164571.35999999993,
      "d": 2571.4274999999907,
      "v": 85
    },
    {
      "midi": 66,
      "hit": false,
      "t": 164571.35999999996,
      "d": 6857.140000000014,
      "v": 85
    },
    {
      "midi": 38,
      "hit": false,
      "t": 164571.36000000002,
      "d": 3428.570000000007,
      "v": 85
    },
    {
      "midi": 81,
      "hit": false,
      "t": 164571.36000000002,
      "d": 6857.140000000014,
      "v": 100
    },
    {
      "midi": 78,
      "hit": false,
      "t": 164571.36000000004,
      "d": 6857.140000000014,
      "v": 70
    },
    {
      "midi": 57,
      "hit": false,
      "t": 165428.5024999996,
      "d": 857.1424999999872,
      "v": 90
    },
    {
      "midi": 62,
      "hit": false,
      "t": 166285.64499999958,
      "d": 857.1424999999872,
      "v": 90
    },
    {
      "midi": 66,
      "hit": false,
      "t": 166285.64499999958,
      "d": 857.1424999999872,
      "v": 90
    },
    {
      "midi": 69,
      "hit": false,
      "t": 166285.64499999958,
      "d": 857.1424999999872,
      "v": 90
    },
    {
      "midi": 57,
      "hit": false,
      "t": 167142.78749999957,
      "d": 857.1424999999872,
      "v": 90
    },
    {
      "midi": 54,
      "hit": false,
      "t": 167142.78749999992,
      "d": 428.57125000000815,
      "v": 85
    },
    {
      "midi": 55,
      "hit": false,
      "t": 167571.35874999993,
      "d": 428.57125000000815,
      "v": 85
    },
    {
      "midi": 62,
      "hit": false,
      "t": 167999.92999999956,
      "d": 857.1424999999872,
      "v": 90
    },
    {
      "midi": 66,
      "hit": false,
      "t": 167999.92999999956,
      "d": 857.1424999999872,
      "v": 90
    },
    {
      "midi": 69,
      "hit": false,
      "t": 167999.92999999956,
      "d": 857.1424999999872,
      "v": 90
    },
    {
      "midi": 57,
      "hit": false,
      "t": 167999.92999999993,
      "d": 3428.570000000007,
      "v": 85
    },
    {
      "midi": 38,
      "hit": false,
      "t": 167999.93000000002,
      "d": 1714.2850000000035,
      "v": 85
    },
    {
      "midi": 74,
      "hit": false,
      "t": 168857.07249999954,
      "d": 857.1424999999872,
      "v": 90
    },
    {
      "midi": 81,
      "hit": false,
      "t": 169714.21499999953,
      "d": 857.1424999999872,
      "v": 90
    },
    {
      "midi": 38,
      "hit": false,
      "t": 169714.21500000003,
      "d": 1714.2850000000035,
      "v": 85
    },
    {
      "midi": 74,
      "hit": false,
      "t": 170571.35749999952,
      "d": 642.8568749999977,
      "v": 90
    },
    {
      "midi": 74,
      "hit": false,
      "t": 171214.21437499952,
      "d": 35.71427083332674,
      "v": 95
    },
    {
      "midi": 78,
      "hit": false,
      "t": 171249.92864583284,
      "d": 71.42854166665347,
      "v": 95
    },
    {
      "midi": 81,
      "hit": false,
      "t": 171321.3571874995,
      "d": 35.71427083332674,
      "v": 95
    },
    {
      "midi": 84,
      "hit": false,
      "t": 171357.07145833282,
      "d": 71.42854166665347,
      "v": 95
    },
    {
      "midi": 86,
      "hit": false,
      "t": 171428.49999999948,
      "d": 6857.140000000014,
      "v": 95
    },
    {
      "midi": 38,
      "hit": false,
      "t": 171428.50000000003,
      "d": 5142.8550000000105,
      "v": 85
    },
    {
      "midi": 67,
      "hit": false,
      "t": 173142.78500000003,
      "d": 857.1424999999872,
      "v": 110
    },
    {
      "midi": 69,
      "hit": false,
      "t": 173999.92750000002,
      "d": 857.1424999999872,
      "v": 110
    },
    {
      "midi": 70,
      "hit": false,
      "t": 174857.07,
      "d": 2571.4274999999907,
      "v": 110
    },
    {
      "midi": 50,
      "hit": false,
      "t": 176571.35499999995,
      "d": 1714.2850000000035,
      "v": 85
    },
    {
      "midi": 74,
      "hit": false,
      "t": 176571.35499999998,
      "d": 1714.2850000000035,
      "v": 85
    },
    {
      "midi": 50,
      "hit": false,
      "t": 176571.355,
      "d": 107.14281250000931,
      "v": 70
    },
    {
      "midi": 42,
      "hit": false,
      "t": 176571.355,
      "d": 71.42854166665347,
      "v": 80
    },
    {
      "midi": 43,
      "hit": false,
      "t": 176571.355,
      "d": 1714.2850000000035,
      "v": 95
    },
    {
      "midi": 55,
      "hit": false,
      "t": 176571.355,
      "d": 1714.2850000000035,
      "v": 70
    },
    {
      "midi": 58,
      "hit": false,
      "t": 176571.355,
      "d": 1714.2850000000035,
      "v": 70
    },
    {
      "midi": 62,
      "hit": false,
      "t": 176571.355,
      "d": 1714.2850000000035,
      "v": 70
    },
    {
      "midi": 50,
      "hit": false,
      "t": 176571.35500000004,
      "d": 1714.2850000000035,
      "v": 85
    },
    {
      "midi": 55,
      "hit": false,
      "t": 176678.49781250002,
      "d": 107.14281250000931,
      "v": 70
    },
    {
      "midi": 57,
      "hit": false,
      "t": 176785.64062500003,
      "d": 107.14281250000931,
      "v": 75
    },
    {
      "midi": 60,
      "hit": false,
      "t": 176892.78343750004,
      "d": 107.14281250000931,
      "v": 75
    },
    {
      "midi": 42,
      "hit": false,
      "t": 176999.92625,
      "d": 71.42854166665347,
      "v": 80
    },
    {
      "midi": 62,
      "hit": false,
      "t": 176999.92625000005,
      "d": 107.14281250000931,
      "v": 80
    },
    {
      "midi": 67,
      "hit": false,
      "t": 177107.06906250006,
      "d": 107.14281250000931,
      "v": 80
    },
    {
      "midi": 69,
      "hit": false,
      "t": 177214.21187500007,
      "d": 107.14281250000931,
      "v": 85
    },
    {
      "midi": 72,
      "hit": false,
      "t": 177321.35468750008,
      "d": 107.14281250000931,
      "v": 85
    },
    {
      "midi": 46,
      "hit": false,
      "t": 177428.49749999997,
      "d": 107.14281250000931,
      "v": 80
    },
    {
      "midi": 74,
      "hit": false,
      "t": 177428.4975,
      "d": 857.1424999999872,
      "v": 110
    },
    {
      "midi": 74,
      "hit": false,
      "t": 177428.49750000008,
      "d": 107.14281250000931,
      "v": 90
    },
    {
      "midi": 79,
      "hit": false,
      "t": 177535.6403125001,
      "d": 107.14281250000931,
      "v": 90
    },
    {
      "midi": 81,
      "hit": false,
      "t": 177642.7831250001,
      "d": 107.14281250000931,
      "v": 90
    },
    {
      "midi": 84,
      "hit": false,
      "t": 177749.9259375001,
      "d": 107.14281250000931,
      "v": 90
    },
    {
      "midi": 86,
      "hit": false,
      "t": 177857.06875000012,
      "d": 107.14281250000931,
      "v": 90
    },
    {
      "midi": 91,
      "hit": false,
      "t": 177964.21156250013,
      "d": 107.14281250000931,
      "v": 90
    },
    {
      "midi": 93,
      "hit": false,
      "t": 178071.35437500014,
      "d": 107.14281250000931,
      "v": 90
    },
    {
      "midi": 96,
      "hit": false,
      "t": 178178.49718750015,
      "d": 107.14281250000931,
      "v": 90
    },
    {
      "midi": 63,
      "hit": false,
      "t": 178285.6399999995,
      "d": 857.1424999999872,
      "v": 90
    },
    {
      "midi": 58,
      "hit": false,
      "t": 178285.6399999995,
      "d": 857.1424999999872,
      "v": 90
    },
    {
      "midi": 55,
      "hit": false,
      "t": 178285.6399999995,
      "d": 857.1424999999872,
      "v": 90
    },
    {
      "midi": 48,
      "hit": false,
      "t": 178285.63999999996,
      "d": 3428.570000000007,
      "v": 85
    },
    {
      "midi": 75,
      "hit": false,
      "t": 178285.63999999998,
      "d": 6857.140000000014,
      "v": 110
    },
    {
      "midi": 75,
      "hit": false,
      "t": 178285.63999999998,
      "d": 5142.8550000000105,
      "v": 85
    },
    {
      "midi": 49,
      "hit": false,
      "t": 178285.63999999998,
      "d": 107.14281250000931,
      "v": 80
    },
    {
      "midi": 42,
      "hit": false,
      "t": 178285.63999999998,
      "d": 107.14281250000931,
      "v": 90
    },
    {
      "midi": 36,
      "hit": false,
      "t": 178285.64,
      "d": 107.14281250000931,
      "v": 110
    },
    {
      "midi": 36,
      "hit": false,
      "t": 178285.64,
      "d": 2571.4274999999907,
      "v": 95
    },
    {
      "midi": 55,
      "hit": false,
      "t": 178285.64,
      "d": 6857.140000000014,
      "v": 70
    },
    {
      "midi": 58,
      "hit": false,
      "t": 178285.64,
      "d": 6857.140000000014,
      "v": 70
    },
    {
      "midi": 63,
      "hit": false,
      "t": 178285.64,
      "d": 6857.140000000014,
      "v": 70
    },
    {
      "midi": 36,
      "hit": false,
      "t": 178285.64000000004,
      "d": 3428.570000000007,
      "v": 85
    },
    {
      "midi": 51,
      "hit": false,
      "t": 179142.78249999948,
      "d": 857.1424999999872,
      "v": 90
    },
    {
      "midi": 42,
      "hit": false,
      "t": 179142.7825,
      "d": 107.14281250000931,
      "v": 70
    },
    {
      "midi": 63,
      "hit": false,
      "t": 179999.92499999946,
      "d": 857.1424999999872,
      "v": 90
    },
    {
      "midi": 58,
      "hit": false,
      "t": 179999.92499999946,
      "d": 857.1424999999872,
      "v": 90
    },
    {
      "midi": 55,
      "hit": false,
      "t": 179999.92499999946,
      "d": 857.1424999999872,
      "v": 90
    },
    {
      "midi": 42,
      "hit": false,
      "t": 179999.92500000002,
      "d": 107.14281250000931,
      "v": 80
    },
    {
      "midi": 37,
      "hit": false,
      "t": 179999.92500000002,
      "d": 107.14281250000931,
      "v": 110
    },
    {
      "midi": 51,
      "hit": false,
      "t": 180857.06749999945,
      "d": 857.1424999999872,
      "v": 90
    },
    {
      "midi": 36,
      "hit": false,
      "t": 180857.0675,
      "d": 857.1424999999872,
      "v": 95
    },
    {
      "midi": 42,
      "hit": false,
      "t": 180857.06750000003,
      "d": 107.14281250000931,
      "v": 65
    },
    {
      "midi": 36,
      "hit": false,
      "t": 180857.06750000003,
      "d": 107.14281250000931,
      "v": 110
    },
    {
      "midi": 63,
      "hit": false,
      "t": 181714.20999999944,
      "d": 857.1424999999872,
      "v": 90
    },
    {
      "midi": 58,
      "hit": false,
      "t": 181714.20999999944,
      "d": 857.1424999999872,
      "v": 90
    },
    {
      "midi": 55,
      "hit": false,
      "t": 181714.20999999944,
      "d": 857.1424999999872,
      "v": 90
    },
    {
      "midi": 48,
      "hit": false,
      "t": 181714.20999999996,
      "d": 857.1424999999872,
      "v": 85
    },
    {
      "midi": 36,
      "hit": false,
      "t": 181714.21,
      "d": 3428.570000000007,
      "v": 95
    },
    {
      "midi": 36,
      "hit": false,
      "t": 181714.21000000005,
      "d": 857.1424999999872,
      "v": 85
    },
    {
      "midi": 42,
      "hit": false,
      "t": 181714.21000000005,
      "d": 107.14281250000931,
      "v": 90
    },
    {
      "midi": 36,
      "hit": false,
      "t": 181714.21000000005,
      "d": 107.14281250000931,
      "v": 110
    },
    {
      "midi": 51,
      "hit": false,
      "t": 182571.35249999943,
      "d": 857.1424999999872,
      "v": 90
    },
    {
      "midi": 50,
      "hit": false,
      "t": 182571.35249999995,
      "d": 857.1424999999872,
      "v": 85
    },
    {
      "midi": 38,
      "hit": false,
      "t": 182571.35250000004,
      "d": 857.1424999999872,
      "v": 85
    },
    {
      "midi": 42,
      "hit": false,
      "t": 182571.35250000007,
      "d": 107.14281250000931,
      "v": 70
    },
    {
      "midi": 63,
      "hit": false,
      "t": 183428.4949999994,
      "d": 857.1424999999872,
      "v": 90
    },
    {
      "midi": 58,
      "hit": false,
      "t": 183428.4949999994,
      "d": 857.1424999999872,
      "v": 90
    },
    {
      "midi": 55,
      "hit": false,
      "t": 183428.4949999994,
      "d": 857.1424999999872,
      "v": 90
    },
    {
      "midi": 51,
      "hit": false,
      "t": 183428.49499999994,
      "d": 857.1424999999872,
      "v": 85
    },
    {
      "midi": 79,
      "hit": false,
      "t": 183428.495,
      "d": 1714.2850000000035,
      "v": 85
    },
    {
      "midi": 39,
      "hit": false,
      "t": 183428.49500000002,
      "d": 857.1424999999872,
      "v": 85
    },
    {
      "midi": 75,
      "hit": false,
      "t": 183428.49500000002,
      "d": 1714.2850000000035,
      "v": 100
    },
    {
      "midi": 37,
      "hit": false,
      "t": 183428.49500000005,
      "d": 107.14281250000931,
      "v": 110
    },
    {
      "midi": 42,
      "hit": false,
      "t": 183428.49500000008,
      "d": 107.14281250000931,
      "v": 80
    },
    {
      "midi": 51,
      "hit": false,
      "t": 184285.6374999994,
      "d": 857.1424999999872,
      "v": 90
    },
    {
      "midi": 55,
      "hit": false,
      "t": 184285.63749999992,
      "d": 857.1424999999872,
      "v": 85
    },
    {
      "midi": 43,
      "hit": false,
      "t": 184285.6375,
      "d": 857.1424999999872,
      "v": 85
    },
    {
      "midi": 42,
      "hit": false,
      "t": 184285.6375000001,
      "d": 107.14281250000931,
      "v": 65
    },
    {
      "midi": 60,
      "hit": false,
      "t": 185142.7799999994,
      "d": 857.1424999999872,
      "v": 90
    },
    {
      "midi": 57,
      "hit": false,
      "t": 185142.7799999994,
      "d": 857.1424999999872,
      "v": 90
    },
    {
      "midi": 53,
      "hit": false,
      "t": 185142.7799999994,
      "d": 857.1424999999872,
      "v": 90
    },
    {
      "midi": 53,
      "hit": false,
      "t": 185142.7799999999,
      "d": 6857.140000000014,
      "v": 85
    },
    {
      "midi": 39,
      "hit": false,
      "t": 185142.78,
      "d": 5142.8550000000105,
      "v": 85
    },
    {
      "midi": 77,
      "hit": false,
      "t": 185142.78,
      "d": 6857.140000000014,
      "v": 85
    },
    {
      "midi": 29,
      "hit": false,
      "t": 185142.78,
      "d": 2571.4274999999907,
      "v": 95
    },
    {
      "midi": 53,
      "hit": false,
      "t": 185142.78000000003,
      "d": 6857.140000000014,
      "v": 70
    },
    {
      "midi": 57,
      "hit": false,
      "t": 185142.78000000003,
      "d": 6857.140000000014,
      "v": 70
    },
    {
      "midi": 60,
      "hit": false,
      "t": 185142.78000000003,
      "d": 6857.140000000014,
      "v": 70
    },
    {
      "midi": 77,
      "hit": false,
      "t": 185142.78000000003,
      "d": 5142.8550000000105,
      "v": 100
    },
    {
      "midi": 36,
      "hit": false,
      "t": 185142.78000000006,
      "d": 107.14281250000931,
      "v": 110
    },
    {
      "midi": 42,
      "hit": false,
      "t": 185142.78000000012,
      "d": 107.14281250000931,
      "v": 90
    },
    {
      "midi": 48,
      "hit": false,
      "t": 185999.92249999937,
      "d": 857.1424999999872,
      "v": 90
    },
    {
      "midi": 42,
      "hit": false,
      "t": 185999.92250000013,
      "d": 107.14281250000931,
      "v": 70
    },
    {
      "midi": 60,
      "hit": false,
      "t": 186857.06499999936,
      "d": 857.1424999999872,
      "v": 90
    },
    {
      "midi": 57,
      "hit": false,
      "t": 186857.06499999936,
      "d": 857.1424999999872,
      "v": 90
    },
    {
      "midi": 53,
      "hit": false,
      "t": 186857.06499999936,
      "d": 857.1424999999872,
      "v": 90
    },
    {
      "midi": 65,
      "hit": false,
      "t": 186857.065,
      "d": 857.1424999999872,
      "v": 110
    },
    {
      "midi": 37,
      "hit": false,
      "t": 186857.06500000006,
      "d": 107.14281250000931,
      "v": 110
    },
    {
      "midi": 42,
      "hit": false,
      "t": 186857.06500000015,
      "d": 107.14281250000931,
      "v": 80
    },
    {
      "midi": 48,
      "hit": false,
      "t": 187714.20749999935,
      "d": 857.1424999999872,
      "v": 90
    },
    {
      "midi": 67,
      "hit": false,
      "t": 187714.2075,
      "d": 857.1424999999872,
      "v": 110
    },
    {
      "midi": 29,
      "hit": false,
      "t": 187714.2075,
      "d": 857.1424999999872,
      "v": 95
    },
    {
      "midi": 36,
      "hit": false,
      "t": 187714.20750000008,
      "d": 107.14281250000931,
      "v": 110
    },
    {
      "midi": 42,
      "hit": false,
      "t": 187714.20750000016,
      "d": 107.14281250000931,
      "v": 65
    },
    {
      "midi": 60,
      "hit": false,
      "t": 188571.34999999934,
      "d": 857.1424999999872,
      "v": 90
    },
    {
      "midi": 57,
      "hit": false,
      "t": 188571.34999999934,
      "d": 857.1424999999872,
      "v": 90
    },
    {
      "midi": 53,
      "hit": false,
      "t": 188571.34999999934,
      "d": 857.1424999999872,
      "v": 90
    },
    {
      "midi": 69,
      "hit": false,
      "t": 188571.34999999998,
      "d": 2571.4274999999907,
      "v": 110
    },
    {
      "midi": 29,
      "hit": false,
      "t": 188571.34999999998,
      "d": 1714.2850000000035,
      "v": 95
    },
    {
      "midi": 36,
      "hit": false,
      "t": 188571.3500000001,
      "d": 107.14281250000931,
      "v": 110
    },
    {
      "midi": 42,
      "hit": false,
      "t": 188571.35000000018,
      "d": 107.14281250000931,
      "v": 90
    },
    {
      "midi": 48,
      "hit": false,
      "t": 189428.49249999932,
      "d": 857.1424999999872,
      "v": 90
    },
    {
      "midi": 42,
      "hit": false,
      "t": 189428.4925000002,
      "d": 107.14281250000931,
      "v": 70
    },
    {
      "midi": 57,
      "hit": false,
      "t": 190285.6349999993,
      "d": 428.57125000000815,
      "v": 90
    },
    {
      "midi": 36,
      "hit": false,
      "t": 190285.63499999998,
      "d": 1714.2850000000035,
      "v": 95
    },
    {
      "midi": 36,
      "hit": false,
      "t": 190285.635,
      "d": 1714.2850000000035,
      "v": 85
    },
    {
      "midi": 77,
      "hit": false,
      "t": 190285.63500000004,
      "d": 1714.2850000000035,
      "v": 100
    },
    {
      "midi": 37,
      "hit": false,
      "t": 190285.6350000001,
      "d": 107.14281250000931,
      "v": 110
    },
    {
      "midi": 42,
      "hit": false,
      "t": 190285.6350000002,
      "d": 107.14281250000931,
      "v": 80
    },
    {
      "midi": 60,
      "hit": false,
      "t": 190714.20624999932,
      "d": 428.57125000000815,
      "v": 90
    },
    {
      "midi": 65,
      "hit": false,
      "t": 191142.77749999933,
      "d": 857.1424999999872,
      "v": 90
    },
    {
      "midi": 75,
      "hit": false,
      "t": 191142.77749999997,
      "d": 857.1424999999872,
      "v": 110
    },
    {
      "midi": 46,
      "hit": false,
      "t": 191142.77750000023,
      "d": 107.14281250000931,
      "v": 80
    },
    {
      "midi": 65,
      "hit": false,
      "t": 191999.9199999993,
      "d": 857.1424999999872,
      "v": 90
    },
    {
      "midi": 62,
      "hit": false,
      "t": 191999.9199999993,
      "d": 857.1424999999872,
      "v": 90
    },
    {
      "midi": 58,
      "hit": false,
      "t": 191999.9199999993,
      "d": 857.1424999999872,
      "v": 90
    },
    {
      "midi": 46,
      "hit": false,
      "t": 191999.91999999993,
      "d": 3428.570000000007,
      "v": 85
    },
    {
      "midi": 74,
      "hit": false,
      "t": 191999.91999999995,
      "d": 6857.140000000014,
      "v": 110
    },
    {
      "midi": 34,
      "hit": false,
      "t": 191999.91999999998,
      "d": 2571.4274999999907,
      "v": 95
    },
    {
      "midi": 46,
      "hit": false,
      "t": 191999.92,
      "d": 3428.570000000007,
      "v": 85
    },
    {
      "midi": 77,
      "hit": false,
      "t": 191999.92,
      "d": 5142.8550000000105,
      "v": 85
    },
    {
      "midi": 53,
      "hit": false,
      "t": 191999.92000000004,
      "d": 6857.140000000014,
      "v": 70
    },
    {
      "midi": 58,
      "hit": false,
      "t": 191999.92000000004,
      "d": 6857.140000000014,
      "v": 70
    },
    {
      "midi": 62,
      "hit": false,
      "t": 191999.92000000004,
      "d": 6857.140000000014,
      "v": 70
    },
    {
      "midi": 74,
      "hit": false,
      "t": 191999.92000000004,
      "d": 5142.8550000000105,
      "v": 100
    },
    {
      "midi": 36,
      "hit": false,
      "t": 191999.9200000001,
      "d": 107.14281250000931,
      "v": 110
    },
    {
      "midi": 42,
      "hit": false,
      "t": 191999.92000000025,
      "d": 107.14281250000931,
      "v": 90
    },
    {
      "midi": 53,
      "hit": false,
      "t": 192857.0624999993,
      "d": 857.1424999999872,
      "v": 90
    },
    {
      "midi": 42,
      "hit": false,
      "t": 192857.06250000026,
      "d": 107.14281250000931,
      "v": 70
    },
    {
      "midi": 65,
      "hit": false,
      "t": 193714.2049999993,
      "d": 857.1424999999872,
      "v": 90
    },
    {
      "midi": 62,
      "hit": false,
      "t": 193714.2049999993,
      "d": 857.1424999999872,
      "v": 90
    },
    {
      "midi": 58,
      "hit": false,
      "t": 193714.2049999993,
      "d": 857.1424999999872,
      "v": 90
    },
    {
      "midi": 37,
      "hit": false,
      "t": 193714.2050000001,
      "d": 107.14281250000931,
      "v": 110
    },
    {
      "midi": 42,
      "hit": false,
      "t": 193714.20500000028,
      "d": 107.14281250000931,
      "v": 80
    },
    {
      "midi": 53,
      "hit": false,
      "t": 194571.34749999928,
      "d": 857.1424999999872,
      "v": 90
    },
    {
      "midi": 34,
      "hit": false,
      "t": 194571.34749999997,
      "d": 857.1424999999872,
      "v": 95
    },
    {
      "midi": 36,
      "hit": false,
      "t": 194571.34750000012,
      "d": 107.14281250000931,
      "v": 110
    },
    {
      "midi": 42,
      "hit": false,
      "t": 194571.3475000003,
      "d": 107.14281250000931,
      "v": 65
    },
    {
      "midi": 65,
      "hit": false,
      "t": 195428.48999999926,
      "d": 857.1424999999872,
      "v": 90
    },
    {
      "midi": 62,
      "hit": false,
      "t": 195428.48999999926,
      "d": 857.1424999999872,
      "v": 90
    },
    {
      "midi": 58,
      "hit": false,
      "t": 195428.48999999926,
      "d": 857.1424999999872,
      "v": 90
    },
    {
      "midi": 46,
      "hit": false,
      "t": 195428.48999999993,
      "d": 857.1424999999872,
      "v": 85
    },
    {
      "midi": 34,
      "hit": false,
      "t": 195428.48999999996,
      "d": 857.1424999999872,
      "v": 95
    },
    {
      "midi": 46,
      "hit": false,
      "t": 195428.49000000002,
      "d": 1714.2850000000035,
      "v": 85
    },
    {
      "midi": 36,
      "hit": false,
      "t": 195428.49000000014,
      "d": 107.14281250000931,
      "v": 110
    },
    {
      "midi": 42,
      "hit": false,
      "t": 195428.4900000003,
      "d": 107.14281250000931,
      "v": 90
    },
    {
      "midi": 53,
      "hit": false,
      "t": 196285.63249999925,
      "d": 857.1424999999872,
      "v": 90
    },
    {
      "midi": 48,
      "hit": false,
      "t": 196285.63249999992,
      "d": 857.1424999999872,
      "v": 85
    },
    {
      "midi": 36,
      "hit": false,
      "t": 196285.63249999995,
      "d": 857.1424999999872,
      "v": 95
    },
    {
      "midi": 42,
      "hit": false,
      "t": 196285.63250000033,
      "d": 107.14281250000931,
      "v": 70
    },
    {
      "midi": 65,
      "hit": false,
      "t": 197142.77499999924,
      "d": 857.1424999999872,
      "v": 90
    },
    {
      "midi": 62,
      "hit": false,
      "t": 197142.77499999924,
      "d": 857.1424999999872,
      "v": 90
    },
    {
      "midi": 58,
      "hit": false,
      "t": 197142.77499999924,
      "d": 857.1424999999872,
      "v": 90
    },
    {
      "midi": 50,
      "hit": false,
      "t": 197142.7749999999,
      "d": 857.1424999999872,
      "v": 85
    },
    {
      "midi": 38,
      "hit": false,
      "t": 197142.77499999994,
      "d": 857.1424999999872,
      "v": 95
    },
    {
      "midi": 46,
      "hit": false,
      "t": 197142.77500000002,
      "d": 1714.2850000000035,
      "v": 85
    },
    {
      "midi": 81,
      "hit": false,
      "t": 197142.77500000002,
      "d": 1714.2850000000035,
      "v": 85
    },
    {
      "midi": 81,
      "hit": false,
      "t": 197142.77500000005,
      "d": 1714.2850000000035,
      "v": 100
    },
    {
      "midi": 37,
      "hit": false,
      "t": 197142.77500000014,
      "d": 107.14281250000931,
      "v": 110
    },
    {
      "midi": 42,
      "hit": false,
      "t": 197142.77500000034,
      "d": 107.14281250000931,
      "v": 80
    },
    {
      "midi": 53,
      "hit": false,
      "t": 197999.91749999922,
      "d": 857.1424999999872,
      "v": 90
    },
    {
      "midi": 53,
      "hit": false,
      "t": 197999.9174999999,
      "d": 857.1424999999872,
      "v": 85
    },
    {
      "midi": 41,
      "hit": false,
      "t": 197999.91749999992,
      "d": 857.1424999999872,
      "v": 95
    },
    {
      "midi": 36,
      "hit": false,
      "t": 197999.91750000016,
      "d": 107.14281250000931,
      "v": 110
    },
    {
      "midi": 42,
      "hit": false,
      "t": 197999.91750000036,
      "d": 107.14281250000931,
      "v": 65
    },
    {
      "midi": 63,
      "hit": false,
      "t": 198857.0599999992,
      "d": 857.1424999999872,
      "v": 90
    },
    {
      "midi": 58,
      "hit": false,
      "t": 198857.0599999992,
      "d": 857.1424999999872,
      "v": 90
    },
    {
      "midi": 55,
      "hit": false,
      "t": 198857.0599999992,
      "d": 857.1424999999872,
      "v": 90
    },
    {
      "midi": 51,
      "hit": false,
      "t": 198857.05999999988,
      "d": 5142.8550000000105,
      "v": 85
    },
    {
      "midi": 39,
      "hit": false,
      "t": 198857.0599999999,
      "d": 2571.4274999999907,
      "v": 95
    },
    {
      "midi": 39,
      "hit": false,
      "t": 198857.06000000003,
      "d": 6857.140000000014,
      "v": 85
    },
    {
      "midi": 79,
      "hit": false,
      "t": 198857.06000000003,
      "d": 6857.140000000014,
      "v": 85
    },
    {
      "midi": 55,
      "hit": false,
      "t": 198857.06000000006,
      "d": 6857.140000000014,
      "v": 70
    },
    {
      "midi": 58,
      "hit": false,
      "t": 198857.06000000006,
      "d": 6857.140000000014,
      "v": 70
    },
    {
      "midi": 63,
      "hit": false,
      "t": 198857.06000000006,
      "d": 6857.140000000014,
      "v": 70
    },
    {
      "midi": 79,
      "hit": false,
      "t": 198857.06000000006,
      "d": 5142.8550000000105,
      "v": 100
    },
    {
      "midi": 36,
      "hit": false,
      "t": 198857.06000000017,
      "d": 107.14281250000931,
      "v": 110
    },
    {
      "midi": 42,
      "hit": false,
      "t": 198857.06000000038,
      "d": 107.14281250000931,
      "v": 90
    },
    {
      "midi": 51,
      "hit": false,
      "t": 199714.2024999992,
      "d": 857.1424999999872,
      "v": 90
    },
    {
      "midi": 42,
      "hit": false,
      "t": 199714.2025000004,
      "d": 107.14281250000931,
      "v": 70
    },
    {
      "midi": 63,
      "hit": false,
      "t": 200571.3449999992,
      "d": 857.1424999999872,
      "v": 90
    },
    {
      "midi": 58,
      "hit": false,
      "t": 200571.3449999992,
      "d": 857.1424999999872,
      "v": 90
    },
    {
      "midi": 55,
      "hit": false,
      "t": 200571.3449999992,
      "d": 857.1424999999872,
      "v": 90
    },
    {
      "midi": 63,
      "hit": false,
      "t": 200571.34499999997,
      "d": 857.1424999999872,
      "v": 110
    },
    {
      "midi": 37,
      "hit": false,
      "t": 200571.34500000018,
      "d": 107.14281250000931,
      "v": 110
    },
    {
      "midi": 42,
      "hit": false,
      "t": 200571.3450000004,
      "d": 107.14281250000931,
      "v": 80
    },
    {
      "midi": 51,
      "hit": false,
      "t": 201428.48749999917,
      "d": 857.1424999999872,
      "v": 90
    },
    {
      "midi": 27,
      "hit": false,
      "t": 201428.4874999999,
      "d": 857.1424999999872,
      "v": 95
    },
    {
      "midi": 65,
      "hit": false,
      "t": 201428.48749999996,
      "d": 857.1424999999872,
      "v": 110
    },
    {
      "midi": 36,
      "hit": false,
      "t": 201428.4875000002,
      "d": 107.14281250000931,
      "v": 110
    },
    {
      "midi": 42,
      "hit": false,
      "t": 201428.48750000042,
      "d": 107.14281250000931,
      "v": 65
    },
    {
      "midi": 63,
      "hit": false,
      "t": 202285.62999999916,
      "d": 857.1424999999872,
      "v": 90
    },
    {
      "midi": 58,
      "hit": false,
      "t": 202285.62999999916,
      "d": 857.1424999999872,
      "v": 90
    },
    {
      "midi": 55,
      "hit": false,
      "t": 202285.62999999916,
      "d": 857.1424999999872,
      "v": 90
    },
    {
      "midi": 27,
      "hit": false,
      "t": 202285.6299999999,
      "d": 1714.2850000000035,
      "v": 95
    },
    {
      "midi": 67,
      "hit": false,
      "t": 202285.62999999995,
      "d": 1714.2850000000035,
      "v": 110
    },
    {
      "midi": 36,
      "hit": false,
      "t": 202285.6300000002,
      "d": 107.14281250000931,
      "v": 110
    },
    {
      "midi": 42,
      "hit": false,
      "t": 202285.63000000044,
      "d": 107.14281250000931,
      "v": 90
    },
    {
      "midi": 51,
      "hit": false,
      "t": 203142.77249999915,
      "d": 857.1424999999872,
      "v": 90
    },
    {
      "midi": 42,
      "hit": false,
      "t": 203142.77250000046,
      "d": 107.14281250000931,
      "v": 70
    },
    {
      "midi": 63,
      "hit": false,
      "t": 203999.91499999914,
      "d": 857.1424999999872,
      "v": 90
    },
    {
      "midi": 58,
      "hit": false,
      "t": 203999.91499999914,
      "d": 857.1424999999872,
      "v": 90
    },
    {
      "midi": 55,
      "hit": false,
      "t": 203999.91499999914,
      "d": 857.1424999999872,
      "v": 90
    },
    {
      "midi": 50,
      "hit": false,
      "t": 203999.9149999999,
      "d": 1714.2850000000035,
      "v": 85
    },
    {
      "midi": 38,
      "hit": false,
      "t": 203999.9149999999,
      "d": 1714.2850000000035,
      "v": 95
    },
    {
      "midi": 74,
      "hit": false,
      "t": 203999.91499999995,
      "d": 857.1424999999872,
      "v": 110
    },
    {
      "midi": 75,
      "hit": false,
      "t": 203999.91500000007,
      "d": 1714.2850000000035,
      "v": 100
    },
    {
      "midi": 37,
      "hit": false,
      "t": 203999.9150000002,
      "d": 107.14281250000931,
      "v": 110
    },
    {
      "midi": 42,
      "hit": false,
      "t": 203999.91500000047,
      "d": 107.14281250000931,
      "v": 80
    },
    {
      "midi": 51,
      "hit": false,
      "t": 204857.05749999912,
      "d": 857.1424999999872,
      "v": 90
    },
    {
      "midi": 70,
      "hit": false,
      "t": 204857.05749999994,
      "d": 857.1424999999872,
      "v": 110
    },
    {
      "midi": 46,
      "hit": false,
      "t": 204857.0575000005,
      "d": 107.14281250000931,
      "v": 80
    },
    {
      "midi": 60,
      "hit": false,
      "t": 205714.1999999991,
      "d": 857.1424999999872,
      "v": 90
    },
    {
      "midi": 63,
      "hit": false,
      "t": 205714.1999999991,
      "d": 857.1424999999872,
      "v": 90
    },
    {
      "midi": 67,
      "hit": false,
      "t": 205714.1999999991,
      "d": 857.1424999999872,
      "v": 90
    },
    {
      "midi": 48,
      "hit": false,
      "t": 205714.1999999999,
      "d": 6857.140000000014,
      "v": 85
    },
    {
      "midi": 36,
      "hit": false,
      "t": 205714.1999999999,
      "d": 2571.4274999999907,
      "v": 95
    },
    {
      "midi": 72,
      "hit": false,
      "t": 205714.19999999992,
      "d": 5999.997499999998,
      "v": 110
    },
    {
      "midi": 36,
      "hit": false,
      "t": 205714.20000000004,
      "d": 5142.8550000000105,
      "v": 85
    },
    {
      "midi": 79,
      "hit": false,
      "t": 205714.20000000004,
      "d": 6857.140000000014,
      "v": 85
    },
    {
      "midi": 55,
      "hit": false,
      "t": 205714.20000000007,
      "d": 6857.140000000014,
      "v": 70
    },
    {
      "midi": 60,
      "hit": false,
      "t": 205714.20000000007,
      "d": 6857.140000000014,
      "v": 70
    },
    {
      "midi": 63,
      "hit": false,
      "t": 205714.20000000007,
      "d": 6857.140000000014,
      "v": 70
    },
    {
      "midi": 75,
      "hit": false,
      "t": 205714.20000000007,
      "d": 5142.8550000000105,
      "v": 100
    },
    {
      "midi": 36,
      "hit": false,
      "t": 205714.20000000022,
      "d": 107.14281250000931,
      "v": 110
    },
    {
      "midi": 42,
      "hit": false,
      "t": 205714.2000000005,
      "d": 107.14281250000931,
      "v": 90
    },
    {
      "midi": 55,
      "hit": false,
      "t": 206571.3424999991,
      "d": 857.1424999999872,
      "v": 90
    },
    {
      "midi": 42,
      "hit": false,
      "t": 206571.34250000052,
      "d": 107.14281250000931,
      "v": 70
    },
    {
      "midi": 60,
      "hit": false,
      "t": 207428.48499999908,
      "d": 857.1424999999872,
      "v": 90
    },
    {
      "midi": 63,
      "hit": false,
      "t": 207428.48499999908,
      "d": 857.1424999999872,
      "v": 90
    },
    {
      "midi": 67,
      "hit": false,
      "t": 207428.48499999908,
      "d": 857.1424999999872,
      "v": 90
    },
    {
      "midi": 37,
      "hit": false,
      "t": 207428.48500000022,
      "d": 107.14281250000931,
      "v": 110
    },
    {
      "midi": 42,
      "hit": false,
      "t": 207428.48500000054,
      "d": 107.14281250000931,
      "v": 80
    },
    {
      "midi": 55,
      "hit": false,
      "t": 208285.62749999907,
      "d": 857.1424999999872,
      "v": 90
    },
    {
      "midi": 36,
      "hit": false,
      "t": 208285.6274999999,
      "d": 857.1424999999872,
      "v": 95
    },
    {
      "midi": 36,
      "hit": false,
      "t": 208285.62750000024,
      "d": 107.14281250000931,
      "v": 110
    },
    {
      "midi": 42,
      "hit": false,
      "t": 208285.62750000056,
      "d": 107.14281250000931,
      "v": 65
    },
    {
      "midi": 60,
      "hit": false,
      "t": 209142.76999999906,
      "d": 857.1424999999872,
      "v": 90
    },
    {
      "midi": 63,
      "hit": false,
      "t": 209142.76999999906,
      "d": 857.1424999999872,
      "v": 90
    },
    {
      "midi": 67,
      "hit": false,
      "t": 209142.76999999906,
      "d": 857.1424999999872,
      "v": 90
    },
    {
      "midi": 36,
      "hit": false,
      "t": 209142.76999999987,
      "d": 1714.2850000000035,
      "v": 95
    },
    {
      "midi": 36,
      "hit": false,
      "t": 209142.77000000025,
      "d": 107.14281250000931,
      "v": 110
    },
    {
      "midi": 42,
      "hit": false,
      "t": 209142.77000000057,
      "d": 107.14281250000931,
      "v": 90
    },
    {
      "midi": 55,
      "hit": false,
      "t": 209999.91249999905,
      "d": 857.1424999999872,
      "v": 90
    },
    {
      "midi": 42,
      "hit": false,
      "t": 209999.9125000006,
      "d": 107.14281250000931,
      "v": 70
    },
    {
      "midi": 60,
      "hit": false,
      "t": 210857.05499999903,
      "d": 857.1424999999872,
      "v": 90
    },
    {
      "midi": 63,
      "hit": false,
      "t": 210857.05499999903,
      "d": 857.1424999999872,
      "v": 90
    },
    {
      "midi": 67,
      "hit": false,
      "t": 210857.05499999903,
      "d": 857.1424999999872,
      "v": 90
    },
    {
      "midi": 34,
      "hit": false,
      "t": 210857.05499999988,
      "d": 1714.2850000000035,
      "v": 95
    },
    {
      "midi": 46,
      "hit": false,
      "t": 210857.05500000005,
      "d": 1714.2850000000035,
      "v": 85
    },
    {
      "midi": 75,
      "hit": false,
      "t": 210857.05500000008,
      "d": 1714.2850000000035,
      "v": 100
    },
    {
      "midi": 37,
      "hit": false,
      "t": 210857.05500000025,
      "d": 107.14281250000931,
      "v": 110
    },
    {
      "midi": 42,
      "hit": false,
      "t": 210857.0550000006,
      "d": 107.14281250000931,
      "v": 80
    },
    {
      "midi": 55,
      "hit": false,
      "t": 211714.19749999902,
      "d": 857.1424999999872,
      "v": 90
    },
    {
      "midi": 70,
      "hit": false,
      "t": 211714.19749999992,
      "d": 857.1424999999872,
      "v": 110
    },
    {
      "midi": 42,
      "hit": false,
      "t": 211714.19750000062,
      "d": 107.14281250000931,
      "v": 65
    },
    {
      "midi": 61,
      "hit": false,
      "t": 212571.339999999,
      "d": 857.1424999999872,
      "v": 90
    },
    {
      "midi": 64,
      "hit": false,
      "t": 212571.339999999,
      "d": 857.1424999999872,
      "v": 90
    },
    {
      "midi": 57,
      "hit": false,
      "t": 212571.339999999,
      "d": 857.1424999999872,
      "v": 90
    },
    {
      "midi": 33,
      "hit": false,
      "t": 212571.33999999988,
      "d": 2571.4274999999907,
      "v": 95
    },
    {
      "midi": 69,
      "hit": false,
      "t": 212571.3399999999,
      "d": 4714.283750000002,
      "v": 110
    },
    {
      "midi": 45,
      "hit": false,
      "t": 212571.3399999999,
      "d": 3428.570000000007,
      "v": 85
    },
    {
      "midi": 45,
      "hit": false,
      "t": 212571.34000000005,
      "d": 3428.570000000007,
      "v": 85
    },
    {
      "midi": 81,
      "hit": false,
      "t": 212571.34000000005,
      "d": 5142.8550000000105,
      "v": 85
    },
    {
      "midi": 57,
      "hit": false,
      "t": 212571.34000000008,
      "d": 6857.140000000014,
      "v": 70
    },
    {
      "midi": 61,
      "hit": false,
      "t": 212571.34000000008,
      "d": 6857.140000000014,
      "v": 70
    },
    {
      "midi": 64,
      "hit": false,
      "t": 212571.34000000008,
      "d": 6857.140000000014,
      "v": 70
    },
    {
      "midi": 76,
      "hit": false,
      "t": 212571.34000000008,
      "d": 5142.8550000000105,
      "v": 100
    },
    {
      "midi": 36,
      "hit": false,
      "t": 212571.34000000026,
      "d": 107.14281250000931,
      "v": 110
    },
    {
      "midi": 42,
      "hit": false,
      "t": 212571.34000000064,
      "d": 107.14281250000931,
      "v": 90
    },
    {
      "midi": 57,
      "hit": false,
      "t": 213428.482499999,
      "d": 857.1424999999872,
      "v": 90
    },
    {
      "midi": 42,
      "hit": false,
      "t": 213428.48250000065,
      "d": 107.14281250000931,
      "v": 70
    },
    {
      "midi": 61,
      "hit": false,
      "t": 214285.62499999898,
      "d": 857.1424999999872,
      "v": 90
    },
    {
      "midi": 64,
      "hit": false,
      "t": 214285.62499999898,
      "d": 857.1424999999872,
      "v": 90
    },
    {
      "midi": 57,
      "hit": false,
      "t": 214285.62499999898,
      "d": 857.1424999999872,
      "v": 90
    },
    {
      "midi": 37,
      "hit": false,
      "t": 214285.62500000026,
      "d": 107.14281250000931,
      "v": 110
    },
    {
      "midi": 42,
      "hit": false,
      "t": 214285.62500000067,
      "d": 107.14281250000931,
      "v": 80
    },
    {
      "midi": 57,
      "hit": false,
      "t": 215142.76749999897,
      "d": 857.1424999999872,
      "v": 90
    },
    {
      "midi": 33,
      "hit": false,
      "t": 215142.76749999987,
      "d": 857.1424999999872,
      "v": 95
    },
    {
      "midi": 36,
      "hit": false,
      "t": 215142.76750000028,
      "d": 107.14281250000931,
      "v": 110
    },
    {
      "midi": 42,
      "hit": false,
      "t": 215142.7675000007,
      "d": 107.14281250000931,
      "v": 65
    },
    {
      "midi": 61,
      "hit": false,
      "t": 215999.90999999896,
      "d": 857.1424999999872,
      "v": 90
    },
    {
      "midi": 64,
      "hit": false,
      "t": 215999.90999999896,
      "d": 857.1424999999872,
      "v": 90
    },
    {
      "midi": 57,
      "hit": false,
      "t": 215999.90999999896,
      "d": 857.1424999999872,
      "v": 90
    },
    {
      "midi": 37,
      "hit": false,
      "t": 215999.90999999986,
      "d": 3428.570000000007,
      "v": 95
    },
    {
      "midi": 49,
      "hit": false,
      "t": 215999.90999999992,
      "d": 3428.570000000007,
      "v": 85
    },
    {
      "midi": 37,
      "hit": false,
      "t": 215999.91000000006,
      "d": 3428.570000000007,
      "v": 85
    },
    {
      "midi": 36,
      "hit": false,
      "t": 215999.9100000003,
      "d": 107.14281250000931,
      "v": 110
    },
    {
      "midi": 42,
      "hit": false,
      "t": 215999.9100000007,
      "d": 107.14281250000931,
      "v": 90
    },
    {
      "midi": 57,
      "hit": false,
      "t": 216857.05249999894,
      "d": 428.57125000000815,
      "v": 90
    },
    {
      "midi": 42,
      "hit": false,
      "t": 216857.05250000072,
      "d": 107.14281250000931,
      "v": 70
    },
    {
      "midi": 61,
      "hit": false,
      "t": 217285.62374999895,
      "d": 428.57125000000815,
      "v": 90
    },
    {
      "midi": 64,
      "hit": false,
      "t": 217285.62374999895,
      "d": 428.57125000000815,
      "v": 90
    },
    {
      "midi": 57,
      "hit": false,
      "t": 217285.62374999895,
      "d": 428.57125000000815,
      "v": 90
    },
    {
      "midi": 69,
      "hit": false,
      "t": 217285.6237499999,
      "d": 428.57125000000815,
      "v": 110
    },
    {
      "midi": 61,
      "hit": false,
      "t": 217714.19499999896,
      "d": 857.1424999999872,
      "v": 90
    },
    {
      "midi": 64,
      "hit": false,
      "t": 217714.19499999896,
      "d": 857.1424999999872,
      "v": 90
    },
    {
      "midi": 57,
      "hit": false,
      "t": 217714.19499999896,
      "d": 857.1424999999872,
      "v": 90
    },
    {
      "midi": 70,
      "hit": false,
      "t": 217714.19499999992,
      "d": 428.57125000000815,
      "v": 110
    },
    {
      "midi": 79,
      "hit": false,
      "t": 217714.19500000007,
      "d": 1714.2850000000035,
      "v": 85
    },
    {
      "midi": 76,
      "hit": false,
      "t": 217714.1950000001,
      "d": 1714.2850000000035,
      "v": 100
    },
    {
      "midi": 37,
      "hit": false,
      "t": 217714.1950000003,
      "d": 107.14281250000931,
      "v": 110
    },
    {
      "midi": 42,
      "hit": false,
      "t": 217714.19500000073,
      "d": 107.14281250000931,
      "v": 80
    },
    {
      "midi": 69,
      "hit": false,
      "t": 218142.76624999993,
      "d": 857.1424999999872,
      "v": 110
    },
    {
      "midi": 57,
      "hit": false,
      "t": 218571.33749999895,
      "d": 428.57125000000815,
      "v": 90
    },
    {
      "midi": 46,
      "hit": false,
      "t": 218571.33750000075,
      "d": 107.14281250000931,
      "v": 80
    },
    {
      "midi": 61,
      "hit": false,
      "t": 218999.90874999895,
      "d": 428.57125000000815,
      "v": 90
    },
    {
      "midi": 64,
      "hit": false,
      "t": 218999.90874999895,
      "d": 428.57125000000815,
      "v": 90
    },
    {
      "midi": 57,
      "hit": false,
      "t": 218999.90874999895,
      "d": 428.57125000000815,
      "v": 90
    },
    {
      "midi": 67,
      "hit": false,
      "t": 218999.90874999992,
      "d": 428.57125000000815,
      "v": 110
    },
    {
      "midi": 62,
      "hit": false,
      "t": 219428.47999999896,
      "d": 857.1424999999872,
      "v": 90
    },
    {
      "midi": 66,
      "hit": false,
      "t": 219428.47999999896,
      "d": 857.1424999999872,
      "v": 90
    },
    {
      "midi": 69,
      "hit": false,
      "t": 219428.47999999896,
      "d": 857.1424999999872,
      "v": 90
    },
    {
      "midi": 38,
      "hit": false,
      "t": 219428.47999999986,
      "d": 2571.4274999999907,
      "v": 95
    },
    {
      "midi": 69,
      "hit": false,
      "t": 219428.47999999992,
      "d": 6857.140000000014,
      "v": 110
    },
    {
      "midi": 50,
      "hit": false,
      "t": 219428.47999999992,
      "d": 2571.4274999999907,
      "v": 85
    },
    {
      "midi": 38,
      "hit": false,
      "t": 219428.48000000007,
      "d": 3428.570000000007,
      "v": 85
    },
    {
      "midi": 78,
      "hit": false,
      "t": 219428.48000000007,
      "d": 2571.4274999999907,
      "v": 85
    },
    {
      "midi": 57,
      "hit": false,
      "t": 219428.4800000001,
      "d": 6857.140000000014,
      "v": 70
    },
    {
      "midi": 62,
      "hit": false,
      "t": 219428.4800000001,
      "d": 6857.140000000014,
      "v": 70
    },
    {
      "midi": 66,
      "hit": false,
      "t": 219428.4800000001,
      "d": 6857.140000000014,
      "v": 70
    },
    {
      "midi": 78,
      "hit": false,
      "t": 219428.4800000001,
      "d": 5142.8550000000105,
      "v": 100
    },
    {
      "midi": 36,
      "hit": false,
      "t": 219428.4800000003,
      "d": 107.14281250000931,
      "v": 110
    },
    {
      "midi": 42,
      "hit": false,
      "t": 219428.48000000077,
      "d": 107.14281250000931,
      "v": 90
    },
    {
      "midi": 57,
      "hit": false,
      "t": 220285.62249999895,
      "d": 857.1424999999872,
      "v": 90
    },
    {
      "midi": 42,
      "hit": false,
      "t": 220285.62250000078,
      "d": 107.14281250000931,
      "v": 70
    },
    {
      "midi": 62,
      "hit": false,
      "t": 221142.76499999894,
      "d": 857.1424999999872,
      "v": 90
    },
    {
      "midi": 66,
      "hit": false,
      "t": 221142.76499999894,
      "d": 857.1424999999872,
      "v": 90
    },
    {
      "midi": 69,
      "hit": false,
      "t": 221142.76499999894,
      "d": 857.1424999999872,
      "v": 90
    },
    {
      "midi": 37,
      "hit": false,
      "t": 221142.7650000003,
      "d": 107.14281250000931,
      "v": 110
    },
    {
      "midi": 42,
      "hit": false,
      "t": 221142.7650000008,
      "d": 107.14281250000931,
      "v": 80
    },
    {
      "midi": 57,
      "hit": false,
      "t": 221999.90749999892,
      "d": 857.1424999999872,
      "v": 90
    },
    {
      "midi": 38,
      "hit": false,
      "t": 221999.90749999986,
      "d": 857.1424999999872,
      "v": 95
    },
    {
      "midi": 50,
      "hit": false,
      "t": 221999.9074999999,
      "d": 428.57125000000815,
      "v": 85
    },
    {
      "midi": 78,
      "hit": false,
      "t": 221999.90750000006,
      "d": 428.57125000000815,
      "v": 85
    },
    {
      "midi": 36,
      "hit": false,
      "t": 221999.90750000032,
      "d": 107.14281250000931,
      "v": 110
    },
    {
      "midi": 42,
      "hit": false,
      "t": 221999.90750000082,
      "d": 107.14281250000931,
      "v": 65
    },
    {
      "midi": 50,
      "hit": false,
      "t": 222428.47874999992,
      "d": 428.57125000000815,
      "v": 85
    },
    {
      "midi": 79,
      "hit": false,
      "t": 222428.47875000007,
      "d": 428.57125000000815,
      "v": 85
    },
    {
      "midi": 62,
      "hit": false,
      "t": 222857.0499999989,
      "d": 857.1424999999872,
      "v": 90
    },
    {
      "midi": 66,
      "hit": false,
      "t": 222857.0499999989,
      "d": 857.1424999999872,
      "v": 90
    },
    {
      "midi": 69,
      "hit": false,
      "t": 222857.0499999989,
      "d": 857.1424999999872,
      "v": 90
    },
    {
      "midi": 26,
      "hit": false,
      "t": 222857.04999999984,
      "d": 3428.570000000007,
      "v": 95
    },
    {
      "midi": 50,
      "hit": false,
      "t": 222857.04999999993,
      "d": 3428.570000000007,
      "v": 85
    },
    {
      "midi": 38,
      "hit": false,
      "t": 222857.05000000008,
      "d": 3428.570000000007,
      "v": 85
    },
    {
      "midi": 81,
      "hit": false,
      "t": 222857.05000000008,
      "d": 1714.2850000000035,
      "v": 85
    },
    {
      "midi": 36,
      "hit": false,
      "t": 222857.05000000034,
      "d": 107.14281250000931,
      "v": 110
    },
    {
      "midi": 42,
      "hit": false,
      "t": 222857.05000000083,
      "d": 107.14281250000931,
      "v": 90
    },
    {
      "midi": 74,
      "hit": false,
      "t": 223714.1924999989,
      "d": 857.1424999999872,
      "v": 90
    },
    {
      "midi": 46,
      "hit": false,
      "t": 223714.19250000085,
      "d": 107.14281250000931,
      "v": 80
    },
    {
      "midi": 81,
      "hit": false,
      "t": 224571.3349999989,
      "d": 857.1424999999872,
      "v": 90
    },
    {
      "midi": 74,
      "hit": false,
      "t": 224571.33500000008,
      "d": 1714.2850000000035,
      "v": 85
    },
    {
      "midi": 78,
      "hit": false,
      "t": 224571.3350000001,
      "d": 1714.2850000000035,
      "v": 100
    },
    {
      "midi": 48,
      "hit": false,
      "t": 224571.33500000034,
      "d": 71.42854166665347,
      "v": 110
    },
    {
      "midi": 45,
      "hit": false,
      "t": 224999.90625000032,
      "d": 71.42854166665347,
      "v": 110
    },
    {
      "midi": 74,
      "hit": false,
      "t": 225428.47749999887,
      "d": 857.1424999999872,
      "v": 90
    },
    {
      "midi": 41,
      "hit": false,
      "t": 225428.4775000003,
      "d": 107.14281250000931,
      "v": 110
    },
    {
      "midi": 62,
      "hit": false,
      "t": 226285.61999999886,
      "d": 6857.140000000014,
      "v": 90
    },
    {
      "midi": 58,
      "hit": false,
      "t": 226285.61999999886,
      "d": 6857.140000000014,
      "v": 90
    },
    {
      "midi": 55,
      "hit": false,
      "t": 226285.61999999886,
      "d": 6857.140000000014,
      "v": 90
    },
    {
      "midi": 31,
      "hit": false,
      "t": 226285.61999999985,
      "d": 4285.712499999994,
      "v": 95
    },
    {
      "midi": 55,
      "hit": false,
      "t": 226285.61999999994,
      "d": 6857.140000000014,
      "v": 85
    },
    {
      "midi": 38,
      "hit": false,
      "t": 226285.62000000008,
      "d": 4285.712499999994,
      "v": 85
    },
    {
      "midi": 79,
      "hit": false,
      "t": 226285.62000000008,
      "d": 857.1424999999872,
      "v": 85
    },
    {
      "midi": 55,
      "hit": false,
      "t": 226285.6200000001,
      "d": 6857.140000000014,
      "v": 70
    },
    {
      "midi": 58,
      "hit": false,
      "t": 226285.6200000001,
      "d": 6857.140000000014,
      "v": 70
    },
    {
      "midi": 62,
      "hit": false,
      "t": 226285.6200000001,
      "d": 6857.140000000014,
      "v": 70
    },
    {
      "midi": 79,
      "hit": false,
      "t": 226285.6200000001,
      "d": 3428.570000000007,
      "v": 100
    },
    {
      "midi": 36,
      "hit": false,
      "t": 226285.62000000032,
      "d": 107.14281250000931,
      "v": 110
    },
    {
      "midi": 57,
      "hit": false,
      "t": 226285.62000000087,
      "d": 107.14281250000931,
      "v": 80
    },
    {
      "midi": 44,
      "hit": false,
      "t": 226285.62000000087,
      "d": 107.14281250000931,
      "v": 80
    },
    {
      "midi": 67,
      "hit": false,
      "t": 227999.90499999994,
      "d": 857.1424999999872,
      "v": 120
    },
    {
      "midi": 79,
      "hit": false,
      "t": 227999.90499999994,
      "d": 857.1424999999872,
      "v": 120
    },
    {
      "midi": 79,
      "hit": false,
      "t": 227999.90500000006,
      "d": 857.1424999999872,
      "v": 85
    },
    {
      "midi": 69,
      "hit": false,
      "t": 228857.04749999993,
      "d": 857.1424999999872,
      "v": 120
    },
    {
      "midi": 81,
      "hit": false,
      "t": 228857.04749999993,
      "d": 857.1424999999872,
      "v": 120
    },
    {
      "midi": 81,
      "hit": false,
      "t": 228857.04750000004,
      "d": 857.1424999999872,
      "v": 85
    },
    {
      "midi": 70,
      "hit": false,
      "t": 229714.18999999992,
      "d": 2571.4274999999907,
      "v": 120
    },
    {
      "midi": 82,
      "hit": false,
      "t": 229714.18999999992,
      "d": 2571.4274999999907,
      "v": 120
    },
    {
      "midi": 82,
      "hit": false,
      "t": 229714.19000000003,
      "d": 2571.4274999999907,
      "v": 85
    },
    {
      "midi": 38,
      "hit": false,
      "t": 230571.33249999984,
      "d": 857.1424999999872,
      "v": 95
    },
    {
      "midi": 38,
      "hit": false,
      "t": 230571.33250000008,
      "d": 857.1424999999872,
      "v": 85
    },
    {
      "midi": 43,
      "hit": false,
      "t": 231428.47499999983,
      "d": 857.1424999999872,
      "v": 95
    },
    {
      "midi": 43,
      "hit": false,
      "t": 231428.47500000006,
      "d": 857.1424999999872,
      "v": 85
    },
    {
      "midi": 50,
      "hit": false,
      "t": 231428.47500000018,
      "d": 107.14281250000931,
      "v": 80
    },
    {
      "midi": 42,
      "hit": false,
      "t": 231428.47500000088,
      "d": 71.42854166665347,
      "v": 80
    },
    {
      "midi": 55,
      "hit": false,
      "t": 231535.6178125002,
      "d": 107.14281250000931,
      "v": 80
    },
    {
      "midi": 57,
      "hit": false,
      "t": 231642.7606250002,
      "d": 107.14281250000931,
      "v": 85
    },
    {
      "midi": 60,
      "hit": false,
      "t": 231749.9034375002,
      "d": 107.14281250000931,
      "v": 85
    },
    {
      "midi": 62,
      "hit": false,
      "t": 231857.04625000022,
      "d": 107.14281250000931,
      "v": 90
    },
    {
      "midi": 42,
      "hit": false,
      "t": 231857.04625000086,
      "d": 71.42854166665347,
      "v": 80
    },
    {
      "midi": 67,
      "hit": false,
      "t": 231964.18906250023,
      "d": 107.14281250000931,
      "v": 90
    },
    {
      "midi": 69,
      "hit": false,
      "t": 232071.33187500024,
      "d": 107.14281250000931,
      "v": 95
    },
    {
      "midi": 72,
      "hit": false,
      "t": 232178.47468750025,
      "d": 107.14281250000931,
      "v": 95
    },
    {
      "midi": 38,
      "hit": false,
      "t": 232285.61749999982,
      "d": 857.1424999999872,
      "v": 95
    },
    {
      "midi": 74,
      "hit": false,
      "t": 232285.6174999999,
      "d": 857.1424999999872,
      "v": 120
    },
    {
      "midi": 86,
      "hit": false,
      "t": 232285.6174999999,
      "d": 857.1424999999872,
      "v": 120
    },
    {
      "midi": 86,
      "hit": false,
      "t": 232285.61750000002,
      "d": 857.1424999999872,
      "v": 85
    },
    {
      "midi": 38,
      "hit": false,
      "t": 232285.61750000005,
      "d": 857.1424999999872,
      "v": 85
    },
    {
      "midi": 74,
      "hit": false,
      "t": 232285.61750000025,
      "d": 107.14281250000931,
      "v": 100
    },
    {
      "midi": 46,
      "hit": false,
      "t": 232285.61750000084,
      "d": 107.14281250000931,
      "v": 80
    },
    {
      "midi": 79,
      "hit": false,
      "t": 232392.76031250026,
      "d": 107.14281250000931,
      "v": 100
    },
    {
      "midi": 81,
      "hit": false,
      "t": 232499.90312500027,
      "d": 107.14281250000931,
      "v": 100
    },
    {
      "midi": 84,
      "hit": false,
      "t": 232607.04593750028,
      "d": 107.14281250000931,
      "v": 100
    },
    {
      "midi": 86,
      "hit": false,
      "t": 232714.1887500003,
      "d": 107.14281250000931,
      "v": 100
    },
    {
      "midi": 91,
      "hit": false,
      "t": 232821.3315625003,
      "d": 107.14281250000931,
      "v": 100
    },
    {
      "midi": 93,
      "hit": false,
      "t": 232928.4743750003,
      "d": 107.14281250000931,
      "v": 100
    },
    {
      "midi": 96,
      "hit": false,
      "t": 233035.61718750032,
      "d": 107.14281250000931,
      "v": 100
    },
    {
      "midi": 63,
      "hit": false,
      "t": 233142.75999999887,
      "d": 857.1424999999872,
      "v": 90
    },
    {
      "midi": 58,
      "hit": false,
      "t": 233142.75999999887,
      "d": 857.1424999999872,
      "v": 90
    },
    {
      "midi": 55,
      "hit": false,
      "t": 233142.75999999887,
      "d": 857.1424999999872,
      "v": 90
    },
    {
      "midi": 36,
      "hit": false,
      "t": 233142.7599999998,
      "d": 2571.4274999999907,
      "v": 95
    },
    {
      "midi": 75,
      "hit": false,
      "t": 233142.7599999999,
      "d": 6857.140000000014,
      "v": 120
    },
    {
      "midi": 87,
      "hit": false,
      "t": 233142.7599999999,
      "d": 6857.140000000014,
      "v": 120
    },
    {
      "midi": 48,
      "hit": false,
      "t": 233142.75999999995,
      "d": 2571.4274999999907,
      "v": 85
    },
    {
      "midi": 87,
      "hit": false,
      "t": 233142.76,
      "d": 3428.570000000007,
      "v": 85
    },
    {
      "midi": 36,
      "hit": false,
      "t": 233142.76000000004,
      "d": 2571.4274999999907,
      "v": 85
    },
    {
      "midi": 55,
      "hit": false,
      "t": 233142.76000000013,
      "d": 6857.140000000014,
      "v": 70
    },
    {
      "midi": 58,
      "hit": false,
      "t": 233142.76000000013,
      "d": 6857.140000000014,
      "v": 70
    },
    {
      "midi": 63,
      "hit": false,
      "t": 233142.76000000013,
      "d": 6857.140000000014,
      "v": 70
    },
    {
      "midi": 36,
      "hit": false,
      "t": 233142.76000000033,
      "d": 107.14281250000931,
      "v": 110
    },
    {
      "midi": 49,
      "hit": false,
      "t": 233142.76000000085,
      "d": 107.14281250000931,
      "v": 80
    },
    {
      "midi": 42,
      "hit": false,
      "t": 233142.76000000085,
      "d": 107.14281250000931,
      "v": 90
    },
    {
      "midi": 51,
      "hit": false,
      "t": 233999.90249999886,
      "d": 857.1424999999872,
      "v": 90
    },
    {
      "midi": 42,
      "hit": false,
      "t": 233999.90250000087,
      "d": 107.14281250000931,
      "v": 70
    },
    {
      "midi": 63,
      "hit": false,
      "t": 234857.04499999885,
      "d": 857.1424999999872,
      "v": 90
    },
    {
      "midi": 58,
      "hit": false,
      "t": 234857.04499999885,
      "d": 857.1424999999872,
      "v": 90
    },
    {
      "midi": 55,
      "hit": false,
      "t": 234857.04499999885,
      "d": 857.1424999999872,
      "v": 90
    },
    {
      "midi": 37,
      "hit": false,
      "t": 234857.04500000033,
      "d": 107.14281250000931,
      "v": 110
    },
    {
      "midi": 42,
      "hit": false,
      "t": 234857.0450000009,
      "d": 107.14281250000931,
      "v": 80
    },
    {
      "midi": 51,
      "hit": false,
      "t": 235714.18749999884,
      "d": 857.1424999999872,
      "v": 90
    },
    {
      "midi": 36,
      "hit": false,
      "t": 235714.1874999998,
      "d": 857.1424999999872,
      "v": 95
    },
    {
      "midi": 48,
      "hit": false,
      "t": 235714.18749999994,
      "d": 857.1424999999872,
      "v": 85
    },
    {
      "midi": 36,
      "hit": false,
      "t": 235714.18750000003,
      "d": 857.1424999999872,
      "v": 85
    },
    {
      "midi": 36,
      "hit": false,
      "t": 235714.18750000035,
      "d": 107.14281250000931,
      "v": 110
    },
    {
      "midi": 42,
      "hit": false,
      "t": 235714.1875000009,
      "d": 107.14281250000931,
      "v": 65
    },
    {
      "midi": 63,
      "hit": false,
      "t": 236571.32999999882,
      "d": 857.1424999999872,
      "v": 90
    },
    {
      "midi": 58,
      "hit": false,
      "t": 236571.32999999882,
      "d": 857.1424999999872,
      "v": 90
    },
    {
      "midi": 55,
      "hit": false,
      "t": 236571.32999999882,
      "d": 857.1424999999872,
      "v": 90
    },
    {
      "midi": 36,
      "hit": false,
      "t": 236571.32999999978,
      "d": 857.1424999999872,
      "v": 95
    },
    {
      "midi": 48,
      "hit": false,
      "t": 236571.32999999993,
      "d": 857.1424999999872,
      "v": 85
    },
    {
      "midi": 36,
      "hit": false,
      "t": 236571.33000000002,
      "d": 857.1424999999872,
      "v": 85
    },
    {
      "midi": 87,
      "hit": false,
      "t": 236571.33000000002,
      "d": 857.1424999999872,
      "v": 85
    },
    {
      "midi": 36,
      "hit": false,
      "t": 236571.33000000037,
      "d": 107.14281250000931,
      "v": 110
    },
    {
      "midi": 42,
      "hit": false,
      "t": 236571.33000000092,
      "d": 107.14281250000931,
      "v": 90
    },
    {
      "midi": 51,
      "hit": false,
      "t": 237428.4724999988,
      "d": 857.1424999999872,
      "v": 90
    },
    {
      "midi": 38,
      "hit": false,
      "t": 237428.47249999977,
      "d": 857.1424999999872,
      "v": 95
    },
    {
      "midi": 50,
      "hit": false,
      "t": 237428.47249999992,
      "d": 857.1424999999872,
      "v": 85
    },
    {
      "midi": 38,
      "hit": false,
      "t": 237428.4725,
      "d": 857.1424999999872,
      "v": 85
    },
    {
      "midi": 86,
      "hit": false,
      "t": 237428.4725,
      "d": 857.1424999999872,
      "v": 85
    },
    {
      "midi": 42,
      "hit": false,
      "t": 237428.47250000093,
      "d": 107.14281250000931,
      "v": 70
    },
    {
      "midi": 63,
      "hit": false,
      "t": 238285.6149999988,
      "d": 857.1424999999872,
      "v": 90
    },
    {
      "midi": 58,
      "hit": false,
      "t": 238285.6149999988,
      "d": 857.1424999999872,
      "v": 90
    },
    {
      "midi": 55,
      "hit": false,
      "t": 238285.6149999988,
      "d": 857.1424999999872,
      "v": 90
    },
    {
      "midi": 39,
      "hit": false,
      "t": 238285.61499999976,
      "d": 857.1424999999872,
      "v": 95
    },
    {
      "midi": 51,
      "hit": false,
      "t": 238285.6149999999,
      "d": 857.1424999999872,
      "v": 85
    },
    {
      "midi": 39,
      "hit": false,
      "t": 238285.615,
      "d": 857.1424999999872,
      "v": 85
    },
    {
      "midi": 84,
      "hit": false,
      "t": 238285.615,
      "d": 857.1424999999872,
      "v": 85
    },
    {
      "midi": 75,
      "hit": false,
      "t": 238285.6150000001,
      "d": 1714.2850000000035,
      "v": 100
    },
    {
      "midi": 37,
      "hit": false,
      "t": 238285.61500000037,
      "d": 107.14281250000931,
      "v": 110
    },
    {
      "midi": 42,
      "hit": false,
      "t": 238285.61500000095,
      "d": 107.14281250000931,
      "v": 80
    },
    {
      "midi": 51,
      "hit": false,
      "t": 239142.75749999878,
      "d": 857.1424999999872,
      "v": 90
    },
    {
      "midi": 36,
      "hit": false,
      "t": 239142.75749999975,
      "d": 857.1424999999872,
      "v": 95
    },
    {
      "midi": 48,
      "hit": false,
      "t": 239142.7574999999,
      "d": 857.1424999999872,
      "v": 85
    },
    {
      "midi": 36,
      "hit": false,
      "t": 239142.75749999998,
      "d": 857.1424999999872,
      "v": 85
    },
    {
      "midi": 82,
      "hit": false,
      "t": 239142.75749999998,
      "d": 857.1424999999872,
      "v": 85
    },
    {
      "midi": 42,
      "hit": false,
      "t": 239142.75750000097,
      "d": 107.14281250000931,
      "v": 65
    },
    {
      "midi": 60,
      "hit": false,
      "t": 239999.89999999877,
      "d": 857.1424999999872,
      "v": 90
    },
    {
      "midi": 57,
      "hit": false,
      "t": 239999.89999999877,
      "d": 857.1424999999872,
      "v": 90
    },
    {
      "midi": 53,
      "hit": false,
      "t": 239999.89999999877,
      "d": 857.1424999999872,
      "v": 90
    },
    {
      "midi": 41,
      "hit": false,
      "t": 239999.89999999973,
      "d": 2571.4274999999907,
      "v": 95
    },
    {
      "midi": 41,
      "hit": false,
      "t": 239999.89999999988,
      "d": 2571.4274999999907,
      "v": 85
    },
    {
      "midi": 41,
      "hit": false,
      "t": 239999.89999999997,
      "d": 2571.4274999999907,
      "v": 85
    },
    {
      "midi": 81,
      "hit": false,
      "t": 239999.89999999997,
      "d": 6857.140000000014,
      "v": 85
    },
    {
      "midi": 77,
      "hit": false,
      "t": 239999.9000000001,
      "d": 5142.8550000000105,
      "v": 100
    },
    {
      "midi": 53,
      "hit": false,
      "t": 239999.90000000014,
      "d": 6857.140000000014,
      "v": 70
    },
    {
      "midi": 57,
      "hit": false,
      "t": 239999.90000000014,
      "d": 6857.140000000014,
      "v": 70
    },
    {
      "midi": 60,
      "hit": false,
      "t": 239999.90000000014,
      "d": 6857.140000000014,
      "v": 70
    },
    {
      "midi": 36,
      "hit": false,
      "t": 239999.90000000037,
      "d": 107.14281250000931,
      "v": 110
    },
    {
      "midi": 42,
      "hit": false,
      "t": 239999.90000000098,
      "d": 107.14281250000931,
      "v": 90
    },
    {
      "midi": 48,
      "hit": false,
      "t": 240857.04249999876,
      "d": 857.1424999999872,
      "v": 90
    },
    {
      "midi": 42,
      "hit": false,
      "t": 240857.042500001,
      "d": 107.14281250000931,
      "v": 70
    },
    {
      "midi": 60,
      "hit": false,
      "t": 241714.18499999875,
      "d": 857.1424999999872,
      "v": 90
    },
    {
      "midi": 57,
      "hit": false,
      "t": 241714.18499999875,
      "d": 857.1424999999872,
      "v": 90
    },
    {
      "midi": 53,
      "hit": false,
      "t": 241714.18499999875,
      "d": 857.1424999999872,
      "v": 90
    },
    {
      "midi": 65,
      "hit": false,
      "t": 241714.1849999999,
      "d": 857.1424999999872,
      "v": 120
    },
    {
      "midi": 77,
      "hit": false,
      "t": 241714.1849999999,
      "d": 857.1424999999872,
      "v": 120
    },
    {
      "midi": 37,
      "hit": false,
      "t": 241714.18500000038,
      "d": 107.14281250000931,
      "v": 110
    },
    {
      "midi": 42,
      "hit": false,
      "t": 241714.18500000102,
      "d": 107.14281250000931,
      "v": 80
    },
    {
      "midi": 48,
      "hit": false,
      "t": 242571.32749999873,
      "d": 857.1424999999872,
      "v": 90
    },
    {
      "midi": 29,
      "hit": false,
      "t": 242571.32749999972,
      "d": 857.1424999999872,
      "v": 95
    },
    {
      "midi": 41,
      "hit": false,
      "t": 242571.32749999987,
      "d": 857.1424999999872,
      "v": 85
    },
    {
      "midi": 67,
      "hit": false,
      "t": 242571.3274999999,
      "d": 857.1424999999872,
      "v": 120
    },
    {
      "midi": 79,
      "hit": false,
      "t": 242571.3274999999,
      "d": 857.1424999999872,
      "v": 120
    },
    {
      "midi": 41,
      "hit": false,
      "t": 242571.32749999996,
      "d": 857.1424999999872,
      "v": 85
    },
    {
      "midi": 36,
      "hit": false,
      "t": 242571.3275000004,
      "d": 107.14281250000931,
      "v": 110
    },
    {
      "midi": 42,
      "hit": false,
      "t": 242571.32750000103,
      "d": 107.14281250000931,
      "v": 65
    },
    {
      "midi": 60,
      "hit": false,
      "t": 243428.46999999872,
      "d": 857.1424999999872,
      "v": 90
    },
    {
      "midi": 57,
      "hit": false,
      "t": 243428.46999999872,
      "d": 857.1424999999872,
      "v": 90
    },
    {
      "midi": 53,
      "hit": false,
      "t": 243428.46999999872,
      "d": 857.1424999999872,
      "v": 90
    },
    {
      "midi": 29,
      "hit": false,
      "t": 243428.4699999997,
      "d": 857.1424999999872,
      "v": 95
    },
    {
      "midi": 41,
      "hit": false,
      "t": 243428.46999999986,
      "d": 857.1424999999872,
      "v": 85
    },
    {
      "midi": 69,
      "hit": false,
      "t": 243428.46999999988,
      "d": 2571.4274999999907,
      "v": 120
    },
    {
      "midi": 81,
      "hit": false,
      "t": 243428.46999999988,
      "d": 2571.4274999999907,
      "v": 120
    },
    {
      "midi": 41,
      "hit": false,
      "t": 243428.46999999994,
      "d": 857.1424999999872,
      "v": 85
    },
    {
      "midi": 36,
      "hit": false,
      "t": 243428.4700000004,
      "d": 107.14281250000931,
      "v": 110
    },
    {
      "midi": 42,
      "hit": false,
      "t": 243428.47000000105,
      "d": 107.14281250000931,
      "v": 90
    },
    {
      "midi": 48,
      "hit": false,
      "t": 244285.6124999987,
      "d": 857.1424999999872,
      "v": 90
    },
    {
      "midi": 31,
      "hit": false,
      "t": 244285.6124999997,
      "d": 857.1424999999872,
      "v": 95
    },
    {
      "midi": 43,
      "hit": false,
      "t": 244285.61249999984,
      "d": 857.1424999999872,
      "v": 85
    },
    {
      "midi": 43,
      "hit": false,
      "t": 244285.61249999993,
      "d": 857.1424999999872,
      "v": 85
    },
    {
      "midi": 42,
      "hit": false,
      "t": 244285.61250000107,
      "d": 107.14281250000931,
      "v": 70
    },
    {
      "midi": 60,
      "hit": false,
      "t": 245142.7549999987,
      "d": 642.8568749999977,
      "v": 90
    },
    {
      "midi": 57,
      "hit": false,
      "t": 245142.7549999987,
      "d": 642.8568749999977,
      "v": 90
    },
    {
      "midi": 53,
      "hit": false,
      "t": 245142.7549999987,
      "d": 642.8568749999977,
      "v": 90
    },
    {
      "midi": 33,
      "hit": false,
      "t": 245142.75499999968,
      "d": 857.1424999999872,
      "v": 95
    },
    {
      "midi": 45,
      "hit": false,
      "t": 245142.75499999983,
      "d": 857.1424999999872,
      "v": 85
    },
    {
      "midi": 45,
      "hit": false,
      "t": 245142.75499999992,
      "d": 857.1424999999872,
      "v": 85
    },
    {
      "midi": 77,
      "hit": false,
      "t": 245142.75500000012,
      "d": 1714.2850000000035,
      "v": 100
    },
    {
      "midi": 37,
      "hit": false,
      "t": 245142.7550000004,
      "d": 107.14281250000931,
      "v": 110
    },
    {
      "midi": 42,
      "hit": false,
      "t": 245142.75500000108,
      "d": 107.14281250000931,
      "v": 80
    },
    {
      "midi": 69,
      "hit": false,
      "t": 245785.6118749987,
      "d": 214.28562499998952,
      "v": 75
    },
    {
      "midi": 48,
      "hit": false,
      "t": 245999.89749999868,
      "d": 428.57125000000815,
      "v": 90
    },
    {
      "midi": 29,
      "hit": false,
      "t": 245999.89749999967,
      "d": 857.1424999999872,
      "v": 95
    },
    {
      "midi": 41,
      "hit": false,
      "t": 245999.89749999982,
      "d": 857.1424999999872,
      "v": 85
    },
    {
      "midi": 75,
      "hit": false,
      "t": 245999.89749999988,
      "d": 857.1424999999872,
      "v": 120
    },
    {
      "midi": 87,
      "hit": false,
      "t": 245999.89749999988,
      "d": 857.1424999999872,
      "v": 120
    },
    {
      "midi": 41,
      "hit": false,
      "t": 245999.8974999999,
      "d": 857.1424999999872,
      "v": 85
    },
    {
      "midi": 46,
      "hit": false,
      "t": 245999.8975000011,
      "d": 107.14281250000931,
      "v": 80
    },
    {
      "midi": 60,
      "hit": false,
      "t": 246428.4687499987,
      "d": 428.57125000000815,
      "v": 75
    },
    {
      "midi": 65,
      "hit": false,
      "t": 246857.0399999987,
      "d": 857.1424999999872,
      "v": 90
    },
    {
      "midi": 62,
      "hit": false,
      "t": 246857.0399999987,
      "d": 857.1424999999872,
      "v": 90
    },
    {
      "midi": 58,
      "hit": false,
      "t": 246857.0399999987,
      "d": 857.1424999999872,
      "v": 90
    },
    {
      "midi": 34,
      "hit": false,
      "t": 246857.03999999966,
      "d": 2571.4274999999907,
      "v": 95
    },
    {
      "midi": 46,
      "hit": false,
      "t": 246857.0399999998,
      "d": 2571.4274999999907,
      "v": 85
    },
    {
      "midi": 74,
      "hit": false,
      "t": 246857.03999999986,
      "d": 6857.140000000014,
      "v": 120
    },
    {
      "midi": 86,
      "hit": false,
      "t": 246857.03999999986,
      "d": 6857.140000000014,
      "v": 120
    },
    {
      "midi": 34,
      "hit": false,
      "t": 246857.0399999999,
      "d": 2571.4274999999907,
      "v": 85
    },
    {
      "midi": 86,
      "hit": false,
      "t": 246857.03999999998,
      "d": 3428.570000000007,
      "v": 85
    },
    {
      "midi": 74,
      "hit": false,
      "t": 246857.04000000012,
      "d": 5142.8550000000105,
      "v": 100
    },
    {
      "midi": 53,
      "hit": false,
      "t": 246857.04000000015,
      "d": 6857.140000000014,
      "v": 70
    },
    {
      "midi": 58,
      "hit": false,
      "t": 246857.04000000015,
      "d": 6857.140000000014,
      "v": 70
    },
    {
      "midi": 62,
      "hit": false,
      "t": 246857.04000000015,
      "d": 6857.140000000014,
      "v": 70
    },
    {
      "midi": 36,
      "hit": false,
      "t": 246857.04000000042,
      "d": 107.14281250000931,
      "v": 110
    },
    {
      "midi": 42,
      "hit": false,
      "t": 246857.0400000011,
      "d": 107.14281250000931,
      "v": 90
    },
    {
      "midi": 53,
      "hit": false,
      "t": 247714.1824999987,
      "d": 857.1424999999872,
      "v": 90
    },
    {
      "midi": 42,
      "hit": false,
      "t": 247714.18250000113,
      "d": 107.14281250000931,
      "v": 70
    },
    {
      "midi": 65,
      "hit": false,
      "t": 248571.32499999867,
      "d": 857.1424999999872,
      "v": 90
    },
    {
      "midi": 62,
      "hit": false,
      "t": 248571.32499999867,
      "d": 857.1424999999872,
      "v": 90
    },
    {
      "midi": 58,
      "hit": false,
      "t": 248571.32499999867,
      "d": 857.1424999999872,
      "v": 90
    },
    {
      "midi": 37,
      "hit": false,
      "t": 248571.32500000042,
      "d": 107.14281250000931,
      "v": 110
    },
    {
      "midi": 42,
      "hit": false,
      "t": 248571.32500000115,
      "d": 107.14281250000931,
      "v": 80
    },
    {
      "midi": 53,
      "hit": false,
      "t": 249428.46749999866,
      "d": 857.1424999999872,
      "v": 90
    },
    {
      "midi": 34,
      "hit": false,
      "t": 249428.46749999965,
      "d": 857.1424999999872,
      "v": 95
    },
    {
      "midi": 46,
      "hit": false,
      "t": 249428.4674999998,
      "d": 857.1424999999872,
      "v": 85
    },
    {
      "midi": 34,
      "hit": false,
      "t": 249428.46749999988,
      "d": 857.1424999999872,
      "v": 85
    },
    {
      "midi": 36,
      "hit": false,
      "t": 249428.46750000044,
      "d": 107.14281250000931,
      "v": 110
    },
    {
      "midi": 42,
      "hit": false,
      "t": 249428.46750000116,
      "d": 107.14281250000931,
      "v": 65
    },
    {
      "midi": 65,
      "hit": false,
      "t": 250285.60999999865,
      "d": 857.1424999999872,
      "v": 90
    },
    {
      "midi": 62,
      "hit": false,
      "t": 250285.60999999865,
      "d": 857.1424999999872,
      "v": 90
    },
    {
      "midi": 58,
      "hit": false,
      "t": 250285.60999999865,
      "d": 857.1424999999872,
      "v": 90
    },
    {
      "midi": 34,
      "hit": false,
      "t": 250285.60999999964,
      "d": 857.1424999999872,
      "v": 95
    },
    {
      "midi": 46,
      "hit": false,
      "t": 250285.60999999978,
      "d": 857.1424999999872,
      "v": 85
    },
    {
      "midi": 34,
      "hit": false,
      "t": 250285.60999999987,
      "d": 857.1424999999872,
      "v": 85
    },
    {
      "midi": 86,
      "hit": false,
      "t": 250285.61,
      "d": 857.1424999999872,
      "v": 85
    },
    {
      "midi": 36,
      "hit": false,
      "t": 250285.61000000045,
      "d": 107.14281250000931,
      "v": 110
    },
    {
      "midi": 42,
      "hit": false,
      "t": 250285.61000000118,
      "d": 107.14281250000931,
      "v": 90
    },
    {
      "midi": 53,
      "hit": false,
      "t": 251142.75249999863,
      "d": 857.1424999999872,
      "v": 90
    },
    {
      "midi": 36,
      "hit": false,
      "t": 251142.75249999962,
      "d": 857.1424999999872,
      "v": 95
    },
    {
      "midi": 48,
      "hit": false,
      "t": 251142.75249999977,
      "d": 857.1424999999872,
      "v": 85
    },
    {
      "midi": 36,
      "hit": false,
      "t": 251142.75249999986,
      "d": 857.1424999999872,
      "v": 85
    },
    {
      "midi": 84,
      "hit": false,
      "t": 251142.75249999997,
      "d": 857.1424999999872,
      "v": 85
    },
    {
      "midi": 42,
      "hit": false,
      "t": 251142.7525000012,
      "d": 107.14281250000931,
      "v": 70
    },
    {
      "midi": 65,
      "hit": false,
      "t": 251999.89499999862,
      "d": 857.1424999999872,
      "v": 90
    },
    {
      "midi": 62,
      "hit": false,
      "t": 251999.89499999862,
      "d": 857.1424999999872,
      "v": 90
    },
    {
      "midi": 58,
      "hit": false,
      "t": 251999.89499999862,
      "d": 857.1424999999872,
      "v": 90
    },
    {
      "midi": 38,
      "hit": false,
      "t": 251999.8949999996,
      "d": 857.1424999999872,
      "v": 95
    },
    {
      "midi": 50,
      "hit": false,
      "t": 251999.89499999976,
      "d": 857.1424999999872,
      "v": 85
    },
    {
      "midi": 38,
      "hit": false,
      "t": 251999.89499999984,
      "d": 857.1424999999872,
      "v": 85
    },
    {
      "midi": 82,
      "hit": false,
      "t": 251999.89499999996,
      "d": 857.1424999999872,
      "v": 85
    },
    {
      "midi": 81,
      "hit": false,
      "t": 251999.89500000014,
      "d": 1714.2850000000035,
      "v": 100
    },
    {
      "midi": 37,
      "hit": false,
      "t": 251999.89500000046,
      "d": 107.14281250000931,
      "v": 110
    },
    {
      "midi": 42,
      "hit": false,
      "t": 251999.8950000012,
      "d": 107.14281250000931,
      "v": 80
    },
    {
      "midi": 53,
      "hit": false,
      "t": 252857.0374999986,
      "d": 857.1424999999872,
      "v": 90
    },
    {
      "midi": 34,
      "hit": false,
      "t": 252857.0374999996,
      "d": 857.1424999999872,
      "v": 95
    },
    {
      "midi": 46,
      "hit": false,
      "t": 252857.03749999974,
      "d": 857.1424999999872,
      "v": 85
    },
    {
      "midi": 34,
      "hit": false,
      "t": 252857.03749999983,
      "d": 857.1424999999872,
      "v": 85
    },
    {
      "midi": 81,
      "hit": false,
      "t": 252857.03749999995,
      "d": 857.1424999999872,
      "v": 85
    },
    {
      "midi": 42,
      "hit": false,
      "t": 252857.03750000123,
      "d": 107.14281250000931,
      "v": 65
    },
    {
      "midi": 63,
      "hit": false,
      "t": 253714.1799999986,
      "d": 857.1424999999872,
      "v": 90
    },
    {
      "midi": 58,
      "hit": false,
      "t": 253714.1799999986,
      "d": 857.1424999999872,
      "v": 90
    },
    {
      "midi": 55,
      "hit": false,
      "t": 253714.1799999986,
      "d": 857.1424999999872,
      "v": 90
    },
    {
      "midi": 39,
      "hit": false,
      "t": 253714.1799999996,
      "d": 2571.4274999999907,
      "v": 95
    },
    {
      "midi": 51,
      "hit": false,
      "t": 253714.17999999973,
      "d": 2571.4274999999907,
      "v": 85
    },
    {
      "midi": 39,
      "hit": false,
      "t": 253714.17999999982,
      "d": 2571.4274999999907,
      "v": 85
    },
    {
      "midi": 79,
      "hit": false,
      "t": 253714.17999999993,
      "d": 5142.8550000000105,
      "v": 85
    },
    {
      "midi": 79,
      "hit": false,
      "t": 253714.18000000014,
      "d": 5142.8550000000105,
      "v": 100
    },
    {
      "midi": 55,
      "hit": false,
      "t": 253714.18000000017,
      "d": 6857.140000000014,
      "v": 70
    },
    {
      "midi": 58,
      "hit": false,
      "t": 253714.18000000017,
      "d": 6857.140000000014,
      "v": 70
    },
    {
      "midi": 63,
      "hit": false,
      "t": 253714.18000000017,
      "d": 6857.140000000014,
      "v": 70
    },
    {
      "midi": 36,
      "hit": false,
      "t": 253714.18000000046,
      "d": 107.14281250000931,
      "v": 110
    },
    {
      "midi": 42,
      "hit": false,
      "t": 253714.18000000124,
      "d": 107.14281250000931,
      "v": 90
    },
    {
      "midi": 51,
      "hit": false,
      "t": 254571.32249999858,
      "d": 857.1424999999872,
      "v": 90
    },
    {
      "midi": 42,
      "hit": false,
      "t": 254571.32250000126,
      "d": 107.14281250000931,
      "v": 70
    },
    {
      "midi": 63,
      "hit": false,
      "t": 255428.46499999857,
      "d": 857.1424999999872,
      "v": 90
    },
    {
      "midi": 58,
      "hit": false,
      "t": 255428.46499999857,
      "d": 857.1424999999872,
      "v": 90
    },
    {
      "midi": 55,
      "hit": false,
      "t": 255428.46499999857,
      "d": 857.1424999999872,
      "v": 90
    },
    {
      "midi": 63,
      "hit": false,
      "t": 255428.46499999988,
      "d": 857.1424999999872,
      "v": 120
    },
    {
      "midi": 75,
      "hit": false,
      "t": 255428.46499999988,
      "d": 857.1424999999872,
      "v": 120
    },
    {
      "midi": 37,
      "hit": false,
      "t": 255428.46500000046,
      "d": 107.14281250000931,
      "v": 110
    },
    {
      "midi": 42,
      "hit": false,
      "t": 255428.46500000128,
      "d": 107.14281250000931,
      "v": 80
    },
    {
      "midi": 51,
      "hit": false,
      "t": 256285.60749999856,
      "d": 857.1424999999872,
      "v": 90
    },
    {
      "midi": 27,
      "hit": false,
      "t": 256285.60749999958,
      "d": 857.1424999999872,
      "v": 95
    },
    {
      "midi": 51,
      "hit": false,
      "t": 256285.60749999972,
      "d": 857.1424999999872,
      "v": 85
    },
    {
      "midi": 39,
      "hit": false,
      "t": 256285.6074999998,
      "d": 857.1424999999872,
      "v": 85
    },
    {
      "midi": 65,
      "hit": false,
      "t": 256285.60749999987,
      "d": 857.1424999999872,
      "v": 120
    },
    {
      "midi": 77,
      "hit": false,
      "t": 256285.60749999987,
      "d": 857.1424999999872,
      "v": 120
    },
    {
      "midi": 36,
      "hit": false,
      "t": 256285.60750000048,
      "d": 107.14281250000931,
      "v": 110
    },
    {
      "midi": 42,
      "hit": false,
      "t": 256285.6075000013,
      "d": 107.14281250000931,
      "v": 65
    },
    {
      "midi": 63,
      "hit": false,
      "t": 257142.74999999854,
      "d": 857.1424999999872,
      "v": 90
    },
    {
      "midi": 58,
      "hit": false,
      "t": 257142.74999999854,
      "d": 857.1424999999872,
      "v": 90
    },
    {
      "midi": 55,
      "hit": false,
      "t": 257142.74999999854,
      "d": 857.1424999999872,
      "v": 90
    },
    {
      "midi": 39,
      "hit": false,
      "t": 257142.74999999956,
      "d": 857.1424999999872,
      "v": 95
    },
    {
      "midi": 51,
      "hit": false,
      "t": 257142.7499999997,
      "d": 857.1424999999872,
      "v": 85
    },
    {
      "midi": 39,
      "hit": false,
      "t": 257142.7499999998,
      "d": 857.1424999999872,
      "v": 85
    },
    {
      "midi": 67,
      "hit": false,
      "t": 257142.74999999985,
      "d": 1714.2850000000035,
      "v": 120
    },
    {
      "midi": 79,
      "hit": false,
      "t": 257142.74999999985,
      "d": 1714.2850000000035,
      "v": 120
    },
    {
      "midi": 36,
      "hit": false,
      "t": 257142.7500000005,
      "d": 107.14281250000931,
      "v": 110
    },
    {
      "midi": 42,
      "hit": false,
      "t": 257142.7500000013,
      "d": 107.14281250000931,
      "v": 90
    },
    {
      "midi": 51,
      "hit": false,
      "t": 257999.89249999853,
      "d": 857.1424999999872,
      "v": 90
    },
    {
      "midi": 34,
      "hit": false,
      "t": 257999.89249999955,
      "d": 857.1424999999872,
      "v": 95
    },
    {
      "midi": 46,
      "hit": false,
      "t": 257999.8924999997,
      "d": 857.1424999999872,
      "v": 85
    },
    {
      "midi": 34,
      "hit": false,
      "t": 257999.89249999978,
      "d": 857.1424999999872,
      "v": 85
    },
    {
      "midi": 42,
      "hit": false,
      "t": 257999.89250000133,
      "d": 107.14281250000931,
      "v": 70
    },
    {
      "midi": 63,
      "hit": false,
      "t": 258857.03499999852,
      "d": 857.1424999999872,
      "v": 90
    },
    {
      "midi": 58,
      "hit": false,
      "t": 258857.03499999852,
      "d": 857.1424999999872,
      "v": 90
    },
    {
      "midi": 55,
      "hit": false,
      "t": 258857.03499999852,
      "d": 857.1424999999872,
      "v": 90
    },
    {
      "midi": 39,
      "hit": false,
      "t": 258857.03499999954,
      "d": 857.1424999999872,
      "v": 95
    },
    {
      "midi": 51,
      "hit": false,
      "t": 258857.03499999968,
      "d": 857.1424999999872,
      "v": 85
    },
    {
      "midi": 39,
      "hit": false,
      "t": 258857.03499999977,
      "d": 857.1424999999872,
      "v": 85
    },
    {
      "midi": 74,
      "hit": false,
      "t": 258857.03499999986,
      "d": 857.1424999999872,
      "v": 120
    },
    {
      "midi": 86,
      "hit": false,
      "t": 258857.03499999986,
      "d": 857.1424999999872,
      "v": 120
    },
    {
      "midi": 86,
      "hit": false,
      "t": 258857.03499999995,
      "d": 1714.2850000000035,
      "v": 85
    },
    {
      "midi": 75,
      "hit": false,
      "t": 258857.03500000015,
      "d": 1714.2850000000035,
      "v": 100
    },
    {
      "midi": 37,
      "hit": false,
      "t": 258857.0350000005,
      "d": 107.14281250000931,
      "v": 110
    },
    {
      "midi": 42,
      "hit": false,
      "t": 258857.03500000134,
      "d": 107.14281250000931,
      "v": 80
    },
    {
      "midi": 51,
      "hit": false,
      "t": 259714.1774999985,
      "d": 857.1424999999872,
      "v": 90
    },
    {
      "midi": 38,
      "hit": false,
      "t": 259714.17749999953,
      "d": 857.1424999999872,
      "v": 95
    },
    {
      "midi": 50,
      "hit": false,
      "t": 259714.17749999967,
      "d": 857.1424999999872,
      "v": 85
    },
    {
      "midi": 38,
      "hit": false,
      "t": 259714.17749999976,
      "d": 857.1424999999872,
      "v": 85
    },
    {
      "midi": 70,
      "hit": false,
      "t": 259714.17749999985,
      "d": 857.1424999999872,
      "v": 120
    },
    {
      "midi": 82,
      "hit": false,
      "t": 259714.17749999985,
      "d": 857.1424999999872,
      "v": 120
    },
    {
      "midi": 46,
      "hit": false,
      "t": 259714.17750000136,
      "d": 107.14281250000931,
      "v": 80
    },
    {
      "midi": 60,
      "hit": false,
      "t": 260571.3199999985,
      "d": 857.1424999999872,
      "v": 90
    },
    {
      "midi": 63,
      "hit": false,
      "t": 260571.3199999985,
      "d": 857.1424999999872,
      "v": 90
    },
    {
      "midi": 67,
      "hit": false,
      "t": 260571.3199999985,
      "d": 857.1424999999872,
      "v": 90
    },
    {
      "midi": 36,
      "hit": false,
      "t": 260571.3199999995,
      "d": 2571.42750000002,
      "v": 95
    },
    {
      "midi": 48,
      "hit": false,
      "t": 260571.31999999966,
      "d": 6857.140000000014,
      "v": 85
    },
    {
      "midi": 36,
      "hit": false,
      "t": 260571.31999999975,
      "d": 2571.42750000002,
      "v": 85
    },
    {
      "midi": 72,
      "hit": false,
      "t": 260571.31999999983,
      "d": 5999.997499999998,
      "v": 120
    },
    {
      "midi": 84,
      "hit": false,
      "t": 260571.31999999983,
      "d": 5999.997499999998,
      "v": 120
    },
    {
      "midi": 84,
      "hit": false,
      "t": 260571.31999999995,
      "d": 5999.997499999998,
      "v": 85
    },
    {
      "midi": 75,
      "hit": false,
      "t": 260571.32000000015,
      "d": 5142.8550000000105,
      "v": 100
    },
    {
      "midi": 55,
      "hit": false,
      "t": 260571.32000000018,
      "d": 6857.140000000014,
      "v": 70
    },
    {
      "midi": 60,
      "hit": false,
      "t": 260571.32000000018,
      "d": 6857.140000000014,
      "v": 70
    },
    {
      "midi": 63,
      "hit": false,
      "t": 260571.32000000018,
      "d": 6857.140000000014,
      "v": 70
    },
    {
      "midi": 36,
      "hit": false,
      "t": 260571.3200000005,
      "d": 107.14281250000931,
      "v": 110
    },
    {
      "midi": 42,
      "hit": false,
      "t": 260571.32000000137,
      "d": 107.14281250000931,
      "v": 90
    },
    {
      "midi": 55,
      "hit": false,
      "t": 261428.46249999848,
      "d": 857.1424999999872,
      "v": 90
    },
    {
      "midi": 42,
      "hit": false,
      "t": 261428.4625000014,
      "d": 107.14281250000931,
      "v": 70
    },
    {
      "midi": 60,
      "hit": false,
      "t": 262285.60499999847,
      "d": 857.1425000000163,
      "v": 90
    },
    {
      "midi": 63,
      "hit": false,
      "t": 262285.60499999847,
      "d": 857.1425000000163,
      "v": 90
    },
    {
      "midi": 67,
      "hit": false,
      "t": 262285.60499999847,
      "d": 857.1425000000163,
      "v": 90
    },
    {
      "midi": 37,
      "hit": false,
      "t": 262285.6050000005,
      "d": 107.14281250000931,
      "v": 110
    },
    {
      "midi": 42,
      "hit": false,
      "t": 262285.6050000014,
      "d": 107.14281250000931,
      "v": 80
    },
    {
      "midi": 55,
      "hit": false,
      "t": 263142.7474999985,
      "d": 857.1425000000163,
      "v": 90
    },
    {
      "midi": 36,
      "hit": false,
      "t": 263142.74749999953,
      "d": 857.1425000000163,
      "v": 95
    },
    {
      "midi": 36,
      "hit": false,
      "t": 263142.74749999976,
      "d": 857.1425000000163,
      "v": 85
    },
    {
      "midi": 36,
      "hit": false,
      "t": 263142.7475000005,
      "d": 107.14281250000931,
      "v": 110
    },
    {
      "midi": 42,
      "hit": false,
      "t": 263142.7475000014,
      "d": 107.14281250000931,
      "v": 65
    },
    {
      "midi": 60,
      "hit": false,
      "t": 263999.8899999985,
      "d": 857.1425000000163,
      "v": 90
    },
    {
      "midi": 63,
      "hit": false,
      "t": 263999.8899999985,
      "d": 857.1425000000163,
      "v": 90
    },
    {
      "midi": 67,
      "hit": false,
      "t": 263999.8899999985,
      "d": 857.1425000000163,
      "v": 90
    },
    {
      "midi": 36,
      "hit": false,
      "t": 263999.88999999955,
      "d": 3428.570000000007,
      "v": 95
    },
    {
      "midi": 36,
      "hit": false,
      "t": 263999.8899999998,
      "d": 3428.570000000007,
      "v": 85
    },
    {
      "midi": 36,
      "hit": false,
      "t": 263999.89000000054,
      "d": 107.14281250000931,
      "v": 110
    },
    {
      "midi": 42,
      "hit": false,
      "t": 263999.8900000014,
      "d": 107.14281250000931,
      "v": 90
    },
    {
      "midi": 55,
      "hit": false,
      "t": 264857.0324999985,
      "d": 857.1425000000163,
      "v": 90
    },
    {
      "midi": 42,
      "hit": false,
      "t": 264857.0325000014,
      "d": 107.14281250000931,
      "v": 70
    },
    {
      "midi": 60,
      "hit": false,
      "t": 265714.17499999853,
      "d": 857.1425000000163,
      "v": 90
    },
    {
      "midi": 63,
      "hit": false,
      "t": 265714.17499999853,
      "d": 857.1425000000163,
      "v": 90
    },
    {
      "midi": 67,
      "hit": false,
      "t": 265714.17499999853,
      "d": 857.1425000000163,
      "v": 90
    },
    {
      "midi": 75,
      "hit": false,
      "t": 265714.17500000016,
      "d": 1714.2849999999744,
      "v": 100
    },
    {
      "midi": 37,
      "hit": false,
      "t": 265714.17500000057,
      "d": 107.14281250000931,
      "v": 110
    },
    {
      "midi": 42,
      "hit": false,
      "t": 265714.17500000144,
      "d": 107.14281250000931,
      "v": 80
    },
    {
      "midi": 55,
      "hit": false,
      "t": 266571.31749999855,
      "d": 857.1425000000163,
      "v": 90
    },
    {
      "midi": 70,
      "hit": false,
      "t": 266571.31749999983,
      "d": 857.1425000000163,
      "v": 120
    },
    {
      "midi": 82,
      "hit": false,
      "t": 266571.31749999983,
      "d": 857.1425000000163,
      "v": 120
    },
    {
      "midi": 82,
      "hit": false,
      "t": 266571.31749999995,
      "d": 857.1425000000163,
      "v": 85
    },
    {
      "midi": 42,
      "hit": false,
      "t": 266571.31750000146,
      "d": 107.14281250000931,
      "v": 65
    },
    {
      "midi": 62,
      "hit": false,
      "t": 267428.45999999857,
      "d": 857.1425000000163,
      "v": 90
    },
    {
      "midi": 66,
      "hit": false,
      "t": 267428.45999999857,
      "d": 857.1425000000163,
      "v": 90
    },
    {
      "midi": 69,
      "hit": false,
      "t": 267428.45999999857,
      "d": 857.1425000000163,
      "v": 90
    },
    {
      "midi": 38,
      "hit": false,
      "t": 267428.45999999956,
      "d": 2571.4274999999907,
      "v": 95
    },
    {
      "midi": 50,
      "hit": false,
      "t": 267428.4599999997,
      "d": 3428.570000000007,
      "v": 85
    },
    {
      "midi": 38,
      "hit": false,
      "t": 267428.4599999998,
      "d": 2571.4274999999907,
      "v": 85
    },
    {
      "midi": 69,
      "hit": false,
      "t": 267428.45999999985,
      "d": 3428.570000000007,
      "v": 120
    },
    {
      "midi": 81,
      "hit": false,
      "t": 267428.45999999985,
      "d": 3428.570000000007,
      "v": 120
    },
    {
      "midi": 81,
      "hit": false,
      "t": 267428.45999999996,
      "d": 3428.570000000007,
      "v": 85
    },
    {
      "midi": 78,
      "hit": false,
      "t": 267428.46000000014,
      "d": 3428.570000000007,
      "v": 100
    },
    {
      "midi": 57,
      "hit": false,
      "t": 267428.4600000002,
      "d": 6857.140000000014,
      "v": 70
    },
    {
      "midi": 62,
      "hit": false,
      "t": 267428.4600000002,
      "d": 6857.140000000014,
      "v": 70
    },
    {
      "midi": 66,
      "hit": false,
      "t": 267428.4600000002,
      "d": 6857.140000000014,
      "v": 70
    },
    {
      "midi": 36,
      "hit": false,
      "t": 267428.4600000006,
      "d": 107.14281250000931,
      "v": 110
    },
    {
      "midi": 42,
      "hit": false,
      "t": 267428.4600000015,
      "d": 107.14281250000931,
      "v": 90
    },
    {
      "midi": 57,
      "hit": false,
      "t": 268285.6024999986,
      "d": 857.1425000000163,
      "v": 90
    },
    {
      "midi": 42,
      "hit": false,
      "t": 268285.6025000015,
      "d": 107.14281250000931,
      "v": 70
    },
    {
      "midi": 62,
      "hit": false,
      "t": 269142.7449999986,
      "d": 857.1425000000163,
      "v": 90
    },
    {
      "midi": 66,
      "hit": false,
      "t": 269142.7449999986,
      "d": 857.1425000000163,
      "v": 90
    },
    {
      "midi": 69,
      "hit": false,
      "t": 269142.7449999986,
      "d": 857.1425000000163,
      "v": 90
    },
    {
      "midi": 37,
      "hit": false,
      "t": 269142.74500000064,
      "d": 107.14281250000931,
      "v": 110
    },
    {
      "midi": 42,
      "hit": false,
      "t": 269142.7450000015,
      "d": 107.14281250000931,
      "v": 80
    },
    {
      "midi": 57,
      "hit": false,
      "t": 269999.8874999986,
      "d": 857.1425000000163,
      "v": 90
    },
    {
      "midi": 38,
      "hit": false,
      "t": 269999.88749999955,
      "d": 857.1425000000163,
      "v": 95
    },
    {
      "midi": 38,
      "hit": false,
      "t": 269999.8874999998,
      "d": 857.1425000000163,
      "v": 85
    },
    {
      "midi": 36,
      "hit": false,
      "t": 269999.88750000065,
      "d": 107.14281250000931,
      "v": 110
    },
    {
      "midi": 42,
      "hit": false,
      "t": 269999.8875000015,
      "d": 107.14281250000931,
      "v": 65
    },
    {
      "midi": 62,
      "hit": false,
      "t": 270857.02999999863,
      "d": 3428.570000000007,
      "v": 90
    },
    {
      "midi": 66,
      "hit": false,
      "t": 270857.02999999863,
      "d": 3428.570000000007,
      "v": 90
    },
    {
      "midi": 69,
      "hit": false,
      "t": 270857.02999999863,
      "d": 3428.570000000007,
      "v": 90
    },
    {
      "midi": 57,
      "hit": false,
      "t": 270857.02999999863,
      "d": 3428.570000000007,
      "v": 90
    },
    {
      "midi": 26,
      "hit": false,
      "t": 270857.02999999956,
      "d": 3428.570000000007,
      "v": 95
    },
    {
      "midi": 38,
      "hit": false,
      "t": 270857.0299999997,
      "d": 3428.570000000007,
      "v": 85
    },
    {
      "midi": 38,
      "hit": false,
      "t": 270857.0299999998,
      "d": 3428.570000000007,
      "v": 85
    },
    {
      "midi": 69,
      "hit": false,
      "t": 270857.02999999985,
      "d": 2571.4274999999907,
      "v": 120
    },
    {
      "midi": 81,
      "hit": false,
      "t": 270857.02999999985,
      "d": 2571.4274999999907,
      "v": 120
    },
    {
      "midi": 81,
      "hit": false,
      "t": 270857.02999999997,
      "d": 2571.4274999999907,
      "v": 85
    },
    {
      "midi": 36,
      "hit": false,
      "t": 270857.03000000067,
      "d": 107.14281250000931,
      "v": 110
    },
    {
      "midi": 42,
      "hit": false,
      "t": 270857.03000000154,
      "d": 107.14281250000931,
      "v": 90
    },
    {
      "midi": 42,
      "hit": false,
      "t": 271714.17250000156,
      "d": 107.14281250000931,
      "v": 70
    },
    {
      "midi": 37,
      "hit": false,
      "t": 272571.3150000007,
      "d": 107.14281250000931,
      "v": 110
    },
    {
      "midi": 46,
      "hit": false,
      "t": 272571.3150000016,
      "d": 214.28562500001863,
      "v": 80
    },
    {
      "midi": 70,
      "hit": false,
      "t": 273428.45749999984,
      "d": 857.1425000000163,
      "v": 120
    },
    {
      "midi": 82,
      "hit": false,
      "t": 273428.45749999984,
      "d": 857.1425000000163,
      "v": 120
    },
    {
      "midi": 82,
      "hit": false,
      "t": 273428.45749999996,
      "d": 857.1425000000163,
      "v": 85
    },
    {
      "midi": 67,
      "hit": false,
      "t": 274285.59999999864,
      "d": 6857.140000000014,
      "v": 90
    },
    {
      "midi": 70,
      "hit": false,
      "t": 274285.59999999864,
      "d": 6857.140000000014,
      "v": 90
    },
    {
      "midi": 74,
      "hit": false,
      "t": 274285.59999999864,
      "d": 6857.140000000014,
      "v": 90
    },
    {
      "midi": 31,
      "hit": false,
      "t": 274285.59999999957,
      "d": 6857.140000000014,
      "v": 95
    },
    {
      "midi": 43,
      "hit": false,
      "t": 274285.5999999997,
      "d": 6857.140000000014,
      "v": 85
    },
    {
      "midi": 31,
      "hit": false,
      "t": 274285.5999999998,
      "d": 6857.140000000014,
      "v": 85
    },
    {
      "midi": 67,
      "hit": false,
      "t": 274285.59999999986,
      "d": 6857.140000000014,
      "v": 120
    },
    {
      "midi": 79,
      "hit": false,
      "t": 274285.59999999986,
      "d": 6857.140000000014,
      "v": 120
    },
    {
      "midi": 79,
      "hit": false,
      "t": 274285.6,
      "d": 6857.140000000014,
      "v": 85
    },
    {
      "midi": 55,
      "hit": false,
      "t": 274285.6000000002,
      "d": 6857.140000000014,
      "v": 70
    },
    {
      "midi": 58,
      "hit": false,
      "t": 274285.6000000002,
      "d": 6857.140000000014,
      "v": 70
    },
    {
      "midi": 62,
      "hit": false,
      "t": 274285.6000000002,
      "d": 6857.140000000014,
      "v": 70
    },
    {
      "midi": 67,
      "hit": false,
      "t": 274285.6000000002,
      "d": 6857.140000000014,
      "v": 70
    },
    {
      "midi": 36,
      "hit": false,
      "t": 274285.60000000073,
      "d": 214.28562500001863,
      "v": 110
    },
    {
      "midi": 49,
      "hit": false,
      "t": 274285.6000000016,
      "d": 107.14281250000931,
      "v": 90
    },
    {
      "midi": 44,
      "hit": false,
      "t": 274285.6000000016,
      "d": 107.14281250000931,
      "v": 80
    }
  ]
}