{
  "jsonPath": "Jazz/Cool Jazz/Art Tatum/come-rain-or-come-shine-solo.json",
  "path": "Jazz\\Cool Jazz\\Art Tatum\\Come Rain Or Come Shine (solo).mid",
  "name": "Come Rain Or Come Shine (solo)",
  "difficulty": "Advanced",
  "bpm": 125,
  "notes": [
    {
      "midi": 80,
      "hit": false,
      "t": 0,
      "d": 150.5,
      "v": 61
    },
    {
      "midi": 81,
      "hit": false,
      "t": 198.5,
      "d": 142.5,
      "v": 54
    },
    {
      "midi": 41,
      "hit": false,
      "t": 219.5,
      "d": 36,
      "v": 25
    },
    {
      "midi": 48,
      "hit": false,
      "t": 235,
      "d": 43.5,
      "v": 20
    },
    {
      "midi": 81,
      "hit": false,
      "t": 609,
      "d": 88,
      "v": 58
    },
    {
      "midi": 60,
      "hit": false,
      "t": 817,
      "d": 45,
      "v": 28
    },
    {
      "midi": 81,
      "hit": false,
      "t": 818.5,
      "d": 73.5,
      "v": 48
    },
    {
      "midi": 62,
      "hit": false,
      "t": 820,
      "d": 27.5,
      "v": 42
    },
    {
      "midi": 77,
      "hit": false,
      "t": 839.5,
      "d": 40,
      "v": 54
    },
    {
      "midi": 81,
      "hit": false,
      "t": 1202.5,
      "d": 537.5,
      "v": 50
    },
    {
      "midi": 69,
      "hit": false,
      "t": 1206,
      "d": 516.5,
      "v": 45
    },
    {
      "midi": 77,
      "hit": false,
      "t": 1215.5,
      "d": 572.5,
      "v": 50
    },
    {
      "midi": 36,
      "hit": false,
      "t": 1453,
      "d": 337.5,
      "v": 37
    },
    {
      "midi": 77,
      "hit": false,
      "t": 1831.5,
      "d": 827,
      "v": 39
    },
    {
      "midi": 81,
      "hit": false,
      "t": 1834.5,
      "d": 764,
      "v": 55
    },
    {
      "midi": 69,
      "hit": false,
      "t": 1837,
      "d": 582.5,
      "v": 55
    },
    {
      "midi": 62,
      "hit": false,
      "t": 2057,
      "d": 26,
      "v": 48
    },
    {
      "midi": 60,
      "hit": false,
      "t": 2066.5,
      "d": 33,
      "v": 29
    },
    {
      "midi": 57,
      "hit": false,
      "t": 2097,
      "d": 33.5,
      "v": 22
    },
    {
      "midi": 53,
      "hit": false,
      "t": 2122,
      "d": 34,
      "v": 24
    },
    {
      "midi": 47,
      "hit": false,
      "t": 2461,
      "d": 641.5,
      "v": 53
    },
    {
      "midi": 40,
      "hit": false,
      "t": 2671,
      "d": 394,
      "v": 45
    },
    {
      "midi": 55,
      "hit": false,
      "t": 2690.5,
      "d": 445.5,
      "v": 51
    },
    {
      "midi": 81,
      "hit": false,
      "t": 2698,
      "d": 524.5,
      "v": 44
    },
    {
      "midi": 74,
      "hit": false,
      "t": 2711.5,
      "d": 486.5,
      "v": 62
    },
    {
      "midi": 69,
      "hit": false,
      "t": 2715.5,
      "d": 406.5,
      "v": 60
    },
    {
      "midi": 81,
      "hit": false,
      "t": 3294,
      "d": 537.5,
      "v": 68
    },
    {
      "midi": 62,
      "hit": false,
      "t": 3294.5,
      "d": 197,
      "v": 69
    },
    {
      "midi": 69,
      "hit": false,
      "t": 3298,
      "d": 500.5,
      "v": 54
    },
    {
      "midi": 58,
      "hit": false,
      "t": 3301.5,
      "d": 211.5,
      "v": 59
    },
    {
      "midi": 74,
      "hit": false,
      "t": 3302.5,
      "d": 454.5,
      "v": 65
    },
    {
      "midi": 52,
      "hit": false,
      "t": 3315.5,
      "d": 202.5,
      "v": 56
    },
    {
      "midi": 81,
      "hit": false,
      "t": 3904,
      "d": 354,
      "v": 53
    },
    {
      "midi": 45,
      "hit": false,
      "t": 3908,
      "d": 190,
      "v": 51
    },
    {
      "midi": 73,
      "hit": false,
      "t": 3918.5,
      "d": 324,
      "v": 25
    },
    {
      "midi": 76,
      "hit": false,
      "t": 3919.5,
      "d": 340,
      "v": 53
    },
    {
      "midi": 69,
      "hit": false,
      "t": 3926,
      "d": 289.5,
      "v": 30
    },
    {
      "midi": 81,
      "hit": false,
      "t": 4318.5,
      "d": 538.5,
      "v": 39
    },
    {
      "midi": 69,
      "hit": false,
      "t": 4327.5,
      "d": 520.5,
      "v": 32
    },
    {
      "midi": 73,
      "hit": false,
      "t": 4328,
      "d": 614.5,
      "v": 25
    },
    {
      "midi": 76,
      "hit": false,
      "t": 4329,
      "d": 532,
      "v": 50
    },
    {
      "midi": 61,
      "hit": false,
      "t": 4528,
      "d": 108,
      "v": 48
    },
    {
      "midi": 64,
      "hit": false,
      "t": 4533,
      "d": 70.5,
      "v": 40
    },
    {
      "midi": 58,
      "hit": false,
      "t": 4551.5,
      "d": 112.5,
      "v": 35
    },
    {
      "midi": 55,
      "hit": false,
      "t": 4554.5,
      "d": 113.5,
      "v": 30
    },
    {
      "midi": 45,
      "hit": false,
      "t": 4891.5,
      "d": 295,
      "v": 56
    },
    {
      "midi": 79,
      "hit": false,
      "t": 4915.5,
      "d": 146.5,
      "v": 42
    },
    {
      "midi": 38,
      "hit": false,
      "t": 5106,
      "d": 109.5,
      "v": 64
    },
    {
      "midi": 81,
      "hit": false,
      "t": 5111.5,
      "d": 284.5,
      "v": 65
    },
    {
      "midi": 72,
      "hit": false,
      "t": 5112,
      "d": 285,
      "v": 60
    },
    {
      "midi": 77,
      "hit": false,
      "t": 5118.5,
      "d": 261.5,
      "v": 64
    },
    {
      "midi": 79,
      "hit": false,
      "t": 5154,
      "d": 32,
      "v": 19
    },
    {
      "midi": 79,
      "hit": false,
      "t": 5496,
      "d": 102.5,
      "v": 44
    },
    {
      "midi": 76,
      "hit": false,
      "t": 5523.5,
      "d": 77.5,
      "v": 45
    },
    {
      "midi": 71,
      "hit": false,
      "t": 5541.5,
      "d": 35.5,
      "v": 26
    },
    {
      "midi": 64,
      "hit": false,
      "t": 5734.5,
      "d": 478.5,
      "v": 66
    },
    {
      "midi": 77,
      "hit": false,
      "t": 5738,
      "d": 233.5,
      "v": 54
    },
    {
      "midi": 72,
      "hit": false,
      "t": 5751.5,
      "d": 216.5,
      "v": 61
    },
    {
      "midi": 67,
      "hit": false,
      "t": 5752,
      "d": 430.5,
      "v": 52
    },
    {
      "midi": 76,
      "hit": false,
      "t": 6301,
      "d": 585.5,
      "v": 44
    },
    {
      "midi": 62,
      "hit": false,
      "t": 6308,
      "d": 591.5,
      "v": 51
    },
    {
      "midi": 65,
      "hit": false,
      "t": 6316,
      "d": 477,
      "v": 38
    },
    {
      "midi": 69,
      "hit": false,
      "t": 6332,
      "d": 442.5,
      "v": 43
    },
    {
      "midi": 74,
      "hit": false,
      "t": 6885,
      "d": 285.5,
      "v": 51
    },
    {
      "midi": 65,
      "hit": false,
      "t": 6891.5,
      "d": 320,
      "v": 37
    },
    {
      "midi": 69,
      "hit": false,
      "t": 6902,
      "d": 298,
      "v": 36
    },
    {
      "midi": 61,
      "hit": false,
      "t": 6905,
      "d": 550,
      "v": 38
    },
    {
      "midi": 72,
      "hit": false,
      "t": 7472,
      "d": 402,
      "v": 38
    },
    {
      "midi": 60,
      "hit": false,
      "t": 7488,
      "d": 188,
      "v": 29
    },
    {
      "midi": 69,
      "hit": false,
      "t": 7493,
      "d": 364,
      "v": 35
    },
    {
      "midi": 65,
      "hit": false,
      "t": 7500,
      "d": 388,
      "v": 35
    },
    {
      "midi": 62,
      "hit": false,
      "t": 7509,
      "d": 376,
      "v": 15
    },
    {
      "midi": 57,
      "hit": false,
      "t": 7861,
      "d": 340,
      "v": 54
    },
    {
      "midi": 61,
      "hit": false,
      "t": 8238,
      "d": 87,
      "v": 69
    },
    {
      "midi": 64,
      "hit": false,
      "t": 8368,
      "d": 95.5,
      "v": 66
    },
    {
      "midi": 69,
      "hit": false,
      "t": 8513,
      "d": 107,
      "v": 84
    },
    {
      "midi": 76,
      "hit": false,
      "t": 8653,
      "d": 74.5,
      "v": 84
    },
    {
      "midi": 81,
      "hit": false,
      "t": 8797,
      "d": 173,
      "v": 88
    },
    {
      "midi": 85,
      "hit": false,
      "t": 8928,
      "d": 157,
      "v": 85
    },
    {
      "midi": 88,
      "hit": false,
      "t": 9070,
      "d": 191.5,
      "v": 83
    },
    {
      "midi": 86,
      "hit": false,
      "t": 9215.5,
      "d": 101.5,
      "v": 72
    },
    {
      "midi": 84,
      "hit": false,
      "t": 9377,
      "d": 75,
      "v": 65
    },
    {
      "midi": 82,
      "hit": false,
      "t": 9524,
      "d": 106,
      "v": 39
    },
    {
      "midi": 81,
      "hit": false,
      "t": 9687.5,
      "d": 97.5,
      "v": 71
    },
    {
      "midi": 62,
      "hit": false,
      "t": 9828,
      "d": 243.5,
      "v": 51
    },
    {
      "midi": 81,
      "hit": false,
      "t": 9846,
      "d": 257.5,
      "v": 47
    },
    {
      "midi": 58,
      "hit": false,
      "t": 9847.5,
      "d": 228.5,
      "v": 48
    },
    {
      "midi": 57,
      "hit": false,
      "t": 9866,
      "d": 212.5,
      "v": 17
    },
    {
      "midi": 53,
      "hit": false,
      "t": 9994,
      "d": 110,
      "v": 1
    },
    {
      "midi": 43,
      "hit": false,
      "t": 10278,
      "d": 32,
      "v": 46
    },
    {
      "midi": 69,
      "hit": false,
      "t": 10472,
      "d": 441,
      "v": 49
    },
    {
      "midi": 64,
      "hit": false,
      "t": 10474.5,
      "d": 439.5,
      "v": 43
    },
    {
      "midi": 59,
      "hit": false,
      "t": 10476,
      "d": 386,
      "v": 35
    },
    {
      "midi": 54,
      "hit": false,
      "t": 10491.5,
      "d": 359,
      "v": 48
    },
    {
      "midi": 59,
      "hit": false,
      "t": 11072,
      "d": 399,
      "v": 34
    },
    {
      "midi": 64,
      "hit": false,
      "t": 11077,
      "d": 370.5,
      "v": 35
    },
    {
      "midi": 69,
      "hit": false,
      "t": 11078.5,
      "d": 824,
      "v": 37
    },
    {
      "midi": 53,
      "hit": false,
      "t": 11090.5,
      "d": 745.5,
      "v": 36
    },
    {
      "midi": 43,
      "hit": false,
      "t": 11671.5,
      "d": 75,
      "v": 33
    },
    {
      "midi": 63,
      "hit": false,
      "t": 11683.5,
      "d": 361.5,
      "v": 35
    },
    {
      "midi": 59,
      "hit": false,
      "t": 11684,
      "d": 285,
      "v": 35
    },
    {
      "midi": 58,
      "hit": false,
      "t": 12088,
      "d": 27.5,
      "v": 51
    },
    {
      "midi": 62,
      "hit": false,
      "t": 12092,
      "d": 35.5,
      "v": 46
    },
    {
      "midi": 43,
      "hit": false,
      "t": 12257,
      "d": 153,
      "v": 22
    },
    {
      "midi": 36,
      "hit": false,
      "t": 12262,
      "d": 121.5,
      "v": 33
    },
    {
      "midi": 52,
      "hit": false,
      "t": 12278,
      "d": 189.5,
      "v": 24
    },
    {
      "midi": 84,
      "hit": false,
      "t": 12431.5,
      "d": 533.5,
      "v": 70
    },
    {
      "midi": 72,
      "hit": false,
      "t": 12434.5,
      "d": 630.5,
      "v": 68
    },
    {
      "midi": 64,
      "hit": false,
      "t": 12861,
      "d": 357.5,
      "v": 43
    },
    {
      "midi": 58,
      "hit": false,
      "t": 12887.5,
      "d": 355.5,
      "v": 37
    },
    {
      "midi": 81,
      "hit": false,
      "t": 13237,
      "d": 193.5,
      "v": 78
    },
    {
      "midi": 73,
      "hit": false,
      "t": 13238.5,
      "d": 185,
      "v": 56
    },
    {
      "midi": 69,
      "hit": false,
      "t": 13242.5,
      "d": 160,
      "v": 76
    },
    {
      "midi": 76,
      "hit": false,
      "t": 13248,
      "d": 192,
      "v": 74
    },
    {
      "midi": 64,
      "hit": false,
      "t": 13490,
      "d": 336,
      "v": 66
    },
    {
      "midi": 81,
      "hit": false,
      "t": 13490.5,
      "d": 279.5,
      "v": 68
    },
    {
      "midi": 73,
      "hit": false,
      "t": 13497,
      "d": 321.5,
      "v": 60
    },
    {
      "midi": 76,
      "hit": false,
      "t": 13498.5,
      "d": 283.5,
      "v": 72
    },
    {
      "midi": 69,
      "hit": false,
      "t": 13501.5,
      "d": 322,
      "v": 78
    },
    {
      "midi": 76,
      "hit": false,
      "t": 14110,
      "d": 412.5,
      "v": 51
    },
    {
      "midi": 64,
      "hit": false,
      "t": 14112,
      "d": 445,
      "v": 38
    },
    {
      "midi": 73,
      "hit": false,
      "t": 14118,
      "d": 489,
      "v": 35
    },
    {
      "midi": 68,
      "hit": false,
      "t": 14123,
      "d": 467,
      "v": 44
    },
    {
      "midi": 58,
      "hit": false,
      "t": 14148,
      "d": 395.5,
      "v": 26
    },
    {
      "midi": 64,
      "hit": false,
      "t": 14722,
      "d": 279,
      "v": 43
    },
    {
      "midi": 74,
      "hit": false,
      "t": 14722.5,
      "d": 225,
      "v": 44
    },
    {
      "midi": 68,
      "hit": false,
      "t": 14733,
      "d": 288,
      "v": 50
    },
    {
      "midi": 58,
      "hit": false,
      "t": 14745,
      "d": 302,
      "v": 30
    },
    {
      "midi": 72,
      "hit": false,
      "t": 15062,
      "d": 36,
      "v": 48
    },
    {
      "midi": 67,
      "hit": false,
      "t": 15074.5,
      "d": 27.5,
      "v": 57
    },
    {
      "midi": 62,
      "hit": false,
      "t": 15075,
      "d": 30,
      "v": 42
    },
    {
      "midi": 57,
      "hit": false,
      "t": 15077,
      "d": 34.5,
      "v": 44
    },
    {
      "midi": 69,
      "hit": false,
      "t": 15353,
      "d": 51,
      "v": 62
    },
    {
      "midi": 64,
      "hit": false,
      "t": 15358.5,
      "d": 33,
      "v": 54
    },
    {
      "midi": 60,
      "hit": false,
      "t": 15367.5,
      "d": 76,
      "v": 28
    },
    {
      "midi": 53,
      "hit": false,
      "t": 15370,
      "d": 197,
      "v": 48
    },
    {
      "midi": 65,
      "hit": false,
      "t": 15653,
      "d": 143,
      "v": 50
    },
    {
      "midi": 60,
      "hit": false,
      "t": 15658.5,
      "d": 121.5,
      "v": 40
    },
    {
      "midi": 57,
      "hit": false,
      "t": 15659.5,
      "d": 61.5,
      "v": 43
    },
    {
      "midi": 60,
      "hit": false,
      "t": 15944,
      "d": 366,
      "v": 45
    },
    {
      "midi": 57,
      "hit": false,
      "t": 15945,
      "d": 382,
      "v": 51
    },
    {
      "midi": 65,
      "hit": false,
      "t": 15946,
      "d": 880.5,
      "v": 60
    },
    {
      "midi": 60,
      "hit": false,
      "t": 16595.5,
      "d": 260,
      "v": 29
    },
    {
      "midi": 65,
      "hit": false,
      "t": 16910,
      "d": 191,
      "v": 46
    },
    {
      "midi": 47,
      "hit": false,
      "t": 17191.5,
      "d": 2318.5,
      "v": 46
    },
    {
      "midi": 65,
      "hit": false,
      "t": 17200,
      "d": 1230.5,
      "v": 37
    },
    {
      "midi": 63,
      "hit": false,
      "t": 17202.5,
      "d": 510.5,
      "v": 58
    },
    {
      "midi": 57,
      "hit": false,
      "t": 17210.5,
      "d": 375.5,
      "v": 33
    },
    {
      "midi": 61,
      "hit": false,
      "t": 17214,
      "d": 447,
      "v": 46
    },
    {
      "midi": 57,
      "hit": false,
      "t": 17856,
      "d": 257,
      "v": 31
    },
    {
      "midi": 61,
      "hit": false,
      "t": 17858,
      "d": 495,
      "v": 42
    },
    {
      "midi": 63,
      "hit": false,
      "t": 18507.5,
      "d": 520.5,
      "v": 45
    },
    {
      "midi": 61,
      "hit": false,
      "t": 18512,
      "d": 477,
      "v": 50
    },
    {
      "midi": 65,
      "hit": false,
      "t": 18513,
      "d": 541.5,
      "v": 48
    },
    {
      "midi": 57,
      "hit": false,
      "t": 18815.5,
      "d": 567,
      "v": 74
    },
    {
      "midi": 61,
      "hit": false,
      "t": 19147,
      "d": 312.5,
      "v": 42
    },
    {
      "midi": 65,
      "hit": false,
      "t": 19149,
      "d": 316,
      "v": 43
    },
    {
      "midi": 63,
      "hit": false,
      "t": 19150.5,
      "d": 332,
      "v": 44
    },
    {
      "midi": 53,
      "hit": false,
      "t": 19478,
      "d": 300,
      "v": 53
    },
    {
      "midi": 61,
      "hit": false,
      "t": 19782.5,
      "d": 245,
      "v": 42
    },
    {
      "midi": 46,
      "hit": false,
      "t": 19794.5,
      "d": 212,
      "v": 35
    },
    {
      "midi": 65,
      "hit": false,
      "t": 19800,
      "d": 261,
      "v": 43
    },
    {
      "midi": 56,
      "hit": false,
      "t": 19803.5,
      "d": 248.5,
      "v": 34
    },
    {
      "midi": 70,
      "hit": false,
      "t": 20268,
      "d": 41.5,
      "v": 59
    },
    {
      "midi": 72,
      "hit": false,
      "t": 20312,
      "d": 101,
      "v": 59
    },
    {
      "midi": 70,
      "hit": false,
      "t": 20383.5,
      "d": 92.5,
      "v": 55
    },
    {
      "midi": 65,
      "hit": false,
      "t": 20481,
      "d": 265,
      "v": 20
    },
    {
      "midi": 69,
      "hit": false,
      "t": 20493,
      "d": 249.5,
      "v": 44
    },
    {
      "midi": 60,
      "hit": false,
      "t": 20495.5,
      "d": 267,
      "v": 28
    },
    {
      "midi": 58,
      "hit": false,
      "t": 20498,
      "d": 328.5,
      "v": 28
    },
    {
      "midi": 70,
      "hit": false,
      "t": 20734,
      "d": 157.5,
      "v": 62
    },
    {
      "midi": 72,
      "hit": false,
      "t": 20930.5,
      "d": 231.5,
      "v": 62
    },
    {
      "midi": 61,
      "hit": false,
      "t": 21132,
      "d": 190,
      "v": 35
    },
    {
      "midi": 70,
      "hit": false,
      "t": 21153,
      "d": 218.5,
      "v": 55
    },
    {
      "midi": 58,
      "hit": false,
      "t": 21158.5,
      "d": 178.5,
      "v": 42
    },
    {
      "midi": 55,
      "hit": false,
      "t": 21226,
      "d": 103,
      "v": 4
    },
    {
      "midi": 65,
      "hit": false,
      "t": 21364,
      "d": 427.5,
      "v": 54
    },
    {
      "midi": 59,
      "hit": false,
      "t": 21607,
      "d": 84,
      "v": 43
    },
    {
      "midi": 49,
      "hit": false,
      "t": 21614.5,
      "d": 130.5,
      "v": 32
    },
    {
      "midi": 64,
      "hit": false,
      "t": 21826.5,
      "d": 301.5,
      "v": 40
    },
    {
      "midi": 58,
      "hit": false,
      "t": 21827.5,
      "d": 151,
      "v": 48
    },
    {
      "midi": 48,
      "hit": false,
      "t": 21836,
      "d": 145,
      "v": 36
    },
    {
      "midi": 50,
      "hit": false,
      "t": 22419.5,
      "d": 271,
      "v": 36
    },
    {
      "midi": 60,
      "hit": false,
      "t": 22420,
      "d": 115.5,
      "v": 30
    },
    {
      "midi": 65,
      "hit": false,
      "t": 22422,
      "d": 148,
      "v": 43
    },
    {
      "midi": 41,
      "hit": false,
      "t": 22484,
      "d": 182.5,
      "v": 17
    },
    {
      "midi": 76,
      "hit": false,
      "t": 22812,
      "d": 85,
      "v": 80
    },
    {
      "midi": 79,
      "hit": false,
      "t": 23058,
      "d": 164,
      "v": 83
    },
    {
      "midi": 72,
      "hit": false,
      "t": 23071.5,
      "d": 372,
      "v": 71
    },
    {
      "midi": 64,
      "hit": false,
      "t": 23072,
      "d": 330,
      "v": 68
    },
    {
      "midi": 68,
      "hit": false,
      "t": 23090.5,
      "d": 324.5,
      "v": 42
    },
    {
      "midi": 79,
      "hit": false,
      "t": 23287.5,
      "d": 132.5,
      "v": 64
    },
    {
      "midi": 62,
      "hit": false,
      "t": 23491.5,
      "d": 444,
      "v": 54
    },
    {
      "midi": 68,
      "hit": false,
      "t": 23493,
      "d": 316,
      "v": 34
    },
    {
      "midi": 77,
      "hit": false,
      "t": 23498,
      "d": 135,
      "v": 58
    },
    {
      "midi": 72,
      "hit": false,
      "t": 23498.5,
      "d": 297,
      "v": 31
    },
    {
      "midi": 77,
      "hit": false,
      "t": 23718.5,
      "d": 141,
      "v": 54
    },
    {
      "midi": 68,
      "hit": false,
      "t": 23918,
      "d": 169.5,
      "v": 33
    },
    {
      "midi": 79,
      "hit": false,
      "t": 23919.5,
      "d": 106.5,
      "v": 47
    },
    {
      "midi": 72,
      "hit": false,
      "t": 23922.5,
      "d": 301,
      "v": 45
    },
    {
      "midi": 60,
      "hit": false,
      "t": 23929,
      "d": 332,
      "v": 34
    },
    {
      "midi": 79,
      "hit": false,
      "t": 24126.5,
      "d": 129,
      "v": 48
    },
    {
      "midi": 60,
      "hit": false,
      "t": 24314,
      "d": 205.5,
      "v": 35
    },
    {
      "midi": 68,
      "hit": false,
      "t": 24324,
      "d": 103.5,
      "v": 25
    },
    {
      "midi": 76,
      "hit": false,
      "t": 24345,
      "d": 50.5,
      "v": 44
    },
    {
      "midi": 72,
      "hit": false,
      "t": 24356,
      "d": 38.5,
      "v": 33
    },
    {
      "midi": 56,
      "hit": false,
      "t": 24482,
      "d": 249.5,
      "v": 9
    },
    {
      "midi": 65,
      "hit": false,
      "t": 24713,
      "d": 67,
      "v": 52
    },
    {
      "midi": 53,
      "hit": false,
      "t": 24737,
      "d": 57.5,
      "v": 44
    },
    {
      "midi": 61,
      "hit": false,
      "t": 24981,
      "d": 175,
      "v": 32
    },
    {
      "midi": 56,
      "hit": false,
      "t": 24983.5,
      "d": 244.5,
      "v": 46
    },
    {
      "midi": 46,
      "hit": false,
      "t": 24988,
      "d": 189,
      "v": 37
    },
    {
      "midi": 65,
      "hit": false,
      "t": 24994.5,
      "d": 220,
      "v": 50
    },
    {
      "midi": 65,
      "hit": false,
      "t": 25627.5,
      "d": 253.5,
      "v": 43
    },
    {
      "midi": 61,
      "hit": false,
      "t": 25632,
      "d": 335.5,
      "v": 50
    },
    {
      "midi": 56,
      "hit": false,
      "t": 25637,
      "d": 346.5,
      "v": 33
    },
    {
      "midi": 60,
      "hit": false,
      "t": 25643.5,
      "d": 266,
      "v": 25
    },
    {
      "midi": 82,
      "hit": false,
      "t": 26024,
      "d": 182,
      "v": 86
    },
    {
      "midi": 70,
      "hit": false,
      "t": 26030.5,
      "d": 177,
      "v": 88
    },
    {
      "midi": 63,
      "hit": false,
      "t": 26265,
      "d": 409,
      "v": 64
    },
    {
      "midi": 82,
      "hit": false,
      "t": 26274,
      "d": 273,
      "v": 62
    },
    {
      "midi": 59,
      "hit": false,
      "t": 26278.5,
      "d": 347.5,
      "v": 55
    },
    {
      "midi": 58,
      "hit": false,
      "t": 26280,
      "d": 402.5,
      "v": 51
    },
    {
      "midi": 54,
      "hit": false,
      "t": 26281,
      "d": 852,
      "v": 53
    },
    {
      "midi": 70,
      "hit": false,
      "t": 26282.5,
      "d": 300,
      "v": 73
    },
    {
      "midi": 80,
      "hit": false,
      "t": 26705,
      "d": 105.5,
      "v": 50
    },
    {
      "midi": 68,
      "hit": false,
      "t": 26714.5,
      "d": 91.5,
      "v": 37
    },
    {
      "midi": 63,
      "hit": false,
      "t": 26920,
      "d": 137,
      "v": 48
    },
    {
      "midi": 58,
      "hit": false,
      "t": 26932,
      "d": 161,
      "v": 33
    },
    {
      "midi": 59,
      "hit": false,
      "t": 26945,
      "d": 93.5,
      "v": 37
    },
    {
      "midi": 68,
      "hit": false,
      "t": 26947.5,
      "d": 133.5,
      "v": 52
    },
    {
      "midi": 82,
      "hit": false,
      "t": 26955.5,
      "d": 85.5,
      "v": 51
    },
    {
      "midi": 80,
      "hit": false,
      "t": 26962.5,
      "d": 114.5,
      "v": 32
    },
    {
      "midi": 84,
      "hit": false,
      "t": 27353,
      "d": 64,
      "v": 63
    },
    {
      "midi": 77,
      "hit": false,
      "t": 27368,
      "d": 36,
      "v": 59
    },
    {
      "midi": 43,
      "hit": false,
      "t": 27592,
      "d": 415.5,
      "v": 44
    },
    {
      "midi": 72,
      "hit": false,
      "t": 27843.5,
      "d": 1577.5,
      "v": 38
    },
    {
      "midi": 65,
      "hit": false,
      "t": 27849,
      "d": 897.5,
      "v": 67
    },
    {
      "midi": 58,
      "hit": false,
      "t": 27878.5,
      "d": 1301.5,
      "v": 29
    },
    {
      "midi": 55,
      "hit": false,
      "t": 28260,
      "d": 30,
      "v": 36
    },
    {
      "midi": 43,
      "hit": false,
      "t": 28474,
      "d": 61.5,
      "v": 41
    },
    {
      "midi": 37,
      "hit": false,
      "t": 28690.5,
      "d": 179,
      "v": 54
    },
    {
      "midi": 70,
      "hit": false,
      "t": 29086,
      "d": 661,
      "v": 1
    },
    {
      "midi": 36,
      "hit": false,
      "t": 29113,
      "d": 129.5,
      "v": 45
    },
    {
      "midi": 52,
      "hit": false,
      "t": 29342.5,
      "d": 329.5,
      "v": 53
    },
    {
      "midi": 58,
      "hit": false,
      "t": 29554.5,
      "d": 199.5,
      "v": 65
    },
    {
      "midi": 64,
      "hit": false,
      "t": 29770,
      "d": 124.5,
      "v": 40
    },
    {
      "midi": 73,
      "hit": false,
      "t": 29970.5,
      "d": 139.5,
      "v": 53
    },
    {
      "midi": 65,
      "hit": false,
      "t": 30218,
      "d": 536,
      "v": 32
    },
    {
      "midi": 72,
      "hit": false,
      "t": 30218.5,
      "d": 582.5,
      "v": 43
    },
    {
      "midi": 68,
      "hit": false,
      "t": 30219.5,
      "d": 547,
      "v": 48
    },
    {
      "midi": 74,
      "hit": false,
      "t": 30224,
      "d": 554.5,
      "v": 37
    },
    {
      "midi": 64,
      "hit": false,
      "t": 30431.5,
      "d": 807,
      "v": 55
    },
    {
      "midi": 74,
      "hit": false,
      "t": 30883.5,
      "d": 615,
      "v": 32
    },
    {
      "midi": 72,
      "hit": false,
      "t": 30884,
      "d": 642,
      "v": 28
    },
    {
      "midi": 65,
      "hit": false,
      "t": 30885,
      "d": 568,
      "v": 42
    },
    {
      "midi": 68,
      "hit": false,
      "t": 30897,
      "d": 565.5,
      "v": 30
    },
    {
      "midi": 62,
      "hit": false,
      "t": 31300,
      "d": 701,
      "v": 84
    },
    {
      "midi": 74,
      "hit": false,
      "t": 31569,
      "d": 1029.5,
      "v": 48
    },
    {
      "midi": 65,
      "hit": false,
      "t": 31572,
      "d": 460,
      "v": 40
    },
    {
      "midi": 68,
      "hit": false,
      "t": 31576,
      "d": 438.5,
      "v": 42
    },
    {
      "midi": 72,
      "hit": false,
      "t": 31578.5,
      "d": 1033,
      "v": 22
    },
    {
      "midi": 60,
      "hit": false,
      "t": 31970.5,
      "d": 225.5,
      "v": 51
    },
    {
      "midi": 46,
      "hit": false,
      "t": 32684,
      "d": 186.5,
      "v": 36
    },
    {
      "midi": 75,
      "hit": false,
      "t": 32909,
      "d": 799,
      "v": 55
    },
    {
      "midi": 54,
      "hit": false,
      "t": 32910.5,
      "d": 329.5,
      "v": 39
    },
    {
      "midi": 39,
      "hit": false,
      "t": 32921,
      "d": 215,
      "v": 37
    },
    {
      "midi": 66,
      "hit": false,
      "t": 32930.5,
      "d": 482.5,
      "v": 25
    },
    {
      "midi": 70,
      "hit": false,
      "t": 32942,
      "d": 469.5,
      "v": 32
    },
    {
      "midi": 66,
      "hit": false,
      "t": 33581,
      "d": 932,
      "v": 33
    },
    {
      "midi": 65,
      "hit": false,
      "t": 33582,
      "d": 372.5,
      "v": 56
    },
    {
      "midi": 72,
      "hit": false,
      "t": 33582.5,
      "d": 1004,
      "v": 50
    },
    {
      "midi": 60,
      "hit": false,
      "t": 33584,
      "d": 406,
      "v": 29
    },
    {
      "midi": 54,
      "hit": false,
      "t": 33608,
      "d": 418,
      "v": 32
    },
    {
      "midi": 44,
      "hit": false,
      "t": 34282.5,
      "d": 195,
      "v": 47
    },
    {
      "midi": 54,
      "hit": false,
      "t": 34310,
      "d": 213.5,
      "v": 18
    },
    {
      "midi": 72,
      "hit": false,
      "t": 34726.5,
      "d": 568,
      "v": 96
    },
    {
      "midi": 65,
      "hit": false,
      "t": 34943.5,
      "d": 68,
      "v": 44
    },
    {
      "midi": 60,
      "hit": false,
      "t": 34948,
      "d": 92,
      "v": 30
    },
    {
      "midi": 54,
      "hit": false,
      "t": 34960,
      "d": 322.5,
      "v": 28
    },
    {
      "midi": 73,
      "hit": false,
      "t": 35175,
      "d": 123,
      "v": 59
    },
    {
      "midi": 74,
      "hit": false,
      "t": 35391.5,
      "d": 174,
      "v": 72
    },
    {
      "midi": 58,
      "hit": false,
      "t": 35549,
      "d": 57,
      "v": 42
    },
    {
      "midi": 59,
      "hit": false,
      "t": 35595.5,
      "d": 58.5,
      "v": 53
    },
    {
      "midi": 75,
      "hit": false,
      "t": 35634,
      "d": 574,
      "v": 57
    },
    {
      "midi": 66,
      "hit": false,
      "t": 35637.5,
      "d": 619.5,
      "v": 31
    },
    {
      "midi": 60,
      "hit": false,
      "t": 35638.5,
      "d": 619.5,
      "v": 38
    },
    {
      "midi": 72,
      "hit": false,
      "t": 35650,
      "d": 446,
      "v": 38
    },
    {
      "midi": 69,
      "hit": false,
      "t": 35653,
      "d": 351,
      "v": 39
    },
    {
      "midi": 74,
      "hit": false,
      "t": 36285,
      "d": 292,
      "v": 53
    },
    {
      "midi": 65,
      "hit": false,
      "t": 36286,
      "d": 442,
      "v": 48
    },
    {
      "midi": 59,
      "hit": false,
      "t": 36293,
      "d": 665,
      "v": 37
    },
    {
      "midi": 64,
      "hit": false,
      "t": 36970.5,
      "d": 457.5,
      "v": 32
    },
    {
      "midi": 73,
      "hit": false,
      "t": 36978.5,
      "d": 412,
      "v": 30
    },
    {
      "midi": 70,
      "hit": false,
      "t": 36991.5,
      "d": 388.5,
      "v": 42
    },
    {
      "midi": 58,
      "hit": false,
      "t": 36994.5,
      "d": 281.5,
      "v": 35
    },
    {
      "midi": 67,
      "hit": false,
      "t": 36998.5,
      "d": 352,
      "v": 31
    },
    {
      "midi": 55,
      "hit": false,
      "t": 37674,
      "d": 708.5,
      "v": 49
    },
    {
      "midi": 70,
      "hit": false,
      "t": 37680,
      "d": 503.5,
      "v": 45
    },
    {
      "midi": 61,
      "hit": false,
      "t": 37681,
      "d": 483,
      "v": 33
    },
    {
      "midi": 64,
      "hit": false,
      "t": 37686.5,
      "d": 381,
      "v": 34
    },
    {
      "midi": 67,
      "hit": false,
      "t": 37698.5,
      "d": 373,
      "v": 37
    },
    {
      "midi": 60,
      "hit": false,
      "t": 38395.5,
      "d": 352,
      "v": 25
    },
    {
      "midi": 66,
      "hit": false,
      "t": 38397,
      "d": 470,
      "v": 34
    },
    {
      "midi": 69,
      "hit": false,
      "t": 38403.5,
      "d": 492.5,
      "v": 36
    },
    {
      "midi": 63,
      "hit": false,
      "t": 38404,
      "d": 431.5,
      "v": 37
    },
    {
      "midi": 54,
      "hit": false,
      "t": 38410.5,
      "d": 393,
      "v": 29
    },
    {
      "midi": 59,
      "hit": false,
      "t": 39085.5,
      "d": 317,
      "v": 34
    },
    {
      "midi": 67,
      "hit": false,
      "t": 39089,
      "d": 333.5,
      "v": 40
    },
    {
      "midi": 53,
      "hit": false,
      "t": 39091.5,
      "d": 195,
      "v": 34
    },
    {
      "midi": 63,
      "hit": false,
      "t": 39102,
      "d": 308.5,
      "v": 34
    },
    {
      "midi": 68,
      "hit": false,
      "t": 39768,
      "d": 391.5,
      "v": 36
    },
    {
      "midi": 59,
      "hit": false,
      "t": 39770,
      "d": 349.5,
      "v": 31
    },
    {
      "midi": 37,
      "hit": false,
      "t": 39778,
      "d": 156,
      "v": 36
    },
    {
      "midi": 63,
      "hit": false,
      "t": 39786.5,
      "d": 397,
      "v": 36
    },
    {
      "midi": 44,
      "hit": false,
      "t": 39793,
      "d": 203,
      "v": 30
    },
    {
      "midi": 65,
      "hit": false,
      "t": 39801,
      "d": 298.5,
      "v": 33
    },
    {
      "midi": 58,
      "hit": false,
      "t": 40506,
      "d": 503,
      "v": 47
    },
    {
      "midi": 69,
      "hit": false,
      "t": 40509,
      "d": 449,
      "v": 54
    },
    {
      "midi": 61,
      "hit": false,
      "t": 40517,
      "d": 473,
      "v": 42
    },
    {
      "midi": 64,
      "hit": false,
      "t": 40531.5,
      "d": 466.5,
      "v": 37
    },
    {
      "midi": 36,
      "hit": false,
      "t": 40951.5,
      "d": 43,
      "v": 40
    },
    {
      "midi": 57,
      "hit": false,
      "t": 41216,
      "d": 122.5,
      "v": 37
    },
    {
      "midi": 48,
      "hit": false,
      "t": 41222.5,
      "d": 185.5,
      "v": 31
    },
    {
      "midi": 41,
      "hit": false,
      "t": 41250.5,
      "d": 149.5,
      "v": 24
    },
    {
      "midi": 81,
      "hit": false,
      "t": 41674,
      "d": 100,
      "v": 77
    },
    {
      "midi": 69,
      "hit": false,
      "t": 41890.5,
      "d": 133,
      "v": 44
    },
    {
      "midi": 73,
      "hit": false,
      "t": 42055.5,
      "d": 132.5,
      "v": 37
    },
    {
      "midi": 76,
      "hit": false,
      "t": 42212,
      "d": 169,
      "v": 81
    },
    {
      "midi": 79,
      "hit": false,
      "t": 42360,
      "d": 114.5,
      "v": 76
    },
    {
      "midi": 61,
      "hit": false,
      "t": 42495.5,
      "d": 548.5,
      "v": 29
    },
    {
      "midi": 64,
      "hit": false,
      "t": 42502,
      "d": 472,
      "v": 33
    },
    {
      "midi": 77,
      "hit": false,
      "t": 42510.5,
      "d": 167.5,
      "v": 65
    },
    {
      "midi": 57,
      "hit": false,
      "t": 42514,
      "d": 1082,
      "v": 33
    },
    {
      "midi": 75,
      "hit": false,
      "t": 42810.5,
      "d": 176.5,
      "v": 78
    },
    {
      "midi": 76,
      "hit": false,
      "t": 42959.5,
      "d": 120,
      "v": 79
    },
    {
      "midi": 53,
      "hit": false,
      "t": 42979.5,
      "d": 388,
      "v": 1
    },
    {
      "midi": 62,
      "hit": false,
      "t": 43106,
      "d": 460.5,
      "v": 47
    },
    {
      "midi": 74,
      "hit": false,
      "t": 43121,
      "d": 125.5,
      "v": 57
    },
    {
      "midi": 76,
      "hit": false,
      "t": 43155.5,
      "d": 113.5,
      "v": 22
    },
    {
      "midi": 69,
      "hit": false,
      "t": 43307.5,
      "d": 96.5,
      "v": 57
    },
    {
      "midi": 53,
      "hit": false,
      "t": 43501,
      "d": 155,
      "v": 45
    },
    {
      "midi": 62,
      "hit": false,
      "t": 43737,
      "d": 296,
      "v": 52
    },
    {
      "midi": 58,
      "hit": false,
      "t": 43774,
      "d": 328,
      "v": 35
    },
    {
      "midi": 52,
      "hit": false,
      "t": 43774.5,
      "d": 992,
      "v": 36
    },
    {
      "midi": 67,
      "hit": false,
      "t": 44178,
      "d": 161,
      "v": 90
    },
    {
      "midi": 58,
      "hit": false,
      "t": 44417.5,
      "d": 303.5,
      "v": 60
    },
    {
      "midi": 62,
      "hit": false,
      "t": 44419.5,
      "d": 221.5,
      "v": 54
    },
    {
      "midi": 69,
      "hit": false,
      "t": 44658.5,
      "d": 130.5,
      "v": 108
    },
    {
      "midi": 68,
      "hit": false,
      "t": 44859.5,
      "d": 156,
      "v": 84
    },
    {
      "midi": 45,
      "hit": false,
      "t": 45076,
      "d": 83.5,
      "v": 51
    },
    {
      "midi": 69,
      "hit": false,
      "t": 45077,
      "d": 178,
      "v": 67
    },
    {
      "midi": 70,
      "hit": false,
      "t": 45298,
      "d": 140,
      "v": 59
    },
    {
      "midi": 72,
      "hit": false,
      "t": 45504,
      "d": 260,
      "v": 75
    },
    {
      "midi": 61,
      "hit": false,
      "t": 45717,
      "d": 628,
      "v": 49
    },
    {
      "midi": 77,
      "hit": false,
      "t": 45721,
      "d": 180,
      "v": 68
    },
    {
      "midi": 66,
      "hit": false,
      "t": 45724,
      "d": 570,
      "v": 46
    },
    {
      "midi": 55,
      "hit": false,
      "t": 45738.5,
      "d": 601,
      "v": 32
    },
    {
      "midi": 82,
      "hit": false,
      "t": 45935,
      "d": 132.5,
      "v": 62
    },
    {
      "midi": 84,
      "hit": false,
      "t": 46166.5,
      "d": 81,
      "v": 84
    },
    {
      "midi": 72,
      "hit": false,
      "t": 46378.5,
      "d": 171.5,
      "v": 53
    },
    {
      "midi": 79,
      "hit": false,
      "t": 46597,
      "d": 177.5,
      "v": 68
    },
    {
      "midi": 69,
      "hit": false,
      "t": 46820,
      "d": 341,
      "v": 32
    },
    {
      "midi": 64,
      "hit": false,
      "t": 46825,
      "d": 452,
      "v": 32
    },
    {
      "midi": 77,
      "hit": false,
      "t": 47042,
      "d": 117.5,
      "v": 64
    },
    {
      "midi": 69,
      "hit": false,
      "t": 47274,
      "d": 418,
      "v": 30
    },
    {
      "midi": 76,
      "hit": false,
      "t": 47470,
      "d": 210,
      "v": 62
    },
    {
      "midi": 61,
      "hit": false,
      "t": 47475.5,
      "d": 421.5,
      "v": 39
    },
    {
      "midi": 74,
      "hit": false,
      "t": 47886.5,
      "d": 116,
      "v": 44
    },
    {
      "midi": 60,
      "hit": false,
      "t": 47890.5,
      "d": 393.5,
      "v": 27
    },
    {
      "midi": 74,
      "hit": false,
      "t": 48134,
      "d": 42,
      "v": 19
    },
    {
      "midi": 72,
      "hit": false,
      "t": 48137,
      "d": 145.5,
      "v": 19
    },
    {
      "midi": 65,
      "hit": false,
      "t": 48338,
      "d": 165.5,
      "v": 33
    },
    {
      "midi": 60,
      "hit": false,
      "t": 48339.5,
      "d": 100,
      "v": 22
    },
    {
      "midi": 53,
      "hit": false,
      "t": 48566,
      "d": 40.5,
      "v": 42
    },
    {
      "midi": 44,
      "hit": false,
      "t": 48770,
      "d": 133,
      "v": 50
    },
    {
      "midi": 61,
      "hit": false,
      "t": 49001,
      "d": 808,
      "v": 39
    },
    {
      "midi": 59,
      "hit": false,
      "t": 49008,
      "d": 590,
      "v": 40
    },
    {
      "midi": 53,
      "hit": false,
      "t": 49027.5,
      "d": 476.5,
      "v": 34
    },
    {
      "midi": 43,
      "hit": false,
      "t": 49042,
      "d": 1840.5,
      "v": 29
    },
    {
      "midi": 59,
      "hit": false,
      "t": 49721,
      "d": 979,
      "v": 36
    },
    {
      "midi": 53,
      "hit": false,
      "t": 49733,
      "d": 1569,
      "v": 31
    },
    {
      "midi": 62,
      "hit": false,
      "t": 49740,
      "d": 1517,
      "v": 29
    },
    {
      "midi": 50,
      "hit": false,
      "t": 50442,
      "d": 814,
      "v": 36
    },
    {
      "midi": 57,
      "hit": false,
      "t": 50932,
      "d": 214.5,
      "v": 37
    },
    {
      "midi": 43,
      "hit": false,
      "t": 51155.5,
      "d": 115,
      "v": 45
    },
    {
      "midi": 41,
      "hit": false,
      "t": 51690.5,
      "d": 955.5,
      "v": 42
    },
    {
      "midi": 48,
      "hit": false,
      "t": 51772,
      "d": 542,
      "v": 34
    },
    {
      "midi": 57,
      "hit": false,
      "t": 51816,
      "d": 440,
      "v": 51
    },
    {
      "midi": 71,
      "hit": false,
      "t": 51824,
      "d": 306.5,
      "v": 60
    },
    {
      "midi": 63,
      "hit": false,
      "t": 51832,
      "d": 458,
      "v": 50
    },
    {
      "midi": 67,
      "hit": false,
      "t": 51834.5,
      "d": 383.5,
      "v": 50
    },
    {
      "midi": 71,
      "hit": false,
      "t": 52248,
      "d": 174,
      "v": 64
    },
    {
      "midi": 71,
      "hit": false,
      "t": 52514.5,
      "d": 312.5,
      "v": 46
    },
    {
      "midi": 63,
      "hit": false,
      "t": 52528,
      "d": 382,
      "v": 34
    },
    {
      "midi": 59,
      "hit": false,
      "t": 52529,
      "d": 172,
      "v": 45
    },
    {
      "midi": 67,
      "hit": false,
      "t": 52537,
      "d": 322.5,
      "v": 42
    },
    {
      "midi": 48,
      "hit": false,
      "t": 52538,
      "d": 114,
      "v": 35
    },
    {
      "midi": 71,
      "hit": false,
      "t": 52972,
      "d": 167.5,
      "v": 74
    },
    {
      "midi": 71,
      "hit": false,
      "t": 53220,
      "d": 141,
      "v": 66
    },
    {
      "midi": 63,
      "hit": false,
      "t": 53228,
      "d": 559.5,
      "v": 51
    },
    {
      "midi": 62,
      "hit": false,
      "t": 53233,
      "d": 295,
      "v": 54
    },
    {
      "midi": 67,
      "hit": false,
      "t": 53234,
      "d": 513.5,
      "v": 54
    },
    {
      "midi": 59,
      "hit": false,
      "t": 53234.5,
      "d": 122.5,
      "v": 58
    },
    {
      "midi": 71,
      "hit": false,
      "t": 53459.5,
      "d": 1744.5,
      "v": 40
    },
    {
      "midi": 53,
      "hit": false,
      "t": 53687.5,
      "d": 159,
      "v": 45
    },
    {
      "midi": 63,
      "hit": false,
      "t": 53912,
      "d": 786,
      "v": 49
    },
    {
      "midi": 59,
      "hit": false,
      "t": 53918.5,
      "d": 694.5,
      "v": 54
    },
    {
      "midi": 67,
      "hit": false,
      "t": 53935.5,
      "d": 794.5,
      "v": 35
    },
    {
      "midi": 48,
      "hit": false,
      "t": 54130.5,
      "d": 136.5,
      "v": 36
    },
    {
      "midi": 41,
      "hit": false,
      "t": 54351,
      "d": 75.5,
      "v": 51
    },
    {
      "midi": 28,
      "hit": false,
      "t": 54616,
      "d": 254,
      "v": 56
    },
    {
      "midi": 64,
      "hit": false,
      "t": 55316,
      "d": 152,
      "v": 44
    },
    {
      "midi": 62,
      "hit": false,
      "t": 55322,
      "d": 225.5,
      "v": 38
    },
    {
      "midi": 71,
      "hit": false,
      "t": 55745,
      "d": 192,
      "v": 105
    },
    {
      "midi": 71,
      "hit": false,
      "t": 56014,
      "d": 680.5,
      "v": 80
    },
    {
      "midi": 64,
      "hit": false,
      "t": 56026.5,
      "d": 254.5,
      "v": 74
    },
    {
      "midi": 52,
      "hit": false,
      "t": 56462,
      "d": 460,
      "v": 42
    },
    {
      "midi": 68,
      "hit": false,
      "t": 56706,
      "d": 360,
      "v": 29
    },
    {
      "midi": 62,
      "hit": false,
      "t": 56731.5,
      "d": 238.5,
      "v": 28
    },
    {
      "midi": 64,
      "hit": false,
      "t": 56742.5,
      "d": 171.5,
      "v": 36
    },
    {
      "midi": 56,
      "hit": false,
      "t": 56764,
      "d": 228,
      "v": 31
    },
    {
      "midi": 72,
      "hit": false,
      "t": 57173,
      "d": 61,
      "v": 63
    },
    {
      "midi": 85,
      "hit": false,
      "t": 57426,
      "d": 673.5,
      "v": 69
    },
    {
      "midi": 73,
      "hit": false,
      "t": 57430.5,
      "d": 673.5,
      "v": 44
    },
    {
      "midi": 54,
      "hit": false,
      "t": 57433,
      "d": 27,
      "v": 27
    },
    {
      "midi": 61,
      "hit": false,
      "t": 57449.5,
      "d": 587.5,
      "v": 38
    },
    {
      "midi": 66,
      "hit": false,
      "t": 57455.5,
      "d": 587,
      "v": 43
    },
    {
      "midi": 55,
      "hit": false,
      "t": 57468,
      "d": 377,
      "v": 45
    },
    {
      "midi": 81,
      "hit": false,
      "t": 58538.5,
      "d": 87,
      "v": 68
    },
    {
      "midi": 80,
      "hit": false,
      "t": 58687.5,
      "d": 111,
      "v": 45
    },
    {
      "midi": 62,
      "hit": false,
      "t": 58850.5,
      "d": 1012,
      "v": 38
    },
    {
      "midi": 67,
      "hit": false,
      "t": 58851.5,
      "d": 1013.5,
      "v": 37
    },
    {
      "midi": 81,
      "hit": false,
      "t": 58858.5,
      "d": 435.5,
      "v": 58
    },
    {
      "midi": 56,
      "hit": false,
      "t": 58864,
      "d": 1126,
      "v": 32
    },
    {
      "midi": 72,
      "hit": false,
      "t": 59289,
      "d": 84,
      "v": 54
    },
    {
      "midi": 77,
      "hit": false,
      "t": 59449,
      "d": 117.5,
      "v": 54
    },
    {
      "midi": 82,
      "hit": false,
      "t": 59589,
      "d": 61.5,
      "v": 61
    },
    {
      "midi": 84,
      "hit": false,
      "t": 59738.5,
      "d": 105.5,
      "v": 73
    },
    {
      "midi": 89,
      "hit": false,
      "t": 59886,
      "d": 111,
      "v": 74
    },
    {
      "midi": 94,
      "hit": false,
      "t": 60030.5,
      "d": 125.5,
      "v": 78
    },
    {
      "midi": 66,
      "hit": false,
      "t": 60190,
      "d": 1116,
      "v": 36
    },
    {
      "midi": 96,
      "hit": false,
      "t": 60194,
      "d": 136.5,
      "v": 65
    },
    {
      "midi": 55,
      "hit": false,
      "t": 60194.5,
      "d": 1049.5,
      "v": 38
    },
    {
      "midi": 61,
      "hit": false,
      "t": 60200,
      "d": 1082.5,
      "v": 38
    },
    {
      "midi": 92,
      "hit": false,
      "t": 60363.5,
      "d": 65.5,
      "v": 57
    },
    {
      "midi": 93,
      "hit": false,
      "t": 60438,
      "d": 379,
      "v": 55
    },
    {
      "midi": 88,
      "hit": false,
      "t": 60819,
      "d": 372.5,
      "v": 49
    },
    {
      "midi": 86,
      "hit": false,
      "t": 61255.5,
      "d": 113.5,
      "v": 45
    },
    {
      "midi": 61,
      "hit": false,
      "t": 61482.5,
      "d": 493,
      "v": 33
    },
    {
      "midi": 65,
      "hit": false,
      "t": 61490.5,
      "d": 503.5,
      "v": 26
    },
    {
      "midi": 85,
      "hit": false,
      "t": 61491.5,
      "d": 117.5,
      "v": 33
    },
    {
      "midi": 55,
      "hit": false,
      "t": 61506,
      "d": 847,
      "v": 28
    },
    {
      "midi": 88,
      "hit": false,
      "t": 61686.5,
      "d": 102.5,
      "v": 42
    },
    {
      "midi": 82,
      "hit": false,
      "t": 61886.5,
      "d": 429.5,
      "v": 47
    },
    {
      "midi": 65,
      "hit": false,
      "t": 62155,
      "d": 391.5,
      "v": 27
    },
    {
      "midi": 61,
      "hit": false,
      "t": 62156,
      "d": 486.5,
      "v": 42
    },
    {
      "midi": 81,
      "hit": false,
      "t": 62394.5,
      "d": 46.5,
      "v": 50
    },
    {
      "midi": 55,
      "hit": false,
      "t": 62610.5,
      "d": 79,
      "v": 36
    },
    {
      "midi": 74,
      "hit": false,
      "t": 62840,
      "d": 337.5,
      "v": 44
    },
    {
      "midi": 69,
      "hit": false,
      "t": 62848,
      "d": 378.5,
      "v": 44
    },
    {
      "midi": 67,
      "hit": false,
      "t": 62850.5,
      "d": 403.5,
      "v": 33
    },
    {
      "midi": 62,
      "hit": false,
      "t": 62851.5,
      "d": 373.5,
      "v": 50
    },
    {
      "midi": 64,
      "hit": false,
      "t": 62863.5,
      "d": 347,
      "v": 19
    },
    {
      "midi": 74,
      "hit": false,
      "t": 63278,
      "d": 218,
      "v": 63
    },
    {
      "midi": 74,
      "hit": false,
      "t": 63538.5,
      "d": 689.5,
      "v": 25
    },
    {
      "midi": 60,
      "hit": false,
      "t": 63555.5,
      "d": 531,
      "v": 28
    },
    {
      "midi": 64,
      "hit": false,
      "t": 63557,
      "d": 495,
      "v": 34
    },
    {
      "midi": 67,
      "hit": false,
      "t": 63561,
      "d": 432,
      "v": 33
    },
    {
      "midi": 69,
      "hit": false,
      "t": 63562.5,
      "d": 1414.5,
      "v": 38
    },
    {
      "midi": 50,
      "hit": false,
      "t": 64006.5,
      "d": 1035,
      "v": 28
    },
    {
      "midi": 63,
      "hit": false,
      "t": 64294,
      "d": 473.5,
      "v": 43
    },
    {
      "midi": 66,
      "hit": false,
      "t": 64300,
      "d": 493,
      "v": 35
    },
    {
      "midi": 60,
      "hit": false,
      "t": 64301,
      "d": 364,
      "v": 27
    },
    {
      "midi": 66,
      "hit": false,
      "t": 64991.5,
      "d": 834.5,
      "v": 43
    },
    {
      "midi": 63,
      "hit": false,
      "t": 65000,
      "d": 742.5,
      "v": 37
    },
    {
      "midi": 49,
      "hit": false,
      "t": 65230,
      "d": 197.5,
      "v": 62
    },
    {
      "midi": 50,
      "hit": false,
      "t": 65459.5,
      "d": 28,
      "v": 50
    },
    {
      "midi": 26,
      "hit": false,
      "t": 65707.5,
      "d": 119,
      "v": 62
    },
    {
      "midi": 87,
      "hit": false,
      "t": 66239.5,
      "d": 231,
      "v": 85
    },
    {
      "midi": 75,
      "hit": false,
      "t": 66241,
      "d": 241.5,
      "v": 95
    },
    {
      "midi": 61,
      "hit": false,
      "t": 66242,
      "d": 269.5,
      "v": 71
    },
    {
      "midi": 82,
      "hit": false,
      "t": 66243.5,
      "d": 236.5,
      "v": 85
    },
    {
      "midi": 66,
      "hit": false,
      "t": 66253,
      "d": 245.5,
      "v": 81
    },
    {
      "midi": 55,
      "hit": false,
      "t": 66254,
      "d": 185.5,
      "v": 57
    },
    {
      "midi": 86,
      "hit": false,
      "t": 66530.5,
      "d": 436,
      "v": 72
    },
    {
      "midi": 81,
      "hit": false,
      "t": 66538,
      "d": 444,
      "v": 68
    },
    {
      "midi": 60,
      "hit": false,
      "t": 66539.5,
      "d": 672,
      "v": 54
    },
    {
      "midi": 74,
      "hit": false,
      "t": 66540,
      "d": 492,
      "v": 52
    },
    {
      "midi": 65,
      "hit": false,
      "t": 66541,
      "d": 481,
      "v": 74
    },
    {
      "midi": 54,
      "hit": false,
      "t": 66550,
      "d": 1327,
      "v": 49
    },
    {
      "midi": 74,
      "hit": false,
      "t": 67243.5,
      "d": 1042.5,
      "v": 49
    },
    {
      "midi": 62,
      "hit": false,
      "t": 67694,
      "d": 651,
      "v": 38
    },
    {
      "midi": 50,
      "hit": false,
      "t": 68175.5,
      "d": 159,
      "v": 39
    },
    {
      "midi": 43,
      "hit": false,
      "t": 68429,
      "d": 575,
      "v": 55
    },
    {
      "midi": 53,
      "hit": false,
      "t": 68686,
      "d": 244,
      "v": 59
    },
    {
      "midi": 60,
      "hit": false,
      "t": 68686.5,
      "d": 293,
      "v": 38
    },
    {
      "midi": 57,
      "hit": false,
      "t": 68690,
      "d": 248.5,
      "v": 47
    },
    {
      "midi": 74,
      "hit": false,
      "t": 69392,
      "d": 159.5,
      "v": 80
    },
    {
      "midi": 64,
      "hit": false,
      "t": 69394.5,
      "d": 481.5,
      "v": 79
    },
    {
      "midi": 65,
      "hit": false,
      "t": 69399.5,
      "d": 144,
      "v": 82
    },
    {
      "midi": 72,
      "hit": false,
      "t": 69402.5,
      "d": 162.5,
      "v": 68
    },
    {
      "midi": 69,
      "hit": false,
      "t": 69403.5,
      "d": 142.5,
      "v": 75
    },
    {
      "midi": 65,
      "hit": false,
      "t": 69620,
      "d": 65,
      "v": 33
    },
    {
      "midi": 74,
      "hit": false,
      "t": 69628,
      "d": 62.5,
      "v": 53
    },
    {
      "midi": 69,
      "hit": false,
      "t": 69634.5,
      "d": 37,
      "v": 46
    },
    {
      "midi": 72,
      "hit": false,
      "t": 69635.5,
      "d": 42.5,
      "v": 42
    },
    {
      "midi": 65,
      "hit": false,
      "t": 69870.5,
      "d": 44,
      "v": 60
    },
    {
      "midi": 74,
      "hit": false,
      "t": 69871.5,
      "d": 57.5,
      "v": 49
    },
    {
      "midi": 72,
      "hit": false,
      "t": 69879.5,
      "d": 37.5,
      "v": 44
    },
    {
      "midi": 62,
      "hit": false,
      "t": 69882.5,
      "d": 613.5,
      "v": 48
    },
    {
      "midi": 69,
      "hit": false,
      "t": 69883.5,
      "d": 28.5,
      "v": 40
    },
    {
      "midi": 74,
      "hit": false,
      "t": 70471.5,
      "d": 60,
      "v": 57
    },
    {
      "midi": 65,
      "hit": false,
      "t": 70474.5,
      "d": 35.5,
      "v": 59
    },
    {
      "midi": 72,
      "hit": false,
      "t": 70482,
      "d": 33.5,
      "v": 46
    },
    {
      "midi": 61,
      "hit": false,
      "t": 70483.5,
      "d": 926.5,
      "v": 61
    },
    {
      "midi": 69,
      "hit": false,
      "t": 70490,
      "d": 30,
      "v": 37
    },
    {
      "midi": 74,
      "hit": false,
      "t": 70994,
      "d": 108,
      "v": 57
    },
    {
      "midi": 65,
      "hit": false,
      "t": 70999.5,
      "d": 72,
      "v": 49
    },
    {
      "midi": 69,
      "hit": false,
      "t": 71009,
      "d": 37,
      "v": 33
    },
    {
      "midi": 73,
      "hit": false,
      "t": 71206.5,
      "d": 160.5,
      "v": 33
    },
    {
      "midi": 74,
      "hit": false,
      "t": 71434,
      "d": 170,
      "v": 57
    },
    {
      "midi": 65,
      "hit": false,
      "t": 71449,
      "d": 212,
      "v": 38
    },
    {
      "midi": 60,
      "hit": false,
      "t": 71452,
      "d": 113,
      "v": 25
    },
    {
      "midi": 69,
      "hit": false,
      "t": 71467.5,
      "d": 149.5,
      "v": 32
    },
    {
      "midi": 50,
      "hit": false,
      "t": 71892,
      "d": 59.5,
      "v": 24
    },
    {
      "midi": 53,
      "hit": false,
      "t": 72156,
      "d": 401,
      "v": 35
    },
    {
      "midi": 62,
      "hit": false,
      "t": 72157,
      "d": 1373.5,
      "v": 40
    },
    {
      "midi": 43,
      "hit": false,
      "t": 72171.5,
      "d": 1617.5,
      "v": 26
    },
    {
      "midi": 57,
      "hit": false,
      "t": 72175.5,
      "d": 411,
      "v": 27
    },
    {
      "midi": 59,
      "hit": false,
      "t": 72176,
      "d": 533,
      "v": 40
    },
    {
      "midi": 50,
      "hit": false,
      "t": 72184,
      "d": 444,
      "v": 16
    },
    {
      "midi": 56,
      "hit": false,
      "t": 72902,
      "d": 545.5,
      "v": 52
    },
    {
      "midi": 53,
      "hit": false,
      "t": 72910,
      "d": 328,
      "v": 40
    },
    {
      "midi": 54,
      "hit": false,
      "t": 72932,
      "d": 334.5,
      "v": 34
    },
    {
      "midi": 56,
      "hit": false,
      "t": 73668,
      "d": 226,
      "v": 42
    },
    {
      "midi": 59,
      "hit": false,
      "t": 73677,
      "d": 274.5,
      "v": 41
    },
    {
      "midi": 53,
      "hit": false,
      "t": 73690,
      "d": 208.5,
      "v": 25
    },
    {
      "midi": 57,
      "hit": false,
      "t": 74161,
      "d": 83,
      "v": 32
    },
    {
      "midi": 57,
      "hit": false,
      "t": 74410,
      "d": 480.5,
      "v": 30
    },
    {
      "midi": 50,
      "hit": false,
      "t": 74413,
      "d": 1190,
      "v": 40
    },
    {
      "midi": 69,
      "hit": false,
      "t": 74414.5,
      "d": 328,
      "v": 49
    },
    {
      "midi": 64,
      "hit": false,
      "t": 74421,
      "d": 459,
      "v": 44
    },
    {
      "midi": 65,
      "hit": false,
      "t": 74421.5,
      "d": 478.5,
      "v": 44
    },
    {
      "midi": 64,
      "hit": false,
      "t": 74933,
      "d": 246.5,
      "v": 27
    },
    {
      "midi": 69,
      "hit": false,
      "t": 74934.5,
      "d": 261.5,
      "v": 62
    },
    {
      "midi": 57,
      "hit": false,
      "t": 75211.5,
      "d": 317.5,
      "v": 24
    },
    {
      "midi": 70,
      "hit": false,
      "t": 75657,
      "d": 193.5,
      "v": 70
    },
    {
      "midi": 71,
      "hit": false,
      "t": 75910.5,
      "d": 397.5,
      "v": 66
    },
    {
      "midi": 62,
      "hit": false,
      "t": 75925,
      "d": 364,
      "v": 63
    },
    {
      "midi": 67,
      "hit": false,
      "t": 75926,
      "d": 364,
      "v": 59
    },
    {
      "midi": 55,
      "hit": false,
      "t": 75930.5,
      "d": 429,
      "v": 39
    },
    {
      "midi": 47,
      "hit": false,
      "t": 75934,
      "d": 899,
      "v": 36
    },
    {
      "midi": 74,
      "hit": false,
      "t": 76407.5,
      "d": 466.5,
      "v": 70
    },
    {
      "midi": 62,
      "hit": false,
      "t": 76419.5,
      "d": 629.5,
      "v": 44
    },
    {
      "midi": 67,
      "hit": false,
      "t": 76421,
      "d": 427,
      "v": 54
    },
    {
      "midi": 55,
      "hit": false,
      "t": 76711.5,
      "d": 97.5,
      "v": 42
    },
    {
      "midi": 47,
      "hit": false,
      "t": 77429,
      "d": 864,
      "v": 30
    },
    {
      "midi": 40,
      "hit": false,
      "t": 77436,
      "d": 675.5,
      "v": 53
    },
    {
      "midi": 55,
      "hit": false,
      "t": 77446,
      "d": 438,
      "v": 62
    },
    {
      "midi": 64,
      "hit": false,
      "t": 77448,
      "d": 335,
      "v": 59
    },
    {
      "midi": 58,
      "hit": false,
      "t": 77452,
      "d": 415.5,
      "v": 58
    },
    {
      "midi": 62,
      "hit": false,
      "t": 77452.5,
      "d": 414,
      "v": 59
    },
    {
      "midi": 58,
      "hit": false,
      "t": 77932,
      "d": 250,
      "v": 48
    },
    {
      "midi": 64,
      "hit": false,
      "t": 77934.5,
      "d": 461,
      "v": 70
    },
    {
      "midi": 55,
      "hit": false,
      "t": 78206.5,
      "d": 44,
      "v": 40
    },
    {
      "midi": 62,
      "hit": false,
      "t": 78417,
      "d": 103,
      "v": 69
    },
    {
      "midi": 62,
      "hit": false,
      "t": 78930,
      "d": 452,
      "v": 79
    },
    {
      "midi": 76,
      "hit": false,
      "t": 78935.5,
      "d": 667,
      "v": 95
    },
    {
      "midi": 72,
      "hit": false,
      "t": 78937,
      "d": 558.5,
      "v": 96
    },
    {
      "midi": 56,
      "hit": false,
      "t": 78942,
      "d": 601.5,
      "v": 77
    },
    {
      "midi": 67,
      "hit": false,
      "t": 78943.5,
      "d": 482.5,
      "v": 96
    },
    {
      "midi": 74,
      "hit": false,
      "t": 79708,
      "d": 432,
      "v": 55
    },
    {
      "midi": 65,
      "hit": false,
      "t": 79714,
      "d": 409.5,
      "v": 44
    },
    {
      "midi": 70,
      "hit": false,
      "t": 79714.5,
      "d": 527.5,
      "v": 53
    },
    {
      "midi": 61,
      "hit": false,
      "t": 79720,
      "d": 299,
      "v": 51
    },
    {
      "midi": 55,
      "hit": false,
      "t": 79725,
      "d": 317,
      "v": 41
    },
    {
      "midi": 77,
      "hit": false,
      "t": 80490.5,
      "d": 122.5,
      "v": 60
    },
    {
      "midi": 66,
      "hit": false,
      "t": 80494.5,
      "d": 568,
      "v": 53
    },
    {
      "midi": 50,
      "hit": false,
      "t": 80502,
      "d": 2310,
      "v": 40
    },
    {
      "midi": 70,
      "hit": false,
      "t": 80502.5,
      "d": 606.5,
      "v": 55
    },
    {
      "midi": 76,
      "hit": false,
      "t": 80758.5,
      "d": 169.5,
      "v": 68
    },
    {
      "midi": 75,
      "hit": false,
      "t": 80982.5,
      "d": 186.5,
      "v": 55
    },
    {
      "midi": 66,
      "hit": false,
      "t": 81257,
      "d": 449,
      "v": 30
    },
    {
      "midi": 62,
      "hit": false,
      "t": 81266,
      "d": 372,
      "v": 30
    },
    {
      "midi": 74,
      "hit": false,
      "t": 81266.5,
      "d": 365,
      "v": 44
    },
    {
      "midi": 70,
      "hit": false,
      "t": 81274.5,
      "d": 460.5,
      "v": 31
    },
    {
      "midi": 66,
      "hit": false,
      "t": 81784,
      "d": 1272,
      "v": 25
    },
    {
      "midi": 60,
      "hit": false,
      "t": 81788,
      "d": 1200,
      "v": 31
    },
    {
      "midi": 74,
      "hit": false,
      "t": 81799.5,
      "d": 1104.5,
      "v": 47
    },
    {
      "midi": 69,
      "hit": false,
      "t": 81803.5,
      "d": 1124.5,
      "v": 47
    },
    {
      "midi": 57,
      "hit": false,
      "t": 82604,
      "d": 594,
      "v": 38
    },
    {
      "midi": 50,
      "hit": false,
      "t": 83140,
      "d": 82.5,
      "v": 33
    },
    {
      "midi": 44,
      "hit": false,
      "t": 83388,
      "d": 33,
      "v": 23
    },
    {
      "midi": 64,
      "hit": false,
      "t": 83603.5,
      "d": 432,
      "v": 40
    },
    {
      "midi": 59,
      "hit": false,
      "t": 83606.5,
      "d": 503.5,
      "v": 38
    },
    {
      "midi": 53,
      "hit": false,
      "t": 83615.5,
      "d": 375,
      "v": 33
    },
    {
      "midi": 43,
      "hit": false,
      "t": 83618.5,
      "d": 845,
      "v": 33
    },
    {
      "midi": 59,
      "hit": false,
      "t": 84381,
      "d": 403,
      "v": 34
    },
    {
      "midi": 53,
      "hit": false,
      "t": 84387,
      "d": 183.5,
      "v": 29
    },
    {
      "midi": 63,
      "hit": false,
      "t": 84394,
      "d": 540.5,
      "v": 25
    },
    {
      "midi": 58,
      "hit": false,
      "t": 85158.5,
      "d": 65.5,
      "v": 25
    },
    {
      "midi": 62,
      "hit": false,
      "t": 85159.5,
      "d": 124,
      "v": 34
    },
    {
      "midi": 36,
      "hit": false,
      "t": 85161,
      "d": 692,
      "v": 35
    },
    {
      "midi": 43,
      "hit": false,
      "t": 85163.5,
      "d": 773.5,
      "v": 24
    },
    {
      "midi": 52,
      "hit": false,
      "t": 85166.5,
      "d": 392,
      "v": 30
    },
    {
      "midi": 72,
      "hit": false,
      "t": 85475.5,
      "d": 158.5,
      "v": 71
    },
    {
      "midi": 73,
      "hit": false,
      "t": 85666.5,
      "d": 109,
      "v": 67
    },
    {
      "midi": 74,
      "hit": false,
      "t": 85880,
      "d": 101,
      "v": 66
    },
    {
      "midi": 52,
      "hit": false,
      "t": 85904,
      "d": 92,
      "v": 43
    },
    {
      "midi": 77,
      "hit": false,
      "t": 86034,
      "d": 91,
      "v": 35
    },
    {
      "midi": 81,
      "hit": false,
      "t": 86141,
      "d": 94.5,
      "v": 71
    },
    {
      "midi": 84,
      "hit": false,
      "t": 86273,
      "d": 77.5,
      "v": 74
    },
    {
      "midi": 86,
      "hit": false,
      "t": 86429,
      "d": 125.5,
      "v": 80
    },
    {
      "midi": 84,
      "hit": false,
      "t": 86601,
      "d": 141,
      "v": 37
    },
    {
      "midi": 48,
      "hit": false,
      "t": 86626.5,
      "d": 345.5,
      "v": 24
    },
    {
      "midi": 41,
      "hit": false,
      "t": 86639.5,
      "d": 298.5,
      "v": 34
    },
    {
      "midi": 57,
      "hit": false,
      "t": 86646,
      "d": 409.5,
      "v": 40
    },
    {
      "midi": 85,
      "hit": false,
      "t": 86764,
      "d": 62.5,
      "v": 57
    },
    {
      "midi": 86,
      "hit": false,
      "t": 86917,
      "d": 89,
      "v": 60
    },
    {
      "midi": 89,
      "hit": false,
      "t": 87054.5,
      "d": 86.5,
      "v": 68
    },
    {
      "midi": 93,
      "hit": false,
      "t": 87205,
      "d": 81,
      "v": 76
    },
    {
      "midi": 98,
      "hit": false,
      "t": 87334.5,
      "d": 148,
      "v": 85
    },
    {
      "midi": 64,
      "hit": false,
      "t": 87410,
      "d": 456.5,
      "v": 48
    },
    {
      "midi": 60,
      "hit": false,
      "t": 87432,
      "d": 510.5,
      "v": 22
    },
    {
      "midi": 57,
      "hit": false,
      "t": 87434,
      "d": 519,
      "v": 36
    },
    {
      "midi": 53,
      "hit": false,
      "t": 87436,
      "d": 974,
      "v": 31
    },
    {
      "midi": 95,
      "hit": false,
      "t": 87506.5,
      "d": 100,
      "v": 69
    },
    {
      "midi": 96,
      "hit": false,
      "t": 87655,
      "d": 126,
      "v": 75
    },
    {
      "midi": 93,
      "hit": false,
      "t": 87813,
      "d": 97,
      "v": 72
    },
    {
      "midi": 89,
      "hit": false,
      "t": 87979.5,
      "d": 108,
      "v": 43
    },
    {
      "midi": 84,
      "hit": false,
      "t": 88122.5,
      "d": 109.5,
      "v": 53
    },
    {
      "midi": 62,
      "hit": false,
      "t": 88153,
      "d": 142.5,
      "v": 47
    },
    {
      "midi": 60,
      "hit": false,
      "t": 88162,
      "d": 158,
      "v": 25
    },
    {
      "midi": 57,
      "hit": false,
      "t": 88170,
      "d": 183,
      "v": 28
    },
    {
      "midi": 81,
      "hit": false,
      "t": 88318.5,
      "d": 130.5,
      "v": 42
    },
    {
      "midi": 86,
      "hit": false,
      "t": 88458,
      "d": 230,
      "v": 68
    },
    {
      "midi": 79,
      "hit": false,
      "t": 88606.5,
      "d": 94.5,
      "v": 62
    },
    {
      "midi": 48,
      "hit": false,
      "t": 88687.5,
      "d": 229.5,
      "v": 17
    },
    {
      "midi": 81,
      "hit": false,
      "t": 88766.5,
      "d": 111.5,
      "v": 65
    },
    {
      "midi": 50,
      "hit": false,
      "t": 88915.5,
      "d": 403,
      "v": 33
    },
    {
      "midi": 41,
      "hit": false,
      "t": 88938,
      "d": 342,
      "v": 31
    },
    {
      "midi": 77,
      "hit": false,
      "t": 88942,
      "d": 131,
      "v": 35
    },
    {
      "midi": 74,
      "hit": false,
      "t": 89100,
      "d": 117,
      "v": 53
    },
    {
      "midi": 72,
      "hit": false,
      "t": 89276,
      "d": 111.5,
      "v": 50
    },
    {
      "midi": 69,
      "hit": false,
      "t": 89466.5,
      "d": 69,
      "v": 34
    },
    {
      "midi": 70,
      "hit": false,
      "t": 89646,
      "d": 1748.5,
      "v": 55
    },
    {
      "midi": 67,
      "hit": false,
      "t": 89653,
      "d": 605,
      "v": 37
    },
    {
      "midi": 62,
      "hit": false,
      "t": 89660,
      "d": 514.5,
      "v": 62
    },
    {
      "midi": 58,
      "hit": false,
      "t": 89663.5,
      "d": 448.5,
      "v": 49
    },
    {
      "midi": 52,
      "hit": false,
      "t": 89676,
      "d": 495.5,
      "v": 45
    },
    {
      "midi": 67,
      "hit": false,
      "t": 90401.5,
      "d": 421,
      "v": 64
    },
    {
      "midi": 62,
      "hit": false,
      "t": 90409,
      "d": 414.5,
      "v": 59
    },
    {
      "midi": 56,
      "hit": false,
      "t": 90431.5,
      "d": 514.5,
      "v": 54
    },
    {
      "midi": 66,
      "hit": false,
      "t": 91119.5,
      "d": 226.5,
      "v": 45
    },
    {
      "midi": 55,
      "hit": false,
      "t": 91143,
      "d": 212.5,
      "v": 30
    },
    {
      "midi": 61,
      "hit": false,
      "t": 91145,
      "d": 229,
      "v": 36
    },
    {
      "midi": 69,
      "hit": false,
      "t": 91358.5,
      "d": 193,
      "v": 60
    },
    {
      "midi": 70,
      "hit": false,
      "t": 91593,
      "d": 103,
      "v": 77
    },
    {
      "midi": 72,
      "hit": false,
      "t": 91828,
      "d": 204,
      "v": 66
    },
    {
      "midi": 45,
      "hit": false,
      "t": 91843.5,
      "d": 172.5,
      "v": 47
    },
    {
      "midi": 55,
      "hit": false,
      "t": 91853,
      "d": 226.5,
      "v": 38
    },
    {
      "midi": 77,
      "hit": false,
      "t": 92037,
      "d": 147,
      "v": 69
    },
    {
      "midi": 82,
      "hit": false,
      "t": 92204,
      "d": 126.5,
      "v": 78
    },
    {
      "midi": 84,
      "hit": false,
      "t": 92367.5,
      "d": 88,
      "v": 79
    },
    {
      "midi": 82,
      "hit": false,
      "t": 92397,
      "d": 26,
      "v": 26
    },
    {
      "midi": 57,
      "hit": false,
      "t": 92514,
      "d": 1990,
      "v": 38
    },
    {
      "midi": 50,
      "hit": false,
      "t": 92517,
      "d": 1325.5,
      "v": 44
    },
    {
      "midi": 91,
      "hit": false,
      "t": 92544,
      "d": 184,
      "v": 80
    },
    {
      "midi": 88,
      "hit": false,
      "t": 92547.5,
      "d": 129.5,
      "v": 83
    },
    {
      "midi": 90,
      "hit": false,
      "t": 92732,
      "d": 160,
      "v": 64
    },
    {
      "midi": 87,
      "hit": false,
      "t": 92734,
      "d": 163,
      "v": 71
    },
    {
      "midi": 89,
      "hit": false,
      "t": 92928,
      "d": 258.5,
      "v": 68
    },
    {
      "midi": 86,
      "hit": false,
      "t": 92936,
      "d": 245.5,
      "v": 58
    },
    {
      "midi": 88,
      "hit": false,
      "t": 93222.5,
      "d": 169.5,
      "v": 57
    },
    {
      "midi": 62,
      "hit": false,
      "t": 93224,
      "d": 337,
      "v": 53
    },
    {
      "midi": 85,
      "hit": false,
      "t": 93225,
      "d": 153.5,
      "v": 56
    },
    {
      "midi": 89,
      "hit": false,
      "t": 93427.5,
      "d": 132,
      "v": 54
    },
    {
      "midi": 85,
      "hit": false,
      "t": 93906.5,
      "d": 465,
      "v": 64
    },
    {
      "midi": 81,
      "hit": false,
      "t": 93907.5,
      "d": 477.5,
      "v": 56
    },
    {
      "midi": 61,
      "hit": false,
      "t": 93914.5,
      "d": 512,
      "v": 65
    },
    {
      "midi": 50,
      "hit": false,
      "t": 93932,
      "d": 926.5,
      "v": 27
    },
    {
      "midi": 86,
      "hit": false,
      "t": 94386.5,
      "d": 209.5,
      "v": 61
    },
    {
      "midi": 60,
      "hit": false,
      "t": 94646,
      "d": 497.5,
      "v": 26
    },
    {
      "midi": 77,
      "hit": false,
      "t": 94666.5,
      "d": 235.5,
      "v": 27
    },
    {
      "midi": 57,
      "hit": false,
      "t": 94674,
      "d": 455,
      "v": 24
    },
    {
      "midi": 84,
      "hit": false,
      "t": 94678,
      "d": 143,
      "v": 43
    },
    {
      "midi": 50,
      "hit": false,
      "t": 95119.5,
      "d": 84,
      "v": 28
    },
    {
      "midi": 59,
      "hit": false,
      "t": 95407.5,
      "d": 309.5,
      "v": 32
    },
    {
      "midi": 64,
      "hit": false,
      "t": 95410.5,
      "d": 321,
      "v": 36
    },
    {
      "midi": 53,
      "hit": false,
      "t": 95419.5,
      "d": 338.5,
      "v": 44
    },
    {
      "midi": 43,
      "hit": false,
      "t": 95438,
      "d": 274,
      "v": 28
    },
    {
      "midi": 61,
      "hit": false,
      "t": 96106,
      "d": 36,
      "v": 55
    },
    {
      "midi": 63,
      "hit": false,
      "t": 96148,
      "d": 39.5,
      "v": 49
    },
    {
      "midi": 65,
      "hit": false,
      "t": 96174.5,
      "d": 104,
      "v": 51
    },
    {
      "midi": 67,
      "hit": false,
      "t": 96242,
      "d": 111,
      "v": 55
    },
    {
      "midi": 69,
      "hit": false,
      "t": 96313,
      "d": 41,
      "v": 49
    },
    {
      "midi": 71,
      "hit": false,
      "t": 96352,
      "d": 59.5,
      "v": 66
    },
    {
      "midi": 73,
      "hit": false,
      "t": 96406,
      "d": 37.5,
      "v": 46
    },
    {
      "midi": 75,
      "hit": false,
      "t": 96443.5,
      "d": 26.5,
      "v": 33
    },
    {
      "midi": 77,
      "hit": false,
      "t": 96494,
      "d": 67,
      "v": 50
    },
    {
      "midi": 79,
      "hit": false,
      "t": 96563.5,
      "d": 38.5,
      "v": 32
    },
    {
      "midi": 83,
      "hit": false,
      "t": 96638.5,
      "d": 32,
      "v": 32
    },
    {
      "midi": 87,
      "hit": false,
      "t": 96679.5,
      "d": 26.5,
      "v": 51
    },
    {
      "midi": 89,
      "hit": false,
      "t": 96734.5,
      "d": 78.5,
      "v": 62
    },
    {
      "midi": 91,
      "hit": false,
      "t": 96786.5,
      "d": 61,
      "v": 36
    },
    {
      "midi": 93,
      "hit": false,
      "t": 96843.5,
      "d": 31,
      "v": 42
    },
    {
      "midi": 95,
      "hit": false,
      "t": 96870,
      "d": 26,
      "v": 58
    },
    {
      "midi": 101,
      "hit": false,
      "t": 96991.5,
      "d": 63,
      "v": 59
    },
    {
      "midi": 103,
      "hit": false,
      "t": 97034,
      "d": 73.5,
      "v": 46
    },
    {
      "midi": 105,
      "hit": false,
      "t": 97073,
      "d": 61.5,
      "v": 68
    },
    {
      "midi": 107,
      "hit": false,
      "t": 97133,
      "d": 82.5,
      "v": 80
    },
    {
      "midi": 62,
      "hit": false,
      "t": 97551.5,
      "d": 1299,
      "v": 66
    },
    {
      "midi": 60,
      "hit": false,
      "t": 97557,
      "d": 101,
      "v": 68
    },
    {
      "midi": 44,
      "hit": false,
      "t": 97585,
      "d": 681.5,
      "v": 34
    },
    {
      "midi": 54,
      "hit": false,
      "t": 97638.5,
      "d": 478.5,
      "v": 8
    },
    {
      "midi": 64,
      "hit": false,
      "t": 97780,
      "d": 28,
      "v": 36
    },
    {
      "midi": 64,
      "hit": false,
      "t": 97850,
      "d": 201.5,
      "v": 20
    },
    {
      "midi": 50,
      "hit": false,
      "t": 98044,
      "d": 244,
      "v": 20
    },
    {
      "midi": 57,
      "hit": false,
      "t": 98330,
      "d": 248,
      "v": 37
    },
    {
      "midi": 53,
      "hit": false,
      "t": 98350,
      "d": 360,
      "v": 30
    },
    {
      "midi": 58,
      "hit": false,
      "t": 98356,
      "d": 403.5,
      "v": 18
    },
    {
      "midi": 43,
      "hit": false,
      "t": 98358,
      "d": 504,
      "v": 24
    },
    {
      "midi": 57,
      "hit": false,
      "t": 98813,
      "d": 38.5,
      "v": 51
    },
    {
      "midi": 50,
      "hit": false,
      "t": 98826,
      "d": 72.5,
      "v": 47
    },
    {
      "midi": 59,
      "hit": false,
      "t": 99112,
      "d": 148,
      "v": 58
    },
    {
      "midi": 69,
      "hit": false,
      "t": 99114,
      "d": 125,
      "v": 53
    },
    {
      "midi": 53,
      "hit": false,
      "t": 99120,
      "d": 163,
      "v": 34
    },
    {
      "midi": 64,
      "hit": false,
      "t": 99140,
      "d": 153,
      "v": 48
    },
    {
      "midi": 59,
      "hit": false,
      "t": 99337,
      "d": 142.5,
      "v": 53
    },
    {
      "midi": 69,
      "hit": false,
      "t": 99338,
      "d": 135,
      "v": 54
    },
    {
      "midi": 64,
      "hit": false,
      "t": 99344,
      "d": 58.5,
      "v": 54
    },
    {
      "midi": 53,
      "hit": false,
      "t": 99361,
      "d": 202.5,
      "v": 50
    },
    {
      "midi": 52,
      "hit": false,
      "t": 99576,
      "d": 124,
      "v": 44
    },
    {
      "midi": 68,
      "hit": false,
      "t": 99577,
      "d": 137.5,
      "v": 64
    },
    {
      "midi": 59,
      "hit": false,
      "t": 99580,
      "d": 165,
      "v": 33
    },
    {
      "midi": 64,
      "hit": false,
      "t": 99609,
      "d": 83,
      "v": 33
    },
    {
      "midi": 52,
      "hit": false,
      "t": 99784,
      "d": 186,
      "v": 34
    },
    {
      "midi": 68,
      "hit": false,
      "t": 99787.5,
      "d": 189.5,
      "v": 39
    },
    {
      "midi": 59,
      "hit": false,
      "t": 99811.5,
      "d": 93.5,
      "v": 19
    },
    {
      "midi": 59,
      "hit": false,
      "t": 100000,
      "d": 154,
      "v": 46
    },
    {
      "midi": 69,
      "hit": false,
      "t": 100002.5,
      "d": 117,
      "v": 55
    },
    {
      "midi": 64,
      "hit": false,
      "t": 100008,
      "d": 144,
      "v": 41
    },
    {
      "midi": 53,
      "hit": false,
      "t": 100010.5,
      "d": 123.5,
      "v": 48
    },
    {
      "midi": 69,
      "hit": false,
      "t": 100221,
      "d": 81.5,
      "v": 47
    },
    {
      "midi": 59,
      "hit": false,
      "t": 100222.5,
      "d": 35.5,
      "v": 28
    },
    {
      "midi": 53,
      "hit": false,
      "t": 100224,
      "d": 71.5,
      "v": 39
    },
    {
      "midi": 64,
      "hit": false,
      "t": 100225,
      "d": 59,
      "v": 51
    },
    {
      "midi": 72,
      "hit": false,
      "t": 100436,
      "d": 65,
      "v": 68
    },
    {
      "midi": 62,
      "hit": false,
      "t": 100438.5,
      "d": 57,
      "v": 66
    },
    {
      "midi": 67,
      "hit": false,
      "t": 100446,
      "d": 27,
      "v": 56
    },
    {
      "midi": 57,
      "hit": false,
      "t": 100447.5,
      "d": 49.5,
      "v": 38
    },
    {
      "midi": 64,
      "hit": false,
      "t": 100458,
      "d": 27,
      "v": 34
    },
    {
      "midi": 69,
      "hit": false,
      "t": 100662.5,
      "d": 89,
      "v": 60
    },
    {
      "midi": 59,
      "hit": false,
      "t": 100671.5,
      "d": 80.5,
      "v": 49
    },
    {
      "midi": 53,
      "hit": false,
      "t": 100672,
      "d": 156,
      "v": 52
    },
    {
      "midi": 64,
      "hit": false,
      "t": 100678,
      "d": 84,
      "v": 48
    },
    {
      "midi": 68,
      "hit": false,
      "t": 100870.5,
      "d": 154.5,
      "v": 55
    },
    {
      "midi": 52,
      "hit": false,
      "t": 100876,
      "d": 183.5,
      "v": 39
    },
    {
      "midi": 63,
      "hit": false,
      "t": 100894.5,
      "d": 152,
      "v": 43
    },
    {
      "midi": 67,
      "hit": false,
      "t": 101110.5,
      "d": 865.5,
      "v": 45
    },
    {
      "midi": 58,
      "hit": false,
      "t": 101112,
      "d": 808,
      "v": 42
    },
    {
      "midi": 62,
      "hit": false,
      "t": 101114,
      "d": 851,
      "v": 53
    },
    {
      "midi": 43,
      "hit": false,
      "t": 101334.5,
      "d": 104,
      "v": 37
    },
    {
      "midi": 24,
      "hit": false,
      "t": 101827,
      "d": 93,
      "v": 32
    },
    {
      "midi": 72,
      "hit": false,
      "t": 102334.5,
      "d": 209.5,
      "v": 74
    },
    {
      "midi": 61,
      "hit": false,
      "t": 102578,
      "d": 216,
      "v": 34
    },
    {
      "midi": 64,
      "hit": false,
      "t": 102582,
      "d": 189.5,
      "v": 20
    },
    {
      "midi": 58,
      "hit": false,
      "t": 102587.5,
      "d": 232.5,
      "v": 32
    },
    {
      "midi": 69,
      "hit": false,
      "t": 102788,
      "d": 121,
      "v": 49
    },
    {
      "midi": 72,
      "hit": false,
      "t": 103134.5,
      "d": 125,
      "v": 32
    },
    {
      "midi": 58,
      "hit": false,
      "t": 103275.5,
      "d": 64.5,
      "v": 50
    },
    {
      "midi": 75,
      "hit": false,
      "t": 103288,
      "d": 159.5,
      "v": 64
    },
    {
      "midi": 80,
      "hit": false,
      "t": 103473,
      "d": 60,
      "v": 57
    },
    {
      "midi": 84,
      "hit": false,
      "t": 103618.5,
      "d": 101,
      "v": 77
    },
    {
      "midi": 88,
      "hit": false,
      "t": 103783.5,
      "d": 128.5,
      "v": 87
    },
    {
      "midi": 48,
      "hit": false,
      "t": 103914.5,
      "d": 329.5,
      "v": 33
    },
    {
      "midi": 41,
      "hit": false,
      "t": 103916,
      "d": 307.5,
      "v": 33
    },
    {
      "midi": 91,
      "hit": false,
      "t": 103930.5,
      "d": 281,
      "v": 83
    },
    {
      "midi": 57,
      "hit": false,
      "t": 103938.5,
      "d": 381,
      "v": 66
    },
    {
      "midi": 88,
      "hit": false,
      "t": 104134,
      "d": 122,
      "v": 53
    },
    {
      "midi": 89,
      "hit": false,
      "t": 104289.5,
      "d": 154.5,
      "v": 78
    },
    {
      "midi": 84,
      "hit": false,
      "t": 104474.5,
      "d": 200,
      "v": 48
    },
    {
      "midi": 56,
      "hit": false,
      "t": 104624,
      "d": 46.5,
      "v": 37
    },
    {
      "midi": 64,
      "hit": false,
      "t": 104646.5,
      "d": 462.5,
      "v": 39
    },
    {
      "midi": 81,
      "hit": false,
      "t": 104677,
      "d": 226,
      "v": 55
    },
    {
      "midi": 53,
      "hit": false,
      "t": 104678.5,
      "d": 998.5,
      "v": 26
    },
    {
      "midi": 60,
      "hit": false,
      "t": 104686.5,
      "d": 461.5,
      "v": 30
    },
    {
      "midi": 57,
      "hit": false,
      "t": 104714.5,
      "d": 457.5,
      "v": 24
    },
    {
      "midi": 86,
      "hit": false,
      "t": 104902.5,
      "d": 171.5,
      "v": 79
    },
    {
      "midi": 84,
      "hit": false,
      "t": 105126.5,
      "d": 141,
      "v": 74
    },
    {
      "midi": 62,
      "hit": false,
      "t": 105390,
      "d": 191,
      "v": 31
    },
    {
      "midi": 60,
      "hit": false,
      "t": 105407.5,
      "d": 174.5,
      "v": 20
    },
    {
      "midi": 57,
      "hit": false,
      "t": 105414,
      "d": 203,
      "v": 24
    },
    {
      "midi": 82,
      "hit": false,
      "t": 105638,
      "d": 170,
      "v": 77
    },
    {
      "midi": 81,
      "hit": false,
      "t": 105874.5,
      "d": 256,
      "v": 70
    },
    {
      "midi": 72,
      "hit": false,
      "t": 106099.5,
      "d": 268,
      "v": 41
    },
    {
      "midi": 41,
      "hit": false,
      "t": 106113,
      "d": 248,
      "v": 40
    },
    {
      "midi": 50,
      "hit": false,
      "t": 106119.5,
      "d": 277.5,
      "v": 25
    },
    {
      "midi": 79,
      "hit": false,
      "t": 106347.5,
      "d": 178.5,
      "v": 71
    },
    {
      "midi": 77,
      "hit": false,
      "t": 106581,
      "d": 204,
      "v": 62
    },
    {
      "midi": 60,
      "hit": false,
      "t": 106827.5,
      "d": 76.5,
      "v": 30
    },
    {
      "midi": 64,
      "hit": false,
      "t": 106830,
      "d": 33,
      "v": 30
    },
    {
      "midi": 57,
      "hit": false,
      "t": 106838,
      "d": 185.5,
      "v": 30
    },
    {
      "midi": 53,
      "hit": false,
      "t": 106842.5,
      "d": 219.5,
      "v": 24
    },
    {
      "midi": 65,
      "hit": false,
      "t": 106849,
      "d": 405.5,
      "v": 38
    },
    {
      "midi": 74,
      "hit": false,
      "t": 107075.5,
      "d": 175,
      "v": 63
    },
    {
      "midi": 72,
      "hit": false,
      "t": 107307.5,
      "d": 190.5,
      "v": 59
    },
    {
      "midi": 48,
      "hit": false,
      "t": 107534.5,
      "d": 565,
      "v": 41
    },
    {
      "midi": 47,
      "hit": false,
      "t": 107536,
      "d": 30.5,
      "v": 46
    },
    {
      "midi": 60,
      "hit": false,
      "t": 107787,
      "d": 283.5,
      "v": 30
    },
    {
      "midi": 67,
      "hit": false,
      "t": 108030,
      "d": 152.5,
      "v": 58
    },
    {
      "midi": 65,
      "hit": false,
      "t": 108274,
      "d": 667,
      "v": 37
    },
    {
      "midi": 48,
      "hit": false,
      "t": 108281,
      "d": 436,
      "v": 36
    },
    {
      "midi": 58,
      "hit": false,
      "t": 108285,
      "d": 461,
      "v": 29
    },
    {
      "midi": 63,
      "hit": false,
      "t": 108299.5,
      "d": 440,
      "v": 47
    },
    {
      "midi": 57,
      "hit": false,
      "t": 109027.5,
      "d": 374.5,
      "v": 37
    },
    {
      "midi": 63,
      "hit": false,
      "t": 109038,
      "d": 704.5,
      "v": 48
    },
    {
      "midi": 45,
      "hit": false,
      "t": 109042.5,
      "d": 613,
      "v": 39
    },
    {
      "midi": 51,
      "hit": false,
      "t": 109044,
      "d": 328,
      "v": 25
    },
    {
      "midi": 61,
      "hit": false,
      "t": 109798.5,
      "d": 163.5,
      "v": 42
    },
    {
      "midi": 58,
      "hit": false,
      "t": 109806.5,
      "d": 120.5,
      "v": 32
    },
    {
      "midi": 46,
      "hit": false,
      "t": 109810,
      "d": 139,
      "v": 30
    },
    {
      "midi": 65,
      "hit": false,
      "t": 110523.5,
      "d": 517.5,
      "v": 36
    },
    {
      "midi": 60,
      "hit": false,
      "t": 110526,
      "d": 672,
      "v": 27
    },
    {
      "midi": 85,
      "hit": false,
      "t": 110529,
      "d": 162.5,
      "v": 57
    },
    {
      "midi": 61,
      "hit": false,
      "t": 110530,
      "d": 1090,
      "v": 34
    },
    {
      "midi": 70,
      "hit": false,
      "t": 110534,
      "d": 160,
      "v": 42
    },
    {
      "midi": 85,
      "hit": false,
      "t": 110818.5,
      "d": 141.5,
      "v": 47
    },
    {
      "midi": 70,
      "hit": false,
      "t": 110836,
      "d": 134.5,
      "v": 35
    },
    {
      "midi": 82,
      "hit": false,
      "t": 111150,
      "d": 65.5,
      "v": 44
    },
    {
      "midi": 65,
      "hit": false,
      "t": 111274.5,
      "d": 297,
      "v": 31
    },
    {
      "midi": 70,
      "hit": false,
      "t": 111290,
      "d": 160.5,
      "v": 58
    },
    {
      "midi": 85,
      "hit": false,
      "t": 111297,
      "d": 133.5,
      "v": 54
    },
    {
      "midi": 58,
      "hit": false,
      "t": 111306.5,
      "d": 377,
      "v": 27
    },
    {
      "midi": 85,
      "hit": false,
      "t": 111544,
      "d": 102.5,
      "v": 38
    },
    {
      "midi": 70,
      "hit": false,
      "t": 111548,
      "d": 101,
      "v": 34
    },
    {
      "midi": 59,
      "hit": false,
      "t": 112033,
      "d": 201,
      "v": 35
    },
    {
      "midi": 49,
      "hit": false,
      "t": 112062,
      "d": 232.5,
      "v": 25
    },
    {
      "midi": 48,
      "hit": false,
      "t": 112553,
      "d": 199.5,
      "v": 32
    },
    {
      "midi": 50,
      "hit": false,
      "t": 112802,
      "d": 294,
      "v": 36
    },
    {
      "midi": 41,
      "hit": false,
      "t": 112807.5,
      "d": 248,
      "v": 38
    },
    {
      "midi": 80,
      "hit": false,
      "t": 113057,
      "d": 278.5,
      "v": 74
    },
    {
      "midi": 88,
      "hit": false,
      "t": 113061,
      "d": 213.5,
      "v": 77
    },
    {
      "midi": 84,
      "hit": false,
      "t": 113290.5,
      "d": 213.5,
      "v": 73
    },
    {
      "midi": 76,
      "hit": false,
      "t": 113301,
      "d": 175,
      "v": 65
    },
    {
      "midi": 80,
      "hit": false,
      "t": 113541,
      "d": 198.5,
      "v": 34
    },
    {
      "midi": 88,
      "hit": false,
      "t": 113544,
      "d": 193,
      "v": 70
    },
    {
      "midi": 64,
      "hit": false,
      "t": 113547.5,
      "d": 266,
      "v": 33
    },
    {
      "midi": 56,
      "hit": false,
      "t": 113563.5,
      "d": 1749.5,
      "v": 43
    },
    {
      "midi": 60,
      "hit": false,
      "t": 113565,
      "d": 477,
      "v": 26
    },
    {
      "midi": 53,
      "hit": false,
      "t": 113569,
      "d": 1442,
      "v": 29
    },
    {
      "midi": 84,
      "hit": false,
      "t": 113789,
      "d": 39,
      "v": 50
    },
    {
      "midi": 76,
      "hit": false,
      "t": 113801,
      "d": 110.5,
      "v": 45
    },
    {
      "midi": 84,
      "hit": false,
      "t": 114034.5,
      "d": 182.5,
      "v": 60
    },
    {
      "midi": 77,
      "hit": false,
      "t": 114052,
      "d": 230.5,
      "v": 61
    },
    {
      "midi": 80,
      "hit": false,
      "t": 114254.5,
      "d": 63.5,
      "v": 42
    },
    {
      "midi": 64,
      "hit": false,
      "t": 114279.5,
      "d": 197.5,
      "v": 48
    },
    {
      "midi": 72,
      "hit": false,
      "t": 114281,
      "d": 89,
      "v": 54
    },
    {
      "midi": 60,
      "hit": false,
      "t": 114285,
      "d": 320.5,
      "v": 31
    },
    {
      "midi": 79,
      "hit": false,
      "t": 114512,
      "d": 149,
      "v": 70
    },
    {
      "midi": 72,
      "hit": false,
      "t": 114522.5,
      "d": 176,
      "v": 77
    },
    {
      "midi": 76,
      "hit": false,
      "t": 114765,
      "d": 82.5,
      "v": 55
    },
    {
      "midi": 68,
      "hit": false,
      "t": 114769,
      "d": 137.5,
      "v": 44
    },
    {
      "midi": 72,
      "hit": false,
      "t": 114790,
      "d": 45.5,
      "v": 33
    },
    {
      "midi": 60,
      "hit": false,
      "t": 114996,
      "d": 255.5,
      "v": 26
    },
    {
      "midi": 68,
      "hit": false,
      "t": 115009,
      "d": 227,
      "v": 34
    },
    {
      "midi": 65,
      "hit": false,
      "t": 115022,
      "d": 141.5,
      "v": 36
    },
    {
      "midi": 53,
      "hit": false,
      "t": 115265.5,
      "d": 97,
      "v": 47
    },
    {
      "midi": 65,
      "hit": false,
      "t": 115272,
      "d": 50,
      "v": 41
    },
    {
      "midi": 55,
      "hit": false,
      "t": 115525,
      "d": 102,
      "v": 47
    },
    {
      "midi": 61,
      "hit": false,
      "t": 115769,
      "d": 527,
      "v": 57
    },
    {
      "midi": 65,
      "hit": false,
      "t": 115778.5,
      "d": 515.5,
      "v": 57
    },
    {
      "midi": 58,
      "hit": false,
      "t": 115786,
      "d": 378,
      "v": 53
    },
    {
      "midi": 70,
      "hit": false,
      "t": 115797,
      "d": 930.5,
      "v": 38
    },
    {
      "midi": 61,
      "hit": false,
      "t": 116514,
      "d": 418,
      "v": 45
    },
    {
      "midi": 65,
      "hit": false,
      "t": 116530,
      "d": 363,
      "v": 45
    },
    {
      "midi": 56,
      "hit": false,
      "t": 116531.5,
      "d": 422.5,
      "v": 36
    },
    {
      "midi": 59,
      "hit": false,
      "t": 117290.5,
      "d": 658.5,
      "v": 37
    },
    {
      "midi": 63,
      "hit": false,
      "t": 117292,
      "d": 671,
      "v": 45
    },
    {
      "midi": 54,
      "hit": false,
      "t": 117301,
      "d": 661.5,
      "v": 27
    },
    {
      "midi": 44,
      "hit": false,
      "t": 117303.5,
      "d": 643,
      "v": 27
    },
    {
      "midi": 63,
      "hit": false,
      "t": 118063,
      "d": 640.5,
      "v": 79
    },
    {
      "midi": 58,
      "hit": false,
      "t": 118065,
      "d": 231.5,
      "v": 72
    },
    {
      "midi": 59,
      "hit": false,
      "t": 118066.5,
      "d": 590.5,
      "v": 79
    },
    {
      "midi": 70,
      "hit": false,
      "t": 118071.5,
      "d": 463,
      "v": 71
    },
    {
      "midi": 65,
      "hit": false,
      "t": 118072,
      "d": 591.5,
      "v": 71
    },
    {
      "midi": 56,
      "hit": false,
      "t": 118084,
      "d": 269,
      "v": 34
    },
    {
      "midi": 68,
      "hit": false,
      "t": 118587.5,
      "d": 154.5,
      "v": 55
    },
    {
      "midi": 70,
      "hit": false,
      "t": 118701,
      "d": 64,
      "v": 63
    },
    {
      "midi": 54,
      "hit": false,
      "t": 118718.5,
      "d": 82.5,
      "v": 39
    },
    {
      "midi": 44,
      "hit": false,
      "t": 118722.5,
      "d": 120,
      "v": 44
    },
    {
      "midi": 50,
      "hit": false,
      "t": 118898.5,
      "d": 332,
      "v": 63
    },
    {
      "midi": 65,
      "hit": false,
      "t": 118900,
      "d": 561,
      "v": 74
    },
    {
      "midi": 43,
      "hit": false,
      "t": 118904,
      "d": 318.5,
      "v": 59
    },
    {
      "midi": 72,
      "hit": false,
      "t": 118906,
      "d": 2919,
      "v": 61
    },
    {
      "midi": 58,
      "hit": false,
      "t": 118929,
      "d": 390.5,
      "v": 40
    },
    {
      "midi": 71,
      "hit": false,
      "t": 118933,
      "d": 1285,
      "v": 33
    },
    {
      "midi": 57,
      "hit": false,
      "t": 119216,
      "d": 221,
      "v": 61
    },
    {
      "midi": 58,
      "hit": false,
      "t": 119471,
      "d": 1011.5,
      "v": 64
    },
    {
      "midi": 62,
      "hit": false,
      "t": 120011.5,
      "d": 187,
      "v": 46
    },
    {
      "midi": 65,
      "hit": false,
      "t": 120238,
      "d": 167,
      "v": 55
    },
    {
      "midi": 64,
      "hit": false,
      "t": 120503.5,
      "d": 604.5,
      "v": 50
    },
    {
      "midi": 68,
      "hit": false,
      "t": 120511.5,
      "d": 711,
      "v": 50
    },
    {
      "midi": 61,
      "hit": false,
      "t": 120758,
      "d": 559.5,
      "v": 49
    },
    {
      "midi": 67,
      "hit": false,
      "t": 121280,
      "d": 527.5,
      "v": 27
    },
    {
      "midi": 64,
      "hit": false,
      "t": 121289,
      "d": 273.5,
      "v": 29
    },
    {
      "midi": 60,
      "hit": false,
      "t": 121290,
      "d": 409.5,
      "v": 28
    },
    {
      "midi": 64,
      "hit": false,
      "t": 121758,
      "d": 52,
      "v": 32
    },
    {
      "midi": 65,
      "hit": false,
      "t": 122059,
      "d": 629,
      "v": 47
    },
    {
      "midi": 68,
      "hit": false,
      "t": 122066,
      "d": 641.5,
      "v": 51
    },
    {
      "midi": 72,
      "hit": false,
      "t": 122067.5,
      "d": 688,
      "v": 42
    },
    {
      "midi": 74,
      "hit": false,
      "t": 122068,
      "d": 688,
      "v": 50
    },
    {
      "midi": 64,
      "hit": false,
      "t": 122332,
      "d": 422,
      "v": 39
    },
    {
      "midi": 74,
      "hit": false,
      "t": 122836,
      "d": 567.5,
      "v": 38
    },
    {
      "midi": 65,
      "hit": false,
      "t": 122837,
      "d": 557.5,
      "v": 53
    },
    {
      "midi": 72,
      "hit": false,
      "t": 122842.5,
      "d": 597.5,
      "v": 40
    },
    {
      "midi": 68,
      "hit": false,
      "t": 122843.5,
      "d": 561.5,
      "v": 50
    },
    {
      "midi": 62,
      "hit": false,
      "t": 122845,
      "d": 370.5,
      "v": 53
    },
    {
      "midi": 61,
      "hit": false,
      "t": 123222,
      "d": 376,
      "v": 81
    },
    {
      "midi": 72,
      "hit": false,
      "t": 123579.5,
      "d": 501.5,
      "v": 55
    },
    {
      "midi": 60,
      "hit": false,
      "t": 123581,
      "d": 842.5,
      "v": 44
    },
    {
      "midi": 74,
      "hit": false,
      "t": 123582.5,
      "d": 686.5,
      "v": 58
    },
    {
      "midi": 65,
      "hit": false,
      "t": 123583.5,
      "d": 608.5,
      "v": 66
    },
    {
      "midi": 68,
      "hit": false,
      "t": 123586,
      "d": 678,
      "v": 57
    },
    {
      "midi": 56,
      "hit": false,
      "t": 123962.5,
      "d": 535.5,
      "v": 62
    },
    {
      "midi": 72,
      "hit": false,
      "t": 124349,
      "d": 511,
      "v": 64
    },
    {
      "midi": 65,
      "hit": false,
      "t": 124365,
      "d": 420,
      "v": 51
    },
    {
      "midi": 68,
      "hit": false,
      "t": 124366,
      "d": 432,
      "v": 45
    },
    {
      "midi": 74,
      "hit": false,
      "t": 124733.5,
      "d": 104.5,
      "v": 54
    },
    {
      "midi": 75,
      "hit": false,
      "t": 125120,
      "d": 357,
      "v": 43
    },
    {
      "midi": 39,
      "hit": false,
      "t": 125122,
      "d": 175,
      "v": 43
    },
    {
      "midi": 54,
      "hit": false,
      "t": 125134.5,
      "d": 263.5,
      "v": 25
    },
    {
      "midi": 66,
      "hit": false,
      "t": 125142,
      "d": 284.5,
      "v": 23
    },
    {
      "midi": 70,
      "hit": false,
      "t": 125142.5,
      "d": 449.5,
      "v": 33
    },
    {
      "midi": 72,
      "hit": false,
      "t": 125474,
      "d": 184.5,
      "v": 62
    },
    {
      "midi": 65,
      "hit": false,
      "t": 125883.5,
      "d": 428.5,
      "v": 48
    },
    {
      "midi": 54,
      "hit": false,
      "t": 125902.5,
      "d": 462.5,
      "v": 30
    },
    {
      "midi": 61,
      "hit": false,
      "t": 125904,
      "d": 468,
      "v": 33
    },
    {
      "midi": 58,
      "hit": false,
      "t": 125915.5,
      "d": 596,
      "v": 37
    },
    {
      "midi": 104,
      "hit": false,
      "t": 126209,
      "d": 105.5,
      "v": 57
    },
    {
      "midi": 106,
      "hit": false,
      "t": 126341,
      "d": 127,
      "v": 70
    },
    {
      "midi": 104,
      "hit": false,
      "t": 126430.5,
      "d": 111.5,
      "v": 55
    },
    {
      "midi": 102,
      "hit": false,
      "t": 126518,
      "d": 72.5,
      "v": 53
    },
    {
      "midi": 101,
      "hit": false,
      "t": 126615.5,
      "d": 50.5,
      "v": 58
    },
    {
      "midi": 60,
      "hit": false,
      "t": 126631.5,
      "d": 240,
      "v": 30
    },
    {
      "midi": 65,
      "hit": false,
      "t": 126641,
      "d": 181,
      "v": 36
    },
    {
      "midi": 54,
      "hit": false,
      "t": 126659.5,
      "d": 271,
      "v": 25
    },
    {
      "midi": 99,
      "hit": false,
      "t": 126740,
      "d": 49.5,
      "v": 52
    },
    {
      "midi": 97,
      "hit": false,
      "t": 126814,
      "d": 56.5,
      "v": 53
    },
    {
      "midi": 96,
      "hit": false,
      "t": 126906,
      "d": 28,
      "v": 30
    },
    {
      "midi": 94,
      "hit": false,
      "t": 127001,
      "d": 88,
      "v": 52
    },
    {
      "midi": 92,
      "hit": false,
      "t": 127054.5,
      "d": 73.5,
      "v": 39
    },
    {
      "midi": 90,
      "hit": false,
      "t": 127117,
      "d": 1440,
      "v": 42
    },
    {
      "midi": 44,
      "hit": false,
      "t": 127378,
      "d": 344.5,
      "v": 29
    },
    {
      "midi": 54,
      "hit": false,
      "t": 127381,
      "d": 387,
      "v": 25
    },
    {
      "midi": 58,
      "hit": false,
      "t": 128028,
      "d": 42,
      "v": 42
    },
    {
      "midi": 59,
      "hit": false,
      "t": 128045.5,
      "d": 52.5,
      "v": 70
    },
    {
      "midi": 75,
      "hit": false,
      "t": 128060.5,
      "d": 590.5,
      "v": 69
    },
    {
      "midi": 66,
      "hit": false,
      "t": 128069.5,
      "d": 372.5,
      "v": 70
    },
    {
      "midi": 69,
      "hit": false,
      "t": 128072,
      "d": 390,
      "v": 72
    },
    {
      "midi": 60,
      "hit": false,
      "t": 128074,
      "d": 722.5,
      "v": 57
    },
    {
      "midi": 72,
      "hit": false,
      "t": 128080,
      "d": 294,
      "v": 63
    },
    {
      "midi": 74,
      "hit": false,
      "t": 128764.5,
      "d": 181.5,
      "v": 57
    },
    {
      "midi": 71,
      "hit": false,
      "t": 128773.5,
      "d": 221.5,
      "v": 64
    },
    {
      "midi": 65,
      "hit": false,
      "t": 128783,
      "d": 241,
      "v": 50
    },
    {
      "midi": 59,
      "hit": false,
      "t": 128799,
      "d": 394.5,
      "v": 38
    },
    {
      "midi": 68,
      "hit": false,
      "t": 128900,
      "d": 156,
      "v": 1
    },
    {
      "midi": 72,
      "hit": false,
      "t": 129379,
      "d": 399,
      "v": 58
    },
    {
      "midi": 63,
      "hit": false,
      "t": 129385,
      "d": 473,
      "v": 42
    },
    {
      "midi": 57,
      "hit": false,
      "t": 129388.5,
      "d": 706.5,
      "v": 36
    },
    {
      "midi": 66,
      "hit": false,
      "t": 129395,
      "d": 480,
      "v": 42
    },
    {
      "midi": 69,
      "hit": false,
      "t": 129405,
      "d": 342,
      "v": 40
    },
    {
      "midi": 70,
      "hit": false,
      "t": 130141,
      "d": 539.5,
      "v": 39
    },
    {
      "midi": 61,
      "hit": false,
      "t": 130143.5,
      "d": 473.5,
      "v": 35
    },
    {
      "midi": 54,
      "hit": false,
      "t": 130151.5,
      "d": 253,
      "v": 30
    },
    {
      "midi": 64,
      "hit": false,
      "t": 130156.5,
      "d": 424,
      "v": 38
    },
    {
      "midi": 67,
      "hit": false,
      "t": 130166,
      "d": 358.5,
      "v": 36
    },
    {
      "midi": 59,
      "hit": false,
      "t": 130762,
      "d": 527.5,
      "v": 42
    },
    {
      "midi": 64,
      "hit": false,
      "t": 130763,
      "d": 498.5,
      "v": 43
    },
    {
      "midi": 69,
      "hit": false,
      "t": 130770,
      "d": 580,
      "v": 45
    },
    {
      "midi": 53,
      "hit": false,
      "t": 130774,
      "d": 391.5,
      "v": 36
    },
    {
      "midi": 43,
      "hit": false,
      "t": 130788,
      "d": 412.5,
      "v": 29
    },
    {
      "midi": 68,
      "hit": false,
      "t": 131536,
      "d": 537.5,
      "v": 49
    },
    {
      "midi": 59,
      "hit": false,
      "t": 131548.5,
      "d": 433,
      "v": 35
    },
    {
      "midi": 37,
      "hit": false,
      "t": 131551,
      "d": 184,
      "v": 32
    },
    {
      "midi": 64,
      "hit": false,
      "t": 131556.5,
      "d": 478.5,
      "v": 36
    },
    {
      "midi": 49,
      "hit": false,
      "t": 131569.5,
      "d": 153.5,
      "v": 20
    },
    {
      "midi": 43,
      "hit": false,
      "t": 132331.5,
      "d": 936.5,
      "v": 20
    },
    {
      "midi": 58,
      "hit": false,
      "t": 132333.5,
      "d": 95,
      "v": 34
    },
    {
      "midi": 36,
      "hit": false,
      "t": 132345.5,
      "d": 772.5,
      "v": 29
    },
    {
      "midi": 67,
      "hit": false,
      "t": 132347,
      "d": 187,
      "v": 33
    },
    {
      "midi": 64,
      "hit": false,
      "t": 132351,
      "d": 188,
      "v": 36
    },
    {
      "midi": 52,
      "hit": false,
      "t": 132352,
      "d": 476.5,
      "v": 38
    },
    {
      "midi": 60,
      "hit": false,
      "t": 132619,
      "d": 140,
      "v": 60
    },
    {
      "midi": 62,
      "hit": false,
      "t": 132874,
      "d": 145,
      "v": 108
    },
    {
      "midi": 65,
      "hit": false,
      "t": 133124,
      "d": 136,
      "v": 90
    },
    {
      "midi": 52,
      "hit": false,
      "t": 133155,
      "d": 192.5,
      "v": 41
    },
    {
      "midi": 68,
      "hit": false,
      "t": 133380.5,
      "d": 228,
      "v": 95
    },
    {
      "midi": 74,
      "hit": false,
      "t": 133388,
      "d": 185.5,
      "v": 83
    },
    {
      "midi": 73,
      "hit": false,
      "t": 133406,
      "d": 32,
      "v": 35
    },
    {
      "midi": 74,
      "hit": false,
      "t": 133641.5,
      "d": 268,
      "v": 57
    },
    {
      "midi": 69,
      "hit": false,
      "t": 133644.5,
      "d": 208,
      "v": 69
    },
    {
      "midi": 48,
      "hit": false,
      "t": 133892.5,
      "d": 546.5,
      "v": 26
    },
    {
      "midi": 41,
      "hit": false,
      "t": 133899,
      "d": 707,
      "v": 31
    },
    {
      "midi": 57,
      "hit": false,
      "t": 133902,
      "d": 389,
      "v": 38
    },
    {
      "midi": 65,
      "hit": false,
      "t": 133932.5,
      "d": 207.5,
      "v": 17
    },
    {
      "midi": 62,
      "hit": false,
      "t": 134170,
      "d": 261,
      "v": 40
    },
    {
      "midi": 65,
      "hit": false,
      "t": 134415,
      "d": 973,
      "v": 55
    },
    {
      "midi": 48,
      "hit": false,
      "t": 134664.5,
      "d": 77,
      "v": 44
    },
    {
      "midi": 50,
      "hit": false,
      "t": 134666,
      "d": 1035.5,
      "v": 43
    },
    {
      "midi": 60,
      "hit": false,
      "t": 135192.5,
      "d": 222.5,
      "v": 25
    },
    {
      "midi": 57,
      "hit": false,
      "t": 135444.5,
      "d": 1045,
      "v": 38
    },
    {
      "midi": 62,
      "hit": false,
      "t": 135452.5,
      "d": 1508,
      "v": 45
    },
    {
      "midi": 48,
      "hit": false,
      "t": 135698,
      "d": 39.5,
      "v": 50
    },
    {
      "midi": 36,
      "hit": false,
      "t": 135980,
      "d": 219,
      "v": 51
    },
    {
      "midi": 38,
      "hit": false,
      "t": 136223,
      "d": 213,
      "v": 45
    },
    {
      "midi": 29,
      "hit": false,
      "t": 136463,
      "d": 73,
      "v": 48
    },
    {
      "midi": 58,
      "hit": false,
      "t": 137022,
      "d": 722,
      "v": 46
    },
    {
      "midi": 55,
      "hit": false,
      "t": 137032.5,
      "d": 633.5,
      "v": 53
    },
    {
      "midi": 40,
      "hit": false,
      "t": 137521.5,
      "d": 224,
      "v": 50
    },
    {
      "midi": 62,
      "hit": false,
      "t": 138284.5,
      "d": 241.5,
      "v": 69
    },
    {
      "midi": 67,
      "hit": false,
      "t": 138287,
      "d": 215,
      "v": 67
    },
    {
      "midi": 56,
      "hit": false,
      "t": 138320.5,
      "d": 237,
      "v": 42
    },
    {
      "midi": 55,
      "hit": false,
      "t": 138602,
      "d": 294,
      "v": 64
    },
    {
      "midi": 66,
      "hit": false,
      "t": 138608,
      "d": 277.5,
      "v": 52
    },
    {
      "midi": 61,
      "hit": false,
      "t": 138608.5,
      "d": 314.5,
      "v": 50
    },
    {
      "midi": 84,
      "hit": false,
      "t": 138854,
      "d": 827.5,
      "v": 68
    },
    {
      "midi": 72,
      "hit": false,
      "t": 138860,
      "d": 820.5,
      "v": 66
    },
    {
      "midi": 45,
      "hit": false,
      "t": 139376.5,
      "d": 87.5,
      "v": 47
    },
    {
      "midi": 81,
      "hit": false,
      "t": 139694,
      "d": 123,
      "v": 66
    },
    {
      "midi": 76,
      "hit": false,
      "t": 139923.5,
      "d": 483.5,
      "v": 35
    },
    {
      "midi": 57,
      "hit": false,
      "t": 140129.5,
      "d": 1519,
      "v": 42
    },
    {
      "midi": 50,
      "hit": false,
      "t": 140134,
      "d": 2328,
      "v": 46
    },
    {
      "midi": 79,
      "hit": false,
      "t": 140387,
      "d": 224,
      "v": 74
    },
    {
      "midi": 76,
      "hit": false,
      "t": 140688.5,
      "d": 466.5,
      "v": 78
    },
    {
      "midi": 61,
      "hit": false,
      "t": 140904,
      "d": 619,
      "v": 60
    },
    {
      "midi": 65,
      "hit": false,
      "t": 141159,
      "d": 696,
      "v": 50
    },
    {
      "midi": 69,
      "hit": false,
      "t": 141160,
      "d": 633.5,
      "v": 54
    },
    {
      "midi": 74,
      "hit": false,
      "t": 141400.5,
      "d": 505.5,
      "v": 72
    },
    {
      "midi": 60,
      "hit": false,
      "t": 141658,
      "d": 546,
      "v": 36
    },
    {
      "midi": 69,
      "hit": false,
      "t": 141911,
      "d": 529.5,
      "v": 53
    },
    {
      "midi": 57,
      "hit": false,
      "t": 142176,
      "d": 629.5,
      "v": 32
    },
    {
      "midi": 64,
      "hit": false,
      "t": 142453.5,
      "d": 475,
      "v": 43
    },
    {
      "midi": 50,
      "hit": false,
      "t": 142720.5,
      "d": 140,
      "v": 47
    },
    {
      "midi": 60,
      "hit": false,
      "t": 142983,
      "d": 157,
      "v": 34
    },
    {
      "midi": 59,
      "hit": false,
      "t": 143253.5,
      "d": 554.5,
      "v": 38
    },
    {
      "midi": 61,
      "hit": false,
      "t": 143273.5,
      "d": 586.5,
      "v": 49
    },
    {
      "midi": 43,
      "hit": false,
      "t": 143278,
      "d": 773.5,
      "v": 27
    },
    {
      "midi": 53,
      "hit": false,
      "t": 143280.5,
      "d": 473.5,
      "v": 29
    },
    {
      "midi": 50,
      "hit": false,
      "t": 143289.5,
      "d": 451,
      "v": 24
    },
    {
      "midi": 62,
      "hit": false,
      "t": 144053.5,
      "d": 616,
      "v": 55
    },
    {
      "midi": 53,
      "hit": false,
      "t": 144054,
      "d": 587.5,
      "v": 48
    },
    {
      "midi": 61,
      "hit": false,
      "t": 144072,
      "d": 590,
      "v": 38
    },
    {
      "midi": 57,
      "hit": false,
      "t": 144078,
      "d": 537,
      "v": 30
    },
    {
      "midi": 49,
      "hit": false,
      "t": 144081.5,
      "d": 347,
      "v": 37
    },
    {
      "midi": 50,
      "hit": false,
      "t": 144445.5,
      "d": 416,
      "v": 55
    },
    {
      "midi": 60,
      "hit": false,
      "t": 144843,
      "d": 415,
      "v": 46
    },
    {
      "midi": 65,
      "hit": false,
      "t": 144844,
      "d": 416,
      "v": 65
    },
    {
      "midi": 57,
      "hit": false,
      "t": 144844.5,
      "d": 350.5,
      "v": 58
    },
    {
      "midi": 53,
      "hit": false,
      "t": 144851,
      "d": 354,
      "v": 66
    },
    {
      "midi": 62,
      "hit": false,
      "t": 144856,
      "d": 388.5,
      "v": 55
    },
    {
      "midi": 60,
      "hit": false,
      "t": 145598,
      "d": 366.5,
      "v": 34
    },
    {
      "midi": 69,
      "hit": false,
      "t": 145603,
      "d": 362.5,
      "v": 50
    },
    {
      "midi": 64,
      "hit": false,
      "t": 145605.5,
      "d": 406.5,
      "v": 41
    },
    {
      "midi": 57,
      "hit": false,
      "t": 145616,
      "d": 344,
      "v": 36
    },
    {
      "midi": 71,
      "hit": false,
      "t": 146336.5,
      "d": 197.5,
      "v": 46
    },
    {
      "midi": 59,
      "hit": false,
      "t": 146341.5,
      "d": 92,
      "v": 42
    },
    {
      "midi": 64,
      "hit": false,
      "t": 146343,
      "d": 144,
      "v": 42
    },
    {
      "midi": 42,
      "hit": false,
      "t": 146354,
      "d": 218.5,
      "v": 35
    },
    {
      "midi": 52,
      "hit": false,
      "t": 146365.5,
      "d": 244.5,
      "v": 25
    },
    {
      "midi": 83,
      "hit": false,
      "t": 146866,
      "d": 189,
      "v": 94
    },
    {
      "midi": 67,
      "hit": false,
      "t": 147125.5,
      "d": 71.5,
      "v": 54
    },
    {
      "midi": 63,
      "hit": false,
      "t": 147134,
      "d": 110,
      "v": 43
    },
    {
      "midi": 62,
      "hit": false,
      "t": 147144,
      "d": 84.5,
      "v": 25
    },
    {
      "midi": 83,
      "hit": false,
      "t": 147144.5,
      "d": 136,
      "v": 60
    },
    {
      "midi": 75,
      "hit": false,
      "t": 147146,
      "d": 67.5,
      "v": 51
    },
    {
      "midi": 71,
      "hit": false,
      "t": 147151,
      "d": 119,
      "v": 41
    },
    {
      "midi": 83,
      "hit": false,
      "t": 147398,
      "d": 169,
      "v": 54
    },
    {
      "midi": 71,
      "hit": false,
      "t": 147433.5,
      "d": 97.5,
      "v": 18
    },
    {
      "midi": 81,
      "hit": false,
      "t": 147647.5,
      "d": 158.5,
      "v": 60
    },
    {
      "midi": 71,
      "hit": false,
      "t": 147671,
      "d": 41.5,
      "v": 25
    },
    {
      "midi": 83,
      "hit": false,
      "t": 147904.5,
      "d": 1001.5,
      "v": 58
    },
    {
      "midi": 71,
      "hit": false,
      "t": 147911,
      "d": 925,
      "v": 48
    },
    {
      "midi": 75,
      "hit": false,
      "t": 147921.5,
      "d": 944,
      "v": 37
    },
    {
      "midi": 79,
      "hit": false,
      "t": 147927,
      "d": 905.5,
      "v": 35
    },
    {
      "midi": 48,
      "hit": false,
      "t": 148167,
      "d": 77,
      "v": 51
    },
    {
      "midi": 41,
      "hit": false,
      "t": 148399,
      "d": 35,
      "v": 53
    },
    {
      "midi": 67,
      "hit": false,
      "t": 148672,
      "d": 203,
      "v": 65
    },
    {
      "midi": 63,
      "hit": false,
      "t": 148684.5,
      "d": 200,
      "v": 50
    },
    {
      "midi": 62,
      "hit": false,
      "t": 148688.5,
      "d": 212,
      "v": 32
    },
    {
      "midi": 57,
      "hit": false,
      "t": 148702,
      "d": 196,
      "v": 26
    },
    {
      "midi": 62,
      "hit": false,
      "t": 148934,
      "d": 239.5,
      "v": 52
    },
    {
      "midi": 67,
      "hit": false,
      "t": 148936,
      "d": 222,
      "v": 67
    },
    {
      "midi": 57,
      "hit": false,
      "t": 148937.5,
      "d": 266.5,
      "v": 47
    },
    {
      "midi": 63,
      "hit": false,
      "t": 148938,
      "d": 247.5,
      "v": 72
    },
    {
      "midi": 52,
      "hit": false,
      "t": 149440,
      "d": 444.5,
      "v": 82
    },
    {
      "midi": 76,
      "hit": false,
      "t": 149913.5,
      "d": 510.5,
      "v": 81
    },
    {
      "midi": 69,
      "hit": false,
      "t": 149917.5,
      "d": 924.5,
      "v": 85
    },
    {
      "midi": 65,
      "hit": false,
      "t": 149919,
      "d": 957,
      "v": 83
    },
    {
      "midi": 71,
      "hit": false,
      "t": 149922,
      "d": 918.5,
      "v": 74
    },
    {
      "midi": 64,
      "hit": false,
      "t": 149935,
      "d": 865,
      "v": 88
    },
    {
      "midi": 76,
      "hit": false,
      "t": 150531,
      "d": 151,
      "v": 62
    },
    {
      "midi": 76,
      "hit": false,
      "t": 150797,
      "d": 177,
      "v": 62
    },
    {
      "midi": 76,
      "hit": false,
      "t": 151047,
      "d": 517,
      "v": 56
    },
    {
      "midi": 70,
      "hit": false,
      "t": 151050,
      "d": 634.5,
      "v": 53
    },
    {
      "midi": 62,
      "hit": false,
      "t": 151060,
      "d": 450,
      "v": 42
    },
    {
      "midi": 56,
      "hit": false,
      "t": 151061.5,
      "d": 500,
      "v": 48
    },
    {
      "midi": 68,
      "hit": false,
      "t": 151062,
      "d": 644,
      "v": 37
    },
    {
      "midi": 65,
      "hit": false,
      "t": 151069.5,
      "d": 582.5,
      "v": 37
    },
    {
      "midi": 65,
      "hit": false,
      "t": 151864.5,
      "d": 430.5,
      "v": 37
    },
    {
      "midi": 56,
      "hit": false,
      "t": 151868.5,
      "d": 453,
      "v": 37
    },
    {
      "midi": 74,
      "hit": false,
      "t": 151869.5,
      "d": 419,
      "v": 44
    },
    {
      "midi": 68,
      "hit": false,
      "t": 151872.5,
      "d": 645,
      "v": 35
    },
    {
      "midi": 46,
      "hit": false,
      "t": 151879.5,
      "d": 542.5,
      "v": 28
    },
    {
      "midi": 52,
      "hit": false,
      "t": 152413,
      "d": 102,
      "v": 36
    },
    {
      "midi": 73,
      "hit": false,
      "t": 152700.5,
      "d": 333.5,
      "v": 31
    },
    {
      "midi": 61,
      "hit": false,
      "t": 152701.5,
      "d": 280,
      "v": 43
    },
    {
      "midi": 45,
      "hit": false,
      "t": 152712,
      "d": 1067.5,
      "v": 30
    },
    {
      "midi": 55,
      "hit": false,
      "t": 152717.5,
      "d": 502.5,
      "v": 29
    },
    {
      "midi": 67,
      "hit": false,
      "t": 152740,
      "d": 223,
      "v": 28
    },
    {
      "midi": 76,
      "hit": false,
      "t": 153259,
      "d": 369.5,
      "v": 84
    },
    {
      "midi": 69,
      "hit": false,
      "t": 153554,
      "d": 247.5,
      "v": 59
    },
    {
      "midi": 55,
      "hit": false,
      "t": 153570,
      "d": 414,
      "v": 39
    },
    {
      "midi": 45,
      "hit": false,
      "t": 154041.5,
      "d": 68.5,
      "v": 39
    },
    {
      "midi": 62,
      "hit": false,
      "t": 154332.5,
      "d": 498.5,
      "v": 89
    },
    {
      "midi": 57,
      "hit": false,
      "t": 154336.5,
      "d": 1104,
      "v": 80
    },
    {
      "midi": 47,
      "hit": false,
      "t": 154346,
      "d": 1436,
      "v": 65
    },
    {
      "midi": 66,
      "hit": false,
      "t": 154867,
      "d": 218.5,
      "v": 83
    },
    {
      "midi": 67,
      "hit": false,
      "t": 154912.5,
      "d": 91.5,
      "v": 48
    },
    {
      "midi": 62,
      "hit": false,
      "t": 155171,
      "d": 438,
      "v": 62
    },
    {
      "midi": 35,
      "hit": false,
      "t": 155680,
      "d": 140.5,
      "v": 38
    },
    {
      "midi": 63,
      "hit": false,
      "t": 155973.5,
      "d": 175,
      "v": 38
    },
    {
      "midi": 54,
      "hit": false,
      "t": 155976.5,
      "d": 158.5,
      "v": 29
    },
    {
      "midi": 48,
      "hit": false,
      "t": 155987,
      "d": 176,
      "v": 33
    },
    {
      "midi": 57,
      "hit": false,
      "t": 155988,
      "d": 114,
      "v": 29
    },
    {
      "midi": 60,
      "hit": false,
      "t": 155998,
      "d": 115.5,
      "v": 24
    },
    {
      "midi": 55,
      "hit": false,
      "t": 156744.5,
      "d": 49,
      "v": 43
    },
    {
      "midi": 72,
      "hit": false,
      "t": 156783,
      "d": 30.5,
      "v": 55
    },
    {
      "midi": 57,
      "hit": false,
      "t": 156785.5,
      "d": 59,
      "v": 47
    },
    {
      "midi": 66,
      "hit": false,
      "t": 156796,
      "d": 52,
      "v": 37
    },
    {
      "midi": 63,
      "hit": false,
      "t": 156802,
      "d": 62.5,
      "v": 42
    },
    {
      "midi": 48,
      "hit": false,
      "t": 157055,
      "d": 456,
      "v": 49
    },
    {
      "midi": 69,
      "hit": false,
      "t": 157067,
      "d": 416,
      "v": 44
    },
    {
      "midi": 63,
      "hit": false,
      "t": 157072.5,
      "d": 255.5,
      "v": 43
    },
    {
      "midi": 66,
      "hit": false,
      "t": 157079,
      "d": 425.5,
      "v": 40
    },
    {
      "midi": 60,
      "hit": false,
      "t": 157087,
      "d": 199,
      "v": 17
    },
    {
      "midi": 64,
      "hit": false,
      "t": 157568,
      "d": 615,
      "v": 37
    },
    {
      "midi": 57,
      "hit": false,
      "t": 157570,
      "d": 536,
      "v": 27
    },
    {
      "midi": 61,
      "hit": false,
      "t": 157572,
      "d": 580.5,
      "v": 36
    },
    {
      "midi": 49,
      "hit": false,
      "t": 157580,
      "d": 997.5,
      "v": 31
    },
    {
      "midi": 61,
      "hit": false,
      "t": 158376.5,
      "d": 97,
      "v": 34
    },
    {
      "midi": 57,
      "hit": false,
      "t": 158377.5,
      "d": 46.5,
      "v": 24
    },
    {
      "midi": 85,
      "hit": false,
      "t": 158895,
      "d": 148,
      "v": 87
    },
    {
      "midi": 73,
      "hit": false,
      "t": 158896.5,
      "d": 128,
      "v": 88
    },
    {
      "midi": 79,
      "hit": false,
      "t": 158908.5,
      "d": 27.5,
      "v": 73
    },
    {
      "midi": 85,
      "hit": false,
      "t": 159115,
      "d": 200,
      "v": 51
    },
    {
      "midi": 73,
      "hit": false,
      "t": 159133,
      "d": 205,
      "v": 58
    },
    {
      "midi": 64,
      "hit": false,
      "t": 159143,
      "d": 67,
      "v": 57
    },
    {
      "midi": 60,
      "hit": false,
      "t": 159144,
      "d": 65.5,
      "v": 38
    },
    {
      "midi": 79,
      "hit": false,
      "t": 159148.5,
      "d": 81,
      "v": 51
    },
    {
      "midi": 55,
      "hit": false,
      "t": 159160.5,
      "d": 50.5,
      "v": 35
    },
    {
      "midi": 59,
      "hit": false,
      "t": 159161.5,
      "d": 37.5,
      "v": 44
    },
    {
      "midi": 79,
      "hit": false,
      "t": 159367,
      "d": 76,
      "v": 35
    },
    {
      "midi": 86,
      "hit": false,
      "t": 159368,
      "d": 74,
      "v": 48
    },
    {
      "midi": 74,
      "hit": false,
      "t": 159368.5,
      "d": 70.5,
      "v": 50
    },
    {
      "midi": 84,
      "hit": false,
      "t": 159403.5,
      "d": 42,
      "v": 28
    },
    {
      "midi": 86,
      "hit": false,
      "t": 159535,
      "d": 69.5,
      "v": 32
    },
    {
      "midi": 74,
      "hit": false,
      "t": 159539,
      "d": 87,
      "v": 33
    },
    {
      "midi": 83,
      "hit": false,
      "t": 159543,
      "d": 100,
      "v": 37
    },
    {
      "midi": 79,
      "hit": false,
      "t": 159545.5,
      "d": 79,
      "v": 36
    },
    {
      "midi": 86,
      "hit": false,
      "t": 159709.5,
      "d": 110.5,
      "v": 50
    },
    {
      "midi": 74,
      "hit": false,
      "t": 159732,
      "d": 84.5,
      "v": 36
    },
    {
      "midi": 79,
      "hit": false,
      "t": 159743,
      "d": 81,
      "v": 40
    },
    {
      "midi": 64,
      "hit": false,
      "t": 159885,
      "d": 40.5,
      "v": 49
    },
    {
      "midi": 86,
      "hit": false,
      "t": 159892,
      "d": 92,
      "v": 40
    },
    {
      "midi": 60,
      "hit": false,
      "t": 159894,
      "d": 47.5,
      "v": 32
    },
    {
      "midi": 74,
      "hit": false,
      "t": 159910,
      "d": 60,
      "v": 27
    },
    {
      "midi": 79,
      "hit": false,
      "t": 159913.5,
      "d": 38.5,
      "v": 45
    },
    {
      "midi": 55,
      "hit": false,
      "t": 159920.5,
      "d": 57,
      "v": 19
    },
    {
      "midi": 52,
      "hit": false,
      "t": 160128.5,
      "d": 144,
      "v": 70
    },
    {
      "midi": 39,
      "hit": false,
      "t": 160362,
      "d": 156,
      "v": 53
    },
    {
      "midi": 54,
      "hit": false,
      "t": 160634,
      "d": 234.5,
      "v": 59
    },
    {
      "midi": 50,
      "hit": false,
      "t": 160661.5,
      "d": 268.5,
      "v": 29
    },
    {
      "midi": 38,
      "hit": false,
      "t": 160663,
      "d": 214.5,
      "v": 43
    },
    {
      "midi": 62,
      "hit": false,
      "t": 161394,
      "d": 193,
      "v": 49
    },
    {
      "midi": 60,
      "hit": false,
      "t": 161415,
      "d": 159,
      "v": 27
    },
    {
      "midi": 57,
      "hit": false,
      "t": 161416.5,
      "d": 217,
      "v": 30
    },
    {
      "midi": 86,
      "hit": false,
      "t": 161877.5,
      "d": 70,
      "v": 89
    },
    {
      "midi": 74,
      "hit": false,
      "t": 161881.5,
      "d": 80.5,
      "v": 92
    },
    {
      "midi": 74,
      "hit": false,
      "t": 162186,
      "d": 629,
      "v": 62
    },
    {
      "midi": 71,
      "hit": false,
      "t": 162196,
      "d": 630,
      "v": 71
    },
    {
      "midi": 66,
      "hit": false,
      "t": 162196.5,
      "d": 578.5,
      "v": 69
    },
    {
      "midi": 59,
      "hit": false,
      "t": 162207,
      "d": 569,
      "v": 58
    },
    {
      "midi": 50,
      "hit": false,
      "t": 162214,
      "d": 1014.5,
      "v": 45
    },
    {
      "midi": 72,
      "hit": false,
      "t": 162669.5,
      "d": 195,
      "v": 1
    },
    {
      "midi": 58,
      "hit": false,
      "t": 163033.5,
      "d": 578.5,
      "v": 47
    },
    {
      "midi": 66,
      "hit": false,
      "t": 163036.5,
      "d": 483,
      "v": 36
    },
    {
      "midi": 74,
      "hit": false,
      "t": 163041.5,
      "d": 393.5,
      "v": 43
    },
    {
      "midi": 70,
      "hit": false,
      "t": 163050,
      "d": 451.5,
      "v": 33
    },
    {
      "midi": 50,
      "hit": false,
      "t": 163572,
      "d": 474,
      "v": 35
    },
    {
      "midi": 66,
      "hit": false,
      "t": 163852,
      "d": 640,
      "v": 25
    },
    {
      "midi": 69,
      "hit": false,
      "t": 163854,
      "d": 616,
      "v": 42
    },
    {
      "midi": 60,
      "hit": false,
      "t": 163860.5,
      "d": 584,
      "v": 20
    },
    {
      "midi": 63,
      "hit": false,
      "t": 163863,
      "d": 633.5,
      "v": 35
    },
    {
      "midi": 57,
      "hit": false,
      "t": 163867,
      "d": 553.5,
      "v": 31
    },
    {
      "midi": 50,
      "hit": false,
      "t": 164392.5,
      "d": 770.5,
      "v": 38
    },
    {
      "midi": 55,
      "hit": false,
      "t": 164751.5,
      "d": 57,
      "v": 40
    },
    {
      "midi": 56,
      "hit": false,
      "t": 164765.5,
      "d": 60.5,
      "v": 48
    },
    {
      "midi": 57,
      "hit": false,
      "t": 164836.5,
      "d": 96,
      "v": 61
    },
    {
      "midi": 60,
      "hit": false,
      "t": 164997.5,
      "d": 112,
      "v": 74
    },
    {
      "midi": 62,
      "hit": false,
      "t": 165175,
      "d": 157,
      "v": 82
    },
    {
      "midi": 57,
      "hit": false,
      "t": 165343,
      "d": 142,
      "v": 55
    },
    {
      "midi": 43,
      "hit": false,
      "t": 165580.5,
      "d": 978.5,
      "v": 32
    },
    {
      "midi": 57,
      "hit": false,
      "t": 165582,
      "d": 276,
      "v": 44
    },
    {
      "midi": 50,
      "hit": false,
      "t": 165600.5,
      "d": 272,
      "v": 32
    },
    {
      "midi": 53,
      "hit": false,
      "t": 165713,
      "d": 104.5,
      "v": 17
    },
    {
      "midi": 53,
      "hit": false,
      "t": 165884.5,
      "d": 219.5,
      "v": 44
    },
    {
      "midi": 58,
      "hit": false,
      "t": 165920,
      "d": 222,
      "v": 52
    },
    {
      "midi": 56,
      "hit": false,
      "t": 165933.5,
      "d": 184,
      "v": 21
    },
    {
      "midi": 53,
      "hit": false,
      "t": 166193.5,
      "d": 232.5,
      "v": 49
    },
    {
      "midi": 59,
      "hit": false,
      "t": 166201.5,
      "d": 268,
      "v": 54
    },
    {
      "midi": 50,
      "hit": false,
      "t": 166206,
      "d": 374,
      "v": 29
    },
    {
      "midi": 74,
      "hit": false,
      "t": 166724,
      "d": 115,
      "v": 84
    },
    {
      "midi": 74,
      "hit": false,
      "t": 166938,
      "d": 130,
      "v": 81
    },
    {
      "midi": 74,
      "hit": false,
      "t": 167144,
      "d": 620,
      "v": 49
    },
    {
      "midi": 64,
      "hit": false,
      "t": 167155,
      "d": 185.5,
      "v": 41
    },
    {
      "midi": 69,
      "hit": false,
      "t": 167158,
      "d": 558,
      "v": 54
    },
    {
      "midi": 65,
      "hit": false,
      "t": 167160.5,
      "d": 566.5,
      "v": 42
    },
    {
      "midi": 63,
      "hit": false,
      "t": 167350,
      "d": 166,
      "v": 40
    },
    {
      "midi": 62,
      "hit": false,
      "t": 167556.5,
      "d": 151.5,
      "v": 43
    },
    {
      "midi": 61,
      "hit": false,
      "t": 167740.5,
      "d": 207.5,
      "v": 51
    },
    {
      "midi": 74,
      "hit": false,
      "t": 167935,
      "d": 456,
      "v": 46
    },
    {
      "midi": 65,
      "hit": false,
      "t": 167940,
      "d": 624,
      "v": 42
    },
    {
      "midi": 69,
      "hit": false,
      "t": 167943,
      "d": 556,
      "v": 45
    },
    {
      "midi": 60,
      "hit": false,
      "t": 167968,
      "d": 621.5,
      "v": 24
    },
    {
      "midi": 73,
      "hit": false,
      "t": 168432.5,
      "d": 197,
      "v": 49
    },
    {
      "midi": 60,
      "hit": false,
      "t": 168694,
      "d": 217,
      "v": 24
    },
    {
      "midi": 50,
      "hit": false,
      "t": 168709.5,
      "d": 341.5,
      "v": 31
    },
    {
      "midi": 69,
      "hit": false,
      "t": 168713.5,
      "d": 195,
      "v": 37
    },
    {
      "midi": 74,
      "hit": false,
      "t": 168714,
      "d": 202.5,
      "v": 41
    },
    {
      "midi": 57,
      "hit": false,
      "t": 168728,
      "d": 226,
      "v": 28
    },
    {
      "midi": 65,
      "hit": false,
      "t": 168768.5,
      "d": 181.5,
      "v": 10
    },
    {
      "midi": 62,
      "hit": false,
      "t": 169240.5,
      "d": 199.5,
      "v": 54
    },
    {
      "midi": 62,
      "hit": false,
      "t": 169523,
      "d": 573,
      "v": 48
    },
    {
      "midi": 53,
      "hit": false,
      "t": 169549.5,
      "d": 499,
      "v": 28
    },
    {
      "midi": 60,
      "hit": false,
      "t": 169553.5,
      "d": 552.5,
      "v": 24
    },
    {
      "midi": 50,
      "hit": false,
      "t": 169561.5,
      "d": 721.5,
      "v": 26
    },
    {
      "midi": 57,
      "hit": false,
      "t": 169566,
      "d": 468,
      "v": 19
    },
    {
      "midi": 43,
      "hit": false,
      "t": 170078,
      "d": 1504,
      "v": 33
    },
    {
      "midi": 53,
      "hit": false,
      "t": 170351.5,
      "d": 612.5,
      "v": 37
    },
    {
      "midi": 60,
      "hit": false,
      "t": 170356.5,
      "d": 700,
      "v": 32
    },
    {
      "midi": 52,
      "hit": false,
      "t": 170360,
      "d": 587,
      "v": 34
    },
    {
      "midi": 57,
      "hit": false,
      "t": 170363,
      "d": 454.5,
      "v": 35
    },
    {
      "midi": 63,
      "hit": false,
      "t": 171501.5,
      "d": 102.5,
      "v": 55
    },
    {
      "midi": 64,
      "hit": false,
      "t": 171752,
      "d": 28.5,
      "v": 29
    },
    {
      "midi": 38,
      "hit": false,
      "t": 172005.5,
      "d": 146.5,
      "v": 35
    },
    {
      "midi": 50,
      "hit": false,
      "t": 172007,
      "d": 195,
      "v": 32
    },
    {
      "midi": 62,
      "hit": false,
      "t": 172008,
      "d": 221.5,
      "v": 41
    },
    {
      "midi": 65,
      "hit": false,
      "t": 172009.5,
      "d": 344.5,
      "v": 46
    },
    {
      "midi": 45,
      "hit": false,
      "t": 172015,
      "d": 150.5,
      "v": 29
    },
    {
      "midi": 57,
      "hit": false,
      "t": 172020,
      "d": 148.5,
      "v": 26
    },
    {
      "midi": 60,
      "hit": false,
      "t": 172862,
      "d": 576,
      "v": 31
    },
    {
      "midi": 57,
      "hit": false,
      "t": 172884,
      "d": 474,
      "v": 26
    },
    {
      "midi": 50,
      "hit": false,
      "t": 172900,
      "d": 453.5,
      "v": 18
    },
    {
      "midi": 53,
      "hit": false,
      "t": 172912.5,
      "d": 441.5,
      "v": 22
    },
    {
      "midi": 69,
      "hit": false,
      "t": 173121.5,
      "d": 172.5,
      "v": 88
    },
    {
      "midi": 70,
      "hit": false,
      "t": 173360.5,
      "d": 173.5,
      "v": 88
    },
    {
      "midi": 71,
      "hit": false,
      "t": 173634,
      "d": 286,
      "v": 92
    },
    {
      "midi": 53,
      "hit": false,
      "t": 173653.5,
      "d": 1111,
      "v": 51
    },
    {
      "midi": 59,
      "hit": false,
      "t": 173655,
      "d": 520.5,
      "v": 55
    },
    {
      "midi": 64,
      "hit": false,
      "t": 173656.5,
      "d": 538.5,
      "v": 49
    },
    {
      "midi": 74,
      "hit": false,
      "t": 173891,
      "d": 1020,
      "v": 88
    },
    {
      "midi": 64,
      "hit": false,
      "t": 174484.5,
      "d": 339.5,
      "v": 28
    },
    {
      "midi": 59,
      "hit": false,
      "t": 174492,
      "d": 248.5,
      "v": 35
    },
    {
      "midi": 76,
      "hit": false,
      "t": 175326,
      "d": 215.5,
      "v": 60
    },
    {
      "midi": 71,
      "hit": false,
      "t": 175332,
      "d": 594,
      "v": 53
    },
    {
      "midi": 64,
      "hit": false,
      "t": 175337.5,
      "d": 492,
      "v": 32
    },
    {
      "midi": 67,
      "hit": false,
      "t": 175341.5,
      "d": 550.5,
      "v": 42
    },
    {
      "midi": 59,
      "hit": false,
      "t": 175350,
      "d": 637,
      "v": 33
    },
    {
      "midi": 76,
      "hit": false,
      "t": 175616.5,
      "d": 195,
      "v": 55
    },
    {
      "midi": 74,
      "hit": false,
      "t": 175841.5,
      "d": 185.5,
      "v": 44
    },
    {
      "midi": 64,
      "hit": false,
      "t": 176147,
      "d": 376,
      "v": 33
    },
    {
      "midi": 67,
      "hit": false,
      "t": 176148.5,
      "d": 509,
      "v": 50
    },
    {
      "midi": 76,
      "hit": false,
      "t": 176151,
      "d": 131,
      "v": 55
    },
    {
      "midi": 71,
      "hit": false,
      "t": 176156,
      "d": 604,
      "v": 44
    },
    {
      "midi": 59,
      "hit": false,
      "t": 176158,
      "d": 388,
      "v": 34
    },
    {
      "midi": 76,
      "hit": false,
      "t": 176464.5,
      "d": 185.5,
      "v": 61
    },
    {
      "midi": 74,
      "hit": false,
      "t": 176708.5,
      "d": 189.5,
      "v": 45
    },
    {
      "midi": 68,
      "hit": false,
      "t": 177130,
      "d": 894,
      "v": 44
    },
    {
      "midi": 62,
      "hit": false,
      "t": 177135,
      "d": 572,
      "v": 38
    },
    {
      "midi": 72,
      "hit": false,
      "t": 177137.5,
      "d": 526,
      "v": 52
    },
    {
      "midi": 76,
      "hit": false,
      "t": 177140,
      "d": 428.5,
      "v": 60
    },
    {
      "midi": 56,
      "hit": false,
      "t": 177144,
      "d": 839,
      "v": 39
    },
    {
      "midi": 74,
      "hit": false,
      "t": 177710,
      "d": 209,
      "v": 44
    },
    {
      "midi": 61,
      "hit": false,
      "t": 178252.5,
      "d": 765.5,
      "v": 36
    },
    {
      "midi": 67,
      "hit": false,
      "t": 178269.5,
      "d": 500.5,
      "v": 35
    },
    {
      "midi": 76,
      "hit": false,
      "t": 178272.5,
      "d": 374.5,
      "v": 40
    },
    {
      "midi": 55,
      "hit": false,
      "t": 178293.5,
      "d": 988,
      "v": 33
    },
    {
      "midi": 77,
      "hit": false,
      "t": 179063,
      "d": 333,
      "v": 48
    },
    {
      "midi": 77,
      "hit": false,
      "t": 179910,
      "d": 192,
      "v": 65
    },
    {
      "midi": 66,
      "hit": false,
      "t": 179919.5,
      "d": 494,
      "v": 48
    },
    {
      "midi": 57,
      "hit": false,
      "t": 179921.5,
      "d": 630.5,
      "v": 35
    },
    {
      "midi": 50,
      "hit": false,
      "t": 179928,
      "d": 1463,
      "v": 39
    },
    {
      "midi": 70,
      "hit": false,
      "t": 179929.5,
      "d": 640.5,
      "v": 52
    },
    {
      "midi": 72,
      "hit": false,
      "t": 179941.5,
      "d": 287,
      "v": 44
    },
    {
      "midi": 75,
      "hit": false,
      "t": 179971,
      "d": 181.5,
      "v": 26
    },
    {
      "midi": 76,
      "hit": false,
      "t": 180195,
      "d": 181.5,
      "v": 80
    },
    {
      "midi": 75,
      "hit": false,
      "t": 180441.5,
      "d": 200.5,
      "v": 60
    },
    {
      "midi": 74,
      "hit": false,
      "t": 180808,
      "d": 2573.5,
      "v": 54
    },
    {
      "midi": 62,
      "hit": false,
      "t": 180810,
      "d": 478,
      "v": 40
    },
    {
      "midi": 66,
      "hit": false,
      "t": 180812,
      "d": 1676,
      "v": 29
    },
    {
      "midi": 57,
      "hit": false,
      "t": 180815,
      "d": 491,
      "v": 24
    },
    {
      "midi": 70,
      "hit": false,
      "t": 180823.5,
      "d": 1853,
      "v": 45
    },
    {
      "midi": 38,
      "hit": false,
      "t": 182837.5,
      "d": 119,
      "v": 31
    },
    {
      "midi": 69,
      "hit": false,
      "t": 182842,
      "d": 725,
      "v": 34
    },
    {
      "midi": 66,
      "hit": false,
      "t": 182846.5,
      "d": 790,
      "v": 19
    },
    {
      "midi": 50,
      "hit": false,
      "t": 182851,
      "d": 228,
      "v": 18
    },
    {
      "midi": 43,
      "hit": false,
      "t": 183702,
      "d": 2521,
      "v": 37
    },
    {
      "midi": 50,
      "hit": false,
      "t": 183792,
      "d": 2509.5,
      "v": 25
    },
    {
      "midi": 59,
      "hit": false,
      "t": 183840.5,
      "d": 571.5,
      "v": 66
    },
    {
      "midi": 69,
      "hit": false,
      "t": 183847,
      "d": 602.5,
      "v": 78
    },
    {
      "midi": 74,
      "hit": false,
      "t": 183848,
      "d": 2756.5,
      "v": 74
    },
    {
      "midi": 65,
      "hit": false,
      "t": 183849.5,
      "d": 685.5,
      "v": 79
    },
    {
      "midi": 68,
      "hit": false,
      "t": 184739,
      "d": 1459,
      "v": 48
    },
    {
      "midi": 65,
      "hit": false,
      "t": 184744,
      "d": 1444.5,
      "v": 54
    },
    {
      "midi": 59,
      "hit": false,
      "t": 184759,
      "d": 1691,
      "v": 45
    },
    {
      "midi": 67,
      "hit": false,
      "t": 186476.5,
      "d": 273.5,
      "v": 46
    },
    {
      "midi": 43,
      "hit": false,
      "t": 187656,
      "d": 136,
      "v": 35
    },
    {
      "midi": 50,
      "hit": false,
      "t": 187768,
      "d": 3134,
      "v": 55
    },
    {
      "midi": 62,
      "hit": false,
      "t": 187773.5,
      "d": 102.5,
      "v": 42
    },
    {
      "midi": 64,
      "hit": false,
      "t": 187836.5,
      "d": 118.5,
      "v": 38
    },
    {
      "midi": 58,
      "hit": false,
      "t": 187941.5,
      "d": 2902.5,
      "v": 60
    },
    {
      "midi": 69,
      "hit": false,
      "t": 187949.5,
      "d": 143.5,
      "v": 29
    },
    {
      "midi": 74,
      "hit": false,
      "t": 187980,
      "d": 3178,
      "v": 70
    },
    {
      "midi": 68,
      "hit": false,
      "t": 188890,
      "d": 2044,
      "v": 54
    },
    {
      "midi": 67,
      "hit": false,
      "t": 191074,
      "d": 582.5,
      "v": 43
    },
    {
      "midi": 66,
      "hit": false,
      "t": 192470,
      "d": 681,
      "v": 29
    },
    {
      "midi": 57,
      "hit": false,
      "t": 192476.5,
      "d": 434.5,
      "v": 28
    },
    {
      "midi": 62,
      "hit": false,
      "t": 192477.5,
      "d": 487,
      "v": 40
    },
    {
      "midi": 38,
      "hit": false,
      "t": 192489.5,
      "d": 573.5,
      "v": 30
    },
    {
      "midi": 26,
      "hit": false,
      "t": 192504.5,
      "d": 519.5,
      "v": 36
    },
    {
      "midi": 102,
      "hit": false,
      "t": 194244.5,
      "d": 127.5,
      "v": 38
    },
    {
      "midi": 86,
      "hit": false,
      "t": 194258,
      "d": 86.5,
      "v": 45
    },
    {
      "midi": 93,
      "hit": false,
      "t": 194262,
      "d": 77,
      "v": 29
    },
    {
      "midi": 98,
      "hit": false,
      "t": 194265.5,
      "d": 88,
      "v": 48
    }
  ]
}