{
  "jsonPath": "Jazz/Cool Jazz/Art Tatum/its-the-talk-of-the-town.json",
  "path": "Jazz\\Cool Jazz\\Art Tatum\\Its The Talk Of The Town.mid",
  "name": "Its The Talk Of The Town",
  "difficulty": "Advanced",
  "bpm": 120,
  "notes": [
    {
      "midi": 84,
      "hit": false,
      "t": 0,
      "d": 72.91666666666667,
      "v": 63
    },
    {
      "midi": 88,
      "hit": false,
      "t": 187.50000000000003,
      "d": 380.20833333333337,
      "v": 62
    },
    {
      "midi": 76,
      "hit": false,
      "t": 192.70833333333337,
      "d": 317.7083333333333,
      "v": 51
    },
    {
      "midi": 81,
      "hit": false,
      "t": 208.33333333333337,
      "d": 218.75,
      "v": 33
    },
    {
      "midi": 48,
      "hit": false,
      "t": 250.00000000000003,
      "d": 46.87499999999997,
      "v": 19
    },
    {
      "midi": 41,
      "hit": false,
      "t": 270.83333333333337,
      "d": 36.458333333333314,
      "v": 9
    },
    {
      "midi": 84,
      "hit": false,
      "t": 703.125,
      "d": 104.16666666666663,
      "v": 55
    },
    {
      "midi": 62,
      "hit": false,
      "t": 906.25,
      "d": 46.875000000000114,
      "v": 44
    },
    {
      "midi": 60,
      "hit": false,
      "t": 911.4583333333334,
      "d": 72.91666666666674,
      "v": 32
    },
    {
      "midi": 88,
      "hit": false,
      "t": 921.875,
      "d": 203.125,
      "v": 61
    },
    {
      "midi": 76,
      "hit": false,
      "t": 921.875,
      "d": 255.20833333333326,
      "v": 55
    },
    {
      "midi": 84,
      "hit": false,
      "t": 927.0833333333334,
      "d": 182.29166666666663,
      "v": 58
    },
    {
      "midi": 81,
      "hit": false,
      "t": 932.2916666666667,
      "d": 171.875,
      "v": 49
    },
    {
      "midi": 53,
      "hit": false,
      "t": 947.9166666666667,
      "d": 52.08333333333337,
      "v": 26
    },
    {
      "midi": 86,
      "hit": false,
      "t": 1354.1666666666665,
      "d": 656.25,
      "v": 50
    },
    {
      "midi": 80,
      "hit": false,
      "t": 1359.3749999999998,
      "d": 531.25,
      "v": 37
    },
    {
      "midi": 83,
      "hit": false,
      "t": 1369.7916666666665,
      "d": 567.7083333333333,
      "v": 55
    },
    {
      "midi": 74,
      "hit": false,
      "t": 1374.9999999999998,
      "d": 489.58333333333326,
      "v": 29
    },
    {
      "midi": 47,
      "hit": false,
      "t": 1531.2499999999998,
      "d": 104.16666666666652,
      "v": 44
    },
    {
      "midi": 56,
      "hit": false,
      "t": 1536.458333333333,
      "d": 130.20833333333326,
      "v": 27
    },
    {
      "midi": 80,
      "hit": false,
      "t": 2203.125,
      "d": 57.29166666666697,
      "v": 49
    },
    {
      "midi": 62,
      "hit": false,
      "t": 2223.9583333333335,
      "d": 41.66666666666697,
      "v": 20
    },
    {
      "midi": 74,
      "hit": false,
      "t": 2223.9583333333335,
      "d": 41.66666666666697,
      "v": 46
    },
    {
      "midi": 59,
      "hit": false,
      "t": 2223.9583333333335,
      "d": 52.083333333333485,
      "v": 22
    },
    {
      "midi": 56,
      "hit": false,
      "t": 2229.166666666667,
      "d": 93.75,
      "v": 25
    },
    {
      "midi": 53,
      "hit": false,
      "t": 2255.2083333333335,
      "d": 67.70833333333348,
      "v": 24
    },
    {
      "midi": 58,
      "hit": false,
      "t": 2864.5833333333335,
      "d": 250,
      "v": 49
    },
    {
      "midi": 43,
      "hit": false,
      "t": 2869.791666666667,
      "d": 151.04166666666652,
      "v": 39
    },
    {
      "midi": 50,
      "hit": false,
      "t": 2963.541666666667,
      "d": 72.91666666666652,
      "v": 15
    },
    {
      "midi": 51,
      "hit": false,
      "t": 3447.916666666667,
      "d": 36.458333333333485,
      "v": 34
    },
    {
      "midi": 52,
      "hit": false,
      "t": 3489.583333333334,
      "d": 52.083333333333485,
      "v": 55
    },
    {
      "midi": 58,
      "hit": false,
      "t": 3536.458333333334,
      "d": 515.6250000000005,
      "v": 83
    },
    {
      "midi": 62,
      "hit": false,
      "t": 3541.6666666666674,
      "d": 427.08333333333394,
      "v": 84
    },
    {
      "midi": 65,
      "hit": false,
      "t": 3541.6666666666674,
      "d": 489.58333333333394,
      "v": 81
    },
    {
      "midi": 55,
      "hit": false,
      "t": 3546.875000000001,
      "d": 494.79166666666697,
      "v": 95
    },
    {
      "midi": 53,
      "hit": false,
      "t": 3552.0833333333344,
      "d": 140.625,
      "v": 69
    },
    {
      "midi": 43,
      "hit": false,
      "t": 4026.041666666668,
      "d": 62.5,
      "v": 41
    },
    {
      "midi": 61,
      "hit": false,
      "t": 4197.916666666668,
      "d": 197.91666666666606,
      "v": 48
    },
    {
      "midi": 55,
      "hit": false,
      "t": 4203.125000000001,
      "d": 109.375,
      "v": 63
    },
    {
      "midi": 58,
      "hit": false,
      "t": 4203.125000000001,
      "d": 156.25,
      "v": 42
    },
    {
      "midi": 64,
      "hit": false,
      "t": 4218.750000000001,
      "d": 156.25,
      "v": 51
    },
    {
      "midi": 36,
      "hit": false,
      "t": 4229.166666666668,
      "d": 46.875,
      "v": 36
    },
    {
      "midi": 76,
      "hit": false,
      "t": 4708.333333333334,
      "d": 588.541666666667,
      "v": 78
    },
    {
      "midi": 73,
      "hit": false,
      "t": 4713.541666666667,
      "d": 604.166666666667,
      "v": 76
    },
    {
      "midi": 64,
      "hit": false,
      "t": 4713.541666666667,
      "d": 619.791666666667,
      "v": 83
    },
    {
      "midi": 68,
      "hit": false,
      "t": 4713.541666666667,
      "d": 651.041666666667,
      "v": 81
    },
    {
      "midi": 74,
      "hit": false,
      "t": 4739.583333333334,
      "d": 31.25,
      "v": 58
    },
    {
      "midi": 61,
      "hit": false,
      "t": 4890.625000000001,
      "d": 302.08333333333303,
      "v": 44
    },
    {
      "midi": 58,
      "hit": false,
      "t": 4895.833333333334,
      "d": 671.875,
      "v": 34
    },
    {
      "midi": 72,
      "hit": false,
      "t": 5588.541666666667,
      "d": 145.83333333333303,
      "v": 55
    },
    {
      "midi": 67,
      "hit": false,
      "t": 5598.958333333334,
      "d": 177.08333333333303,
      "v": 57
    },
    {
      "midi": 62,
      "hit": false,
      "t": 5598.958333333334,
      "d": 223.95833333333303,
      "v": 44
    },
    {
      "midi": 57,
      "hit": false,
      "t": 5604.166666666667,
      "d": 145.83333333333303,
      "v": 44
    },
    {
      "midi": 41,
      "hit": false,
      "t": 6078.125,
      "d": 989.583333333333,
      "v": 33
    },
    {
      "midi": 67,
      "hit": false,
      "t": 6572.916666666666,
      "d": 145.83333333333303,
      "v": 78
    },
    {
      "midi": 64,
      "hit": false,
      "t": 6578.124999999999,
      "d": 197.91666666666606,
      "v": 70
    },
    {
      "midi": 56,
      "hit": false,
      "t": 6583.333333333332,
      "d": 171.875,
      "v": 69
    },
    {
      "midi": 59,
      "hit": false,
      "t": 6583.333333333332,
      "d": 192.70833333333303,
      "v": 76
    },
    {
      "midi": 65,
      "hit": false,
      "t": 6593.749999999999,
      "d": 125,
      "v": 67
    },
    {
      "midi": 67,
      "hit": false,
      "t": 6807.291666666665,
      "d": 119.79166666666788,
      "v": 68
    },
    {
      "midi": 56,
      "hit": false,
      "t": 6807.291666666665,
      "d": 135.41666666666788,
      "v": 38
    },
    {
      "midi": 64,
      "hit": false,
      "t": 6817.708333333332,
      "d": 67.70833333333394,
      "v": 20
    },
    {
      "midi": 59,
      "hit": false,
      "t": 6828.124999999999,
      "d": 52.08333333333394,
      "v": 27
    },
    {
      "midi": 65,
      "hit": false,
      "t": 6828.124999999999,
      "d": 114.58333333333394,
      "v": 53
    },
    {
      "midi": 52,
      "hit": false,
      "t": 6838.541666666666,
      "d": 46.875,
      "v": 44
    },
    {
      "midi": 65,
      "hit": false,
      "t": 7072.916666666666,
      "d": 604.166666666667,
      "v": 44
    },
    {
      "midi": 58,
      "hit": false,
      "t": 7083.333333333333,
      "d": 333.33333333333394,
      "v": 61
    },
    {
      "midi": 55,
      "hit": false,
      "t": 7104.166666666667,
      "d": 317.70833333333303,
      "v": 50
    },
    {
      "midi": 63,
      "hit": false,
      "t": 7104.166666666667,
      "d": 338.54166666666606,
      "v": 53
    },
    {
      "midi": 48,
      "hit": false,
      "t": 7119.791666666667,
      "d": 598.958333333333,
      "v": 37
    },
    {
      "midi": 63,
      "hit": false,
      "t": 7739.583333333333,
      "d": 395.8333333333321,
      "v": 39
    },
    {
      "midi": 47,
      "hit": false,
      "t": 7744.791666666666,
      "d": 281.2499999999991,
      "v": 36
    },
    {
      "midi": 57,
      "hit": false,
      "t": 7749.999999999999,
      "d": 333.33333333333303,
      "v": 42
    },
    {
      "midi": 61,
      "hit": false,
      "t": 7770.833333333332,
      "d": 328.125,
      "v": 38
    },
    {
      "midi": 58,
      "hit": false,
      "t": 8234.374999999998,
      "d": 197.91666666666788,
      "v": 42
    },
    {
      "midi": 62,
      "hit": false,
      "t": 8239.583333333332,
      "d": 203.125,
      "v": 53
    },
    {
      "midi": 57,
      "hit": false,
      "t": 8260.416666666666,
      "d": 151.04166666666606,
      "v": 46
    },
    {
      "midi": 46,
      "hit": false,
      "t": 8395.833333333332,
      "d": 1114.5833333333321,
      "v": 30
    },
    {
      "midi": 53,
      "hit": false,
      "t": 8406.249999999998,
      "d": 208.33333333333394,
      "v": 29
    },
    {
      "midi": 69,
      "hit": false,
      "t": 8651.041666666666,
      "d": 395.8333333333321,
      "v": 62
    },
    {
      "midi": 57,
      "hit": false,
      "t": 8661.458333333332,
      "d": 281.25,
      "v": 68
    },
    {
      "midi": 61,
      "hit": false,
      "t": 8661.458333333332,
      "d": 343.75,
      "v": 56
    },
    {
      "midi": 64,
      "hit": false,
      "t": 8677.083333333332,
      "d": 250,
      "v": 69
    },
    {
      "midi": 53,
      "hit": false,
      "t": 8718.749999999998,
      "d": 765.625,
      "v": 37
    },
    {
      "midi": 57,
      "hit": false,
      "t": 9124.999999999998,
      "d": 213.54166666666788,
      "v": 38
    },
    {
      "midi": 69,
      "hit": false,
      "t": 9145.833333333332,
      "d": 281.25,
      "v": 52
    },
    {
      "midi": 62,
      "hit": false,
      "t": 9151.041666666666,
      "d": 229.16666666666606,
      "v": 58
    },
    {
      "midi": 65,
      "hit": false,
      "t": 9151.041666666666,
      "d": 265.625,
      "v": 65
    },
    {
      "midi": 67,
      "hit": false,
      "t": 9583.33333333333,
      "d": 255.20833333333212,
      "v": 33
    },
    {
      "midi": 61,
      "hit": false,
      "t": 9609.374999999996,
      "d": 260.41666666666606,
      "v": 63
    },
    {
      "midi": 51,
      "hit": false,
      "t": 9624.999999999996,
      "d": 161.45833333333212,
      "v": 46
    },
    {
      "midi": 60,
      "hit": false,
      "t": 10114.583333333328,
      "d": 244.79166666666606,
      "v": 41
    },
    {
      "midi": 61,
      "hit": false,
      "t": 10114.583333333328,
      "d": 286.4583333333321,
      "v": 33
    },
    {
      "midi": 55,
      "hit": false,
      "t": 10114.583333333328,
      "d": 291.66666666666606,
      "v": 59
    },
    {
      "midi": 65,
      "hit": false,
      "t": 10124.999999999995,
      "d": 213.54166666666606,
      "v": 58
    },
    {
      "midi": 69,
      "hit": false,
      "t": 10406.249999999995,
      "d": 119.79166666666606,
      "v": 78
    },
    {
      "midi": 70,
      "hit": false,
      "t": 10588.54166666666,
      "d": 98.95833333333394,
      "v": 82
    },
    {
      "midi": 71,
      "hit": false,
      "t": 10760.41666666666,
      "d": 98.95833333333394,
      "v": 80
    },
    {
      "midi": 74,
      "hit": false,
      "t": 10921.874999999995,
      "d": 109.375,
      "v": 82
    },
    {
      "midi": 48,
      "hit": false,
      "t": 11088.54166666666,
      "d": 145.83333333333394,
      "v": 35
    },
    {
      "midi": 72,
      "hit": false,
      "t": 11109.374999999995,
      "d": 932.2916666666679,
      "v": 66
    },
    {
      "midi": 41,
      "hit": false,
      "t": 11119.79166666666,
      "d": 93.75,
      "v": 17
    },
    {
      "midi": 57,
      "hit": false,
      "t": 11124.999999999995,
      "d": 161.45833333333394,
      "v": 25
    },
    {
      "midi": 53,
      "hit": false,
      "t": 11781.249999999995,
      "d": 161.45833333333394,
      "v": 30
    },
    {
      "midi": 62,
      "hit": false,
      "t": 11796.874999999995,
      "d": 192.70833333333394,
      "v": 27
    },
    {
      "midi": 57,
      "hit": false,
      "t": 11807.29166666666,
      "d": 114.58333333333394,
      "v": 24
    },
    {
      "midi": 60,
      "hit": false,
      "t": 11812.499999999995,
      "d": 130.20833333333394,
      "v": 19
    },
    {
      "midi": 57,
      "hit": false,
      "t": 12489.583333333328,
      "d": 364.58333333333576,
      "v": 57
    },
    {
      "midi": 73,
      "hit": false,
      "t": 12489.583333333328,
      "d": 447.9166666666697,
      "v": 76
    },
    {
      "midi": 66,
      "hit": false,
      "t": 12494.791666666662,
      "d": 484.3750000000018,
      "v": 64
    },
    {
      "midi": 76,
      "hit": false,
      "t": 12494.791666666662,
      "d": 557.2916666666679,
      "v": 81
    },
    {
      "midi": 69,
      "hit": false,
      "t": 12499.999999999996,
      "d": 317.70833333333394,
      "v": 87
    },
    {
      "midi": 62,
      "hit": false,
      "t": 12505.20833333333,
      "d": 411.45833333333394,
      "v": 45
    },
    {
      "midi": 74,
      "hit": false,
      "t": 13171.874999999996,
      "d": 348.95833333333394,
      "v": 71
    },
    {
      "midi": 67,
      "hit": false,
      "t": 13177.08333333333,
      "d": 260.4166666666679,
      "v": 54
    },
    {
      "midi": 70,
      "hit": false,
      "t": 13177.08333333333,
      "d": 369.79166666666606,
      "v": 64
    },
    {
      "midi": 62,
      "hit": false,
      "t": 13182.291666666664,
      "d": 265.625,
      "v": 57
    },
    {
      "midi": 56,
      "hit": false,
      "t": 13197.916666666664,
      "d": 1088.541666666666,
      "v": 39
    },
    {
      "midi": 65,
      "hit": false,
      "t": 13843.749999999996,
      "d": 427.08333333333394,
      "v": 54
    },
    {
      "midi": 70,
      "hit": false,
      "t": 13854.166666666662,
      "d": 1182.2916666666679,
      "v": 59
    },
    {
      "midi": 60,
      "hit": false,
      "t": 13885.416666666662,
      "d": 244.79166666666788,
      "v": 39
    },
    {
      "midi": 61,
      "hit": false,
      "t": 13885.416666666662,
      "d": 416.6666666666679,
      "v": 37
    },
    {
      "midi": 65,
      "hit": false,
      "t": 14499.999999999996,
      "d": 390.625,
      "v": 51
    },
    {
      "midi": 61,
      "hit": false,
      "t": 14505.20833333333,
      "d": 447.91666666666606,
      "v": 30
    },
    {
      "midi": 55,
      "hit": false,
      "t": 14515.624999999996,
      "d": 109.375,
      "v": 40
    },
    {
      "midi": 45,
      "hit": false,
      "t": 14942.70833333333,
      "d": 260.4166666666679,
      "v": 48
    },
    {
      "midi": 64,
      "hit": false,
      "t": 15166.666666666664,
      "d": 177.08333333333394,
      "v": 41
    },
    {
      "midi": 55,
      "hit": false,
      "t": 15171.874999999998,
      "d": 156.25,
      "v": 41
    },
    {
      "midi": 60,
      "hit": false,
      "t": 15171.874999999998,
      "d": 161.45833333333394,
      "v": 31
    },
    {
      "midi": 54,
      "hit": false,
      "t": 15593.749999999998,
      "d": 390.6250000000018,
      "v": 68
    },
    {
      "midi": 60,
      "hit": false,
      "t": 15817.708333333332,
      "d": 166.66666666666788,
      "v": 60
    },
    {
      "midi": 68,
      "hit": false,
      "t": 15838.541666666666,
      "d": 328.125,
      "v": 49
    },
    {
      "midi": 64,
      "hit": false,
      "t": 15838.541666666666,
      "d": 348.95833333333394,
      "v": 51
    },
    {
      "midi": 50,
      "hit": false,
      "t": 16239.583333333334,
      "d": 218.75000000000182,
      "v": 60
    },
    {
      "midi": 69,
      "hit": false,
      "t": 16484.375000000004,
      "d": 197.91666666666424,
      "v": 53
    },
    {
      "midi": 53,
      "hit": false,
      "t": 16489.583333333336,
      "d": 36.45833333333212,
      "v": 51
    },
    {
      "midi": 59,
      "hit": false,
      "t": 16489.583333333336,
      "d": 62.5,
      "v": 34
    },
    {
      "midi": 43,
      "hit": false,
      "t": 16489.583333333336,
      "d": 98.95833333333212,
      "v": 41
    },
    {
      "midi": 64,
      "hit": false,
      "t": 16494.791666666668,
      "d": 119.79166666666788,
      "v": 40
    },
    {
      "midi": 65,
      "hit": false,
      "t": 17104.166666666668,
      "d": 437.5,
      "v": 50
    },
    {
      "midi": 60,
      "hit": false,
      "t": 17109.375,
      "d": 385.4166666666679,
      "v": 42
    },
    {
      "midi": 54,
      "hit": false,
      "t": 17109.375,
      "d": 546.875,
      "v": 44
    },
    {
      "midi": 64,
      "hit": false,
      "t": 17723.958333333332,
      "d": 135.4166666666606,
      "v": 55
    },
    {
      "midi": 59,
      "hit": false,
      "t": 17749.999999999996,
      "d": 109.37499999999636,
      "v": 45
    },
    {
      "midi": 53,
      "hit": false,
      "t": 17770.83333333333,
      "d": 161.45833333333212,
      "v": 34
    },
    {
      "midi": 81,
      "hit": false,
      "t": 18020.83333333333,
      "d": 88.54166666666788,
      "v": 68
    },
    {
      "midi": 69,
      "hit": false,
      "t": 18036.45833333333,
      "d": 62.5,
      "v": 49
    },
    {
      "midi": 71,
      "hit": false,
      "t": 18062.499999999996,
      "d": 36.45833333333212,
      "v": 33
    },
    {
      "midi": 81,
      "hit": false,
      "t": 18197.916666666664,
      "d": 93.74999999999636,
      "v": 64
    },
    {
      "midi": 69,
      "hit": false,
      "t": 18203.124999999996,
      "d": 36.45833333333212,
      "v": 65
    },
    {
      "midi": 43,
      "hit": false,
      "t": 18359.374999999993,
      "d": 130.20833333332848,
      "v": 52
    },
    {
      "midi": 86,
      "hit": false,
      "t": 18401.041666666657,
      "d": 124.99999999999636,
      "v": 80
    },
    {
      "midi": 86,
      "hit": false,
      "t": 18614.58333333332,
      "d": 109.375,
      "v": 66
    },
    {
      "midi": 79,
      "hit": false,
      "t": 18807.291666666653,
      "d": 130.20833333333212,
      "v": 64
    },
    {
      "midi": 81,
      "hit": false,
      "t": 18906.249999999985,
      "d": 93.74999999999636,
      "v": 45
    },
    {
      "midi": 57,
      "hit": false,
      "t": 18973.958333333318,
      "d": 260.41666666666424,
      "v": 36
    },
    {
      "midi": 62,
      "hit": false,
      "t": 18984.37499999998,
      "d": 411.4583333333321,
      "v": 34
    },
    {
      "midi": 58,
      "hit": false,
      "t": 18994.79166666665,
      "d": 484.37499999999636,
      "v": 32
    },
    {
      "midi": 79,
      "hit": false,
      "t": 19062.49999999998,
      "d": 364.5833333333321,
      "v": 55
    },
    {
      "midi": 52,
      "hit": false,
      "t": 19416.666666666646,
      "d": 322.91666666666424,
      "v": 48
    },
    {
      "midi": 74,
      "hit": false,
      "t": 19656.249999999978,
      "d": 145.83333333333212,
      "v": 50
    },
    {
      "midi": 62,
      "hit": false,
      "t": 19671.874999999978,
      "d": 41.66666666666424,
      "v": 46
    },
    {
      "midi": 58,
      "hit": false,
      "t": 19677.08333333331,
      "d": 78.125,
      "v": 28
    },
    {
      "midi": 48,
      "hit": false,
      "t": 20052.08333333331,
      "d": 416.66666666666424,
      "v": 64
    },
    {
      "midi": 58,
      "hit": false,
      "t": 20281.249999999978,
      "d": 161.45833333332848,
      "v": 46
    },
    {
      "midi": 70,
      "hit": false,
      "t": 20286.45833333331,
      "d": 208.33333333333212,
      "v": 53
    },
    {
      "midi": 76,
      "hit": false,
      "t": 20291.666666666642,
      "d": 161.45833333333212,
      "v": 41
    },
    {
      "midi": 73,
      "hit": false,
      "t": 20296.874999999975,
      "d": 208.33333333333576,
      "v": 38
    },
    {
      "midi": 64,
      "hit": false,
      "t": 20302.083333333307,
      "d": 218.75000000000364,
      "v": 38
    },
    {
      "midi": 48,
      "hit": false,
      "t": 20703.124999999978,
      "d": 52.08333333333212,
      "v": 58
    },
    {
      "midi": 63,
      "hit": false,
      "t": 21187.499999999975,
      "d": 270.8333333333321,
      "v": 55
    },
    {
      "midi": 58,
      "hit": false,
      "t": 21197.916666666642,
      "d": 223.95833333333212,
      "v": 43
    },
    {
      "midi": 56,
      "hit": false,
      "t": 21203.124999999975,
      "d": 270.8333333333321,
      "v": 49
    },
    {
      "midi": 52,
      "hit": false,
      "t": 21213.541666666642,
      "d": 161.45833333333212,
      "v": 41
    },
    {
      "midi": 42,
      "hit": false,
      "t": 21213.541666666642,
      "d": 312.5,
      "v": 48
    },
    {
      "midi": 49,
      "hit": false,
      "t": 21223.95833333331,
      "d": 276.04166666666424,
      "v": 43
    },
    {
      "midi": 64,
      "hit": false,
      "t": 21677.08333333331,
      "d": 526.0416666666642,
      "v": 55
    },
    {
      "midi": 56,
      "hit": false,
      "t": 21687.499999999978,
      "d": 479.16666666666424,
      "v": 55
    },
    {
      "midi": 52,
      "hit": false,
      "t": 21697.916666666642,
      "d": 354.1666666666679,
      "v": 62
    },
    {
      "midi": 59,
      "hit": false,
      "t": 21703.124999999975,
      "d": 427.08333333333576,
      "v": 56
    },
    {
      "midi": 48,
      "hit": false,
      "t": 21708.333333333307,
      "d": 651.0416666666679,
      "v": 53
    },
    {
      "midi": 41,
      "hit": false,
      "t": 21718.749999999975,
      "d": 828.125,
      "v": 43
    },
    {
      "midi": 62,
      "hit": false,
      "t": 22374.999999999975,
      "d": 546.8750000000036,
      "v": 43
    },
    {
      "midi": 55,
      "hit": false,
      "t": 22390.624999999975,
      "d": 432.2916666666679,
      "v": 40
    },
    {
      "midi": 57,
      "hit": false,
      "t": 22401.041666666642,
      "d": 364.5833333333321,
      "v": 51
    },
    {
      "midi": 60,
      "hit": false,
      "t": 22406.249999999975,
      "d": 390.625,
      "v": 58
    },
    {
      "midi": 50,
      "hit": false,
      "t": 22411.458333333307,
      "d": 421.87500000000364,
      "v": 41
    },
    {
      "midi": 44,
      "hit": false,
      "t": 23057.291666666646,
      "d": 187.50000000000364,
      "v": 47
    },
    {
      "midi": 56,
      "hit": false,
      "t": 23062.499999999978,
      "d": 151.04166666667152,
      "v": 30
    },
    {
      "midi": 59,
      "hit": false,
      "t": 23062.499999999978,
      "d": 151.04166666667152,
      "v": 44
    },
    {
      "midi": 50,
      "hit": false,
      "t": 23072.916666666646,
      "d": 130.20833333333576,
      "v": 17
    },
    {
      "midi": 53,
      "hit": false,
      "t": 23083.333333333314,
      "d": 57.29166666666788,
      "v": 38
    },
    {
      "midi": 74,
      "hit": false,
      "t": 23515.62499999998,
      "d": 208.33333333333212,
      "v": 89
    },
    {
      "midi": 62,
      "hit": false,
      "t": 23723.958333333314,
      "d": 41.66666666666788,
      "v": 35
    },
    {
      "midi": 56,
      "hit": false,
      "t": 23734.37499999998,
      "d": 125,
      "v": 29
    },
    {
      "midi": 65,
      "hit": false,
      "t": 23760.41666666665,
      "d": 41.66666666666788,
      "v": 43
    },
    {
      "midi": 68,
      "hit": false,
      "t": 23911.458333333314,
      "d": 83.33333333333212,
      "v": 60
    },
    {
      "midi": 71,
      "hit": false,
      "t": 24078.124999999978,
      "d": 83.33333333333212,
      "v": 68
    },
    {
      "midi": 74,
      "hit": false,
      "t": 24223.95833333331,
      "d": 135.41666666666788,
      "v": 80
    },
    {
      "midi": 43,
      "hit": false,
      "t": 24390.624999999978,
      "d": 109.375,
      "v": 44
    },
    {
      "midi": 50,
      "hit": false,
      "t": 24406.249999999978,
      "d": 135.41666666666424,
      "v": 35
    },
    {
      "midi": 70,
      "hit": false,
      "t": 24421.874999999978,
      "d": 296.87499999999636,
      "v": 49
    },
    {
      "midi": 62,
      "hit": false,
      "t": 25072.916666666642,
      "d": 52.08333333333576,
      "v": 41
    },
    {
      "midi": 58,
      "hit": false,
      "t": 25083.33333333331,
      "d": 104.16666666666788,
      "v": 33
    },
    {
      "midi": 60,
      "hit": false,
      "t": 25093.749999999978,
      "d": 46.875,
      "v": 35
    },
    {
      "midi": 58,
      "hit": false,
      "t": 25765.624999999978,
      "d": 239.58333333333576,
      "v": 45
    },
    {
      "midi": 48,
      "hit": false,
      "t": 25776.041666666646,
      "d": 140.625,
      "v": 54
    },
    {
      "midi": 58,
      "hit": false,
      "t": 26453.12499999998,
      "d": 286.45833333333576,
      "v": 35
    },
    {
      "midi": 61,
      "hit": false,
      "t": 26453.12499999998,
      "d": 364.58333333333576,
      "v": 48
    },
    {
      "midi": 64,
      "hit": false,
      "t": 26463.54166666665,
      "d": 265.625,
      "v": 24
    },
    {
      "midi": 61,
      "hit": false,
      "t": 27031.249999999985,
      "d": 229.16666666666424,
      "v": 17
    },
    {
      "midi": 62,
      "hit": false,
      "t": 27078.124999999985,
      "d": 93.74999999999636,
      "v": 62
    },
    {
      "midi": 79,
      "hit": false,
      "t": 27130.208333333318,
      "d": 499.99999999999636,
      "v": 90
    },
    {
      "midi": 72,
      "hit": false,
      "t": 27135.41666666665,
      "d": 463.54166666666424,
      "v": 84
    },
    {
      "midi": 69,
      "hit": false,
      "t": 27135.41666666665,
      "d": 473.9583333333321,
      "v": 90
    },
    {
      "midi": 64,
      "hit": false,
      "t": 27135.41666666665,
      "d": 614.5833333333321,
      "v": 80
    },
    {
      "midi": 79,
      "hit": false,
      "t": 27796.87499999998,
      "d": 364.5833333333321,
      "v": 65
    },
    {
      "midi": 62,
      "hit": false,
      "t": 27807.29166666665,
      "d": 192.70833333333212,
      "v": 54
    },
    {
      "midi": 72,
      "hit": false,
      "t": 27807.29166666665,
      "d": 338.54166666666424,
      "v": 66
    },
    {
      "midi": 69,
      "hit": false,
      "t": 27812.49999999998,
      "d": 343.75,
      "v": 64
    },
    {
      "midi": 63,
      "hit": false,
      "t": 28468.74999999998,
      "d": 203.125,
      "v": 49
    },
    {
      "midi": 77,
      "hit": false,
      "t": 28468.74999999998,
      "d": 234.375,
      "v": 68
    },
    {
      "midi": 73,
      "hit": false,
      "t": 28484.37499999998,
      "d": 281.25,
      "v": 52
    },
    {
      "midi": 70,
      "hit": false,
      "t": 28489.583333333314,
      "d": 286.4583333333321,
      "v": 39
    },
    {
      "midi": 67,
      "hit": false,
      "t": 28494.791666666646,
      "d": 276.0416666666679,
      "v": 37
    },
    {
      "midi": 58,
      "hit": false,
      "t": 28505.208333333314,
      "d": 203.125,
      "v": 35
    },
    {
      "midi": 69,
      "hit": false,
      "t": 29145.833333333314,
      "d": 250,
      "v": 55
    },
    {
      "midi": 65,
      "hit": false,
      "t": 29151.041666666646,
      "d": 281.25,
      "v": 55
    },
    {
      "midi": 61,
      "hit": false,
      "t": 29161.458333333314,
      "d": 380.2083333333321,
      "v": 26
    },
    {
      "midi": 57,
      "hit": false,
      "t": 29197.916666666646,
      "d": 328.125,
      "v": 20
    },
    {
      "midi": 46,
      "hit": false,
      "t": 29796.874999999978,
      "d": 218.75,
      "v": 33
    },
    {
      "midi": 57,
      "hit": false,
      "t": 29802.08333333331,
      "d": 140.625,
      "v": 34
    },
    {
      "midi": 65,
      "hit": false,
      "t": 29807.291666666642,
      "d": 203.12500000000364,
      "v": 36
    },
    {
      "midi": 62,
      "hit": false,
      "t": 29817.70833333331,
      "d": 166.66666666666788,
      "v": 38
    },
    {
      "midi": 53,
      "hit": false,
      "t": 29833.33333333331,
      "d": 125,
      "v": 24
    },
    {
      "midi": 69,
      "hit": false,
      "t": 30453.124999999978,
      "d": 98.95833333333576,
      "v": 82
    },
    {
      "midi": 65,
      "hit": false,
      "t": 30479.166666666646,
      "d": 41.66666666666788,
      "v": 39
    },
    {
      "midi": 61,
      "hit": false,
      "t": 30499.999999999978,
      "d": 93.75000000000364,
      "v": 21
    },
    {
      "midi": 60,
      "hit": false,
      "t": 30510.416666666646,
      "d": 41.66666666666788,
      "v": 22
    },
    {
      "midi": 70,
      "hit": false,
      "t": 30630.208333333314,
      "d": 83.33333333333212,
      "v": 57
    },
    {
      "midi": 71,
      "hit": false,
      "t": 30786.458333333314,
      "d": 78.125,
      "v": 60
    },
    {
      "midi": 72,
      "hit": false,
      "t": 30947.916666666646,
      "d": 109.375,
      "v": 68
    },
    {
      "midi": 39,
      "hit": false,
      "t": 31078.124999999978,
      "d": 125,
      "v": 40
    },
    {
      "midi": 46,
      "hit": false,
      "t": 31109.374999999978,
      "d": 739.5833333333321,
      "v": 26
    },
    {
      "midi": 69,
      "hit": false,
      "t": 31140.624999999978,
      "d": 52.08333333333212,
      "v": 36
    },
    {
      "midi": 61,
      "hit": false,
      "t": 31359.374999999978,
      "d": 302.0833333333321,
      "v": 19
    },
    {
      "midi": 61,
      "hit": false,
      "t": 31781.249999999978,
      "d": 421.875,
      "v": 18
    },
    {
      "midi": 65,
      "hit": false,
      "t": 31786.45833333331,
      "d": 250,
      "v": 40
    },
    {
      "midi": 55,
      "hit": false,
      "t": 31786.45833333331,
      "d": 260.4166666666679,
      "v": 38
    },
    {
      "midi": 51,
      "hit": false,
      "t": 32182.291666666646,
      "d": 109.375,
      "v": 37
    },
    {
      "midi": 52,
      "hit": false,
      "t": 32390.624999999978,
      "d": 630.2083333333285,
      "v": 44
    },
    {
      "midi": 67,
      "hit": false,
      "t": 32401.041666666646,
      "d": 604.1666666666606,
      "v": 49
    },
    {
      "midi": 62,
      "hit": false,
      "t": 32406.249999999978,
      "d": 302.0833333333321,
      "v": 41
    },
    {
      "midi": 72,
      "hit": false,
      "t": 32406.249999999978,
      "d": 630.2083333333285,
      "v": 37
    },
    {
      "midi": 41,
      "hit": false,
      "t": 32822.91666666664,
      "d": 151.04166666666424,
      "v": 76
    },
    {
      "midi": 66,
      "hit": false,
      "t": 33744.79166666664,
      "d": 1036.458333333343,
      "v": 81
    },
    {
      "midi": 73,
      "hit": false,
      "t": 33744.79166666664,
      "d": 1057.2916666666788,
      "v": 92
    },
    {
      "midi": 64,
      "hit": false,
      "t": 33749.99999999998,
      "d": 947.9166666666715,
      "v": 72
    },
    {
      "midi": 76,
      "hit": false,
      "t": 33755.208333333314,
      "d": 1005.2083333333358,
      "v": 89
    },
    {
      "midi": 62,
      "hit": false,
      "t": 33760.41666666665,
      "d": 973.9583333333358,
      "v": 68
    },
    {
      "midi": 69,
      "hit": false,
      "t": 33760.41666666665,
      "d": 1067.7083333333358,
      "v": 96
    },
    {
      "midi": 74,
      "hit": false,
      "t": 34682.29166666665,
      "d": 369.7916666666715,
      "v": 74
    },
    {
      "midi": 70,
      "hit": false,
      "t": 35104.16666666666,
      "d": 822.9166666666642,
      "v": 50
    },
    {
      "midi": 73,
      "hit": false,
      "t": 35104.16666666666,
      "d": 828.125,
      "v": 49
    },
    {
      "midi": 65,
      "hit": false,
      "t": 35119.79166666666,
      "d": 770.8333333333285,
      "v": 44
    },
    {
      "midi": 61,
      "hit": false,
      "t": 35130.20833333332,
      "d": 807.2916666666715,
      "v": 29
    },
    {
      "midi": 60,
      "hit": false,
      "t": 35145.83333333332,
      "d": 437.5,
      "v": 43
    },
    {
      "midi": 56,
      "hit": false,
      "t": 35557.29166666666,
      "d": 213.54166666666424,
      "v": 57
    },
    {
      "midi": 56,
      "hit": false,
      "t": 36109.37499999999,
      "d": 307.29166666666424,
      "v": 75
    },
    {
      "midi": 46,
      "hit": false,
      "t": 36296.87499999999,
      "d": 166.66666666666424,
      "v": 57
    },
    {
      "midi": 64,
      "hit": false,
      "t": 36526.04166666666,
      "d": 343.7500000000073,
      "v": 51
    },
    {
      "midi": 55,
      "hit": false,
      "t": 36536.45833333333,
      "d": 250,
      "v": 60
    },
    {
      "midi": 60,
      "hit": false,
      "t": 36536.45833333333,
      "d": 364.58333333333576,
      "v": 39
    },
    {
      "midi": 45,
      "hit": false,
      "t": 36552.08333333333,
      "d": 125,
      "v": 44
    },
    {
      "midi": 68,
      "hit": false,
      "t": 37166.666666666664,
      "d": 343.7500000000218,
      "v": 48
    },
    {
      "midi": 60,
      "hit": false,
      "t": 37182.291666666664,
      "d": 385.41666666668607,
      "v": 38
    },
    {
      "midi": 64,
      "hit": false,
      "t": 37187.5,
      "d": 317.7083333333503,
      "v": 41
    },
    {
      "midi": 57,
      "hit": false,
      "t": 37192.708333333336,
      "d": 93.75000000000728,
      "v": 38
    },
    {
      "midi": 50,
      "hit": false,
      "t": 37203.12500000001,
      "d": 135.41666666667152,
      "v": 50
    },
    {
      "midi": 43,
      "hit": false,
      "t": 37598.95833333335,
      "d": 875,
      "v": 42
    },
    {
      "midi": 53,
      "hit": false,
      "t": 37828.125000000015,
      "d": 322.9166666666715,
      "v": 43
    },
    {
      "midi": 59,
      "hit": false,
      "t": 37848.95833333335,
      "d": 479.16666666666424,
      "v": 46
    },
    {
      "midi": 61,
      "hit": false,
      "t": 38239.58333333335,
      "d": 187.5,
      "v": 75
    },
    {
      "midi": 62,
      "hit": false,
      "t": 38458.33333333335,
      "d": 104.16666666667152,
      "v": 59
    },
    {
      "midi": 65,
      "hit": false,
      "t": 38640.62500000002,
      "d": 119.79166666666424,
      "v": 60
    },
    {
      "midi": 68,
      "hit": false,
      "t": 38843.75000000002,
      "d": 114.58333333333576,
      "v": 77
    },
    {
      "midi": 69,
      "hit": false,
      "t": 39078.12500000002,
      "d": 333.33333333334303,
      "v": 63
    },
    {
      "midi": 61,
      "hit": false,
      "t": 39083.33333333336,
      "d": 31.25,
      "v": 61
    },
    {
      "midi": 36,
      "hit": false,
      "t": 39083.33333333336,
      "d": 130.20833333333576,
      "v": 45
    },
    {
      "midi": 62,
      "hit": false,
      "t": 39119.79166666669,
      "d": 255.20833333333576,
      "v": 57
    },
    {
      "midi": 66,
      "hit": false,
      "t": 39541.6666666667,
      "d": 244.79166666666424,
      "v": 50
    },
    {
      "midi": 69,
      "hit": false,
      "t": 39541.6666666667,
      "d": 265.625,
      "v": 58
    },
    {
      "midi": 62,
      "hit": false,
      "t": 39546.87500000004,
      "d": 229.16666666666424,
      "v": 65
    },
    {
      "midi": 57,
      "hit": false,
      "t": 39557.2916666667,
      "d": 203.125,
      "v": 41
    },
    {
      "midi": 48,
      "hit": false,
      "t": 39562.50000000004,
      "d": 177.08333333332848,
      "v": 49
    },
    {
      "midi": 58,
      "hit": false,
      "t": 39572.9166666667,
      "d": 88.54166666666424,
      "v": 34
    },
    {
      "midi": 66,
      "hit": false,
      "t": 39968.75000000003,
      "d": 166.66666666666424,
      "v": 49
    },
    {
      "midi": 62,
      "hit": false,
      "t": 39973.958333333365,
      "d": 109.37499999999272,
      "v": 58
    },
    {
      "midi": 69,
      "hit": false,
      "t": 39979.1666666667,
      "d": 88.54166666665697,
      "v": 40
    },
    {
      "midi": 57,
      "hit": false,
      "t": 39989.583333333365,
      "d": 166.66666666666424,
      "v": 51
    },
    {
      "midi": 48,
      "hit": false,
      "t": 40000.00000000003,
      "d": 250,
      "v": 34
    },
    {
      "midi": 65,
      "hit": false,
      "t": 40401.04166666669,
      "d": 1250.0000000000073,
      "v": 43
    },
    {
      "midi": 60,
      "hit": false,
      "t": 40411.45833333336,
      "d": 1187.5000000000073,
      "v": 46
    },
    {
      "midi": 55,
      "hit": false,
      "t": 40416.66666666669,
      "d": 963.5416666666715,
      "v": 40
    },
    {
      "midi": 57,
      "hit": false,
      "t": 40416.66666666669,
      "d": 1119.7916666666715,
      "v": 36
    },
    {
      "midi": 48,
      "hit": false,
      "t": 40666.66666666669,
      "d": 52.08333333333576,
      "v": 67
    },
    {
      "midi": 48,
      "hit": false,
      "t": 41114.583333333365,
      "d": 630.2083333333358,
      "v": 73
    },
    {
      "midi": 57,
      "hit": false,
      "t": 41796.87500000004,
      "d": 364.58333333333576,
      "v": 51
    },
    {
      "midi": 63,
      "hit": false,
      "t": 41796.87500000004,
      "d": 619.7916666666715,
      "v": 40
    },
    {
      "midi": 65,
      "hit": false,
      "t": 41812.50000000004,
      "d": 942.708333333343,
      "v": 43
    },
    {
      "midi": 47,
      "hit": false,
      "t": 41817.70833333337,
      "d": 848.9583333333358,
      "v": 41
    },
    {
      "midi": 61,
      "hit": false,
      "t": 41828.12500000004,
      "d": 489.58333333333576,
      "v": 42
    },
    {
      "midi": 61,
      "hit": false,
      "t": 42479.16666666671,
      "d": 343.7500000000073,
      "v": 37
    },
    {
      "midi": 57,
      "hit": false,
      "t": 42489.58333333337,
      "d": 213.54166666667152,
      "v": 43
    },
    {
      "midi": 46,
      "hit": false,
      "t": 43114.58333333338,
      "d": 93.75,
      "v": 45
    },
    {
      "midi": 79,
      "hit": false,
      "t": 43546.875000000044,
      "d": 166.66666666666424,
      "v": 81
    },
    {
      "midi": 74,
      "hit": false,
      "t": 43557.29166666671,
      "d": 187.5,
      "v": 80
    },
    {
      "midi": 67,
      "hit": false,
      "t": 43562.500000000044,
      "d": 135.41666666666424,
      "v": 75
    },
    {
      "midi": 62,
      "hit": false,
      "t": 43744.79166666671,
      "d": 62.499999999992724,
      "v": 51
    },
    {
      "midi": 60,
      "hit": false,
      "t": 43770.83333333337,
      "d": 46.874999999992724,
      "v": 37
    },
    {
      "midi": 78,
      "hit": false,
      "t": 43781.25000000004,
      "d": 36.45833333332848,
      "v": 33
    },
    {
      "midi": 78,
      "hit": false,
      "t": 43958.333333333365,
      "d": 72.91666666666424,
      "v": 40
    },
    {
      "midi": 66,
      "hit": false,
      "t": 43989.583333333365,
      "d": 46.875,
      "v": 30
    },
    {
      "midi": 67,
      "hit": false,
      "t": 44161.458333333365,
      "d": 36.45833333333576,
      "v": 58
    },
    {
      "midi": 79,
      "hit": false,
      "t": 44161.458333333365,
      "d": 52.08333333333576,
      "v": 56
    },
    {
      "midi": 74,
      "hit": false,
      "t": 44182.2916666667,
      "d": 104.16666666666424,
      "v": 43
    },
    {
      "midi": 38,
      "hit": false,
      "t": 44338.5416666667,
      "d": 46.874999999992724,
      "v": 52
    },
    {
      "midi": 80,
      "hit": false,
      "t": 44364.583333333365,
      "d": 203.12499999999272,
      "v": 62
    },
    {
      "midi": 68,
      "hit": false,
      "t": 44494.79166666669,
      "d": 83.33333333332848,
      "v": 56
    },
    {
      "midi": 69,
      "hit": false,
      "t": 44614.58333333336,
      "d": 52.08333333333576,
      "v": 43
    },
    {
      "midi": 81,
      "hit": false,
      "t": 44682.29166666669,
      "d": 98.95833333332848,
      "v": 56
    },
    {
      "midi": 69,
      "hit": false,
      "t": 44770.83333333336,
      "d": 104.16666666666424,
      "v": 45
    },
    {
      "midi": 65,
      "hit": false,
      "t": 44947.916666666686,
      "d": 46.875,
      "v": 40
    },
    {
      "midi": 60,
      "hit": false,
      "t": 44958.33333333335,
      "d": 41.66666666667152,
      "v": 39
    },
    {
      "midi": 54,
      "hit": false,
      "t": 44963.541666666686,
      "d": 104.16666666667152,
      "v": 35
    },
    {
      "midi": 50,
      "hit": false,
      "t": 45359.37500000003,
      "d": 250.00000000000728,
      "v": 46
    },
    {
      "midi": 72,
      "hit": false,
      "t": 45364.583333333365,
      "d": 171.875,
      "v": 71
    },
    {
      "midi": 84,
      "hit": false,
      "t": 45364.583333333365,
      "d": 208.33333333333576,
      "v": 83
    },
    {
      "midi": 43,
      "hit": false,
      "t": 45583.333333333365,
      "d": 72.91666666667152,
      "v": 50
    },
    {
      "midi": 82,
      "hit": false,
      "t": 45666.6666666667,
      "d": 182.29166666667152,
      "v": 52
    },
    {
      "midi": 84,
      "hit": false,
      "t": 46083.33333333337,
      "d": 156.25,
      "v": 68
    },
    {
      "midi": 82,
      "hit": false,
      "t": 46148.43750000004,
      "d": 500.0000000000073,
      "v": 43
    },
    {
      "midi": 81,
      "hit": false,
      "t": 46234.37500000004,
      "d": 140.62500000000728,
      "v": 62
    },
    {
      "midi": 62,
      "hit": false,
      "t": 46239.58333333337,
      "d": 411.45833333333576,
      "v": 33
    },
    {
      "midi": 54,
      "hit": false,
      "t": 46255.20833333337,
      "d": 291.6666666666715,
      "v": 33
    },
    {
      "midi": 58,
      "hit": false,
      "t": 46276.04166666671,
      "d": 427.08333333333576,
      "v": 26
    },
    {
      "midi": 84,
      "hit": false,
      "t": 46739.58333333338,
      "d": 1265.6250000000073,
      "v": 75
    },
    {
      "midi": 63,
      "hit": false,
      "t": 46911.45833333338,
      "d": 125.00000000000728,
      "v": 38
    },
    {
      "midi": 55,
      "hit": false,
      "t": 46921.875000000044,
      "d": 109.37500000000728,
      "v": 43
    },
    {
      "midi": 60,
      "hit": false,
      "t": 46937.500000000044,
      "d": 67.70833333333576,
      "v": 20
    },
    {
      "midi": 51,
      "hit": false,
      "t": 47369.79166666672,
      "d": 88.54166666666424,
      "v": 57
    },
    {
      "midi": 60,
      "hit": false,
      "t": 47572.91666666672,
      "d": 62.5,
      "v": 47
    },
    {
      "midi": 72,
      "hit": false,
      "t": 47583.33333333339,
      "d": 364.58333333333576,
      "v": 50
    },
    {
      "midi": 50,
      "hit": false,
      "t": 47598.95833333339,
      "d": 93.75,
      "v": 38
    },
    {
      "midi": 50,
      "hit": false,
      "t": 48026.04166666672,
      "d": 156.25,
      "v": 68
    },
    {
      "midi": 43,
      "hit": false,
      "t": 48229.16666666672,
      "d": 98.9583333333212,
      "v": 60
    },
    {
      "midi": 86,
      "hit": false,
      "t": 48239.58333333339,
      "d": 192.7083333333212,
      "v": 69
    },
    {
      "midi": 74,
      "hit": false,
      "t": 48250.00000000005,
      "d": 151.04166666665697,
      "v": 66
    },
    {
      "midi": 79,
      "hit": false,
      "t": 48260.416666666715,
      "d": 182.29166666665697,
      "v": 46
    },
    {
      "midi": 82,
      "hit": false,
      "t": 48286.45833333338,
      "d": 177.08333333332848,
      "v": 31
    },
    {
      "midi": 85,
      "hit": false,
      "t": 48677.08333333337,
      "d": 333.3333333333285,
      "v": 58
    },
    {
      "midi": 73,
      "hit": false,
      "t": 48697.91666666671,
      "d": 88.54166666666424,
      "v": 62
    },
    {
      "midi": 82,
      "hit": false,
      "t": 48734.375000000044,
      "d": 124.99999999999272,
      "v": 31
    },
    {
      "midi": 79,
      "hit": false,
      "t": 48744.79166666671,
      "d": 67.70833333332848,
      "v": 30
    },
    {
      "midi": 58,
      "hit": false,
      "t": 48854.1666666667,
      "d": 1177.0833333333358,
      "v": 39
    },
    {
      "midi": 62,
      "hit": false,
      "t": 48859.37500000004,
      "d": 223.95833333333576,
      "v": 48
    },
    {
      "midi": 55,
      "hit": false,
      "t": 48864.58333333337,
      "d": 421.875,
      "v": 46
    },
    {
      "midi": 73,
      "hit": false,
      "t": 48921.87500000004,
      "d": 88.54166666666424,
      "v": 46
    },
    {
      "midi": 74,
      "hit": false,
      "t": 49031.25000000004,
      "d": 83.33333333333576,
      "v": 59
    },
    {
      "midi": 86,
      "hit": false,
      "t": 49114.58333333337,
      "d": 104.16666666666424,
      "v": 41
    },
    {
      "midi": 74,
      "hit": false,
      "t": 49218.75000000004,
      "d": 93.75,
      "v": 51
    },
    {
      "midi": 86,
      "hit": false,
      "t": 49322.9166666667,
      "d": 93.75,
      "v": 46
    },
    {
      "midi": 54,
      "hit": false,
      "t": 49510.4166666667,
      "d": 473.95833333333576,
      "v": 50
    },
    {
      "midi": 62,
      "hit": false,
      "t": 49526.0416666667,
      "d": 375,
      "v": 48
    },
    {
      "midi": 82,
      "hit": false,
      "t": 49942.708333333365,
      "d": 286.45833333334303,
      "v": 43
    },
    {
      "midi": 70,
      "hit": false,
      "t": 49973.958333333365,
      "d": 281.2500000000073,
      "v": 55
    },
    {
      "midi": 77,
      "hit": false,
      "t": 49979.1666666667,
      "d": 244.79166666667152,
      "v": 60
    },
    {
      "midi": 62,
      "hit": false,
      "t": 50151.0416666667,
      "d": 57.29166666667152,
      "v": 38
    },
    {
      "midi": 58,
      "hit": false,
      "t": 50151.0416666667,
      "d": 109.37500000000728,
      "v": 19
    },
    {
      "midi": 53,
      "hit": false,
      "t": 50156.25000000004,
      "d": 98.95833333333576,
      "v": 52
    },
    {
      "midi": 39,
      "hit": false,
      "t": 50822.91666666671,
      "d": 130.20833333333576,
      "v": 50
    },
    {
      "midi": 69,
      "hit": false,
      "t": 50828.125000000044,
      "d": 171.875,
      "v": 82
    },
    {
      "midi": 46,
      "hit": false,
      "t": 50843.750000000044,
      "d": 171.875,
      "v": 54
    },
    {
      "midi": 65,
      "hit": false,
      "t": 50843.750000000044,
      "d": 197.91666666666424,
      "v": 80
    },
    {
      "midi": 61,
      "hit": false,
      "t": 50848.95833333338,
      "d": 177.08333333332848,
      "v": 75
    },
    {
      "midi": 72,
      "hit": false,
      "t": 51067.70833333337,
      "d": 72.91666666666424,
      "v": 68
    },
    {
      "midi": 77,
      "hit": false,
      "t": 51281.25000000004,
      "d": 67.70833333333576,
      "v": 88
    },
    {
      "midi": 84,
      "hit": false,
      "t": 51494.79166666671,
      "d": 78.125,
      "v": 87
    },
    {
      "midi": 89,
      "hit": false,
      "t": 51708.33333333337,
      "d": 57.29166666666424,
      "v": 61
    },
    {
      "midi": 96,
      "hit": false,
      "t": 51911.45833333337,
      "d": 140.625,
      "v": 91
    },
    {
      "midi": 50,
      "hit": false,
      "t": 52130.20833333337,
      "d": 36.45833333333576,
      "v": 44
    },
    {
      "midi": 54,
      "hit": false,
      "t": 52145.83333333337,
      "d": 36.45833333333576,
      "v": 37
    },
    {
      "midi": 60,
      "hit": false,
      "t": 52338.54166666671,
      "d": 302.08333333334303,
      "v": 59
    },
    {
      "midi": 65,
      "hit": false,
      "t": 52343.750000000044,
      "d": 260.4166666666715,
      "v": 71
    },
    {
      "midi": 54,
      "hit": false,
      "t": 52348.95833333338,
      "d": 322.9166666666715,
      "v": 64
    },
    {
      "midi": 54,
      "hit": false,
      "t": 52791.666666666715,
      "d": 322.91666666666424,
      "v": 78
    },
    {
      "midi": 44,
      "hit": false,
      "t": 52812.50000000005,
      "d": 322.91666666666424,
      "v": 71
    },
    {
      "midi": 43,
      "hit": false,
      "t": 53218.75000000005,
      "d": 463.54166666666424,
      "v": 75
    },
    {
      "midi": 53,
      "hit": false,
      "t": 53223.95833333339,
      "d": 640.625,
      "v": 77
    },
    {
      "midi": 67,
      "hit": false,
      "t": 53687.50000000005,
      "d": 98.95833333333576,
      "v": 60
    },
    {
      "midi": 62,
      "hit": false,
      "t": 53703.12500000005,
      "d": 98.95833333333576,
      "v": 57
    },
    {
      "midi": 59,
      "hit": false,
      "t": 53729.166666666715,
      "d": 52.08333333333576,
      "v": 33
    },
    {
      "midi": 52,
      "hit": false,
      "t": 53880.20833333339,
      "d": 182.29166666667152,
      "v": 72
    },
    {
      "midi": 62,
      "hit": false,
      "t": 54109.37500000006,
      "d": 385.41666666666424,
      "v": 63
    },
    {
      "midi": 67,
      "hit": false,
      "t": 54109.37500000006,
      "d": 390.625,
      "v": 62
    },
    {
      "midi": 59,
      "hit": false,
      "t": 54119.79166666672,
      "d": 328.125,
      "v": 52
    },
    {
      "midi": 53,
      "hit": false,
      "t": 54119.79166666672,
      "d": 395.83333333333576,
      "v": 44
    },
    {
      "midi": 43,
      "hit": false,
      "t": 54515.62500000006,
      "d": 1104.1666666666788,
      "v": 60
    },
    {
      "midi": 64,
      "hit": false,
      "t": 55005.208333333394,
      "d": 151.04166666667152,
      "v": 70
    },
    {
      "midi": 69,
      "hit": false,
      "t": 55005.208333333394,
      "d": 171.87500000000728,
      "v": 58
    },
    {
      "midi": 60,
      "hit": false,
      "t": 55010.41666666673,
      "d": 109.375,
      "v": 57
    },
    {
      "midi": 55,
      "hit": false,
      "t": 55208.3333333334,
      "d": 36.45833333333576,
      "v": 56
    },
    {
      "midi": 69,
      "hit": false,
      "t": 55416.66666666674,
      "d": 395.83333333333576,
      "v": 66
    },
    {
      "midi": 64,
      "hit": false,
      "t": 55427.0833333334,
      "d": 364.58333333334303,
      "v": 68
    },
    {
      "midi": 60,
      "hit": false,
      "t": 55432.29166666674,
      "d": 322.9166666666715,
      "v": 58
    },
    {
      "midi": 55,
      "hit": false,
      "t": 55458.3333333334,
      "d": 343.7500000000073,
      "v": 66
    },
    {
      "midi": 43,
      "hit": false,
      "t": 55859.37500000007,
      "d": 354.1666666666788,
      "v": 57
    },
    {
      "midi": 71,
      "hit": false,
      "t": 56104.166666666744,
      "d": 437.5000000000073,
      "v": 57
    },
    {
      "midi": 63,
      "hit": false,
      "t": 56109.37500000008,
      "d": 380.20833333333576,
      "v": 53
    },
    {
      "midi": 59,
      "hit": false,
      "t": 56114.583333333416,
      "d": 239.58333333333576,
      "v": 57
    },
    {
      "midi": 67,
      "hit": false,
      "t": 56114.583333333416,
      "d": 348.95833333333576,
      "v": 53
    },
    {
      "midi": 53,
      "hit": false,
      "t": 56130.208333333416,
      "d": 156.25,
      "v": 55
    },
    {
      "midi": 57,
      "hit": false,
      "t": 56770.833333333416,
      "d": 151.0416666666788,
      "v": 45
    },
    {
      "midi": 53,
      "hit": false,
      "t": 56776.04166666675,
      "d": 119.79166666667152,
      "v": 44
    },
    {
      "midi": 67,
      "hit": false,
      "t": 56781.25000000009,
      "d": 307.2916666666715,
      "v": 52
    },
    {
      "midi": 71,
      "hit": false,
      "t": 56781.25000000009,
      "d": 359.3750000000073,
      "v": 50
    },
    {
      "midi": 63,
      "hit": false,
      "t": 56786.45833333342,
      "d": 302.08333333333576,
      "v": 59
    },
    {
      "midi": 68,
      "hit": false,
      "t": 57463.54166666676,
      "d": 489.58333333333576,
      "v": 64
    },
    {
      "midi": 71,
      "hit": false,
      "t": 57468.750000000095,
      "d": 494.79166666666424,
      "v": 58
    },
    {
      "midi": 74,
      "hit": false,
      "t": 57468.750000000095,
      "d": 494.79166666666424,
      "v": 68
    },
    {
      "midi": 64,
      "hit": false,
      "t": 57473.95833333343,
      "d": 458.3333333333285,
      "v": 69
    },
    {
      "midi": 59,
      "hit": false,
      "t": 57479.166666666766,
      "d": 421.8749999999927,
      "v": 58
    },
    {
      "midi": 53,
      "hit": false,
      "t": 57489.58333333343,
      "d": 348.9583333333285,
      "v": 33
    },
    {
      "midi": 68,
      "hit": false,
      "t": 58171.875000000095,
      "d": 458.33333333333576,
      "v": 51
    },
    {
      "midi": 71,
      "hit": false,
      "t": 58171.875000000095,
      "d": 489.58333333333576,
      "v": 50
    },
    {
      "midi": 59,
      "hit": false,
      "t": 58177.08333333343,
      "d": 312.5,
      "v": 53
    },
    {
      "midi": 74,
      "hit": false,
      "t": 58177.08333333343,
      "d": 447.91666666666424,
      "v": 52
    },
    {
      "midi": 64,
      "hit": false,
      "t": 58182.291666666766,
      "d": 338.54166666666424,
      "v": 57
    },
    {
      "midi": 53,
      "hit": false,
      "t": 58203.1250000001,
      "d": 229.16666666666424,
      "v": 34
    },
    {
      "midi": 74,
      "hit": false,
      "t": 58864.58333333343,
      "d": 223.95833333333576,
      "v": 88
    },
    {
      "midi": 65,
      "hit": false,
      "t": 58875.000000000095,
      "d": 307.2916666666715,
      "v": 81
    },
    {
      "midi": 69,
      "hit": false,
      "t": 58875.000000000095,
      "d": 354.1666666666715,
      "v": 88
    },
    {
      "midi": 64,
      "hit": false,
      "t": 58880.20833333343,
      "d": 437.5000000000073,
      "v": 84
    },
    {
      "midi": 75,
      "hit": false,
      "t": 59312.5000000001,
      "d": 171.875,
      "v": 52
    },
    {
      "midi": 63,
      "hit": false,
      "t": 59317.70833333344,
      "d": 213.54166666666424,
      "v": 57
    },
    {
      "midi": 65,
      "hit": false,
      "t": 59348.95833333344,
      "d": 78.125,
      "v": 24
    },
    {
      "midi": 62,
      "hit": false,
      "t": 59588.541666666766,
      "d": 182.29166666667152,
      "v": 59
    },
    {
      "midi": 69,
      "hit": false,
      "t": 59593.7500000001,
      "d": 98.95833333333576,
      "v": 48
    },
    {
      "midi": 65,
      "hit": false,
      "t": 59593.7500000001,
      "d": 130.20833333333576,
      "v": 49
    },
    {
      "midi": 76,
      "hit": false,
      "t": 59598.95833333344,
      "d": 62.5,
      "v": 49
    },
    {
      "midi": 61,
      "hit": false,
      "t": 59822.91666666677,
      "d": 93.75,
      "v": 37
    },
    {
      "midi": 69,
      "hit": false,
      "t": 60317.70833333344,
      "d": 734.375,
      "v": 70
    },
    {
      "midi": 59,
      "hit": false,
      "t": 60333.33333333344,
      "d": 249.99999999999272,
      "v": 62
    },
    {
      "midi": 64,
      "hit": false,
      "t": 60338.54166666677,
      "d": 249.99999999999272,
      "v": 74
    },
    {
      "midi": 53,
      "hit": false,
      "t": 60380.20833333344,
      "d": 41.66666666666424,
      "v": 36
    },
    {
      "midi": 44,
      "hit": false,
      "t": 60541.666666666766,
      "d": 421.875,
      "v": 70
    },
    {
      "midi": 62,
      "hit": false,
      "t": 61005.20833333343,
      "d": 359.3750000000073,
      "v": 57
    },
    {
      "midi": 59,
      "hit": false,
      "t": 61010.416666666766,
      "d": 276.0416666666715,
      "v": 44
    },
    {
      "midi": 53,
      "hit": false,
      "t": 61026.041666666766,
      "d": 364.58333333333576,
      "v": 48
    },
    {
      "midi": 43,
      "hit": false,
      "t": 61416.666666666766,
      "d": 36.45833333333576,
      "v": 58
    },
    {
      "midi": 62,
      "hit": false,
      "t": 61671.8750000001,
      "d": 255.20833333333576,
      "v": 72
    },
    {
      "midi": 58,
      "hit": false,
      "t": 61682.291666666766,
      "d": 317.70833333333576,
      "v": 44
    },
    {
      "midi": 74,
      "hit": false,
      "t": 61692.70833333344,
      "d": 218.75,
      "v": 91
    },
    {
      "midi": 60,
      "hit": false,
      "t": 61692.70833333344,
      "d": 229.16666666666424,
      "v": 48
    },
    {
      "midi": 75,
      "hit": false,
      "t": 62098.95833333344,
      "d": 135.41666666666424,
      "v": 62
    },
    {
      "midi": 64,
      "hit": false,
      "t": 62253.9062500001,
      "d": 88.54166666666424,
      "v": 52
    },
    {
      "midi": 76,
      "hit": false,
      "t": 62322.916666666766,
      "d": 119.79166666667152,
      "v": 67
    },
    {
      "midi": 48,
      "hit": false,
      "t": 62744.79166666677,
      "d": 250,
      "v": 47
    },
    {
      "midi": 68,
      "hit": false,
      "t": 62979.16666666677,
      "d": 197.91666666666424,
      "v": 53
    },
    {
      "midi": 64,
      "hit": false,
      "t": 62989.58333333344,
      "d": 151.04166666666424,
      "v": 53
    },
    {
      "midi": 60,
      "hit": false,
      "t": 62994.79166666677,
      "d": 135.41666666666424,
      "v": 46
    },
    {
      "midi": 72,
      "hit": false,
      "t": 63406.2500000001,
      "d": 171.875,
      "v": 71
    },
    {
      "midi": 68,
      "hit": false,
      "t": 63406.2500000001,
      "d": 197.91666666666424,
      "v": 67
    },
    {
      "midi": 66,
      "hit": false,
      "t": 63416.666666666766,
      "d": 213.54166666667152,
      "v": 63
    },
    {
      "midi": 64,
      "hit": false,
      "t": 63421.8750000001,
      "d": 192.70833333333576,
      "v": 74
    },
    {
      "midi": 58,
      "hit": false,
      "t": 63609.3750000001,
      "d": 78.125,
      "v": 40
    },
    {
      "midi": 52,
      "hit": false,
      "t": 63625.0000000001,
      "d": 52.08333333333576,
      "v": 43
    },
    {
      "midi": 68,
      "hit": false,
      "t": 63786.45833333344,
      "d": 114.58333333333576,
      "v": 55
    },
    {
      "midi": 60,
      "hit": false,
      "t": 63796.8750000001,
      "d": 88.54166666667152,
      "v": 45
    },
    {
      "midi": 64,
      "hit": false,
      "t": 63802.08333333344,
      "d": 98.95833333333576,
      "v": 53
    },
    {
      "midi": 48,
      "hit": false,
      "t": 64036.45833333344,
      "d": 182.29166666666424,
      "v": 15
    },
    {
      "midi": 64,
      "hit": false,
      "t": 64296.8750000001,
      "d": 531.25,
      "v": 51
    },
    {
      "midi": 56,
      "hit": false,
      "t": 64302.08333333344,
      "d": 406.25,
      "v": 43
    },
    {
      "midi": 59,
      "hit": false,
      "t": 64312.5000000001,
      "d": 343.75,
      "v": 50
    },
    {
      "midi": 48,
      "hit": false,
      "t": 64354.166666666766,
      "d": 656.2500000000073,
      "v": 17
    },
    {
      "midi": 41,
      "hit": false,
      "t": 64390.6250000001,
      "d": 817.708333333343,
      "v": 26
    },
    {
      "midi": 64,
      "hit": false,
      "t": 64989.58333333344,
      "d": 494.7916666666788,
      "v": 50
    },
    {
      "midi": 60,
      "hit": false,
      "t": 65000.00000000011,
      "d": 375.0000000000073,
      "v": 46
    },
    {
      "midi": 57,
      "hit": false,
      "t": 65015.62500000011,
      "d": 343.7500000000073,
      "v": 42
    },
    {
      "midi": 55,
      "hit": false,
      "t": 65020.833333333445,
      "d": 359.3750000000073,
      "v": 33
    },
    {
      "midi": 50,
      "hit": false,
      "t": 65031.25000000011,
      "d": 307.2916666666715,
      "v": 33
    },
    {
      "midi": 50,
      "hit": false,
      "t": 65458.33333333345,
      "d": 98.95833333333576,
      "v": 31
    },
    {
      "midi": 56,
      "hit": false,
      "t": 65656.25000000013,
      "d": 151.04166666665697,
      "v": 31
    },
    {
      "midi": 62,
      "hit": false,
      "t": 65656.25000000013,
      "d": 203.125,
      "v": 36
    },
    {
      "midi": 44,
      "hit": false,
      "t": 65661.45833333346,
      "d": 156.25,
      "v": 38
    },
    {
      "midi": 59,
      "hit": false,
      "t": 65682.29166666679,
      "d": 135.41666666667152,
      "v": 37
    },
    {
      "midi": 53,
      "hit": false,
      "t": 65682.29166666679,
      "d": 145.83333333334303,
      "v": 40
    },
    {
      "midi": 62,
      "hit": false,
      "t": 66380.20833333346,
      "d": 52.08333333332848,
      "v": 62
    },
    {
      "midi": 59,
      "hit": false,
      "t": 66411.45833333346,
      "d": 46.875,
      "v": 36
    },
    {
      "midi": 56,
      "hit": false,
      "t": 66411.45833333346,
      "d": 93.75,
      "v": 34
    },
    {
      "midi": 53,
      "hit": false,
      "t": 66427.08333333346,
      "d": 78.125,
      "v": 28
    },
    {
      "midi": 50,
      "hit": false,
      "t": 66812.50000000013,
      "d": 187.5,
      "v": 74
    },
    {
      "midi": 43,
      "hit": false,
      "t": 67072.9166666668,
      "d": 52.08333333332848,
      "v": 57
    },
    {
      "midi": 77,
      "hit": false,
      "t": 67515.62500000013,
      "d": 125,
      "v": 89
    },
    {
      "midi": 58,
      "hit": false,
      "t": 67713.5416666668,
      "d": 62.5,
      "v": 35
    },
    {
      "midi": 73,
      "hit": false,
      "t": 67729.1666666668,
      "d": 88.54166666667152,
      "v": 57
    },
    {
      "midi": 74,
      "hit": false,
      "t": 67937.50000000013,
      "d": 57.29166666667152,
      "v": 24
    },
    {
      "midi": 77,
      "hit": false,
      "t": 68078.12500000013,
      "d": 83.33333333332848,
      "v": 55
    },
    {
      "midi": 81,
      "hit": false,
      "t": 68244.79166666679,
      "d": 98.95833333332848,
      "v": 72
    },
    {
      "midi": 36,
      "hit": false,
      "t": 68359.37500000012,
      "d": 98.95833333332848,
      "v": 37
    },
    {
      "midi": 52,
      "hit": false,
      "t": 68411.45833333344,
      "d": 125,
      "v": 62
    },
    {
      "midi": 84,
      "hit": false,
      "t": 68421.87500000012,
      "d": 270.8333333333285,
      "v": 72
    },
    {
      "midi": 72,
      "hit": false,
      "t": 68427.08333333344,
      "d": 270.8333333333285,
      "v": 55
    },
    {
      "midi": 86,
      "hit": false,
      "t": 68838.54166666677,
      "d": 125,
      "v": 70
    },
    {
      "midi": 74,
      "hit": false,
      "t": 68848.95833333344,
      "d": 119.79166666665697,
      "v": 60
    },
    {
      "midi": 85,
      "hit": false,
      "t": 68984.3750000001,
      "d": 36.45833333332848,
      "v": 32
    },
    {
      "midi": 61,
      "hit": false,
      "t": 69046.8750000001,
      "d": 67.70833333332848,
      "v": 39
    },
    {
      "midi": 58,
      "hit": false,
      "t": 69046.8750000001,
      "d": 78.125,
      "v": 40
    },
    {
      "midi": 64,
      "hit": false,
      "t": 69052.08333333343,
      "d": 46.875,
      "v": 38
    },
    {
      "midi": 87,
      "hit": false,
      "t": 69130.20833333343,
      "d": 83.33333333332848,
      "v": 57
    },
    {
      "midi": 75,
      "hit": false,
      "t": 69135.41666666676,
      "d": 62.5,
      "v": 38
    },
    {
      "midi": 76,
      "hit": false,
      "t": 69302.08333333342,
      "d": 36.45833333332848,
      "v": 55
    },
    {
      "midi": 88,
      "hit": false,
      "t": 69302.08333333342,
      "d": 78.125,
      "v": 59
    },
    {
      "midi": 93,
      "hit": false,
      "t": 69494.79166666674,
      "d": 114.58333333334303,
      "v": 85
    },
    {
      "midi": 81,
      "hit": false,
      "t": 69505.20833333342,
      "d": 88.54166666667152,
      "v": 71
    },
    {
      "midi": 92,
      "hit": false,
      "t": 69713.54166666676,
      "d": 145.83333333334303,
      "v": 65
    },
    {
      "midi": 80,
      "hit": false,
      "t": 69713.54166666676,
      "d": 156.25000000001455,
      "v": 64
    },
    {
      "midi": 41,
      "hit": false,
      "t": 69760.41666666676,
      "d": 151.04166666668607,
      "v": 47
    },
    {
      "midi": 57,
      "hit": false,
      "t": 69817.70833333343,
      "d": 171.8750000000291,
      "v": 29
    },
    {
      "midi": 79,
      "hit": false,
      "t": 69968.75000000012,
      "d": 119.79166666668607,
      "v": 54
    },
    {
      "midi": 91,
      "hit": false,
      "t": 69979.16666666679,
      "d": 83.33333333334303,
      "v": 46
    },
    {
      "midi": 88,
      "hit": false,
      "t": 70244.7916666668,
      "d": 161.45833333332848,
      "v": 63
    },
    {
      "midi": 76,
      "hit": false,
      "t": 70260.4166666668,
      "d": 187.5,
      "v": 55
    },
    {
      "midi": 64,
      "hit": false,
      "t": 70447.9166666668,
      "d": 109.375,
      "v": 45
    },
    {
      "midi": 60,
      "hit": false,
      "t": 70479.1666666668,
      "d": 125,
      "v": 33
    },
    {
      "midi": 57,
      "hit": false,
      "t": 70484.37500000013,
      "d": 114.58333333334303,
      "v": 32
    },
    {
      "midi": 53,
      "hit": false,
      "t": 70500.00000000013,
      "d": 140.625,
      "v": 29
    },
    {
      "midi": 74,
      "hit": false,
      "t": 71166.66666666679,
      "d": 463.54166666665697,
      "v": 89
    },
    {
      "midi": 77,
      "hit": false,
      "t": 71166.66666666679,
      "d": 572.916666666657,
      "v": 82
    },
    {
      "midi": 48,
      "hit": false,
      "t": 71171.87500000012,
      "d": 98.95833333332848,
      "v": 60
    },
    {
      "midi": 58,
      "hit": false,
      "t": 71171.87500000012,
      "d": 182.29166666665697,
      "v": 46
    },
    {
      "midi": 75,
      "hit": false,
      "t": 71843.75000000012,
      "d": 276.0416666666715,
      "v": 57
    },
    {
      "midi": 63,
      "hit": false,
      "t": 71854.16666666679,
      "d": 197.91666666667152,
      "v": 39
    },
    {
      "midi": 57,
      "hit": false,
      "t": 71854.16666666679,
      "d": 229.16666666667152,
      "v": 41
    },
    {
      "midi": 71,
      "hit": false,
      "t": 71864.58333333346,
      "d": 281.25,
      "v": 54
    },
    {
      "midi": 67,
      "hit": false,
      "t": 71890.62500000013,
      "d": 52.08333333332848,
      "v": 22
    },
    {
      "midi": 65,
      "hit": false,
      "t": 72552.08333333346,
      "d": 286.45833333331393,
      "v": 51
    },
    {
      "midi": 72,
      "hit": false,
      "t": 72557.29166666679,
      "d": 265.62499999998545,
      "v": 47
    },
    {
      "midi": 62,
      "hit": false,
      "t": 72557.29166666679,
      "d": 328.12499999998545,
      "v": 43
    },
    {
      "midi": 69,
      "hit": false,
      "t": 72562.50000000012,
      "d": 239.58333333332848,
      "v": 51
    },
    {
      "midi": 57,
      "hit": false,
      "t": 72588.54166666677,
      "d": 437.5,
      "v": 33
    },
    {
      "midi": 65,
      "hit": false,
      "t": 73223.95833333344,
      "d": 260.41666666665697,
      "v": 57
    },
    {
      "midi": 58,
      "hit": false,
      "t": 73244.79166666677,
      "d": 281.25,
      "v": 27
    },
    {
      "midi": 62,
      "hit": false,
      "t": 73250.0000000001,
      "d": 234.375,
      "v": 42
    },
    {
      "midi": 46,
      "hit": false,
      "t": 73260.41666666677,
      "d": 265.625,
      "v": 42
    },
    {
      "midi": 53,
      "hit": false,
      "t": 73270.83333333344,
      "d": 161.45833333332848,
      "v": 22
    },
    {
      "midi": 46,
      "hit": false,
      "t": 73682.29166666677,
      "d": 93.75,
      "v": 48
    },
    {
      "midi": 60,
      "hit": false,
      "t": 73932.29166666677,
      "d": 395.83333333331393,
      "v": 69
    },
    {
      "midi": 55,
      "hit": false,
      "t": 73942.70833333344,
      "d": 302.08333333331393,
      "v": 69
    },
    {
      "midi": 46,
      "hit": false,
      "t": 73942.70833333344,
      "d": 749.9999999999709,
      "v": 50
    },
    {
      "midi": 39,
      "hit": false,
      "t": 73947.91666666677,
      "d": 718.7499999999854,
      "v": 52
    },
    {
      "midi": 61,
      "hit": false,
      "t": 74369.79166666676,
      "d": 229.16666666667152,
      "v": 83
    },
    {
      "midi": 51,
      "hit": false,
      "t": 74614.58333333343,
      "d": 57.291666666656965,
      "v": 47
    },
    {
      "midi": 65,
      "hit": false,
      "t": 74614.58333333343,
      "d": 104.16666666665697,
      "v": 72
    },
    {
      "midi": 69,
      "hit": false,
      "t": 74807.29166666676,
      "d": 88.54166666667152,
      "v": 66
    },
    {
      "midi": 70,
      "hit": false,
      "t": 74968.7500000001,
      "d": 88.54166666667152,
      "v": 64
    },
    {
      "midi": 74,
      "hit": false,
      "t": 75145.83333333344,
      "d": 109.375,
      "v": 91
    },
    {
      "midi": 41,
      "hit": false,
      "t": 75296.87500000012,
      "d": 177.08333333332848,
      "v": 30
    },
    {
      "midi": 48,
      "hit": false,
      "t": 75307.29166666677,
      "d": 213.54166666667152,
      "v": 35
    },
    {
      "midi": 57,
      "hit": false,
      "t": 75328.1250000001,
      "d": 177.08333333334303,
      "v": 46
    },
    {
      "midi": 72,
      "hit": false,
      "t": 75338.54166666677,
      "d": 286.45833333334303,
      "v": 64
    },
    {
      "midi": 60,
      "hit": false,
      "t": 75625.00000000012,
      "d": 244.79166666667152,
      "v": 57
    },
    {
      "midi": 60,
      "hit": false,
      "t": 75968.75000000012,
      "d": 135.41666666667152,
      "v": 42
    },
    {
      "midi": 57,
      "hit": false,
      "t": 76000.00000000012,
      "d": 125,
      "v": 45
    },
    {
      "midi": 65,
      "hit": false,
      "t": 76229.16666666679,
      "d": 93.75,
      "v": 64
    },
    {
      "midi": 69,
      "hit": false,
      "t": 76437.50000000012,
      "d": 72.91666666667152,
      "v": 70
    },
    {
      "midi": 73,
      "hit": false,
      "t": 76677.08333333346,
      "d": 609.3749999999709,
      "v": 76
    },
    {
      "midi": 76,
      "hit": false,
      "t": 76677.08333333346,
      "d": 682.2916666666424,
      "v": 82
    },
    {
      "midi": 66,
      "hit": false,
      "t": 76682.29166666679,
      "d": 411.45833333331393,
      "v": 67
    },
    {
      "midi": 69,
      "hit": false,
      "t": 76687.50000000012,
      "d": 531.2499999999854,
      "v": 81
    },
    {
      "midi": 64,
      "hit": false,
      "t": 76697.91666666679,
      "d": 312.49999999998545,
      "v": 67
    },
    {
      "midi": 62,
      "hit": false,
      "t": 76703.12500000012,
      "d": 354.16666666665697,
      "v": 59
    },
    {
      "midi": 74,
      "hit": false,
      "t": 77671.8750000001,
      "d": 380.2083333333285,
      "v": 73
    },
    {
      "midi": 70,
      "hit": false,
      "t": 78125.0000000001,
      "d": 348.95833333331393,
      "v": 50
    },
    {
      "midi": 65,
      "hit": false,
      "t": 78130.20833333343,
      "d": 296.87499999998545,
      "v": 32
    },
    {
      "midi": 61,
      "hit": false,
      "t": 78140.6250000001,
      "d": 406.24999999998545,
      "v": 29
    },
    {
      "midi": 60,
      "hit": false,
      "t": 78145.83333333343,
      "d": 296.87499999998545,
      "v": 31
    },
    {
      "midi": 55,
      "hit": false,
      "t": 78822.91666666676,
      "d": 218.74999999998545,
      "v": 50
    },
    {
      "midi": 65,
      "hit": false,
      "t": 78828.12500000009,
      "d": 338.54166666665697,
      "v": 53
    },
    {
      "midi": 61,
      "hit": false,
      "t": 78828.12500000009,
      "d": 369.79166666665697,
      "v": 34
    },
    {
      "midi": 45,
      "hit": false,
      "t": 79281.25000000007,
      "d": 83.33333333332848,
      "v": 66
    },
    {
      "midi": 71,
      "hit": false,
      "t": 79843.75000000007,
      "d": 255.20833333332848,
      "v": 87
    },
    {
      "midi": 74,
      "hit": false,
      "t": 79843.75000000007,
      "d": 343.75,
      "v": 85
    },
    {
      "midi": 67,
      "hit": false,
      "t": 79848.9583333334,
      "d": 250,
      "v": 84
    },
    {
      "midi": 62,
      "hit": false,
      "t": 79859.37500000007,
      "d": 203.125,
      "v": 60
    },
    {
      "midi": 64,
      "hit": false,
      "t": 79859.37500000007,
      "d": 239.58333333332848,
      "v": 66
    },
    {
      "midi": 60,
      "hit": false,
      "t": 79869.79166666674,
      "d": 229.16666666665697,
      "v": 60
    },
    {
      "midi": 71,
      "hit": false,
      "t": 80322.91666666674,
      "d": 390.625,
      "v": 54
    },
    {
      "midi": 68,
      "hit": false,
      "t": 80328.12500000007,
      "d": 322.9166666666715,
      "v": 57
    },
    {
      "midi": 64,
      "hit": false,
      "t": 80338.54166666674,
      "d": 343.75,
      "v": 50
    },
    {
      "midi": 60,
      "hit": false,
      "t": 80343.75000000007,
      "d": 390.625,
      "v": 48
    },
    {
      "midi": 54,
      "hit": false,
      "t": 80354.16666666674,
      "d": 468.74999999998545,
      "v": 40
    },
    {
      "midi": 72,
      "hit": false,
      "t": 80781.25000000007,
      "d": 114.58333333332848,
      "v": 65
    },
    {
      "midi": 69,
      "hit": false,
      "t": 80786.4583333334,
      "d": 114.58333333332848,
      "v": 68
    },
    {
      "midi": 69,
      "hit": false,
      "t": 81203.12500000006,
      "d": 484.37499999998545,
      "v": 65
    },
    {
      "midi": 64,
      "hit": false,
      "t": 81208.33333333339,
      "d": 265.62499999998545,
      "v": 62
    },
    {
      "midi": 59,
      "hit": false,
      "t": 81213.54166666672,
      "d": 416.66666666665697,
      "v": 40
    },
    {
      "midi": 53,
      "hit": false,
      "t": 81218.75000000004,
      "d": 348.9583333333285,
      "v": 57
    },
    {
      "midi": 43,
      "hit": false,
      "t": 81479.1666666667,
      "d": 604.1666666666715,
      "v": 58
    },
    {
      "midi": 64,
      "hit": false,
      "t": 81744.79166666672,
      "d": 36.45833333332848,
      "v": 25
    },
    {
      "midi": 53,
      "hit": false,
      "t": 81744.79166666672,
      "d": 57.291666666656965,
      "v": 60
    },
    {
      "midi": 47,
      "hit": false,
      "t": 82161.45833333337,
      "d": 203.125,
      "v": 68
    },
    {
      "midi": 58,
      "hit": false,
      "t": 82401.0416666667,
      "d": 151.0416666666424,
      "v": 59
    },
    {
      "midi": 48,
      "hit": false,
      "t": 82406.25000000003,
      "d": 1395.833333333314,
      "v": 64
    },
    {
      "midi": 62,
      "hit": false,
      "t": 82411.45833333336,
      "d": 208.33333333331393,
      "v": 64
    },
    {
      "midi": 69,
      "hit": false,
      "t": 82416.66666666669,
      "d": 119.79166666665697,
      "v": 54
    },
    {
      "midi": 65,
      "hit": false,
      "t": 82421.87500000001,
      "d": 182.29166666665697,
      "v": 57
    },
    {
      "midi": 60,
      "hit": false,
      "t": 82869.79166666667,
      "d": 98.95833333332848,
      "v": 84
    },
    {
      "midi": 61,
      "hit": false,
      "t": 83072.91666666667,
      "d": 62.5,
      "v": 64
    },
    {
      "midi": 62,
      "hit": false,
      "t": 83135.41666666667,
      "d": 88.54166666667152,
      "v": 70
    },
    {
      "midi": 65,
      "hit": false,
      "t": 83291.66666666667,
      "d": 109.375,
      "v": 71
    },
    {
      "midi": 67,
      "hit": false,
      "t": 83489.58333333334,
      "d": 156.25,
      "v": 85
    },
    {
      "midi": 65,
      "hit": false,
      "t": 83708.33333333334,
      "d": 406.25,
      "v": 75
    },
    {
      "midi": 60,
      "hit": false,
      "t": 83895.83333333334,
      "d": 151.04166666667152,
      "v": 49
    },
    {
      "midi": 62,
      "hit": false,
      "t": 84114.58333333334,
      "d": 119.79166666667152,
      "v": 73
    },
    {
      "midi": 65,
      "hit": false,
      "t": 84343.75000000001,
      "d": 151.04166666667152,
      "v": 85
    },
    {
      "midi": 67,
      "hit": false,
      "t": 84505.20833333336,
      "d": 156.25,
      "v": 71
    },
    {
      "midi": 65,
      "hit": false,
      "t": 84750.00000000003,
      "d": 578.125,
      "v": 81
    },
    {
      "midi": 48,
      "hit": false,
      "t": 84953.12500000003,
      "d": 432.2916666666715,
      "v": 72
    },
    {
      "midi": 47,
      "hit": false,
      "t": 84973.95833333336,
      "d": 41.66666666667152,
      "v": 41
    },
    {
      "midi": 36,
      "hit": false,
      "t": 85401.0416666667,
      "d": 244.79166666667152,
      "v": 77
    },
    {
      "midi": 61,
      "hit": false,
      "t": 85656.25000000004,
      "d": 458.3333333332994,
      "v": 69
    },
    {
      "midi": 65,
      "hit": false,
      "t": 85661.45833333337,
      "d": 374.99999999998545,
      "v": 64
    },
    {
      "midi": 55,
      "hit": false,
      "t": 85661.45833333337,
      "d": 380.20833333331393,
      "v": 78
    },
    {
      "midi": 58,
      "hit": false,
      "t": 85661.45833333337,
      "d": 416.6666666666424,
      "v": 64
    },
    {
      "midi": 48,
      "hit": false,
      "t": 85666.6666666667,
      "d": 88.54166666665697,
      "v": 64
    },
    {
      "midi": 48,
      "hit": false,
      "t": 86114.58333333334,
      "d": 62.5,
      "v": 54
    },
    {
      "midi": 56,
      "hit": false,
      "t": 86343.75,
      "d": 135.41666666665697,
      "v": 40
    },
    {
      "midi": 64,
      "hit": false,
      "t": 86348.95833333333,
      "d": 145.83333333332848,
      "v": 45
    },
    {
      "midi": 52,
      "hit": false,
      "t": 86359.375,
      "d": 46.875,
      "v": 45
    },
    {
      "midi": 41,
      "hit": false,
      "t": 86359.375,
      "d": 98.95833333332848,
      "v": 39
    },
    {
      "midi": 59,
      "hit": false,
      "t": 86359.375,
      "d": 104.16666666665697,
      "v": 48
    },
    {
      "midi": 64,
      "hit": false,
      "t": 86690.10416666666,
      "d": 296.875,
      "v": 64
    },
    {
      "midi": 60,
      "hit": false,
      "t": 87010.41666666666,
      "d": 72.91666666667152,
      "v": 34
    },
    {
      "midi": 53,
      "hit": false,
      "t": 87020.83333333333,
      "d": 130.20833333332848,
      "v": 35
    },
    {
      "midi": 64,
      "hit": false,
      "t": 87048.17708333333,
      "d": 46.875,
      "v": 44
    },
    {
      "midi": 57,
      "hit": false,
      "t": 87057.29166666666,
      "d": 41.66666666667152,
      "v": 20
    },
    {
      "midi": 56,
      "hit": false,
      "t": 87656.24999999999,
      "d": 145.83333333332848,
      "v": 54
    },
    {
      "midi": 47,
      "hit": false,
      "t": 87661.45833333331,
      "d": 93.75,
      "v": 57
    },
    {
      "midi": 74,
      "hit": false,
      "t": 87677.08333333331,
      "d": 93.75,
      "v": 96
    },
    {
      "midi": 73,
      "hit": false,
      "t": 87848.95833333331,
      "d": 104.16666666667152,
      "v": 74
    },
    {
      "midi": 72,
      "hit": false,
      "t": 88026.04166666666,
      "d": 98.95833333332848,
      "v": 64
    },
    {
      "midi": 71,
      "hit": false,
      "t": 88192.70833333331,
      "d": 109.375,
      "v": 70
    },
    {
      "midi": 62,
      "hit": false,
      "t": 88307.29166666664,
      "d": 41.666666666656965,
      "v": 47
    },
    {
      "midi": 56,
      "hit": false,
      "t": 88322.91666666664,
      "d": 125,
      "v": 36
    },
    {
      "midi": 53,
      "hit": false,
      "t": 88364.5833333333,
      "d": 72.91666666667152,
      "v": 20
    },
    {
      "midi": 65,
      "hit": false,
      "t": 88526.04166666664,
      "d": 41.66666666667152,
      "v": 64
    },
    {
      "midi": 50,
      "hit": false,
      "t": 88807.29166666664,
      "d": 119.79166666667152,
      "v": 43
    },
    {
      "midi": 59,
      "hit": false,
      "t": 88848.95833333331,
      "d": 52.08333333332848,
      "v": 36
    },
    {
      "midi": 43,
      "hit": false,
      "t": 88963.54166666664,
      "d": 130.20833333332848,
      "v": 41
    },
    {
      "midi": 65,
      "hit": false,
      "t": 88984.37499999997,
      "d": 135.41666666667152,
      "v": 71
    },
    {
      "midi": 53,
      "hit": false,
      "t": 88984.37499999997,
      "d": 140.625,
      "v": 45
    },
    {
      "midi": 57,
      "hit": false,
      "t": 89156.24999999997,
      "d": 78.125,
      "v": 60
    },
    {
      "midi": 58,
      "hit": false,
      "t": 89307.29166666664,
      "d": 67.70833333332848,
      "v": 54
    },
    {
      "midi": 62,
      "hit": false,
      "t": 89473.9583333333,
      "d": 93.75,
      "v": 69
    },
    {
      "midi": 58,
      "hit": false,
      "t": 89557.29166666663,
      "d": 151.04166666667152,
      "v": 45
    },
    {
      "midi": 65,
      "hit": false,
      "t": 89630.2083333333,
      "d": 98.95833333332848,
      "v": 66
    },
    {
      "midi": 69,
      "hit": false,
      "t": 89807.29166666663,
      "d": 83.33333333332848,
      "v": 62
    },
    {
      "midi": 70,
      "hit": false,
      "t": 89963.54166666663,
      "d": 67.70833333332848,
      "v": 53
    },
    {
      "midi": 71,
      "hit": false,
      "t": 90104.16666666663,
      "d": 52.08333333332848,
      "v": 57
    },
    {
      "midi": 58,
      "hit": false,
      "t": 90239.58333333328,
      "d": 218.74999999998545,
      "v": 26
    },
    {
      "midi": 74,
      "hit": false,
      "t": 90244.79166666661,
      "d": 140.625,
      "v": 72
    },
    {
      "midi": 48,
      "hit": false,
      "t": 90260.41666666661,
      "d": 93.75,
      "v": 39
    },
    {
      "midi": 71,
      "hit": false,
      "t": 90406.24999999994,
      "d": 52.08333333332848,
      "v": 50
    },
    {
      "midi": 72,
      "hit": false,
      "t": 90552.08333333327,
      "d": 119.79166666667152,
      "v": 46
    },
    {
      "midi": 73,
      "hit": false,
      "t": 90703.12499999994,
      "d": 130.20833333332848,
      "v": 67
    },
    {
      "midi": 75,
      "hit": false,
      "t": 90874.99999999994,
      "d": 145.83333333332848,
      "v": 63
    },
    {
      "midi": 63,
      "hit": false,
      "t": 90880.20833333327,
      "d": 130.20833333332848,
      "v": 33
    },
    {
      "midi": 58,
      "hit": false,
      "t": 90885.4166666666,
      "d": 151.04166666667152,
      "v": 34
    },
    {
      "midi": 52,
      "hit": false,
      "t": 90901.0416666666,
      "d": 130.20833333334303,
      "v": 41
    },
    {
      "midi": 76,
      "hit": false,
      "t": 91052.08333333327,
      "d": 114.58333333332848,
      "v": 67
    },
    {
      "midi": 48,
      "hit": false,
      "t": 91541.6666666666,
      "d": 125,
      "v": 40
    },
    {
      "midi": 41,
      "hit": false,
      "t": 91546.87499999993,
      "d": 88.54166666667152,
      "v": 48
    },
    {
      "midi": 79,
      "hit": false,
      "t": 91546.87499999993,
      "d": 177.08333333334303,
      "v": 77
    },
    {
      "midi": 76,
      "hit": false,
      "t": 91749.99999999994,
      "d": 46.875,
      "v": 45
    },
    {
      "midi": 79,
      "hit": false,
      "t": 91874.99999999994,
      "d": 166.66666666667152,
      "v": 85
    },
    {
      "midi": 76,
      "hit": false,
      "t": 92046.87499999994,
      "d": 114.58333333332848,
      "v": 72
    },
    {
      "midi": 60,
      "hit": false,
      "t": 92208.33333333327,
      "d": 119.79166666667152,
      "v": 29
    },
    {
      "midi": 72,
      "hit": false,
      "t": 92208.33333333327,
      "d": 130.20833333334303,
      "v": 55
    },
    {
      "midi": 53,
      "hit": false,
      "t": 92223.95833333327,
      "d": 57.29166666667152,
      "v": 26
    },
    {
      "midi": 57,
      "hit": false,
      "t": 92239.58333333327,
      "d": 57.29166666667152,
      "v": 26
    },
    {
      "midi": 69,
      "hit": false,
      "t": 92385.41666666661,
      "d": 67.70833333332848,
      "v": 36
    },
    {
      "midi": 64,
      "hit": false,
      "t": 92708.33333333327,
      "d": 57.29166666667152,
      "v": 62
    },
    {
      "midi": 63,
      "hit": false,
      "t": 92838.54166666661,
      "d": 296.875,
      "v": 40
    },
    {
      "midi": 77,
      "hit": false,
      "t": 92848.95833333328,
      "d": 151.04166666667152,
      "v": 71
    },
    {
      "midi": 57,
      "hit": false,
      "t": 92864.58333333328,
      "d": 156.25,
      "v": 33
    },
    {
      "midi": 74,
      "hit": false,
      "t": 93052.08333333328,
      "d": 36.45833333332848,
      "v": 50
    },
    {
      "midi": 75,
      "hit": false,
      "t": 93177.08333333328,
      "d": 390.625,
      "v": 79
    },
    {
      "midi": 63,
      "hit": false,
      "t": 93488.28124999996,
      "d": 489.5833333333285,
      "v": 45
    },
    {
      "midi": 54,
      "hit": false,
      "t": 93499.99999999996,
      "d": 526.041666666657,
      "v": 46
    },
    {
      "midi": 65,
      "hit": false,
      "t": 94156.24999999994,
      "d": 78.125,
      "v": 58
    },
    {
      "midi": 62,
      "hit": false,
      "t": 94156.24999999994,
      "d": 151.04166666667152,
      "v": 51
    },
    {
      "midi": 81,
      "hit": false,
      "t": 94166.66666666661,
      "d": 359.375,
      "v": 103
    },
    {
      "midi": 60,
      "hit": false,
      "t": 94171.87499999994,
      "d": 119.79166666667152,
      "v": 50
    },
    {
      "midi": 77,
      "hit": false,
      "t": 94598.95833333328,
      "d": 223.95833333332848,
      "v": 74
    },
    {
      "midi": 58,
      "hit": false,
      "t": 94776.04166666661,
      "d": 98.95833333332848,
      "v": 32
    },
    {
      "midi": 50,
      "hit": false,
      "t": 94786.45833333328,
      "d": 52.08333333332848,
      "v": 44
    },
    {
      "midi": 74,
      "hit": false,
      "t": 94822.91666666661,
      "d": 140.62499999998545,
      "v": 53
    },
    {
      "midi": 69,
      "hit": false,
      "t": 95031.24999999993,
      "d": 41.66666666667152,
      "v": 39
    },
    {
      "midi": 72,
      "hit": false,
      "t": 95229.1666666666,
      "d": 385.41666666665697,
      "v": 80
    },
    {
      "midi": 65,
      "hit": false,
      "t": 95234.37499999993,
      "d": 677.0833333333285,
      "v": 84
    },
    {
      "midi": 39,
      "hit": false,
      "t": 95421.87499999993,
      "d": 135.41666666665697,
      "v": 46
    },
    {
      "midi": 46,
      "hit": false,
      "t": 95458.33333333326,
      "d": 156.25,
      "v": 39
    },
    {
      "midi": 69,
      "hit": false,
      "t": 95645.83333333326,
      "d": 624.9999999999854,
      "v": 59
    },
    {
      "midi": 61,
      "hit": false,
      "t": 95682.29166666658,
      "d": 385.4166666666715,
      "v": 46
    },
    {
      "midi": 57,
      "hit": false,
      "t": 95869.79166666658,
      "d": 463.54166666665697,
      "v": 76
    },
    {
      "midi": 61,
      "hit": false,
      "t": 96135.41666666658,
      "d": 286.45833333331393,
      "v": 32
    },
    {
      "midi": 65,
      "hit": false,
      "t": 96140.62499999991,
      "d": 177.08333333332848,
      "v": 70
    },
    {
      "midi": 51,
      "hit": false,
      "t": 96338.54166666657,
      "d": 83.33333333332848,
      "v": 50
    },
    {
      "midi": 63,
      "hit": false,
      "t": 96562.4999999999,
      "d": 151.04166666667152,
      "v": 67
    },
    {
      "midi": 52,
      "hit": false,
      "t": 96562.4999999999,
      "d": 208.33333333334303,
      "v": 68
    },
    {
      "midi": 68,
      "hit": false,
      "t": 96562.4999999999,
      "d": 218.75000000001455,
      "v": 60
    },
    {
      "midi": 60,
      "hit": false,
      "t": 96588.54166666657,
      "d": 104.16666666667152,
      "v": 56
    },
    {
      "midi": 60,
      "hit": false,
      "t": 96807.29166666658,
      "d": 62.49999999998545,
      "v": 53
    },
    {
      "midi": 64,
      "hit": false,
      "t": 96812.49999999991,
      "d": 72.91666666665697,
      "v": 60
    },
    {
      "midi": 53,
      "hit": false,
      "t": 96817.70833333324,
      "d": 78.125,
      "v": 57
    },
    {
      "midi": 69,
      "hit": false,
      "t": 96822.91666666657,
      "d": 83.33333333334303,
      "v": 58
    },
    {
      "midi": 62,
      "hit": false,
      "t": 96999.99999999991,
      "d": 375,
      "v": 77
    },
    {
      "midi": 74,
      "hit": false,
      "t": 97010.41666666658,
      "d": 36.45833333332848,
      "v": 59
    },
    {
      "midi": 67,
      "hit": false,
      "t": 97010.41666666658,
      "d": 380.2083333333285,
      "v": 70
    },
    {
      "midi": 72,
      "hit": false,
      "t": 97010.41666666658,
      "d": 390.625,
      "v": 71
    },
    {
      "midi": 57,
      "hit": false,
      "t": 97015.62499999991,
      "d": 411.4583333333285,
      "v": 74
    },
    {
      "midi": 56,
      "hit": false,
      "t": 97442.70833333324,
      "d": 401.0416666667006,
      "v": 50
    },
    {
      "midi": 71,
      "hit": false,
      "t": 97453.12499999991,
      "d": 343.7500000000291,
      "v": 54
    },
    {
      "midi": 62,
      "hit": false,
      "t": 97494.79166666658,
      "d": 88.54166666668607,
      "v": 22
    },
    {
      "midi": 67,
      "hit": false,
      "t": 97505.20833333326,
      "d": 52.083333333343035,
      "v": 34
    },
    {
      "midi": 67,
      "hit": false,
      "t": 97843.74999999994,
      "d": 83.33333333334303,
      "v": 71
    },
    {
      "midi": 72,
      "hit": false,
      "t": 97843.74999999994,
      "d": 109.37500000001455,
      "v": 66
    },
    {
      "midi": 62,
      "hit": false,
      "t": 97854.16666666661,
      "d": 31.25,
      "v": 55
    },
    {
      "midi": 57,
      "hit": false,
      "t": 97854.16666666661,
      "d": 41.66666666667152,
      "v": 36
    },
    {
      "midi": 71,
      "hit": false,
      "t": 97874.99999999994,
      "d": 78.12500000001455,
      "v": 20
    },
    {
      "midi": 76,
      "hit": false,
      "t": 98333.33333333328,
      "d": 218.75,
      "v": 84
    },
    {
      "midi": 66,
      "hit": false,
      "t": 98343.74999999996,
      "d": 203.125,
      "v": 55
    },
    {
      "midi": 62,
      "hit": false,
      "t": 98359.37499999996,
      "d": 177.08333333332848,
      "v": 46
    },
    {
      "midi": 64,
      "hit": false,
      "t": 98364.58333333328,
      "d": 130.20833333332848,
      "v": 52
    },
    {
      "midi": 69,
      "hit": false,
      "t": 98546.87499999996,
      "d": 52.08333333332848,
      "v": 35
    },
    {
      "midi": 68,
      "hit": false,
      "t": 98760.41666666661,
      "d": 286.45833333331393,
      "v": 50
    },
    {
      "midi": 74,
      "hit": false,
      "t": 98765.62499999994,
      "d": 348.95833333331393,
      "v": 60
    },
    {
      "midi": 62,
      "hit": false,
      "t": 98776.04166666661,
      "d": 234.37499999998545,
      "v": 51
    },
    {
      "midi": 71,
      "hit": false,
      "t": 98786.45833333327,
      "d": 281.24999999998545,
      "v": 53
    },
    {
      "midi": 56,
      "hit": false,
      "t": 98786.45833333327,
      "d": 583.3333333333139,
      "v": 45
    },
    {
      "midi": 61,
      "hit": false,
      "t": 99406.24999999991,
      "d": 520.833333333343,
      "v": 37
    },
    {
      "midi": 65,
      "hit": false,
      "t": 99411.45833333324,
      "d": 57.29166666667152,
      "v": 49
    },
    {
      "midi": 72,
      "hit": false,
      "t": 99411.45833333324,
      "d": 67.70833333334303,
      "v": 59
    },
    {
      "midi": 73,
      "hit": false,
      "t": 99484.37499999991,
      "d": 88.54166666667152,
      "v": 64
    },
    {
      "midi": 69,
      "hit": false,
      "t": 99645.83333333326,
      "d": 57.29166666667152,
      "v": 54
    },
    {
      "midi": 70,
      "hit": false,
      "t": 99739.58333333326,
      "d": 72.91666666667152,
      "v": 57
    },
    {
      "midi": 72,
      "hit": false,
      "t": 99864.58333333326,
      "d": 83.33333333332848,
      "v": 60
    },
    {
      "midi": 73,
      "hit": false,
      "t": 99973.95833333326,
      "d": 93.75,
      "v": 61
    },
    {
      "midi": 61,
      "hit": false,
      "t": 100020.83333333326,
      "d": 135.41666666665697,
      "v": 17
    },
    {
      "midi": 55,
      "hit": false,
      "t": 100046.87499999993,
      "d": 104.16666666665697,
      "v": 33
    },
    {
      "midi": 75,
      "hit": false,
      "t": 100083.33333333326,
      "d": 31.25,
      "v": 51
    },
    {
      "midi": 76,
      "hit": false,
      "t": 100182.29166666658,
      "d": 57.29166666667152,
      "v": 54
    },
    {
      "midi": 77,
      "hit": false,
      "t": 100291.66666666658,
      "d": 93.75,
      "v": 46
    },
    {
      "midi": 79,
      "hit": false,
      "t": 100351.56249999991,
      "d": 88.54166666667152,
      "v": 52
    },
    {
      "midi": 81,
      "hit": false,
      "t": 100445.31249999991,
      "d": 88.54166666667152,
      "v": 52
    },
    {
      "midi": 45,
      "hit": false,
      "t": 100677.08333333324,
      "d": 114.58333333332848,
      "v": 49
    },
    {
      "midi": 55,
      "hit": false,
      "t": 100677.08333333324,
      "d": 166.66666666665697,
      "v": 46
    },
    {
      "midi": 86,
      "hit": false,
      "t": 100677.08333333324,
      "d": 250,
      "v": 76
    },
    {
      "midi": 52,
      "hit": false,
      "t": 100723.95833333324,
      "d": 98.95833333332848,
      "v": 22
    },
    {
      "midi": 84,
      "hit": false,
      "t": 100901.04166666657,
      "d": 151.04166666667152,
      "v": 76
    },
    {
      "midi": 83,
      "hit": false,
      "t": 101088.54166666657,
      "d": 130.20833333332848,
      "v": 71
    },
    {
      "midi": 81,
      "hit": false,
      "t": 101307.29166666657,
      "d": 171.875,
      "v": 62
    },
    {
      "midi": 65,
      "hit": false,
      "t": 101307.29166666657,
      "d": 375,
      "v": 45
    },
    {
      "midi": 60,
      "hit": false,
      "t": 101322.91666666657,
      "d": 343.75,
      "v": 36
    },
    {
      "midi": 54,
      "hit": false,
      "t": 101333.33333333324,
      "d": 546.8749999999854,
      "v": 31
    },
    {
      "midi": 58,
      "hit": false,
      "t": 101338.54166666657,
      "d": 494.79166666665697,
      "v": 28
    },
    {
      "midi": 79,
      "hit": false,
      "t": 101499.9999999999,
      "d": 93.75,
      "v": 50
    },
    {
      "midi": 78,
      "hit": false,
      "t": 101677.08333333324,
      "d": 119.79166666665697,
      "v": 46
    },
    {
      "midi": 81,
      "hit": false,
      "t": 101838.54166666656,
      "d": 109.375,
      "v": 64
    },
    {
      "midi": 64,
      "hit": false,
      "t": 101942.70833333323,
      "d": 130.20833333331393,
      "v": 40
    },
    {
      "midi": 53,
      "hit": false,
      "t": 101984.37499999988,
      "d": 161.45833333332848,
      "v": 28
    },
    {
      "midi": 59,
      "hit": false,
      "t": 101989.58333333321,
      "d": 83.33333333332848,
      "v": 35
    },
    {
      "midi": 80,
      "hit": false,
      "t": 102234.37499999988,
      "d": 98.95833333332848,
      "v": 67
    },
    {
      "midi": 80,
      "hit": false,
      "t": 102416.66666666654,
      "d": 36.45833333332848,
      "v": 53
    },
    {
      "midi": 81,
      "hit": false,
      "t": 102453.12499999987,
      "d": 541.6666666666715,
      "v": 80
    },
    {
      "midi": 43,
      "hit": false,
      "t": 102645.8333333332,
      "d": 166.66666666667152,
      "v": 50
    },
    {
      "midi": 76,
      "hit": false,
      "t": 102661.4583333332,
      "d": 385.4166666666715,
      "v": 57
    },
    {
      "midi": 71,
      "hit": false,
      "t": 103088.54166666654,
      "d": 281.24999999998545,
      "v": 35
    },
    {
      "midi": 60,
      "hit": false,
      "t": 103343.74999999987,
      "d": 312.5,
      "v": 34
    },
    {
      "midi": 54,
      "hit": false,
      "t": 103343.74999999987,
      "d": 479.16666666665697,
      "v": 35
    },
    {
      "midi": 64,
      "hit": false,
      "t": 103489.5833333332,
      "d": 197.91666666667152,
      "v": 1
    },
    {
      "midi": 71,
      "hit": false,
      "t": 103770.8333333332,
      "d": 536.4583333333285,
      "v": 59
    },
    {
      "midi": 64,
      "hit": false,
      "t": 103984.37499999985,
      "d": 52.08333333332848,
      "v": 39
    },
    {
      "midi": 59,
      "hit": false,
      "t": 104005.20833333318,
      "d": 57.29166666667152,
      "v": 40
    },
    {
      "midi": 53,
      "hit": false,
      "t": 104015.62499999985,
      "d": 125,
      "v": 30
    },
    {
      "midi": 67,
      "hit": false,
      "t": 104015.62499999985,
      "d": 328.125,
      "v": 47
    },
    {
      "midi": 43,
      "hit": false,
      "t": 104458.33333333318,
      "d": 536.4583333333139,
      "v": 61
    },
    {
      "midi": 65,
      "hit": false,
      "t": 104666.66666666651,
      "d": 166.66666666665697,
      "v": 70
    },
    {
      "midi": 58,
      "hit": false,
      "t": 104682.29166666651,
      "d": 296.87499999998545,
      "v": 60
    },
    {
      "midi": 55,
      "hit": false,
      "t": 104687.49999999984,
      "d": 114.58333333332848,
      "v": 68
    },
    {
      "midi": 53,
      "hit": false,
      "t": 104703.12499999984,
      "d": 114.58333333332848,
      "v": 64
    },
    {
      "midi": 61,
      "hit": false,
      "t": 104880.20833333317,
      "d": 125,
      "v": 51
    },
    {
      "midi": 49,
      "hit": false,
      "t": 104880.20833333317,
      "d": 140.625,
      "v": 39
    },
    {
      "midi": 62,
      "hit": false,
      "t": 105083.33333333317,
      "d": 135.41666666665697,
      "v": 49
    },
    {
      "midi": 50,
      "hit": false,
      "t": 105124.99999999983,
      "d": 166.66666666667152,
      "v": 51
    },
    {
      "midi": 65,
      "hit": false,
      "t": 105265.62499999983,
      "d": 62.50000000001455,
      "v": 66
    },
    {
      "midi": 55,
      "hit": false,
      "t": 105276.0416666665,
      "d": 41.66666666667152,
      "v": 42
    },
    {
      "midi": 53,
      "hit": false,
      "t": 105348.95833333317,
      "d": 36.45833333332848,
      "v": 34
    },
    {
      "midi": 58,
      "hit": false,
      "t": 105494.7916666665,
      "d": 203.12499999998545,
      "v": 74
    },
    {
      "midi": 62,
      "hit": false,
      "t": 105505.20833333317,
      "d": 218.74999999998545,
      "v": 69
    },
    {
      "midi": 69,
      "hit": false,
      "t": 105505.20833333317,
      "d": 249.99999999998545,
      "v": 62
    },
    {
      "midi": 57,
      "hit": false,
      "t": 105515.62499999983,
      "d": 250,
      "v": 60
    },
    {
      "midi": 55,
      "hit": false,
      "t": 105520.83333333315,
      "d": 223.95833333332848,
      "v": 64
    },
    {
      "midi": 65,
      "hit": false,
      "t": 105526.04166666648,
      "d": 182.29166666667152,
      "v": 37
    },
    {
      "midi": 58,
      "hit": false,
      "t": 105953.12499999983,
      "d": 213.54166666665697,
      "v": 56
    },
    {
      "midi": 72,
      "hit": false,
      "t": 105953.12499999983,
      "d": 265.625,
      "v": 81
    },
    {
      "midi": 68,
      "hit": false,
      "t": 105953.12499999983,
      "d": 281.25,
      "v": 80
    },
    {
      "midi": 64,
      "hit": false,
      "t": 105958.33333333315,
      "d": 312.5,
      "v": 87
    },
    {
      "midi": 66,
      "hit": false,
      "t": 105963.54166666648,
      "d": 244.79166666667152,
      "v": 69
    },
    {
      "midi": 64,
      "hit": false,
      "t": 106447.91666666648,
      "d": 489.5833333333285,
      "v": 80
    },
    {
      "midi": 68,
      "hit": false,
      "t": 106447.91666666648,
      "d": 505.2083333333285,
      "v": 74
    },
    {
      "midi": 60,
      "hit": false,
      "t": 106458.33333333315,
      "d": 557.291666666657,
      "v": 67
    },
    {
      "midi": 56,
      "hit": false,
      "t": 106468.74999999983,
      "d": 401.04166666665697,
      "v": 46
    },
    {
      "midi": 48,
      "hit": false,
      "t": 106473.95833333315,
      "d": 348.9583333333285,
      "v": 62
    },
    {
      "midi": 67,
      "hit": false,
      "t": 107468.74999999981,
      "d": 406.25,
      "v": 54
    },
    {
      "midi": 57,
      "hit": false,
      "t": 107484.37499999981,
      "d": 338.54166666665697,
      "v": 67
    },
    {
      "midi": 60,
      "hit": false,
      "t": 107484.37499999981,
      "d": 380.2083333333285,
      "v": 61
    },
    {
      "midi": 64,
      "hit": false,
      "t": 107489.58333333314,
      "d": 312.5,
      "v": 49
    },
    {
      "midi": 52,
      "hit": false,
      "t": 107489.58333333314,
      "d": 359.375,
      "v": 57
    },
    {
      "midi": 65,
      "hit": false,
      "t": 107510.41666666647,
      "d": 41.66666666667152,
      "v": 35
    },
    {
      "midi": 64,
      "hit": false,
      "t": 107947.91666666648,
      "d": 114.58333333332848,
      "v": 39
    },
    {
      "midi": 48,
      "hit": false,
      "t": 107963.54166666648,
      "d": 182.29166666665697,
      "v": 37
    },
    {
      "midi": 65,
      "hit": false,
      "t": 108161.45833333314,
      "d": 223.95833333334303,
      "v": 66
    },
    {
      "midi": 50,
      "hit": false,
      "t": 108166.66666666647,
      "d": 171.87500000001455,
      "v": 43
    },
    {
      "midi": 60,
      "hit": false,
      "t": 108171.8749999998,
      "d": 156.25000000001455,
      "v": 46
    },
    {
      "midi": 57,
      "hit": false,
      "t": 108182.29166666647,
      "d": 197.91666666668607,
      "v": 39
    },
    {
      "midi": 67,
      "hit": false,
      "t": 108598.95833333315,
      "d": 78.12499999998545,
      "v": 61
    },
    {
      "midi": 53,
      "hit": false,
      "t": 108604.16666666648,
      "d": 135.41666666665697,
      "v": 64
    },
    {
      "midi": 60,
      "hit": false,
      "t": 108609.37499999981,
      "d": 83.33333333332848,
      "v": 67
    },
    {
      "midi": 66,
      "hit": false,
      "t": 108609.37499999981,
      "d": 93.75,
      "v": 42
    },
    {
      "midi": 57,
      "hit": false,
      "t": 108614.58333333314,
      "d": 93.75,
      "v": 64
    },
    {
      "midi": 65,
      "hit": false,
      "t": 108859.37499999981,
      "d": 151.04166666667152,
      "v": 58
    },
    {
      "midi": 62,
      "hit": false,
      "t": 108869.79166666648,
      "d": 114.58333333332848,
      "v": 46
    },
    {
      "midi": 56,
      "hit": false,
      "t": 108880.20833333315,
      "d": 83.33333333332848,
      "v": 40
    },
    {
      "midi": 44,
      "hit": false,
      "t": 108880.20833333315,
      "d": 109.37499999998545,
      "v": 46
    },
    {
      "midi": 59,
      "hit": false,
      "t": 108885.41666666648,
      "d": 93.75,
      "v": 44
    },
    {
      "midi": 53,
      "hit": false,
      "t": 108885.41666666648,
      "d": 114.58333333332848,
      "v": 50
    },
    {
      "midi": 77,
      "hit": false,
      "t": 109385.41666666648,
      "d": 229.16666666667152,
      "v": 90
    },
    {
      "midi": 68,
      "hit": false,
      "t": 109390.62499999981,
      "d": 265.62500000001455,
      "v": 86
    },
    {
      "midi": 59,
      "hit": false,
      "t": 109401.04166666648,
      "d": 432.2916666666715,
      "v": 81
    },
    {
      "midi": 71,
      "hit": false,
      "t": 109406.24999999981,
      "d": 192.70833333334303,
      "v": 75
    },
    {
      "midi": 56,
      "hit": false,
      "t": 109848.95833333315,
      "d": 41.666666666656965,
      "v": 50
    },
    {
      "midi": 74,
      "hit": false,
      "t": 109854.16666666648,
      "d": 41.666666666656965,
      "v": 66
    },
    {
      "midi": 68,
      "hit": false,
      "t": 109854.16666666648,
      "d": 72.91666666665697,
      "v": 57
    },
    {
      "midi": 65,
      "hit": false,
      "t": 109859.37499999981,
      "d": 41.666666666656965,
      "v": 67
    },
    {
      "midi": 44,
      "hit": false,
      "t": 110057.29166666647,
      "d": 83.33333333332848,
      "v": 47
    },
    {
      "midi": 43,
      "hit": false,
      "t": 110255.20833333312,
      "d": 114.58333333334303,
      "v": 53
    },
    {
      "midi": 58,
      "hit": false,
      "t": 110281.2499999998,
      "d": 140.625,
      "v": 37
    },
    {
      "midi": 62,
      "hit": false,
      "t": 110281.2499999998,
      "d": 145.83333333332848,
      "v": 54
    },
    {
      "midi": 53,
      "hit": false,
      "t": 110291.66666666647,
      "d": 135.41666666665697,
      "v": 34
    },
    {
      "midi": 65,
      "hit": false,
      "t": 110291.66666666647,
      "d": 166.66666666665697,
      "v": 51
    },
    {
      "midi": 62,
      "hit": false,
      "t": 110968.7499999998,
      "d": 78.12500000001455,
      "v": 46
    },
    {
      "midi": 58,
      "hit": false,
      "t": 110994.79166666647,
      "d": 151.04166666667152,
      "v": 30
    },
    {
      "midi": 60,
      "hit": false,
      "t": 111005.20833333314,
      "d": 46.875,
      "v": 35
    },
    {
      "midi": 74,
      "hit": false,
      "t": 111182.29166666647,
      "d": 98.95833333334303,
      "v": 66
    },
    {
      "midi": 75,
      "hit": false,
      "t": 111239.58333333314,
      "d": 67.70833333334303,
      "v": 59
    },
    {
      "midi": 76,
      "hit": false,
      "t": 111296.87499999981,
      "d": 78.125,
      "v": 73
    },
    {
      "midi": 77,
      "hit": false,
      "t": 111416.66666666648,
      "d": 151.04166666667152,
      "v": 62
    },
    {
      "midi": 76,
      "hit": false,
      "t": 111536.45833333315,
      "d": 88.54166666667152,
      "v": 53
    },
    {
      "midi": 75,
      "hit": false,
      "t": 111624.99999999983,
      "d": 78.125,
      "v": 44
    },
    {
      "midi": 63,
      "hit": false,
      "t": 111661.45833333315,
      "d": 223.95833333332848,
      "v": 31
    },
    {
      "midi": 58,
      "hit": false,
      "t": 111671.87499999983,
      "d": 260.41666666665697,
      "v": 33
    },
    {
      "midi": 52,
      "hit": false,
      "t": 111682.2916666665,
      "d": 208.33333333331393,
      "v": 40
    },
    {
      "midi": 74,
      "hit": false,
      "t": 111723.95833333315,
      "d": 52.08333333332848,
      "v": 33
    },
    {
      "midi": 76,
      "hit": false,
      "t": 111859.37499999981,
      "d": 171.875,
      "v": 84
    },
    {
      "midi": 75,
      "hit": false,
      "t": 112036.45833333314,
      "d": 119.79166666665697,
      "v": 74
    },
    {
      "midi": 73,
      "hit": false,
      "t": 112177.08333333312,
      "d": 156.25,
      "v": 62
    },
    {
      "midi": 72,
      "hit": false,
      "t": 112338.54166666645,
      "d": 104.16666666665697,
      "v": 59
    },
    {
      "midi": 58,
      "hit": false,
      "t": 112374.99999999978,
      "d": 145.83333333332848,
      "v": 26
    },
    {
      "midi": 48,
      "hit": false,
      "t": 112374.99999999978,
      "d": 161.45833333332848,
      "v": 43
    },
    {
      "midi": 70,
      "hit": false,
      "t": 112510.41666666644,
      "d": 72.91666666667152,
      "v": 48
    },
    {
      "midi": 69,
      "hit": false,
      "t": 112666.66666666644,
      "d": 67.70833333334303,
      "v": 48
    },
    {
      "midi": 41,
      "hit": false,
      "t": 112984.37499999978,
      "d": 182.29166666665697,
      "v": 24
    },
    {
      "midi": 69,
      "hit": false,
      "t": 112989.58333333311,
      "d": 125,
      "v": 64
    },
    {
      "midi": 57,
      "hit": false,
      "t": 113083.33333333311,
      "d": 130.20833333332848,
      "v": 28
    },
    {
      "midi": 67,
      "hit": false,
      "t": 113161.45833333311,
      "d": 244.79166666665697,
      "v": 55
    },
    {
      "midi": 64,
      "hit": false,
      "t": 113427.0833333331,
      "d": 41.66666666667152,
      "v": 37
    },
    {
      "midi": 62,
      "hit": false,
      "t": 113776.04166666644,
      "d": 98.95833333332848,
      "v": 49
    },
    {
      "midi": 53,
      "hit": false,
      "t": 113796.87499999977,
      "d": 83.33333333332848,
      "v": 36
    },
    {
      "midi": 60,
      "hit": false,
      "t": 113802.0833333331,
      "d": 109.375,
      "v": 44
    },
    {
      "midi": 57,
      "hit": false,
      "t": 113828.12499999977,
      "d": 57.291666666656965,
      "v": 32
    },
    {
      "midi": 72,
      "hit": false,
      "t": 114041.66666666642,
      "d": 78.125,
      "v": 68
    },
    {
      "midi": 77,
      "hit": false,
      "t": 114239.5833333331,
      "d": 156.25,
      "v": 96
    },
    {
      "midi": 62,
      "hit": false,
      "t": 114447.91666666642,
      "d": 406.25000000001455,
      "v": 55
    },
    {
      "midi": 63,
      "hit": false,
      "t": 114458.3333333331,
      "d": 583.333333333343,
      "v": 37
    },
    {
      "midi": 67,
      "hit": false,
      "t": 114463.54166666642,
      "d": 437.50000000001455,
      "v": 47
    },
    {
      "midi": 58,
      "hit": false,
      "t": 114473.9583333331,
      "d": 546.8750000000146,
      "v": 35
    },
    {
      "midi": 74,
      "hit": false,
      "t": 114494.79166666642,
      "d": 182.29166666667152,
      "v": 71
    },
    {
      "midi": 77,
      "hit": false,
      "t": 114708.3333333331,
      "d": 385.4166666666715,
      "v": 66
    },
    {
      "midi": 63,
      "hit": false,
      "t": 115135.41666666644,
      "d": 411.4583333333285,
      "v": 32
    },
    {
      "midi": 73,
      "hit": false,
      "t": 115140.62499999977,
      "d": 260.4166666666715,
      "v": 59
    },
    {
      "midi": 66,
      "hit": false,
      "t": 115140.62499999977,
      "d": 447.9166666666715,
      "v": 45
    },
    {
      "midi": 57,
      "hit": false,
      "t": 115161.4583333331,
      "d": 411.45833333334303,
      "v": 36
    },
    {
      "midi": 61,
      "hit": false,
      "t": 115171.87499999977,
      "d": 375,
      "v": 42
    },
    {
      "midi": 77,
      "hit": false,
      "t": 115416.66666666644,
      "d": 385.4166666666715,
      "v": 43
    },
    {
      "midi": 65,
      "hit": false,
      "t": 115843.74999999978,
      "d": 187.5,
      "v": 47
    },
    {
      "midi": 72,
      "hit": false,
      "t": 115859.37499999978,
      "d": 317.7083333333285,
      "v": 53
    },
    {
      "midi": 62,
      "hit": false,
      "t": 115864.58333333311,
      "d": 1088.5416666666715,
      "v": 35
    },
    {
      "midi": 60,
      "hit": false,
      "t": 115911.45833333311,
      "d": 1093.75,
      "v": 24
    },
    {
      "midi": 69,
      "hit": false,
      "t": 116109.37499999978,
      "d": 302.0833333333285,
      "v": 47
    },
    {
      "midi": 53,
      "hit": false,
      "t": 116338.54166666644,
      "d": 614.583333333343,
      "v": 68
    },
    {
      "midi": 70,
      "hit": false,
      "t": 116796.87499999978,
      "d": 119.79166666667152,
      "v": 77
    },
    {
      "midi": 72,
      "hit": false,
      "t": 117010.41666666644,
      "d": 208.33333333332848,
      "v": 76
    },
    {
      "midi": 61,
      "hit": false,
      "t": 117281.24999999977,
      "d": 187.5,
      "v": 33
    },
    {
      "midi": 69,
      "hit": false,
      "t": 117281.24999999977,
      "d": 416.6666666666715,
      "v": 40
    },
    {
      "midi": 65,
      "hit": false,
      "t": 117286.4583333331,
      "d": 359.37500000001455,
      "v": 28
    },
    {
      "midi": 55,
      "hit": false,
      "t": 117296.87499999977,
      "d": 182.29166666667152,
      "v": 33
    },
    {
      "midi": 61,
      "hit": false,
      "t": 117739.58333333311,
      "d": 255.20833333332848,
      "v": 55
    },
    {
      "midi": 39,
      "hit": false,
      "t": 117963.54166666644,
      "d": 119.79166666667152,
      "v": 47
    },
    {
      "midi": 46,
      "hit": false,
      "t": 117989.58333333311,
      "d": 114.58333333332848,
      "v": 34
    },
    {
      "midi": 83,
      "hit": false,
      "t": 118265.62499999977,
      "d": 109.375,
      "v": 72
    },
    {
      "midi": 71,
      "hit": false,
      "t": 118270.8333333331,
      "d": 78.125,
      "v": 66
    },
    {
      "midi": 84,
      "hit": false,
      "t": 118494.79166666644,
      "d": 135.41666666665697,
      "v": 79
    },
    {
      "midi": 72,
      "hit": false,
      "t": 118499.99999999977,
      "d": 83.33333333332848,
      "v": 68
    },
    {
      "midi": 41,
      "hit": false,
      "t": 118692.7083333331,
      "d": 88.54166666665697,
      "v": 42
    },
    {
      "midi": 57,
      "hit": false,
      "t": 118713.54166666642,
      "d": 93.75,
      "v": 40
    },
    {
      "midi": 76,
      "hit": false,
      "t": 118963.54166666642,
      "d": 41.66666666667152,
      "v": 55
    },
    {
      "midi": 88,
      "hit": false,
      "t": 118963.54166666642,
      "d": 78.125,
      "v": 54
    },
    {
      "midi": 77,
      "hit": false,
      "t": 119187.49999999975,
      "d": 57.29166666667152,
      "v": 66
    },
    {
      "midi": 89,
      "hit": false,
      "t": 119187.49999999975,
      "d": 78.125,
      "v": 74
    },
    {
      "midi": 60,
      "hit": false,
      "t": 119416.66666666642,
      "d": 72.91666666664241,
      "v": 45
    },
    {
      "midi": 53,
      "hit": false,
      "t": 119421.87499999975,
      "d": 41.666666666656965,
      "v": 40
    },
    {
      "midi": 62,
      "hit": false,
      "t": 119427.08333333308,
      "d": 36.45833333332848,
      "v": 43
    },
    {
      "midi": 57,
      "hit": false,
      "t": 119437.49999999974,
      "d": 46.875,
      "v": 35
    },
    {
      "midi": 57,
      "hit": false,
      "t": 119869.7916666664,
      "d": 223.95833333332848,
      "v": 77
    },
    {
      "midi": 57,
      "hit": false,
      "t": 120130.20833333305,
      "d": 421.87499999998545,
      "v": 48
    },
    {
      "midi": 85,
      "hit": false,
      "t": 120135.41666666638,
      "d": 421.87499999998545,
      "v": 80
    },
    {
      "midi": 81,
      "hit": false,
      "t": 120140.62499999971,
      "d": 401.04166666665697,
      "v": 89
    },
    {
      "midi": 88,
      "hit": false,
      "t": 120140.62499999971,
      "d": 453.12499999998545,
      "v": 89
    },
    {
      "midi": 76,
      "hit": false,
      "t": 120145.83333333304,
      "d": 458.3333333333285,
      "v": 87
    },
    {
      "midi": 66,
      "hit": false,
      "t": 120145.83333333304,
      "d": 500,
      "v": 77
    },
    {
      "midi": 62,
      "hit": false,
      "t": 120151.04166666637,
      "d": 515.625,
      "v": 71
    },
    {
      "midi": 86,
      "hit": false,
      "t": 120838.54166666637,
      "d": 276.04166666665697,
      "v": 74
    },
    {
      "midi": 66,
      "hit": false,
      "t": 120843.7499999997,
      "d": 401.04166666665697,
      "v": 59
    },
    {
      "midi": 62,
      "hit": false,
      "t": 120848.95833333302,
      "d": 317.7083333333285,
      "v": 56
    },
    {
      "midi": 56,
      "hit": false,
      "t": 120854.16666666635,
      "d": 583.3333333333285,
      "v": 61
    },
    {
      "midi": 80,
      "hit": false,
      "t": 120859.37499999968,
      "d": 307.2916666666715,
      "v": 59
    },
    {
      "midi": 76,
      "hit": false,
      "t": 120869.79166666635,
      "d": 281.25,
      "v": 62
    },
    {
      "midi": 85,
      "hit": false,
      "t": 121572.91666666635,
      "d": 328.125,
      "v": 91
    },
    {
      "midi": 77,
      "hit": false,
      "t": 121583.33333333302,
      "d": 145.83333333332848,
      "v": 82
    },
    {
      "midi": 73,
      "hit": false,
      "t": 121583.33333333302,
      "d": 218.75,
      "v": 79
    },
    {
      "midi": 61,
      "hit": false,
      "t": 121593.7499999997,
      "d": 546.8749999999854,
      "v": 64
    },
    {
      "midi": 65,
      "hit": false,
      "t": 121598.95833333302,
      "d": 322.91666666665697,
      "v": 75
    },
    {
      "midi": 56,
      "hit": false,
      "t": 121598.95833333302,
      "d": 390.62499999998545,
      "v": 69
    },
    {
      "midi": 81,
      "hit": false,
      "t": 121848.95833333302,
      "d": 140.62499999998545,
      "v": 62
    },
    {
      "midi": 77,
      "hit": false,
      "t": 121947.91666666635,
      "d": 46.87499999998545,
      "v": 49
    },
    {
      "midi": 73,
      "hit": false,
      "t": 121968.74999999968,
      "d": 72.91666666665697,
      "v": 50
    },
    {
      "midi": 82,
      "hit": false,
      "t": 122041.66666666634,
      "d": 41.66666666667152,
      "v": 18
    },
    {
      "midi": 72,
      "hit": false,
      "t": 122067.70833333301,
      "d": 161.45833333334303,
      "v": 55
    },
    {
      "midi": 61,
      "hit": false,
      "t": 122249.9999999997,
      "d": 406.25,
      "v": 25
    },
    {
      "midi": 65,
      "hit": false,
      "t": 122255.20833333302,
      "d": 229.16666666667152,
      "v": 41
    },
    {
      "midi": 70,
      "hit": false,
      "t": 122265.6249999997,
      "d": 229.16666666667152,
      "v": 61
    },
    {
      "midi": 55,
      "hit": false,
      "t": 122265.6249999997,
      "d": 453.125,
      "v": 40
    },
    {
      "midi": 69,
      "hit": false,
      "t": 122468.7499999997,
      "d": 182.29166666667152,
      "v": 51
    },
    {
      "midi": 69,
      "hit": false,
      "t": 122802.08333333302,
      "d": 135.41666666667152,
      "v": 18
    },
    {
      "midi": 64,
      "hit": false,
      "t": 122953.1249999997,
      "d": 515.6250000000146,
      "v": 55
    },
    {
      "midi": 60,
      "hit": false,
      "t": 122963.54166666637,
      "d": 630.208333333343,
      "v": 43
    },
    {
      "midi": 54,
      "hit": false,
      "t": 122968.7499999997,
      "d": 57.29166666667152,
      "v": 34
    },
    {
      "midi": 55,
      "hit": false,
      "t": 123406.24999999971,
      "d": 31.25,
      "v": 64
    },
    {
      "midi": 66,
      "hit": false,
      "t": 123640.62499999971,
      "d": 380.20833333334303,
      "v": 60
    },
    {
      "midi": 64,
      "hit": false,
      "t": 123661.45833333305,
      "d": 369.7916666666715,
      "v": 64
    },
    {
      "midi": 54,
      "hit": false,
      "t": 123666.66666666638,
      "d": 36.45833333332848,
      "v": 34
    },
    {
      "midi": 43,
      "hit": false,
      "t": 124098.95833333305,
      "d": 947.9166666666424,
      "v": 76
    },
    {
      "midi": 61,
      "hit": false,
      "t": 124593.74999999971,
      "d": 223.95833333332848,
      "v": 56
    },
    {
      "midi": 53,
      "hit": false,
      "t": 124609.37499999971,
      "d": 83.33333333332848,
      "v": 60
    },
    {
      "midi": 58,
      "hit": false,
      "t": 124614.58333333304,
      "d": 114.58333333332848,
      "v": 40
    },
    {
      "midi": 49,
      "hit": false,
      "t": 124614.58333333304,
      "d": 156.25,
      "v": 46
    },
    {
      "midi": 62,
      "hit": false,
      "t": 124807.29166666637,
      "d": 41.66666666667152,
      "v": 66
    },
    {
      "midi": 50,
      "hit": false,
      "t": 124833.33333333304,
      "d": 182.29166666665697,
      "v": 58
    },
    {
      "midi": 63,
      "hit": false,
      "t": 125031.2499999997,
      "d": 182.29166666665697,
      "v": 59
    },
    {
      "midi": 57,
      "hit": false,
      "t": 125046.8749999997,
      "d": 98.95833333332848,
      "v": 52
    },
    {
      "midi": 53,
      "hit": false,
      "t": 125046.8749999997,
      "d": 302.0833333333285,
      "v": 75
    },
    {
      "midi": 67,
      "hit": false,
      "t": 125052.08333333302,
      "d": 98.95833333332848,
      "v": 55
    },
    {
      "midi": 65,
      "hit": false,
      "t": 125052.08333333302,
      "d": 130.20833333332848,
      "v": 65
    },
    {
      "midi": 62,
      "hit": false,
      "t": 125067.70833333302,
      "d": 125,
      "v": 44
    },
    {
      "midi": 60,
      "hit": false,
      "t": 125072.91666666635,
      "d": 104.16666666667152,
      "v": 43
    },
    {
      "midi": 62,
      "hit": false,
      "t": 125458.33333333302,
      "d": 260.41666666665697,
      "v": 80
    },
    {
      "midi": 57,
      "hit": false,
      "t": 125463.54166666635,
      "d": 338.54166666665697,
      "v": 77
    },
    {
      "midi": 58,
      "hit": false,
      "t": 125468.74999999968,
      "d": 250,
      "v": 65
    },
    {
      "midi": 69,
      "hit": false,
      "t": 125468.74999999968,
      "d": 276.04166666665697,
      "v": 79
    },
    {
      "midi": 65,
      "hit": false,
      "t": 125473.95833333301,
      "d": 250,
      "v": 68
    },
    {
      "midi": 72,
      "hit": false,
      "t": 126151.04166666634,
      "d": 421.87499999998545,
      "v": 80
    },
    {
      "midi": 64,
      "hit": false,
      "t": 126156.24999999967,
      "d": 484.37499999998545,
      "v": 80
    },
    {
      "midi": 58,
      "hit": false,
      "t": 126161.458333333,
      "d": 484.37499999998545,
      "v": 64
    },
    {
      "midi": 48,
      "hit": false,
      "t": 126166.66666666632,
      "d": 328.125,
      "v": 56
    },
    {
      "midi": 69,
      "hit": false,
      "t": 126166.66666666632,
      "d": 442.7083333333285,
      "v": 74
    },
    {
      "midi": 48,
      "hit": false,
      "t": 126854.16666666631,
      "d": 557.2916666666715,
      "v": 68
    },
    {
      "midi": 65,
      "hit": false,
      "t": 127322.91666666631,
      "d": 208.33333333334303,
      "v": 66
    },
    {
      "midi": 57,
      "hit": false,
      "t": 127328.12499999964,
      "d": 187.50000000001455,
      "v": 62
    },
    {
      "midi": 55,
      "hit": false,
      "t": 127338.54166666631,
      "d": 161.45833333334303,
      "v": 64
    },
    {
      "midi": 60,
      "hit": false,
      "t": 127338.54166666631,
      "d": 208.33333333334303,
      "v": 53
    },
    {
      "midi": 48,
      "hit": false,
      "t": 127557.29166666632,
      "d": 937.5000000000146,
      "v": 73
    },
    {
      "midi": 50,
      "hit": false,
      "t": 127578.12499999967,
      "d": 36.45833333332848,
      "v": 37
    },
    {
      "midi": 57,
      "hit": false,
      "t": 127791.66666666634,
      "d": 286.4583333333285,
      "v": 68
    },
    {
      "midi": 60,
      "hit": false,
      "t": 127796.87499999967,
      "d": 312.5,
      "v": 56
    },
    {
      "midi": 65,
      "hit": false,
      "t": 127796.87499999967,
      "d": 515.625,
      "v": 58
    },
    {
      "midi": 55,
      "hit": false,
      "t": 127802.083333333,
      "d": 265.625,
      "v": 72
    },
    {
      "midi": 65,
      "hit": false,
      "t": 128520.83333333301,
      "d": 348.9583333333285,
      "v": 78
    },
    {
      "midi": 61,
      "hit": false,
      "t": 128520.83333333301,
      "d": 375,
      "v": 74
    },
    {
      "midi": 57,
      "hit": false,
      "t": 128531.24999999968,
      "d": 281.24999999998545,
      "v": 79
    },
    {
      "midi": 47,
      "hit": false,
      "t": 128541.66666666634,
      "d": 1093.75,
      "v": 65
    },
    {
      "midi": 68,
      "hit": false,
      "t": 129249.99999999968,
      "d": 552.0833333333139,
      "v": 85
    },
    {
      "midi": 65,
      "hit": false,
      "t": 129255.20833333301,
      "d": 432.29166666665697,
      "v": 80
    },
    {
      "midi": 61,
      "hit": false,
      "t": 129260.41666666634,
      "d": 442.7083333333285,
      "v": 83
    },
    {
      "midi": 51,
      "hit": false,
      "t": 129260.41666666634,
      "d": 598.9583333333285,
      "v": 71
    },
    {
      "midi": 57,
      "hit": false,
      "t": 129265.62499999967,
      "d": 458.3333333333285,
      "v": 78
    },
    {
      "midi": 64,
      "hit": false,
      "t": 129286.458333333,
      "d": 41.66666666667152,
      "v": 32
    },
    {
      "midi": 65,
      "hit": false,
      "t": 129958.333333333,
      "d": 161.45833333334303,
      "v": 52
    },
    {
      "midi": 57,
      "hit": false,
      "t": 129973.958333333,
      "d": 88.54166666667152,
      "v": 53
    },
    {
      "midi": 62,
      "hit": false,
      "t": 129973.958333333,
      "d": 130.20833333334303,
      "v": 54
    },
    {
      "midi": 53,
      "hit": false,
      "t": 129989.583333333,
      "d": 145.83333333334303,
      "v": 42
    },
    {
      "midi": 46,
      "hit": false,
      "t": 129994.79166666632,
      "d": 156.25000000001455,
      "v": 50
    },
    {
      "midi": 79,
      "hit": false,
      "t": 130442.70833333301,
      "d": 166.66666666667152,
      "v": 90
    },
    {
      "midi": 65,
      "hit": false,
      "t": 130624.99999999968,
      "d": 41.666666666656965,
      "v": 48
    },
    {
      "midi": 62,
      "hit": false,
      "t": 130640.62499999968,
      "d": 72.91666666665697,
      "v": 40
    },
    {
      "midi": 60,
      "hit": false,
      "t": 130661.45833333301,
      "d": 62.5,
      "v": 32
    },
    {
      "midi": 75,
      "hit": false,
      "t": 130838.54166666634,
      "d": 67.70833333332848,
      "v": 48
    },
    {
      "midi": 76,
      "hit": false,
      "t": 130989.583333333,
      "d": 104.16666666665697,
      "v": 58
    },
    {
      "midi": 77,
      "hit": false,
      "t": 131156.24999999965,
      "d": 93.75,
      "v": 65
    },
    {
      "midi": 50,
      "hit": false,
      "t": 131317.708333333,
      "d": 197.91666666665697,
      "v": 49
    },
    {
      "midi": 81,
      "hit": false,
      "t": 131333.333333333,
      "d": 151.04166666665697,
      "v": 73
    },
    {
      "midi": 58,
      "hit": false,
      "t": 131333.333333333,
      "d": 239.58333333334303,
      "v": 25
    },
    {
      "midi": 69,
      "hit": false,
      "t": 131536.458333333,
      "d": 296.8750000000291,
      "v": 53
    },
    {
      "midi": 65,
      "hit": false,
      "t": 131984.37499999968,
      "d": 317.70833333334303,
      "v": 52
    },
    {
      "midi": 58,
      "hit": false,
      "t": 131999.99999999968,
      "d": 359.375,
      "v": 35
    },
    {
      "midi": 60,
      "hit": false,
      "t": 132005.20833333302,
      "d": 296.875,
      "v": 36
    },
    {
      "midi": 54,
      "hit": false,
      "t": 132020.83333333302,
      "d": 437.5,
      "v": 43
    },
    {
      "midi": 84,
      "hit": false,
      "t": 132442.70833333302,
      "d": 135.41666666665697,
      "v": 94
    },
    {
      "midi": 62,
      "hit": false,
      "t": 132624.99999999968,
      "d": 62.5,
      "v": 44
    },
    {
      "midi": 55,
      "hit": false,
      "t": 132624.99999999968,
      "d": 130.20833333334303,
      "v": 51
    },
    {
      "midi": 58,
      "hit": false,
      "t": 132640.62499999968,
      "d": 98.95833333334303,
      "v": 34
    },
    {
      "midi": 82,
      "hit": false,
      "t": 132661.45833333302,
      "d": 145.83333333334303,
      "v": 69
    },
    {
      "midi": 78,
      "hit": false,
      "t": 132843.7499999997,
      "d": 52.083333333343035,
      "v": 37
    },
    {
      "midi": 81,
      "hit": false,
      "t": 132984.3749999997,
      "d": 119.79166666665697,
      "v": 83
    },
    {
      "midi": 79,
      "hit": false,
      "t": 133161.45833333302,
      "d": 140.625,
      "v": 68
    },
    {
      "midi": 50,
      "hit": false,
      "t": 133270.83333333302,
      "d": 276.04166666668607,
      "v": 40
    },
    {
      "midi": 43,
      "hit": false,
      "t": 133276.04166666637,
      "d": 218.75,
      "v": 41
    },
    {
      "midi": 74,
      "hit": false,
      "t": 133322.91666666637,
      "d": 104.16666666665697,
      "v": 55
    },
    {
      "midi": 72,
      "hit": false,
      "t": 133510.41666666637,
      "d": 67.70833333334303,
      "v": 66
    },
    {
      "midi": 46,
      "hit": false,
      "t": 133770.83333333305,
      "d": 156.25,
      "v": 49
    },
    {
      "midi": 55,
      "hit": false,
      "t": 133958.33333333305,
      "d": 203.1249999999709,
      "v": 51
    },
    {
      "midi": 45,
      "hit": false,
      "t": 133963.5416666664,
      "d": 161.45833333331393,
      "v": 52
    },
    {
      "midi": 70,
      "hit": false,
      "t": 133973.95833333305,
      "d": 177.08333333331393,
      "v": 67
    },
    {
      "midi": 67,
      "hit": false,
      "t": 134161.45833333302,
      "d": 46.875,
      "v": 37
    },
    {
      "midi": 69,
      "hit": false,
      "t": 134322.91666666637,
      "d": 67.70833333334303,
      "v": 58
    },
    {
      "midi": 70,
      "hit": false,
      "t": 134484.3749999997,
      "d": 98.95833333334303,
      "v": 73
    },
    {
      "midi": 65,
      "hit": false,
      "t": 134619.7916666664,
      "d": 156.25,
      "v": 43
    },
    {
      "midi": 60,
      "hit": false,
      "t": 134619.7916666664,
      "d": 213.54166666665697,
      "v": 42
    },
    {
      "midi": 54,
      "hit": false,
      "t": 134624.99999999974,
      "d": 291.66666666665697,
      "v": 39
    },
    {
      "midi": 71,
      "hit": false,
      "t": 134656.24999999974,
      "d": 109.375,
      "v": 47
    },
    {
      "midi": 72,
      "hit": false,
      "t": 134822.9166666664,
      "d": 114.58333333334303,
      "v": 74
    },
    {
      "midi": 69,
      "hit": false,
      "t": 134989.58333333308,
      "d": 46.875,
      "v": 34
    },
    {
      "midi": 43,
      "hit": false,
      "t": 135182.29166666642,
      "d": 1625,
      "v": 59
    },
    {
      "midi": 50,
      "hit": false,
      "t": 135260.41666666642,
      "d": 41.666666666656965,
      "v": 40
    },
    {
      "midi": 70,
      "hit": false,
      "t": 135333.33333333308,
      "d": 291.66666666665697,
      "v": 69
    },
    {
      "midi": 54,
      "hit": false,
      "t": 135458.33333333308,
      "d": 390.625,
      "v": 6
    },
    {
      "midi": 54,
      "hit": false,
      "t": 135963.54166666642,
      "d": 447.91666666665697,
      "v": 60
    },
    {
      "midi": 58,
      "hit": false,
      "t": 135968.74999999977,
      "d": 552.0833333333139,
      "v": 48
    },
    {
      "midi": 62,
      "hit": false,
      "t": 135979.16666666642,
      "d": 520.8333333333139,
      "v": 60
    },
    {
      "midi": 50,
      "hit": false,
      "t": 136421.87499999974,
      "d": 114.58333333334303,
      "v": 47
    },
    {
      "midi": 58,
      "hit": false,
      "t": 136677.08333333308,
      "d": 286.45833333334303,
      "v": 33
    },
    {
      "midi": 62,
      "hit": false,
      "t": 136682.29166666642,
      "d": 281.25,
      "v": 54
    },
    {
      "midi": 53,
      "hit": false,
      "t": 136692.70833333308,
      "d": 755.208333333343,
      "v": 47
    },
    {
      "midi": 43,
      "hit": false,
      "t": 137385.41666666642,
      "d": 130.20833333334303,
      "v": 53
    },
    {
      "midi": 69,
      "hit": false,
      "t": 137406.24999999977,
      "d": 78.125,
      "v": 90
    },
    {
      "midi": 70,
      "hit": false,
      "t": 137562.49999999977,
      "d": 83.33333333334303,
      "v": 63
    },
    {
      "midi": 71,
      "hit": false,
      "t": 137744.79166666645,
      "d": 109.375,
      "v": 71
    },
    {
      "midi": 72,
      "hit": false,
      "t": 137916.66666666645,
      "d": 104.16666666665697,
      "v": 72
    },
    {
      "midi": 39,
      "hit": false,
      "t": 138083.3333333331,
      "d": 156.25,
      "v": 57
    },
    {
      "midi": 46,
      "hit": false,
      "t": 138088.54166666645,
      "d": 197.91666666665697,
      "v": 48
    },
    {
      "midi": 69,
      "hit": false,
      "t": 138098.9583333331,
      "d": 114.58333333334303,
      "v": 65
    },
    {
      "midi": 65,
      "hit": false,
      "t": 138270.8333333331,
      "d": 125,
      "v": 53
    },
    {
      "midi": 61,
      "hit": false,
      "t": 138416.66666666645,
      "d": 125,
      "v": 44
    },
    {
      "midi": 60,
      "hit": false,
      "t": 138630.2083333331,
      "d": 52.083333333343035,
      "v": 36
    },
    {
      "midi": 63,
      "hit": false,
      "t": 138770.8333333331,
      "d": 156.25,
      "v": 74
    },
    {
      "midi": 60,
      "hit": false,
      "t": 138953.12499999977,
      "d": 67.70833333334303,
      "v": 46
    },
    {
      "midi": 61,
      "hit": false,
      "t": 139124.99999999977,
      "d": 151.04166666665697,
      "v": 46
    },
    {
      "midi": 62,
      "hit": false,
      "t": 139296.87499999977,
      "d": 104.16666666665697,
      "v": 66
    },
    {
      "midi": 38,
      "hit": false,
      "t": 139427.08333333308,
      "d": 67.70833333334303,
      "v": 46
    },
    {
      "midi": 65,
      "hit": false,
      "t": 139463.54166666642,
      "d": 119.79166666665697,
      "v": 43
    },
    {
      "midi": 66,
      "hit": false,
      "t": 139651.04166666642,
      "d": 93.75,
      "v": 60
    },
    {
      "midi": 67,
      "hit": false,
      "t": 139812.49999999977,
      "d": 98.95833333334303,
      "v": 66
    },
    {
      "midi": 68,
      "hit": false,
      "t": 139968.74999999977,
      "d": 125,
      "v": 81
    },
    {
      "midi": 69,
      "hit": false,
      "t": 140130.2083333331,
      "d": 104.16666666665697,
      "v": 79
    },
    {
      "midi": 65,
      "hit": false,
      "t": 140130.2083333331,
      "d": 348.95833333331393,
      "v": 61
    },
    {
      "midi": 60,
      "hit": false,
      "t": 140140.62499999977,
      "d": 348.95833333331393,
      "v": 50
    },
    {
      "midi": 54,
      "hit": false,
      "t": 140145.8333333331,
      "d": 609.3749999999709,
      "v": 39
    },
    {
      "midi": 58,
      "hit": false,
      "t": 140161.4583333331,
      "d": 578.1249999999709,
      "v": 35
    },
    {
      "midi": 70,
      "hit": false,
      "t": 140307.29166666642,
      "d": 78.125,
      "v": 74
    },
    {
      "midi": 71,
      "hit": false,
      "t": 140468.74999999977,
      "d": 72.91666666665697,
      "v": 37
    },
    {
      "midi": 74,
      "hit": false,
      "t": 140645.83333333308,
      "d": 88.54166666665697,
      "v": 50
    },
    {
      "midi": 64,
      "hit": false,
      "t": 140796.87499999974,
      "d": 98.95833333334303,
      "v": 53
    },
    {
      "midi": 81,
      "hit": false,
      "t": 140812.49999999974,
      "d": 114.58333333334303,
      "v": 71
    },
    {
      "midi": 59,
      "hit": false,
      "t": 140812.49999999974,
      "d": 250.0000000000291,
      "v": 53
    },
    {
      "midi": 69,
      "hit": false,
      "t": 140822.9166666664,
      "d": 88.54166666668607,
      "v": 64
    },
    {
      "midi": 53,
      "hit": false,
      "t": 140848.95833333308,
      "d": 265.625,
      "v": 36
    },
    {
      "midi": 81,
      "hit": false,
      "t": 141010.41666666642,
      "d": 62.5,
      "v": 50
    },
    {
      "midi": 74,
      "hit": false,
      "t": 141062.49999999977,
      "d": 36.45833333331393,
      "v": 52
    },
    {
      "midi": 80,
      "hit": false,
      "t": 141177.08333333308,
      "d": 83.33333333334303,
      "v": 46
    },
    {
      "midi": 68,
      "hit": false,
      "t": 141182.29166666642,
      "d": 31.25,
      "v": 56
    },
    {
      "midi": 74,
      "hit": false,
      "t": 141182.29166666642,
      "d": 52.083333333343035,
      "v": 46
    },
    {
      "midi": 80,
      "hit": false,
      "t": 141364.58333333308,
      "d": 119.79166666668607,
      "v": 61
    },
    {
      "midi": 68,
      "hit": false,
      "t": 141369.79166666642,
      "d": 88.54166666668607,
      "v": 68
    },
    {
      "midi": 74,
      "hit": false,
      "t": 141390.62499999977,
      "d": 36.458333333343035,
      "v": 64
    },
    {
      "midi": 43,
      "hit": false,
      "t": 141515.62499999977,
      "d": 343.75,
      "v": 60
    },
    {
      "midi": 79,
      "hit": false,
      "t": 141531.24999999977,
      "d": 203.125,
      "v": 60
    },
    {
      "midi": 78,
      "hit": false,
      "t": 141536.4583333331,
      "d": 83.33333333334303,
      "v": 31
    },
    {
      "midi": 67,
      "hit": false,
      "t": 141536.4583333331,
      "d": 223.95833333331393,
      "v": 34
    },
    {
      "midi": 74,
      "hit": false,
      "t": 141552.0833333331,
      "d": 192.70833333331393,
      "v": 46
    },
    {
      "midi": 78,
      "hit": false,
      "t": 141911.4583333331,
      "d": 187.5000000000291,
      "v": 62
    },
    {
      "midi": 73,
      "hit": false,
      "t": 141916.66666666645,
      "d": 151.04166666668607,
      "v": 71
    },
    {
      "midi": 66,
      "hit": false,
      "t": 141921.8749999998,
      "d": 161.45833333334303,
      "v": 60
    },
    {
      "midi": 79,
      "hit": false,
      "t": 142276.04166666648,
      "d": 906.2499999999418,
      "v": 74
    },
    {
      "midi": 72,
      "hit": false,
      "t": 142276.04166666648,
      "d": 916.6666666665988,
      "v": 80
    },
    {
      "midi": 65,
      "hit": false,
      "t": 142286.45833333314,
      "d": 999.9999999999418,
      "v": 64
    },
    {
      "midi": 77,
      "hit": false,
      "t": 142296.8749999998,
      "d": 41.666666666656965,
      "v": 64
    },
    {
      "midi": 67,
      "hit": false,
      "t": 142296.8749999998,
      "d": 958.3333333332848,
      "v": 60
    },
    {
      "midi": 61,
      "hit": false,
      "t": 142692.7083333331,
      "d": 192.70833333334303,
      "v": 77
    },
    {
      "midi": 60,
      "hit": false,
      "t": 142984.37499999977,
      "d": 416.66666666665697,
      "v": 67
    },
    {
      "midi": 50,
      "hit": false,
      "t": 143421.87499999977,
      "d": 125,
      "v": 58
    },
    {
      "midi": 68,
      "hit": false,
      "t": 143697.91666666645,
      "d": 369.7916666667152,
      "v": 51
    },
    {
      "midi": 71,
      "hit": false,
      "t": 143703.1249999998,
      "d": 322.91666666668607,
      "v": 56
    },
    {
      "midi": 74,
      "hit": false,
      "t": 143703.1249999998,
      "d": 328.1250000000291,
      "v": 60
    },
    {
      "midi": 64,
      "hit": false,
      "t": 143708.33333333314,
      "d": 364.58333333337214,
      "v": 53
    },
    {
      "midi": 55,
      "hit": false,
      "t": 143734.3749999998,
      "d": 338.5416666667152,
      "v": 30
    },
    {
      "midi": 57,
      "hit": false,
      "t": 143739.58333333314,
      "d": 36.458333333343035,
      "v": 27
    },
    {
      "midi": 43,
      "hit": false,
      "t": 144130.20833333317,
      "d": 453.125,
      "v": 53
    },
    {
      "midi": 54,
      "hit": false,
      "t": 144406.24999999983,
      "d": 177.08333333334303,
      "v": 50
    },
    {
      "midi": 59,
      "hit": false,
      "t": 144411.45833333317,
      "d": 182.29166666665697,
      "v": 54
    },
    {
      "midi": 63,
      "hit": false,
      "t": 144421.87499999983,
      "d": 223.95833333331393,
      "v": 42
    },
    {
      "midi": 71,
      "hit": false,
      "t": 144421.87499999983,
      "d": 255.20833333331393,
      "v": 49
    },
    {
      "midi": 67,
      "hit": false,
      "t": 144432.29166666648,
      "d": 203.125,
      "v": 47
    },
    {
      "midi": 65,
      "hit": false,
      "t": 144864.58333333314,
      "d": 447.91666666668607,
      "v": 69
    },
    {
      "midi": 74,
      "hit": false,
      "t": 144864.58333333314,
      "d": 479.16666666668607,
      "v": 73
    },
    {
      "midi": 69,
      "hit": false,
      "t": 144869.79166666648,
      "d": 479.16666666668607,
      "v": 60
    },
    {
      "midi": 62,
      "hit": false,
      "t": 144880.20833333314,
      "d": 307.29166666668607,
      "v": 62
    },
    {
      "midi": 53,
      "hit": false,
      "t": 144885.41666666648,
      "d": 255.20833333334303,
      "v": 68
    },
    {
      "midi": 53,
      "hit": false,
      "t": 145572.9166666665,
      "d": 395.83333333334303,
      "v": 58
    },
    {
      "midi": 69,
      "hit": false,
      "t": 145572.9166666665,
      "d": 630.208333333343,
      "v": 81
    },
    {
      "midi": 60,
      "hit": false,
      "t": 145578.12499999985,
      "d": 489.58333333334303,
      "v": 44
    },
    {
      "midi": 74,
      "hit": false,
      "t": 145578.12499999985,
      "d": 640.625,
      "v": 82
    },
    {
      "midi": 65,
      "hit": false,
      "t": 145583.3333333332,
      "d": 557.291666666657,
      "v": 80
    },
    {
      "midi": 74,
      "hit": false,
      "t": 146562.49999999985,
      "d": 208.33333333331393,
      "v": 82
    },
    {
      "midi": 69,
      "hit": false,
      "t": 146572.9166666665,
      "d": 197.91666666665697,
      "v": 80
    },
    {
      "midi": 65,
      "hit": false,
      "t": 146572.9166666665,
      "d": 213.54166666665697,
      "v": 76
    },
    {
      "midi": 64,
      "hit": false,
      "t": 146572.9166666665,
      "d": 229.16666666665697,
      "v": 76
    },
    {
      "midi": 63,
      "hit": false,
      "t": 146802.08333333317,
      "d": 192.70833333334303,
      "v": 56
    },
    {
      "midi": 75,
      "hit": false,
      "t": 147026.0416666665,
      "d": 317.70833333337214,
      "v": 69
    },
    {
      "midi": 69,
      "hit": false,
      "t": 147031.24999999985,
      "d": 239.58333333337214,
      "v": 68
    },
    {
      "midi": 65,
      "hit": false,
      "t": 147036.4583333332,
      "d": 265.6250000000291,
      "v": 54
    },
    {
      "midi": 62,
      "hit": false,
      "t": 147041.66666666654,
      "d": 369.79166666665697,
      "v": 60
    },
    {
      "midi": 76,
      "hit": false,
      "t": 147484.37499999985,
      "d": 114.58333333334303,
      "v": 67
    },
    {
      "midi": 69,
      "hit": false,
      "t": 147484.37499999985,
      "d": 130.20833333334303,
      "v": 69
    },
    {
      "midi": 61,
      "hit": false,
      "t": 147484.37499999985,
      "d": 156.25,
      "v": 56
    },
    {
      "midi": 65,
      "hit": false,
      "t": 147489.5833333332,
      "d": 166.66666666665697,
      "v": 62
    },
    {
      "midi": 43,
      "hit": false,
      "t": 148203.12499999985,
      "d": 78.125,
      "v": 58
    },
    {
      "midi": 69,
      "hit": false,
      "t": 148677.0833333332,
      "d": 260.41666666668607,
      "v": 58
    },
    {
      "midi": 61,
      "hit": false,
      "t": 148682.29166666654,
      "d": 291.66666666668607,
      "v": 55
    },
    {
      "midi": 59,
      "hit": false,
      "t": 148687.49999999988,
      "d": 229.16666666665697,
      "v": 46
    },
    {
      "midi": 64,
      "hit": false,
      "t": 148687.49999999988,
      "d": 265.625,
      "v": 64
    },
    {
      "midi": 53,
      "hit": false,
      "t": 148713.54166666654,
      "d": 182.29166666665697,
      "v": 38
    },
    {
      "midi": 61,
      "hit": false,
      "t": 149130.20833333323,
      "d": 197.91666666665697,
      "v": 60
    },
    {
      "midi": 69,
      "hit": false,
      "t": 149130.20833333323,
      "d": 203.125,
      "v": 58
    },
    {
      "midi": 64,
      "hit": false,
      "t": 149135.41666666657,
      "d": 166.66666666665697,
      "v": 63
    },
    {
      "midi": 59,
      "hit": false,
      "t": 149135.41666666657,
      "d": 182.29166666665697,
      "v": 48
    },
    {
      "midi": 53,
      "hit": false,
      "t": 149145.83333333323,
      "d": 140.625,
      "v": 53
    },
    {
      "midi": 74,
      "hit": false,
      "t": 149640.62499999988,
      "d": 78.1250000000291,
      "v": 72
    },
    {
      "midi": 70,
      "hit": false,
      "t": 149645.83333333323,
      "d": 114.58333333334303,
      "v": 70
    },
    {
      "midi": 58,
      "hit": false,
      "t": 149651.04166666657,
      "d": 166.66666666668607,
      "v": 52
    },
    {
      "midi": 65,
      "hit": false,
      "t": 149656.2499999999,
      "d": 41.666666666656965,
      "v": 69
    },
    {
      "midi": 75,
      "hit": false,
      "t": 149828.12499999994,
      "d": 93.75,
      "v": 70
    },
    {
      "midi": 76,
      "hit": false,
      "t": 150020.83333333328,
      "d": 140.625,
      "v": 84
    },
    {
      "midi": 75,
      "hit": false,
      "t": 150067.70833333328,
      "d": 31.25,
      "v": 30
    },
    {
      "midi": 68,
      "hit": false,
      "t": 150406.24999999994,
      "d": 921.8750000000582,
      "v": 73
    },
    {
      "midi": 64,
      "hit": false,
      "t": 150411.45833333328,
      "d": 505.20833333334303,
      "v": 67
    },
    {
      "midi": 48,
      "hit": false,
      "t": 150432.29166666663,
      "d": 796.8750000000291,
      "v": 54
    },
    {
      "midi": 58,
      "hit": false,
      "t": 150463.54166666663,
      "d": 380.20833333334303,
      "v": 31
    },
    {
      "midi": 58,
      "hit": false,
      "t": 151124.99999999997,
      "d": 67.70833333334303,
      "v": 55
    },
    {
      "midi": 60,
      "hit": false,
      "t": 151359.375,
      "d": 104.16666666665697,
      "v": 55
    },
    {
      "midi": 64,
      "hit": false,
      "t": 151562.5,
      "d": 119.79166666665697,
      "v": 70
    },
    {
      "midi": 68,
      "hit": false,
      "t": 151765.625,
      "d": 83.33333333334303,
      "v": 70
    },
    {
      "midi": 41,
      "hit": false,
      "t": 152005.20833333334,
      "d": 140.625,
      "v": 31
    },
    {
      "midi": 72,
      "hit": false,
      "t": 152015.625,
      "d": 364.58333333334303,
      "v": 64
    },
    {
      "midi": 57,
      "hit": false,
      "t": 152020.83333333334,
      "d": 229.16666666665697,
      "v": 40
    },
    {
      "midi": 76,
      "hit": false,
      "t": 152473.95833333334,
      "d": 687.4999999999709,
      "v": 73
    },
    {
      "midi": 64,
      "hit": false,
      "t": 152682.2916666667,
      "d": 93.7499999999709,
      "v": 54
    },
    {
      "midi": 60,
      "hit": false,
      "t": 152708.33333333334,
      "d": 119.79166666662786,
      "v": 36
    },
    {
      "midi": 53,
      "hit": false,
      "t": 152718.75,
      "d": 124.9999999999709,
      "v": 29
    },
    {
      "midi": 57,
      "hit": false,
      "t": 152734.375,
      "d": 83.33333333331393,
      "v": 28
    },
    {
      "midi": 56,
      "hit": false,
      "t": 153385.41666666663,
      "d": 234.3749999999709,
      "v": 43
    },
    {
      "midi": 47,
      "hit": false,
      "t": 153395.83333333328,
      "d": 166.66666666665697,
      "v": 49
    },
    {
      "midi": 77,
      "hit": false,
      "t": 153843.74999999994,
      "d": 244.79166666665697,
      "v": 113
    },
    {
      "midi": 62,
      "hit": false,
      "t": 154041.6666666666,
      "d": 46.875,
      "v": 41
    },
    {
      "midi": 76,
      "hit": false,
      "t": 154062.49999999994,
      "d": 93.75,
      "v": 60
    },
    {
      "midi": 59,
      "hit": false,
      "t": 154078.12499999994,
      "d": 67.70833333331393,
      "v": 28
    },
    {
      "midi": 56,
      "hit": false,
      "t": 154078.12499999994,
      "d": 109.375,
      "v": 20
    },
    {
      "midi": 53,
      "hit": false,
      "t": 154088.5416666666,
      "d": 57.291666666656965,
      "v": 22
    },
    {
      "midi": 75,
      "hit": false,
      "t": 154151.0416666666,
      "d": 135.41666666665697,
      "v": 62
    },
    {
      "midi": 74,
      "hit": false,
      "t": 154244.7916666666,
      "d": 156.2499999999709,
      "v": 34
    },
    {
      "midi": 71,
      "hit": false,
      "t": 154541.66666666657,
      "d": 182.29166666665697,
      "v": 68
    },
    {
      "midi": 43,
      "hit": false,
      "t": 154734.37499999988,
      "d": 119.79166666665697,
      "v": 59
    },
    {
      "midi": 72,
      "hit": false,
      "t": 154807.29166666654,
      "d": 380.20833333334303,
      "v": 66
    },
    {
      "midi": 69,
      "hit": false,
      "t": 155218.74999999988,
      "d": 265.625,
      "v": 55
    },
    {
      "midi": 58,
      "hit": false,
      "t": 155432.29166666654,
      "d": 78.125,
      "v": 25
    },
    {
      "midi": 70,
      "hit": false,
      "t": 155453.12499999988,
      "d": 98.95833333331393,
      "v": 60
    },
    {
      "midi": 74,
      "hit": false,
      "t": 155869.79166666654,
      "d": 213.54166666665697,
      "v": 94
    },
    {
      "midi": 58,
      "hit": false,
      "t": 156098.9583333332,
      "d": 354.16666666665697,
      "v": 33
    },
    {
      "midi": 48,
      "hit": false,
      "t": 156109.37499999985,
      "d": 250,
      "v": 46
    },
    {
      "midi": 72,
      "hit": false,
      "t": 156161.4583333332,
      "d": 197.91666666665697,
      "v": 47
    },
    {
      "midi": 60,
      "hit": false,
      "t": 156572.9166666665,
      "d": 177.08333333334303,
      "v": 71
    },
    {
      "midi": 58,
      "hit": false,
      "t": 156802.0833333332,
      "d": 67.70833333331393,
      "v": 32
    },
    {
      "midi": 62,
      "hit": false,
      "t": 156843.74999999985,
      "d": 135.41666666665697,
      "v": 67
    },
    {
      "midi": 60,
      "hit": false,
      "t": 157052.08333333317,
      "d": 46.875,
      "v": 31
    },
    {
      "midi": 64,
      "hit": false,
      "t": 157249.99999999983,
      "d": 322.91666666665697,
      "v": 74
    },
    {
      "midi": 67,
      "hit": false,
      "t": 157249.99999999983,
      "d": 328.125,
      "v": 66
    },
    {
      "midi": 41,
      "hit": false,
      "t": 157484.37499999983,
      "d": 93.75,
      "v": 43
    },
    {
      "midi": 48,
      "hit": false,
      "t": 157499.99999999983,
      "d": 125,
      "v": 34
    },
    {
      "midi": 62,
      "hit": false,
      "t": 158229.16666666648,
      "d": 109.3750000000291,
      "v": 47
    },
    {
      "midi": 60,
      "hit": false,
      "t": 158234.37499999983,
      "d": 145.83333333337214,
      "v": 37
    },
    {
      "midi": 53,
      "hit": false,
      "t": 158239.58333333317,
      "d": 135.41666666668607,
      "v": 41
    },
    {
      "midi": 57,
      "hit": false,
      "t": 158260.4166666665,
      "d": 114.58333333334303,
      "v": 36
    },
    {
      "midi": 80,
      "hit": false,
      "t": 158958.3333333332,
      "d": 625.0000000000582,
      "v": 77
    },
    {
      "midi": 77,
      "hit": false,
      "t": 158973.9583333332,
      "d": 463.5416666667152,
      "v": 74
    },
    {
      "midi": 68,
      "hit": false,
      "t": 158973.9583333332,
      "d": 531.2500000000582,
      "v": 90
    },
    {
      "midi": 73,
      "hit": false,
      "t": 158979.16666666654,
      "d": 515.6250000000582,
      "v": 80
    },
    {
      "midi": 63,
      "hit": false,
      "t": 158984.37499999988,
      "d": 505.20833333337214,
      "v": 71
    },
    {
      "midi": 57,
      "hit": false,
      "t": 158989.58333333323,
      "d": 770.8333333333721,
      "v": 66
    },
    {
      "midi": 63,
      "hit": false,
      "t": 159692.70833333326,
      "d": 187.5,
      "v": 50
    },
    {
      "midi": 77,
      "hit": false,
      "t": 159697.9166666666,
      "d": 255.20833333331393,
      "v": 71
    },
    {
      "midi": 53,
      "hit": false,
      "t": 159708.33333333326,
      "d": 218.75,
      "v": 47
    },
    {
      "midi": 73,
      "hit": false,
      "t": 159723.95833333326,
      "d": 270.83333333331393,
      "v": 61
    },
    {
      "midi": 68,
      "hit": false,
      "t": 159729.1666666666,
      "d": 270.83333333331393,
      "v": 60
    },
    {
      "midi": 69,
      "hit": false,
      "t": 160380.20833333326,
      "d": 317.70833333331393,
      "v": 46
    },
    {
      "midi": 65,
      "hit": false,
      "t": 160390.6249999999,
      "d": 286.45833333331393,
      "v": 45
    },
    {
      "midi": 77,
      "hit": false,
      "t": 160390.6249999999,
      "d": 369.79166666665697,
      "v": 46
    },
    {
      "midi": 46,
      "hit": false,
      "t": 160401.04166666657,
      "d": 166.66666666665697,
      "v": 50
    },
    {
      "midi": 76,
      "hit": false,
      "t": 160411.45833333323,
      "d": 36.458333333343035,
      "v": 45
    },
    {
      "midi": 57,
      "hit": false,
      "t": 160468.7499999999,
      "d": 177.08333333331393,
      "v": 19
    },
    {
      "midi": 65,
      "hit": false,
      "t": 161114.58333333323,
      "d": 93.75,
      "v": 56
    },
    {
      "midi": 81,
      "hit": false,
      "t": 161124.99999999988,
      "d": 88.54166666668607,
      "v": 87
    },
    {
      "midi": 62,
      "hit": false,
      "t": 161124.99999999988,
      "d": 145.83333333337214,
      "v": 37
    },
    {
      "midi": 60,
      "hit": false,
      "t": 161124.99999999988,
      "d": 187.5000000000291,
      "v": 48
    },
    {
      "midi": 55,
      "hit": false,
      "t": 161140.62499999988,
      "d": 83.33333333337214,
      "v": 40
    },
    {
      "midi": 82,
      "hit": false,
      "t": 161296.8749999999,
      "d": 88.54166666665697,
      "v": 61
    },
    {
      "midi": 84,
      "hit": false,
      "t": 161442.70833333323,
      "d": 119.79166666668607,
      "v": 81
    },
    {
      "midi": 86,
      "hit": false,
      "t": 161458.33333333323,
      "d": 36.458333333343035,
      "v": 36
    },
    {
      "midi": 81,
      "hit": false,
      "t": 161593.7499999999,
      "d": 88.54166666665697,
      "v": 76
    },
    {
      "midi": 65,
      "hit": false,
      "t": 161765.6249999999,
      "d": 57.291666666656965,
      "v": 44
    },
    {
      "midi": 77,
      "hit": false,
      "t": 161765.6249999999,
      "d": 62.5,
      "v": 62
    },
    {
      "midi": 61,
      "hit": false,
      "t": 161765.6249999999,
      "d": 171.875,
      "v": 37
    },
    {
      "midi": 55,
      "hit": false,
      "t": 161791.66666666657,
      "d": 46.875,
      "v": 34
    },
    {
      "midi": 79,
      "hit": false,
      "t": 161937.4999999999,
      "d": 83.33333333334303,
      "v": 67
    },
    {
      "midi": 81,
      "hit": false,
      "t": 162093.7499999999,
      "d": 88.54166666665697,
      "v": 70
    },
    {
      "midi": 77,
      "hit": false,
      "t": 162270.83333333323,
      "d": 83.33333333334303,
      "v": 59
    },
    {
      "midi": 73,
      "hit": false,
      "t": 162447.91666666657,
      "d": 83.33333333331393,
      "v": 50
    },
    {
      "midi": 55,
      "hit": false,
      "t": 162463.54166666657,
      "d": 41.666666666656965,
      "v": 34
    },
    {
      "midi": 57,
      "hit": false,
      "t": 163104.16666666654,
      "d": 130.20833333331393,
      "v": 49
    },
    {
      "midi": 72,
      "hit": false,
      "t": 163203.12499999985,
      "d": 156.2499999999709,
      "v": 49
    },
    {
      "midi": 69,
      "hit": false,
      "t": 163244.7916666665,
      "d": 41.666666666656965,
      "v": 30
    },
    {
      "midi": 60,
      "hit": false,
      "t": 163843.74999999983,
      "d": 83.33333333334303,
      "v": 48
    },
    {
      "midi": 62,
      "hit": false,
      "t": 163848.95833333317,
      "d": 41.666666666656965,
      "v": 44
    },
    {
      "midi": 53,
      "hit": false,
      "t": 163854.1666666665,
      "d": 135.41666666665697,
      "v": 36
    },
    {
      "midi": 57,
      "hit": false,
      "t": 163864.58333333317,
      "d": 109.375,
      "v": 38
    },
    {
      "midi": 72,
      "hit": false,
      "t": 164015.62499999983,
      "d": 46.875,
      "v": 46
    },
    {
      "midi": 74,
      "hit": false,
      "t": 164067.70833333317,
      "d": 130.20833333331393,
      "v": 71
    },
    {
      "midi": 72,
      "hit": false,
      "t": 164156.24999999983,
      "d": 104.16666666665697,
      "v": 46
    },
    {
      "midi": 71,
      "hit": false,
      "t": 164281.24999999983,
      "d": 57.291666666656965,
      "v": 32
    },
    {
      "midi": 72,
      "hit": false,
      "t": 164406.24999999983,
      "d": 119.79166666665697,
      "v": 45
    },
    {
      "midi": 74,
      "hit": false,
      "t": 164510.41666666648,
      "d": 83.33333333334303,
      "v": 74
    },
    {
      "midi": 57,
      "hit": false,
      "t": 164588.54166666648,
      "d": 130.20833333334303,
      "v": 40
    },
    {
      "midi": 47,
      "hit": false,
      "t": 164593.74999999983,
      "d": 104.16666666665697,
      "v": 52
    },
    {
      "midi": 76,
      "hit": false,
      "t": 164635.41666666648,
      "d": 390.625,
      "v": 80
    },
    {
      "midi": 69,
      "hit": false,
      "t": 164916.66666666648,
      "d": 369.79166666665697,
      "v": 66
    },
    {
      "midi": 68,
      "hit": false,
      "t": 165244.79166666648,
      "d": 505.20833333331393,
      "v": 60
    },
    {
      "midi": 62,
      "hit": false,
      "t": 165260.41666666648,
      "d": 322.91666666665697,
      "v": 49
    },
    {
      "midi": 56,
      "hit": false,
      "t": 165276.04166666648,
      "d": 1104.1666666667152,
      "v": 53
    },
    {
      "midi": 61,
      "hit": false,
      "t": 165942.70833333314,
      "d": 447.9166666667152,
      "v": 62
    },
    {
      "midi": 65,
      "hit": false,
      "t": 165947.91666666648,
      "d": 343.7500000000291,
      "v": 74
    },
    {
      "midi": 72,
      "hit": false,
      "t": 165984.37499999983,
      "d": 98.95833333334303,
      "v": 79
    },
    {
      "midi": 60,
      "hit": false,
      "t": 165989.58333333317,
      "d": 36.458333333343035,
      "v": 30
    },
    {
      "midi": 55,
      "hit": false,
      "t": 166374.99999999985,
      "d": 322.91666666668607,
      "v": 83
    },
    {
      "midi": 70,
      "hit": false,
      "t": 166666.6666666665,
      "d": 447.91666666668607,
      "v": 69
    },
    {
      "midi": 61,
      "hit": false,
      "t": 166671.87499999985,
      "d": 432.29166666668607,
      "v": 63
    },
    {
      "midi": 65,
      "hit": false,
      "t": 166677.0833333332,
      "d": 390.625,
      "v": 72
    },
    {
      "midi": 45,
      "hit": false,
      "t": 167083.3333333332,
      "d": 343.75,
      "v": 75
    },
    {
      "midi": 69,
      "hit": false,
      "t": 167348.9583333332,
      "d": 291.66666666668607,
      "v": 58
    },
    {
      "midi": 64,
      "hit": false,
      "t": 167359.37499999985,
      "d": 364.58333333337214,
      "v": 56
    },
    {
      "midi": 60,
      "hit": false,
      "t": 167364.5833333332,
      "d": 437.5000000000291,
      "v": 49
    },
    {
      "midi": 55,
      "hit": false,
      "t": 167369.79166666654,
      "d": 276.04166666668607,
      "v": 55
    },
    {
      "midi": 50,
      "hit": false,
      "t": 167755.20833333323,
      "d": 239.58333333334303,
      "v": 69
    },
    {
      "midi": 56,
      "hit": false,
      "t": 168020.83333333326,
      "d": 114.58333333334303,
      "v": 53
    },
    {
      "midi": 68,
      "hit": false,
      "t": 168026.0416666666,
      "d": 442.70833333334303,
      "v": 65
    },
    {
      "midi": 60,
      "hit": false,
      "t": 168036.45833333326,
      "d": 416.66666666668607,
      "v": 59
    },
    {
      "midi": 64,
      "hit": false,
      "t": 168036.45833333326,
      "d": 447.91666666668607,
      "v": 61
    },
    {
      "midi": 43,
      "hit": false,
      "t": 168458.33333333328,
      "d": 531.2500000000291,
      "v": 71
    },
    {
      "midi": 64,
      "hit": false,
      "t": 168723.95833333328,
      "d": 145.83333333334303,
      "v": 55
    },
    {
      "midi": 53,
      "hit": false,
      "t": 168723.95833333328,
      "d": 317.70833333337214,
      "v": 62
    },
    {
      "midi": 59,
      "hit": false,
      "t": 168729.16666666663,
      "d": 83.33333333334303,
      "v": 57
    },
    {
      "midi": 67,
      "hit": false,
      "t": 168729.16666666663,
      "d": 161.45833333334303,
      "v": 57
    },
    {
      "midi": 64,
      "hit": false,
      "t": 169442.7083333333,
      "d": 250.0000000000291,
      "v": 68
    },
    {
      "midi": 59,
      "hit": false,
      "t": 169447.91666666666,
      "d": 265.6250000000291,
      "v": 64
    },
    {
      "midi": 53,
      "hit": false,
      "t": 169453.125,
      "d": 302.08333333334303,
      "v": 57
    },
    {
      "midi": 74,
      "hit": false,
      "t": 170161.45833333334,
      "d": 197.91666666668607,
      "v": 72
    },
    {
      "midi": 70,
      "hit": false,
      "t": 170161.45833333334,
      "d": 255.20833333337214,
      "v": 77
    },
    {
      "midi": 58,
      "hit": false,
      "t": 170161.45833333334,
      "d": 307.2916666667152,
      "v": 63
    },
    {
      "midi": 77,
      "hit": false,
      "t": 170166.6666666667,
      "d": 197.91666666668607,
      "v": 68
    },
    {
      "midi": 65,
      "hit": false,
      "t": 170171.87500000003,
      "d": 276.04166666668607,
      "v": 81
    },
    {
      "midi": 48,
      "hit": false,
      "t": 170609.37500000006,
      "d": 1010.4166666667152,
      "v": 58
    },
    {
      "midi": 58,
      "hit": false,
      "t": 170875.00000000006,
      "d": 385.41666666668607,
      "v": 50
    },
    {
      "midi": 57,
      "hit": false,
      "t": 170880.2083333334,
      "d": 401.04166666668607,
      "v": 50
    },
    {
      "midi": 64,
      "hit": false,
      "t": 170885.41666666674,
      "d": 385.41666666668607,
      "v": 58
    },
    {
      "midi": 69,
      "hit": false,
      "t": 170895.8333333334,
      "d": 291.66666666668607,
      "v": 49
    },
    {
      "midi": 61,
      "hit": false,
      "t": 170895.8333333334,
      "d": 687.5000000000291,
      "v": 46
    },
    {
      "midi": 68,
      "hit": false,
      "t": 170901.04166666674,
      "d": 364.58333333334303,
      "v": 25
    },
    {
      "midi": 67,
      "hit": false,
      "t": 171562.5000000001,
      "d": 1156.2500000000582,
      "v": 65
    },
    {
      "midi": 60,
      "hit": false,
      "t": 171562.5000000001,
      "d": 1161.4583333334012,
      "v": 62
    },
    {
      "midi": 57,
      "hit": false,
      "t": 171567.70833333343,
      "d": 1255.2083333333721,
      "v": 65
    },
    {
      "midi": 64,
      "hit": false,
      "t": 171572.91666666677,
      "d": 1125.000000000029,
      "v": 58
    },
    {
      "midi": 48,
      "hit": false,
      "t": 172036.45833333346,
      "d": 223.95833333334303,
      "v": 96
    },
    {
      "midi": 48,
      "hit": false,
      "t": 172333.33333333346,
      "d": 223.95833333334303,
      "v": 81
    },
    {
      "midi": 48,
      "hit": false,
      "t": 172781.25000000015,
      "d": 546.875,
      "v": 95
    },
    {
      "midi": 65,
      "hit": false,
      "t": 173062.50000000012,
      "d": 375.0000000000291,
      "v": 66
    },
    {
      "midi": 58,
      "hit": false,
      "t": 173062.50000000012,
      "d": 453.1250000000291,
      "v": 67
    },
    {
      "midi": 62,
      "hit": false,
      "t": 173067.70833333346,
      "d": 343.7500000000291,
      "v": 70
    },
    {
      "midi": 55,
      "hit": false,
      "t": 173072.9166666668,
      "d": 401.04166666668607,
      "v": 72
    },
    {
      "midi": 48,
      "hit": false,
      "t": 173546.87500000015,
      "d": 135.41666666665697,
      "v": 79
    },
    {
      "midi": 56,
      "hit": false,
      "t": 173776.0416666668,
      "d": 125,
      "v": 60
    },
    {
      "midi": 64,
      "hit": false,
      "t": 173776.0416666668,
      "d": 151.04166666665697,
      "v": 68
    },
    {
      "midi": 61,
      "hit": false,
      "t": 173786.45833333346,
      "d": 145.83333333334303,
      "v": 46
    },
    {
      "midi": 52,
      "hit": false,
      "t": 173796.87500000012,
      "d": 52.083333333343035,
      "v": 34
    },
    {
      "midi": 53,
      "hit": false,
      "t": 173807.29166666677,
      "d": 62.500000000029104,
      "v": 34
    },
    {
      "midi": 76,
      "hit": false,
      "t": 174244.7916666668,
      "d": 244.79166666665697,
      "v": 94
    },
    {
      "midi": 69,
      "hit": false,
      "t": 174250.00000000015,
      "d": 197.91666666665697,
      "v": 96
    },
    {
      "midi": 57,
      "hit": false,
      "t": 174510.4166666668,
      "d": 286.45833333337214,
      "v": 41
    },
    {
      "midi": 48,
      "hit": false,
      "t": 174515.62500000015,
      "d": 234.3750000000291,
      "v": 48
    },
    {
      "midi": 64,
      "hit": false,
      "t": 174520.8333333335,
      "d": 437.5000000000291,
      "v": 55
    },
    {
      "midi": 72,
      "hit": false,
      "t": 174520.8333333335,
      "d": 640.6250000000291,
      "v": 58
    },
    {
      "midi": 69,
      "hit": false,
      "t": 174546.87500000015,
      "d": 572.9166666667152,
      "v": 50
    },
    {
      "midi": 41,
      "hit": false,
      "t": 174567.7083333335,
      "d": 135.41666666668607,
      "v": 6
    },
    {
      "midi": 60,
      "hit": false,
      "t": 175203.12500000017,
      "d": 98.95833333334303,
      "v": 48
    },
    {
      "midi": 53,
      "hit": false,
      "t": 175218.75000000017,
      "d": 125,
      "v": 45
    },
    {
      "midi": 79,
      "hit": false,
      "t": 175687.50000000017,
      "d": 213.54166666665697,
      "v": 89
    },
    {
      "midi": 74,
      "hit": false,
      "t": 175692.70833333352,
      "d": 187.5,
      "v": 96
    },
    {
      "midi": 47,
      "hit": false,
      "t": 175916.66666666683,
      "d": 213.54166666668607,
      "v": 49
    },
    {
      "midi": 56,
      "hit": false,
      "t": 175921.87500000017,
      "d": 270.83333333334303,
      "v": 35
    },
    {
      "midi": 71,
      "hit": false,
      "t": 175963.54166666683,
      "d": 203.1250000000291,
      "v": 38
    },
    {
      "midi": 77,
      "hit": false,
      "t": 175968.75000000017,
      "d": 343.75,
      "v": 57
    },
    {
      "midi": 74,
      "hit": false,
      "t": 176406.25000000017,
      "d": 291.66666666668607,
      "v": 59
    },
    {
      "midi": 68,
      "hit": false,
      "t": 176406.25000000017,
      "d": 328.1250000000291,
      "v": 43
    },
    {
      "midi": 62,
      "hit": false,
      "t": 176609.37500000017,
      "d": 46.875,
      "v": 47
    },
    {
      "midi": 56,
      "hit": false,
      "t": 176614.58333333352,
      "d": 119.79166666668607,
      "v": 37
    },
    {
      "midi": 53,
      "hit": false,
      "t": 176619.79166666686,
      "d": 114.58333333334303,
      "v": 38
    },
    {
      "midi": 59,
      "hit": false,
      "t": 176630.20833333352,
      "d": 46.875,
      "v": 36
    },
    {
      "midi": 50,
      "hit": false,
      "t": 177098.95833333355,
      "d": 145.83333333334303,
      "v": 37
    },
    {
      "midi": 43,
      "hit": false,
      "t": 177302.08333333355,
      "d": 57.291666666656965,
      "v": 51
    },
    {
      "midi": 64,
      "hit": false,
      "t": 177333.33333333355,
      "d": 41.666666666656965,
      "v": 66
    },
    {
      "midi": 65,
      "hit": false,
      "t": 177494.7916666669,
      "d": 208.33333333334303,
      "v": 54
    },
    {
      "midi": 69,
      "hit": false,
      "t": 177765.62500000023,
      "d": 88.54166666665697,
      "v": 85
    },
    {
      "midi": 70,
      "hit": false,
      "t": 177937.50000000023,
      "d": 166.66666666668607,
      "v": 81
    },
    {
      "midi": 62,
      "hit": false,
      "t": 177942.70833333358,
      "d": 41.66666666668607,
      "v": 51
    },
    {
      "midi": 60,
      "hit": false,
      "t": 177963.54166666692,
      "d": 41.66666666668607,
      "v": 41
    },
    {
      "midi": 58,
      "hit": false,
      "t": 177979.16666666692,
      "d": 98.95833333334303,
      "v": 25
    },
    {
      "midi": 72,
      "hit": false,
      "t": 178208.33333333358,
      "d": 88.54166666665697,
      "v": 73
    },
    {
      "midi": 73,
      "hit": false,
      "t": 178380.20833333358,
      "d": 109.375,
      "v": 77
    },
    {
      "midi": 58,
      "hit": false,
      "t": 178598.95833333358,
      "d": 328.125,
      "v": 49
    },
    {
      "midi": 74,
      "hit": false,
      "t": 178609.37500000023,
      "d": 197.91666666668607,
      "v": 78
    },
    {
      "midi": 48,
      "hit": false,
      "t": 178614.58333333358,
      "d": 203.125,
      "v": 58
    },
    {
      "midi": 75,
      "hit": false,
      "t": 178807.29166666692,
      "d": 203.125,
      "v": 65
    },
    {
      "midi": 76,
      "hit": false,
      "t": 179052.08333333358,
      "d": 348.95833333334303,
      "v": 85
    },
    {
      "midi": 63,
      "hit": false,
      "t": 179229.16666666692,
      "d": 41.666666666656965,
      "v": 62
    },
    {
      "midi": 58,
      "hit": false,
      "t": 179234.37500000026,
      "d": 88.54166666665697,
      "v": 52
    },
    {
      "midi": 52,
      "hit": false,
      "t": 179244.79166666692,
      "d": 57.291666666656965,
      "v": 49
    },
    {
      "midi": 77,
      "hit": false,
      "t": 179447.91666666692,
      "d": 140.625,
      "v": 70
    },
    {
      "midi": 79,
      "hit": false,
      "t": 179651.04166666692,
      "d": 104.16666666665697,
      "v": 75
    },
    {
      "midi": 80,
      "hit": false,
      "t": 179802.08333333358,
      "d": 135.41666666668607,
      "v": 69
    },
    {
      "midi": 41,
      "hit": false,
      "t": 179822.91666666692,
      "d": 171.875,
      "v": 38
    },
    {
      "midi": 48,
      "hit": false,
      "t": 179890.62500000026,
      "d": 125,
      "v": 28
    },
    {
      "midi": 57,
      "hit": false,
      "t": 179937.50000000026,
      "d": 171.875,
      "v": 49
    },
    {
      "midi": 79,
      "hit": false,
      "t": 179979.16666666692,
      "d": 630.208333333343,
      "v": 66
    },
    {
      "midi": 76,
      "hit": false,
      "t": 180385.41666666692,
      "d": 223.95833333334303,
      "v": 64
    },
    {
      "midi": 74,
      "hit": false,
      "t": 180416.66666666692,
      "d": 31.25,
      "v": 30
    },
    {
      "midi": 53,
      "hit": false,
      "t": 180598.95833333358,
      "d": 93.7500000000291,
      "v": 33
    },
    {
      "midi": 64,
      "hit": false,
      "t": 180604.16666666692,
      "d": 52.083333333343035,
      "v": 27
    },
    {
      "midi": 60,
      "hit": false,
      "t": 180604.16666666692,
      "d": 114.58333333334303,
      "v": 32
    },
    {
      "midi": 57,
      "hit": false,
      "t": 180640.62500000026,
      "d": 62.5,
      "v": 24
    },
    {
      "midi": 72,
      "hit": false,
      "t": 180651.04166666692,
      "d": 265.625,
      "v": 36
    },
    {
      "midi": 58,
      "hit": false,
      "t": 181052.08333333358,
      "d": 697.9166666667152,
      "v": 60
    },
    {
      "midi": 63,
      "hit": false,
      "t": 181291.66666666692,
      "d": 458.33333333337214,
      "v": 56
    },
    {
      "midi": 67,
      "hit": false,
      "t": 181296.87500000026,
      "d": 296.8750000000291,
      "v": 55
    },
    {
      "midi": 77,
      "hit": false,
      "t": 181296.87500000026,
      "d": 541.6666666666861,
      "v": 62
    },
    {
      "midi": 70,
      "hit": false,
      "t": 181302.0833333336,
      "d": 458.33333333334303,
      "v": 56
    },
    {
      "midi": 74,
      "hit": false,
      "t": 181307.29166666695,
      "d": 354.16666666668607,
      "v": 47
    },
    {
      "midi": 63,
      "hit": false,
      "t": 181989.5833333336,
      "d": 640.6250000000291,
      "v": 43
    },
    {
      "midi": 75,
      "hit": false,
      "t": 181994.79166666695,
      "d": 151.04166666665697,
      "v": 44
    },
    {
      "midi": 57,
      "hit": false,
      "t": 182005.2083333336,
      "d": 442.70833333334303,
      "v": 40
    },
    {
      "midi": 66,
      "hit": false,
      "t": 182005.2083333336,
      "d": 526.0416666666861,
      "v": 51
    },
    {
      "midi": 69,
      "hit": false,
      "t": 182010.41666666695,
      "d": 93.75,
      "v": 51
    },
    {
      "midi": 73,
      "hit": false,
      "t": 182036.4583333336,
      "d": 83.33333333334303,
      "v": 30
    },
    {
      "midi": 61,
      "hit": false,
      "t": 182072.91666666695,
      "d": 604.1666666666861,
      "v": 20
    },
    {
      "midi": 65,
      "hit": false,
      "t": 182697.91666666698,
      "d": 927.0833333333721,
      "v": 60
    },
    {
      "midi": 62,
      "hit": false,
      "t": 182697.91666666698,
      "d": 937.5000000000291,
      "v": 58
    },
    {
      "midi": 84,
      "hit": false,
      "t": 182713.54166666698,
      "d": 166.66666666665697,
      "v": 94
    },
    {
      "midi": 60,
      "hit": false,
      "t": 182713.54166666698,
      "d": 947.9166666667152,
      "v": 55
    },
    {
      "midi": 55,
      "hit": false,
      "t": 182760.41666666698,
      "d": 937.5000000000582,
      "v": 30
    },
    {
      "midi": 81,
      "hit": false,
      "t": 182890.6250000003,
      "d": 57.291666666656965,
      "v": 54
    },
    {
      "midi": 82,
      "hit": false,
      "t": 183046.8750000003,
      "d": 98.95833333334303,
      "v": 38
    },
    {
      "midi": 84,
      "hit": false,
      "t": 183213.54166666698,
      "d": 135.41666666668607,
      "v": 73
    },
    {
      "midi": 77,
      "hit": false,
      "t": 183432.291666667,
      "d": 62.5,
      "v": 22
    },
    {
      "midi": 79,
      "hit": false,
      "t": 183578.12500000035,
      "d": 78.125,
      "v": 66
    },
    {
      "midi": 81,
      "hit": false,
      "t": 183718.75000000038,
      "d": 93.75,
      "v": 69
    },
    {
      "midi": 73,
      "hit": false,
      "t": 183901.04166666704,
      "d": 78.125,
      "v": 64
    },
    {
      "midi": 77,
      "hit": false,
      "t": 184041.66666666704,
      "d": 135.41666666665697,
      "v": 54
    },
    {
      "midi": 61,
      "hit": false,
      "t": 184052.0833333337,
      "d": 411.45833333334303,
      "v": 35
    },
    {
      "midi": 65,
      "hit": false,
      "t": 184067.7083333337,
      "d": 114.58333333334303,
      "v": 51
    },
    {
      "midi": 55,
      "hit": false,
      "t": 184098.9583333337,
      "d": 234.375,
      "v": 34
    },
    {
      "midi": 70,
      "hit": false,
      "t": 184651.04166666704,
      "d": 156.2500000000291,
      "v": 82
    },
    {
      "midi": 61,
      "hit": false,
      "t": 184666.66666666704,
      "d": 166.66666666668607,
      "v": 50
    },
    {
      "midi": 65,
      "hit": false,
      "t": 184671.87500000038,
      "d": 36.458333333343035,
      "v": 68
    },
    {
      "midi": 68,
      "hit": false,
      "t": 184682.29166666704,
      "d": 31.250000000029104,
      "v": 31
    },
    {
      "midi": 55,
      "hit": false,
      "t": 184687.50000000038,
      "d": 130.20833333334303,
      "v": 55
    },
    {
      "midi": 69,
      "hit": false,
      "t": 185057.29166666706,
      "d": 57.291666666656965,
      "v": 74
    },
    {
      "midi": 70,
      "hit": false,
      "t": 185119.79166666706,
      "d": 119.79166666665697,
      "v": 55
    },
    {
      "midi": 71,
      "hit": false,
      "t": 185260.41666666706,
      "d": 98.95833333334303,
      "v": 51
    },
    {
      "midi": 72,
      "hit": false,
      "t": 185375.0000000004,
      "d": 130.20833333331393,
      "v": 80
    },
    {
      "midi": 41,
      "hit": false,
      "t": 185468.7500000004,
      "d": 57.291666666656965,
      "v": 46
    },
    {
      "midi": 69,
      "hit": false,
      "t": 185494.79166666706,
      "d": 114.58333333334303,
      "v": 67
    },
    {
      "midi": 60,
      "hit": false,
      "t": 185703.1250000004,
      "d": 354.16666666665697,
      "v": 64
    },
    {
      "midi": 60,
      "hit": false,
      "t": 186166.66666666706,
      "d": 192.70833333331393,
      "v": 44
    },
    {
      "midi": 57,
      "hit": false,
      "t": 186192.70833333372,
      "d": 104.16666666665697,
      "v": 47
    },
    {
      "midi": 47,
      "hit": false,
      "t": 186645.83333333372,
      "d": 36.458333333343035,
      "v": 52
    },
    {
      "midi": 69,
      "hit": false,
      "t": 186911.45833333372,
      "d": 406.2499999999709,
      "v": 70
    },
    {
      "midi": 76,
      "hit": false,
      "t": 186911.45833333372,
      "d": 536.4583333332848,
      "v": 69
    },
    {
      "midi": 57,
      "hit": false,
      "t": 186916.66666666706,
      "d": 390.6249999999709,
      "v": 61
    },
    {
      "midi": 73,
      "hit": false,
      "t": 186916.66666666706,
      "d": 411.4583333332848,
      "v": 55
    },
    {
      "midi": 66,
      "hit": false,
      "t": 186927.08333333372,
      "d": 437.4999999999418,
      "v": 37
    },
    {
      "midi": 62,
      "hit": false,
      "t": 187015.62500000038,
      "d": 338.54166666662786,
      "v": 6
    },
    {
      "midi": 62,
      "hit": false,
      "t": 187614.58333333366,
      "d": 145.83333333334303,
      "v": 51
    },
    {
      "midi": 74,
      "hit": false,
      "t": 187614.58333333366,
      "d": 208.33333333334303,
      "v": 55
    },
    {
      "midi": 56,
      "hit": false,
      "t": 187619.791666667,
      "d": 218.75,
      "v": 52
    },
    {
      "midi": 71,
      "hit": false,
      "t": 187630.20833333366,
      "d": 234.375,
      "v": 52
    },
    {
      "midi": 68,
      "hit": false,
      "t": 187635.416666667,
      "d": 265.625,
      "v": 47
    },
    {
      "midi": 73,
      "hit": false,
      "t": 188307.291666667,
      "d": 510.41666666668607,
      "v": 78
    },
    {
      "midi": 57,
      "hit": false,
      "t": 188312.50000000035,
      "d": 479.16666666668607,
      "v": 54
    },
    {
      "midi": 65,
      "hit": false,
      "t": 188322.916666667,
      "d": 453.1250000000291,
      "v": 82
    },
    {
      "midi": 61,
      "hit": false,
      "t": 188328.12500000035,
      "d": 520.833333333343,
      "v": 69
    },
    {
      "midi": 61,
      "hit": false,
      "t": 188994.79166666704,
      "d": 348.95833333334303,
      "v": 53
    },
    {
      "midi": 72,
      "hit": false,
      "t": 189005.2083333337,
      "d": 317.70833333337214,
      "v": 54
    },
    {
      "midi": 56,
      "hit": false,
      "t": 189005.2083333337,
      "d": 328.1250000000291,
      "v": 40
    },
    {
      "midi": 65,
      "hit": false,
      "t": 189015.62500000038,
      "d": 302.08333333334303,
      "v": 59
    },
    {
      "midi": 46,
      "hit": false,
      "t": 189020.83333333372,
      "d": 333.33333333331393,
      "v": 37
    },
    {
      "midi": 55,
      "hit": false,
      "t": 189687.50000000038,
      "d": 442.70833333334303,
      "v": 45
    },
    {
      "midi": 45,
      "hit": false,
      "t": 189687.50000000038,
      "d": 531.25,
      "v": 43
    },
    {
      "midi": 69,
      "hit": false,
      "t": 189692.70833333372,
      "d": 338.54166666665697,
      "v": 61
    },
    {
      "midi": 64,
      "hit": false,
      "t": 189692.70833333372,
      "d": 375,
      "v": 54
    },
    {
      "midi": 60,
      "hit": false,
      "t": 189703.12500000038,
      "d": 411.45833333334303,
      "v": 32
    },
    {
      "midi": 54,
      "hit": false,
      "t": 190375.00000000038,
      "d": 125.0000000000291,
      "v": 50
    },
    {
      "midi": 66,
      "hit": false,
      "t": 190380.20833333372,
      "d": 307.29166666668607,
      "v": 57
    },
    {
      "midi": 60,
      "hit": false,
      "t": 190390.6250000004,
      "d": 213.54166666665697,
      "v": 54
    },
    {
      "midi": 50,
      "hit": false,
      "t": 190869.79166666706,
      "d": 151.04166666665697,
      "v": 50
    },
    {
      "midi": 43,
      "hit": false,
      "t": 191114.58333333372,
      "d": 46.875,
      "v": 46
    },
    {
      "midi": 64,
      "hit": false,
      "t": 191755.20833333372,
      "d": 36.45833333331393,
      "v": 54
    },
    {
      "midi": 59,
      "hit": false,
      "t": 191755.20833333372,
      "d": 88.54166666665697,
      "v": 62
    },
    {
      "midi": 83,
      "hit": false,
      "t": 191781.25000000038,
      "d": 83.33333333334303,
      "v": 87
    },
    {
      "midi": 53,
      "hit": false,
      "t": 191781.25000000038,
      "d": 88.54166666668607,
      "v": 31
    },
    {
      "midi": 91,
      "hit": false,
      "t": 191937.5000000004,
      "d": 114.58333333334303,
      "v": 68
    },
    {
      "midi": 83,
      "hit": false,
      "t": 192072.9166666671,
      "d": 151.04166666665697,
      "v": 53
    },
    {
      "midi": 82,
      "hit": false,
      "t": 192239.58333333375,
      "d": 83.33333333334303,
      "v": 59
    },
    {
      "midi": 43,
      "hit": false,
      "t": 192380.20833333375,
      "d": 88.54166666665697,
      "v": 57
    },
    {
      "midi": 81,
      "hit": false,
      "t": 192390.6250000004,
      "d": 119.79166666665697,
      "v": 40
    },
    {
      "midi": 89,
      "hit": false,
      "t": 192567.70833333372,
      "d": 114.58333333334303,
      "v": 71
    },
    {
      "midi": 81,
      "hit": false,
      "t": 192682.29166666706,
      "d": 98.95833333331393,
      "v": 43
    },
    {
      "midi": 80,
      "hit": false,
      "t": 192854.16666666704,
      "d": 151.04166666665697,
      "v": 59
    },
    {
      "midi": 79,
      "hit": false,
      "t": 193015.62500000035,
      "d": 578.1250000000291,
      "v": 46
    },
    {
      "midi": 64,
      "hit": false,
      "t": 193036.4583333337,
      "d": 208.33333333334303,
      "v": 40
    },
    {
      "midi": 59,
      "hit": false,
      "t": 193036.4583333337,
      "d": 223.95833333334303,
      "v": 53
    },
    {
      "midi": 53,
      "hit": false,
      "t": 193057.29166666704,
      "d": 239.58333333334303,
      "v": 24
    },
    {
      "midi": 77,
      "hit": false,
      "t": 193552.08333333372,
      "d": 213.54166666665697,
      "v": 43
    },
    {
      "midi": 74,
      "hit": false,
      "t": 193755.20833333372,
      "d": 348.95833333334303,
      "v": 74
    },
    {
      "midi": 77,
      "hit": false,
      "t": 194161.45833333372,
      "d": 192.70833333334303,
      "v": 71
    },
    {
      "midi": 58,
      "hit": false,
      "t": 194375.0000000004,
      "d": 72.91666666665697,
      "v": 42
    },
    {
      "midi": 62,
      "hit": false,
      "t": 194385.41666666706,
      "d": 36.458333333343035,
      "v": 39
    },
    {
      "midi": 74,
      "hit": false,
      "t": 194578.1250000004,
      "d": 67.70833333334303,
      "v": 60
    },
    {
      "midi": 75,
      "hit": false,
      "t": 194723.95833333375,
      "d": 93.75,
      "v": 68
    },
    {
      "midi": 76,
      "hit": false,
      "t": 194895.83333333375,
      "d": 104.16666666665697,
      "v": 83
    },
    {
      "midi": 58,
      "hit": false,
      "t": 195031.2500000004,
      "d": 411.45833333331393,
      "v": 25
    },
    {
      "midi": 48,
      "hit": false,
      "t": 195041.66666666706,
      "d": 312.4999999999709,
      "v": 49
    },
    {
      "midi": 77,
      "hit": false,
      "t": 195052.08333333372,
      "d": 109.375,
      "v": 78
    },
    {
      "midi": 64,
      "hit": false,
      "t": 195359.37500000038,
      "d": 208.33333333334303,
      "v": 48
    },
    {
      "midi": 63,
      "hit": false,
      "t": 195687.50000000038,
      "d": 661.4583333333139,
      "v": 67
    },
    {
      "midi": 58,
      "hit": false,
      "t": 195697.91666666704,
      "d": 72.91666666665697,
      "v": 44
    },
    {
      "midi": 52,
      "hit": false,
      "t": 195708.3333333337,
      "d": 93.75,
      "v": 53
    },
    {
      "midi": 73,
      "hit": false,
      "t": 195937.50000000035,
      "d": 390.625,
      "v": 73
    },
    {
      "midi": 48,
      "hit": false,
      "t": 196401.04166666704,
      "d": 286.45833333334303,
      "v": 43
    },
    {
      "midi": 62,
      "hit": false,
      "t": 196406.25000000038,
      "d": 390.625,
      "v": 62
    },
    {
      "midi": 57,
      "hit": false,
      "t": 196411.45833333372,
      "d": 281.25,
      "v": 58
    },
    {
      "midi": 72,
      "hit": false,
      "t": 196411.45833333372,
      "d": 312.5,
      "v": 57
    },
    {
      "midi": 67,
      "hit": false,
      "t": 196421.87500000038,
      "d": 286.45833333334303,
      "v": 47
    },
    {
      "midi": 50,
      "hit": false,
      "t": 197119.79166666704,
      "d": 41.66666666668607,
      "v": 34
    },
    {
      "midi": 62,
      "hit": false,
      "t": 197125.00000000038,
      "d": 276.04166666668607,
      "v": 61
    },
    {
      "midi": 67,
      "hit": false,
      "t": 197125.00000000038,
      "d": 286.45833333334303,
      "v": 62
    },
    {
      "midi": 57,
      "hit": false,
      "t": 197125.00000000038,
      "d": 401.04166666668607,
      "v": 58
    },
    {
      "midi": 52,
      "hit": false,
      "t": 197130.20833333372,
      "d": 411.45833333334303,
      "v": 65
    },
    {
      "midi": 44,
      "hit": false,
      "t": 197833.33333333375,
      "d": 166.66666666668607,
      "v": 43
    },
    {
      "midi": 65,
      "hit": false,
      "t": 197833.33333333375,
      "d": 197.91666666671517,
      "v": 48
    },
    {
      "midi": 56,
      "hit": false,
      "t": 197838.5416666671,
      "d": 161.45833333334303,
      "v": 43
    },
    {
      "midi": 59,
      "hit": false,
      "t": 197848.95833333375,
      "d": 151.04166666668607,
      "v": 49
    },
    {
      "midi": 62,
      "hit": false,
      "t": 197848.95833333375,
      "d": 171.8750000000291,
      "v": 42
    },
    {
      "midi": 53,
      "hit": false,
      "t": 197854.1666666671,
      "d": 171.8750000000291,
      "v": 38
    },
    {
      "midi": 62,
      "hit": false,
      "t": 198557.29166666712,
      "d": 151.04166666668607,
      "v": 49
    },
    {
      "midi": 65,
      "hit": false,
      "t": 198572.91666666712,
      "d": 229.16666666671517,
      "v": 60
    },
    {
      "midi": 68,
      "hit": false,
      "t": 198572.91666666712,
      "d": 234.3750000000582,
      "v": 48
    },
    {
      "midi": 59,
      "hit": false,
      "t": 198578.12500000047,
      "d": 130.20833333334303,
      "v": 42
    },
    {
      "midi": 74,
      "hit": false,
      "t": 198578.12500000047,
      "d": 182.29166666668607,
      "v": 48
    },
    {
      "midi": 71,
      "hit": false,
      "t": 198578.12500000047,
      "d": 197.91666666668607,
      "v": 39
    },
    {
      "midi": 56,
      "hit": false,
      "t": 198583.3333333338,
      "d": 197.91666666668607,
      "v": 35
    },
    {
      "midi": 50,
      "hit": false,
      "t": 199036.45833333384,
      "d": 182.29166666665697,
      "v": 55
    },
    {
      "midi": 43,
      "hit": false,
      "t": 199286.45833333384,
      "d": 114.58333333337214,
      "v": 46
    },
    {
      "midi": 53,
      "hit": false,
      "t": 199291.66666666718,
      "d": 135.41666666668607,
      "v": 49
    },
    {
      "midi": 57,
      "hit": false,
      "t": 199296.87500000052,
      "d": 145.83333333334303,
      "v": 64
    },
    {
      "midi": 58,
      "hit": false,
      "t": 199473.95833333387,
      "d": 78.125,
      "v": 59
    },
    {
      "midi": 62,
      "hit": false,
      "t": 199651.0416666672,
      "d": 93.75,
      "v": 60
    },
    {
      "midi": 65,
      "hit": false,
      "t": 199833.3333333339,
      "d": 83.33333333334303,
      "v": 63
    },
    {
      "midi": 62,
      "hit": false,
      "t": 199994.79166666724,
      "d": 46.875000000029104,
      "v": 37
    },
    {
      "midi": 58,
      "hit": false,
      "t": 200000.00000000058,
      "d": 125,
      "v": 37
    },
    {
      "midi": 60,
      "hit": false,
      "t": 200005.20833333393,
      "d": 46.875,
      "v": 46
    },
    {
      "midi": 70,
      "hit": false,
      "t": 200052.08333333393,
      "d": 104.16666666665697,
      "v": 76
    },
    {
      "midi": 71,
      "hit": false,
      "t": 200171.87500000058,
      "d": 130.20833333331393,
      "v": 63
    },
    {
      "midi": 70,
      "hit": false,
      "t": 200291.66666666724,
      "d": 104.16666666665697,
      "v": 51
    },
    {
      "midi": 68,
      "hit": false,
      "t": 200380.2083333339,
      "d": 130.20833333334303,
      "v": 51
    },
    {
      "midi": 65,
      "hit": false,
      "t": 200489.5833333339,
      "d": 62.5,
      "v": 57
    },
    {
      "midi": 70,
      "hit": false,
      "t": 200625.00000000058,
      "d": 354.16666666665697,
      "v": 85
    },
    {
      "midi": 58,
      "hit": false,
      "t": 200635.41666666724,
      "d": 375,
      "v": 46
    },
    {
      "midi": 48,
      "hit": false,
      "t": 200645.8333333339,
      "d": 859.3750000000291,
      "v": 48
    },
    {
      "midi": 68,
      "hit": false,
      "t": 201036.4583333339,
      "d": 52.083333333343035,
      "v": 40
    },
    {
      "midi": 70,
      "hit": false,
      "t": 201104.16666666724,
      "d": 125,
      "v": 62
    },
    {
      "midi": 68,
      "hit": false,
      "t": 201208.3333333339,
      "d": 109.375,
      "v": 52
    },
    {
      "midi": 65,
      "hit": false,
      "t": 201312.50000000055,
      "d": 93.7500000000291,
      "v": 55
    },
    {
      "midi": 58,
      "hit": false,
      "t": 201343.75000000058,
      "d": 46.875,
      "v": 36
    },
    {
      "midi": 63,
      "hit": false,
      "t": 201500.00000000058,
      "d": 109.375,
      "v": 64
    },
    {
      "midi": 60,
      "hit": false,
      "t": 201651.04166666724,
      "d": 104.16666666665697,
      "v": 46
    },
    {
      "midi": 48,
      "hit": false,
      "t": 201848.9583333339,
      "d": 130.20833333331393,
      "v": 32
    },
    {
      "midi": 53,
      "hit": false,
      "t": 201968.75000000055,
      "d": 46.875,
      "v": 58
    },
    {
      "midi": 48,
      "hit": false,
      "t": 202052.08333333387,
      "d": 421.875,
      "v": 17
    },
    {
      "midi": 41,
      "hit": false,
      "t": 202057.2916666672,
      "d": 770.8333333333139,
      "v": 39
    },
    {
      "midi": 56,
      "hit": false,
      "t": 202067.70833333387,
      "d": 36.458333333343035,
      "v": 39
    },
    {
      "midi": 57,
      "hit": false,
      "t": 202125.00000000055,
      "d": 187.5,
      "v": 44
    },
    {
      "midi": 60,
      "hit": false,
      "t": 202385.4166666672,
      "d": 161.45833333331393,
      "v": 47
    },
    {
      "midi": 64,
      "hit": false,
      "t": 202572.91666666718,
      "d": 177.08333333334303,
      "v": 77
    },
    {
      "midi": 57,
      "hit": false,
      "t": 202786.45833333387,
      "d": 119.79166666665697,
      "v": 43
    },
    {
      "midi": 55,
      "hit": false,
      "t": 203229.16666666718,
      "d": 46.875,
      "v": 49
    },
    {
      "midi": 63,
      "hit": false,
      "t": 203463.54166666718,
      "d": 265.625,
      "v": 52
    },
    {
      "midi": 58,
      "hit": false,
      "t": 203468.75000000052,
      "d": 182.29166666665697,
      "v": 64
    },
    {
      "midi": 65,
      "hit": false,
      "t": 203473.95833333387,
      "d": 239.58333333331393,
      "v": 53
    },
    {
      "midi": 48,
      "hit": false,
      "t": 203484.37500000052,
      "d": 109.375,
      "v": 58
    },
    {
      "midi": 47,
      "hit": false,
      "t": 203932.29166666718,
      "d": 88.54166666665697,
      "v": 68
    },
    {
      "midi": 65,
      "hit": false,
      "t": 204166.66666666718,
      "d": 328.1250000000291,
      "v": 79
    },
    {
      "midi": 68,
      "hit": false,
      "t": 204166.66666666718,
      "d": 364.58333333337214,
      "v": 73
    },
    {
      "midi": 61,
      "hit": false,
      "t": 204177.08333333387,
      "d": 385.41666666668607,
      "v": 61
    },
    {
      "midi": 57,
      "hit": false,
      "t": 204182.2916666672,
      "d": 364.58333333334303,
      "v": 69
    },
    {
      "midi": 47,
      "hit": false,
      "t": 204619.7916666672,
      "d": 46.875,
      "v": 36
    },
    {
      "midi": 61,
      "hit": false,
      "t": 204848.95833333387,
      "d": 499.9999999999709,
      "v": 57
    },
    {
      "midi": 64,
      "hit": false,
      "t": 204854.1666666672,
      "d": 197.91666666662786,
      "v": 62
    },
    {
      "midi": 46,
      "hit": false,
      "t": 204864.58333333387,
      "d": 869.7916666666279,
      "v": 47
    },
    {
      "midi": 57,
      "hit": false,
      "t": 204869.7916666672,
      "d": 140.6249999999709,
      "v": 52
    },
    {
      "midi": 53,
      "hit": false,
      "t": 204895.83333333387,
      "d": 416.66666666662786,
      "v": 35
    },
    {
      "midi": 69,
      "hit": false,
      "t": 205093.7500000005,
      "d": 296.875,
      "v": 68
    },
    {
      "midi": 64,
      "hit": false,
      "t": 205140.6250000005,
      "d": 46.875,
      "v": 28
    },
    {
      "midi": 57,
      "hit": false,
      "t": 205166.66666666715,
      "d": 41.66666666668607,
      "v": 32
    },
    {
      "midi": 65,
      "hit": false,
      "t": 205369.79166666718,
      "d": 359.3749999999709,
      "v": 79
    },
    {
      "midi": 57,
      "hit": false,
      "t": 205380.20833333384,
      "d": 312.4999999999709,
      "v": 60
    },
    {
      "midi": 62,
      "hit": false,
      "t": 205380.20833333384,
      "d": 333.33333333331393,
      "v": 71
    },
    {
      "midi": 55,
      "hit": false,
      "t": 205401.04166666715,
      "d": 375,
      "v": 61
    },
    {
      "midi": 69,
      "hit": false,
      "t": 205973.9583333338,
      "d": 135.41666666668607,
      "v": 71
    },
    {
      "midi": 61,
      "hit": false,
      "t": 205973.9583333338,
      "d": 156.2500000000291,
      "v": 53
    },
    {
      "midi": 65,
      "hit": false,
      "t": 205994.79166666715,
      "d": 62.5,
      "v": 41
    },
    {
      "midi": 72,
      "hit": false,
      "t": 206145.83333333384,
      "d": 140.625,
      "v": 69
    },
    {
      "midi": 65,
      "hit": false,
      "t": 206380.20833333384,
      "d": 427.08333333337214,
      "v": 63
    },
    {
      "midi": 61,
      "hit": false,
      "t": 206385.41666666718,
      "d": 317.70833333334303,
      "v": 37
    },
    {
      "midi": 69,
      "hit": false,
      "t": 206385.41666666718,
      "d": 354.16666666668607,
      "v": 66
    },
    {
      "midi": 55,
      "hit": false,
      "t": 206390.62500000052,
      "d": 687.5000000000291,
      "v": 51
    },
    {
      "midi": 67,
      "hit": false,
      "t": 207119.7916666672,
      "d": 489.58333333337214,
      "v": 54
    },
    {
      "midi": 65,
      "hit": false,
      "t": 207125.00000000055,
      "d": 364.58333333334303,
      "v": 58
    },
    {
      "midi": 61,
      "hit": false,
      "t": 207125.00000000055,
      "d": 479.16666666668607,
      "v": 29
    },
    {
      "midi": 48,
      "hit": false,
      "t": 207614.58333333393,
      "d": 88.54166666665697,
      "v": 44
    },
    {
      "midi": 41,
      "hit": false,
      "t": 207859.37500000058,
      "d": 104.16666666665697,
      "v": 54
    },
    {
      "midi": 60,
      "hit": false,
      "t": 207890.62500000058,
      "d": 192.70833333331393,
      "v": 31
    },
    {
      "midi": 62,
      "hit": false,
      "t": 208614.5833333339,
      "d": 182.29166666671517,
      "v": 48
    },
    {
      "midi": 60,
      "hit": false,
      "t": 208619.79166666724,
      "d": 182.29166666671517,
      "v": 34
    },
    {
      "midi": 57,
      "hit": false,
      "t": 208625.00000000058,
      "d": 171.8750000000291,
      "v": 44
    },
    {
      "midi": 53,
      "hit": false,
      "t": 208645.83333333393,
      "d": 130.20833333334303,
      "v": 31
    },
    {
      "midi": 66,
      "hit": false,
      "t": 209380.20833333395,
      "d": 312.5000000000291,
      "v": 59
    },
    {
      "midi": 76,
      "hit": false,
      "t": 209385.4166666673,
      "d": 83.33333333334303,
      "v": 90
    },
    {
      "midi": 57,
      "hit": false,
      "t": 209385.4166666673,
      "d": 343.7500000000291,
      "v": 61
    },
    {
      "midi": 62,
      "hit": false,
      "t": 209385.4166666673,
      "d": 453.1250000000582,
      "v": 57
    },
    {
      "midi": 77,
      "hit": false,
      "t": 209473.95833333398,
      "d": 93.75,
      "v": 70
    },
    {
      "midi": 76,
      "hit": false,
      "t": 209583.33333333398,
      "d": 62.5,
      "v": 57
    },
    {
      "midi": 77,
      "hit": false,
      "t": 209682.29166666733,
      "d": 57.29166666668607,
      "v": 47
    },
    {
      "midi": 76,
      "hit": false,
      "t": 209734.37500000067,
      "d": 78.125,
      "v": 46
    },
    {
      "midi": 77,
      "hit": false,
      "t": 209833.333333334,
      "d": 104.16666666668607,
      "v": 44
    },
    {
      "midi": 76,
      "hit": false,
      "t": 209932.29166666736,
      "d": 78.125,
      "v": 50
    },
    {
      "midi": 74,
      "hit": false,
      "t": 210026.04166666736,
      "d": 41.666666666656965,
      "v": 49
    },
    {
      "midi": 67,
      "hit": false,
      "t": 210088.54166666736,
      "d": 520.8333333333721,
      "v": 53
    },
    {
      "midi": 62,
      "hit": false,
      "t": 210098.95833333404,
      "d": 505.20833333334303,
      "v": 48
    },
    {
      "midi": 56,
      "hit": false,
      "t": 210098.95833333404,
      "d": 635.4166666666861,
      "v": 46
    },
    {
      "midi": 76,
      "hit": false,
      "t": 210119.79166666738,
      "d": 468.75,
      "v": 60
    },
    {
      "midi": 65,
      "hit": false,
      "t": 210822.91666666738,
      "d": 411.45833333331393,
      "v": 56
    },
    {
      "midi": 56,
      "hit": false,
      "t": 210833.33333333404,
      "d": 473.95833333331393,
      "v": 26
    },
    {
      "midi": 61,
      "hit": false,
      "t": 210833.33333333404,
      "d": 572.916666666657,
      "v": 44
    },
    {
      "midi": 60,
      "hit": false,
      "t": 210838.54166666738,
      "d": 62.5,
      "v": 36
    },
    {
      "midi": 75,
      "hit": false,
      "t": 210854.16666666738,
      "d": 36.458333333343035,
      "v": 37
    },
    {
      "midi": 77,
      "hit": false,
      "t": 210911.45833333404,
      "d": 83.33333333334303,
      "v": 29
    },
    {
      "midi": 75,
      "hit": false,
      "t": 210979.16666666738,
      "d": 88.54166666665697,
      "v": 32
    },
    {
      "midi": 77,
      "hit": false,
      "t": 211078.1250000007,
      "d": 125,
      "v": 57
    },
    {
      "midi": 75,
      "hit": false,
      "t": 211161.45833333404,
      "d": 124.9999999999709,
      "v": 46
    },
    {
      "midi": 77,
      "hit": false,
      "t": 211276.04166666736,
      "d": 156.25,
      "v": 46
    },
    {
      "midi": 73,
      "hit": false,
      "t": 211354.16666666736,
      "d": 83.33333333334303,
      "v": 47
    },
    {
      "midi": 61,
      "hit": false,
      "t": 211473.95833333404,
      "d": 187.5000000000291,
      "v": 30
    },
    {
      "midi": 75,
      "hit": false,
      "t": 211479.16666666738,
      "d": 317.70833333334303,
      "v": 56
    },
    {
      "midi": 65,
      "hit": false,
      "t": 211500.00000000073,
      "d": 78.125,
      "v": 51
    },
    {
      "midi": 55,
      "hit": false,
      "t": 211500.00000000073,
      "d": 140.625,
      "v": 49
    },
    {
      "midi": 52,
      "hit": false,
      "t": 211953.12500000073,
      "d": 46.875,
      "v": 33
    },
    {
      "midi": 45,
      "hit": false,
      "t": 211963.54166666738,
      "d": 281.2500000000291,
      "v": 68
    },
    {
      "midi": 73,
      "hit": false,
      "t": 212010.41666666738,
      "d": 46.875,
      "v": 17
    },
    {
      "midi": 74,
      "hit": false,
      "t": 212192.70833333404,
      "d": 302.08333333337214,
      "v": 74
    },
    {
      "midi": 71,
      "hit": false,
      "t": 212203.12500000073,
      "d": 302.08333333334303,
      "v": 60
    },
    {
      "midi": 67,
      "hit": false,
      "t": 212203.12500000073,
      "d": 343.75,
      "v": 74
    },
    {
      "midi": 64,
      "hit": false,
      "t": 212203.12500000073,
      "d": 375,
      "v": 73
    },
    {
      "midi": 55,
      "hit": false,
      "t": 212208.33333333407,
      "d": 307.29166666665697,
      "v": 73
    },
    {
      "midi": 50,
      "hit": false,
      "t": 212645.83333333407,
      "d": 369.79166666665697,
      "v": 57
    },
    {
      "midi": 57,
      "hit": false,
      "t": 212895.83333333407,
      "d": 62.5,
      "v": 58
    },
    {
      "midi": 64,
      "hit": false,
      "t": 212895.83333333407,
      "d": 359.375,
      "v": 60
    },
    {
      "midi": 68,
      "hit": false,
      "t": 212895.83333333407,
      "d": 375,
      "v": 51
    },
    {
      "midi": 71,
      "hit": false,
      "t": 212901.0416666674,
      "d": 317.70833333331393,
      "v": 47
    },
    {
      "midi": 60,
      "hit": false,
      "t": 212901.0416666674,
      "d": 411.45833333331393,
      "v": 44
    },
    {
      "midi": 43,
      "hit": false,
      "t": 213343.75000000073,
      "d": 885.4166666666279,
      "v": 55
    },
    {
      "midi": 64,
      "hit": false,
      "t": 213578.12500000073,
      "d": 78.1249999999709,
      "v": 53
    },
    {
      "midi": 59,
      "hit": false,
      "t": 213593.75000000073,
      "d": 93.7499999999709,
      "v": 57
    },
    {
      "midi": 53,
      "hit": false,
      "t": 213604.16666666738,
      "d": 41.666666666656965,
      "v": 48
    },
    {
      "midi": 61,
      "hit": false,
      "t": 214026.04166666736,
      "d": 276.04166666668607,
      "v": 65
    },
    {
      "midi": 56,
      "hit": false,
      "t": 214031.2500000007,
      "d": 182.29166666665697,
      "v": 62
    },
    {
      "midi": 53,
      "hit": false,
      "t": 214041.66666666736,
      "d": 145.83333333334303,
      "v": 60
    },
    {
      "midi": 49,
      "hit": false,
      "t": 214057.29166666736,
      "d": 161.45833333334303,
      "v": 57
    },
    {
      "midi": 62,
      "hit": false,
      "t": 214281.2500000007,
      "d": 46.875,
      "v": 53
    },
    {
      "midi": 50,
      "hit": false,
      "t": 214302.08333333404,
      "d": 140.625,
      "v": 41
    },
    {
      "midi": 65,
      "hit": false,
      "t": 214473.95833333404,
      "d": 72.91666666665697,
      "v": 43
    },
    {
      "midi": 53,
      "hit": false,
      "t": 214489.58333333404,
      "d": 67.70833333331393,
      "v": 58
    },
    {
      "midi": 55,
      "hit": false,
      "t": 214697.91666666736,
      "d": 177.08333333334303,
      "v": 68
    },
    {
      "midi": 67,
      "hit": false,
      "t": 214722.6562500007,
      "d": 52.083333333343035,
      "v": 43
    },
    {
      "midi": 69,
      "hit": false,
      "t": 214911.45833333404,
      "d": 307.2916666667152,
      "v": 74
    },
    {
      "midi": 58,
      "hit": false,
      "t": 214921.8750000007,
      "d": 291.6666666667152,
      "v": 56
    },
    {
      "midi": 62,
      "hit": false,
      "t": 214927.08333333404,
      "d": 265.6250000000291,
      "v": 72
    },
    {
      "midi": 65,
      "hit": false,
      "t": 214932.29166666738,
      "d": 260.41666666668607,
      "v": 66
    },
    {
      "midi": 57,
      "hit": false,
      "t": 214932.29166666738,
      "d": 291.6666666667152,
      "v": 68
    },
    {
      "midi": 48,
      "hit": false,
      "t": 215359.37500000076,
      "d": 557.2916666666279,
      "v": 52
    },
    {
      "midi": 58,
      "hit": false,
      "t": 215588.5416666674,
      "d": 88.54166666665697,
      "v": 59
    },
    {
      "midi": 61,
      "hit": false,
      "t": 215598.95833333407,
      "d": 135.41666666665697,
      "v": 53
    },
    {
      "midi": 64,
      "hit": false,
      "t": 215604.1666666674,
      "d": 57.291666666656965,
      "v": 55
    },
    {
      "midi": 57,
      "hit": false,
      "t": 215604.1666666674,
      "d": 83.33333333331393,
      "v": 60
    },
    {
      "midi": 60,
      "hit": false,
      "t": 215796.87500000073,
      "d": 93.75,
      "v": 68
    },
    {
      "midi": 61,
      "hit": false,
      "t": 215994.79166666738,
      "d": 135.41666666665697,
      "v": 88
    },
    {
      "midi": 60,
      "hit": false,
      "t": 216213.54166666738,
      "d": 83.33333333334303,
      "v": 78
    },
    {
      "midi": 61,
      "hit": false,
      "t": 216250.00000000073,
      "d": 88.54166666665697,
      "v": 49
    },
    {
      "midi": 62,
      "hit": false,
      "t": 216328.12500000073,
      "d": 98.95833333331393,
      "v": 68
    },
    {
      "midi": 65,
      "hit": false,
      "t": 216473.95833333404,
      "d": 98.95833333334303,
      "v": 84
    },
    {
      "midi": 62,
      "hit": false,
      "t": 216661.45833333404,
      "d": 72.91666666665697,
      "v": 75
    },
    {
      "midi": 53,
      "hit": false,
      "t": 216875.0000000007,
      "d": 609.375,
      "v": 60
    },
    {
      "midi": 48,
      "hit": false,
      "t": 217109.3750000007,
      "d": 411.45833333334303,
      "v": 72
    },
    {
      "midi": 41,
      "hit": false,
      "t": 217572.91666666738,
      "d": 46.875,
      "v": 36
    },
    {
      "midi": 68,
      "hit": false,
      "t": 218041.66666666738,
      "d": 578.125,
      "v": 54
    },
    {
      "midi": 65,
      "hit": false,
      "t": 218052.08333333404,
      "d": 526.0416666666861,
      "v": 62
    },
    {
      "midi": 47,
      "hit": false,
      "t": 218052.08333333404,
      "d": 567.708333333343,
      "v": 46
    },
    {
      "midi": 57,
      "hit": false,
      "t": 218057.29166666738,
      "d": 531.25,
      "v": 43
    },
    {
      "midi": 61,
      "hit": false,
      "t": 218057.29166666738,
      "d": 645.833333333343,
      "v": 60
    },
    {
      "midi": 56,
      "hit": false,
      "t": 218062.50000000073,
      "d": 541.666666666657,
      "v": 38
    },
    {
      "midi": 51,
      "hit": false,
      "t": 218067.70833333407,
      "d": 718.75,
      "v": 39
    },
    {
      "midi": 65,
      "hit": false,
      "t": 219088.5416666674,
      "d": 343.7500000000291,
      "v": 57
    },
    {
      "midi": 62,
      "hit": false,
      "t": 219093.75000000076,
      "d": 260.41666666668607,
      "v": 43
    },
    {
      "midi": 46,
      "hit": false,
      "t": 219098.9583333341,
      "d": 145.83333333334303,
      "v": 39
    },
    {
      "midi": 57,
      "hit": false,
      "t": 219104.16666666744,
      "d": 72.91666666665697,
      "v": 31
    },
    {
      "midi": 60,
      "hit": false,
      "t": 219802.0833333341,
      "d": 83.33333333331393,
      "v": 55
    },
    {
      "midi": 62,
      "hit": false,
      "t": 219817.7083333341,
      "d": 41.666666666656965,
      "v": 40
    },
    {
      "midi": 38,
      "hit": false,
      "t": 220416.6666666674,
      "d": 41.666666666656965,
      "v": 36
    },
    {
      "midi": 74,
      "hit": false,
      "t": 220729.1666666674,
      "d": 234.375,
      "v": 58
    },
    {
      "midi": 69,
      "hit": false,
      "t": 220729.1666666674,
      "d": 333.33333333331393,
      "v": 44
    },
    {
      "midi": 81,
      "hit": false,
      "t": 220729.1666666674,
      "d": 338.54166666665697,
      "v": 51
    },
    {
      "midi": 78,
      "hit": false,
      "t": 220734.37500000076,
      "d": 239.58333333331393,
      "v": 38
    },
    {
      "midi": 54,
      "hit": false,
      "t": 221041.66666666738,
      "d": 489.58333333334303,
      "v": 42
    },
    {
      "midi": 44,
      "hit": false,
      "t": 221348.95833333407,
      "d": 208.33333333331393,
      "v": 44
    },
    {
      "midi": 43,
      "hit": false,
      "t": 221677.08333333404,
      "d": 36.458333333343035,
      "v": 58
    },
    {
      "midi": 70,
      "hit": false,
      "t": 221994.79166666738,
      "d": 703.125,
      "v": 71
    },
    {
      "midi": 62,
      "hit": false,
      "t": 222010.41666666738,
      "d": 57.291666666656965,
      "v": 41
    },
    {
      "midi": 58,
      "hit": false,
      "t": 222286.45833333404,
      "d": 36.458333333343035,
      "v": 43
    },
    {
      "midi": 46,
      "hit": false,
      "t": 222598.95833333404,
      "d": 145.83333333334303,
      "v": 42
    },
    {
      "midi": 60,
      "hit": false,
      "t": 222796.87500000073,
      "d": 192.70833333331393,
      "v": 54
    },
    {
      "midi": 67,
      "hit": false,
      "t": 222796.87500000073,
      "d": 729.166666666657,
      "v": 53
    },
    {
      "midi": 72,
      "hit": false,
      "t": 222802.08333333407,
      "d": 968.7499999999709,
      "v": 60
    },
    {
      "midi": 45,
      "hit": false,
      "t": 222880.20833333407,
      "d": 41.666666666656965,
      "v": 31
    },
    {
      "midi": 55,
      "hit": false,
      "t": 222890.62500000073,
      "d": 41.666666666656965,
      "v": 29
    },
    {
      "midi": 62,
      "hit": false,
      "t": 223203.1250000007,
      "d": 36.458333333343035,
      "v": 53
    },
    {
      "midi": 60,
      "hit": false,
      "t": 223223.95833333404,
      "d": 46.875,
      "v": 30
    },
    {
      "midi": 55,
      "hit": false,
      "t": 223231.77083333404,
      "d": 52.083333333343035,
      "v": 43
    },
    {
      "midi": 50,
      "hit": false,
      "t": 223500.00000000073,
      "d": 473.95833333331393,
      "v": 59
    },
    {
      "midi": 60,
      "hit": false,
      "t": 223791.66666666738,
      "d": 41.66666666668607,
      "v": 48
    },
    {
      "midi": 64,
      "hit": false,
      "t": 223812.50000000073,
      "d": 41.666666666656965,
      "v": 46
    },
    {
      "midi": 68,
      "hit": false,
      "t": 223812.50000000073,
      "d": 57.291666666656965,
      "v": 38
    },
    {
      "midi": 54,
      "hit": false,
      "t": 223843.75000000073,
      "d": 52.08333333331393,
      "v": 28
    },
    {
      "midi": 74,
      "hit": false,
      "t": 224104.16666666738,
      "d": 546.8750000000582,
      "v": 78
    },
    {
      "midi": 67,
      "hit": false,
      "t": 224109.37500000073,
      "d": 500.0000000000291,
      "v": 68
    },
    {
      "midi": 62,
      "hit": false,
      "t": 224119.7916666674,
      "d": 494.79166666668607,
      "v": 69
    },
    {
      "midi": 70,
      "hit": false,
      "t": 224119.7916666674,
      "d": 515.6250000000291,
      "v": 64
    },
    {
      "midi": 58,
      "hit": false,
      "t": 224135.4166666674,
      "d": 562.5000000000291,
      "v": 56
    },
    {
      "midi": 74,
      "hit": false,
      "t": 224739.5833333341,
      "d": 557.2916666667152,
      "v": 59
    },
    {
      "midi": 57,
      "hit": false,
      "t": 224744.79166666744,
      "d": 385.41666666668607,
      "v": 58
    },
    {
      "midi": 67,
      "hit": false,
      "t": 224750.0000000008,
      "d": 432.29166666668607,
      "v": 51
    },
    {
      "midi": 62,
      "hit": false,
      "t": 224755.20833333413,
      "d": 458.33333333334303,
      "v": 50
    },
    {
      "midi": 70,
      "hit": false,
      "t": 224765.6250000008,
      "d": 447.91666666668607,
      "v": 40
    },
    {
      "midi": 56,
      "hit": false,
      "t": 225166.66666666747,
      "d": 98.95833333334303,
      "v": 47
    },
    {
      "midi": 55,
      "hit": false,
      "t": 225322.91666666747,
      "d": 93.75,
      "v": 62
    },
    {
      "midi": 54,
      "hit": false,
      "t": 225432.29166666747,
      "d": 223.95833333337214,
      "v": 67
    },
    {
      "midi": 74,
      "hit": false,
      "t": 225468.75000000081,
      "d": 593.7500000000291,
      "v": 51
    },
    {
      "midi": 66,
      "hit": false,
      "t": 225473.95833333416,
      "d": 416.66666666668607,
      "v": 50
    },
    {
      "midi": 62,
      "hit": false,
      "t": 225479.1666666675,
      "d": 416.66666666668607,
      "v": 42
    },
    {
      "midi": 66,
      "hit": false,
      "t": 226078.12500000084,
      "d": 364.58333333337214,
      "v": 48
    },
    {
      "midi": 54,
      "hit": false,
      "t": 226083.3333333342,
      "d": 177.08333333334303,
      "v": 39
    },
    {
      "midi": 62,
      "hit": false,
      "t": 226098.9583333342,
      "d": 260.41666666668607,
      "v": 29
    },
    {
      "midi": 66,
      "hit": false,
      "t": 226500.00000000087,
      "d": 119.79166666665697,
      "v": 32
    },
    {
      "midi": 70,
      "hit": false,
      "t": 226500.00000000087,
      "d": 166.66666666665697,
      "v": 63
    },
    {
      "midi": 39,
      "hit": false,
      "t": 226729.16666666753,
      "d": 125,
      "v": 42
    },
    {
      "midi": 65,
      "hit": false,
      "t": 226739.5833333342,
      "d": 145.83333333334303,
      "v": 51
    },
    {
      "midi": 69,
      "hit": false,
      "t": 226739.5833333342,
      "d": 218.75,
      "v": 60
    },
    {
      "midi": 46,
      "hit": false,
      "t": 226744.79166666753,
      "d": 145.83333333334303,
      "v": 42
    },
    {
      "midi": 61,
      "hit": false,
      "t": 226776.04166666753,
      "d": 140.625,
      "v": 18
    },
    {
      "midi": 69,
      "hit": false,
      "t": 227088.54166666753,
      "d": 171.875,
      "v": 87
    },
    {
      "midi": 70,
      "hit": false,
      "t": 227244.79166666753,
      "d": 119.79166666665697,
      "v": 83
    },
    {
      "midi": 55,
      "hit": false,
      "t": 227411.4583333342,
      "d": 223.95833333331393,
      "v": 55
    },
    {
      "midi": 65,
      "hit": false,
      "t": 227416.66666666753,
      "d": 140.625,
      "v": 41
    },
    {
      "midi": 61,
      "hit": false,
      "t": 227421.87500000087,
      "d": 255.20833333328483,
      "v": 37
    },
    {
      "midi": 72,
      "hit": false,
      "t": 227432.29166666753,
      "d": 104.16666666665697,
      "v": 61
    },
    {
      "midi": 77,
      "hit": false,
      "t": 227625.00000000084,
      "d": 88.54166666665697,
      "v": 35
    },
    {
      "midi": 81,
      "hit": false,
      "t": 227781.25000000084,
      "d": 83.33333333334303,
      "v": 64
    },
    {
      "midi": 82,
      "hit": false,
      "t": 227937.50000000084,
      "d": 177.08333333331393,
      "v": 73
    },
    {
      "midi": 60,
      "hit": false,
      "t": 228083.33333333416,
      "d": 317.70833333331393,
      "v": 34
    },
    {
      "midi": 50,
      "hit": false,
      "t": 228088.5416666675,
      "d": 265.6249999999709,
      "v": 44
    },
    {
      "midi": 54,
      "hit": false,
      "t": 228088.5416666675,
      "d": 276.04166666662786,
      "v": 40
    },
    {
      "midi": 83,
      "hit": false,
      "t": 228125.00000000081,
      "d": 208.33333333331393,
      "v": 72
    },
    {
      "midi": 84,
      "hit": false,
      "t": 228390.6250000008,
      "d": 218.7500000000291,
      "v": 82
    },
    {
      "midi": 72,
      "hit": false,
      "t": 228395.83333333413,
      "d": 229.16666666668607,
      "v": 59
    },
    {
      "midi": 60,
      "hit": false,
      "t": 228776.04166666747,
      "d": 281.25,
      "v": 49
    },
    {
      "midi": 65,
      "hit": false,
      "t": 228781.25000000081,
      "d": 286.45833333331393,
      "v": 49
    },
    {
      "midi": 54,
      "hit": false,
      "t": 228781.25000000081,
      "d": 333.33333333331393,
      "v": 47
    },
    {
      "midi": 85,
      "hit": false,
      "t": 228786.45833333416,
      "d": 104.16666666665697,
      "v": 60
    },
    {
      "midi": 73,
      "hit": false,
      "t": 228796.87500000081,
      "d": 78.125,
      "v": 45
    },
    {
      "midi": 86,
      "hit": false,
      "t": 228963.54166666747,
      "d": 52.083333333343035,
      "v": 58
    },
    {
      "midi": 74,
      "hit": false,
      "t": 228968.75000000081,
      "d": 41.666666666656965,
      "v": 58
    },
    {
      "midi": 53,
      "hit": false,
      "t": 229343.7500000008,
      "d": 317.70833333334303,
      "v": 56
    },
    {
      "midi": 59,
      "hit": false,
      "t": 229473.95833333413,
      "d": 145.83333333334303,
      "v": 40
    },
    {
      "midi": 64,
      "hit": false,
      "t": 229510.41666666744,
      "d": 83.33333333337214,
      "v": 68
    },
    {
      "midi": 93,
      "hit": false,
      "t": 229515.6250000008,
      "d": 135.41666666668607,
      "v": 74
    },
    {
      "midi": 88,
      "hit": false,
      "t": 229520.83333333413,
      "d": 177.08333333331393,
      "v": 68
    },
    {
      "midi": 81,
      "hit": false,
      "t": 229526.04166666747,
      "d": 203.1249999999709,
      "v": 57
    },
    {
      "midi": 43,
      "hit": false,
      "t": 229947.91666666744,
      "d": 36.458333333343035,
      "v": 49
    },
    {
      "midi": 50,
      "hit": false,
      "t": 230020.83333333413,
      "d": 36.458333333343035,
      "v": 20
    },
    {
      "midi": 54,
      "hit": false,
      "t": 230166.66666666747,
      "d": 421.875,
      "v": 51
    },
    {
      "midi": 69,
      "hit": false,
      "t": 230166.66666666747,
      "d": 505.20833333334303,
      "v": 65
    },
    {
      "midi": 64,
      "hit": false,
      "t": 230171.87500000081,
      "d": 359.375,
      "v": 66
    },
    {
      "midi": 59,
      "hit": false,
      "t": 230192.70833333413,
      "d": 401.04166666668607,
      "v": 50
    },
    {
      "midi": 50,
      "hit": false,
      "t": 230630.20833333416,
      "d": 166.66666666665697,
      "v": 40
    },
    {
      "midi": 67,
      "hit": false,
      "t": 230833.33333333416,
      "d": 765.6250000000291,
      "v": 46
    },
    {
      "midi": 55,
      "hit": false,
      "t": 230854.1666666675,
      "d": 385.41666666668607,
      "v": 51
    },
    {
      "midi": 60,
      "hit": false,
      "t": 230859.37500000084,
      "d": 635.4166666666861,
      "v": 49
    },
    {
      "midi": 64,
      "hit": false,
      "t": 230864.5833333342,
      "d": 697.916666666657,
      "v": 35
    },
    {
      "midi": 43,
      "hit": false,
      "t": 231286.4583333342,
      "d": 145.83333333334303,
      "v": 81
    },
    {
      "midi": 43,
      "hit": false,
      "t": 231552.0833333342,
      "d": 93.75,
      "v": 64
    },
    {
      "midi": 82,
      "hit": false,
      "t": 231989.5833333342,
      "d": 78.125,
      "v": 57
    },
    {
      "midi": 70,
      "hit": false,
      "t": 232000.00000000084,
      "d": 93.75,
      "v": 74
    },
    {
      "midi": 79,
      "hit": false,
      "t": 232000.00000000084,
      "d": 182.29166666665697,
      "v": 56
    },
    {
      "midi": 59,
      "hit": false,
      "t": 232000.00000000084,
      "d": 203.125,
      "v": 69
    },
    {
      "midi": 53,
      "hit": false,
      "t": 232010.4166666675,
      "d": 151.04166666665697,
      "v": 66
    },
    {
      "midi": 64,
      "hit": false,
      "t": 232010.4166666675,
      "d": 218.75,
      "v": 71
    },
    {
      "midi": 76,
      "hit": false,
      "t": 232015.62500000084,
      "d": 46.875,
      "v": 53
    },
    {
      "midi": 83,
      "hit": false,
      "t": 232083.3333333342,
      "d": 46.874999999970896,
      "v": 47
    },
    {
      "midi": 71,
      "hit": false,
      "t": 232104.1666666675,
      "d": 125,
      "v": 64
    },
    {
      "midi": 80,
      "hit": false,
      "t": 232114.58333333416,
      "d": 67.70833333334303,
      "v": 23
    },
    {
      "midi": 76,
      "hit": false,
      "t": 232119.7916666675,
      "d": 41.666666666656965,
      "v": 17
    },
    {
      "midi": 81,
      "hit": false,
      "t": 232119.7916666675,
      "d": 41.666666666656965,
      "v": 30
    },
    {
      "midi": 53,
      "hit": false,
      "t": 232255.20833333416,
      "d": 98.95833333334303,
      "v": 45
    },
    {
      "midi": 79,
      "hit": false,
      "t": 232276.0416666675,
      "d": 62.5,
      "v": 33
    },
    {
      "midi": 76,
      "hit": false,
      "t": 232286.45833333416,
      "d": 72.91666666668607,
      "v": 36
    },
    {
      "midi": 59,
      "hit": false,
      "t": 232338.5416666675,
      "d": 62.5,
      "v": 37
    },
    {
      "midi": 71,
      "hit": false,
      "t": 232343.75000000084,
      "d": 72.91666666665697,
      "v": 56
    },
    {
      "midi": 64,
      "hit": false,
      "t": 232390.62500000084,
      "d": 46.874999999970896,
      "v": 42
    },
    {
      "midi": 83,
      "hit": false,
      "t": 232427.08333333416,
      "d": 72.91666666662786,
      "v": 37
    },
    {
      "midi": 76,
      "hit": false,
      "t": 232447.91666666747,
      "d": 52.08333333331393,
      "v": 49
    },
    {
      "midi": 79,
      "hit": false,
      "t": 232463.54166666747,
      "d": 41.666666666656965,
      "v": 27
    },
    {
      "midi": 53,
      "hit": false,
      "t": 232473.95833333413,
      "d": 88.54166666665697,
      "v": 44
    },
    {
      "midi": 71,
      "hit": false,
      "t": 232505.20833333413,
      "d": 83.33333333331393,
      "v": 60
    },
    {
      "midi": 59,
      "hit": false,
      "t": 232572.91666666744,
      "d": 62.5,
      "v": 37
    },
    {
      "midi": 64,
      "hit": false,
      "t": 232604.16666666744,
      "d": 46.875,
      "v": 45
    },
    {
      "midi": 76,
      "hit": false,
      "t": 232609.3750000008,
      "d": 78.125,
      "v": 47
    },
    {
      "midi": 79,
      "hit": false,
      "t": 232619.79166666744,
      "d": 46.875,
      "v": 32
    },
    {
      "midi": 71,
      "hit": false,
      "t": 232671.8750000008,
      "d": 88.54166666665697,
      "v": 55
    },
    {
      "midi": 53,
      "hit": false,
      "t": 232687.5000000008,
      "d": 171.875,
      "v": 53
    },
    {
      "midi": 76,
      "hit": false,
      "t": 232770.8333333341,
      "d": 36.458333333343035,
      "v": 67
    },
    {
      "midi": 83,
      "hit": false,
      "t": 232770.8333333341,
      "d": 41.66666666668607,
      "v": 32
    },
    {
      "midi": 59,
      "hit": false,
      "t": 232807.29166666744,
      "d": 41.66666666668607,
      "v": 45
    },
    {
      "midi": 43,
      "hit": false,
      "t": 233218.7500000008,
      "d": 83.33333333334303,
      "v": 71
    },
    {
      "midi": 86,
      "hit": false,
      "t": 233656.2500000008,
      "d": 302.08333333337214,
      "v": 90
    },
    {
      "midi": 74,
      "hit": false,
      "t": 233661.45833333413,
      "d": 276.04166666668607,
      "v": 91
    },
    {
      "midi": 81,
      "hit": false,
      "t": 233661.45833333413,
      "d": 302.08333333337214,
      "v": 88
    },
    {
      "midi": 59,
      "hit": false,
      "t": 233666.66666666747,
      "d": 343.7500000000291,
      "v": 82
    },
    {
      "midi": 64,
      "hit": false,
      "t": 233671.87500000081,
      "d": 281.25,
      "v": 85
    },
    {
      "midi": 53,
      "hit": false,
      "t": 233671.87500000081,
      "d": 291.66666666668607,
      "v": 88
    },
    {
      "midi": 62,
      "hit": false,
      "t": 233692.70833333416,
      "d": 31.25,
      "v": 70
    },
    {
      "midi": 86,
      "hit": false,
      "t": 234130.20833333416,
      "d": 494.79166666668607,
      "v": 88
    },
    {
      "midi": 64,
      "hit": false,
      "t": 234130.20833333416,
      "d": 640.6250000000291,
      "v": 91
    },
    {
      "midi": 59,
      "hit": false,
      "t": 234130.20833333416,
      "d": 661.4583333333721,
      "v": 82
    },
    {
      "midi": 81,
      "hit": false,
      "t": 234135.4166666675,
      "d": 526.0416666666861,
      "v": 92
    },
    {
      "midi": 53,
      "hit": false,
      "t": 234135.4166666675,
      "d": 536.458333333343,
      "v": 88
    },
    {
      "midi": 74,
      "hit": false,
      "t": 234135.4166666675,
      "d": 567.708333333343,
      "v": 91
    },
    {
      "midi": 53,
      "hit": false,
      "t": 234895.8333333342,
      "d": 46.875,
      "v": 42
    },
    {
      "midi": 74,
      "hit": false,
      "t": 235166.66666666753,
      "d": 239.58333333334303,
      "v": 94
    },
    {
      "midi": 65,
      "hit": false,
      "t": 235171.87500000087,
      "d": 354.16666666665697,
      "v": 94
    },
    {
      "midi": 69,
      "hit": false,
      "t": 235171.87500000087,
      "d": 390.625,
      "v": 95
    },
    {
      "midi": 64,
      "hit": false,
      "t": 235177.08333333422,
      "d": 473.95833333331393,
      "v": 91
    },
    {
      "midi": 75,
      "hit": false,
      "t": 235619.79166666753,
      "d": 187.5000000000291,
      "v": 58
    },
    {
      "midi": 63,
      "hit": false,
      "t": 235619.79166666753,
      "d": 244.79166666668607,
      "v": 63
    },
    {
      "midi": 65,
      "hit": false,
      "t": 235635.41666666753,
      "d": 98.95833333334303,
      "v": 25
    },
    {
      "midi": 69,
      "hit": false,
      "t": 235645.8333333342,
      "d": 109.3750000000291,
      "v": 39
    },
    {
      "midi": 76,
      "hit": false,
      "t": 235890.62500000087,
      "d": 41.66666666668607,
      "v": 58
    },
    {
      "midi": 62,
      "hit": false,
      "t": 235895.83333333422,
      "d": 57.29166666668607,
      "v": 60
    },
    {
      "midi": 65,
      "hit": false,
      "t": 235901.04166666756,
      "d": 109.375,
      "v": 53
    },
    {
      "midi": 69,
      "hit": false,
      "t": 235916.66666666756,
      "d": 52.083333333343035,
      "v": 38
    },
    {
      "midi": 43,
      "hit": false,
      "t": 236291.66666666756,
      "d": 46.875,
      "v": 57
    },
    {
      "midi": 53,
      "hit": false,
      "t": 236578.1250000009,
      "d": 364.58333333340124,
      "v": 57
    },
    {
      "midi": 61,
      "hit": false,
      "t": 236578.1250000009,
      "d": 369.7916666667443,
      "v": 46
    },
    {
      "midi": 59,
      "hit": false,
      "t": 236583.33333333425,
      "d": 354.1666666667152,
      "v": 52
    },
    {
      "midi": 69,
      "hit": false,
      "t": 236588.5416666676,
      "d": 348.95833333337214,
      "v": 50
    },
    {
      "midi": 64,
      "hit": false,
      "t": 236593.75000000093,
      "d": 359.3750000000582,
      "v": 56
    },
    {
      "midi": 59,
      "hit": false,
      "t": 237057.29166666765,
      "d": 270.83333333337214,
      "v": 51
    },
    {
      "midi": 61,
      "hit": false,
      "t": 237057.29166666765,
      "d": 317.70833333337214,
      "v": 47
    },
    {
      "midi": 69,
      "hit": false,
      "t": 237062.500000001,
      "d": 354.16666666668607,
      "v": 53
    },
    {
      "midi": 64,
      "hit": false,
      "t": 237067.70833333433,
      "d": 213.54166666668607,
      "v": 51
    },
    {
      "midi": 53,
      "hit": false,
      "t": 237072.91666666768,
      "d": 250,
      "v": 47
    },
    {
      "midi": 69,
      "hit": false,
      "t": 237500.00000000102,
      "d": 192.70833333334303,
      "v": 36
    },
    {
      "midi": 59,
      "hit": false,
      "t": 237510.41666666768,
      "d": 104.16666666668607,
      "v": 49
    },
    {
      "midi": 62,
      "hit": false,
      "t": 237515.62500000102,
      "d": 135.41666666668607,
      "v": 55
    },
    {
      "midi": 65,
      "hit": false,
      "t": 237520.83333333436,
      "d": 140.625,
      "v": 55
    },
    {
      "midi": 53,
      "hit": false,
      "t": 237526.0416666677,
      "d": 104.16666666665697,
      "v": 58
    },
    {
      "midi": 74,
      "hit": false,
      "t": 238000.00000000102,
      "d": 203.125,
      "v": 85
    },
    {
      "midi": 70,
      "hit": false,
      "t": 238005.20833333436,
      "d": 380.20833333331393,
      "v": 78
    },
    {
      "midi": 58,
      "hit": false,
      "t": 238010.4166666677,
      "d": 333.33333333331393,
      "v": 67
    },
    {
      "midi": 65,
      "hit": false,
      "t": 238010.4166666677,
      "d": 333.33333333331393,
      "v": 84
    },
    {
      "midi": 67,
      "hit": false,
      "t": 238010.4166666677,
      "d": 385.41666666662786,
      "v": 85
    },
    {
      "midi": 62,
      "hit": false,
      "t": 238015.62500000105,
      "d": 578.1249999999709,
      "v": 73
    },
    {
      "midi": 57,
      "hit": false,
      "t": 238026.0416666677,
      "d": 609.3749999999709,
      "v": 55
    },
    {
      "midi": 58,
      "hit": false,
      "t": 238427.08333333433,
      "d": 229.16666666668607,
      "v": 45
    },
    {
      "midi": 75,
      "hit": false,
      "t": 238447.91666666768,
      "d": 145.83333333334303,
      "v": 74
    },
    {
      "midi": 76,
      "hit": false,
      "t": 238729.16666666768,
      "d": 59.895833333343035,
      "v": 63
    },
    {
      "midi": 48,
      "hit": false,
      "t": 239072.91666666768,
      "d": 52.083333333343035,
      "v": 64
    },
    {
      "midi": 58,
      "hit": false,
      "t": 239354.16666666768,
      "d": 796.8750000000582,
      "v": 48
    },
    {
      "midi": 68,
      "hit": false,
      "t": 239390.62500000102,
      "d": 890.6250000000582,
      "v": 55
    },
    {
      "midi": 72,
      "hit": false,
      "t": 239442.70833333436,
      "d": 781.2500000000291,
      "v": 60
    },
    {
      "midi": 64,
      "hit": false,
      "t": 239473.95833333436,
      "d": 640.6250000000291,
      "v": 58
    },
    {
      "midi": 76,
      "hit": false,
      "t": 239505.20833333436,
      "d": 723.9583333333721,
      "v": 70
    },
    {
      "midi": 80,
      "hit": false,
      "t": 239541.6666666677,
      "d": 692.7083333333721,
      "v": 64
    },
    {
      "midi": 41,
      "hit": false,
      "t": 240791.66666666773,
      "d": 1541.666666666657,
      "v": 57
    },
    {
      "midi": 48,
      "hit": false,
      "t": 240802.0833333344,
      "d": 125.0000000000291,
      "v": 64
    },
    {
      "midi": 52,
      "hit": false,
      "t": 240848.9583333344,
      "d": 989.583333333343,
      "v": 64
    },
    {
      "midi": 56,
      "hit": false,
      "t": 240869.79166666773,
      "d": 1145.833333333314,
      "v": 67
    },
    {
      "midi": 59,
      "hit": false,
      "t": 240921.87500000108,
      "d": 1005.2083333333139,
      "v": 67
    },
    {
      "midi": 64,
      "hit": false,
      "t": 240947.91666666776,
      "d": 270.83333333331393,
      "v": 85
    },
    {
      "midi": 50,
      "hit": false,
      "t": 240947.91666666776,
      "d": 1052.0833333332848,
      "v": 74
    },
    {
      "midi": 64,
      "hit": false,
      "t": 241302.08333333442,
      "d": 161.45833333334303,
      "v": 70
    },
    {
      "midi": 62,
      "hit": false,
      "t": 241348.95833333442,
      "d": 140.625,
      "v": 30
    },
    {
      "midi": 64,
      "hit": false,
      "t": 241598.95833333442,
      "d": 151.04166666665697,
      "v": 76
    },
    {
      "midi": 64,
      "hit": false,
      "t": 241869.79166666773,
      "d": 317.70833333331393,
      "v": 60
    },
    {
      "midi": 56,
      "hit": false,
      "t": 242359.37500000105,
      "d": 354.16666666668607,
      "v": 39
    },
    {
      "midi": 62,
      "hit": false,
      "t": 242359.37500000105,
      "d": 385.41666666668607,
      "v": 58
    },
    {
      "midi": 53,
      "hit": false,
      "t": 242364.5833333344,
      "d": 296.875,
      "v": 53
    },
    {
      "midi": 59,
      "hit": false,
      "t": 242375.00000000105,
      "d": 333.33333333334303,
      "v": 55
    },
    {
      "midi": 44,
      "hit": false,
      "t": 242666.66666666773,
      "d": 666.6666666666861,
      "v": 56
    },
    {
      "midi": 53,
      "hit": false,
      "t": 242953.12500000108,
      "d": 281.25,
      "v": 40
    },
    {
      "midi": 56,
      "hit": false,
      "t": 242968.75000000108,
      "d": 187.5,
      "v": 44
    },
    {
      "midi": 62,
      "hit": false,
      "t": 242973.95833333442,
      "d": 156.25,
      "v": 53
    },
    {
      "midi": 59,
      "hit": false,
      "t": 242984.37500000108,
      "d": 140.625,
      "v": 35
    },
    {
      "midi": 65,
      "hit": false,
      "t": 243192.70833333442,
      "d": 145.83333333334303,
      "v": 69
    },
    {
      "midi": 62,
      "hit": false,
      "t": 243437.5000000011,
      "d": 93.75,
      "v": 58
    },
    {
      "midi": 43,
      "hit": false,
      "t": 243437.5000000011,
      "d": 255.20833333334303,
      "v": 50
    },
    {
      "midi": 58,
      "hit": false,
      "t": 243442.70833333445,
      "d": 72.91666666665697,
      "v": 35
    },
    {
      "midi": 55,
      "hit": false,
      "t": 243453.1250000011,
      "d": 41.666666666656965,
      "v": 37
    },
    {
      "midi": 53,
      "hit": false,
      "t": 243713.5416666678,
      "d": 41.666666666656965,
      "v": 45
    },
    {
      "midi": 77,
      "hit": false,
      "t": 243729.1666666678,
      "d": 140.625,
      "v": 65
    },
    {
      "midi": 58,
      "hit": false,
      "t": 244052.08333333445,
      "d": 406.2500000000291,
      "v": 40
    },
    {
      "midi": 70,
      "hit": false,
      "t": 244057.2916666678,
      "d": 390.625,
      "v": 46
    },
    {
      "midi": 77,
      "hit": false,
      "t": 244067.70833333445,
      "d": 166.66666666668607,
      "v": 57
    },
    {
      "midi": 74,
      "hit": false,
      "t": 244072.9166666678,
      "d": 203.125,
      "v": 52
    },
    {
      "midi": 65,
      "hit": false,
      "t": 244093.75000000114,
      "d": 156.25,
      "v": 27
    },
    {
      "midi": 77,
      "hit": false,
      "t": 244364.58333333445,
      "d": 88.54166666668607,
      "v": 53
    },
    {
      "midi": 62,
      "hit": false,
      "t": 244375.0000000011,
      "d": 36.458333333343035,
      "v": 43
    },
    {
      "midi": 73,
      "hit": false,
      "t": 244744.79166666782,
      "d": 656.25,
      "v": 35
    },
    {
      "midi": 68,
      "hit": false,
      "t": 244744.79166666782,
      "d": 697.916666666657,
      "v": 47
    },
    {
      "midi": 76,
      "hit": false,
      "t": 244744.79166666782,
      "d": 796.875,
      "v": 54
    },
    {
      "midi": 64,
      "hit": false,
      "t": 244755.20833333448,
      "d": 656.25,
      "v": 44
    },
    {
      "midi": 61,
      "hit": false,
      "t": 244776.04166666782,
      "d": 276.04166666665697,
      "v": 46
    },
    {
      "midi": 61,
      "hit": false,
      "t": 245161.45833333448,
      "d": 442.70833333334303,
      "v": 47
    },
    {
      "midi": 60,
      "hit": false,
      "t": 245630.20833333448,
      "d": 203.125,
      "v": 49
    },
    {
      "midi": 64,
      "hit": false,
      "t": 245635.41666666782,
      "d": 307.29166666665697,
      "v": 40
    },
    {
      "midi": 72,
      "hit": false,
      "t": 245645.83333333448,
      "d": 208.33333333334303,
      "v": 45
    },
    {
      "midi": 60,
      "hit": false,
      "t": 246161.45833333448,
      "d": 1145.833333333343,
      "v": 36
    },
    {
      "midi": 64,
      "hit": false,
      "t": 246166.66666666782,
      "d": 1104.166666666657,
      "v": 51
    },
    {
      "midi": 48,
      "hit": false,
      "t": 246187.50000000116,
      "d": 1052.083333333314,
      "v": 45
    },
    {
      "midi": 58,
      "hit": false,
      "t": 246203.12500000116,
      "d": 1010.416666666657,
      "v": 27
    },
    {
      "midi": 41,
      "hit": false,
      "t": 248713.54166666782,
      "d": 1812.4999999999127,
      "v": 40
    },
    {
      "midi": 56,
      "hit": false,
      "t": 248723.95833333448,
      "d": 979.1666666665988,
      "v": 52
    },
    {
      "midi": 59,
      "hit": false,
      "t": 248755.20833333448,
      "d": 765.6249999999418,
      "v": 71
    },
    {
      "midi": 48,
      "hit": false,
      "t": 248770.83333333448,
      "d": 666.6666666665988,
      "v": 49
    },
    {
      "midi": 64,
      "hit": false,
      "t": 248796.87500000114,
      "d": 927.0833333332848,
      "v": 72
    },
    {
      "midi": 67,
      "hit": false,
      "t": 248828.12500000114,
      "d": 374.9999999999709,
      "v": 68
    },
    {
      "midi": 65,
      "hit": false,
      "t": 248864.58333333445,
      "d": 354.16666666665697,
      "v": 30
    },
    {
      "midi": 67,
      "hit": false,
      "t": 249395.83333333442,
      "d": 296.875,
      "v": 67
    },
    {
      "midi": 49,
      "hit": false,
      "t": 249411.45833333442,
      "d": 437.5,
      "v": 45
    },
    {
      "midi": 65,
      "hit": false,
      "t": 249468.75000000108,
      "d": 291.66666666668607,
      "v": 17
    },
    {
      "midi": 67,
      "hit": false,
      "t": 249968.75000000108,
      "d": 468.75,
      "v": 48
    },
    {
      "midi": 62,
      "hit": false,
      "t": 249968.75000000108,
      "d": 947.916666666657,
      "v": 51
    },
    {
      "midi": 57,
      "hit": false,
      "t": 249979.16666666773,
      "d": 645.833333333343,
      "v": 40
    },
    {
      "midi": 50,
      "hit": false,
      "t": 250010.41666666773,
      "d": 609.375,
      "v": 28
    },
    {
      "midi": 67,
      "hit": false,
      "t": 250531.25000000108,
      "d": 473.95833333331393,
      "v": 50
    },
    {
      "midi": 74,
      "hit": false,
      "t": 251614.5833333344,
      "d": 468.75,
      "v": 58
    },
    {
      "midi": 77,
      "hit": false,
      "t": 251619.79166666773,
      "d": 427.08333333331393,
      "v": 55
    },
    {
      "midi": 67,
      "hit": false,
      "t": 251625.00000000108,
      "d": 484.3749999999709,
      "v": 38
    },
    {
      "midi": 63,
      "hit": false,
      "t": 251625.00000000108,
      "d": 630.2083333333139,
      "v": 44
    },
    {
      "midi": 70,
      "hit": false,
      "t": 251635.41666666773,
      "d": 572.916666666657,
      "v": 46
    },
    {
      "midi": 62,
      "hit": false,
      "t": 251651.04166666773,
      "d": 484.375,
      "v": 33
    },
    {
      "midi": 77,
      "hit": false,
      "t": 252130.2083333344,
      "d": 375,
      "v": 46
    },
    {
      "midi": 77,
      "hit": false,
      "t": 252807.29166666773,
      "d": 500,
      "v": 52
    },
    {
      "midi": 68,
      "hit": false,
      "t": 252807.29166666773,
      "d": 1026.041666666657,
      "v": 46
    },
    {
      "midi": 73,
      "hit": false,
      "t": 252807.29166666773,
      "d": 1140.625,
      "v": 48
    },
    {
      "midi": 63,
      "hit": false,
      "t": 252817.7083333344,
      "d": 885.4166666666861,
      "v": 31
    },
    {
      "midi": 57,
      "hit": false,
      "t": 252822.91666666773,
      "d": 1000,
      "v": 48
    },
    {
      "midi": 77,
      "hit": false,
      "t": 253510.41666666773,
      "d": 239.58333333334303,
      "v": 51
    },
    {
      "midi": 46,
      "hit": false,
      "t": 255651.04166666773,
      "d": 1119.791666666657,
      "v": 59
    },
    {
      "midi": 61,
      "hit": false,
      "t": 255713.54166666773,
      "d": 1223.958333333314,
      "v": 33
    },
    {
      "midi": 64,
      "hit": false,
      "t": 255760.41666666773,
      "d": 1026.041666666657,
      "v": 68
    },
    {
      "midi": 53,
      "hit": false,
      "t": 255760.41666666773,
      "d": 1130.208333333314,
      "v": 57
    },
    {
      "midi": 69,
      "hit": false,
      "t": 255833.3333333344,
      "d": 494.79166666665697,
      "v": 72
    },
    {
      "midi": 72,
      "hit": false,
      "t": 255848.9583333344,
      "d": 562.5,
      "v": 81
    },
    {
      "midi": 72,
      "hit": false,
      "t": 256625.00000000105,
      "d": 296.875,
      "v": 64
    },
    {
      "midi": 62,
      "hit": false,
      "t": 257312.50000000105,
      "d": 380.20833333334303,
      "v": 47
    },
    {
      "midi": 69,
      "hit": false,
      "t": 257312.50000000105,
      "d": 380.20833333334303,
      "v": 59
    },
    {
      "midi": 58,
      "hit": false,
      "t": 257317.7083333344,
      "d": 468.75,
      "v": 30
    },
    {
      "midi": 65,
      "hit": false,
      "t": 257322.91666666773,
      "d": 260.41666666665697,
      "v": 45
    },
    {
      "midi": 46,
      "hit": false,
      "t": 257322.91666666773,
      "d": 479.16666666665697,
      "v": 35
    },
    {
      "midi": 53,
      "hit": false,
      "t": 257348.9583333344,
      "d": 380.20833333334303,
      "v": 29
    },
    {
      "midi": 65,
      "hit": false,
      "t": 257708.3333333344,
      "d": 135.41666666665697,
      "v": 58
    },
    {
      "midi": 67,
      "hit": false,
      "t": 258109.37500000105,
      "d": 239.58333333334303,
      "v": 44
    },
    {
      "midi": 55,
      "hit": false,
      "t": 258119.7916666677,
      "d": 109.3750000000291,
      "v": 45
    },
    {
      "midi": 60,
      "hit": false,
      "t": 258119.7916666677,
      "d": 187.5000000000291,
      "v": 45
    },
    {
      "midi": 39,
      "hit": false,
      "t": 258161.4583333344,
      "d": 307.29166666665697,
      "v": 46
    },
    {
      "midi": 46,
      "hit": false,
      "t": 258437.50000000105,
      "d": 203.125,
      "v": 56
    },
    {
      "midi": 79,
      "hit": false,
      "t": 258723.9583333344,
      "d": 718.7500000000291,
      "v": 53
    },
    {
      "midi": 72,
      "hit": false,
      "t": 258729.16666666773,
      "d": 291.66666666665697,
      "v": 54
    },
    {
      "midi": 55,
      "hit": false,
      "t": 258739.5833333344,
      "d": 135.41666666665697,
      "v": 26
    },
    {
      "midi": 58,
      "hit": false,
      "t": 258989.5833333344,
      "d": 942.7083333334012,
      "v": 46
    },
    {
      "midi": 67,
      "hit": false,
      "t": 259281.25000000105,
      "d": 125.0000000000291,
      "v": 42
    },
    {
      "midi": 72,
      "hit": false,
      "t": 259286.4583333344,
      "d": 234.3750000000291,
      "v": 53
    },
    {
      "midi": 61,
      "hit": false,
      "t": 259291.66666666773,
      "d": 281.2500000000291,
      "v": 42
    },
    {
      "midi": 65,
      "hit": false,
      "t": 259557.29166666776,
      "d": 322.91666666668607,
      "v": 57
    },
    {
      "midi": 70,
      "hit": false,
      "t": 259869.79166666776,
      "d": 250.0000000000291,
      "v": 63
    },
    {
      "midi": 61,
      "hit": false,
      "t": 259875.0000000011,
      "d": 276.04166666668607,
      "v": 47
    },
    {
      "midi": 73,
      "hit": false,
      "t": 260145.83333333445,
      "d": 104.16666666665697,
      "v": 62
    },
    {
      "midi": 58,
      "hit": false,
      "t": 260145.83333333445,
      "d": 317.70833333331393,
      "v": 40
    },
    {
      "midi": 70,
      "hit": false,
      "t": 260166.6666666678,
      "d": 57.291666666656965,
      "v": 25
    },
    {
      "midi": 69,
      "hit": false,
      "t": 260463.54166666776,
      "d": 380.20833333337214,
      "v": 62
    },
    {
      "midi": 64,
      "hit": false,
      "t": 260468.7500000011,
      "d": 406.2500000000291,
      "v": 55
    },
    {
      "midi": 72,
      "hit": false,
      "t": 260484.3750000011,
      "d": 385.41666666668607,
      "v": 60
    },
    {
      "midi": 57,
      "hit": false,
      "t": 260520.83333333445,
      "d": 130.20833333334303,
      "v": 30
    },
    {
      "midi": 41,
      "hit": false,
      "t": 260859.37500000114,
      "d": 390.625,
      "v": 62
    },
    {
      "midi": 60,
      "hit": false,
      "t": 261187.50000000114,
      "d": 187.5,
      "v": 67
    },
    {
      "midi": 48,
      "hit": false,
      "t": 261197.9166666678,
      "d": 109.375,
      "v": 57
    },
    {
      "midi": 64,
      "hit": false,
      "t": 261463.5416666678,
      "d": 62.5,
      "v": 77
    },
    {
      "midi": 76,
      "hit": false,
      "t": 261833.33333333445,
      "d": 291.66666666665697,
      "v": 94
    },
    {
      "midi": 69,
      "hit": false,
      "t": 261833.33333333445,
      "d": 479.16666666659876,
      "v": 103
    },
    {
      "midi": 47,
      "hit": false,
      "t": 261848.95833333445,
      "d": 312.4999999999709,
      "v": 71
    },
    {
      "midi": 57,
      "hit": false,
      "t": 261848.95833333445,
      "d": 374.9999999999709,
      "v": 74
    },
    {
      "midi": 76,
      "hit": false,
      "t": 262244.79166666773,
      "d": 166.66666666662786,
      "v": 87
    },
    {
      "midi": 74,
      "hit": false,
      "t": 262635.4166666677,
      "d": 265.625,
      "v": 80
    },
    {
      "midi": 70,
      "hit": false,
      "t": 262635.4166666677,
      "d": 385.41666666668607,
      "v": 76
    },
    {
      "midi": 65,
      "hit": false,
      "t": 262640.625000001,
      "d": 359.3750000000582,
      "v": 80
    },
    {
      "midi": 62,
      "hit": false,
      "t": 262656.250000001,
      "d": 317.70833333337214,
      "v": 56
    },
    {
      "midi": 56,
      "hit": false,
      "t": 262671.875000001,
      "d": 375.0000000000582,
      "v": 56
    },
    {
      "midi": 74,
      "hit": false,
      "t": 263020.83333333436,
      "d": 114.58333333337214,
      "v": 77
    },
    {
      "midi": 66,
      "hit": false,
      "t": 263203.12500000105,
      "d": 36.45833333331393,
      "v": 21
    },
    {
      "midi": 61,
      "hit": false,
      "t": 263369.7916666677,
      "d": 531.25,
      "v": 73
    },
    {
      "midi": 65,
      "hit": false,
      "t": 263369.7916666677,
      "d": 531.25,
      "v": 78
    },
    {
      "midi": 70,
      "hit": false,
      "t": 263375.000000001,
      "d": 286.45833333331393,
      "v": 72
    },
    {
      "midi": 46,
      "hit": false,
      "t": 263375.000000001,
      "d": 333.33333333331393,
      "v": 59
    },
    {
      "midi": 56,
      "hit": false,
      "t": 263380.2083333343,
      "d": 317.70833333331393,
      "v": 60
    },
    {
      "midi": 70,
      "hit": false,
      "t": 263750.000000001,
      "d": 244.79166666668607,
      "v": 59
    },
    {
      "midi": 70,
      "hit": false,
      "t": 264171.875000001,
      "d": 302.08333333331393,
      "v": 56
    },
    {
      "midi": 39,
      "hit": false,
      "t": 264171.875000001,
      "d": 343.75,
      "v": 48
    },
    {
      "midi": 61,
      "hit": false,
      "t": 264177.0833333343,
      "d": 541.6666666666861,
      "v": 40
    },
    {
      "midi": 46,
      "hit": false,
      "t": 264187.500000001,
      "d": 359.375,
      "v": 37
    },
    {
      "midi": 65,
      "hit": false,
      "t": 264187.500000001,
      "d": 437.5,
      "v": 60
    },
    {
      "midi": 70,
      "hit": false,
      "t": 264604.1666666677,
      "d": 135.41666666662786,
      "v": 57
    },
    {
      "midi": 69,
      "hit": false,
      "t": 265057.2916666676,
      "d": 369.79166666662786,
      "v": 57
    },
    {
      "midi": 59,
      "hit": false,
      "t": 265067.7083333343,
      "d": 463.54166666662786,
      "v": 42
    },
    {
      "midi": 60,
      "hit": false,
      "t": 265072.9166666676,
      "d": 447.91666666662786,
      "v": 37
    },
    {
      "midi": 64,
      "hit": false,
      "t": 265072.9166666676,
      "d": 567.7083333333139,
      "v": 58
    },
    {
      "midi": 45,
      "hit": false,
      "t": 265083.33333333425,
      "d": 375,
      "v": 44
    },
    {
      "midi": 55,
      "hit": false,
      "t": 265083.33333333425,
      "d": 473.95833333337214,
      "v": 48
    },
    {
      "midi": 69,
      "hit": false,
      "t": 265546.87500000093,
      "d": 109.375,
      "v": 36
    },
    {
      "midi": 64,
      "hit": false,
      "t": 266223.95833333425,
      "d": 338.54166666668607,
      "v": 48
    },
    {
      "midi": 69,
      "hit": false,
      "t": 266229.16666666756,
      "d": 1744.791666666686,
      "v": 55
    },
    {
      "midi": 60,
      "hit": false,
      "t": 266239.58333333425,
      "d": 1005.2083333333139,
      "v": 38
    },
    {
      "midi": 54,
      "hit": false,
      "t": 266239.58333333425,
      "d": 1015.625,
      "v": 30
    },
    {
      "midi": 50,
      "hit": false,
      "t": 266281.25000000093,
      "d": 958.3333333333139,
      "v": 36
    },
    {
      "midi": 63,
      "hit": false,
      "t": 266536.45833333425,
      "d": 343.75,
      "v": 40
    },
    {
      "midi": 62,
      "hit": false,
      "t": 266953.12500000093,
      "d": 1135.4166666666279,
      "v": 40
    },
    {
      "midi": 50,
      "hit": false,
      "t": 269000.0000000009,
      "d": 93.75,
      "v": 25
    },
    {
      "midi": 58,
      "hit": false,
      "t": 269015.6250000009,
      "d": 93.75,
      "v": 56
    },
    {
      "midi": 57,
      "hit": false,
      "t": 269015.6250000009,
      "d": 145.83333333337214,
      "v": 58
    },
    {
      "midi": 43,
      "hit": false,
      "t": 269067.7083333342,
      "d": 2640.625,
      "v": 46
    },
    {
      "midi": 53,
      "hit": false,
      "t": 269093.7500000009,
      "d": 2598.958333333314,
      "v": 49
    },
    {
      "midi": 59,
      "hit": false,
      "t": 269104.16666666756,
      "d": 947.9166666666861,
      "v": 74
    },
    {
      "midi": 62,
      "hit": false,
      "t": 269125.0000000009,
      "d": 1072.916666666686,
      "v": 55
    },
    {
      "midi": 60,
      "hit": false,
      "t": 270854.16666666756,
      "d": 104.16666666662786,
      "v": 68
    },
    {
      "midi": 61,
      "hit": false,
      "t": 270890.6250000009,
      "d": 62.5,
      "v": 71
    },
    {
      "midi": 62,
      "hit": false,
      "t": 270937.5000000009,
      "d": 161.45833333331393,
      "v": 77
    },
    {
      "midi": 65,
      "hit": false,
      "t": 271187.5000000009,
      "d": 187.5,
      "v": 81
    },
    {
      "midi": 67,
      "hit": false,
      "t": 271505.2083333342,
      "d": 234.375,
      "v": 87
    },
    {
      "midi": 65,
      "hit": false,
      "t": 271786.4583333342,
      "d": 546.875,
      "v": 65
    },
    {
      "midi": 36,
      "hit": false,
      "t": 273473.9583333342,
      "d": 57.29166666668607,
      "v": 67
    },
    {
      "midi": 95,
      "hit": false,
      "t": 274213.54166666756,
      "d": 348.95833333331393,
      "v": 89
    },
    {
      "midi": 90,
      "hit": false,
      "t": 274213.54166666756,
      "d": 416.66666666662786,
      "v": 74
    },
    {
      "midi": 83,
      "hit": false,
      "t": 274218.7500000009,
      "d": 359.375,
      "v": 84
    },
    {
      "midi": 87,
      "hit": false,
      "t": 274218.7500000009,
      "d": 375,
      "v": 76
    },
    {
      "midi": 58,
      "hit": false,
      "t": 274229.16666666756,
      "d": 395.83333333331393,
      "v": 75
    },
    {
      "midi": 69,
      "hit": false,
      "t": 274234.3750000009,
      "d": 385.41666666668607,
      "v": 83
    },
    {
      "midi": 64,
      "hit": false,
      "t": 274234.3750000009,
      "d": 406.25,
      "v": 73
    },
    {
      "midi": 94,
      "hit": false,
      "t": 274760.41666666756,
      "d": 281.2499999999418,
      "v": 74
    },
    {
      "midi": 82,
      "hit": false,
      "t": 274765.6250000009,
      "d": 286.45833333331393,
      "v": 72
    },
    {
      "midi": 90,
      "hit": false,
      "t": 274770.8333333342,
      "d": 328.125,
      "v": 59
    },
    {
      "midi": 87,
      "hit": false,
      "t": 274770.8333333342,
      "d": 338.54166666668607,
      "v": 72
    },
    {
      "midi": 64,
      "hit": false,
      "t": 274786.4583333342,
      "d": 161.45833333331393,
      "v": 75
    },
    {
      "midi": 58,
      "hit": false,
      "t": 274786.4583333342,
      "d": 229.16666666662786,
      "v": 68
    },
    {
      "midi": 69,
      "hit": false,
      "t": 274791.6666666675,
      "d": 130.20833333331393,
      "v": 74
    },
    {
      "midi": 58,
      "hit": false,
      "t": 275380.2083333342,
      "d": 307.29166666668607,
      "v": 53
    },
    {
      "midi": 63,
      "hit": false,
      "t": 275385.4166666675,
      "d": 281.25,
      "v": 60
    },
    {
      "midi": 92,
      "hit": false,
      "t": 275385.4166666675,
      "d": 411.45833333337214,
      "v": 69
    },
    {
      "midi": 87,
      "hit": false,
      "t": 275385.4166666675,
      "d": 432.29166666668607,
      "v": 69
    },
    {
      "midi": 52,
      "hit": false,
      "t": 275395.8333333342,
      "d": 281.25,
      "v": 64
    },
    {
      "midi": 80,
      "hit": false,
      "t": 275395.8333333342,
      "d": 432.29166666668607,
      "v": 46
    },
    {
      "midi": 88,
      "hit": false,
      "t": 276661.4583333342,
      "d": 572.9166666666861,
      "v": 58
    },
    {
      "midi": 76,
      "hit": false,
      "t": 276661.4583333342,
      "d": 609.375,
      "v": 54
    },
    {
      "midi": 58,
      "hit": false,
      "t": 276666.6666666675,
      "d": 614.5833333333721,
      "v": 46
    },
    {
      "midi": 83,
      "hit": false,
      "t": 276677.0833333342,
      "d": 562.5,
      "v": 49
    },
    {
      "midi": 48,
      "hit": false,
      "t": 276682.2916666675,
      "d": 489.58333333337214,
      "v": 57
    },
    {
      "midi": 76,
      "hit": false,
      "t": 280052.0833333342,
      "d": 968.75,
      "v": 55
    },
    {
      "midi": 70,
      "hit": false,
      "t": 280052.0833333342,
      "d": 1083.333333333314,
      "v": 48
    },
    {
      "midi": 58,
      "hit": false,
      "t": 280088.5416666675,
      "d": 630.2083333333721,
      "v": 37
    },
    {
      "midi": 64,
      "hit": false,
      "t": 280098.9583333342,
      "d": 557.2916666666861,
      "v": 37
    },
    {
      "midi": 47,
      "hit": false,
      "t": 282619.7916666675,
      "d": 171.8749999999418,
      "v": 40
    },
    {
      "midi": 65,
      "hit": false,
      "t": 282625.0000000008,
      "d": 307.29166666662786,
      "v": 55
    },
    {
      "midi": 57,
      "hit": false,
      "t": 282630.2083333341,
      "d": 239.58333333331393,
      "v": 54
    },
    {
      "midi": 62,
      "hit": false,
      "t": 282630.2083333341,
      "d": 437.5,
      "v": 52
    },
    {
      "midi": 65,
      "hit": false,
      "t": 283098.9583333341,
      "d": 333.3333333332557,
      "v": 45
    },
    {
      "midi": 61,
      "hit": false,
      "t": 283114.5833333341,
      "d": 369.79166666656965,
      "v": 46
    },
    {
      "midi": 56,
      "hit": false,
      "t": 283119.79166666744,
      "d": 312.4999999999418,
      "v": 36
    },
    {
      "midi": 46,
      "hit": false,
      "t": 283130.20833333407,
      "d": 322.91666666662786,
      "v": 33
    },
    {
      "midi": 45,
      "hit": false,
      "t": 283515.6250000007,
      "d": 468.7499999999418,
      "v": 34
    },
    {
      "midi": 65,
      "hit": false,
      "t": 283520.833333334,
      "d": 359.375,
      "v": 34
    },
    {
      "midi": 55,
      "hit": false,
      "t": 283531.25000000064,
      "d": 255.20833333337214,
      "v": 42
    },
    {
      "midi": 60,
      "hit": false,
      "t": 283546.87500000064,
      "d": 296.8750000000582,
      "v": 39
    },
    {
      "midi": 65,
      "hit": false,
      "t": 283942.708333334,
      "d": 359.3749999998836,
      "v": 30
    },
    {
      "midi": 54,
      "hit": false,
      "t": 283979.1666666673,
      "d": 343.7499999998836,
      "v": 29
    },
    {
      "midi": 59,
      "hit": false,
      "t": 283984.37500000064,
      "d": 281.2499999999418,
      "v": 48
    },
    {
      "midi": 44,
      "hit": false,
      "t": 283989.58333333395,
      "d": 484.3749999999418,
      "v": 36
    },
    {
      "midi": 65,
      "hit": false,
      "t": 284489.5833333339,
      "d": 1494.7916666666279,
      "v": 28
    },
    {
      "midi": 53,
      "hit": false,
      "t": 284500.0000000006,
      "d": 1390.6249999999418,
      "v": 34
    },
    {
      "midi": 58,
      "hit": false,
      "t": 284500.0000000006,
      "d": 1468.7499999999418,
      "v": 35
    },
    {
      "midi": 43,
      "hit": false,
      "t": 284505.2083333339,
      "d": 1442.708333333314,
      "v": 33
    },
    {
      "midi": 42,
      "hit": false,
      "t": 286562.5000000005,
      "d": 281.25,
      "v": 37
    },
    {
      "midi": 68,
      "hit": false,
      "t": 286562.5000000005,
      "d": 291.66666666668607,
      "v": 47
    },
    {
      "midi": 58,
      "hit": false,
      "t": 286572.9166666672,
      "d": 291.66666666668607,
      "v": 34
    },
    {
      "midi": 63,
      "hit": false,
      "t": 286583.3333333339,
      "d": 312.5,
      "v": 49
    },
    {
      "midi": 52,
      "hit": false,
      "t": 286609.3750000005,
      "d": 208.33333333337214,
      "v": 20
    },
    {
      "midi": 49,
      "hit": false,
      "t": 286609.3750000005,
      "d": 229.16666666668607,
      "v": 32
    },
    {
      "midi": 67,
      "hit": false,
      "t": 287197.9166666672,
      "d": 432.29166666656965,
      "v": 37
    },
    {
      "midi": 62,
      "hit": false,
      "t": 287203.1250000005,
      "d": 343.7499999999418,
      "v": 40
    },
    {
      "midi": 57,
      "hit": false,
      "t": 287208.33333333384,
      "d": 260.41666666662786,
      "v": 29
    },
    {
      "midi": 41,
      "hit": false,
      "t": 287218.7500000005,
      "d": 380.2083333332557,
      "v": 43
    },
    {
      "midi": 48,
      "hit": false,
      "t": 287229.16666666715,
      "d": 291.66666666662786,
      "v": 30
    },
    {
      "midi": 29,
      "hit": false,
      "t": 288135.4166666671,
      "d": 1453.125,
      "v": 38
    },
    {
      "midi": 101,
      "hit": false,
      "t": 288718.7500000004,
      "d": 890.625,
      "v": 35
    }
  ]
}