{
  "jsonPath": "Pop/Classic Italian Pop/Ornella Vanoni/averti-addosso.json",
  "path": "Pop\\Classic Italian Pop\\Ornella Vanoni\\Averti Addosso.mid",
  "name": "Averti Addosso",
  "difficulty": "Advanced",
  "bpm": 60.99997255001235,
  "notes": [
    {
      "midi": 70,
      "hit": false,
      "t": 0,
      "d": 1025.8613166666669,
      "v": 86
    },
    {
      "midi": 73,
      "hit": false,
      "t": 0,
      "d": 1025.8613166666669,
      "v": 93
    },
    {
      "midi": 80,
      "hit": false,
      "t": 0,
      "d": 1025.8613166666669,
      "v": 86
    },
    {
      "midi": 42,
      "hit": false,
      "t": 0,
      "d": 7749.994316666667,
      "v": 86
    },
    {
      "midi": 54,
      "hit": false,
      "t": 0,
      "d": 7749.994316666667,
      "v": 86
    },
    {
      "midi": 70,
      "hit": false,
      "t": 1034.4820000000002,
      "d": 508.62031666666667,
      "v": 83
    },
    {
      "midi": 73,
      "hit": false,
      "t": 1034.4820000000002,
      "d": 508.62031666666667,
      "v": 90
    },
    {
      "midi": 80,
      "hit": false,
      "t": 1034.4820000000002,
      "d": 508.62031666666667,
      "v": 86
    },
    {
      "midi": 70,
      "hit": false,
      "t": 2068.9640000000004,
      "d": 508.6203166666669,
      "v": 80
    },
    {
      "midi": 73,
      "hit": false,
      "t": 2068.9640000000004,
      "d": 508.6203166666669,
      "v": 86
    },
    {
      "midi": 78,
      "hit": false,
      "t": 2068.9640000000004,
      "d": 508.6203166666669,
      "v": 86
    },
    {
      "midi": 70,
      "hit": false,
      "t": 3103.446000000001,
      "d": 508.6203166666669,
      "v": 86
    },
    {
      "midi": 73,
      "hit": false,
      "t": 3103.446000000001,
      "d": 508.6203166666669,
      "v": 90
    },
    {
      "midi": 78,
      "hit": false,
      "t": 3103.446000000001,
      "d": 508.6203166666669,
      "v": 86
    },
    {
      "midi": 70,
      "hit": false,
      "t": 4137.928000000001,
      "d": 508.62031666666644,
      "v": 86
    },
    {
      "midi": 73,
      "hit": false,
      "t": 4137.928000000001,
      "d": 508.62031666666644,
      "v": 93
    },
    {
      "midi": 80,
      "hit": false,
      "t": 4137.928000000001,
      "d": 508.62031666666644,
      "v": 90
    },
    {
      "midi": 70,
      "hit": false,
      "t": 5172.410000000001,
      "d": 508.62031666666644,
      "v": 86
    },
    {
      "midi": 73,
      "hit": false,
      "t": 5172.410000000001,
      "d": 508.62031666666644,
      "v": 93
    },
    {
      "midi": 80,
      "hit": false,
      "t": 5172.410000000001,
      "d": 508.62031666666644,
      "v": 90
    },
    {
      "midi": 70,
      "hit": false,
      "t": 6206.892000000001,
      "d": 508.62031666666644,
      "v": 80
    },
    {
      "midi": 73,
      "hit": false,
      "t": 6206.892000000001,
      "d": 508.62031666666644,
      "v": 90
    },
    {
      "midi": 78,
      "hit": false,
      "t": 6206.892000000001,
      "d": 508.62031666666644,
      "v": 86
    },
    {
      "midi": 70,
      "hit": false,
      "t": 7241.374000000001,
      "d": 508.62031666666644,
      "v": 80
    },
    {
      "midi": 73,
      "hit": false,
      "t": 7241.374000000001,
      "d": 508.62031666666644,
      "v": 93
    },
    {
      "midi": 78,
      "hit": false,
      "t": 7241.374000000001,
      "d": 508.62031666666644,
      "v": 86
    },
    {
      "midi": 70,
      "hit": false,
      "t": 8275.856000000002,
      "d": 508.62031666666735,
      "v": 83
    },
    {
      "midi": 73,
      "hit": false,
      "t": 8275.856000000002,
      "d": 508.62031666666735,
      "v": 93
    },
    {
      "midi": 80,
      "hit": false,
      "t": 8275.856000000002,
      "d": 508.62031666666735,
      "v": 93
    },
    {
      "midi": 42,
      "hit": false,
      "t": 8275.856000000002,
      "d": 3612.0663166666673,
      "v": 83
    },
    {
      "midi": 54,
      "hit": false,
      "t": 8275.856000000002,
      "d": 3612.0663166666673,
      "v": 83
    },
    {
      "midi": 70,
      "hit": false,
      "t": 9310.338000000002,
      "d": 508.62031666666735,
      "v": 83
    },
    {
      "midi": 73,
      "hit": false,
      "t": 9310.338000000002,
      "d": 508.62031666666735,
      "v": 93
    },
    {
      "midi": 80,
      "hit": false,
      "t": 9310.338000000002,
      "d": 508.62031666666735,
      "v": 86
    },
    {
      "midi": 70,
      "hit": false,
      "t": 10344.820000000002,
      "d": 508.62031666666735,
      "v": 77
    },
    {
      "midi": 73,
      "hit": false,
      "t": 10344.820000000002,
      "d": 508.62031666666735,
      "v": 86
    },
    {
      "midi": 78,
      "hit": false,
      "t": 10344.820000000002,
      "d": 508.62031666666735,
      "v": 83
    },
    {
      "midi": 70,
      "hit": false,
      "t": 11379.302000000001,
      "d": 508.62031666666735,
      "v": 83
    },
    {
      "midi": 73,
      "hit": false,
      "t": 11379.302000000001,
      "d": 508.62031666666735,
      "v": 86
    },
    {
      "midi": 78,
      "hit": false,
      "t": 11379.302000000001,
      "d": 508.62031666666735,
      "v": 86
    },
    {
      "midi": 70,
      "hit": false,
      "t": 12413.784000000001,
      "d": 508.62031666666735,
      "v": 77
    },
    {
      "midi": 73,
      "hit": false,
      "t": 12413.784000000001,
      "d": 508.62031666666735,
      "v": 93
    },
    {
      "midi": 80,
      "hit": false,
      "t": 12413.784000000001,
      "d": 508.62031666666735,
      "v": 86
    },
    {
      "midi": 46,
      "hit": false,
      "t": 12413.784000000001,
      "d": 3612.0663166666673,
      "v": 86
    },
    {
      "midi": 58,
      "hit": false,
      "t": 12413.784000000001,
      "d": 3612.0663166666673,
      "v": 83
    },
    {
      "midi": 70,
      "hit": false,
      "t": 13448.266000000001,
      "d": 508.62031666666735,
      "v": 83
    },
    {
      "midi": 73,
      "hit": false,
      "t": 13448.266000000001,
      "d": 508.62031666666735,
      "v": 93
    },
    {
      "midi": 80,
      "hit": false,
      "t": 13448.266000000001,
      "d": 508.62031666666735,
      "v": 86
    },
    {
      "midi": 70,
      "hit": false,
      "t": 14482.748000000001,
      "d": 508.62031666666735,
      "v": 90
    },
    {
      "midi": 73,
      "hit": false,
      "t": 14482.748000000001,
      "d": 508.62031666666735,
      "v": 83
    },
    {
      "midi": 78,
      "hit": false,
      "t": 14482.748000000001,
      "d": 508.62031666666735,
      "v": 90
    },
    {
      "midi": 70,
      "hit": false,
      "t": 15517.230000000001,
      "d": 508.62031666666735,
      "v": 90
    },
    {
      "midi": 73,
      "hit": false,
      "t": 15517.230000000001,
      "d": 508.62031666666735,
      "v": 86
    },
    {
      "midi": 78,
      "hit": false,
      "t": 15517.230000000001,
      "d": 508.62031666666735,
      "v": 93
    },
    {
      "midi": 68,
      "hit": false,
      "t": 16551.712000000003,
      "d": 508.62031666666735,
      "v": 83
    },
    {
      "midi": 71,
      "hit": false,
      "t": 16551.712000000003,
      "d": 508.62031666666735,
      "v": 93
    },
    {
      "midi": 75,
      "hit": false,
      "t": 16551.712000000003,
      "d": 508.62031666666735,
      "v": 86
    },
    {
      "midi": 80,
      "hit": false,
      "t": 16551.712000000003,
      "d": 508.62031666666735,
      "v": 93
    },
    {
      "midi": 44,
      "hit": false,
      "t": 16551.712000000003,
      "d": 3612.0663166666673,
      "v": 83
    },
    {
      "midi": 56,
      "hit": false,
      "t": 16551.712000000003,
      "d": 3612.0663166666673,
      "v": 80
    },
    {
      "midi": 68,
      "hit": false,
      "t": 17586.194000000003,
      "d": 508.62031666666735,
      "v": 83
    },
    {
      "midi": 71,
      "hit": false,
      "t": 17586.194000000003,
      "d": 508.62031666666735,
      "v": 93
    },
    {
      "midi": 75,
      "hit": false,
      "t": 17586.194000000003,
      "d": 508.62031666666735,
      "v": 86
    },
    {
      "midi": 80,
      "hit": false,
      "t": 17586.194000000003,
      "d": 508.62031666666735,
      "v": 93
    },
    {
      "midi": 68,
      "hit": false,
      "t": 18620.676000000003,
      "d": 508.62031666666735,
      "v": 63
    },
    {
      "midi": 71,
      "hit": false,
      "t": 18620.676000000003,
      "d": 508.62031666666735,
      "v": 83
    },
    {
      "midi": 75,
      "hit": false,
      "t": 18620.676000000003,
      "d": 508.62031666666735,
      "v": 83
    },
    {
      "midi": 78,
      "hit": false,
      "t": 18620.676000000003,
      "d": 508.62031666666735,
      "v": 77
    },
    {
      "midi": 68,
      "hit": false,
      "t": 19655.158000000003,
      "d": 508.62031666666735,
      "v": 83
    },
    {
      "midi": 71,
      "hit": false,
      "t": 19655.158000000003,
      "d": 508.62031666666735,
      "v": 90
    },
    {
      "midi": 75,
      "hit": false,
      "t": 19655.158000000003,
      "d": 508.62031666666735,
      "v": 86
    },
    {
      "midi": 78,
      "hit": false,
      "t": 19655.158000000003,
      "d": 508.62031666666735,
      "v": 83
    },
    {
      "midi": 70,
      "hit": false,
      "t": 20689.640000000003,
      "d": 508.62031666666735,
      "v": 77
    },
    {
      "midi": 73,
      "hit": false,
      "t": 20689.640000000003,
      "d": 508.62031666666735,
      "v": 90
    },
    {
      "midi": 77,
      "hit": false,
      "t": 20689.640000000003,
      "d": 508.62031666666735,
      "v": 90
    },
    {
      "midi": 46,
      "hit": false,
      "t": 20689.640000000003,
      "d": 1543.1023166666673,
      "v": 83
    },
    {
      "midi": 58,
      "hit": false,
      "t": 20689.640000000003,
      "d": 1543.1023166666673,
      "v": 77
    },
    {
      "midi": 70,
      "hit": false,
      "t": 21724.122000000003,
      "d": 508.62031666666735,
      "v": 83
    },
    {
      "midi": 73,
      "hit": false,
      "t": 21724.122000000003,
      "d": 508.62031666666735,
      "v": 93
    },
    {
      "midi": 77,
      "hit": false,
      "t": 21724.122000000003,
      "d": 508.62031666666735,
      "v": 90
    },
    {
      "midi": 70,
      "hit": false,
      "t": 22758.604000000003,
      "d": 508.62031666666735,
      "v": 93
    },
    {
      "midi": 74,
      "hit": false,
      "t": 22758.604000000003,
      "d": 508.62031666666735,
      "v": 97
    },
    {
      "midi": 77,
      "hit": false,
      "t": 22758.604000000003,
      "d": 508.62031666666735,
      "v": 93
    },
    {
      "midi": 46,
      "hit": false,
      "t": 22758.604000000003,
      "d": 1025.8613166666655,
      "v": 83
    },
    {
      "midi": 58,
      "hit": false,
      "t": 22758.604000000003,
      "d": 1025.8613166666655,
      "v": 77
    },
    {
      "midi": 70,
      "hit": false,
      "t": 23793.086000000003,
      "d": 508.62031666666735,
      "v": 86
    },
    {
      "midi": 74,
      "hit": false,
      "t": 23793.086000000003,
      "d": 508.62031666666735,
      "v": 97
    },
    {
      "midi": 77,
      "hit": false,
      "t": 23793.086000000003,
      "d": 508.62031666666735,
      "v": 90
    },
    {
      "midi": 46,
      "hit": false,
      "t": 24310.327000000005,
      "d": 508.62031666666735,
      "v": 83
    },
    {
      "midi": 70,
      "hit": false,
      "t": 24827.568000000007,
      "d": 508.6203166666637,
      "v": 83
    },
    {
      "midi": 75,
      "hit": false,
      "t": 24827.568000000007,
      "d": 508.6203166666637,
      "v": 93
    },
    {
      "midi": 78,
      "hit": false,
      "t": 24827.568000000007,
      "d": 508.6203166666637,
      "v": 90
    },
    {
      "midi": 39,
      "hit": false,
      "t": 24827.568000000007,
      "d": 1025.8613166666619,
      "v": 93
    },
    {
      "midi": 51,
      "hit": false,
      "t": 24827.568000000007,
      "d": 1025.8613166666619,
      "v": 68
    },
    {
      "midi": 70,
      "hit": false,
      "t": 25862.050000000003,
      "d": 508.62031666666735,
      "v": 101
    },
    {
      "midi": 75,
      "hit": false,
      "t": 25862.050000000003,
      "d": 508.62031666666735,
      "v": 86
    },
    {
      "midi": 78,
      "hit": false,
      "t": 25862.050000000003,
      "d": 508.62031666666735,
      "v": 93
    },
    {
      "midi": 39,
      "hit": false,
      "t": 26379.291000000005,
      "d": 508.62031666666735,
      "v": 86
    },
    {
      "midi": 70,
      "hit": false,
      "t": 26896.532000000007,
      "d": 508.62031666666735,
      "v": 93
    },
    {
      "midi": 75,
      "hit": false,
      "t": 26896.532000000007,
      "d": 508.62031666666735,
      "v": 93
    },
    {
      "midi": 78,
      "hit": false,
      "t": 26896.532000000007,
      "d": 508.62031666666735,
      "v": 93
    },
    {
      "midi": 37,
      "hit": false,
      "t": 26896.532000000007,
      "d": 1025.8613166666692,
      "v": 90
    },
    {
      "midi": 49,
      "hit": false,
      "t": 26896.532000000007,
      "d": 1025.8613166666692,
      "v": 86
    },
    {
      "midi": 70,
      "hit": false,
      "t": 27931.01400000001,
      "d": 508.62031666666735,
      "v": 90
    },
    {
      "midi": 75,
      "hit": false,
      "t": 27931.01400000001,
      "d": 508.62031666666735,
      "v": 93
    },
    {
      "midi": 78,
      "hit": false,
      "t": 27931.01400000001,
      "d": 508.62031666666735,
      "v": 86
    },
    {
      "midi": 37,
      "hit": false,
      "t": 28448.255000000012,
      "d": 508.62031666666735,
      "v": 74
    },
    {
      "midi": 70,
      "hit": false,
      "t": 28965.496000000014,
      "d": 508.62031666666735,
      "v": 90
    },
    {
      "midi": 75,
      "hit": false,
      "t": 28965.496000000014,
      "d": 508.62031666666735,
      "v": 86
    },
    {
      "midi": 78,
      "hit": false,
      "t": 28965.496000000014,
      "d": 508.62031666666735,
      "v": 90
    },
    {
      "midi": 36,
      "hit": false,
      "t": 28965.496000000014,
      "d": 1025.8613166666692,
      "v": 83
    },
    {
      "midi": 48,
      "hit": false,
      "t": 28965.496000000014,
      "d": 1543.102316666671,
      "v": 83
    },
    {
      "midi": 70,
      "hit": false,
      "t": 29999.978000000017,
      "d": 508.62031666666735,
      "v": 93
    },
    {
      "midi": 75,
      "hit": false,
      "t": 29999.978000000017,
      "d": 508.62031666666735,
      "v": 93
    },
    {
      "midi": 78,
      "hit": false,
      "t": 29999.978000000017,
      "d": 508.62031666666735,
      "v": 86
    },
    {
      "midi": 36,
      "hit": false,
      "t": 30517.21900000002,
      "d": 508.62031666666735,
      "v": 93
    },
    {
      "midi": 70,
      "hit": false,
      "t": 31034.46000000002,
      "d": 508.62031666666735,
      "v": 93
    },
    {
      "midi": 75,
      "hit": false,
      "t": 31034.46000000002,
      "d": 508.62031666666735,
      "v": 93
    },
    {
      "midi": 78,
      "hit": false,
      "t": 31034.46000000002,
      "d": 508.62031666666735,
      "v": 93
    },
    {
      "midi": 36,
      "hit": false,
      "t": 31034.46000000002,
      "d": 1025.8613166666692,
      "v": 105
    },
    {
      "midi": 48,
      "hit": false,
      "t": 31034.46000000002,
      "d": 1543.102316666671,
      "v": 90
    },
    {
      "midi": 70,
      "hit": false,
      "t": 32068.942000000025,
      "d": 508.62031666666735,
      "v": 101
    },
    {
      "midi": 75,
      "hit": false,
      "t": 32068.942000000025,
      "d": 508.62031666666735,
      "v": 74
    },
    {
      "midi": 78,
      "hit": false,
      "t": 32068.942000000025,
      "d": 508.62031666666735,
      "v": 90
    },
    {
      "midi": 36,
      "hit": false,
      "t": 32586.183000000026,
      "d": 508.62031666666735,
      "v": 101
    },
    {
      "midi": 70,
      "hit": false,
      "t": 33103.42400000003,
      "d": 508.62031666666735,
      "v": 86
    },
    {
      "midi": 73,
      "hit": false,
      "t": 33103.42400000003,
      "d": 508.62031666666735,
      "v": 86
    },
    {
      "midi": 80,
      "hit": false,
      "t": 33103.42400000003,
      "d": 508.62031666666735,
      "v": 93
    },
    {
      "midi": 42,
      "hit": false,
      "t": 33103.42400000003,
      "d": 1543.102316666671,
      "v": 90
    },
    {
      "midi": 54,
      "hit": false,
      "t": 33103.42400000003,
      "d": 1543.102316666671,
      "v": 86
    },
    {
      "midi": 70,
      "hit": false,
      "t": 34137.90600000003,
      "d": 508.62031666666735,
      "v": 101
    },
    {
      "midi": 73,
      "hit": false,
      "t": 34137.90600000003,
      "d": 508.62031666666735,
      "v": 97
    },
    {
      "midi": 80,
      "hit": false,
      "t": 34137.90600000003,
      "d": 508.62031666666735,
      "v": 97
    },
    {
      "midi": 70,
      "hit": false,
      "t": 35172.388000000035,
      "d": 508.62031666666735,
      "v": 86
    },
    {
      "midi": 73,
      "hit": false,
      "t": 35172.388000000035,
      "d": 508.62031666666735,
      "v": 93
    },
    {
      "midi": 78,
      "hit": false,
      "t": 35172.388000000035,
      "d": 508.62031666666735,
      "v": 93
    },
    {
      "midi": 54,
      "hit": false,
      "t": 35172.388000000035,
      "d": 1543.102316666671,
      "v": 101
    },
    {
      "midi": 42,
      "hit": false,
      "t": 35172.388000000035,
      "d": 2060.3433166666728,
      "v": 74
    },
    {
      "midi": 70,
      "hit": false,
      "t": 36206.87000000004,
      "d": 508.62031666666735,
      "v": 86
    },
    {
      "midi": 73,
      "hit": false,
      "t": 36206.87000000004,
      "d": 508.62031666666735,
      "v": 86
    },
    {
      "midi": 78,
      "hit": false,
      "t": 36206.87000000004,
      "d": 508.62031666666735,
      "v": 93
    },
    {
      "midi": 70,
      "hit": false,
      "t": 37241.35200000004,
      "d": 508.62031666666735,
      "v": 83
    },
    {
      "midi": 73,
      "hit": false,
      "t": 37241.35200000004,
      "d": 508.62031666666735,
      "v": 86
    },
    {
      "midi": 78,
      "hit": false,
      "t": 37241.35200000004,
      "d": 508.62031666666735,
      "v": 86
    },
    {
      "midi": 37,
      "hit": false,
      "t": 37241.35200000004,
      "d": 1025.8613166666692,
      "v": 80
    },
    {
      "midi": 49,
      "hit": false,
      "t": 37241.35200000004,
      "d": 1025.8613166666692,
      "v": 77
    },
    {
      "midi": 70,
      "hit": false,
      "t": 38275.834000000046,
      "d": 508.62031666666735,
      "v": 77
    },
    {
      "midi": 73,
      "hit": false,
      "t": 38275.834000000046,
      "d": 508.62031666666735,
      "v": 93
    },
    {
      "midi": 78,
      "hit": false,
      "t": 38275.834000000046,
      "d": 508.62031666666735,
      "v": 86
    },
    {
      "midi": 37,
      "hit": false,
      "t": 38793.07500000005,
      "d": 2060.3433166666728,
      "v": 71
    },
    {
      "midi": 68,
      "hit": false,
      "t": 39310.31600000005,
      "d": 508.62031666666735,
      "v": 86
    },
    {
      "midi": 73,
      "hit": false,
      "t": 39310.31600000005,
      "d": 508.62031666666735,
      "v": 93
    },
    {
      "midi": 77,
      "hit": false,
      "t": 39310.31600000005,
      "d": 508.62031666666735,
      "v": 97
    },
    {
      "midi": 49,
      "hit": false,
      "t": 39310.31600000005,
      "d": 1543.102316666671,
      "v": 74
    },
    {
      "midi": 68,
      "hit": false,
      "t": 40344.79800000005,
      "d": 508.62031666666735,
      "v": 83
    },
    {
      "midi": 73,
      "hit": false,
      "t": 40344.79800000005,
      "d": 508.62031666666735,
      "v": 90
    },
    {
      "midi": 77,
      "hit": false,
      "t": 40344.79800000005,
      "d": 508.62031666666735,
      "v": 93
    },
    {
      "midi": 70,
      "hit": false,
      "t": 41379.28000000006,
      "d": 508.62031666666735,
      "v": 83
    },
    {
      "midi": 73,
      "hit": false,
      "t": 41379.28000000006,
      "d": 508.62031666666735,
      "v": 93
    },
    {
      "midi": 80,
      "hit": false,
      "t": 41379.28000000006,
      "d": 508.62031666666735,
      "v": 93
    },
    {
      "midi": 42,
      "hit": false,
      "t": 41379.28000000006,
      "d": 3612.066316666678,
      "v": 83
    },
    {
      "midi": 54,
      "hit": false,
      "t": 41379.28000000006,
      "d": 3612.066316666678,
      "v": 83
    },
    {
      "midi": 70,
      "hit": false,
      "t": 42413.76200000006,
      "d": 508.62031666666735,
      "v": 83
    },
    {
      "midi": 73,
      "hit": false,
      "t": 42413.76200000006,
      "d": 508.62031666666735,
      "v": 93
    },
    {
      "midi": 80,
      "hit": false,
      "t": 42413.76200000006,
      "d": 508.62031666666735,
      "v": 86
    },
    {
      "midi": 70,
      "hit": false,
      "t": 43448.244000000064,
      "d": 508.62031666666735,
      "v": 77
    },
    {
      "midi": 73,
      "hit": false,
      "t": 43448.244000000064,
      "d": 508.62031666666735,
      "v": 86
    },
    {
      "midi": 78,
      "hit": false,
      "t": 43448.244000000064,
      "d": 508.62031666666735,
      "v": 83
    },
    {
      "midi": 70,
      "hit": false,
      "t": 44482.72600000007,
      "d": 508.62031666666735,
      "v": 83
    },
    {
      "midi": 73,
      "hit": false,
      "t": 44482.72600000007,
      "d": 508.62031666666735,
      "v": 86
    },
    {
      "midi": 78,
      "hit": false,
      "t": 44482.72600000007,
      "d": 508.62031666666735,
      "v": 86
    },
    {
      "midi": 70,
      "hit": false,
      "t": 45517.20800000007,
      "d": 508.6203166666601,
      "v": 77
    },
    {
      "midi": 73,
      "hit": false,
      "t": 45517.20800000007,
      "d": 508.6203166666601,
      "v": 93
    },
    {
      "midi": 80,
      "hit": false,
      "t": 45517.20800000007,
      "d": 508.6203166666601,
      "v": 86
    },
    {
      "midi": 46,
      "hit": false,
      "t": 45517.20800000007,
      "d": 3612.066316666671,
      "v": 86
    },
    {
      "midi": 58,
      "hit": false,
      "t": 45517.20800000007,
      "d": 3612.066316666671,
      "v": 83
    },
    {
      "midi": 70,
      "hit": false,
      "t": 46551.69000000007,
      "d": 508.62031666666735,
      "v": 83
    },
    {
      "midi": 73,
      "hit": false,
      "t": 46551.69000000007,
      "d": 508.62031666666735,
      "v": 93
    },
    {
      "midi": 80,
      "hit": false,
      "t": 46551.69000000007,
      "d": 508.62031666666735,
      "v": 86
    },
    {
      "midi": 70,
      "hit": false,
      "t": 47586.17200000007,
      "d": 508.62031666666735,
      "v": 90
    },
    {
      "midi": 73,
      "hit": false,
      "t": 47586.17200000007,
      "d": 508.62031666666735,
      "v": 83
    },
    {
      "midi": 78,
      "hit": false,
      "t": 47586.17200000007,
      "d": 508.62031666666735,
      "v": 90
    },
    {
      "midi": 70,
      "hit": false,
      "t": 48620.654000000075,
      "d": 508.62031666666735,
      "v": 90
    },
    {
      "midi": 73,
      "hit": false,
      "t": 48620.654000000075,
      "d": 508.62031666666735,
      "v": 86
    },
    {
      "midi": 78,
      "hit": false,
      "t": 48620.654000000075,
      "d": 508.62031666666735,
      "v": 93
    },
    {
      "midi": 68,
      "hit": false,
      "t": 49655.13600000008,
      "d": 508.6203166666601,
      "v": 83
    },
    {
      "midi": 71,
      "hit": false,
      "t": 49655.13600000008,
      "d": 508.6203166666601,
      "v": 93
    },
    {
      "midi": 75,
      "hit": false,
      "t": 49655.13600000008,
      "d": 508.6203166666601,
      "v": 86
    },
    {
      "midi": 80,
      "hit": false,
      "t": 49655.13600000008,
      "d": 508.6203166666601,
      "v": 93
    },
    {
      "midi": 44,
      "hit": false,
      "t": 49655.13600000008,
      "d": 3612.066316666671,
      "v": 83
    },
    {
      "midi": 56,
      "hit": false,
      "t": 49655.13600000008,
      "d": 3612.066316666671,
      "v": 80
    },
    {
      "midi": 68,
      "hit": false,
      "t": 50689.618000000075,
      "d": 508.62031666666735,
      "v": 83
    },
    {
      "midi": 71,
      "hit": false,
      "t": 50689.618000000075,
      "d": 508.62031666666735,
      "v": 93
    },
    {
      "midi": 75,
      "hit": false,
      "t": 50689.618000000075,
      "d": 508.62031666666735,
      "v": 86
    },
    {
      "midi": 80,
      "hit": false,
      "t": 50689.618000000075,
      "d": 508.62031666666735,
      "v": 93
    },
    {
      "midi": 68,
      "hit": false,
      "t": 51724.10000000008,
      "d": 508.62031666666735,
      "v": 63
    },
    {
      "midi": 71,
      "hit": false,
      "t": 51724.10000000008,
      "d": 508.62031666666735,
      "v": 83
    },
    {
      "midi": 75,
      "hit": false,
      "t": 51724.10000000008,
      "d": 508.62031666666735,
      "v": 83
    },
    {
      "midi": 78,
      "hit": false,
      "t": 51724.10000000008,
      "d": 508.62031666666735,
      "v": 77
    },
    {
      "midi": 68,
      "hit": false,
      "t": 52758.58200000008,
      "d": 508.62031666666735,
      "v": 83
    },
    {
      "midi": 71,
      "hit": false,
      "t": 52758.58200000008,
      "d": 508.62031666666735,
      "v": 90
    },
    {
      "midi": 75,
      "hit": false,
      "t": 52758.58200000008,
      "d": 508.62031666666735,
      "v": 86
    },
    {
      "midi": 78,
      "hit": false,
      "t": 52758.58200000008,
      "d": 508.62031666666735,
      "v": 83
    },
    {
      "midi": 70,
      "hit": false,
      "t": 53793.064000000086,
      "d": 508.6203166666601,
      "v": 77
    },
    {
      "midi": 73,
      "hit": false,
      "t": 53793.064000000086,
      "d": 508.6203166666601,
      "v": 90
    },
    {
      "midi": 77,
      "hit": false,
      "t": 53793.064000000086,
      "d": 508.6203166666601,
      "v": 90
    },
    {
      "midi": 46,
      "hit": false,
      "t": 53793.064000000086,
      "d": 1543.1023166666637,
      "v": 83
    },
    {
      "midi": 58,
      "hit": false,
      "t": 53793.064000000086,
      "d": 1543.1023166666637,
      "v": 77
    },
    {
      "midi": 70,
      "hit": false,
      "t": 54827.54600000008,
      "d": 508.62031666666735,
      "v": 83
    },
    {
      "midi": 73,
      "hit": false,
      "t": 54827.54600000008,
      "d": 508.62031666666735,
      "v": 93
    },
    {
      "midi": 77,
      "hit": false,
      "t": 54827.54600000008,
      "d": 508.62031666666735,
      "v": 90
    },
    {
      "midi": 70,
      "hit": false,
      "t": 55862.028000000086,
      "d": 508.62031666666735,
      "v": 93
    },
    {
      "midi": 77,
      "hit": false,
      "t": 55862.028000000086,
      "d": 508.62031666666735,
      "v": 93
    },
    {
      "midi": 46,
      "hit": false,
      "t": 55862.028000000086,
      "d": 1025.8613166666692,
      "v": 83
    },
    {
      "midi": 58,
      "hit": false,
      "t": 55862.028000000086,
      "d": 1025.8613166666692,
      "v": 77
    },
    {
      "midi": 74,
      "hit": false,
      "t": 55862.028000000086,
      "d": 1025.8613166666692,
      "v": 97
    },
    {
      "midi": 70,
      "hit": false,
      "t": 56896.51000000009,
      "d": 508.62031666666735,
      "v": 86
    },
    {
      "midi": 74,
      "hit": false,
      "t": 56896.51000000009,
      "d": 508.62031666666735,
      "v": 97
    },
    {
      "midi": 77,
      "hit": false,
      "t": 56896.51000000009,
      "d": 508.62031666666735,
      "v": 90
    },
    {
      "midi": 46,
      "hit": false,
      "t": 57413.75100000009,
      "d": 508.62031666666735,
      "v": 83
    },
    {
      "midi": 70,
      "hit": false,
      "t": 57930.99200000009,
      "d": 508.62031666666735,
      "v": 83
    },
    {
      "midi": 75,
      "hit": false,
      "t": 57930.99200000009,
      "d": 508.62031666666735,
      "v": 93
    },
    {
      "midi": 78,
      "hit": false,
      "t": 57930.99200000009,
      "d": 508.62031666666735,
      "v": 90
    },
    {
      "midi": 39,
      "hit": false,
      "t": 57930.99200000009,
      "d": 1025.8613166666692,
      "v": 93
    },
    {
      "midi": 51,
      "hit": false,
      "t": 57930.99200000009,
      "d": 1025.8613166666692,
      "v": 68
    },
    {
      "midi": 75,
      "hit": false,
      "t": 58965.4740000001,
      "d": 508.62031666666735,
      "v": 86
    },
    {
      "midi": 78,
      "hit": false,
      "t": 58965.4740000001,
      "d": 508.62031666666735,
      "v": 93
    },
    {
      "midi": 70,
      "hit": false,
      "t": 58965.4740000001,
      "d": 1025.8613166666692,
      "v": 101
    },
    {
      "midi": 39,
      "hit": false,
      "t": 59482.7150000001,
      "d": 508.62031666666735,
      "v": 86
    },
    {
      "midi": 70,
      "hit": false,
      "t": 59999.9560000001,
      "d": 508.6203166666601,
      "v": 93
    },
    {
      "midi": 75,
      "hit": false,
      "t": 59999.9560000001,
      "d": 508.6203166666601,
      "v": 93
    },
    {
      "midi": 78,
      "hit": false,
      "t": 59999.9560000001,
      "d": 508.6203166666601,
      "v": 93
    },
    {
      "midi": 37,
      "hit": false,
      "t": 59999.9560000001,
      "d": 1025.8613166666619,
      "v": 90
    },
    {
      "midi": 49,
      "hit": false,
      "t": 59999.9560000001,
      "d": 1025.8613166666619,
      "v": 86
    },
    {
      "midi": 70,
      "hit": false,
      "t": 61034.4380000001,
      "d": 508.62031666666735,
      "v": 90
    },
    {
      "midi": 75,
      "hit": false,
      "t": 61034.4380000001,
      "d": 508.62031666666735,
      "v": 93
    },
    {
      "midi": 78,
      "hit": false,
      "t": 61034.4380000001,
      "d": 508.62031666666735,
      "v": 86
    },
    {
      "midi": 37,
      "hit": false,
      "t": 61551.6790000001,
      "d": 508.62031666666735,
      "v": 74
    },
    {
      "midi": 70,
      "hit": false,
      "t": 62068.9200000001,
      "d": 508.62031666666735,
      "v": 90
    },
    {
      "midi": 75,
      "hit": false,
      "t": 62068.9200000001,
      "d": 508.62031666666735,
      "v": 86
    },
    {
      "midi": 78,
      "hit": false,
      "t": 62068.9200000001,
      "d": 508.62031666666735,
      "v": 90
    },
    {
      "midi": 36,
      "hit": false,
      "t": 62068.9200000001,
      "d": 1025.8613166666692,
      "v": 83
    },
    {
      "midi": 48,
      "hit": false,
      "t": 62068.9200000001,
      "d": 1543.102316666671,
      "v": 83
    },
    {
      "midi": 70,
      "hit": false,
      "t": 63103.402000000104,
      "d": 1543.102316666671,
      "v": 93
    },
    {
      "midi": 75,
      "hit": false,
      "t": 63103.402000000104,
      "d": 1543.102316666671,
      "v": 93
    },
    {
      "midi": 78,
      "hit": false,
      "t": 63103.402000000104,
      "d": 1543.102316666671,
      "v": 86
    },
    {
      "midi": 36,
      "hit": false,
      "t": 63620.643000000106,
      "d": 508.62031666666735,
      "v": 93
    },
    {
      "midi": 36,
      "hit": false,
      "t": 64137.88400000011,
      "d": 1025.8613166666692,
      "v": 105
    },
    {
      "midi": 48,
      "hit": false,
      "t": 64137.88400000011,
      "d": 1543.102316666671,
      "v": 90
    },
    {
      "midi": 70,
      "hit": false,
      "t": 65172.36600000011,
      "d": 508.62031666666735,
      "v": 101
    },
    {
      "midi": 75,
      "hit": false,
      "t": 65172.36600000011,
      "d": 508.62031666666735,
      "v": 74
    },
    {
      "midi": 78,
      "hit": false,
      "t": 65172.36600000011,
      "d": 508.62031666666735,
      "v": 90
    },
    {
      "midi": 36,
      "hit": false,
      "t": 65689.6070000001,
      "d": 508.62031666666735,
      "v": 101
    },
    {
      "midi": 70,
      "hit": false,
      "t": 66206.8480000001,
      "d": 508.62031666666735,
      "v": 66
    },
    {
      "midi": 73,
      "hit": false,
      "t": 66206.8480000001,
      "d": 508.62031666666735,
      "v": 86
    },
    {
      "midi": 80,
      "hit": false,
      "t": 66206.8480000001,
      "d": 508.62031666666735,
      "v": 93
    },
    {
      "midi": 42,
      "hit": false,
      "t": 66206.8480000001,
      "d": 1543.102316666671,
      "v": 90
    },
    {
      "midi": 54,
      "hit": false,
      "t": 66206.8480000001,
      "d": 1543.102316666671,
      "v": 86
    },
    {
      "midi": 70,
      "hit": false,
      "t": 67241.3300000001,
      "d": 508.62031666666735,
      "v": 101
    },
    {
      "midi": 73,
      "hit": false,
      "t": 67241.3300000001,
      "d": 508.62031666666735,
      "v": 97
    },
    {
      "midi": 80,
      "hit": false,
      "t": 67241.3300000001,
      "d": 508.62031666666735,
      "v": 97
    },
    {
      "midi": 70,
      "hit": false,
      "t": 68275.8120000001,
      "d": 508.62031666666735,
      "v": 86
    },
    {
      "midi": 73,
      "hit": false,
      "t": 68275.8120000001,
      "d": 508.62031666666735,
      "v": 93
    },
    {
      "midi": 78,
      "hit": false,
      "t": 68275.8120000001,
      "d": 508.62031666666735,
      "v": 93
    },
    {
      "midi": 54,
      "hit": false,
      "t": 68275.8120000001,
      "d": 1543.102316666671,
      "v": 101
    },
    {
      "midi": 42,
      "hit": false,
      "t": 68275.8120000001,
      "d": 1551.7229999999981,
      "v": 74
    },
    {
      "midi": 70,
      "hit": false,
      "t": 69310.29400000011,
      "d": 508.62031666666735,
      "v": 86
    },
    {
      "midi": 73,
      "hit": false,
      "t": 69310.29400000011,
      "d": 508.62031666666735,
      "v": 86
    },
    {
      "midi": 78,
      "hit": false,
      "t": 69310.29400000011,
      "d": 508.62031666666735,
      "v": 93
    },
    {
      "midi": 42,
      "hit": false,
      "t": 69827.5350000001,
      "d": 508.62031666666735,
      "v": 83
    },
    {
      "midi": 70,
      "hit": false,
      "t": 70344.7760000001,
      "d": 508.62031666666735,
      "v": 83
    },
    {
      "midi": 73,
      "hit": false,
      "t": 70344.7760000001,
      "d": 508.62031666666735,
      "v": 86
    },
    {
      "midi": 78,
      "hit": false,
      "t": 70344.7760000001,
      "d": 508.62031666666735,
      "v": 86
    },
    {
      "midi": 37,
      "hit": false,
      "t": 70344.7760000001,
      "d": 1025.8613166666619,
      "v": 80
    },
    {
      "midi": 49,
      "hit": false,
      "t": 70344.7760000001,
      "d": 1025.8613166666619,
      "v": 77
    },
    {
      "midi": 70,
      "hit": false,
      "t": 71379.25800000009,
      "d": 508.62031666666735,
      "v": 77
    },
    {
      "midi": 73,
      "hit": false,
      "t": 71379.25800000009,
      "d": 508.62031666666735,
      "v": 93
    },
    {
      "midi": 78,
      "hit": false,
      "t": 71379.25800000009,
      "d": 508.62031666666735,
      "v": 86
    },
    {
      "midi": 37,
      "hit": false,
      "t": 71896.49900000008,
      "d": 2060.343316666651,
      "v": 71
    },
    {
      "midi": 68,
      "hit": false,
      "t": 72413.74000000008,
      "d": 508.6203166666528,
      "v": 86
    },
    {
      "midi": 73,
      "hit": false,
      "t": 72413.74000000008,
      "d": 508.6203166666528,
      "v": 93
    },
    {
      "midi": 77,
      "hit": false,
      "t": 72413.74000000008,
      "d": 508.6203166666528,
      "v": 97
    },
    {
      "midi": 49,
      "hit": false,
      "t": 72413.74000000008,
      "d": 1543.1023166666564,
      "v": 74
    },
    {
      "midi": 68,
      "hit": false,
      "t": 73448.22200000007,
      "d": 508.62031666666735,
      "v": 83
    },
    {
      "midi": 73,
      "hit": false,
      "t": 73448.22200000007,
      "d": 508.62031666666735,
      "v": 90
    },
    {
      "midi": 77,
      "hit": false,
      "t": 73448.22200000007,
      "d": 508.62031666666735,
      "v": 93
    },
    {
      "midi": 42,
      "hit": false,
      "t": 74482.70400000006,
      "d": 1025.8613166666619,
      "v": 90
    },
    {
      "midi": 54,
      "hit": false,
      "t": 74482.70400000006,
      "d": 1025.8613166666619,
      "v": 101
    },
    {
      "midi": 70,
      "hit": false,
      "t": 75517.18600000005,
      "d": 508.62031666666735,
      "v": 97
    },
    {
      "midi": 73,
      "hit": false,
      "t": 75517.18600000005,
      "d": 508.62031666666735,
      "v": 97
    },
    {
      "midi": 78,
      "hit": false,
      "t": 75517.18600000005,
      "d": 1025.8613166666619,
      "v": 93
    },
    {
      "midi": 42,
      "hit": false,
      "t": 76034.42700000004,
      "d": 508.62031666666735,
      "v": 105
    },
    {
      "midi": 70,
      "hit": false,
      "t": 76551.66800000003,
      "d": 508.62031666666735,
      "v": 109
    },
    {
      "midi": 73,
      "hit": false,
      "t": 76551.66800000003,
      "d": 508.62031666666735,
      "v": 105
    },
    {
      "midi": 78,
      "hit": false,
      "t": 76551.66800000003,
      "d": 508.62031666666735,
      "v": 101
    },
    {
      "midi": 42,
      "hit": false,
      "t": 76551.66800000003,
      "d": 1025.8613166666619,
      "v": 90
    },
    {
      "midi": 54,
      "hit": false,
      "t": 76551.66800000003,
      "d": 1543.1023166666564,
      "v": 105
    },
    {
      "midi": 70,
      "hit": false,
      "t": 77068.90900000003,
      "d": 508.62031666666735,
      "v": 109
    },
    {
      "midi": 70,
      "hit": false,
      "t": 77586.15000000002,
      "d": 508.62031666666735,
      "v": 105
    },
    {
      "midi": 73,
      "hit": false,
      "t": 77586.15000000002,
      "d": 508.62031666666735,
      "v": 105
    },
    {
      "midi": 78,
      "hit": false,
      "t": 77586.15000000002,
      "d": 508.62031666666735,
      "v": 97
    },
    {
      "midi": 42,
      "hit": false,
      "t": 78103.39100000002,
      "d": 508.62031666666735,
      "v": 83
    },
    {
      "midi": 63,
      "hit": false,
      "t": 78620.63200000001,
      "d": 508.62031666666735,
      "v": 83
    },
    {
      "midi": 66,
      "hit": false,
      "t": 78620.63200000001,
      "d": 508.62031666666735,
      "v": 90
    },
    {
      "midi": 70,
      "hit": false,
      "t": 78620.63200000001,
      "d": 508.62031666666735,
      "v": 77
    },
    {
      "midi": 39,
      "hit": false,
      "t": 78620.63200000001,
      "d": 1025.8613166666619,
      "v": 93
    },
    {
      "midi": 51,
      "hit": false,
      "t": 78620.63200000001,
      "d": 1025.8613166666619,
      "v": 105
    },
    {
      "midi": 63,
      "hit": false,
      "t": 79137.873,
      "d": 1543.1023166666564,
      "v": 86
    },
    {
      "midi": 66,
      "hit": false,
      "t": 79655.114,
      "d": 1025.8613166666619,
      "v": 77
    },
    {
      "midi": 70,
      "hit": false,
      "t": 79655.114,
      "d": 1025.8613166666619,
      "v": 93
    },
    {
      "midi": 75,
      "hit": false,
      "t": 79655.114,
      "d": 1025.8613166666619,
      "v": 101
    },
    {
      "midi": 39,
      "hit": false,
      "t": 80172.355,
      "d": 508.62031666666735,
      "v": 97
    },
    {
      "midi": 39,
      "hit": false,
      "t": 80689.59599999999,
      "d": 1025.8613166666619,
      "v": 97
    },
    {
      "midi": 51,
      "hit": false,
      "t": 80689.59599999999,
      "d": 1543.1023166666564,
      "v": 66
    },
    {
      "midi": 63,
      "hit": false,
      "t": 81206.83699999998,
      "d": 508.62031666666735,
      "v": 109
    },
    {
      "midi": 66,
      "hit": false,
      "t": 81206.83699999998,
      "d": 508.62031666666735,
      "v": 93
    },
    {
      "midi": 63,
      "hit": false,
      "t": 81724.07799999998,
      "d": 508.62031666666735,
      "v": 93
    },
    {
      "midi": 66,
      "hit": false,
      "t": 81724.07799999998,
      "d": 508.62031666666735,
      "v": 93
    },
    {
      "midi": 70,
      "hit": false,
      "t": 81724.07799999998,
      "d": 508.62031666666735,
      "v": 93
    },
    {
      "midi": 75,
      "hit": false,
      "t": 81724.07799999998,
      "d": 508.62031666666735,
      "v": 105
    },
    {
      "midi": 39,
      "hit": false,
      "t": 82241.31899999997,
      "d": 508.62031666666735,
      "v": 93
    },
    {
      "midi": 68,
      "hit": false,
      "t": 82758.55999999997,
      "d": 508.62031666666735,
      "v": 93
    },
    {
      "midi": 71,
      "hit": false,
      "t": 82758.55999999997,
      "d": 508.62031666666735,
      "v": 93
    },
    {
      "midi": 75,
      "hit": false,
      "t": 82758.55999999997,
      "d": 508.62031666666735,
      "v": 86
    },
    {
      "midi": 44,
      "hit": false,
      "t": 82758.55999999997,
      "d": 1025.8613166666619,
      "v": 93
    },
    {
      "midi": 63,
      "hit": false,
      "t": 82758.55999999997,
      "d": 1025.8613166666619,
      "v": 105
    },
    {
      "midi": 56,
      "hit": false,
      "t": 82758.55999999997,
      "d": 1543.1023166666564,
      "v": 101
    },
    {
      "midi": 63,
      "hit": false,
      "t": 83793.04199999996,
      "d": 1025.8613166666619,
      "v": 83
    },
    {
      "midi": 68,
      "hit": false,
      "t": 83793.04199999996,
      "d": 1025.8613166666619,
      "v": 93
    },
    {
      "midi": 75,
      "hit": false,
      "t": 83793.04199999996,
      "d": 1025.8613166666619,
      "v": 93
    },
    {
      "midi": 71,
      "hit": false,
      "t": 83793.04199999996,
      "d": 1543.1023166666564,
      "v": 97
    },
    {
      "midi": 44,
      "hit": false,
      "t": 84310.28299999995,
      "d": 1543.1023166666564,
      "v": 101
    },
    {
      "midi": 56,
      "hit": false,
      "t": 84827.52399999995,
      "d": 1025.8613166666619,
      "v": 113
    },
    {
      "midi": 63,
      "hit": false,
      "t": 85344.76499999994,
      "d": 508.62031666666735,
      "v": 101
    },
    {
      "midi": 63,
      "hit": false,
      "t": 85862.00599999994,
      "d": 508.62031666666735,
      "v": 86
    },
    {
      "midi": 68,
      "hit": false,
      "t": 85862.00599999994,
      "d": 508.62031666666735,
      "v": 77
    },
    {
      "midi": 71,
      "hit": false,
      "t": 85862.00599999994,
      "d": 508.62031666666735,
      "v": 93
    },
    {
      "midi": 75,
      "hit": false,
      "t": 85862.00599999994,
      "d": 508.62031666666735,
      "v": 93
    },
    {
      "midi": 44,
      "hit": false,
      "t": 86379.24699999993,
      "d": 508.62031666666735,
      "v": 86
    },
    {
      "midi": 65,
      "hit": false,
      "t": 86896.48799999992,
      "d": 508.62031666666735,
      "v": 77
    },
    {
      "midi": 68,
      "hit": false,
      "t": 86896.48799999992,
      "d": 508.62031666666735,
      "v": 86
    },
    {
      "midi": 73,
      "hit": false,
      "t": 86896.48799999992,
      "d": 508.62031666666735,
      "v": 86
    },
    {
      "midi": 37,
      "hit": false,
      "t": 86896.48799999992,
      "d": 3612.066316666649,
      "v": 86
    },
    {
      "midi": 49,
      "hit": false,
      "t": 86896.48799999992,
      "d": 3612.066316666649,
      "v": 83
    },
    {
      "midi": 65,
      "hit": false,
      "t": 87930.96999999993,
      "d": 508.62031666666735,
      "v": 83
    },
    {
      "midi": 68,
      "hit": false,
      "t": 87930.96999999993,
      "d": 508.62031666666735,
      "v": 97
    },
    {
      "midi": 73,
      "hit": false,
      "t": 87930.96999999993,
      "d": 508.62031666666735,
      "v": 105
    },
    {
      "midi": 68,
      "hit": false,
      "t": 88448.21099999992,
      "d": 508.62031666666735,
      "v": 105
    },
    {
      "midi": 73,
      "hit": false,
      "t": 88448.21099999992,
      "d": 508.62031666666735,
      "v": 86
    },
    {
      "midi": 77,
      "hit": false,
      "t": 88965.45199999992,
      "d": 508.62031666666735,
      "v": 80
    },
    {
      "midi": 80,
      "hit": false,
      "t": 88965.45199999992,
      "d": 508.62031666666735,
      "v": 101
    },
    {
      "midi": 68,
      "hit": false,
      "t": 89482.69299999991,
      "d": 508.62031666666735,
      "v": 46
    },
    {
      "midi": 73,
      "hit": false,
      "t": 89482.69299999991,
      "d": 508.62031666666735,
      "v": 80
    },
    {
      "midi": 77,
      "hit": false,
      "t": 89999.9339999999,
      "d": 508.62031666666735,
      "v": 77
    },
    {
      "midi": 85,
      "hit": false,
      "t": 89999.9339999999,
      "d": 508.62031666666735,
      "v": 105
    },
    {
      "midi": 73,
      "hit": false,
      "t": 90517.1749999999,
      "d": 508.62031666666735,
      "v": 83
    },
    {
      "midi": 77,
      "hit": false,
      "t": 90517.1749999999,
      "d": 508.62031666666735,
      "v": 83
    },
    {
      "midi": 66,
      "hit": false,
      "t": 91034.4159999999,
      "d": 508.62031666666735,
      "v": 90
    },
    {
      "midi": 70,
      "hit": false,
      "t": 91034.4159999999,
      "d": 508.62031666666735,
      "v": 93
    },
    {
      "midi": 73,
      "hit": false,
      "t": 91034.4159999999,
      "d": 508.62031666666735,
      "v": 93
    },
    {
      "midi": 78,
      "hit": false,
      "t": 91034.4159999999,
      "d": 508.62031666666735,
      "v": 101
    },
    {
      "midi": 42,
      "hit": false,
      "t": 91034.4159999999,
      "d": 1025.8613166666619,
      "v": 93
    },
    {
      "midi": 54,
      "hit": false,
      "t": 91034.4159999999,
      "d": 1025.8613166666619,
      "v": 101
    },
    {
      "midi": 66,
      "hit": false,
      "t": 92068.89799999988,
      "d": 508.62031666666735,
      "v": 105
    },
    {
      "midi": 70,
      "hit": false,
      "t": 92068.89799999988,
      "d": 508.62031666666735,
      "v": 105
    },
    {
      "midi": 73,
      "hit": false,
      "t": 92068.89799999988,
      "d": 508.62031666666735,
      "v": 93
    },
    {
      "midi": 78,
      "hit": false,
      "t": 92068.89799999988,
      "d": 508.62031666666735,
      "v": 93
    },
    {
      "midi": 42,
      "hit": false,
      "t": 92586.13899999988,
      "d": 1543.1023166666564,
      "v": 86
    },
    {
      "midi": 66,
      "hit": false,
      "t": 93103.37999999987,
      "d": 508.62031666666735,
      "v": 105
    },
    {
      "midi": 70,
      "hit": false,
      "t": 93103.37999999987,
      "d": 508.62031666666735,
      "v": 109
    },
    {
      "midi": 73,
      "hit": false,
      "t": 93103.37999999987,
      "d": 508.62031666666735,
      "v": 105
    },
    {
      "midi": 78,
      "hit": false,
      "t": 93103.37999999987,
      "d": 508.62031666666735,
      "v": 105
    },
    {
      "midi": 54,
      "hit": false,
      "t": 93103.37999999987,
      "d": 1025.8613166666619,
      "v": 101
    },
    {
      "midi": 66,
      "hit": false,
      "t": 94137.86199999986,
      "d": 508.62031666666735,
      "v": 101
    },
    {
      "midi": 70,
      "hit": false,
      "t": 94137.86199999986,
      "d": 508.62031666666735,
      "v": 105
    },
    {
      "midi": 73,
      "hit": false,
      "t": 94137.86199999986,
      "d": 508.62031666666735,
      "v": 105
    },
    {
      "midi": 78,
      "hit": false,
      "t": 94137.86199999986,
      "d": 508.62031666666735,
      "v": 97
    },
    {
      "midi": 42,
      "hit": false,
      "t": 94655.10299999986,
      "d": 508.62031666666735,
      "v": 77
    },
    {
      "midi": 63,
      "hit": false,
      "t": 95172.34399999985,
      "d": 508.62031666666735,
      "v": 93
    },
    {
      "midi": 66,
      "hit": false,
      "t": 95172.34399999985,
      "d": 508.62031666666735,
      "v": 86
    },
    {
      "midi": 70,
      "hit": false,
      "t": 95172.34399999985,
      "d": 508.62031666666735,
      "v": 90
    },
    {
      "midi": 75,
      "hit": false,
      "t": 95172.34399999985,
      "d": 508.62031666666735,
      "v": 93
    },
    {
      "midi": 39,
      "hit": false,
      "t": 95172.34399999985,
      "d": 1025.8613166666619,
      "v": 93
    },
    {
      "midi": 51,
      "hit": false,
      "t": 95172.34399999985,
      "d": 1025.8613166666619,
      "v": 105
    },
    {
      "midi": 63,
      "hit": false,
      "t": 96206.82599999984,
      "d": 508.62031666666735,
      "v": 101
    },
    {
      "midi": 66,
      "hit": false,
      "t": 96206.82599999984,
      "d": 508.62031666666735,
      "v": 101
    },
    {
      "midi": 70,
      "hit": false,
      "t": 96206.82599999984,
      "d": 508.62031666666735,
      "v": 101
    },
    {
      "midi": 75,
      "hit": false,
      "t": 96206.82599999984,
      "d": 508.62031666666735,
      "v": 101
    },
    {
      "midi": 39,
      "hit": false,
      "t": 96724.06699999984,
      "d": 508.62031666666735,
      "v": 105
    },
    {
      "midi": 63,
      "hit": false,
      "t": 97241.30799999983,
      "d": 508.62031666666735,
      "v": 90
    },
    {
      "midi": 66,
      "hit": false,
      "t": 97241.30799999983,
      "d": 508.62031666666735,
      "v": 97
    },
    {
      "midi": 70,
      "hit": false,
      "t": 97241.30799999983,
      "d": 508.62031666666735,
      "v": 93
    },
    {
      "midi": 75,
      "hit": false,
      "t": 97241.30799999983,
      "d": 508.62031666666735,
      "v": 93
    },
    {
      "midi": 39,
      "hit": false,
      "t": 97241.30799999983,
      "d": 1025.8613166666619,
      "v": 86
    },
    {
      "midi": 51,
      "hit": false,
      "t": 97241.30799999983,
      "d": 1543.1023166666564,
      "v": 109
    },
    {
      "midi": 63,
      "hit": false,
      "t": 97758.54899999982,
      "d": 508.62031666666735,
      "v": 61
    },
    {
      "midi": 66,
      "hit": false,
      "t": 97758.54899999982,
      "d": 508.62031666666735,
      "v": 83
    },
    {
      "midi": 63,
      "hit": false,
      "t": 98275.78999999982,
      "d": 508.62031666666735,
      "v": 101
    },
    {
      "midi": 66,
      "hit": false,
      "t": 98275.78999999982,
      "d": 508.62031666666735,
      "v": 93
    },
    {
      "midi": 70,
      "hit": false,
      "t": 98275.78999999982,
      "d": 508.62031666666735,
      "v": 109
    },
    {
      "midi": 75,
      "hit": false,
      "t": 98275.78999999982,
      "d": 508.62031666666735,
      "v": 97
    },
    {
      "midi": 39,
      "hit": false,
      "t": 98793.03099999981,
      "d": 508.62031666666735,
      "v": 83
    },
    {
      "midi": 63,
      "hit": false,
      "t": 99310.27199999981,
      "d": 508.62031666666735,
      "v": 80
    },
    {
      "midi": 68,
      "hit": false,
      "t": 99310.27199999981,
      "d": 508.62031666666735,
      "v": 93
    },
    {
      "midi": 71,
      "hit": false,
      "t": 99310.27199999981,
      "d": 508.62031666666735,
      "v": 86
    },
    {
      "midi": 75,
      "hit": false,
      "t": 99310.27199999981,
      "d": 508.62031666666735,
      "v": 80
    },
    {
      "midi": 44,
      "hit": false,
      "t": 99310.27199999981,
      "d": 1025.8613166666619,
      "v": 83
    },
    {
      "midi": 56,
      "hit": false,
      "t": 99310.27199999981,
      "d": 1025.8613166666619,
      "v": 93
    },
    {
      "midi": 63,
      "hit": false,
      "t": 100344.7539999998,
      "d": 1025.8613166666619,
      "v": 105
    },
    {
      "midi": 68,
      "hit": false,
      "t": 100344.7539999998,
      "d": 1543.1023166666564,
      "v": 90
    },
    {
      "midi": 71,
      "hit": false,
      "t": 100344.7539999998,
      "d": 1543.1023166666564,
      "v": 83
    },
    {
      "midi": 75,
      "hit": false,
      "t": 100344.7539999998,
      "d": 1543.1023166666564,
      "v": 90
    },
    {
      "midi": 44,
      "hit": false,
      "t": 100861.99499999979,
      "d": 1543.1023166666564,
      "v": 77
    },
    {
      "midi": 56,
      "hit": false,
      "t": 101379.23599999979,
      "d": 1025.8613166666619,
      "v": 105
    },
    {
      "midi": 63,
      "hit": false,
      "t": 101896.47699999978,
      "d": 508.62031666666735,
      "v": 105
    },
    {
      "midi": 63,
      "hit": false,
      "t": 102413.71799999978,
      "d": 508.62031666666735,
      "v": 93
    },
    {
      "midi": 68,
      "hit": false,
      "t": 102413.71799999978,
      "d": 508.62031666666735,
      "v": 93
    },
    {
      "midi": 71,
      "hit": false,
      "t": 102413.71799999978,
      "d": 508.62031666666735,
      "v": 93
    },
    {
      "midi": 75,
      "hit": false,
      "t": 102413.71799999978,
      "d": 508.62031666666735,
      "v": 90
    },
    {
      "midi": 44,
      "hit": false,
      "t": 102930.95899999977,
      "d": 508.62031666666735,
      "v": 86
    },
    {
      "midi": 65,
      "hit": false,
      "t": 103448.19999999976,
      "d": 508.62031666666735,
      "v": 66
    },
    {
      "midi": 68,
      "hit": false,
      "t": 103448.19999999976,
      "d": 508.62031666666735,
      "v": 74
    },
    {
      "midi": 73,
      "hit": false,
      "t": 103448.19999999976,
      "d": 508.62031666666735,
      "v": 74
    },
    {
      "midi": 37,
      "hit": false,
      "t": 103448.19999999976,
      "d": 1025.8613166666619,
      "v": 74
    },
    {
      "midi": 49,
      "hit": false,
      "t": 103448.19999999976,
      "d": 1025.8613166666619,
      "v": 63
    },
    {
      "midi": 73,
      "hit": false,
      "t": 104482.68199999975,
      "d": 508.62031666666735,
      "v": 86
    }
  ]
}