{
  "jsonPath": "Unknown/Unknown/Eric TingstadNancy Rumbel/when-you-wish-upon-a-star.json",
  "path": "Unknown\\Unknown\\Eric TingstadNancy Rumbel\\When You Wish Upon A Star.mid",
  "name": "When You Wish Upon A Star",
  "difficulty": "Advanced",
  "bpm": 96,
  "notes": [
    {
      "midi": 60,
      "hit": false,
      "t": 5217.392,
      "d": 619.5653000000002,
      "v": 65
    },
    {
      "midi": 55,
      "hit": false,
      "t": 5217.392,
      "d": 663.0435666666672,
      "v": 48
    },
    {
      "midi": 64,
      "hit": false,
      "t": 5217.392,
      "d": 673.9131333333335,
      "v": 61
    },
    {
      "midi": 67,
      "hit": false,
      "t": 5217.392,
      "d": 673.9131333333335,
      "v": 56
    },
    {
      "midi": 74,
      "hit": false,
      "t": 5228.261566666666,
      "d": 836.9566333333332,
      "v": 122
    },
    {
      "midi": 60,
      "hit": false,
      "t": 5228.261566666666,
      "d": 1222.82625,
      "v": 122
    },
    {
      "midi": 52,
      "hit": false,
      "t": 5228.261566666666,
      "d": 1239.1306000000004,
      "v": 122
    },
    {
      "midi": 67,
      "hit": false,
      "t": 5228.261566666666,
      "d": 1451.0871499999994,
      "v": 122
    },
    {
      "midi": 72,
      "hit": false,
      "t": 5880.435566666666,
      "d": 788.0435833333331,
      "v": 122
    },
    {
      "midi": 67,
      "hit": false,
      "t": 6195.653,
      "d": 1152.1740666666674,
      "v": 63
    },
    {
      "midi": 55,
      "hit": false,
      "t": 6195.653,
      "d": 1282.6088666666674,
      "v": 46
    },
    {
      "midi": 60,
      "hit": false,
      "t": 6195.653,
      "d": 1293.4784333333337,
      "v": 80
    },
    {
      "midi": 64,
      "hit": false,
      "t": 6195.653,
      "d": 1320.6523500000003,
      "v": 62
    },
    {
      "midi": 71,
      "hit": false,
      "t": 6532.609566666666,
      "d": 788.0435833333322,
      "v": 122
    },
    {
      "midi": 51,
      "hit": false,
      "t": 6532.609566666666,
      "d": 1396.7393166666661,
      "v": 122
    },
    {
      "midi": 60,
      "hit": false,
      "t": 6532.609566666666,
      "d": 1413.0436666666665,
      "v": 122
    },
    {
      "midi": 66,
      "hit": false,
      "t": 6532.609566666666,
      "d": 1451.0871499999994,
      "v": 122
    },
    {
      "midi": 76,
      "hit": false,
      "t": 7173.914000000001,
      "d": 195.65220000000045,
      "v": 71
    },
    {
      "midi": 69,
      "hit": false,
      "t": 7184.783566666665,
      "d": 619.5653000000002,
      "v": 122
    },
    {
      "midi": 79,
      "hit": false,
      "t": 7500.001,
      "d": 146.73915000000034,
      "v": 70
    },
    {
      "midi": 55,
      "hit": false,
      "t": 7826.088000000001,
      "d": 695.652266666667,
      "v": 49
    },
    {
      "midi": 60,
      "hit": false,
      "t": 7826.088000000001,
      "d": 695.652266666667,
      "v": 66
    },
    {
      "midi": 64,
      "hit": false,
      "t": 7826.088000000001,
      "d": 722.8261833333336,
      "v": 60
    },
    {
      "midi": 67,
      "hit": false,
      "t": 7826.088000000001,
      "d": 722.8261833333336,
      "v": 69
    },
    {
      "midi": 50,
      "hit": false,
      "t": 7836.957566666665,
      "d": 766.3044500000005,
      "v": 122
    },
    {
      "midi": 67,
      "hit": false,
      "t": 7836.957566666665,
      "d": 766.3044500000005,
      "v": 122
    },
    {
      "midi": 64,
      "hit": false,
      "t": 7836.957566666665,
      "d": 788.0435833333331,
      "v": 122
    },
    {
      "midi": 65,
      "hit": false,
      "t": 8489.131566666665,
      "d": 750.0000999999993,
      "v": 122
    },
    {
      "midi": 38,
      "hit": false,
      "t": 8489.131566666665,
      "d": 788.0435833333322,
      "v": 122
    },
    {
      "midi": 62,
      "hit": false,
      "t": 8489.131566666665,
      "d": 788.0435833333322,
      "v": 122
    },
    {
      "midi": 55,
      "hit": false,
      "t": 8804.349,
      "d": 1614.1306499999992,
      "v": 49
    },
    {
      "midi": 60,
      "hit": false,
      "t": 8804.349,
      "d": 1614.1306499999992,
      "v": 75
    },
    {
      "midi": 64,
      "hit": false,
      "t": 8804.349,
      "d": 1614.1306499999992,
      "v": 63
    },
    {
      "midi": 67,
      "hit": false,
      "t": 8804.349,
      "d": 1614.1306499999992,
      "v": 67
    },
    {
      "midi": 60,
      "hit": false,
      "t": 9141.305566666664,
      "d": 766.3044499999996,
      "v": 122
    },
    {
      "midi": 64,
      "hit": false,
      "t": 9141.305566666664,
      "d": 788.0435833333322,
      "v": 122
    },
    {
      "midi": 67,
      "hit": false,
      "t": 9141.305566666664,
      "d": 788.0435833333322,
      "v": 122
    },
    {
      "midi": 40,
      "hit": false,
      "t": 9141.305566666664,
      "d": 804.3479333333325,
      "v": 122
    },
    {
      "midi": 76,
      "hit": false,
      "t": 9782.61,
      "d": 608.6957333333321,
      "v": 64
    },
    {
      "midi": 41,
      "hit": false,
      "t": 9793.479566666663,
      "d": 766.3044500000015,
      "v": 122
    },
    {
      "midi": 62,
      "hit": false,
      "t": 9793.479566666663,
      "d": 766.3044500000015,
      "v": 122
    },
    {
      "midi": 79,
      "hit": false,
      "t": 10108.697,
      "d": 309.7826499999992,
      "v": 74
    },
    {
      "midi": 60,
      "hit": false,
      "t": 10445.653566666664,
      "d": 619.5653000000002,
      "v": 122
    },
    {
      "midi": 65,
      "hit": false,
      "t": 10445.653566666664,
      "d": 619.5653000000002,
      "v": 122
    },
    {
      "midi": 43,
      "hit": false,
      "t": 10445.653566666664,
      "d": 1222.82625,
      "v": 122
    },
    {
      "midi": 31,
      "hit": false,
      "t": 10445.653566666664,
      "d": 1255.4349500000008,
      "v": 122
    },
    {
      "midi": 69,
      "hit": false,
      "t": 10445.653566666664,
      "d": 1413.0436666666665,
      "v": 122
    },
    {
      "midi": 48,
      "hit": false,
      "t": 10451.08835,
      "d": 5201.087650000001,
      "v": 59
    },
    {
      "midi": 55,
      "hit": false,
      "t": 10570.653583333333,
      "d": 5081.5224166666685,
      "v": 77
    },
    {
      "midi": 64,
      "hit": false,
      "t": 10695.6536,
      "d": 4956.522400000002,
      "v": 57
    },
    {
      "midi": 67,
      "hit": false,
      "t": 10809.78405,
      "d": 3641.3048333333336,
      "v": 51
    },
    {
      "midi": 72,
      "hit": false,
      "t": 10902.175366666666,
      "d": 3494.565683333334,
      "v": 52
    },
    {
      "midi": 79,
      "hit": false,
      "t": 11016.305816666667,
      "d": 3451.087416666667,
      "v": 57
    },
    {
      "midi": 60,
      "hit": false,
      "t": 11097.827566666665,
      "d": 717.3913999999986,
      "v": 122
    },
    {
      "midi": 65,
      "hit": false,
      "t": 11097.827566666665,
      "d": 750.0000999999993,
      "v": 122
    },
    {
      "midi": 43,
      "hit": false,
      "t": 11750.001566666664,
      "d": 1413.0436666666665,
      "v": 122
    },
    {
      "midi": 53,
      "hit": false,
      "t": 11750.001566666664,
      "d": 1429.3480166666668,
      "v": 122
    },
    {
      "midi": 59,
      "hit": false,
      "t": 11750.001566666664,
      "d": 1429.3480166666668,
      "v": 122
    },
    {
      "midi": 31,
      "hit": false,
      "t": 11750.001566666664,
      "d": 1467.3914999999997,
      "v": 122
    },
    {
      "midi": 57,
      "hit": false,
      "t": 11831.523316666664,
      "d": 543.4783333333326,
      "v": 122
    },
    {
      "midi": 56,
      "hit": false,
      "t": 12402.175566666663,
      "d": 619.5653000000002,
      "v": 122
    },
    {
      "midi": 60,
      "hit": false,
      "t": 13054.349566666664,
      "d": 733.695749999999,
      "v": 122
    },
    {
      "midi": 48,
      "hit": false,
      "t": 13054.349566666664,
      "d": 750.0000999999993,
      "v": 122
    },
    {
      "midi": 57,
      "hit": false,
      "t": 13054.349566666664,
      "d": 750.0000999999993,
      "v": 122
    },
    {
      "midi": 52,
      "hit": false,
      "t": 13054.349566666664,
      "d": 766.3044499999996,
      "v": 122
    },
    {
      "midi": 55,
      "hit": false,
      "t": 13054.349566666664,
      "d": 766.3044499999996,
      "v": 122
    },
    {
      "midi": 36,
      "hit": false,
      "t": 13054.349566666664,
      "d": 788.0435833333322,
      "v": 122
    },
    {
      "midi": 67,
      "hit": false,
      "t": 13706.523566666663,
      "d": 1869.565466666665,
      "v": 122
    },
    {
      "midi": 57,
      "hit": false,
      "t": 14358.697566666662,
      "d": 804.3479333333325,
      "v": 122
    },
    {
      "midi": 64,
      "hit": false,
      "t": 14358.697566666662,
      "d": 804.3479333333325,
      "v": 122
    },
    {
      "midi": 53,
      "hit": false,
      "t": 14358.697566666662,
      "d": 1293.4784333333319,
      "v": 122
    },
    {
      "midi": 43,
      "hit": false,
      "t": 14358.697566666662,
      "d": 1309.7827833333322,
      "v": 122
    },
    {
      "midi": 67,
      "hit": false,
      "t": 14701.088916666668,
      "d": 951.0870833333338,
      "v": 67
    },
    {
      "midi": 59,
      "hit": false,
      "t": 15010.871566666661,
      "d": 619.5653000000002,
      "v": 122
    },
    {
      "midi": 62,
      "hit": false,
      "t": 15010.871566666661,
      "d": 619.5653000000002,
      "v": 122
    },
    {
      "midi": 72,
      "hit": false,
      "t": 15016.30635,
      "d": 635.8696500000005,
      "v": 73
    },
    {
      "midi": 79,
      "hit": false,
      "t": 15347.828133333334,
      "d": 304.34786666666696,
      "v": 69
    },
    {
      "midi": 60,
      "hit": false,
      "t": 15652.176000000001,
      "d": 619.5653000000002,
      "v": 65
    },
    {
      "midi": 55,
      "hit": false,
      "t": 15652.176000000001,
      "d": 663.0435666666672,
      "v": 48
    },
    {
      "midi": 64,
      "hit": false,
      "t": 15652.176000000001,
      "d": 673.9131333333335,
      "v": 61
    },
    {
      "midi": 67,
      "hit": false,
      "t": 15652.176000000001,
      "d": 673.9131333333335,
      "v": 56
    },
    {
      "midi": 67,
      "hit": false,
      "t": 15663.04556666666,
      "d": 755.4348833333352,
      "v": 122
    },
    {
      "midi": 60,
      "hit": false,
      "t": 15663.04556666666,
      "d": 1217.3914666666678,
      "v": 122
    },
    {
      "midi": 55,
      "hit": false,
      "t": 15663.04556666666,
      "d": 1228.261033333336,
      "v": 122
    },
    {
      "midi": 52,
      "hit": false,
      "t": 15663.04556666666,
      "d": 1353.261050000001,
      "v": 122
    },
    {
      "midi": 69,
      "hit": false,
      "t": 16315.219566666661,
      "d": 701.0870500000001,
      "v": 122
    },
    {
      "midi": 55,
      "hit": false,
      "t": 16630.437,
      "d": 326.08699999999953,
      "v": 46
    },
    {
      "midi": 60,
      "hit": false,
      "t": 16630.437,
      "d": 326.08699999999953,
      "v": 80
    },
    {
      "midi": 64,
      "hit": false,
      "t": 16630.437,
      "d": 326.08699999999953,
      "v": 62
    },
    {
      "midi": 67,
      "hit": false,
      "t": 16630.437,
      "d": 326.08699999999953,
      "v": 63
    },
    {
      "midi": 59,
      "hit": false,
      "t": 16956.524,
      "d": 619.5652999999984,
      "v": 65
    },
    {
      "midi": 55,
      "hit": false,
      "t": 16956.524,
      "d": 663.0435666666635,
      "v": 48
    },
    {
      "midi": 62,
      "hit": false,
      "t": 16956.524,
      "d": 673.9131333333316,
      "v": 61
    },
    {
      "midi": 65,
      "hit": false,
      "t": 16956.524,
      "d": 673.9131333333316,
      "v": 56
    },
    {
      "midi": 55,
      "hit": false,
      "t": 16967.393566666662,
      "d": 619.5652999999984,
      "v": 122
    },
    {
      "midi": 65,
      "hit": false,
      "t": 16967.393566666662,
      "d": 619.5652999999984,
      "v": 122
    },
    {
      "midi": 60,
      "hit": false,
      "t": 16967.393566666662,
      "d": 782.6087999999982,
      "v": 122
    },
    {
      "midi": 50,
      "hit": false,
      "t": 16967.393566666662,
      "d": 1413.0436666666646,
      "v": 122
    },
    {
      "midi": 59,
      "hit": false,
      "t": 17619.56756666666,
      "d": 619.5652999999984,
      "v": 122
    },
    {
      "midi": 67,
      "hit": false,
      "t": 17619.56756666666,
      "d": 728.2609666666649,
      "v": 122
    },
    {
      "midi": 55,
      "hit": false,
      "t": 17934.785,
      "d": 326.08699999999953,
      "v": 46
    },
    {
      "midi": 59,
      "hit": false,
      "t": 17934.785,
      "d": 326.08699999999953,
      "v": 80
    },
    {
      "midi": 62,
      "hit": false,
      "t": 17934.785,
      "d": 326.08699999999953,
      "v": 62
    },
    {
      "midi": 65,
      "hit": false,
      "t": 17934.785,
      "d": 326.08699999999953,
      "v": 63
    },
    {
      "midi": 55,
      "hit": false,
      "t": 18260.872,
      "d": 1304.3479999999981,
      "v": 17
    },
    {
      "midi": 60,
      "hit": false,
      "t": 18260.872,
      "d": 1304.3479999999981,
      "v": 80
    },
    {
      "midi": 64,
      "hit": false,
      "t": 18260.872,
      "d": 1304.3479999999981,
      "v": 67
    },
    {
      "midi": 67,
      "hit": false,
      "t": 18260.872,
      "d": 1304.3479999999981,
      "v": 71
    },
    {
      "midi": 59,
      "hit": false,
      "t": 18271.74156666666,
      "d": 711.9566166666664,
      "v": 122
    },
    {
      "midi": 48,
      "hit": false,
      "t": 18271.74156666666,
      "d": 1353.2610499999973,
      "v": 122
    },
    {
      "midi": 55,
      "hit": false,
      "t": 18271.74156666666,
      "d": 1413.0436666666646,
      "v": 122
    },
    {
      "midi": 64,
      "hit": false,
      "t": 18271.74156666666,
      "d": 2711.9568833333324,
      "v": 122
    },
    {
      "midi": 57,
      "hit": false,
      "t": 18423.9155,
      "d": 65.21740000000136,
      "v": 24
    },
    {
      "midi": 76,
      "hit": false,
      "t": 18586.959,
      "d": 652.1739999999991,
      "v": 70
    },
    {
      "midi": 79,
      "hit": false,
      "t": 18913.046,
      "d": 326.08699999999953,
      "v": 65
    },
    {
      "midi": 60,
      "hit": false,
      "t": 18923.91556666666,
      "d": 755.4348833333315,
      "v": 122
    },
    {
      "midi": 88,
      "hit": false,
      "t": 19239.132999999998,
      "d": 282.6087333333344,
      "v": 75
    },
    {
      "midi": 57,
      "hit": false,
      "t": 19576.08956666666,
      "d": 739.130533333333,
      "v": 122
    },
    {
      "midi": 43,
      "hit": false,
      "t": 19576.08956666666,
      "d": 1396.7393166666661,
      "v": 122
    },
    {
      "midi": 53,
      "hit": false,
      "t": 19576.08956666666,
      "d": 1413.0436666666683,
      "v": 122
    },
    {
      "midi": 43,
      "hit": false,
      "t": 19581.524349999996,
      "d": 1288.0436500000033,
      "v": 59
    },
    {
      "midi": 59,
      "hit": false,
      "t": 19701.08958333333,
      "d": 1168.4784166666686,
      "v": 77
    },
    {
      "midi": 65,
      "hit": false,
      "t": 19826.089599999996,
      "d": 1043.4784000000036,
      "v": 57
    },
    {
      "midi": 67,
      "hit": false,
      "t": 19940.220049999996,
      "d": 929.347950000003,
      "v": 51
    },
    {
      "midi": 74,
      "hit": false,
      "t": 20032.611366666664,
      "d": 836.956633333335,
      "v": 52
    },
    {
      "midi": 79,
      "hit": false,
      "t": 20146.741816666665,
      "d": 722.8261833333345,
      "v": 57
    },
    {
      "midi": 59,
      "hit": false,
      "t": 20228.263566666657,
      "d": 755.4348833333352,
      "v": 122
    },
    {
      "midi": 55,
      "hit": false,
      "t": 20869.568,
      "d": 1304.3479999999981,
      "v": 17
    },
    {
      "midi": 60,
      "hit": false,
      "t": 20869.568,
      "d": 1304.3479999999981,
      "v": 80
    },
    {
      "midi": 64,
      "hit": false,
      "t": 20869.568,
      "d": 1304.3479999999981,
      "v": 67
    },
    {
      "midi": 67,
      "hit": false,
      "t": 20869.568,
      "d": 1304.3479999999981,
      "v": 71
    },
    {
      "midi": 67,
      "hit": false,
      "t": 20880.437566666656,
      "d": 739.1305333333366,
      "v": 122
    },
    {
      "midi": 55,
      "hit": false,
      "t": 20880.437566666656,
      "d": 1228.261033333336,
      "v": 122
    },
    {
      "midi": 60,
      "hit": false,
      "t": 20880.437566666656,
      "d": 1244.5653833333345,
      "v": 122
    },
    {
      "midi": 52,
      "hit": false,
      "t": 20880.437566666656,
      "d": 1413.0436666666683,
      "v": 122
    },
    {
      "midi": 57,
      "hit": false,
      "t": 21032.6115,
      "d": 65.21740000000136,
      "v": 24
    },
    {
      "midi": 76,
      "hit": false,
      "t": 21195.655,
      "d": 652.1739999999991,
      "v": 70
    },
    {
      "midi": 79,
      "hit": false,
      "t": 21521.742,
      "d": 326.08699999999953,
      "v": 65
    },
    {
      "midi": 69,
      "hit": false,
      "t": 21532.61156666666,
      "d": 728.2609666666649,
      "v": 122
    },
    {
      "midi": 88,
      "hit": false,
      "t": 21847.828999999998,
      "d": 282.6087333333344,
      "v": 75
    },
    {
      "midi": 55,
      "hit": false,
      "t": 22173.915999999997,
      "d": 1304.3479999999981,
      "v": 17
    },
    {
      "midi": 59,
      "hit": false,
      "t": 22173.915999999997,
      "d": 1304.3479999999981,
      "v": 80
    },
    {
      "midi": 62,
      "hit": false,
      "t": 22173.915999999997,
      "d": 1304.3479999999981,
      "v": 67
    },
    {
      "midi": 65,
      "hit": false,
      "t": 22173.915999999997,
      "d": 1304.3479999999981,
      "v": 71
    },
    {
      "midi": 60,
      "hit": false,
      "t": 22184.78556666666,
      "d": 739.130533333333,
      "v": 122
    },
    {
      "midi": 65,
      "hit": false,
      "t": 22184.78556666666,
      "d": 739.130533333333,
      "v": 122
    },
    {
      "midi": 55,
      "hit": false,
      "t": 22184.78556666666,
      "d": 1298.9132166666677,
      "v": 122
    },
    {
      "midi": 50,
      "hit": false,
      "t": 22184.78556666666,
      "d": 1380.4349666666676,
      "v": 122
    },
    {
      "midi": 57,
      "hit": false,
      "t": 22336.959499999997,
      "d": 65.21740000000136,
      "v": 24
    },
    {
      "midi": 74,
      "hit": false,
      "t": 22500.002999999997,
      "d": 652.1739999999991,
      "v": 70
    },
    {
      "midi": 79,
      "hit": false,
      "t": 22826.089999999997,
      "d": 326.08699999999953,
      "v": 65
    },
    {
      "midi": 59,
      "hit": false,
      "t": 22836.959566666657,
      "d": 619.565300000002,
      "v": 122
    },
    {
      "midi": 67,
      "hit": false,
      "t": 22836.959566666657,
      "d": 728.2609666666685,
      "v": 122
    },
    {
      "midi": 86,
      "hit": false,
      "t": 23152.176999999996,
      "d": 282.6087333333344,
      "v": 75
    },
    {
      "midi": 55,
      "hit": false,
      "t": 23478.263999999996,
      "d": 1304.3479999999981,
      "v": 17
    },
    {
      "midi": 60,
      "hit": false,
      "t": 23478.263999999996,
      "d": 1304.3479999999981,
      "v": 80
    },
    {
      "midi": 64,
      "hit": false,
      "t": 23478.263999999996,
      "d": 1304.3479999999981,
      "v": 67
    },
    {
      "midi": 67,
      "hit": false,
      "t": 23478.263999999996,
      "d": 1304.3479999999981,
      "v": 71
    },
    {
      "midi": 59,
      "hit": false,
      "t": 23489.13356666666,
      "d": 619.5652999999984,
      "v": 122
    },
    {
      "midi": 64,
      "hit": false,
      "t": 23489.13356666666,
      "d": 766.3044499999996,
      "v": 122
    },
    {
      "midi": 48,
      "hit": false,
      "t": 23489.13356666666,
      "d": 1396.7393166666698,
      "v": 122
    },
    {
      "midi": 55,
      "hit": false,
      "t": 23489.13356666666,
      "d": 1413.043666666672,
      "v": 122
    },
    {
      "midi": 57,
      "hit": false,
      "t": 23641.307499999995,
      "d": 65.21740000000136,
      "v": 24
    },
    {
      "midi": 76,
      "hit": false,
      "t": 23804.350999999995,
      "d": 652.1739999999991,
      "v": 70
    },
    {
      "midi": 79,
      "hit": false,
      "t": 24130.437999999995,
      "d": 326.08699999999953,
      "v": 65
    },
    {
      "midi": 57,
      "hit": false,
      "t": 24141.30756666666,
      "d": 619.565300000002,
      "v": 122
    },
    {
      "midi": 65,
      "hit": false,
      "t": 24141.30756666666,
      "d": 755.4348833333388,
      "v": 122
    },
    {
      "midi": 88,
      "hit": false,
      "t": 24456.524999999994,
      "d": 282.6087333333344,
      "v": 75
    },
    {
      "midi": 60,
      "hit": false,
      "t": 24782.611999999994,
      "d": 619.5652999999984,
      "v": 65
    },
    {
      "midi": 57,
      "hit": false,
      "t": 24782.611999999994,
      "d": 652.1739999999991,
      "v": 48
    },
    {
      "midi": 62,
      "hit": false,
      "t": 24782.611999999994,
      "d": 652.1739999999991,
      "v": 61
    },
    {
      "midi": 65,
      "hit": false,
      "t": 24782.611999999994,
      "d": 652.1739999999991,
      "v": 56
    },
    {
      "midi": 57,
      "hit": false,
      "t": 24793.481566666662,
      "d": 619.565300000002,
      "v": 122
    },
    {
      "midi": 47,
      "hit": false,
      "t": 24793.481566666662,
      "d": 1282.6088666666692,
      "v": 122
    },
    {
      "midi": 53,
      "hit": false,
      "t": 24793.481566666662,
      "d": 1298.9132166666677,
      "v": 122
    },
    {
      "midi": 62,
      "hit": false,
      "t": 24793.481566666662,
      "d": 1315.2175666666699,
      "v": 122
    },
    {
      "midi": 56,
      "hit": false,
      "t": 25445.655566666665,
      "d": 619.5652999999984,
      "v": 122
    },
    {
      "midi": 40,
      "hit": false,
      "t": 25451.09034999999,
      "d": 635.8696500000005,
      "v": 59
    },
    {
      "midi": 56,
      "hit": false,
      "t": 25570.655583333326,
      "d": 516.3044166666659,
      "v": 77
    },
    {
      "midi": 62,
      "hit": false,
      "t": 25695.65559999999,
      "d": 391.3044000000009,
      "v": 57
    },
    {
      "midi": 64,
      "hit": false,
      "t": 25809.78604999999,
      "d": 277.17395000000033,
      "v": 51
    },
    {
      "midi": 71,
      "hit": false,
      "t": 25902.17736666666,
      "d": 184.78263333333234,
      "v": 52
    },
    {
      "midi": 76,
      "hit": false,
      "t": 26016.30781666666,
      "d": 70.65218333333178,
      "v": 57
    },
    {
      "midi": 57,
      "hit": false,
      "t": 26086.959999999992,
      "d": 619.5652999999984,
      "v": 65
    },
    {
      "midi": 52,
      "hit": false,
      "t": 26086.959999999992,
      "d": 663.0435666666635,
      "v": 48
    },
    {
      "midi": 60,
      "hit": false,
      "t": 26086.959999999992,
      "d": 673.9131333333316,
      "v": 61
    },
    {
      "midi": 64,
      "hit": false,
      "t": 26086.959999999992,
      "d": 673.9131333333316,
      "v": 56
    },
    {
      "midi": 64,
      "hit": false,
      "t": 26097.829566666664,
      "d": 766.3044500000033,
      "v": 122
    },
    {
      "midi": 52,
      "hit": false,
      "t": 26097.829566666664,
      "d": 1244.565383333338,
      "v": 122
    },
    {
      "midi": 48,
      "hit": false,
      "t": 26097.829566666664,
      "d": 1396.7393166666698,
      "v": 122
    },
    {
      "midi": 57,
      "hit": false,
      "t": 26097.829566666664,
      "d": 1396.7393166666698,
      "v": 122
    },
    {
      "midi": 65,
      "hit": false,
      "t": 26750.003566666666,
      "d": 728.2609666666685,
      "v": 122
    },
    {
      "midi": 52,
      "hit": false,
      "t": 27065.22099999999,
      "d": 326.08699999999953,
      "v": 46
    },
    {
      "midi": 57,
      "hit": false,
      "t": 27065.22099999999,
      "d": 326.08699999999953,
      "v": 80
    },
    {
      "midi": 60,
      "hit": false,
      "t": 27065.22099999999,
      "d": 326.08699999999953,
      "v": 62
    },
    {
      "midi": 64,
      "hit": false,
      "t": 27065.22099999999,
      "d": 326.08699999999953,
      "v": 63
    },
    {
      "midi": 52,
      "hit": false,
      "t": 27391.30799999999,
      "d": 1304.3479999999981,
      "v": 17
    },
    {
      "midi": 56,
      "hit": false,
      "t": 27391.30799999999,
      "d": 1304.3479999999981,
      "v": 80
    },
    {
      "midi": 59,
      "hit": false,
      "t": 27391.30799999999,
      "d": 1304.3479999999981,
      "v": 67
    },
    {
      "midi": 62,
      "hit": false,
      "t": 27391.30799999999,
      "d": 1304.3479999999981,
      "v": 71
    },
    {
      "midi": 62,
      "hit": false,
      "t": 27402.17756666667,
      "d": 728.2609666666649,
      "v": 122
    },
    {
      "midi": 52,
      "hit": false,
      "t": 27402.17756666667,
      "d": 1244.5653833333308,
      "v": 122
    },
    {
      "midi": 56,
      "hit": false,
      "t": 27402.17756666667,
      "d": 1423.9132333333328,
      "v": 122
    },
    {
      "midi": 47,
      "hit": false,
      "t": 27402.17756666667,
      "d": 1451.0871499999994,
      "v": 122
    },
    {
      "midi": 54,
      "hit": false,
      "t": 27554.35149999999,
      "d": 65.21740000000136,
      "v": 24
    },
    {
      "midi": 71,
      "hit": false,
      "t": 27717.39499999999,
      "d": 652.1739999999991,
      "v": 70
    },
    {
      "midi": 76,
      "hit": false,
      "t": 28043.48199999999,
      "d": 326.08699999999953,
      "v": 65
    },
    {
      "midi": 64,
      "hit": false,
      "t": 28054.351566666668,
      "d": 619.5652999999984,
      "v": 122
    },
    {
      "midi": 83,
      "hit": false,
      "t": 28369.56899999999,
      "d": 282.6087333333344,
      "v": 75
    },
    {
      "midi": 64,
      "hit": false,
      "t": 28695.655999999988,
      "d": 1951.0872166666668,
      "v": 61
    },
    {
      "midi": 52,
      "hit": false,
      "t": 28695.655999999988,
      "d": 2608.696,
      "v": 58
    },
    {
      "midi": 60,
      "hit": false,
      "t": 28701.090783333322,
      "d": 2603.261216666666,
      "v": 57
    },
    {
      "midi": 52,
      "hit": false,
      "t": 28706.525566666667,
      "d": 728.2609666666685,
      "v": 122
    },
    {
      "midi": 57,
      "hit": false,
      "t": 28706.525566666667,
      "d": 728.2609666666685,
      "v": 122
    },
    {
      "midi": 45,
      "hit": false,
      "t": 28706.525566666667,
      "d": 739.1305333333366,
      "v": 122
    },
    {
      "midi": 60,
      "hit": false,
      "t": 28706.525566666667,
      "d": 739.1305333333366,
      "v": 122
    },
    {
      "midi": 57,
      "hit": false,
      "t": 28711.96034999999,
      "d": 2592.3916499999978,
      "v": 71
    },
    {
      "midi": 62,
      "hit": false,
      "t": 29358.69956666667,
      "d": 619.565300000002,
      "v": 122
    },
    {
      "midi": 64,
      "hit": false,
      "t": 30010.873566666673,
      "d": 619.5652999999984,
      "v": 122
    },
    {
      "midi": 67,
      "hit": false,
      "t": 30663.04756666667,
      "d": 619.5652999999984,
      "v": 122
    },
    {
      "midi": 72,
      "hit": false,
      "t": 30668.482349999987,
      "d": 326.08699999999953,
      "v": 60
    },
    {
      "midi": 64,
      "hit": false,
      "t": 30994.569349999987,
      "d": 309.782650000001,
      "v": 66
    },
    {
      "midi": 55,
      "hit": false,
      "t": 31304.351999999988,
      "d": 1304.3479999999981,
      "v": 17
    },
    {
      "midi": 60,
      "hit": false,
      "t": 31304.351999999988,
      "d": 1304.3479999999981,
      "v": 80
    },
    {
      "midi": 64,
      "hit": false,
      "t": 31304.351999999988,
      "d": 1304.3479999999981,
      "v": 67
    },
    {
      "midi": 67,
      "hit": false,
      "t": 31304.351999999988,
      "d": 1304.3479999999981,
      "v": 71
    },
    {
      "midi": 71,
      "hit": false,
      "t": 31315.22156666667,
      "d": 755.4348833333315,
      "v": 122
    },
    {
      "midi": 67,
      "hit": false,
      "t": 31315.22156666667,
      "d": 1380.434966666664,
      "v": 122
    },
    {
      "midi": 64,
      "hit": false,
      "t": 31315.22156666667,
      "d": 1396.7393166666625,
      "v": 122
    },
    {
      "midi": 50,
      "hit": false,
      "t": 31315.22156666667,
      "d": 1717.3915333333243,
      "v": 122
    },
    {
      "midi": 60,
      "hit": false,
      "t": 31315.22156666667,
      "d": 1733.6958833333229,
      "v": 122
    },
    {
      "midi": 57,
      "hit": false,
      "t": 31467.395499999988,
      "d": 65.21740000000136,
      "v": 24
    },
    {
      "midi": 76,
      "hit": false,
      "t": 31630.438999999988,
      "d": 652.1739999999991,
      "v": 70
    },
    {
      "midi": 79,
      "hit": false,
      "t": 31956.525999999987,
      "d": 326.08699999999953,
      "v": 65
    },
    {
      "midi": 74,
      "hit": false,
      "t": 31967.39556666667,
      "d": 1059.7827499999948,
      "v": 122
    },
    {
      "midi": 88,
      "hit": false,
      "t": 32282.612999999987,
      "d": 282.6087333333344,
      "v": 75
    },
    {
      "midi": 69,
      "hit": false,
      "t": 32619.56956666667,
      "d": 407.6087499999958,
      "v": 122
    },
    {
      "midi": 66,
      "hit": false,
      "t": 32619.56956666667,
      "d": 434.78266666665513,
      "v": 122
    },
    {
      "midi": 50,
      "hit": false,
      "t": 32625.004349999985,
      "d": 1288.043649999996,
      "v": 59
    },
    {
      "midi": 60,
      "hit": false,
      "t": 32744.56958333332,
      "d": 1168.4784166666614,
      "v": 77
    },
    {
      "midi": 66,
      "hit": false,
      "t": 32869.56959999999,
      "d": 1043.4783999999927,
      "v": 57
    },
    {
      "midi": 62,
      "hit": false,
      "t": 32945.656566666665,
      "d": 309.78264999999374,
      "v": 122
    },
    {
      "midi": 69,
      "hit": false,
      "t": 32983.700049999985,
      "d": 929.3479499999958,
      "v": 51
    },
    {
      "midi": 74,
      "hit": false,
      "t": 33076.09136666665,
      "d": 836.9566333333278,
      "v": 52
    },
    {
      "midi": 81,
      "hit": false,
      "t": 33190.22181666665,
      "d": 722.8261833333308,
      "v": 57
    },
    {
      "midi": 64,
      "hit": false,
      "t": 33271.74356666666,
      "d": 309.782650000001,
      "v": 122
    },
    {
      "midi": 65,
      "hit": false,
      "t": 33597.83056666666,
      "d": 407.6087499999994,
      "v": 122
    },
    {
      "midi": 55,
      "hit": false,
      "t": 33913.04799999998,
      "d": 652.1739999999991,
      "v": 17
    },
    {
      "midi": 58,
      "hit": false,
      "t": 33913.04799999998,
      "d": 652.1739999999991,
      "v": 80
    },
    {
      "midi": 61,
      "hit": false,
      "t": 33913.04799999998,
      "d": 652.1739999999991,
      "v": 67
    },
    {
      "midi": 64,
      "hit": false,
      "t": 33913.04799999998,
      "d": 652.1739999999991,
      "v": 71
    },
    {
      "midi": 58,
      "hit": false,
      "t": 33923.917566666656,
      "d": 619.565300000002,
      "v": 122
    },
    {
      "midi": 61,
      "hit": false,
      "t": 33923.917566666656,
      "d": 619.565300000002,
      "v": 122
    },
    {
      "midi": 69,
      "hit": false,
      "t": 33923.917566666656,
      "d": 619.565300000002,
      "v": 122
    },
    {
      "midi": 52,
      "hit": false,
      "t": 33923.917566666656,
      "d": 755.4348833333352,
      "v": 122
    },
    {
      "midi": 43,
      "hit": false,
      "t": 33923.917566666656,
      "d": 1244.5653833333345,
      "v": 122
    },
    {
      "midi": 57,
      "hit": false,
      "t": 34076.09149999998,
      "d": 65.21740000000136,
      "v": 24
    },
    {
      "midi": 73,
      "hit": false,
      "t": 34239.13499999998,
      "d": 326.08699999999953,
      "v": 70
    },
    {
      "midi": 53,
      "hit": false,
      "t": 34576.091566666655,
      "d": 619.565300000002,
      "v": 122
    },
    {
      "midi": 59,
      "hit": false,
      "t": 34576.091566666655,
      "d": 619.565300000002,
      "v": 122
    },
    {
      "midi": 62,
      "hit": false,
      "t": 34576.091566666655,
      "d": 619.565300000002,
      "v": 122
    },
    {
      "midi": 69,
      "hit": false,
      "t": 34576.091566666655,
      "d": 728.2609666666685,
      "v": 122
    },
    {
      "midi": 43,
      "hit": false,
      "t": 34581.52634999998,
      "d": 635.8696499999933,
      "v": 59
    },
    {
      "midi": 59,
      "hit": false,
      "t": 34701.09158333331,
      "d": 516.3044166666587,
      "v": 77
    },
    {
      "midi": 65,
      "hit": false,
      "t": 34826.09159999998,
      "d": 391.3043999999936,
      "v": 57
    },
    {
      "midi": 69,
      "hit": false,
      "t": 34940.222049999975,
      "d": 277.1739499999967,
      "v": 51
    },
    {
      "midi": 74,
      "hit": false,
      "t": 35032.61336666664,
      "d": 184.7826333333287,
      "v": 52
    },
    {
      "midi": 81,
      "hit": false,
      "t": 35146.74381666664,
      "d": 70.65218333333178,
      "v": 57
    },
    {
      "midi": 55,
      "hit": false,
      "t": 35217.39599999997,
      "d": 1304.3479999999981,
      "v": 17
    },
    {
      "midi": 59,
      "hit": false,
      "t": 35217.39599999997,
      "d": 1304.3479999999981,
      "v": 80
    },
    {
      "midi": 63,
      "hit": false,
      "t": 35217.39599999997,
      "d": 1304.3479999999981,
      "v": 67
    },
    {
      "midi": 65,
      "hit": false,
      "t": 35217.39599999997,
      "d": 1304.3479999999981,
      "v": 71
    },
    {
      "midi": 43,
      "hit": false,
      "t": 35228.265566666654,
      "d": 1298.9132166666677,
      "v": 122
    },
    {
      "midi": 53,
      "hit": false,
      "t": 35228.265566666654,
      "d": 1298.9132166666677,
      "v": 122
    },
    {
      "midi": 59,
      "hit": false,
      "t": 35228.265566666654,
      "d": 1298.9132166666677,
      "v": 122
    },
    {
      "midi": 63,
      "hit": false,
      "t": 35228.265566666654,
      "d": 1298.9132166666677,
      "v": 122
    },
    {
      "midi": 31,
      "hit": false,
      "t": 35228.265566666654,
      "d": 1353.261050000001,
      "v": 122
    },
    {
      "midi": 57,
      "hit": false,
      "t": 35282.61339999999,
      "d": 570.6522499999992,
      "v": 122
    },
    {
      "midi": 57,
      "hit": false,
      "t": 35380.43949999997,
      "d": 65.21740000000136,
      "v": 24
    },
    {
      "midi": 75,
      "hit": false,
      "t": 35543.48299999997,
      "d": 652.1739999999991,
      "v": 70
    },
    {
      "midi": 79,
      "hit": false,
      "t": 35869.56999999997,
      "d": 326.08699999999953,
      "v": 65
    },
    {
      "midi": 56,
      "hit": false,
      "t": 35880.43956666665,
      "d": 619.565300000002,
      "v": 122
    },
    {
      "midi": 87,
      "hit": false,
      "t": 36195.65699999997,
      "d": 282.6087333333344,
      "v": 75
    },
    {
      "midi": 55,
      "hit": false,
      "t": 36521.74399999997,
      "d": 1304.3479999999981,
      "v": 25
    },
    {
      "midi": 60,
      "hit": false,
      "t": 36521.74399999997,
      "d": 1304.3479999999981,
      "v": 88
    },
    {
      "midi": 64,
      "hit": false,
      "t": 36521.74399999997,
      "d": 1304.3479999999981,
      "v": 75
    },
    {
      "midi": 67,
      "hit": false,
      "t": 36521.74399999997,
      "d": 1304.3479999999981,
      "v": 79
    },
    {
      "midi": 55,
      "hit": false,
      "t": 36532.61356666665,
      "d": 766.3044500000033,
      "v": 122
    },
    {
      "midi": 52,
      "hit": false,
      "t": 36532.61356666665,
      "d": 782.6088000000018,
      "v": 122
    },
    {
      "midi": 48,
      "hit": false,
      "t": 36532.61356666665,
      "d": 1423.9132333333328,
      "v": 122
    },
    {
      "midi": 36,
      "hit": false,
      "t": 36532.61356666665,
      "d": 1440.2175833333313,
      "v": 122
    },
    {
      "midi": 57,
      "hit": false,
      "t": 36684.78749999997,
      "d": 65.21740000000136,
      "v": 32
    },
    {
      "midi": 76,
      "hit": false,
      "t": 36847.83099999997,
      "d": 652.1739999999991,
      "v": 78
    },
    {
      "midi": 79,
      "hit": false,
      "t": 37173.91799999997,
      "d": 326.08699999999953,
      "v": 73
    },
    {
      "midi": 64,
      "hit": false,
      "t": 37184.78756666666,
      "d": 728.2609666666613,
      "v": 122
    },
    {
      "midi": 67,
      "hit": false,
      "t": 37184.78756666666,
      "d": 739.1305333333294,
      "v": 122
    },
    {
      "midi": 88,
      "hit": false,
      "t": 37500.00499999997,
      "d": 282.6087333333344,
      "v": 83
    },
    {
      "midi": 61,
      "hit": false,
      "t": 37836.96156666665,
      "d": 619.565300000002,
      "v": 122
    },
    {
      "midi": 65,
      "hit": false,
      "t": 37836.96156666665,
      "d": 755.4348833333352,
      "v": 122
    },
    {
      "midi": 57,
      "hit": false,
      "t": 37836.96156666665,
      "d": 766.3044500000033,
      "v": 122
    },
    {
      "midi": 45,
      "hit": false,
      "t": 37836.96156666665,
      "d": 1326.0871333333344,
      "v": 122
    },
    {
      "midi": 45,
      "hit": false,
      "t": 37842.396349999966,
      "d": 1288.0436499999923,
      "v": 67
    },
    {
      "midi": 55,
      "hit": false,
      "t": 37961.9615833333,
      "d": 1168.4784166666577,
      "v": 85
    },
    {
      "midi": 61,
      "hit": false,
      "t": 38086.961599999966,
      "d": 1043.4783999999927,
      "v": 65
    },
    {
      "midi": 64,
      "hit": false,
      "t": 38201.09204999996,
      "d": 929.3479499999958,
      "v": 59
    },
    {
      "midi": 69,
      "hit": false,
      "t": 38293.48336666663,
      "d": 836.9566333333278,
      "v": 60
    },
    {
      "midi": 76,
      "hit": false,
      "t": 38407.61381666663,
      "d": 722.8261833333308,
      "v": 65
    },
    {
      "midi": 61,
      "hit": false,
      "t": 38489.13556666665,
      "d": 619.565300000002,
      "v": 122
    },
    {
      "midi": 55,
      "hit": false,
      "t": 38489.13556666665,
      "d": 739.1305333333366,
      "v": 122
    },
    {
      "midi": 64,
      "hit": false,
      "t": 38489.13556666665,
      "d": 766.3044500000033,
      "v": 122
    },
    {
      "midi": 62,
      "hit": false,
      "t": 39130.43999999996,
      "d": 619.565300000002,
      "v": 73
    },
    {
      "midi": 57,
      "hit": false,
      "t": 39130.43999999996,
      "d": 663.0435666666672,
      "v": 56
    },
    {
      "midi": 65,
      "hit": false,
      "t": 39130.43999999996,
      "d": 673.9131333333353,
      "v": 69
    },
    {
      "midi": 69,
      "hit": false,
      "t": 39130.43999999996,
      "d": 673.9131333333353,
      "v": 64
    },
    {
      "midi": 61,
      "hit": false,
      "t": 39141.30956666665,
      "d": 728.2609666666758,
      "v": 122
    },
    {
      "midi": 50,
      "hit": false,
      "t": 39141.30956666665,
      "d": 1413.0436666666792,
      "v": 122
    },
    {
      "midi": 53,
      "hit": false,
      "t": 39141.30956666665,
      "d": 1413.0436666666792,
      "v": 122
    },
    {
      "midi": 57,
      "hit": false,
      "t": 39141.30956666665,
      "d": 1413.0436666666792,
      "v": 122
    },
    {
      "midi": 62,
      "hit": false,
      "t": 39793.483566666655,
      "d": 766.3044500000033,
      "v": 122
    },
    {
      "midi": 57,
      "hit": false,
      "t": 40108.70099999996,
      "d": 326.08699999999953,
      "v": 54
    },
    {
      "midi": 62,
      "hit": false,
      "t": 40108.70099999996,
      "d": 326.08699999999953,
      "v": 88
    },
    {
      "midi": 65,
      "hit": false,
      "t": 40108.70099999996,
      "d": 326.08699999999953,
      "v": 70
    },
    {
      "midi": 69,
      "hit": false,
      "t": 40108.70099999996,
      "d": 326.08699999999953,
      "v": 71
    },
    {
      "midi": 57,
      "hit": false,
      "t": 40434.78799999996,
      "d": 1304.3479999999981,
      "v": 25
    },
    {
      "midi": 60,
      "hit": false,
      "t": 40434.78799999996,
      "d": 1304.3479999999981,
      "v": 88
    },
    {
      "midi": 62,
      "hit": false,
      "t": 40434.78799999996,
      "d": 1304.3479999999981,
      "v": 75
    },
    {
      "midi": 65,
      "hit": false,
      "t": 40434.78799999996,
      "d": 1304.3479999999981,
      "v": 79
    },
    {
      "midi": 38,
      "hit": false,
      "t": 40445.65756666666,
      "d": 619.5652999999947,
      "v": 122
    },
    {
      "midi": 60,
      "hit": false,
      "t": 40445.65756666666,
      "d": 1413.0436666666574,
      "v": 122
    },
    {
      "midi": 65,
      "hit": false,
      "t": 40445.65756666666,
      "d": 1413.0436666666574,
      "v": 122
    },
    {
      "midi": 69,
      "hit": false,
      "t": 40445.65756666666,
      "d": 1423.9132333333255,
      "v": 122
    },
    {
      "midi": 59,
      "hit": false,
      "t": 40597.83149999996,
      "d": 65.21740000000136,
      "v": 32
    },
    {
      "midi": 74,
      "hit": false,
      "t": 40760.874999999956,
      "d": 652.1739999999991,
      "v": 78
    },
    {
      "midi": 81,
      "hit": false,
      "t": 41086.961999999956,
      "d": 326.08699999999953,
      "v": 73
    },
    {
      "midi": 50,
      "hit": false,
      "t": 41097.83156666665,
      "d": 755.4348833333352,
      "v": 122
    },
    {
      "midi": 86,
      "hit": false,
      "t": 41413.048999999955,
      "d": 282.6087333333344,
      "v": 83
    },
    {
      "midi": 65,
      "hit": false,
      "t": 41750.00556666662,
      "d": 2597.826433333328,
      "v": 72
    },
    {
      "midi": 59,
      "hit": false,
      "t": 41750.00556666665,
      "d": 157.60871666666935,
      "v": 122
    },
    {
      "midi": 53,
      "hit": false,
      "t": 41750.00556666665,
      "d": 782.6088000000091,
      "v": 122
    },
    {
      "midi": 43,
      "hit": false,
      "t": 41750.00556666665,
      "d": 2739.1308000000063,
      "v": 122
    },
    {
      "midi": 62,
      "hit": false,
      "t": 41760.87513333329,
      "d": 2586.95686666666,
      "v": 69
    },
    {
      "midi": 55,
      "hit": false,
      "t": 41766.30991666662,
      "d": 2581.5220833333296,
      "v": 56
    },
    {
      "midi": 59,
      "hit": false,
      "t": 41777.17948333329,
      "d": 2570.6525166666615,
      "v": 81
    },
    {
      "midi": 59,
      "hit": false,
      "t": 41918.48384999999,
      "d": 1228.261033333336,
      "v": 122
    },
    {
      "midi": 55,
      "hit": false,
      "t": 42402.17956666666,
      "d": 755.4348833333352,
      "v": 122
    },
    {
      "midi": 71,
      "hit": false,
      "t": 42402.17956666666,
      "d": 766.3044500000033,
      "v": 122
    },
    {
      "midi": 67,
      "hit": false,
      "t": 42402.17956666666,
      "d": 793.4783666666699,
      "v": 122
    },
    {
      "midi": 65,
      "hit": false,
      "t": 43054.35356666666,
      "d": 619.565300000002,
      "v": 122
    },
    {
      "midi": 69,
      "hit": false,
      "t": 43054.35356666666,
      "d": 728.2609666666685,
      "v": 122
    },
    {
      "midi": 57,
      "hit": false,
      "t": 43054.35356666666,
      "d": 755.4348833333352,
      "v": 122
    },
    {
      "midi": 60,
      "hit": false,
      "t": 43054.35356666666,
      "d": 755.4348833333352,
      "v": 122
    },
    {
      "midi": 67,
      "hit": false,
      "t": 43375.00578333329,
      "d": 972.8262166666609,
      "v": 63
    },
    {
      "midi": 62,
      "hit": false,
      "t": 43706.52756666666,
      "d": 619.565300000002,
      "v": 122
    },
    {
      "midi": 65,
      "hit": false,
      "t": 43706.52756666666,
      "d": 619.565300000002,
      "v": 122
    },
    {
      "midi": 67,
      "hit": false,
      "t": 43706.52756666666,
      "d": 728.2609666666685,
      "v": 122
    },
    {
      "midi": 59,
      "hit": false,
      "t": 43706.52756666666,
      "d": 766.3044500000033,
      "v": 122
    },
    {
      "midi": 74,
      "hit": false,
      "t": 43722.831916666626,
      "d": 625.0000833333252,
      "v": 74
    },
    {
      "midi": 79,
      "hit": false,
      "t": 44038.04934999996,
      "d": 309.78264999999374,
      "v": 76
    },
    {
      "midi": 63,
      "hit": false,
      "t": 44358.701566666656,
      "d": 766.304449999996,
      "v": 122
    },
    {
      "midi": 66,
      "hit": false,
      "t": 44358.701566666656,
      "d": 793.4783666666626,
      "v": 122
    },
    {
      "midi": 60,
      "hit": false,
      "t": 44358.701566666656,
      "d": 1413.0436666666574,
      "v": 122
    },
    {
      "midi": 48,
      "hit": false,
      "t": 44358.701566666656,
      "d": 1440.217583333324,
      "v": 122
    },
    {
      "midi": 48,
      "hit": false,
      "t": 44364.13634999995,
      "d": 635.8696499999933,
      "v": 67
    },
    {
      "midi": 57,
      "hit": false,
      "t": 44483.701583333284,
      "d": 516.3044166666587,
      "v": 85
    },
    {
      "midi": 63,
      "hit": false,
      "t": 44608.70159999995,
      "d": 391.3043999999936,
      "v": 65
    },
    {
      "midi": 66,
      "hit": false,
      "t": 44722.832049999946,
      "d": 277.1739499999967,
      "v": 59
    },
    {
      "midi": 72,
      "hit": false,
      "t": 44815.223366666614,
      "d": 184.7826333333287,
      "v": 60
    },
    {
      "midi": 78,
      "hit": false,
      "t": 44929.35381666661,
      "d": 70.65218333333178,
      "v": 65
    },
    {
      "midi": 64,
      "hit": false,
      "t": 45010.875566666655,
      "d": 619.5652999999947,
      "v": 122
    },
    {
      "midi": 67,
      "hit": false,
      "t": 45010.875566666655,
      "d": 782.6087999999945,
      "v": 122
    },
    {
      "midi": 48,
      "hit": false,
      "t": 45016.31034999994,
      "d": 635.8696499999933,
      "v": 67
    },
    {
      "midi": 55,
      "hit": false,
      "t": 45135.875583333276,
      "d": 516.3044166666587,
      "v": 85
    },
    {
      "midi": 64,
      "hit": false,
      "t": 45260.87559999994,
      "d": 391.3043999999936,
      "v": 65
    },
    {
      "midi": 67,
      "hit": false,
      "t": 45375.00604999994,
      "d": 277.1739499999967,
      "v": 59
    },
    {
      "midi": 72,
      "hit": false,
      "t": 45467.397366666606,
      "d": 184.7826333333287,
      "v": 60
    },
    {
      "midi": 79,
      "hit": false,
      "t": 45581.5278166666,
      "d": 70.65218333333178,
      "v": 65
    },
    {
      "midi": 55,
      "hit": false,
      "t": 45652.179999999935,
      "d": 1304.3479999999981,
      "v": 25
    },
    {
      "midi": 60,
      "hit": false,
      "t": 45652.179999999935,
      "d": 1304.3479999999981,
      "v": 88
    },
    {
      "midi": 64,
      "hit": false,
      "t": 45652.179999999935,
      "d": 1304.3479999999981,
      "v": 75
    },
    {
      "midi": 67,
      "hit": false,
      "t": 45652.179999999935,
      "d": 1304.3479999999981,
      "v": 79
    },
    {
      "midi": 43,
      "hit": false,
      "t": 45663.04956666665,
      "d": 782.6088000000018,
      "v": 122
    },
    {
      "midi": 69,
      "hit": false,
      "t": 45663.04956666665,
      "d": 1282.6088666666692,
      "v": 122
    },
    {
      "midi": 64,
      "hit": false,
      "t": 45663.04956666665,
      "d": 1298.9132166666677,
      "v": 122
    },
    {
      "midi": 72,
      "hit": false,
      "t": 45663.04956666665,
      "d": 1298.9132166666677,
      "v": 122
    },
    {
      "midi": 57,
      "hit": false,
      "t": 45815.223499999935,
      "d": 65.21740000000136,
      "v": 32
    },
    {
      "midi": 76,
      "hit": false,
      "t": 45978.266999999934,
      "d": 652.1739999999991,
      "v": 78
    },
    {
      "midi": 79,
      "hit": false,
      "t": 46304.353999999934,
      "d": 326.08699999999953,
      "v": 73
    },
    {
      "midi": 55,
      "hit": false,
      "t": 46315.223566666646,
      "d": 619.565300000002,
      "v": 122
    },
    {
      "midi": 88,
      "hit": false,
      "t": 46630.44099999993,
      "d": 282.6087333333344,
      "v": 83
    },
    {
      "midi": 60,
      "hit": false,
      "t": 46956.52799999993,
      "d": 619.565300000002,
      "v": 73
    },
    {
      "midi": 55,
      "hit": false,
      "t": 46956.52799999993,
      "d": 663.0435666666672,
      "v": 56
    },
    {
      "midi": 64,
      "hit": false,
      "t": 46956.52799999993,
      "d": 673.9131333333353,
      "v": 69
    },
    {
      "midi": 67,
      "hit": false,
      "t": 46956.52799999993,
      "d": 673.9131333333353,
      "v": 64
    },
    {
      "midi": 74,
      "hit": false,
      "t": 46967.397566666645,
      "d": 782.6088000000018,
      "v": 122
    },
    {
      "midi": 52,
      "hit": false,
      "t": 46967.397566666645,
      "d": 1244.5653833333345,
      "v": 122
    },
    {
      "midi": 60,
      "hit": false,
      "t": 46967.397566666645,
      "d": 1244.5653833333345,
      "v": 122
    },
    {
      "midi": 67,
      "hit": false,
      "t": 46967.397566666645,
      "d": 1396.7393166666661,
      "v": 122
    },
    {
      "midi": 72,
      "hit": false,
      "t": 47619.571566666644,
      "d": 755.4348833333352,
      "v": 122
    },
    {
      "midi": 55,
      "hit": false,
      "t": 47934.78899999993,
      "d": 326.08699999999953,
      "v": 54
    },
    {
      "midi": 60,
      "hit": false,
      "t": 47934.78899999993,
      "d": 326.08699999999953,
      "v": 88
    },
    {
      "midi": 64,
      "hit": false,
      "t": 47934.78899999993,
      "d": 326.08699999999953,
      "v": 70
    },
    {
      "midi": 67,
      "hit": false,
      "t": 47934.78899999993,
      "d": 326.08699999999953,
      "v": 71
    },
    {
      "midi": 51,
      "hit": false,
      "t": 48260.87599999993,
      "d": 1304.3479999999981,
      "v": 25
    },
    {
      "midi": 54,
      "hit": false,
      "t": 48260.87599999993,
      "d": 1304.3479999999981,
      "v": 88
    },
    {
      "midi": 57,
      "hit": false,
      "t": 48260.87599999993,
      "d": 1304.3479999999981,
      "v": 75
    },
    {
      "midi": 60,
      "hit": false,
      "t": 48260.87599999993,
      "d": 1304.3479999999981,
      "v": 79
    },
    {
      "midi": 71,
      "hit": false,
      "t": 48271.74556666664,
      "d": 782.6088000000091,
      "v": 122
    },
    {
      "midi": 66,
      "hit": false,
      "t": 48271.74556666664,
      "d": 1353.2610500000083,
      "v": 122
    },
    {
      "midi": 60,
      "hit": false,
      "t": 48271.74556666664,
      "d": 1423.91323333334,
      "v": 122
    },
    {
      "midi": 51,
      "hit": false,
      "t": 48271.74556666664,
      "d": 1440.2175833333386,
      "v": 122
    },
    {
      "midi": 53,
      "hit": false,
      "t": 48423.91949999993,
      "d": 65.21740000000136,
      "v": 32
    },
    {
      "midi": 69,
      "hit": false,
      "t": 48586.96299999993,
      "d": 652.1739999999991,
      "v": 78
    },
    {
      "midi": 75,
      "hit": false,
      "t": 48913.04999999993,
      "d": 326.08699999999953,
      "v": 73
    },
    {
      "midi": 69,
      "hit": false,
      "t": 48923.91956666665,
      "d": 809.7827166666684,
      "v": 122
    },
    {
      "midi": 81,
      "hit": false,
      "t": 49239.13699999993,
      "d": 282.6087333333344,
      "v": 83
    },
    {
      "midi": 62,
      "hit": false,
      "t": 49565.22399999993,
      "d": 1233.6958166666664,
      "v": 74
    },
    {
      "midi": 57,
      "hit": false,
      "t": 49565.22399999993,
      "d": 1298.9132166666677,
      "v": 53
    },
    {
      "midi": 65,
      "hit": false,
      "t": 49565.22399999993,
      "d": 1304.3479999999981,
      "v": 61
    },
    {
      "midi": 69,
      "hit": false,
      "t": 49565.22399999993,
      "d": 1353.261050000001,
      "v": 60
    },
    {
      "midi": 74,
      "hit": false,
      "t": 49565.22399999993,
      "d": 1500.0002000000022,
      "v": 73
    },
    {
      "midi": 81,
      "hit": false,
      "t": 49565.22399999993,
      "d": 1548.913250000005,
      "v": 67
    },
    {
      "midi": 50,
      "hit": false,
      "t": 49576.09356666665,
      "d": 766.304449999996,
      "v": 122
    },
    {
      "midi": 64,
      "hit": false,
      "t": 49576.09356666665,
      "d": 766.304449999996,
      "v": 122
    },
    {
      "midi": 67,
      "hit": false,
      "t": 49576.09356666665,
      "d": 766.304449999996,
      "v": 122
    },
    {
      "midi": 57,
      "hit": false,
      "t": 49576.09356666665,
      "d": 1201.087116666662,
      "v": 122
    },
    {
      "midi": 62,
      "hit": false,
      "t": 50228.26756666665,
      "d": 755.4348833333352,
      "v": 122
    },
    {
      "midi": 65,
      "hit": false,
      "t": 50228.26756666665,
      "d": 755.4348833333352,
      "v": 122
    },
    {
      "midi": 38,
      "hit": false,
      "t": 50228.26756666665,
      "d": 766.3044500000033,
      "v": 122
    },
    {
      "midi": 60,
      "hit": false,
      "t": 50880.44156666665,
      "d": 728.2609666666758,
      "v": 122
    },
    {
      "midi": 40,
      "hit": false,
      "t": 50880.44156666665,
      "d": 766.3044500000105,
      "v": 122
    },
    {
      "midi": 64,
      "hit": false,
      "t": 50880.44156666665,
      "d": 766.3044500000105,
      "v": 122
    },
    {
      "midi": 57,
      "hit": false,
      "t": 50880.44156666665,
      "d": 1608.695866666676,
      "v": 122
    },
    {
      "midi": 57,
      "hit": false,
      "t": 51195.658999999934,
      "d": 978.2609999999986,
      "v": 77
    },
    {
      "midi": 62,
      "hit": false,
      "t": 51358.702499999934,
      "d": 815.2174999999988,
      "v": 57
    },
    {
      "midi": 65,
      "hit": false,
      "t": 51521.745999999934,
      "d": 652.1739999999991,
      "v": 84
    },
    {
      "midi": 62,
      "hit": false,
      "t": 51532.61556666665,
      "d": 739.1305333333366,
      "v": 122
    },
    {
      "midi": 41,
      "hit": false,
      "t": 51532.61556666665,
      "d": 826.0870666666669,
      "v": 122
    },
    {
      "midi": 69,
      "hit": false,
      "t": 51684.78949999993,
      "d": 489.1304999999993,
      "v": 87
    },
    {
      "midi": 74,
      "hit": false,
      "t": 52010.87649999993,
      "d": 163.04349999999977,
      "v": 93
    },
    {
      "midi": 60,
      "hit": false,
      "t": 52173.91999999993,
      "d": 619.565300000002,
      "v": 73
    },
    {
      "midi": 57,
      "hit": false,
      "t": 52173.91999999993,
      "d": 663.0435666666672,
      "v": 56
    },
    {
      "midi": 65,
      "hit": false,
      "t": 52173.91999999993,
      "d": 673.9131333333353,
      "v": 69
    },
    {
      "midi": 69,
      "hit": false,
      "t": 52173.91999999993,
      "d": 673.9131333333353,
      "v": 64
    },
    {
      "midi": 60,
      "hit": false,
      "t": 52184.78956666666,
      "d": 619.5652999999947,
      "v": 122
    },
    {
      "midi": 65,
      "hit": false,
      "t": 52184.78956666666,
      "d": 619.5652999999947,
      "v": 122
    },
    {
      "midi": 31,
      "hit": false,
      "t": 52184.78956666666,
      "d": 1228.2610333333287,
      "v": 122
    },
    {
      "midi": 43,
      "hit": false,
      "t": 52184.78956666666,
      "d": 1228.2610333333287,
      "v": 122
    },
    {
      "midi": 69,
      "hit": false,
      "t": 52184.78956666666,
      "d": 1413.0436666666646,
      "v": 122
    },
    {
      "midi": 60,
      "hit": false,
      "t": 52836.96356666665,
      "d": 739.1305333333366,
      "v": 122
    },
    {
      "midi": 65,
      "hit": false,
      "t": 52836.96356666665,
      "d": 739.1305333333366,
      "v": 122
    },
    {
      "midi": 57,
      "hit": false,
      "t": 53152.18099999993,
      "d": 326.08699999999953,
      "v": 54
    },
    {
      "midi": 60,
      "hit": false,
      "t": 53152.18099999993,
      "d": 326.08699999999953,
      "v": 88
    },
    {
      "midi": 65,
      "hit": false,
      "t": 53152.18099999993,
      "d": 326.08699999999953,
      "v": 70
    },
    {
      "midi": 69,
      "hit": false,
      "t": 53152.18099999993,
      "d": 326.08699999999953,
      "v": 71
    },
    {
      "midi": 59,
      "hit": false,
      "t": 53489.13756666666,
      "d": 1298.9132166666677,
      "v": 122
    },
    {
      "midi": 53,
      "hit": false,
      "t": 53489.13756666666,
      "d": 1396.7393166666661,
      "v": 122
    },
    {
      "midi": 43,
      "hit": false,
      "t": 53489.13756666666,
      "d": 1423.9132333333328,
      "v": 122
    },
    {
      "midi": 31,
      "hit": false,
      "t": 53489.13756666666,
      "d": 1451.0871499999994,
      "v": 122
    },
    {
      "midi": 43,
      "hit": false,
      "t": 53494.57234999993,
      "d": 1288.0436499999923,
      "v": 67
    },
    {
      "midi": 57,
      "hit": false,
      "t": 53543.48539999999,
      "d": 570.6522499999992,
      "v": 122
    },
    {
      "midi": 59,
      "hit": false,
      "t": 53614.137583333264,
      "d": 1168.4784166666577,
      "v": 85
    },
    {
      "midi": 65,
      "hit": false,
      "t": 53739.13759999993,
      "d": 1043.4783999999927,
      "v": 65
    },
    {
      "midi": 67,
      "hit": false,
      "t": 53853.268049999926,
      "d": 929.3479499999958,
      "v": 59
    },
    {
      "midi": 74,
      "hit": false,
      "t": 53945.659366666594,
      "d": 836.9566333333278,
      "v": 60
    },
    {
      "midi": 79,
      "hit": false,
      "t": 54059.78981666659,
      "d": 722.8261833333308,
      "v": 65
    },
    {
      "midi": 56,
      "hit": false,
      "t": 54141.311566666656,
      "d": 782.6088000000018,
      "v": 122
    },
    {
      "midi": 60,
      "hit": false,
      "t": 54782.61599999992,
      "d": 619.565300000002,
      "v": 73
    },
    {
      "midi": 55,
      "hit": false,
      "t": 54782.61599999992,
      "d": 663.0435666666672,
      "v": 56
    },
    {
      "midi": 64,
      "hit": false,
      "t": 54782.61599999992,
      "d": 673.9131333333353,
      "v": 69
    },
    {
      "midi": 67,
      "hit": false,
      "t": 54782.61599999992,
      "d": 673.9131333333353,
      "v": 64
    },
    {
      "midi": 36,
      "hit": false,
      "t": 54793.485566666655,
      "d": 445.65223333333415,
      "v": 122
    },
    {
      "midi": 67,
      "hit": false,
      "t": 54793.485566666655,
      "d": 570.6522499999992,
      "v": 122
    },
    {
      "midi": 64,
      "hit": false,
      "t": 54793.485566666655,
      "d": 1228.2610333333287,
      "v": 122
    },
    {
      "midi": 59,
      "hit": false,
      "t": 54793.485566666655,
      "d": 1369.5653999999995,
      "v": 122
    },
    {
      "midi": 55,
      "hit": false,
      "t": 54793.485566666655,
      "d": 1451.0871499999994,
      "v": 122
    },
    {
      "midi": 43,
      "hit": false,
      "t": 55119.572566666655,
      "d": 434.78266666666605,
      "v": 122
    },
    {
      "midi": 52,
      "hit": false,
      "t": 55445.659566666654,
      "d": 739.1305333333366,
      "v": 122
    },
    {
      "midi": 67,
      "hit": false,
      "t": 55445.659566666654,
      "d": 782.6088000000018,
      "v": 122
    },
    {
      "midi": 55,
      "hit": false,
      "t": 55760.87699999992,
      "d": 326.08699999999953,
      "v": 54
    },
    {
      "midi": 60,
      "hit": false,
      "t": 55760.87699999992,
      "d": 326.08699999999953,
      "v": 88
    },
    {
      "midi": 64,
      "hit": false,
      "t": 55760.87699999992,
      "d": 326.08699999999953,
      "v": 70
    },
    {
      "midi": 67,
      "hit": false,
      "t": 55760.87699999992,
      "d": 326.08699999999953,
      "v": 71
    },
    {
      "midi": 59,
      "hit": false,
      "t": 56086.96399999992,
      "d": 619.565300000002,
      "v": 73
    },
    {
      "midi": 55,
      "hit": false,
      "t": 56086.96399999992,
      "d": 663.0435666666672,
      "v": 56
    },
    {
      "midi": 62,
      "hit": false,
      "t": 56086.96399999992,
      "d": 673.9131333333353,
      "v": 69
    },
    {
      "midi": 65,
      "hit": false,
      "t": 56086.96399999992,
      "d": 673.9131333333353,
      "v": 64
    },
    {
      "midi": 57,
      "hit": false,
      "t": 56097.83356666665,
      "d": 755.4348833333352,
      "v": 122
    },
    {
      "midi": 64,
      "hit": false,
      "t": 56097.83356666665,
      "d": 766.3044500000033,
      "v": 122
    },
    {
      "midi": 43,
      "hit": false,
      "t": 56097.83356666665,
      "d": 1298.9132166666677,
      "v": 122
    },
    {
      "midi": 53,
      "hit": false,
      "t": 56097.83356666665,
      "d": 1342.3914833333329,
      "v": 122
    },
    {
      "midi": 59,
      "hit": false,
      "t": 56750.00756666665,
      "d": 3097.826500000003,
      "v": 122
    },
    {
      "midi": 62,
      "hit": false,
      "t": 56750.00756666665,
      "d": 3097.826500000003,
      "v": 122
    },
    {
      "midi": 55,
      "hit": false,
      "t": 57065.22499999992,
      "d": 326.08699999999953,
      "v": 54
    },
    {
      "midi": 59,
      "hit": false,
      "t": 57065.22499999992,
      "d": 326.08699999999953,
      "v": 88
    },
    {
      "midi": 62,
      "hit": false,
      "t": 57065.22499999992,
      "d": 326.08699999999953,
      "v": 70
    },
    {
      "midi": 65,
      "hit": false,
      "t": 57065.22499999992,
      "d": 326.08699999999953,
      "v": 71
    },
    {
      "midi": 55,
      "hit": false,
      "t": 57391.31199999992,
      "d": 1304.3479999999981,
      "v": 25
    },
    {
      "midi": 60,
      "hit": false,
      "t": 57391.31199999992,
      "d": 1304.3479999999981,
      "v": 88
    },
    {
      "midi": 64,
      "hit": false,
      "t": 57391.31199999992,
      "d": 1304.3479999999981,
      "v": 75
    },
    {
      "midi": 67,
      "hit": false,
      "t": 57391.31199999992,
      "d": 1304.3479999999981,
      "v": 79
    },
    {
      "midi": 55,
      "hit": false,
      "t": 57402.18156666665,
      "d": 766.304449999996,
      "v": 122
    },
    {
      "midi": 52,
      "hit": false,
      "t": 57402.18156666665,
      "d": 782.6087999999945,
      "v": 122
    },
    {
      "midi": 48,
      "hit": false,
      "t": 57402.18156666665,
      "d": 1423.9132333333328,
      "v": 122
    },
    {
      "midi": 36,
      "hit": false,
      "t": 57402.18156666665,
      "d": 1440.2175833333313,
      "v": 122
    },
    {
      "midi": 57,
      "hit": false,
      "t": 57554.35549999992,
      "d": 65.21740000000136,
      "v": 32
    },
    {
      "midi": 76,
      "hit": false,
      "t": 57717.39899999992,
      "d": 652.1739999999991,
      "v": 78
    },
    {
      "midi": 79,
      "hit": false,
      "t": 58043.48599999992,
      "d": 326.08699999999953,
      "v": 73
    },
    {
      "midi": 64,
      "hit": false,
      "t": 58054.35556666665,
      "d": 728.2609666666685,
      "v": 122
    },
    {
      "midi": 67,
      "hit": false,
      "t": 58054.35556666665,
      "d": 739.1305333333366,
      "v": 122
    },
    {
      "midi": 88,
      "hit": false,
      "t": 58369.57299999992,
      "d": 282.6087333333344,
      "v": 83
    },
    {
      "midi": 55,
      "hit": false,
      "t": 58695.659999999916,
      "d": 619.565300000002,
      "v": 73
    },
    {
      "midi": 52,
      "hit": false,
      "t": 58695.659999999916,
      "d": 663.0435666666672,
      "v": 56
    },
    {
      "midi": 57,
      "hit": false,
      "t": 58695.659999999916,
      "d": 673.9131333333353,
      "v": 69
    },
    {
      "midi": 61,
      "hit": false,
      "t": 58695.659999999916,
      "d": 673.9131333333353,
      "v": 64
    },
    {
      "midi": 61,
      "hit": false,
      "t": 58706.52956666665,
      "d": 619.565300000002,
      "v": 122
    },
    {
      "midi": 65,
      "hit": false,
      "t": 58706.52956666665,
      "d": 755.4348833333352,
      "v": 122
    },
    {
      "midi": 57,
      "hit": false,
      "t": 58706.52956666665,
      "d": 766.3044500000033,
      "v": 122
    },
    {
      "midi": 45,
      "hit": false,
      "t": 58706.52956666665,
      "d": 1326.0871333333416,
      "v": 122
    },
    {
      "midi": 61,
      "hit": false,
      "t": 59358.70356666665,
      "d": 619.5653000000093,
      "v": 122
    },
    {
      "midi": 55,
      "hit": false,
      "t": 59358.70356666665,
      "d": 739.1305333333439,
      "v": 122
    },
    {
      "midi": 64,
      "hit": false,
      "t": 59358.70356666665,
      "d": 766.3044500000105,
      "v": 122
    },
    {
      "midi": 52,
      "hit": false,
      "t": 59673.920999999915,
      "d": 326.08699999999953,
      "v": 54
    },
    {
      "midi": 55,
      "hit": false,
      "t": 59673.920999999915,
      "d": 326.08699999999953,
      "v": 88
    },
    {
      "midi": 57,
      "hit": false,
      "t": 59673.920999999915,
      "d": 326.08699999999953,
      "v": 70
    },
    {
      "midi": 61,
      "hit": false,
      "t": 59673.920999999915,
      "d": 326.08699999999953,
      "v": 71
    },
    {
      "midi": 62,
      "hit": false,
      "t": 60000.007999999914,
      "d": 619.565300000002,
      "v": 73
    },
    {
      "midi": 57,
      "hit": false,
      "t": 60000.007999999914,
      "d": 663.0435666666672,
      "v": 56
    },
    {
      "midi": 65,
      "hit": false,
      "t": 60000.007999999914,
      "d": 673.9131333333353,
      "v": 69
    },
    {
      "midi": 69,
      "hit": false,
      "t": 60000.007999999914,
      "d": 673.9131333333353,
      "v": 64
    },
    {
      "midi": 61,
      "hit": false,
      "t": 60010.877566666655,
      "d": 728.2609666666758,
      "v": 122
    },
    {
      "midi": 50,
      "hit": false,
      "t": 60010.877566666655,
      "d": 1413.0436666666792,
      "v": 122
    },
    {
      "midi": 53,
      "hit": false,
      "t": 60010.877566666655,
      "d": 1413.0436666666792,
      "v": 122
    },
    {
      "midi": 57,
      "hit": false,
      "t": 60010.877566666655,
      "d": 1413.0436666666792,
      "v": 122
    },
    {
      "midi": 62,
      "hit": false,
      "t": 60663.05156666666,
      "d": 766.3044500000033,
      "v": 122
    },
    {
      "midi": 57,
      "hit": false,
      "t": 60978.26899999991,
      "d": 326.08699999999953,
      "v": 54
    },
    {
      "midi": 62,
      "hit": false,
      "t": 60978.26899999991,
      "d": 326.08699999999953,
      "v": 88
    },
    {
      "midi": 65,
      "hit": false,
      "t": 60978.26899999991,
      "d": 326.08699999999953,
      "v": 70
    },
    {
      "midi": 69,
      "hit": false,
      "t": 60978.26899999991,
      "d": 326.08699999999953,
      "v": 71
    },
    {
      "midi": 60,
      "hit": false,
      "t": 61304.35599999991,
      "d": 619.565300000002,
      "v": 73
    },
    {
      "midi": 57,
      "hit": false,
      "t": 61304.35599999991,
      "d": 663.0435666666672,
      "v": 56
    },
    {
      "midi": 62,
      "hit": false,
      "t": 61304.35599999991,
      "d": 673.9131333333353,
      "v": 69
    },
    {
      "midi": 65,
      "hit": false,
      "t": 61304.35599999991,
      "d": 673.9131333333353,
      "v": 64
    },
    {
      "midi": 38,
      "hit": false,
      "t": 61315.22556666667,
      "d": 619.5652999999947,
      "v": 122
    },
    {
      "midi": 60,
      "hit": false,
      "t": 61315.22556666667,
      "d": 1413.0436666666574,
      "v": 122
    },
    {
      "midi": 65,
      "hit": false,
      "t": 61315.22556666667,
      "d": 1413.0436666666574,
      "v": 122
    },
    {
      "midi": 69,
      "hit": false,
      "t": 61315.22556666667,
      "d": 1423.9132333333255,
      "v": 122
    },
    {
      "midi": 50,
      "hit": false,
      "t": 61967.39956666666,
      "d": 755.4348833333352,
      "v": 122
    },
    {
      "midi": 57,
      "hit": false,
      "t": 62282.61699999991,
      "d": 326.08699999999953,
      "v": 54
    },
    {
      "midi": 60,
      "hit": false,
      "t": 62282.61699999991,
      "d": 326.08699999999953,
      "v": 88
    },
    {
      "midi": 62,
      "hit": false,
      "t": 62282.61699999991,
      "d": 326.08699999999953,
      "v": 70
    },
    {
      "midi": 65,
      "hit": false,
      "t": 62282.61699999991,
      "d": 326.08699999999953,
      "v": 71
    },
    {
      "midi": 59,
      "hit": false,
      "t": 62608.70399999991,
      "d": 2086.9568,
      "v": 88
    },
    {
      "midi": 55,
      "hit": false,
      "t": 62608.70399999991,
      "d": 2125.0002833333347,
      "v": 25
    },
    {
      "midi": 62,
      "hit": false,
      "t": 62608.70399999991,
      "d": 2125.0002833333347,
      "v": 75
    },
    {
      "midi": 65,
      "hit": false,
      "t": 62608.70399999991,
      "d": 2157.6089833333317,
      "v": 79
    },
    {
      "midi": 59,
      "hit": false,
      "t": 62619.57356666666,
      "d": 157.60871666666935,
      "v": 122
    },
    {
      "midi": 53,
      "hit": false,
      "t": 62619.57356666666,
      "d": 782.6088000000091,
      "v": 122
    },
    {
      "midi": 43,
      "hit": false,
      "t": 62619.57356666666,
      "d": 2739.1308000000136,
      "v": 122
    },
    {
      "midi": 57,
      "hit": false,
      "t": 62771.74749999991,
      "d": 65.21740000000136,
      "v": 32
    },
    {
      "midi": 59,
      "hit": false,
      "t": 62788.051849999996,
      "d": 1228.2610333333432,
      "v": 122
    },
    {
      "midi": 74,
      "hit": false,
      "t": 62934.79099999991,
      "d": 652.1739999999991,
      "v": 78
    },
    {
      "midi": 79,
      "hit": false,
      "t": 63260.87799999991,
      "d": 326.08699999999953,
      "v": 73
    },
    {
      "midi": 55,
      "hit": false,
      "t": 63271.747566666665,
      "d": 755.4348833333424,
      "v": 122
    },
    {
      "midi": 71,
      "hit": false,
      "t": 63271.747566666665,
      "d": 766.3044500000105,
      "v": 122
    },
    {
      "midi": 67,
      "hit": false,
      "t": 63271.747566666665,
      "d": 793.4783666666772,
      "v": 122
    },
    {
      "midi": 86,
      "hit": false,
      "t": 63586.96499999991,
      "d": 282.6087333333344,
      "v": 83
    },
    {
      "midi": 83,
      "hit": false,
      "t": 63913.05199999991,
      "d": 586.9565999999977,
      "v": 74
    },
    {
      "midi": 65,
      "hit": false,
      "t": 63923.92156666667,
      "d": 619.565300000002,
      "v": 122
    },
    {
      "midi": 69,
      "hit": false,
      "t": 63923.92156666667,
      "d": 728.2609666666685,
      "v": 122
    },
    {
      "midi": 57,
      "hit": false,
      "t": 63923.92156666667,
      "d": 755.4348833333352,
      "v": 122
    },
    {
      "midi": 60,
      "hit": false,
      "t": 63923.92156666667,
      "d": 755.4348833333352,
      "v": 122
    },
    {
      "midi": 79,
      "hit": false,
      "t": 64565.22599999991,
      "d": 494.565283333337,
      "v": 77
    },
    {
      "midi": 62,
      "hit": false,
      "t": 64576.09556666667,
      "d": 619.565300000002,
      "v": 122
    },
    {
      "midi": 65,
      "hit": false,
      "t": 64576.09556666667,
      "d": 619.565300000002,
      "v": 122
    },
    {
      "midi": 67,
      "hit": false,
      "t": 64576.09556666667,
      "d": 728.2609666666685,
      "v": 122
    },
    {
      "midi": 59,
      "hit": false,
      "t": 64576.09556666667,
      "d": 766.3044500000033,
      "v": 122
    },
    {
      "midi": 54,
      "hit": false,
      "t": 65217.399999999914,
      "d": 652.1740000000063,
      "v": 25
    },
    {
      "midi": 57,
      "hit": false,
      "t": 65217.399999999914,
      "d": 652.1740000000063,
      "v": 88
    },
    {
      "midi": 60,
      "hit": false,
      "t": 65217.399999999914,
      "d": 652.1740000000063,
      "v": 75
    },
    {
      "midi": 63,
      "hit": false,
      "t": 65217.399999999914,
      "d": 652.1740000000063,
      "v": 79
    },
    {
      "midi": 63,
      "hit": false,
      "t": 65228.26956666667,
      "d": 766.304449999996,
      "v": 122
    },
    {
      "midi": 66,
      "hit": false,
      "t": 65228.26956666667,
      "d": 793.4783666666626,
      "v": 122
    },
    {
      "midi": 60,
      "hit": false,
      "t": 65228.26956666667,
      "d": 1413.0436666666646,
      "v": 122
    },
    {
      "midi": 48,
      "hit": false,
      "t": 65228.26956666667,
      "d": 1440.2175833333313,
      "v": 122
    },
    {
      "midi": 56,
      "hit": false,
      "t": 65380.443499999914,
      "d": 65.21740000000136,
      "v": 32
    },
    {
      "midi": 72,
      "hit": false,
      "t": 65543.48699999992,
      "d": 326.08699999999953,
      "v": 78
    },
    {
      "midi": 60,
      "hit": false,
      "t": 65869.57399999992,
      "d": 619.565300000002,
      "v": 73
    },
    {
      "midi": 55,
      "hit": false,
      "t": 65869.57399999992,
      "d": 652.1739999999991,
      "v": 56
    },
    {
      "midi": 64,
      "hit": false,
      "t": 65869.57399999992,
      "d": 652.1739999999991,
      "v": 69
    },
    {
      "midi": 67,
      "hit": false,
      "t": 65869.57399999992,
      "d": 652.1739999999991,
      "v": 64
    },
    {
      "midi": 64,
      "hit": false,
      "t": 65880.44356666667,
      "d": 619.565300000002,
      "v": 122
    },
    {
      "midi": 67,
      "hit": false,
      "t": 65880.44356666667,
      "d": 782.6088000000018,
      "v": 122
    },
    {
      "midi": 43,
      "hit": false,
      "t": 66532.61756666667,
      "d": 782.6088000000018,
      "v": 122
    },
    {
      "midi": 69,
      "hit": false,
      "t": 66532.61756666667,
      "d": 1282.608866666662,
      "v": 122
    },
    {
      "midi": 64,
      "hit": false,
      "t": 66532.61756666667,
      "d": 1298.9132166666677,
      "v": 122
    },
    {
      "midi": 72,
      "hit": false,
      "t": 66532.61756666667,
      "d": 1298.9132166666677,
      "v": 122
    },
    {
      "midi": 48,
      "hit": false,
      "t": 66538.05234999993,
      "d": 1288.0436499999923,
      "v": 67
    },
    {
      "midi": 55,
      "hit": false,
      "t": 66657.61758333325,
      "d": 1168.478416666665,
      "v": 85
    },
    {
      "midi": 64,
      "hit": false,
      "t": 66782.61759999993,
      "d": 1043.4783999999927,
      "v": 65
    },
    {
      "midi": 67,
      "hit": false,
      "t": 66896.74804999992,
      "d": 929.3479499999958,
      "v": 59
    },
    {
      "midi": 72,
      "hit": false,
      "t": 66989.13936666658,
      "d": 836.956633333335,
      "v": 60
    },
    {
      "midi": 79,
      "hit": false,
      "t": 67103.26981666658,
      "d": 722.8261833333381,
      "v": 65
    },
    {
      "midi": 55,
      "hit": false,
      "t": 67184.79156666667,
      "d": 619.565300000002,
      "v": 122
    },
    {
      "midi": 74,
      "hit": false,
      "t": 67836.96556666667,
      "d": 782.6088000000018,
      "v": 122
    },
    {
      "midi": 52,
      "hit": false,
      "t": 67836.96556666667,
      "d": 1244.5653833333345,
      "v": 122
    },
    {
      "midi": 60,
      "hit": false,
      "t": 67836.96556666667,
      "d": 1244.5653833333345,
      "v": 122
    },
    {
      "midi": 67,
      "hit": false,
      "t": 67836.96556666667,
      "d": 1396.7393166666589,
      "v": 122
    },
    {
      "midi": 48,
      "hit": false,
      "t": 67842.40034999992,
      "d": 1288.0436499999923,
      "v": 67
    },
    {
      "midi": 55,
      "hit": false,
      "t": 67961.96558333325,
      "d": 1168.478416666665,
      "v": 85
    },
    {
      "midi": 64,
      "hit": false,
      "t": 68086.96559999992,
      "d": 1043.4783999999927,
      "v": 65
    },
    {
      "midi": 67,
      "hit": false,
      "t": 68201.09604999992,
      "d": 929.3479499999958,
      "v": 59
    },
    {
      "midi": 72,
      "hit": false,
      "t": 68293.48736666658,
      "d": 836.956633333335,
      "v": 60
    },
    {
      "midi": 79,
      "hit": false,
      "t": 68407.61781666658,
      "d": 722.8261833333381,
      "v": 65
    },
    {
      "midi": 72,
      "hit": false,
      "t": 68489.13956666666,
      "d": 755.4348833333206,
      "v": 122
    },
    {
      "midi": 51,
      "hit": false,
      "t": 69130.44399999992,
      "d": 1304.3479999999981,
      "v": 25
    },
    {
      "midi": 54,
      "hit": false,
      "t": 69130.44399999992,
      "d": 1304.3479999999981,
      "v": 88
    },
    {
      "midi": 57,
      "hit": false,
      "t": 69130.44399999992,
      "d": 1304.3479999999981,
      "v": 75
    },
    {
      "midi": 60,
      "hit": false,
      "t": 69130.44399999992,
      "d": 1304.3479999999981,
      "v": 79
    },
    {
      "midi": 71,
      "hit": false,
      "t": 69141.31356666666,
      "d": 782.6087999999872,
      "v": 122
    },
    {
      "midi": 66,
      "hit": false,
      "t": 69141.31356666666,
      "d": 1244.56538333332,
      "v": 122
    },
    {
      "midi": 60,
      "hit": false,
      "t": 69141.31356666666,
      "d": 1423.913233333311,
      "v": 122
    },
    {
      "midi": 51,
      "hit": false,
      "t": 69141.31356666666,
      "d": 1440.2175833333167,
      "v": 122
    },
    {
      "midi": 53,
      "hit": false,
      "t": 69293.48749999992,
      "d": 65.21739999999409,
      "v": 32
    },
    {
      "midi": 69,
      "hit": false,
      "t": 69456.53099999992,
      "d": 652.1739999999991,
      "v": 78
    },
    {
      "midi": 75,
      "hit": false,
      "t": 69782.61799999991,
      "d": 326.08699999999953,
      "v": 73
    },
    {
      "midi": 69,
      "hit": false,
      "t": 69793.48756666665,
      "d": 826.0870666666597,
      "v": 122
    },
    {
      "midi": 81,
      "hit": false,
      "t": 70108.70499999991,
      "d": 282.6087333333271,
      "v": 83
    },
    {
      "midi": 62,
      "hit": false,
      "t": 70434.79199999991,
      "d": 2086.9568,
      "v": 88
    },
    {
      "midi": 57,
      "hit": false,
      "t": 70434.79199999991,
      "d": 2125.0002833333274,
      "v": 25
    },
    {
      "midi": 65,
      "hit": false,
      "t": 70434.79199999991,
      "d": 2125.0002833333274,
      "v": 75
    },
    {
      "midi": 69,
      "hit": false,
      "t": 70434.79199999991,
      "d": 2157.6089833333244,
      "v": 79
    },
    {
      "midi": 67,
      "hit": false,
      "t": 70445.66156666665,
      "d": 711.9566166666627,
      "v": 122
    },
    {
      "midi": 50,
      "hit": false,
      "t": 70445.66156666665,
      "d": 739.1305333333294,
      "v": 122
    },
    {
      "midi": 64,
      "hit": false,
      "t": 70445.66156666665,
      "d": 755.4348833333352,
      "v": 122
    },
    {
      "midi": 57,
      "hit": false,
      "t": 70445.66156666665,
      "d": 1228.2610333333287,
      "v": 122
    },
    {
      "midi": 59,
      "hit": false,
      "t": 70597.83549999991,
      "d": 65.21739999999409,
      "v": 32
    },
    {
      "midi": 77,
      "hit": false,
      "t": 70760.87899999991,
      "d": 652.1739999999991,
      "v": 78
    },
    {
      "midi": 81,
      "hit": false,
      "t": 71086.96599999991,
      "d": 326.08699999999953,
      "v": 73
    },
    {
      "midi": 65,
      "hit": false,
      "t": 71097.83556666665,
      "d": 728.2609666666685,
      "v": 122
    },
    {
      "midi": 38,
      "hit": false,
      "t": 71097.83556666665,
      "d": 766.304449999996,
      "v": 122
    },
    {
      "midi": 62,
      "hit": false,
      "t": 71097.83556666665,
      "d": 782.6088000000018,
      "v": 122
    },
    {
      "midi": 89,
      "hit": false,
      "t": 71413.05299999991,
      "d": 282.6087333333271,
      "v": 83
    },
    {
      "midi": 86,
      "hit": false,
      "t": 71739.13999999991,
      "d": 586.956600000005,
      "v": 74
    },
    {
      "midi": 40,
      "hit": false,
      "t": 71750.00956666665,
      "d": 739.1305333333294,
      "v": 122
    },
    {
      "midi": 60,
      "hit": false,
      "t": 71750.00956666665,
      "d": 755.4348833333352,
      "v": 122
    },
    {
      "midi": 64,
      "hit": false,
      "t": 71750.00956666665,
      "d": 766.304449999996,
      "v": 122
    },
    {
      "midi": 57,
      "hit": false,
      "t": 71750.00956666665,
      "d": 1326.0871333333344,
      "v": 122
    },
    {
      "midi": 81,
      "hit": false,
      "t": 72391.31399999991,
      "d": 494.5652833333297,
      "v": 77
    },
    {
      "midi": 41,
      "hit": false,
      "t": 72402.18356666664,
      "d": 728.2609666666685,
      "v": 122
    },
    {
      "midi": 62,
      "hit": false,
      "t": 72402.18356666664,
      "d": 766.304449999996,
      "v": 122
    },
    {
      "midi": 60,
      "hit": false,
      "t": 73054.35756666664,
      "d": 619.565300000002,
      "v": 122
    },
    {
      "midi": 65,
      "hit": false,
      "t": 73054.35756666664,
      "d": 619.565300000002,
      "v": 122
    },
    {
      "midi": 43,
      "hit": false,
      "t": 73054.35756666664,
      "d": 1228.2610333333287,
      "v": 122
    },
    {
      "midi": 69,
      "hit": false,
      "t": 73054.35756666664,
      "d": 1396.7393166666734,
      "v": 122
    },
    {
      "midi": 31,
      "hit": false,
      "t": 73054.35756666664,
      "d": 1467.391499999998,
      "v": 122
    },
    {
      "midi": 50,
      "hit": false,
      "t": 73059.79234999992,
      "d": 1288.0436499999923,
      "v": 67
    },
    {
      "midi": 57,
      "hit": false,
      "t": 73179.35758333324,
      "d": 1168.478416666665,
      "v": 85
    },
    {
      "midi": 65,
      "hit": false,
      "t": 73304.35759999992,
      "d": 1043.4783999999927,
      "v": 65
    },
    {
      "midi": 69,
      "hit": false,
      "t": 73418.48804999991,
      "d": 929.3479499999958,
      "v": 59
    },
    {
      "midi": 74,
      "hit": false,
      "t": 73510.87936666657,
      "d": 836.956633333335,
      "v": 60
    },
    {
      "midi": 81,
      "hit": false,
      "t": 73625.00981666657,
      "d": 722.8261833333381,
      "v": 65
    },
    {
      "midi": 60,
      "hit": false,
      "t": 73706.53156666664,
      "d": 728.2609666666685,
      "v": 122
    },
    {
      "midi": 65,
      "hit": false,
      "t": 73706.53156666664,
      "d": 755.4348833333352,
      "v": 122
    },
    {
      "midi": 55,
      "hit": false,
      "t": 74347.83599999991,
      "d": 1304.3479999999981,
      "v": 25
    },
    {
      "midi": 59,
      "hit": false,
      "t": 74347.83599999991,
      "d": 1304.3479999999981,
      "v": 88
    },
    {
      "midi": 62,
      "hit": false,
      "t": 74347.83599999991,
      "d": 1304.3479999999981,
      "v": 75
    },
    {
      "midi": 65,
      "hit": false,
      "t": 74347.83599999991,
      "d": 1304.3479999999981,
      "v": 79
    },
    {
      "midi": 53,
      "hit": false,
      "t": 74358.70556666664,
      "d": 923.9131666666653,
      "v": 122
    },
    {
      "midi": 43,
      "hit": false,
      "t": 74358.70556666664,
      "d": 1423.9132333333255,
      "v": 122
    },
    {
      "midi": 59,
      "hit": false,
      "t": 74358.70556666664,
      "d": 1440.2175833333313,
      "v": 122
    },
    {
      "midi": 57,
      "hit": false,
      "t": 74413.05339999998,
      "d": 570.6522499999992,
      "v": 122
    },
    {
      "midi": 57,
      "hit": false,
      "t": 74510.87949999991,
      "d": 65.21739999999409,
      "v": 32
    },
    {
      "midi": 74,
      "hit": false,
      "t": 74673.92299999991,
      "d": 652.1739999999991,
      "v": 78
    },
    {
      "midi": 79,
      "hit": false,
      "t": 75000.00999999991,
      "d": 326.08699999999953,
      "v": 73
    },
    {
      "midi": 55,
      "hit": false,
      "t": 75010.87956666664,
      "d": 407.6087499999994,
      "v": 122
    },
    {
      "midi": 86,
      "hit": false,
      "t": 75326.0969999999,
      "d": 282.6087333333271,
      "v": 83
    },
    {
      "midi": 53,
      "hit": false,
      "t": 75336.96656666664,
      "d": 407.6087499999994,
      "v": 122
    },
    {
      "midi": 67,
      "hit": false,
      "t": 75652.1839999999,
      "d": 1951.0872166666522,
      "v": 69
    },
    {
      "midi": 55,
      "hit": false,
      "t": 75652.1839999999,
      "d": 2608.6959999999817,
      "v": 66
    },
    {
      "midi": 64,
      "hit": false,
      "t": 75657.61878333324,
      "d": 2603.2612166666513,
      "v": 65
    },
    {
      "midi": 55,
      "hit": false,
      "t": 75663.05356666664,
      "d": 619.565300000002,
      "v": 122
    },
    {
      "midi": 48,
      "hit": false,
      "t": 75663.05356666664,
      "d": 2597.8264333333354,
      "v": 122
    },
    {
      "midi": 36,
      "hit": false,
      "t": 75663.05356666664,
      "d": 2739.130799999999,
      "v": 122
    },
    {
      "midi": 60,
      "hit": false,
      "t": 75668.4883499999,
      "d": 2592.3916499999905,
      "v": 79
    },
    {
      "midi": 59,
      "hit": false,
      "t": 76315.22756666664,
      "d": 755.4348833333352,
      "v": 122
    },
    {
      "midi": 55,
      "hit": false,
      "t": 76315.22756666664,
      "d": 766.304449999996,
      "v": 122
    },
    {
      "midi": 57,
      "hit": false,
      "t": 76967.40156666664,
      "d": 766.304449999996,
      "v": 122
    },
    {
      "midi": 53,
      "hit": false,
      "t": 76967.40156666664,
      "d": 809.7827166666684,
      "v": 122
    },
    {
      "midi": 52,
      "hit": false,
      "t": 77619.57556666664,
      "d": 619.565300000002,
      "v": 122
    },
    {
      "midi": 55,
      "hit": false,
      "t": 77619.57556666664,
      "d": 619.565300000002,
      "v": 122
    },
    {
      "midi": 76,
      "hit": false,
      "t": 77625.0103499999,
      "d": 326.08699999999953,
      "v": 68
    },
    {
      "midi": 67,
      "hit": false,
      "t": 77951.0973499999,
      "d": 309.78264999999374,
      "v": 74
    },
    {
      "midi": 60,
      "hit": false,
      "t": 78271.74956666664,
      "d": 16.304350000005797,
      "v": 122
    },
    {
      "midi": 62,
      "hit": false,
      "t": 78271.74956666664,
      "d": 1396.7393166666589,
      "v": 122
    },
    {
      "midi": 53,
      "hit": false,
      "t": 78271.74956666664,
      "d": 1423.9132333333255,
      "v": 122
    },
    {
      "midi": 56,
      "hit": false,
      "t": 78271.74956666664,
      "d": 1423.9132333333255,
      "v": 122
    },
    {
      "midi": 41,
      "hit": false,
      "t": 78277.1843499999,
      "d": 1288.0436499999923,
      "v": 59
    },
    {
      "midi": 56,
      "hit": false,
      "t": 78396.74958333322,
      "d": 1168.478416666665,
      "v": 77
    },
    {
      "midi": 62,
      "hit": false,
      "t": 78521.7495999999,
      "d": 1043.4783999999927,
      "v": 57
    },
    {
      "midi": 65,
      "hit": false,
      "t": 78635.88004999989,
      "d": 929.3479499999958,
      "v": 51
    },
    {
      "midi": 72,
      "hit": false,
      "t": 78728.27136666655,
      "d": 836.956633333335,
      "v": 52
    },
    {
      "midi": 77,
      "hit": false,
      "t": 78842.40181666655,
      "d": 722.8261833333381,
      "v": 57
    },
    {
      "midi": 43,
      "hit": false,
      "t": 78923.92356666664,
      "d": 1451.087149999992,
      "v": 122
    },
    {
      "midi": 59,
      "hit": false,
      "t": 79565.22799999989,
      "d": 619.565300000002,
      "v": 65
    },
    {
      "midi": 55,
      "hit": false,
      "t": 79565.22799999989,
      "d": 663.0435666666745,
      "v": 48
    },
    {
      "midi": 64,
      "hit": false,
      "t": 79565.22799999989,
      "d": 673.9131333333353,
      "v": 61
    },
    {
      "midi": 67,
      "hit": false,
      "t": 79565.22799999989,
      "d": 673.9131333333353,
      "v": 56
    },
    {
      "midi": 59,
      "hit": false,
      "t": 79576.09756666663,
      "d": 1244.56538333332,
      "v": 122
    },
    {
      "midi": 55,
      "hit": false,
      "t": 79576.09756666663,
      "d": 1423.9132333333255,
      "v": 122
    },
    {
      "midi": 31,
      "hit": false,
      "t": 80228.27156666663,
      "d": 755.4348833333206,
      "v": 122
    },
    {
      "midi": 55,
      "hit": false,
      "t": 80543.48899999988,
      "d": 326.08699999999953,
      "v": 46
    },
    {
      "midi": 59,
      "hit": false,
      "t": 80543.48899999988,
      "d": 326.08699999999953,
      "v": 80
    },
    {
      "midi": 64,
      "hit": false,
      "t": 80543.48899999988,
      "d": 326.08699999999953,
      "v": 62
    },
    {
      "midi": 67,
      "hit": false,
      "t": 80543.48899999988,
      "d": 326.08699999999953,
      "v": 63
    },
    {
      "midi": 67,
      "hit": false,
      "t": 80869.57599999988,
      "d": 1951.0872166666522,
      "v": 61
    },
    {
      "midi": 55,
      "hit": false,
      "t": 80869.57599999988,
      "d": 2608.6959999999817,
      "v": 58
    },
    {
      "midi": 64,
      "hit": false,
      "t": 80875.01078333321,
      "d": 2603.2612166666513,
      "v": 57
    },
    {
      "midi": 64,
      "hit": false,
      "t": 80880.44556666662,
      "d": 21.739133333336213,
      "v": 122
    },
    {
      "midi": 36,
      "hit": false,
      "t": 80880.44556666662,
      "d": 619.565300000002,
      "v": 122
    },
    {
      "midi": 59,
      "hit": false,
      "t": 80880.44556666662,
      "d": 1380.4349666666676,
      "v": 122
    },
    {
      "midi": 67,
      "hit": false,
      "t": 80880.44556666662,
      "d": 2722.826449999993,
      "v": 122
    },
    {
      "midi": 60,
      "hit": false,
      "t": 80885.88034999988,
      "d": 2592.3916499999905,
      "v": 71
    },
    {
      "midi": 43,
      "hit": false,
      "t": 81532.61956666662,
      "d": 1396.7393166666589,
      "v": 122
    },
    {
      "midi": 57,
      "hit": false,
      "t": 82184.79356666662,
      "d": 1326.0871333333344,
      "v": 122
    },
    {
      "midi": 60,
      "hit": false,
      "t": 82184.79356666662,
      "d": 1423.9132333333255,
      "v": 122
    },
    {
      "midi": 52,
      "hit": false,
      "t": 82836.96756666662,
      "d": 739.1305333333294,
      "v": 122
    },
    {
      "midi": 76,
      "hit": false,
      "t": 82842.40234999987,
      "d": 326.08699999999953,
      "v": 60
    },
    {
      "midi": 67,
      "hit": false,
      "t": 83168.48934999987,
      "d": 309.78264999999374,
      "v": 66
    },
    {
      "midi": 43,
      "hit": false,
      "t": 83489.14156666661,
      "d": 2570.652516666669,
      "v": 122
    },
    {
      "midi": 48,
      "hit": false,
      "t": 83494.57634999987,
      "d": 635.8696499999933,
      "v": 59
    },
    {
      "midi": 55,
      "hit": false,
      "t": 83614.1415833332,
      "d": 516.3044166666659,
      "v": 77
    },
    {
      "midi": 64,
      "hit": false,
      "t": 83739.14159999987,
      "d": 391.3043999999936,
      "v": 57
    },
    {
      "midi": 67,
      "hit": false,
      "t": 83853.27204999987,
      "d": 277.1739499999967,
      "v": 51
    },
    {
      "midi": 72,
      "hit": false,
      "t": 83945.66336666653,
      "d": 184.78263333333598,
      "v": 52
    },
    {
      "midi": 79,
      "hit": false,
      "t": 84059.79381666653,
      "d": 70.65218333333905,
      "v": 57
    },
    {
      "midi": 57,
      "hit": false,
      "t": 84130.44599999987,
      "d": 652.1739999999991,
      "v": 17
    },
    {
      "midi": 62,
      "hit": false,
      "t": 84130.44599999987,
      "d": 652.1739999999991,
      "v": 80
    },
    {
      "midi": 65,
      "hit": false,
      "t": 84130.44599999987,
      "d": 652.1739999999991,
      "v": 67
    },
    {
      "midi": 69,
      "hit": false,
      "t": 84130.44599999987,
      "d": 652.1739999999991,
      "v": 71
    },
    {
      "midi": 57,
      "hit": false,
      "t": 84141.31556666661,
      "d": 619.565300000002,
      "v": 122
    },
    {
      "midi": 62,
      "hit": false,
      "t": 84141.31556666661,
      "d": 766.304449999996,
      "v": 122
    },
    {
      "midi": 53,
      "hit": false,
      "t": 84141.31556666661,
      "d": 782.6088000000018,
      "v": 122
    },
    {
      "midi": 59,
      "hit": false,
      "t": 84293.48949999987,
      "d": 65.21739999999409,
      "v": 24
    },
    {
      "midi": 77,
      "hit": false,
      "t": 84456.53299999986,
      "d": 326.08699999999953,
      "v": 70
    },
    {
      "midi": 58,
      "hit": false,
      "t": 84782.61999999986,
      "d": 619.565300000002,
      "v": 65
    },
    {
      "midi": 55,
      "hit": false,
      "t": 84782.61999999986,
      "d": 652.1739999999991,
      "v": 48
    },
    {
      "midi": 61,
      "hit": false,
      "t": 84782.61999999986,
      "d": 652.1739999999991,
      "v": 61
    },
    {
      "midi": 64,
      "hit": false,
      "t": 84782.61999999986,
      "d": 652.1739999999991,
      "v": 56
    },
    {
      "midi": 58,
      "hit": false,
      "t": 84793.48956666661,
      "d": 619.565300000002,
      "v": 122
    },
    {
      "midi": 49,
      "hit": false,
      "t": 84793.48956666661,
      "d": 766.304449999996,
      "v": 122
    },
    {
      "midi": 64,
      "hit": false,
      "t": 84793.48956666661,
      "d": 836.956633333335,
      "v": 122
    },
    {
      "midi": 50,
      "hit": false,
      "t": 85445.66356666661,
      "d": 619.565300000002,
      "v": 122
    },
    {
      "midi": 65,
      "hit": false,
      "t": 85445.66356666661,
      "d": 619.565300000002,
      "v": 122
    },
    {
      "midi": 59,
      "hit": false,
      "t": 85445.66356666661,
      "d": 782.6088000000018,
      "v": 122
    },
    {
      "midi": 43,
      "hit": false,
      "t": 85451.09834999987,
      "d": 635.8696499999933,
      "v": 59
    },
    {
      "midi": 59,
      "hit": false,
      "t": 85570.6635833332,
      "d": 516.3044166666659,
      "v": 77
    },
    {
      "midi": 65,
      "hit": false,
      "t": 85695.66359999987,
      "d": 391.3043999999936,
      "v": 57
    },
    {
      "midi": 67,
      "hit": false,
      "t": 85809.79404999987,
      "d": 277.1739499999967,
      "v": 51
    },
    {
      "midi": 74,
      "hit": false,
      "t": 85902.18536666653,
      "d": 184.78263333333598,
      "v": 52
    },
    {
      "midi": 79,
      "hit": false,
      "t": 86016.31581666652,
      "d": 70.65218333333905,
      "v": 57
    },
    {
      "midi": 57,
      "hit": false,
      "t": 86086.96799999986,
      "d": 619.565300000002,
      "v": 65
    },
    {
      "midi": 54,
      "hit": false,
      "t": 86086.96799999986,
      "d": 652.1739999999991,
      "v": 48
    },
    {
      "midi": 60,
      "hit": false,
      "t": 86086.96799999986,
      "d": 652.1739999999991,
      "v": 61
    },
    {
      "midi": 63,
      "hit": false,
      "t": 86086.96799999986,
      "d": 652.1739999999991,
      "v": 56
    },
    {
      "midi": 66,
      "hit": false,
      "t": 86097.83756666661,
      "d": 434.78266666666605,
      "v": 122
    },
    {
      "midi": 51,
      "hit": false,
      "t": 86097.83756666661,
      "d": 586.956600000005,
      "v": 122
    },
    {
      "midi": 60,
      "hit": false,
      "t": 86097.83756666661,
      "d": 586.956600000005,
      "v": 122
    },
    {
      "midi": 69,
      "hit": false,
      "t": 86358.70716666662,
      "d": 505.43484999999055,
      "v": 122
    },
    {
      "midi": 60,
      "hit": false,
      "t": 86739.14199999986,
      "d": 619.565300000002,
      "v": 65
    },
    {
      "midi": 55,
      "hit": false,
      "t": 86739.14199999986,
      "d": 652.1739999999991,
      "v": 48
    },
    {
      "midi": 64,
      "hit": false,
      "t": 86739.14199999986,
      "d": 652.1739999999991,
      "v": 61
    },
    {
      "midi": 67,
      "hit": false,
      "t": 86739.14199999986,
      "d": 652.1739999999991,
      "v": 56
    },
    {
      "midi": 52,
      "hit": false,
      "t": 86750.01156666661,
      "d": 1538.043683333337,
      "v": 122
    },
    {
      "midi": 60,
      "hit": false,
      "t": 86750.01156666661,
      "d": 1576.0871666666644,
      "v": 122
    },
    {
      "midi": 67,
      "hit": false,
      "t": 86750.01156666661,
      "d": 1592.3915166666702,
      "v": 122
    },
    {
      "midi": 55,
      "hit": false,
      "t": 87391.31599999986,
      "d": 1304.3479999999981,
      "v": 17
    },
    {
      "midi": 60,
      "hit": false,
      "t": 87391.31599999986,
      "d": 1304.3479999999981,
      "v": 80
    },
    {
      "midi": 64,
      "hit": false,
      "t": 87391.31599999986,
      "d": 1304.3479999999981,
      "v": 67
    },
    {
      "midi": 67,
      "hit": false,
      "t": 87391.31599999986,
      "d": 1304.3479999999981,
      "v": 71
    },
    {
      "midi": 36,
      "hit": false,
      "t": 87402.18556666661,
      "d": 418.47831666666025,
      "v": 122
    },
    {
      "midi": 57,
      "hit": false,
      "t": 87554.35949999986,
      "d": 65.21739999999409,
      "v": 24
    },
    {
      "midi": 76,
      "hit": false,
      "t": 87717.40299999986,
      "d": 652.1739999999991,
      "v": 70
    },
    {
      "midi": 43,
      "hit": false,
      "t": 87728.27256666661,
      "d": 434.78266666666605,
      "v": 122
    },
    {
      "midi": 79,
      "hit": false,
      "t": 88043.48999999986,
      "d": 326.08699999999953,
      "v": 65
    },
    {
      "midi": 48,
      "hit": false,
      "t": 88054.35956666661,
      "d": 434.78266666666605,
      "v": 122
    },
    {
      "midi": 88,
      "hit": false,
      "t": 88369.57699999986,
      "d": 282.6087333333271,
      "v": 75
    },
    {
      "midi": 52,
      "hit": false,
      "t": 88380.44656666661,
      "d": 309.78264999999374,
      "v": 122
    },
    {
      "midi": 64,
      "hit": false,
      "t": 88695.66399999986,
      "d": 1951.0872166666522,
      "v": 61
    },
    {
      "midi": 52,
      "hit": false,
      "t": 88695.66399999986,
      "d": 2608.6959999999817,
      "v": 58
    },
    {
      "midi": 60,
      "hit": false,
      "t": 88701.09878333319,
      "d": 2603.2612166666513,
      "v": 57
    },
    {
      "midi": 45,
      "hit": false,
      "t": 88706.5335666666,
      "d": 2711.9568833333324,
      "v": 122
    },
    {
      "midi": 57,
      "hit": false,
      "t": 88711.96834999985,
      "d": 2592.3916499999905,
      "v": 71
    },
    {
      "midi": 60,
      "hit": false,
      "t": 89358.7075666666,
      "d": 619.565300000002,
      "v": 122
    },
    {
      "midi": 64,
      "hit": false,
      "t": 89358.7075666666,
      "d": 619.565300000002,
      "v": 122
    },
    {
      "midi": 55,
      "hit": false,
      "t": 89358.7075666666,
      "d": 728.2609666666685,
      "v": 122
    },
    {
      "midi": 60,
      "hit": false,
      "t": 90010.8815666666,
      "d": 619.565300000002,
      "v": 122
    },
    {
      "midi": 64,
      "hit": false,
      "t": 90010.8815666666,
      "d": 619.565300000002,
      "v": 122
    },
    {
      "midi": 54,
      "hit": false,
      "t": 90010.8815666666,
      "d": 739.1305333333294,
      "v": 122
    },
    {
      "midi": 66,
      "hit": false,
      "t": 90010.8815666666,
      "d": 755.4348833333352,
      "v": 122
    },
    {
      "midi": 60,
      "hit": false,
      "t": 90663.0555666666,
      "d": 619.565300000002,
      "v": 122
    },
    {
      "midi": 64,
      "hit": false,
      "t": 90663.0555666666,
      "d": 619.565300000002,
      "v": 122
    },
    {
      "midi": 67,
      "hit": false,
      "t": 90663.0555666666,
      "d": 619.565300000002,
      "v": 122
    },
    {
      "midi": 52,
      "hit": false,
      "t": 90663.0555666666,
      "d": 728.2609666666685,
      "v": 122
    },
    {
      "midi": 72,
      "hit": false,
      "t": 90668.49034999985,
      "d": 326.08699999999953,
      "v": 60
    },
    {
      "midi": 64,
      "hit": false,
      "t": 90994.57734999985,
      "d": 309.78264999999374,
      "v": 66
    },
    {
      "midi": 60,
      "hit": false,
      "t": 91304.35999999984,
      "d": 619.565300000002,
      "v": 65
    },
    {
      "midi": 57,
      "hit": false,
      "t": 91304.35999999984,
      "d": 663.0435666666745,
      "v": 48
    },
    {
      "midi": 62,
      "hit": false,
      "t": 91304.35999999984,
      "d": 673.9131333333353,
      "v": 61
    },
    {
      "midi": 66,
      "hit": false,
      "t": 91304.35999999984,
      "d": 673.9131333333353,
      "v": 56
    },
    {
      "midi": 68,
      "hit": false,
      "t": 91315.2295666666,
      "d": 418.47831666666025,
      "v": 122
    },
    {
      "midi": 50,
      "hit": false,
      "t": 91315.2295666666,
      "d": 1413.0436666666646,
      "v": 122
    },
    {
      "midi": 66,
      "hit": false,
      "t": 91369.57739999994,
      "d": 516.3044166666659,
      "v": 122
    },
    {
      "midi": 60,
      "hit": false,
      "t": 91369.57739999994,
      "d": 543.4783333333326,
      "v": 122
    },
    {
      "midi": 71,
      "hit": false,
      "t": 91641.3165666666,
      "d": 309.78264999999374,
      "v": 122
    },
    {
      "midi": 66,
      "hit": false,
      "t": 91967.4035666666,
      "d": 728.2609666666685,
      "v": 122
    },
    {
      "midi": 69,
      "hit": false,
      "t": 91967.4035666666,
      "d": 728.2609666666685,
      "v": 122
    },
    {
      "midi": 60,
      "hit": false,
      "t": 91967.4035666666,
      "d": 739.1305333333294,
      "v": 122
    },
    {
      "midi": 57,
      "hit": false,
      "t": 92282.62099999984,
      "d": 1282.608866666662,
      "v": 46
    },
    {
      "midi": 60,
      "hit": false,
      "t": 92282.62099999984,
      "d": 1293.4784333333228,
      "v": 80
    },
    {
      "midi": 62,
      "hit": false,
      "t": 92282.62099999984,
      "d": 1320.6523499999894,
      "v": 62
    },
    {
      "midi": 66,
      "hit": false,
      "t": 92282.62099999984,
      "d": 1331.5219166666502,
      "v": 63
    },
    {
      "midi": 38,
      "hit": false,
      "t": 92619.5775666666,
      "d": 1440.2175833333313,
      "v": 122
    },
    {
      "midi": 69,
      "hit": false,
      "t": 92934.79499999984,
      "d": 500.00006666666013,
      "v": 60
    },
    {
      "midi": 62,
      "hit": false,
      "t": 92945.6645666666,
      "d": 309.78264999999374,
      "v": 122
    },
    {
      "midi": 66,
      "hit": false,
      "t": 92945.6645666666,
      "d": 309.78264999999374,
      "v": 122
    },
    {
      "midi": 60,
      "hit": false,
      "t": 92945.6645666666,
      "d": 418.47831666666025,
      "v": 122
    },
    {
      "midi": 69,
      "hit": false,
      "t": 92945.6645666666,
      "d": 461.9565833333327,
      "v": 122
    },
    {
      "midi": 74,
      "hit": false,
      "t": 93260.88199999984,
      "d": 195.6521999999968,
      "v": 71
    },
    {
      "midi": 62,
      "hit": false,
      "t": 93271.7515666666,
      "d": 309.78264999999374,
      "v": 122
    },
    {
      "midi": 66,
      "hit": false,
      "t": 93271.7515666666,
      "d": 309.78264999999374,
      "v": 122
    },
    {
      "midi": 59,
      "hit": false,
      "t": 93271.7515666666,
      "d": 407.6087499999994,
      "v": 122
    },
    {
      "midi": 71,
      "hit": false,
      "t": 93271.7515666666,
      "d": 407.6087499999994,
      "v": 122
    },
    {
      "midi": 78,
      "hit": false,
      "t": 93586.96899999982,
      "d": 146.73914999999397,
      "v": 70
    },
    {
      "midi": 57,
      "hit": false,
      "t": 93597.8385666666,
      "d": 309.78264999999374,
      "v": 122
    },
    {
      "midi": 62,
      "hit": false,
      "t": 93597.8385666666,
      "d": 309.78264999999374,
      "v": 122
    },
    {
      "midi": 66,
      "hit": false,
      "t": 93597.8385666666,
      "d": 309.78264999999374,
      "v": 122
    },
    {
      "midi": 72,
      "hit": false,
      "t": 93597.8385666666,
      "d": 309.78264999999374,
      "v": 122
    },
    {
      "midi": 56,
      "hit": false,
      "t": 93913.05599999982,
      "d": 2086.9568,
      "v": 80
    },
    {
      "midi": 53,
      "hit": false,
      "t": 93913.05599999982,
      "d": 2125.0002833333274,
      "v": 17
    },
    {
      "midi": 60,
      "hit": false,
      "t": 93913.05599999982,
      "d": 2125.0002833333274,
      "v": 67
    },
    {
      "midi": 62,
      "hit": false,
      "t": 93913.05599999982,
      "d": 2157.6089833333244,
      "v": 71
    },
    {
      "midi": 56,
      "hit": false,
      "t": 93923.9255666666,
      "d": 728.2609666666685,
      "v": 122
    },
    {
      "midi": 65,
      "hit": false,
      "t": 93923.9255666666,
      "d": 2581.5220833333296,
      "v": 122
    },
    {
      "midi": 62,
      "hit": false,
      "t": 93923.9255666666,
      "d": 2597.8264333333354,
      "v": 122
    },
    {
      "midi": 72,
      "hit": false,
      "t": 93923.9255666666,
      "d": 2722.826449999993,
      "v": 122
    },
    {
      "midi": 55,
      "hit": false,
      "t": 94076.09949999982,
      "d": 65.21739999999409,
      "v": 24
    },
    {
      "midi": 72,
      "hit": false,
      "t": 94239.14299999982,
      "d": 652.1739999999991,
      "v": 70
    },
    {
      "midi": 77,
      "hit": false,
      "t": 94565.22999999982,
      "d": 326.08699999999953,
      "v": 65
    },
    {
      "midi": 53,
      "hit": false,
      "t": 94576.0995666666,
      "d": 434.78266666666605,
      "v": 122
    },
    {
      "midi": 84,
      "hit": false,
      "t": 94891.31699999982,
      "d": 282.6087333333271,
      "v": 75
    },
    {
      "midi": 55,
      "hit": false,
      "t": 94902.1865666666,
      "d": 391.3043999999936,
      "v": 122
    },
    {
      "midi": 80,
      "hit": false,
      "t": 95217.40399999982,
      "d": 586.956600000005,
      "v": 66
    },
    {
      "midi": 56,
      "hit": false,
      "t": 95228.2735666666,
      "d": 766.304449999996,
      "v": 122
    },
    {
      "midi": 77,
      "hit": false,
      "t": 95869.57799999982,
      "d": 494.5652833333297,
      "v": 69
    },
    {
      "midi": 53,
      "hit": false,
      "t": 95880.4475666666,
      "d": 755.4348833333352,
      "v": 122
    },
    {
      "midi": 59,
      "hit": false,
      "t": 96521.75199999982,
      "d": 2086.9568,
      "v": 80
    },
    {
      "midi": 55,
      "hit": false,
      "t": 96521.75199999982,
      "d": 2125.0002833333274,
      "v": 17
    },
    {
      "midi": 62,
      "hit": false,
      "t": 96521.75199999982,
      "d": 2125.0002833333274,
      "v": 67
    },
    {
      "midi": 65,
      "hit": false,
      "t": 96521.75199999982,
      "d": 2157.6089833333244,
      "v": 71
    },
    {
      "midi": 65,
      "hit": false,
      "t": 96532.6215666666,
      "d": 619.565300000002,
      "v": 122
    },
    {
      "midi": 62,
      "hit": false,
      "t": 96532.6215666666,
      "d": 766.304449999996,
      "v": 122
    },
    {
      "midi": 71,
      "hit": false,
      "t": 96532.6215666666,
      "d": 766.304449999996,
      "v": 122
    },
    {
      "midi": 55,
      "hit": false,
      "t": 96532.6215666666,
      "d": 782.6088000000018,
      "v": 122
    },
    {
      "midi": 57,
      "hit": false,
      "t": 96684.79549999982,
      "d": 65.21739999999409,
      "v": 24
    },
    {
      "midi": 74,
      "hit": false,
      "t": 96847.83899999982,
      "d": 652.1739999999991,
      "v": 70
    },
    {
      "midi": 79,
      "hit": false,
      "t": 97173.92599999982,
      "d": 326.08699999999953,
      "v": 65
    },
    {
      "midi": 59,
      "hit": false,
      "t": 97184.7955666666,
      "d": 603.2609499999962,
      "v": 122
    },
    {
      "midi": 69,
      "hit": false,
      "t": 97184.7955666666,
      "d": 619.565300000002,
      "v": 122
    },
    {
      "midi": 50,
      "hit": false,
      "t": 97184.7955666666,
      "d": 766.304449999996,
      "v": 122
    },
    {
      "midi": 65,
      "hit": false,
      "t": 97184.7955666666,
      "d": 766.304449999996,
      "v": 122
    },
    {
      "midi": 86,
      "hit": false,
      "t": 97500.01299999982,
      "d": 282.6087333333271,
      "v": 75
    },
    {
      "midi": 83,
      "hit": false,
      "t": 97826.09999999982,
      "d": 586.956600000005,
      "v": 66
    },
    {
      "midi": 63,
      "hit": false,
      "t": 97836.9695666666,
      "d": 619.565300000002,
      "v": 122
    },
    {
      "midi": 68,
      "hit": false,
      "t": 97836.9695666666,
      "d": 766.304449999996,
      "v": 122
    },
    {
      "midi": 53,
      "hit": false,
      "t": 97836.9695666666,
      "d": 1271.739300000001,
      "v": 122
    },
    {
      "midi": 43,
      "hit": false,
      "t": 97836.9695666666,
      "d": 1315.217566666659,
      "v": 122
    },
    {
      "midi": 59,
      "hit": false,
      "t": 97836.9695666666,
      "d": 1315.217566666659,
      "v": 122
    },
    {
      "midi": 79,
      "hit": false,
      "t": 98478.27399999982,
      "d": 494.5652833333297,
      "v": 69
    },
    {
      "midi": 62,
      "hit": false,
      "t": 98489.1435666666,
      "d": 3097.8264999999956,
      "v": 122
    },
    {
      "midi": 55,
      "hit": false,
      "t": 99130.44799999981,
      "d": 1304.3479999999981,
      "v": 25
    },
    {
      "midi": 60,
      "hit": false,
      "t": 99130.44799999981,
      "d": 1304.3479999999981,
      "v": 88
    },
    {
      "midi": 64,
      "hit": false,
      "t": 99130.44799999981,
      "d": 1304.3479999999981,
      "v": 75
    },
    {
      "midi": 67,
      "hit": false,
      "t": 99130.44799999981,
      "d": 1304.3479999999981,
      "v": 79
    },
    {
      "midi": 55,
      "hit": false,
      "t": 99141.31756666659,
      "d": 766.304449999996,
      "v": 122
    },
    {
      "midi": 52,
      "hit": false,
      "t": 99141.31756666659,
      "d": 782.6088000000018,
      "v": 122
    },
    {
      "midi": 48,
      "hit": false,
      "t": 99141.31756666659,
      "d": 1423.9132333333255,
      "v": 122
    },
    {
      "midi": 36,
      "hit": false,
      "t": 99141.31756666659,
      "d": 1440.2175833333313,
      "v": 122
    },
    {
      "midi": 57,
      "hit": false,
      "t": 99293.49149999981,
      "d": 65.21739999999409,
      "v": 32
    },
    {
      "midi": 76,
      "hit": false,
      "t": 99456.53499999981,
      "d": 652.1739999999991,
      "v": 78
    },
    {
      "midi": 79,
      "hit": false,
      "t": 99782.62199999981,
      "d": 326.08699999999953,
      "v": 73
    },
    {
      "midi": 64,
      "hit": false,
      "t": 99793.49156666659,
      "d": 728.2609666666685,
      "v": 122
    },
    {
      "midi": 67,
      "hit": false,
      "t": 99793.49156666659,
      "d": 739.1305333333294,
      "v": 122
    },
    {
      "midi": 88,
      "hit": false,
      "t": 100108.70899999981,
      "d": 282.6087333333271,
      "v": 83
    },
    {
      "midi": 55,
      "hit": false,
      "t": 100434.79599999981,
      "d": 619.565300000002,
      "v": 73
    },
    {
      "midi": 52,
      "hit": false,
      "t": 100434.79599999981,
      "d": 663.0435666666745,
      "v": 56
    },
    {
      "midi": 57,
      "hit": false,
      "t": 100434.79599999981,
      "d": 673.9131333333353,
      "v": 69
    },
    {
      "midi": 61,
      "hit": false,
      "t": 100434.79599999981,
      "d": 673.9131333333353,
      "v": 64
    },
    {
      "midi": 61,
      "hit": false,
      "t": 100445.66556666659,
      "d": 619.565300000002,
      "v": 122
    },
    {
      "midi": 65,
      "hit": false,
      "t": 100445.66556666659,
      "d": 755.4348833333352,
      "v": 122
    },
    {
      "midi": 57,
      "hit": false,
      "t": 100445.66556666659,
      "d": 766.304449999996,
      "v": 122
    },
    {
      "midi": 45,
      "hit": false,
      "t": 100445.66556666659,
      "d": 1326.0871333333344,
      "v": 122
    },
    {
      "midi": 61,
      "hit": false,
      "t": 101097.83956666659,
      "d": 619.565300000002,
      "v": 122
    },
    {
      "midi": 55,
      "hit": false,
      "t": 101097.83956666659,
      "d": 739.1305333333294,
      "v": 122
    },
    {
      "midi": 64,
      "hit": false,
      "t": 101097.83956666659,
      "d": 766.304449999996,
      "v": 122
    },
    {
      "midi": 52,
      "hit": false,
      "t": 101413.05699999981,
      "d": 326.08699999999953,
      "v": 54
    },
    {
      "midi": 55,
      "hit": false,
      "t": 101413.05699999981,
      "d": 326.08699999999953,
      "v": 88
    },
    {
      "midi": 57,
      "hit": false,
      "t": 101413.05699999981,
      "d": 326.08699999999953,
      "v": 70
    },
    {
      "midi": 61,
      "hit": false,
      "t": 101413.05699999981,
      "d": 326.08699999999953,
      "v": 71
    },
    {
      "midi": 62,
      "hit": false,
      "t": 101739.14399999981,
      "d": 619.565300000002,
      "v": 73
    },
    {
      "midi": 57,
      "hit": false,
      "t": 101739.14399999981,
      "d": 663.0435666666745,
      "v": 56
    },
    {
      "midi": 65,
      "hit": false,
      "t": 101739.14399999981,
      "d": 673.9131333333353,
      "v": 69
    },
    {
      "midi": 69,
      "hit": false,
      "t": 101739.14399999981,
      "d": 673.9131333333353,
      "v": 64
    },
    {
      "midi": 61,
      "hit": false,
      "t": 101750.01356666659,
      "d": 728.2609666666685,
      "v": 122
    },
    {
      "midi": 50,
      "hit": false,
      "t": 101750.01356666659,
      "d": 1413.0436666666646,
      "v": 122
    },
    {
      "midi": 53,
      "hit": false,
      "t": 101750.01356666659,
      "d": 1413.0436666666646,
      "v": 122
    },
    {
      "midi": 57,
      "hit": false,
      "t": 101750.01356666659,
      "d": 1413.0436666666646,
      "v": 122
    },
    {
      "midi": 62,
      "hit": false,
      "t": 102402.18756666659,
      "d": 766.304449999996,
      "v": 122
    },
    {
      "midi": 57,
      "hit": false,
      "t": 102717.40499999981,
      "d": 326.08699999999953,
      "v": 54
    },
    {
      "midi": 62,
      "hit": false,
      "t": 102717.40499999981,
      "d": 326.08699999999953,
      "v": 88
    },
    {
      "midi": 65,
      "hit": false,
      "t": 102717.40499999981,
      "d": 326.08699999999953,
      "v": 70
    },
    {
      "midi": 69,
      "hit": false,
      "t": 102717.40499999981,
      "d": 326.08699999999953,
      "v": 71
    },
    {
      "midi": 60,
      "hit": false,
      "t": 103043.49199999981,
      "d": 619.565300000002,
      "v": 73
    },
    {
      "midi": 57,
      "hit": false,
      "t": 103043.49199999981,
      "d": 663.0435666666745,
      "v": 56
    },
    {
      "midi": 62,
      "hit": false,
      "t": 103043.49199999981,
      "d": 673.9131333333353,
      "v": 69
    },
    {
      "midi": 65,
      "hit": false,
      "t": 103043.49199999981,
      "d": 673.9131333333353,
      "v": 64
    },
    {
      "midi": 38,
      "hit": false,
      "t": 103054.36156666659,
      "d": 619.565300000002,
      "v": 122
    },
    {
      "midi": 60,
      "hit": false,
      "t": 103054.36156666659,
      "d": 1413.0436666666646,
      "v": 122
    },
    {
      "midi": 65,
      "hit": false,
      "t": 103054.36156666659,
      "d": 1413.0436666666646,
      "v": 122
    },
    {
      "midi": 69,
      "hit": false,
      "t": 103054.36156666659,
      "d": 1423.9132333333255,
      "v": 122
    },
    {
      "midi": 50,
      "hit": false,
      "t": 103706.53556666659,
      "d": 755.4348833333352,
      "v": 122
    },
    {
      "midi": 57,
      "hit": false,
      "t": 104021.75299999981,
      "d": 326.08699999999953,
      "v": 54
    },
    {
      "midi": 60,
      "hit": false,
      "t": 104021.75299999981,
      "d": 326.08699999999953,
      "v": 88
    },
    {
      "midi": 62,
      "hit": false,
      "t": 104021.75299999981,
      "d": 326.08699999999953,
      "v": 70
    },
    {
      "midi": 65,
      "hit": false,
      "t": 104021.75299999981,
      "d": 326.08699999999953,
      "v": 71
    },
    {
      "midi": 65,
      "hit": false,
      "t": 104358.70956666647,
      "d": 2597.826433333321,
      "v": 72
    },
    {
      "midi": 59,
      "hit": false,
      "t": 104358.70956666658,
      "d": 157.6087166666548,
      "v": 122
    },
    {
      "midi": 53,
      "hit": false,
      "t": 104358.70956666658,
      "d": 782.6087999999872,
      "v": 122
    },
    {
      "midi": 43,
      "hit": false,
      "t": 104358.70956666658,
      "d": 2739.13079999997,
      "v": 122
    },
    {
      "midi": 62,
      "hit": false,
      "t": 104369.57913333313,
      "d": 2586.95686666666,
      "v": 69
    },
    {
      "midi": 55,
      "hit": false,
      "t": 104375.01391666646,
      "d": 2581.5220833333296,
      "v": 56
    },
    {
      "midi": 59,
      "hit": false,
      "t": 104385.88348333312,
      "d": 2570.652516666669,
      "v": 81
    },
    {
      "midi": 59,
      "hit": false,
      "t": 104527.1878499999,
      "d": 1228.2610333333287,
      "v": 122
    },
    {
      "midi": 55,
      "hit": false,
      "t": 105010.88356666657,
      "d": 755.4348833333206,
      "v": 122
    },
    {
      "midi": 71,
      "hit": false,
      "t": 105010.88356666657,
      "d": 766.3044499999814,
      "v": 122
    },
    {
      "midi": 67,
      "hit": false,
      "t": 105010.88356666657,
      "d": 793.4783666666481,
      "v": 122
    },
    {
      "midi": 65,
      "hit": false,
      "t": 105663.05756666657,
      "d": 619.5652999999875,
      "v": 122
    },
    {
      "midi": 69,
      "hit": false,
      "t": 105663.05756666657,
      "d": 728.260966666654,
      "v": 122
    },
    {
      "midi": 57,
      "hit": false,
      "t": 105663.05756666657,
      "d": 755.4348833333206,
      "v": 122
    },
    {
      "midi": 60,
      "hit": false,
      "t": 105663.05756666657,
      "d": 755.4348833333206,
      "v": 122
    },
    {
      "midi": 67,
      "hit": false,
      "t": 105983.70978333312,
      "d": 972.8262166666682,
      "v": 63
    },
    {
      "midi": 62,
      "hit": false,
      "t": 106315.23156666655,
      "d": 619.565300000002,
      "v": 122
    },
    {
      "midi": 65,
      "hit": false,
      "t": 106315.23156666655,
      "d": 619.565300000002,
      "v": 122
    },
    {
      "midi": 67,
      "hit": false,
      "t": 106315.23156666655,
      "d": 728.2609666666685,
      "v": 122
    },
    {
      "midi": 59,
      "hit": false,
      "t": 106315.23156666655,
      "d": 766.304449999996,
      "v": 122
    },
    {
      "midi": 74,
      "hit": false,
      "t": 106331.53591666646,
      "d": 625.0000833333324,
      "v": 74
    },
    {
      "midi": 79,
      "hit": false,
      "t": 106646.7533499998,
      "d": 309.78264999999374,
      "v": 76
    },
    {
      "midi": 54,
      "hit": false,
      "t": 106956.53599999979,
      "d": 652.1739999999991,
      "v": 25
    },
    {
      "midi": 57,
      "hit": false,
      "t": 106956.53599999979,
      "d": 652.1739999999991,
      "v": 88
    },
    {
      "midi": 60,
      "hit": false,
      "t": 106956.53599999979,
      "d": 652.1739999999991,
      "v": 75
    },
    {
      "midi": 63,
      "hit": false,
      "t": 106956.53599999979,
      "d": 652.1739999999991,
      "v": 79
    },
    {
      "midi": 63,
      "hit": false,
      "t": 106967.40556666655,
      "d": 766.304449999996,
      "v": 122
    },
    {
      "midi": 66,
      "hit": false,
      "t": 106967.40556666655,
      "d": 793.4783666666626,
      "v": 122
    },
    {
      "midi": 60,
      "hit": false,
      "t": 106967.40556666655,
      "d": 1413.0436666666646,
      "v": 122
    },
    {
      "midi": 48,
      "hit": false,
      "t": 106967.40556666655,
      "d": 1440.2175833333313,
      "v": 122
    },
    {
      "midi": 56,
      "hit": false,
      "t": 107119.57949999979,
      "d": 65.21739999999409,
      "v": 32
    },
    {
      "midi": 72,
      "hit": false,
      "t": 107282.62299999979,
      "d": 326.08699999999953,
      "v": 78
    },
    {
      "midi": 60,
      "hit": false,
      "t": 107608.70999999979,
      "d": 619.565300000002,
      "v": 73
    },
    {
      "midi": 55,
      "hit": false,
      "t": 107608.70999999979,
      "d": 652.1739999999991,
      "v": 56
    },
    {
      "midi": 64,
      "hit": false,
      "t": 107608.70999999979,
      "d": 652.1739999999991,
      "v": 69
    },
    {
      "midi": 67,
      "hit": false,
      "t": 107608.70999999979,
      "d": 652.1739999999991,
      "v": 64
    },
    {
      "midi": 64,
      "hit": false,
      "t": 107619.57956666655,
      "d": 619.565300000002,
      "v": 122
    },
    {
      "midi": 67,
      "hit": false,
      "t": 107619.57956666655,
      "d": 782.6088000000018,
      "v": 122
    },
    {
      "midi": 55,
      "hit": false,
      "t": 108260.88399999979,
      "d": 1304.3479999999981,
      "v": 25
    },
    {
      "midi": 60,
      "hit": false,
      "t": 108260.88399999979,
      "d": 1304.3479999999981,
      "v": 88
    },
    {
      "midi": 64,
      "hit": false,
      "t": 108260.88399999979,
      "d": 1304.3479999999981,
      "v": 75
    },
    {
      "midi": 67,
      "hit": false,
      "t": 108260.88399999979,
      "d": 1304.3479999999981,
      "v": 79
    },
    {
      "midi": 43,
      "hit": false,
      "t": 108271.75356666655,
      "d": 782.6088000000018,
      "v": 122
    },
    {
      "midi": 69,
      "hit": false,
      "t": 108271.75356666655,
      "d": 1282.608866666662,
      "v": 122
    },
    {
      "midi": 64,
      "hit": false,
      "t": 108271.75356666655,
      "d": 1298.9132166666677,
      "v": 122
    },
    {
      "midi": 72,
      "hit": false,
      "t": 108271.75356666655,
      "d": 1298.9132166666677,
      "v": 122
    },
    {
      "midi": 57,
      "hit": false,
      "t": 108423.92749999979,
      "d": 65.21739999999409,
      "v": 32
    },
    {
      "midi": 76,
      "hit": false,
      "t": 108586.97099999979,
      "d": 652.1739999999991,
      "v": 78
    },
    {
      "midi": 79,
      "hit": false,
      "t": 108913.05799999979,
      "d": 326.08699999999953,
      "v": 73
    },
    {
      "midi": 55,
      "hit": false,
      "t": 108923.92756666655,
      "d": 619.565300000002,
      "v": 122
    },
    {
      "midi": 88,
      "hit": false,
      "t": 109239.14499999979,
      "d": 282.6087333333271,
      "v": 83
    },
    {
      "midi": 74,
      "hit": false,
      "t": 109576.10156666655,
      "d": 766.304449999996,
      "v": 122
    },
    {
      "midi": 60,
      "hit": false,
      "t": 109576.10156666655,
      "d": 1217.3914666666678,
      "v": 122
    },
    {
      "midi": 52,
      "hit": false,
      "t": 109576.10156666655,
      "d": 1244.5653833333345,
      "v": 122
    },
    {
      "midi": 67,
      "hit": false,
      "t": 109576.10156666655,
      "d": 1396.7393166666589,
      "v": 122
    },
    {
      "midi": 48,
      "hit": false,
      "t": 109581.53634999979,
      "d": 1288.0436499999923,
      "v": 67
    },
    {
      "midi": 55,
      "hit": false,
      "t": 109701.10158333312,
      "d": 1168.478416666665,
      "v": 85
    },
    {
      "midi": 64,
      "hit": false,
      "t": 109826.10159999979,
      "d": 1043.4783999999927,
      "v": 65
    },
    {
      "midi": 67,
      "hit": false,
      "t": 109940.23204999979,
      "d": 929.3479499999958,
      "v": 59
    },
    {
      "midi": 72,
      "hit": false,
      "t": 110032.62336666645,
      "d": 836.956633333335,
      "v": 60
    },
    {
      "midi": 79,
      "hit": false,
      "t": 110146.75381666645,
      "d": 722.8261833333381,
      "v": 65
    },
    {
      "midi": 72,
      "hit": false,
      "t": 110228.27556666655,
      "d": 755.4348833333206,
      "v": 122
    },
    {
      "midi": 71,
      "hit": false,
      "t": 110880.44956666655,
      "d": 782.6087999999872,
      "v": 122
    },
    {
      "midi": 66,
      "hit": false,
      "t": 110880.44956666655,
      "d": 1315.2175666666444,
      "v": 122
    },
    {
      "midi": 51,
      "hit": false,
      "t": 110880.44956666655,
      "d": 1380.4349666666385,
      "v": 122
    },
    {
      "midi": 60,
      "hit": false,
      "t": 110880.44956666655,
      "d": 1423.913233333311,
      "v": 122
    },
    {
      "midi": 48,
      "hit": false,
      "t": 110885.88434999979,
      "d": 1288.0436499999923,
      "v": 67
    },
    {
      "midi": 57,
      "hit": false,
      "t": 111005.44958333312,
      "d": 1168.478416666665,
      "v": 85
    },
    {
      "midi": 63,
      "hit": false,
      "t": 111130.44959999979,
      "d": 1043.4783999999927,
      "v": 65
    },
    {
      "midi": 66,
      "hit": false,
      "t": 111244.58004999979,
      "d": 929.3479499999958,
      "v": 59
    },
    {
      "midi": 72,
      "hit": false,
      "t": 111336.97136666645,
      "d": 836.956633333335,
      "v": 60
    },
    {
      "midi": 78,
      "hit": false,
      "t": 111451.10181666644,
      "d": 722.8261833333381,
      "v": 65
    },
    {
      "midi": 69,
      "hit": false,
      "t": 111532.62356666653,
      "d": 782.6087999999872,
      "v": 122
    },
    {
      "midi": 62,
      "hit": false,
      "t": 112173.92799999978,
      "d": 619.565300000002,
      "v": 73
    },
    {
      "midi": 57,
      "hit": false,
      "t": 112173.92799999978,
      "d": 663.0435666666745,
      "v": 56
    },
    {
      "midi": 65,
      "hit": false,
      "t": 112173.92799999978,
      "d": 673.9131333333353,
      "v": 69
    },
    {
      "midi": 69,
      "hit": false,
      "t": 112173.92799999978,
      "d": 673.9131333333353,
      "v": 64
    },
    {
      "midi": 50,
      "hit": false,
      "t": 112184.79756666653,
      "d": 755.4348833333206,
      "v": 122
    },
    {
      "midi": 67,
      "hit": false,
      "t": 112184.79756666653,
      "d": 755.4348833333206,
      "v": 122
    },
    {
      "midi": 64,
      "hit": false,
      "t": 112184.79756666653,
      "d": 793.4783666666481,
      "v": 122
    },
    {
      "midi": 57,
      "hit": false,
      "t": 112184.79756666653,
      "d": 1228.2610333333141,
      "v": 122
    },
    {
      "midi": 62,
      "hit": false,
      "t": 112836.97156666651,
      "d": 755.4348833333352,
      "v": 122
    },
    {
      "midi": 65,
      "hit": false,
      "t": 112836.97156666651,
      "d": 755.4348833333352,
      "v": 122
    },
    {
      "midi": 38,
      "hit": false,
      "t": 112836.97156666651,
      "d": 766.304449999996,
      "v": 122
    },
    {
      "midi": 69,
      "hit": false,
      "t": 113152.18899999978,
      "d": 1152.1740666666592,
      "v": 71
    },
    {
      "midi": 57,
      "hit": false,
      "t": 113152.18899999978,
      "d": 1282.608866666662,
      "v": 54
    },
    {
      "midi": 62,
      "hit": false,
      "t": 113152.18899999978,
      "d": 1293.4784333333228,
      "v": 88
    },
    {
      "midi": 65,
      "hit": false,
      "t": 113152.18899999978,
      "d": 1320.6523499999894,
      "v": 70
    },
    {
      "midi": 64,
      "hit": false,
      "t": 113489.14556666651,
      "d": 739.1305333333294,
      "v": 122
    },
    {
      "midi": 40,
      "hit": false,
      "t": 113489.14556666651,
      "d": 766.304449999996,
      "v": 122
    },
    {
      "midi": 60,
      "hit": false,
      "t": 113489.14556666651,
      "d": 766.304449999996,
      "v": 122
    },
    {
      "midi": 57,
      "hit": false,
      "t": 113489.14556666651,
      "d": 1396.7393166666589,
      "v": 122
    },
    {
      "midi": 77,
      "hit": false,
      "t": 114130.44999999978,
      "d": 195.6521999999968,
      "v": 79
    },
    {
      "midi": 62,
      "hit": false,
      "t": 114141.31956666651,
      "d": 619.565300000002,
      "v": 122
    },
    {
      "midi": 41,
      "hit": false,
      "t": 114141.31956666651,
      "d": 755.4348833333206,
      "v": 122
    },
    {
      "midi": 81,
      "hit": false,
      "t": 114456.53699999976,
      "d": 146.73915000000852,
      "v": 78
    },
    {
      "midi": 60,
      "hit": false,
      "t": 114782.62399999978,
      "d": 619.565300000002,
      "v": 73
    },
    {
      "midi": 57,
      "hit": false,
      "t": 114782.62399999978,
      "d": 663.0435666666745,
      "v": 56
    },
    {
      "midi": 65,
      "hit": false,
      "t": 114782.62399999978,
      "d": 673.9131333333353,
      "v": 69
    },
    {
      "midi": 69,
      "hit": false,
      "t": 114782.62399999978,
      "d": 673.9131333333353,
      "v": 64
    },
    {
      "midi": 60,
      "hit": false,
      "t": 114793.49356666651,
      "d": 619.5652999999875,
      "v": 122
    },
    {
      "midi": 65,
      "hit": false,
      "t": 114793.49356666651,
      "d": 619.5652999999875,
      "v": 122
    },
    {
      "midi": 31,
      "hit": false,
      "t": 114793.49356666651,
      "d": 1228.2610333333141,
      "v": 122
    },
    {
      "midi": 43,
      "hit": false,
      "t": 114793.49356666651,
      "d": 1228.2610333333141,
      "v": 122
    },
    {
      "midi": 69,
      "hit": false,
      "t": 114793.49356666651,
      "d": 1396.7393166666443,
      "v": 122
    },
    {
      "midi": 60,
      "hit": false,
      "t": 115445.6675666665,
      "d": 755.4348833333206,
      "v": 122
    },
    {
      "midi": 65,
      "hit": false,
      "t": 115445.6675666665,
      "d": 755.4348833333206,
      "v": 122
    },
    {
      "midi": 57,
      "hit": false,
      "t": 115760.88499999978,
      "d": 326.08699999999953,
      "v": 54
    },
    {
      "midi": 60,
      "hit": false,
      "t": 115760.88499999978,
      "d": 326.08699999999953,
      "v": 88
    },
    {
      "midi": 65,
      "hit": false,
      "t": 115760.88499999978,
      "d": 326.08699999999953,
      "v": 70
    },
    {
      "midi": 69,
      "hit": false,
      "t": 115760.88499999978,
      "d": 326.08699999999953,
      "v": 71
    },
    {
      "midi": 59,
      "hit": false,
      "t": 116086.97199999978,
      "d": 619.565300000002,
      "v": 73
    },
    {
      "midi": 55,
      "hit": false,
      "t": 116086.97199999978,
      "d": 663.0435666666745,
      "v": 56
    },
    {
      "midi": 62,
      "hit": false,
      "t": 116086.97199999978,
      "d": 673.9131333333353,
      "v": 69
    },
    {
      "midi": 65,
      "hit": false,
      "t": 116086.97199999978,
      "d": 673.9131333333353,
      "v": 64
    },
    {
      "midi": 43,
      "hit": false,
      "t": 116097.8415666665,
      "d": 1396.7393166666443,
      "v": 122
    },
    {
      "midi": 53,
      "hit": false,
      "t": 116097.8415666665,
      "d": 1413.0436666666355,
      "v": 122
    },
    {
      "midi": 31,
      "hit": false,
      "t": 116097.8415666665,
      "d": 1423.9132333332964,
      "v": 122
    },
    {
      "midi": 59,
      "hit": false,
      "t": 116097.8415666665,
      "d": 1423.9132333332964,
      "v": 122
    },
    {
      "midi": 57,
      "hit": false,
      "t": 116152.18939999983,
      "d": 570.6522499999846,
      "v": 122
    },
    {
      "midi": 56,
      "hit": false,
      "t": 116750.01556666648,
      "d": 755.4348833333206,
      "v": 122
    },
    {
      "midi": 55,
      "hit": false,
      "t": 117065.23299999977,
      "d": 326.08699999999953,
      "v": 54
    },
    {
      "midi": 59,
      "hit": false,
      "t": 117065.23299999977,
      "d": 326.08699999999953,
      "v": 88
    },
    {
      "midi": 62,
      "hit": false,
      "t": 117065.23299999977,
      "d": 326.08699999999953,
      "v": 70
    },
    {
      "midi": 65,
      "hit": false,
      "t": 117065.23299999977,
      "d": 326.08699999999953,
      "v": 71
    },
    {
      "midi": 36,
      "hit": false,
      "t": 117402.18956666648,
      "d": 793.4783666666481,
      "v": 122
    },
    {
      "midi": 60,
      "hit": false,
      "t": 117402.18956666648,
      "d": 1413.04366666665,
      "v": 122
    },
    {
      "midi": 52,
      "hit": false,
      "t": 117402.18956666648,
      "d": 1440.2175833333167,
      "v": 122
    },
    {
      "midi": 55,
      "hit": false,
      "t": 117402.18956666648,
      "d": 1440.2175833333167,
      "v": 122
    },
    {
      "midi": 48,
      "hit": false,
      "t": 117407.62434999978,
      "d": 1288.0436499999923,
      "v": 67
    },
    {
      "midi": 55,
      "hit": false,
      "t": 117527.18958333311,
      "d": 1168.478416666665,
      "v": 85
    },
    {
      "midi": 64,
      "hit": false,
      "t": 117652.18959999978,
      "d": 1043.4783999999927,
      "v": 65
    },
    {
      "midi": 67,
      "hit": false,
      "t": 117766.32004999978,
      "d": 929.3479499999958,
      "v": 59
    },
    {
      "midi": 72,
      "hit": false,
      "t": 117858.71136666644,
      "d": 836.956633333335,
      "v": 60
    },
    {
      "midi": 79,
      "hit": false,
      "t": 117972.84181666643,
      "d": 722.8261833333381,
      "v": 65
    },
    {
      "midi": 43,
      "hit": false,
      "t": 118054.36356666646,
      "d": 619.565300000002,
      "v": 122
    },
    {
      "midi": 59,
      "hit": false,
      "t": 118695.66799999977,
      "d": 619.565300000002,
      "v": 73
    },
    {
      "midi": 57,
      "hit": false,
      "t": 118695.66799999977,
      "d": 663.0435666666745,
      "v": 56
    },
    {
      "midi": 62,
      "hit": false,
      "t": 118695.66799999977,
      "d": 673.9131333333353,
      "v": 69
    },
    {
      "midi": 65,
      "hit": false,
      "t": 118695.66799999977,
      "d": 673.9131333333353,
      "v": 64
    },
    {
      "midi": 57,
      "hit": false,
      "t": 118706.53756666646,
      "d": 711.9566166666627,
      "v": 122
    },
    {
      "midi": 64,
      "hit": false,
      "t": 118706.53756666646,
      "d": 766.304449999996,
      "v": 122
    },
    {
      "midi": 53,
      "hit": false,
      "t": 118706.53756666646,
      "d": 1282.608866666662,
      "v": 122
    },
    {
      "midi": 43,
      "hit": false,
      "t": 118706.53756666646,
      "d": 1298.9132166666677,
      "v": 122
    },
    {
      "midi": 67,
      "hit": false,
      "t": 118706.53756666646,
      "d": 1298.9132166666677,
      "v": 122
    },
    {
      "midi": 62,
      "hit": false,
      "t": 119358.71156666646,
      "d": 3097.8264999999956,
      "v": 122
    },
    {
      "midi": 57,
      "hit": false,
      "t": 119673.92899999977,
      "d": 326.08699999999953,
      "v": 54
    },
    {
      "midi": 59,
      "hit": false,
      "t": 119673.92899999977,
      "d": 326.08699999999953,
      "v": 88
    },
    {
      "midi": 62,
      "hit": false,
      "t": 119673.92899999977,
      "d": 326.08699999999953,
      "v": 70
    },
    {
      "midi": 65,
      "hit": false,
      "t": 119673.92899999977,
      "d": 326.08699999999953,
      "v": 71
    },
    {
      "midi": 57,
      "hit": false,
      "t": 120000.01599999977,
      "d": 1304.3479999999981,
      "v": 25
    },
    {
      "midi": 62,
      "hit": false,
      "t": 120000.01599999977,
      "d": 1304.3479999999981,
      "v": 88
    },
    {
      "midi": 66,
      "hit": false,
      "t": 120000.01599999977,
      "d": 1304.3479999999981,
      "v": 75
    },
    {
      "midi": 69,
      "hit": false,
      "t": 120000.01599999977,
      "d": 1304.3479999999981,
      "v": 79
    },
    {
      "midi": 57,
      "hit": false,
      "t": 120010.88556666646,
      "d": 766.304449999996,
      "v": 122
    },
    {
      "midi": 54,
      "hit": false,
      "t": 120010.88556666646,
      "d": 782.6088000000018,
      "v": 122
    },
    {
      "midi": 50,
      "hit": false,
      "t": 120010.88556666646,
      "d": 1423.9132333333255,
      "v": 122
    },
    {
      "midi": 38,
      "hit": false,
      "t": 120010.88556666646,
      "d": 1440.2175833333313,
      "v": 122
    },
    {
      "midi": 59,
      "hit": false,
      "t": 120163.05949999977,
      "d": 65.21739999999409,
      "v": 32
    },
    {
      "midi": 78,
      "hit": false,
      "t": 120326.10299999977,
      "d": 652.1739999999991,
      "v": 78
    },
    {
      "midi": 81,
      "hit": false,
      "t": 120652.18999999977,
      "d": 326.08699999999953,
      "v": 73
    },
    {
      "midi": 66,
      "hit": false,
      "t": 120663.05956666646,
      "d": 728.2609666666685,
      "v": 122
    },
    {
      "midi": 69,
      "hit": false,
      "t": 120663.05956666646,
      "d": 739.1305333333294,
      "v": 122
    },
    {
      "midi": 90,
      "hit": false,
      "t": 120978.27699999977,
      "d": 282.6087333333271,
      "v": 83
    },
    {
      "midi": 63,
      "hit": false,
      "t": 121315.23356666646,
      "d": 619.565300000002,
      "v": 122
    },
    {
      "midi": 67,
      "hit": false,
      "t": 121315.23356666646,
      "d": 755.4348833333352,
      "v": 122
    },
    {
      "midi": 59,
      "hit": false,
      "t": 121315.23356666646,
      "d": 766.304449999996,
      "v": 122
    },
    {
      "midi": 47,
      "hit": false,
      "t": 121315.23356666646,
      "d": 1326.0871333333344,
      "v": 122
    },
    {
      "midi": 47,
      "hit": false,
      "t": 121320.66834999977,
      "d": 1288.0436499999923,
      "v": 67
    },
    {
      "midi": 57,
      "hit": false,
      "t": 121440.2335833331,
      "d": 1168.478416666665,
      "v": 85
    },
    {
      "midi": 63,
      "hit": false,
      "t": 121565.23359999977,
      "d": 1043.4783999999927,
      "v": 65
    },
    {
      "midi": 66,
      "hit": false,
      "t": 121679.36404999977,
      "d": 929.3479499999958,
      "v": 59
    },
    {
      "midi": 71,
      "hit": false,
      "t": 121771.75536666643,
      "d": 836.956633333335,
      "v": 60
    },
    {
      "midi": 78,
      "hit": false,
      "t": 121885.88581666643,
      "d": 722.8261833333381,
      "v": 65
    },
    {
      "midi": 63,
      "hit": false,
      "t": 121967.40756666646,
      "d": 619.565300000002,
      "v": 122
    },
    {
      "midi": 57,
      "hit": false,
      "t": 121967.40756666646,
      "d": 739.1305333333294,
      "v": 122
    },
    {
      "midi": 66,
      "hit": false,
      "t": 121967.40756666646,
      "d": 766.304449999996,
      "v": 122
    },
    {
      "midi": 59,
      "hit": false,
      "t": 122608.71199999977,
      "d": 619.565300000002,
      "v": 73
    },
    {
      "midi": 55,
      "hit": false,
      "t": 122608.71199999977,
      "d": 663.0435666666745,
      "v": 56
    },
    {
      "midi": 64,
      "hit": false,
      "t": 122608.71199999977,
      "d": 673.9131333333353,
      "v": 69
    },
    {
      "midi": 67,
      "hit": false,
      "t": 122608.71199999977,
      "d": 673.9131333333353,
      "v": 64
    },
    {
      "midi": 63,
      "hit": false,
      "t": 122619.58156666646,
      "d": 728.2609666666685,
      "v": 122
    },
    {
      "midi": 52,
      "hit": false,
      "t": 122619.58156666646,
      "d": 1413.0436666666646,
      "v": 122
    },
    {
      "midi": 55,
      "hit": false,
      "t": 122619.58156666646,
      "d": 1413.0436666666646,
      "v": 122
    },
    {
      "midi": 59,
      "hit": false,
      "t": 122619.58156666646,
      "d": 1413.0436666666646,
      "v": 122
    },
    {
      "midi": 64,
      "hit": false,
      "t": 123271.75556666646,
      "d": 766.304449999996,
      "v": 122
    },
    {
      "midi": 55,
      "hit": false,
      "t": 123586.97299999977,
      "d": 326.08699999999953,
      "v": 54
    },
    {
      "midi": 59,
      "hit": false,
      "t": 123586.97299999977,
      "d": 326.08699999999953,
      "v": 88
    },
    {
      "midi": 64,
      "hit": false,
      "t": 123586.97299999977,
      "d": 326.08699999999953,
      "v": 70
    },
    {
      "midi": 67,
      "hit": false,
      "t": 123586.97299999977,
      "d": 326.08699999999953,
      "v": 71
    },
    {
      "midi": 40,
      "hit": false,
      "t": 123923.92956666645,
      "d": 619.565300000002,
      "v": 122
    },
    {
      "midi": 62,
      "hit": false,
      "t": 123923.92956666645,
      "d": 1413.0436666666646,
      "v": 122
    },
    {
      "midi": 67,
      "hit": false,
      "t": 123923.92956666645,
      "d": 1413.0436666666646,
      "v": 122
    },
    {
      "midi": 71,
      "hit": false,
      "t": 123923.92956666645,
      "d": 1423.9132333333255,
      "v": 122
    },
    {
      "midi": 40,
      "hit": false,
      "t": 123929.36434999977,
      "d": 1288.0436499999923,
      "v": 67
    },
    {
      "midi": 55,
      "hit": false,
      "t": 124048.9295833331,
      "d": 1168.478416666665,
      "v": 85
    },
    {
      "midi": 62,
      "hit": false,
      "t": 124173.92959999977,
      "d": 1043.4783999999927,
      "v": 65
    },
    {
      "midi": 64,
      "hit": false,
      "t": 124288.06004999977,
      "d": 929.3479499999958,
      "v": 59
    },
    {
      "midi": 71,
      "hit": false,
      "t": 124380.45136666643,
      "d": 836.956633333335,
      "v": 60
    },
    {
      "midi": 76,
      "hit": false,
      "t": 124494.58181666642,
      "d": 722.8261833333381,
      "v": 65
    },
    {
      "midi": 52,
      "hit": false,
      "t": 124576.10356666645,
      "d": 755.4348833333352,
      "v": 122
    },
    {
      "midi": 52,
      "hit": false,
      "t": 125217.40799999976,
      "d": 2608.6959999999817,
      "v": 66
    },
    {
      "midi": 61,
      "hit": false,
      "t": 125217.40799999976,
      "d": 2608.6959999999817,
      "v": 69
    },
    {
      "midi": 57,
      "hit": false,
      "t": 125222.8427833331,
      "d": 2603.2612166666513,
      "v": 65
    },
    {
      "midi": 61,
      "hit": false,
      "t": 125228.27756666645,
      "d": 157.6087166666548,
      "v": 122
    },
    {
      "midi": 55,
      "hit": false,
      "t": 125228.27756666645,
      "d": 782.6087999999872,
      "v": 122
    },
    {
      "midi": 45,
      "hit": false,
      "t": 125228.27756666645,
      "d": 2739.13079999997,
      "v": 122
    },
    {
      "midi": 55,
      "hit": false,
      "t": 125233.71234999975,
      "d": 2592.3916499999905,
      "v": 79
    },
    {
      "midi": 61,
      "hit": false,
      "t": 125396.75584999977,
      "d": 1228.2610333333287,
      "v": 122
    },
    {
      "midi": 57,
      "hit": false,
      "t": 125880.45156666644,
      "d": 755.4348833333206,
      "v": 122
    },
    {
      "midi": 73,
      "hit": false,
      "t": 125880.45156666644,
      "d": 766.3044499999814,
      "v": 122
    },
    {
      "midi": 69,
      "hit": false,
      "t": 125880.45156666644,
      "d": 793.4783666666481,
      "v": 122
    },
    {
      "midi": 67,
      "hit": false,
      "t": 126532.62556666644,
      "d": 619.5652999999875,
      "v": 122
    },
    {
      "midi": 71,
      "hit": false,
      "t": 126532.62556666644,
      "d": 728.260966666654,
      "v": 122
    },
    {
      "midi": 59,
      "hit": false,
      "t": 126532.62556666644,
      "d": 755.4348833333206,
      "v": 122
    },
    {
      "midi": 62,
      "hit": false,
      "t": 126532.62556666644,
      "d": 755.4348833333206,
      "v": 122
    },
    {
      "midi": 64,
      "hit": false,
      "t": 126864.14734999975,
      "d": 304.3478666666633,
      "v": 70
    },
    {
      "midi": 64,
      "hit": false,
      "t": 127184.79956666642,
      "d": 619.565300000002,
      "v": 122
    },
    {
      "midi": 67,
      "hit": false,
      "t": 127184.79956666642,
      "d": 619.565300000002,
      "v": 122
    },
    {
      "midi": 69,
      "hit": false,
      "t": 127184.79956666642,
      "d": 728.2609666666685,
      "v": 122
    },
    {
      "midi": 61,
      "hit": false,
      "t": 127184.79956666642,
      "d": 766.304449999996,
      "v": 122
    },
    {
      "midi": 69,
      "hit": false,
      "t": 127190.23434999975,
      "d": 326.08699999999953,
      "v": 68
    },
    {
      "midi": 64,
      "hit": false,
      "t": 127516.32134999975,
      "d": 309.78264999999374,
      "v": 74
    },
    {
      "midi": 65,
      "hit": false,
      "t": 127836.97356666642,
      "d": 766.304449999996,
      "v": 122
    },
    {
      "midi": 68,
      "hit": false,
      "t": 127836.97356666642,
      "d": 793.4783666666626,
      "v": 122
    },
    {
      "midi": 62,
      "hit": false,
      "t": 127836.97356666642,
      "d": 1413.0436666666646,
      "v": 122
    },
    {
      "midi": 50,
      "hit": false,
      "t": 127836.97356666642,
      "d": 1440.2175833333313,
      "v": 122
    },
    {
      "midi": 50,
      "hit": false,
      "t": 127842.40834999975,
      "d": 635.8696499999933,
      "v": 67
    },
    {
      "midi": 59,
      "hit": false,
      "t": 127961.97358333308,
      "d": 516.3044166666659,
      "v": 85
    },
    {
      "midi": 65,
      "hit": false,
      "t": 128086.97359999975,
      "d": 391.3043999999936,
      "v": 65
    },
    {
      "midi": 68,
      "hit": false,
      "t": 128201.10404999975,
      "d": 277.1739499999967,
      "v": 59
    },
    {
      "midi": 74,
      "hit": false,
      "t": 128293.49536666641,
      "d": 184.78263333333598,
      "v": 60
    },
    {
      "midi": 80,
      "hit": false,
      "t": 128407.6258166664,
      "d": 70.65218333333905,
      "v": 65
    },
    {
      "midi": 62,
      "hit": false,
      "t": 128478.27799999974,
      "d": 619.565300000002,
      "v": 73
    },
    {
      "midi": 57,
      "hit": false,
      "t": 128478.27799999974,
      "d": 652.1739999999991,
      "v": 56
    },
    {
      "midi": 66,
      "hit": false,
      "t": 128478.27799999974,
      "d": 652.1739999999991,
      "v": 69
    },
    {
      "midi": 69,
      "hit": false,
      "t": 128478.27799999974,
      "d": 652.1739999999991,
      "v": 64
    },
    {
      "midi": 66,
      "hit": false,
      "t": 128489.14756666642,
      "d": 619.565300000002,
      "v": 122
    },
    {
      "midi": 69,
      "hit": false,
      "t": 128489.14756666642,
      "d": 782.6088000000018,
      "v": 122
    },
    {
      "midi": 62,
      "hit": false,
      "t": 129130.45199999974,
      "d": 619.565300000002,
      "v": 73
    },
    {
      "midi": 57,
      "hit": false,
      "t": 129130.45199999974,
      "d": 663.0435666666745,
      "v": 56
    },
    {
      "midi": 66,
      "hit": false,
      "t": 129130.45199999974,
      "d": 673.9131333333353,
      "v": 69
    },
    {
      "midi": 69,
      "hit": false,
      "t": 129130.45199999974,
      "d": 673.9131333333353,
      "v": 64
    },
    {
      "midi": 45,
      "hit": false,
      "t": 129141.32156666642,
      "d": 782.6088000000018,
      "v": 122
    },
    {
      "midi": 71,
      "hit": false,
      "t": 129141.32156666642,
      "d": 1282.608866666662,
      "v": 122
    },
    {
      "midi": 66,
      "hit": false,
      "t": 129141.32156666642,
      "d": 1298.9132166666677,
      "v": 122
    },
    {
      "midi": 74,
      "hit": false,
      "t": 129141.32156666642,
      "d": 1298.9132166666677,
      "v": 122
    },
    {
      "midi": 57,
      "hit": false,
      "t": 129793.49556666642,
      "d": 619.565300000002,
      "v": 122
    },
    {
      "midi": 57,
      "hit": false,
      "t": 130108.71299999974,
      "d": 326.08699999999953,
      "v": 54
    },
    {
      "midi": 62,
      "hit": false,
      "t": 130108.71299999974,
      "d": 326.08699999999953,
      "v": 88
    },
    {
      "midi": 66,
      "hit": false,
      "t": 130108.71299999974,
      "d": 326.08699999999953,
      "v": 70
    },
    {
      "midi": 69,
      "hit": false,
      "t": 130108.71299999974,
      "d": 326.08699999999953,
      "v": 71
    },
    {
      "midi": 76,
      "hit": false,
      "t": 130445.66956666642,
      "d": 782.6087999999872,
      "v": 122
    },
    {
      "midi": 54,
      "hit": false,
      "t": 130445.66956666642,
      "d": 1244.5653833333345,
      "v": 122
    },
    {
      "midi": 62,
      "hit": false,
      "t": 130445.66956666642,
      "d": 1244.5653833333345,
      "v": 122
    },
    {
      "midi": 69,
      "hit": false,
      "t": 130445.66956666642,
      "d": 1396.7393166666734,
      "v": 122
    },
    {
      "midi": 50,
      "hit": false,
      "t": 130451.10434999975,
      "d": 1288.0436499999778,
      "v": 67
    },
    {
      "midi": 57,
      "hit": false,
      "t": 130570.66958333307,
      "d": 1168.4784166666504,
      "v": 85
    },
    {
      "midi": 66,
      "hit": false,
      "t": 130695.66959999975,
      "d": 1043.4783999999781,
      "v": 65
    },
    {
      "midi": 69,
      "hit": false,
      "t": 130809.80004999974,
      "d": 929.3479499999812,
      "v": 59
    },
    {
      "midi": 74,
      "hit": false,
      "t": 130902.1913666664,
      "d": 836.9566333333205,
      "v": 60
    },
    {
      "midi": 81,
      "hit": false,
      "t": 131016.3218166664,
      "d": 722.8261833333236,
      "v": 65
    },
    {
      "midi": 74,
      "hit": false,
      "t": 131097.84356666642,
      "d": 755.4348833333352,
      "v": 122
    },
    {
      "midi": 56,
      "hit": false,
      "t": 131739.14799999972,
      "d": 619.5652999999875,
      "v": 73
    },
    {
      "midi": 53,
      "hit": false,
      "t": 131739.14799999972,
      "d": 663.0435666666599,
      "v": 56
    },
    {
      "midi": 59,
      "hit": false,
      "t": 131739.14799999972,
      "d": 673.9131333333207,
      "v": 69
    },
    {
      "midi": 62,
      "hit": false,
      "t": 131739.14799999972,
      "d": 673.9131333333207,
      "v": 64
    },
    {
      "midi": 73,
      "hit": false,
      "t": 131750.0175666664,
      "d": 782.6087999999872,
      "v": 122
    },
    {
      "midi": 68,
      "hit": false,
      "t": 131750.0175666664,
      "d": 1353.261050000001,
      "v": 122
    },
    {
      "midi": 62,
      "hit": false,
      "t": 131750.0175666664,
      "d": 1423.9132333333255,
      "v": 122
    },
    {
      "midi": 53,
      "hit": false,
      "t": 131750.0175666664,
      "d": 1440.2175833333167,
      "v": 122
    },
    {
      "midi": 71,
      "hit": false,
      "t": 132402.1915666664,
      "d": 809.7827166666393,
      "v": 122
    },
    {
      "midi": 53,
      "hit": false,
      "t": 132717.40899999972,
      "d": 326.08699999999953,
      "v": 54
    },
    {
      "midi": 56,
      "hit": false,
      "t": 132717.40899999972,
      "d": 326.08699999999953,
      "v": 88
    },
    {
      "midi": 59,
      "hit": false,
      "t": 132717.40899999972,
      "d": 326.08699999999953,
      "v": 70
    },
    {
      "midi": 62,
      "hit": false,
      "t": 132717.40899999972,
      "d": 326.08699999999953,
      "v": 71
    },
    {
      "midi": 67,
      "hit": false,
      "t": 133043.49599999972,
      "d": 1951.0872166666377,
      "v": 69
    },
    {
      "midi": 55,
      "hit": false,
      "t": 133043.49599999972,
      "d": 2608.695999999967,
      "v": 66
    },
    {
      "midi": 64,
      "hit": false,
      "t": 133048.93078333305,
      "d": 2603.2612166666368,
      "v": 65
    },
    {
      "midi": 52,
      "hit": false,
      "t": 133054.3655666664,
      "d": 766.3044499999669,
      "v": 122
    },
    {
      "midi": 66,
      "hit": false,
      "t": 133054.3655666664,
      "d": 766.3044499999669,
      "v": 122
    },
    {
      "midi": 69,
      "hit": false,
      "t": 133054.3655666664,
      "d": 766.3044499999669,
      "v": 122
    },
    {
      "midi": 59,
      "hit": false,
      "t": 133054.3655666664,
      "d": 1201.087116666633,
      "v": 122
    },
    {
      "midi": 59,
      "hit": false,
      "t": 133059.8003499997,
      "d": 2592.391649999976,
      "v": 79
    },
    {
      "midi": 64,
      "hit": false,
      "t": 133706.53956666638,
      "d": 755.4348833333352,
      "v": 122
    },
    {
      "midi": 67,
      "hit": false,
      "t": 133706.53956666638,
      "d": 755.4348833333352,
      "v": 122
    },
    {
      "midi": 40,
      "hit": false,
      "t": 133706.53956666638,
      "d": 766.304449999996,
      "v": 122
    },
    {
      "midi": 62,
      "hit": false,
      "t": 134358.71356666638,
      "d": 728.260966666654,
      "v": 122
    },
    {
      "midi": 42,
      "hit": false,
      "t": 134358.71356666638,
      "d": 766.304449999996,
      "v": 122
    },
    {
      "midi": 66,
      "hit": false,
      "t": 134358.71356666638,
      "d": 766.304449999996,
      "v": 122
    },
    {
      "midi": 59,
      "hit": false,
      "t": 134358.71356666638,
      "d": 1608.695866666676,
      "v": 122
    },
    {
      "midi": 64,
      "hit": false,
      "t": 135010.88756666638,
      "d": 739.1305333333439,
      "v": 122
    },
    {
      "midi": 43,
      "hit": false,
      "t": 135010.88756666638,
      "d": 826.0870666666888,
      "v": 122
    },
    {
      "midi": 76,
      "hit": false,
      "t": 135016.32234999968,
      "d": 326.08699999999953,
      "v": 68
    },
    {
      "midi": 67,
      "hit": false,
      "t": 135342.40934999968,
      "d": 309.7826500000083,
      "v": 74
    },
    {
      "midi": 62,
      "hit": false,
      "t": 135652.1919999997,
      "d": 619.5652999999875,
      "v": 73
    },
    {
      "midi": 59,
      "hit": false,
      "t": 135652.1919999997,
      "d": 663.0435666666599,
      "v": 56
    },
    {
      "midi": 67,
      "hit": false,
      "t": 135652.1919999997,
      "d": 673.9131333333207,
      "v": 69
    },
    {
      "midi": 71,
      "hit": false,
      "t": 135652.1919999997,
      "d": 673.9131333333207,
      "v": 64
    },
    {
      "midi": 62,
      "hit": false,
      "t": 135663.06156666638,
      "d": 619.5653000000166,
      "v": 122
    },
    {
      "midi": 67,
      "hit": false,
      "t": 135663.06156666638,
      "d": 619.5653000000166,
      "v": 122
    },
    {
      "midi": 33,
      "hit": false,
      "t": 135663.06156666638,
      "d": 1228.2610333333723,
      "v": 122
    },
    {
      "midi": 45,
      "hit": false,
      "t": 135663.06156666638,
      "d": 1228.2610333333723,
      "v": 122
    },
    {
      "midi": 71,
      "hit": false,
      "t": 135663.06156666638,
      "d": 1413.0436666666938,
      "v": 122
    },
    {
      "midi": 62,
      "hit": false,
      "t": 136315.2355666664,
      "d": 739.1305333333439,
      "v": 122
    },
    {
      "midi": 67,
      "hit": false,
      "t": 136315.2355666664,
      "d": 739.1305333333439,
      "v": 122
    },
    {
      "midi": 59,
      "hit": false,
      "t": 136630.4529999997,
      "d": 326.08699999999953,
      "v": 54
    },
    {
      "midi": 62,
      "hit": false,
      "t": 136630.4529999997,
      "d": 326.08699999999953,
      "v": 88
    },
    {
      "midi": 67,
      "hit": false,
      "t": 136630.4529999997,
      "d": 326.08699999999953,
      "v": 70
    },
    {
      "midi": 71,
      "hit": false,
      "t": 136630.4529999997,
      "d": 326.08699999999953,
      "v": 71
    },
    {
      "midi": 52,
      "hit": false,
      "t": 136956.5399999997,
      "d": 1304.3479999999981,
      "v": 25
    },
    {
      "midi": 55,
      "hit": false,
      "t": 136956.5399999997,
      "d": 1304.3479999999981,
      "v": 88
    },
    {
      "midi": 57,
      "hit": false,
      "t": 136956.5399999997,
      "d": 1304.3479999999981,
      "v": 75
    },
    {
      "midi": 61,
      "hit": false,
      "t": 136956.5399999997,
      "d": 1304.3479999999981,
      "v": 79
    },
    {
      "midi": 61,
      "hit": false,
      "t": 136967.4095666664,
      "d": 1298.9132166666968,
      "v": 122
    },
    {
      "midi": 55,
      "hit": false,
      "t": 136967.4095666664,
      "d": 1396.7393166667025,
      "v": 122
    },
    {
      "midi": 45,
      "hit": false,
      "t": 136967.4095666664,
      "d": 1423.9132333333837,
      "v": 122
    },
    {
      "midi": 33,
      "hit": false,
      "t": 136967.4095666664,
      "d": 1451.0871500000358,
      "v": 122
    },
    {
      "midi": 59,
      "hit": false,
      "t": 137021.75739999974,
      "d": 570.6522500000137,
      "v": 122
    },
    {
      "midi": 53,
      "hit": false,
      "t": 137119.5834999997,
      "d": 65.21739999999409,
      "v": 32
    },
    {
      "midi": 69,
      "hit": false,
      "t": 137282.6269999997,
      "d": 652.1739999999991,
      "v": 78
    },
    {
      "midi": 76,
      "hit": false,
      "t": 137608.7139999997,
      "d": 326.08699999999953,
      "v": 73
    },
    {
      "midi": 58,
      "hit": false,
      "t": 137619.58356666644,
      "d": 782.6088000000163,
      "v": 122
    },
    {
      "midi": 81,
      "hit": false,
      "t": 137934.8009999997,
      "d": 282.6087333333271,
      "v": 83
    },
    {
      "midi": 57,
      "hit": false,
      "t": 138260.8879999997,
      "d": 1304.3479999999981,
      "v": 25
    },
    {
      "midi": 62,
      "hit": false,
      "t": 138260.8879999997,
      "d": 1304.3479999999981,
      "v": 88
    },
    {
      "midi": 66,
      "hit": false,
      "t": 138260.8879999997,
      "d": 1304.3479999999981,
      "v": 75
    },
    {
      "midi": 69,
      "hit": false,
      "t": 138260.8879999997,
      "d": 1304.3479999999981,
      "v": 79
    },
    {
      "midi": 38,
      "hit": false,
      "t": 138271.75756666643,
      "d": 445.6522333333269,
      "v": 122
    },
    {
      "midi": 69,
      "hit": false,
      "t": 138271.75756666643,
      "d": 570.6522499999846,
      "v": 122
    },
    {
      "midi": 66,
      "hit": false,
      "t": 138271.75756666643,
      "d": 1228.2610333333432,
      "v": 122
    },
    {
      "midi": 61,
      "hit": false,
      "t": 138271.75756666643,
      "d": 1369.5653999999922,
      "v": 122
    },
    {
      "midi": 57,
      "hit": false,
      "t": 138271.75756666643,
      "d": 1451.0871499999776,
      "v": 122
    },
    {
      "midi": 59,
      "hit": false,
      "t": 138423.9314999997,
      "d": 65.21739999999409,
      "v": 32
    },
    {
      "midi": 78,
      "hit": false,
      "t": 138586.9749999997,
      "d": 652.1739999999991,
      "v": 78
    },
    {
      "midi": 45,
      "hit": false,
      "t": 138597.84456666643,
      "d": 434.78266666666605,
      "v": 122
    },
    {
      "midi": 81,
      "hit": false,
      "t": 138913.06199999969,
      "d": 326.08699999999953,
      "v": 73
    },
    {
      "midi": 54,
      "hit": false,
      "t": 138923.93156666643,
      "d": 739.1305333333148,
      "v": 122
    },
    {
      "midi": 69,
      "hit": false,
      "t": 138923.93156666643,
      "d": 782.6087999999872,
      "v": 122
    },
    {
      "midi": 90,
      "hit": false,
      "t": 139239.14899999968,
      "d": 282.6087333333271,
      "v": 83
    },
    {
      "midi": 52,
      "hit": false,
      "t": 139565.23599999968,
      "d": 1304.3479999999981,
      "v": 25
    },
    {
      "midi": 55,
      "hit": false,
      "t": 139565.23599999968,
      "d": 1304.3479999999981,
      "v": 88
    },
    {
      "midi": 57,
      "hit": false,
      "t": 139565.23599999968,
      "d": 1304.3479999999981,
      "v": 75
    },
    {
      "midi": 61,
      "hit": false,
      "t": 139565.23599999968,
      "d": 1304.3479999999981,
      "v": 79
    },
    {
      "midi": 59,
      "hit": false,
      "t": 139576.10556666643,
      "d": 755.4348833333061,
      "v": 122
    },
    {
      "midi": 66,
      "hit": false,
      "t": 139576.10556666643,
      "d": 766.3044499999669,
      "v": 122
    },
    {
      "midi": 45,
      "hit": false,
      "t": 139576.10556666643,
      "d": 1298.9132166666386,
      "v": 122
    },
    {
      "midi": 55,
      "hit": false,
      "t": 139576.10556666643,
      "d": 1342.391483333311,
      "v": 122
    },
    {
      "midi": 53,
      "hit": false,
      "t": 139728.27949999968,
      "d": 65.21739999999409,
      "v": 32
    },
    {
      "midi": 69,
      "hit": false,
      "t": 139891.32299999968,
      "d": 652.1739999999991,
      "v": 78
    },
    {
      "midi": 76,
      "hit": false,
      "t": 140217.40999999968,
      "d": 326.08699999999953,
      "v": 73
    },
    {
      "midi": 61,
      "hit": false,
      "t": 140228.2795666664,
      "d": 3097.8264999999956,
      "v": 122
    },
    {
      "midi": 64,
      "hit": false,
      "t": 140228.2795666664,
      "d": 3097.8264999999956,
      "v": 122
    },
    {
      "midi": 81,
      "hit": false,
      "t": 140543.49699999968,
      "d": 282.6087333333271,
      "v": 83
    },
    {
      "midi": 62,
      "hit": false,
      "t": 140869.58399999968,
      "d": 619.5652999999875,
      "v": 73
    },
    {
      "midi": 57,
      "hit": false,
      "t": 140869.58399999968,
      "d": 663.0435666666599,
      "v": 56
    },
    {
      "midi": 66,
      "hit": false,
      "t": 140869.58399999968,
      "d": 673.9131333333207,
      "v": 69
    },
    {
      "midi": 69,
      "hit": false,
      "t": 140869.58399999968,
      "d": 673.9131333333207,
      "v": 64
    },
    {
      "midi": 57,
      "hit": false,
      "t": 140880.4535666664,
      "d": 766.304449999996,
      "v": 122
    },
    {
      "midi": 54,
      "hit": false,
      "t": 140880.4535666664,
      "d": 782.6087999999872,
      "v": 122
    },
    {
      "midi": 50,
      "hit": false,
      "t": 140880.4535666664,
      "d": 1423.9132333333255,
      "v": 122
    },
    {
      "midi": 38,
      "hit": false,
      "t": 140880.4535666664,
      "d": 1440.2175833333167,
      "v": 122
    },
    {
      "midi": 66,
      "hit": false,
      "t": 141532.6275666664,
      "d": 728.260966666654,
      "v": 122
    },
    {
      "midi": 69,
      "hit": false,
      "t": 141532.6275666664,
      "d": 739.1305333333148,
      "v": 122
    },
    {
      "midi": 57,
      "hit": false,
      "t": 141847.84499999968,
      "d": 326.08699999999953,
      "v": 54
    },
    {
      "midi": 62,
      "hit": false,
      "t": 141847.84499999968,
      "d": 326.08699999999953,
      "v": 88
    },
    {
      "midi": 66,
      "hit": false,
      "t": 141847.84499999968,
      "d": 326.08699999999953,
      "v": 70
    },
    {
      "midi": 69,
      "hit": false,
      "t": 141847.84499999968,
      "d": 326.08699999999953,
      "v": 71
    },
    {
      "midi": 63,
      "hit": false,
      "t": 142184.8015666664,
      "d": 619.5652999999875,
      "v": 122
    },
    {
      "midi": 67,
      "hit": false,
      "t": 142184.8015666664,
      "d": 755.4348833333352,
      "v": 122
    },
    {
      "midi": 59,
      "hit": false,
      "t": 142184.8015666664,
      "d": 766.304449999996,
      "v": 122
    },
    {
      "midi": 47,
      "hit": false,
      "t": 142184.8015666664,
      "d": 1326.0871333333198,
      "v": 122
    },
    {
      "midi": 47,
      "hit": false,
      "t": 142190.23634999967,
      "d": 1288.043650000007,
      "v": 67
    },
    {
      "midi": 57,
      "hit": false,
      "t": 142309.801583333,
      "d": 1168.4784166666795,
      "v": 85
    },
    {
      "midi": 63,
      "hit": false,
      "t": 142434.80159999966,
      "d": 1043.4784000000218,
      "v": 65
    },
    {
      "midi": 66,
      "hit": false,
      "t": 142548.93204999965,
      "d": 929.3479500000249,
      "v": 59
    },
    {
      "midi": 71,
      "hit": false,
      "t": 142641.32336666633,
      "d": 836.9566333333496,
      "v": 60
    },
    {
      "midi": 78,
      "hit": false,
      "t": 142755.45381666636,
      "d": 722.8261833333236,
      "v": 65
    },
    {
      "midi": 63,
      "hit": false,
      "t": 142836.9755666664,
      "d": 619.5652999999875,
      "v": 122
    },
    {
      "midi": 57,
      "hit": false,
      "t": 142836.9755666664,
      "d": 739.1305333333148,
      "v": 122
    },
    {
      "midi": 66,
      "hit": false,
      "t": 142836.9755666664,
      "d": 766.304449999996,
      "v": 122
    },
    {
      "midi": 59,
      "hit": false,
      "t": 143478.27999999968,
      "d": 619.5652999999875,
      "v": 73
    },
    {
      "midi": 55,
      "hit": false,
      "t": 143478.27999999968,
      "d": 663.0435666666599,
      "v": 56
    },
    {
      "midi": 64,
      "hit": false,
      "t": 143478.27999999968,
      "d": 673.9131333333207,
      "v": 69
    },
    {
      "midi": 67,
      "hit": false,
      "t": 143478.27999999968,
      "d": 673.9131333333207,
      "v": 64
    },
    {
      "midi": 63,
      "hit": false,
      "t": 143489.1495666664,
      "d": 728.260966666654,
      "v": 122
    },
    {
      "midi": 52,
      "hit": false,
      "t": 143489.1495666664,
      "d": 1413.0436666666646,
      "v": 122
    },
    {
      "midi": 55,
      "hit": false,
      "t": 143489.1495666664,
      "d": 1413.0436666666646,
      "v": 122
    },
    {
      "midi": 59,
      "hit": false,
      "t": 143489.1495666664,
      "d": 1413.0436666666646,
      "v": 122
    },
    {
      "midi": 64,
      "hit": false,
      "t": 144141.3235666664,
      "d": 766.304449999996,
      "v": 122
    },
    {
      "midi": 55,
      "hit": false,
      "t": 144456.54099999968,
      "d": 326.08699999999953,
      "v": 54
    },
    {
      "midi": 59,
      "hit": false,
      "t": 144456.54099999968,
      "d": 326.08699999999953,
      "v": 88
    },
    {
      "midi": 64,
      "hit": false,
      "t": 144456.54099999968,
      "d": 326.08699999999953,
      "v": 70
    },
    {
      "midi": 67,
      "hit": false,
      "t": 144456.54099999968,
      "d": 326.08699999999953,
      "v": 71
    },
    {
      "midi": 55,
      "hit": false,
      "t": 144782.62799999968,
      "d": 619.5652999999875,
      "v": 73
    },
    {
      "midi": 52,
      "hit": false,
      "t": 144782.62799999968,
      "d": 663.0435666666599,
      "v": 56
    },
    {
      "midi": 59,
      "hit": false,
      "t": 144782.62799999968,
      "d": 673.9131333333207,
      "v": 69
    },
    {
      "midi": 62,
      "hit": false,
      "t": 144782.62799999968,
      "d": 673.9131333333207,
      "v": 64
    },
    {
      "midi": 40,
      "hit": false,
      "t": 144793.4975666664,
      "d": 619.5652999999875,
      "v": 122
    },
    {
      "midi": 62,
      "hit": false,
      "t": 144793.4975666664,
      "d": 1413.0436666666646,
      "v": 122
    },
    {
      "midi": 67,
      "hit": false,
      "t": 144793.4975666664,
      "d": 1413.0436666666646,
      "v": 122
    },
    {
      "midi": 71,
      "hit": false,
      "t": 144793.4975666664,
      "d": 1423.9132333333255,
      "v": 122
    },
    {
      "midi": 52,
      "hit": false,
      "t": 145445.6715666664,
      "d": 755.4348833333352,
      "v": 122
    },
    {
      "midi": 52,
      "hit": false,
      "t": 145760.88899999968,
      "d": 326.08699999999953,
      "v": 54
    },
    {
      "midi": 55,
      "hit": false,
      "t": 145760.88899999968,
      "d": 326.08699999999953,
      "v": 88
    },
    {
      "midi": 59,
      "hit": false,
      "t": 145760.88899999968,
      "d": 326.08699999999953,
      "v": 70
    },
    {
      "midi": 62,
      "hit": false,
      "t": 145760.88899999968,
      "d": 326.08699999999953,
      "v": 71
    },
    {
      "midi": 55,
      "hit": false,
      "t": 146086.97599999967,
      "d": 619.5652999999875,
      "v": 73
    },
    {
      "midi": 52,
      "hit": false,
      "t": 146086.97599999967,
      "d": 663.0435666666599,
      "v": 56
    },
    {
      "midi": 57,
      "hit": false,
      "t": 146086.97599999967,
      "d": 673.9131333333207,
      "v": 69
    },
    {
      "midi": 61,
      "hit": false,
      "t": 146086.97599999967,
      "d": 673.9131333333207,
      "v": 64
    },
    {
      "midi": 61,
      "hit": false,
      "t": 146097.8455666664,
      "d": 157.60871666666935,
      "v": 122
    },
    {
      "midi": 55,
      "hit": false,
      "t": 146097.8455666664,
      "d": 782.6087999999872,
      "v": 122
    },
    {
      "midi": 45,
      "hit": false,
      "t": 146097.8455666664,
      "d": 2739.1308000000427,
      "v": 122
    },
    {
      "midi": 61,
      "hit": false,
      "t": 146266.32384999972,
      "d": 1228.2610333333432,
      "v": 122
    },
    {
      "midi": 57,
      "hit": false,
      "t": 146750.0195666664,
      "d": 755.4348833333352,
      "v": 122
    },
    {
      "midi": 73,
      "hit": false,
      "t": 146750.0195666664,
      "d": 766.304449999996,
      "v": 122
    },
    {
      "midi": 69,
      "hit": false,
      "t": 146750.0195666664,
      "d": 793.4783666666772,
      "v": 122
    },
    {
      "midi": 52,
      "hit": false,
      "t": 147065.23699999967,
      "d": 1282.6088666666474,
      "v": 54
    },
    {
      "midi": 55,
      "hit": false,
      "t": 147065.23699999967,
      "d": 1293.4784333333082,
      "v": 88
    },
    {
      "midi": 57,
      "hit": false,
      "t": 147065.23699999967,
      "d": 1320.6523499999603,
      "v": 70
    },
    {
      "midi": 61,
      "hit": false,
      "t": 147065.23699999967,
      "d": 1331.521916666621,
      "v": 71
    },
    {
      "midi": 67,
      "hit": false,
      "t": 147402.1935666664,
      "d": 619.5653000000166,
      "v": 122
    },
    {
      "midi": 71,
      "hit": false,
      "t": 147402.1935666664,
      "d": 728.2609666666831,
      "v": 122
    },
    {
      "midi": 59,
      "hit": false,
      "t": 147402.1935666664,
      "d": 755.4348833333643,
      "v": 122
    },
    {
      "midi": 62,
      "hit": false,
      "t": 147402.1935666664,
      "d": 755.4348833333643,
      "v": 122
    },
    {
      "midi": 64,
      "hit": false,
      "t": 147717.41099999967,
      "d": 500.00006666666013,
      "v": 68
    },
    {
      "midi": 69,
      "hit": false,
      "t": 148043.49799999967,
      "d": 195.65219999998226,
      "v": 79
    },
    {
      "midi": 64,
      "hit": false,
      "t": 148054.36756666642,
      "d": 619.5653000000166,
      "v": 122
    },
    {
      "midi": 67,
      "hit": false,
      "t": 148054.36756666642,
      "d": 619.5653000000166,
      "v": 122
    },
    {
      "midi": 69,
      "hit": false,
      "t": 148054.36756666642,
      "d": 728.2609666666831,
      "v": 122
    },
    {
      "midi": 61,
      "hit": false,
      "t": 148054.36756666642,
      "d": 766.3044500000251,
      "v": 122
    },
    {
      "midi": 73,
      "hit": false,
      "t": 148369.58499999964,
      "d": 146.73914999997942,
      "v": 78
    },
    {
      "midi": 56,
      "hit": false,
      "t": 148695.6719999996,
      "d": 652.1739999999991,
      "v": 25
    },
    {
      "midi": 59,
      "hit": false,
      "t": 148695.6719999996,
      "d": 652.1739999999991,
      "v": 88
    },
    {
      "midi": 62,
      "hit": false,
      "t": 148695.6719999996,
      "d": 652.1739999999991,
      "v": 75
    },
    {
      "midi": 65,
      "hit": false,
      "t": 148695.6719999996,
      "d": 652.1739999999991,
      "v": 79
    },
    {
      "midi": 65,
      "hit": false,
      "t": 148706.54156666645,
      "d": 766.304449999996,
      "v": 122
    },
    {
      "midi": 68,
      "hit": false,
      "t": 148706.54156666645,
      "d": 793.4783666666772,
      "v": 122
    },
    {
      "midi": 62,
      "hit": false,
      "t": 148706.54156666645,
      "d": 1413.0436666666938,
      "v": 122
    },
    {
      "midi": 50,
      "hit": false,
      "t": 148706.54156666645,
      "d": 1440.2175833333458,
      "v": 122
    },
    {
      "midi": 58,
      "hit": false,
      "t": 148858.7154999996,
      "d": 65.21739999999409,
      "v": 32
    },
    {
      "midi": 74,
      "hit": false,
      "t": 149021.7589999996,
      "d": 326.08699999999953,
      "v": 78
    },
    {
      "midi": 66,
      "hit": false,
      "t": 149358.71556666645,
      "d": 619.5653000000166,
      "v": 122
    },
    {
      "midi": 69,
      "hit": false,
      "t": 149358.71556666645,
      "d": 782.6088000000163,
      "v": 122
    },
    {
      "midi": 50,
      "hit": false,
      "t": 149364.1503499996,
      "d": 635.8696500000078,
      "v": 67
    },
    {
      "midi": 57,
      "hit": false,
      "t": 149483.71558333293,
      "d": 516.3044166666805,
      "v": 85
    },
    {
      "midi": 66,
      "hit": false,
      "t": 149608.7155999996,
      "d": 391.3044000000227,
      "v": 65
    },
    {
      "midi": 69,
      "hit": false,
      "t": 149722.84604999959,
      "d": 277.1739500000258,
      "v": 59
    },
    {
      "midi": 74,
      "hit": false,
      "t": 149815.23736666626,
      "d": 184.78263333335053,
      "v": 60
    },
    {
      "midi": 81,
      "hit": false,
      "t": 149929.3678166663,
      "d": 70.6521833333245,
      "v": 65
    },
    {
      "midi": 45,
      "hit": false,
      "t": 150010.88956666648,
      "d": 782.6087999999872,
      "v": 122
    },
    {
      "midi": 71,
      "hit": false,
      "t": 150010.88956666648,
      "d": 1282.6088666666474,
      "v": 122
    },
    {
      "midi": 66,
      "hit": false,
      "t": 150010.88956666648,
      "d": 1298.9132166666386,
      "v": 122
    },
    {
      "midi": 74,
      "hit": false,
      "t": 150010.88956666648,
      "d": 1298.9132166666386,
      "v": 122
    },
    {
      "midi": 50,
      "hit": false,
      "t": 150016.3243499996,
      "d": 1288.043650000007,
      "v": 67
    },
    {
      "midi": 57,
      "hit": false,
      "t": 150135.88958333293,
      "d": 1168.4784166666795,
      "v": 85
    },
    {
      "midi": 66,
      "hit": false,
      "t": 150260.8895999996,
      "d": 1043.4784000000218,
      "v": 65
    },
    {
      "midi": 69,
      "hit": false,
      "t": 150375.02004999958,
      "d": 929.3479500000249,
      "v": 59
    },
    {
      "midi": 74,
      "hit": false,
      "t": 150467.41136666626,
      "d": 836.9566333333496,
      "v": 60
    },
    {
      "midi": 81,
      "hit": false,
      "t": 150581.5418166663,
      "d": 722.8261833333236,
      "v": 65
    },
    {
      "midi": 57,
      "hit": false,
      "t": 150663.06356666647,
      "d": 619.5652999999875,
      "v": 122
    },
    {
      "midi": 57,
      "hit": false,
      "t": 151304.3679999996,
      "d": 1304.3479999999981,
      "v": 25
    },
    {
      "midi": 62,
      "hit": false,
      "t": 151304.3679999996,
      "d": 1304.3479999999981,
      "v": 88
    },
    {
      "midi": 66,
      "hit": false,
      "t": 151304.3679999996,
      "d": 1304.3479999999981,
      "v": 75
    },
    {
      "midi": 69,
      "hit": false,
      "t": 151304.3679999996,
      "d": 1304.3479999999981,
      "v": 79
    },
    {
      "midi": 76,
      "hit": false,
      "t": 151315.23756666644,
      "d": 782.6087999999872,
      "v": 122
    },
    {
      "midi": 54,
      "hit": false,
      "t": 151315.23756666644,
      "d": 1244.5653833333345,
      "v": 122
    },
    {
      "midi": 62,
      "hit": false,
      "t": 151315.23756666644,
      "d": 1244.5653833333345,
      "v": 122
    },
    {
      "midi": 69,
      "hit": false,
      "t": 151315.23756666644,
      "d": 1396.7393166666734,
      "v": 122
    },
    {
      "midi": 59,
      "hit": false,
      "t": 151467.4114999996,
      "d": 65.21739999999409,
      "v": 32
    },
    {
      "midi": 78,
      "hit": false,
      "t": 151630.4549999996,
      "d": 652.1739999999991,
      "v": 78
    },
    {
      "midi": 81,
      "hit": false,
      "t": 151956.5419999996,
      "d": 326.08699999999953,
      "v": 73
    },
    {
      "midi": 74,
      "hit": false,
      "t": 151967.41156666644,
      "d": 755.4348833333352,
      "v": 122
    },
    {
      "midi": 90,
      "hit": false,
      "t": 152282.6289999996,
      "d": 282.6087333333271,
      "v": 83
    },
    {
      "midi": 73,
      "hit": false,
      "t": 152619.58556666644,
      "d": 782.6087999999872,
      "v": 122
    },
    {
      "midi": 68,
      "hit": false,
      "t": 152619.58556666644,
      "d": 1244.5653833333345,
      "v": 122
    },
    {
      "midi": 62,
      "hit": false,
      "t": 152619.58556666644,
      "d": 1423.9132333333255,
      "v": 122
    },
    {
      "midi": 53,
      "hit": false,
      "t": 152619.58556666644,
      "d": 1440.2175833333167,
      "v": 122
    },
    {
      "midi": 41,
      "hit": false,
      "t": 152625.0203499996,
      "d": 1288.043650000007,
      "v": 67
    },
    {
      "midi": 56,
      "hit": false,
      "t": 152744.58558333293,
      "d": 1168.4784166666795,
      "v": 85
    },
    {
      "midi": 62,
      "hit": false,
      "t": 152869.58559999958,
      "d": 1043.4784000000218,
      "v": 65
    },
    {
      "midi": 65,
      "hit": false,
      "t": 152983.71604999958,
      "d": 929.3479500000249,
      "v": 59
    },
    {
      "midi": 71,
      "hit": false,
      "t": 153076.10736666626,
      "d": 836.9566333333496,
      "v": 60
    },
    {
      "midi": 77,
      "hit": false,
      "t": 153190.23781666628,
      "d": 722.8261833333236,
      "v": 65
    },
    {
      "midi": 71,
      "hit": false,
      "t": 153271.75956666644,
      "d": 826.0870666666597,
      "v": 122
    },
    {
      "midi": 59,
      "hit": false,
      "t": 153913.0639999996,
      "d": 619.5652999999875,
      "v": 73
    },
    {
      "midi": 55,
      "hit": false,
      "t": 153913.0639999996,
      "d": 663.0435666666599,
      "v": 56
    },
    {
      "midi": 64,
      "hit": false,
      "t": 153913.0639999996,
      "d": 673.9131333333207,
      "v": 69
    },
    {
      "midi": 67,
      "hit": false,
      "t": 153913.0639999996,
      "d": 673.9131333333207,
      "v": 64
    },
    {
      "midi": 69,
      "hit": false,
      "t": 153923.93356666644,
      "d": 711.9566166666627,
      "v": 122
    },
    {
      "midi": 52,
      "hit": false,
      "t": 153923.93356666644,
      "d": 739.1305333333439,
      "v": 122
    },
    {
      "midi": 66,
      "hit": false,
      "t": 153923.93356666644,
      "d": 755.4348833333352,
      "v": 122
    },
    {
      "midi": 59,
      "hit": false,
      "t": 153923.93356666644,
      "d": 1228.2610333333432,
      "v": 122
    },
    {
      "midi": 67,
      "hit": false,
      "t": 154576.10756666644,
      "d": 728.260966666654,
      "v": 122
    },
    {
      "midi": 40,
      "hit": false,
      "t": 154576.10756666644,
      "d": 766.304449999996,
      "v": 122
    },
    {
      "midi": 64,
      "hit": false,
      "t": 154576.10756666644,
      "d": 782.6087999999872,
      "v": 122
    },
    {
      "midi": 67,
      "hit": false,
      "t": 154891.3249999996,
      "d": 1152.1740666666592,
      "v": 71
    },
    {
      "midi": 55,
      "hit": false,
      "t": 154891.3249999996,
      "d": 1282.6088666666474,
      "v": 54
    },
    {
      "midi": 59,
      "hit": false,
      "t": 154891.3249999996,
      "d": 1293.4784333333082,
      "v": 88
    },
    {
      "midi": 64,
      "hit": false,
      "t": 154891.3249999996,
      "d": 1320.6523499999603,
      "v": 70
    },
    {
      "midi": 42,
      "hit": false,
      "t": 155228.28156666644,
      "d": 739.1305333333439,
      "v": 122
    },
    {
      "midi": 62,
      "hit": false,
      "t": 155228.28156666644,
      "d": 755.4348833333352,
      "v": 122
    },
    {
      "midi": 66,
      "hit": false,
      "t": 155228.28156666644,
      "d": 766.304449999996,
      "v": 122
    },
    {
      "midi": 59,
      "hit": false,
      "t": 155228.28156666644,
      "d": 1326.0871333333198,
      "v": 122
    },
    {
      "midi": 76,
      "hit": false,
      "t": 155869.5859999996,
      "d": 195.65219999998226,
      "v": 79
    },
    {
      "midi": 43,
      "hit": false,
      "t": 155880.45556666644,
      "d": 728.260966666654,
      "v": 122
    },
    {
      "midi": 64,
      "hit": false,
      "t": 155880.45556666644,
      "d": 766.304449999996,
      "v": 122
    },
    {
      "midi": 79,
      "hit": false,
      "t": 156195.67299999957,
      "d": 146.73914999997942,
      "v": 78
    },
    {
      "midi": 62,
      "hit": false,
      "t": 156532.62956666644,
      "d": 619.5652999999875,
      "v": 122
    },
    {
      "midi": 67,
      "hit": false,
      "t": 156532.62956666644,
      "d": 619.5652999999875,
      "v": 122
    },
    {
      "midi": 45,
      "hit": false,
      "t": 156532.62956666644,
      "d": 1228.2610333333432,
      "v": 122
    },
    {
      "midi": 71,
      "hit": false,
      "t": 156532.62956666644,
      "d": 1396.7393166666443,
      "v": 122
    },
    {
      "midi": 33,
      "hit": false,
      "t": 156532.62956666644,
      "d": 1467.3914999999688,
      "v": 122
    },
    {
      "midi": 40,
      "hit": false,
      "t": 156538.06434999953,
      "d": 1288.043650000007,
      "v": 67
    },
    {
      "midi": 55,
      "hit": false,
      "t": 156657.62958333286,
      "d": 1168.4784166666795,
      "v": 85
    },
    {
      "midi": 64,
      "hit": false,
      "t": 156782.62959999952,
      "d": 1043.4784000000218,
      "v": 65
    },
    {
      "midi": 67,
      "hit": false,
      "t": 156896.76004999952,
      "d": 929.3479500000249,
      "v": 59
    },
    {
      "midi": 71,
      "hit": false,
      "t": 156989.1513666662,
      "d": 836.9566333333496,
      "v": 60
    },
    {
      "midi": 79,
      "hit": false,
      "t": 157103.28181666622,
      "d": 722.8261833333236,
      "v": 65
    },
    {
      "midi": 62,
      "hit": false,
      "t": 157184.80356666644,
      "d": 728.260966666654,
      "v": 122
    },
    {
      "midi": 67,
      "hit": false,
      "t": 157184.80356666644,
      "d": 755.4348833333061,
      "v": 122
    },
    {
      "midi": 55,
      "hit": false,
      "t": 157836.97756666644,
      "d": 923.9131666666653,
      "v": 122
    },
    {
      "midi": 45,
      "hit": false,
      "t": 157836.97756666644,
      "d": 1423.9132333333837,
      "v": 122
    },
    {
      "midi": 61,
      "hit": false,
      "t": 157836.97756666644,
      "d": 1440.217583333375,
      "v": 122
    },
    {
      "midi": 45,
      "hit": false,
      "t": 157842.41234999953,
      "d": 1288.043650000007,
      "v": 67
    },
    {
      "midi": 59,
      "hit": false,
      "t": 157891.32539999977,
      "d": 570.6522499999846,
      "v": 122
    },
    {
      "midi": 55,
      "hit": false,
      "t": 157961.97758333286,
      "d": 1168.4784166666795,
      "v": 85
    },
    {
      "midi": 61,
      "hit": false,
      "t": 158086.97759999952,
      "d": 1043.4784000000218,
      "v": 65
    },
    {
      "midi": 64,
      "hit": false,
      "t": 158201.10804999952,
      "d": 929.3479500000249,
      "v": 59
    },
    {
      "midi": 69,
      "hit": false,
      "t": 158293.4993666662,
      "d": 836.9566333333496,
      "v": 60
    },
    {
      "midi": 76,
      "hit": false,
      "t": 158407.62981666622,
      "d": 722.8261833333236,
      "v": 65
    },
    {
      "midi": 57,
      "hit": false,
      "t": 158489.15156666643,
      "d": 407.60875000001397,
      "v": 122
    },
    {
      "midi": 55,
      "hit": false,
      "t": 158815.23856666643,
      "d": 407.6087500000431,
      "v": 122
    },
    {
      "midi": 62,
      "hit": false,
      "t": 159130.45599999954,
      "d": 619.5652999999875,
      "v": 73
    },
    {
      "midi": 57,
      "hit": false,
      "t": 159130.45599999954,
      "d": 663.0435666666599,
      "v": 56
    },
    {
      "midi": 66,
      "hit": false,
      "t": 159130.45599999954,
      "d": 673.9131333333207,
      "v": 69
    },
    {
      "midi": 69,
      "hit": false,
      "t": 159130.45599999954,
      "d": 673.9131333333207,
      "v": 64
    },
    {
      "midi": 57,
      "hit": false,
      "t": 159141.32556666646,
      "d": 619.5653000000166,
      "v": 122
    },
    {
      "midi": 50,
      "hit": false,
      "t": 159141.32556666646,
      "d": 2597.8264333333645,
      "v": 122
    },
    {
      "midi": 38,
      "hit": false,
      "t": 159141.32556666646,
      "d": 2739.1308000000136,
      "v": 122
    },
    {
      "midi": 61,
      "hit": false,
      "t": 159793.4995666665,
      "d": 755.4348833333352,
      "v": 122
    },
    {
      "midi": 57,
      "hit": false,
      "t": 159793.4995666665,
      "d": 766.304449999996,
      "v": 122
    },
    {
      "midi": 69,
      "hit": false,
      "t": 160108.71699999954,
      "d": 1152.1740666666592,
      "v": 71
    },
    {
      "midi": 57,
      "hit": false,
      "t": 160108.71699999954,
      "d": 1282.6088666666474,
      "v": 54
    },
    {
      "midi": 62,
      "hit": false,
      "t": 160108.71699999954,
      "d": 1293.4784333333082,
      "v": 88
    },
    {
      "midi": 66,
      "hit": false,
      "t": 160108.71699999954,
      "d": 1320.6523499999603,
      "v": 70
    },
    {
      "midi": 59,
      "hit": false,
      "t": 160445.6735666665,
      "d": 766.304449999996,
      "v": 122
    },
    {
      "midi": 55,
      "hit": false,
      "t": 160445.6735666665,
      "d": 809.7827166666684,
      "v": 122
    },
    {
      "midi": 78,
      "hit": false,
      "t": 161086.97799999954,
      "d": 195.65219999998226,
      "v": 79
    },
    {
      "midi": 54,
      "hit": false,
      "t": 161097.8475666665,
      "d": 619.5653000000166,
      "v": 122
    },
    {
      "midi": 57,
      "hit": false,
      "t": 161097.8475666665,
      "d": 619.5653000000166,
      "v": 122
    },
    {
      "midi": 81,
      "hit": false,
      "t": 161413.0649999995,
      "d": 146.73914999997942,
      "v": 78
    },
    {
      "midi": 55,
      "hit": false,
      "t": 161739.15199999948,
      "d": 1304.3479999999981,
      "v": 17
    },
    {
      "midi": 58,
      "hit": false,
      "t": 161739.15199999948,
      "d": 1304.3479999999981,
      "v": 80
    },
    {
      "midi": 62,
      "hit": false,
      "t": 161739.15199999948,
      "d": 1304.3479999999981,
      "v": 67
    },
    {
      "midi": 64,
      "hit": false,
      "t": 161739.15199999948,
      "d": 1304.3479999999981,
      "v": 71
    },
    {
      "midi": 62,
      "hit": false,
      "t": 161750.0215666665,
      "d": 16.304349999991246,
      "v": 122
    },
    {
      "midi": 64,
      "hit": false,
      "t": 161750.0215666665,
      "d": 1396.7393166666734,
      "v": 122
    },
    {
      "midi": 55,
      "hit": false,
      "t": 161750.0215666665,
      "d": 1423.9132333333546,
      "v": 122
    },
    {
      "midi": 58,
      "hit": false,
      "t": 161750.0215666665,
      "d": 1423.9132333333546,
      "v": 122
    },
    {
      "midi": 57,
      "hit": false,
      "t": 161902.19549999948,
      "d": 65.21739999999409,
      "v": 24
    },
    {
      "midi": 74,
      "hit": false,
      "t": 162065.23899999948,
      "d": 652.1739999999991,
      "v": 70
    },
    {
      "midi": 79,
      "hit": false,
      "t": 162391.32599999948,
      "d": 326.08699999999953,
      "v": 65
    },
    {
      "midi": 45,
      "hit": false,
      "t": 162402.1955666665,
      "d": 1451.0871500000358,
      "v": 122
    },
    {
      "midi": 86,
      "hit": false,
      "t": 162717.41299999948,
      "d": 282.6087333333271,
      "v": 75
    },
    {
      "midi": 61,
      "hit": false,
      "t": 163054.3695666665,
      "d": 1244.5653833333636,
      "v": 122
    },
    {
      "midi": 57,
      "hit": false,
      "t": 163054.3695666665,
      "d": 1423.9132333333546,
      "v": 122
    },
    {
      "midi": 42,
      "hit": false,
      "t": 163059.80434999947,
      "d": 1288.043650000007,
      "v": 59
    },
    {
      "midi": 57,
      "hit": false,
      "t": 163179.3695833328,
      "d": 1168.4784166666795,
      "v": 77
    },
    {
      "midi": 66,
      "hit": false,
      "t": 163304.36959999945,
      "d": 1043.4784000000218,
      "v": 57
    },
    {
      "midi": 69,
      "hit": false,
      "t": 163418.50004999945,
      "d": 929.3479500000249,
      "v": 51
    },
    {
      "midi": 73,
      "hit": false,
      "t": 163510.89136666612,
      "d": 836.9566333333496,
      "v": 52
    },
    {
      "midi": 81,
      "hit": false,
      "t": 163625.02181666615,
      "d": 722.8261833333236,
      "v": 57
    },
    {
      "midi": 33,
      "hit": false,
      "t": 163706.5435666665,
      "d": 755.4348833333352,
      "v": 122
    },
    {
      "midi": 62,
      "hit": false,
      "t": 164347.84799999947,
      "d": 1233.6958166666736,
      "v": 66
    },
    {
      "midi": 57,
      "hit": false,
      "t": 164347.84799999947,
      "d": 1298.9132166666677,
      "v": 45
    },
    {
      "midi": 66,
      "hit": false,
      "t": 164347.84799999947,
      "d": 1304.3479999999981,
      "v": 53
    },
    {
      "midi": 69,
      "hit": false,
      "t": 164347.84799999947,
      "d": 1353.261050000001,
      "v": 52
    },
    {
      "midi": 74,
      "hit": false,
      "t": 164347.84799999947,
      "d": 1500.0002000000095,
      "v": 65
    },
    {
      "midi": 81,
      "hit": false,
      "t": 164347.84799999947,
      "d": 1548.9132500000123,
      "v": 59
    },
    {
      "midi": 66,
      "hit": false,
      "t": 164358.7175666665,
      "d": 21.73913333332166,
      "v": 122
    },
    {
      "midi": 38,
      "hit": false,
      "t": 164358.7175666665,
      "d": 619.5652999999875,
      "v": 122
    },
    {
      "midi": 61,
      "hit": false,
      "t": 164358.7175666665,
      "d": 1380.434966666653,
      "v": 122
    },
    {
      "midi": 69,
      "hit": false,
      "t": 164358.7175666665,
      "d": 2722.826449999993,
      "v": 122
    },
    {
      "midi": 45,
      "hit": false,
      "t": 165010.8915666665,
      "d": 1396.7393166666734,
      "v": 122
    },
    {
      "midi": 59,
      "hit": false,
      "t": 165663.0655666665,
      "d": 1326.0871333333198,
      "v": 122
    },
    {
      "midi": 62,
      "hit": false,
      "t": 165663.0655666665,
      "d": 1423.9132333333255,
      "v": 122
    },
    {
      "midi": 57,
      "hit": false,
      "t": 165978.2829999995,
      "d": 978.2609999999986,
      "v": 69
    },
    {
      "midi": 62,
      "hit": false,
      "t": 166141.3264999995,
      "d": 815.2174999999988,
      "v": 49
    },
    {
      "midi": 66,
      "hit": false,
      "t": 166304.3699999995,
      "d": 652.1739999999991,
      "v": 76
    },
    {
      "midi": 54,
      "hit": false,
      "t": 166315.2395666665,
      "d": 739.1305333333148,
      "v": 122
    },
    {
      "midi": 69,
      "hit": false,
      "t": 166467.4134999995,
      "d": 489.1304999999993,
      "v": 79
    },
    {
      "midi": 74,
      "hit": false,
      "t": 166793.5004999995,
      "d": 163.04349999999977,
      "v": 85
    },
    {
      "midi": 57,
      "hit": false,
      "t": 166956.5439999995,
      "d": 652.1739999999991,
      "v": 17
    },
    {
      "midi": 62,
      "hit": false,
      "t": 166956.5439999995,
      "d": 652.1739999999991,
      "v": 80
    },
    {
      "midi": 66,
      "hit": false,
      "t": 166956.5439999995,
      "d": 652.1739999999991,
      "v": 67
    },
    {
      "midi": 69,
      "hit": false,
      "t": 166956.5439999995,
      "d": 652.1739999999991,
      "v": 71
    },
    {
      "midi": 45,
      "hit": false,
      "t": 166967.4135666665,
      "d": 2570.6525166666543,
      "v": 122
    },
    {
      "midi": 59,
      "hit": false,
      "t": 167119.5874999995,
      "d": 65.21739999999409,
      "v": 24
    },
    {
      "midi": 78,
      "hit": false,
      "t": 167282.6309999995,
      "d": 326.08699999999953,
      "v": 70
    },
    {
      "midi": 59,
      "hit": false,
      "t": 167619.5875666665,
      "d": 619.5652999999875,
      "v": 122
    },
    {
      "midi": 64,
      "hit": false,
      "t": 167619.5875666665,
      "d": 766.304449999996,
      "v": 122
    },
    {
      "midi": 55,
      "hit": false,
      "t": 167619.5875666665,
      "d": 782.6087999999872,
      "v": 122
    },
    {
      "midi": 40,
      "hit": false,
      "t": 167625.0223499995,
      "d": 635.8696500000078,
      "v": 59
    },
    {
      "midi": 55,
      "hit": false,
      "t": 167744.58758333282,
      "d": 516.3044166666805,
      "v": 77
    },
    {
      "midi": 64,
      "hit": false,
      "t": 167869.58759999948,
      "d": 391.3044000000227,
      "v": 57
    },
    {
      "midi": 67,
      "hit": false,
      "t": 167983.71804999947,
      "d": 277.1739500000258,
      "v": 51
    },
    {
      "midi": 71,
      "hit": false,
      "t": 168076.10936666615,
      "d": 184.78263333335053,
      "v": 52
    },
    {
      "midi": 79,
      "hit": false,
      "t": 168190.23981666617,
      "d": 70.6521833333245,
      "v": 57
    },
    {
      "midi": 54,
      "hit": false,
      "t": 168260.8919999995,
      "d": 619.5652999999875,
      "v": 65
    },
    {
      "midi": 51,
      "hit": false,
      "t": 168260.8919999995,
      "d": 652.1739999999991,
      "v": 48
    },
    {
      "midi": 57,
      "hit": false,
      "t": 168260.8919999995,
      "d": 652.1739999999991,
      "v": 61
    },
    {
      "midi": 60,
      "hit": false,
      "t": 168260.8919999995,
      "d": 652.1739999999991,
      "v": 56
    },
    {
      "midi": 60,
      "hit": false,
      "t": 168271.7615666665,
      "d": 619.5652999999875,
      "v": 122
    },
    {
      "midi": 51,
      "hit": false,
      "t": 168271.7615666665,
      "d": 766.304449999996,
      "v": 122
    },
    {
      "midi": 66,
      "hit": false,
      "t": 168271.7615666665,
      "d": 836.9566333333205,
      "v": 122
    },
    {
      "midi": 55,
      "hit": false,
      "t": 168913.0659999995,
      "d": 619.5652999999875,
      "v": 65
    },
    {
      "midi": 52,
      "hit": false,
      "t": 168913.0659999995,
      "d": 652.1739999999991,
      "v": 48
    },
    {
      "midi": 57,
      "hit": false,
      "t": 168913.0659999995,
      "d": 652.1739999999991,
      "v": 61
    },
    {
      "midi": 61,
      "hit": false,
      "t": 168913.0659999995,
      "d": 652.1739999999991,
      "v": 56
    },
    {
      "midi": 52,
      "hit": false,
      "t": 168923.9355666665,
      "d": 619.5652999999875,
      "v": 122
    },
    {
      "midi": 67,
      "hit": false,
      "t": 168923.9355666665,
      "d": 619.5652999999875,
      "v": 122
    },
    {
      "midi": 61,
      "hit": false,
      "t": 168923.9355666665,
      "d": 782.6087999999872,
      "v": 122
    },
    {
      "midi": 68,
      "hit": false,
      "t": 169576.1095666665,
      "d": 434.78266666663694,
      "v": 122
    },
    {
      "midi": 53,
      "hit": false,
      "t": 169576.1095666665,
      "d": 586.9565999999759,
      "v": 122
    },
    {
      "midi": 62,
      "hit": false,
      "t": 169576.1095666665,
      "d": 586.9565999999759,
      "v": 122
    },
    {
      "midi": 50,
      "hit": false,
      "t": 169581.5443499995,
      "d": 635.8696500000078,
      "v": 59
    },
    {
      "midi": 59,
      "hit": false,
      "t": 169701.1095833328,
      "d": 516.3044166666805,
      "v": 77
    },
    {
      "midi": 65,
      "hit": false,
      "t": 169826.10959999947,
      "d": 391.3044000000227,
      "v": 57
    },
    {
      "midi": 71,
      "hit": false,
      "t": 169836.97916666648,
      "d": 505.43484999999055,
      "v": 122
    },
    {
      "midi": 68,
      "hit": false,
      "t": 169940.24004999947,
      "d": 277.1739500000258,
      "v": 51
    },
    {
      "midi": 74,
      "hit": false,
      "t": 170032.63136666614,
      "d": 184.78263333335053,
      "v": 52
    },
    {
      "midi": 80,
      "hit": false,
      "t": 170146.76181666617,
      "d": 70.6521833333245,
      "v": 57
    },
    {
      "midi": 57,
      "hit": false,
      "t": 170217.4139999995,
      "d": 652.1739999999991,
      "v": 17
    },
    {
      "midi": 62,
      "hit": false,
      "t": 170217.4139999995,
      "d": 652.1739999999991,
      "v": 80
    },
    {
      "midi": 66,
      "hit": false,
      "t": 170217.4139999995,
      "d": 652.1739999999991,
      "v": 67
    },
    {
      "midi": 69,
      "hit": false,
      "t": 170217.4139999995,
      "d": 652.1739999999991,
      "v": 71
    },
    {
      "midi": 54,
      "hit": false,
      "t": 170228.28356666648,
      "d": 1538.0436833333224,
      "v": 122
    },
    {
      "midi": 62,
      "hit": false,
      "t": 170228.28356666648,
      "d": 1576.0871666666644,
      "v": 122
    },
    {
      "midi": 69,
      "hit": false,
      "t": 170228.28356666648,
      "d": 1592.3915166666557,
      "v": 122
    },
    {
      "midi": 59,
      "hit": false,
      "t": 170380.4574999995,
      "d": 65.21739999999409,
      "v": 24
    },
    {
      "midi": 78,
      "hit": false,
      "t": 170543.5009999995,
      "d": 326.08699999999953,
      "v": 70
    },
    {
      "midi": 38,
      "hit": false,
      "t": 170880.45756666648,
      "d": 418.4783166666748,
      "v": 122
    },
    {
      "midi": 50,
      "hit": false,
      "t": 170885.89234999949,
      "d": 1288.043650000007,
      "v": 59
    },
    {
      "midi": 57,
      "hit": false,
      "t": 171005.4575833328,
      "d": 1168.4784166666795,
      "v": 77
    },
    {
      "midi": 66,
      "hit": false,
      "t": 171130.45759999947,
      "d": 1043.4784000000218,
      "v": 57
    },
    {
      "midi": 45,
      "hit": false,
      "t": 171206.54456666647,
      "d": 434.78266666666605,
      "v": 122
    },
    {
      "midi": 69,
      "hit": false,
      "t": 171244.58804999947,
      "d": 929.3479500000249,
      "v": 51
    },
    {
      "midi": 74,
      "hit": false,
      "t": 171336.97936666614,
      "d": 836.9566333333496,
      "v": 52
    },
    {
      "midi": 81,
      "hit": false,
      "t": 171451.10981666617,
      "d": 722.8261833333236,
      "v": 57
    },
    {
      "midi": 50,
      "hit": false,
      "t": 171532.63156666647,
      "d": 434.78266666666605,
      "v": 122
    },
    {
      "midi": 54,
      "hit": false,
      "t": 171858.71856666647,
      "d": 309.7826500000083,
      "v": 122
    },
    {
      "midi": 66,
      "hit": false,
      "t": 172173.9359999995,
      "d": 1951.0872166666377,
      "v": 61
    },
    {
      "midi": 54,
      "hit": false,
      "t": 172173.9359999995,
      "d": 2608.695999999967,
      "v": 58
    },
    {
      "midi": 62,
      "hit": false,
      "t": 172179.37078333282,
      "d": 2603.2612166666368,
      "v": 57
    },
    {
      "midi": 47,
      "hit": false,
      "t": 172184.80556666647,
      "d": 2711.9568833333615,
      "v": 122
    },
    {
      "midi": 59,
      "hit": false,
      "t": 172190.24034999948,
      "d": 2592.391649999976,
      "v": 71
    },
    {
      "midi": 62,
      "hit": false,
      "t": 172836.97956666647,
      "d": 619.5652999999875,
      "v": 122
    },
    {
      "midi": 66,
      "hit": false,
      "t": 172836.97956666647,
      "d": 619.5652999999875,
      "v": 122
    },
    {
      "midi": 57,
      "hit": false,
      "t": 172836.97956666647,
      "d": 728.260966666654,
      "v": 122
    },
    {
      "midi": 62,
      "hit": false,
      "t": 173489.15356666647,
      "d": 619.5652999999875,
      "v": 122
    },
    {
      "midi": 66,
      "hit": false,
      "t": 173489.15356666647,
      "d": 619.5652999999875,
      "v": 122
    },
    {
      "midi": 56,
      "hit": false,
      "t": 173489.15356666647,
      "d": 739.1305333333439,
      "v": 122
    },
    {
      "midi": 68,
      "hit": false,
      "t": 173489.15356666647,
      "d": 755.4348833333352,
      "v": 122
    },
    {
      "midi": 62,
      "hit": false,
      "t": 174141.32756666647,
      "d": 619.5653000000166,
      "v": 122
    },
    {
      "midi": 66,
      "hit": false,
      "t": 174141.32756666647,
      "d": 619.5653000000166,
      "v": 122
    },
    {
      "midi": 69,
      "hit": false,
      "t": 174141.32756666647,
      "d": 619.5653000000166,
      "v": 122
    },
    {
      "midi": 54,
      "hit": false,
      "t": 174141.32756666647,
      "d": 728.2609666666831,
      "v": 122
    },
    {
      "midi": 74,
      "hit": false,
      "t": 174146.76234999945,
      "d": 326.08699999999953,
      "v": 60
    },
    {
      "midi": 66,
      "hit": false,
      "t": 174472.84934999945,
      "d": 309.7826500000083,
      "v": 66
    },
    {
      "midi": 52,
      "hit": false,
      "t": 174782.63199999946,
      "d": 2608.6959999999963,
      "v": 58
    },
    {
      "midi": 62,
      "hit": false,
      "t": 174782.63199999946,
      "d": 2608.6959999999963,
      "v": 61
    },
    {
      "midi": 59,
      "hit": false,
      "t": 174788.0667833328,
      "d": 2603.261216666666,
      "v": 57
    },
    {
      "midi": 70,
      "hit": false,
      "t": 174793.5015666665,
      "d": 418.4783166666748,
      "v": 122
    },
    {
      "midi": 52,
      "hit": false,
      "t": 174793.5015666665,
      "d": 1413.0436666666646,
      "v": 122
    },
    {
      "midi": 56,
      "hit": false,
      "t": 174798.93634999945,
      "d": 2592.391650000005,
      "v": 71
    },
    {
      "midi": 68,
      "hit": false,
      "t": 174847.84939999983,
      "d": 516.3044166666805,
      "v": 122
    },
    {
      "midi": 62,
      "hit": false,
      "t": 174847.84939999983,
      "d": 543.4783333333617,
      "v": 122
    },
    {
      "midi": 73,
      "hit": false,
      "t": 175119.5885666665,
      "d": 309.7826500000374,
      "v": 122
    },
    {
      "midi": 68,
      "hit": false,
      "t": 175445.67556666653,
      "d": 728.260966666654,
      "v": 122
    },
    {
      "midi": 71,
      "hit": false,
      "t": 175445.67556666653,
      "d": 728.260966666654,
      "v": 122
    },
    {
      "midi": 62,
      "hit": false,
      "t": 175445.67556666653,
      "d": 739.1305333333148,
      "v": 122
    },
    {
      "midi": 40,
      "hit": false,
      "t": 176097.84956666653,
      "d": 1440.2175833333167,
      "v": 122
    },
    {
      "midi": 64,
      "hit": false,
      "t": 176423.9365666665,
      "d": 309.7826500000083,
      "v": 122
    },
    {
      "midi": 68,
      "hit": false,
      "t": 176423.9365666665,
      "d": 309.7826500000083,
      "v": 122
    },
    {
      "midi": 62,
      "hit": false,
      "t": 176423.9365666665,
      "d": 418.4783166666748,
      "v": 122
    },
    {
      "midi": 71,
      "hit": false,
      "t": 176423.9365666665,
      "d": 461.9565833333472,
      "v": 122
    },
    {
      "midi": 64,
      "hit": false,
      "t": 176429.37134999945,
      "d": 304.3478666666779,
      "v": 62
    },
    {
      "midi": 64,
      "hit": false,
      "t": 176750.0235666665,
      "d": 309.7826500000083,
      "v": 122
    },
    {
      "midi": 68,
      "hit": false,
      "t": 176750.0235666665,
      "d": 309.7826500000083,
      "v": 122
    },
    {
      "midi": 61,
      "hit": false,
      "t": 176750.0235666665,
      "d": 407.60875000001397,
      "v": 122
    },
    {
      "midi": 73,
      "hit": false,
      "t": 176750.0235666665,
      "d": 407.60875000001397,
      "v": 122
    },
    {
      "midi": 71,
      "hit": false,
      "t": 176755.45834999945,
      "d": 326.08699999999953,
      "v": 60
    },
    {
      "midi": 59,
      "hit": false,
      "t": 177076.1105666665,
      "d": 309.7826500000083,
      "v": 122
    },
    {
      "midi": 64,
      "hit": false,
      "t": 177076.1105666665,
      "d": 309.7826500000083,
      "v": 122
    },
    {
      "midi": 68,
      "hit": false,
      "t": 177076.1105666665,
      "d": 309.7826500000083,
      "v": 122
    },
    {
      "midi": 74,
      "hit": false,
      "t": 177076.1105666665,
      "d": 309.7826500000083,
      "v": 122
    },
    {
      "midi": 64,
      "hit": false,
      "t": 177081.54534999945,
      "d": 309.7826500000083,
      "v": 66
    },
    {
      "midi": 58,
      "hit": false,
      "t": 177391.32799999946,
      "d": 2086.9567999999854,
      "v": 80
    },
    {
      "midi": 55,
      "hit": false,
      "t": 177391.32799999946,
      "d": 2125.0002833333274,
      "v": 17
    },
    {
      "midi": 62,
      "hit": false,
      "t": 177391.32799999946,
      "d": 2125.0002833333274,
      "v": 67
    },
    {
      "midi": 64,
      "hit": false,
      "t": 177391.32799999946,
      "d": 2157.608983333339,
      "v": 71
    },
    {
      "midi": 58,
      "hit": false,
      "t": 177402.1975666665,
      "d": 728.2609666666831,
      "v": 122
    },
    {
      "midi": 67,
      "hit": false,
      "t": 177402.1975666665,
      "d": 2581.522083333344,
      "v": 122
    },
    {
      "midi": 64,
      "hit": false,
      "t": 177402.1975666665,
      "d": 2597.8264333333354,
      "v": 122
    },
    {
      "midi": 74,
      "hit": false,
      "t": 177402.1975666665,
      "d": 2722.826449999993,
      "v": 122
    },
    {
      "midi": 57,
      "hit": false,
      "t": 177554.37149999946,
      "d": 65.21739999999409,
      "v": 24
    },
    {
      "midi": 74,
      "hit": false,
      "t": 177717.41499999946,
      "d": 652.1739999999991,
      "v": 70
    },
    {
      "midi": 79,
      "hit": false,
      "t": 178043.50199999945,
      "d": 326.08699999999953,
      "v": 65
    },
    {
      "midi": 55,
      "hit": false,
      "t": 178054.37156666652,
      "d": 434.78266666666605,
      "v": 122
    },
    {
      "midi": 86,
      "hit": false,
      "t": 178369.58899999945,
      "d": 282.6087333333271,
      "v": 75
    },
    {
      "midi": 57,
      "hit": false,
      "t": 178380.45856666652,
      "d": 391.3043999999936,
      "v": 122
    },
    {
      "midi": 82,
      "hit": false,
      "t": 178695.67599999945,
      "d": 586.956600000005,
      "v": 66
    },
    {
      "midi": 58,
      "hit": false,
      "t": 178706.54556666652,
      "d": 766.304449999996,
      "v": 122
    },
    {
      "midi": 79,
      "hit": false,
      "t": 179347.84999999945,
      "d": 494.5652833333297,
      "v": 69
    },
    {
      "midi": 55,
      "hit": false,
      "t": 179358.71956666652,
      "d": 755.4348833333061,
      "v": 122
    },
    {
      "midi": 61,
      "hit": false,
      "t": 180010.8935666661,
      "d": 2597.8264333333354,
      "v": 64
    },
    {
      "midi": 67,
      "hit": false,
      "t": 180010.8935666665,
      "d": 619.5652999999875,
      "v": 122
    },
    {
      "midi": 64,
      "hit": false,
      "t": 180010.8935666665,
      "d": 766.304449999996,
      "v": 122
    },
    {
      "midi": 73,
      "hit": false,
      "t": 180010.8935666665,
      "d": 766.304449999996,
      "v": 122
    },
    {
      "midi": 57,
      "hit": false,
      "t": 180010.8935666665,
      "d": 782.6087999999872,
      "v": 122
    },
    {
      "midi": 57,
      "hit": false,
      "t": 180021.76313333277,
      "d": 2586.9568666666746,
      "v": 61
    },
    {
      "midi": 52,
      "hit": false,
      "t": 180027.1979166661,
      "d": 2581.522083333344,
      "v": 48
    },
    {
      "midi": 55,
      "hit": false,
      "t": 180038.06748333276,
      "d": 2570.6525166666834,
      "v": 73
    },
    {
      "midi": 61,
      "hit": false,
      "t": 180663.0675666665,
      "d": 603.2609499999962,
      "v": 122
    },
    {
      "midi": 71,
      "hit": false,
      "t": 180663.0675666665,
      "d": 619.5652999999875,
      "v": 122
    },
    {
      "midi": 52,
      "hit": false,
      "t": 180663.0675666665,
      "d": 766.304449999996,
      "v": 122
    },
    {
      "midi": 67,
      "hit": false,
      "t": 180663.0675666665,
      "d": 766.304449999996,
      "v": 122
    },
    {
      "midi": 65,
      "hit": false,
      "t": 181315.2415666665,
      "d": 619.5652999999875,
      "v": 122
    },
    {
      "midi": 70,
      "hit": false,
      "t": 181315.2415666665,
      "d": 766.304449999996,
      "v": 122
    },
    {
      "midi": 55,
      "hit": false,
      "t": 181315.2415666665,
      "d": 1271.7392999999865,
      "v": 122
    },
    {
      "midi": 45,
      "hit": false,
      "t": 181315.2415666665,
      "d": 1315.217566666659,
      "v": 122
    },
    {
      "midi": 61,
      "hit": false,
      "t": 181315.2415666665,
      "d": 1315.217566666659,
      "v": 122
    },
    {
      "midi": 64,
      "hit": false,
      "t": 181635.89378333278,
      "d": 972.8262166666682,
      "v": 55
    },
    {
      "midi": 64,
      "hit": false,
      "t": 181967.4155666665,
      "d": 3097.8264999999956,
      "v": 122
    },
    {
      "midi": 69,
      "hit": false,
      "t": 181983.7199166661,
      "d": 625.000083333347,
      "v": 66
    },
    {
      "midi": 76,
      "hit": false,
      "t": 182298.93734999944,
      "d": 309.7826500000083,
      "v": 68
    },
    {
      "midi": 57,
      "hit": false,
      "t": 182619.5895666665,
      "d": 766.304449999996,
      "v": 122
    },
    {
      "midi": 54,
      "hit": false,
      "t": 182619.5895666665,
      "d": 782.6087999999872,
      "v": 122
    },
    {
      "midi": 50,
      "hit": false,
      "t": 182619.5895666665,
      "d": 1423.9132333333255,
      "v": 122
    },
    {
      "midi": 38,
      "hit": false,
      "t": 182619.5895666665,
      "d": 1440.2175833333167,
      "v": 122
    },
    {
      "midi": 50,
      "hit": false,
      "t": 182625.02434999944,
      "d": 1288.043650000007,
      "v": 67
    },
    {
      "midi": 57,
      "hit": false,
      "t": 182744.58958333277,
      "d": 1168.4784166666795,
      "v": 85
    },
    {
      "midi": 66,
      "hit": false,
      "t": 182869.58959999942,
      "d": 1043.4784000000218,
      "v": 65
    },
    {
      "midi": 69,
      "hit": false,
      "t": 182983.72004999942,
      "d": 929.3479500000249,
      "v": 59
    },
    {
      "midi": 74,
      "hit": false,
      "t": 183076.1113666661,
      "d": 836.9566333333496,
      "v": 60
    },
    {
      "midi": 81,
      "hit": false,
      "t": 183190.24181666612,
      "d": 722.8261833333236,
      "v": 65
    },
    {
      "midi": 66,
      "hit": false,
      "t": 183271.7635666665,
      "d": 728.260966666654,
      "v": 122
    },
    {
      "midi": 69,
      "hit": false,
      "t": 183271.7635666665,
      "d": 739.1305333333148,
      "v": 122
    },
    {
      "midi": 54,
      "hit": false,
      "t": 183913.06799999945,
      "d": 1304.3479999999981,
      "v": 25
    },
    {
      "midi": 57,
      "hit": false,
      "t": 183913.06799999945,
      "d": 1304.3479999999981,
      "v": 88
    },
    {
      "midi": 59,
      "hit": false,
      "t": 183913.06799999945,
      "d": 1304.3479999999981,
      "v": 75
    },
    {
      "midi": 63,
      "hit": false,
      "t": 183913.06799999945,
      "d": 1304.3479999999981,
      "v": 79
    },
    {
      "midi": 63,
      "hit": false,
      "t": 183923.9375666665,
      "d": 619.5652999999875,
      "v": 122
    },
    {
      "midi": 67,
      "hit": false,
      "t": 183923.9375666665,
      "d": 755.4348833333352,
      "v": 122
    },
    {
      "midi": 59,
      "hit": false,
      "t": 183923.9375666665,
      "d": 766.304449999996,
      "v": 122
    },
    {
      "midi": 47,
      "hit": false,
      "t": 183923.9375666665,
      "d": 1326.0871333333198,
      "v": 122
    },
    {
      "midi": 55,
      "hit": false,
      "t": 184076.11149999945,
      "d": 65.21739999999409,
      "v": 32
    },
    {
      "midi": 71,
      "hit": false,
      "t": 184239.15499999945,
      "d": 652.1739999999991,
      "v": 78
    },
    {
      "midi": 78,
      "hit": false,
      "t": 184565.24199999945,
      "d": 326.08699999999953,
      "v": 73
    },
    {
      "midi": 63,
      "hit": false,
      "t": 184576.11156666648,
      "d": 619.5652999999875,
      "v": 122
    },
    {
      "midi": 57,
      "hit": false,
      "t": 184576.11156666648,
      "d": 739.1305333333148,
      "v": 122
    },
    {
      "midi": 66,
      "hit": false,
      "t": 184576.11156666648,
      "d": 766.304449999996,
      "v": 122
    },
    {
      "midi": 83,
      "hit": false,
      "t": 184891.32899999944,
      "d": 282.6087333333271,
      "v": 83
    },
    {
      "midi": 59,
      "hit": false,
      "t": 185217.41599999944,
      "d": 619.5652999999875,
      "v": 73
    },
    {
      "midi": 55,
      "hit": false,
      "t": 185217.41599999944,
      "d": 663.0435666666599,
      "v": 56
    },
    {
      "midi": 64,
      "hit": false,
      "t": 185217.41599999944,
      "d": 673.9131333333207,
      "v": 69
    },
    {
      "midi": 67,
      "hit": false,
      "t": 185217.41599999944,
      "d": 673.9131333333207,
      "v": 64
    },
    {
      "midi": 63,
      "hit": false,
      "t": 185228.28556666648,
      "d": 728.260966666654,
      "v": 122
    },
    {
      "midi": 52,
      "hit": false,
      "t": 185228.28556666648,
      "d": 1413.0436666666646,
      "v": 122
    },
    {
      "midi": 55,
      "hit": false,
      "t": 185228.28556666648,
      "d": 1413.0436666666646,
      "v": 122
    },
    {
      "midi": 59,
      "hit": false,
      "t": 185228.28556666648,
      "d": 1413.0436666666646,
      "v": 122
    },
    {
      "midi": 64,
      "hit": false,
      "t": 185880.45956666648,
      "d": 766.304449999996,
      "v": 122
    },
    {
      "midi": 55,
      "hit": false,
      "t": 186195.67699999944,
      "d": 326.08699999999953,
      "v": 54
    },
    {
      "midi": 59,
      "hit": false,
      "t": 186195.67699999944,
      "d": 326.08699999999953,
      "v": 88
    },
    {
      "midi": 64,
      "hit": false,
      "t": 186195.67699999944,
      "d": 326.08699999999953,
      "v": 70
    },
    {
      "midi": 67,
      "hit": false,
      "t": 186195.67699999944,
      "d": 326.08699999999953,
      "v": 71
    },
    {
      "midi": 40,
      "hit": false,
      "t": 186532.63356666648,
      "d": 619.5652999999875,
      "v": 122
    },
    {
      "midi": 62,
      "hit": false,
      "t": 186532.63356666648,
      "d": 1413.0436666666646,
      "v": 122
    },
    {
      "midi": 67,
      "hit": false,
      "t": 186532.63356666648,
      "d": 1413.0436666666646,
      "v": 122
    },
    {
      "midi": 71,
      "hit": false,
      "t": 186532.63356666648,
      "d": 1423.9132333333255,
      "v": 122
    },
    {
      "midi": 40,
      "hit": false,
      "t": 186538.06834999943,
      "d": 1288.043650000007,
      "v": 67
    },
    {
      "midi": 55,
      "hit": false,
      "t": 186657.63358333276,
      "d": 1168.4784166666795,
      "v": 85
    },
    {
      "midi": 62,
      "hit": false,
      "t": 186782.63359999942,
      "d": 1043.4784000000218,
      "v": 65
    },
    {
      "midi": 64,
      "hit": false,
      "t": 186896.76404999942,
      "d": 929.3479500000249,
      "v": 59
    },
    {
      "midi": 71,
      "hit": false,
      "t": 186989.1553666661,
      "d": 836.9566333333496,
      "v": 60
    },
    {
      "midi": 76,
      "hit": false,
      "t": 187103.28581666612,
      "d": 722.8261833333236,
      "v": 65
    },
    {
      "midi": 52,
      "hit": false,
      "t": 187184.80756666648,
      "d": 755.4348833333352,
      "v": 122
    },
    {
      "midi": 61,
      "hit": false,
      "t": 187836.9815666661,
      "d": 2597.8264333333354,
      "v": 72
    },
    {
      "midi": 61,
      "hit": false,
      "t": 187836.98156666648,
      "d": 157.60871666666935,
      "v": 122
    },
    {
      "midi": 55,
      "hit": false,
      "t": 187836.98156666648,
      "d": 782.6087999999872,
      "v": 122
    },
    {
      "midi": 45,
      "hit": false,
      "t": 187836.98156666648,
      "d": 2739.1308000000427,
      "v": 122
    },
    {
      "midi": 57,
      "hit": false,
      "t": 187847.85113333276,
      "d": 2586.9568666666746,
      "v": 69
    },
    {
      "midi": 52,
      "hit": false,
      "t": 187853.2859166661,
      "d": 2581.522083333344,
      "v": 56
    },
    {
      "midi": 55,
      "hit": false,
      "t": 187864.15548333275,
      "d": 2570.6525166666834,
      "v": 81
    },
    {
      "midi": 61,
      "hit": false,
      "t": 188005.4598499998,
      "d": 1228.2610333333432,
      "v": 122
    },
    {
      "midi": 57,
      "hit": false,
      "t": 188489.15556666648,
      "d": 755.4348833333352,
      "v": 122
    },
    {
      "midi": 73,
      "hit": false,
      "t": 188489.15556666648,
      "d": 766.304449999996,
      "v": 122
    },
    {
      "midi": 69,
      "hit": false,
      "t": 188489.15556666648,
      "d": 793.4783666666772,
      "v": 122
    },
    {
      "midi": 67,
      "hit": false,
      "t": 189141.32956666648,
      "d": 619.5653000000166,
      "v": 122
    },
    {
      "midi": 71,
      "hit": false,
      "t": 189141.32956666648,
      "d": 728.2609666666831,
      "v": 122
    },
    {
      "midi": 59,
      "hit": false,
      "t": 189141.32956666648,
      "d": 755.4348833333643,
      "v": 122
    },
    {
      "midi": 62,
      "hit": false,
      "t": 189141.32956666648,
      "d": 755.4348833333643,
      "v": 122
    },
    {
      "midi": 64,
      "hit": false,
      "t": 189461.98178333277,
      "d": 972.8262166666682,
      "v": 63
    },
    {
      "midi": 64,
      "hit": false,
      "t": 189793.5035666665,
      "d": 619.5653000000166,
      "v": 122
    },
    {
      "midi": 67,
      "hit": false,
      "t": 189793.5035666665,
      "d": 619.5653000000166,
      "v": 122
    },
    {
      "midi": 69,
      "hit": false,
      "t": 189793.5035666665,
      "d": 728.2609666666831,
      "v": 122
    },
    {
      "midi": 61,
      "hit": false,
      "t": 189793.5035666665,
      "d": 766.3044500000251,
      "v": 122
    },
    {
      "midi": 69,
      "hit": false,
      "t": 189809.8079166661,
      "d": 625.000083333347,
      "v": 74
    },
    {
      "midi": 76,
      "hit": false,
      "t": 190125.02534999943,
      "d": 309.7826500000083,
      "v": 76
    },
    {
      "midi": 59,
      "hit": false,
      "t": 190434.80799999944,
      "d": 619.5652999999875,
      "v": 73
    },
    {
      "midi": 56,
      "hit": false,
      "t": 190434.80799999944,
      "d": 652.1739999999991,
      "v": 56
    },
    {
      "midi": 62,
      "hit": false,
      "t": 190434.80799999944,
      "d": 652.1739999999991,
      "v": 69
    },
    {
      "midi": 65,
      "hit": false,
      "t": 190434.80799999944,
      "d": 652.1739999999991,
      "v": 64
    },
    {
      "midi": 65,
      "hit": false,
      "t": 190445.67756666653,
      "d": 766.304449999996,
      "v": 122
    },
    {
      "midi": 68,
      "hit": false,
      "t": 190445.67756666653,
      "d": 793.4783666666772,
      "v": 122
    },
    {
      "midi": 62,
      "hit": false,
      "t": 190445.67756666653,
      "d": 1413.0436666666938,
      "v": 122
    },
    {
      "midi": 50,
      "hit": false,
      "t": 190445.67756666653,
      "d": 1440.2175833333458,
      "v": 122
    },
    {
      "midi": 66,
      "hit": false,
      "t": 191097.85156666653,
      "d": 619.5653000000166,
      "v": 122
    },
    {
      "midi": 69,
      "hit": false,
      "t": 191097.85156666653,
      "d": 782.6088000000163,
      "v": 122
    },
    {
      "midi": 50,
      "hit": false,
      "t": 191103.28634999943,
      "d": 635.8696500000078,
      "v": 67
    },
    {
      "midi": 57,
      "hit": false,
      "t": 191222.85158333275,
      "d": 516.3044166666805,
      "v": 85
    },
    {
      "midi": 66,
      "hit": false,
      "t": 191347.8515999994,
      "d": 391.3044000000227,
      "v": 65
    },
    {
      "midi": 69,
      "hit": false,
      "t": 191461.9820499994,
      "d": 277.1739500000258,
      "v": 59
    },
    {
      "midi": 74,
      "hit": false,
      "t": 191554.37336666608,
      "d": 184.78263333335053,
      "v": 60
    },
    {
      "midi": 81,
      "hit": false,
      "t": 191668.5038166661,
      "d": 70.6521833333245,
      "v": 65
    },
    {
      "midi": 62,
      "hit": false,
      "t": 191739.15599999944,
      "d": 619.5652999999875,
      "v": 73
    },
    {
      "midi": 57,
      "hit": false,
      "t": 191739.15599999944,
      "d": 663.0435666666599,
      "v": 56
    },
    {
      "midi": 66,
      "hit": false,
      "t": 191739.15599999944,
      "d": 673.9131333333207,
      "v": 69
    },
    {
      "midi": 69,
      "hit": false,
      "t": 191739.15599999944,
      "d": 673.9131333333207,
      "v": 64
    },
    {
      "midi": 45,
      "hit": false,
      "t": 191750.02556666656,
      "d": 782.6087999999872,
      "v": 122
    },
    {
      "midi": 71,
      "hit": false,
      "t": 191750.02556666656,
      "d": 1282.6088666666474,
      "v": 122
    },
    {
      "midi": 66,
      "hit": false,
      "t": 191750.02556666656,
      "d": 1298.9132166666386,
      "v": 122
    },
    {
      "midi": 74,
      "hit": false,
      "t": 191750.02556666656,
      "d": 1298.9132166666386,
      "v": 122
    },
    {
      "midi": 57,
      "hit": false,
      "t": 192402.19956666656,
      "d": 619.5652999999875,
      "v": 122
    },
    {
      "midi": 57,
      "hit": false,
      "t": 192717.41699999943,
      "d": 326.08699999999953,
      "v": 54
    },
    {
      "midi": 62,
      "hit": false,
      "t": 192717.41699999943,
      "d": 326.08699999999953,
      "v": 88
    },
    {
      "midi": 66,
      "hit": false,
      "t": 192717.41699999943,
      "d": 326.08699999999953,
      "v": 70
    },
    {
      "midi": 69,
      "hit": false,
      "t": 192717.41699999943,
      "d": 326.08699999999953,
      "v": 71
    },
    {
      "midi": 57,
      "hit": false,
      "t": 193043.50399999943,
      "d": 1304.3479999999981,
      "v": 25
    },
    {
      "midi": 62,
      "hit": false,
      "t": 193043.50399999943,
      "d": 1304.3479999999981,
      "v": 88
    },
    {
      "midi": 66,
      "hit": false,
      "t": 193043.50399999943,
      "d": 1304.3479999999981,
      "v": 75
    },
    {
      "midi": 69,
      "hit": false,
      "t": 193043.50399999943,
      "d": 1304.3479999999981,
      "v": 79
    },
    {
      "midi": 76,
      "hit": false,
      "t": 193054.37356666653,
      "d": 766.304449999996,
      "v": 122
    },
    {
      "midi": 62,
      "hit": false,
      "t": 193054.37356666653,
      "d": 1217.3914666666533,
      "v": 122
    },
    {
      "midi": 54,
      "hit": false,
      "t": 193054.37356666653,
      "d": 1244.5653833333345,
      "v": 122
    },
    {
      "midi": 69,
      "hit": false,
      "t": 193054.37356666653,
      "d": 1396.7393166666734,
      "v": 122
    },
    {
      "midi": 59,
      "hit": false,
      "t": 193206.54749999943,
      "d": 65.21739999999409,
      "v": 32
    },
    {
      "midi": 78,
      "hit": false,
      "t": 193369.59099999943,
      "d": 652.1739999999991,
      "v": 78
    },
    {
      "midi": 81,
      "hit": false,
      "t": 193695.67799999943,
      "d": 326.08699999999953,
      "v": 73
    },
    {
      "midi": 74,
      "hit": false,
      "t": 193706.54756666653,
      "d": 755.4348833333352,
      "v": 122
    },
    {
      "midi": 90,
      "hit": false,
      "t": 194021.76499999943,
      "d": 282.6087333333271,
      "v": 83
    },
    {
      "midi": 73,
      "hit": false,
      "t": 194358.72156666653,
      "d": 782.6087999999872,
      "v": 122
    },
    {
      "midi": 68,
      "hit": false,
      "t": 194358.72156666653,
      "d": 1315.217566666659,
      "v": 122
    },
    {
      "midi": 53,
      "hit": false,
      "t": 194358.72156666653,
      "d": 1380.434966666653,
      "v": 122
    },
    {
      "midi": 62,
      "hit": false,
      "t": 194358.72156666653,
      "d": 1423.9132333333255,
      "v": 122
    },
    {
      "midi": 50,
      "hit": false,
      "t": 194364.15634999942,
      "d": 1288.043650000007,
      "v": 67
    },
    {
      "midi": 59,
      "hit": false,
      "t": 194483.72158333275,
      "d": 1168.4784166666795,
      "v": 85
    },
    {
      "midi": 65,
      "hit": false,
      "t": 194608.7215999994,
      "d": 1043.4784000000218,
      "v": 65
    },
    {
      "midi": 68,
      "hit": false,
      "t": 194722.8520499994,
      "d": 929.3479500000249,
      "v": 59
    },
    {
      "midi": 74,
      "hit": false,
      "t": 194815.24336666608,
      "d": 836.9566333333496,
      "v": 60
    },
    {
      "midi": 80,
      "hit": false,
      "t": 194929.3738166661,
      "d": 722.8261833333236,
      "v": 65
    },
    {
      "midi": 71,
      "hit": false,
      "t": 195010.89556666653,
      "d": 782.6087999999872,
      "v": 122
    },
    {
      "midi": 59,
      "hit": false,
      "t": 195652.19999999943,
      "d": 2086.9567999999854,
      "v": 88
    },
    {
      "midi": 55,
      "hit": false,
      "t": 195652.19999999943,
      "d": 2125.0002833333274,
      "v": 25
    },
    {
      "midi": 64,
      "hit": false,
      "t": 195652.19999999943,
      "d": 2125.0002833333274,
      "v": 75
    },
    {
      "midi": 67,
      "hit": false,
      "t": 195652.19999999943,
      "d": 2157.608983333339,
      "v": 79
    },
    {
      "midi": 52,
      "hit": false,
      "t": 195663.06956666653,
      "d": 755.4348833333352,
      "v": 122
    },
    {
      "midi": 69,
      "hit": false,
      "t": 195663.06956666653,
      "d": 755.4348833333352,
      "v": 122
    },
    {
      "midi": 66,
      "hit": false,
      "t": 195663.06956666653,
      "d": 793.4783666666772,
      "v": 122
    },
    {
      "midi": 59,
      "hit": false,
      "t": 195663.06956666653,
      "d": 1228.2610333333432,
      "v": 122
    },
    {
      "midi": 57,
      "hit": false,
      "t": 195815.24349999943,
      "d": 65.21739999999409,
      "v": 32
    },
    {
      "midi": 76,
      "hit": false,
      "t": 195978.28699999943,
      "d": 652.1739999999991,
      "v": 78
    },
    {
      "midi": 79,
      "hit": false,
      "t": 196304.37399999943,
      "d": 326.08699999999953,
      "v": 73
    },
    {
      "midi": 64,
      "hit": false,
      "t": 196315.24356666653,
      "d": 755.4348833333352,
      "v": 122
    },
    {
      "midi": 67,
      "hit": false,
      "t": 196315.24356666653,
      "d": 755.4348833333352,
      "v": 122
    },
    {
      "midi": 40,
      "hit": false,
      "t": 196315.24356666653,
      "d": 766.304449999996,
      "v": 122
    },
    {
      "midi": 88,
      "hit": false,
      "t": 196630.46099999943,
      "d": 282.6087333333271,
      "v": 83
    },
    {
      "midi": 83,
      "hit": false,
      "t": 196956.54799999943,
      "d": 586.956600000005,
      "v": 74
    },
    {
      "midi": 66,
      "hit": false,
      "t": 196967.41756666653,
      "d": 739.1305333333439,
      "v": 122
    },
    {
      "midi": 42,
      "hit": false,
      "t": 196967.41756666653,
      "d": 766.3044500000251,
      "v": 122
    },
    {
      "midi": 62,
      "hit": false,
      "t": 196967.41756666653,
      "d": 766.3044500000251,
      "v": 122
    },
    {
      "midi": 59,
      "hit": false,
      "t": 196967.41756666653,
      "d": 1396.7393166667025,
      "v": 122
    },
    {
      "midi": 79,
      "hit": false,
      "t": 197608.72199999943,
      "d": 494.5652833333297,
      "v": 77
    },
    {
      "midi": 64,
      "hit": false,
      "t": 197619.59156666652,
      "d": 766.3044500000251,
      "v": 122
    },
    {
      "midi": 43,
      "hit": false,
      "t": 197619.59156666652,
      "d": 782.6088000000163,
      "v": 122
    },
    {
      "midi": 59,
      "hit": false,
      "t": 198260.89599999943,
      "d": 1304.3479999999981,
      "v": 25
    },
    {
      "midi": 62,
      "hit": false,
      "t": 198260.89599999943,
      "d": 1304.3479999999981,
      "v": 88
    },
    {
      "midi": 67,
      "hit": false,
      "t": 198260.89599999943,
      "d": 1304.3479999999981,
      "v": 75
    },
    {
      "midi": 71,
      "hit": false,
      "t": 198260.89599999943,
      "d": 1304.3479999999981,
      "v": 79
    },
    {
      "midi": 67,
      "hit": false,
      "t": 198271.76556666655,
      "d": 619.5652999999875,
      "v": 122
    },
    {
      "midi": 62,
      "hit": false,
      "t": 198271.76556666655,
      "d": 728.260966666654,
      "v": 122
    },
    {
      "midi": 45,
      "hit": false,
      "t": 198271.76556666655,
      "d": 1244.5653833333345,
      "v": 122
    },
    {
      "midi": 71,
      "hit": false,
      "t": 198271.76556666655,
      "d": 1271.7393000000156,
      "v": 122
    },
    {
      "midi": 33,
      "hit": false,
      "t": 198271.76556666655,
      "d": 1423.9132333333546,
      "v": 122
    },
    {
      "midi": 60,
      "hit": false,
      "t": 198423.93949999943,
      "d": 65.21739999999409,
      "v": 32
    },
    {
      "midi": 79,
      "hit": false,
      "t": 198586.98299999943,
      "d": 652.1739999999991,
      "v": 78
    },
    {
      "midi": 83,
      "hit": false,
      "t": 198913.06999999942,
      "d": 326.08699999999953,
      "v": 73
    },
    {
      "midi": 61,
      "hit": false,
      "t": 198923.93956666655,
      "d": 619.5653000000166,
      "v": 122
    },
    {
      "midi": 67,
      "hit": false,
      "t": 198923.93956666655,
      "d": 619.5653000000166,
      "v": 122
    },
    {
      "midi": 91,
      "hit": false,
      "t": 199239.15699999942,
      "d": 282.6087333333271,
      "v": 83
    },
    {
      "midi": 52,
      "hit": false,
      "t": 199565.24399999942,
      "d": 1304.3479999999981,
      "v": 25
    },
    {
      "midi": 55,
      "hit": false,
      "t": 199565.24399999942,
      "d": 1304.3479999999981,
      "v": 88
    },
    {
      "midi": 57,
      "hit": false,
      "t": 199565.24399999942,
      "d": 1304.3479999999981,
      "v": 75
    },
    {
      "midi": 61,
      "hit": false,
      "t": 199565.24399999942,
      "d": 1304.3479999999981,
      "v": 79
    },
    {
      "midi": 55,
      "hit": false,
      "t": 199576.11356666658,
      "d": 1396.7393166666734,
      "v": 122
    },
    {
      "midi": 61,
      "hit": false,
      "t": 199576.11356666658,
      "d": 1396.7393166666734,
      "v": 122
    },
    {
      "midi": 73,
      "hit": false,
      "t": 199576.11356666658,
      "d": 1423.9132333333546,
      "v": 122
    },
    {
      "midi": 45,
      "hit": false,
      "t": 199576.11356666658,
      "d": 1440.2175833333458,
      "v": 122
    },
    {
      "midi": 67,
      "hit": false,
      "t": 199576.11356666658,
      "d": 1440.2175833333458,
      "v": 122
    },
    {
      "midi": 71,
      "hit": false,
      "t": 199635.89618333324,
      "d": 711.9566166666627,
      "v": 122
    },
    {
      "midi": 53,
      "hit": false,
      "t": 199728.28749999942,
      "d": 65.21739999999409,
      "v": 32
    },
    {
      "midi": 69,
      "hit": false,
      "t": 199891.33099999942,
      "d": 652.1739999999991,
      "v": 78
    },
    {
      "midi": 76,
      "hit": false,
      "t": 200217.41799999942,
      "d": 326.08699999999953,
      "v": 73
    },
    {
      "midi": 69,
      "hit": false,
      "t": 200228.28756666658,
      "d": 619.5652999999875,
      "v": 122
    },
    {
      "midi": 81,
      "hit": false,
      "t": 200543.50499999942,
      "d": 282.6087333333271,
      "v": 83
    },
    {
      "midi": 62,
      "hit": false,
      "t": 200869.59199999942,
      "d": 2086.9567999999854,
      "v": 88
    },
    {
      "midi": 57,
      "hit": false,
      "t": 200869.59199999942,
      "d": 2125.0002833333274,
      "v": 25
    },
    {
      "midi": 66,
      "hit": false,
      "t": 200869.59199999942,
      "d": 2125.0002833333274,
      "v": 75
    },
    {
      "midi": 69,
      "hit": false,
      "t": 200869.59199999942,
      "d": 2157.608983333339,
      "v": 79
    },
    {
      "midi": 50,
      "hit": false,
      "t": 200880.46156666658,
      "d": 782.6088000000163,
      "v": 122
    },
    {
      "midi": 74,
      "hit": false,
      "t": 200880.46156666658,
      "d": 1244.5653833333636,
      "v": 122
    },
    {
      "midi": 69,
      "hit": false,
      "t": 200880.46156666658,
      "d": 1380.4349666666822,
      "v": 122
    },
    {
      "midi": 66,
      "hit": false,
      "t": 200880.46156666658,
      "d": 1423.9132333333546,
      "v": 122
    },
    {
      "midi": 59,
      "hit": false,
      "t": 201032.63549999942,
      "d": 65.21739999999409,
      "v": 32
    },
    {
      "midi": 78,
      "hit": false,
      "t": 201195.67899999942,
      "d": 652.1739999999991,
      "v": 78
    },
    {
      "midi": 81,
      "hit": false,
      "t": 201521.76599999942,
      "d": 326.08699999999953,
      "v": 73
    },
    {
      "midi": 45,
      "hit": false,
      "t": 201532.6355666666,
      "d": 766.304449999996,
      "v": 122
    },
    {
      "midi": 90,
      "hit": false,
      "t": 201847.85299999942,
      "d": 282.6087333333271,
      "v": 83
    },
    {
      "midi": 86,
      "hit": false,
      "t": 202173.93999999942,
      "d": 586.956600000005,
      "v": 74
    },
    {
      "midi": 86,
      "hit": false,
      "t": 202184.8095666666,
      "d": 755.4348833333352,
      "v": 122
    },
    {
      "midi": 74,
      "hit": false,
      "t": 202184.8095666666,
      "d": 782.6088000000163,
      "v": 122
    },
    {
      "midi": 78,
      "hit": false,
      "t": 202184.8095666666,
      "d": 782.6088000000163,
      "v": 122
    },
    {
      "midi": 38,
      "hit": false,
      "t": 202184.8095666666,
      "d": 793.4783666666772,
      "v": 122
    },
    {
      "midi": 81,
      "hit": false,
      "t": 202184.8095666666,
      "d": 793.4783666666772,
      "v": 122
    },
    {
      "midi": 81,
      "hit": false,
      "t": 202826.11399999942,
      "d": 494.5652833333297,
      "v": 77
    },
    {
      "midi": 69,
      "hit": false,
      "t": 203510.89669999943,
      "d": 1695.6523999999627,
      "v": 63
    },
    {
      "midi": 66,
      "hit": false,
      "t": 203521.7662666661,
      "d": 2385.8698833333037,
      "v": 60
    },
    {
      "midi": 57,
      "hit": false,
      "t": 203543.5053999994,
      "d": 2364.130749999982,
      "v": 57
    },
    {
      "midi": 62,
      "hit": false,
      "t": 203543.5053999994,
      "d": 2364.130749999982,
      "v": 82
    },
    {
      "midi": 78,
      "hit": false,
      "t": 205130.46213333274,
      "d": 184.78263333332143,
      "v": 82
    },
    {
      "midi": 81,
      "hit": false,
      "t": 205445.67956666605,
      "d": 103.2608833333361,
      "v": 80
    },
    {
      "midi": 81,
      "hit": false,
      "t": 205760.8969999994,
      "d": 97.82610000000568,
      "v": 85
    },
    {
      "midi": 90,
      "hit": false,
      "t": 206130.46226666606,
      "d": 1809.7828499999887,
      "v": 84
    },
    {
      "midi": 62,
      "hit": false,
      "t": 206135.8970499994,
      "d": 1804.3480666666583,
      "v": 78
    },
    {
      "midi": 66,
      "hit": false,
      "t": 206135.8970499994,
      "d": 1815.217633333319,
      "v": 63
    },
    {
      "midi": 57,
      "hit": false,
      "t": 206135.8970499994,
      "d": 1826.08719999998,
      "v": 46
    },
    {
      "midi": 69,
      "hit": false,
      "t": 206135.8970499994,
      "d": 1831.5219833333103,
      "v": 67
    }
  ]
}