{
  "jsonPath": "Jazz/Smooth Jazz/Tom Grant/quiet-nights-of-quiet-stars.json",
  "path": "Jazz\\Smooth Jazz\\Tom Grant\\Quiet Nights Of Quiet Stars.mid",
  "name": "Quiet Nights Of Quiet Stars",
  "difficulty": "Advanced",
  "bpm": 120,
  "notes": [
    {
      "midi": 86,
      "hit": false,
      "t": 2000,
      "d": 1920.8333333333335,
      "v": 63
    },
    {
      "midi": 81,
      "hit": false,
      "t": 2250,
      "d": 1575,
      "v": 53
    },
    {
      "midi": 78,
      "hit": false,
      "t": 2500,
      "d": 1358.3333333333335,
      "v": 59
    },
    {
      "midi": 72,
      "hit": false,
      "t": 2750,
      "d": 1120.8333333333335,
      "v": 48
    },
    {
      "midi": 62,
      "hit": false,
      "t": 3250,
      "d": 679.166666666667,
      "v": 52
    },
    {
      "midi": 53,
      "hit": false,
      "t": 4000.0000000000005,
      "d": 270.8333333333335,
      "v": 42
    },
    {
      "midi": 56,
      "hit": false,
      "t": 4000.0000000000005,
      "d": 270.8333333333335,
      "v": 42
    },
    {
      "midi": 59,
      "hit": false,
      "t": 4000.0000000000005,
      "d": 270.8333333333335,
      "v": 42
    },
    {
      "midi": 62,
      "hit": false,
      "t": 4000.0000000000005,
      "d": 270.8333333333335,
      "v": 42
    },
    {
      "midi": 53,
      "hit": false,
      "t": 4750.000000000001,
      "d": 2662.5,
      "v": 62
    },
    {
      "midi": 56,
      "hit": false,
      "t": 4750.000000000001,
      "d": 2662.5,
      "v": 62
    },
    {
      "midi": 59,
      "hit": false,
      "t": 4750.000000000001,
      "d": 2662.5,
      "v": 62
    },
    {
      "midi": 62,
      "hit": false,
      "t": 4750.000000000001,
      "d": 2662.5,
      "v": 62
    },
    {
      "midi": 58,
      "hit": false,
      "t": 8000.000000000001,
      "d": 1020.833333333333,
      "v": 62
    },
    {
      "midi": 65,
      "hit": false,
      "t": 8250,
      "d": 825,
      "v": 47
    },
    {
      "midi": 67,
      "hit": false,
      "t": 8500,
      "d": 533.3333333333339,
      "v": 52
    },
    {
      "midi": 74,
      "hit": false,
      "t": 8750,
      "d": 350,
      "v": 68
    },
    {
      "midi": 58,
      "hit": false,
      "t": 9250,
      "d": 183.33333333333394,
      "v": 64
    },
    {
      "midi": 67,
      "hit": false,
      "t": 9250,
      "d": 183.33333333333394,
      "v": 70
    },
    {
      "midi": 65,
      "hit": false,
      "t": 9250,
      "d": 208.33333333333394,
      "v": 58
    },
    {
      "midi": 74,
      "hit": false,
      "t": 9250,
      "d": 208.33333333333394,
      "v": 68
    },
    {
      "midi": 67,
      "hit": false,
      "t": 10000,
      "d": 1737.5,
      "v": 66
    },
    {
      "midi": 65,
      "hit": false,
      "t": 10000,
      "d": 1758.333333333334,
      "v": 56
    },
    {
      "midi": 74,
      "hit": false,
      "t": 10000,
      "d": 1762.5,
      "v": 61
    },
    {
      "midi": 58,
      "hit": false,
      "t": 10000,
      "d": 1775,
      "v": 59
    },
    {
      "midi": 50,
      "hit": false,
      "t": 12250,
      "d": 587.5,
      "v": 70
    },
    {
      "midi": 53,
      "hit": false,
      "t": 12250,
      "d": 587.5,
      "v": 70
    },
    {
      "midi": 56,
      "hit": false,
      "t": 12250,
      "d": 587.5,
      "v": 70
    },
    {
      "midi": 59,
      "hit": false,
      "t": 12250,
      "d": 587.5,
      "v": 70
    },
    {
      "midi": 52,
      "hit": false,
      "t": 13000,
      "d": 808.3333333333339,
      "v": 68
    },
    {
      "midi": 55,
      "hit": false,
      "t": 13000,
      "d": 808.3333333333339,
      "v": 68
    },
    {
      "midi": 57,
      "hit": false,
      "t": 13000,
      "d": 808.3333333333339,
      "v": 68
    },
    {
      "midi": 60,
      "hit": false,
      "t": 13000,
      "d": 808.3333333333339,
      "v": 68
    },
    {
      "midi": 72,
      "hit": false,
      "t": 14000,
      "d": 1737.5,
      "v": 66
    },
    {
      "midi": 69,
      "hit": false,
      "t": 14000,
      "d": 1758.333333333334,
      "v": 56
    },
    {
      "midi": 79,
      "hit": false,
      "t": 14000,
      "d": 1762.5,
      "v": 61
    },
    {
      "midi": 64,
      "hit": false,
      "t": 14000,
      "d": 1775,
      "v": 59
    },
    {
      "midi": 56,
      "hit": false,
      "t": 16000,
      "d": 1020.8333333333321,
      "v": 62
    },
    {
      "midi": 63,
      "hit": false,
      "t": 16250,
      "d": 825,
      "v": 47
    },
    {
      "midi": 65,
      "hit": false,
      "t": 16500,
      "d": 533.3333333333321,
      "v": 52
    },
    {
      "midi": 72,
      "hit": false,
      "t": 16750,
      "d": 350,
      "v": 68
    },
    {
      "midi": 56,
      "hit": false,
      "t": 17250,
      "d": 183.33333333333212,
      "v": 64
    },
    {
      "midi": 65,
      "hit": false,
      "t": 17250,
      "d": 183.33333333333212,
      "v": 70
    },
    {
      "midi": 63,
      "hit": false,
      "t": 17250,
      "d": 208.33333333333212,
      "v": 58
    },
    {
      "midi": 72,
      "hit": false,
      "t": 17250,
      "d": 208.33333333333212,
      "v": 68
    },
    {
      "midi": 65,
      "hit": false,
      "t": 18000,
      "d": 1737.5,
      "v": 66
    },
    {
      "midi": 62,
      "hit": false,
      "t": 18000,
      "d": 1758.3333333333321,
      "v": 56
    },
    {
      "midi": 70,
      "hit": false,
      "t": 18000,
      "d": 1762.5,
      "v": 61
    },
    {
      "midi": 56,
      "hit": false,
      "t": 18000,
      "d": 1775,
      "v": 59
    },
    {
      "midi": 71,
      "hit": false,
      "t": 20000,
      "d": 1737.5,
      "v": 66
    },
    {
      "midi": 67,
      "hit": false,
      "t": 20000,
      "d": 1758.3333333333321,
      "v": 56
    },
    {
      "midi": 76,
      "hit": false,
      "t": 20000,
      "d": 1762.5,
      "v": 61
    },
    {
      "midi": 62,
      "hit": false,
      "t": 20000,
      "d": 1775,
      "v": 59
    },
    {
      "midi": 55,
      "hit": false,
      "t": 22000,
      "d": 1020.8333333333321,
      "v": 62
    },
    {
      "midi": 61,
      "hit": false,
      "t": 22250,
      "d": 825,
      "v": 47
    },
    {
      "midi": 64,
      "hit": false,
      "t": 22500,
      "d": 533.3333333333321,
      "v": 52
    },
    {
      "midi": 71,
      "hit": false,
      "t": 22750,
      "d": 350,
      "v": 68
    },
    {
      "midi": 55,
      "hit": false,
      "t": 23250,
      "d": 183.33333333333212,
      "v": 64
    },
    {
      "midi": 64,
      "hit": false,
      "t": 23250,
      "d": 183.33333333333212,
      "v": 70
    },
    {
      "midi": 61,
      "hit": false,
      "t": 23250,
      "d": 208.33333333333212,
      "v": 58
    },
    {
      "midi": 71,
      "hit": false,
      "t": 23250,
      "d": 208.33333333333212,
      "v": 68
    },
    {
      "midi": 60,
      "hit": false,
      "t": 24000,
      "d": 2575,
      "v": 58
    },
    {
      "midi": 66,
      "hit": false,
      "t": 24000,
      "d": 2816.666666666668,
      "v": 58
    },
    {
      "midi": 69,
      "hit": false,
      "t": 24000,
      "d": 2870.8333333333358,
      "v": 66
    },
    {
      "midi": 76,
      "hit": false,
      "t": 24000,
      "d": 2870.8333333333358,
      "v": 56
    },
    {
      "midi": 60,
      "hit": false,
      "t": 27000.000000000004,
      "d": 816.6666666666679,
      "v": 59
    },
    {
      "midi": 66,
      "hit": false,
      "t": 27250.000000000004,
      "d": 616.6666666666679,
      "v": 49
    },
    {
      "midi": 69,
      "hit": false,
      "t": 27500.000000000004,
      "d": 358.33333333333576,
      "v": 63
    },
    {
      "midi": 76,
      "hit": false,
      "t": 27750.000000000004,
      "d": 162.5,
      "v": 68
    },
    {
      "midi": 53,
      "hit": false,
      "t": 28000.000000000004,
      "d": 808.3333333333321,
      "v": 68
    },
    {
      "midi": 60,
      "hit": false,
      "t": 28000.000000000004,
      "d": 808.3333333333321,
      "v": 68
    },
    {
      "midi": 62,
      "hit": false,
      "t": 28000.000000000004,
      "d": 808.3333333333321,
      "v": 68
    },
    {
      "midi": 69,
      "hit": false,
      "t": 28000.000000000004,
      "d": 808.3333333333321,
      "v": 68
    },
    {
      "midi": 53,
      "hit": false,
      "t": 29250.000000000004,
      "d": 587.5,
      "v": 70
    },
    {
      "midi": 57,
      "hit": false,
      "t": 29250.000000000004,
      "d": 587.5,
      "v": 70
    },
    {
      "midi": 60,
      "hit": false,
      "t": 29250.000000000004,
      "d": 587.5,
      "v": 70
    },
    {
      "midi": 62,
      "hit": false,
      "t": 29250.000000000004,
      "d": 587.5,
      "v": 70
    },
    {
      "midi": 57,
      "hit": false,
      "t": 30000.000000000004,
      "d": 808.3333333333321,
      "v": 68
    },
    {
      "midi": 62,
      "hit": false,
      "t": 30000.000000000004,
      "d": 808.3333333333321,
      "v": 68
    },
    {
      "midi": 65,
      "hit": false,
      "t": 30000.000000000004,
      "d": 808.3333333333321,
      "v": 68
    },
    {
      "midi": 71,
      "hit": false,
      "t": 30000.000000000004,
      "d": 808.3333333333321,
      "v": 68
    },
    {
      "midi": 56,
      "hit": false,
      "t": 31000.000000000004,
      "d": 808.3333333333321,
      "v": 68
    },
    {
      "midi": 62,
      "hit": false,
      "t": 31000.000000000004,
      "d": 808.3333333333321,
      "v": 68
    },
    {
      "midi": 65,
      "hit": false,
      "t": 31000.000000000004,
      "d": 808.3333333333321,
      "v": 68
    },
    {
      "midi": 72,
      "hit": false,
      "t": 31000.000000000004,
      "d": 808.3333333333321,
      "v": 68
    },
    {
      "midi": 54,
      "hit": false,
      "t": 32000.000000000004,
      "d": 3216.666666666668,
      "v": 68
    },
    {
      "midi": 56,
      "hit": false,
      "t": 32000.000000000004,
      "d": 3216.666666666668,
      "v": 68
    },
    {
      "midi": 60,
      "hit": false,
      "t": 32000.000000000004,
      "d": 3216.666666666668,
      "v": 68
    },
    {
      "midi": 64,
      "hit": false,
      "t": 32000.000000000004,
      "d": 3216.666666666668,
      "v": 68
    },
    {
      "midi": 71,
      "hit": false,
      "t": 32000.000000000004,
      "d": 3216.666666666668,
      "v": 68
    },
    {
      "midi": 60,
      "hit": false,
      "t": 35250.00000000001,
      "d": 250,
      "v": 57
    },
    {
      "midi": 66,
      "hit": false,
      "t": 35500.00000000001,
      "d": 258.33333333333576,
      "v": 66
    },
    {
      "midi": 69,
      "hit": false,
      "t": 35625.00000000001,
      "d": 212.5,
      "v": 60
    },
    {
      "midi": 74,
      "hit": false,
      "t": 35758.33333333334,
      "d": 183.33333333332848,
      "v": 72
    },
    {
      "midi": 53,
      "hit": false,
      "t": 36000.00000000001,
      "d": 283.33333333333576,
      "v": 62
    },
    {
      "midi": 59,
      "hit": false,
      "t": 36250.00000000001,
      "d": 1837.5,
      "v": 58
    },
    {
      "midi": 62,
      "hit": false,
      "t": 36500.00000000001,
      "d": 1625,
      "v": 68
    },
    {
      "midi": 68,
      "hit": false,
      "t": 36750.00000000001,
      "d": 1504.1666666666642,
      "v": 68
    },
    {
      "midi": 54,
      "hit": false,
      "t": 38250.00000000001,
      "d": 212.5,
      "v": 70
    },
    {
      "midi": 57,
      "hit": false,
      "t": 38250.00000000001,
      "d": 212.5,
      "v": 70
    },
    {
      "midi": 60,
      "hit": false,
      "t": 38250.00000000001,
      "d": 212.5,
      "v": 70
    },
    {
      "midi": 63,
      "hit": false,
      "t": 38250.00000000001,
      "d": 212.5,
      "v": 70
    },
    {
      "midi": 53,
      "hit": false,
      "t": 38500.00000000001,
      "d": 1070.8333333333358,
      "v": 78
    },
    {
      "midi": 56,
      "hit": false,
      "t": 38500.00000000001,
      "d": 1070.8333333333358,
      "v": 78
    },
    {
      "midi": 59,
      "hit": false,
      "t": 38500.00000000001,
      "d": 1070.8333333333358,
      "v": 78
    },
    {
      "midi": 62,
      "hit": false,
      "t": 38500.00000000001,
      "d": 1070.8333333333358,
      "v": 78
    },
    {
      "midi": 62,
      "hit": false,
      "t": 40000.00000000001,
      "d": 1737.5,
      "v": 66
    },
    {
      "midi": 58,
      "hit": false,
      "t": 40000.00000000001,
      "d": 1758.3333333333358,
      "v": 56
    },
    {
      "midi": 67,
      "hit": false,
      "t": 40000.00000000001,
      "d": 1762.5,
      "v": 61
    },
    {
      "midi": 53,
      "hit": false,
      "t": 40000.00000000001,
      "d": 1775,
      "v": 59
    },
    {
      "midi": 67,
      "hit": false,
      "t": 42000.00000000001,
      "d": 1737.5,
      "v": 66
    },
    {
      "midi": 65,
      "hit": false,
      "t": 42000.00000000001,
      "d": 1758.3333333333358,
      "v": 56
    },
    {
      "midi": 74,
      "hit": false,
      "t": 42000.00000000001,
      "d": 1762.5,
      "v": 61
    },
    {
      "midi": 58,
      "hit": false,
      "t": 42000.00000000001,
      "d": 1775,
      "v": 59
    },
    {
      "midi": 50,
      "hit": false,
      "t": 44250.00000000001,
      "d": 587.5,
      "v": 70
    },
    {
      "midi": 53,
      "hit": false,
      "t": 44250.00000000001,
      "d": 587.5,
      "v": 70
    },
    {
      "midi": 56,
      "hit": false,
      "t": 44250.00000000001,
      "d": 587.5,
      "v": 70
    },
    {
      "midi": 59,
      "hit": false,
      "t": 44250.00000000001,
      "d": 587.5,
      "v": 70
    },
    {
      "midi": 52,
      "hit": false,
      "t": 45250.00000000001,
      "d": 587.5,
      "v": 70
    },
    {
      "midi": 57,
      "hit": false,
      "t": 45250.00000000001,
      "d": 587.5,
      "v": 70
    },
    {
      "midi": 60,
      "hit": false,
      "t": 45250.00000000001,
      "d": 587.5,
      "v": 70
    },
    {
      "midi": 67,
      "hit": false,
      "t": 45250.00000000001,
      "d": 587.5,
      "v": 70
    },
    {
      "midi": 52,
      "hit": false,
      "t": 46000.00000000001,
      "d": 1700,
      "v": 60
    },
    {
      "midi": 57,
      "hit": false,
      "t": 46000.00000000001,
      "d": 1700,
      "v": 60
    },
    {
      "midi": 60,
      "hit": false,
      "t": 46000.00000000001,
      "d": 1700,
      "v": 60
    },
    {
      "midi": 67,
      "hit": false,
      "t": 46000.00000000001,
      "d": 1700,
      "v": 60
    },
    {
      "midi": 72,
      "hit": false,
      "t": 48000.00000000001,
      "d": 1737.5,
      "v": 66
    },
    {
      "midi": 68,
      "hit": false,
      "t": 48000.00000000001,
      "d": 1758.3333333333358,
      "v": 56
    },
    {
      "midi": 77,
      "hit": false,
      "t": 48000.00000000001,
      "d": 1762.5,
      "v": 61
    },
    {
      "midi": 63,
      "hit": false,
      "t": 48000.00000000001,
      "d": 1775,
      "v": 59
    },
    {
      "midi": 56,
      "hit": false,
      "t": 50000.00000000001,
      "d": 1700,
      "v": 60
    },
    {
      "midi": 62,
      "hit": false,
      "t": 50000.00000000001,
      "d": 1700,
      "v": 60
    },
    {
      "midi": 67,
      "hit": false,
      "t": 50000.00000000001,
      "d": 1700,
      "v": 60
    },
    {
      "midi": 72,
      "hit": false,
      "t": 50000.00000000001,
      "d": 1700,
      "v": 60
    },
    {
      "midi": 55,
      "hit": false,
      "t": 52000.00000000001,
      "d": 1020.8333333333358,
      "v": 62
    },
    {
      "midi": 62,
      "hit": false,
      "t": 52250.00000000001,
      "d": 825,
      "v": 47
    },
    {
      "midi": 64,
      "hit": false,
      "t": 52500.00000000001,
      "d": 533.3333333333358,
      "v": 52
    },
    {
      "midi": 71,
      "hit": false,
      "t": 52750.00000000001,
      "d": 350,
      "v": 68
    },
    {
      "midi": 55,
      "hit": false,
      "t": 53250.00000000001,
      "d": 183.33333333333576,
      "v": 64
    },
    {
      "midi": 64,
      "hit": false,
      "t": 53250.00000000001,
      "d": 183.33333333333576,
      "v": 70
    },
    {
      "midi": 62,
      "hit": false,
      "t": 53250.00000000001,
      "d": 208.33333333333576,
      "v": 58
    },
    {
      "midi": 71,
      "hit": false,
      "t": 53250.00000000001,
      "d": 208.33333333333576,
      "v": 68
    },
    {
      "midi": 55,
      "hit": false,
      "t": 54000.00000000001,
      "d": 1700,
      "v": 60
    },
    {
      "midi": 60,
      "hit": false,
      "t": 54000.00000000001,
      "d": 1700,
      "v": 60
    },
    {
      "midi": 64,
      "hit": false,
      "t": 54000.00000000001,
      "d": 1700,
      "v": 60
    },
    {
      "midi": 69,
      "hit": false,
      "t": 54000.00000000001,
      "d": 1700,
      "v": 60
    },
    {
      "midi": 69,
      "hit": false,
      "t": 56000.00000000001,
      "d": 1737.5,
      "v": 66
    },
    {
      "midi": 65,
      "hit": false,
      "t": 56000.00000000001,
      "d": 1758.3333333333358,
      "v": 56
    },
    {
      "midi": 74,
      "hit": false,
      "t": 56000.00000000001,
      "d": 1762.5,
      "v": 61
    },
    {
      "midi": 60,
      "hit": false,
      "t": 56000.00000000001,
      "d": 1775,
      "v": 59
    },
    {
      "midi": 62,
      "hit": false,
      "t": 58000.00000000001,
      "d": 1737.5,
      "v": 66
    },
    {
      "midi": 59,
      "hit": false,
      "t": 58000.00000000001,
      "d": 1758.3333333333358,
      "v": 56
    },
    {
      "midi": 69,
      "hit": false,
      "t": 58000.00000000001,
      "d": 1762.5,
      "v": 61
    },
    {
      "midi": 53,
      "hit": false,
      "t": 58000.00000000001,
      "d": 1775,
      "v": 59
    },
    {
      "midi": 55,
      "hit": false,
      "t": 60000.00000000001,
      "d": 1700,
      "v": 60
    },
    {
      "midi": 59,
      "hit": false,
      "t": 60000.00000000001,
      "d": 1700,
      "v": 60
    },
    {
      "midi": 62,
      "hit": false,
      "t": 60000.00000000001,
      "d": 1700,
      "v": 60
    },
    {
      "midi": 64,
      "hit": false,
      "t": 60000.00000000001,
      "d": 1700,
      "v": 60
    },
    {
      "midi": 55,
      "hit": false,
      "t": 62000.00000000001,
      "d": 1700,
      "v": 60
    },
    {
      "midi": 61,
      "hit": false,
      "t": 62000.00000000001,
      "d": 1700,
      "v": 60
    },
    {
      "midi": 66,
      "hit": false,
      "t": 62000.00000000001,
      "d": 1700,
      "v": 60
    },
    {
      "midi": 71,
      "hit": false,
      "t": 62000.00000000001,
      "d": 1700,
      "v": 60
    },
    {
      "midi": 53,
      "hit": false,
      "t": 64000.00000000001,
      "d": 1699.9999999999927,
      "v": 60
    },
    {
      "midi": 60,
      "hit": false,
      "t": 64000.00000000001,
      "d": 1699.9999999999927,
      "v": 60
    },
    {
      "midi": 64,
      "hit": false,
      "t": 64000.00000000001,
      "d": 1699.9999999999927,
      "v": 60
    },
    {
      "midi": 69,
      "hit": false,
      "t": 64000.00000000001,
      "d": 1699.9999999999927,
      "v": 60
    },
    {
      "midi": 53,
      "hit": false,
      "t": 66000,
      "d": 1700,
      "v": 60
    },
    {
      "midi": 57,
      "hit": false,
      "t": 66000,
      "d": 1700,
      "v": 60
    },
    {
      "midi": 59,
      "hit": false,
      "t": 66000,
      "d": 1700,
      "v": 60
    },
    {
      "midi": 64,
      "hit": false,
      "t": 66000,
      "d": 1700,
      "v": 60
    },
    {
      "midi": 60,
      "hit": false,
      "t": 68000,
      "d": 283.3333333333285,
      "v": 62
    },
    {
      "midi": 66,
      "hit": false,
      "t": 68250,
      "d": 1837.5,
      "v": 58
    },
    {
      "midi": 69,
      "hit": false,
      "t": 68500,
      "d": 1625,
      "v": 68
    },
    {
      "midi": 74,
      "hit": false,
      "t": 68750,
      "d": 1504.1666666666715,
      "v": 68
    },
    {
      "midi": 55,
      "hit": false,
      "t": 70250,
      "d": 212.5,
      "v": 70
    },
    {
      "midi": 57,
      "hit": false,
      "t": 70250,
      "d": 212.5,
      "v": 70
    },
    {
      "midi": 61,
      "hit": false,
      "t": 70250,
      "d": 212.5,
      "v": 70
    },
    {
      "midi": 65,
      "hit": false,
      "t": 70250,
      "d": 212.5,
      "v": 70
    },
    {
      "midi": 72,
      "hit": false,
      "t": 70250,
      "d": 212.5,
      "v": 70
    },
    {
      "midi": 54,
      "hit": false,
      "t": 70500,
      "d": 1070.8333333333285,
      "v": 78
    },
    {
      "midi": 56,
      "hit": false,
      "t": 70500,
      "d": 1070.8333333333285,
      "v": 78
    },
    {
      "midi": 60,
      "hit": false,
      "t": 70500,
      "d": 1070.8333333333285,
      "v": 78
    },
    {
      "midi": 64,
      "hit": false,
      "t": 70500,
      "d": 1070.8333333333285,
      "v": 78
    },
    {
      "midi": 71,
      "hit": false,
      "t": 70500,
      "d": 1070.8333333333285,
      "v": 78
    },
    {
      "midi": 53,
      "hit": false,
      "t": 72000,
      "d": 2575,
      "v": 58
    },
    {
      "midi": 59,
      "hit": false,
      "t": 72000,
      "d": 2816.6666666666715,
      "v": 58
    },
    {
      "midi": 62,
      "hit": false,
      "t": 72000,
      "d": 2870.833333333343,
      "v": 66
    },
    {
      "midi": 68,
      "hit": false,
      "t": 72000,
      "d": 2870.833333333343,
      "v": 56
    },
    {
      "midi": 53,
      "hit": false,
      "t": 75000.00000000001,
      "d": 816.6666666666715,
      "v": 59
    },
    {
      "midi": 59,
      "hit": false,
      "t": 75250.00000000001,
      "d": 616.6666666666715,
      "v": 49
    },
    {
      "midi": 62,
      "hit": false,
      "t": 75500.00000000001,
      "d": 358.33333333334303,
      "v": 63
    },
    {
      "midi": 68,
      "hit": false,
      "t": 75750.00000000001,
      "d": 162.5,
      "v": 68
    },
    {
      "midi": 53,
      "hit": false,
      "t": 76000.00000000001,
      "d": 1700,
      "v": 60
    },
    {
      "midi": 58,
      "hit": false,
      "t": 76000.00000000001,
      "d": 1700,
      "v": 60
    },
    {
      "midi": 62,
      "hit": false,
      "t": 76000.00000000001,
      "d": 1700,
      "v": 60
    },
    {
      "midi": 67,
      "hit": false,
      "t": 76000.00000000001,
      "d": 1700,
      "v": 60
    },
    {
      "midi": 53,
      "hit": false,
      "t": 78000.00000000001,
      "d": 1700,
      "v": 60
    },
    {
      "midi": 58,
      "hit": false,
      "t": 78000.00000000001,
      "d": 1700,
      "v": 60
    },
    {
      "midi": 62,
      "hit": false,
      "t": 78000.00000000001,
      "d": 1700,
      "v": 60
    },
    {
      "midi": 69,
      "hit": false,
      "t": 78000.00000000001,
      "d": 1700,
      "v": 60
    },
    {
      "midi": 50,
      "hit": false,
      "t": 80000.00000000001,
      "d": 808.3333333333285,
      "v": 68
    },
    {
      "midi": 53,
      "hit": false,
      "t": 80000.00000000001,
      "d": 808.3333333333285,
      "v": 68
    },
    {
      "midi": 56,
      "hit": false,
      "t": 80000.00000000001,
      "d": 808.3333333333285,
      "v": 68
    },
    {
      "midi": 59,
      "hit": false,
      "t": 80000.00000000001,
      "d": 808.3333333333285,
      "v": 68
    },
    {
      "midi": 52,
      "hit": false,
      "t": 81250.00000000001,
      "d": 587.5,
      "v": 70
    },
    {
      "midi": 55,
      "hit": false,
      "t": 81250.00000000001,
      "d": 587.5,
      "v": 70
    },
    {
      "midi": 57,
      "hit": false,
      "t": 81250.00000000001,
      "d": 587.5,
      "v": 70
    },
    {
      "midi": 60,
      "hit": false,
      "t": 81250.00000000001,
      "d": 587.5,
      "v": 70
    },
    {
      "midi": 52,
      "hit": false,
      "t": 82000.00000000001,
      "d": 1700,
      "v": 60
    },
    {
      "midi": 57,
      "hit": false,
      "t": 82000.00000000001,
      "d": 1700,
      "v": 60
    },
    {
      "midi": 60,
      "hit": false,
      "t": 82000.00000000001,
      "d": 1700,
      "v": 60
    },
    {
      "midi": 67,
      "hit": false,
      "t": 82000.00000000001,
      "d": 1700,
      "v": 60
    },
    {
      "midi": 72,
      "hit": false,
      "t": 84000.00000000001,
      "d": 1737.5,
      "v": 66
    },
    {
      "midi": 68,
      "hit": false,
      "t": 84000.00000000001,
      "d": 1758.3333333333285,
      "v": 56
    },
    {
      "midi": 77,
      "hit": false,
      "t": 84000.00000000001,
      "d": 1762.5,
      "v": 61
    },
    {
      "midi": 63,
      "hit": false,
      "t": 84000.00000000001,
      "d": 1775,
      "v": 59
    },
    {
      "midi": 56,
      "hit": false,
      "t": 86000.00000000001,
      "d": 1700,
      "v": 60
    },
    {
      "midi": 58,
      "hit": false,
      "t": 86000.00000000001,
      "d": 1700,
      "v": 60
    },
    {
      "midi": 62,
      "hit": false,
      "t": 86000.00000000001,
      "d": 1700,
      "v": 60
    },
    {
      "midi": 65,
      "hit": false,
      "t": 86000.00000000001,
      "d": 1700,
      "v": 60
    },
    {
      "midi": 55,
      "hit": false,
      "t": 88000.00000000001,
      "d": 1020.8333333333285,
      "v": 62
    },
    {
      "midi": 62,
      "hit": false,
      "t": 88250.00000000001,
      "d": 825,
      "v": 47
    },
    {
      "midi": 64,
      "hit": false,
      "t": 88500.00000000001,
      "d": 533.3333333333285,
      "v": 52
    },
    {
      "midi": 71,
      "hit": false,
      "t": 88750.00000000001,
      "d": 350,
      "v": 68
    },
    {
      "midi": 55,
      "hit": false,
      "t": 89250.00000000001,
      "d": 183.33333333332848,
      "v": 64
    },
    {
      "midi": 64,
      "hit": false,
      "t": 89250.00000000001,
      "d": 183.33333333332848,
      "v": 70
    },
    {
      "midi": 62,
      "hit": false,
      "t": 89250.00000000001,
      "d": 208.33333333332848,
      "v": 58
    },
    {
      "midi": 71,
      "hit": false,
      "t": 89250.00000000001,
      "d": 208.33333333332848,
      "v": 68
    },
    {
      "midi": 64,
      "hit": false,
      "t": 90000.00000000001,
      "d": 1737.5,
      "v": 66
    },
    {
      "midi": 61,
      "hit": false,
      "t": 90000.00000000001,
      "d": 1758.3333333333285,
      "v": 56
    },
    {
      "midi": 71,
      "hit": false,
      "t": 90000.00000000001,
      "d": 1762.5,
      "v": 61
    },
    {
      "midi": 55,
      "hit": false,
      "t": 90000.00000000001,
      "d": 1775,
      "v": 59
    },
    {
      "midi": 54,
      "hit": false,
      "t": 92000.00000000001,
      "d": 3216.6666666666715,
      "v": 68
    },
    {
      "midi": 60,
      "hit": false,
      "t": 92000.00000000001,
      "d": 3216.6666666666715,
      "v": 68
    },
    {
      "midi": 64,
      "hit": false,
      "t": 92000.00000000001,
      "d": 3216.6666666666715,
      "v": 68
    },
    {
      "midi": 69,
      "hit": false,
      "t": 92000.00000000001,
      "d": 3216.6666666666715,
      "v": 68
    },
    {
      "midi": 60,
      "hit": false,
      "t": 95250.00000000001,
      "d": 250,
      "v": 57
    },
    {
      "midi": 66,
      "hit": false,
      "t": 95500.00000000001,
      "d": 258.3333333333285,
      "v": 66
    },
    {
      "midi": 69,
      "hit": false,
      "t": 95625.00000000001,
      "d": 212.5,
      "v": 60
    },
    {
      "midi": 76,
      "hit": false,
      "t": 95758.33333333334,
      "d": 183.33333333334303,
      "v": 72
    },
    {
      "midi": 53,
      "hit": false,
      "t": 96250.00000000001,
      "d": 587.5,
      "v": 70
    },
    {
      "midi": 60,
      "hit": false,
      "t": 96250.00000000001,
      "d": 587.5,
      "v": 70
    },
    {
      "midi": 62,
      "hit": false,
      "t": 96250.00000000001,
      "d": 587.5,
      "v": 70
    },
    {
      "midi": 69,
      "hit": false,
      "t": 96250.00000000001,
      "d": 587.5,
      "v": 70
    },
    {
      "midi": 53,
      "hit": false,
      "t": 97000.00000000001,
      "d": 808.3333333333285,
      "v": 68
    },
    {
      "midi": 60,
      "hit": false,
      "t": 97000.00000000001,
      "d": 808.3333333333285,
      "v": 68
    },
    {
      "midi": 64,
      "hit": false,
      "t": 97000.00000000001,
      "d": 808.3333333333285,
      "v": 68
    },
    {
      "midi": 69,
      "hit": false,
      "t": 97000.00000000001,
      "d": 808.3333333333285,
      "v": 68
    },
    {
      "midi": 57,
      "hit": false,
      "t": 98250.00000000001,
      "d": 587.5,
      "v": 70
    },
    {
      "midi": 59,
      "hit": false,
      "t": 98250.00000000001,
      "d": 587.5,
      "v": 70
    },
    {
      "midi": 62,
      "hit": false,
      "t": 98250.00000000001,
      "d": 587.5,
      "v": 70
    },
    {
      "midi": 65,
      "hit": false,
      "t": 98250.00000000001,
      "d": 587.5,
      "v": 70
    },
    {
      "midi": 56,
      "hit": false,
      "t": 99250.00000000001,
      "d": 587.5,
      "v": 70
    },
    {
      "midi": 62,
      "hit": false,
      "t": 99250.00000000001,
      "d": 587.5,
      "v": 70
    },
    {
      "midi": 65,
      "hit": false,
      "t": 99250.00000000001,
      "d": 587.5,
      "v": 70
    },
    {
      "midi": 72,
      "hit": false,
      "t": 99250.00000000001,
      "d": 587.5,
      "v": 70
    },
    {
      "midi": 60,
      "hit": false,
      "t": 100000.00000000001,
      "d": 2575,
      "v": 58
    },
    {
      "midi": 66,
      "hit": false,
      "t": 100000.00000000001,
      "d": 2816.6666666666715,
      "v": 58
    },
    {
      "midi": 69,
      "hit": false,
      "t": 100000.00000000001,
      "d": 2870.833333333343,
      "v": 66
    },
    {
      "midi": 74,
      "hit": false,
      "t": 100000.00000000001,
      "d": 2870.833333333343,
      "v": 56
    },
    {
      "midi": 60,
      "hit": false,
      "t": 103000.00000000003,
      "d": 816.6666666666715,
      "v": 59
    },
    {
      "midi": 66,
      "hit": false,
      "t": 103250.00000000003,
      "d": 616.6666666666715,
      "v": 49
    },
    {
      "midi": 69,
      "hit": false,
      "t": 103500.00000000003,
      "d": 358.33333333334303,
      "v": 63
    },
    {
      "midi": 74,
      "hit": false,
      "t": 103750.00000000003,
      "d": 162.5,
      "v": 68
    },
    {
      "midi": 53,
      "hit": false,
      "t": 104000.00000000003,
      "d": 2575,
      "v": 58
    },
    {
      "midi": 59,
      "hit": false,
      "t": 104000.00000000003,
      "d": 2816.6666666666715,
      "v": 58
    },
    {
      "midi": 62,
      "hit": false,
      "t": 104000.00000000003,
      "d": 2870.833333333343,
      "v": 66
    },
    {
      "midi": 68,
      "hit": false,
      "t": 104000.00000000003,
      "d": 2870.833333333343,
      "v": 56
    },
    {
      "midi": 53,
      "hit": false,
      "t": 107000.00000000004,
      "d": 816.6666666666715,
      "v": 59
    },
    {
      "midi": 59,
      "hit": false,
      "t": 107250.00000000004,
      "d": 616.6666666666715,
      "v": 49
    },
    {
      "midi": 62,
      "hit": false,
      "t": 107500.00000000004,
      "d": 358.33333333334303,
      "v": 63
    },
    {
      "midi": 68,
      "hit": false,
      "t": 107750.00000000004,
      "d": 162.5,
      "v": 68
    },
    {
      "midi": 53,
      "hit": false,
      "t": 108000.00000000004,
      "d": 1700,
      "v": 60
    },
    {
      "midi": 58,
      "hit": false,
      "t": 108000.00000000004,
      "d": 1700,
      "v": 60
    },
    {
      "midi": 62,
      "hit": false,
      "t": 108000.00000000004,
      "d": 1700,
      "v": 60
    },
    {
      "midi": 67,
      "hit": false,
      "t": 108000.00000000004,
      "d": 1700,
      "v": 60
    },
    {
      "midi": 58,
      "hit": false,
      "t": 110000.00000000004,
      "d": 1020.8333333333285,
      "v": 62
    },
    {
      "midi": 65,
      "hit": false,
      "t": 110250.00000000004,
      "d": 825,
      "v": 47
    },
    {
      "midi": 67,
      "hit": false,
      "t": 110500.00000000004,
      "d": 533.3333333333285,
      "v": 52
    },
    {
      "midi": 74,
      "hit": false,
      "t": 110750.00000000004,
      "d": 350,
      "v": 68
    },
    {
      "midi": 58,
      "hit": false,
      "t": 111250.00000000004,
      "d": 183.33333333332848,
      "v": 64
    },
    {
      "midi": 67,
      "hit": false,
      "t": 111250.00000000004,
      "d": 183.33333333332848,
      "v": 70
    },
    {
      "midi": 65,
      "hit": false,
      "t": 111250.00000000004,
      "d": 208.33333333332848,
      "v": 58
    },
    {
      "midi": 74,
      "hit": false,
      "t": 111250.00000000004,
      "d": 208.33333333332848,
      "v": 68
    },
    {
      "midi": 50,
      "hit": false,
      "t": 112250.00000000004,
      "d": 587.5,
      "v": 70
    },
    {
      "midi": 56,
      "hit": false,
      "t": 112250.00000000004,
      "d": 587.5,
      "v": 70
    },
    {
      "midi": 59,
      "hit": false,
      "t": 112250.00000000004,
      "d": 587.5,
      "v": 70
    },
    {
      "midi": 65,
      "hit": false,
      "t": 112250.00000000004,
      "d": 587.5,
      "v": 70
    },
    {
      "midi": 52,
      "hit": false,
      "t": 113250.00000000004,
      "d": 587.5,
      "v": 70
    },
    {
      "midi": 55,
      "hit": false,
      "t": 113250.00000000004,
      "d": 587.5,
      "v": 70
    },
    {
      "midi": 57,
      "hit": false,
      "t": 113250.00000000004,
      "d": 587.5,
      "v": 70
    },
    {
      "midi": 60,
      "hit": false,
      "t": 113250.00000000004,
      "d": 587.5,
      "v": 70
    },
    {
      "midi": 72,
      "hit": false,
      "t": 114000.00000000004,
      "d": 1737.5,
      "v": 66
    },
    {
      "midi": 69,
      "hit": false,
      "t": 114000.00000000004,
      "d": 1758.3333333333285,
      "v": 56
    },
    {
      "midi": 79,
      "hit": false,
      "t": 114000.00000000004,
      "d": 1762.5,
      "v": 61
    },
    {
      "midi": 64,
      "hit": false,
      "t": 114000.00000000004,
      "d": 1775,
      "v": 59
    },
    {
      "midi": 56,
      "hit": false,
      "t": 116000.00000000004,
      "d": 1020.8333333333285,
      "v": 62
    },
    {
      "midi": 63,
      "hit": false,
      "t": 116250.00000000004,
      "d": 825,
      "v": 47
    },
    {
      "midi": 65,
      "hit": false,
      "t": 116500.00000000004,
      "d": 533.3333333333285,
      "v": 52
    },
    {
      "midi": 72,
      "hit": false,
      "t": 116750.00000000004,
      "d": 350,
      "v": 68
    },
    {
      "midi": 56,
      "hit": false,
      "t": 117250.00000000004,
      "d": 183.33333333332848,
      "v": 64
    },
    {
      "midi": 65,
      "hit": false,
      "t": 117250.00000000004,
      "d": 183.33333333332848,
      "v": 70
    },
    {
      "midi": 63,
      "hit": false,
      "t": 117250.00000000004,
      "d": 208.33333333332848,
      "v": 58
    },
    {
      "midi": 72,
      "hit": false,
      "t": 117250.00000000004,
      "d": 208.33333333332848,
      "v": 68
    },
    {
      "midi": 65,
      "hit": false,
      "t": 118000.00000000004,
      "d": 1737.5,
      "v": 66
    },
    {
      "midi": 62,
      "hit": false,
      "t": 118000.00000000004,
      "d": 1758.3333333333285,
      "v": 56
    },
    {
      "midi": 70,
      "hit": false,
      "t": 118000.00000000004,
      "d": 1762.5,
      "v": 61
    },
    {
      "midi": 56,
      "hit": false,
      "t": 118000.00000000004,
      "d": 1775,
      "v": 59
    },
    {
      "midi": 71,
      "hit": false,
      "t": 120000.00000000004,
      "d": 1737.5,
      "v": 66
    },
    {
      "midi": 67,
      "hit": false,
      "t": 120000.00000000004,
      "d": 1758.3333333333285,
      "v": 56
    },
    {
      "midi": 76,
      "hit": false,
      "t": 120000.00000000004,
      "d": 1762.5,
      "v": 61
    },
    {
      "midi": 62,
      "hit": false,
      "t": 120000.00000000004,
      "d": 1775,
      "v": 59
    },
    {
      "midi": 55,
      "hit": false,
      "t": 122000.00000000004,
      "d": 1700,
      "v": 60
    },
    {
      "midi": 60,
      "hit": false,
      "t": 122000.00000000004,
      "d": 1700,
      "v": 60
    },
    {
      "midi": 64,
      "hit": false,
      "t": 122000.00000000004,
      "d": 1700,
      "v": 60
    },
    {
      "midi": 69,
      "hit": false,
      "t": 122000.00000000004,
      "d": 1700,
      "v": 60
    },
    {
      "midi": 60,
      "hit": false,
      "t": 124000.00000000004,
      "d": 1020.8333333333285,
      "v": 62
    },
    {
      "midi": 65,
      "hit": false,
      "t": 124250.00000000004,
      "d": 825,
      "v": 47
    },
    {
      "midi": 69,
      "hit": false,
      "t": 124500.00000000004,
      "d": 533.3333333333285,
      "v": 52
    },
    {
      "midi": 74,
      "hit": false,
      "t": 124750.00000000004,
      "d": 350,
      "v": 68
    },
    {
      "midi": 60,
      "hit": false,
      "t": 125250.00000000004,
      "d": 183.33333333332848,
      "v": 64
    },
    {
      "midi": 69,
      "hit": false,
      "t": 125250.00000000004,
      "d": 183.33333333332848,
      "v": 70
    },
    {
      "midi": 65,
      "hit": false,
      "t": 125250.00000000004,
      "d": 208.33333333332848,
      "v": 58
    },
    {
      "midi": 74,
      "hit": false,
      "t": 125250.00000000004,
      "d": 208.33333333332848,
      "v": 68
    },
    {
      "midi": 59,
      "hit": false,
      "t": 126000.00000000004,
      "d": 1020.8333333333285,
      "v": 62
    },
    {
      "midi": 65,
      "hit": false,
      "t": 126250.00000000004,
      "d": 825,
      "v": 47
    },
    {
      "midi": 69,
      "hit": false,
      "t": 126500.00000000004,
      "d": 533.3333333333285,
      "v": 52
    },
    {
      "midi": 74,
      "hit": false,
      "t": 126750.00000000004,
      "d": 350,
      "v": 68
    },
    {
      "midi": 59,
      "hit": false,
      "t": 127250.00000000004,
      "d": 183.33333333332848,
      "v": 64
    },
    {
      "midi": 69,
      "hit": false,
      "t": 127250.00000000004,
      "d": 183.33333333332848,
      "v": 70
    },
    {
      "midi": 65,
      "hit": false,
      "t": 127250.00000000004,
      "d": 208.33333333332848,
      "v": 58
    },
    {
      "midi": 74,
      "hit": false,
      "t": 127250.00000000004,
      "d": 208.33333333332848,
      "v": 68
    },
    {
      "midi": 71,
      "hit": false,
      "t": 128000.00000000004,
      "d": 1737.5,
      "v": 66
    },
    {
      "midi": 67,
      "hit": false,
      "t": 128000.00000000004,
      "d": 1758.3333333333285,
      "v": 56
    },
    {
      "midi": 76,
      "hit": false,
      "t": 128000.00000000004,
      "d": 1762.5,
      "v": 61
    },
    {
      "midi": 62,
      "hit": false,
      "t": 128000.00000000004,
      "d": 1775,
      "v": 59
    },
    {
      "midi": 64,
      "hit": false,
      "t": 130000.00000000004,
      "d": 1737.5000000000146,
      "v": 66
    },
    {
      "midi": 61,
      "hit": false,
      "t": 130000.00000000004,
      "d": 1758.3333333333576,
      "v": 56
    },
    {
      "midi": 71,
      "hit": false,
      "t": 130000.00000000004,
      "d": 1762.5000000000146,
      "v": 61
    },
    {
      "midi": 55,
      "hit": false,
      "t": 130000.00000000004,
      "d": 1775.0000000000146,
      "v": 59
    },
    {
      "midi": 69,
      "hit": false,
      "t": 132000.00000000006,
      "d": 1737.5,
      "v": 66
    },
    {
      "midi": 65,
      "hit": false,
      "t": 132000.00000000006,
      "d": 1758.333333333343,
      "v": 56
    },
    {
      "midi": 74,
      "hit": false,
      "t": 132000.00000000006,
      "d": 1762.5,
      "v": 61
    },
    {
      "midi": 60,
      "hit": false,
      "t": 132000.00000000006,
      "d": 1775,
      "v": 59
    },
    {
      "midi": 62,
      "hit": false,
      "t": 134000.00000000006,
      "d": 1737.5,
      "v": 66
    },
    {
      "midi": 59,
      "hit": false,
      "t": 134000.00000000006,
      "d": 1758.333333333343,
      "v": 56
    },
    {
      "midi": 69,
      "hit": false,
      "t": 134000.00000000006,
      "d": 1762.5,
      "v": 61
    },
    {
      "midi": 53,
      "hit": false,
      "t": 134000.00000000006,
      "d": 1775,
      "v": 59
    },
    {
      "midi": 86,
      "hit": false,
      "t": 138000.00000000006,
      "d": 1920.833333333343,
      "v": 63
    },
    {
      "midi": 81,
      "hit": false,
      "t": 138250.00000000006,
      "d": 1575,
      "v": 53
    },
    {
      "midi": 78,
      "hit": false,
      "t": 138500.00000000006,
      "d": 1358.333333333343,
      "v": 59
    },
    {
      "midi": 72,
      "hit": false,
      "t": 138750.00000000006,
      "d": 1120.833333333343,
      "v": 48
    },
    {
      "midi": 62,
      "hit": false,
      "t": 139250.00000000006,
      "d": 679.1666666666861,
      "v": 52
    },
    {
      "midi": 53,
      "hit": false,
      "t": 140000.0000000001,
      "d": 270.83333333334303,
      "v": 42
    },
    {
      "midi": 56,
      "hit": false,
      "t": 140000.0000000001,
      "d": 270.83333333334303,
      "v": 42
    },
    {
      "midi": 59,
      "hit": false,
      "t": 140000.0000000001,
      "d": 270.83333333334303,
      "v": 42
    },
    {
      "midi": 62,
      "hit": false,
      "t": 140000.0000000001,
      "d": 270.83333333334303,
      "v": 42
    },
    {
      "midi": 53,
      "hit": false,
      "t": 140750.0000000001,
      "d": 2662.5,
      "v": 62
    },
    {
      "midi": 56,
      "hit": false,
      "t": 140750.0000000001,
      "d": 2662.5,
      "v": 62
    },
    {
      "midi": 59,
      "hit": false,
      "t": 140750.0000000001,
      "d": 2662.5,
      "v": 62
    },
    {
      "midi": 62,
      "hit": false,
      "t": 140750.0000000001,
      "d": 2662.5,
      "v": 62
    },
    {
      "midi": 62,
      "hit": false,
      "t": 144000.0000000001,
      "d": 1737.5,
      "v": 66
    },
    {
      "midi": 58,
      "hit": false,
      "t": 144000.0000000001,
      "d": 1758.333333333343,
      "v": 56
    },
    {
      "midi": 67,
      "hit": false,
      "t": 144000.0000000001,
      "d": 1762.5,
      "v": 61
    },
    {
      "midi": 53,
      "hit": false,
      "t": 144000.0000000001,
      "d": 1775,
      "v": 59
    },
    {
      "midi": 58,
      "hit": false,
      "t": 146000.0000000001,
      "d": 1020.833333333343,
      "v": 62
    },
    {
      "midi": 65,
      "hit": false,
      "t": 146250.0000000001,
      "d": 825,
      "v": 47
    },
    {
      "midi": 67,
      "hit": false,
      "t": 146500.0000000001,
      "d": 533.333333333343,
      "v": 52
    },
    {
      "midi": 74,
      "hit": false,
      "t": 146750.0000000001,
      "d": 350,
      "v": 68
    },
    {
      "midi": 58,
      "hit": false,
      "t": 147250.0000000001,
      "d": 183.33333333334303,
      "v": 64
    },
    {
      "midi": 67,
      "hit": false,
      "t": 147250.0000000001,
      "d": 183.33333333334303,
      "v": 70
    },
    {
      "midi": 65,
      "hit": false,
      "t": 147250.0000000001,
      "d": 208.33333333334303,
      "v": 58
    },
    {
      "midi": 74,
      "hit": false,
      "t": 147250.0000000001,
      "d": 208.33333333334303,
      "v": 68
    },
    {
      "midi": 50,
      "hit": false,
      "t": 148000.0000000001,
      "d": 808.333333333343,
      "v": 68
    },
    {
      "midi": 53,
      "hit": false,
      "t": 148000.0000000001,
      "d": 808.333333333343,
      "v": 68
    },
    {
      "midi": 56,
      "hit": false,
      "t": 148000.0000000001,
      "d": 808.333333333343,
      "v": 68
    },
    {
      "midi": 59,
      "hit": false,
      "t": 148000.0000000001,
      "d": 808.333333333343,
      "v": 68
    },
    {
      "midi": 52,
      "hit": false,
      "t": 149250.0000000001,
      "d": 587.5,
      "v": 70
    },
    {
      "midi": 55,
      "hit": false,
      "t": 149250.0000000001,
      "d": 587.5,
      "v": 70
    },
    {
      "midi": 57,
      "hit": false,
      "t": 149250.0000000001,
      "d": 587.5,
      "v": 70
    },
    {
      "midi": 60,
      "hit": false,
      "t": 149250.0000000001,
      "d": 587.5,
      "v": 70
    },
    {
      "midi": 52,
      "hit": false,
      "t": 150000.0000000001,
      "d": 1700,
      "v": 60
    },
    {
      "midi": 57,
      "hit": false,
      "t": 150000.0000000001,
      "d": 1700,
      "v": 60
    },
    {
      "midi": 60,
      "hit": false,
      "t": 150000.0000000001,
      "d": 1700,
      "v": 60
    },
    {
      "midi": 67,
      "hit": false,
      "t": 150000.0000000001,
      "d": 1700,
      "v": 60
    },
    {
      "midi": 56,
      "hit": false,
      "t": 152000.0000000001,
      "d": 1020.833333333343,
      "v": 62
    },
    {
      "midi": 63,
      "hit": false,
      "t": 152250.0000000001,
      "d": 825,
      "v": 47
    },
    {
      "midi": 65,
      "hit": false,
      "t": 152500.0000000001,
      "d": 533.333333333343,
      "v": 52
    },
    {
      "midi": 72,
      "hit": false,
      "t": 152750.0000000001,
      "d": 350,
      "v": 68
    },
    {
      "midi": 56,
      "hit": false,
      "t": 153250.0000000001,
      "d": 183.33333333334303,
      "v": 64
    },
    {
      "midi": 65,
      "hit": false,
      "t": 153250.0000000001,
      "d": 183.33333333334303,
      "v": 70
    },
    {
      "midi": 63,
      "hit": false,
      "t": 153250.0000000001,
      "d": 208.33333333334303,
      "v": 58
    },
    {
      "midi": 72,
      "hit": false,
      "t": 153250.0000000001,
      "d": 208.33333333334303,
      "v": 68
    },
    {
      "midi": 65,
      "hit": false,
      "t": 154000.0000000001,
      "d": 1737.5,
      "v": 66
    },
    {
      "midi": 62,
      "hit": false,
      "t": 154000.0000000001,
      "d": 1758.333333333343,
      "v": 56
    },
    {
      "midi": 70,
      "hit": false,
      "t": 154000.0000000001,
      "d": 1762.5,
      "v": 61
    },
    {
      "midi": 56,
      "hit": false,
      "t": 154000.0000000001,
      "d": 1775,
      "v": 59
    },
    {
      "midi": 55,
      "hit": false,
      "t": 156000.0000000001,
      "d": 1700,
      "v": 60
    },
    {
      "midi": 62,
      "hit": false,
      "t": 156000.0000000001,
      "d": 1700,
      "v": 60
    },
    {
      "midi": 64,
      "hit": false,
      "t": 156000.0000000001,
      "d": 1700,
      "v": 60
    },
    {
      "midi": 71,
      "hit": false,
      "t": 156000.0000000001,
      "d": 1700,
      "v": 60
    },
    {
      "midi": 55,
      "hit": false,
      "t": 158000.0000000001,
      "d": 1700,
      "v": 60
    },
    {
      "midi": 61,
      "hit": false,
      "t": 158000.0000000001,
      "d": 1700,
      "v": 60
    },
    {
      "midi": 65,
      "hit": false,
      "t": 158000.0000000001,
      "d": 1700,
      "v": 60
    },
    {
      "midi": 71,
      "hit": false,
      "t": 158000.0000000001,
      "d": 1700,
      "v": 60
    },
    {
      "midi": 88,
      "hit": false,
      "t": 162000.0000000001,
      "d": 1920.833333333343,
      "v": 63
    },
    {
      "midi": 81,
      "hit": false,
      "t": 162250.0000000001,
      "d": 1575,
      "v": 53
    },
    {
      "midi": 78,
      "hit": false,
      "t": 162500.0000000001,
      "d": 1358.333333333343,
      "v": 59
    },
    {
      "midi": 72,
      "hit": false,
      "t": 162750.0000000001,
      "d": 1120.833333333343,
      "v": 48
    },
    {
      "midi": 64,
      "hit": false,
      "t": 163250.0000000001,
      "d": 679.1666666666861,
      "v": 52
    },
    {
      "midi": 53,
      "hit": false,
      "t": 164000.00000000012,
      "d": 808.333333333343,
      "v": 68
    },
    {
      "midi": 60,
      "hit": false,
      "t": 164000.00000000012,
      "d": 808.333333333343,
      "v": 68
    },
    {
      "midi": 62,
      "hit": false,
      "t": 164000.00000000012,
      "d": 808.333333333343,
      "v": 68
    },
    {
      "midi": 69,
      "hit": false,
      "t": 164000.00000000012,
      "d": 808.333333333343,
      "v": 68
    },
    {
      "midi": 53,
      "hit": false,
      "t": 165250.00000000012,
      "d": 587.5,
      "v": 70
    },
    {
      "midi": 60,
      "hit": false,
      "t": 165250.00000000012,
      "d": 587.5,
      "v": 70
    },
    {
      "midi": 64,
      "hit": false,
      "t": 165250.00000000012,
      "d": 587.5,
      "v": 70
    },
    {
      "midi": 69,
      "hit": false,
      "t": 165250.00000000012,
      "d": 587.5,
      "v": 70
    },
    {
      "midi": 57,
      "hit": false,
      "t": 166000.00000000012,
      "d": 808.333333333343,
      "v": 68
    },
    {
      "midi": 62,
      "hit": false,
      "t": 166000.00000000012,
      "d": 808.333333333343,
      "v": 68
    },
    {
      "midi": 65,
      "hit": false,
      "t": 166000.00000000012,
      "d": 808.333333333343,
      "v": 68
    },
    {
      "midi": 71,
      "hit": false,
      "t": 166000.00000000012,
      "d": 808.333333333343,
      "v": 68
    },
    {
      "midi": 56,
      "hit": false,
      "t": 167000.00000000012,
      "d": 808.333333333343,
      "v": 68
    },
    {
      "midi": 62,
      "hit": false,
      "t": 167000.00000000012,
      "d": 808.333333333343,
      "v": 68
    },
    {
      "midi": 67,
      "hit": false,
      "t": 167000.00000000012,
      "d": 808.333333333343,
      "v": 68
    },
    {
      "midi": 72,
      "hit": false,
      "t": 167000.00000000012,
      "d": 808.333333333343,
      "v": 68
    },
    {
      "midi": 60,
      "hit": false,
      "t": 168000.00000000012,
      "d": 283.33333333334303,
      "v": 62
    },
    {
      "midi": 66,
      "hit": false,
      "t": 168250.00000000012,
      "d": 1837.5,
      "v": 58
    },
    {
      "midi": 69,
      "hit": false,
      "t": 168500.00000000012,
      "d": 1625,
      "v": 68
    },
    {
      "midi": 74,
      "hit": false,
      "t": 168750.00000000012,
      "d": 1504.166666666657,
      "v": 68
    },
    {
      "midi": 55,
      "hit": false,
      "t": 170250.00000000012,
      "d": 212.5,
      "v": 70
    },
    {
      "midi": 57,
      "hit": false,
      "t": 170250.00000000012,
      "d": 212.5,
      "v": 70
    },
    {
      "midi": 60,
      "hit": false,
      "t": 170250.00000000012,
      "d": 212.5,
      "v": 70
    },
    {
      "midi": 61,
      "hit": false,
      "t": 170250.00000000012,
      "d": 212.5,
      "v": 70
    },
    {
      "midi": 65,
      "hit": false,
      "t": 170250.00000000012,
      "d": 212.5,
      "v": 70
    },
    {
      "midi": 54,
      "hit": false,
      "t": 170500.00000000012,
      "d": 1070.833333333343,
      "v": 78
    },
    {
      "midi": 56,
      "hit": false,
      "t": 170500.00000000012,
      "d": 1070.833333333343,
      "v": 78
    },
    {
      "midi": 59,
      "hit": false,
      "t": 170500.00000000012,
      "d": 1070.833333333343,
      "v": 78
    },
    {
      "midi": 60,
      "hit": false,
      "t": 170500.00000000012,
      "d": 1070.833333333343,
      "v": 78
    },
    {
      "midi": 64,
      "hit": false,
      "t": 170500.00000000012,
      "d": 1070.833333333343,
      "v": 78
    },
    {
      "midi": 80,
      "hit": false,
      "t": 174000.00000000012,
      "d": 1920.833333333343,
      "v": 63
    },
    {
      "midi": 74,
      "hit": false,
      "t": 174250.00000000012,
      "d": 1575,
      "v": 53
    },
    {
      "midi": 71,
      "hit": false,
      "t": 174500.00000000012,
      "d": 1358.333333333343,
      "v": 59
    },
    {
      "midi": 65,
      "hit": false,
      "t": 174750.00000000012,
      "d": 1120.833333333343,
      "v": 48
    },
    {
      "midi": 56,
      "hit": false,
      "t": 175250.00000000012,
      "d": 679.1666666666861,
      "v": 52
    },
    {
      "midi": 62,
      "hit": false,
      "t": 176000.00000000015,
      "d": 1737.5,
      "v": 66
    },
    {
      "midi": 58,
      "hit": false,
      "t": 176000.00000000015,
      "d": 1758.333333333343,
      "v": 56
    },
    {
      "midi": 67,
      "hit": false,
      "t": 176000.00000000015,
      "d": 1762.5,
      "v": 61
    },
    {
      "midi": 53,
      "hit": false,
      "t": 176000.00000000015,
      "d": 1775,
      "v": 59
    },
    {
      "midi": 58,
      "hit": false,
      "t": 178000.00000000015,
      "d": 1020.833333333343,
      "v": 62
    },
    {
      "midi": 65,
      "hit": false,
      "t": 178250.00000000015,
      "d": 825,
      "v": 47
    },
    {
      "midi": 67,
      "hit": false,
      "t": 178500.00000000015,
      "d": 533.333333333343,
      "v": 52
    },
    {
      "midi": 74,
      "hit": false,
      "t": 178750.00000000015,
      "d": 350,
      "v": 68
    },
    {
      "midi": 58,
      "hit": false,
      "t": 179250.00000000015,
      "d": 183.33333333334303,
      "v": 64
    },
    {
      "midi": 67,
      "hit": false,
      "t": 179250.00000000015,
      "d": 183.33333333334303,
      "v": 70
    },
    {
      "midi": 65,
      "hit": false,
      "t": 179250.00000000015,
      "d": 208.33333333334303,
      "v": 58
    },
    {
      "midi": 74,
      "hit": false,
      "t": 179250.00000000015,
      "d": 208.33333333334303,
      "v": 68
    },
    {
      "midi": 50,
      "hit": false,
      "t": 180000.00000000015,
      "d": 808.333333333343,
      "v": 68
    },
    {
      "midi": 56,
      "hit": false,
      "t": 180000.00000000015,
      "d": 808.333333333343,
      "v": 68
    },
    {
      "midi": 59,
      "hit": false,
      "t": 180000.00000000015,
      "d": 808.333333333343,
      "v": 68
    },
    {
      "midi": 65,
      "hit": false,
      "t": 180000.00000000015,
      "d": 808.333333333343,
      "v": 68
    },
    {
      "midi": 52,
      "hit": false,
      "t": 181000.00000000015,
      "d": 808.333333333343,
      "v": 68
    },
    {
      "midi": 57,
      "hit": false,
      "t": 181000.00000000015,
      "d": 808.333333333343,
      "v": 68
    },
    {
      "midi": 60,
      "hit": false,
      "t": 181000.00000000015,
      "d": 808.333333333343,
      "v": 68
    },
    {
      "midi": 67,
      "hit": false,
      "t": 181000.00000000015,
      "d": 808.333333333343,
      "v": 68
    },
    {
      "midi": 72,
      "hit": false,
      "t": 182000.00000000015,
      "d": 1737.5,
      "v": 66
    },
    {
      "midi": 69,
      "hit": false,
      "t": 182000.00000000015,
      "d": 1758.333333333343,
      "v": 56
    },
    {
      "midi": 79,
      "hit": false,
      "t": 182000.00000000015,
      "d": 1762.5,
      "v": 61
    },
    {
      "midi": 64,
      "hit": false,
      "t": 182000.00000000015,
      "d": 1775,
      "v": 59
    },
    {
      "midi": 56,
      "hit": false,
      "t": 184000.00000000015,
      "d": 1700,
      "v": 60
    },
    {
      "midi": 60,
      "hit": false,
      "t": 184000.00000000015,
      "d": 1700,
      "v": 60
    },
    {
      "midi": 67,
      "hit": false,
      "t": 184000.00000000015,
      "d": 1700,
      "v": 60
    },
    {
      "midi": 65,
      "hit": false,
      "t": 186000.00000000015,
      "d": 1737.5,
      "v": 66
    },
    {
      "midi": 62,
      "hit": false,
      "t": 186000.00000000015,
      "d": 1758.333333333343,
      "v": 56
    },
    {
      "midi": 70,
      "hit": false,
      "t": 186000.00000000015,
      "d": 1762.5,
      "v": 61
    },
    {
      "midi": 56,
      "hit": false,
      "t": 186000.00000000015,
      "d": 1775,
      "v": 59
    },
    {
      "midi": 55,
      "hit": false,
      "t": 188000.00000000015,
      "d": 1020.833333333343,
      "v": 62
    },
    {
      "midi": 62,
      "hit": false,
      "t": 188250.00000000015,
      "d": 825,
      "v": 47
    },
    {
      "midi": 64,
      "hit": false,
      "t": 188500.00000000015,
      "d": 533.333333333343,
      "v": 52
    },
    {
      "midi": 71,
      "hit": false,
      "t": 188750.00000000015,
      "d": 350,
      "v": 68
    },
    {
      "midi": 55,
      "hit": false,
      "t": 189250.00000000015,
      "d": 183.33333333334303,
      "v": 64
    },
    {
      "midi": 64,
      "hit": false,
      "t": 189250.00000000015,
      "d": 183.33333333334303,
      "v": 70
    },
    {
      "midi": 62,
      "hit": false,
      "t": 189250.00000000015,
      "d": 208.33333333334303,
      "v": 58
    },
    {
      "midi": 71,
      "hit": false,
      "t": 189250.00000000015,
      "d": 208.33333333334303,
      "v": 68
    },
    {
      "midi": 55,
      "hit": false,
      "t": 190000.00000000015,
      "d": 1700,
      "v": 60
    },
    {
      "midi": 60,
      "hit": false,
      "t": 190000.00000000015,
      "d": 1700,
      "v": 60
    },
    {
      "midi": 64,
      "hit": false,
      "t": 190000.00000000015,
      "d": 1700,
      "v": 60
    },
    {
      "midi": 71,
      "hit": false,
      "t": 190000.00000000015,
      "d": 1700,
      "v": 60
    },
    {
      "midi": 60,
      "hit": false,
      "t": 192000.00000000015,
      "d": 1020.833333333343,
      "v": 62
    },
    {
      "midi": 65,
      "hit": false,
      "t": 192250.00000000015,
      "d": 825,
      "v": 47
    },
    {
      "midi": 69,
      "hit": false,
      "t": 192500.00000000015,
      "d": 533.333333333343,
      "v": 52
    },
    {
      "midi": 74,
      "hit": false,
      "t": 192750.00000000015,
      "d": 350,
      "v": 68
    },
    {
      "midi": 60,
      "hit": false,
      "t": 193250.00000000015,
      "d": 183.33333333334303,
      "v": 64
    },
    {
      "midi": 69,
      "hit": false,
      "t": 193250.00000000015,
      "d": 183.33333333334303,
      "v": 70
    },
    {
      "midi": 65,
      "hit": false,
      "t": 193250.00000000015,
      "d": 208.33333333334303,
      "v": 58
    },
    {
      "midi": 74,
      "hit": false,
      "t": 193250.00000000015,
      "d": 208.33333333334303,
      "v": 68
    },
    {
      "midi": 62,
      "hit": false,
      "t": 194000.00000000015,
      "d": 1737.5,
      "v": 66
    },
    {
      "midi": 59,
      "hit": false,
      "t": 194000.00000000015,
      "d": 1758.333333333343,
      "v": 56
    },
    {
      "midi": 69,
      "hit": false,
      "t": 194000.00000000015,
      "d": 1762.5,
      "v": 61
    },
    {
      "midi": 53,
      "hit": false,
      "t": 194000.00000000015,
      "d": 1775,
      "v": 59
    },
    {
      "midi": 55,
      "hit": false,
      "t": 196000.00000000015,
      "d": 1020.833333333343,
      "v": 62
    },
    {
      "midi": 62,
      "hit": false,
      "t": 196250.00000000015,
      "d": 825,
      "v": 47
    },
    {
      "midi": 64,
      "hit": false,
      "t": 196500.00000000015,
      "d": 533.333333333343,
      "v": 52
    },
    {
      "midi": 71,
      "hit": false,
      "t": 196750.00000000015,
      "d": 350,
      "v": 68
    },
    {
      "midi": 55,
      "hit": false,
      "t": 197250.00000000015,
      "d": 183.33333333334303,
      "v": 64
    },
    {
      "midi": 64,
      "hit": false,
      "t": 197250.00000000015,
      "d": 183.33333333334303,
      "v": 70
    },
    {
      "midi": 62,
      "hit": false,
      "t": 197250.00000000015,
      "d": 208.33333333334303,
      "v": 58
    },
    {
      "midi": 71,
      "hit": false,
      "t": 197250.00000000015,
      "d": 208.33333333334303,
      "v": 68
    },
    {
      "midi": 55,
      "hit": false,
      "t": 198000.00000000015,
      "d": 1020.833333333343,
      "v": 62
    },
    {
      "midi": 61,
      "hit": false,
      "t": 198250.00000000015,
      "d": 825,
      "v": 47
    },
    {
      "midi": 64,
      "hit": false,
      "t": 198500.00000000015,
      "d": 533.333333333343,
      "v": 52
    },
    {
      "midi": 71,
      "hit": false,
      "t": 198750.00000000015,
      "d": 350,
      "v": 68
    },
    {
      "midi": 55,
      "hit": false,
      "t": 199250.00000000015,
      "d": 183.33333333334303,
      "v": 64
    },
    {
      "midi": 64,
      "hit": false,
      "t": 199250.00000000015,
      "d": 183.33333333334303,
      "v": 70
    },
    {
      "midi": 61,
      "hit": false,
      "t": 199250.00000000015,
      "d": 208.33333333334303,
      "v": 58
    },
    {
      "midi": 71,
      "hit": false,
      "t": 199250.00000000015,
      "d": 208.33333333334303,
      "v": 68
    },
    {
      "midi": 69,
      "hit": false,
      "t": 200000.00000000015,
      "d": 1737.5,
      "v": 66
    },
    {
      "midi": 65,
      "hit": false,
      "t": 200000.00000000015,
      "d": 1758.333333333343,
      "v": 56
    },
    {
      "midi": 74,
      "hit": false,
      "t": 200000.00000000015,
      "d": 1762.5,
      "v": 61
    },
    {
      "midi": 60,
      "hit": false,
      "t": 200000.00000000015,
      "d": 1775,
      "v": 59
    },
    {
      "midi": 59,
      "hit": false,
      "t": 202000.00000000015,
      "d": 1020.833333333343,
      "v": 62
    },
    {
      "midi": 65,
      "hit": false,
      "t": 202250.00000000015,
      "d": 825,
      "v": 47
    },
    {
      "midi": 69,
      "hit": false,
      "t": 202500.00000000015,
      "d": 533.333333333343,
      "v": 52
    },
    {
      "midi": 74,
      "hit": false,
      "t": 202750.00000000015,
      "d": 350,
      "v": 68
    },
    {
      "midi": 59,
      "hit": false,
      "t": 203250.00000000015,
      "d": 183.33333333334303,
      "v": 64
    },
    {
      "midi": 69,
      "hit": false,
      "t": 203250.00000000015,
      "d": 183.33333333334303,
      "v": 70
    },
    {
      "midi": 65,
      "hit": false,
      "t": 203250.00000000015,
      "d": 208.33333333334303,
      "v": 58
    },
    {
      "midi": 74,
      "hit": false,
      "t": 203250.00000000015,
      "d": 208.33333333334303,
      "v": 68
    },
    {
      "midi": 52,
      "hit": false,
      "t": 204000.00000000015,
      "d": 220.83333333334303,
      "v": 68
    },
    {
      "midi": 57,
      "hit": false,
      "t": 204000.00000000015,
      "d": 220.83333333334303,
      "v": 68
    },
    {
      "midi": 60,
      "hit": false,
      "t": 204000.00000000015,
      "d": 220.83333333334303,
      "v": 68
    },
    {
      "midi": 67,
      "hit": false,
      "t": 204000.00000000015,
      "d": 220.83333333334303,
      "v": 68
    },
    {
      "midi": 52,
      "hit": false,
      "t": 204500.00000000015,
      "d": 258.33333333334303,
      "v": 93
    },
    {
      "midi": 57,
      "hit": false,
      "t": 204500.00000000015,
      "d": 258.33333333334303,
      "v": 93
    },
    {
      "midi": 60,
      "hit": false,
      "t": 204500.00000000015,
      "d": 258.33333333334303,
      "v": 93
    },
    {
      "midi": 67,
      "hit": false,
      "t": 204500.00000000015,
      "d": 258.33333333334303,
      "v": 93
    },
    {
      "midi": 64,
      "hit": false,
      "t": 205000.00000000015,
      "d": 220.83333333334303,
      "v": 78
    },
    {
      "midi": 67,
      "hit": false,
      "t": 205250.00000000015,
      "d": 145.83333333334303,
      "v": 64
    },
    {
      "midi": 69,
      "hit": false,
      "t": 205500.00000000015,
      "d": 170.83333333334303,
      "v": 78
    },
    {
      "midi": 72,
      "hit": false,
      "t": 205750.00000000015,
      "d": 120.83333333334303,
      "v": 87
    },
    {
      "midi": 52,
      "hit": false,
      "t": 206000.00000000015,
      "d": 1045.833333333343,
      "v": 80
    },
    {
      "midi": 57,
      "hit": false,
      "t": 206000.00000000015,
      "d": 1045.833333333343,
      "v": 80
    },
    {
      "midi": 60,
      "hit": false,
      "t": 206000.00000000015,
      "d": 1045.833333333343,
      "v": 80
    },
    {
      "midi": 67,
      "hit": false,
      "t": 206000.00000000015,
      "d": 1045.833333333343,
      "v": 80
    }
  ]
}