{
  "jsonPath": "Rock/Rock En Espanol/Volumen Cero/tortugas-y-sumos.json",
  "path": "Rock\\Rock En Espanol\\Volumen Cero\\Tortugas y Sumos.mid",
  "name": "Tortugas y Sumos",
  "difficulty": "Advanced",
  "bpm": 91.000091000091,
  "notes": [
    {
      "midi": 53,
      "hit": false,
      "t": 1824.8166666666666,
      "d": 1692.5174583333333,
      "v": 103
    },
    {
      "midi": 62,
      "hit": false,
      "t": 3585.76475,
      "d": 1409.6708750000003,
      "v": 104
    },
    {
      "midi": 65,
      "hit": false,
      "t": 3585.76475,
      "d": 1697.0795000000003,
      "v": 101
    },
    {
      "midi": 57,
      "hit": false,
      "t": 3590.3267916666664,
      "d": 1368.6125000000002,
      "v": 100
    },
    {
      "midi": 64,
      "hit": false,
      "t": 5337.58875,
      "d": 1697.0795000000007,
      "v": 109
    },
    {
      "midi": 67,
      "hit": false,
      "t": 5342.150791666667,
      "d": 1692.5174583333337,
      "v": 101
    },
    {
      "midi": 60,
      "hit": false,
      "t": 7075.726625,
      "d": 1446.1672083333333,
      "v": 102
    },
    {
      "midi": 67,
      "hit": false,
      "t": 7080.288666666667,
      "d": 1692.5174583333337,
      "v": 105
    },
    {
      "midi": 57,
      "hit": false,
      "t": 7080.288666666667,
      "d": 1697.0794999999998,
      "v": 103
    },
    {
      "midi": 53,
      "hit": false,
      "t": 8832.112666666668,
      "d": 1692.5174583333337,
      "v": 100
    },
    {
      "midi": 62,
      "hit": false,
      "t": 10593.060750000002,
      "d": 1409.670874999998,
      "v": 103
    },
    {
      "midi": 65,
      "hit": false,
      "t": 10593.060750000002,
      "d": 1697.079499999998,
      "v": 102
    },
    {
      "midi": 57,
      "hit": false,
      "t": 10597.622791666668,
      "d": 1368.6124999999993,
      "v": 106
    },
    {
      "midi": 64,
      "hit": false,
      "t": 12344.884750000001,
      "d": 1697.0794999999998,
      "v": 108
    },
    {
      "midi": 67,
      "hit": false,
      "t": 12349.446791666667,
      "d": 1692.5174583333337,
      "v": 102
    },
    {
      "midi": 60,
      "hit": false,
      "t": 14083.022625000001,
      "d": 1446.1672083333324,
      "v": 105
    },
    {
      "midi": 67,
      "hit": false,
      "t": 14087.584666666668,
      "d": 1692.5174583333337,
      "v": 104
    },
    {
      "midi": 57,
      "hit": false,
      "t": 14087.584666666668,
      "d": 1697.0794999999998,
      "v": 110
    },
    {
      "midi": 53,
      "hit": false,
      "t": 15839.408666666668,
      "d": 1692.5174583333337,
      "v": 55
    },
    {
      "midi": 57,
      "hit": false,
      "t": 15839.408666666668,
      "d": 1692.5174583333337,
      "v": 61
    },
    {
      "midi": 64,
      "hit": false,
      "t": 15839.408666666668,
      "d": 1724.451750000002,
      "v": 72
    },
    {
      "midi": 53,
      "hit": false,
      "t": 17591.23266666667,
      "d": 1692.517458333332,
      "v": 51
    },
    {
      "midi": 57,
      "hit": false,
      "t": 17591.23266666667,
      "d": 1692.517458333332,
      "v": 72
    },
    {
      "midi": 62,
      "hit": false,
      "t": 17591.23266666667,
      "d": 1692.517458333332,
      "v": 57
    },
    {
      "midi": 55,
      "hit": false,
      "t": 19343.056666666667,
      "d": 1692.517458333332,
      "v": 71
    },
    {
      "midi": 59,
      "hit": false,
      "t": 19343.056666666667,
      "d": 1692.517458333332,
      "v": 69
    },
    {
      "midi": 62,
      "hit": false,
      "t": 19343.056666666667,
      "d": 1692.517458333332,
      "v": 66
    },
    {
      "midi": 52,
      "hit": false,
      "t": 21094.880666666664,
      "d": 1692.517458333332,
      "v": 65
    },
    {
      "midi": 55,
      "hit": false,
      "t": 21094.880666666664,
      "d": 1692.517458333332,
      "v": 60
    },
    {
      "midi": 62,
      "hit": false,
      "t": 21094.880666666664,
      "d": 1692.517458333332,
      "v": 66
    },
    {
      "midi": 71,
      "hit": false,
      "t": 21313.858666666663,
      "d": 360.4012916666652,
      "v": 102
    },
    {
      "midi": 72,
      "hit": false,
      "t": 21751.81466666666,
      "d": 433.393958333334,
      "v": 106
    },
    {
      "midi": 79,
      "hit": false,
      "t": 22189.770666666664,
      "d": 483.5764166666668,
      "v": 100
    },
    {
      "midi": 74,
      "hit": false,
      "t": 22627.726666666662,
      "d": 1382.2986249999994,
      "v": 102
    },
    {
      "midi": 53,
      "hit": false,
      "t": 22846.70466666666,
      "d": 1692.517458333332,
      "v": 59
    },
    {
      "midi": 60,
      "hit": false,
      "t": 22846.70466666666,
      "d": 1692.517458333332,
      "v": 70
    },
    {
      "midi": 57,
      "hit": false,
      "t": 22846.70466666666,
      "d": 1724.4517500000002,
      "v": 65
    },
    {
      "midi": 53,
      "hit": false,
      "t": 24598.52866666666,
      "d": 1692.517458333332,
      "v": 56
    },
    {
      "midi": 57,
      "hit": false,
      "t": 24598.52866666666,
      "d": 1706.203583333332,
      "v": 73
    },
    {
      "midi": 62,
      "hit": false,
      "t": 24598.52866666666,
      "d": 1706.203583333332,
      "v": 64
    },
    {
      "midi": 55,
      "hit": false,
      "t": 26350.352666666662,
      "d": 1692.517458333332,
      "v": 65
    },
    {
      "midi": 59,
      "hit": false,
      "t": 26350.352666666662,
      "d": 1692.517458333332,
      "v": 70
    },
    {
      "midi": 62,
      "hit": false,
      "t": 26350.352666666662,
      "d": 1692.517458333332,
      "v": 66
    },
    {
      "midi": 57,
      "hit": false,
      "t": 28102.17666666666,
      "d": 1692.517458333332,
      "v": 67
    },
    {
      "midi": 60,
      "hit": false,
      "t": 28102.17666666666,
      "d": 1692.517458333332,
      "v": 69
    },
    {
      "midi": 64,
      "hit": false,
      "t": 28102.17666666666,
      "d": 1692.517458333332,
      "v": 68
    },
    {
      "midi": 88,
      "hit": false,
      "t": 29420.606708333326,
      "d": 1003.6491666666625,
      "v": 90
    },
    {
      "midi": 84,
      "hit": false,
      "t": 29520.97162499999,
      "d": 903.284249999997,
      "v": 75
    },
    {
      "midi": 83,
      "hit": false,
      "t": 29616.774499999992,
      "d": 1272.8096249999944,
      "v": 79
    },
    {
      "midi": 53,
      "hit": false,
      "t": 29854.000666666656,
      "d": 1692.517458333332,
      "v": 60
    },
    {
      "midi": 64,
      "hit": false,
      "t": 29854.000666666656,
      "d": 1692.517458333332,
      "v": 81
    },
    {
      "midi": 57,
      "hit": false,
      "t": 29854.000666666656,
      "d": 1724.4517500000002,
      "v": 74
    },
    {
      "midi": 53,
      "hit": false,
      "t": 31605.824666666656,
      "d": 1692.517458333332,
      "v": 56
    },
    {
      "midi": 57,
      "hit": false,
      "t": 31605.824666666656,
      "d": 1692.517458333332,
      "v": 70
    },
    {
      "midi": 62,
      "hit": false,
      "t": 31605.824666666656,
      "d": 1692.517458333332,
      "v": 57
    },
    {
      "midi": 55,
      "hit": false,
      "t": 33357.64866666665,
      "d": 1692.5174583333355,
      "v": 72
    },
    {
      "midi": 59,
      "hit": false,
      "t": 33357.64866666665,
      "d": 1692.5174583333355,
      "v": 64
    },
    {
      "midi": 62,
      "hit": false,
      "t": 33357.64866666665,
      "d": 1692.5174583333355,
      "v": 69
    },
    {
      "midi": 52,
      "hit": false,
      "t": 35109.472666666654,
      "d": 1692.5174583333282,
      "v": 65
    },
    {
      "midi": 55,
      "hit": false,
      "t": 35109.472666666654,
      "d": 1692.5174583333282,
      "v": 55
    },
    {
      "midi": 62,
      "hit": false,
      "t": 35109.472666666654,
      "d": 1692.5174583333282,
      "v": 65
    },
    {
      "midi": 71,
      "hit": false,
      "t": 35328.45066666666,
      "d": 579.3792916666644,
      "v": 106
    },
    {
      "midi": 72,
      "hit": false,
      "t": 35766.406666666655,
      "d": 652.3719583333295,
      "v": 100
    },
    {
      "midi": 79,
      "hit": false,
      "t": 36204.36266666665,
      "d": 593.0654166666645,
      "v": 103
    },
    {
      "midi": 53,
      "hit": false,
      "t": 36861.29666666665,
      "d": 1692.5174583333355,
      "v": 58
    },
    {
      "midi": 64,
      "hit": false,
      "t": 36861.29666666665,
      "d": 1692.5174583333355,
      "v": 68
    },
    {
      "midi": 57,
      "hit": false,
      "t": 36861.29666666665,
      "d": 1724.4517500000002,
      "v": 63
    },
    {
      "midi": 53,
      "hit": false,
      "t": 38613.12066666665,
      "d": 1692.5174583333355,
      "v": 57
    },
    {
      "midi": 57,
      "hit": false,
      "t": 38613.12066666665,
      "d": 1692.5174583333355,
      "v": 65
    },
    {
      "midi": 62,
      "hit": false,
      "t": 38613.12066666665,
      "d": 1692.5174583333355,
      "v": 58
    },
    {
      "midi": 52,
      "hit": false,
      "t": 40364.94466666665,
      "d": 615.8756250000006,
      "v": 84
    },
    {
      "midi": 55,
      "hit": false,
      "t": 40364.94466666665,
      "d": 615.8756250000006,
      "v": 98
    },
    {
      "midi": 59,
      "hit": false,
      "t": 40364.94466666665,
      "d": 615.8756250000006,
      "v": 95
    },
    {
      "midi": 53,
      "hit": false,
      "t": 41021.87866666665,
      "d": 615.8756250000006,
      "v": 89
    },
    {
      "midi": 57,
      "hit": false,
      "t": 41021.87866666665,
      "d": 615.8756250000006,
      "v": 98
    },
    {
      "midi": 60,
      "hit": false,
      "t": 41021.87866666665,
      "d": 615.8756250000006,
      "v": 93
    },
    {
      "midi": 55,
      "hit": false,
      "t": 41678.81266666665,
      "d": 369.52537499999744,
      "v": 89
    },
    {
      "midi": 59,
      "hit": false,
      "t": 41678.81266666665,
      "d": 369.52537499999744,
      "v": 98
    },
    {
      "midi": 62,
      "hit": false,
      "t": 41678.81266666665,
      "d": 369.52537499999744,
      "v": 92
    },
    {
      "midi": 55,
      "hit": false,
      "t": 43868.59266666665,
      "d": 1692.5174583333355,
      "v": 109
    },
    {
      "midi": 64,
      "hit": false,
      "t": 43868.59266666665,
      "d": 1692.5174583333355,
      "v": 105
    },
    {
      "midi": 60,
      "hit": false,
      "t": 43868.59266666665,
      "d": 1697.0794999999998,
      "v": 109
    },
    {
      "midi": 45,
      "hit": false,
      "t": 43868.59266666665,
      "d": 1724.4517500000002,
      "v": 104
    },
    {
      "midi": 57,
      "hit": false,
      "t": 45629.540749999986,
      "d": 1715.3276666666643,
      "v": 106
    },
    {
      "midi": 64,
      "hit": false,
      "t": 45629.540749999986,
      "d": 1715.3276666666643,
      "v": 110
    },
    {
      "midi": 53,
      "hit": false,
      "t": 45634.10279166665,
      "d": 1697.0794999999998,
      "v": 108
    },
    {
      "midi": 41,
      "hit": false,
      "t": 45634.10279166665,
      "d": 1710.765625,
      "v": 104
    },
    {
      "midi": 53,
      "hit": false,
      "t": 47381.364749999986,
      "d": 1697.0794999999998,
      "v": 112
    },
    {
      "midi": 57,
      "hit": false,
      "t": 47381.364749999986,
      "d": 1715.3276666666643,
      "v": 111
    },
    {
      "midi": 60,
      "hit": false,
      "t": 47385.92679166665,
      "d": 1692.5174583333355,
      "v": 112
    },
    {
      "midi": 50,
      "hit": false,
      "t": 47385.92679166665,
      "d": 1710.765625,
      "v": 104
    },
    {
      "midi": 60,
      "hit": false,
      "t": 49119.50262499999,
      "d": 834.8536249999961,
      "v": 115
    },
    {
      "midi": 43,
      "hit": false,
      "t": 49124.06466666665,
      "d": 834.8536249999961,
      "v": 104
    },
    {
      "midi": 50,
      "hit": false,
      "t": 49124.06466666665,
      "d": 834.8536249999961,
      "v": 106
    },
    {
      "midi": 57,
      "hit": false,
      "t": 49124.06466666665,
      "d": 834.8536249999961,
      "v": 108
    },
    {
      "midi": 62,
      "hit": false,
      "t": 49995.41462499998,
      "d": 853.1017916666679,
      "v": 110
    },
    {
      "midi": 55,
      "hit": false,
      "t": 49999.97666666665,
      "d": 834.8536250000034,
      "v": 111
    },
    {
      "midi": 43,
      "hit": false,
      "t": 49999.97666666665,
      "d": 848.5397500000036,
      "v": 109
    },
    {
      "midi": 59,
      "hit": false,
      "t": 49999.97666666665,
      "d": 848.5397500000036,
      "v": 115
    },
    {
      "midi": 40,
      "hit": false,
      "t": 50875.88866666665,
      "d": 1692.5174583333355,
      "v": 110
    },
    {
      "midi": 55,
      "hit": false,
      "t": 50875.88866666665,
      "d": 1697.0794999999998,
      "v": 112
    },
    {
      "midi": 52,
      "hit": false,
      "t": 50875.88866666665,
      "d": 1724.4517500000002,
      "v": 110
    },
    {
      "midi": 62,
      "hit": false,
      "t": 50875.88866666665,
      "d": 1724.4517500000002,
      "v": 108
    },
    {
      "midi": 64,
      "hit": false,
      "t": 52636.83674999999,
      "d": 1697.0794999999998,
      "v": 107
    },
    {
      "midi": 60,
      "hit": false,
      "t": 52636.83674999999,
      "d": 1715.3276666666643,
      "v": 106
    },
    {
      "midi": 55,
      "hit": false,
      "t": 52641.39879166665,
      "d": 1697.0794999999998,
      "v": 107
    },
    {
      "midi": 45,
      "hit": false,
      "t": 52641.39879166665,
      "d": 1710.765625,
      "v": 111
    },
    {
      "midi": 64,
      "hit": false,
      "t": 54388.66074999999,
      "d": 1697.0794999999998,
      "v": 112
    },
    {
      "midi": 57,
      "hit": false,
      "t": 54393.22279166665,
      "d": 1697.0794999999998,
      "v": 110
    },
    {
      "midi": 41,
      "hit": false,
      "t": 54393.22279166665,
      "d": 1710.765625,
      "v": 109
    },
    {
      "midi": 53,
      "hit": false,
      "t": 54393.22279166665,
      "d": 1710.765625,
      "v": 110
    },
    {
      "midi": 60,
      "hit": false,
      "t": 56126.79862499999,
      "d": 834.8536249999961,
      "v": 108
    },
    {
      "midi": 43,
      "hit": false,
      "t": 56131.36066666665,
      "d": 834.8536249999961,
      "v": 100
    },
    {
      "midi": 50,
      "hit": false,
      "t": 56131.36066666665,
      "d": 834.8536249999961,
      "v": 102
    },
    {
      "midi": 57,
      "hit": false,
      "t": 56131.36066666665,
      "d": 834.8536249999961,
      "v": 113
    },
    {
      "midi": 50,
      "hit": false,
      "t": 57002.710624999985,
      "d": 848.5397499999963,
      "v": 100
    },
    {
      "midi": 43,
      "hit": false,
      "t": 57002.710624999985,
      "d": 853.1017916666606,
      "v": 105
    },
    {
      "midi": 55,
      "hit": false,
      "t": 57007.27266666665,
      "d": 848.5397499999963,
      "v": 107
    },
    {
      "midi": 59,
      "hit": false,
      "t": 57007.27266666665,
      "d": 848.5397499999963,
      "v": 115
    },
    {
      "midi": 40,
      "hit": false,
      "t": 57883.184666666646,
      "d": 1692.5174583333355,
      "v": 107
    },
    {
      "midi": 55,
      "hit": false,
      "t": 57883.184666666646,
      "d": 1692.5174583333355,
      "v": 109
    },
    {
      "midi": 62,
      "hit": false,
      "t": 57883.184666666646,
      "d": 1692.5174583333355,
      "v": 111
    },
    {
      "midi": 59,
      "hit": false,
      "t": 57883.184666666646,
      "d": 1724.4517500000002,
      "v": 107
    },
    {
      "midi": 60,
      "hit": false,
      "t": 59644.13274999998,
      "d": 1692.5174583333282,
      "v": 107
    },
    {
      "midi": 64,
      "hit": false,
      "t": 59644.13274999998,
      "d": 1715.3276666666643,
      "v": 107
    },
    {
      "midi": 55,
      "hit": false,
      "t": 59648.69479166665,
      "d": 1697.0794999999998,
      "v": 108
    },
    {
      "midi": 45,
      "hit": false,
      "t": 59648.69479166665,
      "d": 1710.765625,
      "v": 108
    },
    {
      "midi": 57,
      "hit": false,
      "t": 61395.95674999998,
      "d": 1715.3276666666643,
      "v": 108
    },
    {
      "midi": 53,
      "hit": false,
      "t": 61400.51879166665,
      "d": 1697.0794999999998,
      "v": 110
    },
    {
      "midi": 41,
      "hit": false,
      "t": 61400.51879166665,
      "d": 1710.765625,
      "v": 106
    },
    {
      "midi": 64,
      "hit": false,
      "t": 61400.51879166665,
      "d": 1710.765625,
      "v": 112
    },
    {
      "midi": 60,
      "hit": false,
      "t": 63134.09462499998,
      "d": 834.8536249999961,
      "v": 113
    },
    {
      "midi": 43,
      "hit": false,
      "t": 63138.65666666665,
      "d": 834.8536249999961,
      "v": 111
    },
    {
      "midi": 50,
      "hit": false,
      "t": 63138.65666666665,
      "d": 834.8536249999961,
      "v": 110
    },
    {
      "midi": 57,
      "hit": false,
      "t": 63138.65666666665,
      "d": 834.8536249999961,
      "v": 107
    },
    {
      "midi": 62,
      "hit": false,
      "t": 64010.00662499998,
      "d": 853.1017916666679,
      "v": 107
    },
    {
      "midi": 55,
      "hit": false,
      "t": 64014.568666666644,
      "d": 834.8536250000034,
      "v": 110
    },
    {
      "midi": 43,
      "hit": false,
      "t": 64014.568666666644,
      "d": 848.5397500000036,
      "v": 111
    },
    {
      "midi": 59,
      "hit": false,
      "t": 64014.568666666644,
      "d": 848.5397500000036,
      "v": 119
    },
    {
      "midi": 40,
      "hit": false,
      "t": 64890.48066666665,
      "d": 1692.5174583333355,
      "v": 111
    },
    {
      "midi": 55,
      "hit": false,
      "t": 64890.48066666665,
      "d": 1697.0794999999998,
      "v": 108
    },
    {
      "midi": 52,
      "hit": false,
      "t": 64890.48066666665,
      "d": 1724.4517500000002,
      "v": 108
    },
    {
      "midi": 62,
      "hit": false,
      "t": 64890.48066666665,
      "d": 1724.4517500000002,
      "v": 111
    },
    {
      "midi": 64,
      "hit": false,
      "t": 66651.42874999998,
      "d": 1697.0794999999925,
      "v": 108
    },
    {
      "midi": 60,
      "hit": false,
      "t": 66651.42874999998,
      "d": 1715.3276666666497,
      "v": 109
    },
    {
      "midi": 55,
      "hit": false,
      "t": 66655.99079166664,
      "d": 1697.0794999999925,
      "v": 107
    },
    {
      "midi": 45,
      "hit": false,
      "t": 66655.99079166664,
      "d": 1710.7656249999854,
      "v": 104
    },
    {
      "midi": 64,
      "hit": false,
      "t": 68403.25274999996,
      "d": 1715.3276666666643,
      "v": 107
    },
    {
      "midi": 53,
      "hit": false,
      "t": 68407.81479166662,
      "d": 1692.5174583333282,
      "v": 109
    },
    {
      "midi": 41,
      "hit": false,
      "t": 68407.81479166662,
      "d": 1710.765625,
      "v": 112
    },
    {
      "midi": 57,
      "hit": false,
      "t": 68407.81479166662,
      "d": 1710.765625,
      "v": 109
    },
    {
      "midi": 62,
      "hit": false,
      "t": 70141.39062499996,
      "d": 834.8536250000034,
      "v": 115
    },
    {
      "midi": 43,
      "hit": false,
      "t": 70145.95266666662,
      "d": 834.8536250000034,
      "v": 104
    },
    {
      "midi": 55,
      "hit": false,
      "t": 70145.95266666662,
      "d": 834.8536250000034,
      "v": 109
    },
    {
      "midi": 59,
      "hit": false,
      "t": 70145.95266666662,
      "d": 834.8536250000034,
      "v": 107
    },
    {
      "midi": 67,
      "hit": false,
      "t": 71017.30262499995,
      "d": 853.1017916666606,
      "v": 110
    },
    {
      "midi": 59,
      "hit": false,
      "t": 71021.86466666662,
      "d": 834.8536250000034,
      "v": 109
    },
    {
      "midi": 55,
      "hit": false,
      "t": 71021.86466666662,
      "d": 848.5397499999963,
      "v": 104
    },
    {
      "midi": 62,
      "hit": false,
      "t": 71021.86466666662,
      "d": 848.5397499999963,
      "v": 107
    },
    {
      "midi": 52,
      "hit": false,
      "t": 71897.77666666661,
      "d": 1724.451749999993,
      "v": 109
    },
    {
      "midi": 57,
      "hit": false,
      "t": 71897.77666666661,
      "d": 1724.451749999993,
      "v": 110
    },
    {
      "midi": 61,
      "hit": false,
      "t": 71897.77666666661,
      "d": 1724.451749999993,
      "v": 110
    },
    {
      "midi": 64,
      "hit": false,
      "t": 71897.77666666661,
      "d": 1724.451749999993,
      "v": 109
    },
    {
      "midi": 59,
      "hit": false,
      "t": 73658.72474999994,
      "d": 1715.3276666666643,
      "v": 106
    },
    {
      "midi": 64,
      "hit": false,
      "t": 73658.72474999994,
      "d": 1715.3276666666643,
      "v": 109
    },
    {
      "midi": 52,
      "hit": false,
      "t": 73663.2867916666,
      "d": 1710.765625,
      "v": 112
    },
    {
      "midi": 56,
      "hit": false,
      "t": 73663.2867916666,
      "d": 1710.765625,
      "v": 108
    },
    {
      "midi": 53,
      "hit": false,
      "t": 75410.54874999993,
      "d": 1715.3276666666643,
      "v": 111
    },
    {
      "midi": 57,
      "hit": false,
      "t": 75410.54874999993,
      "d": 1715.3276666666643,
      "v": 107
    },
    {
      "midi": 60,
      "hit": false,
      "t": 75415.1107916666,
      "d": 1710.765625,
      "v": 110
    },
    {
      "midi": 64,
      "hit": false,
      "t": 75415.1107916666,
      "d": 1710.765625,
      "v": 111
    },
    {
      "midi": 62,
      "hit": false,
      "t": 77148.68662499993,
      "d": 1729.0137916666572,
      "v": 110
    },
    {
      "midi": 55,
      "hit": false,
      "t": 77153.2486666666,
      "d": 1724.451749999993,
      "v": 111
    },
    {
      "midi": 59,
      "hit": false,
      "t": 77153.2486666666,
      "d": 1724.451749999993,
      "v": 120
    },
    {
      "midi": 53,
      "hit": false,
      "t": 78905.07266666659,
      "d": 1692.5174583333282,
      "v": 58
    },
    {
      "midi": 57,
      "hit": false,
      "t": 78905.07266666659,
      "d": 1692.5174583333282,
      "v": 65
    },
    {
      "midi": 64,
      "hit": false,
      "t": 78905.07266666659,
      "d": 1724.451749999993,
      "v": 72
    },
    {
      "midi": 53,
      "hit": false,
      "t": 80656.89666666658,
      "d": 1692.5174583333282,
      "v": 53
    },
    {
      "midi": 57,
      "hit": false,
      "t": 80656.89666666658,
      "d": 1692.5174583333282,
      "v": 68
    },
    {
      "midi": 62,
      "hit": false,
      "t": 80656.89666666658,
      "d": 1692.5174583333282,
      "v": 60
    },
    {
      "midi": 55,
      "hit": false,
      "t": 82408.72066666657,
      "d": 1692.5174583333282,
      "v": 67
    },
    {
      "midi": 59,
      "hit": false,
      "t": 82408.72066666657,
      "d": 1692.5174583333282,
      "v": 70
    },
    {
      "midi": 62,
      "hit": false,
      "t": 82408.72066666657,
      "d": 1692.5174583333282,
      "v": 65
    },
    {
      "midi": 52,
      "hit": false,
      "t": 84160.54466666657,
      "d": 1692.5174583333428,
      "v": 67
    },
    {
      "midi": 55,
      "hit": false,
      "t": 84160.54466666657,
      "d": 1692.5174583333428,
      "v": 62
    },
    {
      "midi": 62,
      "hit": false,
      "t": 84160.54466666657,
      "d": 1692.5174583333428,
      "v": 67
    },
    {
      "midi": 71,
      "hit": false,
      "t": 84379.52266666657,
      "d": 360.40129166666884,
      "v": 101
    },
    {
      "midi": 72,
      "hit": false,
      "t": 84817.47866666658,
      "d": 433.39395833332674,
      "v": 104
    },
    {
      "midi": 79,
      "hit": false,
      "t": 85255.43466666657,
      "d": 483.5764166666777,
      "v": 101
    },
    {
      "midi": 74,
      "hit": false,
      "t": 85693.39066666657,
      "d": 1382.2986249999958,
      "v": 102
    },
    {
      "midi": 53,
      "hit": false,
      "t": 85912.36866666657,
      "d": 1692.5174583333282,
      "v": 59
    },
    {
      "midi": 60,
      "hit": false,
      "t": 85912.36866666657,
      "d": 1692.5174583333282,
      "v": 72
    },
    {
      "midi": 57,
      "hit": false,
      "t": 85912.36866666657,
      "d": 1724.451749999993,
      "v": 66
    },
    {
      "midi": 53,
      "hit": false,
      "t": 87664.19266666657,
      "d": 1692.5174583333282,
      "v": 58
    },
    {
      "midi": 57,
      "hit": false,
      "t": 87664.19266666657,
      "d": 1706.2035833333211,
      "v": 71
    },
    {
      "midi": 62,
      "hit": false,
      "t": 87664.19266666657,
      "d": 1706.2035833333211,
      "v": 65
    },
    {
      "midi": 55,
      "hit": false,
      "t": 89416.01666666656,
      "d": 1692.5174583333282,
      "v": 68
    },
    {
      "midi": 59,
      "hit": false,
      "t": 89416.01666666656,
      "d": 1692.5174583333282,
      "v": 72
    },
    {
      "midi": 62,
      "hit": false,
      "t": 89416.01666666656,
      "d": 1692.5174583333282,
      "v": 65
    },
    {
      "midi": 57,
      "hit": false,
      "t": 91167.84066666655,
      "d": 1692.5174583333282,
      "v": 69
    },
    {
      "midi": 60,
      "hit": false,
      "t": 91167.84066666655,
      "d": 1692.5174583333282,
      "v": 68
    },
    {
      "midi": 64,
      "hit": false,
      "t": 91167.84066666655,
      "d": 1692.5174583333282,
      "v": 64
    },
    {
      "midi": 88,
      "hit": false,
      "t": 92486.27070833322,
      "d": 1003.6491666666552,
      "v": 93
    },
    {
      "midi": 84,
      "hit": false,
      "t": 92586.6356249999,
      "d": 903.2842499999824,
      "v": 81
    },
    {
      "midi": 83,
      "hit": false,
      "t": 92682.43849999989,
      "d": 1272.8096249999944,
      "v": 81
    },
    {
      "midi": 53,
      "hit": false,
      "t": 92919.66466666655,
      "d": 1692.5174583333282,
      "v": 64
    },
    {
      "midi": 64,
      "hit": false,
      "t": 92919.66466666655,
      "d": 1692.5174583333282,
      "v": 75
    },
    {
      "midi": 57,
      "hit": false,
      "t": 92919.66466666655,
      "d": 1724.451749999993,
      "v": 76
    },
    {
      "midi": 53,
      "hit": false,
      "t": 94671.48866666654,
      "d": 1692.5174583333282,
      "v": 56
    },
    {
      "midi": 57,
      "hit": false,
      "t": 94671.48866666654,
      "d": 1692.5174583333282,
      "v": 68
    },
    {
      "midi": 62,
      "hit": false,
      "t": 94671.48866666654,
      "d": 1692.5174583333282,
      "v": 63
    },
    {
      "midi": 55,
      "hit": false,
      "t": 96423.31266666653,
      "d": 1692.5174583333282,
      "v": 68
    },
    {
      "midi": 59,
      "hit": false,
      "t": 96423.31266666653,
      "d": 1692.5174583333282,
      "v": 70
    },
    {
      "midi": 62,
      "hit": false,
      "t": 96423.31266666653,
      "d": 1692.5174583333282,
      "v": 67
    },
    {
      "midi": 52,
      "hit": false,
      "t": 98175.13666666653,
      "d": 1692.5174583333428,
      "v": 67
    },
    {
      "midi": 55,
      "hit": false,
      "t": 98175.13666666653,
      "d": 1692.5174583333428,
      "v": 61
    },
    {
      "midi": 62,
      "hit": false,
      "t": 98175.13666666653,
      "d": 1692.5174583333428,
      "v": 72
    },
    {
      "midi": 71,
      "hit": false,
      "t": 98394.11466666653,
      "d": 579.3792916666716,
      "v": 108
    },
    {
      "midi": 72,
      "hit": false,
      "t": 98832.07066666654,
      "d": 652.3719583333441,
      "v": 104
    },
    {
      "midi": 79,
      "hit": false,
      "t": 99270.02666666654,
      "d": 593.0654166666645,
      "v": 106
    },
    {
      "midi": 53,
      "hit": false,
      "t": 99926.96066666653,
      "d": 1692.5174583333282,
      "v": 57
    },
    {
      "midi": 64,
      "hit": false,
      "t": 99926.96066666653,
      "d": 1692.5174583333282,
      "v": 68
    },
    {
      "midi": 57,
      "hit": false,
      "t": 99926.96066666653,
      "d": 1724.451749999993,
      "v": 66
    },
    {
      "midi": 53,
      "hit": false,
      "t": 101678.78466666653,
      "d": 1692.5174583333282,
      "v": 57
    },
    {
      "midi": 57,
      "hit": false,
      "t": 101678.78466666653,
      "d": 1692.5174583333282,
      "v": 67
    },
    {
      "midi": 62,
      "hit": false,
      "t": 101678.78466666653,
      "d": 1692.5174583333282,
      "v": 64
    },
    {
      "midi": 52,
      "hit": false,
      "t": 103430.60866666652,
      "d": 615.8756250000006,
      "v": 84
    },
    {
      "midi": 55,
      "hit": false,
      "t": 103430.60866666652,
      "d": 615.8756250000006,
      "v": 100
    },
    {
      "midi": 59,
      "hit": false,
      "t": 103430.60866666652,
      "d": 615.8756250000006,
      "v": 93
    },
    {
      "midi": 53,
      "hit": false,
      "t": 104087.54266666652,
      "d": 615.8756250000006,
      "v": 89
    },
    {
      "midi": 57,
      "hit": false,
      "t": 104087.54266666652,
      "d": 615.8756250000006,
      "v": 100
    },
    {
      "midi": 60,
      "hit": false,
      "t": 104087.54266666652,
      "d": 615.8756250000006,
      "v": 89
    },
    {
      "midi": 55,
      "hit": false,
      "t": 104744.47666666651,
      "d": 369.52537499999744,
      "v": 84
    },
    {
      "midi": 59,
      "hit": false,
      "t": 104744.47666666651,
      "d": 369.52537499999744,
      "v": 102
    },
    {
      "midi": 62,
      "hit": false,
      "t": 104744.47666666651,
      "d": 369.52537499999744,
      "v": 93
    },
    {
      "midi": 55,
      "hit": false,
      "t": 106934.25666666651,
      "d": 1692.5174583333282,
      "v": 110
    },
    {
      "midi": 64,
      "hit": false,
      "t": 106934.25666666651,
      "d": 1692.5174583333282,
      "v": 111
    },
    {
      "midi": 60,
      "hit": false,
      "t": 106934.25666666651,
      "d": 1697.0794999999925,
      "v": 111
    },
    {
      "midi": 45,
      "hit": false,
      "t": 106934.25666666651,
      "d": 1724.451749999993,
      "v": 108
    },
    {
      "midi": 57,
      "hit": false,
      "t": 108695.20474999983,
      "d": 1715.3276666666643,
      "v": 108
    },
    {
      "midi": 64,
      "hit": false,
      "t": 108695.20474999983,
      "d": 1715.3276666666643,
      "v": 111
    },
    {
      "midi": 53,
      "hit": false,
      "t": 108699.7667916665,
      "d": 1697.079500000007,
      "v": 107
    },
    {
      "midi": 41,
      "hit": false,
      "t": 108699.7667916665,
      "d": 1710.765625,
      "v": 107
    },
    {
      "midi": 53,
      "hit": false,
      "t": 110447.02874999982,
      "d": 1697.0794999999925,
      "v": 109
    },
    {
      "midi": 57,
      "hit": false,
      "t": 110447.02874999982,
      "d": 1715.3276666666643,
      "v": 112
    },
    {
      "midi": 60,
      "hit": false,
      "t": 110451.59079166649,
      "d": 1692.5174583333282,
      "v": 109
    },
    {
      "midi": 50,
      "hit": false,
      "t": 110451.59079166649,
      "d": 1710.765625,
      "v": 110
    },
    {
      "midi": 60,
      "hit": false,
      "t": 112185.16662499982,
      "d": 834.8536250000034,
      "v": 115
    },
    {
      "midi": 43,
      "hit": false,
      "t": 112189.72866666649,
      "d": 834.8536250000034,
      "v": 108
    },
    {
      "midi": 50,
      "hit": false,
      "t": 112189.72866666649,
      "d": 834.8536250000034,
      "v": 107
    },
    {
      "midi": 57,
      "hit": false,
      "t": 112189.72866666649,
      "d": 834.8536250000034,
      "v": 110
    },
    {
      "midi": 62,
      "hit": false,
      "t": 113061.07862499982,
      "d": 853.1017916666606,
      "v": 110
    },
    {
      "midi": 55,
      "hit": false,
      "t": 113065.64066666648,
      "d": 834.8536250000034,
      "v": 108
    },
    {
      "midi": 43,
      "hit": false,
      "t": 113065.64066666648,
      "d": 848.5397499999963,
      "v": 106
    },
    {
      "midi": 59,
      "hit": false,
      "t": 113065.64066666648,
      "d": 848.5397499999963,
      "v": 114
    },
    {
      "midi": 40,
      "hit": false,
      "t": 113941.55266666648,
      "d": 1692.5174583333282,
      "v": 109
    },
    {
      "midi": 55,
      "hit": false,
      "t": 113941.55266666648,
      "d": 1697.0794999999925,
      "v": 106
    },
    {
      "midi": 52,
      "hit": false,
      "t": 113941.55266666648,
      "d": 1724.451749999993,
      "v": 105
    },
    {
      "midi": 62,
      "hit": false,
      "t": 113941.55266666648,
      "d": 1724.451749999993,
      "v": 110
    },
    {
      "midi": 64,
      "hit": false,
      "t": 115702.5007499998,
      "d": 1697.0794999999925,
      "v": 107
    },
    {
      "midi": 60,
      "hit": false,
      "t": 115702.5007499998,
      "d": 1715.3276666666497,
      "v": 110
    },
    {
      "midi": 55,
      "hit": false,
      "t": 115707.06279166647,
      "d": 1697.0794999999925,
      "v": 105
    },
    {
      "midi": 45,
      "hit": false,
      "t": 115707.06279166647,
      "d": 1710.7656249999854,
      "v": 109
    },
    {
      "midi": 64,
      "hit": false,
      "t": 117454.32474999978,
      "d": 1697.0794999999925,
      "v": 112
    },
    {
      "midi": 57,
      "hit": false,
      "t": 117458.88679166645,
      "d": 1697.0794999999925,
      "v": 109
    },
    {
      "midi": 41,
      "hit": false,
      "t": 117458.88679166645,
      "d": 1710.7656249999854,
      "v": 109
    },
    {
      "midi": 53,
      "hit": false,
      "t": 117458.88679166645,
      "d": 1710.7656249999854,
      "v": 106
    },
    {
      "midi": 60,
      "hit": false,
      "t": 119192.46262499977,
      "d": 834.8536250000034,
      "v": 116
    },
    {
      "midi": 43,
      "hit": false,
      "t": 119197.02466666643,
      "d": 834.8536250000034,
      "v": 99
    },
    {
      "midi": 50,
      "hit": false,
      "t": 119197.02466666643,
      "d": 834.8536250000034,
      "v": 102
    },
    {
      "midi": 57,
      "hit": false,
      "t": 119197.02466666643,
      "d": 834.8536250000034,
      "v": 114
    },
    {
      "midi": 50,
      "hit": false,
      "t": 120068.37462499976,
      "d": 848.5397499999963,
      "v": 101
    },
    {
      "midi": 43,
      "hit": false,
      "t": 120068.37462499976,
      "d": 853.1017916666606,
      "v": 106
    },
    {
      "midi": 55,
      "hit": false,
      "t": 120072.93666666643,
      "d": 848.5397499999963,
      "v": 105
    },
    {
      "midi": 59,
      "hit": false,
      "t": 120072.93666666643,
      "d": 848.5397499999963,
      "v": 116
    },
    {
      "midi": 40,
      "hit": false,
      "t": 120948.84866666642,
      "d": 1692.5174583333282,
      "v": 105
    },
    {
      "midi": 55,
      "hit": false,
      "t": 120948.84866666642,
      "d": 1692.5174583333282,
      "v": 112
    },
    {
      "midi": 62,
      "hit": false,
      "t": 120948.84866666642,
      "d": 1692.5174583333282,
      "v": 106
    },
    {
      "midi": 59,
      "hit": false,
      "t": 120948.84866666642,
      "d": 1724.451749999993,
      "v": 109
    },
    {
      "midi": 60,
      "hit": false,
      "t": 122709.79674999975,
      "d": 1692.5174583333282,
      "v": 110
    },
    {
      "midi": 64,
      "hit": false,
      "t": 122709.79674999975,
      "d": 1715.3276666666497,
      "v": 108
    },
    {
      "midi": 55,
      "hit": false,
      "t": 122714.35879166641,
      "d": 1697.0794999999925,
      "v": 108
    },
    {
      "midi": 45,
      "hit": false,
      "t": 122714.35879166641,
      "d": 1710.7656249999854,
      "v": 110
    },
    {
      "midi": 57,
      "hit": false,
      "t": 124461.62074999973,
      "d": 1715.3276666666643,
      "v": 113
    },
    {
      "midi": 53,
      "hit": false,
      "t": 124466.18279166639,
      "d": 1697.079500000007,
      "v": 109
    },
    {
      "midi": 41,
      "hit": false,
      "t": 124466.18279166639,
      "d": 1710.765625,
      "v": 105
    },
    {
      "midi": 64,
      "hit": false,
      "t": 124466.18279166639,
      "d": 1710.765625,
      "v": 109
    },
    {
      "midi": 60,
      "hit": false,
      "t": 126199.75862499973,
      "d": 834.8536250000034,
      "v": 111
    },
    {
      "midi": 43,
      "hit": false,
      "t": 126204.32066666639,
      "d": 834.8536250000034,
      "v": 106
    },
    {
      "midi": 50,
      "hit": false,
      "t": 126204.32066666639,
      "d": 834.8536250000034,
      "v": 108
    },
    {
      "midi": 57,
      "hit": false,
      "t": 126204.32066666639,
      "d": 834.8536250000034,
      "v": 110
    },
    {
      "midi": 62,
      "hit": false,
      "t": 127075.67062499972,
      "d": 853.1017916666606,
      "v": 104
    },
    {
      "midi": 55,
      "hit": false,
      "t": 127080.23266666639,
      "d": 834.8536250000034,
      "v": 106
    },
    {
      "midi": 43,
      "hit": false,
      "t": 127080.23266666639,
      "d": 848.5397499999963,
      "v": 106
    },
    {
      "midi": 59,
      "hit": false,
      "t": 127080.23266666639,
      "d": 848.5397499999963,
      "v": 120
    },
    {
      "midi": 40,
      "hit": false,
      "t": 127956.14466666638,
      "d": 1692.5174583333282,
      "v": 106
    },
    {
      "midi": 55,
      "hit": false,
      "t": 127956.14466666638,
      "d": 1697.0794999999925,
      "v": 113
    },
    {
      "midi": 52,
      "hit": false,
      "t": 127956.14466666638,
      "d": 1724.451749999993,
      "v": 112
    },
    {
      "midi": 62,
      "hit": false,
      "t": 127956.14466666638,
      "d": 1724.451749999993,
      "v": 107
    },
    {
      "midi": 64,
      "hit": false,
      "t": 129717.0927499997,
      "d": 1697.079500000007,
      "v": 114
    },
    {
      "midi": 60,
      "hit": false,
      "t": 129717.0927499997,
      "d": 1715.3276666666934,
      "v": 107
    },
    {
      "midi": 55,
      "hit": false,
      "t": 129721.65479166637,
      "d": 1697.0795000000217,
      "v": 107
    },
    {
      "midi": 45,
      "hit": false,
      "t": 129721.65479166637,
      "d": 1710.765625000029,
      "v": 106
    },
    {
      "midi": 64,
      "hit": false,
      "t": 131468.91674999974,
      "d": 1715.3276666666789,
      "v": 107
    },
    {
      "midi": 53,
      "hit": false,
      "t": 131473.47879166642,
      "d": 1692.5174583333428,
      "v": 112
    },
    {
      "midi": 41,
      "hit": false,
      "t": 131473.47879166642,
      "d": 1710.765625,
      "v": 106
    },
    {
      "midi": 57,
      "hit": false,
      "t": 131473.47879166642,
      "d": 1710.765625,
      "v": 112
    },
    {
      "midi": 62,
      "hit": false,
      "t": 133207.05462499976,
      "d": 834.8536250000179,
      "v": 114
    },
    {
      "midi": 43,
      "hit": false,
      "t": 133211.61666666644,
      "d": 834.8536250000179,
      "v": 110
    },
    {
      "midi": 55,
      "hit": false,
      "t": 133211.61666666644,
      "d": 834.8536250000179,
      "v": 110
    },
    {
      "midi": 59,
      "hit": false,
      "t": 133211.61666666644,
      "d": 834.8536250000179,
      "v": 112
    },
    {
      "midi": 67,
      "hit": false,
      "t": 134082.9666249998,
      "d": 853.1017916666751,
      "v": 116
    },
    {
      "midi": 59,
      "hit": false,
      "t": 134087.52866666648,
      "d": 834.8536249999888,
      "v": 111
    },
    {
      "midi": 55,
      "hit": false,
      "t": 134087.52866666648,
      "d": 848.5397499999963,
      "v": 108
    },
    {
      "midi": 62,
      "hit": false,
      "t": 134087.52866666648,
      "d": 848.5397499999963,
      "v": 113
    },
    {
      "midi": 52,
      "hit": false,
      "t": 134963.44066666646,
      "d": 1724.4517500000075,
      "v": 111
    },
    {
      "midi": 57,
      "hit": false,
      "t": 134963.44066666646,
      "d": 1724.4517500000075,
      "v": 113
    },
    {
      "midi": 61,
      "hit": false,
      "t": 134963.44066666646,
      "d": 1724.4517500000075,
      "v": 109
    },
    {
      "midi": 64,
      "hit": false,
      "t": 134963.44066666646,
      "d": 1724.4517500000075,
      "v": 111
    },
    {
      "midi": 59,
      "hit": false,
      "t": 136724.3887499998,
      "d": 1715.3276666666789,
      "v": 112
    },
    {
      "midi": 64,
      "hit": false,
      "t": 136724.3887499998,
      "d": 1715.3276666666789,
      "v": 113
    },
    {
      "midi": 52,
      "hit": false,
      "t": 136728.9507916665,
      "d": 1710.765625,
      "v": 106
    },
    {
      "midi": 56,
      "hit": false,
      "t": 136728.9507916665,
      "d": 1710.765625,
      "v": 106
    },
    {
      "midi": 53,
      "hit": false,
      "t": 138476.21274999983,
      "d": 1715.3276666666789,
      "v": 109
    },
    {
      "midi": 57,
      "hit": false,
      "t": 138476.21274999983,
      "d": 1715.3276666666789,
      "v": 112
    },
    {
      "midi": 60,
      "hit": false,
      "t": 138480.7747916665,
      "d": 1710.765625,
      "v": 112
    },
    {
      "midi": 64,
      "hit": false,
      "t": 138480.7747916665,
      "d": 1710.765625,
      "v": 108
    },
    {
      "midi": 62,
      "hit": false,
      "t": 140214.35062499985,
      "d": 1729.0137916666863,
      "v": 109
    },
    {
      "midi": 55,
      "hit": false,
      "t": 140218.91266666653,
      "d": 1724.4517500000075,
      "v": 113
    },
    {
      "midi": 59,
      "hit": false,
      "t": 140218.91266666653,
      "d": 1724.4517500000075,
      "v": 117
    },
    {
      "midi": 52,
      "hit": false,
      "t": 141970.73666666652,
      "d": 1724.4517500000075,
      "v": 111
    },
    {
      "midi": 57,
      "hit": false,
      "t": 141970.73666666652,
      "d": 1724.4517500000075,
      "v": 112
    },
    {
      "midi": 61,
      "hit": false,
      "t": 141970.73666666652,
      "d": 1724.4517500000075,
      "v": 111
    },
    {
      "midi": 64,
      "hit": false,
      "t": 141970.73666666652,
      "d": 1724.4517500000075,
      "v": 107
    },
    {
      "midi": 59,
      "hit": false,
      "t": 143731.68474999987,
      "d": 1715.3276666666789,
      "v": 107
    },
    {
      "midi": 64,
      "hit": false,
      "t": 143731.68474999987,
      "d": 1715.3276666666789,
      "v": 107
    },
    {
      "midi": 52,
      "hit": false,
      "t": 143736.24679166655,
      "d": 1710.765625,
      "v": 109
    },
    {
      "midi": 56,
      "hit": false,
      "t": 143736.24679166655,
      "d": 1710.765625,
      "v": 109
    },
    {
      "midi": 53,
      "hit": false,
      "t": 145483.5087499999,
      "d": 1715.3276666666789,
      "v": 113
    },
    {
      "midi": 57,
      "hit": false,
      "t": 145483.5087499999,
      "d": 1715.3276666666789,
      "v": 110
    },
    {
      "midi": 60,
      "hit": false,
      "t": 145488.07079166657,
      "d": 1710.765625,
      "v": 112
    },
    {
      "midi": 64,
      "hit": false,
      "t": 145488.07079166657,
      "d": 1710.765625,
      "v": 107
    },
    {
      "midi": 62,
      "hit": false,
      "t": 147221.6466249999,
      "d": 1729.0137916666863,
      "v": 105
    },
    {
      "midi": 55,
      "hit": false,
      "t": 147226.2086666666,
      "d": 1724.4517500000075,
      "v": 110
    },
    {
      "midi": 59,
      "hit": false,
      "t": 147226.2086666666,
      "d": 1724.4517500000075,
      "v": 114
    },
    {
      "midi": 52,
      "hit": false,
      "t": 148978.03266666658,
      "d": 1724.4517500000075,
      "v": 113
    },
    {
      "midi": 57,
      "hit": false,
      "t": 148978.03266666658,
      "d": 1724.4517500000075,
      "v": 113
    },
    {
      "midi": 61,
      "hit": false,
      "t": 148978.03266666658,
      "d": 1724.4517500000075,
      "v": 113
    },
    {
      "midi": 64,
      "hit": false,
      "t": 148978.03266666658,
      "d": 1724.4517500000075,
      "v": 110
    },
    {
      "midi": 59,
      "hit": false,
      "t": 150738.98074999993,
      "d": 1715.3276666666789,
      "v": 105
    },
    {
      "midi": 64,
      "hit": false,
      "t": 150738.98074999993,
      "d": 1715.3276666666789,
      "v": 109
    },
    {
      "midi": 52,
      "hit": false,
      "t": 150743.5427916666,
      "d": 1710.765625,
      "v": 109
    },
    {
      "midi": 56,
      "hit": false,
      "t": 150743.5427916666,
      "d": 1710.765625,
      "v": 112
    },
    {
      "midi": 53,
      "hit": false,
      "t": 152490.80474999995,
      "d": 1715.3276666666789,
      "v": 113
    },
    {
      "midi": 57,
      "hit": false,
      "t": 152490.80474999995,
      "d": 1715.3276666666789,
      "v": 108
    },
    {
      "midi": 60,
      "hit": false,
      "t": 152495.36679166663,
      "d": 1710.765625,
      "v": 108
    },
    {
      "midi": 64,
      "hit": false,
      "t": 152495.36679166663,
      "d": 1710.765625,
      "v": 108
    },
    {
      "midi": 62,
      "hit": false,
      "t": 154228.94262499997,
      "d": 1729.0137916666863,
      "v": 105
    },
    {
      "midi": 55,
      "hit": false,
      "t": 154233.50466666665,
      "d": 1724.4517500000075,
      "v": 113
    },
    {
      "midi": 59,
      "hit": false,
      "t": 154233.50466666665,
      "d": 1724.4517500000075,
      "v": 119
    },
    {
      "midi": 52,
      "hit": false,
      "t": 155985.32866666664,
      "d": 1724.4517500000075,
      "v": 107
    },
    {
      "midi": 57,
      "hit": false,
      "t": 155985.32866666664,
      "d": 1724.4517500000075,
      "v": 108
    },
    {
      "midi": 61,
      "hit": false,
      "t": 155985.32866666664,
      "d": 1724.4517500000075,
      "v": 114
    },
    {
      "midi": 64,
      "hit": false,
      "t": 155985.32866666664,
      "d": 1724.4517500000075,
      "v": 112
    },
    {
      "midi": 59,
      "hit": false,
      "t": 157746.27675,
      "d": 1715.3276666666789,
      "v": 111
    },
    {
      "midi": 64,
      "hit": false,
      "t": 157746.27675,
      "d": 1715.3276666666789,
      "v": 114
    },
    {
      "midi": 52,
      "hit": false,
      "t": 157750.83879166667,
      "d": 1710.765625,
      "v": 110
    },
    {
      "midi": 56,
      "hit": false,
      "t": 157750.83879166667,
      "d": 1710.765625,
      "v": 106
    },
    {
      "midi": 53,
      "hit": false,
      "t": 159498.10075,
      "d": 1824.8166666666802,
      "v": 108
    },
    {
      "midi": 57,
      "hit": false,
      "t": 159498.10075,
      "d": 1824.8166666666802,
      "v": 114
    },
    {
      "midi": 60,
      "hit": false,
      "t": 159502.6627916667,
      "d": 1820.2546250000014,
      "v": 114
    },
    {
      "midi": 64,
      "hit": false,
      "t": 159502.6627916667,
      "d": 1820.2546250000014,
      "v": 111
    },
    {
      "midi": 65,
      "hit": false,
      "t": 161500.8370416667,
      "d": 396.89762500004144,
      "v": 100
    },
    {
      "midi": 41,
      "hit": false,
      "t": 161505.39908333338,
      "d": 392.3355833333626,
      "v": 96
    },
    {
      "midi": 53,
      "hit": false,
      "t": 161505.39908333338,
      "d": 406.02170833337004,
      "v": 102
    },
    {
      "midi": 64,
      "hit": false,
      "t": 161874.92445833338,
      "d": 323.90495833341265,
      "v": 95
    },
    {
      "midi": 52,
      "hit": false,
      "t": 161879.48650000006,
      "d": 4.5620416666788515,
      "v": 101
    },
    {
      "midi": 40,
      "hit": false,
      "t": 161888.61058333341,
      "d": 301.0947500000475,
      "v": 92
    },
    {
      "midi": 52,
      "hit": false,
      "t": 161888.61058333341,
      "d": 301.0947500000475,
      "v": 92
    },
    {
      "midi": 50,
      "hit": false,
      "t": 162176.01920833343,
      "d": 4.5620416666788515,
      "v": 93
    },
    {
      "midi": 38,
      "hit": false,
      "t": 162176.01920833343,
      "d": 291.9706666666898,
      "v": 92
    },
    {
      "midi": 50,
      "hit": false,
      "t": 162180.5812500001,
      "d": 287.40862500001094,
      "v": 103
    },
    {
      "midi": 62,
      "hit": false,
      "t": 162185.14329166678,
      "d": 287.40862500001094,
      "v": 103
    },
    {
      "midi": 47,
      "hit": false,
      "t": 162477.11395833347,
      "d": 9.124083333328599,
      "v": 88
    },
    {
      "midi": 35,
      "hit": false,
      "t": 162477.11395833347,
      "d": 333.02904166668304,
      "v": 88
    },
    {
      "midi": 59,
      "hit": false,
      "t": 162486.2380416668,
      "d": 301.0947500000184,
      "v": 94
    },
    {
      "midi": 47,
      "hit": false,
      "t": 162486.2380416668,
      "d": 305.65679166669725,
      "v": 99
    },
    {
      "midi": 60,
      "hit": false,
      "t": 162750.83645833348,
      "d": 168.79554166668095,
      "v": 100
    },
    {
      "midi": 48,
      "hit": false,
      "t": 162755.39850000016,
      "d": 4.5620416666788515,
      "v": 99
    },
    {
      "midi": 36,
      "hit": false,
      "t": 162759.96054166683,
      "d": 155.1094166666444,
      "v": 91
    },
    {
      "midi": 48,
      "hit": false,
      "t": 162759.96054166683,
      "d": 155.1094166666444,
      "v": 97
    },
    {
      "midi": 53,
      "hit": false,
      "t": 163280.03329166683,
      "d": 342.15312500001164,
      "v": 103
    },
    {
      "midi": 65,
      "hit": false,
      "t": 163280.03329166683,
      "d": 342.15312500001164,
      "v": 98
    },
    {
      "midi": 52,
      "hit": false,
      "t": 163617.62437500016,
      "d": 264.5984166666749,
      "v": 96
    },
    {
      "midi": 64,
      "hit": false,
      "t": 163617.62437500016,
      "d": 264.5984166666749,
      "v": 95
    },
    {
      "midi": 50,
      "hit": false,
      "t": 163895.90891666684,
      "d": 287.40862500001094,
      "v": 101
    },
    {
      "midi": 62,
      "hit": false,
      "t": 163895.90891666684,
      "d": 287.40862500001094,
      "v": 96
    },
    {
      "midi": 52,
      "hit": false,
      "t": 164183.31754166685,
      "d": 323.90495833332534,
      "v": 96
    },
    {
      "midi": 64,
      "hit": false,
      "t": 164183.31754166685,
      "d": 323.90495833332534,
      "v": 101
    },
    {
      "midi": 53,
      "hit": false,
      "t": 164484.41229166684,
      "d": 250.91229166666744,
      "v": 95
    },
    {
      "midi": 65,
      "hit": false,
      "t": 164484.41229166684,
      "d": 250.91229166666744,
      "v": 94
    },
    {
      "midi": 55,
      "hit": false,
      "t": 164744.44866666684,
      "d": 1692.5174583333428,
      "v": 107
    },
    {
      "midi": 40,
      "hit": false,
      "t": 164744.44866666684,
      "d": 1697.0795000000217,
      "v": 110
    },
    {
      "midi": 59,
      "hit": false,
      "t": 164744.44866666684,
      "d": 1724.4517500000075,
      "v": 113
    },
    {
      "midi": 62,
      "hit": false,
      "t": 164744.44866666684,
      "d": 1738.137875000015,
      "v": 114
    },
    {
      "midi": 57,
      "hit": false,
      "t": 166505.3967500002,
      "d": 1715.3276666666789,
      "v": 107
    },
    {
      "midi": 64,
      "hit": false,
      "t": 166505.3967500002,
      "d": 1715.3276666666789,
      "v": 113
    },
    {
      "midi": 53,
      "hit": false,
      "t": 166509.95879166687,
      "d": 1697.0794999999925,
      "v": 111
    },
    {
      "midi": 41,
      "hit": false,
      "t": 166509.95879166687,
      "d": 1710.765625,
      "v": 110
    },
    {
      "midi": 53,
      "hit": false,
      "t": 168257.2207500002,
      "d": 1697.0795000000217,
      "v": 115
    },
    {
      "midi": 57,
      "hit": false,
      "t": 168257.2207500002,
      "d": 1715.3276666666789,
      "v": 114
    },
    {
      "midi": 60,
      "hit": false,
      "t": 168261.7827916669,
      "d": 1692.5174583333428,
      "v": 114
    },
    {
      "midi": 50,
      "hit": false,
      "t": 168261.7827916669,
      "d": 1710.765625,
      "v": 111
    },
    {
      "midi": 60,
      "hit": false,
      "t": 169995.35862500023,
      "d": 834.8536250000179,
      "v": 116
    },
    {
      "midi": 43,
      "hit": false,
      "t": 169999.9206666669,
      "d": 834.8536250000179,
      "v": 107
    },
    {
      "midi": 50,
      "hit": false,
      "t": 169999.9206666669,
      "d": 834.8536250000179,
      "v": 113
    },
    {
      "midi": 57,
      "hit": false,
      "t": 169999.9206666669,
      "d": 834.8536250000179,
      "v": 112
    },
    {
      "midi": 62,
      "hit": false,
      "t": 170871.27062500027,
      "d": 853.1017916666751,
      "v": 107
    },
    {
      "midi": 55,
      "hit": false,
      "t": 170875.83266666695,
      "d": 834.8536249999888,
      "v": 114
    },
    {
      "midi": 43,
      "hit": false,
      "t": 170875.83266666695,
      "d": 848.5397499999963,
      "v": 112
    },
    {
      "midi": 59,
      "hit": false,
      "t": 170875.83266666695,
      "d": 848.5397499999963,
      "v": 118
    },
    {
      "midi": 40,
      "hit": false,
      "t": 171751.74466666693,
      "d": 1692.5174583333428,
      "v": 110
    },
    {
      "midi": 55,
      "hit": false,
      "t": 171751.74466666693,
      "d": 1697.0795000000217,
      "v": 115
    },
    {
      "midi": 52,
      "hit": false,
      "t": 171751.74466666693,
      "d": 1724.4517500000075,
      "v": 113
    },
    {
      "midi": 62,
      "hit": false,
      "t": 171751.74466666693,
      "d": 1724.4517500000075,
      "v": 114
    },
    {
      "midi": 64,
      "hit": false,
      "t": 173512.69275000028,
      "d": 1697.0795000000217,
      "v": 115
    },
    {
      "midi": 60,
      "hit": false,
      "t": 173512.69275000028,
      "d": 1715.327666666708,
      "v": 106
    },
    {
      "midi": 55,
      "hit": false,
      "t": 173517.25479166696,
      "d": 1697.0795000000217,
      "v": 109
    },
    {
      "midi": 45,
      "hit": false,
      "t": 173517.25479166696,
      "d": 1710.765625000029,
      "v": 108
    },
    {
      "midi": 64,
      "hit": false,
      "t": 175264.51675000033,
      "d": 1697.0795000000217,
      "v": 110
    },
    {
      "midi": 57,
      "hit": false,
      "t": 175269.078791667,
      "d": 1697.0795000000217,
      "v": 110
    },
    {
      "midi": 41,
      "hit": false,
      "t": 175269.078791667,
      "d": 1710.765625000029,
      "v": 112
    },
    {
      "midi": 53,
      "hit": false,
      "t": 175269.078791667,
      "d": 1710.765625000029,
      "v": 111
    },
    {
      "midi": 60,
      "hit": false,
      "t": 177002.65462500037,
      "d": 834.8536250000179,
      "v": 114
    },
    {
      "midi": 43,
      "hit": false,
      "t": 177007.21666666705,
      "d": 834.8536250000179,
      "v": 101
    },
    {
      "midi": 50,
      "hit": false,
      "t": 177007.21666666705,
      "d": 834.8536250000179,
      "v": 101
    },
    {
      "midi": 57,
      "hit": false,
      "t": 177007.21666666705,
      "d": 834.8536250000179,
      "v": 115
    },
    {
      "midi": 50,
      "hit": false,
      "t": 177878.5666250004,
      "d": 848.5397500000254,
      "v": 102
    },
    {
      "midi": 43,
      "hit": false,
      "t": 177878.5666250004,
      "d": 853.1017916667042,
      "v": 108
    },
    {
      "midi": 55,
      "hit": false,
      "t": 177883.1286666671,
      "d": 848.5397500000254,
      "v": 108
    },
    {
      "midi": 59,
      "hit": false,
      "t": 177883.1286666671,
      "d": 848.5397500000254,
      "v": 117
    },
    {
      "midi": 40,
      "hit": false,
      "t": 178759.0406666671,
      "d": 1692.5174583333428,
      "v": 114
    },
    {
      "midi": 55,
      "hit": false,
      "t": 178759.0406666671,
      "d": 1692.5174583333428,
      "v": 107
    },
    {
      "midi": 59,
      "hit": false,
      "t": 178759.0406666671,
      "d": 1724.4517500000075,
      "v": 112
    },
    {
      "midi": 62,
      "hit": false,
      "t": 178759.0406666671,
      "d": 1738.137875000015,
      "v": 113
    },
    {
      "midi": 60,
      "hit": false,
      "t": 180519.98875000046,
      "d": 1692.5174583333428,
      "v": 113
    },
    {
      "midi": 64,
      "hit": false,
      "t": 180519.98875000046,
      "d": 1715.3276666666789,
      "v": 109
    },
    {
      "midi": 55,
      "hit": false,
      "t": 180524.55079166713,
      "d": 1697.0794999999925,
      "v": 110
    },
    {
      "midi": 45,
      "hit": false,
      "t": 180524.55079166713,
      "d": 1710.765625,
      "v": 114
    },
    {
      "midi": 57,
      "hit": false,
      "t": 182271.81275000048,
      "d": 1715.3276666666789,
      "v": 111
    },
    {
      "midi": 53,
      "hit": false,
      "t": 182276.37479166716,
      "d": 1697.0794999999925,
      "v": 110
    },
    {
      "midi": 41,
      "hit": false,
      "t": 182276.37479166716,
      "d": 1710.765625,
      "v": 113
    },
    {
      "midi": 64,
      "hit": false,
      "t": 182276.37479166716,
      "d": 1710.765625,
      "v": 110
    },
    {
      "midi": 60,
      "hit": false,
      "t": 184009.9506250005,
      "d": 834.8536250000179,
      "v": 112
    },
    {
      "midi": 43,
      "hit": false,
      "t": 184014.51266666717,
      "d": 834.8536250000179,
      "v": 112
    },
    {
      "midi": 50,
      "hit": false,
      "t": 184014.51266666717,
      "d": 834.8536250000179,
      "v": 109
    },
    {
      "midi": 57,
      "hit": false,
      "t": 184014.51266666717,
      "d": 834.8536250000179,
      "v": 114
    },
    {
      "midi": 62,
      "hit": false,
      "t": 184885.86262500053,
      "d": 853.1017916666751,
      "v": 108
    },
    {
      "midi": 55,
      "hit": false,
      "t": 184890.4246666672,
      "d": 834.8536249999888,
      "v": 113
    },
    {
      "midi": 43,
      "hit": false,
      "t": 184890.4246666672,
      "d": 848.5397499999963,
      "v": 113
    },
    {
      "midi": 59,
      "hit": false,
      "t": 184890.4246666672,
      "d": 848.5397499999963,
      "v": 117
    },
    {
      "midi": 40,
      "hit": false,
      "t": 185766.3366666672,
      "d": 1692.5174583333428,
      "v": 112
    },
    {
      "midi": 55,
      "hit": false,
      "t": 185766.3366666672,
      "d": 1697.0795000000217,
      "v": 111
    },
    {
      "midi": 52,
      "hit": false,
      "t": 185766.3366666672,
      "d": 1724.4517500000075,
      "v": 107
    },
    {
      "midi": 62,
      "hit": false,
      "t": 185766.3366666672,
      "d": 1724.4517500000075,
      "v": 108
    },
    {
      "midi": 64,
      "hit": false,
      "t": 187527.28475000054,
      "d": 1697.0795000000217,
      "v": 109
    },
    {
      "midi": 60,
      "hit": false,
      "t": 187527.28475000054,
      "d": 1715.327666666708,
      "v": 112
    },
    {
      "midi": 55,
      "hit": false,
      "t": 187531.84679166722,
      "d": 1697.0795000000217,
      "v": 112
    },
    {
      "midi": 45,
      "hit": false,
      "t": 187531.84679166722,
      "d": 1710.765625000029,
      "v": 112
    },
    {
      "midi": 64,
      "hit": false,
      "t": 189279.1087500006,
      "d": 1715.3276666666789,
      "v": 115
    },
    {
      "midi": 41,
      "hit": false,
      "t": 189283.67079166727,
      "d": 1710.765625,
      "v": 111
    },
    {
      "midi": 57,
      "hit": false,
      "t": 189283.67079166727,
      "d": 1710.765625,
      "v": 113
    },
    {
      "midi": 53,
      "hit": false,
      "t": 189283.67079166727,
      "d": 1802.0064583333442,
      "v": 110
    },
    {
      "midi": 53,
      "hit": false,
      "t": 191240.7866666673,
      "d": 250.91229166666744,
      "v": 112
    },
    {
      "midi": 65,
      "hit": false,
      "t": 191245.34870833397,
      "d": 250.91229166666744,
      "v": 112
    },
    {
      "midi": 52,
      "hit": false,
      "t": 191459.7646666673,
      "d": 232.66412500001024,
      "v": 111
    },
    {
      "midi": 64,
      "hit": false,
      "t": 191459.7646666673,
      "d": 232.66412500001024,
      "v": 113
    },
    {
      "midi": 50,
      "hit": false,
      "t": 191678.7426666673,
      "d": 447.0800833333342,
      "v": 109
    },
    {
      "midi": 62,
      "hit": false,
      "t": 191678.7426666673,
      "d": 447.0800833333342,
      "v": 107
    },
    {
      "midi": 52,
      "hit": false,
      "t": 192116.6986666673,
      "d": 223.54004166668165,
      "v": 117
    },
    {
      "midi": 64,
      "hit": false,
      "t": 192116.6986666673,
      "d": 223.54004166668165,
      "v": 118
    },
    {
      "midi": 65,
      "hit": false,
      "t": 192331.11462500063,
      "d": 196.16779166669585,
      "v": 121
    },
    {
      "midi": 53,
      "hit": false,
      "t": 192335.6766666673,
      "d": 196.16779166669585,
      "v": 121
    },
    {
      "midi": 67,
      "hit": false,
      "t": 192550.09262500066,
      "d": 533.7588749999995,
      "v": 106
    },
    {
      "midi": 55,
      "hit": false,
      "t": 192554.65466666734,
      "d": 191.6057499999879,
      "v": 108
    },
    {
      "midi": 40,
      "hit": false,
      "t": 192773.6326666673,
      "d": 1692.5174583333428,
      "v": 114
    },
    {
      "midi": 55,
      "hit": false,
      "t": 192773.6326666673,
      "d": 1692.5174583333428,
      "v": 107
    },
    {
      "midi": 59,
      "hit": false,
      "t": 192773.6326666673,
      "d": 1724.4517500000075,
      "v": 112
    },
    {
      "midi": 62,
      "hit": false,
      "t": 192773.6326666673,
      "d": 1738.137875000015,
      "v": 113
    },
    {
      "midi": 60,
      "hit": false,
      "t": 194534.58075000066,
      "d": 1692.5174583333428,
      "v": 113
    },
    {
      "midi": 64,
      "hit": false,
      "t": 194534.58075000066,
      "d": 1715.3276666666789,
      "v": 109
    },
    {
      "midi": 55,
      "hit": false,
      "t": 194539.14279166734,
      "d": 1697.0794999999925,
      "v": 110
    },
    {
      "midi": 45,
      "hit": false,
      "t": 194539.14279166734,
      "d": 1710.765625,
      "v": 114
    },
    {
      "midi": 57,
      "hit": false,
      "t": 196286.4047500007,
      "d": 1715.3276666666789,
      "v": 111
    },
    {
      "midi": 53,
      "hit": false,
      "t": 196290.96679166736,
      "d": 1697.0794999999925,
      "v": 110
    },
    {
      "midi": 41,
      "hit": false,
      "t": 196290.96679166736,
      "d": 1710.765625,
      "v": 113
    },
    {
      "midi": 64,
      "hit": false,
      "t": 196290.96679166736,
      "d": 1710.765625,
      "v": 110
    },
    {
      "midi": 60,
      "hit": false,
      "t": 198024.5426250007,
      "d": 834.8536250000179,
      "v": 112
    },
    {
      "midi": 43,
      "hit": false,
      "t": 198029.10466666738,
      "d": 834.8536250000179,
      "v": 112
    },
    {
      "midi": 50,
      "hit": false,
      "t": 198029.10466666738,
      "d": 834.8536250000179,
      "v": 109
    },
    {
      "midi": 57,
      "hit": false,
      "t": 198029.10466666738,
      "d": 834.8536250000179,
      "v": 114
    },
    {
      "midi": 62,
      "hit": false,
      "t": 198900.45462500074,
      "d": 853.1017916666751,
      "v": 108
    },
    {
      "midi": 55,
      "hit": false,
      "t": 198905.01666666742,
      "d": 834.8536249999888,
      "v": 113
    },
    {
      "midi": 43,
      "hit": false,
      "t": 198905.01666666742,
      "d": 848.5397499999963,
      "v": 113
    },
    {
      "midi": 59,
      "hit": false,
      "t": 198905.01666666742,
      "d": 848.5397499999963,
      "v": 117
    },
    {
      "midi": 40,
      "hit": false,
      "t": 199780.9286666674,
      "d": 1692.5174583333428,
      "v": 112
    },
    {
      "midi": 55,
      "hit": false,
      "t": 199780.9286666674,
      "d": 1697.0795000000217,
      "v": 111
    },
    {
      "midi": 52,
      "hit": false,
      "t": 199780.9286666674,
      "d": 1724.4517500000075,
      "v": 107
    },
    {
      "midi": 62,
      "hit": false,
      "t": 199780.9286666674,
      "d": 1724.4517500000075,
      "v": 108
    },
    {
      "midi": 64,
      "hit": false,
      "t": 201541.87675000075,
      "d": 1697.0795000000217,
      "v": 109
    },
    {
      "midi": 60,
      "hit": false,
      "t": 201541.87675000075,
      "d": 1715.327666666708,
      "v": 112
    },
    {
      "midi": 55,
      "hit": false,
      "t": 201546.43879166743,
      "d": 1697.0795000000217,
      "v": 112
    },
    {
      "midi": 45,
      "hit": false,
      "t": 201546.43879166743,
      "d": 1710.765625000029,
      "v": 112
    },
    {
      "midi": 64,
      "hit": false,
      "t": 203293.7007500008,
      "d": 1715.3276666666789,
      "v": 115
    },
    {
      "midi": 41,
      "hit": false,
      "t": 203298.26279166748,
      "d": 1710.765625,
      "v": 111
    },
    {
      "midi": 57,
      "hit": false,
      "t": 203298.26279166748,
      "d": 1710.765625,
      "v": 113
    },
    {
      "midi": 53,
      "hit": false,
      "t": 203298.26279166748,
      "d": 1802.0064583333442,
      "v": 110
    },
    {
      "midi": 53,
      "hit": false,
      "t": 205255.3786666675,
      "d": 250.91229166666744,
      "v": 112
    },
    {
      "midi": 65,
      "hit": false,
      "t": 205259.94070833418,
      "d": 250.91229166666744,
      "v": 112
    },
    {
      "midi": 52,
      "hit": false,
      "t": 205474.3566666675,
      "d": 232.66412500001024,
      "v": 111
    },
    {
      "midi": 64,
      "hit": false,
      "t": 205474.3566666675,
      "d": 232.66412500001024,
      "v": 113
    },
    {
      "midi": 50,
      "hit": false,
      "t": 205693.3346666675,
      "d": 447.0800833333342,
      "v": 109
    },
    {
      "midi": 62,
      "hit": false,
      "t": 205693.3346666675,
      "d": 447.0800833333342,
      "v": 107
    },
    {
      "midi": 52,
      "hit": false,
      "t": 206131.2906666675,
      "d": 223.54004166668165,
      "v": 117
    },
    {
      "midi": 64,
      "hit": false,
      "t": 206131.2906666675,
      "d": 223.54004166668165,
      "v": 118
    },
    {
      "midi": 65,
      "hit": false,
      "t": 206345.70662500084,
      "d": 196.16779166669585,
      "v": 121
    },
    {
      "midi": 53,
      "hit": false,
      "t": 206350.2686666675,
      "d": 196.16779166669585,
      "v": 121
    },
    {
      "midi": 67,
      "hit": false,
      "t": 206564.68462500087,
      "d": 533.7588750000286,
      "v": 106
    },
    {
      "midi": 53,
      "hit": false,
      "t": 207007.20266666755,
      "d": 250.91229166666744,
      "v": 112
    },
    {
      "midi": 65,
      "hit": false,
      "t": 207011.76470833423,
      "d": 250.91229166666744,
      "v": 112
    },
    {
      "midi": 52,
      "hit": false,
      "t": 207226.18066666755,
      "d": 232.66412500001024,
      "v": 111
    },
    {
      "midi": 64,
      "hit": false,
      "t": 207226.18066666755,
      "d": 232.66412500001024,
      "v": 113
    },
    {
      "midi": 50,
      "hit": false,
      "t": 207445.15866666756,
      "d": 447.0800833333342,
      "v": 109
    },
    {
      "midi": 62,
      "hit": false,
      "t": 207445.15866666756,
      "d": 447.0800833333342,
      "v": 107
    },
    {
      "midi": 52,
      "hit": false,
      "t": 207883.11466666756,
      "d": 223.54004166668165,
      "v": 117
    },
    {
      "midi": 64,
      "hit": false,
      "t": 207883.11466666756,
      "d": 223.54004166668165,
      "v": 118
    },
    {
      "midi": 65,
      "hit": false,
      "t": 208097.5306250009,
      "d": 196.16779166669585,
      "v": 121
    },
    {
      "midi": 53,
      "hit": false,
      "t": 208102.09266666757,
      "d": 196.16779166669585,
      "v": 121
    },
    {
      "midi": 67,
      "hit": false,
      "t": 208316.50862500092,
      "d": 533.7588750000286,
      "v": 106
    },
    {
      "midi": 53,
      "hit": false,
      "t": 208759.0266666676,
      "d": 250.91229166666744,
      "v": 112
    },
    {
      "midi": 65,
      "hit": false,
      "t": 208763.58870833428,
      "d": 250.91229166666744,
      "v": 112
    },
    {
      "midi": 52,
      "hit": false,
      "t": 208978.0046666676,
      "d": 232.66412500001024,
      "v": 111
    },
    {
      "midi": 64,
      "hit": false,
      "t": 208978.0046666676,
      "d": 232.66412500001024,
      "v": 113
    },
    {
      "midi": 50,
      "hit": false,
      "t": 209196.9826666676,
      "d": 447.0800833333342,
      "v": 109
    },
    {
      "midi": 62,
      "hit": false,
      "t": 209196.9826666676,
      "d": 447.0800833333342,
      "v": 107
    },
    {
      "midi": 52,
      "hit": false,
      "t": 209634.93866666761,
      "d": 223.54004166668165,
      "v": 117
    },
    {
      "midi": 64,
      "hit": false,
      "t": 209634.93866666761,
      "d": 223.54004166668165,
      "v": 118
    },
    {
      "midi": 65,
      "hit": false,
      "t": 209849.35462500094,
      "d": 196.16779166669585,
      "v": 121
    },
    {
      "midi": 53,
      "hit": false,
      "t": 209853.91666666762,
      "d": 196.16779166669585,
      "v": 121
    },
    {
      "midi": 67,
      "hit": false,
      "t": 210068.33262500097,
      "d": 205.29187499999534,
      "v": 106
    },
    {
      "midi": 55,
      "hit": false,
      "t": 210072.89466666765,
      "d": 191.6057499999879,
      "v": 108
    },
    {
      "midi": 48,
      "hit": false,
      "t": 210287.31062500097,
      "d": 3489.961875000008,
      "v": 106
    },
    {
      "midi": 60,
      "hit": false,
      "t": 210287.31062500097,
      "d": 3699.8157916666823,
      "v": 106
    }
  ]
}