{
  "jsonPath": "Soundtracks/Hollywood/Sha-Na-Na/rock-n-roll-is-here-to-stay.json",
  "path": "Soundtracks\\Hollywood\\Sha-Na-Na\\Rock N Roll Is Here To Stay.mid",
  "name": "Rock N Roll Is Here To Stay",
  "difficulty": "Advanced",
  "bpm": 200,
  "notes": [
    {
      "midi": 71,
      "hit": false,
      "t": 3600,
      "d": 48.75,
      "v": 87
    },
    {
      "midi": 74,
      "hit": false,
      "t": 3600,
      "d": 48.75,
      "v": 91
    },
    {
      "midi": 79,
      "hit": false,
      "t": 3600,
      "d": 56.875,
      "v": 87
    },
    {
      "midi": 74,
      "hit": false,
      "t": 3750,
      "d": 39.375,
      "v": 80
    },
    {
      "midi": 79,
      "hit": false,
      "t": 3750,
      "d": 42.5,
      "v": 77
    },
    {
      "midi": 71,
      "hit": false,
      "t": 3750,
      "d": 45.625,
      "v": 71
    },
    {
      "midi": 79,
      "hit": false,
      "t": 3900,
      "d": 45.625,
      "v": 83
    },
    {
      "midi": 71,
      "hit": false,
      "t": 3900,
      "d": 50.625,
      "v": 68
    },
    {
      "midi": 74,
      "hit": false,
      "t": 3900,
      "d": 50.625,
      "v": 76
    },
    {
      "midi": 79,
      "hit": false,
      "t": 4050,
      "d": 45.625,
      "v": 87
    },
    {
      "midi": 74,
      "hit": false,
      "t": 4050,
      "d": 48.75,
      "v": 86
    },
    {
      "midi": 71,
      "hit": false,
      "t": 4050,
      "d": 55,
      "v": 83
    },
    {
      "midi": 74,
      "hit": false,
      "t": 4200,
      "d": 55,
      "v": 106
    },
    {
      "midi": 79,
      "hit": false,
      "t": 4200,
      "d": 56.875,
      "v": 108
    },
    {
      "midi": 71,
      "hit": false,
      "t": 4200,
      "d": 66.25,
      "v": 99
    },
    {
      "midi": 79,
      "hit": false,
      "t": 4350,
      "d": 38.125,
      "v": 90
    },
    {
      "midi": 74,
      "hit": false,
      "t": 4350,
      "d": 39.375,
      "v": 86
    },
    {
      "midi": 71,
      "hit": false,
      "t": 4350,
      "d": 48.75,
      "v": 76
    },
    {
      "midi": 79,
      "hit": false,
      "t": 4500,
      "d": 31.875,
      "v": 82
    },
    {
      "midi": 74,
      "hit": false,
      "t": 4500,
      "d": 38.125,
      "v": 80
    },
    {
      "midi": 71,
      "hit": false,
      "t": 4500,
      "d": 39.375,
      "v": 73
    },
    {
      "midi": 79,
      "hit": false,
      "t": 4650,
      "d": 35,
      "v": 91
    },
    {
      "midi": 74,
      "hit": false,
      "t": 4650,
      "d": 38.125,
      "v": 99
    },
    {
      "midi": 71,
      "hit": false,
      "t": 4650,
      "d": 44.375,
      "v": 86
    },
    {
      "midi": 79,
      "hit": false,
      "t": 4800,
      "d": 45.625,
      "v": 103
    },
    {
      "midi": 74,
      "hit": false,
      "t": 4800,
      "d": 47.5,
      "v": 103
    },
    {
      "midi": 71,
      "hit": false,
      "t": 4800,
      "d": 56.875,
      "v": 99
    },
    {
      "midi": 79,
      "hit": false,
      "t": 4950,
      "d": 35,
      "v": 87
    },
    {
      "midi": 74,
      "hit": false,
      "t": 4950,
      "d": 36.25,
      "v": 88
    },
    {
      "midi": 71,
      "hit": false,
      "t": 4950,
      "d": 44.375,
      "v": 89
    },
    {
      "midi": 79,
      "hit": false,
      "t": 5100,
      "d": 35,
      "v": 85
    },
    {
      "midi": 74,
      "hit": false,
      "t": 5100,
      "d": 36.25,
      "v": 87
    },
    {
      "midi": 71,
      "hit": false,
      "t": 5100,
      "d": 42.5,
      "v": 90
    },
    {
      "midi": 79,
      "hit": false,
      "t": 5250,
      "d": 33.125,
      "v": 87
    },
    {
      "midi": 74,
      "hit": false,
      "t": 5250,
      "d": 36.25,
      "v": 91
    },
    {
      "midi": 71,
      "hit": false,
      "t": 5250,
      "d": 42.5,
      "v": 86
    },
    {
      "midi": 74,
      "hit": false,
      "t": 5400,
      "d": 44.375,
      "v": 112
    },
    {
      "midi": 79,
      "hit": false,
      "t": 5400,
      "d": 47.5,
      "v": 106
    },
    {
      "midi": 71,
      "hit": false,
      "t": 5400,
      "d": 51.875,
      "v": 101
    },
    {
      "midi": 79,
      "hit": false,
      "t": 5550,
      "d": 36.25,
      "v": 83
    },
    {
      "midi": 74,
      "hit": false,
      "t": 5550,
      "d": 39.375,
      "v": 87
    },
    {
      "midi": 71,
      "hit": false,
      "t": 5550,
      "d": 41.25,
      "v": 82
    },
    {
      "midi": 79,
      "hit": false,
      "t": 5700,
      "d": 35,
      "v": 84
    },
    {
      "midi": 74,
      "hit": false,
      "t": 5700,
      "d": 39.375,
      "v": 92
    },
    {
      "midi": 71,
      "hit": false,
      "t": 5700,
      "d": 42.5,
      "v": 89
    },
    {
      "midi": 79,
      "hit": false,
      "t": 5850,
      "d": 25.625,
      "v": 79
    },
    {
      "midi": 74,
      "hit": false,
      "t": 5850,
      "d": 31.875,
      "v": 83
    },
    {
      "midi": 71,
      "hit": false,
      "t": 5850,
      "d": 38.125,
      "v": 64
    },
    {
      "midi": 74,
      "hit": false,
      "t": 6000,
      "d": 41.25,
      "v": 108
    },
    {
      "midi": 79,
      "hit": false,
      "t": 6000,
      "d": 41.25,
      "v": 100
    },
    {
      "midi": 71,
      "hit": false,
      "t": 6000,
      "d": 50.625,
      "v": 100
    },
    {
      "midi": 74,
      "hit": false,
      "t": 6150,
      "d": 36.25,
      "v": 89
    },
    {
      "midi": 79,
      "hit": false,
      "t": 6150,
      "d": 38.125,
      "v": 88
    },
    {
      "midi": 71,
      "hit": false,
      "t": 6150,
      "d": 45.625,
      "v": 76
    },
    {
      "midi": 79,
      "hit": false,
      "t": 6300,
      "d": 31.875,
      "v": 90
    },
    {
      "midi": 74,
      "hit": false,
      "t": 6300,
      "d": 36.25,
      "v": 97
    },
    {
      "midi": 71,
      "hit": false,
      "t": 6300,
      "d": 39.375,
      "v": 86
    },
    {
      "midi": 79,
      "hit": false,
      "t": 6450,
      "d": 35,
      "v": 86
    },
    {
      "midi": 74,
      "hit": false,
      "t": 6450,
      "d": 36.25,
      "v": 89
    },
    {
      "midi": 71,
      "hit": false,
      "t": 6450,
      "d": 39.375,
      "v": 76
    },
    {
      "midi": 74,
      "hit": false,
      "t": 6600,
      "d": 44.375,
      "v": 102
    },
    {
      "midi": 79,
      "hit": false,
      "t": 6600,
      "d": 44.375,
      "v": 99
    },
    {
      "midi": 71,
      "hit": false,
      "t": 6600,
      "d": 51.875,
      "v": 94
    },
    {
      "midi": 59,
      "hit": false,
      "t": 6600,
      "d": 1797.5,
      "v": 1
    },
    {
      "midi": 79,
      "hit": false,
      "t": 6750,
      "d": 30,
      "v": 78
    },
    {
      "midi": 74,
      "hit": false,
      "t": 6750,
      "d": 38.125,
      "v": 83
    },
    {
      "midi": 71,
      "hit": false,
      "t": 6750,
      "d": 39.375,
      "v": 77
    },
    {
      "midi": 79,
      "hit": false,
      "t": 6900,
      "d": 38.125,
      "v": 90
    },
    {
      "midi": 74,
      "hit": false,
      "t": 6900,
      "d": 42.5,
      "v": 93
    },
    {
      "midi": 71,
      "hit": false,
      "t": 6900,
      "d": 45.625,
      "v": 87
    },
    {
      "midi": 79,
      "hit": false,
      "t": 7050,
      "d": 31.875,
      "v": 83
    },
    {
      "midi": 74,
      "hit": false,
      "t": 7050,
      "d": 36.25,
      "v": 88
    },
    {
      "midi": 71,
      "hit": false,
      "t": 7050,
      "d": 42.5,
      "v": 79
    },
    {
      "midi": 74,
      "hit": false,
      "t": 7200,
      "d": 50.625,
      "v": 109
    },
    {
      "midi": 79,
      "hit": false,
      "t": 7200,
      "d": 50.625,
      "v": 102
    },
    {
      "midi": 71,
      "hit": false,
      "t": 7200,
      "d": 61.25,
      "v": 99
    },
    {
      "midi": 62,
      "hit": false,
      "t": 7200,
      "d": 1197.5,
      "v": 1
    },
    {
      "midi": 79,
      "hit": false,
      "t": 7350,
      "d": 33.125,
      "v": 82
    },
    {
      "midi": 74,
      "hit": false,
      "t": 7350,
      "d": 38.125,
      "v": 82
    },
    {
      "midi": 71,
      "hit": false,
      "t": 7350,
      "d": 44.375,
      "v": 77
    },
    {
      "midi": 79,
      "hit": false,
      "t": 7500,
      "d": 35,
      "v": 88
    },
    {
      "midi": 71,
      "hit": false,
      "t": 7500,
      "d": 41.25,
      "v": 90
    },
    {
      "midi": 74,
      "hit": false,
      "t": 7500,
      "d": 41.25,
      "v": 87
    },
    {
      "midi": 74,
      "hit": false,
      "t": 7650,
      "d": 38.125,
      "v": 89
    },
    {
      "midi": 79,
      "hit": false,
      "t": 7650,
      "d": 38.125,
      "v": 91
    },
    {
      "midi": 71,
      "hit": false,
      "t": 7650,
      "d": 45.625,
      "v": 68
    },
    {
      "midi": 74,
      "hit": false,
      "t": 7800,
      "d": 42.5,
      "v": 96
    },
    {
      "midi": 79,
      "hit": false,
      "t": 7800,
      "d": 50.625,
      "v": 93
    },
    {
      "midi": 71,
      "hit": false,
      "t": 7800,
      "d": 64.375,
      "v": 84
    },
    {
      "midi": 74,
      "hit": false,
      "t": 7950,
      "d": 35,
      "v": 93
    },
    {
      "midi": 79,
      "hit": false,
      "t": 7950,
      "d": 36.25,
      "v": 81
    },
    {
      "midi": 71,
      "hit": false,
      "t": 7950,
      "d": 39.375,
      "v": 76
    },
    {
      "midi": 79,
      "hit": false,
      "t": 8100,
      "d": 36.25,
      "v": 99
    },
    {
      "midi": 74,
      "hit": false,
      "t": 8100,
      "d": 39.375,
      "v": 99
    },
    {
      "midi": 71,
      "hit": false,
      "t": 8100,
      "d": 42.5,
      "v": 91
    },
    {
      "midi": 74,
      "hit": false,
      "t": 8250,
      "d": 35,
      "v": 86
    },
    {
      "midi": 79,
      "hit": false,
      "t": 8250,
      "d": 36.25,
      "v": 87
    },
    {
      "midi": 71,
      "hit": false,
      "t": 8250,
      "d": 41.25,
      "v": 77
    },
    {
      "midi": 76,
      "hit": false,
      "t": 8400,
      "d": 41.25,
      "v": 103
    },
    {
      "midi": 71,
      "hit": false,
      "t": 8400,
      "d": 47.5,
      "v": 91
    },
    {
      "midi": 79,
      "hit": false,
      "t": 8400,
      "d": 48.75,
      "v": 97
    },
    {
      "midi": 76,
      "hit": false,
      "t": 8550,
      "d": 35,
      "v": 79
    },
    {
      "midi": 71,
      "hit": false,
      "t": 8550,
      "d": 41.25,
      "v": 73
    },
    {
      "midi": 79,
      "hit": false,
      "t": 8550,
      "d": 41.25,
      "v": 79
    },
    {
      "midi": 76,
      "hit": false,
      "t": 8700,
      "d": 36.25,
      "v": 84
    },
    {
      "midi": 79,
      "hit": false,
      "t": 8700,
      "d": 38.125,
      "v": 85
    },
    {
      "midi": 71,
      "hit": false,
      "t": 8700,
      "d": 41.25,
      "v": 77
    },
    {
      "midi": 79,
      "hit": false,
      "t": 8850,
      "d": 36.25,
      "v": 81
    },
    {
      "midi": 76,
      "hit": false,
      "t": 8850,
      "d": 38.125,
      "v": 79
    },
    {
      "midi": 71,
      "hit": false,
      "t": 8850,
      "d": 42.5,
      "v": 75
    },
    {
      "midi": 79,
      "hit": false,
      "t": 9000,
      "d": 41.25,
      "v": 92
    },
    {
      "midi": 76,
      "hit": false,
      "t": 9000,
      "d": 44.375,
      "v": 92
    },
    {
      "midi": 71,
      "hit": false,
      "t": 9000,
      "d": 47.5,
      "v": 82
    },
    {
      "midi": 59,
      "hit": false,
      "t": 9000,
      "d": 1797.5,
      "v": 1
    },
    {
      "midi": 79,
      "hit": false,
      "t": 9150,
      "d": 39.375,
      "v": 71
    },
    {
      "midi": 71,
      "hit": false,
      "t": 9150,
      "d": 42.5,
      "v": 67
    },
    {
      "midi": 76,
      "hit": false,
      "t": 9150,
      "d": 42.5,
      "v": 70
    },
    {
      "midi": 79,
      "hit": false,
      "t": 9300,
      "d": 33.125,
      "v": 83
    },
    {
      "midi": 76,
      "hit": false,
      "t": 9300,
      "d": 38.125,
      "v": 83
    },
    {
      "midi": 71,
      "hit": false,
      "t": 9300,
      "d": 41.25,
      "v": 80
    },
    {
      "midi": 79,
      "hit": false,
      "t": 9450,
      "d": 30,
      "v": 86
    },
    {
      "midi": 76,
      "hit": false,
      "t": 9450,
      "d": 36.25,
      "v": 74
    },
    {
      "midi": 71,
      "hit": false,
      "t": 9450,
      "d": 39.375,
      "v": 76
    },
    {
      "midi": 79,
      "hit": false,
      "t": 9600,
      "d": 44.375,
      "v": 101
    },
    {
      "midi": 76,
      "hit": false,
      "t": 9600,
      "d": 47.5,
      "v": 101
    },
    {
      "midi": 71,
      "hit": false,
      "t": 9600,
      "d": 53.75,
      "v": 91
    },
    {
      "midi": 64,
      "hit": false,
      "t": 9600,
      "d": 1197.5,
      "v": 1
    },
    {
      "midi": 79,
      "hit": false,
      "t": 9750,
      "d": 38.125,
      "v": 80
    },
    {
      "midi": 76,
      "hit": false,
      "t": 9750,
      "d": 41.25,
      "v": 80
    },
    {
      "midi": 71,
      "hit": false,
      "t": 9750,
      "d": 45.625,
      "v": 77
    },
    {
      "midi": 79,
      "hit": false,
      "t": 9900,
      "d": 33.125,
      "v": 87
    },
    {
      "midi": 76,
      "hit": false,
      "t": 9900,
      "d": 38.125,
      "v": 83
    },
    {
      "midi": 71,
      "hit": false,
      "t": 9900,
      "d": 42.5,
      "v": 80
    },
    {
      "midi": 79,
      "hit": false,
      "t": 10050,
      "d": 38.125,
      "v": 86
    },
    {
      "midi": 76,
      "hit": false,
      "t": 10050,
      "d": 39.375,
      "v": 78
    },
    {
      "midi": 71,
      "hit": false,
      "t": 10050,
      "d": 42.5,
      "v": 78
    },
    {
      "midi": 79,
      "hit": false,
      "t": 10200,
      "d": 36.25,
      "v": 97
    },
    {
      "midi": 76,
      "hit": false,
      "t": 10200,
      "d": 41.25,
      "v": 98
    },
    {
      "midi": 71,
      "hit": false,
      "t": 10200,
      "d": 42.5,
      "v": 86
    },
    {
      "midi": 79,
      "hit": false,
      "t": 10350,
      "d": 33.125,
      "v": 90
    },
    {
      "midi": 76,
      "hit": false,
      "t": 10350,
      "d": 39.375,
      "v": 95
    },
    {
      "midi": 71,
      "hit": false,
      "t": 10350,
      "d": 41.25,
      "v": 87
    },
    {
      "midi": 79,
      "hit": false,
      "t": 10500,
      "d": 35,
      "v": 93
    },
    {
      "midi": 71,
      "hit": false,
      "t": 10500,
      "d": 42.5,
      "v": 83
    },
    {
      "midi": 76,
      "hit": false,
      "t": 10500,
      "d": 42.5,
      "v": 93
    },
    {
      "midi": 76,
      "hit": false,
      "t": 10650,
      "d": 33.125,
      "v": 90
    },
    {
      "midi": 79,
      "hit": false,
      "t": 10650,
      "d": 33.125,
      "v": 93
    },
    {
      "midi": 71,
      "hit": false,
      "t": 10650,
      "d": 35,
      "v": 78
    },
    {
      "midi": 76,
      "hit": false,
      "t": 10800,
      "d": 36.25,
      "v": 107
    },
    {
      "midi": 79,
      "hit": false,
      "t": 10800,
      "d": 38.125,
      "v": 101
    },
    {
      "midi": 72,
      "hit": false,
      "t": 10800,
      "d": 41.25,
      "v": 83
    },
    {
      "midi": 79,
      "hit": false,
      "t": 10950,
      "d": 35,
      "v": 89
    },
    {
      "midi": 76,
      "hit": false,
      "t": 10950,
      "d": 39.375,
      "v": 96
    },
    {
      "midi": 72,
      "hit": false,
      "t": 10950,
      "d": 42.5,
      "v": 80
    },
    {
      "midi": 79,
      "hit": false,
      "t": 11100,
      "d": 42.5,
      "v": 80
    },
    {
      "midi": 76,
      "hit": false,
      "t": 11100,
      "d": 44.375,
      "v": 99
    },
    {
      "midi": 72,
      "hit": false,
      "t": 11100,
      "d": 50.625,
      "v": 82
    },
    {
      "midi": 72,
      "hit": false,
      "t": 11250,
      "d": 36.25,
      "v": 81
    },
    {
      "midi": 79,
      "hit": false,
      "t": 11250,
      "d": 36.25,
      "v": 82
    },
    {
      "midi": 76,
      "hit": false,
      "t": 11250,
      "d": 38.125,
      "v": 82
    },
    {
      "midi": 76,
      "hit": false,
      "t": 11400,
      "d": 47.5,
      "v": 106
    },
    {
      "midi": 72,
      "hit": false,
      "t": 11400,
      "d": 51.875,
      "v": 102
    },
    {
      "midi": 79,
      "hit": false,
      "t": 11400,
      "d": 56.875,
      "v": 102
    },
    {
      "midi": 60,
      "hit": false,
      "t": 11400,
      "d": 1722.5,
      "v": 1
    },
    {
      "midi": 76,
      "hit": false,
      "t": 11550,
      "d": 35,
      "v": 89
    },
    {
      "midi": 79,
      "hit": false,
      "t": 11550,
      "d": 39.375,
      "v": 90
    },
    {
      "midi": 72,
      "hit": false,
      "t": 11550,
      "d": 44.375,
      "v": 92
    },
    {
      "midi": 79,
      "hit": false,
      "t": 11700,
      "d": 28.75,
      "v": 104
    },
    {
      "midi": 72,
      "hit": false,
      "t": 11700,
      "d": 33.125,
      "v": 105
    },
    {
      "midi": 76,
      "hit": false,
      "t": 11700,
      "d": 33.125,
      "v": 110
    },
    {
      "midi": 76,
      "hit": false,
      "t": 11850,
      "d": 36.25,
      "v": 93
    },
    {
      "midi": 79,
      "hit": false,
      "t": 11850,
      "d": 36.25,
      "v": 82
    },
    {
      "midi": 72,
      "hit": false,
      "t": 11850,
      "d": 38.125,
      "v": 72
    },
    {
      "midi": 79,
      "hit": false,
      "t": 12000,
      "d": 44.375,
      "v": 95
    },
    {
      "midi": 72,
      "hit": false,
      "t": 12000,
      "d": 45.625,
      "v": 90
    },
    {
      "midi": 76,
      "hit": false,
      "t": 12000,
      "d": 45.625,
      "v": 101
    },
    {
      "midi": 64,
      "hit": false,
      "t": 12000,
      "d": 1197.5,
      "v": 1
    },
    {
      "midi": 72,
      "hit": false,
      "t": 12150,
      "d": 36.25,
      "v": 86
    },
    {
      "midi": 76,
      "hit": false,
      "t": 12150,
      "d": 36.25,
      "v": 80
    },
    {
      "midi": 79,
      "hit": false,
      "t": 12150,
      "d": 38.125,
      "v": 83
    },
    {
      "midi": 79,
      "hit": false,
      "t": 12300,
      "d": 38.125,
      "v": 94
    },
    {
      "midi": 72,
      "hit": false,
      "t": 12300,
      "d": 39.375,
      "v": 99
    },
    {
      "midi": 76,
      "hit": false,
      "t": 12300,
      "d": 39.375,
      "v": 93
    },
    {
      "midi": 79,
      "hit": false,
      "t": 12450,
      "d": 35,
      "v": 71
    },
    {
      "midi": 76,
      "hit": false,
      "t": 12450,
      "d": 39.375,
      "v": 87
    },
    {
      "midi": 72,
      "hit": false,
      "t": 12450,
      "d": 42.5,
      "v": 64
    },
    {
      "midi": 72,
      "hit": false,
      "t": 12600,
      "d": 55,
      "v": 100
    },
    {
      "midi": 76,
      "hit": false,
      "t": 12600,
      "d": 55,
      "v": 108
    },
    {
      "midi": 79,
      "hit": false,
      "t": 12600,
      "d": 55,
      "v": 103
    },
    {
      "midi": 79,
      "hit": false,
      "t": 12750,
      "d": 41.25,
      "v": 79
    },
    {
      "midi": 76,
      "hit": false,
      "t": 12750,
      "d": 44.375,
      "v": 84
    },
    {
      "midi": 72,
      "hit": false,
      "t": 12750,
      "d": 45.625,
      "v": 73
    },
    {
      "midi": 79,
      "hit": false,
      "t": 12900,
      "d": 35,
      "v": 84
    },
    {
      "midi": 76,
      "hit": false,
      "t": 12900,
      "d": 41.25,
      "v": 99
    },
    {
      "midi": 72,
      "hit": false,
      "t": 12900,
      "d": 45.625,
      "v": 74
    },
    {
      "midi": 72,
      "hit": false,
      "t": 13050,
      "d": 41.25,
      "v": 71
    },
    {
      "midi": 79,
      "hit": false,
      "t": 13050,
      "d": 47.5,
      "v": 72
    },
    {
      "midi": 76,
      "hit": false,
      "t": 13050,
      "d": 48.75,
      "v": 85
    },
    {
      "midi": 78,
      "hit": false,
      "t": 13200,
      "d": 45.625,
      "v": 78
    },
    {
      "midi": 74,
      "hit": false,
      "t": 13200,
      "d": 60,
      "v": 87
    },
    {
      "midi": 81,
      "hit": false,
      "t": 13200,
      "d": 69.375,
      "v": 92
    },
    {
      "midi": 78,
      "hit": false,
      "t": 13350,
      "d": 38.125,
      "v": 58
    },
    {
      "midi": 74,
      "hit": false,
      "t": 13350,
      "d": 47.5,
      "v": 78
    },
    {
      "midi": 81,
      "hit": false,
      "t": 13350,
      "d": 53.75,
      "v": 79
    },
    {
      "midi": 74,
      "hit": false,
      "t": 13500,
      "d": 41.25,
      "v": 98
    },
    {
      "midi": 81,
      "hit": false,
      "t": 13500,
      "d": 41.25,
      "v": 95
    },
    {
      "midi": 78,
      "hit": false,
      "t": 13500,
      "d": 45.625,
      "v": 96
    },
    {
      "midi": 81,
      "hit": false,
      "t": 13650,
      "d": 38.125,
      "v": 81
    },
    {
      "midi": 74,
      "hit": false,
      "t": 13650,
      "d": 41.25,
      "v": 84
    },
    {
      "midi": 78,
      "hit": false,
      "t": 13650,
      "d": 42.5,
      "v": 71
    },
    {
      "midi": 74,
      "hit": false,
      "t": 13800,
      "d": 45.625,
      "v": 95
    },
    {
      "midi": 78,
      "hit": false,
      "t": 13800,
      "d": 45.625,
      "v": 101
    },
    {
      "midi": 81,
      "hit": false,
      "t": 13800,
      "d": 47.5,
      "v": 96
    },
    {
      "midi": 62,
      "hit": false,
      "t": 13800,
      "d": 1797.5,
      "v": 1
    },
    {
      "midi": 81,
      "hit": false,
      "t": 13950,
      "d": 33.125,
      "v": 80
    },
    {
      "midi": 74,
      "hit": false,
      "t": 13950,
      "d": 41.25,
      "v": 83
    },
    {
      "midi": 78,
      "hit": false,
      "t": 13950,
      "d": 41.25,
      "v": 73
    },
    {
      "midi": 81,
      "hit": false,
      "t": 14100,
      "d": 28.75,
      "v": 100
    },
    {
      "midi": 78,
      "hit": false,
      "t": 14100,
      "d": 36.25,
      "v": 98
    },
    {
      "midi": 74,
      "hit": false,
      "t": 14100,
      "d": 39.375,
      "v": 102
    },
    {
      "midi": 81,
      "hit": false,
      "t": 14250,
      "d": 28.75,
      "v": 75
    },
    {
      "midi": 74,
      "hit": false,
      "t": 14250,
      "d": 35,
      "v": 65
    },
    {
      "midi": 78,
      "hit": false,
      "t": 14250,
      "d": 36.25,
      "v": 67
    },
    {
      "midi": 81,
      "hit": false,
      "t": 14400,
      "d": 39.375,
      "v": 114
    },
    {
      "midi": 74,
      "hit": false,
      "t": 14400,
      "d": 47.5,
      "v": 110
    },
    {
      "midi": 78,
      "hit": false,
      "t": 14400,
      "d": 48.75,
      "v": 102
    },
    {
      "midi": 66,
      "hit": false,
      "t": 14400,
      "d": 1197.5,
      "v": 1
    },
    {
      "midi": 81,
      "hit": false,
      "t": 14550,
      "d": 33.125,
      "v": 114
    },
    {
      "midi": 74,
      "hit": false,
      "t": 14550,
      "d": 41.25,
      "v": 103
    },
    {
      "midi": 78,
      "hit": false,
      "t": 14550,
      "d": 45.625,
      "v": 94
    },
    {
      "midi": 81,
      "hit": false,
      "t": 14700,
      "d": 33.125,
      "v": 111
    },
    {
      "midi": 74,
      "hit": false,
      "t": 14700,
      "d": 41.25,
      "v": 100
    },
    {
      "midi": 78,
      "hit": false,
      "t": 14700,
      "d": 45.625,
      "v": 96
    },
    {
      "midi": 81,
      "hit": false,
      "t": 14850,
      "d": 33.125,
      "v": 113
    },
    {
      "midi": 74,
      "hit": false,
      "t": 14850,
      "d": 41.25,
      "v": 107
    },
    {
      "midi": 78,
      "hit": false,
      "t": 14850,
      "d": 45.625,
      "v": 100
    },
    {
      "midi": 98,
      "hit": false,
      "t": 14993.75,
      "d": 13.125,
      "v": 127
    },
    {
      "midi": 97,
      "hit": false,
      "t": 15056.25,
      "d": 13.125,
      "v": 120
    },
    {
      "midi": 95,
      "hit": false,
      "t": 15093.75,
      "d": 13.125,
      "v": 119
    },
    {
      "midi": 93,
      "hit": false,
      "t": 15121.875,
      "d": 13.125,
      "v": 117
    },
    {
      "midi": 91,
      "hit": false,
      "t": 15145,
      "d": 13.125,
      "v": 111
    },
    {
      "midi": 90,
      "hit": false,
      "t": 15166.875,
      "d": 13.125,
      "v": 110
    },
    {
      "midi": 88,
      "hit": false,
      "t": 15188.75,
      "d": 13.125,
      "v": 113
    },
    {
      "midi": 86,
      "hit": false,
      "t": 15206.25,
      "d": 13.125,
      "v": 111
    },
    {
      "midi": 85,
      "hit": false,
      "t": 15226.25,
      "d": 13.125,
      "v": 104
    },
    {
      "midi": 83,
      "hit": false,
      "t": 15241.875,
      "d": 13.125,
      "v": 107
    },
    {
      "midi": 81,
      "hit": false,
      "t": 15260.625,
      "d": 13.125,
      "v": 104
    },
    {
      "midi": 79,
      "hit": false,
      "t": 15278.125,
      "d": 13.125,
      "v": 99
    },
    {
      "midi": 78,
      "hit": false,
      "t": 15291.875,
      "d": 13.125,
      "v": 99
    },
    {
      "midi": 76,
      "hit": false,
      "t": 15309.375,
      "d": 13.125,
      "v": 96
    },
    {
      "midi": 74,
      "hit": false,
      "t": 15326.25,
      "d": 13.125,
      "v": 95
    },
    {
      "midi": 73,
      "hit": false,
      "t": 15341.875,
      "d": 13.125,
      "v": 96
    },
    {
      "midi": 71,
      "hit": false,
      "t": 15360.625,
      "d": 13.125,
      "v": 91
    },
    {
      "midi": 69,
      "hit": false,
      "t": 15381.25,
      "d": 13.125,
      "v": 90
    },
    {
      "midi": 67,
      "hit": false,
      "t": 15400,
      "d": 13.125,
      "v": 94
    },
    {
      "midi": 66,
      "hit": false,
      "t": 15423.125,
      "d": 13.125,
      "v": 88
    },
    {
      "midi": 64,
      "hit": false,
      "t": 15448.125,
      "d": 13.125,
      "v": 83
    },
    {
      "midi": 62,
      "hit": false,
      "t": 15473.125,
      "d": 13.125,
      "v": 83
    },
    {
      "midi": 61,
      "hit": false,
      "t": 15498.125,
      "d": 13.125,
      "v": 84
    },
    {
      "midi": 59,
      "hit": false,
      "t": 15523.125,
      "d": 13.125,
      "v": 78
    },
    {
      "midi": 57,
      "hit": false,
      "t": 15550,
      "d": 13.125,
      "v": 77
    },
    {
      "midi": 55,
      "hit": false,
      "t": 15578.125,
      "d": 13.125,
      "v": 74
    },
    {
      "midi": 74,
      "hit": false,
      "t": 15600,
      "d": 47.5,
      "v": 112
    },
    {
      "midi": 79,
      "hit": false,
      "t": 15600,
      "d": 51.875,
      "v": 96
    },
    {
      "midi": 71,
      "hit": false,
      "t": 15600,
      "d": 63.125,
      "v": 102
    },
    {
      "midi": 59,
      "hit": false,
      "t": 15600,
      "d": 2997.5,
      "v": 1
    },
    {
      "midi": 62,
      "hit": false,
      "t": 15600,
      "d": 2997.5,
      "v": 1
    },
    {
      "midi": 67,
      "hit": false,
      "t": 15600,
      "d": 2997.5,
      "v": 1
    },
    {
      "midi": 79,
      "hit": false,
      "t": 15750,
      "d": 44.375,
      "v": 87
    },
    {
      "midi": 74,
      "hit": false,
      "t": 15750,
      "d": 51.875,
      "v": 90
    },
    {
      "midi": 71,
      "hit": false,
      "t": 15750,
      "d": 61.25,
      "v": 86
    },
    {
      "midi": 74,
      "hit": false,
      "t": 15900,
      "d": 51.875,
      "v": 86
    },
    {
      "midi": 79,
      "hit": false,
      "t": 15900,
      "d": 51.875,
      "v": 92
    },
    {
      "midi": 71,
      "hit": false,
      "t": 15900,
      "d": 64.375,
      "v": 92
    },
    {
      "midi": 79,
      "hit": false,
      "t": 16050,
      "d": 48.75,
      "v": 88
    },
    {
      "midi": 74,
      "hit": false,
      "t": 16050,
      "d": 51.875,
      "v": 85
    },
    {
      "midi": 71,
      "hit": false,
      "t": 16050,
      "d": 53.75,
      "v": 80
    },
    {
      "midi": 79,
      "hit": false,
      "t": 16200,
      "d": 42.5,
      "v": 93
    },
    {
      "midi": 74,
      "hit": false,
      "t": 16200,
      "d": 48.75,
      "v": 90
    },
    {
      "midi": 71,
      "hit": false,
      "t": 16200,
      "d": 55,
      "v": 96
    },
    {
      "midi": 79,
      "hit": false,
      "t": 16350,
      "d": 38.125,
      "v": 98
    },
    {
      "midi": 74,
      "hit": false,
      "t": 16350,
      "d": 45.625,
      "v": 96
    },
    {
      "midi": 71,
      "hit": false,
      "t": 16350,
      "d": 47.5,
      "v": 90
    },
    {
      "midi": 79,
      "hit": false,
      "t": 16500,
      "d": 42.5,
      "v": 103
    },
    {
      "midi": 71,
      "hit": false,
      "t": 16500,
      "d": 47.5,
      "v": 90
    },
    {
      "midi": 74,
      "hit": false,
      "t": 16500,
      "d": 47.5,
      "v": 96
    },
    {
      "midi": 79,
      "hit": false,
      "t": 16650,
      "d": 35,
      "v": 97
    },
    {
      "midi": 74,
      "hit": false,
      "t": 16650,
      "d": 38.125,
      "v": 93
    },
    {
      "midi": 71,
      "hit": false,
      "t": 16650,
      "d": 39.375,
      "v": 91
    },
    {
      "midi": 79,
      "hit": false,
      "t": 16800,
      "d": 41.25,
      "v": 98
    },
    {
      "midi": 74,
      "hit": false,
      "t": 16800,
      "d": 44.375,
      "v": 104
    },
    {
      "midi": 71,
      "hit": false,
      "t": 16800,
      "d": 47.5,
      "v": 107
    },
    {
      "midi": 79,
      "hit": false,
      "t": 16950,
      "d": 33.125,
      "v": 98
    },
    {
      "midi": 74,
      "hit": false,
      "t": 16950,
      "d": 36.25,
      "v": 93
    },
    {
      "midi": 71,
      "hit": false,
      "t": 16950,
      "d": 42.5,
      "v": 99
    },
    {
      "midi": 79,
      "hit": false,
      "t": 17100,
      "d": 33.125,
      "v": 99
    },
    {
      "midi": 74,
      "hit": false,
      "t": 17100,
      "d": 36.25,
      "v": 99
    },
    {
      "midi": 71,
      "hit": false,
      "t": 17100,
      "d": 42.5,
      "v": 103
    },
    {
      "midi": 79,
      "hit": false,
      "t": 17250,
      "d": 31.875,
      "v": 100
    },
    {
      "midi": 74,
      "hit": false,
      "t": 17250,
      "d": 38.125,
      "v": 99
    },
    {
      "midi": 71,
      "hit": false,
      "t": 17250,
      "d": 42.5,
      "v": 98
    },
    {
      "midi": 74,
      "hit": false,
      "t": 17400,
      "d": 33.125,
      "v": 94
    },
    {
      "midi": 79,
      "hit": false,
      "t": 17400,
      "d": 36.25,
      "v": 93
    },
    {
      "midi": 71,
      "hit": false,
      "t": 17400,
      "d": 44.375,
      "v": 107
    },
    {
      "midi": 79,
      "hit": false,
      "t": 17550,
      "d": 35,
      "v": 100
    },
    {
      "midi": 74,
      "hit": false,
      "t": 17550,
      "d": 41.25,
      "v": 103
    },
    {
      "midi": 71,
      "hit": false,
      "t": 17550,
      "d": 47.5,
      "v": 96
    },
    {
      "midi": 79,
      "hit": false,
      "t": 17700,
      "d": 33.125,
      "v": 103
    },
    {
      "midi": 74,
      "hit": false,
      "t": 17700,
      "d": 36.25,
      "v": 96
    },
    {
      "midi": 71,
      "hit": false,
      "t": 17700,
      "d": 42.5,
      "v": 96
    },
    {
      "midi": 74,
      "hit": false,
      "t": 17850,
      "d": 26.875,
      "v": 100
    },
    {
      "midi": 79,
      "hit": false,
      "t": 17850,
      "d": 30,
      "v": 98
    },
    {
      "midi": 71,
      "hit": false,
      "t": 17850,
      "d": 39.375,
      "v": 97
    },
    {
      "midi": 74,
      "hit": false,
      "t": 18000,
      "d": 33.125,
      "v": 100
    },
    {
      "midi": 79,
      "hit": false,
      "t": 18000,
      "d": 35,
      "v": 101
    },
    {
      "midi": 71,
      "hit": false,
      "t": 18000,
      "d": 45.625,
      "v": 107
    },
    {
      "midi": 79,
      "hit": false,
      "t": 18150,
      "d": 35,
      "v": 98
    },
    {
      "midi": 74,
      "hit": false,
      "t": 18150,
      "d": 39.375,
      "v": 98
    },
    {
      "midi": 71,
      "hit": false,
      "t": 18150,
      "d": 42.5,
      "v": 101
    },
    {
      "midi": 74,
      "hit": false,
      "t": 18300,
      "d": 38.125,
      "v": 93
    },
    {
      "midi": 79,
      "hit": false,
      "t": 18300,
      "d": 38.125,
      "v": 94
    },
    {
      "midi": 71,
      "hit": false,
      "t": 18300,
      "d": 42.5,
      "v": 92
    },
    {
      "midi": 79,
      "hit": false,
      "t": 18450,
      "d": 36.25,
      "v": 97
    },
    {
      "midi": 74,
      "hit": false,
      "t": 18450,
      "d": 38.125,
      "v": 87
    },
    {
      "midi": 71,
      "hit": false,
      "t": 18450,
      "d": 42.5,
      "v": 91
    },
    {
      "midi": 79,
      "hit": false,
      "t": 18600,
      "d": 36.25,
      "v": 100
    },
    {
      "midi": 74,
      "hit": false,
      "t": 18600,
      "d": 42.5,
      "v": 106
    },
    {
      "midi": 71,
      "hit": false,
      "t": 18600,
      "d": 45.625,
      "v": 106
    },
    {
      "midi": 55,
      "hit": false,
      "t": 18600,
      "d": 447.5,
      "v": 1
    },
    {
      "midi": 59,
      "hit": false,
      "t": 18600,
      "d": 447.5,
      "v": 1
    },
    {
      "midi": 64,
      "hit": false,
      "t": 18600,
      "d": 447.5,
      "v": 1
    },
    {
      "midi": 74,
      "hit": false,
      "t": 18750,
      "d": 35,
      "v": 96
    },
    {
      "midi": 79,
      "hit": false,
      "t": 18750,
      "d": 36.25,
      "v": 103
    },
    {
      "midi": 71,
      "hit": false,
      "t": 18750,
      "d": 45.625,
      "v": 96
    },
    {
      "midi": 79,
      "hit": false,
      "t": 18900,
      "d": 33.125,
      "v": 97
    },
    {
      "midi": 74,
      "hit": false,
      "t": 18900,
      "d": 36.25,
      "v": 101
    },
    {
      "midi": 71,
      "hit": false,
      "t": 18900,
      "d": 41.25,
      "v": 100
    },
    {
      "midi": 79,
      "hit": false,
      "t": 19050,
      "d": 30,
      "v": 87
    },
    {
      "midi": 74,
      "hit": false,
      "t": 19050,
      "d": 31.875,
      "v": 94
    },
    {
      "midi": 71,
      "hit": false,
      "t": 19050,
      "d": 38.125,
      "v": 91
    },
    {
      "midi": 65,
      "hit": false,
      "t": 19050,
      "d": 747.5,
      "v": 1
    },
    {
      "midi": 55,
      "hit": false,
      "t": 19050,
      "d": 1347.5,
      "v": 1
    },
    {
      "midi": 59,
      "hit": false,
      "t": 19050,
      "d": 1347.5,
      "v": 1
    },
    {
      "midi": 77,
      "hit": false,
      "t": 19200,
      "d": 35,
      "v": 113
    },
    {
      "midi": 71,
      "hit": false,
      "t": 19200,
      "d": 44.375,
      "v": 109
    },
    {
      "midi": 74,
      "hit": false,
      "t": 19200,
      "d": 44.375,
      "v": 112
    },
    {
      "midi": 79,
      "hit": false,
      "t": 19200,
      "d": 51.875,
      "v": 111
    },
    {
      "midi": 79,
      "hit": false,
      "t": 19350,
      "d": 36.25,
      "v": 98
    },
    {
      "midi": 77,
      "hit": false,
      "t": 19350,
      "d": 38.125,
      "v": 100
    },
    {
      "midi": 74,
      "hit": false,
      "t": 19350,
      "d": 39.375,
      "v": 103
    },
    {
      "midi": 71,
      "hit": false,
      "t": 19350,
      "d": 44.375,
      "v": 91
    },
    {
      "midi": 79,
      "hit": false,
      "t": 19500,
      "d": 33.125,
      "v": 97
    },
    {
      "midi": 71,
      "hit": false,
      "t": 19500,
      "d": 41.25,
      "v": 102
    },
    {
      "midi": 74,
      "hit": false,
      "t": 19500,
      "d": 41.25,
      "v": 114
    },
    {
      "midi": 77,
      "hit": false,
      "t": 19500,
      "d": 42.5,
      "v": 109
    },
    {
      "midi": 79,
      "hit": false,
      "t": 19650,
      "d": 35,
      "v": 77
    },
    {
      "midi": 77,
      "hit": false,
      "t": 19650,
      "d": 39.375,
      "v": 92
    },
    {
      "midi": 71,
      "hit": false,
      "t": 19650,
      "d": 44.375,
      "v": 86
    },
    {
      "midi": 74,
      "hit": false,
      "t": 19650,
      "d": 44.375,
      "v": 102
    },
    {
      "midi": 77,
      "hit": false,
      "t": 19800,
      "d": 41.25,
      "v": 113
    },
    {
      "midi": 79,
      "hit": false,
      "t": 19800,
      "d": 42.5,
      "v": 101
    },
    {
      "midi": 74,
      "hit": false,
      "t": 19800,
      "d": 44.375,
      "v": 120
    },
    {
      "midi": 71,
      "hit": false,
      "t": 19800,
      "d": 48.75,
      "v": 111
    },
    {
      "midi": 62,
      "hit": false,
      "t": 19800,
      "d": 353.75,
      "v": 1
    },
    {
      "midi": 79,
      "hit": false,
      "t": 19950,
      "d": 28.75,
      "v": 93
    },
    {
      "midi": 77,
      "hit": false,
      "t": 19950,
      "d": 30,
      "v": 101
    },
    {
      "midi": 74,
      "hit": false,
      "t": 19950,
      "d": 35,
      "v": 110
    },
    {
      "midi": 71,
      "hit": false,
      "t": 19950,
      "d": 47.5,
      "v": 93
    },
    {
      "midi": 77,
      "hit": false,
      "t": 20100,
      "d": 17.5,
      "v": 83
    },
    {
      "midi": 79,
      "hit": false,
      "t": 20100,
      "d": 26.875,
      "v": 94
    },
    {
      "midi": 74,
      "hit": false,
      "t": 20100,
      "d": 35,
      "v": 110
    },
    {
      "midi": 71,
      "hit": false,
      "t": 20100,
      "d": 36.25,
      "v": 94
    },
    {
      "midi": 65,
      "hit": false,
      "t": 20100,
      "d": 297.5,
      "v": 1
    },
    {
      "midi": 77,
      "hit": false,
      "t": 20250,
      "d": 20.625,
      "v": 84
    },
    {
      "midi": 74,
      "hit": false,
      "t": 20250,
      "d": 33.125,
      "v": 86
    },
    {
      "midi": 79,
      "hit": false,
      "t": 20250,
      "d": 33.125,
      "v": 91
    },
    {
      "midi": 71,
      "hit": false,
      "t": 20250,
      "d": 42.5,
      "v": 72
    },
    {
      "midi": 70,
      "hit": false,
      "t": 20400,
      "d": 36.25,
      "v": 80
    },
    {
      "midi": 76,
      "hit": false,
      "t": 20400,
      "d": 56.875,
      "v": 108
    },
    {
      "midi": 79,
      "hit": false,
      "t": 20400,
      "d": 91.25,
      "v": 97
    },
    {
      "midi": 55,
      "hit": false,
      "t": 20400,
      "d": 2397.5,
      "v": 1
    },
    {
      "midi": 58,
      "hit": false,
      "t": 20400,
      "d": 2397.5,
      "v": 1
    },
    {
      "midi": 60,
      "hit": false,
      "t": 20400,
      "d": 2397.5,
      "v": 1
    },
    {
      "midi": 64,
      "hit": false,
      "t": 20400,
      "d": 2397.5,
      "v": 1
    },
    {
      "midi": 70,
      "hit": false,
      "t": 20550,
      "d": 53.75,
      "v": 84
    },
    {
      "midi": 76,
      "hit": false,
      "t": 20550,
      "d": 58.125,
      "v": 115
    },
    {
      "midi": 79,
      "hit": false,
      "t": 20550,
      "d": 66.25,
      "v": 105
    },
    {
      "midi": 70,
      "hit": false,
      "t": 20700,
      "d": 50.625,
      "v": 79
    },
    {
      "midi": 76,
      "hit": false,
      "t": 20700,
      "d": 58.125,
      "v": 103
    },
    {
      "midi": 79,
      "hit": false,
      "t": 20700,
      "d": 66.25,
      "v": 105
    },
    {
      "midi": 70,
      "hit": false,
      "t": 20850,
      "d": 58.125,
      "v": 76
    },
    {
      "midi": 76,
      "hit": false,
      "t": 20850,
      "d": 58.125,
      "v": 105
    },
    {
      "midi": 79,
      "hit": false,
      "t": 20850,
      "d": 63.125,
      "v": 100
    },
    {
      "midi": 76,
      "hit": false,
      "t": 21000,
      "d": 51.875,
      "v": 120
    },
    {
      "midi": 70,
      "hit": false,
      "t": 21000,
      "d": 53.75,
      "v": 81
    },
    {
      "midi": 79,
      "hit": false,
      "t": 21000,
      "d": 63.125,
      "v": 110
    },
    {
      "midi": 70,
      "hit": false,
      "t": 21150,
      "d": 58.125,
      "v": 74
    },
    {
      "midi": 76,
      "hit": false,
      "t": 21150,
      "d": 61.25,
      "v": 113
    },
    {
      "midi": 79,
      "hit": false,
      "t": 21150,
      "d": 63.125,
      "v": 98
    },
    {
      "midi": 70,
      "hit": false,
      "t": 21300,
      "d": 55,
      "v": 78
    },
    {
      "midi": 76,
      "hit": false,
      "t": 21300,
      "d": 60,
      "v": 108
    },
    {
      "midi": 79,
      "hit": false,
      "t": 21300,
      "d": 64.375,
      "v": 104
    },
    {
      "midi": 70,
      "hit": false,
      "t": 21450,
      "d": 64.375,
      "v": 79
    },
    {
      "midi": 76,
      "hit": false,
      "t": 21450,
      "d": 64.375,
      "v": 113
    },
    {
      "midi": 79,
      "hit": false,
      "t": 21450,
      "d": 66.25,
      "v": 106
    },
    {
      "midi": 70,
      "hit": false,
      "t": 21600,
      "d": 66.25,
      "v": 79
    },
    {
      "midi": 76,
      "hit": false,
      "t": 21600,
      "d": 70.625,
      "v": 118
    },
    {
      "midi": 79,
      "hit": false,
      "t": 21600,
      "d": 70.625,
      "v": 108
    },
    {
      "midi": 70,
      "hit": false,
      "t": 21750,
      "d": 56.875,
      "v": 74
    },
    {
      "midi": 76,
      "hit": false,
      "t": 21750,
      "d": 60,
      "v": 107
    },
    {
      "midi": 79,
      "hit": false,
      "t": 21750,
      "d": 63.125,
      "v": 101
    },
    {
      "midi": 76,
      "hit": false,
      "t": 21900,
      "d": 63.125,
      "v": 111
    },
    {
      "midi": 79,
      "hit": false,
      "t": 21900,
      "d": 63.125,
      "v": 110
    },
    {
      "midi": 70,
      "hit": false,
      "t": 21900,
      "d": 64.375,
      "v": 75
    },
    {
      "midi": 76,
      "hit": false,
      "t": 22050,
      "d": 61.25,
      "v": 109
    },
    {
      "midi": 79,
      "hit": false,
      "t": 22050,
      "d": 61.25,
      "v": 104
    },
    {
      "midi": 70,
      "hit": false,
      "t": 22050,
      "d": 66.25,
      "v": 75
    },
    {
      "midi": 79,
      "hit": false,
      "t": 22200,
      "d": 55,
      "v": 96
    },
    {
      "midi": 70,
      "hit": false,
      "t": 22200,
      "d": 67.5,
      "v": 62
    },
    {
      "midi": 76,
      "hit": false,
      "t": 22200,
      "d": 67.5,
      "v": 108
    },
    {
      "midi": 79,
      "hit": false,
      "t": 22350,
      "d": 58.125,
      "v": 94
    },
    {
      "midi": 76,
      "hit": false,
      "t": 22350,
      "d": 60,
      "v": 105
    },
    {
      "midi": 70,
      "hit": false,
      "t": 22350,
      "d": 63.125,
      "v": 73
    },
    {
      "midi": 70,
      "hit": false,
      "t": 22500,
      "d": 60,
      "v": 69
    },
    {
      "midi": 76,
      "hit": false,
      "t": 22500,
      "d": 60,
      "v": 112
    },
    {
      "midi": 79,
      "hit": false,
      "t": 22500,
      "d": 60,
      "v": 102
    },
    {
      "midi": 76,
      "hit": false,
      "t": 22650,
      "d": 42.5,
      "v": 103
    },
    {
      "midi": 79,
      "hit": false,
      "t": 22650,
      "d": 47.5,
      "v": 100
    },
    {
      "midi": 70,
      "hit": false,
      "t": 22650,
      "d": 56.875,
      "v": 73
    },
    {
      "midi": 79,
      "hit": false,
      "t": 22800,
      "d": 56.875,
      "v": 106
    },
    {
      "midi": 74,
      "hit": false,
      "t": 22800,
      "d": 63.125,
      "v": 119
    },
    {
      "midi": 71,
      "hit": false,
      "t": 22800,
      "d": 80,
      "v": 107
    },
    {
      "midi": 55,
      "hit": false,
      "t": 22800,
      "d": 2397.5,
      "v": 1
    },
    {
      "midi": 59,
      "hit": false,
      "t": 22800,
      "d": 2397.5,
      "v": 1
    },
    {
      "midi": 62,
      "hit": false,
      "t": 22800,
      "d": 2397.5,
      "v": 1
    },
    {
      "midi": 79,
      "hit": false,
      "t": 22950,
      "d": 60,
      "v": 85
    },
    {
      "midi": 71,
      "hit": false,
      "t": 22950,
      "d": 64.375,
      "v": 82
    },
    {
      "midi": 74,
      "hit": false,
      "t": 22950,
      "d": 69.375,
      "v": 86
    },
    {
      "midi": 71,
      "hit": false,
      "t": 23100,
      "d": 70.625,
      "v": 72
    },
    {
      "midi": 79,
      "hit": false,
      "t": 23100,
      "d": 70.625,
      "v": 84
    },
    {
      "midi": 74,
      "hit": false,
      "t": 23100,
      "d": 72.5,
      "v": 81
    },
    {
      "midi": 79,
      "hit": false,
      "t": 23250,
      "d": 55,
      "v": 79
    },
    {
      "midi": 71,
      "hit": false,
      "t": 23250,
      "d": 60,
      "v": 78
    },
    {
      "midi": 74,
      "hit": false,
      "t": 23250,
      "d": 61.25,
      "v": 83
    },
    {
      "midi": 79,
      "hit": false,
      "t": 23400,
      "d": 64.375,
      "v": 98
    },
    {
      "midi": 71,
      "hit": false,
      "t": 23400,
      "d": 67.5,
      "v": 82
    },
    {
      "midi": 74,
      "hit": false,
      "t": 23400,
      "d": 69.375,
      "v": 89
    },
    {
      "midi": 74,
      "hit": false,
      "t": 23550,
      "d": 63.125,
      "v": 87
    },
    {
      "midi": 71,
      "hit": false,
      "t": 23550,
      "d": 64.375,
      "v": 84
    },
    {
      "midi": 79,
      "hit": false,
      "t": 23550,
      "d": 67.5,
      "v": 92
    },
    {
      "midi": 74,
      "hit": false,
      "t": 23700,
      "d": 64.375,
      "v": 85
    },
    {
      "midi": 71,
      "hit": false,
      "t": 23700,
      "d": 69.375,
      "v": 84
    },
    {
      "midi": 79,
      "hit": false,
      "t": 23700,
      "d": 69.375,
      "v": 85
    },
    {
      "midi": 74,
      "hit": false,
      "t": 23850,
      "d": 63.125,
      "v": 88
    },
    {
      "midi": 71,
      "hit": false,
      "t": 23850,
      "d": 70.625,
      "v": 81
    },
    {
      "midi": 79,
      "hit": false,
      "t": 23850,
      "d": 70.625,
      "v": 85
    },
    {
      "midi": 74,
      "hit": false,
      "t": 24000,
      "d": 72.5,
      "v": 85
    },
    {
      "midi": 79,
      "hit": false,
      "t": 24000,
      "d": 76.875,
      "v": 100
    },
    {
      "midi": 71,
      "hit": false,
      "t": 24000,
      "d": 78.75,
      "v": 91
    },
    {
      "midi": 74,
      "hit": false,
      "t": 24150,
      "d": 67.5,
      "v": 90
    },
    {
      "midi": 79,
      "hit": false,
      "t": 24150,
      "d": 67.5,
      "v": 69
    },
    {
      "midi": 71,
      "hit": false,
      "t": 24150,
      "d": 75.625,
      "v": 72
    },
    {
      "midi": 71,
      "hit": false,
      "t": 24300,
      "d": 58.125,
      "v": 82
    },
    {
      "midi": 74,
      "hit": false,
      "t": 24300,
      "d": 58.125,
      "v": 93
    },
    {
      "midi": 79,
      "hit": false,
      "t": 24300,
      "d": 61.25,
      "v": 87
    },
    {
      "midi": 74,
      "hit": false,
      "t": 24450,
      "d": 60,
      "v": 87
    },
    {
      "midi": 71,
      "hit": false,
      "t": 24450,
      "d": 66.25,
      "v": 76
    },
    {
      "midi": 79,
      "hit": false,
      "t": 24450,
      "d": 69.375,
      "v": 89
    },
    {
      "midi": 74,
      "hit": false,
      "t": 24600,
      "d": 56.875,
      "v": 89
    },
    {
      "midi": 79,
      "hit": false,
      "t": 24600,
      "d": 63.125,
      "v": 95
    },
    {
      "midi": 71,
      "hit": false,
      "t": 24600,
      "d": 70.625,
      "v": 85
    },
    {
      "midi": 74,
      "hit": false,
      "t": 24750,
      "d": 63.125,
      "v": 80
    },
    {
      "midi": 79,
      "hit": false,
      "t": 24750,
      "d": 66.25,
      "v": 92
    },
    {
      "midi": 71,
      "hit": false,
      "t": 24750,
      "d": 73.75,
      "v": 85
    },
    {
      "midi": 74,
      "hit": false,
      "t": 24900,
      "d": 55,
      "v": 99
    },
    {
      "midi": 79,
      "hit": false,
      "t": 24900,
      "d": 61.25,
      "v": 103
    },
    {
      "midi": 71,
      "hit": false,
      "t": 24900,
      "d": 66.25,
      "v": 86
    },
    {
      "midi": 74,
      "hit": false,
      "t": 25050,
      "d": 60,
      "v": 85
    },
    {
      "midi": 71,
      "hit": false,
      "t": 25050,
      "d": 64.375,
      "v": 82
    },
    {
      "midi": 79,
      "hit": false,
      "t": 25050,
      "d": 67.5,
      "v": 85
    },
    {
      "midi": 78,
      "hit": false,
      "t": 25200,
      "d": 51.875,
      "v": 92
    },
    {
      "midi": 74,
      "hit": false,
      "t": 25200,
      "d": 60,
      "v": 117
    },
    {
      "midi": 81,
      "hit": false,
      "t": 25200,
      "d": 66.25,
      "v": 112
    },
    {
      "midi": 72,
      "hit": false,
      "t": 25200,
      "d": 67.5,
      "v": 107
    },
    {
      "midi": 66,
      "hit": false,
      "t": 25200,
      "d": 922.5,
      "v": 1
    },
    {
      "midi": 57,
      "hit": false,
      "t": 25200,
      "d": 931.875,
      "v": 1
    },
    {
      "midi": 62,
      "hit": false,
      "t": 25200,
      "d": 931.875,
      "v": 1
    },
    {
      "midi": 78,
      "hit": false,
      "t": 25350,
      "d": 45.625,
      "v": 71
    },
    {
      "midi": 72,
      "hit": false,
      "t": 25350,
      "d": 55,
      "v": 76
    },
    {
      "midi": 74,
      "hit": false,
      "t": 25350,
      "d": 55,
      "v": 94
    },
    {
      "midi": 81,
      "hit": false,
      "t": 25350,
      "d": 58.125,
      "v": 84
    },
    {
      "midi": 78,
      "hit": false,
      "t": 25500,
      "d": 31.875,
      "v": 62
    },
    {
      "midi": 81,
      "hit": false,
      "t": 25500,
      "d": 47.5,
      "v": 78
    },
    {
      "midi": 72,
      "hit": false,
      "t": 25500,
      "d": 51.875,
      "v": 80
    },
    {
      "midi": 74,
      "hit": false,
      "t": 25500,
      "d": 56.875,
      "v": 93
    },
    {
      "midi": 78,
      "hit": false,
      "t": 25650,
      "d": 47.5,
      "v": 74
    },
    {
      "midi": 81,
      "hit": false,
      "t": 25650,
      "d": 51.875,
      "v": 54
    },
    {
      "midi": 72,
      "hit": false,
      "t": 25650,
      "d": 63.125,
      "v": 65
    },
    {
      "midi": 74,
      "hit": false,
      "t": 25650,
      "d": 63.125,
      "v": 85
    },
    {
      "midi": 78,
      "hit": false,
      "t": 25800,
      "d": 48.75,
      "v": 81
    },
    {
      "midi": 72,
      "hit": false,
      "t": 25800,
      "d": 55,
      "v": 89
    },
    {
      "midi": 81,
      "hit": false,
      "t": 25800,
      "d": 58.125,
      "v": 85
    },
    {
      "midi": 74,
      "hit": false,
      "t": 25800,
      "d": 64.375,
      "v": 100
    },
    {
      "midi": 81,
      "hit": false,
      "t": 25950,
      "d": 38.125,
      "v": 59
    },
    {
      "midi": 78,
      "hit": false,
      "t": 25950,
      "d": 41.25,
      "v": 66
    },
    {
      "midi": 72,
      "hit": false,
      "t": 25950,
      "d": 63.125,
      "v": 85
    },
    {
      "midi": 74,
      "hit": false,
      "t": 25950,
      "d": 66.25,
      "v": 88
    },
    {
      "midi": 72,
      "hit": false,
      "t": 26100,
      "d": 60,
      "v": 65
    },
    {
      "midi": 78,
      "hit": false,
      "t": 26100,
      "d": 64.375,
      "v": 61
    },
    {
      "midi": 81,
      "hit": false,
      "t": 26100,
      "d": 64.375,
      "v": 57
    },
    {
      "midi": 74,
      "hit": false,
      "t": 26100,
      "d": 69.375,
      "v": 80
    },
    {
      "midi": 56,
      "hit": false,
      "t": 26100,
      "d": 297.5,
      "v": 1
    },
    {
      "midi": 61,
      "hit": false,
      "t": 26100,
      "d": 297.5,
      "v": 1
    },
    {
      "midi": 65,
      "hit": false,
      "t": 26100,
      "d": 297.5,
      "v": 1
    },
    {
      "midi": 72,
      "hit": false,
      "t": 26250,
      "d": 55,
      "v": 59
    },
    {
      "midi": 78,
      "hit": false,
      "t": 26250,
      "d": 61.25,
      "v": 63
    },
    {
      "midi": 81,
      "hit": false,
      "t": 26250,
      "d": 61.25,
      "v": 65
    },
    {
      "midi": 74,
      "hit": false,
      "t": 26250,
      "d": 76.875,
      "v": 89
    },
    {
      "midi": 79,
      "hit": false,
      "t": 26400,
      "d": 81.875,
      "v": 100
    },
    {
      "midi": 70,
      "hit": false,
      "t": 26400,
      "d": 83.125,
      "v": 96
    },
    {
      "midi": 76,
      "hit": false,
      "t": 26400,
      "d": 89.375,
      "v": 112
    },
    {
      "midi": 55,
      "hit": false,
      "t": 26400,
      "d": 1197.5,
      "v": 1
    },
    {
      "midi": 60,
      "hit": false,
      "t": 26400,
      "d": 1197.5,
      "v": 1
    },
    {
      "midi": 64,
      "hit": false,
      "t": 26400,
      "d": 1197.5,
      "v": 1
    },
    {
      "midi": 70,
      "hit": false,
      "t": 26550,
      "d": 80,
      "v": 74
    },
    {
      "midi": 76,
      "hit": false,
      "t": 26550,
      "d": 85,
      "v": 114
    },
    {
      "midi": 79,
      "hit": false,
      "t": 26550,
      "d": 85,
      "v": 80
    },
    {
      "midi": 79,
      "hit": false,
      "t": 26700,
      "d": 66.25,
      "v": 91
    },
    {
      "midi": 70,
      "hit": false,
      "t": 26700,
      "d": 70.625,
      "v": 82
    },
    {
      "midi": 76,
      "hit": false,
      "t": 26700,
      "d": 70.625,
      "v": 113
    },
    {
      "midi": 79,
      "hit": false,
      "t": 26850,
      "d": 72.5,
      "v": 90
    },
    {
      "midi": 76,
      "hit": false,
      "t": 26850,
      "d": 78.75,
      "v": 107
    },
    {
      "midi": 70,
      "hit": false,
      "t": 26850,
      "d": 80,
      "v": 77
    },
    {
      "midi": 79,
      "hit": false,
      "t": 27000,
      "d": 64.375,
      "v": 98
    },
    {
      "midi": 76,
      "hit": false,
      "t": 27000,
      "d": 66.25,
      "v": 112
    },
    {
      "midi": 70,
      "hit": false,
      "t": 27000,
      "d": 70.625,
      "v": 71
    },
    {
      "midi": 70,
      "hit": false,
      "t": 27150,
      "d": 60,
      "v": 73
    },
    {
      "midi": 79,
      "hit": false,
      "t": 27150,
      "d": 60,
      "v": 94
    },
    {
      "midi": 76,
      "hit": false,
      "t": 27150,
      "d": 63.125,
      "v": 112
    },
    {
      "midi": 79,
      "hit": false,
      "t": 27300,
      "d": 51.875,
      "v": 84
    },
    {
      "midi": 76,
      "hit": false,
      "t": 27300,
      "d": 53.75,
      "v": 103
    },
    {
      "midi": 70,
      "hit": false,
      "t": 27300,
      "d": 56.875,
      "v": 71
    },
    {
      "midi": 76,
      "hit": false,
      "t": 27450,
      "d": 60,
      "v": 102
    },
    {
      "midi": 79,
      "hit": false,
      "t": 27450,
      "d": 60,
      "v": 81
    },
    {
      "midi": 70,
      "hit": false,
      "t": 27450,
      "d": 67.5,
      "v": 60
    },
    {
      "midi": 79,
      "hit": false,
      "t": 27600,
      "d": 67.5,
      "v": 91
    },
    {
      "midi": 74,
      "hit": false,
      "t": 27600,
      "d": 72.5,
      "v": 100
    },
    {
      "midi": 71,
      "hit": false,
      "t": 27600,
      "d": 73.75,
      "v": 95
    },
    {
      "midi": 55,
      "hit": false,
      "t": 27600,
      "d": 2397.5,
      "v": 1
    },
    {
      "midi": 59,
      "hit": false,
      "t": 27600,
      "d": 2397.5,
      "v": 1
    },
    {
      "midi": 62,
      "hit": false,
      "t": 27600,
      "d": 2397.5,
      "v": 1
    },
    {
      "midi": 79,
      "hit": false,
      "t": 27750,
      "d": 66.25,
      "v": 66
    },
    {
      "midi": 74,
      "hit": false,
      "t": 27750,
      "d": 72.5,
      "v": 83
    },
    {
      "midi": 71,
      "hit": false,
      "t": 27750,
      "d": 78.75,
      "v": 67
    },
    {
      "midi": 79,
      "hit": false,
      "t": 27900,
      "d": 69.375,
      "v": 77
    },
    {
      "midi": 71,
      "hit": false,
      "t": 27900,
      "d": 72.5,
      "v": 73
    },
    {
      "midi": 74,
      "hit": false,
      "t": 27900,
      "d": 72.5,
      "v": 88
    },
    {
      "midi": 79,
      "hit": false,
      "t": 28050,
      "d": 55,
      "v": 80
    },
    {
      "midi": 74,
      "hit": false,
      "t": 28050,
      "d": 63.125,
      "v": 88
    },
    {
      "midi": 71,
      "hit": false,
      "t": 28050,
      "d": 67.5,
      "v": 75
    },
    {
      "midi": 79,
      "hit": false,
      "t": 28200,
      "d": 61.25,
      "v": 80
    },
    {
      "midi": 74,
      "hit": false,
      "t": 28200,
      "d": 67.5,
      "v": 79
    },
    {
      "midi": 71,
      "hit": false,
      "t": 28200,
      "d": 72.5,
      "v": 73
    },
    {
      "midi": 79,
      "hit": false,
      "t": 28350,
      "d": 63.125,
      "v": 73
    },
    {
      "midi": 71,
      "hit": false,
      "t": 28350,
      "d": 66.25,
      "v": 68
    },
    {
      "midi": 74,
      "hit": false,
      "t": 28350,
      "d": 66.25,
      "v": 82
    },
    {
      "midi": 79,
      "hit": false,
      "t": 28500,
      "d": 56.875,
      "v": 71
    },
    {
      "midi": 74,
      "hit": false,
      "t": 28500,
      "d": 58.125,
      "v": 84
    },
    {
      "midi": 71,
      "hit": false,
      "t": 28500,
      "d": 64.375,
      "v": 69
    },
    {
      "midi": 71,
      "hit": false,
      "t": 28650,
      "d": 60,
      "v": 58
    },
    {
      "midi": 79,
      "hit": false,
      "t": 28650,
      "d": 60,
      "v": 56
    },
    {
      "midi": 74,
      "hit": false,
      "t": 28650,
      "d": 66.25,
      "v": 69
    },
    {
      "midi": 71,
      "hit": false,
      "t": 28800,
      "d": 69.375,
      "v": 62
    },
    {
      "midi": 79,
      "hit": false,
      "t": 28800,
      "d": 72.5,
      "v": 74
    },
    {
      "midi": 74,
      "hit": false,
      "t": 28800,
      "d": 73.75,
      "v": 82
    },
    {
      "midi": 79,
      "hit": false,
      "t": 28950,
      "d": 55,
      "v": 67
    },
    {
      "midi": 71,
      "hit": false,
      "t": 28950,
      "d": 64.375,
      "v": 55
    },
    {
      "midi": 74,
      "hit": false,
      "t": 28950,
      "d": 64.375,
      "v": 61
    },
    {
      "midi": 79,
      "hit": false,
      "t": 29100,
      "d": 47.5,
      "v": 68
    },
    {
      "midi": 74,
      "hit": false,
      "t": 29100,
      "d": 55,
      "v": 71
    },
    {
      "midi": 71,
      "hit": false,
      "t": 29100,
      "d": 56.875,
      "v": 58
    },
    {
      "midi": 74,
      "hit": false,
      "t": 29250,
      "d": 48.75,
      "v": 76
    },
    {
      "midi": 71,
      "hit": false,
      "t": 29250,
      "d": 56.875,
      "v": 59
    },
    {
      "midi": 79,
      "hit": false,
      "t": 29250,
      "d": 58.125,
      "v": 64
    },
    {
      "midi": 98,
      "hit": false,
      "t": 29410.625,
      "d": 25.625,
      "v": 117
    },
    {
      "midi": 96,
      "hit": false,
      "t": 29416.875,
      "d": 25.625,
      "v": 122
    },
    {
      "midi": 95,
      "hit": false,
      "t": 29435.625,
      "d": 22.5,
      "v": 121
    },
    {
      "midi": 93,
      "hit": false,
      "t": 29456.25,
      "d": 19.375,
      "v": 111
    },
    {
      "midi": 91,
      "hit": false,
      "t": 29475,
      "d": 17.5,
      "v": 109
    },
    {
      "midi": 89,
      "hit": false,
      "t": 29491.875,
      "d": 16.25,
      "v": 115
    },
    {
      "midi": 88,
      "hit": false,
      "t": 29507.5,
      "d": 16.25,
      "v": 107
    },
    {
      "midi": 86,
      "hit": false,
      "t": 29523.125,
      "d": 14.375,
      "v": 103
    },
    {
      "midi": 84,
      "hit": false,
      "t": 29537.5,
      "d": 16.25,
      "v": 108
    },
    {
      "midi": 83,
      "hit": false,
      "t": 29551.25,
      "d": 16.25,
      "v": 107
    },
    {
      "midi": 81,
      "hit": false,
      "t": 29565.625,
      "d": 16.25,
      "v": 103
    },
    {
      "midi": 79,
      "hit": false,
      "t": 29582.5,
      "d": 14.375,
      "v": 96
    },
    {
      "midi": 77,
      "hit": false,
      "t": 29598.125,
      "d": 13.125,
      "v": 100
    },
    {
      "midi": 76,
      "hit": false,
      "t": 29612.5,
      "d": 16.25,
      "v": 95
    },
    {
      "midi": 74,
      "hit": false,
      "t": 29629.375,
      "d": 17.5,
      "v": 96
    },
    {
      "midi": 72,
      "hit": false,
      "t": 29648.125,
      "d": 16.25,
      "v": 91
    },
    {
      "midi": 71,
      "hit": false,
      "t": 29666.875,
      "d": 16.25,
      "v": 87
    },
    {
      "midi": 69,
      "hit": false,
      "t": 29691.875,
      "d": 11.25,
      "v": 87
    },
    {
      "midi": 74,
      "hit": false,
      "t": 30000,
      "d": 292.5,
      "v": 127
    },
    {
      "midi": 66,
      "hit": false,
      "t": 30000,
      "d": 358.125,
      "v": 67
    },
    {
      "midi": 72,
      "hit": false,
      "t": 30000,
      "d": 363.125,
      "v": 99
    },
    {
      "midi": 62,
      "hit": false,
      "t": 30000,
      "d": 370.625,
      "v": 99
    },
    {
      "midi": 69,
      "hit": false,
      "t": 30000,
      "d": 375.625,
      "v": 91
    },
    {
      "midi": 62,
      "hit": false,
      "t": 30000,
      "d": 1197.5,
      "v": 1
    },
    {
      "midi": 66,
      "hit": false,
      "t": 30000,
      "d": 1197.5,
      "v": 1
    },
    {
      "midi": 77,
      "hit": false,
      "t": 30281.25,
      "d": 70.625,
      "v": 113
    },
    {
      "midi": 78,
      "hit": false,
      "t": 30304.375,
      "d": 292.5,
      "v": 106
    },
    {
      "midi": 81,
      "hit": false,
      "t": 30600,
      "d": 305,
      "v": 127
    },
    {
      "midi": 72,
      "hit": false,
      "t": 30600,
      "d": 331.875,
      "v": 106
    },
    {
      "midi": 69,
      "hit": false,
      "t": 30600,
      "d": 360,
      "v": 105
    },
    {
      "midi": 62,
      "hit": false,
      "t": 30600,
      "d": 370.625,
      "v": 98
    },
    {
      "midi": 66,
      "hit": false,
      "t": 30600,
      "d": 376.875,
      "v": 84
    },
    {
      "midi": 78,
      "hit": false,
      "t": 30885.625,
      "d": 253.75,
      "v": 108
    },
    {
      "midi": 64,
      "hit": false,
      "t": 31200,
      "d": 383.125,
      "v": 116
    },
    {
      "midi": 60,
      "hit": false,
      "t": 31200,
      "d": 385,
      "v": 107
    },
    {
      "midi": 70,
      "hit": false,
      "t": 31200,
      "d": 388.125,
      "v": 97
    },
    {
      "midi": 67,
      "hit": false,
      "t": 31200,
      "d": 401.875,
      "v": 113
    },
    {
      "midi": 60,
      "hit": false,
      "t": 31200,
      "d": 1197.5,
      "v": 1
    },
    {
      "midi": 64,
      "hit": false,
      "t": 31200,
      "d": 1197.5,
      "v": 1
    },
    {
      "midi": 75,
      "hit": false,
      "t": 31460.625,
      "d": 80,
      "v": 92
    },
    {
      "midi": 76,
      "hit": false,
      "t": 31510.625,
      "d": 294.375,
      "v": 127
    },
    {
      "midi": 79,
      "hit": false,
      "t": 31775,
      "d": 310,
      "v": 122
    },
    {
      "midi": 60,
      "hit": false,
      "t": 31800,
      "d": 369.375,
      "v": 92
    },
    {
      "midi": 64,
      "hit": false,
      "t": 31800,
      "d": 389.375,
      "v": 100
    },
    {
      "midi": 70,
      "hit": false,
      "t": 31800,
      "d": 389.375,
      "v": 81
    },
    {
      "midi": 67,
      "hit": false,
      "t": 31800,
      "d": 392.5,
      "v": 95
    },
    {
      "midi": 76,
      "hit": false,
      "t": 32120,
      "d": 267.5,
      "v": 123
    },
    {
      "midi": 71,
      "hit": false,
      "t": 32400,
      "d": 341.25,
      "v": 98
    },
    {
      "midi": 62,
      "hit": false,
      "t": 32400,
      "d": 347.5,
      "v": 90
    },
    {
      "midi": 67,
      "hit": false,
      "t": 32400,
      "d": 355,
      "v": 106
    },
    {
      "midi": 59,
      "hit": false,
      "t": 32400,
      "d": 297.5,
      "v": 1
    },
    {
      "midi": 62,
      "hit": false,
      "t": 32400,
      "d": 297.5,
      "v": 1
    },
    {
      "midi": 74,
      "hit": false,
      "t": 32416.875,
      "d": 231.875,
      "v": 127
    },
    {
      "midi": 75,
      "hit": false,
      "t": 32673.125,
      "d": 78.75,
      "v": 108
    },
    {
      "midi": 60,
      "hit": false,
      "t": 32700,
      "d": 297.5,
      "v": 1
    },
    {
      "midi": 64,
      "hit": false,
      "t": 32700,
      "d": 297.5,
      "v": 1
    },
    {
      "midi": 76,
      "hit": false,
      "t": 32704.375,
      "d": 298.75,
      "v": 127
    },
    {
      "midi": 74,
      "hit": false,
      "t": 32998.125,
      "d": 285,
      "v": 127
    },
    {
      "midi": 71,
      "hit": false,
      "t": 33000,
      "d": 320.625,
      "v": 97
    },
    {
      "midi": 62,
      "hit": false,
      "t": 33000,
      "d": 333.125,
      "v": 86
    },
    {
      "midi": 67,
      "hit": false,
      "t": 33000,
      "d": 333.125,
      "v": 98
    },
    {
      "midi": 59,
      "hit": false,
      "t": 33000,
      "d": 297.5,
      "v": 1
    },
    {
      "midi": 62,
      "hit": false,
      "t": 33000,
      "d": 297.5,
      "v": 1
    },
    {
      "midi": 75,
      "hit": false,
      "t": 33265.625,
      "d": 48.75,
      "v": 91
    },
    {
      "midi": 76,
      "hit": false,
      "t": 33270,
      "d": 323.75,
      "v": 127
    },
    {
      "midi": 60,
      "hit": false,
      "t": 33300,
      "d": 297.5,
      "v": 1
    },
    {
      "midi": 64,
      "hit": false,
      "t": 33300,
      "d": 297.5,
      "v": 1
    },
    {
      "midi": 71,
      "hit": false,
      "t": 33600,
      "d": 316.25,
      "v": 99
    },
    {
      "midi": 62,
      "hit": false,
      "t": 33600,
      "d": 323.75,
      "v": 80
    },
    {
      "midi": 67,
      "hit": false,
      "t": 33600,
      "d": 325.625,
      "v": 98
    },
    {
      "midi": 59,
      "hit": false,
      "t": 33600,
      "d": 147.5,
      "v": 1
    },
    {
      "midi": 62,
      "hit": false,
      "t": 33600,
      "d": 147.5,
      "v": 1
    },
    {
      "midi": 74,
      "hit": false,
      "t": 33610.625,
      "d": 297.5,
      "v": 127
    },
    {
      "midi": 60,
      "hit": false,
      "t": 33750,
      "d": 297.5,
      "v": 1
    },
    {
      "midi": 64,
      "hit": false,
      "t": 33750,
      "d": 297.5,
      "v": 1
    },
    {
      "midi": 75,
      "hit": false,
      "t": 33895,
      "d": 61.25,
      "v": 81
    },
    {
      "midi": 76,
      "hit": false,
      "t": 33909.375,
      "d": 280,
      "v": 126
    },
    {
      "midi": 59,
      "hit": false,
      "t": 34050,
      "d": 747.5,
      "v": 1
    },
    {
      "midi": 62,
      "hit": false,
      "t": 34050,
      "d": 747.5,
      "v": 1
    },
    {
      "midi": 71,
      "hit": false,
      "t": 34200,
      "d": 294.375,
      "v": 110
    },
    {
      "midi": 67,
      "hit": false,
      "t": 34200,
      "d": 300.625,
      "v": 113
    },
    {
      "midi": 62,
      "hit": false,
      "t": 34200,
      "d": 308.125,
      "v": 98
    },
    {
      "midi": 74,
      "hit": false,
      "t": 34215.625,
      "d": 213.125,
      "v": 127
    },
    {
      "midi": 74,
      "hit": false,
      "t": 34800,
      "d": 47.5,
      "v": 112
    },
    {
      "midi": 79,
      "hit": false,
      "t": 34800,
      "d": 51.875,
      "v": 102
    },
    {
      "midi": 71,
      "hit": false,
      "t": 34800,
      "d": 63.125,
      "v": 106
    },
    {
      "midi": 55,
      "hit": false,
      "t": 34800,
      "d": 2997.5,
      "v": 1
    },
    {
      "midi": 59,
      "hit": false,
      "t": 34800,
      "d": 2997.5,
      "v": 1
    },
    {
      "midi": 62,
      "hit": false,
      "t": 34800,
      "d": 2997.5,
      "v": 1
    },
    {
      "midi": 79,
      "hit": false,
      "t": 34950,
      "d": 44.375,
      "v": 85
    },
    {
      "midi": 74,
      "hit": false,
      "t": 34950,
      "d": 51.875,
      "v": 93
    },
    {
      "midi": 71,
      "hit": false,
      "t": 34950,
      "d": 61.25,
      "v": 87
    },
    {
      "midi": 74,
      "hit": false,
      "t": 35100,
      "d": 51.875,
      "v": 88
    },
    {
      "midi": 79,
      "hit": false,
      "t": 35100,
      "d": 51.875,
      "v": 90
    },
    {
      "midi": 71,
      "hit": false,
      "t": 35100,
      "d": 64.375,
      "v": 87
    },
    {
      "midi": 79,
      "hit": false,
      "t": 35250,
      "d": 48.75,
      "v": 84
    },
    {
      "midi": 74,
      "hit": false,
      "t": 35250,
      "d": 51.875,
      "v": 81
    },
    {
      "midi": 71,
      "hit": false,
      "t": 35250,
      "d": 53.75,
      "v": 86
    },
    {
      "midi": 79,
      "hit": false,
      "t": 35400,
      "d": 42.5,
      "v": 96
    },
    {
      "midi": 74,
      "hit": false,
      "t": 35400,
      "d": 48.75,
      "v": 97
    },
    {
      "midi": 71,
      "hit": false,
      "t": 35400,
      "d": 55,
      "v": 96
    },
    {
      "midi": 79,
      "hit": false,
      "t": 35550,
      "d": 38.125,
      "v": 96
    },
    {
      "midi": 74,
      "hit": false,
      "t": 35550,
      "d": 45.625,
      "v": 96
    },
    {
      "midi": 71,
      "hit": false,
      "t": 35550,
      "d": 47.5,
      "v": 94
    },
    {
      "midi": 79,
      "hit": false,
      "t": 35700,
      "d": 42.5,
      "v": 103
    },
    {
      "midi": 71,
      "hit": false,
      "t": 35700,
      "d": 47.5,
      "v": 87
    },
    {
      "midi": 74,
      "hit": false,
      "t": 35700,
      "d": 47.5,
      "v": 93
    },
    {
      "midi": 79,
      "hit": false,
      "t": 35850,
      "d": 35,
      "v": 96
    },
    {
      "midi": 74,
      "hit": false,
      "t": 35850,
      "d": 38.125,
      "v": 93
    },
    {
      "midi": 71,
      "hit": false,
      "t": 35850,
      "d": 39.375,
      "v": 91
    },
    {
      "midi": 79,
      "hit": false,
      "t": 36000,
      "d": 41.25,
      "v": 99
    },
    {
      "midi": 74,
      "hit": false,
      "t": 36000,
      "d": 44.375,
      "v": 106
    },
    {
      "midi": 71,
      "hit": false,
      "t": 36000,
      "d": 47.5,
      "v": 109
    },
    {
      "midi": 79,
      "hit": false,
      "t": 36150,
      "d": 33.125,
      "v": 98
    },
    {
      "midi": 74,
      "hit": false,
      "t": 36150,
      "d": 36.25,
      "v": 91
    },
    {
      "midi": 71,
      "hit": false,
      "t": 36150,
      "d": 42.5,
      "v": 96
    },
    {
      "midi": 79,
      "hit": false,
      "t": 36300,
      "d": 33.125,
      "v": 103
    },
    {
      "midi": 74,
      "hit": false,
      "t": 36300,
      "d": 36.25,
      "v": 102
    },
    {
      "midi": 71,
      "hit": false,
      "t": 36300,
      "d": 42.5,
      "v": 97
    },
    {
      "midi": 79,
      "hit": false,
      "t": 36450,
      "d": 31.875,
      "v": 100
    },
    {
      "midi": 74,
      "hit": false,
      "t": 36450,
      "d": 38.125,
      "v": 97
    },
    {
      "midi": 71,
      "hit": false,
      "t": 36450,
      "d": 42.5,
      "v": 99
    },
    {
      "midi": 74,
      "hit": false,
      "t": 36600,
      "d": 33.125,
      "v": 94
    },
    {
      "midi": 79,
      "hit": false,
      "t": 36600,
      "d": 36.25,
      "v": 97
    },
    {
      "midi": 71,
      "hit": false,
      "t": 36600,
      "d": 44.375,
      "v": 105
    },
    {
      "midi": 79,
      "hit": false,
      "t": 36750,
      "d": 35,
      "v": 94
    },
    {
      "midi": 74,
      "hit": false,
      "t": 36750,
      "d": 41.25,
      "v": 101
    },
    {
      "midi": 71,
      "hit": false,
      "t": 36750,
      "d": 47.5,
      "v": 97
    },
    {
      "midi": 79,
      "hit": false,
      "t": 36900,
      "d": 33.125,
      "v": 99
    },
    {
      "midi": 74,
      "hit": false,
      "t": 36900,
      "d": 36.25,
      "v": 97
    },
    {
      "midi": 71,
      "hit": false,
      "t": 36900,
      "d": 42.5,
      "v": 94
    },
    {
      "midi": 74,
      "hit": false,
      "t": 37050,
      "d": 26.875,
      "v": 96
    },
    {
      "midi": 79,
      "hit": false,
      "t": 37050,
      "d": 30,
      "v": 97
    },
    {
      "midi": 71,
      "hit": false,
      "t": 37050,
      "d": 39.375,
      "v": 95
    },
    {
      "midi": 74,
      "hit": false,
      "t": 37200,
      "d": 33.125,
      "v": 100
    },
    {
      "midi": 79,
      "hit": false,
      "t": 37200,
      "d": 35,
      "v": 101
    },
    {
      "midi": 71,
      "hit": false,
      "t": 37200,
      "d": 45.625,
      "v": 100
    },
    {
      "midi": 79,
      "hit": false,
      "t": 37350,
      "d": 35,
      "v": 102
    },
    {
      "midi": 74,
      "hit": false,
      "t": 37350,
      "d": 39.375,
      "v": 96
    },
    {
      "midi": 71,
      "hit": false,
      "t": 37350,
      "d": 42.5,
      "v": 101
    },
    {
      "midi": 74,
      "hit": false,
      "t": 37500,
      "d": 38.125,
      "v": 93
    },
    {
      "midi": 79,
      "hit": false,
      "t": 37500,
      "d": 38.125,
      "v": 98
    },
    {
      "midi": 71,
      "hit": false,
      "t": 37500,
      "d": 42.5,
      "v": 95
    },
    {
      "midi": 79,
      "hit": false,
      "t": 37650,
      "d": 36.25,
      "v": 93
    },
    {
      "midi": 74,
      "hit": false,
      "t": 37650,
      "d": 38.125,
      "v": 91
    },
    {
      "midi": 71,
      "hit": false,
      "t": 37650,
      "d": 42.5,
      "v": 92
    },
    {
      "midi": 79,
      "hit": false,
      "t": 37800,
      "d": 36.25,
      "v": 107
    },
    {
      "midi": 74,
      "hit": false,
      "t": 37800,
      "d": 42.5,
      "v": 107
    },
    {
      "midi": 71,
      "hit": false,
      "t": 37800,
      "d": 45.625,
      "v": 102
    },
    {
      "midi": 55,
      "hit": false,
      "t": 37800,
      "d": 597.5,
      "v": 1
    },
    {
      "midi": 60,
      "hit": false,
      "t": 37800,
      "d": 597.5,
      "v": 1
    },
    {
      "midi": 64,
      "hit": false,
      "t": 37800,
      "d": 597.5,
      "v": 1
    },
    {
      "midi": 74,
      "hit": false,
      "t": 37950,
      "d": 35,
      "v": 95
    },
    {
      "midi": 79,
      "hit": false,
      "t": 37950,
      "d": 36.25,
      "v": 107
    },
    {
      "midi": 71,
      "hit": false,
      "t": 37950,
      "d": 45.625,
      "v": 96
    },
    {
      "midi": 79,
      "hit": false,
      "t": 38100,
      "d": 33.125,
      "v": 96
    },
    {
      "midi": 74,
      "hit": false,
      "t": 38100,
      "d": 36.25,
      "v": 97
    },
    {
      "midi": 71,
      "hit": false,
      "t": 38100,
      "d": 41.25,
      "v": 103
    },
    {
      "midi": 79,
      "hit": false,
      "t": 38250,
      "d": 30,
      "v": 90
    },
    {
      "midi": 74,
      "hit": false,
      "t": 38250,
      "d": 31.875,
      "v": 87
    },
    {
      "midi": 71,
      "hit": false,
      "t": 38250,
      "d": 38.125,
      "v": 88
    },
    {
      "midi": 77,
      "hit": false,
      "t": 38400,
      "d": 35,
      "v": 109
    },
    {
      "midi": 71,
      "hit": false,
      "t": 38400,
      "d": 44.375,
      "v": 112
    },
    {
      "midi": 74,
      "hit": false,
      "t": 38400,
      "d": 44.375,
      "v": 116
    },
    {
      "midi": 79,
      "hit": false,
      "t": 38400,
      "d": 51.875,
      "v": 113
    },
    {
      "midi": 55,
      "hit": false,
      "t": 38400,
      "d": 597.5,
      "v": 1
    },
    {
      "midi": 59,
      "hit": false,
      "t": 38400,
      "d": 597.5,
      "v": 1
    },
    {
      "midi": 62,
      "hit": false,
      "t": 38400,
      "d": 597.5,
      "v": 1
    },
    {
      "midi": 65,
      "hit": false,
      "t": 38400,
      "d": 597.5,
      "v": 1
    },
    {
      "midi": 79,
      "hit": false,
      "t": 38550,
      "d": 36.25,
      "v": 97
    },
    {
      "midi": 77,
      "hit": false,
      "t": 38550,
      "d": 38.125,
      "v": 102
    },
    {
      "midi": 74,
      "hit": false,
      "t": 38550,
      "d": 39.375,
      "v": 104
    },
    {
      "midi": 71,
      "hit": false,
      "t": 38550,
      "d": 44.375,
      "v": 96
    },
    {
      "midi": 79,
      "hit": false,
      "t": 38700,
      "d": 33.125,
      "v": 95
    },
    {
      "midi": 71,
      "hit": false,
      "t": 38700,
      "d": 41.25,
      "v": 101
    },
    {
      "midi": 74,
      "hit": false,
      "t": 38700,
      "d": 41.25,
      "v": 111
    },
    {
      "midi": 77,
      "hit": false,
      "t": 38700,
      "d": 42.5,
      "v": 107
    },
    {
      "midi": 79,
      "hit": false,
      "t": 38850,
      "d": 35,
      "v": 81
    },
    {
      "midi": 77,
      "hit": false,
      "t": 38850,
      "d": 39.375,
      "v": 94
    },
    {
      "midi": 71,
      "hit": false,
      "t": 38850,
      "d": 44.375,
      "v": 86
    },
    {
      "midi": 74,
      "hit": false,
      "t": 38850,
      "d": 44.375,
      "v": 98
    },
    {
      "midi": 77,
      "hit": false,
      "t": 39000,
      "d": 41.25,
      "v": 116
    },
    {
      "midi": 79,
      "hit": false,
      "t": 39000,
      "d": 42.5,
      "v": 100
    },
    {
      "midi": 74,
      "hit": false,
      "t": 39000,
      "d": 44.375,
      "v": 123
    },
    {
      "midi": 71,
      "hit": false,
      "t": 39000,
      "d": 48.75,
      "v": 113
    },
    {
      "midi": 55,
      "hit": false,
      "t": 39000,
      "d": 297.5,
      "v": 1
    },
    {
      "midi": 59,
      "hit": false,
      "t": 39000,
      "d": 297.5,
      "v": 1
    },
    {
      "midi": 62,
      "hit": false,
      "t": 39000,
      "d": 297.5,
      "v": 1
    },
    {
      "midi": 79,
      "hit": false,
      "t": 39150,
      "d": 28.75,
      "v": 95
    },
    {
      "midi": 77,
      "hit": false,
      "t": 39150,
      "d": 30,
      "v": 100
    },
    {
      "midi": 74,
      "hit": false,
      "t": 39150,
      "d": 35,
      "v": 109
    },
    {
      "midi": 71,
      "hit": false,
      "t": 39150,
      "d": 47.5,
      "v": 100
    },
    {
      "midi": 77,
      "hit": false,
      "t": 39300,
      "d": 17.5,
      "v": 78
    },
    {
      "midi": 79,
      "hit": false,
      "t": 39300,
      "d": 26.875,
      "v": 91
    },
    {
      "midi": 74,
      "hit": false,
      "t": 39300,
      "d": 35,
      "v": 106
    },
    {
      "midi": 71,
      "hit": false,
      "t": 39300,
      "d": 36.25,
      "v": 93
    },
    {
      "midi": 55,
      "hit": false,
      "t": 39300,
      "d": 297.5,
      "v": 1
    },
    {
      "midi": 59,
      "hit": false,
      "t": 39300,
      "d": 297.5,
      "v": 1
    },
    {
      "midi": 62,
      "hit": false,
      "t": 39300,
      "d": 297.5,
      "v": 1
    },
    {
      "midi": 65,
      "hit": false,
      "t": 39300,
      "d": 297.5,
      "v": 1
    },
    {
      "midi": 77,
      "hit": false,
      "t": 39450,
      "d": 20.625,
      "v": 78
    },
    {
      "midi": 74,
      "hit": false,
      "t": 39450,
      "d": 33.125,
      "v": 86
    },
    {
      "midi": 79,
      "hit": false,
      "t": 39450,
      "d": 33.125,
      "v": 92
    },
    {
      "midi": 71,
      "hit": false,
      "t": 39450,
      "d": 42.5,
      "v": 74
    },
    {
      "midi": 70,
      "hit": false,
      "t": 39600,
      "d": 36.25,
      "v": 75
    },
    {
      "midi": 76,
      "hit": false,
      "t": 39600,
      "d": 56.875,
      "v": 108
    },
    {
      "midi": 79,
      "hit": false,
      "t": 39600,
      "d": 91.25,
      "v": 102
    },
    {
      "midi": 55,
      "hit": false,
      "t": 39600,
      "d": 2397.5,
      "v": 1
    },
    {
      "midi": 58,
      "hit": false,
      "t": 39600,
      "d": 2397.5,
      "v": 1
    },
    {
      "midi": 60,
      "hit": false,
      "t": 39600,
      "d": 2397.5,
      "v": 1
    },
    {
      "midi": 64,
      "hit": false,
      "t": 39600,
      "d": 2397.5,
      "v": 1
    },
    {
      "midi": 70,
      "hit": false,
      "t": 39750,
      "d": 53.75,
      "v": 83
    },
    {
      "midi": 76,
      "hit": false,
      "t": 39750,
      "d": 58.125,
      "v": 117
    },
    {
      "midi": 79,
      "hit": false,
      "t": 39750,
      "d": 66.25,
      "v": 105
    },
    {
      "midi": 70,
      "hit": false,
      "t": 39900,
      "d": 50.625,
      "v": 83
    },
    {
      "midi": 76,
      "hit": false,
      "t": 39900,
      "d": 58.125,
      "v": 105
    },
    {
      "midi": 79,
      "hit": false,
      "t": 39900,
      "d": 66.25,
      "v": 104
    },
    {
      "midi": 70,
      "hit": false,
      "t": 40050,
      "d": 58.125,
      "v": 75
    },
    {
      "midi": 76,
      "hit": false,
      "t": 40050,
      "d": 58.125,
      "v": 106
    },
    {
      "midi": 79,
      "hit": false,
      "t": 40050,
      "d": 63.125,
      "v": 100
    },
    {
      "midi": 76,
      "hit": false,
      "t": 40200,
      "d": 51.875,
      "v": 121
    },
    {
      "midi": 70,
      "hit": false,
      "t": 40200,
      "d": 53.75,
      "v": 78
    },
    {
      "midi": 79,
      "hit": false,
      "t": 40200,
      "d": 63.125,
      "v": 107
    },
    {
      "midi": 70,
      "hit": false,
      "t": 40350,
      "d": 58.125,
      "v": 70
    },
    {
      "midi": 76,
      "hit": false,
      "t": 40350,
      "d": 61.25,
      "v": 110
    },
    {
      "midi": 79,
      "hit": false,
      "t": 40350,
      "d": 63.125,
      "v": 100
    },
    {
      "midi": 70,
      "hit": false,
      "t": 40500,
      "d": 55,
      "v": 78
    },
    {
      "midi": 76,
      "hit": false,
      "t": 40500,
      "d": 60,
      "v": 114
    },
    {
      "midi": 79,
      "hit": false,
      "t": 40500,
      "d": 64.375,
      "v": 110
    },
    {
      "midi": 70,
      "hit": false,
      "t": 40650,
      "d": 64.375,
      "v": 78
    },
    {
      "midi": 76,
      "hit": false,
      "t": 40650,
      "d": 64.375,
      "v": 116
    },
    {
      "midi": 79,
      "hit": false,
      "t": 40650,
      "d": 66.25,
      "v": 106
    },
    {
      "midi": 70,
      "hit": false,
      "t": 40800,
      "d": 66.25,
      "v": 73
    },
    {
      "midi": 76,
      "hit": false,
      "t": 40800,
      "d": 70.625,
      "v": 117
    },
    {
      "midi": 79,
      "hit": false,
      "t": 40800,
      "d": 70.625,
      "v": 107
    },
    {
      "midi": 70,
      "hit": false,
      "t": 40950,
      "d": 56.875,
      "v": 74
    },
    {
      "midi": 76,
      "hit": false,
      "t": 40950,
      "d": 60,
      "v": 109
    },
    {
      "midi": 79,
      "hit": false,
      "t": 40950,
      "d": 63.125,
      "v": 107
    },
    {
      "midi": 76,
      "hit": false,
      "t": 41100,
      "d": 63.125,
      "v": 107
    },
    {
      "midi": 79,
      "hit": false,
      "t": 41100,
      "d": 63.125,
      "v": 109
    },
    {
      "midi": 70,
      "hit": false,
      "t": 41100,
      "d": 64.375,
      "v": 74
    },
    {
      "midi": 76,
      "hit": false,
      "t": 41250,
      "d": 61.25,
      "v": 112
    },
    {
      "midi": 79,
      "hit": false,
      "t": 41250,
      "d": 61.25,
      "v": 104
    },
    {
      "midi": 70,
      "hit": false,
      "t": 41250,
      "d": 66.25,
      "v": 75
    },
    {
      "midi": 79,
      "hit": false,
      "t": 41400,
      "d": 55,
      "v": 99
    },
    {
      "midi": 70,
      "hit": false,
      "t": 41400,
      "d": 67.5,
      "v": 64
    },
    {
      "midi": 76,
      "hit": false,
      "t": 41400,
      "d": 67.5,
      "v": 112
    },
    {
      "midi": 79,
      "hit": false,
      "t": 41550,
      "d": 58.125,
      "v": 91
    },
    {
      "midi": 76,
      "hit": false,
      "t": 41550,
      "d": 60,
      "v": 110
    },
    {
      "midi": 70,
      "hit": false,
      "t": 41550,
      "d": 63.125,
      "v": 74
    },
    {
      "midi": 70,
      "hit": false,
      "t": 41700,
      "d": 60,
      "v": 68
    },
    {
      "midi": 76,
      "hit": false,
      "t": 41700,
      "d": 60,
      "v": 109
    },
    {
      "midi": 79,
      "hit": false,
      "t": 41700,
      "d": 60,
      "v": 101
    },
    {
      "midi": 76,
      "hit": false,
      "t": 41850,
      "d": 42.5,
      "v": 107
    },
    {
      "midi": 79,
      "hit": false,
      "t": 41850,
      "d": 47.5,
      "v": 93
    },
    {
      "midi": 70,
      "hit": false,
      "t": 41850,
      "d": 56.875,
      "v": 74
    },
    {
      "midi": 79,
      "hit": false,
      "t": 42000,
      "d": 56.875,
      "v": 105
    },
    {
      "midi": 74,
      "hit": false,
      "t": 42000,
      "d": 63.125,
      "v": 116
    },
    {
      "midi": 71,
      "hit": false,
      "t": 42000,
      "d": 80,
      "v": 102
    },
    {
      "midi": 55,
      "hit": false,
      "t": 42000,
      "d": 2397.5,
      "v": 1
    },
    {
      "midi": 59,
      "hit": false,
      "t": 42000,
      "d": 2397.5,
      "v": 1
    },
    {
      "midi": 62,
      "hit": false,
      "t": 42000,
      "d": 2397.5,
      "v": 1
    },
    {
      "midi": 79,
      "hit": false,
      "t": 42150,
      "d": 60,
      "v": 82
    },
    {
      "midi": 71,
      "hit": false,
      "t": 42150,
      "d": 64.375,
      "v": 83
    },
    {
      "midi": 74,
      "hit": false,
      "t": 42150,
      "d": 69.375,
      "v": 87
    },
    {
      "midi": 71,
      "hit": false,
      "t": 42300,
      "d": 70.625,
      "v": 74
    },
    {
      "midi": 79,
      "hit": false,
      "t": 42300,
      "d": 70.625,
      "v": 85
    },
    {
      "midi": 74,
      "hit": false,
      "t": 42300,
      "d": 72.5,
      "v": 74
    },
    {
      "midi": 79,
      "hit": false,
      "t": 42450,
      "d": 55,
      "v": 79
    },
    {
      "midi": 71,
      "hit": false,
      "t": 42450,
      "d": 60,
      "v": 85
    },
    {
      "midi": 74,
      "hit": false,
      "t": 42450,
      "d": 61.25,
      "v": 83
    },
    {
      "midi": 79,
      "hit": false,
      "t": 42600,
      "d": 64.375,
      "v": 90
    },
    {
      "midi": 71,
      "hit": false,
      "t": 42600,
      "d": 67.5,
      "v": 80
    },
    {
      "midi": 74,
      "hit": false,
      "t": 42600,
      "d": 69.375,
      "v": 89
    },
    {
      "midi": 74,
      "hit": false,
      "t": 42750,
      "d": 63.125,
      "v": 87
    },
    {
      "midi": 71,
      "hit": false,
      "t": 42750,
      "d": 64.375,
      "v": 86
    },
    {
      "midi": 79,
      "hit": false,
      "t": 42750,
      "d": 67.5,
      "v": 89
    },
    {
      "midi": 74,
      "hit": false,
      "t": 42900,
      "d": 64.375,
      "v": 90
    },
    {
      "midi": 71,
      "hit": false,
      "t": 42900,
      "d": 69.375,
      "v": 88
    },
    {
      "midi": 79,
      "hit": false,
      "t": 42900,
      "d": 69.375,
      "v": 84
    },
    {
      "midi": 74,
      "hit": false,
      "t": 43050,
      "d": 63.125,
      "v": 84
    },
    {
      "midi": 71,
      "hit": false,
      "t": 43050,
      "d": 70.625,
      "v": 84
    },
    {
      "midi": 79,
      "hit": false,
      "t": 43050,
      "d": 70.625,
      "v": 82
    },
    {
      "midi": 74,
      "hit": false,
      "t": 43200,
      "d": 72.5,
      "v": 91
    },
    {
      "midi": 79,
      "hit": false,
      "t": 43200,
      "d": 76.875,
      "v": 94
    },
    {
      "midi": 71,
      "hit": false,
      "t": 43200,
      "d": 78.75,
      "v": 90
    },
    {
      "midi": 74,
      "hit": false,
      "t": 43350,
      "d": 67.5,
      "v": 88
    },
    {
      "midi": 79,
      "hit": false,
      "t": 43350,
      "d": 67.5,
      "v": 66
    },
    {
      "midi": 71,
      "hit": false,
      "t": 43350,
      "d": 75.625,
      "v": 79
    },
    {
      "midi": 71,
      "hit": false,
      "t": 43500,
      "d": 58.125,
      "v": 89
    },
    {
      "midi": 74,
      "hit": false,
      "t": 43500,
      "d": 58.125,
      "v": 94
    },
    {
      "midi": 79,
      "hit": false,
      "t": 43500,
      "d": 61.25,
      "v": 85
    },
    {
      "midi": 74,
      "hit": false,
      "t": 43650,
      "d": 60,
      "v": 82
    },
    {
      "midi": 71,
      "hit": false,
      "t": 43650,
      "d": 66.25,
      "v": 79
    },
    {
      "midi": 79,
      "hit": false,
      "t": 43650,
      "d": 69.375,
      "v": 89
    },
    {
      "midi": 74,
      "hit": false,
      "t": 43800,
      "d": 56.875,
      "v": 87
    },
    {
      "midi": 79,
      "hit": false,
      "t": 43800,
      "d": 63.125,
      "v": 94
    },
    {
      "midi": 71,
      "hit": false,
      "t": 43800,
      "d": 70.625,
      "v": 85
    },
    {
      "midi": 74,
      "hit": false,
      "t": 43950,
      "d": 63.125,
      "v": 85
    },
    {
      "midi": 79,
      "hit": false,
      "t": 43950,
      "d": 66.25,
      "v": 94
    },
    {
      "midi": 71,
      "hit": false,
      "t": 43950,
      "d": 73.75,
      "v": 83
    },
    {
      "midi": 74,
      "hit": false,
      "t": 44100,
      "d": 55,
      "v": 95
    },
    {
      "midi": 79,
      "hit": false,
      "t": 44100,
      "d": 61.25,
      "v": 100
    },
    {
      "midi": 71,
      "hit": false,
      "t": 44100,
      "d": 66.25,
      "v": 91
    },
    {
      "midi": 74,
      "hit": false,
      "t": 44250,
      "d": 60,
      "v": 82
    },
    {
      "midi": 71,
      "hit": false,
      "t": 44250,
      "d": 64.375,
      "v": 81
    },
    {
      "midi": 79,
      "hit": false,
      "t": 44250,
      "d": 67.5,
      "v": 82
    },
    {
      "midi": 78,
      "hit": false,
      "t": 44400,
      "d": 51.875,
      "v": 93
    },
    {
      "midi": 74,
      "hit": false,
      "t": 44400,
      "d": 60,
      "v": 115
    },
    {
      "midi": 81,
      "hit": false,
      "t": 44400,
      "d": 66.25,
      "v": 118
    },
    {
      "midi": 72,
      "hit": false,
      "t": 44400,
      "d": 67.5,
      "v": 103
    },
    {
      "midi": 66,
      "hit": false,
      "t": 44400,
      "d": 903.75,
      "v": 1
    },
    {
      "midi": 57,
      "hit": false,
      "t": 44400,
      "d": 913.125,
      "v": 1
    },
    {
      "midi": 62,
      "hit": false,
      "t": 44400,
      "d": 913.125,
      "v": 1
    },
    {
      "midi": 78,
      "hit": false,
      "t": 44550,
      "d": 45.625,
      "v": 65
    },
    {
      "midi": 72,
      "hit": false,
      "t": 44550,
      "d": 55,
      "v": 76
    },
    {
      "midi": 74,
      "hit": false,
      "t": 44550,
      "d": 55,
      "v": 93
    },
    {
      "midi": 81,
      "hit": false,
      "t": 44550,
      "d": 58.125,
      "v": 89
    },
    {
      "midi": 78,
      "hit": false,
      "t": 44700,
      "d": 31.875,
      "v": 63
    },
    {
      "midi": 81,
      "hit": false,
      "t": 44700,
      "d": 47.5,
      "v": 76
    },
    {
      "midi": 72,
      "hit": false,
      "t": 44700,
      "d": 51.875,
      "v": 83
    },
    {
      "midi": 74,
      "hit": false,
      "t": 44700,
      "d": 56.875,
      "v": 89
    },
    {
      "midi": 78,
      "hit": false,
      "t": 44850,
      "d": 47.5,
      "v": 72
    },
    {
      "midi": 81,
      "hit": false,
      "t": 44850,
      "d": 51.875,
      "v": 59
    },
    {
      "midi": 72,
      "hit": false,
      "t": 44850,
      "d": 63.125,
      "v": 64
    },
    {
      "midi": 74,
      "hit": false,
      "t": 44850,
      "d": 63.125,
      "v": 82
    },
    {
      "midi": 78,
      "hit": false,
      "t": 45000,
      "d": 48.75,
      "v": 83
    },
    {
      "midi": 72,
      "hit": false,
      "t": 45000,
      "d": 55,
      "v": 84
    },
    {
      "midi": 81,
      "hit": false,
      "t": 45000,
      "d": 58.125,
      "v": 86
    },
    {
      "midi": 74,
      "hit": false,
      "t": 45000,
      "d": 64.375,
      "v": 97
    },
    {
      "midi": 81,
      "hit": false,
      "t": 45150,
      "d": 38.125,
      "v": 58
    },
    {
      "midi": 78,
      "hit": false,
      "t": 45150,
      "d": 41.25,
      "v": 65
    },
    {
      "midi": 72,
      "hit": false,
      "t": 45150,
      "d": 63.125,
      "v": 79
    },
    {
      "midi": 74,
      "hit": false,
      "t": 45150,
      "d": 66.25,
      "v": 91
    },
    {
      "midi": 72,
      "hit": false,
      "t": 45300,
      "d": 60,
      "v": 69
    },
    {
      "midi": 78,
      "hit": false,
      "t": 45300,
      "d": 64.375,
      "v": 59
    },
    {
      "midi": 81,
      "hit": false,
      "t": 45300,
      "d": 64.375,
      "v": 61
    },
    {
      "midi": 74,
      "hit": false,
      "t": 45300,
      "d": 69.375,
      "v": 83
    },
    {
      "midi": 56,
      "hit": false,
      "t": 45300,
      "d": 297.5,
      "v": 1
    },
    {
      "midi": 61,
      "hit": false,
      "t": 45300,
      "d": 297.5,
      "v": 1
    },
    {
      "midi": 65,
      "hit": false,
      "t": 45300,
      "d": 297.5,
      "v": 1
    },
    {
      "midi": 72,
      "hit": false,
      "t": 45450,
      "d": 55,
      "v": 61
    },
    {
      "midi": 78,
      "hit": false,
      "t": 45450,
      "d": 61.25,
      "v": 62
    },
    {
      "midi": 81,
      "hit": false,
      "t": 45450,
      "d": 61.25,
      "v": 60
    },
    {
      "midi": 74,
      "hit": false,
      "t": 45450,
      "d": 76.875,
      "v": 89
    },
    {
      "midi": 79,
      "hit": false,
      "t": 45600,
      "d": 81.875,
      "v": 103
    },
    {
      "midi": 70,
      "hit": false,
      "t": 45600,
      "d": 83.125,
      "v": 92
    },
    {
      "midi": 76,
      "hit": false,
      "t": 45600,
      "d": 89.375,
      "v": 107
    },
    {
      "midi": 55,
      "hit": false,
      "t": 45600,
      "d": 1197.5,
      "v": 1
    },
    {
      "midi": 60,
      "hit": false,
      "t": 45600,
      "d": 1197.5,
      "v": 1
    },
    {
      "midi": 64,
      "hit": false,
      "t": 45600,
      "d": 1197.5,
      "v": 1
    },
    {
      "midi": 70,
      "hit": false,
      "t": 45750,
      "d": 80,
      "v": 77
    },
    {
      "midi": 76,
      "hit": false,
      "t": 45750,
      "d": 85,
      "v": 111
    },
    {
      "midi": 79,
      "hit": false,
      "t": 45750,
      "d": 85,
      "v": 78
    },
    {
      "midi": 79,
      "hit": false,
      "t": 45900,
      "d": 66.25,
      "v": 88
    },
    {
      "midi": 70,
      "hit": false,
      "t": 45900,
      "d": 70.625,
      "v": 79
    },
    {
      "midi": 76,
      "hit": false,
      "t": 45900,
      "d": 70.625,
      "v": 113
    },
    {
      "midi": 79,
      "hit": false,
      "t": 46050,
      "d": 72.5,
      "v": 97
    },
    {
      "midi": 76,
      "hit": false,
      "t": 46050,
      "d": 78.75,
      "v": 110
    },
    {
      "midi": 70,
      "hit": false,
      "t": 46050,
      "d": 80,
      "v": 75
    },
    {
      "midi": 79,
      "hit": false,
      "t": 46200,
      "d": 64.375,
      "v": 99
    },
    {
      "midi": 76,
      "hit": false,
      "t": 46200,
      "d": 66.25,
      "v": 113
    },
    {
      "midi": 70,
      "hit": false,
      "t": 46200,
      "d": 70.625,
      "v": 76
    },
    {
      "midi": 70,
      "hit": false,
      "t": 46350,
      "d": 60,
      "v": 71
    },
    {
      "midi": 79,
      "hit": false,
      "t": 46350,
      "d": 60,
      "v": 98
    },
    {
      "midi": 76,
      "hit": false,
      "t": 46350,
      "d": 63.125,
      "v": 110
    },
    {
      "midi": 79,
      "hit": false,
      "t": 46500,
      "d": 51.875,
      "v": 84
    },
    {
      "midi": 76,
      "hit": false,
      "t": 46500,
      "d": 53.75,
      "v": 103
    },
    {
      "midi": 70,
      "hit": false,
      "t": 46500,
      "d": 56.875,
      "v": 68
    },
    {
      "midi": 76,
      "hit": false,
      "t": 46650,
      "d": 60,
      "v": 97
    },
    {
      "midi": 79,
      "hit": false,
      "t": 46650,
      "d": 60,
      "v": 78
    },
    {
      "midi": 70,
      "hit": false,
      "t": 46650,
      "d": 67.5,
      "v": 65
    },
    {
      "midi": 79,
      "hit": false,
      "t": 46800,
      "d": 67.5,
      "v": 93
    },
    {
      "midi": 74,
      "hit": false,
      "t": 46800,
      "d": 72.5,
      "v": 98
    },
    {
      "midi": 71,
      "hit": false,
      "t": 46800,
      "d": 73.75,
      "v": 94
    },
    {
      "midi": 55,
      "hit": false,
      "t": 46800,
      "d": 2397.5,
      "v": 1
    },
    {
      "midi": 59,
      "hit": false,
      "t": 46800,
      "d": 2397.5,
      "v": 1
    },
    {
      "midi": 62,
      "hit": false,
      "t": 46800,
      "d": 2397.5,
      "v": 1
    },
    {
      "midi": 79,
      "hit": false,
      "t": 46950,
      "d": 66.25,
      "v": 73
    },
    {
      "midi": 74,
      "hit": false,
      "t": 46950,
      "d": 72.5,
      "v": 84
    },
    {
      "midi": 71,
      "hit": false,
      "t": 46950,
      "d": 78.75,
      "v": 67
    },
    {
      "midi": 79,
      "hit": false,
      "t": 47100,
      "d": 69.375,
      "v": 78
    },
    {
      "midi": 71,
      "hit": false,
      "t": 47100,
      "d": 72.5,
      "v": 68
    },
    {
      "midi": 74,
      "hit": false,
      "t": 47100,
      "d": 72.5,
      "v": 86
    },
    {
      "midi": 79,
      "hit": false,
      "t": 47250,
      "d": 55,
      "v": 83
    },
    {
      "midi": 74,
      "hit": false,
      "t": 47250,
      "d": 63.125,
      "v": 88
    },
    {
      "midi": 71,
      "hit": false,
      "t": 47250,
      "d": 67.5,
      "v": 78
    },
    {
      "midi": 79,
      "hit": false,
      "t": 47400,
      "d": 61.25,
      "v": 75
    },
    {
      "midi": 74,
      "hit": false,
      "t": 47400,
      "d": 67.5,
      "v": 80
    },
    {
      "midi": 71,
      "hit": false,
      "t": 47400,
      "d": 72.5,
      "v": 70
    },
    {
      "midi": 79,
      "hit": false,
      "t": 47550,
      "d": 63.125,
      "v": 76
    },
    {
      "midi": 71,
      "hit": false,
      "t": 47550,
      "d": 66.25,
      "v": 68
    },
    {
      "midi": 74,
      "hit": false,
      "t": 47550,
      "d": 66.25,
      "v": 76
    },
    {
      "midi": 79,
      "hit": false,
      "t": 47700,
      "d": 56.875,
      "v": 70
    },
    {
      "midi": 74,
      "hit": false,
      "t": 47700,
      "d": 58.125,
      "v": 81
    },
    {
      "midi": 71,
      "hit": false,
      "t": 47700,
      "d": 64.375,
      "v": 62
    },
    {
      "midi": 71,
      "hit": false,
      "t": 47850,
      "d": 60,
      "v": 59
    },
    {
      "midi": 79,
      "hit": false,
      "t": 47850,
      "d": 60,
      "v": 58
    },
    {
      "midi": 74,
      "hit": false,
      "t": 47850,
      "d": 66.25,
      "v": 69
    },
    {
      "midi": 71,
      "hit": false,
      "t": 48000,
      "d": 69.375,
      "v": 66
    },
    {
      "midi": 79,
      "hit": false,
      "t": 48000,
      "d": 72.5,
      "v": 71
    },
    {
      "midi": 74,
      "hit": false,
      "t": 48000,
      "d": 73.75,
      "v": 81
    },
    {
      "midi": 79,
      "hit": false,
      "t": 48150,
      "d": 55,
      "v": 68
    },
    {
      "midi": 71,
      "hit": false,
      "t": 48150,
      "d": 64.375,
      "v": 58
    },
    {
      "midi": 74,
      "hit": false,
      "t": 48150,
      "d": 64.375,
      "v": 64
    },
    {
      "midi": 79,
      "hit": false,
      "t": 48300,
      "d": 47.5,
      "v": 66
    },
    {
      "midi": 74,
      "hit": false,
      "t": 48300,
      "d": 55,
      "v": 70
    },
    {
      "midi": 71,
      "hit": false,
      "t": 48300,
      "d": 56.875,
      "v": 61
    },
    {
      "midi": 74,
      "hit": false,
      "t": 48450,
      "d": 48.75,
      "v": 78
    },
    {
      "midi": 71,
      "hit": false,
      "t": 48450,
      "d": 56.875,
      "v": 57
    },
    {
      "midi": 79,
      "hit": false,
      "t": 48450,
      "d": 58.125,
      "v": 64
    },
    {
      "midi": 98,
      "hit": false,
      "t": 48610.625,
      "d": 25.625,
      "v": 122
    },
    {
      "midi": 96,
      "hit": false,
      "t": 48616.875,
      "d": 25.625,
      "v": 115
    },
    {
      "midi": 95,
      "hit": false,
      "t": 48635.625,
      "d": 22.5,
      "v": 117
    },
    {
      "midi": 93,
      "hit": false,
      "t": 48656.25,
      "d": 19.375,
      "v": 115
    },
    {
      "midi": 91,
      "hit": false,
      "t": 48675,
      "d": 17.5,
      "v": 110
    },
    {
      "midi": 89,
      "hit": false,
      "t": 48691.875,
      "d": 16.25,
      "v": 114
    },
    {
      "midi": 88,
      "hit": false,
      "t": 48707.5,
      "d": 16.25,
      "v": 109
    },
    {
      "midi": 86,
      "hit": false,
      "t": 48723.125,
      "d": 14.375,
      "v": 104
    },
    {
      "midi": 84,
      "hit": false,
      "t": 48737.5,
      "d": 16.25,
      "v": 103
    },
    {
      "midi": 83,
      "hit": false,
      "t": 48751.25,
      "d": 16.25,
      "v": 107
    },
    {
      "midi": 81,
      "hit": false,
      "t": 48765.625,
      "d": 16.25,
      "v": 99
    },
    {
      "midi": 79,
      "hit": false,
      "t": 48782.5,
      "d": 14.375,
      "v": 99
    },
    {
      "midi": 77,
      "hit": false,
      "t": 48798.125,
      "d": 13.125,
      "v": 96
    },
    {
      "midi": 76,
      "hit": false,
      "t": 48812.5,
      "d": 16.25,
      "v": 92
    },
    {
      "midi": 74,
      "hit": false,
      "t": 48829.375,
      "d": 17.5,
      "v": 92
    },
    {
      "midi": 72,
      "hit": false,
      "t": 48848.125,
      "d": 16.25,
      "v": 90
    },
    {
      "midi": 71,
      "hit": false,
      "t": 48866.875,
      "d": 16.25,
      "v": 91
    },
    {
      "midi": 69,
      "hit": false,
      "t": 48891.875,
      "d": 11.25,
      "v": 84
    },
    {
      "midi": 72,
      "hit": false,
      "t": 49200,
      "d": 91.25,
      "v": 54
    },
    {
      "midi": 78,
      "hit": false,
      "t": 49200,
      "d": 120.625,
      "v": 107
    },
    {
      "midi": 74,
      "hit": false,
      "t": 49200,
      "d": 125.625,
      "v": 127
    },
    {
      "midi": 81,
      "hit": false,
      "t": 49200,
      "d": 136.25,
      "v": 127
    },
    {
      "midi": 62,
      "hit": false,
      "t": 49200,
      "d": 1197.5,
      "v": 1
    },
    {
      "midi": 66,
      "hit": false,
      "t": 49200,
      "d": 1197.5,
      "v": 1
    },
    {
      "midi": 74,
      "hit": false,
      "t": 49400,
      "d": 130,
      "v": 99
    },
    {
      "midi": 78,
      "hit": false,
      "t": 49400,
      "d": 130,
      "v": 97
    },
    {
      "midi": 81,
      "hit": false,
      "t": 49400,
      "d": 141.25,
      "v": 99
    },
    {
      "midi": 74,
      "hit": false,
      "t": 49700,
      "d": 173.75,
      "v": 127
    },
    {
      "midi": 81,
      "hit": false,
      "t": 49700,
      "d": 192.5,
      "v": 127
    },
    {
      "midi": 78,
      "hit": false,
      "t": 49700,
      "d": 213.125,
      "v": 127
    },
    {
      "midi": 72,
      "hit": false,
      "t": 50000,
      "d": 58.125,
      "v": 107
    },
    {
      "midi": 81,
      "hit": false,
      "t": 50100,
      "d": 156.875,
      "v": 127
    },
    {
      "midi": 78,
      "hit": false,
      "t": 50100,
      "d": 161.25,
      "v": 127
    },
    {
      "midi": 74,
      "hit": false,
      "t": 50100,
      "d": 172.5,
      "v": 127
    },
    {
      "midi": 72,
      "hit": false,
      "t": 50300,
      "d": 39.375,
      "v": 104
    },
    {
      "midi": 70,
      "hit": false,
      "t": 50400,
      "d": 116.25,
      "v": 103
    },
    {
      "midi": 76,
      "hit": false,
      "t": 50400,
      "d": 119.375,
      "v": 120
    },
    {
      "midi": 74,
      "hit": false,
      "t": 50400,
      "d": 123.75,
      "v": 107
    },
    {
      "midi": 79,
      "hit": false,
      "t": 50400,
      "d": 131.875,
      "v": 94
    },
    {
      "midi": 60,
      "hit": false,
      "t": 50400,
      "d": 1197.5,
      "v": 1
    },
    {
      "midi": 64,
      "hit": false,
      "t": 50400,
      "d": 1197.5,
      "v": 1
    },
    {
      "midi": 76,
      "hit": false,
      "t": 50600,
      "d": 128.75,
      "v": 121
    },
    {
      "midi": 74,
      "hit": false,
      "t": 50600,
      "d": 131.875,
      "v": 121
    },
    {
      "midi": 70,
      "hit": false,
      "t": 50600,
      "d": 133.125,
      "v": 84
    },
    {
      "midi": 79,
      "hit": false,
      "t": 50600,
      "d": 135,
      "v": 105
    },
    {
      "midi": 70,
      "hit": false,
      "t": 50900,
      "d": 75.625,
      "v": 80
    },
    {
      "midi": 74,
      "hit": false,
      "t": 50900,
      "d": 97.5,
      "v": 120
    },
    {
      "midi": 79,
      "hit": false,
      "t": 50900,
      "d": 106.875,
      "v": 109
    },
    {
      "midi": 76,
      "hit": false,
      "t": 50900,
      "d": 117.5,
      "v": 118
    },
    {
      "midi": 74,
      "hit": false,
      "t": 51200,
      "d": 63.125,
      "v": 121
    },
    {
      "midi": 75,
      "hit": false,
      "t": 51300,
      "d": 41.25,
      "v": 99
    },
    {
      "midi": 76,
      "hit": false,
      "t": 51300,
      "d": 167.5,
      "v": 114
    },
    {
      "midi": 79,
      "hit": false,
      "t": 51500,
      "d": 63.125,
      "v": 108
    },
    {
      "midi": 79,
      "hit": false,
      "t": 51600,
      "d": 78.75,
      "v": 95
    },
    {
      "midi": 74,
      "hit": false,
      "t": 51600,
      "d": 85,
      "v": 97
    },
    {
      "midi": 71,
      "hit": false,
      "t": 51600,
      "d": 95.625,
      "v": 99
    },
    {
      "midi": 59,
      "hit": false,
      "t": 51600,
      "d": 297.5,
      "v": 1
    },
    {
      "midi": 62,
      "hit": false,
      "t": 51600,
      "d": 297.5,
      "v": 1
    },
    {
      "midi": 79,
      "hit": false,
      "t": 51750,
      "d": 64.375,
      "v": 81
    },
    {
      "midi": 71,
      "hit": false,
      "t": 51750,
      "d": 70.625,
      "v": 83
    },
    {
      "midi": 74,
      "hit": false,
      "t": 51750,
      "d": 70.625,
      "v": 78
    },
    {
      "midi": 74,
      "hit": false,
      "t": 51900,
      "d": 48.75,
      "v": 96
    },
    {
      "midi": 71,
      "hit": false,
      "t": 51900,
      "d": 55,
      "v": 101
    },
    {
      "midi": 79,
      "hit": false,
      "t": 51900,
      "d": 55,
      "v": 97
    },
    {
      "midi": 60,
      "hit": false,
      "t": 51900,
      "d": 297.5,
      "v": 1
    },
    {
      "midi": 64,
      "hit": false,
      "t": 51900,
      "d": 297.5,
      "v": 1
    },
    {
      "midi": 74,
      "hit": false,
      "t": 52050,
      "d": 44.375,
      "v": 88
    },
    {
      "midi": 79,
      "hit": false,
      "t": 52050,
      "d": 45.625,
      "v": 86
    },
    {
      "midi": 71,
      "hit": false,
      "t": 52050,
      "d": 51.875,
      "v": 82
    },
    {
      "midi": 74,
      "hit": false,
      "t": 52200,
      "d": 42.5,
      "v": 99
    },
    {
      "midi": 79,
      "hit": false,
      "t": 52200,
      "d": 42.5,
      "v": 96
    },
    {
      "midi": 71,
      "hit": false,
      "t": 52200,
      "d": 45.625,
      "v": 97
    },
    {
      "midi": 59,
      "hit": false,
      "t": 52200,
      "d": 297.5,
      "v": 1
    },
    {
      "midi": 62,
      "hit": false,
      "t": 52200,
      "d": 297.5,
      "v": 1
    },
    {
      "midi": 74,
      "hit": false,
      "t": 52350,
      "d": 35,
      "v": 77
    },
    {
      "midi": 79,
      "hit": false,
      "t": 52350,
      "d": 36.25,
      "v": 77
    },
    {
      "midi": 71,
      "hit": false,
      "t": 52350,
      "d": 42.5,
      "v": 83
    },
    {
      "midi": 74,
      "hit": false,
      "t": 52500,
      "d": 30,
      "v": 98
    },
    {
      "midi": 79,
      "hit": false,
      "t": 52500,
      "d": 35,
      "v": 97
    },
    {
      "midi": 71,
      "hit": false,
      "t": 52500,
      "d": 41.25,
      "v": 96
    },
    {
      "midi": 60,
      "hit": false,
      "t": 52500,
      "d": 297.5,
      "v": 1
    },
    {
      "midi": 64,
      "hit": false,
      "t": 52500,
      "d": 297.5,
      "v": 1
    },
    {
      "midi": 74,
      "hit": false,
      "t": 52650,
      "d": 30,
      "v": 83
    },
    {
      "midi": 79,
      "hit": false,
      "t": 52650,
      "d": 31.875,
      "v": 85
    },
    {
      "midi": 71,
      "hit": false,
      "t": 52650,
      "d": 38.125,
      "v": 83
    },
    {
      "midi": 74,
      "hit": false,
      "t": 52800,
      "d": 28.75,
      "v": 97
    },
    {
      "midi": 79,
      "hit": false,
      "t": 52800,
      "d": 31.875,
      "v": 94
    },
    {
      "midi": 71,
      "hit": false,
      "t": 52800,
      "d": 38.125,
      "v": 96
    },
    {
      "midi": 59,
      "hit": false,
      "t": 52800,
      "d": 147.5,
      "v": 1
    },
    {
      "midi": 62,
      "hit": false,
      "t": 52800,
      "d": 147.5,
      "v": 1
    },
    {
      "midi": 74,
      "hit": false,
      "t": 52950,
      "d": 26.875,
      "v": 89
    },
    {
      "midi": 79,
      "hit": false,
      "t": 52950,
      "d": 33.125,
      "v": 86
    },
    {
      "midi": 71,
      "hit": false,
      "t": 52950,
      "d": 35,
      "v": 88
    },
    {
      "midi": 60,
      "hit": false,
      "t": 52950,
      "d": 297.5,
      "v": 1
    },
    {
      "midi": 64,
      "hit": false,
      "t": 52950,
      "d": 297.5,
      "v": 1
    },
    {
      "midi": 74,
      "hit": false,
      "t": 53100,
      "d": 26.875,
      "v": 94
    },
    {
      "midi": 71,
      "hit": false,
      "t": 53100,
      "d": 30,
      "v": 95
    },
    {
      "midi": 79,
      "hit": false,
      "t": 53100,
      "d": 31.875,
      "v": 94
    },
    {
      "midi": 74,
      "hit": false,
      "t": 53250,
      "d": 26.875,
      "v": 97
    },
    {
      "midi": 79,
      "hit": false,
      "t": 53250,
      "d": 28.75,
      "v": 92
    },
    {
      "midi": 71,
      "hit": false,
      "t": 53250,
      "d": 31.875,
      "v": 90
    },
    {
      "midi": 59,
      "hit": false,
      "t": 53250,
      "d": 747.5,
      "v": 1
    },
    {
      "midi": 62,
      "hit": false,
      "t": 53250,
      "d": 747.5,
      "v": 1
    },
    {
      "midi": 71,
      "hit": false,
      "t": 53400,
      "d": 30,
      "v": 100
    },
    {
      "midi": 74,
      "hit": false,
      "t": 53400,
      "d": 31.875,
      "v": 99
    },
    {
      "midi": 79,
      "hit": false,
      "t": 53400,
      "d": 33.125,
      "v": 96
    },
    {
      "midi": 74,
      "hit": false,
      "t": 54000,
      "d": 45.625,
      "v": 96
    },
    {
      "midi": 71,
      "hit": false,
      "t": 54000,
      "d": 53.75,
      "v": 91
    },
    {
      "midi": 79,
      "hit": false,
      "t": 54000,
      "d": 58.125,
      "v": 95
    },
    {
      "midi": 55,
      "hit": false,
      "t": 54000,
      "d": 3297.5,
      "v": 1
    },
    {
      "midi": 59,
      "hit": false,
      "t": 54000,
      "d": 3297.5,
      "v": 1
    },
    {
      "midi": 62,
      "hit": false,
      "t": 54000,
      "d": 3297.5,
      "v": 1
    },
    {
      "midi": 74,
      "hit": false,
      "t": 54150,
      "d": 47.5,
      "v": 96
    },
    {
      "midi": 79,
      "hit": false,
      "t": 54150,
      "d": 47.5,
      "v": 94
    },
    {
      "midi": 71,
      "hit": false,
      "t": 54150,
      "d": 53.75,
      "v": 90
    },
    {
      "midi": 79,
      "hit": false,
      "t": 54300,
      "d": 51.875,
      "v": 96
    },
    {
      "midi": 71,
      "hit": false,
      "t": 54300,
      "d": 53.75,
      "v": 90
    },
    {
      "midi": 74,
      "hit": false,
      "t": 54300,
      "d": 53.75,
      "v": 90
    },
    {
      "midi": 79,
      "hit": false,
      "t": 54450,
      "d": 38.125,
      "v": 89
    },
    {
      "midi": 71,
      "hit": false,
      "t": 54450,
      "d": 45.625,
      "v": 93
    },
    {
      "midi": 74,
      "hit": false,
      "t": 54450,
      "d": 47.5,
      "v": 92
    },
    {
      "midi": 79,
      "hit": false,
      "t": 54600,
      "d": 41.25,
      "v": 89
    },
    {
      "midi": 71,
      "hit": false,
      "t": 54600,
      "d": 44.375,
      "v": 91
    },
    {
      "midi": 74,
      "hit": false,
      "t": 54600,
      "d": 44.375,
      "v": 92
    },
    {
      "midi": 79,
      "hit": false,
      "t": 54750,
      "d": 36.25,
      "v": 91
    },
    {
      "midi": 71,
      "hit": false,
      "t": 54750,
      "d": 45.625,
      "v": 92
    },
    {
      "midi": 74,
      "hit": false,
      "t": 54750,
      "d": 45.625,
      "v": 94
    },
    {
      "midi": 79,
      "hit": false,
      "t": 54900,
      "d": 38.125,
      "v": 90
    },
    {
      "midi": 74,
      "hit": false,
      "t": 54900,
      "d": 45.625,
      "v": 95
    },
    {
      "midi": 71,
      "hit": false,
      "t": 54900,
      "d": 48.75,
      "v": 93
    },
    {
      "midi": 74,
      "hit": false,
      "t": 55050,
      "d": 36.25,
      "v": 95
    },
    {
      "midi": 71,
      "hit": false,
      "t": 55050,
      "d": 41.25,
      "v": 92
    },
    {
      "midi": 79,
      "hit": false,
      "t": 55050,
      "d": 44.375,
      "v": 89
    },
    {
      "midi": 74,
      "hit": false,
      "t": 55200,
      "d": 42.5,
      "v": 91
    },
    {
      "midi": 77,
      "hit": false,
      "t": 55200,
      "d": 48.75,
      "v": 89
    },
    {
      "midi": 71,
      "hit": false,
      "t": 55200,
      "d": 53.75,
      "v": 91
    },
    {
      "midi": 74,
      "hit": false,
      "t": 55350,
      "d": 42.5,
      "v": 91
    },
    {
      "midi": 71,
      "hit": false,
      "t": 55350,
      "d": 48.75,
      "v": 86
    },
    {
      "midi": 77,
      "hit": false,
      "t": 55350,
      "d": 48.75,
      "v": 91
    },
    {
      "midi": 77,
      "hit": false,
      "t": 55500,
      "d": 44.375,
      "v": 94
    },
    {
      "midi": 74,
      "hit": false,
      "t": 55500,
      "d": 45.625,
      "v": 93
    },
    {
      "midi": 71,
      "hit": false,
      "t": 55500,
      "d": 48.75,
      "v": 90
    },
    {
      "midi": 71,
      "hit": false,
      "t": 55650,
      "d": 53.75,
      "v": 90
    },
    {
      "midi": 74,
      "hit": false,
      "t": 55650,
      "d": 55,
      "v": 94
    },
    {
      "midi": 77,
      "hit": false,
      "t": 55650,
      "d": 55,
      "v": 91
    },
    {
      "midi": 74,
      "hit": false,
      "t": 55800,
      "d": 48.75,
      "v": 96
    },
    {
      "midi": 77,
      "hit": false,
      "t": 55800,
      "d": 53.75,
      "v": 90
    },
    {
      "midi": 71,
      "hit": false,
      "t": 55800,
      "d": 58.125,
      "v": 92
    },
    {
      "midi": 77,
      "hit": false,
      "t": 55950,
      "d": 41.25,
      "v": 92
    },
    {
      "midi": 74,
      "hit": false,
      "t": 55950,
      "d": 48.75,
      "v": 91
    },
    {
      "midi": 71,
      "hit": false,
      "t": 55950,
      "d": 51.875,
      "v": 93
    },
    {
      "midi": 77,
      "hit": false,
      "t": 56100,
      "d": 35,
      "v": 92
    },
    {
      "midi": 74,
      "hit": false,
      "t": 56100,
      "d": 39.375,
      "v": 94
    },
    {
      "midi": 71,
      "hit": false,
      "t": 56100,
      "d": 44.375,
      "v": 89
    },
    {
      "midi": 74,
      "hit": false,
      "t": 56250,
      "d": 42.5,
      "v": 91
    },
    {
      "midi": 77,
      "hit": false,
      "t": 56250,
      "d": 45.625,
      "v": 94
    },
    {
      "midi": 71,
      "hit": false,
      "t": 56250,
      "d": 47.5,
      "v": 81
    },
    {
      "midi": 74,
      "hit": false,
      "t": 56400,
      "d": 55,
      "v": 90
    },
    {
      "midi": 79,
      "hit": false,
      "t": 56400,
      "d": 58.125,
      "v": 89
    },
    {
      "midi": 71,
      "hit": false,
      "t": 56400,
      "d": 63.125,
      "v": 90
    },
    {
      "midi": 74,
      "hit": false,
      "t": 56550,
      "d": 50.625,
      "v": 95
    },
    {
      "midi": 71,
      "hit": false,
      "t": 56550,
      "d": 55,
      "v": 87
    },
    {
      "midi": 79,
      "hit": false,
      "t": 56550,
      "d": 55,
      "v": 91
    },
    {
      "midi": 79,
      "hit": false,
      "t": 56700,
      "d": 41.25,
      "v": 96
    },
    {
      "midi": 74,
      "hit": false,
      "t": 56700,
      "d": 48.75,
      "v": 94
    },
    {
      "midi": 71,
      "hit": false,
      "t": 56700,
      "d": 51.875,
      "v": 91
    },
    {
      "midi": 79,
      "hit": false,
      "t": 56850,
      "d": 35,
      "v": 90
    },
    {
      "midi": 74,
      "hit": false,
      "t": 56850,
      "d": 39.375,
      "v": 92
    },
    {
      "midi": 71,
      "hit": false,
      "t": 56850,
      "d": 47.5,
      "v": 92
    },
    {
      "midi": 74,
      "hit": false,
      "t": 57000,
      "d": 39.375,
      "v": 94
    },
    {
      "midi": 79,
      "hit": false,
      "t": 57000,
      "d": 41.25,
      "v": 90
    },
    {
      "midi": 71,
      "hit": false,
      "t": 57000,
      "d": 50.625,
      "v": 93
    },
    {
      "midi": 79,
      "hit": false,
      "t": 57150,
      "d": 38.125,
      "v": 95
    },
    {
      "midi": 74,
      "hit": false,
      "t": 57150,
      "d": 42.5,
      "v": 91
    },
    {
      "midi": 71,
      "hit": false,
      "t": 57150,
      "d": 55,
      "v": 92
    },
    {
      "midi": 74,
      "hit": false,
      "t": 57300,
      "d": 39.375,
      "v": 95
    },
    {
      "midi": 79,
      "hit": false,
      "t": 57300,
      "d": 39.375,
      "v": 91
    },
    {
      "midi": 71,
      "hit": false,
      "t": 57300,
      "d": 50.625,
      "v": 95
    },
    {
      "midi": 55,
      "hit": false,
      "t": 57300,
      "d": 147.5,
      "v": 1
    },
    {
      "midi": 59,
      "hit": false,
      "t": 57300,
      "d": 147.5,
      "v": 1
    },
    {
      "midi": 62,
      "hit": false,
      "t": 57300,
      "d": 147.5,
      "v": 1
    },
    {
      "midi": 64,
      "hit": false,
      "t": 57300,
      "d": 147.5,
      "v": 1
    },
    {
      "midi": 74,
      "hit": false,
      "t": 57450,
      "d": 51.875,
      "v": 90
    },
    {
      "midi": 71,
      "hit": false,
      "t": 57450,
      "d": 58.125,
      "v": 89
    },
    {
      "midi": 79,
      "hit": false,
      "t": 57450,
      "d": 58.125,
      "v": 92
    },
    {
      "midi": 55,
      "hit": false,
      "t": 57450,
      "d": 747.5,
      "v": 1
    },
    {
      "midi": 62,
      "hit": false,
      "t": 57450,
      "d": 747.5,
      "v": 1
    },
    {
      "midi": 65,
      "hit": false,
      "t": 57450,
      "d": 747.5,
      "v": 1
    },
    {
      "midi": 77,
      "hit": false,
      "t": 57600,
      "d": 50.625,
      "v": 90
    },
    {
      "midi": 74,
      "hit": false,
      "t": 57600,
      "d": 55,
      "v": 89
    },
    {
      "midi": 71,
      "hit": false,
      "t": 57600,
      "d": 60,
      "v": 90
    },
    {
      "midi": 74,
      "hit": false,
      "t": 57750,
      "d": 50.625,
      "v": 96
    },
    {
      "midi": 77,
      "hit": false,
      "t": 57750,
      "d": 50.625,
      "v": 90
    },
    {
      "midi": 71,
      "hit": false,
      "t": 57750,
      "d": 55,
      "v": 80
    },
    {
      "midi": 77,
      "hit": false,
      "t": 57900,
      "d": 51.875,
      "v": 89
    },
    {
      "midi": 74,
      "hit": false,
      "t": 57900,
      "d": 60,
      "v": 94
    },
    {
      "midi": 71,
      "hit": false,
      "t": 57900,
      "d": 61.25,
      "v": 92
    },
    {
      "midi": 77,
      "hit": false,
      "t": 58050,
      "d": 45.625,
      "v": 94
    },
    {
      "midi": 74,
      "hit": false,
      "t": 58050,
      "d": 55,
      "v": 96
    },
    {
      "midi": 71,
      "hit": false,
      "t": 58050,
      "d": 58.125,
      "v": 93
    },
    {
      "midi": 77,
      "hit": false,
      "t": 58200,
      "d": 50.625,
      "v": 91
    },
    {
      "midi": 71,
      "hit": false,
      "t": 58200,
      "d": 58.125,
      "v": 94
    },
    {
      "midi": 74,
      "hit": false,
      "t": 58200,
      "d": 58.125,
      "v": 95
    },
    {
      "midi": 55,
      "hit": false,
      "t": 58200,
      "d": 297.5,
      "v": 1
    },
    {
      "midi": 62,
      "hit": false,
      "t": 58200,
      "d": 303.75,
      "v": 1
    },
    {
      "midi": 77,
      "hit": false,
      "t": 58350,
      "d": 44.375,
      "v": 92
    },
    {
      "midi": 74,
      "hit": false,
      "t": 58350,
      "d": 51.875,
      "v": 96
    },
    {
      "midi": 71,
      "hit": false,
      "t": 58350,
      "d": 55,
      "v": 90
    },
    {
      "midi": 77,
      "hit": false,
      "t": 58500,
      "d": 39.375,
      "v": 91
    },
    {
      "midi": 74,
      "hit": false,
      "t": 58500,
      "d": 47.5,
      "v": 93
    },
    {
      "midi": 71,
      "hit": false,
      "t": 58500,
      "d": 53.75,
      "v": 90
    },
    {
      "midi": 55,
      "hit": false,
      "t": 58500,
      "d": 297.5,
      "v": 1
    },
    {
      "midi": 65,
      "hit": false,
      "t": 58500,
      "d": 297.5,
      "v": 1
    },
    {
      "midi": 77,
      "hit": false,
      "t": 58650,
      "d": 31.875,
      "v": 87
    },
    {
      "midi": 74,
      "hit": false,
      "t": 58650,
      "d": 44.375,
      "v": 92
    },
    {
      "midi": 71,
      "hit": false,
      "t": 58650,
      "d": 53.75,
      "v": 85
    },
    {
      "midi": 70,
      "hit": false,
      "t": 58800,
      "d": 28.75,
      "v": 101
    },
    {
      "midi": 67,
      "hit": false,
      "t": 58800,
      "d": 47.5,
      "v": 103
    },
    {
      "midi": 76,
      "hit": false,
      "t": 58800,
      "d": 47.5,
      "v": 106
    },
    {
      "midi": 60,
      "hit": false,
      "t": 58800,
      "d": 2397.5,
      "v": 1
    },
    {
      "midi": 64,
      "hit": false,
      "t": 58800,
      "d": 2397.5,
      "v": 1
    },
    {
      "midi": 70,
      "hit": false,
      "t": 58950,
      "d": 41.25,
      "v": 87
    },
    {
      "midi": 67,
      "hit": false,
      "t": 58950,
      "d": 50.625,
      "v": 91
    },
    {
      "midi": 76,
      "hit": false,
      "t": 58950,
      "d": 50.625,
      "v": 107
    },
    {
      "midi": 74,
      "hit": false,
      "t": 59100,
      "d": 36.25,
      "v": 118
    },
    {
      "midi": 70,
      "hit": false,
      "t": 59100,
      "d": 38.125,
      "v": 101
    },
    {
      "midi": 67,
      "hit": false,
      "t": 59100,
      "d": 42.5,
      "v": 90
    },
    {
      "midi": 74,
      "hit": false,
      "t": 59250,
      "d": 44.375,
      "v": 99
    },
    {
      "midi": 70,
      "hit": false,
      "t": 59250,
      "d": 45.625,
      "v": 86
    },
    {
      "midi": 67,
      "hit": false,
      "t": 59250,
      "d": 51.875,
      "v": 85
    },
    {
      "midi": 70,
      "hit": false,
      "t": 59400,
      "d": 44.375,
      "v": 88
    },
    {
      "midi": 72,
      "hit": false,
      "t": 59400,
      "d": 48.75,
      "v": 127
    },
    {
      "midi": 67,
      "hit": false,
      "t": 59400,
      "d": 53.75,
      "v": 99
    },
    {
      "midi": 70,
      "hit": false,
      "t": 59550,
      "d": 36.25,
      "v": 82
    },
    {
      "midi": 67,
      "hit": false,
      "t": 59550,
      "d": 47.5,
      "v": 89
    },
    {
      "midi": 72,
      "hit": false,
      "t": 59550,
      "d": 50.625,
      "v": 105
    },
    {
      "midi": 70,
      "hit": false,
      "t": 59700,
      "d": 42.5,
      "v": 86
    },
    {
      "midi": 74,
      "hit": false,
      "t": 59700,
      "d": 45.625,
      "v": 119
    },
    {
      "midi": 67,
      "hit": false,
      "t": 59700,
      "d": 50.625,
      "v": 95
    },
    {
      "midi": 70,
      "hit": false,
      "t": 59850,
      "d": 39.375,
      "v": 87
    },
    {
      "midi": 74,
      "hit": false,
      "t": 59850,
      "d": 44.375,
      "v": 100
    },
    {
      "midi": 67,
      "hit": false,
      "t": 59850,
      "d": 45.625,
      "v": 79
    },
    {
      "midi": 70,
      "hit": false,
      "t": 60000,
      "d": 38.125,
      "v": 83
    },
    {
      "midi": 67,
      "hit": false,
      "t": 60000,
      "d": 45.625,
      "v": 95
    },
    {
      "midi": 76,
      "hit": false,
      "t": 60000,
      "d": 45.625,
      "v": 109
    },
    {
      "midi": 70,
      "hit": false,
      "t": 60150,
      "d": 42.5,
      "v": 81
    },
    {
      "midi": 67,
      "hit": false,
      "t": 60150,
      "d": 51.875,
      "v": 93
    },
    {
      "midi": 76,
      "hit": false,
      "t": 60150,
      "d": 56.875,
      "v": 107
    },
    {
      "midi": 70,
      "hit": false,
      "t": 60300,
      "d": 45.625,
      "v": 83
    },
    {
      "midi": 74,
      "hit": false,
      "t": 60300,
      "d": 48.75,
      "v": 110
    },
    {
      "midi": 67,
      "hit": false,
      "t": 60300,
      "d": 56.875,
      "v": 86
    },
    {
      "midi": 70,
      "hit": false,
      "t": 60450,
      "d": 39.375,
      "v": 67
    },
    {
      "midi": 67,
      "hit": false,
      "t": 60450,
      "d": 50.625,
      "v": 70
    },
    {
      "midi": 74,
      "hit": false,
      "t": 60450,
      "d": 70.625,
      "v": 102
    },
    {
      "midi": 70,
      "hit": false,
      "t": 60600,
      "d": 44.375,
      "v": 91
    },
    {
      "midi": 72,
      "hit": false,
      "t": 60600,
      "d": 45.625,
      "v": 107
    },
    {
      "midi": 67,
      "hit": false,
      "t": 60600,
      "d": 58.125,
      "v": 78
    },
    {
      "midi": 70,
      "hit": false,
      "t": 60750,
      "d": 38.125,
      "v": 67
    },
    {
      "midi": 67,
      "hit": false,
      "t": 60750,
      "d": 61.25,
      "v": 71
    },
    {
      "midi": 72,
      "hit": false,
      "t": 60750,
      "d": 64.375,
      "v": 92
    },
    {
      "midi": 70,
      "hit": false,
      "t": 60900,
      "d": 58.125,
      "v": 76
    },
    {
      "midi": 74,
      "hit": false,
      "t": 60900,
      "d": 64.375,
      "v": 93
    },
    {
      "midi": 67,
      "hit": false,
      "t": 60900,
      "d": 67.5,
      "v": 83
    },
    {
      "midi": 67,
      "hit": false,
      "t": 61050,
      "d": 38.125,
      "v": 67
    },
    {
      "midi": 70,
      "hit": false,
      "t": 61050,
      "d": 38.125,
      "v": 73
    },
    {
      "midi": 74,
      "hit": false,
      "t": 61050,
      "d": 44.375,
      "v": 93
    },
    {
      "midi": 71,
      "hit": false,
      "t": 61200,
      "d": 41.25,
      "v": 108
    },
    {
      "midi": 76,
      "hit": false,
      "t": 61200,
      "d": 47.5,
      "v": 119
    },
    {
      "midi": 67,
      "hit": false,
      "t": 61200,
      "d": 58.125,
      "v": 96
    },
    {
      "midi": 59,
      "hit": false,
      "t": 61200,
      "d": 2397.5,
      "v": 1
    },
    {
      "midi": 62,
      "hit": false,
      "t": 61200,
      "d": 2397.5,
      "v": 1
    },
    {
      "midi": 67,
      "hit": false,
      "t": 61350,
      "d": 56.875,
      "v": 83
    },
    {
      "midi": 76,
      "hit": false,
      "t": 61350,
      "d": 61.25,
      "v": 99
    },
    {
      "midi": 71,
      "hit": false,
      "t": 61350,
      "d": 63.125,
      "v": 92
    },
    {
      "midi": 74,
      "hit": false,
      "t": 61500,
      "d": 51.875,
      "v": 87
    },
    {
      "midi": 71,
      "hit": false,
      "t": 61500,
      "d": 53.75,
      "v": 109
    },
    {
      "midi": 67,
      "hit": false,
      "t": 61500,
      "d": 63.125,
      "v": 82
    },
    {
      "midi": 67,
      "hit": false,
      "t": 61650,
      "d": 66.25,
      "v": 87
    },
    {
      "midi": 71,
      "hit": false,
      "t": 61650,
      "d": 78.75,
      "v": 96
    },
    {
      "midi": 74,
      "hit": false,
      "t": 61650,
      "d": 78.75,
      "v": 103
    },
    {
      "midi": 71,
      "hit": false,
      "t": 61800,
      "d": 53.75,
      "v": 110
    },
    {
      "midi": 67,
      "hit": false,
      "t": 61800,
      "d": 63.125,
      "v": 91
    },
    {
      "midi": 67,
      "hit": false,
      "t": 61950,
      "d": 73.75,
      "v": 81
    },
    {
      "midi": 71,
      "hit": false,
      "t": 61950,
      "d": 78.75,
      "v": 92
    },
    {
      "midi": 71,
      "hit": false,
      "t": 62100,
      "d": 70.625,
      "v": 107
    },
    {
      "midi": 74,
      "hit": false,
      "t": 62100,
      "d": 72.5,
      "v": 102
    },
    {
      "midi": 67,
      "hit": false,
      "t": 62100,
      "d": 73.75,
      "v": 96
    },
    {
      "midi": 71,
      "hit": false,
      "t": 62250,
      "d": 67.5,
      "v": 84
    },
    {
      "midi": 67,
      "hit": false,
      "t": 62250,
      "d": 73.75,
      "v": 81
    },
    {
      "midi": 74,
      "hit": false,
      "t": 62250,
      "d": 76.875,
      "v": 93
    },
    {
      "midi": 71,
      "hit": false,
      "t": 62400,
      "d": 66.25,
      "v": 90
    },
    {
      "midi": 76,
      "hit": false,
      "t": 62400,
      "d": 70.625,
      "v": 94
    },
    {
      "midi": 67,
      "hit": false,
      "t": 62400,
      "d": 73.75,
      "v": 88
    },
    {
      "midi": 71,
      "hit": false,
      "t": 62550,
      "d": 67.5,
      "v": 84
    },
    {
      "midi": 76,
      "hit": false,
      "t": 62550,
      "d": 67.5,
      "v": 101
    },
    {
      "midi": 67,
      "hit": false,
      "t": 62550,
      "d": 72.5,
      "v": 87
    },
    {
      "midi": 71,
      "hit": false,
      "t": 62700,
      "d": 53.75,
      "v": 85
    },
    {
      "midi": 74,
      "hit": false,
      "t": 62700,
      "d": 69.375,
      "v": 94
    },
    {
      "midi": 67,
      "hit": false,
      "t": 62700,
      "d": 75.625,
      "v": 92
    },
    {
      "midi": 71,
      "hit": false,
      "t": 62850,
      "d": 58.125,
      "v": 103
    },
    {
      "midi": 67,
      "hit": false,
      "t": 62850,
      "d": 72.5,
      "v": 78
    },
    {
      "midi": 74,
      "hit": false,
      "t": 62850,
      "d": 81.875,
      "v": 100
    },
    {
      "midi": 71,
      "hit": false,
      "t": 63000,
      "d": 58.125,
      "v": 104
    },
    {
      "midi": 67,
      "hit": false,
      "t": 63000,
      "d": 67.5,
      "v": 100
    },
    {
      "midi": 71,
      "hit": false,
      "t": 63150,
      "d": 60,
      "v": 97
    },
    {
      "midi": 67,
      "hit": false,
      "t": 63150,
      "d": 63.125,
      "v": 79
    },
    {
      "midi": 71,
      "hit": false,
      "t": 63300,
      "d": 67.5,
      "v": 103
    },
    {
      "midi": 74,
      "hit": false,
      "t": 63300,
      "d": 70.625,
      "v": 118
    },
    {
      "midi": 67,
      "hit": false,
      "t": 63300,
      "d": 75.625,
      "v": 96
    },
    {
      "midi": 74,
      "hit": false,
      "t": 63450,
      "d": 38.125,
      "v": 94
    },
    {
      "midi": 67,
      "hit": false,
      "t": 63450,
      "d": 44.375,
      "v": 78
    },
    {
      "midi": 71,
      "hit": false,
      "t": 63450,
      "d": 44.375,
      "v": 95
    },
    {
      "midi": 72,
      "hit": false,
      "t": 63600,
      "d": 51.875,
      "v": 118
    },
    {
      "midi": 78,
      "hit": false,
      "t": 63600,
      "d": 69.375,
      "v": 86
    },
    {
      "midi": 69,
      "hit": false,
      "t": 63600,
      "d": 72.5,
      "v": 97
    },
    {
      "midi": 74,
      "hit": false,
      "t": 63600,
      "d": 73.75,
      "v": 116
    },
    {
      "midi": 62,
      "hit": false,
      "t": 63600,
      "d": 1197.5,
      "v": 1
    },
    {
      "midi": 66,
      "hit": false,
      "t": 63600,
      "d": 1197.5,
      "v": 1
    },
    {
      "midi": 72,
      "hit": false,
      "t": 63750,
      "d": 60,
      "v": 113
    },
    {
      "midi": 78,
      "hit": false,
      "t": 63750,
      "d": 70.625,
      "v": 82
    },
    {
      "midi": 74,
      "hit": false,
      "t": 63750,
      "d": 72.5,
      "v": 111
    },
    {
      "midi": 69,
      "hit": false,
      "t": 63750,
      "d": 78.75,
      "v": 93
    },
    {
      "midi": 72,
      "hit": false,
      "t": 63900,
      "d": 63.125,
      "v": 114
    },
    {
      "midi": 74,
      "hit": false,
      "t": 63900,
      "d": 69.375,
      "v": 104
    },
    {
      "midi": 78,
      "hit": false,
      "t": 63900,
      "d": 70.625,
      "v": 83
    },
    {
      "midi": 69,
      "hit": false,
      "t": 63900,
      "d": 98.75,
      "v": 98
    },
    {
      "midi": 72,
      "hit": false,
      "t": 64050,
      "d": 70.625,
      "v": 119
    },
    {
      "midi": 74,
      "hit": false,
      "t": 64050,
      "d": 80,
      "v": 108
    },
    {
      "midi": 78,
      "hit": false,
      "t": 64050,
      "d": 80,
      "v": 94
    },
    {
      "midi": 69,
      "hit": false,
      "t": 64050,
      "d": 86.25,
      "v": 91
    },
    {
      "midi": 72,
      "hit": false,
      "t": 64200,
      "d": 64.375,
      "v": 107
    },
    {
      "midi": 74,
      "hit": false,
      "t": 64200,
      "d": 83.125,
      "v": 107
    },
    {
      "midi": 69,
      "hit": false,
      "t": 64200,
      "d": 85,
      "v": 104
    },
    {
      "midi": 78,
      "hit": false,
      "t": 64200,
      "d": 88.125,
      "v": 91
    },
    {
      "midi": 72,
      "hit": false,
      "t": 64350,
      "d": 66.25,
      "v": 109
    },
    {
      "midi": 74,
      "hit": false,
      "t": 64350,
      "d": 69.375,
      "v": 103
    },
    {
      "midi": 78,
      "hit": false,
      "t": 64350,
      "d": 75.625,
      "v": 83
    },
    {
      "midi": 69,
      "hit": false,
      "t": 64350,
      "d": 85,
      "v": 94
    },
    {
      "midi": 72,
      "hit": false,
      "t": 64500,
      "d": 69.375,
      "v": 111
    },
    {
      "midi": 74,
      "hit": false,
      "t": 64500,
      "d": 75.625,
      "v": 110
    },
    {
      "midi": 78,
      "hit": false,
      "t": 64500,
      "d": 75.625,
      "v": 79
    },
    {
      "midi": 69,
      "hit": false,
      "t": 64500,
      "d": 86.25,
      "v": 100
    },
    {
      "midi": 72,
      "hit": false,
      "t": 64650,
      "d": 50.625,
      "v": 103
    },
    {
      "midi": 74,
      "hit": false,
      "t": 64650,
      "d": 50.625,
      "v": 110
    },
    {
      "midi": 78,
      "hit": false,
      "t": 64650,
      "d": 56.875,
      "v": 70
    },
    {
      "midi": 69,
      "hit": false,
      "t": 64650,
      "d": 66.25,
      "v": 93
    },
    {
      "midi": 70,
      "hit": false,
      "t": 64800,
      "d": 66.25,
      "v": 106
    },
    {
      "midi": 76,
      "hit": false,
      "t": 64800,
      "d": 66.25,
      "v": 124
    },
    {
      "midi": 67,
      "hit": false,
      "t": 64800,
      "d": 75.625,
      "v": 118
    },
    {
      "midi": 72,
      "hit": false,
      "t": 64800,
      "d": 76.875,
      "v": 127
    },
    {
      "midi": 60,
      "hit": false,
      "t": 64800,
      "d": 1197.5,
      "v": 1
    },
    {
      "midi": 64,
      "hit": false,
      "t": 64800,
      "d": 1197.5,
      "v": 1
    },
    {
      "midi": 76,
      "hit": false,
      "t": 64950,
      "d": 69.375,
      "v": 92
    },
    {
      "midi": 70,
      "hit": false,
      "t": 64950,
      "d": 75.625,
      "v": 74
    },
    {
      "midi": 72,
      "hit": false,
      "t": 64950,
      "d": 80,
      "v": 97
    },
    {
      "midi": 67,
      "hit": false,
      "t": 64950,
      "d": 83.125,
      "v": 90
    },
    {
      "midi": 72,
      "hit": false,
      "t": 65100,
      "d": 64.375,
      "v": 96
    },
    {
      "midi": 76,
      "hit": false,
      "t": 65100,
      "d": 64.375,
      "v": 103
    },
    {
      "midi": 70,
      "hit": false,
      "t": 65100,
      "d": 70.625,
      "v": 85
    },
    {
      "midi": 67,
      "hit": false,
      "t": 65100,
      "d": 83.125,
      "v": 83
    },
    {
      "midi": 76,
      "hit": false,
      "t": 65250,
      "d": 66.25,
      "v": 96
    },
    {
      "midi": 70,
      "hit": false,
      "t": 65250,
      "d": 70.625,
      "v": 82
    },
    {
      "midi": 72,
      "hit": false,
      "t": 65250,
      "d": 73.75,
      "v": 96
    },
    {
      "midi": 67,
      "hit": false,
      "t": 65250,
      "d": 86.25,
      "v": 87
    },
    {
      "midi": 76,
      "hit": false,
      "t": 65400,
      "d": 63.125,
      "v": 112
    },
    {
      "midi": 70,
      "hit": false,
      "t": 65400,
      "d": 70.625,
      "v": 91
    },
    {
      "midi": 72,
      "hit": false,
      "t": 65400,
      "d": 72.5,
      "v": 111
    },
    {
      "midi": 67,
      "hit": false,
      "t": 65400,
      "d": 80,
      "v": 98
    },
    {
      "midi": 70,
      "hit": false,
      "t": 65550,
      "d": 60,
      "v": 86
    },
    {
      "midi": 76,
      "hit": false,
      "t": 65550,
      "d": 61.25,
      "v": 79
    },
    {
      "midi": 72,
      "hit": false,
      "t": 65550,
      "d": 63.125,
      "v": 88
    },
    {
      "midi": 67,
      "hit": false,
      "t": 65550,
      "d": 80,
      "v": 78
    },
    {
      "midi": 70,
      "hit": false,
      "t": 65700,
      "d": 39.375,
      "v": 70
    },
    {
      "midi": 76,
      "hit": false,
      "t": 65700,
      "d": 60,
      "v": 100
    },
    {
      "midi": 72,
      "hit": false,
      "t": 65700,
      "d": 63.125,
      "v": 92
    },
    {
      "midi": 67,
      "hit": false,
      "t": 65700,
      "d": 69.375,
      "v": 85
    },
    {
      "midi": 70,
      "hit": false,
      "t": 65850,
      "d": 35,
      "v": 78
    },
    {
      "midi": 76,
      "hit": false,
      "t": 65850,
      "d": 50.625,
      "v": 78
    },
    {
      "midi": 67,
      "hit": false,
      "t": 65850,
      "d": 63.125,
      "v": 71
    },
    {
      "midi": 72,
      "hit": false,
      "t": 65850,
      "d": 64.375,
      "v": 84
    },
    {
      "midi": 64,
      "hit": false,
      "t": 66000,
      "d": 45.625,
      "v": 84
    },
    {
      "midi": 71,
      "hit": false,
      "t": 66000,
      "d": 45.625,
      "v": 120
    },
    {
      "midi": 67,
      "hit": false,
      "t": 66000,
      "d": 51.875,
      "v": 107
    },
    {
      "midi": 76,
      "hit": false,
      "t": 66000,
      "d": 51.875,
      "v": 122
    },
    {
      "midi": 59,
      "hit": false,
      "t": 66000,
      "d": 2397.5,
      "v": 1
    },
    {
      "midi": 62,
      "hit": false,
      "t": 66000,
      "d": 2397.5,
      "v": 1
    },
    {
      "midi": 64,
      "hit": false,
      "t": 66150,
      "d": 51.875,
      "v": 80
    },
    {
      "midi": 71,
      "hit": false,
      "t": 66150,
      "d": 51.875,
      "v": 87
    },
    {
      "midi": 67,
      "hit": false,
      "t": 66150,
      "d": 56.875,
      "v": 82
    },
    {
      "midi": 76,
      "hit": false,
      "t": 66150,
      "d": 67.5,
      "v": 96
    },
    {
      "midi": 64,
      "hit": false,
      "t": 66300,
      "d": 48.75,
      "v": 90
    },
    {
      "midi": 74,
      "hit": false,
      "t": 66300,
      "d": 58.125,
      "v": 123
    },
    {
      "midi": 67,
      "hit": false,
      "t": 66300,
      "d": 61.25,
      "v": 92
    },
    {
      "midi": 64,
      "hit": false,
      "t": 66450,
      "d": 51.875,
      "v": 82
    },
    {
      "midi": 67,
      "hit": false,
      "t": 66450,
      "d": 53.75,
      "v": 85
    },
    {
      "midi": 74,
      "hit": false,
      "t": 66450,
      "d": 70.625,
      "v": 108
    },
    {
      "midi": 71,
      "hit": false,
      "t": 66600,
      "d": 47.5,
      "v": 117
    },
    {
      "midi": 64,
      "hit": false,
      "t": 66600,
      "d": 51.875,
      "v": 93
    },
    {
      "midi": 67,
      "hit": false,
      "t": 66600,
      "d": 56.875,
      "v": 103
    },
    {
      "midi": 64,
      "hit": false,
      "t": 66750,
      "d": 51.875,
      "v": 81
    },
    {
      "midi": 67,
      "hit": false,
      "t": 66750,
      "d": 56.875,
      "v": 83
    },
    {
      "midi": 71,
      "hit": false,
      "t": 66750,
      "d": 56.875,
      "v": 103
    },
    {
      "midi": 74,
      "hit": false,
      "t": 66900,
      "d": 39.375,
      "v": 107
    },
    {
      "midi": 64,
      "hit": false,
      "t": 66900,
      "d": 48.75,
      "v": 96
    },
    {
      "midi": 71,
      "hit": false,
      "t": 66900,
      "d": 48.75,
      "v": 109
    },
    {
      "midi": 67,
      "hit": false,
      "t": 66900,
      "d": 51.875,
      "v": 94
    },
    {
      "midi": 71,
      "hit": false,
      "t": 67050,
      "d": 47.5,
      "v": 97
    },
    {
      "midi": 64,
      "hit": false,
      "t": 67050,
      "d": 48.75,
      "v": 92
    },
    {
      "midi": 74,
      "hit": false,
      "t": 67050,
      "d": 50.625,
      "v": 95
    },
    {
      "midi": 67,
      "hit": false,
      "t": 67050,
      "d": 51.875,
      "v": 77
    },
    {
      "midi": 67,
      "hit": false,
      "t": 67200,
      "d": 75.625,
      "v": 85
    },
    {
      "midi": 64,
      "hit": false,
      "t": 67200,
      "d": 81.875,
      "v": 97
    },
    {
      "midi": 71,
      "hit": false,
      "t": 67200,
      "d": 81.875,
      "v": 97
    },
    {
      "midi": 76,
      "hit": false,
      "t": 67200,
      "d": 81.875,
      "v": 113
    },
    {
      "midi": 71,
      "hit": false,
      "t": 68400,
      "d": 69.375,
      "v": 91
    },
    {
      "midi": 74,
      "hit": false,
      "t": 68400,
      "d": 69.375,
      "v": 93
    },
    {
      "midi": 79,
      "hit": false,
      "t": 68400,
      "d": 69.375,
      "v": 90
    },
    {
      "midi": 55,
      "hit": false,
      "t": 68400,
      "d": 2997.5,
      "v": 1
    },
    {
      "midi": 59,
      "hit": false,
      "t": 68400,
      "d": 2997.5,
      "v": 1
    },
    {
      "midi": 62,
      "hit": false,
      "t": 68400,
      "d": 2997.5,
      "v": 1
    },
    {
      "midi": 71,
      "hit": false,
      "t": 68550,
      "d": 69.375,
      "v": 93
    },
    {
      "midi": 74,
      "hit": false,
      "t": 68550,
      "d": 69.375,
      "v": 96
    },
    {
      "midi": 79,
      "hit": false,
      "t": 68550,
      "d": 69.375,
      "v": 93
    },
    {
      "midi": 71,
      "hit": false,
      "t": 68700,
      "d": 69.375,
      "v": 96
    },
    {
      "midi": 74,
      "hit": false,
      "t": 68700,
      "d": 69.375,
      "v": 93
    },
    {
      "midi": 78,
      "hit": false,
      "t": 68700,
      "d": 125.625,
      "v": 90
    },
    {
      "midi": 71,
      "hit": false,
      "t": 68850,
      "d": 69.375,
      "v": 96
    },
    {
      "midi": 74,
      "hit": false,
      "t": 68850,
      "d": 69.375,
      "v": 91
    },
    {
      "midi": 79,
      "hit": false,
      "t": 68850,
      "d": 69.375,
      "v": 89
    },
    {
      "midi": 71,
      "hit": false,
      "t": 69000,
      "d": 69.375,
      "v": 92
    },
    {
      "midi": 74,
      "hit": false,
      "t": 69000,
      "d": 69.375,
      "v": 91
    },
    {
      "midi": 79,
      "hit": false,
      "t": 69000,
      "d": 69.375,
      "v": 89
    },
    {
      "midi": 71,
      "hit": false,
      "t": 69150,
      "d": 69.375,
      "v": 94
    },
    {
      "midi": 74,
      "hit": false,
      "t": 69150,
      "d": 69.375,
      "v": 95
    },
    {
      "midi": 79,
      "hit": false,
      "t": 69150,
      "d": 69.375,
      "v": 89
    },
    {
      "midi": 71,
      "hit": false,
      "t": 69300,
      "d": 69.375,
      "v": 90
    },
    {
      "midi": 74,
      "hit": false,
      "t": 69300,
      "d": 69.375,
      "v": 93
    },
    {
      "midi": 78,
      "hit": false,
      "t": 69300,
      "d": 125.625,
      "v": 86
    },
    {
      "midi": 71,
      "hit": false,
      "t": 69450,
      "d": 69.375,
      "v": 93
    },
    {
      "midi": 74,
      "hit": false,
      "t": 69450,
      "d": 69.375,
      "v": 95
    },
    {
      "midi": 79,
      "hit": false,
      "t": 69450,
      "d": 69.375,
      "v": 90
    },
    {
      "midi": 74,
      "hit": false,
      "t": 69600,
      "d": 69.375,
      "v": 89
    },
    {
      "midi": 83,
      "hit": false,
      "t": 69600,
      "d": 69.375,
      "v": 95
    },
    {
      "midi": 86,
      "hit": false,
      "t": 69600,
      "d": 69.375,
      "v": 93
    },
    {
      "midi": 74,
      "hit": false,
      "t": 69750,
      "d": 69.375,
      "v": 87
    },
    {
      "midi": 81,
      "hit": false,
      "t": 69750,
      "d": 69.375,
      "v": 93
    },
    {
      "midi": 84,
      "hit": false,
      "t": 69750,
      "d": 69.375,
      "v": 91
    },
    {
      "midi": 74,
      "hit": false,
      "t": 69900,
      "d": 69.375,
      "v": 96
    },
    {
      "midi": 81,
      "hit": false,
      "t": 69900,
      "d": 69.375,
      "v": 94
    },
    {
      "midi": 84,
      "hit": false,
      "t": 69900,
      "d": 69.375,
      "v": 93
    },
    {
      "midi": 74,
      "hit": false,
      "t": 70050,
      "d": 69.375,
      "v": 95
    },
    {
      "midi": 79,
      "hit": false,
      "t": 70050,
      "d": 69.375,
      "v": 89
    },
    {
      "midi": 83,
      "hit": false,
      "t": 70050,
      "d": 69.375,
      "v": 89
    },
    {
      "midi": 74,
      "hit": false,
      "t": 70200,
      "d": 69.375,
      "v": 94
    },
    {
      "midi": 79,
      "hit": false,
      "t": 70200,
      "d": 69.375,
      "v": 95
    },
    {
      "midi": 83,
      "hit": false,
      "t": 70200,
      "d": 69.375,
      "v": 90
    },
    {
      "midi": 74,
      "hit": false,
      "t": 70350,
      "d": 69.375,
      "v": 89
    },
    {
      "midi": 78,
      "hit": false,
      "t": 70350,
      "d": 69.375,
      "v": 89
    },
    {
      "midi": 81,
      "hit": false,
      "t": 70350,
      "d": 69.375,
      "v": 96
    },
    {
      "midi": 71,
      "hit": false,
      "t": 70800,
      "d": 69.375,
      "v": 87
    },
    {
      "midi": 74,
      "hit": false,
      "t": 70800,
      "d": 69.375,
      "v": 93
    },
    {
      "midi": 79,
      "hit": false,
      "t": 70800,
      "d": 69.375,
      "v": 91
    },
    {
      "midi": 71,
      "hit": false,
      "t": 70950,
      "d": 69.375,
      "v": 86
    },
    {
      "midi": 74,
      "hit": false,
      "t": 70950,
      "d": 69.375,
      "v": 86
    },
    {
      "midi": 79,
      "hit": false,
      "t": 70950,
      "d": 69.375,
      "v": 90
    },
    {
      "midi": 71,
      "hit": false,
      "t": 71100,
      "d": 69.375,
      "v": 89
    },
    {
      "midi": 74,
      "hit": false,
      "t": 71100,
      "d": 69.375,
      "v": 95
    },
    {
      "midi": 78,
      "hit": false,
      "t": 71100,
      "d": 131.875,
      "v": 91
    },
    {
      "midi": 71,
      "hit": false,
      "t": 71250,
      "d": 69.375,
      "v": 93
    },
    {
      "midi": 74,
      "hit": false,
      "t": 71250,
      "d": 69.375,
      "v": 96
    },
    {
      "midi": 79,
      "hit": false,
      "t": 71250,
      "d": 69.375,
      "v": 93
    },
    {
      "midi": 71,
      "hit": false,
      "t": 71400,
      "d": 69.375,
      "v": 95
    },
    {
      "midi": 74,
      "hit": false,
      "t": 71400,
      "d": 69.375,
      "v": 93
    },
    {
      "midi": 79,
      "hit": false,
      "t": 71400,
      "d": 69.375,
      "v": 90
    },
    {
      "midi": 62,
      "hit": false,
      "t": 71400,
      "d": 297.5,
      "v": 1
    },
    {
      "midi": 55,
      "hit": false,
      "t": 71400,
      "d": 1797.5,
      "v": 1
    },
    {
      "midi": 59,
      "hit": false,
      "t": 71400,
      "d": 1797.5,
      "v": 1
    },
    {
      "midi": 71,
      "hit": false,
      "t": 71550,
      "d": 69.375,
      "v": 91
    },
    {
      "midi": 74,
      "hit": false,
      "t": 71550,
      "d": 69.375,
      "v": 92
    },
    {
      "midi": 79,
      "hit": false,
      "t": 71550,
      "d": 69.375,
      "v": 95
    },
    {
      "midi": 71,
      "hit": false,
      "t": 71700,
      "d": 69.375,
      "v": 93
    },
    {
      "midi": 74,
      "hit": false,
      "t": 71700,
      "d": 69.375,
      "v": 95
    },
    {
      "midi": 78,
      "hit": false,
      "t": 71700,
      "d": 144.375,
      "v": 94
    },
    {
      "midi": 64,
      "hit": false,
      "t": 71700,
      "d": 297.5,
      "v": 1
    },
    {
      "midi": 71,
      "hit": false,
      "t": 71850,
      "d": 69.375,
      "v": 89
    },
    {
      "midi": 74,
      "hit": false,
      "t": 71850,
      "d": 69.375,
      "v": 90
    },
    {
      "midi": 79,
      "hit": false,
      "t": 71850,
      "d": 69.375,
      "v": 89
    },
    {
      "midi": 74,
      "hit": false,
      "t": 72000,
      "d": 69.375,
      "v": 91
    },
    {
      "midi": 83,
      "hit": false,
      "t": 72000,
      "d": 69.375,
      "v": 89
    },
    {
      "midi": 86,
      "hit": false,
      "t": 72000,
      "d": 69.375,
      "v": 95
    },
    {
      "midi": 65,
      "hit": false,
      "t": 72000,
      "d": 297.5,
      "v": 1
    },
    {
      "midi": 74,
      "hit": false,
      "t": 72150,
      "d": 69.375,
      "v": 89
    },
    {
      "midi": 81,
      "hit": false,
      "t": 72150,
      "d": 69.375,
      "v": 94
    },
    {
      "midi": 84,
      "hit": false,
      "t": 72150,
      "d": 69.375,
      "v": 92
    },
    {
      "midi": 74,
      "hit": false,
      "t": 72300,
      "d": 69.375,
      "v": 91
    },
    {
      "midi": 81,
      "hit": false,
      "t": 72300,
      "d": 69.375,
      "v": 96
    },
    {
      "midi": 84,
      "hit": false,
      "t": 72300,
      "d": 69.375,
      "v": 94
    },
    {
      "midi": 64,
      "hit": false,
      "t": 72300,
      "d": 270.625,
      "v": 1
    },
    {
      "midi": 74,
      "hit": false,
      "t": 72450,
      "d": 69.375,
      "v": 89
    },
    {
      "midi": 79,
      "hit": false,
      "t": 72450,
      "d": 69.375,
      "v": 92
    },
    {
      "midi": 83,
      "hit": false,
      "t": 72450,
      "d": 69.375,
      "v": 91
    },
    {
      "midi": 74,
      "hit": false,
      "t": 72600,
      "d": 69.375,
      "v": 93
    },
    {
      "midi": 79,
      "hit": false,
      "t": 72600,
      "d": 69.375,
      "v": 92
    },
    {
      "midi": 83,
      "hit": false,
      "t": 72600,
      "d": 69.375,
      "v": 90
    },
    {
      "midi": 62,
      "hit": false,
      "t": 72600,
      "d": 297.5,
      "v": 1
    },
    {
      "midi": 72,
      "hit": false,
      "t": 72750,
      "d": 69.375,
      "v": 93
    },
    {
      "midi": 78,
      "hit": false,
      "t": 72750,
      "d": 69.375,
      "v": 91
    },
    {
      "midi": 81,
      "hit": false,
      "t": 72750,
      "d": 69.375,
      "v": 93
    },
    {
      "midi": 65,
      "hit": false,
      "t": 72900,
      "d": 297.5,
      "v": 1
    },
    {
      "midi": 84,
      "hit": false,
      "t": 73200,
      "d": 81.875,
      "v": 122
    },
    {
      "midi": 82,
      "hit": false,
      "t": 73200,
      "d": 83.125,
      "v": 109
    },
    {
      "midi": 76,
      "hit": false,
      "t": 73200,
      "d": 86.25,
      "v": 123
    },
    {
      "midi": 79,
      "hit": false,
      "t": 73200,
      "d": 88.125,
      "v": 127
    },
    {
      "midi": 55,
      "hit": false,
      "t": 73200,
      "d": 2397.5,
      "v": 1
    },
    {
      "midi": 58,
      "hit": false,
      "t": 73200,
      "d": 2397.5,
      "v": 1
    },
    {
      "midi": 60,
      "hit": false,
      "t": 73200,
      "d": 2397.5,
      "v": 1
    },
    {
      "midi": 64,
      "hit": false,
      "t": 73200,
      "d": 2397.5,
      "v": 1
    },
    {
      "midi": 79,
      "hit": false,
      "t": 73350,
      "d": 56.875,
      "v": 121
    },
    {
      "midi": 82,
      "hit": false,
      "t": 73350,
      "d": 58.125,
      "v": 96
    },
    {
      "midi": 84,
      "hit": false,
      "t": 73350,
      "d": 63.125,
      "v": 114
    },
    {
      "midi": 76,
      "hit": false,
      "t": 73350,
      "d": 67.5,
      "v": 117
    },
    {
      "midi": 84,
      "hit": false,
      "t": 73650,
      "d": 73.75,
      "v": 123
    },
    {
      "midi": 76,
      "hit": false,
      "t": 73650,
      "d": 78.75,
      "v": 127
    },
    {
      "midi": 79,
      "hit": false,
      "t": 73650,
      "d": 78.75,
      "v": 127
    },
    {
      "midi": 82,
      "hit": false,
      "t": 73650,
      "d": 81.875,
      "v": 115
    },
    {
      "midi": 84,
      "hit": false,
      "t": 73800,
      "d": 72.5,
      "v": 127
    },
    {
      "midi": 79,
      "hit": false,
      "t": 73800,
      "d": 73.75,
      "v": 127
    },
    {
      "midi": 76,
      "hit": false,
      "t": 73800,
      "d": 75.625,
      "v": 127
    },
    {
      "midi": 82,
      "hit": false,
      "t": 73800,
      "d": 76.875,
      "v": 109
    },
    {
      "midi": 84,
      "hit": false,
      "t": 73950,
      "d": 42.5,
      "v": 126
    },
    {
      "midi": 79,
      "hit": false,
      "t": 73950,
      "d": 44.375,
      "v": 127
    },
    {
      "midi": 82,
      "hit": false,
      "t": 73950,
      "d": 53.75,
      "v": 114
    },
    {
      "midi": 76,
      "hit": false,
      "t": 73950,
      "d": 55,
      "v": 127
    },
    {
      "midi": 79,
      "hit": false,
      "t": 74250,
      "d": 66.25,
      "v": 127
    },
    {
      "midi": 84,
      "hit": false,
      "t": 74250,
      "d": 67.5,
      "v": 124
    },
    {
      "midi": 82,
      "hit": false,
      "t": 74250,
      "d": 72.5,
      "v": 114
    },
    {
      "midi": 76,
      "hit": false,
      "t": 74250,
      "d": 73.75,
      "v": 127
    },
    {
      "midi": 79,
      "hit": false,
      "t": 74400,
      "d": 58.125,
      "v": 127
    },
    {
      "midi": 84,
      "hit": false,
      "t": 74400,
      "d": 61.25,
      "v": 127
    },
    {
      "midi": 82,
      "hit": false,
      "t": 74400,
      "d": 63.125,
      "v": 127
    },
    {
      "midi": 76,
      "hit": false,
      "t": 74400,
      "d": 66.25,
      "v": 121
    },
    {
      "midi": 79,
      "hit": false,
      "t": 74550,
      "d": 47.5,
      "v": 126
    },
    {
      "midi": 84,
      "hit": false,
      "t": 74550,
      "d": 53.75,
      "v": 127
    },
    {
      "midi": 82,
      "hit": false,
      "t": 74550,
      "d": 58.125,
      "v": 127
    },
    {
      "midi": 76,
      "hit": false,
      "t": 74550,
      "d": 61.25,
      "v": 124
    },
    {
      "midi": 79,
      "hit": false,
      "t": 74850,
      "d": 72.5,
      "v": 127
    },
    {
      "midi": 84,
      "hit": false,
      "t": 74850,
      "d": 72.5,
      "v": 127
    },
    {
      "midi": 82,
      "hit": false,
      "t": 74850,
      "d": 73.75,
      "v": 108
    },
    {
      "midi": 76,
      "hit": false,
      "t": 74850,
      "d": 78.75,
      "v": 127
    },
    {
      "midi": 84,
      "hit": false,
      "t": 75000,
      "d": 78.75,
      "v": 125
    },
    {
      "midi": 79,
      "hit": false,
      "t": 75000,
      "d": 80,
      "v": 127
    },
    {
      "midi": 82,
      "hit": false,
      "t": 75000,
      "d": 83.125,
      "v": 102
    },
    {
      "midi": 76,
      "hit": false,
      "t": 75000,
      "d": 85,
      "v": 124
    },
    {
      "midi": 79,
      "hit": false,
      "t": 75150,
      "d": 63.125,
      "v": 127
    },
    {
      "midi": 84,
      "hit": false,
      "t": 75150,
      "d": 72.5,
      "v": 124
    },
    {
      "midi": 82,
      "hit": false,
      "t": 75150,
      "d": 75.625,
      "v": 105
    },
    {
      "midi": 76,
      "hit": false,
      "t": 75150,
      "d": 85,
      "v": 126
    },
    {
      "midi": 76,
      "hit": false,
      "t": 75450,
      "d": 56.875,
      "v": 121
    },
    {
      "midi": 79,
      "hit": false,
      "t": 75450,
      "d": 56.875,
      "v": 117
    },
    {
      "midi": 82,
      "hit": false,
      "t": 75450,
      "d": 58.125,
      "v": 94
    },
    {
      "midi": 84,
      "hit": false,
      "t": 75450,
      "d": 63.125,
      "v": 117
    },
    {
      "midi": 74,
      "hit": false,
      "t": 75600,
      "d": 81.875,
      "v": 117
    },
    {
      "midi": 83,
      "hit": false,
      "t": 75600,
      "d": 81.875,
      "v": 116
    },
    {
      "midi": 79,
      "hit": false,
      "t": 75600,
      "d": 83.125,
      "v": 121
    },
    {
      "midi": 55,
      "hit": false,
      "t": 75600,
      "d": 1197.5,
      "v": 1
    },
    {
      "midi": 59,
      "hit": false,
      "t": 75600,
      "d": 1197.5,
      "v": 1
    },
    {
      "midi": 62,
      "hit": false,
      "t": 75600,
      "d": 1197.5,
      "v": 1
    },
    {
      "midi": 79,
      "hit": false,
      "t": 75750,
      "d": 63.125,
      "v": 116
    },
    {
      "midi": 83,
      "hit": false,
      "t": 75750,
      "d": 63.125,
      "v": 106
    },
    {
      "midi": 74,
      "hit": false,
      "t": 75750,
      "d": 72.5,
      "v": 113
    },
    {
      "midi": 79,
      "hit": false,
      "t": 76050,
      "d": 83.125,
      "v": 127
    },
    {
      "midi": 83,
      "hit": false,
      "t": 76050,
      "d": 88.125,
      "v": 127
    },
    {
      "midi": 74,
      "hit": false,
      "t": 76050,
      "d": 91.25,
      "v": 116
    },
    {
      "midi": 79,
      "hit": false,
      "t": 76200,
      "d": 70.625,
      "v": 120
    },
    {
      "midi": 83,
      "hit": false,
      "t": 76200,
      "d": 70.625,
      "v": 112
    },
    {
      "midi": 74,
      "hit": false,
      "t": 76200,
      "d": 73.75,
      "v": 109
    },
    {
      "midi": 74,
      "hit": false,
      "t": 76350,
      "d": 48.75,
      "v": 112
    },
    {
      "midi": 79,
      "hit": false,
      "t": 76350,
      "d": 50.625,
      "v": 124
    },
    {
      "midi": 83,
      "hit": false,
      "t": 76350,
      "d": 53.75,
      "v": 118
    },
    {
      "midi": 83,
      "hit": false,
      "t": 76650,
      "d": 81.875,
      "v": 122
    },
    {
      "midi": 79,
      "hit": false,
      "t": 76650,
      "d": 88.125,
      "v": 127
    },
    {
      "midi": 74,
      "hit": false,
      "t": 76650,
      "d": 89.375,
      "v": 112
    },
    {
      "midi": 74,
      "hit": false,
      "t": 76800,
      "d": 56.875,
      "v": 108
    },
    {
      "midi": 79,
      "hit": false,
      "t": 76800,
      "d": 58.125,
      "v": 116
    },
    {
      "midi": 83,
      "hit": false,
      "t": 76800,
      "d": 63.125,
      "v": 112
    },
    {
      "midi": 83,
      "hit": false,
      "t": 76950,
      "d": 56.875,
      "v": 126
    },
    {
      "midi": 74,
      "hit": false,
      "t": 76950,
      "d": 58.125,
      "v": 116
    },
    {
      "midi": 79,
      "hit": false,
      "t": 76950,
      "d": 58.125,
      "v": 125
    },
    {
      "midi": 74,
      "hit": false,
      "t": 77250,
      "d": 83.125,
      "v": 118
    },
    {
      "midi": 79,
      "hit": false,
      "t": 77250,
      "d": 85,
      "v": 127
    },
    {
      "midi": 83,
      "hit": false,
      "t": 77250,
      "d": 88.125,
      "v": 117
    },
    {
      "midi": 79,
      "hit": false,
      "t": 77400,
      "d": 73.75,
      "v": 111
    },
    {
      "midi": 74,
      "hit": false,
      "t": 77400,
      "d": 80,
      "v": 99
    },
    {
      "midi": 83,
      "hit": false,
      "t": 77400,
      "d": 80,
      "v": 111
    },
    {
      "midi": 79,
      "hit": false,
      "t": 77550,
      "d": 95.625,
      "v": 123
    },
    {
      "midi": 74,
      "hit": false,
      "t": 77550,
      "d": 100.625,
      "v": 115
    },
    {
      "midi": 83,
      "hit": false,
      "t": 77550,
      "d": 101.875,
      "v": 114
    },
    {
      "midi": 83,
      "hit": false,
      "t": 77850,
      "d": 67.5,
      "v": 122
    },
    {
      "midi": 79,
      "hit": false,
      "t": 77850,
      "d": 72.5,
      "v": 127
    },
    {
      "midi": 74,
      "hit": false,
      "t": 77850,
      "d": 78.75,
      "v": 123
    },
    {
      "midi": 74,
      "hit": false,
      "t": 78000,
      "d": 47.5,
      "v": 119
    },
    {
      "midi": 69,
      "hit": false,
      "t": 78000,
      "d": 48.75,
      "v": 103
    },
    {
      "midi": 62,
      "hit": false,
      "t": 78000,
      "d": 1197.5,
      "v": 1
    },
    {
      "midi": 66,
      "hit": false,
      "t": 78000,
      "d": 1214.375,
      "v": 1
    },
    {
      "midi": 69,
      "hit": false,
      "t": 78150,
      "d": 45.625,
      "v": 100
    },
    {
      "midi": 74,
      "hit": false,
      "t": 78150,
      "d": 45.625,
      "v": 105
    },
    {
      "midi": 69,
      "hit": false,
      "t": 78300,
      "d": 51.875,
      "v": 95
    },
    {
      "midi": 78,
      "hit": false,
      "t": 78300,
      "d": 51.875,
      "v": 105
    },
    {
      "midi": 69,
      "hit": false,
      "t": 78450,
      "d": 44.375,
      "v": 91
    },
    {
      "midi": 78,
      "hit": false,
      "t": 78450,
      "d": 51.875,
      "v": 104
    },
    {
      "midi": 74,
      "hit": false,
      "t": 78600,
      "d": 44.375,
      "v": 121
    },
    {
      "midi": 69,
      "hit": false,
      "t": 78600,
      "d": 48.75,
      "v": 107
    },
    {
      "midi": 69,
      "hit": false,
      "t": 78750,
      "d": 44.375,
      "v": 106
    },
    {
      "midi": 74,
      "hit": false,
      "t": 78750,
      "d": 44.375,
      "v": 116
    },
    {
      "midi": 69,
      "hit": false,
      "t": 78900,
      "d": 47.5,
      "v": 106
    },
    {
      "midi": 78,
      "hit": false,
      "t": 78900,
      "d": 48.75,
      "v": 106
    },
    {
      "midi": 78,
      "hit": false,
      "t": 79050,
      "d": 42.5,
      "v": 97
    },
    {
      "midi": 69,
      "hit": false,
      "t": 79050,
      "d": 48.75,
      "v": 94
    },
    {
      "midi": 70,
      "hit": false,
      "t": 79200,
      "d": 51.875,
      "v": 99
    },
    {
      "midi": 72,
      "hit": false,
      "t": 79200,
      "d": 58.125,
      "v": 116
    },
    {
      "midi": 67,
      "hit": false,
      "t": 79200,
      "d": 66.25,
      "v": 105
    },
    {
      "midi": 60,
      "hit": false,
      "t": 79200,
      "d": 1197.5,
      "v": 1
    },
    {
      "midi": 64,
      "hit": false,
      "t": 79200,
      "d": 1197.5,
      "v": 1
    },
    {
      "midi": 70,
      "hit": false,
      "t": 79350,
      "d": 44.375,
      "v": 84
    },
    {
      "midi": 67,
      "hit": false,
      "t": 79350,
      "d": 53.75,
      "v": 101
    },
    {
      "midi": 72,
      "hit": false,
      "t": 79350,
      "d": 53.75,
      "v": 103
    },
    {
      "midi": 70,
      "hit": false,
      "t": 79500,
      "d": 50.625,
      "v": 92
    },
    {
      "midi": 76,
      "hit": false,
      "t": 79500,
      "d": 66.25,
      "v": 121
    },
    {
      "midi": 67,
      "hit": false,
      "t": 79500,
      "d": 67.5,
      "v": 99
    },
    {
      "midi": 70,
      "hit": false,
      "t": 79650,
      "d": 50.625,
      "v": 88
    },
    {
      "midi": 67,
      "hit": false,
      "t": 79650,
      "d": 58.125,
      "v": 92
    },
    {
      "midi": 76,
      "hit": false,
      "t": 79650,
      "d": 64.375,
      "v": 113
    },
    {
      "midi": 70,
      "hit": false,
      "t": 79800,
      "d": 44.375,
      "v": 95
    },
    {
      "midi": 72,
      "hit": false,
      "t": 79800,
      "d": 50.625,
      "v": 122
    },
    {
      "midi": 67,
      "hit": false,
      "t": 79800,
      "d": 63.125,
      "v": 103
    },
    {
      "midi": 70,
      "hit": false,
      "t": 79950,
      "d": 35,
      "v": 80
    },
    {
      "midi": 67,
      "hit": false,
      "t": 79950,
      "d": 61.25,
      "v": 86
    },
    {
      "midi": 72,
      "hit": false,
      "t": 79950,
      "d": 61.25,
      "v": 96
    },
    {
      "midi": 70,
      "hit": false,
      "t": 80100,
      "d": 51.875,
      "v": 87
    },
    {
      "midi": 67,
      "hit": false,
      "t": 80100,
      "d": 63.125,
      "v": 90
    },
    {
      "midi": 76,
      "hit": false,
      "t": 80100,
      "d": 63.125,
      "v": 115
    },
    {
      "midi": 70,
      "hit": false,
      "t": 80250,
      "d": 16.25,
      "v": 54
    },
    {
      "midi": 67,
      "hit": false,
      "t": 80250,
      "d": 35,
      "v": 76
    },
    {
      "midi": 76,
      "hit": false,
      "t": 80250,
      "d": 51.875,
      "v": 90
    },
    {
      "midi": 74,
      "hit": false,
      "t": 80400,
      "d": 35,
      "v": 119
    },
    {
      "midi": 79,
      "hit": false,
      "t": 80400,
      "d": 35,
      "v": 119
    },
    {
      "midi": 71,
      "hit": false,
      "t": 80400,
      "d": 44.375,
      "v": 99
    },
    {
      "midi": 55,
      "hit": false,
      "t": 80400,
      "d": 2397.5,
      "v": 1
    },
    {
      "midi": 59,
      "hit": false,
      "t": 80400,
      "d": 2397.5,
      "v": 1
    },
    {
      "midi": 62,
      "hit": false,
      "t": 80400,
      "d": 2397.5,
      "v": 1
    },
    {
      "midi": 79,
      "hit": false,
      "t": 80550,
      "d": 38.125,
      "v": 97
    },
    {
      "midi": 74,
      "hit": false,
      "t": 80550,
      "d": 41.25,
      "v": 88
    },
    {
      "midi": 71,
      "hit": false,
      "t": 80550,
      "d": 47.5,
      "v": 90
    },
    {
      "midi": 74,
      "hit": false,
      "t": 80700,
      "d": 33.125,
      "v": 105
    },
    {
      "midi": 79,
      "hit": false,
      "t": 80700,
      "d": 41.25,
      "v": 104
    },
    {
      "midi": 71,
      "hit": false,
      "t": 80700,
      "d": 44.375,
      "v": 110
    },
    {
      "midi": 74,
      "hit": false,
      "t": 80850,
      "d": 39.375,
      "v": 99
    },
    {
      "midi": 79,
      "hit": false,
      "t": 80850,
      "d": 41.25,
      "v": 97
    },
    {
      "midi": 71,
      "hit": false,
      "t": 80850,
      "d": 44.375,
      "v": 103
    },
    {
      "midi": 74,
      "hit": false,
      "t": 81000,
      "d": 35,
      "v": 99
    },
    {
      "midi": 79,
      "hit": false,
      "t": 81000,
      "d": 35,
      "v": 96
    },
    {
      "midi": 71,
      "hit": false,
      "t": 81000,
      "d": 41.25,
      "v": 97
    },
    {
      "midi": 74,
      "hit": false,
      "t": 81150,
      "d": 31.875,
      "v": 95
    },
    {
      "midi": 79,
      "hit": false,
      "t": 81150,
      "d": 35,
      "v": 98
    },
    {
      "midi": 71,
      "hit": false,
      "t": 81150,
      "d": 41.25,
      "v": 96
    },
    {
      "midi": 74,
      "hit": false,
      "t": 81300,
      "d": 31.875,
      "v": 94
    },
    {
      "midi": 79,
      "hit": false,
      "t": 81300,
      "d": 38.125,
      "v": 100
    },
    {
      "midi": 71,
      "hit": false,
      "t": 81300,
      "d": 42.5,
      "v": 96
    },
    {
      "midi": 74,
      "hit": false,
      "t": 81450,
      "d": 28.75,
      "v": 89
    },
    {
      "midi": 71,
      "hit": false,
      "t": 81450,
      "d": 38.125,
      "v": 91
    },
    {
      "midi": 79,
      "hit": false,
      "t": 81450,
      "d": 38.125,
      "v": 95
    },
    {
      "midi": 74,
      "hit": false,
      "t": 81600,
      "d": 20.625,
      "v": 101
    },
    {
      "midi": 79,
      "hit": false,
      "t": 81600,
      "d": 25.625,
      "v": 104
    },
    {
      "midi": 71,
      "hit": false,
      "t": 81600,
      "d": 26.875,
      "v": 92
    },
    {
      "midi": 96,
      "hit": false,
      "t": 82188.75,
      "d": 61.25,
      "v": 114
    },
    {
      "midi": 95,
      "hit": false,
      "t": 82228.125,
      "d": 45.625,
      "v": 109
    },
    {
      "midi": 93,
      "hit": false,
      "t": 82253.125,
      "d": 44.375,
      "v": 112
    },
    {
      "midi": 91,
      "hit": false,
      "t": 82278.125,
      "d": 47.5,
      "v": 110
    },
    {
      "midi": 89,
      "hit": false,
      "t": 82301.25,
      "d": 47.5,
      "v": 107
    },
    {
      "midi": 88,
      "hit": false,
      "t": 82326.25,
      "d": 44.375,
      "v": 106
    },
    {
      "midi": 86,
      "hit": false,
      "t": 82345,
      "d": 48.75,
      "v": 111
    },
    {
      "midi": 84,
      "hit": false,
      "t": 82371.875,
      "d": 44.375,
      "v": 109
    },
    {
      "midi": 83,
      "hit": false,
      "t": 82393.75,
      "d": 44.375,
      "v": 104
    },
    {
      "midi": 81,
      "hit": false,
      "t": 82416.875,
      "d": 41.25,
      "v": 103
    },
    {
      "midi": 79,
      "hit": false,
      "t": 82438.75,
      "d": 36.25,
      "v": 104
    },
    {
      "midi": 77,
      "hit": false,
      "t": 82457.5,
      "d": 38.125,
      "v": 99
    },
    {
      "midi": 76,
      "hit": false,
      "t": 82476.25,
      "d": 35,
      "v": 101
    },
    {
      "midi": 74,
      "hit": false,
      "t": 82495,
      "d": 30,
      "v": 101
    },
    {
      "midi": 72,
      "hit": false,
      "t": 82512.5,
      "d": 33.125,
      "v": 102
    },
    {
      "midi": 71,
      "hit": false,
      "t": 82529.375,
      "d": 31.875,
      "v": 96
    },
    {
      "midi": 69,
      "hit": false,
      "t": 82546.875,
      "d": 31.875,
      "v": 97
    },
    {
      "midi": 67,
      "hit": false,
      "t": 82563.75,
      "d": 31.875,
      "v": 98
    },
    {
      "midi": 65,
      "hit": false,
      "t": 82579.375,
      "d": 38.125,
      "v": 94
    },
    {
      "midi": 64,
      "hit": false,
      "t": 82598.125,
      "d": 38.125,
      "v": 93
    },
    {
      "midi": 62,
      "hit": false,
      "t": 82615.625,
      "d": 41.25,
      "v": 97
    },
    {
      "midi": 60,
      "hit": false,
      "t": 82634.375,
      "d": 45.625,
      "v": 93
    },
    {
      "midi": 59,
      "hit": false,
      "t": 82654.375,
      "d": 51.875,
      "v": 97
    },
    {
      "midi": 57,
      "hit": false,
      "t": 82676.25,
      "d": 51.875,
      "v": 90
    },
    {
      "midi": 55,
      "hit": false,
      "t": 82701.25,
      "d": 55,
      "v": 92
    },
    {
      "midi": 53,
      "hit": false,
      "t": 82728.125,
      "d": 51.875,
      "v": 90
    },
    {
      "midi": 80,
      "hit": false,
      "t": 82800,
      "d": 42.5,
      "v": 86
    },
    {
      "midi": 75,
      "hit": false,
      "t": 82800,
      "d": 47.5,
      "v": 83
    },
    {
      "midi": 72,
      "hit": false,
      "t": 82800,
      "d": 53.75,
      "v": 95
    },
    {
      "midi": 60,
      "hit": false,
      "t": 82800,
      "d": 2397.5,
      "v": 1
    },
    {
      "midi": 63,
      "hit": false,
      "t": 82800,
      "d": 2397.5,
      "v": 1
    },
    {
      "midi": 68,
      "hit": false,
      "t": 82800,
      "d": 2397.5,
      "v": 1
    },
    {
      "midi": 72,
      "hit": false,
      "t": 82950,
      "d": 36.25,
      "v": 74
    },
    {
      "midi": 75,
      "hit": false,
      "t": 82950,
      "d": 42.5,
      "v": 79
    },
    {
      "midi": 80,
      "hit": false,
      "t": 82950,
      "d": 42.5,
      "v": 70
    },
    {
      "midi": 75,
      "hit": false,
      "t": 83100,
      "d": 38.125,
      "v": 83
    },
    {
      "midi": 80,
      "hit": false,
      "t": 83100,
      "d": 38.125,
      "v": 80
    },
    {
      "midi": 72,
      "hit": false,
      "t": 83100,
      "d": 41.25,
      "v": 81
    },
    {
      "midi": 80,
      "hit": false,
      "t": 83250,
      "d": 28.75,
      "v": 84
    },
    {
      "midi": 75,
      "hit": false,
      "t": 83250,
      "d": 35,
      "v": 75
    },
    {
      "midi": 72,
      "hit": false,
      "t": 83250,
      "d": 41.25,
      "v": 76
    },
    {
      "midi": 75,
      "hit": false,
      "t": 83400,
      "d": 33.125,
      "v": 79
    },
    {
      "midi": 72,
      "hit": false,
      "t": 83400,
      "d": 36.25,
      "v": 88
    },
    {
      "midi": 80,
      "hit": false,
      "t": 83400,
      "d": 38.125,
      "v": 82
    },
    {
      "midi": 75,
      "hit": false,
      "t": 83550,
      "d": 35,
      "v": 75
    },
    {
      "midi": 72,
      "hit": false,
      "t": 83550,
      "d": 39.375,
      "v": 83
    },
    {
      "midi": 80,
      "hit": false,
      "t": 83550,
      "d": 41.25,
      "v": 80
    },
    {
      "midi": 75,
      "hit": false,
      "t": 83700,
      "d": 36.25,
      "v": 84
    },
    {
      "midi": 72,
      "hit": false,
      "t": 83700,
      "d": 41.25,
      "v": 89
    },
    {
      "midi": 80,
      "hit": false,
      "t": 83700,
      "d": 42.5,
      "v": 88
    },
    {
      "midi": 75,
      "hit": false,
      "t": 83850,
      "d": 31.875,
      "v": 75
    },
    {
      "midi": 72,
      "hit": false,
      "t": 83850,
      "d": 36.25,
      "v": 85
    },
    {
      "midi": 80,
      "hit": false,
      "t": 83850,
      "d": 36.25,
      "v": 80
    },
    {
      "midi": 75,
      "hit": false,
      "t": 84000,
      "d": 35,
      "v": 85
    },
    {
      "midi": 80,
      "hit": false,
      "t": 84000,
      "d": 38.125,
      "v": 87
    },
    {
      "midi": 72,
      "hit": false,
      "t": 84000,
      "d": 41.25,
      "v": 81
    },
    {
      "midi": 75,
      "hit": false,
      "t": 84150,
      "d": 38.125,
      "v": 90
    },
    {
      "midi": 72,
      "hit": false,
      "t": 84150,
      "d": 39.375,
      "v": 86
    },
    {
      "midi": 80,
      "hit": false,
      "t": 84150,
      "d": 41.25,
      "v": 101
    },
    {
      "midi": 75,
      "hit": false,
      "t": 84300,
      "d": 42.5,
      "v": 86
    },
    {
      "midi": 72,
      "hit": false,
      "t": 84300,
      "d": 48.75,
      "v": 91
    },
    {
      "midi": 80,
      "hit": false,
      "t": 84300,
      "d": 48.75,
      "v": 101
    },
    {
      "midi": 75,
      "hit": false,
      "t": 84450,
      "d": 39.375,
      "v": 85
    },
    {
      "midi": 72,
      "hit": false,
      "t": 84450,
      "d": 42.5,
      "v": 85
    },
    {
      "midi": 80,
      "hit": false,
      "t": 84450,
      "d": 42.5,
      "v": 92
    },
    {
      "midi": 75,
      "hit": false,
      "t": 84600,
      "d": 42.5,
      "v": 99
    },
    {
      "midi": 72,
      "hit": false,
      "t": 84600,
      "d": 50.625,
      "v": 97
    },
    {
      "midi": 80,
      "hit": false,
      "t": 84600,
      "d": 55,
      "v": 105
    },
    {
      "midi": 75,
      "hit": false,
      "t": 84750,
      "d": 41.25,
      "v": 96
    },
    {
      "midi": 72,
      "hit": false,
      "t": 84750,
      "d": 42.5,
      "v": 87
    },
    {
      "midi": 80,
      "hit": false,
      "t": 84750,
      "d": 42.5,
      "v": 100
    },
    {
      "midi": 72,
      "hit": false,
      "t": 84900,
      "d": 41.25,
      "v": 86
    },
    {
      "midi": 75,
      "hit": false,
      "t": 84900,
      "d": 41.25,
      "v": 100
    },
    {
      "midi": 80,
      "hit": false,
      "t": 84900,
      "d": 42.5,
      "v": 98
    },
    {
      "midi": 75,
      "hit": false,
      "t": 85050,
      "d": 35,
      "v": 94
    },
    {
      "midi": 80,
      "hit": false,
      "t": 85050,
      "d": 36.25,
      "v": 100
    },
    {
      "midi": 72,
      "hit": false,
      "t": 85050,
      "d": 39.375,
      "v": 85
    },
    {
      "midi": 80,
      "hit": false,
      "t": 85200,
      "d": 31.875,
      "v": 101
    },
    {
      "midi": 75,
      "hit": false,
      "t": 85200,
      "d": 35,
      "v": 98
    },
    {
      "midi": 72,
      "hit": false,
      "t": 85200,
      "d": 38.125,
      "v": 91
    },
    {
      "midi": 60,
      "hit": false,
      "t": 85200,
      "d": 597.5,
      "v": 1
    },
    {
      "midi": 63,
      "hit": false,
      "t": 85200,
      "d": 597.5,
      "v": 1
    },
    {
      "midi": 80,
      "hit": false,
      "t": 85350,
      "d": 31.875,
      "v": 94
    },
    {
      "midi": 75,
      "hit": false,
      "t": 85350,
      "d": 36.25,
      "v": 96
    },
    {
      "midi": 72,
      "hit": false,
      "t": 85350,
      "d": 39.375,
      "v": 87
    },
    {
      "midi": 75,
      "hit": false,
      "t": 85500,
      "d": 33.125,
      "v": 91
    },
    {
      "midi": 80,
      "hit": false,
      "t": 85500,
      "d": 35,
      "v": 90
    },
    {
      "midi": 72,
      "hit": false,
      "t": 85500,
      "d": 38.125,
      "v": 74
    },
    {
      "midi": 75,
      "hit": false,
      "t": 85650,
      "d": 35,
      "v": 94
    },
    {
      "midi": 72,
      "hit": false,
      "t": 85650,
      "d": 39.375,
      "v": 79
    },
    {
      "midi": 80,
      "hit": false,
      "t": 85650,
      "d": 41.25,
      "v": 91
    },
    {
      "midi": 80,
      "hit": false,
      "t": 85800,
      "d": 35,
      "v": 94
    },
    {
      "midi": 75,
      "hit": false,
      "t": 85800,
      "d": 36.25,
      "v": 91
    },
    {
      "midi": 72,
      "hit": false,
      "t": 85800,
      "d": 39.375,
      "v": 89
    },
    {
      "midi": 61,
      "hit": false,
      "t": 85800,
      "d": 597.5,
      "v": 1
    },
    {
      "midi": 65,
      "hit": false,
      "t": 85800,
      "d": 597.5,
      "v": 1
    },
    {
      "midi": 80,
      "hit": false,
      "t": 85950,
      "d": 31.875,
      "v": 90
    },
    {
      "midi": 75,
      "hit": false,
      "t": 85950,
      "d": 35,
      "v": 91
    },
    {
      "midi": 72,
      "hit": false,
      "t": 85950,
      "d": 38.125,
      "v": 88
    },
    {
      "midi": 80,
      "hit": false,
      "t": 86100,
      "d": 28.75,
      "v": 97
    },
    {
      "midi": 72,
      "hit": false,
      "t": 86100,
      "d": 35,
      "v": 99
    },
    {
      "midi": 75,
      "hit": false,
      "t": 86100,
      "d": 35,
      "v": 90
    },
    {
      "midi": 75,
      "hit": false,
      "t": 86250,
      "d": 28.75,
      "v": 81
    },
    {
      "midi": 80,
      "hit": false,
      "t": 86250,
      "d": 28.75,
      "v": 76
    },
    {
      "midi": 72,
      "hit": false,
      "t": 86250,
      "d": 33.125,
      "v": 87
    },
    {
      "midi": 72,
      "hit": false,
      "t": 86400,
      "d": 42.5,
      "v": 97
    },
    {
      "midi": 75,
      "hit": false,
      "t": 86400,
      "d": 45.625,
      "v": 107
    },
    {
      "midi": 78,
      "hit": false,
      "t": 86400,
      "d": 45.625,
      "v": 113
    },
    {
      "midi": 80,
      "hit": false,
      "t": 86400,
      "d": 51.875,
      "v": 114
    },
    {
      "midi": 63,
      "hit": false,
      "t": 86400,
      "d": 597.5,
      "v": 1
    },
    {
      "midi": 66,
      "hit": false,
      "t": 86400,
      "d": 597.5,
      "v": 1
    },
    {
      "midi": 72,
      "hit": false,
      "t": 86550,
      "d": 36.25,
      "v": 87
    },
    {
      "midi": 80,
      "hit": false,
      "t": 86550,
      "d": 36.25,
      "v": 75
    },
    {
      "midi": 75,
      "hit": false,
      "t": 86550,
      "d": 38.125,
      "v": 84
    },
    {
      "midi": 78,
      "hit": false,
      "t": 86550,
      "d": 38.125,
      "v": 85
    },
    {
      "midi": 75,
      "hit": false,
      "t": 86700,
      "d": 38.125,
      "v": 100
    },
    {
      "midi": 78,
      "hit": false,
      "t": 86700,
      "d": 39.375,
      "v": 104
    },
    {
      "midi": 72,
      "hit": false,
      "t": 86700,
      "d": 41.25,
      "v": 91
    },
    {
      "midi": 80,
      "hit": false,
      "t": 86700,
      "d": 41.25,
      "v": 105
    },
    {
      "midi": 78,
      "hit": false,
      "t": 86850,
      "d": 35,
      "v": 89
    },
    {
      "midi": 80,
      "hit": false,
      "t": 86850,
      "d": 36.25,
      "v": 86
    },
    {
      "midi": 72,
      "hit": false,
      "t": 86850,
      "d": 38.125,
      "v": 75
    },
    {
      "midi": 75,
      "hit": false,
      "t": 86850,
      "d": 42.5,
      "v": 86
    },
    {
      "midi": 78,
      "hit": false,
      "t": 87000,
      "d": 35,
      "v": 105
    },
    {
      "midi": 80,
      "hit": false,
      "t": 87000,
      "d": 39.375,
      "v": 96
    },
    {
      "midi": 72,
      "hit": false,
      "t": 87000,
      "d": 42.5,
      "v": 94
    },
    {
      "midi": 75,
      "hit": false,
      "t": 87000,
      "d": 42.5,
      "v": 96
    },
    {
      "midi": 60,
      "hit": false,
      "t": 87000,
      "d": 297.5,
      "v": 1
    },
    {
      "midi": 63,
      "hit": false,
      "t": 87000,
      "d": 597.5,
      "v": 1
    },
    {
      "midi": 75,
      "hit": false,
      "t": 87150,
      "d": 36.25,
      "v": 86
    },
    {
      "midi": 78,
      "hit": false,
      "t": 87150,
      "d": 36.25,
      "v": 85
    },
    {
      "midi": 80,
      "hit": false,
      "t": 87150,
      "d": 36.25,
      "v": 86
    },
    {
      "midi": 72,
      "hit": false,
      "t": 87150,
      "d": 38.125,
      "v": 77
    },
    {
      "midi": 80,
      "hit": false,
      "t": 87300,
      "d": 23.75,
      "v": 104
    },
    {
      "midi": 78,
      "hit": false,
      "t": 87300,
      "d": 28.75,
      "v": 110
    },
    {
      "midi": 72,
      "hit": false,
      "t": 87300,
      "d": 36.25,
      "v": 82
    },
    {
      "midi": 75,
      "hit": false,
      "t": 87300,
      "d": 36.25,
      "v": 97
    },
    {
      "midi": 66,
      "hit": false,
      "t": 87300,
      "d": 297.5,
      "v": 1
    },
    {
      "midi": 78,
      "hit": false,
      "t": 87450,
      "d": 20.625,
      "v": 94
    },
    {
      "midi": 72,
      "hit": false,
      "t": 87450,
      "d": 30,
      "v": 70
    },
    {
      "midi": 75,
      "hit": false,
      "t": 87450,
      "d": 39.375,
      "v": 81
    },
    {
      "midi": 80,
      "hit": false,
      "t": 87450,
      "d": 47.5,
      "v": 94
    },
    {
      "midi": 73,
      "hit": false,
      "t": 87600,
      "d": 39.375,
      "v": 89
    },
    {
      "midi": 80,
      "hit": false,
      "t": 87600,
      "d": 47.5,
      "v": 80
    },
    {
      "midi": 77,
      "hit": false,
      "t": 87600,
      "d": 63.125,
      "v": 106
    },
    {
      "midi": 83,
      "hit": false,
      "t": 87600,
      "d": 69.375,
      "v": 110
    },
    {
      "midi": 59,
      "hit": false,
      "t": 87600,
      "d": 2397.5,
      "v": 1
    },
    {
      "midi": 61,
      "hit": false,
      "t": 87600,
      "d": 2397.5,
      "v": 1
    },
    {
      "midi": 65,
      "hit": false,
      "t": 87600,
      "d": 2397.5,
      "v": 1
    },
    {
      "midi": 77,
      "hit": false,
      "t": 87750,
      "d": 50.625,
      "v": 112
    },
    {
      "midi": 73,
      "hit": false,
      "t": 87750,
      "d": 53.75,
      "v": 76
    },
    {
      "midi": 80,
      "hit": false,
      "t": 87750,
      "d": 55,
      "v": 69
    },
    {
      "midi": 83,
      "hit": false,
      "t": 87750,
      "d": 67.5,
      "v": 91
    },
    {
      "midi": 77,
      "hit": false,
      "t": 87900,
      "d": 63.125,
      "v": 110
    },
    {
      "midi": 73,
      "hit": false,
      "t": 87900,
      "d": 67.5,
      "v": 75
    },
    {
      "midi": 83,
      "hit": false,
      "t": 87900,
      "d": 69.375,
      "v": 92
    },
    {
      "midi": 80,
      "hit": false,
      "t": 87900,
      "d": 72.5,
      "v": 85
    },
    {
      "midi": 77,
      "hit": false,
      "t": 88050,
      "d": 50.625,
      "v": 101
    },
    {
      "midi": 80,
      "hit": false,
      "t": 88050,
      "d": 67.5,
      "v": 68
    },
    {
      "midi": 73,
      "hit": false,
      "t": 88050,
      "d": 73.75,
      "v": 65
    },
    {
      "midi": 83,
      "hit": false,
      "t": 88050,
      "d": 76.875,
      "v": 69
    },
    {
      "midi": 77,
      "hit": false,
      "t": 88200,
      "d": 53.75,
      "v": 113
    },
    {
      "midi": 73,
      "hit": false,
      "t": 88200,
      "d": 58.125,
      "v": 77
    },
    {
      "midi": 83,
      "hit": false,
      "t": 88200,
      "d": 58.125,
      "v": 92
    },
    {
      "midi": 80,
      "hit": false,
      "t": 88200,
      "d": 63.125,
      "v": 82
    },
    {
      "midi": 77,
      "hit": false,
      "t": 88350,
      "d": 58.125,
      "v": 114
    },
    {
      "midi": 83,
      "hit": false,
      "t": 88350,
      "d": 61.25,
      "v": 93
    },
    {
      "midi": 73,
      "hit": false,
      "t": 88350,
      "d": 67.5,
      "v": 67
    },
    {
      "midi": 80,
      "hit": false,
      "t": 88350,
      "d": 67.5,
      "v": 76
    },
    {
      "midi": 77,
      "hit": false,
      "t": 88500,
      "d": 53.75,
      "v": 109
    },
    {
      "midi": 80,
      "hit": false,
      "t": 88500,
      "d": 58.125,
      "v": 75
    },
    {
      "midi": 83,
      "hit": false,
      "t": 88500,
      "d": 61.25,
      "v": 92
    },
    {
      "midi": 73,
      "hit": false,
      "t": 88500,
      "d": 66.25,
      "v": 68
    },
    {
      "midi": 77,
      "hit": false,
      "t": 88650,
      "d": 50.625,
      "v": 113
    },
    {
      "midi": 80,
      "hit": false,
      "t": 88650,
      "d": 53.75,
      "v": 78
    },
    {
      "midi": 83,
      "hit": false,
      "t": 88650,
      "d": 60,
      "v": 82
    },
    {
      "midi": 73,
      "hit": false,
      "t": 88650,
      "d": 73.75,
      "v": 67
    },
    {
      "midi": 77,
      "hit": false,
      "t": 88800,
      "d": 56.875,
      "v": 112
    },
    {
      "midi": 83,
      "hit": false,
      "t": 88800,
      "d": 61.25,
      "v": 89
    },
    {
      "midi": 80,
      "hit": false,
      "t": 88800,
      "d": 63.125,
      "v": 81
    },
    {
      "midi": 73,
      "hit": false,
      "t": 88800,
      "d": 72.5,
      "v": 72
    },
    {
      "midi": 77,
      "hit": false,
      "t": 88950,
      "d": 53.75,
      "v": 109
    },
    {
      "midi": 83,
      "hit": false,
      "t": 88950,
      "d": 58.125,
      "v": 88
    },
    {
      "midi": 80,
      "hit": false,
      "t": 88950,
      "d": 60,
      "v": 77
    },
    {
      "midi": 73,
      "hit": false,
      "t": 88950,
      "d": 70.625,
      "v": 68
    },
    {
      "midi": 77,
      "hit": false,
      "t": 89100,
      "d": 50.625,
      "v": 111
    },
    {
      "midi": 83,
      "hit": false,
      "t": 89100,
      "d": 56.875,
      "v": 83
    },
    {
      "midi": 80,
      "hit": false,
      "t": 89100,
      "d": 66.25,
      "v": 78
    },
    {
      "midi": 73,
      "hit": false,
      "t": 89100,
      "d": 67.5,
      "v": 70
    },
    {
      "midi": 77,
      "hit": false,
      "t": 89250,
      "d": 55,
      "v": 108
    },
    {
      "midi": 83,
      "hit": false,
      "t": 89250,
      "d": 55,
      "v": 75
    },
    {
      "midi": 80,
      "hit": false,
      "t": 89250,
      "d": 63.125,
      "v": 69
    },
    {
      "midi": 73,
      "hit": false,
      "t": 89250,
      "d": 66.25,
      "v": 74
    },
    {
      "midi": 77,
      "hit": false,
      "t": 89400,
      "d": 56.875,
      "v": 108
    },
    {
      "midi": 83,
      "hit": false,
      "t": 89400,
      "d": 61.25,
      "v": 86
    },
    {
      "midi": 80,
      "hit": false,
      "t": 89400,
      "d": 72.5,
      "v": 60
    },
    {
      "midi": 73,
      "hit": false,
      "t": 89400,
      "d": 73.75,
      "v": 64
    },
    {
      "midi": 77,
      "hit": false,
      "t": 89550,
      "d": 48.75,
      "v": 106
    },
    {
      "midi": 80,
      "hit": false,
      "t": 89550,
      "d": 61.25,
      "v": 68
    },
    {
      "midi": 83,
      "hit": false,
      "t": 89550,
      "d": 63.125,
      "v": 83
    },
    {
      "midi": 73,
      "hit": false,
      "t": 89550,
      "d": 66.25,
      "v": 63
    },
    {
      "midi": 77,
      "hit": false,
      "t": 89700,
      "d": 41.25,
      "v": 100
    },
    {
      "midi": 80,
      "hit": false,
      "t": 89700,
      "d": 61.25,
      "v": 54
    },
    {
      "midi": 83,
      "hit": false,
      "t": 89700,
      "d": 63.125,
      "v": 77
    },
    {
      "midi": 73,
      "hit": false,
      "t": 89700,
      "d": 64.375,
      "v": 60
    },
    {
      "midi": 83,
      "hit": false,
      "t": 89850,
      "d": 38.125,
      "v": 66
    },
    {
      "midi": 77,
      "hit": false,
      "t": 89850,
      "d": 39.375,
      "v": 97
    },
    {
      "midi": 80,
      "hit": false,
      "t": 89850,
      "d": 48.75,
      "v": 65
    },
    {
      "midi": 73,
      "hit": false,
      "t": 89850,
      "d": 55,
      "v": 61
    },
    {
      "midi": 75,
      "hit": false,
      "t": 90000,
      "d": 35,
      "v": 71
    },
    {
      "midi": 72,
      "hit": false,
      "t": 90000,
      "d": 55,
      "v": 92
    },
    {
      "midi": 80,
      "hit": false,
      "t": 90000,
      "d": 55,
      "v": 72
    },
    {
      "midi": 60,
      "hit": false,
      "t": 90000,
      "d": 2397.5,
      "v": 1
    },
    {
      "midi": 63,
      "hit": false,
      "t": 90000,
      "d": 2397.5,
      "v": 1
    },
    {
      "midi": 68,
      "hit": false,
      "t": 90000,
      "d": 2397.5,
      "v": 1
    },
    {
      "midi": 80,
      "hit": false,
      "t": 90150,
      "d": 48.75,
      "v": 71
    },
    {
      "midi": 72,
      "hit": false,
      "t": 90150,
      "d": 53.75,
      "v": 71
    },
    {
      "midi": 75,
      "hit": false,
      "t": 90150,
      "d": 58.125,
      "v": 75
    },
    {
      "midi": 75,
      "hit": false,
      "t": 90300,
      "d": 50.625,
      "v": 73
    },
    {
      "midi": 72,
      "hit": false,
      "t": 90300,
      "d": 55,
      "v": 89
    },
    {
      "midi": 80,
      "hit": false,
      "t": 90300,
      "d": 58.125,
      "v": 79
    },
    {
      "midi": 75,
      "hit": false,
      "t": 90450,
      "d": 53.75,
      "v": 80
    },
    {
      "midi": 72,
      "hit": false,
      "t": 90450,
      "d": 58.125,
      "v": 83
    },
    {
      "midi": 80,
      "hit": false,
      "t": 90450,
      "d": 58.125,
      "v": 75
    },
    {
      "midi": 75,
      "hit": false,
      "t": 90600,
      "d": 38.125,
      "v": 76
    },
    {
      "midi": 80,
      "hit": false,
      "t": 90600,
      "d": 56.875,
      "v": 85
    },
    {
      "midi": 72,
      "hit": false,
      "t": 90600,
      "d": 60,
      "v": 86
    },
    {
      "midi": 75,
      "hit": false,
      "t": 90750,
      "d": 47.5,
      "v": 73
    },
    {
      "midi": 80,
      "hit": false,
      "t": 90750,
      "d": 48.75,
      "v": 71
    },
    {
      "midi": 72,
      "hit": false,
      "t": 90750,
      "d": 50.625,
      "v": 83
    },
    {
      "midi": 75,
      "hit": false,
      "t": 90900,
      "d": 36.25,
      "v": 77
    },
    {
      "midi": 80,
      "hit": false,
      "t": 90900,
      "d": 48.75,
      "v": 74
    },
    {
      "midi": 72,
      "hit": false,
      "t": 90900,
      "d": 50.625,
      "v": 87
    },
    {
      "midi": 80,
      "hit": false,
      "t": 91050,
      "d": 35,
      "v": 77
    },
    {
      "midi": 75,
      "hit": false,
      "t": 91050,
      "d": 38.125,
      "v": 76
    },
    {
      "midi": 72,
      "hit": false,
      "t": 91050,
      "d": 44.375,
      "v": 79
    },
    {
      "midi": 80,
      "hit": false,
      "t": 91200,
      "d": 33.125,
      "v": 93
    },
    {
      "midi": 75,
      "hit": false,
      "t": 91200,
      "d": 35,
      "v": 83
    },
    {
      "midi": 72,
      "hit": false,
      "t": 91200,
      "d": 41.25,
      "v": 81
    },
    {
      "midi": 75,
      "hit": false,
      "t": 91350,
      "d": 31.875,
      "v": 78
    },
    {
      "midi": 80,
      "hit": false,
      "t": 91350,
      "d": 36.25,
      "v": 80
    },
    {
      "midi": 72,
      "hit": false,
      "t": 91350,
      "d": 39.375,
      "v": 87
    },
    {
      "midi": 75,
      "hit": false,
      "t": 91500,
      "d": 38.125,
      "v": 79
    },
    {
      "midi": 80,
      "hit": false,
      "t": 91500,
      "d": 41.25,
      "v": 86
    },
    {
      "midi": 72,
      "hit": false,
      "t": 91500,
      "d": 47.5,
      "v": 80
    },
    {
      "midi": 75,
      "hit": false,
      "t": 91650,
      "d": 38.125,
      "v": 86
    },
    {
      "midi": 80,
      "hit": false,
      "t": 91650,
      "d": 41.25,
      "v": 89
    },
    {
      "midi": 72,
      "hit": false,
      "t": 91650,
      "d": 44.375,
      "v": 79
    },
    {
      "midi": 80,
      "hit": false,
      "t": 91800,
      "d": 38.125,
      "v": 86
    },
    {
      "midi": 72,
      "hit": false,
      "t": 91800,
      "d": 41.25,
      "v": 79
    },
    {
      "midi": 75,
      "hit": false,
      "t": 91800,
      "d": 41.25,
      "v": 81
    },
    {
      "midi": 80,
      "hit": false,
      "t": 91950,
      "d": 33.125,
      "v": 87
    },
    {
      "midi": 72,
      "hit": false,
      "t": 91950,
      "d": 39.375,
      "v": 74
    },
    {
      "midi": 75,
      "hit": false,
      "t": 91950,
      "d": 41.25,
      "v": 87
    },
    {
      "midi": 80,
      "hit": false,
      "t": 92100,
      "d": 33.125,
      "v": 85
    },
    {
      "midi": 72,
      "hit": false,
      "t": 92100,
      "d": 38.125,
      "v": 74
    },
    {
      "midi": 75,
      "hit": false,
      "t": 92100,
      "d": 44.375,
      "v": 89
    },
    {
      "midi": 72,
      "hit": false,
      "t": 92250,
      "d": 17.5,
      "v": 58
    },
    {
      "midi": 75,
      "hit": false,
      "t": 92250,
      "d": 33.125,
      "v": 81
    },
    {
      "midi": 80,
      "hit": false,
      "t": 92250,
      "d": 41.25,
      "v": 88
    },
    {
      "midi": 79,
      "hit": false,
      "t": 92400,
      "d": 35,
      "v": 125
    },
    {
      "midi": 75,
      "hit": false,
      "t": 92400,
      "d": 60,
      "v": 95
    },
    {
      "midi": 82,
      "hit": false,
      "t": 92400,
      "d": 60,
      "v": 108
    },
    {
      "midi": 85,
      "hit": false,
      "t": 92400,
      "d": 69.375,
      "v": 95
    },
    {
      "midi": 67,
      "hit": false,
      "t": 92400,
      "d": 925.625,
      "v": 1
    },
    {
      "midi": 63,
      "hit": false,
      "t": 92400,
      "d": 931.875,
      "v": 1
    },
    {
      "midi": 79,
      "hit": false,
      "t": 92550,
      "d": 50.625,
      "v": 102
    },
    {
      "midi": 82,
      "hit": false,
      "t": 92550,
      "d": 50.625,
      "v": 83
    },
    {
      "midi": 75,
      "hit": false,
      "t": 92550,
      "d": 51.875,
      "v": 64
    },
    {
      "midi": 85,
      "hit": false,
      "t": 92550,
      "d": 55,
      "v": 69
    },
    {
      "midi": 82,
      "hit": false,
      "t": 92700,
      "d": 41.25,
      "v": 80
    },
    {
      "midi": 79,
      "hit": false,
      "t": 92700,
      "d": 47.5,
      "v": 107
    },
    {
      "midi": 75,
      "hit": false,
      "t": 92700,
      "d": 53.75,
      "v": 81
    },
    {
      "midi": 85,
      "hit": false,
      "t": 92700,
      "d": 58.125,
      "v": 67
    },
    {
      "midi": 82,
      "hit": false,
      "t": 92850,
      "d": 48.75,
      "v": 84
    },
    {
      "midi": 79,
      "hit": false,
      "t": 92850,
      "d": 50.625,
      "v": 104
    },
    {
      "midi": 75,
      "hit": false,
      "t": 92850,
      "d": 63.125,
      "v": 80
    },
    {
      "midi": 85,
      "hit": false,
      "t": 92850,
      "d": 66.25,
      "v": 73
    },
    {
      "midi": 79,
      "hit": false,
      "t": 93000,
      "d": 50.625,
      "v": 110
    },
    {
      "midi": 82,
      "hit": false,
      "t": 93000,
      "d": 50.625,
      "v": 83
    },
    {
      "midi": 75,
      "hit": false,
      "t": 93000,
      "d": 61.25,
      "v": 82
    },
    {
      "midi": 85,
      "hit": false,
      "t": 93000,
      "d": 66.25,
      "v": 75
    },
    {
      "midi": 82,
      "hit": false,
      "t": 93150,
      "d": 42.5,
      "v": 76
    },
    {
      "midi": 79,
      "hit": false,
      "t": 93150,
      "d": 50.625,
      "v": 104
    },
    {
      "midi": 75,
      "hit": false,
      "t": 93150,
      "d": 55,
      "v": 75
    },
    {
      "midi": 85,
      "hit": false,
      "t": 93150,
      "d": 64.375,
      "v": 61
    },
    {
      "midi": 82,
      "hit": false,
      "t": 93300,
      "d": 42.5,
      "v": 73
    },
    {
      "midi": 79,
      "hit": false,
      "t": 93300,
      "d": 45.625,
      "v": 109
    },
    {
      "midi": 75,
      "hit": false,
      "t": 93300,
      "d": 50.625,
      "v": 68
    },
    {
      "midi": 85,
      "hit": false,
      "t": 93300,
      "d": 64.375,
      "v": 68
    },
    {
      "midi": 62,
      "hit": false,
      "t": 93300,
      "d": 297.5,
      "v": 1
    },
    {
      "midi": 66,
      "hit": false,
      "t": 93300,
      "d": 297.5,
      "v": 1
    },
    {
      "midi": 82,
      "hit": false,
      "t": 93450,
      "d": 38.125,
      "v": 72
    },
    {
      "midi": 79,
      "hit": false,
      "t": 93450,
      "d": 39.375,
      "v": 101
    },
    {
      "midi": 85,
      "hit": false,
      "t": 93450,
      "d": 42.5,
      "v": 44
    },
    {
      "midi": 75,
      "hit": false,
      "t": 93450,
      "d": 48.75,
      "v": 63
    },
    {
      "midi": 77,
      "hit": false,
      "t": 93600,
      "d": 39.375,
      "v": 116
    },
    {
      "midi": 83,
      "hit": false,
      "t": 93600,
      "d": 41.25,
      "v": 97
    },
    {
      "midi": 73,
      "hit": false,
      "t": 93600,
      "d": 42.5,
      "v": 93
    },
    {
      "midi": 80,
      "hit": false,
      "t": 93600,
      "d": 50.625,
      "v": 88
    },
    {
      "midi": 61,
      "hit": false,
      "t": 93600,
      "d": 1197.5,
      "v": 1
    },
    {
      "midi": 65,
      "hit": false,
      "t": 93600,
      "d": 1197.5,
      "v": 1
    },
    {
      "midi": 83,
      "hit": false,
      "t": 93750,
      "d": 61.25,
      "v": 83
    },
    {
      "midi": 80,
      "hit": false,
      "t": 93750,
      "d": 66.25,
      "v": 70
    },
    {
      "midi": 77,
      "hit": false,
      "t": 93750,
      "d": 69.375,
      "v": 100
    },
    {
      "midi": 73,
      "hit": false,
      "t": 93750,
      "d": 72.5,
      "v": 58
    },
    {
      "midi": 83,
      "hit": false,
      "t": 93900,
      "d": 56.875,
      "v": 86
    },
    {
      "midi": 77,
      "hit": false,
      "t": 93900,
      "d": 60,
      "v": 103
    },
    {
      "midi": 80,
      "hit": false,
      "t": 93900,
      "d": 60,
      "v": 76
    },
    {
      "midi": 73,
      "hit": false,
      "t": 93900,
      "d": 64.375,
      "v": 70
    },
    {
      "midi": 83,
      "hit": false,
      "t": 94050,
      "d": 41.25,
      "v": 70
    },
    {
      "midi": 80,
      "hit": false,
      "t": 94050,
      "d": 53.75,
      "v": 70
    },
    {
      "midi": 77,
      "hit": false,
      "t": 94050,
      "d": 56.875,
      "v": 96
    },
    {
      "midi": 73,
      "hit": false,
      "t": 94050,
      "d": 67.5,
      "v": 67
    },
    {
      "midi": 77,
      "hit": false,
      "t": 94200,
      "d": 51.875,
      "v": 104
    },
    {
      "midi": 80,
      "hit": false,
      "t": 94200,
      "d": 58.125,
      "v": 68
    },
    {
      "midi": 83,
      "hit": false,
      "t": 94200,
      "d": 58.125,
      "v": 82
    },
    {
      "midi": 73,
      "hit": false,
      "t": 94200,
      "d": 69.375,
      "v": 62
    },
    {
      "midi": 77,
      "hit": false,
      "t": 94350,
      "d": 48.75,
      "v": 106
    },
    {
      "midi": 80,
      "hit": false,
      "t": 94350,
      "d": 55,
      "v": 73
    },
    {
      "midi": 73,
      "hit": false,
      "t": 94350,
      "d": 60,
      "v": 66
    },
    {
      "midi": 83,
      "hit": false,
      "t": 94350,
      "d": 60,
      "v": 74
    },
    {
      "midi": 77,
      "hit": false,
      "t": 94500,
      "d": 53.75,
      "v": 103
    },
    {
      "midi": 80,
      "hit": false,
      "t": 94500,
      "d": 56.875,
      "v": 72
    },
    {
      "midi": 83,
      "hit": false,
      "t": 94500,
      "d": 61.25,
      "v": 70
    },
    {
      "midi": 73,
      "hit": false,
      "t": 94500,
      "d": 63.125,
      "v": 54
    },
    {
      "midi": 83,
      "hit": false,
      "t": 94650,
      "d": 39.375,
      "v": 63
    },
    {
      "midi": 77,
      "hit": false,
      "t": 94650,
      "d": 50.625,
      "v": 106
    },
    {
      "midi": 73,
      "hit": false,
      "t": 94650,
      "d": 58.125,
      "v": 60
    },
    {
      "midi": 80,
      "hit": false,
      "t": 94650,
      "d": 58.125,
      "v": 67
    },
    {
      "midi": 75,
      "hit": false,
      "t": 94800,
      "d": 44.375,
      "v": 75
    },
    {
      "midi": 72,
      "hit": false,
      "t": 94800,
      "d": 61.25,
      "v": 97
    },
    {
      "midi": 80,
      "hit": false,
      "t": 94800,
      "d": 63.125,
      "v": 76
    },
    {
      "midi": 60,
      "hit": false,
      "t": 94800,
      "d": 2397.5,
      "v": 1
    },
    {
      "midi": 63,
      "hit": false,
      "t": 94800,
      "d": 2397.5,
      "v": 1
    },
    {
      "midi": 68,
      "hit": false,
      "t": 94800,
      "d": 2397.5,
      "v": 1
    },
    {
      "midi": 75,
      "hit": false,
      "t": 94950,
      "d": 53.75,
      "v": 72
    },
    {
      "midi": 80,
      "hit": false,
      "t": 94950,
      "d": 53.75,
      "v": 70
    },
    {
      "midi": 72,
      "hit": false,
      "t": 94950,
      "d": 60,
      "v": 73
    },
    {
      "midi": 72,
      "hit": false,
      "t": 95100,
      "d": 56.875,
      "v": 76
    },
    {
      "midi": 80,
      "hit": false,
      "t": 95100,
      "d": 56.875,
      "v": 70
    },
    {
      "midi": 75,
      "hit": false,
      "t": 95100,
      "d": 64.375,
      "v": 77
    },
    {
      "midi": 72,
      "hit": false,
      "t": 95250,
      "d": 61.25,
      "v": 71
    },
    {
      "midi": 80,
      "hit": false,
      "t": 95250,
      "d": 63.125,
      "v": 67
    },
    {
      "midi": 75,
      "hit": false,
      "t": 95250,
      "d": 66.25,
      "v": 67
    },
    {
      "midi": 72,
      "hit": false,
      "t": 95400,
      "d": 50.625,
      "v": 73
    },
    {
      "midi": 75,
      "hit": false,
      "t": 95400,
      "d": 58.125,
      "v": 74
    },
    {
      "midi": 80,
      "hit": false,
      "t": 95400,
      "d": 60,
      "v": 71
    },
    {
      "midi": 75,
      "hit": false,
      "t": 95550,
      "d": 48.75,
      "v": 77
    },
    {
      "midi": 72,
      "hit": false,
      "t": 95550,
      "d": 50.625,
      "v": 73
    },
    {
      "midi": 80,
      "hit": false,
      "t": 95550,
      "d": 51.875,
      "v": 71
    },
    {
      "midi": 80,
      "hit": false,
      "t": 95700,
      "d": 39.375,
      "v": 74
    },
    {
      "midi": 72,
      "hit": false,
      "t": 95700,
      "d": 41.25,
      "v": 68
    },
    {
      "midi": 75,
      "hit": false,
      "t": 95700,
      "d": 44.375,
      "v": 77
    },
    {
      "midi": 80,
      "hit": false,
      "t": 95850,
      "d": 38.125,
      "v": 72
    },
    {
      "midi": 72,
      "hit": false,
      "t": 95850,
      "d": 41.25,
      "v": 70
    },
    {
      "midi": 75,
      "hit": false,
      "t": 95850,
      "d": 42.5,
      "v": 78
    },
    {
      "midi": 80,
      "hit": false,
      "t": 96000,
      "d": 30,
      "v": 76
    },
    {
      "midi": 72,
      "hit": false,
      "t": 96000,
      "d": 35,
      "v": 78
    },
    {
      "midi": 75,
      "hit": false,
      "t": 96000,
      "d": 35,
      "v": 81
    },
    {
      "midi": 80,
      "hit": false,
      "t": 96150,
      "d": 30,
      "v": 81
    },
    {
      "midi": 72,
      "hit": false,
      "t": 96150,
      "d": 35,
      "v": 76
    },
    {
      "midi": 75,
      "hit": false,
      "t": 96150,
      "d": 35,
      "v": 81
    },
    {
      "midi": 80,
      "hit": false,
      "t": 96300,
      "d": 23.75,
      "v": 75
    },
    {
      "midi": 72,
      "hit": false,
      "t": 96300,
      "d": 25.625,
      "v": 73
    },
    {
      "midi": 75,
      "hit": false,
      "t": 96300,
      "d": 28.75,
      "v": 84
    },
    {
      "midi": 96,
      "hit": false,
      "t": 96731.25,
      "d": 23.75,
      "v": 111
    },
    {
      "midi": 95,
      "hit": false,
      "t": 96753.125,
      "d": 16.25,
      "v": 104
    },
    {
      "midi": 93,
      "hit": false,
      "t": 96765.625,
      "d": 14.375,
      "v": 103
    },
    {
      "midi": 91,
      "hit": false,
      "t": 96776.25,
      "d": 13.125,
      "v": 105
    },
    {
      "midi": 89,
      "hit": false,
      "t": 96787.5,
      "d": 13.125,
      "v": 101
    },
    {
      "midi": 88,
      "hit": false,
      "t": 96796.875,
      "d": 11.25,
      "v": 106
    },
    {
      "midi": 86,
      "hit": false,
      "t": 96803.125,
      "d": 14.375,
      "v": 101
    },
    {
      "midi": 84,
      "hit": false,
      "t": 96813.75,
      "d": 13.125,
      "v": 99
    },
    {
      "midi": 83,
      "hit": false,
      "t": 96823.125,
      "d": 13.125,
      "v": 98
    },
    {
      "midi": 81,
      "hit": false,
      "t": 96831.25,
      "d": 14.375,
      "v": 95
    },
    {
      "midi": 79,
      "hit": false,
      "t": 96841.875,
      "d": 13.125,
      "v": 101
    },
    {
      "midi": 77,
      "hit": false,
      "t": 96848.125,
      "d": 14.375,
      "v": 101
    },
    {
      "midi": 76,
      "hit": false,
      "t": 96859.375,
      "d": 11.25,
      "v": 101
    },
    {
      "midi": 74,
      "hit": false,
      "t": 96866.875,
      "d": 14.375,
      "v": 95
    },
    {
      "midi": 72,
      "hit": false,
      "t": 96876.25,
      "d": 13.125,
      "v": 96
    },
    {
      "midi": 71,
      "hit": false,
      "t": 96884.375,
      "d": 14.375,
      "v": 90
    },
    {
      "midi": 69,
      "hit": false,
      "t": 96893.75,
      "d": 13.125,
      "v": 94
    },
    {
      "midi": 67,
      "hit": false,
      "t": 96903.125,
      "d": 13.125,
      "v": 93
    },
    {
      "midi": 65,
      "hit": false,
      "t": 96912.5,
      "d": 14.375,
      "v": 89
    },
    {
      "midi": 64,
      "hit": false,
      "t": 96921.875,
      "d": 16.25,
      "v": 87
    },
    {
      "midi": 62,
      "hit": false,
      "t": 96932.5,
      "d": 16.25,
      "v": 86
    },
    {
      "midi": 60,
      "hit": false,
      "t": 96941.875,
      "d": 19.375,
      "v": 88
    },
    {
      "midi": 59,
      "hit": false,
      "t": 96953.125,
      "d": 20.625,
      "v": 91
    },
    {
      "midi": 57,
      "hit": false,
      "t": 96963.75,
      "d": 20.625,
      "v": 86
    },
    {
      "midi": 55,
      "hit": false,
      "t": 96978.125,
      "d": 19.375,
      "v": 85
    },
    {
      "midi": 53,
      "hit": false,
      "t": 96988.75,
      "d": 25.625,
      "v": 83
    },
    {
      "midi": 52,
      "hit": false,
      "t": 97004.375,
      "d": 31.875,
      "v": 79
    },
    {
      "midi": 50,
      "hit": false,
      "t": 97023.125,
      "d": 38.125,
      "v": 82
    },
    {
      "midi": 48,
      "hit": false,
      "t": 97045,
      "d": 33.125,
      "v": 75
    },
    {
      "midi": 76,
      "hit": false,
      "t": 97200,
      "d": 35,
      "v": 89
    },
    {
      "midi": 73,
      "hit": false,
      "t": 97200,
      "d": 39.375,
      "v": 83
    },
    {
      "midi": 81,
      "hit": false,
      "t": 97200,
      "d": 41.25,
      "v": 91
    },
    {
      "midi": 57,
      "hit": false,
      "t": 97200,
      "d": 2997.5,
      "v": 1
    },
    {
      "midi": 61,
      "hit": false,
      "t": 97200,
      "d": 2997.5,
      "v": 1
    },
    {
      "midi": 64,
      "hit": false,
      "t": 97200,
      "d": 2997.5,
      "v": 1
    },
    {
      "midi": 76,
      "hit": false,
      "t": 97350,
      "d": 26.875,
      "v": 92
    },
    {
      "midi": 81,
      "hit": false,
      "t": 97350,
      "d": 31.875,
      "v": 90
    },
    {
      "midi": 73,
      "hit": false,
      "t": 97350,
      "d": 35,
      "v": 86
    },
    {
      "midi": 76,
      "hit": false,
      "t": 97500,
      "d": 25.625,
      "v": 95
    },
    {
      "midi": 81,
      "hit": false,
      "t": 97500,
      "d": 30,
      "v": 95
    },
    {
      "midi": 73,
      "hit": false,
      "t": 97500,
      "d": 35,
      "v": 84
    },
    {
      "midi": 76,
      "hit": false,
      "t": 97650,
      "d": 23.75,
      "v": 92
    },
    {
      "midi": 81,
      "hit": false,
      "t": 97650,
      "d": 26.875,
      "v": 91
    },
    {
      "midi": 73,
      "hit": false,
      "t": 97650,
      "d": 31.875,
      "v": 89
    },
    {
      "midi": 76,
      "hit": false,
      "t": 97800,
      "d": 22.5,
      "v": 92
    },
    {
      "midi": 81,
      "hit": false,
      "t": 97800,
      "d": 23.75,
      "v": 94
    },
    {
      "midi": 73,
      "hit": false,
      "t": 97800,
      "d": 31.875,
      "v": 81
    },
    {
      "midi": 76,
      "hit": false,
      "t": 97950,
      "d": 25.625,
      "v": 95
    },
    {
      "midi": 81,
      "hit": false,
      "t": 97950,
      "d": 26.875,
      "v": 90
    },
    {
      "midi": 73,
      "hit": false,
      "t": 97950,
      "d": 31.875,
      "v": 79
    },
    {
      "midi": 81,
      "hit": false,
      "t": 98100,
      "d": 28.75,
      "v": 95
    },
    {
      "midi": 76,
      "hit": false,
      "t": 98100,
      "d": 30,
      "v": 92
    },
    {
      "midi": 73,
      "hit": false,
      "t": 98100,
      "d": 35,
      "v": 88
    },
    {
      "midi": 76,
      "hit": false,
      "t": 98250,
      "d": 19.375,
      "v": 93
    },
    {
      "midi": 73,
      "hit": false,
      "t": 98250,
      "d": 28.75,
      "v": 82
    },
    {
      "midi": 81,
      "hit": false,
      "t": 98250,
      "d": 28.75,
      "v": 92
    },
    {
      "midi": 76,
      "hit": false,
      "t": 98400,
      "d": 25.625,
      "v": 93
    },
    {
      "midi": 73,
      "hit": false,
      "t": 98400,
      "d": 30,
      "v": 83
    },
    {
      "midi": 81,
      "hit": false,
      "t": 98400,
      "d": 33.125,
      "v": 97
    },
    {
      "midi": 76,
      "hit": false,
      "t": 98550,
      "d": 20.625,
      "v": 93
    },
    {
      "midi": 81,
      "hit": false,
      "t": 98550,
      "d": 25.625,
      "v": 96
    },
    {
      "midi": 73,
      "hit": false,
      "t": 98550,
      "d": 30,
      "v": 84
    },
    {
      "midi": 76,
      "hit": false,
      "t": 98700,
      "d": 23.75,
      "v": 95
    },
    {
      "midi": 81,
      "hit": false,
      "t": 98700,
      "d": 30,
      "v": 96
    },
    {
      "midi": 73,
      "hit": false,
      "t": 98700,
      "d": 33.125,
      "v": 86
    },
    {
      "midi": 76,
      "hit": false,
      "t": 98850,
      "d": 20.625,
      "v": 89
    },
    {
      "midi": 73,
      "hit": false,
      "t": 98850,
      "d": 30,
      "v": 86
    },
    {
      "midi": 81,
      "hit": false,
      "t": 98850,
      "d": 31.875,
      "v": 92
    },
    {
      "midi": 76,
      "hit": false,
      "t": 99000,
      "d": 23.75,
      "v": 94
    },
    {
      "midi": 81,
      "hit": false,
      "t": 99000,
      "d": 28.75,
      "v": 94
    },
    {
      "midi": 73,
      "hit": false,
      "t": 99000,
      "d": 30,
      "v": 86
    },
    {
      "midi": 76,
      "hit": false,
      "t": 99150,
      "d": 23.75,
      "v": 93
    },
    {
      "midi": 73,
      "hit": false,
      "t": 99150,
      "d": 30,
      "v": 88
    },
    {
      "midi": 81,
      "hit": false,
      "t": 99150,
      "d": 30,
      "v": 95
    },
    {
      "midi": 76,
      "hit": false,
      "t": 99300,
      "d": 22.5,
      "v": 93
    },
    {
      "midi": 81,
      "hit": false,
      "t": 99300,
      "d": 28.75,
      "v": 92
    },
    {
      "midi": 73,
      "hit": false,
      "t": 99300,
      "d": 33.125,
      "v": 84
    },
    {
      "midi": 76,
      "hit": false,
      "t": 99450,
      "d": 25.625,
      "v": 92
    },
    {
      "midi": 81,
      "hit": false,
      "t": 99450,
      "d": 30,
      "v": 92
    },
    {
      "midi": 73,
      "hit": false,
      "t": 99450,
      "d": 31.875,
      "v": 85
    },
    {
      "midi": 76,
      "hit": false,
      "t": 99600,
      "d": 30,
      "v": 90
    },
    {
      "midi": 73,
      "hit": false,
      "t": 99600,
      "d": 31.875,
      "v": 86
    },
    {
      "midi": 81,
      "hit": false,
      "t": 99600,
      "d": 33.125,
      "v": 93
    },
    {
      "midi": 76,
      "hit": false,
      "t": 99750,
      "d": 28.75,
      "v": 95
    },
    {
      "midi": 81,
      "hit": false,
      "t": 99750,
      "d": 30,
      "v": 87
    },
    {
      "midi": 73,
      "hit": false,
      "t": 99750,
      "d": 31.875,
      "v": 84
    },
    {
      "midi": 76,
      "hit": false,
      "t": 99900,
      "d": 26.875,
      "v": 90
    },
    {
      "midi": 81,
      "hit": false,
      "t": 99900,
      "d": 35,
      "v": 96
    },
    {
      "midi": 73,
      "hit": false,
      "t": 99900,
      "d": 36.25,
      "v": 86
    },
    {
      "midi": 76,
      "hit": false,
      "t": 100050,
      "d": 28.75,
      "v": 92
    },
    {
      "midi": 81,
      "hit": false,
      "t": 100050,
      "d": 28.75,
      "v": 91
    },
    {
      "midi": 73,
      "hit": false,
      "t": 100050,
      "d": 35,
      "v": 87
    },
    {
      "midi": 76,
      "hit": false,
      "t": 100200,
      "d": 26.875,
      "v": 89
    },
    {
      "midi": 81,
      "hit": false,
      "t": 100200,
      "d": 31.875,
      "v": 89
    },
    {
      "midi": 73,
      "hit": false,
      "t": 100200,
      "d": 35,
      "v": 87
    },
    {
      "midi": 57,
      "hit": false,
      "t": 100200,
      "d": 597.5,
      "v": 1
    },
    {
      "midi": 61,
      "hit": false,
      "t": 100200,
      "d": 597.5,
      "v": 1
    },
    {
      "midi": 66,
      "hit": false,
      "t": 100200,
      "d": 597.5,
      "v": 1
    },
    {
      "midi": 76,
      "hit": false,
      "t": 100350,
      "d": 28.75,
      "v": 89
    },
    {
      "midi": 81,
      "hit": false,
      "t": 100350,
      "d": 28.75,
      "v": 89
    },
    {
      "midi": 73,
      "hit": false,
      "t": 100350,
      "d": 33.125,
      "v": 85
    },
    {
      "midi": 81,
      "hit": false,
      "t": 100500,
      "d": 30,
      "v": 89
    },
    {
      "midi": 76,
      "hit": false,
      "t": 100500,
      "d": 36.25,
      "v": 91
    },
    {
      "midi": 73,
      "hit": false,
      "t": 100500,
      "d": 39.375,
      "v": 84
    },
    {
      "midi": 76,
      "hit": false,
      "t": 100650,
      "d": 39.375,
      "v": 92
    },
    {
      "midi": 81,
      "hit": false,
      "t": 100650,
      "d": 41.25,
      "v": 87
    },
    {
      "midi": 73,
      "hit": false,
      "t": 100650,
      "d": 48.75,
      "v": 82
    },
    {
      "midi": 76,
      "hit": false,
      "t": 100800,
      "d": 35,
      "v": 89
    },
    {
      "midi": 81,
      "hit": false,
      "t": 100800,
      "d": 38.125,
      "v": 90
    },
    {
      "midi": 73,
      "hit": false,
      "t": 100800,
      "d": 42.5,
      "v": 80
    },
    {
      "midi": 67,
      "hit": false,
      "t": 100800,
      "d": 297.5,
      "v": 1
    },
    {
      "midi": 57,
      "hit": false,
      "t": 100800,
      "d": 989.375,
      "v": 1
    },
    {
      "midi": 61,
      "hit": false,
      "t": 100800,
      "d": 1006.875,
      "v": 1
    },
    {
      "midi": 76,
      "hit": false,
      "t": 100950,
      "d": 30,
      "v": 91
    },
    {
      "midi": 81,
      "hit": false,
      "t": 100950,
      "d": 33.125,
      "v": 95
    },
    {
      "midi": 73,
      "hit": false,
      "t": 100950,
      "d": 35,
      "v": 81
    },
    {
      "midi": 76,
      "hit": false,
      "t": 101100,
      "d": 25.625,
      "v": 90
    },
    {
      "midi": 81,
      "hit": false,
      "t": 101100,
      "d": 30,
      "v": 89
    },
    {
      "midi": 73,
      "hit": false,
      "t": 101100,
      "d": 38.125,
      "v": 89
    },
    {
      "midi": 66,
      "hit": false,
      "t": 101100,
      "d": 897.5,
      "v": 1
    },
    {
      "midi": 76,
      "hit": false,
      "t": 101250,
      "d": 23.75,
      "v": 93
    },
    {
      "midi": 73,
      "hit": false,
      "t": 101250,
      "d": 35,
      "v": 85
    },
    {
      "midi": 81,
      "hit": false,
      "t": 101250,
      "d": 35,
      "v": 90
    },
    {
      "midi": 81,
      "hit": false,
      "t": 101400,
      "d": 30,
      "v": 90
    },
    {
      "midi": 76,
      "hit": false,
      "t": 101400,
      "d": 33.125,
      "v": 89
    },
    {
      "midi": 73,
      "hit": false,
      "t": 101400,
      "d": 35,
      "v": 92
    },
    {
      "midi": 73,
      "hit": false,
      "t": 101550,
      "d": 36.25,
      "v": 81
    },
    {
      "midi": 76,
      "hit": false,
      "t": 101550,
      "d": 36.25,
      "v": 92
    },
    {
      "midi": 81,
      "hit": false,
      "t": 101550,
      "d": 41.25,
      "v": 89
    },
    {
      "midi": 81,
      "hit": false,
      "t": 101700,
      "d": 30,
      "v": 93
    },
    {
      "midi": 76,
      "hit": false,
      "t": 101700,
      "d": 33.125,
      "v": 94
    },
    {
      "midi": 73,
      "hit": false,
      "t": 101700,
      "d": 36.25,
      "v": 84
    },
    {
      "midi": 73,
      "hit": false,
      "t": 101850,
      "d": 30,
      "v": 84
    },
    {
      "midi": 81,
      "hit": false,
      "t": 101850,
      "d": 31.875,
      "v": 91
    },
    {
      "midi": 76,
      "hit": false,
      "t": 101850,
      "d": 33.125,
      "v": 89
    },
    {
      "midi": 79,
      "hit": false,
      "t": 101925,
      "d": 47.5,
      "v": 90
    },
    {
      "midi": 80,
      "hit": false,
      "t": 101954.375,
      "d": 53.75,
      "v": 76
    },
    {
      "midi": 81,
      "hit": false,
      "t": 102000,
      "d": 36.25,
      "v": 91
    },
    {
      "midi": 72,
      "hit": false,
      "t": 102000,
      "d": 60,
      "v": 95
    },
    {
      "midi": 66,
      "hit": false,
      "t": 102000,
      "d": 64.375,
      "v": 83
    },
    {
      "midi": 62,
      "hit": false,
      "t": 102000,
      "d": 69.375,
      "v": 94
    },
    {
      "midi": 69,
      "hit": false,
      "t": 102000,
      "d": 81.875,
      "v": 99
    },
    {
      "midi": 84,
      "hit": false,
      "t": 102000,
      "d": 123.75,
      "v": 96
    },
    {
      "midi": 57,
      "hit": false,
      "t": 102000,
      "d": 2397.5,
      "v": 1
    },
    {
      "midi": 62,
      "hit": false,
      "t": 102000,
      "d": 2397.5,
      "v": 1
    },
    {
      "midi": 66,
      "hit": false,
      "t": 102000,
      "d": 2397.5,
      "v": 1
    },
    {
      "midi": 81,
      "hit": false,
      "t": 102200,
      "d": 70.625,
      "v": 127
    },
    {
      "midi": 81,
      "hit": false,
      "t": 102300,
      "d": 94.375,
      "v": 117
    },
    {
      "midi": 81,
      "hit": false,
      "t": 102500,
      "d": 66.25,
      "v": 127
    },
    {
      "midi": 79,
      "hit": false,
      "t": 102582.5,
      "d": 45.625,
      "v": 103
    },
    {
      "midi": 81,
      "hit": false,
      "t": 102600,
      "d": 31.875,
      "v": 96
    },
    {
      "midi": 62,
      "hit": false,
      "t": 102600,
      "d": 75.625,
      "v": 97
    },
    {
      "midi": 66,
      "hit": false,
      "t": 102600,
      "d": 75.625,
      "v": 83
    },
    {
      "midi": 69,
      "hit": false,
      "t": 102600,
      "d": 86.25,
      "v": 93
    },
    {
      "midi": 72,
      "hit": false,
      "t": 102600,
      "d": 92.5,
      "v": 87
    },
    {
      "midi": 84,
      "hit": false,
      "t": 102600,
      "d": 110,
      "v": 101
    },
    {
      "midi": 80,
      "hit": false,
      "t": 102620,
      "d": 38.125,
      "v": 82
    },
    {
      "midi": 81,
      "hit": false,
      "t": 102800,
      "d": 67.5,
      "v": 122
    },
    {
      "midi": 81,
      "hit": false,
      "t": 102900,
      "d": 72.5,
      "v": 125
    },
    {
      "midi": 81,
      "hit": false,
      "t": 103100,
      "d": 66.25,
      "v": 127
    },
    {
      "midi": 79,
      "hit": false,
      "t": 103162.5,
      "d": 42.5,
      "v": 110
    },
    {
      "midi": 80,
      "hit": false,
      "t": 103190.625,
      "d": 42.5,
      "v": 81
    },
    {
      "midi": 81,
      "hit": false,
      "t": 103200,
      "d": 36.25,
      "v": 98
    },
    {
      "midi": 62,
      "hit": false,
      "t": 103200,
      "d": 89.375,
      "v": 102
    },
    {
      "midi": 69,
      "hit": false,
      "t": 103200,
      "d": 91.25,
      "v": 99
    },
    {
      "midi": 66,
      "hit": false,
      "t": 103200,
      "d": 97.5,
      "v": 96
    },
    {
      "midi": 72,
      "hit": false,
      "t": 103200,
      "d": 100.625,
      "v": 103
    },
    {
      "midi": 84,
      "hit": false,
      "t": 103200,
      "d": 108.125,
      "v": 105
    },
    {
      "midi": 81,
      "hit": false,
      "t": 103400,
      "d": 56.875,
      "v": 123
    },
    {
      "midi": 81,
      "hit": false,
      "t": 103500,
      "d": 53.75,
      "v": 122
    },
    {
      "midi": 81,
      "hit": false,
      "t": 103700,
      "d": 51.875,
      "v": 117
    },
    {
      "midi": 72,
      "hit": false,
      "t": 103700,
      "d": 169.375,
      "v": 108
    },
    {
      "midi": 66,
      "hit": false,
      "t": 103700,
      "d": 170.625,
      "v": 89
    },
    {
      "midi": 62,
      "hit": false,
      "t": 103700,
      "d": 173.75,
      "v": 110
    },
    {
      "midi": 69,
      "hit": false,
      "t": 103700,
      "d": 181.875,
      "v": 107
    },
    {
      "midi": 79,
      "hit": false,
      "t": 103737.5,
      "d": 51.875,
      "v": 108
    },
    {
      "midi": 80,
      "hit": false,
      "t": 103768.75,
      "d": 31.875,
      "v": 76
    },
    {
      "midi": 81,
      "hit": false,
      "t": 103800,
      "d": 38.125,
      "v": 95
    },
    {
      "midi": 84,
      "hit": false,
      "t": 103800,
      "d": 119.375,
      "v": 103
    },
    {
      "midi": 81,
      "hit": false,
      "t": 104000,
      "d": 50.625,
      "v": 121
    },
    {
      "midi": 81,
      "hit": false,
      "t": 104100,
      "d": 56.875,
      "v": 119
    },
    {
      "midi": 81,
      "hit": false,
      "t": 104300,
      "d": 50.625,
      "v": 123
    },
    {
      "midi": 79,
      "hit": false,
      "t": 104362.5,
      "d": 45.625,
      "v": 103
    },
    {
      "midi": 80,
      "hit": false,
      "t": 104395,
      "d": 33.125,
      "v": 81
    },
    {
      "midi": 81,
      "hit": false,
      "t": 104400,
      "d": 44.375,
      "v": 101
    },
    {
      "midi": 84,
      "hit": false,
      "t": 104400,
      "d": 128.75,
      "v": 113
    },
    {
      "midi": 57,
      "hit": false,
      "t": 104400,
      "d": 2397.5,
      "v": 1
    },
    {
      "midi": 61,
      "hit": false,
      "t": 104400,
      "d": 2397.5,
      "v": 1
    },
    {
      "midi": 64,
      "hit": false,
      "t": 104400,
      "d": 2397.5,
      "v": 1
    },
    {
      "midi": 81,
      "hit": false,
      "t": 104600,
      "d": 58.125,
      "v": 122
    },
    {
      "midi": 81,
      "hit": false,
      "t": 104700,
      "d": 69.375,
      "v": 113
    },
    {
      "midi": 81,
      "hit": false,
      "t": 104900,
      "d": 58.125,
      "v": 123
    },
    {
      "midi": 79,
      "hit": false,
      "t": 104973.125,
      "d": 39.375,
      "v": 106
    },
    {
      "midi": 80,
      "hit": false,
      "t": 104996.875,
      "d": 36.25,
      "v": 81
    },
    {
      "midi": 81,
      "hit": false,
      "t": 105000,
      "d": 26.875,
      "v": 86
    },
    {
      "midi": 69,
      "hit": false,
      "t": 105000,
      "d": 58.125,
      "v": 115
    },
    {
      "midi": 64,
      "hit": false,
      "t": 105000,
      "d": 69.375,
      "v": 103
    },
    {
      "midi": 73,
      "hit": false,
      "t": 105000,
      "d": 73.75,
      "v": 107
    },
    {
      "midi": 84,
      "hit": false,
      "t": 105000,
      "d": 122.5,
      "v": 103
    },
    {
      "midi": 81,
      "hit": false,
      "t": 105200,
      "d": 58.125,
      "v": 122
    },
    {
      "midi": 81,
      "hit": false,
      "t": 105300,
      "d": 56.875,
      "v": 121
    },
    {
      "midi": 81,
      "hit": false,
      "t": 105500,
      "d": 50.625,
      "v": 121
    },
    {
      "midi": 79,
      "hit": false,
      "t": 105576.25,
      "d": 36.25,
      "v": 103
    },
    {
      "midi": 80,
      "hit": false,
      "t": 105596.875,
      "d": 33.125,
      "v": 87
    },
    {
      "midi": 81,
      "hit": false,
      "t": 105600,
      "d": 64.375,
      "v": 102
    },
    {
      "midi": 69,
      "hit": false,
      "t": 105600,
      "d": 67.5,
      "v": 121
    },
    {
      "midi": 64,
      "hit": false,
      "t": 105600,
      "d": 70.625,
      "v": 102
    },
    {
      "midi": 73,
      "hit": false,
      "t": 105600,
      "d": 94.375,
      "v": 108
    },
    {
      "midi": 84,
      "hit": false,
      "t": 105600,
      "d": 113.125,
      "v": 81
    },
    {
      "midi": 81,
      "hit": false,
      "t": 105800,
      "d": 50.625,
      "v": 122
    },
    {
      "midi": 81,
      "hit": false,
      "t": 105900,
      "d": 53.75,
      "v": 122
    },
    {
      "midi": 81,
      "hit": false,
      "t": 106100,
      "d": 44.375,
      "v": 123
    },
    {
      "midi": 73,
      "hit": false,
      "t": 106100,
      "d": 317.5,
      "v": 111
    },
    {
      "midi": 69,
      "hit": false,
      "t": 106100,
      "d": 330,
      "v": 127
    },
    {
      "midi": 64,
      "hit": false,
      "t": 106100,
      "d": 333.125,
      "v": 109
    },
    {
      "midi": 79,
      "hit": false,
      "t": 106162.5,
      "d": 38.125,
      "v": 107
    },
    {
      "midi": 80,
      "hit": false,
      "t": 106182.5,
      "d": 33.125,
      "v": 99
    },
    {
      "midi": 81,
      "hit": false,
      "t": 106200,
      "d": 72.5,
      "v": 111
    },
    {
      "midi": 84,
      "hit": false,
      "t": 106200,
      "d": 130,
      "v": 109
    },
    {
      "midi": 81,
      "hit": false,
      "t": 106400,
      "d": 55,
      "v": 127
    },
    {
      "midi": 81,
      "hit": false,
      "t": 106500,
      "d": 72.5,
      "v": 127
    },
    {
      "midi": 81,
      "hit": false,
      "t": 106700,
      "d": 61.25,
      "v": 127
    },
    {
      "midi": 80,
      "hit": false,
      "t": 106800,
      "d": 26.875,
      "v": 96
    },
    {
      "midi": 83,
      "hit": false,
      "t": 106800,
      "d": 39.375,
      "v": 90
    },
    {
      "midi": 86,
      "hit": false,
      "t": 106800,
      "d": 45.625,
      "v": 95
    },
    {
      "midi": 76,
      "hit": false,
      "t": 106800,
      "d": 48.75,
      "v": 94
    },
    {
      "midi": 64,
      "hit": false,
      "t": 106800,
      "d": 1197.5,
      "v": 1
    },
    {
      "midi": 68,
      "hit": false,
      "t": 106800,
      "d": 1197.5,
      "v": 1
    },
    {
      "midi": 80,
      "hit": false,
      "t": 106950,
      "d": 30,
      "v": 81
    },
    {
      "midi": 83,
      "hit": false,
      "t": 106950,
      "d": 30,
      "v": 85
    },
    {
      "midi": 86,
      "hit": false,
      "t": 106950,
      "d": 33.125,
      "v": 81
    },
    {
      "midi": 76,
      "hit": false,
      "t": 106950,
      "d": 42.5,
      "v": 81
    },
    {
      "midi": 86,
      "hit": false,
      "t": 107100,
      "d": 26.875,
      "v": 83
    },
    {
      "midi": 80,
      "hit": false,
      "t": 107100,
      "d": 28.75,
      "v": 84
    },
    {
      "midi": 83,
      "hit": false,
      "t": 107100,
      "d": 31.875,
      "v": 80
    },
    {
      "midi": 76,
      "hit": false,
      "t": 107100,
      "d": 38.125,
      "v": 84
    },
    {
      "midi": 80,
      "hit": false,
      "t": 107250,
      "d": 22.5,
      "v": 81
    },
    {
      "midi": 86,
      "hit": false,
      "t": 107250,
      "d": 25.625,
      "v": 82
    },
    {
      "midi": 83,
      "hit": false,
      "t": 107250,
      "d": 33.125,
      "v": 86
    },
    {
      "midi": 76,
      "hit": false,
      "t": 107250,
      "d": 38.125,
      "v": 90
    },
    {
      "midi": 80,
      "hit": false,
      "t": 107400,
      "d": 53.75,
      "v": 95
    },
    {
      "midi": 83,
      "hit": false,
      "t": 107400,
      "d": 53.75,
      "v": 93
    },
    {
      "midi": 86,
      "hit": false,
      "t": 107400,
      "d": 58.125,
      "v": 91
    },
    {
      "midi": 76,
      "hit": false,
      "t": 107400,
      "d": 61.25,
      "v": 91
    },
    {
      "midi": 80,
      "hit": false,
      "t": 107550,
      "d": 38.125,
      "v": 83
    },
    {
      "midi": 83,
      "hit": false,
      "t": 107550,
      "d": 41.25,
      "v": 84
    },
    {
      "midi": 86,
      "hit": false,
      "t": 107550,
      "d": 41.25,
      "v": 82
    },
    {
      "midi": 76,
      "hit": false,
      "t": 107550,
      "d": 50.625,
      "v": 82
    },
    {
      "midi": 80,
      "hit": false,
      "t": 107700,
      "d": 25.625,
      "v": 80
    },
    {
      "midi": 83,
      "hit": false,
      "t": 107700,
      "d": 28.75,
      "v": 86
    },
    {
      "midi": 86,
      "hit": false,
      "t": 107700,
      "d": 36.25,
      "v": 89
    },
    {
      "midi": 76,
      "hit": false,
      "t": 107700,
      "d": 39.375,
      "v": 94
    },
    {
      "midi": 86,
      "hit": false,
      "t": 107850,
      "d": 33.125,
      "v": 90
    },
    {
      "midi": 80,
      "hit": false,
      "t": 107850,
      "d": 36.25,
      "v": 86
    },
    {
      "midi": 83,
      "hit": false,
      "t": 107850,
      "d": 36.25,
      "v": 87
    },
    {
      "midi": 76,
      "hit": false,
      "t": 107850,
      "d": 42.5,
      "v": 90
    },
    {
      "midi": 78,
      "hit": false,
      "t": 108000,
      "d": 31.875,
      "v": 93
    },
    {
      "midi": 74,
      "hit": false,
      "t": 108000,
      "d": 42.5,
      "v": 93
    },
    {
      "midi": 81,
      "hit": false,
      "t": 108000,
      "d": 42.5,
      "v": 90
    },
    {
      "midi": 84,
      "hit": false,
      "t": 108000,
      "d": 53.75,
      "v": 91
    },
    {
      "midi": 62,
      "hit": false,
      "t": 108000,
      "d": 1197.5,
      "v": 1
    },
    {
      "midi": 66,
      "hit": false,
      "t": 108000,
      "d": 1197.5,
      "v": 1
    },
    {
      "midi": 78,
      "hit": false,
      "t": 108150,
      "d": 30,
      "v": 79
    },
    {
      "midi": 74,
      "hit": false,
      "t": 108150,
      "d": 33.125,
      "v": 84
    },
    {
      "midi": 84,
      "hit": false,
      "t": 108150,
      "d": 38.125,
      "v": 82
    },
    {
      "midi": 81,
      "hit": false,
      "t": 108150,
      "d": 44.375,
      "v": 82
    },
    {
      "midi": 78,
      "hit": false,
      "t": 108300,
      "d": 31.875,
      "v": 82
    },
    {
      "midi": 74,
      "hit": false,
      "t": 108300,
      "d": 44.375,
      "v": 82
    },
    {
      "midi": 81,
      "hit": false,
      "t": 108300,
      "d": 45.625,
      "v": 80
    },
    {
      "midi": 84,
      "hit": false,
      "t": 108300,
      "d": 50.625,
      "v": 92
    },
    {
      "midi": 78,
      "hit": false,
      "t": 108450,
      "d": 33.125,
      "v": 85
    },
    {
      "midi": 74,
      "hit": false,
      "t": 108450,
      "d": 36.25,
      "v": 95
    },
    {
      "midi": 81,
      "hit": false,
      "t": 108450,
      "d": 42.5,
      "v": 96
    },
    {
      "midi": 84,
      "hit": false,
      "t": 108450,
      "d": 45.625,
      "v": 96
    },
    {
      "midi": 74,
      "hit": false,
      "t": 108600,
      "d": 39.375,
      "v": 89
    },
    {
      "midi": 78,
      "hit": false,
      "t": 108600,
      "d": 39.375,
      "v": 85
    },
    {
      "midi": 81,
      "hit": false,
      "t": 108600,
      "d": 39.375,
      "v": 91
    },
    {
      "midi": 84,
      "hit": false,
      "t": 108600,
      "d": 41.25,
      "v": 94
    },
    {
      "midi": 78,
      "hit": false,
      "t": 108750,
      "d": 35,
      "v": 85
    },
    {
      "midi": 84,
      "hit": false,
      "t": 108750,
      "d": 36.25,
      "v": 92
    },
    {
      "midi": 74,
      "hit": false,
      "t": 108750,
      "d": 42.5,
      "v": 90
    },
    {
      "midi": 81,
      "hit": false,
      "t": 108750,
      "d": 44.375,
      "v": 89
    },
    {
      "midi": 78,
      "hit": false,
      "t": 108900,
      "d": 25.625,
      "v": 82
    },
    {
      "midi": 84,
      "hit": false,
      "t": 108900,
      "d": 30,
      "v": 91
    },
    {
      "midi": 74,
      "hit": false,
      "t": 108900,
      "d": 36.25,
      "v": 95
    },
    {
      "midi": 81,
      "hit": false,
      "t": 108900,
      "d": 38.125,
      "v": 93
    },
    {
      "midi": 84,
      "hit": false,
      "t": 109050,
      "d": 17.5,
      "v": 83
    },
    {
      "midi": 81,
      "hit": false,
      "t": 109050,
      "d": 33.125,
      "v": 94
    },
    {
      "midi": 78,
      "hit": false,
      "t": 109050,
      "d": 47.5,
      "v": 86
    },
    {
      "midi": 74,
      "hit": false,
      "t": 109050,
      "d": 61.25,
      "v": 85
    },
    {
      "midi": 76,
      "hit": false,
      "t": 109200,
      "d": 51.875,
      "v": 96
    },
    {
      "midi": 81,
      "hit": false,
      "t": 109200,
      "d": 70.625,
      "v": 94
    },
    {
      "midi": 73,
      "hit": false,
      "t": 109200,
      "d": 76.875,
      "v": 94
    },
    {
      "midi": 57,
      "hit": false,
      "t": 109200,
      "d": 297.5,
      "v": 1
    },
    {
      "midi": 61,
      "hit": false,
      "t": 109200,
      "d": 297.5,
      "v": 1
    },
    {
      "midi": 64,
      "hit": false,
      "t": 109200,
      "d": 297.5,
      "v": 1
    },
    {
      "midi": 73,
      "hit": false,
      "t": 109350,
      "d": 50.625,
      "v": 83
    },
    {
      "midi": 76,
      "hit": false,
      "t": 109350,
      "d": 55,
      "v": 93
    },
    {
      "midi": 81,
      "hit": false,
      "t": 109350,
      "d": 58.125,
      "v": 85
    },
    {
      "midi": 76,
      "hit": false,
      "t": 109500,
      "d": 47.5,
      "v": 91
    },
    {
      "midi": 73,
      "hit": false,
      "t": 109500,
      "d": 53.75,
      "v": 82
    },
    {
      "midi": 81,
      "hit": false,
      "t": 109500,
      "d": 55,
      "v": 95
    },
    {
      "midi": 57,
      "hit": false,
      "t": 109500,
      "d": 297.5,
      "v": 1
    },
    {
      "midi": 61,
      "hit": false,
      "t": 109500,
      "d": 297.5,
      "v": 1
    },
    {
      "midi": 76,
      "hit": false,
      "t": 109650,
      "d": 42.5,
      "v": 91
    },
    {
      "midi": 73,
      "hit": false,
      "t": 109650,
      "d": 50.625,
      "v": 79
    },
    {
      "midi": 81,
      "hit": false,
      "t": 109650,
      "d": 50.625,
      "v": 90
    },
    {
      "midi": 76,
      "hit": false,
      "t": 109800,
      "d": 44.375,
      "v": 90
    },
    {
      "midi": 73,
      "hit": false,
      "t": 109800,
      "d": 47.5,
      "v": 81
    },
    {
      "midi": 81,
      "hit": false,
      "t": 109800,
      "d": 51.875,
      "v": 90
    },
    {
      "midi": 57,
      "hit": false,
      "t": 109800,
      "d": 297.5,
      "v": 1
    },
    {
      "midi": 64,
      "hit": false,
      "t": 109800,
      "d": 297.5,
      "v": 1
    },
    {
      "midi": 76,
      "hit": false,
      "t": 109950,
      "d": 36.25,
      "v": 94
    },
    {
      "midi": 73,
      "hit": false,
      "t": 109950,
      "d": 45.625,
      "v": 81
    },
    {
      "midi": 81,
      "hit": false,
      "t": 109950,
      "d": 47.5,
      "v": 94
    },
    {
      "midi": 76,
      "hit": false,
      "t": 110100,
      "d": 31.875,
      "v": 96
    },
    {
      "midi": 73,
      "hit": false,
      "t": 110100,
      "d": 39.375,
      "v": 82
    },
    {
      "midi": 81,
      "hit": false,
      "t": 110100,
      "d": 39.375,
      "v": 90
    },
    {
      "midi": 57,
      "hit": false,
      "t": 110100,
      "d": 297.5,
      "v": 1
    },
    {
      "midi": 61,
      "hit": false,
      "t": 110100,
      "d": 297.5,
      "v": 1
    },
    {
      "midi": 76,
      "hit": false,
      "t": 110250,
      "d": 33.125,
      "v": 94
    },
    {
      "midi": 81,
      "hit": false,
      "t": 110250,
      "d": 38.125,
      "v": 89
    },
    {
      "midi": 73,
      "hit": false,
      "t": 110250,
      "d": 39.375,
      "v": 86
    },
    {
      "midi": 57,
      "hit": false,
      "t": 110400,
      "d": 297.5,
      "v": 1
    },
    {
      "midi": 64,
      "hit": false,
      "t": 110400,
      "d": 297.5,
      "v": 1
    },
    {
      "midi": 61,
      "hit": false,
      "t": 110700,
      "d": 297.5,
      "v": 1
    },
    {
      "midi": 57,
      "hit": false,
      "t": 110700,
      "d": 897.5,
      "v": 1
    },
    {
      "midi": 64,
      "hit": false,
      "t": 111000,
      "d": 597.5,
      "v": 1
    },
    {
      "midi": 96,
      "hit": false,
      "t": 111188.75,
      "d": 30,
      "v": 116
    },
    {
      "midi": 95,
      "hit": false,
      "t": 111206.25,
      "d": 26.875,
      "v": 116
    },
    {
      "midi": 93,
      "hit": false,
      "t": 111220,
      "d": 26.875,
      "v": 116
    },
    {
      "midi": 91,
      "hit": false,
      "t": 111237.5,
      "d": 22.5,
      "v": 114
    },
    {
      "midi": 89,
      "hit": false,
      "t": 111251.25,
      "d": 20.625,
      "v": 110
    },
    {
      "midi": 88,
      "hit": false,
      "t": 111263.75,
      "d": 20.625,
      "v": 113
    },
    {
      "midi": 86,
      "hit": false,
      "t": 111276.25,
      "d": 22.5,
      "v": 113
    },
    {
      "midi": 84,
      "hit": false,
      "t": 111288.75,
      "d": 20.625,
      "v": 114
    },
    {
      "midi": 83,
      "hit": false,
      "t": 111301.25,
      "d": 20.625,
      "v": 108
    },
    {
      "midi": 81,
      "hit": false,
      "t": 111312.5,
      "d": 19.375,
      "v": 106
    },
    {
      "midi": 79,
      "hit": false,
      "t": 111325,
      "d": 17.5,
      "v": 107
    },
    {
      "midi": 77,
      "hit": false,
      "t": 111335.625,
      "d": 17.5,
      "v": 109
    },
    {
      "midi": 76,
      "hit": false,
      "t": 111345,
      "d": 16.25,
      "v": 108
    },
    {
      "midi": 74,
      "hit": false,
      "t": 111356.25,
      "d": 14.375,
      "v": 104
    },
    {
      "midi": 72,
      "hit": false,
      "t": 111365.625,
      "d": 16.25,
      "v": 107
    },
    {
      "midi": 71,
      "hit": false,
      "t": 111376.25,
      "d": 13.125,
      "v": 101
    },
    {
      "midi": 69,
      "hit": false,
      "t": 111384.375,
      "d": 14.375,
      "v": 102
    },
    {
      "midi": 67,
      "hit": false,
      "t": 111393.75,
      "d": 14.375,
      "v": 103
    },
    {
      "midi": 65,
      "hit": false,
      "t": 111403.125,
      "d": 14.375,
      "v": 98
    },
    {
      "midi": 64,
      "hit": false,
      "t": 111412.5,
      "d": 13.125,
      "v": 100
    },
    {
      "midi": 62,
      "hit": false,
      "t": 111420,
      "d": 16.25,
      "v": 97
    },
    {
      "midi": 60,
      "hit": false,
      "t": 111431.25,
      "d": 14.375,
      "v": 99
    },
    {
      "midi": 59,
      "hit": false,
      "t": 111438.75,
      "d": 19.375,
      "v": 102
    },
    {
      "midi": 57,
      "hit": false,
      "t": 111450,
      "d": 19.375,
      "v": 98
    },
    {
      "midi": 55,
      "hit": false,
      "t": 111460.625,
      "d": 22.5,
      "v": 97
    },
    {
      "midi": 53,
      "hit": false,
      "t": 111473.125,
      "d": 23.75,
      "v": 96
    },
    {
      "midi": 52,
      "hit": false,
      "t": 111487.5,
      "d": 28.75,
      "v": 99
    },
    {
      "midi": 50,
      "hit": false,
      "t": 111506.25,
      "d": 25.625,
      "v": 90
    },
    {
      "midi": 48,
      "hit": false,
      "t": 111523.125,
      "d": 23.75,
      "v": 93
    },
    {
      "midi": 76,
      "hit": false,
      "t": 111600,
      "d": 70.625,
      "v": 118
    },
    {
      "midi": 81,
      "hit": false,
      "t": 111600,
      "d": 78.75,
      "v": 104
    },
    {
      "midi": 73,
      "hit": false,
      "t": 111600,
      "d": 89.375,
      "v": 74
    },
    {
      "midi": 81,
      "hit": false,
      "t": 111750,
      "d": 76.875,
      "v": 96
    },
    {
      "midi": 76,
      "hit": false,
      "t": 111750,
      "d": 81.875,
      "v": 110
    },
    {
      "midi": 73,
      "hit": false,
      "t": 111750,
      "d": 86.25,
      "v": 57
    },
    {
      "midi": 81,
      "hit": false,
      "t": 111900,
      "d": 69.375,
      "v": 93
    },
    {
      "midi": 76,
      "hit": false,
      "t": 111900,
      "d": 73.75,
      "v": 108
    },
    {
      "midi": 73,
      "hit": false,
      "t": 111900,
      "d": 86.25,
      "v": 75
    },
    {
      "midi": 76,
      "hit": false,
      "t": 112050,
      "d": 53.75,
      "v": 108
    },
    {
      "midi": 81,
      "hit": false,
      "t": 112050,
      "d": 66.25,
      "v": 91
    },
    {
      "midi": 73,
      "hit": false,
      "t": 112050,
      "d": 76.875,
      "v": 67
    },
    {
      "midi": 76,
      "hit": false,
      "t": 112200,
      "d": 73.75,
      "v": 108
    },
    {
      "midi": 81,
      "hit": false,
      "t": 112200,
      "d": 73.75,
      "v": 94
    },
    {
      "midi": 73,
      "hit": false,
      "t": 112200,
      "d": 89.375,
      "v": 57
    },
    {
      "midi": 61,
      "hit": false,
      "t": 112200,
      "d": 1797.5,
      "v": 1
    },
    {
      "midi": 81,
      "hit": false,
      "t": 112350,
      "d": 69.375,
      "v": 91
    },
    {
      "midi": 76,
      "hit": false,
      "t": 112350,
      "d": 76.875,
      "v": 108
    },
    {
      "midi": 73,
      "hit": false,
      "t": 112350,
      "d": 83.125,
      "v": 73
    },
    {
      "midi": 81,
      "hit": false,
      "t": 112500,
      "d": 69.375,
      "v": 93
    },
    {
      "midi": 76,
      "hit": false,
      "t": 112500,
      "d": 75.625,
      "v": 106
    },
    {
      "midi": 73,
      "hit": false,
      "t": 112500,
      "d": 83.125,
      "v": 76
    },
    {
      "midi": 81,
      "hit": false,
      "t": 112650,
      "d": 76.875,
      "v": 92
    },
    {
      "midi": 76,
      "hit": false,
      "t": 112650,
      "d": 81.875,
      "v": 106
    },
    {
      "midi": 73,
      "hit": false,
      "t": 112650,
      "d": 88.125,
      "v": 67
    },
    {
      "midi": 76,
      "hit": false,
      "t": 112800,
      "d": 73.75,
      "v": 96
    },
    {
      "midi": 81,
      "hit": false,
      "t": 112800,
      "d": 75.625,
      "v": 90
    },
    {
      "midi": 73,
      "hit": false,
      "t": 112800,
      "d": 80,
      "v": 66
    },
    {
      "midi": 64,
      "hit": false,
      "t": 112800,
      "d": 1197.5,
      "v": 1
    },
    {
      "midi": 76,
      "hit": false,
      "t": 112950,
      "d": 66.25,
      "v": 100
    },
    {
      "midi": 81,
      "hit": false,
      "t": 112950,
      "d": 72.5,
      "v": 91
    },
    {
      "midi": 73,
      "hit": false,
      "t": 112950,
      "d": 75.625,
      "v": 68
    },
    {
      "midi": 76,
      "hit": false,
      "t": 113100,
      "d": 73.75,
      "v": 106
    },
    {
      "midi": 73,
      "hit": false,
      "t": 113100,
      "d": 76.875,
      "v": 56
    },
    {
      "midi": 81,
      "hit": false,
      "t": 113100,
      "d": 81.875,
      "v": 83
    },
    {
      "midi": 73,
      "hit": false,
      "t": 113250,
      "d": 70.625,
      "v": 63
    },
    {
      "midi": 76,
      "hit": false,
      "t": 113250,
      "d": 73.75,
      "v": 107
    },
    {
      "midi": 81,
      "hit": false,
      "t": 113250,
      "d": 78.75,
      "v": 90
    },
    {
      "midi": 73,
      "hit": false,
      "t": 113400,
      "d": 69.375,
      "v": 66
    },
    {
      "midi": 76,
      "hit": false,
      "t": 113400,
      "d": 69.375,
      "v": 107
    },
    {
      "midi": 81,
      "hit": false,
      "t": 113400,
      "d": 80,
      "v": 90
    },
    {
      "midi": 73,
      "hit": false,
      "t": 113550,
      "d": 64.375,
      "v": 71
    },
    {
      "midi": 76,
      "hit": false,
      "t": 113550,
      "d": 72.5,
      "v": 110
    },
    {
      "midi": 81,
      "hit": false,
      "t": 113550,
      "d": 73.75,
      "v": 91
    },
    {
      "midi": 76,
      "hit": false,
      "t": 113700,
      "d": 73.75,
      "v": 104
    },
    {
      "midi": 81,
      "hit": false,
      "t": 113700,
      "d": 73.75,
      "v": 93
    },
    {
      "midi": 73,
      "hit": false,
      "t": 113700,
      "d": 75.625,
      "v": 71
    },
    {
      "midi": 73,
      "hit": false,
      "t": 113850,
      "d": 67.5,
      "v": 59
    },
    {
      "midi": 76,
      "hit": false,
      "t": 113850,
      "d": 72.5,
      "v": 106
    },
    {
      "midi": 81,
      "hit": false,
      "t": 113850,
      "d": 80,
      "v": 79
    },
    {
      "midi": 78,
      "hit": false,
      "t": 114000,
      "d": 66.25,
      "v": 95
    },
    {
      "midi": 73,
      "hit": false,
      "t": 114000,
      "d": 76.875,
      "v": 77
    },
    {
      "midi": 81,
      "hit": false,
      "t": 114000,
      "d": 88.125,
      "v": 89
    },
    {
      "midi": 78,
      "hit": false,
      "t": 114150,
      "d": 66.25,
      "v": 88
    },
    {
      "midi": 81,
      "hit": false,
      "t": 114150,
      "d": 76.875,
      "v": 85
    },
    {
      "midi": 73,
      "hit": false,
      "t": 114150,
      "d": 83.125,
      "v": 74
    },
    {
      "midi": 78,
      "hit": false,
      "t": 114300,
      "d": 61.25,
      "v": 89
    },
    {
      "midi": 81,
      "hit": false,
      "t": 114300,
      "d": 67.5,
      "v": 76
    },
    {
      "midi": 73,
      "hit": false,
      "t": 114300,
      "d": 73.75,
      "v": 66
    },
    {
      "midi": 78,
      "hit": false,
      "t": 114450,
      "d": 60,
      "v": 91
    },
    {
      "midi": 73,
      "hit": false,
      "t": 114450,
      "d": 67.5,
      "v": 70
    },
    {
      "midi": 81,
      "hit": false,
      "t": 114450,
      "d": 70.625,
      "v": 74
    },
    {
      "midi": 78,
      "hit": false,
      "t": 114600,
      "d": 63.125,
      "v": 92
    },
    {
      "midi": 73,
      "hit": false,
      "t": 114600,
      "d": 69.375,
      "v": 96
    },
    {
      "midi": 81,
      "hit": false,
      "t": 114600,
      "d": 75.625,
      "v": 92
    },
    {
      "midi": 61,
      "hit": false,
      "t": 114600,
      "d": 1797.5,
      "v": 1
    },
    {
      "midi": 78,
      "hit": false,
      "t": 114750,
      "d": 66.25,
      "v": 91
    },
    {
      "midi": 81,
      "hit": false,
      "t": 114750,
      "d": 67.5,
      "v": 96
    },
    {
      "midi": 73,
      "hit": false,
      "t": 114750,
      "d": 73.75,
      "v": 92
    },
    {
      "midi": 78,
      "hit": false,
      "t": 114900,
      "d": 69.375,
      "v": 108
    },
    {
      "midi": 73,
      "hit": false,
      "t": 114900,
      "d": 76.875,
      "v": 101
    },
    {
      "midi": 81,
      "hit": false,
      "t": 114900,
      "d": 76.875,
      "v": 108
    },
    {
      "midi": 81,
      "hit": false,
      "t": 115050,
      "d": 72.5,
      "v": 92
    },
    {
      "midi": 78,
      "hit": false,
      "t": 115050,
      "d": 73.75,
      "v": 94
    },
    {
      "midi": 73,
      "hit": false,
      "t": 115050,
      "d": 76.875,
      "v": 95
    },
    {
      "midi": 78,
      "hit": false,
      "t": 115200,
      "d": 80,
      "v": 106
    },
    {
      "midi": 81,
      "hit": false,
      "t": 115200,
      "d": 81.875,
      "v": 100
    },
    {
      "midi": 73,
      "hit": false,
      "t": 115200,
      "d": 85,
      "v": 102
    },
    {
      "midi": 66,
      "hit": false,
      "t": 115200,
      "d": 1197.5,
      "v": 1
    },
    {
      "midi": 78,
      "hit": false,
      "t": 115350,
      "d": 70.625,
      "v": 90
    },
    {
      "midi": 81,
      "hit": false,
      "t": 115350,
      "d": 73.75,
      "v": 89
    },
    {
      "midi": 73,
      "hit": false,
      "t": 115350,
      "d": 75.625,
      "v": 90
    },
    {
      "midi": 78,
      "hit": false,
      "t": 115500,
      "d": 83.125,
      "v": 110
    },
    {
      "midi": 81,
      "hit": false,
      "t": 115500,
      "d": 83.125,
      "v": 105
    },
    {
      "midi": 73,
      "hit": false,
      "t": 115500,
      "d": 88.125,
      "v": 109
    },
    {
      "midi": 78,
      "hit": false,
      "t": 115650,
      "d": 76.875,
      "v": 103
    },
    {
      "midi": 81,
      "hit": false,
      "t": 115650,
      "d": 76.875,
      "v": 102
    },
    {
      "midi": 73,
      "hit": false,
      "t": 115650,
      "d": 86.25,
      "v": 98
    },
    {
      "midi": 81,
      "hit": false,
      "t": 115800,
      "d": 70.625,
      "v": 96
    },
    {
      "midi": 78,
      "hit": false,
      "t": 115800,
      "d": 75.625,
      "v": 97
    },
    {
      "midi": 73,
      "hit": false,
      "t": 115800,
      "d": 85,
      "v": 98
    },
    {
      "midi": 81,
      "hit": false,
      "t": 115950,
      "d": 64.375,
      "v": 92
    },
    {
      "midi": 78,
      "hit": false,
      "t": 115950,
      "d": 70.625,
      "v": 93
    },
    {
      "midi": 73,
      "hit": false,
      "t": 115950,
      "d": 85,
      "v": 96
    },
    {
      "midi": 81,
      "hit": false,
      "t": 116100,
      "d": 66.25,
      "v": 102
    },
    {
      "midi": 73,
      "hit": false,
      "t": 116100,
      "d": 73.75,
      "v": 100
    },
    {
      "midi": 78,
      "hit": false,
      "t": 116100,
      "d": 75.625,
      "v": 103
    },
    {
      "midi": 73,
      "hit": false,
      "t": 116250,
      "d": 69.375,
      "v": 95
    },
    {
      "midi": 81,
      "hit": false,
      "t": 116250,
      "d": 73.75,
      "v": 91
    },
    {
      "midi": 78,
      "hit": false,
      "t": 116250,
      "d": 83.125,
      "v": 96
    },
    {
      "midi": 78,
      "hit": false,
      "t": 116400,
      "d": 69.375,
      "v": 76
    },
    {
      "midi": 74,
      "hit": false,
      "t": 116400,
      "d": 72.5,
      "v": 100
    },
    {
      "midi": 81,
      "hit": false,
      "t": 116400,
      "d": 76.875,
      "v": 99
    },
    {
      "midi": 74,
      "hit": false,
      "t": 116550,
      "d": 61.25,
      "v": 89
    },
    {
      "midi": 78,
      "hit": false,
      "t": 116550,
      "d": 66.25,
      "v": 74
    },
    {
      "midi": 81,
      "hit": false,
      "t": 116550,
      "d": 69.375,
      "v": 71
    },
    {
      "midi": 74,
      "hit": false,
      "t": 116700,
      "d": 72.5,
      "v": 96
    },
    {
      "midi": 78,
      "hit": false,
      "t": 116700,
      "d": 72.5,
      "v": 98
    },
    {
      "midi": 81,
      "hit": false,
      "t": 116700,
      "d": 78.75,
      "v": 100
    },
    {
      "midi": 78,
      "hit": false,
      "t": 116850,
      "d": 67.5,
      "v": 67
    },
    {
      "midi": 74,
      "hit": false,
      "t": 116850,
      "d": 70.625,
      "v": 83
    },
    {
      "midi": 81,
      "hit": false,
      "t": 116850,
      "d": 72.5,
      "v": 74
    },
    {
      "midi": 78,
      "hit": false,
      "t": 117000,
      "d": 73.75,
      "v": 65
    },
    {
      "midi": 81,
      "hit": false,
      "t": 117000,
      "d": 73.75,
      "v": 69
    },
    {
      "midi": 74,
      "hit": false,
      "t": 117000,
      "d": 78.75,
      "v": 79
    },
    {
      "midi": 62,
      "hit": false,
      "t": 117000,
      "d": 1797.5,
      "v": 1
    },
    {
      "midi": 78,
      "hit": false,
      "t": 117150,
      "d": 72.5,
      "v": 63
    },
    {
      "midi": 74,
      "hit": false,
      "t": 117150,
      "d": 73.75,
      "v": 82
    },
    {
      "midi": 81,
      "hit": false,
      "t": 117150,
      "d": 73.75,
      "v": 63
    },
    {
      "midi": 78,
      "hit": false,
      "t": 117300,
      "d": 66.25,
      "v": 73
    },
    {
      "midi": 74,
      "hit": false,
      "t": 117300,
      "d": 69.375,
      "v": 85
    },
    {
      "midi": 81,
      "hit": false,
      "t": 117300,
      "d": 69.375,
      "v": 83
    },
    {
      "midi": 81,
      "hit": false,
      "t": 117450,
      "d": 55,
      "v": 73
    },
    {
      "midi": 78,
      "hit": false,
      "t": 117450,
      "d": 61.25,
      "v": 76
    },
    {
      "midi": 74,
      "hit": false,
      "t": 117450,
      "d": 63.125,
      "v": 85
    },
    {
      "midi": 81,
      "hit": false,
      "t": 117600,
      "d": 58.125,
      "v": 88
    },
    {
      "midi": 74,
      "hit": false,
      "t": 117600,
      "d": 67.5,
      "v": 94
    },
    {
      "midi": 78,
      "hit": false,
      "t": 117600,
      "d": 67.5,
      "v": 79
    },
    {
      "midi": 66,
      "hit": false,
      "t": 117600,
      "d": 1197.5,
      "v": 1
    },
    {
      "midi": 81,
      "hit": false,
      "t": 117750,
      "d": 60,
      "v": 83
    },
    {
      "midi": 78,
      "hit": false,
      "t": 117750,
      "d": 61.25,
      "v": 68
    },
    {
      "midi": 74,
      "hit": false,
      "t": 117750,
      "d": 64.375,
      "v": 84
    },
    {
      "midi": 81,
      "hit": false,
      "t": 117900,
      "d": 58.125,
      "v": 81
    },
    {
      "midi": 78,
      "hit": false,
      "t": 117900,
      "d": 60,
      "v": 64
    },
    {
      "midi": 74,
      "hit": false,
      "t": 117900,
      "d": 64.375,
      "v": 85
    },
    {
      "midi": 81,
      "hit": false,
      "t": 118050,
      "d": 56.875,
      "v": 87
    },
    {
      "midi": 78,
      "hit": false,
      "t": 118050,
      "d": 58.125,
      "v": 77
    },
    {
      "midi": 74,
      "hit": false,
      "t": 118050,
      "d": 63.125,
      "v": 92
    },
    {
      "midi": 81,
      "hit": false,
      "t": 118200,
      "d": 55,
      "v": 91
    },
    {
      "midi": 74,
      "hit": false,
      "t": 118200,
      "d": 60,
      "v": 90
    },
    {
      "midi": 78,
      "hit": false,
      "t": 118200,
      "d": 60,
      "v": 72
    },
    {
      "midi": 81,
      "hit": false,
      "t": 118350,
      "d": 55,
      "v": 93
    },
    {
      "midi": 78,
      "hit": false,
      "t": 118350,
      "d": 60,
      "v": 79
    },
    {
      "midi": 74,
      "hit": false,
      "t": 118350,
      "d": 64.375,
      "v": 90
    },
    {
      "midi": 78,
      "hit": false,
      "t": 118500,
      "d": 48.75,
      "v": 78
    },
    {
      "midi": 81,
      "hit": false,
      "t": 118500,
      "d": 50.625,
      "v": 93
    },
    {
      "midi": 74,
      "hit": false,
      "t": 118500,
      "d": 53.75,
      "v": 93
    },
    {
      "midi": 74,
      "hit": false,
      "t": 118650,
      "d": 50.625,
      "v": 89
    },
    {
      "midi": 78,
      "hit": false,
      "t": 118650,
      "d": 56.875,
      "v": 95
    },
    {
      "midi": 81,
      "hit": false,
      "t": 118650,
      "d": 63.125,
      "v": 93
    },
    {
      "midi": 64,
      "hit": false,
      "t": 118800,
      "d": 195.625,
      "v": 100
    },
    {
      "midi": 71,
      "hit": false,
      "t": 118800,
      "d": 197.5,
      "v": 109
    },
    {
      "midi": 64,
      "hit": false,
      "t": 119100,
      "d": 203.75,
      "v": 92
    },
    {
      "midi": 73,
      "hit": false,
      "t": 119100,
      "d": 203.75,
      "v": 89
    },
    {
      "midi": 64,
      "hit": false,
      "t": 119400,
      "d": 214.375,
      "v": 89
    },
    {
      "midi": 71,
      "hit": false,
      "t": 119400,
      "d": 220.625,
      "v": 110
    },
    {
      "midi": 64,
      "hit": false,
      "t": 119400,
      "d": 1797.5,
      "v": 1
    },
    {
      "midi": 73,
      "hit": false,
      "t": 119700,
      "d": 192.5,
      "v": 97
    },
    {
      "midi": 64,
      "hit": false,
      "t": 119700,
      "d": 195.625,
      "v": 80
    },
    {
      "midi": 86,
      "hit": false,
      "t": 119959.375,
      "d": 25.625,
      "v": 106
    },
    {
      "midi": 87,
      "hit": false,
      "t": 119970,
      "d": 31.875,
      "v": 86
    },
    {
      "midi": 88,
      "hit": false,
      "t": 119988.75,
      "d": 69.375,
      "v": 93
    },
    {
      "midi": 64,
      "hit": false,
      "t": 120000,
      "d": 211.25,
      "v": 89
    },
    {
      "midi": 71,
      "hit": false,
      "t": 120000,
      "d": 225.625,
      "v": 113
    },
    {
      "midi": 68,
      "hit": false,
      "t": 120000,
      "d": 1197.5,
      "v": 1
    },
    {
      "midi": 88,
      "hit": false,
      "t": 120118.75,
      "d": 28.75,
      "v": 103
    },
    {
      "midi": 88,
      "hit": false,
      "t": 120206.25,
      "d": 22.5,
      "v": 114
    },
    {
      "midi": 86,
      "hit": false,
      "t": 120296.875,
      "d": 17.5,
      "v": 90
    },
    {
      "midi": 64,
      "hit": false,
      "t": 120300,
      "d": 192.5,
      "v": 84
    },
    {
      "midi": 73,
      "hit": false,
      "t": 120300,
      "d": 203.75,
      "v": 84
    },
    {
      "midi": 87,
      "hit": false,
      "t": 120304.375,
      "d": 30,
      "v": 105
    },
    {
      "midi": 88,
      "hit": false,
      "t": 120312.5,
      "d": 70.625,
      "v": 112
    },
    {
      "midi": 88,
      "hit": false,
      "t": 120428.125,
      "d": 36.25,
      "v": 105
    },
    {
      "midi": 88,
      "hit": false,
      "t": 120510.625,
      "d": 25.625,
      "v": 104
    },
    {
      "midi": 86,
      "hit": false,
      "t": 120587.5,
      "d": 28.75,
      "v": 105
    },
    {
      "midi": 71,
      "hit": false,
      "t": 120600,
      "d": 235,
      "v": 100
    },
    {
      "midi": 64,
      "hit": false,
      "t": 120600,
      "d": 425.625,
      "v": 92
    },
    {
      "midi": 87,
      "hit": false,
      "t": 120603.125,
      "d": 26.875,
      "v": 87
    },
    {
      "midi": 88,
      "hit": false,
      "t": 120609.375,
      "d": 58.125,
      "v": 98
    },
    {
      "midi": 88,
      "hit": false,
      "t": 120715.625,
      "d": 33.125,
      "v": 111
    },
    {
      "midi": 88,
      "hit": false,
      "t": 120800,
      "d": 25.625,
      "v": 109
    },
    {
      "midi": 86,
      "hit": false,
      "t": 120882.5,
      "d": 28.75,
      "v": 95
    },
    {
      "midi": 87,
      "hit": false,
      "t": 120900,
      "d": 42.5,
      "v": 87
    },
    {
      "midi": 73,
      "hit": false,
      "t": 120900,
      "d": 141.25,
      "v": 69
    },
    {
      "midi": 88,
      "hit": false,
      "t": 120925,
      "d": 50.625,
      "v": 102
    },
    {
      "midi": 88,
      "hit": false,
      "t": 121015.625,
      "d": 31.875,
      "v": 102
    },
    {
      "midi": 88,
      "hit": false,
      "t": 121084.375,
      "d": 33.125,
      "v": 98
    },
    {
      "midi": 81,
      "hit": false,
      "t": 121200,
      "d": 141.25,
      "v": 127
    },
    {
      "midi": 88,
      "hit": false,
      "t": 121200,
      "d": 141.25,
      "v": 121
    },
    {
      "midi": 76,
      "hit": false,
      "t": 121200,
      "d": 145.625,
      "v": 127
    },
    {
      "midi": 93,
      "hit": false,
      "t": 121200,
      "d": 145.625,
      "v": 123
    },
    {
      "midi": 64,
      "hit": false,
      "t": 121200,
      "d": 148.75,
      "v": 123
    },
    {
      "midi": 69,
      "hit": false,
      "t": 121200,
      "d": 148.75,
      "v": 121
    },
    {
      "midi": 61,
      "hit": false,
      "t": 121200,
      "d": 1197.5,
      "v": 1
    },
    {
      "midi": 64,
      "hit": false,
      "t": 121200,
      "d": 1197.5,
      "v": 1
    },
    {
      "midi": 69,
      "hit": false,
      "t": 121200,
      "d": 1197.5,
      "v": 1
    }
  ]
}