{
  "jsonPath": "Rock/Rock-And-Roll/Jim Reeves/hell-have-to-go.json",
  "path": "Rock\\Rock-And-Roll\\Jim Reeves\\Hell Have To Go.mid",
  "name": "Hell Have To Go",
  "difficulty": "Advanced",
  "bpm": 80,
  "notes": [
    {
      "midi": 49,
      "hit": false,
      "t": 3000,
      "d": 2583.333333333333,
      "v": 73
    },
    {
      "midi": 53,
      "hit": false,
      "t": 3000,
      "d": 2583.333333333333,
      "v": 74
    },
    {
      "midi": 56,
      "hit": false,
      "t": 3000,
      "d": 2583.333333333333,
      "v": 73
    },
    {
      "midi": 68,
      "hit": false,
      "t": 3000,
      "d": 2900,
      "v": 76
    },
    {
      "midi": 73,
      "hit": false,
      "t": 3658.3333333333335,
      "d": 708.3333333333335,
      "v": 52
    },
    {
      "midi": 77,
      "hit": false,
      "t": 3991.666666666667,
      "d": 625,
      "v": 62
    },
    {
      "midi": 80,
      "hit": false,
      "t": 3991.666666666667,
      "d": 716.666666666667,
      "v": 57
    },
    {
      "midi": 73,
      "hit": false,
      "t": 4641.666666666667,
      "d": 733.333333333333,
      "v": 51
    },
    {
      "midi": 77,
      "hit": false,
      "t": 4991.666666666667,
      "d": 708.333333333333,
      "v": 64
    },
    {
      "midi": 80,
      "hit": false,
      "t": 5000,
      "d": 825,
      "v": 60
    },
    {
      "midi": 73,
      "hit": false,
      "t": 5658.333333333333,
      "d": 366.66666666666697,
      "v": 48
    },
    {
      "midi": 66,
      "hit": false,
      "t": 5991.666666666667,
      "d": 2758.333333333333,
      "v": 76
    },
    {
      "midi": 48,
      "hit": false,
      "t": 6000,
      "d": 2633.333333333334,
      "v": 66
    },
    {
      "midi": 51,
      "hit": false,
      "t": 6000,
      "d": 2650,
      "v": 70
    },
    {
      "midi": 56,
      "hit": false,
      "t": 6000,
      "d": 2675,
      "v": 66
    },
    {
      "midi": 72,
      "hit": false,
      "t": 6658.333333333333,
      "d": 566.666666666667,
      "v": 50
    },
    {
      "midi": 75,
      "hit": false,
      "t": 7000,
      "d": 633.333333333333,
      "v": 58
    },
    {
      "midi": 78,
      "hit": false,
      "t": 7000,
      "d": 708.333333333333,
      "v": 57
    },
    {
      "midi": 72,
      "hit": false,
      "t": 7658.333333333333,
      "d": 516.666666666667,
      "v": 45
    },
    {
      "midi": 75,
      "hit": false,
      "t": 8000,
      "d": 625,
      "v": 64
    },
    {
      "midi": 78,
      "hit": false,
      "t": 8000,
      "d": 775,
      "v": 58
    },
    {
      "midi": 72,
      "hit": false,
      "t": 8650,
      "d": 391.66666666666606,
      "v": 42
    },
    {
      "midi": 53,
      "hit": false,
      "t": 8991.666666666666,
      "d": 2841.666666666668,
      "v": 71
    },
    {
      "midi": 56,
      "hit": false,
      "t": 8991.666666666666,
      "d": 2858.333333333334,
      "v": 67
    },
    {
      "midi": 49,
      "hit": false,
      "t": 8991.666666666666,
      "d": 2891.666666666668,
      "v": 67
    },
    {
      "midi": 65,
      "hit": false,
      "t": 9000,
      "d": 2816.666666666666,
      "v": 76
    },
    {
      "midi": 73,
      "hit": false,
      "t": 9658.333333333332,
      "d": 500,
      "v": 55
    },
    {
      "midi": 77,
      "hit": false,
      "t": 9999.999999999998,
      "d": 641.6666666666679,
      "v": 66
    },
    {
      "midi": 80,
      "hit": false,
      "t": 9999.999999999998,
      "d": 666.6666666666679,
      "v": 56
    },
    {
      "midi": 73,
      "hit": false,
      "t": 10650,
      "d": 500,
      "v": 54
    },
    {
      "midi": 80,
      "hit": false,
      "t": 10991.666666666666,
      "d": 691.6666666666679,
      "v": 60
    },
    {
      "midi": 77,
      "hit": false,
      "t": 10991.666666666666,
      "d": 733.3333333333339,
      "v": 64
    },
    {
      "midi": 73,
      "hit": false,
      "t": 11658.333333333334,
      "d": 425,
      "v": 58
    },
    {
      "midi": 48,
      "hit": false,
      "t": 12000,
      "d": 2416.666666666666,
      "v": 68
    },
    {
      "midi": 51,
      "hit": false,
      "t": 12000,
      "d": 2550,
      "v": 73
    },
    {
      "midi": 56,
      "hit": false,
      "t": 12000,
      "d": 2600,
      "v": 68
    },
    {
      "midi": 63,
      "hit": false,
      "t": 12000,
      "d": 2066.666666666666,
      "v": 76
    },
    {
      "midi": 72,
      "hit": false,
      "t": 12658.333333333334,
      "d": 466.66666666666606,
      "v": 50
    },
    {
      "midi": 75,
      "hit": false,
      "t": 13000,
      "d": 633.3333333333339,
      "v": 60
    },
    {
      "midi": 78,
      "hit": false,
      "t": 13000,
      "d": 758.3333333333339,
      "v": 54
    },
    {
      "midi": 72,
      "hit": false,
      "t": 13650,
      "d": 550,
      "v": 44
    },
    {
      "midi": 75,
      "hit": false,
      "t": 14000,
      "d": 575,
      "v": 63
    },
    {
      "midi": 78,
      "hit": false,
      "t": 14008.333333333334,
      "d": 700,
      "v": 56
    },
    {
      "midi": 72,
      "hit": false,
      "t": 14650,
      "d": 350,
      "v": 54
    },
    {
      "midi": 63,
      "hit": false,
      "t": 14650,
      "d": 341.66666666666606,
      "v": 71
    },
    {
      "midi": 68,
      "hit": false,
      "t": 14991.666666666666,
      "d": 2949.999999999998,
      "v": 73
    },
    {
      "midi": 56,
      "hit": false,
      "t": 15000,
      "d": 2616.666666666668,
      "v": 66
    },
    {
      "midi": 53,
      "hit": false,
      "t": 15000,
      "d": 2650,
      "v": 71
    },
    {
      "midi": 49,
      "hit": false,
      "t": 15000,
      "d": 2666.666666666668,
      "v": 66
    },
    {
      "midi": 73,
      "hit": false,
      "t": 15658.333333333334,
      "d": 466.66666666666606,
      "v": 52
    },
    {
      "midi": 77,
      "hit": false,
      "t": 16000,
      "d": 633.3333333333321,
      "v": 63
    },
    {
      "midi": 80,
      "hit": false,
      "t": 16000,
      "d": 708.3333333333321,
      "v": 57
    },
    {
      "midi": 73,
      "hit": false,
      "t": 16658.333333333332,
      "d": 525,
      "v": 51
    },
    {
      "midi": 80,
      "hit": false,
      "t": 17000,
      "d": 600,
      "v": 58
    },
    {
      "midi": 77,
      "hit": false,
      "t": 17000,
      "d": 691.6666666666679,
      "v": 65
    },
    {
      "midi": 73,
      "hit": false,
      "t": 17666.666666666668,
      "d": 533.3333333333321,
      "v": 54
    },
    {
      "midi": 70,
      "hit": false,
      "t": 17991.666666666664,
      "d": 2966.666666666668,
      "v": 74
    },
    {
      "midi": 58,
      "hit": false,
      "t": 18000,
      "d": 2625,
      "v": 68
    },
    {
      "midi": 54,
      "hit": false,
      "t": 18000,
      "d": 2675,
      "v": 75
    },
    {
      "midi": 49,
      "hit": false,
      "t": 18000,
      "d": 2691.666666666668,
      "v": 66
    },
    {
      "midi": 73,
      "hit": false,
      "t": 18666.666666666668,
      "d": 458.3333333333321,
      "v": 50
    },
    {
      "midi": 82,
      "hit": false,
      "t": 19000,
      "d": 633.3333333333321,
      "v": 61
    },
    {
      "midi": 78,
      "hit": false,
      "t": 19000,
      "d": 691.6666666666679,
      "v": 61
    },
    {
      "midi": 73,
      "hit": false,
      "t": 19650,
      "d": 500,
      "v": 49
    },
    {
      "midi": 78,
      "hit": false,
      "t": 19983.333333333336,
      "d": 791.6666666666642,
      "v": 65
    },
    {
      "midi": 82,
      "hit": false,
      "t": 19991.666666666668,
      "d": 800,
      "v": 64
    },
    {
      "midi": 73,
      "hit": false,
      "t": 20658.333333333332,
      "d": 625.0000000000036,
      "v": 40
    },
    {
      "midi": 49,
      "hit": false,
      "t": 20991.666666666668,
      "d": 2750.0000000000036,
      "v": 66
    },
    {
      "midi": 56,
      "hit": false,
      "t": 20991.666666666668,
      "d": 2750.0000000000036,
      "v": 61
    },
    {
      "midi": 53,
      "hit": false,
      "t": 20991.666666666668,
      "d": 2758.3333333333358,
      "v": 70
    },
    {
      "midi": 68,
      "hit": false,
      "t": 21000,
      "d": 4250,
      "v": 77
    },
    {
      "midi": 73,
      "hit": false,
      "t": 21666.666666666668,
      "d": 666.6666666666679,
      "v": 50
    },
    {
      "midi": 77,
      "hit": false,
      "t": 22008.333333333336,
      "d": 625,
      "v": 67
    },
    {
      "midi": 80,
      "hit": false,
      "t": 22008.333333333336,
      "d": 666.6666666666679,
      "v": 64
    },
    {
      "midi": 73,
      "hit": false,
      "t": 22658.333333333336,
      "d": 625,
      "v": 45
    },
    {
      "midi": 77,
      "hit": false,
      "t": 23000.000000000004,
      "d": 683.3333333333321,
      "v": 64
    },
    {
      "midi": 80,
      "hit": false,
      "t": 23000.000000000004,
      "d": 700,
      "v": 57
    },
    {
      "midi": 73,
      "hit": false,
      "t": 23650.000000000004,
      "d": 408.33333333333576,
      "v": 48
    },
    {
      "midi": 49,
      "hit": false,
      "t": 23991.66666666667,
      "d": 2766.6666666666642,
      "v": 68
    },
    {
      "midi": 53,
      "hit": false,
      "t": 23991.66666666667,
      "d": 2766.6666666666642,
      "v": 71
    },
    {
      "midi": 56,
      "hit": false,
      "t": 23991.66666666667,
      "d": 2774.9999999999964,
      "v": 67
    },
    {
      "midi": 73,
      "hit": false,
      "t": 24650.000000000007,
      "d": 466.6666666666679,
      "v": 57
    },
    {
      "midi": 77,
      "hit": false,
      "t": 24991.666666666675,
      "d": 650,
      "v": 64
    },
    {
      "midi": 80,
      "hit": false,
      "t": 24991.666666666675,
      "d": 666.6666666666642,
      "v": 55
    },
    {
      "midi": 73,
      "hit": false,
      "t": 25650.000000000007,
      "d": 466.66666666666424,
      "v": 55
    },
    {
      "midi": 80,
      "hit": false,
      "t": 25991.66666666667,
      "d": 633.3333333333321,
      "v": 55
    },
    {
      "midi": 77,
      "hit": false,
      "t": 25991.66666666667,
      "d": 708.3333333333321,
      "v": 60
    },
    {
      "midi": 73,
      "hit": false,
      "t": 26658.333333333336,
      "d": 408.3333333333321,
      "v": 55
    },
    {
      "midi": 49,
      "hit": false,
      "t": 27000,
      "d": 2675.0000000000073,
      "v": 64
    },
    {
      "midi": 53,
      "hit": false,
      "t": 27000,
      "d": 2675.0000000000073,
      "v": 72
    },
    {
      "midi": 56,
      "hit": false,
      "t": 27000,
      "d": 2675.0000000000073,
      "v": 66
    },
    {
      "midi": 68,
      "hit": false,
      "t": 27000,
      "d": 5916.666666666664,
      "v": 75
    },
    {
      "midi": 73,
      "hit": false,
      "t": 27658.333333333336,
      "d": 466.6666666666679,
      "v": 58
    },
    {
      "midi": 77,
      "hit": false,
      "t": 28000.000000000004,
      "d": 591.6666666666679,
      "v": 63
    },
    {
      "midi": 80,
      "hit": false,
      "t": 28000.000000000004,
      "d": 691.6666666666679,
      "v": 58
    },
    {
      "midi": 73,
      "hit": false,
      "t": 28641.66666666667,
      "d": 541.6666666666679,
      "v": 52
    },
    {
      "midi": 80,
      "hit": false,
      "t": 28991.66666666667,
      "d": 616.6666666666679,
      "v": 57
    },
    {
      "midi": 77,
      "hit": false,
      "t": 28991.66666666667,
      "d": 666.6666666666679,
      "v": 61
    },
    {
      "midi": 73,
      "hit": false,
      "t": 29650.000000000007,
      "d": 416.6666666666679,
      "v": 53
    },
    {
      "midi": 53,
      "hit": false,
      "t": 29991.666666666675,
      "d": 2349.9999999999964,
      "v": 71
    },
    {
      "midi": 49,
      "hit": false,
      "t": 29991.666666666675,
      "d": 2374.9999999999964,
      "v": 70
    },
    {
      "midi": 56,
      "hit": false,
      "t": 29991.666666666675,
      "d": 2483.3333333333285,
      "v": 68
    },
    {
      "midi": 73,
      "hit": false,
      "t": 30650.000000000007,
      "d": 466.6666666666679,
      "v": 50
    },
    {
      "midi": 77,
      "hit": false,
      "t": 30991.666666666675,
      "d": 608.3333333333321,
      "v": 63
    },
    {
      "midi": 80,
      "hit": false,
      "t": 31000.000000000007,
      "d": 750,
      "v": 56
    },
    {
      "midi": 73,
      "hit": false,
      "t": 31650.000000000007,
      "d": 558.3333333333321,
      "v": 49
    },
    {
      "midi": 77,
      "hit": false,
      "t": 32000.000000000007,
      "d": 741.6666666666606,
      "v": 62
    },
    {
      "midi": 80,
      "hit": false,
      "t": 32000.000000000007,
      "d": 799.9999999999927,
      "v": 61
    },
    {
      "midi": 73,
      "hit": false,
      "t": 32658.333333333336,
      "d": 358.33333333333576,
      "v": 49
    },
    {
      "midi": 56,
      "hit": false,
      "t": 32983.333333333336,
      "d": 2833.333333333343,
      "v": 68
    },
    {
      "midi": 48,
      "hit": false,
      "t": 32983.333333333336,
      "d": 2841.666666666679,
      "v": 66
    },
    {
      "midi": 51,
      "hit": false,
      "t": 32983.333333333336,
      "d": 2841.666666666679,
      "v": 70
    },
    {
      "midi": 56,
      "hit": false,
      "t": 33000,
      "d": 2575,
      "v": 73
    },
    {
      "midi": 72,
      "hit": false,
      "t": 33650.00000000001,
      "d": 508.3333333333285,
      "v": 45
    },
    {
      "midi": 75,
      "hit": false,
      "t": 33991.66666666667,
      "d": 633.3333333333285,
      "v": 57
    },
    {
      "midi": 78,
      "hit": false,
      "t": 33991.66666666667,
      "d": 716.6666666666642,
      "v": 52
    },
    {
      "midi": 72,
      "hit": false,
      "t": 34650,
      "d": 500.0000000000073,
      "v": 52
    },
    {
      "midi": 75,
      "hit": false,
      "t": 34991.66666666667,
      "d": 733.3333333333358,
      "v": 63
    },
    {
      "midi": 78,
      "hit": false,
      "t": 35000.00000000001,
      "d": 783.3333333333358,
      "v": 61
    },
    {
      "midi": 68,
      "hit": false,
      "t": 35658.333333333336,
      "d": 333.33333333333576,
      "v": 73
    },
    {
      "midi": 72,
      "hit": false,
      "t": 35658.33333333334,
      "d": 375.0000000000073,
      "v": 40
    },
    {
      "midi": 48,
      "hit": false,
      "t": 35991.66666666668,
      "d": 2525,
      "v": 64
    },
    {
      "midi": 51,
      "hit": false,
      "t": 35991.66666666668,
      "d": 2608.3333333333358,
      "v": 66
    },
    {
      "midi": 56,
      "hit": false,
      "t": 36000.00000000001,
      "d": 2608.3333333333358,
      "v": 70
    },
    {
      "midi": 56,
      "hit": false,
      "t": 36000.000000000015,
      "d": 2591.6666666666642,
      "v": 61
    },
    {
      "midi": 72,
      "hit": false,
      "t": 36966.666666666686,
      "d": 816.6666666666642,
      "v": 40
    },
    {
      "midi": 75,
      "hit": false,
      "t": 36991.666666666686,
      "d": 1833.3333333333285,
      "v": 63
    },
    {
      "midi": 78,
      "hit": false,
      "t": 37000.00000000002,
      "d": 591.6666666666642,
      "v": 55
    },
    {
      "midi": 72,
      "hit": false,
      "t": 37983.33333333335,
      "d": 750,
      "v": 56
    },
    {
      "midi": 80,
      "hit": false,
      "t": 38025.000000000015,
      "d": 900,
      "v": 57
    },
    {
      "midi": 61,
      "hit": false,
      "t": 38991.66666666668,
      "d": 2291.6666666666642,
      "v": 74
    },
    {
      "midi": 49,
      "hit": false,
      "t": 39000.000000000015,
      "d": 2816.6666666666715,
      "v": 64
    },
    {
      "midi": 53,
      "hit": false,
      "t": 39000.000000000015,
      "d": 2816.6666666666715,
      "v": 69
    },
    {
      "midi": 56,
      "hit": false,
      "t": 39000.000000000015,
      "d": 2816.6666666666715,
      "v": 66
    },
    {
      "midi": 73,
      "hit": false,
      "t": 39650.000000000015,
      "d": 591.6666666666715,
      "v": 53
    },
    {
      "midi": 77,
      "hit": false,
      "t": 39983.33333333335,
      "d": 591.6666666666715,
      "v": 59
    },
    {
      "midi": 80,
      "hit": false,
      "t": 39983.33333333335,
      "d": 675,
      "v": 57
    },
    {
      "midi": 73,
      "hit": false,
      "t": 40641.666666666686,
      "d": 691.6666666666642,
      "v": 44
    },
    {
      "midi": 80,
      "hit": false,
      "t": 40983.33333333335,
      "d": 700,
      "v": 55
    },
    {
      "midi": 77,
      "hit": false,
      "t": 40983.33333333335,
      "d": 708.3333333333358,
      "v": 59
    },
    {
      "midi": 61,
      "hit": false,
      "t": 41650.00000000001,
      "d": 341.6666666666715,
      "v": 70
    },
    {
      "midi": 73,
      "hit": false,
      "t": 41650.000000000015,
      "d": 600.0000000000073,
      "v": 45
    },
    {
      "midi": 71,
      "hit": false,
      "t": 41983.33333333334,
      "d": 1008.3333333333358,
      "v": 74
    },
    {
      "midi": 56,
      "hit": false,
      "t": 42000.00000000002,
      "d": 2466.6666666666715,
      "v": 67
    },
    {
      "midi": 49,
      "hit": false,
      "t": 42000.00000000002,
      "d": 2608.3333333333358,
      "v": 67
    },
    {
      "midi": 53,
      "hit": false,
      "t": 42000.00000000002,
      "d": 2625,
      "v": 70
    },
    {
      "midi": 73,
      "hit": false,
      "t": 42658.33333333336,
      "d": 466.66666666666424,
      "v": 49
    },
    {
      "midi": 70,
      "hit": false,
      "t": 43000.000000000015,
      "d": 983.3333333333358,
      "v": 64
    },
    {
      "midi": 77,
      "hit": false,
      "t": 43000.00000000002,
      "d": 625,
      "v": 61
    },
    {
      "midi": 80,
      "hit": false,
      "t": 43000.00000000002,
      "d": 633.3333333333358,
      "v": 55
    },
    {
      "midi": 73,
      "hit": false,
      "t": 43658.33333333336,
      "d": 483.33333333333576,
      "v": 48
    },
    {
      "midi": 68,
      "hit": false,
      "t": 43983.33333333335,
      "d": 1008.3333333333358,
      "v": 66
    },
    {
      "midi": 80,
      "hit": false,
      "t": 43991.66666666669,
      "d": 716.6666666666642,
      "v": 61
    },
    {
      "midi": 77,
      "hit": false,
      "t": 44000.00000000003,
      "d": 683.3333333333285,
      "v": 65
    },
    {
      "midi": 73,
      "hit": false,
      "t": 44650.00000000002,
      "d": 483.33333333334303,
      "v": 51
    },
    {
      "midi": 58,
      "hit": false,
      "t": 44991.66666666669,
      "d": 2783.3333333333358,
      "v": 66
    },
    {
      "midi": 70,
      "hit": false,
      "t": 45000.00000000002,
      "d": 2975,
      "v": 76
    },
    {
      "midi": 49,
      "hit": false,
      "t": 45000.00000000003,
      "d": 2758.3333333333358,
      "v": 63
    },
    {
      "midi": 54,
      "hit": false,
      "t": 45000.00000000003,
      "d": 2758.3333333333358,
      "v": 68
    },
    {
      "midi": 73,
      "hit": false,
      "t": 45658.333333333365,
      "d": 533.3333333333358,
      "v": 51
    },
    {
      "midi": 78,
      "hit": false,
      "t": 45991.6666666667,
      "d": 583.3333333333358,
      "v": 61
    },
    {
      "midi": 82,
      "hit": false,
      "t": 45991.6666666667,
      "d": 608.3333333333358,
      "v": 58
    },
    {
      "midi": 73,
      "hit": false,
      "t": 46650.00000000004,
      "d": 508.3333333333285,
      "v": 52
    },
    {
      "midi": 78,
      "hit": false,
      "t": 46991.6666666667,
      "d": 724.9999999999927,
      "v": 61
    },
    {
      "midi": 82,
      "hit": false,
      "t": 46991.6666666667,
      "d": 733.3333333333285,
      "v": 58
    },
    {
      "midi": 73,
      "hit": false,
      "t": 47650.00000000003,
      "d": 666.6666666666642,
      "v": 42
    },
    {
      "midi": 73,
      "hit": false,
      "t": 47983.33333333336,
      "d": 2191.6666666666642,
      "v": 70
    },
    {
      "midi": 58,
      "hit": false,
      "t": 48000.00000000003,
      "d": 2524.9999999999927,
      "v": 62
    },
    {
      "midi": 49,
      "hit": false,
      "t": 48000.00000000003,
      "d": 2558.3333333333285,
      "v": 61
    },
    {
      "midi": 54,
      "hit": false,
      "t": 48000.00000000003,
      "d": 2566.6666666666642,
      "v": 65
    },
    {
      "midi": 73,
      "hit": false,
      "t": 48658.33333333336,
      "d": 466.66666666666424,
      "v": 51
    },
    {
      "midi": 82,
      "hit": false,
      "t": 49000.00000000002,
      "d": 525,
      "v": 58
    },
    {
      "midi": 78,
      "hit": false,
      "t": 49000.00000000002,
      "d": 641.6666666666642,
      "v": 60
    },
    {
      "midi": 73,
      "hit": false,
      "t": 49650.00000000002,
      "d": 525,
      "v": 44
    },
    {
      "midi": 78,
      "hit": false,
      "t": 49991.666666666686,
      "d": 675.0000000000073,
      "v": 58
    },
    {
      "midi": 82,
      "hit": false,
      "t": 50000.00000000002,
      "d": 691.6666666666715,
      "v": 58
    },
    {
      "midi": 73,
      "hit": false,
      "t": 50650.00000000003,
      "d": 866.6666666666642,
      "v": 48
    },
    {
      "midi": 68,
      "hit": false,
      "t": 50991.666666666686,
      "d": 2766.6666666666642,
      "v": 68
    },
    {
      "midi": 49,
      "hit": false,
      "t": 50991.66666666669,
      "d": 2525,
      "v": 66
    },
    {
      "midi": 53,
      "hit": false,
      "t": 50991.66666666669,
      "d": 2533.3333333333358,
      "v": 73
    },
    {
      "midi": 56,
      "hit": false,
      "t": 50991.66666666669,
      "d": 2550,
      "v": 66
    },
    {
      "midi": 73,
      "hit": false,
      "t": 51658.33333333336,
      "d": 416.66666666666424,
      "v": 52
    },
    {
      "midi": 77,
      "hit": false,
      "t": 52000.00000000002,
      "d": 641.6666666666642,
      "v": 63
    },
    {
      "midi": 80,
      "hit": false,
      "t": 52000.00000000002,
      "d": 691.6666666666642,
      "v": 58
    },
    {
      "midi": 73,
      "hit": false,
      "t": 52650.00000000002,
      "d": 458.33333333333576,
      "v": 47
    },
    {
      "midi": 80,
      "hit": false,
      "t": 53000.00000000002,
      "d": 600.0000000000073,
      "v": 58
    },
    {
      "midi": 77,
      "hit": false,
      "t": 53000.00000000002,
      "d": 666.6666666666788,
      "v": 63
    },
    {
      "midi": 73,
      "hit": false,
      "t": 53658.333333333365,
      "d": 341.6666666666715,
      "v": 45
    },
    {
      "midi": 66,
      "hit": false,
      "t": 53991.666666666686,
      "d": 2608.3333333333358,
      "v": 64
    },
    {
      "midi": 48,
      "hit": false,
      "t": 53991.6666666667,
      "d": 2691.666666666679,
      "v": 68
    },
    {
      "midi": 51,
      "hit": false,
      "t": 53991.6666666667,
      "d": 2716.666666666679,
      "v": 68
    },
    {
      "midi": 56,
      "hit": false,
      "t": 54000.00000000004,
      "d": 2725.0000000000073,
      "v": 64
    },
    {
      "midi": 72,
      "hit": false,
      "t": 54658.33333333337,
      "d": 416.6666666666715,
      "v": 52
    },
    {
      "midi": 78,
      "hit": false,
      "t": 54991.66666666671,
      "d": 550,
      "v": 55
    },
    {
      "midi": 75,
      "hit": false,
      "t": 54991.66666666671,
      "d": 666.6666666666715,
      "v": 58
    },
    {
      "midi": 72,
      "hit": false,
      "t": 55650.000000000044,
      "d": 458.33333333333576,
      "v": 48
    },
    {
      "midi": 75,
      "hit": false,
      "t": 55983.33333333338,
      "d": 758.3333333333285,
      "v": 58
    },
    {
      "midi": 78,
      "hit": false,
      "t": 55983.33333333338,
      "d": 808.3333333333285,
      "v": 55
    },
    {
      "midi": 72,
      "hit": false,
      "t": 56641.666666666715,
      "d": 316.66666666665697,
      "v": 40
    },
    {
      "midi": 65,
      "hit": false,
      "t": 56991.666666666686,
      "d": 2650,
      "v": 68
    },
    {
      "midi": 53,
      "hit": false,
      "t": 56991.66666666671,
      "d": 2908.3333333333285,
      "v": 68
    },
    {
      "midi": 49,
      "hit": false,
      "t": 56991.66666666671,
      "d": 2924.9999999999927,
      "v": 66
    },
    {
      "midi": 56,
      "hit": false,
      "t": 56991.66666666671,
      "d": 2949.9999999999927,
      "v": 67
    },
    {
      "midi": 73,
      "hit": false,
      "t": 57658.33333333337,
      "d": 508.3333333333285,
      "v": 56
    },
    {
      "midi": 80,
      "hit": false,
      "t": 58000.00000000004,
      "d": 625,
      "v": 55
    },
    {
      "midi": 77,
      "hit": false,
      "t": 58000.00000000004,
      "d": 650,
      "v": 62
    },
    {
      "midi": 73,
      "hit": false,
      "t": 58650.00000000004,
      "d": 458.3333333333285,
      "v": 57
    },
    {
      "midi": 77,
      "hit": false,
      "t": 58991.6666666667,
      "d": 266.66666666666424,
      "v": 69
    },
    {
      "midi": 80,
      "hit": false,
      "t": 58991.6666666667,
      "d": 300,
      "v": 64
    },
    {
      "midi": 78,
      "hit": false,
      "t": 59650.00000000004,
      "d": 341.66666666666424,
      "v": 60
    },
    {
      "midi": 82,
      "hit": false,
      "t": 59650.00000000004,
      "d": 341.66666666666424,
      "v": 57
    },
    {
      "midi": 68,
      "hit": false,
      "t": 60000.00000000002,
      "d": 991.6666666666642,
      "v": 71
    },
    {
      "midi": 80,
      "hit": false,
      "t": 60000.00000000004,
      "d": 633.3333333333358,
      "v": 56
    },
    {
      "midi": 77,
      "hit": false,
      "t": 60000.00000000004,
      "d": 650,
      "v": 69
    },
    {
      "midi": 44,
      "hit": false,
      "t": 60000.00000000004,
      "d": 966.6666666666642,
      "v": 73
    },
    {
      "midi": 48,
      "hit": false,
      "t": 60000.00000000004,
      "d": 1000,
      "v": 71
    },
    {
      "midi": 49,
      "hit": false,
      "t": 60983.333333333365,
      "d": 1125.0000000000073,
      "v": 73
    },
    {
      "midi": 67,
      "hit": false,
      "t": 60991.666666666686,
      "d": 1008.3333333333358,
      "v": 73
    },
    {
      "midi": 76,
      "hit": false,
      "t": 60991.6666666667,
      "d": 833.3333333333358,
      "v": 62
    },
    {
      "midi": 79,
      "hit": false,
      "t": 60991.6666666667,
      "d": 900,
      "v": 63
    },
    {
      "midi": 46,
      "hit": false,
      "t": 60991.6666666667,
      "d": 1033.3333333333358,
      "v": 67
    },
    {
      "midi": 51,
      "hit": false,
      "t": 61991.6666666667,
      "d": 658.3333333333358,
      "v": 68
    },
    {
      "midi": 48,
      "hit": false,
      "t": 61991.6666666667,
      "d": 733.3333333333358,
      "v": 74
    },
    {
      "midi": 66,
      "hit": false,
      "t": 62000.00000000002,
      "d": 950,
      "v": 68
    },
    {
      "midi": 75,
      "hit": false,
      "t": 62000.00000000004,
      "d": 1000,
      "v": 61
    },
    {
      "midi": 78,
      "hit": false,
      "t": 62008.33333333337,
      "d": 991.6666666666642,
      "v": 63
    },
    {
      "midi": 65,
      "hit": false,
      "t": 63000.00000000002,
      "d": 1408.3333333333358,
      "v": 70
    },
    {
      "midi": 56,
      "hit": false,
      "t": 63000.00000000004,
      "d": 2608.3333333333358,
      "v": 68
    },
    {
      "midi": 49,
      "hit": false,
      "t": 63000.00000000004,
      "d": 2650.0000000000073,
      "v": 67
    },
    {
      "midi": 53,
      "hit": false,
      "t": 63000.00000000004,
      "d": 2683.3333333333358,
      "v": 75
    },
    {
      "midi": 73,
      "hit": false,
      "t": 63658.33333333337,
      "d": 550,
      "v": 55
    },
    {
      "midi": 77,
      "hit": false,
      "t": 64000.00000000004,
      "d": 575,
      "v": 58
    },
    {
      "midi": 80,
      "hit": false,
      "t": 64000.00000000004,
      "d": 691.6666666666642,
      "v": 54
    },
    {
      "midi": 73,
      "hit": false,
      "t": 64650.00000000004,
      "d": 550,
      "v": 50
    },
    {
      "midi": 65,
      "hit": false,
      "t": 64658.33333333336,
      "d": 333.33333333333576,
      "v": 74
    },
    {
      "midi": 77,
      "hit": false,
      "t": 64983.333333333365,
      "d": 675.0000000000073,
      "v": 62
    },
    {
      "midi": 80,
      "hit": false,
      "t": 64991.6666666667,
      "d": 758.333333333343,
      "v": 55
    },
    {
      "midi": 68,
      "hit": false,
      "t": 65000.00000000003,
      "d": 891.6666666666715,
      "v": 77
    },
    {
      "midi": 73,
      "hit": false,
      "t": 65650.00000000004,
      "d": 483.3333333333285,
      "v": 51
    },
    {
      "midi": 58,
      "hit": false,
      "t": 66000.00000000004,
      "d": 2691.666666666657,
      "v": 65
    },
    {
      "midi": 49,
      "hit": false,
      "t": 66000.00000000004,
      "d": 2749.9999999999854,
      "v": 59
    },
    {
      "midi": 54,
      "hit": false,
      "t": 66000.00000000004,
      "d": 2766.666666666657,
      "v": 68
    },
    {
      "midi": 73,
      "hit": false,
      "t": 66650.00000000004,
      "d": 508.3333333333285,
      "v": 52
    },
    {
      "midi": 61,
      "hit": false,
      "t": 66983.33333333337,
      "d": 666.6666666666715,
      "v": 70
    },
    {
      "midi": 78,
      "hit": false,
      "t": 66991.66666666672,
      "d": 633.3333333333285,
      "v": 56
    },
    {
      "midi": 82,
      "hit": false,
      "t": 67000.00000000004,
      "d": 625,
      "v": 57
    },
    {
      "midi": 73,
      "hit": false,
      "t": 67650.00000000004,
      "d": 516.666666666657,
      "v": 48
    },
    {
      "midi": 70,
      "hit": false,
      "t": 67650.00000000004,
      "d": 333.3333333333285,
      "v": 68
    },
    {
      "midi": 78,
      "hit": false,
      "t": 67983.33333333337,
      "d": 708.3333333333285,
      "v": 58
    },
    {
      "midi": 82,
      "hit": false,
      "t": 67983.33333333337,
      "d": 708.3333333333285,
      "v": 57
    },
    {
      "midi": 73,
      "hit": false,
      "t": 67991.6666666667,
      "d": 1041.6666666666715,
      "v": 68
    },
    {
      "midi": 73,
      "hit": false,
      "t": 68650.00000000003,
      "d": 625,
      "v": 53
    },
    {
      "midi": 53,
      "hit": false,
      "t": 68991.6666666667,
      "d": 2733.333333333343,
      "v": 67
    },
    {
      "midi": 49,
      "hit": false,
      "t": 68991.6666666667,
      "d": 2766.6666666666715,
      "v": 64
    },
    {
      "midi": 56,
      "hit": false,
      "t": 69000.00000000003,
      "d": 2708.333333333343,
      "v": 61
    },
    {
      "midi": 73,
      "hit": false,
      "t": 69650.00000000003,
      "d": 475,
      "v": 50
    },
    {
      "midi": 77,
      "hit": false,
      "t": 69983.33333333336,
      "d": 608.333333333343,
      "v": 59
    },
    {
      "midi": 80,
      "hit": false,
      "t": 69983.33333333336,
      "d": 666.6666666666861,
      "v": 52
    },
    {
      "midi": 73,
      "hit": false,
      "t": 70633.33333333337,
      "d": 525,
      "v": 53
    },
    {
      "midi": 65,
      "hit": false,
      "t": 70650.00000000004,
      "d": 333.3333333333285,
      "v": 65
    },
    {
      "midi": 77,
      "hit": false,
      "t": 70983.33333333337,
      "d": 666.6666666666715,
      "v": 60
    },
    {
      "midi": 80,
      "hit": false,
      "t": 70991.6666666667,
      "d": 633.333333333343,
      "v": 55
    },
    {
      "midi": 68,
      "hit": false,
      "t": 70991.6666666667,
      "d": 658.3333333333285,
      "v": 72
    },
    {
      "midi": 65,
      "hit": false,
      "t": 71650.00000000003,
      "d": 441.6666666666715,
      "v": 70
    },
    {
      "midi": 73,
      "hit": false,
      "t": 71650.00000000004,
      "d": 391.66666666665697,
      "v": 55
    },
    {
      "midi": 49,
      "hit": false,
      "t": 71983.33333333337,
      "d": 2733.333333333314,
      "v": 67
    },
    {
      "midi": 53,
      "hit": false,
      "t": 71991.6666666667,
      "d": 2699.9999999999854,
      "v": 69
    },
    {
      "midi": 56,
      "hit": false,
      "t": 71991.6666666667,
      "d": 2716.666666666657,
      "v": 67
    },
    {
      "midi": 73,
      "hit": false,
      "t": 72000.00000000003,
      "d": 1000,
      "v": 68
    },
    {
      "midi": 73,
      "hit": false,
      "t": 72650.00000000003,
      "d": 500,
      "v": 55
    },
    {
      "midi": 65,
      "hit": false,
      "t": 72658.33333333337,
      "d": 333.3333333333285,
      "v": 70
    },
    {
      "midi": 77,
      "hit": false,
      "t": 72991.6666666667,
      "d": 666.666666666657,
      "v": 61
    },
    {
      "midi": 80,
      "hit": false,
      "t": 72991.6666666667,
      "d": 674.9999999999854,
      "v": 55
    },
    {
      "midi": 68,
      "hit": false,
      "t": 73000.00000000003,
      "d": 666.6666666666715,
      "v": 72
    },
    {
      "midi": 73,
      "hit": false,
      "t": 73650.00000000003,
      "d": 616.666666666657,
      "v": 40
    },
    {
      "midi": 61,
      "hit": false,
      "t": 73650.00000000003,
      "d": 333.33333333334303,
      "v": 74
    },
    {
      "midi": 65,
      "hit": false,
      "t": 73983.33333333337,
      "d": 666.6666666666715,
      "v": 70
    },
    {
      "midi": 77,
      "hit": false,
      "t": 73991.66666666669,
      "d": 750,
      "v": 63
    },
    {
      "midi": 80,
      "hit": false,
      "t": 73991.66666666669,
      "d": 783.3333333333285,
      "v": 56
    },
    {
      "midi": 73,
      "hit": false,
      "t": 74650.00000000001,
      "d": 483.3333333333285,
      "v": 52
    },
    {
      "midi": 56,
      "hit": false,
      "t": 74650.00000000004,
      "d": 341.6666666666715,
      "v": 67
    },
    {
      "midi": 49,
      "hit": false,
      "t": 75000.00000000001,
      "d": 2708.333333333314,
      "v": 66
    },
    {
      "midi": 53,
      "hit": false,
      "t": 75000.00000000001,
      "d": 2741.6666666666424,
      "v": 72
    },
    {
      "midi": 56,
      "hit": false,
      "t": 75000.00000000001,
      "d": 2741.6666666666424,
      "v": 67
    },
    {
      "midi": 68,
      "hit": false,
      "t": 75000.00000000004,
      "d": 1375,
      "v": 70
    },
    {
      "midi": 73,
      "hit": false,
      "t": 75658.33333333334,
      "d": 441.66666666665697,
      "v": 45
    },
    {
      "midi": 80,
      "hit": false,
      "t": 75991.66666666667,
      "d": 591.666666666657,
      "v": 59
    },
    {
      "midi": 77,
      "hit": false,
      "t": 75991.66666666667,
      "d": 633.3333333333285,
      "v": 65
    },
    {
      "midi": 73,
      "hit": false,
      "t": 76650,
      "d": 533.3333333333285,
      "v": 45
    },
    {
      "midi": 68,
      "hit": false,
      "t": 76650.00000000004,
      "d": 341.6666666666715,
      "v": 65
    },
    {
      "midi": 80,
      "hit": false,
      "t": 77000,
      "d": 583.3333333333285,
      "v": 56
    },
    {
      "midi": 77,
      "hit": false,
      "t": 77000,
      "d": 633.3333333333285,
      "v": 64
    },
    {
      "midi": 73,
      "hit": false,
      "t": 77000.00000000004,
      "d": 658.3333333333285,
      "v": 71
    },
    {
      "midi": 73,
      "hit": false,
      "t": 77650,
      "d": 458.33333333331393,
      "v": 54
    },
    {
      "midi": 68,
      "hit": false,
      "t": 77658.33333333337,
      "d": 358.33333333334303,
      "v": 65
    },
    {
      "midi": 49,
      "hit": false,
      "t": 77999.99999999999,
      "d": 2366.666666666657,
      "v": 68
    },
    {
      "midi": 53,
      "hit": false,
      "t": 77999.99999999999,
      "d": 2374.9999999999854,
      "v": 73
    },
    {
      "midi": 56,
      "hit": false,
      "t": 77999.99999999999,
      "d": 2408.333333333314,
      "v": 70
    },
    {
      "midi": 65,
      "hit": false,
      "t": 78000.00000000004,
      "d": 1258.333333333343,
      "v": 71
    },
    {
      "midi": 73,
      "hit": false,
      "t": 78658.33333333331,
      "d": 458.33333333334303,
      "v": 44
    },
    {
      "midi": 80,
      "hit": false,
      "t": 78999.99999999999,
      "d": 583.333333333343,
      "v": 57
    },
    {
      "midi": 77,
      "hit": false,
      "t": 78999.99999999999,
      "d": 725,
      "v": 59
    },
    {
      "midi": 65,
      "hit": false,
      "t": 79650.00000000006,
      "d": 333.3333333333285,
      "v": 71
    },
    {
      "midi": 73,
      "hit": false,
      "t": 79666.66666666666,
      "d": 408.33333333331393,
      "v": 45
    },
    {
      "midi": 77,
      "hit": false,
      "t": 79983.33333333331,
      "d": 691.6666666666424,
      "v": 64
    },
    {
      "midi": 80,
      "hit": false,
      "t": 79991.66666666664,
      "d": 674.9999999999854,
      "v": 56
    },
    {
      "midi": 66,
      "hit": false,
      "t": 79991.66666666672,
      "d": 658.3333333333285,
      "v": 66
    },
    {
      "midi": 73,
      "hit": false,
      "t": 80641.66666666663,
      "d": 308.3333333333285,
      "v": 53
    },
    {
      "midi": 65,
      "hit": false,
      "t": 80650.00000000004,
      "d": 333.3333333333285,
      "v": 67
    },
    {
      "midi": 56,
      "hit": false,
      "t": 80991.66666666663,
      "d": 2691.666666666657,
      "v": 67
    },
    {
      "midi": 51,
      "hit": false,
      "t": 80991.66666666663,
      "d": 2733.333333333314,
      "v": 70
    },
    {
      "midi": 48,
      "hit": false,
      "t": 80991.66666666663,
      "d": 2783.333333333314,
      "v": 64
    },
    {
      "midi": 63,
      "hit": false,
      "t": 80991.6666666667,
      "d": 2658.3333333333285,
      "v": 72
    },
    {
      "midi": 72,
      "hit": false,
      "t": 81649.99999999996,
      "d": 433.3333333333285,
      "v": 47
    },
    {
      "midi": 75,
      "hit": false,
      "t": 81983.33333333328,
      "d": 716.666666666657,
      "v": 61
    },
    {
      "midi": 80,
      "hit": false,
      "t": 81983.33333333328,
      "d": 733.3333333333285,
      "v": 57
    },
    {
      "midi": 72,
      "hit": false,
      "t": 82641.66666666661,
      "d": 541.666666666657,
      "v": 54
    },
    {
      "midi": 80,
      "hit": false,
      "t": 82991.66666666661,
      "d": 675,
      "v": 56
    },
    {
      "midi": 75,
      "hit": false,
      "t": 82999.99999999994,
      "d": 691.6666666666715,
      "v": 58
    },
    {
      "midi": 72,
      "hit": false,
      "t": 83649.99999999994,
      "d": 183.33333333332848,
      "v": 54
    },
    {
      "midi": 68,
      "hit": false,
      "t": 83650.00000000003,
      "d": 333.3333333333285,
      "v": 73
    },
    {
      "midi": 72,
      "hit": false,
      "t": 83983.33333333327,
      "d": 1908.3333333333285,
      "v": 55
    },
    {
      "midi": 48,
      "hit": false,
      "t": 83983.33333333327,
      "d": 2483.3333333333285,
      "v": 66
    },
    {
      "midi": 51,
      "hit": false,
      "t": 83983.33333333327,
      "d": 2508.3333333333285,
      "v": 68
    },
    {
      "midi": 75,
      "hit": false,
      "t": 83991.6666666666,
      "d": 1883.3333333333285,
      "v": 57
    },
    {
      "midi": 56,
      "hit": false,
      "t": 83991.6666666666,
      "d": 2550,
      "v": 61
    },
    {
      "midi": 56,
      "hit": false,
      "t": 83991.66666666669,
      "d": 3000,
      "v": 64
    },
    {
      "midi": 80,
      "hit": false,
      "t": 83999.99999999993,
      "d": 866.6666666666715,
      "v": 55
    },
    {
      "midi": 78,
      "hit": false,
      "t": 84983.33333333327,
      "d": 858.3333333333285,
      "v": 45
    },
    {
      "midi": 72,
      "hit": false,
      "t": 85991.6666666666,
      "d": 800,
      "v": 50
    },
    {
      "midi": 78,
      "hit": false,
      "t": 85999.99999999993,
      "d": 841.6666666666715,
      "v": 54
    },
    {
      "midi": 75,
      "hit": false,
      "t": 85999.99999999993,
      "d": 1050,
      "v": 42
    },
    {
      "midi": 56,
      "hit": false,
      "t": 86991.6666666666,
      "d": 2216.666666666657,
      "v": 68
    },
    {
      "midi": 49,
      "hit": false,
      "t": 86991.6666666666,
      "d": 2483.3333333333285,
      "v": 67
    },
    {
      "midi": 53,
      "hit": false,
      "t": 86991.6666666666,
      "d": 2508.3333333333285,
      "v": 71
    },
    {
      "midi": 73,
      "hit": false,
      "t": 87649.99999999993,
      "d": 691.6666666666715,
      "v": 45
    },
    {
      "midi": 77,
      "hit": false,
      "t": 87999.99999999993,
      "d": 591.6666666666715,
      "v": 58
    },
    {
      "midi": 80,
      "hit": false,
      "t": 87999.99999999993,
      "d": 650,
      "v": 56
    },
    {
      "midi": 73,
      "hit": false,
      "t": 88649.99999999993,
      "d": 525,
      "v": 48
    },
    {
      "midi": 65,
      "hit": false,
      "t": 88650.00000000001,
      "d": 341.6666666666715,
      "v": 69
    },
    {
      "midi": 77,
      "hit": false,
      "t": 88991.6666666666,
      "d": 591.666666666657,
      "v": 61
    },
    {
      "midi": 80,
      "hit": false,
      "t": 88991.6666666666,
      "d": 683.3333333333139,
      "v": 57
    },
    {
      "midi": 73,
      "hit": false,
      "t": 89000.00000000001,
      "d": 650,
      "v": 72
    },
    {
      "midi": 73,
      "hit": false,
      "t": 89641.66666666658,
      "d": 508.3333333333285,
      "v": 50
    },
    {
      "midi": 71,
      "hit": false,
      "t": 89650.00000000001,
      "d": 341.6666666666715,
      "v": 67
    },
    {
      "midi": 59,
      "hit": false,
      "t": 89983.33333333324,
      "d": 2483.3333333333285,
      "v": 66
    },
    {
      "midi": 53,
      "hit": false,
      "t": 89983.33333333324,
      "d": 2616.666666666657,
      "v": 76
    },
    {
      "midi": 49,
      "hit": false,
      "t": 89983.33333333324,
      "d": 2649.9999999999854,
      "v": 66
    },
    {
      "midi": 65,
      "hit": false,
      "t": 89991.66666666669,
      "d": 758.3333333333285,
      "v": 67
    },
    {
      "midi": 73,
      "hit": false,
      "t": 90649.99999999991,
      "d": 475,
      "v": 50
    },
    {
      "midi": 65,
      "hit": false,
      "t": 90991.66666666669,
      "d": 991.6666666666715,
      "v": 74
    },
    {
      "midi": 80,
      "hit": false,
      "t": 90999.99999999991,
      "d": 533.3333333333285,
      "v": 56
    },
    {
      "midi": 77,
      "hit": false,
      "t": 90999.99999999991,
      "d": 566.666666666657,
      "v": 66
    },
    {
      "midi": 71,
      "hit": false,
      "t": 91658.33333333324,
      "d": 708.3333333333285,
      "v": 53
    },
    {
      "midi": 77,
      "hit": false,
      "t": 91983.33333333324,
      "d": 758.3333333333139,
      "v": 56
    },
    {
      "midi": 80,
      "hit": false,
      "t": 91983.33333333324,
      "d": 858.3333333333139,
      "v": 53
    },
    {
      "midi": 71,
      "hit": false,
      "t": 91983.33333333336,
      "d": 983.3333333333285,
      "v": 73
    },
    {
      "midi": 71,
      "hit": false,
      "t": 92641.66666666656,
      "d": 291.6666666666715,
      "v": 50
    },
    {
      "midi": 58,
      "hit": false,
      "t": 92999.9999999999,
      "d": 2683.333333333343,
      "v": 64
    },
    {
      "midi": 54,
      "hit": false,
      "t": 92999.9999999999,
      "d": 2708.333333333343,
      "v": 67
    },
    {
      "midi": 49,
      "hit": false,
      "t": 92999.9999999999,
      "d": 2750,
      "v": 61
    },
    {
      "midi": 73,
      "hit": false,
      "t": 93649.9999999999,
      "d": 708.333333333343,
      "v": 49
    },
    {
      "midi": 78,
      "hit": false,
      "t": 93991.66666666657,
      "d": 650,
      "v": 58
    },
    {
      "midi": 82,
      "hit": false,
      "t": 93991.66666666657,
      "d": 708.3333333333285,
      "v": 61
    },
    {
      "midi": 66,
      "hit": false,
      "t": 94000.00000000001,
      "d": 650,
      "v": 70
    },
    {
      "midi": 73,
      "hit": false,
      "t": 94649.9999999999,
      "d": 583.333333333343,
      "v": 53
    },
    {
      "midi": 70,
      "hit": false,
      "t": 94650.00000000001,
      "d": 341.6666666666715,
      "v": 75
    },
    {
      "midi": 78,
      "hit": false,
      "t": 94991.66666666657,
      "d": 725,
      "v": 59
    },
    {
      "midi": 82,
      "hit": false,
      "t": 94991.66666666657,
      "d": 758.3333333333285,
      "v": 55
    },
    {
      "midi": 75,
      "hit": false,
      "t": 95000.00000000001,
      "d": 650,
      "v": 60
    },
    {
      "midi": 70,
      "hit": false,
      "t": 95650.00000000001,
      "d": 341.6666666666715,
      "v": 70
    },
    {
      "midi": 73,
      "hit": false,
      "t": 95666.66666666657,
      "d": 400,
      "v": 40
    },
    {
      "midi": 58,
      "hit": false,
      "t": 95991.66666666657,
      "d": 2533.3333333333285,
      "v": 67
    },
    {
      "midi": 54,
      "hit": false,
      "t": 95991.66666666657,
      "d": 2625,
      "v": 69
    },
    {
      "midi": 49,
      "hit": false,
      "t": 95991.66666666657,
      "d": 2650,
      "v": 67
    },
    {
      "midi": 75,
      "hit": false,
      "t": 95991.66666666669,
      "d": 1000,
      "v": 70
    },
    {
      "midi": 73,
      "hit": false,
      "t": 96658.33333333324,
      "d": 483.3333333333285,
      "v": 56
    },
    {
      "midi": 78,
      "hit": false,
      "t": 96991.66666666657,
      "d": 625,
      "v": 60
    },
    {
      "midi": 82,
      "hit": false,
      "t": 96991.66666666657,
      "d": 716.666666666657,
      "v": 57
    },
    {
      "midi": 66,
      "hit": false,
      "t": 96991.66666666669,
      "d": 1000,
      "v": 61
    },
    {
      "midi": 73,
      "hit": false,
      "t": 97649.9999999999,
      "d": 533.3333333333285,
      "v": 52
    },
    {
      "midi": 78,
      "hit": false,
      "t": 97991.66666666656,
      "d": 716.6666666666715,
      "v": 55
    },
    {
      "midi": 82,
      "hit": false,
      "t": 97991.66666666656,
      "d": 783.333333333343,
      "v": 56
    },
    {
      "midi": 73,
      "hit": false,
      "t": 97991.66666666669,
      "d": 683.3333333333285,
      "v": 72
    },
    {
      "midi": 73,
      "hit": false,
      "t": 98649.9999999999,
      "d": 583.333333333343,
      "v": 56
    },
    {
      "midi": 53,
      "hit": false,
      "t": 98991.66666666657,
      "d": 2675.0000000000146,
      "v": 72
    },
    {
      "midi": 56,
      "hit": false,
      "t": 98991.66666666657,
      "d": 2675.0000000000146,
      "v": 64
    },
    {
      "midi": 49,
      "hit": false,
      "t": 98991.66666666657,
      "d": 2683.333333333343,
      "v": 64
    },
    {
      "midi": 65,
      "hit": false,
      "t": 98991.66666666669,
      "d": 650,
      "v": 66
    },
    {
      "midi": 73,
      "hit": false,
      "t": 99649.99999999991,
      "d": 500,
      "v": 52
    },
    {
      "midi": 68,
      "hit": false,
      "t": 99650.00000000001,
      "d": 1000,
      "v": 72
    },
    {
      "midi": 77,
      "hit": false,
      "t": 99991.66666666658,
      "d": 624.9999999999854,
      "v": 61
    },
    {
      "midi": 80,
      "hit": false,
      "t": 99999.99999999991,
      "d": 608.3333333333285,
      "v": 55
    },
    {
      "midi": 73,
      "hit": false,
      "t": 100649.9999999999,
      "d": 508.33333333334303,
      "v": 48
    },
    {
      "midi": 65,
      "hit": false,
      "t": 100650.00000000001,
      "d": 341.6666666666715,
      "v": 64
    },
    {
      "midi": 80,
      "hit": false,
      "t": 100991.66666666657,
      "d": 633.333333333343,
      "v": 56
    },
    {
      "midi": 77,
      "hit": false,
      "t": 100991.66666666657,
      "d": 650.0000000000146,
      "v": 60
    },
    {
      "midi": 68,
      "hit": false,
      "t": 101000.00000000001,
      "d": 633.3333333333285,
      "v": 72
    },
    {
      "midi": 73,
      "hit": false,
      "t": 101649.99999999991,
      "d": 316.6666666666715,
      "v": 55
    },
    {
      "midi": 65,
      "hit": false,
      "t": 101650.00000000001,
      "d": 341.6666666666715,
      "v": 71
    },
    {
      "midi": 48,
      "hit": false,
      "t": 101999.99999999991,
      "d": 2600,
      "v": 67
    },
    {
      "midi": 51,
      "hit": false,
      "t": 101999.99999999991,
      "d": 2633.3333333333285,
      "v": 61
    },
    {
      "midi": 56,
      "hit": false,
      "t": 101999.99999999991,
      "d": 2633.3333333333285,
      "v": 63
    },
    {
      "midi": 63,
      "hit": false,
      "t": 102000.00000000001,
      "d": 650,
      "v": 71
    },
    {
      "midi": 72,
      "hit": false,
      "t": 102649.99999999991,
      "d": 425,
      "v": 54
    },
    {
      "midi": 66,
      "hit": false,
      "t": 102650.00000000001,
      "d": 333.3333333333285,
      "v": 70
    },
    {
      "midi": 78,
      "hit": false,
      "t": 102991.66666666658,
      "d": 591.666666666657,
      "v": 53
    },
    {
      "midi": 75,
      "hit": false,
      "t": 102991.66666666658,
      "d": 633.3333333333285,
      "v": 56
    },
    {
      "midi": 60,
      "hit": false,
      "t": 102991.66666666667,
      "d": 650,
      "v": 72
    },
    {
      "midi": 63,
      "hit": false,
      "t": 103641.66666666667,
      "d": 341.6666666666715,
      "v": 71
    },
    {
      "midi": 72,
      "hit": false,
      "t": 103649.99999999991,
      "d": 450,
      "v": 45
    },
    {
      "midi": 75,
      "hit": false,
      "t": 103983.33333333324,
      "d": 650,
      "v": 60
    },
    {
      "midi": 78,
      "hit": false,
      "t": 103983.33333333324,
      "d": 700,
      "v": 56
    },
    {
      "midi": 56,
      "hit": false,
      "t": 103983.33333333334,
      "d": 641.6666666666715,
      "v": 69
    },
    {
      "midi": 72,
      "hit": false,
      "t": 104633.33333333324,
      "d": 375,
      "v": 48
    },
    {
      "midi": 60,
      "hit": false,
      "t": 104633.33333333334,
      "d": 358.3333333333285,
      "v": 68
    },
    {
      "midi": 56,
      "hit": false,
      "t": 104999.99999999991,
      "d": 2041.6666666666715,
      "v": 59
    },
    {
      "midi": 53,
      "hit": false,
      "t": 104999.99999999991,
      "d": 2283.333333333343,
      "v": 73
    },
    {
      "midi": 49,
      "hit": false,
      "t": 104999.99999999991,
      "d": 2300.0000000000146,
      "v": 63
    },
    {
      "midi": 65,
      "hit": false,
      "t": 105000,
      "d": 2666.6666666666715,
      "v": 71
    },
    {
      "midi": 73,
      "hit": false,
      "t": 105649.99999999991,
      "d": 466.6666666666715,
      "v": 50
    },
    {
      "midi": 77,
      "hit": false,
      "t": 105991.66666666658,
      "d": 625,
      "v": 57
    },
    {
      "midi": 80,
      "hit": false,
      "t": 105991.66666666658,
      "d": 708.3333333333285,
      "v": 58
    },
    {
      "midi": 73,
      "hit": false,
      "t": 106649.99999999991,
      "d": 458.33333333334303,
      "v": 50
    },
    {
      "midi": 77,
      "hit": false,
      "t": 106991.66666666658,
      "d": 691.6666666666715,
      "v": 60
    },
    {
      "midi": 80,
      "hit": false,
      "t": 106991.66666666658,
      "d": 775,
      "v": 56
    },
    {
      "midi": 73,
      "hit": false,
      "t": 107649.99999999993,
      "d": 249.99999999998545,
      "v": 52
    },
    {
      "midi": 63,
      "hit": false,
      "t": 107666.66666666667,
      "d": 316.6666666666715,
      "v": 69
    },
    {
      "midi": 53,
      "hit": false,
      "t": 107983.33333333324,
      "d": 2325.0000000000146,
      "v": 75
    },
    {
      "midi": 59,
      "hit": false,
      "t": 107983.33333333324,
      "d": 2333.333333333343,
      "v": 67
    },
    {
      "midi": 49,
      "hit": false,
      "t": 107983.33333333324,
      "d": 2466.6666666666715,
      "v": 70
    },
    {
      "midi": 73,
      "hit": false,
      "t": 107999.99999999991,
      "d": 291.6666666666715,
      "v": 51
    },
    {
      "midi": 56,
      "hit": false,
      "t": 108000.00000000001,
      "d": 991.6666666666715,
      "v": 71
    },
    {
      "midi": 71,
      "hit": false,
      "t": 108658.33333333326,
      "d": 466.6666666666715,
      "v": 55
    },
    {
      "midi": 85,
      "hit": false,
      "t": 108991.66666666669,
      "d": 1000,
      "v": 77
    },
    {
      "midi": 80,
      "hit": false,
      "t": 108999.99999999993,
      "d": 658.3333333333285,
      "v": 62
    },
    {
      "midi": 77,
      "hit": false,
      "t": 108999.99999999993,
      "d": 666.666666666657,
      "v": 64
    },
    {
      "midi": 71,
      "hit": false,
      "t": 109649.99999999993,
      "d": 466.66666666665697,
      "v": 52
    },
    {
      "midi": 77,
      "hit": false,
      "t": 109991.66666666658,
      "d": 191.66666666667152,
      "v": 66
    },
    {
      "midi": 68,
      "hit": false,
      "t": 109991.66666666669,
      "d": 1000,
      "v": 68
    },
    {
      "midi": 80,
      "hit": false,
      "t": 109999.99999999991,
      "d": 275.00000000001455,
      "v": 60
    },
    {
      "midi": 58,
      "hit": false,
      "t": 110991.66666666658,
      "d": 2558.333333333314,
      "v": 66
    },
    {
      "midi": 54,
      "hit": false,
      "t": 110991.66666666658,
      "d": 2599.9999999999854,
      "v": 52
    },
    {
      "midi": 70,
      "hit": false,
      "t": 110991.66666666669,
      "d": 1091.6666666666715,
      "v": 75
    },
    {
      "midi": 49,
      "hit": false,
      "t": 110999.99999999991,
      "d": 2541.666666666657,
      "v": 53
    },
    {
      "midi": 82,
      "hit": false,
      "t": 111983.33333333336,
      "d": 2000,
      "v": 73
    },
    {
      "midi": 85,
      "hit": false,
      "t": 111991.66666666669,
      "d": 1966.6666666666715,
      "v": 66
    },
    {
      "midi": 85,
      "hit": false,
      "t": 111999.99999999991,
      "d": 116.66666666667152,
      "v": 45
    },
    {
      "midi": 78,
      "hit": false,
      "t": 111999.99999999991,
      "d": 158.33333333334303,
      "v": 48
    },
    {
      "midi": 82,
      "hit": false,
      "t": 111999.99999999991,
      "d": 166.66666666667152,
      "v": 53
    },
    {
      "midi": 82,
      "hit": false,
      "t": 112324.99999999991,
      "d": 166.66666666665697,
      "v": 58
    },
    {
      "midi": 78,
      "hit": false,
      "t": 112324.99999999991,
      "d": 174.99999999998545,
      "v": 53
    },
    {
      "midi": 85,
      "hit": false,
      "t": 112333.33333333324,
      "d": 158.33333333332848,
      "v": 53
    },
    {
      "midi": 82,
      "hit": false,
      "t": 112649.9999999999,
      "d": 183.33333333332848,
      "v": 64
    },
    {
      "midi": 85,
      "hit": false,
      "t": 112649.9999999999,
      "d": 208.33333333332848,
      "v": 56
    },
    {
      "midi": 78,
      "hit": false,
      "t": 112649.9999999999,
      "d": 216.66666666665697,
      "v": 58
    },
    {
      "midi": 85,
      "hit": false,
      "t": 112983.33333333323,
      "d": 275,
      "v": 55
    },
    {
      "midi": 82,
      "hit": false,
      "t": 112983.33333333323,
      "d": 291.6666666666715,
      "v": 64
    },
    {
      "midi": 78,
      "hit": false,
      "t": 112983.33333333323,
      "d": 316.6666666666715,
      "v": 61
    },
    {
      "midi": 58,
      "hit": false,
      "t": 113983.33333333324,
      "d": 2558.333333333314,
      "v": 64
    },
    {
      "midi": 54,
      "hit": false,
      "t": 113983.33333333324,
      "d": 2708.333333333314,
      "v": 71
    },
    {
      "midi": 49,
      "hit": false,
      "t": 113983.33333333324,
      "d": 2733.333333333314,
      "v": 65
    },
    {
      "midi": 73,
      "hit": false,
      "t": 113983.33333333336,
      "d": 991.6666666666715,
      "v": 70
    },
    {
      "midi": 70,
      "hit": false,
      "t": 114983.33333333336,
      "d": 1000,
      "v": 71
    },
    {
      "midi": 85,
      "hit": false,
      "t": 114999.99999999991,
      "d": 141.66666666667152,
      "v": 52
    },
    {
      "midi": 82,
      "hit": false,
      "t": 114999.99999999991,
      "d": 150,
      "v": 55
    },
    {
      "midi": 78,
      "hit": false,
      "t": 114999.99999999991,
      "d": 166.66666666667152,
      "v": 50
    },
    {
      "midi": 85,
      "hit": false,
      "t": 115333.33333333326,
      "d": 158.33333333332848,
      "v": 54
    },
    {
      "midi": 82,
      "hit": false,
      "t": 115333.33333333326,
      "d": 166.66666666665697,
      "v": 59
    },
    {
      "midi": 78,
      "hit": false,
      "t": 115333.33333333326,
      "d": 174.99999999998545,
      "v": 55
    },
    {
      "midi": 78,
      "hit": false,
      "t": 115658.33333333324,
      "d": 174.99999999998545,
      "v": 57
    },
    {
      "midi": 82,
      "hit": false,
      "t": 115666.66666666657,
      "d": 158.33333333332848,
      "v": 61
    },
    {
      "midi": 85,
      "hit": false,
      "t": 115666.66666666657,
      "d": 158.33333333332848,
      "v": 55
    },
    {
      "midi": 66,
      "hit": false,
      "t": 115983.33333333336,
      "d": 808.3333333333285,
      "v": 70
    },
    {
      "midi": 82,
      "hit": false,
      "t": 115991.66666666656,
      "d": 258.3333333333285,
      "v": 66
    },
    {
      "midi": 78,
      "hit": false,
      "t": 115991.66666666656,
      "d": 275,
      "v": 62
    },
    {
      "midi": 85,
      "hit": false,
      "t": 115999.99999999988,
      "d": 275,
      "v": 59
    },
    {
      "midi": 53,
      "hit": false,
      "t": 116991.66666666656,
      "d": 2708.3333333333285,
      "v": 61
    },
    {
      "midi": 56,
      "hit": false,
      "t": 116991.66666666656,
      "d": 2741.666666666657,
      "v": 64
    },
    {
      "midi": 49,
      "hit": false,
      "t": 116991.66666666656,
      "d": 2758.3333333333285,
      "v": 63
    },
    {
      "midi": 65,
      "hit": false,
      "t": 117000.00000000001,
      "d": 1800,
      "v": 71
    },
    {
      "midi": 80,
      "hit": false,
      "t": 117983.33333333323,
      "d": 141.66666666667152,
      "v": 55
    },
    {
      "midi": 85,
      "hit": false,
      "t": 117983.33333333323,
      "d": 183.33333333334303,
      "v": 49
    },
    {
      "midi": 77,
      "hit": false,
      "t": 117983.33333333323,
      "d": 208.33333333334303,
      "v": 55
    },
    {
      "midi": 77,
      "hit": false,
      "t": 118316.66666666657,
      "d": 208.33333333331393,
      "v": 53
    },
    {
      "midi": 80,
      "hit": false,
      "t": 118324.9999999999,
      "d": 133.33333333332848,
      "v": 55
    },
    {
      "midi": 85,
      "hit": false,
      "t": 118324.9999999999,
      "d": 191.66666666665697,
      "v": 45
    },
    {
      "midi": 80,
      "hit": false,
      "t": 118649.99999999988,
      "d": 166.66666666667152,
      "v": 60
    },
    {
      "midi": 77,
      "hit": false,
      "t": 118649.99999999988,
      "d": 208.33333333334303,
      "v": 57
    },
    {
      "midi": 85,
      "hit": false,
      "t": 118649.99999999988,
      "d": 216.66666666667152,
      "v": 53
    },
    {
      "midi": 80,
      "hit": false,
      "t": 118991.66666666656,
      "d": 291.6666666666715,
      "v": 63
    },
    {
      "midi": 77,
      "hit": false,
      "t": 118991.66666666656,
      "d": 300,
      "v": 61
    },
    {
      "midi": 85,
      "hit": false,
      "t": 118991.66666666656,
      "d": 300,
      "v": 52
    },
    {
      "midi": 65,
      "hit": false,
      "t": 118991.66666666669,
      "d": 658.3333333333285,
      "v": 77
    },
    {
      "midi": 68,
      "hit": false,
      "t": 119650.00000000001,
      "d": 333.3333333333285,
      "v": 70
    },
    {
      "midi": 56,
      "hit": false,
      "t": 119991.66666666656,
      "d": 2158.333333333343,
      "v": 64
    },
    {
      "midi": 49,
      "hit": false,
      "t": 119991.66666666656,
      "d": 2291.6666666666715,
      "v": 65
    },
    {
      "midi": 53,
      "hit": false,
      "t": 119991.66666666656,
      "d": 2316.6666666666715,
      "v": 71
    },
    {
      "midi": 68,
      "hit": false,
      "t": 119991.66666666667,
      "d": 975,
      "v": 73
    },
    {
      "midi": 65,
      "hit": false,
      "t": 120991.66666666667,
      "d": 991.6666666666715,
      "v": 70
    },
    {
      "midi": 80,
      "hit": false,
      "t": 120999.99999999988,
      "d": 133.33333333332848,
      "v": 53
    },
    {
      "midi": 77,
      "hit": false,
      "t": 120999.99999999988,
      "d": 150,
      "v": 52
    },
    {
      "midi": 85,
      "hit": false,
      "t": 120999.99999999988,
      "d": 166.66666666667152,
      "v": 48
    },
    {
      "midi": 80,
      "hit": false,
      "t": 121333.33333333323,
      "d": 150,
      "v": 58
    },
    {
      "midi": 77,
      "hit": false,
      "t": 121333.33333333323,
      "d": 166.66666666667152,
      "v": 56
    },
    {
      "midi": 85,
      "hit": false,
      "t": 121333.33333333323,
      "d": 191.66666666667152,
      "v": 52
    },
    {
      "midi": 80,
      "hit": false,
      "t": 121658.33333333323,
      "d": 166.66666666667152,
      "v": 64
    },
    {
      "midi": 77,
      "hit": false,
      "t": 121658.33333333323,
      "d": 175,
      "v": 61
    },
    {
      "midi": 85,
      "hit": false,
      "t": 121658.33333333323,
      "d": 191.66666666667152,
      "v": 56
    },
    {
      "midi": 71,
      "hit": false,
      "t": 121983.33333333334,
      "d": 1000,
      "v": 74
    },
    {
      "midi": 77,
      "hit": false,
      "t": 121991.66666666657,
      "d": 266.66666666665697,
      "v": 66
    },
    {
      "midi": 80,
      "hit": false,
      "t": 121991.66666666657,
      "d": 266.66666666665697,
      "v": 66
    },
    {
      "midi": 85,
      "hit": false,
      "t": 121991.66666666657,
      "d": 324.99999999998545,
      "v": 59
    },
    {
      "midi": 70,
      "hit": false,
      "t": 122983.33333333334,
      "d": 2008.3333333333285,
      "v": 67
    },
    {
      "midi": 58,
      "hit": false,
      "t": 122991.66666666656,
      "d": 2791.6666666666715,
      "v": 67
    },
    {
      "midi": 54,
      "hit": false,
      "t": 122991.66666666656,
      "d": 2825,
      "v": 72
    },
    {
      "midi": 49,
      "hit": false,
      "t": 122991.66666666656,
      "d": 2833.3333333333285,
      "v": 64
    },
    {
      "midi": 82,
      "hit": false,
      "t": 123999.99999999988,
      "d": 150,
      "v": 54
    },
    {
      "midi": 78,
      "hit": false,
      "t": 123999.99999999988,
      "d": 191.66666666667152,
      "v": 48
    },
    {
      "midi": 85,
      "hit": false,
      "t": 123999.99999999988,
      "d": 191.66666666667152,
      "v": 45
    },
    {
      "midi": 78,
      "hit": false,
      "t": 124333.33333333323,
      "d": 158.33333333332848,
      "v": 45
    },
    {
      "midi": 82,
      "hit": false,
      "t": 124333.33333333323,
      "d": 166.66666666665697,
      "v": 55
    },
    {
      "midi": 85,
      "hit": false,
      "t": 124333.33333333323,
      "d": 166.66666666665697,
      "v": 48
    },
    {
      "midi": 82,
      "hit": false,
      "t": 124658.33333333321,
      "d": 191.66666666667152,
      "v": 63
    },
    {
      "midi": 78,
      "hit": false,
      "t": 124658.33333333321,
      "d": 208.33333333334303,
      "v": 59
    },
    {
      "midi": 85,
      "hit": false,
      "t": 124658.33333333321,
      "d": 216.66666666667152,
      "v": 56
    },
    {
      "midi": 85,
      "hit": false,
      "t": 124991.66666666656,
      "d": 225,
      "v": 55
    },
    {
      "midi": 78,
      "hit": false,
      "t": 124991.66666666656,
      "d": 250,
      "v": 59
    },
    {
      "midi": 82,
      "hit": false,
      "t": 124999.99999999988,
      "d": 200,
      "v": 64
    },
    {
      "midi": 54,
      "hit": false,
      "t": 125000,
      "d": 658.3333333333285,
      "v": 68
    },
    {
      "midi": 58,
      "hit": false,
      "t": 125658.33333333333,
      "d": 333.3333333333285,
      "v": 67
    },
    {
      "midi": 61,
      "hit": false,
      "t": 125991.66666666666,
      "d": 1816.6666666666715,
      "v": 75
    },
    {
      "midi": 58,
      "hit": false,
      "t": 125999.99999999988,
      "d": 2458.3333333333285,
      "v": 64
    },
    {
      "midi": 54,
      "hit": false,
      "t": 125999.99999999988,
      "d": 2591.666666666657,
      "v": 67
    },
    {
      "midi": 49,
      "hit": false,
      "t": 125999.99999999988,
      "d": 2599.9999999999854,
      "v": 66
    },
    {
      "midi": 85,
      "hit": false,
      "t": 126991.66666666656,
      "d": 158.33333333331393,
      "v": 50
    },
    {
      "midi": 82,
      "hit": false,
      "t": 126999.99999999988,
      "d": 108.33333333332848,
      "v": 56
    },
    {
      "midi": 78,
      "hit": false,
      "t": 126999.99999999988,
      "d": 141.66666666665697,
      "v": 52
    },
    {
      "midi": 78,
      "hit": false,
      "t": 127324.99999999987,
      "d": 183.33333333332848,
      "v": 53
    },
    {
      "midi": 82,
      "hit": false,
      "t": 127333.3333333332,
      "d": 166.66666666667152,
      "v": 58
    },
    {
      "midi": 85,
      "hit": false,
      "t": 127333.3333333332,
      "d": 183.33333333332848,
      "v": 52
    },
    {
      "midi": 82,
      "hit": false,
      "t": 127658.3333333332,
      "d": 133.33333333332848,
      "v": 63
    },
    {
      "midi": 78,
      "hit": false,
      "t": 127658.3333333332,
      "d": 150,
      "v": 56
    },
    {
      "midi": 85,
      "hit": false,
      "t": 127658.3333333332,
      "d": 166.66666666667152,
      "v": 55
    },
    {
      "midi": 85,
      "hit": false,
      "t": 127999.99999999987,
      "d": 141.66666666667152,
      "v": 54
    },
    {
      "midi": 82,
      "hit": false,
      "t": 127999.99999999987,
      "d": 150,
      "v": 63
    },
    {
      "midi": 78,
      "hit": false,
      "t": 127999.99999999987,
      "d": 191.66666666667152,
      "v": 61
    },
    {
      "midi": 61,
      "hit": false,
      "t": 128000,
      "d": 925,
      "v": 77
    },
    {
      "midi": 73,
      "hit": false,
      "t": 128966.66666666654,
      "d": 2291.666666666657,
      "v": 48
    },
    {
      "midi": 77,
      "hit": false,
      "t": 128983.33333333321,
      "d": 1708.3333333333285,
      "v": 63
    },
    {
      "midi": 80,
      "hit": false,
      "t": 128983.33333333321,
      "d": 1758.3333333333285,
      "v": 63
    },
    {
      "midi": 53,
      "hit": false,
      "t": 128983.33333333321,
      "d": 2374.9999999999854,
      "v": 67
    },
    {
      "midi": 56,
      "hit": false,
      "t": 128983.33333333321,
      "d": 2383.3333333333285,
      "v": 63
    },
    {
      "midi": 49,
      "hit": false,
      "t": 128983.33333333321,
      "d": 2441.6666666666715,
      "v": 64
    },
    {
      "midi": 80,
      "hit": false,
      "t": 128991.66666666667,
      "d": 2991.6666666666715,
      "v": 44
    },
    {
      "midi": 73,
      "hit": false,
      "t": 128991.66666666667,
      "d": 3000.0000000000146,
      "v": 45
    },
    {
      "midi": 77,
      "hit": false,
      "t": 129000,
      "d": 3000.000000000029,
      "v": 57
    },
    {
      "midi": 77,
      "hit": false,
      "t": 130991.66666666654,
      "d": 666.6666666666861,
      "v": 66
    },
    {
      "midi": 80,
      "hit": false,
      "t": 130991.66666666654,
      "d": 758.333333333343,
      "v": 61
    },
    {
      "midi": 73,
      "hit": false,
      "t": 131649.99999999988,
      "d": 333.33333333334303,
      "v": 53
    },
    {
      "midi": 44,
      "hit": false,
      "t": 131983.33333333323,
      "d": 1108.333333333343,
      "v": 68
    },
    {
      "midi": 48,
      "hit": false,
      "t": 131991.66666666657,
      "d": 1016.666666666657,
      "v": 71
    },
    {
      "midi": 56,
      "hit": false,
      "t": 132000.00000000003,
      "d": 1116.666666666657,
      "v": 70
    },
    {
      "midi": 46,
      "hit": false,
      "t": 132983.33333333323,
      "d": 1066.6666666667152,
      "v": 71
    },
    {
      "midi": 49,
      "hit": false,
      "t": 132983.33333333323,
      "d": 1075.0000000000582,
      "v": 68
    },
    {
      "midi": 75,
      "hit": false,
      "t": 132991.66666666657,
      "d": 866.6666666666861,
      "v": 57
    },
    {
      "midi": 78,
      "hit": false,
      "t": 132991.66666666657,
      "d": 866.6666666666861,
      "v": 57
    },
    {
      "midi": 78,
      "hit": false,
      "t": 133000.00000000003,
      "d": 983.3333333333139,
      "v": 71
    },
    {
      "midi": 82,
      "hit": false,
      "t": 133000.00000000003,
      "d": 983.3333333333139,
      "v": 72
    },
    {
      "midi": 72,
      "hit": false,
      "t": 133674.9999999999,
      "d": 175,
      "v": 40
    },
    {
      "midi": 77,
      "hit": false,
      "t": 133983.33333333334,
      "d": 658.333333333343,
      "v": 78
    },
    {
      "midi": 80,
      "hit": false,
      "t": 133983.33333333334,
      "d": 658.333333333343,
      "v": 75
    },
    {
      "midi": 51,
      "hit": false,
      "t": 133991.6666666666,
      "d": 558.333333333343,
      "v": 63
    },
    {
      "midi": 48,
      "hit": false,
      "t": 133991.6666666666,
      "d": 566.6666666666861,
      "v": 71
    },
    {
      "midi": 75,
      "hit": false,
      "t": 133999.99999999994,
      "d": 675,
      "v": 58
    },
    {
      "midi": 78,
      "hit": false,
      "t": 133999.99999999994,
      "d": 775,
      "v": 59
    },
    {
      "midi": 75,
      "hit": false,
      "t": 134641.6666666667,
      "d": 350,
      "v": 61
    },
    {
      "midi": 78,
      "hit": false,
      "t": 134650.00000000003,
      "d": 341.66666666665697,
      "v": 70
    },
    {
      "midi": 56,
      "hit": false,
      "t": 134991.6666666666,
      "d": 2483.3333333334012,
      "v": 61
    },
    {
      "midi": 53,
      "hit": false,
      "t": 134991.6666666666,
      "d": 2591.6666666667443,
      "v": 68
    },
    {
      "midi": 49,
      "hit": false,
      "t": 134999.99999999994,
      "d": 2508.3333333334012,
      "v": 61
    },
    {
      "midi": 73,
      "hit": false,
      "t": 135025.00000000003,
      "d": 2875.000000000029,
      "v": 66
    },
    {
      "midi": 77,
      "hit": false,
      "t": 135033.33333333337,
      "d": 2608.333333333343,
      "v": 76
    },
    {
      "midi": 73,
      "hit": false,
      "t": 135658.33333333328,
      "d": 466.66666666668607,
      "v": 45
    },
    {
      "midi": 77,
      "hit": false,
      "t": 135991.66666666663,
      "d": 616.6666666666861,
      "v": 58
    },
    {
      "midi": 80,
      "hit": false,
      "t": 135991.66666666663,
      "d": 691.6666666666861,
      "v": 55
    },
    {
      "midi": 73,
      "hit": false,
      "t": 136649.99999999997,
      "d": 516.6666666666861,
      "v": 49
    },
    {
      "midi": 77,
      "hit": false,
      "t": 136983.3333333333,
      "d": 666.6666666667152,
      "v": 63
    },
    {
      "midi": 80,
      "hit": false,
      "t": 136991.66666666666,
      "d": 733.3333333333721,
      "v": 59
    },
    {
      "midi": 73,
      "hit": false,
      "t": 137641.6666666667,
      "d": 483.33333333334303,
      "v": 45
    },
    {
      "midi": 58,
      "hit": false,
      "t": 137991.6666666667,
      "d": 2616.666666666686,
      "v": 66
    },
    {
      "midi": 54,
      "hit": false,
      "t": 137991.6666666667,
      "d": 2716.666666666686,
      "v": 68
    },
    {
      "midi": 49,
      "hit": false,
      "t": 137991.6666666667,
      "d": 2733.333333333343,
      "v": 64
    },
    {
      "midi": 70,
      "hit": false,
      "t": 138000.00000000006,
      "d": 2958.333333333343,
      "v": 76
    },
    {
      "midi": 73,
      "hit": false,
      "t": 138650.00000000003,
      "d": 458.33333333334303,
      "v": 52
    },
    {
      "midi": 78,
      "hit": false,
      "t": 138983.33333333337,
      "d": 625,
      "v": 55
    },
    {
      "midi": 82,
      "hit": false,
      "t": 138983.33333333337,
      "d": 675,
      "v": 55
    },
    {
      "midi": 73,
      "hit": false,
      "t": 139641.66666666672,
      "d": 541.666666666657,
      "v": 55
    },
    {
      "midi": 78,
      "hit": false,
      "t": 139983.33333333337,
      "d": 650,
      "v": 59
    },
    {
      "midi": 82,
      "hit": false,
      "t": 139983.33333333337,
      "d": 750,
      "v": 60
    },
    {
      "midi": 73,
      "hit": false,
      "t": 140641.66666666672,
      "d": 541.666666666657,
      "v": 54
    },
    {
      "midi": 68,
      "hit": false,
      "t": 140983.3333333334,
      "d": 3000,
      "v": 72
    },
    {
      "midi": 53,
      "hit": false,
      "t": 141000.00000000003,
      "d": 2675,
      "v": 67
    },
    {
      "midi": 56,
      "hit": false,
      "t": 141000.00000000003,
      "d": 2691.666666666657,
      "v": 63
    },
    {
      "midi": 49,
      "hit": false,
      "t": 141000.00000000003,
      "d": 2708.333333333314,
      "v": 64
    },
    {
      "midi": 73,
      "hit": false,
      "t": 141650.00000000003,
      "d": 508.33333333334303,
      "v": 50
    },
    {
      "midi": 80,
      "hit": false,
      "t": 141991.6666666667,
      "d": 675,
      "v": 56
    },
    {
      "midi": 77,
      "hit": false,
      "t": 142000.00000000003,
      "d": 625,
      "v": 61
    },
    {
      "midi": 73,
      "hit": false,
      "t": 142650.00000000003,
      "d": 508.33333333334303,
      "v": 49
    },
    {
      "midi": 77,
      "hit": false,
      "t": 142991.6666666667,
      "d": 658.333333333343,
      "v": 61
    },
    {
      "midi": 80,
      "hit": false,
      "t": 143000.00000000003,
      "d": 583.333333333343,
      "v": 59
    },
    {
      "midi": 73,
      "hit": false,
      "t": 143650.00000000003,
      "d": 516.666666666657,
      "v": 55
    },
    {
      "midi": 56,
      "hit": false,
      "t": 143991.6666666667,
      "d": 2683.333333333314,
      "v": 66
    },
    {
      "midi": 49,
      "hit": false,
      "t": 143991.6666666667,
      "d": 2708.333333333314,
      "v": 69
    },
    {
      "midi": 73,
      "hit": false,
      "t": 143991.66666666674,
      "d": 2941.666666666657,
      "v": 71
    },
    {
      "midi": 53,
      "hit": false,
      "t": 144000.00000000003,
      "d": 2674.999999999971,
      "v": 70
    },
    {
      "midi": 73,
      "hit": false,
      "t": 144666.6666666667,
      "d": 458.33333333334303,
      "v": 44
    },
    {
      "midi": 77,
      "hit": false,
      "t": 144991.6666666667,
      "d": 650,
      "v": 63
    },
    {
      "midi": 80,
      "hit": false,
      "t": 144991.6666666667,
      "d": 675,
      "v": 55
    },
    {
      "midi": 73,
      "hit": false,
      "t": 145658.33333333334,
      "d": 425,
      "v": 44
    },
    {
      "midi": 80,
      "hit": false,
      "t": 145991.6666666667,
      "d": 633.3333333333139,
      "v": 57
    },
    {
      "midi": 77,
      "hit": false,
      "t": 145991.6666666667,
      "d": 724.9999999999709,
      "v": 63
    },
    {
      "midi": 73,
      "hit": false,
      "t": 146650,
      "d": 566.666666666657,
      "v": 53
    },
    {
      "midi": 68,
      "hit": false,
      "t": 146983.3333333334,
      "d": 3000,
      "v": 73
    },
    {
      "midi": 56,
      "hit": false,
      "t": 147000,
      "d": 2641.666666666686,
      "v": 65
    },
    {
      "midi": 49,
      "hit": false,
      "t": 147000,
      "d": 2666.666666666715,
      "v": 67
    },
    {
      "midi": 53,
      "hit": false,
      "t": 147000,
      "d": 2666.666666666715,
      "v": 71
    },
    {
      "midi": 73,
      "hit": false,
      "t": 147650,
      "d": 466.66666666668607,
      "v": 48
    },
    {
      "midi": 80,
      "hit": false,
      "t": 147983.33333333334,
      "d": 633.333333333343,
      "v": 56
    },
    {
      "midi": 77,
      "hit": false,
      "t": 147983.33333333334,
      "d": 666.6666666666861,
      "v": 62
    },
    {
      "midi": 73,
      "hit": false,
      "t": 148650.00000000003,
      "d": 533.3333333333139,
      "v": 45
    },
    {
      "midi": 80,
      "hit": false,
      "t": 148991.6666666667,
      "d": 550,
      "v": 56
    },
    {
      "midi": 77,
      "hit": false,
      "t": 148991.6666666667,
      "d": 666.6666666666861,
      "v": 64
    },
    {
      "midi": 73,
      "hit": false,
      "t": 149650.00000000003,
      "d": 391.66666666668607,
      "v": 50
    },
    {
      "midi": 49,
      "hit": false,
      "t": 149983.33333333337,
      "d": 2358.333333333343,
      "v": 66
    },
    {
      "midi": 53,
      "hit": false,
      "t": 149983.33333333337,
      "d": 2358.333333333343,
      "v": 66
    },
    {
      "midi": 73,
      "hit": false,
      "t": 149983.3333333334,
      "d": 3008.333333333343,
      "v": 67
    },
    {
      "midi": 56,
      "hit": false,
      "t": 149991.66666666672,
      "d": 2350,
      "v": 64
    },
    {
      "midi": 73,
      "hit": false,
      "t": 150650.00000000006,
      "d": 525,
      "v": 52
    },
    {
      "midi": 77,
      "hit": false,
      "t": 150991.66666666672,
      "d": 625,
      "v": 59
    },
    {
      "midi": 80,
      "hit": false,
      "t": 151000.00000000006,
      "d": 566.666666666657,
      "v": 56
    },
    {
      "midi": 73,
      "hit": false,
      "t": 151650.00000000006,
      "d": 508.33333333331393,
      "v": 50
    },
    {
      "midi": 80,
      "hit": false,
      "t": 151991.66666666672,
      "d": 633.333333333343,
      "v": 56
    },
    {
      "midi": 77,
      "hit": false,
      "t": 151991.66666666672,
      "d": 708.333333333343,
      "v": 58
    },
    {
      "midi": 73,
      "hit": false,
      "t": 152650.00000000006,
      "d": 316.66666666665697,
      "v": 49
    },
    {
      "midi": 56,
      "hit": false,
      "t": 152983.33333333337,
      "d": 2758.333333333372,
      "v": 63
    },
    {
      "midi": 51,
      "hit": false,
      "t": 152983.33333333337,
      "d": 2783.333333333372,
      "v": 66
    },
    {
      "midi": 48,
      "hit": false,
      "t": 152983.33333333337,
      "d": 2841.666666666715,
      "v": 64
    },
    {
      "midi": 63,
      "hit": false,
      "t": 153000.0000000001,
      "d": 2658.333333333343,
      "v": 68
    },
    {
      "midi": 72,
      "hit": false,
      "t": 153650.00000000003,
      "d": 466.66666666668607,
      "v": 47
    },
    {
      "midi": 78,
      "hit": false,
      "t": 153983.33333333337,
      "d": 625,
      "v": 56
    },
    {
      "midi": 75,
      "hit": false,
      "t": 153983.33333333337,
      "d": 658.333333333343,
      "v": 60
    },
    {
      "midi": 72,
      "hit": false,
      "t": 154650.00000000006,
      "d": 466.66666666668607,
      "v": 48
    },
    {
      "midi": 78,
      "hit": false,
      "t": 154983.3333333334,
      "d": 591.6666666666861,
      "v": 59
    },
    {
      "midi": 75,
      "hit": false,
      "t": 154983.3333333334,
      "d": 683.333333333343,
      "v": 58
    },
    {
      "midi": 56,
      "hit": false,
      "t": 155658.33333333343,
      "d": 333.33333333334303,
      "v": 67
    },
    {
      "midi": 72,
      "hit": false,
      "t": 155983.33333333343,
      "d": 966.6666666666861,
      "v": 60
    },
    {
      "midi": 56,
      "hit": false,
      "t": 155983.33333333343,
      "d": 1883.333333333343,
      "v": 66
    },
    {
      "midi": 51,
      "hit": false,
      "t": 155983.33333333343,
      "d": 1916.666666666686,
      "v": 68
    },
    {
      "midi": 48,
      "hit": false,
      "t": 155983.33333333343,
      "d": 1925.000000000029,
      "v": 66
    },
    {
      "midi": 75,
      "hit": false,
      "t": 156000.0000000001,
      "d": 841.6666666666861,
      "v": 54
    },
    {
      "midi": 80,
      "hit": false,
      "t": 156000.00000000012,
      "d": 1633.333333333343,
      "v": 73
    },
    {
      "midi": 78,
      "hit": false,
      "t": 156008.33333333343,
      "d": 2541.666666666715,
      "v": 62
    },
    {
      "midi": 75,
      "hit": false,
      "t": 157000.00000000012,
      "d": 1366.666666666686,
      "v": 53
    },
    {
      "midi": 72,
      "hit": false,
      "t": 157000.00000000012,
      "d": 1475.000000000029,
      "v": 54
    },
    {
      "midi": 56,
      "hit": false,
      "t": 157650.00000000012,
      "d": 341.66666666665697,
      "v": 68
    },
    {
      "midi": 65,
      "hit": false,
      "t": 157991.66666666677,
      "d": 658.333333333343,
      "v": 72
    },
    {
      "midi": 48,
      "hit": false,
      "t": 157991.6666666668,
      "d": 583.333333333343,
      "v": 66
    },
    {
      "midi": 51,
      "hit": false,
      "t": 158000.00000000015,
      "d": 625,
      "v": 67
    },
    {
      "midi": 56,
      "hit": false,
      "t": 158000.00000000015,
      "d": 666.666666666657,
      "v": 62
    },
    {
      "midi": 63,
      "hit": false,
      "t": 158650.00000000012,
      "d": 341.66666666665697,
      "v": 70
    },
    {
      "midi": 53,
      "hit": false,
      "t": 158983.33333333346,
      "d": 2708.333333333343,
      "v": 72
    },
    {
      "midi": 56,
      "hit": false,
      "t": 158991.6666666668,
      "d": 2600,
      "v": 66
    },
    {
      "midi": 49,
      "hit": false,
      "t": 158991.6666666668,
      "d": 2716.666666666657,
      "v": 67
    },
    {
      "midi": 65,
      "hit": false,
      "t": 159000.00000000012,
      "d": 2241.666666666657,
      "v": 68
    },
    {
      "midi": 73,
      "hit": false,
      "t": 159658.33333333346,
      "d": 625,
      "v": 49
    },
    {
      "midi": 77,
      "hit": false,
      "t": 159991.6666666668,
      "d": 650,
      "v": 64
    },
    {
      "midi": 80,
      "hit": false,
      "t": 159991.6666666668,
      "d": 733.333333333343,
      "v": 59
    },
    {
      "midi": 73,
      "hit": false,
      "t": 160650.00000000015,
      "d": 616.666666666657,
      "v": 48
    },
    {
      "midi": 77,
      "hit": false,
      "t": 160991.6666666668,
      "d": 691.666666666657,
      "v": 59
    },
    {
      "midi": 80,
      "hit": false,
      "t": 160991.6666666668,
      "d": 875,
      "v": 57
    },
    {
      "midi": 73,
      "hit": false,
      "t": 161641.6666666668,
      "d": 416.66666666668607,
      "v": 50
    },
    {
      "midi": 65,
      "hit": false,
      "t": 161658.33333333343,
      "d": 333.33333333334303,
      "v": 76
    },
    {
      "midi": 71,
      "hit": false,
      "t": 162000.00000000012,
      "d": 1000,
      "v": 73
    },
    {
      "midi": 59,
      "hit": false,
      "t": 162000.00000000015,
      "d": 2383.333333333314,
      "v": 67
    },
    {
      "midi": 53,
      "hit": false,
      "t": 162000.00000000015,
      "d": 2391.666666666657,
      "v": 78
    },
    {
      "midi": 49,
      "hit": false,
      "t": 162000.00000000015,
      "d": 2533.333333333314,
      "v": 61
    },
    {
      "midi": 71,
      "hit": false,
      "t": 162650.00000000015,
      "d": 850,
      "v": 60
    },
    {
      "midi": 70,
      "hit": false,
      "t": 163000.00000000012,
      "d": 966.666666666657,
      "v": 71
    },
    {
      "midi": 80,
      "hit": false,
      "t": 163000.00000000015,
      "d": 683.333333333343,
      "v": 55
    },
    {
      "midi": 77,
      "hit": false,
      "t": 163000.00000000015,
      "d": 708.333333333343,
      "v": 61
    },
    {
      "midi": 71,
      "hit": false,
      "t": 163650.00000000015,
      "d": 641.666666666657,
      "v": 49
    },
    {
      "midi": 68,
      "hit": false,
      "t": 163983.33333333343,
      "d": 1008.333333333343,
      "v": 66
    },
    {
      "midi": 77,
      "hit": false,
      "t": 164000.00000000015,
      "d": 608.3333333333139,
      "v": 63
    },
    {
      "midi": 80,
      "hit": false,
      "t": 164000.00000000015,
      "d": 808.3333333333139,
      "v": 59
    },
    {
      "midi": 71,
      "hit": false,
      "t": 164633.33333333346,
      "d": 325,
      "v": 50
    },
    {
      "midi": 58,
      "hit": false,
      "t": 164991.6666666668,
      "d": 2699.999999999971,
      "v": 66
    },
    {
      "midi": 54,
      "hit": false,
      "t": 164991.6666666668,
      "d": 2716.666666666628,
      "v": 71
    },
    {
      "midi": 49,
      "hit": false,
      "t": 164991.6666666668,
      "d": 2733.333333333314,
      "v": 65
    },
    {
      "midi": 70,
      "hit": false,
      "t": 165000.00000000012,
      "d": 2991.666666666657,
      "v": 71
    },
    {
      "midi": 73,
      "hit": false,
      "t": 165641.6666666668,
      "d": 616.666666666657,
      "v": 51
    },
    {
      "midi": 78,
      "hit": false,
      "t": 165983.33333333346,
      "d": 650,
      "v": 54
    },
    {
      "midi": 82,
      "hit": false,
      "t": 165983.33333333346,
      "d": 783.3333333333139,
      "v": 55
    },
    {
      "midi": 73,
      "hit": false,
      "t": 166650.00000000012,
      "d": 625,
      "v": 42
    },
    {
      "midi": 78,
      "hit": false,
      "t": 166991.66666666677,
      "d": 725,
      "v": 57
    },
    {
      "midi": 82,
      "hit": false,
      "t": 167000.00000000012,
      "d": 775,
      "v": 57
    },
    {
      "midi": 73,
      "hit": false,
      "t": 167650.00000000012,
      "d": 458.33333333331393,
      "v": 53
    },
    {
      "midi": 58,
      "hit": false,
      "t": 167991.66666666677,
      "d": 2566.666666666657,
      "v": 64
    },
    {
      "midi": 54,
      "hit": false,
      "t": 167991.66666666677,
      "d": 2633.333333333314,
      "v": 68
    },
    {
      "midi": 49,
      "hit": false,
      "t": 167991.66666666677,
      "d": 2708.333333333314,
      "v": 66
    },
    {
      "midi": 73,
      "hit": false,
      "t": 167991.66666666677,
      "d": 2858.333333333343,
      "v": 71
    },
    {
      "midi": 73,
      "hit": false,
      "t": 168658.33333333343,
      "d": 466.66666666668607,
      "v": 48
    },
    {
      "midi": 78,
      "hit": false,
      "t": 168991.66666666677,
      "d": 708.333333333343,
      "v": 59
    },
    {
      "midi": 82,
      "hit": false,
      "t": 169000.00000000012,
      "d": 716.666666666657,
      "v": 59
    },
    {
      "midi": 73,
      "hit": false,
      "t": 169650.00000000012,
      "d": 566.666666666657,
      "v": 56
    },
    {
      "midi": 78,
      "hit": false,
      "t": 169983.33333333343,
      "d": 708.3333333333139,
      "v": 61
    },
    {
      "midi": 82,
      "hit": false,
      "t": 169983.33333333343,
      "d": 791.666666666657,
      "v": 60
    },
    {
      "midi": 73,
      "hit": false,
      "t": 170650.0000000001,
      "d": 475,
      "v": 45
    },
    {
      "midi": 68,
      "hit": false,
      "t": 170983.33333333346,
      "d": 2891.666666666657,
      "v": 70
    },
    {
      "midi": 53,
      "hit": false,
      "t": 170991.66666666674,
      "d": 2158.333333333343,
      "v": 72
    },
    {
      "midi": 56,
      "hit": false,
      "t": 170991.66666666674,
      "d": 2191.666666666686,
      "v": 64
    },
    {
      "midi": 49,
      "hit": false,
      "t": 170991.66666666674,
      "d": 2216.666666666686,
      "v": 66
    },
    {
      "midi": 73,
      "hit": false,
      "t": 171666.66666666674,
      "d": 483.33333333334303,
      "v": 48
    },
    {
      "midi": 80,
      "hit": false,
      "t": 172000.0000000001,
      "d": 616.666666666657,
      "v": 55
    },
    {
      "midi": 77,
      "hit": false,
      "t": 172000.0000000001,
      "d": 816.666666666657,
      "v": 61
    },
    {
      "midi": 73,
      "hit": false,
      "t": 172658.3333333334,
      "d": 483.33333333334303,
      "v": 53
    },
    {
      "midi": 77,
      "hit": false,
      "t": 172991.66666666674,
      "d": 666.6666666666861,
      "v": 61
    },
    {
      "midi": 80,
      "hit": false,
      "t": 173000.0000000001,
      "d": 583.333333333343,
      "v": 58
    },
    {
      "midi": 73,
      "hit": false,
      "t": 173641.66666666677,
      "d": 150,
      "v": 58
    },
    {
      "midi": 72,
      "hit": false,
      "t": 173975.00000000012,
      "d": 6041.666666666686,
      "v": 59
    },
    {
      "midi": 75,
      "hit": false,
      "t": 173983.33333333346,
      "d": 6000,
      "v": 56
    },
    {
      "midi": 51,
      "hit": false,
      "t": 173983.33333333346,
      "d": 6066.666666666686,
      "v": 68
    },
    {
      "midi": 44,
      "hit": false,
      "t": 173983.33333333346,
      "d": 6083.333333333343,
      "v": 67
    },
    {
      "midi": 48,
      "hit": false,
      "t": 173983.33333333346,
      "d": 6091.666666666686,
      "v": 73
    },
    {
      "midi": 66,
      "hit": false,
      "t": 174000.00000000012,
      "d": 3191.666666666657,
      "v": 70
    },
    {
      "midi": 78,
      "hit": false,
      "t": 174008.33333333346,
      "d": 5883.333333333343,
      "v": 53
    },
    {
      "midi": 56,
      "hit": false,
      "t": 181000.00000000012,
      "d": 716.666666666657,
      "v": 53
    },
    {
      "midi": 65,
      "hit": false,
      "t": 181525.00000000012,
      "d": 591.666666666657,
      "v": 55
    },
    {
      "midi": 61,
      "hit": false,
      "t": 182066.66666666677,
      "d": 633.333333333343,
      "v": 67
    },
    {
      "midi": 68,
      "hit": false,
      "t": 182566.66666666677,
      "d": 541.6666666666861,
      "v": 69
    },
    {
      "midi": 65,
      "hit": false,
      "t": 183083.33333333346,
      "d": 650,
      "v": 78
    },
    {
      "midi": 73,
      "hit": false,
      "t": 183608.33333333346,
      "d": 1691.666666666657,
      "v": 59
    }
  ]
}