{
  "jsonPath": "Unknown/Unknown/Jordan Hill/until-the-end-of-time-lp-version.json",
  "path": "Unknown\\Unknown\\Jordan Hill\\Until The End Of Time (LP Version).mid",
  "name": "Until The End Of Time (LP Version)",
  "difficulty": "Advanced",
  "bpm": 60,
  "notes": [
    {
      "midi": 62,
      "hit": false,
      "t": 4000,
      "d": 1010.4166666666661,
      "v": 66
    },
    {
      "midi": 58,
      "hit": false,
      "t": 4000,
      "d": 1171.874999999999,
      "v": 35
    },
    {
      "midi": 39,
      "hit": false,
      "t": 4000,
      "d": 1302.0833333333321,
      "v": 60
    },
    {
      "midi": 65,
      "hit": false,
      "t": 4000,
      "d": 1380.2083333333321,
      "v": 68
    },
    {
      "midi": 55,
      "hit": false,
      "t": 4000,
      "d": 1416.6666666666652,
      "v": 35
    },
    {
      "midi": 55,
      "hit": false,
      "t": 5999.999999999999,
      "d": 1276.041666666667,
      "v": 36
    },
    {
      "midi": 58,
      "hit": false,
      "t": 5999.999999999999,
      "d": 1281.25,
      "v": 44
    },
    {
      "midi": 63,
      "hit": false,
      "t": 5999.999999999999,
      "d": 1286.458333333333,
      "v": 44
    },
    {
      "midi": 65,
      "hit": false,
      "t": 5999.999999999999,
      "d": 1286.458333333333,
      "v": 35
    },
    {
      "midi": 60,
      "hit": false,
      "t": 5999.999999999999,
      "d": 1302.083333333333,
      "v": 38
    },
    {
      "midi": 48,
      "hit": false,
      "t": 5999.999999999999,
      "d": 2041.666666666666,
      "v": 74
    },
    {
      "midi": 60,
      "hit": false,
      "t": 7999.999999999998,
      "d": 671.875,
      "v": 44
    },
    {
      "midi": 70,
      "hit": false,
      "t": 7999.999999999998,
      "d": 843.75,
      "v": 42
    },
    {
      "midi": 63,
      "hit": false,
      "t": 7999.999999999998,
      "d": 854.1666666666661,
      "v": 52
    },
    {
      "midi": 41,
      "hit": false,
      "t": 7999.999999999998,
      "d": 3729.166666666666,
      "v": 46
    },
    {
      "midi": 60,
      "hit": false,
      "t": 8999.999999999998,
      "d": 953.125,
      "v": 35
    },
    {
      "midi": 70,
      "hit": false,
      "t": 9499.999999999998,
      "d": 500,
      "v": 60
    },
    {
      "midi": 60,
      "hit": false,
      "t": 9999.999999999998,
      "d": 1312.5,
      "v": 68
    },
    {
      "midi": 68,
      "hit": false,
      "t": 9999.999999999998,
      "d": 1359.375,
      "v": 60
    },
    {
      "midi": 63,
      "hit": false,
      "t": 9999.999999999998,
      "d": 1406.25,
      "v": 60
    },
    {
      "midi": 63,
      "hit": false,
      "t": 11999.999999999996,
      "d": 1052.083333333334,
      "v": 44
    },
    {
      "midi": 60,
      "hit": false,
      "t": 11999.999999999996,
      "d": 1093.75,
      "v": 62
    },
    {
      "midi": 68,
      "hit": false,
      "t": 11999.999999999996,
      "d": 1135.416666666666,
      "v": 44
    },
    {
      "midi": 41,
      "hit": false,
      "t": 11999.999999999996,
      "d": 1583.3333333333321,
      "v": 58
    },
    {
      "midi": 71,
      "hit": false,
      "t": 13999.999999999995,
      "d": 796.875,
      "v": 78
    },
    {
      "midi": 62,
      "hit": false,
      "t": 13999.999999999995,
      "d": 812.5,
      "v": 48
    },
    {
      "midi": 66,
      "hit": false,
      "t": 13999.999999999995,
      "d": 817.7083333333339,
      "v": 66
    },
    {
      "midi": 46,
      "hit": false,
      "t": 13999.999999999995,
      "d": 1421.875,
      "v": 38
    },
    {
      "midi": 66,
      "hit": false,
      "t": 14999.999999999995,
      "d": 125,
      "v": 66
    },
    {
      "midi": 62,
      "hit": false,
      "t": 14999.999999999995,
      "d": 130.20833333333394,
      "v": 58
    },
    {
      "midi": 55,
      "hit": false,
      "t": 15999.999999999995,
      "d": 807.2916666666661,
      "v": 36
    },
    {
      "midi": 58,
      "hit": false,
      "t": 15999.999999999995,
      "d": 1046.8749999999982,
      "v": 44
    },
    {
      "midi": 65,
      "hit": false,
      "t": 15999.999999999995,
      "d": 1104.166666666666,
      "v": 58
    },
    {
      "midi": 62,
      "hit": false,
      "t": 15999.999999999995,
      "d": 1130.2083333333303,
      "v": 56
    },
    {
      "midi": 39,
      "hit": false,
      "t": 15999.999999999995,
      "d": 1343.7499999999982,
      "v": 72
    },
    {
      "midi": 55,
      "hit": false,
      "t": 16999.999999999993,
      "d": 125,
      "v": 40
    },
    {
      "midi": 54,
      "hit": false,
      "t": 17999.999999999993,
      "d": 1260.4166666666642,
      "v": 35
    },
    {
      "midi": 60,
      "hit": false,
      "t": 17999.999999999993,
      "d": 1281.2499999999964,
      "v": 88
    },
    {
      "midi": 65,
      "hit": false,
      "t": 17999.999999999993,
      "d": 1317.7083333333285,
      "v": 96
    },
    {
      "midi": 44,
      "hit": false,
      "t": 17999.999999999993,
      "d": 1666.6666666666606,
      "v": 72
    },
    {
      "midi": 43,
      "hit": false,
      "t": 19999.99999999999,
      "d": 1703.125,
      "v": 38
    },
    {
      "midi": 72,
      "hit": false,
      "t": 19999.99999999999,
      "d": 1833.3333333333321,
      "v": 70
    },
    {
      "midi": 69,
      "hit": false,
      "t": 19999.99999999999,
      "d": 1901.0416666666642,
      "v": 56
    },
    {
      "midi": 65,
      "hit": false,
      "t": 19999.99999999999,
      "d": 1911.4583333333321,
      "v": 74
    },
    {
      "midi": 62,
      "hit": false,
      "t": 19999.99999999999,
      "d": 1916.6666666666642,
      "v": 52
    },
    {
      "midi": 72,
      "hit": false,
      "t": 21999.999999999985,
      "d": 177.08333333333212,
      "v": 58
    },
    {
      "midi": 69,
      "hit": false,
      "t": 21999.999999999985,
      "d": 218.75,
      "v": 48
    },
    {
      "midi": 65,
      "hit": false,
      "t": 21999.999999999985,
      "d": 244.79166666666788,
      "v": 70
    },
    {
      "midi": 62,
      "hit": false,
      "t": 21999.999999999985,
      "d": 302.08333333333576,
      "v": 44
    },
    {
      "midi": 48,
      "hit": false,
      "t": 21999.999999999985,
      "d": 1979.1666666666679,
      "v": 78
    },
    {
      "midi": 64,
      "hit": false,
      "t": 22999.999999999985,
      "d": 500,
      "v": 92
    },
    {
      "midi": 58,
      "hit": false,
      "t": 22999.999999999985,
      "d": 718.75,
      "v": 66
    },
    {
      "midi": 67,
      "hit": false,
      "t": 22999.999999999985,
      "d": 838.5416666666679,
      "v": 66
    },
    {
      "midi": 56,
      "hit": false,
      "t": 23999.999999999985,
      "d": 1276.0416666666679,
      "v": 56
    },
    {
      "midi": 67,
      "hit": false,
      "t": 23999.999999999985,
      "d": 1385.4166666666679,
      "v": 35
    },
    {
      "midi": 60,
      "hit": false,
      "t": 23999.999999999985,
      "d": 1463.5416666666679,
      "v": 74
    },
    {
      "midi": 63,
      "hit": false,
      "t": 23999.999999999985,
      "d": 1546.875,
      "v": 78
    },
    {
      "midi": 41,
      "hit": false,
      "t": 23999.999999999985,
      "d": 3640.6250000000036,
      "v": 68
    },
    {
      "midi": 63,
      "hit": false,
      "t": 25999.999999999985,
      "d": 875,
      "v": 72
    },
    {
      "midi": 68,
      "hit": false,
      "t": 25999.999999999985,
      "d": 916.6666666666679,
      "v": 44
    },
    {
      "midi": 60,
      "hit": false,
      "t": 25999.999999999985,
      "d": 1036.4583333333358,
      "v": 46
    },
    {
      "midi": 41,
      "hit": false,
      "t": 27999.99999999999,
      "d": 1656.25,
      "v": 70
    },
    {
      "midi": 63,
      "hit": false,
      "t": 27999.99999999999,
      "d": 1729.1666666666679,
      "v": 56
    },
    {
      "midi": 67,
      "hit": false,
      "t": 27999.99999999999,
      "d": 1781.25,
      "v": 48
    },
    {
      "midi": 56,
      "hit": false,
      "t": 27999.99999999999,
      "d": 1786.4583333333321,
      "v": 38
    },
    {
      "midi": 60,
      "hit": false,
      "t": 27999.99999999999,
      "d": 1822.9166666666642,
      "v": 66
    },
    {
      "midi": 67,
      "hit": false,
      "t": 29999.99999999999,
      "d": 656.25,
      "v": 35
    },
    {
      "midi": 56,
      "hit": false,
      "t": 29999.99999999999,
      "d": 822.9166666666679,
      "v": 48
    },
    {
      "midi": 60,
      "hit": false,
      "t": 29999.99999999999,
      "d": 848.9583333333321,
      "v": 70
    },
    {
      "midi": 46,
      "hit": false,
      "t": 29999.99999999999,
      "d": 963.5416666666642,
      "v": 52
    },
    {
      "midi": 63,
      "hit": false,
      "t": 29999.99999999999,
      "d": 1416.6666666666642,
      "v": 60
    },
    {
      "midi": 65,
      "hit": false,
      "t": 30999.999999999985,
      "d": 494.7916666666679,
      "v": 84
    },
    {
      "midi": 60,
      "hit": false,
      "t": 30999.999999999985,
      "d": 505.20833333333576,
      "v": 78
    },
    {
      "midi": 56,
      "hit": false,
      "t": 30999.999999999985,
      "d": 520.8333333333358,
      "v": 42
    },
    {
      "midi": 44,
      "hit": false,
      "t": 30999.999999999985,
      "d": 916.6666666666679,
      "v": 60
    },
    {
      "midi": 65,
      "hit": false,
      "t": 31999.999999999985,
      "d": 536.4583333333321,
      "v": 78
    },
    {
      "midi": 62,
      "hit": false,
      "t": 31999.999999999985,
      "d": 557.2916666666642,
      "v": 68
    },
    {
      "midi": 58,
      "hit": false,
      "t": 31999.999999999985,
      "d": 645.8333333333321,
      "v": 42
    },
    {
      "midi": 55,
      "hit": false,
      "t": 31999.999999999985,
      "d": 802.0833333333285,
      "v": 42
    },
    {
      "midi": 43,
      "hit": false,
      "t": 31999.999999999985,
      "d": 953.1249999999927,
      "v": 74
    },
    {
      "midi": 64,
      "hit": false,
      "t": 32999.99999999998,
      "d": 588.5416666666715,
      "v": 66
    },
    {
      "midi": 58,
      "hit": false,
      "t": 32999.99999999998,
      "d": 635.4166666666715,
      "v": 44
    },
    {
      "midi": 60,
      "hit": false,
      "t": 32999.99999999998,
      "d": 656.2500000000073,
      "v": 68
    },
    {
      "midi": 55,
      "hit": false,
      "t": 32999.99999999998,
      "d": 723.958333333343,
      "v": 74
    },
    {
      "midi": 48,
      "hit": false,
      "t": 32999.99999999998,
      "d": 1072.9166666666788,
      "v": 84
    },
    {
      "midi": 63,
      "hit": false,
      "t": 33999.99999999999,
      "d": 390.625,
      "v": 66
    },
    {
      "midi": 60,
      "hit": false,
      "t": 33999.99999999999,
      "d": 447.91666666666424,
      "v": 80
    },
    {
      "midi": 56,
      "hit": false,
      "t": 33999.99999999999,
      "d": 562.5,
      "v": 60
    },
    {
      "midi": 53,
      "hit": false,
      "t": 33999.99999999999,
      "d": 604.1666666666642,
      "v": 68
    },
    {
      "midi": 41,
      "hit": false,
      "t": 33999.99999999999,
      "d": 869.7916666666642,
      "v": 70
    },
    {
      "midi": 53,
      "hit": false,
      "t": 34999.99999999999,
      "d": 338.54166666666424,
      "v": 68
    },
    {
      "midi": 56,
      "hit": false,
      "t": 34999.99999999999,
      "d": 338.54166666666424,
      "v": 56
    },
    {
      "midi": 59,
      "hit": false,
      "t": 34999.99999999999,
      "d": 364.5833333333285,
      "v": 70
    },
    {
      "midi": 62,
      "hit": false,
      "t": 34999.99999999999,
      "d": 401.04166666666424,
      "v": 70
    },
    {
      "midi": 46,
      "hit": false,
      "t": 34999.99999999999,
      "d": 479.16666666666424,
      "v": 56
    },
    {
      "midi": 62,
      "hit": false,
      "t": 35999.99999999999,
      "d": 1234.375,
      "v": 66
    },
    {
      "midi": 58,
      "hit": false,
      "t": 35999.99999999999,
      "d": 1312.5,
      "v": 38
    },
    {
      "midi": 55,
      "hit": false,
      "t": 35999.99999999999,
      "d": 1406.25,
      "v": 42
    },
    {
      "midi": 39,
      "hit": false,
      "t": 35999.99999999999,
      "d": 1614.5833333333358,
      "v": 66
    },
    {
      "midi": 55,
      "hit": false,
      "t": 38000,
      "d": 921.875,
      "v": 58
    },
    {
      "midi": 58,
      "hit": false,
      "t": 38000,
      "d": 1229.1666666666642,
      "v": 50
    },
    {
      "midi": 63,
      "hit": false,
      "t": 38000,
      "d": 1229.1666666666642,
      "v": 44
    },
    {
      "midi": 60,
      "hit": false,
      "t": 38000,
      "d": 1244.7916666666642,
      "v": 56
    },
    {
      "midi": 48,
      "hit": false,
      "t": 38000,
      "d": 2041.6666666666642,
      "v": 68
    },
    {
      "midi": 55,
      "hit": false,
      "t": 39000,
      "d": 270.8333333333285,
      "v": 35
    },
    {
      "midi": 60,
      "hit": false,
      "t": 40000,
      "d": 833.3333333333285,
      "v": 66
    },
    {
      "midi": 70,
      "hit": false,
      "t": 40000,
      "d": 1067.7083333333285,
      "v": 52
    },
    {
      "midi": 63,
      "hit": false,
      "t": 40000,
      "d": 1140.6249999999927,
      "v": 48
    },
    {
      "midi": 41,
      "hit": false,
      "t": 40000,
      "d": 5687.499999999993,
      "v": 66
    },
    {
      "midi": 60,
      "hit": false,
      "t": 41499.99999999999,
      "d": 338.54166666666424,
      "v": 35
    },
    {
      "midi": 60,
      "hit": false,
      "t": 41999.99999999999,
      "d": 302.0833333333285,
      "v": 50
    },
    {
      "midi": 63,
      "hit": false,
      "t": 41999.99999999999,
      "d": 307.29166666666424,
      "v": 52
    },
    {
      "midi": 68,
      "hit": false,
      "t": 41999.99999999999,
      "d": 328.125,
      "v": 52
    },
    {
      "midi": 80,
      "hit": false,
      "t": 42999.99999999999,
      "d": 125,
      "v": 60
    },
    {
      "midi": 60,
      "hit": false,
      "t": 43999.99999999999,
      "d": 822.9166666666715,
      "v": 58
    },
    {
      "midi": 63,
      "hit": false,
      "t": 43999.99999999999,
      "d": 1260.4166666666715,
      "v": 56
    },
    {
      "midi": 68,
      "hit": false,
      "t": 43999.99999999999,
      "d": 1333.3333333333358,
      "v": 35
    },
    {
      "midi": 66,
      "hit": false,
      "t": 45999.99999999999,
      "d": 1041.6666666666642,
      "v": 84
    },
    {
      "midi": 62,
      "hit": false,
      "t": 45999.99999999999,
      "d": 1156.25,
      "v": 66
    },
    {
      "midi": 46,
      "hit": false,
      "t": 45999.99999999999,
      "d": 1526.0416666666642,
      "v": 60
    },
    {
      "midi": 67,
      "hit": false,
      "t": 47999.999999999985,
      "d": 1125,
      "v": 44
    },
    {
      "midi": 62,
      "hit": false,
      "t": 47999.999999999985,
      "d": 1130.2083333333358,
      "v": 50
    },
    {
      "midi": 58,
      "hit": false,
      "t": 47999.999999999985,
      "d": 1203.125,
      "v": 35
    },
    {
      "midi": 39,
      "hit": false,
      "t": 47999.999999999985,
      "d": 1453.125,
      "v": 72
    },
    {
      "midi": 54,
      "hit": false,
      "t": 49999.999999999985,
      "d": 1260.4166666666642,
      "v": 35
    },
    {
      "midi": 60,
      "hit": false,
      "t": 49999.999999999985,
      "d": 1265.625,
      "v": 88
    },
    {
      "midi": 65,
      "hit": false,
      "t": 49999.999999999985,
      "d": 1302.0833333333358,
      "v": 74
    },
    {
      "midi": 44,
      "hit": false,
      "t": 49999.999999999985,
      "d": 1916.6666666666715,
      "v": 78
    },
    {
      "midi": 43,
      "hit": false,
      "t": 51999.99999999999,
      "d": 1828.1250000000073,
      "v": 66
    },
    {
      "midi": 72,
      "hit": false,
      "t": 51999.99999999999,
      "d": 1885.4166666666715,
      "v": 66
    },
    {
      "midi": 62,
      "hit": false,
      "t": 51999.99999999999,
      "d": 1927.0833333333358,
      "v": 38
    },
    {
      "midi": 65,
      "hit": false,
      "t": 51999.99999999999,
      "d": 1932.2916666666715,
      "v": 62
    },
    {
      "midi": 69,
      "hit": false,
      "t": 51999.99999999999,
      "d": 1932.2916666666715,
      "v": 42
    },
    {
      "midi": 72,
      "hit": false,
      "t": 54000,
      "d": 260.41666666666424,
      "v": 66
    },
    {
      "midi": 69,
      "hit": false,
      "t": 54000,
      "d": 286.4583333333285,
      "v": 60
    },
    {
      "midi": 65,
      "hit": false,
      "t": 54000,
      "d": 322.91666666666424,
      "v": 66
    },
    {
      "midi": 62,
      "hit": false,
      "t": 54000,
      "d": 375,
      "v": 50
    },
    {
      "midi": 48,
      "hit": false,
      "t": 54000,
      "d": 885.4166666666642,
      "v": 78
    },
    {
      "midi": 64,
      "hit": false,
      "t": 55000,
      "d": 723.9583333333358,
      "v": 66
    },
    {
      "midi": 58,
      "hit": false,
      "t": 55000,
      "d": 859.375,
      "v": 60
    },
    {
      "midi": 67,
      "hit": false,
      "t": 55000,
      "d": 864.5833333333358,
      "v": 35
    },
    {
      "midi": 48,
      "hit": false,
      "t": 55000,
      "d": 1015.6250000000073,
      "v": 68
    },
    {
      "midi": 56,
      "hit": false,
      "t": 56000.00000000001,
      "d": 1333.3333333333358,
      "v": 36
    },
    {
      "midi": 67,
      "hit": false,
      "t": 56000.00000000001,
      "d": 1406.25,
      "v": 35
    },
    {
      "midi": 60,
      "hit": false,
      "t": 56000.00000000001,
      "d": 1432.2916666666642,
      "v": 78
    },
    {
      "midi": 41,
      "hit": false,
      "t": 56000.00000000001,
      "d": 1718.75,
      "v": 62
    },
    {
      "midi": 68,
      "hit": false,
      "t": 58000.00000000001,
      "d": 1223.9583333333358,
      "v": 48
    },
    {
      "midi": 63,
      "hit": false,
      "t": 58000.00000000001,
      "d": 1229.1666666666715,
      "v": 60
    },
    {
      "midi": 60,
      "hit": false,
      "t": 58000.00000000001,
      "d": 1333.3333333333358,
      "v": 58
    },
    {
      "midi": 41,
      "hit": false,
      "t": 58000.00000000001,
      "d": 1687.5,
      "v": 70
    },
    {
      "midi": 56,
      "hit": false,
      "t": 60000.00000000001,
      "d": 750,
      "v": 35
    },
    {
      "midi": 67,
      "hit": false,
      "t": 60000.00000000001,
      "d": 1010.4166666666642,
      "v": 38
    },
    {
      "midi": 60,
      "hit": false,
      "t": 60000.00000000001,
      "d": 1109.375,
      "v": 74
    },
    {
      "midi": 63,
      "hit": false,
      "t": 60000.00000000001,
      "d": 1145.8333333333358,
      "v": 52
    },
    {
      "midi": 46,
      "hit": false,
      "t": 60000.00000000001,
      "d": 1437.5,
      "v": 52
    },
    {
      "midi": 62,
      "hit": false,
      "t": 62000.00000000001,
      "d": 1088.5416666666642,
      "v": 70
    },
    {
      "midi": 46,
      "hit": false,
      "t": 62000.00000000001,
      "d": 1125,
      "v": 35
    },
    {
      "midi": 66,
      "hit": false,
      "t": 62000.00000000001,
      "d": 1151.0416666666642,
      "v": 66
    },
    {
      "midi": 58,
      "hit": false,
      "t": 62000.00000000001,
      "d": 1218.75,
      "v": 56
    },
    {
      "midi": 55,
      "hit": false,
      "t": 64000.00000000001,
      "d": 708.3333333333285,
      "v": 35
    },
    {
      "midi": 62,
      "hit": false,
      "t": 64000.00000000001,
      "d": 1197.916666666657,
      "v": 40
    },
    {
      "midi": 65,
      "hit": false,
      "t": 64000.00000000001,
      "d": 1260.416666666657,
      "v": 74
    },
    {
      "midi": 58,
      "hit": false,
      "t": 64000.00000000001,
      "d": 1291.666666666657,
      "v": 35
    },
    {
      "midi": 39,
      "hit": false,
      "t": 64000.00000000001,
      "d": 1296.8749999999927,
      "v": 60
    },
    {
      "midi": 55,
      "hit": false,
      "t": 65000,
      "d": 328.125,
      "v": 66
    },
    {
      "midi": 55,
      "hit": false,
      "t": 66000,
      "d": 791.6666666666715,
      "v": 48
    },
    {
      "midi": 58,
      "hit": false,
      "t": 66000,
      "d": 1291.6666666666715,
      "v": 44
    },
    {
      "midi": 63,
      "hit": false,
      "t": 66000,
      "d": 1317.708333333343,
      "v": 56
    },
    {
      "midi": 60,
      "hit": false,
      "t": 66000,
      "d": 1322.9166666666715,
      "v": 62
    },
    {
      "midi": 48,
      "hit": false,
      "t": 66000,
      "d": 1984.375,
      "v": 78
    },
    {
      "midi": 55,
      "hit": false,
      "t": 67000,
      "d": 453.125,
      "v": 35
    },
    {
      "midi": 53,
      "hit": false,
      "t": 68000,
      "d": 687.5,
      "v": 56
    },
    {
      "midi": 63,
      "hit": false,
      "t": 68000,
      "d": 875,
      "v": 44
    },
    {
      "midi": 56,
      "hit": false,
      "t": 68000,
      "d": 1000,
      "v": 56
    },
    {
      "midi": 60,
      "hit": false,
      "t": 68000,
      "d": 1104.1666666666715,
      "v": 60
    },
    {
      "midi": 41,
      "hit": false,
      "t": 68000,
      "d": 1802.0833333333285,
      "v": 68
    },
    {
      "midi": 53,
      "hit": false,
      "t": 69000,
      "d": 187.5,
      "v": 38
    },
    {
      "midi": 62,
      "hit": false,
      "t": 70000,
      "d": 776.041666666657,
      "v": 38
    },
    {
      "midi": 71,
      "hit": false,
      "t": 70000,
      "d": 1015.6249999999854,
      "v": 70
    },
    {
      "midi": 66,
      "hit": false,
      "t": 70000,
      "d": 1052.083333333314,
      "v": 66
    },
    {
      "midi": 46,
      "hit": false,
      "t": 70000,
      "d": 1333.333333333314,
      "v": 48
    },
    {
      "midi": 62,
      "hit": false,
      "t": 70999.99999999999,
      "d": 125,
      "v": 58
    },
    {
      "midi": 55,
      "hit": false,
      "t": 71999.99999999999,
      "d": 854.166666666657,
      "v": 60
    },
    {
      "midi": 62,
      "hit": false,
      "t": 71999.99999999999,
      "d": 1401.041666666657,
      "v": 62
    },
    {
      "midi": 58,
      "hit": false,
      "t": 71999.99999999999,
      "d": 1442.7083333333285,
      "v": 48
    },
    {
      "midi": 39,
      "hit": false,
      "t": 71999.99999999999,
      "d": 1843.75,
      "v": 78
    },
    {
      "midi": 55,
      "hit": false,
      "t": 72999.99999999997,
      "d": 489.58333333334303,
      "v": 38
    },
    {
      "midi": 55,
      "hit": false,
      "t": 73999.99999999999,
      "d": 1229.1666666666715,
      "v": 44
    },
    {
      "midi": 58,
      "hit": false,
      "t": 73999.99999999999,
      "d": 1453.125,
      "v": 44
    },
    {
      "midi": 60,
      "hit": false,
      "t": 73999.99999999999,
      "d": 1494.7916666666715,
      "v": 48
    },
    {
      "midi": 63,
      "hit": false,
      "t": 73999.99999999999,
      "d": 1505.2083333333285,
      "v": 52
    },
    {
      "midi": 48,
      "hit": false,
      "t": 73999.99999999999,
      "d": 2052.0833333333285,
      "v": 80
    },
    {
      "midi": 55,
      "hit": false,
      "t": 75499.99999999999,
      "d": 328.125,
      "v": 60
    },
    {
      "midi": 53,
      "hit": false,
      "t": 75999.99999999999,
      "d": 911.4583333333285,
      "v": 62
    },
    {
      "midi": 56,
      "hit": false,
      "t": 75999.99999999999,
      "d": 968.75,
      "v": 35
    },
    {
      "midi": 60,
      "hit": false,
      "t": 75999.99999999999,
      "d": 979.1666666666715,
      "v": 68
    },
    {
      "midi": 63,
      "hit": false,
      "t": 75999.99999999999,
      "d": 1192.7083333333285,
      "v": 60
    },
    {
      "midi": 41,
      "hit": false,
      "t": 75999.99999999999,
      "d": 1901.041666666657,
      "v": 84
    },
    {
      "midi": 53,
      "hit": false,
      "t": 76999.99999999999,
      "d": 125,
      "v": 46
    },
    {
      "midi": 56,
      "hit": false,
      "t": 76999.99999999999,
      "d": 125,
      "v": 35
    },
    {
      "midi": 60,
      "hit": false,
      "t": 76999.99999999999,
      "d": 125,
      "v": 36
    },
    {
      "midi": 58,
      "hit": false,
      "t": 77999.99999999997,
      "d": 833.3333333333285,
      "v": 36
    },
    {
      "midi": 66,
      "hit": false,
      "t": 77999.99999999997,
      "d": 1031.25,
      "v": 78
    },
    {
      "midi": 62,
      "hit": false,
      "t": 77999.99999999997,
      "d": 1052.0833333333285,
      "v": 66
    },
    {
      "midi": 46,
      "hit": false,
      "t": 77999.99999999997,
      "d": 1505.2083333333285,
      "v": 44
    },
    {
      "midi": 58,
      "hit": false,
      "t": 78999.99999999997,
      "d": 140.625,
      "v": 35
    },
    {
      "midi": 55,
      "hit": false,
      "t": 79999.99999999997,
      "d": 651.0416666666715,
      "v": 38
    },
    {
      "midi": 65,
      "hit": false,
      "t": 79999.99999999997,
      "d": 947.9166666666715,
      "v": 74
    },
    {
      "midi": 58,
      "hit": false,
      "t": 79999.99999999997,
      "d": 1041.6666666666715,
      "v": 35
    },
    {
      "midi": 62,
      "hit": false,
      "t": 79999.99999999997,
      "d": 1057.2916666666715,
      "v": 58
    },
    {
      "midi": 39,
      "hit": false,
      "t": 79999.99999999997,
      "d": 3583.3333333333285,
      "v": 84
    },
    {
      "midi": 74,
      "hit": false,
      "t": 81499.99999999997,
      "d": 1505.2083333333285,
      "v": 68
    },
    {
      "midi": 67,
      "hit": false,
      "t": 81999.99999999997,
      "d": 1041.666666666657,
      "v": 35
    },
    {
      "midi": 64,
      "hit": false,
      "t": 83999.99999999996,
      "d": 484.375,
      "v": 74
    },
    {
      "midi": 60,
      "hit": false,
      "t": 83999.99999999996,
      "d": 500,
      "v": 78
    },
    {
      "midi": 57,
      "hit": false,
      "t": 83999.99999999996,
      "d": 802.0833333333285,
      "v": 66
    },
    {
      "midi": 45,
      "hit": false,
      "t": 83999.99999999996,
      "d": 1947.9166666666715,
      "v": 74
    },
    {
      "midi": 58,
      "hit": false,
      "t": 85999.99999999996,
      "d": 1020.833333333343,
      "v": 44
    },
    {
      "midi": 54,
      "hit": false,
      "t": 85999.99999999996,
      "d": 1036.458333333343,
      "v": 35
    },
    {
      "midi": 60,
      "hit": false,
      "t": 85999.99999999996,
      "d": 1041.6666666666715,
      "v": 66
    },
    {
      "midi": 63,
      "hit": false,
      "t": 85999.99999999996,
      "d": 1072.9166666666715,
      "v": 66
    },
    {
      "midi": 38,
      "hit": false,
      "t": 85999.99999999996,
      "d": 1869.7916666666715,
      "v": 78
    },
    {
      "midi": 58,
      "hit": false,
      "t": 87999.99999999996,
      "d": 1338.5416666666715,
      "v": 36
    },
    {
      "midi": 69,
      "hit": false,
      "t": 87999.99999999996,
      "d": 1500,
      "v": 66
    },
    {
      "midi": 65,
      "hit": false,
      "t": 87999.99999999996,
      "d": 1562.5,
      "v": 74
    },
    {
      "midi": 62,
      "hit": false,
      "t": 87999.99999999996,
      "d": 1614.5833333333285,
      "v": 56
    },
    {
      "midi": 43,
      "hit": false,
      "t": 87999.99999999996,
      "d": 1911.4583333333285,
      "v": 70
    },
    {
      "midi": 58,
      "hit": false,
      "t": 89499.99999999996,
      "d": 338.54166666665697,
      "v": 48
    },
    {
      "midi": 58,
      "hit": false,
      "t": 89999.99999999996,
      "d": 828.125,
      "v": 50
    },
    {
      "midi": 62,
      "hit": false,
      "t": 89999.99999999996,
      "d": 1187.5,
      "v": 66
    },
    {
      "midi": 67,
      "hit": false,
      "t": 89999.99999999996,
      "d": 1197.9166666666715,
      "v": 60
    },
    {
      "midi": 43,
      "hit": false,
      "t": 89999.99999999996,
      "d": 1666.6666666666715,
      "v": 70
    },
    {
      "midi": 58,
      "hit": false,
      "t": 90999.99999999996,
      "d": 322.9166666666715,
      "v": 60
    },
    {
      "midi": 58,
      "hit": false,
      "t": 91999.99999999996,
      "d": 1005.208333333343,
      "v": 35
    },
    {
      "midi": 60,
      "hit": false,
      "t": 91999.99999999996,
      "d": 1026.0416666666715,
      "v": 74
    },
    {
      "midi": 63,
      "hit": false,
      "t": 91999.99999999996,
      "d": 1026.0416666666715,
      "v": 72
    },
    {
      "midi": 55,
      "hit": false,
      "t": 91999.99999999996,
      "d": 1078.125,
      "v": 74
    },
    {
      "midi": 48,
      "hit": false,
      "t": 91999.99999999996,
      "d": 1927.0833333333285,
      "v": 84
    },
    {
      "midi": 62,
      "hit": false,
      "t": 93999.99999999996,
      "d": 911.458333333343,
      "v": 62
    },
    {
      "midi": 57,
      "hit": false,
      "t": 93999.99999999996,
      "d": 1322.9166666666715,
      "v": 62
    },
    {
      "midi": 53,
      "hit": false,
      "t": 93999.99999999996,
      "d": 1463.5416666666715,
      "v": 52
    },
    {
      "midi": 41,
      "hit": false,
      "t": 93999.99999999996,
      "d": 1786.458333333343,
      "v": 70
    },
    {
      "midi": 62,
      "hit": false,
      "t": 94999.99999999996,
      "d": 291.6666666666715,
      "v": 90
    },
    {
      "midi": 53,
      "hit": false,
      "t": 95999.99999999997,
      "d": 1270.8333333333285,
      "v": 66
    },
    {
      "midi": 56,
      "hit": false,
      "t": 95999.99999999997,
      "d": 1270.8333333333285,
      "v": 48
    },
    {
      "midi": 63,
      "hit": false,
      "t": 95999.99999999997,
      "d": 1276.041666666657,
      "v": 42
    },
    {
      "midi": 60,
      "hit": false,
      "t": 95999.99999999997,
      "d": 1281.2499999999854,
      "v": 66
    },
    {
      "midi": 41,
      "hit": false,
      "t": 95999.99999999997,
      "d": 1656.2499999999854,
      "v": 70
    },
    {
      "midi": 66,
      "hit": false,
      "t": 97999.99999999996,
      "d": 208.33333333332848,
      "v": 44
    },
    {
      "midi": 62,
      "hit": false,
      "t": 97999.99999999996,
      "d": 218.75,
      "v": 44
    },
    {
      "midi": 71,
      "hit": false,
      "t": 97999.99999999996,
      "d": 234.375,
      "v": 74
    },
    {
      "midi": 46,
      "hit": false,
      "t": 97999.99999999996,
      "d": 1489.5833333333285,
      "v": 52
    },
    {
      "midi": 62,
      "hit": false,
      "t": 98333.33333333328,
      "d": 125,
      "v": 35
    },
    {
      "midi": 66,
      "hit": false,
      "t": 98333.33333333328,
      "d": 125,
      "v": 72
    },
    {
      "midi": 66,
      "hit": false,
      "t": 99333.33333333328,
      "d": 125,
      "v": 56
    },
    {
      "midi": 71,
      "hit": false,
      "t": 99333.33333333328,
      "d": 125,
      "v": 74
    },
    {
      "midi": 62,
      "hit": false,
      "t": 99333.33333333328,
      "d": 135.41666666667152,
      "v": 68
    },
    {
      "midi": 39,
      "hit": false,
      "t": 99999.99999999996,
      "d": 1520.8333333333285,
      "v": 84
    },
    {
      "midi": 62,
      "hit": false,
      "t": 99999.99999999996,
      "d": 1541.666666666657,
      "v": 48
    },
    {
      "midi": 65,
      "hit": false,
      "t": 99999.99999999996,
      "d": 1541.666666666657,
      "v": 68
    },
    {
      "midi": 58,
      "hit": false,
      "t": 99999.99999999996,
      "d": 1583.3333333333285,
      "v": 42
    },
    {
      "midi": 55,
      "hit": false,
      "t": 99999.99999999996,
      "d": 1635.416666666657,
      "v": 35
    },
    {
      "midi": 55,
      "hit": false,
      "t": 101999.99999999996,
      "d": 1427.0833333333285,
      "v": 58
    },
    {
      "midi": 58,
      "hit": false,
      "t": 101999.99999999996,
      "d": 1442.7083333333285,
      "v": 44
    },
    {
      "midi": 60,
      "hit": false,
      "t": 101999.99999999996,
      "d": 1447.916666666657,
      "v": 50
    },
    {
      "midi": 63,
      "hit": false,
      "t": 101999.99999999996,
      "d": 1479.166666666657,
      "v": 52
    },
    {
      "midi": 48,
      "hit": false,
      "t": 101999.99999999996,
      "d": 2010.416666666657,
      "v": 74
    },
    {
      "midi": 70,
      "hit": false,
      "t": 103999.99999999994,
      "d": 2057.2916666666715,
      "v": 72
    },
    {
      "midi": 63,
      "hit": false,
      "t": 103999.99999999994,
      "d": 3817.7083333333285,
      "v": 66
    },
    {
      "midi": 60,
      "hit": false,
      "t": 103999.99999999994,
      "d": 3833.3333333333285,
      "v": 74
    },
    {
      "midi": 41,
      "hit": false,
      "t": 103999.99999999994,
      "d": 3880.2083333333285,
      "v": 74
    },
    {
      "midi": 68,
      "hit": false,
      "t": 105999.99999999994,
      "d": 1625,
      "v": 60
    },
    {
      "midi": 63,
      "hit": false,
      "t": 107999.99999999994,
      "d": 1098.9583333333285,
      "v": 60
    },
    {
      "midi": 60,
      "hit": false,
      "t": 107999.99999999994,
      "d": 1171.875,
      "v": 62
    },
    {
      "midi": 68,
      "hit": false,
      "t": 107999.99999999994,
      "d": 1229.1666666666715,
      "v": 56
    },
    {
      "midi": 41,
      "hit": false,
      "t": 107999.99999999994,
      "d": 1697.9166666666715,
      "v": 68
    },
    {
      "midi": 66,
      "hit": false,
      "t": 109999.99999999996,
      "d": 786.4583333333285,
      "v": 72
    },
    {
      "midi": 62,
      "hit": false,
      "t": 109999.99999999996,
      "d": 822.916666666657,
      "v": 48
    },
    {
      "midi": 71,
      "hit": false,
      "t": 109999.99999999996,
      "d": 1380.208333333314,
      "v": 68
    },
    {
      "midi": 46,
      "hit": false,
      "t": 109999.99999999996,
      "d": 1515.624999999971,
      "v": 38
    },
    {
      "midi": 62,
      "hit": false,
      "t": 110999.99999999994,
      "d": 463.54166666665697,
      "v": 50
    },
    {
      "midi": 58,
      "hit": false,
      "t": 111999.99999999993,
      "d": 1406.25,
      "v": 35
    },
    {
      "midi": 62,
      "hit": false,
      "t": 111999.99999999993,
      "d": 1854.1666666666715,
      "v": 62
    },
    {
      "midi": 67,
      "hit": false,
      "t": 111999.99999999993,
      "d": 3093.75,
      "v": 35
    },
    {
      "midi": 39,
      "hit": false,
      "t": 111999.99999999993,
      "d": 3489.583333333343,
      "v": 90
    },
    {
      "midi": 58,
      "hit": false,
      "t": 113999.99999999993,
      "d": 557.2916666666715,
      "v": 35
    },
    {
      "midi": 62,
      "hit": false,
      "t": 113999.99999999993,
      "d": 1031.25,
      "v": 46
    },
    {
      "midi": 58,
      "hit": false,
      "t": 114999.99999999993,
      "d": 244.79166666667152,
      "v": 36
    },
    {
      "midi": 62,
      "hit": false,
      "t": 115999.99999999994,
      "d": 1687.5,
      "v": 80
    },
    {
      "midi": 55,
      "hit": false,
      "t": 115999.99999999994,
      "d": 1718.75,
      "v": 60
    },
    {
      "midi": 58,
      "hit": false,
      "t": 115999.99999999994,
      "d": 1723.9583333333285,
      "v": 56
    },
    {
      "midi": 43,
      "hit": false,
      "t": 115999.99999999994,
      "d": 1953.125,
      "v": 92
    },
    {
      "midi": 54,
      "hit": false,
      "t": 117999.99999999994,
      "d": 843.75,
      "v": 52
    },
    {
      "midi": 62,
      "hit": false,
      "t": 117999.99999999994,
      "d": 895.8333333333285,
      "v": 74
    },
    {
      "midi": 57,
      "hit": false,
      "t": 117999.99999999994,
      "d": 1531.25,
      "v": 78
    },
    {
      "midi": 42,
      "hit": false,
      "t": 117999.99999999994,
      "d": 1963.541666666657,
      "v": 84
    },
    {
      "midi": 54,
      "hit": false,
      "t": 118999.99999999994,
      "d": 692.7083333333285,
      "v": 44
    },
    {
      "midi": 61,
      "hit": false,
      "t": 118999.99999999994,
      "d": 739.5833333333285,
      "v": 90
    },
    {
      "midi": 53,
      "hit": false,
      "t": 119999.99999999993,
      "d": 781.25,
      "v": 68
    },
    {
      "midi": 56,
      "hit": false,
      "t": 119999.99999999993,
      "d": 791.6666666666715,
      "v": 66
    },
    {
      "midi": 60,
      "hit": false,
      "t": 119999.99999999993,
      "d": 838.5416666666715,
      "v": 74
    },
    {
      "midi": 41,
      "hit": false,
      "t": 119999.99999999993,
      "d": 3250,
      "v": 80
    },
    {
      "midi": 67,
      "hit": false,
      "t": 121499.99999999993,
      "d": 1078.125,
      "v": 50
    },
    {
      "midi": 60,
      "hit": false,
      "t": 121999.99999999993,
      "d": 609.375,
      "v": 66
    },
    {
      "midi": 63,
      "hit": false,
      "t": 121999.99999999993,
      "d": 661.4583333333285,
      "v": 78
    },
    {
      "midi": 59,
      "hit": false,
      "t": 123999.99999999993,
      "d": 338.5416666666715,
      "v": 84
    },
    {
      "midi": 56,
      "hit": false,
      "t": 123999.99999999993,
      "d": 348.95833333334303,
      "v": 72
    },
    {
      "midi": 66,
      "hit": false,
      "t": 123999.99999999993,
      "d": 375.00000000001455,
      "v": 66
    },
    {
      "midi": 61,
      "hit": false,
      "t": 123999.99999999993,
      "d": 380.20833333334303,
      "v": 72
    },
    {
      "midi": 40,
      "hit": false,
      "t": 123999.99999999993,
      "d": 3531.2500000000146,
      "v": 88
    },
    {
      "midi": 82,
      "hit": false,
      "t": 125499.99999999994,
      "d": 125,
      "v": 72
    },
    {
      "midi": 80,
      "hit": false,
      "t": 125999.99999999994,
      "d": 125,
      "v": 44
    },
    {
      "midi": 55,
      "hit": false,
      "t": 127999.99999999994,
      "d": 843.75,
      "v": 50
    },
    {
      "midi": 39,
      "hit": false,
      "t": 127999.99999999994,
      "d": 1322.9166666666715,
      "v": 90
    },
    {
      "midi": 62,
      "hit": false,
      "t": 127999.99999999994,
      "d": 1364.583333333343,
      "v": 62
    },
    {
      "midi": 58,
      "hit": false,
      "t": 127999.99999999994,
      "d": 1427.083333333343,
      "v": 56
    },
    {
      "midi": 55,
      "hit": false,
      "t": 128999.99999999994,
      "d": 557.2916666666861,
      "v": 58
    },
    {
      "midi": 39,
      "hit": false,
      "t": 129499.99999999996,
      "d": 281.25,
      "v": 84
    },
    {
      "midi": 58,
      "hit": false,
      "t": 129999.99999999996,
      "d": 385.4166666666715,
      "v": 66
    },
    {
      "midi": 62,
      "hit": false,
      "t": 129999.99999999996,
      "d": 557.2916666666715,
      "v": 70
    },
    {
      "midi": 55,
      "hit": false,
      "t": 129999.99999999996,
      "d": 609.375,
      "v": 58
    },
    {
      "midi": 43,
      "hit": false,
      "t": 129999.99999999996,
      "d": 973.9583333333285,
      "v": 92
    },
    {
      "midi": 57,
      "hit": false,
      "t": 130999.99999999994,
      "d": 468.75,
      "v": 74
    },
    {
      "midi": 63,
      "hit": false,
      "t": 130999.99999999994,
      "d": 541.666666666657,
      "v": 52
    },
    {
      "midi": 60,
      "hit": false,
      "t": 130999.99999999994,
      "d": 583.3333333333139,
      "v": 78
    },
    {
      "midi": 54,
      "hit": false,
      "t": 130999.99999999994,
      "d": 624.9999999999709,
      "v": 35
    },
    {
      "midi": 48,
      "hit": false,
      "t": 130999.99999999994,
      "d": 963.5416666666279,
      "v": 88
    },
    {
      "midi": 56,
      "hit": false,
      "t": 131999.9999999999,
      "d": 1223.958333333343,
      "v": 84
    },
    {
      "midi": 53,
      "hit": false,
      "t": 131999.9999999999,
      "d": 1234.375,
      "v": 78
    },
    {
      "midi": 60,
      "hit": false,
      "t": 131999.9999999999,
      "d": 1250,
      "v": 88
    },
    {
      "midi": 63,
      "hit": false,
      "t": 131999.9999999999,
      "d": 1302.083333333343,
      "v": 90
    },
    {
      "midi": 41,
      "hit": false,
      "t": 131999.9999999999,
      "d": 1984.375,
      "v": 96
    },
    {
      "midi": 58,
      "hit": false,
      "t": 133999.9999999999,
      "d": 796.875,
      "v": 36
    },
    {
      "midi": 62,
      "hit": false,
      "t": 133999.9999999999,
      "d": 828.125,
      "v": 70
    },
    {
      "midi": 46,
      "hit": false,
      "t": 133999.9999999999,
      "d": 1609.375,
      "v": 48
    },
    {
      "midi": 62,
      "hit": false,
      "t": 134999.9999999999,
      "d": 354.16666666665697,
      "v": 66
    },
    {
      "midi": 66,
      "hit": false,
      "t": 134999.9999999999,
      "d": 390.625,
      "v": 78
    },
    {
      "midi": 58,
      "hit": false,
      "t": 134999.9999999999,
      "d": 432.29166666665697,
      "v": 52
    },
    {
      "midi": 55,
      "hit": false,
      "t": 135999.9999999999,
      "d": 1401.041666666686,
      "v": 70
    },
    {
      "midi": 58,
      "hit": false,
      "t": 135999.9999999999,
      "d": 1437.500000000029,
      "v": 52
    },
    {
      "midi": 62,
      "hit": false,
      "t": 135999.9999999999,
      "d": 1447.916666666686,
      "v": 66
    },
    {
      "midi": 65,
      "hit": false,
      "t": 135999.9999999999,
      "d": 1447.916666666686,
      "v": 84
    },
    {
      "midi": 39,
      "hit": false,
      "t": 135999.9999999999,
      "d": 1984.375000000029,
      "v": 98
    },
    {
      "midi": 55,
      "hit": false,
      "t": 137499.99999999994,
      "d": 125,
      "v": 35
    },
    {
      "midi": 58,
      "hit": false,
      "t": 137499.99999999994,
      "d": 125,
      "v": 42
    },
    {
      "midi": 62,
      "hit": false,
      "t": 137499.99999999994,
      "d": 125,
      "v": 50
    },
    {
      "midi": 65,
      "hit": false,
      "t": 137499.99999999994,
      "d": 125,
      "v": 68
    },
    {
      "midi": 55,
      "hit": false,
      "t": 137999.99999999994,
      "d": 828.125,
      "v": 60
    },
    {
      "midi": 58,
      "hit": false,
      "t": 137999.99999999994,
      "d": 895.833333333343,
      "v": 66
    },
    {
      "midi": 63,
      "hit": false,
      "t": 137999.99999999994,
      "d": 906.25,
      "v": 52
    },
    {
      "midi": 60,
      "hit": false,
      "t": 137999.99999999994,
      "d": 1125,
      "v": 80
    },
    {
      "midi": 48,
      "hit": false,
      "t": 137999.99999999994,
      "d": 1244.791666666686,
      "v": 68
    },
    {
      "midi": 58,
      "hit": false,
      "t": 138999.99999999994,
      "d": 145.83333333334303,
      "v": 35
    },
    {
      "midi": 55,
      "hit": false,
      "t": 138999.99999999994,
      "d": 156.25,
      "v": 62
    },
    {
      "midi": 63,
      "hit": false,
      "t": 138999.99999999994,
      "d": 208.33333333334303,
      "v": 35
    },
    {
      "midi": 48,
      "hit": false,
      "t": 139833.33333333328,
      "d": 239.58333333331393,
      "v": 35
    },
    {
      "midi": 56,
      "hit": false,
      "t": 139999.99999999994,
      "d": 760.416666666657,
      "v": 56
    },
    {
      "midi": 67,
      "hit": false,
      "t": 139999.99999999994,
      "d": 1166.666666666657,
      "v": 38
    },
    {
      "midi": 60,
      "hit": false,
      "t": 139999.99999999994,
      "d": 1229.166666666657,
      "v": 78
    },
    {
      "midi": 63,
      "hit": false,
      "t": 139999.99999999994,
      "d": 1239.583333333314,
      "v": 78
    },
    {
      "midi": 41,
      "hit": false,
      "t": 139999.99999999994,
      "d": 1895.833333333314,
      "v": 68
    },
    {
      "midi": 56,
      "hit": false,
      "t": 140999.99999999994,
      "d": 348.95833333331393,
      "v": 38
    },
    {
      "midi": 46,
      "hit": false,
      "t": 141999.9999999999,
      "d": 802.083333333343,
      "v": 42
    },
    {
      "midi": 56,
      "hit": false,
      "t": 141999.9999999999,
      "d": 1265.625,
      "v": 56
    },
    {
      "midi": 59,
      "hit": false,
      "t": 141999.9999999999,
      "d": 1270.833333333343,
      "v": 88
    },
    {
      "midi": 64,
      "hit": false,
      "t": 141999.9999999999,
      "d": 1364.583333333343,
      "v": 80
    },
    {
      "midi": 46,
      "hit": false,
      "t": 142999.9999999999,
      "d": 572.9166666666861,
      "v": 44
    },
    {
      "midi": 55,
      "hit": false,
      "t": 143999.9999999999,
      "d": 593.75,
      "v": 56
    },
    {
      "midi": 58,
      "hit": false,
      "t": 143999.9999999999,
      "d": 708.333333333343,
      "v": 78
    },
    {
      "midi": 62,
      "hit": false,
      "t": 143999.9999999999,
      "d": 729.1666666666861,
      "v": 56
    },
    {
      "midi": 39,
      "hit": false,
      "t": 143999.9999999999,
      "d": 3385.416666666686,
      "v": 90
    },
    {
      "midi": 58,
      "hit": false,
      "t": 144833.33333333326,
      "d": 125,
      "v": 42
    },
    {
      "midi": 62,
      "hit": false,
      "t": 144833.33333333326,
      "d": 125,
      "v": 42
    },
    {
      "midi": 55,
      "hit": false,
      "t": 145333.33333333326,
      "d": 125,
      "v": 35
    },
    {
      "midi": 55,
      "hit": false,
      "t": 145499.9999999999,
      "d": 208.33333333334303,
      "v": 66
    },
    {
      "midi": 62,
      "hit": false,
      "t": 145499.9999999999,
      "d": 213.54166666668607,
      "v": 74
    },
    {
      "midi": 58,
      "hit": false,
      "t": 145499.9999999999,
      "d": 218.7500000000291,
      "v": 66
    },
    {
      "midi": 55,
      "hit": false,
      "t": 145833.33333333328,
      "d": 125,
      "v": 44
    },
    {
      "midi": 58,
      "hit": false,
      "t": 145833.33333333328,
      "d": 125,
      "v": 60
    },
    {
      "midi": 62,
      "hit": false,
      "t": 145833.33333333328,
      "d": 125,
      "v": 52
    },
    {
      "midi": 55,
      "hit": false,
      "t": 146833.33333333328,
      "d": 125,
      "v": 35
    },
    {
      "midi": 58,
      "hit": false,
      "t": 146999.99999999994,
      "d": 432.29166666665697,
      "v": 56
    },
    {
      "midi": 55,
      "hit": false,
      "t": 146999.99999999994,
      "d": 437.5,
      "v": 70
    },
    {
      "midi": 62,
      "hit": false,
      "t": 146999.99999999994,
      "d": 458.33333333334303,
      "v": 68
    },
    {
      "midi": 39,
      "hit": false,
      "t": 147499.99999999994,
      "d": 250,
      "v": 72
    },
    {
      "midi": 64,
      "hit": false,
      "t": 147999.99999999994,
      "d": 1635.416666666657,
      "v": 80
    },
    {
      "midi": 57,
      "hit": false,
      "t": 147999.99999999994,
      "d": 1750,
      "v": 58
    },
    {
      "midi": 60,
      "hit": false,
      "t": 147999.99999999994,
      "d": 1901.041666666657,
      "v": 88
    },
    {
      "midi": 45,
      "hit": false,
      "t": 147999.99999999994,
      "d": 1994.791666666657,
      "v": 66
    },
    {
      "midi": 58,
      "hit": false,
      "t": 149999.99999999994,
      "d": 1208.333333333343,
      "v": 84
    },
    {
      "midi": 60,
      "hit": false,
      "t": 149999.99999999994,
      "d": 1229.166666666686,
      "v": 84
    },
    {
      "midi": 54,
      "hit": false,
      "t": 149999.99999999994,
      "d": 1239.583333333343,
      "v": 38
    },
    {
      "midi": 63,
      "hit": false,
      "t": 149999.99999999994,
      "d": 1265.625,
      "v": 106
    },
    {
      "midi": 38,
      "hit": false,
      "t": 149999.99999999994,
      "d": 1958.333333333343,
      "v": 56
    },
    {
      "midi": 65,
      "hit": false,
      "t": 151999.99999999994,
      "d": 1427.083333333314,
      "v": 78
    },
    {
      "midi": 62,
      "hit": false,
      "t": 151999.99999999994,
      "d": 1656.249999999971,
      "v": 50
    },
    {
      "midi": 58,
      "hit": false,
      "t": 151999.99999999994,
      "d": 1687.499999999971,
      "v": 48
    },
    {
      "midi": 43,
      "hit": false,
      "t": 151999.99999999994,
      "d": 1953.124999999971,
      "v": 96
    },
    {
      "midi": 69,
      "hit": false,
      "t": 151999.99999999994,
      "d": 3427.083333333314,
      "v": 48
    },
    {
      "midi": 62,
      "hit": false,
      "t": 153999.9999999999,
      "d": 1489.583333333343,
      "v": 66
    },
    {
      "midi": 64,
      "hit": false,
      "t": 153999.9999999999,
      "d": 1500,
      "v": 88
    },
    {
      "midi": 58,
      "hit": false,
      "t": 153999.9999999999,
      "d": 1578.125,
      "v": 56
    },
    {
      "midi": 48,
      "hit": false,
      "t": 153999.9999999999,
      "d": 1802.083333333343,
      "v": 70
    },
    {
      "midi": 67,
      "hit": false,
      "t": 155999.9999999999,
      "d": 1187.5,
      "v": 66
    },
    {
      "midi": 63,
      "hit": false,
      "t": 155999.9999999999,
      "d": 1229.166666666657,
      "v": 44
    },
    {
      "midi": 60,
      "hit": false,
      "t": 155999.9999999999,
      "d": 1250,
      "v": 78
    },
    {
      "midi": 58,
      "hit": false,
      "t": 155999.9999999999,
      "d": 1338.541666666657,
      "v": 35
    },
    {
      "midi": 48,
      "hit": false,
      "t": 155999.9999999999,
      "d": 1937.5,
      "v": 96
    },
    {
      "midi": 62,
      "hit": false,
      "t": 157999.9999999999,
      "d": 755.208333333343,
      "v": 74
    },
    {
      "midi": 53,
      "hit": false,
      "t": 157999.9999999999,
      "d": 916.6666666666861,
      "v": 80
    },
    {
      "midi": 57,
      "hit": false,
      "t": 157999.9999999999,
      "d": 968.7500000000291,
      "v": 62
    },
    {
      "midi": 41,
      "hit": false,
      "t": 157999.9999999999,
      "d": 1989.583333333343,
      "v": 78
    },
    {
      "midi": 57,
      "hit": false,
      "t": 158999.99999999994,
      "d": 546.875,
      "v": 58
    },
    {
      "midi": 63,
      "hit": false,
      "t": 158999.99999999994,
      "d": 588.541666666657,
      "v": 78
    },
    {
      "midi": 53,
      "hit": false,
      "t": 158999.99999999994,
      "d": 828.125,
      "v": 78
    },
    {
      "midi": 53,
      "hit": false,
      "t": 159999.9999999999,
      "d": 796.875,
      "v": 66
    },
    {
      "midi": 56,
      "hit": false,
      "t": 159999.9999999999,
      "d": 1291.666666666657,
      "v": 60
    },
    {
      "midi": 41,
      "hit": false,
      "t": 159999.9999999999,
      "d": 1348.958333333314,
      "v": 78
    },
    {
      "midi": 63,
      "hit": false,
      "t": 159999.9999999999,
      "d": 1416.666666666657,
      "v": 66
    },
    {
      "midi": 60,
      "hit": false,
      "t": 159999.9999999999,
      "d": 1781.25,
      "v": 74
    },
    {
      "midi": 53,
      "hit": false,
      "t": 160999.9999999999,
      "d": 854.166666666657,
      "v": 62
    },
    {
      "midi": 41,
      "hit": false,
      "t": 161499.9999999999,
      "d": 208.33333333334303,
      "v": 44
    },
    {
      "midi": 56,
      "hit": false,
      "t": 161499.9999999999,
      "d": 380.20833333331393,
      "v": 38
    },
    {
      "midi": 60,
      "hit": false,
      "t": 161999.99999999988,
      "d": 640.625,
      "v": 78
    },
    {
      "midi": 56,
      "hit": false,
      "t": 161999.99999999988,
      "d": 645.833333333343,
      "v": 38
    },
    {
      "midi": 53,
      "hit": false,
      "t": 161999.99999999988,
      "d": 651.0416666666861,
      "v": 70
    },
    {
      "midi": 46,
      "hit": false,
      "t": 161999.99999999988,
      "d": 1333.333333333343,
      "v": 60
    },
    {
      "midi": 60,
      "hit": false,
      "t": 162999.9999999999,
      "d": 260.41666666665697,
      "v": 52
    },
    {
      "midi": 56,
      "hit": false,
      "t": 162999.9999999999,
      "d": 291.66666666665697,
      "v": 42
    },
    {
      "midi": 53,
      "hit": false,
      "t": 162999.9999999999,
      "d": 302.08333333331393,
      "v": 52
    },
    {
      "midi": 46,
      "hit": false,
      "t": 163499.99999999988,
      "d": 375,
      "v": 35
    },
    {
      "midi": 56,
      "hit": false,
      "t": 163999.99999999988,
      "d": 1255.208333333314,
      "v": 36
    },
    {
      "midi": 67,
      "hit": false,
      "t": 163999.99999999988,
      "d": 1390.624999999971,
      "v": 50
    },
    {
      "midi": 60,
      "hit": false,
      "t": 163999.99999999988,
      "d": 1697.9166666666279,
      "v": 62
    },
    {
      "midi": 63,
      "hit": false,
      "t": 163999.99999999988,
      "d": 1781.249999999971,
      "v": 78
    },
    {
      "midi": 56,
      "hit": false,
      "t": 165999.99999999985,
      "d": 213.54166666665697,
      "v": 35
    },
    {
      "midi": 75,
      "hit": false,
      "t": 166999.99999999985,
      "d": 125,
      "v": 44
    },
    {
      "midi": 62,
      "hit": false,
      "t": 167999.99999999985,
      "d": 1015.625,
      "v": 60
    },
    {
      "midi": 67,
      "hit": false,
      "t": 167999.99999999985,
      "d": 1062.5,
      "v": 84
    },
    {
      "midi": 71,
      "hit": false,
      "t": 167999.99999999985,
      "d": 1078.125,
      "v": 74
    },
    {
      "midi": 83,
      "hit": false,
      "t": 169499.99999999985,
      "d": 1515.625,
      "v": 84
    },
    {
      "midi": 79,
      "hit": false,
      "t": 169999.99999999985,
      "d": 1057.291666666657,
      "v": 44
    },
    {
      "midi": 62,
      "hit": false,
      "t": 171999.99999999985,
      "d": 932.291666666657,
      "v": 68
    },
    {
      "midi": 67,
      "hit": false,
      "t": 171999.99999999985,
      "d": 979.166666666657,
      "v": 52
    },
    {
      "midi": 70,
      "hit": false,
      "t": 171999.99999999985,
      "d": 989.5833333333139,
      "v": 56
    },
    {
      "midi": 54,
      "hit": false,
      "t": 173999.99999999983,
      "d": 1270.833333333343,
      "v": 52
    },
    {
      "midi": 60,
      "hit": false,
      "t": 173999.99999999983,
      "d": 1281.25,
      "v": 84
    },
    {
      "midi": 65,
      "hit": false,
      "t": 173999.99999999983,
      "d": 1302.083333333343,
      "v": 68
    },
    {
      "midi": 58,
      "hit": false,
      "t": 175999.99999999985,
      "d": 1343.75,
      "v": 52
    },
    {
      "midi": 62,
      "hit": false,
      "t": 175999.99999999985,
      "d": 1557.291666666657,
      "v": 88
    },
    {
      "midi": 67,
      "hit": false,
      "t": 175999.99999999985,
      "d": 2000,
      "v": 62
    },
    {
      "midi": 58,
      "hit": false,
      "t": 177499.99999999985,
      "d": 1010.416666666657,
      "v": 44
    },
    {
      "midi": 62,
      "hit": false,
      "t": 177999.99999999985,
      "d": 932.291666666657,
      "v": 78
    },
    {
      "midi": 62,
      "hit": false,
      "t": 179999.99999999983,
      "d": 1395.833333333343,
      "v": 58
    },
    {
      "midi": 55,
      "hit": false,
      "t": 179999.99999999983,
      "d": 1427.083333333343,
      "v": 60
    },
    {
      "midi": 58,
      "hit": false,
      "t": 179999.99999999983,
      "d": 1473.958333333343,
      "v": 48
    },
    {
      "midi": 54,
      "hit": false,
      "t": 181999.99999999983,
      "d": 864.583333333343,
      "v": 90
    },
    {
      "midi": 62,
      "hit": false,
      "t": 181999.99999999983,
      "d": 885.4166666666861,
      "v": 80
    },
    {
      "midi": 57,
      "hit": false,
      "t": 181999.99999999983,
      "d": 937.5000000000291,
      "v": 88
    },
    {
      "midi": 57,
      "hit": false,
      "t": 182999.99999999985,
      "d": 500,
      "v": 62
    },
    {
      "midi": 54,
      "hit": false,
      "t": 182999.99999999985,
      "d": 604.166666666657,
      "v": 60
    },
    {
      "midi": 61,
      "hit": false,
      "t": 182999.99999999985,
      "d": 671.875,
      "v": 72
    },
    {
      "midi": 53,
      "hit": false,
      "t": 183999.99999999985,
      "d": 572.916666666657,
      "v": 68
    },
    {
      "midi": 56,
      "hit": false,
      "t": 183999.99999999985,
      "d": 588.541666666657,
      "v": 90
    },
    {
      "midi": 60,
      "hit": false,
      "t": 183999.99999999985,
      "d": 609.375,
      "v": 92
    },
    {
      "midi": 84,
      "hit": false,
      "t": 185499.99999999985,
      "d": 1031.25,
      "v": 70
    },
    {
      "midi": 80,
      "hit": false,
      "t": 185999.99999999985,
      "d": 505.20833333334303,
      "v": 52
    },
    {
      "midi": 67,
      "hit": false,
      "t": 187999.99999999985,
      "d": 1677.083333333343,
      "v": 66
    },
    {
      "midi": 56,
      "hit": false,
      "t": 187999.99999999985,
      "d": 1697.916666666686,
      "v": 56
    },
    {
      "midi": 60,
      "hit": false,
      "t": 187999.99999999985,
      "d": 1703.125000000029,
      "v": 68
    },
    {
      "midi": 63,
      "hit": false,
      "t": 187999.99999999985,
      "d": 1723.9583333333721,
      "v": 78
    },
    {
      "midi": 84,
      "hit": false,
      "t": 190999.99999999988,
      "d": 125,
      "v": 46
    },
    {
      "midi": 66,
      "hit": false,
      "t": 191999.99999999988,
      "d": 1093.75,
      "v": 35
    },
    {
      "midi": 62,
      "hit": false,
      "t": 191999.99999999988,
      "d": 1098.958333333343,
      "v": 60
    },
    {
      "midi": 71,
      "hit": false,
      "t": 191999.99999999988,
      "d": 1125,
      "v": 78
    },
    {
      "midi": 95,
      "hit": false,
      "t": 193999.99999999988,
      "d": 140.625,
      "v": 35
    },
    {
      "midi": 62,
      "hit": false,
      "t": 195999.99999999988,
      "d": 2156.25,
      "v": 48
    },
    {
      "midi": 70,
      "hit": false,
      "t": 195999.99999999988,
      "d": 2182.291666666657,
      "v": 60
    },
    {
      "midi": 67,
      "hit": false,
      "t": 195999.99999999988,
      "d": 2192.708333333314,
      "v": 70
    },
    {
      "midi": 74,
      "hit": false,
      "t": 195999.99999999988,
      "d": 2197.916666666657,
      "v": 62
    },
    {
      "midi": 81,
      "hit": false,
      "t": 198999.99999999988,
      "d": 239.58333333334303,
      "v": 35
    }
  ]
}