{
  "jsonPath": "Unknown/Unknown/Mike Leon Grosch/loves-divine.json",
  "path": "Unknown\\Unknown\\Mike Leon Grosch\\Loves Divine.mid",
  "name": "Loves Divine",
  "difficulty": "Advanced",
  "bpm": 100,
  "notes": [
    {
      "midi": 69,
      "hit": false,
      "t": 19200,
      "d": 160,
      "v": 29
    },
    {
      "midi": 73,
      "hit": false,
      "t": 19200,
      "d": 190,
      "v": 43
    },
    {
      "midi": 76,
      "hit": false,
      "t": 19200,
      "d": 190,
      "v": 46
    },
    {
      "midi": 81,
      "hit": false,
      "t": 19200,
      "d": 195,
      "v": 46
    },
    {
      "midi": 57,
      "hit": false,
      "t": 19200,
      "d": 205,
      "v": 33
    },
    {
      "midi": 85,
      "hit": false,
      "t": 19200,
      "d": 245,
      "v": 51
    },
    {
      "midi": 64,
      "hit": false,
      "t": 19200,
      "d": 255,
      "v": 32
    },
    {
      "midi": 57,
      "hit": false,
      "t": 19800,
      "d": 1405,
      "v": 36
    },
    {
      "midi": 69,
      "hit": false,
      "t": 19800,
      "d": 1415,
      "v": 31
    },
    {
      "midi": 81,
      "hit": false,
      "t": 19800,
      "d": 1415,
      "v": 45
    },
    {
      "midi": 76,
      "hit": false,
      "t": 19800,
      "d": 1455,
      "v": 46
    },
    {
      "midi": 73,
      "hit": false,
      "t": 19800,
      "d": 1485,
      "v": 48
    },
    {
      "midi": 85,
      "hit": false,
      "t": 19800,
      "d": 1495,
      "v": 58
    },
    {
      "midi": 64,
      "hit": false,
      "t": 19800,
      "d": 1545,
      "v": 35
    },
    {
      "midi": 76,
      "hit": false,
      "t": 21600,
      "d": 100,
      "v": 57
    },
    {
      "midi": 73,
      "hit": false,
      "t": 21600,
      "d": 120,
      "v": 58
    },
    {
      "midi": 80,
      "hit": false,
      "t": 21600,
      "d": 125,
      "v": 58
    },
    {
      "midi": 56,
      "hit": false,
      "t": 21600,
      "d": 140,
      "v": 49
    },
    {
      "midi": 64,
      "hit": false,
      "t": 21600,
      "d": 165,
      "v": 55
    },
    {
      "midi": 85,
      "hit": false,
      "t": 21600,
      "d": 185,
      "v": 64
    },
    {
      "midi": 56,
      "hit": false,
      "t": 22200,
      "d": 1400,
      "v": 43
    },
    {
      "midi": 64,
      "hit": false,
      "t": 22200,
      "d": 1450,
      "v": 34
    },
    {
      "midi": 83,
      "hit": false,
      "t": 22200,
      "d": 1470,
      "v": 54
    },
    {
      "midi": 76,
      "hit": false,
      "t": 22200,
      "d": 1475,
      "v": 39
    },
    {
      "midi": 80,
      "hit": false,
      "t": 22200,
      "d": 1475,
      "v": 48
    },
    {
      "midi": 73,
      "hit": false,
      "t": 22200,
      "d": 1490,
      "v": 34
    },
    {
      "midi": 61,
      "hit": false,
      "t": 24000,
      "d": 170,
      "v": 37
    },
    {
      "midi": 76,
      "hit": false,
      "t": 24000,
      "d": 175,
      "v": 49
    },
    {
      "midi": 73,
      "hit": false,
      "t": 24000,
      "d": 185,
      "v": 51
    },
    {
      "midi": 54,
      "hit": false,
      "t": 24000,
      "d": 195,
      "v": 37
    },
    {
      "midi": 80,
      "hit": false,
      "t": 24000,
      "d": 225,
      "v": 51
    },
    {
      "midi": 64,
      "hit": false,
      "t": 24000,
      "d": 240,
      "v": 32
    },
    {
      "midi": 73,
      "hit": false,
      "t": 24600,
      "d": 1215,
      "v": 28
    },
    {
      "midi": 76,
      "hit": false,
      "t": 24600,
      "d": 1340,
      "v": 39
    },
    {
      "midi": 81,
      "hit": false,
      "t": 24600,
      "d": 1350,
      "v": 33
    },
    {
      "midi": 61,
      "hit": false,
      "t": 24600,
      "d": 1365,
      "v": 30
    },
    {
      "midi": 78,
      "hit": false,
      "t": 24600,
      "d": 1365,
      "v": 44
    },
    {
      "midi": 54,
      "hit": false,
      "t": 24600,
      "d": 1390,
      "v": 32
    },
    {
      "midi": 64,
      "hit": false,
      "t": 24600,
      "d": 1545,
      "v": 21
    },
    {
      "midi": 61,
      "hit": false,
      "t": 26100,
      "d": 35,
      "v": 60
    },
    {
      "midi": 76,
      "hit": false,
      "t": 26100,
      "d": 45,
      "v": 54
    },
    {
      "midi": 80,
      "hit": false,
      "t": 26100,
      "d": 95,
      "v": 64
    },
    {
      "midi": 54,
      "hit": false,
      "t": 26400,
      "d": 340,
      "v": 32
    },
    {
      "midi": 69,
      "hit": false,
      "t": 26400,
      "d": 355,
      "v": 34
    },
    {
      "midi": 76,
      "hit": false,
      "t": 26400,
      "d": 355,
      "v": 29
    },
    {
      "midi": 61,
      "hit": false,
      "t": 26400,
      "d": 365,
      "v": 45
    },
    {
      "midi": 80,
      "hit": false,
      "t": 26400,
      "d": 420,
      "v": 45
    },
    {
      "midi": 71,
      "hit": false,
      "t": 26850,
      "d": 590,
      "v": 45
    },
    {
      "midi": 81,
      "hit": false,
      "t": 26850,
      "d": 730,
      "v": 54
    },
    {
      "midi": 76,
      "hit": false,
      "t": 26850,
      "d": 740,
      "v": 31
    },
    {
      "midi": 54,
      "hit": false,
      "t": 26850,
      "d": 795,
      "v": 40
    },
    {
      "midi": 61,
      "hit": false,
      "t": 26850,
      "d": 810,
      "v": 51
    },
    {
      "midi": 54,
      "hit": false,
      "t": 27900,
      "d": 330,
      "v": 36
    },
    {
      "midi": 68,
      "hit": false,
      "t": 27900,
      "d": 350,
      "v": 66
    },
    {
      "midi": 76,
      "hit": false,
      "t": 27900,
      "d": 355,
      "v": 55
    },
    {
      "midi": 61,
      "hit": false,
      "t": 27900,
      "d": 365,
      "v": 46
    },
    {
      "midi": 80,
      "hit": false,
      "t": 27900,
      "d": 405,
      "v": 57
    },
    {
      "midi": 69,
      "hit": false,
      "t": 28350,
      "d": 215,
      "v": 54
    },
    {
      "midi": 81,
      "hit": false,
      "t": 28350,
      "d": 225,
      "v": 69
    },
    {
      "midi": 76,
      "hit": false,
      "t": 28350,
      "d": 255,
      "v": 46
    },
    {
      "midi": 54,
      "hit": false,
      "t": 28350,
      "d": 300,
      "v": 35
    },
    {
      "midi": 61,
      "hit": false,
      "t": 28350,
      "d": 305,
      "v": 43
    },
    {
      "midi": 76,
      "hit": false,
      "t": 28650,
      "d": 30,
      "v": 58
    },
    {
      "midi": 71,
      "hit": false,
      "t": 28650,
      "d": 40,
      "v": 63
    },
    {
      "midi": 83,
      "hit": false,
      "t": 28650,
      "d": 65,
      "v": 72
    },
    {
      "midi": 69,
      "hit": false,
      "t": 28800,
      "d": 80,
      "v": 66
    },
    {
      "midi": 76,
      "hit": false,
      "t": 28800,
      "d": 80,
      "v": 75
    },
    {
      "midi": 57,
      "hit": false,
      "t": 28800,
      "d": 90,
      "v": 59
    },
    {
      "midi": 85,
      "hit": false,
      "t": 28800,
      "d": 90,
      "v": 66
    },
    {
      "midi": 64,
      "hit": false,
      "t": 28800,
      "d": 100,
      "v": 42
    },
    {
      "midi": 57,
      "hit": false,
      "t": 29400,
      "d": 760,
      "v": 28
    },
    {
      "midi": 69,
      "hit": false,
      "t": 29400,
      "d": 760,
      "v": 21
    },
    {
      "midi": 76,
      "hit": false,
      "t": 29400,
      "d": 770,
      "v": 48
    },
    {
      "midi": 85,
      "hit": false,
      "t": 29400,
      "d": 805,
      "v": 60
    },
    {
      "midi": 64,
      "hit": false,
      "t": 29400,
      "d": 1050,
      "v": 23
    },
    {
      "midi": 57,
      "hit": false,
      "t": 30300,
      "d": 40,
      "v": 59
    },
    {
      "midi": 69,
      "hit": false,
      "t": 30300,
      "d": 50,
      "v": 57
    },
    {
      "midi": 76,
      "hit": false,
      "t": 30300,
      "d": 85,
      "v": 67
    },
    {
      "midi": 85,
      "hit": false,
      "t": 30300,
      "d": 95,
      "v": 65
    },
    {
      "midi": 57,
      "hit": false,
      "t": 30750,
      "d": 45,
      "v": 67
    },
    {
      "midi": 69,
      "hit": false,
      "t": 30750,
      "d": 50,
      "v": 45
    },
    {
      "midi": 76,
      "hit": false,
      "t": 30750,
      "d": 85,
      "v": 76
    },
    {
      "midi": 85,
      "hit": false,
      "t": 30750,
      "d": 100,
      "v": 79
    },
    {
      "midi": 64,
      "hit": false,
      "t": 30750,
      "d": 195,
      "v": 41
    },
    {
      "midi": 80,
      "hit": false,
      "t": 31200,
      "d": 45,
      "v": 56
    },
    {
      "midi": 83,
      "hit": false,
      "t": 31200,
      "d": 45,
      "v": 53
    },
    {
      "midi": 76,
      "hit": false,
      "t": 31200,
      "d": 65,
      "v": 56
    },
    {
      "midi": 71,
      "hit": false,
      "t": 31200,
      "d": 80,
      "v": 41
    },
    {
      "midi": 56,
      "hit": false,
      "t": 31200,
      "d": 90,
      "v": 51
    },
    {
      "midi": 64,
      "hit": false,
      "t": 31200,
      "d": 185,
      "v": 17
    },
    {
      "midi": 80,
      "hit": false,
      "t": 31800,
      "d": 815,
      "v": 56
    },
    {
      "midi": 76,
      "hit": false,
      "t": 31800,
      "d": 830,
      "v": 53
    },
    {
      "midi": 83,
      "hit": false,
      "t": 31800,
      "d": 830,
      "v": 56
    },
    {
      "midi": 71,
      "hit": false,
      "t": 31800,
      "d": 835,
      "v": 42
    },
    {
      "midi": 56,
      "hit": false,
      "t": 31800,
      "d": 845,
      "v": 47
    },
    {
      "midi": 64,
      "hit": false,
      "t": 31800,
      "d": 1655,
      "v": 24
    },
    {
      "midi": 71,
      "hit": false,
      "t": 32700,
      "d": 445,
      "v": 39
    },
    {
      "midi": 56,
      "hit": false,
      "t": 32700,
      "d": 480,
      "v": 60
    },
    {
      "midi": 76,
      "hit": false,
      "t": 32700,
      "d": 605,
      "v": 51
    },
    {
      "midi": 83,
      "hit": false,
      "t": 32700,
      "d": 630,
      "v": 56
    },
    {
      "midi": 80,
      "hit": false,
      "t": 32700,
      "d": 645,
      "v": 50
    },
    {
      "midi": 80,
      "hit": false,
      "t": 33600,
      "d": 90,
      "v": 65
    },
    {
      "midi": 76,
      "hit": false,
      "t": 33600,
      "d": 95,
      "v": 57
    },
    {
      "midi": 83,
      "hit": false,
      "t": 33600,
      "d": 95,
      "v": 66
    },
    {
      "midi": 69,
      "hit": false,
      "t": 33600,
      "d": 115,
      "v": 32
    },
    {
      "midi": 54,
      "hit": false,
      "t": 33600,
      "d": 150,
      "v": 51
    },
    {
      "midi": 64,
      "hit": false,
      "t": 33600,
      "d": 185,
      "v": 19
    },
    {
      "midi": 81,
      "hit": false,
      "t": 34200,
      "d": 820,
      "v": 53
    },
    {
      "midi": 76,
      "hit": false,
      "t": 34200,
      "d": 845,
      "v": 54
    },
    {
      "midi": 85,
      "hit": false,
      "t": 34200,
      "d": 850,
      "v": 53
    },
    {
      "midi": 69,
      "hit": false,
      "t": 34200,
      "d": 865,
      "v": 28
    },
    {
      "midi": 54,
      "hit": false,
      "t": 34200,
      "d": 880,
      "v": 47
    },
    {
      "midi": 64,
      "hit": false,
      "t": 34200,
      "d": 925,
      "v": 39
    },
    {
      "midi": 61,
      "hit": false,
      "t": 35700,
      "d": 35,
      "v": 60
    },
    {
      "midi": 76,
      "hit": false,
      "t": 35700,
      "d": 45,
      "v": 54
    },
    {
      "midi": 80,
      "hit": false,
      "t": 35700,
      "d": 95,
      "v": 64
    },
    {
      "midi": 54,
      "hit": false,
      "t": 36000,
      "d": 340,
      "v": 32
    },
    {
      "midi": 69,
      "hit": false,
      "t": 36000,
      "d": 355,
      "v": 34
    },
    {
      "midi": 76,
      "hit": false,
      "t": 36000,
      "d": 355,
      "v": 29
    },
    {
      "midi": 61,
      "hit": false,
      "t": 36000,
      "d": 365,
      "v": 45
    },
    {
      "midi": 80,
      "hit": false,
      "t": 36000,
      "d": 420,
      "v": 45
    },
    {
      "midi": 71,
      "hit": false,
      "t": 36450,
      "d": 590,
      "v": 45
    },
    {
      "midi": 81,
      "hit": false,
      "t": 36450,
      "d": 730,
      "v": 54
    },
    {
      "midi": 76,
      "hit": false,
      "t": 36450,
      "d": 740,
      "v": 31
    },
    {
      "midi": 54,
      "hit": false,
      "t": 36450,
      "d": 795,
      "v": 40
    },
    {
      "midi": 61,
      "hit": false,
      "t": 36450,
      "d": 810,
      "v": 51
    },
    {
      "midi": 54,
      "hit": false,
      "t": 37500,
      "d": 330,
      "v": 36
    },
    {
      "midi": 68,
      "hit": false,
      "t": 37500,
      "d": 350,
      "v": 66
    },
    {
      "midi": 76,
      "hit": false,
      "t": 37500,
      "d": 355,
      "v": 55
    },
    {
      "midi": 61,
      "hit": false,
      "t": 37500,
      "d": 365,
      "v": 46
    },
    {
      "midi": 80,
      "hit": false,
      "t": 37500,
      "d": 405,
      "v": 57
    },
    {
      "midi": 69,
      "hit": false,
      "t": 37950,
      "d": 215,
      "v": 54
    },
    {
      "midi": 81,
      "hit": false,
      "t": 37950,
      "d": 225,
      "v": 69
    },
    {
      "midi": 76,
      "hit": false,
      "t": 37950,
      "d": 255,
      "v": 46
    },
    {
      "midi": 54,
      "hit": false,
      "t": 37950,
      "d": 300,
      "v": 35
    },
    {
      "midi": 61,
      "hit": false,
      "t": 37950,
      "d": 305,
      "v": 43
    },
    {
      "midi": 76,
      "hit": false,
      "t": 38250,
      "d": 30,
      "v": 58
    },
    {
      "midi": 71,
      "hit": false,
      "t": 38250,
      "d": 40,
      "v": 63
    },
    {
      "midi": 83,
      "hit": false,
      "t": 38250,
      "d": 65,
      "v": 72
    },
    {
      "midi": 69,
      "hit": false,
      "t": 38400,
      "d": 80,
      "v": 66
    },
    {
      "midi": 76,
      "hit": false,
      "t": 38400,
      "d": 80,
      "v": 75
    },
    {
      "midi": 57,
      "hit": false,
      "t": 38400,
      "d": 90,
      "v": 59
    },
    {
      "midi": 85,
      "hit": false,
      "t": 38400,
      "d": 90,
      "v": 66
    },
    {
      "midi": 64,
      "hit": false,
      "t": 38400,
      "d": 100,
      "v": 42
    },
    {
      "midi": 57,
      "hit": false,
      "t": 39000,
      "d": 760,
      "v": 28
    },
    {
      "midi": 69,
      "hit": false,
      "t": 39000,
      "d": 760,
      "v": 21
    },
    {
      "midi": 76,
      "hit": false,
      "t": 39000,
      "d": 770,
      "v": 48
    },
    {
      "midi": 85,
      "hit": false,
      "t": 39000,
      "d": 805,
      "v": 60
    },
    {
      "midi": 64,
      "hit": false,
      "t": 39000,
      "d": 1050,
      "v": 23
    },
    {
      "midi": 57,
      "hit": false,
      "t": 39900,
      "d": 40,
      "v": 59
    },
    {
      "midi": 69,
      "hit": false,
      "t": 39900,
      "d": 50,
      "v": 57
    },
    {
      "midi": 76,
      "hit": false,
      "t": 39900,
      "d": 85,
      "v": 67
    },
    {
      "midi": 85,
      "hit": false,
      "t": 39900,
      "d": 95,
      "v": 65
    },
    {
      "midi": 57,
      "hit": false,
      "t": 40350,
      "d": 45,
      "v": 67
    },
    {
      "midi": 69,
      "hit": false,
      "t": 40350,
      "d": 50,
      "v": 45
    },
    {
      "midi": 76,
      "hit": false,
      "t": 40350,
      "d": 85,
      "v": 76
    },
    {
      "midi": 85,
      "hit": false,
      "t": 40350,
      "d": 100,
      "v": 79
    },
    {
      "midi": 64,
      "hit": false,
      "t": 40350,
      "d": 195,
      "v": 41
    },
    {
      "midi": 80,
      "hit": false,
      "t": 40800,
      "d": 45,
      "v": 56
    },
    {
      "midi": 83,
      "hit": false,
      "t": 40800,
      "d": 45,
      "v": 53
    },
    {
      "midi": 76,
      "hit": false,
      "t": 40800,
      "d": 65,
      "v": 56
    },
    {
      "midi": 71,
      "hit": false,
      "t": 40800,
      "d": 80,
      "v": 41
    },
    {
      "midi": 56,
      "hit": false,
      "t": 40800,
      "d": 90,
      "v": 51
    },
    {
      "midi": 64,
      "hit": false,
      "t": 40800,
      "d": 185,
      "v": 17
    },
    {
      "midi": 80,
      "hit": false,
      "t": 41400,
      "d": 815,
      "v": 56
    },
    {
      "midi": 76,
      "hit": false,
      "t": 41400,
      "d": 830,
      "v": 53
    },
    {
      "midi": 83,
      "hit": false,
      "t": 41400,
      "d": 830,
      "v": 56
    },
    {
      "midi": 71,
      "hit": false,
      "t": 41400,
      "d": 835,
      "v": 42
    },
    {
      "midi": 56,
      "hit": false,
      "t": 41400,
      "d": 845,
      "v": 47
    },
    {
      "midi": 64,
      "hit": false,
      "t": 41400,
      "d": 1655,
      "v": 24
    },
    {
      "midi": 71,
      "hit": false,
      "t": 42300,
      "d": 445,
      "v": 39
    },
    {
      "midi": 56,
      "hit": false,
      "t": 42300,
      "d": 480,
      "v": 60
    },
    {
      "midi": 76,
      "hit": false,
      "t": 42300,
      "d": 605,
      "v": 51
    },
    {
      "midi": 83,
      "hit": false,
      "t": 42300,
      "d": 630,
      "v": 56
    },
    {
      "midi": 80,
      "hit": false,
      "t": 42300,
      "d": 645,
      "v": 50
    },
    {
      "midi": 80,
      "hit": false,
      "t": 43200,
      "d": 90,
      "v": 65
    },
    {
      "midi": 76,
      "hit": false,
      "t": 43200,
      "d": 95,
      "v": 57
    },
    {
      "midi": 83,
      "hit": false,
      "t": 43200,
      "d": 95,
      "v": 66
    },
    {
      "midi": 69,
      "hit": false,
      "t": 43200,
      "d": 115,
      "v": 32
    },
    {
      "midi": 54,
      "hit": false,
      "t": 43200,
      "d": 150,
      "v": 51
    },
    {
      "midi": 64,
      "hit": false,
      "t": 43200,
      "d": 185,
      "v": 19
    },
    {
      "midi": 81,
      "hit": false,
      "t": 43800,
      "d": 820,
      "v": 53
    },
    {
      "midi": 76,
      "hit": false,
      "t": 43800,
      "d": 845,
      "v": 54
    },
    {
      "midi": 85,
      "hit": false,
      "t": 43800,
      "d": 850,
      "v": 53
    },
    {
      "midi": 69,
      "hit": false,
      "t": 43800,
      "d": 865,
      "v": 28
    },
    {
      "midi": 54,
      "hit": false,
      "t": 43800,
      "d": 880,
      "v": 47
    },
    {
      "midi": 64,
      "hit": false,
      "t": 43800,
      "d": 925,
      "v": 39
    },
    {
      "midi": 61,
      "hit": false,
      "t": 45300,
      "d": 35,
      "v": 60
    },
    {
      "midi": 76,
      "hit": false,
      "t": 45300,
      "d": 45,
      "v": 54
    },
    {
      "midi": 80,
      "hit": false,
      "t": 45300,
      "d": 95,
      "v": 64
    },
    {
      "midi": 54,
      "hit": false,
      "t": 45600,
      "d": 340,
      "v": 32
    },
    {
      "midi": 69,
      "hit": false,
      "t": 45600,
      "d": 355,
      "v": 34
    },
    {
      "midi": 76,
      "hit": false,
      "t": 45600,
      "d": 355,
      "v": 29
    },
    {
      "midi": 61,
      "hit": false,
      "t": 45600,
      "d": 365,
      "v": 45
    },
    {
      "midi": 80,
      "hit": false,
      "t": 45600,
      "d": 420,
      "v": 45
    },
    {
      "midi": 71,
      "hit": false,
      "t": 46050,
      "d": 590,
      "v": 45
    },
    {
      "midi": 81,
      "hit": false,
      "t": 46050,
      "d": 730,
      "v": 54
    },
    {
      "midi": 76,
      "hit": false,
      "t": 46050,
      "d": 740,
      "v": 31
    },
    {
      "midi": 54,
      "hit": false,
      "t": 46050,
      "d": 795,
      "v": 40
    },
    {
      "midi": 61,
      "hit": false,
      "t": 46050,
      "d": 810,
      "v": 51
    },
    {
      "midi": 54,
      "hit": false,
      "t": 47100,
      "d": 330,
      "v": 36
    },
    {
      "midi": 68,
      "hit": false,
      "t": 47100,
      "d": 350,
      "v": 66
    },
    {
      "midi": 76,
      "hit": false,
      "t": 47100,
      "d": 355,
      "v": 55
    },
    {
      "midi": 61,
      "hit": false,
      "t": 47100,
      "d": 365,
      "v": 46
    },
    {
      "midi": 80,
      "hit": false,
      "t": 47100,
      "d": 405,
      "v": 57
    },
    {
      "midi": 69,
      "hit": false,
      "t": 47550,
      "d": 215,
      "v": 54
    },
    {
      "midi": 81,
      "hit": false,
      "t": 47550,
      "d": 225,
      "v": 69
    },
    {
      "midi": 76,
      "hit": false,
      "t": 47550,
      "d": 255,
      "v": 46
    },
    {
      "midi": 54,
      "hit": false,
      "t": 47550,
      "d": 300,
      "v": 35
    },
    {
      "midi": 61,
      "hit": false,
      "t": 47550,
      "d": 305,
      "v": 43
    },
    {
      "midi": 76,
      "hit": false,
      "t": 47850,
      "d": 30,
      "v": 58
    },
    {
      "midi": 71,
      "hit": false,
      "t": 47850,
      "d": 40,
      "v": 63
    },
    {
      "midi": 83,
      "hit": false,
      "t": 47850,
      "d": 65,
      "v": 72
    },
    {
      "midi": 69,
      "hit": false,
      "t": 48000,
      "d": 80,
      "v": 66
    },
    {
      "midi": 76,
      "hit": false,
      "t": 48000,
      "d": 80,
      "v": 75
    },
    {
      "midi": 57,
      "hit": false,
      "t": 48000,
      "d": 90,
      "v": 59
    },
    {
      "midi": 85,
      "hit": false,
      "t": 48000,
      "d": 90,
      "v": 66
    },
    {
      "midi": 64,
      "hit": false,
      "t": 48000,
      "d": 100,
      "v": 42
    },
    {
      "midi": 57,
      "hit": false,
      "t": 48600,
      "d": 760,
      "v": 28
    },
    {
      "midi": 69,
      "hit": false,
      "t": 48600,
      "d": 760,
      "v": 21
    },
    {
      "midi": 76,
      "hit": false,
      "t": 48600,
      "d": 770,
      "v": 48
    },
    {
      "midi": 85,
      "hit": false,
      "t": 48600,
      "d": 805,
      "v": 60
    },
    {
      "midi": 64,
      "hit": false,
      "t": 48600,
      "d": 1050,
      "v": 23
    },
    {
      "midi": 57,
      "hit": false,
      "t": 49500,
      "d": 40,
      "v": 59
    },
    {
      "midi": 69,
      "hit": false,
      "t": 49500,
      "d": 50,
      "v": 57
    },
    {
      "midi": 76,
      "hit": false,
      "t": 49500,
      "d": 85,
      "v": 67
    },
    {
      "midi": 85,
      "hit": false,
      "t": 49500,
      "d": 95,
      "v": 65
    },
    {
      "midi": 57,
      "hit": false,
      "t": 49950,
      "d": 45,
      "v": 67
    },
    {
      "midi": 69,
      "hit": false,
      "t": 49950,
      "d": 50,
      "v": 45
    },
    {
      "midi": 76,
      "hit": false,
      "t": 49950,
      "d": 85,
      "v": 76
    },
    {
      "midi": 85,
      "hit": false,
      "t": 49950,
      "d": 100,
      "v": 79
    },
    {
      "midi": 64,
      "hit": false,
      "t": 49950,
      "d": 195,
      "v": 41
    },
    {
      "midi": 80,
      "hit": false,
      "t": 50400,
      "d": 45,
      "v": 56
    },
    {
      "midi": 83,
      "hit": false,
      "t": 50400,
      "d": 45,
      "v": 53
    },
    {
      "midi": 76,
      "hit": false,
      "t": 50400,
      "d": 65,
      "v": 56
    },
    {
      "midi": 71,
      "hit": false,
      "t": 50400,
      "d": 80,
      "v": 41
    },
    {
      "midi": 56,
      "hit": false,
      "t": 50400,
      "d": 90,
      "v": 51
    },
    {
      "midi": 64,
      "hit": false,
      "t": 50400,
      "d": 185,
      "v": 17
    },
    {
      "midi": 80,
      "hit": false,
      "t": 51000,
      "d": 815,
      "v": 56
    },
    {
      "midi": 76,
      "hit": false,
      "t": 51000,
      "d": 830,
      "v": 53
    },
    {
      "midi": 83,
      "hit": false,
      "t": 51000,
      "d": 830,
      "v": 56
    },
    {
      "midi": 71,
      "hit": false,
      "t": 51000,
      "d": 835,
      "v": 42
    },
    {
      "midi": 56,
      "hit": false,
      "t": 51000,
      "d": 845,
      "v": 47
    },
    {
      "midi": 64,
      "hit": false,
      "t": 51000,
      "d": 1655,
      "v": 24
    },
    {
      "midi": 71,
      "hit": false,
      "t": 51900,
      "d": 445,
      "v": 39
    },
    {
      "midi": 56,
      "hit": false,
      "t": 51900,
      "d": 480,
      "v": 60
    },
    {
      "midi": 76,
      "hit": false,
      "t": 51900,
      "d": 605,
      "v": 51
    },
    {
      "midi": 83,
      "hit": false,
      "t": 51900,
      "d": 630,
      "v": 56
    },
    {
      "midi": 80,
      "hit": false,
      "t": 51900,
      "d": 645,
      "v": 50
    },
    {
      "midi": 69,
      "hit": false,
      "t": 52800,
      "d": 4500,
      "v": 97
    },
    {
      "midi": 42,
      "hit": false,
      "t": 52800,
      "d": 4505,
      "v": 88
    },
    {
      "midi": 57,
      "hit": false,
      "t": 53400,
      "d": 295,
      "v": 81
    },
    {
      "midi": 61,
      "hit": false,
      "t": 53700,
      "d": 1205,
      "v": 90
    },
    {
      "midi": 56,
      "hit": false,
      "t": 54900,
      "d": 315,
      "v": 78
    },
    {
      "midi": 57,
      "hit": false,
      "t": 55200,
      "d": 1480,
      "v": 88
    },
    {
      "midi": 61,
      "hit": false,
      "t": 56100,
      "d": 370,
      "v": 77
    },
    {
      "midi": 64,
      "hit": false,
      "t": 56400,
      "d": 1395,
      "v": 74
    },
    {
      "midi": 57,
      "hit": false,
      "t": 57000,
      "d": 310,
      "v": 80
    },
    {
      "midi": 66,
      "hit": false,
      "t": 57600,
      "d": 855,
      "v": 82
    },
    {
      "midi": 61,
      "hit": false,
      "t": 57600,
      "d": 870,
      "v": 91
    },
    {
      "midi": 35,
      "hit": false,
      "t": 57600,
      "d": 1965,
      "v": 76
    },
    {
      "midi": 47,
      "hit": false,
      "t": 57600,
      "d": 2060,
      "v": 74
    },
    {
      "midi": 59,
      "hit": false,
      "t": 57600,
      "d": 2155,
      "v": 88
    },
    {
      "midi": 62,
      "hit": false,
      "t": 58500,
      "d": 1210,
      "v": 78
    },
    {
      "midi": 66,
      "hit": false,
      "t": 58500,
      "d": 1365,
      "v": 82
    },
    {
      "midi": 57,
      "hit": false,
      "t": 60000,
      "d": 1325,
      "v": 76
    },
    {
      "midi": 61,
      "hit": false,
      "t": 60000,
      "d": 1525,
      "v": 80
    },
    {
      "midi": 69,
      "hit": false,
      "t": 60000,
      "d": 1805,
      "v": 76
    },
    {
      "midi": 66,
      "hit": false,
      "t": 60000,
      "d": 1840,
      "v": 60
    },
    {
      "midi": 42,
      "hit": false,
      "t": 60000,
      "d": 1855,
      "v": 74
    },
    {
      "midi": 59,
      "hit": false,
      "t": 61500,
      "d": 2870,
      "v": 98
    },
    {
      "midi": 61,
      "hit": false,
      "t": 61800,
      "d": 320,
      "v": 95
    },
    {
      "midi": 66,
      "hit": false,
      "t": 62100,
      "d": 120,
      "v": 88
    },
    {
      "midi": 71,
      "hit": false,
      "t": 62400,
      "d": 1980,
      "v": 95
    },
    {
      "midi": 44,
      "hit": false,
      "t": 62400,
      "d": 1990,
      "v": 80
    },
    {
      "midi": 64,
      "hit": false,
      "t": 62400,
      "d": 2020,
      "v": 95
    },
    {
      "midi": 52,
      "hit": false,
      "t": 62400,
      "d": 2030,
      "v": 85
    },
    {
      "midi": 64,
      "hit": false,
      "t": 64800,
      "d": 785,
      "v": 82
    },
    {
      "midi": 73,
      "hit": false,
      "t": 64800,
      "d": 795,
      "v": 91
    },
    {
      "midi": 57,
      "hit": false,
      "t": 64800,
      "d": 2190,
      "v": 54
    },
    {
      "midi": 45,
      "hit": false,
      "t": 64800,
      "d": 2205,
      "v": 64
    },
    {
      "midi": 52,
      "hit": false,
      "t": 64800,
      "d": 2240,
      "v": 61
    },
    {
      "midi": 73,
      "hit": false,
      "t": 65700,
      "d": 920,
      "v": 88
    },
    {
      "midi": 64,
      "hit": false,
      "t": 65700,
      "d": 1305,
      "v": 78
    },
    {
      "midi": 69,
      "hit": false,
      "t": 66600,
      "d": 345,
      "v": 62
    },
    {
      "midi": 61,
      "hit": false,
      "t": 66600,
      "d": 375,
      "v": 63
    },
    {
      "midi": 50,
      "hit": false,
      "t": 67200,
      "d": 1215,
      "v": 65
    },
    {
      "midi": 66,
      "hit": false,
      "t": 67200,
      "d": 2145,
      "v": 73
    },
    {
      "midi": 57,
      "hit": false,
      "t": 67200,
      "d": 2185,
      "v": 60
    },
    {
      "midi": 64,
      "hit": false,
      "t": 67200,
      "d": 2195,
      "v": 68
    },
    {
      "midi": 69,
      "hit": false,
      "t": 67200,
      "d": 2240,
      "v": 71
    },
    {
      "midi": 49,
      "hit": false,
      "t": 68400,
      "d": 1065,
      "v": 78
    },
    {
      "midi": 47,
      "hit": false,
      "t": 69600,
      "d": 850,
      "v": 71
    },
    {
      "midi": 69,
      "hit": false,
      "t": 69600,
      "d": 1070,
      "v": 62
    },
    {
      "midi": 66,
      "hit": false,
      "t": 69600,
      "d": 1130,
      "v": 80
    },
    {
      "midi": 57,
      "hit": false,
      "t": 69600,
      "d": 1910,
      "v": 61
    },
    {
      "midi": 54,
      "hit": false,
      "t": 69600,
      "d": 1915,
      "v": 71
    },
    {
      "midi": 62,
      "hit": false,
      "t": 69600,
      "d": 1980,
      "v": 74
    },
    {
      "midi": 71,
      "hit": false,
      "t": 70800,
      "d": 680,
      "v": 71
    },
    {
      "midi": 66,
      "hit": false,
      "t": 70800,
      "d": 685,
      "v": 61
    },
    {
      "midi": 45,
      "hit": false,
      "t": 70800,
      "d": 735,
      "v": 68
    },
    {
      "midi": 62,
      "hit": false,
      "t": 72000,
      "d": 4215,
      "v": 71
    },
    {
      "midi": 66,
      "hit": false,
      "t": 72000,
      "d": 4255,
      "v": 62
    },
    {
      "midi": 55,
      "hit": false,
      "t": 72000,
      "d": 4270,
      "v": 71
    },
    {
      "midi": 71,
      "hit": false,
      "t": 72000,
      "d": 4300,
      "v": 76
    },
    {
      "midi": 43,
      "hit": false,
      "t": 72000,
      "d": 4305,
      "v": 76
    },
    {
      "midi": 50,
      "hit": false,
      "t": 72000,
      "d": 4305,
      "v": 73
    },
    {
      "midi": 69,
      "hit": false,
      "t": 76800,
      "d": 160,
      "v": 29
    },
    {
      "midi": 73,
      "hit": false,
      "t": 76800,
      "d": 190,
      "v": 43
    },
    {
      "midi": 76,
      "hit": false,
      "t": 76800,
      "d": 190,
      "v": 46
    },
    {
      "midi": 81,
      "hit": false,
      "t": 76800,
      "d": 195,
      "v": 46
    },
    {
      "midi": 57,
      "hit": false,
      "t": 76800,
      "d": 205,
      "v": 33
    },
    {
      "midi": 85,
      "hit": false,
      "t": 76800,
      "d": 245,
      "v": 51
    },
    {
      "midi": 64,
      "hit": false,
      "t": 76800,
      "d": 255,
      "v": 32
    },
    {
      "midi": 57,
      "hit": false,
      "t": 77400,
      "d": 1405,
      "v": 36
    },
    {
      "midi": 69,
      "hit": false,
      "t": 77400,
      "d": 1415,
      "v": 31
    },
    {
      "midi": 81,
      "hit": false,
      "t": 77400,
      "d": 1415,
      "v": 45
    },
    {
      "midi": 76,
      "hit": false,
      "t": 77400,
      "d": 1455,
      "v": 46
    },
    {
      "midi": 73,
      "hit": false,
      "t": 77400,
      "d": 1485,
      "v": 48
    },
    {
      "midi": 85,
      "hit": false,
      "t": 77400,
      "d": 1495,
      "v": 58
    },
    {
      "midi": 64,
      "hit": false,
      "t": 77400,
      "d": 1545,
      "v": 35
    },
    {
      "midi": 76,
      "hit": false,
      "t": 79200,
      "d": 100,
      "v": 57
    },
    {
      "midi": 73,
      "hit": false,
      "t": 79200,
      "d": 120,
      "v": 58
    },
    {
      "midi": 80,
      "hit": false,
      "t": 79200,
      "d": 125,
      "v": 58
    },
    {
      "midi": 56,
      "hit": false,
      "t": 79200,
      "d": 140,
      "v": 49
    },
    {
      "midi": 64,
      "hit": false,
      "t": 79200,
      "d": 165,
      "v": 55
    },
    {
      "midi": 85,
      "hit": false,
      "t": 79200,
      "d": 185,
      "v": 64
    },
    {
      "midi": 56,
      "hit": false,
      "t": 79800,
      "d": 1400,
      "v": 43
    },
    {
      "midi": 64,
      "hit": false,
      "t": 79800,
      "d": 1450,
      "v": 34
    },
    {
      "midi": 83,
      "hit": false,
      "t": 79800,
      "d": 1470,
      "v": 54
    },
    {
      "midi": 76,
      "hit": false,
      "t": 79800,
      "d": 1475,
      "v": 39
    },
    {
      "midi": 80,
      "hit": false,
      "t": 79800,
      "d": 1475,
      "v": 48
    },
    {
      "midi": 73,
      "hit": false,
      "t": 79800,
      "d": 1490,
      "v": 34
    },
    {
      "midi": 61,
      "hit": false,
      "t": 81600,
      "d": 170,
      "v": 37
    },
    {
      "midi": 76,
      "hit": false,
      "t": 81600,
      "d": 175,
      "v": 49
    },
    {
      "midi": 73,
      "hit": false,
      "t": 81600,
      "d": 185,
      "v": 51
    },
    {
      "midi": 54,
      "hit": false,
      "t": 81600,
      "d": 195,
      "v": 37
    },
    {
      "midi": 80,
      "hit": false,
      "t": 81600,
      "d": 225,
      "v": 51
    },
    {
      "midi": 64,
      "hit": false,
      "t": 81600,
      "d": 240,
      "v": 32
    },
    {
      "midi": 73,
      "hit": false,
      "t": 82200,
      "d": 1215,
      "v": 28
    },
    {
      "midi": 76,
      "hit": false,
      "t": 82200,
      "d": 1340,
      "v": 39
    },
    {
      "midi": 81,
      "hit": false,
      "t": 82200,
      "d": 1350,
      "v": 33
    },
    {
      "midi": 61,
      "hit": false,
      "t": 82200,
      "d": 1365,
      "v": 30
    },
    {
      "midi": 78,
      "hit": false,
      "t": 82200,
      "d": 1365,
      "v": 44
    },
    {
      "midi": 54,
      "hit": false,
      "t": 82200,
      "d": 1390,
      "v": 32
    },
    {
      "midi": 64,
      "hit": false,
      "t": 82200,
      "d": 1545,
      "v": 21
    },
    {
      "midi": 61,
      "hit": false,
      "t": 83700,
      "d": 35,
      "v": 60
    },
    {
      "midi": 76,
      "hit": false,
      "t": 83700,
      "d": 45,
      "v": 54
    },
    {
      "midi": 80,
      "hit": false,
      "t": 83700,
      "d": 95,
      "v": 64
    },
    {
      "midi": 54,
      "hit": false,
      "t": 84000,
      "d": 340,
      "v": 32
    },
    {
      "midi": 69,
      "hit": false,
      "t": 84000,
      "d": 355,
      "v": 34
    },
    {
      "midi": 76,
      "hit": false,
      "t": 84000,
      "d": 355,
      "v": 29
    },
    {
      "midi": 61,
      "hit": false,
      "t": 84000,
      "d": 365,
      "v": 45
    },
    {
      "midi": 80,
      "hit": false,
      "t": 84000,
      "d": 420,
      "v": 45
    },
    {
      "midi": 71,
      "hit": false,
      "t": 84450,
      "d": 590,
      "v": 45
    },
    {
      "midi": 81,
      "hit": false,
      "t": 84450,
      "d": 730,
      "v": 54
    },
    {
      "midi": 76,
      "hit": false,
      "t": 84450,
      "d": 740,
      "v": 31
    },
    {
      "midi": 54,
      "hit": false,
      "t": 84450,
      "d": 795,
      "v": 40
    },
    {
      "midi": 61,
      "hit": false,
      "t": 84450,
      "d": 810,
      "v": 51
    },
    {
      "midi": 54,
      "hit": false,
      "t": 85500,
      "d": 330,
      "v": 36
    },
    {
      "midi": 68,
      "hit": false,
      "t": 85500,
      "d": 350,
      "v": 66
    },
    {
      "midi": 76,
      "hit": false,
      "t": 85500,
      "d": 355,
      "v": 55
    },
    {
      "midi": 61,
      "hit": false,
      "t": 85500,
      "d": 365,
      "v": 46
    },
    {
      "midi": 80,
      "hit": false,
      "t": 85500,
      "d": 405,
      "v": 57
    },
    {
      "midi": 69,
      "hit": false,
      "t": 85950,
      "d": 215,
      "v": 54
    },
    {
      "midi": 81,
      "hit": false,
      "t": 85950,
      "d": 225,
      "v": 69
    },
    {
      "midi": 76,
      "hit": false,
      "t": 85950,
      "d": 255,
      "v": 46
    },
    {
      "midi": 54,
      "hit": false,
      "t": 85950,
      "d": 300,
      "v": 35
    },
    {
      "midi": 61,
      "hit": false,
      "t": 85950,
      "d": 305,
      "v": 43
    },
    {
      "midi": 76,
      "hit": false,
      "t": 86250,
      "d": 30,
      "v": 58
    },
    {
      "midi": 71,
      "hit": false,
      "t": 86250,
      "d": 40,
      "v": 63
    },
    {
      "midi": 83,
      "hit": false,
      "t": 86250,
      "d": 65,
      "v": 72
    },
    {
      "midi": 69,
      "hit": false,
      "t": 86400,
      "d": 80,
      "v": 66
    },
    {
      "midi": 76,
      "hit": false,
      "t": 86400,
      "d": 80,
      "v": 75
    },
    {
      "midi": 57,
      "hit": false,
      "t": 86400,
      "d": 90,
      "v": 59
    },
    {
      "midi": 85,
      "hit": false,
      "t": 86400,
      "d": 90,
      "v": 66
    },
    {
      "midi": 64,
      "hit": false,
      "t": 86400,
      "d": 100,
      "v": 42
    },
    {
      "midi": 57,
      "hit": false,
      "t": 87000,
      "d": 760,
      "v": 28
    },
    {
      "midi": 69,
      "hit": false,
      "t": 87000,
      "d": 760,
      "v": 21
    },
    {
      "midi": 76,
      "hit": false,
      "t": 87000,
      "d": 770,
      "v": 48
    },
    {
      "midi": 85,
      "hit": false,
      "t": 87000,
      "d": 805,
      "v": 60
    },
    {
      "midi": 64,
      "hit": false,
      "t": 87000,
      "d": 1050,
      "v": 23
    },
    {
      "midi": 57,
      "hit": false,
      "t": 87900,
      "d": 40,
      "v": 59
    },
    {
      "midi": 69,
      "hit": false,
      "t": 87900,
      "d": 50,
      "v": 57
    },
    {
      "midi": 76,
      "hit": false,
      "t": 87900,
      "d": 85,
      "v": 67
    },
    {
      "midi": 85,
      "hit": false,
      "t": 87900,
      "d": 95,
      "v": 65
    },
    {
      "midi": 57,
      "hit": false,
      "t": 88350,
      "d": 45,
      "v": 67
    },
    {
      "midi": 69,
      "hit": false,
      "t": 88350,
      "d": 50,
      "v": 45
    },
    {
      "midi": 76,
      "hit": false,
      "t": 88350,
      "d": 85,
      "v": 76
    },
    {
      "midi": 85,
      "hit": false,
      "t": 88350,
      "d": 100,
      "v": 79
    },
    {
      "midi": 64,
      "hit": false,
      "t": 88350,
      "d": 195,
      "v": 41
    },
    {
      "midi": 80,
      "hit": false,
      "t": 88800,
      "d": 45,
      "v": 56
    },
    {
      "midi": 83,
      "hit": false,
      "t": 88800,
      "d": 45,
      "v": 53
    },
    {
      "midi": 76,
      "hit": false,
      "t": 88800,
      "d": 65,
      "v": 56
    },
    {
      "midi": 71,
      "hit": false,
      "t": 88800,
      "d": 80,
      "v": 41
    },
    {
      "midi": 56,
      "hit": false,
      "t": 88800,
      "d": 90,
      "v": 51
    },
    {
      "midi": 64,
      "hit": false,
      "t": 88800,
      "d": 185,
      "v": 17
    },
    {
      "midi": 80,
      "hit": false,
      "t": 89400,
      "d": 815,
      "v": 56
    },
    {
      "midi": 76,
      "hit": false,
      "t": 89400,
      "d": 830,
      "v": 53
    },
    {
      "midi": 83,
      "hit": false,
      "t": 89400,
      "d": 830,
      "v": 56
    },
    {
      "midi": 71,
      "hit": false,
      "t": 89400,
      "d": 835,
      "v": 42
    },
    {
      "midi": 56,
      "hit": false,
      "t": 89400,
      "d": 845,
      "v": 47
    },
    {
      "midi": 64,
      "hit": false,
      "t": 89400,
      "d": 1655,
      "v": 24
    },
    {
      "midi": 71,
      "hit": false,
      "t": 90300,
      "d": 445,
      "v": 39
    },
    {
      "midi": 56,
      "hit": false,
      "t": 90300,
      "d": 480,
      "v": 60
    },
    {
      "midi": 76,
      "hit": false,
      "t": 90300,
      "d": 605,
      "v": 51
    },
    {
      "midi": 83,
      "hit": false,
      "t": 90300,
      "d": 630,
      "v": 56
    },
    {
      "midi": 80,
      "hit": false,
      "t": 90300,
      "d": 645,
      "v": 50
    },
    {
      "midi": 62,
      "hit": false,
      "t": 91200,
      "d": 90,
      "v": 70
    },
    {
      "midi": 66,
      "hit": false,
      "t": 91200,
      "d": 95,
      "v": 71
    },
    {
      "midi": 69,
      "hit": false,
      "t": 91200,
      "d": 110,
      "v": 70
    },
    {
      "midi": 76,
      "hit": false,
      "t": 91200,
      "d": 115,
      "v": 67
    },
    {
      "midi": 81,
      "hit": false,
      "t": 91200,
      "d": 115,
      "v": 71
    },
    {
      "midi": 69,
      "hit": false,
      "t": 91800,
      "d": 2980,
      "v": 63
    },
    {
      "midi": 66,
      "hit": false,
      "t": 91800,
      "d": 3035,
      "v": 66
    },
    {
      "midi": 81,
      "hit": false,
      "t": 91800,
      "d": 3045,
      "v": 71
    },
    {
      "midi": 76,
      "hit": false,
      "t": 91800,
      "d": 3060,
      "v": 68
    },
    {
      "midi": 62,
      "hit": false,
      "t": 91800,
      "d": 3070,
      "v": 68
    },
    {
      "midi": 69,
      "hit": false,
      "t": 134400,
      "d": 80,
      "v": 66
    },
    {
      "midi": 76,
      "hit": false,
      "t": 134400,
      "d": 80,
      "v": 75
    },
    {
      "midi": 57,
      "hit": false,
      "t": 134400,
      "d": 90,
      "v": 59
    },
    {
      "midi": 85,
      "hit": false,
      "t": 134400,
      "d": 90,
      "v": 66
    },
    {
      "midi": 64,
      "hit": false,
      "t": 134400,
      "d": 100,
      "v": 42
    },
    {
      "midi": 57,
      "hit": false,
      "t": 135000,
      "d": 760,
      "v": 28
    },
    {
      "midi": 69,
      "hit": false,
      "t": 135000,
      "d": 760,
      "v": 21
    },
    {
      "midi": 76,
      "hit": false,
      "t": 135000,
      "d": 770,
      "v": 48
    },
    {
      "midi": 85,
      "hit": false,
      "t": 135000,
      "d": 805,
      "v": 60
    },
    {
      "midi": 64,
      "hit": false,
      "t": 135000,
      "d": 1050,
      "v": 23
    },
    {
      "midi": 57,
      "hit": false,
      "t": 135900,
      "d": 40,
      "v": 59
    },
    {
      "midi": 69,
      "hit": false,
      "t": 135900,
      "d": 50,
      "v": 57
    },
    {
      "midi": 76,
      "hit": false,
      "t": 135900,
      "d": 85,
      "v": 67
    },
    {
      "midi": 85,
      "hit": false,
      "t": 135900,
      "d": 95,
      "v": 65
    },
    {
      "midi": 57,
      "hit": false,
      "t": 136350,
      "d": 45,
      "v": 67
    },
    {
      "midi": 69,
      "hit": false,
      "t": 136350,
      "d": 50,
      "v": 45
    },
    {
      "midi": 76,
      "hit": false,
      "t": 136350,
      "d": 85,
      "v": 76
    },
    {
      "midi": 85,
      "hit": false,
      "t": 136350,
      "d": 100,
      "v": 79
    },
    {
      "midi": 64,
      "hit": false,
      "t": 136350,
      "d": 195,
      "v": 41
    },
    {
      "midi": 80,
      "hit": false,
      "t": 136800,
      "d": 45,
      "v": 56
    },
    {
      "midi": 83,
      "hit": false,
      "t": 136800,
      "d": 45,
      "v": 53
    },
    {
      "midi": 76,
      "hit": false,
      "t": 136800,
      "d": 65,
      "v": 56
    },
    {
      "midi": 71,
      "hit": false,
      "t": 136800,
      "d": 80,
      "v": 41
    },
    {
      "midi": 56,
      "hit": false,
      "t": 136800,
      "d": 90,
      "v": 51
    },
    {
      "midi": 64,
      "hit": false,
      "t": 136800,
      "d": 185,
      "v": 17
    },
    {
      "midi": 80,
      "hit": false,
      "t": 137400,
      "d": 815,
      "v": 56
    },
    {
      "midi": 76,
      "hit": false,
      "t": 137400,
      "d": 830,
      "v": 53
    },
    {
      "midi": 83,
      "hit": false,
      "t": 137400,
      "d": 830,
      "v": 56
    },
    {
      "midi": 71,
      "hit": false,
      "t": 137400,
      "d": 835,
      "v": 42
    },
    {
      "midi": 56,
      "hit": false,
      "t": 137400,
      "d": 845,
      "v": 47
    },
    {
      "midi": 64,
      "hit": false,
      "t": 137400,
      "d": 1655,
      "v": 24
    },
    {
      "midi": 71,
      "hit": false,
      "t": 138300,
      "d": 445,
      "v": 39
    },
    {
      "midi": 56,
      "hit": false,
      "t": 138300,
      "d": 480,
      "v": 60
    },
    {
      "midi": 76,
      "hit": false,
      "t": 138300,
      "d": 605,
      "v": 51
    },
    {
      "midi": 83,
      "hit": false,
      "t": 138300,
      "d": 630,
      "v": 56
    },
    {
      "midi": 80,
      "hit": false,
      "t": 138300,
      "d": 645,
      "v": 50
    },
    {
      "midi": 80,
      "hit": false,
      "t": 139200,
      "d": 90,
      "v": 65
    },
    {
      "midi": 76,
      "hit": false,
      "t": 139200,
      "d": 95,
      "v": 57
    },
    {
      "midi": 83,
      "hit": false,
      "t": 139200,
      "d": 95,
      "v": 66
    },
    {
      "midi": 69,
      "hit": false,
      "t": 139200,
      "d": 115,
      "v": 32
    },
    {
      "midi": 54,
      "hit": false,
      "t": 139200,
      "d": 150,
      "v": 51
    },
    {
      "midi": 64,
      "hit": false,
      "t": 139200,
      "d": 185,
      "v": 19
    },
    {
      "midi": 81,
      "hit": false,
      "t": 139800,
      "d": 820,
      "v": 53
    },
    {
      "midi": 76,
      "hit": false,
      "t": 139800,
      "d": 845,
      "v": 54
    },
    {
      "midi": 85,
      "hit": false,
      "t": 139800,
      "d": 850,
      "v": 53
    },
    {
      "midi": 69,
      "hit": false,
      "t": 139800,
      "d": 865,
      "v": 28
    },
    {
      "midi": 54,
      "hit": false,
      "t": 139800,
      "d": 880,
      "v": 47
    },
    {
      "midi": 64,
      "hit": false,
      "t": 139800,
      "d": 925,
      "v": 39
    },
    {
      "midi": 61,
      "hit": false,
      "t": 141300,
      "d": 35,
      "v": 60
    },
    {
      "midi": 76,
      "hit": false,
      "t": 141300,
      "d": 45,
      "v": 54
    },
    {
      "midi": 80,
      "hit": false,
      "t": 141300,
      "d": 95,
      "v": 64
    },
    {
      "midi": 54,
      "hit": false,
      "t": 141600,
      "d": 340,
      "v": 32
    },
    {
      "midi": 69,
      "hit": false,
      "t": 141600,
      "d": 355,
      "v": 34
    },
    {
      "midi": 76,
      "hit": false,
      "t": 141600,
      "d": 355,
      "v": 29
    },
    {
      "midi": 61,
      "hit": false,
      "t": 141600,
      "d": 365,
      "v": 45
    },
    {
      "midi": 80,
      "hit": false,
      "t": 141600,
      "d": 420,
      "v": 45
    },
    {
      "midi": 71,
      "hit": false,
      "t": 142050,
      "d": 590,
      "v": 45
    },
    {
      "midi": 81,
      "hit": false,
      "t": 142050,
      "d": 730,
      "v": 54
    },
    {
      "midi": 76,
      "hit": false,
      "t": 142050,
      "d": 740,
      "v": 31
    },
    {
      "midi": 54,
      "hit": false,
      "t": 142050,
      "d": 795,
      "v": 40
    },
    {
      "midi": 61,
      "hit": false,
      "t": 142050,
      "d": 810,
      "v": 51
    },
    {
      "midi": 54,
      "hit": false,
      "t": 143100,
      "d": 330,
      "v": 36
    },
    {
      "midi": 68,
      "hit": false,
      "t": 143100,
      "d": 350,
      "v": 66
    },
    {
      "midi": 76,
      "hit": false,
      "t": 143100,
      "d": 355,
      "v": 55
    },
    {
      "midi": 61,
      "hit": false,
      "t": 143100,
      "d": 365,
      "v": 46
    },
    {
      "midi": 80,
      "hit": false,
      "t": 143100,
      "d": 405,
      "v": 57
    },
    {
      "midi": 69,
      "hit": false,
      "t": 143550,
      "d": 215,
      "v": 54
    },
    {
      "midi": 81,
      "hit": false,
      "t": 143550,
      "d": 225,
      "v": 69
    },
    {
      "midi": 76,
      "hit": false,
      "t": 143550,
      "d": 255,
      "v": 46
    },
    {
      "midi": 54,
      "hit": false,
      "t": 143550,
      "d": 300,
      "v": 35
    },
    {
      "midi": 61,
      "hit": false,
      "t": 143550,
      "d": 305,
      "v": 43
    },
    {
      "midi": 76,
      "hit": false,
      "t": 143850,
      "d": 30,
      "v": 58
    },
    {
      "midi": 71,
      "hit": false,
      "t": 143850,
      "d": 40,
      "v": 63
    },
    {
      "midi": 83,
      "hit": false,
      "t": 143850,
      "d": 65,
      "v": 72
    },
    {
      "midi": 69,
      "hit": false,
      "t": 144000,
      "d": 80,
      "v": 66
    },
    {
      "midi": 76,
      "hit": false,
      "t": 144000,
      "d": 80,
      "v": 75
    },
    {
      "midi": 57,
      "hit": false,
      "t": 144000,
      "d": 90,
      "v": 59
    },
    {
      "midi": 85,
      "hit": false,
      "t": 144000,
      "d": 90,
      "v": 66
    },
    {
      "midi": 64,
      "hit": false,
      "t": 144000,
      "d": 100,
      "v": 42
    },
    {
      "midi": 57,
      "hit": false,
      "t": 144600,
      "d": 760,
      "v": 28
    },
    {
      "midi": 69,
      "hit": false,
      "t": 144600,
      "d": 760,
      "v": 21
    },
    {
      "midi": 76,
      "hit": false,
      "t": 144600,
      "d": 770,
      "v": 48
    },
    {
      "midi": 85,
      "hit": false,
      "t": 144600,
      "d": 805,
      "v": 60
    },
    {
      "midi": 64,
      "hit": false,
      "t": 144600,
      "d": 1050,
      "v": 23
    },
    {
      "midi": 57,
      "hit": false,
      "t": 145500,
      "d": 40,
      "v": 59
    },
    {
      "midi": 69,
      "hit": false,
      "t": 145500,
      "d": 50,
      "v": 57
    },
    {
      "midi": 76,
      "hit": false,
      "t": 145500,
      "d": 85,
      "v": 67
    },
    {
      "midi": 85,
      "hit": false,
      "t": 145500,
      "d": 95,
      "v": 65
    },
    {
      "midi": 57,
      "hit": false,
      "t": 145950,
      "d": 45,
      "v": 67
    },
    {
      "midi": 69,
      "hit": false,
      "t": 145950,
      "d": 50,
      "v": 45
    },
    {
      "midi": 76,
      "hit": false,
      "t": 145950,
      "d": 85,
      "v": 76
    },
    {
      "midi": 85,
      "hit": false,
      "t": 145950,
      "d": 100,
      "v": 79
    },
    {
      "midi": 64,
      "hit": false,
      "t": 145950,
      "d": 195,
      "v": 41
    },
    {
      "midi": 80,
      "hit": false,
      "t": 146400,
      "d": 45,
      "v": 56
    },
    {
      "midi": 83,
      "hit": false,
      "t": 146400,
      "d": 45,
      "v": 53
    },
    {
      "midi": 76,
      "hit": false,
      "t": 146400,
      "d": 65,
      "v": 56
    },
    {
      "midi": 71,
      "hit": false,
      "t": 146400,
      "d": 80,
      "v": 41
    },
    {
      "midi": 56,
      "hit": false,
      "t": 146400,
      "d": 90,
      "v": 51
    },
    {
      "midi": 64,
      "hit": false,
      "t": 146400,
      "d": 185,
      "v": 17
    },
    {
      "midi": 80,
      "hit": false,
      "t": 147000,
      "d": 815,
      "v": 56
    },
    {
      "midi": 76,
      "hit": false,
      "t": 147000,
      "d": 830,
      "v": 53
    },
    {
      "midi": 83,
      "hit": false,
      "t": 147000,
      "d": 830,
      "v": 56
    },
    {
      "midi": 71,
      "hit": false,
      "t": 147000,
      "d": 835,
      "v": 42
    },
    {
      "midi": 56,
      "hit": false,
      "t": 147000,
      "d": 845,
      "v": 47
    },
    {
      "midi": 64,
      "hit": false,
      "t": 147000,
      "d": 1655,
      "v": 24
    },
    {
      "midi": 71,
      "hit": false,
      "t": 147900,
      "d": 445,
      "v": 39
    },
    {
      "midi": 56,
      "hit": false,
      "t": 147900,
      "d": 480,
      "v": 60
    },
    {
      "midi": 76,
      "hit": false,
      "t": 147900,
      "d": 605,
      "v": 51
    },
    {
      "midi": 83,
      "hit": false,
      "t": 147900,
      "d": 630,
      "v": 56
    },
    {
      "midi": 80,
      "hit": false,
      "t": 147900,
      "d": 645,
      "v": 50
    },
    {
      "midi": 80,
      "hit": false,
      "t": 148800,
      "d": 90,
      "v": 65
    },
    {
      "midi": 76,
      "hit": false,
      "t": 148800,
      "d": 95,
      "v": 57
    },
    {
      "midi": 83,
      "hit": false,
      "t": 148800,
      "d": 95,
      "v": 66
    },
    {
      "midi": 69,
      "hit": false,
      "t": 148800,
      "d": 115,
      "v": 32
    },
    {
      "midi": 54,
      "hit": false,
      "t": 148800,
      "d": 150,
      "v": 51
    },
    {
      "midi": 64,
      "hit": false,
      "t": 148800,
      "d": 185,
      "v": 19
    },
    {
      "midi": 81,
      "hit": false,
      "t": 149400,
      "d": 820,
      "v": 53
    },
    {
      "midi": 76,
      "hit": false,
      "t": 149400,
      "d": 845,
      "v": 54
    },
    {
      "midi": 85,
      "hit": false,
      "t": 149400,
      "d": 850,
      "v": 53
    },
    {
      "midi": 69,
      "hit": false,
      "t": 149400,
      "d": 865,
      "v": 28
    },
    {
      "midi": 54,
      "hit": false,
      "t": 149400,
      "d": 880,
      "v": 47
    },
    {
      "midi": 64,
      "hit": false,
      "t": 149400,
      "d": 925,
      "v": 39
    },
    {
      "midi": 61,
      "hit": false,
      "t": 150900,
      "d": 35,
      "v": 60
    },
    {
      "midi": 76,
      "hit": false,
      "t": 150900,
      "d": 45,
      "v": 54
    },
    {
      "midi": 80,
      "hit": false,
      "t": 150900,
      "d": 95,
      "v": 64
    },
    {
      "midi": 54,
      "hit": false,
      "t": 151200,
      "d": 340,
      "v": 32
    },
    {
      "midi": 69,
      "hit": false,
      "t": 151200,
      "d": 355,
      "v": 34
    },
    {
      "midi": 76,
      "hit": false,
      "t": 151200,
      "d": 355,
      "v": 29
    },
    {
      "midi": 61,
      "hit": false,
      "t": 151200,
      "d": 365,
      "v": 45
    },
    {
      "midi": 80,
      "hit": false,
      "t": 151200,
      "d": 420,
      "v": 45
    },
    {
      "midi": 71,
      "hit": false,
      "t": 151650,
      "d": 590,
      "v": 45
    },
    {
      "midi": 81,
      "hit": false,
      "t": 151650,
      "d": 730,
      "v": 54
    },
    {
      "midi": 76,
      "hit": false,
      "t": 151650,
      "d": 740,
      "v": 31
    },
    {
      "midi": 54,
      "hit": false,
      "t": 151650,
      "d": 795,
      "v": 40
    },
    {
      "midi": 61,
      "hit": false,
      "t": 151650,
      "d": 810,
      "v": 51
    },
    {
      "midi": 54,
      "hit": false,
      "t": 152700,
      "d": 330,
      "v": 36
    },
    {
      "midi": 68,
      "hit": false,
      "t": 152700,
      "d": 350,
      "v": 66
    },
    {
      "midi": 76,
      "hit": false,
      "t": 152700,
      "d": 355,
      "v": 55
    },
    {
      "midi": 61,
      "hit": false,
      "t": 152700,
      "d": 365,
      "v": 46
    },
    {
      "midi": 80,
      "hit": false,
      "t": 152700,
      "d": 405,
      "v": 57
    },
    {
      "midi": 69,
      "hit": false,
      "t": 153150,
      "d": 215,
      "v": 54
    },
    {
      "midi": 81,
      "hit": false,
      "t": 153150,
      "d": 225,
      "v": 69
    },
    {
      "midi": 76,
      "hit": false,
      "t": 153150,
      "d": 255,
      "v": 46
    },
    {
      "midi": 54,
      "hit": false,
      "t": 153150,
      "d": 300,
      "v": 35
    },
    {
      "midi": 61,
      "hit": false,
      "t": 153150,
      "d": 305,
      "v": 43
    },
    {
      "midi": 76,
      "hit": false,
      "t": 153450,
      "d": 30,
      "v": 58
    },
    {
      "midi": 71,
      "hit": false,
      "t": 153450,
      "d": 40,
      "v": 63
    },
    {
      "midi": 83,
      "hit": false,
      "t": 153450,
      "d": 65,
      "v": 72
    },
    {
      "midi": 69,
      "hit": false,
      "t": 153600,
      "d": 80,
      "v": 66
    },
    {
      "midi": 76,
      "hit": false,
      "t": 153600,
      "d": 80,
      "v": 75
    },
    {
      "midi": 57,
      "hit": false,
      "t": 153600,
      "d": 90,
      "v": 59
    },
    {
      "midi": 85,
      "hit": false,
      "t": 153600,
      "d": 90,
      "v": 66
    },
    {
      "midi": 64,
      "hit": false,
      "t": 153600,
      "d": 100,
      "v": 42
    },
    {
      "midi": 57,
      "hit": false,
      "t": 154200,
      "d": 760,
      "v": 28
    },
    {
      "midi": 69,
      "hit": false,
      "t": 154200,
      "d": 760,
      "v": 21
    },
    {
      "midi": 76,
      "hit": false,
      "t": 154200,
      "d": 770,
      "v": 48
    },
    {
      "midi": 85,
      "hit": false,
      "t": 154200,
      "d": 805,
      "v": 60
    },
    {
      "midi": 64,
      "hit": false,
      "t": 154200,
      "d": 1050,
      "v": 23
    },
    {
      "midi": 57,
      "hit": false,
      "t": 155100,
      "d": 40,
      "v": 59
    },
    {
      "midi": 69,
      "hit": false,
      "t": 155100,
      "d": 50,
      "v": 57
    },
    {
      "midi": 76,
      "hit": false,
      "t": 155100,
      "d": 85,
      "v": 67
    },
    {
      "midi": 85,
      "hit": false,
      "t": 155100,
      "d": 95,
      "v": 65
    },
    {
      "midi": 57,
      "hit": false,
      "t": 155550,
      "d": 45,
      "v": 67
    },
    {
      "midi": 69,
      "hit": false,
      "t": 155550,
      "d": 50,
      "v": 45
    },
    {
      "midi": 76,
      "hit": false,
      "t": 155550,
      "d": 85,
      "v": 76
    },
    {
      "midi": 85,
      "hit": false,
      "t": 155550,
      "d": 100,
      "v": 79
    },
    {
      "midi": 64,
      "hit": false,
      "t": 155550,
      "d": 195,
      "v": 41
    },
    {
      "midi": 80,
      "hit": false,
      "t": 156000,
      "d": 45,
      "v": 56
    },
    {
      "midi": 83,
      "hit": false,
      "t": 156000,
      "d": 45,
      "v": 53
    },
    {
      "midi": 76,
      "hit": false,
      "t": 156000,
      "d": 65,
      "v": 56
    },
    {
      "midi": 71,
      "hit": false,
      "t": 156000,
      "d": 80,
      "v": 41
    },
    {
      "midi": 56,
      "hit": false,
      "t": 156000,
      "d": 90,
      "v": 51
    },
    {
      "midi": 64,
      "hit": false,
      "t": 156000,
      "d": 185,
      "v": 17
    },
    {
      "midi": 80,
      "hit": false,
      "t": 156600,
      "d": 815,
      "v": 56
    },
    {
      "midi": 76,
      "hit": false,
      "t": 156600,
      "d": 830,
      "v": 53
    },
    {
      "midi": 83,
      "hit": false,
      "t": 156600,
      "d": 830,
      "v": 56
    },
    {
      "midi": 71,
      "hit": false,
      "t": 156600,
      "d": 835,
      "v": 42
    },
    {
      "midi": 56,
      "hit": false,
      "t": 156600,
      "d": 845,
      "v": 47
    },
    {
      "midi": 64,
      "hit": false,
      "t": 156600,
      "d": 1655,
      "v": 24
    },
    {
      "midi": 71,
      "hit": false,
      "t": 157500,
      "d": 445,
      "v": 39
    },
    {
      "midi": 56,
      "hit": false,
      "t": 157500,
      "d": 480,
      "v": 60
    },
    {
      "midi": 76,
      "hit": false,
      "t": 157500,
      "d": 605,
      "v": 51
    },
    {
      "midi": 83,
      "hit": false,
      "t": 157500,
      "d": 630,
      "v": 56
    },
    {
      "midi": 80,
      "hit": false,
      "t": 157500,
      "d": 645,
      "v": 50
    },
    {
      "midi": 80,
      "hit": false,
      "t": 158400,
      "d": 90,
      "v": 65
    },
    {
      "midi": 76,
      "hit": false,
      "t": 158400,
      "d": 95,
      "v": 57
    },
    {
      "midi": 83,
      "hit": false,
      "t": 158400,
      "d": 95,
      "v": 66
    },
    {
      "midi": 69,
      "hit": false,
      "t": 158400,
      "d": 115,
      "v": 32
    },
    {
      "midi": 54,
      "hit": false,
      "t": 158400,
      "d": 150,
      "v": 51
    },
    {
      "midi": 64,
      "hit": false,
      "t": 158400,
      "d": 185,
      "v": 19
    },
    {
      "midi": 81,
      "hit": false,
      "t": 159000,
      "d": 820,
      "v": 53
    },
    {
      "midi": 76,
      "hit": false,
      "t": 159000,
      "d": 845,
      "v": 54
    },
    {
      "midi": 85,
      "hit": false,
      "t": 159000,
      "d": 850,
      "v": 53
    },
    {
      "midi": 69,
      "hit": false,
      "t": 159000,
      "d": 865,
      "v": 28
    },
    {
      "midi": 54,
      "hit": false,
      "t": 159000,
      "d": 880,
      "v": 47
    },
    {
      "midi": 64,
      "hit": false,
      "t": 159000,
      "d": 925,
      "v": 39
    },
    {
      "midi": 61,
      "hit": false,
      "t": 160500,
      "d": 35,
      "v": 60
    },
    {
      "midi": 76,
      "hit": false,
      "t": 160500,
      "d": 45,
      "v": 54
    },
    {
      "midi": 80,
      "hit": false,
      "t": 160500,
      "d": 95,
      "v": 64
    },
    {
      "midi": 54,
      "hit": false,
      "t": 160800,
      "d": 340,
      "v": 32
    },
    {
      "midi": 69,
      "hit": false,
      "t": 160800,
      "d": 355,
      "v": 34
    },
    {
      "midi": 76,
      "hit": false,
      "t": 160800,
      "d": 355,
      "v": 29
    },
    {
      "midi": 61,
      "hit": false,
      "t": 160800,
      "d": 365,
      "v": 45
    },
    {
      "midi": 80,
      "hit": false,
      "t": 160800,
      "d": 420,
      "v": 45
    },
    {
      "midi": 71,
      "hit": false,
      "t": 161250,
      "d": 590,
      "v": 45
    },
    {
      "midi": 81,
      "hit": false,
      "t": 161250,
      "d": 730,
      "v": 54
    },
    {
      "midi": 76,
      "hit": false,
      "t": 161250,
      "d": 740,
      "v": 31
    },
    {
      "midi": 54,
      "hit": false,
      "t": 161250,
      "d": 795,
      "v": 40
    },
    {
      "midi": 61,
      "hit": false,
      "t": 161250,
      "d": 810,
      "v": 51
    },
    {
      "midi": 54,
      "hit": false,
      "t": 162300,
      "d": 330,
      "v": 36
    },
    {
      "midi": 68,
      "hit": false,
      "t": 162300,
      "d": 350,
      "v": 66
    },
    {
      "midi": 76,
      "hit": false,
      "t": 162300,
      "d": 355,
      "v": 55
    },
    {
      "midi": 61,
      "hit": false,
      "t": 162300,
      "d": 365,
      "v": 46
    },
    {
      "midi": 80,
      "hit": false,
      "t": 162300,
      "d": 405,
      "v": 57
    },
    {
      "midi": 69,
      "hit": false,
      "t": 162750,
      "d": 215,
      "v": 54
    },
    {
      "midi": 81,
      "hit": false,
      "t": 162750,
      "d": 225,
      "v": 69
    },
    {
      "midi": 76,
      "hit": false,
      "t": 162750,
      "d": 255,
      "v": 46
    },
    {
      "midi": 54,
      "hit": false,
      "t": 162750,
      "d": 300,
      "v": 35
    },
    {
      "midi": 61,
      "hit": false,
      "t": 162750,
      "d": 305,
      "v": 43
    },
    {
      "midi": 76,
      "hit": false,
      "t": 163050,
      "d": 30,
      "v": 58
    },
    {
      "midi": 71,
      "hit": false,
      "t": 163050,
      "d": 40,
      "v": 63
    },
    {
      "midi": 83,
      "hit": false,
      "t": 163050,
      "d": 65,
      "v": 72
    },
    {
      "midi": 69,
      "hit": false,
      "t": 163200,
      "d": 80,
      "v": 66
    },
    {
      "midi": 76,
      "hit": false,
      "t": 163200,
      "d": 80,
      "v": 75
    },
    {
      "midi": 57,
      "hit": false,
      "t": 163200,
      "d": 90,
      "v": 59
    },
    {
      "midi": 85,
      "hit": false,
      "t": 163200,
      "d": 90,
      "v": 66
    },
    {
      "midi": 64,
      "hit": false,
      "t": 163200,
      "d": 100,
      "v": 42
    },
    {
      "midi": 57,
      "hit": false,
      "t": 163800,
      "d": 760,
      "v": 28
    },
    {
      "midi": 69,
      "hit": false,
      "t": 163800,
      "d": 760,
      "v": 21
    },
    {
      "midi": 76,
      "hit": false,
      "t": 163800,
      "d": 770,
      "v": 48
    },
    {
      "midi": 85,
      "hit": false,
      "t": 163800,
      "d": 805,
      "v": 60
    },
    {
      "midi": 64,
      "hit": false,
      "t": 163800,
      "d": 1050,
      "v": 23
    },
    {
      "midi": 57,
      "hit": false,
      "t": 164700,
      "d": 40,
      "v": 59
    },
    {
      "midi": 69,
      "hit": false,
      "t": 164700,
      "d": 50,
      "v": 57
    },
    {
      "midi": 76,
      "hit": false,
      "t": 164700,
      "d": 85,
      "v": 67
    },
    {
      "midi": 85,
      "hit": false,
      "t": 164700,
      "d": 95,
      "v": 65
    },
    {
      "midi": 57,
      "hit": false,
      "t": 165150,
      "d": 45,
      "v": 67
    },
    {
      "midi": 69,
      "hit": false,
      "t": 165150,
      "d": 50,
      "v": 45
    },
    {
      "midi": 76,
      "hit": false,
      "t": 165150,
      "d": 85,
      "v": 76
    },
    {
      "midi": 85,
      "hit": false,
      "t": 165150,
      "d": 100,
      "v": 79
    },
    {
      "midi": 64,
      "hit": false,
      "t": 165150,
      "d": 195,
      "v": 41
    },
    {
      "midi": 80,
      "hit": false,
      "t": 165600,
      "d": 45,
      "v": 56
    },
    {
      "midi": 83,
      "hit": false,
      "t": 165600,
      "d": 45,
      "v": 53
    },
    {
      "midi": 76,
      "hit": false,
      "t": 165600,
      "d": 65,
      "v": 56
    },
    {
      "midi": 71,
      "hit": false,
      "t": 165600,
      "d": 80,
      "v": 41
    },
    {
      "midi": 56,
      "hit": false,
      "t": 165600,
      "d": 90,
      "v": 51
    },
    {
      "midi": 64,
      "hit": false,
      "t": 165600,
      "d": 185,
      "v": 17
    },
    {
      "midi": 80,
      "hit": false,
      "t": 166200,
      "d": 815,
      "v": 56
    },
    {
      "midi": 76,
      "hit": false,
      "t": 166200,
      "d": 830,
      "v": 53
    },
    {
      "midi": 83,
      "hit": false,
      "t": 166200,
      "d": 830,
      "v": 56
    },
    {
      "midi": 71,
      "hit": false,
      "t": 166200,
      "d": 835,
      "v": 42
    },
    {
      "midi": 56,
      "hit": false,
      "t": 166200,
      "d": 845,
      "v": 47
    },
    {
      "midi": 64,
      "hit": false,
      "t": 166200,
      "d": 1655,
      "v": 24
    },
    {
      "midi": 71,
      "hit": false,
      "t": 167100,
      "d": 445,
      "v": 39
    },
    {
      "midi": 56,
      "hit": false,
      "t": 167100,
      "d": 480,
      "v": 60
    },
    {
      "midi": 76,
      "hit": false,
      "t": 167100,
      "d": 605,
      "v": 51
    },
    {
      "midi": 83,
      "hit": false,
      "t": 167100,
      "d": 630,
      "v": 56
    },
    {
      "midi": 80,
      "hit": false,
      "t": 167100,
      "d": 645,
      "v": 50
    },
    {
      "midi": 64,
      "hit": false,
      "t": 168000,
      "d": 115,
      "v": 120
    },
    {
      "midi": 62,
      "hit": false,
      "t": 168000,
      "d": 125,
      "v": 104
    },
    {
      "midi": 74,
      "hit": false,
      "t": 168000,
      "d": 145,
      "v": 95
    },
    {
      "midi": 57,
      "hit": false,
      "t": 168000,
      "d": 155,
      "v": 95
    },
    {
      "midi": 69,
      "hit": false,
      "t": 168000,
      "d": 160,
      "v": 98
    },
    {
      "midi": 50,
      "hit": false,
      "t": 168000,
      "d": 165,
      "v": 80
    },
    {
      "midi": 66,
      "hit": false,
      "t": 168600,
      "d": 2890,
      "v": 88
    },
    {
      "midi": 74,
      "hit": false,
      "t": 168600,
      "d": 2890,
      "v": 80
    },
    {
      "midi": 69,
      "hit": false,
      "t": 168600,
      "d": 2895,
      "v": 88
    },
    {
      "midi": 62,
      "hit": false,
      "t": 168600,
      "d": 2990,
      "v": 98
    },
    {
      "midi": 57,
      "hit": false,
      "t": 168600,
      "d": 3005,
      "v": 98
    },
    {
      "midi": 69,
      "hit": false,
      "t": 192000,
      "d": 80,
      "v": 66
    },
    {
      "midi": 76,
      "hit": false,
      "t": 192000,
      "d": 80,
      "v": 75
    },
    {
      "midi": 57,
      "hit": false,
      "t": 192000,
      "d": 90,
      "v": 59
    },
    {
      "midi": 85,
      "hit": false,
      "t": 192000,
      "d": 90,
      "v": 66
    },
    {
      "midi": 64,
      "hit": false,
      "t": 192000,
      "d": 100,
      "v": 42
    },
    {
      "midi": 57,
      "hit": false,
      "t": 192600,
      "d": 760,
      "v": 28
    },
    {
      "midi": 69,
      "hit": false,
      "t": 192600,
      "d": 760,
      "v": 21
    },
    {
      "midi": 76,
      "hit": false,
      "t": 192600,
      "d": 770,
      "v": 48
    },
    {
      "midi": 85,
      "hit": false,
      "t": 192600,
      "d": 805,
      "v": 60
    },
    {
      "midi": 64,
      "hit": false,
      "t": 192600,
      "d": 1050,
      "v": 23
    },
    {
      "midi": 57,
      "hit": false,
      "t": 193500,
      "d": 40,
      "v": 59
    },
    {
      "midi": 69,
      "hit": false,
      "t": 193500,
      "d": 50,
      "v": 57
    },
    {
      "midi": 76,
      "hit": false,
      "t": 193500,
      "d": 85,
      "v": 67
    },
    {
      "midi": 85,
      "hit": false,
      "t": 193500,
      "d": 95,
      "v": 65
    },
    {
      "midi": 57,
      "hit": false,
      "t": 193950,
      "d": 45,
      "v": 67
    },
    {
      "midi": 69,
      "hit": false,
      "t": 193950,
      "d": 50,
      "v": 45
    },
    {
      "midi": 76,
      "hit": false,
      "t": 193950,
      "d": 85,
      "v": 76
    },
    {
      "midi": 85,
      "hit": false,
      "t": 193950,
      "d": 100,
      "v": 79
    },
    {
      "midi": 64,
      "hit": false,
      "t": 193950,
      "d": 195,
      "v": 41
    },
    {
      "midi": 80,
      "hit": false,
      "t": 194400,
      "d": 45,
      "v": 56
    },
    {
      "midi": 83,
      "hit": false,
      "t": 194400,
      "d": 45,
      "v": 53
    },
    {
      "midi": 76,
      "hit": false,
      "t": 194400,
      "d": 65,
      "v": 56
    },
    {
      "midi": 71,
      "hit": false,
      "t": 194400,
      "d": 80,
      "v": 41
    },
    {
      "midi": 56,
      "hit": false,
      "t": 194400,
      "d": 90,
      "v": 51
    },
    {
      "midi": 64,
      "hit": false,
      "t": 194400,
      "d": 185,
      "v": 17
    },
    {
      "midi": 80,
      "hit": false,
      "t": 195000,
      "d": 815,
      "v": 56
    },
    {
      "midi": 76,
      "hit": false,
      "t": 195000,
      "d": 830,
      "v": 53
    },
    {
      "midi": 83,
      "hit": false,
      "t": 195000,
      "d": 830,
      "v": 56
    },
    {
      "midi": 71,
      "hit": false,
      "t": 195000,
      "d": 835,
      "v": 42
    },
    {
      "midi": 56,
      "hit": false,
      "t": 195000,
      "d": 845,
      "v": 47
    },
    {
      "midi": 64,
      "hit": false,
      "t": 195000,
      "d": 1655,
      "v": 24
    },
    {
      "midi": 71,
      "hit": false,
      "t": 195900,
      "d": 445,
      "v": 39
    },
    {
      "midi": 56,
      "hit": false,
      "t": 195900,
      "d": 480,
      "v": 60
    },
    {
      "midi": 76,
      "hit": false,
      "t": 195900,
      "d": 605,
      "v": 51
    },
    {
      "midi": 83,
      "hit": false,
      "t": 195900,
      "d": 630,
      "v": 56
    },
    {
      "midi": 80,
      "hit": false,
      "t": 195900,
      "d": 645,
      "v": 50
    },
    {
      "midi": 80,
      "hit": false,
      "t": 196800,
      "d": 90,
      "v": 65
    },
    {
      "midi": 76,
      "hit": false,
      "t": 196800,
      "d": 95,
      "v": 57
    },
    {
      "midi": 83,
      "hit": false,
      "t": 196800,
      "d": 95,
      "v": 66
    },
    {
      "midi": 69,
      "hit": false,
      "t": 196800,
      "d": 115,
      "v": 32
    },
    {
      "midi": 54,
      "hit": false,
      "t": 196800,
      "d": 150,
      "v": 51
    },
    {
      "midi": 64,
      "hit": false,
      "t": 196800,
      "d": 185,
      "v": 19
    },
    {
      "midi": 81,
      "hit": false,
      "t": 197400,
      "d": 820,
      "v": 53
    },
    {
      "midi": 76,
      "hit": false,
      "t": 197400,
      "d": 845,
      "v": 54
    },
    {
      "midi": 85,
      "hit": false,
      "t": 197400,
      "d": 850,
      "v": 53
    },
    {
      "midi": 69,
      "hit": false,
      "t": 197400,
      "d": 865,
      "v": 28
    },
    {
      "midi": 54,
      "hit": false,
      "t": 197400,
      "d": 880,
      "v": 47
    },
    {
      "midi": 64,
      "hit": false,
      "t": 197400,
      "d": 925,
      "v": 39
    },
    {
      "midi": 61,
      "hit": false,
      "t": 198900,
      "d": 35,
      "v": 60
    },
    {
      "midi": 76,
      "hit": false,
      "t": 198900,
      "d": 45,
      "v": 54
    },
    {
      "midi": 80,
      "hit": false,
      "t": 198900,
      "d": 95,
      "v": 64
    },
    {
      "midi": 54,
      "hit": false,
      "t": 199200,
      "d": 340,
      "v": 32
    },
    {
      "midi": 69,
      "hit": false,
      "t": 199200,
      "d": 355,
      "v": 34
    },
    {
      "midi": 76,
      "hit": false,
      "t": 199200,
      "d": 355,
      "v": 29
    },
    {
      "midi": 61,
      "hit": false,
      "t": 199200,
      "d": 365,
      "v": 45
    },
    {
      "midi": 80,
      "hit": false,
      "t": 199200,
      "d": 420,
      "v": 45
    },
    {
      "midi": 71,
      "hit": false,
      "t": 199650,
      "d": 590,
      "v": 45
    },
    {
      "midi": 81,
      "hit": false,
      "t": 199650,
      "d": 730,
      "v": 54
    },
    {
      "midi": 76,
      "hit": false,
      "t": 199650,
      "d": 740,
      "v": 31
    },
    {
      "midi": 54,
      "hit": false,
      "t": 199650,
      "d": 795,
      "v": 40
    },
    {
      "midi": 61,
      "hit": false,
      "t": 199650,
      "d": 810,
      "v": 51
    },
    {
      "midi": 54,
      "hit": false,
      "t": 200700,
      "d": 330,
      "v": 36
    },
    {
      "midi": 68,
      "hit": false,
      "t": 200700,
      "d": 350,
      "v": 66
    },
    {
      "midi": 76,
      "hit": false,
      "t": 200700,
      "d": 355,
      "v": 55
    },
    {
      "midi": 61,
      "hit": false,
      "t": 200700,
      "d": 365,
      "v": 46
    },
    {
      "midi": 80,
      "hit": false,
      "t": 200700,
      "d": 405,
      "v": 57
    },
    {
      "midi": 69,
      "hit": false,
      "t": 201150,
      "d": 215,
      "v": 54
    },
    {
      "midi": 81,
      "hit": false,
      "t": 201150,
      "d": 225,
      "v": 69
    },
    {
      "midi": 76,
      "hit": false,
      "t": 201150,
      "d": 255,
      "v": 46
    },
    {
      "midi": 54,
      "hit": false,
      "t": 201150,
      "d": 300,
      "v": 35
    },
    {
      "midi": 61,
      "hit": false,
      "t": 201150,
      "d": 305,
      "v": 43
    },
    {
      "midi": 76,
      "hit": false,
      "t": 201450,
      "d": 30,
      "v": 58
    },
    {
      "midi": 71,
      "hit": false,
      "t": 201450,
      "d": 40,
      "v": 63
    },
    {
      "midi": 83,
      "hit": false,
      "t": 201450,
      "d": 65,
      "v": 72
    },
    {
      "midi": 69,
      "hit": false,
      "t": 201600,
      "d": 80,
      "v": 66
    },
    {
      "midi": 76,
      "hit": false,
      "t": 201600,
      "d": 80,
      "v": 75
    },
    {
      "midi": 57,
      "hit": false,
      "t": 201600,
      "d": 90,
      "v": 59
    },
    {
      "midi": 85,
      "hit": false,
      "t": 201600,
      "d": 90,
      "v": 66
    },
    {
      "midi": 64,
      "hit": false,
      "t": 201600,
      "d": 100,
      "v": 42
    },
    {
      "midi": 57,
      "hit": false,
      "t": 202200,
      "d": 760,
      "v": 28
    },
    {
      "midi": 69,
      "hit": false,
      "t": 202200,
      "d": 760,
      "v": 21
    },
    {
      "midi": 76,
      "hit": false,
      "t": 202200,
      "d": 770,
      "v": 48
    },
    {
      "midi": 85,
      "hit": false,
      "t": 202200,
      "d": 805,
      "v": 60
    },
    {
      "midi": 64,
      "hit": false,
      "t": 202200,
      "d": 1050,
      "v": 23
    },
    {
      "midi": 57,
      "hit": false,
      "t": 203100,
      "d": 40,
      "v": 59
    },
    {
      "midi": 69,
      "hit": false,
      "t": 203100,
      "d": 50,
      "v": 57
    },
    {
      "midi": 76,
      "hit": false,
      "t": 203100,
      "d": 85,
      "v": 67
    },
    {
      "midi": 85,
      "hit": false,
      "t": 203100,
      "d": 95,
      "v": 65
    },
    {
      "midi": 57,
      "hit": false,
      "t": 203550,
      "d": 45,
      "v": 67
    },
    {
      "midi": 69,
      "hit": false,
      "t": 203550,
      "d": 50,
      "v": 45
    },
    {
      "midi": 76,
      "hit": false,
      "t": 203550,
      "d": 85,
      "v": 76
    },
    {
      "midi": 85,
      "hit": false,
      "t": 203550,
      "d": 100,
      "v": 79
    },
    {
      "midi": 64,
      "hit": false,
      "t": 203550,
      "d": 195,
      "v": 41
    },
    {
      "midi": 80,
      "hit": false,
      "t": 204000,
      "d": 45,
      "v": 56
    },
    {
      "midi": 83,
      "hit": false,
      "t": 204000,
      "d": 45,
      "v": 53
    },
    {
      "midi": 76,
      "hit": false,
      "t": 204000,
      "d": 65,
      "v": 56
    },
    {
      "midi": 71,
      "hit": false,
      "t": 204000,
      "d": 80,
      "v": 41
    },
    {
      "midi": 56,
      "hit": false,
      "t": 204000,
      "d": 90,
      "v": 51
    },
    {
      "midi": 64,
      "hit": false,
      "t": 204000,
      "d": 185,
      "v": 17
    },
    {
      "midi": 80,
      "hit": false,
      "t": 204600,
      "d": 815,
      "v": 56
    },
    {
      "midi": 76,
      "hit": false,
      "t": 204600,
      "d": 830,
      "v": 53
    },
    {
      "midi": 83,
      "hit": false,
      "t": 204600,
      "d": 830,
      "v": 56
    },
    {
      "midi": 71,
      "hit": false,
      "t": 204600,
      "d": 835,
      "v": 42
    },
    {
      "midi": 56,
      "hit": false,
      "t": 204600,
      "d": 845,
      "v": 47
    },
    {
      "midi": 64,
      "hit": false,
      "t": 204600,
      "d": 1655,
      "v": 24
    },
    {
      "midi": 71,
      "hit": false,
      "t": 205500,
      "d": 445,
      "v": 39
    },
    {
      "midi": 56,
      "hit": false,
      "t": 205500,
      "d": 480,
      "v": 60
    },
    {
      "midi": 76,
      "hit": false,
      "t": 205500,
      "d": 605,
      "v": 51
    },
    {
      "midi": 83,
      "hit": false,
      "t": 205500,
      "d": 630,
      "v": 56
    },
    {
      "midi": 80,
      "hit": false,
      "t": 205500,
      "d": 645,
      "v": 50
    },
    {
      "midi": 80,
      "hit": false,
      "t": 206400,
      "d": 90,
      "v": 65
    },
    {
      "midi": 76,
      "hit": false,
      "t": 206400,
      "d": 95,
      "v": 57
    },
    {
      "midi": 83,
      "hit": false,
      "t": 206400,
      "d": 95,
      "v": 66
    },
    {
      "midi": 69,
      "hit": false,
      "t": 206400,
      "d": 115,
      "v": 32
    },
    {
      "midi": 54,
      "hit": false,
      "t": 206400,
      "d": 150,
      "v": 51
    },
    {
      "midi": 64,
      "hit": false,
      "t": 206400,
      "d": 185,
      "v": 19
    },
    {
      "midi": 81,
      "hit": false,
      "t": 207000,
      "d": 820,
      "v": 53
    },
    {
      "midi": 76,
      "hit": false,
      "t": 207000,
      "d": 845,
      "v": 54
    },
    {
      "midi": 85,
      "hit": false,
      "t": 207000,
      "d": 850,
      "v": 53
    },
    {
      "midi": 69,
      "hit": false,
      "t": 207000,
      "d": 865,
      "v": 28
    },
    {
      "midi": 54,
      "hit": false,
      "t": 207000,
      "d": 880,
      "v": 47
    },
    {
      "midi": 64,
      "hit": false,
      "t": 207000,
      "d": 925,
      "v": 39
    },
    {
      "midi": 61,
      "hit": false,
      "t": 208500,
      "d": 35,
      "v": 60
    },
    {
      "midi": 76,
      "hit": false,
      "t": 208500,
      "d": 45,
      "v": 54
    },
    {
      "midi": 80,
      "hit": false,
      "t": 208500,
      "d": 95,
      "v": 64
    },
    {
      "midi": 69,
      "hit": false,
      "t": 208800,
      "d": 570,
      "v": 80
    },
    {
      "midi": 81,
      "hit": false,
      "t": 208800,
      "d": 850,
      "v": 80
    },
    {
      "midi": 78,
      "hit": false,
      "t": 208800,
      "d": 925,
      "v": 78
    },
    {
      "midi": 50,
      "hit": false,
      "t": 208800,
      "d": 2340,
      "v": 73
    },
    {
      "midi": 76,
      "hit": false,
      "t": 209100,
      "d": 310,
      "v": 80
    },
    {
      "midi": 74,
      "hit": false,
      "t": 209400,
      "d": 310,
      "v": 62
    },
    {
      "midi": 71,
      "hit": false,
      "t": 210000,
      "d": 330,
      "v": 71
    },
    {
      "midi": 74,
      "hit": false,
      "t": 210300,
      "d": 400,
      "v": 76
    },
    {
      "midi": 74,
      "hit": false,
      "t": 210900,
      "d": 305,
      "v": 73
    },
    {
      "midi": 69,
      "hit": false,
      "t": 211200,
      "d": 5,
      "v": 66
    },
    {
      "midi": 76,
      "hit": false,
      "t": 211200,
      "d": 80,
      "v": 75
    },
    {
      "midi": 57,
      "hit": false,
      "t": 211200,
      "d": 90,
      "v": 59
    },
    {
      "midi": 85,
      "hit": false,
      "t": 211200,
      "d": 90,
      "v": 66
    },
    {
      "midi": 64,
      "hit": false,
      "t": 211200,
      "d": 100,
      "v": 42
    },
    {
      "midi": 45,
      "hit": false,
      "t": 211200,
      "d": 430,
      "v": 62
    },
    {
      "midi": 52,
      "hit": false,
      "t": 211200,
      "d": 430,
      "v": 65
    },
    {
      "midi": 73,
      "hit": false,
      "t": 211200,
      "d": 495,
      "v": 73
    },
    {
      "midi": 57,
      "hit": false,
      "t": 211800,
      "d": 760,
      "v": 28
    },
    {
      "midi": 69,
      "hit": false,
      "t": 211800,
      "d": 760,
      "v": 21
    },
    {
      "midi": 76,
      "hit": false,
      "t": 211800,
      "d": 770,
      "v": 48
    },
    {
      "midi": 85,
      "hit": false,
      "t": 211800,
      "d": 805,
      "v": 60
    },
    {
      "midi": 64,
      "hit": false,
      "t": 211800,
      "d": 1050,
      "v": 23
    },
    {
      "midi": 57,
      "hit": false,
      "t": 212700,
      "d": 40,
      "v": 59
    },
    {
      "midi": 69,
      "hit": false,
      "t": 212700,
      "d": 50,
      "v": 57
    },
    {
      "midi": 76,
      "hit": false,
      "t": 212700,
      "d": 85,
      "v": 67
    },
    {
      "midi": 85,
      "hit": false,
      "t": 212700,
      "d": 95,
      "v": 65
    },
    {
      "midi": 57,
      "hit": false,
      "t": 213150,
      "d": 45,
      "v": 67
    },
    {
      "midi": 69,
      "hit": false,
      "t": 213150,
      "d": 50,
      "v": 45
    },
    {
      "midi": 76,
      "hit": false,
      "t": 213150,
      "d": 85,
      "v": 76
    },
    {
      "midi": 85,
      "hit": false,
      "t": 213150,
      "d": 100,
      "v": 79
    },
    {
      "midi": 64,
      "hit": false,
      "t": 213150,
      "d": 195,
      "v": 41
    },
    {
      "midi": 80,
      "hit": false,
      "t": 213600,
      "d": 45,
      "v": 56
    },
    {
      "midi": 83,
      "hit": false,
      "t": 213600,
      "d": 45,
      "v": 53
    },
    {
      "midi": 76,
      "hit": false,
      "t": 213600,
      "d": 65,
      "v": 56
    },
    {
      "midi": 71,
      "hit": false,
      "t": 213600,
      "d": 80,
      "v": 41
    },
    {
      "midi": 56,
      "hit": false,
      "t": 213600,
      "d": 90,
      "v": 51
    },
    {
      "midi": 64,
      "hit": false,
      "t": 213600,
      "d": 185,
      "v": 17
    },
    {
      "midi": 80,
      "hit": false,
      "t": 214200,
      "d": 815,
      "v": 56
    },
    {
      "midi": 76,
      "hit": false,
      "t": 214200,
      "d": 830,
      "v": 53
    },
    {
      "midi": 83,
      "hit": false,
      "t": 214200,
      "d": 830,
      "v": 56
    },
    {
      "midi": 71,
      "hit": false,
      "t": 214200,
      "d": 835,
      "v": 42
    },
    {
      "midi": 56,
      "hit": false,
      "t": 214200,
      "d": 845,
      "v": 47
    },
    {
      "midi": 64,
      "hit": false,
      "t": 214200,
      "d": 1655,
      "v": 24
    },
    {
      "midi": 71,
      "hit": false,
      "t": 215100,
      "d": 445,
      "v": 39
    },
    {
      "midi": 56,
      "hit": false,
      "t": 215100,
      "d": 480,
      "v": 60
    },
    {
      "midi": 76,
      "hit": false,
      "t": 215100,
      "d": 605,
      "v": 51
    },
    {
      "midi": 83,
      "hit": false,
      "t": 215100,
      "d": 630,
      "v": 56
    },
    {
      "midi": 80,
      "hit": false,
      "t": 215100,
      "d": 645,
      "v": 50
    },
    {
      "midi": 64,
      "hit": false,
      "t": 216000,
      "d": 395,
      "v": 95
    },
    {
      "midi": 76,
      "hit": false,
      "t": 216450,
      "d": 645,
      "v": 78
    },
    {
      "midi": 50,
      "hit": false,
      "t": 216450,
      "d": 4070,
      "v": 65
    },
    {
      "midi": 66,
      "hit": false,
      "t": 216900,
      "d": 1640,
      "v": 78
    },
    {
      "midi": 57,
      "hit": false,
      "t": 216900,
      "d": 3620,
      "v": 65
    },
    {
      "midi": 78,
      "hit": false,
      "t": 217200,
      "d": 440,
      "v": 82
    },
    {
      "midi": 69,
      "hit": false,
      "t": 217650,
      "d": 555,
      "v": 71
    },
    {
      "midi": 62,
      "hit": false,
      "t": 217650,
      "d": 615,
      "v": 58
    },
    {
      "midi": 76,
      "hit": false,
      "t": 218100,
      "d": 875,
      "v": 80
    },
    {
      "midi": 74,
      "hit": false,
      "t": 218400,
      "d": 440,
      "v": 76
    },
    {
      "midi": 62,
      "hit": false,
      "t": 218400,
      "d": 1975,
      "v": 66
    },
    {
      "midi": 64,
      "hit": false,
      "t": 218850,
      "d": 1545,
      "v": 88
    },
    {
      "midi": 76,
      "hit": false,
      "t": 219300,
      "d": 1155,
      "v": 85
    },
    {
      "midi": 71,
      "hit": false,
      "t": 219600,
      "d": 600,
      "v": 80
    },
    {
      "midi": 69,
      "hit": false,
      "t": 220200,
      "d": 295,
      "v": 78
    },
    {
      "midi": 69,
      "hit": false,
      "t": 220800,
      "d": 80,
      "v": 66
    },
    {
      "midi": 76,
      "hit": false,
      "t": 220800,
      "d": 80,
      "v": 75
    },
    {
      "midi": 57,
      "hit": false,
      "t": 220800,
      "d": 90,
      "v": 59
    },
    {
      "midi": 85,
      "hit": false,
      "t": 220800,
      "d": 90,
      "v": 66
    },
    {
      "midi": 64,
      "hit": false,
      "t": 220800,
      "d": 100,
      "v": 42
    },
    {
      "midi": 57,
      "hit": false,
      "t": 221400,
      "d": 760,
      "v": 28
    },
    {
      "midi": 69,
      "hit": false,
      "t": 221400,
      "d": 760,
      "v": 21
    },
    {
      "midi": 76,
      "hit": false,
      "t": 221400,
      "d": 770,
      "v": 48
    },
    {
      "midi": 85,
      "hit": false,
      "t": 221400,
      "d": 805,
      "v": 60
    },
    {
      "midi": 64,
      "hit": false,
      "t": 221400,
      "d": 1050,
      "v": 23
    },
    {
      "midi": 57,
      "hit": false,
      "t": 222300,
      "d": 40,
      "v": 59
    },
    {
      "midi": 69,
      "hit": false,
      "t": 222300,
      "d": 50,
      "v": 57
    },
    {
      "midi": 76,
      "hit": false,
      "t": 222300,
      "d": 85,
      "v": 67
    },
    {
      "midi": 85,
      "hit": false,
      "t": 222300,
      "d": 95,
      "v": 65
    },
    {
      "midi": 57,
      "hit": false,
      "t": 222750,
      "d": 45,
      "v": 67
    },
    {
      "midi": 69,
      "hit": false,
      "t": 222750,
      "d": 50,
      "v": 45
    },
    {
      "midi": 76,
      "hit": false,
      "t": 222750,
      "d": 85,
      "v": 76
    },
    {
      "midi": 85,
      "hit": false,
      "t": 222750,
      "d": 100,
      "v": 79
    },
    {
      "midi": 64,
      "hit": false,
      "t": 222750,
      "d": 195,
      "v": 41
    },
    {
      "midi": 80,
      "hit": false,
      "t": 223200,
      "d": 45,
      "v": 56
    },
    {
      "midi": 83,
      "hit": false,
      "t": 223200,
      "d": 45,
      "v": 53
    },
    {
      "midi": 76,
      "hit": false,
      "t": 223200,
      "d": 65,
      "v": 56
    },
    {
      "midi": 71,
      "hit": false,
      "t": 223200,
      "d": 80,
      "v": 41
    },
    {
      "midi": 56,
      "hit": false,
      "t": 223200,
      "d": 90,
      "v": 51
    },
    {
      "midi": 64,
      "hit": false,
      "t": 223200,
      "d": 185,
      "v": 17
    },
    {
      "midi": 80,
      "hit": false,
      "t": 223800,
      "d": 815,
      "v": 56
    },
    {
      "midi": 76,
      "hit": false,
      "t": 223800,
      "d": 830,
      "v": 53
    },
    {
      "midi": 83,
      "hit": false,
      "t": 223800,
      "d": 830,
      "v": 56
    },
    {
      "midi": 71,
      "hit": false,
      "t": 223800,
      "d": 835,
      "v": 42
    },
    {
      "midi": 56,
      "hit": false,
      "t": 223800,
      "d": 845,
      "v": 47
    },
    {
      "midi": 64,
      "hit": false,
      "t": 223800,
      "d": 1655,
      "v": 24
    },
    {
      "midi": 71,
      "hit": false,
      "t": 224700,
      "d": 445,
      "v": 39
    },
    {
      "midi": 56,
      "hit": false,
      "t": 224700,
      "d": 480,
      "v": 60
    },
    {
      "midi": 76,
      "hit": false,
      "t": 224700,
      "d": 605,
      "v": 51
    },
    {
      "midi": 83,
      "hit": false,
      "t": 224700,
      "d": 630,
      "v": 56
    },
    {
      "midi": 80,
      "hit": false,
      "t": 224700,
      "d": 645,
      "v": 50
    },
    {
      "midi": 80,
      "hit": false,
      "t": 225600,
      "d": 90,
      "v": 65
    },
    {
      "midi": 76,
      "hit": false,
      "t": 225600,
      "d": 95,
      "v": 57
    },
    {
      "midi": 83,
      "hit": false,
      "t": 225600,
      "d": 95,
      "v": 66
    },
    {
      "midi": 69,
      "hit": false,
      "t": 225600,
      "d": 115,
      "v": 32
    },
    {
      "midi": 54,
      "hit": false,
      "t": 225600,
      "d": 150,
      "v": 51
    },
    {
      "midi": 64,
      "hit": false,
      "t": 225600,
      "d": 185,
      "v": 19
    },
    {
      "midi": 81,
      "hit": false,
      "t": 226200,
      "d": 820,
      "v": 53
    },
    {
      "midi": 76,
      "hit": false,
      "t": 226200,
      "d": 845,
      "v": 54
    },
    {
      "midi": 85,
      "hit": false,
      "t": 226200,
      "d": 850,
      "v": 53
    },
    {
      "midi": 69,
      "hit": false,
      "t": 226200,
      "d": 865,
      "v": 28
    },
    {
      "midi": 54,
      "hit": false,
      "t": 226200,
      "d": 880,
      "v": 47
    },
    {
      "midi": 64,
      "hit": false,
      "t": 226200,
      "d": 925,
      "v": 39
    },
    {
      "midi": 61,
      "hit": false,
      "t": 227700,
      "d": 35,
      "v": 60
    },
    {
      "midi": 76,
      "hit": false,
      "t": 227700,
      "d": 45,
      "v": 54
    },
    {
      "midi": 80,
      "hit": false,
      "t": 227700,
      "d": 95,
      "v": 64
    },
    {
      "midi": 54,
      "hit": false,
      "t": 228000,
      "d": 340,
      "v": 32
    },
    {
      "midi": 69,
      "hit": false,
      "t": 228000,
      "d": 355,
      "v": 34
    },
    {
      "midi": 76,
      "hit": false,
      "t": 228000,
      "d": 355,
      "v": 29
    },
    {
      "midi": 61,
      "hit": false,
      "t": 228000,
      "d": 365,
      "v": 45
    },
    {
      "midi": 80,
      "hit": false,
      "t": 228000,
      "d": 420,
      "v": 45
    },
    {
      "midi": 71,
      "hit": false,
      "t": 228450,
      "d": 590,
      "v": 45
    },
    {
      "midi": 81,
      "hit": false,
      "t": 228450,
      "d": 730,
      "v": 54
    },
    {
      "midi": 76,
      "hit": false,
      "t": 228450,
      "d": 740,
      "v": 31
    },
    {
      "midi": 54,
      "hit": false,
      "t": 228450,
      "d": 795,
      "v": 40
    },
    {
      "midi": 61,
      "hit": false,
      "t": 228450,
      "d": 810,
      "v": 51
    },
    {
      "midi": 54,
      "hit": false,
      "t": 229500,
      "d": 330,
      "v": 36
    },
    {
      "midi": 68,
      "hit": false,
      "t": 229500,
      "d": 350,
      "v": 66
    },
    {
      "midi": 76,
      "hit": false,
      "t": 229500,
      "d": 355,
      "v": 55
    },
    {
      "midi": 61,
      "hit": false,
      "t": 229500,
      "d": 365,
      "v": 46
    },
    {
      "midi": 80,
      "hit": false,
      "t": 229500,
      "d": 405,
      "v": 57
    },
    {
      "midi": 69,
      "hit": false,
      "t": 229950,
      "d": 215,
      "v": 54
    },
    {
      "midi": 81,
      "hit": false,
      "t": 229950,
      "d": 225,
      "v": 69
    },
    {
      "midi": 76,
      "hit": false,
      "t": 229950,
      "d": 255,
      "v": 46
    },
    {
      "midi": 54,
      "hit": false,
      "t": 229950,
      "d": 300,
      "v": 35
    },
    {
      "midi": 61,
      "hit": false,
      "t": 229950,
      "d": 305,
      "v": 43
    },
    {
      "midi": 76,
      "hit": false,
      "t": 230250,
      "d": 30,
      "v": 58
    },
    {
      "midi": 71,
      "hit": false,
      "t": 230250,
      "d": 40,
      "v": 63
    },
    {
      "midi": 83,
      "hit": false,
      "t": 230250,
      "d": 65,
      "v": 72
    },
    {
      "midi": 69,
      "hit": false,
      "t": 230400,
      "d": 80,
      "v": 66
    },
    {
      "midi": 76,
      "hit": false,
      "t": 230400,
      "d": 80,
      "v": 75
    },
    {
      "midi": 57,
      "hit": false,
      "t": 230400,
      "d": 90,
      "v": 59
    },
    {
      "midi": 85,
      "hit": false,
      "t": 230400,
      "d": 90,
      "v": 66
    },
    {
      "midi": 64,
      "hit": false,
      "t": 230400,
      "d": 100,
      "v": 42
    },
    {
      "midi": 57,
      "hit": false,
      "t": 231000,
      "d": 760,
      "v": 28
    },
    {
      "midi": 69,
      "hit": false,
      "t": 231000,
      "d": 760,
      "v": 21
    },
    {
      "midi": 76,
      "hit": false,
      "t": 231000,
      "d": 770,
      "v": 48
    },
    {
      "midi": 85,
      "hit": false,
      "t": 231000,
      "d": 805,
      "v": 60
    },
    {
      "midi": 64,
      "hit": false,
      "t": 231000,
      "d": 1050,
      "v": 23
    },
    {
      "midi": 57,
      "hit": false,
      "t": 231900,
      "d": 40,
      "v": 59
    },
    {
      "midi": 69,
      "hit": false,
      "t": 231900,
      "d": 50,
      "v": 57
    },
    {
      "midi": 76,
      "hit": false,
      "t": 231900,
      "d": 85,
      "v": 67
    },
    {
      "midi": 85,
      "hit": false,
      "t": 231900,
      "d": 95,
      "v": 65
    },
    {
      "midi": 57,
      "hit": false,
      "t": 232350,
      "d": 45,
      "v": 67
    },
    {
      "midi": 69,
      "hit": false,
      "t": 232350,
      "d": 50,
      "v": 45
    },
    {
      "midi": 76,
      "hit": false,
      "t": 232350,
      "d": 85,
      "v": 76
    },
    {
      "midi": 85,
      "hit": false,
      "t": 232350,
      "d": 100,
      "v": 79
    },
    {
      "midi": 64,
      "hit": false,
      "t": 232350,
      "d": 195,
      "v": 41
    },
    {
      "midi": 80,
      "hit": false,
      "t": 232800,
      "d": 45,
      "v": 56
    },
    {
      "midi": 83,
      "hit": false,
      "t": 232800,
      "d": 45,
      "v": 53
    },
    {
      "midi": 76,
      "hit": false,
      "t": 232800,
      "d": 65,
      "v": 56
    },
    {
      "midi": 71,
      "hit": false,
      "t": 232800,
      "d": 80,
      "v": 41
    },
    {
      "midi": 56,
      "hit": false,
      "t": 232800,
      "d": 90,
      "v": 51
    },
    {
      "midi": 64,
      "hit": false,
      "t": 232800,
      "d": 185,
      "v": 17
    },
    {
      "midi": 80,
      "hit": false,
      "t": 233400,
      "d": 815,
      "v": 56
    },
    {
      "midi": 76,
      "hit": false,
      "t": 233400,
      "d": 830,
      "v": 53
    },
    {
      "midi": 83,
      "hit": false,
      "t": 233400,
      "d": 830,
      "v": 56
    },
    {
      "midi": 71,
      "hit": false,
      "t": 233400,
      "d": 835,
      "v": 42
    },
    {
      "midi": 56,
      "hit": false,
      "t": 233400,
      "d": 845,
      "v": 47
    },
    {
      "midi": 64,
      "hit": false,
      "t": 233400,
      "d": 1655,
      "v": 24
    },
    {
      "midi": 71,
      "hit": false,
      "t": 234300,
      "d": 445,
      "v": 39
    },
    {
      "midi": 56,
      "hit": false,
      "t": 234300,
      "d": 480,
      "v": 60
    },
    {
      "midi": 76,
      "hit": false,
      "t": 234300,
      "d": 605,
      "v": 51
    },
    {
      "midi": 83,
      "hit": false,
      "t": 234300,
      "d": 630,
      "v": 56
    },
    {
      "midi": 80,
      "hit": false,
      "t": 234300,
      "d": 645,
      "v": 50
    },
    {
      "midi": 80,
      "hit": false,
      "t": 235200,
      "d": 90,
      "v": 65
    },
    {
      "midi": 76,
      "hit": false,
      "t": 235200,
      "d": 95,
      "v": 57
    },
    {
      "midi": 83,
      "hit": false,
      "t": 235200,
      "d": 95,
      "v": 66
    },
    {
      "midi": 69,
      "hit": false,
      "t": 235200,
      "d": 115,
      "v": 32
    },
    {
      "midi": 54,
      "hit": false,
      "t": 235200,
      "d": 150,
      "v": 51
    },
    {
      "midi": 64,
      "hit": false,
      "t": 235200,
      "d": 185,
      "v": 19
    },
    {
      "midi": 81,
      "hit": false,
      "t": 235800,
      "d": 820,
      "v": 53
    },
    {
      "midi": 76,
      "hit": false,
      "t": 235800,
      "d": 845,
      "v": 54
    },
    {
      "midi": 85,
      "hit": false,
      "t": 235800,
      "d": 850,
      "v": 53
    },
    {
      "midi": 69,
      "hit": false,
      "t": 235800,
      "d": 865,
      "v": 28
    },
    {
      "midi": 54,
      "hit": false,
      "t": 235800,
      "d": 880,
      "v": 47
    },
    {
      "midi": 64,
      "hit": false,
      "t": 235800,
      "d": 925,
      "v": 39
    },
    {
      "midi": 61,
      "hit": false,
      "t": 237300,
      "d": 35,
      "v": 60
    },
    {
      "midi": 76,
      "hit": false,
      "t": 237300,
      "d": 45,
      "v": 54
    },
    {
      "midi": 80,
      "hit": false,
      "t": 237300,
      "d": 95,
      "v": 64
    },
    {
      "midi": 54,
      "hit": false,
      "t": 237600,
      "d": 340,
      "v": 32
    },
    {
      "midi": 69,
      "hit": false,
      "t": 237600,
      "d": 355,
      "v": 34
    },
    {
      "midi": 76,
      "hit": false,
      "t": 237600,
      "d": 355,
      "v": 29
    },
    {
      "midi": 61,
      "hit": false,
      "t": 237600,
      "d": 365,
      "v": 45
    },
    {
      "midi": 80,
      "hit": false,
      "t": 237600,
      "d": 420,
      "v": 45
    },
    {
      "midi": 71,
      "hit": false,
      "t": 238050,
      "d": 590,
      "v": 45
    },
    {
      "midi": 81,
      "hit": false,
      "t": 238050,
      "d": 730,
      "v": 54
    },
    {
      "midi": 76,
      "hit": false,
      "t": 238050,
      "d": 740,
      "v": 31
    },
    {
      "midi": 54,
      "hit": false,
      "t": 238050,
      "d": 795,
      "v": 40
    },
    {
      "midi": 61,
      "hit": false,
      "t": 238050,
      "d": 810,
      "v": 51
    },
    {
      "midi": 54,
      "hit": false,
      "t": 239100,
      "d": 330,
      "v": 36
    },
    {
      "midi": 68,
      "hit": false,
      "t": 239100,
      "d": 350,
      "v": 66
    },
    {
      "midi": 76,
      "hit": false,
      "t": 239100,
      "d": 355,
      "v": 55
    },
    {
      "midi": 61,
      "hit": false,
      "t": 239100,
      "d": 365,
      "v": 46
    },
    {
      "midi": 80,
      "hit": false,
      "t": 239100,
      "d": 405,
      "v": 57
    },
    {
      "midi": 69,
      "hit": false,
      "t": 239550,
      "d": 215,
      "v": 54
    },
    {
      "midi": 81,
      "hit": false,
      "t": 239550,
      "d": 225,
      "v": 69
    },
    {
      "midi": 76,
      "hit": false,
      "t": 239550,
      "d": 255,
      "v": 46
    },
    {
      "midi": 54,
      "hit": false,
      "t": 239550,
      "d": 300,
      "v": 35
    },
    {
      "midi": 61,
      "hit": false,
      "t": 239550,
      "d": 305,
      "v": 43
    },
    {
      "midi": 76,
      "hit": false,
      "t": 239850,
      "d": 30,
      "v": 58
    },
    {
      "midi": 71,
      "hit": false,
      "t": 239850,
      "d": 40,
      "v": 63
    },
    {
      "midi": 83,
      "hit": false,
      "t": 239850,
      "d": 65,
      "v": 72
    },
    {
      "midi": 69,
      "hit": false,
      "t": 240000,
      "d": 80,
      "v": 66
    },
    {
      "midi": 76,
      "hit": false,
      "t": 240000,
      "d": 80,
      "v": 75
    },
    {
      "midi": 57,
      "hit": false,
      "t": 240000,
      "d": 90,
      "v": 59
    },
    {
      "midi": 85,
      "hit": false,
      "t": 240000,
      "d": 90,
      "v": 66
    },
    {
      "midi": 64,
      "hit": false,
      "t": 240000,
      "d": 100,
      "v": 42
    },
    {
      "midi": 57,
      "hit": false,
      "t": 240600,
      "d": 760,
      "v": 28
    },
    {
      "midi": 69,
      "hit": false,
      "t": 240600,
      "d": 760,
      "v": 21
    },
    {
      "midi": 76,
      "hit": false,
      "t": 240600,
      "d": 770,
      "v": 48
    },
    {
      "midi": 85,
      "hit": false,
      "t": 240600,
      "d": 805,
      "v": 60
    },
    {
      "midi": 64,
      "hit": false,
      "t": 240600,
      "d": 1050,
      "v": 23
    },
    {
      "midi": 57,
      "hit": false,
      "t": 241500,
      "d": 40,
      "v": 59
    },
    {
      "midi": 69,
      "hit": false,
      "t": 241500,
      "d": 50,
      "v": 57
    },
    {
      "midi": 76,
      "hit": false,
      "t": 241500,
      "d": 85,
      "v": 67
    },
    {
      "midi": 85,
      "hit": false,
      "t": 241500,
      "d": 95,
      "v": 65
    },
    {
      "midi": 57,
      "hit": false,
      "t": 241950,
      "d": 45,
      "v": 67
    },
    {
      "midi": 69,
      "hit": false,
      "t": 241950,
      "d": 50,
      "v": 45
    },
    {
      "midi": 76,
      "hit": false,
      "t": 241950,
      "d": 85,
      "v": 76
    },
    {
      "midi": 85,
      "hit": false,
      "t": 241950,
      "d": 100,
      "v": 79
    },
    {
      "midi": 64,
      "hit": false,
      "t": 241950,
      "d": 195,
      "v": 41
    },
    {
      "midi": 80,
      "hit": false,
      "t": 242400,
      "d": 45,
      "v": 56
    },
    {
      "midi": 83,
      "hit": false,
      "t": 242400,
      "d": 45,
      "v": 53
    },
    {
      "midi": 76,
      "hit": false,
      "t": 242400,
      "d": 65,
      "v": 56
    },
    {
      "midi": 71,
      "hit": false,
      "t": 242400,
      "d": 80,
      "v": 41
    },
    {
      "midi": 56,
      "hit": false,
      "t": 242400,
      "d": 90,
      "v": 51
    },
    {
      "midi": 64,
      "hit": false,
      "t": 242400,
      "d": 185,
      "v": 17
    },
    {
      "midi": 80,
      "hit": false,
      "t": 243000,
      "d": 815,
      "v": 56
    },
    {
      "midi": 76,
      "hit": false,
      "t": 243000,
      "d": 830,
      "v": 53
    },
    {
      "midi": 83,
      "hit": false,
      "t": 243000,
      "d": 830,
      "v": 56
    },
    {
      "midi": 71,
      "hit": false,
      "t": 243000,
      "d": 835,
      "v": 42
    },
    {
      "midi": 56,
      "hit": false,
      "t": 243000,
      "d": 845,
      "v": 47
    },
    {
      "midi": 64,
      "hit": false,
      "t": 243000,
      "d": 1655,
      "v": 24
    },
    {
      "midi": 71,
      "hit": false,
      "t": 243900,
      "d": 445,
      "v": 39
    },
    {
      "midi": 56,
      "hit": false,
      "t": 243900,
      "d": 480,
      "v": 60
    },
    {
      "midi": 76,
      "hit": false,
      "t": 243900,
      "d": 605,
      "v": 51
    },
    {
      "midi": 83,
      "hit": false,
      "t": 243900,
      "d": 630,
      "v": 56
    },
    {
      "midi": 80,
      "hit": false,
      "t": 243900,
      "d": 645,
      "v": 50
    },
    {
      "midi": 66,
      "hit": false,
      "t": 244800,
      "d": 80,
      "v": 80
    },
    {
      "midi": 69,
      "hit": false,
      "t": 244800,
      "d": 80,
      "v": 91
    },
    {
      "midi": 76,
      "hit": false,
      "t": 244800,
      "d": 80,
      "v": 95
    },
    {
      "midi": 62,
      "hit": false,
      "t": 244800,
      "d": 85,
      "v": 82
    },
    {
      "midi": 81,
      "hit": false,
      "t": 244800,
      "d": 85,
      "v": 98
    },
    {
      "midi": 86,
      "hit": false,
      "t": 244800,
      "d": 105,
      "v": 95
    },
    {
      "midi": 57,
      "hit": false,
      "t": 244800,
      "d": 115,
      "v": 74
    },
    {
      "midi": 86,
      "hit": false,
      "t": 245400,
      "d": 2445,
      "v": 85
    },
    {
      "midi": 81,
      "hit": false,
      "t": 245400,
      "d": 2465,
      "v": 88
    },
    {
      "midi": 76,
      "hit": false,
      "t": 245400,
      "d": 3955,
      "v": 85
    },
    {
      "midi": 69,
      "hit": false,
      "t": 245400,
      "d": 4080,
      "v": 80
    },
    {
      "midi": 66,
      "hit": false,
      "t": 245400,
      "d": 4115,
      "v": 74
    },
    {
      "midi": 62,
      "hit": false,
      "t": 245400,
      "d": 4120,
      "v": 82
    },
    {
      "midi": 57,
      "hit": false,
      "t": 245400,
      "d": 4155,
      "v": 71
    },
    {
      "midi": 80,
      "hit": false,
      "t": 248100,
      "d": 540,
      "v": 88
    },
    {
      "midi": 81,
      "hit": false,
      "t": 248700,
      "d": 485,
      "v": 85
    },
    {
      "midi": 80,
      "hit": false,
      "t": 249300,
      "d": 80,
      "v": 82
    },
    {
      "midi": 83,
      "hit": false,
      "t": 249300,
      "d": 110,
      "v": 63
    },
    {
      "midi": 69,
      "hit": false,
      "t": 249600,
      "d": 160,
      "v": 29
    },
    {
      "midi": 73,
      "hit": false,
      "t": 249600,
      "d": 190,
      "v": 43
    },
    {
      "midi": 76,
      "hit": false,
      "t": 249600,
      "d": 190,
      "v": 46
    },
    {
      "midi": 81,
      "hit": false,
      "t": 249600,
      "d": 195,
      "v": 46
    },
    {
      "midi": 57,
      "hit": false,
      "t": 249600,
      "d": 205,
      "v": 33
    },
    {
      "midi": 85,
      "hit": false,
      "t": 249600,
      "d": 245,
      "v": 51
    },
    {
      "midi": 64,
      "hit": false,
      "t": 249600,
      "d": 255,
      "v": 32
    },
    {
      "midi": 57,
      "hit": false,
      "t": 250200,
      "d": 1405,
      "v": 36
    },
    {
      "midi": 69,
      "hit": false,
      "t": 250200,
      "d": 1415,
      "v": 31
    },
    {
      "midi": 81,
      "hit": false,
      "t": 250200,
      "d": 1415,
      "v": 45
    },
    {
      "midi": 76,
      "hit": false,
      "t": 250200,
      "d": 1455,
      "v": 46
    },
    {
      "midi": 73,
      "hit": false,
      "t": 250200,
      "d": 1485,
      "v": 48
    },
    {
      "midi": 85,
      "hit": false,
      "t": 250200,
      "d": 1495,
      "v": 58
    },
    {
      "midi": 64,
      "hit": false,
      "t": 250200,
      "d": 1545,
      "v": 35
    },
    {
      "midi": 76,
      "hit": false,
      "t": 252000,
      "d": 100,
      "v": 57
    },
    {
      "midi": 73,
      "hit": false,
      "t": 252000,
      "d": 120,
      "v": 58
    },
    {
      "midi": 80,
      "hit": false,
      "t": 252000,
      "d": 125,
      "v": 58
    },
    {
      "midi": 56,
      "hit": false,
      "t": 252000,
      "d": 140,
      "v": 49
    },
    {
      "midi": 64,
      "hit": false,
      "t": 252000,
      "d": 165,
      "v": 55
    },
    {
      "midi": 85,
      "hit": false,
      "t": 252000,
      "d": 185,
      "v": 64
    },
    {
      "midi": 56,
      "hit": false,
      "t": 252600,
      "d": 1400,
      "v": 43
    },
    {
      "midi": 64,
      "hit": false,
      "t": 252600,
      "d": 1450,
      "v": 34
    },
    {
      "midi": 83,
      "hit": false,
      "t": 252600,
      "d": 1470,
      "v": 54
    },
    {
      "midi": 76,
      "hit": false,
      "t": 252600,
      "d": 1475,
      "v": 39
    },
    {
      "midi": 80,
      "hit": false,
      "t": 252600,
      "d": 1475,
      "v": 48
    },
    {
      "midi": 73,
      "hit": false,
      "t": 252600,
      "d": 1490,
      "v": 34
    },
    {
      "midi": 61,
      "hit": false,
      "t": 254400,
      "d": 170,
      "v": 37
    },
    {
      "midi": 76,
      "hit": false,
      "t": 254400,
      "d": 175,
      "v": 49
    },
    {
      "midi": 73,
      "hit": false,
      "t": 254400,
      "d": 185,
      "v": 51
    },
    {
      "midi": 54,
      "hit": false,
      "t": 254400,
      "d": 195,
      "v": 37
    },
    {
      "midi": 80,
      "hit": false,
      "t": 254400,
      "d": 225,
      "v": 51
    },
    {
      "midi": 64,
      "hit": false,
      "t": 254400,
      "d": 240,
      "v": 32
    },
    {
      "midi": 73,
      "hit": false,
      "t": 255000,
      "d": 1215,
      "v": 28
    },
    {
      "midi": 76,
      "hit": false,
      "t": 255000,
      "d": 1340,
      "v": 39
    },
    {
      "midi": 81,
      "hit": false,
      "t": 255000,
      "d": 1350,
      "v": 33
    },
    {
      "midi": 61,
      "hit": false,
      "t": 255000,
      "d": 1365,
      "v": 30
    },
    {
      "midi": 78,
      "hit": false,
      "t": 255000,
      "d": 1365,
      "v": 44
    },
    {
      "midi": 54,
      "hit": false,
      "t": 255000,
      "d": 1390,
      "v": 32
    },
    {
      "midi": 64,
      "hit": false,
      "t": 255000,
      "d": 1545,
      "v": 21
    },
    {
      "midi": 61,
      "hit": false,
      "t": 256500,
      "d": 35,
      "v": 60
    },
    {
      "midi": 76,
      "hit": false,
      "t": 256500,
      "d": 45,
      "v": 54
    },
    {
      "midi": 80,
      "hit": false,
      "t": 256500,
      "d": 95,
      "v": 64
    },
    {
      "midi": 54,
      "hit": false,
      "t": 256800,
      "d": 340,
      "v": 32
    },
    {
      "midi": 69,
      "hit": false,
      "t": 256800,
      "d": 355,
      "v": 34
    },
    {
      "midi": 76,
      "hit": false,
      "t": 256800,
      "d": 355,
      "v": 29
    },
    {
      "midi": 61,
      "hit": false,
      "t": 256800,
      "d": 365,
      "v": 45
    },
    {
      "midi": 80,
      "hit": false,
      "t": 256800,
      "d": 420,
      "v": 45
    },
    {
      "midi": 71,
      "hit": false,
      "t": 257250,
      "d": 590,
      "v": 45
    },
    {
      "midi": 81,
      "hit": false,
      "t": 257250,
      "d": 730,
      "v": 54
    },
    {
      "midi": 76,
      "hit": false,
      "t": 257250,
      "d": 740,
      "v": 31
    },
    {
      "midi": 54,
      "hit": false,
      "t": 257250,
      "d": 795,
      "v": 40
    },
    {
      "midi": 61,
      "hit": false,
      "t": 257250,
      "d": 810,
      "v": 51
    },
    {
      "midi": 54,
      "hit": false,
      "t": 258300,
      "d": 330,
      "v": 36
    },
    {
      "midi": 68,
      "hit": false,
      "t": 258300,
      "d": 350,
      "v": 66
    },
    {
      "midi": 76,
      "hit": false,
      "t": 258300,
      "d": 355,
      "v": 55
    },
    {
      "midi": 61,
      "hit": false,
      "t": 258300,
      "d": 365,
      "v": 46
    },
    {
      "midi": 80,
      "hit": false,
      "t": 258300,
      "d": 405,
      "v": 57
    },
    {
      "midi": 69,
      "hit": false,
      "t": 258750,
      "d": 215,
      "v": 54
    },
    {
      "midi": 81,
      "hit": false,
      "t": 258750,
      "d": 225,
      "v": 69
    },
    {
      "midi": 76,
      "hit": false,
      "t": 258750,
      "d": 255,
      "v": 46
    },
    {
      "midi": 54,
      "hit": false,
      "t": 258750,
      "d": 300,
      "v": 35
    },
    {
      "midi": 61,
      "hit": false,
      "t": 258750,
      "d": 305,
      "v": 43
    },
    {
      "midi": 76,
      "hit": false,
      "t": 259050,
      "d": 30,
      "v": 58
    },
    {
      "midi": 71,
      "hit": false,
      "t": 259050,
      "d": 40,
      "v": 63
    },
    {
      "midi": 83,
      "hit": false,
      "t": 259050,
      "d": 65,
      "v": 72
    },
    {
      "midi": 69,
      "hit": false,
      "t": 259200,
      "d": 80,
      "v": 66
    },
    {
      "midi": 76,
      "hit": false,
      "t": 259200,
      "d": 80,
      "v": 75
    },
    {
      "midi": 57,
      "hit": false,
      "t": 259200,
      "d": 90,
      "v": 59
    },
    {
      "midi": 85,
      "hit": false,
      "t": 259200,
      "d": 90,
      "v": 66
    },
    {
      "midi": 64,
      "hit": false,
      "t": 259200,
      "d": 100,
      "v": 42
    },
    {
      "midi": 57,
      "hit": false,
      "t": 259800,
      "d": 760,
      "v": 28
    },
    {
      "midi": 69,
      "hit": false,
      "t": 259800,
      "d": 760,
      "v": 21
    },
    {
      "midi": 76,
      "hit": false,
      "t": 259800,
      "d": 770,
      "v": 48
    },
    {
      "midi": 85,
      "hit": false,
      "t": 259800,
      "d": 805,
      "v": 60
    },
    {
      "midi": 64,
      "hit": false,
      "t": 259800,
      "d": 1050,
      "v": 23
    },
    {
      "midi": 57,
      "hit": false,
      "t": 260700,
      "d": 40,
      "v": 59
    },
    {
      "midi": 69,
      "hit": false,
      "t": 260700,
      "d": 50,
      "v": 57
    },
    {
      "midi": 76,
      "hit": false,
      "t": 260700,
      "d": 85,
      "v": 67
    },
    {
      "midi": 85,
      "hit": false,
      "t": 260700,
      "d": 95,
      "v": 65
    },
    {
      "midi": 57,
      "hit": false,
      "t": 261150,
      "d": 45,
      "v": 67
    },
    {
      "midi": 69,
      "hit": false,
      "t": 261150,
      "d": 50,
      "v": 45
    },
    {
      "midi": 76,
      "hit": false,
      "t": 261150,
      "d": 85,
      "v": 76
    },
    {
      "midi": 85,
      "hit": false,
      "t": 261150,
      "d": 100,
      "v": 79
    },
    {
      "midi": 64,
      "hit": false,
      "t": 261150,
      "d": 195,
      "v": 41
    },
    {
      "midi": 80,
      "hit": false,
      "t": 261600,
      "d": 45,
      "v": 56
    },
    {
      "midi": 83,
      "hit": false,
      "t": 261600,
      "d": 45,
      "v": 53
    },
    {
      "midi": 76,
      "hit": false,
      "t": 261600,
      "d": 65,
      "v": 56
    },
    {
      "midi": 71,
      "hit": false,
      "t": 261600,
      "d": 80,
      "v": 41
    },
    {
      "midi": 56,
      "hit": false,
      "t": 261600,
      "d": 90,
      "v": 51
    },
    {
      "midi": 64,
      "hit": false,
      "t": 261600,
      "d": 185,
      "v": 17
    },
    {
      "midi": 80,
      "hit": false,
      "t": 262200,
      "d": 815,
      "v": 56
    },
    {
      "midi": 76,
      "hit": false,
      "t": 262200,
      "d": 830,
      "v": 53
    },
    {
      "midi": 83,
      "hit": false,
      "t": 262200,
      "d": 830,
      "v": 56
    },
    {
      "midi": 71,
      "hit": false,
      "t": 262200,
      "d": 835,
      "v": 42
    },
    {
      "midi": 56,
      "hit": false,
      "t": 262200,
      "d": 845,
      "v": 47
    },
    {
      "midi": 64,
      "hit": false,
      "t": 262200,
      "d": 1655,
      "v": 24
    },
    {
      "midi": 71,
      "hit": false,
      "t": 263100,
      "d": 445,
      "v": 39
    },
    {
      "midi": 56,
      "hit": false,
      "t": 263100,
      "d": 480,
      "v": 60
    },
    {
      "midi": 76,
      "hit": false,
      "t": 263100,
      "d": 605,
      "v": 51
    },
    {
      "midi": 83,
      "hit": false,
      "t": 263100,
      "d": 630,
      "v": 56
    },
    {
      "midi": 80,
      "hit": false,
      "t": 263100,
      "d": 645,
      "v": 50
    },
    {
      "midi": 80,
      "hit": false,
      "t": 264000,
      "d": 90,
      "v": 65
    },
    {
      "midi": 76,
      "hit": false,
      "t": 264000,
      "d": 95,
      "v": 57
    },
    {
      "midi": 83,
      "hit": false,
      "t": 264000,
      "d": 95,
      "v": 66
    },
    {
      "midi": 69,
      "hit": false,
      "t": 264000,
      "d": 115,
      "v": 32
    },
    {
      "midi": 54,
      "hit": false,
      "t": 264000,
      "d": 150,
      "v": 51
    },
    {
      "midi": 64,
      "hit": false,
      "t": 264000,
      "d": 185,
      "v": 19
    },
    {
      "midi": 81,
      "hit": false,
      "t": 264600,
      "d": 820,
      "v": 53
    },
    {
      "midi": 76,
      "hit": false,
      "t": 264600,
      "d": 845,
      "v": 54
    },
    {
      "midi": 85,
      "hit": false,
      "t": 264600,
      "d": 850,
      "v": 53
    },
    {
      "midi": 69,
      "hit": false,
      "t": 264600,
      "d": 865,
      "v": 28
    },
    {
      "midi": 54,
      "hit": false,
      "t": 264600,
      "d": 880,
      "v": 47
    },
    {
      "midi": 64,
      "hit": false,
      "t": 264600,
      "d": 925,
      "v": 39
    },
    {
      "midi": 61,
      "hit": false,
      "t": 266100,
      "d": 35,
      "v": 60
    },
    {
      "midi": 76,
      "hit": false,
      "t": 266100,
      "d": 45,
      "v": 54
    },
    {
      "midi": 80,
      "hit": false,
      "t": 266100,
      "d": 95,
      "v": 64
    },
    {
      "midi": 54,
      "hit": false,
      "t": 266400,
      "d": 340,
      "v": 32
    },
    {
      "midi": 69,
      "hit": false,
      "t": 266400,
      "d": 355,
      "v": 34
    },
    {
      "midi": 76,
      "hit": false,
      "t": 266400,
      "d": 355,
      "v": 29
    },
    {
      "midi": 61,
      "hit": false,
      "t": 266400,
      "d": 365,
      "v": 45
    },
    {
      "midi": 80,
      "hit": false,
      "t": 266400,
      "d": 420,
      "v": 45
    },
    {
      "midi": 71,
      "hit": false,
      "t": 266850,
      "d": 590,
      "v": 45
    },
    {
      "midi": 81,
      "hit": false,
      "t": 266850,
      "d": 730,
      "v": 54
    },
    {
      "midi": 76,
      "hit": false,
      "t": 266850,
      "d": 740,
      "v": 31
    },
    {
      "midi": 54,
      "hit": false,
      "t": 266850,
      "d": 795,
      "v": 40
    },
    {
      "midi": 61,
      "hit": false,
      "t": 266850,
      "d": 810,
      "v": 51
    },
    {
      "midi": 54,
      "hit": false,
      "t": 267900,
      "d": 330,
      "v": 36
    },
    {
      "midi": 68,
      "hit": false,
      "t": 267900,
      "d": 350,
      "v": 66
    },
    {
      "midi": 76,
      "hit": false,
      "t": 267900,
      "d": 355,
      "v": 55
    },
    {
      "midi": 61,
      "hit": false,
      "t": 267900,
      "d": 365,
      "v": 46
    },
    {
      "midi": 80,
      "hit": false,
      "t": 267900,
      "d": 405,
      "v": 57
    },
    {
      "midi": 69,
      "hit": false,
      "t": 268350,
      "d": 215,
      "v": 54
    },
    {
      "midi": 81,
      "hit": false,
      "t": 268350,
      "d": 225,
      "v": 69
    },
    {
      "midi": 76,
      "hit": false,
      "t": 268350,
      "d": 255,
      "v": 46
    },
    {
      "midi": 54,
      "hit": false,
      "t": 268350,
      "d": 300,
      "v": 35
    },
    {
      "midi": 61,
      "hit": false,
      "t": 268350,
      "d": 305,
      "v": 43
    },
    {
      "midi": 76,
      "hit": false,
      "t": 268650,
      "d": 30,
      "v": 58
    },
    {
      "midi": 71,
      "hit": false,
      "t": 268650,
      "d": 40,
      "v": 63
    },
    {
      "midi": 83,
      "hit": false,
      "t": 268650,
      "d": 65,
      "v": 72
    },
    {
      "midi": 69,
      "hit": false,
      "t": 268800,
      "d": 160,
      "v": 29
    },
    {
      "midi": 73,
      "hit": false,
      "t": 268800,
      "d": 190,
      "v": 43
    },
    {
      "midi": 76,
      "hit": false,
      "t": 268800,
      "d": 190,
      "v": 46
    },
    {
      "midi": 81,
      "hit": false,
      "t": 268800,
      "d": 195,
      "v": 46
    },
    {
      "midi": 57,
      "hit": false,
      "t": 268800,
      "d": 205,
      "v": 33
    },
    {
      "midi": 85,
      "hit": false,
      "t": 268800,
      "d": 245,
      "v": 51
    },
    {
      "midi": 64,
      "hit": false,
      "t": 268800,
      "d": 255,
      "v": 32
    },
    {
      "midi": 57,
      "hit": false,
      "t": 269400,
      "d": 1405,
      "v": 36
    },
    {
      "midi": 69,
      "hit": false,
      "t": 269400,
      "d": 1415,
      "v": 31
    },
    {
      "midi": 81,
      "hit": false,
      "t": 269400,
      "d": 1415,
      "v": 45
    },
    {
      "midi": 76,
      "hit": false,
      "t": 269400,
      "d": 1455,
      "v": 46
    },
    {
      "midi": 73,
      "hit": false,
      "t": 269400,
      "d": 1485,
      "v": 48
    },
    {
      "midi": 85,
      "hit": false,
      "t": 269400,
      "d": 1495,
      "v": 58
    },
    {
      "midi": 64,
      "hit": false,
      "t": 269400,
      "d": 1545,
      "v": 35
    },
    {
      "midi": 76,
      "hit": false,
      "t": 271200,
      "d": 100,
      "v": 57
    },
    {
      "midi": 73,
      "hit": false,
      "t": 271200,
      "d": 120,
      "v": 58
    },
    {
      "midi": 80,
      "hit": false,
      "t": 271200,
      "d": 125,
      "v": 58
    },
    {
      "midi": 56,
      "hit": false,
      "t": 271200,
      "d": 140,
      "v": 49
    },
    {
      "midi": 64,
      "hit": false,
      "t": 271200,
      "d": 165,
      "v": 55
    },
    {
      "midi": 85,
      "hit": false,
      "t": 271200,
      "d": 185,
      "v": 64
    },
    {
      "midi": 56,
      "hit": false,
      "t": 271800,
      "d": 1400,
      "v": 43
    },
    {
      "midi": 64,
      "hit": false,
      "t": 271800,
      "d": 1450,
      "v": 34
    },
    {
      "midi": 83,
      "hit": false,
      "t": 271800,
      "d": 1470,
      "v": 54
    },
    {
      "midi": 76,
      "hit": false,
      "t": 271800,
      "d": 1475,
      "v": 39
    },
    {
      "midi": 80,
      "hit": false,
      "t": 271800,
      "d": 1475,
      "v": 48
    },
    {
      "midi": 73,
      "hit": false,
      "t": 271800,
      "d": 1490,
      "v": 34
    },
    {
      "midi": 61,
      "hit": false,
      "t": 273600,
      "d": 170,
      "v": 37
    },
    {
      "midi": 76,
      "hit": false,
      "t": 273600,
      "d": 175,
      "v": 49
    },
    {
      "midi": 73,
      "hit": false,
      "t": 273600,
      "d": 185,
      "v": 51
    },
    {
      "midi": 54,
      "hit": false,
      "t": 273600,
      "d": 195,
      "v": 37
    },
    {
      "midi": 80,
      "hit": false,
      "t": 273600,
      "d": 225,
      "v": 51
    },
    {
      "midi": 64,
      "hit": false,
      "t": 273600,
      "d": 240,
      "v": 32
    },
    {
      "midi": 73,
      "hit": false,
      "t": 274200,
      "d": 1215,
      "v": 28
    },
    {
      "midi": 76,
      "hit": false,
      "t": 274200,
      "d": 1340,
      "v": 39
    },
    {
      "midi": 81,
      "hit": false,
      "t": 274200,
      "d": 1350,
      "v": 33
    },
    {
      "midi": 61,
      "hit": false,
      "t": 274200,
      "d": 1365,
      "v": 30
    },
    {
      "midi": 78,
      "hit": false,
      "t": 274200,
      "d": 1365,
      "v": 44
    },
    {
      "midi": 54,
      "hit": false,
      "t": 274200,
      "d": 1390,
      "v": 32
    },
    {
      "midi": 64,
      "hit": false,
      "t": 274200,
      "d": 1545,
      "v": 21
    },
    {
      "midi": 61,
      "hit": false,
      "t": 275700,
      "d": 35,
      "v": 60
    },
    {
      "midi": 76,
      "hit": false,
      "t": 275700,
      "d": 45,
      "v": 54
    },
    {
      "midi": 80,
      "hit": false,
      "t": 275700,
      "d": 95,
      "v": 64
    },
    {
      "midi": 54,
      "hit": false,
      "t": 276000,
      "d": 340,
      "v": 32
    },
    {
      "midi": 69,
      "hit": false,
      "t": 276000,
      "d": 355,
      "v": 34
    },
    {
      "midi": 76,
      "hit": false,
      "t": 276000,
      "d": 355,
      "v": 29
    },
    {
      "midi": 61,
      "hit": false,
      "t": 276000,
      "d": 365,
      "v": 45
    },
    {
      "midi": 80,
      "hit": false,
      "t": 276000,
      "d": 420,
      "v": 45
    },
    {
      "midi": 71,
      "hit": false,
      "t": 276450,
      "d": 590,
      "v": 45
    },
    {
      "midi": 81,
      "hit": false,
      "t": 276450,
      "d": 730,
      "v": 54
    },
    {
      "midi": 76,
      "hit": false,
      "t": 276450,
      "d": 740,
      "v": 31
    },
    {
      "midi": 54,
      "hit": false,
      "t": 276450,
      "d": 795,
      "v": 40
    },
    {
      "midi": 61,
      "hit": false,
      "t": 276450,
      "d": 810,
      "v": 51
    },
    {
      "midi": 54,
      "hit": false,
      "t": 277500,
      "d": 330,
      "v": 36
    },
    {
      "midi": 68,
      "hit": false,
      "t": 277500,
      "d": 350,
      "v": 66
    },
    {
      "midi": 76,
      "hit": false,
      "t": 277500,
      "d": 355,
      "v": 55
    },
    {
      "midi": 61,
      "hit": false,
      "t": 277500,
      "d": 365,
      "v": 46
    },
    {
      "midi": 80,
      "hit": false,
      "t": 277500,
      "d": 405,
      "v": 57
    },
    {
      "midi": 69,
      "hit": false,
      "t": 277950,
      "d": 215,
      "v": 54
    },
    {
      "midi": 81,
      "hit": false,
      "t": 277950,
      "d": 225,
      "v": 69
    },
    {
      "midi": 76,
      "hit": false,
      "t": 277950,
      "d": 255,
      "v": 46
    },
    {
      "midi": 54,
      "hit": false,
      "t": 277950,
      "d": 300,
      "v": 35
    },
    {
      "midi": 61,
      "hit": false,
      "t": 277950,
      "d": 305,
      "v": 43
    },
    {
      "midi": 76,
      "hit": false,
      "t": 278250,
      "d": 30,
      "v": 58
    },
    {
      "midi": 71,
      "hit": false,
      "t": 278250,
      "d": 40,
      "v": 63
    },
    {
      "midi": 83,
      "hit": false,
      "t": 278250,
      "d": 65,
      "v": 72
    },
    {
      "midi": 69,
      "hit": false,
      "t": 278400,
      "d": 5815,
      "v": 65
    },
    {
      "midi": 76,
      "hit": false,
      "t": 278400,
      "d": 5825,
      "v": 61
    },
    {
      "midi": 85,
      "hit": false,
      "t": 278400,
      "d": 5850,
      "v": 66
    },
    {
      "midi": 81,
      "hit": false,
      "t": 278400,
      "d": 5855,
      "v": 73
    },
    {
      "midi": 64,
      "hit": false,
      "t": 278400,
      "d": 5860,
      "v": 64
    },
    {
      "midi": 57,
      "hit": false,
      "t": 278400,
      "d": 5880,
      "v": 59
    }
  ]
}