{
  "jsonPath": "Folk/Roots Americana/The B-Sides/chains-as-made-famous-by-the-beatles.json",
  "path": "Folk\\Roots Americana\\The B-Sides\\Chains (As made famous by The Beatles).mid",
  "name": "Chains (As made famous by The Beatles)",
  "difficulty": "Advanced",
  "bpm": 140.00014000014,
  "notes": [
    {
      "midi": 61,
      "hit": false,
      "t": 1714.284,
      "d": 878.5705499999999,
      "v": 80
    },
    {
      "midi": 64,
      "hit": false,
      "t": 1714.284,
      "d": 1449.9985499999998,
      "v": 90
    },
    {
      "midi": 69,
      "hit": false,
      "t": 1714.284,
      "d": 1560.7127249999999,
      "v": 92
    },
    {
      "midi": 52,
      "hit": false,
      "t": 1714.284,
      "d": 3367.853775000001,
      "v": 79
    },
    {
      "midi": 45,
      "hit": false,
      "t": 1714.284,
      "d": 3371.425200000001,
      "v": 81
    },
    {
      "midi": 64,
      "hit": false,
      "t": 3714.282,
      "d": 839.2848750000003,
      "v": 77
    },
    {
      "midi": 69,
      "hit": false,
      "t": 3999.996,
      "d": 392.8567499999999,
      "v": 78
    },
    {
      "midi": 76,
      "hit": false,
      "t": 4285.71,
      "d": 617.856525000001,
      "v": 77
    },
    {
      "midi": 64,
      "hit": false,
      "t": 4571.424000000001,
      "d": 471.4281000000001,
      "v": 73
    },
    {
      "midi": 73,
      "hit": false,
      "t": 4857.138000000001,
      "d": 185.71410000000014,
      "v": 86
    },
    {
      "midi": 57,
      "hit": false,
      "t": 5142.852000000001,
      "d": 1317.8558249999996,
      "v": 80
    },
    {
      "midi": 61,
      "hit": false,
      "t": 5142.852000000001,
      "d": 1317.8558249999996,
      "v": 86
    },
    {
      "midi": 52,
      "hit": false,
      "t": 5142.852000000001,
      "d": 2839.282875,
      "v": 75
    },
    {
      "midi": 45,
      "hit": false,
      "t": 5142.852000000001,
      "d": 2910.711375,
      "v": 69
    },
    {
      "midi": 64,
      "hit": false,
      "t": 7571.421,
      "d": 757.1421000000009,
      "v": 77
    },
    {
      "midi": 61,
      "hit": false,
      "t": 7714.278,
      "d": 614.285100000001,
      "v": 105
    },
    {
      "midi": 57,
      "hit": false,
      "t": 8142.849000000001,
      "d": 192.85695000000032,
      "v": 105
    },
    {
      "midi": 64,
      "hit": false,
      "t": 8571.420000000002,
      "d": 999.9989999999998,
      "v": 88
    },
    {
      "midi": 61,
      "hit": false,
      "t": 8571.420000000002,
      "d": 1017.8561250000002,
      "v": 73
    },
    {
      "midi": 55,
      "hit": false,
      "t": 8571.420000000002,
      "d": 2364.2833499999997,
      "v": 69
    },
    {
      "midi": 45,
      "hit": false,
      "t": 8571.420000000002,
      "d": 3096.425475,
      "v": 76
    },
    {
      "midi": 73,
      "hit": false,
      "t": 10571.418000000001,
      "d": 421.42814999999973,
      "v": 79
    },
    {
      "midi": 69,
      "hit": false,
      "t": 10857.132000000001,
      "d": 217.85692500000005,
      "v": 68
    },
    {
      "midi": 64,
      "hit": false,
      "t": 11142.846000000001,
      "d": 707.1421500000015,
      "v": 61
    },
    {
      "midi": 69,
      "hit": false,
      "t": 11428.560000000001,
      "d": 321.42825000000084,
      "v": 75
    },
    {
      "midi": 73,
      "hit": false,
      "t": 11714.274000000001,
      "d": 160.71412500000224,
      "v": 77
    },
    {
      "midi": 61,
      "hit": false,
      "t": 11999.988000000003,
      "d": 1149.99885,
      "v": 90
    },
    {
      "midi": 55,
      "hit": false,
      "t": 11999.988000000003,
      "d": 1632.1412249999994,
      "v": 74
    },
    {
      "midi": 45,
      "hit": false,
      "t": 11999.988000000003,
      "d": 1639.2840749999996,
      "v": 84
    },
    {
      "midi": 57,
      "hit": false,
      "t": 11999.988000000003,
      "d": 1639.2840749999996,
      "v": 86
    },
    {
      "midi": 64,
      "hit": false,
      "t": 13142.844000000003,
      "d": 542.8565999999992,
      "v": 83
    },
    {
      "midi": 61,
      "hit": false,
      "t": 13428.558000000003,
      "d": 203.57122499999969,
      "v": 90
    },
    {
      "midi": 55,
      "hit": false,
      "t": 13714.272000000003,
      "d": 921.4276499999996,
      "v": 74
    },
    {
      "midi": 57,
      "hit": false,
      "t": 13714.272000000003,
      "d": 992.8561499999996,
      "v": 71
    },
    {
      "midi": 61,
      "hit": false,
      "t": 13714.272000000003,
      "d": 1035.7132499999989,
      "v": 80
    },
    {
      "midi": 45,
      "hit": false,
      "t": 13714.272000000003,
      "d": 1657.1412,
      "v": 78
    },
    {
      "midi": 64,
      "hit": false,
      "t": 13714.272000000003,
      "d": 1689.2840250000008,
      "v": 73
    },
    {
      "midi": 52,
      "hit": false,
      "t": 14571.414000000002,
      "d": 799.9992000000002,
      "v": 86
    },
    {
      "midi": 55,
      "hit": false,
      "t": 14857.128000000002,
      "d": 478.57094999999936,
      "v": 90
    },
    {
      "midi": 57,
      "hit": false,
      "t": 15142.842000000002,
      "d": 192.85694999999942,
      "v": 90
    },
    {
      "midi": 66,
      "hit": false,
      "t": 15428.556000000004,
      "d": 2657.140199999998,
      "v": 82
    },
    {
      "midi": 64,
      "hit": false,
      "t": 15428.556000000004,
      "d": 2660.7116249999963,
      "v": 74
    },
    {
      "midi": 69,
      "hit": false,
      "t": 15428.556000000004,
      "d": 2721.425849999996,
      "v": 73
    },
    {
      "midi": 60,
      "hit": false,
      "t": 15428.556000000004,
      "d": 2857.139999999996,
      "v": 77
    },
    {
      "midi": 50,
      "hit": false,
      "t": 18285.696,
      "d": 185.71410000000105,
      "v": 82
    },
    {
      "midi": 66,
      "hit": false,
      "t": 18428.553,
      "d": 235.71405000000232,
      "v": 105
    },
    {
      "midi": 60,
      "hit": false,
      "t": 18428.553,
      "d": 239.2854750000006,
      "v": 88
    },
    {
      "midi": 64,
      "hit": false,
      "t": 18428.553,
      "d": 249.99974999999904,
      "v": 105
    },
    {
      "midi": 69,
      "hit": false,
      "t": 18428.553,
      "d": 271.4282999999996,
      "v": 100
    },
    {
      "midi": 64,
      "hit": false,
      "t": 18857.124,
      "d": 999.9989999999998,
      "v": 88
    },
    {
      "midi": 61,
      "hit": false,
      "t": 18857.124,
      "d": 1017.8561249999984,
      "v": 73
    },
    {
      "midi": 52,
      "hit": false,
      "t": 18857.124,
      "d": 2364.283349999998,
      "v": 69
    },
    {
      "midi": 45,
      "hit": false,
      "t": 18857.124,
      "d": 3096.425475,
      "v": 76
    },
    {
      "midi": 73,
      "hit": false,
      "t": 20857.122,
      "d": 421.42814999999973,
      "v": 79
    },
    {
      "midi": 69,
      "hit": false,
      "t": 21142.836,
      "d": 217.85692500000005,
      "v": 68
    },
    {
      "midi": 64,
      "hit": false,
      "t": 21428.55,
      "d": 707.1421499999997,
      "v": 61
    },
    {
      "midi": 69,
      "hit": false,
      "t": 21714.264,
      "d": 321.42825000000084,
      "v": 75
    },
    {
      "midi": 73,
      "hit": false,
      "t": 21999.978,
      "d": 160.7141249999986,
      "v": 77
    },
    {
      "midi": 66,
      "hit": false,
      "t": 22285.692,
      "d": 360.713925,
      "v": 83
    },
    {
      "midi": 62,
      "hit": false,
      "t": 22285.692,
      "d": 367.8567750000002,
      "v": 71
    },
    {
      "midi": 40,
      "hit": false,
      "t": 22285.692,
      "d": 1607.141249999997,
      "v": 80
    },
    {
      "midi": 56,
      "hit": false,
      "t": 22285.692,
      "d": 1607.141249999997,
      "v": 71
    },
    {
      "midi": 83,
      "hit": false,
      "t": 23142.834,
      "d": 521.4280499999986,
      "v": 86
    },
    {
      "midi": 78,
      "hit": false,
      "t": 23428.548,
      "d": 285.71399999999994,
      "v": 72
    },
    {
      "midi": 74,
      "hit": false,
      "t": 23714.262,
      "d": 160.7141249999986,
      "v": 71
    },
    {
      "midi": 50,
      "hit": false,
      "t": 23999.975999999995,
      "d": 1017.8561249999984,
      "v": 66
    },
    {
      "midi": 66,
      "hit": false,
      "t": 23999.975999999995,
      "d": 1092.8560499999985,
      "v": 77
    },
    {
      "midi": 60,
      "hit": false,
      "t": 23999.975999999995,
      "d": 1103.570324999997,
      "v": 78
    },
    {
      "midi": 64,
      "hit": false,
      "t": 23999.975999999995,
      "d": 1110.7131749999971,
      "v": 75
    },
    {
      "midi": 69,
      "hit": false,
      "t": 23999.975999999995,
      "d": 1124.9988749999975,
      "v": 77
    },
    {
      "midi": 50,
      "hit": false,
      "t": 25142.83199999999,
      "d": 378.57104999999865,
      "v": 81
    },
    {
      "midi": 66,
      "hit": false,
      "t": 25285.68899999999,
      "d": 221.42834999999832,
      "v": 94
    },
    {
      "midi": 60,
      "hit": false,
      "t": 25285.68899999999,
      "d": 246.42832499999713,
      "v": 88
    },
    {
      "midi": 64,
      "hit": false,
      "t": 25285.68899999999,
      "d": 246.42832499999713,
      "v": 88
    },
    {
      "midi": 69,
      "hit": false,
      "t": 25285.68899999999,
      "d": 257.1425999999956,
      "v": 90
    },
    {
      "midi": 61,
      "hit": false,
      "t": 25714.259999999987,
      "d": 1149.99885,
      "v": 90
    },
    {
      "midi": 52,
      "hit": false,
      "t": 25714.259999999987,
      "d": 1632.1412249999994,
      "v": 74
    },
    {
      "midi": 45,
      "hit": false,
      "t": 25714.259999999987,
      "d": 1639.2840749999996,
      "v": 84
    },
    {
      "midi": 57,
      "hit": false,
      "t": 25714.259999999987,
      "d": 1639.2840749999996,
      "v": 86
    },
    {
      "midi": 64,
      "hit": false,
      "t": 26857.115999999987,
      "d": 542.8565999999992,
      "v": 83
    },
    {
      "midi": 61,
      "hit": false,
      "t": 27142.829999999987,
      "d": 203.57122499999969,
      "v": 90
    },
    {
      "midi": 40,
      "hit": false,
      "t": 27428.543999999987,
      "d": 1017.8561249999984,
      "v": 66
    },
    {
      "midi": 62,
      "hit": false,
      "t": 27428.543999999987,
      "d": 1092.8560499999985,
      "v": 77
    },
    {
      "midi": 56,
      "hit": false,
      "t": 27428.543999999987,
      "d": 1103.570324999997,
      "v": 78
    },
    {
      "midi": 59,
      "hit": false,
      "t": 27428.543999999987,
      "d": 1110.7131749999971,
      "v": 75
    },
    {
      "midi": 64,
      "hit": false,
      "t": 27428.543999999987,
      "d": 1124.9988749999975,
      "v": 77
    },
    {
      "midi": 40,
      "hit": false,
      "t": 28571.399999999983,
      "d": 378.57104999999865,
      "v": 81
    },
    {
      "midi": 62,
      "hit": false,
      "t": 28714.256999999983,
      "d": 221.42834999999832,
      "v": 94
    },
    {
      "midi": 56,
      "hit": false,
      "t": 28714.256999999983,
      "d": 246.42832499999713,
      "v": 88
    },
    {
      "midi": 59,
      "hit": false,
      "t": 28714.256999999983,
      "d": 246.42832499999713,
      "v": 88
    },
    {
      "midi": 64,
      "hit": false,
      "t": 28714.256999999983,
      "d": 257.1425999999956,
      "v": 90
    },
    {
      "midi": 57,
      "hit": false,
      "t": 29142.82799999998,
      "d": 1317.8558249999987,
      "v": 80
    },
    {
      "midi": 61,
      "hit": false,
      "t": 29142.82799999998,
      "d": 1317.8558249999987,
      "v": 86
    },
    {
      "midi": 55,
      "hit": false,
      "t": 29142.82799999998,
      "d": 2839.282875000001,
      "v": 75
    },
    {
      "midi": 45,
      "hit": false,
      "t": 29142.82799999998,
      "d": 2910.7113750000026,
      "v": 69
    },
    {
      "midi": 67,
      "hit": false,
      "t": 31571.39699999998,
      "d": 757.1421000000046,
      "v": 77
    },
    {
      "midi": 61,
      "hit": false,
      "t": 31714.25399999998,
      "d": 614.2851000000046,
      "v": 105
    },
    {
      "midi": 64,
      "hit": false,
      "t": 31714.25399999998,
      "d": 614.2851000000046,
      "v": 73
    },
    {
      "midi": 57,
      "hit": false,
      "t": 32142.824999999983,
      "d": 192.85695000000123,
      "v": 105
    },
    {
      "midi": 45,
      "hit": false,
      "t": 32857.109999999986,
      "d": 1424.998575000005,
      "v": 79
    },
    {
      "midi": 55,
      "hit": false,
      "t": 32999.96699999999,
      "d": 1282.1415750000015,
      "v": 86
    },
    {
      "midi": 61,
      "hit": false,
      "t": 33285.68099999999,
      "d": 996.4275750000015,
      "v": 78
    },
    {
      "midi": 64,
      "hit": false,
      "t": 33285.68099999999,
      "d": 996.4275750000015,
      "v": 67
    },
    {
      "midi": 57,
      "hit": false,
      "t": 33285.68099999999,
      "d": 999.9990000000034,
      "v": 62
    },
    {
      "midi": 45,
      "hit": false,
      "t": 34285.67999999999,
      "d": 1017.8561249999984,
      "v": 66
    },
    {
      "midi": 61,
      "hit": false,
      "t": 34285.67999999999,
      "d": 1092.8560499999949,
      "v": 77
    },
    {
      "midi": 55,
      "hit": false,
      "t": 34285.67999999999,
      "d": 1103.5703249999933,
      "v": 78
    },
    {
      "midi": 57,
      "hit": false,
      "t": 34285.67999999999,
      "d": 1110.7131749999899,
      "v": 75
    },
    {
      "midi": 64,
      "hit": false,
      "t": 34285.67999999999,
      "d": 1124.9988749999902,
      "v": 77
    },
    {
      "midi": 45,
      "hit": false,
      "t": 35428.535999999986,
      "d": 378.5710500000059,
      "v": 81
    },
    {
      "midi": 61,
      "hit": false,
      "t": 35571.39299999999,
      "d": 221.42835000000196,
      "v": 94
    },
    {
      "midi": 55,
      "hit": false,
      "t": 35571.39299999999,
      "d": 246.42832500000077,
      "v": 88
    },
    {
      "midi": 57,
      "hit": false,
      "t": 35571.39299999999,
      "d": 246.42832500000077,
      "v": 88
    },
    {
      "midi": 64,
      "hit": false,
      "t": 35571.39299999999,
      "d": 257.1425999999992,
      "v": 90
    },
    {
      "midi": 69,
      "hit": false,
      "t": 35999.963999999985,
      "d": 999.9990000000034,
      "v": 88
    },
    {
      "midi": 66,
      "hit": false,
      "t": 35999.963999999985,
      "d": 1017.8561250000057,
      "v": 73
    },
    {
      "midi": 60,
      "hit": false,
      "t": 35999.963999999985,
      "d": 2364.283350000005,
      "v": 69
    },
    {
      "midi": 50,
      "hit": false,
      "t": 35999.963999999985,
      "d": 3096.4254750000036,
      "v": 76
    },
    {
      "midi": 78,
      "hit": false,
      "t": 37999.96199999999,
      "d": 421.42814999999973,
      "v": 79
    },
    {
      "midi": 76,
      "hit": false,
      "t": 38285.67599999999,
      "d": 217.85692500000005,
      "v": 68
    },
    {
      "midi": 69,
      "hit": false,
      "t": 38571.38999999999,
      "d": 707.1421499999997,
      "v": 61
    },
    {
      "midi": 76,
      "hit": false,
      "t": 38857.10399999999,
      "d": 321.4282499999972,
      "v": 75
    },
    {
      "midi": 78,
      "hit": false,
      "t": 39142.81799999999,
      "d": 160.7141249999986,
      "v": 77
    },
    {
      "midi": 64,
      "hit": false,
      "t": 39428.53199999999,
      "d": 999.9990000000034,
      "v": 88
    },
    {
      "midi": 61,
      "hit": false,
      "t": 39428.53199999999,
      "d": 1017.8561250000057,
      "v": 73
    },
    {
      "midi": 52,
      "hit": false,
      "t": 39428.53199999999,
      "d": 2364.283350000005,
      "v": 69
    },
    {
      "midi": 45,
      "hit": false,
      "t": 39428.53199999999,
      "d": 3096.4254750000036,
      "v": 76
    },
    {
      "midi": 73,
      "hit": false,
      "t": 41428.53,
      "d": 421.42814999999973,
      "v": 79
    },
    {
      "midi": 69,
      "hit": false,
      "t": 41714.244,
      "d": 217.85692500000005,
      "v": 68
    },
    {
      "midi": 64,
      "hit": false,
      "t": 41999.958,
      "d": 707.1421499999997,
      "v": 61
    },
    {
      "midi": 69,
      "hit": false,
      "t": 42285.672,
      "d": 321.4282499999972,
      "v": 75
    },
    {
      "midi": 73,
      "hit": false,
      "t": 42571.386,
      "d": 160.7141249999986,
      "v": 77
    },
    {
      "midi": 40,
      "hit": false,
      "t": 43142.814,
      "d": 1424.998575000005,
      "v": 79
    },
    {
      "midi": 56,
      "hit": false,
      "t": 43285.671,
      "d": 1282.1415750000015,
      "v": 86
    },
    {
      "midi": 62,
      "hit": false,
      "t": 43571.385,
      "d": 996.4275750000015,
      "v": 78
    },
    {
      "midi": 66,
      "hit": false,
      "t": 43571.385,
      "d": 996.4275750000015,
      "v": 67
    },
    {
      "midi": 59,
      "hit": false,
      "t": 43571.385,
      "d": 999.9990000000034,
      "v": 62
    },
    {
      "midi": 69,
      "hit": false,
      "t": 44571.384000000005,
      "d": 360.71392500000366,
      "v": 83
    },
    {
      "midi": 66,
      "hit": false,
      "t": 44571.384000000005,
      "d": 367.8567750000002,
      "v": 71
    },
    {
      "midi": 50,
      "hit": false,
      "t": 44571.384000000005,
      "d": 1607.1412500000006,
      "v": 80
    },
    {
      "midi": 60,
      "hit": false,
      "t": 44571.384000000005,
      "d": 1607.1412500000006,
      "v": 71
    },
    {
      "midi": 88,
      "hit": false,
      "t": 45428.526000000005,
      "d": 521.4280500000023,
      "v": 86
    },
    {
      "midi": 81,
      "hit": false,
      "t": 45714.240000000005,
      "d": 285.71399999999994,
      "v": 72
    },
    {
      "midi": 78,
      "hit": false,
      "t": 45999.954000000005,
      "d": 160.7141249999986,
      "v": 71
    },
    {
      "midi": 61,
      "hit": false,
      "t": 46285.668000000005,
      "d": 1149.9988499999963,
      "v": 90
    },
    {
      "midi": 52,
      "hit": false,
      "t": 46285.668000000005,
      "d": 1632.1412249999994,
      "v": 74
    },
    {
      "midi": 45,
      "hit": false,
      "t": 46285.668000000005,
      "d": 1639.284074999996,
      "v": 84
    },
    {
      "midi": 57,
      "hit": false,
      "t": 46285.668000000005,
      "d": 1639.284074999996,
      "v": 86
    },
    {
      "midi": 64,
      "hit": false,
      "t": 47428.524000000005,
      "d": 542.8565999999992,
      "v": 83
    },
    {
      "midi": 61,
      "hit": false,
      "t": 47714.238000000005,
      "d": 203.57122499999969,
      "v": 90
    },
    {
      "midi": 45,
      "hit": false,
      "t": 47999.952000000005,
      "d": 1017.8561249999984,
      "v": 66
    },
    {
      "midi": 61,
      "hit": false,
      "t": 47999.952000000005,
      "d": 1092.8560499999949,
      "v": 77
    },
    {
      "midi": 55,
      "hit": false,
      "t": 47999.952000000005,
      "d": 1103.5703249999933,
      "v": 78
    },
    {
      "midi": 57,
      "hit": false,
      "t": 47999.952000000005,
      "d": 1110.7131749999899,
      "v": 75
    },
    {
      "midi": 64,
      "hit": false,
      "t": 47999.952000000005,
      "d": 1124.9988749999902,
      "v": 77
    },
    {
      "midi": 45,
      "hit": false,
      "t": 49142.808,
      "d": 378.5710500000059,
      "v": 81
    },
    {
      "midi": 61,
      "hit": false,
      "t": 49285.665,
      "d": 221.42835000000196,
      "v": 94
    },
    {
      "midi": 55,
      "hit": false,
      "t": 49285.665,
      "d": 246.42832500000077,
      "v": 88
    },
    {
      "midi": 57,
      "hit": false,
      "t": 49285.665,
      "d": 246.42832500000077,
      "v": 88
    },
    {
      "midi": 64,
      "hit": false,
      "t": 49285.665,
      "d": 257.1425999999992,
      "v": 90
    },
    {
      "midi": 60,
      "hit": false,
      "t": 49999.95,
      "d": 2671.4258999999947,
      "v": 83
    },
    {
      "midi": 66,
      "hit": false,
      "t": 50285.664,
      "d": 2128.5692999999956,
      "v": 75
    },
    {
      "midi": 69,
      "hit": false,
      "t": 50571.378,
      "d": 342.8568000000014,
      "v": 86
    },
    {
      "midi": 74,
      "hit": false,
      "t": 50857.092,
      "d": 367.8567750000002,
      "v": 105
    },
    {
      "midi": 69,
      "hit": false,
      "t": 51142.806,
      "d": 1185.7131000000008,
      "v": 88
    },
    {
      "midi": 74,
      "hit": false,
      "t": 51428.52,
      "d": 935.7133499999982,
      "v": 105
    },
    {
      "midi": 50,
      "hit": false,
      "t": 52571.37599999999,
      "d": 217.85692500000005,
      "v": 88
    },
    {
      "midi": 69,
      "hit": false,
      "t": 52714.23299999999,
      "d": 74.99992499999644,
      "v": 107
    },
    {
      "midi": 66,
      "hit": false,
      "t": 52714.23299999999,
      "d": 224.9997749999966,
      "v": 102
    },
    {
      "midi": 74,
      "hit": false,
      "t": 52714.23299999999,
      "d": 224.9997749999966,
      "v": 105
    },
    {
      "midi": 60,
      "hit": false,
      "t": 52714.23299999999,
      "d": 235.71404999999504,
      "v": 92
    },
    {
      "midi": 69,
      "hit": false,
      "t": 52857.08999999999,
      "d": 82.14277500000026,
      "v": 107
    },
    {
      "midi": 52,
      "hit": false,
      "t": 53142.80399999999,
      "d": 982.1418750000012,
      "v": 84
    },
    {
      "midi": 57,
      "hit": false,
      "t": 53142.80399999999,
      "d": 1167.8559749999986,
      "v": 80
    },
    {
      "midi": 61,
      "hit": false,
      "t": 53142.80399999999,
      "d": 1235.7130499999985,
      "v": 92
    },
    {
      "midi": 64,
      "hit": false,
      "t": 53142.80399999999,
      "d": 1328.5700999999972,
      "v": 86
    },
    {
      "midi": 52,
      "hit": false,
      "t": 54285.65999999999,
      "d": 539.2851750000045,
      "v": 100
    },
    {
      "midi": 57,
      "hit": false,
      "t": 54428.516999999985,
      "d": 378.5710500000059,
      "v": 80
    },
    {
      "midi": 61,
      "hit": false,
      "t": 54571.37399999999,
      "d": 217.85692500000005,
      "v": 90
    },
    {
      "midi": 64,
      "hit": false,
      "t": 54714.23099999999,
      "d": 110.71417500000098,
      "v": 111
    },
    {
      "midi": 52,
      "hit": false,
      "t": 54857.087999999996,
      "d": 189.28552499999932,
      "v": 77
    },
    {
      "midi": 57,
      "hit": false,
      "t": 54857.087999999996,
      "d": 378.57104999999865,
      "v": 66
    },
    {
      "midi": 61,
      "hit": false,
      "t": 54857.087999999996,
      "d": 857.1419999999998,
      "v": 77
    },
    {
      "midi": 64,
      "hit": false,
      "t": 54857.087999999996,
      "d": 857.1419999999998,
      "v": 76
    },
    {
      "midi": 52,
      "hit": false,
      "t": 55142.801999999996,
      "d": 535.7137500000026,
      "v": 82
    },
    {
      "midi": 57,
      "hit": false,
      "t": 55428.515999999996,
      "d": 285.71399999999994,
      "v": 76
    },
    {
      "midi": 55,
      "hit": false,
      "t": 55714.229999999996,
      "d": 189.28552499999932,
      "v": 77
    },
    {
      "midi": 57,
      "hit": false,
      "t": 55714.229999999996,
      "d": 378.57104999999865,
      "v": 66
    },
    {
      "midi": 61,
      "hit": false,
      "t": 55714.229999999996,
      "d": 857.1419999999998,
      "v": 77
    },
    {
      "midi": 64,
      "hit": false,
      "t": 55714.229999999996,
      "d": 857.1419999999998,
      "v": 76
    },
    {
      "midi": 55,
      "hit": false,
      "t": 55999.943999999996,
      "d": 535.7137500000026,
      "v": 82
    },
    {
      "midi": 57,
      "hit": false,
      "t": 56285.657999999996,
      "d": 285.71399999999994,
      "v": 76
    },
    {
      "midi": 57,
      "hit": false,
      "t": 56571.371999999996,
      "d": 1010.7132750000019,
      "v": 76
    },
    {
      "midi": 66,
      "hit": false,
      "t": 56571.371999999996,
      "d": 1142.8559999999998,
      "v": 90
    },
    {
      "midi": 69,
      "hit": false,
      "t": 56571.371999999996,
      "d": 1146.4274250000017,
      "v": 100
    },
    {
      "midi": 50,
      "hit": false,
      "t": 56571.371999999996,
      "d": 2303.569125000002,
      "v": 82
    },
    {
      "midi": 57,
      "hit": false,
      "t": 57714.227999999996,
      "d": 728.5707000000039,
      "v": 84
    },
    {
      "midi": 74,
      "hit": false,
      "t": 57857.085,
      "d": 317.8568250000026,
      "v": 107
    },
    {
      "midi": 66,
      "hit": false,
      "t": 57857.085,
      "d": 1132.1417250000013,
      "v": 107
    },
    {
      "midi": 69,
      "hit": false,
      "t": 58142.799,
      "d": 814.2848999999987,
      "v": 118
    },
    {
      "midi": 50,
      "hit": false,
      "t": 58999.941,
      "d": 296.42827500000567,
      "v": 84
    },
    {
      "midi": 57,
      "hit": false,
      "t": 59142.798,
      "d": 274.9997250000015,
      "v": 96
    },
    {
      "midi": 74,
      "hit": false,
      "t": 59142.798,
      "d": 292.85685000000376,
      "v": 102
    },
    {
      "midi": 66,
      "hit": false,
      "t": 59142.798,
      "d": 296.42827500000567,
      "v": 102
    },
    {
      "midi": 50,
      "hit": false,
      "t": 59439.22627500001,
      "d": 296.4282749999984,
      "v": 82
    },
    {
      "midi": 69,
      "hit": false,
      "t": 59571.369000000006,
      "d": 235.71405000000232,
      "v": 111
    },
    {
      "midi": 66,
      "hit": false,
      "t": 59571.369000000006,
      "d": 249.99975000000268,
      "v": 102
    },
    {
      "midi": 57,
      "hit": false,
      "t": 59571.369000000006,
      "d": 260.71402500000113,
      "v": 88
    },
    {
      "midi": 71,
      "hit": false,
      "t": 59999.94000000001,
      "d": 1064.2846500000014,
      "v": 105
    },
    {
      "midi": 68,
      "hit": false,
      "t": 59999.94000000001,
      "d": 1078.5703500000018,
      "v": 92
    },
    {
      "midi": 52,
      "hit": false,
      "t": 59999.94000000001,
      "d": 1846.4267249999975,
      "v": 80
    },
    {
      "midi": 64,
      "hit": false,
      "t": 59999.94000000001,
      "d": 1914.2837999999974,
      "v": 80
    },
    {
      "midi": 88,
      "hit": false,
      "t": 61714.22400000001,
      "d": 399.99960000000283,
      "v": 98
    },
    {
      "midi": 83,
      "hit": false,
      "t": 61999.93800000001,
      "d": 321.4282499999972,
      "v": 86
    },
    {
      "midi": 80,
      "hit": false,
      "t": 62285.65200000001,
      "d": 492.85665000000154,
      "v": 90
    },
    {
      "midi": 76,
      "hit": false,
      "t": 62571.36600000001,
      "d": 785.7135000000053,
      "v": 83
    },
    {
      "midi": 71,
      "hit": false,
      "t": 62857.08000000001,
      "d": 285.71399999999994,
      "v": 88
    },
    {
      "midi": 68,
      "hit": false,
      "t": 63142.79400000001,
      "d": 214.2855000000054,
      "v": 92
    },
    {
      "midi": 57,
      "hit": false,
      "t": 63428.508000000016,
      "d": 1317.8558250000133,
      "v": 80
    },
    {
      "midi": 61,
      "hit": false,
      "t": 63428.508000000016,
      "d": 1317.8558250000133,
      "v": 86
    },
    {
      "midi": 55,
      "hit": false,
      "t": 63428.508000000016,
      "d": 2839.282875000019,
      "v": 75
    },
    {
      "midi": 45,
      "hit": false,
      "t": 63428.508000000016,
      "d": 2910.7113750000135,
      "v": 69
    },
    {
      "midi": 67,
      "hit": false,
      "t": 65857.07700000003,
      "d": 757.1420999999973,
      "v": 77
    },
    {
      "midi": 61,
      "hit": false,
      "t": 65999.93400000004,
      "d": 614.2850999999937,
      "v": 105
    },
    {
      "midi": 64,
      "hit": false,
      "t": 65999.93400000004,
      "d": 614.2850999999937,
      "v": 73
    },
    {
      "midi": 57,
      "hit": false,
      "t": 66428.50500000003,
      "d": 192.85695000000123,
      "v": 105
    },
    {
      "midi": 61,
      "hit": false,
      "t": 66857.07600000004,
      "d": 1149.9988500000036,
      "v": 90
    },
    {
      "midi": 55,
      "hit": false,
      "t": 66857.07600000004,
      "d": 1632.141225000014,
      "v": 74
    },
    {
      "midi": 45,
      "hit": false,
      "t": 66857.07600000004,
      "d": 1639.2840750000178,
      "v": 84
    },
    {
      "midi": 57,
      "hit": false,
      "t": 66857.07600000004,
      "d": 1639.2840750000178,
      "v": 86
    },
    {
      "midi": 64,
      "hit": false,
      "t": 67999.93200000004,
      "d": 542.8566000000137,
      "v": 83
    },
    {
      "midi": 61,
      "hit": false,
      "t": 68285.64600000005,
      "d": 203.57122500000696,
      "v": 90
    },
    {
      "midi": 45,
      "hit": false,
      "t": 68857.07400000005,
      "d": 1424.998575000005,
      "v": 79
    },
    {
      "midi": 55,
      "hit": false,
      "t": 68999.93100000006,
      "d": 1282.1415750000015,
      "v": 86
    },
    {
      "midi": 61,
      "hit": false,
      "t": 69285.64500000006,
      "d": 996.4275749999942,
      "v": 78
    },
    {
      "midi": 64,
      "hit": false,
      "t": 69285.64500000006,
      "d": 996.4275749999942,
      "v": 67
    },
    {
      "midi": 57,
      "hit": false,
      "t": 69285.64500000006,
      "d": 999.9989999999962,
      "v": 62
    },
    {
      "midi": 64,
      "hit": false,
      "t": 70285.64400000006,
      "d": 1317.8558249999915,
      "v": 80
    },
    {
      "midi": 66,
      "hit": false,
      "t": 70285.64400000006,
      "d": 1317.8558249999915,
      "v": 86
    },
    {
      "midi": 60,
      "hit": false,
      "t": 70285.64400000006,
      "d": 2839.28287499999,
      "v": 75
    },
    {
      "midi": 50,
      "hit": false,
      "t": 70285.64400000006,
      "d": 2910.7113749999844,
      "v": 69
    },
    {
      "midi": 72,
      "hit": false,
      "t": 72714.21300000005,
      "d": 757.1420999999973,
      "v": 77
    },
    {
      "midi": 66,
      "hit": false,
      "t": 72857.07000000005,
      "d": 614.2850999999937,
      "v": 105
    },
    {
      "midi": 69,
      "hit": false,
      "t": 72857.07000000005,
      "d": 614.2850999999937,
      "v": 73
    },
    {
      "midi": 64,
      "hit": false,
      "t": 73285.64100000005,
      "d": 192.85695000000123,
      "v": 105
    },
    {
      "midi": 52,
      "hit": false,
      "t": 73714.21200000006,
      "d": 1774.998225000003,
      "v": 75
    },
    {
      "midi": 61,
      "hit": false,
      "t": 73714.21200000006,
      "d": 2182.1406750000024,
      "v": 71
    },
    {
      "midi": 64,
      "hit": false,
      "t": 73714.21200000006,
      "d": 2339.283374999999,
      "v": 88
    },
    {
      "midi": 69,
      "hit": false,
      "t": 73714.21200000006,
      "d": 2696.4258749999863,
      "v": 80
    },
    {
      "midi": 45,
      "hit": false,
      "t": 73714.21200000006,
      "d": 3414.282299999977,
      "v": 71
    },
    {
      "midi": 52,
      "hit": false,
      "t": 75714.21000000006,
      "d": 1428.5699999999633,
      "v": 98
    },
    {
      "midi": 61,
      "hit": false,
      "t": 75999.92400000006,
      "d": 1142.8559999999707,
      "v": 83
    },
    {
      "midi": 64,
      "hit": false,
      "t": 76285.63800000005,
      "d": 328.5710999999865,
      "v": 86
    },
    {
      "midi": 69,
      "hit": false,
      "t": 76571.35200000004,
      "d": 571.4279999999853,
      "v": 88
    },
    {
      "midi": 64,
      "hit": false,
      "t": 76857.06600000004,
      "d": 285.71399999999267,
      "v": 83
    },
    {
      "midi": 40,
      "hit": false,
      "t": 77142.78000000003,
      "d": 1017.8561250000057,
      "v": 66
    },
    {
      "midi": 62,
      "hit": false,
      "t": 77142.78000000003,
      "d": 1092.8560500000021,
      "v": 77
    },
    {
      "midi": 56,
      "hit": false,
      "t": 77142.78000000003,
      "d": 1103.5703250000079,
      "v": 78
    },
    {
      "midi": 59,
      "hit": false,
      "t": 77142.78000000003,
      "d": 1110.7131750000117,
      "v": 75
    },
    {
      "midi": 66,
      "hit": false,
      "t": 77142.78000000003,
      "d": 1124.9988750000048,
      "v": 77
    },
    {
      "midi": 40,
      "hit": false,
      "t": 78285.63600000003,
      "d": 378.57104999999865,
      "v": 81
    },
    {
      "midi": 62,
      "hit": false,
      "t": 78428.49300000003,
      "d": 221.42835000000196,
      "v": 94
    },
    {
      "midi": 56,
      "hit": false,
      "t": 78428.49300000003,
      "d": 246.42832500000077,
      "v": 88
    },
    {
      "midi": 59,
      "hit": false,
      "t": 78428.49300000003,
      "d": 246.42832500000077,
      "v": 88
    },
    {
      "midi": 66,
      "hit": false,
      "t": 78428.49300000003,
      "d": 257.1426000000065,
      "v": 90
    },
    {
      "midi": 50,
      "hit": false,
      "t": 78857.06400000004,
      "d": 1017.8561250000057,
      "v": 66
    },
    {
      "midi": 66,
      "hit": false,
      "t": 78857.06400000004,
      "d": 1092.8560500000021,
      "v": 77
    },
    {
      "midi": 60,
      "hit": false,
      "t": 78857.06400000004,
      "d": 1103.5703250000079,
      "v": 78
    },
    {
      "midi": 64,
      "hit": false,
      "t": 78857.06400000004,
      "d": 1110.7131750000117,
      "v": 75
    },
    {
      "midi": 69,
      "hit": false,
      "t": 78857.06400000004,
      "d": 1124.9988750000048,
      "v": 77
    },
    {
      "midi": 50,
      "hit": false,
      "t": 79999.92000000004,
      "d": 378.57104999999865,
      "v": 81
    },
    {
      "midi": 66,
      "hit": false,
      "t": 80142.77700000005,
      "d": 221.42835000000196,
      "v": 94
    },
    {
      "midi": 60,
      "hit": false,
      "t": 80142.77700000005,
      "d": 246.42832500000077,
      "v": 88
    },
    {
      "midi": 64,
      "hit": false,
      "t": 80142.77700000005,
      "d": 246.42832500000077,
      "v": 88
    },
    {
      "midi": 69,
      "hit": false,
      "t": 80142.77700000005,
      "d": 257.1426000000065,
      "v": 90
    },
    {
      "midi": 64,
      "hit": false,
      "t": 80571.34800000006,
      "d": 360.71392500000366,
      "v": 83
    },
    {
      "midi": 61,
      "hit": false,
      "t": 80571.34800000006,
      "d": 367.8567750000075,
      "v": 71
    },
    {
      "midi": 45,
      "hit": false,
      "t": 80571.34800000006,
      "d": 1607.1412500000006,
      "v": 80
    },
    {
      "midi": 52,
      "hit": false,
      "t": 80571.34800000006,
      "d": 1607.1412500000006,
      "v": 71
    },
    {
      "midi": 81,
      "hit": false,
      "t": 81428.49000000006,
      "d": 521.4280500000023,
      "v": 86
    },
    {
      "midi": 76,
      "hit": false,
      "t": 81714.20400000007,
      "d": 285.71399999999267,
      "v": 72
    },
    {
      "midi": 73,
      "hit": false,
      "t": 81999.91800000006,
      "d": 160.7141249999986,
      "v": 71
    },
    {
      "midi": 45,
      "hit": false,
      "t": 82285.63200000006,
      "d": 1017.8561250000057,
      "v": 66
    },
    {
      "midi": 61,
      "hit": false,
      "t": 82285.63200000006,
      "d": 1092.8560500000021,
      "v": 77
    },
    {
      "midi": 55,
      "hit": false,
      "t": 82285.63200000006,
      "d": 1103.5703250000079,
      "v": 78
    },
    {
      "midi": 57,
      "hit": false,
      "t": 82285.63200000006,
      "d": 1110.7131750000117,
      "v": 75
    },
    {
      "midi": 64,
      "hit": false,
      "t": 82285.63200000006,
      "d": 1124.9988750000048,
      "v": 77
    },
    {
      "midi": 45,
      "hit": false,
      "t": 83428.48800000006,
      "d": 378.57104999999865,
      "v": 81
    },
    {
      "midi": 61,
      "hit": false,
      "t": 83571.34500000006,
      "d": 221.42835000000196,
      "v": 94
    },
    {
      "midi": 55,
      "hit": false,
      "t": 83571.34500000006,
      "d": 246.42832500000077,
      "v": 88
    },
    {
      "midi": 57,
      "hit": false,
      "t": 83571.34500000006,
      "d": 246.42832500000077,
      "v": 88
    },
    {
      "midi": 64,
      "hit": false,
      "t": 83571.34500000006,
      "d": 257.1426000000065,
      "v": 90
    },
    {
      "midi": 66,
      "hit": false,
      "t": 83999.91600000007,
      "d": 453.5709749999951,
      "v": 90
    },
    {
      "midi": 69,
      "hit": false,
      "t": 83999.91600000007,
      "d": 453.5709749999951,
      "v": 107
    },
    {
      "midi": 60,
      "hit": false,
      "t": 83999.91600000007,
      "d": 510.71377499999653,
      "v": 88
    },
    {
      "midi": 60,
      "hit": false,
      "t": 84857.05800000006,
      "d": 189.28552499999932,
      "v": 96
    },
    {
      "midi": 66,
      "hit": false,
      "t": 84857.05800000006,
      "d": 192.85695000000123,
      "v": 90
    },
    {
      "midi": 78,
      "hit": false,
      "t": 84857.05800000006,
      "d": 217.85692500000005,
      "v": 111
    },
    {
      "midi": 69,
      "hit": false,
      "t": 84857.05800000006,
      "d": 228.57120000000577,
      "v": 107
    },
    {
      "midi": 69,
      "hit": false,
      "t": 85142.77200000007,
      "d": 74.99992499999644,
      "v": 92
    },
    {
      "midi": 74,
      "hit": false,
      "t": 85142.77200000007,
      "d": 74.99992499999644,
      "v": 109
    },
    {
      "midi": 66,
      "hit": false,
      "t": 85142.77200000007,
      "d": 82.14277500000026,
      "v": 83
    },
    {
      "midi": 60,
      "hit": false,
      "t": 85142.77200000007,
      "d": 124.99987499999406,
      "v": 84
    },
    {
      "midi": 74,
      "hit": false,
      "t": 86428.48500000007,
      "d": 60.71422500000335,
      "v": 59
    },
    {
      "midi": 66,
      "hit": false,
      "t": 86571.34200000008,
      "d": 371.42819999999483,
      "v": 78
    },
    {
      "midi": 60,
      "hit": false,
      "t": 86571.34200000008,
      "d": 396.42817499999364,
      "v": 80
    },
    {
      "midi": 78,
      "hit": false,
      "t": 86571.34200000008,
      "d": 410.71387499998673,
      "v": 102
    },
    {
      "midi": 69,
      "hit": false,
      "t": 86571.34200000008,
      "d": 639.285074999978,
      "v": 102
    },
    {
      "midi": 74,
      "hit": false,
      "t": 86999.91300000006,
      "d": 210.71407499999623,
      "v": 92
    },
    {
      "midi": 60,
      "hit": false,
      "t": 86999.91300000006,
      "d": 224.9997749999893,
      "v": 83
    },
    {
      "midi": 66,
      "hit": false,
      "t": 86999.91300000006,
      "d": 224.9997749999893,
      "v": 78
    },
    {
      "midi": 52,
      "hit": false,
      "t": 87428.48400000005,
      "d": 1646.4269250000216,
      "v": 69
    },
    {
      "midi": 64,
      "hit": false,
      "t": 87428.48400000005,
      "d": 1646.4269250000216,
      "v": 94
    },
    {
      "midi": 61,
      "hit": false,
      "t": 87428.48400000005,
      "d": 1664.2840500000166,
      "v": 80
    },
    {
      "midi": 69,
      "hit": false,
      "t": 88571.34000000007,
      "d": 521.4280500000023,
      "v": 96
    },
    {
      "midi": 52,
      "hit": false,
      "t": 89142.76800000007,
      "d": 857.1419999999925,
      "v": 81
    },
    {
      "midi": 61,
      "hit": false,
      "t": 89142.76800000007,
      "d": 857.1419999999925,
      "v": 79
    },
    {
      "midi": 64,
      "hit": false,
      "t": 89142.76800000007,
      "d": 857.1419999999925,
      "v": 86
    },
    {
      "midi": 57,
      "hit": false,
      "t": 89571.33900000007,
      "d": 428.5709999999963,
      "v": 100
    },
    {
      "midi": 55,
      "hit": false,
      "t": 89999.91000000006,
      "d": 453.5709749999951,
      "v": 78
    },
    {
      "midi": 57,
      "hit": false,
      "t": 89999.91000000006,
      "d": 592.8565499999968,
      "v": 64
    },
    {
      "midi": 61,
      "hit": false,
      "t": 89999.91000000006,
      "d": 857.1420000000071,
      "v": 77
    },
    {
      "midi": 64,
      "hit": false,
      "t": 89999.91000000006,
      "d": 857.1420000000071,
      "v": 73
    },
    {
      "midi": 55,
      "hit": false,
      "t": 90571.33800000006,
      "d": 171.42840000000433,
      "v": 78
    },
    {
      "midi": 57,
      "hit": false,
      "t": 90714.19500000007,
      "d": 142.8570000000036,
      "v": 68
    },
    {
      "midi": 57,
      "hit": false,
      "t": 90857.05200000007,
      "d": 1010.7132750000019,
      "v": 76
    },
    {
      "midi": 66,
      "hit": false,
      "t": 90857.05200000007,
      "d": 1142.8559999999998,
      "v": 90
    },
    {
      "midi": 69,
      "hit": false,
      "t": 90857.05200000007,
      "d": 1146.4274250000017,
      "v": 100
    },
    {
      "midi": 50,
      "hit": false,
      "t": 90857.05200000007,
      "d": 2303.569125000009,
      "v": 82
    },
    {
      "midi": 57,
      "hit": false,
      "t": 91999.90800000007,
      "d": 728.5707000000111,
      "v": 84
    },
    {
      "midi": 74,
      "hit": false,
      "t": 92142.76500000007,
      "d": 317.85682500000985,
      "v": 107
    },
    {
      "midi": 66,
      "hit": false,
      "t": 92142.76500000007,
      "d": 1132.1417250000086,
      "v": 107
    },
    {
      "midi": 69,
      "hit": false,
      "t": 92428.47900000008,
      "d": 814.2848999999987,
      "v": 118
    },
    {
      "midi": 50,
      "hit": false,
      "t": 93285.62100000009,
      "d": 296.4282749999984,
      "v": 84
    },
    {
      "midi": 57,
      "hit": false,
      "t": 93428.47800000009,
      "d": 274.9997250000015,
      "v": 96
    },
    {
      "midi": 74,
      "hit": false,
      "t": 93428.47800000009,
      "d": 292.8568499999965,
      "v": 102
    },
    {
      "midi": 66,
      "hit": false,
      "t": 93428.47800000009,
      "d": 296.4282749999984,
      "v": 102
    },
    {
      "midi": 50,
      "hit": false,
      "t": 93724.90627500009,
      "d": 296.4282749999984,
      "v": 82
    },
    {
      "midi": 69,
      "hit": false,
      "t": 93857.04900000009,
      "d": 235.71404999999504,
      "v": 111
    },
    {
      "midi": 66,
      "hit": false,
      "t": 93857.04900000009,
      "d": 249.99974999998813,
      "v": 102
    },
    {
      "midi": 57,
      "hit": false,
      "t": 93857.04900000009,
      "d": 260.71402499999385,
      "v": 88
    },
    {
      "midi": 56,
      "hit": false,
      "t": 94285.62000000008,
      "d": 1010.7132750000019,
      "v": 76
    },
    {
      "midi": 64,
      "hit": false,
      "t": 94285.62000000008,
      "d": 1142.8559999999998,
      "v": 90
    },
    {
      "midi": 68,
      "hit": false,
      "t": 94285.62000000008,
      "d": 1146.4274250000017,
      "v": 100
    },
    {
      "midi": 40,
      "hit": false,
      "t": 94285.62000000008,
      "d": 2303.569125000009,
      "v": 82
    },
    {
      "midi": 56,
      "hit": false,
      "t": 95428.47600000008,
      "d": 728.5707000000111,
      "v": 84
    },
    {
      "midi": 71,
      "hit": false,
      "t": 95571.33300000009,
      "d": 317.85682500000985,
      "v": 107
    },
    {
      "midi": 64,
      "hit": false,
      "t": 95571.33300000009,
      "d": 1132.1417250000086,
      "v": 107
    },
    {
      "midi": 68,
      "hit": false,
      "t": 95857.0470000001,
      "d": 814.2848999999987,
      "v": 118
    },
    {
      "midi": 40,
      "hit": false,
      "t": 96714.1890000001,
      "d": 296.4282749999984,
      "v": 84
    },
    {
      "midi": 56,
      "hit": false,
      "t": 96857.0460000001,
      "d": 274.9997250000015,
      "v": 96
    },
    {
      "midi": 71,
      "hit": false,
      "t": 96857.0460000001,
      "d": 292.8568499999965,
      "v": 102
    },
    {
      "midi": 64,
      "hit": false,
      "t": 96857.0460000001,
      "d": 296.4282749999984,
      "v": 102
    },
    {
      "midi": 40,
      "hit": false,
      "t": 97153.4742750001,
      "d": 296.4282749999984,
      "v": 82
    },
    {
      "midi": 68,
      "hit": false,
      "t": 97285.6170000001,
      "d": 235.71404999999504,
      "v": 111
    },
    {
      "midi": 64,
      "hit": false,
      "t": 97285.6170000001,
      "d": 249.99974999998813,
      "v": 102
    },
    {
      "midi": 56,
      "hit": false,
      "t": 97285.6170000001,
      "d": 260.71402499999385,
      "v": 88
    },
    {
      "midi": 61,
      "hit": false,
      "t": 97714.1880000001,
      "d": 878.5705499999895,
      "v": 80
    },
    {
      "midi": 64,
      "hit": false,
      "t": 97714.1880000001,
      "d": 1449.9985499999893,
      "v": 90
    },
    {
      "midi": 69,
      "hit": false,
      "t": 97714.1880000001,
      "d": 1560.7127249999903,
      "v": 92
    },
    {
      "midi": 55,
      "hit": false,
      "t": 97714.1880000001,
      "d": 3367.853774999996,
      "v": 79
    },
    {
      "midi": 45,
      "hit": false,
      "t": 97714.1880000001,
      "d": 3371.425199999998,
      "v": 81
    },
    {
      "midi": 64,
      "hit": false,
      "t": 99714.18600000009,
      "d": 839.2848750000121,
      "v": 77
    },
    {
      "midi": 69,
      "hit": false,
      "t": 99999.9000000001,
      "d": 392.8567500000063,
      "v": 78
    },
    {
      "midi": 76,
      "hit": false,
      "t": 100285.6140000001,
      "d": 617.8565249999956,
      "v": 77
    },
    {
      "midi": 64,
      "hit": false,
      "t": 100571.3280000001,
      "d": 471.4280999999901,
      "v": 73
    },
    {
      "midi": 73,
      "hit": false,
      "t": 100857.0420000001,
      "d": 185.71409999998286,
      "v": 86
    },
    {
      "midi": 61,
      "hit": false,
      "t": 101142.7560000001,
      "d": 1149.9988500000036,
      "v": 90
    },
    {
      "midi": 55,
      "hit": false,
      "t": 101142.7560000001,
      "d": 1632.141225000014,
      "v": 74
    },
    {
      "midi": 45,
      "hit": false,
      "t": 101142.7560000001,
      "d": 1639.2840750000178,
      "v": 84
    },
    {
      "midi": 57,
      "hit": false,
      "t": 101142.7560000001,
      "d": 1639.2840750000178,
      "v": 86
    },
    {
      "midi": 64,
      "hit": false,
      "t": 102285.6120000001,
      "d": 542.8566000000137,
      "v": 83
    },
    {
      "midi": 61,
      "hit": false,
      "t": 102571.3260000001,
      "d": 203.57122500000696,
      "v": 90
    },
    {
      "midi": 45,
      "hit": false,
      "t": 103142.7540000001,
      "d": 1424.998575000005,
      "v": 79
    },
    {
      "midi": 55,
      "hit": false,
      "t": 103285.6110000001,
      "d": 1282.1415750000015,
      "v": 86
    },
    {
      "midi": 61,
      "hit": false,
      "t": 103571.32500000011,
      "d": 996.4275749999942,
      "v": 78
    },
    {
      "midi": 64,
      "hit": false,
      "t": 103571.32500000011,
      "d": 996.4275749999942,
      "v": 67
    },
    {
      "midi": 57,
      "hit": false,
      "t": 103571.32500000011,
      "d": 999.9989999999962,
      "v": 62
    },
    {
      "midi": 66,
      "hit": false,
      "t": 104571.32400000011,
      "d": 878.5705499999895,
      "v": 80
    },
    {
      "midi": 69,
      "hit": false,
      "t": 104571.32400000011,
      "d": 1449.9985499999893,
      "v": 90
    },
    {
      "midi": 76,
      "hit": false,
      "t": 104571.32400000011,
      "d": 1560.7127249999903,
      "v": 92
    },
    {
      "midi": 60,
      "hit": false,
      "t": 104571.32400000011,
      "d": 3367.853774999996,
      "v": 79
    },
    {
      "midi": 50,
      "hit": false,
      "t": 104571.32400000011,
      "d": 3371.425199999998,
      "v": 81
    },
    {
      "midi": 69,
      "hit": false,
      "t": 106571.3220000001,
      "d": 839.2848750000121,
      "v": 77
    },
    {
      "midi": 76,
      "hit": false,
      "t": 106857.03600000011,
      "d": 392.8567500000063,
      "v": 78
    },
    {
      "midi": 81,
      "hit": false,
      "t": 107142.75000000012,
      "d": 617.8565249999956,
      "v": 77
    },
    {
      "midi": 69,
      "hit": false,
      "t": 107428.46400000011,
      "d": 471.4280999999901,
      "v": 73
    },
    {
      "midi": 78,
      "hit": false,
      "t": 107714.17800000012,
      "d": 185.71409999998286,
      "v": 86
    },
    {
      "midi": 61,
      "hit": false,
      "t": 107999.89200000011,
      "d": 878.5705499999895,
      "v": 80
    },
    {
      "midi": 64,
      "hit": false,
      "t": 107999.89200000011,
      "d": 1449.9985499999893,
      "v": 90
    },
    {
      "midi": 69,
      "hit": false,
      "t": 107999.89200000011,
      "d": 1560.7127249999903,
      "v": 92
    },
    {
      "midi": 52,
      "hit": false,
      "t": 107999.89200000011,
      "d": 3367.853774999996,
      "v": 79
    },
    {
      "midi": 45,
      "hit": false,
      "t": 107999.89200000011,
      "d": 3371.425199999998,
      "v": 81
    },
    {
      "midi": 64,
      "hit": false,
      "t": 109999.8900000001,
      "d": 839.2848750000121,
      "v": 77
    },
    {
      "midi": 69,
      "hit": false,
      "t": 110285.60400000011,
      "d": 392.8567500000063,
      "v": 78
    },
    {
      "midi": 76,
      "hit": false,
      "t": 110571.31800000012,
      "d": 617.8565249999956,
      "v": 77
    },
    {
      "midi": 64,
      "hit": false,
      "t": 110857.03200000011,
      "d": 471.4280999999901,
      "v": 73
    },
    {
      "midi": 73,
      "hit": false,
      "t": 111142.74600000012,
      "d": 185.71409999998286,
      "v": 86
    },
    {
      "midi": 66,
      "hit": false,
      "t": 111428.46000000011,
      "d": 360.71392500000366,
      "v": 83
    },
    {
      "midi": 62,
      "hit": false,
      "t": 111428.46000000011,
      "d": 367.8567750000075,
      "v": 71
    },
    {
      "midi": 40,
      "hit": false,
      "t": 111428.46000000011,
      "d": 1607.1412500000006,
      "v": 80
    },
    {
      "midi": 56,
      "hit": false,
      "t": 111428.46000000011,
      "d": 1607.1412500000006,
      "v": 71
    },
    {
      "midi": 83,
      "hit": false,
      "t": 112285.60200000012,
      "d": 521.4280500000023,
      "v": 86
    },
    {
      "midi": 78,
      "hit": false,
      "t": 112571.31600000012,
      "d": 285.71399999999267,
      "v": 72
    },
    {
      "midi": 74,
      "hit": false,
      "t": 112857.03000000012,
      "d": 160.7141249999986,
      "v": 71
    },
    {
      "midi": 50,
      "hit": false,
      "t": 113142.74400000011,
      "d": 1017.8561250000057,
      "v": 66
    },
    {
      "midi": 66,
      "hit": false,
      "t": 113142.74400000011,
      "d": 1092.8560500000021,
      "v": 77
    },
    {
      "midi": 60,
      "hit": false,
      "t": 113142.74400000011,
      "d": 1103.5703250000079,
      "v": 78
    },
    {
      "midi": 64,
      "hit": false,
      "t": 113142.74400000011,
      "d": 1110.7131750000117,
      "v": 75
    },
    {
      "midi": 69,
      "hit": false,
      "t": 113142.74400000011,
      "d": 1124.9988750000048,
      "v": 77
    },
    {
      "midi": 50,
      "hit": false,
      "t": 114285.60000000011,
      "d": 378.57104999999865,
      "v": 81
    },
    {
      "midi": 66,
      "hit": false,
      "t": 114428.45700000011,
      "d": 221.42835000000196,
      "v": 94
    },
    {
      "midi": 60,
      "hit": false,
      "t": 114428.45700000011,
      "d": 246.42832500000077,
      "v": 88
    },
    {
      "midi": 64,
      "hit": false,
      "t": 114428.45700000011,
      "d": 246.42832500000077,
      "v": 88
    },
    {
      "midi": 69,
      "hit": false,
      "t": 114428.45700000011,
      "d": 257.1426000000065,
      "v": 90
    },
    {
      "midi": 64,
      "hit": false,
      "t": 114857.02800000012,
      "d": 360.71392500000366,
      "v": 83
    },
    {
      "midi": 61,
      "hit": false,
      "t": 114857.02800000012,
      "d": 367.8567750000075,
      "v": 71
    },
    {
      "midi": 45,
      "hit": false,
      "t": 114857.02800000012,
      "d": 1607.1412500000006,
      "v": 80
    },
    {
      "midi": 52,
      "hit": false,
      "t": 114857.02800000012,
      "d": 1607.1412500000006,
      "v": 71
    },
    {
      "midi": 81,
      "hit": false,
      "t": 115714.17000000013,
      "d": 521.4280500000023,
      "v": 86
    },
    {
      "midi": 76,
      "hit": false,
      "t": 115999.88400000014,
      "d": 285.71399999999267,
      "v": 72
    },
    {
      "midi": 73,
      "hit": false,
      "t": 116285.59800000013,
      "d": 160.7141249999986,
      "v": 71
    },
    {
      "midi": 40,
      "hit": false,
      "t": 116857.02600000013,
      "d": 1424.998575000005,
      "v": 79
    },
    {
      "midi": 56,
      "hit": false,
      "t": 116999.88300000013,
      "d": 1282.1415750000015,
      "v": 86
    },
    {
      "midi": 62,
      "hit": false,
      "t": 117285.59700000014,
      "d": 996.4275749999942,
      "v": 78
    },
    {
      "midi": 64,
      "hit": false,
      "t": 117285.59700000014,
      "d": 996.4275749999942,
      "v": 67
    },
    {
      "midi": 59,
      "hit": false,
      "t": 117285.59700000014,
      "d": 999.9989999999962,
      "v": 62
    },
    {
      "midi": 61,
      "hit": false,
      "t": 118285.59600000014,
      "d": 2657.1401999999944,
      "v": 82
    },
    {
      "midi": 57,
      "hit": false,
      "t": 118285.59600000014,
      "d": 2660.7116249999963,
      "v": 74
    },
    {
      "midi": 64,
      "hit": false,
      "t": 118285.59600000014,
      "d": 2721.4258499999996,
      "v": 73
    },
    {
      "midi": 52,
      "hit": false,
      "t": 118285.59600000014,
      "d": 2857.1399999999994,
      "v": 77
    },
    {
      "midi": 45,
      "hit": false,
      "t": 121142.73600000014,
      "d": 185.71409999999742,
      "v": 82
    },
    {
      "midi": 61,
      "hit": false,
      "t": 121285.59300000014,
      "d": 235.71404999999504,
      "v": 105
    },
    {
      "midi": 52,
      "hit": false,
      "t": 121285.59300000014,
      "d": 239.28547499999695,
      "v": 88
    },
    {
      "midi": 57,
      "hit": false,
      "t": 121285.59300000014,
      "d": 249.99975000000268,
      "v": 105
    },
    {
      "midi": 64,
      "hit": false,
      "t": 121285.59300000014,
      "d": 271.4282999999996,
      "v": 100
    },
    {
      "midi": 61,
      "hit": false,
      "t": 121714.16400000014,
      "d": 878.5705499999895,
      "v": 80
    },
    {
      "midi": 64,
      "hit": false,
      "t": 121714.16400000014,
      "d": 1449.9985499999893,
      "v": 90
    },
    {
      "midi": 69,
      "hit": false,
      "t": 121714.16400000014,
      "d": 1560.7127249999903,
      "v": 92
    },
    {
      "midi": 52,
      "hit": false,
      "t": 121714.16400000014,
      "d": 3367.853774999967,
      "v": 79
    },
    {
      "midi": 45,
      "hit": false,
      "t": 121714.16400000014,
      "d": 3371.4251999999688,
      "v": 81
    },
    {
      "midi": 64,
      "hit": false,
      "t": 123714.16200000011,
      "d": 839.2848749999976,
      "v": 77
    },
    {
      "midi": 69,
      "hit": false,
      "t": 123999.87600000012,
      "d": 392.85674999999173,
      "v": 78
    },
    {
      "midi": 76,
      "hit": false,
      "t": 124285.59000000011,
      "d": 617.8565249999956,
      "v": 77
    },
    {
      "midi": 64,
      "hit": false,
      "t": 124571.3040000001,
      "d": 471.4280999999901,
      "v": 73
    },
    {
      "midi": 73,
      "hit": false,
      "t": 124857.01800000011,
      "d": 185.71409999998286,
      "v": 86
    },
    {
      "midi": 61,
      "hit": false,
      "t": 125142.7320000001,
      "d": 1149.998849999989,
      "v": 90
    },
    {
      "midi": 52,
      "hit": false,
      "t": 125142.7320000001,
      "d": 1632.1412249999848,
      "v": 74
    },
    {
      "midi": 45,
      "hit": false,
      "t": 125142.7320000001,
      "d": 1639.2840749999887,
      "v": 84
    },
    {
      "midi": 57,
      "hit": false,
      "t": 125142.7320000001,
      "d": 1639.2840749999887,
      "v": 86
    },
    {
      "midi": 64,
      "hit": false,
      "t": 126285.58800000009,
      "d": 542.8565999999992,
      "v": 83
    },
    {
      "midi": 61,
      "hit": false,
      "t": 126571.3020000001,
      "d": 203.5712249999924,
      "v": 90
    },
    {
      "midi": 64,
      "hit": false,
      "t": 127142.73000000008,
      "d": 839.2848749999976,
      "v": 77
    },
    {
      "midi": 69,
      "hit": false,
      "t": 127428.44400000009,
      "d": 392.85674999999173,
      "v": 78
    },
    {
      "midi": 76,
      "hit": false,
      "t": 127714.15800000008,
      "d": 617.8565249999956,
      "v": 77
    },
    {
      "midi": 64,
      "hit": false,
      "t": 127999.87200000008,
      "d": 471.4280999999901,
      "v": 73
    },
    {
      "midi": 73,
      "hit": false,
      "t": 128285.58600000008,
      "d": 185.71409999998286,
      "v": 86
    },
    {
      "midi": 45,
      "hit": false,
      "t": 128571.30000000006,
      "d": 1146.4274249999871,
      "v": 84
    },
    {
      "midi": 52,
      "hit": false,
      "t": 128571.30000000006,
      "d": 1146.4274249999871,
      "v": 74
    },
    {
      "midi": 57,
      "hit": false,
      "t": 128571.30000000006,
      "d": 1146.4274249999871,
      "v": 86
    },
    {
      "midi": 61,
      "hit": false,
      "t": 128571.30000000006,
      "d": 1149.998849999989,
      "v": 90
    }
  ]
}