{
  "jsonPath": "Classical/Classical/Antonio Vivaldi/largo.json",
  "path": "Classical\\Classical\\Antonio Vivaldi\\Largo.mid",
  "name": "Largo",
  "difficulty": "Advanced",
  "bpm": 125,
  "notes": [
    {
      "midi": 77,
      "hit": false,
      "t": 0,
      "d": 720,
      "v": 96
    },
    {
      "midi": 53,
      "hit": false,
      "t": 0,
      "d": 1920,
      "v": 72
    },
    {
      "midi": 57,
      "hit": false,
      "t": 0,
      "d": 1920,
      "v": 72
    },
    {
      "midi": 60,
      "hit": false,
      "t": 0,
      "d": 1920,
      "v": 72
    },
    {
      "midi": 81,
      "hit": false,
      "t": 720,
      "d": 240,
      "v": 96
    },
    {
      "midi": 82,
      "hit": false,
      "t": 960,
      "d": 720,
      "v": 96
    },
    {
      "midi": 84,
      "hit": false,
      "t": 1680,
      "d": 240,
      "v": 96
    },
    {
      "midi": 77,
      "hit": false,
      "t": 1920,
      "d": 720,
      "v": 96
    },
    {
      "midi": 53,
      "hit": false,
      "t": 1920,
      "d": 1920,
      "v": 72
    },
    {
      "midi": 57,
      "hit": false,
      "t": 1920,
      "d": 1920,
      "v": 72
    },
    {
      "midi": 60,
      "hit": false,
      "t": 1920,
      "d": 1920,
      "v": 72
    },
    {
      "midi": 81,
      "hit": false,
      "t": 2640,
      "d": 240,
      "v": 96
    },
    {
      "midi": 84,
      "hit": false,
      "t": 2880,
      "d": 720,
      "v": 96
    },
    {
      "midi": 81,
      "hit": false,
      "t": 3600,
      "d": 240,
      "v": 96
    },
    {
      "midi": 79,
      "hit": false,
      "t": 3840,
      "d": 720,
      "v": 96
    },
    {
      "midi": 48,
      "hit": false,
      "t": 3840,
      "d": 1920,
      "v": 72
    },
    {
      "midi": 52,
      "hit": false,
      "t": 3840,
      "d": 1920,
      "v": 72
    },
    {
      "midi": 55,
      "hit": false,
      "t": 3840,
      "d": 1920,
      "v": 72
    },
    {
      "midi": 76,
      "hit": false,
      "t": 4560,
      "d": 240,
      "v": 96
    },
    {
      "midi": 77,
      "hit": false,
      "t": 4800,
      "d": 720,
      "v": 96
    },
    {
      "midi": 79,
      "hit": false,
      "t": 5520,
      "d": 240,
      "v": 96
    },
    {
      "midi": 72,
      "hit": false,
      "t": 5760,
      "d": 720,
      "v": 96
    },
    {
      "midi": 48,
      "hit": false,
      "t": 5760,
      "d": 1920,
      "v": 72
    },
    {
      "midi": 52,
      "hit": false,
      "t": 5760,
      "d": 1920,
      "v": 72
    },
    {
      "midi": 55,
      "hit": false,
      "t": 5760,
      "d": 1920,
      "v": 72
    },
    {
      "midi": 86,
      "hit": false,
      "t": 6480,
      "d": 240,
      "v": 96
    },
    {
      "midi": 84,
      "hit": false,
      "t": 6720,
      "d": 720,
      "v": 96
    },
    {
      "midi": 82,
      "hit": false,
      "t": 7440,
      "d": 240,
      "v": 96
    },
    {
      "midi": 81,
      "hit": false,
      "t": 7680,
      "d": 720,
      "v": 96
    },
    {
      "midi": 53,
      "hit": false,
      "t": 7680,
      "d": 1920,
      "v": 72
    },
    {
      "midi": 57,
      "hit": false,
      "t": 7680,
      "d": 1920,
      "v": 72
    },
    {
      "midi": 60,
      "hit": false,
      "t": 7680,
      "d": 1920,
      "v": 72
    },
    {
      "midi": 84,
      "hit": false,
      "t": 8400,
      "d": 240,
      "v": 96
    },
    {
      "midi": 77,
      "hit": false,
      "t": 8640,
      "d": 720,
      "v": 96
    },
    {
      "midi": 81,
      "hit": false,
      "t": 9360,
      "d": 240,
      "v": 96
    },
    {
      "midi": 84,
      "hit": false,
      "t": 9600,
      "d": 720,
      "v": 96
    },
    {
      "midi": 53,
      "hit": false,
      "t": 9600,
      "d": 1920,
      "v": 72
    },
    {
      "midi": 57,
      "hit": false,
      "t": 9600,
      "d": 1920,
      "v": 72
    },
    {
      "midi": 60,
      "hit": false,
      "t": 9600,
      "d": 1920,
      "v": 72
    },
    {
      "midi": 81,
      "hit": false,
      "t": 10320,
      "d": 240,
      "v": 96
    },
    {
      "midi": 79,
      "hit": false,
      "t": 10560,
      "d": 720,
      "v": 96
    },
    {
      "midi": 77,
      "hit": false,
      "t": 11280,
      "d": 240,
      "v": 96
    },
    {
      "midi": 79,
      "hit": false,
      "t": 11520,
      "d": 960,
      "v": 96
    },
    {
      "midi": 48,
      "hit": false,
      "t": 11520,
      "d": 1920,
      "v": 72
    },
    {
      "midi": 52,
      "hit": false,
      "t": 11520,
      "d": 1920,
      "v": 72
    },
    {
      "midi": 55,
      "hit": false,
      "t": 11520,
      "d": 1920,
      "v": 72
    },
    {
      "midi": 72,
      "hit": false,
      "t": 12480,
      "d": 1920,
      "v": 96
    },
    {
      "midi": 84,
      "hit": false,
      "t": 14400,
      "d": 960,
      "v": 96
    },
    {
      "midi": 84,
      "hit": false,
      "t": 15360,
      "d": 720,
      "v": 96
    },
    {
      "midi": 53,
      "hit": false,
      "t": 15360,
      "d": 1920,
      "v": 72
    },
    {
      "midi": 57,
      "hit": false,
      "t": 15360,
      "d": 1920,
      "v": 72
    },
    {
      "midi": 60,
      "hit": false,
      "t": 15360,
      "d": 1920,
      "v": 72
    },
    {
      "midi": 81,
      "hit": false,
      "t": 16080,
      "d": 240,
      "v": 96
    },
    {
      "midi": 79,
      "hit": false,
      "t": 16320,
      "d": 720,
      "v": 96
    },
    {
      "midi": 77,
      "hit": false,
      "t": 17040,
      "d": 240,
      "v": 96
    },
    {
      "midi": 84,
      "hit": false,
      "t": 17280,
      "d": 720,
      "v": 96
    },
    {
      "midi": 53,
      "hit": false,
      "t": 17280,
      "d": 1920,
      "v": 72
    },
    {
      "midi": 57,
      "hit": false,
      "t": 17280,
      "d": 1920,
      "v": 72
    },
    {
      "midi": 60,
      "hit": false,
      "t": 17280,
      "d": 1920,
      "v": 72
    },
    {
      "midi": 81,
      "hit": false,
      "t": 18000,
      "d": 240,
      "v": 96
    },
    {
      "midi": 79,
      "hit": false,
      "t": 18240,
      "d": 720,
      "v": 96
    },
    {
      "midi": 77,
      "hit": false,
      "t": 18960,
      "d": 240,
      "v": 96
    },
    {
      "midi": 86,
      "hit": false,
      "t": 19200,
      "d": 480,
      "v": 96
    },
    {
      "midi": 46,
      "hit": false,
      "t": 19200,
      "d": 1920,
      "v": 72
    },
    {
      "midi": 50,
      "hit": false,
      "t": 19200,
      "d": 1920,
      "v": 72
    },
    {
      "midi": 53,
      "hit": false,
      "t": 19200,
      "d": 1920,
      "v": 72
    },
    {
      "midi": 84,
      "hit": false,
      "t": 19680,
      "d": 480,
      "v": 96
    },
    {
      "midi": 86,
      "hit": false,
      "t": 20160,
      "d": 480,
      "v": 96
    },
    {
      "midi": 86,
      "hit": false,
      "t": 20640,
      "d": 480,
      "v": 96
    },
    {
      "midi": 86,
      "hit": false,
      "t": 21120,
      "d": 480,
      "v": 96
    },
    {
      "midi": 46,
      "hit": false,
      "t": 21120,
      "d": 1920,
      "v": 72
    },
    {
      "midi": 50,
      "hit": false,
      "t": 21120,
      "d": 1920,
      "v": 72
    },
    {
      "midi": 53,
      "hit": false,
      "t": 21120,
      "d": 1920,
      "v": 72
    },
    {
      "midi": 84,
      "hit": false,
      "t": 21600,
      "d": 480,
      "v": 96
    },
    {
      "midi": 86,
      "hit": false,
      "t": 22080,
      "d": 480,
      "v": 96
    },
    {
      "midi": 86,
      "hit": false,
      "t": 22560,
      "d": 480,
      "v": 96
    },
    {
      "midi": 86,
      "hit": false,
      "t": 23040,
      "d": 720,
      "v": 96
    },
    {
      "midi": 52,
      "hit": false,
      "t": 23040,
      "d": 1920,
      "v": 72
    },
    {
      "midi": 55,
      "hit": false,
      "t": 23040,
      "d": 1920,
      "v": 72
    },
    {
      "midi": 62,
      "hit": false,
      "t": 23040,
      "d": 1920,
      "v": 72
    },
    {
      "midi": 79,
      "hit": false,
      "t": 23760,
      "d": 240,
      "v": 96
    },
    {
      "midi": 81,
      "hit": false,
      "t": 24000,
      "d": 720,
      "v": 96
    },
    {
      "midi": 79,
      "hit": false,
      "t": 24720,
      "d": 240,
      "v": 96
    },
    {
      "midi": 86,
      "hit": false,
      "t": 24960,
      "d": 720,
      "v": 96
    },
    {
      "midi": 52,
      "hit": false,
      "t": 24960,
      "d": 1920,
      "v": 72
    },
    {
      "midi": 55,
      "hit": false,
      "t": 24960,
      "d": 1920,
      "v": 72
    },
    {
      "midi": 62,
      "hit": false,
      "t": 24960,
      "d": 1920,
      "v": 72
    },
    {
      "midi": 79,
      "hit": false,
      "t": 25680,
      "d": 240,
      "v": 96
    },
    {
      "midi": 81,
      "hit": false,
      "t": 25920,
      "d": 720,
      "v": 96
    },
    {
      "midi": 79,
      "hit": false,
      "t": 26640,
      "d": 240,
      "v": 96
    },
    {
      "midi": 84,
      "hit": false,
      "t": 26880,
      "d": 480,
      "v": 96
    },
    {
      "midi": 45,
      "hit": false,
      "t": 26880,
      "d": 1920,
      "v": 72
    },
    {
      "midi": 48,
      "hit": false,
      "t": 26880,
      "d": 1920,
      "v": 72
    },
    {
      "midi": 52,
      "hit": false,
      "t": 26880,
      "d": 1920,
      "v": 72
    },
    {
      "midi": 82,
      "hit": false,
      "t": 27360,
      "d": 480,
      "v": 96
    },
    {
      "midi": 84,
      "hit": false,
      "t": 27840,
      "d": 480,
      "v": 96
    },
    {
      "midi": 84,
      "hit": false,
      "t": 28320,
      "d": 480,
      "v": 96
    },
    {
      "midi": 84,
      "hit": false,
      "t": 28800,
      "d": 480,
      "v": 96
    },
    {
      "midi": 45,
      "hit": false,
      "t": 28800,
      "d": 1920,
      "v": 72
    },
    {
      "midi": 48,
      "hit": false,
      "t": 28800,
      "d": 1920,
      "v": 72
    },
    {
      "midi": 52,
      "hit": false,
      "t": 28800,
      "d": 1920,
      "v": 72
    },
    {
      "midi": 82,
      "hit": false,
      "t": 29280,
      "d": 480,
      "v": 96
    },
    {
      "midi": 84,
      "hit": false,
      "t": 29760,
      "d": 480,
      "v": 96
    },
    {
      "midi": 84,
      "hit": false,
      "t": 30240,
      "d": 480,
      "v": 96
    },
    {
      "midi": 84,
      "hit": false,
      "t": 30720,
      "d": 720,
      "v": 96
    },
    {
      "midi": 50,
      "hit": false,
      "t": 30720,
      "d": 1920,
      "v": 72
    },
    {
      "midi": 53,
      "hit": false,
      "t": 30720,
      "d": 1920,
      "v": 72
    },
    {
      "midi": 57,
      "hit": false,
      "t": 30720,
      "d": 1920,
      "v": 72
    },
    {
      "midi": 77,
      "hit": false,
      "t": 31440,
      "d": 240,
      "v": 96
    },
    {
      "midi": 79,
      "hit": false,
      "t": 31680,
      "d": 720,
      "v": 96
    },
    {
      "midi": 77,
      "hit": false,
      "t": 32400,
      "d": 240,
      "v": 96
    },
    {
      "midi": 84,
      "hit": false,
      "t": 32640,
      "d": 720,
      "v": 96
    },
    {
      "midi": 50,
      "hit": false,
      "t": 32640,
      "d": 1920,
      "v": 72
    },
    {
      "midi": 53,
      "hit": false,
      "t": 32640,
      "d": 1920,
      "v": 72
    },
    {
      "midi": 57,
      "hit": false,
      "t": 32640,
      "d": 1920,
      "v": 72
    },
    {
      "midi": 77,
      "hit": false,
      "t": 33360,
      "d": 240,
      "v": 96
    },
    {
      "midi": 79,
      "hit": false,
      "t": 33600,
      "d": 720,
      "v": 96
    },
    {
      "midi": 77,
      "hit": false,
      "t": 34320,
      "d": 240,
      "v": 96
    },
    {
      "midi": 83,
      "hit": false,
      "t": 34560,
      "d": 480,
      "v": 96
    },
    {
      "midi": 55,
      "hit": false,
      "t": 34560,
      "d": 3840,
      "v": 72
    },
    {
      "midi": 59,
      "hit": false,
      "t": 34560,
      "d": 3840,
      "v": 72
    },
    {
      "midi": 62,
      "hit": false,
      "t": 34560,
      "d": 3840,
      "v": 72
    },
    {
      "midi": 84,
      "hit": false,
      "t": 35040,
      "d": 480,
      "v": 96
    },
    {
      "midi": 86,
      "hit": false,
      "t": 35520,
      "d": 480,
      "v": 96
    },
    {
      "midi": 84,
      "hit": false,
      "t": 36000,
      "d": 480,
      "v": 96
    },
    {
      "midi": 83,
      "hit": false,
      "t": 36480,
      "d": 480,
      "v": 96
    },
    {
      "midi": 81,
      "hit": false,
      "t": 36960,
      "d": 480,
      "v": 96
    },
    {
      "midi": 79,
      "hit": false,
      "t": 37440,
      "d": 480,
      "v": 96
    },
    {
      "midi": 77,
      "hit": false,
      "t": 37920,
      "d": 480,
      "v": 96
    },
    {
      "midi": 76,
      "hit": false,
      "t": 38400,
      "d": 720,
      "v": 96
    },
    {
      "midi": 48,
      "hit": false,
      "t": 38400,
      "d": 3840,
      "v": 72
    },
    {
      "midi": 52,
      "hit": false,
      "t": 38400,
      "d": 3840,
      "v": 72
    },
    {
      "midi": 55,
      "hit": false,
      "t": 38400,
      "d": 3840,
      "v": 72
    },
    {
      "midi": 76,
      "hit": false,
      "t": 39120,
      "d": 240,
      "v": 96
    },
    {
      "midi": 74,
      "hit": false,
      "t": 39360,
      "d": 720,
      "v": 96
    },
    {
      "midi": 72,
      "hit": false,
      "t": 40080,
      "d": 240,
      "v": 96
    },
    {
      "midi": 79,
      "hit": false,
      "t": 40320,
      "d": 720,
      "v": 96
    },
    {
      "midi": 76,
      "hit": false,
      "t": 41040,
      "d": 240,
      "v": 96
    },
    {
      "midi": 74,
      "hit": false,
      "t": 41280,
      "d": 720,
      "v": 96
    },
    {
      "midi": 72,
      "hit": false,
      "t": 42000,
      "d": 240,
      "v": 96
    },
    {
      "midi": 84,
      "hit": false,
      "t": 42240,
      "d": 720,
      "v": 96
    },
    {
      "midi": 48,
      "hit": false,
      "t": 42240,
      "d": 3840,
      "v": 72
    },
    {
      "midi": 52,
      "hit": false,
      "t": 42240,
      "d": 3840,
      "v": 72
    },
    {
      "midi": 55,
      "hit": false,
      "t": 42240,
      "d": 3840,
      "v": 72
    },
    {
      "midi": 76,
      "hit": false,
      "t": 42960,
      "d": 240,
      "v": 96
    },
    {
      "midi": 74,
      "hit": false,
      "t": 43200,
      "d": 720,
      "v": 96
    },
    {
      "midi": 72,
      "hit": false,
      "t": 43920,
      "d": 240,
      "v": 96
    },
    {
      "midi": 79,
      "hit": false,
      "t": 44160,
      "d": 720,
      "v": 96
    },
    {
      "midi": 76,
      "hit": false,
      "t": 44880,
      "d": 240,
      "v": 96
    },
    {
      "midi": 74,
      "hit": false,
      "t": 45120,
      "d": 720,
      "v": 96
    },
    {
      "midi": 72,
      "hit": false,
      "t": 45840,
      "d": 240,
      "v": 96
    },
    {
      "midi": 84,
      "hit": false,
      "t": 46080,
      "d": 480,
      "v": 96
    },
    {
      "midi": 48,
      "hit": false,
      "t": 46080,
      "d": 3840,
      "v": 72
    },
    {
      "midi": 52,
      "hit": false,
      "t": 46080,
      "d": 3840,
      "v": 72
    },
    {
      "midi": 55,
      "hit": false,
      "t": 46080,
      "d": 3840,
      "v": 72
    },
    {
      "midi": 86,
      "hit": false,
      "t": 46560,
      "d": 480,
      "v": 96
    },
    {
      "midi": 84,
      "hit": false,
      "t": 47040,
      "d": 480,
      "v": 96
    },
    {
      "midi": 86,
      "hit": false,
      "t": 47520,
      "d": 480,
      "v": 96
    },
    {
      "midi": 84,
      "hit": false,
      "t": 48000,
      "d": 480,
      "v": 96
    },
    {
      "midi": 86,
      "hit": false,
      "t": 48480,
      "d": 480,
      "v": 96
    },
    {
      "midi": 84,
      "hit": false,
      "t": 48960,
      "d": 480,
      "v": 96
    },
    {
      "midi": 86,
      "hit": false,
      "t": 49440,
      "d": 480,
      "v": 96
    },
    {
      "midi": 84,
      "hit": false,
      "t": 49920,
      "d": 960,
      "v": 96
    },
    {
      "midi": 43,
      "hit": false,
      "t": 49920,
      "d": 3840,
      "v": 72
    },
    {
      "midi": 48,
      "hit": false,
      "t": 49920,
      "d": 3840,
      "v": 72
    },
    {
      "midi": 52,
      "hit": false,
      "t": 49920,
      "d": 3840,
      "v": 72
    },
    {
      "midi": 83,
      "hit": false,
      "t": 50880,
      "d": 480,
      "v": 96
    },
    {
      "midi": 81,
      "hit": false,
      "t": 51360,
      "d": 480,
      "v": 96
    },
    {
      "midi": 79,
      "hit": false,
      "t": 51840,
      "d": 480,
      "v": 96
    },
    {
      "midi": 77,
      "hit": false,
      "t": 52320,
      "d": 480,
      "v": 96
    },
    {
      "midi": 76,
      "hit": false,
      "t": 52800,
      "d": 480,
      "v": 96
    },
    {
      "midi": 74,
      "hit": false,
      "t": 53280,
      "d": 480,
      "v": 96
    },
    {
      "midi": 76,
      "hit": false,
      "t": 53760,
      "d": 720,
      "v": 96
    },
    {
      "midi": 52,
      "hit": false,
      "t": 53760,
      "d": 1920,
      "v": 72
    },
    {
      "midi": 55,
      "hit": false,
      "t": 53760,
      "d": 1920,
      "v": 72
    },
    {
      "midi": 60,
      "hit": false,
      "t": 53760,
      "d": 1920,
      "v": 72
    },
    {
      "midi": 79,
      "hit": false,
      "t": 54480,
      "d": 240,
      "v": 96
    },
    {
      "midi": 84,
      "hit": false,
      "t": 54720,
      "d": 480,
      "v": 96
    },
    {
      "midi": 76,
      "hit": false,
      "t": 55200,
      "d": 480,
      "v": 96
    },
    {
      "midi": 74,
      "hit": false,
      "t": 55680,
      "d": 960,
      "v": 96
    },
    {
      "midi": 55,
      "hit": false,
      "t": 55680,
      "d": 1920,
      "v": 72
    },
    {
      "midi": 59,
      "hit": false,
      "t": 55680,
      "d": 1920,
      "v": 72
    },
    {
      "midi": 62,
      "hit": false,
      "t": 55680,
      "d": 1920,
      "v": 72
    },
    {
      "midi": 83,
      "hit": false,
      "t": 56640,
      "d": 960,
      "v": 96
    },
    {
      "midi": 84,
      "hit": false,
      "t": 57600,
      "d": 1920,
      "v": 96
    },
    {
      "midi": 48,
      "hit": false,
      "t": 57600,
      "d": 1920,
      "v": 72
    },
    {
      "midi": 52,
      "hit": false,
      "t": 57600,
      "d": 1920,
      "v": 72
    },
    {
      "midi": 55,
      "hit": false,
      "t": 57600,
      "d": 1920,
      "v": 72
    },
    {
      "midi": 82,
      "hit": false,
      "t": 59520,
      "d": 720,
      "v": 96
    },
    {
      "midi": 55,
      "hit": false,
      "t": 59520,
      "d": 1920,
      "v": 72
    },
    {
      "midi": 58,
      "hit": false,
      "t": 59520,
      "d": 1920,
      "v": 72
    },
    {
      "midi": 62,
      "hit": false,
      "t": 59520,
      "d": 1920,
      "v": 72
    },
    {
      "midi": 79,
      "hit": false,
      "t": 60240,
      "d": 240,
      "v": 96
    },
    {
      "midi": 74,
      "hit": false,
      "t": 60480,
      "d": 720,
      "v": 96
    },
    {
      "midi": 79,
      "hit": false,
      "t": 61200,
      "d": 240,
      "v": 96
    },
    {
      "midi": 82,
      "hit": false,
      "t": 61440,
      "d": 720,
      "v": 96
    },
    {
      "midi": 55,
      "hit": false,
      "t": 61440,
      "d": 1920,
      "v": 72
    },
    {
      "midi": 58,
      "hit": false,
      "t": 61440,
      "d": 1920,
      "v": 72
    },
    {
      "midi": 62,
      "hit": false,
      "t": 61440,
      "d": 1920,
      "v": 72
    },
    {
      "midi": 86,
      "hit": false,
      "t": 62160,
      "d": 240,
      "v": 96
    },
    {
      "midi": 82,
      "hit": false,
      "t": 62400,
      "d": 720,
      "v": 96
    },
    {
      "midi": 79,
      "hit": false,
      "t": 63120,
      "d": 240,
      "v": 96
    },
    {
      "midi": 73,
      "hit": false,
      "t": 63360,
      "d": 720,
      "v": 96
    },
    {
      "midi": 57,
      "hit": false,
      "t": 63360,
      "d": 1920,
      "v": 72
    },
    {
      "midi": 61,
      "hit": false,
      "t": 63360,
      "d": 1920,
      "v": 72
    },
    {
      "midi": 64,
      "hit": false,
      "t": 63360,
      "d": 1920,
      "v": 72
    },
    {
      "midi": 76,
      "hit": false,
      "t": 64080,
      "d": 240,
      "v": 96
    },
    {
      "midi": 69,
      "hit": false,
      "t": 64320,
      "d": 720,
      "v": 96
    },
    {
      "midi": 76,
      "hit": false,
      "t": 65040,
      "d": 240,
      "v": 96
    },
    {
      "midi": 79,
      "hit": false,
      "t": 65280,
      "d": 720,
      "v": 96
    },
    {
      "midi": 57,
      "hit": false,
      "t": 65280,
      "d": 1920,
      "v": 72
    },
    {
      "midi": 61,
      "hit": false,
      "t": 65280,
      "d": 1920,
      "v": 72
    },
    {
      "midi": 64,
      "hit": false,
      "t": 65280,
      "d": 1920,
      "v": 72
    },
    {
      "midi": 82,
      "hit": false,
      "t": 66000,
      "d": 240,
      "v": 96
    },
    {
      "midi": 81,
      "hit": false,
      "t": 66240,
      "d": 720,
      "v": 96
    },
    {
      "midi": 79,
      "hit": false,
      "t": 66960,
      "d": 240,
      "v": 96
    },
    {
      "midi": 77,
      "hit": false,
      "t": 67200,
      "d": 480,
      "v": 96
    },
    {
      "midi": 50,
      "hit": false,
      "t": 67200,
      "d": 1920,
      "v": 72
    },
    {
      "midi": 53,
      "hit": false,
      "t": 67200,
      "d": 1920,
      "v": 72
    },
    {
      "midi": 57,
      "hit": false,
      "t": 67200,
      "d": 1920,
      "v": 72
    },
    {
      "midi": 76,
      "hit": false,
      "t": 67680,
      "d": 480,
      "v": 96
    },
    {
      "midi": 74,
      "hit": false,
      "t": 68160,
      "d": 1440,
      "v": 96
    },
    {
      "midi": 81,
      "hit": false,
      "t": 70080,
      "d": 960,
      "v": 96
    },
    {
      "midi": 81,
      "hit": false,
      "t": 71040,
      "d": 240,
      "v": 96
    },
    {
      "midi": 50,
      "hit": false,
      "t": 71040,
      "d": 1920,
      "v": 72
    },
    {
      "midi": 53,
      "hit": false,
      "t": 71040,
      "d": 1920,
      "v": 72
    },
    {
      "midi": 57,
      "hit": false,
      "t": 71040,
      "d": 1920,
      "v": 72
    },
    {
      "midi": 74,
      "hit": false,
      "t": 71280,
      "d": 240,
      "v": 96
    },
    {
      "midi": 76,
      "hit": false,
      "t": 71520,
      "d": 240,
      "v": 96
    },
    {
      "midi": 74,
      "hit": false,
      "t": 71760,
      "d": 240,
      "v": 96
    },
    {
      "midi": 76,
      "hit": false,
      "t": 72000,
      "d": 240,
      "v": 96
    },
    {
      "midi": 74,
      "hit": false,
      "t": 72240,
      "d": 240,
      "v": 96
    },
    {
      "midi": 76,
      "hit": false,
      "t": 72480,
      "d": 240,
      "v": 96
    },
    {
      "midi": 74,
      "hit": false,
      "t": 72720,
      "d": 240,
      "v": 96
    },
    {
      "midi": 81,
      "hit": false,
      "t": 72960,
      "d": 240,
      "v": 96
    },
    {
      "midi": 50,
      "hit": false,
      "t": 72960,
      "d": 1920,
      "v": 72
    },
    {
      "midi": 53,
      "hit": false,
      "t": 72960,
      "d": 1920,
      "v": 72
    },
    {
      "midi": 57,
      "hit": false,
      "t": 72960,
      "d": 1920,
      "v": 72
    },
    {
      "midi": 74,
      "hit": false,
      "t": 73200,
      "d": 240,
      "v": 96
    },
    {
      "midi": 76,
      "hit": false,
      "t": 73440,
      "d": 240,
      "v": 96
    },
    {
      "midi": 74,
      "hit": false,
      "t": 73680,
      "d": 240,
      "v": 96
    },
    {
      "midi": 76,
      "hit": false,
      "t": 73920,
      "d": 240,
      "v": 96
    },
    {
      "midi": 74,
      "hit": false,
      "t": 74160,
      "d": 240,
      "v": 96
    },
    {
      "midi": 76,
      "hit": false,
      "t": 74400,
      "d": 240,
      "v": 96
    },
    {
      "midi": 74,
      "hit": false,
      "t": 74640,
      "d": 240,
      "v": 96
    },
    {
      "midi": 86,
      "hit": false,
      "t": 74880,
      "d": 240,
      "v": 96
    },
    {
      "midi": 57,
      "hit": false,
      "t": 74880,
      "d": 1920,
      "v": 72
    },
    {
      "midi": 62,
      "hit": false,
      "t": 74880,
      "d": 1920,
      "v": 72
    },
    {
      "midi": 65,
      "hit": false,
      "t": 74880,
      "d": 1920,
      "v": 72
    },
    {
      "midi": 81,
      "hit": false,
      "t": 75120,
      "d": 240,
      "v": 96
    },
    {
      "midi": 82,
      "hit": false,
      "t": 75360,
      "d": 240,
      "v": 96
    },
    {
      "midi": 81,
      "hit": false,
      "t": 75600,
      "d": 240,
      "v": 96
    },
    {
      "midi": 82,
      "hit": false,
      "t": 75840,
      "d": 240,
      "v": 96
    },
    {
      "midi": 81,
      "hit": false,
      "t": 76080,
      "d": 240,
      "v": 96
    },
    {
      "midi": 82,
      "hit": false,
      "t": 76320,
      "d": 240,
      "v": 96
    },
    {
      "midi": 81,
      "hit": false,
      "t": 76560,
      "d": 240,
      "v": 96
    },
    {
      "midi": 86,
      "hit": false,
      "t": 76800,
      "d": 240,
      "v": 96
    },
    {
      "midi": 57,
      "hit": false,
      "t": 76800,
      "d": 1920,
      "v": 72
    },
    {
      "midi": 62,
      "hit": false,
      "t": 76800,
      "d": 1920,
      "v": 72
    },
    {
      "midi": 65,
      "hit": false,
      "t": 76800,
      "d": 1920,
      "v": 72
    },
    {
      "midi": 81,
      "hit": false,
      "t": 77040,
      "d": 240,
      "v": 96
    },
    {
      "midi": 82,
      "hit": false,
      "t": 77280,
      "d": 240,
      "v": 96
    },
    {
      "midi": 81,
      "hit": false,
      "t": 77520,
      "d": 240,
      "v": 96
    },
    {
      "midi": 82,
      "hit": false,
      "t": 77760,
      "d": 240,
      "v": 96
    },
    {
      "midi": 81,
      "hit": false,
      "t": 78000,
      "d": 240,
      "v": 96
    },
    {
      "midi": 82,
      "hit": false,
      "t": 78240,
      "d": 240,
      "v": 96
    },
    {
      "midi": 81,
      "hit": false,
      "t": 78480,
      "d": 240,
      "v": 96
    },
    {
      "midi": 86,
      "hit": false,
      "t": 78720,
      "d": 480,
      "v": 96
    },
    {
      "midi": 50,
      "hit": false,
      "t": 78720,
      "d": 1920,
      "v": 72
    },
    {
      "midi": 53,
      "hit": false,
      "t": 78720,
      "d": 1920,
      "v": 72
    },
    {
      "midi": 57,
      "hit": false,
      "t": 78720,
      "d": 1920,
      "v": 72
    },
    {
      "midi": 81,
      "hit": false,
      "t": 79200,
      "d": 480,
      "v": 96
    },
    {
      "midi": 79,
      "hit": false,
      "t": 79680,
      "d": 480,
      "v": 96
    },
    {
      "midi": 77,
      "hit": false,
      "t": 80160,
      "d": 480,
      "v": 96
    },
    {
      "midi": 76,
      "hit": false,
      "t": 80640,
      "d": 120,
      "v": 96
    },
    {
      "midi": 45,
      "hit": false,
      "t": 80640,
      "d": 1920,
      "v": 72
    },
    {
      "midi": 49,
      "hit": false,
      "t": 80640,
      "d": 1920,
      "v": 72
    },
    {
      "midi": 52,
      "hit": false,
      "t": 80640,
      "d": 1920,
      "v": 72
    },
    {
      "midi": 77,
      "hit": false,
      "t": 80760,
      "d": 120,
      "v": 96
    },
    {
      "midi": 76,
      "hit": false,
      "t": 80880,
      "d": 120,
      "v": 96
    },
    {
      "midi": 77,
      "hit": false,
      "t": 81000,
      "d": 120,
      "v": 96
    },
    {
      "midi": 76,
      "hit": false,
      "t": 81120,
      "d": 120,
      "v": 96
    },
    {
      "midi": 77,
      "hit": false,
      "t": 81240,
      "d": 120,
      "v": 96
    },
    {
      "midi": 76,
      "hit": false,
      "t": 81360,
      "d": 120,
      "v": 96
    },
    {
      "midi": 77,
      "hit": false,
      "t": 81480,
      "d": 120,
      "v": 96
    },
    {
      "midi": 76,
      "hit": false,
      "t": 81600,
      "d": 480,
      "v": 96
    },
    {
      "midi": 74,
      "hit": false,
      "t": 82080,
      "d": 480,
      "v": 96
    },
    {
      "midi": 74,
      "hit": false,
      "t": 82560,
      "d": 1920,
      "v": 96
    },
    {
      "midi": 50,
      "hit": false,
      "t": 82560,
      "d": 1920,
      "v": 72
    },
    {
      "midi": 53,
      "hit": false,
      "t": 82560,
      "d": 1920,
      "v": 72
    },
    {
      "midi": 57,
      "hit": false,
      "t": 82560,
      "d": 1920,
      "v": 72
    },
    {
      "midi": 77,
      "hit": false,
      "t": 85440,
      "d": 960,
      "v": 96
    },
    {
      "midi": 77,
      "hit": false,
      "t": 86400,
      "d": 720,
      "v": 96
    },
    {
      "midi": 53,
      "hit": false,
      "t": 86400,
      "d": 1920,
      "v": 72
    },
    {
      "midi": 57,
      "hit": false,
      "t": 86400,
      "d": 1920,
      "v": 72
    },
    {
      "midi": 60,
      "hit": false,
      "t": 86400,
      "d": 1920,
      "v": 72
    },
    {
      "midi": 81,
      "hit": false,
      "t": 87120,
      "d": 240,
      "v": 96
    },
    {
      "midi": 82,
      "hit": false,
      "t": 87360,
      "d": 720,
      "v": 96
    },
    {
      "midi": 84,
      "hit": false,
      "t": 88080,
      "d": 240,
      "v": 96
    },
    {
      "midi": 77,
      "hit": false,
      "t": 88320,
      "d": 720,
      "v": 96
    },
    {
      "midi": 53,
      "hit": false,
      "t": 88320,
      "d": 1920,
      "v": 72
    },
    {
      "midi": 57,
      "hit": false,
      "t": 88320,
      "d": 1920,
      "v": 72
    },
    {
      "midi": 60,
      "hit": false,
      "t": 88320,
      "d": 1920,
      "v": 72
    },
    {
      "midi": 81,
      "hit": false,
      "t": 89040,
      "d": 240,
      "v": 96
    },
    {
      "midi": 84,
      "hit": false,
      "t": 89280,
      "d": 720,
      "v": 96
    },
    {
      "midi": 81,
      "hit": false,
      "t": 90000,
      "d": 240,
      "v": 96
    },
    {
      "midi": 79,
      "hit": false,
      "t": 90240,
      "d": 720,
      "v": 96
    },
    {
      "midi": 48,
      "hit": false,
      "t": 90240,
      "d": 1920,
      "v": 72
    },
    {
      "midi": 52,
      "hit": false,
      "t": 90240,
      "d": 1920,
      "v": 72
    },
    {
      "midi": 55,
      "hit": false,
      "t": 90240,
      "d": 1920,
      "v": 72
    },
    {
      "midi": 76,
      "hit": false,
      "t": 90960,
      "d": 240,
      "v": 96
    },
    {
      "midi": 77,
      "hit": false,
      "t": 91200,
      "d": 720,
      "v": 96
    },
    {
      "midi": 79,
      "hit": false,
      "t": 91920,
      "d": 240,
      "v": 96
    },
    {
      "midi": 72,
      "hit": false,
      "t": 92160,
      "d": 480,
      "v": 96
    },
    {
      "midi": 48,
      "hit": false,
      "t": 92160,
      "d": 1920,
      "v": 72
    },
    {
      "midi": 52,
      "hit": false,
      "t": 92160,
      "d": 1920,
      "v": 72
    },
    {
      "midi": 55,
      "hit": false,
      "t": 92160,
      "d": 1920,
      "v": 72
    },
    {
      "midi": 82,
      "hit": false,
      "t": 92640,
      "d": 480,
      "v": 96
    },
    {
      "midi": 86,
      "hit": false,
      "t": 93120,
      "d": 480,
      "v": 96
    },
    {
      "midi": 82,
      "hit": false,
      "t": 93600,
      "d": 480,
      "v": 96
    },
    {
      "midi": 81,
      "hit": false,
      "t": 94080,
      "d": 480,
      "v": 96
    },
    {
      "midi": 53,
      "hit": false,
      "t": 94080,
      "d": 1920,
      "v": 72
    },
    {
      "midi": 57,
      "hit": false,
      "t": 94080,
      "d": 1920,
      "v": 72
    },
    {
      "midi": 60,
      "hit": false,
      "t": 94080,
      "d": 1920,
      "v": 72
    },
    {
      "midi": 79,
      "hit": false,
      "t": 94560,
      "d": 480,
      "v": 96
    },
    {
      "midi": 77,
      "hit": false,
      "t": 95040,
      "d": 1440,
      "v": 96
    },
    {
      "midi": 84,
      "hit": false,
      "t": 96960,
      "d": 960,
      "v": 96
    },
    {
      "midi": 84,
      "hit": false,
      "t": 97920,
      "d": 480,
      "v": 96
    },
    {
      "midi": 53,
      "hit": false,
      "t": 97920,
      "d": 3840,
      "v": 72
    },
    {
      "midi": 57,
      "hit": false,
      "t": 97920,
      "d": 3840,
      "v": 72
    },
    {
      "midi": 60,
      "hit": false,
      "t": 97920,
      "d": 3840,
      "v": 72
    },
    {
      "midi": 86,
      "hit": false,
      "t": 98400,
      "d": 480,
      "v": 96
    },
    {
      "midi": 84,
      "hit": false,
      "t": 98880,
      "d": 480,
      "v": 96
    },
    {
      "midi": 82,
      "hit": false,
      "t": 99360,
      "d": 480,
      "v": 96
    },
    {
      "midi": 81,
      "hit": false,
      "t": 99840,
      "d": 480,
      "v": 96
    },
    {
      "midi": 79,
      "hit": false,
      "t": 100320,
      "d": 480,
      "v": 96
    },
    {
      "midi": 77,
      "hit": false,
      "t": 100800,
      "d": 480,
      "v": 96
    },
    {
      "midi": 75,
      "hit": false,
      "t": 101280,
      "d": 480,
      "v": 96
    },
    {
      "midi": 74,
      "hit": false,
      "t": 101760,
      "d": 480,
      "v": 96
    },
    {
      "midi": 46,
      "hit": false,
      "t": 101760,
      "d": 1920,
      "v": 72
    },
    {
      "midi": 50,
      "hit": false,
      "t": 101760,
      "d": 1920,
      "v": 72
    },
    {
      "midi": 53,
      "hit": false,
      "t": 101760,
      "d": 1920,
      "v": 72
    },
    {
      "midi": 72,
      "hit": false,
      "t": 102240,
      "d": 480,
      "v": 96
    },
    {
      "midi": 70,
      "hit": false,
      "t": 102720,
      "d": 1440,
      "v": 96
    },
    {
      "midi": 86,
      "hit": false,
      "t": 104640,
      "d": 960,
      "v": 96
    },
    {
      "midi": 86,
      "hit": false,
      "t": 105600,
      "d": 480,
      "v": 96
    },
    {
      "midi": 46,
      "hit": false,
      "t": 105600,
      "d": 3840,
      "v": 72
    },
    {
      "midi": 50,
      "hit": false,
      "t": 105600,
      "d": 3840,
      "v": 72
    },
    {
      "midi": 53,
      "hit": false,
      "t": 105600,
      "d": 3840,
      "v": 72
    },
    {
      "midi": 88,
      "hit": false,
      "t": 106080,
      "d": 480,
      "v": 96
    },
    {
      "midi": 86,
      "hit": false,
      "t": 106560,
      "d": 480,
      "v": 96
    },
    {
      "midi": 84,
      "hit": false,
      "t": 107040,
      "d": 480,
      "v": 96
    },
    {
      "midi": 82,
      "hit": false,
      "t": 107520,
      "d": 480,
      "v": 96
    },
    {
      "midi": 81,
      "hit": false,
      "t": 108000,
      "d": 480,
      "v": 96
    },
    {
      "midi": 79,
      "hit": false,
      "t": 108480,
      "d": 480,
      "v": 96
    },
    {
      "midi": 77,
      "hit": false,
      "t": 108960,
      "d": 480,
      "v": 96
    },
    {
      "midi": 76,
      "hit": false,
      "t": 109440,
      "d": 480,
      "v": 96
    },
    {
      "midi": 48,
      "hit": false,
      "t": 109440,
      "d": 1920,
      "v": 72
    },
    {
      "midi": 52,
      "hit": false,
      "t": 109440,
      "d": 1920,
      "v": 72
    },
    {
      "midi": 55,
      "hit": false,
      "t": 109440,
      "d": 1920,
      "v": 72
    },
    {
      "midi": 74,
      "hit": false,
      "t": 109920,
      "d": 480,
      "v": 96
    },
    {
      "midi": 72,
      "hit": false,
      "t": 110400,
      "d": 960,
      "v": 96
    },
    {
      "midi": 76,
      "hit": false,
      "t": 111840,
      "d": 480,
      "v": 96
    },
    {
      "midi": 79,
      "hit": false,
      "t": 112320,
      "d": 480,
      "v": 96
    },
    {
      "midi": 82,
      "hit": false,
      "t": 112800,
      "d": 480,
      "v": 96
    },
    {
      "midi": 81,
      "hit": false,
      "t": 113280,
      "d": 240,
      "v": 96
    },
    {
      "midi": 53,
      "hit": false,
      "t": 113280,
      "d": 1920,
      "v": 72
    },
    {
      "midi": 57,
      "hit": false,
      "t": 113280,
      "d": 1920,
      "v": 72
    },
    {
      "midi": 60,
      "hit": false,
      "t": 113280,
      "d": 1920,
      "v": 72
    },
    {
      "midi": 72,
      "hit": false,
      "t": 113520,
      "d": 240,
      "v": 96
    },
    {
      "midi": 74,
      "hit": false,
      "t": 113760,
      "d": 240,
      "v": 96
    },
    {
      "midi": 72,
      "hit": false,
      "t": 114000,
      "d": 240,
      "v": 96
    },
    {
      "midi": 74,
      "hit": false,
      "t": 114240,
      "d": 240,
      "v": 96
    },
    {
      "midi": 72,
      "hit": false,
      "t": 114480,
      "d": 240,
      "v": 96
    },
    {
      "midi": 74,
      "hit": false,
      "t": 114720,
      "d": 240,
      "v": 96
    },
    {
      "midi": 72,
      "hit": false,
      "t": 114960,
      "d": 240,
      "v": 96
    },
    {
      "midi": 81,
      "hit": false,
      "t": 115200,
      "d": 240,
      "v": 96
    },
    {
      "midi": 53,
      "hit": false,
      "t": 115200,
      "d": 1920,
      "v": 72
    },
    {
      "midi": 57,
      "hit": false,
      "t": 115200,
      "d": 1920,
      "v": 72
    },
    {
      "midi": 60,
      "hit": false,
      "t": 115200,
      "d": 1920,
      "v": 72
    },
    {
      "midi": 72,
      "hit": false,
      "t": 115440,
      "d": 240,
      "v": 96
    },
    {
      "midi": 74,
      "hit": false,
      "t": 115680,
      "d": 240,
      "v": 96
    },
    {
      "midi": 72,
      "hit": false,
      "t": 115920,
      "d": 240,
      "v": 96
    },
    {
      "midi": 74,
      "hit": false,
      "t": 116160,
      "d": 240,
      "v": 96
    },
    {
      "midi": 72,
      "hit": false,
      "t": 116400,
      "d": 240,
      "v": 96
    },
    {
      "midi": 74,
      "hit": false,
      "t": 116640,
      "d": 240,
      "v": 96
    },
    {
      "midi": 72,
      "hit": false,
      "t": 116880,
      "d": 240,
      "v": 96
    },
    {
      "midi": 79,
      "hit": false,
      "t": 117120,
      "d": 240,
      "v": 96
    },
    {
      "midi": 48,
      "hit": false,
      "t": 117120,
      "d": 1920,
      "v": 72
    },
    {
      "midi": 52,
      "hit": false,
      "t": 117120,
      "d": 1920,
      "v": 72
    },
    {
      "midi": 55,
      "hit": false,
      "t": 117120,
      "d": 1920,
      "v": 72
    },
    {
      "midi": 72,
      "hit": false,
      "t": 117360,
      "d": 240,
      "v": 96
    },
    {
      "midi": 74,
      "hit": false,
      "t": 117600,
      "d": 240,
      "v": 96
    },
    {
      "midi": 72,
      "hit": false,
      "t": 117840,
      "d": 240,
      "v": 96
    },
    {
      "midi": 74,
      "hit": false,
      "t": 118080,
      "d": 240,
      "v": 96
    },
    {
      "midi": 72,
      "hit": false,
      "t": 118320,
      "d": 240,
      "v": 96
    },
    {
      "midi": 74,
      "hit": false,
      "t": 118560,
      "d": 240,
      "v": 96
    },
    {
      "midi": 72,
      "hit": false,
      "t": 118800,
      "d": 240,
      "v": 96
    },
    {
      "midi": 82,
      "hit": false,
      "t": 119040,
      "d": 240,
      "v": 96
    },
    {
      "midi": 48,
      "hit": false,
      "t": 119040,
      "d": 1920,
      "v": 72
    },
    {
      "midi": 52,
      "hit": false,
      "t": 119040,
      "d": 1920,
      "v": 72
    },
    {
      "midi": 55,
      "hit": false,
      "t": 119040,
      "d": 1920,
      "v": 72
    },
    {
      "midi": 72,
      "hit": false,
      "t": 119280,
      "d": 240,
      "v": 96
    },
    {
      "midi": 74,
      "hit": false,
      "t": 119520,
      "d": 240,
      "v": 96
    },
    {
      "midi": 72,
      "hit": false,
      "t": 119760,
      "d": 240,
      "v": 96
    },
    {
      "midi": 74,
      "hit": false,
      "t": 120000,
      "d": 240,
      "v": 96
    },
    {
      "midi": 72,
      "hit": false,
      "t": 120240,
      "d": 240,
      "v": 96
    },
    {
      "midi": 74,
      "hit": false,
      "t": 120480,
      "d": 240,
      "v": 96
    },
    {
      "midi": 72,
      "hit": false,
      "t": 120720,
      "d": 240,
      "v": 96
    },
    {
      "midi": 81,
      "hit": false,
      "t": 120960,
      "d": 720,
      "v": 96
    },
    {
      "midi": 53,
      "hit": false,
      "t": 120960,
      "d": 1920,
      "v": 72
    },
    {
      "midi": 57,
      "hit": false,
      "t": 120960,
      "d": 1920,
      "v": 72
    },
    {
      "midi": 60,
      "hit": false,
      "t": 120960,
      "d": 1920,
      "v": 72
    },
    {
      "midi": 82,
      "hit": false,
      "t": 121680,
      "d": 240,
      "v": 96
    },
    {
      "midi": 84,
      "hit": false,
      "t": 121920,
      "d": 480,
      "v": 96
    },
    {
      "midi": 77,
      "hit": false,
      "t": 122400,
      "d": 480,
      "v": 96
    },
    {
      "midi": 79,
      "hit": false,
      "t": 122880,
      "d": 120,
      "v": 96
    },
    {
      "midi": 48,
      "hit": false,
      "t": 122880,
      "d": 1920,
      "v": 72
    },
    {
      "midi": 52,
      "hit": false,
      "t": 122880,
      "d": 1920,
      "v": 72
    },
    {
      "midi": 55,
      "hit": false,
      "t": 122880,
      "d": 1920,
      "v": 72
    },
    {
      "midi": 81,
      "hit": false,
      "t": 123000,
      "d": 120,
      "v": 96
    },
    {
      "midi": 79,
      "hit": false,
      "t": 123120,
      "d": 120,
      "v": 96
    },
    {
      "midi": 81,
      "hit": false,
      "t": 123240,
      "d": 120,
      "v": 96
    },
    {
      "midi": 79,
      "hit": false,
      "t": 123360,
      "d": 120,
      "v": 96
    },
    {
      "midi": 81,
      "hit": false,
      "t": 123480,
      "d": 120,
      "v": 96
    },
    {
      "midi": 79,
      "hit": false,
      "t": 123600,
      "d": 120,
      "v": 96
    },
    {
      "midi": 81,
      "hit": false,
      "t": 123720,
      "d": 120,
      "v": 96
    },
    {
      "midi": 79,
      "hit": false,
      "t": 123840,
      "d": 480,
      "v": 96
    },
    {
      "midi": 77,
      "hit": false,
      "t": 124320,
      "d": 480,
      "v": 96
    },
    {
      "midi": 77,
      "hit": false,
      "t": 124800,
      "d": 1920,
      "v": 96
    },
    {
      "midi": 53,
      "hit": false,
      "t": 124800,
      "d": 1920,
      "v": 72
    },
    {
      "midi": 57,
      "hit": false,
      "t": 124800,
      "d": 1920,
      "v": 72
    },
    {
      "midi": 60,
      "hit": false,
      "t": 124800,
      "d": 1920,
      "v": 72
    }
  ]
}