{
  "jsonPath": "Electronic/Greek House/Angel Stoxx/falling-in-love.json",
  "path": "Electronic\\Greek House\\Angel Stoxx\\Falling In Love.mid",
  "name": "Falling In Love",
  "difficulty": "Advanced",
  "bpm": 120,
  "notes": [
    {
      "midi": 88,
      "hit": false,
      "t": 500,
      "d": 125,
      "v": 127
    },
    {
      "midi": 64,
      "hit": false,
      "t": 500,
      "d": 247.91666666666663,
      "v": 124
    },
    {
      "midi": 83,
      "hit": false,
      "t": 750,
      "d": 125,
      "v": 81
    },
    {
      "midi": 71,
      "hit": false,
      "t": 750,
      "d": 59.375,
      "v": 78
    },
    {
      "midi": 67,
      "hit": false,
      "t": 750,
      "d": 67.70833333333337,
      "v": 111
    },
    {
      "midi": 87,
      "hit": false,
      "t": 875,
      "d": 125,
      "v": 100
    },
    {
      "midi": 63,
      "hit": false,
      "t": 875,
      "d": 247.91666666666674,
      "v": 111
    },
    {
      "midi": 83,
      "hit": false,
      "t": 1125,
      "d": 125,
      "v": 80
    },
    {
      "midi": 67,
      "hit": false,
      "t": 1125,
      "d": 98.95833333333326,
      "v": 108
    },
    {
      "midi": 71,
      "hit": false,
      "t": 1125,
      "d": 98.95833333333326,
      "v": 101
    },
    {
      "midi": 86,
      "hit": false,
      "t": 1375,
      "d": 125,
      "v": 100
    },
    {
      "midi": 62,
      "hit": false,
      "t": 1375,
      "d": 247.91666666666674,
      "v": 124
    },
    {
      "midi": 83,
      "hit": false,
      "t": 1625,
      "d": 125,
      "v": 80
    },
    {
      "midi": 67,
      "hit": false,
      "t": 1625,
      "d": 109.375,
      "v": 95
    },
    {
      "midi": 71,
      "hit": false,
      "t": 1625,
      "d": 115.625,
      "v": 95
    },
    {
      "midi": 87,
      "hit": false,
      "t": 1875,
      "d": 125,
      "v": 83
    },
    {
      "midi": 63,
      "hit": false,
      "t": 1875,
      "d": 247.91666666666652,
      "v": 107
    },
    {
      "midi": 83,
      "hit": false,
      "t": 2125,
      "d": 125,
      "v": 69
    },
    {
      "midi": 67,
      "hit": false,
      "t": 2125,
      "d": 104.16666666666652,
      "v": 86
    },
    {
      "midi": 71,
      "hit": false,
      "t": 2125,
      "d": 130.20833333333303,
      "v": 98
    },
    {
      "midi": 64,
      "hit": false,
      "t": 2374.9999999999995,
      "d": 78.125,
      "v": 115
    },
    {
      "midi": 88,
      "hit": false,
      "t": 2375,
      "d": 59.375,
      "v": 91
    },
    {
      "midi": 64,
      "hit": false,
      "t": 2499.9999999999995,
      "d": 247.91666666666652,
      "v": 124
    },
    {
      "midi": 88,
      "hit": false,
      "t": 2500,
      "d": 125,
      "v": 123
    },
    {
      "midi": 69,
      "hit": false,
      "t": 2749.9999999999995,
      "d": 86.45833333333348,
      "v": 115
    },
    {
      "midi": 72,
      "hit": false,
      "t": 2749.9999999999995,
      "d": 98.95833333333348,
      "v": 104
    },
    {
      "midi": 84,
      "hit": false,
      "t": 2750,
      "d": 125,
      "v": 80
    },
    {
      "midi": 64,
      "hit": false,
      "t": 2874.9999999999995,
      "d": 247.91666666666652,
      "v": 115
    },
    {
      "midi": 88,
      "hit": false,
      "t": 2875,
      "d": 125,
      "v": 100
    },
    {
      "midi": 68,
      "hit": false,
      "t": 3124.9999999999995,
      "d": 105.20833333333348,
      "v": 107
    },
    {
      "midi": 72,
      "hit": false,
      "t": 3124.9999999999995,
      "d": 107.29166666666697,
      "v": 104
    },
    {
      "midi": 84,
      "hit": false,
      "t": 3125,
      "d": 125,
      "v": 87
    },
    {
      "midi": 88,
      "hit": false,
      "t": 3375,
      "d": 125,
      "v": 96
    },
    {
      "midi": 64,
      "hit": false,
      "t": 3375,
      "d": 247.91666666666652,
      "v": 120
    },
    {
      "midi": 84,
      "hit": false,
      "t": 3625,
      "d": 125,
      "v": 84
    },
    {
      "midi": 67,
      "hit": false,
      "t": 3625,
      "d": 94.79166666666652,
      "v": 115
    },
    {
      "midi": 72,
      "hit": false,
      "t": 3625,
      "d": 104.16666666666652,
      "v": 115
    },
    {
      "midi": 88,
      "hit": false,
      "t": 3875,
      "d": 125,
      "v": 100
    },
    {
      "midi": 64,
      "hit": false,
      "t": 3875,
      "d": 247.91666666666697,
      "v": 115
    },
    {
      "midi": 84,
      "hit": false,
      "t": 4125,
      "d": 125,
      "v": 84
    },
    {
      "midi": 66,
      "hit": false,
      "t": 4125,
      "d": 90.625,
      "v": 101
    },
    {
      "midi": 72,
      "hit": false,
      "t": 4125,
      "d": 101.04166666666697,
      "v": 124
    },
    {
      "midi": 88,
      "hit": false,
      "t": 4375,
      "d": 125,
      "v": 100
    },
    {
      "midi": 64,
      "hit": false,
      "t": 4375,
      "d": 80.20833333333303,
      "v": 115
    },
    {
      "midi": 88,
      "hit": false,
      "t": 4500,
      "d": 125,
      "v": 127
    },
    {
      "midi": 64,
      "hit": false,
      "t": 4500,
      "d": 247.91666666666697,
      "v": 124
    },
    {
      "midi": 83,
      "hit": false,
      "t": 4750,
      "d": 125,
      "v": 81
    },
    {
      "midi": 71,
      "hit": false,
      "t": 4750,
      "d": 59.375,
      "v": 78
    },
    {
      "midi": 67,
      "hit": false,
      "t": 4750,
      "d": 67.70833333333303,
      "v": 111
    },
    {
      "midi": 87,
      "hit": false,
      "t": 4875,
      "d": 125,
      "v": 100
    },
    {
      "midi": 63,
      "hit": false,
      "t": 4875,
      "d": 247.91666666666697,
      "v": 111
    },
    {
      "midi": 83,
      "hit": false,
      "t": 5125,
      "d": 125,
      "v": 80
    },
    {
      "midi": 67,
      "hit": false,
      "t": 5125,
      "d": 98.95833333333303,
      "v": 108
    },
    {
      "midi": 71,
      "hit": false,
      "t": 5125,
      "d": 98.95833333333303,
      "v": 101
    },
    {
      "midi": 86,
      "hit": false,
      "t": 5375,
      "d": 125,
      "v": 100
    },
    {
      "midi": 62,
      "hit": false,
      "t": 5375,
      "d": 247.91666666666697,
      "v": 124
    },
    {
      "midi": 83,
      "hit": false,
      "t": 5625,
      "d": 125,
      "v": 80
    },
    {
      "midi": 67,
      "hit": false,
      "t": 5625,
      "d": 109.375,
      "v": 95
    },
    {
      "midi": 71,
      "hit": false,
      "t": 5625,
      "d": 115.625,
      "v": 95
    },
    {
      "midi": 87,
      "hit": false,
      "t": 5875,
      "d": 125,
      "v": 83
    },
    {
      "midi": 63,
      "hit": false,
      "t": 5875,
      "d": 247.91666666666697,
      "v": 107
    },
    {
      "midi": 83,
      "hit": false,
      "t": 6125,
      "d": 125,
      "v": 69
    },
    {
      "midi": 67,
      "hit": false,
      "t": 6125,
      "d": 104.16666666666697,
      "v": 86
    },
    {
      "midi": 71,
      "hit": false,
      "t": 6125,
      "d": 130.20833333333394,
      "v": 98
    },
    {
      "midi": 88,
      "hit": false,
      "t": 6375,
      "d": 59.375,
      "v": 91
    },
    {
      "midi": 64,
      "hit": false,
      "t": 6375.000000000001,
      "d": 78.125,
      "v": 115
    },
    {
      "midi": 88,
      "hit": false,
      "t": 6500,
      "d": 125,
      "v": 125
    },
    {
      "midi": 64,
      "hit": false,
      "t": 6500.000000000001,
      "d": 247.91666666666697,
      "v": 124
    },
    {
      "midi": 84,
      "hit": false,
      "t": 6750,
      "d": 125,
      "v": 80
    },
    {
      "midi": 69,
      "hit": false,
      "t": 6750.000000000001,
      "d": 86.45833333333303,
      "v": 115
    },
    {
      "midi": 72,
      "hit": false,
      "t": 6750.000000000001,
      "d": 98.95833333333303,
      "v": 104
    },
    {
      "midi": 88,
      "hit": false,
      "t": 6875,
      "d": 125,
      "v": 100
    },
    {
      "midi": 64,
      "hit": false,
      "t": 6875.000000000001,
      "d": 247.91666666666697,
      "v": 115
    },
    {
      "midi": 84,
      "hit": false,
      "t": 7125,
      "d": 125,
      "v": 87
    },
    {
      "midi": 68,
      "hit": false,
      "t": 7125.000000000001,
      "d": 105.20833333333303,
      "v": 107
    },
    {
      "midi": 72,
      "hit": false,
      "t": 7125.000000000001,
      "d": 107.29166666666606,
      "v": 104
    },
    {
      "midi": 88,
      "hit": false,
      "t": 7375,
      "d": 125,
      "v": 96
    },
    {
      "midi": 64,
      "hit": false,
      "t": 7375,
      "d": 247.91666666666697,
      "v": 120
    },
    {
      "midi": 84,
      "hit": false,
      "t": 7625,
      "d": 125,
      "v": 84
    },
    {
      "midi": 67,
      "hit": false,
      "t": 7625,
      "d": 94.79166666666697,
      "v": 115
    },
    {
      "midi": 72,
      "hit": false,
      "t": 7625,
      "d": 104.16666666666697,
      "v": 115
    },
    {
      "midi": 88,
      "hit": false,
      "t": 7875,
      "d": 125,
      "v": 100
    },
    {
      "midi": 64,
      "hit": false,
      "t": 7875,
      "d": 247.91666666666697,
      "v": 115
    },
    {
      "midi": 84,
      "hit": false,
      "t": 8125,
      "d": 125,
      "v": 84
    },
    {
      "midi": 66,
      "hit": false,
      "t": 8125,
      "d": 90.625,
      "v": 101
    },
    {
      "midi": 72,
      "hit": false,
      "t": 8125,
      "d": 101.04166666666606,
      "v": 124
    },
    {
      "midi": 64,
      "hit": false,
      "t": 8375,
      "d": 80.20833333333394,
      "v": 115
    },
    {
      "midi": 64,
      "hit": false,
      "t": 8500,
      "d": 125,
      "v": 124
    },
    {
      "midi": 76,
      "hit": false,
      "t": 8500,
      "d": 125,
      "v": 124
    },
    {
      "midi": 67,
      "hit": false,
      "t": 8750,
      "d": 125,
      "v": 124
    },
    {
      "midi": 71,
      "hit": false,
      "t": 8750,
      "d": 125,
      "v": 88
    },
    {
      "midi": 63,
      "hit": false,
      "t": 8875,
      "d": 125,
      "v": 107
    },
    {
      "midi": 75,
      "hit": false,
      "t": 8875,
      "d": 125,
      "v": 107
    },
    {
      "midi": 67,
      "hit": false,
      "t": 9125,
      "d": 125,
      "v": 94
    },
    {
      "midi": 71,
      "hit": false,
      "t": 9125,
      "d": 125,
      "v": 87
    },
    {
      "midi": 83,
      "hit": false,
      "t": 9125,
      "d": 117.70833333333394,
      "v": 122
    },
    {
      "midi": 71,
      "hit": false,
      "t": 9125,
      "d": 117.70833333333394,
      "v": 122
    },
    {
      "midi": 88,
      "hit": false,
      "t": 9245.833333333334,
      "d": 126.04166666666606,
      "v": 122
    },
    {
      "midi": 76,
      "hit": false,
      "t": 9245.833333333334,
      "d": 126.04166666666606,
      "v": 122
    },
    {
      "midi": 90,
      "hit": false,
      "t": 9372.916666666666,
      "d": 117.70833333333394,
      "v": 117
    },
    {
      "midi": 78,
      "hit": false,
      "t": 9372.916666666666,
      "d": 117.70833333333394,
      "v": 117
    },
    {
      "midi": 62,
      "hit": false,
      "t": 9375,
      "d": 125,
      "v": 127
    },
    {
      "midi": 74,
      "hit": false,
      "t": 9375,
      "d": 125,
      "v": 117
    },
    {
      "midi": 91,
      "hit": false,
      "t": 9491.666666666666,
      "d": 119.79166666666606,
      "v": 127
    },
    {
      "midi": 79,
      "hit": false,
      "t": 9491.666666666666,
      "d": 119.79166666666606,
      "v": 127
    },
    {
      "midi": 90,
      "hit": false,
      "t": 9612.499999999998,
      "d": 121.875,
      "v": 104
    },
    {
      "midi": 78,
      "hit": false,
      "t": 9612.499999999998,
      "d": 121.875,
      "v": 104
    },
    {
      "midi": 67,
      "hit": false,
      "t": 9625,
      "d": 125,
      "v": 113
    },
    {
      "midi": 71,
      "hit": false,
      "t": 9625,
      "d": 125,
      "v": 97
    },
    {
      "midi": 88,
      "hit": false,
      "t": 9874.999999999998,
      "d": 95.83333333333394,
      "v": 127
    },
    {
      "midi": 76,
      "hit": false,
      "t": 9874.999999999998,
      "d": 95.83333333333394,
      "v": 127
    },
    {
      "midi": 63,
      "hit": false,
      "t": 9875,
      "d": 125,
      "v": 100
    },
    {
      "midi": 75,
      "hit": false,
      "t": 9875,
      "d": 125,
      "v": 100
    },
    {
      "midi": 67,
      "hit": false,
      "t": 10125,
      "d": 125,
      "v": 86
    },
    {
      "midi": 71,
      "hit": false,
      "t": 10125,
      "d": 125,
      "v": 86
    },
    {
      "midi": 91,
      "hit": false,
      "t": 10135.416666666666,
      "d": 93.75,
      "v": 127
    },
    {
      "midi": 79,
      "hit": false,
      "t": 10135.416666666666,
      "d": 93.75,
      "v": 127
    },
    {
      "midi": 64,
      "hit": false,
      "t": 10375,
      "d": 125,
      "v": 113
    },
    {
      "midi": 76,
      "hit": false,
      "t": 10375,
      "d": 125,
      "v": 108
    },
    {
      "midi": 86,
      "hit": false,
      "t": 10380.208333333332,
      "d": 231.25,
      "v": 127
    },
    {
      "midi": 74,
      "hit": false,
      "t": 10380.208333333332,
      "d": 231.25,
      "v": 127
    },
    {
      "midi": 64,
      "hit": false,
      "t": 10500,
      "d": 125,
      "v": 113
    },
    {
      "midi": 76,
      "hit": false,
      "t": 10500,
      "d": 125,
      "v": 113
    },
    {
      "midi": 87,
      "hit": false,
      "t": 10612.499999999998,
      "d": 67.70833333333394,
      "v": 83
    },
    {
      "midi": 75,
      "hit": false,
      "t": 10612.499999999998,
      "d": 67.70833333333394,
      "v": 83
    },
    {
      "midi": 86,
      "hit": false,
      "t": 10682.291666666666,
      "d": 52.08333333333394,
      "v": 83
    },
    {
      "midi": 74,
      "hit": false,
      "t": 10682.291666666666,
      "d": 52.08333333333394,
      "v": 83
    },
    {
      "midi": 84,
      "hit": false,
      "t": 10735.416666666666,
      "d": 301.04166666666606,
      "v": 127
    },
    {
      "midi": 72,
      "hit": false,
      "t": 10735.416666666666,
      "d": 301.04166666666606,
      "v": 127
    },
    {
      "midi": 69,
      "hit": false,
      "t": 10750,
      "d": 125,
      "v": 104
    },
    {
      "midi": 72,
      "hit": false,
      "t": 10750,
      "d": 125,
      "v": 97
    },
    {
      "midi": 64,
      "hit": false,
      "t": 10875,
      "d": 125,
      "v": 117
    },
    {
      "midi": 76,
      "hit": false,
      "t": 10875,
      "d": 125,
      "v": 117
    },
    {
      "midi": 68,
      "hit": false,
      "t": 11125,
      "d": 125,
      "v": 127
    },
    {
      "midi": 72,
      "hit": false,
      "t": 11125,
      "d": 125,
      "v": 104
    },
    {
      "midi": 64,
      "hit": false,
      "t": 11375,
      "d": 125,
      "v": 117
    },
    {
      "midi": 76,
      "hit": false,
      "t": 11375,
      "d": 125,
      "v": 113
    },
    {
      "midi": 67,
      "hit": false,
      "t": 11625,
      "d": 125,
      "v": 117
    },
    {
      "midi": 72,
      "hit": false,
      "t": 11625,
      "d": 125,
      "v": 101
    },
    {
      "midi": 64,
      "hit": false,
      "t": 11875,
      "d": 125,
      "v": 117
    },
    {
      "midi": 76,
      "hit": false,
      "t": 11875,
      "d": 125,
      "v": 117
    },
    {
      "midi": 82,
      "hit": false,
      "t": 12124.999999999998,
      "d": 59.375,
      "v": 80
    },
    {
      "midi": 70,
      "hit": false,
      "t": 12124.999999999998,
      "d": 59.375,
      "v": 81
    },
    {
      "midi": 66,
      "hit": false,
      "t": 12125,
      "d": 125,
      "v": 117
    },
    {
      "midi": 72,
      "hit": false,
      "t": 12125,
      "d": 125,
      "v": 101
    },
    {
      "midi": 71,
      "hit": false,
      "t": 12158.333333333332,
      "d": 114.58333333333212,
      "v": 117
    },
    {
      "midi": 83,
      "hit": false,
      "t": 12163.541666666664,
      "d": 114.58333333333394,
      "v": 117
    },
    {
      "midi": 64,
      "hit": false,
      "t": 12375,
      "d": 125,
      "v": 117
    },
    {
      "midi": 76,
      "hit": false,
      "t": 12375,
      "d": 125,
      "v": 117
    },
    {
      "midi": 81,
      "hit": false,
      "t": 12390.624999999998,
      "d": 231.25,
      "v": 127
    },
    {
      "midi": 69,
      "hit": false,
      "t": 12390.624999999998,
      "d": 231.25,
      "v": 127
    },
    {
      "midi": 64,
      "hit": false,
      "t": 12500,
      "d": 125,
      "v": 97
    },
    {
      "midi": 76,
      "hit": false,
      "t": 12500,
      "d": 125,
      "v": 97
    },
    {
      "midi": 68,
      "hit": false,
      "t": 12750,
      "d": 125,
      "v": 113
    },
    {
      "midi": 72,
      "hit": false,
      "t": 12750,
      "d": 125,
      "v": 101
    },
    {
      "midi": 64,
      "hit": false,
      "t": 12875,
      "d": 125,
      "v": 113
    },
    {
      "midi": 76,
      "hit": false,
      "t": 12875,
      "d": 125,
      "v": 113
    },
    {
      "midi": 69,
      "hit": false,
      "t": 13125,
      "d": 125,
      "v": 108
    },
    {
      "midi": 72,
      "hit": false,
      "t": 13125,
      "d": 125,
      "v": 101
    },
    {
      "midi": 84,
      "hit": false,
      "t": 13131.249999999998,
      "d": 113.54166666666606,
      "v": 127
    },
    {
      "midi": 72,
      "hit": false,
      "t": 13131.249999999998,
      "d": 113.54166666666606,
      "v": 127
    },
    {
      "midi": 81,
      "hit": false,
      "t": 13374.999999999998,
      "d": 113.54166666666606,
      "v": 127
    },
    {
      "midi": 69,
      "hit": false,
      "t": 13374.999999999998,
      "d": 113.54166666666606,
      "v": 127
    },
    {
      "midi": 63,
      "hit": false,
      "t": 13375,
      "d": 125,
      "v": 104
    },
    {
      "midi": 75,
      "hit": false,
      "t": 13375,
      "d": 125,
      "v": 104
    },
    {
      "midi": 69,
      "hit": false,
      "t": 13625,
      "d": 125,
      "v": 97
    },
    {
      "midi": 72,
      "hit": false,
      "t": 13625,
      "d": 125,
      "v": 97
    },
    {
      "midi": 87,
      "hit": false,
      "t": 13643.749999999998,
      "d": 125,
      "v": 127
    },
    {
      "midi": 75,
      "hit": false,
      "t": 13643.749999999998,
      "d": 125,
      "v": 127
    },
    {
      "midi": 63,
      "hit": false,
      "t": 13875,
      "d": 125,
      "v": 100
    },
    {
      "midi": 75,
      "hit": false,
      "t": 13875,
      "d": 125,
      "v": 100
    },
    {
      "midi": 84,
      "hit": false,
      "t": 13890.624999999998,
      "d": 89.58333333333394,
      "v": 127
    },
    {
      "midi": 72,
      "hit": false,
      "t": 13890.624999999998,
      "d": 89.58333333333394,
      "v": 127
    },
    {
      "midi": 98,
      "hit": false,
      "t": 13999.999999999998,
      "d": 200,
      "v": 127
    },
    {
      "midi": 86,
      "hit": false,
      "t": 13999.999999999998,
      "d": 200,
      "v": 127
    },
    {
      "midi": 69,
      "hit": false,
      "t": 14125,
      "d": 125,
      "v": 104
    },
    {
      "midi": 71,
      "hit": false,
      "t": 14125,
      "d": 125,
      "v": 104
    },
    {
      "midi": 96,
      "hit": false,
      "t": 14258.333333333332,
      "d": 177.08333333333394,
      "v": 127
    },
    {
      "midi": 84,
      "hit": false,
      "t": 14258.333333333332,
      "d": 177.08333333333394,
      "v": 127
    },
    {
      "midi": 64,
      "hit": false,
      "t": 14375,
      "d": 125,
      "v": 88
    },
    {
      "midi": 76,
      "hit": false,
      "t": 14375,
      "d": 125,
      "v": 88
    },
    {
      "midi": 64,
      "hit": false,
      "t": 14500,
      "d": 125,
      "v": 104
    },
    {
      "midi": 76,
      "hit": false,
      "t": 14500,
      "d": 125,
      "v": 104
    },
    {
      "midi": 93,
      "hit": false,
      "t": 14510.416666666666,
      "d": 5.20833333333394,
      "v": 122
    },
    {
      "midi": 81,
      "hit": false,
      "t": 14510.416666666666,
      "d": 5.20833333333394,
      "v": 122
    },
    {
      "midi": 94,
      "hit": false,
      "t": 14516.666666666666,
      "d": 32.29166666666606,
      "v": 127
    },
    {
      "midi": 82,
      "hit": false,
      "t": 14516.666666666666,
      "d": 32.29166666666606,
      "v": 127
    },
    {
      "midi": 95,
      "hit": false,
      "t": 14549.999999999998,
      "d": 125,
      "v": 122
    },
    {
      "midi": 83,
      "hit": false,
      "t": 14549.999999999998,
      "d": 125,
      "v": 122
    },
    {
      "midi": 67,
      "hit": false,
      "t": 14750,
      "d": 125,
      "v": 88
    },
    {
      "midi": 71,
      "hit": false,
      "t": 14750,
      "d": 125,
      "v": 83
    },
    {
      "midi": 91,
      "hit": false,
      "t": 14765.624999999998,
      "d": 136.45833333333394,
      "v": 127
    },
    {
      "midi": 79,
      "hit": false,
      "t": 14765.624999999998,
      "d": 136.45833333333394,
      "v": 127
    },
    {
      "midi": 63,
      "hit": false,
      "t": 14875,
      "d": 125,
      "v": 95
    },
    {
      "midi": 75,
      "hit": false,
      "t": 14875,
      "d": 125,
      "v": 95
    },
    {
      "midi": 67,
      "hit": false,
      "t": 15125,
      "d": 125,
      "v": 88
    },
    {
      "midi": 71,
      "hit": false,
      "t": 15125,
      "d": 125,
      "v": 86
    },
    {
      "midi": 62,
      "hit": false,
      "t": 15375,
      "d": 125,
      "v": 117
    },
    {
      "midi": 74,
      "hit": false,
      "t": 15375,
      "d": 125,
      "v": 117
    },
    {
      "midi": 67,
      "hit": false,
      "t": 15625,
      "d": 125,
      "v": 108
    },
    {
      "midi": 71,
      "hit": false,
      "t": 15625,
      "d": 125,
      "v": 86
    },
    {
      "midi": 88,
      "hit": false,
      "t": 15635.416666666666,
      "d": 112.5,
      "v": 127
    },
    {
      "midi": 76,
      "hit": false,
      "t": 15635.416666666666,
      "d": 112.5,
      "v": 127
    },
    {
      "midi": 86,
      "hit": false,
      "t": 15750,
      "d": 133.33333333333394,
      "v": 71
    },
    {
      "midi": 74,
      "hit": false,
      "t": 15750,
      "d": 133.33333333333394,
      "v": 71
    },
    {
      "midi": 61,
      "hit": false,
      "t": 15875,
      "d": 125,
      "v": 104
    },
    {
      "midi": 73,
      "hit": false,
      "t": 15875,
      "d": 125,
      "v": 104
    },
    {
      "midi": 85,
      "hit": false,
      "t": 15885.416666666668,
      "d": 120.83333333333394,
      "v": 127
    },
    {
      "midi": 73,
      "hit": false,
      "t": 15885.416666666668,
      "d": 120.83333333333394,
      "v": 127
    },
    {
      "midi": 67,
      "hit": false,
      "t": 16125,
      "d": 125,
      "v": 86
    },
    {
      "midi": 71,
      "hit": false,
      "t": 16125,
      "d": 125,
      "v": 86
    },
    {
      "midi": 76,
      "hit": false,
      "t": 16125.000000000002,
      "d": 116.66666666666606,
      "v": 127
    },
    {
      "midi": 88,
      "hit": false,
      "t": 16127.083333333336,
      "d": 116.66666666666606,
      "v": 127
    },
    {
      "midi": 64,
      "hit": false,
      "t": 16375,
      "d": 125,
      "v": 81
    },
    {
      "midi": 76,
      "hit": false,
      "t": 16375,
      "d": 125,
      "v": 94
    },
    {
      "midi": 88,
      "hit": false,
      "t": 16500,
      "d": 125,
      "v": 127
    },
    {
      "midi": 64,
      "hit": false,
      "t": 16500,
      "d": 125,
      "v": 124
    },
    {
      "midi": 76,
      "hit": false,
      "t": 16500,
      "d": 125,
      "v": 124
    },
    {
      "midi": 88,
      "hit": false,
      "t": 16500,
      "d": 125,
      "v": 124
    },
    {
      "midi": 83,
      "hit": false,
      "t": 16750,
      "d": 125,
      "v": 91
    },
    {
      "midi": 67,
      "hit": false,
      "t": 16750,
      "d": 125,
      "v": 124
    },
    {
      "midi": 71,
      "hit": false,
      "t": 16750,
      "d": 125,
      "v": 88
    },
    {
      "midi": 87,
      "hit": false,
      "t": 16875,
      "d": 125,
      "v": 110
    },
    {
      "midi": 63,
      "hit": false,
      "t": 16875,
      "d": 125,
      "v": 107
    },
    {
      "midi": 75,
      "hit": false,
      "t": 16875,
      "d": 125,
      "v": 107
    },
    {
      "midi": 87,
      "hit": false,
      "t": 16875,
      "d": 125,
      "v": 107
    },
    {
      "midi": 83,
      "hit": false,
      "t": 17125,
      "d": 125,
      "v": 90
    },
    {
      "midi": 67,
      "hit": false,
      "t": 17125,
      "d": 125,
      "v": 94
    },
    {
      "midi": 71,
      "hit": false,
      "t": 17125,
      "d": 125,
      "v": 87
    },
    {
      "midi": 86,
      "hit": false,
      "t": 17375,
      "d": 125,
      "v": 110
    },
    {
      "midi": 62,
      "hit": false,
      "t": 17375,
      "d": 125,
      "v": 127
    },
    {
      "midi": 74,
      "hit": false,
      "t": 17375,
      "d": 125,
      "v": 117
    },
    {
      "midi": 86,
      "hit": false,
      "t": 17375,
      "d": 125,
      "v": 117
    },
    {
      "midi": 83,
      "hit": false,
      "t": 17625,
      "d": 125,
      "v": 90
    },
    {
      "midi": 67,
      "hit": false,
      "t": 17625,
      "d": 125,
      "v": 113
    },
    {
      "midi": 71,
      "hit": false,
      "t": 17625,
      "d": 125,
      "v": 97
    },
    {
      "midi": 87,
      "hit": false,
      "t": 17875,
      "d": 125,
      "v": 93
    },
    {
      "midi": 63,
      "hit": false,
      "t": 17875,
      "d": 125,
      "v": 100
    },
    {
      "midi": 75,
      "hit": false,
      "t": 17875,
      "d": 125,
      "v": 100
    },
    {
      "midi": 87,
      "hit": false,
      "t": 17875,
      "d": 125,
      "v": 100
    },
    {
      "midi": 83,
      "hit": false,
      "t": 18125,
      "d": 125,
      "v": 79
    },
    {
      "midi": 67,
      "hit": false,
      "t": 18125,
      "d": 125,
      "v": 86
    },
    {
      "midi": 71,
      "hit": false,
      "t": 18125,
      "d": 125,
      "v": 86
    },
    {
      "midi": 88,
      "hit": false,
      "t": 18375,
      "d": 125,
      "v": 101
    },
    {
      "midi": 64,
      "hit": false,
      "t": 18375,
      "d": 125,
      "v": 113
    },
    {
      "midi": 76,
      "hit": false,
      "t": 18375,
      "d": 125,
      "v": 108
    },
    {
      "midi": 88,
      "hit": false,
      "t": 18375,
      "d": 125,
      "v": 108
    },
    {
      "midi": 88,
      "hit": false,
      "t": 18500,
      "d": 125,
      "v": 106
    },
    {
      "midi": 64,
      "hit": false,
      "t": 18500,
      "d": 125,
      "v": 113
    },
    {
      "midi": 76,
      "hit": false,
      "t": 18500,
      "d": 125,
      "v": 113
    },
    {
      "midi": 88,
      "hit": false,
      "t": 18500,
      "d": 125,
      "v": 113
    },
    {
      "midi": 84,
      "hit": false,
      "t": 18750,
      "d": 125,
      "v": 90
    },
    {
      "midi": 69,
      "hit": false,
      "t": 18750,
      "d": 125,
      "v": 104
    },
    {
      "midi": 72,
      "hit": false,
      "t": 18750,
      "d": 125,
      "v": 97
    },
    {
      "midi": 88,
      "hit": false,
      "t": 18875,
      "d": 125,
      "v": 110
    },
    {
      "midi": 64,
      "hit": false,
      "t": 18875,
      "d": 125,
      "v": 117
    },
    {
      "midi": 76,
      "hit": false,
      "t": 18875,
      "d": 125,
      "v": 117
    },
    {
      "midi": 88,
      "hit": false,
      "t": 18875,
      "d": 125,
      "v": 117
    },
    {
      "midi": 84,
      "hit": false,
      "t": 19125,
      "d": 125,
      "v": 97
    },
    {
      "midi": 68,
      "hit": false,
      "t": 19125,
      "d": 125,
      "v": 127
    },
    {
      "midi": 72,
      "hit": false,
      "t": 19125,
      "d": 125,
      "v": 104
    },
    {
      "midi": 88,
      "hit": false,
      "t": 19375,
      "d": 125,
      "v": 106
    },
    {
      "midi": 64,
      "hit": false,
      "t": 19375,
      "d": 125,
      "v": 117
    },
    {
      "midi": 76,
      "hit": false,
      "t": 19375,
      "d": 125,
      "v": 113
    },
    {
      "midi": 88,
      "hit": false,
      "t": 19375,
      "d": 125,
      "v": 113
    },
    {
      "midi": 84,
      "hit": false,
      "t": 19625,
      "d": 125,
      "v": 94
    },
    {
      "midi": 67,
      "hit": false,
      "t": 19625,
      "d": 125,
      "v": 117
    },
    {
      "midi": 72,
      "hit": false,
      "t": 19625,
      "d": 125,
      "v": 101
    },
    {
      "midi": 88,
      "hit": false,
      "t": 19875,
      "d": 125,
      "v": 110
    },
    {
      "midi": 64,
      "hit": false,
      "t": 19875,
      "d": 125,
      "v": 117
    },
    {
      "midi": 76,
      "hit": false,
      "t": 19875,
      "d": 125,
      "v": 117
    },
    {
      "midi": 88,
      "hit": false,
      "t": 19875,
      "d": 125,
      "v": 117
    },
    {
      "midi": 84,
      "hit": false,
      "t": 20125,
      "d": 125,
      "v": 94
    },
    {
      "midi": 66,
      "hit": false,
      "t": 20125,
      "d": 125,
      "v": 117
    },
    {
      "midi": 72,
      "hit": false,
      "t": 20125,
      "d": 125,
      "v": 101
    },
    {
      "midi": 88,
      "hit": false,
      "t": 20375,
      "d": 125,
      "v": 110
    },
    {
      "midi": 64,
      "hit": false,
      "t": 20375,
      "d": 125,
      "v": 117
    },
    {
      "midi": 76,
      "hit": false,
      "t": 20375,
      "d": 125,
      "v": 117
    },
    {
      "midi": 88,
      "hit": false,
      "t": 20375,
      "d": 125,
      "v": 117
    },
    {
      "midi": 88,
      "hit": false,
      "t": 20500,
      "d": 125,
      "v": 90
    },
    {
      "midi": 64,
      "hit": false,
      "t": 20500,
      "d": 125,
      "v": 97
    },
    {
      "midi": 76,
      "hit": false,
      "t": 20500,
      "d": 125,
      "v": 97
    },
    {
      "midi": 88,
      "hit": false,
      "t": 20500,
      "d": 125,
      "v": 97
    },
    {
      "midi": 84,
      "hit": false,
      "t": 20750,
      "d": 125,
      "v": 94
    },
    {
      "midi": 68,
      "hit": false,
      "t": 20750,
      "d": 125,
      "v": 113
    },
    {
      "midi": 72,
      "hit": false,
      "t": 20750,
      "d": 125,
      "v": 101
    },
    {
      "midi": 88,
      "hit": false,
      "t": 20875,
      "d": 125,
      "v": 106
    },
    {
      "midi": 64,
      "hit": false,
      "t": 20875,
      "d": 125,
      "v": 113
    },
    {
      "midi": 76,
      "hit": false,
      "t": 20875,
      "d": 125,
      "v": 113
    },
    {
      "midi": 88,
      "hit": false,
      "t": 20875,
      "d": 125,
      "v": 113
    },
    {
      "midi": 84,
      "hit": false,
      "t": 21125,
      "d": 125,
      "v": 94
    },
    {
      "midi": 69,
      "hit": false,
      "t": 21125,
      "d": 125,
      "v": 108
    },
    {
      "midi": 72,
      "hit": false,
      "t": 21125,
      "d": 125,
      "v": 101
    },
    {
      "midi": 87,
      "hit": false,
      "t": 21375,
      "d": 125,
      "v": 97
    },
    {
      "midi": 63,
      "hit": false,
      "t": 21375,
      "d": 125,
      "v": 104
    },
    {
      "midi": 75,
      "hit": false,
      "t": 21375,
      "d": 125,
      "v": 104
    },
    {
      "midi": 87,
      "hit": false,
      "t": 21375,
      "d": 125,
      "v": 104
    },
    {
      "midi": 84,
      "hit": false,
      "t": 21625,
      "d": 125,
      "v": 90
    },
    {
      "midi": 69,
      "hit": false,
      "t": 21625,
      "d": 125,
      "v": 97
    },
    {
      "midi": 72,
      "hit": false,
      "t": 21625,
      "d": 125,
      "v": 97
    },
    {
      "midi": 87,
      "hit": false,
      "t": 21875,
      "d": 125,
      "v": 93
    },
    {
      "midi": 63,
      "hit": false,
      "t": 21875,
      "d": 125,
      "v": 100
    },
    {
      "midi": 75,
      "hit": false,
      "t": 21875,
      "d": 125,
      "v": 100
    },
    {
      "midi": 87,
      "hit": false,
      "t": 21875,
      "d": 125,
      "v": 100
    },
    {
      "midi": 83,
      "hit": false,
      "t": 22125,
      "d": 125,
      "v": 97
    },
    {
      "midi": 69,
      "hit": false,
      "t": 22125,
      "d": 125,
      "v": 104
    },
    {
      "midi": 71,
      "hit": false,
      "t": 22125,
      "d": 125,
      "v": 104
    },
    {
      "midi": 88,
      "hit": false,
      "t": 22375,
      "d": 125,
      "v": 81
    },
    {
      "midi": 64,
      "hit": false,
      "t": 22375,
      "d": 125,
      "v": 88
    },
    {
      "midi": 76,
      "hit": false,
      "t": 22375,
      "d": 125,
      "v": 88
    },
    {
      "midi": 88,
      "hit": false,
      "t": 22375,
      "d": 125,
      "v": 88
    },
    {
      "midi": 88,
      "hit": false,
      "t": 22500,
      "d": 125,
      "v": 97
    },
    {
      "midi": 64,
      "hit": false,
      "t": 22500,
      "d": 125,
      "v": 104
    },
    {
      "midi": 76,
      "hit": false,
      "t": 22500,
      "d": 125,
      "v": 104
    },
    {
      "midi": 88,
      "hit": false,
      "t": 22500,
      "d": 125,
      "v": 104
    },
    {
      "midi": 83,
      "hit": false,
      "t": 22750,
      "d": 125,
      "v": 76
    },
    {
      "midi": 67,
      "hit": false,
      "t": 22750,
      "d": 125,
      "v": 88
    },
    {
      "midi": 71,
      "hit": false,
      "t": 22750,
      "d": 125,
      "v": 83
    },
    {
      "midi": 87,
      "hit": false,
      "t": 22875,
      "d": 125,
      "v": 88
    },
    {
      "midi": 63,
      "hit": false,
      "t": 22875,
      "d": 125,
      "v": 95
    },
    {
      "midi": 75,
      "hit": false,
      "t": 22875,
      "d": 125,
      "v": 95
    },
    {
      "midi": 87,
      "hit": false,
      "t": 22875,
      "d": 125,
      "v": 95
    },
    {
      "midi": 83,
      "hit": false,
      "t": 23125,
      "d": 125,
      "v": 79
    },
    {
      "midi": 67,
      "hit": false,
      "t": 23125,
      "d": 125,
      "v": 88
    },
    {
      "midi": 71,
      "hit": false,
      "t": 23125,
      "d": 125,
      "v": 86
    },
    {
      "midi": 86,
      "hit": false,
      "t": 23375,
      "d": 125,
      "v": 110
    },
    {
      "midi": 62,
      "hit": false,
      "t": 23375,
      "d": 125,
      "v": 117
    },
    {
      "midi": 74,
      "hit": false,
      "t": 23375,
      "d": 125,
      "v": 117
    },
    {
      "midi": 86,
      "hit": false,
      "t": 23375,
      "d": 125,
      "v": 117
    },
    {
      "midi": 83,
      "hit": false,
      "t": 23625,
      "d": 125,
      "v": 79
    },
    {
      "midi": 67,
      "hit": false,
      "t": 23625,
      "d": 125,
      "v": 108
    },
    {
      "midi": 71,
      "hit": false,
      "t": 23625,
      "d": 125,
      "v": 86
    },
    {
      "midi": 85,
      "hit": false,
      "t": 23875,
      "d": 125,
      "v": 97
    },
    {
      "midi": 61,
      "hit": false,
      "t": 23875,
      "d": 125,
      "v": 104
    },
    {
      "midi": 73,
      "hit": false,
      "t": 23875,
      "d": 125,
      "v": 104
    },
    {
      "midi": 85,
      "hit": false,
      "t": 23875,
      "d": 125,
      "v": 104
    },
    {
      "midi": 83,
      "hit": false,
      "t": 24125,
      "d": 125,
      "v": 79
    },
    {
      "midi": 67,
      "hit": false,
      "t": 24125,
      "d": 125,
      "v": 86
    },
    {
      "midi": 71,
      "hit": false,
      "t": 24125,
      "d": 125,
      "v": 86
    },
    {
      "midi": 88,
      "hit": false,
      "t": 24375,
      "d": 125,
      "v": 87
    },
    {
      "midi": 64,
      "hit": false,
      "t": 24375,
      "d": 125,
      "v": 81
    },
    {
      "midi": 76,
      "hit": false,
      "t": 24375,
      "d": 125,
      "v": 94
    },
    {
      "midi": 88,
      "hit": false,
      "t": 24375,
      "d": 125,
      "v": 94
    },
    {
      "midi": 64,
      "hit": false,
      "t": 24500,
      "d": 125,
      "v": 124
    },
    {
      "midi": 76,
      "hit": false,
      "t": 24500,
      "d": 125,
      "v": 124
    },
    {
      "midi": 67,
      "hit": false,
      "t": 24750,
      "d": 125,
      "v": 124
    },
    {
      "midi": 71,
      "hit": false,
      "t": 24750,
      "d": 125,
      "v": 88
    },
    {
      "midi": 63,
      "hit": false,
      "t": 24875,
      "d": 125,
      "v": 107
    },
    {
      "midi": 75,
      "hit": false,
      "t": 24875,
      "d": 125,
      "v": 107
    },
    {
      "midi": 67,
      "hit": false,
      "t": 25125,
      "d": 125,
      "v": 94
    },
    {
      "midi": 71,
      "hit": false,
      "t": 25125,
      "d": 125,
      "v": 87
    },
    {
      "midi": 83,
      "hit": false,
      "t": 25125,
      "d": 117.70833333333212,
      "v": 122
    },
    {
      "midi": 71,
      "hit": false,
      "t": 25125,
      "d": 117.70833333333212,
      "v": 122
    },
    {
      "midi": 88,
      "hit": false,
      "t": 25245.833333333332,
      "d": 126.04166666666788,
      "v": 122
    },
    {
      "midi": 76,
      "hit": false,
      "t": 25245.833333333332,
      "d": 126.04166666666788,
      "v": 122
    },
    {
      "midi": 90,
      "hit": false,
      "t": 25372.916666666668,
      "d": 117.70833333333212,
      "v": 117
    },
    {
      "midi": 78,
      "hit": false,
      "t": 25372.916666666668,
      "d": 117.70833333333212,
      "v": 117
    },
    {
      "midi": 62,
      "hit": false,
      "t": 25375,
      "d": 125,
      "v": 127
    },
    {
      "midi": 74,
      "hit": false,
      "t": 25375,
      "d": 125,
      "v": 117
    },
    {
      "midi": 91,
      "hit": false,
      "t": 25491.666666666668,
      "d": 119.79166666666788,
      "v": 127
    },
    {
      "midi": 79,
      "hit": false,
      "t": 25491.666666666668,
      "d": 119.79166666666788,
      "v": 127
    },
    {
      "midi": 90,
      "hit": false,
      "t": 25612.500000000004,
      "d": 121.875,
      "v": 104
    },
    {
      "midi": 78,
      "hit": false,
      "t": 25612.500000000004,
      "d": 121.875,
      "v": 104
    },
    {
      "midi": 67,
      "hit": false,
      "t": 25625,
      "d": 125,
      "v": 113
    },
    {
      "midi": 71,
      "hit": false,
      "t": 25625,
      "d": 125,
      "v": 97
    },
    {
      "midi": 63,
      "hit": false,
      "t": 25875,
      "d": 125,
      "v": 100
    },
    {
      "midi": 75,
      "hit": false,
      "t": 25875,
      "d": 125,
      "v": 100
    },
    {
      "midi": 88,
      "hit": false,
      "t": 25875.000000000004,
      "d": 95.83333333333212,
      "v": 127
    },
    {
      "midi": 76,
      "hit": false,
      "t": 25875.000000000004,
      "d": 95.83333333333212,
      "v": 127
    },
    {
      "midi": 67,
      "hit": false,
      "t": 26125,
      "d": 125,
      "v": 86
    },
    {
      "midi": 71,
      "hit": false,
      "t": 26125,
      "d": 125,
      "v": 86
    },
    {
      "midi": 91,
      "hit": false,
      "t": 26135.416666666668,
      "d": 93.75,
      "v": 127
    },
    {
      "midi": 79,
      "hit": false,
      "t": 26135.416666666668,
      "d": 93.75,
      "v": 127
    },
    {
      "midi": 64,
      "hit": false,
      "t": 26375,
      "d": 125,
      "v": 113
    },
    {
      "midi": 76,
      "hit": false,
      "t": 26375,
      "d": 125,
      "v": 108
    },
    {
      "midi": 86,
      "hit": false,
      "t": 26380.208333333336,
      "d": 231.25,
      "v": 127
    },
    {
      "midi": 74,
      "hit": false,
      "t": 26380.208333333336,
      "d": 231.25,
      "v": 127
    },
    {
      "midi": 64,
      "hit": false,
      "t": 26500,
      "d": 125,
      "v": 113
    },
    {
      "midi": 76,
      "hit": false,
      "t": 26500,
      "d": 125,
      "v": 113
    },
    {
      "midi": 87,
      "hit": false,
      "t": 26612.500000000004,
      "d": 67.70833333333212,
      "v": 83
    },
    {
      "midi": 75,
      "hit": false,
      "t": 26612.500000000004,
      "d": 67.70833333333212,
      "v": 83
    },
    {
      "midi": 86,
      "hit": false,
      "t": 26682.291666666668,
      "d": 52.08333333333212,
      "v": 83
    },
    {
      "midi": 74,
      "hit": false,
      "t": 26682.291666666668,
      "d": 52.08333333333212,
      "v": 83
    },
    {
      "midi": 84,
      "hit": false,
      "t": 26735.416666666668,
      "d": 301.0416666666679,
      "v": 127
    },
    {
      "midi": 72,
      "hit": false,
      "t": 26735.416666666668,
      "d": 301.0416666666679,
      "v": 127
    },
    {
      "midi": 69,
      "hit": false,
      "t": 26750,
      "d": 125,
      "v": 104
    },
    {
      "midi": 72,
      "hit": false,
      "t": 26750,
      "d": 125,
      "v": 97
    },
    {
      "midi": 64,
      "hit": false,
      "t": 26875,
      "d": 125,
      "v": 117
    },
    {
      "midi": 76,
      "hit": false,
      "t": 26875,
      "d": 125,
      "v": 117
    },
    {
      "midi": 68,
      "hit": false,
      "t": 27125,
      "d": 125,
      "v": 127
    },
    {
      "midi": 72,
      "hit": false,
      "t": 27125,
      "d": 125,
      "v": 104
    },
    {
      "midi": 64,
      "hit": false,
      "t": 27375,
      "d": 125,
      "v": 117
    },
    {
      "midi": 76,
      "hit": false,
      "t": 27375,
      "d": 125,
      "v": 113
    },
    {
      "midi": 67,
      "hit": false,
      "t": 27625,
      "d": 125,
      "v": 117
    },
    {
      "midi": 72,
      "hit": false,
      "t": 27625,
      "d": 125,
      "v": 101
    },
    {
      "midi": 64,
      "hit": false,
      "t": 27875,
      "d": 125,
      "v": 117
    },
    {
      "midi": 76,
      "hit": false,
      "t": 27875,
      "d": 125,
      "v": 117
    },
    {
      "midi": 82,
      "hit": false,
      "t": 28057.291666666668,
      "d": 59.375,
      "v": 80
    },
    {
      "midi": 70,
      "hit": false,
      "t": 28062.500000000004,
      "d": 59.375,
      "v": 81
    },
    {
      "midi": 83,
      "hit": false,
      "t": 28095.833333333336,
      "d": 114.58333333333212,
      "v": 117
    },
    {
      "midi": 71,
      "hit": false,
      "t": 28095.833333333336,
      "d": 114.58333333333576,
      "v": 117
    },
    {
      "midi": 66,
      "hit": false,
      "t": 28125,
      "d": 125,
      "v": 117
    },
    {
      "midi": 72,
      "hit": false,
      "t": 28125,
      "d": 125,
      "v": 101
    },
    {
      "midi": 81,
      "hit": false,
      "t": 28362.5,
      "d": 231.25,
      "v": 127
    },
    {
      "midi": 69,
      "hit": false,
      "t": 28362.500000000004,
      "d": 231.25,
      "v": 127
    },
    {
      "midi": 64,
      "hit": false,
      "t": 28375,
      "d": 125,
      "v": 117
    },
    {
      "midi": 76,
      "hit": false,
      "t": 28375,
      "d": 125,
      "v": 117
    },
    {
      "midi": 64,
      "hit": false,
      "t": 28500,
      "d": 125,
      "v": 97
    },
    {
      "midi": 76,
      "hit": false,
      "t": 28500,
      "d": 125,
      "v": 97
    },
    {
      "midi": 68,
      "hit": false,
      "t": 28750,
      "d": 125,
      "v": 113
    },
    {
      "midi": 72,
      "hit": false,
      "t": 28750,
      "d": 125,
      "v": 101
    },
    {
      "midi": 64,
      "hit": false,
      "t": 28875,
      "d": 125,
      "v": 113
    },
    {
      "midi": 76,
      "hit": false,
      "t": 28875,
      "d": 125,
      "v": 113
    },
    {
      "midi": 69,
      "hit": false,
      "t": 29125,
      "d": 125,
      "v": 108
    },
    {
      "midi": 72,
      "hit": false,
      "t": 29125,
      "d": 125,
      "v": 101
    },
    {
      "midi": 84,
      "hit": false,
      "t": 29131.25,
      "d": 113.54166666666788,
      "v": 127
    },
    {
      "midi": 72,
      "hit": false,
      "t": 29131.250000000004,
      "d": 113.54166666666788,
      "v": 127
    },
    {
      "midi": 63,
      "hit": false,
      "t": 29375,
      "d": 125,
      "v": 104
    },
    {
      "midi": 75,
      "hit": false,
      "t": 29375,
      "d": 125,
      "v": 104
    },
    {
      "midi": 81,
      "hit": false,
      "t": 29402.083333333336,
      "d": 113.54166666666788,
      "v": 127
    },
    {
      "midi": 69,
      "hit": false,
      "t": 29402.08333333334,
      "d": 113.54166666666788,
      "v": 127
    },
    {
      "midi": 69,
      "hit": false,
      "t": 29625,
      "d": 125,
      "v": 97
    },
    {
      "midi": 72,
      "hit": false,
      "t": 29625,
      "d": 125,
      "v": 97
    },
    {
      "midi": 87,
      "hit": false,
      "t": 29643.750000000004,
      "d": 125,
      "v": 127
    },
    {
      "midi": 75,
      "hit": false,
      "t": 29643.750000000007,
      "d": 125,
      "v": 127
    },
    {
      "midi": 63,
      "hit": false,
      "t": 29875,
      "d": 125,
      "v": 100
    },
    {
      "midi": 75,
      "hit": false,
      "t": 29875,
      "d": 125,
      "v": 100
    },
    {
      "midi": 84,
      "hit": false,
      "t": 29890.625000000004,
      "d": 89.58333333333212,
      "v": 127
    },
    {
      "midi": 72,
      "hit": false,
      "t": 29890.625000000007,
      "d": 89.58333333333212,
      "v": 127
    },
    {
      "midi": 98,
      "hit": false,
      "t": 30000.000000000004,
      "d": 200,
      "v": 127
    },
    {
      "midi": 86,
      "hit": false,
      "t": 30000.000000000007,
      "d": 200,
      "v": 127
    },
    {
      "midi": 69,
      "hit": false,
      "t": 30125,
      "d": 125,
      "v": 104
    },
    {
      "midi": 71,
      "hit": false,
      "t": 30125,
      "d": 125,
      "v": 104
    },
    {
      "midi": 96,
      "hit": false,
      "t": 30258.333333333336,
      "d": 177.08333333333212,
      "v": 127
    },
    {
      "midi": 84,
      "hit": false,
      "t": 30258.33333333334,
      "d": 177.08333333333212,
      "v": 127
    },
    {
      "midi": 64,
      "hit": false,
      "t": 30375,
      "d": 125,
      "v": 88
    },
    {
      "midi": 76,
      "hit": false,
      "t": 30375,
      "d": 125,
      "v": 88
    },
    {
      "midi": 64,
      "hit": false,
      "t": 30500,
      "d": 125,
      "v": 104
    },
    {
      "midi": 76,
      "hit": false,
      "t": 30500,
      "d": 125,
      "v": 104
    },
    {
      "midi": 93,
      "hit": false,
      "t": 30510.416666666668,
      "d": 5.208333333332121,
      "v": 122
    },
    {
      "midi": 81,
      "hit": false,
      "t": 30510.41666666667,
      "d": 5.208333333332121,
      "v": 122
    },
    {
      "midi": 94,
      "hit": false,
      "t": 30516.666666666668,
      "d": 32.29166666666788,
      "v": 127
    },
    {
      "midi": 82,
      "hit": false,
      "t": 30516.66666666667,
      "d": 32.29166666666788,
      "v": 127
    },
    {
      "midi": 95,
      "hit": false,
      "t": 30550.000000000004,
      "d": 125,
      "v": 122
    },
    {
      "midi": 83,
      "hit": false,
      "t": 30550.000000000007,
      "d": 125,
      "v": 122
    },
    {
      "midi": 67,
      "hit": false,
      "t": 30750,
      "d": 125,
      "v": 88
    },
    {
      "midi": 71,
      "hit": false,
      "t": 30750,
      "d": 125,
      "v": 83
    },
    {
      "midi": 91,
      "hit": false,
      "t": 30765.625000000004,
      "d": 136.45833333333212,
      "v": 127
    },
    {
      "midi": 79,
      "hit": false,
      "t": 30765.625000000007,
      "d": 136.45833333333212,
      "v": 127
    },
    {
      "midi": 63,
      "hit": false,
      "t": 30875,
      "d": 125,
      "v": 95
    },
    {
      "midi": 75,
      "hit": false,
      "t": 30875,
      "d": 125,
      "v": 95
    },
    {
      "midi": 67,
      "hit": false,
      "t": 31125,
      "d": 125,
      "v": 88
    },
    {
      "midi": 71,
      "hit": false,
      "t": 31125,
      "d": 125,
      "v": 86
    },
    {
      "midi": 62,
      "hit": false,
      "t": 31375,
      "d": 125,
      "v": 117
    },
    {
      "midi": 74,
      "hit": false,
      "t": 31375,
      "d": 125,
      "v": 117
    },
    {
      "midi": 67,
      "hit": false,
      "t": 31625,
      "d": 125,
      "v": 108
    },
    {
      "midi": 71,
      "hit": false,
      "t": 31625,
      "d": 125,
      "v": 86
    },
    {
      "midi": 88,
      "hit": false,
      "t": 31635.416666666668,
      "d": 112.5,
      "v": 127
    },
    {
      "midi": 76,
      "hit": false,
      "t": 31635.41666666667,
      "d": 112.5,
      "v": 127
    },
    {
      "midi": 86,
      "hit": false,
      "t": 31750,
      "d": 133.33333333333212,
      "v": 71
    },
    {
      "midi": 74,
      "hit": false,
      "t": 31750.000000000004,
      "d": 133.33333333333212,
      "v": 71
    },
    {
      "midi": 61,
      "hit": false,
      "t": 31875,
      "d": 125,
      "v": 104
    },
    {
      "midi": 73,
      "hit": false,
      "t": 31875,
      "d": 125,
      "v": 104
    },
    {
      "midi": 85,
      "hit": false,
      "t": 31885.416666666664,
      "d": 120.83333333333212,
      "v": 127
    },
    {
      "midi": 73,
      "hit": false,
      "t": 31885.416666666668,
      "d": 120.83333333333212,
      "v": 127
    },
    {
      "midi": 67,
      "hit": false,
      "t": 32125,
      "d": 125,
      "v": 86
    },
    {
      "midi": 71,
      "hit": false,
      "t": 32125,
      "d": 125,
      "v": 86
    },
    {
      "midi": 88,
      "hit": false,
      "t": 32143.749999999996,
      "d": 116.66666666666788,
      "v": 127
    },
    {
      "midi": 76,
      "hit": false,
      "t": 32143.75,
      "d": 116.66666666666788,
      "v": 127
    },
    {
      "midi": 64,
      "hit": false,
      "t": 32375,
      "d": 125,
      "v": 81
    },
    {
      "midi": 76,
      "hit": false,
      "t": 32375,
      "d": 125,
      "v": 94
    },
    {
      "midi": 88,
      "hit": false,
      "t": 32500,
      "d": 125,
      "v": 127
    },
    {
      "midi": 64,
      "hit": false,
      "t": 32500,
      "d": 125,
      "v": 124
    },
    {
      "midi": 76,
      "hit": false,
      "t": 32500,
      "d": 125,
      "v": 124
    },
    {
      "midi": 88,
      "hit": false,
      "t": 32500,
      "d": 125,
      "v": 124
    },
    {
      "midi": 83,
      "hit": false,
      "t": 32500,
      "d": 175,
      "v": 110
    },
    {
      "midi": 79,
      "hit": false,
      "t": 32625,
      "d": 93.75,
      "v": 73
    },
    {
      "midi": 83,
      "hit": false,
      "t": 32750,
      "d": 125,
      "v": 91
    },
    {
      "midi": 67,
      "hit": false,
      "t": 32750,
      "d": 125,
      "v": 124
    },
    {
      "midi": 71,
      "hit": false,
      "t": 32750,
      "d": 125,
      "v": 88
    },
    {
      "midi": 76,
      "hit": false,
      "t": 32750,
      "d": 80.20833333333576,
      "v": 77
    },
    {
      "midi": 87,
      "hit": false,
      "t": 32875,
      "d": 125,
      "v": 110
    },
    {
      "midi": 63,
      "hit": false,
      "t": 32875,
      "d": 125,
      "v": 107
    },
    {
      "midi": 75,
      "hit": false,
      "t": 32875,
      "d": 125,
      "v": 107
    },
    {
      "midi": 87,
      "hit": false,
      "t": 32875,
      "d": 125,
      "v": 107
    },
    {
      "midi": 84,
      "hit": false,
      "t": 32875,
      "d": 175,
      "v": 110
    },
    {
      "midi": 83,
      "hit": false,
      "t": 33125,
      "d": 125,
      "v": 90
    },
    {
      "midi": 67,
      "hit": false,
      "t": 33125,
      "d": 125,
      "v": 94
    },
    {
      "midi": 71,
      "hit": false,
      "t": 33125,
      "d": 125,
      "v": 87
    },
    {
      "midi": 79,
      "hit": false,
      "t": 33125,
      "d": 98.95833333333576,
      "v": 76
    },
    {
      "midi": 76,
      "hit": false,
      "t": 33250,
      "d": 85.41666666666424,
      "v": 79
    },
    {
      "midi": 86,
      "hit": false,
      "t": 33375,
      "d": 125,
      "v": 110
    },
    {
      "midi": 62,
      "hit": false,
      "t": 33375,
      "d": 125,
      "v": 127
    },
    {
      "midi": 74,
      "hit": false,
      "t": 33375,
      "d": 125,
      "v": 117
    },
    {
      "midi": 86,
      "hit": false,
      "t": 33375,
      "d": 125,
      "v": 117
    },
    {
      "midi": 86,
      "hit": false,
      "t": 33375,
      "d": 225,
      "v": 117
    },
    {
      "midi": 83,
      "hit": false,
      "t": 33625,
      "d": 125,
      "v": 90
    },
    {
      "midi": 67,
      "hit": false,
      "t": 33625,
      "d": 125,
      "v": 113
    },
    {
      "midi": 71,
      "hit": false,
      "t": 33625,
      "d": 125,
      "v": 97
    },
    {
      "midi": 79,
      "hit": false,
      "t": 33625,
      "d": 95.83333333333576,
      "v": 72
    },
    {
      "midi": 76,
      "hit": false,
      "t": 33750,
      "d": 115.625,
      "v": 103
    },
    {
      "midi": 87,
      "hit": false,
      "t": 33875,
      "d": 125,
      "v": 93
    },
    {
      "midi": 63,
      "hit": false,
      "t": 33875,
      "d": 125,
      "v": 100
    },
    {
      "midi": 75,
      "hit": false,
      "t": 33875,
      "d": 125,
      "v": 100
    },
    {
      "midi": 87,
      "hit": false,
      "t": 33875,
      "d": 125,
      "v": 100
    },
    {
      "midi": 87,
      "hit": false,
      "t": 33875,
      "d": 154.16666666666424,
      "v": 119
    },
    {
      "midi": 83,
      "hit": false,
      "t": 34125,
      "d": 125,
      "v": 79
    },
    {
      "midi": 67,
      "hit": false,
      "t": 34125,
      "d": 125,
      "v": 86
    },
    {
      "midi": 71,
      "hit": false,
      "t": 34125,
      "d": 125,
      "v": 86
    },
    {
      "midi": 76,
      "hit": false,
      "t": 34125,
      "d": 152.08333333333576,
      "v": 78
    },
    {
      "midi": 88,
      "hit": false,
      "t": 34375,
      "d": 125,
      "v": 101
    },
    {
      "midi": 64,
      "hit": false,
      "t": 34375,
      "d": 125,
      "v": 113
    },
    {
      "midi": 76,
      "hit": false,
      "t": 34375,
      "d": 125,
      "v": 108
    },
    {
      "midi": 88,
      "hit": false,
      "t": 34375,
      "d": 125,
      "v": 108
    },
    {
      "midi": 88,
      "hit": false,
      "t": 34375,
      "d": 57.29166666666424,
      "v": 103
    },
    {
      "midi": 88,
      "hit": false,
      "t": 34500,
      "d": 125,
      "v": 106
    },
    {
      "midi": 64,
      "hit": false,
      "t": 34500,
      "d": 125,
      "v": 113
    },
    {
      "midi": 76,
      "hit": false,
      "t": 34500,
      "d": 125,
      "v": 113
    },
    {
      "midi": 88,
      "hit": false,
      "t": 34500,
      "d": 125,
      "v": 113
    },
    {
      "midi": 88,
      "hit": false,
      "t": 34500,
      "d": 156.25,
      "v": 115
    },
    {
      "midi": 81,
      "hit": false,
      "t": 34625,
      "d": 157.29166666666424,
      "v": 79
    },
    {
      "midi": 84,
      "hit": false,
      "t": 34750,
      "d": 125,
      "v": 90
    },
    {
      "midi": 69,
      "hit": false,
      "t": 34750,
      "d": 125,
      "v": 104
    },
    {
      "midi": 72,
      "hit": false,
      "t": 34750,
      "d": 125,
      "v": 97
    },
    {
      "midi": 84,
      "hit": false,
      "t": 34750,
      "d": 70.83333333332848,
      "v": 84
    },
    {
      "midi": 90,
      "hit": false,
      "t": 34874.99999999999,
      "d": 158.33333333333576,
      "v": 110
    },
    {
      "midi": 88,
      "hit": false,
      "t": 34875,
      "d": 125,
      "v": 110
    },
    {
      "midi": 64,
      "hit": false,
      "t": 34875,
      "d": 125,
      "v": 117
    },
    {
      "midi": 76,
      "hit": false,
      "t": 34875,
      "d": 125,
      "v": 117
    },
    {
      "midi": 88,
      "hit": false,
      "t": 34875,
      "d": 125,
      "v": 117
    },
    {
      "midi": 81,
      "hit": false,
      "t": 35124.99999999999,
      "d": 105.20833333333576,
      "v": 74
    },
    {
      "midi": 84,
      "hit": false,
      "t": 35125,
      "d": 125,
      "v": 97
    },
    {
      "midi": 68,
      "hit": false,
      "t": 35125,
      "d": 125,
      "v": 127
    },
    {
      "midi": 72,
      "hit": false,
      "t": 35125,
      "d": 125,
      "v": 104
    },
    {
      "midi": 84,
      "hit": false,
      "t": 35249.99999999999,
      "d": 60.41666666666424,
      "v": 73
    },
    {
      "midi": 91,
      "hit": false,
      "t": 35374.99999999999,
      "d": 166.66666666666424,
      "v": 125
    },
    {
      "midi": 88,
      "hit": false,
      "t": 35375,
      "d": 125,
      "v": 106
    },
    {
      "midi": 64,
      "hit": false,
      "t": 35375,
      "d": 125,
      "v": 117
    },
    {
      "midi": 76,
      "hit": false,
      "t": 35375,
      "d": 125,
      "v": 113
    },
    {
      "midi": 88,
      "hit": false,
      "t": 35375,
      "d": 125,
      "v": 113
    },
    {
      "midi": 81,
      "hit": false,
      "t": 35624.99999999999,
      "d": 110.41666666666424,
      "v": 75
    },
    {
      "midi": 84,
      "hit": false,
      "t": 35625,
      "d": 125,
      "v": 94
    },
    {
      "midi": 67,
      "hit": false,
      "t": 35625,
      "d": 125,
      "v": 117
    },
    {
      "midi": 72,
      "hit": false,
      "t": 35625,
      "d": 125,
      "v": 101
    },
    {
      "midi": 84,
      "hit": false,
      "t": 35749.99999999999,
      "d": 60.41666666666424,
      "v": 73
    },
    {
      "midi": 92,
      "hit": false,
      "t": 35874.99999999999,
      "d": 179.16666666666424,
      "v": 121
    },
    {
      "midi": 88,
      "hit": false,
      "t": 35875,
      "d": 125,
      "v": 110
    },
    {
      "midi": 64,
      "hit": false,
      "t": 35875,
      "d": 125,
      "v": 117
    },
    {
      "midi": 76,
      "hit": false,
      "t": 35875,
      "d": 125,
      "v": 117
    },
    {
      "midi": 88,
      "hit": false,
      "t": 35875,
      "d": 125,
      "v": 117
    },
    {
      "midi": 81,
      "hit": false,
      "t": 36124.99999999999,
      "d": 137.5,
      "v": 99
    },
    {
      "midi": 84,
      "hit": false,
      "t": 36125,
      "d": 125,
      "v": 94
    },
    {
      "midi": 66,
      "hit": false,
      "t": 36125,
      "d": 125,
      "v": 117
    },
    {
      "midi": 72,
      "hit": false,
      "t": 36125,
      "d": 125,
      "v": 101
    },
    {
      "midi": 92,
      "hit": false,
      "t": 36374.99999999999,
      "d": 42.70833333333576,
      "v": 113
    },
    {
      "midi": 88,
      "hit": false,
      "t": 36375,
      "d": 125,
      "v": 110
    },
    {
      "midi": 64,
      "hit": false,
      "t": 36375,
      "d": 125,
      "v": 117
    },
    {
      "midi": 76,
      "hit": false,
      "t": 36375,
      "d": 125,
      "v": 117
    },
    {
      "midi": 88,
      "hit": false,
      "t": 36375,
      "d": 125,
      "v": 117
    },
    {
      "midi": 93,
      "hit": false,
      "t": 36499.99999999999,
      "d": 151.04166666666424,
      "v": 113
    },
    {
      "midi": 88,
      "hit": false,
      "t": 36500,
      "d": 125,
      "v": 90
    },
    {
      "midi": 64,
      "hit": false,
      "t": 36500,
      "d": 125,
      "v": 97
    },
    {
      "midi": 76,
      "hit": false,
      "t": 36500,
      "d": 125,
      "v": 97
    },
    {
      "midi": 88,
      "hit": false,
      "t": 36500,
      "d": 125,
      "v": 97
    },
    {
      "midi": 84,
      "hit": false,
      "t": 36624.99999999999,
      "d": 100,
      "v": 74
    },
    {
      "midi": 87,
      "hit": false,
      "t": 36749.99999999999,
      "d": 68.75,
      "v": 72
    },
    {
      "midi": 84,
      "hit": false,
      "t": 36750,
      "d": 125,
      "v": 94
    },
    {
      "midi": 68,
      "hit": false,
      "t": 36750,
      "d": 125,
      "v": 113
    },
    {
      "midi": 72,
      "hit": false,
      "t": 36750,
      "d": 125,
      "v": 101
    },
    {
      "midi": 94,
      "hit": false,
      "t": 36874.99999999999,
      "d": 84.375,
      "v": 125
    },
    {
      "midi": 88,
      "hit": false,
      "t": 36875,
      "d": 125,
      "v": 106
    },
    {
      "midi": 64,
      "hit": false,
      "t": 36875,
      "d": 125,
      "v": 113
    },
    {
      "midi": 76,
      "hit": false,
      "t": 36875,
      "d": 125,
      "v": 113
    },
    {
      "midi": 88,
      "hit": false,
      "t": 36875,
      "d": 125,
      "v": 113
    },
    {
      "midi": 84,
      "hit": false,
      "t": 37124.99999999999,
      "d": 126.04166666666424,
      "v": 73
    },
    {
      "midi": 84,
      "hit": false,
      "t": 37125,
      "d": 125,
      "v": 94
    },
    {
      "midi": 69,
      "hit": false,
      "t": 37125,
      "d": 125,
      "v": 108
    },
    {
      "midi": 72,
      "hit": false,
      "t": 37125,
      "d": 125,
      "v": 101
    },
    {
      "midi": 87,
      "hit": false,
      "t": 37249.99999999999,
      "d": 63.54166666666424,
      "v": 74
    },
    {
      "midi": 95,
      "hit": false,
      "t": 37374.99999999999,
      "d": 154.16666666666424,
      "v": 117
    },
    {
      "midi": 87,
      "hit": false,
      "t": 37375,
      "d": 125,
      "v": 97
    },
    {
      "midi": 63,
      "hit": false,
      "t": 37375,
      "d": 125,
      "v": 104
    },
    {
      "midi": 75,
      "hit": false,
      "t": 37375,
      "d": 125,
      "v": 104
    },
    {
      "midi": 87,
      "hit": false,
      "t": 37375,
      "d": 125,
      "v": 104
    },
    {
      "midi": 83,
      "hit": false,
      "t": 37624.99999999999,
      "d": 112.5,
      "v": 77
    },
    {
      "midi": 84,
      "hit": false,
      "t": 37625,
      "d": 125,
      "v": 90
    },
    {
      "midi": 69,
      "hit": false,
      "t": 37625,
      "d": 125,
      "v": 97
    },
    {
      "midi": 72,
      "hit": false,
      "t": 37625,
      "d": 125,
      "v": 97
    },
    {
      "midi": 87,
      "hit": false,
      "t": 37749.99999999999,
      "d": 65.625,
      "v": 72
    },
    {
      "midi": 96,
      "hit": false,
      "t": 37874.99999999999,
      "d": 125,
      "v": 123
    },
    {
      "midi": 87,
      "hit": false,
      "t": 37875,
      "d": 125,
      "v": 93
    },
    {
      "midi": 63,
      "hit": false,
      "t": 37875,
      "d": 125,
      "v": 100
    },
    {
      "midi": 75,
      "hit": false,
      "t": 37875,
      "d": 125,
      "v": 100
    },
    {
      "midi": 87,
      "hit": false,
      "t": 37875,
      "d": 125,
      "v": 100
    },
    {
      "midi": 83,
      "hit": false,
      "t": 38124.99999999999,
      "d": 81.25,
      "v": 72
    },
    {
      "midi": 83,
      "hit": false,
      "t": 38125,
      "d": 125,
      "v": 97
    },
    {
      "midi": 69,
      "hit": false,
      "t": 38125,
      "d": 125,
      "v": 104
    },
    {
      "midi": 71,
      "hit": false,
      "t": 38125,
      "d": 125,
      "v": 104
    },
    {
      "midi": 94,
      "hit": false,
      "t": 38374.99999999999,
      "d": 84.375,
      "v": 80
    },
    {
      "midi": 88,
      "hit": false,
      "t": 38375,
      "d": 125,
      "v": 81
    },
    {
      "midi": 64,
      "hit": false,
      "t": 38375,
      "d": 125,
      "v": 88
    },
    {
      "midi": 76,
      "hit": false,
      "t": 38375,
      "d": 125,
      "v": 88
    },
    {
      "midi": 88,
      "hit": false,
      "t": 38375,
      "d": 125,
      "v": 88
    },
    {
      "midi": 95,
      "hit": false,
      "t": 38499.99999999999,
      "d": 112.5,
      "v": 93
    },
    {
      "midi": 88,
      "hit": false,
      "t": 38500,
      "d": 125,
      "v": 97
    },
    {
      "midi": 64,
      "hit": false,
      "t": 38500,
      "d": 125,
      "v": 104
    },
    {
      "midi": 76,
      "hit": false,
      "t": 38500,
      "d": 125,
      "v": 104
    },
    {
      "midi": 88,
      "hit": false,
      "t": 38500,
      "d": 125,
      "v": 104
    },
    {
      "midi": 83,
      "hit": false,
      "t": 38624.99999999999,
      "d": 128.125,
      "v": 75
    },
    {
      "midi": 88,
      "hit": false,
      "t": 38749.99999999999,
      "d": 48.95833333333576,
      "v": 77
    },
    {
      "midi": 83,
      "hit": false,
      "t": 38750,
      "d": 125,
      "v": 76
    },
    {
      "midi": 67,
      "hit": false,
      "t": 38750,
      "d": 125,
      "v": 88
    },
    {
      "midi": 71,
      "hit": false,
      "t": 38750,
      "d": 125,
      "v": 83
    },
    {
      "midi": 96,
      "hit": false,
      "t": 38874.99999999999,
      "d": 131.25,
      "v": 127
    },
    {
      "midi": 87,
      "hit": false,
      "t": 38875,
      "d": 125,
      "v": 88
    },
    {
      "midi": 63,
      "hit": false,
      "t": 38875,
      "d": 125,
      "v": 95
    },
    {
      "midi": 75,
      "hit": false,
      "t": 38875,
      "d": 125,
      "v": 95
    },
    {
      "midi": 87,
      "hit": false,
      "t": 38875,
      "d": 125,
      "v": 95
    },
    {
      "midi": 84,
      "hit": false,
      "t": 39124.99999999999,
      "d": 115.625,
      "v": 75
    },
    {
      "midi": 83,
      "hit": false,
      "t": 39125,
      "d": 125,
      "v": 79
    },
    {
      "midi": 67,
      "hit": false,
      "t": 39125,
      "d": 125,
      "v": 88
    },
    {
      "midi": 71,
      "hit": false,
      "t": 39125,
      "d": 125,
      "v": 86
    },
    {
      "midi": 88,
      "hit": false,
      "t": 39249.99999999999,
      "d": 76.04166666666424,
      "v": 79
    },
    {
      "midi": 98,
      "hit": false,
      "t": 39374.99999999999,
      "d": 272.91666666666424,
      "v": 123
    },
    {
      "midi": 86,
      "hit": false,
      "t": 39375,
      "d": 125,
      "v": 110
    },
    {
      "midi": 62,
      "hit": false,
      "t": 39375,
      "d": 125,
      "v": 117
    },
    {
      "midi": 74,
      "hit": false,
      "t": 39375,
      "d": 125,
      "v": 117
    },
    {
      "midi": 86,
      "hit": false,
      "t": 39375,
      "d": 125,
      "v": 117
    },
    {
      "midi": 85,
      "hit": false,
      "t": 39624.99999999999,
      "d": 163.54166666666424,
      "v": 78
    },
    {
      "midi": 83,
      "hit": false,
      "t": 39625,
      "d": 125,
      "v": 79
    },
    {
      "midi": 67,
      "hit": false,
      "t": 39625,
      "d": 125,
      "v": 108
    },
    {
      "midi": 71,
      "hit": false,
      "t": 39625,
      "d": 125,
      "v": 86
    },
    {
      "midi": 88,
      "hit": false,
      "t": 39749.99999999999,
      "d": 59.375,
      "v": 74
    },
    {
      "midi": 99,
      "hit": false,
      "t": 39874.99999999999,
      "d": 168.75,
      "v": 123
    },
    {
      "midi": 85,
      "hit": false,
      "t": 39875,
      "d": 125,
      "v": 97
    },
    {
      "midi": 61,
      "hit": false,
      "t": 39875,
      "d": 125,
      "v": 104
    },
    {
      "midi": 73,
      "hit": false,
      "t": 39875,
      "d": 125,
      "v": 104
    },
    {
      "midi": 85,
      "hit": false,
      "t": 39875,
      "d": 125,
      "v": 104
    },
    {
      "midi": 87,
      "hit": false,
      "t": 40124.99999999999,
      "d": 117.70833333333576,
      "v": 75
    },
    {
      "midi": 83,
      "hit": false,
      "t": 40125,
      "d": 125,
      "v": 79
    },
    {
      "midi": 67,
      "hit": false,
      "t": 40125,
      "d": 125,
      "v": 86
    },
    {
      "midi": 71,
      "hit": false,
      "t": 40125,
      "d": 125,
      "v": 86
    },
    {
      "midi": 100,
      "hit": false,
      "t": 40374.99999999999,
      "d": 47.91666666666424,
      "v": 115
    },
    {
      "midi": 88,
      "hit": false,
      "t": 40375,
      "d": 125,
      "v": 87
    },
    {
      "midi": 64,
      "hit": false,
      "t": 40375,
      "d": 125,
      "v": 81
    },
    {
      "midi": 76,
      "hit": false,
      "t": 40375,
      "d": 125,
      "v": 94
    },
    {
      "midi": 88,
      "hit": false,
      "t": 40375,
      "d": 125,
      "v": 94
    },
    {
      "midi": 100,
      "hit": false,
      "t": 40499.99999999999,
      "d": 179.16666666666424,
      "v": 121
    },
    {
      "midi": 40,
      "hit": false,
      "t": 40500,
      "d": 225,
      "v": 110
    }
  ]
}