{
  "jsonPath": "Rock/Soft Rock/Al Jarreau/boogie-down-album-version.json",
  "path": "Rock\\Soft Rock\\Al Jarreau\\Boogie Down (Album Version).mid",
  "name": "Boogie Down (Album Version)",
  "difficulty": "Advanced",
  "bpm": 112.00005973336519,
  "notes": [
    {
      "midi": 59,
      "hit": false,
      "t": 10714.279999999999,
      "d": 2098.2131666666664,
      "v": 100
    },
    {
      "midi": 67,
      "hit": false,
      "t": 10714.279999999999,
      "d": 2109.3738749999993,
      "v": 104
    },
    {
      "midi": 62,
      "hit": false,
      "t": 10714.279999999999,
      "d": 2113.838158333332,
      "v": 108
    },
    {
      "midi": 62,
      "hit": false,
      "t": 12857.135999999997,
      "d": 2080.3560333333335,
      "v": 100
    },
    {
      "midi": 58,
      "hit": false,
      "t": 12857.135999999997,
      "d": 2102.677450000001,
      "v": 100
    },
    {
      "midi": 65,
      "hit": false,
      "t": 12857.135999999997,
      "d": 2113.838158333334,
      "v": 92
    },
    {
      "midi": 65,
      "hit": false,
      "t": 14999.991999999997,
      "d": 1053.570866666667,
      "v": 92
    },
    {
      "midi": 69,
      "hit": false,
      "t": 14999.991999999997,
      "d": 1071.4279999999999,
      "v": 104
    },
    {
      "midi": 62,
      "hit": false,
      "t": 14999.991999999997,
      "d": 1087.0529916666674,
      "v": 96
    },
    {
      "midi": 64,
      "hit": false,
      "t": 16071.419999999996,
      "d": 1053.570866666667,
      "v": 100
    },
    {
      "midi": 67,
      "hit": false,
      "t": 16071.419999999996,
      "d": 1053.570866666667,
      "v": 104
    },
    {
      "midi": 60,
      "hit": false,
      "t": 16071.419999999996,
      "d": 1075.8922833333363,
      "v": 108
    },
    {
      "midi": 62,
      "hit": false,
      "t": 17142.847999999998,
      "d": 1053.5708666666687,
      "v": 104
    },
    {
      "midi": 58,
      "hit": false,
      "t": 17142.847999999998,
      "d": 1060.267291666667,
      "v": 92
    },
    {
      "midi": 65,
      "hit": false,
      "t": 17142.847999999998,
      "d": 1064.7315750000016,
      "v": 96
    },
    {
      "midi": 60,
      "hit": false,
      "t": 18214.275999999998,
      "d": 1049.1065833333341,
      "v": 104
    },
    {
      "midi": 67,
      "hit": false,
      "t": 18214.275999999998,
      "d": 1049.1065833333341,
      "v": 104
    },
    {
      "midi": 64,
      "hit": false,
      "t": 18214.275999999998,
      "d": 1082.5887083333328,
      "v": 96
    },
    {
      "midi": 59,
      "hit": false,
      "t": 19285.703999999998,
      "d": 138.39278333333277,
      "v": 112
    },
    {
      "midi": 50,
      "hit": false,
      "t": 19285.703999999998,
      "d": 156.24991666666756,
      "v": 108
    },
    {
      "midi": 55,
      "hit": false,
      "t": 19285.703999999998,
      "d": 205.35703333333367,
      "v": 112
    },
    {
      "midi": 60,
      "hit": false,
      "t": 19821.417999999998,
      "d": 138.39278333333277,
      "v": 108
    },
    {
      "midi": 55,
      "hit": false,
      "t": 19821.417999999998,
      "d": 183.03561666666792,
      "v": 104
    },
    {
      "midi": 52,
      "hit": false,
      "t": 19821.417999999998,
      "d": 189.7320416666662,
      "v": 104
    },
    {
      "midi": 62,
      "hit": false,
      "t": 20223.203499999996,
      "d": 138.39278333333277,
      "v": 108
    },
    {
      "midi": 53,
      "hit": false,
      "t": 20223.203499999996,
      "d": 145.08920833333104,
      "v": 100
    },
    {
      "midi": 59,
      "hit": false,
      "t": 20223.203499999996,
      "d": 149.55349166666565,
      "v": 108
    },
    {
      "midi": 55,
      "hit": false,
      "t": 21696.416999999994,
      "d": 89.28566666666666,
      "v": 108
    },
    {
      "midi": 59,
      "hit": false,
      "t": 21696.416999999994,
      "d": 93.74995000000126,
      "v": 112
    },
    {
      "midi": 50,
      "hit": false,
      "t": 21696.416999999994,
      "d": 104.91065833333414,
      "v": 108
    },
    {
      "midi": 52,
      "hit": false,
      "t": 22098.202499999996,
      "d": 216.51774166666655,
      "v": 92
    },
    {
      "midi": 55,
      "hit": false,
      "t": 22098.202499999996,
      "d": 227.67844999999943,
      "v": 92
    },
    {
      "midi": 60,
      "hit": false,
      "t": 22098.202499999996,
      "d": 245.53558333333422,
      "v": 104
    },
    {
      "midi": 60,
      "hit": false,
      "t": 22499.987999999998,
      "d": 93.74995000000126,
      "v": 108
    },
    {
      "midi": 64,
      "hit": false,
      "t": 22499.987999999998,
      "d": 100.44637499999953,
      "v": 112
    },
    {
      "midi": 55,
      "hit": false,
      "t": 22499.987999999998,
      "d": 133.92849999999817,
      "v": 96
    },
    {
      "midi": 59,
      "hit": false,
      "t": 22767.844999999994,
      "d": 446.4283333333333,
      "v": 104
    },
    {
      "midi": 62,
      "hit": false,
      "t": 22767.844999999994,
      "d": 446.4283333333333,
      "v": 104
    },
    {
      "midi": 53,
      "hit": false,
      "t": 22767.844999999994,
      "d": 473.21403333333365,
      "v": 100
    },
    {
      "midi": 59,
      "hit": false,
      "t": 23571.415999999994,
      "d": 111.60708333333241,
      "v": 108
    },
    {
      "midi": 50,
      "hit": false,
      "t": 23571.415999999994,
      "d": 127.2320749999999,
      "v": 92
    },
    {
      "midi": 55,
      "hit": false,
      "t": 23571.415999999994,
      "d": 156.24991666666756,
      "v": 104
    },
    {
      "midi": 60,
      "hit": false,
      "t": 24107.129999999994,
      "d": 160.71419999999853,
      "v": 108
    },
    {
      "midi": 55,
      "hit": false,
      "t": 24107.129999999994,
      "d": 167.4106249999968,
      "v": 92
    },
    {
      "midi": 52,
      "hit": false,
      "t": 24107.129999999994,
      "d": 178.57133333332968,
      "v": 96
    },
    {
      "midi": 62,
      "hit": false,
      "t": 24508.91549999999,
      "d": 100.44637499999953,
      "v": 104
    },
    {
      "midi": 59,
      "hit": false,
      "t": 24508.91549999999,
      "d": 104.91065833333414,
      "v": 104
    },
    {
      "midi": 53,
      "hit": false,
      "t": 24508.91549999999,
      "d": 122.76779166666893,
      "v": 96
    },
    {
      "midi": 69,
      "hit": false,
      "t": 25982.12899999999,
      "d": 82.58924166666839,
      "v": 112
    },
    {
      "midi": 60,
      "hit": false,
      "t": 25982.12899999999,
      "d": 93.74995000000126,
      "v": 108
    },
    {
      "midi": 65,
      "hit": false,
      "t": 25982.12899999999,
      "d": 93.74995000000126,
      "v": 108
    },
    {
      "midi": 53,
      "hit": false,
      "t": 25982.12899999999,
      "d": 100.44637499999953,
      "v": 92
    },
    {
      "midi": 57,
      "hit": false,
      "t": 25982.12899999999,
      "d": 100.44637499999953,
      "v": 88
    },
    {
      "midi": 53,
      "hit": false,
      "t": 26383.914499999988,
      "d": 256.6962916666671,
      "v": 96
    },
    {
      "midi": 65,
      "hit": false,
      "t": 26383.914499999988,
      "d": 261.1605750000017,
      "v": 104
    },
    {
      "midi": 70,
      "hit": false,
      "t": 26383.914499999988,
      "d": 261.1605750000017,
      "v": 112
    },
    {
      "midi": 62,
      "hit": false,
      "t": 26383.914499999988,
      "d": 272.3212833333346,
      "v": 100
    },
    {
      "midi": 58,
      "hit": false,
      "t": 26383.914499999988,
      "d": 279.01770833333285,
      "v": 100
    },
    {
      "midi": 53,
      "hit": false,
      "t": 26785.699999999986,
      "d": 93.74995000000126,
      "v": 92
    },
    {
      "midi": 65,
      "hit": false,
      "t": 26785.699999999986,
      "d": 116.07136666666702,
      "v": 88
    },
    {
      "midi": 58,
      "hit": false,
      "t": 26785.699999999986,
      "d": 127.2320749999999,
      "v": 96
    },
    {
      "midi": 62,
      "hit": false,
      "t": 26785.699999999986,
      "d": 127.2320749999999,
      "v": 104
    },
    {
      "midi": 70,
      "hit": false,
      "t": 26785.699999999986,
      "d": 133.92849999999817,
      "v": 104
    },
    {
      "midi": 60,
      "hit": false,
      "t": 27053.556999999986,
      "d": 573.6604083333332,
      "v": 108
    },
    {
      "midi": 57,
      "hit": false,
      "t": 27053.556999999986,
      "d": 595.9818249999989,
      "v": 96
    },
    {
      "midi": 53,
      "hit": false,
      "t": 27053.556999999986,
      "d": 607.1425333333318,
      "v": 92
    },
    {
      "midi": 69,
      "hit": false,
      "t": 27053.556999999986,
      "d": 803.5709999999999,
      "v": 108
    },
    {
      "midi": 65,
      "hit": false,
      "t": 27053.556999999986,
      "d": 837.0531249999985,
      "v": 100
    },
    {
      "midi": 50,
      "hit": false,
      "t": 27857.127999999986,
      "d": 55.80354166666439,
      "v": 104
    },
    {
      "midi": 55,
      "hit": false,
      "t": 27857.127999999986,
      "d": 66.96424999999726,
      "v": 108
    },
    {
      "midi": 59,
      "hit": false,
      "t": 27857.127999999986,
      "d": 66.96424999999726,
      "v": 112
    },
    {
      "midi": 55,
      "hit": false,
      "t": 28392.841999999982,
      "d": 261.1605750000017,
      "v": 92
    },
    {
      "midi": 60,
      "hit": false,
      "t": 28392.841999999982,
      "d": 261.1605750000017,
      "v": 104
    },
    {
      "midi": 52,
      "hit": false,
      "t": 28392.841999999982,
      "d": 267.85699999999997,
      "v": 92
    },
    {
      "midi": 53,
      "hit": false,
      "t": 28794.62749999998,
      "d": 66.9642500000009,
      "v": 96
    },
    {
      "midi": 59,
      "hit": false,
      "t": 28794.62749999998,
      "d": 71.42853333333551,
      "v": 108
    },
    {
      "midi": 62,
      "hit": false,
      "t": 28794.62749999998,
      "d": 78.12495833333378,
      "v": 108
    },
    {
      "midi": 55,
      "hit": false,
      "t": 30267.840999999982,
      "d": 78.12495833333378,
      "v": 92
    },
    {
      "midi": 59,
      "hit": false,
      "t": 30267.840999999982,
      "d": 78.12495833333378,
      "v": 108
    },
    {
      "midi": 50,
      "hit": false,
      "t": 30267.840999999982,
      "d": 82.58924166666839,
      "v": 92
    },
    {
      "midi": 52,
      "hit": false,
      "t": 30669.626499999984,
      "d": 205.35703333333367,
      "v": 92
    },
    {
      "midi": 55,
      "hit": false,
      "t": 30669.626499999984,
      "d": 212.05345833333195,
      "v": 92
    },
    {
      "midi": 60,
      "hit": false,
      "t": 30669.626499999984,
      "d": 223.21416666666482,
      "v": 104
    },
    {
      "midi": 60,
      "hit": false,
      "t": 31071.411999999982,
      "d": 78.12495833333378,
      "v": 100
    },
    {
      "midi": 64,
      "hit": false,
      "t": 31071.411999999982,
      "d": 100.44637499999953,
      "v": 108
    },
    {
      "midi": 55,
      "hit": false,
      "t": 31071.411999999982,
      "d": 116.07136666666702,
      "v": 96
    },
    {
      "midi": 59,
      "hit": false,
      "t": 31339.268999999982,
      "d": 591.517541666668,
      "v": 108
    },
    {
      "midi": 62,
      "hit": false,
      "t": 31339.268999999982,
      "d": 591.517541666668,
      "v": 108
    },
    {
      "midi": 53,
      "hit": false,
      "t": 31339.268999999982,
      "d": 595.9818250000026,
      "v": 100
    },
    {
      "midi": 59,
      "hit": false,
      "t": 32142.839999999986,
      "d": 66.9642500000009,
      "v": 108
    },
    {
      "midi": 50,
      "hit": false,
      "t": 32142.839999999986,
      "d": 82.58924166666839,
      "v": 104
    },
    {
      "midi": 55,
      "hit": false,
      "t": 32142.839999999986,
      "d": 100.44637500000317,
      "v": 108
    },
    {
      "midi": 60,
      "hit": false,
      "t": 32678.55399999999,
      "d": 249.99986666666518,
      "v": 116
    },
    {
      "midi": 52,
      "hit": false,
      "t": 32678.55399999999,
      "d": 272.32128333333094,
      "v": 104
    },
    {
      "midi": 55,
      "hit": false,
      "t": 32678.55399999999,
      "d": 283.48199166666745,
      "v": 104
    },
    {
      "midi": 53,
      "hit": false,
      "t": 33080.33949999999,
      "d": 66.96424999999726,
      "v": 96
    },
    {
      "midi": 62,
      "hit": false,
      "t": 33080.33949999999,
      "d": 71.42853333333187,
      "v": 108
    },
    {
      "midi": 59,
      "hit": false,
      "t": 33080.33949999999,
      "d": 78.12495833333378,
      "v": 108
    },
    {
      "midi": 53,
      "hit": false,
      "t": 34553.552999999985,
      "d": 78.12495833333378,
      "v": 92
    },
    {
      "midi": 60,
      "hit": false,
      "t": 34553.552999999985,
      "d": 78.12495833333378,
      "v": 108
    },
    {
      "midi": 69,
      "hit": false,
      "t": 34553.552999999985,
      "d": 82.58924166666839,
      "v": 112
    },
    {
      "midi": 57,
      "hit": false,
      "t": 34553.552999999985,
      "d": 89.2856666666703,
      "v": 96
    },
    {
      "midi": 65,
      "hit": false,
      "t": 34553.552999999985,
      "d": 100.44637500000681,
      "v": 100
    },
    {
      "midi": 53,
      "hit": false,
      "t": 34955.33849999999,
      "d": 227.67844999999943,
      "v": 96
    },
    {
      "midi": 65,
      "hit": false,
      "t": 34955.33849999999,
      "d": 238.83915833333594,
      "v": 100
    },
    {
      "midi": 62,
      "hit": false,
      "t": 34955.33849999999,
      "d": 256.6962916666671,
      "v": 104
    },
    {
      "midi": 58,
      "hit": false,
      "t": 34955.33849999999,
      "d": 261.1605750000017,
      "v": 100
    },
    {
      "midi": 70,
      "hit": false,
      "t": 34955.33849999999,
      "d": 261.1605750000017,
      "v": 108
    },
    {
      "midi": 53,
      "hit": false,
      "t": 35357.12399999999,
      "d": 93.74994999999763,
      "v": 76
    },
    {
      "midi": 65,
      "hit": false,
      "t": 35357.12399999999,
      "d": 100.44637499999953,
      "v": 92
    },
    {
      "midi": 62,
      "hit": false,
      "t": 35357.12399999999,
      "d": 127.2320749999999,
      "v": 92
    },
    {
      "midi": 70,
      "hit": false,
      "t": 35357.12399999999,
      "d": 133.9285000000018,
      "v": 104
    },
    {
      "midi": 58,
      "hit": false,
      "t": 35357.12399999999,
      "d": 145.08920833333832,
      "v": 88
    },
    {
      "midi": 60,
      "hit": false,
      "t": 35624.98099999999,
      "d": 546.8747083333365,
      "v": 108
    },
    {
      "midi": 53,
      "hit": false,
      "t": 35624.98099999999,
      "d": 569.1961250000022,
      "v": 92
    },
    {
      "midi": 57,
      "hit": false,
      "t": 35624.98099999999,
      "d": 569.1961250000022,
      "v": 92
    },
    {
      "midi": 69,
      "hit": false,
      "t": 35624.98099999999,
      "d": 607.1425333333391,
      "v": 108
    },
    {
      "midi": 65,
      "hit": false,
      "t": 35624.98099999999,
      "d": 624.9996666666702,
      "v": 104
    },
    {
      "midi": 59,
      "hit": false,
      "t": 36428.551999999996,
      "d": 55.803541666668025,
      "v": 116
    },
    {
      "midi": 55,
      "hit": false,
      "t": 36428.551999999996,
      "d": 60.26782500000263,
      "v": 108
    },
    {
      "midi": 50,
      "hit": false,
      "t": 36428.551999999996,
      "d": 78.12495833333378,
      "v": 108
    },
    {
      "midi": 52,
      "hit": false,
      "t": 36964.265999999996,
      "d": 279.01770833333285,
      "v": 104
    },
    {
      "midi": 55,
      "hit": false,
      "t": 36964.265999999996,
      "d": 283.48199166666745,
      "v": 104
    },
    {
      "midi": 60,
      "hit": false,
      "t": 36964.265999999996,
      "d": 301.3391249999986,
      "v": 112
    },
    {
      "midi": 59,
      "hit": false,
      "t": 37366.051499999994,
      "d": 71.42853333333187,
      "v": 112
    },
    {
      "midi": 62,
      "hit": false,
      "t": 37366.051499999994,
      "d": 71.42853333333187,
      "v": 112
    },
    {
      "midi": 53,
      "hit": false,
      "t": 37366.051499999994,
      "d": 82.58924166666839,
      "v": 104
    },
    {
      "midi": 55,
      "hit": false,
      "t": 38839.265,
      "d": 71.42853333333187,
      "v": 108
    },
    {
      "midi": 59,
      "hit": false,
      "t": 38839.265,
      "d": 71.42853333333187,
      "v": 112
    },
    {
      "midi": 50,
      "hit": false,
      "t": 38839.265,
      "d": 82.58924166666839,
      "v": 112
    },
    {
      "midi": 52,
      "hit": false,
      "t": 39241.0505,
      "d": 205.35703333333367,
      "v": 92
    },
    {
      "midi": 55,
      "hit": false,
      "t": 39241.0505,
      "d": 212.05345833333558,
      "v": 88
    },
    {
      "midi": 60,
      "hit": false,
      "t": 39241.0505,
      "d": 216.5177416666702,
      "v": 104
    },
    {
      "midi": 64,
      "hit": false,
      "t": 39642.836,
      "d": 89.2856666666703,
      "v": 112
    },
    {
      "midi": 60,
      "hit": false,
      "t": 39642.836,
      "d": 93.7499500000049,
      "v": 112
    },
    {
      "midi": 55,
      "hit": false,
      "t": 39642.836,
      "d": 122.76779166667257,
      "v": 96
    },
    {
      "midi": 62,
      "hit": false,
      "t": 39910.69300000001,
      "d": 584.8211166666661,
      "v": 96
    },
    {
      "midi": 59,
      "hit": false,
      "t": 39910.69300000001,
      "d": 591.517541666668,
      "v": 104
    },
    {
      "midi": 53,
      "hit": false,
      "t": 39910.69300000001,
      "d": 629.4639500000048,
      "v": 100
    },
    {
      "midi": 59,
      "hit": false,
      "t": 40714.26400000001,
      "d": 71.42853333333187,
      "v": 108
    },
    {
      "midi": 50,
      "hit": false,
      "t": 40714.26400000001,
      "d": 78.12495833333378,
      "v": 108
    },
    {
      "midi": 55,
      "hit": false,
      "t": 40714.26400000001,
      "d": 89.2856666666703,
      "v": 104
    },
    {
      "midi": 55,
      "hit": false,
      "t": 41249.97800000002,
      "d": 283.48199166666745,
      "v": 100
    },
    {
      "midi": 60,
      "hit": false,
      "t": 41249.97800000002,
      "d": 283.48199166666745,
      "v": 112
    },
    {
      "midi": 52,
      "hit": false,
      "t": 41249.97800000002,
      "d": 290.17841666666936,
      "v": 104
    },
    {
      "midi": 59,
      "hit": false,
      "t": 41651.76350000002,
      "d": 66.96424999999726,
      "v": 112
    },
    {
      "midi": 62,
      "hit": false,
      "t": 41651.76350000002,
      "d": 71.42853333333187,
      "v": 112
    },
    {
      "midi": 53,
      "hit": false,
      "t": 41651.76350000002,
      "d": 93.74994999999763,
      "v": 104
    },
    {
      "midi": 60,
      "hit": false,
      "t": 43124.97700000002,
      "d": 71.42853333333187,
      "v": 112
    },
    {
      "midi": 69,
      "hit": false,
      "t": 43124.97700000002,
      "d": 71.42853333333187,
      "v": 108
    },
    {
      "midi": 53,
      "hit": false,
      "t": 43124.97700000002,
      "d": 89.28566666666302,
      "v": 92
    },
    {
      "midi": 65,
      "hit": false,
      "t": 43124.97700000002,
      "d": 89.28566666666302,
      "v": 108
    },
    {
      "midi": 57,
      "hit": false,
      "t": 43124.97700000002,
      "d": 100.44637499999953,
      "v": 88
    },
    {
      "midi": 53,
      "hit": false,
      "t": 43526.76250000002,
      "d": 234.37487500000134,
      "v": 92
    },
    {
      "midi": 65,
      "hit": false,
      "t": 43526.76250000002,
      "d": 249.99986666666518,
      "v": 104
    },
    {
      "midi": 70,
      "hit": false,
      "t": 43526.76250000002,
      "d": 249.99986666666518,
      "v": 104
    },
    {
      "midi": 58,
      "hit": false,
      "t": 43526.76250000002,
      "d": 256.6962916666671,
      "v": 100
    },
    {
      "midi": 62,
      "hit": false,
      "t": 43526.76250000002,
      "d": 256.6962916666671,
      "v": 104
    },
    {
      "midi": 53,
      "hit": false,
      "t": 43928.54800000002,
      "d": 93.74994999999763,
      "v": 88
    },
    {
      "midi": 65,
      "hit": false,
      "t": 43928.54800000002,
      "d": 100.44637499999953,
      "v": 100
    },
    {
      "midi": 58,
      "hit": false,
      "t": 43928.54800000002,
      "d": 122.76779166666529,
      "v": 100
    },
    {
      "midi": 62,
      "hit": false,
      "t": 43928.54800000002,
      "d": 122.76779166666529,
      "v": 100
    },
    {
      "midi": 70,
      "hit": false,
      "t": 43928.54800000002,
      "d": 122.76779166666529,
      "v": 104
    },
    {
      "midi": 60,
      "hit": false,
      "t": 44196.40500000001,
      "d": 624.9996666666702,
      "v": 104
    },
    {
      "midi": 69,
      "hit": false,
      "t": 44196.40500000001,
      "d": 624.9996666666702,
      "v": 104
    },
    {
      "midi": 65,
      "hit": false,
      "t": 44196.40500000001,
      "d": 636.1603750000068,
      "v": 96
    },
    {
      "midi": 53,
      "hit": false,
      "t": 44196.40500000001,
      "d": 640.6246583333414,
      "v": 92
    },
    {
      "midi": 57,
      "hit": false,
      "t": 44196.40500000001,
      "d": 647.3210833333433,
      "v": 96
    },
    {
      "midi": 50,
      "hit": false,
      "t": 44999.976000000024,
      "d": 66.96424999999726,
      "v": 112
    },
    {
      "midi": 55,
      "hit": false,
      "t": 44999.976000000024,
      "d": 78.12495833333378,
      "v": 108
    },
    {
      "midi": 59,
      "hit": false,
      "t": 44999.976000000024,
      "d": 89.2856666666703,
      "v": 112
    },
    {
      "midi": 52,
      "hit": false,
      "t": 45535.69000000003,
      "d": 249.99986666666518,
      "v": 108
    },
    {
      "midi": 55,
      "hit": false,
      "t": 45535.69000000003,
      "d": 256.6962916666671,
      "v": 104
    },
    {
      "midi": 60,
      "hit": false,
      "t": 45535.69000000003,
      "d": 267.8570000000036,
      "v": 112
    },
    {
      "midi": 59,
      "hit": false,
      "t": 45937.47550000004,
      "d": 66.96424999999726,
      "v": 112
    },
    {
      "midi": 62,
      "hit": false,
      "t": 45937.47550000004,
      "d": 78.12495833333378,
      "v": 112
    },
    {
      "midi": 53,
      "hit": false,
      "t": 45937.47550000004,
      "d": 93.74994999999763,
      "v": 104
    },
    {
      "midi": 55,
      "hit": false,
      "t": 47410.689000000035,
      "d": 78.12495833333378,
      "v": 104
    },
    {
      "midi": 59,
      "hit": false,
      "t": 47410.689000000035,
      "d": 82.58924166666839,
      "v": 108
    },
    {
      "midi": 50,
      "hit": false,
      "t": 47410.689000000035,
      "d": 100.44637499999953,
      "v": 108
    },
    {
      "midi": 52,
      "hit": false,
      "t": 47812.47450000003,
      "d": 216.5177416666702,
      "v": 100
    },
    {
      "midi": 55,
      "hit": false,
      "t": 47812.47450000003,
      "d": 234.37487500000134,
      "v": 96
    },
    {
      "midi": 60,
      "hit": false,
      "t": 47812.47450000003,
      "d": 238.83915833333594,
      "v": 112
    },
    {
      "midi": 60,
      "hit": false,
      "t": 48214.26000000004,
      "d": 66.96424999999726,
      "v": 108
    },
    {
      "midi": 64,
      "hit": false,
      "t": 48214.26000000004,
      "d": 71.42853333333187,
      "v": 112
    },
    {
      "midi": 55,
      "hit": false,
      "t": 48214.26000000004,
      "d": 111.60708333332877,
      "v": 96
    },
    {
      "midi": 59,
      "hit": false,
      "t": 48482.117000000035,
      "d": 607.1425333333318,
      "v": 104
    },
    {
      "midi": 62,
      "hit": false,
      "t": 48482.117000000035,
      "d": 607.1425333333318,
      "v": 108
    },
    {
      "midi": 53,
      "hit": false,
      "t": 48482.117000000035,
      "d": 618.3032416666683,
      "v": 104
    },
    {
      "midi": 59,
      "hit": false,
      "t": 49285.68800000004,
      "d": 71.42853333333187,
      "v": 108
    },
    {
      "midi": 50,
      "hit": false,
      "t": 49285.68800000004,
      "d": 82.58924166666839,
      "v": 108
    },
    {
      "midi": 55,
      "hit": false,
      "t": 49285.68800000004,
      "d": 89.2856666666703,
      "v": 108
    },
    {
      "midi": 52,
      "hit": false,
      "t": 49821.402000000046,
      "d": 279.01770833333285,
      "v": 104
    },
    {
      "midi": 55,
      "hit": false,
      "t": 49821.402000000046,
      "d": 283.48199166666745,
      "v": 100
    },
    {
      "midi": 60,
      "hit": false,
      "t": 49821.402000000046,
      "d": 283.48199166666745,
      "v": 112
    },
    {
      "midi": 59,
      "hit": false,
      "t": 50223.187500000044,
      "d": 78.12495833333378,
      "v": 108
    },
    {
      "midi": 62,
      "hit": false,
      "t": 50223.187500000044,
      "d": 78.12495833333378,
      "v": 108
    },
    {
      "midi": 53,
      "hit": false,
      "t": 50223.187500000044,
      "d": 100.44637499999953,
      "v": 104
    },
    {
      "midi": 69,
      "hit": false,
      "t": 51696.40100000004,
      "d": 71.42853333333187,
      "v": 108
    },
    {
      "midi": 60,
      "hit": false,
      "t": 51696.40100000004,
      "d": 78.12495833333378,
      "v": 104
    },
    {
      "midi": 53,
      "hit": false,
      "t": 51696.40100000004,
      "d": 82.58924166666839,
      "v": 92
    },
    {
      "midi": 65,
      "hit": false,
      "t": 51696.40100000004,
      "d": 93.7499500000049,
      "v": 104
    },
    {
      "midi": 57,
      "hit": false,
      "t": 51696.40100000004,
      "d": 100.44637500000681,
      "v": 92
    },
    {
      "midi": 53,
      "hit": false,
      "t": 52098.18650000005,
      "d": 256.6962916666671,
      "v": 92
    },
    {
      "midi": 65,
      "hit": false,
      "t": 52098.18650000005,
      "d": 267.8570000000036,
      "v": 100
    },
    {
      "midi": 70,
      "hit": false,
      "t": 52098.18650000005,
      "d": 283.48199166666745,
      "v": 108
    },
    {
      "midi": 58,
      "hit": false,
      "t": 52098.18650000005,
      "d": 294.64270000000397,
      "v": 100
    },
    {
      "midi": 62,
      "hit": false,
      "t": 52098.18650000005,
      "d": 301.3391250000059,
      "v": 96
    },
    {
      "midi": 53,
      "hit": false,
      "t": 52499.97200000005,
      "d": 122.76779166666529,
      "v": 88
    },
    {
      "midi": 65,
      "hit": false,
      "t": 52499.97200000005,
      "d": 122.76779166666529,
      "v": 100
    },
    {
      "midi": 70,
      "hit": false,
      "t": 52499.97200000005,
      "d": 122.76779166666529,
      "v": 104
    },
    {
      "midi": 62,
      "hit": false,
      "t": 52499.97200000005,
      "d": 133.9285000000018,
      "v": 104
    },
    {
      "midi": 58,
      "hit": false,
      "t": 52499.97200000005,
      "d": 138.3927833333364,
      "v": 92
    },
    {
      "midi": 60,
      "hit": false,
      "t": 52767.829000000056,
      "d": 613.8389583333337,
      "v": 104
    },
    {
      "midi": 57,
      "hit": false,
      "t": 52767.829000000056,
      "d": 624.9996666666702,
      "v": 96
    },
    {
      "midi": 69,
      "hit": false,
      "t": 52767.829000000056,
      "d": 629.4639500000048,
      "v": 108
    },
    {
      "midi": 53,
      "hit": false,
      "t": 52767.829000000056,
      "d": 636.1603750000068,
      "v": 92
    },
    {
      "midi": 65,
      "hit": false,
      "t": 52767.829000000056,
      "d": 651.7853666666706,
      "v": 104
    },
    {
      "midi": 50,
      "hit": false,
      "t": 53571.40000000006,
      "d": 78.12495833333378,
      "v": 104
    },
    {
      "midi": 55,
      "hit": false,
      "t": 53571.40000000006,
      "d": 82.58924166666839,
      "v": 104
    },
    {
      "midi": 59,
      "hit": false,
      "t": 53571.40000000006,
      "d": 82.58924166666839,
      "v": 108
    },
    {
      "midi": 52,
      "hit": false,
      "t": 54107.11400000006,
      "d": 301.3391249999986,
      "v": 104
    },
    {
      "midi": 55,
      "hit": false,
      "t": 54107.11400000006,
      "d": 305.8034083333332,
      "v": 104
    },
    {
      "midi": 60,
      "hit": false,
      "t": 54107.11400000006,
      "d": 312.4998333333351,
      "v": 112
    },
    {
      "midi": 59,
      "hit": false,
      "t": 54508.89950000006,
      "d": 66.96424999999726,
      "v": 112
    },
    {
      "midi": 62,
      "hit": false,
      "t": 54508.89950000006,
      "d": 78.12495833333378,
      "v": 112
    },
    {
      "midi": 53,
      "hit": false,
      "t": 54508.89950000006,
      "d": 82.58924166666839,
      "v": 104
    },
    {
      "midi": 50,
      "hit": false,
      "t": 55982.113000000056,
      "d": 55.803541666668025,
      "v": 112
    },
    {
      "midi": 59,
      "hit": false,
      "t": 55982.113000000056,
      "d": 55.803541666668025,
      "v": 116
    },
    {
      "midi": 55,
      "hit": false,
      "t": 55982.113000000056,
      "d": 60.26782500000263,
      "v": 108
    },
    {
      "midi": 52,
      "hit": false,
      "t": 56383.89850000006,
      "d": 227.67844999999943,
      "v": 96
    },
    {
      "midi": 55,
      "hit": false,
      "t": 56383.89850000006,
      "d": 227.67844999999943,
      "v": 92
    },
    {
      "midi": 60,
      "hit": false,
      "t": 56383.89850000006,
      "d": 238.83915833333594,
      "v": 108
    },
    {
      "midi": 60,
      "hit": false,
      "t": 56785.68400000007,
      "d": 55.803541666668025,
      "v": 112
    },
    {
      "midi": 64,
      "hit": false,
      "t": 56785.68400000007,
      "d": 93.7499500000049,
      "v": 108
    },
    {
      "midi": 55,
      "hit": false,
      "t": 56785.68400000007,
      "d": 100.44637500000681,
      "v": 96
    },
    {
      "midi": 62,
      "hit": false,
      "t": 57053.54100000007,
      "d": 580.3568333333315,
      "v": 104
    },
    {
      "midi": 59,
      "hit": false,
      "t": 57053.54100000007,
      "d": 591.517541666668,
      "v": 108
    },
    {
      "midi": 53,
      "hit": false,
      "t": 57053.54100000007,
      "d": 613.8389583333337,
      "v": 100
    },
    {
      "midi": 50,
      "hit": false,
      "t": 57857.112000000074,
      "d": 78.12495833333378,
      "v": 112
    },
    {
      "midi": 59,
      "hit": false,
      "t": 57857.112000000074,
      "d": 82.58924166666839,
      "v": 112
    },
    {
      "midi": 55,
      "hit": false,
      "t": 57857.112000000074,
      "d": 100.44637499999953,
      "v": 112
    },
    {
      "midi": 52,
      "hit": false,
      "t": 58392.826000000074,
      "d": 294.6426999999967,
      "v": 104
    },
    {
      "midi": 55,
      "hit": false,
      "t": 58392.826000000074,
      "d": 294.6426999999967,
      "v": 104
    },
    {
      "midi": 60,
      "hit": false,
      "t": 58392.826000000074,
      "d": 305.8034083333332,
      "v": 112
    },
    {
      "midi": 59,
      "hit": false,
      "t": 58794.61150000007,
      "d": 66.96424999999726,
      "v": 112
    },
    {
      "midi": 62,
      "hit": false,
      "t": 58794.61150000007,
      "d": 71.42853333333187,
      "v": 112
    },
    {
      "midi": 53,
      "hit": false,
      "t": 58794.61150000007,
      "d": 82.58924166666839,
      "v": 96
    },
    {
      "midi": 69,
      "hit": false,
      "t": 60267.82500000007,
      "d": 55.803541666668025,
      "v": 108
    },
    {
      "midi": 60,
      "hit": false,
      "t": 60267.82500000007,
      "d": 66.96425000000454,
      "v": 108
    },
    {
      "midi": 65,
      "hit": false,
      "t": 60267.82500000007,
      "d": 82.58924166666839,
      "v": 104
    },
    {
      "midi": 53,
      "hit": false,
      "t": 60267.82500000007,
      "d": 89.2856666666703,
      "v": 92
    },
    {
      "midi": 57,
      "hit": false,
      "t": 60267.82500000007,
      "d": 100.44637500000681,
      "v": 100
    },
    {
      "midi": 53,
      "hit": false,
      "t": 60669.610500000075,
      "d": 234.37487500000134,
      "v": 96
    },
    {
      "midi": 70,
      "hit": false,
      "t": 60669.610500000075,
      "d": 238.83915833333594,
      "v": 112
    },
    {
      "midi": 62,
      "hit": false,
      "t": 60669.610500000075,
      "d": 249.99986666667246,
      "v": 104
    },
    {
      "midi": 65,
      "hit": false,
      "t": 60669.610500000075,
      "d": 249.99986666667246,
      "v": 100
    },
    {
      "midi": 58,
      "hit": false,
      "t": 60669.610500000075,
      "d": 256.69629166667437,
      "v": 100
    },
    {
      "midi": 65,
      "hit": false,
      "t": 61071.39600000008,
      "d": 104.91065833333414,
      "v": 96
    },
    {
      "midi": 53,
      "hit": false,
      "t": 61071.39600000008,
      "d": 111.60708333333605,
      "v": 88
    },
    {
      "midi": 70,
      "hit": false,
      "t": 61071.39600000008,
      "d": 111.60708333333605,
      "v": 112
    },
    {
      "midi": 62,
      "hit": false,
      "t": 61071.39600000008,
      "d": 116.07136666667066,
      "v": 96
    },
    {
      "midi": 58,
      "hit": false,
      "t": 61071.39600000008,
      "d": 127.23207500000717,
      "v": 92
    },
    {
      "midi": 53,
      "hit": false,
      "t": 61339.253000000084,
      "d": 613.8389583333337,
      "v": 88
    },
    {
      "midi": 60,
      "hit": false,
      "t": 61339.253000000084,
      "d": 613.8389583333337,
      "v": 104
    },
    {
      "midi": 57,
      "hit": false,
      "t": 61339.253000000084,
      "d": 624.9996666666702,
      "v": 96
    },
    {
      "midi": 69,
      "hit": false,
      "t": 61339.253000000084,
      "d": 624.9996666666702,
      "v": 104
    },
    {
      "midi": 65,
      "hit": false,
      "t": 61339.253000000084,
      "d": 640.6246583333341,
      "v": 108
    },
    {
      "midi": 50,
      "hit": false,
      "t": 62142.82400000009,
      "d": 60.26782500000263,
      "v": 108
    },
    {
      "midi": 59,
      "hit": false,
      "t": 62142.82400000009,
      "d": 66.96425000000454,
      "v": 112
    },
    {
      "midi": 55,
      "hit": false,
      "t": 62142.82400000009,
      "d": 78.12495833334106,
      "v": 104
    },
    {
      "midi": 52,
      "hit": false,
      "t": 62678.538000000095,
      "d": 283.48199166666745,
      "v": 108
    },
    {
      "midi": 55,
      "hit": false,
      "t": 62678.538000000095,
      "d": 305.8034083333332,
      "v": 112
    },
    {
      "midi": 60,
      "hit": false,
      "t": 62678.538000000095,
      "d": 316.9641166666697,
      "v": 112
    },
    {
      "midi": 62,
      "hit": false,
      "t": 63080.3235000001,
      "d": 78.12495833333378,
      "v": 116
    },
    {
      "midi": 59,
      "hit": false,
      "t": 63080.3235000001,
      "d": 82.58924166666839,
      "v": 116
    },
    {
      "midi": 53,
      "hit": false,
      "t": 63080.3235000001,
      "d": 93.7499500000049,
      "v": 104
    },
    {
      "midi": 55,
      "hit": false,
      "t": 64553.537000000106,
      "d": 55.803541666668025,
      "v": 112
    },
    {
      "midi": 59,
      "hit": false,
      "t": 64553.537000000106,
      "d": 66.96425000000454,
      "v": 120
    },
    {
      "midi": 50,
      "hit": false,
      "t": 64553.537000000106,
      "d": 71.42853333333915,
      "v": 112
    },
    {
      "midi": 55,
      "hit": false,
      "t": 64955.32250000011,
      "d": 200.89274999999907,
      "v": 96
    },
    {
      "midi": 52,
      "hit": false,
      "t": 64955.32250000011,
      "d": 205.35703333333367,
      "v": 92
    },
    {
      "midi": 60,
      "hit": false,
      "t": 64955.32250000011,
      "d": 216.5177416666702,
      "v": 112
    },
    {
      "midi": 60,
      "hit": false,
      "t": 65357.10800000012,
      "d": 71.42853333333187,
      "v": 108
    },
    {
      "midi": 64,
      "hit": false,
      "t": 65357.10800000012,
      "d": 82.58924166666839,
      "v": 112
    },
    {
      "midi": 55,
      "hit": false,
      "t": 65357.10800000012,
      "d": 100.44637499999953,
      "v": 96
    },
    {
      "midi": 62,
      "hit": false,
      "t": 65624.96500000011,
      "d": 580.3568333333387,
      "v": 108
    },
    {
      "midi": 59,
      "hit": false,
      "t": 65624.96500000011,
      "d": 584.8211166666733,
      "v": 112
    },
    {
      "midi": 53,
      "hit": false,
      "t": 65624.96500000011,
      "d": 595.9818250000098,
      "v": 100
    },
    {
      "midi": 50,
      "hit": false,
      "t": 66428.53600000012,
      "d": 60.26782500000263,
      "v": 112
    },
    {
      "midi": 59,
      "hit": false,
      "t": 66428.53600000012,
      "d": 66.96425000000454,
      "v": 116
    },
    {
      "midi": 55,
      "hit": false,
      "t": 66428.53600000012,
      "d": 82.58924166667566,
      "v": 108
    },
    {
      "midi": 60,
      "hit": false,
      "t": 66964.25000000013,
      "d": 261.1605750000017,
      "v": 116
    },
    {
      "midi": 52,
      "hit": false,
      "t": 66964.25000000013,
      "d": 267.8570000000036,
      "v": 108
    },
    {
      "midi": 55,
      "hit": false,
      "t": 66964.25000000013,
      "d": 267.8570000000036,
      "v": 104
    },
    {
      "midi": 59,
      "hit": false,
      "t": 67366.03550000013,
      "d": 71.42853333333915,
      "v": 116
    },
    {
      "midi": 53,
      "hit": false,
      "t": 67366.03550000013,
      "d": 78.12495833334106,
      "v": 108
    },
    {
      "midi": 62,
      "hit": false,
      "t": 67366.03550000013,
      "d": 78.12495833334106,
      "v": 116
    },
    {
      "midi": 60,
      "hit": false,
      "t": 68839.24900000014,
      "d": 71.42853333333915,
      "v": 112
    },
    {
      "midi": 53,
      "hit": false,
      "t": 68839.24900000014,
      "d": 78.12495833334106,
      "v": 92
    },
    {
      "midi": 69,
      "hit": false,
      "t": 68839.24900000014,
      "d": 82.58924166667566,
      "v": 112
    },
    {
      "midi": 65,
      "hit": false,
      "t": 68839.24900000014,
      "d": 93.74995000001218,
      "v": 108
    },
    {
      "midi": 57,
      "hit": false,
      "t": 68839.24900000014,
      "d": 116.07136666668521,
      "v": 96
    },
    {
      "midi": 65,
      "hit": false,
      "t": 69241.03450000015,
      "d": 245.53558333333058,
      "v": 108
    },
    {
      "midi": 70,
      "hit": false,
      "t": 69241.03450000015,
      "d": 245.53558333333058,
      "v": 108
    },
    {
      "midi": 58,
      "hit": false,
      "t": 69241.03450000015,
      "d": 256.6962916666671,
      "v": 100
    },
    {
      "midi": 62,
      "hit": false,
      "t": 69241.03450000015,
      "d": 256.6962916666671,
      "v": 108
    },
    {
      "midi": 53,
      "hit": false,
      "t": 69241.03450000015,
      "d": 267.8570000000036,
      "v": 100
    },
    {
      "midi": 58,
      "hit": false,
      "t": 69642.82000000015,
      "d": 156.24991666666756,
      "v": 92
    },
    {
      "midi": 53,
      "hit": false,
      "t": 69642.82000000015,
      "d": 160.71420000000217,
      "v": 84
    },
    {
      "midi": 62,
      "hit": false,
      "t": 69642.82000000015,
      "d": 171.87490833333868,
      "v": 92
    },
    {
      "midi": 65,
      "hit": false,
      "t": 69642.82000000015,
      "d": 171.87490833333868,
      "v": 92
    },
    {
      "midi": 70,
      "hit": false,
      "t": 69642.82000000015,
      "d": 178.5713333333406,
      "v": 100
    },
    {
      "midi": 60,
      "hit": false,
      "t": 69910.67700000016,
      "d": 390.6247916666616,
      "v": 96
    },
    {
      "midi": 53,
      "hit": false,
      "t": 69910.67700000016,
      "d": 424.1069166666566,
      "v": 88
    },
    {
      "midi": 57,
      "hit": false,
      "t": 69910.67700000016,
      "d": 428.5711999999912,
      "v": 92
    },
    {
      "midi": 69,
      "hit": false,
      "t": 69910.67700000016,
      "d": 584.8211166666588,
      "v": 100
    },
    {
      "midi": 65,
      "hit": false,
      "t": 69910.67700000016,
      "d": 595.9818249999953,
      "v": 96
    },
    {
      "midi": 52,
      "hit": false,
      "t": 70714.24800000015,
      "d": 2002.2310750000033,
      "v": 92
    },
    {
      "midi": 59,
      "hit": false,
      "t": 70714.24800000015,
      "d": 2064.7310416666733,
      "v": 104
    },
    {
      "midi": 55,
      "hit": false,
      "t": 70714.24800000015,
      "d": 2069.195325000008,
      "v": 92
    },
    {
      "midi": 62,
      "hit": false,
      "t": 70714.24800000015,
      "d": 2091.516741666681,
      "v": 96
    },
    {
      "midi": 66,
      "hit": false,
      "t": 72857.10400000017,
      "d": 915.1780833333469,
      "v": 112
    },
    {
      "midi": 73,
      "hit": false,
      "t": 72857.10400000017,
      "d": 930.803075000018,
      "v": 108
    },
    {
      "midi": 52,
      "hit": false,
      "t": 72857.10400000017,
      "d": 1265.6243250000116,
      "v": 88
    },
    {
      "midi": 55,
      "hit": false,
      "t": 72857.10400000017,
      "d": 1265.6243250000116,
      "v": 92
    },
    {
      "midi": 45,
      "hit": false,
      "t": 72857.10400000017,
      "d": 1294.642166666672,
      "v": 76
    },
    {
      "midi": 66,
      "hit": false,
      "t": 73928.53200000018,
      "d": 462.0533249999862,
      "v": 108
    },
    {
      "midi": 73,
      "hit": false,
      "t": 74464.24600000017,
      "d": 484.37474166665925,
      "v": 100
    },
    {
      "midi": 67,
      "hit": false,
      "t": 74999.96000000017,
      "d": 796.8745749999944,
      "v": 100
    },
    {
      "midi": 57,
      "hit": false,
      "t": 74999.96000000017,
      "d": 852.6781166666624,
      "v": 96
    },
    {
      "midi": 50,
      "hit": false,
      "t": 74999.96000000017,
      "d": 886.1602416666574,
      "v": 104
    },
    {
      "midi": 60,
      "hit": false,
      "t": 74999.96000000017,
      "d": 886.1602416666574,
      "v": 100
    },
    {
      "midi": 64,
      "hit": false,
      "t": 74999.96000000017,
      "d": 886.1602416666574,
      "v": 100
    },
    {
      "midi": 59,
      "hit": false,
      "t": 77410.67300000016,
      "d": 145.08920833333104,
      "v": 120
    },
    {
      "midi": 47,
      "hit": false,
      "t": 77410.67300000016,
      "d": 149.55349166666565,
      "v": 120
    },
    {
      "midi": 60,
      "hit": false,
      "t": 77812.45850000015,
      "d": 345.9819583333301,
      "v": 120
    },
    {
      "midi": 48,
      "hit": false,
      "t": 77812.45850000015,
      "d": 361.60695000000123,
      "v": 112
    },
    {
      "midi": 50,
      "hit": false,
      "t": 78214.24400000015,
      "d": 267.8570000000036,
      "v": 104
    },
    {
      "midi": 62,
      "hit": false,
      "t": 78214.24400000015,
      "d": 283.48199166667473,
      "v": 104
    },
    {
      "midi": 51,
      "hit": false,
      "t": 78749.95800000016,
      "d": 82.58924166666111,
      "v": 116
    },
    {
      "midi": 63,
      "hit": false,
      "t": 78749.95800000016,
      "d": 149.55349166666565,
      "v": 112
    },
    {
      "midi": 67,
      "hit": false,
      "t": 78883.88650000015,
      "d": 167.41062500000407,
      "v": 100
    },
    {
      "midi": 63,
      "hit": false,
      "t": 79017.81500000016,
      "d": 156.24991666666756,
      "v": 72
    },
    {
      "midi": 64,
      "hit": false,
      "t": 79151.74350000016,
      "d": 841.5174083333404,
      "v": 108
    },
    {
      "midi": 62,
      "hit": false,
      "t": 79151.74350000016,
      "d": 1350.44570833334,
      "v": 96
    },
    {
      "midi": 55,
      "hit": false,
      "t": 79151.74350000016,
      "d": 1366.0707000000111,
      "v": 88
    },
    {
      "midi": 59,
      "hit": false,
      "t": 79151.74350000016,
      "d": 1395.0885416666715,
      "v": 104
    },
    {
      "midi": 52,
      "hit": false,
      "t": 79151.74350000016,
      "d": 1421.8742416666646,
      "v": 88
    },
    {
      "midi": 64,
      "hit": false,
      "t": 80624.95700000015,
      "d": 234.37487499999406,
      "v": 108
    },
    {
      "midi": 74,
      "hit": false,
      "t": 80624.95700000015,
      "d": 383.9283666666597,
      "v": 108
    },
    {
      "midi": 71,
      "hit": false,
      "t": 81026.74250000015,
      "d": 350.4462416666647,
      "v": 112
    },
    {
      "midi": 67,
      "hit": false,
      "t": 81428.52800000015,
      "d": 1037.945875000005,
      "v": 104
    },
    {
      "midi": 59,
      "hit": false,
      "t": 81428.52800000015,
      "d": 1042.4101583333395,
      "v": 104
    },
    {
      "midi": 55,
      "hit": false,
      "t": 81428.52800000015,
      "d": 1071.4279999999999,
      "v": 92
    },
    {
      "midi": 52,
      "hit": false,
      "t": 81428.52800000015,
      "d": 1082.5887083333364,
      "v": 92
    },
    {
      "midi": 60,
      "hit": false,
      "t": 81428.52800000015,
      "d": 1093.749416666673,
      "v": 96
    },
    {
      "midi": 48,
      "hit": false,
      "t": 81428.52800000015,
      "d": 1176.338658333334,
      "v": 68
    },
    {
      "midi": 62,
      "hit": false,
      "t": 83839.24100000015,
      "d": 100.44637499999953,
      "v": 112
    },
    {
      "midi": 67,
      "hit": false,
      "t": 83839.24100000015,
      "d": 100.44637499999953,
      "v": 120
    },
    {
      "midi": 71,
      "hit": false,
      "t": 83839.24100000015,
      "d": 104.91065833333414,
      "v": 116
    },
    {
      "midi": 67,
      "hit": false,
      "t": 84241.02650000015,
      "d": 267.8570000000036,
      "v": 116
    },
    {
      "midi": 74,
      "hit": false,
      "t": 84241.02650000015,
      "d": 283.48199166667473,
      "v": 120
    },
    {
      "midi": 71,
      "hit": false,
      "t": 84241.02650000015,
      "d": 294.64270000001125,
      "v": 116
    },
    {
      "midi": 76,
      "hit": false,
      "t": 84642.81200000017,
      "d": 930.8030750000034,
      "v": 116
    },
    {
      "midi": 71,
      "hit": false,
      "t": 84642.81200000017,
      "d": 948.6602083333419,
      "v": 120
    },
    {
      "midi": 67,
      "hit": false,
      "t": 84642.81200000017,
      "d": 959.8209166666784,
      "v": 112
    },
    {
      "midi": 65,
      "hit": false,
      "t": 85982.09700000018,
      "d": 82.58924166666111,
      "v": 116
    },
    {
      "midi": 69,
      "hit": false,
      "t": 85982.09700000018,
      "d": 82.58924166666111,
      "v": 120
    },
    {
      "midi": 74,
      "hit": false,
      "t": 85982.09700000018,
      "d": 111.6070833333215,
      "v": 116
    },
    {
      "midi": 76,
      "hit": false,
      "t": 86383.88250000017,
      "d": 145.08920833333104,
      "v": 104
    },
    {
      "midi": 72,
      "hit": false,
      "t": 86383.88250000017,
      "d": 156.24991666666756,
      "v": 88
    },
    {
      "midi": 67,
      "hit": false,
      "t": 86383.88250000017,
      "d": 171.87490833333868,
      "v": 100
    },
    {
      "midi": 70,
      "hit": false,
      "t": 86785.66800000017,
      "d": 975.445908333335,
      "v": 112
    },
    {
      "midi": 65,
      "hit": false,
      "t": 86785.66800000017,
      "d": 997.767325000008,
      "v": 112
    },
    {
      "midi": 74,
      "hit": false,
      "t": 86785.66800000017,
      "d": 997.767325000008,
      "v": 112
    },
    {
      "midi": 59,
      "hit": false,
      "t": 87857.09600000018,
      "d": 71.42853333333915,
      "v": 108
    },
    {
      "midi": 50,
      "hit": false,
      "t": 87857.09600000018,
      "d": 78.12495833334106,
      "v": 112
    },
    {
      "midi": 55,
      "hit": false,
      "t": 87857.09600000018,
      "d": 82.58924166667566,
      "v": 112
    },
    {
      "midi": 52,
      "hit": false,
      "t": 88392.81000000019,
      "d": 294.6426999999967,
      "v": 108
    },
    {
      "midi": 55,
      "hit": false,
      "t": 88392.81000000019,
      "d": 301.3391249999986,
      "v": 104
    },
    {
      "midi": 60,
      "hit": false,
      "t": 88392.81000000019,
      "d": 312.4998333333351,
      "v": 112
    },
    {
      "midi": 59,
      "hit": false,
      "t": 88794.59550000018,
      "d": 71.42853333333915,
      "v": 116
    },
    {
      "midi": 62,
      "hit": false,
      "t": 88794.59550000018,
      "d": 71.42853333333915,
      "v": 116
    },
    {
      "midi": 53,
      "hit": false,
      "t": 88794.59550000018,
      "d": 100.44637499999953,
      "v": 104
    },
    {
      "midi": 55,
      "hit": false,
      "t": 90267.80900000018,
      "d": 71.42853333333915,
      "v": 108
    },
    {
      "midi": 59,
      "hit": false,
      "t": 90267.80900000018,
      "d": 82.58924166667566,
      "v": 120
    },
    {
      "midi": 50,
      "hit": false,
      "t": 90267.80900000018,
      "d": 89.28566666667757,
      "v": 112
    },
    {
      "midi": 52,
      "hit": false,
      "t": 90669.5945000002,
      "d": 212.05345833333558,
      "v": 96
    },
    {
      "midi": 55,
      "hit": false,
      "t": 90669.5945000002,
      "d": 223.2141666666721,
      "v": 88
    },
    {
      "midi": 60,
      "hit": false,
      "t": 90669.5945000002,
      "d": 234.37487500000861,
      "v": 108
    },
    {
      "midi": 60,
      "hit": false,
      "t": 91071.38000000021,
      "d": 71.42853333333915,
      "v": 112
    },
    {
      "midi": 64,
      "hit": false,
      "t": 91071.38000000021,
      "d": 89.28566666667757,
      "v": 112
    },
    {
      "midi": 55,
      "hit": false,
      "t": 91071.38000000021,
      "d": 104.91065833334869,
      "v": 100
    },
    {
      "midi": 62,
      "hit": false,
      "t": 91339.23700000023,
      "d": 558.0354166666657,
      "v": 112
    },
    {
      "midi": 59,
      "hit": false,
      "t": 91339.23700000023,
      "d": 569.1961250000022,
      "v": 108
    },
    {
      "midi": 53,
      "hit": false,
      "t": 91339.23700000023,
      "d": 602.6782499999972,
      "v": 104
    },
    {
      "midi": 59,
      "hit": false,
      "t": 92142.80800000022,
      "d": 71.42853333333915,
      "v": 116
    },
    {
      "midi": 55,
      "hit": false,
      "t": 92142.80800000022,
      "d": 78.12495833334106,
      "v": 112
    },
    {
      "midi": 50,
      "hit": false,
      "t": 92142.80800000022,
      "d": 82.58924166667566,
      "v": 112
    },
    {
      "midi": 52,
      "hit": false,
      "t": 92678.52200000023,
      "d": 294.6426999999967,
      "v": 108
    },
    {
      "midi": 55,
      "hit": false,
      "t": 92678.52200000023,
      "d": 301.3391249999986,
      "v": 104
    },
    {
      "midi": 60,
      "hit": false,
      "t": 92678.52200000023,
      "d": 312.4998333333351,
      "v": 116
    },
    {
      "midi": 59,
      "hit": false,
      "t": 93080.30750000023,
      "d": 66.96425000000454,
      "v": 116
    },
    {
      "midi": 62,
      "hit": false,
      "t": 93080.30750000023,
      "d": 71.42853333333915,
      "v": 120
    },
    {
      "midi": 53,
      "hit": false,
      "t": 93080.30750000023,
      "d": 89.28566666667757,
      "v": 104
    },
    {
      "midi": 60,
      "hit": false,
      "t": 94553.52100000024,
      "d": 60.26782500000263,
      "v": 112
    },
    {
      "midi": 69,
      "hit": false,
      "t": 94553.52100000024,
      "d": 71.42853333333915,
      "v": 116
    },
    {
      "midi": 53,
      "hit": false,
      "t": 94553.52100000024,
      "d": 78.12495833334106,
      "v": 96
    },
    {
      "midi": 57,
      "hit": false,
      "t": 94553.52100000024,
      "d": 82.58924166667566,
      "v": 96
    },
    {
      "midi": 65,
      "hit": false,
      "t": 94553.52100000024,
      "d": 100.44637500001409,
      "v": 108
    },
    {
      "midi": 53,
      "hit": false,
      "t": 94955.30650000025,
      "d": 245.53558333333058,
      "v": 96
    },
    {
      "midi": 70,
      "hit": false,
      "t": 94955.30650000025,
      "d": 245.53558333333058,
      "v": 108
    },
    {
      "midi": 65,
      "hit": false,
      "t": 94955.30650000025,
      "d": 249.99986666666518,
      "v": 100
    },
    {
      "midi": 58,
      "hit": false,
      "t": 94955.30650000025,
      "d": 272.3212833333382,
      "v": 100
    },
    {
      "midi": 62,
      "hit": false,
      "t": 94955.30650000025,
      "d": 279.0177083333401,
      "v": 108
    },
    {
      "midi": 53,
      "hit": false,
      "t": 95357.09200000027,
      "d": 82.58924166666111,
      "v": 92
    },
    {
      "midi": 70,
      "hit": false,
      "t": 95357.09200000027,
      "d": 100.44637499999953,
      "v": 112
    },
    {
      "midi": 58,
      "hit": false,
      "t": 95357.09200000027,
      "d": 122.76779166667257,
      "v": 100
    },
    {
      "midi": 62,
      "hit": false,
      "t": 95357.09200000027,
      "d": 122.76779166667257,
      "v": 108
    },
    {
      "midi": 65,
      "hit": false,
      "t": 95357.09200000027,
      "d": 127.23207500000717,
      "v": 108
    },
    {
      "midi": 60,
      "hit": false,
      "t": 95624.94900000027,
      "d": 591.5175416666607,
      "v": 108
    },
    {
      "midi": 57,
      "hit": false,
      "t": 95624.94900000027,
      "d": 602.6782499999972,
      "v": 108
    },
    {
      "midi": 53,
      "hit": false,
      "t": 95624.94900000027,
      "d": 613.8389583333337,
      "v": 92
    },
    {
      "midi": 69,
      "hit": false,
      "t": 95624.94900000027,
      "d": 662.9460749999998,
      "v": 112
    },
    {
      "midi": 65,
      "hit": false,
      "t": 95624.94900000027,
      "d": 674.1067833333364,
      "v": 104
    },
    {
      "midi": 50,
      "hit": false,
      "t": 96428.52000000027,
      "d": 44.64283333333151,
      "v": 112
    },
    {
      "midi": 59,
      "hit": false,
      "t": 96428.52000000027,
      "d": 49.107116666666116,
      "v": 116
    },
    {
      "midi": 55,
      "hit": false,
      "t": 96428.52000000027,
      "d": 60.26782500000263,
      "v": 108
    },
    {
      "midi": 52,
      "hit": false,
      "t": 96964.23400000027,
      "d": 305.8034083333332,
      "v": 108
    },
    {
      "midi": 55,
      "hit": false,
      "t": 96964.23400000027,
      "d": 323.66054166667163,
      "v": 108
    },
    {
      "midi": 60,
      "hit": false,
      "t": 96964.23400000027,
      "d": 328.12482500000624,
      "v": 112
    },
    {
      "midi": 59,
      "hit": false,
      "t": 97366.01950000029,
      "d": 60.26782500000263,
      "v": 108
    },
    {
      "midi": 62,
      "hit": false,
      "t": 97366.01950000029,
      "d": 60.26782500000263,
      "v": 116
    },
    {
      "midi": 53,
      "hit": false,
      "t": 97366.01950000029,
      "d": 71.42853333333915,
      "v": 104
    },
    {
      "midi": 55,
      "hit": false,
      "t": 98839.2330000003,
      "d": 55.803541666668025,
      "v": 112
    },
    {
      "midi": 59,
      "hit": false,
      "t": 98839.2330000003,
      "d": 60.26782500000263,
      "v": 120
    },
    {
      "midi": 50,
      "hit": false,
      "t": 98839.2330000003,
      "d": 93.74994999999763,
      "v": 116
    },
    {
      "midi": 52,
      "hit": false,
      "t": 99241.0185000003,
      "d": 212.05345833333558,
      "v": 92
    },
    {
      "midi": 55,
      "hit": false,
      "t": 99241.0185000003,
      "d": 223.2141666666721,
      "v": 92
    },
    {
      "midi": 60,
      "hit": false,
      "t": 99241.0185000003,
      "d": 238.83915833334322,
      "v": 112
    },
    {
      "midi": 60,
      "hit": false,
      "t": 99642.80400000031,
      "d": 89.28566666666302,
      "v": 108
    },
    {
      "midi": 64,
      "hit": false,
      "t": 99642.80400000031,
      "d": 93.74994999999763,
      "v": 112
    },
    {
      "midi": 55,
      "hit": false,
      "t": 99642.80400000031,
      "d": 111.60708333333605,
      "v": 100
    },
    {
      "midi": 62,
      "hit": false,
      "t": 99910.66100000031,
      "d": 584.8211166666733,
      "v": 112
    },
    {
      "midi": 59,
      "hit": false,
      "t": 99910.66100000031,
      "d": 595.9818250000098,
      "v": 112
    },
    {
      "midi": 53,
      "hit": false,
      "t": 99910.66100000031,
      "d": 624.9996666666702,
      "v": 108
    },
    {
      "midi": 50,
      "hit": false,
      "t": 100714.23200000031,
      "d": 60.26782500000263,
      "v": 108
    },
    {
      "midi": 59,
      "hit": false,
      "t": 100714.23200000031,
      "d": 66.96425000000454,
      "v": 112
    },
    {
      "midi": 55,
      "hit": false,
      "t": 100714.23200000031,
      "d": 100.44637499999953,
      "v": 112
    },
    {
      "midi": 55,
      "hit": false,
      "t": 101249.9460000003,
      "d": 294.6426999999967,
      "v": 104
    },
    {
      "midi": 52,
      "hit": false,
      "t": 101249.9460000003,
      "d": 301.3391249999986,
      "v": 108
    },
    {
      "midi": 60,
      "hit": false,
      "t": 101249.9460000003,
      "d": 301.3391249999986,
      "v": 112
    },
    {
      "midi": 59,
      "hit": false,
      "t": 101651.7315000003,
      "d": 60.26782500000263,
      "v": 108
    },
    {
      "midi": 62,
      "hit": false,
      "t": 101651.7315000003,
      "d": 78.12495833334106,
      "v": 112
    },
    {
      "midi": 53,
      "hit": false,
      "t": 101651.7315000003,
      "d": 82.58924166667566,
      "v": 104
    },
    {
      "midi": 60,
      "hit": false,
      "t": 103124.94500000031,
      "d": 89.28566666666302,
      "v": 104
    },
    {
      "midi": 69,
      "hit": false,
      "t": 103124.94500000031,
      "d": 89.28566666666302,
      "v": 116
    },
    {
      "midi": 53,
      "hit": false,
      "t": 103124.94500000031,
      "d": 100.44637499999953,
      "v": 88
    },
    {
      "midi": 65,
      "hit": false,
      "t": 103124.94500000031,
      "d": 100.44637499999953,
      "v": 104
    },
    {
      "midi": 57,
      "hit": false,
      "t": 103124.94500000031,
      "d": 111.60708333333605,
      "v": 96
    },
    {
      "midi": 53,
      "hit": false,
      "t": 103526.73050000031,
      "d": 234.37487499999406,
      "v": 92
    },
    {
      "midi": 70,
      "hit": false,
      "t": 103526.73050000031,
      "d": 238.83915833332867,
      "v": 112
    },
    {
      "midi": 65,
      "hit": false,
      "t": 103526.73050000031,
      "d": 245.53558333333058,
      "v": 108
    },
    {
      "midi": 62,
      "hit": false,
      "t": 103526.73050000031,
      "d": 256.6962916666671,
      "v": 104
    },
    {
      "midi": 58,
      "hit": false,
      "t": 103526.73050000031,
      "d": 261.1605750000017,
      "v": 104
    },
    {
      "midi": 53,
      "hit": false,
      "t": 103928.51600000031,
      "d": 133.92849999999453,
      "v": 96
    },
    {
      "midi": 62,
      "hit": false,
      "t": 103928.51600000031,
      "d": 145.08920833333104,
      "v": 104
    },
    {
      "midi": 58,
      "hit": false,
      "t": 103928.51600000031,
      "d": 156.24991666666756,
      "v": 100
    },
    {
      "midi": 65,
      "hit": false,
      "t": 103928.51600000031,
      "d": 156.24991666666756,
      "v": 104
    },
    {
      "midi": 70,
      "hit": false,
      "t": 103928.51600000031,
      "d": 156.24991666666756,
      "v": 112
    },
    {
      "midi": 60,
      "hit": false,
      "t": 104196.37300000031,
      "d": 781.2495833333378,
      "v": 108
    },
    {
      "midi": 53,
      "hit": false,
      "t": 104196.37300000031,
      "d": 792.4102916666743,
      "v": 92
    },
    {
      "midi": 69,
      "hit": false,
      "t": 104196.37300000031,
      "d": 792.4102916666743,
      "v": 104
    },
    {
      "midi": 57,
      "hit": false,
      "t": 104196.37300000031,
      "d": 803.5710000000108,
      "v": 100
    },
    {
      "midi": 65,
      "hit": false,
      "t": 104196.37300000031,
      "d": 803.5710000000108,
      "v": 96
    },
    {
      "midi": 62,
      "hit": false,
      "t": 113571.36800000032,
      "d": 1015.6244583333319,
      "v": 108
    },
    {
      "midi": 67,
      "hit": false,
      "t": 113571.36800000032,
      "d": 1020.0887416666665,
      "v": 108
    },
    {
      "midi": 59,
      "hit": false,
      "t": 113571.36800000032,
      "d": 1037.945875000005,
      "v": 100
    },
    {
      "midi": 59,
      "hit": false,
      "t": 114910.65300000033,
      "d": 223.2141666666721,
      "v": 108
    },
    {
      "midi": 62,
      "hit": false,
      "t": 114910.65300000033,
      "d": 267.8570000000036,
      "v": 108
    },
    {
      "midi": 67,
      "hit": false,
      "t": 115312.43850000032,
      "d": 316.9641166666697,
      "v": 96
    },
    {
      "midi": 62,
      "hit": false,
      "t": 115714.22400000032,
      "d": 618.3032416666538,
      "v": 92
    },
    {
      "midi": 58,
      "hit": false,
      "t": 115714.22400000032,
      "d": 629.4639499999903,
      "v": 92
    },
    {
      "midi": 65,
      "hit": false,
      "t": 115714.22400000032,
      "d": 658.4817916666507,
      "v": 88
    },
    {
      "midi": 69,
      "hit": false,
      "t": 116785.65200000031,
      "d": 66.96425000000454,
      "v": 104
    },
    {
      "midi": 62,
      "hit": false,
      "t": 117857.08000000031,
      "d": 1071.4279999999999,
      "v": 104
    },
    {
      "midi": 69,
      "hit": false,
      "t": 117857.08000000031,
      "d": 1075.8922833333345,
      "v": 112
    },
    {
      "midi": 65,
      "hit": false,
      "t": 117857.08000000031,
      "d": 1082.5887083333364,
      "v": 100
    },
    {
      "midi": 67,
      "hit": false,
      "t": 118928.5080000003,
      "d": 401.78549999999814,
      "v": 108
    },
    {
      "midi": 64,
      "hit": false,
      "t": 118928.5080000003,
      "d": 406.24978333333274,
      "v": 108
    },
    {
      "midi": 60,
      "hit": false,
      "t": 118928.5080000003,
      "d": 417.41049166666926,
      "v": 112
    },
    {
      "midi": 58,
      "hit": false,
      "t": 119999.93600000032,
      "d": 390.6247916666616,
      "v": 92
    },
    {
      "midi": 62,
      "hit": false,
      "t": 119999.93600000032,
      "d": 406.24978333333274,
      "v": 104
    },
    {
      "midi": 65,
      "hit": false,
      "t": 119999.93600000032,
      "d": 412.94620833333465,
      "v": 92
    },
    {
      "midi": 60,
      "hit": false,
      "t": 121071.36400000032,
      "d": 462.05332500000077,
      "v": 104
    },
    {
      "midi": 64,
      "hit": false,
      "t": 121071.36400000032,
      "d": 468.7497500000027,
      "v": 100
    },
    {
      "midi": 67,
      "hit": false,
      "t": 121071.36400000032,
      "d": 495.53544999999576,
      "v": 108
    },
    {
      "midi": 55,
      "hit": false,
      "t": 122142.79200000032,
      "d": 66.96425000000454,
      "v": 112
    },
    {
      "midi": 50,
      "hit": false,
      "t": 122142.79200000032,
      "d": 71.42853333333915,
      "v": 108
    },
    {
      "midi": 59,
      "hit": false,
      "t": 122142.79200000032,
      "d": 78.12495833334106,
      "v": 116
    },
    {
      "midi": 55,
      "hit": false,
      "t": 122678.50600000033,
      "d": 133.92849999999453,
      "v": 104
    },
    {
      "midi": 52,
      "hit": false,
      "t": 122678.50600000033,
      "d": 145.08920833333104,
      "v": 108
    },
    {
      "midi": 60,
      "hit": false,
      "t": 122678.50600000033,
      "d": 149.55349166666565,
      "v": 116
    },
    {
      "midi": 62,
      "hit": false,
      "t": 123080.29150000033,
      "d": 93.74994999999763,
      "v": 108
    },
    {
      "midi": 59,
      "hit": false,
      "t": 123080.29150000033,
      "d": 100.44637499999953,
      "v": 112
    },
    {
      "midi": 53,
      "hit": false,
      "t": 123080.29150000033,
      "d": 116.07136666667066,
      "v": 100
    },
    {
      "midi": 50,
      "hit": false,
      "t": 124553.50500000032,
      "d": 44.64283333333151,
      "v": 108
    },
    {
      "midi": 55,
      "hit": false,
      "t": 124553.50500000032,
      "d": 55.803541666668025,
      "v": 108
    },
    {
      "midi": 59,
      "hit": false,
      "t": 124553.50500000032,
      "d": 60.26782500000263,
      "v": 116
    },
    {
      "midi": 52,
      "hit": false,
      "t": 124955.29050000032,
      "d": 212.05345833333558,
      "v": 88
    },
    {
      "midi": 55,
      "hit": false,
      "t": 124955.29050000032,
      "d": 223.2141666666721,
      "v": 92
    },
    {
      "midi": 60,
      "hit": false,
      "t": 124955.29050000032,
      "d": 238.83915833334322,
      "v": 104
    },
    {
      "midi": 60,
      "hit": false,
      "t": 125357.07600000034,
      "d": 60.26782500000263,
      "v": 112
    },
    {
      "midi": 55,
      "hit": false,
      "t": 125357.07600000034,
      "d": 82.58924166667566,
      "v": 100
    },
    {
      "midi": 64,
      "hit": false,
      "t": 125357.07600000034,
      "d": 82.58924166667566,
      "v": 108
    },
    {
      "midi": 59,
      "hit": false,
      "t": 125624.93300000034,
      "d": 573.6604083333368,
      "v": 104
    },
    {
      "midi": 62,
      "hit": false,
      "t": 125624.93300000034,
      "d": 573.6604083333368,
      "v": 104
    },
    {
      "midi": 53,
      "hit": false,
      "t": 125624.93300000034,
      "d": 584.8211166666733,
      "v": 96
    },
    {
      "midi": 59,
      "hit": false,
      "t": 126428.50400000035,
      "d": 71.42853333333915,
      "v": 112
    },
    {
      "midi": 50,
      "hit": false,
      "t": 126428.50400000035,
      "d": 82.58924166667566,
      "v": 108
    },
    {
      "midi": 55,
      "hit": false,
      "t": 126428.50400000035,
      "d": 82.58924166667566,
      "v": 108
    },
    {
      "midi": 52,
      "hit": false,
      "t": 126964.21800000036,
      "d": 294.6426999999967,
      "v": 104
    },
    {
      "midi": 55,
      "hit": false,
      "t": 126964.21800000036,
      "d": 294.6426999999967,
      "v": 100
    },
    {
      "midi": 60,
      "hit": false,
      "t": 126964.21800000036,
      "d": 305.8034083333332,
      "v": 112
    },
    {
      "midi": 59,
      "hit": false,
      "t": 127366.00350000036,
      "d": 71.42853333333915,
      "v": 108
    },
    {
      "midi": 62,
      "hit": false,
      "t": 127366.00350000036,
      "d": 71.42853333333915,
      "v": 112
    },
    {
      "midi": 53,
      "hit": false,
      "t": 127366.00350000036,
      "d": 82.58924166667566,
      "v": 100
    },
    {
      "midi": 60,
      "hit": false,
      "t": 128839.21700000037,
      "d": 71.42853333333915,
      "v": 100
    },
    {
      "midi": 65,
      "hit": false,
      "t": 128839.21700000037,
      "d": 82.58924166667566,
      "v": 104
    },
    {
      "midi": 69,
      "hit": false,
      "t": 128839.21700000037,
      "d": 82.58924166667566,
      "v": 112
    },
    {
      "midi": 53,
      "hit": false,
      "t": 128839.21700000037,
      "d": 89.28566666667757,
      "v": 88
    },
    {
      "midi": 57,
      "hit": false,
      "t": 128839.21700000037,
      "d": 100.44637500001409,
      "v": 92
    },
    {
      "midi": 53,
      "hit": false,
      "t": 129241.00250000038,
      "d": 249.99986666666518,
      "v": 96
    },
    {
      "midi": 65,
      "hit": false,
      "t": 129241.00250000038,
      "d": 256.6962916666671,
      "v": 108
    },
    {
      "midi": 58,
      "hit": false,
      "t": 129241.00250000038,
      "d": 261.1605750000017,
      "v": 104
    },
    {
      "midi": 70,
      "hit": false,
      "t": 129241.00250000038,
      "d": 261.1605750000017,
      "v": 112
    },
    {
      "midi": 62,
      "hit": false,
      "t": 129241.00250000038,
      "d": 267.8570000000036,
      "v": 104
    },
    {
      "midi": 53,
      "hit": false,
      "t": 129642.78800000038,
      "d": 122.76779166667257,
      "v": 88
    },
    {
      "midi": 65,
      "hit": false,
      "t": 129642.78800000038,
      "d": 122.76779166667257,
      "v": 92
    },
    {
      "midi": 62,
      "hit": false,
      "t": 129642.78800000038,
      "d": 133.92850000000908,
      "v": 92
    },
    {
      "midi": 70,
      "hit": false,
      "t": 129642.78800000038,
      "d": 133.92850000000908,
      "v": 104
    },
    {
      "midi": 58,
      "hit": false,
      "t": 129642.78800000038,
      "d": 145.0892083333456,
      "v": 84
    },
    {
      "midi": 60,
      "hit": false,
      "t": 129910.6450000004,
      "d": 584.8211166666733,
      "v": 100
    },
    {
      "midi": 57,
      "hit": false,
      "t": 129910.6450000004,
      "d": 595.9818250000098,
      "v": 92
    },
    {
      "midi": 53,
      "hit": false,
      "t": 129910.6450000004,
      "d": 602.6782500000118,
      "v": 88
    },
    {
      "midi": 69,
      "hit": false,
      "t": 129910.6450000004,
      "d": 613.8389583333483,
      "v": 104
    },
    {
      "midi": 65,
      "hit": false,
      "t": 129910.6450000004,
      "d": 636.1603750000213,
      "v": 108
    },
    {
      "midi": 50,
      "hit": false,
      "t": 130714.21600000042,
      "d": 55.803541666668025,
      "v": 112
    },
    {
      "midi": 59,
      "hit": false,
      "t": 130714.21600000042,
      "d": 66.96425000000454,
      "v": 116
    },
    {
      "midi": 55,
      "hit": false,
      "t": 130714.21600000042,
      "d": 71.42853333333915,
      "v": 112
    },
    {
      "midi": 52,
      "hit": false,
      "t": 131249.93000000043,
      "d": 249.99986666667974,
      "v": 108
    },
    {
      "midi": 55,
      "hit": false,
      "t": 131249.93000000043,
      "d": 279.0177083333547,
      "v": 100
    },
    {
      "midi": 60,
      "hit": false,
      "t": 131249.93000000043,
      "d": 279.0177083333547,
      "v": 112
    },
    {
      "midi": 59,
      "hit": false,
      "t": 131651.71550000046,
      "d": 49.10711666668067,
      "v": 112
    },
    {
      "midi": 62,
      "hit": false,
      "t": 131651.71550000046,
      "d": 60.26782500001718,
      "v": 116
    },
    {
      "midi": 53,
      "hit": false,
      "t": 131651.71550000046,
      "d": 93.74995000002673,
      "v": 104
    },
    {
      "midi": 55,
      "hit": false,
      "t": 133124.92900000047,
      "d": 55.80354166665347,
      "v": 112
    },
    {
      "midi": 59,
      "hit": false,
      "t": 133124.92900000047,
      "d": 60.26782499998808,
      "v": 120
    },
    {
      "midi": 50,
      "hit": false,
      "t": 133124.92900000047,
      "d": 82.58924166666111,
      "v": 108
    },
    {
      "midi": 55,
      "hit": false,
      "t": 133526.71450000047,
      "d": 178.57133333332604,
      "v": 88
    },
    {
      "midi": 52,
      "hit": false,
      "t": 133526.71450000047,
      "d": 183.03561666666064,
      "v": 92
    },
    {
      "midi": 60,
      "hit": false,
      "t": 133526.71450000047,
      "d": 200.89274999999907,
      "v": 108
    },
    {
      "midi": 60,
      "hit": false,
      "t": 133928.50000000047,
      "d": 78.1249583333265,
      "v": 112
    },
    {
      "midi": 64,
      "hit": false,
      "t": 133928.50000000047,
      "d": 89.28566666666302,
      "v": 108
    },
    {
      "midi": 55,
      "hit": false,
      "t": 133928.50000000047,
      "d": 104.91065833333414,
      "v": 100
    },
    {
      "midi": 62,
      "hit": false,
      "t": 134196.35700000045,
      "d": 591.5175416666607,
      "v": 108
    },
    {
      "midi": 59,
      "hit": false,
      "t": 134196.35700000045,
      "d": 595.9818249999953,
      "v": 108
    },
    {
      "midi": 53,
      "hit": false,
      "t": 134196.35700000045,
      "d": 629.4639500000048,
      "v": 104
    },
    {
      "midi": 59,
      "hit": false,
      "t": 134999.92800000045,
      "d": 78.1249583333265,
      "v": 116
    },
    {
      "midi": 50,
      "hit": false,
      "t": 134999.92800000045,
      "d": 82.58924166666111,
      "v": 112
    },
    {
      "midi": 55,
      "hit": false,
      "t": 134999.92800000045,
      "d": 93.74994999999763,
      "v": 108
    },
    {
      "midi": 52,
      "hit": false,
      "t": 135535.64200000046,
      "d": 227.6784500000067,
      "v": 104
    },
    {
      "midi": 60,
      "hit": false,
      "t": 135535.64200000046,
      "d": 245.53558333334513,
      "v": 112
    },
    {
      "midi": 55,
      "hit": false,
      "t": 135535.64200000046,
      "d": 249.99986666667974,
      "v": 100
    },
    {
      "midi": 59,
      "hit": false,
      "t": 135937.4275000005,
      "d": 66.96424999998999,
      "v": 116
    },
    {
      "midi": 53,
      "hit": false,
      "t": 135937.4275000005,
      "d": 71.4285333333246,
      "v": 104
    },
    {
      "midi": 62,
      "hit": false,
      "t": 135937.4275000005,
      "d": 71.4285333333246,
      "v": 116
    },
    {
      "midi": 69,
      "hit": false,
      "t": 137410.64100000047,
      "d": 71.4285333333246,
      "v": 112
    },
    {
      "midi": 65,
      "hit": false,
      "t": 137410.64100000047,
      "d": 78.1249583333265,
      "v": 108
    },
    {
      "midi": 60,
      "hit": false,
      "t": 137410.64100000047,
      "d": 82.58924166666111,
      "v": 108
    },
    {
      "midi": 53,
      "hit": false,
      "t": 137410.64100000047,
      "d": 93.74994999999763,
      "v": 92
    },
    {
      "midi": 57,
      "hit": false,
      "t": 137410.64100000047,
      "d": 104.91065833333414,
      "v": 96
    },
    {
      "midi": 65,
      "hit": false,
      "t": 137812.42650000047,
      "d": 256.69629166665254,
      "v": 108
    },
    {
      "midi": 70,
      "hit": false,
      "t": 137812.42650000047,
      "d": 261.16057499998715,
      "v": 108
    },
    {
      "midi": 53,
      "hit": false,
      "t": 137812.42650000047,
      "d": 267.85699999998906,
      "v": 96
    },
    {
      "midi": 58,
      "hit": false,
      "t": 137812.42650000047,
      "d": 272.32128333332366,
      "v": 100
    },
    {
      "midi": 62,
      "hit": false,
      "t": 137812.42650000047,
      "d": 272.32128333332366,
      "v": 108
    },
    {
      "midi": 53,
      "hit": false,
      "t": 138214.21200000047,
      "d": 145.0892083333456,
      "v": 92
    },
    {
      "midi": 62,
      "hit": false,
      "t": 138214.21200000047,
      "d": 156.2499166666821,
      "v": 100
    },
    {
      "midi": 65,
      "hit": false,
      "t": 138214.21200000047,
      "d": 160.71420000001672,
      "v": 108
    },
    {
      "midi": 70,
      "hit": false,
      "t": 138214.21200000047,
      "d": 160.71420000001672,
      "v": 104
    },
    {
      "midi": 58,
      "hit": false,
      "t": 138214.21200000047,
      "d": 183.03561666668975,
      "v": 100
    },
    {
      "midi": 60,
      "hit": false,
      "t": 138482.06900000048,
      "d": 562.4996999999858,
      "v": 96
    },
    {
      "midi": 53,
      "hit": false,
      "t": 138482.06900000048,
      "d": 580.3568333333242,
      "v": 84
    },
    {
      "midi": 57,
      "hit": false,
      "t": 138482.06900000048,
      "d": 613.8389583333337,
      "v": 96
    },
    {
      "midi": 69,
      "hit": false,
      "t": 138482.06900000048,
      "d": 691.9639166666602,
      "v": 104
    },
    {
      "midi": 65,
      "hit": false,
      "t": 138482.06900000048,
      "d": 714.2853333333333,
      "v": 96
    },
    {
      "midi": 52,
      "hit": false,
      "t": 139285.64000000048,
      "d": 1975.4453750000102,
      "v": 96
    },
    {
      "midi": 62,
      "hit": false,
      "t": 139285.64000000048,
      "d": 1979.9096583333449,
      "v": 108
    },
    {
      "midi": 55,
      "hit": false,
      "t": 139285.64000000048,
      "d": 1986.6060833333468,
      "v": 92
    },
    {
      "midi": 59,
      "hit": false,
      "t": 139285.64000000048,
      "d": 2013.3917833333544,
      "v": 104
    },
    {
      "midi": 64,
      "hit": false,
      "t": 140624.92500000048,
      "d": 412.94620833333465,
      "v": 108
    },
    {
      "midi": 67,
      "hit": false,
      "t": 140624.92500000048,
      "d": 607.1425333333318,
      "v": 116
    },
    {
      "midi": 71,
      "hit": false,
      "t": 141026.71050000048,
      "d": 379.4640833333542,
      "v": 108
    },
    {
      "midi": 66,
      "hit": false,
      "t": 141428.4960000005,
      "d": 1171.874375000014,
      "v": 112
    },
    {
      "midi": 73,
      "hit": false,
      "t": 141428.4960000005,
      "d": 1249.9993333333405,
      "v": 112
    },
    {
      "midi": 45,
      "hit": false,
      "t": 141428.4960000005,
      "d": 1305.802874999994,
      "v": 88
    },
    {
      "midi": 52,
      "hit": false,
      "t": 141428.4960000005,
      "d": 1305.802874999994,
      "v": 92
    },
    {
      "midi": 55,
      "hit": false,
      "t": 141428.4960000005,
      "d": 1328.124291666667,
      "v": 88
    },
    {
      "midi": 73,
      "hit": false,
      "t": 143035.6380000005,
      "d": 502.2318749999977,
      "v": 112
    },
    {
      "midi": 66,
      "hit": false,
      "t": 143035.6380000005,
      "d": 535.7140000000072,
      "v": 116
    },
    {
      "midi": 55,
      "hit": false,
      "t": 143571.3520000005,
      "d": 495.53544999999576,
      "v": 88
    },
    {
      "midi": 50,
      "hit": false,
      "t": 143571.3520000005,
      "d": 502.2318749999977,
      "v": 88
    },
    {
      "midi": 57,
      "hit": false,
      "t": 143571.3520000005,
      "d": 517.8568666666688,
      "v": 88
    },
    {
      "midi": 60,
      "hit": false,
      "t": 143571.3520000005,
      "d": 517.8568666666688,
      "v": 116
    },
    {
      "midi": 64,
      "hit": false,
      "t": 143571.3520000005,
      "d": 517.8568666666688,
      "v": 116
    },
    {
      "midi": 67,
      "hit": false,
      "t": 143571.3520000005,
      "d": 535.7140000000072,
      "v": 120
    },
    {
      "midi": 69,
      "hit": false,
      "t": 143571.3520000005,
      "d": 535.7140000000072,
      "v": 116
    },
    {
      "midi": 59,
      "hit": false,
      "t": 145982.06500000053,
      "d": 127.23207500000717,
      "v": 124
    },
    {
      "midi": 47,
      "hit": false,
      "t": 145982.06500000053,
      "d": 149.5534916666802,
      "v": 120
    },
    {
      "midi": 60,
      "hit": false,
      "t": 146383.85050000055,
      "d": 316.9641166666697,
      "v": 124
    },
    {
      "midi": 48,
      "hit": false,
      "t": 146383.85050000055,
      "d": 339.28553333334276,
      "v": 112
    },
    {
      "midi": 60,
      "hit": false,
      "t": 146785.63600000055,
      "d": 26.785700000007637,
      "v": 76
    },
    {
      "midi": 50,
      "hit": false,
      "t": 146785.63600000055,
      "d": 283.4819916666602,
      "v": 108
    },
    {
      "midi": 62,
      "hit": false,
      "t": 146785.63600000055,
      "d": 301.3391249999986,
      "v": 112
    },
    {
      "midi": 51,
      "hit": false,
      "t": 147321.35000000056,
      "d": 82.58924166666111,
      "v": 116
    },
    {
      "midi": 63,
      "hit": false,
      "t": 147321.35000000056,
      "d": 127.23207500000717,
      "v": 112
    },
    {
      "midi": 67,
      "hit": false,
      "t": 147455.27850000057,
      "d": 156.2499166666821,
      "v": 96
    },
    {
      "midi": 63,
      "hit": false,
      "t": 147589.20700000058,
      "d": 149.5534916666802,
      "v": 84
    },
    {
      "midi": 64,
      "hit": false,
      "t": 147723.1355000006,
      "d": 808.0352833333309,
      "v": 108
    },
    {
      "midi": 62,
      "hit": false,
      "t": 147723.1355000006,
      "d": 1361.6064166666765,
      "v": 88
    },
    {
      "midi": 59,
      "hit": false,
      "t": 147723.1355000006,
      "d": 1383.9278333333496,
      "v": 108
    },
    {
      "midi": 55,
      "hit": false,
      "t": 147723.1355000006,
      "d": 1399.5528250000207,
      "v": 80
    },
    {
      "midi": 52,
      "hit": false,
      "t": 147723.1355000006,
      "d": 1417.409958333359,
      "v": 92
    },
    {
      "midi": 64,
      "hit": false,
      "t": 149196.3490000006,
      "d": 272.32128333332366,
      "v": 120
    },
    {
      "midi": 74,
      "hit": false,
      "t": 149196.3490000006,
      "d": 301.3391249999986,
      "v": 120
    },
    {
      "midi": 71,
      "hit": false,
      "t": 149598.1345000006,
      "d": 372.7676583333523,
      "v": 112
    },
    {
      "midi": 67,
      "hit": false,
      "t": 149999.92000000062,
      "d": 1026.7851666666684,
      "v": 112
    },
    {
      "midi": 52,
      "hit": false,
      "t": 149999.92000000062,
      "d": 1049.1065833333414,
      "v": 88
    },
    {
      "midi": 59,
      "hit": false,
      "t": 149999.92000000062,
      "d": 1060.267291666678,
      "v": 96
    },
    {
      "midi": 55,
      "hit": false,
      "t": 149999.92000000062,
      "d": 1064.7315750000125,
      "v": 92
    },
    {
      "midi": 60,
      "hit": false,
      "t": 149999.92000000062,
      "d": 1071.4280000000144,
      "v": 112
    },
    {
      "midi": 48,
      "hit": false,
      "t": 149999.92000000062,
      "d": 1098.213700000022,
      "v": 88
    },
    {
      "midi": 71,
      "hit": false,
      "t": 152410.63300000064,
      "d": 116.07136666667066,
      "v": 120
    },
    {
      "midi": 62,
      "hit": false,
      "t": 152410.63300000064,
      "d": 122.76779166667257,
      "v": 112
    },
    {
      "midi": 67,
      "hit": false,
      "t": 152410.63300000064,
      "d": 122.76779166667257,
      "v": 120
    },
    {
      "midi": 67,
      "hit": false,
      "t": 152812.41850000064,
      "d": 272.32128333332366,
      "v": 120
    },
    {
      "midi": 71,
      "hit": false,
      "t": 152812.41850000064,
      "d": 279.0177083333256,
      "v": 116
    },
    {
      "midi": 74,
      "hit": false,
      "t": 152812.41850000064,
      "d": 283.4819916666602,
      "v": 116
    },
    {
      "midi": 76,
      "hit": false,
      "t": 153214.20400000064,
      "d": 781.2495833333232,
      "v": 116
    },
    {
      "midi": 71,
      "hit": false,
      "t": 153214.20400000064,
      "d": 808.0352833333309,
      "v": 120
    },
    {
      "midi": 67,
      "hit": false,
      "t": 153214.20400000064,
      "d": 825.8924166666693,
      "v": 116
    },
    {
      "midi": 69,
      "hit": false,
      "t": 154553.48900000064,
      "d": 71.4285333333246,
      "v": 120
    },
    {
      "midi": 65,
      "hit": false,
      "t": 154553.48900000064,
      "d": 78.1249583333265,
      "v": 116
    },
    {
      "midi": 74,
      "hit": false,
      "t": 154553.48900000064,
      "d": 89.28566666666302,
      "v": 120
    },
    {
      "midi": 76,
      "hit": false,
      "t": 154955.27450000064,
      "d": 145.0892083333456,
      "v": 112
    },
    {
      "midi": 67,
      "hit": false,
      "t": 154955.27450000064,
      "d": 160.71420000001672,
      "v": 116
    },
    {
      "midi": 72,
      "hit": false,
      "t": 154955.27450000064,
      "d": 171.87490833335323,
      "v": 112
    },
    {
      "midi": 70,
      "hit": false,
      "t": 155357.06000000067,
      "d": 881.6959583333519,
      "v": 112
    },
    {
      "midi": 74,
      "hit": false,
      "t": 155357.06000000067,
      "d": 881.6959583333519,
      "v": 112
    },
    {
      "midi": 65,
      "hit": false,
      "t": 155357.06000000067,
      "d": 908.4816583333595,
      "v": 108
    },
    {
      "midi": 59,
      "hit": false,
      "t": 156428.4880000007,
      "d": 55.80354166665347,
      "v": 112
    },
    {
      "midi": 50,
      "hit": false,
      "t": 156428.4880000007,
      "d": 60.26782499998808,
      "v": 112
    },
    {
      "midi": 55,
      "hit": false,
      "t": 156428.4880000007,
      "d": 71.4285333333246,
      "v": 116
    },
    {
      "midi": 52,
      "hit": false,
      "t": 156964.2020000007,
      "d": 171.87490833332413,
      "v": 108
    },
    {
      "midi": 60,
      "hit": false,
      "t": 156964.2020000007,
      "d": 189.73204166666255,
      "v": 120
    },
    {
      "midi": 55,
      "hit": false,
      "t": 156964.2020000007,
      "d": 200.89274999999907,
      "v": 108
    },
    {
      "midi": 62,
      "hit": false,
      "t": 157365.9875000007,
      "d": 66.96424999998999,
      "v": 112
    },
    {
      "midi": 53,
      "hit": false,
      "t": 157365.9875000007,
      "d": 82.58924166666111,
      "v": 108
    },
    {
      "midi": 59,
      "hit": false,
      "t": 157365.9875000007,
      "d": 82.58924166666111,
      "v": 120
    },
    {
      "midi": 59,
      "hit": false,
      "t": 158839.20100000067,
      "d": 71.4285333333246,
      "v": 112
    },
    {
      "midi": 55,
      "hit": false,
      "t": 158839.20100000067,
      "d": 78.1249583333265,
      "v": 116
    },
    {
      "midi": 50,
      "hit": false,
      "t": 158839.20100000067,
      "d": 89.28566666666302,
      "v": 112
    },
    {
      "midi": 52,
      "hit": false,
      "t": 159240.98650000067,
      "d": 212.05345833333558,
      "v": 104
    },
    {
      "midi": 55,
      "hit": false,
      "t": 159240.98650000067,
      "d": 216.5177416666702,
      "v": 108
    },
    {
      "midi": 60,
      "hit": false,
      "t": 159240.98650000067,
      "d": 238.83915833334322,
      "v": 116
    },
    {
      "midi": 60,
      "hit": false,
      "t": 159642.77200000067,
      "d": 82.58924166666111,
      "v": 108
    },
    {
      "midi": 64,
      "hit": false,
      "t": 159642.77200000067,
      "d": 89.28566666666302,
      "v": 112
    },
    {
      "midi": 55,
      "hit": false,
      "t": 159642.77200000067,
      "d": 104.91065833333414,
      "v": 104
    },
    {
      "midi": 53,
      "hit": false,
      "t": 159910.62900000066,
      "d": 573.6604083333223,
      "v": 104
    },
    {
      "midi": 59,
      "hit": false,
      "t": 159910.62900000066,
      "d": 573.6604083333223,
      "v": 112
    },
    {
      "midi": 62,
      "hit": false,
      "t": 159910.62900000066,
      "d": 573.6604083333223,
      "v": 108
    },
    {
      "midi": 50,
      "hit": false,
      "t": 160714.20000000065,
      "d": 60.26782499998808,
      "v": 112
    },
    {
      "midi": 59,
      "hit": false,
      "t": 160714.20000000065,
      "d": 60.26782499998808,
      "v": 116
    },
    {
      "midi": 55,
      "hit": false,
      "t": 160714.20000000065,
      "d": 71.4285333333246,
      "v": 112
    },
    {
      "midi": 52,
      "hit": false,
      "t": 161249.91400000063,
      "d": 301.3391249999986,
      "v": 104
    },
    {
      "midi": 55,
      "hit": false,
      "t": 161249.91400000063,
      "d": 301.3391249999986,
      "v": 104
    },
    {
      "midi": 60,
      "hit": false,
      "t": 161249.91400000063,
      "d": 305.8034083333332,
      "v": 116
    },
    {
      "midi": 59,
      "hit": false,
      "t": 161651.69950000063,
      "d": 55.80354166665347,
      "v": 108
    },
    {
      "midi": 53,
      "hit": false,
      "t": 161651.69950000063,
      "d": 71.4285333333246,
      "v": 100
    },
    {
      "midi": 62,
      "hit": false,
      "t": 161651.69950000063,
      "d": 71.4285333333246,
      "v": 112
    },
    {
      "midi": 60,
      "hit": false,
      "t": 163124.9130000006,
      "d": 78.1249583333265,
      "v": 108
    },
    {
      "midi": 69,
      "hit": false,
      "t": 163124.9130000006,
      "d": 78.1249583333265,
      "v": 112
    },
    {
      "midi": 53,
      "hit": false,
      "t": 163124.9130000006,
      "d": 82.58924166666111,
      "v": 92
    },
    {
      "midi": 65,
      "hit": false,
      "t": 163124.9130000006,
      "d": 93.74994999999763,
      "v": 104
    },
    {
      "midi": 57,
      "hit": false,
      "t": 163124.9130000006,
      "d": 100.44637499999953,
      "v": 96
    },
    {
      "midi": 53,
      "hit": false,
      "t": 163526.6985000006,
      "d": 216.5177416666702,
      "v": 96
    },
    {
      "midi": 70,
      "hit": false,
      "t": 163526.6985000006,
      "d": 223.2141666666721,
      "v": 108
    },
    {
      "midi": 62,
      "hit": false,
      "t": 163526.6985000006,
      "d": 227.6784500000067,
      "v": 96
    },
    {
      "midi": 58,
      "hit": false,
      "t": 163526.6985000006,
      "d": 234.37487500000861,
      "v": 100
    },
    {
      "midi": 65,
      "hit": false,
      "t": 163526.6985000006,
      "d": 238.83915833334322,
      "v": 104
    },
    {
      "midi": 53,
      "hit": false,
      "t": 163928.4840000006,
      "d": 100.44637499999953,
      "v": 88
    },
    {
      "midi": 62,
      "hit": false,
      "t": 163928.4840000006,
      "d": 111.60708333333605,
      "v": 104
    },
    {
      "midi": 58,
      "hit": false,
      "t": 163928.4840000006,
      "d": 122.76779166667257,
      "v": 104
    },
    {
      "midi": 70,
      "hit": false,
      "t": 163928.4840000006,
      "d": 122.76779166667257,
      "v": 108
    },
    {
      "midi": 65,
      "hit": false,
      "t": 163928.4840000006,
      "d": 127.23207500000717,
      "v": 108
    },
    {
      "midi": 60,
      "hit": false,
      "t": 164196.34100000063,
      "d": 580.3568333333242,
      "v": 112
    },
    {
      "midi": 69,
      "hit": false,
      "t": 164196.34100000063,
      "d": 584.8211166666588,
      "v": 112
    },
    {
      "midi": 53,
      "hit": false,
      "t": 164196.34100000063,
      "d": 595.9818249999953,
      "v": 92
    },
    {
      "midi": 57,
      "hit": false,
      "t": 164196.34100000063,
      "d": 595.9818249999953,
      "v": 104
    },
    {
      "midi": 65,
      "hit": false,
      "t": 164196.34100000063,
      "d": 629.4639500000048,
      "v": 104
    },
    {
      "midi": 50,
      "hit": false,
      "t": 164999.91200000062,
      "d": 49.10711666668067,
      "v": 108
    },
    {
      "midi": 59,
      "hit": false,
      "t": 164999.91200000062,
      "d": 60.26782500001718,
      "v": 108
    },
    {
      "midi": 55,
      "hit": false,
      "t": 164999.91200000062,
      "d": 82.58924166669021,
      "v": 104
    },
    {
      "midi": 52,
      "hit": false,
      "t": 165535.62600000066,
      "d": 294.6426999999967,
      "v": 108
    },
    {
      "midi": 55,
      "hit": false,
      "t": 165535.62600000066,
      "d": 305.8034083333332,
      "v": 104
    },
    {
      "midi": 60,
      "hit": false,
      "t": 165535.62600000066,
      "d": 305.8034083333332,
      "v": 116
    },
    {
      "midi": 59,
      "hit": false,
      "t": 165937.41150000066,
      "d": 66.96424999998999,
      "v": 112
    },
    {
      "midi": 62,
      "hit": false,
      "t": 165937.41150000066,
      "d": 71.4285333333246,
      "v": 112
    },
    {
      "midi": 53,
      "hit": false,
      "t": 165937.41150000066,
      "d": 82.58924166666111,
      "v": 104
    },
    {
      "midi": 50,
      "hit": false,
      "t": 167410.62500000064,
      "d": 55.80354166665347,
      "v": 108
    },
    {
      "midi": 59,
      "hit": false,
      "t": 167410.62500000064,
      "d": 55.80354166665347,
      "v": 116
    },
    {
      "midi": 55,
      "hit": false,
      "t": 167410.62500000064,
      "d": 60.26782499998808,
      "v": 116
    },
    {
      "midi": 52,
      "hit": false,
      "t": 167812.41050000064,
      "d": 216.5177416666702,
      "v": 104
    },
    {
      "midi": 55,
      "hit": false,
      "t": 167812.41050000064,
      "d": 234.37487500000861,
      "v": 92
    },
    {
      "midi": 60,
      "hit": false,
      "t": 167812.41050000064,
      "d": 238.83915833334322,
      "v": 112
    },
    {
      "midi": 60,
      "hit": false,
      "t": 168214.19600000064,
      "d": 60.26782499998808,
      "v": 112
    },
    {
      "midi": 64,
      "hit": false,
      "t": 168214.19600000064,
      "d": 89.28566666666302,
      "v": 116
    },
    {
      "midi": 55,
      "hit": false,
      "t": 168214.19600000064,
      "d": 104.91065833333414,
      "v": 100
    },
    {
      "midi": 62,
      "hit": false,
      "t": 168482.05300000063,
      "d": 517.8568666666688,
      "v": 108
    },
    {
      "midi": 59,
      "hit": false,
      "t": 168482.05300000063,
      "d": 524.5532916666707,
      "v": 108
    },
    {
      "midi": 53,
      "hit": false,
      "t": 168482.05300000063,
      "d": 551.3389916666783,
      "v": 96
    },
    {
      "midi": 50,
      "hit": false,
      "t": 169285.62400000065,
      "d": 55.80354166665347,
      "v": 112
    },
    {
      "midi": 59,
      "hit": false,
      "t": 169285.62400000065,
      "d": 55.80354166665347,
      "v": 116
    },
    {
      "midi": 55,
      "hit": false,
      "t": 169285.62400000065,
      "d": 71.4285333333246,
      "v": 112
    },
    {
      "midi": 55,
      "hit": false,
      "t": 169821.33800000063,
      "d": 261.16057499998715,
      "v": 104
    },
    {
      "midi": 60,
      "hit": false,
      "t": 169821.33800000063,
      "d": 267.85699999998906,
      "v": 112
    },
    {
      "midi": 52,
      "hit": false,
      "t": 169821.33800000063,
      "d": 279.0177083333256,
      "v": 108
    },
    {
      "midi": 59,
      "hit": false,
      "t": 170223.12350000063,
      "d": 60.26782499998808,
      "v": 112
    },
    {
      "midi": 62,
      "hit": false,
      "t": 170223.12350000063,
      "d": 71.4285333333246,
      "v": 112
    },
    {
      "midi": 53,
      "hit": false,
      "t": 170223.12350000063,
      "d": 89.28566666666302,
      "v": 104
    },
    {
      "midi": 60,
      "hit": false,
      "t": 171696.3370000006,
      "d": 78.1249583333265,
      "v": 108
    },
    {
      "midi": 69,
      "hit": false,
      "t": 171696.3370000006,
      "d": 82.58924166666111,
      "v": 116
    },
    {
      "midi": 53,
      "hit": false,
      "t": 171696.3370000006,
      "d": 89.28566666666302,
      "v": 92
    },
    {
      "midi": 57,
      "hit": false,
      "t": 171696.3370000006,
      "d": 100.44637499999953,
      "v": 104
    },
    {
      "midi": 65,
      "hit": false,
      "t": 171696.3370000006,
      "d": 100.44637499999953,
      "v": 108
    },
    {
      "midi": 53,
      "hit": false,
      "t": 172098.1225000006,
      "d": 216.5177416666702,
      "v": 92
    },
    {
      "midi": 70,
      "hit": false,
      "t": 172098.1225000006,
      "d": 238.83915833334322,
      "v": 108
    },
    {
      "midi": 62,
      "hit": false,
      "t": 172098.1225000006,
      "d": 245.53558333334513,
      "v": 100
    },
    {
      "midi": 65,
      "hit": false,
      "t": 172098.1225000006,
      "d": 245.53558333334513,
      "v": 104
    },
    {
      "midi": 58,
      "hit": false,
      "t": 172098.1225000006,
      "d": 256.69629166668165,
      "v": 104
    },
    {
      "midi": 53,
      "hit": false,
      "t": 172499.90800000064,
      "d": 104.91065833333414,
      "v": 96
    },
    {
      "midi": 70,
      "hit": false,
      "t": 172499.90800000064,
      "d": 122.76779166667257,
      "v": 112
    },
    {
      "midi": 65,
      "hit": false,
      "t": 172499.90800000064,
      "d": 133.92850000000908,
      "v": 104
    },
    {
      "midi": 62,
      "hit": false,
      "t": 172499.90800000064,
      "d": 138.3927833333437,
      "v": 108
    },
    {
      "midi": 58,
      "hit": false,
      "t": 172499.90800000064,
      "d": 145.0892083333456,
      "v": 100
    },
    {
      "midi": 60,
      "hit": false,
      "t": 172767.76500000065,
      "d": 774.5531583333213,
      "v": 104
    },
    {
      "midi": 53,
      "hit": false,
      "t": 172767.76500000065,
      "d": 792.4102916666598,
      "v": 80
    },
    {
      "midi": 69,
      "hit": false,
      "t": 172767.76500000065,
      "d": 803.5709999999963,
      "v": 104
    },
    {
      "midi": 57,
      "hit": false,
      "t": 172767.76500000065,
      "d": 808.0352833333309,
      "v": 96
    },
    {
      "midi": 65,
      "hit": false,
      "t": 172767.76500000065,
      "d": 808.0352833333309,
      "v": 100
    },
    {
      "midi": 67,
      "hit": false,
      "t": 182142.76000000065,
      "d": 852.6781166666769,
      "v": 108
    },
    {
      "midi": 62,
      "hit": false,
      "t": 182142.76000000065,
      "d": 863.8388250000135,
      "v": 108
    },
    {
      "midi": 59,
      "hit": false,
      "t": 182142.76000000065,
      "d": 904.0173750000249,
      "v": 100
    },
    {
      "midi": 62,
      "hit": false,
      "t": 184285.61600000068,
      "d": 803.5709999999963,
      "v": 108
    },
    {
      "midi": 65,
      "hit": false,
      "t": 184285.61600000068,
      "d": 808.0352833333309,
      "v": 100
    },
    {
      "midi": 58,
      "hit": false,
      "t": 184285.61600000068,
      "d": 814.7317083333328,
      "v": 100
    },
    {
      "midi": 69,
      "hit": false,
      "t": 186428.47200000068,
      "d": 439.7319083333423,
      "v": 112
    },
    {
      "midi": 62,
      "hit": false,
      "t": 186428.47200000068,
      "d": 468.74975000001723,
      "v": 108
    },
    {
      "midi": 65,
      "hit": false,
      "t": 186428.47200000068,
      "d": 479.91045833335374,
      "v": 100
    },
    {
      "midi": 64,
      "hit": false,
      "t": 187499.90000000072,
      "d": 379.4640833333542,
      "v": 108
    },
    {
      "midi": 67,
      "hit": false,
      "t": 187499.90000000072,
      "d": 379.4640833333542,
      "v": 108
    },
    {
      "midi": 60,
      "hit": false,
      "t": 187499.90000000072,
      "d": 401.78550000002724,
      "v": 112
    },
    {
      "midi": 58,
      "hit": false,
      "t": 188571.32800000074,
      "d": 424.10691666667117,
      "v": 92
    },
    {
      "midi": 62,
      "hit": false,
      "t": 188571.32800000074,
      "d": 435.2676250000077,
      "v": 100
    },
    {
      "midi": 65,
      "hit": false,
      "t": 188571.32800000074,
      "d": 446.4283333333442,
      "v": 88
    },
    {
      "midi": 60,
      "hit": false,
      "t": 189642.75600000075,
      "d": 339.28553333334276,
      "v": 104
    },
    {
      "midi": 64,
      "hit": false,
      "t": 189642.75600000075,
      "d": 345.98195833334466,
      "v": 100
    },
    {
      "midi": 67,
      "hit": false,
      "t": 189642.75600000075,
      "d": 357.1426666666812,
      "v": 104
    },
    {
      "midi": 55,
      "hit": false,
      "t": 190714.18400000077,
      "d": 66.96424999998999,
      "v": 108
    },
    {
      "midi": 59,
      "hit": false,
      "t": 190714.18400000077,
      "d": 71.4285333333246,
      "v": 112
    },
    {
      "midi": 50,
      "hit": false,
      "t": 190714.18400000077,
      "d": 78.1249583333265,
      "v": 112
    },
    {
      "midi": 55,
      "hit": false,
      "t": 191249.89800000077,
      "d": 267.85699999998906,
      "v": 104
    },
    {
      "midi": 60,
      "hit": false,
      "t": 191249.89800000077,
      "d": 290.1784166666621,
      "v": 112
    },
    {
      "midi": 52,
      "hit": false,
      "t": 191249.89800000077,
      "d": 294.6426999999967,
      "v": 104
    },
    {
      "midi": 59,
      "hit": false,
      "t": 191651.68350000077,
      "d": 71.4285333333246,
      "v": 120
    },
    {
      "midi": 62,
      "hit": false,
      "t": 191651.68350000077,
      "d": 78.1249583333265,
      "v": 112
    },
    {
      "midi": 53,
      "hit": false,
      "t": 191651.68350000077,
      "d": 89.28566666666302,
      "v": 104
    },
    {
      "midi": 55,
      "hit": false,
      "t": 193124.89700000075,
      "d": 71.4285333333246,
      "v": 108
    },
    {
      "midi": 50,
      "hit": false,
      "t": 193124.89700000075,
      "d": 78.1249583333265,
      "v": 108
    },
    {
      "midi": 59,
      "hit": false,
      "t": 193124.89700000075,
      "d": 82.58924166666111,
      "v": 116
    },
    {
      "midi": 55,
      "hit": false,
      "t": 193526.68250000075,
      "d": 212.05345833333558,
      "v": 96
    },
    {
      "midi": 52,
      "hit": false,
      "t": 193526.68250000075,
      "d": 216.5177416666702,
      "v": 96
    },
    {
      "midi": 60,
      "hit": false,
      "t": 193526.68250000075,
      "d": 227.6784500000067,
      "v": 112
    },
    {
      "midi": 60,
      "hit": false,
      "t": 193928.46800000075,
      "d": 82.58924166666111,
      "v": 108
    },
    {
      "midi": 64,
      "hit": false,
      "t": 193928.46800000075,
      "d": 89.28566666666302,
      "v": 112
    },
    {
      "midi": 55,
      "hit": false,
      "t": 193928.46800000075,
      "d": 111.60708333333605,
      "v": 96
    },
    {
      "midi": 62,
      "hit": false,
      "t": 194196.32500000074,
      "d": 558.0354166666802,
      "v": 112
    },
    {
      "midi": 59,
      "hit": false,
      "t": 194196.32500000074,
      "d": 562.4997000000149,
      "v": 112
    },
    {
      "midi": 53,
      "hit": false,
      "t": 194196.32500000074,
      "d": 591.5175416666898,
      "v": 104
    },
    {
      "midi": 50,
      "hit": false,
      "t": 194999.89600000076,
      "d": 78.1249583333265,
      "v": 108
    },
    {
      "midi": 59,
      "hit": false,
      "t": 194999.89600000076,
      "d": 78.1249583333265,
      "v": 116
    },
    {
      "midi": 55,
      "hit": false,
      "t": 194999.89600000076,
      "d": 100.44637499999953,
      "v": 112
    },
    {
      "midi": 52,
      "hit": false,
      "t": 195535.61000000077,
      "d": 272.32128333332366,
      "v": 108
    },
    {
      "midi": 55,
      "hit": false,
      "t": 195535.61000000077,
      "d": 272.32128333332366,
      "v": 108
    },
    {
      "midi": 60,
      "hit": false,
      "t": 195535.61000000077,
      "d": 290.1784166666621,
      "v": 116
    },
    {
      "midi": 59,
      "hit": false,
      "t": 195937.39550000077,
      "d": 66.96424999998999,
      "v": 112
    },
    {
      "midi": 62,
      "hit": false,
      "t": 195937.39550000077,
      "d": 78.1249583333265,
      "v": 116
    },
    {
      "midi": 53,
      "hit": false,
      "t": 195937.39550000077,
      "d": 89.28566666666302,
      "v": 100
    },
    {
      "midi": 60,
      "hit": false,
      "t": 197410.60900000075,
      "d": 71.4285333333246,
      "v": 116
    },
    {
      "midi": 69,
      "hit": false,
      "t": 197410.60900000075,
      "d": 89.28566666666302,
      "v": 120
    },
    {
      "midi": 65,
      "hit": false,
      "t": 197410.60900000075,
      "d": 100.44637499999953,
      "v": 108
    },
    {
      "midi": 53,
      "hit": false,
      "t": 197410.60900000075,
      "d": 104.91065833333414,
      "v": 96
    },
    {
      "midi": 57,
      "hit": false,
      "t": 197410.60900000075,
      "d": 111.60708333333605,
      "v": 100
    },
    {
      "midi": 53,
      "hit": false,
      "t": 197812.39450000075,
      "d": 249.99986666667974,
      "v": 100
    },
    {
      "midi": 58,
      "hit": false,
      "t": 197812.39450000075,
      "d": 249.99986666667974,
      "v": 104
    },
    {
      "midi": 62,
      "hit": false,
      "t": 197812.39450000075,
      "d": 249.99986666667974,
      "v": 108
    },
    {
      "midi": 65,
      "hit": false,
      "t": 197812.39450000075,
      "d": 249.99986666667974,
      "v": 108
    },
    {
      "midi": 70,
      "hit": false,
      "t": 197812.39450000075,
      "d": 256.69629166668165,
      "v": 112
    },
    {
      "midi": 53,
      "hit": false,
      "t": 198214.18000000078,
      "d": 100.44637499999953,
      "v": 88
    },
    {
      "midi": 65,
      "hit": false,
      "t": 198214.18000000078,
      "d": 127.23207500000717,
      "v": 92
    },
    {
      "midi": 70,
      "hit": false,
      "t": 198214.18000000078,
      "d": 133.92850000000908,
      "v": 104
    },
    {
      "midi": 62,
      "hit": false,
      "t": 198214.18000000078,
      "d": 138.3927833333437,
      "v": 96
    },
    {
      "midi": 58,
      "hit": false,
      "t": 198214.18000000078,
      "d": 145.0892083333456,
      "v": 88
    },
    {
      "midi": 60,
      "hit": false,
      "t": 198482.0370000008,
      "d": 602.6782499999972,
      "v": 100
    },
    {
      "midi": 57,
      "hit": false,
      "t": 198482.0370000008,
      "d": 607.1425333333318,
      "v": 96
    },
    {
      "midi": 53,
      "hit": false,
      "t": 198482.0370000008,
      "d": 624.9996666666702,
      "v": 88
    },
    {
      "midi": 69,
      "hit": false,
      "t": 198482.0370000008,
      "d": 640.6246583333414,
      "v": 112
    },
    {
      "midi": 65,
      "hit": false,
      "t": 198482.0370000008,
      "d": 651.7853666666779,
      "v": 104
    },
    {
      "midi": 59,
      "hit": false,
      "t": 199285.60800000082,
      "d": 55.80354166665347,
      "v": 116
    },
    {
      "midi": 50,
      "hit": false,
      "t": 199285.60800000082,
      "d": 60.26782499998808,
      "v": 112
    },
    {
      "midi": 55,
      "hit": false,
      "t": 199285.60800000082,
      "d": 66.96424999998999,
      "v": 112
    },
    {
      "midi": 52,
      "hit": false,
      "t": 199821.3220000008,
      "d": 312.4998333333351,
      "v": 108
    },
    {
      "midi": 55,
      "hit": false,
      "t": 199821.3220000008,
      "d": 323.66054166667163,
      "v": 108
    },
    {
      "midi": 60,
      "hit": false,
      "t": 199821.3220000008,
      "d": 334.82125000000815,
      "v": 116
    },
    {
      "midi": 59,
      "hit": false,
      "t": 200223.1075000008,
      "d": 71.4285333333246,
      "v": 112
    },
    {
      "midi": 62,
      "hit": false,
      "t": 200223.1075000008,
      "d": 78.1249583333265,
      "v": 116
    },
    {
      "midi": 53,
      "hit": false,
      "t": 200223.1075000008,
      "d": 82.58924166666111,
      "v": 108
    },
    {
      "midi": 55,
      "hit": false,
      "t": 201696.32100000078,
      "d": 78.1249583333265,
      "v": 112
    },
    {
      "midi": 50,
      "hit": false,
      "t": 201696.32100000078,
      "d": 89.28566666666302,
      "v": 112
    },
    {
      "midi": 59,
      "hit": false,
      "t": 201696.32100000078,
      "d": 89.28566666666302,
      "v": 116
    },
    {
      "midi": 52,
      "hit": false,
      "t": 202098.10650000078,
      "d": 223.2141666666721,
      "v": 96
    },
    {
      "midi": 55,
      "hit": false,
      "t": 202098.10650000078,
      "d": 234.37487500000861,
      "v": 96
    },
    {
      "midi": 60,
      "hit": false,
      "t": 202098.10650000078,
      "d": 245.53558333334513,
      "v": 112
    },
    {
      "midi": 60,
      "hit": false,
      "t": 202499.89200000078,
      "d": 71.4285333333246,
      "v": 112
    },
    {
      "midi": 64,
      "hit": false,
      "t": 202499.89200000078,
      "d": 82.58924166666111,
      "v": 112
    },
    {
      "midi": 55,
      "hit": false,
      "t": 202499.89200000078,
      "d": 93.74994999999763,
      "v": 96
    },
    {
      "midi": 62,
      "hit": false,
      "t": 202767.74900000077,
      "d": 569.1961249999877,
      "v": 112
    },
    {
      "midi": 59,
      "hit": false,
      "t": 202767.74900000077,
      "d": 580.3568333333242,
      "v": 112
    },
    {
      "midi": 53,
      "hit": false,
      "t": 202767.74900000077,
      "d": 602.6782499999972,
      "v": 100
    },
    {
      "midi": 59,
      "hit": false,
      "t": 203571.32000000076,
      "d": 60.26782499998808,
      "v": 112
    },
    {
      "midi": 50,
      "hit": false,
      "t": 203571.32000000076,
      "d": 89.28566666666302,
      "v": 112
    },
    {
      "midi": 55,
      "hit": false,
      "t": 203571.32000000076,
      "d": 122.76779166667257,
      "v": 112
    },
    {
      "midi": 55,
      "hit": false,
      "t": 204107.03400000077,
      "d": 283.4819916666602,
      "v": 108
    },
    {
      "midi": 52,
      "hit": false,
      "t": 204107.03400000077,
      "d": 290.1784166666621,
      "v": 108
    },
    {
      "midi": 60,
      "hit": false,
      "t": 204107.03400000077,
      "d": 301.3391249999986,
      "v": 120
    },
    {
      "midi": 59,
      "hit": false,
      "t": 204508.81950000077,
      "d": 66.96424999998999,
      "v": 112
    },
    {
      "midi": 62,
      "hit": false,
      "t": 204508.81950000077,
      "d": 78.1249583333265,
      "v": 112
    },
    {
      "midi": 53,
      "hit": false,
      "t": 204508.81950000077,
      "d": 82.58924166666111,
      "v": 104
    },
    {
      "midi": 60,
      "hit": false,
      "t": 205982.03300000075,
      "d": 60.26782499998808,
      "v": 108
    },
    {
      "midi": 69,
      "hit": false,
      "t": 205982.03300000075,
      "d": 71.4285333333246,
      "v": 112
    },
    {
      "midi": 65,
      "hit": false,
      "t": 205982.03300000075,
      "d": 78.1249583333265,
      "v": 108
    },
    {
      "midi": 53,
      "hit": false,
      "t": 205982.03300000075,
      "d": 89.28566666666302,
      "v": 96
    },
    {
      "midi": 57,
      "hit": false,
      "t": 205982.03300000075,
      "d": 104.91065833333414,
      "v": 100
    },
    {
      "midi": 53,
      "hit": false,
      "t": 206383.81850000075,
      "d": 205.35703333333367,
      "v": 92
    },
    {
      "midi": 70,
      "hit": false,
      "t": 206383.81850000075,
      "d": 212.05345833333558,
      "v": 104
    },
    {
      "midi": 65,
      "hit": false,
      "t": 206383.81850000075,
      "d": 223.2141666666721,
      "v": 104
    },
    {
      "midi": 58,
      "hit": false,
      "t": 206383.81850000075,
      "d": 234.37487500000861,
      "v": 104
    },
    {
      "midi": 62,
      "hit": false,
      "t": 206383.81850000075,
      "d": 234.37487500000861,
      "v": 100
    },
    {
      "midi": 53,
      "hit": false,
      "t": 206785.60400000075,
      "d": 104.91065833333414,
      "v": 88
    },
    {
      "midi": 70,
      "hit": false,
      "t": 206785.60400000075,
      "d": 122.76779166667257,
      "v": 104
    },
    {
      "midi": 65,
      "hit": false,
      "t": 206785.60400000075,
      "d": 127.23207500000717,
      "v": 96
    },
    {
      "midi": 58,
      "hit": false,
      "t": 206785.60400000075,
      "d": 133.92850000000908,
      "v": 100
    },
    {
      "midi": 62,
      "hit": false,
      "t": 206785.60400000075,
      "d": 133.92850000000908,
      "v": 96
    },
    {
      "midi": 60,
      "hit": false,
      "t": 207053.46100000077,
      "d": 602.6782499999972,
      "v": 108
    },
    {
      "midi": 57,
      "hit": false,
      "t": 207053.46100000077,
      "d": 613.8389583333337,
      "v": 92
    },
    {
      "midi": 53,
      "hit": false,
      "t": 207053.46100000077,
      "d": 624.9996666666702,
      "v": 88
    },
    {
      "midi": 69,
      "hit": false,
      "t": 207053.46100000077,
      "d": 624.9996666666702,
      "v": 108
    },
    {
      "midi": 65,
      "hit": false,
      "t": 207053.46100000077,
      "d": 636.1603750000068,
      "v": 100
    },
    {
      "midi": 50,
      "hit": false,
      "t": 207857.03200000076,
      "d": 60.26782499998808,
      "v": 108
    },
    {
      "midi": 55,
      "hit": false,
      "t": 207857.03200000076,
      "d": 66.96424999998999,
      "v": 108
    },
    {
      "midi": 59,
      "hit": false,
      "t": 207857.03200000076,
      "d": 66.96424999998999,
      "v": 112
    },
    {
      "midi": 52,
      "hit": false,
      "t": 208392.74600000074,
      "d": 312.4998333333351,
      "v": 104
    },
    {
      "midi": 55,
      "hit": false,
      "t": 208392.74600000074,
      "d": 323.66054166667163,
      "v": 108
    },
    {
      "midi": 60,
      "hit": false,
      "t": 208392.74600000074,
      "d": 328.12482500000624,
      "v": 112
    },
    {
      "midi": 60,
      "hit": false,
      "t": 208794.53150000074,
      "d": 33.482125000009546,
      "v": 84
    },
    {
      "midi": 62,
      "hit": false,
      "t": 208794.53150000074,
      "d": 78.12495833335561,
      "v": 112
    },
    {
      "midi": 59,
      "hit": false,
      "t": 208794.53150000074,
      "d": 89.28566666669212,
      "v": 104
    },
    {
      "midi": 53,
      "hit": false,
      "t": 208794.53150000074,
      "d": 104.91065833336324,
      "v": 104
    },
    {
      "midi": 79,
      "hit": false,
      "t": 209732.03100000077,
      "d": 78.1249583333265,
      "v": 112
    },
    {
      "midi": 67,
      "hit": false,
      "t": 209732.03100000077,
      "d": 82.58924166666111,
      "v": 116
    },
    {
      "midi": 67,
      "hit": false,
      "t": 209865.95950000075,
      "d": 93.74994999999763,
      "v": 96
    },
    {
      "midi": 79,
      "hit": false,
      "t": 209865.95950000075,
      "d": 116.07136666667066,
      "v": 104
    },
    {
      "midi": 59,
      "hit": false,
      "t": 210267.74500000075,
      "d": 82.58924166666111,
      "v": 116
    },
    {
      "midi": 55,
      "hit": false,
      "t": 210267.74500000075,
      "d": 89.28566666666302,
      "v": 112
    },
    {
      "midi": 50,
      "hit": false,
      "t": 210267.74500000075,
      "d": 93.74994999999763,
      "v": 108
    },
    {
      "midi": 52,
      "hit": false,
      "t": 210669.53050000075,
      "d": 223.2141666666721,
      "v": 96
    },
    {
      "midi": 60,
      "hit": false,
      "t": 210669.53050000075,
      "d": 238.83915833334322,
      "v": 112
    },
    {
      "midi": 55,
      "hit": false,
      "t": 210669.53050000075,
      "d": 245.53558333334513,
      "v": 96
    },
    {
      "midi": 60,
      "hit": false,
      "t": 211071.31600000075,
      "d": 82.58924166666111,
      "v": 116
    },
    {
      "midi": 64,
      "hit": false,
      "t": 211071.31600000075,
      "d": 89.28566666666302,
      "v": 112
    },
    {
      "midi": 55,
      "hit": false,
      "t": 211071.31600000075,
      "d": 104.91065833333414,
      "v": 104
    },
    {
      "midi": 62,
      "hit": false,
      "t": 211339.17300000074,
      "d": 580.3568333333242,
      "v": 108
    },
    {
      "midi": 59,
      "hit": false,
      "t": 211339.17300000074,
      "d": 584.8211166666588,
      "v": 108
    },
    {
      "midi": 53,
      "hit": false,
      "t": 211339.17300000074,
      "d": 595.9818249999953,
      "v": 104
    },
    {
      "midi": 48,
      "hit": false,
      "t": 212142.74400000073,
      "d": 33.482125000009546,
      "v": 64
    },
    {
      "midi": 55,
      "hit": false,
      "t": 212142.74400000073,
      "d": 82.58924166669021,
      "v": 108
    },
    {
      "midi": 59,
      "hit": false,
      "t": 212142.74400000073,
      "d": 82.58924166669021,
      "v": 108
    },
    {
      "midi": 50,
      "hit": false,
      "t": 212142.74400000073,
      "d": 89.28566666669212,
      "v": 108
    },
    {
      "midi": 52,
      "hit": false,
      "t": 212678.45800000077,
      "d": 261.16057499998715,
      "v": 108
    },
    {
      "midi": 55,
      "hit": false,
      "t": 212678.45800000077,
      "d": 267.85699999998906,
      "v": 104
    },
    {
      "midi": 60,
      "hit": false,
      "t": 212678.45800000077,
      "d": 267.85699999998906,
      "v": 116
    },
    {
      "midi": 59,
      "hit": false,
      "t": 213080.24350000077,
      "d": 66.96424999998999,
      "v": 112
    },
    {
      "midi": 62,
      "hit": false,
      "t": 213080.24350000077,
      "d": 71.4285333333246,
      "v": 112
    },
    {
      "midi": 53,
      "hit": false,
      "t": 213080.24350000077,
      "d": 82.58924166666111,
      "v": 100
    },
    {
      "midi": 60,
      "hit": false,
      "t": 214553.45700000075,
      "d": 82.58924166666111,
      "v": 116
    },
    {
      "midi": 69,
      "hit": false,
      "t": 214553.45700000075,
      "d": 89.28566666666302,
      "v": 112
    },
    {
      "midi": 53,
      "hit": false,
      "t": 214553.45700000075,
      "d": 93.74994999999763,
      "v": 96
    },
    {
      "midi": 57,
      "hit": false,
      "t": 214553.45700000075,
      "d": 104.91065833333414,
      "v": 96
    },
    {
      "midi": 65,
      "hit": false,
      "t": 214553.45700000075,
      "d": 104.91065833333414,
      "v": 104
    },
    {
      "midi": 53,
      "hit": false,
      "t": 214955.24250000075,
      "d": 194.19632499999716,
      "v": 96
    },
    {
      "midi": 70,
      "hit": false,
      "t": 214955.24250000075,
      "d": 205.35703333333367,
      "v": 108
    },
    {
      "midi": 65,
      "hit": false,
      "t": 214955.24250000075,
      "d": 212.05345833333558,
      "v": 108
    },
    {
      "midi": 58,
      "hit": false,
      "t": 214955.24250000075,
      "d": 223.2141666666721,
      "v": 104
    },
    {
      "midi": 62,
      "hit": false,
      "t": 214955.24250000075,
      "d": 223.2141666666721,
      "v": 104
    },
    {
      "midi": 70,
      "hit": false,
      "t": 215357.02800000075,
      "d": 104.91065833333414,
      "v": 112
    },
    {
      "midi": 65,
      "hit": false,
      "t": 215357.02800000075,
      "d": 116.07136666667066,
      "v": 100
    },
    {
      "midi": 53,
      "hit": false,
      "t": 215357.02800000075,
      "d": 122.76779166667257,
      "v": 88
    },
    {
      "midi": 62,
      "hit": false,
      "t": 215357.02800000075,
      "d": 127.23207500000717,
      "v": 96
    },
    {
      "midi": 58,
      "hit": false,
      "t": 215357.02800000075,
      "d": 149.5534916666802,
      "v": 100
    },
    {
      "midi": 60,
      "hit": false,
      "t": 215624.88500000077,
      "d": 629.4639500000048,
      "v": 96
    },
    {
      "midi": 57,
      "hit": false,
      "t": 215624.88500000077,
      "d": 640.6246583333414,
      "v": 96
    },
    {
      "midi": 53,
      "hit": false,
      "t": 215624.88500000077,
      "d": 647.3210833333433,
      "v": 88
    },
    {
      "midi": 69,
      "hit": false,
      "t": 215624.88500000077,
      "d": 651.7853666666779,
      "v": 108
    },
    {
      "midi": 65,
      "hit": false,
      "t": 215624.88500000077,
      "d": 674.1067833333509,
      "v": 100
    },
    {
      "midi": 50,
      "hit": false,
      "t": 216428.4560000008,
      "d": 60.26782499998808,
      "v": 116
    },
    {
      "midi": 59,
      "hit": false,
      "t": 216428.4560000008,
      "d": 66.96424999998999,
      "v": 112
    },
    {
      "midi": 55,
      "hit": false,
      "t": 216428.4560000008,
      "d": 93.74994999999763,
      "v": 108
    },
    {
      "midi": 52,
      "hit": false,
      "t": 216964.1700000008,
      "d": 301.3391249999986,
      "v": 108
    },
    {
      "midi": 55,
      "hit": false,
      "t": 216964.1700000008,
      "d": 301.3391249999986,
      "v": 108
    },
    {
      "midi": 60,
      "hit": false,
      "t": 216964.1700000008,
      "d": 316.9641166666697,
      "v": 120
    },
    {
      "midi": 59,
      "hit": false,
      "t": 217365.9555000008,
      "d": 89.28566666666302,
      "v": 108
    },
    {
      "midi": 62,
      "hit": false,
      "t": 217365.9555000008,
      "d": 89.28566666666302,
      "v": 112
    },
    {
      "midi": 53,
      "hit": false,
      "t": 217365.9555000008,
      "d": 100.44637499999953,
      "v": 104
    },
    {
      "midi": 55,
      "hit": false,
      "t": 218839.1690000008,
      "d": 55.80354166665347,
      "v": 108
    },
    {
      "midi": 59,
      "hit": false,
      "t": 218839.1690000008,
      "d": 60.26782499998808,
      "v": 116
    },
    {
      "midi": 50,
      "hit": false,
      "t": 218839.1690000008,
      "d": 78.1249583333265,
      "v": 112
    },
    {
      "midi": 52,
      "hit": false,
      "t": 219240.9545000008,
      "d": 212.05345833333558,
      "v": 92
    },
    {
      "midi": 55,
      "hit": false,
      "t": 219240.9545000008,
      "d": 212.05345833333558,
      "v": 92
    },
    {
      "midi": 60,
      "hit": false,
      "t": 219240.9545000008,
      "d": 234.37487500000861,
      "v": 104
    },
    {
      "midi": 60,
      "hit": false,
      "t": 219642.7400000008,
      "d": 71.4285333333246,
      "v": 112
    },
    {
      "midi": 55,
      "hit": false,
      "t": 219642.7400000008,
      "d": 82.58924166666111,
      "v": 104
    },
    {
      "midi": 64,
      "hit": false,
      "t": 219642.7400000008,
      "d": 82.58924166666111,
      "v": 112
    },
    {
      "midi": 59,
      "hit": false,
      "t": 219910.5970000008,
      "d": 613.8389583333337,
      "v": 108
    },
    {
      "midi": 62,
      "hit": false,
      "t": 219910.5970000008,
      "d": 613.8389583333337,
      "v": 108
    },
    {
      "midi": 53,
      "hit": false,
      "t": 219910.5970000008,
      "d": 629.4639500000048,
      "v": 100
    },
    {
      "midi": 50,
      "hit": false,
      "t": 220714.1680000008,
      "d": 60.26782499998808,
      "v": 112
    },
    {
      "midi": 59,
      "hit": false,
      "t": 220714.1680000008,
      "d": 66.96424999998999,
      "v": 112
    },
    {
      "midi": 55,
      "hit": false,
      "t": 220714.1680000008,
      "d": 82.58924166666111,
      "v": 108
    },
    {
      "midi": 52,
      "hit": false,
      "t": 221249.8820000008,
      "d": 245.53558333334513,
      "v": 104
    },
    {
      "midi": 55,
      "hit": false,
      "t": 221249.8820000008,
      "d": 256.69629166668165,
      "v": 104
    },
    {
      "midi": 60,
      "hit": false,
      "t": 221249.8820000008,
      "d": 256.69629166668165,
      "v": 116
    },
    {
      "midi": 59,
      "hit": false,
      "t": 221651.66750000083,
      "d": 66.96424999998999,
      "v": 116
    },
    {
      "midi": 62,
      "hit": false,
      "t": 221651.66750000083,
      "d": 71.4285333333246,
      "v": 116
    },
    {
      "midi": 53,
      "hit": false,
      "t": 221651.66750000083,
      "d": 78.1249583333265,
      "v": 108
    },
    {
      "midi": 60,
      "hit": false,
      "t": 223124.8810000008,
      "d": 60.26782499998808,
      "v": 108
    },
    {
      "midi": 69,
      "hit": false,
      "t": 223124.8810000008,
      "d": 60.26782499998808,
      "v": 112
    },
    {
      "midi": 53,
      "hit": false,
      "t": 223124.8810000008,
      "d": 78.1249583333265,
      "v": 96
    },
    {
      "midi": 65,
      "hit": false,
      "t": 223124.8810000008,
      "d": 82.58924166666111,
      "v": 108
    },
    {
      "midi": 57,
      "hit": false,
      "t": 223124.8810000008,
      "d": 89.28566666666302,
      "v": 108
    },
    {
      "midi": 53,
      "hit": false,
      "t": 223526.6665000008,
      "d": 216.5177416666702,
      "v": 100
    },
    {
      "midi": 62,
      "hit": false,
      "t": 223526.6665000008,
      "d": 245.53558333334513,
      "v": 108
    },
    {
      "midi": 70,
      "hit": false,
      "t": 223526.6665000008,
      "d": 245.53558333334513,
      "v": 104
    },
    {
      "midi": 65,
      "hit": false,
      "t": 223526.6665000008,
      "d": 249.99986666667974,
      "v": 104
    },
    {
      "midi": 58,
      "hit": false,
      "t": 223526.6665000008,
      "d": 261.16057500001625,
      "v": 104
    },
    {
      "midi": 53,
      "hit": false,
      "t": 223928.45200000083,
      "d": 89.28566666666302,
      "v": 88
    },
    {
      "midi": 65,
      "hit": false,
      "t": 223928.45200000083,
      "d": 111.60708333333605,
      "v": 100
    },
    {
      "midi": 62,
      "hit": false,
      "t": 223928.45200000083,
      "d": 122.76779166667257,
      "v": 100
    },
    {
      "midi": 58,
      "hit": false,
      "t": 223928.45200000083,
      "d": 127.23207500000717,
      "v": 100
    },
    {
      "midi": 70,
      "hit": false,
      "t": 223928.45200000083,
      "d": 127.23207500000717,
      "v": 104
    },
    {
      "midi": 60,
      "hit": false,
      "t": 224196.30900000085,
      "d": 613.8389583333337,
      "v": 108
    },
    {
      "midi": 57,
      "hit": false,
      "t": 224196.30900000085,
      "d": 636.1603750000068,
      "v": 104
    },
    {
      "midi": 69,
      "hit": false,
      "t": 224196.30900000085,
      "d": 640.6246583333414,
      "v": 108
    },
    {
      "midi": 53,
      "hit": false,
      "t": 224196.30900000085,
      "d": 647.3210833333433,
      "v": 92
    },
    {
      "midi": 65,
      "hit": false,
      "t": 224196.30900000085,
      "d": 658.4817916666798,
      "v": 104
    },
    {
      "midi": 50,
      "hit": false,
      "t": 224999.88000000088,
      "d": 66.96424999998999,
      "v": 112
    },
    {
      "midi": 55,
      "hit": false,
      "t": 224999.88000000088,
      "d": 82.58924166666111,
      "v": 108
    },
    {
      "midi": 59,
      "hit": false,
      "t": 224999.88000000088,
      "d": 82.58924166666111,
      "v": 116
    },
    {
      "midi": 55,
      "hit": false,
      "t": 225535.59400000088,
      "d": 283.4819916666602,
      "v": 108
    },
    {
      "midi": 60,
      "hit": false,
      "t": 225535.59400000088,
      "d": 290.1784166666621,
      "v": 116
    },
    {
      "midi": 52,
      "hit": false,
      "t": 225535.59400000088,
      "d": 294.6426999999967,
      "v": 104
    },
    {
      "midi": 62,
      "hit": false,
      "t": 225937.37950000088,
      "d": 71.4285333333246,
      "v": 112
    },
    {
      "midi": 59,
      "hit": false,
      "t": 225937.37950000088,
      "d": 82.58924166666111,
      "v": 112
    },
    {
      "midi": 53,
      "hit": false,
      "t": 225937.37950000088,
      "d": 104.91065833333414,
      "v": 104
    },
    {
      "midi": 50,
      "hit": false,
      "t": 227410.5930000009,
      "d": 66.96424999998999,
      "v": 108
    },
    {
      "midi": 59,
      "hit": false,
      "t": 227410.5930000009,
      "d": 66.96424999998999,
      "v": 112
    },
    {
      "midi": 55,
      "hit": false,
      "t": 227410.5930000009,
      "d": 78.1249583333265,
      "v": 112
    },
    {
      "midi": 52,
      "hit": false,
      "t": 227812.3785000009,
      "d": 227.6784500000067,
      "v": 96
    },
    {
      "midi": 55,
      "hit": false,
      "t": 227812.3785000009,
      "d": 234.37487500000861,
      "v": 96
    },
    {
      "midi": 60,
      "hit": false,
      "t": 227812.3785000009,
      "d": 245.53558333334513,
      "v": 112
    },
    {
      "midi": 60,
      "hit": false,
      "t": 228214.1640000009,
      "d": 71.4285333333246,
      "v": 112
    },
    {
      "midi": 64,
      "hit": false,
      "t": 228214.1640000009,
      "d": 78.1249583333265,
      "v": 112
    },
    {
      "midi": 55,
      "hit": false,
      "t": 228214.1640000009,
      "d": 104.91065833333414,
      "v": 96
    },
    {
      "midi": 62,
      "hit": false,
      "t": 228482.02100000088,
      "d": 551.3389916666783,
      "v": 104
    },
    {
      "midi": 59,
      "hit": false,
      "t": 228482.02100000088,
      "d": 573.6604083333514,
      "v": 108
    },
    {
      "midi": 53,
      "hit": false,
      "t": 228482.02100000088,
      "d": 580.3568333333533,
      "v": 100
    },
    {
      "midi": 50,
      "hit": false,
      "t": 229285.5920000009,
      "d": 49.10711666668067,
      "v": 108
    },
    {
      "midi": 59,
      "hit": false,
      "t": 229285.5920000009,
      "d": 66.96425000001909,
      "v": 112
    },
    {
      "midi": 55,
      "hit": false,
      "t": 229285.5920000009,
      "d": 89.28566666669212,
      "v": 112
    },
    {
      "midi": 52,
      "hit": false,
      "t": 229821.30600000094,
      "d": 290.1784166666621,
      "v": 104
    },
    {
      "midi": 55,
      "hit": false,
      "t": 229821.30600000094,
      "d": 290.1784166666621,
      "v": 108
    },
    {
      "midi": 60,
      "hit": false,
      "t": 229821.30600000094,
      "d": 294.6426999999967,
      "v": 112
    },
    {
      "midi": 59,
      "hit": false,
      "t": 230223.09150000094,
      "d": 66.96424999998999,
      "v": 108
    },
    {
      "midi": 62,
      "hit": false,
      "t": 230223.09150000094,
      "d": 78.1249583333265,
      "v": 112
    },
    {
      "midi": 53,
      "hit": false,
      "t": 230223.09150000094,
      "d": 89.28566666666302,
      "v": 104
    },
    {
      "midi": 60,
      "hit": false,
      "t": 231696.30500000092,
      "d": 60.26782499998808,
      "v": 92
    },
    {
      "midi": 69,
      "hit": false,
      "t": 231696.30500000092,
      "d": 66.96424999998999,
      "v": 112
    },
    {
      "midi": 65,
      "hit": false,
      "t": 231696.30500000092,
      "d": 71.4285333333246,
      "v": 104
    },
    {
      "midi": 53,
      "hit": false,
      "t": 231696.30500000092,
      "d": 100.44637499999953,
      "v": 84
    },
    {
      "midi": 57,
      "hit": false,
      "t": 231696.30500000092,
      "d": 104.91065833333414,
      "v": 88
    },
    {
      "midi": 53,
      "hit": false,
      "t": 232098.09050000092,
      "d": 200.89274999999907,
      "v": 96
    },
    {
      "midi": 70,
      "hit": false,
      "t": 232098.09050000092,
      "d": 205.35703333333367,
      "v": 108
    },
    {
      "midi": 65,
      "hit": false,
      "t": 232098.09050000092,
      "d": 212.05345833333558,
      "v": 104
    },
    {
      "midi": 62,
      "hit": false,
      "t": 232098.09050000092,
      "d": 234.37487500000861,
      "v": 108
    },
    {
      "midi": 58,
      "hit": false,
      "t": 232098.09050000092,
      "d": 245.53558333334513,
      "v": 104
    },
    {
      "midi": 53,
      "hit": false,
      "t": 232499.87600000092,
      "d": 93.74994999999763,
      "v": 88
    },
    {
      "midi": 70,
      "hit": false,
      "t": 232499.87600000092,
      "d": 111.60708333333605,
      "v": 108
    },
    {
      "midi": 65,
      "hit": false,
      "t": 232499.87600000092,
      "d": 116.07136666667066,
      "v": 104
    },
    {
      "midi": 62,
      "hit": false,
      "t": 232499.87600000092,
      "d": 127.23207500000717,
      "v": 104
    },
    {
      "midi": 58,
      "hit": false,
      "t": 232499.87600000092,
      "d": 145.0892083333456,
      "v": 104
    },
    {
      "midi": 60,
      "hit": false,
      "t": 232767.73300000094,
      "d": 618.3032416666683,
      "v": 96
    },
    {
      "midi": 57,
      "hit": false,
      "t": 232767.73300000094,
      "d": 624.9996666666702,
      "v": 96
    },
    {
      "midi": 53,
      "hit": false,
      "t": 232767.73300000094,
      "d": 629.4639500000048,
      "v": 84
    },
    {
      "midi": 69,
      "hit": false,
      "t": 232767.73300000094,
      "d": 651.7853666666779,
      "v": 112
    },
    {
      "midi": 65,
      "hit": false,
      "t": 232767.73300000094,
      "d": 680.8032083333528,
      "v": 108
    },
    {
      "midi": 50,
      "hit": false,
      "t": 233571.30400000096,
      "d": 55.80354166665347,
      "v": 112
    },
    {
      "midi": 59,
      "hit": false,
      "t": 233571.30400000096,
      "d": 66.96424999998999,
      "v": 116
    },
    {
      "midi": 55,
      "hit": false,
      "t": 233571.30400000096,
      "d": 89.28566666666302,
      "v": 112
    },
    {
      "midi": 52,
      "hit": false,
      "t": 234107.01800000097,
      "d": 256.69629166665254,
      "v": 104
    },
    {
      "midi": 60,
      "hit": false,
      "t": 234107.01800000097,
      "d": 279.0177083333256,
      "v": 120
    },
    {
      "midi": 55,
      "hit": false,
      "t": 234107.01800000097,
      "d": 294.6426999999967,
      "v": 108
    },
    {
      "midi": 62,
      "hit": false,
      "t": 234508.80350000097,
      "d": 66.96424999998999,
      "v": 112
    },
    {
      "midi": 59,
      "hit": false,
      "t": 234508.80350000097,
      "d": 71.4285333333246,
      "v": 112
    },
    {
      "midi": 53,
      "hit": false,
      "t": 234508.80350000097,
      "d": 111.60708333333605,
      "v": 104
    },
    {
      "midi": 55,
      "hit": false,
      "t": 235982.01700000098,
      "d": 60.26782499998808,
      "v": 112
    },
    {
      "midi": 50,
      "hit": false,
      "t": 235982.01700000098,
      "d": 66.96424999998999,
      "v": 112
    },
    {
      "midi": 59,
      "hit": false,
      "t": 235982.01700000098,
      "d": 66.96424999998999,
      "v": 116
    },
    {
      "midi": 52,
      "hit": false,
      "t": 236383.80250000098,
      "d": 205.35703333333367,
      "v": 96
    },
    {
      "midi": 55,
      "hit": false,
      "t": 236383.80250000098,
      "d": 212.05345833333558,
      "v": 104
    },
    {
      "midi": 60,
      "hit": false,
      "t": 236383.80250000098,
      "d": 227.6784500000067,
      "v": 112
    },
    {
      "midi": 60,
      "hit": false,
      "t": 236785.58800000098,
      "d": 82.58924166666111,
      "v": 112
    },
    {
      "midi": 64,
      "hit": false,
      "t": 236785.58800000098,
      "d": 89.28566666666302,
      "v": 116
    },
    {
      "midi": 55,
      "hit": false,
      "t": 236785.58800000098,
      "d": 104.91065833333414,
      "v": 104
    },
    {
      "midi": 62,
      "hit": false,
      "t": 237053.44500000097,
      "d": 551.3389916666783,
      "v": 112
    },
    {
      "midi": 59,
      "hit": false,
      "t": 237053.44500000097,
      "d": 562.4997000000149,
      "v": 112
    },
    {
      "midi": 53,
      "hit": false,
      "t": 237053.44500000097,
      "d": 569.1961250000168,
      "v": 108
    },
    {
      "midi": 59,
      "hit": false,
      "t": 237857.016000001,
      "d": 66.96424999998999,
      "v": 108
    },
    {
      "midi": 50,
      "hit": false,
      "t": 237857.016000001,
      "d": 78.1249583333265,
      "v": 108
    },
    {
      "midi": 55,
      "hit": false,
      "t": 237857.016000001,
      "d": 116.07136666667066,
      "v": 108
    },
    {
      "midi": 52,
      "hit": false,
      "t": 238392.730000001,
      "d": 294.6426999999967,
      "v": 108
    },
    {
      "midi": 55,
      "hit": false,
      "t": 238392.730000001,
      "d": 294.6426999999967,
      "v": 104
    },
    {
      "midi": 60,
      "hit": false,
      "t": 238392.730000001,
      "d": 301.3391249999986,
      "v": 120
    },
    {
      "midi": 62,
      "hit": false,
      "t": 238794.515500001,
      "d": 78.1249583333265,
      "v": 112
    },
    {
      "midi": 59,
      "hit": false,
      "t": 238794.515500001,
      "d": 82.58924166666111,
      "v": 112
    },
    {
      "midi": 53,
      "hit": false,
      "t": 238794.515500001,
      "d": 89.28566666666302,
      "v": 104
    },
    {
      "midi": 69,
      "hit": false,
      "t": 240267.72900000098,
      "d": 66.96424999998999,
      "v": 116
    },
    {
      "midi": 60,
      "hit": false,
      "t": 240267.72900000098,
      "d": 71.4285333333246,
      "v": 100
    },
    {
      "midi": 53,
      "hit": false,
      "t": 240267.72900000098,
      "d": 78.1249583333265,
      "v": 92
    },
    {
      "midi": 65,
      "hit": false,
      "t": 240267.72900000098,
      "d": 89.28566666666302,
      "v": 104
    },
    {
      "midi": 57,
      "hit": false,
      "t": 240267.72900000098,
      "d": 100.44637499999953,
      "v": 96
    },
    {
      "midi": 53,
      "hit": false,
      "t": 240669.51450000098,
      "d": 189.73204166666255,
      "v": 96
    },
    {
      "midi": 70,
      "hit": false,
      "t": 240669.51450000098,
      "d": 205.35703333333367,
      "v": 108
    },
    {
      "midi": 62,
      "hit": false,
      "t": 240669.51450000098,
      "d": 212.05345833333558,
      "v": 104
    },
    {
      "midi": 65,
      "hit": false,
      "t": 240669.51450000098,
      "d": 212.05345833333558,
      "v": 112
    },
    {
      "midi": 58,
      "hit": false,
      "t": 240669.51450000098,
      "d": 223.2141666666721,
      "v": 108
    },
    {
      "midi": 53,
      "hit": false,
      "t": 241071.30000000098,
      "d": 89.28566666666302,
      "v": 84
    },
    {
      "midi": 65,
      "hit": false,
      "t": 241071.30000000098,
      "d": 111.60708333333605,
      "v": 100
    },
    {
      "midi": 70,
      "hit": false,
      "t": 241071.30000000098,
      "d": 116.07136666667066,
      "v": 104
    },
    {
      "midi": 62,
      "hit": false,
      "t": 241071.30000000098,
      "d": 122.76779166667257,
      "v": 92
    },
    {
      "midi": 58,
      "hit": false,
      "t": 241071.30000000098,
      "d": 138.3927833333437,
      "v": 100
    },
    {
      "midi": 60,
      "hit": false,
      "t": 241339.157000001,
      "d": 613.8389583333337,
      "v": 108
    },
    {
      "midi": 53,
      "hit": false,
      "t": 241339.157000001,
      "d": 636.1603750000068,
      "v": 92
    },
    {
      "midi": 69,
      "hit": false,
      "t": 241339.157000001,
      "d": 636.1603750000068,
      "v": 112
    },
    {
      "midi": 57,
      "hit": false,
      "t": 241339.157000001,
      "d": 640.6246583333414,
      "v": 92
    },
    {
      "midi": 65,
      "hit": false,
      "t": 241339.157000001,
      "d": 662.9460750000144,
      "v": 108
    },
    {
      "midi": 50,
      "hit": false,
      "t": 242142.72800000102,
      "d": 44.64283333334606,
      "v": 108
    },
    {
      "midi": 55,
      "hit": false,
      "t": 242142.72800000102,
      "d": 66.96425000001909,
      "v": 112
    },
    {
      "midi": 59,
      "hit": false,
      "t": 242142.72800000102,
      "d": 71.4285333333537,
      "v": 112
    },
    {
      "midi": 60,
      "hit": false,
      "t": 242678.44200000103,
      "d": 261.16057499998715,
      "v": 116
    },
    {
      "midi": 55,
      "hit": false,
      "t": 242678.44200000103,
      "d": 267.85699999998906,
      "v": 104
    },
    {
      "midi": 52,
      "hit": false,
      "t": 242678.44200000103,
      "d": 279.0177083333256,
      "v": 108
    },
    {
      "midi": 59,
      "hit": false,
      "t": 243080.22750000103,
      "d": 78.1249583333265,
      "v": 112
    },
    {
      "midi": 62,
      "hit": false,
      "t": 243080.22750000103,
      "d": 82.58924166666111,
      "v": 116
    },
    {
      "midi": 53,
      "hit": false,
      "t": 243080.22750000103,
      "d": 104.91065833333414,
      "v": 104
    },
    {
      "midi": 59,
      "hit": false,
      "t": 244553.44100000104,
      "d": 66.96424999998999,
      "v": 116
    },
    {
      "midi": 50,
      "hit": false,
      "t": 244553.44100000104,
      "d": 82.58924166666111,
      "v": 108
    },
    {
      "midi": 55,
      "hit": false,
      "t": 244553.44100000104,
      "d": 93.74994999999763,
      "v": 112
    },
    {
      "midi": 52,
      "hit": false,
      "t": 244955.22650000104,
      "d": 267.85699999998906,
      "v": 96
    },
    {
      "midi": 55,
      "hit": false,
      "t": 244955.22650000104,
      "d": 272.32128333332366,
      "v": 92
    },
    {
      "midi": 60,
      "hit": false,
      "t": 244955.22650000104,
      "d": 283.4819916666602,
      "v": 112
    },
    {
      "midi": 62,
      "hit": false,
      "t": 245357.01200000104,
      "d": 44.64283333334606,
      "v": 104
    },
    {
      "midi": 60,
      "hit": false,
      "t": 245357.01200000104,
      "d": 71.4285333333537,
      "v": 112
    },
    {
      "midi": 64,
      "hit": false,
      "t": 245357.01200000104,
      "d": 71.4285333333537,
      "v": 88
    },
    {
      "midi": 55,
      "hit": false,
      "t": 245357.01200000104,
      "d": 100.44637500002864,
      "v": 104
    },
    {
      "midi": 62,
      "hit": false,
      "t": 245624.86900000105,
      "d": 602.6782499999972,
      "v": 108
    },
    {
      "midi": 53,
      "hit": false,
      "t": 245624.86900000105,
      "d": 629.4639500000048,
      "v": 104
    },
    {
      "midi": 59,
      "hit": false,
      "t": 245624.86900000105,
      "d": 636.1603750000068,
      "v": 108
    },
    {
      "midi": 50,
      "hit": false,
      "t": 246428.44000000105,
      "d": 44.64283333334606,
      "v": 108
    },
    {
      "midi": 59,
      "hit": false,
      "t": 246428.44000000105,
      "d": 49.10711666668067,
      "v": 116
    },
    {
      "midi": 55,
      "hit": false,
      "t": 246428.44000000105,
      "d": 66.96425000001909,
      "v": 112
    },
    {
      "midi": 60,
      "hit": false,
      "t": 246964.15400000106,
      "d": 279.0177083333256,
      "v": 116
    },
    {
      "midi": 52,
      "hit": false,
      "t": 246964.15400000106,
      "d": 283.4819916666602,
      "v": 108
    },
    {
      "midi": 55,
      "hit": false,
      "t": 246964.15400000106,
      "d": 305.8034083333332,
      "v": 108
    },
    {
      "midi": 62,
      "hit": false,
      "t": 247365.93950000106,
      "d": 78.1249583333265,
      "v": 108
    },
    {
      "midi": 53,
      "hit": false,
      "t": 247365.93950000106,
      "d": 82.58924166666111,
      "v": 100
    },
    {
      "midi": 59,
      "hit": false,
      "t": 247365.93950000106,
      "d": 82.58924166666111,
      "v": 108
    },
    {
      "midi": 60,
      "hit": false,
      "t": 248839.15300000104,
      "d": 55.80354166665347,
      "v": 108
    },
    {
      "midi": 69,
      "hit": false,
      "t": 248839.15300000104,
      "d": 60.26782499998808,
      "v": 108
    },
    {
      "midi": 53,
      "hit": false,
      "t": 248839.15300000104,
      "d": 71.4285333333246,
      "v": 88
    },
    {
      "midi": 65,
      "hit": false,
      "t": 248839.15300000104,
      "d": 78.1249583333265,
      "v": 104
    },
    {
      "midi": 57,
      "hit": false,
      "t": 248839.15300000104,
      "d": 104.91065833333414,
      "v": 92
    },
    {
      "midi": 53,
      "hit": false,
      "t": 249240.93850000104,
      "d": 216.5177416666702,
      "v": 96
    },
    {
      "midi": 65,
      "hit": false,
      "t": 249240.93850000104,
      "d": 223.2141666666721,
      "v": 108
    },
    {
      "midi": 70,
      "hit": false,
      "t": 249240.93850000104,
      "d": 234.37487500000861,
      "v": 108
    },
    {
      "midi": 62,
      "hit": false,
      "t": 249240.93850000104,
      "d": 238.83915833334322,
      "v": 104
    },
    {
      "midi": 58,
      "hit": false,
      "t": 249240.93850000104,
      "d": 245.53558333334513,
      "v": 100
    },
    {
      "midi": 53,
      "hit": false,
      "t": 249642.72400000104,
      "d": 93.74994999999763,
      "v": 88
    },
    {
      "midi": 62,
      "hit": false,
      "t": 249642.72400000104,
      "d": 122.76779166667257,
      "v": 92
    },
    {
      "midi": 65,
      "hit": false,
      "t": 249642.72400000104,
      "d": 122.76779166667257,
      "v": 104
    },
    {
      "midi": 70,
      "hit": false,
      "t": 249642.72400000104,
      "d": 133.92850000000908,
      "v": 116
    },
    {
      "midi": 58,
      "hit": false,
      "t": 249642.72400000104,
      "d": 149.5534916666802,
      "v": 100
    },
    {
      "midi": 69,
      "hit": false,
      "t": 249910.58100000105,
      "d": 580.3568333333242,
      "v": 108
    },
    {
      "midi": 60,
      "hit": false,
      "t": 249910.58100000105,
      "d": 591.5175416666607,
      "v": 108
    },
    {
      "midi": 53,
      "hit": false,
      "t": 249910.58100000105,
      "d": 613.8389583333337,
      "v": 88
    },
    {
      "midi": 57,
      "hit": false,
      "t": 249910.58100000105,
      "d": 624.9996666666702,
      "v": 96
    },
    {
      "midi": 65,
      "hit": false,
      "t": 249910.58100000105,
      "d": 636.1603750000068,
      "v": 108
    },
    {
      "midi": 50,
      "hit": false,
      "t": 250714.15200000105,
      "d": 49.10711666668067,
      "v": 112
    },
    {
      "midi": 55,
      "hit": false,
      "t": 250714.15200000105,
      "d": 71.4285333333537,
      "v": 112
    },
    {
      "midi": 59,
      "hit": false,
      "t": 250714.15200000105,
      "d": 82.58924166669021,
      "v": 112
    },
    {
      "midi": 52,
      "hit": false,
      "t": 251249.8660000011,
      "d": 283.4819916666602,
      "v": 104
    },
    {
      "midi": 55,
      "hit": false,
      "t": 251249.8660000011,
      "d": 301.3391249999986,
      "v": 104
    },
    {
      "midi": 60,
      "hit": false,
      "t": 251249.8660000011,
      "d": 312.4998333333351,
      "v": 112
    },
    {
      "midi": 59,
      "hit": false,
      "t": 251651.65150000108,
      "d": 78.1249583333265,
      "v": 112
    },
    {
      "midi": 62,
      "hit": false,
      "t": 251651.65150000108,
      "d": 82.58924166666111,
      "v": 108
    },
    {
      "midi": 53,
      "hit": false,
      "t": 251651.65150000108,
      "d": 89.28566666666302,
      "v": 96
    },
    {
      "midi": 59,
      "hit": false,
      "t": 253124.86500000107,
      "d": 60.26782499998808,
      "v": 120
    },
    {
      "midi": 55,
      "hit": false,
      "t": 253124.86500000107,
      "d": 66.96424999998999,
      "v": 112
    },
    {
      "midi": 50,
      "hit": false,
      "t": 253124.86500000107,
      "d": 71.4285333333246,
      "v": 112
    },
    {
      "midi": 55,
      "hit": false,
      "t": 253526.65050000107,
      "d": 178.57133333332604,
      "v": 88
    },
    {
      "midi": 52,
      "hit": false,
      "t": 253526.65050000107,
      "d": 183.03561666666064,
      "v": 88
    },
    {
      "midi": 60,
      "hit": false,
      "t": 253526.65050000107,
      "d": 200.89274999999907,
      "v": 100
    },
    {
      "midi": 60,
      "hit": false,
      "t": 253928.43600000106,
      "d": 78.1249583333265,
      "v": 112
    },
    {
      "midi": 64,
      "hit": false,
      "t": 253928.43600000106,
      "d": 78.1249583333265,
      "v": 108
    },
    {
      "midi": 55,
      "hit": false,
      "t": 253928.43600000106,
      "d": 93.74994999999763,
      "v": 104
    },
    {
      "midi": 62,
      "hit": false,
      "t": 254196.29300000105,
      "d": 513.3925833333342,
      "v": 108
    },
    {
      "midi": 53,
      "hit": false,
      "t": 254196.29300000105,
      "d": 540.1782833333418,
      "v": 100
    },
    {
      "midi": 59,
      "hit": false,
      "t": 254196.29300000105,
      "d": 540.1782833333418,
      "v": 112
    },
    {
      "midi": 59,
      "hit": false,
      "t": 254999.86400000105,
      "d": 66.96424999998999,
      "v": 116
    },
    {
      "midi": 50,
      "hit": false,
      "t": 254999.86400000105,
      "d": 78.1249583333265,
      "v": 108
    },
    {
      "midi": 55,
      "hit": false,
      "t": 254999.86400000105,
      "d": 78.1249583333265,
      "v": 112
    },
    {
      "midi": 52,
      "hit": false,
      "t": 255535.57800000106,
      "d": 283.4819916666602,
      "v": 108
    },
    {
      "midi": 60,
      "hit": false,
      "t": 255535.57800000106,
      "d": 283.4819916666602,
      "v": 116
    },
    {
      "midi": 55,
      "hit": false,
      "t": 255535.57800000106,
      "d": 294.6426999999967,
      "v": 100
    },
    {
      "midi": 59,
      "hit": false,
      "t": 255937.36350000105,
      "d": 71.4285333333246,
      "v": 108
    },
    {
      "midi": 62,
      "hit": false,
      "t": 255937.36350000105,
      "d": 71.4285333333246,
      "v": 112
    },
    {
      "midi": 53,
      "hit": false,
      "t": 255937.36350000105,
      "d": 82.58924166666111,
      "v": 104
    },
    {
      "midi": 53,
      "hit": false,
      "t": 257410.57700000104,
      "d": 49.10711666668067,
      "v": 84
    },
    {
      "midi": 60,
      "hit": false,
      "t": 257410.57700000104,
      "d": 60.26782500001718,
      "v": 96
    },
    {
      "midi": 69,
      "hit": false,
      "t": 257410.57700000104,
      "d": 66.96425000001909,
      "v": 112
    },
    {
      "midi": 65,
      "hit": false,
      "t": 257410.57700000104,
      "d": 78.12495833335561,
      "v": 108
    },
    {
      "midi": 57,
      "hit": false,
      "t": 257410.57700000104,
      "d": 93.74995000002673,
      "v": 92
    },
    {
      "midi": 53,
      "hit": false,
      "t": 257812.36250000107,
      "d": 707.5889083333313,
      "v": 96
    },
    {
      "midi": 58,
      "hit": false,
      "t": 257812.36250000107,
      "d": 714.2853333333333,
      "v": 100
    },
    {
      "midi": 62,
      "hit": false,
      "t": 257812.36250000107,
      "d": 718.7496166666679,
      "v": 108
    },
    {
      "midi": 65,
      "hit": false,
      "t": 257812.36250000107,
      "d": 725.4460416666698,
      "v": 100
    },
    {
      "midi": 70,
      "hit": false,
      "t": 257812.36250000107,
      "d": 725.4460416666698,
      "v": 112
    },
    {
      "midi": 57,
      "hit": false,
      "t": 258749.86200000107,
      "d": 104.91065833333414,
      "v": 116
    },
    {
      "midi": 69,
      "hit": false,
      "t": 258749.86200000107,
      "d": 133.92850000000908,
      "v": 124
    },
    {
      "midi": 72,
      "hit": false,
      "t": 258883.79050000108,
      "d": 138.3927833333437,
      "v": 104
    },
    {
      "midi": 60,
      "hit": false,
      "t": 258883.79050000108,
      "d": 160.71420000001672,
      "v": 100
    },
    {
      "midi": 65,
      "hit": false,
      "t": 259017.7190000011,
      "d": 100.44637499999953,
      "v": 108
    },
    {
      "midi": 53,
      "hit": false,
      "t": 259017.7190000011,
      "d": 183.03561666668975,
      "v": 92
    },
    {
      "midi": 55,
      "hit": false,
      "t": 259151.6475000011,
      "d": 133.92850000000908,
      "v": 108
    },
    {
      "midi": 67,
      "hit": false,
      "t": 259151.6475000011,
      "d": 138.3927833333437,
      "v": 124
    }
  ]
}