{
  "jsonPath": "Rock/Blues Rock/Santana/africa-bamba.json",
  "path": "Rock\\Blues Rock\\Santana\\Africa Bamba.mid",
  "name": "Africa Bamba",
  "difficulty": "Intermediate",
  "bpm": 96,
  "notes": [
    {
      "midi": 60,
      "hit": false,
      "t": 42500,
      "d": 489.5833333333285,
      "v": 1
    },
    {
      "midi": 57,
      "hit": false,
      "t": 42975.260416666664,
      "d": 951.8229166666642,
      "v": 1
    },
    {
      "midi": 52,
      "hit": false,
      "t": 43932.291666666664,
      "d": 251.30208333333576,
      "v": 1
    },
    {
      "midi": 57,
      "hit": false,
      "t": 44188.802083333336,
      "d": 205.72916666666424,
      "v": 1
    },
    {
      "midi": 59,
      "hit": false,
      "t": 44401.041666666664,
      "d": 244.79166666666424,
      "v": 1
    },
    {
      "midi": 60,
      "hit": false,
      "t": 44651.041666666664,
      "d": 166.66666666666424,
      "v": 1
    },
    {
      "midi": 57,
      "hit": false,
      "t": 44824.21874999999,
      "d": 183.59375,
      "v": 1
    },
    {
      "midi": 59,
      "hit": false,
      "t": 45013.02083333333,
      "d": 440.10416666666424,
      "v": 1
    },
    {
      "midi": 56,
      "hit": false,
      "t": 45455.72916666666,
      "d": 2022.1354166666642,
      "v": 1
    },
    {
      "midi": 59,
      "hit": false,
      "t": 47483.07291666666,
      "d": 470.0520833333285,
      "v": 1
    },
    {
      "midi": 56,
      "hit": false,
      "t": 47942.70833333332,
      "d": 960.9375,
      "v": 1
    },
    {
      "midi": 62,
      "hit": false,
      "t": 48908.85416666666,
      "d": 765.625,
      "v": 1
    },
    {
      "midi": 60,
      "hit": false,
      "t": 49680.98958333332,
      "d": 151.04166666666424,
      "v": 1
    },
    {
      "midi": 59,
      "hit": false,
      "t": 49837.23958333332,
      "d": 186.19791666666424,
      "v": 1
    },
    {
      "midi": 60,
      "hit": false,
      "t": 50028.64583333332,
      "d": 440.10416666666424,
      "v": 1
    },
    {
      "midi": 57,
      "hit": false,
      "t": 50475.26041666665,
      "d": 2009.1145833333358,
      "v": 1
    },
    {
      "midi": 60,
      "hit": false,
      "t": 52489.58333333332,
      "d": 476.5625,
      "v": 1
    },
    {
      "midi": 57,
      "hit": false,
      "t": 52951.82291666666,
      "d": 973.9583333333285,
      "v": 1
    },
    {
      "midi": 52,
      "hit": false,
      "t": 53932.29166666665,
      "d": 248.69791666666424,
      "v": 1
    },
    {
      "midi": 57,
      "hit": false,
      "t": 54186.19791666665,
      "d": 203.125,
      "v": 1
    },
    {
      "midi": 59,
      "hit": false,
      "t": 54394.531249999985,
      "d": 248.69791666666424,
      "v": 1
    },
    {
      "midi": 60,
      "hit": false,
      "t": 54648.437499999985,
      "d": 166.66666666666424,
      "v": 1
    },
    {
      "midi": 57,
      "hit": false,
      "t": 54820.312499999985,
      "d": 186.19791666666424,
      "v": 1
    },
    {
      "midi": 59,
      "hit": false,
      "t": 55013.020833333314,
      "d": 437.5,
      "v": 1
    },
    {
      "midi": 56,
      "hit": false,
      "t": 55449.21874999998,
      "d": 2026.0416666666715,
      "v": 1
    },
    {
      "midi": 59,
      "hit": false,
      "t": 57480.468749999985,
      "d": 489.5833333333285,
      "v": 1
    },
    {
      "midi": 56,
      "hit": false,
      "t": 57951.82291666665,
      "d": 951.8229166666642,
      "v": 1
    },
    {
      "midi": 62,
      "hit": false,
      "t": 58908.85416666665,
      "d": 769.53125,
      "v": 1
    },
    {
      "midi": 60,
      "hit": false,
      "t": 59683.593749999985,
      "d": 160.15625,
      "v": 1
    },
    {
      "midi": 59,
      "hit": false,
      "t": 59850.26041666665,
      "d": 186.19791666666424,
      "v": 1
    },
    {
      "midi": 60,
      "hit": false,
      "t": 60041.66666666665,
      "d": 430.98958333333576,
      "v": 1
    },
    {
      "midi": 57,
      "hit": false,
      "t": 60468.749999999985,
      "d": 2026.0416666666642,
      "v": 1
    },
    {
      "midi": 67,
      "hit": false,
      "t": 92499.99999999999,
      "d": 736.9791666666715,
      "v": 1
    },
    {
      "midi": 65,
      "hit": false,
      "t": 93242.18749999999,
      "d": 320.3125,
      "v": 1
    },
    {
      "midi": 64,
      "hit": false,
      "t": 93567.70833333331,
      "d": 153.64583333332848,
      "v": 1
    },
    {
      "midi": 69,
      "hit": false,
      "t": 93726.56249999997,
      "d": 752.6041666666715,
      "v": 1
    },
    {
      "midi": 65,
      "hit": false,
      "t": 94485.67708333331,
      "d": 472.65625,
      "v": 1
    },
    {
      "midi": 64,
      "hit": false,
      "t": 94963.54166666664,
      "d": 2529.9479166666715,
      "v": 1
    },
    {
      "midi": 67,
      "hit": false,
      "t": 97499.99999999999,
      "d": 776.0416666666715,
      "v": 1
    },
    {
      "midi": 65,
      "hit": false,
      "t": 98281.24999999999,
      "d": 307.2916666666715,
      "v": 1
    },
    {
      "midi": 64,
      "hit": false,
      "t": 98593.74999999999,
      "d": 166.66666666667152,
      "v": 1
    },
    {
      "midi": 69,
      "hit": false,
      "t": 98765.62499999999,
      "d": 750,
      "v": 1
    },
    {
      "midi": 65,
      "hit": false,
      "t": 99520.83333333331,
      "d": 466.1458333333285,
      "v": 1
    },
    {
      "midi": 64,
      "hit": false,
      "t": 99993.48958333331,
      "d": 2510.4166666666715,
      "v": 1
    },
    {
      "midi": 67,
      "hit": false,
      "t": 102509.11458333331,
      "d": 763.0208333333285,
      "v": 1
    },
    {
      "midi": 65,
      "hit": false,
      "t": 103277.34374999997,
      "d": 333.3333333333285,
      "v": 1
    },
    {
      "midi": 64,
      "hit": false,
      "t": 103615.88541666663,
      "d": 151.04166666667152,
      "v": 1
    },
    {
      "midi": 69,
      "hit": false,
      "t": 103772.13541666663,
      "d": 713.5416666666715,
      "v": 1
    },
    {
      "midi": 65,
      "hit": false,
      "t": 104492.18749999997,
      "d": 476.5625,
      "v": 1
    },
    {
      "midi": 64,
      "hit": false,
      "t": 104973.9583333333,
      "d": 2553.3854166666715,
      "v": 1
    },
    {
      "midi": 67,
      "hit": false,
      "t": 107532.5520833333,
      "d": 730.46875,
      "v": 1
    },
    {
      "midi": 65,
      "hit": false,
      "t": 108268.22916666663,
      "d": 320.3125,
      "v": 1
    },
    {
      "midi": 64,
      "hit": false,
      "t": 108593.74999999996,
      "d": 157.55208333332848,
      "v": 1
    },
    {
      "midi": 69,
      "hit": false,
      "t": 108756.51041666661,
      "d": 756.5104166666715,
      "v": 1
    },
    {
      "midi": 65,
      "hit": false,
      "t": 109518.22916666661,
      "d": 453.125,
      "v": 1
    },
    {
      "midi": 64,
      "hit": false,
      "t": 109976.56249999994,
      "d": 2516.9270833333285,
      "v": 1
    },
    {
      "midi": 60,
      "hit": false,
      "t": 112499.99999999994,
      "d": 489.58333333334303,
      "v": 1
    },
    {
      "midi": 57,
      "hit": false,
      "t": 112975.26041666661,
      "d": 951.8229166666715,
      "v": 1
    },
    {
      "midi": 52,
      "hit": false,
      "t": 113932.29166666661,
      "d": 251.30208333332848,
      "v": 1
    },
    {
      "midi": 57,
      "hit": false,
      "t": 114188.80208333327,
      "d": 205.72916666667152,
      "v": 1
    },
    {
      "midi": 59,
      "hit": false,
      "t": 114401.04166666661,
      "d": 244.79166666667152,
      "v": 1
    },
    {
      "midi": 60,
      "hit": false,
      "t": 114651.04166666661,
      "d": 166.66666666667152,
      "v": 1
    },
    {
      "midi": 57,
      "hit": false,
      "t": 114824.21874999996,
      "d": 183.59375,
      "v": 1
    },
    {
      "midi": 59,
      "hit": false,
      "t": 115013.02083333328,
      "d": 440.1041666666715,
      "v": 1
    },
    {
      "midi": 56,
      "hit": false,
      "t": 115455.72916666663,
      "d": 2022.1354166666715,
      "v": 1
    },
    {
      "midi": 59,
      "hit": false,
      "t": 117483.07291666663,
      "d": 470.05208333334303,
      "v": 1
    },
    {
      "midi": 56,
      "hit": false,
      "t": 117942.7083333333,
      "d": 960.9375,
      "v": 1
    },
    {
      "midi": 62,
      "hit": false,
      "t": 118908.85416666663,
      "d": 765.625,
      "v": 1
    },
    {
      "midi": 60,
      "hit": false,
      "t": 119680.9895833333,
      "d": 151.04166666667152,
      "v": 1
    },
    {
      "midi": 59,
      "hit": false,
      "t": 119837.2395833333,
      "d": 186.19791666667152,
      "v": 1
    },
    {
      "midi": 60,
      "hit": false,
      "t": 120028.6458333333,
      "d": 440.1041666666715,
      "v": 1
    },
    {
      "midi": 57,
      "hit": false,
      "t": 120475.26041666664,
      "d": 2009.1145833333285,
      "v": 1
    },
    {
      "midi": 60,
      "hit": false,
      "t": 122489.5833333333,
      "d": 476.5625,
      "v": 1
    },
    {
      "midi": 57,
      "hit": false,
      "t": 122951.82291666663,
      "d": 973.958333333343,
      "v": 1
    },
    {
      "midi": 52,
      "hit": false,
      "t": 123932.29166666664,
      "d": 248.69791666667152,
      "v": 1
    },
    {
      "midi": 57,
      "hit": false,
      "t": 124186.19791666664,
      "d": 203.125,
      "v": 1
    },
    {
      "midi": 59,
      "hit": false,
      "t": 124394.53124999997,
      "d": 248.69791666667152,
      "v": 1
    },
    {
      "midi": 60,
      "hit": false,
      "t": 124648.43749999997,
      "d": 166.66666666667152,
      "v": 1
    },
    {
      "midi": 57,
      "hit": false,
      "t": 124820.31249999997,
      "d": 186.19791666667152,
      "v": 1
    },
    {
      "midi": 59,
      "hit": false,
      "t": 125013.02083333331,
      "d": 437.5,
      "v": 1
    },
    {
      "midi": 56,
      "hit": false,
      "t": 125449.21874999999,
      "d": 2026.041666666657,
      "v": 1
    },
    {
      "midi": 59,
      "hit": false,
      "t": 127480.46874999997,
      "d": 489.58333333334303,
      "v": 1
    },
    {
      "midi": 56,
      "hit": false,
      "t": 127951.82291666664,
      "d": 951.8229166666715,
      "v": 1
    },
    {
      "midi": 62,
      "hit": false,
      "t": 128908.85416666664,
      "d": 769.53125,
      "v": 1
    },
    {
      "midi": 60,
      "hit": false,
      "t": 129683.59374999997,
      "d": 160.15625,
      "v": 1
    },
    {
      "midi": 59,
      "hit": false,
      "t": 129850.26041666664,
      "d": 186.19791666667152,
      "v": 1
    },
    {
      "midi": 60,
      "hit": false,
      "t": 130041.66666666664,
      "d": 430.9895833333285,
      "v": 1
    },
    {
      "midi": 57,
      "hit": false,
      "t": 130468.74999999997,
      "d": 2026.041666666657,
      "v": 1
    },
    {
      "midi": 67,
      "hit": false,
      "t": 162499.99999999997,
      "d": 736.979166666657,
      "v": 1
    },
    {
      "midi": 65,
      "hit": false,
      "t": 163242.18749999997,
      "d": 320.3125,
      "v": 1
    },
    {
      "midi": 64,
      "hit": false,
      "t": 163567.7083333333,
      "d": 153.64583333334303,
      "v": 1
    },
    {
      "midi": 69,
      "hit": false,
      "t": 163726.5625,
      "d": 752.604166666657,
      "v": 1
    },
    {
      "midi": 65,
      "hit": false,
      "t": 164485.6770833333,
      "d": 472.65625,
      "v": 1
    },
    {
      "midi": 64,
      "hit": false,
      "t": 164963.54166666666,
      "d": 2529.947916666657,
      "v": 1
    },
    {
      "midi": 67,
      "hit": false,
      "t": 167499.99999999997,
      "d": 776.041666666657,
      "v": 1
    },
    {
      "midi": 65,
      "hit": false,
      "t": 168281.24999999997,
      "d": 307.29166666665697,
      "v": 1
    },
    {
      "midi": 64,
      "hit": false,
      "t": 168593.74999999997,
      "d": 166.66666666665697,
      "v": 1
    },
    {
      "midi": 69,
      "hit": false,
      "t": 168765.62499999997,
      "d": 750,
      "v": 1
    },
    {
      "midi": 65,
      "hit": false,
      "t": 169520.8333333333,
      "d": 466.14583333334303,
      "v": 1
    },
    {
      "midi": 64,
      "hit": false,
      "t": 169993.4895833333,
      "d": 2510.416666666657,
      "v": 1
    },
    {
      "midi": 67,
      "hit": false,
      "t": 172509.1145833333,
      "d": 763.020833333343,
      "v": 1
    },
    {
      "midi": 65,
      "hit": false,
      "t": 173277.34375,
      "d": 333.33333333334303,
      "v": 1
    },
    {
      "midi": 64,
      "hit": false,
      "t": 173615.8854166667,
      "d": 151.04166666665697,
      "v": 1
    },
    {
      "midi": 69,
      "hit": false,
      "t": 173772.1354166667,
      "d": 713.541666666657,
      "v": 1
    },
    {
      "midi": 65,
      "hit": false,
      "t": 174492.1875,
      "d": 476.5625,
      "v": 1
    },
    {
      "midi": 64,
      "hit": false,
      "t": 174973.95833333334,
      "d": 2553.385416666657,
      "v": 1
    },
    {
      "midi": 67,
      "hit": false,
      "t": 177532.55208333334,
      "d": 730.46875,
      "v": 1
    },
    {
      "midi": 65,
      "hit": false,
      "t": 178268.2291666667,
      "d": 320.3125,
      "v": 1
    },
    {
      "midi": 64,
      "hit": false,
      "t": 178593.75000000003,
      "d": 157.55208333334303,
      "v": 1
    },
    {
      "midi": 69,
      "hit": false,
      "t": 178756.51041666672,
      "d": 756.510416666657,
      "v": 1
    },
    {
      "midi": 65,
      "hit": false,
      "t": 179518.22916666672,
      "d": 453.125,
      "v": 1
    },
    {
      "midi": 64,
      "hit": false,
      "t": 179976.56250000006,
      "d": 2516.927083333343,
      "v": 1
    },
    {
      "midi": 60,
      "hit": false,
      "t": 182528.6458333334,
      "d": 433.59375,
      "v": 1
    },
    {
      "midi": 57,
      "hit": false,
      "t": 182977.8645833334,
      "d": 609.375,
      "v": 1
    },
    {
      "midi": 59,
      "hit": false,
      "t": 187506.51041666674,
      "d": 457.03125,
      "v": 1
    },
    {
      "midi": 56,
      "hit": false,
      "t": 187955.72916666674,
      "d": 632.8125,
      "v": 1
    },
    {
      "midi": 60,
      "hit": false,
      "t": 192528.6458333334,
      "d": 433.59375,
      "v": 1
    },
    {
      "midi": 57,
      "hit": false,
      "t": 192977.8645833334,
      "d": 609.375,
      "v": 1
    },
    {
      "midi": 59,
      "hit": false,
      "t": 197506.51041666674,
      "d": 457.03125,
      "v": 1
    },
    {
      "midi": 56,
      "hit": false,
      "t": 197955.72916666674,
      "d": 632.8125,
      "v": 1
    },
    {
      "midi": 60,
      "hit": false,
      "t": 205028.6458333334,
      "d": 433.59375,
      "v": 1
    },
    {
      "midi": 57,
      "hit": false,
      "t": 205477.8645833334,
      "d": 609.375,
      "v": 1
    },
    {
      "midi": 60,
      "hit": false,
      "t": 210028.6458333334,
      "d": 433.59375,
      "v": 1
    },
    {
      "midi": 57,
      "hit": false,
      "t": 210477.8645833334,
      "d": 609.375,
      "v": 1
    },
    {
      "midi": 60,
      "hit": false,
      "t": 215028.6458333334,
      "d": 433.59375,
      "v": 1
    },
    {
      "midi": 57,
      "hit": false,
      "t": 215477.8645833334,
      "d": 609.375,
      "v": 1
    },
    {
      "midi": 60,
      "hit": false,
      "t": 220028.6458333334,
      "d": 433.59375,
      "v": 1
    },
    {
      "midi": 57,
      "hit": false,
      "t": 220477.8645833334,
      "d": 609.375,
      "v": 1
    },
    {
      "midi": 60,
      "hit": false,
      "t": 225028.6458333334,
      "d": 433.59375,
      "v": 1
    },
    {
      "midi": 57,
      "hit": false,
      "t": 225477.8645833334,
      "d": 609.375,
      "v": 1
    },
    {
      "midi": 60,
      "hit": false,
      "t": 230028.6458333334,
      "d": 433.59375,
      "v": 1
    },
    {
      "midi": 57,
      "hit": false,
      "t": 230477.8645833334,
      "d": 609.375,
      "v": 1
    },
    {
      "midi": 60,
      "hit": false,
      "t": 235028.6458333334,
      "d": 433.59375,
      "v": 1
    },
    {
      "midi": 57,
      "hit": false,
      "t": 235477.8645833334,
      "d": 609.375,
      "v": 1
    },
    {
      "midi": 60,
      "hit": false,
      "t": 240028.6458333334,
      "d": 433.59375,
      "v": 1
    },
    {
      "midi": 57,
      "hit": false,
      "t": 240477.8645833334,
      "d": 609.375,
      "v": 1
    },
    {
      "midi": 60,
      "hit": false,
      "t": 245028.6458333334,
      "d": 433.59375,
      "v": 1
    },
    {
      "midi": 57,
      "hit": false,
      "t": 245477.8645833334,
      "d": 609.375,
      "v": 1
    },
    {
      "midi": 60,
      "hit": false,
      "t": 250006.51041666674,
      "d": 472.65625,
      "v": 1
    },
    {
      "midi": 57,
      "hit": false,
      "t": 250464.8437500001,
      "d": 2510.416666666657,
      "v": 1
    },
    {
      "midi": 69,
      "hit": false,
      "t": 252981.7708333334,
      "d": 203.125,
      "v": 1
    },
    {
      "midi": 72,
      "hit": false,
      "t": 253190.10416666674,
      "d": 381.51041666665697,
      "v": 1
    },
    {
      "midi": 67,
      "hit": false,
      "t": 253576.82291666674,
      "d": 205.72916666665697,
      "v": 1
    },
    {
      "midi": 71,
      "hit": false,
      "t": 253789.06250000006,
      "d": 424.47916666665697,
      "v": 1
    },
    {
      "midi": 65,
      "hit": false,
      "t": 254218.75000000006,
      "d": 173.17708333334303,
      "v": 1
    },
    {
      "midi": 69,
      "hit": false,
      "t": 254397.13541666674,
      "d": 420.57291666665697,
      "v": 1
    },
    {
      "midi": 65,
      "hit": false,
      "t": 254824.21875000006,
      "d": 183.59375,
      "v": 1
    },
    {
      "midi": 64,
      "hit": false,
      "t": 255013.0208333334,
      "d": 2481.770833333343,
      "v": 1
    },
    {
      "midi": 59,
      "hit": false,
      "t": 256093.75,
      "d": 79.42708333334303,
      "v": 71
    },
    {
      "midi": 52,
      "hit": false,
      "t": 256093.75,
      "d": 85.9375,
      "v": 108
    },
    {
      "midi": 68,
      "hit": false,
      "t": 256093.75,
      "d": 85.9375,
      "v": 79
    },
    {
      "midi": 71,
      "hit": false,
      "t": 256093.75,
      "d": 92.44791666665697,
      "v": 86
    },
    {
      "midi": 68,
      "hit": false,
      "t": 256250,
      "d": 92.44791666665697,
      "v": 96
    },
    {
      "midi": 71,
      "hit": false,
      "t": 256250,
      "d": 92.44791666665697,
      "v": 108
    },
    {
      "midi": 52,
      "hit": false,
      "t": 256250,
      "d": 125,
      "v": 120
    },
    {
      "midi": 59,
      "hit": false,
      "t": 256250,
      "d": 138.02083333334303,
      "v": 98
    },
    {
      "midi": 52,
      "hit": false,
      "t": 256718.75,
      "d": 72.91666666665697,
      "v": 103
    },
    {
      "midi": 59,
      "hit": false,
      "t": 256718.75,
      "d": 72.91666666665697,
      "v": 85
    },
    {
      "midi": 68,
      "hit": false,
      "t": 256718.75,
      "d": 72.91666666665697,
      "v": 79
    },
    {
      "midi": 71,
      "hit": false,
      "t": 256718.75,
      "d": 98.95833333331393,
      "v": 93
    },
    {
      "midi": 68,
      "hit": false,
      "t": 256874.99999999997,
      "d": 92.44791666665697,
      "v": 87
    },
    {
      "midi": 52,
      "hit": false,
      "t": 256874.99999999997,
      "d": 118.48958333331393,
      "v": 120
    },
    {
      "midi": 71,
      "hit": false,
      "t": 256874.99999999997,
      "d": 118.48958333331393,
      "v": 108
    },
    {
      "midi": 59,
      "hit": false,
      "t": 256874.99999999997,
      "d": 157.55208333331393,
      "v": 91
    },
    {
      "midi": 57,
      "hit": false,
      "t": 257187.49999999994,
      "d": 750,
      "v": 126
    },
    {
      "midi": 69,
      "hit": false,
      "t": 257187.49999999994,
      "d": 750,
      "v": 82
    },
    {
      "midi": 72,
      "hit": false,
      "t": 257187.49999999994,
      "d": 750,
      "v": 68
    }
  ]
}