{
  "jsonPath": "Rock/Blues Rock/Santana/da-le-yaleo.json",
  "path": "Rock\\Blues Rock\\Santana\\(Da Le) Yaleo.mid",
  "name": "(Da Le) Yaleo",
  "difficulty": "Advanced",
  "bpm": 125,
  "notes": [
    {
      "midi": 76,
      "hit": false,
      "t": 11520,
      "d": 41,
      "v": 124
    },
    {
      "midi": 71,
      "hit": false,
      "t": 11520,
      "d": 51,
      "v": 124
    },
    {
      "midi": 81,
      "hit": false,
      "t": 11520,
      "d": 56,
      "v": 123
    },
    {
      "midi": 76,
      "hit": false,
      "t": 11640,
      "d": 71,
      "v": 124
    },
    {
      "midi": 71,
      "hit": false,
      "t": 11640,
      "d": 76,
      "v": 119
    },
    {
      "midi": 81,
      "hit": false,
      "t": 11640,
      "d": 76,
      "v": 94
    },
    {
      "midi": 76,
      "hit": false,
      "t": 11880,
      "d": 56,
      "v": 127
    },
    {
      "midi": 81,
      "hit": false,
      "t": 11880,
      "d": 66,
      "v": 105
    },
    {
      "midi": 71,
      "hit": false,
      "t": 11880,
      "d": 71,
      "v": 120
    },
    {
      "midi": 76,
      "hit": false,
      "t": 12120,
      "d": 51,
      "v": 127
    },
    {
      "midi": 81,
      "hit": false,
      "t": 12120,
      "d": 61,
      "v": 110
    },
    {
      "midi": 71,
      "hit": false,
      "t": 12120,
      "d": 66,
      "v": 127
    },
    {
      "midi": 81,
      "hit": false,
      "t": 12360,
      "d": 151,
      "v": 106
    },
    {
      "midi": 76,
      "hit": false,
      "t": 12360,
      "d": 191,
      "v": 124
    },
    {
      "midi": 71,
      "hit": false,
      "t": 12360,
      "d": 216,
      "v": 124
    },
    {
      "midi": 71,
      "hit": false,
      "t": 12720,
      "d": 111,
      "v": 116
    },
    {
      "midi": 73,
      "hit": false,
      "t": 12720,
      "d": 121,
      "v": 125
    },
    {
      "midi": 76,
      "hit": false,
      "t": 12720,
      "d": 126,
      "v": 124
    },
    {
      "midi": 74,
      "hit": false,
      "t": 12960,
      "d": 116,
      "v": 106
    },
    {
      "midi": 71,
      "hit": false,
      "t": 12960,
      "d": 121,
      "v": 113
    },
    {
      "midi": 69,
      "hit": false,
      "t": 12960,
      "d": 176,
      "v": 82
    },
    {
      "midi": 76,
      "hit": false,
      "t": 13200,
      "d": 71,
      "v": 106
    },
    {
      "midi": 71,
      "hit": false,
      "t": 13200,
      "d": 86,
      "v": 113
    },
    {
      "midi": 73,
      "hit": false,
      "t": 13200,
      "d": 86,
      "v": 113
    },
    {
      "midi": 74,
      "hit": false,
      "t": 13440,
      "d": 41,
      "v": 125
    },
    {
      "midi": 71,
      "hit": false,
      "t": 13440,
      "d": 56,
      "v": 123
    },
    {
      "midi": 79,
      "hit": false,
      "t": 13440,
      "d": 91,
      "v": 109
    },
    {
      "midi": 74,
      "hit": false,
      "t": 13560,
      "d": 76,
      "v": 106
    },
    {
      "midi": 71,
      "hit": false,
      "t": 13560,
      "d": 81,
      "v": 127
    },
    {
      "midi": 79,
      "hit": false,
      "t": 13560,
      "d": 81,
      "v": 71
    },
    {
      "midi": 74,
      "hit": false,
      "t": 13800,
      "d": 66,
      "v": 121
    },
    {
      "midi": 71,
      "hit": false,
      "t": 13800,
      "d": 76,
      "v": 127
    },
    {
      "midi": 79,
      "hit": false,
      "t": 13800,
      "d": 86,
      "v": 104
    },
    {
      "midi": 74,
      "hit": false,
      "t": 14040,
      "d": 66,
      "v": 103
    },
    {
      "midi": 71,
      "hit": false,
      "t": 14040,
      "d": 71,
      "v": 123
    },
    {
      "midi": 79,
      "hit": false,
      "t": 14040,
      "d": 86,
      "v": 111
    },
    {
      "midi": 79,
      "hit": false,
      "t": 14280,
      "d": 151,
      "v": 111
    },
    {
      "midi": 74,
      "hit": false,
      "t": 14280,
      "d": 186,
      "v": 120
    },
    {
      "midi": 71,
      "hit": false,
      "t": 14280,
      "d": 196,
      "v": 127
    },
    {
      "midi": 76,
      "hit": false,
      "t": 14640,
      "d": 116,
      "v": 121
    },
    {
      "midi": 73,
      "hit": false,
      "t": 14640,
      "d": 121,
      "v": 127
    },
    {
      "midi": 69,
      "hit": false,
      "t": 14640,
      "d": 126,
      "v": 118
    },
    {
      "midi": 74,
      "hit": false,
      "t": 14880,
      "d": 111,
      "v": 115
    },
    {
      "midi": 71,
      "hit": false,
      "t": 14880,
      "d": 121,
      "v": 127
    },
    {
      "midi": 67,
      "hit": false,
      "t": 14880,
      "d": 141,
      "v": 117
    },
    {
      "midi": 69,
      "hit": false,
      "t": 15120,
      "d": 76,
      "v": 88
    },
    {
      "midi": 73,
      "hit": false,
      "t": 15120,
      "d": 86,
      "v": 110
    },
    {
      "midi": 76,
      "hit": false,
      "t": 15120,
      "d": 86,
      "v": 109
    },
    {
      "midi": 76,
      "hit": false,
      "t": 15360,
      "d": 41,
      "v": 123
    },
    {
      "midi": 71,
      "hit": false,
      "t": 15360,
      "d": 56,
      "v": 124
    },
    {
      "midi": 81,
      "hit": false,
      "t": 15360,
      "d": 81,
      "v": 108
    },
    {
      "midi": 71,
      "hit": false,
      "t": 15480,
      "d": 76,
      "v": 121
    },
    {
      "midi": 81,
      "hit": false,
      "t": 15480,
      "d": 81,
      "v": 82
    },
    {
      "midi": 76,
      "hit": false,
      "t": 15480,
      "d": 86,
      "v": 120
    },
    {
      "midi": 76,
      "hit": false,
      "t": 15720,
      "d": 66,
      "v": 124
    },
    {
      "midi": 71,
      "hit": false,
      "t": 15720,
      "d": 71,
      "v": 126
    },
    {
      "midi": 81,
      "hit": false,
      "t": 15720,
      "d": 81,
      "v": 110
    },
    {
      "midi": 76,
      "hit": false,
      "t": 15960,
      "d": 51,
      "v": 121
    },
    {
      "midi": 71,
      "hit": false,
      "t": 15960,
      "d": 71,
      "v": 124
    },
    {
      "midi": 81,
      "hit": false,
      "t": 15960,
      "d": 76,
      "v": 104
    },
    {
      "midi": 81,
      "hit": false,
      "t": 16200,
      "d": 111,
      "v": 108
    },
    {
      "midi": 76,
      "hit": false,
      "t": 16200,
      "d": 166,
      "v": 127
    },
    {
      "midi": 71,
      "hit": false,
      "t": 16200,
      "d": 186,
      "v": 125
    },
    {
      "midi": 71,
      "hit": false,
      "t": 16560,
      "d": 126,
      "v": 122
    },
    {
      "midi": 73,
      "hit": false,
      "t": 16560,
      "d": 126,
      "v": 127
    },
    {
      "midi": 76,
      "hit": false,
      "t": 16560,
      "d": 126,
      "v": 121
    },
    {
      "midi": 71,
      "hit": false,
      "t": 16800,
      "d": 106,
      "v": 120
    },
    {
      "midi": 74,
      "hit": false,
      "t": 16800,
      "d": 111,
      "v": 103
    },
    {
      "midi": 69,
      "hit": false,
      "t": 16800,
      "d": 161,
      "v": 80
    },
    {
      "midi": 73,
      "hit": false,
      "t": 17040,
      "d": 76,
      "v": 109
    },
    {
      "midi": 71,
      "hit": false,
      "t": 17040,
      "d": 91,
      "v": 112
    },
    {
      "midi": 76,
      "hit": false,
      "t": 17040,
      "d": 91,
      "v": 115
    },
    {
      "midi": 74,
      "hit": false,
      "t": 17280,
      "d": 41,
      "v": 124
    },
    {
      "midi": 71,
      "hit": false,
      "t": 17280,
      "d": 56,
      "v": 127
    },
    {
      "midi": 79,
      "hit": false,
      "t": 17280,
      "d": 66,
      "v": 109
    },
    {
      "midi": 71,
      "hit": false,
      "t": 17400,
      "d": 76,
      "v": 124
    },
    {
      "midi": 74,
      "hit": false,
      "t": 17400,
      "d": 76,
      "v": 107
    },
    {
      "midi": 79,
      "hit": false,
      "t": 17400,
      "d": 76,
      "v": 73
    },
    {
      "midi": 74,
      "hit": false,
      "t": 17640,
      "d": 76,
      "v": 119
    },
    {
      "midi": 71,
      "hit": false,
      "t": 17640,
      "d": 86,
      "v": 123
    },
    {
      "midi": 79,
      "hit": false,
      "t": 17640,
      "d": 96,
      "v": 98
    },
    {
      "midi": 74,
      "hit": false,
      "t": 17880,
      "d": 61,
      "v": 107
    },
    {
      "midi": 71,
      "hit": false,
      "t": 17880,
      "d": 71,
      "v": 127
    },
    {
      "midi": 79,
      "hit": false,
      "t": 17880,
      "d": 81,
      "v": 98
    },
    {
      "midi": 71,
      "hit": false,
      "t": 18120,
      "d": 146,
      "v": 127
    },
    {
      "midi": 79,
      "hit": false,
      "t": 18120,
      "d": 146,
      "v": 104
    },
    {
      "midi": 74,
      "hit": false,
      "t": 18120,
      "d": 191,
      "v": 126
    },
    {
      "midi": 76,
      "hit": false,
      "t": 18480,
      "d": 106,
      "v": 107
    },
    {
      "midi": 73,
      "hit": false,
      "t": 18480,
      "d": 116,
      "v": 124
    },
    {
      "midi": 69,
      "hit": false,
      "t": 18480,
      "d": 121,
      "v": 113
    },
    {
      "midi": 71,
      "hit": false,
      "t": 18720,
      "d": 116,
      "v": 121
    },
    {
      "midi": 67,
      "hit": false,
      "t": 18720,
      "d": 121,
      "v": 104
    },
    {
      "midi": 74,
      "hit": false,
      "t": 18720,
      "d": 121,
      "v": 103
    },
    {
      "midi": 69,
      "hit": false,
      "t": 18960,
      "d": 86,
      "v": 80
    },
    {
      "midi": 76,
      "hit": false,
      "t": 18960,
      "d": 96,
      "v": 110
    },
    {
      "midi": 73,
      "hit": false,
      "t": 18960,
      "d": 101,
      "v": 119
    },
    {
      "midi": 76,
      "hit": false,
      "t": 19200,
      "d": 36,
      "v": 124
    },
    {
      "midi": 71,
      "hit": false,
      "t": 19200,
      "d": 56,
      "v": 124
    },
    {
      "midi": 81,
      "hit": false,
      "t": 19200,
      "d": 66,
      "v": 116
    },
    {
      "midi": 71,
      "hit": false,
      "t": 19212,
      "d": 823,
      "v": 1
    },
    {
      "midi": 81,
      "hit": false,
      "t": 19320,
      "d": 71,
      "v": 85
    },
    {
      "midi": 76,
      "hit": false,
      "t": 19320,
      "d": 76,
      "v": 127
    },
    {
      "midi": 71,
      "hit": false,
      "t": 19320,
      "d": 86,
      "v": 105
    },
    {
      "midi": 76,
      "hit": false,
      "t": 19560,
      "d": 56,
      "v": 127
    },
    {
      "midi": 71,
      "hit": false,
      "t": 19560,
      "d": 76,
      "v": 125
    },
    {
      "midi": 81,
      "hit": false,
      "t": 19560,
      "d": 86,
      "v": 122
    },
    {
      "midi": 76,
      "hit": false,
      "t": 19800,
      "d": 66,
      "v": 125
    },
    {
      "midi": 71,
      "hit": false,
      "t": 19800,
      "d": 81,
      "v": 122
    },
    {
      "midi": 81,
      "hit": false,
      "t": 19800,
      "d": 91,
      "v": 113
    },
    {
      "midi": 81,
      "hit": false,
      "t": 20040,
      "d": 101,
      "v": 106
    },
    {
      "midi": 76,
      "hit": false,
      "t": 20040,
      "d": 176,
      "v": 124
    },
    {
      "midi": 71,
      "hit": false,
      "t": 20040,
      "d": 211,
      "v": 127
    },
    {
      "midi": 69,
      "hit": false,
      "t": 20040,
      "d": 361,
      "v": 1
    },
    {
      "midi": 73,
      "hit": false,
      "t": 20400,
      "d": 111,
      "v": 122
    },
    {
      "midi": 76,
      "hit": false,
      "t": 20400,
      "d": 116,
      "v": 119
    },
    {
      "midi": 71,
      "hit": false,
      "t": 20400,
      "d": 131,
      "v": 124
    },
    {
      "midi": 71,
      "hit": false,
      "t": 20405,
      "d": 461,
      "v": 1
    },
    {
      "midi": 71,
      "hit": false,
      "t": 20640,
      "d": 101,
      "v": 127
    },
    {
      "midi": 74,
      "hit": false,
      "t": 20640,
      "d": 101,
      "v": 115
    },
    {
      "midi": 69,
      "hit": false,
      "t": 20640,
      "d": 131,
      "v": 76
    },
    {
      "midi": 69,
      "hit": false,
      "t": 20870,
      "d": 248,
      "v": 1
    },
    {
      "midi": 76,
      "hit": false,
      "t": 20880,
      "d": 81,
      "v": 112
    },
    {
      "midi": 71,
      "hit": false,
      "t": 20880,
      "d": 86,
      "v": 108
    },
    {
      "midi": 73,
      "hit": false,
      "t": 20880,
      "d": 86,
      "v": 116
    },
    {
      "midi": 74,
      "hit": false,
      "t": 21120,
      "d": 41,
      "v": 116
    },
    {
      "midi": 71,
      "hit": false,
      "t": 21120,
      "d": 56,
      "v": 124
    },
    {
      "midi": 79,
      "hit": false,
      "t": 21120,
      "d": 66,
      "v": 105
    },
    {
      "midi": 71,
      "hit": false,
      "t": 21122,
      "d": 1188,
      "v": 1
    },
    {
      "midi": 79,
      "hit": false,
      "t": 21240,
      "d": 71,
      "v": 82
    },
    {
      "midi": 74,
      "hit": false,
      "t": 21240,
      "d": 81,
      "v": 112
    },
    {
      "midi": 71,
      "hit": false,
      "t": 21240,
      "d": 86,
      "v": 102
    },
    {
      "midi": 74,
      "hit": false,
      "t": 21480,
      "d": 76,
      "v": 111
    },
    {
      "midi": 71,
      "hit": false,
      "t": 21480,
      "d": 81,
      "v": 122
    },
    {
      "midi": 79,
      "hit": false,
      "t": 21480,
      "d": 86,
      "v": 95
    },
    {
      "midi": 74,
      "hit": false,
      "t": 21720,
      "d": 66,
      "v": 117
    },
    {
      "midi": 71,
      "hit": false,
      "t": 21720,
      "d": 76,
      "v": 121
    },
    {
      "midi": 79,
      "hit": false,
      "t": 21720,
      "d": 86,
      "v": 106
    },
    {
      "midi": 79,
      "hit": false,
      "t": 21960,
      "d": 91,
      "v": 98
    },
    {
      "midi": 71,
      "hit": false,
      "t": 21960,
      "d": 156,
      "v": 118
    },
    {
      "midi": 74,
      "hit": false,
      "t": 21960,
      "d": 161,
      "v": 95
    },
    {
      "midi": 74,
      "hit": false,
      "t": 22315,
      "d": 248,
      "v": 1
    },
    {
      "midi": 76,
      "hit": false,
      "t": 22320,
      "d": 106,
      "v": 123
    },
    {
      "midi": 73,
      "hit": false,
      "t": 22320,
      "d": 116,
      "v": 124
    },
    {
      "midi": 69,
      "hit": false,
      "t": 22320,
      "d": 141,
      "v": 112
    },
    {
      "midi": 71,
      "hit": false,
      "t": 22560,
      "d": 101,
      "v": 115
    },
    {
      "midi": 74,
      "hit": false,
      "t": 22560,
      "d": 101,
      "v": 106
    },
    {
      "midi": 67,
      "hit": false,
      "t": 22560,
      "d": 126,
      "v": 97
    },
    {
      "midi": 69,
      "hit": false,
      "t": 22567,
      "d": 478,
      "v": 1
    },
    {
      "midi": 69,
      "hit": false,
      "t": 22800,
      "d": 81,
      "v": 98
    },
    {
      "midi": 76,
      "hit": false,
      "t": 22800,
      "d": 81,
      "v": 110
    },
    {
      "midi": 73,
      "hit": false,
      "t": 22800,
      "d": 86,
      "v": 111
    },
    {
      "midi": 76,
      "hit": false,
      "t": 23040,
      "d": 36,
      "v": 122
    },
    {
      "midi": 71,
      "hit": false,
      "t": 23040,
      "d": 56,
      "v": 126
    },
    {
      "midi": 81,
      "hit": false,
      "t": 23040,
      "d": 76,
      "v": 109
    },
    {
      "midi": 71,
      "hit": false,
      "t": 23050,
      "d": 838,
      "v": 1
    },
    {
      "midi": 81,
      "hit": false,
      "t": 23160,
      "d": 76,
      "v": 76
    },
    {
      "midi": 71,
      "hit": false,
      "t": 23160,
      "d": 81,
      "v": 118
    },
    {
      "midi": 76,
      "hit": false,
      "t": 23160,
      "d": 96,
      "v": 114
    },
    {
      "midi": 71,
      "hit": false,
      "t": 23400,
      "d": 76,
      "v": 124
    },
    {
      "midi": 76,
      "hit": false,
      "t": 23400,
      "d": 76,
      "v": 117
    },
    {
      "midi": 81,
      "hit": false,
      "t": 23400,
      "d": 91,
      "v": 104
    },
    {
      "midi": 76,
      "hit": false,
      "t": 23640,
      "d": 61,
      "v": 127
    },
    {
      "midi": 71,
      "hit": false,
      "t": 23640,
      "d": 76,
      "v": 122
    },
    {
      "midi": 81,
      "hit": false,
      "t": 23640,
      "d": 86,
      "v": 106
    },
    {
      "midi": 81,
      "hit": false,
      "t": 23880,
      "d": 116,
      "v": 109
    },
    {
      "midi": 71,
      "hit": false,
      "t": 23880,
      "d": 141,
      "v": 123
    },
    {
      "midi": 76,
      "hit": false,
      "t": 23880,
      "d": 141,
      "v": 121
    },
    {
      "midi": 69,
      "hit": false,
      "t": 23892,
      "d": 341,
      "v": 1
    },
    {
      "midi": 71,
      "hit": false,
      "t": 24237,
      "d": 478,
      "v": 1
    },
    {
      "midi": 76,
      "hit": false,
      "t": 24240,
      "d": 116,
      "v": 127
    },
    {
      "midi": 71,
      "hit": false,
      "t": 24240,
      "d": 121,
      "v": 123
    },
    {
      "midi": 73,
      "hit": false,
      "t": 24240,
      "d": 121,
      "v": 127
    },
    {
      "midi": 71,
      "hit": false,
      "t": 24480,
      "d": 96,
      "v": 115
    },
    {
      "midi": 74,
      "hit": false,
      "t": 24480,
      "d": 101,
      "v": 103
    },
    {
      "midi": 69,
      "hit": false,
      "t": 24480,
      "d": 141,
      "v": 84
    },
    {
      "midi": 73,
      "hit": false,
      "t": 24720,
      "d": 61,
      "v": 98
    },
    {
      "midi": 76,
      "hit": false,
      "t": 24720,
      "d": 76,
      "v": 107
    },
    {
      "midi": 71,
      "hit": false,
      "t": 24720,
      "d": 86,
      "v": 95
    },
    {
      "midi": 69,
      "hit": false,
      "t": 24720,
      "d": 243,
      "v": 1
    },
    {
      "midi": 74,
      "hit": false,
      "t": 24960,
      "d": 46,
      "v": 112
    },
    {
      "midi": 71,
      "hit": false,
      "t": 24960,
      "d": 56,
      "v": 126
    },
    {
      "midi": 79,
      "hit": false,
      "t": 24960,
      "d": 76,
      "v": 107
    },
    {
      "midi": 71,
      "hit": false,
      "t": 24967,
      "d": 1176,
      "v": 1
    },
    {
      "midi": 71,
      "hit": false,
      "t": 25080,
      "d": 81,
      "v": 115
    },
    {
      "midi": 79,
      "hit": false,
      "t": 25080,
      "d": 81,
      "v": 95
    },
    {
      "midi": 74,
      "hit": false,
      "t": 25080,
      "d": 86,
      "v": 102
    },
    {
      "midi": 71,
      "hit": false,
      "t": 25320,
      "d": 81,
      "v": 125
    },
    {
      "midi": 74,
      "hit": false,
      "t": 25320,
      "d": 81,
      "v": 113
    },
    {
      "midi": 79,
      "hit": false,
      "t": 25320,
      "d": 91,
      "v": 95
    },
    {
      "midi": 74,
      "hit": false,
      "t": 25560,
      "d": 71,
      "v": 107
    },
    {
      "midi": 71,
      "hit": false,
      "t": 25560,
      "d": 86,
      "v": 125
    },
    {
      "midi": 79,
      "hit": false,
      "t": 25560,
      "d": 86,
      "v": 103
    },
    {
      "midi": 79,
      "hit": false,
      "t": 25800,
      "d": 106,
      "v": 105
    },
    {
      "midi": 71,
      "hit": false,
      "t": 25800,
      "d": 136,
      "v": 127
    },
    {
      "midi": 74,
      "hit": false,
      "t": 25800,
      "d": 146,
      "v": 117
    },
    {
      "midi": 74,
      "hit": false,
      "t": 26147,
      "d": 248,
      "v": 1
    },
    {
      "midi": 71,
      "hit": false,
      "t": 26160,
      "d": 61,
      "v": 125
    },
    {
      "midi": 76,
      "hit": false,
      "t": 26160,
      "d": 126,
      "v": 115
    },
    {
      "midi": 73,
      "hit": false,
      "t": 26160,
      "d": 131,
      "v": 126
    },
    {
      "midi": 71,
      "hit": false,
      "t": 26400,
      "d": 116,
      "v": 106
    },
    {
      "midi": 74,
      "hit": false,
      "t": 26400,
      "d": 126,
      "v": 106
    },
    {
      "midi": 67,
      "hit": false,
      "t": 26400,
      "d": 196,
      "v": 109
    },
    {
      "midi": 69,
      "hit": false,
      "t": 26400,
      "d": 498,
      "v": 1
    },
    {
      "midi": 69,
      "hit": false,
      "t": 26640,
      "d": 66,
      "v": 88
    },
    {
      "midi": 73,
      "hit": false,
      "t": 26640,
      "d": 76,
      "v": 98
    },
    {
      "midi": 76,
      "hit": false,
      "t": 26640,
      "d": 81,
      "v": 102
    },
    {
      "midi": 76,
      "hit": false,
      "t": 26880,
      "d": 41,
      "v": 116
    },
    {
      "midi": 71,
      "hit": false,
      "t": 26880,
      "d": 56,
      "v": 127
    },
    {
      "midi": 81,
      "hit": false,
      "t": 26880,
      "d": 66,
      "v": 102
    },
    {
      "midi": 71,
      "hit": false,
      "t": 26902,
      "d": 833,
      "v": 1
    },
    {
      "midi": 81,
      "hit": false,
      "t": 27000,
      "d": 51,
      "v": 63
    },
    {
      "midi": 71,
      "hit": false,
      "t": 27000,
      "d": 76,
      "v": 116
    },
    {
      "midi": 76,
      "hit": false,
      "t": 27000,
      "d": 76,
      "v": 101
    },
    {
      "midi": 71,
      "hit": false,
      "t": 27240,
      "d": 81,
      "v": 123
    },
    {
      "midi": 76,
      "hit": false,
      "t": 27240,
      "d": 81,
      "v": 121
    },
    {
      "midi": 81,
      "hit": false,
      "t": 27240,
      "d": 101,
      "v": 105
    },
    {
      "midi": 76,
      "hit": false,
      "t": 27480,
      "d": 51,
      "v": 123
    },
    {
      "midi": 71,
      "hit": false,
      "t": 27480,
      "d": 71,
      "v": 124
    },
    {
      "midi": 81,
      "hit": false,
      "t": 27480,
      "d": 91,
      "v": 112
    },
    {
      "midi": 81,
      "hit": false,
      "t": 27720,
      "d": 126,
      "v": 101
    },
    {
      "midi": 76,
      "hit": false,
      "t": 27720,
      "d": 171,
      "v": 115
    },
    {
      "midi": 71,
      "hit": false,
      "t": 27720,
      "d": 206,
      "v": 126
    },
    {
      "midi": 69,
      "hit": false,
      "t": 27740,
      "d": 341,
      "v": 1
    },
    {
      "midi": 71,
      "hit": false,
      "t": 28080,
      "d": 101,
      "v": 127
    },
    {
      "midi": 73,
      "hit": false,
      "t": 28080,
      "d": 106,
      "v": 122
    },
    {
      "midi": 76,
      "hit": false,
      "t": 28080,
      "d": 111,
      "v": 127
    },
    {
      "midi": 71,
      "hit": false,
      "t": 28085,
      "d": 471,
      "v": 1
    },
    {
      "midi": 71,
      "hit": false,
      "t": 28320,
      "d": 96,
      "v": 115
    },
    {
      "midi": 74,
      "hit": false,
      "t": 28320,
      "d": 96,
      "v": 116
    },
    {
      "midi": 69,
      "hit": false,
      "t": 28320,
      "d": 131,
      "v": 79
    },
    {
      "midi": 73,
      "hit": false,
      "t": 28560,
      "d": 71,
      "v": 113
    },
    {
      "midi": 76,
      "hit": false,
      "t": 28560,
      "d": 76,
      "v": 105
    },
    {
      "midi": 71,
      "hit": false,
      "t": 28560,
      "d": 86,
      "v": 118
    },
    {
      "midi": 69,
      "hit": false,
      "t": 28560,
      "d": 248,
      "v": 1
    },
    {
      "midi": 74,
      "hit": false,
      "t": 28800,
      "d": 41,
      "v": 119
    },
    {
      "midi": 71,
      "hit": false,
      "t": 28800,
      "d": 51,
      "v": 127
    },
    {
      "midi": 79,
      "hit": false,
      "t": 28800,
      "d": 66,
      "v": 106
    },
    {
      "midi": 71,
      "hit": false,
      "t": 28812,
      "d": 1176,
      "v": 1
    },
    {
      "midi": 79,
      "hit": false,
      "t": 28920,
      "d": 76,
      "v": 76
    },
    {
      "midi": 71,
      "hit": false,
      "t": 28920,
      "d": 86,
      "v": 115
    },
    {
      "midi": 74,
      "hit": false,
      "t": 28920,
      "d": 86,
      "v": 109
    },
    {
      "midi": 74,
      "hit": false,
      "t": 29160,
      "d": 66,
      "v": 118
    },
    {
      "midi": 71,
      "hit": false,
      "t": 29160,
      "d": 86,
      "v": 126
    },
    {
      "midi": 79,
      "hit": false,
      "t": 29160,
      "d": 91,
      "v": 104
    },
    {
      "midi": 74,
      "hit": false,
      "t": 29400,
      "d": 76,
      "v": 108
    },
    {
      "midi": 71,
      "hit": false,
      "t": 29400,
      "d": 86,
      "v": 124
    },
    {
      "midi": 79,
      "hit": false,
      "t": 29400,
      "d": 91,
      "v": 95
    },
    {
      "midi": 79,
      "hit": false,
      "t": 29640,
      "d": 111,
      "v": 99
    },
    {
      "midi": 71,
      "hit": false,
      "t": 29640,
      "d": 136,
      "v": 117
    },
    {
      "midi": 74,
      "hit": false,
      "t": 29640,
      "d": 161,
      "v": 112
    },
    {
      "midi": 74,
      "hit": false,
      "t": 29992,
      "d": 238,
      "v": 1
    },
    {
      "midi": 76,
      "hit": false,
      "t": 30000,
      "d": 101,
      "v": 118
    },
    {
      "midi": 73,
      "hit": false,
      "t": 30000,
      "d": 121,
      "v": 125
    },
    {
      "midi": 69,
      "hit": false,
      "t": 30000,
      "d": 136,
      "v": 107
    },
    {
      "midi": 69,
      "hit": false,
      "t": 30235,
      "d": 483,
      "v": 1
    },
    {
      "midi": 74,
      "hit": false,
      "t": 30240,
      "d": 96,
      "v": 113
    },
    {
      "midi": 71,
      "hit": false,
      "t": 30240,
      "d": 101,
      "v": 122
    },
    {
      "midi": 67,
      "hit": false,
      "t": 30240,
      "d": 136,
      "v": 93
    },
    {
      "midi": 76,
      "hit": false,
      "t": 30480,
      "d": 76,
      "v": 98
    },
    {
      "midi": 69,
      "hit": false,
      "t": 30480,
      "d": 81,
      "v": 89
    },
    {
      "midi": 73,
      "hit": false,
      "t": 30480,
      "d": 81,
      "v": 100
    },
    {
      "midi": 76,
      "hit": false,
      "t": 30720,
      "d": 36,
      "v": 122
    },
    {
      "midi": 71,
      "hit": false,
      "t": 30720,
      "d": 56,
      "v": 121
    },
    {
      "midi": 81,
      "hit": false,
      "t": 30720,
      "d": 71,
      "v": 101
    },
    {
      "midi": 71,
      "hit": false,
      "t": 30722,
      "d": 831,
      "v": 1
    },
    {
      "midi": 71,
      "hit": false,
      "t": 30840,
      "d": 71,
      "v": 103
    },
    {
      "midi": 81,
      "hit": false,
      "t": 30840,
      "d": 81,
      "v": 71
    },
    {
      "midi": 76,
      "hit": false,
      "t": 30840,
      "d": 86,
      "v": 106
    },
    {
      "midi": 76,
      "hit": false,
      "t": 31080,
      "d": 66,
      "v": 122
    },
    {
      "midi": 71,
      "hit": false,
      "t": 31080,
      "d": 76,
      "v": 124
    },
    {
      "midi": 81,
      "hit": false,
      "t": 31080,
      "d": 86,
      "v": 97
    },
    {
      "midi": 76,
      "hit": false,
      "t": 31320,
      "d": 76,
      "v": 123
    },
    {
      "midi": 71,
      "hit": false,
      "t": 31320,
      "d": 81,
      "v": 121
    },
    {
      "midi": 81,
      "hit": false,
      "t": 31320,
      "d": 101,
      "v": 99
    },
    {
      "midi": 69,
      "hit": false,
      "t": 31557,
      "d": 361,
      "v": 1
    },
    {
      "midi": 81,
      "hit": false,
      "t": 31560,
      "d": 186,
      "v": 119
    },
    {
      "midi": 71,
      "hit": false,
      "t": 31560,
      "d": 216,
      "v": 119
    },
    {
      "midi": 76,
      "hit": false,
      "t": 31560,
      "d": 226,
      "v": 125
    },
    {
      "midi": 71,
      "hit": false,
      "t": 31912,
      "d": 483,
      "v": 1
    },
    {
      "midi": 76,
      "hit": false,
      "t": 31920,
      "d": 126,
      "v": 127
    },
    {
      "midi": 73,
      "hit": false,
      "t": 31920,
      "d": 131,
      "v": 125
    },
    {
      "midi": 69,
      "hit": false,
      "t": 32160,
      "d": 116,
      "v": 89
    },
    {
      "midi": 71,
      "hit": false,
      "t": 32160,
      "d": 116,
      "v": 101
    },
    {
      "midi": 74,
      "hit": false,
      "t": 32160,
      "d": 116,
      "v": 101
    },
    {
      "midi": 71,
      "hit": false,
      "t": 32400,
      "d": 46,
      "v": 81
    },
    {
      "midi": 73,
      "hit": false,
      "t": 32400,
      "d": 86,
      "v": 118
    },
    {
      "midi": 76,
      "hit": false,
      "t": 32400,
      "d": 91,
      "v": 114
    },
    {
      "midi": 69,
      "hit": false,
      "t": 32400,
      "d": 253,
      "v": 1
    },
    {
      "midi": 74,
      "hit": false,
      "t": 32640,
      "d": 46,
      "v": 118
    },
    {
      "midi": 71,
      "hit": false,
      "t": 32640,
      "d": 56,
      "v": 121
    },
    {
      "midi": 79,
      "hit": false,
      "t": 32640,
      "d": 66,
      "v": 105
    },
    {
      "midi": 71,
      "hit": false,
      "t": 32657,
      "d": 1158,
      "v": 1
    },
    {
      "midi": 74,
      "hit": false,
      "t": 32760,
      "d": 76,
      "v": 94
    },
    {
      "midi": 79,
      "hit": false,
      "t": 32760,
      "d": 76,
      "v": 62
    },
    {
      "midi": 71,
      "hit": false,
      "t": 32760,
      "d": 81,
      "v": 117
    },
    {
      "midi": 74,
      "hit": false,
      "t": 33000,
      "d": 71,
      "v": 113
    },
    {
      "midi": 71,
      "hit": false,
      "t": 33000,
      "d": 81,
      "v": 115
    },
    {
      "midi": 79,
      "hit": false,
      "t": 33000,
      "d": 91,
      "v": 95
    },
    {
      "midi": 74,
      "hit": false,
      "t": 33240,
      "d": 66,
      "v": 119
    },
    {
      "midi": 71,
      "hit": false,
      "t": 33240,
      "d": 86,
      "v": 119
    },
    {
      "midi": 79,
      "hit": false,
      "t": 33240,
      "d": 86,
      "v": 102
    },
    {
      "midi": 79,
      "hit": false,
      "t": 33480,
      "d": 146,
      "v": 103
    },
    {
      "midi": 71,
      "hit": false,
      "t": 33480,
      "d": 156,
      "v": 119
    },
    {
      "midi": 74,
      "hit": false,
      "t": 33480,
      "d": 166,
      "v": 113
    },
    {
      "midi": 74,
      "hit": false,
      "t": 33820,
      "d": 256,
      "v": 1
    },
    {
      "midi": 76,
      "hit": false,
      "t": 33840,
      "d": 111,
      "v": 112
    },
    {
      "midi": 73,
      "hit": false,
      "t": 33840,
      "d": 116,
      "v": 124
    },
    {
      "midi": 69,
      "hit": false,
      "t": 33840,
      "d": 126,
      "v": 110
    },
    {
      "midi": 74,
      "hit": false,
      "t": 34080,
      "d": 96,
      "v": 119
    },
    {
      "midi": 71,
      "hit": false,
      "t": 34080,
      "d": 106,
      "v": 118
    },
    {
      "midi": 67,
      "hit": false,
      "t": 34080,
      "d": 131,
      "v": 95
    },
    {
      "midi": 69,
      "hit": false,
      "t": 34080,
      "d": 488,
      "v": 1
    },
    {
      "midi": 69,
      "hit": false,
      "t": 34320,
      "d": 81,
      "v": 95
    },
    {
      "midi": 73,
      "hit": false,
      "t": 34320,
      "d": 86,
      "v": 107
    },
    {
      "midi": 76,
      "hit": false,
      "t": 34320,
      "d": 91,
      "v": 111
    },
    {
      "midi": 76,
      "hit": false,
      "t": 34560,
      "d": 41,
      "v": 118
    },
    {
      "midi": 81,
      "hit": false,
      "t": 34560,
      "d": 51,
      "v": 104
    },
    {
      "midi": 71,
      "hit": false,
      "t": 34560,
      "d": 56,
      "v": 121
    },
    {
      "midi": 71,
      "hit": false,
      "t": 34572,
      "d": 826,
      "v": 1
    },
    {
      "midi": 71,
      "hit": false,
      "t": 34680,
      "d": 71,
      "v": 103
    },
    {
      "midi": 81,
      "hit": false,
      "t": 34680,
      "d": 71,
      "v": 67
    },
    {
      "midi": 76,
      "hit": false,
      "t": 34680,
      "d": 81,
      "v": 110
    },
    {
      "midi": 76,
      "hit": false,
      "t": 34920,
      "d": 71,
      "v": 123
    },
    {
      "midi": 71,
      "hit": false,
      "t": 34920,
      "d": 81,
      "v": 120
    },
    {
      "midi": 81,
      "hit": false,
      "t": 34920,
      "d": 86,
      "v": 102
    },
    {
      "midi": 76,
      "hit": false,
      "t": 35160,
      "d": 71,
      "v": 115
    },
    {
      "midi": 71,
      "hit": false,
      "t": 35160,
      "d": 76,
      "v": 120
    },
    {
      "midi": 81,
      "hit": false,
      "t": 35160,
      "d": 81,
      "v": 97
    },
    {
      "midi": 81,
      "hit": false,
      "t": 35400,
      "d": 121,
      "v": 104
    },
    {
      "midi": 76,
      "hit": false,
      "t": 35400,
      "d": 171,
      "v": 127
    },
    {
      "midi": 71,
      "hit": false,
      "t": 35400,
      "d": 186,
      "v": 124
    },
    {
      "midi": 69,
      "hit": false,
      "t": 35402,
      "d": 346,
      "v": 1
    },
    {
      "midi": 71,
      "hit": false,
      "t": 35752,
      "d": 478,
      "v": 1
    },
    {
      "midi": 76,
      "hit": false,
      "t": 35760,
      "d": 106,
      "v": 124
    },
    {
      "midi": 71,
      "hit": false,
      "t": 35760,
      "d": 121,
      "v": 119
    },
    {
      "midi": 73,
      "hit": false,
      "t": 35760,
      "d": 126,
      "v": 127
    },
    {
      "midi": 71,
      "hit": false,
      "t": 36000,
      "d": 106,
      "v": 112
    },
    {
      "midi": 74,
      "hit": false,
      "t": 36000,
      "d": 106,
      "v": 104
    },
    {
      "midi": 69,
      "hit": false,
      "t": 36000,
      "d": 126,
      "v": 84
    },
    {
      "midi": 69,
      "hit": false,
      "t": 36235,
      "d": 248,
      "v": 1
    },
    {
      "midi": 75,
      "hit": false,
      "t": 36240,
      "d": 41,
      "v": 59
    },
    {
      "midi": 76,
      "hit": false,
      "t": 36240,
      "d": 71,
      "v": 116
    },
    {
      "midi": 73,
      "hit": false,
      "t": 36240,
      "d": 86,
      "v": 113
    },
    {
      "midi": 71,
      "hit": false,
      "t": 36240,
      "d": 91,
      "v": 114
    },
    {
      "midi": 74,
      "hit": false,
      "t": 36480,
      "d": 41,
      "v": 117
    },
    {
      "midi": 71,
      "hit": false,
      "t": 36480,
      "d": 56,
      "v": 124
    },
    {
      "midi": 79,
      "hit": false,
      "t": 36480,
      "d": 176,
      "v": 104
    },
    {
      "midi": 71,
      "hit": false,
      "t": 36487,
      "d": 1198,
      "v": 1
    },
    {
      "midi": 74,
      "hit": false,
      "t": 36600,
      "d": 76,
      "v": 99
    },
    {
      "midi": 71,
      "hit": false,
      "t": 36600,
      "d": 81,
      "v": 116
    },
    {
      "midi": 74,
      "hit": false,
      "t": 36840,
      "d": 71,
      "v": 114
    },
    {
      "midi": 71,
      "hit": false,
      "t": 36840,
      "d": 81,
      "v": 125
    },
    {
      "midi": 79,
      "hit": false,
      "t": 36840,
      "d": 91,
      "v": 94
    },
    {
      "midi": 74,
      "hit": false,
      "t": 37080,
      "d": 71,
      "v": 103
    },
    {
      "midi": 71,
      "hit": false,
      "t": 37080,
      "d": 81,
      "v": 125
    },
    {
      "midi": 79,
      "hit": false,
      "t": 37080,
      "d": 86,
      "v": 89
    },
    {
      "midi": 79,
      "hit": false,
      "t": 37320,
      "d": 116,
      "v": 98
    },
    {
      "midi": 71,
      "hit": false,
      "t": 37320,
      "d": 141,
      "v": 122
    },
    {
      "midi": 74,
      "hit": false,
      "t": 37320,
      "d": 171,
      "v": 118
    },
    {
      "midi": 76,
      "hit": false,
      "t": 37680,
      "d": 86,
      "v": 115
    },
    {
      "midi": 73,
      "hit": false,
      "t": 37680,
      "d": 121,
      "v": 125
    },
    {
      "midi": 69,
      "hit": false,
      "t": 37680,
      "d": 131,
      "v": 115
    },
    {
      "midi": 74,
      "hit": false,
      "t": 37690,
      "d": 243,
      "v": 1
    },
    {
      "midi": 74,
      "hit": false,
      "t": 37920,
      "d": 96,
      "v": 106
    },
    {
      "midi": 71,
      "hit": false,
      "t": 37920,
      "d": 101,
      "v": 113
    },
    {
      "midi": 67,
      "hit": false,
      "t": 37920,
      "d": 116,
      "v": 110
    },
    {
      "midi": 69,
      "hit": false,
      "t": 37937,
      "d": 476,
      "v": 1
    },
    {
      "midi": 76,
      "hit": false,
      "t": 38160,
      "d": 71,
      "v": 110
    },
    {
      "midi": 73,
      "hit": false,
      "t": 38160,
      "d": 81,
      "v": 110
    },
    {
      "midi": 69,
      "hit": false,
      "t": 38160,
      "d": 86,
      "v": 91
    },
    {
      "midi": 76,
      "hit": false,
      "t": 38400,
      "d": 46,
      "v": 125
    },
    {
      "midi": 71,
      "hit": false,
      "t": 38400,
      "d": 61,
      "v": 123
    },
    {
      "midi": 81,
      "hit": false,
      "t": 38400,
      "d": 66,
      "v": 108
    },
    {
      "midi": 71,
      "hit": false,
      "t": 38417,
      "d": 828,
      "v": 1
    },
    {
      "midi": 81,
      "hit": false,
      "t": 38520,
      "d": 56,
      "v": 66
    },
    {
      "midi": 71,
      "hit": false,
      "t": 38520,
      "d": 71,
      "v": 101
    },
    {
      "midi": 76,
      "hit": false,
      "t": 38520,
      "d": 71,
      "v": 103
    },
    {
      "midi": 76,
      "hit": false,
      "t": 38760,
      "d": 66,
      "v": 124
    },
    {
      "midi": 71,
      "hit": false,
      "t": 38760,
      "d": 81,
      "v": 121
    },
    {
      "midi": 81,
      "hit": false,
      "t": 38760,
      "d": 86,
      "v": 105
    },
    {
      "midi": 71,
      "hit": false,
      "t": 39000,
      "d": 71,
      "v": 127
    },
    {
      "midi": 76,
      "hit": false,
      "t": 39000,
      "d": 71,
      "v": 127
    },
    {
      "midi": 81,
      "hit": false,
      "t": 39000,
      "d": 96,
      "v": 99
    },
    {
      "midi": 81,
      "hit": false,
      "t": 39240,
      "d": 156,
      "v": 105
    },
    {
      "midi": 71,
      "hit": false,
      "t": 39240,
      "d": 181,
      "v": 127
    },
    {
      "midi": 76,
      "hit": false,
      "t": 39240,
      "d": 201,
      "v": 126
    },
    {
      "midi": 69,
      "hit": false,
      "t": 39250,
      "d": 346,
      "v": 1
    },
    {
      "midi": 76,
      "hit": false,
      "t": 39600,
      "d": 66,
      "v": 87
    },
    {
      "midi": 71,
      "hit": false,
      "t": 39600,
      "d": 101,
      "v": 124
    },
    {
      "midi": 73,
      "hit": false,
      "t": 39600,
      "d": 101,
      "v": 122
    },
    {
      "midi": 71,
      "hit": false,
      "t": 39600,
      "d": 483,
      "v": 1
    },
    {
      "midi": 74,
      "hit": false,
      "t": 39840,
      "d": 91,
      "v": 121
    },
    {
      "midi": 71,
      "hit": false,
      "t": 39840,
      "d": 101,
      "v": 119
    },
    {
      "midi": 69,
      "hit": false,
      "t": 39840,
      "d": 121,
      "v": 91
    },
    {
      "midi": 73,
      "hit": false,
      "t": 40080,
      "d": 71,
      "v": 111
    },
    {
      "midi": 76,
      "hit": false,
      "t": 40080,
      "d": 71,
      "v": 112
    },
    {
      "midi": 71,
      "hit": false,
      "t": 40080,
      "d": 81,
      "v": 121
    },
    {
      "midi": 69,
      "hit": false,
      "t": 40087,
      "d": 258,
      "v": 1
    },
    {
      "midi": 74,
      "hit": false,
      "t": 40320,
      "d": 41,
      "v": 114
    },
    {
      "midi": 71,
      "hit": false,
      "t": 40320,
      "d": 56,
      "v": 122
    },
    {
      "midi": 79,
      "hit": false,
      "t": 40320,
      "d": 66,
      "v": 99
    },
    {
      "midi": 71,
      "hit": false,
      "t": 40350,
      "d": 1148,
      "v": 1
    },
    {
      "midi": 71,
      "hit": false,
      "t": 40440,
      "d": 81,
      "v": 107
    },
    {
      "midi": 74,
      "hit": false,
      "t": 40440,
      "d": 81,
      "v": 120
    },
    {
      "midi": 79,
      "hit": false,
      "t": 40440,
      "d": 81,
      "v": 82
    },
    {
      "midi": 74,
      "hit": false,
      "t": 40680,
      "d": 76,
      "v": 110
    },
    {
      "midi": 71,
      "hit": false,
      "t": 40680,
      "d": 81,
      "v": 112
    },
    {
      "midi": 79,
      "hit": false,
      "t": 40680,
      "d": 81,
      "v": 97
    },
    {
      "midi": 74,
      "hit": false,
      "t": 40920,
      "d": 71,
      "v": 117
    },
    {
      "midi": 71,
      "hit": false,
      "t": 40920,
      "d": 81,
      "v": 122
    },
    {
      "midi": 79,
      "hit": false,
      "t": 40920,
      "d": 81,
      "v": 103
    },
    {
      "midi": 79,
      "hit": false,
      "t": 41160,
      "d": 111,
      "v": 99
    },
    {
      "midi": 71,
      "hit": false,
      "t": 41160,
      "d": 131,
      "v": 122
    },
    {
      "midi": 74,
      "hit": false,
      "t": 41160,
      "d": 166,
      "v": 120
    },
    {
      "midi": 74,
      "hit": false,
      "t": 41502,
      "d": 251,
      "v": 1
    },
    {
      "midi": 76,
      "hit": false,
      "t": 41520,
      "d": 96,
      "v": 117
    },
    {
      "midi": 73,
      "hit": false,
      "t": 41520,
      "d": 116,
      "v": 119
    },
    {
      "midi": 69,
      "hit": false,
      "t": 41520,
      "d": 126,
      "v": 120
    },
    {
      "midi": 69,
      "hit": false,
      "t": 41757,
      "d": 501,
      "v": 1
    },
    {
      "midi": 71,
      "hit": false,
      "t": 41760,
      "d": 126,
      "v": 115
    },
    {
      "midi": 74,
      "hit": false,
      "t": 41760,
      "d": 126,
      "v": 108
    },
    {
      "midi": 67,
      "hit": false,
      "t": 41760,
      "d": 151,
      "v": 95
    },
    {
      "midi": 76,
      "hit": false,
      "t": 42000,
      "d": 111,
      "v": 110
    },
    {
      "midi": 69,
      "hit": false,
      "t": 42000,
      "d": 121,
      "v": 107
    },
    {
      "midi": 73,
      "hit": false,
      "t": 42000,
      "d": 121,
      "v": 102
    },
    {
      "midi": 76,
      "hit": false,
      "t": 42240,
      "d": 41,
      "v": 127
    },
    {
      "midi": 71,
      "hit": false,
      "t": 42240,
      "d": 46,
      "v": 115
    },
    {
      "midi": 81,
      "hit": false,
      "t": 42240,
      "d": 51,
      "v": 110
    },
    {
      "midi": 71,
      "hit": false,
      "t": 42262,
      "d": 823,
      "v": 1
    },
    {
      "midi": 76,
      "hit": false,
      "t": 42360,
      "d": 56,
      "v": 117
    },
    {
      "midi": 81,
      "hit": false,
      "t": 42360,
      "d": 56,
      "v": 86
    },
    {
      "midi": 71,
      "hit": false,
      "t": 42360,
      "d": 76,
      "v": 124
    },
    {
      "midi": 76,
      "hit": false,
      "t": 42600,
      "d": 46,
      "v": 122
    },
    {
      "midi": 71,
      "hit": false,
      "t": 42600,
      "d": 66,
      "v": 115
    },
    {
      "midi": 81,
      "hit": false,
      "t": 42600,
      "d": 66,
      "v": 103
    },
    {
      "midi": 76,
      "hit": false,
      "t": 42840,
      "d": 51,
      "v": 126
    },
    {
      "midi": 81,
      "hit": false,
      "t": 42840,
      "d": 61,
      "v": 102
    },
    {
      "midi": 71,
      "hit": false,
      "t": 42840,
      "d": 71,
      "v": 127
    },
    {
      "midi": 81,
      "hit": false,
      "t": 43080,
      "d": 126,
      "v": 104
    },
    {
      "midi": 76,
      "hit": false,
      "t": 43080,
      "d": 191,
      "v": 125
    },
    {
      "midi": 71,
      "hit": false,
      "t": 43080,
      "d": 201,
      "v": 121
    },
    {
      "midi": 69,
      "hit": false,
      "t": 43090,
      "d": 358,
      "v": 1
    },
    {
      "midi": 71,
      "hit": false,
      "t": 43440,
      "d": 116,
      "v": 110
    },
    {
      "midi": 73,
      "hit": false,
      "t": 43440,
      "d": 161,
      "v": 126
    },
    {
      "midi": 76,
      "hit": false,
      "t": 43440,
      "d": 166,
      "v": 123
    },
    {
      "midi": 71,
      "hit": false,
      "t": 43452,
      "d": 478,
      "v": 1
    },
    {
      "midi": 74,
      "hit": false,
      "t": 43680,
      "d": 136,
      "v": 96
    },
    {
      "midi": 71,
      "hit": false,
      "t": 43680,
      "d": 141,
      "v": 98
    },
    {
      "midi": 69,
      "hit": false,
      "t": 43680,
      "d": 181,
      "v": 83
    },
    {
      "midi": 71,
      "hit": false,
      "t": 43920,
      "d": 81,
      "v": 109
    },
    {
      "midi": 73,
      "hit": false,
      "t": 43920,
      "d": 81,
      "v": 110
    },
    {
      "midi": 76,
      "hit": false,
      "t": 43920,
      "d": 86,
      "v": 101
    },
    {
      "midi": 69,
      "hit": false,
      "t": 43935,
      "d": 256,
      "v": 1
    },
    {
      "midi": 74,
      "hit": false,
      "t": 44160,
      "d": 41,
      "v": 121
    },
    {
      "midi": 71,
      "hit": false,
      "t": 44160,
      "d": 51,
      "v": 126
    },
    {
      "midi": 79,
      "hit": false,
      "t": 44160,
      "d": 71,
      "v": 103
    },
    {
      "midi": 71,
      "hit": false,
      "t": 44195,
      "d": 1151,
      "v": 1
    },
    {
      "midi": 71,
      "hit": false,
      "t": 44280,
      "d": 71,
      "v": 127
    },
    {
      "midi": 74,
      "hit": false,
      "t": 44280,
      "d": 71,
      "v": 102
    },
    {
      "midi": 79,
      "hit": false,
      "t": 44280,
      "d": 76,
      "v": 96
    },
    {
      "midi": 74,
      "hit": false,
      "t": 44520,
      "d": 66,
      "v": 116
    },
    {
      "midi": 71,
      "hit": false,
      "t": 44520,
      "d": 71,
      "v": 124
    },
    {
      "midi": 79,
      "hit": false,
      "t": 44520,
      "d": 76,
      "v": 97
    },
    {
      "midi": 74,
      "hit": false,
      "t": 44760,
      "d": 56,
      "v": 121
    },
    {
      "midi": 71,
      "hit": false,
      "t": 44760,
      "d": 66,
      "v": 125
    },
    {
      "midi": 79,
      "hit": false,
      "t": 44760,
      "d": 76,
      "v": 117
    },
    {
      "midi": 79,
      "hit": false,
      "t": 45000,
      "d": 181,
      "v": 98
    },
    {
      "midi": 71,
      "hit": false,
      "t": 45000,
      "d": 206,
      "v": 127
    },
    {
      "midi": 74,
      "hit": false,
      "t": 45000,
      "d": 231,
      "v": 117
    },
    {
      "midi": 74,
      "hit": false,
      "t": 45350,
      "d": 246,
      "v": 1
    },
    {
      "midi": 76,
      "hit": false,
      "t": 45360,
      "d": 136,
      "v": 127
    },
    {
      "midi": 73,
      "hit": false,
      "t": 45360,
      "d": 141,
      "v": 124
    },
    {
      "midi": 69,
      "hit": false,
      "t": 45360,
      "d": 196,
      "v": 111
    },
    {
      "midi": 74,
      "hit": false,
      "t": 45600,
      "d": 161,
      "v": 113
    },
    {
      "midi": 71,
      "hit": false,
      "t": 45600,
      "d": 166,
      "v": 111
    },
    {
      "midi": 67,
      "hit": false,
      "t": 45600,
      "d": 216,
      "v": 106
    },
    {
      "midi": 69,
      "hit": false,
      "t": 45600,
      "d": 498,
      "v": 1
    },
    {
      "midi": 69,
      "hit": false,
      "t": 45840,
      "d": 146,
      "v": 111
    },
    {
      "midi": 73,
      "hit": false,
      "t": 45840,
      "d": 146,
      "v": 97
    },
    {
      "midi": 76,
      "hit": false,
      "t": 45840,
      "d": 151,
      "v": 92
    },
    {
      "midi": 76,
      "hit": false,
      "t": 46080,
      "d": 26,
      "v": 125
    },
    {
      "midi": 71,
      "hit": false,
      "t": 46080,
      "d": 31,
      "v": 119
    },
    {
      "midi": 81,
      "hit": false,
      "t": 46080,
      "d": 46,
      "v": 113
    },
    {
      "midi": 71,
      "hit": false,
      "t": 46102,
      "d": 831,
      "v": 1
    },
    {
      "midi": 76,
      "hit": false,
      "t": 46200,
      "d": 61,
      "v": 118
    },
    {
      "midi": 81,
      "hit": false,
      "t": 46200,
      "d": 71,
      "v": 102
    },
    {
      "midi": 71,
      "hit": false,
      "t": 46200,
      "d": 76,
      "v": 122
    },
    {
      "midi": 76,
      "hit": false,
      "t": 46440,
      "d": 41,
      "v": 106
    },
    {
      "midi": 71,
      "hit": false,
      "t": 46440,
      "d": 61,
      "v": 114
    },
    {
      "midi": 81,
      "hit": false,
      "t": 46440,
      "d": 66,
      "v": 97
    },
    {
      "midi": 76,
      "hit": false,
      "t": 46680,
      "d": 51,
      "v": 127
    },
    {
      "midi": 71,
      "hit": false,
      "t": 46680,
      "d": 66,
      "v": 123
    },
    {
      "midi": 81,
      "hit": false,
      "t": 46680,
      "d": 66,
      "v": 109
    },
    {
      "midi": 81,
      "hit": false,
      "t": 46920,
      "d": 146,
      "v": 107
    },
    {
      "midi": 76,
      "hit": false,
      "t": 46920,
      "d": 196,
      "v": 121
    },
    {
      "midi": 71,
      "hit": false,
      "t": 46920,
      "d": 221,
      "v": 126
    },
    {
      "midi": 69,
      "hit": false,
      "t": 46937,
      "d": 356,
      "v": 1
    },
    {
      "midi": 71,
      "hit": false,
      "t": 47280,
      "d": 126,
      "v": 123
    },
    {
      "midi": 76,
      "hit": false,
      "t": 47280,
      "d": 136,
      "v": 125
    },
    {
      "midi": 73,
      "hit": false,
      "t": 47280,
      "d": 141,
      "v": 123
    },
    {
      "midi": 71,
      "hit": false,
      "t": 47297,
      "d": 443,
      "v": 1
    },
    {
      "midi": 74,
      "hit": false,
      "t": 47520,
      "d": 111,
      "v": 108
    },
    {
      "midi": 71,
      "hit": false,
      "t": 47520,
      "d": 126,
      "v": 107
    },
    {
      "midi": 69,
      "hit": false,
      "t": 47520,
      "d": 176,
      "v": 83
    },
    {
      "midi": 69,
      "hit": false,
      "t": 47745,
      "d": 256,
      "v": 1
    },
    {
      "midi": 76,
      "hit": false,
      "t": 47760,
      "d": 76,
      "v": 120
    },
    {
      "midi": 71,
      "hit": false,
      "t": 47760,
      "d": 86,
      "v": 115
    },
    {
      "midi": 73,
      "hit": false,
      "t": 47760,
      "d": 86,
      "v": 118
    },
    {
      "midi": 74,
      "hit": false,
      "t": 48000,
      "d": 36,
      "v": 124
    },
    {
      "midi": 71,
      "hit": false,
      "t": 48000,
      "d": 56,
      "v": 125
    },
    {
      "midi": 79,
      "hit": false,
      "t": 48000,
      "d": 76,
      "v": 114
    },
    {
      "midi": 71,
      "hit": false,
      "t": 48005,
      "d": 1163,
      "v": 1
    },
    {
      "midi": 79,
      "hit": false,
      "t": 48120,
      "d": 51,
      "v": 98
    },
    {
      "midi": 74,
      "hit": false,
      "t": 48120,
      "d": 56,
      "v": 113
    },
    {
      "midi": 71,
      "hit": false,
      "t": 48120,
      "d": 66,
      "v": 122
    },
    {
      "midi": 74,
      "hit": false,
      "t": 48360,
      "d": 56,
      "v": 113
    },
    {
      "midi": 71,
      "hit": false,
      "t": 48360,
      "d": 71,
      "v": 113
    },
    {
      "midi": 79,
      "hit": false,
      "t": 48360,
      "d": 76,
      "v": 98
    },
    {
      "midi": 74,
      "hit": false,
      "t": 48600,
      "d": 51,
      "v": 121
    },
    {
      "midi": 71,
      "hit": false,
      "t": 48600,
      "d": 61,
      "v": 123
    },
    {
      "midi": 79,
      "hit": false,
      "t": 48600,
      "d": 76,
      "v": 108
    },
    {
      "midi": 79,
      "hit": false,
      "t": 48840,
      "d": 151,
      "v": 101
    },
    {
      "midi": 71,
      "hit": false,
      "t": 48840,
      "d": 196,
      "v": 127
    },
    {
      "midi": 74,
      "hit": false,
      "t": 48840,
      "d": 216,
      "v": 118
    },
    {
      "midi": 74,
      "hit": false,
      "t": 49172,
      "d": 256,
      "v": 1
    },
    {
      "midi": 73,
      "hit": false,
      "t": 49200,
      "d": 151,
      "v": 124
    },
    {
      "midi": 76,
      "hit": false,
      "t": 49200,
      "d": 161,
      "v": 124
    },
    {
      "midi": 69,
      "hit": false,
      "t": 49200,
      "d": 226,
      "v": 115
    },
    {
      "midi": 69,
      "hit": false,
      "t": 49432,
      "d": 483,
      "v": 1
    },
    {
      "midi": 74,
      "hit": false,
      "t": 49440,
      "d": 166,
      "v": 116
    },
    {
      "midi": 71,
      "hit": false,
      "t": 49440,
      "d": 171,
      "v": 117
    },
    {
      "midi": 67,
      "hit": false,
      "t": 49440,
      "d": 211,
      "v": 123
    },
    {
      "midi": 69,
      "hit": false,
      "t": 49680,
      "d": 126,
      "v": 108
    },
    {
      "midi": 76,
      "hit": false,
      "t": 49680,
      "d": 141,
      "v": 92
    },
    {
      "midi": 73,
      "hit": false,
      "t": 49680,
      "d": 151,
      "v": 94
    },
    {
      "midi": 71,
      "hit": false,
      "t": 49920,
      "d": 831,
      "v": 1
    },
    {
      "midi": 74,
      "hit": false,
      "t": 50755,
      "d": 518,
      "v": 1
    },
    {
      "midi": 72,
      "hit": false,
      "t": 51252,
      "d": 361,
      "v": 1
    },
    {
      "midi": 74,
      "hit": false,
      "t": 51602,
      "d": 371,
      "v": 1
    },
    {
      "midi": 71,
      "hit": false,
      "t": 51962,
      "d": 1793,
      "v": 1
    },
    {
      "midi": 71,
      "hit": false,
      "t": 53760,
      "d": 808,
      "v": 1
    },
    {
      "midi": 74,
      "hit": false,
      "t": 54572,
      "d": 648,
      "v": 1
    },
    {
      "midi": 72,
      "hit": false,
      "t": 55225,
      "d": 396,
      "v": 1
    },
    {
      "midi": 74,
      "hit": false,
      "t": 55595,
      "d": 298,
      "v": 1
    },
    {
      "midi": 71,
      "hit": false,
      "t": 55880,
      "d": 1731,
      "v": 1
    },
    {
      "midi": 69,
      "hit": false,
      "t": 57615,
      "d": 791,
      "v": 1
    },
    {
      "midi": 72,
      "hit": false,
      "t": 58410,
      "d": 753,
      "v": 1
    },
    {
      "midi": 71,
      "hit": false,
      "t": 59167,
      "d": 361,
      "v": 1
    },
    {
      "midi": 69,
      "hit": false,
      "t": 59532,
      "d": 1458,
      "v": 1
    },
    {
      "midi": 71,
      "hit": false,
      "t": 60995,
      "d": 211,
      "v": 1
    },
    {
      "midi": 69,
      "hit": false,
      "t": 61210,
      "d": 251,
      "v": 1
    },
    {
      "midi": 71,
      "hit": false,
      "t": 61465,
      "d": 351,
      "v": 1
    },
    {
      "midi": 74,
      "hit": false,
      "t": 61820,
      "d": 1536,
      "v": 1
    },
    {
      "midi": 71,
      "hit": false,
      "t": 65300,
      "d": 808,
      "v": 1
    },
    {
      "midi": 74,
      "hit": false,
      "t": 66112,
      "d": 643,
      "v": 1
    },
    {
      "midi": 72,
      "hit": false,
      "t": 66760,
      "d": 346,
      "v": 1
    },
    {
      "midi": 74,
      "hit": false,
      "t": 67085,
      "d": 308,
      "v": 1
    },
    {
      "midi": 71,
      "hit": false,
      "t": 67385,
      "d": 1746,
      "v": 1
    },
    {
      "midi": 71,
      "hit": false,
      "t": 69135,
      "d": 778,
      "v": 1
    },
    {
      "midi": 76,
      "hit": false,
      "t": 69917,
      "d": 421,
      "v": 1
    },
    {
      "midi": 74,
      "hit": false,
      "t": 70322,
      "d": 316,
      "v": 1
    },
    {
      "midi": 72,
      "hit": false,
      "t": 70642,
      "d": 318,
      "v": 1
    },
    {
      "midi": 74,
      "hit": false,
      "t": 70960,
      "d": 318,
      "v": 1
    },
    {
      "midi": 71,
      "hit": false,
      "t": 71262,
      "d": 768,
      "v": 1
    },
    {
      "midi": 74,
      "hit": false,
      "t": 72035,
      "d": 431,
      "v": 1
    },
    {
      "midi": 72,
      "hit": false,
      "t": 72470,
      "d": 261,
      "v": 1
    },
    {
      "midi": 71,
      "hit": false,
      "t": 72730,
      "d": 233,
      "v": 1
    },
    {
      "midi": 69,
      "hit": false,
      "t": 72967,
      "d": 388,
      "v": 1
    },
    {
      "midi": 72,
      "hit": false,
      "t": 73330,
      "d": 1318,
      "v": 1
    },
    {
      "midi": 71,
      "hit": false,
      "t": 74652,
      "d": 243,
      "v": 1
    },
    {
      "midi": 69,
      "hit": false,
      "t": 74900,
      "d": 383,
      "v": 1
    },
    {
      "midi": 72,
      "hit": false,
      "t": 75242,
      "d": 853,
      "v": 1
    },
    {
      "midi": 69,
      "hit": false,
      "t": 76100,
      "d": 283,
      "v": 1
    },
    {
      "midi": 71,
      "hit": false,
      "t": 76350,
      "d": 203,
      "v": 1
    },
    {
      "midi": 69,
      "hit": false,
      "t": 76557,
      "d": 251,
      "v": 1
    },
    {
      "midi": 71,
      "hit": false,
      "t": 76812,
      "d": 366,
      "v": 1
    },
    {
      "midi": 74,
      "hit": false,
      "t": 77182,
      "d": 376,
      "v": 1
    },
    {
      "midi": 71,
      "hit": false,
      "t": 77560,
      "d": 3061,
      "v": 1
    },
    {
      "midi": 76,
      "hit": false,
      "t": 80625,
      "d": 411,
      "v": 1
    },
    {
      "midi": 76,
      "hit": false,
      "t": 80640,
      "d": 36,
      "v": 127
    },
    {
      "midi": 71,
      "hit": false,
      "t": 80640,
      "d": 46,
      "v": 112
    },
    {
      "midi": 81,
      "hit": false,
      "t": 80640,
      "d": 46,
      "v": 102
    },
    {
      "midi": 81,
      "hit": false,
      "t": 80760,
      "d": 46,
      "v": 58
    },
    {
      "midi": 76,
      "hit": false,
      "t": 80760,
      "d": 61,
      "v": 104
    },
    {
      "midi": 71,
      "hit": false,
      "t": 80760,
      "d": 66,
      "v": 102
    },
    {
      "midi": 76,
      "hit": false,
      "t": 81000,
      "d": 46,
      "v": 120
    },
    {
      "midi": 81,
      "hit": false,
      "t": 81000,
      "d": 56,
      "v": 113
    },
    {
      "midi": 71,
      "hit": false,
      "t": 81000,
      "d": 61,
      "v": 126
    },
    {
      "midi": 74,
      "hit": false,
      "t": 81007,
      "d": 3006,
      "v": 1
    },
    {
      "midi": 76,
      "hit": false,
      "t": 81240,
      "d": 41,
      "v": 122
    },
    {
      "midi": 81,
      "hit": false,
      "t": 81240,
      "d": 51,
      "v": 102
    },
    {
      "midi": 71,
      "hit": false,
      "t": 81240,
      "d": 56,
      "v": 118
    },
    {
      "midi": 81,
      "hit": false,
      "t": 81480,
      "d": 141,
      "v": 113
    },
    {
      "midi": 76,
      "hit": false,
      "t": 81480,
      "d": 171,
      "v": 125
    },
    {
      "midi": 71,
      "hit": false,
      "t": 81480,
      "d": 196,
      "v": 126
    },
    {
      "midi": 73,
      "hit": false,
      "t": 81840,
      "d": 116,
      "v": 127
    },
    {
      "midi": 76,
      "hit": false,
      "t": 81840,
      "d": 126,
      "v": 119
    },
    {
      "midi": 74,
      "hit": false,
      "t": 82080,
      "d": 116,
      "v": 122
    },
    {
      "midi": 71,
      "hit": false,
      "t": 82080,
      "d": 121,
      "v": 119
    },
    {
      "midi": 69,
      "hit": false,
      "t": 82080,
      "d": 131,
      "v": 88
    },
    {
      "midi": 76,
      "hit": false,
      "t": 82320,
      "d": 66,
      "v": 127
    },
    {
      "midi": 73,
      "hit": false,
      "t": 82320,
      "d": 76,
      "v": 117
    },
    {
      "midi": 74,
      "hit": false,
      "t": 82560,
      "d": 41,
      "v": 126
    },
    {
      "midi": 71,
      "hit": false,
      "t": 82560,
      "d": 51,
      "v": 124
    },
    {
      "midi": 79,
      "hit": false,
      "t": 82560,
      "d": 76,
      "v": 109
    },
    {
      "midi": 71,
      "hit": false,
      "t": 82680,
      "d": 51,
      "v": 113
    },
    {
      "midi": 79,
      "hit": false,
      "t": 82680,
      "d": 61,
      "v": 72
    },
    {
      "midi": 74,
      "hit": false,
      "t": 82680,
      "d": 66,
      "v": 86
    },
    {
      "midi": 74,
      "hit": false,
      "t": 82920,
      "d": 61,
      "v": 124
    },
    {
      "midi": 79,
      "hit": false,
      "t": 82920,
      "d": 71,
      "v": 103
    },
    {
      "midi": 69,
      "hit": false,
      "t": 82920,
      "d": 76,
      "v": 90
    },
    {
      "midi": 69,
      "hit": false,
      "t": 83160,
      "d": 61,
      "v": 88
    },
    {
      "midi": 74,
      "hit": false,
      "t": 83160,
      "d": 61,
      "v": 124
    },
    {
      "midi": 79,
      "hit": false,
      "t": 83160,
      "d": 61,
      "v": 102
    },
    {
      "midi": 79,
      "hit": false,
      "t": 83400,
      "d": 221,
      "v": 110
    },
    {
      "midi": 69,
      "hit": false,
      "t": 83400,
      "d": 241,
      "v": 100
    },
    {
      "midi": 74,
      "hit": false,
      "t": 83400,
      "d": 246,
      "v": 125
    },
    {
      "midi": 73,
      "hit": false,
      "t": 83760,
      "d": 116,
      "v": 126
    },
    {
      "midi": 76,
      "hit": false,
      "t": 83760,
      "d": 116,
      "v": 126
    },
    {
      "midi": 71,
      "hit": false,
      "t": 84000,
      "d": 131,
      "v": 107
    },
    {
      "midi": 74,
      "hit": false,
      "t": 84000,
      "d": 136,
      "v": 113
    },
    {
      "midi": 67,
      "hit": false,
      "t": 84000,
      "d": 191,
      "v": 95
    },
    {
      "midi": 71,
      "hit": false,
      "t": 84017,
      "d": 488,
      "v": 1
    },
    {
      "midi": 73,
      "hit": false,
      "t": 84240,
      "d": 81,
      "v": 103
    },
    {
      "midi": 76,
      "hit": false,
      "t": 84240,
      "d": 96,
      "v": 112
    },
    {
      "midi": 69,
      "hit": false,
      "t": 84240,
      "d": 101,
      "v": 97
    },
    {
      "midi": 76,
      "hit": false,
      "t": 84480,
      "d": 36,
      "v": 127
    },
    {
      "midi": 71,
      "hit": false,
      "t": 84480,
      "d": 51,
      "v": 127
    },
    {
      "midi": 81,
      "hit": false,
      "t": 84480,
      "d": 66,
      "v": 106
    },
    {
      "midi": 76,
      "hit": false,
      "t": 84492,
      "d": 378,
      "v": 1
    },
    {
      "midi": 81,
      "hit": false,
      "t": 84600,
      "d": 36,
      "v": 70
    },
    {
      "midi": 71,
      "hit": false,
      "t": 84600,
      "d": 66,
      "v": 107
    },
    {
      "midi": 76,
      "hit": false,
      "t": 84600,
      "d": 71,
      "v": 120
    },
    {
      "midi": 76,
      "hit": false,
      "t": 84840,
      "d": 61,
      "v": 127
    },
    {
      "midi": 71,
      "hit": false,
      "t": 84840,
      "d": 71,
      "v": 125
    },
    {
      "midi": 81,
      "hit": false,
      "t": 84840,
      "d": 76,
      "v": 109
    },
    {
      "midi": 74,
      "hit": false,
      "t": 84852,
      "d": 658,
      "v": 1
    },
    {
      "midi": 71,
      "hit": false,
      "t": 85080,
      "d": 61,
      "v": 120
    },
    {
      "midi": 76,
      "hit": false,
      "t": 85080,
      "d": 61,
      "v": 127
    },
    {
      "midi": 81,
      "hit": false,
      "t": 85080,
      "d": 76,
      "v": 109
    },
    {
      "midi": 81,
      "hit": false,
      "t": 85320,
      "d": 71,
      "v": 104
    },
    {
      "midi": 76,
      "hit": false,
      "t": 85320,
      "d": 126,
      "v": 127
    },
    {
      "midi": 71,
      "hit": false,
      "t": 85320,
      "d": 161,
      "v": 127
    },
    {
      "midi": 69,
      "hit": false,
      "t": 85515,
      "d": 433,
      "v": 1
    },
    {
      "midi": 71,
      "hit": false,
      "t": 85680,
      "d": 101,
      "v": 122
    },
    {
      "midi": 73,
      "hit": false,
      "t": 85680,
      "d": 121,
      "v": 126
    },
    {
      "midi": 76,
      "hit": false,
      "t": 85680,
      "d": 121,
      "v": 126
    },
    {
      "midi": 71,
      "hit": false,
      "t": 85920,
      "d": 101,
      "v": 114
    },
    {
      "midi": 74,
      "hit": false,
      "t": 85920,
      "d": 101,
      "v": 123
    },
    {
      "midi": 69,
      "hit": false,
      "t": 85920,
      "d": 146,
      "v": 96
    },
    {
      "midi": 74,
      "hit": false,
      "t": 85927,
      "d": 366,
      "v": 1
    },
    {
      "midi": 76,
      "hit": false,
      "t": 86160,
      "d": 76,
      "v": 119
    },
    {
      "midi": 71,
      "hit": false,
      "t": 86160,
      "d": 86,
      "v": 125
    },
    {
      "midi": 73,
      "hit": false,
      "t": 86160,
      "d": 86,
      "v": 118
    },
    {
      "midi": 71,
      "hit": false,
      "t": 86277,
      "d": 1566,
      "v": 1
    },
    {
      "midi": 71,
      "hit": false,
      "t": 86400,
      "d": 36,
      "v": 121
    },
    {
      "midi": 74,
      "hit": false,
      "t": 86400,
      "d": 36,
      "v": 121
    },
    {
      "midi": 79,
      "hit": false,
      "t": 86400,
      "d": 66,
      "v": 111
    },
    {
      "midi": 79,
      "hit": false,
      "t": 86520,
      "d": 31,
      "v": 71
    },
    {
      "midi": 74,
      "hit": false,
      "t": 86520,
      "d": 61,
      "v": 113
    },
    {
      "midi": 69,
      "hit": false,
      "t": 86520,
      "d": 71,
      "v": 88
    },
    {
      "midi": 74,
      "hit": false,
      "t": 86760,
      "d": 51,
      "v": 127
    },
    {
      "midi": 69,
      "hit": false,
      "t": 86760,
      "d": 71,
      "v": 97
    },
    {
      "midi": 79,
      "hit": false,
      "t": 86760,
      "d": 76,
      "v": 112
    },
    {
      "midi": 74,
      "hit": false,
      "t": 87000,
      "d": 56,
      "v": 121
    },
    {
      "midi": 79,
      "hit": false,
      "t": 87000,
      "d": 66,
      "v": 101
    },
    {
      "midi": 69,
      "hit": false,
      "t": 87000,
      "d": 71,
      "v": 96
    },
    {
      "midi": 79,
      "hit": false,
      "t": 87240,
      "d": 141,
      "v": 106
    },
    {
      "midi": 74,
      "hit": false,
      "t": 87240,
      "d": 176,
      "v": 119
    },
    {
      "midi": 69,
      "hit": false,
      "t": 87240,
      "d": 191,
      "v": 102
    },
    {
      "midi": 76,
      "hit": false,
      "t": 87600,
      "d": 96,
      "v": 118
    },
    {
      "midi": 73,
      "hit": false,
      "t": 87600,
      "d": 106,
      "v": 127
    },
    {
      "midi": 69,
      "hit": false,
      "t": 87600,
      "d": 116,
      "v": 109
    },
    {
      "midi": 74,
      "hit": false,
      "t": 87840,
      "d": 86,
      "v": 116
    },
    {
      "midi": 71,
      "hit": false,
      "t": 87840,
      "d": 101,
      "v": 117
    },
    {
      "midi": 67,
      "hit": false,
      "t": 87840,
      "d": 151,
      "v": 106
    },
    {
      "midi": 71,
      "hit": false,
      "t": 87847,
      "d": 406,
      "v": 1
    },
    {
      "midi": 76,
      "hit": false,
      "t": 88080,
      "d": 66,
      "v": 111
    },
    {
      "midi": 73,
      "hit": false,
      "t": 88080,
      "d": 76,
      "v": 111
    },
    {
      "midi": 69,
      "hit": false,
      "t": 88080,
      "d": 81,
      "v": 91
    },
    {
      "midi": 76,
      "hit": false,
      "t": 88252,
      "d": 426,
      "v": 1
    },
    {
      "midi": 76,
      "hit": false,
      "t": 88320,
      "d": 46,
      "v": 124
    },
    {
      "midi": 71,
      "hit": false,
      "t": 88320,
      "d": 56,
      "v": 122
    },
    {
      "midi": 81,
      "hit": false,
      "t": 88320,
      "d": 61,
      "v": 107
    },
    {
      "midi": 81,
      "hit": false,
      "t": 88440,
      "d": 61,
      "v": 94
    },
    {
      "midi": 71,
      "hit": false,
      "t": 88440,
      "d": 66,
      "v": 122
    },
    {
      "midi": 76,
      "hit": false,
      "t": 88440,
      "d": 66,
      "v": 116
    },
    {
      "midi": 74,
      "hit": false,
      "t": 88647,
      "d": 3018,
      "v": 1
    },
    {
      "midi": 76,
      "hit": false,
      "t": 88680,
      "d": 61,
      "v": 127
    },
    {
      "midi": 71,
      "hit": false,
      "t": 88680,
      "d": 66,
      "v": 123
    },
    {
      "midi": 81,
      "hit": false,
      "t": 88680,
      "d": 71,
      "v": 98
    },
    {
      "midi": 76,
      "hit": false,
      "t": 88920,
      "d": 51,
      "v": 125
    },
    {
      "midi": 71,
      "hit": false,
      "t": 88920,
      "d": 61,
      "v": 115
    },
    {
      "midi": 81,
      "hit": false,
      "t": 88920,
      "d": 71,
      "v": 110
    },
    {
      "midi": 81,
      "hit": false,
      "t": 89160,
      "d": 121,
      "v": 110
    },
    {
      "midi": 71,
      "hit": false,
      "t": 89160,
      "d": 131,
      "v": 126
    },
    {
      "midi": 76,
      "hit": false,
      "t": 89160,
      "d": 166,
      "v": 124
    },
    {
      "midi": 76,
      "hit": false,
      "t": 89520,
      "d": 81,
      "v": 120
    },
    {
      "midi": 71,
      "hit": false,
      "t": 89520,
      "d": 96,
      "v": 118
    },
    {
      "midi": 73,
      "hit": false,
      "t": 89520,
      "d": 111,
      "v": 127
    },
    {
      "midi": 74,
      "hit": false,
      "t": 89760,
      "d": 91,
      "v": 112
    },
    {
      "midi": 71,
      "hit": false,
      "t": 89760,
      "d": 96,
      "v": 113
    },
    {
      "midi": 69,
      "hit": false,
      "t": 89760,
      "d": 146,
      "v": 86
    },
    {
      "midi": 73,
      "hit": false,
      "t": 90000,
      "d": 66,
      "v": 115
    },
    {
      "midi": 76,
      "hit": false,
      "t": 90000,
      "d": 66,
      "v": 109
    },
    {
      "midi": 71,
      "hit": false,
      "t": 90000,
      "d": 76,
      "v": 114
    },
    {
      "midi": 71,
      "hit": false,
      "t": 90240,
      "d": 41,
      "v": 121
    },
    {
      "midi": 74,
      "hit": false,
      "t": 90240,
      "d": 41,
      "v": 127
    },
    {
      "midi": 79,
      "hit": false,
      "t": 90240,
      "d": 66,
      "v": 106
    },
    {
      "midi": 79,
      "hit": false,
      "t": 90360,
      "d": 41,
      "v": 90
    },
    {
      "midi": 69,
      "hit": false,
      "t": 90360,
      "d": 61,
      "v": 104
    },
    {
      "midi": 74,
      "hit": false,
      "t": 90360,
      "d": 61,
      "v": 111
    },
    {
      "midi": 74,
      "hit": false,
      "t": 90600,
      "d": 61,
      "v": 121
    },
    {
      "midi": 69,
      "hit": false,
      "t": 90600,
      "d": 66,
      "v": 106
    },
    {
      "midi": 79,
      "hit": false,
      "t": 90600,
      "d": 66,
      "v": 108
    },
    {
      "midi": 74,
      "hit": false,
      "t": 90840,
      "d": 61,
      "v": 108
    },
    {
      "midi": 69,
      "hit": false,
      "t": 90840,
      "d": 66,
      "v": 101
    },
    {
      "midi": 79,
      "hit": false,
      "t": 90840,
      "d": 76,
      "v": 100
    },
    {
      "midi": 79,
      "hit": false,
      "t": 91080,
      "d": 176,
      "v": 103
    },
    {
      "midi": 69,
      "hit": false,
      "t": 91080,
      "d": 191,
      "v": 107
    },
    {
      "midi": 74,
      "hit": false,
      "t": 91080,
      "d": 211,
      "v": 113
    },
    {
      "midi": 76,
      "hit": false,
      "t": 91440,
      "d": 96,
      "v": 120
    },
    {
      "midi": 69,
      "hit": false,
      "t": 91440,
      "d": 111,
      "v": 106
    },
    {
      "midi": 73,
      "hit": false,
      "t": 91440,
      "d": 111,
      "v": 127
    },
    {
      "midi": 71,
      "hit": false,
      "t": 91670,
      "d": 431,
      "v": 1
    },
    {
      "midi": 74,
      "hit": false,
      "t": 91680,
      "d": 86,
      "v": 118
    },
    {
      "midi": 71,
      "hit": false,
      "t": 91680,
      "d": 101,
      "v": 110
    },
    {
      "midi": 67,
      "hit": false,
      "t": 91680,
      "d": 156,
      "v": 85
    },
    {
      "midi": 76,
      "hit": false,
      "t": 91920,
      "d": 71,
      "v": 108
    },
    {
      "midi": 73,
      "hit": false,
      "t": 91920,
      "d": 76,
      "v": 91
    },
    {
      "midi": 69,
      "hit": false,
      "t": 91920,
      "d": 81,
      "v": 80
    },
    {
      "midi": 76,
      "hit": false,
      "t": 92087,
      "d": 446,
      "v": 1
    },
    {
      "midi": 76,
      "hit": false,
      "t": 92160,
      "d": 41,
      "v": 124
    },
    {
      "midi": 71,
      "hit": false,
      "t": 92160,
      "d": 56,
      "v": 123
    },
    {
      "midi": 81,
      "hit": false,
      "t": 92160,
      "d": 61,
      "v": 104
    },
    {
      "midi": 81,
      "hit": false,
      "t": 92280,
      "d": 46,
      "v": 91
    },
    {
      "midi": 76,
      "hit": false,
      "t": 92280,
      "d": 51,
      "v": 117
    },
    {
      "midi": 71,
      "hit": false,
      "t": 92280,
      "d": 61,
      "v": 114
    },
    {
      "midi": 74,
      "hit": false,
      "t": 92512,
      "d": 673,
      "v": 1
    },
    {
      "midi": 76,
      "hit": false,
      "t": 92520,
      "d": 56,
      "v": 126
    },
    {
      "midi": 71,
      "hit": false,
      "t": 92520,
      "d": 66,
      "v": 117
    },
    {
      "midi": 81,
      "hit": false,
      "t": 92520,
      "d": 81,
      "v": 107
    },
    {
      "midi": 76,
      "hit": false,
      "t": 92760,
      "d": 56,
      "v": 126
    },
    {
      "midi": 81,
      "hit": false,
      "t": 92760,
      "d": 71,
      "v": 107
    },
    {
      "midi": 71,
      "hit": false,
      "t": 92760,
      "d": 76,
      "v": 122
    },
    {
      "midi": 81,
      "hit": false,
      "t": 93000,
      "d": 101,
      "v": 104
    },
    {
      "midi": 76,
      "hit": false,
      "t": 93000,
      "d": 146,
      "v": 125
    },
    {
      "midi": 71,
      "hit": false,
      "t": 93000,
      "d": 151,
      "v": 123
    },
    {
      "midi": 69,
      "hit": false,
      "t": 93190,
      "d": 448,
      "v": 1
    },
    {
      "midi": 71,
      "hit": false,
      "t": 93360,
      "d": 81,
      "v": 125
    },
    {
      "midi": 73,
      "hit": false,
      "t": 93360,
      "d": 81,
      "v": 120
    },
    {
      "midi": 76,
      "hit": false,
      "t": 93360,
      "d": 96,
      "v": 114
    },
    {
      "midi": 74,
      "hit": false,
      "t": 93600,
      "d": 91,
      "v": 104
    },
    {
      "midi": 71,
      "hit": false,
      "t": 93600,
      "d": 101,
      "v": 109
    },
    {
      "midi": 69,
      "hit": false,
      "t": 93600,
      "d": 126,
      "v": 85
    },
    {
      "midi": 74,
      "hit": false,
      "t": 93630,
      "d": 338,
      "v": 1
    },
    {
      "midi": 76,
      "hit": false,
      "t": 93840,
      "d": 71,
      "v": 107
    },
    {
      "midi": 71,
      "hit": false,
      "t": 93840,
      "d": 76,
      "v": 123
    },
    {
      "midi": 73,
      "hit": false,
      "t": 93840,
      "d": 76,
      "v": 103
    },
    {
      "midi": 71,
      "hit": false,
      "t": 93962,
      "d": 2063,
      "v": 1
    },
    {
      "midi": 74,
      "hit": false,
      "t": 94080,
      "d": 46,
      "v": 119
    },
    {
      "midi": 71,
      "hit": false,
      "t": 94080,
      "d": 56,
      "v": 127
    },
    {
      "midi": 79,
      "hit": false,
      "t": 94080,
      "d": 56,
      "v": 98
    },
    {
      "midi": 79,
      "hit": false,
      "t": 94200,
      "d": 46,
      "v": 81
    },
    {
      "midi": 71,
      "hit": false,
      "t": 94200,
      "d": 66,
      "v": 106
    },
    {
      "midi": 74,
      "hit": false,
      "t": 94200,
      "d": 66,
      "v": 103
    },
    {
      "midi": 74,
      "hit": false,
      "t": 94440,
      "d": 61,
      "v": 113
    },
    {
      "midi": 71,
      "hit": false,
      "t": 94440,
      "d": 71,
      "v": 122
    },
    {
      "midi": 79,
      "hit": false,
      "t": 94440,
      "d": 71,
      "v": 89
    },
    {
      "midi": 74,
      "hit": false,
      "t": 94680,
      "d": 61,
      "v": 112
    },
    {
      "midi": 71,
      "hit": false,
      "t": 94680,
      "d": 71,
      "v": 123
    },
    {
      "midi": 79,
      "hit": false,
      "t": 94680,
      "d": 76,
      "v": 97
    },
    {
      "midi": 79,
      "hit": false,
      "t": 94920,
      "d": 101,
      "v": 97
    },
    {
      "midi": 71,
      "hit": false,
      "t": 94920,
      "d": 116,
      "v": 123
    },
    {
      "midi": 74,
      "hit": false,
      "t": 94920,
      "d": 131,
      "v": 118
    },
    {
      "midi": 73,
      "hit": false,
      "t": 95280,
      "d": 161,
      "v": 127
    },
    {
      "midi": 76,
      "hit": false,
      "t": 95280,
      "d": 161,
      "v": 119
    },
    {
      "midi": 69,
      "hit": false,
      "t": 95280,
      "d": 211,
      "v": 107
    },
    {
      "midi": 71,
      "hit": false,
      "t": 95520,
      "d": 156,
      "v": 97
    },
    {
      "midi": 74,
      "hit": false,
      "t": 95520,
      "d": 161,
      "v": 95
    },
    {
      "midi": 67,
      "hit": false,
      "t": 95520,
      "d": 221,
      "v": 91
    },
    {
      "midi": 69,
      "hit": false,
      "t": 95760,
      "d": 96,
      "v": 94
    },
    {
      "midi": 73,
      "hit": false,
      "t": 95760,
      "d": 101,
      "v": 84
    },
    {
      "midi": 76,
      "hit": false,
      "t": 95760,
      "d": 101,
      "v": 89
    },
    {
      "midi": 76,
      "hit": false,
      "t": 96000,
      "d": 36,
      "v": 127
    },
    {
      "midi": 81,
      "hit": false,
      "t": 96000,
      "d": 46,
      "v": 102
    },
    {
      "midi": 71,
      "hit": false,
      "t": 96000,
      "d": 51,
      "v": 127
    },
    {
      "midi": 71,
      "hit": false,
      "t": 96030,
      "d": 836,
      "v": 1
    },
    {
      "midi": 81,
      "hit": false,
      "t": 96120,
      "d": 56,
      "v": 74
    },
    {
      "midi": 76,
      "hit": false,
      "t": 96120,
      "d": 61,
      "v": 108
    },
    {
      "midi": 71,
      "hit": false,
      "t": 96120,
      "d": 66,
      "v": 110
    },
    {
      "midi": 76,
      "hit": false,
      "t": 96360,
      "d": 51,
      "v": 127
    },
    {
      "midi": 71,
      "hit": false,
      "t": 96360,
      "d": 71,
      "v": 120
    },
    {
      "midi": 81,
      "hit": false,
      "t": 96360,
      "d": 71,
      "v": 105
    },
    {
      "midi": 76,
      "hit": false,
      "t": 96600,
      "d": 46,
      "v": 127
    },
    {
      "midi": 71,
      "hit": false,
      "t": 96600,
      "d": 66,
      "v": 125
    },
    {
      "midi": 81,
      "hit": false,
      "t": 96600,
      "d": 71,
      "v": 108
    },
    {
      "midi": 81,
      "hit": false,
      "t": 96840,
      "d": 151,
      "v": 114
    },
    {
      "midi": 71,
      "hit": false,
      "t": 96840,
      "d": 196,
      "v": 123
    },
    {
      "midi": 76,
      "hit": false,
      "t": 96840,
      "d": 206,
      "v": 125
    },
    {
      "midi": 69,
      "hit": false,
      "t": 96870,
      "d": 346,
      "v": 1
    },
    {
      "midi": 71,
      "hit": false,
      "t": 97200,
      "d": 91,
      "v": 103
    },
    {
      "midi": 73,
      "hit": false,
      "t": 97200,
      "d": 141,
      "v": 126
    },
    {
      "midi": 76,
      "hit": false,
      "t": 97200,
      "d": 146,
      "v": 125
    },
    {
      "midi": 71,
      "hit": false,
      "t": 97220,
      "d": 451,
      "v": 1
    },
    {
      "midi": 74,
      "hit": false,
      "t": 97440,
      "d": 106,
      "v": 108
    },
    {
      "midi": 71,
      "hit": false,
      "t": 97440,
      "d": 116,
      "v": 98
    },
    {
      "midi": 69,
      "hit": false,
      "t": 97440,
      "d": 161,
      "v": 84
    },
    {
      "midi": 69,
      "hit": false,
      "t": 97675,
      "d": 243,
      "v": 1
    },
    {
      "midi": 73,
      "hit": false,
      "t": 97680,
      "d": 61,
      "v": 107
    },
    {
      "midi": 76,
      "hit": false,
      "t": 97680,
      "d": 76,
      "v": 104
    },
    {
      "midi": 71,
      "hit": false,
      "t": 97680,
      "d": 81,
      "v": 119
    },
    {
      "midi": 74,
      "hit": false,
      "t": 97920,
      "d": 41,
      "v": 121
    },
    {
      "midi": 71,
      "hit": false,
      "t": 97920,
      "d": 51,
      "v": 121
    },
    {
      "midi": 79,
      "hit": false,
      "t": 97920,
      "d": 51,
      "v": 84
    },
    {
      "midi": 71,
      "hit": false,
      "t": 97922,
      "d": 1196,
      "v": 1
    },
    {
      "midi": 79,
      "hit": false,
      "t": 98040,
      "d": 51,
      "v": 86
    },
    {
      "midi": 74,
      "hit": false,
      "t": 98040,
      "d": 56,
      "v": 112
    },
    {
      "midi": 71,
      "hit": false,
      "t": 98040,
      "d": 71,
      "v": 118
    },
    {
      "midi": 74,
      "hit": false,
      "t": 98280,
      "d": 56,
      "v": 111
    },
    {
      "midi": 79,
      "hit": false,
      "t": 98280,
      "d": 61,
      "v": 100
    },
    {
      "midi": 71,
      "hit": false,
      "t": 98280,
      "d": 71,
      "v": 127
    },
    {
      "midi": 74,
      "hit": false,
      "t": 98520,
      "d": 56,
      "v": 113
    },
    {
      "midi": 79,
      "hit": false,
      "t": 98520,
      "d": 66,
      "v": 96
    },
    {
      "midi": 71,
      "hit": false,
      "t": 98520,
      "d": 71,
      "v": 122
    },
    {
      "midi": 71,
      "hit": false,
      "t": 98760,
      "d": 116,
      "v": 118
    },
    {
      "midi": 79,
      "hit": false,
      "t": 98760,
      "d": 141,
      "v": 97
    },
    {
      "midi": 74,
      "hit": false,
      "t": 98760,
      "d": 176,
      "v": 112
    },
    {
      "midi": 73,
      "hit": false,
      "t": 99120,
      "d": 176,
      "v": 122
    },
    {
      "midi": 76,
      "hit": false,
      "t": 99120,
      "d": 201,
      "v": 120
    },
    {
      "midi": 69,
      "hit": false,
      "t": 99120,
      "d": 221,
      "v": 113
    },
    {
      "midi": 74,
      "hit": false,
      "t": 99122,
      "d": 251,
      "v": 1
    },
    {
      "midi": 71,
      "hit": false,
      "t": 99360,
      "d": 161,
      "v": 89
    },
    {
      "midi": 74,
      "hit": false,
      "t": 99360,
      "d": 166,
      "v": 89
    },
    {
      "midi": 67,
      "hit": false,
      "t": 99360,
      "d": 216,
      "v": 91
    },
    {
      "midi": 69,
      "hit": false,
      "t": 99377,
      "d": 461,
      "v": 1
    },
    {
      "midi": 76,
      "hit": false,
      "t": 99600,
      "d": 71,
      "v": 76
    },
    {
      "midi": 69,
      "hit": false,
      "t": 99600,
      "d": 81,
      "v": 92
    },
    {
      "midi": 73,
      "hit": false,
      "t": 99600,
      "d": 86,
      "v": 102
    },
    {
      "midi": 76,
      "hit": false,
      "t": 99840,
      "d": 41,
      "v": 126
    },
    {
      "midi": 71,
      "hit": false,
      "t": 99840,
      "d": 56,
      "v": 122
    },
    {
      "midi": 81,
      "hit": false,
      "t": 99840,
      "d": 61,
      "v": 107
    },
    {
      "midi": 71,
      "hit": false,
      "t": 99842,
      "d": 826,
      "v": 1
    },
    {
      "midi": 81,
      "hit": false,
      "t": 99960,
      "d": 51,
      "v": 81
    },
    {
      "midi": 76,
      "hit": false,
      "t": 99960,
      "d": 56,
      "v": 120
    },
    {
      "midi": 71,
      "hit": false,
      "t": 99960,
      "d": 66,
      "v": 115
    },
    {
      "midi": 76,
      "hit": false,
      "t": 100200,
      "d": 56,
      "v": 122
    },
    {
      "midi": 71,
      "hit": false,
      "t": 100200,
      "d": 71,
      "v": 121
    },
    {
      "midi": 81,
      "hit": false,
      "t": 100200,
      "d": 71,
      "v": 107
    },
    {
      "midi": 76,
      "hit": false,
      "t": 100440,
      "d": 46,
      "v": 127
    },
    {
      "midi": 71,
      "hit": false,
      "t": 100440,
      "d": 61,
      "v": 127
    },
    {
      "midi": 81,
      "hit": false,
      "t": 100440,
      "d": 66,
      "v": 112
    },
    {
      "midi": 69,
      "hit": false,
      "t": 100672,
      "d": 341,
      "v": 1
    },
    {
      "midi": 81,
      "hit": false,
      "t": 100680,
      "d": 191,
      "v": 113
    },
    {
      "midi": 71,
      "hit": false,
      "t": 100680,
      "d": 201,
      "v": 113
    },
    {
      "midi": 76,
      "hit": false,
      "t": 100680,
      "d": 241,
      "v": 122
    },
    {
      "midi": 71,
      "hit": false,
      "t": 101017,
      "d": 486,
      "v": 1
    },
    {
      "midi": 76,
      "hit": false,
      "t": 101040,
      "d": 131,
      "v": 118
    },
    {
      "midi": 73,
      "hit": false,
      "t": 101040,
      "d": 141,
      "v": 127
    },
    {
      "midi": 71,
      "hit": false,
      "t": 101280,
      "d": 136,
      "v": 108
    },
    {
      "midi": 74,
      "hit": false,
      "t": 101280,
      "d": 141,
      "v": 118
    },
    {
      "midi": 67,
      "hit": false,
      "t": 101280,
      "d": 181,
      "v": 66
    },
    {
      "midi": 69,
      "hit": false,
      "t": 101507,
      "d": 253,
      "v": 1
    },
    {
      "midi": 73,
      "hit": false,
      "t": 101520,
      "d": 76,
      "v": 104
    },
    {
      "midi": 69,
      "hit": false,
      "t": 101520,
      "d": 91,
      "v": 96
    },
    {
      "midi": 76,
      "hit": false,
      "t": 101520,
      "d": 91,
      "v": 102
    },
    {
      "midi": 74,
      "hit": false,
      "t": 101760,
      "d": 31,
      "v": 110
    },
    {
      "midi": 71,
      "hit": false,
      "t": 101760,
      "d": 51,
      "v": 121
    },
    {
      "midi": 79,
      "hit": false,
      "t": 101760,
      "d": 51,
      "v": 100
    },
    {
      "midi": 71,
      "hit": false,
      "t": 101765,
      "d": 1223,
      "v": 1
    },
    {
      "midi": 79,
      "hit": false,
      "t": 101880,
      "d": 66,
      "v": 98
    },
    {
      "midi": 71,
      "hit": false,
      "t": 101880,
      "d": 76,
      "v": 108
    },
    {
      "midi": 74,
      "hit": false,
      "t": 101880,
      "d": 76,
      "v": 111
    },
    {
      "midi": 74,
      "hit": false,
      "t": 102120,
      "d": 61,
      "v": 119
    },
    {
      "midi": 79,
      "hit": false,
      "t": 102120,
      "d": 71,
      "v": 96
    },
    {
      "midi": 71,
      "hit": false,
      "t": 102120,
      "d": 81,
      "v": 125
    },
    {
      "midi": 74,
      "hit": false,
      "t": 102360,
      "d": 56,
      "v": 112
    },
    {
      "midi": 71,
      "hit": false,
      "t": 102360,
      "d": 66,
      "v": 116
    },
    {
      "midi": 79,
      "hit": false,
      "t": 102360,
      "d": 71,
      "v": 93
    },
    {
      "midi": 79,
      "hit": false,
      "t": 102600,
      "d": 111,
      "v": 97
    },
    {
      "midi": 71,
      "hit": false,
      "t": 102600,
      "d": 151,
      "v": 118
    },
    {
      "midi": 74,
      "hit": false,
      "t": 102600,
      "d": 166,
      "v": 118
    },
    {
      "midi": 73,
      "hit": false,
      "t": 102960,
      "d": 151,
      "v": 126
    },
    {
      "midi": 76,
      "hit": false,
      "t": 102960,
      "d": 161,
      "v": 118
    },
    {
      "midi": 69,
      "hit": false,
      "t": 102960,
      "d": 206,
      "v": 110
    },
    {
      "midi": 74,
      "hit": false,
      "t": 102992,
      "d": 243,
      "v": 1
    },
    {
      "midi": 71,
      "hit": false,
      "t": 103200,
      "d": 151,
      "v": 108
    },
    {
      "midi": 74,
      "hit": false,
      "t": 103200,
      "d": 161,
      "v": 108
    },
    {
      "midi": 67,
      "hit": false,
      "t": 103200,
      "d": 216,
      "v": 105
    },
    {
      "midi": 69,
      "hit": false,
      "t": 103240,
      "d": 443,
      "v": 1
    },
    {
      "midi": 74,
      "hit": false,
      "t": 103440,
      "d": 16,
      "v": 56
    },
    {
      "midi": 69,
      "hit": false,
      "t": 103440,
      "d": 111,
      "v": 106
    },
    {
      "midi": 73,
      "hit": false,
      "t": 103440,
      "d": 126,
      "v": 115
    },
    {
      "midi": 76,
      "hit": false,
      "t": 103440,
      "d": 126,
      "v": 94
    },
    {
      "midi": 76,
      "hit": false,
      "t": 103680,
      "d": 41,
      "v": 127
    },
    {
      "midi": 71,
      "hit": false,
      "t": 103680,
      "d": 51,
      "v": 127
    },
    {
      "midi": 81,
      "hit": false,
      "t": 103680,
      "d": 61,
      "v": 110
    },
    {
      "midi": 71,
      "hit": false,
      "t": 103687,
      "d": 841,
      "v": 1
    },
    {
      "midi": 71,
      "hit": false,
      "t": 103800,
      "d": 61,
      "v": 121
    },
    {
      "midi": 76,
      "hit": false,
      "t": 103800,
      "d": 61,
      "v": 109
    },
    {
      "midi": 81,
      "hit": false,
      "t": 103800,
      "d": 61,
      "v": 79
    },
    {
      "midi": 81,
      "hit": false,
      "t": 104040,
      "d": 26,
      "v": 65
    },
    {
      "midi": 76,
      "hit": false,
      "t": 104040,
      "d": 41,
      "v": 107
    },
    {
      "midi": 71,
      "hit": false,
      "t": 104040,
      "d": 61,
      "v": 112
    },
    {
      "midi": 76,
      "hit": false,
      "t": 104280,
      "d": 46,
      "v": 126
    },
    {
      "midi": 81,
      "hit": false,
      "t": 104280,
      "d": 56,
      "v": 105
    },
    {
      "midi": 71,
      "hit": false,
      "t": 104280,
      "d": 61,
      "v": 126
    },
    {
      "midi": 81,
      "hit": false,
      "t": 104520,
      "d": 131,
      "v": 109
    },
    {
      "midi": 76,
      "hit": false,
      "t": 104520,
      "d": 181,
      "v": 125
    },
    {
      "midi": 71,
      "hit": false,
      "t": 104520,
      "d": 206,
      "v": 125
    },
    {
      "midi": 69,
      "hit": false,
      "t": 104532,
      "d": 343,
      "v": 1
    },
    {
      "midi": 71,
      "hit": false,
      "t": 104880,
      "d": 136,
      "v": 124
    },
    {
      "midi": 73,
      "hit": false,
      "t": 104880,
      "d": 151,
      "v": 124
    },
    {
      "midi": 76,
      "hit": false,
      "t": 104880,
      "d": 171,
      "v": 123
    },
    {
      "midi": 71,
      "hit": false,
      "t": 104880,
      "d": 478,
      "v": 1
    },
    {
      "midi": 74,
      "hit": false,
      "t": 105120,
      "d": 136,
      "v": 94
    },
    {
      "midi": 71,
      "hit": false,
      "t": 105120,
      "d": 151,
      "v": 106
    },
    {
      "midi": 69,
      "hit": false,
      "t": 105120,
      "d": 206,
      "v": 85
    },
    {
      "midi": 71,
      "hit": false,
      "t": 105360,
      "d": 76,
      "v": 117
    },
    {
      "midi": 73,
      "hit": false,
      "t": 105360,
      "d": 81,
      "v": 110
    },
    {
      "midi": 76,
      "hit": false,
      "t": 105360,
      "d": 81,
      "v": 109
    },
    {
      "midi": 69,
      "hit": false,
      "t": 105362,
      "d": 251,
      "v": 1
    },
    {
      "midi": 74,
      "hit": false,
      "t": 105600,
      "d": 31,
      "v": 124
    },
    {
      "midi": 71,
      "hit": false,
      "t": 105600,
      "d": 51,
      "v": 123
    },
    {
      "midi": 79,
      "hit": false,
      "t": 105600,
      "d": 66,
      "v": 107
    },
    {
      "midi": 71,
      "hit": false,
      "t": 105617,
      "d": 826,
      "v": 1
    },
    {
      "midi": 71,
      "hit": false,
      "t": 105720,
      "d": 66,
      "v": 121
    },
    {
      "midi": 74,
      "hit": false,
      "t": 105720,
      "d": 66,
      "v": 115
    },
    {
      "midi": 79,
      "hit": false,
      "t": 105720,
      "d": 66,
      "v": 89
    },
    {
      "midi": 74,
      "hit": false,
      "t": 105960,
      "d": 56,
      "v": 113
    },
    {
      "midi": 79,
      "hit": false,
      "t": 105960,
      "d": 66,
      "v": 104
    },
    {
      "midi": 69,
      "hit": false,
      "t": 105960,
      "d": 71,
      "v": 81
    },
    {
      "midi": 74,
      "hit": false,
      "t": 106200,
      "d": 56,
      "v": 115
    },
    {
      "midi": 69,
      "hit": false,
      "t": 106200,
      "d": 71,
      "v": 86
    },
    {
      "midi": 79,
      "hit": false,
      "t": 106200,
      "d": 71,
      "v": 101
    },
    {
      "midi": 79,
      "hit": false,
      "t": 106440,
      "d": 166,
      "v": 100
    },
    {
      "midi": 69,
      "hit": false,
      "t": 106440,
      "d": 186,
      "v": 100
    },
    {
      "midi": 74,
      "hit": false,
      "t": 106440,
      "d": 201,
      "v": 121
    },
    {
      "midi": 71,
      "hit": false,
      "t": 106447,
      "d": 356,
      "v": 1
    },
    {
      "midi": 73,
      "hit": false,
      "t": 106800,
      "d": 156,
      "v": 126
    },
    {
      "midi": 76,
      "hit": false,
      "t": 106800,
      "d": 171,
      "v": 124
    },
    {
      "midi": 69,
      "hit": false,
      "t": 106800,
      "d": 226,
      "v": 115
    },
    {
      "midi": 74,
      "hit": false,
      "t": 106807,
      "d": 256,
      "v": 1
    },
    {
      "midi": 74,
      "hit": false,
      "t": 107040,
      "d": 126,
      "v": 95
    },
    {
      "midi": 71,
      "hit": false,
      "t": 107040,
      "d": 136,
      "v": 103
    },
    {
      "midi": 67,
      "hit": false,
      "t": 107040,
      "d": 211,
      "v": 112
    },
    {
      "midi": 69,
      "hit": false,
      "t": 107067,
      "d": 458,
      "v": 1
    },
    {
      "midi": 73,
      "hit": false,
      "t": 107280,
      "d": 71,
      "v": 96
    },
    {
      "midi": 76,
      "hit": false,
      "t": 107280,
      "d": 71,
      "v": 105
    },
    {
      "midi": 69,
      "hit": false,
      "t": 107280,
      "d": 76,
      "v": 115
    },
    {
      "midi": 76,
      "hit": false,
      "t": 107520,
      "d": 36,
      "v": 121
    },
    {
      "midi": 71,
      "hit": false,
      "t": 107520,
      "d": 51,
      "v": 125
    },
    {
      "midi": 81,
      "hit": false,
      "t": 107520,
      "d": 71,
      "v": 98
    },
    {
      "midi": 71,
      "hit": false,
      "t": 107530,
      "d": 828,
      "v": 1
    },
    {
      "midi": 81,
      "hit": false,
      "t": 107640,
      "d": 61,
      "v": 85
    },
    {
      "midi": 71,
      "hit": false,
      "t": 107640,
      "d": 66,
      "v": 127
    },
    {
      "midi": 76,
      "hit": false,
      "t": 107640,
      "d": 71,
      "v": 113
    },
    {
      "midi": 76,
      "hit": false,
      "t": 107880,
      "d": 66,
      "v": 125
    },
    {
      "midi": 71,
      "hit": false,
      "t": 107880,
      "d": 71,
      "v": 122
    },
    {
      "midi": 81,
      "hit": false,
      "t": 107880,
      "d": 71,
      "v": 103
    },
    {
      "midi": 76,
      "hit": false,
      "t": 108120,
      "d": 56,
      "v": 125
    },
    {
      "midi": 71,
      "hit": false,
      "t": 108120,
      "d": 61,
      "v": 125
    },
    {
      "midi": 81,
      "hit": false,
      "t": 108120,
      "d": 81,
      "v": 105
    },
    {
      "midi": 81,
      "hit": false,
      "t": 108360,
      "d": 146,
      "v": 104
    },
    {
      "midi": 71,
      "hit": false,
      "t": 108360,
      "d": 201,
      "v": 122
    },
    {
      "midi": 76,
      "hit": false,
      "t": 108360,
      "d": 206,
      "v": 126
    },
    {
      "midi": 69,
      "hit": false,
      "t": 108362,
      "d": 346,
      "v": 1
    },
    {
      "midi": 71,
      "hit": false,
      "t": 108712,
      "d": 478,
      "v": 1
    },
    {
      "midi": 71,
      "hit": false,
      "t": 108720,
      "d": 101,
      "v": 127
    },
    {
      "midi": 73,
      "hit": false,
      "t": 108720,
      "d": 136,
      "v": 122
    },
    {
      "midi": 76,
      "hit": false,
      "t": 108720,
      "d": 141,
      "v": 122
    },
    {
      "midi": 74,
      "hit": false,
      "t": 108960,
      "d": 111,
      "v": 108
    },
    {
      "midi": 71,
      "hit": false,
      "t": 108960,
      "d": 126,
      "v": 102
    },
    {
      "midi": 69,
      "hit": false,
      "t": 108960,
      "d": 196,
      "v": 90
    },
    {
      "midi": 69,
      "hit": false,
      "t": 109195,
      "d": 253,
      "v": 1
    },
    {
      "midi": 76,
      "hit": false,
      "t": 109200,
      "d": 76,
      "v": 121
    },
    {
      "midi": 73,
      "hit": false,
      "t": 109200,
      "d": 81,
      "v": 116
    },
    {
      "midi": 71,
      "hit": false,
      "t": 109200,
      "d": 86,
      "v": 116
    },
    {
      "midi": 74,
      "hit": false,
      "t": 109440,
      "d": 41,
      "v": 119
    },
    {
      "midi": 71,
      "hit": false,
      "t": 109440,
      "d": 51,
      "v": 123
    },
    {
      "midi": 79,
      "hit": false,
      "t": 109440,
      "d": 76,
      "v": 112
    },
    {
      "midi": 71,
      "hit": false,
      "t": 109452,
      "d": 813,
      "v": 1
    },
    {
      "midi": 79,
      "hit": false,
      "t": 109560,
      "d": 61,
      "v": 96
    },
    {
      "midi": 74,
      "hit": false,
      "t": 109560,
      "d": 66,
      "v": 119
    },
    {
      "midi": 71,
      "hit": false,
      "t": 109560,
      "d": 71,
      "v": 118
    },
    {
      "midi": 74,
      "hit": false,
      "t": 109800,
      "d": 61,
      "v": 123
    },
    {
      "midi": 69,
      "hit": false,
      "t": 109800,
      "d": 76,
      "v": 86
    },
    {
      "midi": 79,
      "hit": false,
      "t": 109800,
      "d": 76,
      "v": 107
    },
    {
      "midi": 74,
      "hit": false,
      "t": 110040,
      "d": 61,
      "v": 119
    },
    {
      "midi": 69,
      "hit": false,
      "t": 110040,
      "d": 66,
      "v": 79
    },
    {
      "midi": 79,
      "hit": false,
      "t": 110040,
      "d": 71,
      "v": 108
    },
    {
      "midi": 71,
      "hit": false,
      "t": 110270,
      "d": 333,
      "v": 1
    },
    {
      "midi": 79,
      "hit": false,
      "t": 110280,
      "d": 186,
      "v": 105
    },
    {
      "midi": 69,
      "hit": false,
      "t": 110280,
      "d": 211,
      "v": 102
    },
    {
      "midi": 74,
      "hit": false,
      "t": 110280,
      "d": 216,
      "v": 122
    },
    {
      "midi": 74,
      "hit": false,
      "t": 110607,
      "d": 256,
      "v": 1
    },
    {
      "midi": 76,
      "hit": false,
      "t": 110640,
      "d": 111,
      "v": 122
    },
    {
      "midi": 73,
      "hit": false,
      "t": 110640,
      "d": 121,
      "v": 122
    },
    {
      "midi": 69,
      "hit": false,
      "t": 110640,
      "d": 151,
      "v": 118
    },
    {
      "midi": 69,
      "hit": false,
      "t": 110867,
      "d": 488,
      "v": 1
    },
    {
      "midi": 74,
      "hit": false,
      "t": 110880,
      "d": 126,
      "v": 107
    },
    {
      "midi": 71,
      "hit": false,
      "t": 110880,
      "d": 131,
      "v": 109
    },
    {
      "midi": 67,
      "hit": false,
      "t": 110880,
      "d": 201,
      "v": 110
    },
    {
      "midi": 69,
      "hit": false,
      "t": 111120,
      "d": 81,
      "v": 109
    },
    {
      "midi": 73,
      "hit": false,
      "t": 111120,
      "d": 91,
      "v": 105
    },
    {
      "midi": 76,
      "hit": false,
      "t": 111120,
      "d": 91,
      "v": 104
    },
    {
      "midi": 67,
      "hit": false,
      "t": 115227,
      "d": 1168,
      "v": 1
    },
    {
      "midi": 66,
      "hit": false,
      "t": 116400,
      "d": 213,
      "v": 1
    },
    {
      "midi": 67,
      "hit": false,
      "t": 116617,
      "d": 1698,
      "v": 1
    },
    {
      "midi": 66,
      "hit": false,
      "t": 118320,
      "d": 238,
      "v": 1
    },
    {
      "midi": 67,
      "hit": false,
      "t": 118562,
      "d": 493,
      "v": 1
    },
    {
      "midi": 71,
      "hit": false,
      "t": 119060,
      "d": 1171,
      "v": 1
    },
    {
      "midi": 69,
      "hit": false,
      "t": 120235,
      "d": 233,
      "v": 1
    },
    {
      "midi": 71,
      "hit": false,
      "t": 120472,
      "d": 621,
      "v": 1
    },
    {
      "midi": 67,
      "hit": false,
      "t": 121097,
      "d": 1053,
      "v": 1
    },
    {
      "midi": 66,
      "hit": false,
      "t": 122155,
      "d": 246,
      "v": 1
    },
    {
      "midi": 67,
      "hit": false,
      "t": 122397,
      "d": 518,
      "v": 1
    },
    {
      "midi": 69,
      "hit": false,
      "t": 122920,
      "d": 918,
      "v": 1
    },
    {
      "midi": 67,
      "hit": false,
      "t": 123842,
      "d": 248,
      "v": 1
    },
    {
      "midi": 71,
      "hit": false,
      "t": 124077,
      "d": 291,
      "v": 1
    },
    {
      "midi": 69,
      "hit": false,
      "t": 124362,
      "d": 1911,
      "v": 1
    },
    {
      "midi": 71,
      "hit": false,
      "t": 126277,
      "d": 223,
      "v": 1
    },
    {
      "midi": 69,
      "hit": false,
      "t": 126505,
      "d": 238,
      "v": 1
    },
    {
      "midi": 71,
      "hit": false,
      "t": 126747,
      "d": 353,
      "v": 1
    },
    {
      "midi": 74,
      "hit": false,
      "t": 127105,
      "d": 348,
      "v": 1
    },
    {
      "midi": 71,
      "hit": false,
      "t": 127457,
      "d": 1518,
      "v": 1
    },
    {
      "midi": 76,
      "hit": false,
      "t": 128980,
      "d": 396,
      "v": 1
    },
    {
      "midi": 74,
      "hit": false,
      "t": 129342,
      "d": 278,
      "v": 1
    },
    {
      "midi": 71,
      "hit": false,
      "t": 129620,
      "d": 896,
      "v": 1
    },
    {
      "midi": 76,
      "hit": false,
      "t": 130520,
      "d": 398,
      "v": 1
    },
    {
      "midi": 76,
      "hit": false,
      "t": 130565,
      "d": 36,
      "v": 116
    },
    {
      "midi": 81,
      "hit": false,
      "t": 130570,
      "d": 41,
      "v": 62
    },
    {
      "midi": 71,
      "hit": false,
      "t": 130580,
      "d": 46,
      "v": 112
    },
    {
      "midi": 81,
      "hit": false,
      "t": 130660,
      "d": 91,
      "v": 60
    },
    {
      "midi": 76,
      "hit": false,
      "t": 130665,
      "d": 76,
      "v": 97
    },
    {
      "midi": 71,
      "hit": false,
      "t": 130670,
      "d": 76,
      "v": 88
    },
    {
      "midi": 71,
      "hit": false,
      "t": 130880,
      "d": 81,
      "v": 109
    },
    {
      "midi": 76,
      "hit": false,
      "t": 130885,
      "d": 51,
      "v": 122
    },
    {
      "midi": 81,
      "hit": false,
      "t": 130885,
      "d": 76,
      "v": 109
    },
    {
      "midi": 74,
      "hit": false,
      "t": 130892,
      "d": 3028,
      "v": 1
    },
    {
      "midi": 81,
      "hit": false,
      "t": 131125,
      "d": 71,
      "v": 96
    },
    {
      "midi": 76,
      "hit": false,
      "t": 131130,
      "d": 61,
      "v": 113
    },
    {
      "midi": 71,
      "hit": false,
      "t": 131140,
      "d": 76,
      "v": 93
    },
    {
      "midi": 76,
      "hit": false,
      "t": 131380,
      "d": 186,
      "v": 116
    },
    {
      "midi": 81,
      "hit": false,
      "t": 131385,
      "d": 111,
      "v": 95
    },
    {
      "midi": 71,
      "hit": false,
      "t": 131390,
      "d": 191,
      "v": 113
    },
    {
      "midi": 71,
      "hit": false,
      "t": 131725,
      "d": 121,
      "v": 107
    },
    {
      "midi": 73,
      "hit": false,
      "t": 131730,
      "d": 141,
      "v": 117
    },
    {
      "midi": 76,
      "hit": false,
      "t": 131735,
      "d": 141,
      "v": 113
    },
    {
      "midi": 71,
      "hit": false,
      "t": 131970,
      "d": 126,
      "v": 93
    },
    {
      "midi": 74,
      "hit": false,
      "t": 131980,
      "d": 111,
      "v": 89
    },
    {
      "midi": 69,
      "hit": false,
      "t": 131980,
      "d": 141,
      "v": 69
    },
    {
      "midi": 73,
      "hit": false,
      "t": 132225,
      "d": 71,
      "v": 104
    },
    {
      "midi": 76,
      "hit": false,
      "t": 132230,
      "d": 71,
      "v": 115
    },
    {
      "midi": 71,
      "hit": false,
      "t": 132235,
      "d": 76,
      "v": 100
    },
    {
      "midi": 74,
      "hit": false,
      "t": 132475,
      "d": 41,
      "v": 111
    },
    {
      "midi": 71,
      "hit": false,
      "t": 132475,
      "d": 46,
      "v": 113
    },
    {
      "midi": 79,
      "hit": false,
      "t": 132475,
      "d": 61,
      "v": 100
    },
    {
      "midi": 74,
      "hit": false,
      "t": 132585,
      "d": 86,
      "v": 109
    },
    {
      "midi": 71,
      "hit": false,
      "t": 132590,
      "d": 76,
      "v": 107
    },
    {
      "midi": 79,
      "hit": false,
      "t": 132590,
      "d": 76,
      "v": 88
    },
    {
      "midi": 71,
      "hit": false,
      "t": 132820,
      "d": 86,
      "v": 112
    },
    {
      "midi": 79,
      "hit": false,
      "t": 132820,
      "d": 91,
      "v": 97
    },
    {
      "midi": 74,
      "hit": false,
      "t": 132825,
      "d": 61,
      "v": 100
    },
    {
      "midi": 71,
      "hit": false,
      "t": 133070,
      "d": 81,
      "v": 108
    },
    {
      "midi": 79,
      "hit": false,
      "t": 133070,
      "d": 81,
      "v": 98
    },
    {
      "midi": 74,
      "hit": false,
      "t": 133075,
      "d": 66,
      "v": 106
    },
    {
      "midi": 79,
      "hit": false,
      "t": 133315,
      "d": 136,
      "v": 105
    },
    {
      "midi": 74,
      "hit": false,
      "t": 133315,
      "d": 176,
      "v": 106
    },
    {
      "midi": 71,
      "hit": false,
      "t": 133325,
      "d": 186,
      "v": 105
    },
    {
      "midi": 73,
      "hit": false,
      "t": 133650,
      "d": 176,
      "v": 110
    },
    {
      "midi": 76,
      "hit": false,
      "t": 133660,
      "d": 191,
      "v": 113
    },
    {
      "midi": 69,
      "hit": false,
      "t": 133665,
      "d": 201,
      "v": 96
    },
    {
      "midi": 71,
      "hit": false,
      "t": 133905,
      "d": 146,
      "v": 101
    },
    {
      "midi": 74,
      "hit": false,
      "t": 133910,
      "d": 136,
      "v": 99
    },
    {
      "midi": 67,
      "hit": false,
      "t": 133910,
      "d": 176,
      "v": 92
    },
    {
      "midi": 71,
      "hit": false,
      "t": 133925,
      "d": 511,
      "v": 1
    },
    {
      "midi": 73,
      "hit": false,
      "t": 134140,
      "d": 81,
      "v": 94
    },
    {
      "midi": 76,
      "hit": false,
      "t": 134145,
      "d": 81,
      "v": 107
    },
    {
      "midi": 69,
      "hit": false,
      "t": 134150,
      "d": 81,
      "v": 74
    },
    {
      "midi": 76,
      "hit": false,
      "t": 134397,
      "d": 411,
      "v": 1
    },
    {
      "midi": 76,
      "hit": false,
      "t": 134400,
      "d": 41,
      "v": 118
    },
    {
      "midi": 71,
      "hit": false,
      "t": 134400,
      "d": 46,
      "v": 94
    },
    {
      "midi": 81,
      "hit": false,
      "t": 134405,
      "d": 51,
      "v": 99
    },
    {
      "midi": 81,
      "hit": false,
      "t": 134510,
      "d": 81,
      "v": 68
    },
    {
      "midi": 76,
      "hit": false,
      "t": 134510,
      "d": 91,
      "v": 112
    },
    {
      "midi": 71,
      "hit": false,
      "t": 134515,
      "d": 86,
      "v": 99
    },
    {
      "midi": 81,
      "hit": false,
      "t": 134750,
      "d": 91,
      "v": 108
    },
    {
      "midi": 76,
      "hit": false,
      "t": 134755,
      "d": 76,
      "v": 111
    },
    {
      "midi": 71,
      "hit": false,
      "t": 134755,
      "d": 81,
      "v": 119
    },
    {
      "midi": 74,
      "hit": false,
      "t": 134785,
      "d": 371,
      "v": 1
    },
    {
      "midi": 76,
      "hit": false,
      "t": 135000,
      "d": 66,
      "v": 112
    },
    {
      "midi": 71,
      "hit": false,
      "t": 135005,
      "d": 71,
      "v": 120
    },
    {
      "midi": 81,
      "hit": false,
      "t": 135005,
      "d": 71,
      "v": 91
    },
    {
      "midi": 73,
      "hit": false,
      "t": 135135,
      "d": 288,
      "v": 1
    },
    {
      "midi": 76,
      "hit": false,
      "t": 135240,
      "d": 201,
      "v": 112
    },
    {
      "midi": 81,
      "hit": false,
      "t": 135245,
      "d": 126,
      "v": 95
    },
    {
      "midi": 71,
      "hit": false,
      "t": 135255,
      "d": 201,
      "v": 120
    },
    {
      "midi": 69,
      "hit": false,
      "t": 135427,
      "d": 483,
      "v": 1
    },
    {
      "midi": 71,
      "hit": false,
      "t": 135590,
      "d": 101,
      "v": 106
    },
    {
      "midi": 73,
      "hit": false,
      "t": 135590,
      "d": 161,
      "v": 109
    },
    {
      "midi": 76,
      "hit": false,
      "t": 135595,
      "d": 156,
      "v": 96
    },
    {
      "midi": 71,
      "hit": false,
      "t": 135840,
      "d": 126,
      "v": 95
    },
    {
      "midi": 69,
      "hit": false,
      "t": 135840,
      "d": 166,
      "v": 80
    },
    {
      "midi": 74,
      "hit": false,
      "t": 135845,
      "d": 116,
      "v": 98
    },
    {
      "midi": 73,
      "hit": false,
      "t": 135870,
      "d": 341,
      "v": 1
    },
    {
      "midi": 73,
      "hit": false,
      "t": 136065,
      "d": 91,
      "v": 87
    },
    {
      "midi": 71,
      "hit": false,
      "t": 136075,
      "d": 81,
      "v": 94
    },
    {
      "midi": 76,
      "hit": false,
      "t": 136080,
      "d": 76,
      "v": 83
    },
    {
      "midi": 71,
      "hit": false,
      "t": 136210,
      "d": 2013,
      "v": 1
    },
    {
      "midi": 71,
      "hit": false,
      "t": 136305,
      "d": 51,
      "v": 103
    },
    {
      "midi": 79,
      "hit": false,
      "t": 136315,
      "d": 66,
      "v": 99
    },
    {
      "midi": 74,
      "hit": false,
      "t": 136320,
      "d": 36,
      "v": 93
    },
    {
      "midi": 74,
      "hit": false,
      "t": 136420,
      "d": 86,
      "v": 94
    },
    {
      "midi": 71,
      "hit": false,
      "t": 136430,
      "d": 81,
      "v": 104
    },
    {
      "midi": 79,
      "hit": false,
      "t": 136430,
      "d": 81,
      "v": 58
    },
    {
      "midi": 71,
      "hit": false,
      "t": 136665,
      "d": 81,
      "v": 101
    },
    {
      "midi": 74,
      "hit": false,
      "t": 136670,
      "d": 66,
      "v": 102
    },
    {
      "midi": 79,
      "hit": false,
      "t": 136670,
      "d": 81,
      "v": 88
    },
    {
      "midi": 71,
      "hit": false,
      "t": 136905,
      "d": 86,
      "v": 109
    },
    {
      "midi": 74,
      "hit": false,
      "t": 136910,
      "d": 71,
      "v": 99
    },
    {
      "midi": 79,
      "hit": false,
      "t": 136910,
      "d": 81,
      "v": 89
    },
    {
      "midi": 79,
      "hit": false,
      "t": 137155,
      "d": 116,
      "v": 90
    },
    {
      "midi": 74,
      "hit": false,
      "t": 137155,
      "d": 161,
      "v": 112
    },
    {
      "midi": 71,
      "hit": false,
      "t": 137160,
      "d": 156,
      "v": 114
    },
    {
      "midi": 73,
      "hit": false,
      "t": 137495,
      "d": 171,
      "v": 123
    },
    {
      "midi": 76,
      "hit": false,
      "t": 137495,
      "d": 191,
      "v": 125
    },
    {
      "midi": 69,
      "hit": false,
      "t": 137510,
      "d": 196,
      "v": 90
    },
    {
      "midi": 71,
      "hit": false,
      "t": 137750,
      "d": 136,
      "v": 96
    },
    {
      "midi": 74,
      "hit": false,
      "t": 137755,
      "d": 101,
      "v": 92
    },
    {
      "midi": 67,
      "hit": false,
      "t": 137755,
      "d": 166,
      "v": 78
    },
    {
      "midi": 73,
      "hit": false,
      "t": 137970,
      "d": 91,
      "v": 80
    },
    {
      "midi": 76,
      "hit": false,
      "t": 137985,
      "d": 81,
      "v": 82
    },
    {
      "midi": 69,
      "hit": false,
      "t": 137990,
      "d": 81,
      "v": 78
    },
    {
      "midi": 76,
      "hit": false,
      "t": 138227,
      "d": 383,
      "v": 1
    },
    {
      "midi": 71,
      "hit": false,
      "t": 138245,
      "d": 51,
      "v": 113
    },
    {
      "midi": 76,
      "hit": false,
      "t": 138250,
      "d": 41,
      "v": 116
    },
    {
      "midi": 81,
      "hit": false,
      "t": 138255,
      "d": 76,
      "v": 99
    },
    {
      "midi": 81,
      "hit": false,
      "t": 138360,
      "d": 86,
      "v": 41
    },
    {
      "midi": 71,
      "hit": false,
      "t": 138365,
      "d": 76,
      "v": 98
    },
    {
      "midi": 76,
      "hit": false,
      "t": 138370,
      "d": 76,
      "v": 108
    },
    {
      "midi": 76,
      "hit": false,
      "t": 138595,
      "d": 71,
      "v": 118
    },
    {
      "midi": 71,
      "hit": false,
      "t": 138595,
      "d": 76,
      "v": 109
    },
    {
      "midi": 81,
      "hit": false,
      "t": 138600,
      "d": 81,
      "v": 99
    },
    {
      "midi": 74,
      "hit": false,
      "t": 138602,
      "d": 3016,
      "v": 1
    },
    {
      "midi": 71,
      "hit": false,
      "t": 138835,
      "d": 81,
      "v": 111
    },
    {
      "midi": 81,
      "hit": false,
      "t": 138835,
      "d": 86,
      "v": 99
    },
    {
      "midi": 76,
      "hit": false,
      "t": 138840,
      "d": 66,
      "v": 115
    },
    {
      "midi": 81,
      "hit": false,
      "t": 139075,
      "d": 116,
      "v": 84
    },
    {
      "midi": 76,
      "hit": false,
      "t": 139080,
      "d": 186,
      "v": 109
    },
    {
      "midi": 71,
      "hit": false,
      "t": 139080,
      "d": 196,
      "v": 113
    },
    {
      "midi": 71,
      "hit": false,
      "t": 139420,
      "d": 96,
      "v": 109
    },
    {
      "midi": 73,
      "hit": false,
      "t": 139425,
      "d": 131,
      "v": 121
    },
    {
      "midi": 76,
      "hit": false,
      "t": 139430,
      "d": 136,
      "v": 107
    },
    {
      "midi": 71,
      "hit": false,
      "t": 139665,
      "d": 116,
      "v": 90
    },
    {
      "midi": 69,
      "hit": false,
      "t": 139665,
      "d": 141,
      "v": 70
    },
    {
      "midi": 74,
      "hit": false,
      "t": 139670,
      "d": 101,
      "v": 98
    },
    {
      "midi": 73,
      "hit": false,
      "t": 139895,
      "d": 86,
      "v": 93
    },
    {
      "midi": 76,
      "hit": false,
      "t": 139900,
      "d": 76,
      "v": 99
    },
    {
      "midi": 71,
      "hit": false,
      "t": 139900,
      "d": 81,
      "v": 101
    },
    {
      "midi": 71,
      "hit": false,
      "t": 140135,
      "d": 51,
      "v": 112
    },
    {
      "midi": 74,
      "hit": false,
      "t": 140145,
      "d": 31,
      "v": 89
    },
    {
      "midi": 79,
      "hit": false,
      "t": 140150,
      "d": 41,
      "v": 74
    },
    {
      "midi": 74,
      "hit": false,
      "t": 140245,
      "d": 71,
      "v": 101
    },
    {
      "midi": 79,
      "hit": false,
      "t": 140245,
      "d": 76,
      "v": 85
    },
    {
      "midi": 71,
      "hit": false,
      "t": 140255,
      "d": 71,
      "v": 102
    },
    {
      "midi": 71,
      "hit": false,
      "t": 140480,
      "d": 76,
      "v": 98
    },
    {
      "midi": 79,
      "hit": false,
      "t": 140480,
      "d": 81,
      "v": 94
    },
    {
      "midi": 74,
      "hit": false,
      "t": 140485,
      "d": 71,
      "v": 103
    },
    {
      "midi": 71,
      "hit": false,
      "t": 140730,
      "d": 76,
      "v": 110
    },
    {
      "midi": 74,
      "hit": false,
      "t": 140730,
      "d": 76,
      "v": 111
    },
    {
      "midi": 79,
      "hit": false,
      "t": 140730,
      "d": 101,
      "v": 99
    },
    {
      "midi": 71,
      "hit": false,
      "t": 140985,
      "d": 206,
      "v": 108
    },
    {
      "midi": 79,
      "hit": false,
      "t": 140990,
      "d": 131,
      "v": 80
    },
    {
      "midi": 74,
      "hit": false,
      "t": 140990,
      "d": 216,
      "v": 127
    },
    {
      "midi": 81,
      "hit": false,
      "t": 141000,
      "d": 41,
      "v": 88
    },
    {
      "midi": 73,
      "hit": false,
      "t": 141335,
      "d": 156,
      "v": 104
    },
    {
      "midi": 76,
      "hit": false,
      "t": 141340,
      "d": 151,
      "v": 112
    },
    {
      "midi": 69,
      "hit": false,
      "t": 141345,
      "d": 176,
      "v": 102
    },
    {
      "midi": 71,
      "hit": false,
      "t": 141595,
      "d": 126,
      "v": 99
    },
    {
      "midi": 67,
      "hit": false,
      "t": 141595,
      "d": 176,
      "v": 78
    },
    {
      "midi": 74,
      "hit": false,
      "t": 141600,
      "d": 116,
      "v": 99
    },
    {
      "midi": 71,
      "hit": false,
      "t": 141622,
      "d": 488,
      "v": 1
    },
    {
      "midi": 73,
      "hit": false,
      "t": 141825,
      "d": 76,
      "v": 77
    },
    {
      "midi": 76,
      "hit": false,
      "t": 141830,
      "d": 101,
      "v": 92
    },
    {
      "midi": 69,
      "hit": false,
      "t": 141840,
      "d": 76,
      "v": 74
    },
    {
      "midi": 71,
      "hit": false,
      "t": 142085,
      "d": 56,
      "v": 99
    },
    {
      "midi": 81,
      "hit": false,
      "t": 142095,
      "d": 206,
      "v": 97
    },
    {
      "midi": 76,
      "hit": false,
      "t": 142095,
      "d": 403,
      "v": 1
    },
    {
      "midi": 76,
      "hit": false,
      "t": 142100,
      "d": 36,
      "v": 118
    },
    {
      "midi": 71,
      "hit": false,
      "t": 142215,
      "d": 81,
      "v": 99
    },
    {
      "midi": 76,
      "hit": false,
      "t": 142215,
      "d": 86,
      "v": 115
    },
    {
      "midi": 71,
      "hit": false,
      "t": 142430,
      "d": 86,
      "v": 109
    },
    {
      "midi": 81,
      "hit": false,
      "t": 142440,
      "d": 96,
      "v": 106
    },
    {
      "midi": 76,
      "hit": false,
      "t": 142445,
      "d": 61,
      "v": 127
    },
    {
      "midi": 74,
      "hit": false,
      "t": 142460,
      "d": 376,
      "v": 1
    },
    {
      "midi": 71,
      "hit": false,
      "t": 142675,
      "d": 81,
      "v": 97
    },
    {
      "midi": 76,
      "hit": false,
      "t": 142680,
      "d": 66,
      "v": 117
    },
    {
      "midi": 81,
      "hit": false,
      "t": 142680,
      "d": 81,
      "v": 105
    },
    {
      "midi": 73,
      "hit": false,
      "t": 142820,
      "d": 283,
      "v": 1
    },
    {
      "midi": 81,
      "hit": false,
      "t": 142920,
      "d": 116,
      "v": 105
    },
    {
      "midi": 76,
      "hit": false,
      "t": 142925,
      "d": 166,
      "v": 115
    },
    {
      "midi": 71,
      "hit": false,
      "t": 142930,
      "d": 166,
      "v": 107
    },
    {
      "midi": 69,
      "hit": false,
      "t": 143107,
      "d": 463,
      "v": 1
    },
    {
      "midi": 71,
      "hit": false,
      "t": 143265,
      "d": 86,
      "v": 112
    },
    {
      "midi": 76,
      "hit": false,
      "t": 143265,
      "d": 116,
      "v": 108
    },
    {
      "midi": 73,
      "hit": false,
      "t": 143270,
      "d": 131,
      "v": 116
    },
    {
      "midi": 71,
      "hit": false,
      "t": 143515,
      "d": 111,
      "v": 80
    },
    {
      "midi": 69,
      "hit": false,
      "t": 143515,
      "d": 136,
      "v": 68
    },
    {
      "midi": 74,
      "hit": false,
      "t": 143525,
      "d": 91,
      "v": 94
    },
    {
      "midi": 73,
      "hit": false,
      "t": 143530,
      "d": 338,
      "v": 1
    },
    {
      "midi": 73,
      "hit": false,
      "t": 143740,
      "d": 76,
      "v": 73
    },
    {
      "midi": 76,
      "hit": false,
      "t": 143750,
      "d": 71,
      "v": 81
    },
    {
      "midi": 71,
      "hit": false,
      "t": 143750,
      "d": 81,
      "v": 91
    },
    {
      "midi": 71,
      "hit": false,
      "t": 143872,
      "d": 2876,
      "v": 1
    },
    {
      "midi": 74,
      "hit": false,
      "t": 143995,
      "d": 46,
      "v": 111
    },
    {
      "midi": 71,
      "hit": false,
      "t": 143995,
      "d": 51,
      "v": 110
    },
    {
      "midi": 79,
      "hit": false,
      "t": 144000,
      "d": 56,
      "v": 89
    },
    {
      "midi": 74,
      "hit": false,
      "t": 144105,
      "d": 81,
      "v": 93
    },
    {
      "midi": 71,
      "hit": false,
      "t": 144110,
      "d": 81,
      "v": 102
    },
    {
      "midi": 79,
      "hit": false,
      "t": 144120,
      "d": 56,
      "v": 49
    },
    {
      "midi": 71,
      "hit": false,
      "t": 144330,
      "d": 86,
      "v": 116
    },
    {
      "midi": 79,
      "hit": false,
      "t": 144330,
      "d": 96,
      "v": 93
    },
    {
      "midi": 74,
      "hit": false,
      "t": 144335,
      "d": 71,
      "v": 104
    },
    {
      "midi": 71,
      "hit": false,
      "t": 144575,
      "d": 76,
      "v": 121
    },
    {
      "midi": 79,
      "hit": false,
      "t": 144575,
      "d": 81,
      "v": 105
    },
    {
      "midi": 74,
      "hit": false,
      "t": 144580,
      "d": 56,
      "v": 106
    },
    {
      "midi": 79,
      "hit": false,
      "t": 144815,
      "d": 151,
      "v": 98
    },
    {
      "midi": 74,
      "hit": false,
      "t": 144820,
      "d": 196,
      "v": 101
    },
    {
      "midi": 71,
      "hit": false,
      "t": 144830,
      "d": 171,
      "v": 120
    },
    {
      "midi": 76,
      "hit": false,
      "t": 145175,
      "d": 126,
      "v": 111
    },
    {
      "midi": 73,
      "hit": false,
      "t": 145175,
      "d": 131,
      "v": 111
    },
    {
      "midi": 69,
      "hit": false,
      "t": 145175,
      "d": 176,
      "v": 107
    },
    {
      "midi": 71,
      "hit": false,
      "t": 145425,
      "d": 151,
      "v": 106
    },
    {
      "midi": 67,
      "hit": false,
      "t": 145425,
      "d": 196,
      "v": 90
    },
    {
      "midi": 74,
      "hit": false,
      "t": 145430,
      "d": 136,
      "v": 97
    },
    {
      "midi": 73,
      "hit": false,
      "t": 145660,
      "d": 131,
      "v": 105
    },
    {
      "midi": 69,
      "hit": false,
      "t": 145660,
      "d": 136,
      "v": 90
    },
    {
      "midi": 76,
      "hit": false,
      "t": 145665,
      "d": 146,
      "v": 100
    },
    {
      "midi": 81,
      "hit": false,
      "t": 145930,
      "d": 61,
      "v": 91
    },
    {
      "midi": 76,
      "hit": false,
      "t": 145935,
      "d": 36,
      "v": 121
    },
    {
      "midi": 71,
      "hit": false,
      "t": 145935,
      "d": 51,
      "v": 113
    },
    {
      "midi": 71,
      "hit": false,
      "t": 146050,
      "d": 76,
      "v": 109
    },
    {
      "midi": 76,
      "hit": false,
      "t": 146055,
      "d": 66,
      "v": 106
    },
    {
      "midi": 81,
      "hit": false,
      "t": 146055,
      "d": 76,
      "v": 98
    },
    {
      "midi": 81,
      "hit": false,
      "t": 146285,
      "d": 66,
      "v": 100
    },
    {
      "midi": 76,
      "hit": false,
      "t": 146290,
      "d": 41,
      "v": 114
    },
    {
      "midi": 71,
      "hit": false,
      "t": 146290,
      "d": 61,
      "v": 110
    },
    {
      "midi": 76,
      "hit": false,
      "t": 146525,
      "d": 51,
      "v": 122
    },
    {
      "midi": 81,
      "hit": false,
      "t": 146530,
      "d": 56,
      "v": 105
    },
    {
      "midi": 71,
      "hit": false,
      "t": 146535,
      "d": 61,
      "v": 107
    },
    {
      "midi": 69,
      "hit": false,
      "t": 146752,
      "d": 353,
      "v": 1
    },
    {
      "midi": 81,
      "hit": false,
      "t": 146755,
      "d": 161,
      "v": 101
    },
    {
      "midi": 76,
      "hit": false,
      "t": 146760,
      "d": 211,
      "v": 124
    },
    {
      "midi": 71,
      "hit": false,
      "t": 146770,
      "d": 206,
      "v": 112
    },
    {
      "midi": 71,
      "hit": false,
      "t": 147110,
      "d": 471,
      "v": 1
    },
    {
      "midi": 73,
      "hit": false,
      "t": 147125,
      "d": 131,
      "v": 121
    },
    {
      "midi": 76,
      "hit": false,
      "t": 147130,
      "d": 111,
      "v": 120
    },
    {
      "midi": 69,
      "hit": false,
      "t": 147130,
      "d": 161,
      "v": 102
    },
    {
      "midi": 71,
      "hit": false,
      "t": 147375,
      "d": 131,
      "v": 109
    },
    {
      "midi": 74,
      "hit": false,
      "t": 147385,
      "d": 101,
      "v": 109
    },
    {
      "midi": 67,
      "hit": false,
      "t": 147385,
      "d": 151,
      "v": 79
    },
    {
      "midi": 69,
      "hit": false,
      "t": 147585,
      "d": 248,
      "v": 1
    },
    {
      "midi": 73,
      "hit": false,
      "t": 147605,
      "d": 86,
      "v": 84
    },
    {
      "midi": 69,
      "hit": false,
      "t": 147610,
      "d": 81,
      "v": 85
    },
    {
      "midi": 76,
      "hit": false,
      "t": 147620,
      "d": 71,
      "v": 87
    },
    {
      "midi": 71,
      "hit": false,
      "t": 147837,
      "d": 1208,
      "v": 1
    },
    {
      "midi": 69,
      "hit": false,
      "t": 147850,
      "d": 51,
      "v": 104
    },
    {
      "midi": 74,
      "hit": false,
      "t": 147855,
      "d": 36,
      "v": 96
    },
    {
      "midi": 79,
      "hit": false,
      "t": 147855,
      "d": 56,
      "v": 96
    },
    {
      "midi": 74,
      "hit": false,
      "t": 147965,
      "d": 81,
      "v": 99
    },
    {
      "midi": 69,
      "hit": false,
      "t": 147970,
      "d": 66,
      "v": 98
    },
    {
      "midi": 79,
      "hit": false,
      "t": 147970,
      "d": 71,
      "v": 77
    },
    {
      "midi": 74,
      "hit": false,
      "t": 148180,
      "d": 66,
      "v": 99
    },
    {
      "midi": 79,
      "hit": false,
      "t": 148180,
      "d": 76,
      "v": 87
    },
    {
      "midi": 69,
      "hit": false,
      "t": 148185,
      "d": 66,
      "v": 105
    },
    {
      "midi": 79,
      "hit": false,
      "t": 148420,
      "d": 81,
      "v": 102
    },
    {
      "midi": 74,
      "hit": false,
      "t": 148425,
      "d": 56,
      "v": 113
    },
    {
      "midi": 69,
      "hit": false,
      "t": 148430,
      "d": 66,
      "v": 92
    },
    {
      "midi": 79,
      "hit": false,
      "t": 148670,
      "d": 191,
      "v": 97
    },
    {
      "midi": 74,
      "hit": false,
      "t": 148670,
      "d": 236,
      "v": 110
    },
    {
      "midi": 69,
      "hit": false,
      "t": 148680,
      "d": 201,
      "v": 101
    },
    {
      "midi": 69,
      "hit": false,
      "t": 149030,
      "d": 161,
      "v": 100
    },
    {
      "midi": 73,
      "hit": false,
      "t": 149035,
      "d": 141,
      "v": 115
    },
    {
      "midi": 76,
      "hit": false,
      "t": 149040,
      "d": 136,
      "v": 99
    },
    {
      "midi": 74,
      "hit": false,
      "t": 149050,
      "d": 256,
      "v": 1
    },
    {
      "midi": 71,
      "hit": false,
      "t": 149280,
      "d": 106,
      "v": 103
    },
    {
      "midi": 74,
      "hit": false,
      "t": 149285,
      "d": 101,
      "v": 104
    },
    {
      "midi": 67,
      "hit": false,
      "t": 149290,
      "d": 126,
      "v": 75
    },
    {
      "midi": 69,
      "hit": false,
      "t": 149310,
      "d": 476,
      "v": 1
    },
    {
      "midi": 73,
      "hit": false,
      "t": 149510,
      "d": 86,
      "v": 84
    },
    {
      "midi": 69,
      "hit": false,
      "t": 149515,
      "d": 71,
      "v": 76
    },
    {
      "midi": 76,
      "hit": false,
      "t": 149520,
      "d": 76,
      "v": 92
    },
    {
      "midi": 71,
      "hit": false,
      "t": 149760,
      "d": 51,
      "v": 108
    },
    {
      "midi": 81,
      "hit": false,
      "t": 149760,
      "d": 71,
      "v": 98
    },
    {
      "midi": 76,
      "hit": false,
      "t": 149765,
      "d": 36,
      "v": 107
    },
    {
      "midi": 71,
      "hit": false,
      "t": 149790,
      "d": 811,
      "v": 1
    },
    {
      "midi": 76,
      "hit": false,
      "t": 149880,
      "d": 76,
      "v": 106
    },
    {
      "midi": 81,
      "hit": false,
      "t": 149885,
      "d": 71,
      "v": 80
    },
    {
      "midi": 71,
      "hit": false,
      "t": 149885,
      "d": 76,
      "v": 106
    },
    {
      "midi": 81,
      "hit": false,
      "t": 150100,
      "d": 81,
      "v": 99
    },
    {
      "midi": 76,
      "hit": false,
      "t": 150105,
      "d": 66,
      "v": 104
    },
    {
      "midi": 71,
      "hit": false,
      "t": 150110,
      "d": 71,
      "v": 121
    },
    {
      "midi": 76,
      "hit": false,
      "t": 150345,
      "d": 66,
      "v": 118
    },
    {
      "midi": 81,
      "hit": false,
      "t": 150350,
      "d": 71,
      "v": 100
    },
    {
      "midi": 71,
      "hit": false,
      "t": 150355,
      "d": 71,
      "v": 113
    },
    {
      "midi": 81,
      "hit": false,
      "t": 150595,
      "d": 111,
      "v": 102
    },
    {
      "midi": 76,
      "hit": false,
      "t": 150595,
      "d": 176,
      "v": 122
    },
    {
      "midi": 71,
      "hit": false,
      "t": 150605,
      "d": 191,
      "v": 113
    },
    {
      "midi": 69,
      "hit": false,
      "t": 150605,
      "d": 341,
      "v": 1
    },
    {
      "midi": 71,
      "hit": false,
      "t": 150950,
      "d": 461,
      "v": 1
    },
    {
      "midi": 76,
      "hit": false,
      "t": 150960,
      "d": 81,
      "v": 109
    },
    {
      "midi": 71,
      "hit": false,
      "t": 150960,
      "d": 91,
      "v": 108
    },
    {
      "midi": 73,
      "hit": false,
      "t": 150960,
      "d": 96,
      "v": 117
    },
    {
      "midi": 69,
      "hit": false,
      "t": 151200,
      "d": 111,
      "v": 67
    },
    {
      "midi": 71,
      "hit": false,
      "t": 151205,
      "d": 96,
      "v": 103
    },
    {
      "midi": 74,
      "hit": false,
      "t": 151210,
      "d": 91,
      "v": 101
    },
    {
      "midi": 69,
      "hit": false,
      "t": 151415,
      "d": 256,
      "v": 1
    },
    {
      "midi": 73,
      "hit": false,
      "t": 151440,
      "d": 81,
      "v": 93
    },
    {
      "midi": 76,
      "hit": false,
      "t": 151445,
      "d": 76,
      "v": 113
    },
    {
      "midi": 71,
      "hit": false,
      "t": 151450,
      "d": 76,
      "v": 94
    },
    {
      "midi": 71,
      "hit": false,
      "t": 151675,
      "d": 1213,
      "v": 1
    },
    {
      "midi": 74,
      "hit": false,
      "t": 151690,
      "d": 41,
      "v": 114
    },
    {
      "midi": 79,
      "hit": false,
      "t": 151690,
      "d": 71,
      "v": 104
    },
    {
      "midi": 71,
      "hit": false,
      "t": 151700,
      "d": 46,
      "v": 118
    },
    {
      "midi": 79,
      "hit": false,
      "t": 151810,
      "d": 56,
      "v": 67
    },
    {
      "midi": 74,
      "hit": false,
      "t": 151810,
      "d": 61,
      "v": 104
    },
    {
      "midi": 71,
      "hit": false,
      "t": 151835,
      "d": 56,
      "v": 110
    },
    {
      "midi": 74,
      "hit": false,
      "t": 152025,
      "d": 66,
      "v": 111
    },
    {
      "midi": 79,
      "hit": false,
      "t": 152025,
      "d": 76,
      "v": 96
    },
    {
      "midi": 71,
      "hit": false,
      "t": 152030,
      "d": 66,
      "v": 124
    },
    {
      "midi": 71,
      "hit": false,
      "t": 152260,
      "d": 71,
      "v": 111
    },
    {
      "midi": 74,
      "hit": false,
      "t": 152265,
      "d": 56,
      "v": 100
    },
    {
      "midi": 79,
      "hit": false,
      "t": 152265,
      "d": 76,
      "v": 91
    },
    {
      "midi": 79,
      "hit": false,
      "t": 152510,
      "d": 106,
      "v": 97
    },
    {
      "midi": 74,
      "hit": false,
      "t": 152510,
      "d": 131,
      "v": 113
    },
    {
      "midi": 71,
      "hit": false,
      "t": 152520,
      "d": 106,
      "v": 106
    },
    {
      "midi": 73,
      "hit": false,
      "t": 152865,
      "d": 141,
      "v": 73
    },
    {
      "midi": 69,
      "hit": false,
      "t": 152875,
      "d": 121,
      "v": 79
    },
    {
      "midi": 76,
      "hit": false,
      "t": 152880,
      "d": 86,
      "v": 68
    },
    {
      "midi": 74,
      "hit": false,
      "t": 152892,
      "d": 246,
      "v": 1
    },
    {
      "midi": 71,
      "hit": false,
      "t": 153110,
      "d": 131,
      "v": 93
    },
    {
      "midi": 67,
      "hit": false,
      "t": 153110,
      "d": 186,
      "v": 89
    },
    {
      "midi": 74,
      "hit": false,
      "t": 153115,
      "d": 121,
      "v": 89
    },
    {
      "midi": 69,
      "hit": false,
      "t": 153142,
      "d": 461,
      "v": 1
    },
    {
      "midi": 73,
      "hit": false,
      "t": 153335,
      "d": 81,
      "v": 70
    },
    {
      "midi": 69,
      "hit": false,
      "t": 153345,
      "d": 86,
      "v": 84
    },
    {
      "midi": 76,
      "hit": false,
      "t": 153350,
      "d": 71,
      "v": 64
    },
    {
      "midi": 71,
      "hit": false,
      "t": 153595,
      "d": 56,
      "v": 111
    },
    {
      "midi": 71,
      "hit": false,
      "t": 153607,
      "d": 856,
      "v": 1
    },
    {
      "midi": 76,
      "hit": false,
      "t": 153615,
      "d": 36,
      "v": 98
    },
    {
      "midi": 81,
      "hit": false,
      "t": 153615,
      "d": 66,
      "v": 87
    },
    {
      "midi": 71,
      "hit": false,
      "t": 153720,
      "d": 81,
      "v": 106
    },
    {
      "midi": 76,
      "hit": false,
      "t": 153720,
      "d": 81,
      "v": 100
    },
    {
      "midi": 81,
      "hit": false,
      "t": 153730,
      "d": 66,
      "v": 53
    },
    {
      "midi": 71,
      "hit": false,
      "t": 153955,
      "d": 71,
      "v": 111
    },
    {
      "midi": 76,
      "hit": false,
      "t": 153955,
      "d": 71,
      "v": 108
    },
    {
      "midi": 81,
      "hit": false,
      "t": 153960,
      "d": 81,
      "v": 95
    },
    {
      "midi": 76,
      "hit": false,
      "t": 154190,
      "d": 61,
      "v": 110
    },
    {
      "midi": 71,
      "hit": false,
      "t": 154190,
      "d": 71,
      "v": 107
    },
    {
      "midi": 81,
      "hit": false,
      "t": 154190,
      "d": 71,
      "v": 97
    },
    {
      "midi": 81,
      "hit": false,
      "t": 154430,
      "d": 141,
      "v": 93
    },
    {
      "midi": 76,
      "hit": false,
      "t": 154430,
      "d": 196,
      "v": 116
    },
    {
      "midi": 71,
      "hit": false,
      "t": 154440,
      "d": 196,
      "v": 111
    },
    {
      "midi": 69,
      "hit": false,
      "t": 154467,
      "d": 338,
      "v": 1
    },
    {
      "midi": 73,
      "hit": false,
      "t": 154785,
      "d": 136,
      "v": 113
    },
    {
      "midi": 71,
      "hit": false,
      "t": 154790,
      "d": 106,
      "v": 99
    },
    {
      "midi": 76,
      "hit": false,
      "t": 154795,
      "d": 126,
      "v": 98
    },
    {
      "midi": 71,
      "hit": false,
      "t": 154810,
      "d": 468,
      "v": 1
    },
    {
      "midi": 71,
      "hit": false,
      "t": 155040,
      "d": 116,
      "v": 93
    },
    {
      "midi": 74,
      "hit": false,
      "t": 155045,
      "d": 101,
      "v": 92
    },
    {
      "midi": 69,
      "hit": false,
      "t": 155050,
      "d": 131,
      "v": 70
    },
    {
      "midi": 73,
      "hit": false,
      "t": 155265,
      "d": 91,
      "v": 85
    },
    {
      "midi": 71,
      "hit": false,
      "t": 155275,
      "d": 86,
      "v": 95
    },
    {
      "midi": 76,
      "hit": false,
      "t": 155280,
      "d": 66,
      "v": 67
    },
    {
      "midi": 69,
      "hit": false,
      "t": 155282,
      "d": 253,
      "v": 1
    },
    {
      "midi": 74,
      "hit": false,
      "t": 155505,
      "d": 46,
      "v": 106
    },
    {
      "midi": 71,
      "hit": false,
      "t": 155505,
      "d": 61,
      "v": 122
    },
    {
      "midi": 79,
      "hit": false,
      "t": 155510,
      "d": 56,
      "v": 93
    },
    {
      "midi": 71,
      "hit": false,
      "t": 155540,
      "d": 1191,
      "v": 1
    },
    {
      "midi": 74,
      "hit": false,
      "t": 155620,
      "d": 86,
      "v": 95
    },
    {
      "midi": 79,
      "hit": false,
      "t": 155630,
      "d": 66,
      "v": 78
    },
    {
      "midi": 71,
      "hit": false,
      "t": 155645,
      "d": 71,
      "v": 100
    },
    {
      "midi": 74,
      "hit": false,
      "t": 155860,
      "d": 66,
      "v": 91
    },
    {
      "midi": 71,
      "hit": false,
      "t": 155865,
      "d": 71,
      "v": 112
    },
    {
      "midi": 79,
      "hit": false,
      "t": 155865,
      "d": 71,
      "v": 85
    },
    {
      "midi": 74,
      "hit": false,
      "t": 156105,
      "d": 61,
      "v": 93
    },
    {
      "midi": 71,
      "hit": false,
      "t": 156105,
      "d": 71,
      "v": 93
    },
    {
      "midi": 79,
      "hit": false,
      "t": 156110,
      "d": 71,
      "v": 82
    },
    {
      "midi": 79,
      "hit": false,
      "t": 156345,
      "d": 201,
      "v": 95
    },
    {
      "midi": 74,
      "hit": false,
      "t": 156350,
      "d": 216,
      "v": 99
    },
    {
      "midi": 71,
      "hit": false,
      "t": 156355,
      "d": 201,
      "v": 108
    },
    {
      "midi": 76,
      "hit": false,
      "t": 156710,
      "d": 146,
      "v": 100
    },
    {
      "midi": 73,
      "hit": false,
      "t": 156715,
      "d": 151,
      "v": 91
    },
    {
      "midi": 69,
      "hit": false,
      "t": 156725,
      "d": 161,
      "v": 97
    },
    {
      "midi": 74,
      "hit": false,
      "t": 156735,
      "d": 248,
      "v": 1
    },
    {
      "midi": 71,
      "hit": false,
      "t": 156960,
      "d": 141,
      "v": 104
    },
    {
      "midi": 74,
      "hit": false,
      "t": 156965,
      "d": 141,
      "v": 92
    },
    {
      "midi": 67,
      "hit": false,
      "t": 156970,
      "d": 151,
      "v": 78
    },
    {
      "midi": 69,
      "hit": false,
      "t": 156987,
      "d": 466,
      "v": 1
    },
    {
      "midi": 69,
      "hit": false,
      "t": 157195,
      "d": 91,
      "v": 67
    },
    {
      "midi": 73,
      "hit": false,
      "t": 157195,
      "d": 106,
      "v": 94
    },
    {
      "midi": 76,
      "hit": false,
      "t": 157205,
      "d": 101,
      "v": 92
    },
    {
      "midi": 81,
      "hit": false,
      "t": 157450,
      "d": 86,
      "v": 91
    },
    {
      "midi": 76,
      "hit": false,
      "t": 157455,
      "d": 26,
      "v": 98
    },
    {
      "midi": 71,
      "hit": false,
      "t": 157455,
      "d": 66,
      "v": 79
    },
    {
      "midi": 71,
      "hit": false,
      "t": 157457,
      "d": 828,
      "v": 1
    },
    {
      "midi": 76,
      "hit": false,
      "t": 157560,
      "d": 101,
      "v": 105
    },
    {
      "midi": 81,
      "hit": false,
      "t": 157570,
      "d": 81,
      "v": 22
    },
    {
      "midi": 71,
      "hit": false,
      "t": 157570,
      "d": 96,
      "v": 85
    },
    {
      "midi": 71,
      "hit": false,
      "t": 157790,
      "d": 91,
      "v": 87
    },
    {
      "midi": 81,
      "hit": false,
      "t": 157800,
      "d": 91,
      "v": 79
    },
    {
      "midi": 76,
      "hit": false,
      "t": 157805,
      "d": 66,
      "v": 112
    },
    {
      "midi": 71,
      "hit": false,
      "t": 158025,
      "d": 96,
      "v": 91
    },
    {
      "midi": 76,
      "hit": false,
      "t": 158035,
      "d": 81,
      "v": 120
    },
    {
      "midi": 81,
      "hit": false,
      "t": 158035,
      "d": 91,
      "v": 95
    },
    {
      "midi": 81,
      "hit": false,
      "t": 158270,
      "d": 171,
      "v": 98
    },
    {
      "midi": 76,
      "hit": false,
      "t": 158275,
      "d": 191,
      "v": 111
    },
    {
      "midi": 71,
      "hit": false,
      "t": 158275,
      "d": 206,
      "v": 89
    },
    {
      "midi": 69,
      "hit": false,
      "t": 158290,
      "d": 333,
      "v": 1
    },
    {
      "midi": 71,
      "hit": false,
      "t": 158627,
      "d": 473,
      "v": 1
    },
    {
      "midi": 76,
      "hit": false,
      "t": 158630,
      "d": 96,
      "v": 105
    },
    {
      "midi": 73,
      "hit": false,
      "t": 158635,
      "d": 131,
      "v": 121
    },
    {
      "midi": 77,
      "hit": false,
      "t": 158640,
      "d": 26,
      "v": 92
    },
    {
      "midi": 69,
      "hit": false,
      "t": 158655,
      "d": 121,
      "v": 63
    },
    {
      "midi": 71,
      "hit": false,
      "t": 158870,
      "d": 136,
      "v": 94
    },
    {
      "midi": 74,
      "hit": false,
      "t": 158880,
      "d": 116,
      "v": 90
    },
    {
      "midi": 67,
      "hit": false,
      "t": 158885,
      "d": 131,
      "v": 68
    },
    {
      "midi": 73,
      "hit": false,
      "t": 159105,
      "d": 106,
      "v": 94
    },
    {
      "midi": 69,
      "hit": false,
      "t": 159105,
      "d": 256,
      "v": 1
    },
    {
      "midi": 76,
      "hit": false,
      "t": 159115,
      "d": 96,
      "v": 94
    },
    {
      "midi": 69,
      "hit": false,
      "t": 159115,
      "d": 101,
      "v": 70
    },
    {
      "midi": 71,
      "hit": false,
      "t": 159345,
      "d": 46,
      "v": 76
    },
    {
      "midi": 74,
      "hit": false,
      "t": 159350,
      "d": 41,
      "v": 88
    },
    {
      "midi": 79,
      "hit": false,
      "t": 159355,
      "d": 56,
      "v": 93
    },
    {
      "midi": 71,
      "hit": false,
      "t": 159365,
      "d": 1196,
      "v": 1
    },
    {
      "midi": 71,
      "hit": false,
      "t": 159455,
      "d": 91,
      "v": 92
    },
    {
      "midi": 74,
      "hit": false,
      "t": 159460,
      "d": 91,
      "v": 95
    },
    {
      "midi": 79,
      "hit": false,
      "t": 159465,
      "d": 81,
      "v": 71
    },
    {
      "midi": 74,
      "hit": false,
      "t": 159705,
      "d": 81,
      "v": 100
    },
    {
      "midi": 71,
      "hit": false,
      "t": 159705,
      "d": 91,
      "v": 95
    },
    {
      "midi": 79,
      "hit": false,
      "t": 159710,
      "d": 81,
      "v": 90
    },
    {
      "midi": 74,
      "hit": false,
      "t": 159950,
      "d": 71,
      "v": 99
    },
    {
      "midi": 79,
      "hit": false,
      "t": 159950,
      "d": 81,
      "v": 91
    },
    {
      "midi": 71,
      "hit": false,
      "t": 159950,
      "d": 86,
      "v": 97
    },
    {
      "midi": 79,
      "hit": false,
      "t": 160195,
      "d": 136,
      "v": 90
    },
    {
      "midi": 71,
      "hit": false,
      "t": 160200,
      "d": 181,
      "v": 96
    },
    {
      "midi": 74,
      "hit": false,
      "t": 160200,
      "d": 196,
      "v": 105
    },
    {
      "midi": 76,
      "hit": false,
      "t": 160535,
      "d": 141,
      "v": 110
    },
    {
      "midi": 73,
      "hit": false,
      "t": 160540,
      "d": 146,
      "v": 106
    },
    {
      "midi": 69,
      "hit": false,
      "t": 160545,
      "d": 191,
      "v": 92
    },
    {
      "midi": 74,
      "hit": false,
      "t": 160565,
      "d": 238,
      "v": 1
    },
    {
      "midi": 71,
      "hit": false,
      "t": 160775,
      "d": 161,
      "v": 79
    },
    {
      "midi": 74,
      "hit": false,
      "t": 160780,
      "d": 146,
      "v": 98
    },
    {
      "midi": 67,
      "hit": false,
      "t": 160780,
      "d": 231,
      "v": 87
    },
    {
      "midi": 69,
      "hit": false,
      "t": 160807,
      "d": 468,
      "v": 1
    },
    {
      "midi": 73,
      "hit": false,
      "t": 161005,
      "d": 111,
      "v": 84
    },
    {
      "midi": 76,
      "hit": false,
      "t": 161010,
      "d": 121,
      "v": 91
    },
    {
      "midi": 69,
      "hit": false,
      "t": 161015,
      "d": 81,
      "v": 97
    },
    {
      "midi": 40,
      "hit": false,
      "t": 161640,
      "d": 236,
      "v": 127
    },
    {
      "midi": 64,
      "hit": false,
      "t": 161880,
      "d": 156,
      "v": 124
    },
    {
      "midi": 64,
      "hit": false,
      "t": 162120,
      "d": 81,
      "v": 101
    },
    {
      "midi": 64,
      "hit": false,
      "t": 162360,
      "d": 71,
      "v": 95
    },
    {
      "midi": 52,
      "hit": false,
      "t": 162360,
      "d": 96,
      "v": 106
    },
    {
      "midi": 55,
      "hit": false,
      "t": 162360,
      "d": 101,
      "v": 95
    },
    {
      "midi": 62,
      "hit": false,
      "t": 162360,
      "d": 106,
      "v": 127
    },
    {
      "midi": 57,
      "hit": false,
      "t": 162360,
      "d": 111,
      "v": 109
    },
    {
      "midi": 69,
      "hit": false,
      "t": 162480,
      "d": 16,
      "v": 62
    },
    {
      "midi": 67,
      "hit": false,
      "t": 162480,
      "d": 91,
      "v": 127
    },
    {
      "midi": 69,
      "hit": false,
      "t": 162600,
      "d": 66,
      "v": 94
    },
    {
      "midi": 69,
      "hit": false,
      "t": 162720,
      "d": 111,
      "v": 123
    },
    {
      "midi": 70,
      "hit": false,
      "t": 162720,
      "d": 126,
      "v": 123
    },
    {
      "midi": 71,
      "hit": false,
      "t": 162720,
      "d": 136,
      "v": 108
    },
    {
      "midi": 52,
      "hit": false,
      "t": 162960,
      "d": 21,
      "v": 60
    },
    {
      "midi": 55,
      "hit": false,
      "t": 162960,
      "d": 41,
      "v": 83
    },
    {
      "midi": 57,
      "hit": false,
      "t": 162960,
      "d": 101,
      "v": 98
    },
    {
      "midi": 62,
      "hit": false,
      "t": 162960,
      "d": 111,
      "v": 94
    },
    {
      "midi": 74,
      "hit": false,
      "t": 162960,
      "d": 231,
      "v": 127
    },
    {
      "midi": 53,
      "hit": false,
      "t": 163200,
      "d": 71,
      "v": 86
    },
    {
      "midi": 57,
      "hit": false,
      "t": 163200,
      "d": 71,
      "v": 86
    },
    {
      "midi": 70,
      "hit": false,
      "t": 163200,
      "d": 71,
      "v": 117
    },
    {
      "midi": 59,
      "hit": false,
      "t": 163200,
      "d": 76,
      "v": 109
    },
    {
      "midi": 64,
      "hit": false,
      "t": 163200,
      "d": 76,
      "v": 104
    },
    {
      "midi": 71,
      "hit": false,
      "t": 163200,
      "d": 126,
      "v": 80
    },
    {
      "midi": 72,
      "hit": false,
      "t": 163320,
      "d": 46,
      "v": 13
    },
    {
      "midi": 74,
      "hit": false,
      "t": 163320,
      "d": 166,
      "v": 123
    },
    {
      "midi": 64,
      "hit": false,
      "t": 163560,
      "d": 56,
      "v": 83
    },
    {
      "midi": 59,
      "hit": false,
      "t": 163560,
      "d": 66,
      "v": 90
    },
    {
      "midi": 57,
      "hit": false,
      "t": 163560,
      "d": 71,
      "v": 77
    },
    {
      "midi": 70,
      "hit": false,
      "t": 163560,
      "d": 71,
      "v": 108
    },
    {
      "midi": 53,
      "hit": false,
      "t": 163560,
      "d": 81,
      "v": 75
    },
    {
      "midi": 71,
      "hit": false,
      "t": 163560,
      "d": 101,
      "v": 92
    },
    {
      "midi": 72,
      "hit": false,
      "t": 163680,
      "d": 41,
      "v": 71
    },
    {
      "midi": 74,
      "hit": false,
      "t": 163680,
      "d": 161,
      "v": 125
    },
    {
      "midi": 69,
      "hit": false,
      "t": 164040,
      "d": 101,
      "v": 126
    },
    {
      "midi": 70,
      "hit": false,
      "t": 164160,
      "d": 91,
      "v": 96
    },
    {
      "midi": 69,
      "hit": false,
      "t": 164280,
      "d": 121,
      "v": 60
    },
    {
      "midi": 67,
      "hit": false,
      "t": 164400,
      "d": 86,
      "v": 114
    },
    {
      "midi": 64,
      "hit": false,
      "t": 164520,
      "d": 151,
      "v": 122
    },
    {
      "midi": 57,
      "hit": false,
      "t": 164760,
      "d": 61,
      "v": 84
    },
    {
      "midi": 59,
      "hit": false,
      "t": 164760,
      "d": 61,
      "v": 103
    },
    {
      "midi": 69,
      "hit": false,
      "t": 164760,
      "d": 181,
      "v": 83
    },
    {
      "midi": 57,
      "hit": false,
      "t": 165000,
      "d": 101,
      "v": 65
    },
    {
      "midi": 59,
      "hit": false,
      "t": 165000,
      "d": 151,
      "v": 90
    },
    {
      "midi": 67,
      "hit": false,
      "t": 165000,
      "d": 206,
      "v": 122
    },
    {
      "midi": 52,
      "hit": false,
      "t": 165240,
      "d": 26,
      "v": 52
    },
    {
      "midi": 57,
      "hit": false,
      "t": 165240,
      "d": 51,
      "v": 87
    },
    {
      "midi": 62,
      "hit": false,
      "t": 165240,
      "d": 81,
      "v": 124
    },
    {
      "midi": 67,
      "hit": false,
      "t": 165360,
      "d": 186,
      "v": 112
    },
    {
      "midi": 57,
      "hit": false,
      "t": 165600,
      "d": 56,
      "v": 82
    },
    {
      "midi": 62,
      "hit": false,
      "t": 165600,
      "d": 101,
      "v": 119
    },
    {
      "midi": 67,
      "hit": false,
      "t": 165720,
      "d": 236,
      "v": 127
    },
    {
      "midi": 64,
      "hit": false,
      "t": 165960,
      "d": 81,
      "v": 124
    },
    {
      "midi": 64,
      "hit": false,
      "t": 166080,
      "d": 91,
      "v": 75
    },
    {
      "midi": 57,
      "hit": false,
      "t": 166200,
      "d": 441,
      "v": 108
    },
    {
      "midi": 52,
      "hit": false,
      "t": 166200,
      "d": 501,
      "v": 120
    },
    {
      "midi": 59,
      "hit": false,
      "t": 166440,
      "d": 171,
      "v": 127
    },
    {
      "midi": 59,
      "hit": false,
      "t": 166680,
      "d": 21,
      "v": 61
    },
    {
      "midi": 57,
      "hit": false,
      "t": 166680,
      "d": 31,
      "v": 68
    },
    {
      "midi": 62,
      "hit": false,
      "t": 166680,
      "d": 86,
      "v": 122
    },
    {
      "midi": 64,
      "hit": false,
      "t": 166680,
      "d": 226,
      "v": 123
    },
    {
      "midi": 62,
      "hit": false,
      "t": 166920,
      "d": 116,
      "v": 101
    },
    {
      "midi": 53,
      "hit": false,
      "t": 167040,
      "d": 76,
      "v": 69
    },
    {
      "midi": 59,
      "hit": false,
      "t": 167040,
      "d": 81,
      "v": 121
    },
    {
      "midi": 57,
      "hit": false,
      "t": 167160,
      "d": 81,
      "v": 107
    },
    {
      "midi": 62,
      "hit": false,
      "t": 167280,
      "d": 166,
      "v": 118
    },
    {
      "midi": 53,
      "hit": false,
      "t": 167400,
      "d": 31,
      "v": 120
    },
    {
      "midi": 57,
      "hit": false,
      "t": 167520,
      "d": 6,
      "v": 123
    },
    {
      "midi": 59,
      "hit": false,
      "t": 167520,
      "d": 126,
      "v": 125
    },
    {
      "midi": 58,
      "hit": false,
      "t": 167640,
      "d": 106,
      "v": 126
    },
    {
      "midi": 57,
      "hit": false,
      "t": 167760,
      "d": 91,
      "v": 109
    },
    {
      "midi": 55,
      "hit": false,
      "t": 167880,
      "d": 91,
      "v": 110
    },
    {
      "midi": 59,
      "hit": false,
      "t": 168000,
      "d": 121,
      "v": 122
    },
    {
      "midi": 58,
      "hit": false,
      "t": 168240,
      "d": 111,
      "v": 126
    },
    {
      "midi": 57,
      "hit": false,
      "t": 168360,
      "d": 101,
      "v": 104
    },
    {
      "midi": 55,
      "hit": false,
      "t": 168480,
      "d": 46,
      "v": 93
    },
    {
      "midi": 50,
      "hit": false,
      "t": 168600,
      "d": 66,
      "v": 109
    },
    {
      "midi": 52,
      "hit": false,
      "t": 168600,
      "d": 81,
      "v": 104
    },
    {
      "midi": 47,
      "hit": false,
      "t": 168720,
      "d": 46,
      "v": 127
    },
    {
      "midi": 50,
      "hit": false,
      "t": 168720,
      "d": 56,
      "v": 122
    },
    {
      "midi": 53,
      "hit": false,
      "t": 168840,
      "d": 31,
      "v": 63
    },
    {
      "midi": 52,
      "hit": false,
      "t": 168840,
      "d": 91,
      "v": 112
    },
    {
      "midi": 55,
      "hit": false,
      "t": 168985,
      "d": 101,
      "v": 120
    },
    {
      "midi": 47,
      "hit": false,
      "t": 169095,
      "d": 56,
      "v": 122
    },
    {
      "midi": 50,
      "hit": false,
      "t": 169105,
      "d": 21,
      "v": 85
    },
    {
      "midi": 52,
      "hit": false,
      "t": 169205,
      "d": 56,
      "v": 124
    },
    {
      "midi": 55,
      "hit": false,
      "t": 169320,
      "d": 76,
      "v": 123
    },
    {
      "midi": 57,
      "hit": false,
      "t": 169330,
      "d": 26,
      "v": 64
    },
    {
      "midi": 57,
      "hit": false,
      "t": 169440,
      "d": 141,
      "v": 105
    },
    {
      "midi": 52,
      "hit": false,
      "t": 169560,
      "d": 56,
      "v": 124
    },
    {
      "midi": 50,
      "hit": false,
      "t": 169565,
      "d": 51,
      "v": 124
    },
    {
      "midi": 47,
      "hit": false,
      "t": 169565,
      "d": 56,
      "v": 114
    },
    {
      "midi": 55,
      "hit": false,
      "t": 169665,
      "d": 61,
      "v": 113
    },
    {
      "midi": 59,
      "hit": false,
      "t": 169785,
      "d": 36,
      "v": 52
    },
    {
      "midi": 57,
      "hit": false,
      "t": 169785,
      "d": 76,
      "v": 86
    },
    {
      "midi": 59,
      "hit": false,
      "t": 169915,
      "d": 136,
      "v": 122
    },
    {
      "midi": 50,
      "hit": false,
      "t": 170030,
      "d": 56,
      "v": 117
    },
    {
      "midi": 52,
      "hit": false,
      "t": 170030,
      "d": 66,
      "v": 123
    },
    {
      "midi": 57,
      "hit": false,
      "t": 170140,
      "d": 76,
      "v": 109
    },
    {
      "midi": 59,
      "hit": false,
      "t": 170270,
      "d": 86,
      "v": 91
    },
    {
      "midi": 62,
      "hit": false,
      "t": 170405,
      "d": 161,
      "v": 126
    },
    {
      "midi": 50,
      "hit": false,
      "t": 170515,
      "d": 66,
      "v": 112
    },
    {
      "midi": 52,
      "hit": false,
      "t": 170515,
      "d": 86,
      "v": 116
    },
    {
      "midi": 55,
      "hit": false,
      "t": 170520,
      "d": 101,
      "v": 105
    },
    {
      "midi": 59,
      "hit": false,
      "t": 170650,
      "d": 56,
      "v": 87
    },
    {
      "midi": 62,
      "hit": false,
      "t": 170775,
      "d": 71,
      "v": 66
    },
    {
      "midi": 64,
      "hit": false,
      "t": 170900,
      "d": 151,
      "v": 113
    },
    {
      "midi": 52,
      "hit": false,
      "t": 171020,
      "d": 61,
      "v": 112
    },
    {
      "midi": 57,
      "hit": false,
      "t": 171020,
      "d": 81,
      "v": 103
    },
    {
      "midi": 53,
      "hit": false,
      "t": 171025,
      "d": 51,
      "v": 103
    },
    {
      "midi": 48,
      "hit": false,
      "t": 171025,
      "d": 61,
      "v": 99
    },
    {
      "midi": 62,
      "hit": false,
      "t": 171130,
      "d": 71,
      "v": 111
    },
    {
      "midi": 64,
      "hit": false,
      "t": 171250,
      "d": 76,
      "v": 87
    },
    {
      "midi": 65,
      "hit": false,
      "t": 171260,
      "d": 36,
      "v": 67
    },
    {
      "midi": 67,
      "hit": false,
      "t": 171380,
      "d": 151,
      "v": 123
    },
    {
      "midi": 53,
      "hit": false,
      "t": 171490,
      "d": 51,
      "v": 108
    },
    {
      "midi": 57,
      "hit": false,
      "t": 171490,
      "d": 66,
      "v": 101
    },
    {
      "midi": 52,
      "hit": false,
      "t": 171495,
      "d": 51,
      "v": 108
    },
    {
      "midi": 48,
      "hit": false,
      "t": 171495,
      "d": 56,
      "v": 107
    },
    {
      "midi": 64,
      "hit": false,
      "t": 171605,
      "d": 61,
      "v": 117
    },
    {
      "midi": 67,
      "hit": false,
      "t": 171725,
      "d": 76,
      "v": 77
    },
    {
      "midi": 69,
      "hit": false,
      "t": 171855,
      "d": 141,
      "v": 100
    },
    {
      "midi": 52,
      "hit": false,
      "t": 171975,
      "d": 61,
      "v": 106
    },
    {
      "midi": 57,
      "hit": false,
      "t": 171975,
      "d": 81,
      "v": 106
    },
    {
      "midi": 48,
      "hit": false,
      "t": 171980,
      "d": 41,
      "v": 97
    },
    {
      "midi": 53,
      "hit": false,
      "t": 171980,
      "d": 51,
      "v": 106
    },
    {
      "midi": 67,
      "hit": false,
      "t": 172075,
      "d": 76,
      "v": 123
    },
    {
      "midi": 69,
      "hit": false,
      "t": 172190,
      "d": 91,
      "v": 94
    },
    {
      "midi": 71,
      "hit": false,
      "t": 172330,
      "d": 106,
      "v": 89
    },
    {
      "midi": 52,
      "hit": false,
      "t": 172470,
      "d": 56,
      "v": 9
    },
    {
      "midi": 53,
      "hit": false,
      "t": 172480,
      "d": 56,
      "v": 101
    },
    {
      "midi": 74,
      "hit": false,
      "t": 172480,
      "d": 116,
      "v": 127
    },
    {
      "midi": 57,
      "hit": false,
      "t": 172490,
      "d": 66,
      "v": 98
    },
    {
      "midi": 74,
      "hit": false,
      "t": 172705,
      "d": 136,
      "v": 97
    },
    {
      "midi": 71,
      "hit": false,
      "t": 172830,
      "d": 186,
      "v": 112
    },
    {
      "midi": 69,
      "hit": false,
      "t": 172940,
      "d": 101,
      "v": 94
    },
    {
      "midi": 67,
      "hit": false,
      "t": 173060,
      "d": 86,
      "v": 95
    },
    {
      "midi": 74,
      "hit": false,
      "t": 173180,
      "d": 116,
      "v": 124
    },
    {
      "midi": 52,
      "hit": false,
      "t": 173185,
      "d": 106,
      "v": 125
    },
    {
      "midi": 57,
      "hit": false,
      "t": 173190,
      "d": 71,
      "v": 123
    },
    {
      "midi": 62,
      "hit": false,
      "t": 173190,
      "d": 76,
      "v": 126
    },
    {
      "midi": 52,
      "hit": false,
      "t": 173400,
      "d": 171,
      "v": 121
    },
    {
      "midi": 74,
      "hit": false,
      "t": 173400,
      "d": 181,
      "v": 123
    },
    {
      "midi": 57,
      "hit": false,
      "t": 173405,
      "d": 186,
      "v": 117
    },
    {
      "midi": 62,
      "hit": false,
      "t": 173405,
      "d": 206,
      "v": 122
    },
    {
      "midi": 73,
      "hit": false,
      "t": 173425,
      "d": 11,
      "v": 92
    },
    {
      "midi": 71,
      "hit": false,
      "t": 173530,
      "d": 161,
      "v": 94
    },
    {
      "midi": 69,
      "hit": false,
      "t": 173640,
      "d": 96,
      "v": 83
    },
    {
      "midi": 67,
      "hit": false,
      "t": 173755,
      "d": 86,
      "v": 80
    },
    {
      "midi": 74,
      "hit": false,
      "t": 173885,
      "d": 86,
      "v": 117
    },
    {
      "midi": 52,
      "hit": false,
      "t": 173905,
      "d": 36,
      "v": 98
    },
    {
      "midi": 57,
      "hit": false,
      "t": 173905,
      "d": 36,
      "v": 112
    },
    {
      "midi": 62,
      "hit": false,
      "t": 173905,
      "d": 36,
      "v": 107
    },
    {
      "midi": 74,
      "hit": false,
      "t": 174125,
      "d": 146,
      "v": 123
    },
    {
      "midi": 62,
      "hit": false,
      "t": 174145,
      "d": 41,
      "v": 110
    },
    {
      "midi": 57,
      "hit": false,
      "t": 174150,
      "d": 31,
      "v": 112
    },
    {
      "midi": 52,
      "hit": false,
      "t": 174155,
      "d": 21,
      "v": 81
    },
    {
      "midi": 71,
      "hit": false,
      "t": 174240,
      "d": 146,
      "v": 114
    },
    {
      "midi": 69,
      "hit": false,
      "t": 174360,
      "d": 151,
      "v": 93
    },
    {
      "midi": 67,
      "hit": false,
      "t": 174465,
      "d": 81,
      "v": 97
    },
    {
      "midi": 71,
      "hit": false,
      "t": 174480,
      "d": 31,
      "v": 73
    },
    {
      "midi": 57,
      "hit": false,
      "t": 174595,
      "d": 71,
      "v": 104
    },
    {
      "midi": 64,
      "hit": false,
      "t": 174595,
      "d": 76,
      "v": 105
    },
    {
      "midi": 74,
      "hit": false,
      "t": 174595,
      "d": 116,
      "v": 114
    },
    {
      "midi": 53,
      "hit": false,
      "t": 174600,
      "d": 51,
      "v": 107
    },
    {
      "midi": 59,
      "hit": false,
      "t": 174600,
      "d": 71,
      "v": 109
    },
    {
      "midi": 74,
      "hit": false,
      "t": 174830,
      "d": 146,
      "v": 122
    },
    {
      "midi": 64,
      "hit": false,
      "t": 174845,
      "d": 61,
      "v": 86
    },
    {
      "midi": 57,
      "hit": false,
      "t": 174850,
      "d": 51,
      "v": 73
    },
    {
      "midi": 59,
      "hit": false,
      "t": 174860,
      "d": 36,
      "v": 82
    },
    {
      "midi": 71,
      "hit": false,
      "t": 174950,
      "d": 176,
      "v": 107
    },
    {
      "midi": 69,
      "hit": false,
      "t": 175060,
      "d": 106,
      "v": 90
    },
    {
      "midi": 67,
      "hit": false,
      "t": 175185,
      "d": 81,
      "v": 94
    },
    {
      "midi": 74,
      "hit": false,
      "t": 175325,
      "d": 96,
      "v": 116
    },
    {
      "midi": 64,
      "hit": false,
      "t": 175330,
      "d": 51,
      "v": 125
    },
    {
      "midi": 59,
      "hit": false,
      "t": 175335,
      "d": 46,
      "v": 100
    },
    {
      "midi": 53,
      "hit": false,
      "t": 175335,
      "d": 51,
      "v": 103
    },
    {
      "midi": 57,
      "hit": false,
      "t": 175335,
      "d": 51,
      "v": 87
    },
    {
      "midi": 74,
      "hit": false,
      "t": 175555,
      "d": 151,
      "v": 127
    },
    {
      "midi": 64,
      "hit": false,
      "t": 175590,
      "d": 56,
      "v": 95
    },
    {
      "midi": 57,
      "hit": false,
      "t": 175595,
      "d": 46,
      "v": 51
    },
    {
      "midi": 59,
      "hit": false,
      "t": 175600,
      "d": 46,
      "v": 72
    },
    {
      "midi": 71,
      "hit": false,
      "t": 175675,
      "d": 136,
      "v": 125
    },
    {
      "midi": 69,
      "hit": false,
      "t": 175795,
      "d": 81,
      "v": 89
    },
    {
      "midi": 67,
      "hit": false,
      "t": 175905,
      "d": 81,
      "v": 77
    },
    {
      "midi": 74,
      "hit": false,
      "t": 176025,
      "d": 106,
      "v": 121
    },
    {
      "midi": 57,
      "hit": false,
      "t": 176030,
      "d": 66,
      "v": 93
    },
    {
      "midi": 59,
      "hit": false,
      "t": 176030,
      "d": 66,
      "v": 104
    },
    {
      "midi": 64,
      "hit": false,
      "t": 176030,
      "d": 111,
      "v": 124
    },
    {
      "midi": 53,
      "hit": false,
      "t": 176035,
      "d": 81,
      "v": 108
    },
    {
      "midi": 73,
      "hit": false,
      "t": 176050,
      "d": 16,
      "v": 57
    },
    {
      "midi": 74,
      "hit": false,
      "t": 176245,
      "d": 156,
      "v": 119
    },
    {
      "midi": 64,
      "hit": false,
      "t": 176265,
      "d": 86,
      "v": 100
    },
    {
      "midi": 59,
      "hit": false,
      "t": 176265,
      "d": 101,
      "v": 96
    },
    {
      "midi": 57,
      "hit": false,
      "t": 176270,
      "d": 66,
      "v": 82
    },
    {
      "midi": 53,
      "hit": false,
      "t": 176270,
      "d": 86,
      "v": 74
    },
    {
      "midi": 71,
      "hit": false,
      "t": 176360,
      "d": 111,
      "v": 100
    },
    {
      "midi": 67,
      "hit": false,
      "t": 176495,
      "d": 56,
      "v": 122
    },
    {
      "midi": 71,
      "hit": false,
      "t": 176505,
      "d": 36,
      "v": 98
    },
    {
      "midi": 69,
      "hit": false,
      "t": 176515,
      "d": 16,
      "v": 47
    },
    {
      "midi": 52,
      "hit": false,
      "t": 176525,
      "d": 51,
      "v": 88
    },
    {
      "midi": 57,
      "hit": false,
      "t": 176530,
      "d": 41,
      "v": 85
    },
    {
      "midi": 62,
      "hit": false,
      "t": 176530,
      "d": 51,
      "v": 82
    },
    {
      "midi": 69,
      "hit": false,
      "t": 176620,
      "d": 91,
      "v": 123
    },
    {
      "midi": 76,
      "hit": false,
      "t": 176620,
      "d": 151,
      "v": 127
    },
    {
      "midi": 70,
      "hit": false,
      "t": 176665,
      "d": 116,
      "v": 71
    },
    {
      "midi": 73,
      "hit": false,
      "t": 176670,
      "d": 26,
      "v": 74
    },
    {
      "midi": 57,
      "hit": false,
      "t": 176795,
      "d": 51,
      "v": 102
    },
    {
      "midi": 62,
      "hit": false,
      "t": 176800,
      "d": 51,
      "v": 100
    },
    {
      "midi": 76,
      "hit": false,
      "t": 176850,
      "d": 206,
      "v": 122
    },
    {
      "midi": 69,
      "hit": false,
      "t": 176860,
      "d": 171,
      "v": 122
    },
    {
      "midi": 67,
      "hit": false,
      "t": 177105,
      "d": 161,
      "v": 127
    },
    {
      "midi": 76,
      "hit": false,
      "t": 177120,
      "d": 156,
      "v": 125
    },
    {
      "midi": 74,
      "hit": false,
      "t": 177330,
      "d": 156,
      "v": 119
    },
    {
      "midi": 76,
      "hit": false,
      "t": 177330,
      "d": 206,
      "v": 126
    },
    {
      "midi": 69,
      "hit": false,
      "t": 177335,
      "d": 196,
      "v": 125
    },
    {
      "midi": 52,
      "hit": false,
      "t": 177575,
      "d": 256,
      "v": 110
    },
    {
      "midi": 62,
      "hit": false,
      "t": 177580,
      "d": 236,
      "v": 110
    },
    {
      "midi": 57,
      "hit": false,
      "t": 177580,
      "d": 306,
      "v": 112
    },
    {
      "midi": 62,
      "hit": false,
      "t": 177940,
      "d": 186,
      "v": 126
    },
    {
      "midi": 52,
      "hit": false,
      "t": 177950,
      "d": 81,
      "v": 107
    },
    {
      "midi": 57,
      "hit": false,
      "t": 177965,
      "d": 36,
      "v": 72
    },
    {
      "midi": 52,
      "hit": false,
      "t": 178160,
      "d": 186,
      "v": 111
    },
    {
      "midi": 57,
      "hit": false,
      "t": 178165,
      "d": 221,
      "v": 112
    },
    {
      "midi": 62,
      "hit": false,
      "t": 178175,
      "d": 66,
      "v": 95
    },
    {
      "midi": 76,
      "hit": false,
      "t": 178390,
      "d": 221,
      "v": 123
    },
    {
      "midi": 74,
      "hit": false,
      "t": 178395,
      "d": 6,
      "v": 122
    },
    {
      "midi": 69,
      "hit": false,
      "t": 178395,
      "d": 61,
      "v": 122
    },
    {
      "midi": 70,
      "hit": false,
      "t": 178465,
      "d": 206,
      "v": 99
    },
    {
      "midi": 53,
      "hit": false,
      "t": 178625,
      "d": 96,
      "v": 102
    },
    {
      "midi": 57,
      "hit": false,
      "t": 178630,
      "d": 121,
      "v": 99
    },
    {
      "midi": 59,
      "hit": false,
      "t": 178630,
      "d": 136,
      "v": 118
    },
    {
      "midi": 64,
      "hit": false,
      "t": 178630,
      "d": 146,
      "v": 116
    },
    {
      "midi": 69,
      "hit": false,
      "t": 178760,
      "d": 176,
      "v": 125
    },
    {
      "midi": 76,
      "hit": false,
      "t": 178760,
      "d": 196,
      "v": 127
    },
    {
      "midi": 67,
      "hit": false,
      "t": 179015,
      "d": 161,
      "v": 122
    },
    {
      "midi": 76,
      "hit": false,
      "t": 179030,
      "d": 161,
      "v": 125
    },
    {
      "midi": 76,
      "hit": false,
      "t": 179260,
      "d": 201,
      "v": 127
    },
    {
      "midi": 69,
      "hit": false,
      "t": 179265,
      "d": 141,
      "v": 125
    },
    {
      "midi": 71,
      "hit": false,
      "t": 179350,
      "d": 96,
      "v": 123
    },
    {
      "midi": 57,
      "hit": false,
      "t": 179535,
      "d": 76,
      "v": 81
    },
    {
      "midi": 64,
      "hit": false,
      "t": 179535,
      "d": 86,
      "v": 100
    },
    {
      "midi": 53,
      "hit": false,
      "t": 179540,
      "d": 61,
      "v": 81
    },
    {
      "midi": 59,
      "hit": false,
      "t": 179545,
      "d": 71,
      "v": 92
    },
    {
      "midi": 64,
      "hit": false,
      "t": 179905,
      "d": 141,
      "v": 115
    },
    {
      "midi": 57,
      "hit": false,
      "t": 179905,
      "d": 166,
      "v": 102
    },
    {
      "midi": 53,
      "hit": false,
      "t": 179905,
      "d": 291,
      "v": 87
    },
    {
      "midi": 59,
      "hit": false,
      "t": 179910,
      "d": 136,
      "v": 110
    },
    {
      "midi": 64,
      "hit": false,
      "t": 180120,
      "d": 116,
      "v": 121
    },
    {
      "midi": 57,
      "hit": false,
      "t": 180125,
      "d": 86,
      "v": 81
    },
    {
      "midi": 59,
      "hit": false,
      "t": 180130,
      "d": 136,
      "v": 117
    },
    {
      "midi": 52,
      "hit": false,
      "t": 180360,
      "d": 131,
      "v": 105
    },
    {
      "midi": 57,
      "hit": false,
      "t": 180360,
      "d": 161,
      "v": 113
    },
    {
      "midi": 62,
      "hit": false,
      "t": 180365,
      "d": 161,
      "v": 122
    },
    {
      "midi": 62,
      "hit": false,
      "t": 180595,
      "d": 156,
      "v": 109
    },
    {
      "midi": 52,
      "hit": false,
      "t": 180600,
      "d": 126,
      "v": 119
    },
    {
      "midi": 57,
      "hit": false,
      "t": 180600,
      "d": 126,
      "v": 98
    },
    {
      "midi": 76,
      "hit": false,
      "t": 180725,
      "d": 86,
      "v": 127
    },
    {
      "midi": 76,
      "hit": false,
      "t": 180850,
      "d": 31,
      "v": 49
    },
    {
      "midi": 79,
      "hit": false,
      "t": 180850,
      "d": 81,
      "v": 124
    },
    {
      "midi": 81,
      "hit": false,
      "t": 180865,
      "d": 11,
      "v": 51
    },
    {
      "midi": 81,
      "hit": false,
      "t": 180940,
      "d": 86,
      "v": 108
    },
    {
      "midi": 79,
      "hit": false,
      "t": 180945,
      "d": 81,
      "v": 76
    },
    {
      "midi": 82,
      "hit": false,
      "t": 181065,
      "d": 91,
      "v": 121
    },
    {
      "midi": 83,
      "hit": false,
      "t": 181180,
      "d": 216,
      "v": 118
    },
    {
      "midi": 52,
      "hit": false,
      "t": 181195,
      "d": 66,
      "v": 121
    },
    {
      "midi": 82,
      "hit": false,
      "t": 181200,
      "d": 31,
      "v": 53
    },
    {
      "midi": 57,
      "hit": false,
      "t": 181200,
      "d": 51,
      "v": 117
    },
    {
      "midi": 62,
      "hit": false,
      "t": 181200,
      "d": 56,
      "v": 117
    },
    {
      "midi": 81,
      "hit": false,
      "t": 181320,
      "d": 91,
      "v": 122
    },
    {
      "midi": 81,
      "hit": false,
      "t": 181435,
      "d": 96,
      "v": 94
    },
    {
      "midi": 79,
      "hit": false,
      "t": 181435,
      "d": 131,
      "v": 107
    },
    {
      "midi": 76,
      "hit": false,
      "t": 181545,
      "d": 76,
      "v": 127
    },
    {
      "midi": 81,
      "hit": false,
      "t": 181655,
      "d": 201,
      "v": 125
    },
    {
      "midi": 79,
      "hit": false,
      "t": 181780,
      "d": 131,
      "v": 124
    },
    {
      "midi": 52,
      "hit": false,
      "t": 181790,
      "d": 91,
      "v": 114
    },
    {
      "midi": 57,
      "hit": false,
      "t": 181795,
      "d": 96,
      "v": 108
    },
    {
      "midi": 62,
      "hit": false,
      "t": 181795,
      "d": 126,
      "v": 114
    },
    {
      "midi": 76,
      "hit": false,
      "t": 181905,
      "d": 111,
      "v": 127
    },
    {
      "midi": 74,
      "hit": false,
      "t": 182015,
      "d": 76,
      "v": 112
    },
    {
      "midi": 57,
      "hit": false,
      "t": 182040,
      "d": 86,
      "v": 85
    },
    {
      "midi": 52,
      "hit": false,
      "t": 182045,
      "d": 56,
      "v": 106
    },
    {
      "midi": 62,
      "hit": false,
      "t": 182050,
      "d": 126,
      "v": 104
    },
    {
      "midi": 79,
      "hit": false,
      "t": 182125,
      "d": 171,
      "v": 122
    },
    {
      "midi": 76,
      "hit": false,
      "t": 182255,
      "d": 141,
      "v": 127
    },
    {
      "midi": 77,
      "hit": false,
      "t": 182270,
      "d": 26,
      "v": 104
    },
    {
      "midi": 74,
      "hit": false,
      "t": 182375,
      "d": 86,
      "v": 126
    },
    {
      "midi": 71,
      "hit": false,
      "t": 182485,
      "d": 76,
      "v": 100
    },
    {
      "midi": 64,
      "hit": false,
      "t": 182525,
      "d": 51,
      "v": 121
    },
    {
      "midi": 53,
      "hit": false,
      "t": 182530,
      "d": 41,
      "v": 79
    },
    {
      "midi": 59,
      "hit": false,
      "t": 182530,
      "d": 46,
      "v": 100
    },
    {
      "midi": 57,
      "hit": false,
      "t": 182530,
      "d": 51,
      "v": 96
    },
    {
      "midi": 76,
      "hit": false,
      "t": 182610,
      "d": 201,
      "v": 121
    },
    {
      "midi": 74,
      "hit": false,
      "t": 182735,
      "d": 111,
      "v": 111
    },
    {
      "midi": 73,
      "hit": false,
      "t": 182755,
      "d": 36,
      "v": 127
    },
    {
      "midi": 71,
      "hit": false,
      "t": 182850,
      "d": 86,
      "v": 127
    },
    {
      "midi": 69,
      "hit": false,
      "t": 182965,
      "d": 81,
      "v": 95
    },
    {
      "midi": 76,
      "hit": false,
      "t": 183080,
      "d": 51,
      "v": 107
    },
    {
      "midi": 74,
      "hit": false,
      "t": 183080,
      "d": 121,
      "v": 96
    },
    {
      "midi": 64,
      "hit": false,
      "t": 183100,
      "d": 201,
      "v": 116
    },
    {
      "midi": 53,
      "hit": false,
      "t": 183105,
      "d": 151,
      "v": 110
    },
    {
      "midi": 59,
      "hit": false,
      "t": 183105,
      "d": 176,
      "v": 115
    },
    {
      "midi": 57,
      "hit": false,
      "t": 183105,
      "d": 186,
      "v": 108
    },
    {
      "midi": 71,
      "hit": false,
      "t": 183325,
      "d": 91,
      "v": 122
    },
    {
      "midi": 70,
      "hit": false,
      "t": 183440,
      "d": 111,
      "v": 124
    },
    {
      "midi": 69,
      "hit": false,
      "t": 183555,
      "d": 146,
      "v": 94
    },
    {
      "midi": 67,
      "hit": false,
      "t": 183665,
      "d": 61,
      "v": 97
    },
    {
      "midi": 57,
      "hit": false,
      "t": 183685,
      "d": 111,
      "v": 103
    },
    {
      "midi": 59,
      "hit": false,
      "t": 183685,
      "d": 121,
      "v": 127
    },
    {
      "midi": 64,
      "hit": false,
      "t": 183810,
      "d": 106,
      "v": 124
    },
    {
      "midi": 65,
      "hit": false,
      "t": 183825,
      "d": 26,
      "v": 119
    },
    {
      "midi": 62,
      "hit": false,
      "t": 183915,
      "d": 81,
      "v": 121
    },
    {
      "midi": 59,
      "hit": false,
      "t": 184020,
      "d": 56,
      "v": 107
    },
    {
      "midi": 60,
      "hit": false,
      "t": 184025,
      "d": 21,
      "v": 81
    },
    {
      "midi": 67,
      "hit": false,
      "t": 184140,
      "d": 136,
      "v": 126
    },
    {
      "midi": 52,
      "hit": false,
      "t": 184375,
      "d": 181,
      "v": 106
    },
    {
      "midi": 57,
      "hit": false,
      "t": 184380,
      "d": 201,
      "v": 110
    },
    {
      "midi": 67,
      "hit": false,
      "t": 184390,
      "d": 151,
      "v": 126
    },
    {
      "midi": 62,
      "hit": false,
      "t": 184510,
      "d": 86,
      "v": 127
    },
    {
      "midi": 64,
      "hit": false,
      "t": 184625,
      "d": 196,
      "v": 127
    },
    {
      "midi": 62,
      "hit": false,
      "t": 184630,
      "d": 46,
      "v": 96
    },
    {
      "midi": 52,
      "hit": false,
      "t": 184800,
      "d": 121,
      "v": 104
    },
    {
      "midi": 57,
      "hit": false,
      "t": 184800,
      "d": 126,
      "v": 110
    },
    {
      "midi": 57,
      "hit": false,
      "t": 185160,
      "d": 271,
      "v": 108
    },
    {
      "midi": 52,
      "hit": false,
      "t": 185165,
      "d": 201,
      "v": 112
    },
    {
      "midi": 62,
      "hit": false,
      "t": 185195,
      "d": 16,
      "v": 39
    },
    {
      "midi": 62,
      "hit": false,
      "t": 185390,
      "d": 66,
      "v": 110
    },
    {
      "midi": 52,
      "hit": false,
      "t": 185395,
      "d": 26,
      "v": 38
    },
    {
      "midi": 52,
      "hit": false,
      "t": 185625,
      "d": 231,
      "v": 115
    },
    {
      "midi": 62,
      "hit": false,
      "t": 185630,
      "d": 231,
      "v": 104
    },
    {
      "midi": 57,
      "hit": false,
      "t": 185630,
      "d": 246,
      "v": 110
    },
    {
      "midi": 64,
      "hit": false,
      "t": 185880,
      "d": 76,
      "v": 127
    },
    {
      "midi": 68,
      "hit": false,
      "t": 185900,
      "d": 16,
      "v": 127
    },
    {
      "midi": 67,
      "hit": false,
      "t": 186000,
      "d": 191,
      "v": 124
    },
    {
      "midi": 64,
      "hit": false,
      "t": 186015,
      "d": 16,
      "v": 64
    },
    {
      "midi": 69,
      "hit": false,
      "t": 186100,
      "d": 96,
      "v": 87
    },
    {
      "midi": 70,
      "hit": false,
      "t": 186230,
      "d": 61,
      "v": 124
    },
    {
      "midi": 69,
      "hit": false,
      "t": 186265,
      "d": 26,
      "v": 114
    },
    {
      "midi": 52,
      "hit": false,
      "t": 186350,
      "d": 61,
      "v": 107
    },
    {
      "midi": 62,
      "hit": false,
      "t": 186355,
      "d": 141,
      "v": 127
    },
    {
      "midi": 57,
      "hit": false,
      "t": 186355,
      "d": 146,
      "v": 110
    },
    {
      "midi": 72,
      "hit": false,
      "t": 186365,
      "d": 66,
      "v": 127
    },
    {
      "midi": 71,
      "hit": false,
      "t": 186365,
      "d": 81,
      "v": 127
    },
    {
      "midi": 74,
      "hit": false,
      "t": 186475,
      "d": 111,
      "v": 117
    },
    {
      "midi": 71,
      "hit": false,
      "t": 186485,
      "d": 26,
      "v": 17
    },
    {
      "midi": 76,
      "hit": false,
      "t": 186570,
      "d": 76,
      "v": 117
    },
    {
      "midi": 64,
      "hit": false,
      "t": 186690,
      "d": 101,
      "v": 101
    },
    {
      "midi": 57,
      "hit": false,
      "t": 186695,
      "d": 86,
      "v": 104
    },
    {
      "midi": 59,
      "hit": false,
      "t": 186695,
      "d": 91,
      "v": 104
    },
    {
      "midi": 79,
      "hit": false,
      "t": 186695,
      "d": 116,
      "v": 121
    },
    {
      "midi": 53,
      "hit": false,
      "t": 186700,
      "d": 66,
      "v": 93
    },
    {
      "midi": 67,
      "hit": false,
      "t": 186700,
      "d": 81,
      "v": 125
    },
    {
      "midi": 78,
      "hit": false,
      "t": 186720,
      "d": 31,
      "v": 87
    },
    {
      "midi": 76,
      "hit": false,
      "t": 186810,
      "d": 86,
      "v": 88
    },
    {
      "midi": 67,
      "hit": false,
      "t": 186830,
      "d": 51,
      "v": 66
    },
    {
      "midi": 53,
      "hit": false,
      "t": 186920,
      "d": 411,
      "v": 119
    },
    {
      "midi": 57,
      "hit": false,
      "t": 186925,
      "d": 406,
      "v": 116
    },
    {
      "midi": 79,
      "hit": false,
      "t": 186925,
      "d": 416,
      "v": 123
    },
    {
      "midi": 64,
      "hit": false,
      "t": 186925,
      "d": 421,
      "v": 125
    },
    {
      "midi": 67,
      "hit": false,
      "t": 186930,
      "d": 336,
      "v": 123
    },
    {
      "midi": 59,
      "hit": false,
      "t": 186930,
      "d": 396,
      "v": 117
    },
    {
      "midi": 78,
      "hit": false,
      "t": 186945,
      "d": 31,
      "v": 108
    },
    {
      "midi": 76,
      "hit": false,
      "t": 186960,
      "d": 11,
      "v": 81
    },
    {
      "midi": 77,
      "hit": false,
      "t": 186960,
      "d": 11,
      "v": 69
    },
    {
      "midi": 76,
      "hit": false,
      "t": 187310,
      "d": 96,
      "v": 127
    },
    {
      "midi": 67,
      "hit": false,
      "t": 187325,
      "d": 56,
      "v": 125
    },
    {
      "midi": 53,
      "hit": false,
      "t": 187545,
      "d": 476,
      "v": 113
    },
    {
      "midi": 64,
      "hit": false,
      "t": 187550,
      "d": 156,
      "v": 122
    },
    {
      "midi": 57,
      "hit": false,
      "t": 187550,
      "d": 336,
      "v": 116
    },
    {
      "midi": 59,
      "hit": false,
      "t": 187555,
      "d": 376,
      "v": 118
    },
    {
      "midi": 64,
      "hit": false,
      "t": 187775,
      "d": 231,
      "v": 124
    },
    {
      "midi": 57,
      "hit": false,
      "t": 188035,
      "d": 51,
      "v": 66
    },
    {
      "midi": 52,
      "hit": false,
      "t": 188155,
      "d": 196,
      "v": 106
    },
    {
      "midi": 76,
      "hit": false,
      "t": 188160,
      "d": 211,
      "v": 127
    },
    {
      "midi": 62,
      "hit": false,
      "t": 188160,
      "d": 246,
      "v": 98
    },
    {
      "midi": 57,
      "hit": false,
      "t": 188165,
      "d": 216,
      "v": 102
    },
    {
      "midi": 64,
      "hit": false,
      "t": 188170,
      "d": 221,
      "v": 123
    },
    {
      "midi": 52,
      "hit": false,
      "t": 188510,
      "d": 191,
      "v": 99
    },
    {
      "midi": 62,
      "hit": false,
      "t": 188510,
      "d": 226,
      "v": 93
    },
    {
      "midi": 57,
      "hit": false,
      "t": 188520,
      "d": 186,
      "v": 81
    },
    {
      "midi": 78,
      "hit": false,
      "t": 188525,
      "d": 206,
      "v": 126
    },
    {
      "midi": 66,
      "hit": false,
      "t": 188530,
      "d": 201,
      "v": 126
    },
    {
      "midi": 62,
      "hit": false,
      "t": 188845,
      "d": 216,
      "v": 119
    },
    {
      "midi": 52,
      "hit": false,
      "t": 188850,
      "d": 166,
      "v": 108
    },
    {
      "midi": 57,
      "hit": false,
      "t": 188850,
      "d": 181,
      "v": 115
    },
    {
      "midi": 79,
      "hit": false,
      "t": 188855,
      "d": 196,
      "v": 124
    },
    {
      "midi": 67,
      "hit": false,
      "t": 188860,
      "d": 176,
      "v": 127
    },
    {
      "midi": 69,
      "hit": false,
      "t": 188865,
      "d": 151,
      "v": 127
    },
    {
      "midi": 52,
      "hit": false,
      "t": 189140,
      "d": 181,
      "v": 112
    },
    {
      "midi": 62,
      "hit": false,
      "t": 189140,
      "d": 216,
      "v": 102
    },
    {
      "midi": 57,
      "hit": false,
      "t": 189145,
      "d": 186,
      "v": 108
    },
    {
      "midi": 81,
      "hit": false,
      "t": 189155,
      "d": 206,
      "v": 115
    },
    {
      "midi": 69,
      "hit": false,
      "t": 189160,
      "d": 191,
      "v": 105
    },
    {
      "midi": 62,
      "hit": false,
      "t": 189465,
      "d": 201,
      "v": 108
    },
    {
      "midi": 52,
      "hit": false,
      "t": 189465,
      "d": 216,
      "v": 107
    },
    {
      "midi": 57,
      "hit": false,
      "t": 189470,
      "d": 186,
      "v": 99
    },
    {
      "midi": 71,
      "hit": false,
      "t": 189475,
      "d": 196,
      "v": 125
    },
    {
      "midi": 83,
      "hit": false,
      "t": 189480,
      "d": 231,
      "v": 124
    },
    {
      "midi": 52,
      "hit": false,
      "t": 189785,
      "d": 36,
      "v": 62
    },
    {
      "midi": 62,
      "hit": false,
      "t": 189785,
      "d": 181,
      "v": 88
    },
    {
      "midi": 57,
      "hit": false,
      "t": 189790,
      "d": 206,
      "v": 88
    },
    {
      "midi": 84,
      "hit": false,
      "t": 189805,
      "d": 171,
      "v": 119
    },
    {
      "midi": 72,
      "hit": false,
      "t": 189805,
      "d": 191,
      "v": 117
    },
    {
      "midi": 53,
      "hit": false,
      "t": 190095,
      "d": 176,
      "v": 96
    },
    {
      "midi": 64,
      "hit": false,
      "t": 190095,
      "d": 196,
      "v": 127
    },
    {
      "midi": 57,
      "hit": false,
      "t": 190100,
      "d": 191,
      "v": 84
    },
    {
      "midi": 59,
      "hit": false,
      "t": 190100,
      "d": 191,
      "v": 105
    },
    {
      "midi": 71,
      "hit": false,
      "t": 190105,
      "d": 181,
      "v": 125
    },
    {
      "midi": 83,
      "hit": false,
      "t": 190105,
      "d": 211,
      "v": 126
    },
    {
      "midi": 53,
      "hit": false,
      "t": 190415,
      "d": 176,
      "v": 107
    },
    {
      "midi": 57,
      "hit": false,
      "t": 190420,
      "d": 176,
      "v": 87
    },
    {
      "midi": 64,
      "hit": false,
      "t": 190420,
      "d": 196,
      "v": 119
    },
    {
      "midi": 72,
      "hit": false,
      "t": 190425,
      "d": 191,
      "v": 110
    },
    {
      "midi": 59,
      "hit": false,
      "t": 190430,
      "d": 166,
      "v": 91
    },
    {
      "midi": 84,
      "hit": false,
      "t": 190430,
      "d": 221,
      "v": 122
    },
    {
      "midi": 57,
      "hit": false,
      "t": 190735,
      "d": 161,
      "v": 84
    },
    {
      "midi": 53,
      "hit": false,
      "t": 190740,
      "d": 161,
      "v": 99
    },
    {
      "midi": 64,
      "hit": false,
      "t": 190740,
      "d": 196,
      "v": 105
    },
    {
      "midi": 59,
      "hit": false,
      "t": 190745,
      "d": 161,
      "v": 108
    },
    {
      "midi": 74,
      "hit": false,
      "t": 190750,
      "d": 186,
      "v": 125
    },
    {
      "midi": 86,
      "hit": false,
      "t": 190750,
      "d": 201,
      "v": 124
    },
    {
      "midi": 85,
      "hit": false,
      "t": 190775,
      "d": 11,
      "v": 127
    },
    {
      "midi": 53,
      "hit": false,
      "t": 191040,
      "d": 161,
      "v": 100
    },
    {
      "midi": 57,
      "hit": false,
      "t": 191045,
      "d": 156,
      "v": 97
    },
    {
      "midi": 88,
      "hit": false,
      "t": 191050,
      "d": 171,
      "v": 118
    },
    {
      "midi": 64,
      "hit": false,
      "t": 191050,
      "d": 181,
      "v": 114
    },
    {
      "midi": 59,
      "hit": false,
      "t": 191055,
      "d": 141,
      "v": 108
    },
    {
      "midi": 76,
      "hit": false,
      "t": 191055,
      "d": 171,
      "v": 123
    },
    {
      "midi": 64,
      "hit": false,
      "t": 191360,
      "d": 191,
      "v": 116
    },
    {
      "midi": 53,
      "hit": false,
      "t": 191360,
      "d": 201,
      "v": 95
    },
    {
      "midi": 90,
      "hit": false,
      "t": 191365,
      "d": 136,
      "v": 125
    },
    {
      "midi": 59,
      "hit": false,
      "t": 191365,
      "d": 161,
      "v": 90
    },
    {
      "midi": 57,
      "hit": false,
      "t": 191365,
      "d": 171,
      "v": 88
    },
    {
      "midi": 78,
      "hit": false,
      "t": 191370,
      "d": 156,
      "v": 123
    },
    {
      "midi": 53,
      "hit": false,
      "t": 191670,
      "d": 126,
      "v": 95
    },
    {
      "midi": 64,
      "hit": false,
      "t": 191670,
      "d": 161,
      "v": 122
    },
    {
      "midi": 57,
      "hit": false,
      "t": 191675,
      "d": 151,
      "v": 103
    },
    {
      "midi": 84,
      "hit": false,
      "t": 191680,
      "d": 161,
      "v": 127
    },
    {
      "midi": 72,
      "hit": false,
      "t": 191680,
      "d": 166,
      "v": 122
    },
    {
      "midi": 59,
      "hit": false,
      "t": 191680,
      "d": 171,
      "v": 95
    },
    {
      "midi": 57,
      "hit": false,
      "t": 191975,
      "d": 186,
      "v": 113
    },
    {
      "midi": 52,
      "hit": false,
      "t": 191980,
      "d": 121,
      "v": 111
    },
    {
      "midi": 62,
      "hit": false,
      "t": 191980,
      "d": 196,
      "v": 122
    },
    {
      "midi": 71,
      "hit": false,
      "t": 191995,
      "d": 181,
      "v": 123
    },
    {
      "midi": 83,
      "hit": false,
      "t": 191995,
      "d": 206,
      "v": 127
    },
    {
      "midi": 52,
      "hit": false,
      "t": 192205,
      "d": 76,
      "v": 93
    },
    {
      "midi": 57,
      "hit": false,
      "t": 192210,
      "d": 101,
      "v": 46
    },
    {
      "midi": 71,
      "hit": false,
      "t": 192270,
      "d": 61,
      "v": 127
    },
    {
      "midi": 62,
      "hit": false,
      "t": 192280,
      "d": 91,
      "v": 80
    },
    {
      "midi": 83,
      "hit": false,
      "t": 192340,
      "d": 61,
      "v": 123
    },
    {
      "midi": 52,
      "hit": false,
      "t": 192380,
      "d": 76,
      "v": 93
    },
    {
      "midi": 57,
      "hit": false,
      "t": 192390,
      "d": 96,
      "v": 102
    },
    {
      "midi": 71,
      "hit": false,
      "t": 192395,
      "d": 76,
      "v": 101
    },
    {
      "midi": 62,
      "hit": false,
      "t": 192470,
      "d": 96,
      "v": 86
    },
    {
      "midi": 83,
      "hit": false,
      "t": 192475,
      "d": 51,
      "v": 111
    },
    {
      "midi": 71,
      "hit": false,
      "t": 192530,
      "d": 71,
      "v": 93
    },
    {
      "midi": 52,
      "hit": false,
      "t": 192550,
      "d": 101,
      "v": 93
    },
    {
      "midi": 57,
      "hit": false,
      "t": 192555,
      "d": 151,
      "v": 85
    },
    {
      "midi": 83,
      "hit": false,
      "t": 192595,
      "d": 36,
      "v": 84
    },
    {
      "midi": 71,
      "hit": false,
      "t": 192645,
      "d": 76,
      "v": 82
    },
    {
      "midi": 62,
      "hit": false,
      "t": 192665,
      "d": 96,
      "v": 110
    },
    {
      "midi": 83,
      "hit": false,
      "t": 192710,
      "d": 31,
      "v": 68
    },
    {
      "midi": 52,
      "hit": false,
      "t": 192745,
      "d": 296,
      "v": 85
    },
    {
      "midi": 71,
      "hit": false,
      "t": 192755,
      "d": 71,
      "v": 64
    },
    {
      "midi": 57,
      "hit": false,
      "t": 192760,
      "d": 311,
      "v": 73
    },
    {
      "midi": 83,
      "hit": false,
      "t": 192800,
      "d": 76,
      "v": 88
    },
    {
      "midi": 62,
      "hit": false,
      "t": 192835,
      "d": 256,
      "v": 87
    },
    {
      "midi": 71,
      "hit": false,
      "t": 192845,
      "d": 91,
      "v": 59
    },
    {
      "midi": 71,
      "hit": false,
      "t": 268337,
      "d": 478,
      "v": 1
    },
    {
      "midi": 81,
      "hit": false,
      "t": 268800,
      "d": 31,
      "v": 61
    },
    {
      "midi": 76,
      "hit": false,
      "t": 268800,
      "d": 36,
      "v": 127
    },
    {
      "midi": 71,
      "hit": false,
      "t": 268800,
      "d": 51,
      "v": 106
    },
    {
      "midi": 76,
      "hit": false,
      "t": 268820,
      "d": 393,
      "v": 1
    },
    {
      "midi": 76,
      "hit": false,
      "t": 268920,
      "d": 56,
      "v": 103
    },
    {
      "midi": 71,
      "hit": false,
      "t": 268920,
      "d": 76,
      "v": 73
    },
    {
      "midi": 81,
      "hit": false,
      "t": 268920,
      "d": 101,
      "v": 84
    },
    {
      "midi": 76,
      "hit": false,
      "t": 269160,
      "d": 56,
      "v": 118
    },
    {
      "midi": 81,
      "hit": false,
      "t": 269160,
      "d": 61,
      "v": 89
    },
    {
      "midi": 71,
      "hit": false,
      "t": 269160,
      "d": 71,
      "v": 109
    },
    {
      "midi": 74,
      "hit": false,
      "t": 269182,
      "d": 3003,
      "v": 1
    },
    {
      "midi": 76,
      "hit": false,
      "t": 269400,
      "d": 56,
      "v": 124
    },
    {
      "midi": 81,
      "hit": false,
      "t": 269400,
      "d": 66,
      "v": 89
    },
    {
      "midi": 71,
      "hit": false,
      "t": 269400,
      "d": 71,
      "v": 109
    },
    {
      "midi": 81,
      "hit": false,
      "t": 269640,
      "d": 96,
      "v": 106
    },
    {
      "midi": 76,
      "hit": false,
      "t": 269640,
      "d": 131,
      "v": 122
    },
    {
      "midi": 71,
      "hit": false,
      "t": 269640,
      "d": 161,
      "v": 111
    },
    {
      "midi": 73,
      "hit": false,
      "t": 270000,
      "d": 66,
      "v": 104
    },
    {
      "midi": 76,
      "hit": false,
      "t": 270000,
      "d": 81,
      "v": 98
    },
    {
      "midi": 69,
      "hit": false,
      "t": 270000,
      "d": 136,
      "v": 95
    },
    {
      "midi": 71,
      "hit": false,
      "t": 270240,
      "d": 81,
      "v": 86
    },
    {
      "midi": 74,
      "hit": false,
      "t": 270240,
      "d": 91,
      "v": 84
    },
    {
      "midi": 67,
      "hit": false,
      "t": 270240,
      "d": 116,
      "v": 76
    },
    {
      "midi": 69,
      "hit": false,
      "t": 270480,
      "d": 71,
      "v": 78
    },
    {
      "midi": 76,
      "hit": false,
      "t": 270480,
      "d": 71,
      "v": 91
    },
    {
      "midi": 73,
      "hit": false,
      "t": 270480,
      "d": 81,
      "v": 97
    },
    {
      "midi": 71,
      "hit": false,
      "t": 270720,
      "d": 21,
      "v": 69
    },
    {
      "midi": 74,
      "hit": false,
      "t": 270720,
      "d": 41,
      "v": 103
    },
    {
      "midi": 79,
      "hit": false,
      "t": 270720,
      "d": 166,
      "v": 72
    },
    {
      "midi": 69,
      "hit": false,
      "t": 270840,
      "d": 51,
      "v": 91
    },
    {
      "midi": 74,
      "hit": false,
      "t": 270840,
      "d": 61,
      "v": 91
    },
    {
      "midi": 74,
      "hit": false,
      "t": 271080,
      "d": 56,
      "v": 113
    },
    {
      "midi": 71,
      "hit": false,
      "t": 271080,
      "d": 61,
      "v": 114
    },
    {
      "midi": 79,
      "hit": false,
      "t": 271080,
      "d": 71,
      "v": 86
    },
    {
      "midi": 74,
      "hit": false,
      "t": 271320,
      "d": 56,
      "v": 105
    },
    {
      "midi": 71,
      "hit": false,
      "t": 271320,
      "d": 61,
      "v": 97
    },
    {
      "midi": 79,
      "hit": false,
      "t": 271320,
      "d": 66,
      "v": 85
    },
    {
      "midi": 79,
      "hit": false,
      "t": 271560,
      "d": 176,
      "v": 92
    },
    {
      "midi": 74,
      "hit": false,
      "t": 271560,
      "d": 221,
      "v": 113
    },
    {
      "midi": 71,
      "hit": false,
      "t": 271560,
      "d": 236,
      "v": 109
    },
    {
      "midi": 73,
      "hit": false,
      "t": 271920,
      "d": 61,
      "v": 108
    },
    {
      "midi": 76,
      "hit": false,
      "t": 271920,
      "d": 66,
      "v": 95
    },
    {
      "midi": 69,
      "hit": false,
      "t": 271920,
      "d": 86,
      "v": 77
    },
    {
      "midi": 71,
      "hit": false,
      "t": 272160,
      "d": 76,
      "v": 88
    },
    {
      "midi": 74,
      "hit": false,
      "t": 272160,
      "d": 81,
      "v": 73
    },
    {
      "midi": 67,
      "hit": false,
      "t": 272160,
      "d": 96,
      "v": 77
    },
    {
      "midi": 71,
      "hit": false,
      "t": 272190,
      "d": 508,
      "v": 1
    },
    {
      "midi": 73,
      "hit": false,
      "t": 272400,
      "d": 61,
      "v": 97
    },
    {
      "midi": 69,
      "hit": false,
      "t": 272400,
      "d": 66,
      "v": 74
    },
    {
      "midi": 76,
      "hit": false,
      "t": 272400,
      "d": 66,
      "v": 88
    },
    {
      "midi": 76,
      "hit": false,
      "t": 272640,
      "d": 36,
      "v": 116
    },
    {
      "midi": 71,
      "hit": false,
      "t": 272640,
      "d": 56,
      "v": 98
    },
    {
      "midi": 81,
      "hit": false,
      "t": 272640,
      "d": 171,
      "v": 84
    },
    {
      "midi": 76,
      "hit": false,
      "t": 272702,
      "d": 386,
      "v": 1
    },
    {
      "midi": 71,
      "hit": false,
      "t": 272760,
      "d": 66,
      "v": 91
    },
    {
      "midi": 76,
      "hit": false,
      "t": 272760,
      "d": 71,
      "v": 95
    },
    {
      "midi": 76,
      "hit": false,
      "t": 273000,
      "d": 56,
      "v": 105
    },
    {
      "midi": 71,
      "hit": false,
      "t": 273000,
      "d": 66,
      "v": 105
    },
    {
      "midi": 81,
      "hit": false,
      "t": 273000,
      "d": 71,
      "v": 84
    },
    {
      "midi": 74,
      "hit": false,
      "t": 273047,
      "d": 358,
      "v": 1
    },
    {
      "midi": 76,
      "hit": false,
      "t": 273240,
      "d": 56,
      "v": 114
    },
    {
      "midi": 81,
      "hit": false,
      "t": 273240,
      "d": 56,
      "v": 83
    },
    {
      "midi": 71,
      "hit": false,
      "t": 273240,
      "d": 66,
      "v": 102
    },
    {
      "midi": 73,
      "hit": false,
      "t": 273380,
      "d": 268,
      "v": 1
    },
    {
      "midi": 81,
      "hit": false,
      "t": 273480,
      "d": 211,
      "v": 88
    },
    {
      "midi": 71,
      "hit": false,
      "t": 273480,
      "d": 256,
      "v": 100
    },
    {
      "midi": 76,
      "hit": false,
      "t": 273480,
      "d": 256,
      "v": 105
    },
    {
      "midi": 69,
      "hit": false,
      "t": 273652,
      "d": 486,
      "v": 1
    },
    {
      "midi": 79,
      "hit": false,
      "t": 273840,
      "d": 51,
      "v": 65
    },
    {
      "midi": 69,
      "hit": false,
      "t": 273840,
      "d": 61,
      "v": 82
    },
    {
      "midi": 71,
      "hit": false,
      "t": 274080,
      "d": 51,
      "v": 79
    },
    {
      "midi": 67,
      "hit": false,
      "t": 274080,
      "d": 81,
      "v": 80
    },
    {
      "midi": 73,
      "hit": false,
      "t": 274105,
      "d": 336,
      "v": 1
    },
    {
      "midi": 69,
      "hit": false,
      "t": 274320,
      "d": 61,
      "v": 63
    },
    {
      "midi": 71,
      "hit": false,
      "t": 274440,
      "d": 2093,
      "v": 1
    },
    {
      "midi": 71,
      "hit": false,
      "t": 274560,
      "d": 56,
      "v": 97
    },
    {
      "midi": 79,
      "hit": false,
      "t": 274560,
      "d": 171,
      "v": 66
    },
    {
      "midi": 71,
      "hit": false,
      "t": 274680,
      "d": 71,
      "v": 88
    },
    {
      "midi": 74,
      "hit": false,
      "t": 274680,
      "d": 71,
      "v": 78
    },
    {
      "midi": 74,
      "hit": false,
      "t": 274920,
      "d": 51,
      "v": 83
    },
    {
      "midi": 79,
      "hit": false,
      "t": 274920,
      "d": 61,
      "v": 76
    },
    {
      "midi": 71,
      "hit": false,
      "t": 274920,
      "d": 76,
      "v": 103
    },
    {
      "midi": 74,
      "hit": false,
      "t": 275160,
      "d": 51,
      "v": 101
    },
    {
      "midi": 71,
      "hit": false,
      "t": 275160,
      "d": 61,
      "v": 87
    },
    {
      "midi": 79,
      "hit": false,
      "t": 275160,
      "d": 61,
      "v": 81
    },
    {
      "midi": 74,
      "hit": false,
      "t": 275400,
      "d": 91,
      "v": 105
    },
    {
      "midi": 79,
      "hit": false,
      "t": 275400,
      "d": 111,
      "v": 94
    },
    {
      "midi": 71,
      "hit": false,
      "t": 275400,
      "d": 121,
      "v": 92
    },
    {
      "midi": 76,
      "hit": false,
      "t": 275760,
      "d": 76,
      "v": 99
    },
    {
      "midi": 73,
      "hit": false,
      "t": 275760,
      "d": 81,
      "v": 109
    },
    {
      "midi": 69,
      "hit": false,
      "t": 275760,
      "d": 116,
      "v": 97
    },
    {
      "midi": 74,
      "hit": false,
      "t": 276000,
      "d": 81,
      "v": 88
    },
    {
      "midi": 71,
      "hit": false,
      "t": 276000,
      "d": 91,
      "v": 97
    },
    {
      "midi": 67,
      "hit": false,
      "t": 276000,
      "d": 121,
      "v": 82
    },
    {
      "midi": 73,
      "hit": false,
      "t": 276240,
      "d": 66,
      "v": 90
    },
    {
      "midi": 76,
      "hit": false,
      "t": 276240,
      "d": 71,
      "v": 92
    },
    {
      "midi": 69,
      "hit": false,
      "t": 276240,
      "d": 76,
      "v": 80
    },
    {
      "midi": 76,
      "hit": false,
      "t": 276480,
      "d": 31,
      "v": 102
    },
    {
      "midi": 71,
      "hit": false,
      "t": 276480,
      "d": 51,
      "v": 103
    },
    {
      "midi": 81,
      "hit": false,
      "t": 276480,
      "d": 161,
      "v": 77
    },
    {
      "midi": 76,
      "hit": false,
      "t": 276537,
      "d": 398,
      "v": 1
    },
    {
      "midi": 71,
      "hit": false,
      "t": 276600,
      "d": 71,
      "v": 95
    },
    {
      "midi": 76,
      "hit": false,
      "t": 276600,
      "d": 71,
      "v": 99
    },
    {
      "midi": 76,
      "hit": false,
      "t": 276840,
      "d": 56,
      "v": 115
    },
    {
      "midi": 81,
      "hit": false,
      "t": 276840,
      "d": 61,
      "v": 78
    },
    {
      "midi": 71,
      "hit": false,
      "t": 276840,
      "d": 76,
      "v": 113
    },
    {
      "midi": 74,
      "hit": false,
      "t": 276905,
      "d": 2971,
      "v": 1
    },
    {
      "midi": 81,
      "hit": false,
      "t": 277080,
      "d": 51,
      "v": 76
    },
    {
      "midi": 76,
      "hit": false,
      "t": 277080,
      "d": 56,
      "v": 106
    },
    {
      "midi": 71,
      "hit": false,
      "t": 277080,
      "d": 66,
      "v": 101
    },
    {
      "midi": 76,
      "hit": false,
      "t": 277320,
      "d": 96,
      "v": 120
    },
    {
      "midi": 81,
      "hit": false,
      "t": 277320,
      "d": 106,
      "v": 95
    },
    {
      "midi": 71,
      "hit": false,
      "t": 277320,
      "d": 141,
      "v": 101
    },
    {
      "midi": 76,
      "hit": false,
      "t": 277680,
      "d": 56,
      "v": 101
    },
    {
      "midi": 73,
      "hit": false,
      "t": 277680,
      "d": 61,
      "v": 106
    },
    {
      "midi": 69,
      "hit": false,
      "t": 277680,
      "d": 86,
      "v": 81
    },
    {
      "midi": 71,
      "hit": false,
      "t": 277920,
      "d": 71,
      "v": 93
    },
    {
      "midi": 74,
      "hit": false,
      "t": 277920,
      "d": 71,
      "v": 73
    },
    {
      "midi": 67,
      "hit": false,
      "t": 277920,
      "d": 96,
      "v": 77
    },
    {
      "midi": 73,
      "hit": false,
      "t": 278160,
      "d": 71,
      "v": 88
    },
    {
      "midi": 69,
      "hit": false,
      "t": 278160,
      "d": 81,
      "v": 87
    },
    {
      "midi": 76,
      "hit": false,
      "t": 278160,
      "d": 86,
      "v": 85
    },
    {
      "midi": 74,
      "hit": false,
      "t": 278400,
      "d": 41,
      "v": 85
    },
    {
      "midi": 71,
      "hit": false,
      "t": 278400,
      "d": 61,
      "v": 116
    },
    {
      "midi": 79,
      "hit": false,
      "t": 278400,
      "d": 166,
      "v": 85
    },
    {
      "midi": 74,
      "hit": false,
      "t": 278520,
      "d": 71,
      "v": 82
    },
    {
      "midi": 71,
      "hit": false,
      "t": 278520,
      "d": 76,
      "v": 100
    },
    {
      "midi": 79,
      "hit": false,
      "t": 278760,
      "d": 51,
      "v": 82
    },
    {
      "midi": 74,
      "hit": false,
      "t": 278760,
      "d": 56,
      "v": 93
    },
    {
      "midi": 71,
      "hit": false,
      "t": 278760,
      "d": 66,
      "v": 102
    },
    {
      "midi": 74,
      "hit": false,
      "t": 279000,
      "d": 56,
      "v": 102
    },
    {
      "midi": 79,
      "hit": false,
      "t": 279000,
      "d": 56,
      "v": 77
    },
    {
      "midi": 71,
      "hit": false,
      "t": 279000,
      "d": 66,
      "v": 92
    },
    {
      "midi": 79,
      "hit": false,
      "t": 279240,
      "d": 171,
      "v": 84
    },
    {
      "midi": 71,
      "hit": false,
      "t": 279240,
      "d": 231,
      "v": 109
    },
    {
      "midi": 74,
      "hit": false,
      "t": 279240,
      "d": 231,
      "v": 103
    },
    {
      "midi": 76,
      "hit": false,
      "t": 279600,
      "d": 41,
      "v": 60
    },
    {
      "midi": 73,
      "hit": false,
      "t": 279600,
      "d": 51,
      "v": 89
    },
    {
      "midi": 69,
      "hit": false,
      "t": 279600,
      "d": 106,
      "v": 86
    },
    {
      "midi": 71,
      "hit": false,
      "t": 279840,
      "d": 81,
      "v": 91
    },
    {
      "midi": 74,
      "hit": false,
      "t": 279840,
      "d": 81,
      "v": 75
    },
    {
      "midi": 67,
      "hit": false,
      "t": 279840,
      "d": 106,
      "v": 93
    },
    {
      "midi": 71,
      "hit": false,
      "t": 279880,
      "d": 473,
      "v": 1
    },
    {
      "midi": 69,
      "hit": false,
      "t": 280080,
      "d": 76,
      "v": 86
    },
    {
      "midi": 73,
      "hit": false,
      "t": 280080,
      "d": 76,
      "v": 79
    },
    {
      "midi": 76,
      "hit": false,
      "t": 280080,
      "d": 76,
      "v": 87
    },
    {
      "midi": 76,
      "hit": false,
      "t": 280320,
      "d": 46,
      "v": 108
    },
    {
      "midi": 71,
      "hit": false,
      "t": 280320,
      "d": 56,
      "v": 106
    },
    {
      "midi": 81,
      "hit": false,
      "t": 280320,
      "d": 156,
      "v": 86
    },
    {
      "midi": 76,
      "hit": false,
      "t": 280355,
      "d": 373,
      "v": 1
    },
    {
      "midi": 76,
      "hit": false,
      "t": 280440,
      "d": 66,
      "v": 91
    },
    {
      "midi": 71,
      "hit": false,
      "t": 280440,
      "d": 71,
      "v": 85
    },
    {
      "midi": 81,
      "hit": false,
      "t": 280680,
      "d": 56,
      "v": 78
    },
    {
      "midi": 76,
      "hit": false,
      "t": 280680,
      "d": 61,
      "v": 101
    },
    {
      "midi": 71,
      "hit": false,
      "t": 280680,
      "d": 71,
      "v": 112
    },
    {
      "midi": 74,
      "hit": false,
      "t": 280700,
      "d": 361,
      "v": 1
    },
    {
      "midi": 76,
      "hit": false,
      "t": 280920,
      "d": 61,
      "v": 108
    },
    {
      "midi": 81,
      "hit": false,
      "t": 280920,
      "d": 61,
      "v": 82
    },
    {
      "midi": 71,
      "hit": false,
      "t": 280920,
      "d": 71,
      "v": 104
    },
    {
      "midi": 73,
      "hit": false,
      "t": 281045,
      "d": 261,
      "v": 1
    },
    {
      "midi": 81,
      "hit": false,
      "t": 281160,
      "d": 141,
      "v": 91
    },
    {
      "midi": 76,
      "hit": false,
      "t": 281160,
      "d": 196,
      "v": 113
    },
    {
      "midi": 71,
      "hit": false,
      "t": 281160,
      "d": 211,
      "v": 105
    },
    {
      "midi": 69,
      "hit": false,
      "t": 281310,
      "d": 506,
      "v": 1
    },
    {
      "midi": 76,
      "hit": false,
      "t": 281520,
      "d": 61,
      "v": 88
    },
    {
      "midi": 73,
      "hit": false,
      "t": 281520,
      "d": 71,
      "v": 95
    },
    {
      "midi": 69,
      "hit": false,
      "t": 281520,
      "d": 101,
      "v": 89
    },
    {
      "midi": 71,
      "hit": false,
      "t": 281760,
      "d": 76,
      "v": 91
    },
    {
      "midi": 74,
      "hit": false,
      "t": 281760,
      "d": 86,
      "v": 78
    },
    {
      "midi": 67,
      "hit": false,
      "t": 281760,
      "d": 101,
      "v": 87
    },
    {
      "midi": 73,
      "hit": false,
      "t": 281787,
      "d": 358,
      "v": 1
    },
    {
      "midi": 73,
      "hit": false,
      "t": 282000,
      "d": 61,
      "v": 81
    },
    {
      "midi": 69,
      "hit": false,
      "t": 282000,
      "d": 76,
      "v": 75
    },
    {
      "midi": 76,
      "hit": false,
      "t": 282000,
      "d": 76,
      "v": 79
    },
    {
      "midi": 71,
      "hit": false,
      "t": 282140,
      "d": 2046,
      "v": 1
    },
    {
      "midi": 74,
      "hit": false,
      "t": 282240,
      "d": 31,
      "v": 76
    },
    {
      "midi": 71,
      "hit": false,
      "t": 282240,
      "d": 51,
      "v": 107
    },
    {
      "midi": 79,
      "hit": false,
      "t": 282240,
      "d": 66,
      "v": 80
    },
    {
      "midi": 79,
      "hit": false,
      "t": 282360,
      "d": 51,
      "v": 27
    },
    {
      "midi": 71,
      "hit": false,
      "t": 282360,
      "d": 66,
      "v": 88
    },
    {
      "midi": 74,
      "hit": false,
      "t": 282360,
      "d": 66,
      "v": 88
    },
    {
      "midi": 74,
      "hit": false,
      "t": 282600,
      "d": 51,
      "v": 109
    },
    {
      "midi": 71,
      "hit": false,
      "t": 282600,
      "d": 61,
      "v": 101
    },
    {
      "midi": 79,
      "hit": false,
      "t": 282600,
      "d": 71,
      "v": 94
    },
    {
      "midi": 74,
      "hit": false,
      "t": 282840,
      "d": 51,
      "v": 107
    },
    {
      "midi": 79,
      "hit": false,
      "t": 282840,
      "d": 56,
      "v": 82
    },
    {
      "midi": 71,
      "hit": false,
      "t": 282840,
      "d": 66,
      "v": 99
    },
    {
      "midi": 74,
      "hit": false,
      "t": 283080,
      "d": 46,
      "v": 94
    },
    {
      "midi": 79,
      "hit": false,
      "t": 283080,
      "d": 56,
      "v": 87
    },
    {
      "midi": 71,
      "hit": false,
      "t": 283080,
      "d": 66,
      "v": 82
    },
    {
      "midi": 76,
      "hit": false,
      "t": 283440,
      "d": 81,
      "v": 90
    },
    {
      "midi": 73,
      "hit": false,
      "t": 283440,
      "d": 96,
      "v": 112
    },
    {
      "midi": 69,
      "hit": false,
      "t": 283440,
      "d": 116,
      "v": 92
    },
    {
      "midi": 74,
      "hit": false,
      "t": 283680,
      "d": 86,
      "v": 89
    },
    {
      "midi": 71,
      "hit": false,
      "t": 283680,
      "d": 101,
      "v": 81
    },
    {
      "midi": 67,
      "hit": false,
      "t": 283680,
      "d": 131,
      "v": 70
    },
    {
      "midi": 73,
      "hit": false,
      "t": 283920,
      "d": 61,
      "v": 94
    },
    {
      "midi": 76,
      "hit": false,
      "t": 283920,
      "d": 76,
      "v": 92
    },
    {
      "midi": 69,
      "hit": false,
      "t": 283920,
      "d": 81,
      "v": 77
    },
    {
      "midi": 76,
      "hit": false,
      "t": 284160,
      "d": 41,
      "v": 111
    },
    {
      "midi": 71,
      "hit": false,
      "t": 284160,
      "d": 56,
      "v": 102
    },
    {
      "midi": 81,
      "hit": false,
      "t": 284160,
      "d": 161,
      "v": 78
    },
    {
      "midi": 76,
      "hit": false,
      "t": 284190,
      "d": 361,
      "v": 1
    },
    {
      "midi": 76,
      "hit": false,
      "t": 284280,
      "d": 76,
      "v": 100
    },
    {
      "midi": 71,
      "hit": false,
      "t": 284280,
      "d": 81,
      "v": 92
    },
    {
      "midi": 76,
      "hit": false,
      "t": 284520,
      "d": 56,
      "v": 113
    },
    {
      "midi": 81,
      "hit": false,
      "t": 284520,
      "d": 61,
      "v": 85
    },
    {
      "midi": 71,
      "hit": false,
      "t": 284520,
      "d": 71,
      "v": 102
    },
    {
      "midi": 74,
      "hit": false,
      "t": 284550,
      "d": 2978,
      "v": 1
    },
    {
      "midi": 81,
      "hit": false,
      "t": 284760,
      "d": 56,
      "v": 80
    },
    {
      "midi": 76,
      "hit": false,
      "t": 284760,
      "d": 61,
      "v": 106
    },
    {
      "midi": 71,
      "hit": false,
      "t": 284760,
      "d": 66,
      "v": 104
    },
    {
      "midi": 81,
      "hit": false,
      "t": 285000,
      "d": 176,
      "v": 99
    },
    {
      "midi": 76,
      "hit": false,
      "t": 285000,
      "d": 231,
      "v": 118
    },
    {
      "midi": 71,
      "hit": false,
      "t": 285000,
      "d": 246,
      "v": 110
    },
    {
      "midi": 73,
      "hit": false,
      "t": 285360,
      "d": 51,
      "v": 106
    },
    {
      "midi": 76,
      "hit": false,
      "t": 285360,
      "d": 56,
      "v": 107
    },
    {
      "midi": 69,
      "hit": false,
      "t": 285360,
      "d": 86,
      "v": 98
    },
    {
      "midi": 71,
      "hit": false,
      "t": 285600,
      "d": 71,
      "v": 91
    },
    {
      "midi": 74,
      "hit": false,
      "t": 285600,
      "d": 76,
      "v": 80
    },
    {
      "midi": 67,
      "hit": false,
      "t": 285600,
      "d": 91,
      "v": 79
    },
    {
      "midi": 73,
      "hit": false,
      "t": 285840,
      "d": 66,
      "v": 92
    },
    {
      "midi": 69,
      "hit": false,
      "t": 285840,
      "d": 76,
      "v": 80
    },
    {
      "midi": 76,
      "hit": false,
      "t": 285840,
      "d": 81,
      "v": 90
    },
    {
      "midi": 74,
      "hit": false,
      "t": 286080,
      "d": 46,
      "v": 93
    },
    {
      "midi": 71,
      "hit": false,
      "t": 286080,
      "d": 56,
      "v": 107
    },
    {
      "midi": 79,
      "hit": false,
      "t": 286080,
      "d": 56,
      "v": 83
    },
    {
      "midi": 79,
      "hit": false,
      "t": 286200,
      "d": 56,
      "v": 49
    },
    {
      "midi": 71,
      "hit": false,
      "t": 286200,
      "d": 71,
      "v": 91
    },
    {
      "midi": 74,
      "hit": false,
      "t": 286200,
      "d": 76,
      "v": 88
    },
    {
      "midi": 74,
      "hit": false,
      "t": 286440,
      "d": 56,
      "v": 96
    },
    {
      "midi": 79,
      "hit": false,
      "t": 286440,
      "d": 61,
      "v": 82
    },
    {
      "midi": 71,
      "hit": false,
      "t": 286440,
      "d": 71,
      "v": 113
    },
    {
      "midi": 74,
      "hit": false,
      "t": 286680,
      "d": 56,
      "v": 103
    },
    {
      "midi": 79,
      "hit": false,
      "t": 286680,
      "d": 71,
      "v": 82
    },
    {
      "midi": 71,
      "hit": false,
      "t": 286680,
      "d": 76,
      "v": 101
    },
    {
      "midi": 79,
      "hit": false,
      "t": 286920,
      "d": 196,
      "v": 80
    },
    {
      "midi": 71,
      "hit": false,
      "t": 286920,
      "d": 251,
      "v": 102
    },
    {
      "midi": 74,
      "hit": false,
      "t": 286920,
      "d": 256,
      "v": 101
    },
    {
      "midi": 73,
      "hit": false,
      "t": 287280,
      "d": 51,
      "v": 103
    },
    {
      "midi": 76,
      "hit": false,
      "t": 287280,
      "d": 56,
      "v": 100
    },
    {
      "midi": 69,
      "hit": false,
      "t": 287280,
      "d": 96,
      "v": 93
    },
    {
      "midi": 74,
      "hit": false,
      "t": 287520,
      "d": 76,
      "v": 70
    },
    {
      "midi": 71,
      "hit": false,
      "t": 287520,
      "d": 81,
      "v": 95
    },
    {
      "midi": 67,
      "hit": false,
      "t": 287520,
      "d": 96,
      "v": 75
    },
    {
      "midi": 71,
      "hit": false,
      "t": 287532,
      "d": 493,
      "v": 1
    },
    {
      "midi": 76,
      "hit": false,
      "t": 287760,
      "d": 61,
      "v": 63
    },
    {
      "midi": 69,
      "hit": false,
      "t": 287760,
      "d": 76,
      "v": 78
    },
    {
      "midi": 73,
      "hit": false,
      "t": 287760,
      "d": 76,
      "v": 86
    },
    {
      "midi": 76,
      "hit": false,
      "t": 288000,
      "d": 46,
      "v": 113
    },
    {
      "midi": 71,
      "hit": false,
      "t": 288000,
      "d": 61,
      "v": 107
    },
    {
      "midi": 81,
      "hit": false,
      "t": 288000,
      "d": 171,
      "v": 89
    },
    {
      "midi": 76,
      "hit": false,
      "t": 288030,
      "d": 378,
      "v": 1
    },
    {
      "midi": 71,
      "hit": false,
      "t": 288120,
      "d": 76,
      "v": 85
    },
    {
      "midi": 76,
      "hit": false,
      "t": 288120,
      "d": 76,
      "v": 72
    },
    {
      "midi": 81,
      "hit": false,
      "t": 288360,
      "d": 51,
      "v": 79
    },
    {
      "midi": 76,
      "hit": false,
      "t": 288360,
      "d": 61,
      "v": 101
    },
    {
      "midi": 71,
      "hit": false,
      "t": 288360,
      "d": 76,
      "v": 96
    },
    {
      "midi": 74,
      "hit": false,
      "t": 288382,
      "d": 366,
      "v": 1
    },
    {
      "midi": 81,
      "hit": false,
      "t": 288600,
      "d": 56,
      "v": 77
    },
    {
      "midi": 76,
      "hit": false,
      "t": 288600,
      "d": 61,
      "v": 105
    },
    {
      "midi": 71,
      "hit": false,
      "t": 288600,
      "d": 76,
      "v": 101
    },
    {
      "midi": 73,
      "hit": false,
      "t": 288727,
      "d": 266,
      "v": 1
    },
    {
      "midi": 81,
      "hit": false,
      "t": 288840,
      "d": 186,
      "v": 95
    },
    {
      "midi": 76,
      "hit": false,
      "t": 288840,
      "d": 236,
      "v": 113
    },
    {
      "midi": 71,
      "hit": false,
      "t": 288840,
      "d": 246,
      "v": 106
    },
    {
      "midi": 69,
      "hit": false,
      "t": 288997,
      "d": 496,
      "v": 1
    },
    {
      "midi": 76,
      "hit": false,
      "t": 289200,
      "d": 51,
      "v": 85
    },
    {
      "midi": 73,
      "hit": false,
      "t": 289200,
      "d": 56,
      "v": 111
    },
    {
      "midi": 69,
      "hit": false,
      "t": 289200,
      "d": 76,
      "v": 94
    },
    {
      "midi": 71,
      "hit": false,
      "t": 289440,
      "d": 56,
      "v": 86
    },
    {
      "midi": 74,
      "hit": false,
      "t": 289440,
      "d": 71,
      "v": 70
    },
    {
      "midi": 67,
      "hit": false,
      "t": 289440,
      "d": 81,
      "v": 75
    },
    {
      "midi": 73,
      "hit": false,
      "t": 289450,
      "d": 371,
      "v": 1
    },
    {
      "midi": 76,
      "hit": false,
      "t": 289680,
      "d": 66,
      "v": 78
    },
    {
      "midi": 69,
      "hit": false,
      "t": 289680,
      "d": 71,
      "v": 84
    },
    {
      "midi": 73,
      "hit": false,
      "t": 289680,
      "d": 71,
      "v": 92
    },
    {
      "midi": 71,
      "hit": false,
      "t": 289825,
      "d": 2031,
      "v": 1
    },
    {
      "midi": 74,
      "hit": false,
      "t": 289920,
      "d": 46,
      "v": 81
    },
    {
      "midi": 71,
      "hit": false,
      "t": 289920,
      "d": 56,
      "v": 107
    },
    {
      "midi": 79,
      "hit": false,
      "t": 289920,
      "d": 141,
      "v": 65
    },
    {
      "midi": 71,
      "hit": false,
      "t": 290040,
      "d": 61,
      "v": 95
    },
    {
      "midi": 74,
      "hit": false,
      "t": 290040,
      "d": 61,
      "v": 69
    },
    {
      "midi": 74,
      "hit": false,
      "t": 290280,
      "d": 51,
      "v": 96
    },
    {
      "midi": 79,
      "hit": false,
      "t": 290280,
      "d": 51,
      "v": 83
    },
    {
      "midi": 71,
      "hit": false,
      "t": 290280,
      "d": 56,
      "v": 111
    },
    {
      "midi": 79,
      "hit": false,
      "t": 290520,
      "d": 41,
      "v": 68
    },
    {
      "midi": 74,
      "hit": false,
      "t": 290520,
      "d": 46,
      "v": 108
    },
    {
      "midi": 71,
      "hit": false,
      "t": 290520,
      "d": 56,
      "v": 105
    },
    {
      "midi": 79,
      "hit": false,
      "t": 290760,
      "d": 186,
      "v": 98
    },
    {
      "midi": 71,
      "hit": false,
      "t": 290760,
      "d": 211,
      "v": 108
    },
    {
      "midi": 74,
      "hit": false,
      "t": 290760,
      "d": 231,
      "v": 104
    },
    {
      "midi": 73,
      "hit": false,
      "t": 291120,
      "d": 36,
      "v": 79
    },
    {
      "midi": 76,
      "hit": false,
      "t": 291120,
      "d": 41,
      "v": 98
    },
    {
      "midi": 69,
      "hit": false,
      "t": 291120,
      "d": 66,
      "v": 90
    },
    {
      "midi": 74,
      "hit": false,
      "t": 291360,
      "d": 56,
      "v": 88
    },
    {
      "midi": 71,
      "hit": false,
      "t": 291360,
      "d": 61,
      "v": 98
    },
    {
      "midi": 67,
      "hit": false,
      "t": 291360,
      "d": 81,
      "v": 75
    },
    {
      "midi": 73,
      "hit": false,
      "t": 291600,
      "d": 46,
      "v": 104
    },
    {
      "midi": 69,
      "hit": false,
      "t": 291600,
      "d": 56,
      "v": 87
    },
    {
      "midi": 76,
      "hit": false,
      "t": 291600,
      "d": 56,
      "v": 88
    },
    {
      "midi": 81,
      "hit": false,
      "t": 291840,
      "d": 26,
      "v": 67
    },
    {
      "midi": 71,
      "hit": false,
      "t": 291840,
      "d": 46,
      "v": 96
    },
    {
      "midi": 76,
      "hit": false,
      "t": 291860,
      "d": 361,
      "v": 1
    },
    {
      "midi": 81,
      "hit": false,
      "t": 291960,
      "d": 46,
      "v": 44
    },
    {
      "midi": 76,
      "hit": false,
      "t": 291960,
      "d": 56,
      "v": 113
    },
    {
      "midi": 71,
      "hit": false,
      "t": 291960,
      "d": 61,
      "v": 91
    },
    {
      "midi": 76,
      "hit": false,
      "t": 292200,
      "d": 36,
      "v": 106
    },
    {
      "midi": 81,
      "hit": false,
      "t": 292200,
      "d": 36,
      "v": 74
    },
    {
      "midi": 71,
      "hit": false,
      "t": 292200,
      "d": 56,
      "v": 109
    },
    {
      "midi": 74,
      "hit": false,
      "t": 292222,
      "d": 3001,
      "v": 1
    },
    {
      "midi": 76,
      "hit": false,
      "t": 292440,
      "d": 41,
      "v": 121
    },
    {
      "midi": 81,
      "hit": false,
      "t": 292440,
      "d": 51,
      "v": 91
    },
    {
      "midi": 71,
      "hit": false,
      "t": 292440,
      "d": 56,
      "v": 98
    },
    {
      "midi": 81,
      "hit": false,
      "t": 292680,
      "d": 186,
      "v": 95
    },
    {
      "midi": 71,
      "hit": false,
      "t": 292680,
      "d": 196,
      "v": 114
    },
    {
      "midi": 76,
      "hit": false,
      "t": 292680,
      "d": 216,
      "v": 112
    },
    {
      "midi": 73,
      "hit": false,
      "t": 293040,
      "d": 46,
      "v": 113
    },
    {
      "midi": 76,
      "hit": false,
      "t": 293040,
      "d": 61,
      "v": 96
    },
    {
      "midi": 69,
      "hit": false,
      "t": 293040,
      "d": 96,
      "v": 98
    },
    {
      "midi": 71,
      "hit": false,
      "t": 293280,
      "d": 71,
      "v": 91
    },
    {
      "midi": 74,
      "hit": false,
      "t": 293280,
      "d": 71,
      "v": 77
    },
    {
      "midi": 67,
      "hit": false,
      "t": 293280,
      "d": 101,
      "v": 77
    },
    {
      "midi": 73,
      "hit": false,
      "t": 293520,
      "d": 51,
      "v": 92
    },
    {
      "midi": 76,
      "hit": false,
      "t": 293520,
      "d": 56,
      "v": 93
    },
    {
      "midi": 69,
      "hit": false,
      "t": 293520,
      "d": 71,
      "v": 74
    },
    {
      "midi": 74,
      "hit": false,
      "t": 293760,
      "d": 46,
      "v": 91
    },
    {
      "midi": 71,
      "hit": false,
      "t": 293760,
      "d": 61,
      "v": 102
    },
    {
      "midi": 79,
      "hit": false,
      "t": 293760,
      "d": 151,
      "v": 76
    },
    {
      "midi": 74,
      "hit": false,
      "t": 293880,
      "d": 56,
      "v": 67
    },
    {
      "midi": 71,
      "hit": false,
      "t": 293880,
      "d": 66,
      "v": 80
    },
    {
      "midi": 74,
      "hit": false,
      "t": 294120,
      "d": 56,
      "v": 103
    },
    {
      "midi": 79,
      "hit": false,
      "t": 294120,
      "d": 56,
      "v": 83
    },
    {
      "midi": 71,
      "hit": false,
      "t": 294120,
      "d": 76,
      "v": 111
    },
    {
      "midi": 74,
      "hit": false,
      "t": 294360,
      "d": 66,
      "v": 106
    },
    {
      "midi": 71,
      "hit": false,
      "t": 294360,
      "d": 71,
      "v": 109
    },
    {
      "midi": 79,
      "hit": false,
      "t": 294360,
      "d": 71,
      "v": 84
    },
    {
      "midi": 79,
      "hit": false,
      "t": 294600,
      "d": 176,
      "v": 96
    },
    {
      "midi": 71,
      "hit": false,
      "t": 294600,
      "d": 231,
      "v": 121
    },
    {
      "midi": 74,
      "hit": false,
      "t": 294600,
      "d": 231,
      "v": 110
    },
    {
      "midi": 73,
      "hit": false,
      "t": 294960,
      "d": 61,
      "v": 111
    },
    {
      "midi": 76,
      "hit": false,
      "t": 294960,
      "d": 61,
      "v": 103
    },
    {
      "midi": 69,
      "hit": false,
      "t": 294960,
      "d": 96,
      "v": 102
    },
    {
      "midi": 71,
      "hit": false,
      "t": 295200,
      "d": 76,
      "v": 101
    },
    {
      "midi": 74,
      "hit": false,
      "t": 295200,
      "d": 86,
      "v": 78
    },
    {
      "midi": 67,
      "hit": false,
      "t": 295200,
      "d": 101,
      "v": 91
    },
    {
      "midi": 71,
      "hit": false,
      "t": 295227,
      "d": 473,
      "v": 1
    },
    {
      "midi": 73,
      "hit": false,
      "t": 295440,
      "d": 61,
      "v": 90
    },
    {
      "midi": 76,
      "hit": false,
      "t": 295440,
      "d": 66,
      "v": 78
    },
    {
      "midi": 69,
      "hit": false,
      "t": 295440,
      "d": 81,
      "v": 83
    },
    {
      "midi": 76,
      "hit": false,
      "t": 295680,
      "d": 41,
      "v": 97
    },
    {
      "midi": 71,
      "hit": false,
      "t": 295680,
      "d": 61,
      "v": 116
    },
    {
      "midi": 81,
      "hit": false,
      "t": 295680,
      "d": 171,
      "v": 88
    },
    {
      "midi": 76,
      "hit": false,
      "t": 295705,
      "d": 398,
      "v": 1
    },
    {
      "midi": 71,
      "hit": false,
      "t": 295800,
      "d": 76,
      "v": 106
    },
    {
      "midi": 76,
      "hit": false,
      "t": 295800,
      "d": 76,
      "v": 91
    },
    {
      "midi": 71,
      "hit": false,
      "t": 296040,
      "d": 71,
      "v": 122
    },
    {
      "midi": 76,
      "hit": false,
      "t": 296040,
      "d": 71,
      "v": 99
    },
    {
      "midi": 81,
      "hit": false,
      "t": 296040,
      "d": 81,
      "v": 90
    },
    {
      "midi": 74,
      "hit": false,
      "t": 296070,
      "d": 366,
      "v": 1
    },
    {
      "midi": 81,
      "hit": false,
      "t": 296280,
      "d": 51,
      "v": 77
    },
    {
      "midi": 76,
      "hit": false,
      "t": 296280,
      "d": 66,
      "v": 98
    },
    {
      "midi": 71,
      "hit": false,
      "t": 296280,
      "d": 76,
      "v": 107
    },
    {
      "midi": 73,
      "hit": false,
      "t": 296422,
      "d": 261,
      "v": 1
    },
    {
      "midi": 81,
      "hit": false,
      "t": 296520,
      "d": 181,
      "v": 88
    },
    {
      "midi": 71,
      "hit": false,
      "t": 296520,
      "d": 221,
      "v": 119
    },
    {
      "midi": 76,
      "hit": false,
      "t": 296520,
      "d": 221,
      "v": 127
    },
    {
      "midi": 69,
      "hit": false,
      "t": 296687,
      "d": 463,
      "v": 1
    },
    {
      "midi": 73,
      "hit": false,
      "t": 296880,
      "d": 36,
      "v": 107
    },
    {
      "midi": 76,
      "hit": false,
      "t": 296880,
      "d": 66,
      "v": 93
    },
    {
      "midi": 69,
      "hit": false,
      "t": 296880,
      "d": 101,
      "v": 96
    },
    {
      "midi": 74,
      "hit": false,
      "t": 297120,
      "d": 76,
      "v": 91
    },
    {
      "midi": 71,
      "hit": false,
      "t": 297120,
      "d": 86,
      "v": 94
    },
    {
      "midi": 67,
      "hit": false,
      "t": 297120,
      "d": 96,
      "v": 89
    },
    {
      "midi": 73,
      "hit": false,
      "t": 297147,
      "d": 356,
      "v": 1
    },
    {
      "midi": 69,
      "hit": false,
      "t": 297360,
      "d": 76,
      "v": 68
    },
    {
      "midi": 73,
      "hit": false,
      "t": 297360,
      "d": 76,
      "v": 79
    },
    {
      "midi": 76,
      "hit": false,
      "t": 297360,
      "d": 76,
      "v": 95
    },
    {
      "midi": 71,
      "hit": false,
      "t": 297507,
      "d": 2878,
      "v": 1
    },
    {
      "midi": 74,
      "hit": false,
      "t": 297600,
      "d": 26,
      "v": 95
    },
    {
      "midi": 79,
      "hit": false,
      "t": 297600,
      "d": 46,
      "v": 72
    },
    {
      "midi": 71,
      "hit": false,
      "t": 297600,
      "d": 56,
      "v": 93
    },
    {
      "midi": 74,
      "hit": false,
      "t": 297720,
      "d": 71,
      "v": 96
    },
    {
      "midi": 79,
      "hit": false,
      "t": 297720,
      "d": 81,
      "v": 69
    },
    {
      "midi": 71,
      "hit": false,
      "t": 297720,
      "d": 86,
      "v": 84
    },
    {
      "midi": 74,
      "hit": false,
      "t": 297960,
      "d": 56,
      "v": 107
    },
    {
      "midi": 79,
      "hit": false,
      "t": 297960,
      "d": 81,
      "v": 103
    },
    {
      "midi": 71,
      "hit": false,
      "t": 297960,
      "d": 91,
      "v": 96
    },
    {
      "midi": 74,
      "hit": false,
      "t": 298200,
      "d": 61,
      "v": 106
    },
    {
      "midi": 79,
      "hit": false,
      "t": 298200,
      "d": 76,
      "v": 97
    },
    {
      "midi": 71,
      "hit": false,
      "t": 298200,
      "d": 91,
      "v": 98
    },
    {
      "midi": 71,
      "hit": false,
      "t": 298440,
      "d": 196,
      "v": 107
    },
    {
      "midi": 79,
      "hit": false,
      "t": 298440,
      "d": 196,
      "v": 102
    },
    {
      "midi": 74,
      "hit": false,
      "t": 298440,
      "d": 241,
      "v": 117
    },
    {
      "midi": 73,
      "hit": false,
      "t": 298800,
      "d": 71,
      "v": 112
    },
    {
      "midi": 76,
      "hit": false,
      "t": 298800,
      "d": 71,
      "v": 109
    },
    {
      "midi": 69,
      "hit": false,
      "t": 298800,
      "d": 106,
      "v": 98
    },
    {
      "midi": 74,
      "hit": false,
      "t": 299040,
      "d": 71,
      "v": 97
    },
    {
      "midi": 71,
      "hit": false,
      "t": 299040,
      "d": 91,
      "v": 99
    },
    {
      "midi": 67,
      "hit": false,
      "t": 299040,
      "d": 101,
      "v": 83
    },
    {
      "midi": 69,
      "hit": false,
      "t": 299280,
      "d": 76,
      "v": 77
    },
    {
      "midi": 76,
      "hit": false,
      "t": 299280,
      "d": 76,
      "v": 92
    },
    {
      "midi": 73,
      "hit": false,
      "t": 299280,
      "d": 81,
      "v": 88
    },
    {
      "midi": 76,
      "hit": false,
      "t": 299520,
      "d": 51,
      "v": 127
    },
    {
      "midi": 81,
      "hit": false,
      "t": 299520,
      "d": 51,
      "v": 89
    },
    {
      "midi": 71,
      "hit": false,
      "t": 299520,
      "d": 61,
      "v": 108
    },
    {
      "midi": 71,
      "hit": false,
      "t": 299640,
      "d": 76,
      "v": 84
    },
    {
      "midi": 76,
      "hit": false,
      "t": 299640,
      "d": 76,
      "v": 111
    },
    {
      "midi": 81,
      "hit": false,
      "t": 299640,
      "d": 86,
      "v": 66
    },
    {
      "midi": 76,
      "hit": false,
      "t": 299880,
      "d": 56,
      "v": 121
    },
    {
      "midi": 71,
      "hit": false,
      "t": 299880,
      "d": 86,
      "v": 101
    },
    {
      "midi": 81,
      "hit": false,
      "t": 299880,
      "d": 91,
      "v": 105
    },
    {
      "midi": 76,
      "hit": false,
      "t": 300120,
      "d": 56,
      "v": 127
    },
    {
      "midi": 71,
      "hit": false,
      "t": 300120,
      "d": 81,
      "v": 100
    },
    {
      "midi": 81,
      "hit": false,
      "t": 300120,
      "d": 86,
      "v": 100
    },
    {
      "midi": 81,
      "hit": false,
      "t": 300360,
      "d": 151,
      "v": 97
    },
    {
      "midi": 71,
      "hit": false,
      "t": 300360,
      "d": 201,
      "v": 115
    },
    {
      "midi": 76,
      "hit": false,
      "t": 300360,
      "d": 206,
      "v": 126
    },
    {
      "midi": 69,
      "hit": false,
      "t": 300390,
      "d": 341,
      "v": 1
    },
    {
      "midi": 73,
      "hit": false,
      "t": 300720,
      "d": 41,
      "v": 121
    },
    {
      "midi": 76,
      "hit": false,
      "t": 300720,
      "d": 61,
      "v": 115
    },
    {
      "midi": 69,
      "hit": false,
      "t": 300720,
      "d": 86,
      "v": 101
    },
    {
      "midi": 71,
      "hit": false,
      "t": 300735,
      "d": 488,
      "v": 1
    },
    {
      "midi": 74,
      "hit": false,
      "t": 300960,
      "d": 71,
      "v": 105
    },
    {
      "midi": 71,
      "hit": false,
      "t": 300960,
      "d": 96,
      "v": 102
    },
    {
      "midi": 67,
      "hit": false,
      "t": 300960,
      "d": 101,
      "v": 89
    },
    {
      "midi": 69,
      "hit": false,
      "t": 301200,
      "d": 91,
      "v": 81
    },
    {
      "midi": 73,
      "hit": false,
      "t": 301200,
      "d": 91,
      "v": 88
    },
    {
      "midi": 76,
      "hit": false,
      "t": 301200,
      "d": 91,
      "v": 105
    },
    {
      "midi": 69,
      "hit": false,
      "t": 301227,
      "d": 241,
      "v": 1
    },
    {
      "midi": 74,
      "hit": false,
      "t": 301440,
      "d": 36,
      "v": 109
    },
    {
      "midi": 79,
      "hit": false,
      "t": 301440,
      "d": 56,
      "v": 90
    },
    {
      "midi": 71,
      "hit": false,
      "t": 301440,
      "d": 61,
      "v": 108
    },
    {
      "midi": 71,
      "hit": false,
      "t": 301472,
      "d": 1161,
      "v": 1
    },
    {
      "midi": 79,
      "hit": false,
      "t": 301560,
      "d": 61,
      "v": 56
    },
    {
      "midi": 74,
      "hit": false,
      "t": 301560,
      "d": 71,
      "v": 88
    },
    {
      "midi": 71,
      "hit": false,
      "t": 301560,
      "d": 91,
      "v": 85
    },
    {
      "midi": 74,
      "hit": false,
      "t": 301800,
      "d": 46,
      "v": 106
    },
    {
      "midi": 71,
      "hit": false,
      "t": 301800,
      "d": 81,
      "v": 101
    },
    {
      "midi": 79,
      "hit": false,
      "t": 301800,
      "d": 91,
      "v": 99
    },
    {
      "midi": 74,
      "hit": false,
      "t": 302040,
      "d": 51,
      "v": 96
    },
    {
      "midi": 79,
      "hit": false,
      "t": 302040,
      "d": 66,
      "v": 88
    },
    {
      "midi": 71,
      "hit": false,
      "t": 302040,
      "d": 81,
      "v": 97
    },
    {
      "midi": 79,
      "hit": false,
      "t": 302280,
      "d": 161,
      "v": 104
    },
    {
      "midi": 71,
      "hit": false,
      "t": 302280,
      "d": 191,
      "v": 106
    },
    {
      "midi": 74,
      "hit": false,
      "t": 302280,
      "d": 211,
      "v": 113
    },
    {
      "midi": 74,
      "hit": false,
      "t": 302637,
      "d": 251,
      "v": 1
    },
    {
      "midi": 76,
      "hit": false,
      "t": 302640,
      "d": 66,
      "v": 102
    },
    {
      "midi": 73,
      "hit": false,
      "t": 302640,
      "d": 71,
      "v": 93
    },
    {
      "midi": 69,
      "hit": false,
      "t": 302640,
      "d": 101,
      "v": 98
    },
    {
      "midi": 74,
      "hit": false,
      "t": 302880,
      "d": 71,
      "v": 102
    },
    {
      "midi": 71,
      "hit": false,
      "t": 302880,
      "d": 96,
      "v": 106
    },
    {
      "midi": 67,
      "hit": false,
      "t": 302880,
      "d": 101,
      "v": 82
    },
    {
      "midi": 69,
      "hit": false,
      "t": 302892,
      "d": 476,
      "v": 1
    },
    {
      "midi": 69,
      "hit": false,
      "t": 303120,
      "d": 76,
      "v": 75
    },
    {
      "midi": 73,
      "hit": false,
      "t": 303120,
      "d": 76,
      "v": 102
    },
    {
      "midi": 76,
      "hit": false,
      "t": 303120,
      "d": 76,
      "v": 103
    },
    {
      "midi": 76,
      "hit": false,
      "t": 303360,
      "d": 41,
      "v": 123
    },
    {
      "midi": 71,
      "hit": false,
      "t": 303360,
      "d": 56,
      "v": 101
    },
    {
      "midi": 81,
      "hit": false,
      "t": 303360,
      "d": 171,
      "v": 100
    },
    {
      "midi": 71,
      "hit": false,
      "t": 303372,
      "d": 858,
      "v": 1
    },
    {
      "midi": 76,
      "hit": false,
      "t": 303480,
      "d": 76,
      "v": 96
    },
    {
      "midi": 71,
      "hit": false,
      "t": 303480,
      "d": 81,
      "v": 93
    },
    {
      "midi": 76,
      "hit": false,
      "t": 303720,
      "d": 46,
      "v": 126
    },
    {
      "midi": 71,
      "hit": false,
      "t": 303720,
      "d": 76,
      "v": 104
    },
    {
      "midi": 81,
      "hit": false,
      "t": 303720,
      "d": 81,
      "v": 106
    },
    {
      "midi": 76,
      "hit": false,
      "t": 303960,
      "d": 56,
      "v": 122
    },
    {
      "midi": 81,
      "hit": false,
      "t": 303960,
      "d": 71,
      "v": 99
    },
    {
      "midi": 71,
      "hit": false,
      "t": 303960,
      "d": 76,
      "v": 100
    },
    {
      "midi": 81,
      "hit": false,
      "t": 304200,
      "d": 126,
      "v": 108
    },
    {
      "midi": 71,
      "hit": false,
      "t": 304200,
      "d": 186,
      "v": 112
    },
    {
      "midi": 76,
      "hit": false,
      "t": 304200,
      "d": 196,
      "v": 127
    },
    {
      "midi": 69,
      "hit": false,
      "t": 304235,
      "d": 328,
      "v": 1
    },
    {
      "midi": 73,
      "hit": false,
      "t": 304560,
      "d": 76,
      "v": 95
    },
    {
      "midi": 76,
      "hit": false,
      "t": 304560,
      "d": 76,
      "v": 104
    },
    {
      "midi": 69,
      "hit": false,
      "t": 304560,
      "d": 111,
      "v": 100
    },
    {
      "midi": 71,
      "hit": false,
      "t": 304567,
      "d": 453,
      "v": 1
    },
    {
      "midi": 74,
      "hit": false,
      "t": 304800,
      "d": 91,
      "v": 98
    },
    {
      "midi": 67,
      "hit": false,
      "t": 304800,
      "d": 101,
      "v": 87
    },
    {
      "midi": 71,
      "hit": false,
      "t": 304800,
      "d": 101,
      "v": 101
    },
    {
      "midi": 69,
      "hit": false,
      "t": 305025,
      "d": 248,
      "v": 1
    },
    {
      "midi": 69,
      "hit": false,
      "t": 305040,
      "d": 76,
      "v": 77
    },
    {
      "midi": 73,
      "hit": false,
      "t": 305040,
      "d": 76,
      "v": 101
    },
    {
      "midi": 76,
      "hit": false,
      "t": 305040,
      "d": 76,
      "v": 106
    },
    {
      "midi": 71,
      "hit": false,
      "t": 305277,
      "d": 1178,
      "v": 1
    },
    {
      "midi": 74,
      "hit": false,
      "t": 305280,
      "d": 46,
      "v": 112
    },
    {
      "midi": 71,
      "hit": false,
      "t": 305280,
      "d": 66,
      "v": 109
    },
    {
      "midi": 79,
      "hit": false,
      "t": 305280,
      "d": 171,
      "v": 80
    },
    {
      "midi": 74,
      "hit": false,
      "t": 305400,
      "d": 71,
      "v": 93
    },
    {
      "midi": 71,
      "hit": false,
      "t": 305400,
      "d": 81,
      "v": 88
    },
    {
      "midi": 74,
      "hit": false,
      "t": 305640,
      "d": 56,
      "v": 111
    },
    {
      "midi": 79,
      "hit": false,
      "t": 305640,
      "d": 66,
      "v": 98
    },
    {
      "midi": 71,
      "hit": false,
      "t": 305640,
      "d": 71,
      "v": 108
    },
    {
      "midi": 74,
      "hit": false,
      "t": 305880,
      "d": 56,
      "v": 101
    },
    {
      "midi": 79,
      "hit": false,
      "t": 305880,
      "d": 81,
      "v": 94
    },
    {
      "midi": 71,
      "hit": false,
      "t": 305880,
      "d": 86,
      "v": 107
    },
    {
      "midi": 79,
      "hit": false,
      "t": 306120,
      "d": 201,
      "v": 99
    },
    {
      "midi": 71,
      "hit": false,
      "t": 306120,
      "d": 236,
      "v": 118
    },
    {
      "midi": 74,
      "hit": false,
      "t": 306120,
      "d": 271,
      "v": 114
    },
    {
      "midi": 74,
      "hit": false,
      "t": 306460,
      "d": 253,
      "v": 1
    },
    {
      "midi": 73,
      "hit": false,
      "t": 306480,
      "d": 51,
      "v": 102
    },
    {
      "midi": 76,
      "hit": false,
      "t": 306480,
      "d": 66,
      "v": 103
    },
    {
      "midi": 69,
      "hit": false,
      "t": 306480,
      "d": 101,
      "v": 104
    },
    {
      "midi": 69,
      "hit": false,
      "t": 306717,
      "d": 493,
      "v": 1
    },
    {
      "midi": 74,
      "hit": false,
      "t": 306720,
      "d": 76,
      "v": 92
    },
    {
      "midi": 71,
      "hit": false,
      "t": 306720,
      "d": 91,
      "v": 107
    },
    {
      "midi": 67,
      "hit": false,
      "t": 306720,
      "d": 96,
      "v": 81
    },
    {
      "midi": 73,
      "hit": false,
      "t": 306960,
      "d": 66,
      "v": 88
    },
    {
      "midi": 69,
      "hit": false,
      "t": 306960,
      "d": 76,
      "v": 80
    },
    {
      "midi": 76,
      "hit": false,
      "t": 306960,
      "d": 91,
      "v": 94
    },
    {
      "midi": 76,
      "hit": false,
      "t": 307200,
      "d": 41,
      "v": 114
    },
    {
      "midi": 71,
      "hit": false,
      "t": 307200,
      "d": 61,
      "v": 105
    },
    {
      "midi": 81,
      "hit": false,
      "t": 307200,
      "d": 61,
      "v": 97
    },
    {
      "midi": 71,
      "hit": false,
      "t": 307215,
      "d": 833,
      "v": 1
    },
    {
      "midi": 81,
      "hit": false,
      "t": 307320,
      "d": 61,
      "v": 42
    },
    {
      "midi": 76,
      "hit": false,
      "t": 307320,
      "d": 71,
      "v": 104
    },
    {
      "midi": 71,
      "hit": false,
      "t": 307320,
      "d": 81,
      "v": 86
    },
    {
      "midi": 76,
      "hit": false,
      "t": 307560,
      "d": 56,
      "v": 118
    },
    {
      "midi": 71,
      "hit": false,
      "t": 307560,
      "d": 71,
      "v": 101
    },
    {
      "midi": 81,
      "hit": false,
      "t": 307560,
      "d": 76,
      "v": 105
    },
    {
      "midi": 76,
      "hit": false,
      "t": 307800,
      "d": 56,
      "v": 101
    },
    {
      "midi": 81,
      "hit": false,
      "t": 307800,
      "d": 71,
      "v": 96
    },
    {
      "midi": 71,
      "hit": false,
      "t": 307800,
      "d": 76,
      "v": 112
    },
    {
      "midi": 81,
      "hit": false,
      "t": 308040,
      "d": 186,
      "v": 98
    },
    {
      "midi": 71,
      "hit": false,
      "t": 308040,
      "d": 236,
      "v": 114
    },
    {
      "midi": 76,
      "hit": false,
      "t": 308040,
      "d": 236,
      "v": 121
    },
    {
      "midi": 69,
      "hit": false,
      "t": 308052,
      "d": 326,
      "v": 1
    },
    {
      "midi": 71,
      "hit": false,
      "t": 308382,
      "d": 468,
      "v": 1
    },
    {
      "midi": 73,
      "hit": false,
      "t": 308400,
      "d": 61,
      "v": 85
    },
    {
      "midi": 76,
      "hit": false,
      "t": 308400,
      "d": 81,
      "v": 102
    },
    {
      "midi": 69,
      "hit": false,
      "t": 308400,
      "d": 111,
      "v": 97
    },
    {
      "midi": 71,
      "hit": false,
      "t": 308640,
      "d": 96,
      "v": 90
    },
    {
      "midi": 74,
      "hit": false,
      "t": 308640,
      "d": 96,
      "v": 87
    },
    {
      "midi": 67,
      "hit": false,
      "t": 308640,
      "d": 106,
      "v": 85
    },
    {
      "midi": 69,
      "hit": false,
      "t": 308855,
      "d": 256,
      "v": 1
    },
    {
      "midi": 69,
      "hit": false,
      "t": 308880,
      "d": 81,
      "v": 78
    },
    {
      "midi": 73,
      "hit": false,
      "t": 308880,
      "d": 81,
      "v": 91
    },
    {
      "midi": 76,
      "hit": false,
      "t": 308880,
      "d": 91,
      "v": 94
    },
    {
      "midi": 71,
      "hit": false,
      "t": 309115,
      "d": 1173,
      "v": 1
    },
    {
      "midi": 74,
      "hit": false,
      "t": 309120,
      "d": 41,
      "v": 100
    },
    {
      "midi": 79,
      "hit": false,
      "t": 309120,
      "d": 46,
      "v": 77
    },
    {
      "midi": 71,
      "hit": false,
      "t": 309120,
      "d": 61,
      "v": 107
    },
    {
      "midi": 79,
      "hit": false,
      "t": 309240,
      "d": 76,
      "v": 70
    },
    {
      "midi": 71,
      "hit": false,
      "t": 309240,
      "d": 81,
      "v": 90
    },
    {
      "midi": 74,
      "hit": false,
      "t": 309240,
      "d": 86,
      "v": 97
    },
    {
      "midi": 74,
      "hit": false,
      "t": 309480,
      "d": 66,
      "v": 107
    },
    {
      "midi": 79,
      "hit": false,
      "t": 309480,
      "d": 76,
      "v": 90
    },
    {
      "midi": 71,
      "hit": false,
      "t": 309480,
      "d": 81,
      "v": 112
    },
    {
      "midi": 74,
      "hit": false,
      "t": 309720,
      "d": 61,
      "v": 95
    },
    {
      "midi": 71,
      "hit": false,
      "t": 309720,
      "d": 81,
      "v": 110
    },
    {
      "midi": 79,
      "hit": false,
      "t": 309720,
      "d": 81,
      "v": 82
    },
    {
      "midi": 79,
      "hit": false,
      "t": 309960,
      "d": 176,
      "v": 101
    },
    {
      "midi": 71,
      "hit": false,
      "t": 309960,
      "d": 186,
      "v": 124
    },
    {
      "midi": 74,
      "hit": false,
      "t": 309960,
      "d": 231,
      "v": 104
    },
    {
      "midi": 74,
      "hit": false,
      "t": 310292,
      "d": 258,
      "v": 1
    },
    {
      "midi": 76,
      "hit": false,
      "t": 310320,
      "d": 61,
      "v": 100
    },
    {
      "midi": 73,
      "hit": false,
      "t": 310320,
      "d": 66,
      "v": 100
    },
    {
      "midi": 69,
      "hit": false,
      "t": 310320,
      "d": 101,
      "v": 100
    },
    {
      "midi": 69,
      "hit": false,
      "t": 310555,
      "d": 481,
      "v": 1
    },
    {
      "midi": 74,
      "hit": false,
      "t": 310560,
      "d": 71,
      "v": 77
    },
    {
      "midi": 71,
      "hit": false,
      "t": 310560,
      "d": 76,
      "v": 95
    },
    {
      "midi": 67,
      "hit": false,
      "t": 310560,
      "d": 86,
      "v": 78
    },
    {
      "midi": 73,
      "hit": false,
      "t": 310800,
      "d": 71,
      "v": 68
    },
    {
      "midi": 76,
      "hit": false,
      "t": 310800,
      "d": 71,
      "v": 56
    },
    {
      "midi": 69,
      "hit": false,
      "t": 310800,
      "d": 76,
      "v": 79
    },
    {
      "midi": 76,
      "hit": false,
      "t": 311040,
      "d": 41,
      "v": 107
    },
    {
      "midi": 71,
      "hit": false,
      "t": 311040,
      "d": 61,
      "v": 107
    },
    {
      "midi": 81,
      "hit": false,
      "t": 311040,
      "d": 156,
      "v": 100
    },
    {
      "midi": 71,
      "hit": false,
      "t": 311040,
      "d": 843,
      "v": 1
    },
    {
      "midi": 71,
      "hit": false,
      "t": 311160,
      "d": 76,
      "v": 109
    },
    {
      "midi": 76,
      "hit": false,
      "t": 311160,
      "d": 76,
      "v": 112
    },
    {
      "midi": 76,
      "hit": false,
      "t": 311400,
      "d": 61,
      "v": 108
    },
    {
      "midi": 81,
      "hit": false,
      "t": 311400,
      "d": 66,
      "v": 108
    },
    {
      "midi": 71,
      "hit": false,
      "t": 311400,
      "d": 76,
      "v": 108
    },
    {
      "midi": 76,
      "hit": false,
      "t": 311640,
      "d": 61,
      "v": 106
    },
    {
      "midi": 81,
      "hit": false,
      "t": 311640,
      "d": 66,
      "v": 113
    },
    {
      "midi": 71,
      "hit": false,
      "t": 311640,
      "d": 76,
      "v": 108
    },
    {
      "midi": 81,
      "hit": false,
      "t": 311880,
      "d": 156,
      "v": 108
    },
    {
      "midi": 76,
      "hit": false,
      "t": 311880,
      "d": 211,
      "v": 109
    },
    {
      "midi": 71,
      "hit": false,
      "t": 311880,
      "d": 226,
      "v": 112
    },
    {
      "midi": 69,
      "hit": false,
      "t": 311887,
      "d": 318,
      "v": 1
    },
    {
      "midi": 71,
      "hit": false,
      "t": 312210,
      "d": 496,
      "v": 1
    },
    {
      "midi": 76,
      "hit": false,
      "t": 312240,
      "d": 56,
      "v": 105
    },
    {
      "midi": 73,
      "hit": false,
      "t": 312240,
      "d": 66,
      "v": 106
    },
    {
      "midi": 69,
      "hit": false,
      "t": 312240,
      "d": 106,
      "v": 110
    },
    {
      "midi": 71,
      "hit": false,
      "t": 312480,
      "d": 76,
      "v": 108
    },
    {
      "midi": 74,
      "hit": false,
      "t": 312480,
      "d": 86,
      "v": 110
    },
    {
      "midi": 67,
      "hit": false,
      "t": 312480,
      "d": 111,
      "v": 111
    },
    {
      "midi": 69,
      "hit": false,
      "t": 312710,
      "d": 263,
      "v": 1
    },
    {
      "midi": 73,
      "hit": false,
      "t": 312720,
      "d": 71,
      "v": 105
    },
    {
      "midi": 69,
      "hit": false,
      "t": 312720,
      "d": 76,
      "v": 103
    },
    {
      "midi": 76,
      "hit": false,
      "t": 312720,
      "d": 81,
      "v": 110
    },
    {
      "midi": 74,
      "hit": false,
      "t": 312960,
      "d": 36,
      "v": 107
    },
    {
      "midi": 71,
      "hit": false,
      "t": 312960,
      "d": 61,
      "v": 109
    },
    {
      "midi": 79,
      "hit": false,
      "t": 312960,
      "d": 181,
      "v": 102
    },
    {
      "midi": 71,
      "hit": false,
      "t": 312977,
      "d": 1183,
      "v": 1
    },
    {
      "midi": 71,
      "hit": false,
      "t": 313080,
      "d": 76,
      "v": 108
    },
    {
      "midi": 74,
      "hit": false,
      "t": 313080,
      "d": 76,
      "v": 109
    },
    {
      "midi": 74,
      "hit": false,
      "t": 313320,
      "d": 66,
      "v": 107
    },
    {
      "midi": 79,
      "hit": false,
      "t": 313320,
      "d": 76,
      "v": 105
    },
    {
      "midi": 71,
      "hit": false,
      "t": 313320,
      "d": 81,
      "v": 105
    },
    {
      "midi": 74,
      "hit": false,
      "t": 313560,
      "d": 61,
      "v": 106
    },
    {
      "midi": 79,
      "hit": false,
      "t": 313560,
      "d": 61,
      "v": 101
    },
    {
      "midi": 71,
      "hit": false,
      "t": 313560,
      "d": 71,
      "v": 101
    },
    {
      "midi": 79,
      "hit": false,
      "t": 313800,
      "d": 176,
      "v": 102
    },
    {
      "midi": 71,
      "hit": false,
      "t": 313800,
      "d": 236,
      "v": 101
    },
    {
      "midi": 74,
      "hit": false,
      "t": 313800,
      "d": 241,
      "v": 108
    },
    {
      "midi": 73,
      "hit": false,
      "t": 314160,
      "d": 51,
      "v": 100
    },
    {
      "midi": 76,
      "hit": false,
      "t": 314160,
      "d": 51,
      "v": 103
    },
    {
      "midi": 69,
      "hit": false,
      "t": 314160,
      "d": 91,
      "v": 103
    },
    {
      "midi": 74,
      "hit": false,
      "t": 314165,
      "d": 256,
      "v": 1
    },
    {
      "midi": 74,
      "hit": false,
      "t": 314400,
      "d": 71,
      "v": 103
    },
    {
      "midi": 71,
      "hit": false,
      "t": 314400,
      "d": 81,
      "v": 98
    },
    {
      "midi": 67,
      "hit": false,
      "t": 314400,
      "d": 91,
      "v": 100
    },
    {
      "midi": 69,
      "hit": false,
      "t": 314425,
      "d": 456,
      "v": 1
    },
    {
      "midi": 73,
      "hit": false,
      "t": 314640,
      "d": 66,
      "v": 99
    },
    {
      "midi": 69,
      "hit": false,
      "t": 314640,
      "d": 71,
      "v": 102
    },
    {
      "midi": 76,
      "hit": false,
      "t": 314640,
      "d": 71,
      "v": 102
    },
    {
      "midi": 76,
      "hit": false,
      "t": 314880,
      "d": 46,
      "v": 97
    },
    {
      "midi": 71,
      "hit": false,
      "t": 314880,
      "d": 56,
      "v": 102
    },
    {
      "midi": 81,
      "hit": false,
      "t": 314880,
      "d": 66,
      "v": 102
    },
    {
      "midi": 71,
      "hit": false,
      "t": 314885,
      "d": 1911,
      "v": 1
    },
    {
      "midi": 76,
      "hit": false,
      "t": 315360,
      "d": 791,
      "v": 110
    },
    {
      "midi": 81,
      "hit": false,
      "t": 315360,
      "d": 791,
      "v": 107
    },
    {
      "midi": 71,
      "hit": false,
      "t": 315360,
      "d": 796,
      "v": 108
    }
  ]
}