{
  "jsonPath": "Unknown/Unknown/Hank Jones_ Mads Vinding_ Billy Hart/softly-as-in-a-morning-sunrise.json",
  "path": "Unknown\\Unknown\\Hank Jones_ Mads Vinding_ Billy Hart\\Softly as in a Morning Sunrise.mid",
  "name": "Softly as in a Morning Sunrise",
  "difficulty": "Advanced",
  "bpm": 120,
  "notes": [
    {
      "midi": 67,
      "hit": false,
      "t": 3985.63125,
      "d": 160.71093749999955,
      "v": 102
    },
    {
      "midi": 58,
      "hit": false,
      "t": 4108.485833333333,
      "d": 4.285625000000437,
      "v": 96
    },
    {
      "midi": 51,
      "hit": false,
      "t": 4108.485833333333,
      "d": 6.428437500000655,
      "v": 96
    },
    {
      "midi": 58,
      "hit": false,
      "t": 4112.771458333334,
      "d": 202.1386458333327,
      "v": 93
    },
    {
      "midi": 62,
      "hit": false,
      "t": 4114.200000000001,
      "d": 3.571354166666424,
      "v": 102
    },
    {
      "midi": 51,
      "hit": false,
      "t": 4114.914270833334,
      "d": 175.7106249999997,
      "v": 95
    },
    {
      "midi": 55,
      "hit": false,
      "t": 4114.914270833334,
      "d": 242.1378124999992,
      "v": 102
    },
    {
      "midi": 72,
      "hit": false,
      "t": 4117.771354166666,
      "d": 225.70958333333328,
      "v": 102
    },
    {
      "midi": 62,
      "hit": false,
      "t": 4117.771354166667,
      "d": 173.5678124999995,
      "v": 99
    },
    {
      "midi": 67,
      "hit": false,
      "t": 4314.195833333333,
      "d": 114.28333333333285,
      "v": 102
    },
    {
      "midi": 63,
      "hit": false,
      "t": 4460.621354166666,
      "d": 192.85312499999964,
      "v": 85
    },
    {
      "midi": 60,
      "hit": false,
      "t": 4655.617291666666,
      "d": 164.28229166666733,
      "v": 94
    },
    {
      "midi": 70,
      "hit": false,
      "t": 4801.328541666666,
      "d": 380.70635416666755,
      "v": 102
    },
    {
      "midi": 67,
      "hit": false,
      "t": 4992.753124999999,
      "d": 146.4255208333334,
      "v": 85
    },
    {
      "midi": 63,
      "hit": false,
      "t": 5140.6071875,
      "d": 182.85333333333347,
      "v": 79
    },
    {
      "midi": 60,
      "hit": false,
      "t": 5341.317291666666,
      "d": 132.1401041666668,
      "v": 72
    },
    {
      "midi": 68,
      "hit": false,
      "t": 5480.600104166667,
      "d": 437.13374999999996,
      "v": 102
    },
    {
      "midi": 60,
      "hit": false,
      "t": 5482.028645833333,
      "d": 246.42343750000055,
      "v": 96
    },
    {
      "midi": 56,
      "hit": false,
      "t": 5484.171458333333,
      "d": 259.28031250000004,
      "v": 86
    },
    {
      "midi": 53,
      "hit": false,
      "t": 5485.6,
      "d": 226.4238541666664,
      "v": 90
    },
    {
      "midi": 70,
      "hit": false,
      "t": 5835.592708333334,
      "d": 203.56718749999982,
      "v": 102
    },
    {
      "midi": 59,
      "hit": false,
      "t": 6028.445833333333,
      "d": 512.8464583333334,
      "v": 102
    },
    {
      "midi": 63,
      "hit": false,
      "t": 6029.160104166666,
      "d": 597.1304166666669,
      "v": 102
    },
    {
      "midi": 67,
      "hit": false,
      "t": 6029.874375,
      "d": 350.7069791666663,
      "v": 102
    },
    {
      "midi": 53,
      "hit": false,
      "t": 6030.588645833333,
      "d": 608.5587500000001,
      "v": 102
    },
    {
      "midi": 63,
      "hit": false,
      "t": 6375.581458333333,
      "d": 153.56822916666715,
      "v": 85
    },
    {
      "midi": 65,
      "hit": false,
      "t": 6507.007291666667,
      "d": 144.9969791666672,
      "v": 102
    },
    {
      "midi": 67,
      "hit": false,
      "t": 6707.003125000001,
      "d": 246.42343749999964,
      "v": 102
    },
    {
      "midi": 51,
      "hit": false,
      "t": 6712.003020833334,
      "d": 249.99479166666606,
      "v": 102
    },
    {
      "midi": 62,
      "hit": false,
      "t": 6712.717291666667,
      "d": 260.70885416666624,
      "v": 93
    },
    {
      "midi": 58,
      "hit": false,
      "t": 6712.717291666667,
      "d": 272.85145833333263,
      "v": 90
    },
    {
      "midi": 58,
      "hit": false,
      "t": 15424.678645833334,
      "d": 162.1394791666662,
      "v": 102
    },
    {
      "midi": 62,
      "hit": false,
      "t": 15426.1071875,
      "d": 164.99656250000044,
      "v": 102
    },
    {
      "midi": 51,
      "hit": false,
      "t": 15430.3928125,
      "d": 184.28187500000058,
      "v": 102
    },
    {
      "midi": 72,
      "hit": false,
      "t": 15431.821354166666,
      "d": 114.28333333333285,
      "v": 102
    },
    {
      "midi": 63,
      "hit": false,
      "t": 15438.9640625,
      "d": 104.28354166666577,
      "v": 102
    },
    {
      "midi": 67,
      "hit": false,
      "t": 15438.9640625,
      "d": 128.56875000000036,
      "v": 102
    },
    {
      "midi": 67,
      "hit": false,
      "t": 16000.3809375,
      "d": 90.71239583333409,
      "v": 102
    },
    {
      "midi": 56,
      "hit": false,
      "t": 16315.374375000001,
      "d": 178.56770833333394,
      "v": 71
    },
    {
      "midi": 65,
      "hit": false,
      "t": 16317.517187500001,
      "d": 89.28385416666788,
      "v": 101
    },
    {
      "midi": 53,
      "hit": false,
      "t": 16322.517083333334,
      "d": 154.28249999999935,
      "v": 88
    },
    {
      "midi": 60,
      "hit": false,
      "t": 16323.231354166668,
      "d": 189.2817708333332,
      "v": 85
    },
    {
      "midi": 67,
      "hit": false,
      "t": 16663.93854166667,
      "d": 257.1375000000007,
      "v": 102
    },
    {
      "midi": 65,
      "hit": false,
      "t": 17004.64572916667,
      "d": 159.99666666666963,
      "v": 98
    },
    {
      "midi": 60,
      "hit": false,
      "t": 17136.0715625,
      "d": 145.7112500000003,
      "v": 102
    },
    {
      "midi": 56,
      "hit": false,
      "t": 17138.928645833334,
      "d": 147.85406250000233,
      "v": 87
    },
    {
      "midi": 67,
      "hit": false,
      "t": 17143.92854166667,
      "d": 112.85479166666846,
      "v": 102
    },
    {
      "midi": 63,
      "hit": false,
      "t": 17146.071354166666,
      "d": 162.13947916666802,
      "v": 92
    },
    {
      "midi": 53,
      "hit": false,
      "t": 17479.635833333334,
      "d": 132.1401041666686,
      "v": 100
    },
    {
      "midi": 59,
      "hit": false,
      "t": 17483.921458333334,
      "d": 139.28281250000146,
      "v": 86
    },
    {
      "midi": 62,
      "hit": false,
      "t": 17485.350000000002,
      "d": 135.71145833333503,
      "v": 97
    },
    {
      "midi": 65,
      "hit": false,
      "t": 17486.06427083334,
      "d": 121.4260416666657,
      "v": 102
    },
    {
      "midi": 67,
      "hit": false,
      "t": 18162.478750000006,
      "d": 121.4260416666657,
      "v": 102
    },
    {
      "midi": 62,
      "hit": false,
      "t": 18165.335833333334,
      "d": 157.13958333333358,
      "v": 102
    },
    {
      "midi": 63,
      "hit": false,
      "t": 18168.907187500005,
      "d": 147.13979166666832,
      "v": 102
    },
    {
      "midi": 58,
      "hit": false,
      "t": 18171.050000000003,
      "d": 153.5682291666635,
      "v": 102
    },
    {
      "midi": 51,
      "hit": false,
      "t": 18171.050000000003,
      "d": 160.71093749999636,
      "v": 102
    },
    {
      "midi": 72,
      "hit": false,
      "t": 18171.050000000003,
      "d": 103.56927083333358,
      "v": 102
    },
    {
      "midi": 63,
      "hit": false,
      "t": 18730.324062500007,
      "d": 97.85510416666511,
      "v": 102
    },
    {
      "midi": 59,
      "hit": false,
      "t": 19053.174479166664,
      "d": 303.56510416666424,
      "v": 86
    },
    {
      "midi": 56,
      "hit": false,
      "t": 19056.74583333333,
      "d": 273.5657291666648,
      "v": 72
    },
    {
      "midi": 62,
      "hit": false,
      "t": 19061.745729166672,
      "d": 147.13979166666832,
      "v": 93
    },
    {
      "midi": 53,
      "hit": false,
      "t": 19067.45989583333,
      "d": 274.99427083333285,
      "v": 81
    },
    {
      "midi": 63,
      "hit": false,
      "t": 19403.167187500007,
      "d": 234.28083333333416,
      "v": 102
    },
    {
      "midi": 62,
      "hit": false,
      "t": 19543.878541666672,
      "d": 121.42604166666933,
      "v": 86
    },
    {
      "midi": 62,
      "hit": false,
      "t": 19747.445729166677,
      "d": 121.4260416666657,
      "v": 88
    },
    {
      "midi": 53,
      "hit": false,
      "t": 19881.72864583333,
      "d": 135.71145833333503,
      "v": 95
    },
    {
      "midi": 60,
      "hit": false,
      "t": 19888.871354166662,
      "d": 124.99739583333576,
      "v": 101
    },
    {
      "midi": 56,
      "hit": false,
      "t": 19889.585624999996,
      "d": 139.28281250000146,
      "v": 81
    },
    {
      "midi": 63,
      "hit": false,
      "t": 19897.442604166677,
      "d": 106.42635416666599,
      "v": 102
    },
    {
      "midi": 53,
      "hit": false,
      "t": 20226.72145833333,
      "d": 141.42562499999985,
      "v": 92
    },
    {
      "midi": 56,
      "hit": false,
      "t": 20228.149999999998,
      "d": 157.13958333333358,
      "v": 74
    },
    {
      "midi": 62,
      "hit": false,
      "t": 20228.864270833343,
      "d": 104.28354166666759,
      "v": 102
    },
    {
      "midi": 63,
      "hit": false,
      "t": 20910.278645833343,
      "d": 164.99656250000044,
      "v": 102
    },
    {
      "midi": 51,
      "hit": false,
      "t": 20910.992916666666,
      "d": 189.9960416666654,
      "v": 99
    },
    {
      "midi": 58,
      "hit": false,
      "t": 20915.278541666667,
      "d": 189.2817708333314,
      "v": 95
    },
    {
      "midi": 62,
      "hit": false,
      "t": 20918.849895833344,
      "d": 105.71208333333198,
      "v": 102
    },
    {
      "midi": 67,
      "hit": false,
      "t": 20920.992708333342,
      "d": 99.99791666666715,
      "v": 102
    },
    {
      "midi": 60,
      "hit": false,
      "t": 21460.26718750001,
      "d": 121.4260416666657,
      "v": 102
    },
    {
      "midi": 63,
      "hit": false,
      "t": 21595.97864583334,
      "d": 110.71197916666642,
      "v": 97
    },
    {
      "midi": 60,
      "hit": false,
      "t": 21803.117187499996,
      "d": 169.28218750000087,
      "v": 101
    },
    {
      "midi": 66,
      "hit": false,
      "t": 21806.688541666674,
      "d": 146.4255208333343,
      "v": 102
    },
    {
      "midi": 65,
      "hit": false,
      "t": 22149.538541666676,
      "d": 246.42343750000146,
      "v": 102
    },
    {
      "midi": 63,
      "hit": false,
      "t": 22490.245729166676,
      "d": 127.85447916666817,
      "v": 81
    },
    {
      "midi": 60,
      "hit": false,
      "t": 22635.242708333346,
      "d": 107.85489583333401,
      "v": 102
    },
    {
      "midi": 58,
      "hit": false,
      "t": 22964.521562500013,
      "d": 286.42260416666613,
      "v": 89
    },
    {
      "midi": 48,
      "hit": false,
      "t": 23172.374374999996,
      "d": 535.703125,
      "v": 102
    },
    {
      "midi": 60,
      "hit": false,
      "t": 23178.088541666664,
      "d": 601.4160416666637,
      "v": 102
    },
    {
      "midi": 60,
      "hit": false,
      "t": 23178.08854166668,
      "d": 1936.3882291666669,
      "v": 90
    },
    {
      "midi": 51,
      "hit": false,
      "t": 23180.231354166663,
      "d": 605.7016666666641,
      "v": 93
    },
    {
      "midi": 49,
      "hit": false,
      "t": 23880.216770833325,
      "d": 521.4177083333343,
      "v": 102
    },
    {
      "midi": 60,
      "hit": false,
      "t": 23883.788124999992,
      "d": 516.4178124999999,
      "v": 102
    },
    {
      "midi": 39,
      "hit": false,
      "t": 23885.21666666666,
      "d": 657.1291666666657,
      "v": 102
    },
    {
      "midi": 44,
      "hit": false,
      "t": 24565.202499999992,
      "d": 661.4147916666661,
      "v": 92
    },
    {
      "midi": 48,
      "hit": false,
      "t": 24573.05947916666,
      "d": 652.1292708333312,
      "v": 102
    },
    {
      "midi": 60,
      "hit": false,
      "t": 24575.202291666657,
      "d": 527.8461458333331,
      "v": 102
    },
    {
      "midi": 53,
      "hit": false,
      "t": 25250.902499999993,
      "d": 800.6976041666676,
      "v": 102
    },
    {
      "midi": 43,
      "hit": false,
      "t": 25253.04531249999,
      "d": 797.1262500000012,
      "v": 102
    },
    {
      "midi": 63,
      "hit": false,
      "t": 25253.759583333325,
      "d": 852.8393750000032,
      "v": 102
    },
    {
      "midi": 59,
      "hit": false,
      "t": 25258.75947916666,
      "d": 794.2691666666688,
      "v": 102
    },
    {
      "midi": 67,
      "hit": false,
      "t": 26393.021562500013,
      "d": 88.56958333333387,
      "v": 102
    },
    {
      "midi": 63,
      "hit": false,
      "t": 26396.59291666668,
      "d": 92.8552083333343,
      "v": 102
    },
    {
      "midi": 72,
      "hit": false,
      "t": 26398.021458333347,
      "d": 97.85510416666511,
      "v": 102
    },
    {
      "midi": 55,
      "hit": false,
      "t": 26400.164270833327,
      "d": 96.42656250000437,
      "v": 88
    },
    {
      "midi": 62,
      "hit": false,
      "t": 26400.164270833327,
      "d": 134.99718750000466,
      "v": 102
    },
    {
      "midi": 51,
      "hit": false,
      "t": 26401.592812499995,
      "d": 119.99750000000131,
      "v": 102
    },
    {
      "midi": 58,
      "hit": false,
      "t": 26403.021354166664,
      "d": 122.85458333333372,
      "v": 91
    },
    {
      "midi": 67,
      "hit": false,
      "t": 26950.15281250001,
      "d": 112.14052083333445,
      "v": 102
    },
    {
      "midi": 60,
      "hit": false,
      "t": 27286.574375,
      "d": 153.56822916666715,
      "v": 80
    },
    {
      "midi": 53,
      "hit": false,
      "t": 27288.7171875,
      "d": 144.2827083333359,
      "v": 69
    },
    {
      "midi": 56,
      "hit": false,
      "t": 27290.145729166667,
      "d": 161.425208333334,
      "v": 55
    },
    {
      "midi": 65,
      "hit": false,
      "t": 27296.57416666668,
      "d": 97.85510416666511,
      "v": 97
    },
    {
      "midi": 67,
      "hit": false,
      "t": 27629.424375000013,
      "d": 270.7086458333324,
      "v": 102
    },
    {
      "midi": 65,
      "hit": false,
      "t": 27967.98875000001,
      "d": 158.5681250000016,
      "v": 86
    },
    {
      "midi": 53,
      "hit": false,
      "t": 28111.557187500002,
      "d": 129.28302083333256,
      "v": 89
    },
    {
      "midi": 63,
      "hit": false,
      "t": 28113.7,
      "d": 164.28229166666642,
      "v": 91
    },
    {
      "midi": 67,
      "hit": false,
      "t": 28113.70000000001,
      "d": 86.42677083333547,
      "v": 102
    },
    {
      "midi": 56,
      "hit": false,
      "t": 28115.12854166667,
      "d": 148.5683333333327,
      "v": 85
    },
    {
      "midi": 60,
      "hit": false,
      "t": 28117.271354166667,
      "d": 144.2827083333359,
      "v": 99
    },
    {
      "midi": 62,
      "hit": false,
      "t": 28454.4071875,
      "d": 163.56802083333605,
      "v": 102
    },
    {
      "midi": 65,
      "hit": false,
      "t": 28454.407187500015,
      "d": 117.14041666666526,
      "v": 102
    },
    {
      "midi": 59,
      "hit": false,
      "t": 28457.264270833333,
      "d": 145.71125000000393,
      "v": 97
    },
    {
      "midi": 56,
      "hit": false,
      "t": 28458.6928125,
      "d": 154.99677083333518,
      "v": 81
    },
    {
      "midi": 53,
      "hit": false,
      "t": 28460.12135416667,
      "d": 122.85458333333372,
      "v": 91
    },
    {
      "midi": 72,
      "hit": false,
      "t": 29133.678750000014,
      "d": 119.2832291666673,
      "v": 102
    },
    {
      "midi": 51,
      "hit": false,
      "t": 29137.25010416667,
      "d": 144.99697916666628,
      "v": 102
    },
    {
      "midi": 62,
      "hit": false,
      "t": 29142.250000000004,
      "d": 162.1394791666644,
      "v": 102
    },
    {
      "midi": 63,
      "hit": false,
      "t": 29142.250000000015,
      "d": 134.282916666667,
      "v": 102
    },
    {
      "midi": 58,
      "hit": false,
      "t": 29143.67854166667,
      "d": 157.13958333332994,
      "v": 102
    },
    {
      "midi": 55,
      "hit": false,
      "t": 29145.82135416667,
      "d": 142.85416666666424,
      "v": 102
    },
    {
      "midi": 67,
      "hit": false,
      "t": 29146.535625000015,
      "d": 117.14041666666526,
      "v": 102
    },
    {
      "midi": 63,
      "hit": false,
      "t": 29696.52416666668,
      "d": 102.85499999999956,
      "v": 102
    },
    {
      "midi": 56,
      "hit": false,
      "t": 30029.374375000003,
      "d": 203.5671874999971,
      "v": 60
    },
    {
      "midi": 59,
      "hit": false,
      "t": 30029.374375000003,
      "d": 209.28135416666555,
      "v": 66
    },
    {
      "midi": 62,
      "hit": false,
      "t": 30035.08854166668,
      "d": 272.13718750000044,
      "v": 101
    },
    {
      "midi": 53,
      "hit": false,
      "t": 30035.802812500002,
      "d": 202.85291666666672,
      "v": 73
    },
    {
      "midi": 63,
      "hit": false,
      "t": 30374.36718750001,
      "d": 135.71145833333503,
      "v": 102
    },
    {
      "midi": 62,
      "hit": false,
      "t": 30556.506250000013,
      "d": 119.99750000000131,
      "v": 92
    },
    {
      "midi": 62,
      "hit": false,
      "t": 30714.36010416668,
      "d": 110.71197916666642,
      "v": 102
    },
    {
      "midi": 53,
      "hit": false,
      "t": 30852.928645833334,
      "d": 129.9972916666702,
      "v": 83
    },
    {
      "midi": 56,
      "hit": false,
      "t": 30854.3571875,
      "d": 177.13916666667137,
      "v": 73
    },
    {
      "midi": 63,
      "hit": false,
      "t": 30857.92854166668,
      "d": 112.85479166666846,
      "v": 102
    },
    {
      "midi": 60,
      "hit": false,
      "t": 30858.642812500002,
      "d": 155.7110416666692,
      "v": 95
    },
    {
      "midi": 56,
      "hit": false,
      "t": 31199.350000000006,
      "d": 154.99677083333154,
      "v": 82
    },
    {
      "midi": 53,
      "hit": false,
      "t": 31202.921354166672,
      "d": 148.5683333333327,
      "v": 96
    },
    {
      "midi": 62,
      "hit": false,
      "t": 31206.492708333346,
      "d": 103.56927083333358,
      "v": 102
    },
    {
      "midi": 58,
      "hit": false,
      "t": 31879.335833333338,
      "d": 171.42499999999927,
      "v": 102
    },
    {
      "midi": 62,
      "hit": false,
      "t": 31881.478645833347,
      "d": 121.4260416666657,
      "v": 102
    },
    {
      "midi": 67,
      "hit": false,
      "t": 31881.478645833347,
      "d": 136.4257291666654,
      "v": 102
    },
    {
      "midi": 63,
      "hit": false,
      "t": 31881.478645833347,
      "d": 172.85354166666366,
      "v": 102
    },
    {
      "midi": 51,
      "hit": false,
      "t": 31882.19291666667,
      "d": 172.13927083333328,
      "v": 102
    },
    {
      "midi": 55,
      "hit": false,
      "t": 31883.62145833334,
      "d": 144.28270833333227,
      "v": 102
    },
    {
      "midi": 60,
      "hit": false,
      "t": 32432.895729166677,
      "d": 121.4260416666657,
      "v": 102
    },
    {
      "midi": 63,
      "hit": false,
      "t": 32571.464270833345,
      "d": 233.56656250000015,
      "v": 89
    },
    {
      "midi": 66,
      "hit": false,
      "t": 32775.031458333346,
      "d": 119.28322916666366,
      "v": 102
    },
    {
      "midi": 60,
      "hit": false,
      "t": 32775.74572916667,
      "d": 164.28229166667006,
      "v": 102
    },
    {
      "midi": 65,
      "hit": false,
      "t": 33120.73854166667,
      "d": 149.9968749999971,
      "v": 102
    },
    {
      "midi": 63,
      "hit": false,
      "t": 33450.73166666667,
      "d": 93.56947916666832,
      "v": 84
    },
    {
      "midi": 60,
      "hit": false,
      "t": 33595.72864583333,
      "d": 171.4250000000029,
      "v": 102
    },
    {
      "midi": 55,
      "hit": false,
      "t": 33799.29583333334,
      "d": 92.8552083333343,
      "v": 80
    },
    {
      "midi": 58,
      "hit": false,
      "t": 33935.00729166667,
      "d": 199.9958333333343,
      "v": 96
    },
    {
      "midi": 60,
      "hit": false,
      "t": 34147.14572916667,
      "d": 1287.830312500002,
      "v": 102
    },
    {
      "midi": 36,
      "hit": false,
      "t": 34149.288541666676,
      "d": 637.1295833333352,
      "v": 102
    },
    {
      "midi": 51,
      "hit": false,
      "t": 34151.43135416668,
      "d": 462.8475000000035,
      "v": 102
    },
    {
      "midi": 60,
      "hit": false,
      "t": 34151.43135416668,
      "d": 544.9886458333349,
      "v": 102
    },
    {
      "midi": 52,
      "hit": false,
      "t": 34832.84572916668,
      "d": 462.8475000000035,
      "v": 102
    },
    {
      "midi": 60,
      "hit": false,
      "t": 34852.84531250001,
      "d": 473.5615625000064,
      "v": 102
    },
    {
      "midi": 58,
      "hit": false,
      "t": 34854.98812500001,
      "d": 466.41885416667355,
      "v": 102
    },
    {
      "midi": 42,
      "hit": false,
      "t": 34857.84520833335,
      "d": 655.700625000005,
      "v": 101
    },
    {
      "midi": 51,
      "hit": false,
      "t": 35517.11718750002,
      "d": 912.8381250000093,
      "v": 95
    },
    {
      "midi": 41,
      "hit": false,
      "t": 35543.54520833336,
      "d": 691.4141666666692,
      "v": 102
    },
    {
      "midi": 60,
      "hit": false,
      "t": 35544.25947916669,
      "d": 1848.532916666678,
      "v": 102
    },
    {
      "midi": 56,
      "hit": false,
      "t": 35545.68802083336,
      "d": 1467.8265625000058,
      "v": 101
    },
    {
      "midi": 58,
      "hit": false,
      "t": 36176.38916666667,
      "d": 124.99739583333576,
      "v": 102
    },
    {
      "midi": 40,
      "hit": false,
      "t": 36224.245312500025,
      "d": 800.6976041666785,
      "v": 102
    },
    {
      "midi": 60,
      "hit": false,
      "t": 36263.53020833334,
      "d": 166.42510416666482,
      "v": 102
    },
    {
      "midi": 62,
      "hit": false,
      "t": 36460.668958333335,
      "d": 119.28322916666366,
      "v": 102
    },
    {
      "midi": 63,
      "hit": false,
      "t": 36567.0953125,
      "d": 134.28291666666337,
      "v": 102
    },
    {
      "midi": 65,
      "hit": false,
      "t": 36683.52145833333,
      "d": 138.56854166666744,
      "v": 102
    },
    {
      "midi": 67,
      "hit": false,
      "t": 36777.80520833333,
      "d": 191.42458333333343,
      "v": 102
    },
    {
      "midi": 68,
      "hit": false,
      "t": 36899.23125,
      "d": 85.71250000000146,
      "v": 94
    },
    {
      "midi": 70,
      "hit": false,
      "t": 37017.0859375,
      "d": 287.8511458333305,
      "v": 102
    },
    {
      "midi": 39,
      "hit": false,
      "t": 37022.08583333337,
      "d": 1284.2589583333393,
      "v": 102
    },
    {
      "midi": 63,
      "hit": false,
      "t": 37710.6429166667,
      "d": 606.415937500009,
      "v": 102
    },
    {
      "midi": 58,
      "hit": false,
      "t": 37714.21427083337,
      "d": 484.9898958333288,
      "v": 102
    },
    {
      "midi": 53,
      "hit": false,
      "t": 37714.928541666704,
      "d": 432.8481249999968,
      "v": 102
    },
    {
      "midi": 55,
      "hit": false,
      "t": 38279.202500000036,
      "d": 100.71218750000844,
      "v": 102
    },
    {
      "midi": 60,
      "hit": false,
      "t": 38284.9166666667,
      "d": 110.71197916667734,
      "v": 102
    },
    {
      "midi": 65,
      "hit": false,
      "t": 38288.48802083337,
      "d": 110.71197916667734,
      "v": 102
    },
    {
      "midi": 55,
      "hit": false,
      "t": 38613.48125000005,
      "d": 107.140625,
      "v": 69
    },
    {
      "midi": 70,
      "hit": false,
      "t": 38618.48114583333,
      "d": 164.99656250000407,
      "v": 102
    },
    {
      "midi": 72,
      "hit": false,
      "t": 38742.049999999996,
      "d": 209.2813541666692,
      "v": 102
    },
    {
      "midi": 56,
      "hit": false,
      "t": 38745.62135416672,
      "d": 219.99541666666482,
      "v": 89
    },
    {
      "midi": 55,
      "hit": false,
      "t": 38942.04583333338,
      "d": 87.14104166666948,
      "v": 70
    },
    {
      "midi": 70,
      "hit": false,
      "t": 38956.331249999996,
      "d": 157.85385416666395,
      "v": 89
    },
    {
      "midi": 72,
      "hit": false,
      "t": 39079.18583333333,
      "d": 279.27989583332965,
      "v": 99
    },
    {
      "midi": 56,
      "hit": false,
      "t": 39087.04281250005,
      "d": 209.9956250000032,
      "v": 95
    },
    {
      "midi": 55,
      "hit": false,
      "t": 39286.32437500005,
      "d": 366.4209375000064,
      "v": 70
    },
    {
      "midi": 70,
      "hit": false,
      "t": 39292.03854166666,
      "d": 203.5671874999971,
      "v": 92
    },
    {
      "midi": 61,
      "hit": false,
      "t": 39628.46010416672,
      "d": 429.276770833334,
      "v": 102
    },
    {
      "midi": 58,
      "hit": false,
      "t": 39637.03135416672,
      "d": 423.5626041666692,
      "v": 102
    },
    {
      "midi": 52,
      "hit": false,
      "t": 39638.45989583339,
      "d": 360.7067708333343,
      "v": 102
    },
    {
      "midi": 70,
      "hit": false,
      "t": 39661.31656249999,
      "d": 684.9857291666704,
      "v": 102
    },
    {
      "midi": 61,
      "hit": false,
      "t": 40312.01729166672,
      "d": 132.14010416667588,
      "v": 102
    },
    {
      "midi": 52,
      "hit": false,
      "t": 40313.44583333339,
      "d": 115.71187500000087,
      "v": 102
    },
    {
      "midi": 58,
      "hit": false,
      "t": 40319.160000000054,
      "d": 121.42604166667297,
      "v": 102
    },
    {
      "midi": 64,
      "hit": false,
      "t": 40342.73093749999,
      "d": 347.1356250000026,
      "v": 102
    },
    {
      "midi": 49,
      "hit": false,
      "t": 40999.145833333394,
      "d": 146.4255208333343,
      "v": 102
    },
    {
      "midi": 48,
      "hit": false,
      "t": 41127.71458333339,
      "d": 432.13385416667006,
      "v": 100
    },
    {
      "midi": 63,
      "hit": false,
      "t": 41704.13114583332,
      "d": 94.99802083333634,
      "v": 102
    },
    {
      "midi": 64,
      "hit": false,
      "t": 41824.12864583333,
      "d": 242.85208333333867,
      "v": 81
    },
    {
      "midi": 61,
      "hit": false,
      "t": 42036.98135416673,
      "d": 97.85510416666511,
      "v": 86
    },
    {
      "midi": 75,
      "hit": false,
      "t": 42041.98125,
      "d": 192.85312500000146,
      "v": 102
    },
    {
      "midi": 72,
      "hit": false,
      "t": 42045.55260416667,
      "d": 177.13916666666773,
      "v": 102
    },
    {
      "midi": 58,
      "hit": false,
      "t": 42045.55260416673,
      "d": 84.28395833333343,
      "v": 81
    },
    {
      "midi": 52,
      "hit": false,
      "t": 42046.26687500007,
      "d": 67.14145833333168,
      "v": 82
    },
    {
      "midi": 73,
      "hit": false,
      "t": 42174.121354166666,
      "d": 378.5635416666628,
      "v": 102
    },
    {
      "midi": 70,
      "hit": false,
      "t": 42177.692708333336,
      "d": 319.993333333332,
      "v": 102
    },
    {
      "midi": 72,
      "hit": false,
      "t": 42504.82875,
      "d": 549.9885416666657,
      "v": 102
    },
    {
      "midi": 55,
      "hit": false,
      "t": 42513.40000000007,
      "d": 410.7057291666715,
      "v": 102
    },
    {
      "midi": 60,
      "hit": false,
      "t": 42513.40000000007,
      "d": 416.41989583333634,
      "v": 102
    },
    {
      "midi": 56,
      "hit": false,
      "t": 42514.828541666735,
      "d": 409.2771875000035,
      "v": 102
    },
    {
      "midi": 68,
      "hit": false,
      "t": 42516.971354166664,
      "d": 421.41979166666715,
      "v": 102
    },
    {
      "midi": 55,
      "hit": false,
      "t": 43052.67447916674,
      "d": 83.5696875000067,
      "v": 92
    },
    {
      "midi": 56,
      "hit": false,
      "t": 43056.24583333341,
      "d": 89.28385416667152,
      "v": 88
    },
    {
      "midi": 60,
      "hit": false,
      "t": 43059.81718750008,
      "d": 92.8552083333343,
      "v": 102
    },
    {
      "midi": 65,
      "hit": false,
      "t": 43077.67395833333,
      "d": 199.9958333333343,
      "v": 102
    },
    {
      "midi": 38,
      "hit": false,
      "t": 43741.94583333341,
      "d": 990.6936458333366,
      "v": 102
    },
    {
      "midi": 72,
      "hit": false,
      "t": 44079.7959375,
      "d": 144.996979166659,
      "v": 81
    },
    {
      "midi": 68,
      "hit": false,
      "t": 44081.22447916667,
      "d": 139.28281249999418,
      "v": 90
    },
    {
      "midi": 70,
      "hit": false,
      "t": 44208.3646875,
      "d": 219.2811458333308,
      "v": 102
    },
    {
      "midi": 74,
      "hit": false,
      "t": 44208.3646875,
      "d": 259.99458333333314,
      "v": 102
    },
    {
      "midi": 72,
      "hit": false,
      "t": 44424.78874999999,
      "d": 153.56822916667443,
      "v": 102
    },
    {
      "midi": 68,
      "hit": false,
      "t": 44426.21729166666,
      "d": 142.85416666667152,
      "v": 93
    },
    {
      "midi": 70,
      "hit": false,
      "t": 44559.7859375,
      "d": 317.8505208333372,
      "v": 102
    },
    {
      "midi": 74,
      "hit": false,
      "t": 44563.35729166667,
      "d": 289.27968749999854,
      "v": 102
    },
    {
      "midi": 54,
      "hit": false,
      "t": 44781.92416666675,
      "d": 89.28385416667152,
      "v": 102
    },
    {
      "midi": 60,
      "hit": false,
      "t": 44784.78125000009,
      "d": 85.71250000000146,
      "v": 102
    },
    {
      "midi": 65,
      "hit": false,
      "t": 44784.78125000009,
      "d": 87.85531250000349,
      "v": 102
    },
    {
      "midi": 68,
      "hit": false,
      "t": 44895.49322916667,
      "d": 134.28291666666337,
      "v": 102
    },
    {
      "midi": 72,
      "hit": false,
      "t": 44899.06458333334,
      "d": 111.4262499999968,
      "v": 102
    },
    {
      "midi": 70,
      "hit": false,
      "t": 45242.628854166665,
      "d": 912.123854166668,
      "v": 102
    },
    {
      "midi": 74,
      "hit": false,
      "t": 45245.4859375,
      "d": 830.6969791666634,
      "v": 102
    },
    {
      "midi": 53,
      "hit": false,
      "t": 45254.771458333424,
      "d": 1314.2583333333387,
      "v": 102
    },
    {
      "midi": 60,
      "hit": false,
      "t": 45257.62854166676,
      "d": 1353.5432291666657,
      "v": 102
    },
    {
      "midi": 44,
      "hit": false,
      "t": 45257.62854166676,
      "d": 1387.8282291666692,
      "v": 101
    },
    {
      "midi": 73,
      "hit": false,
      "t": 46163.323958333334,
      "d": 142.85416666666424,
      "v": 102
    },
    {
      "midi": 74,
      "hit": false,
      "t": 46282.6071875,
      "d": 130.71156250000058,
      "v": 102
    },
    {
      "midi": 43,
      "hit": false,
      "t": 46508.31677083343,
      "d": 1194.9751041666677,
      "v": 99
    },
    {
      "midi": 59,
      "hit": false,
      "t": 46509.7453125001,
      "d": 1214.2604166666642,
      "v": 102
    },
    {
      "midi": 71,
      "hit": false,
      "t": 46513.316666666666,
      "d": 447.8478124999965,
      "v": 102
    },
    {
      "midi": 50,
      "hit": false,
      "t": 46516.88802083343,
      "d": 1167.832812499997,
      "v": 102
    },
    {
      "midi": 68,
      "hit": false,
      "t": 46518.3165625,
      "d": 539.2744791666628,
      "v": 102
    },
    {
      "midi": 77,
      "hit": false,
      "t": 46518.3165625,
      "d": 698.5568749999948,
      "v": 102
    },
    {
      "midi": 71,
      "hit": false,
      "t": 47314.72854166666,
      "d": 157.85385416667123,
      "v": 102
    },
    {
      "midi": 75,
      "hit": false,
      "t": 47319.01416666665,
      "d": 119.28322916667094,
      "v": 102
    },
    {
      "midi": 68,
      "hit": false,
      "t": 47327.585416666654,
      "d": 148.56833333334362,
      "v": 102
    },
    {
      "midi": 68,
      "hit": false,
      "t": 47670.43541666667,
      "d": 149.99687500000437,
      "v": 102
    },
    {
      "midi": 74,
      "hit": false,
      "t": 47677.578125,
      "d": 149.99687500000437,
      "v": 102
    },
    {
      "midi": 71,
      "hit": false,
      "t": 47679.00666666667,
      "d": 157.85385416667123,
      "v": 102
    },
    {
      "midi": 58,
      "hit": false,
      "t": 48340.421458333425,
      "d": 128.56875000000582,
      "v": 102
    },
    {
      "midi": 72,
      "hit": false,
      "t": 48341.850000000006,
      "d": 112.8547916666721,
      "v": 102
    },
    {
      "midi": 62,
      "hit": false,
      "t": 48341.85000000009,
      "d": 126.42593750000378,
      "v": 102
    },
    {
      "midi": 63,
      "hit": false,
      "t": 48342.56427083334,
      "d": 129.99729166667385,
      "v": 102
    },
    {
      "midi": 55,
      "hit": false,
      "t": 48343.992812500095,
      "d": 109.28343750000204,
      "v": 102
    },
    {
      "midi": 51,
      "hit": false,
      "t": 48343.992812500095,
      "d": 122.85458333333372,
      "v": 102
    },
    {
      "midi": 67,
      "hit": false,
      "t": 48345.421354166676,
      "d": 142.85416666667152,
      "v": 102
    },
    {
      "midi": 67,
      "hit": false,
      "t": 48895.40989583335,
      "d": 99.99791666666715,
      "v": 102
    },
    {
      "midi": 65,
      "hit": false,
      "t": 49232.54572916668,
      "d": 91.42666666666628,
      "v": 94
    },
    {
      "midi": 53,
      "hit": false,
      "t": 49250.4025000001,
      "d": 162.85375000000204,
      "v": 88
    },
    {
      "midi": 60,
      "hit": false,
      "t": 49256.11666666676,
      "d": 167.85364583334012,
      "v": 84
    },
    {
      "midi": 56,
      "hit": false,
      "t": 49259.68802083343,
      "d": 174.99635416667297,
      "v": 80
    },
    {
      "midi": 67,
      "hit": false,
      "t": 49571.110104166684,
      "d": 281.4227083333317,
      "v": 102
    },
    {
      "midi": 65,
      "hit": false,
      "t": 49918.960000000014,
      "d": 166.42510416666482,
      "v": 84
    },
    {
      "midi": 67,
      "hit": false,
      "t": 50047.52875000001,
      "d": 97.85510416666511,
      "v": 102
    },
    {
      "midi": 63,
      "hit": false,
      "t": 50049.67156250011,
      "d": 157.13958333332994,
      "v": 98
    },
    {
      "midi": 60,
      "hit": false,
      "t": 50054.67145833344,
      "d": 130.71156250000058,
      "v": 102
    },
    {
      "midi": 56,
      "hit": false,
      "t": 50057.528541666776,
      "d": 134.28291666666337,
      "v": 94
    },
    {
      "midi": 65,
      "hit": false,
      "t": 50392.52156250001,
      "d": 117.1404166666689,
      "v": 102
    },
    {
      "midi": 53,
      "hit": false,
      "t": 50393.23583333344,
      "d": 143.56843749999825,
      "v": 100
    },
    {
      "midi": 63,
      "hit": false,
      "t": 50393.23583333344,
      "d": 150.7111458333311,
      "v": 92
    },
    {
      "midi": 59,
      "hit": false,
      "t": 50400.378541666774,
      "d": 137.85427083333343,
      "v": 102
    },
    {
      "midi": 67,
      "hit": false,
      "t": 51081.078645833346,
      "d": 133.56864583332936,
      "v": 102
    },
    {
      "midi": 55,
      "hit": false,
      "t": 51081.07864583344,
      "d": 142.85416666667152,
      "v": 102
    },
    {
      "midi": 51,
      "hit": false,
      "t": 51081.07864583344,
      "d": 164.99656250000407,
      "v": 102
    },
    {
      "midi": 62,
      "hit": false,
      "t": 51082.50718750011,
      "d": 159.28239583333925,
      "v": 102
    },
    {
      "midi": 72,
      "hit": false,
      "t": 51085.36427083334,
      "d": 95.71229166666308,
      "v": 102
    },
    {
      "midi": 58,
      "hit": false,
      "t": 51086.07854166678,
      "d": 162.85375000000204,
      "v": 101
    },
    {
      "midi": 63,
      "hit": false,
      "t": 51089.64989583334,
      "d": 117.1404166666689,
      "v": 102
    },
    {
      "midi": 63,
      "hit": false,
      "t": 51635.35281250001,
      "d": 114.28333333333285,
      "v": 102
    },
    {
      "midi": 56,
      "hit": false,
      "t": 51973.91718750011,
      "d": 176.42489583333372,
      "v": 73
    },
    {
      "midi": 62,
      "hit": false,
      "t": 51977.48854166667,
      "d": 262.1373958333352,
      "v": 99
    },
    {
      "midi": 53,
      "hit": false,
      "t": 51979.63135416678,
      "d": 155.7110416666692,
      "v": 77
    },
    {
      "midi": 59,
      "hit": false,
      "t": 51981.77416666678,
      "d": 149.9968749999971,
      "v": 76
    },
    {
      "midi": 63,
      "hit": false,
      "t": 52313.19583333334,
      "d": 174.9963541666657,
      "v": 102
    },
    {
      "midi": 62,
      "hit": false,
      "t": 52456.05,
      "d": 146.4255208333343,
      "v": 94
    },
    {
      "midi": 62,
      "hit": false,
      "t": 52652.47447916667,
      "d": 146.4255208333343,
      "v": 94
    },
    {
      "midi": 63,
      "hit": false,
      "t": 52790.32875,
      "d": 103.56927083333721,
      "v": 102
    },
    {
      "midi": 60,
      "hit": false,
      "t": 52793.185833333446,
      "d": 143.56843749999825,
      "v": 102
    },
    {
      "midi": 53,
      "hit": false,
      "t": 52798.90000000011,
      "d": 146.4255208333343,
      "v": 102
    },
    {
      "midi": 56,
      "hit": false,
      "t": 52800.32854166678,
      "d": 155.7110416666692,
      "v": 96
    },
    {
      "midi": 53,
      "hit": false,
      "t": 53138.178645833446,
      "d": 137.13999999999942,
      "v": 96
    },
    {
      "midi": 56,
      "hit": false,
      "t": 53138.178645833446,
      "d": 150.7111458333311,
      "v": 92
    },
    {
      "midi": 62,
      "hit": false,
      "t": 53141.75000000001,
      "d": 121.4260416666657,
      "v": 102
    },
    {
      "midi": 58,
      "hit": false,
      "t": 53821.73583333344,
      "d": 162.85374999999476,
      "v": 102
    },
    {
      "midi": 55,
      "hit": false,
      "t": 53827.450000000106,
      "d": 135.7114583333314,
      "v": 102
    },
    {
      "midi": 51,
      "hit": false,
      "t": 53827.450000000106,
      "d": 158.56812499999796,
      "v": 102
    },
    {
      "midi": 63,
      "hit": false,
      "t": 53850.30666666667,
      "d": 157.8538541666785,
      "v": 102
    },
    {
      "midi": 62,
      "hit": false,
      "t": 53861.020729166674,
      "d": 102.14072916666919,
      "v": 102
    },
    {
      "midi": 67,
      "hit": false,
      "t": 53861.020729166674,
      "d": 105.71208333333925,
      "v": 102
    },
    {
      "midi": 60,
      "hit": false,
      "t": 54366.72447916668,
      "d": 135.7114583333314,
      "v": 102
    },
    {
      "midi": 63,
      "hit": false,
      "t": 54511.007187500014,
      "d": 97.1408333333311,
      "v": 91
    },
    {
      "midi": 66,
      "hit": false,
      "t": 54711.717291666675,
      "d": 119.28322916666366,
      "v": 102
    },
    {
      "midi": 60,
      "hit": false,
      "t": 54738.145312500106,
      "d": 185.7104166666686,
      "v": 102
    },
    {
      "midi": 65,
      "hit": false,
      "t": 55056.710104166676,
      "d": 268.565833333334,
      "v": 102
    },
    {
      "midi": 63,
      "hit": false,
      "t": 55396.703020833345,
      "d": 125.71166666666977,
      "v": 102
    },
    {
      "midi": 60,
      "hit": false,
      "t": 55540.27145833335,
      "d": 149.9968749999971,
      "v": 102
    },
    {
      "midi": 55,
      "hit": false,
      "t": 55755.98125000001,
      "d": 135.7114583333314,
      "v": 88
    },
    {
      "midi": 58,
      "hit": false,
      "t": 55878.12156250001,
      "d": 235.70937499999854,
      "v": 102
    },
    {
      "midi": 60,
      "hit": false,
      "t": 56088.11718750001,
      "d": 474.99010416666715,
      "v": 102
    },
    {
      "midi": 51,
      "hit": false,
      "t": 56110.973854166776,
      "d": 157.85385416667123,
      "v": 99
    },
    {
      "midi": 60,
      "hit": false,
      "t": 56114.545208333446,
      "d": 154.28250000000116,
      "v": 102
    },
    {
      "midi": 84,
      "hit": false,
      "t": 56922.38552083334,
      "d": 176.42489583333372,
      "v": 102
    },
    {
      "midi": 79,
      "hit": false,
      "t": 57118.09572916667,
      "d": 114.28333333333285,
      "v": 102
    },
    {
      "midi": 75,
      "hit": false,
      "t": 57248.80729166667,
      "d": 216.42406250000204,
      "v": 99
    },
    {
      "midi": 72,
      "hit": false,
      "t": 57463.08854166667,
      "d": 134.28291666667064,
      "v": 82
    },
    {
      "midi": 82,
      "hit": false,
      "t": 57603.08562500001,
      "d": 238.5664583333346,
      "v": 102
    },
    {
      "midi": 80,
      "hit": false,
      "t": 57796.65302083334,
      "d": 157.13958333332994,
      "v": 102
    },
    {
      "midi": 75,
      "hit": false,
      "t": 57930.935937500006,
      "d": 201.42437500000233,
      "v": 97
    },
    {
      "midi": 71,
      "hit": false,
      "t": 58145.217187500006,
      "d": 135.7114583333314,
      "v": 75
    },
    {
      "midi": 70,
      "hit": false,
      "t": 58289.49989583334,
      "d": 273.5657291666721,
      "v": 102
    },
    {
      "midi": 68,
      "hit": false,
      "t": 58491.638541666674,
      "d": 154.99677083333518,
      "v": 78
    },
    {
      "midi": 67,
      "hit": false,
      "t": 58621.63583333334,
      "d": 264.28020833332994,
      "v": 86
    },
    {
      "midi": 65,
      "hit": false,
      "t": 58834.48854166667,
      "d": 127.14020833333052,
      "v": 70
    },
    {
      "midi": 63,
      "hit": false,
      "t": 58967.34291666667,
      "d": 145.7112500000003,
      "v": 92
    },
    {
      "midi": 55,
      "hit": false,
      "t": 59170.19583333334,
      "d": 269.99437500000204,
      "v": 102
    },
    {
      "midi": 57,
      "hit": false,
      "t": 59309.47864583334,
      "d": 203.5671874999971,
      "v": 94
    },
    {
      "midi": 59,
      "hit": false,
      "t": 59517.331458333334,
      "d": 114.28333333333285,
      "v": 83
    },
    {
      "midi": 60,
      "hit": false,
      "t": 59649.4715625,
      "d": 284.99406250000175,
      "v": 102
    },
    {
      "midi": 62,
      "hit": false,
      "t": 59854.46729166667,
      "d": 139.28281250000146,
      "v": 86
    },
    {
      "midi": 63,
      "hit": false,
      "t": 60009.4640625,
      "d": 212.13843749999796,
      "v": 81
    },
    {
      "midi": 65,
      "hit": false,
      "t": 60209.45989583334,
      "d": 102.14072916666191,
      "v": 77
    },
    {
      "midi": 63,
      "hit": false,
      "t": 60331.60020833333,
      "d": 139.28281250000146,
      "v": 102
    },
    {
      "midi": 67,
      "hit": false,
      "t": 60345.885624999995,
      "d": 154.99677083333518,
      "v": 102
    },
    {
      "midi": 63,
      "hit": false,
      "t": 60673.735937499994,
      "d": 189.2817708333314,
      "v": 102
    },
    {
      "midi": 67,
      "hit": false,
      "t": 60690.16416666666,
      "d": 167.85364583333285,
      "v": 102
    },
    {
      "midi": 62,
      "hit": false,
      "t": 60916.588020833326,
      "d": 171.42499999999563,
      "v": 102
    },
    {
      "midi": 66,
      "hit": false,
      "t": 60920.87364583332,
      "d": 203.5671874999971,
      "v": 101
    },
    {
      "midi": 67,
      "hit": false,
      "t": 61937.99531249999,
      "d": 142.85416666666424,
      "v": 102
    },
    {
      "midi": 72,
      "hit": false,
      "t": 62059.421354166654,
      "d": 72.1413541666625,
      "v": 88
    },
    {
      "midi": 75,
      "hit": false,
      "t": 62149.41947916665,
      "d": 96.42656249999709,
      "v": 83
    },
    {
      "midi": 79,
      "hit": false,
      "t": 62277.27395833332,
      "d": 118.56895833332965,
      "v": 75
    },
    {
      "midi": 51,
      "hit": false,
      "t": 62279.41677083345,
      "d": 49.998958333337214,
      "v": 64
    },
    {
      "midi": 58,
      "hit": false,
      "t": 62280.84531250012,
      "d": 30.71364583333343,
      "v": 57
    },
    {
      "midi": 62,
      "hit": false,
      "t": 62280.84531250012,
      "d": 32.142187500001455,
      "v": 52
    },
    {
      "midi": 77,
      "hit": false,
      "t": 62352.272395833315,
      "d": 187.85322916666337,
      "v": 102
    },
    {
      "midi": 75,
      "hit": false,
      "t": 62702.26510416665,
      "d": 171.4250000000029,
      "v": 102
    },
    {
      "midi": 58,
      "hit": false,
      "t": 62966.54531250012,
      "d": 41.42770833333634,
      "v": 60
    },
    {
      "midi": 62,
      "hit": false,
      "t": 62973.688020833455,
      "d": 40.71343750000233,
      "v": 59
    },
    {
      "midi": 77,
      "hit": false,
      "t": 63055.82916666665,
      "d": 196.42447916666424,
      "v": 102
    },
    {
      "midi": 75,
      "hit": false,
      "t": 63398.67916666665,
      "d": 232.13802083333576,
      "v": 102
    },
    {
      "midi": 77,
      "hit": false,
      "t": 63766.528645833314,
      "d": 214.28125,
      "v": 102
    },
    {
      "midi": 79,
      "hit": false,
      "t": 64023.66614583331,
      "d": 114.28333333333285,
      "v": 102
    },
    {
      "midi": 72,
      "hit": false,
      "t": 64341.51666666664,
      "d": 552.1313541666677,
      "v": 102
    },
    {
      "midi": 72,
      "hit": false,
      "t": 65002.21718749998,
      "d": 482.1328125,
      "v": 102
    },
    {
      "midi": 84,
      "hit": false,
      "t": 65006.50281249997,
      "d": 420.70552083333314,
      "v": 102
    },
    {
      "midi": 63,
      "hit": false,
      "t": 65365.06677083346,
      "d": 269.99437500000204,
      "v": 102
    },
    {
      "midi": 55,
      "hit": false,
      "t": 65366.49531250013,
      "d": 277.1370833333276,
      "v": 102
    },
    {
      "midi": 60,
      "hit": false,
      "t": 65374.35229166679,
      "d": 274.99427083333285,
      "v": 102
    },
    {
      "midi": 65,
      "hit": false,
      "t": 65706.48822916679,
      "d": 149.28260416667035,
      "v": 102
    },
    {
      "midi": 60,
      "hit": false,
      "t": 65709.34531250013,
      "d": 168.56791666666686,
      "v": 102
    },
    {
      "midi": 54,
      "hit": false,
      "t": 65715.0594791668,
      "d": 149.9968749999971,
      "v": 102
    },
    {
      "midi": 70,
      "hit": false,
      "t": 65830.77135416665,
      "d": 239.9950000000099,
      "v": 102
    },
    {
      "midi": 68,
      "hit": false,
      "t": 66025.76729166665,
      "d": 142.85416666667152,
      "v": 102
    },
    {
      "midi": 63,
      "hit": false,
      "t": 66164.33583333332,
      "d": 202.13864583334362,
      "v": 94
    },
    {
      "midi": 59,
      "hit": false,
      "t": 66360.76031249999,
      "d": 128.56875000000582,
      "v": 73
    },
    {
      "midi": 67,
      "hit": false,
      "t": 66511.47145833333,
      "d": 217.85260416667734,
      "v": 102
    },
    {
      "midi": 63,
      "hit": false,
      "t": 66707.8959375,
      "d": 119.28322916667094,
      "v": 102
    },
    {
      "midi": 59,
      "hit": false,
      "t": 66862.89270833334,
      "d": 269.99437499999476,
      "v": 101
    },
    {
      "midi": 55,
      "hit": false,
      "t": 67048.60312500001,
      "d": 118.56895833332965,
      "v": 73
    },
    {
      "midi": 62,
      "hit": false,
      "t": 67200.7428125,
      "d": 217.85260416667734,
      "v": 102
    },
    {
      "midi": 59,
      "hit": false,
      "t": 67398.59583333334,
      "d": 112.14052083333081,
      "v": 75
    },
    {
      "midi": 60,
      "hit": false,
      "t": 67530.73593750001,
      "d": 222.13822916666686,
      "v": 101
    },
    {
      "midi": 62,
      "hit": false,
      "t": 67740.01729166668,
      "d": 148.56833333332906,
      "v": 102
    },
    {
      "midi": 63,
      "hit": false,
      "t": 67763.5882291668,
      "d": 313.56489583333314,
      "v": 98
    },
    {
      "midi": 58,
      "hit": false,
      "t": 67765.01677083346,
      "d": 304.993645833325,
      "v": 89
    },
    {
      "midi": 55,
      "hit": false,
      "t": 67768.58812500013,
      "d": 294.99385416666337,
      "v": 102
    },
    {
      "midi": 60,
      "hit": false,
      "t": 67770.0166666668,
      "d": 298.56520833332615,
      "v": 102
    },
    {
      "midi": 61,
      "hit": false,
      "t": 67877.8715625,
      "d": 194.28166666667676,
      "v": 102
    },
    {
      "midi": 63,
      "hit": false,
      "t": 68075.01031250002,
      "d": 112.8547916666721,
      "v": 102
    },
    {
      "midi": 67,
      "hit": false,
      "t": 68227.15000000002,
      "d": 235.70937500000582,
      "v": 102
    },
    {
      "midi": 70,
      "hit": false,
      "t": 68420.71739583336,
      "d": 164.28229166667734,
      "v": 102
    },
    {
      "midi": 68,
      "hit": false,
      "t": 68575.7141666667,
      "d": 239.2807291666686,
      "v": 102
    },
    {
      "midi": 70,
      "hit": false,
      "t": 68766.4244791667,
      "d": 146.4255208333343,
      "v": 102
    },
    {
      "midi": 72,
      "hit": false,
      "t": 68902.13593750003,
      "d": 214.28125,
      "v": 102
    },
    {
      "midi": 75,
      "hit": false,
      "t": 69098.5604166667,
      "d": 167.85364583332557,
      "v": 102
    },
    {
      "midi": 63,
      "hit": false,
      "t": 69134.98822916679,
      "d": 127.85447916666453,
      "v": 73
    },
    {
      "midi": 59,
      "hit": false,
      "t": 69139.2738541668,
      "d": 119.99749999999767,
      "v": 84
    },
    {
      "midi": 53,
      "hit": false,
      "t": 69141.41666666679,
      "d": 112.8547916666721,
      "v": 79
    },
    {
      "midi": 73,
      "hit": false,
      "t": 69262.84270833337,
      "d": 217.8526041666628,
      "v": 102
    },
    {
      "midi": 75,
      "hit": false,
      "t": 69453.55302083337,
      "d": 119.99749999999767,
      "v": 102
    },
    {
      "midi": 77,
      "hit": false,
      "t": 69595.6929166667,
      "d": 195.71020833333023,
      "v": 102
    },
    {
      "midi": 80,
      "hit": false,
      "t": 69794.97447916669,
      "d": 130.71156250000058,
      "v": 77
    },
    {
      "midi": 51,
      "hit": false,
      "t": 69934.97156250013,
      "d": 127.85447916667908,
      "v": 92
    },
    {
      "midi": 62,
      "hit": false,
      "t": 69938.54291666679,
      "d": 117.14041666667617,
      "v": 98
    },
    {
      "midi": 58,
      "hit": false,
      "t": 69942.8285416668,
      "d": 130.71156250001513,
      "v": 89
    },
    {
      "midi": 79,
      "hit": false,
      "t": 69949.25697916669,
      "d": 369.2780208333279,
      "v": 86
    },
    {
      "midi": 62,
      "hit": false,
      "t": 70280.67864583347,
      "d": 126.42593750001106,
      "v": 98
    },
    {
      "midi": 51,
      "hit": false,
      "t": 70286.39281250014,
      "d": 127.1402083333378,
      "v": 93
    },
    {
      "midi": 58,
      "hit": false,
      "t": 70287.82135416681,
      "d": 141.4256250000035,
      "v": 89
    },
    {
      "midi": 79,
      "hit": false,
      "t": 70525.67354166668,
      "d": 72.85562499999651,
      "v": 98
    },
    {
      "midi": 86,
      "hit": false,
      "t": 70648.52812500001,
      "d": 89.28385416667152,
      "v": 102
    },
    {
      "midi": 87,
      "hit": false,
      "t": 70741.38333333335,
      "d": 94.99802083332906,
      "v": 102
    },
    {
      "midi": 86,
      "hit": false,
      "t": 70836.38135416668,
      "d": 90.71239583333954,
      "v": 101
    },
    {
      "midi": 84,
      "hit": false,
      "t": 70959.23593750001,
      "d": 210.7098958333372,
      "v": 102
    },
    {
      "midi": 79,
      "hit": false,
      "t": 71173.51718750001,
      "d": 57.141666666662786,
      "v": 102
    },
    {
      "midi": 77,
      "hit": false,
      "t": 71311.37145833333,
      "d": 197.85302083333954,
      "v": 102
    },
    {
      "midi": 75,
      "hit": false,
      "t": 71648.50729166667,
      "d": 184.28187500000058,
      "v": 102
    },
    {
      "midi": 84,
      "hit": false,
      "t": 71982.78604166667,
      "d": 183.56760416667385,
      "v": 102
    },
    {
      "midi": 77,
      "hit": false,
      "t": 71982.78604166667,
      "d": 212.13843750000524,
      "v": 102
    },
    {
      "midi": 75,
      "hit": false,
      "t": 72337.77864583334,
      "d": 124.99739583332848,
      "v": 102
    },
    {
      "midi": 78,
      "hit": false,
      "t": 72498.48958333334,
      "d": 82.1411458333314,
      "v": 102
    },
    {
      "midi": 84,
      "hit": false,
      "t": 72544.9171875,
      "d": 242.8520833333314,
      "v": 102
    },
    {
      "midi": 79,
      "hit": false,
      "t": 72544.9171875,
      "d": 264.2802083333372,
      "v": 102
    },
    {
      "midi": 55,
      "hit": false,
      "t": 72563.48822916682,
      "d": 49.284687499995925,
      "v": 102
    },
    {
      "midi": 60,
      "hit": false,
      "t": 72564.20250000014,
      "d": 105.71208333333198,
      "v": 102
    },
    {
      "midi": 58,
      "hit": false,
      "t": 72569.91666666682,
      "d": 124.99739583332848,
      "v": 102
    },
    {
      "midi": 63,
      "hit": false,
      "t": 72573.48802083348,
      "d": 108.56916666666802,
      "v": 102
    },
    {
      "midi": 69,
      "hit": false,
      "t": 73244.90260416668,
      "d": 155.71104166665464,
      "v": 102
    },
    {
      "midi": 72,
      "hit": false,
      "t": 73398.47083333334,
      "d": 424.99114583332266,
      "v": 102
    },
    {
      "midi": 79,
      "hit": false,
      "t": 73905.603125,
      "d": 134.28291666666337,
      "v": 102
    },
    {
      "midi": 68,
      "hit": false,
      "t": 74037.74322916666,
      "d": 257.1374999999971,
      "v": 102
    },
    {
      "midi": 77,
      "hit": false,
      "t": 74398.45,
      "d": 167.85364583334012,
      "v": 102
    },
    {
      "midi": 67,
      "hit": false,
      "t": 74612.73125,
      "d": 202.13864583332906,
      "v": 102
    },
    {
      "midi": 75,
      "hit": false,
      "t": 74966.29531249999,
      "d": 185.7104166666686,
      "v": 102
    },
    {
      "midi": 65,
      "hit": false,
      "t": 75277.00312499999,
      "d": 267.8515625,
      "v": 102
    },
    {
      "midi": 74,
      "hit": false,
      "t": 75630.56718749998,
      "d": 217.8526041666628,
      "v": 102
    },
    {
      "midi": 63,
      "hit": false,
      "t": 75979.13135416665,
      "d": 226.42385416667094,
      "v": 102
    },
    {
      "midi": 72,
      "hit": false,
      "t": 76312.69583333332,
      "d": 255.70895833332906,
      "v": 102
    },
    {
      "midi": 62,
      "hit": false,
      "t": 76651.97447916665,
      "d": 285.7083333333285,
      "v": 102
    },
    {
      "midi": 70,
      "hit": false,
      "t": 76994.82447916664,
      "d": 148.56833333334362,
      "v": 102
    },
    {
      "midi": 62,
      "hit": false,
      "t": 77121.96468749997,
      "d": 228.56666666668025,
      "v": 102
    },
    {
      "midi": 60,
      "hit": false,
      "t": 77343.38864583331,
      "d": 129.99729166667385,
      "v": 102
    },
    {
      "midi": 59,
      "hit": false,
      "t": 77482.67145833332,
      "d": 254.99468750000233,
      "v": 102
    },
    {
      "midi": 62,
      "hit": false,
      "t": 77687.66718749999,
      "d": 127.1402083333378,
      "v": 85
    },
    {
      "midi": 65,
      "hit": false,
      "t": 77814.80739583333,
      "d": 198.56729166666628,
      "v": 98
    },
    {
      "midi": 68,
      "hit": false,
      "t": 78009.08906249999,
      "d": 324.99322916667734,
      "v": 102
    },
    {
      "midi": 67,
      "hit": false,
      "t": 78143.37197916667,
      "d": 140.7113541666622,
      "v": 94
    },
    {
      "midi": 55,
      "hit": false,
      "t": 78393.36677083334,
      "d": 87.1410416666622,
      "v": 91
    },
    {
      "midi": 61,
      "hit": false,
      "t": 78498.36458333333,
      "d": 123.56885416667501,
      "v": 86
    },
    {
      "midi": 62,
      "hit": false,
      "t": 78601.93385416667,
      "d": 103.56927083333721,
      "v": 91
    },
    {
      "midi": 65,
      "hit": false,
      "t": 78701.93177083334,
      "d": 149.9968749999971,
      "v": 102
    },
    {
      "midi": 63,
      "hit": false,
      "t": 78821.92927083334,
      "d": 204.99572916666511,
      "v": 102
    },
    {
      "midi": 60,
      "hit": false,
      "t": 79035.49625,
      "d": 66.42718749999767,
      "v": 85
    },
    {
      "midi": 62,
      "hit": false,
      "t": 79173.35052083332,
      "d": 239.2807291666686,
      "v": 102
    },
    {
      "midi": 63,
      "hit": false,
      "t": 79376.91770833332,
      "d": 110.71197916667734,
      "v": 94
    },
    {
      "midi": 65,
      "hit": false,
      "t": 79537.62864583333,
      "d": 174.9963541666657,
      "v": 102
    },
    {
      "midi": 67,
      "hit": false,
      "t": 79734.053125,
      "d": 89.28385416667152,
      "v": 102
    },
    {
      "midi": 68,
      "hit": false,
      "t": 79876.90729166668,
      "d": 182.13906250000582,
      "v": 102
    },
    {
      "midi": 62,
      "hit": false,
      "t": 79880.47864583347,
      "d": 223.56677083333489,
      "v": 102
    },
    {
      "midi": 56,
      "hit": false,
      "t": 79885.4785416668,
      "d": 228.5666666666657,
      "v": 102
    },
    {
      "midi": 70,
      "hit": false,
      "t": 80080.47447916669,
      "d": 96.42656249999709,
      "v": 96
    },
    {
      "midi": 56,
      "hit": false,
      "t": 80220.47156250014,
      "d": 664.2718750000058,
      "v": 102
    },
    {
      "midi": 62,
      "hit": false,
      "t": 80221.90010416681,
      "d": 674.9859375000087,
      "v": 102
    },
    {
      "midi": 68,
      "hit": false,
      "t": 80226.90000000002,
      "d": 185.7104166666686,
      "v": 102
    },
    {
      "midi": 72,
      "hit": false,
      "t": 80426.89583333336,
      "d": 29.999374999999418,
      "v": 87
    },
    {
      "midi": 79,
      "hit": false,
      "t": 80566.17864583335,
      "d": 269.99437499999476,
      "v": 102
    },
    {
      "midi": 77,
      "hit": false,
      "t": 80793.31677083335,
      "d": 185.71041666665406,
      "v": 97
    },
    {
      "midi": 75,
      "hit": false,
      "t": 80936.1709375,
      "d": 210.70989583332266,
      "v": 102
    },
    {
      "midi": 70,
      "hit": false,
      "t": 81113.31010416667,
      "d": 114.28333333332557,
      "v": 96
    },
    {
      "midi": 69,
      "hit": false,
      "t": 81275.44958333332,
      "d": 196.42447916667152,
      "v": 102
    },
    {
      "midi": 68,
      "hit": false,
      "t": 81448.30312499999,
      "d": 119.99749999999767,
      "v": 75
    },
    {
      "midi": 67,
      "hit": false,
      "t": 81609.01406249999,
      "d": 157.1395833333372,
      "v": 102
    },
    {
      "midi": 63,
      "hit": false,
      "t": 81794.72447916666,
      "d": 111.42625000000407,
      "v": 96
    },
    {
      "midi": 58,
      "hit": false,
      "t": 81948.29270833333,
      "d": 219.99541666665755,
      "v": 96
    },
    {
      "midi": 55,
      "hit": false,
      "t": 82137.57447916667,
      "d": 64.28437499998836,
      "v": 87
    },
    {
      "midi": 62,
      "hit": false,
      "t": 82291.14270833333,
      "d": 357.13541666665697,
      "v": 102
    },
    {
      "midi": 59,
      "hit": false,
      "t": 82293.28552083332,
      "d": 197.85302083333954,
      "v": 102
    },
    {
      "midi": 60,
      "hit": false,
      "t": 82478.28166666682,
      "d": 74.99843749999127,
      "v": 89
    },
    {
      "midi": 55,
      "hit": false,
      "t": 82484.71010416682,
      "d": 89.28385416665697,
      "v": 94
    },
    {
      "midi": 50,
      "hit": false,
      "t": 82485.42437500015,
      "d": 96.42656249999709,
      "v": 85
    },
    {
      "midi": 63,
      "hit": false,
      "t": 82611.13604166666,
      "d": 103.56927083332266,
      "v": 102
    },
    {
      "midi": 60,
      "hit": false,
      "t": 82616.13593749999,
      "d": 89.28385416665697,
      "v": 99
    },
    {
      "midi": 50,
      "hit": false,
      "t": 82828.27437500014,
      "d": 103.56927083332266,
      "v": 95
    },
    {
      "midi": 55,
      "hit": false,
      "t": 82832.56000000014,
      "d": 77.85552083332732,
      "v": 97
    },
    {
      "midi": 60,
      "hit": false,
      "t": 82837.55989583347,
      "d": 90.71239583332499,
      "v": 95
    },
    {
      "midi": 66,
      "hit": false,
      "t": 82966.12864583332,
      "d": 274.9942708333401,
      "v": 102
    },
    {
      "midi": 62,
      "hit": false,
      "t": 82966.12864583332,
      "d": 349.9927083333314,
      "v": 102
    },
    {
      "midi": 63,
      "hit": false,
      "t": 83283.97916666666,
      "d": 71.42708333332848,
      "v": 102
    },
    {
      "midi": 67,
      "hit": false,
      "t": 83286.12197916665,
      "d": 83.56968749999942,
      "v": 102
    },
    {
      "midi": 53,
      "hit": false,
      "t": 83535.40250000013,
      "d": 787.8407291666808,
      "v": 101
    },
    {
      "midi": 63,
      "hit": false,
      "t": 83541.1166666668,
      "d": 853.5536458333372,
      "v": 102
    },
    {
      "midi": 59,
      "hit": false,
      "t": 83545.4022916668,
      "d": 857.125,
      "v": 102
    },
    {
      "midi": 70,
      "hit": false,
      "t": 83658.97135416666,
      "d": 324.9932291666628,
      "v": 102
    },
    {
      "midi": 67,
      "hit": false,
      "t": 83664.68552083333,
      "d": 344.2785416666593,
      "v": 102
    },
    {
      "midi": 68,
      "hit": false,
      "t": 83964.67927083332,
      "d": 174.99635416665114,
      "v": 102
    },
    {
      "midi": 72,
      "hit": false,
      "t": 83969.67916666665,
      "d": 139.28281249999418,
      "v": 102
    },
    {
      "midi": 70,
      "hit": false,
      "t": 84182.53187499997,
      "d": 679.9858333333395,
      "v": 102
    },
    {
      "midi": 73,
      "hit": false,
      "t": 84183.96041666664,
      "d": 735.6989583333343,
      "v": 102
    },
    {
      "midi": 59,
      "hit": false,
      "t": 84566.09531250014,
      "d": 157.85385416666395,
      "v": 97
    },
    {
      "midi": 63,
      "hit": false,
      "t": 84569.6666666668,
      "d": 139.28281249999418,
      "v": 102
    },
    {
      "midi": 53,
      "hit": false,
      "t": 84569.6666666668,
      "d": 164.2822916666628,
      "v": 102
    },
    {
      "midi": 58,
      "hit": false,
      "t": 84908.94531250013,
      "d": 664.2718749999913,
      "v": 94
    },
    {
      "midi": 52,
      "hit": false,
      "t": 84909.65958333346,
      "d": 646.4151041666628,
      "v": 84
    },
    {
      "midi": 56,
      "hit": false,
      "t": 84912.5166666668,
      "d": 653.5578124999884,
      "v": 66
    },
    {
      "midi": 63,
      "hit": false,
      "t": 84912.5166666668,
      "d": 653.5578124999884,
      "v": 84
    },
    {
      "midi": 70,
      "hit": false,
      "t": 85023.22864583331,
      "d": 260.7088541666744,
      "v": 102
    },
    {
      "midi": 73,
      "hit": false,
      "t": 85023.22864583331,
      "d": 355.7068750000035,
      "v": 102
    },
    {
      "midi": 69,
      "hit": false,
      "t": 85208.93906249998,
      "d": 105.71208333333198,
      "v": 102
    },
    {
      "midi": 68,
      "hit": false,
      "t": 85350.36468749998,
      "d": 219.2811458333308,
      "v": 102
    },
    {
      "midi": 67,
      "hit": false,
      "t": 85551.78906249999,
      "d": 152.13968749999185,
      "v": 102
    },
    {
      "midi": 66,
      "hit": false,
      "t": 85714.64281249998,
      "d": 212.1384374999907,
      "v": 102
    },
    {
      "midi": 65,
      "hit": false,
      "t": 85894.63906249998,
      "d": 142.85416666665697,
      "v": 102
    },
    {
      "midi": 64,
      "hit": false,
      "t": 86053.9214583333,
      "d": 204.99572916666511,
      "v": 102
    },
    {
      "midi": 67,
      "hit": false,
      "t": 86241.06041666663,
      "d": 139.28281249999418,
      "v": 102
    },
    {
      "midi": 65,
      "hit": false,
      "t": 86398.19999999995,
      "d": 196.42447916667152,
      "v": 102
    },
    {
      "midi": 60,
      "hit": false,
      "t": 86593.19593749996,
      "d": 44.284791666665114,
      "v": 75
    },
    {
      "midi": 65,
      "hit": false,
      "t": 86728.90739583329,
      "d": 240.70927083333663,
      "v": 102
    },
    {
      "midi": 67,
      "hit": false,
      "t": 86921.04624999996,
      "d": 128.56875000000582,
      "v": 102
    },
    {
      "midi": 68,
      "hit": false,
      "t": 87094.61406249997,
      "d": 244.99489583332615,
      "v": 102
    },
    {
      "midi": 70,
      "hit": false,
      "t": 87274.61031249996,
      "d": 135.7114583333314,
      "v": 102
    },
    {
      "midi": 72,
      "hit": false,
      "t": 87451.74947916662,
      "d": 449.9906250000058,
      "v": 102
    },
    {
      "midi": 50,
      "hit": false,
      "t": 87652.45958333346,
      "d": 308.5650000000023,
      "v": 102
    },
    {
      "midi": 60,
      "hit": false,
      "t": 87656.03093750012,
      "d": 306.42218750000757,
      "v": 102
    },
    {
      "midi": 65,
      "hit": false,
      "t": 87956.7389583333,
      "d": 112.8547916666721,
      "v": 102
    },
    {
      "midi": 68,
      "hit": false,
      "t": 88101.73593749997,
      "d": 230.70947916666046,
      "v": 102
    },
    {
      "midi": 70,
      "hit": false,
      "t": 88300.30322916663,
      "d": 126.42593749999651,
      "v": 102
    },
    {
      "midi": 72,
      "hit": false,
      "t": 88444.58593749996,
      "d": 202.13864583332906,
      "v": 102
    },
    {
      "midi": 77,
      "hit": false,
      "t": 88644.58177083329,
      "d": 114.28333333332557,
      "v": 102
    },
    {
      "midi": 54,
      "hit": false,
      "t": 88677.4382291668,
      "d": 217.85260416667734,
      "v": 102
    },
    {
      "midi": 60,
      "hit": false,
      "t": 88681.00958333346,
      "d": 207.13854166667443,
      "v": 102
    },
    {
      "midi": 65,
      "hit": false,
      "t": 88687.43802083346,
      "d": 196.42447916667152,
      "v": 102
    },
    {
      "midi": 82,
      "hit": false,
      "t": 88794.57864583329,
      "d": 217.8526041666628,
      "v": 102
    },
    {
      "midi": 80,
      "hit": false,
      "t": 88983.86041666662,
      "d": 121.4260416666657,
      "v": 102
    },
    {
      "midi": 53,
      "hit": false,
      "t": 89026.7166666668,
      "d": 433.5623958333308,
      "v": 102
    },
    {
      "midi": 64,
      "hit": false,
      "t": 89026.7166666668,
      "d": 464.27604166665697,
      "v": 99
    },
    {
      "midi": 59,
      "hit": false,
      "t": 89031.00229166681,
      "d": 417.8484374999971,
      "v": 102
    },
    {
      "midi": 79,
      "hit": false,
      "t": 89137.42864583328,
      "d": 627.1297916666663,
      "v": 99
    },
    {
      "midi": 65,
      "hit": false,
      "t": 89710.98812500013,
      "d": 655.7006249999977,
      "v": 102
    },
    {
      "midi": 60,
      "hit": false,
      "t": 89712.4166666668,
      "d": 649.9864583333256,
      "v": 102
    },
    {
      "midi": 54,
      "hit": false,
      "t": 89715.98802083347,
      "d": 753.5557291666773,
      "v": 102
    },
    {
      "midi": 91,
      "hit": false,
      "t": 90069.55208333328,
      "d": 124.99739583332848,
      "v": 102
    },
    {
      "midi": 87,
      "hit": false,
      "t": 90180.26406249995,
      "d": 107.140625,
      "v": 102
    },
    {
      "midi": 83,
      "hit": false,
      "t": 90305.26145833328,
      "d": 71.42708333332848,
      "v": 102
    },
    {
      "midi": 53,
      "hit": false,
      "t": 90373.11718750013,
      "d": 1171.4041666666744,
      "v": 102
    },
    {
      "midi": 63,
      "hit": false,
      "t": 90373.11718750013,
      "d": 1225.6887500000012,
      "v": 99
    },
    {
      "midi": 59,
      "hit": false,
      "t": 90378.8313541668,
      "d": 1155.6902083333407,
      "v": 99
    },
    {
      "midi": 79,
      "hit": false,
      "t": 90421.68760416661,
      "d": 104.99781249999069,
      "v": 66
    },
    {
      "midi": 89,
      "hit": false,
      "t": 90507.4001041666,
      "d": 126.42593749999651,
      "v": 102
    },
    {
      "midi": 89,
      "hit": false,
      "t": 90760.96624999994,
      "d": 90.71239583333954,
      "v": 102
    },
    {
      "midi": 85,
      "hit": false,
      "t": 90865.96406249994,
      "d": 110.71197916667734,
      "v": 102
    },
    {
      "midi": 80,
      "hit": false,
      "t": 90964.53343749995,
      "d": 97.85510416666511,
      "v": 102
    },
    {
      "midi": 77,
      "hit": false,
      "t": 91065.95989583328,
      "d": 32.14218749999418,
      "v": 102
    },
    {
      "midi": 73,
      "hit": false,
      "t": 91175.24333333327,
      "d": 208.56708333334245,
      "v": 102
    },
    {
      "midi": 68,
      "hit": false,
      "t": 91373.09635416661,
      "d": 157.1395833333372,
      "v": 102
    },
    {
      "midi": 65,
      "hit": false,
      "t": 91512.37916666662,
      "d": 228.5666666666657,
      "v": 102
    },
    {
      "midi": 66,
      "hit": false,
      "t": 91726.66041666662,
      "d": 135.7114583333314,
      "v": 102
    },
    {
      "midi": 55,
      "hit": false,
      "t": 91763.0882291668,
      "d": 727.8419791666674,
      "v": 97
    },
    {
      "midi": 63,
      "hit": false,
      "t": 91769.5166666668,
      "d": 759.2698958333349,
      "v": 91
    },
    {
      "midi": 60,
      "hit": false,
      "t": 91769.5166666668,
      "d": 790.6978125000023,
      "v": 101
    },
    {
      "midi": 58,
      "hit": false,
      "t": 91773.08802083346,
      "d": 780.6980208333407,
      "v": 83
    },
    {
      "midi": 67,
      "hit": false,
      "t": 91864.51468749995,
      "d": 19.285312499996508,
      "v": 102
    },
    {
      "midi": 67,
      "hit": false,
      "t": 91883.79999999994,
      "d": 499.9895833333285,
      "v": 102
    },
    {
      "midi": 72,
      "hit": false,
      "t": 92443.07406249995,
      "d": 746.4130208333372,
      "v": 102
    },
    {
      "midi": 53,
      "hit": false,
      "t": 92794.49531250013,
      "d": 86.42677083332092,
      "v": 94
    },
    {
      "midi": 61,
      "hit": false,
      "t": 92796.63812500013,
      "d": 102.14072916665464,
      "v": 93
    },
    {
      "midi": 60,
      "hit": false,
      "t": 93141.63093750011,
      "d": 117.14041666666162,
      "v": 98
    },
    {
      "midi": 51,
      "hit": false,
      "t": 93145.20229166678,
      "d": 122.14031249999243,
      "v": 91
    },
    {
      "midi": 69,
      "hit": false,
      "t": 93269.48541666662,
      "d": 241.42354166667792,
      "v": 102
    },
    {
      "midi": 72,
      "hit": false,
      "t": 93475.19541666663,
      "d": 122.85458333333372,
      "v": 100
    },
    {
      "midi": 69,
      "hit": false,
      "t": 93612.33541666662,
      "d": 173.56781249999767,
      "v": 101
    },
    {
      "midi": 70,
      "hit": false,
      "t": 93791.6173958333,
      "d": 117.14041666666162,
      "v": 93
    },
    {
      "midi": 71,
      "hit": false,
      "t": 93948.04270833329,
      "d": 217.8526041666628,
      "v": 95
    },
    {
      "midi": 74,
      "hit": false,
      "t": 94139.46729166662,
      "d": 122.85458333333372,
      "v": 90
    },
    {
      "midi": 77,
      "hit": false,
      "t": 94278.75010416661,
      "d": 208.56708333334245,
      "v": 95
    },
    {
      "midi": 80,
      "hit": false,
      "t": 94480.17447916661,
      "d": 216.4240625000093,
      "v": 102
    },
    {
      "midi": 79,
      "hit": false,
      "t": 94615.88593749996,
      "d": 205.70999999999185,
      "v": 102
    },
    {
      "midi": 75,
      "hit": false,
      "t": 94821.59593749995,
      "d": 119.28322916667094,
      "v": 96
    },
    {
      "midi": 72,
      "hit": false,
      "t": 94957.30739583328,
      "d": 128.56875000000582,
      "v": 96
    },
    {
      "midi": 77,
      "hit": false,
      "t": 95194.44531249996,
      "d": 114.28333333334012,
      "v": 102
    },
    {
      "midi": 74,
      "hit": false,
      "t": 95308.7286458333,
      "d": 85.71249999999418,
      "v": 102
    },
    {
      "midi": 70,
      "hit": false,
      "t": 95403.72666666663,
      "d": 89.28385416667152,
      "v": 95
    },
    {
      "midi": 67,
      "hit": false,
      "t": 95537.29531249996,
      "d": 74.99843750000582,
      "v": 87
    },
    {
      "midi": 75,
      "hit": false,
      "t": 95655.14999999997,
      "d": 119.99749999999767,
      "v": 102
    },
    {
      "midi": 72,
      "hit": false,
      "t": 95780.1473958333,
      "d": 82.1411458333314,
      "v": 91
    },
    {
      "midi": 69,
      "hit": false,
      "t": 95876.57395833329,
      "d": 78.5697916666686,
      "v": 90
    },
    {
      "midi": 66,
      "hit": false,
      "t": 95973.00052083329,
      "d": 99.99791666665988,
      "v": 102
    },
    {
      "midi": 65,
      "hit": false,
      "t": 96255.13749999995,
      "d": 172.85354166667094,
      "v": 102
    },
    {
      "midi": 69,
      "hit": false,
      "t": 96352.99260416662,
      "d": 107.85489583334129,
      "v": 101
    },
    {
      "midi": 72,
      "hit": false,
      "t": 96457.2761458333,
      "d": 108.56916666666802,
      "v": 99
    },
    {
      "midi": 75,
      "hit": false,
      "t": 96572.9880208333,
      "d": 100.71218750000116,
      "v": 91
    },
    {
      "midi": 73,
      "hit": false,
      "t": 96696.55687499998,
      "d": 312.1363541666651,
      "v": 102
    },
    {
      "midi": 61,
      "hit": false,
      "t": 97237.25989583331,
      "d": 128.56874999999127,
      "v": 102
    },
    {
      "midi": 60,
      "hit": false,
      "t": 97357.25739583331,
      "d": 208.5670833333279,
      "v": 102
    },
    {
      "midi": 60,
      "hit": false,
      "t": 97696.53604166664,
      "d": 128.56875000000582,
      "v": 102
    },
    {
      "midi": 63,
      "hit": false,
      "t": 98033.67187499997,
      "d": 202.13864583332906,
      "v": 102
    },
    {
      "midi": 75,
      "hit": false,
      "t": 98037.24322916663,
      "d": 191.42458333332615,
      "v": 102
    },
    {
      "midi": 63,
      "hit": false,
      "t": 98382.23604166663,
      "d": 132.1401041666686,
      "v": 102
    },
    {
      "midi": 75,
      "hit": false,
      "t": 98383.6645833333,
      "d": 153.56822916667443,
      "v": 102
    },
    {
      "midi": 60,
      "hit": false,
      "t": 98621.51677083343,
      "d": 94.28375000000233,
      "v": 102
    },
    {
      "midi": 50,
      "hit": false,
      "t": 98622.9453125001,
      "d": 79.99833333333663,
      "v": 102
    },
    {
      "midi": 65,
      "hit": false,
      "t": 98726.51458333331,
      "d": 169.99645833333489,
      "v": 102
    },
    {
      "midi": 77,
      "hit": false,
      "t": 98726.51458333331,
      "d": 184.28187500000058,
      "v": 102
    },
    {
      "midi": 65,
      "hit": false,
      "t": 98962.93822916677,
      "d": 53.5703125,
      "v": 92
    },
    {
      "midi": 54,
      "hit": false,
      "t": 98962.93822916677,
      "d": 71.42708333334303,
      "v": 80
    },
    {
      "midi": 60,
      "hit": false,
      "t": 98967.9381250001,
      "d": 51.42750000000524,
      "v": 77
    },
    {
      "midi": 77,
      "hit": false,
      "t": 99083.64999999998,
      "d": 148.56833333332906,
      "v": 102
    },
    {
      "midi": 65,
      "hit": false,
      "t": 99085.79281249997,
      "d": 108.56916666666802,
      "v": 102
    },
    {
      "midi": 54,
      "hit": false,
      "t": 99307.21677083345,
      "d": 83.56968750001397,
      "v": 94
    },
    {
      "midi": 60,
      "hit": false,
      "t": 99308.64531250011,
      "d": 87.14104166667676,
      "v": 92
    },
    {
      "midi": 65,
      "hit": false,
      "t": 99312.93093750012,
      "d": 70.71281250000175,
      "v": 99
    },
    {
      "midi": 82,
      "hit": false,
      "t": 99415.78593749998,
      "d": 144.99697916666628,
      "v": 102
    },
    {
      "midi": 70,
      "hit": false,
      "t": 99415.78593749998,
      "d": 152.1396875000064,
      "v": 102
    },
    {
      "midi": 59,
      "hit": false,
      "t": 99650.06677083345,
      "d": 48.57041666666919,
      "v": 86
    },
    {
      "midi": 53,
      "hit": false,
      "t": 99651.49531250012,
      "d": 83.56968749999942,
      "v": 92
    },
    {
      "midi": 63,
      "hit": false,
      "t": 99659.35229166679,
      "d": 78.5697916666686,
      "v": 87
    },
    {
      "midi": 82,
      "hit": false,
      "t": 99747.92187499999,
      "d": 78.5697916666686,
      "v": 102
    },
    {
      "midi": 70,
      "hit": false,
      "t": 99751.49322916665,
      "d": 116.42614583333489,
      "v": 102
    },
    {
      "midi": 63,
      "hit": false,
      "t": 99995.05958333345,
      "d": 95.71229166667035,
      "v": 78
    },
    {
      "midi": 59,
      "hit": false,
      "t": 99995.77385416678,
      "d": 91.42666666668083,
      "v": 97
    },
    {
      "midi": 65,
      "hit": false,
      "t": 100000.05947916678,
      "d": 64.28437500000291,
      "v": 60
    },
    {
      "midi": 73,
      "hit": false,
      "t": 100076.48645833331,
      "d": 52.14177083331742,
      "v": 102
    },
    {
      "midi": 77,
      "hit": false,
      "t": 100094.34322916664,
      "d": 962.8370833333174,
      "v": 102
    },
    {
      "midi": 74,
      "hit": false,
      "t": 100096.48604166663,
      "d": 354.9926041666622,
      "v": 102
    },
    {
      "midi": 70,
      "hit": false,
      "t": 100435.76468749996,
      "d": 246.42343750000873,
      "v": 102
    },
    {
      "midi": 67,
      "hit": false,
      "t": 100657.1886458333,
      "d": 96.42656249999709,
      "v": 102
    },
    {
      "midi": 72,
      "hit": false,
      "t": 100785.7573958333,
      "d": 128.56875000000582,
      "v": 102
    },
    {
      "midi": 74,
      "hit": false,
      "t": 101014.32406249996,
      "d": 1358.5431249999965,
      "v": 102
    },
    {
      "midi": 63,
      "hit": false,
      "t": 101025.03812500012,
      "d": 85.71249999999418,
      "v": 97
    },
    {
      "midi": 60,
      "hit": false,
      "t": 101026.46666666679,
      "d": 47.8561458333279,
      "v": 102
    },
    {
      "midi": 55,
      "hit": false,
      "t": 101027.89520833346,
      "d": 48.57041666665464,
      "v": 102
    },
    {
      "midi": 58,
      "hit": false,
      "t": 101027.89520833346,
      "d": 91.42666666665173,
      "v": 95
    },
    {
      "midi": 54,
      "hit": false,
      "t": 101480.02864583344,
      "d": 369.27802083334245,
      "v": 102
    },
    {
      "midi": 65,
      "hit": false,
      "t": 101482.17145833344,
      "d": 352.1355208333407,
      "v": 102
    },
    {
      "midi": 60,
      "hit": false,
      "t": 101485.02854166678,
      "d": 366.4209375000064,
      "v": 102
    },
    {
      "midi": 59,
      "hit": false,
      "t": 102049.30250000012,
      "d": 480.7042708333465,
      "v": 102
    },
    {
      "midi": 53,
      "hit": false,
      "t": 102053.58812500013,
      "d": 571.4166666666861,
      "v": 102
    },
    {
      "midi": 63,
      "hit": false,
      "t": 102059.3022916668,
      "d": 531.4175000000105,
      "v": 102
    },
    {
      "midi": 62,
      "hit": false,
      "t": 102734.2882291668,
      "d": 886.4101041666581,
      "v": 102
    },
    {
      "midi": 51,
      "hit": false,
      "t": 102740.7166666668,
      "d": 885.6958333333314,
      "v": 102
    },
    {
      "midi": 58,
      "hit": false,
      "t": 102744.28802083347,
      "d": 889.2671875000087,
      "v": 102
    },
    {
      "midi": 74,
      "hit": false,
      "t": 102904.9989583333,
      "d": 129.99729166667385,
      "v": 102
    },
    {
      "midi": 77,
      "hit": false,
      "t": 103067.8527083333,
      "d": 104.99781250000524,
      "v": 102
    },
    {
      "midi": 75,
      "hit": false,
      "t": 103226.42083333331,
      "d": 151.42541666666511,
      "v": 102
    },
    {
      "midi": 69,
      "hit": false,
      "t": 103464.27302083331,
      "d": 152.85395833333314,
      "v": 102
    },
    {
      "midi": 77,
      "hit": false,
      "t": 103739.26729166665,
      "d": 152.85395833333314,
      "v": 102
    },
    {
      "midi": 75,
      "hit": false,
      "t": 103912.12083333332,
      "d": 247.8519791666622,
      "v": 102
    },
    {
      "midi": 68,
      "hit": false,
      "t": 104090.68854166665,
      "d": 158.56812500000524,
      "v": 102
    },
    {
      "midi": 77,
      "hit": false,
      "t": 104447.82395833332,
      "d": 212.13843750000524,
      "v": 102
    },
    {
      "midi": 75,
      "hit": false,
      "t": 104604.96354166666,
      "d": 144.28270833333954,
      "v": 102
    },
    {
      "midi": 67,
      "hit": false,
      "t": 104801.38802083333,
      "d": 162.13947916666802,
      "v": 102
    },
    {
      "midi": 77,
      "hit": false,
      "t": 105171.3803125,
      "d": 195.71020833333023,
      "v": 102
    },
    {
      "midi": 75,
      "hit": false,
      "t": 105319.234375,
      "d": 122.85458333333372,
      "v": 102
    },
    {
      "midi": 65,
      "hit": false,
      "t": 105539.22979166667,
      "d": 139.28281249999418,
      "v": 102
    },
    {
      "midi": 77,
      "hit": false,
      "t": 105851.36614583334,
      "d": 144.28270833333954,
      "v": 102
    },
    {
      "midi": 75,
      "hit": false,
      "t": 105967.79229166667,
      "d": 237.85218750000058,
      "v": 102
    },
    {
      "midi": 74,
      "hit": false,
      "t": 106321.35635416667,
      "d": 205.7100000000064,
      "v": 102
    },
    {
      "midi": 70,
      "hit": false,
      "t": 106494.20989583334,
      "d": 160.7109375,
      "v": 102
    },
    {
      "midi": 67,
      "hit": false,
      "t": 106642.77822916667,
      "d": 187.13895833333663,
      "v": 102
    },
    {
      "midi": 63,
      "hit": false,
      "t": 106835.63135416668,
      "d": 141.4256250000035,
      "v": 102
    },
    {
      "midi": 65,
      "hit": false,
      "t": 106962.77156250014,
      "d": 452.8477083333273,
      "v": 102
    },
    {
      "midi": 58,
      "hit": false,
      "t": 106962.77156250014,
      "d": 602.8445833333244,
      "v": 95
    },
    {
      "midi": 54,
      "hit": false,
      "t": 106965.62864583348,
      "d": 562.1311458333221,
      "v": 94
    },
    {
      "midi": 62,
      "hit": false,
      "t": 106969.20000000001,
      "d": 211.42416666666395,
      "v": 102
    },
    {
      "midi": 60,
      "hit": false,
      "t": 106969.20000000014,
      "d": 490.7040624999936,
      "v": 102
    },
    {
      "midi": 65,
      "hit": false,
      "t": 107162.053125,
      "d": 162.8537500000093,
      "v": 102
    },
    {
      "midi": 70,
      "hit": false,
      "t": 107310.62145833335,
      "d": 228.5666666666657,
      "v": 102
    },
    {
      "midi": 68,
      "hit": false,
      "t": 107504.90312500001,
      "d": 139.28281250000873,
      "v": 102
    },
    {
      "midi": 59,
      "hit": false,
      "t": 107649.9001041668,
      "d": 615.7014583333366,
      "v": 102
    },
    {
      "midi": 63,
      "hit": false,
      "t": 107652.75718750013,
      "d": 634.9867708333331,
      "v": 90
    },
    {
      "midi": 63,
      "hit": false,
      "t": 107654.90000000002,
      "d": 187.85322916666337,
      "v": 102
    },
    {
      "midi": 53,
      "hit": false,
      "t": 107654.90000000013,
      "d": 610.7015625000058,
      "v": 100
    },
    {
      "midi": 59,
      "hit": false,
      "t": 107847.75312500002,
      "d": 157.1395833333372,
      "v": 102
    },
    {
      "midi": 58,
      "hit": false,
      "t": 107984.17885416669,
      "d": 220.70968749999884,
      "v": 102
    },
    {
      "midi": 56,
      "hit": false,
      "t": 108171.31781250003,
      "d": 140.7113541666622,
      "v": 96
    },
    {
      "midi": 55,
      "hit": false,
      "t": 108337.02864583336,
      "d": 584.2735416666692,
      "v": 97
    },
    {
      "midi": 55,
      "hit": false,
      "t": 109037.01406250002,
      "d": 423.5626041666692,
      "v": 94
    },
    {
      "midi": 41,
      "hit": false,
      "t": 109935.56677083347,
      "d": 87.1410416666622,
      "v": 102
    },
    {
      "midi": 53,
      "hit": false,
      "t": 109940.5666666668,
      "d": 85.71249999999418,
      "v": 102
    },
    {
      "midi": 48,
      "hit": false,
      "t": 109941.28093750012,
      "d": 74.28416666666453,
      "v": 102
    },
    {
      "midi": 46,
      "hit": false,
      "t": 110033.42187500003,
      "d": 107.140625,
      "v": 88
    },
    {
      "midi": 51,
      "hit": false,
      "t": 110151.27656250003,
      "d": 100.71218750000116,
      "v": 90
    },
    {
      "midi": 55,
      "hit": false,
      "t": 110272.7026041667,
      "d": 50.71322916666395,
      "v": 83
    },
    {
      "midi": 58,
      "hit": false,
      "t": 110383.41458333336,
      "d": 266.423020833332,
      "v": 102
    },
    {
      "midi": 56,
      "hit": false,
      "t": 110614.12406250002,
      "d": 472.8472916666651,
      "v": 102
    },
    {
      "midi": 55,
      "hit": false,
      "t": 111176.25520833336,
      "d": 89.99812499999825,
      "v": 102
    },
    {
      "midi": 56,
      "hit": false,
      "t": 111265.53906250003,
      "d": 172.85354166665638,
      "v": 102
    },
    {
      "midi": 55,
      "hit": false,
      "t": 111335.53760416669,
      "d": 82.1411458333314,
      "v": 102
    },
    {
      "midi": 54,
      "hit": false,
      "t": 111408.39322916669,
      "d": 147.85406250000233,
      "v": 102
    },
    {
      "midi": 55,
      "hit": false,
      "t": 111619.10312500002,
      "d": 132.1401041666686,
      "v": 102
    },
    {
      "midi": 57,
      "hit": false,
      "t": 111779.81406250002,
      "d": 178.56770833332848,
      "v": 102
    },
    {
      "midi": 59,
      "hit": false,
      "t": 111979.80989583336,
      "d": 112.8547916666721,
      "v": 91
    },
    {
      "midi": 60,
      "hit": false,
      "t": 112106.9501041667,
      "d": 226.42385416667094,
      "v": 102
    },
    {
      "midi": 62,
      "hit": false,
      "t": 112326.23125000003,
      "d": 139.28281250000873,
      "v": 99
    },
    {
      "midi": 65,
      "hit": false,
      "t": 112442.65739583336,
      "d": 374.27791666667326,
      "v": 102
    },
    {
      "midi": 64,
      "hit": false,
      "t": 112751.22239583336,
      "d": 94.99802083334362,
      "v": 102
    },
    {
      "midi": 63,
      "hit": false,
      "t": 112851.93458333338,
      "d": 113.56906249999884,
      "v": 98
    },
    {
      "midi": 62,
      "hit": false,
      "t": 112939.07562500004,
      "d": 115.71187500000815,
      "v": 102
    },
    {
      "midi": 60,
      "hit": false,
      "t": 113034.78791666671,
      "d": 232.13802083334303,
      "v": 102
    },
    {
      "midi": 48,
      "hit": false,
      "t": 113709.7738541668,
      "d": 98.5693750000064,
      "v": 102
    },
    {
      "midi": 51,
      "hit": false,
      "t": 113714.0594791668,
      "d": 102.14072916666919,
      "v": 102
    },
    {
      "midi": 60,
      "hit": false,
      "t": 114049.76677083339,
      "d": 60.71302083332557,
      "v": 102
    },
    {
      "midi": 72,
      "hit": false,
      "t": 114054.76666666672,
      "d": 104.28354166666395,
      "v": 102
    },
    {
      "midi": 63,
      "hit": false,
      "t": 114419.04479166672,
      "d": 114.99760416666686,
      "v": 102
    },
    {
      "midi": 75,
      "hit": false,
      "t": 114419.04479166672,
      "d": 155.7110416666692,
      "v": 102
    },
    {
      "midi": 65,
      "hit": false,
      "t": 114758.32343750006,
      "d": 87.85531250000349,
      "v": 102
    },
    {
      "midi": 77,
      "hit": false,
      "t": 114758.32343750006,
      "d": 109.28343750000931,
      "v": 102
    },
    {
      "midi": 66,
      "hit": false,
      "t": 115092.60218750007,
      "d": 504.98947916667385,
      "v": 102
    },
    {
      "midi": 78,
      "hit": false,
      "t": 115094.03072916674,
      "d": 437.8480208333349,
      "v": 102
    },
    {
      "midi": 63,
      "hit": false,
      "t": 115419.7382291668,
      "d": 79.28406249999534,
      "v": 85
    },
    {
      "midi": 58,
      "hit": false,
      "t": 115423.30958333347,
      "d": 77.85552083332732,
      "v": 78
    },
    {
      "midi": 60,
      "hit": false,
      "t": 115428.3094791668,
      "d": 48.57041666666919,
      "v": 80
    },
    {
      "midi": 77,
      "hit": false,
      "t": 115526.1645833334,
      "d": 159.28239583334653,
      "v": 102
    },
    {
      "midi": 75,
      "hit": false,
      "t": 115761.87395833342,
      "d": 89.28385416667152,
      "v": 101
    },
    {
      "midi": 77,
      "hit": false,
      "t": 115879.72864583343,
      "d": 285.7083333333285,
      "v": 102
    },
    {
      "midi": 65,
      "hit": false,
      "t": 115879.72864583343,
      "d": 492.84687499998836,
      "v": 102
    },
    {
      "midi": 53,
      "hit": false,
      "t": 116106.15250000013,
      "d": 57.141666666662786,
      "v": 89
    },
    {
      "midi": 59,
      "hit": false,
      "t": 116108.29531250012,
      "d": 44.284791666665114,
      "v": 89
    },
    {
      "midi": 63,
      "hit": false,
      "t": 116114.0094791668,
      "d": 79.99833333332208,
      "v": 82
    },
    {
      "midi": 75,
      "hit": false,
      "t": 116219.00729166676,
      "d": 241.42354166664882,
      "v": 102
    },
    {
      "midi": 74,
      "hit": false,
      "t": 116442.57406250008,
      "d": 92.8552083333343,
      "v": 102
    },
    {
      "midi": 75,
      "hit": false,
      "t": 116572.57135416675,
      "d": 382.1348958333401,
      "v": 102
    },
    {
      "midi": 67,
      "hit": false,
      "t": 116576.14270833341,
      "d": 449.9906250000058,
      "v": 102
    },
    {
      "midi": 58,
      "hit": false,
      "t": 116793.99531250012,
      "d": 59.28447916665755,
      "v": 81
    },
    {
      "midi": 51,
      "hit": false,
      "t": 116797.56666666678,
      "d": 64.99864583332965,
      "v": 87
    },
    {
      "midi": 62,
      "hit": false,
      "t": 116798.99520833345,
      "d": 54.28458333332674,
      "v": 89
    },
    {
      "midi": 74,
      "hit": false,
      "t": 116893.99322916675,
      "d": 224.9953125000029,
      "v": 102
    },
    {
      "midi": 72,
      "hit": false,
      "t": 117118.98854166675,
      "d": 91.42666666666628,
      "v": 102
    },
    {
      "midi": 74,
      "hit": false,
      "t": 117243.98593750008,
      "d": 371.4208333333372,
      "v": 102
    },
    {
      "midi": 67,
      "hit": false,
      "t": 117243.98593750008,
      "d": 598.5589583333349,
      "v": 102
    },
    {
      "midi": 51,
      "hit": false,
      "t": 117479.69531250012,
      "d": 79.28406249999534,
      "v": 90
    },
    {
      "midi": 62,
      "hit": false,
      "t": 117486.83802083346,
      "d": 54.99885416665347,
      "v": 92
    },
    {
      "midi": 58,
      "hit": false,
      "t": 117487.55229166678,
      "d": 61.42729166666686,
      "v": 78
    },
    {
      "midi": 72,
      "hit": false,
      "t": 117565.40781250008,
      "d": 255.70895833332906,
      "v": 102
    },
    {
      "midi": 70,
      "hit": false,
      "t": 117788.97458333342,
      "d": 160.7109375,
      "v": 102
    },
    {
      "midi": 65,
      "hit": false,
      "t": 117938.97145833341,
      "d": 347.84989583333663,
      "v": 102
    },
    {
      "midi": 72,
      "hit": false,
      "t": 117940.40000000008,
      "d": 346.4213541666686,
      "v": 102
    },
    {
      "midi": 56,
      "hit": false,
      "t": 118165.39531250011,
      "d": 55.71312499999476,
      "v": 72
    },
    {
      "midi": 63,
      "hit": false,
      "t": 118166.82385416678,
      "d": 78.56979166665406,
      "v": 89
    },
    {
      "midi": 60,
      "hit": false,
      "t": 118169.68093750012,
      "d": 49.284687499995925,
      "v": 86
    },
    {
      "midi": 53,
      "hit": false,
      "t": 118171.10947916679,
      "d": 54.99885416665347,
      "v": 82
    },
    {
      "midi": 70,
      "hit": false,
      "t": 118249.67927083341,
      "d": 247.85197916667676,
      "v": 102
    },
    {
      "midi": 68,
      "hit": false,
      "t": 118471.10322916675,
      "d": 129.99729166667385,
      "v": 102
    },
    {
      "midi": 65,
      "hit": false,
      "t": 118601.10052083342,
      "d": 227.13812499999767,
      "v": 102
    },
    {
      "midi": 63,
      "hit": false,
      "t": 118801.09635416676,
      "d": 182.13906249999127,
      "v": 102
    },
    {
      "midi": 53,
      "hit": false,
      "t": 118851.0953125001,
      "d": 49.99895833332266,
      "v": 91
    },
    {
      "midi": 63,
      "hit": false,
      "t": 118854.66666666676,
      "d": 83.56968749999942,
      "v": 90
    },
    {
      "midi": 59,
      "hit": false,
      "t": 118858.23802083342,
      "d": 48.57041666666919,
      "v": 94
    },
    {
      "midi": 62,
      "hit": false,
      "t": 118954.66458333342,
      "d": 212.85270833333198,
      "v": 102
    },
    {
      "midi": 59,
      "hit": false,
      "t": 119172.51718750008,
      "d": 141.4256250000035,
      "v": 102
    },
    {
      "midi": 62,
      "hit": false,
      "t": 119299.65739583342,
      "d": 210.7098958333372,
      "v": 102
    },
    {
      "midi": 60,
      "hit": false,
      "t": 119654.6500000001,
      "d": 196.42447916667152,
      "v": 102
    },
    {
      "midi": 62,
      "hit": false,
      "t": 119865.35989583343,
      "d": 149.9968749999971,
      "v": 102
    },
    {
      "midi": 63,
      "hit": false,
      "t": 119990.35729166676,
      "d": 191.4245833333407,
      "v": 102
    },
    {
      "midi": 65,
      "hit": false,
      "t": 120201.0671875001,
      "d": 130.71156250000058,
      "v": 102
    },
    {
      "midi": 67,
      "hit": false,
      "t": 120328.20739583344,
      "d": 104.99781249999069,
      "v": 102
    },
    {
      "midi": 70,
      "hit": false,
      "t": 120438.9193750001,
      "d": 99.99791666665988,
      "v": 101
    },
    {
      "midi": 74,
      "hit": false,
      "t": 120540.34583333343,
      "d": 77.14125000000058,
      "v": 102
    },
    {
      "midi": 72,
      "hit": false,
      "t": 120656.77197916676,
      "d": 387.13479166667094,
      "v": 102
    },
    {
      "midi": 70,
      "hit": false,
      "t": 121021.05010416676,
      "d": 189.28177083334594,
      "v": 102
    },
    {
      "midi": 68,
      "hit": false,
      "t": 121265.33072916677,
      "d": 473.5615625000064,
      "v": 102
    },
    {
      "midi": 53,
      "hit": false,
      "t": 121365.32864583342,
      "d": 362.84958333332906,
      "v": 102
    },
    {
      "midi": 63,
      "hit": false,
      "t": 121367.47145833341,
      "d": 382.1348958333401,
      "v": 102
    },
    {
      "midi": 59,
      "hit": false,
      "t": 121372.47135416674,
      "d": 344.9928125000006,
      "v": 102
    },
    {
      "midi": 67,
      "hit": false,
      "t": 121717.46416666677,
      "d": 104.99781250000524,
      "v": 93
    },
    {
      "midi": 62,
      "hit": false,
      "t": 121935.31677083342,
      "d": 848.5537499999919,
      "v": 102
    },
    {
      "midi": 58,
      "hit": false,
      "t": 121936.74531250009,
      "d": 852.1251041666546,
      "v": 102
    },
    {
      "midi": 65,
      "hit": false,
      "t": 121936.74531250012,
      "d": 317.8505208333372,
      "v": 102
    },
    {
      "midi": 62,
      "hit": false,
      "t": 121936.74531250012,
      "d": 324.99322916667734,
      "v": 102
    },
    {
      "midi": 51,
      "hit": false,
      "t": 121940.31666666675,
      "d": 841.4110416666663,
      "v": 102
    },
    {
      "midi": 63,
      "hit": false,
      "t": 122263.88135416679,
      "d": 116.42614583333489,
      "v": 98
    },
    {
      "midi": 62,
      "hit": false,
      "t": 122393.87864583347,
      "d": 246.42343749999418,
      "v": 102
    },
    {
      "midi": 65,
      "hit": false,
      "t": 122393.87864583347,
      "d": 284.27979166666046,
      "v": 102
    },
    {
      "midi": 62,
      "hit": false,
      "t": 122967.43812500013,
      "d": 304.99364583333954,
      "v": 102
    },
    {
      "midi": 58,
      "hit": false,
      "t": 122968.86666666674,
      "d": 82.1411458333314,
      "v": 101
    },
    {
      "midi": 62,
      "hit": false,
      "t": 122972.4380208334,
      "d": 75.71270833333256,
      "v": 102
    },
    {
      "midi": 51,
      "hit": false,
      "t": 122972.4380208334,
      "d": 78.5697916666686,
      "v": 102
    },
    {
      "midi": 67,
      "hit": false,
      "t": 123293.85989583348,
      "d": 157.13958333332266,
      "v": 85
    },
    {
      "midi": 70,
      "hit": false,
      "t": 123418.8572916668,
      "d": 255.70895833332906,
      "v": 102
    },
    {
      "midi": 68,
      "hit": false,
      "t": 123623.85302083347,
      "d": 164.28229166667734,
      "v": 102
    },
    {
      "midi": 63,
      "hit": false,
      "t": 123773.13562500014,
      "d": 209.99562500001048,
      "v": 102
    },
    {
      "midi": 59,
      "hit": false,
      "t": 123962.41739583349,
      "d": 135.7114583333314,
      "v": 95
    },
    {
      "midi": 66,
      "hit": false,
      "t": 124103.12875000015,
      "d": 262.13739583334245,
      "v": 102
    },
    {
      "midi": 67,
      "hit": false,
      "t": 124315.26718750015,
      "d": 119.28322916667094,
      "v": 87
    },
    {
      "midi": 62,
      "hit": false,
      "t": 124447.40729166682,
      "d": 222.13822916666686,
      "v": 102
    },
    {
      "midi": 65,
      "hit": false,
      "t": 124797.40000000015,
      "d": 228.5666666666657,
      "v": 102
    },
    {
      "midi": 63,
      "hit": false,
      "t": 125000.96718750015,
      "d": 139.28281250000873,
      "v": 102
    },
    {
      "midi": 62,
      "hit": false,
      "t": 125154.53541666683,
      "d": 200.71010416666104,
      "v": 102
    },
    {
      "midi": 63,
      "hit": false,
      "t": 125345.96000000015,
      "d": 124.99739583332848,
      "v": 85
    },
    {
      "midi": 67,
      "hit": false,
      "t": 125481.67145833348,
      "d": 187.13895833333663,
      "v": 102
    },
    {
      "midi": 70,
      "hit": false,
      "t": 125674.52458333349,
      "d": 153.56822916665988,
      "v": 102
    },
    {
      "midi": 74,
      "hit": false,
      "t": 125824.52145833349,
      "d": 187.13895833333663,
      "v": 102
    },
    {
      "midi": 77,
      "hit": false,
      "t": 126015.94604166683,
      "d": 149.2826041666558,
      "v": 102
    },
    {
      "midi": 75,
      "hit": false,
      "t": 126147.37187500016,
      "d": 217.8526041666628,
      "v": 102
    },
    {
      "midi": 70,
      "hit": false,
      "t": 126374.51000000015,
      "d": 117.85468750000291,
      "v": 75
    },
    {
      "midi": 67,
      "hit": false,
      "t": 126493.79322916683,
      "d": 242.85208333334594,
      "v": 92
    },
    {
      "midi": 75,
      "hit": false,
      "t": 126713.7886458335,
      "d": 169.28218750000815,
      "v": 102
    },
    {
      "midi": 73,
      "hit": false,
      "t": 126849.50010416684,
      "d": 142.85416666665697,
      "v": 102
    },
    {
      "midi": 68,
      "hit": false,
      "t": 127060.21000000017,
      "d": 146.4255208333343,
      "v": 102
    },
    {
      "midi": 65,
      "hit": false,
      "t": 127200.92135416683,
      "d": 205.7100000000064,
      "v": 86
    },
    {
      "midi": 73,
      "hit": false,
      "t": 127406.63135416684,
      "d": 715.6993749999965,
      "v": 102
    },
    {
      "midi": 61,
      "hit": false,
      "t": 127422.34531250007,
      "d": 834.2683333333407,
      "v": 102
    },
    {
      "midi": 58,
      "hit": false,
      "t": 127422.34531250007,
      "d": 835.6968750000087,
      "v": 102
    },
    {
      "midi": 52,
      "hit": false,
      "t": 127425.91666666673,
      "d": 818.554375000007,
      "v": 102
    },
    {
      "midi": 72,
      "hit": false,
      "t": 128104.4739583335,
      "d": 78.5697916666686,
      "v": 102
    },
    {
      "midi": 73,
      "hit": false,
      "t": 128233.04270833351,
      "d": 546.4171875000029,
      "v": 102
    },
    {
      "midi": 61,
      "hit": false,
      "t": 128448.03822916675,
      "d": 417.13416666667035,
      "v": 102
    },
    {
      "midi": 52,
      "hit": false,
      "t": 128454.46666666675,
      "d": 396.4203125000058,
      "v": 102
    },
    {
      "midi": 58,
      "hit": false,
      "t": 128454.46666666675,
      "d": 415.7056250000023,
      "v": 102
    },
    {
      "midi": 72,
      "hit": false,
      "t": 128788.74541666685,
      "d": 132.1401041666686,
      "v": 102
    },
    {
      "midi": 73,
      "hit": false,
      "t": 128910.17145833351,
      "d": 222.85250000000815,
      "v": 102
    },
    {
      "midi": 71,
      "hit": false,
      "t": 129095.88187500018,
      "d": 99.99791666667443,
      "v": 96
    },
    {
      "midi": 72,
      "hit": false,
      "t": 129265.16406250019,
      "d": 148.56833333332906,
      "v": 98
    },
    {
      "midi": 80,
      "hit": false,
      "t": 129447.30312500018,
      "d": 319.27906250000524,
      "v": 102
    },
    {
      "midi": 75,
      "hit": false,
      "t": 129786.58177083352,
      "d": 134.28291666666337,
      "v": 102
    },
    {
      "midi": 61,
      "hit": false,
      "t": 129820.15250000008,
      "d": 374.99218749998545,
      "v": 102
    },
    {
      "midi": 58,
      "hit": false,
      "t": 129827.29520833342,
      "d": 362.8495833333145,
      "v": 102
    },
    {
      "midi": 52,
      "hit": false,
      "t": 129829.43802083342,
      "d": 352.13552083332615,
      "v": 102
    },
    {
      "midi": 76,
      "hit": false,
      "t": 129925.86458333352,
      "d": 214.28125,
      "v": 102
    },
    {
      "midi": 79,
      "hit": false,
      "t": 130128.00322916685,
      "d": 147.85406250000233,
      "v": 102
    },
    {
      "midi": 77,
      "hit": false,
      "t": 130283.00000000019,
      "d": 185.7104166666686,
      "v": 102
    },
    {
      "midi": 72,
      "hit": false,
      "t": 130467.28187500019,
      "d": 153.56822916665988,
      "v": 92
    },
    {
      "midi": 60,
      "hit": false,
      "t": 130507.99531250008,
      "d": 212.85270833333198,
      "v": 102
    },
    {
      "midi": 56,
      "hit": false,
      "t": 130507.99531250008,
      "d": 241.42354166667792,
      "v": 97
    },
    {
      "midi": 55,
      "hit": false,
      "t": 130508.7095833334,
      "d": 234.99510416667908,
      "v": 102
    },
    {
      "midi": 70,
      "hit": false,
      "t": 130617.27875000019,
      "d": 190.71031249999942,
      "v": 98
    },
    {
      "midi": 68,
      "hit": false,
      "t": 130811.56041666685,
      "d": 178.56770833332848,
      "v": 83
    },
    {
      "midi": 70,
      "hit": false,
      "t": 130947.27187500018,
      "d": 257.13750000001164,
      "v": 102
    },
    {
      "midi": 72,
      "hit": false,
      "t": 131154.41041666685,
      "d": 139.99708333332092,
      "v": 102
    },
    {
      "midi": 68,
      "hit": false,
      "t": 131293.69322916685,
      "d": 196.42447916665697,
      "v": 102
    },
    {
      "midi": 65,
      "hit": false,
      "t": 131497.26041666683,
      "d": 24.999479166668607,
      "v": 102
    },
    {
      "midi": 79,
      "hit": false,
      "t": 131656.54281250018,
      "d": 257.13750000001164,
      "v": 102
    },
    {
      "midi": 72,
      "hit": false,
      "t": 131842.25322916685,
      "d": 117.85468750001746,
      "v": 78
    },
    {
      "midi": 50,
      "hit": false,
      "t": 131886.53802083342,
      "d": 364.9923958333384,
      "v": 102
    },
    {
      "midi": 77,
      "hit": false,
      "t": 131992.25010416686,
      "d": 194.28166666667676,
      "v": 102
    },
    {
      "midi": 75,
      "hit": false,
      "t": 132197.24583333352,
      "d": 112.8547916666721,
      "v": 77
    },
    {
      "midi": 82,
      "hit": false,
      "t": 132335.10010416686,
      "d": 247.85197916664765,
      "v": 102
    },
    {
      "midi": 72,
      "hit": false,
      "t": 132518.66770833352,
      "d": 99.99791666664532,
      "v": 76
    },
    {
      "midi": 60,
      "hit": false,
      "t": 132565.0953125001,
      "d": 191.4245833333116,
      "v": 102
    },
    {
      "midi": 54,
      "hit": false,
      "t": 132568.66666666677,
      "d": 211.42416666666395,
      "v": 102
    },
    {
      "midi": 65,
      "hit": false,
      "t": 132569.3809375001,
      "d": 195.71020833333023,
      "v": 102
    },
    {
      "midi": 80,
      "hit": false,
      "t": 132690.0927083335,
      "d": 205.70999999999185,
      "v": 102
    },
    {
      "midi": 59,
      "hit": false,
      "t": 132905.08822916678,
      "d": 574.2737500000221,
      "v": 102
    },
    {
      "midi": 64,
      "hit": false,
      "t": 132907.94531250012,
      "d": 589.2734375000291,
      "v": 102
    },
    {
      "midi": 53,
      "hit": false,
      "t": 132913.6594791668,
      "d": 574.9880208333489,
      "v": 102
    },
    {
      "midi": 79,
      "hit": false,
      "t": 133038.65687500016,
      "d": 101.4264583333279,
      "v": 102
    },
    {
      "midi": 80,
      "hit": false,
      "t": 133150.79739583348,
      "d": 74.99843750000582,
      "v": 102
    },
    {
      "midi": 81,
      "hit": false,
      "t": 133236.50989583347,
      "d": 124.99739583334303,
      "v": 102
    },
    {
      "midi": 82,
      "hit": false,
      "t": 133343.65052083347,
      "d": 127.14020833335235,
      "v": 102
    },
    {
      "midi": 81,
      "hit": false,
      "t": 133465.07656250015,
      "d": 114.28333333332557,
      "v": 102
    },
    {
      "midi": 80,
      "hit": false,
      "t": 133581.5027083335,
      "d": 117.85468750001746,
      "v": 102
    },
    {
      "midi": 79,
      "hit": false,
      "t": 133697.2145833335,
      "d": 130.71156250001513,
      "v": 102
    },
    {
      "midi": 75,
      "hit": false,
      "t": 133910.06729166684,
      "d": 269.2801041666826,
      "v": 102
    },
    {
      "midi": 54,
      "hit": false,
      "t": 133933.6382291668,
      "d": 245.70916666666744,
      "v": 102
    },
    {
      "midi": 65,
      "hit": false,
      "t": 133933.6382291668,
      "d": 245.70916666666744,
      "v": 102
    },
    {
      "midi": 60,
      "hit": false,
      "t": 133936.49531250013,
      "d": 244.28062499998487,
      "v": 102
    },
    {
      "midi": 71,
      "hit": false,
      "t": 134092.20635416685,
      "d": 319.2790625000198,
      "v": 55
    },
    {
      "midi": 77,
      "hit": false,
      "t": 134392.20010416687,
      "d": 215.70979166665347,
      "v": 102
    },
    {
      "midi": 73,
      "hit": false,
      "t": 134597.19583333354,
      "d": 142.85416666665697,
      "v": 102
    },
    {
      "midi": 53,
      "hit": false,
      "t": 134623.6238541668,
      "d": 1009.2646874999919,
      "v": 102
    },
    {
      "midi": 59,
      "hit": false,
      "t": 134624.33812500013,
      "d": 969.9797916666721,
      "v": 102
    },
    {
      "midi": 63,
      "hit": false,
      "t": 134626.48093750014,
      "d": 974.2654166666616,
      "v": 100
    },
    {
      "midi": 68,
      "hit": false,
      "t": 134732.90729166687,
      "d": 212.85270833334653,
      "v": 99
    },
    {
      "midi": 65,
      "hit": false,
      "t": 134918.61770833354,
      "d": 77.14125000001513,
      "v": 102
    },
    {
      "midi": 61,
      "hit": false,
      "t": 135086.4713541669,
      "d": 216.4240625000093,
      "v": 102
    },
    {
      "midi": 56,
      "hit": false,
      "t": 135302.8954166669,
      "d": 115.71187500000815,
      "v": 98
    },
    {
      "midi": 53,
      "hit": false,
      "t": 135429.3213541669,
      "d": 148.56833333332906,
      "v": 102
    },
    {
      "midi": 54,
      "hit": false,
      "t": 135645.7454166669,
      "d": 122.85458333333372,
      "v": 95
    },
    {
      "midi": 55,
      "hit": false,
      "t": 135774.3141666669,
      "d": 254.99468750000233,
      "v": 102
    },
    {
      "midi": 55,
      "hit": false,
      "t": 135994.30958333347,
      "d": 95.7122916666558,
      "v": 70
    },
    {
      "midi": 51,
      "hit": false,
      "t": 135994.30958333347,
      "d": 113.56906249999884,
      "v": 100
    },
    {
      "midi": 48,
      "hit": false,
      "t": 135995.73812500012,
      "d": 112.8547916666721,
      "v": 85
    },
    {
      "midi": 67,
      "hit": false,
      "t": 136111.45000000024,
      "d": 198.56729166666628,
      "v": 102
    },
    {
      "midi": 72,
      "hit": false,
      "t": 136445.72875000024,
      "d": 149.99687500001164,
      "v": 102
    },
    {
      "midi": 45,
      "hit": false,
      "t": 136654.29583333345,
      "d": 228.56666666665114,
      "v": 74
    },
    {
      "midi": 54,
      "hit": false,
      "t": 136676.4382291668,
      "d": 306.422187499993,
      "v": 102
    },
    {
      "midi": 49,
      "hit": false,
      "t": 136687.15229166677,
      "d": 306.422187499993,
      "v": 75
    },
    {
      "midi": 75,
      "hit": false,
      "t": 136767.15062500024,
      "d": 114.28333333332557,
      "v": 102
    },
    {
      "midi": 44,
      "hit": false,
      "t": 136997.14583333343,
      "d": 228.56666666665114,
      "v": 74
    },
    {
      "midi": 53,
      "hit": false,
      "t": 137022.1453125001,
      "d": 572.8452083333104,
      "v": 101
    },
    {
      "midi": 48,
      "hit": false,
      "t": 137026.4309375001,
      "d": 556.41697916665,
      "v": 76
    },
    {
      "midi": 77,
      "hit": false,
      "t": 137124.2860416669,
      "d": 112.14052083334536,
      "v": 102
    },
    {
      "midi": 78,
      "hit": false,
      "t": 137227.85531250024,
      "d": 112.14052083334536,
      "v": 102
    },
    {
      "midi": 77,
      "hit": false,
      "t": 137350.70989583357,
      "d": 103.56927083333721,
      "v": 71
    },
    {
      "midi": 75,
      "hit": false,
      "t": 137436.42239583356,
      "d": 141.4256250000035,
      "v": 102
    },
    {
      "midi": 77,
      "hit": false,
      "t": 137692.1313541669,
      "d": 254.99468750000233,
      "v": 102
    },
    {
      "midi": 53,
      "hit": false,
      "t": 138048.55250000008,
      "d": 234.28083333332324,
      "v": 102
    },
    {
      "midi": 48,
      "hit": false,
      "t": 138056.40947916673,
      "d": 241.42354166667792,
      "v": 74
    },
    {
      "midi": 75,
      "hit": false,
      "t": 138057.83802083356,
      "d": 262.85166666665464,
      "v": 102
    },
    {
      "midi": 51,
      "hit": false,
      "t": 138365.6887500001,
      "d": 132.1401041666686,
      "v": 83
    },
    {
      "midi": 43,
      "hit": false,
      "t": 138368.54583333342,
      "d": 228.56666666668025,
      "v": 56
    },
    {
      "midi": 47,
      "hit": false,
      "t": 138369.97437500008,
      "d": 177.13916666668956,
      "v": 51
    },
    {
      "midi": 78,
      "hit": false,
      "t": 138379.25989583356,
      "d": 449.9906249999767,
      "v": 102
    },
    {
      "midi": 84,
      "hit": false,
      "t": 138383.54552083355,
      "d": 419.2769791666651,
      "v": 102
    },
    {
      "midi": 51,
      "hit": false,
      "t": 139051.3887500001,
      "d": 132.1401041666686,
      "v": 83
    },
    {
      "midi": 48,
      "hit": false,
      "t": 139055.6743750001,
      "d": 177.13916666668956,
      "v": 83
    },
    {
      "midi": 72,
      "hit": false,
      "t": 139064.95989583354,
      "d": 117.85468749998836,
      "v": 102
    },
    {
      "midi": 75,
      "hit": false,
      "t": 139188.5287500002,
      "d": 119.28322916667094,
      "v": 102
    },
    {
      "midi": 49,
      "hit": false,
      "t": 139397.09583333344,
      "d": 272.85145833334536,
      "v": 73
    },
    {
      "midi": 54,
      "hit": false,
      "t": 139400.6671875001,
      "d": 248.5662500000035,
      "v": 102
    },
    {
      "midi": 77,
      "hit": false,
      "t": 139422.0953125002,
      "d": 359.2782291666663,
      "v": 102
    },
    {
      "midi": 84,
      "hit": false,
      "t": 139424.2381250002,
      "d": 222.85250000000815,
      "v": 102
    },
    {
      "midi": 53,
      "hit": false,
      "t": 139734.23166666678,
      "d": 228.56666666665114,
      "v": 78
    },
    {
      "midi": 48,
      "hit": false,
      "t": 139743.5171875001,
      "d": 209.28135416665464,
      "v": 53
    },
    {
      "midi": 75,
      "hit": false,
      "t": 139761.37395833354,
      "d": 152.13968749999185,
      "v": 102
    },
    {
      "midi": 53,
      "hit": false,
      "t": 140108.50958333342,
      "d": 259.9945833333477,
      "v": 78
    },
    {
      "midi": 48,
      "hit": false,
      "t": 140113.50947916677,
      "d": 262.85166666665464,
      "v": 88
    },
    {
      "midi": 70,
      "hit": false,
      "t": 140118.5093750002,
      "d": 232.13802083334303,
      "v": 102
    },
    {
      "midi": 51,
      "hit": false,
      "t": 140422.7887500001,
      "d": 243.56635416665813,
      "v": 61
    },
    {
      "midi": 43,
      "hit": false,
      "t": 140425.64583333343,
      "d": 228.56666666665114,
      "v": 54
    },
    {
      "midi": 47,
      "hit": false,
      "t": 140426.36010416676,
      "d": 249.28052083333023,
      "v": 71
    },
    {
      "midi": 67,
      "hit": false,
      "t": 140563.5001041669,
      "d": 112.14052083334536,
      "v": 102
    },
    {
      "midi": 70,
      "hit": false,
      "t": 140899.20739583357,
      "d": 122.85458333333372,
      "v": 102
    },
    {
      "midi": 74,
      "hit": false,
      "t": 141236.3432291669,
      "d": 519.9891666666663,
      "v": 102
    },
    {
      "midi": 70,
      "hit": false,
      "t": 141795.6172916669,
      "d": 135.7114583333314,
      "v": 102
    },
    {
      "midi": 67,
      "hit": false,
      "t": 141936.32864583356,
      "d": 153.56822916667443,
      "v": 102
    },
    {
      "midi": 63,
      "hit": false,
      "t": 142182.75208333356,
      "d": 235.70937500000582,
      "v": 102
    },
    {
      "midi": 65,
      "hit": false,
      "t": 142500.6026041669,
      "d": 128.56875000000582,
      "v": 102
    },
    {
      "midi": 65,
      "hit": false,
      "t": 142834.8813541669,
      "d": 214.28125,
      "v": 102
    },
    {
      "midi": 63,
      "hit": false,
      "t": 143175.5885416669,
      "d": 114.28333333332557,
      "v": 102
    },
    {
      "midi": 65,
      "hit": false,
      "t": 143318.44270833355,
      "d": 232.13802083334303,
      "v": 102
    },
    {
      "midi": 67,
      "hit": false,
      "t": 143529.15260416688,
      "d": 144.99697916666628,
      "v": 102
    },
    {
      "midi": 63,
      "hit": false,
      "t": 143672.7210416669,
      "d": 219.28114583331626,
      "v": 102
    },
    {
      "midi": 62,
      "hit": false,
      "t": 144002.71416666688,
      "d": 172.85354166667094,
      "v": 102
    },
    {
      "midi": 62,
      "hit": false,
      "t": 144336.27864583355,
      "d": 157.1395833333372,
      "v": 102
    },
    {
      "midi": 58,
      "hit": false,
      "t": 144564.84531250008,
      "d": 78.5697916666395,
      "v": 76
    },
    {
      "midi": 55,
      "hit": false,
      "t": 144566.9881250001,
      "d": 54.99885416665347,
      "v": 62
    },
    {
      "midi": 51,
      "hit": false,
      "t": 144570.55947916675,
      "d": 71.42708333331393,
      "v": 82
    },
    {
      "midi": 62,
      "hit": false,
      "t": 144666.98604166688,
      "d": 172.85354166667094,
      "v": 102
    },
    {
      "midi": 62,
      "hit": false,
      "t": 145004.12187500022,
      "d": 192.85312499999418,
      "v": 102
    },
    {
      "midi": 51,
      "hit": false,
      "t": 145248.40250000005,
      "d": 78.5697916666686,
      "v": 82
    },
    {
      "midi": 55,
      "hit": false,
      "t": 145250.54531250006,
      "d": 73.56989583332324,
      "v": 75
    },
    {
      "midi": 58,
      "hit": false,
      "t": 145257.6880208334,
      "d": 96.42656250001164,
      "v": 78
    },
    {
      "midi": 62,
      "hit": false,
      "t": 145349.1146875002,
      "d": 235.70937500000582,
      "v": 102
    },
    {
      "midi": 60,
      "hit": false,
      "t": 145573.39572916686,
      "d": 116.42614583333489,
      "v": 96
    },
    {
      "midi": 57,
      "hit": false,
      "t": 145702.6787500002,
      "d": 222.85250000000815,
      "v": 95
    },
    {
      "midi": 55,
      "hit": false,
      "t": 145911.24583333352,
      "d": 183.5676041666884,
      "v": 102
    },
    {
      "midi": 58,
      "hit": false,
      "t": 146262.66708333354,
      "d": 396.4203125000058,
      "v": 102
    },
    {
      "midi": 55,
      "hit": false,
      "t": 146277.6667708334,
      "d": 279.99416666667094,
      "v": 82
    },
    {
      "midi": 51,
      "hit": false,
      "t": 146282.66666666674,
      "d": 298.5652083333116,
      "v": 87
    },
    {
      "midi": 58,
      "hit": false,
      "t": 146619.80250000005,
      "d": 68.57000000000698,
      "v": 80
    },
    {
      "midi": 55,
      "hit": false,
      "t": 146624.08812500004,
      "d": 59.2844791666721,
      "v": 74
    },
    {
      "midi": 51,
      "hit": false,
      "t": 146629.08802083338,
      "d": 73.56989583335235,
      "v": 83
    },
    {
      "midi": 62,
      "hit": false,
      "t": 147304.78822916688,
      "d": 106.42635416667326,
      "v": 102
    },
    {
      "midi": 58,
      "hit": false,
      "t": 190963.8786458334,
      "d": 162.13947916665347,
      "v": 102
    },
    {
      "midi": 62,
      "hit": false,
      "t": 190965.30718750006,
      "d": 164.99656249998952,
      "v": 102
    },
    {
      "midi": 51,
      "hit": false,
      "t": 190969.59281250005,
      "d": 184.28187499998603,
      "v": 102
    },
    {
      "midi": 72,
      "hit": false,
      "t": 190971.02135416688,
      "d": 114.28333333332557,
      "v": 102
    },
    {
      "midi": 63,
      "hit": false,
      "t": 190978.1640625002,
      "d": 104.28354166666395,
      "v": 102
    },
    {
      "midi": 67,
      "hit": false,
      "t": 190978.1640625002,
      "d": 128.56875000000582,
      "v": 102
    },
    {
      "midi": 67,
      "hit": false,
      "t": 191539.5809375002,
      "d": 90.71239583333954,
      "v": 102
    },
    {
      "midi": 56,
      "hit": false,
      "t": 191854.57437500003,
      "d": 178.56770833331393,
      "v": 71
    },
    {
      "midi": 65,
      "hit": false,
      "t": 191856.7171875002,
      "d": 89.28385416665697,
      "v": 102
    },
    {
      "midi": 53,
      "hit": false,
      "t": 191861.71708333335,
      "d": 154.28250000000116,
      "v": 88
    },
    {
      "midi": 60,
      "hit": false,
      "t": 191862.43135416668,
      "d": 189.2817708333314,
      "v": 85
    },
    {
      "midi": 67,
      "hit": false,
      "t": 192203.13854166688,
      "d": 257.13750000001164,
      "v": 102
    },
    {
      "midi": 65,
      "hit": false,
      "t": 192543.8457291669,
      "d": 159.99666666667326,
      "v": 98
    },
    {
      "midi": 60,
      "hit": false,
      "t": 192675.2715625,
      "d": 145.71124999999302,
      "v": 102
    },
    {
      "midi": 56,
      "hit": false,
      "t": 192678.12864583335,
      "d": 147.85406250000233,
      "v": 95
    },
    {
      "midi": 67,
      "hit": false,
      "t": 192683.1285416669,
      "d": 112.8547916666721,
      "v": 102
    },
    {
      "midi": 63,
      "hit": false,
      "t": 192685.27135416667,
      "d": 162.13947916668258,
      "v": 100
    },
    {
      "midi": 53,
      "hit": false,
      "t": 193018.83583333335,
      "d": 132.1401041666395,
      "v": 102
    },
    {
      "midi": 59,
      "hit": false,
      "t": 193023.12145833333,
      "d": 139.28281249999418,
      "v": 87
    },
    {
      "midi": 62,
      "hit": false,
      "t": 193024.55,
      "d": 135.7114583333314,
      "v": 99
    },
    {
      "midi": 65,
      "hit": false,
      "t": 193025.26427083358,
      "d": 121.42604166668025,
      "v": 102
    },
    {
      "midi": 67,
      "hit": false,
      "t": 193701.67875000025,
      "d": 121.42604166668025,
      "v": 102
    },
    {
      "midi": 62,
      "hit": false,
      "t": 193704.53583333333,
      "d": 157.1395833333372,
      "v": 102
    },
    {
      "midi": 63,
      "hit": false,
      "t": 193708.10718750025,
      "d": 147.1397916666756,
      "v": 102
    },
    {
      "midi": 58,
      "hit": false,
      "t": 193710.25,
      "d": 153.56822916667443,
      "v": 102
    },
    {
      "midi": 51,
      "hit": false,
      "t": 193710.25,
      "d": 160.7109375,
      "v": 102
    },
    {
      "midi": 72,
      "hit": false,
      "t": 193710.25000000026,
      "d": 103.56927083333721,
      "v": 102
    },
    {
      "midi": 63,
      "hit": false,
      "t": 194269.52406250025,
      "d": 97.85510416666511,
      "v": 102
    },
    {
      "midi": 59,
      "hit": false,
      "t": 194592.37447916667,
      "d": 303.56510416665697,
      "v": 86
    },
    {
      "midi": 56,
      "hit": false,
      "t": 194595.94583333333,
      "d": 273.565729166643,
      "v": 72
    },
    {
      "midi": 62,
      "hit": false,
      "t": 194600.9457291669,
      "d": 147.1397916666756,
      "v": 93
    },
    {
      "midi": 53,
      "hit": false,
      "t": 194606.65989583332,
      "d": 274.9942708333256,
      "v": 81
    },
    {
      "midi": 63,
      "hit": false,
      "t": 194942.36718750026,
      "d": 234.28083333335235,
      "v": 102
    },
    {
      "midi": 62,
      "hit": false,
      "t": 195083.07854166694,
      "d": 121.42604166668025,
      "v": 86
    },
    {
      "midi": 62,
      "hit": false,
      "t": 195286.64572916695,
      "d": 121.42604166668025,
      "v": 88
    },
    {
      "midi": 53,
      "hit": false,
      "t": 195420.92864583334,
      "d": 135.7114583333023,
      "v": 96
    },
    {
      "midi": 60,
      "hit": false,
      "t": 195428.07135416666,
      "d": 124.99739583331393,
      "v": 102
    },
    {
      "midi": 56,
      "hit": false,
      "t": 195428.785625,
      "d": 139.28281249999418,
      "v": 82
    },
    {
      "midi": 63,
      "hit": false,
      "t": 195436.64260416696,
      "d": 106.42635416667326,
      "v": 102
    },
    {
      "midi": 53,
      "hit": false,
      "t": 195765.92145833332,
      "d": 141.4256249999744,
      "v": 88
    },
    {
      "midi": 56,
      "hit": false,
      "t": 195767.34999999998,
      "d": 157.1395833333081,
      "v": 71
    },
    {
      "midi": 62,
      "hit": false,
      "t": 195768.06427083362,
      "d": 104.28354166666395,
      "v": 102
    },
    {
      "midi": 63,
      "hit": false,
      "t": 196449.47864583362,
      "d": 164.99656250001863,
      "v": 102
    },
    {
      "midi": 51,
      "hit": false,
      "t": 196450.19291666662,
      "d": 189.99604166665813,
      "v": 99
    },
    {
      "midi": 58,
      "hit": false,
      "t": 196454.4785416666,
      "d": 189.2817708333314,
      "v": 95
    },
    {
      "midi": 62,
      "hit": false,
      "t": 196458.04989583362,
      "d": 105.71208333334653,
      "v": 102
    },
    {
      "midi": 67,
      "hit": false,
      "t": 196460.19270833363,
      "d": 99.99791666667443,
      "v": 102
    },
    {
      "midi": 60,
      "hit": false,
      "t": 196999.4671875003,
      "d": 121.42604166668025,
      "v": 102
    },
    {
      "midi": 63,
      "hit": false,
      "t": 197135.17864583366,
      "d": 110.71197916666279,
      "v": 97
    },
    {
      "midi": 60,
      "hit": false,
      "t": 197342.31718749995,
      "d": 169.28218750000815,
      "v": 102
    },
    {
      "midi": 66,
      "hit": false,
      "t": 197345.888541667,
      "d": 146.42552083331975,
      "v": 102
    },
    {
      "midi": 65,
      "hit": false,
      "t": 197688.73854166697,
      "d": 246.42343749999418,
      "v": 102
    },
    {
      "midi": 63,
      "hit": false,
      "t": 198029.44572916697,
      "d": 127.85447916667908,
      "v": 81
    },
    {
      "midi": 60,
      "hit": false,
      "t": 198174.44270833363,
      "d": 107.85489583332674,
      "v": 102
    },
    {
      "midi": 55,
      "hit": false,
      "t": 198362.29593750028,
      "d": 108.56916666665347,
      "v": 91
    },
    {
      "midi": 58,
      "hit": false,
      "t": 198503.72156250026,
      "d": 286.42260416666977,
      "v": 101
    },
    {
      "midi": 48,
      "hit": false,
      "t": 198711.57437499997,
      "d": 535.7031250000291,
      "v": 102
    },
    {
      "midi": 60,
      "hit": false,
      "t": 198717.28854166664,
      "d": 601.4160416667,
      "v": 102
    },
    {
      "midi": 60,
      "hit": false,
      "t": 198717.28854166693,
      "d": 1936.3882291666523,
      "v": 102
    },
    {
      "midi": 51,
      "hit": false,
      "t": 198719.43135416665,
      "d": 605.7016666666896,
      "v": 102
    },
    {
      "midi": 49,
      "hit": false,
      "t": 199419.41677083334,
      "d": 521.4177083332906,
      "v": 102
    },
    {
      "midi": 60,
      "hit": false,
      "t": 199422.988125,
      "d": 516.4178124999744,
      "v": 102
    },
    {
      "midi": 39,
      "hit": false,
      "t": 199424.41666666666,
      "d": 657.1291666666511,
      "v": 102
    },
    {
      "midi": 44,
      "hit": false,
      "t": 200104.40249999997,
      "d": 661.4147916666698,
      "v": 102
    },
    {
      "midi": 48,
      "hit": false,
      "t": 200112.25947916662,
      "d": 652.129270833364,
      "v": 102
    },
    {
      "midi": 60,
      "hit": false,
      "t": 200114.40229166663,
      "d": 527.8461458333477,
      "v": 102
    },
    {
      "midi": 53,
      "hit": false,
      "t": 200790.10249999998,
      "d": 800.697604166664,
      "v": 102
    },
    {
      "midi": 43,
      "hit": false,
      "t": 200792.2453125,
      "d": 797.1262500000012,
      "v": 102
    },
    {
      "midi": 63,
      "hit": false,
      "t": 200792.95958333332,
      "d": 852.8393749999814,
      "v": 102
    },
    {
      "midi": 59,
      "hit": false,
      "t": 200797.95947916666,
      "d": 794.269166666636,
      "v": 102
    },
    {
      "midi": 67,
      "hit": false,
      "t": 201932.22156250026,
      "d": 88.56958333333023,
      "v": 102
    },
    {
      "midi": 63,
      "hit": false,
      "t": 201935.79291666692,
      "d": 92.85520833331975,
      "v": 102
    },
    {
      "midi": 72,
      "hit": false,
      "t": 201937.22145833357,
      "d": 97.85510416666511,
      "v": 102
    },
    {
      "midi": 55,
      "hit": false,
      "t": 201939.3642708333,
      "d": 124.99739583331393,
      "v": 88
    },
    {
      "midi": 62,
      "hit": false,
      "t": 201939.3642708333,
      "d": 163.56802083330695,
      "v": 102
    },
    {
      "midi": 51,
      "hit": false,
      "t": 201940.79281249995,
      "d": 148.56833333332906,
      "v": 102
    },
    {
      "midi": 58,
      "hit": false,
      "t": 201942.2213541666,
      "d": 151.42541666666511,
      "v": 91
    },
    {
      "midi": 67,
      "hit": false,
      "t": 202489.35281250023,
      "d": 112.14052083334536,
      "v": 102
    },
    {
      "midi": 60,
      "hit": false,
      "t": 202825.77437499992,
      "d": 153.56822916664532,
      "v": 92
    },
    {
      "midi": 53,
      "hit": false,
      "t": 202827.91718749993,
      "d": 144.28270833331044,
      "v": 79
    },
    {
      "midi": 56,
      "hit": false,
      "t": 202829.34572916658,
      "d": 161.42520833332674,
      "v": 63
    },
    {
      "midi": 65,
      "hit": false,
      "t": 202835.7741666669,
      "d": 97.85510416666511,
      "v": 97
    },
    {
      "midi": 67,
      "hit": false,
      "t": 203168.62437500025,
      "d": 270.70864583333605,
      "v": 102
    },
    {
      "midi": 65,
      "hit": false,
      "t": 203507.18875000026,
      "d": 158.5681249999907,
      "v": 86
    },
    {
      "midi": 53,
      "hit": false,
      "t": 203650.7571874999,
      "d": 129.28302083333256,
      "v": 77
    },
    {
      "midi": 63,
      "hit": false,
      "t": 203652.8999999999,
      "d": 164.2822916666919,
      "v": 79
    },
    {
      "midi": 67,
      "hit": false,
      "t": 203652.90000000026,
      "d": 86.42677083332092,
      "v": 102
    },
    {
      "midi": 56,
      "hit": false,
      "t": 203654.32854166656,
      "d": 148.56833333335817,
      "v": 74
    },
    {
      "midi": 60,
      "hit": false,
      "t": 203656.47135416657,
      "d": 144.28270833333954,
      "v": 86
    },
    {
      "midi": 62,
      "hit": false,
      "t": 203993.60718749993,
      "d": 163.56802083327784,
      "v": 91
    },
    {
      "midi": 65,
      "hit": false,
      "t": 203993.60718750025,
      "d": 117.14041666666162,
      "v": 102
    },
    {
      "midi": 59,
      "hit": false,
      "t": 203996.46427083327,
      "d": 145.7112499999639,
      "v": 86
    },
    {
      "midi": 56,
      "hit": false,
      "t": 203997.89281249992,
      "d": 154.9967708332988,
      "v": 72
    },
    {
      "midi": 53,
      "hit": false,
      "t": 203999.32135416658,
      "d": 122.85458333333372,
      "v": 81
    },
    {
      "midi": 72,
      "hit": false,
      "t": 204672.87875000024,
      "d": 119.28322916667094,
      "v": 102
    },
    {
      "midi": 51,
      "hit": false,
      "t": 204676.45010416655,
      "d": 144.99697916666628,
      "v": 102
    },
    {
      "midi": 62,
      "hit": false,
      "t": 204681.4499999999,
      "d": 162.13947916665347,
      "v": 102
    },
    {
      "midi": 63,
      "hit": false,
      "t": 204681.45000000024,
      "d": 134.28291666664882,
      "v": 102
    },
    {
      "midi": 58,
      "hit": false,
      "t": 204682.87854166655,
      "d": 157.1395833333372,
      "v": 102
    },
    {
      "midi": 55,
      "hit": false,
      "t": 204685.02135416656,
      "d": 142.85416666665697,
      "v": 102
    },
    {
      "midi": 67,
      "hit": false,
      "t": 204685.73562500023,
      "d": 117.14041666666162,
      "v": 102
    },
    {
      "midi": 63,
      "hit": false,
      "t": 205235.72416666689,
      "d": 102.85500000001048,
      "v": 102
    },
    {
      "midi": 56,
      "hit": false,
      "t": 205568.57437499988,
      "d": 203.56718750001164,
      "v": 60
    },
    {
      "midi": 59,
      "hit": false,
      "t": 205568.57437499988,
      "d": 209.28135416668374,
      "v": 66
    },
    {
      "midi": 62,
      "hit": false,
      "t": 205574.2885416669,
      "d": 272.1371874999895,
      "v": 102
    },
    {
      "midi": 53,
      "hit": false,
      "t": 205575.00281249988,
      "d": 202.8529166666849,
      "v": 73
    },
    {
      "midi": 63,
      "hit": false,
      "t": 205913.56718750022,
      "d": 135.7114583333314,
      "v": 102
    },
    {
      "midi": 62,
      "hit": false,
      "t": 206095.70625000022,
      "d": 119.99749999999767,
      "v": 82
    },
    {
      "midi": 62,
      "hit": false,
      "t": 206253.56010416689,
      "d": 110.71197916666279,
      "v": 90
    },
    {
      "midi": 53,
      "hit": false,
      "t": 206392.12864583323,
      "d": 129.9972916666302,
      "v": 89
    },
    {
      "midi": 56,
      "hit": false,
      "t": 206393.5571874999,
      "d": 177.13916666663135,
      "v": 78
    },
    {
      "midi": 63,
      "hit": false,
      "t": 206397.12854166687,
      "d": 112.8547916666721,
      "v": 102
    },
    {
      "midi": 60,
      "hit": false,
      "t": 206397.84281249988,
      "d": 155.71104166665464,
      "v": 102
    },
    {
      "midi": 56,
      "hit": false,
      "t": 206738.54999999984,
      "d": 154.9967708333279,
      "v": 86
    },
    {
      "midi": 53,
      "hit": false,
      "t": 206742.1213541665,
      "d": 148.56833333332906,
      "v": 100
    },
    {
      "midi": 62,
      "hit": false,
      "t": 206745.69270833355,
      "d": 103.56927083333721,
      "v": 102
    },
    {
      "midi": 58,
      "hit": false,
      "t": 207418.53583333318,
      "d": 171.42499999998836,
      "v": 102
    },
    {
      "midi": 62,
      "hit": false,
      "t": 207420.67864583354,
      "d": 121.42604166668025,
      "v": 102
    },
    {
      "midi": 67,
      "hit": false,
      "t": 207420.67864583354,
      "d": 136.42572916668723,
      "v": 102
    },
    {
      "midi": 63,
      "hit": false,
      "t": 207420.67864583354,
      "d": 172.85354166670004,
      "v": 102
    },
    {
      "midi": 51,
      "hit": false,
      "t": 207421.39291666652,
      "d": 172.1392708333151,
      "v": 102
    },
    {
      "midi": 55,
      "hit": false,
      "t": 207422.82145833317,
      "d": 144.28270833333954,
      "v": 102
    },
    {
      "midi": 60,
      "hit": false,
      "t": 207972.0957291669,
      "d": 121.42604166668025,
      "v": 102
    },
    {
      "midi": 63,
      "hit": false,
      "t": 208110.66427083357,
      "d": 233.5665625000256,
      "v": 89
    },
    {
      "midi": 66,
      "hit": false,
      "t": 208314.23145833358,
      "d": 119.28322916667094,
      "v": 102
    },
    {
      "midi": 60,
      "hit": false,
      "t": 208314.9457291665,
      "d": 164.2822916666628,
      "v": 102
    },
    {
      "midi": 65,
      "hit": false,
      "t": 208659.93854166692,
      "d": 149.99687500001164,
      "v": 102
    },
    {
      "midi": 63,
      "hit": false,
      "t": 208989.93166666693,
      "d": 93.56947916667559,
      "v": 100
    },
    {
      "midi": 60,
      "hit": false,
      "t": 209134.9286458336,
      "d": 171.42499999998836,
      "v": 102
    },
    {
      "midi": 55,
      "hit": false,
      "t": 209338.49583333358,
      "d": 92.85520833331975,
      "v": 92
    },
    {
      "midi": 58,
      "hit": false,
      "t": 209474.2072916669,
      "d": 199.99583333331975,
      "v": 96
    },
    {
      "midi": 60,
      "hit": false,
      "t": 209686.3457291669,
      "d": 1287.8303125000093,
      "v": 102
    },
    {
      "midi": 36,
      "hit": false,
      "t": 209688.4885416665,
      "d": 637.129583333357,
      "v": 102
    },
    {
      "midi": 51,
      "hit": false,
      "t": 209690.63135416651,
      "d": 462.8475000000035,
      "v": 102
    },
    {
      "midi": 60,
      "hit": false,
      "t": 209690.63135416651,
      "d": 544.9886458333349,
      "v": 102
    },
    {
      "midi": 52,
      "hit": false,
      "t": 210372.04572916654,
      "d": 462.8475000000035,
      "v": 102
    },
    {
      "midi": 60,
      "hit": false,
      "t": 210392.04531249986,
      "d": 473.56156250002095,
      "v": 102
    },
    {
      "midi": 58,
      "hit": false,
      "t": 210394.18812499987,
      "d": 466.4188541666663,
      "v": 102
    },
    {
      "midi": 42,
      "hit": false,
      "t": 210397.0452083332,
      "d": 655.7006249999977,
      "v": 101
    },
    {
      "midi": 51,
      "hit": false,
      "t": 211056.31718749987,
      "d": 912.8381249999511,
      "v": 95
    },
    {
      "midi": 41,
      "hit": false,
      "t": 211082.7452083332,
      "d": 691.4141666666255,
      "v": 102
    },
    {
      "midi": 60,
      "hit": false,
      "t": 211083.45947916651,
      "d": 1848.5329166666488,
      "v": 102
    },
    {
      "midi": 56,
      "hit": false,
      "t": 211084.88802083317,
      "d": 1467.8265624999767,
      "v": 101
    },
    {
      "midi": 58,
      "hit": false,
      "t": 211715.5891666669,
      "d": 124.99739583334303,
      "v": 102
    },
    {
      "midi": 40,
      "hit": false,
      "t": 211763.44531249983,
      "d": 800.697604166664,
      "v": 102
    },
    {
      "midi": 60,
      "hit": false,
      "t": 211802.73020833358,
      "d": 166.4251041666721,
      "v": 102
    },
    {
      "midi": 62,
      "hit": false,
      "t": 211999.8689583336,
      "d": 119.28322916667094,
      "v": 102
    },
    {
      "midi": 63,
      "hit": false,
      "t": 212106.29531250027,
      "d": 134.28291666667792,
      "v": 102
    },
    {
      "midi": 65,
      "hit": false,
      "t": 212222.7214583336,
      "d": 138.56854166666744,
      "v": 102
    },
    {
      "midi": 67,
      "hit": false,
      "t": 212317.0052083336,
      "d": 191.4245833333116,
      "v": 102
    },
    {
      "midi": 68,
      "hit": false,
      "t": 212438.43125000026,
      "d": 85.71249999999418,
      "v": 94
    },
    {
      "midi": 70,
      "hit": false,
      "t": 212556.28593750024,
      "d": 287.85114583332324,
      "v": 102
    },
    {
      "midi": 39,
      "hit": false,
      "t": 212561.28583333315,
      "d": 1284.2589583333174,
      "v": 102
    },
    {
      "midi": 63,
      "hit": false,
      "t": 213249.8429166665,
      "d": 606.4159374999581,
      "v": 102
    },
    {
      "midi": 58,
      "hit": false,
      "t": 213253.41427083316,
      "d": 484.98989583330695,
      "v": 102
    },
    {
      "midi": 53,
      "hit": false,
      "t": 213254.1285416665,
      "d": 432.8481249999895,
      "v": 102
    },
    {
      "midi": 55,
      "hit": false,
      "t": 213818.4024999998,
      "d": 100.71218750000116,
      "v": 102
    },
    {
      "midi": 60,
      "hit": false,
      "t": 213824.11666666646,
      "d": 110.71197916666279,
      "v": 102
    },
    {
      "midi": 65,
      "hit": false,
      "t": 213827.68802083313,
      "d": 110.71197916666279,
      "v": 102
    },
    {
      "midi": 55,
      "hit": false,
      "t": 214152.6812499998,
      "d": 107.140625,
      "v": 69
    },
    {
      "midi": 70,
      "hit": false,
      "t": 214157.68114583357,
      "d": 164.99656249998952,
      "v": 102
    },
    {
      "midi": 72,
      "hit": false,
      "t": 214281.25000000023,
      "d": 209.28135416665464,
      "v": 102
    },
    {
      "midi": 56,
      "hit": false,
      "t": 214284.82135416646,
      "d": 219.995416666643,
      "v": 89
    },
    {
      "midi": 55,
      "hit": false,
      "t": 214481.24583333312,
      "d": 87.14104166664765,
      "v": 70
    },
    {
      "midi": 70,
      "hit": false,
      "t": 214495.53125000023,
      "d": 157.85385416666395,
      "v": 89
    },
    {
      "midi": 72,
      "hit": false,
      "t": 214618.38583333357,
      "d": 279.2798958333151,
      "v": 99
    },
    {
      "midi": 56,
      "hit": false,
      "t": 214626.24281249975,
      "d": 209.99562499998137,
      "v": 95
    },
    {
      "midi": 55,
      "hit": false,
      "t": 214825.52437499975,
      "d": 366.42093749999185,
      "v": 70
    },
    {
      "midi": 70,
      "hit": false,
      "t": 214831.23854166688,
      "d": 203.56718750001164,
      "v": 92
    },
    {
      "midi": 61,
      "hit": false,
      "t": 215167.6601041664,
      "d": 429.27677083335584,
      "v": 102
    },
    {
      "midi": 58,
      "hit": false,
      "t": 215176.2313541664,
      "d": 423.56260416668374,
      "v": 102
    },
    {
      "midi": 52,
      "hit": false,
      "t": 215177.65989583306,
      "d": 360.70677083334886,
      "v": 102
    },
    {
      "midi": 70,
      "hit": false,
      "t": 215200.51656250024,
      "d": 684.9857291666558,
      "v": 102
    },
    {
      "midi": 61,
      "hit": false,
      "t": 215851.21729166643,
      "d": 132.1401041666686,
      "v": 102
    },
    {
      "midi": 52,
      "hit": false,
      "t": 215852.64583333308,
      "d": 115.71187500000815,
      "v": 102
    },
    {
      "midi": 58,
      "hit": false,
      "t": 215858.35999999975,
      "d": 121.42604166668025,
      "v": 102
    },
    {
      "midi": 64,
      "hit": false,
      "t": 215881.93093750023,
      "d": 347.13562499999534,
      "v": 102
    },
    {
      "midi": 49,
      "hit": false,
      "t": 216538.3458333331,
      "d": 146.42552083334886,
      "v": 102
    },
    {
      "midi": 48,
      "hit": false,
      "t": 216666.9145833331,
      "d": 432.1338541666628,
      "v": 96
    },
    {
      "midi": 63,
      "hit": false,
      "t": 217243.33114583357,
      "d": 94.99802083332906,
      "v": 102
    },
    {
      "midi": 64,
      "hit": false,
      "t": 217363.32864583356,
      "d": 242.8520833333314,
      "v": 89
    },
    {
      "midi": 61,
      "hit": false,
      "t": 217576.18135416642,
      "d": 97.85510416666511,
      "v": 86
    },
    {
      "midi": 75,
      "hit": false,
      "t": 217581.18125000023,
      "d": 192.85312499999418,
      "v": 102
    },
    {
      "midi": 58,
      "hit": false,
      "t": 217584.75260416642,
      "d": 84.2839583333116,
      "v": 81
    },
    {
      "midi": 72,
      "hit": false,
      "t": 217584.7526041669,
      "d": 177.13916666666046,
      "v": 102
    },
    {
      "midi": 52,
      "hit": false,
      "t": 217585.46687499975,
      "d": 67.14145833332441,
      "v": 82
    },
    {
      "midi": 73,
      "hit": false,
      "t": 217713.3213541669,
      "d": 378.5635416666337,
      "v": 102
    },
    {
      "midi": 70,
      "hit": false,
      "t": 217716.89270833356,
      "d": 319.9933333333174,
      "v": 102
    },
    {
      "midi": 72,
      "hit": false,
      "t": 218044.0287500002,
      "d": 549.9885416666511,
      "v": 102
    },
    {
      "midi": 55,
      "hit": false,
      "t": 218052.59999999974,
      "d": 410.70572916665697,
      "v": 102
    },
    {
      "midi": 60,
      "hit": false,
      "t": 218052.59999999974,
      "d": 416.41989583332906,
      "v": 102
    },
    {
      "midi": 56,
      "hit": false,
      "t": 218054.0285416664,
      "d": 409.2771875000035,
      "v": 102
    },
    {
      "midi": 68,
      "hit": false,
      "t": 218056.17135416687,
      "d": 421.4197916666453,
      "v": 102
    },
    {
      "midi": 55,
      "hit": false,
      "t": 218591.8744791664,
      "d": 83.56968749998487,
      "v": 92
    },
    {
      "midi": 56,
      "hit": false,
      "t": 218595.44583333307,
      "d": 89.28385416665697,
      "v": 88
    },
    {
      "midi": 60,
      "hit": false,
      "t": 218599.01718749973,
      "d": 92.85520833331975,
      "v": 102
    },
    {
      "midi": 65,
      "hit": false,
      "t": 218616.8739583335,
      "d": 199.99583333331975,
      "v": 102
    },
    {
      "midi": 38,
      "hit": false,
      "t": 219281.14583333305,
      "d": 990.6936458333221,
      "v": 102
    },
    {
      "midi": 72,
      "hit": false,
      "t": 219618.99593750018,
      "d": 144.99697916663717,
      "v": 81
    },
    {
      "midi": 68,
      "hit": false,
      "t": 219620.42447916683,
      "d": 139.28281249999418,
      "v": 90
    },
    {
      "midi": 70,
      "hit": false,
      "t": 219747.56468750015,
      "d": 219.28114583328716,
      "v": 102
    },
    {
      "midi": 74,
      "hit": false,
      "t": 219747.56468750015,
      "d": 259.9945833332895,
      "v": 102
    },
    {
      "midi": 72,
      "hit": false,
      "t": 219963.98875000014,
      "d": 153.56822916664532,
      "v": 102
    },
    {
      "midi": 68,
      "hit": false,
      "t": 219965.4172916668,
      "d": 142.85416666665697,
      "v": 93
    },
    {
      "midi": 70,
      "hit": false,
      "t": 220098.9859375001,
      "d": 317.8505208333372,
      "v": 102
    },
    {
      "midi": 74,
      "hit": false,
      "t": 220102.55729166677,
      "d": 289.2796875000058,
      "v": 102
    },
    {
      "midi": 54,
      "hit": false,
      "t": 220321.12416666638,
      "d": 89.28385416665697,
      "v": 102
    },
    {
      "midi": 60,
      "hit": false,
      "t": 220323.98124999972,
      "d": 85.71249999999418,
      "v": 102
    },
    {
      "midi": 65,
      "hit": false,
      "t": 220323.98124999972,
      "d": 87.85531249997439,
      "v": 102
    },
    {
      "midi": 68,
      "hit": false,
      "t": 220434.6932291668,
      "d": 134.28291666664882,
      "v": 102
    },
    {
      "midi": 72,
      "hit": false,
      "t": 220438.26458333345,
      "d": 111.42624999998952,
      "v": 102
    },
    {
      "midi": 70,
      "hit": false,
      "t": 220781.8288541668,
      "d": 912.1238541666826,
      "v": 102
    },
    {
      "midi": 74,
      "hit": false,
      "t": 220784.68593750012,
      "d": 830.6969791666779,
      "v": 102
    },
    {
      "midi": 53,
      "hit": false,
      "t": 220793.97145833302,
      "d": 1314.2583333333314,
      "v": 102
    },
    {
      "midi": 60,
      "hit": false,
      "t": 220796.82854166636,
      "d": 1353.5432291666511,
      "v": 102
    },
    {
      "midi": 44,
      "hit": false,
      "t": 220796.82854166636,
      "d": 1387.8282291666546,
      "v": 101
    },
    {
      "midi": 73,
      "hit": false,
      "t": 221702.52395833348,
      "d": 142.85416666665697,
      "v": 102
    },
    {
      "midi": 74,
      "hit": false,
      "t": 221821.80718750015,
      "d": 130.71156249998603,
      "v": 102
    },
    {
      "midi": 43,
      "hit": false,
      "t": 222047.51677083303,
      "d": 1194.9751041666605,
      "v": 99
    },
    {
      "midi": 59,
      "hit": false,
      "t": 222048.94531249968,
      "d": 1214.260416666686,
      "v": 102
    },
    {
      "midi": 71,
      "hit": false,
      "t": 222052.5166666668,
      "d": 447.8478125000256,
      "v": 102
    },
    {
      "midi": 50,
      "hit": false,
      "t": 222056.088020833,
      "d": 1167.8328125000116,
      "v": 102
    },
    {
      "midi": 68,
      "hit": false,
      "t": 222057.51656250015,
      "d": 539.2744791666919,
      "v": 102
    },
    {
      "midi": 77,
      "hit": false,
      "t": 222057.51656250015,
      "d": 698.5568750000384,
      "v": 102
    },
    {
      "midi": 71,
      "hit": false,
      "t": 222853.92854166686,
      "d": 157.85385416666395,
      "v": 102
    },
    {
      "midi": 75,
      "hit": false,
      "t": 222858.21416666685,
      "d": 119.28322916667094,
      "v": 102
    },
    {
      "midi": 68,
      "hit": false,
      "t": 222866.78541666685,
      "d": 148.56833333332906,
      "v": 102
    },
    {
      "midi": 68,
      "hit": false,
      "t": 223209.63541666686,
      "d": 149.99687499998254,
      "v": 102
    },
    {
      "midi": 74,
      "hit": false,
      "t": 223216.7781250002,
      "d": 149.99687499998254,
      "v": 102
    },
    {
      "midi": 71,
      "hit": false,
      "t": 223218.20666666684,
      "d": 157.85385416666395,
      "v": 102
    },
    {
      "midi": 58,
      "hit": false,
      "t": 223879.62145833304,
      "d": 128.56874999997672,
      "v": 102
    },
    {
      "midi": 62,
      "hit": false,
      "t": 223881.0499999997,
      "d": 126.42593749999651,
      "v": 102
    },
    {
      "midi": 72,
      "hit": false,
      "t": 223881.05000000016,
      "d": 112.8547916666721,
      "v": 102
    },
    {
      "midi": 63,
      "hit": false,
      "t": 223881.7642708335,
      "d": 129.9972916666884,
      "v": 102
    },
    {
      "midi": 55,
      "hit": false,
      "t": 223883.1928124997,
      "d": 109.28343750000931,
      "v": 102
    },
    {
      "midi": 51,
      "hit": false,
      "t": 223883.1928124997,
      "d": 122.85458333333372,
      "v": 102
    },
    {
      "midi": 67,
      "hit": false,
      "t": 223884.62135416683,
      "d": 142.85416666668607,
      "v": 102
    },
    {
      "midi": 67,
      "hit": false,
      "t": 224434.6098958335,
      "d": 99.99791666667443,
      "v": 102
    },
    {
      "midi": 65,
      "hit": false,
      "t": 224771.74572916684,
      "d": 91.42666666666628,
      "v": 94
    },
    {
      "midi": 53,
      "hit": false,
      "t": 224789.6024999997,
      "d": 162.8537500000093,
      "v": 88
    },
    {
      "midi": 60,
      "hit": false,
      "t": 224795.31666666636,
      "d": 167.85364583332557,
      "v": 84
    },
    {
      "midi": 56,
      "hit": false,
      "t": 224798.88802083302,
      "d": 174.99635416665114,
      "v": 80
    },
    {
      "midi": 67,
      "hit": false,
      "t": 225110.31010416683,
      "d": 281.4227083333244,
      "v": 102
    },
    {
      "midi": 65,
      "hit": false,
      "t": 225458.16000000015,
      "d": 166.4251041666721,
      "v": 84
    },
    {
      "midi": 67,
      "hit": false,
      "t": 225586.72875000015,
      "d": 97.85510416666511,
      "v": 102
    },
    {
      "midi": 63,
      "hit": false,
      "t": 225588.87156249967,
      "d": 157.13958333336632,
      "v": 101
    },
    {
      "midi": 60,
      "hit": false,
      "t": 225593.87145833301,
      "d": 130.71156250001513,
      "v": 102
    },
    {
      "midi": 56,
      "hit": false,
      "t": 225596.72854166635,
      "d": 134.28291666667792,
      "v": 97
    },
    {
      "midi": 65,
      "hit": false,
      "t": 225931.72156250014,
      "d": 117.14041666666162,
      "v": 102
    },
    {
      "midi": 53,
      "hit": false,
      "t": 225932.43583333303,
      "d": 143.5684374999837,
      "v": 89
    },
    {
      "midi": 63,
      "hit": false,
      "t": 225932.43583333303,
      "d": 150.71114583330927,
      "v": 82
    },
    {
      "midi": 59,
      "hit": false,
      "t": 225939.57854166636,
      "d": 137.8542708333116,
      "v": 93
    },
    {
      "midi": 55,
      "hit": false,
      "t": 226620.278645833,
      "d": 142.85416666665697,
      "v": 102
    },
    {
      "midi": 51,
      "hit": false,
      "t": 226620.278645833,
      "d": 164.99656249998952,
      "v": 102
    },
    {
      "midi": 67,
      "hit": false,
      "t": 226620.27864583346,
      "d": 133.56864583329298,
      "v": 102
    },
    {
      "midi": 62,
      "hit": false,
      "t": 226621.70718749965,
      "d": 159.28239583334653,
      "v": 102
    },
    {
      "midi": 72,
      "hit": false,
      "t": 226624.56427083345,
      "d": 95.7122916666558,
      "v": 102
    },
    {
      "midi": 58,
      "hit": false,
      "t": 226625.2785416663,
      "d": 162.8537500000093,
      "v": 101
    },
    {
      "midi": 63,
      "hit": false,
      "t": 226628.84989583344,
      "d": 117.14041666666162,
      "v": 102
    },
    {
      "midi": 63,
      "hit": false,
      "t": 227174.5528125001,
      "d": 114.28333333332557,
      "v": 102
    },
    {
      "midi": 56,
      "hit": false,
      "t": 227513.11718749965,
      "d": 176.42489583336283,
      "v": 82
    },
    {
      "midi": 62,
      "hit": false,
      "t": 227516.68854166675,
      "d": 262.1373958333279,
      "v": 102
    },
    {
      "midi": 53,
      "hit": false,
      "t": 227518.83135416632,
      "d": 155.71104166668374,
      "v": 87
    },
    {
      "midi": 59,
      "hit": false,
      "t": 227520.97416666633,
      "d": 149.99687500001164,
      "v": 85
    },
    {
      "midi": 63,
      "hit": false,
      "t": 227852.3958333334,
      "d": 174.99635416665114,
      "v": 89
    },
    {
      "midi": 62,
      "hit": false,
      "t": 227995.25000000006,
      "d": 146.42552083331975,
      "v": 94
    },
    {
      "midi": 62,
      "hit": false,
      "t": 228191.67447916672,
      "d": 146.42552083334886,
      "v": 80
    },
    {
      "midi": 63,
      "hit": false,
      "t": 228329.52875000006,
      "d": 103.56927083333721,
      "v": 102
    },
    {
      "midi": 60,
      "hit": false,
      "t": 228332.385833333,
      "d": 143.5684374999837,
      "v": 102
    },
    {
      "midi": 53,
      "hit": false,
      "t": 228338.0999999997,
      "d": 146.42552083331975,
      "v": 102
    },
    {
      "midi": 56,
      "hit": false,
      "t": 228339.52854166634,
      "d": 155.71104166665464,
      "v": 95
    },
    {
      "midi": 53,
      "hit": false,
      "t": 228677.378645833,
      "d": 137.14000000001397,
      "v": 99
    },
    {
      "midi": 56,
      "hit": false,
      "t": 228677.378645833,
      "d": 150.71114583333838,
      "v": 95
    },
    {
      "midi": 62,
      "hit": false,
      "t": 228680.95000000007,
      "d": 121.42604166668025,
      "v": 102
    },
    {
      "midi": 58,
      "hit": false,
      "t": 229360.935833333,
      "d": 162.8537500000093,
      "v": 102
    },
    {
      "midi": 55,
      "hit": false,
      "t": 229366.64999999967,
      "d": 135.7114583333314,
      "v": 102
    },
    {
      "midi": 51,
      "hit": false,
      "t": 229366.64999999967,
      "d": 158.5681249999907,
      "v": 102
    },
    {
      "midi": 63,
      "hit": false,
      "t": 229389.50666666674,
      "d": 157.85385416663485,
      "v": 102
    },
    {
      "midi": 62,
      "hit": false,
      "t": 229400.22072916673,
      "d": 102.14072916665464,
      "v": 102
    },
    {
      "midi": 67,
      "hit": false,
      "t": 229400.22072916673,
      "d": 105.71208333331742,
      "v": 102
    },
    {
      "midi": 60,
      "hit": false,
      "t": 229905.92447916672,
      "d": 135.7114583333314,
      "v": 102
    },
    {
      "midi": 63,
      "hit": false,
      "t": 230050.20718750005,
      "d": 97.14083333333838,
      "v": 91
    },
    {
      "midi": 66,
      "hit": false,
      "t": 230250.91729166673,
      "d": 119.28322916667094,
      "v": 102
    },
    {
      "midi": 60,
      "hit": false,
      "t": 230277.34531249967,
      "d": 185.7104166666686,
      "v": 102
    },
    {
      "midi": 65,
      "hit": false,
      "t": 230595.91010416675,
      "d": 268.56583333332674,
      "v": 102
    },
    {
      "midi": 63,
      "hit": false,
      "t": 230935.90302083342,
      "d": 125.71166666666977,
      "v": 102
    },
    {
      "midi": 60,
      "hit": false,
      "t": 231079.47145833343,
      "d": 149.99687500001164,
      "v": 102
    },
    {
      "midi": 55,
      "hit": false,
      "t": 231295.1812500001,
      "d": 135.7114583333314,
      "v": 88
    },
    {
      "midi": 58,
      "hit": false,
      "t": 231417.32156250012,
      "d": 235.70937499997672,
      "v": 102
    },
    {
      "midi": 60,
      "hit": false,
      "t": 231623.74583333344,
      "d": 274.9942708333256,
      "v": 102
    },
    {
      "midi": 51,
      "hit": false,
      "t": 231650.17385416635,
      "d": 157.85385416666395,
      "v": 99
    },
    {
      "midi": 60,
      "hit": false,
      "t": 231653.745208333,
      "d": 154.28250000000116,
      "v": 102
    },
    {
      "midi": 98,
      "hit": false,
      "t": 232016.59479166675,
      "d": 157.1395833333372,
      "v": 102
    },
    {
      "midi": 94,
      "hit": false,
      "t": 232170.16302083342,
      "d": 147.85406250000233,
      "v": 102
    },
    {
      "midi": 91,
      "hit": false,
      "t": 232345.1593750001,
      "d": 42.85625000001164,
      "v": 75
    },
    {
      "midi": 87,
      "hit": false,
      "t": 232500.8704166668,
      "d": 205.71000000002095,
      "v": 85
    },
    {
      "midi": 94,
      "hit": false,
      "t": 232695.15208333347,
      "d": 182.85333333333256,
      "v": 102
    },
    {
      "midi": 91,
      "hit": false,
      "t": 232855.86302083347,
      "d": 109.28343750000931,
      "v": 102
    },
    {
      "midi": 87,
      "hit": false,
      "t": 232998.71718750015,
      "d": 192.85312499999418,
      "v": 75
    },
    {
      "midi": 83,
      "hit": false,
      "t": 233191.57031250015,
      "d": 147.85406250000233,
      "v": 84
    },
    {
      "midi": 91,
      "hit": false,
      "t": 233360.85250000015,
      "d": 162.8537499999802,
      "v": 102
    },
    {
      "midi": 87,
      "hit": false,
      "t": 233522.27770833348,
      "d": 174.99635416665114,
      "v": 102
    },
    {
      "midi": 83,
      "hit": false,
      "t": 233680.84583333347,
      "d": 147.85406250000233,
      "v": 83
    },
    {
      "midi": 77,
      "hit": false,
      "t": 233860.84208333347,
      "d": 153.56822916667443,
      "v": 102
    },
    {
      "midi": 75,
      "hit": false,
      "t": 234023.69583333348,
      "d": 178.56770833334303,
      "v": 102
    },
    {
      "midi": 70,
      "hit": false,
      "t": 234202.26354166682,
      "d": 142.85416666665697,
      "v": 75
    },
    {
      "midi": 65,
      "hit": false,
      "t": 234367.2601041668,
      "d": 164.2822916666628,
      "v": 69
    },
    {
      "midi": 74,
      "hit": false,
      "t": 234555.8276041668,
      "d": 189.2817708333023,
      "v": 102
    },
    {
      "midi": 69,
      "hit": false,
      "t": 234557.25614583347,
      "d": 218.56687499998952,
      "v": 102
    },
    {
      "midi": 63,
      "hit": false,
      "t": 234565.11312500012,
      "d": 173.56781249999767,
      "v": 102
    },
    {
      "midi": 73,
      "hit": false,
      "t": 234582.2556250001,
      "d": 34.28500000000349,
      "v": 88
    },
    {
      "midi": 36,
      "hit": false,
      "t": 234617.96916666636,
      "d": 287.85114583335235,
      "v": 102
    },
    {
      "midi": 48,
      "hit": false,
      "t": 234620.11197916637,
      "d": 251.42333333333954,
      "v": 102
    },
    {
      "midi": 74,
      "hit": false,
      "t": 242774.94208333347,
      "d": 204.28145833333838,
      "v": 102
    },
    {
      "midi": 58,
      "hit": false,
      "t": 242777.08489583348,
      "d": 218.56687500001863,
      "v": 102
    },
    {
      "midi": 51,
      "hit": false,
      "t": 242782.08479166683,
      "d": 211.42416666666395,
      "v": 102
    },
    {
      "midi": 62,
      "hit": false,
      "t": 242782.08479166683,
      "d": 338.5643750000163,
      "v": 102
    },
    {
      "midi": 69,
      "hit": false,
      "t": 242786.37041666682,
      "d": 244.28062500001397,
      "v": 102
    },
    {
      "midi": 67,
      "hit": false,
      "t": 242786.37041666682,
      "d": 246.42343750002328,
      "v": 102
    },
    {
      "midi": 63,
      "hit": false,
      "t": 243032.79385416684,
      "d": 141.4256250000035,
      "v": 102
    },
    {
      "midi": 58,
      "hit": false,
      "t": 243120.64916666684,
      "d": 139.28281249999418,
      "v": 89
    },
    {
      "midi": 51,
      "hit": false,
      "t": 243123.50625000018,
      "d": 117.85468749998836,
      "v": 95
    },
    {
      "midi": 74,
      "hit": false,
      "t": 243177.07656250018,
      "d": 104.28354166666395,
      "v": 102
    },
    {
      "midi": 69,
      "hit": false,
      "t": 243181.36218750017,
      "d": 127.85447916667908,
      "v": 102
    },
    {
      "midi": 67,
      "hit": false,
      "t": 243185.64781250016,
      "d": 130.71156250001513,
      "v": 87
    },
    {
      "midi": 62,
      "hit": false,
      "t": 243257.78916666683,
      "d": 137.14000000001397,
      "v": 96
    },
    {
      "midi": 63,
      "hit": false,
      "t": 243320.64500000016,
      "d": 115.71187500003725,
      "v": 102
    },
    {
      "midi": 51,
      "hit": false,
      "t": 243409.21458333352,
      "d": 114.28333333335468,
      "v": 102
    },
    {
      "midi": 69,
      "hit": false,
      "t": 243417.78583333353,
      "d": 118.5689583333442,
      "v": 96
    },
    {
      "midi": 58,
      "hit": false,
      "t": 243427.07135416687,
      "d": 77.14125000001513,
      "v": 102
    },
    {
      "midi": 67,
      "hit": false,
      "t": 243427.07135416687,
      "d": 129.9972916666884,
      "v": 90
    },
    {
      "midi": 74,
      "hit": false,
      "t": 243432.0712500002,
      "d": 109.28343750000931,
      "v": 102
    },
    {
      "midi": 62,
      "hit": false,
      "t": 243524.92645833353,
      "d": 130.71156250001513,
      "v": 102
    },
    {
      "midi": 63,
      "hit": false,
      "t": 243557.06864583355,
      "d": 137.8542708333407,
      "v": 102
    },
    {
      "midi": 51,
      "hit": false,
      "t": 243680.63750000022,
      "d": 92.85520833334886,
      "v": 102
    },
    {
      "midi": 58,
      "hit": false,
      "t": 243682.78031250022,
      "d": 51.42750000001979,
      "v": 98
    },
    {
      "midi": 69,
      "hit": false,
      "t": 243682.78031250022,
      "d": 94.99802083332906,
      "v": 102
    },
    {
      "midi": 74,
      "hit": false,
      "t": 243694.9229166669,
      "d": 62.14156250000815,
      "v": 101
    },
    {
      "midi": 67,
      "hit": false,
      "t": 243709.20833333358,
      "d": 64.28437499998836,
      "v": 74
    },
    {
      "midi": 63,
      "hit": false,
      "t": 243787.77812500022,
      "d": 108.56916666668258,
      "v": 88
    },
    {
      "midi": 62,
      "hit": false,
      "t": 243807.77770833354,
      "d": 58.57020833334536,
      "v": 95
    },
    {
      "midi": 74,
      "hit": false,
      "t": 243882.06187500022,
      "d": 92.85520833334886,
      "v": 90
    },
    {
      "midi": 51,
      "hit": false,
      "t": 243889.20458333354,
      "d": 72.14135416669887,
      "v": 93
    },
    {
      "midi": 58,
      "hit": false,
      "t": 243891.34739583355,
      "d": 92.85520833334886,
      "v": 102
    },
    {
      "midi": 69,
      "hit": false,
      "t": 243891.34739583355,
      "d": 96.42656250001164,
      "v": 101
    },
    {
      "midi": 67,
      "hit": false,
      "t": 243903.49000000022,
      "d": 55.71312500000931,
      "v": 91
    },
    {
      "midi": 63,
      "hit": false,
      "t": 244002.77364583357,
      "d": 102.85500000001048,
      "v": 90
    },
    {
      "midi": 62,
      "hit": false,
      "t": 244005.6307291669,
      "d": 115.71187500000815,
      "v": 102
    },
    {
      "midi": 74,
      "hit": false,
      "t": 244077.05781250025,
      "d": 107.140625,
      "v": 91
    },
    {
      "midi": 69,
      "hit": false,
      "t": 244095.62885416692,
      "d": 104.99781249999069,
      "v": 95
    },
    {
      "midi": 51,
      "hit": false,
      "t": 244105.62864583358,
      "d": 94.99802083332906,
      "v": 102
    },
    {
      "midi": 58,
      "hit": false,
      "t": 244121.34260416692,
      "d": 84.2839583333407,
      "v": 102
    },
    {
      "midi": 63,
      "hit": false,
      "t": 244214.19781250026,
      "d": 102.14072916668374,
      "v": 91
    },
    {
      "midi": 62,
      "hit": false,
      "t": 244216.34062500027,
      "d": 114.28333333332557,
      "v": 102
    },
    {
      "midi": 69,
      "hit": false,
      "t": 244299.9103125003,
      "d": 105.71208333331742,
      "v": 97
    },
    {
      "midi": 74,
      "hit": false,
      "t": 244307.0530208336,
      "d": 85.71249999999418,
      "v": 75
    },
    {
      "midi": 51,
      "hit": false,
      "t": 244316.33854166695,
      "d": 92.85520833331975,
      "v": 94
    },
    {
      "midi": 58,
      "hit": false,
      "t": 244323.48125000027,
      "d": 92.85520833331975,
      "v": 98
    },
    {
      "midi": 67,
      "hit": false,
      "t": 244327.76687500026,
      "d": 67.85572916668025,
      "v": 76
    },
    {
      "midi": 63,
      "hit": false,
      "t": 244420.62208333358,
      "d": 99.99791666667443,
      "v": 83
    },
    {
      "midi": 62,
      "hit": false,
      "t": 244442.0502083336,
      "d": 92.85520833334886,
      "v": 102
    },
    {
      "midi": 74,
      "hit": false,
      "t": 244492.76343750025,
      "d": 102.14072916668374,
      "v": 90
    },
    {
      "midi": 69,
      "hit": false,
      "t": 244511.33447916692,
      "d": 102.14072916668374,
      "v": 89
    },
    {
      "midi": 51,
      "hit": false,
      "t": 244516.33437500027,
      "d": 108.56916666665347,
      "v": 92
    },
    {
      "midi": 58,
      "hit": false,
      "t": 244539.19104166693,
      "d": 81.42687500000466,
      "v": 90
    },
    {
      "midi": 63,
      "hit": false,
      "t": 244630.6177083336,
      "d": 103.56927083333721,
      "v": 85
    },
    {
      "midi": 62,
      "hit": false,
      "t": 244641.33177083358,
      "d": 118.5689583333442,
      "v": 102
    },
    {
      "midi": 74,
      "hit": false,
      "t": 244704.18760416692,
      "d": 120.71177083335351,
      "v": 92
    },
    {
      "midi": 69,
      "hit": false,
      "t": 244737.7583333336,
      "d": 94.28375000000233,
      "v": 79
    },
    {
      "midi": 51,
      "hit": false,
      "t": 244737.7583333336,
      "d": 103.56927083333721,
      "v": 96
    },
    {
      "midi": 58,
      "hit": false,
      "t": 244752.7580208336,
      "d": 92.85520833331975,
      "v": 91
    },
    {
      "midi": 63,
      "hit": false,
      "t": 244839.18479166692,
      "d": 116.42614583333489,
      "v": 84
    },
    {
      "midi": 62,
      "hit": false,
      "t": 244871.32697916692,
      "d": 102.14072916665464,
      "v": 99
    },
    {
      "midi": 69,
      "hit": false,
      "t": 244936.32562500026,
      "d": 116.42614583333489,
      "v": 90
    },
    {
      "midi": 74,
      "hit": false,
      "t": 244948.46822916693,
      "d": 94.99802083332906,
      "v": 65
    },
    {
      "midi": 51,
      "hit": false,
      "t": 244957.0394791669,
      "d": 91.42666666669538,
      "v": 77
    },
    {
      "midi": 58,
      "hit": false,
      "t": 244957.0394791669,
      "d": 109.28343750000931,
      "v": 84
    },
    {
      "midi": 67,
      "hit": false,
      "t": 244982.7532291669,
      "d": 55.71312500000931,
      "v": 86
    },
    {
      "midi": 63,
      "hit": false,
      "t": 245066.32291666692,
      "d": 122.85458333333372,
      "v": 83
    },
    {
      "midi": 62,
      "hit": false,
      "t": 245089.8938541669,
      "d": 99.28364583334769,
      "v": 102
    },
    {
      "midi": 74,
      "hit": false,
      "t": 245152.0354166669,
      "d": 123.56885416668956,
      "v": 80
    },
    {
      "midi": 69,
      "hit": false,
      "t": 245173.46354166692,
      "d": 115.71187500003725,
      "v": 79
    },
    {
      "midi": 51,
      "hit": false,
      "t": 245192.0345833336,
      "d": 99.2836458333768,
      "v": 96
    },
    {
      "midi": 58,
      "hit": false,
      "t": 245192.0345833336,
      "d": 108.56916666671168,
      "v": 81
    },
    {
      "midi": 67,
      "hit": false,
      "t": 245222.0339583336,
      "d": 55.71312500000931,
      "v": 64
    },
    {
      "midi": 63,
      "hit": false,
      "t": 245312.74635416697,
      "d": 94.99802083335817,
      "v": 88
    },
    {
      "midi": 62,
      "hit": false,
      "t": 245327.03177083365,
      "d": 103.56927083336632,
      "v": 88
    },
    {
      "midi": 74,
      "hit": false,
      "t": 245409.88718750034,
      "d": 120.71177083332441,
      "v": 74
    },
    {
      "midi": 69,
      "hit": false,
      "t": 245414.88708333368,
      "d": 112.14052083331626,
      "v": 79
    },
    {
      "midi": 51,
      "hit": false,
      "t": 245428.458229167,
      "d": 109.28343749998021,
      "v": 89
    },
    {
      "midi": 58,
      "hit": false,
      "t": 245428.458229167,
      "d": 120.71177083332441,
      "v": 81
    },
    {
      "midi": 67,
      "hit": false,
      "t": 245447.02927083368,
      "d": 72.85562499999651,
      "v": 71
    },
    {
      "midi": 63,
      "hit": false,
      "t": 245539.884479167,
      "d": 107.140625,
      "v": 83
    },
    {
      "midi": 62,
      "hit": false,
      "t": 245567.741041667,
      "d": 118.5689583333442,
      "v": 82
    },
    {
      "midi": 74,
      "hit": false,
      "t": 245644.882291667,
      "d": 104.28354166669305,
      "v": 94
    },
    {
      "midi": 69,
      "hit": false,
      "t": 245647.025104167,
      "d": 102.14072916668374,
      "v": 68
    },
    {
      "midi": 58,
      "hit": false,
      "t": 245652.02500000034,
      "d": 129.28302083333256,
      "v": 72
    },
    {
      "midi": 51,
      "hit": false,
      "t": 245679.16729166702,
      "d": 85.71249999999418,
      "v": 72
    },
    {
      "midi": 63,
      "hit": false,
      "t": 245772.02250000034,
      "d": 109.28343750000931,
      "v": 77
    },
    {
      "midi": 62,
      "hit": false,
      "t": 245811.3073958337,
      "d": 112.14052083331626,
      "v": 85
    },
    {
      "midi": 69,
      "hit": false,
      "t": 245874.16322916702,
      "d": 111.42624999998952,
      "v": 76
    },
    {
      "midi": 74,
      "hit": false,
      "t": 245885.59156250034,
      "d": 81.42687500000466,
      "v": 65
    },
    {
      "midi": 51,
      "hit": false,
      "t": 245916.30520833368,
      "d": 122.85458333333372,
      "v": 73
    },
    {
      "midi": 58,
      "hit": false,
      "t": 245925.59072916702,
      "d": 115.71187500000815,
      "v": 63
    },
    {
      "midi": 63,
      "hit": false,
      "t": 246009.160416667,
      "d": 127.14020833335235,
      "v": 75
    },
    {
      "midi": 62,
      "hit": false,
      "t": 246059.8736458337,
      "d": 137.13999999998487,
      "v": 92
    },
    {
      "midi": 69,
      "hit": false,
      "t": 246116.30104166703,
      "d": 129.28302083330345,
      "v": 71
    },
    {
      "midi": 74,
      "hit": false,
      "t": 246143.44333333368,
      "d": 104.99781249999069,
      "v": 61
    },
    {
      "midi": 51,
      "hit": false,
      "t": 246177.01406250036,
      "d": 140.71135416664765,
      "v": 68
    },
    {
      "midi": 58,
      "hit": false,
      "t": 246210.584791667,
      "d": 120.71177083332441,
      "v": 67
    },
    {
      "midi": 63,
      "hit": false,
      "t": 246282.72614583367,
      "d": 116.42614583333489,
      "v": 79
    },
    {
      "midi": 62,
      "hit": false,
      "t": 246334.15364583366,
      "d": 129.9972916666593,
      "v": 84
    },
    {
      "midi": 74,
      "hit": false,
      "t": 246396.29520833367,
      "d": 118.5689583333151,
      "v": 72
    },
    {
      "midi": 69,
      "hit": false,
      "t": 246403.437916667,
      "d": 99.99791666664532,
      "v": 64
    },
    {
      "midi": 51,
      "hit": false,
      "t": 246445.57989583365,
      "d": 127.85447916664998,
      "v": 70
    },
    {
      "midi": 58,
      "hit": false,
      "t": 246477.72208333365,
      "d": 111.42624999998952,
      "v": 69
    },
    {
      "midi": 63,
      "hit": false,
      "t": 246557.00614583364,
      "d": 99.28364583334769,
      "v": 71
    },
    {
      "midi": 62,
      "hit": false,
      "t": 246603.43375000032,
      "d": 123.56885416668956,
      "v": 80
    },
    {
      "midi": 74,
      "hit": false,
      "t": 246673.43229166698,
      "d": 104.28354166669305,
      "v": 75
    },
    {
      "midi": 69,
      "hit": false,
      "t": 246675.575104167,
      "d": 102.14072916668374,
      "v": 57
    },
    {
      "midi": 58,
      "hit": false,
      "t": 246680.57500000033,
      "d": 129.28302083333256,
      "v": 60
    },
    {
      "midi": 51,
      "hit": false,
      "t": 246707.717291667,
      "d": 85.71249999999418,
      "v": 60
    },
    {
      "midi": 63,
      "hit": false,
      "t": 246800.57250000033,
      "d": 109.28343750000931,
      "v": 63
    },
    {
      "midi": 62,
      "hit": false,
      "t": 246839.85739583368,
      "d": 112.14052083331626,
      "v": 68
    },
    {
      "midi": 69,
      "hit": false,
      "t": 246902.713229167,
      "d": 111.42624999998952,
      "v": 61
    },
    {
      "midi": 74,
      "hit": false,
      "t": 246914.14156250033,
      "d": 81.42687500000466,
      "v": 54
    },
    {
      "midi": 51,
      "hit": false,
      "t": 246944.85520833367,
      "d": 122.85458333333372,
      "v": 59
    },
    {
      "midi": 58,
      "hit": false,
      "t": 246954.140729167,
      "d": 115.71187500000815,
      "v": 52
    },
    {
      "midi": 63,
      "hit": false,
      "t": 247037.710416667,
      "d": 127.14020833335235,
      "v": 59
    },
    {
      "midi": 62,
      "hit": false,
      "t": 247088.42364583368,
      "d": 137.13999999998487,
      "v": 69
    },
    {
      "midi": 69,
      "hit": false,
      "t": 247144.85104166702,
      "d": 129.28302083330345,
      "v": 56
    },
    {
      "midi": 74,
      "hit": false,
      "t": 247171.99333333367,
      "d": 104.99781249999069,
      "v": 50
    },
    {
      "midi": 51,
      "hit": false,
      "t": 247205.56406250034,
      "d": 140.71135416664765,
      "v": 54
    },
    {
      "midi": 58,
      "hit": false,
      "t": 247239.134791667,
      "d": 120.71177083332441,
      "v": 53
    },
    {
      "midi": 63,
      "hit": false,
      "t": 247311.27614583366,
      "d": 116.42614583333489,
      "v": 59
    },
    {
      "midi": 62,
      "hit": false,
      "t": 247362.70364583365,
      "d": 129.9972916667175,
      "v": 61
    },
    {
      "midi": 74,
      "hit": false,
      "t": 247430.55937500033,
      "d": 104.28354166669305,
      "v": 66
    },
    {
      "midi": 69,
      "hit": false,
      "t": 247432.70218750034,
      "d": 102.14072916668374,
      "v": 52
    },
    {
      "midi": 58,
      "hit": false,
      "t": 247437.7020833337,
      "d": 129.28302083333256,
      "v": 54
    },
    {
      "midi": 51,
      "hit": false,
      "t": 247464.84437500036,
      "d": 85.71249999999418,
      "v": 54
    },
    {
      "midi": 63,
      "hit": false,
      "t": 247557.69958333368,
      "d": 109.28343750000931,
      "v": 56
    },
    {
      "midi": 62,
      "hit": false,
      "t": 247596.98447916703,
      "d": 112.14052083331626,
      "v": 60
    },
    {
      "midi": 69,
      "hit": false,
      "t": 247659.84031250037,
      "d": 111.42624999998952,
      "v": 55
    },
    {
      "midi": 74,
      "hit": false,
      "t": 247671.26864583368,
      "d": 81.42687500000466,
      "v": 50
    },
    {
      "midi": 51,
      "hit": false,
      "t": 247701.98229166702,
      "d": 122.85458333333372,
      "v": 53
    },
    {
      "midi": 58,
      "hit": false,
      "t": 247711.26781250036,
      "d": 115.71187500000815,
      "v": 48
    },
    {
      "midi": 63,
      "hit": false,
      "t": 247794.83750000034,
      "d": 127.14020833335235,
      "v": 54
    },
    {
      "midi": 62,
      "hit": false,
      "t": 247845.55072916704,
      "d": 137.13999999998487,
      "v": 61
    },
    {
      "midi": 69,
      "hit": false,
      "t": 247901.97812500037,
      "d": 129.28302083330345,
      "v": 51
    },
    {
      "midi": 74,
      "hit": false,
      "t": 247929.12041666702,
      "d": 104.99781249999069,
      "v": 46
    },
    {
      "midi": 51,
      "hit": false,
      "t": 247962.6911458337,
      "d": 140.71135416664765,
      "v": 50
    },
    {
      "midi": 58,
      "hit": false,
      "t": 247996.26187500035,
      "d": 120.71177083332441,
      "v": 49
    },
    {
      "midi": 63,
      "hit": false,
      "t": 248068.40322916702,
      "d": 116.42614583333489,
      "v": 54
    },
    {
      "midi": 62,
      "hit": false,
      "t": 248119.830729167,
      "d": 129.9972916666593,
      "v": 56
    },
    {
      "midi": 74,
      "hit": false,
      "t": 248181.972291667,
      "d": 118.5689583333151,
      "v": 50
    },
    {
      "midi": 69,
      "hit": false,
      "t": 248189.11500000034,
      "d": 99.99791666664532,
      "v": 47
    },
    {
      "midi": 51,
      "hit": false,
      "t": 248231.256979167,
      "d": 127.85447916664998,
      "v": 49
    },
    {
      "midi": 58,
      "hit": false,
      "t": 248263.399166667,
      "d": 111.42624999998952,
      "v": 48
    },
    {
      "midi": 63,
      "hit": false,
      "t": 248342.68322916699,
      "d": 99.28364583334769,
      "v": 49
    },
    {
      "midi": 62,
      "hit": false,
      "t": 248389.11083333366,
      "d": 123.56885416668956,
      "v": 53
    },
    {
      "midi": 74,
      "hit": false,
      "t": 248459.10937500032,
      "d": 104.28354166669305,
      "v": 48
    },
    {
      "midi": 69,
      "hit": false,
      "t": 248461.25218750033,
      "d": 102.14072916668374,
      "v": 40
    },
    {
      "midi": 58,
      "hit": false,
      "t": 248466.25208333367,
      "d": 129.28302083333256,
      "v": 40
    },
    {
      "midi": 51,
      "hit": false,
      "t": 248493.39437500035,
      "d": 85.71249999999418,
      "v": 40
    },
    {
      "midi": 63,
      "hit": false,
      "t": 248586.24958333367,
      "d": 109.28343750000931,
      "v": 46
    },
    {
      "midi": 62,
      "hit": false,
      "t": 248625.53447916702,
      "d": 112.14052083331626,
      "v": 45
    },
    {
      "midi": 69,
      "hit": false,
      "t": 248688.39031250036,
      "d": 111.42624999998952,
      "v": 40
    },
    {
      "midi": 74,
      "hit": false,
      "t": 248699.81864583367,
      "d": 81.42687500000466,
      "v": 36
    },
    {
      "midi": 51,
      "hit": false,
      "t": 248730.532291667,
      "d": 122.85458333333372,
      "v": 38
    },
    {
      "midi": 58,
      "hit": false,
      "t": 248739.81781250035,
      "d": 115.71187500000815,
      "v": 36
    }
  ]
}