{
  "jsonPath": "Unknown/Unknown/John Davis  Emma Doyle/santa-claus-is-coming-to-town.json",
  "path": "Unknown\\Unknown\\John Davis  Emma Doyle\\Santa Claus Is Coming To Town.mid",
  "name": "Santa Claus Is Coming To Town",
  "difficulty": "Advanced",
  "bpm": 150,
  "notes": [
    {
      "midi": 72,
      "hit": false,
      "t": 1600,
      "d": 320,
      "v": 101
    },
    {
      "midi": 60,
      "hit": false,
      "t": 1600,
      "d": 793.3333333333335,
      "v": 79
    },
    {
      "midi": 64,
      "hit": false,
      "t": 1600,
      "d": 793.3333333333335,
      "v": 92
    },
    {
      "midi": 67,
      "hit": false,
      "t": 1600,
      "d": 793.3333333333335,
      "v": 88
    },
    {
      "midi": 48,
      "hit": false,
      "t": 1600,
      "d": 800,
      "v": 90
    },
    {
      "midi": 76,
      "hit": false,
      "t": 2000,
      "d": 320,
      "v": 100
    },
    {
      "midi": 55,
      "hit": false,
      "t": 2000,
      "d": 393.3333333333335,
      "v": 73
    },
    {
      "midi": 69,
      "hit": false,
      "t": 2400,
      "d": 320,
      "v": 103
    },
    {
      "midi": 52,
      "hit": false,
      "t": 2400,
      "d": 230,
      "v": 80
    },
    {
      "midi": 57,
      "hit": false,
      "t": 2400,
      "d": 366.6666666666665,
      "v": 100
    },
    {
      "midi": 60,
      "hit": false,
      "t": 2400,
      "d": 390,
      "v": 96
    },
    {
      "midi": 64,
      "hit": false,
      "t": 2400,
      "d": 406.6666666666665,
      "v": 94
    },
    {
      "midi": 45,
      "hit": false,
      "t": 2400,
      "d": 783.333333333333,
      "v": 86
    },
    {
      "midi": 52,
      "hit": false,
      "t": 2666.6666666666665,
      "d": 516.6666666666665,
      "v": 81
    },
    {
      "midi": 72,
      "hit": false,
      "t": 2800,
      "d": 320,
      "v": 99
    },
    {
      "midi": 57,
      "hit": false,
      "t": 2933.333333333333,
      "d": 250,
      "v": 71
    },
    {
      "midi": 60,
      "hit": false,
      "t": 3066.6666666666665,
      "d": 133.33333333333303,
      "v": 94
    },
    {
      "midi": 41,
      "hit": false,
      "t": 3199.9999999999995,
      "d": 800,
      "v": 83
    },
    {
      "midi": 65,
      "hit": false,
      "t": 3200,
      "d": 320,
      "v": 101
    },
    {
      "midi": 57,
      "hit": false,
      "t": 3466.666666666666,
      "d": 533.3333333333335,
      "v": 86
    },
    {
      "midi": 60,
      "hit": false,
      "t": 3466.666666666666,
      "d": 533.3333333333335,
      "v": 102
    },
    {
      "midi": 65,
      "hit": false,
      "t": 3466.666666666666,
      "d": 533.3333333333335,
      "v": 102
    },
    {
      "midi": 69,
      "hit": false,
      "t": 3466.666666666666,
      "d": 533.3333333333335,
      "v": 92
    },
    {
      "midi": 69,
      "hit": false,
      "t": 3600,
      "d": 320,
      "v": 97
    },
    {
      "midi": 60,
      "hit": false,
      "t": 3999.9999999999995,
      "d": 230.00000000000045,
      "v": 80
    },
    {
      "midi": 62,
      "hit": false,
      "t": 3999.9999999999995,
      "d": 366.6666666666674,
      "v": 100
    },
    {
      "midi": 65,
      "hit": false,
      "t": 3999.9999999999995,
      "d": 390.00000000000045,
      "v": 96
    },
    {
      "midi": 69,
      "hit": false,
      "t": 3999.9999999999995,
      "d": 406.6666666666674,
      "v": 94
    },
    {
      "midi": 50,
      "hit": false,
      "t": 3999.9999999999995,
      "d": 783.3333333333344,
      "v": 86
    },
    {
      "midi": 60,
      "hit": false,
      "t": 4000,
      "d": 320,
      "v": 90
    },
    {
      "midi": 60,
      "hit": false,
      "t": 4266.666666666667,
      "d": 516.666666666667,
      "v": 81
    },
    {
      "midi": 65,
      "hit": false,
      "t": 4400,
      "d": 320,
      "v": 108
    },
    {
      "midi": 62,
      "hit": false,
      "t": 4533.333333333334,
      "d": 250,
      "v": 71
    },
    {
      "midi": 65,
      "hit": false,
      "t": 4666.666666666667,
      "d": 133.33333333333394,
      "v": 94
    },
    {
      "midi": 62,
      "hit": false,
      "t": 4800,
      "d": 106.66666666666697,
      "v": 97
    },
    {
      "midi": 55,
      "hit": false,
      "t": 4800.000000000001,
      "d": 1380,
      "v": 81
    },
    {
      "midi": 59,
      "hit": false,
      "t": 4800.000000000001,
      "d": 1380,
      "v": 81
    },
    {
      "midi": 62,
      "hit": false,
      "t": 4800.000000000001,
      "d": 1380,
      "v": 81
    },
    {
      "midi": 43,
      "hit": false,
      "t": 4800.000000000001,
      "d": 1600,
      "v": 67
    },
    {
      "midi": 74,
      "hit": false,
      "t": 4933.333333333334,
      "d": 106.66666666666697,
      "v": 101
    },
    {
      "midi": 74,
      "hit": false,
      "t": 5066.666666666668,
      "d": 106.66666666666697,
      "v": 97
    },
    {
      "midi": 74,
      "hit": false,
      "t": 5200.000000000002,
      "d": 106.66666666666697,
      "v": 100
    },
    {
      "midi": 71,
      "hit": false,
      "t": 5333.333333333336,
      "d": 106.66666666666697,
      "v": 106
    },
    {
      "midi": 67,
      "hit": false,
      "t": 5466.66666666667,
      "d": 106.66666666666697,
      "v": 100
    },
    {
      "midi": 66,
      "hit": false,
      "t": 5600.000000000004,
      "d": 106.66666666666697,
      "v": 104
    },
    {
      "midi": 64,
      "hit": false,
      "t": 5733.333333333338,
      "d": 106.66666666666697,
      "v": 100
    },
    {
      "midi": 62,
      "hit": false,
      "t": 5866.6666666666715,
      "d": 106.66666666666697,
      "v": 100
    },
    {
      "midi": 62,
      "hit": false,
      "t": 6000.0000000000055,
      "d": 106.66666666666697,
      "v": 94
    },
    {
      "midi": 59,
      "hit": false,
      "t": 6133.333333333339,
      "d": 106.66666666666697,
      "v": 112
    },
    {
      "midi": 55,
      "hit": false,
      "t": 6266.666666666668,
      "d": 93.33333333333303,
      "v": 77
    },
    {
      "midi": 59,
      "hit": false,
      "t": 6266.666666666668,
      "d": 93.33333333333303,
      "v": 77
    },
    {
      "midi": 62,
      "hit": false,
      "t": 6266.666666666668,
      "d": 93.33333333333303,
      "v": 77
    },
    {
      "midi": 55,
      "hit": false,
      "t": 6266.666666666673,
      "d": 106.66666666666697,
      "v": 97
    },
    {
      "midi": 59,
      "hit": false,
      "t": 6400.000000000001,
      "d": 230,
      "v": 80
    },
    {
      "midi": 62,
      "hit": false,
      "t": 6400.000000000001,
      "d": 366.66666666666697,
      "v": 100
    },
    {
      "midi": 67,
      "hit": false,
      "t": 6400.000000000001,
      "d": 390,
      "v": 96
    },
    {
      "midi": 71,
      "hit": false,
      "t": 6400.000000000001,
      "d": 406.66666666666697,
      "v": 94
    },
    {
      "midi": 43,
      "hit": false,
      "t": 6400.000000000001,
      "d": 783.3333333333339,
      "v": 86
    },
    {
      "midi": 50,
      "hit": false,
      "t": 6400.000000000007,
      "d": 320,
      "v": 111
    },
    {
      "midi": 59,
      "hit": false,
      "t": 6666.666666666668,
      "d": 516.666666666667,
      "v": 81
    },
    {
      "midi": 74,
      "hit": false,
      "t": 6800.000000000007,
      "d": 383.33333333333303,
      "v": 101
    },
    {
      "midi": 62,
      "hit": false,
      "t": 6933.333333333335,
      "d": 250,
      "v": 71
    },
    {
      "midi": 67,
      "hit": false,
      "t": 7066.666666666668,
      "d": 133.33333333333394,
      "v": 94
    },
    {
      "midi": 59,
      "hit": false,
      "t": 7200.000000000002,
      "d": 793.333333333333,
      "v": 79
    },
    {
      "midi": 62,
      "hit": false,
      "t": 7200.000000000002,
      "d": 793.333333333333,
      "v": 92
    },
    {
      "midi": 65,
      "hit": false,
      "t": 7200.000000000002,
      "d": 793.333333333333,
      "v": 88
    },
    {
      "midi": 67,
      "hit": false,
      "t": 7200.000000000002,
      "d": 796.6666666666661,
      "v": 88
    },
    {
      "midi": 43,
      "hit": false,
      "t": 7200.000000000002,
      "d": 799.9999999999991,
      "v": 90
    },
    {
      "midi": 55,
      "hit": false,
      "t": 7600.000000000002,
      "d": 393.33333333333303,
      "v": 73
    },
    {
      "midi": 62,
      "hit": false,
      "t": 7600.000000000007,
      "d": 320,
      "v": 99
    },
    {
      "midi": 60,
      "hit": false,
      "t": 8000.000000000001,
      "d": 793.3333333333348,
      "v": 79
    },
    {
      "midi": 64,
      "hit": false,
      "t": 8000.000000000001,
      "d": 793.3333333333348,
      "v": 92
    },
    {
      "midi": 67,
      "hit": false,
      "t": 8000.000000000001,
      "d": 793.3333333333348,
      "v": 88
    },
    {
      "midi": 48,
      "hit": false,
      "t": 8000.000000000001,
      "d": 800.0000000000009,
      "v": 90
    },
    {
      "midi": 60,
      "hit": false,
      "t": 8000.000000000007,
      "d": 213.33333333333394,
      "v": 91
    },
    {
      "midi": 62,
      "hit": false,
      "t": 8266.666666666675,
      "d": 106.66666666666606,
      "v": 93
    },
    {
      "midi": 55,
      "hit": false,
      "t": 8400.000000000002,
      "d": 393.33333333333394,
      "v": 73
    },
    {
      "midi": 64,
      "hit": false,
      "t": 8400.000000000007,
      "d": 320,
      "v": 97
    },
    {
      "midi": 58,
      "hit": false,
      "t": 8800.000000000002,
      "d": 230,
      "v": 80
    },
    {
      "midi": 60,
      "hit": false,
      "t": 8800.000000000002,
      "d": 366.66666666666606,
      "v": 100
    },
    {
      "midi": 64,
      "hit": false,
      "t": 8800.000000000002,
      "d": 390,
      "v": 96
    },
    {
      "midi": 67,
      "hit": false,
      "t": 8800.000000000002,
      "d": 406.66666666666606,
      "v": 94
    },
    {
      "midi": 48,
      "hit": false,
      "t": 8800.000000000002,
      "d": 783.3333333333321,
      "v": 86
    },
    {
      "midi": 64,
      "hit": false,
      "t": 8800.000000000007,
      "d": 640,
      "v": 113
    },
    {
      "midi": 58,
      "hit": false,
      "t": 9066.666666666668,
      "d": 516.6666666666661,
      "v": 81
    },
    {
      "midi": 60,
      "hit": false,
      "t": 9333.333333333334,
      "d": 250,
      "v": 71
    },
    {
      "midi": 64,
      "hit": false,
      "t": 9466.666666666668,
      "d": 133.33333333333212,
      "v": 94
    },
    {
      "midi": 41,
      "hit": false,
      "t": 9600,
      "d": 800,
      "v": 83
    },
    {
      "midi": 65,
      "hit": false,
      "t": 9600.000000000007,
      "d": 213.33333333333394,
      "v": 96
    },
    {
      "midi": 57,
      "hit": false,
      "t": 9866.666666666666,
      "d": 533.3333333333339,
      "v": 86
    },
    {
      "midi": 60,
      "hit": false,
      "t": 9866.666666666666,
      "d": 533.3333333333339,
      "v": 102
    },
    {
      "midi": 65,
      "hit": false,
      "t": 9866.666666666666,
      "d": 533.3333333333339,
      "v": 102
    },
    {
      "midi": 69,
      "hit": false,
      "t": 9866.666666666666,
      "d": 533.3333333333339,
      "v": 92
    },
    {
      "midi": 65,
      "hit": false,
      "t": 9866.666666666675,
      "d": 106.66666666666606,
      "v": 97
    },
    {
      "midi": 69,
      "hit": false,
      "t": 10000.000000000007,
      "d": 320,
      "v": 105
    },
    {
      "midi": 41,
      "hit": false,
      "t": 10400,
      "d": 800,
      "v": 83
    },
    {
      "midi": 68,
      "hit": false,
      "t": 10400.000000000007,
      "d": 640,
      "v": 100
    },
    {
      "midi": 56,
      "hit": false,
      "t": 10666.666666666666,
      "d": 533.3333333333339,
      "v": 86
    },
    {
      "midi": 60,
      "hit": false,
      "t": 10666.666666666666,
      "d": 533.3333333333339,
      "v": 102
    },
    {
      "midi": 65,
      "hit": false,
      "t": 10666.666666666666,
      "d": 533.3333333333339,
      "v": 102
    },
    {
      "midi": 68,
      "hit": false,
      "t": 10666.666666666666,
      "d": 533.3333333333339,
      "v": 92
    },
    {
      "midi": 55,
      "hit": false,
      "t": 11200,
      "d": 230,
      "v": 80
    },
    {
      "midi": 60,
      "hit": false,
      "t": 11200,
      "d": 366.66666666666606,
      "v": 100
    },
    {
      "midi": 64,
      "hit": false,
      "t": 11200,
      "d": 390,
      "v": 96
    },
    {
      "midi": 67,
      "hit": false,
      "t": 11200,
      "d": 406.66666666666606,
      "v": 94
    },
    {
      "midi": 48,
      "hit": false,
      "t": 11200,
      "d": 783.3333333333321,
      "v": 86
    },
    {
      "midi": 60,
      "hit": false,
      "t": 11200.000000000007,
      "d": 213.33333333333394,
      "v": 111
    },
    {
      "midi": 55,
      "hit": false,
      "t": 11466.666666666666,
      "d": 516.6666666666661,
      "v": 81
    },
    {
      "midi": 62,
      "hit": false,
      "t": 11466.666666666675,
      "d": 106.66666666666606,
      "v": 100
    },
    {
      "midi": 64,
      "hit": false,
      "t": 11600.000000000007,
      "d": 320,
      "v": 100
    },
    {
      "midi": 60,
      "hit": false,
      "t": 11733.333333333332,
      "d": 250,
      "v": 71
    },
    {
      "midi": 64,
      "hit": false,
      "t": 11866.666666666666,
      "d": 133.33333333333212,
      "v": 94
    },
    {
      "midi": 58,
      "hit": false,
      "t": 11999.999999999998,
      "d": 793.3333333333339,
      "v": 79
    },
    {
      "midi": 60,
      "hit": false,
      "t": 11999.999999999998,
      "d": 793.3333333333339,
      "v": 92
    },
    {
      "midi": 64,
      "hit": false,
      "t": 11999.999999999998,
      "d": 793.3333333333339,
      "v": 88
    },
    {
      "midi": 67,
      "hit": false,
      "t": 11999.999999999998,
      "d": 796.6666666666679,
      "v": 88
    },
    {
      "midi": 48,
      "hit": false,
      "t": 11999.999999999998,
      "d": 800.0000000000018,
      "v": 90
    },
    {
      "midi": 64,
      "hit": false,
      "t": 12000.000000000007,
      "d": 320,
      "v": 102
    },
    {
      "midi": 55,
      "hit": false,
      "t": 12399.999999999998,
      "d": 393.33333333333394,
      "v": 73
    },
    {
      "midi": 64,
      "hit": false,
      "t": 12400.000000000007,
      "d": 320,
      "v": 100
    },
    {
      "midi": 41,
      "hit": false,
      "t": 12800,
      "d": 800,
      "v": 83
    },
    {
      "midi": 65,
      "hit": false,
      "t": 12800.000000000007,
      "d": 213.33333333333394,
      "v": 114
    },
    {
      "midi": 57,
      "hit": false,
      "t": 13066.666666666666,
      "d": 533.3333333333339,
      "v": 86
    },
    {
      "midi": 60,
      "hit": false,
      "t": 13066.666666666666,
      "d": 533.3333333333339,
      "v": 102
    },
    {
      "midi": 65,
      "hit": false,
      "t": 13066.666666666666,
      "d": 533.3333333333339,
      "v": 102
    },
    {
      "midi": 69,
      "hit": false,
      "t": 13066.666666666666,
      "d": 533.3333333333339,
      "v": 92
    },
    {
      "midi": 64,
      "hit": false,
      "t": 13066.666666666675,
      "d": 106.66666666666606,
      "v": 104
    },
    {
      "midi": 60,
      "hit": false,
      "t": 13200.000000000007,
      "d": 320,
      "v": 104
    },
    {
      "midi": 60,
      "hit": false,
      "t": 13600,
      "d": 793.3333333333339,
      "v": 79
    },
    {
      "midi": 65,
      "hit": false,
      "t": 13600,
      "d": 793.3333333333339,
      "v": 92
    },
    {
      "midi": 68,
      "hit": false,
      "t": 13600,
      "d": 793.3333333333339,
      "v": 88
    },
    {
      "midi": 41,
      "hit": false,
      "t": 13600,
      "d": 800,
      "v": 90
    },
    {
      "midi": 60,
      "hit": false,
      "t": 13600.000000000007,
      "d": 640,
      "v": 100
    },
    {
      "midi": 56,
      "hit": false,
      "t": 14000,
      "d": 393.33333333333394,
      "v": 73
    },
    {
      "midi": 48,
      "hit": false,
      "t": 14400,
      "d": 800,
      "v": 83
    },
    {
      "midi": 60,
      "hit": false,
      "t": 14400.000000000007,
      "d": 320,
      "v": 97
    },
    {
      "midi": 55,
      "hit": false,
      "t": 14666.666666666666,
      "d": 533.3333333333339,
      "v": 86
    },
    {
      "midi": 60,
      "hit": false,
      "t": 14666.666666666666,
      "d": 533.3333333333339,
      "v": 102
    },
    {
      "midi": 64,
      "hit": false,
      "t": 14666.666666666666,
      "d": 533.3333333333339,
      "v": 102
    },
    {
      "midi": 67,
      "hit": false,
      "t": 14666.666666666666,
      "d": 533.3333333333339,
      "v": 92
    },
    {
      "midi": 64,
      "hit": false,
      "t": 14800.000000000007,
      "d": 320,
      "v": 96
    },
    {
      "midi": 45,
      "hit": false,
      "t": 15200,
      "d": 800,
      "v": 83
    },
    {
      "midi": 57,
      "hit": false,
      "t": 15200.000000000007,
      "d": 320,
      "v": 103
    },
    {
      "midi": 52,
      "hit": false,
      "t": 15466.666666666666,
      "d": 533.3333333333339,
      "v": 86
    },
    {
      "midi": 57,
      "hit": false,
      "t": 15466.666666666666,
      "d": 533.3333333333339,
      "v": 102
    },
    {
      "midi": 60,
      "hit": false,
      "t": 15466.666666666666,
      "d": 533.3333333333339,
      "v": 102
    },
    {
      "midi": 64,
      "hit": false,
      "t": 15466.666666666666,
      "d": 533.3333333333339,
      "v": 92
    },
    {
      "midi": 60,
      "hit": false,
      "t": 15600.000000000007,
      "d": 320,
      "v": 92
    },
    {
      "midi": 60,
      "hit": false,
      "t": 16000,
      "d": 793.3333333333321,
      "v": 79
    },
    {
      "midi": 62,
      "hit": false,
      "t": 16000,
      "d": 793.3333333333321,
      "v": 92
    },
    {
      "midi": 65,
      "hit": false,
      "t": 16000,
      "d": 793.3333333333321,
      "v": 88
    },
    {
      "midi": 69,
      "hit": false,
      "t": 16000,
      "d": 796.6666666666642,
      "v": 88
    },
    {
      "midi": 50,
      "hit": false,
      "t": 16000,
      "d": 799.9999999999964,
      "v": 90
    },
    {
      "midi": 57,
      "hit": false,
      "t": 16000.000000000007,
      "d": 320,
      "v": 86
    },
    {
      "midi": 57,
      "hit": false,
      "t": 16400,
      "d": 393.3333333333321,
      "v": 73
    },
    {
      "midi": 60,
      "hit": false,
      "t": 16400.000000000007,
      "d": 390,
      "v": 112
    },
    {
      "midi": 59,
      "hit": false,
      "t": 16799.999999999996,
      "d": 793.3333333333321,
      "v": 79
    },
    {
      "midi": 62,
      "hit": false,
      "t": 16799.999999999996,
      "d": 793.3333333333321,
      "v": 92
    },
    {
      "midi": 65,
      "hit": false,
      "t": 16799.999999999996,
      "d": 793.3333333333321,
      "v": 88
    },
    {
      "midi": 67,
      "hit": false,
      "t": 16799.999999999996,
      "d": 796.6666666666642,
      "v": 88
    },
    {
      "midi": 43,
      "hit": false,
      "t": 16799.999999999996,
      "d": 799.9999999999964,
      "v": 90
    },
    {
      "midi": 59,
      "hit": false,
      "t": 16806.666666666675,
      "d": 233.33333333333212,
      "v": 108
    },
    {
      "midi": 55,
      "hit": false,
      "t": 17199.999999999996,
      "d": 393.3333333333321,
      "v": 73
    },
    {
      "midi": 53,
      "hit": false,
      "t": 17200.000000000007,
      "d": 320,
      "v": 99
    },
    {
      "midi": 55,
      "hit": false,
      "t": 17599.999999999993,
      "d": 230,
      "v": 80
    },
    {
      "midi": 60,
      "hit": false,
      "t": 17599.999999999993,
      "d": 366.6666666666679,
      "v": 100
    },
    {
      "midi": 64,
      "hit": false,
      "t": 17599.999999999993,
      "d": 390,
      "v": 96
    },
    {
      "midi": 67,
      "hit": false,
      "t": 17599.999999999993,
      "d": 406.6666666666679,
      "v": 94
    },
    {
      "midi": 48,
      "hit": false,
      "t": 17599.999999999993,
      "d": 783.3333333333358,
      "v": 86
    },
    {
      "midi": 55,
      "hit": false,
      "t": 17600.000000000007,
      "d": 790,
      "v": 113
    },
    {
      "midi": 55,
      "hit": false,
      "t": 17866.66666666666,
      "d": 516.6666666666679,
      "v": 81
    },
    {
      "midi": 60,
      "hit": false,
      "t": 18133.33333333333,
      "d": 250,
      "v": 71
    },
    {
      "midi": 64,
      "hit": false,
      "t": 18266.66666666666,
      "d": 133.33333333333576,
      "v": 94
    },
    {
      "midi": 45,
      "hit": false,
      "t": 18399.999999999996,
      "d": 800,
      "v": 83
    },
    {
      "midi": 52,
      "hit": false,
      "t": 18406.666666666675,
      "d": 783.3333333333321,
      "v": 112
    },
    {
      "midi": 52,
      "hit": false,
      "t": 18666.666666666664,
      "d": 533.3333333333321,
      "v": 86
    },
    {
      "midi": 57,
      "hit": false,
      "t": 18666.666666666664,
      "d": 533.3333333333321,
      "v": 102
    },
    {
      "midi": 60,
      "hit": false,
      "t": 18666.666666666664,
      "d": 533.3333333333321,
      "v": 102
    },
    {
      "midi": 64,
      "hit": false,
      "t": 18666.666666666664,
      "d": 533.3333333333321,
      "v": 92
    },
    {
      "midi": 60,
      "hit": false,
      "t": 19199.999999999996,
      "d": 793.3333333333321,
      "v": 79
    },
    {
      "midi": 62,
      "hit": false,
      "t": 19199.999999999996,
      "d": 793.3333333333321,
      "v": 92
    },
    {
      "midi": 65,
      "hit": false,
      "t": 19199.999999999996,
      "d": 793.3333333333321,
      "v": 88
    },
    {
      "midi": 69,
      "hit": false,
      "t": 19199.999999999996,
      "d": 796.6666666666642,
      "v": 88
    },
    {
      "midi": 50,
      "hit": false,
      "t": 19199.999999999996,
      "d": 799.9999999999964,
      "v": 90
    },
    {
      "midi": 53,
      "hit": false,
      "t": 19206.666666666675,
      "d": 633.3333333333321,
      "v": 103
    },
    {
      "midi": 57,
      "hit": false,
      "t": 19599.999999999996,
      "d": 393.3333333333321,
      "v": 73
    },
    {
      "midi": 43,
      "hit": false,
      "t": 19999.999999999993,
      "d": 800,
      "v": 83
    },
    {
      "midi": 59,
      "hit": false,
      "t": 20266.66666666666,
      "d": 533.3333333333321,
      "v": 86
    },
    {
      "midi": 62,
      "hit": false,
      "t": 20266.66666666666,
      "d": 533.3333333333321,
      "v": 102
    },
    {
      "midi": 65,
      "hit": false,
      "t": 20266.66666666666,
      "d": 533.3333333333321,
      "v": 102
    },
    {
      "midi": 67,
      "hit": false,
      "t": 20266.66666666666,
      "d": 533.3333333333321,
      "v": 92
    },
    {
      "midi": 62,
      "hit": false,
      "t": 20400.000000000007,
      "d": 665.8333333333321,
      "v": 98
    },
    {
      "midi": 55,
      "hit": false,
      "t": 20799.999999999993,
      "d": 230,
      "v": 80
    },
    {
      "midi": 60,
      "hit": false,
      "t": 20799.999999999993,
      "d": 366.6666666666679,
      "v": 100
    },
    {
      "midi": 64,
      "hit": false,
      "t": 20799.999999999993,
      "d": 390,
      "v": 96
    },
    {
      "midi": 67,
      "hit": false,
      "t": 20799.999999999993,
      "d": 406.6666666666679,
      "v": 94
    },
    {
      "midi": 48,
      "hit": false,
      "t": 20799.999999999993,
      "d": 783.3333333333358,
      "v": 86
    },
    {
      "midi": 60,
      "hit": false,
      "t": 20800.000000000007,
      "d": 213.33333333333212,
      "v": 91
    },
    {
      "midi": 55,
      "hit": false,
      "t": 21066.66666666666,
      "d": 516.6666666666679,
      "v": 81
    },
    {
      "midi": 62,
      "hit": false,
      "t": 21066.66666666667,
      "d": 106.66666666666788,
      "v": 100
    },
    {
      "midi": 64,
      "hit": false,
      "t": 21200.000000000007,
      "d": 320,
      "v": 107
    },
    {
      "midi": 60,
      "hit": false,
      "t": 21333.33333333333,
      "d": 250,
      "v": 71
    },
    {
      "midi": 64,
      "hit": false,
      "t": 21466.66666666666,
      "d": 133.33333333333576,
      "v": 94
    },
    {
      "midi": 58,
      "hit": false,
      "t": 21599.999999999996,
      "d": 230,
      "v": 80
    },
    {
      "midi": 60,
      "hit": false,
      "t": 21599.999999999996,
      "d": 366.6666666666679,
      "v": 100
    },
    {
      "midi": 64,
      "hit": false,
      "t": 21599.999999999996,
      "d": 390,
      "v": 96
    },
    {
      "midi": 67,
      "hit": false,
      "t": 21599.999999999996,
      "d": 406.6666666666679,
      "v": 94
    },
    {
      "midi": 48,
      "hit": false,
      "t": 21599.999999999996,
      "d": 783.3333333333358,
      "v": 86
    },
    {
      "midi": 64,
      "hit": false,
      "t": 21600.000000000007,
      "d": 640,
      "v": 95
    },
    {
      "midi": 58,
      "hit": false,
      "t": 21866.666666666664,
      "d": 516.6666666666679,
      "v": 81
    },
    {
      "midi": 60,
      "hit": false,
      "t": 22133.333333333332,
      "d": 250,
      "v": 71
    },
    {
      "midi": 64,
      "hit": false,
      "t": 22266.666666666664,
      "d": 133.33333333333576,
      "v": 94
    },
    {
      "midi": 60,
      "hit": false,
      "t": 22400,
      "d": 793.3333333333321,
      "v": 79
    },
    {
      "midi": 65,
      "hit": false,
      "t": 22400,
      "d": 793.3333333333321,
      "v": 92
    },
    {
      "midi": 69,
      "hit": false,
      "t": 22400,
      "d": 793.3333333333321,
      "v": 88
    },
    {
      "midi": 41,
      "hit": false,
      "t": 22400,
      "d": 800,
      "v": 90
    },
    {
      "midi": 65,
      "hit": false,
      "t": 22400.000000000007,
      "d": 213.33333333333212,
      "v": 98
    },
    {
      "midi": 65,
      "hit": false,
      "t": 22666.66666666667,
      "d": 106.66666666666788,
      "v": 97
    },
    {
      "midi": 57,
      "hit": false,
      "t": 22800,
      "d": 393.3333333333321,
      "v": 73
    },
    {
      "midi": 69,
      "hit": false,
      "t": 22800.000000000007,
      "d": 320,
      "v": 103
    },
    {
      "midi": 56,
      "hit": false,
      "t": 23200,
      "d": 230,
      "v": 80
    },
    {
      "midi": 60,
      "hit": false,
      "t": 23200,
      "d": 366.6666666666679,
      "v": 100
    },
    {
      "midi": 65,
      "hit": false,
      "t": 23200,
      "d": 390,
      "v": 96
    },
    {
      "midi": 68,
      "hit": false,
      "t": 23200,
      "d": 406.6666666666679,
      "v": 94
    },
    {
      "midi": 41,
      "hit": false,
      "t": 23200,
      "d": 783.3333333333358,
      "v": 86
    },
    {
      "midi": 68,
      "hit": false,
      "t": 23200.000000000007,
      "d": 640,
      "v": 98
    },
    {
      "midi": 56,
      "hit": false,
      "t": 23466.666666666668,
      "d": 516.6666666666679,
      "v": 81
    },
    {
      "midi": 60,
      "hit": false,
      "t": 23733.333333333336,
      "d": 250,
      "v": 71
    },
    {
      "midi": 65,
      "hit": false,
      "t": 23866.666666666668,
      "d": 133.33333333333576,
      "v": 94
    },
    {
      "midi": 48,
      "hit": false,
      "t": 24000.000000000004,
      "d": 800,
      "v": 83
    },
    {
      "midi": 60,
      "hit": false,
      "t": 24000.000000000007,
      "d": 213.33333333333212,
      "v": 91
    },
    {
      "midi": 62,
      "hit": false,
      "t": 24266.66666666667,
      "d": 106.66666666666788,
      "v": 101
    },
    {
      "midi": 55,
      "hit": false,
      "t": 24266.66666666667,
      "d": 533.3333333333321,
      "v": 86
    },
    {
      "midi": 60,
      "hit": false,
      "t": 24266.66666666667,
      "d": 533.3333333333321,
      "v": 102
    },
    {
      "midi": 64,
      "hit": false,
      "t": 24266.66666666667,
      "d": 533.3333333333321,
      "v": 102
    },
    {
      "midi": 67,
      "hit": false,
      "t": 24266.66666666667,
      "d": 533.3333333333321,
      "v": 92
    },
    {
      "midi": 64,
      "hit": false,
      "t": 24400.000000000007,
      "d": 320,
      "v": 91
    },
    {
      "midi": 58,
      "hit": false,
      "t": 24800.000000000004,
      "d": 230,
      "v": 80
    },
    {
      "midi": 60,
      "hit": false,
      "t": 24800.000000000004,
      "d": 366.6666666666679,
      "v": 100
    },
    {
      "midi": 64,
      "hit": false,
      "t": 24800.000000000004,
      "d": 390,
      "v": 96
    },
    {
      "midi": 67,
      "hit": false,
      "t": 24800.000000000004,
      "d": 406.6666666666679,
      "v": 94
    },
    {
      "midi": 48,
      "hit": false,
      "t": 24800.000000000004,
      "d": 783.3333333333358,
      "v": 86
    },
    {
      "midi": 64,
      "hit": false,
      "t": 24800.000000000007,
      "d": 320,
      "v": 112
    },
    {
      "midi": 58,
      "hit": false,
      "t": 25066.66666666667,
      "d": 516.6666666666679,
      "v": 81
    },
    {
      "midi": 64,
      "hit": false,
      "t": 25200.000000000007,
      "d": 320,
      "v": 96
    },
    {
      "midi": 60,
      "hit": false,
      "t": 25333.33333333334,
      "d": 250,
      "v": 71
    },
    {
      "midi": 64,
      "hit": false,
      "t": 25466.66666666667,
      "d": 133.33333333333576,
      "v": 94
    },
    {
      "midi": 65,
      "hit": false,
      "t": 25600.000000000007,
      "d": 213.33333333333212,
      "v": 97
    },
    {
      "midi": 60,
      "hit": false,
      "t": 25600.000000000007,
      "d": 793.3333333333321,
      "v": 79
    },
    {
      "midi": 65,
      "hit": false,
      "t": 25600.000000000007,
      "d": 793.3333333333321,
      "v": 92
    },
    {
      "midi": 69,
      "hit": false,
      "t": 25600.000000000007,
      "d": 793.3333333333321,
      "v": 88
    },
    {
      "midi": 41,
      "hit": false,
      "t": 25600.000000000007,
      "d": 800,
      "v": 90
    },
    {
      "midi": 64,
      "hit": false,
      "t": 25866.66666666667,
      "d": 106.66666666666788,
      "v": 92
    },
    {
      "midi": 60,
      "hit": false,
      "t": 26000.000000000007,
      "d": 320,
      "v": 102
    },
    {
      "midi": 57,
      "hit": false,
      "t": 26000.000000000007,
      "d": 393.3333333333321,
      "v": 73
    },
    {
      "midi": 60,
      "hit": false,
      "t": 26400.000000000007,
      "d": 640,
      "v": 85
    },
    {
      "midi": 60,
      "hit": false,
      "t": 26400.000000000007,
      "d": 793.3333333333321,
      "v": 79
    },
    {
      "midi": 65,
      "hit": false,
      "t": 26400.000000000007,
      "d": 793.3333333333321,
      "v": 92
    },
    {
      "midi": 68,
      "hit": false,
      "t": 26400.000000000007,
      "d": 793.3333333333321,
      "v": 88
    },
    {
      "midi": 41,
      "hit": false,
      "t": 26400.000000000007,
      "d": 800,
      "v": 90
    },
    {
      "midi": 56,
      "hit": false,
      "t": 26800.000000000007,
      "d": 393.3333333333321,
      "v": 73
    },
    {
      "midi": 60,
      "hit": false,
      "t": 27200.000000000007,
      "d": 320,
      "v": 98
    },
    {
      "midi": 55,
      "hit": false,
      "t": 27200.000000000007,
      "d": 230,
      "v": 80
    },
    {
      "midi": 60,
      "hit": false,
      "t": 27200.000000000007,
      "d": 366.6666666666679,
      "v": 100
    },
    {
      "midi": 64,
      "hit": false,
      "t": 27200.000000000007,
      "d": 390,
      "v": 96
    },
    {
      "midi": 67,
      "hit": false,
      "t": 27200.000000000007,
      "d": 406.6666666666679,
      "v": 94
    },
    {
      "midi": 48,
      "hit": false,
      "t": 27200.000000000007,
      "d": 783.3333333333358,
      "v": 86
    },
    {
      "midi": 55,
      "hit": false,
      "t": 27466.666666666675,
      "d": 516.6666666666679,
      "v": 81
    },
    {
      "midi": 64,
      "hit": false,
      "t": 27600.000000000007,
      "d": 320,
      "v": 91
    },
    {
      "midi": 60,
      "hit": false,
      "t": 27733.333333333343,
      "d": 250,
      "v": 71
    },
    {
      "midi": 64,
      "hit": false,
      "t": 27866.666666666675,
      "d": 133.33333333333576,
      "v": 94
    },
    {
      "midi": 57,
      "hit": false,
      "t": 28000.000000000007,
      "d": 320,
      "v": 100
    },
    {
      "midi": 57,
      "hit": false,
      "t": 28000.00000000001,
      "d": 793.3333333333321,
      "v": 79
    },
    {
      "midi": 60,
      "hit": false,
      "t": 28000.00000000001,
      "d": 793.3333333333321,
      "v": 92
    },
    {
      "midi": 64,
      "hit": false,
      "t": 28000.00000000001,
      "d": 793.3333333333321,
      "v": 88
    },
    {
      "midi": 45,
      "hit": false,
      "t": 28000.00000000001,
      "d": 800,
      "v": 90
    },
    {
      "midi": 60,
      "hit": false,
      "t": 28400.000000000007,
      "d": 320,
      "v": 97
    },
    {
      "midi": 52,
      "hit": false,
      "t": 28400.00000000001,
      "d": 393.3333333333321,
      "v": 73
    },
    {
      "midi": 57,
      "hit": false,
      "t": 28800.000000000007,
      "d": 320,
      "v": 97
    },
    {
      "midi": 60,
      "hit": false,
      "t": 28800.00000000001,
      "d": 230,
      "v": 80
    },
    {
      "midi": 62,
      "hit": false,
      "t": 28800.00000000001,
      "d": 366.6666666666679,
      "v": 100
    },
    {
      "midi": 65,
      "hit": false,
      "t": 28800.00000000001,
      "d": 390,
      "v": 96
    },
    {
      "midi": 69,
      "hit": false,
      "t": 28800.00000000001,
      "d": 406.6666666666679,
      "v": 94
    },
    {
      "midi": 50,
      "hit": false,
      "t": 28800.00000000001,
      "d": 783.3333333333358,
      "v": 86
    },
    {
      "midi": 60,
      "hit": false,
      "t": 29066.66666666668,
      "d": 516.6666666666679,
      "v": 81
    },
    {
      "midi": 60,
      "hit": false,
      "t": 29200.000000000007,
      "d": 390,
      "v": 100
    },
    {
      "midi": 62,
      "hit": false,
      "t": 29333.333333333347,
      "d": 250,
      "v": 71
    },
    {
      "midi": 65,
      "hit": false,
      "t": 29466.66666666668,
      "d": 133.33333333333576,
      "v": 94
    },
    {
      "midi": 43,
      "hit": false,
      "t": 29600.000000000015,
      "d": 800,
      "v": 83
    },
    {
      "midi": 59,
      "hit": false,
      "t": 29606.666666666675,
      "d": 233.33333333333212,
      "v": 113
    },
    {
      "midi": 59,
      "hit": false,
      "t": 29866.666666666682,
      "d": 533.3333333333321,
      "v": 86
    },
    {
      "midi": 62,
      "hit": false,
      "t": 29866.666666666682,
      "d": 533.3333333333321,
      "v": 102
    },
    {
      "midi": 65,
      "hit": false,
      "t": 29866.666666666682,
      "d": 533.3333333333321,
      "v": 102
    },
    {
      "midi": 67,
      "hit": false,
      "t": 29866.666666666682,
      "d": 533.3333333333321,
      "v": 92
    },
    {
      "midi": 53,
      "hit": false,
      "t": 30000.000000000007,
      "d": 320,
      "v": 100
    },
    {
      "midi": 55,
      "hit": false,
      "t": 30400.000000000007,
      "d": 790,
      "v": 100
    },
    {
      "midi": 55,
      "hit": false,
      "t": 30400.000000000015,
      "d": 230,
      "v": 80
    },
    {
      "midi": 60,
      "hit": false,
      "t": 30400.000000000015,
      "d": 366.6666666666679,
      "v": 100
    },
    {
      "midi": 64,
      "hit": false,
      "t": 30400.000000000015,
      "d": 390,
      "v": 96
    },
    {
      "midi": 67,
      "hit": false,
      "t": 30400.000000000015,
      "d": 406.6666666666679,
      "v": 94
    },
    {
      "midi": 48,
      "hit": false,
      "t": 30400.000000000015,
      "d": 783.3333333333358,
      "v": 86
    },
    {
      "midi": 55,
      "hit": false,
      "t": 30666.666666666682,
      "d": 516.6666666666679,
      "v": 81
    },
    {
      "midi": 60,
      "hit": false,
      "t": 30933.33333333335,
      "d": 250,
      "v": 71
    },
    {
      "midi": 64,
      "hit": false,
      "t": 31066.666666666682,
      "d": 133.33333333333576,
      "v": 94
    },
    {
      "midi": 60,
      "hit": false,
      "t": 31200.00000000002,
      "d": 793.3333333333321,
      "v": 79
    },
    {
      "midi": 65,
      "hit": false,
      "t": 31200.00000000002,
      "d": 793.3333333333321,
      "v": 92
    },
    {
      "midi": 69,
      "hit": false,
      "t": 31200.00000000002,
      "d": 793.3333333333321,
      "v": 88
    },
    {
      "midi": 41,
      "hit": false,
      "t": 31200.00000000002,
      "d": 800,
      "v": 90
    },
    {
      "midi": 57,
      "hit": false,
      "t": 31206.666666666675,
      "d": 1433.3333333333321,
      "v": 107
    },
    {
      "midi": 57,
      "hit": false,
      "t": 31600.00000000002,
      "d": 393.3333333333321,
      "v": 73
    },
    {
      "midi": 55,
      "hit": false,
      "t": 32000.00000000002,
      "d": 486.66666666666424,
      "v": 82
    },
    {
      "midi": 67,
      "hit": false,
      "t": 32000.00000000002,
      "d": 659.9999999999964,
      "v": 100
    },
    {
      "midi": 60,
      "hit": false,
      "t": 32000.00000000002,
      "d": 686.6666666666642,
      "v": 88
    },
    {
      "midi": 48,
      "hit": false,
      "t": 32000.00000000002,
      "d": 1599.9999999999964,
      "v": 88
    },
    {
      "midi": 55,
      "hit": false,
      "t": 32686.666666666682,
      "d": 466.6666666666606,
      "v": 71
    },
    {
      "midi": 67,
      "hit": false,
      "t": 32800.000000000015,
      "d": 623.3333333333285,
      "v": 109
    },
    {
      "midi": 60,
      "hit": false,
      "t": 32800.000000000015,
      "d": 643.3333333333285,
      "v": 100
    },
    {
      "midi": 64,
      "hit": false,
      "t": 33066.66666666668,
      "d": 403.33333333333576,
      "v": 102
    },
    {
      "midi": 67,
      "hit": false,
      "t": 33200.00000000001,
      "d": 320,
      "v": 102
    },
    {
      "midi": 55,
      "hit": false,
      "t": 33466.66666666668,
      "d": 133.33333333333576,
      "v": 80
    },
    {
      "midi": 70,
      "hit": false,
      "t": 33600.00000000001,
      "d": 320,
      "v": 98
    },
    {
      "midi": 58,
      "hit": false,
      "t": 33600.000000000015,
      "d": 793.3333333333358,
      "v": 79
    },
    {
      "midi": 62,
      "hit": false,
      "t": 33600.000000000015,
      "d": 793.3333333333358,
      "v": 92
    },
    {
      "midi": 65,
      "hit": false,
      "t": 33600.000000000015,
      "d": 793.3333333333358,
      "v": 88
    },
    {
      "midi": 67,
      "hit": false,
      "t": 33600.000000000015,
      "d": 796.6666666666715,
      "v": 88
    },
    {
      "midi": 43,
      "hit": false,
      "t": 33600.000000000015,
      "d": 800.0000000000073,
      "v": 90
    },
    {
      "midi": 65,
      "hit": false,
      "t": 34000.00000000001,
      "d": 320,
      "v": 94
    },
    {
      "midi": 55,
      "hit": false,
      "t": 34000.000000000015,
      "d": 393.33333333333576,
      "v": 73
    },
    {
      "midi": 67,
      "hit": false,
      "t": 34400.00000000001,
      "d": 320,
      "v": 95
    },
    {
      "midi": 58,
      "hit": false,
      "t": 34400.00000000002,
      "d": 230,
      "v": 80
    },
    {
      "midi": 60,
      "hit": false,
      "t": 34400.00000000002,
      "d": 366.66666666666424,
      "v": 100
    },
    {
      "midi": 64,
      "hit": false,
      "t": 34400.00000000002,
      "d": 390,
      "v": 96
    },
    {
      "midi": 67,
      "hit": false,
      "t": 34400.00000000002,
      "d": 406.66666666666424,
      "v": 94
    },
    {
      "midi": 48,
      "hit": false,
      "t": 34400.00000000002,
      "d": 783.3333333333285,
      "v": 86
    },
    {
      "midi": 58,
      "hit": false,
      "t": 34666.666666666686,
      "d": 516.6666666666642,
      "v": 81
    },
    {
      "midi": 67,
      "hit": false,
      "t": 34800.00000000001,
      "d": 320,
      "v": 109
    },
    {
      "midi": 60,
      "hit": false,
      "t": 34933.33333333335,
      "d": 250,
      "v": 71
    },
    {
      "midi": 64,
      "hit": false,
      "t": 35066.666666666686,
      "d": 133.33333333332848,
      "v": 94
    },
    {
      "midi": 65,
      "hit": false,
      "t": 35200.00000000001,
      "d": 320,
      "v": 100
    },
    {
      "midi": 41,
      "hit": false,
      "t": 35200.000000000015,
      "d": 293.3333333333285,
      "v": 86
    },
    {
      "midi": 57,
      "hit": false,
      "t": 35466.66666666668,
      "d": 716.6666666666642,
      "v": 88
    },
    {
      "midi": 60,
      "hit": false,
      "t": 35466.66666666668,
      "d": 716.6666666666642,
      "v": 88
    },
    {
      "midi": 65,
      "hit": false,
      "t": 35466.66666666668,
      "d": 716.6666666666642,
      "v": 88
    },
    {
      "midi": 65,
      "hit": false,
      "t": 35600.00000000001,
      "d": 640,
      "v": 85
    },
    {
      "midi": 41,
      "hit": false,
      "t": 36266.66666666668,
      "d": 140,
      "v": 88
    },
    {
      "midi": 69,
      "hit": false,
      "t": 36400.00000000001,
      "d": 320,
      "v": 112
    },
    {
      "midi": 57,
      "hit": false,
      "t": 36400.000000000015,
      "d": 120,
      "v": 84
    },
    {
      "midi": 60,
      "hit": false,
      "t": 36400.000000000015,
      "d": 120,
      "v": 84
    },
    {
      "midi": 65,
      "hit": false,
      "t": 36400.000000000015,
      "d": 120,
      "v": 84
    },
    {
      "midi": 70,
      "hit": false,
      "t": 36800.00000000001,
      "d": 320,
      "v": 100
    },
    {
      "midi": 58,
      "hit": false,
      "t": 36800.000000000015,
      "d": 230,
      "v": 80
    },
    {
      "midi": 62,
      "hit": false,
      "t": 36800.000000000015,
      "d": 366.66666666666424,
      "v": 100
    },
    {
      "midi": 65,
      "hit": false,
      "t": 36800.000000000015,
      "d": 390,
      "v": 96
    },
    {
      "midi": 67,
      "hit": false,
      "t": 36800.000000000015,
      "d": 406.66666666666424,
      "v": 94
    },
    {
      "midi": 43,
      "hit": false,
      "t": 36800.000000000015,
      "d": 783.3333333333285,
      "v": 86
    },
    {
      "midi": 58,
      "hit": false,
      "t": 37066.66666666668,
      "d": 516.6666666666642,
      "v": 81
    },
    {
      "midi": 65,
      "hit": false,
      "t": 37200.00000000001,
      "d": 320,
      "v": 99
    },
    {
      "midi": 62,
      "hit": false,
      "t": 37333.33333333334,
      "d": 250,
      "v": 71
    },
    {
      "midi": 65,
      "hit": false,
      "t": 37466.66666666668,
      "d": 133.33333333332848,
      "v": 94
    },
    {
      "midi": 67,
      "hit": false,
      "t": 37600.00000000001,
      "d": 320,
      "v": 100
    },
    {
      "midi": 58,
      "hit": false,
      "t": 37600.00000000001,
      "d": 793.3333333333358,
      "v": 79
    },
    {
      "midi": 60,
      "hit": false,
      "t": 37600.00000000001,
      "d": 793.3333333333358,
      "v": 92
    },
    {
      "midi": 64,
      "hit": false,
      "t": 37600.00000000001,
      "d": 793.3333333333358,
      "v": 88
    },
    {
      "midi": 67,
      "hit": false,
      "t": 37600.00000000001,
      "d": 796.6666666666715,
      "v": 88
    },
    {
      "midi": 48,
      "hit": false,
      "t": 37600.00000000001,
      "d": 800.0000000000073,
      "v": 90
    },
    {
      "midi": 67,
      "hit": false,
      "t": 38000.00000000001,
      "d": 320,
      "v": 99
    },
    {
      "midi": 55,
      "hit": false,
      "t": 38000.00000000001,
      "d": 393.33333333333576,
      "v": 73
    },
    {
      "midi": 65,
      "hit": false,
      "t": 38400.00000000001,
      "d": 783.3333333333358,
      "v": 100
    },
    {
      "midi": 60,
      "hit": false,
      "t": 38400.000000000015,
      "d": 1116.6666666666642,
      "v": 78
    },
    {
      "midi": 69,
      "hit": false,
      "t": 38400.000000000015,
      "d": 1120,
      "v": 82
    },
    {
      "midi": 65,
      "hit": false,
      "t": 38400.000000000015,
      "d": 1166.6666666666642,
      "v": 92
    },
    {
      "midi": 41,
      "hit": false,
      "t": 38400.000000000015,
      "d": 1600.0000000000073,
      "v": 80
    },
    {
      "midi": 57,
      "hit": false,
      "t": 39466.66666666668,
      "d": 533.333333333343,
      "v": 102
    },
    {
      "midi": 69,
      "hit": false,
      "t": 39600.00000000001,
      "d": 320,
      "v": 108
    },
    {
      "midi": 60,
      "hit": false,
      "t": 39600.000000000015,
      "d": 370.0000000000073,
      "v": 62
    },
    {
      "midi": 65,
      "hit": false,
      "t": 39733.33333333335,
      "d": 236.66666666667152,
      "v": 58
    },
    {
      "midi": 69,
      "hit": false,
      "t": 39866.666666666686,
      "d": 133.33333333333576,
      "v": 98
    },
    {
      "midi": 72,
      "hit": false,
      "t": 40000.00000000001,
      "d": 320,
      "v": 99
    },
    {
      "midi": 55,
      "hit": false,
      "t": 40000.00000000002,
      "d": 793.3333333333358,
      "v": 79
    },
    {
      "midi": 57,
      "hit": false,
      "t": 40000.00000000002,
      "d": 793.3333333333358,
      "v": 92
    },
    {
      "midi": 60,
      "hit": false,
      "t": 40000.00000000002,
      "d": 793.3333333333358,
      "v": 88
    },
    {
      "midi": 64,
      "hit": false,
      "t": 40000.00000000002,
      "d": 796.6666666666715,
      "v": 88
    },
    {
      "midi": 45,
      "hit": false,
      "t": 40000.00000000002,
      "d": 800.0000000000073,
      "v": 90
    },
    {
      "midi": 67,
      "hit": false,
      "t": 40400.00000000001,
      "d": 320,
      "v": 98
    },
    {
      "midi": 52,
      "hit": false,
      "t": 40400.00000000002,
      "d": 393.33333333333576,
      "v": 73
    },
    {
      "midi": 69,
      "hit": false,
      "t": 40800.00000000001,
      "d": 320,
      "v": 87
    },
    {
      "midi": 60,
      "hit": false,
      "t": 40800.00000000003,
      "d": 793.3333333333358,
      "v": 79
    },
    {
      "midi": 62,
      "hit": false,
      "t": 40800.00000000003,
      "d": 793.3333333333358,
      "v": 92
    },
    {
      "midi": 66,
      "hit": false,
      "t": 40800.00000000003,
      "d": 793.3333333333358,
      "v": 88
    },
    {
      "midi": 69,
      "hit": false,
      "t": 40800.00000000003,
      "d": 796.6666666666715,
      "v": 88
    },
    {
      "midi": 50,
      "hit": false,
      "t": 40800.00000000003,
      "d": 800.0000000000073,
      "v": 90
    },
    {
      "midi": 69,
      "hit": false,
      "t": 41200.00000000001,
      "d": 320,
      "v": 106
    },
    {
      "midi": 57,
      "hit": false,
      "t": 41200.00000000003,
      "d": 393.33333333333576,
      "v": 73
    },
    {
      "midi": 67,
      "hit": false,
      "t": 41600.00000000001,
      "d": 320,
      "v": 93
    },
    {
      "midi": 62,
      "hit": false,
      "t": 41600.00000000004,
      "d": 313.3333333333285,
      "v": 83
    },
    {
      "midi": 71,
      "hit": false,
      "t": 41600.00000000004,
      "d": 1096.666666666657,
      "v": 105
    },
    {
      "midi": 43,
      "hit": false,
      "t": 41600.00000000004,
      "d": 1599.9999999999854,
      "v": 88
    },
    {
      "midi": 59,
      "hit": false,
      "t": 41866.6666666667,
      "d": 629.9999999999927,
      "v": 88
    },
    {
      "midi": 67,
      "hit": false,
      "t": 42000.00000000001,
      "d": 320,
      "v": 96
    },
    {
      "midi": 62,
      "hit": false,
      "t": 42000.00000000003,
      "d": 666.6666666666642,
      "v": 81
    },
    {
      "midi": 67,
      "hit": false,
      "t": 42266.66666666669,
      "d": 430,
      "v": 94
    },
    {
      "midi": 67,
      "hit": false,
      "t": 42400.00000000001,
      "d": 320,
      "v": 96
    },
    {
      "midi": 59,
      "hit": false,
      "t": 42666.66666666669,
      "d": 496.66666666666424,
      "v": 86
    },
    {
      "midi": 67,
      "hit": false,
      "t": 42800.00000000001,
      "d": 213.33333333333576,
      "v": 104
    },
    {
      "midi": 62,
      "hit": false,
      "t": 42800.00000000003,
      "d": 399.9999999999927,
      "v": 75
    },
    {
      "midi": 69,
      "hit": false,
      "t": 43066.66666666668,
      "d": 106.66666666666424,
      "v": 102
    },
    {
      "midi": 67,
      "hit": false,
      "t": 43066.66666666669,
      "d": 106.66666666666424,
      "v": 72
    },
    {
      "midi": 67,
      "hit": false,
      "t": 43200.00000000001,
      "d": 320,
      "v": 100
    },
    {
      "midi": 55,
      "hit": false,
      "t": 43200.00000000002,
      "d": 793.3333333333358,
      "v": 79
    },
    {
      "midi": 57,
      "hit": false,
      "t": 43200.00000000002,
      "d": 793.3333333333358,
      "v": 92
    },
    {
      "midi": 60,
      "hit": false,
      "t": 43200.00000000002,
      "d": 793.3333333333358,
      "v": 88
    },
    {
      "midi": 64,
      "hit": false,
      "t": 43200.00000000002,
      "d": 796.6666666666715,
      "v": 88
    },
    {
      "midi": 45,
      "hit": false,
      "t": 43200.00000000002,
      "d": 800.0000000000073,
      "v": 90
    },
    {
      "midi": 67,
      "hit": false,
      "t": 43600.00000000001,
      "d": 320,
      "v": 98
    },
    {
      "midi": 52,
      "hit": false,
      "t": 43600.00000000002,
      "d": 393.33333333333576,
      "v": 73
    },
    {
      "midi": 66,
      "hit": false,
      "t": 44000.00000000001,
      "d": 320,
      "v": 113
    },
    {
      "midi": 60,
      "hit": false,
      "t": 44000.00000000003,
      "d": 230,
      "v": 80
    },
    {
      "midi": 62,
      "hit": false,
      "t": 44000.00000000003,
      "d": 366.66666666666424,
      "v": 100
    },
    {
      "midi": 66,
      "hit": false,
      "t": 44000.00000000003,
      "d": 390,
      "v": 96
    },
    {
      "midi": 69,
      "hit": false,
      "t": 44000.00000000003,
      "d": 406.66666666666424,
      "v": 94
    },
    {
      "midi": 50,
      "hit": false,
      "t": 44000.00000000003,
      "d": 783.3333333333285,
      "v": 86
    },
    {
      "midi": 60,
      "hit": false,
      "t": 44266.66666666669,
      "d": 516.6666666666642,
      "v": 81
    },
    {
      "midi": 66,
      "hit": false,
      "t": 44400.00000000001,
      "d": 320,
      "v": 98
    },
    {
      "midi": 62,
      "hit": false,
      "t": 44533.33333333336,
      "d": 250,
      "v": 71
    },
    {
      "midi": 66,
      "hit": false,
      "t": 44666.66666666669,
      "d": 133.33333333332848,
      "v": 94
    },
    {
      "midi": 62,
      "hit": false,
      "t": 44800.00000000001,
      "d": 383.33333333333576,
      "v": 90
    },
    {
      "midi": 59,
      "hit": false,
      "t": 44800.00000000002,
      "d": 230,
      "v": 80
    },
    {
      "midi": 62,
      "hit": false,
      "t": 44800.00000000002,
      "d": 366.66666666666424,
      "v": 100
    },
    {
      "midi": 67,
      "hit": false,
      "t": 44800.00000000002,
      "d": 390,
      "v": 96
    },
    {
      "midi": 71,
      "hit": false,
      "t": 44800.00000000002,
      "d": 406.66666666666424,
      "v": 94
    },
    {
      "midi": 43,
      "hit": false,
      "t": 44800.00000000002,
      "d": 783.3333333333285,
      "v": 86
    },
    {
      "midi": 59,
      "hit": false,
      "t": 45066.666666666686,
      "d": 516.6666666666642,
      "v": 81
    },
    {
      "midi": 62,
      "hit": false,
      "t": 45333.33333333335,
      "d": 250,
      "v": 71
    },
    {
      "midi": 67,
      "hit": false,
      "t": 45466.666666666686,
      "d": 133.33333333332848,
      "v": 94
    },
    {
      "midi": 62,
      "hit": false,
      "t": 45600.00000000001,
      "d": 533.3333333333358,
      "v": 110
    },
    {
      "midi": 59,
      "hit": false,
      "t": 45600.000000000015,
      "d": 793.3333333333358,
      "v": 79
    },
    {
      "midi": 62,
      "hit": false,
      "t": 45600.000000000015,
      "d": 793.3333333333358,
      "v": 92
    },
    {
      "midi": 65,
      "hit": false,
      "t": 45600.000000000015,
      "d": 793.3333333333358,
      "v": 88
    },
    {
      "midi": 67,
      "hit": false,
      "t": 45600.000000000015,
      "d": 796.6666666666715,
      "v": 88
    },
    {
      "midi": 43,
      "hit": false,
      "t": 45600.000000000015,
      "d": 800.0000000000073,
      "v": 90
    },
    {
      "midi": 55,
      "hit": false,
      "t": 46000.000000000015,
      "d": 393.33333333333576,
      "v": 73
    },
    {
      "midi": 64,
      "hit": false,
      "t": 46266.66666666668,
      "d": 532.5000000000073,
      "v": 95
    },
    {
      "midi": 60,
      "hit": false,
      "t": 46400.000000000015,
      "d": 213.33333333333576,
      "v": 104
    },
    {
      "midi": 55,
      "hit": false,
      "t": 46400.00000000002,
      "d": 230,
      "v": 80
    },
    {
      "midi": 60,
      "hit": false,
      "t": 46400.00000000002,
      "d": 366.66666666666424,
      "v": 100
    },
    {
      "midi": 64,
      "hit": false,
      "t": 46400.00000000002,
      "d": 390,
      "v": 96
    },
    {
      "midi": 67,
      "hit": false,
      "t": 46400.00000000002,
      "d": 406.66666666666424,
      "v": 94
    },
    {
      "midi": 48,
      "hit": false,
      "t": 46400.00000000002,
      "d": 783.3333333333285,
      "v": 86
    },
    {
      "midi": 62,
      "hit": false,
      "t": 46666.666666666686,
      "d": 106.66666666666424,
      "v": 101
    },
    {
      "midi": 55,
      "hit": false,
      "t": 46666.666666666686,
      "d": 516.6666666666642,
      "v": 81
    },
    {
      "midi": 64,
      "hit": false,
      "t": 46800.00000000002,
      "d": 320,
      "v": 98
    },
    {
      "midi": 60,
      "hit": false,
      "t": 46933.33333333335,
      "d": 250,
      "v": 71
    },
    {
      "midi": 64,
      "hit": false,
      "t": 47066.666666666686,
      "d": 133.33333333332848,
      "v": 94
    },
    {
      "midi": 58,
      "hit": false,
      "t": 47200.000000000015,
      "d": 793.3333333333358,
      "v": 79
    },
    {
      "midi": 60,
      "hit": false,
      "t": 47200.000000000015,
      "d": 793.3333333333358,
      "v": 92
    },
    {
      "midi": 64,
      "hit": false,
      "t": 47200.000000000015,
      "d": 793.3333333333358,
      "v": 88
    },
    {
      "midi": 67,
      "hit": false,
      "t": 47200.000000000015,
      "d": 796.6666666666715,
      "v": 88
    },
    {
      "midi": 48,
      "hit": false,
      "t": 47200.000000000015,
      "d": 800.0000000000073,
      "v": 90
    },
    {
      "midi": 64,
      "hit": false,
      "t": 47200.00000000002,
      "d": 453.33333333333576,
      "v": 108
    },
    {
      "midi": 55,
      "hit": false,
      "t": 47600.000000000015,
      "d": 393.33333333333576,
      "v": 73
    },
    {
      "midi": 65,
      "hit": false,
      "t": 48000.00000000002,
      "d": 213.33333333333576,
      "v": 101
    },
    {
      "midi": 60,
      "hit": false,
      "t": 48000.00000000002,
      "d": 793.3333333333358,
      "v": 79
    },
    {
      "midi": 65,
      "hit": false,
      "t": 48000.00000000002,
      "d": 793.3333333333358,
      "v": 92
    },
    {
      "midi": 69,
      "hit": false,
      "t": 48000.00000000002,
      "d": 793.3333333333358,
      "v": 88
    },
    {
      "midi": 41,
      "hit": false,
      "t": 48000.00000000002,
      "d": 800,
      "v": 90
    },
    {
      "midi": 65,
      "hit": false,
      "t": 48266.66666666669,
      "d": 106.66666666666424,
      "v": 100
    },
    {
      "midi": 69,
      "hit": false,
      "t": 48400.00000000002,
      "d": 320,
      "v": 100
    },
    {
      "midi": 57,
      "hit": false,
      "t": 48400.00000000002,
      "d": 393.33333333333576,
      "v": 73
    },
    {
      "midi": 68,
      "hit": false,
      "t": 48800.00000000002,
      "d": 640,
      "v": 100
    },
    {
      "midi": 41,
      "hit": false,
      "t": 48800.00000000002,
      "d": 800,
      "v": 83
    },
    {
      "midi": 56,
      "hit": false,
      "t": 49066.666666666686,
      "d": 533.3333333333358,
      "v": 86
    },
    {
      "midi": 60,
      "hit": false,
      "t": 49066.666666666686,
      "d": 533.3333333333358,
      "v": 102
    },
    {
      "midi": 65,
      "hit": false,
      "t": 49066.666666666686,
      "d": 533.3333333333358,
      "v": 102
    },
    {
      "midi": 68,
      "hit": false,
      "t": 49066.666666666686,
      "d": 533.3333333333358,
      "v": 92
    },
    {
      "midi": 60,
      "hit": false,
      "t": 49600.00000000002,
      "d": 213.33333333333576,
      "v": 99
    },
    {
      "midi": 55,
      "hit": false,
      "t": 49600.00000000002,
      "d": 230,
      "v": 80
    },
    {
      "midi": 60,
      "hit": false,
      "t": 49600.00000000002,
      "d": 366.66666666666424,
      "v": 100
    },
    {
      "midi": 64,
      "hit": false,
      "t": 49600.00000000002,
      "d": 390,
      "v": 96
    },
    {
      "midi": 67,
      "hit": false,
      "t": 49600.00000000002,
      "d": 406.66666666666424,
      "v": 94
    },
    {
      "midi": 48,
      "hit": false,
      "t": 49600.00000000002,
      "d": 783.3333333333285,
      "v": 86
    },
    {
      "midi": 55,
      "hit": false,
      "t": 49866.666666666686,
      "d": 516.6666666666642,
      "v": 81
    },
    {
      "midi": 62,
      "hit": false,
      "t": 49866.66666666669,
      "d": 106.66666666666424,
      "v": 105
    },
    {
      "midi": 64,
      "hit": false,
      "t": 50000.00000000002,
      "d": 320,
      "v": 104
    },
    {
      "midi": 60,
      "hit": false,
      "t": 50133.33333333335,
      "d": 250,
      "v": 71
    },
    {
      "midi": 64,
      "hit": false,
      "t": 50266.666666666686,
      "d": 133.33333333332848,
      "v": 94
    },
    {
      "midi": 58,
      "hit": false,
      "t": 50400.000000000015,
      "d": 230,
      "v": 80
    },
    {
      "midi": 60,
      "hit": false,
      "t": 50400.000000000015,
      "d": 366.66666666666424,
      "v": 100
    },
    {
      "midi": 64,
      "hit": false,
      "t": 50400.000000000015,
      "d": 390,
      "v": 96
    },
    {
      "midi": 67,
      "hit": false,
      "t": 50400.000000000015,
      "d": 406.66666666666424,
      "v": 94
    },
    {
      "midi": 48,
      "hit": false,
      "t": 50400.000000000015,
      "d": 783.3333333333285,
      "v": 86
    },
    {
      "midi": 64,
      "hit": false,
      "t": 50400.00000000002,
      "d": 320,
      "v": 95
    },
    {
      "midi": 58,
      "hit": false,
      "t": 50666.66666666668,
      "d": 516.6666666666642,
      "v": 81
    },
    {
      "midi": 64,
      "hit": false,
      "t": 50800.00000000002,
      "d": 320,
      "v": 107
    },
    {
      "midi": 60,
      "hit": false,
      "t": 50933.33333333334,
      "d": 250,
      "v": 71
    },
    {
      "midi": 64,
      "hit": false,
      "t": 51066.66666666668,
      "d": 133.33333333332848,
      "v": 94
    },
    {
      "midi": 57,
      "hit": false,
      "t": 51200.00000000001,
      "d": 230,
      "v": 80
    },
    {
      "midi": 60,
      "hit": false,
      "t": 51200.00000000001,
      "d": 366.66666666666424,
      "v": 100
    },
    {
      "midi": 65,
      "hit": false,
      "t": 51200.00000000001,
      "d": 390,
      "v": 96
    },
    {
      "midi": 69,
      "hit": false,
      "t": 51200.00000000001,
      "d": 406.66666666666424,
      "v": 94
    },
    {
      "midi": 41,
      "hit": false,
      "t": 51200.00000000001,
      "d": 783.3333333333285,
      "v": 86
    },
    {
      "midi": 65,
      "hit": false,
      "t": 51200.00000000002,
      "d": 213.33333333333576,
      "v": 89
    },
    {
      "midi": 57,
      "hit": false,
      "t": 51466.66666666667,
      "d": 516.6666666666642,
      "v": 81
    },
    {
      "midi": 64,
      "hit": false,
      "t": 51466.66666666669,
      "d": 106.66666666666424,
      "v": 100
    },
    {
      "midi": 60,
      "hit": false,
      "t": 51600.00000000002,
      "d": 320,
      "v": 92
    },
    {
      "midi": 60,
      "hit": false,
      "t": 51733.333333333336,
      "d": 250,
      "v": 71
    },
    {
      "midi": 65,
      "hit": false,
      "t": 51866.66666666667,
      "d": 133.33333333332848,
      "v": 94
    },
    {
      "midi": 41,
      "hit": false,
      "t": 52000,
      "d": 800,
      "v": 83
    },
    {
      "midi": 60,
      "hit": false,
      "t": 52000.00000000002,
      "d": 640,
      "v": 98
    },
    {
      "midi": 56,
      "hit": false,
      "t": 52266.666666666664,
      "d": 533.3333333333358,
      "v": 86
    },
    {
      "midi": 60,
      "hit": false,
      "t": 52266.666666666664,
      "d": 533.3333333333358,
      "v": 102
    },
    {
      "midi": 65,
      "hit": false,
      "t": 52266.666666666664,
      "d": 533.3333333333358,
      "v": 102
    },
    {
      "midi": 68,
      "hit": false,
      "t": 52266.666666666664,
      "d": 533.3333333333358,
      "v": 92
    },
    {
      "midi": 60,
      "hit": false,
      "t": 52800,
      "d": 793.3333333333358,
      "v": 79
    },
    {
      "midi": 64,
      "hit": false,
      "t": 52800,
      "d": 793.3333333333358,
      "v": 92
    },
    {
      "midi": 67,
      "hit": false,
      "t": 52800,
      "d": 793.3333333333358,
      "v": 88
    },
    {
      "midi": 48,
      "hit": false,
      "t": 52800,
      "d": 800,
      "v": 90
    },
    {
      "midi": 60,
      "hit": false,
      "t": 52800.00000000002,
      "d": 320,
      "v": 100
    },
    {
      "midi": 55,
      "hit": false,
      "t": 53200,
      "d": 393.33333333333576,
      "v": 73
    },
    {
      "midi": 64,
      "hit": false,
      "t": 53200.00000000002,
      "d": 320,
      "v": 109
    },
    {
      "midi": 52,
      "hit": false,
      "t": 53600,
      "d": 230,
      "v": 80
    },
    {
      "midi": 57,
      "hit": false,
      "t": 53600,
      "d": 366.66666666666424,
      "v": 100
    },
    {
      "midi": 60,
      "hit": false,
      "t": 53600,
      "d": 390,
      "v": 96
    },
    {
      "midi": 64,
      "hit": false,
      "t": 53600,
      "d": 406.66666666666424,
      "v": 94
    },
    {
      "midi": 45,
      "hit": false,
      "t": 53600,
      "d": 783.3333333333285,
      "v": 86
    },
    {
      "midi": 57,
      "hit": false,
      "t": 53600.00000000002,
      "d": 320,
      "v": 87
    },
    {
      "midi": 52,
      "hit": false,
      "t": 53866.666666666664,
      "d": 516.6666666666642,
      "v": 81
    },
    {
      "midi": 60,
      "hit": false,
      "t": 54000.00000000002,
      "d": 320,
      "v": 100
    },
    {
      "midi": 57,
      "hit": false,
      "t": 54133.33333333333,
      "d": 250,
      "v": 71
    },
    {
      "midi": 60,
      "hit": false,
      "t": 54266.666666666664,
      "d": 133.33333333332848,
      "v": 94
    },
    {
      "midi": 60,
      "hit": false,
      "t": 54399.99999999999,
      "d": 230,
      "v": 80
    },
    {
      "midi": 62,
      "hit": false,
      "t": 54399.99999999999,
      "d": 366.66666666666424,
      "v": 100
    },
    {
      "midi": 65,
      "hit": false,
      "t": 54399.99999999999,
      "d": 390,
      "v": 96
    },
    {
      "midi": 69,
      "hit": false,
      "t": 54399.99999999999,
      "d": 406.66666666666424,
      "v": 94
    },
    {
      "midi": 50,
      "hit": false,
      "t": 54399.99999999999,
      "d": 783.3333333333285,
      "v": 86
    },
    {
      "midi": 57,
      "hit": false,
      "t": 54400.00000000002,
      "d": 320,
      "v": 90
    },
    {
      "midi": 60,
      "hit": false,
      "t": 54666.66666666666,
      "d": 516.6666666666642,
      "v": 81
    },
    {
      "midi": 60,
      "hit": false,
      "t": 54800.00000000002,
      "d": 390,
      "v": 96
    },
    {
      "midi": 62,
      "hit": false,
      "t": 54933.33333333332,
      "d": 250,
      "v": 71
    },
    {
      "midi": 65,
      "hit": false,
      "t": 55066.66666666666,
      "d": 133.33333333332848,
      "v": 94
    },
    {
      "midi": 43,
      "hit": false,
      "t": 55199.999999999985,
      "d": 800,
      "v": 83
    },
    {
      "midi": 59,
      "hit": false,
      "t": 55206.666666666686,
      "d": 233.33333333333576,
      "v": 109
    },
    {
      "midi": 59,
      "hit": false,
      "t": 55466.66666666665,
      "d": 533.3333333333358,
      "v": 86
    },
    {
      "midi": 62,
      "hit": false,
      "t": 55466.66666666665,
      "d": 533.3333333333358,
      "v": 102
    },
    {
      "midi": 65,
      "hit": false,
      "t": 55466.66666666665,
      "d": 533.3333333333358,
      "v": 102
    },
    {
      "midi": 67,
      "hit": false,
      "t": 55466.66666666665,
      "d": 533.3333333333358,
      "v": 92
    },
    {
      "midi": 53,
      "hit": false,
      "t": 55600.00000000002,
      "d": 320,
      "v": 98
    },
    {
      "midi": 48,
      "hit": false,
      "t": 55999.999999999985,
      "d": 800,
      "v": 83
    },
    {
      "midi": 55,
      "hit": false,
      "t": 56000.00000000002,
      "d": 790,
      "v": 86
    },
    {
      "midi": 55,
      "hit": false,
      "t": 56266.66666666665,
      "d": 533.3333333333358,
      "v": 86
    },
    {
      "midi": 60,
      "hit": false,
      "t": 56266.66666666665,
      "d": 533.3333333333358,
      "v": 102
    },
    {
      "midi": 64,
      "hit": false,
      "t": 56266.66666666665,
      "d": 533.3333333333358,
      "v": 102
    },
    {
      "midi": 67,
      "hit": false,
      "t": 56266.66666666665,
      "d": 533.3333333333358,
      "v": 92
    },
    {
      "midi": 60,
      "hit": false,
      "t": 56799.999999999985,
      "d": 793.3333333333358,
      "v": 79
    },
    {
      "midi": 65,
      "hit": false,
      "t": 56799.999999999985,
      "d": 793.3333333333358,
      "v": 92
    },
    {
      "midi": 69,
      "hit": false,
      "t": 56799.999999999985,
      "d": 793.3333333333358,
      "v": 88
    },
    {
      "midi": 41,
      "hit": false,
      "t": 56799.999999999985,
      "d": 800,
      "v": 90
    },
    {
      "midi": 57,
      "hit": false,
      "t": 56806.666666666686,
      "d": 1433.3333333333358,
      "v": 97
    },
    {
      "midi": 57,
      "hit": false,
      "t": 57199.999999999985,
      "d": 393.33333333333576,
      "v": 73
    },
    {
      "midi": 48,
      "hit": false,
      "t": 57599.999999999985,
      "d": 1333.3333333333358,
      "v": 80
    },
    {
      "midi": 55,
      "hit": false,
      "t": 57599.999999999985,
      "d": 1466.6666666666715,
      "v": 80
    },
    {
      "midi": 60,
      "hit": false,
      "t": 57599.999999999985,
      "d": 1466.6666666666715,
      "v": 80
    },
    {
      "midi": 64,
      "hit": false,
      "t": 57599.999999999985,
      "d": 1466.6666666666715,
      "v": 80
    },
    {
      "midi": 55,
      "hit": false,
      "t": 58800.00000000002,
      "d": 320,
      "v": 93
    },
    {
      "midi": 48,
      "hit": false,
      "t": 59066.66666666666,
      "d": 86.66666666666424,
      "v": 105
    },
    {
      "midi": 43,
      "hit": false,
      "t": 59199.999999999985,
      "d": 800,
      "v": 83
    },
    {
      "midi": 58,
      "hit": false,
      "t": 59200.00000000002,
      "d": 320,
      "v": 92
    },
    {
      "midi": 58,
      "hit": false,
      "t": 59466.66666666665,
      "d": 533.3333333333358,
      "v": 86
    },
    {
      "midi": 62,
      "hit": false,
      "t": 59466.66666666665,
      "d": 533.3333333333358,
      "v": 102
    },
    {
      "midi": 65,
      "hit": false,
      "t": 59466.66666666665,
      "d": 533.3333333333358,
      "v": 102
    },
    {
      "midi": 67,
      "hit": false,
      "t": 59466.66666666665,
      "d": 533.3333333333358,
      "v": 92
    },
    {
      "midi": 53,
      "hit": false,
      "t": 59600.00000000002,
      "d": 320,
      "v": 100
    },
    {
      "midi": 48,
      "hit": false,
      "t": 59999.999999999985,
      "d": 800,
      "v": 83
    },
    {
      "midi": 55,
      "hit": false,
      "t": 60000.00000000002,
      "d": 213.33333333333576,
      "v": 114
    },
    {
      "midi": 58,
      "hit": false,
      "t": 60266.66666666665,
      "d": 533.3333333333358,
      "v": 86
    },
    {
      "midi": 60,
      "hit": false,
      "t": 60266.66666666665,
      "d": 533.3333333333358,
      "v": 102
    },
    {
      "midi": 64,
      "hit": false,
      "t": 60266.66666666665,
      "d": 533.3333333333358,
      "v": 102
    },
    {
      "midi": 67,
      "hit": false,
      "t": 60266.66666666665,
      "d": 533.3333333333358,
      "v": 92
    },
    {
      "midi": 55,
      "hit": false,
      "t": 60266.66666666669,
      "d": 320,
      "v": 100
    },
    {
      "midi": 53,
      "hit": false,
      "t": 60666.66666666669,
      "d": 320,
      "v": 90
    },
    {
      "midi": 41,
      "hit": false,
      "t": 60799.999999999985,
      "d": 860,
      "v": 75
    },
    {
      "midi": 57,
      "hit": false,
      "t": 60799.999999999985,
      "d": 950,
      "v": 72
    },
    {
      "midi": 60,
      "hit": false,
      "t": 60799.999999999985,
      "d": 950,
      "v": 72
    },
    {
      "midi": 65,
      "hit": false,
      "t": 60799.999999999985,
      "d": 950,
      "v": 72
    },
    {
      "midi": 69,
      "hit": false,
      "t": 61066.66666666669,
      "d": 320,
      "v": 102
    },
    {
      "midi": 57,
      "hit": false,
      "t": 61466.66666666669,
      "d": 516.6666666666642,
      "v": 104
    },
    {
      "midi": 41,
      "hit": false,
      "t": 61866.66666666665,
      "d": 110,
      "v": 76
    },
    {
      "midi": 57,
      "hit": false,
      "t": 61999.999999999985,
      "d": 130,
      "v": 86
    },
    {
      "midi": 60,
      "hit": false,
      "t": 61999.999999999985,
      "d": 130,
      "v": 86
    },
    {
      "midi": 65,
      "hit": false,
      "t": 61999.999999999985,
      "d": 130,
      "v": 86
    },
    {
      "midi": 57,
      "hit": false,
      "t": 62266.66666666669,
      "d": 106.66666666666424,
      "v": 91
    },
    {
      "midi": 43,
      "hit": false,
      "t": 62399.999999999985,
      "d": 800,
      "v": 83
    },
    {
      "midi": 58,
      "hit": false,
      "t": 62400.00000000002,
      "d": 213.33333333333576,
      "v": 98
    },
    {
      "midi": 58,
      "hit": false,
      "t": 62666.66666666665,
      "d": 533.3333333333358,
      "v": 86
    },
    {
      "midi": 62,
      "hit": false,
      "t": 62666.66666666665,
      "d": 533.3333333333358,
      "v": 102
    },
    {
      "midi": 65,
      "hit": false,
      "t": 62666.66666666665,
      "d": 533.3333333333358,
      "v": 102
    },
    {
      "midi": 67,
      "hit": false,
      "t": 62666.66666666665,
      "d": 533.3333333333358,
      "v": 92
    },
    {
      "midi": 55,
      "hit": false,
      "t": 62666.66666666669,
      "d": 106.66666666666424,
      "v": 102
    },
    {
      "midi": 53,
      "hit": false,
      "t": 62800.00000000002,
      "d": 213.33333333333576,
      "v": 113
    },
    {
      "midi": 55,
      "hit": false,
      "t": 63066.66666666669,
      "d": 106.66666666666424,
      "v": 95
    },
    {
      "midi": 58,
      "hit": false,
      "t": 63199.999999999985,
      "d": 230,
      "v": 80
    },
    {
      "midi": 60,
      "hit": false,
      "t": 63199.999999999985,
      "d": 366.66666666666424,
      "v": 100
    },
    {
      "midi": 64,
      "hit": false,
      "t": 63199.999999999985,
      "d": 390,
      "v": 96
    },
    {
      "midi": 67,
      "hit": false,
      "t": 63199.999999999985,
      "d": 406.66666666666424,
      "v": 94
    },
    {
      "midi": 48,
      "hit": false,
      "t": 63199.999999999985,
      "d": 783.3333333333285,
      "v": 86
    },
    {
      "midi": 58,
      "hit": false,
      "t": 63200.00000000002,
      "d": 213.33333333333576,
      "v": 100
    },
    {
      "midi": 58,
      "hit": false,
      "t": 63466.66666666665,
      "d": 516.6666666666642,
      "v": 81
    },
    {
      "midi": 55,
      "hit": false,
      "t": 63466.66666666669,
      "d": 320,
      "v": 86
    },
    {
      "midi": 60,
      "hit": false,
      "t": 63733.333333333314,
      "d": 250,
      "v": 71
    },
    {
      "midi": 64,
      "hit": false,
      "t": 63866.66666666665,
      "d": 133.33333333332848,
      "v": 94
    },
    {
      "midi": 53,
      "hit": false,
      "t": 63866.66666666669,
      "d": 906.6666666666642,
      "v": 101
    },
    {
      "midi": 41,
      "hit": false,
      "t": 63999.99999999998,
      "d": 596.6666666666642,
      "v": 80
    },
    {
      "midi": 57,
      "hit": false,
      "t": 63999.99999999998,
      "d": 1113.3333333333285,
      "v": 78
    },
    {
      "midi": 60,
      "hit": false,
      "t": 63999.99999999998,
      "d": 1113.3333333333285,
      "v": 78
    },
    {
      "midi": 65,
      "hit": false,
      "t": 63999.99999999998,
      "d": 1113.3333333333285,
      "v": 78
    },
    {
      "midi": 57,
      "hit": false,
      "t": 64933.33333333336,
      "d": 213.33333333333576,
      "v": 101
    },
    {
      "midi": 57,
      "hit": false,
      "t": 65199.99999999997,
      "d": 400.00000000001455,
      "v": 75
    },
    {
      "midi": 65,
      "hit": false,
      "t": 65333.33333333331,
      "d": 230.00000000000728,
      "v": 86
    },
    {
      "midi": 58,
      "hit": false,
      "t": 65333.33333333336,
      "d": 213.33333333332848,
      "v": 88
    },
    {
      "midi": 69,
      "hit": false,
      "t": 65466.66666666664,
      "d": 133.33333333334303,
      "v": 105
    },
    {
      "midi": 55,
      "hit": false,
      "t": 65599.99999999999,
      "d": 230,
      "v": 80
    },
    {
      "midi": 57,
      "hit": false,
      "t": 65599.99999999999,
      "d": 366.6666666666715,
      "v": 100
    },
    {
      "midi": 60,
      "hit": false,
      "t": 65599.99999999999,
      "d": 390,
      "v": 96
    },
    {
      "midi": 64,
      "hit": false,
      "t": 65599.99999999999,
      "d": 406.6666666666715,
      "v": 94
    },
    {
      "midi": 45,
      "hit": false,
      "t": 65599.99999999999,
      "d": 783.333333333343,
      "v": 86
    },
    {
      "midi": 60,
      "hit": false,
      "t": 65600.00000000001,
      "d": 213.33333333332848,
      "v": 115
    },
    {
      "midi": 55,
      "hit": false,
      "t": 65866.66666666666,
      "d": 516.6666666666715,
      "v": 81
    },
    {
      "midi": 57,
      "hit": false,
      "t": 65866.66666666667,
      "d": 213.33333333332848,
      "v": 101
    },
    {
      "midi": 55,
      "hit": false,
      "t": 66133.33333333333,
      "d": 106.66666666667152,
      "v": 95
    },
    {
      "midi": 57,
      "hit": false,
      "t": 66133.33333333333,
      "d": 250,
      "v": 71
    },
    {
      "midi": 60,
      "hit": false,
      "t": 66266.66666666666,
      "d": 133.33333333334303,
      "v": 94
    },
    {
      "midi": 57,
      "hit": false,
      "t": 66266.66666666667,
      "d": 106.66666666667152,
      "v": 107
    },
    {
      "midi": 60,
      "hit": false,
      "t": 66400,
      "d": 230,
      "v": 80
    },
    {
      "midi": 62,
      "hit": false,
      "t": 66400,
      "d": 366.6666666666715,
      "v": 100
    },
    {
      "midi": 66,
      "hit": false,
      "t": 66400,
      "d": 390,
      "v": 96
    },
    {
      "midi": 69,
      "hit": false,
      "t": 66400,
      "d": 406.6666666666715,
      "v": 94
    },
    {
      "midi": 50,
      "hit": false,
      "t": 66400,
      "d": 783.333333333343,
      "v": 86
    },
    {
      "midi": 60,
      "hit": false,
      "t": 66400.00000000001,
      "d": 320,
      "v": 109
    },
    {
      "midi": 60,
      "hit": false,
      "t": 66666.66666666667,
      "d": 516.6666666666715,
      "v": 81
    },
    {
      "midi": 57,
      "hit": false,
      "t": 66800.00000000001,
      "d": 213.33333333332848,
      "v": 103
    },
    {
      "midi": 62,
      "hit": false,
      "t": 66933.33333333334,
      "d": 250,
      "v": 71
    },
    {
      "midi": 55,
      "hit": false,
      "t": 67066.66666666667,
      "d": 320,
      "v": 86
    },
    {
      "midi": 66,
      "hit": false,
      "t": 67066.66666666667,
      "d": 133.33333333334303,
      "v": 94
    },
    {
      "midi": 43,
      "hit": false,
      "t": 67200.00000000001,
      "d": 596.6666666666715,
      "v": 80
    },
    {
      "midi": 55,
      "hit": false,
      "t": 67200.00000000001,
      "d": 1113.333333333343,
      "v": 78
    },
    {
      "midi": 59,
      "hit": false,
      "t": 67200.00000000001,
      "d": 1113.333333333343,
      "v": 78
    },
    {
      "midi": 62,
      "hit": false,
      "t": 67200.00000000001,
      "d": 1113.333333333343,
      "v": 78
    },
    {
      "midi": 55,
      "hit": false,
      "t": 67466.66666666667,
      "d": 320,
      "v": 112
    },
    {
      "midi": 55,
      "hit": false,
      "t": 67866.66666666667,
      "d": 320,
      "v": 101
    },
    {
      "midi": 55,
      "hit": false,
      "t": 68266.66666666667,
      "d": 320,
      "v": 106
    },
    {
      "midi": 59,
      "hit": false,
      "t": 68400.00000000003,
      "d": 400,
      "v": 75
    },
    {
      "midi": 67,
      "hit": false,
      "t": 68533.33333333336,
      "d": 230,
      "v": 86
    },
    {
      "midi": 57,
      "hit": false,
      "t": 68666.66666666667,
      "d": 106.66666666667152,
      "v": 103
    },
    {
      "midi": 71,
      "hit": false,
      "t": 68666.66666666669,
      "d": 133.33333333334303,
      "v": 105
    },
    {
      "midi": 55,
      "hit": false,
      "t": 68800.00000000001,
      "d": 320,
      "v": 100
    },
    {
      "midi": 55,
      "hit": false,
      "t": 68800.00000000003,
      "d": 230,
      "v": 80
    },
    {
      "midi": 57,
      "hit": false,
      "t": 68800.00000000003,
      "d": 366.6666666666715,
      "v": 100
    },
    {
      "midi": 60,
      "hit": false,
      "t": 68800.00000000003,
      "d": 390,
      "v": 96
    },
    {
      "midi": 64,
      "hit": false,
      "t": 68800.00000000003,
      "d": 406.6666666666715,
      "v": 94
    },
    {
      "midi": 45,
      "hit": false,
      "t": 68800.00000000003,
      "d": 783.333333333343,
      "v": 86
    },
    {
      "midi": 55,
      "hit": false,
      "t": 69066.6666666667,
      "d": 516.6666666666715,
      "v": 81
    },
    {
      "midi": 55,
      "hit": false,
      "t": 69200.00000000001,
      "d": 320,
      "v": 105
    },
    {
      "midi": 57,
      "hit": false,
      "t": 69333.33333333337,
      "d": 250,
      "v": 71
    },
    {
      "midi": 60,
      "hit": false,
      "t": 69466.6666666667,
      "d": 133.33333333334303,
      "v": 94
    },
    {
      "midi": 55,
      "hit": false,
      "t": 69600.00000000001,
      "d": 213.33333333332848,
      "v": 89
    },
    {
      "midi": 50,
      "hit": false,
      "t": 69600.00000000004,
      "d": 800,
      "v": 83
    },
    {
      "midi": 54,
      "hit": false,
      "t": 69866.66666666667,
      "d": 320,
      "v": 110
    },
    {
      "midi": 60,
      "hit": false,
      "t": 69866.66666666672,
      "d": 533.3333333333285,
      "v": 86
    },
    {
      "midi": 62,
      "hit": false,
      "t": 69866.66666666672,
      "d": 533.3333333333285,
      "v": 102
    },
    {
      "midi": 66,
      "hit": false,
      "t": 69866.66666666672,
      "d": 533.3333333333285,
      "v": 102
    },
    {
      "midi": 69,
      "hit": false,
      "t": 69866.66666666672,
      "d": 533.3333333333285,
      "v": 92
    },
    {
      "midi": 50,
      "hit": false,
      "t": 70266.66666666667,
      "d": 116.66666666667152,
      "v": 108
    },
    {
      "midi": 62,
      "hit": false,
      "t": 70400.00000000004,
      "d": 793.3333333333285,
      "v": 79
    },
    {
      "midi": 67,
      "hit": false,
      "t": 70400.00000000004,
      "d": 793.3333333333285,
      "v": 92
    },
    {
      "midi": 71,
      "hit": false,
      "t": 70400.00000000004,
      "d": 793.3333333333285,
      "v": 88
    },
    {
      "midi": 43,
      "hit": false,
      "t": 70400.00000000004,
      "d": 800,
      "v": 90
    },
    {
      "midi": 59,
      "hit": false,
      "t": 70800.00000000004,
      "d": 393.3333333333285,
      "v": 73
    },
    {
      "midi": 63,
      "hit": false,
      "t": 71200.00000000001,
      "d": 640,
      "v": 86
    },
    {
      "midi": 60,
      "hit": false,
      "t": 71200.00000000004,
      "d": 230,
      "v": 80
    },
    {
      "midi": 63,
      "hit": false,
      "t": 71200.00000000004,
      "d": 366.6666666666715,
      "v": 100
    },
    {
      "midi": 66,
      "hit": false,
      "t": 71200.00000000004,
      "d": 390,
      "v": 96
    },
    {
      "midi": 68,
      "hit": false,
      "t": 71200.00000000004,
      "d": 406.6666666666715,
      "v": 94
    },
    {
      "midi": 44,
      "hit": false,
      "t": 71200.00000000004,
      "d": 783.333333333343,
      "v": 86
    },
    {
      "midi": 60,
      "hit": false,
      "t": 71466.66666666672,
      "d": 516.6666666666715,
      "v": 81
    },
    {
      "midi": 63,
      "hit": false,
      "t": 71733.33333333339,
      "d": 250,
      "v": 71
    },
    {
      "midi": 66,
      "hit": false,
      "t": 71866.66666666672,
      "d": 133.33333333334303,
      "v": 94
    },
    {
      "midi": 61,
      "hit": false,
      "t": 72000.00000000001,
      "d": 213.33333333332848,
      "v": 94
    },
    {
      "midi": 56,
      "hit": false,
      "t": 72000.00000000006,
      "d": 230,
      "v": 80
    },
    {
      "midi": 61,
      "hit": false,
      "t": 72000.00000000006,
      "d": 366.6666666666715,
      "v": 100
    },
    {
      "midi": 65,
      "hit": false,
      "t": 72000.00000000006,
      "d": 390,
      "v": 96
    },
    {
      "midi": 68,
      "hit": false,
      "t": 72000.00000000006,
      "d": 406.6666666666715,
      "v": 94
    },
    {
      "midi": 49,
      "hit": false,
      "t": 72000.00000000006,
      "d": 783.333333333343,
      "v": 86
    },
    {
      "midi": 63,
      "hit": false,
      "t": 72266.66666666667,
      "d": 106.66666666667152,
      "v": 100
    },
    {
      "midi": 56,
      "hit": false,
      "t": 72266.66666666673,
      "d": 516.6666666666715,
      "v": 81
    },
    {
      "midi": 65,
      "hit": false,
      "t": 72400.00000000001,
      "d": 320,
      "v": 100
    },
    {
      "midi": 61,
      "hit": false,
      "t": 72533.3333333334,
      "d": 250,
      "v": 71
    },
    {
      "midi": 65,
      "hit": false,
      "t": 72666.66666666673,
      "d": 133.33333333334303,
      "v": 94
    },
    {
      "midi": 65,
      "hit": false,
      "t": 72800.00000000001,
      "d": 640,
      "v": 102
    },
    {
      "midi": 49,
      "hit": false,
      "t": 72800.00000000007,
      "d": 800,
      "v": 83
    },
    {
      "midi": 59,
      "hit": false,
      "t": 73066.66666666674,
      "d": 533.3333333333285,
      "v": 86
    },
    {
      "midi": 61,
      "hit": false,
      "t": 73066.66666666674,
      "d": 533.3333333333285,
      "v": 102
    },
    {
      "midi": 65,
      "hit": false,
      "t": 73066.66666666674,
      "d": 533.3333333333285,
      "v": 102
    },
    {
      "midi": 68,
      "hit": false,
      "t": 73066.66666666674,
      "d": 533.3333333333285,
      "v": 92
    },
    {
      "midi": 66,
      "hit": false,
      "t": 73600.00000000001,
      "d": 213.33333333332848,
      "v": 85
    },
    {
      "midi": 58,
      "hit": false,
      "t": 73600.00000000007,
      "d": 230,
      "v": 80
    },
    {
      "midi": 61,
      "hit": false,
      "t": 73600.00000000007,
      "d": 366.6666666666715,
      "v": 100
    },
    {
      "midi": 66,
      "hit": false,
      "t": 73600.00000000007,
      "d": 390,
      "v": 96
    },
    {
      "midi": 70,
      "hit": false,
      "t": 73600.00000000007,
      "d": 406.6666666666715,
      "v": 94
    },
    {
      "midi": 42,
      "hit": false,
      "t": 73600.00000000007,
      "d": 783.333333333343,
      "v": 86
    },
    {
      "midi": 66,
      "hit": false,
      "t": 73866.66666666667,
      "d": 106.66666666667152,
      "v": 103
    },
    {
      "midi": 58,
      "hit": false,
      "t": 73866.66666666674,
      "d": 516.6666666666715,
      "v": 81
    },
    {
      "midi": 70,
      "hit": false,
      "t": 74000.00000000001,
      "d": 320,
      "v": 101
    },
    {
      "midi": 61,
      "hit": false,
      "t": 74133.33333333342,
      "d": 250,
      "v": 71
    },
    {
      "midi": 66,
      "hit": false,
      "t": 74266.66666666674,
      "d": 133.33333333334303,
      "v": 94
    },
    {
      "midi": 69,
      "hit": false,
      "t": 74400.00000000001,
      "d": 640,
      "v": 101
    },
    {
      "midi": 61,
      "hit": false,
      "t": 74400.00000000009,
      "d": 793.3333333333285,
      "v": 79
    },
    {
      "midi": 66,
      "hit": false,
      "t": 74400.00000000009,
      "d": 793.3333333333285,
      "v": 92
    },
    {
      "midi": 69,
      "hit": false,
      "t": 74400.00000000009,
      "d": 793.3333333333285,
      "v": 88
    },
    {
      "midi": 42,
      "hit": false,
      "t": 74400.00000000009,
      "d": 800,
      "v": 90
    },
    {
      "midi": 57,
      "hit": false,
      "t": 74800.00000000009,
      "d": 393.3333333333285,
      "v": 73
    },
    {
      "midi": 61,
      "hit": false,
      "t": 75200.00000000001,
      "d": 213.33333333332848,
      "v": 105
    },
    {
      "midi": 49,
      "hit": false,
      "t": 75200.00000000009,
      "d": 800,
      "v": 83
    },
    {
      "midi": 63,
      "hit": false,
      "t": 75466.66666666667,
      "d": 106.66666666667152,
      "v": 90
    },
    {
      "midi": 56,
      "hit": false,
      "t": 75466.66666666676,
      "d": 533.3333333333285,
      "v": 86
    },
    {
      "midi": 61,
      "hit": false,
      "t": 75466.66666666676,
      "d": 533.3333333333285,
      "v": 102
    },
    {
      "midi": 65,
      "hit": false,
      "t": 75466.66666666676,
      "d": 533.3333333333285,
      "v": 102
    },
    {
      "midi": 68,
      "hit": false,
      "t": 75466.66666666676,
      "d": 533.3333333333285,
      "v": 92
    },
    {
      "midi": 65,
      "hit": false,
      "t": 75600.00000000001,
      "d": 320,
      "v": 110
    },
    {
      "midi": 65,
      "hit": false,
      "t": 76000.00000000001,
      "d": 320,
      "v": 100
    },
    {
      "midi": 49,
      "hit": false,
      "t": 76000.00000000009,
      "d": 800,
      "v": 83
    },
    {
      "midi": 59,
      "hit": false,
      "t": 76266.66666666676,
      "d": 533.3333333333285,
      "v": 86
    },
    {
      "midi": 61,
      "hit": false,
      "t": 76266.66666666676,
      "d": 533.3333333333285,
      "v": 102
    },
    {
      "midi": 65,
      "hit": false,
      "t": 76266.66666666676,
      "d": 533.3333333333285,
      "v": 102
    },
    {
      "midi": 68,
      "hit": false,
      "t": 76266.66666666676,
      "d": 533.3333333333285,
      "v": 92
    },
    {
      "midi": 65,
      "hit": false,
      "t": 76400.00000000001,
      "d": 320,
      "v": 115
    },
    {
      "midi": 66,
      "hit": false,
      "t": 76800.00000000001,
      "d": 213.33333333332848,
      "v": 105
    },
    {
      "midi": 61,
      "hit": false,
      "t": 76800.00000000009,
      "d": 793.3333333333285,
      "v": 79
    },
    {
      "midi": 66,
      "hit": false,
      "t": 76800.00000000009,
      "d": 793.3333333333285,
      "v": 92
    },
    {
      "midi": 70,
      "hit": false,
      "t": 76800.00000000009,
      "d": 793.3333333333285,
      "v": 88
    },
    {
      "midi": 42,
      "hit": false,
      "t": 76800.00000000009,
      "d": 800,
      "v": 90
    },
    {
      "midi": 65,
      "hit": false,
      "t": 77066.66666666667,
      "d": 106.66666666667152,
      "v": 100
    },
    {
      "midi": 61,
      "hit": false,
      "t": 77200.00000000001,
      "d": 320,
      "v": 92
    },
    {
      "midi": 58,
      "hit": false,
      "t": 77200.00000000009,
      "d": 393.3333333333285,
      "v": 73
    },
    {
      "midi": 61,
      "hit": false,
      "t": 77600.00000000001,
      "d": 640,
      "v": 105
    },
    {
      "midi": 61,
      "hit": false,
      "t": 77600.00000000009,
      "d": 793.3333333333285,
      "v": 79
    },
    {
      "midi": 66,
      "hit": false,
      "t": 77600.00000000009,
      "d": 793.3333333333285,
      "v": 92
    },
    {
      "midi": 69,
      "hit": false,
      "t": 77600.00000000009,
      "d": 793.3333333333285,
      "v": 88
    },
    {
      "midi": 42,
      "hit": false,
      "t": 77600.00000000009,
      "d": 800,
      "v": 90
    },
    {
      "midi": 57,
      "hit": false,
      "t": 78000.00000000009,
      "d": 393.3333333333285,
      "v": 73
    },
    {
      "midi": 61,
      "hit": false,
      "t": 78400.00000000001,
      "d": 320,
      "v": 88
    },
    {
      "midi": 61,
      "hit": false,
      "t": 78400.00000000009,
      "d": 793.3333333333285,
      "v": 79
    },
    {
      "midi": 65,
      "hit": false,
      "t": 78400.00000000009,
      "d": 793.3333333333285,
      "v": 92
    },
    {
      "midi": 68,
      "hit": false,
      "t": 78400.00000000009,
      "d": 793.3333333333285,
      "v": 88
    },
    {
      "midi": 49,
      "hit": false,
      "t": 78400.00000000009,
      "d": 800,
      "v": 90
    },
    {
      "midi": 65,
      "hit": false,
      "t": 78800.00000000001,
      "d": 320,
      "v": 107
    },
    {
      "midi": 56,
      "hit": false,
      "t": 78800.00000000009,
      "d": 393.3333333333285,
      "v": 73
    },
    {
      "midi": 58,
      "hit": false,
      "t": 79200.00000000001,
      "d": 320,
      "v": 104
    },
    {
      "midi": 58,
      "hit": false,
      "t": 79200.00000000009,
      "d": 793.3333333333285,
      "v": 79
    },
    {
      "midi": 61,
      "hit": false,
      "t": 79200.00000000009,
      "d": 793.3333333333285,
      "v": 92
    },
    {
      "midi": 65,
      "hit": false,
      "t": 79200.00000000009,
      "d": 793.3333333333285,
      "v": 88
    },
    {
      "midi": 46,
      "hit": false,
      "t": 79200.00000000009,
      "d": 800,
      "v": 90
    },
    {
      "midi": 61,
      "hit": false,
      "t": 79600.00000000001,
      "d": 320,
      "v": 99
    },
    {
      "midi": 53,
      "hit": false,
      "t": 79600.00000000009,
      "d": 393.3333333333285,
      "v": 73
    },
    {
      "midi": 58,
      "hit": false,
      "t": 80000.00000000001,
      "d": 320,
      "v": 86
    },
    {
      "midi": 54,
      "hit": false,
      "t": 80000.00000000009,
      "d": 230,
      "v": 80
    },
    {
      "midi": 58,
      "hit": false,
      "t": 80000.00000000009,
      "d": 366.6666666666715,
      "v": 100
    },
    {
      "midi": 63,
      "hit": false,
      "t": 80000.00000000009,
      "d": 390,
      "v": 96
    },
    {
      "midi": 66,
      "hit": false,
      "t": 80000.00000000009,
      "d": 406.6666666666715,
      "v": 94
    },
    {
      "midi": 39,
      "hit": false,
      "t": 80000.00000000009,
      "d": 783.333333333343,
      "v": 86
    },
    {
      "midi": 54,
      "hit": false,
      "t": 80266.66666666676,
      "d": 516.6666666666715,
      "v": 81
    },
    {
      "midi": 63,
      "hit": false,
      "t": 80400.00000000001,
      "d": 640,
      "v": 100
    },
    {
      "midi": 58,
      "hit": false,
      "t": 80533.33333333343,
      "d": 250,
      "v": 71
    },
    {
      "midi": 63,
      "hit": false,
      "t": 80666.66666666676,
      "d": 133.33333333334303,
      "v": 94
    },
    {
      "midi": 44,
      "hit": false,
      "t": 80800.0000000001,
      "d": 800,
      "v": 83
    },
    {
      "midi": 60,
      "hit": false,
      "t": 81066.66666666677,
      "d": 533.3333333333285,
      "v": 86
    },
    {
      "midi": 63,
      "hit": false,
      "t": 81066.66666666677,
      "d": 533.3333333333285,
      "v": 102
    },
    {
      "midi": 66,
      "hit": false,
      "t": 81066.66666666677,
      "d": 533.3333333333285,
      "v": 102
    },
    {
      "midi": 68,
      "hit": false,
      "t": 81066.66666666677,
      "d": 533.3333333333285,
      "v": 92
    },
    {
      "midi": 54,
      "hit": false,
      "t": 81200.00000000001,
      "d": 320,
      "v": 102
    },
    {
      "midi": 56,
      "hit": false,
      "t": 81600.00000000001,
      "d": 2383.3333333333285,
      "v": 92
    },
    {
      "midi": 53,
      "hit": false,
      "t": 81600.0000000001,
      "d": 1566.666666666657,
      "v": 84
    },
    {
      "midi": 56,
      "hit": false,
      "t": 81600.0000000001,
      "d": 1566.666666666657,
      "v": 84
    },
    {
      "midi": 61,
      "hit": false,
      "t": 81600.0000000001,
      "d": 1566.666666666657,
      "v": 84
    },
    {
      "midi": 49,
      "hit": false,
      "t": 82266.66666666677,
      "d": 133.33333333332848,
      "v": 84
    },
    {
      "midi": 37,
      "hit": false,
      "t": 82400.0000000001,
      "d": 220,
      "v": 84
    },
    {
      "midi": 49,
      "hit": false,
      "t": 82666.66666666677,
      "d": 63.33333333332848,
      "v": 84
    },
    {
      "midi": 49,
      "hit": false,
      "t": 82933.33333333343,
      "d": 63.33333333332848,
      "v": 84
    },
    {
      "midi": 37,
      "hit": false,
      "t": 83066.66666666676,
      "d": 100,
      "v": 84
    },
    {
      "midi": 53,
      "hit": false,
      "t": 83200.00000000009,
      "d": 1510,
      "v": 84
    },
    {
      "midi": 56,
      "hit": false,
      "t": 83200.00000000009,
      "d": 1510,
      "v": 84
    },
    {
      "midi": 61,
      "hit": false,
      "t": 83200.00000000009,
      "d": 1510,
      "v": 84
    },
    {
      "midi": 49,
      "hit": false,
      "t": 83200.00000000009,
      "d": 1533.3333333333285,
      "v": 84
    }
  ]
}