{
  "jsonPath": "Soundtracks/Video Game Music/Max Payne/max-payne-maxpaynetheme.json",
  "path": "Soundtracks\\Video Game Music\\Max Payne\\Max_Payne_MaxPayneTheme.mid",
  "name": "Max_Payne_MaxPayneTheme",
  "difficulty": "Advanced",
  "bpm": 60,
  "notes": [
    {
      "midi": 36,
      "hit": false,
      "t": 0,
      "d": 6000,
      "v": 85
    },
    {
      "midi": 24,
      "hit": false,
      "t": 0,
      "d": 6000,
      "v": 85
    },
    {
      "midi": 60,
      "hit": false,
      "t": 1500,
      "d": 250,
      "v": 54
    },
    {
      "midi": 63,
      "hit": false,
      "t": 1750,
      "d": 250,
      "v": 66
    },
    {
      "midi": 65,
      "hit": false,
      "t": 2000,
      "d": 500,
      "v": 60
    },
    {
      "midi": 67,
      "hit": false,
      "t": 2500,
      "d": 500,
      "v": 66
    },
    {
      "midi": 72,
      "hit": false,
      "t": 3000,
      "d": 750,
      "v": 69
    },
    {
      "midi": 67,
      "hit": false,
      "t": 3750,
      "d": 750,
      "v": 52
    },
    {
      "midi": 70,
      "hit": false,
      "t": 4500,
      "d": 750,
      "v": 63
    },
    {
      "midi": 67,
      "hit": false,
      "t": 5250,
      "d": 250,
      "v": 59
    },
    {
      "midi": 63,
      "hit": false,
      "t": 5500,
      "d": 500,
      "v": 52
    },
    {
      "midi": 59,
      "hit": false,
      "t": 6000,
      "d": 2000,
      "v": 59
    },
    {
      "midi": 35,
      "hit": false,
      "t": 6000,
      "d": 3000,
      "v": 89
    },
    {
      "midi": 23,
      "hit": false,
      "t": 6000,
      "d": 3000,
      "v": 89
    },
    {
      "midi": 56,
      "hit": false,
      "t": 8000,
      "d": 500,
      "v": 58
    },
    {
      "midi": 55,
      "hit": false,
      "t": 8500,
      "d": 500,
      "v": 59
    },
    {
      "midi": 62,
      "hit": false,
      "t": 9000,
      "d": 750,
      "v": 71
    },
    {
      "midi": 43,
      "hit": false,
      "t": 9000,
      "d": 3000,
      "v": 108
    },
    {
      "midi": 31,
      "hit": false,
      "t": 9000,
      "d": 3000,
      "v": 108
    },
    {
      "midi": 55,
      "hit": false,
      "t": 9750,
      "d": 750,
      "v": 54
    },
    {
      "midi": 62,
      "hit": false,
      "t": 10500,
      "d": 750,
      "v": 67
    },
    {
      "midi": 63,
      "hit": false,
      "t": 11250,
      "d": 750,
      "v": 63
    },
    {
      "midi": 59,
      "hit": false,
      "t": 12000,
      "d": 750,
      "v": 56
    },
    {
      "midi": 36,
      "hit": false,
      "t": 12000,
      "d": 6000,
      "v": 89
    },
    {
      "midi": 24,
      "hit": false,
      "t": 12000,
      "d": 6000,
      "v": 89
    },
    {
      "midi": 60,
      "hit": false,
      "t": 12750,
      "d": 750,
      "v": 65
    },
    {
      "midi": 63,
      "hit": false,
      "t": 13500,
      "d": 500,
      "v": 62
    },
    {
      "midi": 65,
      "hit": false,
      "t": 14000,
      "d": 500,
      "v": 67
    },
    {
      "midi": 67,
      "hit": false,
      "t": 14500,
      "d": 500,
      "v": 67
    },
    {
      "midi": 72,
      "hit": false,
      "t": 15000,
      "d": 750,
      "v": 69
    },
    {
      "midi": 67,
      "hit": false,
      "t": 15750,
      "d": 750,
      "v": 55
    },
    {
      "midi": 70,
      "hit": false,
      "t": 16500,
      "d": 750,
      "v": 63
    },
    {
      "midi": 67,
      "hit": false,
      "t": 17250,
      "d": 250,
      "v": 52
    },
    {
      "midi": 63,
      "hit": false,
      "t": 17500,
      "d": 500,
      "v": 60
    },
    {
      "midi": 59,
      "hit": false,
      "t": 18000,
      "d": 2500,
      "v": 54
    },
    {
      "midi": 35,
      "hit": false,
      "t": 18000,
      "d": 3000,
      "v": 92
    },
    {
      "midi": 23,
      "hit": false,
      "t": 18000,
      "d": 3000,
      "v": 92
    },
    {
      "midi": 56,
      "hit": false,
      "t": 20500,
      "d": 250,
      "v": 56
    },
    {
      "midi": 55,
      "hit": false,
      "t": 20750,
      "d": 250,
      "v": 57
    },
    {
      "midi": 62,
      "hit": false,
      "t": 21000,
      "d": 750,
      "v": 69
    },
    {
      "midi": 43,
      "hit": false,
      "t": 21000,
      "d": 3000,
      "v": 105
    },
    {
      "midi": 31,
      "hit": false,
      "t": 21000,
      "d": 3000,
      "v": 105
    },
    {
      "midi": 55,
      "hit": false,
      "t": 21750,
      "d": 750,
      "v": 56
    },
    {
      "midi": 62,
      "hit": false,
      "t": 22500,
      "d": 750,
      "v": 73
    },
    {
      "midi": 63,
      "hit": false,
      "t": 23250,
      "d": 750,
      "v": 68
    },
    {
      "midi": 36,
      "hit": false,
      "t": 24000,
      "d": 6000,
      "v": 67
    },
    {
      "midi": 24,
      "hit": false,
      "t": 24000,
      "d": 6000,
      "v": 67
    },
    {
      "midi": 72,
      "hit": false,
      "t": 25500,
      "d": 250,
      "v": 64
    },
    {
      "midi": 60,
      "hit": false,
      "t": 25500,
      "d": 250,
      "v": 64
    },
    {
      "midi": 75,
      "hit": false,
      "t": 25750,
      "d": 250,
      "v": 77
    },
    {
      "midi": 63,
      "hit": false,
      "t": 25750,
      "d": 250,
      "v": 77
    },
    {
      "midi": 77,
      "hit": false,
      "t": 26000,
      "d": 500,
      "v": 77
    },
    {
      "midi": 65,
      "hit": false,
      "t": 26000,
      "d": 500,
      "v": 77
    },
    {
      "midi": 79,
      "hit": false,
      "t": 26500,
      "d": 500,
      "v": 77
    },
    {
      "midi": 67,
      "hit": false,
      "t": 26500,
      "d": 500,
      "v": 77
    },
    {
      "midi": 84,
      "hit": false,
      "t": 27000,
      "d": 750,
      "v": 81
    },
    {
      "midi": 72,
      "hit": false,
      "t": 27000,
      "d": 750,
      "v": 81
    },
    {
      "midi": 79,
      "hit": false,
      "t": 27750,
      "d": 750,
      "v": 65
    },
    {
      "midi": 67,
      "hit": false,
      "t": 27750,
      "d": 750,
      "v": 65
    },
    {
      "midi": 82,
      "hit": false,
      "t": 28500,
      "d": 750,
      "v": 74
    },
    {
      "midi": 70,
      "hit": false,
      "t": 28500,
      "d": 750,
      "v": 74
    },
    {
      "midi": 79,
      "hit": false,
      "t": 29250,
      "d": 250,
      "v": 68
    },
    {
      "midi": 67,
      "hit": false,
      "t": 29250,
      "d": 250,
      "v": 68
    },
    {
      "midi": 75,
      "hit": false,
      "t": 29500,
      "d": 500,
      "v": 57
    },
    {
      "midi": 63,
      "hit": false,
      "t": 29500,
      "d": 500,
      "v": 57
    },
    {
      "midi": 71,
      "hit": false,
      "t": 30000,
      "d": 2000,
      "v": 64
    },
    {
      "midi": 59,
      "hit": false,
      "t": 30000,
      "d": 2000,
      "v": 64
    },
    {
      "midi": 35,
      "hit": false,
      "t": 30000,
      "d": 3000,
      "v": 69
    },
    {
      "midi": 23,
      "hit": false,
      "t": 30000,
      "d": 3000,
      "v": 69
    },
    {
      "midi": 68,
      "hit": false,
      "t": 32000,
      "d": 500,
      "v": 66
    },
    {
      "midi": 56,
      "hit": false,
      "t": 32000,
      "d": 500,
      "v": 66
    },
    {
      "midi": 67,
      "hit": false,
      "t": 32500,
      "d": 500,
      "v": 69
    },
    {
      "midi": 55,
      "hit": false,
      "t": 32500,
      "d": 500,
      "v": 69
    },
    {
      "midi": 74,
      "hit": false,
      "t": 33000,
      "d": 750,
      "v": 81
    },
    {
      "midi": 62,
      "hit": false,
      "t": 33000,
      "d": 750,
      "v": 81
    },
    {
      "midi": 43,
      "hit": false,
      "t": 33000,
      "d": 3000,
      "v": 77
    },
    {
      "midi": 31,
      "hit": false,
      "t": 33000,
      "d": 3000,
      "v": 77
    },
    {
      "midi": 67,
      "hit": false,
      "t": 33750,
      "d": 750,
      "v": 58
    },
    {
      "midi": 55,
      "hit": false,
      "t": 33750,
      "d": 750,
      "v": 58
    },
    {
      "midi": 74,
      "hit": false,
      "t": 34500,
      "d": 750,
      "v": 79
    },
    {
      "midi": 62,
      "hit": false,
      "t": 34500,
      "d": 750,
      "v": 79
    },
    {
      "midi": 75,
      "hit": false,
      "t": 35250,
      "d": 750,
      "v": 76
    },
    {
      "midi": 63,
      "hit": false,
      "t": 35250,
      "d": 750,
      "v": 76
    },
    {
      "midi": 71,
      "hit": false,
      "t": 36000,
      "d": 750,
      "v": 63
    },
    {
      "midi": 59,
      "hit": false,
      "t": 36000,
      "d": 750,
      "v": 63
    },
    {
      "midi": 36,
      "hit": false,
      "t": 36000,
      "d": 6000,
      "v": 62
    },
    {
      "midi": 24,
      "hit": false,
      "t": 36000,
      "d": 6000,
      "v": 62
    },
    {
      "midi": 72,
      "hit": false,
      "t": 36750,
      "d": 750,
      "v": 73
    },
    {
      "midi": 60,
      "hit": false,
      "t": 36750,
      "d": 750,
      "v": 73
    },
    {
      "midi": 75,
      "hit": false,
      "t": 37500,
      "d": 500,
      "v": 77
    },
    {
      "midi": 63,
      "hit": false,
      "t": 37500,
      "d": 500,
      "v": 77
    },
    {
      "midi": 77,
      "hit": false,
      "t": 38000,
      "d": 500,
      "v": 73
    },
    {
      "midi": 65,
      "hit": false,
      "t": 38000,
      "d": 500,
      "v": 73
    },
    {
      "midi": 79,
      "hit": false,
      "t": 38500,
      "d": 500,
      "v": 76
    },
    {
      "midi": 67,
      "hit": false,
      "t": 38500,
      "d": 500,
      "v": 76
    },
    {
      "midi": 84,
      "hit": false,
      "t": 39000,
      "d": 750,
      "v": 80
    },
    {
      "midi": 72,
      "hit": false,
      "t": 39000,
      "d": 750,
      "v": 80
    },
    {
      "midi": 79,
      "hit": false,
      "t": 39750,
      "d": 750,
      "v": 61
    },
    {
      "midi": 67,
      "hit": false,
      "t": 39750,
      "d": 750,
      "v": 61
    },
    {
      "midi": 82,
      "hit": false,
      "t": 40500,
      "d": 750,
      "v": 74
    },
    {
      "midi": 70,
      "hit": false,
      "t": 40500,
      "d": 750,
      "v": 74
    },
    {
      "midi": 79,
      "hit": false,
      "t": 41250,
      "d": 250,
      "v": 70
    },
    {
      "midi": 67,
      "hit": false,
      "t": 41250,
      "d": 250,
      "v": 70
    },
    {
      "midi": 75,
      "hit": false,
      "t": 41500,
      "d": 500,
      "v": 62
    },
    {
      "midi": 63,
      "hit": false,
      "t": 41500,
      "d": 500,
      "v": 62
    },
    {
      "midi": 71,
      "hit": false,
      "t": 42000,
      "d": 2500,
      "v": 59
    },
    {
      "midi": 59,
      "hit": false,
      "t": 42000,
      "d": 2500,
      "v": 59
    },
    {
      "midi": 35,
      "hit": false,
      "t": 42000,
      "d": 3000,
      "v": 71
    },
    {
      "midi": 23,
      "hit": false,
      "t": 42000,
      "d": 3000,
      "v": 71
    },
    {
      "midi": 68,
      "hit": false,
      "t": 44500,
      "d": 250,
      "v": 63
    },
    {
      "midi": 56,
      "hit": false,
      "t": 44500,
      "d": 250,
      "v": 63
    },
    {
      "midi": 67,
      "hit": false,
      "t": 44750,
      "d": 250,
      "v": 68
    },
    {
      "midi": 55,
      "hit": false,
      "t": 44750,
      "d": 250,
      "v": 68
    },
    {
      "midi": 74,
      "hit": false,
      "t": 45000,
      "d": 750,
      "v": 87
    },
    {
      "midi": 62,
      "hit": false,
      "t": 45000,
      "d": 750,
      "v": 87
    },
    {
      "midi": 43,
      "hit": false,
      "t": 45000,
      "d": 3000,
      "v": 74
    },
    {
      "midi": 31,
      "hit": false,
      "t": 45000,
      "d": 3000,
      "v": 74
    },
    {
      "midi": 67,
      "hit": false,
      "t": 45750,
      "d": 750,
      "v": 58
    },
    {
      "midi": 55,
      "hit": false,
      "t": 45750,
      "d": 750,
      "v": 58
    },
    {
      "midi": 74,
      "hit": false,
      "t": 46500,
      "d": 750,
      "v": 86
    },
    {
      "midi": 62,
      "hit": false,
      "t": 46500,
      "d": 750,
      "v": 86
    },
    {
      "midi": 75,
      "hit": false,
      "t": 47250,
      "d": 750,
      "v": 80
    },
    {
      "midi": 63,
      "hit": false,
      "t": 47250,
      "d": 750,
      "v": 80
    },
    {
      "midi": 65,
      "hit": false,
      "t": 48000,
      "d": 1500,
      "v": 55
    },
    {
      "midi": 53,
      "hit": false,
      "t": 48000,
      "d": 1500,
      "v": 55
    },
    {
      "midi": 41,
      "hit": false,
      "t": 48000,
      "d": 3000,
      "v": 73
    },
    {
      "midi": 29,
      "hit": false,
      "t": 48000,
      "d": 3000,
      "v": 73
    },
    {
      "midi": 65,
      "hit": false,
      "t": 49500,
      "d": 250,
      "v": 72
    },
    {
      "midi": 53,
      "hit": false,
      "t": 49500,
      "d": 250,
      "v": 72
    },
    {
      "midi": 67,
      "hit": false,
      "t": 49750,
      "d": 250,
      "v": 76
    },
    {
      "midi": 55,
      "hit": false,
      "t": 49750,
      "d": 250,
      "v": 76
    },
    {
      "midi": 68,
      "hit": false,
      "t": 50000,
      "d": 500,
      "v": 75
    },
    {
      "midi": 56,
      "hit": false,
      "t": 50000,
      "d": 500,
      "v": 75
    },
    {
      "midi": 74,
      "hit": false,
      "t": 50500,
      "d": 500,
      "v": 87
    },
    {
      "midi": 62,
      "hit": false,
      "t": 50500,
      "d": 500,
      "v": 87
    },
    {
      "midi": 71,
      "hit": false,
      "t": 51000,
      "d": 750,
      "v": 64
    },
    {
      "midi": 59,
      "hit": false,
      "t": 51000,
      "d": 750,
      "v": 64
    },
    {
      "midi": 43,
      "hit": false,
      "t": 51000,
      "d": 3000,
      "v": 76
    },
    {
      "midi": 31,
      "hit": false,
      "t": 51000,
      "d": 3000,
      "v": 76
    },
    {
      "midi": 67,
      "hit": false,
      "t": 51750,
      "d": 750,
      "v": 61
    },
    {
      "midi": 55,
      "hit": false,
      "t": 51750,
      "d": 750,
      "v": 61
    },
    {
      "midi": 75,
      "hit": false,
      "t": 52500,
      "d": 750,
      "v": 83
    },
    {
      "midi": 63,
      "hit": false,
      "t": 52500,
      "d": 750,
      "v": 83
    },
    {
      "midi": 74,
      "hit": false,
      "t": 53250,
      "d": 750,
      "v": 70
    },
    {
      "midi": 62,
      "hit": false,
      "t": 53250,
      "d": 750,
      "v": 70
    },
    {
      "midi": 65,
      "hit": false,
      "t": 54000,
      "d": 1500,
      "v": 59
    },
    {
      "midi": 53,
      "hit": false,
      "t": 54000,
      "d": 1500,
      "v": 59
    },
    {
      "midi": 41,
      "hit": false,
      "t": 54000,
      "d": 3000,
      "v": 71
    },
    {
      "midi": 29,
      "hit": false,
      "t": 54000,
      "d": 3000,
      "v": 71
    },
    {
      "midi": 65,
      "hit": false,
      "t": 55500,
      "d": 250,
      "v": 64
    },
    {
      "midi": 53,
      "hit": false,
      "t": 55500,
      "d": 250,
      "v": 64
    },
    {
      "midi": 67,
      "hit": false,
      "t": 55750,
      "d": 250,
      "v": 80
    },
    {
      "midi": 55,
      "hit": false,
      "t": 55750,
      "d": 250,
      "v": 80
    },
    {
      "midi": 68,
      "hit": false,
      "t": 56000,
      "d": 500,
      "v": 74
    },
    {
      "midi": 56,
      "hit": false,
      "t": 56000,
      "d": 500,
      "v": 74
    },
    {
      "midi": 74,
      "hit": false,
      "t": 56500,
      "d": 500,
      "v": 88
    },
    {
      "midi": 62,
      "hit": false,
      "t": 56500,
      "d": 500,
      "v": 88
    },
    {
      "midi": 72,
      "hit": false,
      "t": 57000,
      "d": 750,
      "v": 66
    },
    {
      "midi": 60,
      "hit": false,
      "t": 57000,
      "d": 750,
      "v": 66
    },
    {
      "midi": 43,
      "hit": false,
      "t": 57000,
      "d": 3000,
      "v": 70
    },
    {
      "midi": 31,
      "hit": false,
      "t": 57000,
      "d": 3000,
      "v": 70
    },
    {
      "midi": 71,
      "hit": false,
      "t": 57750,
      "d": 750,
      "v": 70
    },
    {
      "midi": 59,
      "hit": false,
      "t": 57750,
      "d": 750,
      "v": 70
    },
    {
      "midi": 69,
      "hit": false,
      "t": 58500,
      "d": 750,
      "v": 61
    },
    {
      "midi": 57,
      "hit": false,
      "t": 58500,
      "d": 750,
      "v": 61
    },
    {
      "midi": 71,
      "hit": false,
      "t": 59250,
      "d": 750,
      "v": 71
    },
    {
      "midi": 59,
      "hit": false,
      "t": 59250,
      "d": 750,
      "v": 71
    },
    {
      "midi": 79,
      "hit": false,
      "t": 60000,
      "d": 1500,
      "v": 127
    },
    {
      "midi": 75,
      "hit": false,
      "t": 60000,
      "d": 1500,
      "v": 127
    },
    {
      "midi": 72,
      "hit": false,
      "t": 60000,
      "d": 1500,
      "v": 127
    },
    {
      "midi": 67,
      "hit": false,
      "t": 60000,
      "d": 1500,
      "v": 127
    },
    {
      "midi": 36,
      "hit": false,
      "t": 60000,
      "d": 6000,
      "v": 86
    },
    {
      "midi": 24,
      "hit": false,
      "t": 60000,
      "d": 6000,
      "v": 86
    },
    {
      "midi": 72,
      "hit": false,
      "t": 61500,
      "d": 250,
      "v": 84
    },
    {
      "midi": 60,
      "hit": false,
      "t": 61500,
      "d": 250,
      "v": 84
    },
    {
      "midi": 75,
      "hit": false,
      "t": 61750,
      "d": 250,
      "v": 104
    },
    {
      "midi": 63,
      "hit": false,
      "t": 61750,
      "d": 250,
      "v": 104
    },
    {
      "midi": 77,
      "hit": false,
      "t": 62000,
      "d": 500,
      "v": 105
    },
    {
      "midi": 65,
      "hit": false,
      "t": 62000,
      "d": 500,
      "v": 105
    },
    {
      "midi": 79,
      "hit": false,
      "t": 62500,
      "d": 500,
      "v": 109
    },
    {
      "midi": 67,
      "hit": false,
      "t": 62500,
      "d": 500,
      "v": 109
    },
    {
      "midi": 84,
      "hit": false,
      "t": 63000,
      "d": 750,
      "v": 113
    },
    {
      "midi": 72,
      "hit": false,
      "t": 63000,
      "d": 750,
      "v": 113
    },
    {
      "midi": 79,
      "hit": false,
      "t": 63750,
      "d": 750,
      "v": 89
    },
    {
      "midi": 67,
      "hit": false,
      "t": 63750,
      "d": 750,
      "v": 89
    },
    {
      "midi": 82,
      "hit": false,
      "t": 64500,
      "d": 750,
      "v": 102
    },
    {
      "midi": 70,
      "hit": false,
      "t": 64500,
      "d": 750,
      "v": 102
    },
    {
      "midi": 79,
      "hit": false,
      "t": 65250,
      "d": 250,
      "v": 87
    },
    {
      "midi": 67,
      "hit": false,
      "t": 65250,
      "d": 250,
      "v": 87
    },
    {
      "midi": 75,
      "hit": false,
      "t": 65500,
      "d": 500,
      "v": 87
    },
    {
      "midi": 63,
      "hit": false,
      "t": 65500,
      "d": 500,
      "v": 87
    },
    {
      "midi": 79,
      "hit": false,
      "t": 66000,
      "d": 2000,
      "v": 127
    },
    {
      "midi": 77,
      "hit": false,
      "t": 66000,
      "d": 2000,
      "v": 127
    },
    {
      "midi": 74,
      "hit": false,
      "t": 66000,
      "d": 2000,
      "v": 127
    },
    {
      "midi": 71,
      "hit": false,
      "t": 66000,
      "d": 2000,
      "v": 127
    },
    {
      "midi": 35,
      "hit": false,
      "t": 66000,
      "d": 3000,
      "v": 95
    },
    {
      "midi": 23,
      "hit": false,
      "t": 66000,
      "d": 3000,
      "v": 95
    },
    {
      "midi": 68,
      "hit": false,
      "t": 68000,
      "d": 500,
      "v": 70
    },
    {
      "midi": 56,
      "hit": false,
      "t": 68000,
      "d": 500,
      "v": 70
    },
    {
      "midi": 67,
      "hit": false,
      "t": 68500,
      "d": 500,
      "v": 85
    },
    {
      "midi": 55,
      "hit": false,
      "t": 68500,
      "d": 500,
      "v": 85
    },
    {
      "midi": 74,
      "hit": false,
      "t": 69000,
      "d": 750,
      "v": 110
    },
    {
      "midi": 62,
      "hit": false,
      "t": 69000,
      "d": 750,
      "v": 110
    },
    {
      "midi": 43,
      "hit": false,
      "t": 69000,
      "d": 3000,
      "v": 106
    },
    {
      "midi": 31,
      "hit": false,
      "t": 69000,
      "d": 3000,
      "v": 106
    },
    {
      "midi": 67,
      "hit": false,
      "t": 69750,
      "d": 750,
      "v": 84
    },
    {
      "midi": 55,
      "hit": false,
      "t": 69750,
      "d": 750,
      "v": 84
    },
    {
      "midi": 74,
      "hit": false,
      "t": 70500,
      "d": 750,
      "v": 108
    },
    {
      "midi": 62,
      "hit": false,
      "t": 70500,
      "d": 750,
      "v": 108
    },
    {
      "midi": 75,
      "hit": false,
      "t": 71250,
      "d": 750,
      "v": 102
    },
    {
      "midi": 63,
      "hit": false,
      "t": 71250,
      "d": 750,
      "v": 102
    },
    {
      "midi": 79,
      "hit": false,
      "t": 72000,
      "d": 750,
      "v": 127
    },
    {
      "midi": 75,
      "hit": false,
      "t": 72000,
      "d": 750,
      "v": 127
    },
    {
      "midi": 72,
      "hit": false,
      "t": 72000,
      "d": 750,
      "v": 127
    },
    {
      "midi": 71,
      "hit": false,
      "t": 72000,
      "d": 750,
      "v": 127
    },
    {
      "midi": 36,
      "hit": false,
      "t": 72000,
      "d": 6000,
      "v": 95
    },
    {
      "midi": 24,
      "hit": false,
      "t": 72000,
      "d": 6000,
      "v": 95
    },
    {
      "midi": 72,
      "hit": false,
      "t": 72750,
      "d": 750,
      "v": 77
    },
    {
      "midi": 60,
      "hit": false,
      "t": 72750,
      "d": 750,
      "v": 77
    },
    {
      "midi": 75,
      "hit": false,
      "t": 73500,
      "d": 500,
      "v": 100
    },
    {
      "midi": 63,
      "hit": false,
      "t": 73500,
      "d": 500,
      "v": 100
    },
    {
      "midi": 77,
      "hit": false,
      "t": 74000,
      "d": 500,
      "v": 108
    },
    {
      "midi": 65,
      "hit": false,
      "t": 74000,
      "d": 500,
      "v": 108
    },
    {
      "midi": 79,
      "hit": false,
      "t": 74500,
      "d": 500,
      "v": 102
    },
    {
      "midi": 67,
      "hit": false,
      "t": 74500,
      "d": 500,
      "v": 102
    },
    {
      "midi": 84,
      "hit": false,
      "t": 75000,
      "d": 750,
      "v": 117
    },
    {
      "midi": 72,
      "hit": false,
      "t": 75000,
      "d": 750,
      "v": 117
    },
    {
      "midi": 79,
      "hit": false,
      "t": 75750,
      "d": 750,
      "v": 87
    },
    {
      "midi": 67,
      "hit": false,
      "t": 75750,
      "d": 750,
      "v": 87
    },
    {
      "midi": 82,
      "hit": false,
      "t": 76500,
      "d": 750,
      "v": 104
    },
    {
      "midi": 70,
      "hit": false,
      "t": 76500,
      "d": 750,
      "v": 104
    },
    {
      "midi": 79,
      "hit": false,
      "t": 77250,
      "d": 250,
      "v": 91
    },
    {
      "midi": 67,
      "hit": false,
      "t": 77250,
      "d": 250,
      "v": 91
    },
    {
      "midi": 75,
      "hit": false,
      "t": 77500,
      "d": 500,
      "v": 82
    },
    {
      "midi": 63,
      "hit": false,
      "t": 77500,
      "d": 500,
      "v": 82
    },
    {
      "midi": 79,
      "hit": false,
      "t": 78000,
      "d": 2500,
      "v": 127
    },
    {
      "midi": 77,
      "hit": false,
      "t": 78000,
      "d": 2500,
      "v": 127
    },
    {
      "midi": 74,
      "hit": false,
      "t": 78000,
      "d": 2500,
      "v": 127
    },
    {
      "midi": 71,
      "hit": false,
      "t": 78000,
      "d": 2500,
      "v": 127
    },
    {
      "midi": 35,
      "hit": false,
      "t": 78000,
      "d": 3000,
      "v": 95
    },
    {
      "midi": 23,
      "hit": false,
      "t": 78000,
      "d": 3000,
      "v": 95
    },
    {
      "midi": 68,
      "hit": false,
      "t": 80500,
      "d": 250,
      "v": 76
    },
    {
      "midi": 56,
      "hit": false,
      "t": 80500,
      "d": 250,
      "v": 76
    },
    {
      "midi": 67,
      "hit": false,
      "t": 80750,
      "d": 250,
      "v": 87
    },
    {
      "midi": 55,
      "hit": false,
      "t": 80750,
      "d": 250,
      "v": 87
    },
    {
      "midi": 74,
      "hit": false,
      "t": 81000,
      "d": 750,
      "v": 111
    },
    {
      "midi": 62,
      "hit": false,
      "t": 81000,
      "d": 750,
      "v": 111
    },
    {
      "midi": 43,
      "hit": false,
      "t": 81000,
      "d": 3000,
      "v": 104
    },
    {
      "midi": 31,
      "hit": false,
      "t": 81000,
      "d": 3000,
      "v": 104
    },
    {
      "midi": 67,
      "hit": false,
      "t": 81750,
      "d": 750,
      "v": 79
    },
    {
      "midi": 55,
      "hit": false,
      "t": 81750,
      "d": 750,
      "v": 79
    },
    {
      "midi": 74,
      "hit": false,
      "t": 82500,
      "d": 750,
      "v": 114
    },
    {
      "midi": 62,
      "hit": false,
      "t": 82500,
      "d": 750,
      "v": 114
    },
    {
      "midi": 75,
      "hit": false,
      "t": 83250,
      "d": 750,
      "v": 101
    },
    {
      "midi": 63,
      "hit": false,
      "t": 83250,
      "d": 750,
      "v": 101
    },
    {
      "midi": 67,
      "hit": false,
      "t": 84000,
      "d": 1500,
      "v": 103
    },
    {
      "midi": 60,
      "hit": false,
      "t": 84000,
      "d": 1500,
      "v": 103
    },
    {
      "midi": 36,
      "hit": false,
      "t": 84000,
      "d": 6000,
      "v": 63
    },
    {
      "midi": 24,
      "hit": false,
      "t": 84000,
      "d": 6000,
      "v": 63
    },
    {
      "midi": 60,
      "hit": false,
      "t": 85500,
      "d": 500,
      "v": 92
    },
    {
      "midi": 62,
      "hit": false,
      "t": 86000,
      "d": 500,
      "v": 101
    },
    {
      "midi": 63,
      "hit": false,
      "t": 86500,
      "d": 500,
      "v": 103
    },
    {
      "midi": 60,
      "hit": false,
      "t": 87000,
      "d": 500,
      "v": 91
    },
    {
      "midi": 68,
      "hit": false,
      "t": 87500,
      "d": 500,
      "v": 110
    },
    {
      "midi": 67,
      "hit": false,
      "t": 88000,
      "d": 500,
      "v": 94
    },
    {
      "midi": 67,
      "hit": false,
      "t": 88500,
      "d": 500,
      "v": 96
    },
    {
      "midi": 60,
      "hit": false,
      "t": 88500,
      "d": 500,
      "v": 96
    },
    {
      "midi": 72,
      "hit": false,
      "t": 88500,
      "d": 1500,
      "v": 111
    },
    {
      "midi": 67,
      "hit": false,
      "t": 89000,
      "d": 500,
      "v": 98
    },
    {
      "midi": 62,
      "hit": false,
      "t": 89000,
      "d": 500,
      "v": 98
    },
    {
      "midi": 67,
      "hit": false,
      "t": 89500,
      "d": 500,
      "v": 97
    },
    {
      "midi": 63,
      "hit": false,
      "t": 89500,
      "d": 500,
      "v": 97
    },
    {
      "midi": 59,
      "hit": false,
      "t": 90000,
      "d": 1500,
      "v": 102
    },
    {
      "midi": 35,
      "hit": false,
      "t": 90000,
      "d": 3000,
      "v": 67
    },
    {
      "midi": 23,
      "hit": false,
      "t": 90000,
      "d": 3000,
      "v": 67
    },
    {
      "midi": 68,
      "hit": false,
      "t": 90500,
      "d": 500,
      "v": 85
    },
    {
      "midi": 62,
      "hit": false,
      "t": 90500,
      "d": 500,
      "v": 85
    },
    {
      "midi": 67,
      "hit": false,
      "t": 91000,
      "d": 500,
      "v": 92
    },
    {
      "midi": 62,
      "hit": false,
      "t": 91000,
      "d": 500,
      "v": 92
    },
    {
      "midi": 62,
      "hit": false,
      "t": 91500,
      "d": 500,
      "v": 86
    },
    {
      "midi": 63,
      "hit": false,
      "t": 92000,
      "d": 500,
      "v": 98
    },
    {
      "midi": 65,
      "hit": false,
      "t": 92500,
      "d": 500,
      "v": 101
    },
    {
      "midi": 43,
      "hit": false,
      "t": 93000,
      "d": 3000,
      "v": 86
    },
    {
      "midi": 31,
      "hit": false,
      "t": 93000,
      "d": 3000,
      "v": 86
    },
    {
      "midi": 68,
      "hit": false,
      "t": 93500,
      "d": 500,
      "v": 88
    },
    {
      "midi": 67,
      "hit": false,
      "t": 94000,
      "d": 500,
      "v": 92
    },
    {
      "midi": 62,
      "hit": false,
      "t": 94500,
      "d": 500,
      "v": 84
    },
    {
      "midi": 74,
      "hit": false,
      "t": 94500,
      "d": 1500,
      "v": 112
    },
    {
      "midi": 67,
      "hit": false,
      "t": 94500,
      "d": 1500,
      "v": 112
    },
    {
      "midi": 63,
      "hit": false,
      "t": 95000,
      "d": 500,
      "v": 97
    },
    {
      "midi": 65,
      "hit": false,
      "t": 95500,
      "d": 500,
      "v": 105
    },
    {
      "midi": 67,
      "hit": false,
      "t": 96000,
      "d": 1500,
      "v": 104
    },
    {
      "midi": 60,
      "hit": false,
      "t": 96000,
      "d": 1500,
      "v": 104
    },
    {
      "midi": 36,
      "hit": false,
      "t": 96000,
      "d": 6000,
      "v": 73
    },
    {
      "midi": 24,
      "hit": false,
      "t": 96000,
      "d": 6000,
      "v": 73
    },
    {
      "midi": 60,
      "hit": false,
      "t": 97500,
      "d": 500,
      "v": 85
    },
    {
      "midi": 62,
      "hit": false,
      "t": 98000,
      "d": 500,
      "v": 99
    },
    {
      "midi": 63,
      "hit": false,
      "t": 98500,
      "d": 500,
      "v": 102
    },
    {
      "midi": 60,
      "hit": false,
      "t": 99000,
      "d": 500,
      "v": 88
    },
    {
      "midi": 68,
      "hit": false,
      "t": 99500,
      "d": 500,
      "v": 114
    },
    {
      "midi": 67,
      "hit": false,
      "t": 100000,
      "d": 500,
      "v": 91
    },
    {
      "midi": 67,
      "hit": false,
      "t": 100500,
      "d": 500,
      "v": 96
    },
    {
      "midi": 60,
      "hit": false,
      "t": 100500,
      "d": 500,
      "v": 96
    },
    {
      "midi": 72,
      "hit": false,
      "t": 100500,
      "d": 1500,
      "v": 106
    },
    {
      "midi": 67,
      "hit": false,
      "t": 101000,
      "d": 500,
      "v": 95
    },
    {
      "midi": 62,
      "hit": false,
      "t": 101000,
      "d": 500,
      "v": 95
    },
    {
      "midi": 67,
      "hit": false,
      "t": 101500,
      "d": 500,
      "v": 95
    },
    {
      "midi": 63,
      "hit": false,
      "t": 101500,
      "d": 500,
      "v": 95
    },
    {
      "midi": 59,
      "hit": false,
      "t": 102000,
      "d": 1500,
      "v": 107
    },
    {
      "midi": 35,
      "hit": false,
      "t": 102000,
      "d": 3000,
      "v": 76
    },
    {
      "midi": 23,
      "hit": false,
      "t": 102000,
      "d": 3000,
      "v": 76
    },
    {
      "midi": 68,
      "hit": false,
      "t": 102500,
      "d": 500,
      "v": 85
    },
    {
      "midi": 62,
      "hit": false,
      "t": 102500,
      "d": 500,
      "v": 85
    },
    {
      "midi": 67,
      "hit": false,
      "t": 103000,
      "d": 500,
      "v": 87
    },
    {
      "midi": 62,
      "hit": false,
      "t": 103000,
      "d": 500,
      "v": 87
    },
    {
      "midi": 62,
      "hit": false,
      "t": 103500,
      "d": 500,
      "v": 90
    },
    {
      "midi": 63,
      "hit": false,
      "t": 104000,
      "d": 500,
      "v": 98
    },
    {
      "midi": 65,
      "hit": false,
      "t": 104500,
      "d": 500,
      "v": 101
    },
    {
      "midi": 43,
      "hit": false,
      "t": 105000,
      "d": 3000,
      "v": 84
    },
    {
      "midi": 31,
      "hit": false,
      "t": 105000,
      "d": 3000,
      "v": 84
    },
    {
      "midi": 68,
      "hit": false,
      "t": 105500,
      "d": 500,
      "v": 83
    },
    {
      "midi": 67,
      "hit": false,
      "t": 106000,
      "d": 500,
      "v": 88
    },
    {
      "midi": 62,
      "hit": false,
      "t": 106500,
      "d": 500,
      "v": 81
    },
    {
      "midi": 74,
      "hit": false,
      "t": 106500,
      "d": 1500,
      "v": 110
    },
    {
      "midi": 67,
      "hit": false,
      "t": 106500,
      "d": 1500,
      "v": 110
    },
    {
      "midi": 63,
      "hit": false,
      "t": 107000,
      "d": 500,
      "v": 100
    },
    {
      "midi": 65,
      "hit": false,
      "t": 107500,
      "d": 500,
      "v": 102
    },
    {
      "midi": 67,
      "hit": false,
      "t": 108000,
      "d": 1500,
      "v": 100
    },
    {
      "midi": 60,
      "hit": false,
      "t": 108000,
      "d": 1500,
      "v": 100
    },
    {
      "midi": 36,
      "hit": false,
      "t": 108000,
      "d": 6000,
      "v": 70
    },
    {
      "midi": 24,
      "hit": false,
      "t": 108000,
      "d": 6000,
      "v": 70
    },
    {
      "midi": 60,
      "hit": false,
      "t": 109500,
      "d": 500,
      "v": 89
    },
    {
      "midi": 62,
      "hit": false,
      "t": 110000,
      "d": 500,
      "v": 99
    },
    {
      "midi": 63,
      "hit": false,
      "t": 110500,
      "d": 500,
      "v": 99
    },
    {
      "midi": 84,
      "hit": false,
      "t": 110500,
      "d": 500,
      "v": 87
    },
    {
      "midi": 60,
      "hit": false,
      "t": 111000,
      "d": 500,
      "v": 87
    },
    {
      "midi": 68,
      "hit": false,
      "t": 111500,
      "d": 500,
      "v": 118
    },
    {
      "midi": 67,
      "hit": false,
      "t": 112000,
      "d": 500,
      "v": 96
    },
    {
      "midi": 67,
      "hit": false,
      "t": 112500,
      "d": 500,
      "v": 94
    },
    {
      "midi": 60,
      "hit": false,
      "t": 112500,
      "d": 500,
      "v": 94
    },
    {
      "midi": 72,
      "hit": false,
      "t": 112500,
      "d": 1500,
      "v": 113
    },
    {
      "midi": 67,
      "hit": false,
      "t": 113000,
      "d": 500,
      "v": 96
    },
    {
      "midi": 62,
      "hit": false,
      "t": 113000,
      "d": 500,
      "v": 96
    },
    {
      "midi": 67,
      "hit": false,
      "t": 113500,
      "d": 500,
      "v": 97
    },
    {
      "midi": 63,
      "hit": false,
      "t": 113500,
      "d": 500,
      "v": 97
    },
    {
      "midi": 59,
      "hit": false,
      "t": 114000,
      "d": 1500,
      "v": 106
    },
    {
      "midi": 35,
      "hit": false,
      "t": 114000,
      "d": 3000,
      "v": 72
    },
    {
      "midi": 23,
      "hit": false,
      "t": 114000,
      "d": 3000,
      "v": 72
    },
    {
      "midi": 68,
      "hit": false,
      "t": 114500,
      "d": 500,
      "v": 84
    },
    {
      "midi": 62,
      "hit": false,
      "t": 114500,
      "d": 500,
      "v": 84
    },
    {
      "midi": 67,
      "hit": false,
      "t": 115000,
      "d": 500,
      "v": 91
    },
    {
      "midi": 62,
      "hit": false,
      "t": 115000,
      "d": 500,
      "v": 91
    },
    {
      "midi": 62,
      "hit": false,
      "t": 115500,
      "d": 500,
      "v": 84
    },
    {
      "midi": 63,
      "hit": false,
      "t": 116000,
      "d": 500,
      "v": 100
    },
    {
      "midi": 65,
      "hit": false,
      "t": 116500,
      "d": 500,
      "v": 106
    },
    {
      "midi": 86,
      "hit": false,
      "t": 116500,
      "d": 500,
      "v": 89
    },
    {
      "midi": 43,
      "hit": false,
      "t": 117000,
      "d": 3000,
      "v": 83
    },
    {
      "midi": 31,
      "hit": false,
      "t": 117000,
      "d": 3000,
      "v": 83
    },
    {
      "midi": 68,
      "hit": false,
      "t": 117500,
      "d": 500,
      "v": 92
    },
    {
      "midi": 67,
      "hit": false,
      "t": 118000,
      "d": 500,
      "v": 91
    },
    {
      "midi": 62,
      "hit": false,
      "t": 118500,
      "d": 500,
      "v": 81
    },
    {
      "midi": 74,
      "hit": false,
      "t": 118500,
      "d": 1500,
      "v": 113
    },
    {
      "midi": 67,
      "hit": false,
      "t": 118500,
      "d": 1500,
      "v": 113
    },
    {
      "midi": 63,
      "hit": false,
      "t": 119000,
      "d": 500,
      "v": 99
    },
    {
      "midi": 65,
      "hit": false,
      "t": 119500,
      "d": 500,
      "v": 109
    },
    {
      "midi": 67,
      "hit": false,
      "t": 120000,
      "d": 1500,
      "v": 108
    },
    {
      "midi": 60,
      "hit": false,
      "t": 120000,
      "d": 1500,
      "v": 108
    },
    {
      "midi": 36,
      "hit": false,
      "t": 120000,
      "d": 6000,
      "v": 74
    },
    {
      "midi": 24,
      "hit": false,
      "t": 120000,
      "d": 6000,
      "v": 74
    },
    {
      "midi": 60,
      "hit": false,
      "t": 121500,
      "d": 500,
      "v": 86
    },
    {
      "midi": 62,
      "hit": false,
      "t": 122000,
      "d": 500,
      "v": 98
    },
    {
      "midi": 63,
      "hit": false,
      "t": 122500,
      "d": 500,
      "v": 105
    },
    {
      "midi": 84,
      "hit": false,
      "t": 122500,
      "d": 500,
      "v": 87
    },
    {
      "midi": 60,
      "hit": false,
      "t": 123000,
      "d": 500,
      "v": 85
    },
    {
      "midi": 68,
      "hit": false,
      "t": 123500,
      "d": 500,
      "v": 117
    },
    {
      "midi": 67,
      "hit": false,
      "t": 124000,
      "d": 500,
      "v": 92
    },
    {
      "midi": 67,
      "hit": false,
      "t": 124500,
      "d": 500,
      "v": 95
    },
    {
      "midi": 60,
      "hit": false,
      "t": 124500,
      "d": 500,
      "v": 95
    },
    {
      "midi": 72,
      "hit": false,
      "t": 124500,
      "d": 1500,
      "v": 115
    },
    {
      "midi": 67,
      "hit": false,
      "t": 125000,
      "d": 500,
      "v": 96
    },
    {
      "midi": 62,
      "hit": false,
      "t": 125000,
      "d": 500,
      "v": 96
    },
    {
      "midi": 67,
      "hit": false,
      "t": 125500,
      "d": 500,
      "v": 99
    },
    {
      "midi": 63,
      "hit": false,
      "t": 125500,
      "d": 500,
      "v": 99
    },
    {
      "midi": 59,
      "hit": false,
      "t": 126000,
      "d": 1500,
      "v": 105
    },
    {
      "midi": 35,
      "hit": false,
      "t": 126000,
      "d": 3000,
      "v": 75
    },
    {
      "midi": 23,
      "hit": false,
      "t": 126000,
      "d": 3000,
      "v": 75
    },
    {
      "midi": 68,
      "hit": false,
      "t": 126500,
      "d": 500,
      "v": 89
    },
    {
      "midi": 62,
      "hit": false,
      "t": 126500,
      "d": 500,
      "v": 89
    },
    {
      "midi": 67,
      "hit": false,
      "t": 127000,
      "d": 500,
      "v": 91
    },
    {
      "midi": 62,
      "hit": false,
      "t": 127000,
      "d": 500,
      "v": 91
    },
    {
      "midi": 62,
      "hit": false,
      "t": 127500,
      "d": 500,
      "v": 82
    },
    {
      "midi": 63,
      "hit": false,
      "t": 128000,
      "d": 500,
      "v": 101
    },
    {
      "midi": 65,
      "hit": false,
      "t": 128500,
      "d": 500,
      "v": 107
    },
    {
      "midi": 86,
      "hit": false,
      "t": 128500,
      "d": 500,
      "v": 86
    },
    {
      "midi": 43,
      "hit": false,
      "t": 129000,
      "d": 3000,
      "v": 82
    },
    {
      "midi": 31,
      "hit": false,
      "t": 129000,
      "d": 3000,
      "v": 82
    },
    {
      "midi": 68,
      "hit": false,
      "t": 129500,
      "d": 500,
      "v": 83
    },
    {
      "midi": 67,
      "hit": false,
      "t": 130000,
      "d": 500,
      "v": 91
    },
    {
      "midi": 62,
      "hit": false,
      "t": 130500,
      "d": 500,
      "v": 82
    },
    {
      "midi": 74,
      "hit": false,
      "t": 130500,
      "d": 1500,
      "v": 111
    },
    {
      "midi": 67,
      "hit": false,
      "t": 130500,
      "d": 1500,
      "v": 111
    },
    {
      "midi": 63,
      "hit": false,
      "t": 131000,
      "d": 500,
      "v": 99
    },
    {
      "midi": 65,
      "hit": false,
      "t": 131500,
      "d": 417.96875,
      "v": 96
    },
    {
      "midi": 29,
      "hit": false,
      "t": 131917.96875,
      "d": 82.03125,
      "v": 96
    },
    {
      "midi": 41,
      "hit": false,
      "t": 132000,
      "d": 3000,
      "v": 127
    },
    {
      "midi": 48,
      "hit": false,
      "t": 132078.125,
      "d": 2921.875,
      "v": 127
    },
    {
      "midi": 65,
      "hit": false,
      "t": 132500,
      "d": 500,
      "v": 98
    },
    {
      "midi": 53,
      "hit": false,
      "t": 132500,
      "d": 500,
      "v": 98
    },
    {
      "midi": 67,
      "hit": false,
      "t": 133000,
      "d": 500,
      "v": 122
    },
    {
      "midi": 55,
      "hit": false,
      "t": 133000,
      "d": 500,
      "v": 122
    },
    {
      "midi": 68,
      "hit": false,
      "t": 133500,
      "d": 500,
      "v": 117
    },
    {
      "midi": 56,
      "hit": false,
      "t": 133500,
      "d": 500,
      "v": 117
    },
    {
      "midi": 72,
      "hit": false,
      "t": 134000,
      "d": 500,
      "v": 123
    },
    {
      "midi": 60,
      "hit": false,
      "t": 134000,
      "d": 500,
      "v": 123
    },
    {
      "midi": 74,
      "hit": false,
      "t": 134500,
      "d": 500,
      "v": 123
    },
    {
      "midi": 62,
      "hit": false,
      "t": 134500,
      "d": 500,
      "v": 123
    },
    {
      "midi": 31,
      "hit": false,
      "t": 134886.71875,
      "d": 113.28125,
      "v": 109
    },
    {
      "midi": 71,
      "hit": false,
      "t": 135000,
      "d": 750,
      "v": 107
    },
    {
      "midi": 43,
      "hit": false,
      "t": 135000,
      "d": 3000,
      "v": 127
    },
    {
      "midi": 50,
      "hit": false,
      "t": 135078.125,
      "d": 2921.875,
      "v": 127
    },
    {
      "midi": 59,
      "hit": false,
      "t": 135156.25,
      "d": 593.75,
      "v": 127
    },
    {
      "midi": 67,
      "hit": false,
      "t": 135750,
      "d": 750,
      "v": 97
    },
    {
      "midi": 55,
      "hit": false,
      "t": 135750,
      "d": 750,
      "v": 97
    },
    {
      "midi": 75,
      "hit": false,
      "t": 136500,
      "d": 750,
      "v": 126
    },
    {
      "midi": 63,
      "hit": false,
      "t": 136500,
      "d": 750,
      "v": 126
    },
    {
      "midi": 74,
      "hit": false,
      "t": 137250,
      "d": 750,
      "v": 104
    },
    {
      "midi": 62,
      "hit": false,
      "t": 137250,
      "d": 750,
      "v": 104
    },
    {
      "midi": 29,
      "hit": false,
      "t": 137890.625,
      "d": 109.375,
      "v": 95
    },
    {
      "midi": 65,
      "hit": false,
      "t": 138000,
      "d": 1000,
      "v": 87
    },
    {
      "midi": 53,
      "hit": false,
      "t": 138000,
      "d": 1000,
      "v": 87
    },
    {
      "midi": 41,
      "hit": false,
      "t": 138000,
      "d": 3000,
      "v": 127
    },
    {
      "midi": 48,
      "hit": false,
      "t": 138078.125,
      "d": 2921.875,
      "v": 127
    },
    {
      "midi": 67,
      "hit": false,
      "t": 139000,
      "d": 500,
      "v": 117
    },
    {
      "midi": 55,
      "hit": false,
      "t": 139000,
      "d": 500,
      "v": 117
    },
    {
      "midi": 68,
      "hit": false,
      "t": 139500,
      "d": 500,
      "v": 117
    },
    {
      "midi": 56,
      "hit": false,
      "t": 139500,
      "d": 500,
      "v": 117
    },
    {
      "midi": 72,
      "hit": false,
      "t": 140000,
      "d": 500,
      "v": 126
    },
    {
      "midi": 60,
      "hit": false,
      "t": 140000,
      "d": 500,
      "v": 126
    },
    {
      "midi": 74,
      "hit": false,
      "t": 140500,
      "d": 500,
      "v": 121
    },
    {
      "midi": 62,
      "hit": false,
      "t": 140500,
      "d": 500,
      "v": 121
    },
    {
      "midi": 31,
      "hit": false,
      "t": 140921.875,
      "d": 78.125,
      "v": 95
    },
    {
      "midi": 71,
      "hit": false,
      "t": 141000,
      "d": 750,
      "v": 106
    },
    {
      "midi": 43,
      "hit": false,
      "t": 141000,
      "d": 3000,
      "v": 127
    },
    {
      "midi": 59,
      "hit": false,
      "t": 141156.25,
      "d": 593.75,
      "v": 127
    },
    {
      "midi": 67,
      "hit": false,
      "t": 141750,
      "d": 750,
      "v": 97
    },
    {
      "midi": 55,
      "hit": false,
      "t": 141750,
      "d": 750,
      "v": 97
    },
    {
      "midi": 62,
      "hit": false,
      "t": 142500,
      "d": 750,
      "v": 93
    },
    {
      "midi": 50,
      "hit": false,
      "t": 142500,
      "d": 750,
      "v": 93
    },
    {
      "midi": 63,
      "hit": false,
      "t": 143250,
      "d": 750,
      "v": 114
    },
    {
      "midi": 51,
      "hit": false,
      "t": 143250,
      "d": 750,
      "v": 114
    },
    {
      "midi": 29,
      "hit": false,
      "t": 143902.34375,
      "d": 97.65625,
      "v": 97
    },
    {
      "midi": 41,
      "hit": false,
      "t": 144000,
      "d": 3000,
      "v": 127
    },
    {
      "midi": 48,
      "hit": false,
      "t": 144078.125,
      "d": 2921.875,
      "v": 127
    },
    {
      "midi": 65,
      "hit": false,
      "t": 144500,
      "d": 500,
      "v": 104
    },
    {
      "midi": 53,
      "hit": false,
      "t": 144500,
      "d": 500,
      "v": 104
    },
    {
      "midi": 67,
      "hit": false,
      "t": 145000,
      "d": 500,
      "v": 118
    },
    {
      "midi": 55,
      "hit": false,
      "t": 145000,
      "d": 500,
      "v": 118
    },
    {
      "midi": 68,
      "hit": false,
      "t": 145500,
      "d": 500,
      "v": 115
    },
    {
      "midi": 56,
      "hit": false,
      "t": 145500,
      "d": 500,
      "v": 115
    },
    {
      "midi": 72,
      "hit": false,
      "t": 146000,
      "d": 500,
      "v": 121
    },
    {
      "midi": 60,
      "hit": false,
      "t": 146000,
      "d": 500,
      "v": 121
    },
    {
      "midi": 74,
      "hit": false,
      "t": 146500,
      "d": 500,
      "v": 123
    },
    {
      "midi": 62,
      "hit": false,
      "t": 146500,
      "d": 500,
      "v": 123
    },
    {
      "midi": 31,
      "hit": false,
      "t": 146886.71875,
      "d": 113.28125,
      "v": 104
    },
    {
      "midi": 71,
      "hit": false,
      "t": 147000,
      "d": 750,
      "v": 105
    },
    {
      "midi": 43,
      "hit": false,
      "t": 147000,
      "d": 3000,
      "v": 127
    },
    {
      "midi": 50,
      "hit": false,
      "t": 147078.125,
      "d": 2921.875,
      "v": 127
    },
    {
      "midi": 59,
      "hit": false,
      "t": 147156.25,
      "d": 593.75,
      "v": 127
    },
    {
      "midi": 67,
      "hit": false,
      "t": 147750,
      "d": 750,
      "v": 98
    },
    {
      "midi": 55,
      "hit": false,
      "t": 147750,
      "d": 750,
      "v": 98
    },
    {
      "midi": 75,
      "hit": false,
      "t": 148500,
      "d": 750,
      "v": 126
    },
    {
      "midi": 63,
      "hit": false,
      "t": 148500,
      "d": 750,
      "v": 126
    },
    {
      "midi": 74,
      "hit": false,
      "t": 149250,
      "d": 750,
      "v": 109
    },
    {
      "midi": 62,
      "hit": false,
      "t": 149250,
      "d": 750,
      "v": 109
    },
    {
      "midi": 32,
      "hit": false,
      "t": 149914.0625,
      "d": 85.9375,
      "v": 98
    },
    {
      "midi": 65,
      "hit": false,
      "t": 150000,
      "d": 1000,
      "v": 92
    },
    {
      "midi": 60,
      "hit": false,
      "t": 150000,
      "d": 1000,
      "v": 92
    },
    {
      "midi": 44,
      "hit": false,
      "t": 150000,
      "d": 3000,
      "v": 127
    },
    {
      "midi": 53,
      "hit": false,
      "t": 150078.125,
      "d": 921.875,
      "v": 127
    },
    {
      "midi": 67,
      "hit": false,
      "t": 151000,
      "d": 500,
      "v": 116
    },
    {
      "midi": 55,
      "hit": false,
      "t": 151000,
      "d": 500,
      "v": 116
    },
    {
      "midi": 68,
      "hit": false,
      "t": 151500,
      "d": 500,
      "v": 121
    },
    {
      "midi": 56,
      "hit": false,
      "t": 151500,
      "d": 500,
      "v": 121
    },
    {
      "midi": 72,
      "hit": false,
      "t": 152000,
      "d": 500,
      "v": 125
    },
    {
      "midi": 60,
      "hit": false,
      "t": 152000,
      "d": 500,
      "v": 125
    },
    {
      "midi": 74,
      "hit": false,
      "t": 152500,
      "d": 500,
      "v": 117
    },
    {
      "midi": 62,
      "hit": false,
      "t": 152500,
      "d": 500,
      "v": 117
    },
    {
      "midi": 31,
      "hit": false,
      "t": 152890.625,
      "d": 109.375,
      "v": 95
    },
    {
      "midi": 72,
      "hit": false,
      "t": 153000,
      "d": 750,
      "v": 109
    },
    {
      "midi": 60,
      "hit": false,
      "t": 153000,
      "d": 750,
      "v": 109
    },
    {
      "midi": 43,
      "hit": false,
      "t": 153000,
      "d": 3000,
      "v": 127
    },
    {
      "midi": 50,
      "hit": false,
      "t": 153078.125,
      "d": 2921.875,
      "v": 127
    },
    {
      "midi": 71,
      "hit": false,
      "t": 153750,
      "d": 750,
      "v": 107
    },
    {
      "midi": 59,
      "hit": false,
      "t": 153750,
      "d": 750,
      "v": 107
    },
    {
      "midi": 69,
      "hit": false,
      "t": 154500,
      "d": 750,
      "v": 108
    },
    {
      "midi": 57,
      "hit": false,
      "t": 154500,
      "d": 750,
      "v": 108
    },
    {
      "midi": 59,
      "hit": false,
      "t": 155250,
      "d": 750,
      "v": 120
    },
    {
      "midi": 71,
      "hit": false,
      "t": 155250,
      "d": 750,
      "v": 120
    },
    {
      "midi": 36,
      "hit": false,
      "t": 156000,
      "d": 6000,
      "v": 75
    },
    {
      "midi": 24,
      "hit": false,
      "t": 156000,
      "d": 6000,
      "v": 75
    },
    {
      "midi": 72,
      "hit": false,
      "t": 157500,
      "d": 250,
      "v": 44
    },
    {
      "midi": 60,
      "hit": false,
      "t": 157500,
      "d": 250,
      "v": 45
    },
    {
      "midi": 75,
      "hit": false,
      "t": 157750,
      "d": 250,
      "v": 51
    },
    {
      "midi": 63,
      "hit": false,
      "t": 157750,
      "d": 250,
      "v": 51
    },
    {
      "midi": 62,
      "hit": false,
      "t": 158000,
      "d": 500,
      "v": 51
    },
    {
      "midi": 77,
      "hit": false,
      "t": 158000,
      "d": 500,
      "v": 55
    },
    {
      "midi": 65,
      "hit": false,
      "t": 158000,
      "d": 500,
      "v": 55
    },
    {
      "midi": 63,
      "hit": false,
      "t": 158500,
      "d": 500,
      "v": 49
    },
    {
      "midi": 79,
      "hit": false,
      "t": 158500,
      "d": 500,
      "v": 58
    },
    {
      "midi": 67,
      "hit": false,
      "t": 158500,
      "d": 500,
      "v": 58
    },
    {
      "midi": 60,
      "hit": false,
      "t": 159000,
      "d": 500,
      "v": 46
    },
    {
      "midi": 84,
      "hit": false,
      "t": 159000,
      "d": 750,
      "v": 55
    },
    {
      "midi": 72,
      "hit": false,
      "t": 159000,
      "d": 750,
      "v": 55
    },
    {
      "midi": 68,
      "hit": false,
      "t": 159500,
      "d": 500,
      "v": 61
    },
    {
      "midi": 79,
      "hit": false,
      "t": 159750,
      "d": 750,
      "v": 44
    },
    {
      "midi": 67,
      "hit": false,
      "t": 160000,
      "d": 500,
      "v": 49
    },
    {
      "midi": 67,
      "hit": false,
      "t": 160500,
      "d": 500,
      "v": 52
    },
    {
      "midi": 60,
      "hit": false,
      "t": 160500,
      "d": 500,
      "v": 52
    },
    {
      "midi": 82,
      "hit": false,
      "t": 160500,
      "d": 750,
      "v": 53
    },
    {
      "midi": 70,
      "hit": false,
      "t": 160500,
      "d": 750,
      "v": 53
    },
    {
      "midi": 62,
      "hit": false,
      "t": 161000,
      "d": 500,
      "v": 50
    },
    {
      "midi": 67,
      "hit": false,
      "t": 161250,
      "d": 250,
      "v": 46
    },
    {
      "midi": 79,
      "hit": false,
      "t": 161250,
      "d": 250,
      "v": 46
    },
    {
      "midi": 67,
      "hit": false,
      "t": 161500,
      "d": 500,
      "v": 48
    },
    {
      "midi": 63,
      "hit": false,
      "t": 161500,
      "d": 500,
      "v": 48
    },
    {
      "midi": 75,
      "hit": false,
      "t": 161500,
      "d": 500,
      "v": 43
    },
    {
      "midi": 71,
      "hit": false,
      "t": 162000,
      "d": 2000,
      "v": 43
    },
    {
      "midi": 59,
      "hit": false,
      "t": 162000,
      "d": 2000,
      "v": 43
    },
    {
      "midi": 35,
      "hit": false,
      "t": 162000,
      "d": 3000,
      "v": 72
    },
    {
      "midi": 23,
      "hit": false,
      "t": 162000,
      "d": 3000,
      "v": 72
    },
    {
      "midi": 68,
      "hit": false,
      "t": 162500,
      "d": 500,
      "v": 49
    },
    {
      "midi": 62,
      "hit": false,
      "t": 162500,
      "d": 500,
      "v": 49
    },
    {
      "midi": 67,
      "hit": false,
      "t": 163000,
      "d": 500,
      "v": 48
    },
    {
      "midi": 62,
      "hit": false,
      "t": 163000,
      "d": 500,
      "v": 48
    },
    {
      "midi": 62,
      "hit": false,
      "t": 163500,
      "d": 500,
      "v": 48
    },
    {
      "midi": 63,
      "hit": false,
      "t": 164000,
      "d": 500,
      "v": 51
    },
    {
      "midi": 68,
      "hit": false,
      "t": 164000,
      "d": 500,
      "v": 44
    },
    {
      "midi": 56,
      "hit": false,
      "t": 164000,
      "d": 500,
      "v": 44
    },
    {
      "midi": 65,
      "hit": false,
      "t": 164500,
      "d": 500,
      "v": 55
    },
    {
      "midi": 67,
      "hit": false,
      "t": 164500,
      "d": 500,
      "v": 48
    },
    {
      "midi": 55,
      "hit": false,
      "t": 164500,
      "d": 500,
      "v": 48
    },
    {
      "midi": 74,
      "hit": false,
      "t": 165000,
      "d": 750,
      "v": 57
    },
    {
      "midi": 62,
      "hit": false,
      "t": 165000,
      "d": 750,
      "v": 57
    },
    {
      "midi": 43,
      "hit": false,
      "t": 165000,
      "d": 3000,
      "v": 85
    },
    {
      "midi": 31,
      "hit": false,
      "t": 165000,
      "d": 3000,
      "v": 85
    },
    {
      "midi": 68,
      "hit": false,
      "t": 165500,
      "d": 500,
      "v": 49
    },
    {
      "midi": 55,
      "hit": false,
      "t": 165750,
      "d": 750,
      "v": 47
    },
    {
      "midi": 67,
      "hit": false,
      "t": 166000,
      "d": 500,
      "v": 47
    },
    {
      "midi": 62,
      "hit": false,
      "t": 166500,
      "d": 500,
      "v": 45
    },
    {
      "midi": 74,
      "hit": false,
      "t": 166500,
      "d": 750,
      "v": 59
    },
    {
      "midi": 63,
      "hit": false,
      "t": 167250,
      "d": 250,
      "v": 55
    },
    {
      "midi": 75,
      "hit": false,
      "t": 167250,
      "d": 750,
      "v": 55
    },
    {
      "midi": 65,
      "hit": false,
      "t": 167500,
      "d": 500,
      "v": 55
    },
    {
      "midi": 71,
      "hit": false,
      "t": 168000,
      "d": 750,
      "v": 47
    },
    {
      "midi": 59,
      "hit": false,
      "t": 168000,
      "d": 750,
      "v": 47
    },
    {
      "midi": 36,
      "hit": false,
      "t": 168000,
      "d": 6000,
      "v": 73
    },
    {
      "midi": 24,
      "hit": false,
      "t": 168000,
      "d": 6000,
      "v": 73
    },
    {
      "midi": 72,
      "hit": false,
      "t": 168750,
      "d": 750,
      "v": 46
    },
    {
      "midi": 60,
      "hit": false,
      "t": 168750,
      "d": 750,
      "v": 46
    },
    {
      "midi": 60,
      "hit": false,
      "t": 169500,
      "d": 500,
      "v": 44
    },
    {
      "midi": 75,
      "hit": false,
      "t": 169500,
      "d": 500,
      "v": 54
    },
    {
      "midi": 63,
      "hit": false,
      "t": 169500,
      "d": 500,
      "v": 54
    },
    {
      "midi": 62,
      "hit": false,
      "t": 170000,
      "d": 500,
      "v": 53
    },
    {
      "midi": 77,
      "hit": false,
      "t": 170000,
      "d": 500,
      "v": 56
    },
    {
      "midi": 65,
      "hit": false,
      "t": 170000,
      "d": 500,
      "v": 56
    },
    {
      "midi": 63,
      "hit": false,
      "t": 170500,
      "d": 500,
      "v": 50
    },
    {
      "midi": 79,
      "hit": false,
      "t": 170500,
      "d": 500,
      "v": 54
    },
    {
      "midi": 67,
      "hit": false,
      "t": 170500,
      "d": 500,
      "v": 54
    },
    {
      "midi": 60,
      "hit": false,
      "t": 171000,
      "d": 500,
      "v": 41
    },
    {
      "midi": 84,
      "hit": false,
      "t": 171000,
      "d": 750,
      "v": 54
    },
    {
      "midi": 72,
      "hit": false,
      "t": 171000,
      "d": 750,
      "v": 54
    },
    {
      "midi": 68,
      "hit": false,
      "t": 171500,
      "d": 500,
      "v": 58
    },
    {
      "midi": 79,
      "hit": false,
      "t": 171750,
      "d": 750,
      "v": 45
    },
    {
      "midi": 67,
      "hit": false,
      "t": 172000,
      "d": 500,
      "v": 50
    },
    {
      "midi": 67,
      "hit": false,
      "t": 172500,
      "d": 500,
      "v": 50
    },
    {
      "midi": 60,
      "hit": false,
      "t": 172500,
      "d": 500,
      "v": 50
    },
    {
      "midi": 82,
      "hit": false,
      "t": 172500,
      "d": 750,
      "v": 54
    },
    {
      "midi": 70,
      "hit": false,
      "t": 172500,
      "d": 750,
      "v": 54
    },
    {
      "midi": 62,
      "hit": false,
      "t": 173000,
      "d": 500,
      "v": 52
    },
    {
      "midi": 67,
      "hit": false,
      "t": 173250,
      "d": 250,
      "v": 47
    },
    {
      "midi": 79,
      "hit": false,
      "t": 173250,
      "d": 250,
      "v": 47
    },
    {
      "midi": 67,
      "hit": false,
      "t": 173500,
      "d": 500,
      "v": 49
    },
    {
      "midi": 63,
      "hit": false,
      "t": 173500,
      "d": 500,
      "v": 49
    },
    {
      "midi": 75,
      "hit": false,
      "t": 173500,
      "d": 500,
      "v": 46
    },
    {
      "midi": 71,
      "hit": false,
      "t": 174000,
      "d": 2500,
      "v": 44
    },
    {
      "midi": 59,
      "hit": false,
      "t": 174000,
      "d": 2500,
      "v": 44
    },
    {
      "midi": 35,
      "hit": false,
      "t": 174000,
      "d": 3000,
      "v": 77
    },
    {
      "midi": 23,
      "hit": false,
      "t": 174000,
      "d": 3000,
      "v": 77
    },
    {
      "midi": 68,
      "hit": false,
      "t": 174500,
      "d": 500,
      "v": 45
    },
    {
      "midi": 62,
      "hit": false,
      "t": 174500,
      "d": 500,
      "v": 45
    },
    {
      "midi": 67,
      "hit": false,
      "t": 175000,
      "d": 500,
      "v": 50
    },
    {
      "midi": 62,
      "hit": false,
      "t": 175000,
      "d": 500,
      "v": 50
    },
    {
      "midi": 62,
      "hit": false,
      "t": 175500,
      "d": 500,
      "v": 43
    },
    {
      "midi": 63,
      "hit": false,
      "t": 176000,
      "d": 500,
      "v": 52
    },
    {
      "midi": 68,
      "hit": false,
      "t": 176500,
      "d": 250,
      "v": 50
    },
    {
      "midi": 56,
      "hit": false,
      "t": 176500,
      "d": 250,
      "v": 50
    },
    {
      "midi": 65,
      "hit": false,
      "t": 176500,
      "d": 500,
      "v": 51
    },
    {
      "midi": 67,
      "hit": false,
      "t": 176750,
      "d": 250,
      "v": 51
    },
    {
      "midi": 55,
      "hit": false,
      "t": 176750,
      "d": 250,
      "v": 51
    },
    {
      "midi": 74,
      "hit": false,
      "t": 177000,
      "d": 750,
      "v": 57
    },
    {
      "midi": 62,
      "hit": false,
      "t": 177000,
      "d": 750,
      "v": 57
    },
    {
      "midi": 43,
      "hit": false,
      "t": 177000,
      "d": 3000,
      "v": 79
    },
    {
      "midi": 31,
      "hit": false,
      "t": 177000,
      "d": 3000,
      "v": 79
    },
    {
      "midi": 68,
      "hit": false,
      "t": 177500,
      "d": 500,
      "v": 40
    },
    {
      "midi": 55,
      "hit": false,
      "t": 177750,
      "d": 750,
      "v": 44
    },
    {
      "midi": 67,
      "hit": false,
      "t": 178000,
      "d": 500,
      "v": 50
    },
    {
      "midi": 62,
      "hit": false,
      "t": 178500,
      "d": 500,
      "v": 49
    },
    {
      "midi": 74,
      "hit": false,
      "t": 178500,
      "d": 750,
      "v": 60
    },
    {
      "midi": 63,
      "hit": false,
      "t": 179250,
      "d": 250,
      "v": 51
    },
    {
      "midi": 75,
      "hit": false,
      "t": 179250,
      "d": 750,
      "v": 51
    },
    {
      "midi": 65,
      "hit": false,
      "t": 179500,
      "d": 500,
      "v": 49
    },
    {
      "midi": 36,
      "hit": false,
      "t": 180000,
      "d": 6000,
      "v": 53
    },
    {
      "midi": 24,
      "hit": false,
      "t": 180000,
      "d": 6000,
      "v": 53
    },
    {
      "midi": 60,
      "hit": false,
      "t": 181500,
      "d": 250,
      "v": 52
    },
    {
      "midi": 63,
      "hit": false,
      "t": 181750,
      "d": 250,
      "v": 64
    },
    {
      "midi": 65,
      "hit": false,
      "t": 182000,
      "d": 500,
      "v": 70
    },
    {
      "midi": 67,
      "hit": false,
      "t": 182500,
      "d": 500,
      "v": 62
    },
    {
      "midi": 72,
      "hit": false,
      "t": 183000,
      "d": 750,
      "v": 66
    },
    {
      "midi": 67,
      "hit": false,
      "t": 183750,
      "d": 750,
      "v": 59
    },
    {
      "midi": 70,
      "hit": false,
      "t": 184500,
      "d": 750,
      "v": 65
    },
    {
      "midi": 67,
      "hit": false,
      "t": 185250,
      "d": 250,
      "v": 56
    },
    {
      "midi": 63,
      "hit": false,
      "t": 185500,
      "d": 500,
      "v": 57
    },
    {
      "midi": 59,
      "hit": false,
      "t": 186000,
      "d": 2000,
      "v": 57
    },
    {
      "midi": 35,
      "hit": false,
      "t": 186000,
      "d": 3000,
      "v": 59
    },
    {
      "midi": 23,
      "hit": false,
      "t": 186000,
      "d": 3000,
      "v": 59
    },
    {
      "midi": 56,
      "hit": false,
      "t": 188000,
      "d": 500,
      "v": 56
    },
    {
      "midi": 55,
      "hit": false,
      "t": 188500,
      "d": 500,
      "v": 56
    },
    {
      "midi": 62,
      "hit": false,
      "t": 189000,
      "d": 750,
      "v": 72
    },
    {
      "midi": 43,
      "hit": false,
      "t": 189000,
      "d": 3000,
      "v": 66
    },
    {
      "midi": 31,
      "hit": false,
      "t": 189000,
      "d": 3000,
      "v": 66
    },
    {
      "midi": 55,
      "hit": false,
      "t": 189750,
      "d": 750,
      "v": 59
    },
    {
      "midi": 62,
      "hit": false,
      "t": 190500,
      "d": 750,
      "v": 71
    },
    {
      "midi": 63,
      "hit": false,
      "t": 191250,
      "d": 750,
      "v": 62
    },
    {
      "midi": 59,
      "hit": false,
      "t": 192000,
      "d": 750,
      "v": 50
    },
    {
      "midi": 36,
      "hit": false,
      "t": 192000,
      "d": 6000,
      "v": 48
    },
    {
      "midi": 24,
      "hit": false,
      "t": 192000,
      "d": 6000,
      "v": 48
    },
    {
      "midi": 60,
      "hit": false,
      "t": 192750,
      "d": 750,
      "v": 55
    },
    {
      "midi": 63,
      "hit": false,
      "t": 193500,
      "d": 500,
      "v": 56
    },
    {
      "midi": 65,
      "hit": false,
      "t": 194000,
      "d": 500,
      "v": 55
    },
    {
      "midi": 67,
      "hit": false,
      "t": 194500,
      "d": 500,
      "v": 51
    },
    {
      "midi": 72,
      "hit": false,
      "t": 195000,
      "d": 750,
      "v": 55
    },
    {
      "midi": 67,
      "hit": false,
      "t": 195750,
      "d": 750,
      "v": 50
    },
    {
      "midi": 70,
      "hit": false,
      "t": 196500,
      "d": 750,
      "v": 55
    },
    {
      "midi": 67,
      "hit": false,
      "t": 197250,
      "d": 250,
      "v": 48
    },
    {
      "midi": 63,
      "hit": false,
      "t": 197500,
      "d": 500,
      "v": 44
    },
    {
      "midi": 59,
      "hit": false,
      "t": 198000,
      "d": 2000,
      "v": 47
    },
    {
      "midi": 35,
      "hit": false,
      "t": 198000,
      "d": 3000,
      "v": 49
    },
    {
      "midi": 23,
      "hit": false,
      "t": 198000,
      "d": 3000,
      "v": 49
    },
    {
      "midi": 56,
      "hit": false,
      "t": 200000,
      "d": 500,
      "v": 49
    },
    {
      "midi": 55,
      "hit": false,
      "t": 200500,
      "d": 500,
      "v": 52
    },
    {
      "midi": 62,
      "hit": false,
      "t": 201000,
      "d": 750,
      "v": 56
    },
    {
      "midi": 43,
      "hit": false,
      "t": 201000,
      "d": 4000,
      "v": 57
    },
    {
      "midi": 31,
      "hit": false,
      "t": 201000,
      "d": 4000,
      "v": 57
    },
    {
      "midi": 55,
      "hit": false,
      "t": 201750,
      "d": 750,
      "v": 48
    },
    {
      "midi": 62,
      "hit": false,
      "t": 202500,
      "d": 750,
      "v": 56
    },
    {
      "midi": 63,
      "hit": false,
      "t": 203250,
      "d": 1750,
      "v": 57
    },
    {
      "midi": 36,
      "hit": false,
      "t": 205000,
      "d": 6000,
      "v": 94
    },
    {
      "midi": 24,
      "hit": false,
      "t": 205000,
      "d": 6000,
      "v": 94
    },
    {
      "midi": 24,
      "hit": false,
      "t": 211000,
      "d": 6000,
      "v": 47
    }
  ]
}