{
  "jsonPath": "Unknown/Unknown/South Street Player/who-keeps-changing-your-mind-daniel-bovie-roy-rox-dub-mix.json",
  "path": "Unknown\\Unknown\\South Street Player\\(Who) Keeps Changing Your Mind (Daniel Bovie  Roy Rox Dub Mix).mid",
  "name": "(Who) Keeps Changing Your Mind (Daniel Bovie  Roy Rox Dub Mix)",
  "difficulty": "Advanced",
  "bpm": 109.00014170018422,
  "notes": [
    {
      "midi": 80,
      "hit": false,
      "t": 45137.556,
      "d": 830.2741499999975,
      "v": 127
    },
    {
      "midi": 78,
      "hit": false,
      "t": 45963.242999999995,
      "d": 153.66952499999752,
      "v": 127
    },
    {
      "midi": 76,
      "hit": false,
      "t": 46100.85749999999,
      "d": 162.84382500000356,
      "v": 127
    },
    {
      "midi": 75,
      "hit": false,
      "t": 46238.471999999994,
      "d": 825.6869999999981,
      "v": 127
    },
    {
      "midi": 71,
      "hit": false,
      "t": 47064.15899999999,
      "d": 889.9070999999967,
      "v": 127
    },
    {
      "midi": 76,
      "hit": false,
      "t": 48165.07499999999,
      "d": 2201.832000000002,
      "v": 127
    },
    {
      "midi": 75,
      "hit": false,
      "t": 50366.90699999999,
      "d": 137.61450000000332,
      "v": 127
    },
    {
      "midi": 73,
      "hit": false,
      "t": 50504.521499999995,
      "d": 213.30247500000405,
      "v": 127
    },
    {
      "midi": 71,
      "hit": false,
      "t": 50642.136,
      "d": 825.6869999999981,
      "v": 127
    },
    {
      "midi": 68,
      "hit": false,
      "t": 51467.823,
      "d": 793.5769500000024,
      "v": 127
    },
    {
      "midi": 73,
      "hit": false,
      "t": 52568.739,
      "d": 1371.5578499999974,
      "v": 127
    },
    {
      "midi": 80,
      "hit": false,
      "t": 53944.884,
      "d": 871.5584999999992,
      "v": 127
    },
    {
      "midi": 78,
      "hit": false,
      "t": 54770.570999999996,
      "d": 162.84382500000356,
      "v": 127
    },
    {
      "midi": 76,
      "hit": false,
      "t": 54908.1855,
      "d": 204.12817500000529,
      "v": 127
    },
    {
      "midi": 75,
      "hit": false,
      "t": 55045.8,
      "d": 825.6870000000054,
      "v": 127
    },
    {
      "midi": 71,
      "hit": false,
      "t": 55871.48700000001,
      "d": 862.3842000000004,
      "v": 127
    },
    {
      "midi": 76,
      "hit": false,
      "t": 56972.403000000006,
      "d": 2201.832000000002,
      "v": 127
    },
    {
      "midi": 75,
      "hit": false,
      "t": 59174.23500000001,
      "d": 142.2016500000027,
      "v": 127
    },
    {
      "midi": 73,
      "hit": false,
      "t": 59311.84950000001,
      "d": 151.3759499999942,
      "v": 127
    },
    {
      "midi": 71,
      "hit": false,
      "t": 59449.46400000001,
      "d": 837.1548750000002,
      "v": 127
    },
    {
      "midi": 68,
      "hit": false,
      "t": 60275.151000000005,
      "d": 793.5769500000024,
      "v": 127
    },
    {
      "midi": 64,
      "hit": false,
      "t": 61100.83800000001,
      "d": 353.21054999999615,
      "v": 127
    },
    {
      "midi": 73,
      "hit": false,
      "t": 61376.06700000001,
      "d": 1376.1449999999968,
      "v": 127
    },
    {
      "midi": 80,
      "hit": false,
      "t": 62752.21200000001,
      "d": 899.0813999999955,
      "v": 127
    },
    {
      "midi": 78,
      "hit": false,
      "t": 63577.899000000005,
      "d": 149.08237499999814,
      "v": 127
    },
    {
      "midi": 76,
      "hit": false,
      "t": 63715.5135,
      "d": 211.00890000000072,
      "v": 127
    },
    {
      "midi": 75,
      "hit": false,
      "t": 63853.128000000004,
      "d": 825.6869999999981,
      "v": 127
    },
    {
      "midi": 71,
      "hit": false,
      "t": 64678.815,
      "d": 848.6227500000023,
      "v": 127
    },
    {
      "midi": 76,
      "hit": false,
      "t": 65779.731,
      "d": 2238.52919999999,
      "v": 127
    },
    {
      "midi": 75,
      "hit": false,
      "t": 67981.563,
      "d": 126.14662499999395,
      "v": 127
    },
    {
      "midi": 73,
      "hit": false,
      "t": 68119.17749999999,
      "d": 137.61449999999604,
      "v": 127
    },
    {
      "midi": 71,
      "hit": false,
      "t": 68256.79199999999,
      "d": 747.705449999994,
      "v": 127
    },
    {
      "midi": 68,
      "hit": false,
      "t": 69082.47899999998,
      "d": 814.2191250000033,
      "v": 127
    },
    {
      "midi": 64,
      "hit": false,
      "t": 69908.16599999998,
      "d": 412.8435000000027,
      "v": 127
    },
    {
      "midi": 73,
      "hit": false,
      "t": 70183.39499999999,
      "d": 1376.1449999999895,
      "v": 127
    },
    {
      "midi": 80,
      "hit": false,
      "t": 71559.53999999998,
      "d": 869.2649250000104,
      "v": 127
    },
    {
      "midi": 78,
      "hit": false,
      "t": 72385.22699999998,
      "d": 174.31170000000566,
      "v": 127
    },
    {
      "midi": 76,
      "hit": false,
      "t": 72522.8415,
      "d": 197.2474499999953,
      "v": 127
    },
    {
      "midi": 75,
      "hit": false,
      "t": 72660.45599999999,
      "d": 809.6319749999966,
      "v": 127
    },
    {
      "midi": 71,
      "hit": false,
      "t": 73486.14299999998,
      "d": 795.8705250000057,
      "v": 127
    },
    {
      "midi": 76,
      "hit": false,
      "t": 74587.059,
      "d": 2064.217499999999,
      "v": 127
    },
    {
      "midi": 73,
      "hit": false,
      "t": 76788.89099999999,
      "d": 82.56870000000345,
      "v": 127
    },
    {
      "midi": 76,
      "hit": false,
      "t": 76926.5055,
      "d": 110.09159999999974,
      "v": 127
    },
    {
      "midi": 78,
      "hit": false,
      "t": 77064.12,
      "d": 1866.9700500000035,
      "v": 127
    },
    {
      "midi": 80,
      "hit": false,
      "t": 80366.868,
      "d": 830.274150000012,
      "v": 127
    },
    {
      "midi": 78,
      "hit": false,
      "t": 81192.55500000001,
      "d": 153.6695250000048,
      "v": 127
    },
    {
      "midi": 76,
      "hit": false,
      "t": 81330.16950000002,
      "d": 162.843824999989,
      "v": 127
    },
    {
      "midi": 75,
      "hit": false,
      "t": 81467.78400000001,
      "d": 825.6869999999908,
      "v": 127
    },
    {
      "midi": 71,
      "hit": false,
      "t": 82293.471,
      "d": 889.9070999999967,
      "v": 127
    },
    {
      "midi": 76,
      "hit": false,
      "t": 83394.387,
      "d": 2201.831999999995,
      "v": 127
    },
    {
      "midi": 75,
      "hit": false,
      "t": 85596.219,
      "d": 137.61449999999604,
      "v": 127
    },
    {
      "midi": 73,
      "hit": false,
      "t": 85733.8335,
      "d": 213.3024749999895,
      "v": 127
    },
    {
      "midi": 71,
      "hit": false,
      "t": 85871.44799999999,
      "d": 825.6869999999908,
      "v": 127
    },
    {
      "midi": 68,
      "hit": false,
      "t": 86697.13499999998,
      "d": 793.5769500000024,
      "v": 127
    },
    {
      "midi": 73,
      "hit": false,
      "t": 87798.05099999998,
      "d": 1371.5578499999974,
      "v": 127
    },
    {
      "midi": 80,
      "hit": false,
      "t": 89174.19599999998,
      "d": 871.5584999999992,
      "v": 127
    },
    {
      "midi": 78,
      "hit": false,
      "t": 89999.88299999999,
      "d": 162.843824999989,
      "v": 127
    },
    {
      "midi": 76,
      "hit": false,
      "t": 90137.49749999998,
      "d": 204.12817499999073,
      "v": 127
    },
    {
      "midi": 75,
      "hit": false,
      "t": 90275.11199999998,
      "d": 825.6869999999908,
      "v": 127
    },
    {
      "midi": 71,
      "hit": false,
      "t": 91100.79899999997,
      "d": 862.3842000000004,
      "v": 127
    },
    {
      "midi": 76,
      "hit": false,
      "t": 92201.71499999997,
      "d": 2201.831999999995,
      "v": 127
    },
    {
      "midi": 75,
      "hit": false,
      "t": 94403.54699999996,
      "d": 142.2016500000027,
      "v": 127
    },
    {
      "midi": 73,
      "hit": false,
      "t": 94541.16149999996,
      "d": 151.37595000001602,
      "v": 127
    },
    {
      "midi": 71,
      "hit": false,
      "t": 94678.77599999997,
      "d": 837.1548750000075,
      "v": 127
    },
    {
      "midi": 68,
      "hit": false,
      "t": 95504.46299999997,
      "d": 793.5769500000024,
      "v": 127
    },
    {
      "midi": 64,
      "hit": false,
      "t": 96330.14999999998,
      "d": 353.2105500000034,
      "v": 127
    },
    {
      "midi": 73,
      "hit": false,
      "t": 96605.37899999999,
      "d": 1376.1449999999895,
      "v": 127
    },
    {
      "midi": 71,
      "hit": false,
      "t": 98807.21099999998,
      "d": 135.32092500000726,
      "v": 127
    },
    {
      "midi": 69,
      "hit": false,
      "t": 98944.82549999999,
      "d": 105.50444999999308,
      "v": 127
    },
    {
      "midi": 71,
      "hit": false,
      "t": 99082.43999999999,
      "d": 1795.8692250000022,
      "v": 127
    },
    {
      "midi": 69,
      "hit": false,
      "t": 101009.04299999999,
      "d": 160.55025000000023,
      "v": 127
    },
    {
      "midi": 68,
      "hit": false,
      "t": 101146.65749999999,
      "d": 116.97232500000973,
      "v": 127
    },
    {
      "midi": 69,
      "hit": false,
      "t": 101284.272,
      "d": 1967.8873500000045,
      "v": 127
    },
    {
      "midi": 68,
      "hit": false,
      "t": 103210.875,
      "d": 275.22900000000664,
      "v": 127
    },
    {
      "midi": 61,
      "hit": false,
      "t": 103486.104,
      "d": 2043.575324999998,
      "v": 127
    },
    {
      "midi": 73,
      "hit": false,
      "t": 105687.936,
      "d": 1011.4665749999986,
      "v": 127
    },
    {
      "midi": 73,
      "hit": false,
      "t": 106788.852,
      "d": 279.8161500000133,
      "v": 127
    },
    {
      "midi": 75,
      "hit": false,
      "t": 107064.081,
      "d": 305.04547500000626,
      "v": 127
    },
    {
      "midi": 76,
      "hit": false,
      "t": 107339.31000000001,
      "d": 252.29325000000244,
      "v": 127
    },
    {
      "midi": 78,
      "hit": false,
      "t": 107614.53900000002,
      "d": 266.0546999999933,
      "v": 127
    },
    {
      "midi": 75,
      "hit": false,
      "t": 107889.76800000001,
      "d": 724.7697000000044,
      "v": 127
    },
    {
      "midi": 71,
      "hit": false,
      "t": 108715.45500000002,
      "d": 894.4942500000034,
      "v": 127
    },
    {
      "midi": 69,
      "hit": false,
      "t": 109816.37100000001,
      "d": 149.08237499999814,
      "v": 127
    },
    {
      "midi": 68,
      "hit": false,
      "t": 109953.98550000001,
      "d": 135.32092500000726,
      "v": 127
    },
    {
      "midi": 69,
      "hit": false,
      "t": 110091.60000000002,
      "d": 1972.4744999999966,
      "v": 127
    },
    {
      "midi": 68,
      "hit": false,
      "t": 112018.20300000002,
      "d": 266.0546999999933,
      "v": 127
    },
    {
      "midi": 61,
      "hit": false,
      "t": 112293.43200000002,
      "d": 1800.4563749999943,
      "v": 127
    },
    {
      "midi": 73,
      "hit": false,
      "t": 114495.26400000001,
      "d": 1713.3005249999987,
      "v": 127
    },
    {
      "midi": 68,
      "hit": false,
      "t": 114495.26400000001,
      "d": 1800.4563749999943,
      "v": 127
    },
    {
      "midi": 64,
      "hit": false,
      "t": 114495.26400000001,
      "d": 1857.7957499999902,
      "v": 127
    },
    {
      "midi": 71,
      "hit": false,
      "t": 116697.096,
      "d": 1775.2270500000013,
      "v": 127
    },
    {
      "midi": 66,
      "hit": false,
      "t": 116697.096,
      "d": 1786.6949250000034,
      "v": 127
    },
    {
      "midi": 63,
      "hit": false,
      "t": 116697.096,
      "d": 1905.960825000002,
      "v": 127
    },
    {
      "midi": 63,
      "hit": false,
      "t": 118898.928,
      "d": 1788.9885000000068,
      "v": 127
    },
    {
      "midi": 68,
      "hit": false,
      "t": 118898.928,
      "d": 1853.2086000000127,
      "v": 127
    },
    {
      "midi": 59,
      "hit": false,
      "t": 118898.928,
      "d": 1892.199375000011,
      "v": 127
    },
    {
      "midi": 69,
      "hit": false,
      "t": 121100.76000000001,
      "d": 1830.272849999994,
      "v": 127
    },
    {
      "midi": 64,
      "hit": false,
      "t": 121100.76000000001,
      "d": 1839.4471499999927,
      "v": 127
    },
    {
      "midi": 61,
      "hit": false,
      "t": 121100.76000000001,
      "d": 1883.0250749999977,
      "v": 127
    },
    {
      "midi": 73,
      "hit": false,
      "t": 123302.592,
      "d": 1727.0619750000042,
      "v": 127
    },
    {
      "midi": 68,
      "hit": false,
      "t": 123302.592,
      "d": 1807.3371000000043,
      "v": 127
    },
    {
      "midi": 64,
      "hit": false,
      "t": 123302.592,
      "d": 1857.7957500000048,
      "v": 127
    },
    {
      "midi": 71,
      "hit": false,
      "t": 125504.42400000001,
      "d": 1857.7957500000048,
      "v": 127
    },
    {
      "midi": 66,
      "hit": false,
      "t": 125504.42400000001,
      "d": 1866.9700500000035,
      "v": 127
    },
    {
      "midi": 63,
      "hit": false,
      "t": 125504.42400000001,
      "d": 1947.2451750000037,
      "v": 127
    },
    {
      "midi": 63,
      "hit": false,
      "t": 127706.25600000002,
      "d": 1924.3094249999995,
      "v": 127
    },
    {
      "midi": 68,
      "hit": false,
      "t": 127706.25600000002,
      "d": 1928.8965750000061,
      "v": 127
    },
    {
      "midi": 59,
      "hit": false,
      "t": 127706.25600000002,
      "d": 1974.768075,
      "v": 127
    },
    {
      "midi": 68,
      "hit": false,
      "t": 129908.08800000002,
      "d": 1749.9977249999938,
      "v": 127
    },
    {
      "midi": 64,
      "hit": false,
      "t": 129908.08800000002,
      "d": 1768.3463249999913,
      "v": 127
    },
    {
      "midi": 61,
      "hit": false,
      "t": 129908.08800000002,
      "d": 1795.8692250000022,
      "v": 127
    },
    {
      "midi": 73,
      "hit": false,
      "t": 132109.92,
      "d": 1777.5206250000047,
      "v": 127
    },
    {
      "midi": 68,
      "hit": false,
      "t": 132109.92,
      "d": 1823.392125000013,
      "v": 127
    },
    {
      "midi": 64,
      "hit": false,
      "t": 132109.92,
      "d": 1903.6672499999986,
      "v": 127
    },
    {
      "midi": 71,
      "hit": false,
      "t": 134311.752,
      "d": 1818.8049750000064,
      "v": 127
    },
    {
      "midi": 66,
      "hit": false,
      "t": 134311.752,
      "d": 1830.2728500000085,
      "v": 127
    },
    {
      "midi": 63,
      "hit": false,
      "t": 134311.752,
      "d": 1915.1351250000007,
      "v": 127
    },
    {
      "midi": 63,
      "hit": false,
      "t": 136513.584,
      "d": 1846.3278749999881,
      "v": 127
    },
    {
      "midi": 68,
      "hit": false,
      "t": 136513.584,
      "d": 1903.6672499999986,
      "v": 127
    },
    {
      "midi": 59,
      "hit": false,
      "t": 136513.584,
      "d": 1915.1351250000007,
      "v": 127
    },
    {
      "midi": 69,
      "hit": false,
      "t": 138715.416,
      "d": 1731.6491249999963,
      "v": 127
    },
    {
      "midi": 64,
      "hit": false,
      "t": 138715.416,
      "d": 1743.1169999999984,
      "v": 127
    },
    {
      "midi": 61,
      "hit": false,
      "t": 138715.416,
      "d": 1825.6857000000018,
      "v": 127
    },
    {
      "midi": 64,
      "hit": false,
      "t": 140917.248,
      "d": 1749.9977249999938,
      "v": 127
    },
    {
      "midi": 68,
      "hit": false,
      "t": 140917.248,
      "d": 1779.8141999999934,
      "v": 127
    },
    {
      "midi": 73,
      "hit": false,
      "t": 140917.248,
      "d": 1791.2820749999955,
      "v": 127
    },
    {
      "midi": 66,
      "hit": false,
      "t": 143119.08,
      "d": 1841.7407250000106,
      "v": 127
    },
    {
      "midi": 71,
      "hit": false,
      "t": 143119.08,
      "d": 1857.7957500000193,
      "v": 127
    },
    {
      "midi": 63,
      "hit": false,
      "t": 143119.08,
      "d": 1949.538750000007,
      "v": 127
    },
    {
      "midi": 63,
      "hit": false,
      "t": 145320.91199999998,
      "d": 1823.392125000013,
      "v": 127
    },
    {
      "midi": 68,
      "hit": false,
      "t": 145320.91199999998,
      "d": 1846.3278750000172,
      "v": 127
    },
    {
      "midi": 59,
      "hit": false,
      "t": 145320.91199999998,
      "d": 1928.8965750000207,
      "v": 127
    },
    {
      "midi": 68,
      "hit": false,
      "t": 147522.744,
      "d": 2314.217174999998,
      "v": 127
    },
    {
      "midi": 64,
      "hit": false,
      "t": 147522.744,
      "d": 2353.207950000011,
      "v": 127
    },
    {
      "midi": 61,
      "hit": false,
      "t": 147522.744,
      "d": 2415.134474999999,
      "v": 127
    },
    {
      "midi": 80,
      "hit": false,
      "t": 150825.492,
      "d": 899.0813999999955,
      "v": 127
    },
    {
      "midi": 78,
      "hit": false,
      "t": 151651.179,
      "d": 149.08237499999814,
      "v": 127
    },
    {
      "midi": 76,
      "hit": false,
      "t": 151788.7935,
      "d": 211.00889999998617,
      "v": 127
    },
    {
      "midi": 75,
      "hit": false,
      "t": 151926.408,
      "d": 825.6869999999763,
      "v": 127
    },
    {
      "midi": 71,
      "hit": false,
      "t": 152752.09499999997,
      "d": 848.6227500000095,
      "v": 127
    },
    {
      "midi": 76,
      "hit": false,
      "t": 153853.01099999997,
      "d": 2238.52919999999,
      "v": 127
    },
    {
      "midi": 75,
      "hit": false,
      "t": 156054.84299999996,
      "d": 126.14662499999395,
      "v": 127
    },
    {
      "midi": 73,
      "hit": false,
      "t": 156192.45749999996,
      "d": 137.61449999999604,
      "v": 127
    },
    {
      "midi": 71,
      "hit": false,
      "t": 156330.07199999996,
      "d": 2201.831999999995,
      "v": 127
    },
    {
      "midi": 80,
      "hit": false,
      "t": 159632.81999999995,
      "d": 830.274150000012,
      "v": 127
    },
    {
      "midi": 78,
      "hit": false,
      "t": 160458.50699999995,
      "d": 153.6695250000048,
      "v": 127
    },
    {
      "midi": 76,
      "hit": false,
      "t": 160596.12149999995,
      "d": 162.843824999989,
      "v": 127
    },
    {
      "midi": 75,
      "hit": false,
      "t": 160733.73599999995,
      "d": 825.6870000000054,
      "v": 127
    },
    {
      "midi": 71,
      "hit": false,
      "t": 161559.42299999995,
      "d": 889.9071000000113,
      "v": 127
    },
    {
      "midi": 76,
      "hit": false,
      "t": 162660.33899999995,
      "d": 2201.831999999995,
      "v": 127
    },
    {
      "midi": 75,
      "hit": false,
      "t": 164862.17099999994,
      "d": 137.61449999999604,
      "v": 127
    },
    {
      "midi": 73,
      "hit": false,
      "t": 164999.78549999994,
      "d": 213.30247500000405,
      "v": 127
    },
    {
      "midi": 71,
      "hit": false,
      "t": 165137.39999999994,
      "d": 825.6870000000054,
      "v": 127
    },
    {
      "midi": 68,
      "hit": false,
      "t": 165963.08699999994,
      "d": 793.5769499999878,
      "v": 127
    },
    {
      "midi": 73,
      "hit": false,
      "t": 167064.00299999994,
      "d": 1371.557850000012,
      "v": 127
    },
    {
      "midi": 80,
      "hit": false,
      "t": 168440.14799999996,
      "d": 871.5585000000137,
      "v": 127
    },
    {
      "midi": 78,
      "hit": false,
      "t": 169265.83499999996,
      "d": 162.843824999989,
      "v": 127
    },
    {
      "midi": 76,
      "hit": false,
      "t": 169403.44949999996,
      "d": 204.12817499999073,
      "v": 127
    },
    {
      "midi": 75,
      "hit": false,
      "t": 169541.06399999995,
      "d": 825.6870000000054,
      "v": 127
    },
    {
      "midi": 71,
      "hit": false,
      "t": 170366.75099999996,
      "d": 862.3842000000004,
      "v": 127
    },
    {
      "midi": 76,
      "hit": false,
      "t": 171467.66699999996,
      "d": 2201.831999999995,
      "v": 127
    },
    {
      "midi": 75,
      "hit": false,
      "t": 173669.49899999995,
      "d": 142.2016500000027,
      "v": 127
    },
    {
      "midi": 73,
      "hit": false,
      "t": 173807.11349999995,
      "d": 151.37594999998691,
      "v": 127
    },
    {
      "midi": 71,
      "hit": false,
      "t": 173944.72799999994,
      "d": 837.1548749999783,
      "v": 127
    },
    {
      "midi": 68,
      "hit": false,
      "t": 174770.41499999992,
      "d": 793.5769499999878,
      "v": 127
    },
    {
      "midi": 64,
      "hit": false,
      "t": 175596.1019999999,
      "d": 353.21054999998887,
      "v": 127
    },
    {
      "midi": 73,
      "hit": false,
      "t": 175871.3309999999,
      "d": 1376.1449999999895,
      "v": 127
    },
    {
      "midi": 71,
      "hit": false,
      "t": 178073.16299999988,
      "d": 135.32092500000726,
      "v": 127
    },
    {
      "midi": 69,
      "hit": false,
      "t": 178210.77749999988,
      "d": 105.50445000000764,
      "v": 127
    },
    {
      "midi": 71,
      "hit": false,
      "t": 178348.39199999988,
      "d": 1795.8692250000022,
      "v": 127
    },
    {
      "midi": 69,
      "hit": false,
      "t": 180274.99499999988,
      "d": 160.55025000000023,
      "v": 127
    },
    {
      "midi": 68,
      "hit": false,
      "t": 180412.60949999987,
      "d": 116.97232500000973,
      "v": 127
    },
    {
      "midi": 69,
      "hit": false,
      "t": 180550.22399999987,
      "d": 1967.8873500000045,
      "v": 127
    },
    {
      "midi": 68,
      "hit": false,
      "t": 182476.82699999987,
      "d": 275.2289999999921,
      "v": 127
    },
    {
      "midi": 61,
      "hit": false,
      "t": 182752.05599999987,
      "d": 2043.5753250000125,
      "v": 127
    },
    {
      "midi": 73,
      "hit": false,
      "t": 184953.8879999999,
      "d": 1011.4665749999986,
      "v": 127
    },
    {
      "midi": 73,
      "hit": false,
      "t": 186054.8039999999,
      "d": 279.81614999999874,
      "v": 127
    },
    {
      "midi": 75,
      "hit": false,
      "t": 186330.03299999988,
      "d": 305.0454749999917,
      "v": 127
    },
    {
      "midi": 76,
      "hit": false,
      "t": 186605.26199999987,
      "d": 252.2932499999879,
      "v": 127
    },
    {
      "midi": 78,
      "hit": false,
      "t": 186880.49099999986,
      "d": 266.05470000000787,
      "v": 127
    },
    {
      "midi": 75,
      "hit": false,
      "t": 187155.71999999988,
      "d": 724.7697000000044,
      "v": 127
    },
    {
      "midi": 71,
      "hit": false,
      "t": 187981.4069999999,
      "d": 894.4942499999888,
      "v": 127
    },
    {
      "midi": 69,
      "hit": false,
      "t": 189082.3229999999,
      "d": 149.08237499999814,
      "v": 127
    },
    {
      "midi": 68,
      "hit": false,
      "t": 189219.93749999988,
      "d": 135.32092500000726,
      "v": 127
    },
    {
      "midi": 69,
      "hit": false,
      "t": 189357.55199999988,
      "d": 1972.4745000000112,
      "v": 127
    },
    {
      "midi": 68,
      "hit": false,
      "t": 191284.15499999988,
      "d": 266.05470000000787,
      "v": 127
    },
    {
      "midi": 61,
      "hit": false,
      "t": 191559.3839999999,
      "d": 1800.4563750000088,
      "v": 127
    },
    {
      "midi": 73,
      "hit": false,
      "t": 193761.2159999999,
      "d": 1713.3005249999987,
      "v": 127
    },
    {
      "midi": 68,
      "hit": false,
      "t": 193761.2159999999,
      "d": 1800.4563750000088,
      "v": 127
    },
    {
      "midi": 64,
      "hit": false,
      "t": 193761.2159999999,
      "d": 1857.7957500000193,
      "v": 127
    },
    {
      "midi": 71,
      "hit": false,
      "t": 195963.04799999992,
      "d": 1775.2270499999868,
      "v": 127
    },
    {
      "midi": 66,
      "hit": false,
      "t": 195963.04799999992,
      "d": 1786.6949249999889,
      "v": 127
    },
    {
      "midi": 63,
      "hit": false,
      "t": 195963.04799999992,
      "d": 1905.9608249999874,
      "v": 127
    },
    {
      "midi": 63,
      "hit": false,
      "t": 198164.87999999992,
      "d": 1788.9885000000068,
      "v": 127
    },
    {
      "midi": 68,
      "hit": false,
      "t": 198164.87999999992,
      "d": 1853.2086000000127,
      "v": 127
    },
    {
      "midi": 59,
      "hit": false,
      "t": 198164.87999999992,
      "d": 1892.1993750000256,
      "v": 127
    },
    {
      "midi": 69,
      "hit": false,
      "t": 200366.71199999994,
      "d": 1830.2728500000085,
      "v": 127
    },
    {
      "midi": 64,
      "hit": false,
      "t": 200366.71199999994,
      "d": 1839.4471500000218,
      "v": 127
    },
    {
      "midi": 61,
      "hit": false,
      "t": 200366.71199999994,
      "d": 1883.0250750000123,
      "v": 127
    },
    {
      "midi": 73,
      "hit": false,
      "t": 202568.54399999997,
      "d": 1727.0619749999896,
      "v": 127
    },
    {
      "midi": 68,
      "hit": false,
      "t": 202568.54399999997,
      "d": 1807.3370999999752,
      "v": 127
    },
    {
      "midi": 64,
      "hit": false,
      "t": 202568.54399999997,
      "d": 1857.7957499999611,
      "v": 127
    },
    {
      "midi": 71,
      "hit": false,
      "t": 204770.37599999993,
      "d": 1857.7957499999902,
      "v": 127
    },
    {
      "midi": 66,
      "hit": false,
      "t": 204770.37599999993,
      "d": 1866.9700500000035,
      "v": 127
    },
    {
      "midi": 63,
      "hit": false,
      "t": 204770.37599999993,
      "d": 1947.245174999989,
      "v": 127
    },
    {
      "midi": 63,
      "hit": false,
      "t": 206972.20799999993,
      "d": 1924.309425000014,
      "v": 127
    },
    {
      "midi": 68,
      "hit": false,
      "t": 206972.20799999993,
      "d": 1928.8965750000207,
      "v": 127
    },
    {
      "midi": 59,
      "hit": false,
      "t": 206972.20799999993,
      "d": 1974.768075000029,
      "v": 127
    },
    {
      "midi": 68,
      "hit": false,
      "t": 209174.03999999995,
      "d": 1749.9977249999938,
      "v": 127
    },
    {
      "midi": 64,
      "hit": false,
      "t": 209174.03999999995,
      "d": 1768.3463249999913,
      "v": 127
    },
    {
      "midi": 61,
      "hit": false,
      "t": 209174.03999999995,
      "d": 1795.8692250000022,
      "v": 127
    },
    {
      "midi": 73,
      "hit": false,
      "t": 211375.87199999994,
      "d": 1777.5206250000047,
      "v": 127
    },
    {
      "midi": 68,
      "hit": false,
      "t": 211375.87199999994,
      "d": 1823.392125000013,
      "v": 127
    },
    {
      "midi": 64,
      "hit": false,
      "t": 211375.87199999994,
      "d": 1903.6672499999986,
      "v": 127
    },
    {
      "midi": 71,
      "hit": false,
      "t": 213577.70399999994,
      "d": 1818.8049750000064,
      "v": 127
    },
    {
      "midi": 66,
      "hit": false,
      "t": 213577.70399999994,
      "d": 1830.2728500000085,
      "v": 127
    },
    {
      "midi": 63,
      "hit": false,
      "t": 213577.70399999994,
      "d": 1915.1351250000007,
      "v": 127
    },
    {
      "midi": 63,
      "hit": false,
      "t": 215779.53599999993,
      "d": 1846.3278749999881,
      "v": 127
    },
    {
      "midi": 68,
      "hit": false,
      "t": 215779.53599999993,
      "d": 1903.6672499999986,
      "v": 127
    },
    {
      "midi": 59,
      "hit": false,
      "t": 215779.53599999993,
      "d": 1915.1351250000007,
      "v": 127
    },
    {
      "midi": 69,
      "hit": false,
      "t": 217981.36799999993,
      "d": 1731.6491249999963,
      "v": 127
    },
    {
      "midi": 64,
      "hit": false,
      "t": 217981.36799999993,
      "d": 1743.1169999999984,
      "v": 127
    },
    {
      "midi": 61,
      "hit": false,
      "t": 217981.36799999993,
      "d": 1825.6857000000018,
      "v": 127
    },
    {
      "midi": 64,
      "hit": false,
      "t": 220183.19999999992,
      "d": 1749.9977249999938,
      "v": 127
    },
    {
      "midi": 68,
      "hit": false,
      "t": 220183.19999999992,
      "d": 1779.8141999999934,
      "v": 127
    },
    {
      "midi": 73,
      "hit": false,
      "t": 220183.19999999992,
      "d": 1791.2820749999955,
      "v": 127
    },
    {
      "midi": 66,
      "hit": false,
      "t": 222385.03199999992,
      "d": 1841.7407250000106,
      "v": 127
    },
    {
      "midi": 71,
      "hit": false,
      "t": 222385.03199999992,
      "d": 1857.7957500000193,
      "v": 127
    },
    {
      "midi": 63,
      "hit": false,
      "t": 222385.03199999992,
      "d": 1949.538750000007,
      "v": 127
    },
    {
      "midi": 63,
      "hit": false,
      "t": 224586.8639999999,
      "d": 1823.392125000013,
      "v": 127
    },
    {
      "midi": 68,
      "hit": false,
      "t": 224586.8639999999,
      "d": 1846.3278750000172,
      "v": 127
    },
    {
      "midi": 59,
      "hit": false,
      "t": 224586.8639999999,
      "d": 1928.8965750000207,
      "v": 127
    },
    {
      "midi": 68,
      "hit": false,
      "t": 226788.69599999994,
      "d": 2314.217174999998,
      "v": 127
    },
    {
      "midi": 64,
      "hit": false,
      "t": 226788.69599999994,
      "d": 2353.207950000011,
      "v": 127
    },
    {
      "midi": 61,
      "hit": false,
      "t": 226788.69599999994,
      "d": 2415.134474999999,
      "v": 127
    },
    {
      "midi": 73,
      "hit": false,
      "t": 228990.52799999993,
      "d": 213.30247500000405,
      "v": 127
    },
    {
      "midi": 75,
      "hit": false,
      "t": 229403.37149999995,
      "d": 201.83460000000196,
      "v": 127
    },
    {
      "midi": 76,
      "hit": false,
      "t": 229816.21499999994,
      "d": 176.605275000009,
      "v": 127
    },
    {
      "midi": 78,
      "hit": false,
      "t": 230229.05849999996,
      "d": 243.11895000000368,
      "v": 127
    },
    {
      "midi": 80,
      "hit": false,
      "t": 230641.90199999997,
      "d": 194.95387500000652,
      "v": 127
    },
    {
      "midi": 83,
      "hit": false,
      "t": 231054.7455,
      "d": 229.3575000000128,
      "v": 127
    },
    {
      "midi": 85,
      "hit": false,
      "t": 231467.589,
      "d": 188.07315000001108,
      "v": 127
    },
    {
      "midi": 88,
      "hit": false,
      "t": 231880.43250000002,
      "d": 199.54102500001318,
      "v": 127
    },
    {
      "midi": 90,
      "hit": false,
      "t": 232293.27600000004,
      "d": 178.89884999999776,
      "v": 127
    },
    {
      "midi": 88,
      "hit": false,
      "t": 232568.50500000003,
      "d": 194.95387500000652,
      "v": 127
    },
    {
      "midi": 87,
      "hit": false,
      "t": 232843.73400000003,
      "d": 151.37594999998691,
      "v": 127
    },
    {
      "midi": 88,
      "hit": false,
      "t": 233118.96300000002,
      "d": 96.33014999999432,
      "v": 127
    },
    {
      "midi": 85,
      "hit": false,
      "t": 233256.5775,
      "d": 139.90807500001392,
      "v": 127
    },
    {
      "midi": 87,
      "hit": false,
      "t": 233531.80650000004,
      "d": 103.21087499998976,
      "v": 127
    },
    {
      "midi": 83,
      "hit": false,
      "t": 233669.42100000003,
      "d": 146.78880000000936,
      "v": 127
    },
    {
      "midi": 85,
      "hit": false,
      "t": 233944.65000000005,
      "d": 75.68797500000801,
      "v": 127
    },
    {
      "midi": 81,
      "hit": false,
      "t": 234082.26450000005,
      "d": 160.55025000000023,
      "v": 127
    },
    {
      "midi": 83,
      "hit": false,
      "t": 234357.49350000004,
      "d": 126.14662499999395,
      "v": 127
    },
    {
      "midi": 80,
      "hit": false,
      "t": 234495.10800000004,
      "d": 121.55947499998729,
      "v": 127
    },
    {
      "midi": 81,
      "hit": false,
      "t": 234770.33700000003,
      "d": 128.44020000001183,
      "v": 127
    },
    {
      "midi": 78,
      "hit": false,
      "t": 234907.95150000005,
      "d": 178.89884999999776,
      "v": 127
    },
    {
      "midi": 80,
      "hit": false,
      "t": 235183.18050000005,
      "d": 100.91730000000098,
      "v": 127
    },
    {
      "midi": 76,
      "hit": false,
      "t": 235320.79500000004,
      "d": 158.25667500001146,
      "v": 127
    },
    {
      "midi": 78,
      "hit": false,
      "t": 235596.02400000006,
      "d": 82.56870000000345,
      "v": 127
    },
    {
      "midi": 75,
      "hit": false,
      "t": 235733.63850000006,
      "d": 190.36672499999986,
      "v": 127
    },
    {
      "midi": 76,
      "hit": false,
      "t": 236008.86750000005,
      "d": 151.37594999998691,
      "v": 127
    },
    {
      "midi": 73,
      "hit": false,
      "t": 236146.48200000005,
      "d": 128.44019999998272,
      "v": 127
    },
    {
      "midi": 75,
      "hit": false,
      "t": 236421.71100000004,
      "d": 94.03657500000554,
      "v": 127
    },
    {
      "midi": 71,
      "hit": false,
      "t": 236559.32550000004,
      "d": 162.843824999989,
      "v": 127
    },
    {
      "midi": 73,
      "hit": false,
      "t": 236834.55450000003,
      "d": 103.21087499998976,
      "v": 127
    },
    {
      "midi": 68,
      "hit": false,
      "t": 236972.16900000002,
      "d": 110.0916000000143,
      "v": 127
    },
    {
      "midi": 71,
      "hit": false,
      "t": 237247.39800000004,
      "d": 137.61449999999604,
      "v": 127
    },
    {
      "midi": 68,
      "hit": false,
      "t": 237385.01250000004,
      "d": 167.43097499999567,
      "v": 127
    },
    {
      "midi": 71,
      "hit": false,
      "t": 237660.24150000003,
      "d": 126.14662499999395,
      "v": 127
    },
    {
      "midi": 73,
      "hit": false,
      "t": 237797.85600000003,
      "d": 213.30247500000405,
      "v": 127
    },
    {
      "midi": 75,
      "hit": false,
      "t": 238210.69950000005,
      "d": 201.83460000000196,
      "v": 127
    },
    {
      "midi": 76,
      "hit": false,
      "t": 238623.54300000003,
      "d": 176.605275000009,
      "v": 127
    },
    {
      "midi": 78,
      "hit": false,
      "t": 239036.38650000005,
      "d": 243.11895000000368,
      "v": 127
    },
    {
      "midi": 80,
      "hit": false,
      "t": 239449.23000000007,
      "d": 194.95387500000652,
      "v": 127
    },
    {
      "midi": 83,
      "hit": false,
      "t": 239862.0735000001,
      "d": 229.3575000000128,
      "v": 127
    },
    {
      "midi": 85,
      "hit": false,
      "t": 240274.9170000001,
      "d": 188.07315000001108,
      "v": 127
    },
    {
      "midi": 88,
      "hit": false,
      "t": 240687.76050000012,
      "d": 199.54102500001318,
      "v": 127
    },
    {
      "midi": 90,
      "hit": false,
      "t": 241100.60400000014,
      "d": 178.89884999999776,
      "v": 127
    },
    {
      "midi": 88,
      "hit": false,
      "t": 241375.83300000013,
      "d": 194.95387500000652,
      "v": 127
    },
    {
      "midi": 87,
      "hit": false,
      "t": 241651.06200000012,
      "d": 151.37594999998691,
      "v": 127
    },
    {
      "midi": 88,
      "hit": false,
      "t": 241926.2910000001,
      "d": 96.33014999999432,
      "v": 127
    },
    {
      "midi": 85,
      "hit": false,
      "t": 242063.9055000001,
      "d": 139.90807500001392,
      "v": 127
    },
    {
      "midi": 87,
      "hit": false,
      "t": 242339.13450000013,
      "d": 103.21087499998976,
      "v": 127
    },
    {
      "midi": 83,
      "hit": false,
      "t": 242476.74900000013,
      "d": 146.78880000000936,
      "v": 127
    },
    {
      "midi": 85,
      "hit": false,
      "t": 242751.97800000015,
      "d": 75.68797500000801,
      "v": 127
    },
    {
      "midi": 81,
      "hit": false,
      "t": 242889.59250000014,
      "d": 160.55025000000023,
      "v": 127
    },
    {
      "midi": 83,
      "hit": false,
      "t": 243164.82150000014,
      "d": 126.14662499999395,
      "v": 127
    },
    {
      "midi": 80,
      "hit": false,
      "t": 243302.43600000013,
      "d": 121.55947499998729,
      "v": 127
    },
    {
      "midi": 81,
      "hit": false,
      "t": 243577.66500000012,
      "d": 128.44020000001183,
      "v": 127
    },
    {
      "midi": 78,
      "hit": false,
      "t": 243715.27950000015,
      "d": 178.89884999999776,
      "v": 127
    },
    {
      "midi": 80,
      "hit": false,
      "t": 243990.50850000014,
      "d": 100.91730000000098,
      "v": 127
    },
    {
      "midi": 76,
      "hit": false,
      "t": 244128.12300000014,
      "d": 158.25667500001146,
      "v": 127
    },
    {
      "midi": 78,
      "hit": false,
      "t": 244403.35200000016,
      "d": 82.56870000000345,
      "v": 127
    },
    {
      "midi": 75,
      "hit": false,
      "t": 244540.96650000016,
      "d": 190.36672499999986,
      "v": 127
    },
    {
      "midi": 76,
      "hit": false,
      "t": 244816.19550000015,
      "d": 151.37594999998691,
      "v": 127
    },
    {
      "midi": 73,
      "hit": false,
      "t": 244953.81000000014,
      "d": 128.44019999998272,
      "v": 127
    },
    {
      "midi": 75,
      "hit": false,
      "t": 245229.03900000014,
      "d": 94.03657500000554,
      "v": 127
    },
    {
      "midi": 71,
      "hit": false,
      "t": 245366.65350000013,
      "d": 162.843824999989,
      "v": 127
    },
    {
      "midi": 73,
      "hit": false,
      "t": 245641.88250000012,
      "d": 103.21087499998976,
      "v": 127
    },
    {
      "midi": 68,
      "hit": false,
      "t": 245779.49700000012,
      "d": 110.0916000000143,
      "v": 127
    },
    {
      "midi": 71,
      "hit": false,
      "t": 246054.72600000014,
      "d": 137.61449999999604,
      "v": 127
    },
    {
      "midi": 68,
      "hit": false,
      "t": 246192.34050000014,
      "d": 167.43097499999567,
      "v": 127
    },
    {
      "midi": 71,
      "hit": false,
      "t": 246467.56950000013,
      "d": 126.14662499999395,
      "v": 127
    },
    {
      "midi": 61,
      "hit": false,
      "t": 246605.18400000012,
      "d": 477.06359999999404,
      "v": 127
    },
    {
      "midi": 63,
      "hit": false,
      "t": 247018.0275000001,
      "d": 373.8527250000043,
      "v": 127
    },
    {
      "midi": 64,
      "hit": false,
      "t": 247430.87100000013,
      "d": 479.3571749999828,
      "v": 127
    },
    {
      "midi": 66,
      "hit": false,
      "t": 247843.71450000012,
      "d": 449.5406999999832,
      "v": 127
    },
    {
      "midi": 68,
      "hit": false,
      "t": 248256.5580000001,
      "d": 405.9627749999927,
      "v": 127
    },
    {
      "midi": 71,
      "hit": false,
      "t": 248669.4015000001,
      "d": 479.3571749999828,
      "v": 127
    },
    {
      "midi": 73,
      "hit": false,
      "t": 249082.24500000008,
      "d": 467.8892999999807,
      "v": 127
    },
    {
      "midi": 76,
      "hit": false,
      "t": 249495.08850000007,
      "d": 426.604949999979,
      "v": 127
    },
    {
      "midi": 79,
      "hit": false,
      "t": 249907.93200000006,
      "d": 217.8896249999816,
      "v": 127
    },
    {
      "midi": 81,
      "hit": false,
      "t": 250183.16100000005,
      "d": 190.36672499999986,
      "v": 127
    },
    {
      "midi": 84,
      "hit": false,
      "t": 250458.39000000004,
      "d": 224.77035000000615,
      "v": 127
    },
    {
      "midi": 86,
      "hit": false,
      "t": 250733.61900000004,
      "d": 275.2289999999921,
      "v": 127
    },
    {
      "midi": 62,
      "hit": false,
      "t": 251008.84800000003,
      "d": 1766.0527499999735,
      "v": 116
    },
    {
      "midi": 69,
      "hit": false,
      "t": 251008.84800000003,
      "d": 1775.2270499999868,
      "v": 108
    },
    {
      "midi": 74,
      "hit": false,
      "t": 251008.84800000003,
      "d": 1979.3552249999775,
      "v": 127
    },
    {
      "midi": 77,
      "hit": false,
      "t": 251020.31587500003,
      "d": 1846.3278749999881,
      "v": 127
    },
    {
      "midi": 50,
      "hit": false,
      "t": 251100.59100000001,
      "d": 1577.9795999999915,
      "v": 127
    },
    {
      "midi": 64,
      "hit": false,
      "t": 253210.68,
      "d": 844.0356000000029,
      "v": 118
    },
    {
      "midi": 67,
      "hit": false,
      "t": 253210.68,
      "d": 1261.4662499999977,
      "v": 118
    },
    {
      "midi": 72,
      "hit": false,
      "t": 253210.68,
      "d": 1555.0438499999873,
      "v": 127
    },
    {
      "midi": 76,
      "hit": false,
      "t": 253210.68,
      "d": 1607.796074999991,
      "v": 127
    },
    {
      "midi": 55,
      "hit": false,
      "t": 253210.68,
      "d": 2018.3459999999614,
      "v": 122
    },
    {
      "midi": 64,
      "hit": false,
      "t": 254311.596,
      "d": 1016.053724999947,
      "v": 104
    },
    {
      "midi": 72,
      "hit": false,
      "t": 254862.05399999997,
      "d": 456.4214249999786,
      "v": 127
    },
    {
      "midi": 76,
      "hit": false,
      "t": 255137.28299999997,
      "d": 183.48599999997532,
      "v": 127
    },
    {
      "midi": 64,
      "hit": false,
      "t": 255412.51199999993,
      "d": 883.0263749999867,
      "v": 127
    },
    {
      "midi": 76,
      "hit": false,
      "t": 255412.51199999993,
      "d": 1610.089650000009,
      "v": 127
    },
    {
      "midi": 72,
      "hit": false,
      "t": 255412.51199999993,
      "d": 1628.4382500000065,
      "v": 127
    },
    {
      "midi": 69,
      "hit": false,
      "t": 255412.51199999993,
      "d": 1642.1996999999974,
      "v": 127
    },
    {
      "midi": 57,
      "hit": false,
      "t": 255412.51199999993,
      "d": 1800.4563750000088,
      "v": 127
    },
    {
      "midi": 64,
      "hit": false,
      "t": 256513.42799999993,
      "d": 722.4761250000156,
      "v": 104
    },
    {
      "midi": 69,
      "hit": false,
      "t": 257063.88599999994,
      "d": 245.41252499999246,
      "v": 127
    },
    {
      "midi": 72,
      "hit": false,
      "t": 257063.88599999994,
      "d": 396.78847499997937,
      "v": 127
    },
    {
      "midi": 76,
      "hit": false,
      "t": 257063.88599999994,
      "d": 431.19209999998566,
      "v": 127
    },
    {
      "midi": 77,
      "hit": false,
      "t": 257614.34399999992,
      "d": 1043.576624999987,
      "v": 127
    },
    {
      "midi": 74,
      "hit": false,
      "t": 257614.34399999992,
      "d": 1073.3930999999866,
      "v": 127
    },
    {
      "midi": 65,
      "hit": false,
      "t": 257614.34399999992,
      "d": 1869.2636250000214,
      "v": 127
    },
    {
      "midi": 62,
      "hit": false,
      "t": 257614.34399999992,
      "d": 1926.603000000032,
      "v": 127
    },
    {
      "midi": 58,
      "hit": false,
      "t": 257614.34399999992,
      "d": 1938.070875000034,
      "v": 127
    },
    {
      "midi": 77,
      "hit": false,
      "t": 258715.25999999992,
      "d": 967.8886500000372,
      "v": 127
    },
    {
      "midi": 74,
      "hit": false,
      "t": 258715.25999999992,
      "d": 1016.0537250000343,
      "v": 127
    },
    {
      "midi": 69,
      "hit": false,
      "t": 259265.71799999994,
      "d": 357.79770000002463,
      "v": 127
    },
    {
      "midi": 77,
      "hit": false,
      "t": 259816.17599999995,
      "d": 981.6500999999989,
      "v": 127
    },
    {
      "midi": 74,
      "hit": false,
      "t": 259816.17599999995,
      "d": 1004.5858500000031,
      "v": 127
    },
    {
      "midi": 69,
      "hit": false,
      "t": 259816.17599999995,
      "d": 1100.9159999999974,
      "v": 120
    },
    {
      "midi": 50,
      "hit": false,
      "t": 259816.17599999995,
      "d": 2009.1717000000062,
      "v": 112
    },
    {
      "midi": 62,
      "hit": false,
      "t": 259816.17599999995,
      "d": 2013.758850000013,
      "v": 126
    },
    {
      "midi": 69,
      "hit": false,
      "t": 260917.09199999995,
      "d": 34.403625000006286,
      "v": 127
    },
    {
      "midi": 77,
      "hit": false,
      "t": 260917.09199999995,
      "d": 986.2372500000056,
      "v": 127
    },
    {
      "midi": 74,
      "hit": false,
      "t": 260917.09199999995,
      "d": 1022.9344500000007,
      "v": 127
    },
    {
      "midi": 67,
      "hit": false,
      "t": 262018.00799999994,
      "d": 821.0998499999696,
      "v": 101
    },
    {
      "midi": 76,
      "hit": false,
      "t": 262018.00799999994,
      "d": 988.5308249999944,
      "v": 127
    },
    {
      "midi": 72,
      "hit": false,
      "t": 262018.00799999994,
      "d": 1022.9344499999715,
      "v": 127
    },
    {
      "midi": 60,
      "hit": false,
      "t": 262018.00799999994,
      "d": 2155.9604999999574,
      "v": 127
    },
    {
      "midi": 50,
      "hit": false,
      "t": 262155.62249999994,
      "d": 29.816474999999627,
      "v": 127
    },
    {
      "midi": 48,
      "hit": false,
      "t": 262155.62249999994,
      "d": 2020.6395749999792,
      "v": 127
    },
    {
      "midi": 67,
      "hit": false,
      "t": 263118.92399999994,
      "d": 534.4029749999754,
      "v": 127
    },
    {
      "midi": 76,
      "hit": false,
      "t": 263118.92399999994,
      "d": 963.3015000000014,
      "v": 127
    },
    {
      "midi": 72,
      "hit": false,
      "t": 263118.92399999994,
      "d": 974.7693749999744,
      "v": 127
    },
    {
      "midi": 72,
      "hit": false,
      "t": 264219.8399999999,
      "d": 809.6319750000257,
      "v": 116
    },
    {
      "midi": 64,
      "hit": false,
      "t": 264219.8399999999,
      "d": 1619.2639500000514,
      "v": 101
    },
    {
      "midi": 57,
      "hit": false,
      "t": 264219.8399999999,
      "d": 2027.5203000000329,
      "v": 126
    },
    {
      "midi": 69,
      "hit": false,
      "t": 264907.9124999999,
      "d": 965.5950750000775,
      "v": 127
    },
    {
      "midi": 76,
      "hit": false,
      "t": 265320.75599999994,
      "d": 1034.4023250000319,
      "v": 127
    },
    {
      "midi": 72,
      "hit": false,
      "t": 265871.214,
      "d": 550.4579999999842,
      "v": 127
    },
    {
      "midi": 69,
      "hit": false,
      "t": 266146.44299999997,
      "d": 277.52257500000997,
      "v": 127
    },
    {
      "midi": 77,
      "hit": false,
      "t": 266421.67199999996,
      "d": 905.96212500002,
      "v": 127
    },
    {
      "midi": 74,
      "hit": false,
      "t": 266421.67199999996,
      "d": 981.650100000028,
      "v": 127
    },
    {
      "midi": 58,
      "hit": false,
      "t": 266421.67199999996,
      "d": 1974.7680750000873,
      "v": 127
    },
    {
      "midi": 65,
      "hit": false,
      "t": 266972.13,
      "d": 582.5680500000017,
      "v": 101
    },
    {
      "midi": 62,
      "hit": false,
      "t": 267247.359,
      "d": 1100.9160000000265,
      "v": 120
    },
    {
      "midi": 70,
      "hit": false,
      "t": 267522.588,
      "d": 268.34827499999665,
      "v": 127
    },
    {
      "midi": 74,
      "hit": false,
      "t": 267522.588,
      "d": 334.86194999999134,
      "v": 127
    },
    {
      "midi": 77,
      "hit": false,
      "t": 267522.588,
      "d": 472.4764500000165,
      "v": 127
    },
    {
      "midi": 65,
      "hit": false,
      "t": 267797.817,
      "d": 518.3479500000249,
      "v": 127
    },
    {
      "midi": 74,
      "hit": false,
      "t": 268073.04600000003,
      "d": 550.4580000000424,
      "v": 127
    },
    {
      "midi": 70,
      "hit": false,
      "t": 268348.275,
      "d": 80.27512500004377,
      "v": 127
    },
    {
      "midi": 62,
      "hit": false,
      "t": 268623.5040000001,
      "d": 1766.0527499999735,
      "v": 116
    },
    {
      "midi": 69,
      "hit": false,
      "t": 268623.5040000001,
      "d": 1775.2270499999868,
      "v": 108
    },
    {
      "midi": 74,
      "hit": false,
      "t": 268623.5040000001,
      "d": 1979.3552250000066,
      "v": 127
    },
    {
      "midi": 77,
      "hit": false,
      "t": 268634.97187500005,
      "d": 1846.3278750000172,
      "v": 127
    },
    {
      "midi": 50,
      "hit": false,
      "t": 268715.24700000003,
      "d": 1577.9796000000206,
      "v": 127
    },
    {
      "midi": 64,
      "hit": false,
      "t": 270825.33600000007,
      "d": 844.0356000000029,
      "v": 118
    },
    {
      "midi": 67,
      "hit": false,
      "t": 270825.33600000007,
      "d": 1261.4662499999977,
      "v": 118
    },
    {
      "midi": 72,
      "hit": false,
      "t": 270825.33600000007,
      "d": 1555.0438500000164,
      "v": 127
    },
    {
      "midi": 76,
      "hit": false,
      "t": 270825.33600000007,
      "d": 1607.7960750000202,
      "v": 127
    },
    {
      "midi": 55,
      "hit": false,
      "t": 270825.33600000007,
      "d": 2018.3460000000196,
      "v": 122
    },
    {
      "midi": 64,
      "hit": false,
      "t": 271926.2520000001,
      "d": 1016.0537250000052,
      "v": 104
    },
    {
      "midi": 72,
      "hit": false,
      "t": 272476.7100000001,
      "d": 456.42142500000773,
      "v": 127
    },
    {
      "midi": 76,
      "hit": false,
      "t": 272751.9390000001,
      "d": 183.48600000003353,
      "v": 127
    },
    {
      "midi": 64,
      "hit": false,
      "t": 273027.1680000001,
      "d": 883.0263750000158,
      "v": 127
    },
    {
      "midi": 76,
      "hit": false,
      "t": 273027.1680000001,
      "d": 1610.089650000038,
      "v": 127
    },
    {
      "midi": 72,
      "hit": false,
      "t": 273027.1680000001,
      "d": 1628.4382500000647,
      "v": 127
    },
    {
      "midi": 69,
      "hit": false,
      "t": 273027.1680000001,
      "d": 1642.1997000000556,
      "v": 127
    },
    {
      "midi": 57,
      "hit": false,
      "t": 273027.1680000001,
      "d": 1800.456375000067,
      "v": 127
    },
    {
      "midi": 64,
      "hit": false,
      "t": 274128.08400000015,
      "d": 722.4761250000447,
      "v": 104
    },
    {
      "midi": 69,
      "hit": false,
      "t": 274678.5420000002,
      "d": 245.41252499999246,
      "v": 127
    },
    {
      "midi": 72,
      "hit": false,
      "t": 274678.5420000002,
      "d": 396.7884750000085,
      "v": 127
    },
    {
      "midi": 76,
      "hit": false,
      "t": 274678.5420000002,
      "d": 431.19209999998566,
      "v": 127
    },
    {
      "midi": 77,
      "hit": false,
      "t": 275229.0000000002,
      "d": 1043.576624999987,
      "v": 127
    },
    {
      "midi": 74,
      "hit": false,
      "t": 275229.0000000002,
      "d": 1073.3930999999866,
      "v": 127
    },
    {
      "midi": 65,
      "hit": false,
      "t": 275229.0000000002,
      "d": 1869.2636249999632,
      "v": 127
    },
    {
      "midi": 62,
      "hit": false,
      "t": 275229.0000000002,
      "d": 1926.6029999999446,
      "v": 127
    },
    {
      "midi": 58,
      "hit": false,
      "t": 275229.0000000002,
      "d": 1938.0708749999176,
      "v": 127
    },
    {
      "midi": 77,
      "hit": false,
      "t": 276329.91600000014,
      "d": 967.8886499999207,
      "v": 127
    },
    {
      "midi": 74,
      "hit": false,
      "t": 276329.91600000014,
      "d": 1016.053724999947,
      "v": 127
    },
    {
      "midi": 69,
      "hit": false,
      "t": 276880.3740000001,
      "d": 357.7976999999373,
      "v": 127
    },
    {
      "midi": 77,
      "hit": false,
      "t": 277430.8320000001,
      "d": 981.650100000028,
      "v": 127
    },
    {
      "midi": 74,
      "hit": false,
      "t": 277430.8320000001,
      "d": 1004.5858500000322,
      "v": 127
    },
    {
      "midi": 69,
      "hit": false,
      "t": 277430.8320000001,
      "d": 1100.9160000000265,
      "v": 120
    },
    {
      "midi": 50,
      "hit": false,
      "t": 277430.8320000001,
      "d": 2009.1717000000062,
      "v": 112
    },
    {
      "midi": 62,
      "hit": false,
      "t": 277430.8320000001,
      "d": 2013.7588499999838,
      "v": 126
    },
    {
      "midi": 69,
      "hit": false,
      "t": 278531.74800000014,
      "d": 34.40362499997718,
      "v": 127
    },
    {
      "midi": 77,
      "hit": false,
      "t": 278531.74800000014,
      "d": 986.2372499999474,
      "v": 127
    },
    {
      "midi": 74,
      "hit": false,
      "t": 278531.74800000014,
      "d": 1022.9344499999424,
      "v": 127
    },
    {
      "midi": 67,
      "hit": false,
      "t": 279632.6640000001,
      "d": 821.0998499999987,
      "v": 101
    },
    {
      "midi": 76,
      "hit": false,
      "t": 279632.6640000001,
      "d": 988.5308250000235,
      "v": 127
    },
    {
      "midi": 72,
      "hit": false,
      "t": 279632.6640000001,
      "d": 1022.9344500000007,
      "v": 127
    },
    {
      "midi": 60,
      "hit": false,
      "t": 279632.6640000001,
      "d": 2155.9604999999865,
      "v": 127
    },
    {
      "midi": 50,
      "hit": false,
      "t": 279770.27850000013,
      "d": 29.816474999999627,
      "v": 127
    },
    {
      "midi": 48,
      "hit": false,
      "t": 279770.27850000013,
      "d": 2020.6395749999792,
      "v": 127
    },
    {
      "midi": 67,
      "hit": false,
      "t": 280733.58000000013,
      "d": 534.4029749999754,
      "v": 127
    },
    {
      "midi": 76,
      "hit": false,
      "t": 280733.58000000013,
      "d": 963.3015000000014,
      "v": 127
    },
    {
      "midi": 72,
      "hit": false,
      "t": 280733.58000000013,
      "d": 974.7693749999744,
      "v": 127
    },
    {
      "midi": 72,
      "hit": false,
      "t": 281834.4960000001,
      "d": 809.6319750000257,
      "v": 116
    },
    {
      "midi": 64,
      "hit": false,
      "t": 281834.4960000001,
      "d": 1619.2639500000514,
      "v": 101
    },
    {
      "midi": 57,
      "hit": false,
      "t": 281834.4960000001,
      "d": 2027.5203000000329,
      "v": 126
    },
    {
      "midi": 69,
      "hit": false,
      "t": 282522.5685000001,
      "d": 965.5950750000775,
      "v": 127
    },
    {
      "midi": 76,
      "hit": false,
      "t": 282935.4120000001,
      "d": 1034.4023250000319,
      "v": 127
    },
    {
      "midi": 72,
      "hit": false,
      "t": 283485.87000000017,
      "d": 550.4579999999842,
      "v": 127
    },
    {
      "midi": 69,
      "hit": false,
      "t": 283761.09900000016,
      "d": 277.52257500000997,
      "v": 127
    },
    {
      "midi": 77,
      "hit": false,
      "t": 284036.32800000015,
      "d": 905.96212500002,
      "v": 127
    },
    {
      "midi": 74,
      "hit": false,
      "t": 284036.32800000015,
      "d": 981.650100000028,
      "v": 127
    },
    {
      "midi": 58,
      "hit": false,
      "t": 284036.32800000015,
      "d": 1974.7680750000873,
      "v": 127
    },
    {
      "midi": 65,
      "hit": false,
      "t": 284586.7860000002,
      "d": 582.5680500000017,
      "v": 101
    },
    {
      "midi": 62,
      "hit": false,
      "t": 284862.0150000002,
      "d": 1100.9160000000265,
      "v": 120
    },
    {
      "midi": 70,
      "hit": false,
      "t": 285137.2440000002,
      "d": 268.34827499999665,
      "v": 127
    },
    {
      "midi": 74,
      "hit": false,
      "t": 285137.2440000002,
      "d": 334.86194999999134,
      "v": 127
    },
    {
      "midi": 77,
      "hit": false,
      "t": 285137.2440000002,
      "d": 472.4764500000165,
      "v": 127
    },
    {
      "midi": 65,
      "hit": false,
      "t": 285412.4730000002,
      "d": 518.3479500000249,
      "v": 127
    },
    {
      "midi": 74,
      "hit": false,
      "t": 285687.7020000002,
      "d": 550.4580000000424,
      "v": 127
    },
    {
      "midi": 70,
      "hit": false,
      "t": 285962.9310000002,
      "d": 80.27512500004377,
      "v": 127
    },
    {
      "midi": 77,
      "hit": false,
      "t": 286238.16000000027,
      "d": 981.650100000028,
      "v": 127
    },
    {
      "midi": 74,
      "hit": false,
      "t": 286238.16000000027,
      "d": 1004.5858500000322,
      "v": 127
    },
    {
      "midi": 69,
      "hit": false,
      "t": 286238.16000000027,
      "d": 1100.9160000000265,
      "v": 120
    },
    {
      "midi": 50,
      "hit": false,
      "t": 286238.16000000027,
      "d": 2009.1717000000062,
      "v": 112
    },
    {
      "midi": 62,
      "hit": false,
      "t": 286238.16000000027,
      "d": 2013.7588499999838,
      "v": 126
    },
    {
      "midi": 69,
      "hit": false,
      "t": 287339.0760000003,
      "d": 34.40362499997718,
      "v": 127
    },
    {
      "midi": 77,
      "hit": false,
      "t": 287339.0760000003,
      "d": 986.2372499999474,
      "v": 127
    },
    {
      "midi": 74,
      "hit": false,
      "t": 287339.0760000003,
      "d": 1022.9344499999424,
      "v": 127
    },
    {
      "midi": 67,
      "hit": false,
      "t": 288439.99200000026,
      "d": 821.0998499999987,
      "v": 101
    },
    {
      "midi": 76,
      "hit": false,
      "t": 288439.99200000026,
      "d": 988.5308250000235,
      "v": 127
    },
    {
      "midi": 72,
      "hit": false,
      "t": 288439.99200000026,
      "d": 1022.9344500000007,
      "v": 127
    },
    {
      "midi": 60,
      "hit": false,
      "t": 288439.99200000026,
      "d": 2155.9604999999865,
      "v": 127
    },
    {
      "midi": 50,
      "hit": false,
      "t": 288577.6065000003,
      "d": 29.816474999999627,
      "v": 127
    },
    {
      "midi": 48,
      "hit": false,
      "t": 288577.6065000003,
      "d": 2020.6395749999792,
      "v": 127
    },
    {
      "midi": 67,
      "hit": false,
      "t": 289540.9080000003,
      "d": 534.4029749999754,
      "v": 127
    },
    {
      "midi": 76,
      "hit": false,
      "t": 289540.9080000003,
      "d": 963.3015000000014,
      "v": 127
    },
    {
      "midi": 72,
      "hit": false,
      "t": 289540.9080000003,
      "d": 974.7693749999744,
      "v": 127
    },
    {
      "midi": 72,
      "hit": false,
      "t": 290641.82400000026,
      "d": 809.6319750000257,
      "v": 116
    },
    {
      "midi": 64,
      "hit": false,
      "t": 290641.82400000026,
      "d": 1619.2639500000514,
      "v": 101
    },
    {
      "midi": 57,
      "hit": false,
      "t": 290641.82400000026,
      "d": 2027.5203000000329,
      "v": 126
    },
    {
      "midi": 69,
      "hit": false,
      "t": 291329.89650000026,
      "d": 965.5950750000775,
      "v": 127
    },
    {
      "midi": 76,
      "hit": false,
      "t": 291742.7400000003,
      "d": 1034.4023250000319,
      "v": 127
    },
    {
      "midi": 72,
      "hit": false,
      "t": 292293.1980000003,
      "d": 550.4579999999842,
      "v": 127
    },
    {
      "midi": 69,
      "hit": false,
      "t": 292568.4270000003,
      "d": 277.52257500000997,
      "v": 127
    },
    {
      "midi": 77,
      "hit": false,
      "t": 292843.6560000003,
      "d": 905.96212500002,
      "v": 127
    },
    {
      "midi": 74,
      "hit": false,
      "t": 292843.6560000003,
      "d": 981.650100000028,
      "v": 127
    },
    {
      "midi": 58,
      "hit": false,
      "t": 292843.6560000003,
      "d": 1974.7680750000873,
      "v": 127
    },
    {
      "midi": 65,
      "hit": false,
      "t": 293394.11400000035,
      "d": 582.5680500000017,
      "v": 101
    },
    {
      "midi": 62,
      "hit": false,
      "t": 293669.34300000034,
      "d": 1100.9160000000265,
      "v": 120
    },
    {
      "midi": 70,
      "hit": false,
      "t": 293944.57200000033,
      "d": 268.34827499999665,
      "v": 127
    },
    {
      "midi": 74,
      "hit": false,
      "t": 293944.57200000033,
      "d": 334.86194999999134,
      "v": 127
    },
    {
      "midi": 77,
      "hit": false,
      "t": 293944.57200000033,
      "d": 472.4764500000165,
      "v": 127
    },
    {
      "midi": 65,
      "hit": false,
      "t": 294219.8010000003,
      "d": 518.3479500000249,
      "v": 127
    },
    {
      "midi": 74,
      "hit": false,
      "t": 294495.0300000004,
      "d": 550.4580000000424,
      "v": 127
    },
    {
      "midi": 70,
      "hit": false,
      "t": 294770.25900000037,
      "d": 80.27512500004377,
      "v": 127
    },
    {
      "midi": 62,
      "hit": false,
      "t": 295045.4880000004,
      "d": 1766.0527499999735,
      "v": 116
    },
    {
      "midi": 69,
      "hit": false,
      "t": 295045.4880000004,
      "d": 1775.2270499999868,
      "v": 108
    },
    {
      "midi": 74,
      "hit": false,
      "t": 295045.4880000004,
      "d": 1979.3552250000066,
      "v": 127
    },
    {
      "midi": 77,
      "hit": false,
      "t": 295056.9558750004,
      "d": 1846.3278750000172,
      "v": 127
    },
    {
      "midi": 50,
      "hit": false,
      "t": 295137.2310000004,
      "d": 1577.9796000000206,
      "v": 127
    },
    {
      "midi": 64,
      "hit": false,
      "t": 297247.3200000004,
      "d": 844.0356000000029,
      "v": 118
    },
    {
      "midi": 67,
      "hit": false,
      "t": 297247.3200000004,
      "d": 1261.4662499999977,
      "v": 118
    },
    {
      "midi": 72,
      "hit": false,
      "t": 297247.3200000004,
      "d": 1555.0438500000164,
      "v": 127
    },
    {
      "midi": 76,
      "hit": false,
      "t": 297247.3200000004,
      "d": 1607.7960750000202,
      "v": 127
    },
    {
      "midi": 55,
      "hit": false,
      "t": 297247.3200000004,
      "d": 2018.3460000000196,
      "v": 122
    },
    {
      "midi": 64,
      "hit": false,
      "t": 298348.23600000044,
      "d": 1016.0537250000052,
      "v": 104
    },
    {
      "midi": 72,
      "hit": false,
      "t": 298898.6940000004,
      "d": 456.42142500000773,
      "v": 127
    },
    {
      "midi": 76,
      "hit": false,
      "t": 299173.9230000004,
      "d": 183.48600000003353,
      "v": 127
    },
    {
      "midi": 64,
      "hit": false,
      "t": 299449.15200000047,
      "d": 883.0263750000158,
      "v": 127
    },
    {
      "midi": 76,
      "hit": false,
      "t": 299449.15200000047,
      "d": 1610.089650000038,
      "v": 127
    },
    {
      "midi": 72,
      "hit": false,
      "t": 299449.15200000047,
      "d": 1628.4382500000647,
      "v": 127
    },
    {
      "midi": 69,
      "hit": false,
      "t": 299449.15200000047,
      "d": 1642.1997000000556,
      "v": 127
    },
    {
      "midi": 57,
      "hit": false,
      "t": 299449.15200000047,
      "d": 1800.456375000067,
      "v": 127
    },
    {
      "midi": 64,
      "hit": false,
      "t": 300550.0680000005,
      "d": 722.4761250000447,
      "v": 104
    },
    {
      "midi": 69,
      "hit": false,
      "t": 301100.52600000054,
      "d": 245.41252499999246,
      "v": 127
    },
    {
      "midi": 72,
      "hit": false,
      "t": 301100.52600000054,
      "d": 396.7884750000085,
      "v": 127
    },
    {
      "midi": 76,
      "hit": false,
      "t": 301100.52600000054,
      "d": 431.19209999998566,
      "v": 127
    },
    {
      "midi": 77,
      "hit": false,
      "t": 301650.9840000005,
      "d": 1043.576624999987,
      "v": 127
    },
    {
      "midi": 74,
      "hit": false,
      "t": 301650.9840000005,
      "d": 1073.3930999999866,
      "v": 127
    },
    {
      "midi": 65,
      "hit": false,
      "t": 301650.9840000005,
      "d": 1869.2636249999632,
      "v": 127
    },
    {
      "midi": 62,
      "hit": false,
      "t": 301650.9840000005,
      "d": 1926.6029999999446,
      "v": 127
    },
    {
      "midi": 58,
      "hit": false,
      "t": 301650.9840000005,
      "d": 1938.0708749999176,
      "v": 127
    },
    {
      "midi": 77,
      "hit": false,
      "t": 302751.9000000005,
      "d": 967.8886499999207,
      "v": 127
    },
    {
      "midi": 74,
      "hit": false,
      "t": 302751.9000000005,
      "d": 1016.053724999947,
      "v": 127
    },
    {
      "midi": 69,
      "hit": false,
      "t": 303302.3580000005,
      "d": 357.7976999999373,
      "v": 127
    }
  ]
}