{
  "jsonPath": "Rock/Stockholm Indie/The Concretes/lovin-kind.json",
  "path": "Rock\\Stockholm Indie\\The Concretes\\Lovin Kind.mid",
  "name": "Lovin Kind",
  "difficulty": "Advanced",
  "bpm": 73.01010946649079,
  "notes": [
    {
      "midi": 64,
      "hit": false,
      "t": 6464.06028125,
      "d": 3202.533125,
      "v": 127
    },
    {
      "midi": 68,
      "hit": false,
      "t": 6464.06028125,
      "d": 3210.960843749999,
      "v": 127
    },
    {
      "midi": 59,
      "hit": false,
      "t": 6464.06028125,
      "d": 3430.08153125,
      "v": 123
    },
    {
      "midi": 52,
      "hit": false,
      "t": 6472.488,
      "d": 3767.1902812499984,
      "v": 126
    },
    {
      "midi": 64,
      "hit": false,
      "t": 9666.59340625,
      "d": 421.3859374999993,
      "v": 127
    },
    {
      "midi": 68,
      "hit": false,
      "t": 9675.021125,
      "d": 724.7838124999998,
      "v": 127
    },
    {
      "midi": 59,
      "hit": false,
      "t": 9894.1418125,
      "d": 421.3859374999993,
      "v": 85
    },
    {
      "midi": 64,
      "hit": false,
      "t": 10087.97934375,
      "d": 337.1087499999994,
      "v": 80
    },
    {
      "midi": 59,
      "hit": false,
      "t": 10315.52775,
      "d": 134.84349999999904,
      "v": 123
    },
    {
      "midi": 66,
      "hit": false,
      "t": 10315.52775,
      "d": 168.5543749999997,
      "v": 127
    },
    {
      "midi": 61,
      "hit": false,
      "t": 10939.178937499999,
      "d": 783.7778437500001,
      "v": 127
    },
    {
      "midi": 64,
      "hit": false,
      "t": 10939.178937499999,
      "d": 783.7778437500001,
      "v": 127
    },
    {
      "midi": 68,
      "hit": false,
      "t": 10939.178937499999,
      "d": 792.2055624999994,
      "v": 127
    },
    {
      "midi": 69,
      "hit": false,
      "t": 11714.5290625,
      "d": 640.5066249999982,
      "v": 127
    },
    {
      "midi": 64,
      "hit": false,
      "t": 11722.956781249999,
      "d": 598.3680312500001,
      "v": 127
    },
    {
      "midi": 61,
      "hit": false,
      "t": 11722.956781249999,
      "d": 615.2234687499986,
      "v": 123
    },
    {
      "midi": 64,
      "hit": false,
      "t": 12321.3248125,
      "d": 615.2234687499986,
      "v": 127
    },
    {
      "midi": 68,
      "hit": false,
      "t": 12329.752531249998,
      "d": 589.940312499999,
      "v": 127
    },
    {
      "midi": 59,
      "hit": false,
      "t": 12338.180249999998,
      "d": 606.7957499999993,
      "v": 117
    },
    {
      "midi": 64,
      "hit": false,
      "t": 12936.548281249998,
      "d": 3244.6717187500017,
      "v": 120
    },
    {
      "midi": 59,
      "hit": false,
      "t": 12944.975999999997,
      "d": 185.40981250000004,
      "v": 120
    },
    {
      "midi": 57,
      "hit": false,
      "t": 12944.975999999997,
      "d": 2621.02053125,
      "v": 126
    },
    {
      "midi": 61,
      "hit": false,
      "t": 12944.975999999997,
      "d": 3017.1233125000017,
      "v": 106
    },
    {
      "midi": 45,
      "hit": false,
      "t": 12953.403718749996,
      "d": 3362.659781250002,
      "v": 117
    },
    {
      "midi": 57,
      "hit": false,
      "t": 15565.996531249997,
      "d": 615.2234687500022,
      "v": 85
    },
    {
      "midi": 59,
      "hit": false,
      "t": 15785.117218749998,
      "d": 412.95821875,
      "v": 117
    },
    {
      "midi": 61,
      "hit": false,
      "t": 15962.099312499999,
      "d": 202.26525000000038,
      "v": 103
    },
    {
      "midi": 61,
      "hit": false,
      "t": 16164.364562499999,
      "d": 1887.809000000001,
      "v": 72
    },
    {
      "midi": 57,
      "hit": false,
      "t": 16181.22,
      "d": 1862.5258437499997,
      "v": 100
    },
    {
      "midi": 64,
      "hit": false,
      "t": 16181.22,
      "d": 1887.8089999999993,
      "v": 113
    },
    {
      "midi": 47,
      "hit": false,
      "t": 16189.647718749999,
      "d": 3910.4615000000013,
      "v": 120
    },
    {
      "midi": 66,
      "hit": false,
      "t": 17774.058843749997,
      "d": 1938.375312500004,
      "v": 100
    },
    {
      "midi": 63,
      "hit": false,
      "t": 17774.058843749997,
      "d": 1963.6584687500035,
      "v": 120
    },
    {
      "midi": 59,
      "hit": false,
      "t": 17782.4865625,
      "d": 1643.4051562500026,
      "v": 96
    },
    {
      "midi": 64,
      "hit": false,
      "t": 19417.464,
      "d": 3219.3885625000003,
      "v": 127
    },
    {
      "midi": 68,
      "hit": false,
      "t": 19417.464,
      "d": 3219.3885625000003,
      "v": 127
    },
    {
      "midi": 52,
      "hit": false,
      "t": 19417.464,
      "d": 3927.3169375000034,
      "v": 127
    },
    {
      "midi": 59,
      "hit": false,
      "t": 19425.89171875,
      "d": 3438.509250000003,
      "v": 123
    },
    {
      "midi": 64,
      "hit": false,
      "t": 22636.8525625,
      "d": 404.5305000000044,
      "v": 127
    },
    {
      "midi": 68,
      "hit": false,
      "t": 22636.8525625,
      "d": 741.6392500000038,
      "v": 127
    },
    {
      "midi": 66,
      "hit": false,
      "t": 22645.28028125,
      "d": 42.138593750001746,
      "v": 111
    },
    {
      "midi": 49,
      "hit": false,
      "t": 22645.28028125,
      "d": 345.53646875000413,
      "v": 106
    },
    {
      "midi": 59,
      "hit": false,
      "t": 22864.400968750004,
      "d": 396.1027812499997,
      "v": 96
    },
    {
      "midi": 64,
      "hit": false,
      "t": 23041.383062500005,
      "d": 345.5364687500005,
      "v": 78
    },
    {
      "midi": 59,
      "hit": false,
      "t": 23260.503750000003,
      "d": 176.9820937500008,
      "v": 113
    },
    {
      "midi": 66,
      "hit": false,
      "t": 23260.503750000003,
      "d": 202.26525000000038,
      "v": 127
    },
    {
      "midi": 68,
      "hit": false,
      "t": 23875.727218750006,
      "d": 876.4827500000029,
      "v": 127
    },
    {
      "midi": 61,
      "hit": false,
      "t": 23884.154937500007,
      "d": 809.0610000000015,
      "v": 126
    },
    {
      "midi": 64,
      "hit": false,
      "t": 23884.154937500007,
      "d": 809.0610000000015,
      "v": 127
    },
    {
      "midi": 61,
      "hit": false,
      "t": 24693.21593750001,
      "d": 581.5125937500015,
      "v": 127
    },
    {
      "midi": 64,
      "hit": false,
      "t": 24693.21593750001,
      "d": 581.5125937500015,
      "v": 127
    },
    {
      "midi": 69,
      "hit": false,
      "t": 24693.21593750001,
      "d": 615.2234687500022,
      "v": 127
    },
    {
      "midi": 64,
      "hit": false,
      "t": 25274.72853125001,
      "d": 581.5125937500015,
      "v": 127
    },
    {
      "midi": 68,
      "hit": false,
      "t": 25283.15625000001,
      "d": 573.0848750000005,
      "v": 127
    },
    {
      "midi": 59,
      "hit": false,
      "t": 25283.15625000001,
      "d": 581.5125937500015,
      "v": 108
    },
    {
      "midi": 61,
      "hit": false,
      "t": 25873.096562500014,
      "d": 3067.6896250000027,
      "v": 127
    },
    {
      "midi": 64,
      "hit": false,
      "t": 25873.096562500014,
      "d": 3269.954875000003,
      "v": 127
    },
    {
      "midi": 57,
      "hit": false,
      "t": 25881.524281250015,
      "d": 2663.159125000002,
      "v": 127
    },
    {
      "midi": 45,
      "hit": false,
      "t": 25889.952000000016,
      "d": 3438.509250000003,
      "v": 120
    },
    {
      "midi": 57,
      "hit": false,
      "t": 28544.683406250017,
      "d": 606.7957500000011,
      "v": 113
    },
    {
      "midi": 59,
      "hit": false,
      "t": 28746.948656250017,
      "d": 396.1027812499997,
      "v": 126
    },
    {
      "midi": 61,
      "hit": false,
      "t": 28940.786187500016,
      "d": 193.8375312499993,
      "v": 127
    },
    {
      "midi": 61,
      "hit": false,
      "t": 29134.623718750016,
      "d": 1862.5258437500052,
      "v": 77
    },
    {
      "midi": 64,
      "hit": false,
      "t": 29143.051437500017,
      "d": 1887.809000000001,
      "v": 120
    },
    {
      "midi": 57,
      "hit": false,
      "t": 29151.479156250018,
      "d": 1862.5258437500015,
      "v": 111
    },
    {
      "midi": 47,
      "hit": false,
      "t": 29151.479156250018,
      "d": 3868.322906249996,
      "v": 113
    },
    {
      "midi": 63,
      "hit": false,
      "t": 30719.034843750018,
      "d": 1938.3753125000003,
      "v": 106
    },
    {
      "midi": 66,
      "hit": false,
      "t": 30719.034843750018,
      "d": 1955.2307499999988,
      "v": 89
    },
    {
      "midi": 59,
      "hit": false,
      "t": 30727.46256250002,
      "d": 1634.977437499998,
      "v": 46
    },
    {
      "midi": 68,
      "hit": false,
      "t": 32362.440000000017,
      "d": 2840.1412187499955,
      "v": 117
    },
    {
      "midi": 59,
      "hit": false,
      "t": 32362.440000000017,
      "d": 3033.9787499999948,
      "v": 100
    },
    {
      "midi": 64,
      "hit": false,
      "t": 32362.440000000017,
      "d": 3253.0994374999937,
      "v": 120
    },
    {
      "midi": 52,
      "hit": false,
      "t": 32370.867718750018,
      "d": 3986.3109687499928,
      "v": 123
    },
    {
      "midi": 68,
      "hit": false,
      "t": 35202.58121875001,
      "d": 699.5006562499984,
      "v": 127
    },
    {
      "midi": 59,
      "hit": false,
      "t": 35396.41875000001,
      "d": 514.0908437499966,
      "v": 89
    },
    {
      "midi": 64,
      "hit": false,
      "t": 35615.53943750001,
      "d": 2806.4303437499984,
      "v": 108
    },
    {
      "midi": 57,
      "hit": false,
      "t": 35615.53943750001,
      "d": 3000.2678749999977,
      "v": 113
    },
    {
      "midi": 61,
      "hit": false,
      "t": 35615.53943750001,
      "d": 3531.2141562499964,
      "v": 113
    },
    {
      "midi": 64,
      "hit": false,
      "t": 38421.96978125001,
      "d": 691.072937500001,
      "v": 127
    },
    {
      "midi": 57,
      "hit": false,
      "t": 38615.80731250001,
      "d": 497.2354062500017,
      "v": 80
    },
    {
      "midi": 63,
      "hit": false,
      "t": 38834.92800000001,
      "d": 2848.5689375,
      "v": 113
    },
    {
      "midi": 59,
      "hit": false,
      "t": 38834.92800000001,
      "d": 3261.5271562499984,
      "v": 111
    },
    {
      "midi": 54,
      "hit": false,
      "t": 38851.78343750001,
      "d": 3008.695593749995,
      "v": 120
    },
    {
      "midi": 66,
      "hit": false,
      "t": 41489.65940625001,
      "d": 733.2115312499955,
      "v": 123
    },
    {
      "midi": 63,
      "hit": false,
      "t": 41683.49693750001,
      "d": 657.3620624999967,
      "v": 91
    },
    {
      "midi": 54,
      "hit": false,
      "t": 41860.479031250004,
      "d": 353.9641875000016,
      "v": 62
    },
    {
      "midi": 56,
      "hit": false,
      "t": 42079.59971875,
      "d": 1963.6584687499999,
      "v": 98
    },
    {
      "midi": 59,
      "hit": false,
      "t": 42096.455156250006,
      "d": 1955.2307499999952,
      "v": 111
    },
    {
      "midi": 52,
      "hit": false,
      "t": 42096.455156250006,
      "d": 3615.4913437499854,
      "v": 100
    },
    {
      "midi": 69,
      "hit": false,
      "t": 44102.25221875,
      "d": 876.4827499999883,
      "v": 127
    },
    {
      "midi": 68,
      "hit": false,
      "t": 44296.08975,
      "d": 606.7957499999902,
      "v": 85
    },
    {
      "midi": 64,
      "hit": false,
      "t": 44506.78271875,
      "d": 328.6810312499947,
      "v": 103
    },
    {
      "midi": 59,
      "hit": false,
      "t": 44683.7648125,
      "d": 699.5006562499912,
      "v": 58
    },
    {
      "midi": 63,
      "hit": false,
      "t": 44894.45778124999,
      "d": 438.2413749999978,
      "v": 127
    },
    {
      "midi": 51,
      "hit": false,
      "t": 44928.16865624999,
      "d": 438.2413749999978,
      "v": 96
    },
    {
      "midi": 64,
      "hit": false,
      "t": 45088.29531249999,
      "d": 210.69296875000146,
      "v": 85
    },
    {
      "midi": 64,
      "hit": false,
      "t": 45315.843718749995,
      "d": 2823.2857812499933,
      "v": 111
    },
    {
      "midi": 68,
      "hit": false,
      "t": 45324.27143749999,
      "d": 3008.695593749995,
      "v": 127
    },
    {
      "midi": 61,
      "hit": false,
      "t": 45324.27143749999,
      "d": 3261.527156249991,
      "v": 100
    },
    {
      "midi": 49,
      "hit": false,
      "t": 45324.27143749999,
      "d": 3750.334843749988,
      "v": 103
    },
    {
      "midi": 71,
      "hit": false,
      "t": 48139.12949999999,
      "d": 429.81365625000035,
      "v": 126
    },
    {
      "midi": 64,
      "hit": false,
      "t": 48139.12949999999,
      "d": 438.2413749999978,
      "v": 96
    },
    {
      "midi": 68,
      "hit": false,
      "t": 48332.96703124999,
      "d": 598.3680312499928,
      "v": 71
    },
    {
      "midi": 64,
      "hit": false,
      "t": 48577.370874999986,
      "d": 3210.960843749992,
      "v": 117
    },
    {
      "midi": 57,
      "hit": false,
      "t": 48585.79859374998,
      "d": 2595.737374999997,
      "v": 123
    },
    {
      "midi": 61,
      "hit": false,
      "t": 48585.79859374998,
      "d": 2798.0026249999937,
      "v": 120
    },
    {
      "midi": 57,
      "hit": false,
      "t": 51181.53596874998,
      "d": 615.2234687499949,
      "v": 75
    },
    {
      "midi": 61,
      "hit": false,
      "t": 51383.80121874998,
      "d": 412.9582187499982,
      "v": 120
    },
    {
      "midi": 63,
      "hit": false,
      "t": 51577.63874999998,
      "d": 185.40981250000186,
      "v": 127
    },
    {
      "midi": 64,
      "hit": false,
      "t": 51788.33171874998,
      "d": 4045.304999999993,
      "v": 126
    },
    {
      "midi": 57,
      "hit": false,
      "t": 51796.759437499975,
      "d": 3219.3885624999966,
      "v": 123
    },
    {
      "midi": 61,
      "hit": false,
      "t": 51796.759437499975,
      "d": 3219.3885624999966,
      "v": 126
    },
    {
      "midi": 45,
      "hit": false,
      "t": 51796.759437499975,
      "d": 3354.232062499992,
      "v": 113
    },
    {
      "midi": 61,
      "hit": false,
      "t": 55016.14799999997,
      "d": 2848.5689375,
      "v": 120
    },
    {
      "midi": 57,
      "hit": false,
      "t": 55016.14799999997,
      "d": 3295.2380312499954,
      "v": 113
    },
    {
      "midi": 66,
      "hit": false,
      "t": 55016.14799999997,
      "d": 3809.3288749999992,
      "v": 123
    },
    {
      "midi": 47,
      "hit": false,
      "t": 55024.57571874997,
      "d": 3986.3109687500037,
      "v": 108
    },
    {
      "midi": 59,
      "hit": false,
      "t": 57679.30712499997,
      "d": 573.0848750000005,
      "v": 72
    },
    {
      "midi": 61,
      "hit": false,
      "t": 57864.71693749997,
      "d": 488.807687499997,
      "v": 78
    },
    {
      "midi": 64,
      "hit": false,
      "t": 58058.55446874997,
      "d": 193.8375312499993,
      "v": 67
    },
    {
      "midi": 68,
      "hit": false,
      "t": 58252.39199999997,
      "d": 2840.1412187500027,
      "v": 123
    },
    {
      "midi": 59,
      "hit": false,
      "t": 58252.39199999997,
      "d": 3042.4064687499995,
      "v": 111
    },
    {
      "midi": 64,
      "hit": false,
      "t": 58252.39199999997,
      "d": 3244.671718749996,
      "v": 123
    },
    {
      "midi": 52,
      "hit": false,
      "t": 58252.39199999997,
      "d": 4138.009906249994,
      "v": 106
    },
    {
      "midi": 68,
      "hit": false,
      "t": 61092.53321874997,
      "d": 674.2174999999916,
      "v": 127
    },
    {
      "midi": 59,
      "hit": false,
      "t": 61294.79846874997,
      "d": 497.2354062499944,
      "v": 75
    },
    {
      "midi": 64,
      "hit": false,
      "t": 61497.06371874997,
      "d": 3649.202218749997,
      "v": 120
    },
    {
      "midi": 57,
      "hit": false,
      "t": 61505.491437499964,
      "d": 3640.7744999999995,
      "v": 117
    },
    {
      "midi": 61,
      "hit": false,
      "t": 61505.491437499964,
      "d": 3649.202218749997,
      "v": 123
    },
    {
      "midi": 63,
      "hit": false,
      "t": 64741.73543749996,
      "d": 2604.1650937500017,
      "v": 127
    },
    {
      "midi": 59,
      "hit": false,
      "t": 64741.73543749996,
      "d": 2831.7135000000053,
      "v": 126
    },
    {
      "midi": 54,
      "hit": false,
      "t": 64741.73543749996,
      "d": 3000.2678750000123,
      "v": 127
    },
    {
      "midi": 63,
      "hit": false,
      "t": 67345.90053124996,
      "d": 615.2234687500168,
      "v": 127
    },
    {
      "midi": 59,
      "hit": false,
      "t": 67573.44893749997,
      "d": 387.67506250001315,
      "v": 45
    },
    {
      "midi": 54,
      "hit": false,
      "t": 67742.00331249998,
      "d": 219.12068750000617,
      "v": 75
    },
    {
      "midi": 56,
      "hit": false,
      "t": 67961.12399999998,
      "d": 2157.495999999999,
      "v": 127
    },
    {
      "midi": 59,
      "hit": false,
      "t": 67961.12399999998,
      "d": 2199.634593750001,
      "v": 117
    },
    {
      "midi": 52,
      "hit": false,
      "t": 67961.12399999998,
      "d": 3076.117343750011,
      "v": 120
    },
    {
      "midi": 69,
      "hit": false,
      "t": 70194.46946874999,
      "d": 1045.0371250000026,
      "v": 127
    },
    {
      "midi": 68,
      "hit": false,
      "t": 70379.87928124999,
      "d": 724.783812499998,
      "v": 111
    },
    {
      "midi": 64,
      "hit": false,
      "t": 70582.14453124999,
      "d": 362.3919062500063,
      "v": 91
    },
    {
      "midi": 59,
      "hit": false,
      "t": 70775.98206249998,
      "d": 429.81365625000035,
      "v": 80
    },
    {
      "midi": 63,
      "hit": false,
      "t": 70986.67503125,
      "d": 168.55437499999243,
      "v": 100
    },
    {
      "midi": 51,
      "hit": false,
      "t": 71028.813625,
      "d": 134.84349999998813,
      "v": 67
    },
    {
      "midi": 52,
      "hit": false,
      "t": 71037.24134374999,
      "d": 564.657156250003,
      "v": 69
    },
    {
      "midi": 68,
      "hit": false,
      "t": 71205.79571874999,
      "d": 2814.858062500003,
      "v": 127
    },
    {
      "midi": 64,
      "hit": false,
      "t": 71214.22343749998,
      "d": 2604.165093750009,
      "v": 117
    },
    {
      "midi": 61,
      "hit": false,
      "t": 71214.22343749998,
      "d": 3210.960843749999,
      "v": 106
    },
    {
      "midi": 49,
      "hit": false,
      "t": 71239.50659374999,
      "d": 3539.6418749999866,
      "v": 108
    },
    {
      "midi": 64,
      "hit": false,
      "t": 73818.38853124999,
      "d": 606.7957499999902,
      "v": 67
    },
    {
      "midi": 71,
      "hit": false,
      "t": 73835.24396874999,
      "d": 564.6571562499885,
      "v": 127
    },
    {
      "midi": 68,
      "hit": false,
      "t": 74020.65378124999,
      "d": 522.5185624999867,
      "v": 96
    },
    {
      "midi": 59,
      "hit": false,
      "t": 74214.49131249999,
      "d": 117.98806249999325,
      "v": 77
    },
    {
      "midi": 57,
      "hit": false,
      "t": 74425.18428124998,
      "d": 2629.4482500000013,
      "v": 111
    },
    {
      "midi": 61,
      "hit": false,
      "t": 74425.18428124998,
      "d": 2840.1412187499955,
      "v": 111
    },
    {
      "midi": 64,
      "hit": false,
      "t": 74425.18428124998,
      "d": 3236.244000000006,
      "v": 103
    },
    {
      "midi": 57,
      "hit": false,
      "t": 77054.63253124998,
      "d": 412.9582187499909,
      "v": 108
    },
    {
      "midi": 61,
      "hit": false,
      "t": 77265.32549999998,
      "d": 387.67506250001315,
      "v": 127
    },
    {
      "midi": 63,
      "hit": false,
      "t": 77450.73531249998,
      "d": 176.98209375000442,
      "v": 127
    },
    {
      "midi": 57,
      "hit": false,
      "t": 77467.59074999997,
      "d": 134.84350000000268,
      "v": 60
    },
    {
      "midi": 57,
      "hit": false,
      "t": 77661.42828124999,
      "d": 3674.4853749999893,
      "v": 123
    },
    {
      "midi": 61,
      "hit": false,
      "t": 77661.42828124999,
      "d": 3708.1962499999936,
      "v": 127
    },
    {
      "midi": 64,
      "hit": false,
      "t": 77661.42828124999,
      "d": 3716.623968749991,
      "v": 120
    },
    {
      "midi": 45,
      "hit": false,
      "t": 77678.28371874998,
      "d": 3219.3885624999966,
      "v": 117
    },
    {
      "midi": 63,
      "hit": false,
      "t": 80897.67228124998,
      "d": 1938.375312499993,
      "v": 127
    },
    {
      "midi": 66,
      "hit": false,
      "t": 80906.09999999998,
      "d": 1618.122000000003,
      "v": 127
    },
    {
      "midi": 59,
      "hit": false,
      "t": 80906.09999999998,
      "d": 1921.5198749999981,
      "v": 120
    },
    {
      "midi": 47,
      "hit": false,
      "t": 80906.09999999998,
      "d": 1963.6584687499999,
      "v": 106
    },
    {
      "midi": 66,
      "hit": false,
      "t": 82524.22199999998,
      "d": 766.9224062499852,
      "v": 127
    },
    {
      "midi": 61,
      "hit": false,
      "t": 82726.48724999998,
      "d": 294.9701562499977,
      "v": 91
    },
    {
      "midi": 57,
      "hit": false,
      "t": 82911.89706249998,
      "d": 952.3322187499725,
      "v": 96
    },
    {
      "midi": 61,
      "hit": false,
      "t": 83139.44546874997,
      "d": 606.7957499999902,
      "v": 127
    },
    {
      "midi": 63,
      "hit": false,
      "t": 83307.99984374996,
      "d": 438.2413749999978,
      "v": 103
    },
    {
      "midi": 64,
      "hit": false,
      "t": 83501.83737499996,
      "d": 235.97612500000105,
      "v": 103
    },
    {
      "midi": 66,
      "hit": false,
      "t": 83737.81349999996,
      "d": 387.6750624999986,
      "v": 127
    },
    {
      "midi": 59,
      "hit": false,
      "t": 83948.50646874995,
      "d": 134.84350000000268,
      "v": 108
    },
    {
      "midi": 71,
      "hit": false,
      "t": 84159.19943749996,
      "d": 1845.670406249992,
      "v": 127
    },
    {
      "midi": 59,
      "hit": false,
      "t": 84167.62715624996,
      "d": 1584.4111249999987,
      "v": 113
    },
    {
      "midi": 68,
      "hit": false,
      "t": 84167.62715624996,
      "d": 1837.2426874999946,
      "v": 127
    },
    {
      "midi": 64,
      "hit": false,
      "t": 84167.62715624996,
      "d": 1862.525843749987,
      "v": 127
    },
    {
      "midi": 52,
      "hit": false,
      "t": 84176.05487499996,
      "d": 1837.2426874999946,
      "v": 127
    },
    {
      "midi": 66,
      "hit": false,
      "t": 85743.61056249996,
      "d": 1845.670406249992,
      "v": 127
    },
    {
      "midi": 63,
      "hit": false,
      "t": 85743.61056249996,
      "d": 1854.0981249999895,
      "v": 127
    },
    {
      "midi": 59,
      "hit": false,
      "t": 85752.03828124996,
      "d": 1811.9595312499878,
      "v": 126
    },
    {
      "midi": 61,
      "hit": false,
      "t": 87353.30484374995,
      "d": 3244.6717187500035,
      "v": 127
    },
    {
      "midi": 64,
      "hit": false,
      "t": 87353.30484374995,
      "d": 3244.6717187500035,
      "v": 123
    },
    {
      "midi": 56,
      "hit": false,
      "t": 87361.73256249995,
      "d": 4011.5941250000033,
      "v": 127
    },
    {
      "midi": 64,
      "hit": false,
      "t": 90597.97656249996,
      "d": 3219.3885624999966,
      "v": 123
    },
    {
      "midi": 61,
      "hit": false,
      "t": 90597.97656249996,
      "d": 3977.8832499999844,
      "v": 123
    },
    {
      "midi": 57,
      "hit": false,
      "t": 90597.97656249996,
      "d": 4003.1664062499913,
      "v": 120
    },
    {
      "midi": 64,
      "hit": false,
      "t": 93817.36512499995,
      "d": 1643.4051562499953,
      "v": 127
    },
    {
      "midi": 59,
      "hit": false,
      "t": 93825.79284374995,
      "d": 1854.0981249999895,
      "v": 127
    },
    {
      "midi": 68,
      "hit": false,
      "t": 93825.79284374995,
      "d": 1921.5198749999836,
      "v": 126
    },
    {
      "midi": 56,
      "hit": false,
      "t": 93834.22056249995,
      "d": 1795.104093749993,
      "v": 126
    },
    {
      "midi": 64,
      "hit": false,
      "t": 95460.77028124995,
      "d": 1457.9953437499935,
      "v": 127
    },
    {
      "midi": 57,
      "hit": false,
      "t": 95469.19799999995,
      "d": 1415.8567499999917,
      "v": 127
    },
    {
      "midi": 61,
      "hit": false,
      "t": 95469.19799999995,
      "d": 1424.2844687499892,
      "v": 127
    },
    {
      "midi": 47,
      "hit": false,
      "t": 95477.62571874994,
      "d": 1963.6584687499999,
      "v": 113
    },
    {
      "midi": 54,
      "hit": false,
      "t": 96505.80740624994,
      "d": 665.7897812500014,
      "v": 127
    },
    {
      "midi": 59,
      "hit": false,
      "t": 96699.64493749994,
      "d": 370.8196250000037,
      "v": 126
    },
    {
      "midi": 66,
      "hit": false,
      "t": 96885.05474999994,
      "d": 168.55437500000698,
      "v": 123
    },
    {
      "midi": 64,
      "hit": false,
      "t": 97104.17543749994,
      "d": 1887.8089999999938,
      "v": 127
    },
    {
      "midi": 68,
      "hit": false,
      "t": 97104.17543749994,
      "d": 1887.8089999999938,
      "v": 127
    },
    {
      "midi": 59,
      "hit": false,
      "t": 97112.60315624994,
      "d": 1584.4111249999987,
      "v": 126
    },
    {
      "midi": 52,
      "hit": false,
      "t": 97129.45859374994,
      "d": 1584.4111249999987,
      "v": 123
    },
    {
      "midi": 66,
      "hit": false,
      "t": 98688.58656249994,
      "d": 1879.3812812499964,
      "v": 117
    },
    {
      "midi": 63,
      "hit": false,
      "t": 98688.58656249994,
      "d": 1887.8089999999938,
      "v": 127
    },
    {
      "midi": 59,
      "hit": false,
      "t": 98697.01428124994,
      "d": 1828.8149687499972,
      "v": 117
    },
    {
      "midi": 61,
      "hit": false,
      "t": 100315.13628124994,
      "d": 3236.2439999999915,
      "v": 127
    },
    {
      "midi": 64,
      "hit": false,
      "t": 100315.13628124994,
      "d": 3244.671718749989,
      "v": 127
    },
    {
      "midi": 56,
      "hit": false,
      "t": 100323.56399999994,
      "d": 3733.479406249986,
      "v": 127
    },
    {
      "midi": 61,
      "hit": false,
      "t": 103551.38028124993,
      "d": 3590.208187499986,
      "v": 123
    },
    {
      "midi": 57,
      "hit": false,
      "t": 103559.80799999993,
      "d": 3564.9250312499935,
      "v": 127
    },
    {
      "midi": 64,
      "hit": false,
      "t": 103559.80799999993,
      "d": 3623.91906249999,
      "v": 123
    },
    {
      "midi": 59,
      "hit": false,
      "t": 106787.62428124993,
      "d": 3834.612031249999,
      "v": 126
    },
    {
      "midi": 63,
      "hit": false,
      "t": 106787.62428124993,
      "d": 3868.322906250003,
      "v": 127
    },
    {
      "midi": 66,
      "hit": false,
      "t": 106787.62428124993,
      "d": 3986.3109687499964,
      "v": 123
    },
    {
      "midi": 64,
      "hit": false,
      "t": 110040.72371874993,
      "d": 3210.960843749999,
      "v": 126
    },
    {
      "midi": 61,
      "hit": false,
      "t": 110049.15143749992,
      "d": 3210.960843749999,
      "v": 127
    },
    {
      "midi": 57,
      "hit": false,
      "t": 110049.15143749992,
      "d": 3986.3109687499964,
      "v": 127
    },
    {
      "midi": 64,
      "hit": false,
      "t": 113251.68456249993,
      "d": 2637.875968749984,
      "v": 127
    },
    {
      "midi": 61,
      "hit": false,
      "t": 113260.11228124992,
      "d": 2435.6107187499874,
      "v": 126
    },
    {
      "midi": 68,
      "hit": false,
      "t": 113260.11228124992,
      "d": 2991.840156249993,
      "v": 127
    },
    {
      "midi": 47,
      "hit": false,
      "t": 113260.11228124992,
      "d": 3784.0457187499997,
      "v": 117
    },
    {
      "midi": 57,
      "hit": false,
      "t": 115485.03003124992,
      "d": 1104.0311562499992,
      "v": 123
    },
    {
      "midi": 61,
      "hit": false,
      "t": 115695.72299999991,
      "d": 362.3919062500063,
      "v": 113
    },
    {
      "midi": 64,
      "hit": false,
      "t": 115889.56053124991,
      "d": 615.2234687500168,
      "v": 127
    },
    {
      "midi": 63,
      "hit": false,
      "t": 116091.82578124992,
      "d": 429.81365625000035,
      "v": 111
    },
    {
      "midi": 61,
      "hit": false,
      "t": 116302.51874999992,
      "d": 168.55437500000698,
      "v": 70
    },
    {
      "midi": 68,
      "hit": false,
      "t": 116504.78399999993,
      "d": 2840.1412187499955,
      "v": 117
    },
    {
      "midi": 59,
      "hit": false,
      "t": 116504.78399999993,
      "d": 3033.9787499999948,
      "v": 100
    },
    {
      "midi": 64,
      "hit": false,
      "t": 116504.78399999993,
      "d": 3253.099437500001,
      "v": 120
    },
    {
      "midi": 52,
      "hit": false,
      "t": 116513.21171874992,
      "d": 3986.3109687499964,
      "v": 123
    },
    {
      "midi": 68,
      "hit": false,
      "t": 119344.92521874992,
      "d": 707.9283750000031,
      "v": 127
    },
    {
      "midi": 59,
      "hit": false,
      "t": 119538.76274999992,
      "d": 514.0908437500038,
      "v": 89
    },
    {
      "midi": 64,
      "hit": false,
      "t": 119757.88343749993,
      "d": 2806.430343749991,
      "v": 108
    },
    {
      "midi": 57,
      "hit": false,
      "t": 119757.88343749993,
      "d": 3000.2678749999905,
      "v": 113
    },
    {
      "midi": 61,
      "hit": false,
      "t": 119757.88343749993,
      "d": 3531.214156249989,
      "v": 113
    },
    {
      "midi": 64,
      "hit": false,
      "t": 122564.31378124992,
      "d": 691.0729374999937,
      "v": 127
    },
    {
      "midi": 57,
      "hit": false,
      "t": 122758.15131249992,
      "d": 497.2354062499944,
      "v": 80
    },
    {
      "midi": 63,
      "hit": false,
      "t": 122977.27199999992,
      "d": 2848.568937499993,
      "v": 113
    },
    {
      "midi": 59,
      "hit": false,
      "t": 122977.27199999992,
      "d": 3261.5271562499984,
      "v": 111
    },
    {
      "midi": 54,
      "hit": false,
      "t": 122994.12743749992,
      "d": 3008.6955937500024,
      "v": 120
    },
    {
      "midi": 66,
      "hit": false,
      "t": 125632.00340624992,
      "d": 741.6392499999929,
      "v": 123
    },
    {
      "midi": 63,
      "hit": false,
      "t": 125825.84093749992,
      "d": 665.7897812499868,
      "v": 91
    },
    {
      "midi": 54,
      "hit": false,
      "t": 126002.82303124992,
      "d": 353.9641874999943,
      "v": 62
    },
    {
      "midi": 56,
      "hit": false,
      "t": 126221.94371874993,
      "d": 1963.6584687499708,
      "v": 98
    },
    {
      "midi": 59,
      "hit": false,
      "t": 126238.79915624992,
      "d": 1955.2307499999733,
      "v": 111
    },
    {
      "midi": 52,
      "hit": false,
      "t": 126238.79915624992,
      "d": 3615.4913437499636,
      "v": 100
    },
    {
      "midi": 69,
      "hit": false,
      "t": 128244.5962187499,
      "d": 884.910468749993,
      "v": 127
    },
    {
      "midi": 68,
      "hit": false,
      "t": 128438.4337499999,
      "d": 606.7957499999902,
      "v": 85
    },
    {
      "midi": 64,
      "hit": false,
      "t": 128649.12671874989,
      "d": 337.1087499999994,
      "v": 103
    },
    {
      "midi": 59,
      "hit": false,
      "t": 128826.1088124999,
      "d": 699.5006562499912,
      "v": 58
    },
    {
      "midi": 63,
      "hit": false,
      "t": 129036.80178124989,
      "d": 438.24137499998324,
      "v": 127
    },
    {
      "midi": 51,
      "hit": false,
      "t": 129070.51265624989,
      "d": 429.8136562499858,
      "v": 96
    },
    {
      "midi": 64,
      "hit": false,
      "t": 129230.63931249989,
      "d": 210.69296874999418,
      "v": 85
    },
    {
      "midi": 64,
      "hit": false,
      "t": 129458.18771874988,
      "d": 2823.2857812500006,
      "v": 111
    },
    {
      "midi": 68,
      "hit": false,
      "t": 129466.61543749987,
      "d": 3008.6955937500024,
      "v": 127
    },
    {
      "midi": 61,
      "hit": false,
      "t": 129466.61543749987,
      "d": 3261.527156250013,
      "v": 100
    },
    {
      "midi": 49,
      "hit": false,
      "t": 129466.61543749987,
      "d": 3741.9071250000125,
      "v": 103
    },
    {
      "midi": 64,
      "hit": false,
      "t": 132281.47349999988,
      "d": 438.24137500001234,
      "v": 96
    },
    {
      "midi": 71,
      "hit": false,
      "t": 132281.47349999988,
      "d": 438.24137500001234,
      "v": 126
    },
    {
      "midi": 68,
      "hit": false,
      "t": 132475.31103124988,
      "d": 606.7957500000193,
      "v": 71
    },
    {
      "midi": 64,
      "hit": false,
      "t": 132719.7148749999,
      "d": 3210.9608437499846,
      "v": 117
    },
    {
      "midi": 57,
      "hit": false,
      "t": 132728.1425937499,
      "d": 2595.737374999997,
      "v": 123
    },
    {
      "midi": 61,
      "hit": false,
      "t": 132728.1425937499,
      "d": 2798.0026249999937,
      "v": 120
    },
    {
      "midi": 57,
      "hit": false,
      "t": 135323.87996874988,
      "d": 615.2234687499877,
      "v": 75
    },
    {
      "midi": 61,
      "hit": false,
      "t": 135526.14521874988,
      "d": 412.9582187499909,
      "v": 120
    },
    {
      "midi": 63,
      "hit": false,
      "t": 135719.98274999988,
      "d": 193.8375312499993,
      "v": 127
    },
    {
      "midi": 64,
      "hit": false,
      "t": 135930.67571874987,
      "d": 4053.7327187499905,
      "v": 126
    },
    {
      "midi": 57,
      "hit": false,
      "t": 135939.10343749987,
      "d": 3219.388562500011,
      "v": 123
    },
    {
      "midi": 61,
      "hit": false,
      "t": 135939.10343749987,
      "d": 3219.388562500011,
      "v": 126
    },
    {
      "midi": 45,
      "hit": false,
      "t": 135939.10343749987,
      "d": 3345.804343750002,
      "v": 113
    },
    {
      "midi": 61,
      "hit": false,
      "t": 139158.49199999988,
      "d": 2848.5689374999783,
      "v": 120
    },
    {
      "midi": 57,
      "hit": false,
      "t": 139158.49199999988,
      "d": 3295.238031249988,
      "v": 113
    },
    {
      "midi": 66,
      "hit": false,
      "t": 139158.49199999988,
      "d": 3809.3288749999774,
      "v": 123
    },
    {
      "midi": 47,
      "hit": false,
      "t": 139166.91971874988,
      "d": 3977.8832499999844,
      "v": 108
    },
    {
      "midi": 59,
      "hit": false,
      "t": 141821.65112499986,
      "d": 573.0848750000005,
      "v": 72
    },
    {
      "midi": 61,
      "hit": false,
      "t": 142007.06093749986,
      "d": 488.807687499997,
      "v": 78
    },
    {
      "midi": 64,
      "hit": false,
      "t": 142200.89846874986,
      "d": 193.8375312499993,
      "v": 67
    },
    {
      "midi": 68,
      "hit": false,
      "t": 142394.73599999986,
      "d": 2840.14121875001,
      "v": 123
    },
    {
      "midi": 59,
      "hit": false,
      "t": 142394.73599999986,
      "d": 3042.4064687500068,
      "v": 111
    },
    {
      "midi": 64,
      "hit": false,
      "t": 142394.73599999986,
      "d": 3244.6717187500035,
      "v": 123
    },
    {
      "midi": 52,
      "hit": false,
      "t": 142394.73599999986,
      "d": 4138.009906249994,
      "v": 106
    },
    {
      "midi": 68,
      "hit": false,
      "t": 145234.87721874987,
      "d": 674.2174999999988,
      "v": 127
    },
    {
      "midi": 59,
      "hit": false,
      "t": 145437.14246874987,
      "d": 497.2354062499944,
      "v": 75
    },
    {
      "midi": 64,
      "hit": false,
      "t": 145639.40771874986,
      "d": 3657.6299374999944,
      "v": 120
    },
    {
      "midi": 57,
      "hit": false,
      "t": 145647.83543749986,
      "d": 3640.7744999999995,
      "v": 117
    },
    {
      "midi": 61,
      "hit": false,
      "t": 145647.83543749986,
      "d": 3649.202218749997,
      "v": 123
    },
    {
      "midi": 63,
      "hit": false,
      "t": 148884.07943749987,
      "d": 2604.1650937499944,
      "v": 127
    },
    {
      "midi": 59,
      "hit": false,
      "t": 148884.07943749987,
      "d": 2831.7134999999835,
      "v": 126
    },
    {
      "midi": 54,
      "hit": false,
      "t": 148884.07943749987,
      "d": 3000.2678749999905,
      "v": 127
    },
    {
      "midi": 63,
      "hit": false,
      "t": 151488.24453124986,
      "d": 615.2234687499877,
      "v": 127
    },
    {
      "midi": 59,
      "hit": false,
      "t": 151715.79293749985,
      "d": 387.6750624999986,
      "v": 45
    },
    {
      "midi": 54,
      "hit": false,
      "t": 151884.34731249986,
      "d": 219.12068749999162,
      "v": 75
    },
    {
      "midi": 56,
      "hit": false,
      "t": 152103.46799999985,
      "d": 2157.4960000000137,
      "v": 127
    },
    {
      "midi": 59,
      "hit": false,
      "t": 152103.46799999985,
      "d": 2199.634593750001,
      "v": 117
    },
    {
      "midi": 52,
      "hit": false,
      "t": 152103.46799999985,
      "d": 3076.1173437499674,
      "v": 120
    },
    {
      "midi": 69,
      "hit": false,
      "t": 154336.81346874984,
      "d": 1053.4648437499418,
      "v": 127
    },
    {
      "midi": 68,
      "hit": false,
      "t": 154522.22328124984,
      "d": 733.2115312499809,
      "v": 111
    },
    {
      "midi": 64,
      "hit": false,
      "t": 154724.48853124984,
      "d": 370.8196250000037,
      "v": 91
    },
    {
      "midi": 59,
      "hit": false,
      "t": 154918.32606249984,
      "d": 429.8136562499567,
      "v": 80
    },
    {
      "midi": 63,
      "hit": false,
      "t": 155129.01903124983,
      "d": 168.55437499997788,
      "v": 100
    },
    {
      "midi": 51,
      "hit": false,
      "t": 155171.15762499982,
      "d": 134.84349999998813,
      "v": 67
    },
    {
      "midi": 52,
      "hit": false,
      "t": 155179.58534374982,
      "d": 556.2294374999765,
      "v": 69
    },
    {
      "midi": 68,
      "hit": false,
      "t": 155348.1397187498,
      "d": 2814.8580624999886,
      "v": 127
    },
    {
      "midi": 64,
      "hit": false,
      "t": 155356.5674374998,
      "d": 2604.1650937499944,
      "v": 117
    },
    {
      "midi": 61,
      "hit": false,
      "t": 155356.5674374998,
      "d": 3210.9608437499846,
      "v": 106
    },
    {
      "midi": 49,
      "hit": false,
      "t": 155381.85059374978,
      "d": 3531.2141562499746,
      "v": 108
    },
    {
      "midi": 64,
      "hit": false,
      "t": 157960.73253124979,
      "d": 606.7957499999902,
      "v": 67
    },
    {
      "midi": 71,
      "hit": false,
      "t": 157977.58796874978,
      "d": 573.0848750000005,
      "v": 127
    },
    {
      "midi": 68,
      "hit": false,
      "t": 158162.99778124978,
      "d": 522.5185624999867,
      "v": 96
    },
    {
      "midi": 59,
      "hit": false,
      "t": 158356.83531249978,
      "d": 117.98806249999325,
      "v": 77
    },
    {
      "midi": 57,
      "hit": false,
      "t": 158567.52828124978,
      "d": 2629.4482499999867,
      "v": 111
    },
    {
      "midi": 61,
      "hit": false,
      "t": 158567.52828124978,
      "d": 2840.141218749981,
      "v": 111
    },
    {
      "midi": 64,
      "hit": false,
      "t": 158567.52828124978,
      "d": 3236.243999999948,
      "v": 103
    },
    {
      "midi": 57,
      "hit": false,
      "t": 161196.97653124976,
      "d": 412.9582187499909,
      "v": 108
    },
    {
      "midi": 61,
      "hit": false,
      "t": 161407.66949999976,
      "d": 387.6750624999695,
      "v": 127
    },
    {
      "midi": 63,
      "hit": false,
      "t": 161593.07931249976,
      "d": 176.98209374997532,
      "v": 127
    },
    {
      "midi": 57,
      "hit": false,
      "t": 161609.93474999975,
      "d": 134.84349999998813,
      "v": 60
    },
    {
      "midi": 57,
      "hit": false,
      "t": 161803.77228124972,
      "d": 3674.4853749999893,
      "v": 123
    },
    {
      "midi": 61,
      "hit": false,
      "t": 161803.77228124972,
      "d": 3708.196249999979,
      "v": 127
    },
    {
      "midi": 64,
      "hit": false,
      "t": 161803.77228124972,
      "d": 3725.051687499974,
      "v": 120
    },
    {
      "midi": 45,
      "hit": false,
      "t": 161820.62771874972,
      "d": 3210.9608437500137,
      "v": 117
    },
    {
      "midi": 63,
      "hit": false,
      "t": 165040.01628124973,
      "d": 1946.8030312499614,
      "v": 127
    },
    {
      "midi": 66,
      "hit": false,
      "t": 165048.44399999973,
      "d": 1618.121999999974,
      "v": 127
    },
    {
      "midi": 59,
      "hit": false,
      "t": 165048.44399999973,
      "d": 1921.519874999969,
      "v": 120
    },
    {
      "midi": 47,
      "hit": false,
      "t": 165048.44399999973,
      "d": 1963.6584687499562,
      "v": 106
    },
    {
      "midi": 66,
      "hit": false,
      "t": 166666.5659999997,
      "d": 775.3501249999681,
      "v": 127
    },
    {
      "midi": 61,
      "hit": false,
      "t": 166868.8312499997,
      "d": 294.97015624996857,
      "v": 91
    },
    {
      "midi": 57,
      "hit": false,
      "t": 167054.24106249967,
      "d": 952.3322187499725,
      "v": 96
    },
    {
      "midi": 61,
      "hit": false,
      "t": 167281.78946874966,
      "d": 606.7957499999902,
      "v": 127
    },
    {
      "midi": 63,
      "hit": false,
      "t": 167450.34384374967,
      "d": 446.6690937499807,
      "v": 103
    },
    {
      "midi": 64,
      "hit": false,
      "t": 167644.18137499967,
      "d": 235.9761249999865,
      "v": 103
    },
    {
      "midi": 66,
      "hit": false,
      "t": 167880.15749999965,
      "d": 387.6750624999695,
      "v": 127
    },
    {
      "midi": 59,
      "hit": false,
      "t": 168090.85046874965,
      "d": 134.84349999998813,
      "v": 108
    },
    {
      "midi": 71,
      "hit": false,
      "t": 168301.5434374996,
      "d": 1854.0981249999895,
      "v": 127
    },
    {
      "midi": 59,
      "hit": false,
      "t": 168309.9711562496,
      "d": 1584.4111249999842,
      "v": 113
    },
    {
      "midi": 68,
      "hit": false,
      "t": 168309.9711562496,
      "d": 1837.2426874999946,
      "v": 127
    },
    {
      "midi": 64,
      "hit": false,
      "t": 168309.9711562496,
      "d": 1870.9535624999844,
      "v": 127
    },
    {
      "midi": 52,
      "hit": false,
      "t": 168318.3988749996,
      "d": 1837.2426874999946,
      "v": 127
    },
    {
      "midi": 66,
      "hit": false,
      "t": 169885.9545624996,
      "d": 1845.670406249992,
      "v": 127
    },
    {
      "midi": 63,
      "hit": false,
      "t": 169885.9545624996,
      "d": 1854.0981249999895,
      "v": 127
    },
    {
      "midi": 59,
      "hit": false,
      "t": 169894.3822812496,
      "d": 1811.9595312500023,
      "v": 126
    },
    {
      "midi": 61,
      "hit": false,
      "t": 171495.6488437496,
      "d": 3244.6717187499744,
      "v": 127
    },
    {
      "midi": 64,
      "hit": false,
      "t": 171495.6488437496,
      "d": 3244.6717187499744,
      "v": 123
    },
    {
      "midi": 56,
      "hit": false,
      "t": 171504.0765624996,
      "d": 4011.594124999974,
      "v": 127
    },
    {
      "midi": 64,
      "hit": false,
      "t": 174740.32056249958,
      "d": 3219.388562500011,
      "v": 123
    },
    {
      "midi": 61,
      "hit": false,
      "t": 174740.32056249958,
      "d": 3977.8832500000135,
      "v": 123
    },
    {
      "midi": 57,
      "hit": false,
      "t": 174740.32056249958,
      "d": 4003.166406250006,
      "v": 120
    },
    {
      "midi": 64,
      "hit": false,
      "t": 177959.7091249996,
      "d": 1643.4051562499953,
      "v": 127
    },
    {
      "midi": 59,
      "hit": false,
      "t": 177968.13684374958,
      "d": 1854.0981250000186,
      "v": 127
    },
    {
      "midi": 68,
      "hit": false,
      "t": 177968.13684374958,
      "d": 1929.9475937500247,
      "v": 126
    },
    {
      "midi": 56,
      "hit": false,
      "t": 177976.56456249958,
      "d": 1795.1040937500075,
      "v": 126
    },
    {
      "midi": 64,
      "hit": false,
      "t": 179603.11428124958,
      "d": 1466.42306250002,
      "v": 127
    },
    {
      "midi": 57,
      "hit": false,
      "t": 179611.54199999958,
      "d": 1415.8567500000354,
      "v": 127
    },
    {
      "midi": 61,
      "hit": false,
      "t": 179611.54199999958,
      "d": 1424.2844687500328,
      "v": 127
    },
    {
      "midi": 47,
      "hit": false,
      "t": 179619.96971874958,
      "d": 1963.6584687499853,
      "v": 113
    },
    {
      "midi": 54,
      "hit": false,
      "t": 180648.1514062496,
      "d": 665.7897812499432,
      "v": 127
    },
    {
      "midi": 59,
      "hit": false,
      "t": 180841.9889374996,
      "d": 370.8196249999746,
      "v": 126
    },
    {
      "midi": 66,
      "hit": false,
      "t": 181027.39874999961,
      "d": 168.55437499997788,
      "v": 123
    },
    {
      "midi": 64,
      "hit": false,
      "t": 181246.51943749958,
      "d": 1887.8089999999793,
      "v": 127
    },
    {
      "midi": 68,
      "hit": false,
      "t": 181246.51943749958,
      "d": 1896.2367187499767,
      "v": 127
    },
    {
      "midi": 59,
      "hit": false,
      "t": 181254.94715624957,
      "d": 1584.4111249999842,
      "v": 126
    },
    {
      "midi": 52,
      "hit": false,
      "t": 181271.80259374957,
      "d": 1584.4111249999842,
      "v": 123
    },
    {
      "midi": 66,
      "hit": false,
      "t": 182830.93056249956,
      "d": 1879.3812812499818,
      "v": 117
    },
    {
      "midi": 63,
      "hit": false,
      "t": 182830.93056249956,
      "d": 1887.8089999999793,
      "v": 127
    },
    {
      "midi": 59,
      "hit": false,
      "t": 182839.35828124956,
      "d": 1828.8149687499972,
      "v": 117
    },
    {
      "midi": 61,
      "hit": false,
      "t": 184457.48028124956,
      "d": 3236.243999999977,
      "v": 127
    },
    {
      "midi": 64,
      "hit": false,
      "t": 184457.48028124956,
      "d": 3244.6717187499744,
      "v": 127
    },
    {
      "midi": 56,
      "hit": false,
      "t": 184465.90799999956,
      "d": 3733.4794062499714,
      "v": 127
    },
    {
      "midi": 61,
      "hit": false,
      "t": 187693.72428124954,
      "d": 3590.208187499986,
      "v": 123
    },
    {
      "midi": 57,
      "hit": false,
      "t": 187702.15199999954,
      "d": 3556.497312499996,
      "v": 127
    },
    {
      "midi": 64,
      "hit": false,
      "t": 187702.15199999954,
      "d": 3623.9190624999756,
      "v": 123
    },
    {
      "midi": 59,
      "hit": false,
      "t": 190929.96828124954,
      "d": 3834.6120312499697,
      "v": 126
    },
    {
      "midi": 63,
      "hit": false,
      "t": 190929.96828124954,
      "d": 3876.750624999957,
      "v": 127
    },
    {
      "midi": 66,
      "hit": false,
      "t": 190929.96828124954,
      "d": 3986.3109687499527,
      "v": 123
    },
    {
      "midi": 64,
      "hit": false,
      "t": 194183.06771874952,
      "d": 3210.9608437499846,
      "v": 126
    },
    {
      "midi": 61,
      "hit": false,
      "t": 194191.4954374995,
      "d": 3210.9608437499846,
      "v": 127
    },
    {
      "midi": 57,
      "hit": false,
      "t": 194191.4954374995,
      "d": 3986.310968749982,
      "v": 127
    },
    {
      "midi": 64,
      "hit": false,
      "t": 197394.0285624995,
      "d": 2637.875968749984,
      "v": 127
    },
    {
      "midi": 61,
      "hit": false,
      "t": 197402.4562812495,
      "d": 2435.6107187499874,
      "v": 126
    },
    {
      "midi": 68,
      "hit": false,
      "t": 197402.4562812495,
      "d": 2991.840156249993,
      "v": 127
    },
    {
      "midi": 47,
      "hit": false,
      "t": 197402.4562812495,
      "d": 3775.618000000046,
      "v": 117
    },
    {
      "midi": 57,
      "hit": false,
      "t": 199627.3740312495,
      "d": 1104.0311562500428,
      "v": 123
    },
    {
      "midi": 61,
      "hit": false,
      "t": 199838.0669999995,
      "d": 362.3919062500063,
      "v": 113
    },
    {
      "midi": 64,
      "hit": false,
      "t": 200031.90453124949,
      "d": 640.5066250000382,
      "v": 127
    },
    {
      "midi": 63,
      "hit": false,
      "t": 200234.16978124948,
      "d": 429.813656250044,
      "v": 111
    },
    {
      "midi": 61,
      "hit": false,
      "t": 200444.8627499995,
      "d": 168.55437500000698,
      "v": 70
    },
    {
      "midi": 71,
      "hit": false,
      "t": 200663.98343749953,
      "d": 1854.0981250000186,
      "v": 127
    },
    {
      "midi": 59,
      "hit": false,
      "t": 200672.41115624952,
      "d": 1584.4111250000133,
      "v": 113
    },
    {
      "midi": 68,
      "hit": false,
      "t": 200672.41115624952,
      "d": 1845.6704062500212,
      "v": 127
    },
    {
      "midi": 64,
      "hit": false,
      "t": 200672.41115624952,
      "d": 1870.9535625000135,
      "v": 127
    },
    {
      "midi": 52,
      "hit": false,
      "t": 200680.83887499952,
      "d": 1828.8149687500263,
      "v": 127
    },
    {
      "midi": 63,
      "hit": false,
      "t": 202248.39456249954,
      "d": 1854.0981249999895,
      "v": 127
    },
    {
      "midi": 66,
      "hit": false,
      "t": 202248.39456249954,
      "d": 1854.0981249999895,
      "v": 127
    },
    {
      "midi": 59,
      "hit": false,
      "t": 202256.82228124954,
      "d": 1811.9595312500023,
      "v": 126
    },
    {
      "midi": 61,
      "hit": false,
      "t": 203858.08884374955,
      "d": 3244.6717187499744,
      "v": 127
    },
    {
      "midi": 64,
      "hit": false,
      "t": 203858.08884374955,
      "d": 3244.6717187499744,
      "v": 123
    },
    {
      "midi": 56,
      "hit": false,
      "t": 203866.51656249954,
      "d": 4011.594124999974,
      "v": 127
    },
    {
      "midi": 64,
      "hit": false,
      "t": 207102.76056249952,
      "d": 3219.388562500011,
      "v": 123
    },
    {
      "midi": 61,
      "hit": false,
      "t": 207102.76056249952,
      "d": 3977.8832500000135,
      "v": 123
    },
    {
      "midi": 57,
      "hit": false,
      "t": 207102.76056249952,
      "d": 3994.7386875000084,
      "v": 120
    },
    {
      "midi": 64,
      "hit": false,
      "t": 210322.14912499953,
      "d": 1643.4051562499953,
      "v": 127
    },
    {
      "midi": 59,
      "hit": false,
      "t": 210330.57684374953,
      "d": 1854.0981250000186,
      "v": 127
    },
    {
      "midi": 68,
      "hit": false,
      "t": 210330.57684374953,
      "d": 1929.9475937500247,
      "v": 126
    },
    {
      "midi": 56,
      "hit": false,
      "t": 210339.00456249953,
      "d": 1795.1040937500075,
      "v": 126
    },
    {
      "midi": 64,
      "hit": false,
      "t": 211965.55428124953,
      "d": 1466.42306250002,
      "v": 127
    },
    {
      "midi": 57,
      "hit": false,
      "t": 211973.98199999952,
      "d": 1407.429031250038,
      "v": 127
    },
    {
      "midi": 61,
      "hit": false,
      "t": 211973.98199999952,
      "d": 1424.2844687500328,
      "v": 127
    },
    {
      "midi": 47,
      "hit": false,
      "t": 211982.40971874952,
      "d": 1955.230749999988,
      "v": 113
    },
    {
      "midi": 54,
      "hit": false,
      "t": 213010.59140624956,
      "d": 665.7897812499432,
      "v": 127
    },
    {
      "midi": 59,
      "hit": false,
      "t": 213204.42893749956,
      "d": 370.8196249999746,
      "v": 126
    },
    {
      "midi": 66,
      "hit": false,
      "t": 213389.83874999956,
      "d": 176.98209374997532,
      "v": 123
    },
    {
      "midi": 64,
      "hit": false,
      "t": 213608.95943749952,
      "d": 1896.2367187499767,
      "v": 127
    },
    {
      "midi": 68,
      "hit": false,
      "t": 213608.95943749952,
      "d": 1896.2367187499767,
      "v": 127
    },
    {
      "midi": 59,
      "hit": false,
      "t": 213617.38715624952,
      "d": 1584.4111249999842,
      "v": 126
    },
    {
      "midi": 52,
      "hit": false,
      "t": 213634.2425937495,
      "d": 1575.9834062499867,
      "v": 123
    },
    {
      "midi": 63,
      "hit": false,
      "t": 215193.3705624995,
      "d": 1887.8090000000084,
      "v": 127
    },
    {
      "midi": 66,
      "hit": false,
      "t": 215193.3705624995,
      "d": 1887.8090000000084,
      "v": 117
    },
    {
      "midi": 59,
      "hit": false,
      "t": 215201.7982812495,
      "d": 1828.8149687499972,
      "v": 117
    },
    {
      "midi": 61,
      "hit": false,
      "t": 216819.9202812495,
      "d": 3236.244000000006,
      "v": 127
    },
    {
      "midi": 64,
      "hit": false,
      "t": 216819.9202812495,
      "d": 3244.6717187500035,
      "v": 127
    },
    {
      "midi": 56,
      "hit": false,
      "t": 216828.3479999995,
      "d": 3733.4794062500005,
      "v": 127
    },
    {
      "midi": 61,
      "hit": false,
      "t": 220056.1642812495,
      "d": 3590.208187499986,
      "v": 123
    },
    {
      "midi": 57,
      "hit": false,
      "t": 220064.5919999995,
      "d": 3556.497312499996,
      "v": 127
    },
    {
      "midi": 64,
      "hit": false,
      "t": 220064.5919999995,
      "d": 3623.9190624999756,
      "v": 123
    },
    {
      "midi": 59,
      "hit": false,
      "t": 223292.40828124952,
      "d": 3834.6120312499697,
      "v": 126
    },
    {
      "midi": 63,
      "hit": false,
      "t": 223292.40828124952,
      "d": 3876.750624999957,
      "v": 127
    },
    {
      "midi": 66,
      "hit": false,
      "t": 223292.40828124952,
      "d": 3986.3109687499527,
      "v": 123
    },
    {
      "midi": 64,
      "hit": false,
      "t": 226545.5077187495,
      "d": 3210.9608437499846,
      "v": 126
    },
    {
      "midi": 61,
      "hit": false,
      "t": 226553.9354374995,
      "d": 3210.9608437499846,
      "v": 127
    },
    {
      "midi": 57,
      "hit": false,
      "t": 226553.9354374995,
      "d": 3986.310968749982,
      "v": 127
    },
    {
      "midi": 64,
      "hit": false,
      "t": 229756.46856249947,
      "d": 2637.875968749984,
      "v": 127
    },
    {
      "midi": 61,
      "hit": false,
      "t": 229764.89628124947,
      "d": 2435.6107187499874,
      "v": 126
    },
    {
      "midi": 68,
      "hit": false,
      "t": 229764.89628124947,
      "d": 2991.840156249993,
      "v": 127
    },
    {
      "midi": 47,
      "hit": false,
      "t": 229764.89628124947,
      "d": 3775.6180000000168,
      "v": 117
    },
    {
      "midi": 57,
      "hit": false,
      "t": 231989.81403124947,
      "d": 1104.0311562500137,
      "v": 123
    },
    {
      "midi": 61,
      "hit": false,
      "t": 232200.50699999946,
      "d": 362.3919062500063,
      "v": 113
    },
    {
      "midi": 64,
      "hit": false,
      "t": 232394.34453124946,
      "d": 615.2234687500168,
      "v": 127
    },
    {
      "midi": 63,
      "hit": false,
      "t": 232596.60978124946,
      "d": 429.8136562500149,
      "v": 111
    },
    {
      "midi": 61,
      "hit": false,
      "t": 232807.30274999948,
      "d": 168.55437500000698,
      "v": 70
    },
    {
      "midi": 52,
      "hit": false,
      "t": 233009.56799999948,
      "d": 1854.0981250000186,
      "v": 96
    },
    {
      "midi": 64,
      "hit": false,
      "t": 233009.56799999948,
      "d": 3194.105406250019,
      "v": 127
    },
    {
      "midi": 68,
      "hit": false,
      "t": 233009.56799999948,
      "d": 3202.5331250000163,
      "v": 127
    },
    {
      "midi": 59,
      "hit": false,
      "t": 233009.56799999948,
      "d": 3345.804343750002,
      "v": 113
    },
    {
      "midi": 64,
      "hit": false,
      "t": 236203.6734062495,
      "d": 219.12068749999162,
      "v": 127
    },
    {
      "midi": 68,
      "hit": false,
      "t": 236212.1011249995,
      "d": 219.12068749999162,
      "v": 127
    },
    {
      "midi": 59,
      "hit": false,
      "t": 236431.22181249948,
      "d": 117.98806249999325,
      "v": 85
    },
    {
      "midi": 64,
      "hit": false,
      "t": 236625.05934374948,
      "d": 92.70490625000093,
      "v": 80
    },
    {
      "midi": 59,
      "hit": false,
      "t": 236852.60774999947,
      "d": 134.84349999998813,
      "v": 123
    },
    {
      "midi": 66,
      "hit": false,
      "t": 236852.60774999947,
      "d": 176.98209374997532,
      "v": 127
    },
    {
      "midi": 61,
      "hit": false,
      "t": 237476.25893749946,
      "d": 783.7778437499946,
      "v": 127
    },
    {
      "midi": 64,
      "hit": false,
      "t": 237476.25893749946,
      "d": 783.7778437499946,
      "v": 127
    },
    {
      "midi": 68,
      "hit": false,
      "t": 237476.25893749946,
      "d": 800.6332812499895,
      "v": 127
    },
    {
      "midi": 69,
      "hit": false,
      "t": 238251.60906249945,
      "d": 648.9343437499774,
      "v": 127
    },
    {
      "midi": 64,
      "hit": false,
      "t": 238260.03678124945,
      "d": 598.3680312499928,
      "v": 127
    },
    {
      "midi": 61,
      "hit": false,
      "t": 238260.03678124945,
      "d": 615.2234687499877,
      "v": 123
    },
    {
      "midi": 64,
      "hit": false,
      "t": 238858.40481249944,
      "d": 615.2234687499877,
      "v": 127
    },
    {
      "midi": 68,
      "hit": false,
      "t": 238866.83253124944,
      "d": 606.7957499999902,
      "v": 127
    },
    {
      "midi": 59,
      "hit": false,
      "t": 238875.26024999944,
      "d": 606.7957499999902,
      "v": 117
    },
    {
      "midi": 64,
      "hit": false,
      "t": 239473.62828124943,
      "d": 3244.6717187499744,
      "v": 120
    },
    {
      "midi": 59,
      "hit": false,
      "t": 239482.05599999943,
      "d": 185.40981250000186,
      "v": 120
    },
    {
      "midi": 57,
      "hit": false,
      "t": 239482.05599999943,
      "d": 2621.0205312499893,
      "v": 126
    },
    {
      "midi": 61,
      "hit": false,
      "t": 239482.05599999943,
      "d": 3017.1233124999853,
      "v": 106
    },
    {
      "midi": 45,
      "hit": false,
      "t": 239490.48371874943,
      "d": 3345.8043437499728,
      "v": 117
    },
    {
      "midi": 57,
      "hit": false,
      "t": 242103.07653124942,
      "d": 615.2234687499877,
      "v": 85
    },
    {
      "midi": 59,
      "hit": false,
      "t": 242322.1972187494,
      "d": 412.9582187499909,
      "v": 117
    },
    {
      "midi": 61,
      "hit": false,
      "t": 242499.17931249941,
      "d": 202.26524999999674,
      "v": 103
    },
    {
      "midi": 61,
      "hit": false,
      "t": 242701.4445624994,
      "d": 1887.8089999999793,
      "v": 72
    },
    {
      "midi": 57,
      "hit": false,
      "t": 242718.2999999994,
      "d": 1862.525843749987,
      "v": 100
    },
    {
      "midi": 64,
      "hit": false,
      "t": 242718.2999999994,
      "d": 1896.2367187499767,
      "v": 113
    },
    {
      "midi": 47,
      "hit": false,
      "t": 242726.7277187494,
      "d": 3893.606062499981,
      "v": 120
    },
    {
      "midi": 66,
      "hit": false,
      "t": 244311.1388437494,
      "d": 1955.230749999988,
      "v": 100
    },
    {
      "midi": 63,
      "hit": false,
      "t": 244311.1388437494,
      "d": 1972.0861874999828,
      "v": 120
    },
    {
      "midi": 59,
      "hit": false,
      "t": 244319.56656249939,
      "d": 1643.4051562499953,
      "v": 96
    },
    {
      "midi": 64,
      "hit": false,
      "t": 245954.54399999938,
      "d": 3219.388562500011,
      "v": 127
    },
    {
      "midi": 68,
      "hit": false,
      "t": 245954.54399999938,
      "d": 3219.388562500011,
      "v": 127
    },
    {
      "midi": 52,
      "hit": false,
      "t": 245954.54399999938,
      "d": 3910.461500000034,
      "v": 127
    },
    {
      "midi": 59,
      "hit": false,
      "t": 245962.97171874938,
      "d": 3438.509250000032,
      "v": 123
    },
    {
      "midi": 64,
      "hit": false,
      "t": 249173.9325624994,
      "d": 404.5305000000226,
      "v": 127
    },
    {
      "midi": 68,
      "hit": false,
      "t": 249173.9325624994,
      "d": 750.066968750034,
      "v": 127
    },
    {
      "midi": 66,
      "hit": false,
      "t": 249182.3602812494,
      "d": 58.994031250011176,
      "v": 111
    },
    {
      "midi": 49,
      "hit": false,
      "t": 249182.3602812494,
      "d": 337.10875000001397,
      "v": 106
    },
    {
      "midi": 59,
      "hit": false,
      "t": 249401.4809687494,
      "d": 396.10278124999604,
      "v": 96
    },
    {
      "midi": 64,
      "hit": false,
      "t": 249578.46306249942,
      "d": 353.96418750000885,
      "v": 78
    },
    {
      "midi": 59,
      "hit": false,
      "t": 249797.5837499994,
      "d": 176.98209375000442,
      "v": 113
    },
    {
      "midi": 66,
      "hit": false,
      "t": 249797.5837499994,
      "d": 210.69296874999418,
      "v": 127
    },
    {
      "midi": 68,
      "hit": false,
      "t": 250412.8072187494,
      "d": 893.3381874999905,
      "v": 127
    },
    {
      "midi": 61,
      "hit": false,
      "t": 250421.2349374994,
      "d": 809.060999999987,
      "v": 126
    },
    {
      "midi": 64,
      "hit": false,
      "t": 250421.2349374994,
      "d": 809.060999999987,
      "v": 127
    },
    {
      "midi": 61,
      "hit": false,
      "t": 251230.29593749938,
      "d": 581.5125937499979,
      "v": 127
    },
    {
      "midi": 64,
      "hit": false,
      "t": 251230.29593749938,
      "d": 581.5125937499979,
      "v": 127
    },
    {
      "midi": 69,
      "hit": false,
      "t": 251230.29593749938,
      "d": 632.0789062499825,
      "v": 127
    },
    {
      "midi": 64,
      "hit": false,
      "t": 251811.80853124938,
      "d": 589.9403124999953,
      "v": 127
    },
    {
      "midi": 59,
      "hit": false,
      "t": 251820.23624999938,
      "d": 581.5125937499979,
      "v": 108
    },
    {
      "midi": 68,
      "hit": false,
      "t": 251820.23624999938,
      "d": 581.5125937499979,
      "v": 127
    },
    {
      "midi": 61,
      "hit": false,
      "t": 252410.17656249937,
      "d": 3067.689624999999,
      "v": 127
    },
    {
      "midi": 64,
      "hit": false,
      "t": 252410.17656249937,
      "d": 3269.954874999996,
      "v": 127
    },
    {
      "midi": 57,
      "hit": false,
      "t": 252418.60428124937,
      "d": 2663.1591250000056,
      "v": 127
    },
    {
      "midi": 45,
      "hit": false,
      "t": 252427.03199999937,
      "d": 3421.653812500008,
      "v": 120
    },
    {
      "midi": 57,
      "hit": false,
      "t": 255081.76340624937,
      "d": 606.7957499999902,
      "v": 113
    },
    {
      "midi": 59,
      "hit": false,
      "t": 255284.02865624937,
      "d": 396.10278124999604,
      "v": 126
    },
    {
      "midi": 61,
      "hit": false,
      "t": 255477.86618749937,
      "d": 193.8375312499993,
      "v": 127
    },
    {
      "midi": 61,
      "hit": false,
      "t": 255671.70371874937,
      "d": 1870.9535625000135,
      "v": 77
    },
    {
      "midi": 64,
      "hit": false,
      "t": 255680.13143749937,
      "d": 1896.2367187500058,
      "v": 120
    },
    {
      "midi": 57,
      "hit": false,
      "t": 255688.55915624936,
      "d": 1862.525843750016,
      "v": 111
    },
    {
      "midi": 47,
      "hit": false,
      "t": 255688.55915624936,
      "d": 3851.4674687499937,
      "v": 113
    },
    {
      "midi": 63,
      "hit": false,
      "t": 257256.11484374938,
      "d": 1946.8030312499905,
      "v": 106
    },
    {
      "midi": 66,
      "hit": false,
      "t": 257256.11484374938,
      "d": 1963.6584687499853,
      "v": 89
    },
    {
      "midi": 59,
      "hit": false,
      "t": 257264.54256249938,
      "d": 1651.8328749999928,
      "v": 46
    },
    {
      "midi": 64,
      "hit": false,
      "t": 258899.51999999938,
      "d": 4921.787750000018,
      "v": 120
    },
    {
      "midi": 68,
      "hit": false,
      "t": 258907.94771874938,
      "d": 4938.643187500042,
      "v": 120
    },
    {
      "midi": 52,
      "hit": false,
      "t": 258916.37543749937,
      "d": 4879.649156250001,
      "v": 113
    },
    {
      "midi": 59,
      "hit": false,
      "t": 258916.37543749937,
      "d": 4879.649156250001,
      "v": 106
    }
  ]
}