{
  "jsonPath": "Rock/Spanish Pop Rock/Despistaos/estrella.json",
  "path": "Rock\\Spanish Pop Rock\\Despistaos\\Estrella.mid",
  "name": "Estrella",
  "difficulty": "Advanced",
  "bpm": 80.39996301601701,
  "notes": [
    {
      "midi": 57,
      "hit": false,
      "t": 2816.896,
      "d": 1584.5040000000004,
      "v": 66
    },
    {
      "midi": 61,
      "hit": false,
      "t": 2816.896,
      "d": 2112.672,
      "v": 57
    },
    {
      "midi": 66,
      "hit": false,
      "t": 2816.896,
      "d": 2112.672,
      "v": 72
    },
    {
      "midi": 69,
      "hit": false,
      "t": 2816.896,
      "d": 2112.672,
      "v": 69
    },
    {
      "midi": 50,
      "hit": false,
      "t": 2816.896,
      "d": 2816.8959999999993,
      "v": 69
    },
    {
      "midi": 57,
      "hit": false,
      "t": 4577.456,
      "d": 880.2799999999997,
      "v": 99
    },
    {
      "midi": 61,
      "hit": false,
      "t": 5105.624,
      "d": 352.1120000000001,
      "v": 84
    },
    {
      "midi": 66,
      "hit": false,
      "t": 5105.624,
      "d": 352.1120000000001,
      "v": 79
    },
    {
      "midi": 69,
      "hit": false,
      "t": 5105.624,
      "d": 352.1120000000001,
      "v": 83
    },
    {
      "midi": 47,
      "hit": false,
      "t": 5985.9039999999995,
      "d": 1232.391999999999,
      "v": 93
    },
    {
      "midi": 54,
      "hit": false,
      "t": 6161.959999999999,
      "d": 1056.3359999999993,
      "v": 89
    },
    {
      "midi": 57,
      "hit": false,
      "t": 6514.071999999999,
      "d": 1408.4479999999985,
      "v": 43
    },
    {
      "midi": 62,
      "hit": false,
      "t": 6690.127999999999,
      "d": 1056.3359999999993,
      "v": 71
    },
    {
      "midi": 66,
      "hit": false,
      "t": 6690.127999999999,
      "d": 1232.391999999999,
      "v": 81
    },
    {
      "midi": 55,
      "hit": false,
      "t": 8450.687999999998,
      "d": 1584.5040000000008,
      "v": 66
    },
    {
      "midi": 59,
      "hit": false,
      "t": 8450.687999999998,
      "d": 2112.6720000000005,
      "v": 57
    },
    {
      "midi": 66,
      "hit": false,
      "t": 8450.687999999998,
      "d": 2112.6720000000005,
      "v": 72
    },
    {
      "midi": 69,
      "hit": false,
      "t": 8450.687999999998,
      "d": 2112.6720000000005,
      "v": 69
    },
    {
      "midi": 43,
      "hit": false,
      "t": 8450.687999999998,
      "d": 2816.8960000000006,
      "v": 69
    },
    {
      "midi": 55,
      "hit": false,
      "t": 10211.248,
      "d": 880.2799999999988,
      "v": 99
    },
    {
      "midi": 59,
      "hit": false,
      "t": 10739.416,
      "d": 352.11199999999917,
      "v": 84
    },
    {
      "midi": 66,
      "hit": false,
      "t": 10739.416,
      "d": 352.11199999999917,
      "v": 79
    },
    {
      "midi": 69,
      "hit": false,
      "t": 10739.416,
      "d": 352.11199999999917,
      "v": 83
    },
    {
      "midi": 40,
      "hit": false,
      "t": 11267.583999999999,
      "d": 1408.4479999999985,
      "v": 85
    },
    {
      "midi": 52,
      "hit": false,
      "t": 11795.751999999999,
      "d": 880.2799999999988,
      "v": 85
    },
    {
      "midi": 55,
      "hit": false,
      "t": 12323.919999999998,
      "d": 352.11199999999917,
      "v": 66
    },
    {
      "midi": 62,
      "hit": false,
      "t": 12323.919999999998,
      "d": 352.11199999999917,
      "v": 66
    },
    {
      "midi": 61,
      "hit": false,
      "t": 12676.031999999997,
      "d": 352.11199999999917,
      "v": 80
    },
    {
      "midi": 66,
      "hit": false,
      "t": 12676.031999999997,
      "d": 352.11199999999917,
      "v": 80
    },
    {
      "midi": 67,
      "hit": false,
      "t": 12676.031999999997,
      "d": 352.11199999999917,
      "v": 80
    },
    {
      "midi": 71,
      "hit": false,
      "t": 12676.031999999997,
      "d": 352.11199999999917,
      "v": 80
    },
    {
      "midi": 61,
      "hit": false,
      "t": 13028.143999999997,
      "d": 176.0560000000005,
      "v": 70
    },
    {
      "midi": 66,
      "hit": false,
      "t": 13028.143999999997,
      "d": 176.0560000000005,
      "v": 70
    },
    {
      "midi": 67,
      "hit": false,
      "t": 13028.143999999997,
      "d": 176.0560000000005,
      "v": 70
    },
    {
      "midi": 71,
      "hit": false,
      "t": 13028.143999999997,
      "d": 176.0560000000005,
      "v": 70
    },
    {
      "midi": 57,
      "hit": false,
      "t": 14084.479999999998,
      "d": 1584.5040000000008,
      "v": 66
    },
    {
      "midi": 61,
      "hit": false,
      "t": 14084.479999999998,
      "d": 2112.6720000000005,
      "v": 57
    },
    {
      "midi": 66,
      "hit": false,
      "t": 14084.479999999998,
      "d": 2112.6720000000005,
      "v": 72
    },
    {
      "midi": 69,
      "hit": false,
      "t": 14084.479999999998,
      "d": 2112.6720000000005,
      "v": 69
    },
    {
      "midi": 50,
      "hit": false,
      "t": 14084.479999999998,
      "d": 2816.8960000000025,
      "v": 69
    },
    {
      "midi": 57,
      "hit": false,
      "t": 15845.039999999999,
      "d": 880.2800000000007,
      "v": 99
    },
    {
      "midi": 61,
      "hit": false,
      "t": 16373.207999999999,
      "d": 352.112000000001,
      "v": 84
    },
    {
      "midi": 66,
      "hit": false,
      "t": 16373.207999999999,
      "d": 352.112000000001,
      "v": 79
    },
    {
      "midi": 69,
      "hit": false,
      "t": 16373.207999999999,
      "d": 352.112000000001,
      "v": 83
    },
    {
      "midi": 47,
      "hit": false,
      "t": 17253.488,
      "d": 1232.3920000000035,
      "v": 93
    },
    {
      "midi": 54,
      "hit": false,
      "t": 17429.544,
      "d": 1056.336000000003,
      "v": 89
    },
    {
      "midi": 57,
      "hit": false,
      "t": 17781.656000000003,
      "d": 1408.448000000004,
      "v": 43
    },
    {
      "midi": 62,
      "hit": false,
      "t": 17957.712000000003,
      "d": 1056.336000000003,
      "v": 71
    },
    {
      "midi": 66,
      "hit": false,
      "t": 17957.712000000003,
      "d": 1232.3920000000035,
      "v": 81
    },
    {
      "midi": 55,
      "hit": false,
      "t": 19718.272000000008,
      "d": 1584.5040000000008,
      "v": 66
    },
    {
      "midi": 59,
      "hit": false,
      "t": 19718.272000000008,
      "d": 2112.6720000000023,
      "v": 57
    },
    {
      "midi": 66,
      "hit": false,
      "t": 19718.272000000008,
      "d": 2112.6720000000023,
      "v": 72
    },
    {
      "midi": 69,
      "hit": false,
      "t": 19718.272000000008,
      "d": 2112.6720000000023,
      "v": 69
    },
    {
      "midi": 43,
      "hit": false,
      "t": 19718.272000000008,
      "d": 2816.8960000000043,
      "v": 69
    },
    {
      "midi": 55,
      "hit": false,
      "t": 21478.83200000001,
      "d": 880.2800000000025,
      "v": 99
    },
    {
      "midi": 59,
      "hit": false,
      "t": 22007.00000000001,
      "d": 352.112000000001,
      "v": 84
    },
    {
      "midi": 66,
      "hit": false,
      "t": 22007.00000000001,
      "d": 352.112000000001,
      "v": 79
    },
    {
      "midi": 69,
      "hit": false,
      "t": 22007.00000000001,
      "d": 352.112000000001,
      "v": 83
    },
    {
      "midi": 40,
      "hit": false,
      "t": 22535.168000000012,
      "d": 1408.448000000004,
      "v": 85
    },
    {
      "midi": 52,
      "hit": false,
      "t": 23063.336000000014,
      "d": 880.2800000000025,
      "v": 85
    },
    {
      "midi": 55,
      "hit": false,
      "t": 23591.504000000015,
      "d": 352.112000000001,
      "v": 66
    },
    {
      "midi": 62,
      "hit": false,
      "t": 23591.504000000015,
      "d": 352.112000000001,
      "v": 66
    },
    {
      "midi": 61,
      "hit": false,
      "t": 23943.616000000016,
      "d": 352.112000000001,
      "v": 80
    },
    {
      "midi": 66,
      "hit": false,
      "t": 23943.616000000016,
      "d": 352.112000000001,
      "v": 80
    },
    {
      "midi": 67,
      "hit": false,
      "t": 23943.616000000016,
      "d": 352.112000000001,
      "v": 80
    },
    {
      "midi": 71,
      "hit": false,
      "t": 23943.616000000016,
      "d": 352.112000000001,
      "v": 80
    },
    {
      "midi": 61,
      "hit": false,
      "t": 24295.728000000017,
      "d": 176.0560000000005,
      "v": 70
    },
    {
      "midi": 66,
      "hit": false,
      "t": 24295.728000000017,
      "d": 176.0560000000005,
      "v": 70
    },
    {
      "midi": 67,
      "hit": false,
      "t": 24295.728000000017,
      "d": 176.0560000000005,
      "v": 70
    },
    {
      "midi": 71,
      "hit": false,
      "t": 24295.728000000017,
      "d": 176.0560000000005,
      "v": 70
    },
    {
      "midi": 50,
      "hit": false,
      "t": 25352.064000000017,
      "d": 2816.8960000000043,
      "v": 72
    },
    {
      "midi": 61,
      "hit": false,
      "t": 25352.064000000017,
      "d": 2816.8960000000043,
      "v": 71
    },
    {
      "midi": 66,
      "hit": false,
      "t": 25352.064000000017,
      "d": 2816.8960000000043,
      "v": 62
    },
    {
      "midi": 69,
      "hit": false,
      "t": 25352.064000000017,
      "d": 2816.8960000000043,
      "v": 65
    },
    {
      "midi": 57,
      "hit": false,
      "t": 27112.624000000018,
      "d": 352.112000000001,
      "v": 92
    },
    {
      "midi": 57,
      "hit": false,
      "t": 27640.79200000002,
      "d": 528.1680000000015,
      "v": 92
    },
    {
      "midi": 54,
      "hit": false,
      "t": 28168.96000000002,
      "d": 1584.5040000000008,
      "v": 66
    },
    {
      "midi": 57,
      "hit": false,
      "t": 28168.96000000002,
      "d": 2112.6720000000023,
      "v": 57
    },
    {
      "midi": 62,
      "hit": false,
      "t": 28168.96000000002,
      "d": 2112.6720000000023,
      "v": 72
    },
    {
      "midi": 66,
      "hit": false,
      "t": 28168.96000000002,
      "d": 2112.6720000000023,
      "v": 69
    },
    {
      "midi": 47,
      "hit": false,
      "t": 28168.96000000002,
      "d": 2816.8960000000043,
      "v": 69
    },
    {
      "midi": 54,
      "hit": false,
      "t": 29929.520000000022,
      "d": 880.2800000000025,
      "v": 99
    },
    {
      "midi": 57,
      "hit": false,
      "t": 30457.688000000024,
      "d": 352.112000000001,
      "v": 84
    },
    {
      "midi": 62,
      "hit": false,
      "t": 30457.688000000024,
      "d": 352.112000000001,
      "v": 79
    },
    {
      "midi": 66,
      "hit": false,
      "t": 30457.688000000024,
      "d": 352.112000000001,
      "v": 83
    },
    {
      "midi": 43,
      "hit": false,
      "t": 31337.968000000026,
      "d": 1232.3920000000035,
      "v": 93
    },
    {
      "midi": 55,
      "hit": false,
      "t": 31514.024000000027,
      "d": 1056.336000000003,
      "v": 89
    },
    {
      "midi": 59,
      "hit": false,
      "t": 31866.136000000028,
      "d": 1408.4479999999967,
      "v": 43
    },
    {
      "midi": 66,
      "hit": false,
      "t": 32042.19200000003,
      "d": 1056.3359999999993,
      "v": 71
    },
    {
      "midi": 69,
      "hit": false,
      "t": 32042.19200000003,
      "d": 1232.3919999999962,
      "v": 81
    },
    {
      "midi": 55,
      "hit": false,
      "t": 33802.75200000002,
      "d": 704.2239999999947,
      "v": 62
    },
    {
      "midi": 40,
      "hit": false,
      "t": 33802.75200000002,
      "d": 1408.4479999999967,
      "v": 82
    },
    {
      "midi": 62,
      "hit": false,
      "t": 33802.75200000002,
      "d": 1408.4479999999967,
      "v": 74
    },
    {
      "midi": 66,
      "hit": false,
      "t": 33802.75200000002,
      "d": 1408.4479999999967,
      "v": 67
    },
    {
      "midi": 52,
      "hit": false,
      "t": 34330.92000000002,
      "d": 880.2799999999988,
      "v": 90
    },
    {
      "midi": 55,
      "hit": false,
      "t": 34859.08800000002,
      "d": 352.112000000001,
      "v": 79
    },
    {
      "midi": 61,
      "hit": false,
      "t": 35211.20000000002,
      "d": 352.112000000001,
      "v": 80
    },
    {
      "midi": 66,
      "hit": false,
      "t": 35211.20000000002,
      "d": 352.112000000001,
      "v": 80
    },
    {
      "midi": 67,
      "hit": false,
      "t": 35211.20000000002,
      "d": 352.112000000001,
      "v": 80
    },
    {
      "midi": 71,
      "hit": false,
      "t": 35211.20000000002,
      "d": 352.112000000001,
      "v": 80
    },
    {
      "midi": 61,
      "hit": false,
      "t": 35563.31200000002,
      "d": 176.05599999999686,
      "v": 70
    },
    {
      "midi": 66,
      "hit": false,
      "t": 35563.31200000002,
      "d": 176.05599999999686,
      "v": 70
    },
    {
      "midi": 67,
      "hit": false,
      "t": 35563.31200000002,
      "d": 176.05599999999686,
      "v": 70
    },
    {
      "midi": 71,
      "hit": false,
      "t": 35563.31200000002,
      "d": 176.05599999999686,
      "v": 70
    },
    {
      "midi": 50,
      "hit": false,
      "t": 36619.648000000016,
      "d": 2816.8959999999934,
      "v": 72
    },
    {
      "midi": 61,
      "hit": false,
      "t": 36619.648000000016,
      "d": 2816.8959999999934,
      "v": 71
    },
    {
      "midi": 66,
      "hit": false,
      "t": 36619.648000000016,
      "d": 2816.8959999999934,
      "v": 62
    },
    {
      "midi": 69,
      "hit": false,
      "t": 36619.648000000016,
      "d": 2816.8959999999934,
      "v": 65
    },
    {
      "midi": 57,
      "hit": false,
      "t": 38380.20800000001,
      "d": 352.112000000001,
      "v": 92
    },
    {
      "midi": 57,
      "hit": false,
      "t": 38908.37600000001,
      "d": 528.1679999999978,
      "v": 92
    },
    {
      "midi": 54,
      "hit": false,
      "t": 39436.54400000001,
      "d": 176.05599999999686,
      "v": 51
    },
    {
      "midi": 57,
      "hit": false,
      "t": 39436.54400000001,
      "d": 1760.5599999999977,
      "v": 76
    },
    {
      "midi": 62,
      "hit": false,
      "t": 39436.54400000001,
      "d": 2112.6719999999914,
      "v": 77
    },
    {
      "midi": 66,
      "hit": false,
      "t": 39436.54400000001,
      "d": 2288.7279999999882,
      "v": 74
    },
    {
      "midi": 47,
      "hit": false,
      "t": 39436.54400000001,
      "d": 2816.895999999979,
      "v": 81
    },
    {
      "midi": 54,
      "hit": false,
      "t": 41197.10400000001,
      "d": 1056.3359999999811,
      "v": 81
    },
    {
      "midi": 57,
      "hit": false,
      "t": 41373.16,
      "d": 880.2799999999843,
      "v": 82
    },
    {
      "midi": 62,
      "hit": false,
      "t": 41725.272,
      "d": 352.1119999999937,
      "v": 67
    },
    {
      "midi": 66,
      "hit": false,
      "t": 41901.327999999994,
      "d": 352.1119999999937,
      "v": 89
    },
    {
      "midi": 55,
      "hit": false,
      "t": 42253.43999999999,
      "d": 1584.5040000000008,
      "v": 63
    },
    {
      "midi": 59,
      "hit": false,
      "t": 42253.43999999999,
      "d": 2112.6719999999987,
      "v": 67
    },
    {
      "midi": 43,
      "hit": false,
      "t": 42253.43999999999,
      "d": 2816.8959999999934,
      "v": 63
    },
    {
      "midi": 66,
      "hit": false,
      "t": 42253.43999999999,
      "d": 2816.8959999999934,
      "v": 72
    },
    {
      "midi": 69,
      "hit": false,
      "t": 42253.43999999999,
      "d": 2816.8959999999934,
      "v": 63
    },
    {
      "midi": 55,
      "hit": false,
      "t": 44013.999999999985,
      "d": 1056.3359999999957,
      "v": 87
    },
    {
      "midi": 59,
      "hit": false,
      "t": 44542.16799999998,
      "d": 528.1679999999978,
      "v": 78
    },
    {
      "midi": 40,
      "hit": false,
      "t": 45070.33599999998,
      "d": 1408.4479999999967,
      "v": 85
    },
    {
      "midi": 52,
      "hit": false,
      "t": 45598.50399999998,
      "d": 880.2799999999988,
      "v": 85
    },
    {
      "midi": 55,
      "hit": false,
      "t": 46126.67199999998,
      "d": 352.112000000001,
      "v": 66
    },
    {
      "midi": 62,
      "hit": false,
      "t": 46126.67199999998,
      "d": 352.112000000001,
      "v": 66
    },
    {
      "midi": 61,
      "hit": false,
      "t": 46478.78399999998,
      "d": 352.112000000001,
      "v": 80
    },
    {
      "midi": 66,
      "hit": false,
      "t": 46478.78399999998,
      "d": 352.112000000001,
      "v": 80
    },
    {
      "midi": 67,
      "hit": false,
      "t": 46478.78399999998,
      "d": 352.112000000001,
      "v": 80
    },
    {
      "midi": 71,
      "hit": false,
      "t": 46478.78399999998,
      "d": 352.112000000001,
      "v": 80
    },
    {
      "midi": 61,
      "hit": false,
      "t": 46830.89599999998,
      "d": 176.05599999999686,
      "v": 70
    },
    {
      "midi": 66,
      "hit": false,
      "t": 46830.89599999998,
      "d": 176.05599999999686,
      "v": 70
    },
    {
      "midi": 67,
      "hit": false,
      "t": 46830.89599999998,
      "d": 176.05599999999686,
      "v": 70
    },
    {
      "midi": 71,
      "hit": false,
      "t": 46830.89599999998,
      "d": 176.05599999999686,
      "v": 70
    },
    {
      "midi": 50,
      "hit": false,
      "t": 48239.343999999975,
      "d": 1232.3919999999925,
      "v": 93
    },
    {
      "midi": 57,
      "hit": false,
      "t": 48415.39999999997,
      "d": 1056.3359999999957,
      "v": 89
    },
    {
      "midi": 61,
      "hit": false,
      "t": 48767.51199999997,
      "d": 1408.4479999999894,
      "v": 43
    },
    {
      "midi": 66,
      "hit": false,
      "t": 48943.56799999997,
      "d": 1056.3359999999957,
      "v": 71
    },
    {
      "midi": 69,
      "hit": false,
      "t": 48943.56799999997,
      "d": 1232.3919999999925,
      "v": 81
    },
    {
      "midi": 47,
      "hit": false,
      "t": 50704.12799999996,
      "d": 2816.8959999999934,
      "v": 72
    },
    {
      "midi": 57,
      "hit": false,
      "t": 50704.12799999996,
      "d": 2816.8959999999934,
      "v": 71
    },
    {
      "midi": 62,
      "hit": false,
      "t": 50704.12799999996,
      "d": 2816.8959999999934,
      "v": 62
    },
    {
      "midi": 66,
      "hit": false,
      "t": 50704.12799999996,
      "d": 2816.8959999999934,
      "v": 65
    },
    {
      "midi": 54,
      "hit": false,
      "t": 52464.68799999996,
      "d": 352.112000000001,
      "v": 92
    },
    {
      "midi": 54,
      "hit": false,
      "t": 52992.855999999956,
      "d": 528.1679999999978,
      "v": 92
    },
    {
      "midi": 43,
      "hit": false,
      "t": 53521.023999999954,
      "d": 2816.8959999999934,
      "v": 72
    },
    {
      "midi": 59,
      "hit": false,
      "t": 53521.023999999954,
      "d": 2816.8959999999934,
      "v": 71
    },
    {
      "midi": 66,
      "hit": false,
      "t": 53521.023999999954,
      "d": 2816.8959999999934,
      "v": 62
    },
    {
      "midi": 69,
      "hit": false,
      "t": 53521.023999999954,
      "d": 2816.8959999999934,
      "v": 65
    },
    {
      "midi": 55,
      "hit": false,
      "t": 55281.58399999995,
      "d": 352.112000000001,
      "v": 92
    },
    {
      "midi": 55,
      "hit": false,
      "t": 55809.75199999995,
      "d": 528.1679999999978,
      "v": 92
    },
    {
      "midi": 40,
      "hit": false,
      "t": 56337.91999999995,
      "d": 1408.4479999999967,
      "v": 85
    },
    {
      "midi": 52,
      "hit": false,
      "t": 56866.087999999945,
      "d": 880.2799999999988,
      "v": 85
    },
    {
      "midi": 55,
      "hit": false,
      "t": 57394.25599999994,
      "d": 352.112000000001,
      "v": 66
    },
    {
      "midi": 62,
      "hit": false,
      "t": 57394.25599999994,
      "d": 352.112000000001,
      "v": 66
    },
    {
      "midi": 55,
      "hit": false,
      "t": 57746.367999999944,
      "d": 704.2239999999947,
      "v": 62
    },
    {
      "midi": 45,
      "hit": false,
      "t": 57746.367999999944,
      "d": 1408.4479999999967,
      "v": 82
    },
    {
      "midi": 61,
      "hit": false,
      "t": 57746.367999999944,
      "d": 1408.4479999999967,
      "v": 74
    },
    {
      "midi": 64,
      "hit": false,
      "t": 57746.367999999944,
      "d": 1408.4479999999967,
      "v": 67
    },
    {
      "midi": 52,
      "hit": false,
      "t": 58274.53599999994,
      "d": 880.2799999999988,
      "v": 90
    },
    {
      "midi": 55,
      "hit": false,
      "t": 58802.70399999994,
      "d": 352.112000000001,
      "v": 79
    },
    {
      "midi": 57,
      "hit": false,
      "t": 59154.81599999994,
      "d": 1584.5040000000008,
      "v": 66
    },
    {
      "midi": 61,
      "hit": false,
      "t": 59154.81599999994,
      "d": 2112.6719999999987,
      "v": 57
    },
    {
      "midi": 66,
      "hit": false,
      "t": 59154.81599999994,
      "d": 2112.6719999999987,
      "v": 72
    },
    {
      "midi": 69,
      "hit": false,
      "t": 59154.81599999994,
      "d": 2112.6719999999987,
      "v": 69
    },
    {
      "midi": 50,
      "hit": false,
      "t": 59154.81599999994,
      "d": 2816.8959999999934,
      "v": 69
    },
    {
      "midi": 57,
      "hit": false,
      "t": 60915.37599999994,
      "d": 880.2799999999988,
      "v": 93
    },
    {
      "midi": 61,
      "hit": false,
      "t": 61443.543999999936,
      "d": 352.112000000001,
      "v": 84
    },
    {
      "midi": 66,
      "hit": false,
      "t": 61443.543999999936,
      "d": 352.112000000001,
      "v": 79
    },
    {
      "midi": 69,
      "hit": false,
      "t": 61443.543999999936,
      "d": 352.112000000001,
      "v": 83
    },
    {
      "midi": 54,
      "hit": false,
      "t": 61971.711999999934,
      "d": 176.05599999999686,
      "v": 51
    },
    {
      "midi": 57,
      "hit": false,
      "t": 61971.711999999934,
      "d": 1760.5599999999977,
      "v": 76
    },
    {
      "midi": 62,
      "hit": false,
      "t": 61971.711999999934,
      "d": 2112.6719999999914,
      "v": 77
    },
    {
      "midi": 66,
      "hit": false,
      "t": 61971.711999999934,
      "d": 2288.7279999999882,
      "v": 74
    },
    {
      "midi": 47,
      "hit": false,
      "t": 61971.711999999934,
      "d": 2816.895999999979,
      "v": 81
    },
    {
      "midi": 54,
      "hit": false,
      "t": 63732.27199999993,
      "d": 1056.3359999999811,
      "v": 81
    },
    {
      "midi": 57,
      "hit": false,
      "t": 63908.32799999993,
      "d": 880.2799999999843,
      "v": 82
    },
    {
      "midi": 62,
      "hit": false,
      "t": 64260.43999999992,
      "d": 352.1119999999937,
      "v": 67
    },
    {
      "midi": 66,
      "hit": false,
      "t": 64436.49599999992,
      "d": 352.1119999999937,
      "v": 89
    },
    {
      "midi": 43,
      "hit": false,
      "t": 64788.60799999991,
      "d": 2816.8960000000006,
      "v": 72
    },
    {
      "midi": 59,
      "hit": false,
      "t": 64788.60799999991,
      "d": 2816.8960000000006,
      "v": 71
    },
    {
      "midi": 66,
      "hit": false,
      "t": 64788.60799999991,
      "d": 2816.8960000000006,
      "v": 62
    },
    {
      "midi": 69,
      "hit": false,
      "t": 64788.60799999991,
      "d": 2816.8960000000006,
      "v": 65
    },
    {
      "midi": 55,
      "hit": false,
      "t": 66549.16799999992,
      "d": 352.1119999999937,
      "v": 92
    },
    {
      "midi": 55,
      "hit": false,
      "t": 67077.33599999991,
      "d": 528.1680000000051,
      "v": 92
    },
    {
      "midi": 55,
      "hit": false,
      "t": 67605.50399999991,
      "d": 1584.5040000000008,
      "v": 66
    },
    {
      "midi": 57,
      "hit": false,
      "t": 67605.50399999991,
      "d": 2112.6719999999914,
      "v": 57
    },
    {
      "midi": 64,
      "hit": false,
      "t": 67605.50399999991,
      "d": 2112.6719999999914,
      "v": 72
    },
    {
      "midi": 67,
      "hit": false,
      "t": 67605.50399999991,
      "d": 2112.6719999999914,
      "v": 69
    },
    {
      "midi": 48,
      "hit": false,
      "t": 67605.50399999991,
      "d": 2816.895999999979,
      "v": 69
    },
    {
      "midi": 55,
      "hit": false,
      "t": 69366.06399999991,
      "d": 880.2799999999843,
      "v": 99
    },
    {
      "midi": 57,
      "hit": false,
      "t": 69894.2319999999,
      "d": 352.1119999999937,
      "v": 84
    },
    {
      "midi": 64,
      "hit": false,
      "t": 69894.2319999999,
      "d": 352.1119999999937,
      "v": 79
    },
    {
      "midi": 67,
      "hit": false,
      "t": 69894.2319999999,
      "d": 352.1119999999937,
      "v": 83
    },
    {
      "midi": 47,
      "hit": false,
      "t": 70422.39999999989,
      "d": 1408.448000000004,
      "v": 85
    },
    {
      "midi": 54,
      "hit": false,
      "t": 70950.5679999999,
      "d": 880.2799999999988,
      "v": 85
    },
    {
      "midi": 57,
      "hit": false,
      "t": 71478.7359999999,
      "d": 352.1119999999937,
      "v": 66
    },
    {
      "midi": 62,
      "hit": false,
      "t": 71478.7359999999,
      "d": 352.1119999999937,
      "v": 66
    },
    {
      "midi": 62,
      "hit": false,
      "t": 71830.8479999999,
      "d": 704.224000000002,
      "v": 62
    },
    {
      "midi": 45,
      "hit": false,
      "t": 71830.8479999999,
      "d": 1408.4479999999894,
      "v": 82
    },
    {
      "midi": 66,
      "hit": false,
      "t": 71830.8479999999,
      "d": 1408.4479999999894,
      "v": 74
    },
    {
      "midi": 69,
      "hit": false,
      "t": 71830.8479999999,
      "d": 1408.4479999999894,
      "v": 67
    },
    {
      "midi": 57,
      "hit": false,
      "t": 72359.0159999999,
      "d": 880.2799999999843,
      "v": 90
    },
    {
      "midi": 62,
      "hit": false,
      "t": 72887.18399999989,
      "d": 352.1119999999937,
      "v": 79
    },
    {
      "midi": 55,
      "hit": false,
      "t": 73239.29599999989,
      "d": 1584.5040000000008,
      "v": 66
    },
    {
      "midi": 59,
      "hit": false,
      "t": 73239.29599999989,
      "d": 2112.6719999999914,
      "v": 57
    },
    {
      "midi": 66,
      "hit": false,
      "t": 73239.29599999989,
      "d": 2112.6719999999914,
      "v": 72
    },
    {
      "midi": 69,
      "hit": false,
      "t": 73239.29599999989,
      "d": 2112.6719999999914,
      "v": 69
    },
    {
      "midi": 43,
      "hit": false,
      "t": 73239.29599999989,
      "d": 2816.895999999979,
      "v": 69
    },
    {
      "midi": 55,
      "hit": false,
      "t": 74999.85599999988,
      "d": 880.2799999999843,
      "v": 99
    },
    {
      "midi": 59,
      "hit": false,
      "t": 75528.02399999987,
      "d": 352.1119999999937,
      "v": 84
    },
    {
      "midi": 66,
      "hit": false,
      "t": 75528.02399999987,
      "d": 352.1119999999937,
      "v": 79
    },
    {
      "midi": 69,
      "hit": false,
      "t": 75528.02399999987,
      "d": 352.1119999999937,
      "v": 83
    },
    {
      "midi": 47,
      "hit": false,
      "t": 76056.19199999986,
      "d": 1408.448000000004,
      "v": 85
    },
    {
      "midi": 54,
      "hit": false,
      "t": 76584.35999999987,
      "d": 880.2799999999988,
      "v": 85
    },
    {
      "midi": 57,
      "hit": false,
      "t": 77112.52799999987,
      "d": 352.1119999999937,
      "v": 66
    },
    {
      "midi": 62,
      "hit": false,
      "t": 77112.52799999987,
      "d": 352.1119999999937,
      "v": 66
    },
    {
      "midi": 62,
      "hit": false,
      "t": 77464.63999999987,
      "d": 704.224000000002,
      "v": 62
    },
    {
      "midi": 45,
      "hit": false,
      "t": 77464.63999999987,
      "d": 1408.4479999999894,
      "v": 82
    },
    {
      "midi": 66,
      "hit": false,
      "t": 77464.63999999987,
      "d": 1408.4479999999894,
      "v": 74
    },
    {
      "midi": 69,
      "hit": false,
      "t": 77464.63999999987,
      "d": 1408.4479999999894,
      "v": 67
    },
    {
      "midi": 57,
      "hit": false,
      "t": 77992.80799999987,
      "d": 880.2799999999843,
      "v": 90
    },
    {
      "midi": 62,
      "hit": false,
      "t": 78520.97599999986,
      "d": 352.1119999999937,
      "v": 79
    },
    {
      "midi": 55,
      "hit": false,
      "t": 78873.08799999986,
      "d": 1584.5040000000008,
      "v": 66
    },
    {
      "midi": 59,
      "hit": false,
      "t": 78873.08799999986,
      "d": 2112.6719999999914,
      "v": 57
    },
    {
      "midi": 66,
      "hit": false,
      "t": 78873.08799999986,
      "d": 2112.6719999999914,
      "v": 72
    },
    {
      "midi": 69,
      "hit": false,
      "t": 78873.08799999986,
      "d": 2112.6719999999914,
      "v": 69
    },
    {
      "midi": 43,
      "hit": false,
      "t": 78873.08799999986,
      "d": 2816.895999999979,
      "v": 69
    },
    {
      "midi": 55,
      "hit": false,
      "t": 80633.64799999986,
      "d": 880.2799999999843,
      "v": 99
    },
    {
      "midi": 59,
      "hit": false,
      "t": 81161.81599999985,
      "d": 352.1119999999937,
      "v": 84
    },
    {
      "midi": 66,
      "hit": false,
      "t": 81161.81599999985,
      "d": 352.1119999999937,
      "v": 79
    },
    {
      "midi": 69,
      "hit": false,
      "t": 81161.81599999985,
      "d": 352.1119999999937,
      "v": 83
    },
    {
      "midi": 47,
      "hit": false,
      "t": 81689.98399999984,
      "d": 1408.448000000004,
      "v": 85
    },
    {
      "midi": 54,
      "hit": false,
      "t": 82218.15199999984,
      "d": 880.2799999999988,
      "v": 85
    },
    {
      "midi": 57,
      "hit": false,
      "t": 82746.31999999985,
      "d": 352.1119999999937,
      "v": 66
    },
    {
      "midi": 62,
      "hit": false,
      "t": 82746.31999999985,
      "d": 352.1119999999937,
      "v": 66
    },
    {
      "midi": 62,
      "hit": false,
      "t": 83098.43199999984,
      "d": 704.224000000002,
      "v": 62
    },
    {
      "midi": 45,
      "hit": false,
      "t": 83098.43199999984,
      "d": 1408.4479999999894,
      "v": 82
    },
    {
      "midi": 66,
      "hit": false,
      "t": 83098.43199999984,
      "d": 1408.4479999999894,
      "v": 74
    },
    {
      "midi": 69,
      "hit": false,
      "t": 83098.43199999984,
      "d": 1408.4479999999894,
      "v": 67
    },
    {
      "midi": 57,
      "hit": false,
      "t": 83626.59999999985,
      "d": 880.2799999999843,
      "v": 90
    },
    {
      "midi": 62,
      "hit": false,
      "t": 84154.76799999984,
      "d": 352.1119999999937,
      "v": 79
    },
    {
      "midi": 55,
      "hit": false,
      "t": 84506.87999999983,
      "d": 176.05599999999686,
      "v": 51
    },
    {
      "midi": 59,
      "hit": false,
      "t": 84506.87999999983,
      "d": 1760.5599999999977,
      "v": 76
    },
    {
      "midi": 66,
      "hit": false,
      "t": 84506.87999999983,
      "d": 2112.6719999999914,
      "v": 77
    },
    {
      "midi": 69,
      "hit": false,
      "t": 84506.87999999983,
      "d": 2288.7279999999882,
      "v": 74
    },
    {
      "midi": 43,
      "hit": false,
      "t": 84506.87999999983,
      "d": 2816.895999999979,
      "v": 81
    },
    {
      "midi": 55,
      "hit": false,
      "t": 86267.43999999983,
      "d": 1056.3359999999811,
      "v": 81
    },
    {
      "midi": 59,
      "hit": false,
      "t": 86443.49599999982,
      "d": 880.2799999999843,
      "v": 82
    },
    {
      "midi": 66,
      "hit": false,
      "t": 86795.60799999982,
      "d": 352.1119999999937,
      "v": 67
    },
    {
      "midi": 69,
      "hit": false,
      "t": 86971.66399999982,
      "d": 352.1119999999937,
      "v": 89
    },
    {
      "midi": 54,
      "hit": false,
      "t": 87323.77599999981,
      "d": 176.05599999999686,
      "v": 51
    },
    {
      "midi": 57,
      "hit": false,
      "t": 87323.77599999981,
      "d": 1760.5599999999977,
      "v": 76
    },
    {
      "midi": 64,
      "hit": false,
      "t": 87323.77599999981,
      "d": 2112.6719999999914,
      "v": 77
    },
    {
      "midi": 66,
      "hit": false,
      "t": 87323.77599999981,
      "d": 2288.7279999999882,
      "v": 74
    },
    {
      "midi": 42,
      "hit": false,
      "t": 87323.77599999981,
      "d": 2816.895999999979,
      "v": 81
    },
    {
      "midi": 54,
      "hit": false,
      "t": 89084.3359999998,
      "d": 1056.3359999999811,
      "v": 81
    },
    {
      "midi": 57,
      "hit": false,
      "t": 89260.3919999998,
      "d": 880.2799999999843,
      "v": 82
    },
    {
      "midi": 64,
      "hit": false,
      "t": 89612.5039999998,
      "d": 352.1119999999937,
      "v": 67
    },
    {
      "midi": 66,
      "hit": false,
      "t": 89788.5599999998,
      "d": 352.1119999999937,
      "v": 89
    },
    {
      "midi": 42,
      "hit": false,
      "t": 90140.67199999979,
      "d": 1408.448000000004,
      "v": 85
    },
    {
      "midi": 54,
      "hit": false,
      "t": 90668.8399999998,
      "d": 880.2799999999988,
      "v": 85
    },
    {
      "midi": 57,
      "hit": false,
      "t": 91197.0079999998,
      "d": 352.1119999999937,
      "v": 66
    },
    {
      "midi": 64,
      "hit": false,
      "t": 91197.0079999998,
      "d": 352.1119999999937,
      "v": 66
    },
    {
      "midi": 59,
      "hit": false,
      "t": 91549.11999999979,
      "d": 704.224000000002,
      "v": 62
    },
    {
      "midi": 43,
      "hit": false,
      "t": 91549.11999999979,
      "d": 1408.4479999999894,
      "v": 82
    },
    {
      "midi": 66,
      "hit": false,
      "t": 91549.11999999979,
      "d": 1408.4479999999894,
      "v": 74
    },
    {
      "midi": 69,
      "hit": false,
      "t": 91549.11999999979,
      "d": 1408.4479999999894,
      "v": 67
    },
    {
      "midi": 55,
      "hit": false,
      "t": 92077.2879999998,
      "d": 880.2799999999843,
      "v": 90
    },
    {
      "midi": 59,
      "hit": false,
      "t": 92605.45599999979,
      "d": 352.1119999999937,
      "v": 79
    },
    {
      "midi": 57,
      "hit": false,
      "t": 92957.56799999978,
      "d": 704.224000000002,
      "v": 62
    },
    {
      "midi": 47,
      "hit": false,
      "t": 92957.56799999978,
      "d": 1408.4479999999894,
      "v": 82
    },
    {
      "midi": 62,
      "hit": false,
      "t": 92957.56799999978,
      "d": 1408.4479999999894,
      "v": 74
    },
    {
      "midi": 66,
      "hit": false,
      "t": 92957.56799999978,
      "d": 1408.4479999999894,
      "v": 67
    },
    {
      "midi": 54,
      "hit": false,
      "t": 93485.73599999979,
      "d": 880.2799999999843,
      "v": 90
    },
    {
      "midi": 57,
      "hit": false,
      "t": 94013.90399999978,
      "d": 352.1119999999937,
      "v": 79
    },
    {
      "midi": 62,
      "hit": false,
      "t": 94366.01599999977,
      "d": 704.224000000002,
      "v": 62
    },
    {
      "midi": 45,
      "hit": false,
      "t": 94366.01599999977,
      "d": 1408.4479999999894,
      "v": 82
    },
    {
      "midi": 66,
      "hit": false,
      "t": 94366.01599999977,
      "d": 1408.4479999999894,
      "v": 74
    },
    {
      "midi": 69,
      "hit": false,
      "t": 94366.01599999977,
      "d": 1408.4479999999894,
      "v": 67
    },
    {
      "midi": 57,
      "hit": false,
      "t": 94894.18399999978,
      "d": 880.2799999999843,
      "v": 90
    },
    {
      "midi": 62,
      "hit": false,
      "t": 95422.35199999977,
      "d": 352.1119999999937,
      "v": 79
    },
    {
      "midi": 55,
      "hit": false,
      "t": 95774.46399999976,
      "d": 176.05599999999686,
      "v": 51
    },
    {
      "midi": 59,
      "hit": false,
      "t": 95774.46399999976,
      "d": 1760.5599999999977,
      "v": 76
    },
    {
      "midi": 66,
      "hit": false,
      "t": 95774.46399999976,
      "d": 2112.6719999999914,
      "v": 77
    },
    {
      "midi": 69,
      "hit": false,
      "t": 95774.46399999976,
      "d": 2288.7279999999882,
      "v": 74
    },
    {
      "midi": 43,
      "hit": false,
      "t": 95774.46399999976,
      "d": 2816.895999999979,
      "v": 81
    },
    {
      "midi": 55,
      "hit": false,
      "t": 97535.02399999976,
      "d": 1056.3359999999811,
      "v": 81
    },
    {
      "midi": 59,
      "hit": false,
      "t": 97711.07999999975,
      "d": 880.2799999999843,
      "v": 82
    },
    {
      "midi": 66,
      "hit": false,
      "t": 98063.19199999975,
      "d": 352.1119999999937,
      "v": 67
    },
    {
      "midi": 69,
      "hit": false,
      "t": 98239.24799999974,
      "d": 352.1119999999937,
      "v": 89
    },
    {
      "midi": 47,
      "hit": false,
      "t": 98591.35999999974,
      "d": 1408.448000000004,
      "v": 85
    },
    {
      "midi": 54,
      "hit": false,
      "t": 99119.52799999974,
      "d": 880.2799999999988,
      "v": 85
    },
    {
      "midi": 57,
      "hit": false,
      "t": 99647.69599999975,
      "d": 352.1119999999937,
      "v": 66
    },
    {
      "midi": 62,
      "hit": false,
      "t": 99647.69599999975,
      "d": 352.1119999999937,
      "v": 66
    },
    {
      "midi": 62,
      "hit": false,
      "t": 99999.80799999974,
      "d": 704.224000000002,
      "v": 62
    },
    {
      "midi": 45,
      "hit": false,
      "t": 99999.80799999974,
      "d": 1408.4479999999894,
      "v": 82
    },
    {
      "midi": 66,
      "hit": false,
      "t": 99999.80799999974,
      "d": 1408.4479999999894,
      "v": 74
    },
    {
      "midi": 69,
      "hit": false,
      "t": 99999.80799999974,
      "d": 1408.4479999999894,
      "v": 67
    },
    {
      "midi": 57,
      "hit": false,
      "t": 100527.97599999975,
      "d": 880.2799999999843,
      "v": 90
    },
    {
      "midi": 62,
      "hit": false,
      "t": 101056.14399999974,
      "d": 352.1119999999937,
      "v": 79
    },
    {
      "midi": 55,
      "hit": false,
      "t": 101408.25599999973,
      "d": 176.05599999999686,
      "v": 51
    },
    {
      "midi": 59,
      "hit": false,
      "t": 101408.25599999973,
      "d": 1760.5599999999977,
      "v": 76
    },
    {
      "midi": 66,
      "hit": false,
      "t": 101408.25599999973,
      "d": 2112.6719999999914,
      "v": 77
    },
    {
      "midi": 69,
      "hit": false,
      "t": 101408.25599999973,
      "d": 2288.7279999999882,
      "v": 74
    },
    {
      "midi": 43,
      "hit": false,
      "t": 101408.25599999973,
      "d": 2816.895999999979,
      "v": 81
    },
    {
      "midi": 55,
      "hit": false,
      "t": 103168.81599999973,
      "d": 1056.3359999999811,
      "v": 81
    },
    {
      "midi": 59,
      "hit": false,
      "t": 103344.87199999973,
      "d": 880.2799999999843,
      "v": 82
    },
    {
      "midi": 66,
      "hit": false,
      "t": 103696.98399999972,
      "d": 352.1119999999937,
      "v": 67
    },
    {
      "midi": 69,
      "hit": false,
      "t": 103873.03999999972,
      "d": 352.1119999999937,
      "v": 89
    },
    {
      "midi": 47,
      "hit": false,
      "t": 104225.15199999971,
      "d": 1408.448000000004,
      "v": 85
    },
    {
      "midi": 54,
      "hit": false,
      "t": 104753.31999999972,
      "d": 880.2799999999988,
      "v": 85
    },
    {
      "midi": 57,
      "hit": false,
      "t": 105281.48799999972,
      "d": 352.1119999999937,
      "v": 66
    },
    {
      "midi": 62,
      "hit": false,
      "t": 105281.48799999972,
      "d": 352.1119999999937,
      "v": 66
    },
    {
      "midi": 57,
      "hit": false,
      "t": 105633.59999999971,
      "d": 352.1119999999937,
      "v": 80
    },
    {
      "midi": 62,
      "hit": false,
      "t": 105633.59999999971,
      "d": 352.1119999999937,
      "v": 80
    },
    {
      "midi": 66,
      "hit": false,
      "t": 105633.59999999971,
      "d": 352.1119999999937,
      "v": 80
    },
    {
      "midi": 57,
      "hit": false,
      "t": 105985.71199999971,
      "d": 176.05599999999686,
      "v": 70
    },
    {
      "midi": 62,
      "hit": false,
      "t": 105985.71199999971,
      "d": 176.05599999999686,
      "v": 70
    },
    {
      "midi": 66,
      "hit": false,
      "t": 105985.71199999971,
      "d": 176.05599999999686,
      "v": 70
    },
    {
      "midi": 43,
      "hit": false,
      "t": 107394.15999999971,
      "d": 1232.3919999999925,
      "v": 93
    },
    {
      "midi": 55,
      "hit": false,
      "t": 107570.21599999971,
      "d": 1056.3359999999957,
      "v": 89
    },
    {
      "midi": 59,
      "hit": false,
      "t": 107922.3279999997,
      "d": 1408.448000000004,
      "v": 43
    },
    {
      "midi": 66,
      "hit": false,
      "t": 108098.3839999997,
      "d": 1056.3360000000102,
      "v": 71
    },
    {
      "midi": 69,
      "hit": false,
      "t": 108098.3839999997,
      "d": 1232.392000000007,
      "v": 81
    },
    {
      "midi": 54,
      "hit": false,
      "t": 109858.94399999971,
      "d": 176.05599999999686,
      "v": 51
    },
    {
      "midi": 57,
      "hit": false,
      "t": 109858.94399999971,
      "d": 1760.5599999999977,
      "v": 76
    },
    {
      "midi": 64,
      "hit": false,
      "t": 109858.94399999971,
      "d": 2112.6719999999914,
      "v": 77
    },
    {
      "midi": 66,
      "hit": false,
      "t": 109858.94399999971,
      "d": 2288.7279999999882,
      "v": 74
    },
    {
      "midi": 42,
      "hit": false,
      "t": 109858.94399999971,
      "d": 2816.895999999979,
      "v": 81
    },
    {
      "midi": 54,
      "hit": false,
      "t": 111619.50399999971,
      "d": 1056.3359999999811,
      "v": 81
    },
    {
      "midi": 57,
      "hit": false,
      "t": 111795.5599999997,
      "d": 880.2799999999843,
      "v": 82
    },
    {
      "midi": 64,
      "hit": false,
      "t": 112147.6719999997,
      "d": 352.1119999999937,
      "v": 67
    },
    {
      "midi": 66,
      "hit": false,
      "t": 112323.7279999997,
      "d": 352.1119999999937,
      "v": 89
    },
    {
      "midi": 55,
      "hit": false,
      "t": 112675.83999999969,
      "d": 1408.448000000004,
      "v": 89
    },
    {
      "midi": 59,
      "hit": false,
      "t": 112675.83999999969,
      "d": 1408.448000000004,
      "v": 43
    },
    {
      "midi": 66,
      "hit": false,
      "t": 112675.83999999969,
      "d": 1408.448000000004,
      "v": 71
    },
    {
      "midi": 69,
      "hit": false,
      "t": 112675.83999999969,
      "d": 1408.448000000004,
      "v": 81
    },
    {
      "midi": 43,
      "hit": false,
      "t": 112675.83999999969,
      "d": 1461.2648000000045,
      "v": 93
    },
    {
      "midi": 57,
      "hit": false,
      "t": 115492.7359999997,
      "d": 1584.5040000000008,
      "v": 66
    },
    {
      "midi": 61,
      "hit": false,
      "t": 115492.7359999997,
      "d": 2112.6719999999914,
      "v": 57
    },
    {
      "midi": 66,
      "hit": false,
      "t": 115492.7359999997,
      "d": 2112.6719999999914,
      "v": 72
    },
    {
      "midi": 69,
      "hit": false,
      "t": 115492.7359999997,
      "d": 2112.6719999999914,
      "v": 69
    },
    {
      "midi": 50,
      "hit": false,
      "t": 115492.7359999997,
      "d": 2816.895999999979,
      "v": 69
    },
    {
      "midi": 57,
      "hit": false,
      "t": 117253.2959999997,
      "d": 880.2799999999843,
      "v": 99
    },
    {
      "midi": 61,
      "hit": false,
      "t": 117781.46399999969,
      "d": 352.1119999999937,
      "v": 84
    },
    {
      "midi": 66,
      "hit": false,
      "t": 117781.46399999969,
      "d": 352.1119999999937,
      "v": 79
    },
    {
      "midi": 69,
      "hit": false,
      "t": 117781.46399999969,
      "d": 352.1119999999937,
      "v": 83
    },
    {
      "midi": 47,
      "hit": false,
      "t": 118661.74399999967,
      "d": 1232.3919999999925,
      "v": 93
    },
    {
      "midi": 54,
      "hit": false,
      "t": 118837.79999999967,
      "d": 1056.3359999999957,
      "v": 89
    },
    {
      "midi": 57,
      "hit": false,
      "t": 119189.91199999966,
      "d": 1408.448000000004,
      "v": 43
    },
    {
      "midi": 62,
      "hit": false,
      "t": 119365.96799999966,
      "d": 1056.3360000000102,
      "v": 71
    },
    {
      "midi": 66,
      "hit": false,
      "t": 119365.96799999966,
      "d": 1232.392000000007,
      "v": 81
    },
    {
      "midi": 55,
      "hit": false,
      "t": 121126.52799999967,
      "d": 1584.5040000000008,
      "v": 66
    },
    {
      "midi": 59,
      "hit": false,
      "t": 121126.52799999967,
      "d": 2112.6719999999914,
      "v": 57
    },
    {
      "midi": 66,
      "hit": false,
      "t": 121126.52799999967,
      "d": 2112.6719999999914,
      "v": 72
    },
    {
      "midi": 69,
      "hit": false,
      "t": 121126.52799999967,
      "d": 2112.6719999999914,
      "v": 69
    },
    {
      "midi": 43,
      "hit": false,
      "t": 121126.52799999967,
      "d": 2816.895999999979,
      "v": 69
    },
    {
      "midi": 55,
      "hit": false,
      "t": 122887.08799999967,
      "d": 880.2799999999843,
      "v": 99
    },
    {
      "midi": 59,
      "hit": false,
      "t": 123415.25599999966,
      "d": 352.1119999999937,
      "v": 84
    },
    {
      "midi": 66,
      "hit": false,
      "t": 123415.25599999966,
      "d": 352.1119999999937,
      "v": 79
    },
    {
      "midi": 69,
      "hit": false,
      "t": 123415.25599999966,
      "d": 352.1119999999937,
      "v": 83
    },
    {
      "midi": 40,
      "hit": false,
      "t": 123943.42399999965,
      "d": 1408.448000000004,
      "v": 85
    },
    {
      "midi": 52,
      "hit": false,
      "t": 124471.59199999965,
      "d": 880.2799999999988,
      "v": 85
    },
    {
      "midi": 55,
      "hit": false,
      "t": 124999.75999999966,
      "d": 352.1119999999937,
      "v": 66
    },
    {
      "midi": 62,
      "hit": false,
      "t": 124999.75999999966,
      "d": 352.1119999999937,
      "v": 66
    },
    {
      "midi": 61,
      "hit": false,
      "t": 125351.87199999965,
      "d": 352.1119999999937,
      "v": 80
    },
    {
      "midi": 66,
      "hit": false,
      "t": 125351.87199999965,
      "d": 352.1119999999937,
      "v": 80
    },
    {
      "midi": 67,
      "hit": false,
      "t": 125351.87199999965,
      "d": 352.1119999999937,
      "v": 80
    },
    {
      "midi": 71,
      "hit": false,
      "t": 125351.87199999965,
      "d": 352.1119999999937,
      "v": 80
    },
    {
      "midi": 61,
      "hit": false,
      "t": 125703.98399999965,
      "d": 176.05599999999686,
      "v": 70
    },
    {
      "midi": 66,
      "hit": false,
      "t": 125703.98399999965,
      "d": 176.05599999999686,
      "v": 70
    },
    {
      "midi": 67,
      "hit": false,
      "t": 125703.98399999965,
      "d": 176.05599999999686,
      "v": 70
    },
    {
      "midi": 71,
      "hit": false,
      "t": 125703.98399999965,
      "d": 176.05599999999686,
      "v": 70
    },
    {
      "midi": 57,
      "hit": false,
      "t": 126760.31999999964,
      "d": 1584.5040000000008,
      "v": 66
    },
    {
      "midi": 61,
      "hit": false,
      "t": 126760.31999999964,
      "d": 2112.6719999999914,
      "v": 57
    },
    {
      "midi": 66,
      "hit": false,
      "t": 126760.31999999964,
      "d": 2112.6719999999914,
      "v": 72
    },
    {
      "midi": 69,
      "hit": false,
      "t": 126760.31999999964,
      "d": 2112.6719999999914,
      "v": 69
    },
    {
      "midi": 50,
      "hit": false,
      "t": 126760.31999999964,
      "d": 2816.895999999979,
      "v": 69
    },
    {
      "midi": 57,
      "hit": false,
      "t": 128520.87999999964,
      "d": 880.2799999999843,
      "v": 99
    },
    {
      "midi": 61,
      "hit": false,
      "t": 129049.04799999963,
      "d": 352.1119999999937,
      "v": 84
    },
    {
      "midi": 66,
      "hit": false,
      "t": 129049.04799999963,
      "d": 352.1119999999937,
      "v": 79
    },
    {
      "midi": 69,
      "hit": false,
      "t": 129049.04799999963,
      "d": 352.1119999999937,
      "v": 83
    },
    {
      "midi": 47,
      "hit": false,
      "t": 129929.32799999962,
      "d": 1232.391999999978,
      "v": 93
    },
    {
      "midi": 54,
      "hit": false,
      "t": 130105.38399999961,
      "d": 1056.3359999999811,
      "v": 89
    },
    {
      "midi": 57,
      "hit": false,
      "t": 130457.4959999996,
      "d": 1408.448000000004,
      "v": 43
    },
    {
      "midi": 62,
      "hit": false,
      "t": 130633.5519999996,
      "d": 1056.3359999999957,
      "v": 71
    },
    {
      "midi": 66,
      "hit": false,
      "t": 130633.5519999996,
      "d": 1232.392000000007,
      "v": 81
    },
    {
      "midi": 55,
      "hit": false,
      "t": 132394.11199999962,
      "d": 1584.5039999999863,
      "v": 66
    },
    {
      "midi": 59,
      "hit": false,
      "t": 132394.11199999962,
      "d": 2112.6719999999914,
      "v": 57
    },
    {
      "midi": 66,
      "hit": false,
      "t": 132394.11199999962,
      "d": 2112.6719999999914,
      "v": 72
    },
    {
      "midi": 69,
      "hit": false,
      "t": 132394.11199999962,
      "d": 2112.6719999999914,
      "v": 69
    },
    {
      "midi": 43,
      "hit": false,
      "t": 132394.11199999962,
      "d": 2816.896000000008,
      "v": 69
    },
    {
      "midi": 55,
      "hit": false,
      "t": 134154.6719999996,
      "d": 880.2799999999988,
      "v": 99
    },
    {
      "midi": 59,
      "hit": false,
      "t": 134682.83999999962,
      "d": 352.1119999999937,
      "v": 84
    },
    {
      "midi": 66,
      "hit": false,
      "t": 134682.83999999962,
      "d": 352.1119999999937,
      "v": 79
    },
    {
      "midi": 69,
      "hit": false,
      "t": 134682.83999999962,
      "d": 352.1119999999937,
      "v": 83
    },
    {
      "midi": 40,
      "hit": false,
      "t": 135211.00799999962,
      "d": 1408.448000000004,
      "v": 85
    },
    {
      "midi": 52,
      "hit": false,
      "t": 135739.17599999963,
      "d": 880.2799999999988,
      "v": 85
    },
    {
      "midi": 55,
      "hit": false,
      "t": 136267.34399999963,
      "d": 352.1119999999937,
      "v": 66
    },
    {
      "midi": 62,
      "hit": false,
      "t": 136267.34399999963,
      "d": 352.1119999999937,
      "v": 66
    },
    {
      "midi": 61,
      "hit": false,
      "t": 136619.45599999963,
      "d": 352.1119999999937,
      "v": 80
    },
    {
      "midi": 66,
      "hit": false,
      "t": 136619.45599999963,
      "d": 352.1119999999937,
      "v": 80
    },
    {
      "midi": 67,
      "hit": false,
      "t": 136619.45599999963,
      "d": 352.1119999999937,
      "v": 80
    },
    {
      "midi": 71,
      "hit": false,
      "t": 136619.45599999963,
      "d": 352.1119999999937,
      "v": 80
    },
    {
      "midi": 61,
      "hit": false,
      "t": 136971.56799999962,
      "d": 176.0560000000114,
      "v": 70
    },
    {
      "midi": 66,
      "hit": false,
      "t": 136971.56799999962,
      "d": 176.0560000000114,
      "v": 70
    },
    {
      "midi": 67,
      "hit": false,
      "t": 136971.56799999962,
      "d": 176.0560000000114,
      "v": 70
    },
    {
      "midi": 71,
      "hit": false,
      "t": 136971.56799999962,
      "d": 176.0560000000114,
      "v": 70
    },
    {
      "midi": 50,
      "hit": false,
      "t": 138027.90399999963,
      "d": 2816.896000000008,
      "v": 72
    },
    {
      "midi": 61,
      "hit": false,
      "t": 138027.90399999963,
      "d": 2816.896000000008,
      "v": 71
    },
    {
      "midi": 66,
      "hit": false,
      "t": 138027.90399999963,
      "d": 2816.896000000008,
      "v": 62
    },
    {
      "midi": 69,
      "hit": false,
      "t": 138027.90399999963,
      "d": 2816.896000000008,
      "v": 65
    },
    {
      "midi": 57,
      "hit": false,
      "t": 139788.46399999963,
      "d": 352.1119999999937,
      "v": 92
    },
    {
      "midi": 57,
      "hit": false,
      "t": 140316.63199999963,
      "d": 528.1680000000051,
      "v": 92
    },
    {
      "midi": 54,
      "hit": false,
      "t": 140844.79999999964,
      "d": 1584.5039999999863,
      "v": 66
    },
    {
      "midi": 57,
      "hit": false,
      "t": 140844.79999999964,
      "d": 2112.6719999999914,
      "v": 57
    },
    {
      "midi": 62,
      "hit": false,
      "t": 140844.79999999964,
      "d": 2112.6719999999914,
      "v": 72
    },
    {
      "midi": 66,
      "hit": false,
      "t": 140844.79999999964,
      "d": 2112.6719999999914,
      "v": 69
    },
    {
      "midi": 47,
      "hit": false,
      "t": 140844.79999999964,
      "d": 2816.896000000008,
      "v": 69
    },
    {
      "midi": 54,
      "hit": false,
      "t": 142605.35999999964,
      "d": 880.2799999999988,
      "v": 99
    },
    {
      "midi": 57,
      "hit": false,
      "t": 143133.52799999964,
      "d": 352.1119999999937,
      "v": 84
    },
    {
      "midi": 62,
      "hit": false,
      "t": 143133.52799999964,
      "d": 352.1119999999937,
      "v": 79
    },
    {
      "midi": 66,
      "hit": false,
      "t": 143133.52799999964,
      "d": 352.1119999999937,
      "v": 83
    },
    {
      "midi": 43,
      "hit": false,
      "t": 144013.80799999964,
      "d": 1232.3920000000217,
      "v": 93
    },
    {
      "midi": 55,
      "hit": false,
      "t": 144189.86399999965,
      "d": 1056.3360000000102,
      "v": 89
    },
    {
      "midi": 59,
      "hit": false,
      "t": 144541.97599999965,
      "d": 1408.448000000033,
      "v": 43
    },
    {
      "midi": 66,
      "hit": false,
      "t": 144718.03199999966,
      "d": 1056.3360000000102,
      "v": 71
    },
    {
      "midi": 69,
      "hit": false,
      "t": 144718.03199999966,
      "d": 1232.3920000000217,
      "v": 81
    },
    {
      "midi": 55,
      "hit": false,
      "t": 146478.59199999968,
      "d": 704.2240000000165,
      "v": 62
    },
    {
      "midi": 40,
      "hit": false,
      "t": 146478.59199999968,
      "d": 1408.448000000004,
      "v": 82
    },
    {
      "midi": 62,
      "hit": false,
      "t": 146478.59199999968,
      "d": 1408.448000000004,
      "v": 74
    },
    {
      "midi": 66,
      "hit": false,
      "t": 146478.59199999968,
      "d": 1408.448000000004,
      "v": 67
    },
    {
      "midi": 52,
      "hit": false,
      "t": 147006.7599999997,
      "d": 880.2799999999988,
      "v": 90
    },
    {
      "midi": 55,
      "hit": false,
      "t": 147534.9279999997,
      "d": 352.1119999999937,
      "v": 79
    },
    {
      "midi": 61,
      "hit": false,
      "t": 147887.0399999997,
      "d": 352.1119999999937,
      "v": 80
    },
    {
      "midi": 66,
      "hit": false,
      "t": 147887.0399999997,
      "d": 352.1119999999937,
      "v": 80
    },
    {
      "midi": 67,
      "hit": false,
      "t": 147887.0399999997,
      "d": 352.1119999999937,
      "v": 80
    },
    {
      "midi": 71,
      "hit": false,
      "t": 147887.0399999997,
      "d": 352.1119999999937,
      "v": 80
    },
    {
      "midi": 61,
      "hit": false,
      "t": 148239.15199999968,
      "d": 176.0560000000114,
      "v": 70
    },
    {
      "midi": 66,
      "hit": false,
      "t": 148239.15199999968,
      "d": 176.0560000000114,
      "v": 70
    },
    {
      "midi": 67,
      "hit": false,
      "t": 148239.15199999968,
      "d": 176.0560000000114,
      "v": 70
    },
    {
      "midi": 71,
      "hit": false,
      "t": 148239.15199999968,
      "d": 176.0560000000114,
      "v": 70
    },
    {
      "midi": 50,
      "hit": false,
      "t": 149295.4879999997,
      "d": 2816.896000000008,
      "v": 72
    },
    {
      "midi": 61,
      "hit": false,
      "t": 149295.4879999997,
      "d": 2816.896000000008,
      "v": 71
    },
    {
      "midi": 66,
      "hit": false,
      "t": 149295.4879999997,
      "d": 2816.896000000008,
      "v": 62
    },
    {
      "midi": 69,
      "hit": false,
      "t": 149295.4879999997,
      "d": 2816.896000000008,
      "v": 65
    },
    {
      "midi": 57,
      "hit": false,
      "t": 151056.0479999997,
      "d": 352.1119999999937,
      "v": 92
    },
    {
      "midi": 57,
      "hit": false,
      "t": 151584.2159999997,
      "d": 528.1680000000051,
      "v": 92
    },
    {
      "midi": 54,
      "hit": false,
      "t": 152112.3839999997,
      "d": 176.0560000000114,
      "v": 51
    },
    {
      "midi": 57,
      "hit": false,
      "t": 152112.3839999997,
      "d": 1760.5599999999977,
      "v": 76
    },
    {
      "midi": 62,
      "hit": false,
      "t": 152112.3839999997,
      "d": 2112.6720000000205,
      "v": 77
    },
    {
      "midi": 66,
      "hit": false,
      "t": 152112.3839999997,
      "d": 2288.728000000032,
      "v": 74
    },
    {
      "midi": 47,
      "hit": false,
      "t": 152112.3839999997,
      "d": 2816.896000000066,
      "v": 81
    },
    {
      "midi": 54,
      "hit": false,
      "t": 153872.9439999997,
      "d": 1056.3360000000685,
      "v": 81
    },
    {
      "midi": 57,
      "hit": false,
      "t": 154048.9999999997,
      "d": 880.280000000057,
      "v": 82
    },
    {
      "midi": 62,
      "hit": false,
      "t": 154401.11199999973,
      "d": 352.1120000000228,
      "v": 67
    },
    {
      "midi": 66,
      "hit": false,
      "t": 154577.16799999974,
      "d": 352.1120000000228,
      "v": 89
    },
    {
      "midi": 55,
      "hit": false,
      "t": 154929.27999999977,
      "d": 1584.5039999999863,
      "v": 63
    },
    {
      "midi": 59,
      "hit": false,
      "t": 154929.27999999977,
      "d": 2112.6719999999914,
      "v": 67
    },
    {
      "midi": 43,
      "hit": false,
      "t": 154929.27999999977,
      "d": 2816.896000000008,
      "v": 63
    },
    {
      "midi": 66,
      "hit": false,
      "t": 154929.27999999977,
      "d": 2816.896000000008,
      "v": 72
    },
    {
      "midi": 69,
      "hit": false,
      "t": 154929.27999999977,
      "d": 2816.896000000008,
      "v": 63
    },
    {
      "midi": 55,
      "hit": false,
      "t": 156689.83999999976,
      "d": 1056.3360000000102,
      "v": 87
    },
    {
      "midi": 59,
      "hit": false,
      "t": 157218.00799999977,
      "d": 528.1680000000051,
      "v": 78
    },
    {
      "midi": 40,
      "hit": false,
      "t": 157746.17599999977,
      "d": 1408.448000000004,
      "v": 85
    },
    {
      "midi": 52,
      "hit": false,
      "t": 158274.34399999978,
      "d": 880.2799999999988,
      "v": 85
    },
    {
      "midi": 55,
      "hit": false,
      "t": 158802.51199999978,
      "d": 352.1119999999937,
      "v": 66
    },
    {
      "midi": 62,
      "hit": false,
      "t": 158802.51199999978,
      "d": 352.1119999999937,
      "v": 66
    },
    {
      "midi": 61,
      "hit": false,
      "t": 159154.62399999978,
      "d": 352.1119999999937,
      "v": 80
    },
    {
      "midi": 66,
      "hit": false,
      "t": 159154.62399999978,
      "d": 352.1119999999937,
      "v": 80
    },
    {
      "midi": 67,
      "hit": false,
      "t": 159154.62399999978,
      "d": 352.1119999999937,
      "v": 80
    },
    {
      "midi": 71,
      "hit": false,
      "t": 159154.62399999978,
      "d": 352.1119999999937,
      "v": 80
    },
    {
      "midi": 61,
      "hit": false,
      "t": 159506.73599999977,
      "d": 176.0560000000114,
      "v": 70
    },
    {
      "midi": 66,
      "hit": false,
      "t": 159506.73599999977,
      "d": 176.0560000000114,
      "v": 70
    },
    {
      "midi": 67,
      "hit": false,
      "t": 159506.73599999977,
      "d": 176.0560000000114,
      "v": 70
    },
    {
      "midi": 71,
      "hit": false,
      "t": 159506.73599999977,
      "d": 176.0560000000114,
      "v": 70
    },
    {
      "midi": 50,
      "hit": false,
      "t": 160915.18399999978,
      "d": 1232.3920000000217,
      "v": 93
    },
    {
      "midi": 57,
      "hit": false,
      "t": 161091.2399999998,
      "d": 1056.3360000000102,
      "v": 89
    },
    {
      "midi": 61,
      "hit": false,
      "t": 161443.35199999978,
      "d": 1408.448000000033,
      "v": 43
    },
    {
      "midi": 66,
      "hit": false,
      "t": 161619.4079999998,
      "d": 1056.3360000000102,
      "v": 71
    },
    {
      "midi": 69,
      "hit": false,
      "t": 161619.4079999998,
      "d": 1232.3920000000217,
      "v": 81
    },
    {
      "midi": 47,
      "hit": false,
      "t": 163379.96799999982,
      "d": 2816.896000000008,
      "v": 72
    },
    {
      "midi": 57,
      "hit": false,
      "t": 163379.96799999982,
      "d": 2816.896000000008,
      "v": 71
    },
    {
      "midi": 62,
      "hit": false,
      "t": 163379.96799999982,
      "d": 2816.896000000008,
      "v": 62
    },
    {
      "midi": 66,
      "hit": false,
      "t": 163379.96799999982,
      "d": 2816.896000000008,
      "v": 65
    },
    {
      "midi": 54,
      "hit": false,
      "t": 165140.52799999982,
      "d": 352.1119999999937,
      "v": 92
    },
    {
      "midi": 54,
      "hit": false,
      "t": 165668.69599999982,
      "d": 528.1680000000051,
      "v": 92
    },
    {
      "midi": 43,
      "hit": false,
      "t": 166196.86399999983,
      "d": 2816.896000000008,
      "v": 72
    },
    {
      "midi": 59,
      "hit": false,
      "t": 166196.86399999983,
      "d": 2816.896000000008,
      "v": 71
    },
    {
      "midi": 66,
      "hit": false,
      "t": 166196.86399999983,
      "d": 2816.896000000008,
      "v": 62
    },
    {
      "midi": 69,
      "hit": false,
      "t": 166196.86399999983,
      "d": 2816.896000000008,
      "v": 65
    },
    {
      "midi": 55,
      "hit": false,
      "t": 167957.42399999982,
      "d": 352.1119999999937,
      "v": 92
    },
    {
      "midi": 55,
      "hit": false,
      "t": 168485.59199999983,
      "d": 528.1680000000051,
      "v": 92
    },
    {
      "midi": 40,
      "hit": false,
      "t": 169013.75999999983,
      "d": 1408.448000000004,
      "v": 85
    },
    {
      "midi": 52,
      "hit": false,
      "t": 169541.92799999984,
      "d": 880.2799999999988,
      "v": 85
    },
    {
      "midi": 55,
      "hit": false,
      "t": 170070.09599999984,
      "d": 352.1119999999937,
      "v": 66
    },
    {
      "midi": 62,
      "hit": false,
      "t": 170070.09599999984,
      "d": 352.1119999999937,
      "v": 66
    },
    {
      "midi": 55,
      "hit": false,
      "t": 170422.20799999984,
      "d": 704.2240000000165,
      "v": 62
    },
    {
      "midi": 45,
      "hit": false,
      "t": 170422.20799999984,
      "d": 1408.448000000004,
      "v": 82
    },
    {
      "midi": 61,
      "hit": false,
      "t": 170422.20799999984,
      "d": 1408.448000000004,
      "v": 74
    },
    {
      "midi": 64,
      "hit": false,
      "t": 170422.20799999984,
      "d": 1408.448000000004,
      "v": 67
    },
    {
      "midi": 52,
      "hit": false,
      "t": 170950.37599999984,
      "d": 880.2799999999988,
      "v": 90
    },
    {
      "midi": 55,
      "hit": false,
      "t": 171478.54399999985,
      "d": 352.1119999999937,
      "v": 79
    },
    {
      "midi": 57,
      "hit": false,
      "t": 171830.65599999984,
      "d": 1584.5039999999863,
      "v": 66
    },
    {
      "midi": 61,
      "hit": false,
      "t": 171830.65599999984,
      "d": 2112.6719999999914,
      "v": 57
    },
    {
      "midi": 66,
      "hit": false,
      "t": 171830.65599999984,
      "d": 2112.6719999999914,
      "v": 72
    },
    {
      "midi": 69,
      "hit": false,
      "t": 171830.65599999984,
      "d": 2112.6719999999914,
      "v": 69
    },
    {
      "midi": 50,
      "hit": false,
      "t": 171830.65599999984,
      "d": 2816.896000000008,
      "v": 69
    },
    {
      "midi": 57,
      "hit": false,
      "t": 173591.21599999984,
      "d": 880.2799999999988,
      "v": 99
    },
    {
      "midi": 61,
      "hit": false,
      "t": 174119.38399999985,
      "d": 352.1119999999937,
      "v": 84
    },
    {
      "midi": 66,
      "hit": false,
      "t": 174119.38399999985,
      "d": 352.1119999999937,
      "v": 79
    },
    {
      "midi": 69,
      "hit": false,
      "t": 174119.38399999985,
      "d": 352.1119999999937,
      "v": 83
    },
    {
      "midi": 54,
      "hit": false,
      "t": 174647.55199999985,
      "d": 176.0560000000114,
      "v": 51
    },
    {
      "midi": 57,
      "hit": false,
      "t": 174647.55199999985,
      "d": 1760.5599999999977,
      "v": 76
    },
    {
      "midi": 62,
      "hit": false,
      "t": 174647.55199999985,
      "d": 2112.6720000000205,
      "v": 77
    },
    {
      "midi": 66,
      "hit": false,
      "t": 174647.55199999985,
      "d": 2288.728000000032,
      "v": 74
    },
    {
      "midi": 47,
      "hit": false,
      "t": 174647.55199999985,
      "d": 2816.896000000066,
      "v": 81
    },
    {
      "midi": 54,
      "hit": false,
      "t": 176408.11199999985,
      "d": 1056.3360000000685,
      "v": 81
    },
    {
      "midi": 57,
      "hit": false,
      "t": 176584.16799999986,
      "d": 880.280000000057,
      "v": 82
    },
    {
      "midi": 62,
      "hit": false,
      "t": 176936.27999999988,
      "d": 352.1120000000228,
      "v": 67
    },
    {
      "midi": 66,
      "hit": false,
      "t": 177112.3359999999,
      "d": 352.1120000000228,
      "v": 89
    },
    {
      "midi": 43,
      "hit": false,
      "t": 177464.44799999992,
      "d": 2816.896000000008,
      "v": 72
    },
    {
      "midi": 59,
      "hit": false,
      "t": 177464.44799999992,
      "d": 2816.896000000008,
      "v": 71
    },
    {
      "midi": 66,
      "hit": false,
      "t": 177464.44799999992,
      "d": 2816.896000000008,
      "v": 62
    },
    {
      "midi": 69,
      "hit": false,
      "t": 177464.44799999992,
      "d": 2816.896000000008,
      "v": 65
    },
    {
      "midi": 55,
      "hit": false,
      "t": 179225.0079999999,
      "d": 352.1119999999937,
      "v": 92
    },
    {
      "midi": 55,
      "hit": false,
      "t": 179753.17599999992,
      "d": 528.1680000000051,
      "v": 92
    },
    {
      "midi": 55,
      "hit": false,
      "t": 180281.34399999992,
      "d": 1584.5039999999863,
      "v": 66
    },
    {
      "midi": 57,
      "hit": false,
      "t": 180281.34399999992,
      "d": 2112.6719999999914,
      "v": 57
    },
    {
      "midi": 64,
      "hit": false,
      "t": 180281.34399999992,
      "d": 2112.6719999999914,
      "v": 72
    },
    {
      "midi": 67,
      "hit": false,
      "t": 180281.34399999992,
      "d": 2112.6719999999914,
      "v": 69
    },
    {
      "midi": 48,
      "hit": false,
      "t": 180281.34399999992,
      "d": 2816.896000000008,
      "v": 69
    },
    {
      "midi": 55,
      "hit": false,
      "t": 182041.90399999992,
      "d": 880.2799999999988,
      "v": 99
    },
    {
      "midi": 57,
      "hit": false,
      "t": 182570.07199999993,
      "d": 352.1119999999937,
      "v": 84
    },
    {
      "midi": 64,
      "hit": false,
      "t": 182570.07199999993,
      "d": 352.1119999999937,
      "v": 79
    },
    {
      "midi": 67,
      "hit": false,
      "t": 182570.07199999993,
      "d": 352.1119999999937,
      "v": 83
    },
    {
      "midi": 47,
      "hit": false,
      "t": 183098.23999999993,
      "d": 1408.448000000004,
      "v": 85
    },
    {
      "midi": 54,
      "hit": false,
      "t": 183626.40799999994,
      "d": 880.2799999999988,
      "v": 85
    },
    {
      "midi": 57,
      "hit": false,
      "t": 184154.57599999994,
      "d": 352.1119999999937,
      "v": 66
    },
    {
      "midi": 62,
      "hit": false,
      "t": 184154.57599999994,
      "d": 352.1119999999937,
      "v": 66
    },
    {
      "midi": 62,
      "hit": false,
      "t": 184506.68799999994,
      "d": 704.2240000000165,
      "v": 62
    },
    {
      "midi": 45,
      "hit": false,
      "t": 184506.68799999994,
      "d": 1408.448000000004,
      "v": 82
    },
    {
      "midi": 66,
      "hit": false,
      "t": 184506.68799999994,
      "d": 1408.448000000004,
      "v": 74
    },
    {
      "midi": 69,
      "hit": false,
      "t": 184506.68799999994,
      "d": 1408.448000000004,
      "v": 67
    },
    {
      "midi": 57,
      "hit": false,
      "t": 185034.85599999994,
      "d": 880.2799999999988,
      "v": 90
    },
    {
      "midi": 62,
      "hit": false,
      "t": 185563.02399999995,
      "d": 352.1119999999937,
      "v": 79
    },
    {
      "midi": 55,
      "hit": false,
      "t": 185915.13599999994,
      "d": 1584.5039999999863,
      "v": 66
    },
    {
      "midi": 59,
      "hit": false,
      "t": 185915.13599999994,
      "d": 2112.6719999999914,
      "v": 57
    },
    {
      "midi": 66,
      "hit": false,
      "t": 185915.13599999994,
      "d": 2112.6719999999914,
      "v": 72
    },
    {
      "midi": 69,
      "hit": false,
      "t": 185915.13599999994,
      "d": 2112.6719999999914,
      "v": 69
    },
    {
      "midi": 43,
      "hit": false,
      "t": 185915.13599999994,
      "d": 2816.896000000008,
      "v": 69
    },
    {
      "midi": 55,
      "hit": false,
      "t": 187675.69599999994,
      "d": 880.2799999999988,
      "v": 99
    },
    {
      "midi": 59,
      "hit": false,
      "t": 188203.86399999994,
      "d": 352.1119999999937,
      "v": 84
    },
    {
      "midi": 66,
      "hit": false,
      "t": 188203.86399999994,
      "d": 352.1119999999937,
      "v": 79
    },
    {
      "midi": 69,
      "hit": false,
      "t": 188203.86399999994,
      "d": 352.1119999999937,
      "v": 83
    },
    {
      "midi": 47,
      "hit": false,
      "t": 188732.03199999995,
      "d": 1408.448000000004,
      "v": 85
    },
    {
      "midi": 54,
      "hit": false,
      "t": 189260.19999999995,
      "d": 880.2799999999988,
      "v": 85
    },
    {
      "midi": 57,
      "hit": false,
      "t": 189788.36799999996,
      "d": 352.1119999999937,
      "v": 66
    },
    {
      "midi": 62,
      "hit": false,
      "t": 189788.36799999996,
      "d": 352.1119999999937,
      "v": 66
    },
    {
      "midi": 62,
      "hit": false,
      "t": 190140.47999999995,
      "d": 704.2240000000165,
      "v": 62
    },
    {
      "midi": 45,
      "hit": false,
      "t": 190140.47999999995,
      "d": 1408.448000000004,
      "v": 82
    },
    {
      "midi": 66,
      "hit": false,
      "t": 190140.47999999995,
      "d": 1408.448000000004,
      "v": 74
    },
    {
      "midi": 69,
      "hit": false,
      "t": 190140.47999999995,
      "d": 1408.448000000004,
      "v": 67
    },
    {
      "midi": 57,
      "hit": false,
      "t": 190668.64799999996,
      "d": 880.2799999999988,
      "v": 90
    },
    {
      "midi": 62,
      "hit": false,
      "t": 191196.81599999996,
      "d": 352.1119999999937,
      "v": 79
    },
    {
      "midi": 55,
      "hit": false,
      "t": 191548.92799999996,
      "d": 1584.5039999999863,
      "v": 66
    },
    {
      "midi": 59,
      "hit": false,
      "t": 191548.92799999996,
      "d": 2112.6719999999914,
      "v": 57
    },
    {
      "midi": 66,
      "hit": false,
      "t": 191548.92799999996,
      "d": 2112.6719999999914,
      "v": 72
    },
    {
      "midi": 69,
      "hit": false,
      "t": 191548.92799999996,
      "d": 2112.6719999999914,
      "v": 69
    },
    {
      "midi": 43,
      "hit": false,
      "t": 191548.92799999996,
      "d": 2816.896000000008,
      "v": 69
    },
    {
      "midi": 55,
      "hit": false,
      "t": 193309.48799999995,
      "d": 880.2799999999988,
      "v": 99
    },
    {
      "midi": 59,
      "hit": false,
      "t": 193837.65599999996,
      "d": 352.1119999999937,
      "v": 84
    },
    {
      "midi": 66,
      "hit": false,
      "t": 193837.65599999996,
      "d": 352.1119999999937,
      "v": 79
    },
    {
      "midi": 69,
      "hit": false,
      "t": 193837.65599999996,
      "d": 352.1119999999937,
      "v": 83
    },
    {
      "midi": 47,
      "hit": false,
      "t": 194365.82399999996,
      "d": 1408.448000000004,
      "v": 85
    },
    {
      "midi": 54,
      "hit": false,
      "t": 194893.99199999997,
      "d": 880.2799999999988,
      "v": 85
    },
    {
      "midi": 57,
      "hit": false,
      "t": 195422.15999999997,
      "d": 352.1119999999937,
      "v": 66
    },
    {
      "midi": 62,
      "hit": false,
      "t": 195422.15999999997,
      "d": 352.1119999999937,
      "v": 66
    },
    {
      "midi": 62,
      "hit": false,
      "t": 195774.27199999997,
      "d": 704.2240000000165,
      "v": 62
    },
    {
      "midi": 45,
      "hit": false,
      "t": 195774.27199999997,
      "d": 1408.448000000004,
      "v": 82
    },
    {
      "midi": 66,
      "hit": false,
      "t": 195774.27199999997,
      "d": 1408.448000000004,
      "v": 74
    },
    {
      "midi": 69,
      "hit": false,
      "t": 195774.27199999997,
      "d": 1408.448000000004,
      "v": 67
    },
    {
      "midi": 57,
      "hit": false,
      "t": 196302.43999999997,
      "d": 880.2799999999988,
      "v": 90
    },
    {
      "midi": 62,
      "hit": false,
      "t": 196830.60799999998,
      "d": 352.1119999999937,
      "v": 79
    },
    {
      "midi": 55,
      "hit": false,
      "t": 197182.71999999997,
      "d": 176.0560000000114,
      "v": 51
    },
    {
      "midi": 59,
      "hit": false,
      "t": 197182.71999999997,
      "d": 1760.5599999999977,
      "v": 76
    },
    {
      "midi": 66,
      "hit": false,
      "t": 197182.71999999997,
      "d": 2112.6720000000205,
      "v": 77
    },
    {
      "midi": 69,
      "hit": false,
      "t": 197182.71999999997,
      "d": 2288.728000000032,
      "v": 74
    },
    {
      "midi": 43,
      "hit": false,
      "t": 197182.71999999997,
      "d": 2816.896000000066,
      "v": 81
    },
    {
      "midi": 55,
      "hit": false,
      "t": 198943.27999999997,
      "d": 1056.3360000000685,
      "v": 81
    },
    {
      "midi": 59,
      "hit": false,
      "t": 199119.33599999998,
      "d": 880.280000000057,
      "v": 82
    },
    {
      "midi": 66,
      "hit": false,
      "t": 199471.448,
      "d": 352.1120000000228,
      "v": 67
    },
    {
      "midi": 69,
      "hit": false,
      "t": 199647.50400000002,
      "d": 352.1120000000228,
      "v": 89
    },
    {
      "midi": 54,
      "hit": false,
      "t": 199999.61600000004,
      "d": 176.0560000000114,
      "v": 51
    },
    {
      "midi": 57,
      "hit": false,
      "t": 199999.61600000004,
      "d": 1760.5599999999977,
      "v": 76
    },
    {
      "midi": 64,
      "hit": false,
      "t": 199999.61600000004,
      "d": 2112.6720000000205,
      "v": 77
    },
    {
      "midi": 66,
      "hit": false,
      "t": 199999.61600000004,
      "d": 2288.728000000032,
      "v": 74
    },
    {
      "midi": 42,
      "hit": false,
      "t": 199999.61600000004,
      "d": 2816.896000000066,
      "v": 81
    },
    {
      "midi": 54,
      "hit": false,
      "t": 201760.17600000004,
      "d": 1056.3360000000685,
      "v": 81
    },
    {
      "midi": 57,
      "hit": false,
      "t": 201936.23200000005,
      "d": 880.280000000057,
      "v": 82
    },
    {
      "midi": 64,
      "hit": false,
      "t": 202288.34400000007,
      "d": 352.1120000000228,
      "v": 67
    },
    {
      "midi": 66,
      "hit": false,
      "t": 202464.40000000008,
      "d": 352.1120000000228,
      "v": 89
    },
    {
      "midi": 42,
      "hit": false,
      "t": 202816.5120000001,
      "d": 1408.448000000004,
      "v": 85
    },
    {
      "midi": 54,
      "hit": false,
      "t": 203344.6800000001,
      "d": 880.2799999999988,
      "v": 85
    },
    {
      "midi": 57,
      "hit": false,
      "t": 203872.84800000011,
      "d": 352.1119999999937,
      "v": 66
    },
    {
      "midi": 64,
      "hit": false,
      "t": 203872.84800000011,
      "d": 352.1119999999937,
      "v": 66
    },
    {
      "midi": 59,
      "hit": false,
      "t": 204224.9600000001,
      "d": 704.2240000000165,
      "v": 62
    },
    {
      "midi": 43,
      "hit": false,
      "t": 204224.9600000001,
      "d": 1408.448000000004,
      "v": 82
    },
    {
      "midi": 66,
      "hit": false,
      "t": 204224.9600000001,
      "d": 1408.448000000004,
      "v": 74
    },
    {
      "midi": 69,
      "hit": false,
      "t": 204224.9600000001,
      "d": 1408.448000000004,
      "v": 67
    },
    {
      "midi": 55,
      "hit": false,
      "t": 204753.1280000001,
      "d": 880.2799999999988,
      "v": 90
    },
    {
      "midi": 59,
      "hit": false,
      "t": 205281.29600000012,
      "d": 352.1119999999937,
      "v": 79
    },
    {
      "midi": 57,
      "hit": false,
      "t": 205633.4080000001,
      "d": 704.2240000000165,
      "v": 62
    },
    {
      "midi": 47,
      "hit": false,
      "t": 205633.4080000001,
      "d": 1408.448000000004,
      "v": 82
    },
    {
      "midi": 62,
      "hit": false,
      "t": 205633.4080000001,
      "d": 1408.448000000004,
      "v": 74
    },
    {
      "midi": 66,
      "hit": false,
      "t": 205633.4080000001,
      "d": 1408.448000000004,
      "v": 67
    },
    {
      "midi": 54,
      "hit": false,
      "t": 206161.57600000012,
      "d": 880.2799999999988,
      "v": 90
    },
    {
      "midi": 57,
      "hit": false,
      "t": 206689.74400000012,
      "d": 352.1119999999937,
      "v": 79
    },
    {
      "midi": 62,
      "hit": false,
      "t": 207041.85600000012,
      "d": 704.2240000000165,
      "v": 62
    },
    {
      "midi": 45,
      "hit": false,
      "t": 207041.85600000012,
      "d": 1408.448000000004,
      "v": 82
    },
    {
      "midi": 66,
      "hit": false,
      "t": 207041.85600000012,
      "d": 1408.448000000004,
      "v": 74
    },
    {
      "midi": 69,
      "hit": false,
      "t": 207041.85600000012,
      "d": 1408.448000000004,
      "v": 67
    },
    {
      "midi": 57,
      "hit": false,
      "t": 207570.02400000012,
      "d": 880.2799999999988,
      "v": 90
    },
    {
      "midi": 62,
      "hit": false,
      "t": 208098.19200000013,
      "d": 352.1119999999937,
      "v": 79
    },
    {
      "midi": 55,
      "hit": false,
      "t": 208450.30400000012,
      "d": 176.0560000000114,
      "v": 51
    },
    {
      "midi": 59,
      "hit": false,
      "t": 208450.30400000012,
      "d": 1760.5599999999977,
      "v": 76
    },
    {
      "midi": 66,
      "hit": false,
      "t": 208450.30400000012,
      "d": 2112.6720000000205,
      "v": 77
    },
    {
      "midi": 69,
      "hit": false,
      "t": 208450.30400000012,
      "d": 2288.728000000032,
      "v": 74
    },
    {
      "midi": 43,
      "hit": false,
      "t": 208450.30400000012,
      "d": 2816.896000000066,
      "v": 81
    },
    {
      "midi": 55,
      "hit": false,
      "t": 210210.86400000012,
      "d": 1056.3360000000685,
      "v": 81
    },
    {
      "midi": 59,
      "hit": false,
      "t": 210386.92000000013,
      "d": 880.280000000057,
      "v": 82
    },
    {
      "midi": 66,
      "hit": false,
      "t": 210739.03200000015,
      "d": 352.1120000000228,
      "v": 67
    },
    {
      "midi": 69,
      "hit": false,
      "t": 210915.08800000016,
      "d": 352.1120000000228,
      "v": 89
    },
    {
      "midi": 47,
      "hit": false,
      "t": 211267.2000000002,
      "d": 1408.448000000004,
      "v": 85
    },
    {
      "midi": 54,
      "hit": false,
      "t": 211795.3680000002,
      "d": 880.2799999999988,
      "v": 85
    },
    {
      "midi": 57,
      "hit": false,
      "t": 212323.5360000002,
      "d": 352.1119999999937,
      "v": 66
    },
    {
      "midi": 62,
      "hit": false,
      "t": 212323.5360000002,
      "d": 352.1119999999937,
      "v": 66
    },
    {
      "midi": 62,
      "hit": false,
      "t": 212675.6480000002,
      "d": 704.2240000000165,
      "v": 62
    },
    {
      "midi": 45,
      "hit": false,
      "t": 212675.6480000002,
      "d": 1408.448000000004,
      "v": 82
    },
    {
      "midi": 66,
      "hit": false,
      "t": 212675.6480000002,
      "d": 1408.448000000004,
      "v": 74
    },
    {
      "midi": 69,
      "hit": false,
      "t": 212675.6480000002,
      "d": 1408.448000000004,
      "v": 67
    },
    {
      "midi": 57,
      "hit": false,
      "t": 213203.8160000002,
      "d": 880.2799999999988,
      "v": 90
    },
    {
      "midi": 62,
      "hit": false,
      "t": 213731.9840000002,
      "d": 352.1119999999937,
      "v": 79
    },
    {
      "midi": 55,
      "hit": false,
      "t": 214084.0960000002,
      "d": 176.0560000000114,
      "v": 51
    },
    {
      "midi": 59,
      "hit": false,
      "t": 214084.0960000002,
      "d": 1760.5599999999977,
      "v": 76
    },
    {
      "midi": 66,
      "hit": false,
      "t": 214084.0960000002,
      "d": 2112.6720000000205,
      "v": 77
    },
    {
      "midi": 69,
      "hit": false,
      "t": 214084.0960000002,
      "d": 2288.728000000032,
      "v": 74
    },
    {
      "midi": 43,
      "hit": false,
      "t": 214084.0960000002,
      "d": 2816.896000000066,
      "v": 81
    },
    {
      "midi": 55,
      "hit": false,
      "t": 215844.6560000002,
      "d": 1056.3360000000685,
      "v": 81
    },
    {
      "midi": 59,
      "hit": false,
      "t": 216020.7120000002,
      "d": 880.280000000057,
      "v": 82
    },
    {
      "midi": 66,
      "hit": false,
      "t": 216372.82400000023,
      "d": 352.1120000000228,
      "v": 67
    },
    {
      "midi": 69,
      "hit": false,
      "t": 216548.88000000024,
      "d": 352.1120000000228,
      "v": 89
    },
    {
      "midi": 47,
      "hit": false,
      "t": 216900.99200000026,
      "d": 1408.448000000004,
      "v": 85
    },
    {
      "midi": 54,
      "hit": false,
      "t": 217429.16000000027,
      "d": 880.2799999999988,
      "v": 85
    },
    {
      "midi": 57,
      "hit": false,
      "t": 217957.32800000027,
      "d": 352.1119999999937,
      "v": 66
    },
    {
      "midi": 62,
      "hit": false,
      "t": 217957.32800000027,
      "d": 352.1119999999937,
      "v": 66
    },
    {
      "midi": 57,
      "hit": false,
      "t": 218309.44000000026,
      "d": 352.1119999999937,
      "v": 80
    },
    {
      "midi": 62,
      "hit": false,
      "t": 218309.44000000026,
      "d": 352.1119999999937,
      "v": 80
    },
    {
      "midi": 66,
      "hit": false,
      "t": 218309.44000000026,
      "d": 352.1119999999937,
      "v": 80
    },
    {
      "midi": 57,
      "hit": false,
      "t": 218661.55200000026,
      "d": 176.0560000000114,
      "v": 70
    },
    {
      "midi": 62,
      "hit": false,
      "t": 218661.55200000026,
      "d": 176.0560000000114,
      "v": 70
    },
    {
      "midi": 66,
      "hit": false,
      "t": 218661.55200000026,
      "d": 176.0560000000114,
      "v": 70
    },
    {
      "midi": 43,
      "hit": false,
      "t": 220070.00000000026,
      "d": 1232.3920000000217,
      "v": 93
    },
    {
      "midi": 55,
      "hit": false,
      "t": 220246.05600000027,
      "d": 1056.3360000000102,
      "v": 89
    },
    {
      "midi": 59,
      "hit": false,
      "t": 220598.16800000027,
      "d": 1408.448000000033,
      "v": 43
    },
    {
      "midi": 66,
      "hit": false,
      "t": 220774.22400000028,
      "d": 1056.3360000000102,
      "v": 71
    },
    {
      "midi": 69,
      "hit": false,
      "t": 220774.22400000028,
      "d": 1232.3920000000217,
      "v": 81
    },
    {
      "midi": 54,
      "hit": false,
      "t": 222534.7840000003,
      "d": 176.0560000000114,
      "v": 51
    },
    {
      "midi": 57,
      "hit": false,
      "t": 222534.7840000003,
      "d": 1760.5599999999977,
      "v": 76
    },
    {
      "midi": 64,
      "hit": false,
      "t": 222534.7840000003,
      "d": 2112.6720000000205,
      "v": 77
    },
    {
      "midi": 66,
      "hit": false,
      "t": 222534.7840000003,
      "d": 2288.728000000032,
      "v": 74
    },
    {
      "midi": 42,
      "hit": false,
      "t": 222534.7840000003,
      "d": 2816.896000000066,
      "v": 81
    },
    {
      "midi": 54,
      "hit": false,
      "t": 224295.3440000003,
      "d": 1056.3360000000685,
      "v": 81
    },
    {
      "midi": 57,
      "hit": false,
      "t": 224471.4000000003,
      "d": 880.280000000057,
      "v": 82
    },
    {
      "midi": 64,
      "hit": false,
      "t": 224823.51200000034,
      "d": 352.1120000000228,
      "v": 67
    },
    {
      "midi": 66,
      "hit": false,
      "t": 224999.56800000035,
      "d": 352.1120000000228,
      "v": 89
    },
    {
      "midi": 55,
      "hit": false,
      "t": 225351.68000000037,
      "d": 1408.448000000004,
      "v": 89
    },
    {
      "midi": 59,
      "hit": false,
      "t": 225351.68000000037,
      "d": 1408.448000000004,
      "v": 43
    },
    {
      "midi": 66,
      "hit": false,
      "t": 225351.68000000037,
      "d": 1408.448000000004,
      "v": 71
    },
    {
      "midi": 69,
      "hit": false,
      "t": 225351.68000000037,
      "d": 1408.448000000004,
      "v": 81
    },
    {
      "midi": 43,
      "hit": false,
      "t": 225351.68000000037,
      "d": 1461.2648000000045,
      "v": 93
    },
    {
      "midi": 50,
      "hit": false,
      "t": 228520.68800000037,
      "d": 1232.3920000000217,
      "v": 93
    },
    {
      "midi": 57,
      "hit": false,
      "t": 228696.74400000038,
      "d": 1056.3360000000102,
      "v": 89
    },
    {
      "midi": 61,
      "hit": false,
      "t": 229048.85600000038,
      "d": 1408.448000000033,
      "v": 43
    },
    {
      "midi": 66,
      "hit": false,
      "t": 229224.9120000004,
      "d": 1056.3360000000102,
      "v": 71
    },
    {
      "midi": 69,
      "hit": false,
      "t": 229224.9120000004,
      "d": 1232.3920000000217,
      "v": 81
    },
    {
      "midi": 47,
      "hit": false,
      "t": 231337.5840000004,
      "d": 1232.3920000000217,
      "v": 93
    },
    {
      "midi": 54,
      "hit": false,
      "t": 231513.64000000042,
      "d": 1056.3360000000102,
      "v": 89
    },
    {
      "midi": 57,
      "hit": false,
      "t": 231865.75200000042,
      "d": 1408.448000000033,
      "v": 43
    },
    {
      "midi": 62,
      "hit": false,
      "t": 232041.80800000043,
      "d": 1056.3360000000102,
      "v": 71
    },
    {
      "midi": 66,
      "hit": false,
      "t": 232041.80800000043,
      "d": 1232.3920000000217,
      "v": 81
    },
    {
      "midi": 55,
      "hit": false,
      "t": 233802.36800000045,
      "d": 1584.5039999999863,
      "v": 66
    },
    {
      "midi": 59,
      "hit": false,
      "t": 233802.36800000045,
      "d": 2112.6719999999914,
      "v": 57
    },
    {
      "midi": 66,
      "hit": false,
      "t": 233802.36800000045,
      "d": 2112.6719999999914,
      "v": 72
    },
    {
      "midi": 69,
      "hit": false,
      "t": 233802.36800000045,
      "d": 2112.6719999999914,
      "v": 69
    },
    {
      "midi": 43,
      "hit": false,
      "t": 233802.36800000045,
      "d": 2816.896000000008,
      "v": 69
    },
    {
      "midi": 55,
      "hit": false,
      "t": 235562.92800000045,
      "d": 880.2799999999988,
      "v": 99
    },
    {
      "midi": 59,
      "hit": false,
      "t": 236091.09600000046,
      "d": 352.1119999999937,
      "v": 84
    },
    {
      "midi": 66,
      "hit": false,
      "t": 236091.09600000046,
      "d": 352.1119999999937,
      "v": 79
    },
    {
      "midi": 69,
      "hit": false,
      "t": 236091.09600000046,
      "d": 352.1119999999937,
      "v": 83
    },
    {
      "midi": 55,
      "hit": false,
      "t": 236619.26400000046,
      "d": 704.2240000000165,
      "v": 62
    },
    {
      "midi": 40,
      "hit": false,
      "t": 236619.26400000046,
      "d": 1408.448000000004,
      "v": 82
    },
    {
      "midi": 62,
      "hit": false,
      "t": 236619.26400000046,
      "d": 1408.448000000004,
      "v": 74
    },
    {
      "midi": 66,
      "hit": false,
      "t": 236619.26400000046,
      "d": 1408.448000000004,
      "v": 67
    },
    {
      "midi": 52,
      "hit": false,
      "t": 237147.43200000047,
      "d": 880.2799999999988,
      "v": 90
    },
    {
      "midi": 55,
      "hit": false,
      "t": 237675.60000000047,
      "d": 352.1119999999937,
      "v": 79
    },
    {
      "midi": 61,
      "hit": false,
      "t": 238027.71200000047,
      "d": 352.1119999999937,
      "v": 80
    },
    {
      "midi": 66,
      "hit": false,
      "t": 238027.71200000047,
      "d": 352.1119999999937,
      "v": 80
    },
    {
      "midi": 67,
      "hit": false,
      "t": 238027.71200000047,
      "d": 352.1119999999937,
      "v": 80
    },
    {
      "midi": 71,
      "hit": false,
      "t": 238027.71200000047,
      "d": 352.1119999999937,
      "v": 80
    },
    {
      "midi": 61,
      "hit": false,
      "t": 238379.82400000046,
      "d": 176.0560000000114,
      "v": 70
    },
    {
      "midi": 66,
      "hit": false,
      "t": 238379.82400000046,
      "d": 176.0560000000114,
      "v": 70
    },
    {
      "midi": 67,
      "hit": false,
      "t": 238379.82400000046,
      "d": 176.0560000000114,
      "v": 70
    },
    {
      "midi": 71,
      "hit": false,
      "t": 238379.82400000046,
      "d": 176.0560000000114,
      "v": 70
    },
    {
      "midi": 50,
      "hit": false,
      "t": 239788.27200000046,
      "d": 1232.3920000000217,
      "v": 93
    },
    {
      "midi": 57,
      "hit": false,
      "t": 239964.32800000047,
      "d": 1056.3360000000102,
      "v": 89
    },
    {
      "midi": 61,
      "hit": false,
      "t": 240316.44000000047,
      "d": 1408.448000000033,
      "v": 43
    },
    {
      "midi": 66,
      "hit": false,
      "t": 240492.49600000048,
      "d": 1056.3360000000102,
      "v": 71
    },
    {
      "midi": 69,
      "hit": false,
      "t": 240492.49600000048,
      "d": 1232.3920000000217,
      "v": 81
    },
    {
      "midi": 47,
      "hit": false,
      "t": 242605.1680000005,
      "d": 1232.3920000000217,
      "v": 93
    },
    {
      "midi": 54,
      "hit": false,
      "t": 242781.2240000005,
      "d": 1056.3360000000102,
      "v": 89
    },
    {
      "midi": 57,
      "hit": false,
      "t": 243133.3360000005,
      "d": 1408.448000000033,
      "v": 43
    },
    {
      "midi": 62,
      "hit": false,
      "t": 243309.39200000052,
      "d": 1056.3360000000102,
      "v": 71
    },
    {
      "midi": 66,
      "hit": false,
      "t": 243309.39200000052,
      "d": 1232.3920000000217,
      "v": 81
    },
    {
      "midi": 55,
      "hit": false,
      "t": 245069.95200000054,
      "d": 1584.5039999999863,
      "v": 63
    },
    {
      "midi": 59,
      "hit": false,
      "t": 245069.95200000054,
      "d": 2112.6719999999914,
      "v": 67
    },
    {
      "midi": 43,
      "hit": false,
      "t": 245069.95200000054,
      "d": 2816.896000000008,
      "v": 63
    },
    {
      "midi": 66,
      "hit": false,
      "t": 245069.95200000054,
      "d": 2816.896000000008,
      "v": 72
    },
    {
      "midi": 69,
      "hit": false,
      "t": 245069.95200000054,
      "d": 2816.896000000008,
      "v": 63
    },
    {
      "midi": 55,
      "hit": false,
      "t": 246830.51200000054,
      "d": 1056.3360000000102,
      "v": 87
    },
    {
      "midi": 59,
      "hit": false,
      "t": 247358.68000000055,
      "d": 528.1680000000051,
      "v": 78
    },
    {
      "midi": 55,
      "hit": false,
      "t": 247886.84800000055,
      "d": 704.2240000000165,
      "v": 62
    },
    {
      "midi": 40,
      "hit": false,
      "t": 247886.84800000055,
      "d": 1408.448000000004,
      "v": 82
    },
    {
      "midi": 62,
      "hit": false,
      "t": 247886.84800000055,
      "d": 1408.448000000004,
      "v": 74
    },
    {
      "midi": 66,
      "hit": false,
      "t": 247886.84800000055,
      "d": 1408.448000000004,
      "v": 67
    },
    {
      "midi": 52,
      "hit": false,
      "t": 248415.01600000056,
      "d": 880.2799999999988,
      "v": 90
    },
    {
      "midi": 55,
      "hit": false,
      "t": 248943.18400000056,
      "d": 352.1119999999937,
      "v": 79
    },
    {
      "midi": 61,
      "hit": false,
      "t": 249295.29600000056,
      "d": 352.1119999999937,
      "v": 80
    },
    {
      "midi": 66,
      "hit": false,
      "t": 249295.29600000056,
      "d": 352.1119999999937,
      "v": 80
    },
    {
      "midi": 67,
      "hit": false,
      "t": 249295.29600000056,
      "d": 352.1119999999937,
      "v": 80
    },
    {
      "midi": 71,
      "hit": false,
      "t": 249295.29600000056,
      "d": 352.1119999999937,
      "v": 80
    },
    {
      "midi": 61,
      "hit": false,
      "t": 249647.40800000055,
      "d": 176.0560000000114,
      "v": 70
    },
    {
      "midi": 66,
      "hit": false,
      "t": 249647.40800000055,
      "d": 176.0560000000114,
      "v": 70
    },
    {
      "midi": 67,
      "hit": false,
      "t": 249647.40800000055,
      "d": 176.0560000000114,
      "v": 70
    },
    {
      "midi": 71,
      "hit": false,
      "t": 249647.40800000055,
      "d": 176.0560000000114,
      "v": 70
    },
    {
      "midi": 50,
      "hit": false,
      "t": 251055.85600000055,
      "d": 1232.3920000000217,
      "v": 93
    },
    {
      "midi": 57,
      "hit": false,
      "t": 251231.91200000056,
      "d": 1056.3360000000102,
      "v": 89
    },
    {
      "midi": 61,
      "hit": false,
      "t": 251584.02400000056,
      "d": 1408.448000000033,
      "v": 43
    },
    {
      "midi": 66,
      "hit": false,
      "t": 251760.08000000057,
      "d": 1056.3360000000102,
      "v": 71
    },
    {
      "midi": 69,
      "hit": false,
      "t": 251760.08000000057,
      "d": 1232.3920000000217,
      "v": 81
    },
    {
      "midi": 47,
      "hit": false,
      "t": 253872.7520000006,
      "d": 1232.3920000000217,
      "v": 93
    },
    {
      "midi": 54,
      "hit": false,
      "t": 254048.8080000006,
      "d": 1056.3360000000102,
      "v": 89
    },
    {
      "midi": 57,
      "hit": false,
      "t": 254400.9200000006,
      "d": 1408.448000000033,
      "v": 43
    },
    {
      "midi": 62,
      "hit": false,
      "t": 254576.9760000006,
      "d": 1056.3360000000102,
      "v": 71
    },
    {
      "midi": 66,
      "hit": false,
      "t": 254576.9760000006,
      "d": 1232.3920000000217,
      "v": 81
    },
    {
      "midi": 55,
      "hit": false,
      "t": 256337.53600000063,
      "d": 1584.5039999999863,
      "v": 66
    },
    {
      "midi": 59,
      "hit": false,
      "t": 256337.53600000063,
      "d": 2112.6719999999914,
      "v": 57
    },
    {
      "midi": 66,
      "hit": false,
      "t": 256337.53600000063,
      "d": 2112.6719999999914,
      "v": 72
    },
    {
      "midi": 69,
      "hit": false,
      "t": 256337.53600000063,
      "d": 2112.6719999999914,
      "v": 69
    },
    {
      "midi": 43,
      "hit": false,
      "t": 256337.53600000063,
      "d": 2816.896000000008,
      "v": 69
    },
    {
      "midi": 55,
      "hit": false,
      "t": 258098.09600000063,
      "d": 880.2799999999988,
      "v": 99
    },
    {
      "midi": 59,
      "hit": false,
      "t": 258626.26400000064,
      "d": 352.1119999999937,
      "v": 84
    },
    {
      "midi": 66,
      "hit": false,
      "t": 258626.26400000064,
      "d": 352.1119999999937,
      "v": 79
    },
    {
      "midi": 69,
      "hit": false,
      "t": 258626.26400000064,
      "d": 352.1119999999937,
      "v": 83
    },
    {
      "midi": 55,
      "hit": false,
      "t": 259154.43200000064,
      "d": 704.2240000000165,
      "v": 62
    },
    {
      "midi": 40,
      "hit": false,
      "t": 259154.43200000064,
      "d": 1408.448000000004,
      "v": 82
    },
    {
      "midi": 62,
      "hit": false,
      "t": 259154.43200000064,
      "d": 1408.448000000004,
      "v": 74
    },
    {
      "midi": 66,
      "hit": false,
      "t": 259154.43200000064,
      "d": 1408.448000000004,
      "v": 67
    },
    {
      "midi": 52,
      "hit": false,
      "t": 259682.60000000065,
      "d": 880.2799999999988,
      "v": 90
    },
    {
      "midi": 55,
      "hit": false,
      "t": 260210.76800000065,
      "d": 352.1119999999937,
      "v": 79
    },
    {
      "midi": 61,
      "hit": false,
      "t": 260562.88000000064,
      "d": 352.1119999999937,
      "v": 80
    },
    {
      "midi": 66,
      "hit": false,
      "t": 260562.88000000064,
      "d": 352.1119999999937,
      "v": 80
    },
    {
      "midi": 67,
      "hit": false,
      "t": 260562.88000000064,
      "d": 352.1119999999937,
      "v": 80
    },
    {
      "midi": 71,
      "hit": false,
      "t": 260562.88000000064,
      "d": 352.1119999999937,
      "v": 80
    },
    {
      "midi": 61,
      "hit": false,
      "t": 260914.99200000064,
      "d": 176.0560000000114,
      "v": 70
    },
    {
      "midi": 66,
      "hit": false,
      "t": 260914.99200000064,
      "d": 176.0560000000114,
      "v": 70
    },
    {
      "midi": 67,
      "hit": false,
      "t": 260914.99200000064,
      "d": 176.0560000000114,
      "v": 70
    },
    {
      "midi": 71,
      "hit": false,
      "t": 260914.99200000064,
      "d": 176.0560000000114,
      "v": 70
    },
    {
      "midi": 50,
      "hit": false,
      "t": 262323.44000000064,
      "d": 1232.3919999999925,
      "v": 93
    },
    {
      "midi": 57,
      "hit": false,
      "t": 262499.4960000006,
      "d": 1056.3360000000102,
      "v": 89
    },
    {
      "midi": 61,
      "hit": false,
      "t": 262851.60800000065,
      "d": 1408.4479999999749,
      "v": 43
    },
    {
      "midi": 66,
      "hit": false,
      "t": 263027.66400000063,
      "d": 1056.3360000000102,
      "v": 71
    },
    {
      "midi": 69,
      "hit": false,
      "t": 263027.66400000063,
      "d": 1232.3919999999925,
      "v": 81
    },
    {
      "midi": 47,
      "hit": false,
      "t": 265140.33600000065,
      "d": 1232.3919999999925,
      "v": 93
    },
    {
      "midi": 54,
      "hit": false,
      "t": 265316.39200000063,
      "d": 1056.3360000000102,
      "v": 89
    },
    {
      "midi": 57,
      "hit": false,
      "t": 265668.50400000066,
      "d": 1408.4479999999749,
      "v": 43
    },
    {
      "midi": 62,
      "hit": false,
      "t": 265844.56000000064,
      "d": 1056.3360000000102,
      "v": 71
    },
    {
      "midi": 66,
      "hit": false,
      "t": 265844.56000000064,
      "d": 1232.3919999999925,
      "v": 81
    },
    {
      "midi": 55,
      "hit": false,
      "t": 267605.12000000064,
      "d": 1584.5040000000154,
      "v": 66
    },
    {
      "midi": 59,
      "hit": false,
      "t": 267605.12000000064,
      "d": 2112.6720000000205,
      "v": 57
    },
    {
      "midi": 66,
      "hit": false,
      "t": 267605.12000000064,
      "d": 2112.6720000000205,
      "v": 72
    },
    {
      "midi": 69,
      "hit": false,
      "t": 267605.12000000064,
      "d": 2112.6720000000205,
      "v": 69
    },
    {
      "midi": 43,
      "hit": false,
      "t": 267605.12000000064,
      "d": 2816.896000000008,
      "v": 69
    },
    {
      "midi": 55,
      "hit": false,
      "t": 269365.68000000063,
      "d": 880.2800000000279,
      "v": 99
    },
    {
      "midi": 59,
      "hit": false,
      "t": 269893.84800000064,
      "d": 352.1120000000228,
      "v": 84
    },
    {
      "midi": 66,
      "hit": false,
      "t": 269893.84800000064,
      "d": 352.1120000000228,
      "v": 79
    },
    {
      "midi": 69,
      "hit": false,
      "t": 269893.84800000064,
      "d": 352.1120000000228,
      "v": 83
    },
    {
      "midi": 55,
      "hit": false,
      "t": 270422.01600000064,
      "d": 704.2239999999874,
      "v": 62
    },
    {
      "midi": 40,
      "hit": false,
      "t": 270422.01600000064,
      "d": 1408.448000000033,
      "v": 82
    },
    {
      "midi": 62,
      "hit": false,
      "t": 270422.01600000064,
      "d": 1408.448000000033,
      "v": 74
    },
    {
      "midi": 66,
      "hit": false,
      "t": 270422.01600000064,
      "d": 1408.448000000033,
      "v": 67
    },
    {
      "midi": 52,
      "hit": false,
      "t": 270950.18400000065,
      "d": 880.2800000000279,
      "v": 90
    },
    {
      "midi": 55,
      "hit": false,
      "t": 271478.35200000065,
      "d": 352.1120000000228,
      "v": 79
    },
    {
      "midi": 61,
      "hit": false,
      "t": 271830.4640000007,
      "d": 352.1120000000228,
      "v": 80
    },
    {
      "midi": 66,
      "hit": false,
      "t": 271830.4640000007,
      "d": 352.1120000000228,
      "v": 80
    },
    {
      "midi": 67,
      "hit": false,
      "t": 271830.4640000007,
      "d": 352.1120000000228,
      "v": 80
    },
    {
      "midi": 71,
      "hit": false,
      "t": 271830.4640000007,
      "d": 352.1120000000228,
      "v": 80
    },
    {
      "midi": 61,
      "hit": false,
      "t": 272182.5760000007,
      "d": 176.0559999999823,
      "v": 70
    },
    {
      "midi": 66,
      "hit": false,
      "t": 272182.5760000007,
      "d": 176.0559999999823,
      "v": 70
    },
    {
      "midi": 67,
      "hit": false,
      "t": 272182.5760000007,
      "d": 176.0559999999823,
      "v": 70
    },
    {
      "midi": 71,
      "hit": false,
      "t": 272182.5760000007,
      "d": 176.0559999999823,
      "v": 70
    },
    {
      "midi": 50,
      "hit": false,
      "t": 273591.0240000007,
      "d": 1232.3919999999925,
      "v": 93
    },
    {
      "midi": 57,
      "hit": false,
      "t": 273767.08000000066,
      "d": 1056.3360000000102,
      "v": 89
    },
    {
      "midi": 61,
      "hit": false,
      "t": 274119.1920000007,
      "d": 1408.4479999999749,
      "v": 43
    },
    {
      "midi": 66,
      "hit": false,
      "t": 274295.24800000066,
      "d": 1056.3360000000102,
      "v": 71
    },
    {
      "midi": 69,
      "hit": false,
      "t": 274295.24800000066,
      "d": 1232.3919999999925,
      "v": 81
    },
    {
      "midi": 47,
      "hit": false,
      "t": 276407.9200000007,
      "d": 1232.3919999999925,
      "v": 93
    },
    {
      "midi": 54,
      "hit": false,
      "t": 276583.97600000066,
      "d": 1056.3360000000102,
      "v": 89
    },
    {
      "midi": 57,
      "hit": false,
      "t": 276936.0880000007,
      "d": 1408.4479999999749,
      "v": 43
    },
    {
      "midi": 62,
      "hit": false,
      "t": 277112.14400000067,
      "d": 1056.3360000000102,
      "v": 71
    },
    {
      "midi": 66,
      "hit": false,
      "t": 277112.14400000067,
      "d": 1232.3919999999925,
      "v": 81
    },
    {
      "midi": 55,
      "hit": false,
      "t": 278872.70400000067,
      "d": 1584.5040000000154,
      "v": 66
    },
    {
      "midi": 59,
      "hit": false,
      "t": 278872.70400000067,
      "d": 2112.6720000000205,
      "v": 57
    },
    {
      "midi": 66,
      "hit": false,
      "t": 278872.70400000067,
      "d": 2112.6720000000205,
      "v": 72
    },
    {
      "midi": 69,
      "hit": false,
      "t": 278872.70400000067,
      "d": 2112.6720000000205,
      "v": 69
    },
    {
      "midi": 43,
      "hit": false,
      "t": 278872.70400000067,
      "d": 2816.896000000008,
      "v": 69
    },
    {
      "midi": 55,
      "hit": false,
      "t": 280633.26400000066,
      "d": 880.2800000000279,
      "v": 99
    },
    {
      "midi": 59,
      "hit": false,
      "t": 281161.43200000067,
      "d": 352.1120000000228,
      "v": 84
    },
    {
      "midi": 66,
      "hit": false,
      "t": 281161.43200000067,
      "d": 352.1120000000228,
      "v": 79
    },
    {
      "midi": 69,
      "hit": false,
      "t": 281161.43200000067,
      "d": 352.1120000000228,
      "v": 83
    },
    {
      "midi": 55,
      "hit": false,
      "t": 281689.6000000007,
      "d": 704.2239999999874,
      "v": 62
    },
    {
      "midi": 40,
      "hit": false,
      "t": 281689.6000000007,
      "d": 1408.448000000033,
      "v": 82
    },
    {
      "midi": 62,
      "hit": false,
      "t": 281689.6000000007,
      "d": 1408.448000000033,
      "v": 74
    },
    {
      "midi": 66,
      "hit": false,
      "t": 281689.6000000007,
      "d": 1408.448000000033,
      "v": 67
    },
    {
      "midi": 52,
      "hit": false,
      "t": 282217.7680000007,
      "d": 880.2800000000279,
      "v": 90
    },
    {
      "midi": 55,
      "hit": false,
      "t": 282745.9360000007,
      "d": 352.1120000000228,
      "v": 79
    },
    {
      "midi": 61,
      "hit": false,
      "t": 283098.0480000007,
      "d": 352.1120000000228,
      "v": 80
    },
    {
      "midi": 66,
      "hit": false,
      "t": 283098.0480000007,
      "d": 352.1120000000228,
      "v": 80
    },
    {
      "midi": 67,
      "hit": false,
      "t": 283098.0480000007,
      "d": 352.1120000000228,
      "v": 80
    },
    {
      "midi": 71,
      "hit": false,
      "t": 283098.0480000007,
      "d": 352.1120000000228,
      "v": 80
    },
    {
      "midi": 61,
      "hit": false,
      "t": 283450.16000000073,
      "d": 176.0559999999823,
      "v": 70
    },
    {
      "midi": 66,
      "hit": false,
      "t": 283450.16000000073,
      "d": 176.0559999999823,
      "v": 70
    },
    {
      "midi": 67,
      "hit": false,
      "t": 283450.16000000073,
      "d": 176.0559999999823,
      "v": 70
    },
    {
      "midi": 71,
      "hit": false,
      "t": 283450.16000000073,
      "d": 176.0559999999823,
      "v": 70
    },
    {
      "midi": 50,
      "hit": false,
      "t": 284858.6080000007,
      "d": 1232.3919999999925,
      "v": 93
    },
    {
      "midi": 57,
      "hit": false,
      "t": 285034.6640000007,
      "d": 1056.3360000000102,
      "v": 89
    },
    {
      "midi": 61,
      "hit": false,
      "t": 285386.7760000007,
      "d": 1408.4479999999749,
      "v": 43
    },
    {
      "midi": 66,
      "hit": false,
      "t": 285562.8320000007,
      "d": 1056.3360000000102,
      "v": 71
    },
    {
      "midi": 69,
      "hit": false,
      "t": 285562.8320000007,
      "d": 1232.3919999999925,
      "v": 81
    },
    {
      "midi": 47,
      "hit": false,
      "t": 287675.5040000007,
      "d": 1232.3919999999925,
      "v": 93
    },
    {
      "midi": 54,
      "hit": false,
      "t": 287851.5600000007,
      "d": 1056.3360000000102,
      "v": 89
    },
    {
      "midi": 57,
      "hit": false,
      "t": 288203.6720000007,
      "d": 1408.4479999999749,
      "v": 43
    },
    {
      "midi": 62,
      "hit": false,
      "t": 288379.7280000007,
      "d": 1056.3360000000102,
      "v": 71
    },
    {
      "midi": 66,
      "hit": false,
      "t": 288379.7280000007,
      "d": 1232.3919999999925,
      "v": 81
    },
    {
      "midi": 55,
      "hit": false,
      "t": 290140.2880000007,
      "d": 1584.5040000000154,
      "v": 63
    },
    {
      "midi": 59,
      "hit": false,
      "t": 290140.2880000007,
      "d": 2112.6720000000205,
      "v": 67
    },
    {
      "midi": 43,
      "hit": false,
      "t": 290140.2880000007,
      "d": 2816.896000000008,
      "v": 63
    },
    {
      "midi": 66,
      "hit": false,
      "t": 290140.2880000007,
      "d": 2816.896000000008,
      "v": 72
    },
    {
      "midi": 69,
      "hit": false,
      "t": 290140.2880000007,
      "d": 2816.896000000008,
      "v": 63
    },
    {
      "midi": 55,
      "hit": false,
      "t": 291900.8480000007,
      "d": 1056.3360000000102,
      "v": 87
    },
    {
      "midi": 59,
      "hit": false,
      "t": 292429.0160000007,
      "d": 528.1680000000051,
      "v": 78
    },
    {
      "midi": 55,
      "hit": false,
      "t": 292957.1840000007,
      "d": 704.2239999999874,
      "v": 66
    },
    {
      "midi": 40,
      "hit": false,
      "t": 292957.1840000007,
      "d": 1408.448000000033,
      "v": 82
    },
    {
      "midi": 62,
      "hit": false,
      "t": 292957.1840000007,
      "d": 1408.448000000033,
      "v": 78
    },
    {
      "midi": 66,
      "hit": false,
      "t": 292957.1840000007,
      "d": 1408.448000000033,
      "v": 71
    },
    {
      "midi": 52,
      "hit": false,
      "t": 293485.3520000007,
      "d": 880.2800000000279,
      "v": 90
    },
    {
      "midi": 55,
      "hit": false,
      "t": 294013.5200000007,
      "d": 352.1120000000228,
      "v": 79
    },
    {
      "midi": 61,
      "hit": false,
      "t": 294365.63200000074,
      "d": 352.1120000000228,
      "v": 80
    },
    {
      "midi": 66,
      "hit": false,
      "t": 294365.63200000074,
      "d": 352.1120000000228,
      "v": 80
    },
    {
      "midi": 67,
      "hit": false,
      "t": 294365.63200000074,
      "d": 352.1120000000228,
      "v": 80
    },
    {
      "midi": 71,
      "hit": false,
      "t": 294365.63200000074,
      "d": 352.1120000000228,
      "v": 80
    },
    {
      "midi": 61,
      "hit": false,
      "t": 294717.74400000076,
      "d": 176.0559999999823,
      "v": 70
    },
    {
      "midi": 66,
      "hit": false,
      "t": 294717.74400000076,
      "d": 176.0559999999823,
      "v": 70
    },
    {
      "midi": 67,
      "hit": false,
      "t": 294717.74400000076,
      "d": 176.0559999999823,
      "v": 70
    },
    {
      "midi": 71,
      "hit": false,
      "t": 294717.74400000076,
      "d": 176.0559999999823,
      "v": 70
    },
    {
      "midi": 52,
      "hit": false,
      "t": 294717.74400000076,
      "d": 704.2239999999874,
      "v": 86
    },
    {
      "midi": 55,
      "hit": false,
      "t": 295245.91200000077,
      "d": 528.1680000000051,
      "v": 88
    },
    {
      "midi": 52,
      "hit": false,
      "t": 295421.96800000075,
      "d": 352.1120000000228,
      "v": 49
    },
    {
      "midi": 58,
      "hit": false,
      "t": 295797.5541333341,
      "d": 2881.449866666633,
      "v": 99
    },
    {
      "midi": 64,
      "hit": false,
      "t": 295809.29120000073,
      "d": 2899.055466666643,
      "v": 97
    }
  ]
}