{
  "jsonPath": "Rock/Folk Rock/Gerry  The Pacemakers/youll-never-walk-alone-stereo-1997-digital-remaster.json",
  "path": "Rock\\Folk Rock\\Gerry  The Pacemakers\\Youll Never Walk Alone (Stereo) (1997 Digital Remaster).mid",
  "name": "Youll Never Walk Alone (Stereo) (1997 Digital Remaster)",
  "difficulty": "Advanced",
  "bpm": 200.1000500250125,
  "notes": [
    {
      "midi": 64,
      "hit": false,
      "t": 5769.2300000000005,
      "d": 5192.307,
      "v": 107
    },
    {
      "midi": 76,
      "hit": false,
      "t": 5769.2300000000005,
      "d": 5192.307,
      "v": 107
    },
    {
      "midi": 60,
      "hit": false,
      "t": 13846.152,
      "d": 360.57687500000065,
      "v": 98
    },
    {
      "midi": 64,
      "hit": false,
      "t": 14230.767333333333,
      "d": 360.57687500000065,
      "v": 97
    },
    {
      "midi": 67,
      "hit": false,
      "t": 14615.382666666666,
      "d": 360.57687500000065,
      "v": 92
    },
    {
      "midi": 72,
      "hit": false,
      "t": 14999.998,
      "d": 360.57687500000065,
      "v": 94
    },
    {
      "midi": 67,
      "hit": false,
      "t": 15384.613333333333,
      "d": 360.57687500000065,
      "v": 94
    },
    {
      "midi": 64,
      "hit": false,
      "t": 15769.228666666666,
      "d": 360.57687500000065,
      "v": 96
    },
    {
      "midi": 60,
      "hit": false,
      "t": 16153.844,
      "d": 360.57687500000065,
      "v": 95
    },
    {
      "midi": 64,
      "hit": false,
      "t": 16538.459333333332,
      "d": 360.57687499999884,
      "v": 100
    },
    {
      "midi": 67,
      "hit": false,
      "t": 16923.074666666664,
      "d": 360.57687499999884,
      "v": 93
    },
    {
      "midi": 72,
      "hit": false,
      "t": 17307.689999999995,
      "d": 360.57687499999884,
      "v": 94
    },
    {
      "midi": 67,
      "hit": false,
      "t": 17692.305333333326,
      "d": 360.57687499999884,
      "v": 104
    },
    {
      "midi": 64,
      "hit": false,
      "t": 18076.920666666658,
      "d": 360.57687499999884,
      "v": 95
    },
    {
      "midi": 60,
      "hit": false,
      "t": 18461.53599999999,
      "d": 360.57687499999884,
      "v": 94
    },
    {
      "midi": 64,
      "hit": false,
      "t": 18846.15133333332,
      "d": 360.57687499999884,
      "v": 92
    },
    {
      "midi": 67,
      "hit": false,
      "t": 19230.766666666652,
      "d": 360.57687499999884,
      "v": 94
    },
    {
      "midi": 72,
      "hit": false,
      "t": 19615.381999999983,
      "d": 360.57687499999884,
      "v": 92
    },
    {
      "midi": 67,
      "hit": false,
      "t": 19999.997333333315,
      "d": 360.57687499999884,
      "v": 99
    },
    {
      "midi": 64,
      "hit": false,
      "t": 20384.612666666646,
      "d": 360.57687499999884,
      "v": 95
    },
    {
      "midi": 60,
      "hit": false,
      "t": 20769.227999999977,
      "d": 360.57687499999884,
      "v": 108
    },
    {
      "midi": 64,
      "hit": false,
      "t": 21153.84333333331,
      "d": 360.57687499999884,
      "v": 93
    },
    {
      "midi": 67,
      "hit": false,
      "t": 21538.45866666664,
      "d": 360.57687499999884,
      "v": 100
    },
    {
      "midi": 72,
      "hit": false,
      "t": 21923.07399999997,
      "d": 360.57687499999884,
      "v": 100
    },
    {
      "midi": 67,
      "hit": false,
      "t": 22307.689333333303,
      "d": 360.57687499999884,
      "v": 97
    },
    {
      "midi": 64,
      "hit": false,
      "t": 22692.304666666634,
      "d": 360.57687499999884,
      "v": 99
    },
    {
      "midi": 67,
      "hit": false,
      "t": 23076.919999999966,
      "d": 360.57687499999884,
      "v": 97
    },
    {
      "midi": 71,
      "hit": false,
      "t": 23461.535333333297,
      "d": 360.57687499999884,
      "v": 96
    },
    {
      "midi": 74,
      "hit": false,
      "t": 23846.15066666663,
      "d": 360.57687499999884,
      "v": 100
    },
    {
      "midi": 79,
      "hit": false,
      "t": 24230.76599999996,
      "d": 360.57687499999884,
      "v": 93
    },
    {
      "midi": 74,
      "hit": false,
      "t": 24615.38133333329,
      "d": 360.57687499999884,
      "v": 94
    },
    {
      "midi": 71,
      "hit": false,
      "t": 24999.996666666622,
      "d": 360.57687499999884,
      "v": 96
    },
    {
      "midi": 67,
      "hit": false,
      "t": 25384.611999999954,
      "d": 360.57687499999884,
      "v": 100
    },
    {
      "midi": 71,
      "hit": false,
      "t": 25769.227333333285,
      "d": 360.57687499999884,
      "v": 108
    },
    {
      "midi": 74,
      "hit": false,
      "t": 26153.842666666616,
      "d": 360.57687499999884,
      "v": 95
    },
    {
      "midi": 79,
      "hit": false,
      "t": 26538.457999999948,
      "d": 360.57687499999884,
      "v": 94
    },
    {
      "midi": 74,
      "hit": false,
      "t": 26923.07333333328,
      "d": 360.57687499999884,
      "v": 98
    },
    {
      "midi": 71,
      "hit": false,
      "t": 27307.68866666661,
      "d": 360.57687499999884,
      "v": 97
    },
    {
      "midi": 67,
      "hit": false,
      "t": 27692.303999999942,
      "d": 360.57687499999884,
      "v": 99
    },
    {
      "midi": 71,
      "hit": false,
      "t": 28076.919333333273,
      "d": 360.57687499999884,
      "v": 104
    },
    {
      "midi": 74,
      "hit": false,
      "t": 28461.534666666605,
      "d": 360.57687499999884,
      "v": 94
    },
    {
      "midi": 79,
      "hit": false,
      "t": 28846.149999999936,
      "d": 360.57687499999884,
      "v": 97
    },
    {
      "midi": 74,
      "hit": false,
      "t": 29230.765333333267,
      "d": 360.57687499999884,
      "v": 93
    },
    {
      "midi": 71,
      "hit": false,
      "t": 29615.3806666666,
      "d": 360.57687499999884,
      "v": 99
    },
    {
      "midi": 67,
      "hit": false,
      "t": 29999.99599999993,
      "d": 360.57687499999884,
      "v": 100
    },
    {
      "midi": 71,
      "hit": false,
      "t": 30384.61133333326,
      "d": 360.57687499999884,
      "v": 94
    },
    {
      "midi": 74,
      "hit": false,
      "t": 30769.226666666593,
      "d": 360.57687499999884,
      "v": 100
    },
    {
      "midi": 79,
      "hit": false,
      "t": 31153.841999999924,
      "d": 360.57687499999884,
      "v": 100
    },
    {
      "midi": 74,
      "hit": false,
      "t": 31538.457333333256,
      "d": 360.57687499999884,
      "v": 97
    },
    {
      "midi": 71,
      "hit": false,
      "t": 31923.072666666587,
      "d": 360.57687499999884,
      "v": 99
    },
    {
      "midi": 65,
      "hit": false,
      "t": 32307.68799999992,
      "d": 360.57687499999884,
      "v": 100
    },
    {
      "midi": 69,
      "hit": false,
      "t": 32692.30333333325,
      "d": 360.57687499999884,
      "v": 94
    },
    {
      "midi": 72,
      "hit": false,
      "t": 33076.918666666585,
      "d": 360.57687499999884,
      "v": 105
    },
    {
      "midi": 77,
      "hit": false,
      "t": 33461.53399999992,
      "d": 360.57687499999884,
      "v": 100
    },
    {
      "midi": 72,
      "hit": false,
      "t": 33846.149333333255,
      "d": 360.57687499999884,
      "v": 97
    },
    {
      "midi": 69,
      "hit": false,
      "t": 34230.76466666659,
      "d": 360.57687499999884,
      "v": 97
    },
    {
      "midi": 65,
      "hit": false,
      "t": 34615.379999999925,
      "d": 360.57687499999884,
      "v": 93
    },
    {
      "midi": 69,
      "hit": false,
      "t": 34999.99533333326,
      "d": 360.57687499999884,
      "v": 94
    },
    {
      "midi": 72,
      "hit": false,
      "t": 35384.610666666595,
      "d": 360.57687499999884,
      "v": 96
    },
    {
      "midi": 77,
      "hit": false,
      "t": 35769.22599999993,
      "d": 360.57687499999884,
      "v": 97
    },
    {
      "midi": 72,
      "hit": false,
      "t": 36153.841333333265,
      "d": 360.57687499999884,
      "v": 95
    },
    {
      "midi": 69,
      "hit": false,
      "t": 36538.4566666666,
      "d": 360.57687499999884,
      "v": 97
    },
    {
      "midi": 64,
      "hit": false,
      "t": 36923.071999999935,
      "d": 360.57687499999884,
      "v": 99
    },
    {
      "midi": 67,
      "hit": false,
      "t": 37307.68733333327,
      "d": 360.57687499999884,
      "v": 96
    },
    {
      "midi": 72,
      "hit": false,
      "t": 37692.302666666605,
      "d": 360.57687499999884,
      "v": 100
    },
    {
      "midi": 76,
      "hit": false,
      "t": 38076.91799999994,
      "d": 360.57687499999884,
      "v": 100
    },
    {
      "midi": 72,
      "hit": false,
      "t": 38461.533333333275,
      "d": 360.57687499999884,
      "v": 97
    },
    {
      "midi": 67,
      "hit": false,
      "t": 38846.14866666661,
      "d": 360.57687499999884,
      "v": 96
    },
    {
      "midi": 64,
      "hit": false,
      "t": 39230.763999999945,
      "d": 360.57687499999884,
      "v": 95
    },
    {
      "midi": 67,
      "hit": false,
      "t": 39615.37933333328,
      "d": 360.57687499999884,
      "v": 96
    },
    {
      "midi": 72,
      "hit": false,
      "t": 39999.994666666615,
      "d": 360.57687499999884,
      "v": 108
    },
    {
      "midi": 76,
      "hit": false,
      "t": 40384.60999999995,
      "d": 360.57687499999884,
      "v": 92
    },
    {
      "midi": 72,
      "hit": false,
      "t": 40769.225333333285,
      "d": 360.57687499999884,
      "v": 97
    },
    {
      "midi": 67,
      "hit": false,
      "t": 41153.84066666662,
      "d": 360.57687499999884,
      "v": 93
    },
    {
      "midi": 62,
      "hit": false,
      "t": 41538.455999999955,
      "d": 360.57687499999884,
      "v": 94
    },
    {
      "midi": 67,
      "hit": false,
      "t": 41923.07133333329,
      "d": 360.57687499999884,
      "v": 93
    },
    {
      "midi": 71,
      "hit": false,
      "t": 42307.686666666625,
      "d": 360.57687499999884,
      "v": 100
    },
    {
      "midi": 74,
      "hit": false,
      "t": 42692.30199999996,
      "d": 360.57687499999884,
      "v": 100
    },
    {
      "midi": 71,
      "hit": false,
      "t": 43076.917333333295,
      "d": 360.57687499999884,
      "v": 97
    },
    {
      "midi": 67,
      "hit": false,
      "t": 43461.53266666663,
      "d": 360.57687499999884,
      "v": 92
    },
    {
      "midi": 62,
      "hit": false,
      "t": 43846.147999999965,
      "d": 360.57687499999884,
      "v": 94
    },
    {
      "midi": 67,
      "hit": false,
      "t": 44230.7633333333,
      "d": 360.57687499999884,
      "v": 103
    },
    {
      "midi": 71,
      "hit": false,
      "t": 44615.378666666635,
      "d": 360.57687499999884,
      "v": 94
    },
    {
      "midi": 74,
      "hit": false,
      "t": 44999.99399999997,
      "d": 360.57687499999884,
      "v": 94
    },
    {
      "midi": 71,
      "hit": false,
      "t": 45384.609333333305,
      "d": 360.57687499999884,
      "v": 107
    },
    {
      "midi": 67,
      "hit": false,
      "t": 45769.22466666664,
      "d": 360.57687499999884,
      "v": 95
    },
    {
      "midi": 62,
      "hit": false,
      "t": 46153.839999999975,
      "d": 360.57687499999884,
      "v": 95
    },
    {
      "midi": 67,
      "hit": false,
      "t": 46538.45533333331,
      "d": 360.57687499999884,
      "v": 104
    },
    {
      "midi": 70,
      "hit": false,
      "t": 46923.070666666645,
      "d": 360.57687499999884,
      "v": 99
    },
    {
      "midi": 74,
      "hit": false,
      "t": 47307.68599999998,
      "d": 360.57687499999884,
      "v": 98
    },
    {
      "midi": 70,
      "hit": false,
      "t": 47692.301333333315,
      "d": 360.57687499999884,
      "v": 96
    },
    {
      "midi": 67,
      "hit": false,
      "t": 48076.91666666665,
      "d": 360.57687499999884,
      "v": 97
    },
    {
      "midi": 62,
      "hit": false,
      "t": 48461.531999999985,
      "d": 360.57687499999884,
      "v": 96
    },
    {
      "midi": 67,
      "hit": false,
      "t": 48846.14733333332,
      "d": 360.57687499999884,
      "v": 97
    },
    {
      "midi": 70,
      "hit": false,
      "t": 49230.762666666655,
      "d": 360.57687499999884,
      "v": 95
    },
    {
      "midi": 74,
      "hit": false,
      "t": 49615.37799999999,
      "d": 360.57687499999884,
      "v": 96
    },
    {
      "midi": 70,
      "hit": false,
      "t": 49999.993333333325,
      "d": 360.57687499999884,
      "v": 97
    },
    {
      "midi": 67,
      "hit": false,
      "t": 50384.60866666666,
      "d": 360.57687499999884,
      "v": 99
    },
    {
      "midi": 62,
      "hit": false,
      "t": 50769.223999999995,
      "d": 360.57687499999884,
      "v": 97
    },
    {
      "midi": 65,
      "hit": false,
      "t": 51153.83933333333,
      "d": 360.57687499999884,
      "v": 92
    },
    {
      "midi": 69,
      "hit": false,
      "t": 51538.454666666665,
      "d": 360.57687499999884,
      "v": 104
    },
    {
      "midi": 74,
      "hit": false,
      "t": 51923.07,
      "d": 360.57687499999884,
      "v": 95
    },
    {
      "midi": 69,
      "hit": false,
      "t": 52307.685333333335,
      "d": 360.57687499999884,
      "v": 100
    },
    {
      "midi": 65,
      "hit": false,
      "t": 52692.30066666667,
      "d": 360.57687499999884,
      "v": 94
    },
    {
      "midi": 62,
      "hit": false,
      "t": 53076.916000000005,
      "d": 360.57687499999884,
      "v": 98
    },
    {
      "midi": 65,
      "hit": false,
      "t": 53461.53133333334,
      "d": 360.57687499999884,
      "v": 98
    },
    {
      "midi": 69,
      "hit": false,
      "t": 53846.146666666675,
      "d": 360.57687499999884,
      "v": 97
    },
    {
      "midi": 74,
      "hit": false,
      "t": 54230.76200000001,
      "d": 360.57687499999884,
      "v": 95
    },
    {
      "midi": 69,
      "hit": false,
      "t": 54615.377333333345,
      "d": 360.57687499999884,
      "v": 108
    },
    {
      "midi": 65,
      "hit": false,
      "t": 54999.99266666668,
      "d": 360.57687499999884,
      "v": 103
    },
    {
      "midi": 62,
      "hit": false,
      "t": 55384.608000000015,
      "d": 360.57687499999884,
      "v": 93
    },
    {
      "midi": 65,
      "hit": false,
      "t": 55769.22333333335,
      "d": 360.57687499999884,
      "v": 92
    },
    {
      "midi": 70,
      "hit": false,
      "t": 56153.838666666685,
      "d": 360.57687499999884,
      "v": 98
    },
    {
      "midi": 74,
      "hit": false,
      "t": 56538.45400000002,
      "d": 360.57687499999884,
      "v": 98
    },
    {
      "midi": 70,
      "hit": false,
      "t": 56923.069333333355,
      "d": 360.57687499999884,
      "v": 103
    },
    {
      "midi": 65,
      "hit": false,
      "t": 57307.68466666669,
      "d": 360.57687499999884,
      "v": 92
    },
    {
      "midi": 62,
      "hit": false,
      "t": 57692.300000000025,
      "d": 360.57687499999884,
      "v": 103
    },
    {
      "midi": 65,
      "hit": false,
      "t": 58076.91533333336,
      "d": 360.57687499999884,
      "v": 94
    },
    {
      "midi": 70,
      "hit": false,
      "t": 58461.530666666695,
      "d": 360.57687499999884,
      "v": 92
    },
    {
      "midi": 74,
      "hit": false,
      "t": 58846.14600000003,
      "d": 360.57687499999884,
      "v": 97
    },
    {
      "midi": 70,
      "hit": false,
      "t": 59230.761333333365,
      "d": 360.57687499999884,
      "v": 103
    },
    {
      "midi": 65,
      "hit": false,
      "t": 59615.3766666667,
      "d": 360.57687499999884,
      "v": 103
    },
    {
      "midi": 60,
      "hit": false,
      "t": 59999.992000000035,
      "d": 360.57687499999884,
      "v": 99
    },
    {
      "midi": 65,
      "hit": false,
      "t": 60384.60733333337,
      "d": 360.57687499999884,
      "v": 93
    },
    {
      "midi": 69,
      "hit": false,
      "t": 60769.222666666705,
      "d": 360.57687499999884,
      "v": 92
    },
    {
      "midi": 72,
      "hit": false,
      "t": 61153.83800000004,
      "d": 360.57687499999884,
      "v": 100
    },
    {
      "midi": 69,
      "hit": false,
      "t": 61538.453333333375,
      "d": 360.57687499999884,
      "v": 97
    },
    {
      "midi": 65,
      "hit": false,
      "t": 61923.06866666671,
      "d": 360.57687499999884,
      "v": 100
    },
    {
      "midi": 60,
      "hit": false,
      "t": 62307.684000000045,
      "d": 360.57687499999884,
      "v": 93
    },
    {
      "midi": 65,
      "hit": false,
      "t": 62692.29933333338,
      "d": 360.57687499999884,
      "v": 99
    },
    {
      "midi": 69,
      "hit": false,
      "t": 63076.914666666715,
      "d": 360.57687499999884,
      "v": 97
    },
    {
      "midi": 72,
      "hit": false,
      "t": 63461.53000000005,
      "d": 360.57687499999884,
      "v": 103
    },
    {
      "midi": 69,
      "hit": false,
      "t": 63846.145333333385,
      "d": 360.57687499999884,
      "v": 96
    },
    {
      "midi": 65,
      "hit": false,
      "t": 64230.76066666672,
      "d": 360.57687499999884,
      "v": 92
    },
    {
      "midi": 62,
      "hit": false,
      "t": 64615.376000000055,
      "d": 360.57687499999884,
      "v": 100
    },
    {
      "midi": 65,
      "hit": false,
      "t": 64999.99133333339,
      "d": 360.57687499999884,
      "v": 98
    },
    {
      "midi": 69,
      "hit": false,
      "t": 65384.606666666725,
      "d": 360.5768750000061,
      "v": 92
    },
    {
      "midi": 74,
      "hit": false,
      "t": 65769.22200000007,
      "d": 360.57687499999884,
      "v": 92
    },
    {
      "midi": 69,
      "hit": false,
      "t": 66153.8373333334,
      "d": 360.57687499999884,
      "v": 93
    },
    {
      "midi": 65,
      "hit": false,
      "t": 66538.45266666674,
      "d": 360.57687499999884,
      "v": 93
    },
    {
      "midi": 62,
      "hit": false,
      "t": 66923.06800000007,
      "d": 360.57687499999884,
      "v": 92
    },
    {
      "midi": 65,
      "hit": false,
      "t": 67307.6833333334,
      "d": 360.57687499999884,
      "v": 107
    },
    {
      "midi": 69,
      "hit": false,
      "t": 67692.29866666674,
      "d": 360.57687499999884,
      "v": 94
    },
    {
      "midi": 74,
      "hit": false,
      "t": 68076.91400000008,
      "d": 360.57687499999884,
      "v": 110
    },
    {
      "midi": 69,
      "hit": false,
      "t": 68461.52933333341,
      "d": 360.57687499999884,
      "v": 96
    },
    {
      "midi": 65,
      "hit": false,
      "t": 68846.14466666675,
      "d": 360.57687499999884,
      "v": 92
    },
    {
      "midi": 58,
      "hit": false,
      "t": 69230.76000000008,
      "d": 360.57687499999884,
      "v": 94
    },
    {
      "midi": 62,
      "hit": false,
      "t": 69615.37533333342,
      "d": 360.57687499999884,
      "v": 96
    },
    {
      "midi": 65,
      "hit": false,
      "t": 69999.99066666675,
      "d": 360.57687499999884,
      "v": 100
    },
    {
      "midi": 70,
      "hit": false,
      "t": 70384.60600000009,
      "d": 360.57687499999884,
      "v": 93
    },
    {
      "midi": 65,
      "hit": false,
      "t": 70769.22133333342,
      "d": 360.57687499999884,
      "v": 96
    },
    {
      "midi": 62,
      "hit": false,
      "t": 71153.83666666676,
      "d": 360.57687499999884,
      "v": 99
    },
    {
      "midi": 57,
      "hit": false,
      "t": 71538.45200000009,
      "d": 360.57687499999884,
      "v": 93
    },
    {
      "midi": 60,
      "hit": false,
      "t": 71923.06733333343,
      "d": 360.57687499999884,
      "v": 95
    },
    {
      "midi": 64,
      "hit": false,
      "t": 72307.68266666676,
      "d": 360.57687499999884,
      "v": 98
    },
    {
      "midi": 69,
      "hit": false,
      "t": 72692.2980000001,
      "d": 360.57687499999884,
      "v": 95
    },
    {
      "midi": 64,
      "hit": false,
      "t": 73076.91333333343,
      "d": 360.57687499999884,
      "v": 93
    },
    {
      "midi": 60,
      "hit": false,
      "t": 73461.52866666677,
      "d": 360.57687499999884,
      "v": 99
    },
    {
      "midi": 55,
      "hit": false,
      "t": 73846.1440000001,
      "d": 360.57687499999884,
      "v": 94
    },
    {
      "midi": 58,
      "hit": false,
      "t": 74230.75933333344,
      "d": 360.57687499999884,
      "v": 92
    },
    {
      "midi": 62,
      "hit": false,
      "t": 74615.37466666677,
      "d": 360.57687499999884,
      "v": 95
    },
    {
      "midi": 67,
      "hit": false,
      "t": 74999.9900000001,
      "d": 360.57687499999884,
      "v": 92
    },
    {
      "midi": 62,
      "hit": false,
      "t": 75384.60533333344,
      "d": 360.57687499999884,
      "v": 99
    },
    {
      "midi": 58,
      "hit": false,
      "t": 75769.22066666678,
      "d": 360.57687499999884,
      "v": 102
    },
    {
      "midi": 57,
      "hit": false,
      "t": 76153.83600000011,
      "d": 360.57687499999884,
      "v": 110
    },
    {
      "midi": 60,
      "hit": false,
      "t": 76538.45133333345,
      "d": 360.57687499999884,
      "v": 93
    },
    {
      "midi": 65,
      "hit": false,
      "t": 76923.06666666678,
      "d": 360.57687499999884,
      "v": 100
    },
    {
      "midi": 69,
      "hit": false,
      "t": 77307.68200000012,
      "d": 360.57687499999884,
      "v": 100
    },
    {
      "midi": 65,
      "hit": false,
      "t": 77692.29733333345,
      "d": 360.57687499999884,
      "v": 93
    },
    {
      "midi": 60,
      "hit": false,
      "t": 78076.91266666679,
      "d": 360.57687499999884,
      "v": 98
    },
    {
      "midi": 59,
      "hit": false,
      "t": 78461.52800000012,
      "d": 360.57687499999884,
      "v": 97
    },
    {
      "midi": 64,
      "hit": false,
      "t": 78846.14333333346,
      "d": 360.57687499999884,
      "v": 95
    },
    {
      "midi": 68,
      "hit": false,
      "t": 79230.75866666679,
      "d": 360.57687499999884,
      "v": 94
    },
    {
      "midi": 71,
      "hit": false,
      "t": 79615.37400000013,
      "d": 360.57687499999884,
      "v": 97
    },
    {
      "midi": 68,
      "hit": false,
      "t": 79999.98933333346,
      "d": 360.57687499999884,
      "v": 97
    },
    {
      "midi": 64,
      "hit": false,
      "t": 80384.6046666668,
      "d": 360.57687499999884,
      "v": 95
    },
    {
      "midi": 64,
      "hit": false,
      "t": 80769.22000000013,
      "d": 360.57687499999884,
      "v": 100
    },
    {
      "midi": 68,
      "hit": false,
      "t": 81153.83533333347,
      "d": 360.57687499999884,
      "v": 93
    },
    {
      "midi": 71,
      "hit": false,
      "t": 81538.4506666668,
      "d": 360.57687499999884,
      "v": 96
    },
    {
      "midi": 76,
      "hit": false,
      "t": 81923.06600000014,
      "d": 360.57687499999884,
      "v": 96
    },
    {
      "midi": 71,
      "hit": false,
      "t": 82307.68133333347,
      "d": 360.57687499999884,
      "v": 97
    },
    {
      "midi": 68,
      "hit": false,
      "t": 82692.2966666668,
      "d": 360.57687499999884,
      "v": 98
    },
    {
      "midi": 60,
      "hit": false,
      "t": 83076.91200000014,
      "d": 360.57687499999884,
      "v": 92
    },
    {
      "midi": 64,
      "hit": false,
      "t": 83461.52733333348,
      "d": 360.57687499999884,
      "v": 99
    },
    {
      "midi": 67,
      "hit": false,
      "t": 83846.14266666681,
      "d": 360.57687499999884,
      "v": 99
    },
    {
      "midi": 70,
      "hit": false,
      "t": 84230.75800000015,
      "d": 360.57687499999884,
      "v": 100
    },
    {
      "midi": 67,
      "hit": false,
      "t": 84615.37333333348,
      "d": 360.57687499999884,
      "v": 94
    },
    {
      "midi": 64,
      "hit": false,
      "t": 84999.98866666682,
      "d": 360.57687499999884,
      "v": 100
    },
    {
      "midi": 60,
      "hit": false,
      "t": 85384.60400000015,
      "d": 360.57687499999884,
      "v": 100
    },
    {
      "midi": 64,
      "hit": false,
      "t": 85769.21933333349,
      "d": 360.57687499999884,
      "v": 93
    },
    {
      "midi": 67,
      "hit": false,
      "t": 86153.83466666682,
      "d": 360.57687499999884,
      "v": 102
    },
    {
      "midi": 70,
      "hit": false,
      "t": 86538.45000000016,
      "d": 360.57687499999884,
      "v": 93
    },
    {
      "midi": 67,
      "hit": false,
      "t": 86923.06533333349,
      "d": 360.57687499999884,
      "v": 97
    },
    {
      "midi": 64,
      "hit": false,
      "t": 87307.68066666683,
      "d": 360.57687499999884,
      "v": 97
    },
    {
      "midi": 60,
      "hit": false,
      "t": 87692.29600000016,
      "d": 360.57687499999884,
      "v": 96
    },
    {
      "midi": 65,
      "hit": false,
      "t": 88076.9113333335,
      "d": 360.57687499999884,
      "v": 108
    },
    {
      "midi": 69,
      "hit": false,
      "t": 88461.52666666683,
      "d": 360.57687499999884,
      "v": 94
    },
    {
      "midi": 72,
      "hit": false,
      "t": 88846.14200000017,
      "d": 360.57687499999884,
      "v": 92
    },
    {
      "midi": 69,
      "hit": false,
      "t": 89230.7573333335,
      "d": 360.57687499999884,
      "v": 97
    },
    {
      "midi": 65,
      "hit": false,
      "t": 89615.37266666684,
      "d": 360.57687499999884,
      "v": 108
    },
    {
      "midi": 60,
      "hit": false,
      "t": 89999.98800000017,
      "d": 360.57687499999884,
      "v": 96
    },
    {
      "midi": 65,
      "hit": false,
      "t": 90384.6033333335,
      "d": 360.57687499999884,
      "v": 96
    },
    {
      "midi": 69,
      "hit": false,
      "t": 90769.21866666684,
      "d": 360.57687499999884,
      "v": 99
    },
    {
      "midi": 72,
      "hit": false,
      "t": 91153.83400000018,
      "d": 360.57687499999884,
      "v": 100
    },
    {
      "midi": 69,
      "hit": false,
      "t": 91538.44933333351,
      "d": 360.57687499999884,
      "v": 96
    },
    {
      "midi": 65,
      "hit": false,
      "t": 91923.06466666685,
      "d": 360.57687499999884,
      "v": 95
    },
    {
      "midi": 62,
      "hit": false,
      "t": 92307.68000000018,
      "d": 360.57687499999884,
      "v": 100
    },
    {
      "midi": 65,
      "hit": false,
      "t": 92692.29533333352,
      "d": 360.57687499999884,
      "v": 96
    },
    {
      "midi": 68,
      "hit": false,
      "t": 93076.91066666685,
      "d": 360.57687499999884,
      "v": 97
    },
    {
      "midi": 71,
      "hit": false,
      "t": 93461.52600000019,
      "d": 360.57687499999884,
      "v": 93
    },
    {
      "midi": 68,
      "hit": false,
      "t": 93846.14133333352,
      "d": 360.57687499999884,
      "v": 98
    },
    {
      "midi": 65,
      "hit": false,
      "t": 94230.75666666686,
      "d": 360.57687499999884,
      "v": 100
    },
    {
      "midi": 62,
      "hit": false,
      "t": 94615.37200000019,
      "d": 360.57687499999884,
      "v": 106
    },
    {
      "midi": 65,
      "hit": false,
      "t": 94999.98733333353,
      "d": 360.57687499999884,
      "v": 105
    },
    {
      "midi": 68,
      "hit": false,
      "t": 95384.60266666686,
      "d": 360.57687499999884,
      "v": 104
    },
    {
      "midi": 71,
      "hit": false,
      "t": 95769.2180000002,
      "d": 360.57687499999884,
      "v": 103
    },
    {
      "midi": 68,
      "hit": false,
      "t": 96153.83333333353,
      "d": 360.57687499999884,
      "v": 105
    },
    {
      "midi": 65,
      "hit": false,
      "t": 96538.44866666687,
      "d": 360.57687499999884,
      "v": 109
    },
    {
      "midi": 60,
      "hit": false,
      "t": 96923.0640000002,
      "d": 360.57687499999884,
      "v": 107
    },
    {
      "midi": 64,
      "hit": false,
      "t": 97307.67933333354,
      "d": 360.57687499999884,
      "v": 105
    },
    {
      "midi": 67,
      "hit": false,
      "t": 97692.29466666687,
      "d": 360.57687499999884,
      "v": 107
    },
    {
      "midi": 72,
      "hit": false,
      "t": 98076.9100000002,
      "d": 360.57687499999884,
      "v": 104
    },
    {
      "midi": 67,
      "hit": false,
      "t": 98461.52533333354,
      "d": 360.57687499999884,
      "v": 108
    },
    {
      "midi": 64,
      "hit": false,
      "t": 98846.14066666688,
      "d": 360.57687499999884,
      "v": 107
    },
    {
      "midi": 60,
      "hit": false,
      "t": 99230.75600000021,
      "d": 360.57687499999884,
      "v": 107
    },
    {
      "midi": 64,
      "hit": false,
      "t": 99615.37133333355,
      "d": 360.57687499999884,
      "v": 107
    },
    {
      "midi": 67,
      "hit": false,
      "t": 99999.98666666688,
      "d": 360.57687499999884,
      "v": 112
    },
    {
      "midi": 72,
      "hit": false,
      "t": 100384.60200000022,
      "d": 360.57687499999884,
      "v": 105
    },
    {
      "midi": 67,
      "hit": false,
      "t": 100769.21733333355,
      "d": 360.57687499999884,
      "v": 107
    },
    {
      "midi": 64,
      "hit": false,
      "t": 101153.83266666689,
      "d": 360.57687499999884,
      "v": 106
    },
    {
      "midi": 60,
      "hit": false,
      "t": 101538.44800000022,
      "d": 360.57687499999884,
      "v": 104
    },
    {
      "midi": 62,
      "hit": false,
      "t": 101923.06333333356,
      "d": 360.57687499999884,
      "v": 106
    },
    {
      "midi": 65,
      "hit": false,
      "t": 102307.67866666689,
      "d": 360.57687499999884,
      "v": 108
    },
    {
      "midi": 68,
      "hit": false,
      "t": 102692.29400000023,
      "d": 360.57687499999884,
      "v": 109
    },
    {
      "midi": 65,
      "hit": false,
      "t": 103076.90933333356,
      "d": 360.57687499999884,
      "v": 109
    },
    {
      "midi": 62,
      "hit": false,
      "t": 103461.5246666669,
      "d": 360.57687499999884,
      "v": 108
    },
    {
      "midi": 60,
      "hit": false,
      "t": 103846.14000000023,
      "d": 360.57687499999884,
      "v": 108
    },
    {
      "midi": 62,
      "hit": false,
      "t": 104230.75533333357,
      "d": 360.57687499999884,
      "v": 110
    },
    {
      "midi": 65,
      "hit": false,
      "t": 104615.3706666669,
      "d": 360.57687499999884,
      "v": 105
    },
    {
      "midi": 68,
      "hit": false,
      "t": 104999.98600000024,
      "d": 360.57687499999884,
      "v": 102
    },
    {
      "midi": 65,
      "hit": false,
      "t": 105384.60133333357,
      "d": 360.57687499999884,
      "v": 109
    },
    {
      "midi": 62,
      "hit": false,
      "t": 105769.2166666669,
      "d": 360.57687499999884,
      "v": 105
    },
    {
      "midi": 60,
      "hit": false,
      "t": 106153.83200000024,
      "d": 360.57687499999884,
      "v": 120
    },
    {
      "midi": 64,
      "hit": false,
      "t": 106538.44733333358,
      "d": 360.57687499999884,
      "v": 110
    },
    {
      "midi": 67,
      "hit": false,
      "t": 106923.06266666691,
      "d": 360.57687499999884,
      "v": 108
    },
    {
      "midi": 72,
      "hit": false,
      "t": 107307.67800000025,
      "d": 360.57687499999884,
      "v": 102
    },
    {
      "midi": 67,
      "hit": false,
      "t": 107692.29333333358,
      "d": 360.57687499999884,
      "v": 110
    },
    {
      "midi": 64,
      "hit": false,
      "t": 108076.90866666692,
      "d": 360.57687499999884,
      "v": 109
    },
    {
      "midi": 60,
      "hit": false,
      "t": 108461.52400000025,
      "d": 360.57687499999884,
      "v": 103
    },
    {
      "midi": 64,
      "hit": false,
      "t": 108846.13933333359,
      "d": 360.57687499999884,
      "v": 109
    },
    {
      "midi": 67,
      "hit": false,
      "t": 109230.75466666692,
      "d": 360.57687499999884,
      "v": 105
    },
    {
      "midi": 72,
      "hit": false,
      "t": 109615.37000000026,
      "d": 360.57687499999884,
      "v": 106
    },
    {
      "midi": 67,
      "hit": false,
      "t": 109999.98533333359,
      "d": 360.57687499999884,
      "v": 106
    },
    {
      "midi": 64,
      "hit": false,
      "t": 110384.60066666693,
      "d": 360.57687499999884,
      "v": 104
    },
    {
      "midi": 64,
      "hit": false,
      "t": 110769.21600000026,
      "d": 360.57687499999884,
      "v": 103
    },
    {
      "midi": 67,
      "hit": false,
      "t": 111153.8313333336,
      "d": 360.57687499999884,
      "v": 108
    },
    {
      "midi": 71,
      "hit": false,
      "t": 111538.44666666693,
      "d": 360.57687499999884,
      "v": 104
    },
    {
      "midi": 76,
      "hit": false,
      "t": 111923.06200000027,
      "d": 360.57687499999884,
      "v": 108
    },
    {
      "midi": 71,
      "hit": false,
      "t": 112307.6773333336,
      "d": 360.57687499999884,
      "v": 102
    },
    {
      "midi": 67,
      "hit": false,
      "t": 112692.29266666694,
      "d": 360.57687499999884,
      "v": 109
    },
    {
      "midi": 64,
      "hit": false,
      "t": 113076.90800000027,
      "d": 360.57687499999884,
      "v": 107
    },
    {
      "midi": 67,
      "hit": false,
      "t": 113461.52333333361,
      "d": 360.57687499999884,
      "v": 105
    },
    {
      "midi": 71,
      "hit": false,
      "t": 113846.13866666694,
      "d": 360.57687499999884,
      "v": 110
    },
    {
      "midi": 76,
      "hit": false,
      "t": 114230.75400000028,
      "d": 360.57687499999884,
      "v": 105
    },
    {
      "midi": 71,
      "hit": false,
      "t": 114615.36933333361,
      "d": 360.57687499999884,
      "v": 107
    },
    {
      "midi": 67,
      "hit": false,
      "t": 114999.98466666695,
      "d": 360.57687499999884,
      "v": 103
    },
    {
      "midi": 65,
      "hit": false,
      "t": 115384.60000000028,
      "d": 360.57687499999884,
      "v": 109
    },
    {
      "midi": 69,
      "hit": false,
      "t": 115769.21533333362,
      "d": 360.57687499999884,
      "v": 110
    },
    {
      "midi": 72,
      "hit": false,
      "t": 116153.83066666695,
      "d": 360.57687499999884,
      "v": 108
    },
    {
      "midi": 77,
      "hit": false,
      "t": 116538.44600000029,
      "d": 360.57687499999884,
      "v": 119
    },
    {
      "midi": 72,
      "hit": false,
      "t": 116923.06133333362,
      "d": 360.57687499999884,
      "v": 110
    },
    {
      "midi": 69,
      "hit": false,
      "t": 117307.67666666696,
      "d": 360.57687499999884,
      "v": 102
    },
    {
      "midi": 65,
      "hit": false,
      "t": 117692.29200000029,
      "d": 360.57687499999884,
      "v": 108
    },
    {
      "midi": 69,
      "hit": false,
      "t": 118076.90733333363,
      "d": 360.57687499999884,
      "v": 102
    },
    {
      "midi": 72,
      "hit": false,
      "t": 118461.52266666696,
      "d": 360.57687499999884,
      "v": 107
    },
    {
      "midi": 77,
      "hit": false,
      "t": 118846.1380000003,
      "d": 360.57687499999884,
      "v": 107
    },
    {
      "midi": 72,
      "hit": false,
      "t": 119230.75333333363,
      "d": 360.57687499999884,
      "v": 115
    },
    {
      "midi": 69,
      "hit": false,
      "t": 119615.36866666697,
      "d": 360.57687499999884,
      "v": 104
    },
    {
      "midi": 67,
      "hit": false,
      "t": 119999.9840000003,
      "d": 360.57687499999884,
      "v": 102
    },
    {
      "midi": 71,
      "hit": false,
      "t": 120384.59933333364,
      "d": 360.57687499999884,
      "v": 106
    },
    {
      "midi": 74,
      "hit": false,
      "t": 120769.21466666697,
      "d": 360.57687499999884,
      "v": 106
    },
    {
      "midi": 79,
      "hit": false,
      "t": 121153.83000000031,
      "d": 360.57687499999884,
      "v": 103
    },
    {
      "midi": 74,
      "hit": false,
      "t": 121538.44533333364,
      "d": 360.57687499999884,
      "v": 103
    },
    {
      "midi": 71,
      "hit": false,
      "t": 121923.06066666698,
      "d": 360.57687499999884,
      "v": 108
    },
    {
      "midi": 67,
      "hit": false,
      "t": 122307.67600000031,
      "d": 360.57687499999884,
      "v": 109
    },
    {
      "midi": 71,
      "hit": false,
      "t": 122692.29133333365,
      "d": 360.57687499999884,
      "v": 105
    },
    {
      "midi": 74,
      "hit": false,
      "t": 123076.90666666698,
      "d": 360.57687499999884,
      "v": 102
    },
    {
      "midi": 79,
      "hit": false,
      "t": 123461.52200000032,
      "d": 360.57687499999884,
      "v": 112
    },
    {
      "midi": 74,
      "hit": false,
      "t": 123846.13733333365,
      "d": 360.57687499999884,
      "v": 108
    },
    {
      "midi": 71,
      "hit": false,
      "t": 124230.75266666699,
      "d": 360.57687499999884,
      "v": 102
    },
    {
      "midi": 60,
      "hit": false,
      "t": 124615.36800000032,
      "d": 360.57687499999884,
      "v": 107
    },
    {
      "midi": 64,
      "hit": false,
      "t": 124999.98333333366,
      "d": 360.57687499999884,
      "v": 106
    },
    {
      "midi": 67,
      "hit": false,
      "t": 125384.59866666699,
      "d": 360.57687499999884,
      "v": 103
    },
    {
      "midi": 72,
      "hit": false,
      "t": 125769.21400000033,
      "d": 360.57687499999884,
      "v": 107
    },
    {
      "midi": 67,
      "hit": false,
      "t": 126153.82933333366,
      "d": 360.57687499999884,
      "v": 102
    },
    {
      "midi": 64,
      "hit": false,
      "t": 126538.444666667,
      "d": 360.57687499999884,
      "v": 102
    },
    {
      "midi": 60,
      "hit": false,
      "t": 126923.06000000033,
      "d": 360.57687499999884,
      "v": 104
    },
    {
      "midi": 64,
      "hit": false,
      "t": 127307.67533333367,
      "d": 360.57687499999884,
      "v": 107
    },
    {
      "midi": 67,
      "hit": false,
      "t": 127692.290666667,
      "d": 360.57687499999884,
      "v": 106
    },
    {
      "midi": 72,
      "hit": false,
      "t": 128076.90600000034,
      "d": 360.57687499999884,
      "v": 106
    },
    {
      "midi": 67,
      "hit": false,
      "t": 128461.52133333367,
      "d": 360.57687499999884,
      "v": 103
    },
    {
      "midi": 64,
      "hit": false,
      "t": 128846.13666666701,
      "d": 360.57687499999884,
      "v": 105
    },
    {
      "midi": 60,
      "hit": false,
      "t": 129230.75200000034,
      "d": 360.57687499999884,
      "v": 118
    },
    {
      "midi": 64,
      "hit": false,
      "t": 129615.36733333368,
      "d": 360.57687499999884,
      "v": 127
    },
    {
      "midi": 68,
      "hit": false,
      "t": 129999.98266666701,
      "d": 360.57687499999884,
      "v": 114
    },
    {
      "midi": 72,
      "hit": false,
      "t": 130384.59800000035,
      "d": 360.57687499999884,
      "v": 115
    },
    {
      "midi": 68,
      "hit": false,
      "t": 130769.21333333368,
      "d": 360.5768750000134,
      "v": 115
    },
    {
      "midi": 64,
      "hit": false,
      "t": 131153.82866666702,
      "d": 360.57687499999884,
      "v": 117
    },
    {
      "midi": 60,
      "hit": false,
      "t": 131538.44400000034,
      "d": 360.57687499999884,
      "v": 127
    },
    {
      "midi": 64,
      "hit": false,
      "t": 131923.05933333366,
      "d": 360.57687499999884,
      "v": 118
    },
    {
      "midi": 68,
      "hit": false,
      "t": 132307.67466666698,
      "d": 360.57687499999884,
      "v": 114
    },
    {
      "midi": 72,
      "hit": false,
      "t": 132692.2900000003,
      "d": 360.57687499999884,
      "v": 127
    },
    {
      "midi": 68,
      "hit": false,
      "t": 133076.90533333362,
      "d": 360.57687499999884,
      "v": 120
    },
    {
      "midi": 64,
      "hit": false,
      "t": 133461.52066666694,
      "d": 360.57687499999884,
      "v": 119
    },
    {
      "midi": 60,
      "hit": false,
      "t": 133846.13600000026,
      "d": 360.57687499999884,
      "v": 120
    },
    {
      "midi": 65,
      "hit": false,
      "t": 134230.75133333358,
      "d": 360.57687499999884,
      "v": 118
    },
    {
      "midi": 69,
      "hit": false,
      "t": 134615.3666666669,
      "d": 360.57687499999884,
      "v": 118
    },
    {
      "midi": 72,
      "hit": false,
      "t": 134999.98200000022,
      "d": 360.57687499999884,
      "v": 113
    },
    {
      "midi": 69,
      "hit": false,
      "t": 135384.59733333354,
      "d": 360.57687499999884,
      "v": 119
    },
    {
      "midi": 65,
      "hit": false,
      "t": 135769.21266666686,
      "d": 360.57687499999884,
      "v": 117
    },
    {
      "midi": 60,
      "hit": false,
      "t": 136153.82800000018,
      "d": 360.57687499999884,
      "v": 115
    },
    {
      "midi": 65,
      "hit": false,
      "t": 136538.4433333335,
      "d": 360.57687499999884,
      "v": 113
    },
    {
      "midi": 69,
      "hit": false,
      "t": 136923.05866666682,
      "d": 360.57687499999884,
      "v": 115
    },
    {
      "midi": 72,
      "hit": false,
      "t": 137307.67400000014,
      "d": 360.57687499999884,
      "v": 113
    },
    {
      "midi": 69,
      "hit": false,
      "t": 137692.28933333347,
      "d": 360.57687499999884,
      "v": 123
    },
    {
      "midi": 65,
      "hit": false,
      "t": 138076.9046666668,
      "d": 360.57687499999884,
      "v": 119
    },
    {
      "midi": 62,
      "hit": false,
      "t": 138461.5200000001,
      "d": 360.57687499999884,
      "v": 115
    },
    {
      "midi": 66,
      "hit": false,
      "t": 138846.13533333343,
      "d": 360.57687499999884,
      "v": 119
    },
    {
      "midi": 69,
      "hit": false,
      "t": 139230.75066666675,
      "d": 360.57687499999884,
      "v": 116
    },
    {
      "midi": 74,
      "hit": false,
      "t": 139615.36600000007,
      "d": 360.57687499999884,
      "v": 115
    },
    {
      "midi": 69,
      "hit": false,
      "t": 139999.9813333334,
      "d": 360.57687499999884,
      "v": 113
    },
    {
      "midi": 66,
      "hit": false,
      "t": 140384.5966666667,
      "d": 360.57687499999884,
      "v": 127
    },
    {
      "midi": 62,
      "hit": false,
      "t": 140769.21200000003,
      "d": 360.57687499999884,
      "v": 115
    },
    {
      "midi": 66,
      "hit": false,
      "t": 141153.82733333335,
      "d": 360.57687499999884,
      "v": 115
    },
    {
      "midi": 69,
      "hit": false,
      "t": 141538.44266666667,
      "d": 360.57687499999884,
      "v": 117
    },
    {
      "midi": 74,
      "hit": false,
      "t": 141923.058,
      "d": 360.57687499999884,
      "v": 112
    },
    {
      "midi": 69,
      "hit": false,
      "t": 142307.6733333333,
      "d": 360.57687499999884,
      "v": 115
    },
    {
      "midi": 66,
      "hit": false,
      "t": 142692.28866666663,
      "d": 360.57687499999884,
      "v": 120
    },
    {
      "midi": 64,
      "hit": false,
      "t": 143076.90399999995,
      "d": 360.57687499999884,
      "v": 118
    },
    {
      "midi": 67,
      "hit": false,
      "t": 143461.51933333327,
      "d": 360.57687499999884,
      "v": 116
    },
    {
      "midi": 72,
      "hit": false,
      "t": 143846.1346666666,
      "d": 360.57687499999884,
      "v": 119
    },
    {
      "midi": 76,
      "hit": false,
      "t": 144230.7499999999,
      "d": 360.57687499999884,
      "v": 112
    },
    {
      "midi": 72,
      "hit": false,
      "t": 144615.36533333323,
      "d": 360.57687499999884,
      "v": 116
    },
    {
      "midi": 67,
      "hit": false,
      "t": 144999.98066666655,
      "d": 360.57687499999884,
      "v": 119
    },
    {
      "midi": 64,
      "hit": false,
      "t": 145384.59599999987,
      "d": 360.57687499999884,
      "v": 114
    },
    {
      "midi": 68,
      "hit": false,
      "t": 145769.2113333332,
      "d": 360.57687499999884,
      "v": 119
    },
    {
      "midi": 72,
      "hit": false,
      "t": 146153.82666666651,
      "d": 360.57687499999884,
      "v": 119
    },
    {
      "midi": 76,
      "hit": false,
      "t": 146538.44199999984,
      "d": 360.57687499999884,
      "v": 119
    },
    {
      "midi": 72,
      "hit": false,
      "t": 146923.05733333316,
      "d": 360.57687499999884,
      "v": 118
    },
    {
      "midi": 68,
      "hit": false,
      "t": 147307.67266666648,
      "d": 360.57687499999884,
      "v": 118
    },
    {
      "midi": 65,
      "hit": false,
      "t": 147692.2879999998,
      "d": 360.57687499999884,
      "v": 116
    },
    {
      "midi": 69,
      "hit": false,
      "t": 148076.90333333312,
      "d": 360.57687499999884,
      "v": 123
    },
    {
      "midi": 72,
      "hit": false,
      "t": 148461.51866666644,
      "d": 360.57687499999884,
      "v": 112
    },
    {
      "midi": 76,
      "hit": false,
      "t": 148846.13399999976,
      "d": 360.57687499999884,
      "v": 119
    },
    {
      "midi": 72,
      "hit": false,
      "t": 149230.74933333308,
      "d": 360.57687499999884,
      "v": 114
    },
    {
      "midi": 69,
      "hit": false,
      "t": 149615.3646666664,
      "d": 360.57687499999884,
      "v": 112
    },
    {
      "midi": 66,
      "hit": false,
      "t": 149999.97999999972,
      "d": 1850.9612916666665,
      "v": 120
    },
    {
      "midi": 70,
      "hit": false,
      "t": 149999.97999999972,
      "d": 1850.9612916666665,
      "v": 112
    },
    {
      "midi": 73,
      "hit": false,
      "t": 149999.97999999972,
      "d": 1850.9612916666665,
      "v": 120
    },
    {
      "midi": 76,
      "hit": false,
      "t": 149999.97999999972,
      "d": 1850.9612916666665,
      "v": 113
    },
    {
      "midi": 64,
      "hit": false,
      "t": 152307.67199999973,
      "d": 360.57687499999884,
      "v": 120
    },
    {
      "midi": 67,
      "hit": false,
      "t": 152692.28733333305,
      "d": 360.57687499999884,
      "v": 116
    },
    {
      "midi": 71,
      "hit": false,
      "t": 153076.90266666637,
      "d": 360.57687499999884,
      "v": 117
    },
    {
      "midi": 76,
      "hit": false,
      "t": 153461.5179999997,
      "d": 360.57687499999884,
      "v": 118
    },
    {
      "midi": 71,
      "hit": false,
      "t": 153846.133333333,
      "d": 360.57687499999884,
      "v": 113
    },
    {
      "midi": 67,
      "hit": false,
      "t": 154230.74866666633,
      "d": 360.57687499999884,
      "v": 120
    },
    {
      "midi": 64,
      "hit": false,
      "t": 154615.36399999965,
      "d": 360.57687499999884,
      "v": 127
    },
    {
      "midi": 67,
      "hit": false,
      "t": 154999.97933333297,
      "d": 360.57687499999884,
      "v": 112
    },
    {
      "midi": 71,
      "hit": false,
      "t": 155384.5946666663,
      "d": 360.57687499999884,
      "v": 114
    },
    {
      "midi": 76,
      "hit": false,
      "t": 155769.2099999996,
      "d": 360.57687499999884,
      "v": 119
    },
    {
      "midi": 71,
      "hit": false,
      "t": 156153.82533333293,
      "d": 360.57687499999884,
      "v": 127
    },
    {
      "midi": 67,
      "hit": false,
      "t": 156538.44066666625,
      "d": 360.57687499999884,
      "v": 112
    },
    {
      "midi": 64,
      "hit": false,
      "t": 156923.05599999957,
      "d": 360.57687499999884,
      "v": 120
    },
    {
      "midi": 67,
      "hit": false,
      "t": 157307.6713333329,
      "d": 360.57687499999884,
      "v": 119
    },
    {
      "midi": 71,
      "hit": false,
      "t": 157692.28666666622,
      "d": 360.57687499999884,
      "v": 120
    },
    {
      "midi": 76,
      "hit": false,
      "t": 158076.90199999954,
      "d": 360.57687499999884,
      "v": 112
    },
    {
      "midi": 71,
      "hit": false,
      "t": 158461.51733333286,
      "d": 360.57687499999884,
      "v": 120
    },
    {
      "midi": 67,
      "hit": false,
      "t": 158846.13266666618,
      "d": 360.57687499999884,
      "v": 118
    },
    {
      "midi": 62,
      "hit": false,
      "t": 159230.7479999995,
      "d": 360.57687499999884,
      "v": 113
    },
    {
      "midi": 67,
      "hit": false,
      "t": 159615.36333333282,
      "d": 360.57687499999884,
      "v": 115
    },
    {
      "midi": 71,
      "hit": false,
      "t": 159999.97866666614,
      "d": 360.57687499999884,
      "v": 114
    },
    {
      "midi": 74,
      "hit": false,
      "t": 160384.59399999946,
      "d": 360.57687499999884,
      "v": 115
    },
    {
      "midi": 71,
      "hit": false,
      "t": 160769.20933333278,
      "d": 360.57687499999884,
      "v": 125
    },
    {
      "midi": 67,
      "hit": false,
      "t": 161153.8246666661,
      "d": 360.57687499999884,
      "v": 114
    },
    {
      "midi": 64,
      "hit": false,
      "t": 161538.43999999942,
      "d": 360.57687499999884,
      "v": 113
    },
    {
      "midi": 67,
      "hit": false,
      "t": 161923.05533333274,
      "d": 360.57687499999884,
      "v": 117
    },
    {
      "midi": 72,
      "hit": false,
      "t": 162307.67066666606,
      "d": 360.57687499999884,
      "v": 112
    },
    {
      "midi": 76,
      "hit": false,
      "t": 162692.28599999938,
      "d": 360.57687499999884,
      "v": 115
    },
    {
      "midi": 72,
      "hit": false,
      "t": 163076.9013333327,
      "d": 360.57687499999884,
      "v": 127
    },
    {
      "midi": 67,
      "hit": false,
      "t": 163461.51666666602,
      "d": 360.57687499999884,
      "v": 114
    },
    {
      "midi": 64,
      "hit": false,
      "t": 163846.13199999934,
      "d": 360.57687499999884,
      "v": 127
    },
    {
      "midi": 68,
      "hit": false,
      "t": 164230.74733333266,
      "d": 360.57687499999884,
      "v": 127
    },
    {
      "midi": 72,
      "hit": false,
      "t": 164615.36266666598,
      "d": 360.57687499999884,
      "v": 125
    },
    {
      "midi": 76,
      "hit": false,
      "t": 164999.9779999993,
      "d": 360.57687499999884,
      "v": 127
    },
    {
      "midi": 72,
      "hit": false,
      "t": 165384.59333333262,
      "d": 360.57687499999884,
      "v": 127
    },
    {
      "midi": 68,
      "hit": false,
      "t": 165769.20866666595,
      "d": 360.57687499999884,
      "v": 126
    },
    {
      "midi": 65,
      "hit": false,
      "t": 166153.82399999927,
      "d": 360.57687499999884,
      "v": 122
    },
    {
      "midi": 69,
      "hit": false,
      "t": 166538.4393333326,
      "d": 360.57687499999884,
      "v": 124
    },
    {
      "midi": 72,
      "hit": false,
      "t": 166923.0546666659,
      "d": 360.57687499999884,
      "v": 122
    },
    {
      "midi": 77,
      "hit": false,
      "t": 167307.66999999923,
      "d": 360.57687499999884,
      "v": 127
    },
    {
      "midi": 72,
      "hit": false,
      "t": 167692.28533333255,
      "d": 360.57687499999884,
      "v": 123
    },
    {
      "midi": 69,
      "hit": false,
      "t": 168076.90066666587,
      "d": 360.57687499999884,
      "v": 127
    },
    {
      "midi": 65,
      "hit": false,
      "t": 168461.5159999992,
      "d": 360.57687499999884,
      "v": 123
    },
    {
      "midi": 69,
      "hit": false,
      "t": 168846.1313333325,
      "d": 360.57687499999884,
      "v": 127
    },
    {
      "midi": 72,
      "hit": false,
      "t": 169230.74666666583,
      "d": 360.57687499999884,
      "v": 124
    },
    {
      "midi": 77,
      "hit": false,
      "t": 169615.36199999915,
      "d": 360.57687499999884,
      "v": 127
    },
    {
      "midi": 72,
      "hit": false,
      "t": 169999.97733333247,
      "d": 360.57687499999884,
      "v": 127
    },
    {
      "midi": 69,
      "hit": false,
      "t": 170384.5926666658,
      "d": 360.57687499999884,
      "v": 127
    },
    {
      "midi": 60,
      "hit": false,
      "t": 170769.2079999991,
      "d": 360.57687499999884,
      "v": 127
    },
    {
      "midi": 64,
      "hit": false,
      "t": 171153.82333333243,
      "d": 360.57687499999884,
      "v": 127
    },
    {
      "midi": 67,
      "hit": false,
      "t": 171538.43866666575,
      "d": 360.57687499999884,
      "v": 127
    },
    {
      "midi": 72,
      "hit": false,
      "t": 171923.05399999907,
      "d": 360.57687499999884,
      "v": 127
    },
    {
      "midi": 67,
      "hit": false,
      "t": 172307.6693333324,
      "d": 360.57687499999884,
      "v": 126
    },
    {
      "midi": 64,
      "hit": false,
      "t": 172692.2846666657,
      "d": 360.57687499999884,
      "v": 123
    },
    {
      "midi": 60,
      "hit": false,
      "t": 173076.89999999903,
      "d": 360.57687499999884,
      "v": 127
    },
    {
      "midi": 64,
      "hit": false,
      "t": 173461.51533333235,
      "d": 360.57687499999884,
      "v": 127
    },
    {
      "midi": 67,
      "hit": false,
      "t": 173846.13066666567,
      "d": 360.57687499999884,
      "v": 126
    },
    {
      "midi": 72,
      "hit": false,
      "t": 174230.745999999,
      "d": 360.57687499999884,
      "v": 124
    },
    {
      "midi": 67,
      "hit": false,
      "t": 174615.36133333232,
      "d": 360.57687499999884,
      "v": 124
    },
    {
      "midi": 64,
      "hit": false,
      "t": 174999.97666666564,
      "d": 360.57687499999884,
      "v": 126
    },
    {
      "midi": 55,
      "hit": false,
      "t": 175384.59199999896,
      "d": 360.57687499999884,
      "v": 127
    },
    {
      "midi": 59,
      "hit": false,
      "t": 175769.20733333228,
      "d": 360.57687499999884,
      "v": 126
    },
    {
      "midi": 62,
      "hit": false,
      "t": 176153.8226666656,
      "d": 360.57687499999884,
      "v": 124
    },
    {
      "midi": 67,
      "hit": false,
      "t": 176538.43799999892,
      "d": 360.57687499999884,
      "v": 123
    },
    {
      "midi": 62,
      "hit": false,
      "t": 176923.05333333224,
      "d": 360.57687499999884,
      "v": 127
    },
    {
      "midi": 59,
      "hit": false,
      "t": 177307.66866666556,
      "d": 360.57687499999884,
      "v": 124
    },
    {
      "midi": 55,
      "hit": false,
      "t": 177692.28399999888,
      "d": 360.57687499999884,
      "v": 127
    },
    {
      "midi": 59,
      "hit": false,
      "t": 178076.8993333322,
      "d": 360.57687499999884,
      "v": 127
    },
    {
      "midi": 62,
      "hit": false,
      "t": 178461.51466666552,
      "d": 360.57687499999884,
      "v": 122
    },
    {
      "midi": 67,
      "hit": false,
      "t": 178846.12999999884,
      "d": 360.57687499999884,
      "v": 127
    },
    {
      "midi": 62,
      "hit": false,
      "t": 179230.74533333216,
      "d": 360.57687499999884,
      "v": 127
    },
    {
      "midi": 59,
      "hit": false,
      "t": 179615.36066666548,
      "d": 360.57687499999884,
      "v": 125
    },
    {
      "midi": 60,
      "hit": false,
      "t": 179999.9759999988,
      "d": 360.57687499999884,
      "v": 125
    },
    {
      "midi": 64,
      "hit": false,
      "t": 180384.59133333212,
      "d": 360.57687499999884,
      "v": 123
    },
    {
      "midi": 67,
      "hit": false,
      "t": 180769.20666666544,
      "d": 360.57687499999884,
      "v": 122
    },
    {
      "midi": 72,
      "hit": false,
      "t": 181153.82199999876,
      "d": 360.57687499999884,
      "v": 125
    },
    {
      "midi": 67,
      "hit": false,
      "t": 181538.43733333208,
      "d": 360.57687499999884,
      "v": 127
    },
    {
      "midi": 64,
      "hit": false,
      "t": 181923.0526666654,
      "d": 360.57687499999884,
      "v": 127
    },
    {
      "midi": 60,
      "hit": false,
      "t": 182307.66799999872,
      "d": 360.57687499999884,
      "v": 123
    },
    {
      "midi": 64,
      "hit": false,
      "t": 182692.28333333205,
      "d": 360.57687499999884,
      "v": 126
    },
    {
      "midi": 67,
      "hit": false,
      "t": 183076.89866666537,
      "d": 360.57687499999884,
      "v": 127
    },
    {
      "midi": 72,
      "hit": false,
      "t": 183461.5139999987,
      "d": 360.57687499999884,
      "v": 127
    },
    {
      "midi": 67,
      "hit": false,
      "t": 183846.129333332,
      "d": 360.57687499999884,
      "v": 127
    },
    {
      "midi": 64,
      "hit": false,
      "t": 184230.74466666533,
      "d": 360.57687499999884,
      "v": 122
    },
    {
      "midi": 60,
      "hit": false,
      "t": 184615.35999999865,
      "d": 360.57687499999884,
      "v": 125
    },
    {
      "midi": 64,
      "hit": false,
      "t": 184999.97533333197,
      "d": 360.57687499999884,
      "v": 123
    },
    {
      "midi": 68,
      "hit": false,
      "t": 185384.5906666653,
      "d": 360.57687499999884,
      "v": 127
    },
    {
      "midi": 72,
      "hit": false,
      "t": 185769.2059999986,
      "d": 360.57687499999884,
      "v": 124
    },
    {
      "midi": 68,
      "hit": false,
      "t": 186153.82133333193,
      "d": 360.57687499999884,
      "v": 127
    },
    {
      "midi": 64,
      "hit": false,
      "t": 186538.43666666525,
      "d": 360.57687499999884,
      "v": 127
    },
    {
      "midi": 60,
      "hit": false,
      "t": 186923.05199999857,
      "d": 360.57687499999884,
      "v": 127
    },
    {
      "midi": 64,
      "hit": false,
      "t": 187307.6673333319,
      "d": 360.57687499999884,
      "v": 125
    },
    {
      "midi": 68,
      "hit": false,
      "t": 187692.2826666652,
      "d": 360.57687499999884,
      "v": 127
    },
    {
      "midi": 72,
      "hit": false,
      "t": 188076.89799999853,
      "d": 360.57687499999884,
      "v": 127
    },
    {
      "midi": 68,
      "hit": false,
      "t": 188461.51333333185,
      "d": 360.57687499999884,
      "v": 124
    },
    {
      "midi": 64,
      "hit": false,
      "t": 188846.12866666517,
      "d": 360.57687499999884,
      "v": 125
    },
    {
      "midi": 60,
      "hit": false,
      "t": 189230.7439999985,
      "d": 360.57687499999884,
      "v": 127
    },
    {
      "midi": 65,
      "hit": false,
      "t": 189615.3593333318,
      "d": 360.57687499999884,
      "v": 127
    },
    {
      "midi": 69,
      "hit": false,
      "t": 189999.97466666513,
      "d": 360.57687499999884,
      "v": 127
    },
    {
      "midi": 72,
      "hit": false,
      "t": 190384.58999999845,
      "d": 360.57687499999884,
      "v": 127
    },
    {
      "midi": 69,
      "hit": false,
      "t": 190769.20533333177,
      "d": 360.57687499999884,
      "v": 127
    },
    {
      "midi": 65,
      "hit": false,
      "t": 191153.8206666651,
      "d": 360.57687499999884,
      "v": 125
    },
    {
      "midi": 60,
      "hit": false,
      "t": 191538.43599999842,
      "d": 360.57687499999884,
      "v": 126
    },
    {
      "midi": 65,
      "hit": false,
      "t": 191923.05133333174,
      "d": 360.57687499999884,
      "v": 124
    },
    {
      "midi": 69,
      "hit": false,
      "t": 192307.66666666506,
      "d": 360.57687499999884,
      "v": 124
    },
    {
      "midi": 72,
      "hit": false,
      "t": 192692.28199999838,
      "d": 360.57687499999884,
      "v": 124
    },
    {
      "midi": 69,
      "hit": false,
      "t": 193076.8973333317,
      "d": 360.57687499999884,
      "v": 127
    },
    {
      "midi": 65,
      "hit": false,
      "t": 193461.51266666502,
      "d": 360.57687499999884,
      "v": 123
    },
    {
      "midi": 62,
      "hit": false,
      "t": 193846.12799999834,
      "d": 360.57687499999884,
      "v": 127
    },
    {
      "midi": 66,
      "hit": false,
      "t": 194230.74333333166,
      "d": 360.57687499999884,
      "v": 127
    },
    {
      "midi": 69,
      "hit": false,
      "t": 194615.35866666498,
      "d": 360.57687499999884,
      "v": 127
    },
    {
      "midi": 74,
      "hit": false,
      "t": 194999.9739999983,
      "d": 360.57687499999884,
      "v": 126
    },
    {
      "midi": 69,
      "hit": false,
      "t": 195384.58933333162,
      "d": 360.57687499999884,
      "v": 127
    },
    {
      "midi": 66,
      "hit": false,
      "t": 195769.20466666494,
      "d": 360.57687499999884,
      "v": 126
    },
    {
      "midi": 62,
      "hit": false,
      "t": 196153.81999999826,
      "d": 360.57687499999884,
      "v": 123
    },
    {
      "midi": 66,
      "hit": false,
      "t": 196538.43533333158,
      "d": 360.57687499999884,
      "v": 127
    },
    {
      "midi": 69,
      "hit": false,
      "t": 196923.0506666649,
      "d": 360.57687499999884,
      "v": 127
    },
    {
      "midi": 74,
      "hit": false,
      "t": 197307.66599999822,
      "d": 360.57687499999884,
      "v": 124
    },
    {
      "midi": 69,
      "hit": false,
      "t": 197692.28133333154,
      "d": 360.57687499999884,
      "v": 127
    },
    {
      "midi": 66,
      "hit": false,
      "t": 198076.89666666486,
      "d": 360.57687499999884,
      "v": 122
    },
    {
      "midi": 64,
      "hit": false,
      "t": 198461.51199999818,
      "d": 360.57687499999884,
      "v": 127
    },
    {
      "midi": 67,
      "hit": false,
      "t": 198846.1273333315,
      "d": 360.57687499999884,
      "v": 127
    },
    {
      "midi": 72,
      "hit": false,
      "t": 199230.74266666482,
      "d": 360.57687499999884,
      "v": 127
    },
    {
      "midi": 76,
      "hit": false,
      "t": 199615.35799999814,
      "d": 360.57687499999884,
      "v": 127
    },
    {
      "midi": 72,
      "hit": false,
      "t": 199999.97333333147,
      "d": 360.57687499999884,
      "v": 127
    },
    {
      "midi": 67,
      "hit": false,
      "t": 200384.5886666648,
      "d": 360.57687499999884,
      "v": 127
    },
    {
      "midi": 64,
      "hit": false,
      "t": 200769.2039999981,
      "d": 360.57687499999884,
      "v": 127
    },
    {
      "midi": 68,
      "hit": false,
      "t": 201153.81933333143,
      "d": 360.57687499999884,
      "v": 127
    },
    {
      "midi": 72,
      "hit": false,
      "t": 201538.43466666475,
      "d": 360.57687499999884,
      "v": 127
    },
    {
      "midi": 76,
      "hit": false,
      "t": 201923.04999999807,
      "d": 360.57687499999884,
      "v": 127
    },
    {
      "midi": 72,
      "hit": false,
      "t": 202307.6653333314,
      "d": 360.57687499999884,
      "v": 127
    },
    {
      "midi": 68,
      "hit": false,
      "t": 202692.2806666647,
      "d": 360.57687499999884,
      "v": 127
    },
    {
      "midi": 65,
      "hit": false,
      "t": 203076.89599999803,
      "d": 360.57687499999884,
      "v": 127
    },
    {
      "midi": 69,
      "hit": false,
      "t": 203461.51133333135,
      "d": 360.57687499999884,
      "v": 127
    },
    {
      "midi": 72,
      "hit": false,
      "t": 203846.12666666467,
      "d": 360.57687499999884,
      "v": 127
    },
    {
      "midi": 76,
      "hit": false,
      "t": 204230.741999998,
      "d": 360.57687499999884,
      "v": 127
    },
    {
      "midi": 72,
      "hit": false,
      "t": 204615.3573333313,
      "d": 360.57687499999884,
      "v": 127
    },
    {
      "midi": 69,
      "hit": false,
      "t": 204999.97266666463,
      "d": 360.57687499999884,
      "v": 127
    },
    {
      "midi": 66,
      "hit": false,
      "t": 205384.58799999795,
      "d": 1850.9612916666665,
      "v": 127
    },
    {
      "midi": 70,
      "hit": false,
      "t": 205384.58799999795,
      "d": 1850.9612916666665,
      "v": 127
    },
    {
      "midi": 73,
      "hit": false,
      "t": 205384.58799999795,
      "d": 1850.9612916666665,
      "v": 127
    },
    {
      "midi": 76,
      "hit": false,
      "t": 205384.58799999795,
      "d": 1850.9612916666665,
      "v": 127
    },
    {
      "midi": 64,
      "hit": false,
      "t": 207692.27999999796,
      "d": 360.57687499999884,
      "v": 127
    },
    {
      "midi": 67,
      "hit": false,
      "t": 208076.89533333128,
      "d": 360.57687499999884,
      "v": 127
    },
    {
      "midi": 71,
      "hit": false,
      "t": 208461.5106666646,
      "d": 360.57687499999884,
      "v": 127
    },
    {
      "midi": 76,
      "hit": false,
      "t": 208846.12599999792,
      "d": 360.57687499999884,
      "v": 127
    },
    {
      "midi": 71,
      "hit": false,
      "t": 209230.74133333124,
      "d": 360.57687499999884,
      "v": 127
    },
    {
      "midi": 67,
      "hit": false,
      "t": 209615.35666666456,
      "d": 360.57687499999884,
      "v": 127
    },
    {
      "midi": 64,
      "hit": false,
      "t": 209999.97199999788,
      "d": 360.57687499999884,
      "v": 127
    },
    {
      "midi": 67,
      "hit": false,
      "t": 210384.5873333312,
      "d": 360.57687499999884,
      "v": 127
    },
    {
      "midi": 71,
      "hit": false,
      "t": 210769.20266666453,
      "d": 360.57687499999884,
      "v": 127
    },
    {
      "midi": 76,
      "hit": false,
      "t": 211153.81799999785,
      "d": 360.57687499999884,
      "v": 127
    },
    {
      "midi": 71,
      "hit": false,
      "t": 211538.43333333117,
      "d": 360.57687499999884,
      "v": 127
    },
    {
      "midi": 67,
      "hit": false,
      "t": 211923.0486666645,
      "d": 360.57687499999884,
      "v": 127
    },
    {
      "midi": 64,
      "hit": false,
      "t": 212307.6639999978,
      "d": 360.57687499999884,
      "v": 127
    },
    {
      "midi": 67,
      "hit": false,
      "t": 212692.27933333113,
      "d": 360.57687499999884,
      "v": 127
    },
    {
      "midi": 71,
      "hit": false,
      "t": 213076.89466666445,
      "d": 360.57687499999884,
      "v": 127
    },
    {
      "midi": 76,
      "hit": false,
      "t": 213461.50999999777,
      "d": 360.57687499999884,
      "v": 127
    },
    {
      "midi": 71,
      "hit": false,
      "t": 213846.1253333311,
      "d": 360.57687499999884,
      "v": 127
    },
    {
      "midi": 67,
      "hit": false,
      "t": 214230.7406666644,
      "d": 360.57687499999884,
      "v": 127
    },
    {
      "midi": 62,
      "hit": false,
      "t": 214615.35599999773,
      "d": 360.57687499999884,
      "v": 127
    },
    {
      "midi": 67,
      "hit": false,
      "t": 214999.97133333105,
      "d": 360.57687499999884,
      "v": 127
    },
    {
      "midi": 71,
      "hit": false,
      "t": 215384.58666666437,
      "d": 360.57687499999884,
      "v": 127
    },
    {
      "midi": 74,
      "hit": false,
      "t": 215769.2019999977,
      "d": 360.57687499999884,
      "v": 127
    },
    {
      "midi": 71,
      "hit": false,
      "t": 216153.817333331,
      "d": 360.57687499999884,
      "v": 127
    },
    {
      "midi": 67,
      "hit": false,
      "t": 216538.43266666433,
      "d": 360.57687499999884,
      "v": 127
    },
    {
      "midi": 48,
      "hit": false,
      "t": 216923.04799999765,
      "d": 1682.692083333328,
      "v": 127
    },
    {
      "midi": 55,
      "hit": false,
      "t": 216923.04799999765,
      "d": 1682.692083333328,
      "v": 127
    },
    {
      "midi": 60,
      "hit": false,
      "t": 216923.04799999765,
      "d": 1682.692083333328,
      "v": 127
    },
    {
      "midi": 64,
      "hit": false,
      "t": 216923.04799999765,
      "d": 1706.7305416666495,
      "v": 127
    },
    {
      "midi": 64,
      "hit": false,
      "t": 219230.73999999763,
      "d": 1646.634395833331,
      "v": 127
    },
    {
      "midi": 56,
      "hit": false,
      "t": 219230.73999999763,
      "d": 1658.6536250000063,
      "v": 127
    },
    {
      "midi": 60,
      "hit": false,
      "t": 219230.73999999763,
      "d": 1658.6536250000063,
      "v": 127
    },
    {
      "midi": 48,
      "hit": false,
      "t": 219230.73999999763,
      "d": 1670.6728541666816,
      "v": 127
    },
    {
      "midi": 65,
      "hit": false,
      "t": 221538.43199999764,
      "d": 1634.6151666666556,
      "v": 127
    },
    {
      "midi": 57,
      "hit": false,
      "t": 221538.43199999764,
      "d": 1658.6536249999772,
      "v": 127
    },
    {
      "midi": 60,
      "hit": false,
      "t": 221538.43199999764,
      "d": 1658.6536249999772,
      "v": 127
    },
    {
      "midi": 53,
      "hit": false,
      "t": 221538.43199999764,
      "d": 1682.6920833332988,
      "v": 127
    },
    {
      "midi": 57,
      "hit": false,
      "t": 223846.1239999976,
      "d": 1646.634395833331,
      "v": 127
    },
    {
      "midi": 65,
      "hit": false,
      "t": 223846.1239999976,
      "d": 1646.634395833331,
      "v": 127
    },
    {
      "midi": 60,
      "hit": false,
      "t": 223846.1239999976,
      "d": 1658.6536250000063,
      "v": 127
    },
    {
      "midi": 43,
      "hit": false,
      "t": 223846.1239999976,
      "d": 1670.6728541666816,
      "v": 127
    },
    {
      "midi": 60,
      "hit": false,
      "t": 226153.8159999976,
      "d": 360.57687499999884,
      "v": 127
    },
    {
      "midi": 65,
      "hit": false,
      "t": 226538.43133333093,
      "d": 360.57687499999884,
      "v": 127
    },
    {
      "midi": 69,
      "hit": false,
      "t": 226923.04666666425,
      "d": 360.57687499999884,
      "v": 127
    },
    {
      "midi": 72,
      "hit": false,
      "t": 227307.66199999757,
      "d": 360.57687499999884,
      "v": 127
    },
    {
      "midi": 69,
      "hit": false,
      "t": 227692.2773333309,
      "d": 360.57687499999884,
      "v": 127
    },
    {
      "midi": 65,
      "hit": false,
      "t": 228076.8926666642,
      "d": 360.57687499999884,
      "v": 127
    },
    {
      "midi": 60,
      "hit": false,
      "t": 228461.50799999753,
      "d": 360.57687499999884,
      "v": 127
    },
    {
      "midi": 65,
      "hit": false,
      "t": 228846.12333333085,
      "d": 360.57687499999884,
      "v": 127
    },
    {
      "midi": 69,
      "hit": false,
      "t": 229230.73866666417,
      "d": 360.57687499999884,
      "v": 127
    },
    {
      "midi": 72,
      "hit": false,
      "t": 229615.3539999975,
      "d": 360.57687499999884,
      "v": 127
    },
    {
      "midi": 69,
      "hit": false,
      "t": 229999.9693333308,
      "d": 360.57687499999884,
      "v": 127
    },
    {
      "midi": 65,
      "hit": false,
      "t": 230384.58466666413,
      "d": 360.57687499999884,
      "v": 127
    },
    {
      "midi": 48,
      "hit": false,
      "t": 230769.19999999745,
      "d": 4543.268624999997,
      "v": 127
    },
    {
      "midi": 55,
      "hit": false,
      "t": 230769.19999999745,
      "d": 4543.268624999997,
      "v": 127
    },
    {
      "midi": 60,
      "hit": false,
      "t": 230769.19999999745,
      "d": 4543.268624999997,
      "v": 127
    },
    {
      "midi": 64,
      "hit": false,
      "t": 230769.19999999745,
      "d": 4543.268624999997,
      "v": 127
    }
  ]
}