{
  "jsonPath": "Classical/Classical/Maria-Joao Pires/waltz-no1-in-e-flat-major-op18-grande-valse-brillante.json",
  "path": "Classical\\Classical\\Maria-Joao Pires\\Waltz No1 in E flat major Op18_ Grande valse brillante.mid",
  "name": "Waltz No1 in E flat major Op18_ Grande valse brillante",
  "difficulty": "Advanced",
  "bpm": 120,
  "notes": [
    {
      "midi": 72,
      "hit": false,
      "t": 3060.512716666667,
      "d": 382.16600000000017,
      "v": 1
    },
    {
      "midi": 70,
      "hit": false,
      "t": 4616.246808333334,
      "d": 378.9812833333335,
      "v": 112
    },
    {
      "midi": 70,
      "hit": false,
      "t": 5375.801733333335,
      "d": 101.91093333333356,
      "v": 91
    },
    {
      "midi": 70,
      "hit": false,
      "t": 5554.145866666669,
      "d": 98.72621666666691,
      "v": 86
    },
    {
      "midi": 70,
      "hit": false,
      "t": 5751.598300000002,
      "d": 444.26797499999975,
      "v": 116
    },
    {
      "midi": 70,
      "hit": false,
      "t": 6504.783791666669,
      "d": 95.54150000000027,
      "v": 89
    },
    {
      "midi": 70,
      "hit": false,
      "t": 6671.981416666669,
      "d": 100.31857500000024,
      "v": 86
    },
    {
      "midi": 70,
      "hit": false,
      "t": 6853.51026666667,
      "d": 149.68168333333324,
      "v": 118
    },
    {
      "midi": 70,
      "hit": false,
      "t": 7243.638058333337,
      "d": 116.24215833333346,
      "v": 77
    },
    {
      "midi": 70,
      "hit": false,
      "t": 7433.128700000004,
      "d": 116.24215833333346,
      "v": 78
    },
    {
      "midi": 70,
      "hit": false,
      "t": 7624.211700000004,
      "d": 132.1657416666667,
      "v": 118
    },
    {
      "midi": 70,
      "hit": false,
      "t": 8012.747133333338,
      "d": 124.20395000000008,
      "v": 93
    },
    {
      "midi": 70,
      "hit": false,
      "t": 8202.237775000005,
      "d": 111.46508333333259,
      "v": 93
    },
    {
      "midi": 70,
      "hit": false,
      "t": 8415.61379166667,
      "d": 133.7580999999991,
      "v": 121
    },
    {
      "midi": 70,
      "hit": false,
      "t": 8796.187433333336,
      "d": 103.50329166666597,
      "v": 97
    },
    {
      "midi": 70,
      "hit": false,
      "t": 8972.939208333335,
      "d": 98.726216666666,
      "v": 86
    },
    {
      "midi": 46,
      "hit": false,
      "t": 9197.461733333334,
      "d": 103.50329166666597,
      "v": 94
    },
    {
      "midi": 70,
      "hit": false,
      "t": 9202.238808333334,
      "d": 342.3570416666662,
      "v": 94
    },
    {
      "midi": 68,
      "hit": false,
      "t": 9603.513108333333,
      "d": 132.16574166666578,
      "v": 80
    },
    {
      "midi": 58,
      "hit": false,
      "t": 9613.067258333333,
      "d": 90.76442499999939,
      "v": 59
    },
    {
      "midi": 65,
      "hit": false,
      "t": 9614.659616666666,
      "d": 226.11488333333182,
      "v": 70
    },
    {
      "midi": 74,
      "hit": false,
      "t": 9619.436691666666,
      "d": 162.4205499999989,
      "v": 91
    },
    {
      "midi": 75,
      "hit": false,
      "t": 9769.118374999998,
      "d": 265.9238416666667,
      "v": 90
    },
    {
      "midi": 77,
      "hit": false,
      "t": 9974.532599999999,
      "d": 208.59894166666527,
      "v": 74
    },
    {
      "midi": 74,
      "hit": false,
      "t": 9974.532599999999,
      "d": 221.33780833333185,
      "v": 80
    },
    {
      "midi": 68,
      "hit": false,
      "t": 9979.309674999999,
      "d": 66.87904999999955,
      "v": 64
    },
    {
      "midi": 65,
      "hit": false,
      "t": 9987.271466666665,
      "d": 89.17206666666607,
      "v": 78
    },
    {
      "midi": 58,
      "hit": false,
      "t": 10000.010333333332,
      "d": 128.98102499999914,
      "v": 49
    },
    {
      "midi": 70,
      "hit": false,
      "t": 10347.144449999998,
      "d": 348.7264749999995,
      "v": 99
    },
    {
      "midi": 51,
      "hit": false,
      "t": 10350.329166666665,
      "d": 105.0956499999993,
      "v": 110
    },
    {
      "midi": 75,
      "hit": false,
      "t": 10722.941016666664,
      "d": 175.1594166666655,
      "v": 87
    },
    {
      "midi": 63,
      "hit": false,
      "t": 10742.049316666664,
      "d": 125.79630833333249,
      "v": 67
    },
    {
      "midi": 67,
      "hit": false,
      "t": 10754.78818333333,
      "d": 68.47140833333287,
      "v": 48
    },
    {
      "midi": 58,
      "hit": false,
      "t": 10754.78818333333,
      "d": 111.46508333333259,
      "v": 48
    },
    {
      "midi": 77,
      "hit": false,
      "t": 10874.21505833333,
      "d": 277.07034999999996,
      "v": 90
    },
    {
      "midi": 67,
      "hit": false,
      "t": 11092.368149999997,
      "d": 60.50961666666626,
      "v": 70
    },
    {
      "midi": 63,
      "hit": false,
      "t": 11092.368149999997,
      "d": 141.71989166666572,
      "v": 83
    },
    {
      "midi": 79,
      "hit": false,
      "t": 11092.368149999997,
      "d": 170.38234166666552,
      "v": 91
    },
    {
      "midi": 75,
      "hit": false,
      "t": 11103.51465833333,
      "d": 248.40789999999834,
      "v": 97
    },
    {
      "midi": 58,
      "hit": false,
      "t": 11122.62295833333,
      "d": 128.98102499999914,
      "v": 52
    },
    {
      "midi": 50,
      "hit": false,
      "t": 11460.202924999994,
      "d": 103.50329166666597,
      "v": 106
    },
    {
      "midi": 70,
      "hit": false,
      "t": 11464.979999999994,
      "d": 316.87930833333303,
      "v": 87
    },
    {
      "midi": 65,
      "hit": false,
      "t": 11855.10779166666,
      "d": 175.1594166666655,
      "v": 78
    },
    {
      "midi": 77,
      "hit": false,
      "t": 11855.10779166666,
      "d": 210.1912999999986,
      "v": 99
    },
    {
      "midi": 68,
      "hit": false,
      "t": 11856.700149999993,
      "d": 132.16574166666578,
      "v": 75
    },
    {
      "midi": 58,
      "hit": false,
      "t": 11866.254299999993,
      "d": 113.05744166666591,
      "v": 54
    },
    {
      "midi": 79,
      "hit": false,
      "t": 12011.158908333326,
      "d": 275.47799166666664,
      "v": 97
    },
    {
      "midi": 80,
      "hit": false,
      "t": 12214.980774999993,
      "d": 434.7138249999989,
      "v": 103
    },
    {
      "midi": 77,
      "hit": false,
      "t": 12214.980774999993,
      "d": 444.26797499999884,
      "v": 106
    },
    {
      "midi": 68,
      "hit": false,
      "t": 12226.127283333326,
      "d": 73.24848333333284,
      "v": 74
    },
    {
      "midi": 65,
      "hit": false,
      "t": 12227.71964166666,
      "d": 117.83451666666588,
      "v": 78
    },
    {
      "midi": 58,
      "hit": false,
      "t": 12238.866149999993,
      "d": 151.27404166666565,
      "v": 67
    },
    {
      "midi": 73,
      "hit": false,
      "t": 12608.293283333325,
      "d": 492.0387249999985,
      "v": 102
    },
    {
      "midi": 82,
      "hit": false,
      "t": 12608.293283333325,
      "d": 493.63108333333184,
      "v": 96
    },
    {
      "midi": 79,
      "hit": false,
      "t": 12613.070358333325,
      "d": 386.9430749999992,
      "v": 102
    },
    {
      "midi": 51,
      "hit": false,
      "t": 12617.847433333325,
      "d": 85.98734999999942,
      "v": 119
    },
    {
      "midi": 67,
      "hit": false,
      "t": 12996.828716666658,
      "d": 81.21027499999946,
      "v": 80
    },
    {
      "midi": 61,
      "hit": false,
      "t": 13006.382866666658,
      "d": 127.38866666666581,
      "v": 68
    },
    {
      "midi": 58,
      "hit": false,
      "t": 13023.898808333324,
      "d": 116.24215833333255,
      "v": 48
    },
    {
      "midi": 52,
      "hit": false,
      "t": 13374.217641666657,
      "d": 420.3825999999972,
      "v": 75
    },
    {
      "midi": 82,
      "hit": false,
      "t": 13383.771791666657,
      "d": 76.43319999999949,
      "v": 61
    },
    {
      "midi": 79,
      "hit": false,
      "t": 13386.956508333324,
      "d": 84.3949916666661,
      "v": 81
    },
    {
      "midi": 73,
      "hit": false,
      "t": 13391.733583333324,
      "d": 71.65612499999952,
      "v": 70
    },
    {
      "midi": 82,
      "hit": false,
      "t": 13563.708283333322,
      "d": 92.35678333333271,
      "v": 67
    },
    {
      "midi": 73,
      "hit": false,
      "t": 13570.077716666656,
      "d": 70.0637666666662,
      "v": 59
    },
    {
      "midi": 79,
      "hit": false,
      "t": 13570.077716666656,
      "d": 98.726216666666,
      "v": 74
    },
    {
      "midi": 82,
      "hit": false,
      "t": 13764.345433333321,
      "d": 383.7583583333326,
      "v": 61
    },
    {
      "midi": 79,
      "hit": false,
      "t": 13764.345433333321,
      "d": 587.5802249999979,
      "v": 64
    },
    {
      "midi": 73,
      "hit": false,
      "t": 13764.345433333321,
      "d": 619.4273916666643,
      "v": 59
    },
    {
      "midi": 53,
      "hit": false,
      "t": 13781.861374999988,
      "d": 124.20394999999917,
      "v": 65
    },
    {
      "midi": 65,
      "hit": false,
      "t": 14152.880866666654,
      "d": 81.21027499999946,
      "v": 55
    },
    {
      "midi": 56,
      "hit": false,
      "t": 14159.250299999987,
      "d": 109.87272499999926,
      "v": 67
    },
    {
      "midi": 84,
      "hit": false,
      "t": 14171.989166666654,
      "d": 250.00025833333166,
      "v": 77
    },
    {
      "midi": 82,
      "hit": false,
      "t": 14343.963866666652,
      "d": 238.8537499999984,
      "v": 77
    },
    {
      "midi": 80,
      "hit": false,
      "t": 14547.785733333318,
      "d": 162.4205499999989,
      "v": 80
    },
    {
      "midi": 72,
      "hit": false,
      "t": 14552.562808333318,
      "d": 141.71989166666572,
      "v": 77
    },
    {
      "midi": 44,
      "hit": false,
      "t": 14552.562808333318,
      "d": 390.12779166666405,
      "v": 24
    },
    {
      "midi": 46,
      "hit": false,
      "t": 14920.397583333315,
      "d": 73.24848333333284,
      "v": 75
    },
    {
      "midi": 80,
      "hit": false,
      "t": 14920.397583333315,
      "d": 406.0513749999991,
      "v": 96
    },
    {
      "midi": 71,
      "hit": false,
      "t": 14936.321166666648,
      "d": 558.9177749999981,
      "v": 84
    },
    {
      "midi": 63,
      "hit": false,
      "t": 15289.824716666648,
      "d": 92.35678333333271,
      "v": 72
    },
    {
      "midi": 82,
      "hit": false,
      "t": 15307.340658333314,
      "d": 324.8410999999978,
      "v": 67
    },
    {
      "midi": 55,
      "hit": false,
      "t": 15315.302449999981,
      "d": 76.43319999999949,
      "v": 55
    },
    {
      "midi": 80,
      "hit": false,
      "t": 15463.39177499998,
      "d": 267.5161999999982,
      "v": 83
    },
    {
      "midi": 79,
      "hit": false,
      "t": 15651.290058333312,
      "d": 240.44610833333172,
      "v": 89
    },
    {
      "midi": 63,
      "hit": false,
      "t": 15662.436566666645,
      "d": 84.3949916666661,
      "v": 67
    },
    {
      "midi": 55,
      "hit": false,
      "t": 15664.028924999979,
      "d": 117.83451666666588,
      "v": 84
    },
    {
      "midi": 70,
      "hit": false,
      "t": 15668.805999999979,
      "d": 136.94281666666575,
      "v": 51
    },
    {
      "midi": 46,
      "hit": false,
      "t": 16041.417849999978,
      "d": 74.84084166666617,
      "v": 91
    },
    {
      "midi": 79,
      "hit": false,
      "t": 16058.933791666645,
      "d": 401.27430000000095,
      "v": 89
    },
    {
      "midi": 70,
      "hit": false,
      "t": 16068.487941666644,
      "d": 608.2808833333365,
      "v": 81
    },
    {
      "midi": 53,
      "hit": false,
      "t": 16445.876866666644,
      "d": 203.82186666666894,
      "v": 72
    },
    {
      "midi": 80,
      "hit": false,
      "t": 16445.876866666644,
      "d": 315.28695000000516,
      "v": 51
    },
    {
      "midi": 62,
      "hit": false,
      "t": 16458.61573333331,
      "d": 97.1338583333345,
      "v": 56
    },
    {
      "midi": 79,
      "hit": false,
      "t": 16625.81335833331,
      "d": 277.07035000000906,
      "v": 77
    },
    {
      "midi": 62,
      "hit": false,
      "t": 16823.26579166665,
      "d": 117.83451666666951,
      "v": 84
    },
    {
      "midi": 68,
      "hit": false,
      "t": 16829.635224999984,
      "d": 151.2740416666711,
      "v": 77
    },
    {
      "midi": 77,
      "hit": false,
      "t": 16831.22758333332,
      "d": 207.00658333333558,
      "v": 96
    },
    {
      "midi": 58,
      "hit": false,
      "t": 16839.189374999987,
      "d": 135.35045833333425,
      "v": 74
    },
    {
      "midi": 51,
      "hit": false,
      "t": 17221.35537499999,
      "d": 859.8735000000161,
      "v": 87
    },
    {
      "midi": 68,
      "hit": false,
      "t": 17232.501883333323,
      "d": 535.0324000000073,
      "v": 93
    },
    {
      "midi": 77,
      "hit": false,
      "t": 17237.278958333325,
      "d": 418.7902416666693,
      "v": 109
    },
    {
      "midi": 63,
      "hit": false,
      "t": 17578.04364166666,
      "d": 156.05111666666926,
      "v": 54
    },
    {
      "midi": 58,
      "hit": false,
      "t": 17608.298449999995,
      "d": 122.61159166666766,
      "v": 52
    },
    {
      "midi": 79,
      "hit": false,
      "t": 17643.330333333328,
      "d": 253.18497500000376,
      "v": 96
    },
    {
      "midi": 77,
      "hit": false,
      "t": 17802.566166666664,
      "d": 265.923841666674,
      "v": 103
    },
    {
      "midi": 63,
      "hit": false,
      "t": 17937.916624999998,
      "d": 79.61791666666977,
      "v": 75
    },
    {
      "midi": 58,
      "hit": false,
      "t": 17953.84020833333,
      "d": 97.13385833333814,
      "v": 75
    },
    {
      "midi": 67,
      "hit": false,
      "t": 17996.833883333333,
      "d": 109.87272500000472,
      "v": 94
    },
    {
      "midi": 75,
      "hit": false,
      "t": 18000.0186,
      "d": 183.12120833333756,
      "v": 110
    },
    {
      "midi": 46,
      "hit": false,
      "t": 18321.674983333338,
      "d": 90.76442500000121,
      "v": 109
    },
    {
      "midi": 70,
      "hit": false,
      "t": 18347.15271666667,
      "d": 406.05137500000274,
      "v": 110
    },
    {
      "midi": 58,
      "hit": false,
      "t": 18710.210416666672,
      "d": 122.61159166666766,
      "v": 77
    },
    {
      "midi": 68,
      "hit": false,
      "t": 18710.210416666672,
      "d": 127.38866666666945,
      "v": 74
    },
    {
      "midi": 65,
      "hit": false,
      "t": 18722.94928333334,
      "d": 189.49064166667085,
      "v": 62
    },
    {
      "midi": 74,
      "hit": false,
      "t": 18722.94928333334,
      "d": 210.19130000000587,
      "v": 113
    },
    {
      "midi": 75,
      "hit": false,
      "t": 18885.36983333334,
      "d": 242.03846666667596,
      "v": 97
    },
    {
      "midi": 77,
      "hit": false,
      "t": 19070.08340000001,
      "d": 250.0002583333444,
      "v": 102
    },
    {
      "midi": 68,
      "hit": false,
      "t": 19078.04519166668,
      "d": 68.47140833333833,
      "v": 70
    },
    {
      "midi": 74,
      "hit": false,
      "t": 19082.82226666668,
      "d": 343.9494000000086,
      "v": 108
    },
    {
      "midi": 65,
      "hit": false,
      "t": 19087.599341666682,
      "d": 95.541500000003,
      "v": 86
    },
    {
      "midi": 58,
      "hit": false,
      "t": 19095.56113333335,
      "d": 140.12753333333603,
      "v": 68
    },
    {
      "midi": 70,
      "hit": false,
      "t": 19468.172983333356,
      "d": 159.2358333333359,
      "v": 96
    },
    {
      "midi": 51,
      "hit": false,
      "t": 19474.54241666669,
      "d": 136.9428166666694,
      "v": 124
    },
    {
      "midi": 67,
      "hit": false,
      "t": 19858.300775000025,
      "d": 95.54149999999936,
      "v": 72
    },
    {
      "midi": 63,
      "hit": false,
      "t": 19858.300775000025,
      "d": 128.98102500000095,
      "v": 68
    },
    {
      "midi": 75,
      "hit": false,
      "t": 19861.48549166669,
      "d": 192.6753583333375,
      "v": 99
    },
    {
      "midi": 58,
      "hit": false,
      "t": 19867.854925000025,
      "d": 127.38866666666945,
      "v": 58
    },
    {
      "midi": 77,
      "hit": false,
      "t": 20001.613025000028,
      "d": 280.2550666666757,
      "v": 105
    },
    {
      "midi": 79,
      "hit": false,
      "t": 20208.619608333363,
      "d": 369.42713333334177,
      "v": 108
    },
    {
      "midi": 63,
      "hit": false,
      "t": 20213.396683333365,
      "d": 136.94281666667302,
      "v": 83
    },
    {
      "midi": 67,
      "hit": false,
      "t": 20218.173758333367,
      "d": 54.14018333333661,
      "v": 70
    },
    {
      "midi": 58,
      "hit": false,
      "t": 20235.689700000035,
      "d": 140.12753333333603,
      "v": 58
    },
    {
      "midi": 75,
      "hit": false,
      "t": 20235.689700000035,
      "d": 399.68194166666945,
      "v": 115
    },
    {
      "midi": 50,
      "hit": false,
      "t": 20593.97032500004,
      "d": 121.01923333333616,
      "v": 115
    },
    {
      "midi": 70,
      "hit": false,
      "t": 20609.89390833337,
      "d": 141.71989166667117,
      "v": 97
    },
    {
      "midi": 77,
      "hit": false,
      "t": 20988.87519166671,
      "d": 234.07667500000753,
      "v": 97
    },
    {
      "midi": 68,
      "hit": false,
      "t": 20993.65226666671,
      "d": 132.1657416666676,
      "v": 71
    },
    {
      "midi": 58,
      "hit": false,
      "t": 21004.798775000047,
      "d": 128.98102500000095,
      "v": 58
    },
    {
      "midi": 65,
      "hit": false,
      "t": 21004.798775000047,
      "d": 192.6753583333375,
      "v": 58
    },
    {
      "midi": 79,
      "hit": false,
      "t": 21151.295741666716,
      "d": 273.8856333333388,
      "v": 109
    },
    {
      "midi": 77,
      "hit": false,
      "t": 21343.97110000005,
      "d": 476.1151416666762,
      "v": 110
    },
    {
      "midi": 80,
      "hit": false,
      "t": 21347.155816666716,
      "d": 474.5227833333447,
      "v": 106
    },
    {
      "midi": 68,
      "hit": false,
      "t": 21361.487041666718,
      "d": 97.13385833333814,
      "v": 78
    },
    {
      "midi": 65,
      "hit": false,
      "t": 21369.448833333387,
      "d": 121.01923333333616,
      "v": 75
    },
    {
      "midi": 58,
      "hit": false,
      "t": 21377.410625000055,
      "d": 170.38234166666734,
      "v": 62
    },
    {
      "midi": 79,
      "hit": false,
      "t": 21734.098891666723,
      "d": 490.44636666667793,
      "v": 110
    },
    {
      "midi": 82,
      "hit": false,
      "t": 21746.83775833339,
      "d": 414.01316666667844,
      "v": 99
    },
    {
      "midi": 73,
      "hit": false,
      "t": 21750.022475000056,
      "d": 613.0579583333456,
      "v": 108
    },
    {
      "midi": 51,
      "hit": false,
      "t": 21754.799550000058,
      "d": 101.91093333333629,
      "v": 115
    },
    {
      "midi": 67,
      "hit": false,
      "t": 22143.334983333396,
      "d": 78.02555833333827,
      "v": 71
    },
    {
      "midi": 61,
      "hit": false,
      "t": 22148.112058333398,
      "d": 132.16574166667124,
      "v": 61
    },
    {
      "midi": 58,
      "hit": false,
      "t": 22156.073850000066,
      "d": 136.9428166666694,
      "v": 55
    },
    {
      "midi": 82,
      "hit": false,
      "t": 22385.37345000007,
      "d": 132.16574166667124,
      "v": 68
    },
    {
      "midi": 79,
      "hit": false,
      "t": 22386.965808333403,
      "d": 208.59894166667073,
      "v": 65
    },
    {
      "midi": 52,
      "hit": false,
      "t": 22504.800325000073,
      "d": 374.2042083333363,
      "v": 77
    },
    {
      "midi": 73,
      "hit": false,
      "t": 22558.940508333406,
      "d": 168.78998333333584,
      "v": 70
    },
    {
      "midi": 82,
      "hit": false,
      "t": 22726.138133333407,
      "d": 168.78998333333584,
      "v": 67
    },
    {
      "midi": 79,
      "hit": false,
      "t": 22727.73049166674,
      "d": 199.04479166666715,
      "v": 52
    },
    {
      "midi": 53,
      "hit": false,
      "t": 22894.928116666742,
      "d": 156.05111666666562,
      "v": 71
    },
    {
      "midi": 73,
      "hit": false,
      "t": 22933.144716666742,
      "d": 203.82186666666894,
      "v": 71
    },
    {
      "midi": 82,
      "hit": false,
      "t": 23087.603475000076,
      "d": 187.8982833333357,
      "v": 75
    },
    {
      "midi": 65,
      "hit": false,
      "t": 23275.501758333412,
      "d": 71.65612500000134,
      "v": 70
    },
    {
      "midi": 84,
      "hit": false,
      "t": 23294.610058333412,
      "d": 259.55440833333705,
      "v": 78
    },
    {
      "midi": 56,
      "hit": false,
      "t": 23312.12600000008,
      "d": 87.57970833333457,
      "v": 51
    },
    {
      "midi": 82,
      "hit": false,
      "t": 23472.954191666748,
      "d": 257.9620500000019,
      "v": 62
    },
    {
      "midi": 80,
      "hit": false,
      "t": 23668.814266666748,
      "d": 197.45243333333565,
      "v": 80
    },
    {
      "midi": 72,
      "hit": false,
      "t": 23671.998983333415,
      "d": 162.42055000000255,
      "v": 72
    },
    {
      "midi": 44,
      "hit": false,
      "t": 23671.998983333415,
      "d": 404.4590166666676,
      "v": 68
    },
    {
      "midi": 71,
      "hit": false,
      "t": 24054.164983333416,
      "d": 565.2872083333386,
      "v": 103
    },
    {
      "midi": 46,
      "hit": false,
      "t": 24076.458000000082,
      "d": 92.35678333333271,
      "v": 68
    },
    {
      "midi": 80,
      "hit": false,
      "t": 24275.50279166675,
      "d": 164.01290833333405,
      "v": 71
    },
    {
      "midi": 82,
      "hit": false,
      "t": 24434.73862500008,
      "d": 374.20420833334356,
      "v": 74
    },
    {
      "midi": 63,
      "hit": false,
      "t": 24464.993433333417,
      "d": 128.9810250000046,
      "v": 61
    },
    {
      "midi": 55,
      "hit": false,
      "t": 24485.69409166675,
      "d": 106.68800833333444,
      "v": 46
    },
    {
      "midi": 80,
      "hit": false,
      "t": 24621.04455000009,
      "d": 262.73912500000733,
      "v": 62
    },
    {
      "midi": 70,
      "hit": false,
      "t": 24807.35047500009,
      "d": 173.56705833334127,
      "v": 71
    },
    {
      "midi": 79,
      "hit": false,
      "t": 24816.904625000094,
      "d": 254.7773333333389,
      "v": 81
    },
    {
      "midi": 63,
      "hit": false,
      "t": 24821.681700000096,
      "d": 84.39499166666792,
      "v": 64
    },
    {
      "midi": 55,
      "hit": false,
      "t": 24824.866416666762,
      "d": 124.2039500000028,
      "v": 86
    },
    {
      "midi": 46,
      "hit": false,
      "t": 25213.4018500001,
      "d": 65.28669166666805,
      "v": 84
    },
    {
      "midi": 70,
      "hit": false,
      "t": 25219.771283333434,
      "d": 571.6566416666792,
      "v": 87
    },
    {
      "midi": 79,
      "hit": false,
      "t": 25425.185508333434,
      "d": 171.97470000000249,
      "v": 83
    },
    {
      "midi": 80,
      "hit": false,
      "t": 25579.644266666768,
      "d": 371.0194916666769,
      "v": 86
    },
    {
      "midi": 62,
      "hit": false,
      "t": 25605.122000000105,
      "d": 117.83451666666951,
      "v": 77
    },
    {
      "midi": 53,
      "hit": false,
      "t": 25613.083791666773,
      "d": 127.38866666666945,
      "v": 64
    },
    {
      "midi": 79,
      "hit": false,
      "t": 25780.281416666778,
      "d": 283.43978333334235,
      "v": 70
    },
    {
      "midi": 62,
      "hit": false,
      "t": 25980.91856666678,
      "d": 119.4268750000083,
      "v": 58
    },
    {
      "midi": 58,
      "hit": false,
      "t": 25988.88035833345,
      "d": 119.4268750000083,
      "v": 64
    },
    {
      "midi": 68,
      "hit": false,
      "t": 26009.581016666783,
      "d": 162.4205500000062,
      "v": 81
    },
    {
      "midi": 77,
      "hit": false,
      "t": 26020.72752500012,
      "d": 178.3441333333394,
      "v": 96
    },
    {
      "midi": 63,
      "hit": false,
      "t": 26383.785225000123,
      "d": 221.33780833334094,
      "v": 58
    },
    {
      "midi": 75,
      "hit": false,
      "t": 26388.562300000125,
      "d": 205.41422500000408,
      "v": 96
    },
    {
      "midi": 51,
      "hit": false,
      "t": 26391.74701666679,
      "d": 202.22950833333744,
      "v": 56
    },
    {
      "midi": 67,
      "hit": false,
      "t": 26404.48588333346,
      "d": 164.0129083333377,
      "v": 72
    },
    {
      "midi": 58,
      "hit": false,
      "t": 26406.078241666793,
      "d": 286.62450000000536,
      "v": 51
    },
    {
      "midi": 70,
      "hit": false,
      "t": 26773.9130166668,
      "d": 114.64979999999923,
      "v": 97
    },
    {
      "midi": 70,
      "hit": false,
      "t": 26957.034225000134,
      "d": 114.64979999999923,
      "v": 93
    },
    {
      "midi": 70,
      "hit": false,
      "t": 27138.563075000133,
      "d": 106.68800833333444,
      "v": 86
    },
    {
      "midi": 70,
      "hit": false,
      "t": 27291.429475000135,
      "d": 106.68800833333444,
      "v": 67
    },
    {
      "midi": 46,
      "hit": false,
      "t": 27511.174925000138,
      "d": 98.72621666666964,
      "v": 94
    },
    {
      "midi": 70,
      "hit": false,
      "t": 27517.54435833347,
      "d": 361.4653416666697,
      "v": 125
    },
    {
      "midi": 74,
      "hit": false,
      "t": 27914.041583333474,
      "d": 211.783658333341,
      "v": 102
    },
    {
      "midi": 68,
      "hit": false,
      "t": 27925.18809166681,
      "d": 108.28036666666958,
      "v": 83
    },
    {
      "midi": 58,
      "hit": false,
      "t": 27937.926958333475,
      "d": 98.72621666666964,
      "v": 59
    },
    {
      "midi": 65,
      "hit": false,
      "t": 28015.95251666681,
      "d": 92.35678333333635,
      "v": 11
    },
    {
      "midi": 75,
      "hit": false,
      "t": 28071.685058333478,
      "d": 256.36969166667404,
      "v": 93
    },
    {
      "midi": 77,
      "hit": false,
      "t": 28264.360416666816,
      "d": 132.16574166667124,
      "v": 90
    },
    {
      "midi": 74,
      "hit": false,
      "t": 28277.099283333482,
      "d": 127.38866666667309,
      "v": 94
    },
    {
      "midi": 65,
      "hit": false,
      "t": 28299.39230000015,
      "d": 85.98735000000306,
      "v": 75
    },
    {
      "midi": 68,
      "hit": false,
      "t": 28300.984658333484,
      "d": 62.1019750000014,
      "v": 52
    },
    {
      "midi": 58,
      "hit": false,
      "t": 28320.092958333484,
      "d": 122.6115916666713,
      "v": 48
    },
    {
      "midi": 70,
      "hit": false,
      "t": 28654.48820833349,
      "d": 205.41422500000408,
      "v": 90
    },
    {
      "midi": 51,
      "hit": false,
      "t": 28687.92773333349,
      "d": 132.1657416666676,
      "v": 113
    },
    {
      "midi": 75,
      "hit": false,
      "t": 29065.316658333493,
      "d": 178.34413333334305,
      "v": 84
    },
    {
      "midi": 63,
      "hit": false,
      "t": 29081.240241666826,
      "d": 130.57338333333973,
      "v": 56
    },
    {
      "midi": 67,
      "hit": false,
      "t": 29082.83260000016,
      "d": 63.694333333336544,
      "v": 54
    },
    {
      "midi": 58,
      "hit": false,
      "t": 29087.609675000163,
      "d": 127.38866666666945,
      "v": 51
    },
    {
      "midi": 77,
      "hit": false,
      "t": 29219.775416666835,
      "d": 237.26139166667417,
      "v": 90
    },
    {
      "midi": 63,
      "hit": false,
      "t": 29423.597283333504,
      "d": 117.83451666667315,
      "v": 70
    },
    {
      "midi": 67,
      "hit": false,
      "t": 29425.18964166684,
      "d": 55.73254166667175,
      "v": 58
    },
    {
      "midi": 79,
      "hit": false,
      "t": 29433.151433333507,
      "d": 396.4972250000101,
      "v": 81
    },
    {
      "midi": 75,
      "hit": false,
      "t": 29434.743791666842,
      "d": 348.7264750000031,
      "v": 78
    },
    {
      "midi": 58,
      "hit": false,
      "t": 29447.48265833351,
      "d": 122.61159166666766,
      "v": 54
    },
    {
      "midi": 50,
      "hit": false,
      "t": 29804.17092500018,
      "d": 130.57338333333973,
      "v": 106
    },
    {
      "midi": 70,
      "hit": false,
      "t": 29808.948000000182,
      "d": 124.2039500000028,
      "v": 96
    },
    {
      "midi": 58,
      "hit": false,
      "t": 30199.07579166685,
      "d": 132.1657416666676,
      "v": 75
    },
    {
      "midi": 77,
      "hit": false,
      "t": 30208.62994166685,
      "d": 210.19130000000587,
      "v": 106
    },
    {
      "midi": 68,
      "hit": false,
      "t": 30211.81465833352,
      "d": 113.05744166666773,
      "v": 65
    },
    {
      "midi": 65,
      "hit": false,
      "t": 30226.14588333352,
      "d": 175.15941666666913,
      "v": 56
    },
    {
      "midi": 79,
      "hit": false,
      "t": 30396.528225000187,
      "d": 245.22318333334624,
      "v": 91
    },
    {
      "midi": 68,
      "hit": false,
      "t": 30560.541133333525,
      "d": 79.61791666667341,
      "v": 77
    },
    {
      "midi": 80,
      "hit": false,
      "t": 30574.872358333527,
      "d": 463.37627500001327,
      "v": 90
    },
    {
      "midi": 65,
      "hit": false,
      "t": 30582.834150000195,
      "d": 95.54150000000664,
      "v": 78
    },
    {
      "midi": 58,
      "hit": false,
      "t": 30593.98065833353,
      "d": 136.94281666667302,
      "v": 40
    },
    {
      "midi": 77,
      "hit": false,
      "t": 30598.757733333532,
      "d": 439.49090000000797,
      "v": 106
    },
    {
      "midi": 51,
      "hit": false,
      "t": 30957.038358333535,
      "d": 103.50329166667143,
      "v": 125
    },
    {
      "midi": 73,
      "hit": false,
      "t": 30980.923733333537,
      "d": 552.5483416666757,
      "v": 87
    },
    {
      "midi": 82,
      "hit": false,
      "t": 30982.516091666872,
      "d": 600.3190916666754,
      "v": 93
    },
    {
      "midi": 79,
      "hit": false,
      "t": 30992.070241666872,
      "d": 550.9559833333406,
      "v": 91
    },
    {
      "midi": 67,
      "hit": false,
      "t": 31356.72030000021,
      "d": 63.694333333336544,
      "v": 75
    },
    {
      "midi": 61,
      "hit": false,
      "t": 31359.905016666875,
      "d": 111.46508333333622,
      "v": 61
    },
    {
      "midi": 58,
      "hit": false,
      "t": 31377.420958333543,
      "d": 114.64980000000287,
      "v": 55
    },
    {
      "midi": 52,
      "hit": false,
      "t": 31722.96271666688,
      "d": 407.6437333333379,
      "v": 70
    },
    {
      "midi": 82,
      "hit": false,
      "t": 31770.73346666688,
      "d": 70.0637666666662,
      "v": 54
    },
    {
      "midi": 73,
      "hit": false,
      "t": 31773.918183333546,
      "d": 76.43319999999949,
      "v": 62
    },
    {
      "midi": 79,
      "hit": false,
      "t": 31783.472333333546,
      "d": 79.61791666666613,
      "v": 77
    },
    {
      "midi": 73,
      "hit": false,
      "t": 31953.854675000213,
      "d": 78.02555833333827,
      "v": 59
    },
    {
      "midi": 79,
      "hit": false,
      "t": 31955.44703333355,
      "d": 105.09565000000293,
      "v": 62
    },
    {
      "midi": 82,
      "hit": false,
      "t": 31960.22410833355,
      "d": 74.84084166666798,
      "v": 33
    },
    {
      "midi": 53,
      "hit": false,
      "t": 32138.568241666886,
      "d": 93.9491416666715,
      "v": 54
    },
    {
      "midi": 82,
      "hit": false,
      "t": 32143.345316666888,
      "d": 296.17865000000165,
      "v": 64
    },
    {
      "midi": 79,
      "hit": false,
      "t": 32143.345316666888,
      "d": 337.57996666666804,
      "v": 83
    },
    {
      "midi": 73,
      "hit": false,
      "t": 32148.12239166689,
      "d": 401.2743000000046,
      "v": 70
    },
    {
      "midi": 65,
      "hit": false,
      "t": 32507.995375000224,
      "d": 71.65612500000498,
      "v": 61
    },
    {
      "midi": 56,
      "hit": false,
      "t": 32525.511316666893,
      "d": 109.87272500000472,
      "v": 52
    },
    {
      "midi": 84,
      "hit": false,
      "t": 32562.13555833356,
      "d": 291.4015750000035,
      "v": 96
    },
    {
      "midi": 82,
      "hit": false,
      "t": 32729.333183333565,
      "d": 257.96204999999827,
      "v": 77
    },
    {
      "midi": 44,
      "hit": false,
      "t": 32872.645433333564,
      "d": 415.6055250000136,
      "v": 70
    },
    {
      "midi": 80,
      "hit": false,
      "t": 32934.74740833356,
      "d": 202.22950833333744,
      "v": 83
    },
    {
      "midi": 72,
      "hit": false,
      "t": 32950.6709916669,
      "d": 184.71356666666543,
      "v": 72
    },
    {
      "midi": 80,
      "hit": false,
      "t": 33283.47388333357,
      "d": 385.3507166666823,
      "v": 83
    },
    {
      "midi": 46,
      "hit": false,
      "t": 33286.65860000024,
      "d": 57.32490000000689,
      "v": 71
    },
    {
      "midi": 71,
      "hit": false,
      "t": 33291.43567500025,
      "d": 501.59287500001665,
      "v": 84
    },
    {
      "midi": 63,
      "hit": false,
      "t": 33654.49337500025,
      "d": 128.98102500000823,
      "v": 70
    },
    {
      "midi": 82,
      "hit": false,
      "t": 33667.23224166692,
      "d": 237.26139166668145,
      "v": 64
    },
    {
      "midi": 55,
      "hit": false,
      "t": 33678.37875000026,
      "d": 84.39499166666792,
      "v": 61
    },
    {
      "midi": 80,
      "hit": false,
      "t": 33821.69100000027,
      "d": 265.92384166667034,
      "v": 84
    },
    {
      "midi": 79,
      "hit": false,
      "t": 34004.8122083336,
      "d": 218.1530916666743,
      "v": 94
    },
    {
      "midi": 63,
      "hit": false,
      "t": 34006.40456666693,
      "d": 87.5797083333382,
      "v": 62
    },
    {
      "midi": 55,
      "hit": false,
      "t": 34011.18164166693,
      "d": 122.61159166667494,
      "v": 78
    },
    {
      "midi": 70,
      "hit": false,
      "t": 34039.844091666935,
      "d": 140.12753333333967,
      "v": 78
    },
    {
      "midi": 79,
      "hit": false,
      "t": 34391.75528333361,
      "d": 390.12779166667315,
      "v": 100
    },
    {
      "midi": 46,
      "hit": false,
      "t": 34404.49415000028,
      "d": 78.02555833333463,
      "v": 93
    },
    {
      "midi": 70,
      "hit": false,
      "t": 34407.67886666695,
      "d": 557.3254166666666,
      "v": 83
    },
    {
      "midi": 80,
      "hit": false,
      "t": 34769.144208333615,
      "d": 359.87298333333456,
      "v": 80
    },
    {
      "midi": 53,
      "hit": false,
      "t": 34815.32260000028,
      "d": 175.15941666666913,
      "v": 74
    },
    {
      "midi": 62,
      "hit": false,
      "t": 34820.09967500028,
      "d": 149.68168333333597,
      "v": 61
    },
    {
      "midi": 79,
      "hit": false,
      "t": 34944.303625000284,
      "d": 261.1467666666649,
      "v": 81
    },
    {
      "midi": 68,
      "hit": false,
      "t": 35141.756058333616,
      "d": 151.2740416666711,
      "v": 77
    },
    {
      "midi": 77,
      "hit": false,
      "t": 35152.90256666695,
      "d": 148.0893250000081,
      "v": 90
    },
    {
      "midi": 62,
      "hit": false,
      "t": 35164.04907500028,
      "d": 148.0893250000081,
      "v": 78
    },
    {
      "midi": 58,
      "hit": false,
      "t": 35170.41850833361,
      "d": 130.57338333334337,
      "v": 78
    },
    {
      "midi": 77,
      "hit": false,
      "t": 35522.329700000286,
      "d": 364.6500583333327,
      "v": 96
    },
    {
      "midi": 68,
      "hit": false,
      "t": 35539.84564166695,
      "d": 436.30618333333405,
      "v": 77
    },
    {
      "midi": 51,
      "hit": false,
      "t": 35544.62271666695,
      "d": 414.01316666667117,
      "v": 83
    },
    {
      "midi": 79,
      "hit": false,
      "t": 35894.94155000029,
      "d": 286.6244999999981,
      "v": 77
    },
    {
      "midi": 63,
      "hit": false,
      "t": 35929.973433333624,
      "d": 127.38866666665854,
      "v": 75
    },
    {
      "midi": 58,
      "hit": false,
      "t": 35953.85880833362,
      "d": 90.76442499999393,
      "v": 67
    },
    {
      "midi": 77,
      "hit": false,
      "t": 36092.39398333362,
      "d": 267.5162000000055,
      "v": 90
    },
    {
      "midi": 63,
      "hit": false,
      "t": 36262.77632500028,
      "d": 100.31857500001206,
      "v": 87
    },
    {
      "midi": 58,
      "hit": false,
      "t": 36277.107550000284,
      "d": 124.20395000001008,
      "v": 90
    },
    {
      "midi": 75,
      "hit": false,
      "t": 36297.80820833362,
      "d": 192.67535833334114,
      "v": 89
    },
    {
      "midi": 67,
      "hit": false,
      "t": 36299.400566666955,
      "d": 82.80263333334005,
      "v": 67
    },
    {
      "midi": 46,
      "hit": false,
      "t": 36648.12704166696,
      "d": 68.47140833333833,
      "v": 113
    },
    {
      "midi": 70,
      "hit": false,
      "t": 36683.158925000294,
      "d": 160.8281916666674,
      "v": 103
    },
    {
      "midi": 58,
      "hit": false,
      "t": 37041.439550000294,
      "d": 125.79630833333795,
      "v": 86
    },
    {
      "midi": 68,
      "hit": false,
      "t": 37047.80898333363,
      "d": 122.61159166667494,
      "v": 81
    },
    {
      "midi": 65,
      "hit": false,
      "t": 37065.32492500029,
      "d": 173.56705833334854,
      "v": 54
    },
    {
      "midi": 74,
      "hit": false,
      "t": 37068.50964166696,
      "d": 214.9683750000113,
      "v": 105
    },
    {
      "midi": 75,
      "hit": false,
      "t": 37218.191325000305,
      "d": 278.6627083333369,
      "v": 103
    },
    {
      "midi": 68,
      "hit": false,
      "t": 37406.08960833364,
      "d": 65.28669166666805,
      "v": 71
    },
    {
      "midi": 65,
      "hit": false,
      "t": 37410.86668333364,
      "d": 111.46508333333622,
      "v": 89
    },
    {
      "midi": 77,
      "hit": false,
      "t": 37418.82847500031,
      "d": 415.6055250000063,
      "v": 105
    },
    {
      "midi": 58,
      "hit": false,
      "t": 37431.567341666974,
      "d": 138.53517500000453,
      "v": 52
    },
    {
      "midi": 74,
      "hit": false,
      "t": 37434.752058333645,
      "d": 503.18523333333724,
      "v": 112
    },
    {
      "midi": 51,
      "hit": false,
      "t": 37805.77155000031,
      "d": 119.42687500000466,
      "v": 109
    },
    {
      "midi": 70,
      "hit": false,
      "t": 37821.69513333365,
      "d": 154.45875833333412,
      "v": 113
    },
    {
      "midi": 63,
      "hit": false,
      "t": 38191.12226666698,
      "d": 149.68168333334324,
      "v": 75
    },
    {
      "midi": 67,
      "hit": false,
      "t": 38192.71462500031,
      "d": 95.54150000000664,
      "v": 74
    },
    {
      "midi": 75,
      "hit": false,
      "t": 38211.82292500031,
      "d": 205.41422500000772,
      "v": 102
    },
    {
      "midi": 58,
      "hit": false,
      "t": 38215.00764166698,
      "d": 103.50329166666779,
      "v": 40
    },
    {
      "midi": 77,
      "hit": false,
      "t": 38361.50460833366,
      "d": 289.80921666667564,
      "v": 103
    },
    {
      "midi": 67,
      "hit": false,
      "t": 38558.95704166699,
      "d": 76.43320000000676,
      "v": 77
    },
    {
      "midi": 63,
      "hit": false,
      "t": 38560.549400000324,
      "d": 156.05111666667653,
      "v": 75
    },
    {
      "midi": 58,
      "hit": false,
      "t": 38563.734116666994,
      "d": 162.42055000000983,
      "v": 77
    },
    {
      "midi": 79,
      "hit": false,
      "t": 38578.065341666996,
      "d": 530.2553250000128,
      "v": 102
    },
    {
      "midi": 75,
      "hit": false,
      "t": 38582.842416666994,
      "d": 436.3061833333486,
      "v": 100
    },
    {
      "midi": 50,
      "hit": false,
      "t": 38952.26955000034,
      "d": 119.42687500000466,
      "v": 121
    },
    {
      "midi": 70,
      "hit": false,
      "t": 38982.52435833368,
      "d": 157.64347499999712,
      "v": 116
    },
    {
      "midi": 58,
      "hit": false,
      "t": 39329.65847500034,
      "d": 141.71989166666754,
      "v": 86
    },
    {
      "midi": 65,
      "hit": false,
      "t": 39337.62026666701,
      "d": 207.00658333333558,
      "v": 87
    },
    {
      "midi": 68,
      "hit": false,
      "t": 39345.582058333675,
      "d": 138.53517499999725,
      "v": 83
    },
    {
      "midi": 77,
      "hit": false,
      "t": 39375.83686666701,
      "d": 218.15309166666702,
      "v": 110
    },
    {
      "midi": 79,
      "hit": false,
      "t": 39543.03449166701,
      "d": 240.44610833333718,
      "v": 94
    },
    {
      "midi": 68,
      "hit": false,
      "t": 39707.04740000034,
      "d": 89.17206666667335,
      "v": 78
    },
    {
      "midi": 65,
      "hit": false,
      "t": 39719.786266667004,
      "d": 114.64980000000651,
      "v": 83
    },
    {
      "midi": 80,
      "hit": false,
      "t": 39722.970983333675,
      "d": 469.7457083333429,
      "v": 94
    },
    {
      "midi": 58,
      "hit": false,
      "t": 39724.56334166701,
      "d": 157.6434750000044,
      "v": 67
    },
    {
      "midi": 77,
      "hit": false,
      "t": 39735.70985000034,
      "d": 484.07693333334464,
      "v": 100
    },
    {
      "midi": 51,
      "hit": false,
      "t": 40100.35990833368,
      "d": 93.9491416666715,
      "v": 110
    },
    {
      "midi": 82,
      "hit": false,
      "t": 40133.79943333368,
      "d": 426.752033333345,
      "v": 103
    },
    {
      "midi": 73,
      "hit": false,
      "t": 40146.53830000035,
      "d": 547.7712666666848,
      "v": 99
    },
    {
      "midi": 79,
      "hit": false,
      "t": 40151.31537500035,
      "d": 420.38260000001173,
      "v": 105
    },
    {
      "midi": 61,
      "hit": false,
      "t": 40498.44949166702,
      "d": 141.7198916666748,
      "v": 64
    },
    {
      "midi": 67,
      "hit": false,
      "t": 40501.63420833369,
      "d": 78.02555833333463,
      "v": 70
    },
    {
      "midi": 58,
      "hit": false,
      "t": 40511.1883583337,
      "d": 136.9428166666694,
      "v": 61
    },
    {
      "midi": 82,
      "hit": false,
      "t": 40727.749091667036,
      "d": 130.5733833333361,
      "v": 58
    },
    {
      "midi": 79,
      "hit": false,
      "t": 40735.710883333704,
      "d": 205.41422500000044,
      "v": 59
    },
    {
      "midi": 52,
      "hit": false,
      "t": 40871.06134166704,
      "d": 394.904866666664,
      "v": 67
    },
    {
      "midi": 73,
      "hit": false,
      "t": 40904.50086666704,
      "d": 183.1212083333303,
      "v": 58
    },
    {
      "midi": 79,
      "hit": false,
      "t": 41097.176225000374,
      "d": 184.71356666666543,
      "v": 67
    },
    {
      "midi": 82,
      "hit": false,
      "t": 41101.95330000037,
      "d": 192.67535833333386,
      "v": 62
    },
    {
      "midi": 53,
      "hit": false,
      "t": 41265.9662083337,
      "d": 136.9428166666694,
      "v": 55
    },
    {
      "midi": 73,
      "hit": false,
      "t": 41280.297433333704,
      "d": 585.9878666666627,
      "v": 94
    },
    {
      "midi": 82,
      "hit": false,
      "t": 41465.01100000037,
      "d": 181.52885000000242,
      "v": 51
    },
    {
      "midi": 65,
      "hit": false,
      "t": 41625.83919166704,
      "d": 71.65612500000134,
      "v": 59
    },
    {
      "midi": 56,
      "hit": false,
      "t": 41644.94749166704,
      "d": 108.28036666666594,
      "v": 64
    },
    {
      "midi": 84,
      "hit": false,
      "t": 41670.42522500037,
      "d": 257.96204999999463,
      "v": 78
    },
    {
      "midi": 82,
      "hit": false,
      "t": 41816.922191667036,
      "d": 251.59261666666862,
      "v": 70
    },
    {
      "midi": 44,
      "hit": false,
      "t": 42003.22811666704,
      "d": 431.5291083333286,
      "v": 74
    },
    {
      "midi": 80,
      "hit": false,
      "t": 42017.55934166704,
      "d": 226.11488333332818,
      "v": 75
    },
    {
      "midi": 72,
      "hit": false,
      "t": 42031.89056666704,
      "d": 187.89828333332844,
      "v": 81
    },
    {
      "midi": 71,
      "hit": false,
      "t": 42401.31770000036,
      "d": 574.8413583333313,
      "v": 97
    },
    {
      "midi": 46,
      "hit": false,
      "t": 42412.464208333695,
      "d": 85.98735000000306,
      "v": 84
    },
    {
      "midi": 80,
      "hit": false,
      "t": 42600.36249166703,
      "d": 165.60526666666556,
      "v": 75
    },
    {
      "midi": 82,
      "hit": false,
      "t": 42772.33719166703,
      "d": 377.38892500000657,
      "v": 70
    },
    {
      "midi": 63,
      "hit": false,
      "t": 42783.48370000036,
      "d": 98.72621666666964,
      "v": 74
    },
    {
      "midi": 55,
      "hit": false,
      "t": 42789.853133333694,
      "d": 98.72621666666964,
      "v": 81
    },
    {
      "midi": 80,
      "hit": false,
      "t": 42939.53481666703,
      "d": 273.88563333334605,
      "v": 68
    },
    {
      "midi": 63,
      "hit": false,
      "t": 43136.98725000036,
      "d": 105.09565000001749,
      "v": 74
    },
    {
      "midi": 55,
      "hit": false,
      "t": 43146.541400000366,
      "d": 130.57338333335065,
      "v": 89
    },
    {
      "midi": 79,
      "hit": false,
      "t": 43156.09555000037,
      "d": 257.96205000001646,
      "v": 87
    },
    {
      "midi": 70,
      "hit": false,
      "t": 43172.019133333706,
      "d": 175.1594166666764,
      "v": 74
    },
    {
      "midi": 46,
      "hit": false,
      "t": 43555.77749166705,
      "d": 95.54149999999936,
      "v": 93
    },
    {
      "midi": 70,
      "hit": false,
      "t": 43568.51635833372,
      "d": 568.4719250000053,
      "v": 86
    },
    {
      "midi": 79,
      "hit": false,
      "t": 43777.11530000038,
      "d": 179.93649166666728,
      "v": 72
    },
    {
      "midi": 80,
      "hit": false,
      "t": 43934.75877500038,
      "d": 310.50987500001065,
      "v": 75
    },
    {
      "midi": 53,
      "hit": false,
      "t": 43936.351133333716,
      "d": 264.3314833333425,
      "v": 90
    },
    {
      "midi": 62,
      "hit": false,
      "t": 43945.90528333372,
      "d": 116.24215833333437,
      "v": 62
    },
    {
      "midi": 79,
      "hit": false,
      "t": 44114.695266667055,
      "d": 265.9238416666776,
      "v": 71
    },
    {
      "midi": 62,
      "hit": false,
      "t": 44320.10949166706,
      "d": 113.05744166667137,
      "v": 81
    },
    {
      "midi": 58,
      "hit": false,
      "t": 44321.7018500004,
      "d": 132.16574166667124,
      "v": 93
    },
    {
      "midi": 68,
      "hit": false,
      "t": 44329.663641667066,
      "d": 175.15941666666913,
      "v": 72
    },
    {
      "midi": 77,
      "hit": false,
      "t": 44359.9184500004,
      "d": 146.49696666667296,
      "v": 75
    },
    {
      "midi": 51,
      "hit": false,
      "t": 44737.307375000404,
      "d": 128.98102500000095,
      "v": 97
    },
    {
      "midi": 67,
      "hit": false,
      "t": 44746.86152500041,
      "d": 278.66270833332965,
      "v": 67
    },
    {
      "midi": 75,
      "hit": false,
      "t": 45101.95743333374,
      "d": 11.14650833333144,
      "v": 67
    },
    {
      "midi": 63,
      "hit": false,
      "t": 45116.28865833374,
      "d": 197.452433333332,
      "v": 81
    },
    {
      "midi": 55,
      "hit": false,
      "t": 45129.027525000405,
      "d": 162.42054999999527,
      "v": 81
    },
    {
      "midi": 75,
      "hit": false,
      "t": 45299.40986666707,
      "d": 54.14018333333661,
      "v": 75
    },
    {
      "midi": 75,
      "hit": false,
      "t": 45457.05334166707,
      "d": 127.38866666666581,
      "v": 59
    },
    {
      "midi": 51,
      "hit": false,
      "t": 45468.199850000405,
      "d": 105.09565000000293,
      "v": 77
    },
    {
      "midi": 55,
      "hit": false,
      "t": 45477.75400000041,
      "d": 262.73912500000006,
      "v": 65
    },
    {
      "midi": 61,
      "hit": false,
      "t": 45485.71579166708,
      "d": 160.82819166666013,
      "v": 74
    },
    {
      "midi": 75,
      "hit": false,
      "t": 45640.1745500004,
      "d": 73.24848333333648,
      "v": 74
    },
    {
      "midi": 75,
      "hit": false,
      "t": 45859.92000000041,
      "d": 84.39499166666792,
      "v": 74
    },
    {
      "midi": 44,
      "hit": false,
      "t": 45864.69707500041,
      "d": 377.3889249999993,
      "v": 74
    },
    {
      "midi": 75,
      "hit": false,
      "t": 46039.85649166708,
      "d": 106.6880083333308,
      "v": 59
    },
    {
      "midi": 75,
      "hit": false,
      "t": 46218.20062500041,
      "d": 87.57970833333093,
      "v": 83
    },
    {
      "midi": 51,
      "hit": false,
      "t": 46243.678358333746,
      "d": 106.6880083333308,
      "v": 68
    },
    {
      "midi": 56,
      "hit": false,
      "t": 46251.640150000414,
      "d": 124.20394999999553,
      "v": 52
    },
    {
      "midi": 60,
      "hit": false,
      "t": 46256.41722500041,
      "d": 148.08932500000083,
      "v": 30
    },
    {
      "midi": 75,
      "hit": false,
      "t": 46398.13711666708,
      "d": 92.35678333333635,
      "v": 62
    },
    {
      "midi": 75,
      "hit": false,
      "t": 46587.62775833375,
      "d": 122.61159166667494,
      "v": 75
    },
    {
      "midi": 60,
      "hit": false,
      "t": 46613.105491667084,
      "d": 156.05111666667653,
      "v": 61
    },
    {
      "midi": 56,
      "hit": false,
      "t": 46622.65964166709,
      "d": 109.87272500000108,
      "v": 49
    },
    {
      "midi": 51,
      "hit": false,
      "t": 46624.25200000042,
      "d": 111.46508333333622,
      "v": 64
    },
    {
      "midi": 75,
      "hit": false,
      "t": 46778.710758333764,
      "d": 105.09565000000293,
      "v": 94
    },
    {
      "midi": 77,
      "hit": false,
      "t": 46972.97847500043,
      "d": 240.4461083333299,
      "v": 100
    },
    {
      "midi": 44,
      "hit": false,
      "t": 46988.90205833377,
      "d": 132.16574166666396,
      "v": 81
    },
    {
      "midi": 75,
      "hit": false,
      "t": 47157.6920416671,
      "d": 178.34413333333214,
      "v": 103
    },
    {
      "midi": 72,
      "hit": false,
      "t": 47336.03617500043,
      "d": 128.98102500000095,
      "v": 86
    },
    {
      "midi": 60,
      "hit": false,
      "t": 47372.660416667095,
      "d": 151.2740416666711,
      "v": 61
    },
    {
      "midi": 56,
      "hit": false,
      "t": 47382.2145666671,
      "d": 140.1275333333324,
      "v": 62
    },
    {
      "midi": 51,
      "hit": false,
      "t": 47399.73050833376,
      "d": 92.35678333333635,
      "v": 59
    },
    {
      "midi": 68,
      "hit": false,
      "t": 47525.5268166671,
      "d": 261.1467666666722,
      "v": 93
    },
    {
      "midi": 63,
      "hit": false,
      "t": 47711.8327416671,
      "d": 229.29959999999846,
      "v": 77
    },
    {
      "midi": 60,
      "hit": false,
      "t": 47759.603491667105,
      "d": 148.08932499999355,
      "v": 68
    },
    {
      "midi": 51,
      "hit": false,
      "t": 47761.19585000044,
      "d": 85.98734999999579,
      "v": 70
    },
    {
      "midi": 56,
      "hit": false,
      "t": 47767.56528333377,
      "d": 140.12753333332512,
      "v": 59
    },
    {
      "midi": 64,
      "hit": false,
      "t": 47902.9157416671,
      "d": 191.08299999999872,
      "v": 84
    },
    {
      "midi": 65,
      "hit": false,
      "t": 48114.699400000434,
      "d": 133.75810000000638,
      "v": 89
    },
    {
      "midi": 44,
      "hit": false,
      "t": 48130.62298333377,
      "d": 124.2039500000028,
      "v": 86
    },
    {
      "midi": 65,
      "hit": false,
      "t": 48326.483058333775,
      "d": 124.2039500000028,
      "v": 72
    },
    {
      "midi": 65,
      "hit": false,
      "t": 48523.935491667115,
      "d": 100.31857499999751,
      "v": 90
    },
    {
      "midi": 56,
      "hit": false,
      "t": 48541.45143333378,
      "d": 109.87272500000108,
      "v": 43
    },
    {
      "midi": 59,
      "hit": false,
      "t": 48554.190300000446,
      "d": 146.49696666666568,
      "v": 51
    },
    {
      "midi": 50,
      "hit": false,
      "t": 48590.81454166711,
      "d": 90.76442500000121,
      "v": 17
    },
    {
      "midi": 65,
      "hit": false,
      "t": 48719.79556666711,
      "d": 116.24215833333437,
      "v": 52
    },
    {
      "midi": 59,
      "hit": false,
      "t": 48901.324416667114,
      "d": 200.6371500000023,
      "v": 72
    },
    {
      "midi": 65,
      "hit": false,
      "t": 48909.28620833378,
      "d": 149.68168333333597,
      "v": 75
    },
    {
      "midi": 56,
      "hit": false,
      "t": 48909.28620833378,
      "d": 202.22950833333744,
      "v": 55
    },
    {
      "midi": 50,
      "hit": false,
      "t": 48918.840358333786,
      "d": 176.751774999997,
      "v": 64
    },
    {
      "midi": 65,
      "hit": false,
      "t": 49113.108075000455,
      "d": 232.48431666666875,
      "v": 62
    },
    {
      "midi": 44,
      "hit": false,
      "t": 49313.74522500046,
      "d": 124.2039500000028,
      "v": 86
    },
    {
      "midi": 63,
      "hit": false,
      "t": 49315.33758333379,
      "d": 197.452433333332,
      "v": 90
    },
    {
      "midi": 68,
      "hit": false,
      "t": 49506.42058333379,
      "d": 116.24215833333437,
      "v": 83
    },
    {
      "midi": 60,
      "hit": false,
      "t": 49681.58000000046,
      "d": 138.53517500000453,
      "v": 75
    },
    {
      "midi": 72,
      "hit": false,
      "t": 49686.35707500046,
      "d": 214.9683750000113,
      "v": 113
    },
    {
      "midi": 51,
      "hit": false,
      "t": 49699.095941667125,
      "d": 111.46508333333622,
      "v": 65
    },
    {
      "midi": 56,
      "hit": false,
      "t": 49715.01952500046,
      "d": 121.0192333333398,
      "v": 61
    },
    {
      "midi": 75,
      "hit": false,
      "t": 49879.0324333338,
      "d": 242.0384666666796,
      "v": 109
    },
    {
      "midi": 80,
      "hit": false,
      "t": 50057.37656666714,
      "d": 199.0447916666817,
      "v": 100
    },
    {
      "midi": 51,
      "hit": false,
      "t": 50066.93071666714,
      "d": 105.09565000000293,
      "v": 62
    },
    {
      "midi": 60,
      "hit": false,
      "t": 50076.484866667146,
      "d": 157.6434750000044,
      "v": 49
    },
    {
      "midi": 56,
      "hit": false,
      "t": 50082.85430000048,
      "d": 124.2039500000028,
      "v": 70
    },
    {
      "midi": 76,
      "hit": false,
      "t": 50248.45956666715,
      "d": 192.67535833334114,
      "v": 103
    },
    {
      "midi": 50,
      "hit": false,
      "t": 50460.24322500049,
      "d": 135.35045833333425,
      "v": 96
    },
    {
      "midi": 77,
      "hit": false,
      "t": 50461.83558333383,
      "d": 121.01923333333252,
      "v": 91
    },
    {
      "midi": 77,
      "hit": false,
      "t": 50656.1033000005,
      "d": 119.42687499999738,
      "v": 90
    },
    {
      "midi": 56,
      "hit": false,
      "t": 50840.81686666716,
      "d": 138.53517500000453,
      "v": 52
    },
    {
      "midi": 65,
      "hit": false,
      "t": 50847.186300000496,
      "d": 173.56705833334127,
      "v": 59
    },
    {
      "midi": 77,
      "hit": false,
      "t": 50848.77865833383,
      "d": 106.68800833333808,
      "v": 97
    },
    {
      "midi": 59,
      "hit": false,
      "t": 50869.479316667166,
      "d": 152.86640000000625,
      "v": 56
    },
    {
      "midi": 77,
      "hit": false,
      "t": 51031.899866667176,
      "d": 111.46508333333622,
      "v": 94
    },
    {
      "midi": 65,
      "hit": false,
      "t": 51202.28220833385,
      "d": 183.12120833333756,
      "v": 83
    },
    {
      "midi": 56,
      "hit": false,
      "t": 51208.65164166718,
      "d": 97.1338583333345,
      "v": 74
    },
    {
      "midi": 59,
      "hit": false,
      "t": 51226.167583333845,
      "d": 106.68800833333808,
      "v": 68
    },
    {
      "midi": 77,
      "hit": false,
      "t": 51238.90645000051,
      "d": 113.05744166667137,
      "v": 33
    },
    {
      "midi": 77,
      "hit": false,
      "t": 51399.734641667186,
      "d": 82.80263333333278,
      "v": 72
    },
    {
      "midi": 77,
      "hit": false,
      "t": 51617.88773333385,
      "d": 130.5733833333361,
      "v": 113
    },
    {
      "midi": 51,
      "hit": false,
      "t": 51621.07245000052,
      "d": 119.42687499999738,
      "v": 97
    },
    {
      "midi": 79,
      "hit": false,
      "t": 51797.82422500052,
      "d": 124.2039500000028,
      "v": 70
    },
    {
      "midi": 77,
      "hit": false,
      "t": 51888.58865000052,
      "d": 146.49696666667296,
      "v": 103
    },
    {
      "midi": 63,
      "hit": false,
      "t": 51980.94543333386,
      "d": 159.23583333333954,
      "v": 75
    },
    {
      "midi": 60,
      "hit": false,
      "t": 51985.722508333856,
      "d": 130.5733833333361,
      "v": 65
    },
    {
      "midi": 68,
      "hit": false,
      "t": 51985.722508333856,
      "d": 140.12753333333967,
      "v": 64
    },
    {
      "midi": 75,
      "hit": false,
      "t": 52020.75439166719,
      "d": 171.97470000000612,
      "v": 80
    },
    {
      "midi": 80,
      "hit": false,
      "t": 52200.69088333387,
      "d": 219.74545000000217,
      "v": 78
    },
    {
      "midi": 68,
      "hit": false,
      "t": 52347.18785000053,
      "d": 170.38234166667098,
      "v": 87
    },
    {
      "midi": 60,
      "hit": false,
      "t": 52363.11143333387,
      "d": 156.05111666666926,
      "v": 67
    },
    {
      "midi": 63,
      "hit": false,
      "t": 52363.11143333387,
      "d": 199.04479166666715,
      "v": 68
    },
    {
      "midi": 84,
      "hit": false,
      "t": 52407.6974666672,
      "d": 105.09565000000293,
      "v": 91
    },
    {
      "midi": 51,
      "hit": false,
      "t": 52748.46215000054,
      "d": 130.5733833333361,
      "v": 105
    },
    {
      "midi": 89,
      "hit": false,
      "t": 52762.79337500054,
      "d": 461.7839166666672,
      "v": 119
    },
    {
      "midi": 63,
      "hit": false,
      "t": 53106.74277500054,
      "d": 171.97470000000612,
      "v": 56
    },
    {
      "midi": 61,
      "hit": false,
      "t": 53111.519850000535,
      "d": 133.75810000000638,
      "v": 59
    },
    {
      "midi": 67,
      "hit": false,
      "t": 53119.481641667204,
      "d": 103.50329166666779,
      "v": 51
    },
    {
      "midi": 87,
      "hit": false,
      "t": 53157.6982416672,
      "d": 202.2295083333447,
      "v": 93
    },
    {
      "midi": 85,
      "hit": false,
      "t": 53307.37992500055,
      "d": 183.12120833333756,
      "v": 77
    },
    {
      "midi": 67,
      "hit": false,
      "t": 53471.392833333884,
      "d": 149.68168333333597,
      "v": 65
    },
    {
      "midi": 63,
      "hit": false,
      "t": 53476.16990833388,
      "d": 205.41422500000772,
      "v": 58
    },
    {
      "midi": 61,
      "hit": false,
      "t": 53484.13170000055,
      "d": 136.9428166666694,
      "v": 51
    },
    {
      "midi": 79,
      "hit": false,
      "t": 53508.01707500055,
      "d": 210.19130000000587,
      "v": 89
    },
    {
      "midi": 56,
      "hit": false,
      "t": 53872.66713333389,
      "d": 121.01923333333252,
      "v": 93
    },
    {
      "midi": 82,
      "hit": false,
      "t": 53880.62892500056,
      "d": 425.15967499999533,
      "v": 105
    },
    {
      "midi": 68,
      "hit": false,
      "t": 54234.13247500055,
      "d": 144.90460833333782,
      "v": 71
    },
    {
      "midi": 63,
      "hit": false,
      "t": 54250.05605833389,
      "d": 168.78998333333584,
      "v": 68
    },
    {
      "midi": 60,
      "hit": false,
      "t": 54261.20256666722,
      "d": 133.75810000000638,
      "v": 49
    },
    {
      "midi": 80,
      "hit": false,
      "t": 54261.20256666722,
      "d": 238.8537500000093,
      "v": 90
    },
    {
      "midi": 75,
      "hit": false,
      "t": 54441.139058333894,
      "d": 214.9683750000113,
      "v": 91
    },
    {
      "midi": 68,
      "hit": false,
      "t": 54598.7825333339,
      "d": 97.13385833334178,
      "v": 78
    },
    {
      "midi": 60,
      "hit": false,
      "t": 54617.8908333339,
      "d": 128.98102500000823,
      "v": 64
    },
    {
      "midi": 72,
      "hit": false,
      "t": 54619.483191667234,
      "d": 173.56705833334127,
      "v": 86
    },
    {
      "midi": 63,
      "hit": false,
      "t": 54622.667908333904,
      "d": 111.46508333333622,
      "v": 65
    },
    {
      "midi": 44,
      "hit": false,
      "t": 54979.356175000576,
      "d": 197.452433333332,
      "v": 62
    },
    {
      "midi": 75,
      "hit": false,
      "t": 55015.98041666724,
      "d": 117.83451666666951,
      "v": 75
    },
    {
      "midi": 75,
      "hit": false,
      "t": 55234.13350833391,
      "d": 92.35678333333635,
      "v": 64
    },
    {
      "midi": 51,
      "hit": false,
      "t": 55388.59226666724,
      "d": 100.31857500000478,
      "v": 45
    },
    {
      "midi": 60,
      "hit": false,
      "t": 55390.18462500058,
      "d": 119.42687500000466,
      "v": 54
    },
    {
      "midi": 56,
      "hit": false,
      "t": 55393.36934166725,
      "d": 114.64979999999923,
      "v": 58
    },
    {
      "midi": 75,
      "hit": false,
      "t": 55420.439433333915,
      "d": 57.324899999999616,
      "v": 64
    },
    {
      "midi": 75,
      "hit": false,
      "t": 55566.93640000058,
      "d": 93.94914166666422,
      "v": 71
    },
    {
      "midi": 60,
      "hit": false,
      "t": 55769.16590833391,
      "d": 127.38866666668036,
      "v": 59
    },
    {
      "midi": 75,
      "hit": false,
      "t": 55772.35062500058,
      "d": 57.32490000000689,
      "v": 43
    },
    {
      "midi": 51,
      "hit": false,
      "t": 55775.53534166725,
      "d": 93.9491416666715,
      "v": 59
    },
    {
      "midi": 56,
      "hit": false,
      "t": 55780.31241666725,
      "d": 148.0893250000081,
      "v": 68
    },
    {
      "midi": 75,
      "hit": false,
      "t": 55914.070516667256,
      "d": 133.7580999999991,
      "v": 75
    },
    {
      "midi": 77,
      "hit": false,
      "t": 56137.00068333392,
      "d": 235.66903333333903,
      "v": 84
    },
    {
      "midi": 44,
      "hit": false,
      "t": 56164.07077500059,
      "d": 167.1976250000007,
      "v": 71
    },
    {
      "midi": 75,
      "hit": false,
      "t": 56334.45311666726,
      "d": 168.78998333333584,
      "v": 84
    },
    {
      "midi": 72,
      "hit": false,
      "t": 56509.61253333393,
      "d": 144.90460833333054,
      "v": 80
    },
    {
      "midi": 60,
      "hit": false,
      "t": 56533.49790833393,
      "d": 149.68168333333597,
      "v": 56
    },
    {
      "midi": 51,
      "hit": false,
      "t": 56541.459700000596,
      "d": 121.01923333333252,
      "v": 51
    },
    {
      "midi": 56,
      "hit": false,
      "t": 56541.459700000596,
      "d": 152.86639999999898,
      "v": 62
    },
    {
      "midi": 68,
      "hit": false,
      "t": 56700.69553333393,
      "d": 288.2168583333332,
      "v": 74
    },
    {
      "midi": 63,
      "hit": false,
      "t": 56902.92504166726,
      "d": 219.74545000000944,
      "v": 78
    },
    {
      "midi": 60,
      "hit": false,
      "t": 56909.29447500059,
      "d": 202.2295083333447,
      "v": 78
    },
    {
      "midi": 56,
      "hit": false,
      "t": 56926.81041666726,
      "d": 184.71356666667998,
      "v": 80
    },
    {
      "midi": 51,
      "hit": false,
      "t": 56929.99513333393,
      "d": 141.7198916666748,
      "v": 68
    },
    {
      "midi": 64,
      "hit": false,
      "t": 57089.230966667266,
      "d": 176.75177500000427,
      "v": 84
    },
    {
      "midi": 65,
      "hit": false,
      "t": 57289.86811666727,
      "d": 132.16574166666396,
      "v": 96
    },
    {
      "midi": 44,
      "hit": false,
      "t": 57302.606983333935,
      "d": 214.96837499999674,
      "v": 87
    },
    {
      "midi": 65,
      "hit": false,
      "t": 57490.505266667264,
      "d": 114.64979999999923,
      "v": 87
    },
    {
      "midi": 59,
      "hit": false,
      "t": 57664.0723250006,
      "d": 160.8281916666674,
      "v": 68
    },
    {
      "midi": 56,
      "hit": false,
      "t": 57672.034116667266,
      "d": 159.23583333333227,
      "v": 62
    },
    {
      "midi": 50,
      "hit": false,
      "t": 57676.811191667264,
      "d": 133.7580999999991,
      "v": 56
    },
    {
      "midi": 65,
      "hit": false,
      "t": 57681.58826666726,
      "d": 100.31857499999751,
      "v": 81
    },
    {
      "midi": 65,
      "hit": false,
      "t": 57845.6011750006,
      "d": 119.42687499999738,
      "v": 70
    },
    {
      "midi": 59,
      "hit": false,
      "t": 58052.60775833393,
      "d": 162.42055000000255,
      "v": 84
    },
    {
      "midi": 65,
      "hit": false,
      "t": 58055.7924750006,
      "d": 130.57338333332882,
      "v": 87
    },
    {
      "midi": 56,
      "hit": false,
      "t": 58066.93898333393,
      "d": 179.93649166666728,
      "v": 68
    },
    {
      "midi": 50,
      "hit": false,
      "t": 58073.30841666726,
      "d": 165.60526666666556,
      "v": 70
    },
    {
      "midi": 65,
      "hit": false,
      "t": 58261.2067000006,
      "d": 173.567058333334,
      "v": 89
    },
    {
      "midi": 44,
      "hit": false,
      "t": 58437.9584750006,
      "d": 187.8982833333357,
      "v": 86
    },
    {
      "midi": 63,
      "hit": false,
      "t": 58453.88205833394,
      "d": 178.3441333333394,
      "v": 86
    },
    {
      "midi": 68,
      "hit": false,
      "t": 58629.04147500061,
      "d": 140.12753333333967,
      "v": 81
    },
    {
      "midi": 60,
      "hit": false,
      "t": 58815.34740000062,
      "d": 162.42055000000983,
      "v": 91
    },
    {
      "midi": 51,
      "hit": false,
      "t": 58820.124475000615,
      "d": 135.35045833334152,
      "v": 77
    },
    {
      "midi": 56,
      "hit": false,
      "t": 58823.309191667286,
      "d": 175.1594166666764,
      "v": 86
    },
    {
      "midi": 72,
      "hit": false,
      "t": 58824.90155000062,
      "d": 214.9683750000113,
      "v": 109
    },
    {
      "midi": 75,
      "hit": false,
      "t": 59006.43040000063,
      "d": 250.00025833333348,
      "v": 106
    },
    {
      "midi": 80,
      "hit": false,
      "t": 59203.88283333396,
      "d": 213.37601666667615,
      "v": 97
    },
    {
      "midi": 60,
      "hit": false,
      "t": 59205.4751916673,
      "d": 183.12120833333756,
      "v": 80
    },
    {
      "midi": 51,
      "hit": false,
      "t": 59210.252266667296,
      "d": 109.87272500000108,
      "v": 80
    },
    {
      "midi": 56,
      "hit": false,
      "t": 59218.214058333964,
      "d": 162.42055000000255,
      "v": 80
    },
    {
      "midi": 76,
      "hit": false,
      "t": 59380.63460833397,
      "d": 200.6371500000023,
      "v": 96
    },
    {
      "midi": 77,
      "hit": false,
      "t": 59579.679400000634,
      "d": 124.2039500000028,
      "v": 103
    },
    {
      "midi": 50,
      "hit": false,
      "t": 59594.010625000636,
      "d": 207.00658333333558,
      "v": 105
    },
    {
      "midi": 77,
      "hit": false,
      "t": 59775.53947500064,
      "d": 127.38866666666581,
      "v": 97
    },
    {
      "midi": 77,
      "hit": false,
      "t": 59971.399550000635,
      "d": 114.64979999999923,
      "v": 97
    },
    {
      "midi": 56,
      "hit": false,
      "t": 59976.17662500063,
      "d": 152.86639999999898,
      "v": 74
    },
    {
      "midi": 65,
      "hit": false,
      "t": 59980.95370000063,
      "d": 183.12120833333756,
      "v": 75
    },
    {
      "midi": 59,
      "hit": false,
      "t": 60006.431433333964,
      "d": 210.19130000000587,
      "v": 65
    },
    {
      "midi": 77,
      "hit": false,
      "t": 60157.705475000635,
      "d": 98.72621666666964,
      "v": 94
    },
    {
      "midi": 77,
      "hit": false,
      "t": 60342.41904166731,
      "d": 135.35045833333425,
      "v": 83
    },
    {
      "midi": 56,
      "hit": false,
      "t": 60361.52734166731,
      "d": 95.54149999999936,
      "v": 83
    },
    {
      "midi": 65,
      "hit": false,
      "t": 60361.52734166731,
      "d": 195.86007500000414,
      "v": 89
    },
    {
      "midi": 59,
      "hit": false,
      "t": 60374.266208333975,
      "d": 141.71989166666754,
      "v": 81
    },
    {
      "midi": 77,
      "hit": false,
      "t": 60515.98610000064,
      "d": 85.98735000000306,
      "v": 64
    },
    {
      "midi": 77,
      "hit": false,
      "t": 60743.69334166731,
      "d": 146.49696666666568,
      "v": 110
    },
    {
      "midi": 51,
      "hit": false,
      "t": 60745.28570000065,
      "d": 189.49064166666358,
      "v": 103
    },
    {
      "midi": 79,
      "hit": false,
      "t": 60923.62983333398,
      "d": 135.35045833333425,
      "v": 84
    },
    {
      "midi": 77,
      "hit": false,
      "t": 61031.910200000646,
      "d": 144.90460833333054,
      "v": 96
    },
    {
      "midi": 60,
      "hit": false,
      "t": 61114.71283333398,
      "d": 132.16574166666396,
      "v": 84
    },
    {
      "midi": 68,
      "hit": false,
      "t": 61119.48990833398,
      "d": 148.08932500000083,
      "v": 72
    },
    {
      "midi": 63,
      "hit": false,
      "t": 61119.48990833398,
      "d": 202.22950833333744,
      "v": 90
    },
    {
      "midi": 75,
      "hit": false,
      "t": 61162.483583333975,
      "d": 199.04479166667443,
      "v": 83
    },
    {
      "midi": 80,
      "hit": false,
      "t": 61348.78950833398,
      "d": 221.33780833333003,
      "v": 83
    },
    {
      "midi": 68,
      "hit": false,
      "t": 61508.025341667315,
      "d": 168.78998333333584,
      "v": 96
    },
    {
      "midi": 60,
      "hit": false,
      "t": 61519.17185000065,
      "d": 164.0129083333377,
      "v": 90
    },
    {
      "midi": 63,
      "hit": false,
      "t": 61528.72600000065,
      "d": 189.49064166667085,
      "v": 77
    },
    {
      "midi": 84,
      "hit": false,
      "t": 61539.87250833398,
      "d": 116.24215833333437,
      "v": 99
    },
    {
      "midi": 51,
      "hit": false,
      "t": 61894.96841666732,
      "d": 143.31225000000268,
      "v": 103
    },
    {
      "midi": 89,
      "hit": false,
      "t": 61914.07671666732,
      "d": 449.0450500000079,
      "v": 121
    },
    {
      "midi": 67,
      "hit": false,
      "t": 62262.80319166732,
      "d": 135.35045833334152,
      "v": 75
    },
    {
      "midi": 63,
      "hit": false,
      "t": 62262.80319166732,
      "d": 191.083000000006,
      "v": 83
    },
    {
      "midi": 61,
      "hit": false,
      "t": 62265.98790833399,
      "d": 132.16574166667124,
      "v": 75
    },
    {
      "midi": 87,
      "hit": false,
      "t": 62299.42743333399,
      "d": 200.6371500000023,
      "v": 91
    },
    {
      "midi": 85,
      "hit": false,
      "t": 62441.14732500066,
      "d": 213.37601666666887,
      "v": 74
    },
    {
      "midi": 67,
      "hit": false,
      "t": 62627.45325000066,
      "d": 168.78998333333584,
      "v": 80
    },
    {
      "midi": 63,
      "hit": false,
      "t": 62635.41504166733,
      "d": 240.44610833333718,
      "v": 75
    },
    {
      "midi": 61,
      "hit": false,
      "t": 62637.007400000664,
      "d": 160.8281916666674,
      "v": 71
    },
    {
      "midi": 79,
      "hit": false,
      "t": 62665.66985000066,
      "d": 447.45269166667276,
      "v": 78
    },
    {
      "midi": 56,
      "hit": false,
      "t": 63054.205283334,
      "d": 121.01923333333252,
      "v": 115
    },
    {
      "midi": 80,
      "hit": false,
      "t": 63057.39000000067,
      "d": 406.05137500000274,
      "v": 102
    },
    {
      "midi": 68,
      "hit": false,
      "t": 63418.85534166733,
      "d": 176.75177500000427,
      "v": 100
    },
    {
      "midi": 60,
      "hit": false,
      "t": 63428.409491667335,
      "d": 184.71356666666543,
      "v": 97
    },
    {
      "midi": 72,
      "hit": false,
      "t": 63785.097758334,
      "d": 103.50329166666779,
      "v": 103
    },
    {
      "midi": 68,
      "hit": false,
      "t": 63801.021341667336,
      "d": 122.61159166666766,
      "v": 97
    },
    {
      "midi": 65,
      "hit": false,
      "t": 63812.16785000067,
      "d": 114.64980000000651,
      "v": 106
    },
    {
      "midi": 74,
      "hit": false,
      "t": 63863.123316667334,
      "d": 125.79630833333795,
      "v": 102
    },
    {
      "midi": 72,
      "hit": false,
      "t": 63998.473775000675,
      "d": 74.84084166667162,
      "v": 74
    },
    {
      "midi": 74,
      "hit": false,
      "t": 64046.24452500068,
      "d": 85.98735000000306,
      "v": 86
    },
    {
      "midi": 72,
      "hit": false,
      "t": 64121.08536666735,
      "d": 74.84084166666435,
      "v": 74
    },
    {
      "midi": 70,
      "hit": false,
      "t": 64216.62686666735,
      "d": 363.05770000000484,
      "v": 119
    },
    {
      "midi": 58,
      "hit": false,
      "t": 64229.365733334016,
      "d": 106.68800833333808,
      "v": 125
    },
    {
      "midi": 46,
      "hit": false,
      "t": 64232.55045000069,
      "d": 111.46508333333622,
      "v": 114
    },
    {
      "midi": 58,
      "hit": false,
      "t": 64594.015791667356,
      "d": 144.90460833333782,
      "v": 77
    },
    {
      "midi": 68,
      "hit": false,
      "t": 64606.75465833402,
      "d": 132.16574166667124,
      "v": 65
    },
    {
      "midi": 74,
      "hit": false,
      "t": 64609.93937500069,
      "d": 173.567058333334,
      "v": 112
    },
    {
      "midi": 65,
      "hit": false,
      "t": 64627.45531666736,
      "d": 171.97470000000612,
      "v": 84
    },
    {
      "midi": 75,
      "hit": false,
      "t": 64769.175208334025,
      "d": 230.89195833334088,
      "v": 100
    },
    {
      "midi": 74,
      "hit": false,
      "t": 64958.665850000696,
      "d": 222.93016666667245,
      "v": 96
    },
    {
      "midi": 77,
      "hit": false,
      "t": 64969.81235833403,
      "d": 160.82819166667468,
      "v": 91
    },
    {
      "midi": 68,
      "hit": false,
      "t": 64971.40471666736,
      "d": 135.35045833333425,
      "v": 75
    },
    {
      "midi": 58,
      "hit": false,
      "t": 64977.774150000696,
      "d": 136.9428166666694,
      "v": 83
    },
    {
      "midi": 65,
      "hit": false,
      "t": 64990.51301666736,
      "d": 138.53517500000453,
      "v": 86
    },
    {
      "midi": 70,
      "hit": false,
      "t": 65342.424208334036,
      "d": 323.24874166666996,
      "v": 102
    },
    {
      "midi": 51,
      "hit": false,
      "t": 65350.386000000704,
      "d": 154.45875833333412,
      "v": 116
    },
    {
      "midi": 67,
      "hit": false,
      "t": 65718.22077500071,
      "d": 106.68800833333808,
      "v": 78
    },
    {
      "midi": 58,
      "hit": false,
      "t": 65719.81313333404,
      "d": 116.24215833333437,
      "v": 67
    },
    {
      "midi": 75,
      "hit": false,
      "t": 65724.59020833405,
      "d": 183.12120833333756,
      "v": 83
    },
    {
      "midi": 63,
      "hit": false,
      "t": 65732.55200000071,
      "d": 157.6434750000044,
      "v": 72
    },
    {
      "midi": 77,
      "hit": false,
      "t": 65875.86425000071,
      "d": 259.5544083333516,
      "v": 93
    },
    {
      "midi": 79,
      "hit": false,
      "t": 66076.50140000072,
      "d": 417.19788333334145,
      "v": 97
    },
    {
      "midi": 75,
      "hit": false,
      "t": 66084.46319166738,
      "d": 364.65005833334,
      "v": 89
    },
    {
      "midi": 67,
      "hit": false,
      "t": 66090.83262500072,
      "d": 156.05111666666926,
      "v": 84
    },
    {
      "midi": 58,
      "hit": false,
      "t": 66095.60970000073,
      "d": 128.98102500000095,
      "v": 80
    },
    {
      "midi": 63,
      "hit": false,
      "t": 66095.60970000073,
      "d": 218.15309166666702,
      "v": 75
    },
    {
      "midi": 70,
      "hit": false,
      "t": 66450.70560833406,
      "d": 133.75810000000638,
      "v": 93
    },
    {
      "midi": 50,
      "hit": false,
      "t": 66476.18334166739,
      "d": 141.71989166666754,
      "v": 115
    },
    {
      "midi": 68,
      "hit": false,
      "t": 66866.31113333406,
      "d": 149.6816833333578,
      "v": 83
    },
    {
      "midi": 77,
      "hit": false,
      "t": 66872.6805666674,
      "d": 214.96837500002584,
      "v": 94
    },
    {
      "midi": 58,
      "hit": false,
      "t": 66874.27292500074,
      "d": 135.35045833334152,
      "v": 77
    },
    {
      "midi": 65,
      "hit": false,
      "t": 66888.60415000074,
      "d": 194.26771666668355,
      "v": 90
    },
    {
      "midi": 79,
      "hit": false,
      "t": 67052.61705833409,
      "d": 242.0384666666796,
      "v": 99
    },
    {
      "midi": 68,
      "hit": false,
      "t": 67229.3688333341,
      "d": 135.35045833334152,
      "v": 89
    },
    {
      "midi": 80,
      "hit": false,
      "t": 67230.96119166743,
      "d": 423.567316666682,
      "v": 102
    },
    {
      "midi": 65,
      "hit": false,
      "t": 67235.73826666744,
      "d": 178.34413333333214,
      "v": 103
    },
    {
      "midi": 77,
      "hit": false,
      "t": 67235.73826666744,
      "d": 442.6756166666746,
      "v": 108
    },
    {
      "midi": 58,
      "hit": false,
      "t": 67243.7000583341,
      "d": 132.16574166667124,
      "v": 91
    },
    {
      "midi": 82,
      "hit": false,
      "t": 67616.3119083341,
      "d": 428.3443916666729,
      "v": 99
    },
    {
      "midi": 51,
      "hit": false,
      "t": 67617.90426666744,
      "d": 170.38234166667098,
      "v": 108
    },
    {
      "midi": 79,
      "hit": false,
      "t": 67622.68134166744,
      "d": 366.2424166666606,
      "v": 103
    },
    {
      "midi": 73,
      "hit": false,
      "t": 67625.86605833411,
      "d": 449.04505000000063,
      "v": 93
    },
    {
      "midi": 67,
      "hit": false,
      "t": 68006.43970000077,
      "d": 105.09565000000293,
      "v": 84
    },
    {
      "midi": 58,
      "hit": false,
      "t": 68011.21677500078,
      "d": 114.64979999999923,
      "v": 83
    },
    {
      "midi": 61,
      "hit": false,
      "t": 68023.95564166745,
      "d": 152.86639999999898,
      "v": 83
    },
    {
      "midi": 82,
      "hit": false,
      "t": 68401.34456666744,
      "d": 93.9491416666715,
      "v": 68
    },
    {
      "midi": 73,
      "hit": false,
      "t": 68404.52928333411,
      "d": 71.65612500000861,
      "v": 62
    },
    {
      "midi": 52,
      "hit": false,
      "t": 68409.30635833411,
      "d": 393.3125083332998,
      "v": 68
    },
    {
      "midi": 79,
      "hit": false,
      "t": 68414.08343333412,
      "d": 73.2484833333292,
      "v": 64
    },
    {
      "midi": 73,
      "hit": false,
      "t": 68566.9498333341,
      "d": 70.06376666665892,
      "v": 71
    },
    {
      "midi": 79,
      "hit": false,
      "t": 68579.68870000077,
      "d": 82.8026333333255,
      "v": 67
    },
    {
      "midi": 82,
      "hit": false,
      "t": 68601.98171666743,
      "d": 42.99367499999062,
      "v": 17
    },
    {
      "midi": 82,
      "hit": false,
      "t": 68759.62519166742,
      "d": 402.8666583333252,
      "v": 64
    },
    {
      "midi": 79,
      "hit": false,
      "t": 68778.73349166742,
      "d": 585.9878666666773,
      "v": 51
    },
    {
      "midi": 73,
      "hit": false,
      "t": 68786.69528333408,
      "d": 611.465600000025,
      "v": 64
    },
    {
      "midi": 53,
      "hit": false,
      "t": 68812.17301666741,
      "d": 132.16574166667124,
      "v": 61
    },
    {
      "midi": 65,
      "hit": false,
      "t": 69167.26892500075,
      "d": 106.68800833333808,
      "v": 54
    },
    {
      "midi": 56,
      "hit": false,
      "t": 69180.00779166742,
      "d": 106.68800833333808,
      "v": 59
    },
    {
      "midi": 84,
      "hit": false,
      "t": 69210.26260000076,
      "d": 269.1085583333479,
      "v": 67
    },
    {
      "midi": 82,
      "hit": false,
      "t": 69367.90607500076,
      "d": 245.22318333334988,
      "v": 62
    },
    {
      "midi": 44,
      "hit": false,
      "t": 69546.25020833411,
      "d": 445.8603333333449,
      "v": 64
    },
    {
      "midi": 80,
      "hit": false,
      "t": 69552.61964166745,
      "d": 167.1976250000007,
      "v": 86
    },
    {
      "midi": 72,
      "hit": false,
      "t": 69566.95086666745,
      "d": 149.6816833333287,
      "v": 74
    },
    {
      "midi": 46,
      "hit": false,
      "t": 69941.15507500079,
      "d": 197.4524333333393,
      "v": 75
    },
    {
      "midi": 80,
      "hit": false,
      "t": 69950.70922500078,
      "d": 378.9812833333417,
      "v": 83
    },
    {
      "midi": 71,
      "hit": false,
      "t": 69960.26337500078,
      "d": 517.516458333339,
      "v": 77
    },
    {
      "midi": 63,
      "hit": false,
      "t": 70301.02805833412,
      "d": 154.45875833333412,
      "v": 75
    },
    {
      "midi": 82,
      "hit": false,
      "t": 70324.91343333412,
      "d": 307.3251583333331,
      "v": 74
    },
    {
      "midi": 55,
      "hit": false,
      "t": 70339.24465833412,
      "d": 127.38866666666581,
      "v": 54
    },
    {
      "midi": 80,
      "hit": false,
      "t": 70487.33398333412,
      "d": 240.44610833334445,
      "v": 75
    },
    {
      "midi": 79,
      "hit": false,
      "t": 70670.45519166745,
      "d": 195.86007500000414,
      "v": 90
    },
    {
      "midi": 70,
      "hit": false,
      "t": 70675.23226666746,
      "d": 136.9428166666621,
      "v": 71
    },
    {
      "midi": 63,
      "hit": false,
      "t": 70678.41698333413,
      "d": 135.35045833332697,
      "v": 74
    },
    {
      "midi": 55,
      "hit": false,
      "t": 70694.34056666747,
      "d": 167.19762499998615,
      "v": 71
    },
    {
      "midi": 46,
      "hit": false,
      "t": 71055.80590833412,
      "d": 183.12120833333756,
      "v": 90
    },
    {
      "midi": 70,
      "hit": false,
      "t": 71060.58298333413,
      "d": 584.3955083333276,
      "v": 83
    },
    {
      "midi": 79,
      "hit": false,
      "t": 71063.7677000008,
      "d": 385.35071666665317,
      "v": 83
    },
    {
      "midi": 62,
      "hit": false,
      "t": 71433.19483333413,
      "d": 138.5351749999827,
      "v": 75
    },
    {
      "midi": 53,
      "hit": false,
      "t": 71441.15662500079,
      "d": 173.5670583333267,
      "v": 68
    },
    {
      "midi": 80,
      "hit": false,
      "t": 71458.67256666745,
      "d": 347.13411666668253,
      "v": 70
    },
    {
      "midi": 79,
      "hit": false,
      "t": 71651.3479250008,
      "d": 222.93016666667245,
      "v": 54
    },
    {
      "midi": 68,
      "hit": false,
      "t": 71821.73026666747,
      "d": 144.90460833333782,
      "v": 77
    },
    {
      "midi": 58,
      "hit": false,
      "t": 71821.73026666747,
      "d": 170.38234166667098,
      "v": 70
    },
    {
      "midi": 62,
      "hit": false,
      "t": 71826.50734166747,
      "d": 175.15941666666185,
      "v": 64
    },
    {
      "midi": 77,
      "hit": false,
      "t": 71834.46913333413,
      "d": 156.05111666666926,
      "v": 87
    },
    {
      "midi": 77,
      "hit": false,
      "t": 72211.85805833414,
      "d": 385.3507166666677,
      "v": 94
    },
    {
      "midi": 51,
      "hit": false,
      "t": 72218.22749166748,
      "d": 523.885891666665,
      "v": 109
    },
    {
      "midi": 68,
      "hit": false,
      "t": 72232.55871666748,
      "d": 514.3317416666687,
      "v": 65
    },
    {
      "midi": 63,
      "hit": false,
      "t": 72595.61641666747,
      "d": 159.23583333333954,
      "v": 71
    },
    {
      "midi": 58,
      "hit": false,
      "t": 72603.57820833415,
      "d": 143.31225000000268,
      "v": 70
    },
    {
      "midi": 79,
      "hit": false,
      "t": 72611.54000000081,
      "d": 250.00025833334075,
      "v": 86
    },
    {
      "midi": 77,
      "hit": false,
      "t": 72769.18347500081,
      "d": 250.0002583333262,
      "v": 83
    },
    {
      "midi": 63,
      "hit": false,
      "t": 72973.00534166748,
      "d": 132.16574166667124,
      "v": 71
    },
    {
      "midi": 75,
      "hit": false,
      "t": 72974.59770000081,
      "d": 308.9175166666828,
      "v": 87
    },
    {
      "midi": 58,
      "hit": false,
      "t": 72995.29835833414,
      "d": 81.21027500000491,
      "v": 72
    },
    {
      "midi": 67,
      "hit": false,
      "t": 72996.89071666748,
      "d": 280.25506666667934,
      "v": 65
    },
    {
      "midi": 70,
      "hit": false,
      "t": 73351.98662500083,
      "d": 210.19130000000587,
      "v": 83
    },
    {
      "midi": 46,
      "hit": false,
      "t": 73355.1713416675,
      "d": 484.07693333334464,
      "v": 68
    },
    {
      "midi": 74,
      "hit": false,
      "t": 73557.40085000083,
      "d": 191.08300000001327,
      "v": 89
    },
    {
      "midi": 75,
      "hit": false,
      "t": 73711.85960833417,
      "d": 183.12120833335212,
      "v": 84
    },
    {
      "midi": 58,
      "hit": false,
      "t": 73743.70677500084,
      "d": 128.98102500000095,
      "v": 48
    },
    {
      "midi": 68,
      "hit": false,
      "t": 73746.89149166751,
      "d": 130.5733833333361,
      "v": 42
    },
    {
      "midi": 65,
      "hit": false,
      "t": 73789.88516666752,
      "d": 113.05744166666409,
      "v": 36
    },
    {
      "midi": 76,
      "hit": false,
      "t": 73872.68780000084,
      "d": 261.1467666666722,
      "v": 84
    },
    {
      "midi": 74,
      "hit": false,
      "t": 74103.57975833418,
      "d": 390.1277916666877,
      "v": 97
    },
    {
      "midi": 68,
      "hit": false,
      "t": 74111.54155000084,
      "d": 138.5351750000118,
      "v": 70
    },
    {
      "midi": 77,
      "hit": false,
      "t": 74116.31862500084,
      "d": 323.2487416666845,
      "v": 77
    },
    {
      "midi": 65,
      "hit": false,
      "t": 74133.83456666752,
      "d": 146.49696666667296,
      "v": 70
    },
    {
      "midi": 58,
      "hit": false,
      "t": 74138.61164166752,
      "d": 127.38866666666581,
      "v": 43
    },
    {
      "midi": 51,
      "hit": false,
      "t": 74487.33811666752,
      "d": 253.18497500001104,
      "v": 102
    },
    {
      "midi": 70,
      "hit": false,
      "t": 74500.0769833342,
      "d": 238.85374999999476,
      "v": 106
    },
    {
      "midi": 74,
      "hit": false,
      "t": 74718.23007500087,
      "d": 235.66903333332448,
      "v": 100
    },
    {
      "midi": 67,
      "hit": false,
      "t": 74864.72704166753,
      "d": 106.68800833333808,
      "v": 71
    },
    {
      "midi": 75,
      "hit": false,
      "t": 74867.9117583342,
      "d": 216.56073333333188,
      "v": 93
    },
    {
      "midi": 58,
      "hit": false,
      "t": 74879.05826666753,
      "d": 103.50329166666779,
      "v": 52
    },
    {
      "midi": 63,
      "hit": false,
      "t": 74887.0200583342,
      "d": 151.2740416666784,
      "v": 68
    },
    {
      "midi": 77,
      "hit": false,
      "t": 75038.29410000087,
      "d": 278.66270833332965,
      "v": 87
    },
    {
      "midi": 67,
      "hit": false,
      "t": 75238.93125000087,
      "d": 160.82819166666013,
      "v": 74
    },
    {
      "midi": 79,
      "hit": false,
      "t": 75238.93125000087,
      "d": 369.42713333333086,
      "v": 94
    },
    {
      "midi": 63,
      "hit": false,
      "t": 75250.0777583342,
      "d": 216.56073333333188,
      "v": 75
    },
    {
      "midi": 58,
      "hit": false,
      "t": 75251.67011666753,
      "d": 140.1275333333324,
      "v": 75
    },
    {
      "midi": 75,
      "hit": false,
      "t": 75259.6319083342,
      "d": 396.49722499999916,
      "v": 106
    },
    {
      "midi": 50,
      "hit": false,
      "t": 75622.6896083342,
      "d": 434.7138249999989,
      "v": 118
    },
    {
      "midi": 70,
      "hit": false,
      "t": 75635.42847500087,
      "d": 278.66270833332965,
      "v": 108
    },
    {
      "midi": 76,
      "hit": false,
      "t": 75836.06562500086,
      "d": 272.29327500000363,
      "v": 94
    },
    {
      "midi": 68,
      "hit": false,
      "t": 76008.04032500087,
      "d": 141.71989166666754,
      "v": 87
    },
    {
      "midi": 58,
      "hit": false,
      "t": 76009.6326833342,
      "d": 114.64979999999923,
      "v": 93
    },
    {
      "midi": 65,
      "hit": false,
      "t": 76014.40975833421,
      "d": 203.8218666666653,
      "v": 103
    },
    {
      "midi": 77,
      "hit": false,
      "t": 76022.37155000087,
      "d": 248.4079000000056,
      "v": 108
    },
    {
      "midi": 79,
      "hit": false,
      "t": 76191.1615333342,
      "d": 310.5098750000034,
      "v": 97
    },
    {
      "midi": 80,
      "hit": false,
      "t": 76385.42925000087,
      "d": 331.21053333334567,
      "v": 106
    },
    {
      "midi": 68,
      "hit": false,
      "t": 76387.02160833421,
      "d": 144.90460833333782,
      "v": 87
    },
    {
      "midi": 65,
      "hit": false,
      "t": 76393.39104166755,
      "d": 181.52885000000242,
      "v": 110
    },
    {
      "midi": 58,
      "hit": false,
      "t": 76394.98340000089,
      "d": 162.42054999999527,
      "v": 103
    },
    {
      "midi": 77,
      "hit": false,
      "t": 76404.53755000088,
      "d": 318.4716666666791,
      "v": 121
    },
    {
      "midi": 51,
      "hit": false,
      "t": 76766.00289166757,
      "d": 412.4208083333506,
      "v": 113
    },
    {
      "midi": 82,
      "hit": false,
      "t": 76772.3723250009,
      "d": 418.7902416666766,
      "v": 110
    },
    {
      "midi": 79,
      "hit": false,
      "t": 76780.33411666757,
      "d": 460.1915583333466,
      "v": 106
    },
    {
      "midi": 73,
      "hit": false,
      "t": 76785.11119166757,
      "d": 511.14702500001295,
      "v": 103
    },
    {
      "midi": 67,
      "hit": false,
      "t": 77148.16889166758,
      "d": 95.54150000000664,
      "v": 90
    },
    {
      "midi": 58,
      "hit": false,
      "t": 77152.94596666758,
      "d": 119.42687500000466,
      "v": 81
    },
    {
      "midi": 61,
      "hit": false,
      "t": 77168.86955000092,
      "d": 154.45875833333412,
      "v": 84
    },
    {
      "midi": 82,
      "hit": false,
      "t": 77347.21368333425,
      "d": 170.38234166667098,
      "v": 71
    },
    {
      "midi": 79,
      "hit": false,
      "t": 77364.72962500092,
      "d": 222.93016666667245,
      "v": 72
    },
    {
      "midi": 52,
      "hit": false,
      "t": 77523.96545833426,
      "d": 402.8666583333543,
      "v": 80
    },
    {
      "midi": 73,
      "hit": false,
      "t": 77538.29668333427,
      "d": 192.67535833333386,
      "v": 70
    },
    {
      "midi": 82,
      "hit": false,
      "t": 77732.56440000093,
      "d": 203.8218666666944,
      "v": 58
    },
    {
      "midi": 79,
      "hit": false,
      "t": 77737.34147500094,
      "d": 200.63715000002412,
      "v": 52
    },
    {
      "midi": 73,
      "hit": false,
      "t": 77922.05504166761,
      "d": 675.1599333333725,
      "v": 103
    },
    {
      "midi": 53,
      "hit": false,
      "t": 77952.30985000097,
      "d": 146.49696666667296,
      "v": 72
    },
    {
      "midi": 82,
      "hit": false,
      "t": 78130.65398333431,
      "d": 197.45243333332473,
      "v": 67
    },
    {
      "midi": 65,
      "hit": false,
      "t": 78320.14462500098,
      "d": 159.23583333333954,
      "v": 74
    },
    {
      "midi": 84,
      "hit": false,
      "t": 78340.8452833343,
      "d": 267.51620000001276,
      "v": 84
    },
    {
      "midi": 56,
      "hit": false,
      "t": 78359.95358333431,
      "d": 108.28036666667322,
      "v": 32
    },
    {
      "midi": 82,
      "hit": false,
      "t": 78527.15120833431,
      "d": 257.9620500000019,
      "v": 58
    },
    {
      "midi": 44,
      "hit": false,
      "t": 78686.38704166765,
      "d": 461.78391666665266,
      "v": 80
    },
    {
      "midi": 72,
      "hit": false,
      "t": 78746.89665833431,
      "d": 175.15941666666185,
      "v": 81
    },
    {
      "midi": 80,
      "hit": false,
      "t": 78746.89665833431,
      "d": 183.121208333323,
      "v": 74
    },
    {
      "midi": 46,
      "hit": false,
      "t": 79089.25370000096,
      "d": 234.0766750000039,
      "v": 81
    },
    {
      "midi": 71,
      "hit": false,
      "t": 79103.58492500096,
      "d": 547.7712666666775,
      "v": 100
    },
    {
      "midi": 80,
      "hit": false,
      "t": 79315.3685833343,
      "d": 195.86007500000414,
      "v": 81
    },
    {
      "midi": 63,
      "hit": false,
      "t": 79465.05026666763,
      "d": 154.45875833334867,
      "v": 62
    },
    {
      "midi": 55,
      "hit": false,
      "t": 79480.97385000097,
      "d": 149.68168333334324,
      "v": 62
    },
    {
      "midi": 82,
      "hit": false,
      "t": 79509.63630000097,
      "d": 328.02581666666083,
      "v": 84
    },
    {
      "midi": 80,
      "hit": false,
      "t": 79672.05685000097,
      "d": 256.36969166666677,
      "v": 65
    },
    {
      "midi": 63,
      "hit": false,
      "t": 79840.8468333343,
      "d": 171.97470000000612,
      "v": 74
    },
    {
      "midi": 79,
      "hit": false,
      "t": 79847.21626666764,
      "d": 234.0766750000039,
      "v": 91
    },
    {
      "midi": 70,
      "hit": false,
      "t": 79856.77041666764,
      "d": 141.71989166666754,
      "v": 68
    },
    {
      "midi": 55,
      "hit": false,
      "t": 79867.91692500097,
      "d": 157.6434750000044,
      "v": 74
    },
    {
      "midi": 46,
      "hit": false,
      "t": 80226.19755000099,
      "d": 242.03846666666504,
      "v": 71
    },
    {
      "midi": 70,
      "hit": false,
      "t": 80238.93641666765,
      "d": 609.8732416666753,
      "v": 90
    },
    {
      "midi": 79,
      "hit": false,
      "t": 80460.27422500099,
      "d": 210.19130000000587,
      "v": 70
    },
    {
      "midi": 53,
      "hit": false,
      "t": 80605.17883333431,
      "d": 156.0511166666838,
      "v": 71
    },
    {
      "midi": 62,
      "hit": false,
      "t": 80611.54826666765,
      "d": 157.6434750000044,
      "v": 68
    },
    {
      "midi": 80,
      "hit": false,
      "t": 80640.21071666766,
      "d": 289.80921666667564,
      "v": 83
    },
    {
      "midi": 79,
      "hit": false,
      "t": 80820.14720833433,
      "d": 261.14676666668674,
      "v": 72
    },
    {
      "midi": 58,
      "hit": false,
      "t": 80955.49766666767,
      "d": 124.20395000001008,
      "v": 80
    },
    {
      "midi": 62,
      "hit": false,
      "t": 80984.16011666767,
      "d": 103.50329166668234,
      "v": 46
    },
    {
      "midi": 68,
      "hit": false,
      "t": 81025.56143333434,
      "d": 324.8411000000051,
      "v": 74
    },
    {
      "midi": 77,
      "hit": false,
      "t": 81036.70794166767,
      "d": 297.77100833335135,
      "v": 91
    },
    {
      "midi": 51,
      "hit": false,
      "t": 81363.14140000101,
      "d": 243.6308250000002,
      "v": 77
    },
    {
      "midi": 58,
      "hit": false,
      "t": 81369.51083333435,
      "d": 304.1404416666628,
      "v": 70
    },
    {
      "midi": 75,
      "hit": false,
      "t": 81372.69555000102,
      "d": 167.19762499998615,
      "v": 80
    },
    {
      "midi": 63,
      "hit": false,
      "t": 81380.65734166768,
      "d": 277.0703499999945,
      "v": 72
    },
    {
      "midi": 67,
      "hit": false,
      "t": 81401.35800000101,
      "d": 116.24215833333437,
      "v": 56
    },
    {
      "midi": 75,
      "hit": false,
      "t": 81770.78513333434,
      "d": 93.9491416666715,
      "v": 77
    },
    {
      "midi": 75,
      "hit": false,
      "t": 81944.35219166768,
      "d": 57.32490000000689,
      "v": 67
    },
    {
      "midi": 75,
      "hit": false,
      "t": 82111.54981666768,
      "d": 105.09565000000293,
      "v": 64
    },
    {
      "midi": 61,
      "hit": false,
      "t": 82167.28235833436,
      "d": 130.5733833333361,
      "v": 74
    },
    {
      "midi": 51,
      "hit": false,
      "t": 82168.87471666769,
      "d": 135.35045833334152,
      "v": 70
    },
    {
      "midi": 55,
      "hit": false,
      "t": 82170.46707500103,
      "d": 128.98102500000095,
      "v": 65
    },
    {
      "midi": 75,
      "hit": false,
      "t": 82296.26338333436,
      "d": 108.28036666667322,
      "v": 61
    },
    {
      "midi": 75,
      "hit": false,
      "t": 82503.26996666769,
      "d": 93.94914166665694,
      "v": 52
    },
    {
      "midi": 44,
      "hit": false,
      "t": 82552.63307500102,
      "d": 347.134116666668,
      "v": 64
    },
    {
      "midi": 75,
      "hit": false,
      "t": 82691.16825000102,
      "d": 127.38866666666581,
      "v": 54
    },
    {
      "midi": 75,
      "hit": false,
      "t": 82914.0984166677,
      "d": 62.10197500001232,
      "v": 59
    },
    {
      "midi": 60,
      "hit": false,
      "t": 82930.02200000103,
      "d": 136.94281666667666,
      "v": 58
    },
    {
      "midi": 56,
      "hit": false,
      "t": 82942.7608666677,
      "d": 111.4650833333435,
      "v": 58
    },
    {
      "midi": 51,
      "hit": false,
      "t": 82945.94558333437,
      "d": 87.57970833334548,
      "v": 61
    },
    {
      "midi": 75,
      "hit": false,
      "t": 83071.74189166771,
      "d": 89.17206666666607,
      "v": 64
    },
    {
      "midi": 60,
      "hit": false,
      "t": 83296.2644166677,
      "d": 132.1657416666858,
      "v": 68
    },
    {
      "midi": 75,
      "hit": false,
      "t": 83297.85677500104,
      "d": 78.02555833334918,
      "v": 58
    },
    {
      "midi": 56,
      "hit": false,
      "t": 83315.37271666771,
      "d": 157.64347500001895,
      "v": 61
    },
    {
      "midi": 51,
      "hit": false,
      "t": 83331.29630000105,
      "d": 82.80263333334005,
      "v": 61
    },
    {
      "midi": 75,
      "hit": false,
      "t": 83471.4238333344,
      "d": 60.50961666666262,
      "v": 46
    },
    {
      "midi": 77,
      "hit": false,
      "t": 83680.02277500105,
      "d": 224.5225250000076,
      "v": 93
    },
    {
      "midi": 44,
      "hit": false,
      "t": 83683.20749166772,
      "d": 178.34413333333214,
      "v": 68
    },
    {
      "midi": 75,
      "hit": false,
      "t": 83887.02935833439,
      "d": 168.78998333333584,
      "v": 70
    },
    {
      "midi": 60,
      "hit": false,
      "t": 84068.55820833439,
      "d": 136.9428166666621,
      "v": 52
    },
    {
      "midi": 72,
      "hit": false,
      "t": 84070.15056666773,
      "d": 136.9428166666621,
      "v": 64
    },
    {
      "midi": 51,
      "hit": false,
      "t": 84073.3352833344,
      "d": 124.20394999999553,
      "v": 46
    },
    {
      "midi": 56,
      "hit": false,
      "t": 84081.29707500106,
      "d": 151.27404166666383,
      "v": 54
    },
    {
      "midi": 68,
      "hit": false,
      "t": 84256.45649166772,
      "d": 285.0321416666702,
      "v": 75
    },
    {
      "midi": 60,
      "hit": false,
      "t": 84441.17005833439,
      "d": 179.93649166666728,
      "v": 68
    },
    {
      "midi": 63,
      "hit": false,
      "t": 84441.17005833439,
      "d": 216.56073333333188,
      "v": 74
    },
    {
      "midi": 51,
      "hit": false,
      "t": 84458.68600000106,
      "d": 136.9428166666621,
      "v": 45
    },
    {
      "midi": 56,
      "hit": false,
      "t": 84466.64779166772,
      "d": 168.78998333333584,
      "v": 52
    },
    {
      "midi": 64,
      "hit": false,
      "t": 84630.66070000106,
      "d": 181.52885000000242,
      "v": 75
    },
    {
      "midi": 44,
      "hit": false,
      "t": 84826.52077500106,
      "d": 221.33780833332276,
      "v": 78
    },
    {
      "midi": 65,
      "hit": false,
      "t": 84828.1131333344,
      "d": 111.46508333332895,
      "v": 94
    },
    {
      "midi": 65,
      "hit": false,
      "t": 85023.97320833438,
      "d": 124.20394999999553,
      "v": 75
    },
    {
      "midi": 59,
      "hit": false,
      "t": 85199.13262500105,
      "d": 171.97470000000612,
      "v": 59
    },
    {
      "midi": 56,
      "hit": false,
      "t": 85219.83328333437,
      "d": 138.5351750000118,
      "v": 43
    },
    {
      "midi": 65,
      "hit": false,
      "t": 85224.61035833438,
      "d": 71.65612500000861,
      "v": 86
    },
    {
      "midi": 50,
      "hit": false,
      "t": 85238.94158333438,
      "d": 116.24215833333437,
      "v": 18
    },
    {
      "midi": 65,
      "hit": false,
      "t": 85401.36213333439,
      "d": 124.20394999999553,
      "v": 83
    },
    {
      "midi": 59,
      "hit": false,
      "t": 85570.15211666773,
      "d": 253.18497499999648,
      "v": 55
    },
    {
      "midi": 56,
      "hit": false,
      "t": 85584.48334166773,
      "d": 296.17865000000165,
      "v": 52
    },
    {
      "midi": 50,
      "hit": false,
      "t": 85597.2222083344,
      "d": 245.22318333333533,
      "v": 49
    },
    {
      "midi": 65,
      "hit": false,
      "t": 85598.81456666773,
      "d": 157.64347499998985,
      "v": 87
    },
    {
      "midi": 65,
      "hit": false,
      "t": 85794.67464166772,
      "d": 164.01290833334497,
      "v": 49
    },
    {
      "midi": 44,
      "hit": false,
      "t": 85968.24170000106,
      "d": 224.5225250000076,
      "v": 77
    },
    {
      "midi": 63,
      "hit": false,
      "t": 85995.31179166773,
      "d": 186.30592500000785,
      "v": 81
    },
    {
      "midi": 68,
      "hit": false,
      "t": 86189.5795083344,
      "d": 103.50329166666779,
      "v": 77
    },
    {
      "midi": 60,
      "hit": false,
      "t": 86337.6688333344,
      "d": 164.01290833333042,
      "v": 70
    },
    {
      "midi": 51,
      "hit": false,
      "t": 86355.18477500108,
      "d": 152.86639999999898,
      "v": 51
    },
    {
      "midi": 56,
      "hit": false,
      "t": 86356.77713333441,
      "d": 156.05111666666926,
      "v": 61
    },
    {
      "midi": 72,
      "hit": false,
      "t": 86366.33128333441,
      "d": 195.8600750000187,
      "v": 103
    },
    {
      "midi": 75,
      "hit": false,
      "t": 86530.34419166775,
      "d": 283.4397833333496,
      "v": 103
    },
    {
      "midi": 60,
      "hit": false,
      "t": 86719.83483333443,
      "d": 165.60526666666556,
      "v": 72
    },
    {
      "midi": 56,
      "hit": false,
      "t": 86727.7966250011,
      "d": 170.38234166667098,
      "v": 65
    },
    {
      "midi": 51,
      "hit": false,
      "t": 86730.98134166776,
      "d": 70.06376666667347,
      "v": 59
    },
    {
      "midi": 80,
      "hit": false,
      "t": 86732.5737000011,
      "d": 226.11488333332818,
      "v": 100
    },
    {
      "midi": 76,
      "hit": false,
      "t": 86925.24905833443,
      "d": 200.63715000000957,
      "v": 91
    },
    {
      "midi": 50,
      "hit": false,
      "t": 87092.44668333443,
      "d": 359.87298333333456,
      "v": 97
    },
    {
      "midi": 77,
      "hit": false,
      "t": 87119.5167750011,
      "d": 119.42687500000466,
      "v": 100
    },
    {
      "midi": 77,
      "hit": false,
      "t": 87312.19213333444,
      "d": 117.83451666666951,
      "v": 90
    },
    {
      "midi": 65,
      "hit": false,
      "t": 87485.75919166776,
      "d": 184.7135666666727,
      "v": 71
    },
    {
      "midi": 56,
      "hit": false,
      "t": 87490.53626666777,
      "d": 144.90460833333782,
      "v": 48
    },
    {
      "midi": 59,
      "hit": false,
      "t": 87508.05220833444,
      "d": 211.78365833332646,
      "v": 49
    },
    {
      "midi": 77,
      "hit": false,
      "t": 87511.23692500111,
      "d": 98.72621666666237,
      "v": 83
    },
    {
      "midi": 77,
      "hit": false,
      "t": 87697.5428500011,
      "d": 89.17206666666607,
      "v": 86
    },
    {
      "midi": 65,
      "hit": false,
      "t": 87848.81689166777,
      "d": 240.446108333359,
      "v": 84
    },
    {
      "midi": 56,
      "hit": false,
      "t": 87863.14811666777,
      "d": 149.68168333334324,
      "v": 68
    },
    {
      "midi": 59,
      "hit": false,
      "t": 87879.0717000011,
      "d": 165.6052666666801,
      "v": 65
    },
    {
      "midi": 77,
      "hit": false,
      "t": 87885.44113333445,
      "d": 85.98734999999579,
      "v": 75
    },
    {
      "midi": 77,
      "hit": false,
      "t": 88060.60055000112,
      "d": 85.98735000001034,
      "v": 70
    },
    {
      "midi": 51,
      "hit": false,
      "t": 88240.5370416678,
      "d": 426.75203333333775,
      "v": 100
    },
    {
      "midi": 77,
      "hit": false,
      "t": 88256.46062500114,
      "d": 119.4268749999901,
      "v": 109
    },
    {
      "midi": 79,
      "hit": false,
      "t": 88418.88117500114,
      "d": 136.9428166666621,
      "v": 67
    },
    {
      "midi": 77,
      "hit": false,
      "t": 88522.3844666678,
      "d": 121.0192333333398,
      "v": 91
    },
    {
      "midi": 60,
      "hit": false,
      "t": 88633.84955000113,
      "d": 165.6052666666801,
      "v": 55
    },
    {
      "midi": 75,
      "hit": false,
      "t": 88635.44190833447,
      "d": 179.93649166668183,
      "v": 72
    },
    {
      "midi": 63,
      "hit": false,
      "t": 88635.44190833447,
      "d": 214.9683750000113,
      "v": 68
    },
    {
      "midi": 68,
      "hit": false,
      "t": 88640.21898333447,
      "d": 184.7135666666727,
      "v": 54
    },
    {
      "midi": 80,
      "hit": false,
      "t": 88797.86245833448,
      "d": 242.03846666666504,
      "v": 78
    },
    {
      "midi": 84,
      "hit": false,
      "t": 89011.23847500114,
      "d": 124.20395000001008,
      "v": 102
    },
    {
      "midi": 68,
      "hit": false,
      "t": 89023.9773416678,
      "d": 208.59894166667073,
      "v": 71
    },
    {
      "midi": 60,
      "hit": false,
      "t": 89039.90092500114,
      "d": 285.0321416666702,
      "v": 65
    },
    {
      "midi": 63,
      "hit": false,
      "t": 89044.67800000115,
      "d": 286.62450000000536,
      "v": 59
    },
    {
      "midi": 51,
      "hit": false,
      "t": 89394.99683333449,
      "d": 302.54808333332767,
      "v": 72
    },
    {
      "midi": 89,
      "hit": false,
      "t": 89406.14334166782,
      "d": 477.7074999999895,
      "v": 113
    },
    {
      "midi": 63,
      "hit": false,
      "t": 89781.93990833448,
      "d": 183.121208333323,
      "v": 62
    },
    {
      "midi": 67,
      "hit": false,
      "t": 89793.08641666781,
      "d": 90.76442500000121,
      "v": 52
    },
    {
      "midi": 61,
      "hit": false,
      "t": 89793.08641666781,
      "d": 136.9428166666621,
      "v": 67
    },
    {
      "midi": 87,
      "hit": false,
      "t": 89810.60235833448,
      "d": 229.2995999999839,
      "v": 90
    },
    {
      "midi": 85,
      "hit": false,
      "t": 89979.3923416678,
      "d": 179.93649166666728,
      "v": 77
    },
    {
      "midi": 67,
      "hit": false,
      "t": 90170.4753416678,
      "d": 154.45875833334867,
      "v": 67
    },
    {
      "midi": 61,
      "hit": false,
      "t": 90170.4753416678,
      "d": 210.19130000002042,
      "v": 58
    },
    {
      "midi": 63,
      "hit": false,
      "t": 90173.66005833447,
      "d": 240.44610833334445,
      "v": 59
    },
    {
      "midi": 79,
      "hit": false,
      "t": 90180.02949166781,
      "d": 326.43345833334024,
      "v": 74
    },
    {
      "midi": 56,
      "hit": false,
      "t": 90563.78785000116,
      "d": 179.93649166666728,
      "v": 83
    },
    {
      "midi": 82,
      "hit": false,
      "t": 90574.93435833449,
      "d": 398.08958333334886,
      "v": 94
    },
    {
      "midi": 68,
      "hit": false,
      "t": 90925.25319166783,
      "d": 160.82819166668924,
      "v": 62
    },
    {
      "midi": 80,
      "hit": false,
      "t": 90930.03026666783,
      "d": 202.22950833335926,
      "v": 75
    },
    {
      "midi": 63,
      "hit": false,
      "t": 90933.2149833345,
      "d": 183.12120833335212,
      "v": 67
    },
    {
      "midi": 60,
      "hit": false,
      "t": 90944.36149166783,
      "d": 136.94281666667666,
      "v": 45
    },
    {
      "midi": 75,
      "hit": false,
      "t": 91113.15147500118,
      "d": 226.11488333335728,
      "v": 75
    },
    {
      "midi": 68,
      "hit": false,
      "t": 91304.2344750012,
      "d": 106.68800833333808,
      "v": 71
    },
    {
      "midi": 72,
      "hit": false,
      "t": 91310.60390833454,
      "d": 278.6627083333151,
      "v": 90
    },
    {
      "midi": 60,
      "hit": false,
      "t": 91316.97334166788,
      "d": 133.75809999997728,
      "v": 64
    },
    {
      "midi": 63,
      "hit": false,
      "t": 91329.71220833455,
      "d": 113.05744166664954,
      "v": 59
    },
    {
      "midi": 44,
      "hit": false,
      "t": 91686.40047500118,
      "d": 359.8729833333491,
      "v": 77
    },
    {
      "midi": 75,
      "hit": false,
      "t": 91734.17122500119,
      "d": 106.68800833333808,
      "v": 64
    },
    {
      "midi": 75,
      "hit": false,
      "t": 91926.84658333453,
      "d": 105.09565000000293,
      "v": 78
    },
    {
      "midi": 60,
      "hit": false,
      "t": 92066.97411666786,
      "d": 146.49696666667296,
      "v": 65
    },
    {
      "midi": 51,
      "hit": false,
      "t": 92078.12062500119,
      "d": 148.0893250000081,
      "v": 52
    },
    {
      "midi": 56,
      "hit": false,
      "t": 92089.26713333452,
      "d": 170.38234166667098,
      "v": 59
    },
    {
      "midi": 75,
      "hit": false,
      "t": 92121.1143000012,
      "d": 97.13385833334178,
      "v": 68
    },
    {
      "midi": 75,
      "hit": false,
      "t": 92305.82786666785,
      "d": 49.36310833333118,
      "v": 81
    },
    {
      "midi": 75,
      "hit": false,
      "t": 92449.14011666786,
      "d": 55.7325416666572,
      "v": 59
    },
    {
      "midi": 60,
      "hit": false,
      "t": 92457.10190833452,
      "d": 358.2806249999994,
      "v": 72
    },
    {
      "midi": 51,
      "hit": false,
      "t": 92460.28662500119,
      "d": 326.4334583333257,
      "v": 64
    },
    {
      "midi": 56,
      "hit": false,
      "t": 92471.43313333452,
      "d": 343.9493999999977,
      "v": 68
    },
    {
      "midi": 75,
      "hit": false,
      "t": 92629.07660833451,
      "d": 154.45875833333412,
      "v": 77
    },
    {
      "midi": 77,
      "hit": false,
      "t": 92823.34432500118,
      "d": 251.59261666666134,
      "v": 93
    },
    {
      "midi": 44,
      "hit": false,
      "t": 92832.89847500117,
      "d": 313.6945916666591,
      "v": 93
    },
    {
      "midi": 75,
      "hit": false,
      "t": 93036.72034166784,
      "d": 154.45875833333412,
      "v": 84
    },
    {
      "midi": 72,
      "hit": false,
      "t": 93199.14089166783,
      "d": 143.31225000000268,
      "v": 72
    },
    {
      "midi": 60,
      "hit": false,
      "t": 93202.3256083345,
      "d": 167.1976250000007,
      "v": 74
    },
    {
      "midi": 51,
      "hit": false,
      "t": 93210.28740000117,
      "d": 128.98102500000095,
      "v": 64
    },
    {
      "midi": 56,
      "hit": false,
      "t": 93218.24919166783,
      "d": 181.52885000000242,
      "v": 67
    },
    {
      "midi": 68,
      "hit": false,
      "t": 93391.81625000117,
      "d": 281.8474249999854,
      "v": 86
    },
    {
      "midi": 63,
      "hit": false,
      "t": 93589.26868333449,
      "d": 216.56073333331733,
      "v": 77
    },
    {
      "midi": 60,
      "hit": false,
      "t": 93597.23047500115,
      "d": 205.4142249999859,
      "v": 49
    },
    {
      "midi": 51,
      "hit": false,
      "t": 93605.19226666781,
      "d": 187.89828333332844,
      "v": 49
    },
    {
      "midi": 56,
      "hit": false,
      "t": 93616.33877500115,
      "d": 194.267716666669,
      "v": 64
    },
    {
      "midi": 64,
      "hit": false,
      "t": 93772.38989166782,
      "d": 187.89828333332844,
      "v": 94
    },
    {
      "midi": 65,
      "hit": false,
      "t": 93987.35826666781,
      "d": 101.9109333333181,
      "v": 94
    },
    {
      "midi": 44,
      "hit": false,
      "t": 93995.32005833447,
      "d": 235.66903333332448,
      "v": 86
    },
    {
      "midi": 65,
      "hit": false,
      "t": 94165.70240000113,
      "d": 138.53517499999725,
      "v": 75
    },
    {
      "midi": 59,
      "hit": false,
      "t": 94363.15483333445,
      "d": 165.6052666666801,
      "v": 71
    },
    {
      "midi": 65,
      "hit": false,
      "t": 94375.89370000112,
      "d": 85.98735000001034,
      "v": 91
    },
    {
      "midi": 56,
      "hit": false,
      "t": 94379.07841666779,
      "d": 168.7899833333504,
      "v": 62
    },
    {
      "midi": 50,
      "hit": false,
      "t": 94380.67077500113,
      "d": 136.94281666667666,
      "v": 56
    },
    {
      "midi": 65,
      "hit": false,
      "t": 94570.1614166678,
      "d": 68.47140833333833,
      "v": 67
    },
    {
      "midi": 59,
      "hit": false,
      "t": 94740.54375833448,
      "d": 192.67535833333386,
      "v": 72
    },
    {
      "midi": 65,
      "hit": false,
      "t": 94751.6902666678,
      "d": 128.98102500000095,
      "v": 67
    },
    {
      "midi": 56,
      "hit": false,
      "t": 94761.2444166678,
      "d": 272.29327500000363,
      "v": 68
    },
    {
      "midi": 50,
      "hit": false,
      "t": 94772.39092500113,
      "d": 202.2295083333447,
      "v": 61
    },
    {
      "midi": 65,
      "hit": false,
      "t": 94965.06628333448,
      "d": 203.8218666666653,
      "v": 75
    },
    {
      "midi": 44,
      "hit": false,
      "t": 95141.81805833448,
      "d": 257.9620500000019,
      "v": 96
    },
    {
      "midi": 63,
      "hit": false,
      "t": 95165.70343333448,
      "d": 183.12120833333756,
      "v": 83
    },
    {
      "midi": 68,
      "hit": false,
      "t": 95347.23228333448,
      "d": 121.0192333333398,
      "v": 77
    },
    {
      "midi": 60,
      "hit": false,
      "t": 95492.13689166782,
      "d": 162.42054999999527,
      "v": 81
    },
    {
      "midi": 51,
      "hit": false,
      "t": 95504.87575833448,
      "d": 128.98102500000095,
      "v": 72
    },
    {
      "midi": 56,
      "hit": false,
      "t": 95509.65283333449,
      "d": 171.97469999999157,
      "v": 75
    },
    {
      "midi": 72,
      "hit": false,
      "t": 95533.53820833449,
      "d": 208.59894166665617,
      "v": 97
    },
    {
      "midi": 75,
      "hit": false,
      "t": 95708.69762500115,
      "d": 251.5926166666759,
      "v": 102
    },
    {
      "midi": 60,
      "hit": false,
      "t": 95887.04175833448,
      "d": 202.2295083333447,
      "v": 67
    },
    {
      "midi": 51,
      "hit": false,
      "t": 95895.00355000114,
      "d": 108.28036666668777,
      "v": 65
    },
    {
      "midi": 80,
      "hit": false,
      "t": 95899.78062500115,
      "d": 216.56073333334643,
      "v": 102
    },
    {
      "midi": 56,
      "hit": false,
      "t": 95902.96534166782,
      "d": 171.97470000000612,
      "v": 68
    },
    {
      "midi": 76,
      "hit": false,
      "t": 96084.49419166782,
      "d": 194.267716666669,
      "v": 96
    },
    {
      "midi": 50,
      "hit": false,
      "t": 96288.31605833449,
      "d": 415.6055250000063,
      "v": 108
    },
    {
      "midi": 77,
      "hit": false,
      "t": 96291.50077500116,
      "d": 122.61159166667494,
      "v": 103
    },
    {
      "midi": 77,
      "hit": false,
      "t": 96479.3990583345,
      "d": 130.5733833333361,
      "v": 97
    },
    {
      "midi": 65,
      "hit": false,
      "t": 96673.66677500117,
      "d": 192.6753583333193,
      "v": 74
    },
    {
      "midi": 56,
      "hit": false,
      "t": 96683.22092500117,
      "d": 138.5351749999827,
      "v": 55
    },
    {
      "midi": 59,
      "hit": false,
      "t": 96691.18271666783,
      "d": 211.783658333341,
      "v": 67
    },
    {
      "midi": 77,
      "hit": false,
      "t": 96694.3674333345,
      "d": 119.4268749999901,
      "v": 90
    },
    {
      "midi": 77,
      "hit": false,
      "t": 96885.4504333345,
      "d": 95.54150000000664,
      "v": 87
    },
    {
      "midi": 65,
      "hit": false,
      "t": 97035.13211666784,
      "d": 226.11488333334273,
      "v": 84
    },
    {
      "midi": 56,
      "hit": false,
      "t": 97052.64805833451,
      "d": 165.60526666666556,
      "v": 64
    },
    {
      "midi": 59,
      "hit": false,
      "t": 97068.57164166785,
      "d": 192.67535833333386,
      "v": 67
    },
    {
      "midi": 77,
      "hit": false,
      "t": 97078.12579166784,
      "d": 113.05744166666409,
      "v": 80
    },
    {
      "midi": 77,
      "hit": false,
      "t": 97258.06228333451,
      "d": 113.05744166666409,
      "v": 80
    },
    {
      "midi": 51,
      "hit": false,
      "t": 97425.25990833451,
      "d": 705.4147416666965,
      "v": 106
    },
    {
      "midi": 77,
      "hit": false,
      "t": 97447.55292500118,
      "d": 143.31225000000268,
      "v": 115
    },
    {
      "midi": 79,
      "hit": false,
      "t": 97616.34290833451,
      "d": 148.0893250000081,
      "v": 68
    },
    {
      "midi": 77,
      "hit": false,
      "t": 97707.10733333451,
      "d": 156.05111666669836,
      "v": 86
    },
    {
      "midi": 56,
      "hit": false,
      "t": 97820.16477500119,
      "d": 143.31225000001723,
      "v": 59
    },
    {
      "midi": 60,
      "hit": false,
      "t": 97832.90364166786,
      "d": 194.26771666668355,
      "v": 68
    },
    {
      "midi": 75,
      "hit": false,
      "t": 97850.41958333453,
      "d": 181.52885000001697,
      "v": 81
    },
    {
      "midi": 63,
      "hit": false,
      "t": 97856.78901666787,
      "d": 171.97470000000612,
      "v": 40
    },
    {
      "midi": 80,
      "hit": false,
      "t": 98012.84013333454,
      "d": 229.29960000001302,
      "v": 78
    },
    {
      "midi": 63,
      "hit": false,
      "t": 98186.40719166788,
      "d": 369.4271333333454,
      "v": 67
    },
    {
      "midi": 56,
      "hit": false,
      "t": 98191.18426666789,
      "d": 345.54175833333284,
      "v": 56
    },
    {
      "midi": 60,
      "hit": false,
      "t": 98194.36898333456,
      "d": 326.4334583333257,
      "v": 64
    },
    {
      "midi": 84,
      "hit": false,
      "t": 98218.25435833455,
      "d": 124.20394999999553,
      "v": 108
    },
    {
      "midi": 51,
      "hit": false,
      "t": 98571.75790833456,
      "d": 738.8542666667054,
      "v": 103
    },
    {
      "midi": 89,
      "hit": false,
      "t": 98598.82800000123,
      "d": 471.33806666667806,
      "v": 116
    },
    {
      "midi": 63,
      "hit": false,
      "t": 98968.25513333456,
      "d": 140.1275333333615,
      "v": 64
    },
    {
      "midi": 58,
      "hit": false,
      "t": 98971.43985000123,
      "d": 117.83451666668407,
      "v": 65
    },
    {
      "midi": 61,
      "hit": false,
      "t": 98984.1787166679,
      "d": 101.9109333333472,
      "v": 64
    },
    {
      "midi": 87,
      "hit": false,
      "t": 98990.54815000124,
      "d": 250.0002583333553,
      "v": 96
    },
    {
      "midi": 85,
      "hit": false,
      "t": 99149.7839833346,
      "d": 213.37601666667615,
      "v": 87
    },
    {
      "midi": 58,
      "hit": false,
      "t": 99329.72047500128,
      "d": 205.41422500000044,
      "v": 71
    },
    {
      "midi": 63,
      "hit": false,
      "t": 99329.72047500128,
      "d": 218.15309166666702,
      "v": 58
    },
    {
      "midi": 61,
      "hit": false,
      "t": 99339.27462500127,
      "d": 192.67535833333386,
      "v": 65
    },
    {
      "midi": 79,
      "hit": false,
      "t": 99352.01349166794,
      "d": 423.567316666682,
      "v": 87
    },
    {
      "midi": 44,
      "hit": false,
      "t": 99724.62534166794,
      "d": 410.82845000001544,
      "v": 93
    },
    {
      "midi": 80,
      "hit": false,
      "t": 99754.88015000128,
      "d": 480.89221666667436,
      "v": 103
    },
    {
      "midi": 60,
      "hit": false,
      "t": 100125.89964166796,
      "d": 141.71989166665298,
      "v": 71
    },
    {
      "midi": 51,
      "hit": false,
      "t": 100133.86143333462,
      "d": 111.46508333332895,
      "v": 67
    },
    {
      "midi": 72,
      "hit": false,
      "t": 100539.91280833461,
      "d": 380.57364166667685,
      "v": 113
    },
    {
      "midi": 70,
      "hit": false,
      "t": 100904.56286666795,
      "d": 363.05770000000484,
      "v": 106
    },
    {
      "midi": 58,
      "hit": false,
      "t": 100917.30173333462,
      "d": 106.68800833333808,
      "v": 125
    },
    {
      "midi": 46,
      "hit": false,
      "t": 100920.48645000129,
      "d": 111.46508333332895,
      "v": 114
    },
    {
      "midi": 58,
      "hit": false,
      "t": 101281.95179166796,
      "d": 144.90460833333782,
      "v": 77
    },
    {
      "midi": 68,
      "hit": false,
      "t": 101294.69065833463,
      "d": 132.16574166667124,
      "v": 65
    },
    {
      "midi": 74,
      "hit": false,
      "t": 101297.8753750013,
      "d": 173.56705833334127,
      "v": 112
    },
    {
      "midi": 65,
      "hit": false,
      "t": 101315.39131666797,
      "d": 171.97470000000612,
      "v": 84
    },
    {
      "midi": 75,
      "hit": false,
      "t": 101457.11120833464,
      "d": 230.89195833334816,
      "v": 100
    },
    {
      "midi": 74,
      "hit": false,
      "t": 101646.60185000132,
      "d": 222.93016666667245,
      "v": 96
    },
    {
      "midi": 77,
      "hit": false,
      "t": 101657.74835833465,
      "d": 160.82819166667468,
      "v": 91
    },
    {
      "midi": 68,
      "hit": false,
      "t": 101659.34071666798,
      "d": 135.35045833334152,
      "v": 75
    },
    {
      "midi": 58,
      "hit": false,
      "t": 101665.71015000132,
      "d": 136.9428166666621,
      "v": 83
    },
    {
      "midi": 65,
      "hit": false,
      "t": 101678.44901666799,
      "d": 138.53517499999725,
      "v": 86
    },
    {
      "midi": 70,
      "hit": false,
      "t": 102030.36020833465,
      "d": 323.2487416666554,
      "v": 102
    },
    {
      "midi": 51,
      "hit": false,
      "t": 102038.32200000131,
      "d": 154.45875833333412,
      "v": 116
    },
    {
      "midi": 67,
      "hit": false,
      "t": 102406.1567750013,
      "d": 106.68800833333808,
      "v": 78
    },
    {
      "midi": 58,
      "hit": false,
      "t": 102407.74913333464,
      "d": 116.24215833333437,
      "v": 67
    },
    {
      "midi": 75,
      "hit": false,
      "t": 102412.52620833465,
      "d": 183.12120833333756,
      "v": 83
    },
    {
      "midi": 63,
      "hit": false,
      "t": 102420.4880000013,
      "d": 157.6434750000044,
      "v": 72
    },
    {
      "midi": 77,
      "hit": false,
      "t": 102563.80025000131,
      "d": 259.5544083333516,
      "v": 93
    },
    {
      "midi": 79,
      "hit": false,
      "t": 102764.43740000132,
      "d": 417.19788333334145,
      "v": 97
    },
    {
      "midi": 75,
      "hit": false,
      "t": 102772.39919166798,
      "d": 364.65005833334,
      "v": 89
    },
    {
      "midi": 67,
      "hit": false,
      "t": 102778.76862500132,
      "d": 156.05111666666926,
      "v": 84
    },
    {
      "midi": 58,
      "hit": false,
      "t": 102783.54570000133,
      "d": 128.98102500000095,
      "v": 80
    },
    {
      "midi": 63,
      "hit": false,
      "t": 102783.54570000133,
      "d": 218.15309166666702,
      "v": 75
    },
    {
      "midi": 70,
      "hit": false,
      "t": 103138.64160833466,
      "d": 133.75810000000638,
      "v": 93
    },
    {
      "midi": 50,
      "hit": false,
      "t": 103164.11934166799,
      "d": 141.71989166666754,
      "v": 115
    },
    {
      "midi": 68,
      "hit": false,
      "t": 103554.24713333466,
      "d": 149.6816833333578,
      "v": 83
    },
    {
      "midi": 77,
      "hit": false,
      "t": 103560.616566668,
      "d": 214.96837500002584,
      "v": 94
    },
    {
      "midi": 58,
      "hit": false,
      "t": 103562.20892500134,
      "d": 135.35045833334152,
      "v": 77
    },
    {
      "midi": 65,
      "hit": false,
      "t": 103576.54015000134,
      "d": 194.26771666668355,
      "v": 90
    },
    {
      "midi": 79,
      "hit": false,
      "t": 103740.55305833468,
      "d": 242.0384666666796,
      "v": 99
    },
    {
      "midi": 68,
      "hit": false,
      "t": 103917.3048333347,
      "d": 135.35045833334152,
      "v": 89
    },
    {
      "midi": 80,
      "hit": false,
      "t": 103918.89719166803,
      "d": 423.567316666682,
      "v": 102
    },
    {
      "midi": 65,
      "hit": false,
      "t": 103923.67426666804,
      "d": 178.34413333333214,
      "v": 103
    },
    {
      "midi": 77,
      "hit": false,
      "t": 103923.67426666804,
      "d": 442.6756166666746,
      "v": 108
    },
    {
      "midi": 58,
      "hit": false,
      "t": 103931.6360583347,
      "d": 132.16574166667124,
      "v": 91
    },
    {
      "midi": 82,
      "hit": false,
      "t": 104304.2479083347,
      "d": 428.3443916666729,
      "v": 99
    },
    {
      "midi": 51,
      "hit": false,
      "t": 104305.84026666803,
      "d": 170.38234166667098,
      "v": 108
    },
    {
      "midi": 79,
      "hit": false,
      "t": 104310.61734166804,
      "d": 366.2424166666606,
      "v": 103
    },
    {
      "midi": 73,
      "hit": false,
      "t": 104313.80205833471,
      "d": 449.04505000000063,
      "v": 93
    },
    {
      "midi": 67,
      "hit": false,
      "t": 104694.37570000137,
      "d": 105.09565000000293,
      "v": 84
    },
    {
      "midi": 58,
      "hit": false,
      "t": 104699.15277500138,
      "d": 114.64979999999923,
      "v": 83
    },
    {
      "midi": 61,
      "hit": false,
      "t": 104711.89164166804,
      "d": 152.86639999999898,
      "v": 83
    },
    {
      "midi": 82,
      "hit": false,
      "t": 105089.28056666804,
      "d": 93.9491416666715,
      "v": 68
    },
    {
      "midi": 73,
      "hit": false,
      "t": 105092.4652833347,
      "d": 71.65612500000861,
      "v": 62
    },
    {
      "midi": 52,
      "hit": false,
      "t": 105097.24235833471,
      "d": 393.3125083332998,
      "v": 68
    },
    {
      "midi": 79,
      "hit": false,
      "t": 105102.01943333472,
      "d": 73.2484833333292,
      "v": 64
    },
    {
      "midi": 73,
      "hit": false,
      "t": 105254.8858333347,
      "d": 70.06376666665892,
      "v": 71
    },
    {
      "midi": 79,
      "hit": false,
      "t": 105267.62470000137,
      "d": 82.8026333333255,
      "v": 67
    },
    {
      "midi": 82,
      "hit": false,
      "t": 105289.91771666803,
      "d": 42.99367499999062,
      "v": 17
    },
    {
      "midi": 82,
      "hit": false,
      "t": 105447.56119166802,
      "d": 402.8666583333252,
      "v": 64
    },
    {
      "midi": 79,
      "hit": false,
      "t": 105466.66949166801,
      "d": 585.9878666666773,
      "v": 51
    },
    {
      "midi": 73,
      "hit": false,
      "t": 105474.63128333467,
      "d": 611.465600000025,
      "v": 64
    },
    {
      "midi": 53,
      "hit": false,
      "t": 105500.10901666801,
      "d": 132.16574166667124,
      "v": 61
    },
    {
      "midi": 65,
      "hit": false,
      "t": 105855.20492500135,
      "d": 106.68800833333808,
      "v": 54
    },
    {
      "midi": 56,
      "hit": false,
      "t": 105867.94379166802,
      "d": 106.68800833333808,
      "v": 59
    },
    {
      "midi": 84,
      "hit": false,
      "t": 105898.19860000136,
      "d": 269.1085583333479,
      "v": 67
    },
    {
      "midi": 82,
      "hit": false,
      "t": 106055.84207500136,
      "d": 245.22318333334988,
      "v": 62
    },
    {
      "midi": 44,
      "hit": false,
      "t": 106234.18620833471,
      "d": 445.8603333333449,
      "v": 64
    },
    {
      "midi": 80,
      "hit": false,
      "t": 106240.55564166805,
      "d": 167.1976250000007,
      "v": 86
    },
    {
      "midi": 72,
      "hit": false,
      "t": 106254.88686666805,
      "d": 149.6816833333287,
      "v": 74
    },
    {
      "midi": 46,
      "hit": false,
      "t": 106629.09107500139,
      "d": 197.4524333333393,
      "v": 75
    },
    {
      "midi": 80,
      "hit": false,
      "t": 106638.64522500138,
      "d": 378.9812833333417,
      "v": 83
    },
    {
      "midi": 71,
      "hit": false,
      "t": 106648.19937500138,
      "d": 517.516458333339,
      "v": 77
    },
    {
      "midi": 63,
      "hit": false,
      "t": 106988.96405833472,
      "d": 154.45875833333412,
      "v": 75
    },
    {
      "midi": 82,
      "hit": false,
      "t": 107012.84943333472,
      "d": 307.3251583333331,
      "v": 74
    },
    {
      "midi": 55,
      "hit": false,
      "t": 107027.18065833472,
      "d": 127.38866666666581,
      "v": 54
    },
    {
      "midi": 80,
      "hit": false,
      "t": 107175.26998333471,
      "d": 240.44610833334445,
      "v": 75
    },
    {
      "midi": 79,
      "hit": false,
      "t": 107358.39119166805,
      "d": 195.86007500000414,
      "v": 90
    },
    {
      "midi": 70,
      "hit": false,
      "t": 107363.16826666806,
      "d": 136.9428166666621,
      "v": 71
    },
    {
      "midi": 63,
      "hit": false,
      "t": 107366.35298333473,
      "d": 135.35045833332697,
      "v": 74
    },
    {
      "midi": 55,
      "hit": false,
      "t": 107382.27656666806,
      "d": 167.19762499998615,
      "v": 71
    },
    {
      "midi": 46,
      "hit": false,
      "t": 107743.74190833472,
      "d": 183.12120833333756,
      "v": 90
    },
    {
      "midi": 70,
      "hit": false,
      "t": 107748.51898333472,
      "d": 584.3955083333276,
      "v": 83
    },
    {
      "midi": 79,
      "hit": false,
      "t": 107751.7037000014,
      "d": 385.35071666665317,
      "v": 83
    },
    {
      "midi": 62,
      "hit": false,
      "t": 108121.13083333473,
      "d": 138.5351749999827,
      "v": 75
    },
    {
      "midi": 53,
      "hit": false,
      "t": 108129.09262500139,
      "d": 173.5670583333267,
      "v": 68
    },
    {
      "midi": 80,
      "hit": false,
      "t": 108146.60856666804,
      "d": 347.13411666668253,
      "v": 70
    },
    {
      "midi": 79,
      "hit": false,
      "t": 108339.2839250014,
      "d": 222.93016666667245,
      "v": 54
    },
    {
      "midi": 68,
      "hit": false,
      "t": 108509.66626666806,
      "d": 144.90460833333782,
      "v": 77
    },
    {
      "midi": 58,
      "hit": false,
      "t": 108509.66626666806,
      "d": 170.38234166667098,
      "v": 70
    },
    {
      "midi": 62,
      "hit": false,
      "t": 108514.44334166807,
      "d": 175.15941666666185,
      "v": 64
    },
    {
      "midi": 77,
      "hit": false,
      "t": 108522.40513333473,
      "d": 156.05111666666926,
      "v": 87
    },
    {
      "midi": 77,
      "hit": false,
      "t": 108899.79405833474,
      "d": 385.3507166666677,
      "v": 94
    },
    {
      "midi": 51,
      "hit": false,
      "t": 108906.16349166808,
      "d": 523.885891666665,
      "v": 109
    },
    {
      "midi": 68,
      "hit": false,
      "t": 108920.49471666808,
      "d": 514.3317416666687,
      "v": 65
    },
    {
      "midi": 63,
      "hit": false,
      "t": 109283.55241666807,
      "d": 159.23583333333954,
      "v": 71
    },
    {
      "midi": 58,
      "hit": false,
      "t": 109291.51420833475,
      "d": 143.31225000000268,
      "v": 70
    },
    {
      "midi": 79,
      "hit": false,
      "t": 109299.4760000014,
      "d": 250.00025833334075,
      "v": 86
    },
    {
      "midi": 77,
      "hit": false,
      "t": 109457.11947500141,
      "d": 250.0002583333262,
      "v": 83
    },
    {
      "midi": 63,
      "hit": false,
      "t": 109660.94134166808,
      "d": 132.16574166667124,
      "v": 71
    },
    {
      "midi": 75,
      "hit": false,
      "t": 109662.53370000141,
      "d": 308.9175166666828,
      "v": 87
    },
    {
      "midi": 58,
      "hit": false,
      "t": 109683.23435833474,
      "d": 81.21027500000491,
      "v": 72
    },
    {
      "midi": 67,
      "hit": false,
      "t": 109684.82671666807,
      "d": 280.25506666667934,
      "v": 65
    },
    {
      "midi": 70,
      "hit": false,
      "t": 110039.92262500143,
      "d": 210.19130000000587,
      "v": 83
    },
    {
      "midi": 46,
      "hit": false,
      "t": 110043.1073416681,
      "d": 484.07693333334464,
      "v": 68
    },
    {
      "midi": 74,
      "hit": false,
      "t": 110245.33685000143,
      "d": 191.08300000001327,
      "v": 89
    },
    {
      "midi": 75,
      "hit": false,
      "t": 110399.79560833477,
      "d": 183.12120833335212,
      "v": 84
    },
    {
      "midi": 58,
      "hit": false,
      "t": 110431.64277500144,
      "d": 128.98102500000095,
      "v": 48
    },
    {
      "midi": 68,
      "hit": false,
      "t": 110434.82749166811,
      "d": 130.5733833333361,
      "v": 42
    },
    {
      "midi": 65,
      "hit": false,
      "t": 110477.82116666812,
      "d": 113.05744166666409,
      "v": 36
    },
    {
      "midi": 76,
      "hit": false,
      "t": 110560.62380000144,
      "d": 261.1467666666722,
      "v": 84
    },
    {
      "midi": 74,
      "hit": false,
      "t": 110791.51575833478,
      "d": 390.1277916666877,
      "v": 97
    },
    {
      "midi": 68,
      "hit": false,
      "t": 110799.47755000144,
      "d": 138.5351750000118,
      "v": 70
    },
    {
      "midi": 77,
      "hit": false,
      "t": 110804.25462500144,
      "d": 323.2487416666845,
      "v": 77
    },
    {
      "midi": 65,
      "hit": false,
      "t": 110821.77056666811,
      "d": 146.49696666667296,
      "v": 70
    },
    {
      "midi": 58,
      "hit": false,
      "t": 110826.54764166812,
      "d": 127.38866666666581,
      "v": 43
    },
    {
      "midi": 51,
      "hit": false,
      "t": 111175.27411666812,
      "d": 253.18497500001104,
      "v": 102
    },
    {
      "midi": 70,
      "hit": false,
      "t": 111188.0129833348,
      "d": 238.85374999999476,
      "v": 106
    },
    {
      "midi": 74,
      "hit": false,
      "t": 111406.16607500147,
      "d": 235.66903333332448,
      "v": 100
    },
    {
      "midi": 67,
      "hit": false,
      "t": 111552.66304166813,
      "d": 106.68800833333808,
      "v": 71
    },
    {
      "midi": 75,
      "hit": false,
      "t": 111555.8477583348,
      "d": 216.56073333333188,
      "v": 93
    },
    {
      "midi": 58,
      "hit": false,
      "t": 111566.99426666813,
      "d": 103.50329166666779,
      "v": 52
    },
    {
      "midi": 63,
      "hit": false,
      "t": 111574.95605833479,
      "d": 151.2740416666784,
      "v": 68
    },
    {
      "midi": 77,
      "hit": false,
      "t": 111726.23010000147,
      "d": 278.66270833332965,
      "v": 87
    },
    {
      "midi": 67,
      "hit": false,
      "t": 111926.86725000147,
      "d": 160.82819166666013,
      "v": 74
    },
    {
      "midi": 79,
      "hit": false,
      "t": 111926.86725000147,
      "d": 369.42713333333086,
      "v": 94
    },
    {
      "midi": 63,
      "hit": false,
      "t": 111938.0137583348,
      "d": 216.56073333333188,
      "v": 75
    },
    {
      "midi": 58,
      "hit": false,
      "t": 111939.60611666813,
      "d": 140.1275333333324,
      "v": 75
    },
    {
      "midi": 75,
      "hit": false,
      "t": 111947.5679083348,
      "d": 396.49722499999916,
      "v": 106
    },
    {
      "midi": 50,
      "hit": false,
      "t": 112310.6256083348,
      "d": 434.7138249999989,
      "v": 118
    },
    {
      "midi": 70,
      "hit": false,
      "t": 112323.36447500146,
      "d": 278.66270833332965,
      "v": 108
    },
    {
      "midi": 76,
      "hit": false,
      "t": 112524.00162500146,
      "d": 272.29327500000363,
      "v": 94
    },
    {
      "midi": 68,
      "hit": false,
      "t": 112695.97632500147,
      "d": 141.71989166666754,
      "v": 87
    },
    {
      "midi": 58,
      "hit": false,
      "t": 112697.5686833348,
      "d": 114.64979999999923,
      "v": 93
    },
    {
      "midi": 65,
      "hit": false,
      "t": 112702.3457583348,
      "d": 203.8218666666653,
      "v": 103
    },
    {
      "midi": 77,
      "hit": false,
      "t": 112710.30755000147,
      "d": 248.4079000000056,
      "v": 108
    },
    {
      "midi": 79,
      "hit": false,
      "t": 112879.0975333348,
      "d": 310.5098750000034,
      "v": 97
    },
    {
      "midi": 80,
      "hit": false,
      "t": 113073.36525000147,
      "d": 331.21053333334567,
      "v": 106
    },
    {
      "midi": 68,
      "hit": false,
      "t": 113074.95760833481,
      "d": 144.90460833333782,
      "v": 87
    },
    {
      "midi": 65,
      "hit": false,
      "t": 113081.32704166815,
      "d": 181.52885000000242,
      "v": 110
    },
    {
      "midi": 58,
      "hit": false,
      "t": 113082.91940000148,
      "d": 162.42054999999527,
      "v": 103
    },
    {
      "midi": 77,
      "hit": false,
      "t": 113092.47355000148,
      "d": 318.4716666666791,
      "v": 121
    },
    {
      "midi": 51,
      "hit": false,
      "t": 113453.93889166816,
      "d": 412.4208083333506,
      "v": 113
    },
    {
      "midi": 82,
      "hit": false,
      "t": 113460.3083250015,
      "d": 418.7902416666766,
      "v": 110
    },
    {
      "midi": 79,
      "hit": false,
      "t": 113468.27011666817,
      "d": 460.1915583333466,
      "v": 106
    },
    {
      "midi": 73,
      "hit": false,
      "t": 113473.04719166817,
      "d": 511.14702500001295,
      "v": 103
    },
    {
      "midi": 67,
      "hit": false,
      "t": 113836.10489166818,
      "d": 95.54150000000664,
      "v": 90
    },
    {
      "midi": 58,
      "hit": false,
      "t": 113840.88196666818,
      "d": 119.42687500000466,
      "v": 81
    },
    {
      "midi": 61,
      "hit": false,
      "t": 113856.80555000152,
      "d": 154.45875833333412,
      "v": 84
    },
    {
      "midi": 82,
      "hit": false,
      "t": 114035.14968333485,
      "d": 170.38234166667098,
      "v": 71
    },
    {
      "midi": 79,
      "hit": false,
      "t": 114052.66562500152,
      "d": 222.93016666667245,
      "v": 72
    },
    {
      "midi": 52,
      "hit": false,
      "t": 114211.90145833486,
      "d": 402.8666583333543,
      "v": 80
    },
    {
      "midi": 73,
      "hit": false,
      "t": 114226.23268333486,
      "d": 192.67535833333386,
      "v": 70
    },
    {
      "midi": 82,
      "hit": false,
      "t": 114420.50040000153,
      "d": 203.8218666666944,
      "v": 58
    },
    {
      "midi": 79,
      "hit": false,
      "t": 114425.27747500154,
      "d": 200.63715000002412,
      "v": 52
    },
    {
      "midi": 73,
      "hit": false,
      "t": 114609.99104166821,
      "d": 675.1599333333725,
      "v": 103
    },
    {
      "midi": 53,
      "hit": false,
      "t": 114640.24585000156,
      "d": 146.49696666667296,
      "v": 72
    },
    {
      "midi": 82,
      "hit": false,
      "t": 114818.58998333491,
      "d": 197.45243333332473,
      "v": 67
    },
    {
      "midi": 65,
      "hit": false,
      "t": 115008.08062500157,
      "d": 159.23583333333954,
      "v": 74
    },
    {
      "midi": 84,
      "hit": false,
      "t": 115028.7812833349,
      "d": 267.51620000001276,
      "v": 84
    },
    {
      "midi": 56,
      "hit": false,
      "t": 115047.88958333491,
      "d": 108.28036666667322,
      "v": 32
    },
    {
      "midi": 82,
      "hit": false,
      "t": 115215.08720833491,
      "d": 257.9620500000019,
      "v": 58
    },
    {
      "midi": 44,
      "hit": false,
      "t": 115374.32304166825,
      "d": 461.78391666665266,
      "v": 80
    },
    {
      "midi": 72,
      "hit": false,
      "t": 115434.83265833491,
      "d": 175.15941666666185,
      "v": 81
    },
    {
      "midi": 80,
      "hit": false,
      "t": 115434.83265833491,
      "d": 183.121208333323,
      "v": 74
    },
    {
      "midi": 46,
      "hit": false,
      "t": 115777.18970000156,
      "d": 234.0766750000039,
      "v": 81
    },
    {
      "midi": 71,
      "hit": false,
      "t": 115791.52092500156,
      "d": 547.7712666666775,
      "v": 100
    },
    {
      "midi": 80,
      "hit": false,
      "t": 116003.3045833349,
      "d": 195.86007500000414,
      "v": 81
    },
    {
      "midi": 63,
      "hit": false,
      "t": 116152.98626666823,
      "d": 154.45875833334867,
      "v": 62
    },
    {
      "midi": 55,
      "hit": false,
      "t": 116168.90985000157,
      "d": 149.68168333334324,
      "v": 62
    },
    {
      "midi": 82,
      "hit": false,
      "t": 116197.57230000157,
      "d": 328.02581666666083,
      "v": 84
    },
    {
      "midi": 80,
      "hit": false,
      "t": 116359.99285000157,
      "d": 256.36969166666677,
      "v": 65
    },
    {
      "midi": 63,
      "hit": false,
      "t": 116528.7828333349,
      "d": 171.97470000000612,
      "v": 74
    },
    {
      "midi": 79,
      "hit": false,
      "t": 116535.15226666824,
      "d": 234.0766750000039,
      "v": 91
    },
    {
      "midi": 70,
      "hit": false,
      "t": 116544.70641666824,
      "d": 141.71989166666754,
      "v": 68
    },
    {
      "midi": 55,
      "hit": false,
      "t": 116555.85292500157,
      "d": 157.6434750000044,
      "v": 74
    },
    {
      "midi": 46,
      "hit": false,
      "t": 116914.13355000158,
      "d": 242.03846666666504,
      "v": 71
    },
    {
      "midi": 70,
      "hit": false,
      "t": 116926.87241666825,
      "d": 609.8732416666753,
      "v": 90
    },
    {
      "midi": 79,
      "hit": false,
      "t": 117148.21022500159,
      "d": 210.19130000000587,
      "v": 70
    },
    {
      "midi": 53,
      "hit": false,
      "t": 117293.11483333491,
      "d": 156.0511166666838,
      "v": 71
    },
    {
      "midi": 62,
      "hit": false,
      "t": 117299.48426666825,
      "d": 157.6434750000044,
      "v": 68
    },
    {
      "midi": 80,
      "hit": false,
      "t": 117328.14671666826,
      "d": 289.80921666667564,
      "v": 83
    },
    {
      "midi": 79,
      "hit": false,
      "t": 117508.08320833492,
      "d": 261.14676666668674,
      "v": 72
    },
    {
      "midi": 58,
      "hit": false,
      "t": 117643.43366666826,
      "d": 124.20395000001008,
      "v": 80
    },
    {
      "midi": 62,
      "hit": false,
      "t": 117672.09611666827,
      "d": 103.50329166668234,
      "v": 46
    },
    {
      "midi": 68,
      "hit": false,
      "t": 117713.49743333494,
      "d": 324.8411000000051,
      "v": 74
    },
    {
      "midi": 77,
      "hit": false,
      "t": 117726.2363000016,
      "d": 353.50355000000854,
      "v": 72
    },
    {
      "midi": 39,
      "hit": false,
      "t": 118084.51692500162,
      "d": 156.05111666666926,
      "v": 105
    },
    {
      "midi": 27,
      "hit": false,
      "t": 118084.51692500162,
      "d": 186.3059249999933,
      "v": 122
    },
    {
      "midi": 75,
      "hit": false,
      "t": 118125.91824166829,
      "d": 124.20394999999553,
      "v": 80
    },
    {
      "midi": 55,
      "hit": false,
      "t": 118527.19254166828,
      "d": 211.783658333341,
      "v": 71
    },
    {
      "midi": 56,
      "hit": false,
      "t": 118707.12903333495,
      "d": 197.4524333333393,
      "v": 70
    },
    {
      "midi": 58,
      "hit": false,
      "t": 118910.95090000163,
      "d": 159.23583333333954,
      "v": 68
    },
    {
      "midi": 60,
      "hit": false,
      "t": 119068.59437500163,
      "d": 240.44610833334445,
      "v": 81
    },
    {
      "midi": 62,
      "hit": false,
      "t": 119278.78567500164,
      "d": 184.71356666668726,
      "v": 86
    },
    {
      "midi": 63,
      "hit": false,
      "t": 119458.72216666832,
      "d": 179.93649166668183,
      "v": 86
    },
    {
      "midi": 65,
      "hit": false,
      "t": 119633.881583335,
      "d": 222.93016666667245,
      "v": 96
    },
    {
      "midi": 67,
      "hit": false,
      "t": 119823.37222500167,
      "d": 192.6753583333193,
      "v": 84
    },
    {
      "midi": 68,
      "hit": false,
      "t": 120008.08579166833,
      "d": 200.63714999999502,
      "v": 87
    },
    {
      "midi": 69,
      "hit": false,
      "t": 120181.65285000166,
      "d": 237.26139166667417,
      "v": 86
    },
    {
      "midi": 72,
      "hit": false,
      "t": 120402.990658335,
      "d": 242.03846666666504,
      "v": 72
    },
    {
      "midi": 70,
      "hit": false,
      "t": 120605.22016666832,
      "d": 192.6753583333484,
      "v": 75
    },
    {
      "midi": 55,
      "hit": false,
      "t": 120758.08656666832,
      "d": 143.31225000003178,
      "v": 80
    },
    {
      "midi": 63,
      "hit": false,
      "t": 120764.45600000166,
      "d": 162.42055000002438,
      "v": 62
    },
    {
      "midi": 67,
      "hit": false,
      "t": 120781.97194166834,
      "d": 74.8408416666789,
      "v": 65
    },
    {
      "midi": 58,
      "hit": false,
      "t": 120802.67260000168,
      "d": 84.3949916666752,
      "v": 48
    },
    {
      "midi": 68,
      "hit": false,
      "t": 120942.80013333503,
      "d": 227.70724166667787,
      "v": 64
    },
    {
      "midi": 67,
      "hit": false,
      "t": 121132.29077500169,
      "d": 114.64980000001378,
      "v": 65
    },
    {
      "midi": 63,
      "hit": false,
      "t": 121137.0678500017,
      "d": 162.42055000000983,
      "v": 55
    },
    {
      "midi": 70,
      "hit": false,
      "t": 121141.8449250017,
      "d": 151.27404166666383,
      "v": 71
    },
    {
      "midi": 58,
      "hit": false,
      "t": 121152.99143333503,
      "d": 141.71989166666754,
      "v": 48
    },
    {
      "midi": 55,
      "hit": false,
      "t": 121154.58379166837,
      "d": 100.31857499999751,
      "v": 39
    },
    {
      "midi": 72,
      "hit": false,
      "t": 121302.67311666837,
      "d": 232.48431666666875,
      "v": 93
    },
    {
      "midi": 74,
      "hit": false,
      "t": 121503.31026666837,
      "d": 227.70724166667787,
      "v": 100
    },
    {
      "midi": 67,
      "hit": false,
      "t": 121520.82620833504,
      "d": 117.83451666668407,
      "v": 58
    },
    {
      "midi": 63,
      "hit": false,
      "t": 121528.7880000017,
      "d": 156.0511166666838,
      "v": 49
    },
    {
      "midi": 58,
      "hit": false,
      "t": 121541.52686666838,
      "d": 140.1275333333324,
      "v": 48
    },
    {
      "midi": 55,
      "hit": false,
      "t": 121547.89630000172,
      "d": 98.72621666666237,
      "v": 43
    },
    {
      "midi": 75,
      "hit": false,
      "t": 121694.39326666838,
      "d": 170.38234166667098,
      "v": 86
    },
    {
      "midi": 77,
      "hit": false,
      "t": 121867.96032500172,
      "d": 216.560733333361,
      "v": 100
    },
    {
      "midi": 67,
      "hit": false,
      "t": 121907.76928333506,
      "d": 128.9810250000155,
      "v": 87
    },
    {
      "midi": 63,
      "hit": false,
      "t": 121910.95400000173,
      "d": 181.52885000001697,
      "v": 68
    },
    {
      "midi": 58,
      "hit": false,
      "t": 121926.87758333507,
      "d": 144.90460833335237,
      "v": 59
    },
    {
      "midi": 55,
      "hit": false,
      "t": 121931.65465833507,
      "d": 89.17206666666607,
      "v": 61
    },
    {
      "midi": 79,
      "hit": false,
      "t": 122054.26625000175,
      "d": 234.07667499998934,
      "v": 90
    },
    {
      "midi": 80,
      "hit": false,
      "t": 122253.3110416684,
      "d": 203.82186666665075,
      "v": 94
    },
    {
      "midi": 67,
      "hit": false,
      "t": 122288.34292500174,
      "d": 121.01923333332525,
      "v": 86
    },
    {
      "midi": 63,
      "hit": false,
      "t": 122288.34292500174,
      "d": 181.52884999998787,
      "v": 68
    },
    {
      "midi": 58,
      "hit": false,
      "t": 122301.0817916684,
      "d": 157.64347499998985,
      "v": 58
    },
    {
      "midi": 55,
      "hit": false,
      "t": 122309.04358333506,
      "d": 111.46508333332895,
      "v": 67
    },
    {
      "midi": 81,
      "hit": false,
      "t": 122420.5086666684,
      "d": 186.3059249999933,
      "v": 96
    },
    {
      "midi": 63,
      "hit": false,
      "t": 122664.1394916684,
      "d": 189.49064166667813,
      "v": 81
    },
    {
      "midi": 67,
      "hit": false,
      "t": 122668.9165666684,
      "d": 119.42687500000466,
      "v": 93
    },
    {
      "midi": 84,
      "hit": false,
      "t": 122668.9165666684,
      "d": 312.1022333333385,
      "v": 105
    },
    {
      "midi": 55,
      "hit": false,
      "t": 122680.06307500173,
      "d": 128.98102500000095,
      "v": 83
    },
    {
      "midi": 58,
      "hit": false,
      "t": 122683.2477916684,
      "d": 164.01290833333042,
      "v": 68
    },
    {
      "midi": 82,
      "hit": false,
      "t": 122858.40720833508,
      "d": 265.9238416666776,
      "v": 93
    },
    {
      "midi": 67,
      "hit": false,
      "t": 123038.34370000174,
      "d": 186.30592500000785,
      "v": 102
    },
    {
      "midi": 63,
      "hit": false,
      "t": 123039.93605833508,
      "d": 235.66903333335358,
      "v": 99
    },
    {
      "midi": 79,
      "hit": false,
      "t": 123044.71313333508,
      "d": 242.0384666666796,
      "v": 97
    },
    {
      "midi": 55,
      "hit": false,
      "t": 123049.49020833509,
      "d": 160.82819166666013,
      "v": 93
    },
    {
      "midi": 58,
      "hit": false,
      "t": 123052.67492500176,
      "d": 205.41422500000044,
      "v": 74
    },
    {
      "midi": 80,
      "hit": false,
      "t": 123229.42670000176,
      "d": 248.4079000000056,
      "v": 90
    },
    {
      "midi": 67,
      "hit": false,
      "t": 123414.14026666843,
      "d": 144.90460833333782,
      "v": 89
    },
    {
      "midi": 63,
      "hit": false,
      "t": 123422.10205833509,
      "d": 207.00658333335014,
      "v": 84
    },
    {
      "midi": 55,
      "hit": false,
      "t": 123425.28677500176,
      "d": 132.16574166667124,
      "v": 81
    },
    {
      "midi": 82,
      "hit": false,
      "t": 123426.8791333351,
      "d": 168.78998333333584,
      "v": 89
    },
    {
      "midi": 58,
      "hit": false,
      "t": 123430.06385000177,
      "d": 183.12120833333756,
      "v": 80
    },
    {
      "midi": 84,
      "hit": false,
      "t": 123611.59270000177,
      "d": 243.6308250000002,
      "v": 109
    },
    {
      "midi": 67,
      "hit": false,
      "t": 123791.52919166844,
      "d": 127.38866666666581,
      "v": 97
    },
    {
      "midi": 63,
      "hit": false,
      "t": 123791.52919166844,
      "d": 219.74545000000217,
      "v": 83
    },
    {
      "midi": 58,
      "hit": false,
      "t": 123799.4909833351,
      "d": 208.59894166667073,
      "v": 84
    },
    {
      "midi": 55,
      "hit": false,
      "t": 123802.67570000177,
      "d": 133.75810000000638,
      "v": 90
    },
    {
      "midi": 86,
      "hit": false,
      "t": 123812.22985000176,
      "d": 259.55440833333705,
      "v": 108
    },
    {
      "midi": 87,
      "hit": false,
      "t": 124008.08992500177,
      "d": 203.82186666667985,
      "v": 108
    },
    {
      "midi": 67,
      "hit": false,
      "t": 124191.2111333351,
      "d": 109.87272500000836,
      "v": 97
    },
    {
      "midi": 63,
      "hit": false,
      "t": 124191.2111333351,
      "d": 191.08300000001327,
      "v": 75
    },
    {
      "midi": 58,
      "hit": false,
      "t": 124197.58056666845,
      "d": 179.93649166666728,
      "v": 86
    },
    {
      "midi": 89,
      "hit": false,
      "t": 124197.58056666845,
      "d": 232.4843166666833,
      "v": 113
    },
    {
      "midi": 55,
      "hit": false,
      "t": 124211.91179166845,
      "d": 105.09565000000293,
      "v": 83
    },
    {
      "midi": 91,
      "hit": false,
      "t": 124388.66356666846,
      "d": 256.3696916666813,
      "v": 97
    },
    {
      "midi": 67,
      "hit": false,
      "t": 124560.63826666847,
      "d": 127.38866666668036,
      "v": 102
    },
    {
      "midi": 58,
      "hit": false,
      "t": 124573.37713333513,
      "d": 173.56705833334127,
      "v": 80
    },
    {
      "midi": 63,
      "hit": false,
      "t": 124574.96949166847,
      "d": 173.56705833334127,
      "v": 83
    },
    {
      "midi": 55,
      "hit": false,
      "t": 124576.5618500018,
      "d": 132.16574166667124,
      "v": 90
    },
    {
      "midi": 92,
      "hit": false,
      "t": 124576.5618500018,
      "d": 238.8537500000093,
      "v": 103
    },
    {
      "midi": 93,
      "hit": false,
      "t": 124751.72126666848,
      "d": 275.47799166665936,
      "v": 108
    },
    {
      "midi": 67,
      "hit": false,
      "t": 124939.61955000181,
      "d": 200.63715000000957,
      "v": 112
    },
    {
      "midi": 63,
      "hit": false,
      "t": 124947.58134166847,
      "d": 250.0002583333553,
      "v": 97
    },
    {
      "midi": 58,
      "hit": false,
      "t": 124949.1737000018,
      "d": 230.89195833334816,
      "v": 90
    },
    {
      "midi": 55,
      "hit": false,
      "t": 124953.95077500181,
      "d": 167.1976250000007,
      "v": 96
    },
    {
      "midi": 96,
      "hit": false,
      "t": 124974.65143333514,
      "d": 305.73280000002705,
      "v": 110
    },
    {
      "midi": 94,
      "hit": false,
      "t": 125159.36500000182,
      "d": 329.6181750000251,
      "v": 97
    },
    {
      "midi": 67,
      "hit": false,
      "t": 125323.37790833517,
      "d": 135.35045833334152,
      "v": 106
    },
    {
      "midi": 55,
      "hit": false,
      "t": 125336.11677500184,
      "d": 135.35045833334152,
      "v": 91
    },
    {
      "midi": 58,
      "hit": false,
      "t": 125337.70913333517,
      "d": 181.52885000000242,
      "v": 78
    },
    {
      "midi": 63,
      "hit": false,
      "t": 125339.3014916685,
      "d": 184.7135666666727,
      "v": 86
    },
    {
      "midi": 91,
      "hit": false,
      "t": 125350.44800000184,
      "d": 202.2295083333447,
      "v": 97
    },
    {
      "midi": 92,
      "hit": false,
      "t": 125511.27619166851,
      "d": 254.77733333334618,
      "v": 83
    },
    {
      "midi": 93,
      "hit": false,
      "t": 125702.35919166851,
      "d": 234.0766750000039,
      "v": 115
    },
    {
      "midi": 67,
      "hit": false,
      "t": 125705.54390833518,
      "d": 122.61159166667494,
      "v": 112
    },
    {
      "midi": 63,
      "hit": false,
      "t": 125711.91334166852,
      "d": 191.08299999999872,
      "v": 97
    },
    {
      "midi": 58,
      "hit": false,
      "t": 125713.50570000186,
      "d": 175.15941666666185,
      "v": 89
    },
    {
      "midi": 55,
      "hit": false,
      "t": 125723.05985000185,
      "d": 127.38866666666581,
      "v": 87
    },
    {
      "midi": 94,
      "hit": false,
      "t": 125877.51860833519,
      "d": 251.59261666666134,
      "v": 102
    },
    {
      "midi": 96,
      "hit": false,
      "t": 126082.93283333519,
      "d": 261.1467666666722,
      "v": 115
    },
    {
      "midi": 67,
      "hit": false,
      "t": 126092.48698333518,
      "d": 109.87272500000836,
      "v": 116
    },
    {
      "midi": 63,
      "hit": false,
      "t": 126100.44877500185,
      "d": 178.3441333333467,
      "v": 99
    },
    {
      "midi": 58,
      "hit": false,
      "t": 126102.04113333518,
      "d": 171.97470000000612,
      "v": 90
    },
    {
      "midi": 55,
      "hit": false,
      "t": 126110.00292500184,
      "d": 89.17206666668062,
      "v": 89
    },
    {
      "midi": 94,
      "hit": false,
      "t": 126266.05404166853,
      "d": 391.7201500000083,
      "v": 97
    },
    {
      "midi": 91,
      "hit": false,
      "t": 126461.91411666853,
      "d": 205.414225000015,
      "v": 108
    },
    {
      "midi": 67,
      "hit": false,
      "t": 126471.46826666853,
      "d": 101.9109333333472,
      "v": 115
    },
    {
      "midi": 63,
      "hit": false,
      "t": 126477.83770000187,
      "d": 183.12120833333756,
      "v": 97
    },
    {
      "midi": 58,
      "hit": false,
      "t": 126482.61477500187,
      "d": 167.1976250000007,
      "v": 87
    },
    {
      "midi": 55,
      "hit": false,
      "t": 126492.16892500187,
      "d": 84.3949916666752,
      "v": 89
    },
    {
      "midi": 92,
      "hit": false,
      "t": 126610.00344166854,
      "d": 259.5544083333225,
      "v": 96
    },
    {
      "midi": 93,
      "hit": false,
      "t": 126802.67880000187,
      "d": 250.0002583333262,
      "v": 119
    },
    {
      "midi": 67,
      "hit": false,
      "t": 126836.11832500187,
      "d": 114.64979999999923,
      "v": 115
    },
    {
      "midi": 63,
      "hit": false,
      "t": 126848.85719166853,
      "d": 186.3059249999933,
      "v": 94
    },
    {
      "midi": 58,
      "hit": false,
      "t": 126852.0419083352,
      "d": 175.15941666666185,
      "v": 83
    },
    {
      "midi": 55,
      "hit": false,
      "t": 126860.00370000186,
      "d": 103.50329166666779,
      "v": 84
    },
    {
      "midi": 94,
      "hit": false,
      "t": 126981.0229333352,
      "d": 318.4716666666791,
      "v": 99
    },
    {
      "midi": 99,
      "hit": false,
      "t": 127208.73017500187,
      "d": 229.29960000002757,
      "v": 119
    },
    {
      "midi": 67,
      "hit": false,
      "t": 127248.5391333352,
      "d": 95.54150000002119,
      "v": 125
    },
    {
      "midi": 58,
      "hit": false,
      "t": 127250.13149166854,
      "d": 237.26139166668872,
      "v": 113
    },
    {
      "midi": 63,
      "hit": false,
      "t": 127256.50092500188,
      "d": 229.29960000001302,
      "v": 116
    },
    {
      "midi": 55,
      "hit": false,
      "t": 127267.64743333521,
      "d": 132.1657416666858,
      "v": 103
    },
    {
      "midi": 91,
      "hit": false,
      "t": 127630.70513333523,
      "d": 242.03846666666504,
      "v": 102
    },
    {
      "midi": 92,
      "hit": false,
      "t": 127807.45690833523,
      "d": 262.7391249999928,
      "v": 97
    },
    {
      "midi": 93,
      "hit": false,
      "t": 128011.27877500189,
      "d": 238.85374999999476,
      "v": 119
    },
    {
      "midi": 94,
      "hit": false,
      "t": 128178.47640000189,
      "d": 316.8793083333294,
      "v": 97
    },
    {
      "midi": 51,
      "hit": false,
      "t": 128380.70590833522,
      "d": 143.31225000000268,
      "v": 109
    },
    {
      "midi": 63,
      "hit": false,
      "t": 128380.70590833522,
      "d": 192.67535833333386,
      "v": 115
    },
    {
      "midi": 99,
      "hit": false,
      "t": 128390.26005833522,
      "d": 237.26139166667417,
      "v": 115
    },
    {
      "midi": 55,
      "hit": false,
      "t": 128398.2218500019,
      "d": 237.26139166665962,
      "v": 110
    },
    {
      "midi": 91,
      "hit": false,
      "t": 128789.94200000189,
      "d": 224.5225250000076,
      "v": 93
    },
    {
      "midi": 92,
      "hit": false,
      "t": 128961.9167000019,
      "d": 259.5544083333225,
      "v": 91
    },
    {
      "midi": 93,
      "hit": false,
      "t": 129149.81498333522,
      "d": 238.85374999999476,
      "v": 112
    },
    {
      "midi": 94,
      "hit": false,
      "t": 129315.42025000189,
      "d": 280.2550666666648,
      "v": 97
    },
    {
      "midi": 99,
      "hit": false,
      "t": 129519.24211666855,
      "d": 154.45875833333412,
      "v": 105
    },
    {
      "midi": 67,
      "hit": false,
      "t": 129527.20390833521,
      "d": 140.1275333333324,
      "v": 106
    },
    {
      "midi": 55,
      "hit": false,
      "t": 129531.98098333522,
      "d": 136.9428166666621,
      "v": 99
    },
    {
      "midi": 63,
      "hit": false,
      "t": 129539.94277500188,
      "d": 259.55440833333705,
      "v": 102
    },
    {
      "midi": 58,
      "hit": false,
      "t": 129544.71985000189,
      "d": 195.86007500000414,
      "v": 97
    },
    {
      "midi": 91,
      "hit": false,
      "t": 129952.36358333522,
      "d": 200.63714999999502,
      "v": 89
    },
    {
      "midi": 92,
      "hit": false,
      "t": 130125.93064166854,
      "d": 250.00025833334075,
      "v": 78
    },
    {
      "midi": 93,
      "hit": false,
      "t": 130323.38307500188,
      "d": 240.4461083333299,
      "v": 97
    },
    {
      "midi": 94,
      "hit": false,
      "t": 130490.58070000188,
      "d": 256.3696916666813,
      "v": 83
    },
    {
      "midi": 70,
      "hit": false,
      "t": 130699.17964166855,
      "d": 157.64347500001895,
      "v": 94
    },
    {
      "midi": 99,
      "hit": false,
      "t": 130700.77200000189,
      "d": 159.2358333333541,
      "v": 96
    },
    {
      "midi": 58,
      "hit": false,
      "t": 130703.95671666856,
      "d": 149.68168333334324,
      "v": 86
    },
    {
      "midi": 67,
      "hit": false,
      "t": 130707.14143333523,
      "d": 226.11488333334273,
      "v": 91
    },
    {
      "midi": 91,
      "hit": false,
      "t": 131108.41573333525,
      "d": 197.45243333335384,
      "v": 83
    },
    {
      "midi": 92,
      "hit": false,
      "t": 131285.16750833526,
      "d": 216.56073333334643,
      "v": 72
    },
    {
      "midi": 93,
      "hit": false,
      "t": 131466.69635833526,
      "d": 235.66903333333903,
      "v": 94
    },
    {
      "midi": 94,
      "hit": false,
      "t": 131648.22520833527,
      "d": 237.26139166663052,
      "v": 84
    },
    {
      "midi": 63,
      "hit": false,
      "t": 131828.16170000192,
      "d": 183.121208333323,
      "v": 81
    },
    {
      "midi": 99,
      "hit": false,
      "t": 131829.75405833524,
      "d": 132.1657416666567,
      "v": 93
    },
    {
      "midi": 75,
      "hit": false,
      "t": 131834.53113333523,
      "d": 173.56705833334127,
      "v": 80
    },
    {
      "midi": 67,
      "hit": false,
      "t": 131863.19358333523,
      "d": 200.63714999999502,
      "v": 72
    },
    {
      "midi": 91,
      "hit": false,
      "t": 132229.4360000019,
      "d": 183.12120833335212,
      "v": 70
    },
    {
      "midi": 92,
      "hit": false,
      "t": 132406.18777500192,
      "d": 226.11488333335728,
      "v": 71
    },
    {
      "midi": 93,
      "hit": false,
      "t": 132597.27077500193,
      "d": 230.89195833334816,
      "v": 87
    },
    {
      "midi": 94,
      "hit": false,
      "t": 132772.43019166862,
      "d": 272.29327500000363,
      "v": 70
    },
    {
      "midi": 70,
      "hit": false,
      "t": 132981.02913333528,
      "d": 171.97470000002068,
      "v": 70
    },
    {
      "midi": 99,
      "hit": false,
      "t": 132981.02913333528,
      "d": 181.52885000003153,
      "v": 75
    },
    {
      "midi": 58,
      "hit": false,
      "t": 132987.39856666862,
      "d": 136.94281666667666,
      "v": 64
    },
    {
      "midi": 67,
      "hit": false,
      "t": 132993.76800000196,
      "d": 194.26771666668355,
      "v": 70
    },
    {
      "midi": 91,
      "hit": false,
      "t": 133395.04230000198,
      "d": 159.23583333333954,
      "v": 75
    },
    {
      "midi": 92,
      "hit": false,
      "t": 133574.97879166866,
      "d": 205.4142249999859,
      "v": 61
    },
    {
      "midi": 93,
      "hit": false,
      "t": 133758.10000000198,
      "d": 219.74545000001672,
      "v": 84
    },
    {
      "midi": 94,
      "hit": false,
      "t": 133931.66705833533,
      "d": 254.77733333336073,
      "v": 67
    },
    {
      "midi": 67,
      "hit": false,
      "t": 134125.934775002,
      "d": 135.35045833335607,
      "v": 65
    },
    {
      "midi": 75,
      "hit": false,
      "t": 134143.45071666868,
      "d": 237.26139166668872,
      "v": 59
    },
    {
      "midi": 99,
      "hit": false,
      "t": 134151.41250833534,
      "d": 152.86640000002808,
      "v": 67
    },
    {
      "midi": 79,
      "hit": false,
      "t": 134160.96665833535,
      "d": 191.08300000001327,
      "v": 32
    },
    {
      "midi": 91,
      "hit": false,
      "t": 134535.1708666687,
      "d": 165.6052666666801,
      "v": 67
    },
    {
      "midi": 92,
      "hit": false,
      "t": 134703.96085000204,
      "d": 208.59894166668528,
      "v": 59
    },
    {
      "midi": 93,
      "hit": false,
      "t": 134899.82092500204,
      "d": 194.26771666668355,
      "v": 84
    },
    {
      "midi": 94,
      "hit": false,
      "t": 135089.31156666874,
      "d": 254.77733333333163,
      "v": 67
    },
    {
      "midi": 70,
      "hit": false,
      "t": 135277.20985000205,
      "d": 164.01290833335952,
      "v": 56
    },
    {
      "midi": 82,
      "hit": false,
      "t": 135286.76400000206,
      "d": 230.89195833334816,
      "v": 62
    },
    {
      "midi": 79,
      "hit": false,
      "t": 135309.05701666872,
      "d": 213.37601666667615,
      "v": 65
    },
    {
      "midi": 99,
      "hit": false,
      "t": 135312.2417333354,
      "d": 138.53517500002636,
      "v": 71
    },
    {
      "midi": 91,
      "hit": false,
      "t": 135700.77716666873,
      "d": 175.15941666666185,
      "v": 62
    },
    {
      "midi": 92,
      "hit": false,
      "t": 135885.4907333354,
      "d": 202.2295083333447,
      "v": 55
    },
    {
      "midi": 93,
      "hit": false,
      "t": 136074.98137500207,
      "d": 213.37601666667615,
      "v": 80
    },
    {
      "midi": 94,
      "hit": false,
      "t": 136254.91786666875,
      "d": 259.5544083333225,
      "v": 56
    },
    {
      "midi": 79,
      "hit": false,
      "t": 136433.26200000208,
      "d": 151.27404166664928,
      "v": 68
    },
    {
      "midi": 91,
      "hit": false,
      "t": 136439.63143333542,
      "d": 140.12753333331784,
      "v": 59
    },
    {
      "midi": 87,
      "hit": false,
      "t": 136439.63143333542,
      "d": 187.89828333331388,
      "v": 75
    },
    {
      "midi": 99,
      "hit": false,
      "t": 136461.9244500021,
      "d": 119.42687499997555,
      "v": 81
    },
    {
      "midi": 75,
      "hit": false,
      "t": 138723.0732833354,
      "d": 133.75809999997728,
      "v": 111
    },
    {
      "midi": 63,
      "hit": false,
      "t": 138726.25800000207,
      "d": 164.0129083333013,
      "v": 116
    },
    {
      "midi": 91,
      "hit": false,
      "t": 138726.25800000207,
      "d": 377.38892499997746,
      "v": 116
    },
    {
      "midi": 79,
      "hit": false,
      "t": 138727.8503583354,
      "d": 320.0640249999997,
      "v": 127
    },
    {
      "midi": 70,
      "hit": false,
      "t": 138732.62743333538,
      "d": 218.15309166666702,
      "v": 116
    },
    {
      "midi": 82,
      "hit": false,
      "t": 138732.62743333538,
      "d": 399.68194166666945,
      "v": 127
    },
    {
      "midi": 87,
      "hit": false,
      "t": 138735.81215000205,
      "d": 385.3507166666677,
      "v": 122
    },
    {
      "midi": 79,
      "hit": false,
      "t": 139848.87062500205,
      "d": 200.6371499999659,
      "v": 125
    },
    {
      "midi": 67,
      "hit": false,
      "t": 139850.46298333537,
      "d": 154.45875833331957,
      "v": 124
    },
    {
      "midi": 70,
      "hit": false,
      "t": 139853.64770000204,
      "d": 203.8218666666362,
      "v": 125
    },
    {
      "midi": 75,
      "hit": false,
      "t": 139858.42477500203,
      "d": 200.6371499999659,
      "v": 115
    },
    {
      "midi": 51,
      "hit": false,
      "t": 139860.01713333535,
      "d": 146.4969666666584,
      "v": 110
    },
    {
      "midi": 63,
      "hit": false,
      "t": 139861.60949166867,
      "d": 133.75810000000638,
      "v": 127
    },
    {
      "midi": 58,
      "hit": false,
      "t": 139875.94071666867,
      "d": 168.7899833333504,
      "v": 110
    },
    {
      "midi": 63,
      "hit": false,
      "t": 140240.590775002,
      "d": 128.9810249999573,
      "v": 113
    },
    {
      "midi": 51,
      "hit": false,
      "t": 140240.590775002,
      "d": 138.53517499996815,
      "v": 125
    },
    {
      "midi": 79,
      "hit": false,
      "t": 140250.144925002,
      "d": 179.93649166662362,
      "v": 115
    },
    {
      "midi": 70,
      "hit": false,
      "t": 140251.73728333533,
      "d": 184.7135666666436,
      "v": 118
    },
    {
      "midi": 58,
      "hit": false,
      "t": 140253.32964166865,
      "d": 168.7899833333213,
      "v": 96
    },
    {
      "midi": 67,
      "hit": false,
      "t": 140254.92200000197,
      "d": 138.53517499999725,
      "v": 103
    },
    {
      "midi": 75,
      "hit": false,
      "t": 140266.0685083353,
      "d": 183.12120833335212,
      "v": 102
    },
    {
      "midi": 63,
      "hit": false,
      "t": 140602.05611666865,
      "d": 97.13385833334178,
      "v": 118
    },
    {
      "midi": 58,
      "hit": false,
      "t": 140611.61026666866,
      "d": 135.35045833332697,
      "v": 106
    },
    {
      "midi": 51,
      "hit": false,
      "t": 140611.61026666866,
      "d": 156.05111666664016,
      "v": 119
    },
    {
      "midi": 79,
      "hit": false,
      "t": 140622.756775002,
      "d": 93.9491416666715,
      "v": 121
    },
    {
      "midi": 67,
      "hit": false,
      "t": 140624.34913333532,
      "d": 92.3567833333509,
      "v": 121
    },
    {
      "midi": 70,
      "hit": false,
      "t": 140624.34913333532,
      "d": 138.53517499999725,
      "v": 124
    },
    {
      "midi": 75,
      "hit": false,
      "t": 140630.71856666866,
      "d": 108.28036666667322,
      "v": 112
    },
    {
      "midi": 27,
      "hit": false,
      "t": 141052.69352500196,
      "d": 2262.7411916666606,
      "v": 127
    },
    {
      "midi": 39,
      "hit": false,
      "t": 141054.28588333528,
      "d": 2267.5182666666806,
      "v": 116
    },
    {
      "midi": 51,
      "hit": false,
      "t": 141054.28588333528,
      "d": 2277.0724166666914,
      "v": 111
    }
  ]
}