{
  "jsonPath": "Rock/Album Rock/Dire Straits/walk-of-life.json",
  "path": "Rock\\Album Rock\\Dire Straits\\Walk Of Life.mid",
  "name": "Walk Of Life",
  "difficulty": "Advanced",
  "bpm": 88.00002346667293,
  "notes": [
    {
      "midi": 40,
      "hit": false,
      "t": 13647.01340625,
      "d": 2386.363000000001,
      "v": 90
    },
    {
      "midi": 52,
      "hit": false,
      "t": 13668.320218750001,
      "d": 2272.7266666666674,
      "v": 99
    },
    {
      "midi": 59,
      "hit": false,
      "t": 13668.320218750001,
      "d": 2311.789156250001,
      "v": 102
    },
    {
      "midi": 68,
      "hit": false,
      "t": 13675.422489583334,
      "d": 2308.2380208333343,
      "v": 105
    },
    {
      "midi": 64,
      "hit": false,
      "t": 13675.422489583334,
      "d": 2343.7493750000012,
      "v": 100
    },
    {
      "midi": 57,
      "hit": false,
      "t": 16374.285406250001,
      "d": 2301.1357500000013,
      "v": 102
    },
    {
      "midi": 61,
      "hit": false,
      "t": 16374.285406250001,
      "d": 2322.4425625000003,
      "v": 106
    },
    {
      "midi": 64,
      "hit": false,
      "t": 16374.285406250001,
      "d": 2361.505052083332,
      "v": 98
    },
    {
      "midi": 45,
      "hit": false,
      "t": 16374.285406250001,
      "d": 2365.0561874999985,
      "v": 104
    },
    {
      "midi": 47,
      "hit": false,
      "t": 19122.86421875,
      "d": 2130.681249999998,
      "v": 102
    },
    {
      "midi": 59,
      "hit": false,
      "t": 19122.86421875,
      "d": 2130.681249999998,
      "v": 107
    },
    {
      "midi": 63,
      "hit": false,
      "t": 19151.273302083333,
      "d": 2102.2721666666657,
      "v": 123
    },
    {
      "midi": 66,
      "hit": false,
      "t": 19151.273302083333,
      "d": 2123.578979166665,
      "v": 119
    },
    {
      "midi": 57,
      "hit": false,
      "t": 21843.033947916665,
      "d": 1122.1587916666685,
      "v": 107
    },
    {
      "midi": 61,
      "hit": false,
      "t": 21843.033947916665,
      "d": 1122.1587916666685,
      "v": 104
    },
    {
      "midi": 64,
      "hit": false,
      "t": 21843.033947916665,
      "d": 1239.346260416667,
      "v": 96
    },
    {
      "midi": 45,
      "hit": false,
      "t": 21843.033947916665,
      "d": 1324.573510416667,
      "v": 119
    },
    {
      "midi": 59,
      "hit": false,
      "t": 23192.465406249998,
      "d": 1129.2610625000016,
      "v": 114
    },
    {
      "midi": 47,
      "hit": false,
      "t": 23192.465406249998,
      "d": 1139.914468750001,
      "v": 99
    },
    {
      "midi": 66,
      "hit": false,
      "t": 23192.465406249998,
      "d": 1143.4656041666676,
      "v": 106
    },
    {
      "midi": 63,
      "hit": false,
      "t": 23192.465406249998,
      "d": 1303.266697916668,
      "v": 112
    },
    {
      "midi": 40,
      "hit": false,
      "t": 24492.18096875,
      "d": 2322.4425624999967,
      "v": 95
    },
    {
      "midi": 52,
      "hit": false,
      "t": 24513.487781249998,
      "d": 2237.2153125000004,
      "v": 111
    },
    {
      "midi": 64,
      "hit": false,
      "t": 24541.89686458333,
      "d": 2244.3175833333335,
      "v": 101
    },
    {
      "midi": 59,
      "hit": false,
      "t": 24541.89686458333,
      "d": 2404.1186770833338,
      "v": 97
    },
    {
      "midi": 68,
      "hit": false,
      "t": 24584.510489583332,
      "d": 2283.380072916665,
      "v": 106
    },
    {
      "midi": 57,
      "hit": false,
      "t": 27290.47567708333,
      "d": 2183.948281249999,
      "v": 107
    },
    {
      "midi": 61,
      "hit": false,
      "t": 27290.47567708333,
      "d": 2230.1130416666674,
      "v": 105
    },
    {
      "midi": 64,
      "hit": false,
      "t": 27290.47567708333,
      "d": 2304.686885416668,
      "v": 94
    },
    {
      "midi": 45,
      "hit": false,
      "t": 27290.47567708333,
      "d": 2372.158458333335,
      "v": 114
    },
    {
      "midi": 47,
      "hit": false,
      "t": 30010.645406249998,
      "d": 2571.022041666667,
      "v": 109
    },
    {
      "midi": 63,
      "hit": false,
      "t": 30031.952218749997,
      "d": 2446.732302083332,
      "v": 123
    },
    {
      "midi": 59,
      "hit": false,
      "t": 30031.952218749997,
      "d": 2492.8970625,
      "v": 109
    },
    {
      "midi": 66,
      "hit": false,
      "t": 30031.952218749997,
      "d": 2606.533395833336,
      "v": 123
    },
    {
      "midi": 66,
      "hit": false,
      "t": 34115.75794791667,
      "d": 1079.5451666666631,
      "v": 110
    },
    {
      "midi": 59,
      "hit": false,
      "t": 34115.75794791667,
      "d": 1118.6076562499948,
      "v": 127
    },
    {
      "midi": 63,
      "hit": false,
      "t": 34115.75794791667,
      "d": 1200.2837708333245,
      "v": 127
    },
    {
      "midi": 47,
      "hit": false,
      "t": 34115.75794791667,
      "d": 1257.1019374999887,
      "v": 109
    },
    {
      "midi": 40,
      "hit": false,
      "t": 35365.75761458332,
      "d": 2297.5846145833275,
      "v": 90
    },
    {
      "midi": 52,
      "hit": false,
      "t": 35450.98486458332,
      "d": 2102.272166666662,
      "v": 104
    },
    {
      "midi": 59,
      "hit": false,
      "t": 35450.98486458332,
      "d": 2350.8516458333324,
      "v": 116
    },
    {
      "midi": 64,
      "hit": false,
      "t": 35450.98486458332,
      "d": 2414.7720833333296,
      "v": 104
    },
    {
      "midi": 68,
      "hit": false,
      "t": 35454.535999999986,
      "d": 2389.914135416664,
      "v": 104
    },
    {
      "midi": 63,
      "hit": false,
      "t": 35500.70076041665,
      "d": 3.5511354166665114,
      "v": 92
    },
    {
      "midi": 57,
      "hit": false,
      "t": 38199.563677083315,
      "d": 1161.2212812500002,
      "v": 106
    },
    {
      "midi": 61,
      "hit": false,
      "t": 38199.563677083315,
      "d": 1512.7836874999994,
      "v": 104
    },
    {
      "midi": 45,
      "hit": false,
      "t": 38199.563677083315,
      "d": 2599.4311249999955,
      "v": 98
    },
    {
      "midi": 64,
      "hit": false,
      "t": 38199.563677083315,
      "d": 2634.9424791666606,
      "v": 97
    },
    {
      "midi": 52,
      "hit": false,
      "t": 39726.55190624998,
      "d": 138.49428125000122,
      "v": 94
    },
    {
      "midi": 59,
      "hit": false,
      "t": 39882.801864583314,
      "d": 948.1531562499949,
      "v": 119
    },
    {
      "midi": 61,
      "hit": false,
      "t": 40063.909770833314,
      "d": 791.9031979166612,
      "v": 127
    },
    {
      "midi": 69,
      "hit": false,
      "t": 40415.47217708331,
      "d": 383.5226249999978,
      "v": 127
    },
    {
      "midi": 59,
      "hit": false,
      "t": 40905.528864583306,
      "d": 2311.789156250001,
      "v": 114
    },
    {
      "midi": 66,
      "hit": false,
      "t": 40905.528864583306,
      "d": 2354.402781249999,
      "v": 123
    },
    {
      "midi": 63,
      "hit": false,
      "t": 40905.528864583306,
      "d": 2357.9539166666655,
      "v": 123
    },
    {
      "midi": 47,
      "hit": false,
      "t": 40905.528864583306,
      "d": 2698.862916666665,
      "v": 95
    },
    {
      "midi": 64,
      "hit": false,
      "t": 43647.00540624997,
      "d": 1100.8519791666622,
      "v": 119
    },
    {
      "midi": 69,
      "hit": false,
      "t": 43647.00540624997,
      "d": 1150.5678749999934,
      "v": 116
    },
    {
      "midi": 45,
      "hit": false,
      "t": 43647.00540624997,
      "d": 1377.8405416666574,
      "v": 93
    },
    {
      "midi": 61,
      "hit": false,
      "t": 44215.18707291663,
      "d": 593.0396145833292,
      "v": 98
    },
    {
      "midi": 63,
      "hit": false,
      "t": 45031.94821874996,
      "d": 1051.136083333331,
      "v": 110
    },
    {
      "midi": 66,
      "hit": false,
      "t": 45031.94821874996,
      "d": 1051.136083333331,
      "v": 119
    },
    {
      "midi": 59,
      "hit": false,
      "t": 45031.94821874996,
      "d": 1100.8519791666622,
      "v": 107
    },
    {
      "midi": 47,
      "hit": false,
      "t": 45031.94821874996,
      "d": 1221.5905833333309,
      "v": 97
    },
    {
      "midi": 64,
      "hit": false,
      "t": 46352.97059374996,
      "d": 472.30101041666785,
      "v": 102
    },
    {
      "midi": 52,
      "hit": false,
      "t": 46352.97059374996,
      "d": 2301.1357500000013,
      "v": 96
    },
    {
      "midi": 40,
      "hit": false,
      "t": 46352.97059374996,
      "d": 2468.0391145833346,
      "v": 83
    },
    {
      "midi": 59,
      "hit": false,
      "t": 46356.52172916663,
      "d": 450.9941979166688,
      "v": 116
    },
    {
      "midi": 68,
      "hit": false,
      "t": 46360.07286458329,
      "d": 443.89192708333576,
      "v": 103
    },
    {
      "midi": 64,
      "hit": false,
      "t": 46885.64090624996,
      "d": 1896.3063125000044,
      "v": 98
    },
    {
      "midi": 59,
      "hit": false,
      "t": 46885.64090624996,
      "d": 1938.9199375000026,
      "v": 97
    },
    {
      "midi": 68,
      "hit": false,
      "t": 46885.64090624996,
      "d": 2013.4937812499993,
      "v": 98
    },
    {
      "midi": 45,
      "hit": false,
      "t": 49087.34486458329,
      "d": 2620.7379374999873,
      "v": 95
    },
    {
      "midi": 57,
      "hit": false,
      "t": 49115.75394791662,
      "d": 1285.511020833328,
      "v": 107
    },
    {
      "midi": 64,
      "hit": false,
      "t": 49115.75394791662,
      "d": 2428.9766249999884,
      "v": 97
    },
    {
      "midi": 61,
      "hit": false,
      "t": 49119.30508333329,
      "d": 1083.0963020833296,
      "v": 105
    },
    {
      "midi": 52,
      "hit": false,
      "t": 50110.07186458329,
      "d": 35.511354166665114,
      "v": 93
    },
    {
      "midi": 57,
      "hit": false,
      "t": 50642.74217708328,
      "d": 887.7838541666642,
      "v": 95
    },
    {
      "midi": 61,
      "hit": false,
      "t": 50642.74217708328,
      "d": 898.4372604166638,
      "v": 100
    },
    {
      "midi": 63,
      "hit": false,
      "t": 51828.82140624995,
      "d": 2393.4652708333306,
      "v": 112
    },
    {
      "midi": 66,
      "hit": false,
      "t": 51828.82140624995,
      "d": 2418.323218749996,
      "v": 110
    },
    {
      "midi": 59,
      "hit": false,
      "t": 51828.82140624995,
      "d": 2571.0220416666634,
      "v": 111
    },
    {
      "midi": 47,
      "hit": false,
      "t": 51864.33276041661,
      "d": 2336.6471041666664,
      "v": 99
    },
    {
      "midi": 45,
      "hit": false,
      "t": 54421.15026041661,
      "d": 1548.2950416666718,
      "v": 90
    },
    {
      "midi": 69,
      "hit": false,
      "t": 54556.093406249944,
      "d": 1022.726999999999,
      "v": 109
    },
    {
      "midi": 61,
      "hit": false,
      "t": 54556.093406249944,
      "d": 1107.9542500000025,
      "v": 112
    },
    {
      "midi": 52,
      "hit": false,
      "t": 54556.093406249944,
      "d": 1278.4087500000023,
      "v": 107
    },
    {
      "midi": 64,
      "hit": false,
      "t": 54591.60476041661,
      "d": 926.8463437500031,
      "v": 102
    },
    {
      "midi": 59,
      "hit": false,
      "t": 55919.72940624995,
      "d": 1086.6474374999962,
      "v": 111
    },
    {
      "midi": 66,
      "hit": false,
      "t": 55919.72940624995,
      "d": 1150.5678749999934,
      "v": 108
    },
    {
      "midi": 63,
      "hit": false,
      "t": 55919.72940624995,
      "d": 1218.039447916657,
      "v": 115
    },
    {
      "midi": 47,
      "hit": false,
      "t": 55919.72940624995,
      "d": 1342.3291874999923,
      "v": 96
    },
    {
      "midi": 59,
      "hit": false,
      "t": 57269.160864583275,
      "d": 2265.624395833336,
      "v": 111
    },
    {
      "midi": 64,
      "hit": false,
      "t": 57269.160864583275,
      "d": 2283.3800729166687,
      "v": 99
    },
    {
      "midi": 40,
      "hit": false,
      "t": 57269.160864583275,
      "d": 2521.3061458333395,
      "v": 83
    },
    {
      "midi": 52,
      "hit": false,
      "t": 57269.160864583275,
      "d": 2578.1243125000037,
      "v": 93
    },
    {
      "midi": 68,
      "hit": false,
      "t": 57272.71199999994,
      "d": 2262.0732604166697,
      "v": 102
    },
    {
      "midi": 59,
      "hit": false,
      "t": 59655.52386458328,
      "d": 205.96585416666494,
      "v": 101
    },
    {
      "midi": 64,
      "hit": false,
      "t": 59655.52386458328,
      "d": 227.272666666664,
      "v": 98
    },
    {
      "midi": 68,
      "hit": false,
      "t": 59655.52386458328,
      "d": 227.272666666664,
      "v": 99
    },
    {
      "midi": 40,
      "hit": false,
      "t": 59875.69426041661,
      "d": 1626.420020833335,
      "v": 95
    },
    {
      "midi": 52,
      "hit": false,
      "t": 59996.43286458328,
      "d": 1796.8745208333348,
      "v": 102
    },
    {
      "midi": 64,
      "hit": false,
      "t": 59996.43286458328,
      "d": 2002.8403749999998,
      "v": 100
    },
    {
      "midi": 68,
      "hit": false,
      "t": 59996.43286458328,
      "d": 2088.0676250000033,
      "v": 98
    },
    {
      "midi": 59,
      "hit": false,
      "t": 59996.43286458328,
      "d": 2265.624395833336,
      "v": 102
    },
    {
      "midi": 52,
      "hit": false,
      "t": 62219.44363541662,
      "d": 1424.0053020833366,
      "v": 83
    },
    {
      "midi": 59,
      "hit": false,
      "t": 62581.659447916616,
      "d": 2499.999333333333,
      "v": 95
    },
    {
      "midi": 68,
      "hit": false,
      "t": 62723.704864583284,
      "d": 2386.3629999999976,
      "v": 102
    },
    {
      "midi": 64,
      "hit": false,
      "t": 62723.704864583284,
      "d": 3615.055854166654,
      "v": 102
    },
    {
      "midi": 52,
      "hit": false,
      "t": 64669.72707291662,
      "d": 546.8748541666573,
      "v": 83
    },
    {
      "midi": 56,
      "hit": false,
      "t": 65173.98830208328,
      "d": 1065.340624999997,
      "v": 83
    },
    {
      "midi": 59,
      "hit": false,
      "t": 65465.18140624994,
      "d": 1193.1814999999988,
      "v": 86
    },
    {
      "midi": 68,
      "hit": false,
      "t": 65465.18140624994,
      "d": 2428.976625000003,
      "v": 96
    },
    {
      "midi": 52,
      "hit": false,
      "t": 66850.12421874994,
      "d": 546.8748541666719,
      "v": 85
    },
    {
      "midi": 56,
      "hit": false,
      "t": 67155.52186458328,
      "d": 660.5111875000002,
      "v": 99
    },
    {
      "midi": 57,
      "hit": false,
      "t": 68171.14659374995,
      "d": 2279.828937500002,
      "v": 101
    },
    {
      "midi": 61,
      "hit": false,
      "t": 68171.14659374995,
      "d": 2428.9766249999957,
      "v": 123
    },
    {
      "midi": 69,
      "hit": false,
      "t": 68171.14659374995,
      "d": 2428.9766249999957,
      "v": 107
    },
    {
      "midi": 45,
      "hit": false,
      "t": 68171.14659374995,
      "d": 2535.510687499991,
      "v": 106
    },
    {
      "midi": 64,
      "hit": false,
      "t": 68178.24886458328,
      "d": 2443.1811666666617,
      "v": 106
    },
    {
      "midi": 68,
      "hit": false,
      "t": 70919.72540624994,
      "d": 2230.113041666671,
      "v": 102
    },
    {
      "midi": 59,
      "hit": false,
      "t": 70919.72540624994,
      "d": 2343.7493749999994,
      "v": 119
    },
    {
      "midi": 64,
      "hit": false,
      "t": 70926.82767708327,
      "d": 2233.6641770833376,
      "v": 109
    },
    {
      "midi": 52,
      "hit": false,
      "t": 70926.82767708327,
      "d": 2560.368635416671,
      "v": 91
    },
    {
      "midi": 45,
      "hit": false,
      "t": 73483.64517708328,
      "d": 2382.811864583331,
      "v": 97
    },
    {
      "midi": 52,
      "hit": false,
      "t": 73632.79286458327,
      "d": 2308.2380208333343,
      "v": 102
    },
    {
      "midi": 57,
      "hit": false,
      "t": 73632.79286458327,
      "d": 2336.6471041666664,
      "v": 107
    },
    {
      "midi": 64,
      "hit": false,
      "t": 73632.79286458327,
      "d": 2336.6471041666664,
      "v": 100
    },
    {
      "midi": 61,
      "hit": false,
      "t": 73632.79286458327,
      "d": 2357.9539166666655,
      "v": 123
    },
    {
      "midi": 64,
      "hit": false,
      "t": 76360.06486458327,
      "d": 2169.743739583326,
      "v": 100
    },
    {
      "midi": 52,
      "hit": false,
      "t": 76360.06486458327,
      "d": 2407.669812499982,
      "v": 107
    },
    {
      "midi": 56,
      "hit": false,
      "t": 76395.57621874993,
      "d": 1938.9199375000026,
      "v": 127
    },
    {
      "midi": 59,
      "hit": false,
      "t": 76395.57621874993,
      "d": 2049.0051354166644,
      "v": 114
    },
    {
      "midi": 40,
      "hit": false,
      "t": 76395.57621874993,
      "d": 2215.9084999999905,
      "v": 116
    },
    {
      "midi": 52,
      "hit": false,
      "t": 79108.64367708325,
      "d": 1413.3518958333298,
      "v": 89
    },
    {
      "midi": 68,
      "hit": false,
      "t": 79279.09817708326,
      "d": 170.4545000000071,
      "v": 119
    },
    {
      "midi": 71,
      "hit": false,
      "t": 79279.09817708326,
      "d": 184.65904166667315,
      "v": 114
    },
    {
      "midi": 76,
      "hit": false,
      "t": 79279.09817708326,
      "d": 195.31244791667268,
      "v": 102
    },
    {
      "midi": 68,
      "hit": false,
      "t": 79769.15486458327,
      "d": 479.4032812499936,
      "v": 105
    },
    {
      "midi": 71,
      "hit": false,
      "t": 79769.15486458327,
      "d": 539.7725833333243,
      "v": 107
    },
    {
      "midi": 76,
      "hit": false,
      "t": 79769.15486458327,
      "d": 578.8350729166559,
      "v": 100
    },
    {
      "midi": 47,
      "hit": false,
      "t": 80465.17740624992,
      "d": 1313.9201041666674,
      "v": 91
    },
    {
      "midi": 71,
      "hit": false,
      "t": 80468.72854166658,
      "d": 962.3576979166683,
      "v": 102
    },
    {
      "midi": 75,
      "hit": false,
      "t": 80468.72854166658,
      "d": 976.5622395833343,
      "v": 100
    },
    {
      "midi": 66,
      "hit": false,
      "t": 80468.72854166658,
      "d": 1012.0735937499994,
      "v": 103
    },
    {
      "midi": 52,
      "hit": false,
      "t": 81843.01794791658,
      "d": 2471.5902499999793,
      "v": 90
    },
    {
      "midi": 64,
      "hit": false,
      "t": 82013.47244791659,
      "d": 134.94314583332743,
      "v": 98
    },
    {
      "midi": 59,
      "hit": false,
      "t": 82013.47244791659,
      "d": 149.14768749999348,
      "v": 100
    },
    {
      "midi": 68,
      "hit": false,
      "t": 82013.47244791659,
      "d": 149.14768749999348,
      "v": 98
    },
    {
      "midi": 68,
      "hit": false,
      "t": 82496.42686458325,
      "d": 461.64760416666104,
      "v": 93
    },
    {
      "midi": 64,
      "hit": false,
      "t": 82496.42686458325,
      "d": 546.8748541666573,
      "v": 95
    },
    {
      "midi": 59,
      "hit": false,
      "t": 82507.08027083325,
      "d": 436.78965624999546,
      "v": 96
    },
    {
      "midi": 69,
      "hit": false,
      "t": 83164.04032291657,
      "d": 1019.1758645833324,
      "v": 107
    },
    {
      "midi": 61,
      "hit": false,
      "t": 83192.4494062499,
      "d": 1079.5451666666631,
      "v": 119
    },
    {
      "midi": 64,
      "hit": false,
      "t": 83192.4494062499,
      "d": 1136.3633333333273,
      "v": 101
    },
    {
      "midi": 45,
      "hit": false,
      "t": 83192.4494062499,
      "d": 1178.9769583333255,
      "v": 99
    },
    {
      "midi": 59,
      "hit": false,
      "t": 84563.18767708323,
      "d": 1143.4656041666603,
      "v": 111
    },
    {
      "midi": 68,
      "hit": false,
      "t": 84563.18767708323,
      "d": 1157.6701458333264,
      "v": 102
    },
    {
      "midi": 64,
      "hit": false,
      "t": 84566.7388124999,
      "d": 1150.5678749999934,
      "v": 104
    },
    {
      "midi": 52,
      "hit": false,
      "t": 84570.28994791656,
      "d": 1115.0565208333282,
      "v": 107
    },
    {
      "midi": 47,
      "hit": false,
      "t": 85919.7214062499,
      "d": 1036.931541666665,
      "v": 93
    },
    {
      "midi": 59,
      "hit": false,
      "t": 85919.7214062499,
      "d": 1065.340624999997,
      "v": 102
    },
    {
      "midi": 63,
      "hit": false,
      "t": 85919.7214062499,
      "d": 1079.5451666666631,
      "v": 110
    },
    {
      "midi": 66,
      "hit": false,
      "t": 85919.7214062499,
      "d": 1161.221281249993,
      "v": 106
    },
    {
      "midi": 45,
      "hit": false,
      "t": 87169.72107291655,
      "d": 1360.0848645833175,
      "v": 92
    },
    {
      "midi": 64,
      "hit": false,
      "t": 87290.45967708321,
      "d": 1100.8519791666622,
      "v": 99
    },
    {
      "midi": 69,
      "hit": false,
      "t": 87290.45967708321,
      "d": 1154.1190104166599,
      "v": 111
    },
    {
      "midi": 61,
      "hit": false,
      "t": 87290.45967708321,
      "d": 1182.528093749992,
      "v": 104
    },
    {
      "midi": 52,
      "hit": false,
      "t": 87290.45967708321,
      "d": 1313.920104166653,
      "v": 101
    },
    {
      "midi": 47,
      "hit": false,
      "t": 88643.4422708332,
      "d": 994.3179166666669,
      "v": 101
    },
    {
      "midi": 59,
      "hit": false,
      "t": 88661.19794791653,
      "d": 1090.1985729166627,
      "v": 102
    },
    {
      "midi": 66,
      "hit": false,
      "t": 88661.19794791653,
      "d": 1107.9542499999952,
      "v": 106
    },
    {
      "midi": 63,
      "hit": false,
      "t": 88661.19794791653,
      "d": 1122.1587916666613,
      "v": 110
    },
    {
      "midi": 59,
      "hit": false,
      "t": 90010.62940624986,
      "d": 1899.8574479166564,
      "v": 109
    },
    {
      "midi": 68,
      "hit": false,
      "t": 90010.62940624986,
      "d": 1903.408583333323,
      "v": 105
    },
    {
      "midi": 52,
      "hit": false,
      "t": 90010.62940624986,
      "d": 1953.124479166654,
      "v": 109
    },
    {
      "midi": 64,
      "hit": false,
      "t": 90010.62940624986,
      "d": 1970.8801562499866,
      "v": 101
    },
    {
      "midi": 40,
      "hit": false,
      "t": 90014.18054166653,
      "d": 1807.527927083327,
      "v": 104
    },
    {
      "midi": 66,
      "hit": false,
      "t": 92027.67432291651,
      "d": 656.9600520833337,
      "v": 96
    },
    {
      "midi": 59,
      "hit": false,
      "t": 92056.08340624985,
      "d": 546.8748541666719,
      "v": 90
    },
    {
      "midi": 63,
      "hit": false,
      "t": 92056.08340624985,
      "d": 546.8748541666719,
      "v": 88
    },
    {
      "midi": 47,
      "hit": false,
      "t": 92056.08340624985,
      "d": 738.6361666666635,
      "v": 86
    },
    {
      "midi": 57,
      "hit": false,
      "t": 92745.00367708318,
      "d": 1541.1927708333242,
      "v": 100
    },
    {
      "midi": 61,
      "hit": false,
      "t": 92745.00367708318,
      "d": 1569.6018541666563,
      "v": 105
    },
    {
      "midi": 45,
      "hit": false,
      "t": 92745.00367708318,
      "d": 1583.8063958333223,
      "v": 90
    },
    {
      "midi": 64,
      "hit": false,
      "t": 92745.00367708318,
      "d": 1637.07342708332,
      "v": 97
    },
    {
      "midi": 68,
      "hit": false,
      "t": 94769.15086458316,
      "d": 568.1816666666709,
      "v": 99
    },
    {
      "midi": 49,
      "hit": false,
      "t": 94769.15086458316,
      "d": 578.8350729166705,
      "v": 115
    },
    {
      "midi": 61,
      "hit": false,
      "t": 94769.15086458316,
      "d": 582.386208333337,
      "v": 112
    },
    {
      "midi": 64,
      "hit": false,
      "t": 94769.15086458316,
      "d": 603.693020833336,
      "v": 104
    },
    {
      "midi": 63,
      "hit": false,
      "t": 95436.7643229165,
      "d": 1470.170062499994,
      "v": 96
    },
    {
      "midi": 66,
      "hit": false,
      "t": 95436.7643229165,
      "d": 1544.7439062499907,
      "v": 98
    },
    {
      "midi": 59,
      "hit": false,
      "t": 95443.86659374983,
      "d": 1523.4370937499916,
      "v": 104
    },
    {
      "midi": 47,
      "hit": false,
      "t": 95443.86659374983,
      "d": 1626.4200208333205,
      "v": 97
    },
    {
      "midi": 56,
      "hit": false,
      "t": 97482.21832291648,
      "d": 553.9771250000049,
      "v": 110
    },
    {
      "midi": 59,
      "hit": false,
      "t": 97482.21832291648,
      "d": 589.48847916667,
      "v": 102
    },
    {
      "midi": 63,
      "hit": false,
      "t": 97482.21832291648,
      "d": 653.4089166666672,
      "v": 95
    },
    {
      "midi": 44,
      "hit": false,
      "t": 97482.21832291648,
      "d": 688.9202708333323,
      "v": 106
    },
    {
      "midi": 57,
      "hit": false,
      "t": 98199.54767708314,
      "d": 553.9771250000049,
      "v": 102
    },
    {
      "midi": 61,
      "hit": false,
      "t": 98199.54767708314,
      "d": 585.9373437500035,
      "v": 98
    },
    {
      "midi": 64,
      "hit": false,
      "t": 98199.54767708314,
      "d": 589.48847916667,
      "v": 98
    },
    {
      "midi": 45,
      "hit": false,
      "t": 98199.54767708314,
      "d": 621.4486979166686,
      "v": 99
    },
    {
      "midi": 49,
      "hit": false,
      "t": 99200.96786458314,
      "d": 323.1533229166671,
      "v": 110
    },
    {
      "midi": 61,
      "hit": false,
      "t": 99211.62127083314,
      "d": 245.02834375000384,
      "v": 119
    },
    {
      "midi": 68,
      "hit": false,
      "t": 99211.62127083314,
      "d": 245.02834375000384,
      "v": 102
    },
    {
      "midi": 64,
      "hit": false,
      "t": 99211.62127083314,
      "d": 287.641968750002,
      "v": 101
    },
    {
      "midi": 59,
      "hit": false,
      "t": 99541.87686458314,
      "d": 1118.6076562499948,
      "v": 101
    },
    {
      "midi": 66,
      "hit": false,
      "t": 99541.87686458314,
      "d": 1221.5905833333236,
      "v": 90
    },
    {
      "midi": 47,
      "hit": false,
      "t": 99541.87686458314,
      "d": 1331.6757812499854,
      "v": 94
    },
    {
      "midi": 63,
      "hit": false,
      "t": 99541.87686458314,
      "d": 1335.226916666652,
      "v": 105
    },
    {
      "midi": 68,
      "hit": false,
      "t": 100905.51286458313,
      "d": 2340.198239583333,
      "v": 102
    },
    {
      "midi": 59,
      "hit": false,
      "t": 100905.51286458313,
      "d": 2539.0618229166575,
      "v": 127
    },
    {
      "midi": 64,
      "hit": false,
      "t": 100909.0639999998,
      "d": 2311.789156250001,
      "v": 101
    },
    {
      "midi": 52,
      "hit": false,
      "t": 100909.0639999998,
      "d": 3128.550302083313,
      "v": 97
    },
    {
      "midi": 40,
      "hit": false,
      "t": 100962.33103124979,
      "d": 2407.6698124999966,
      "v": 102
    },
    {
      "midi": 59,
      "hit": false,
      "t": 103632.78486458311,
      "d": 1629.971156249987,
      "v": 95
    },
    {
      "midi": 64,
      "hit": false,
      "t": 103632.78486458311,
      "d": 2563.919770833323,
      "v": 94
    },
    {
      "midi": 52,
      "hit": false,
      "t": 105188.1821770831,
      "d": 88.77838541666279,
      "v": 104
    },
    {
      "midi": 52,
      "hit": false,
      "t": 106246.42053124977,
      "d": 5134.941812499979,
      "v": 101
    },
    {
      "midi": 59,
      "hit": false,
      "t": 106370.7102708331,
      "d": 2404.11867708333,
      "v": 109
    },
    {
      "midi": 64,
      "hit": false,
      "t": 106370.7102708331,
      "d": 2446.7323020833282,
      "v": 104
    },
    {
      "midi": 40,
      "hit": false,
      "t": 107034.77259374976,
      "d": 4289.77158333332,
      "v": 97
    },
    {
      "midi": 59,
      "hit": false,
      "t": 109051.81751041643,
      "d": 2297.58461458332,
      "v": 90
    },
    {
      "midi": 64,
      "hit": false,
      "t": 109097.98227083309,
      "d": 2141.3346562499937,
      "v": 90
    },
    {
      "midi": 68,
      "hit": false,
      "t": 109097.98227083309,
      "d": 2166.1926041666593,
      "v": 83
    },
    {
      "midi": 45,
      "hit": false,
      "t": 111665.45317708308,
      "d": 2489.3459270833264,
      "v": 94
    },
    {
      "midi": 57,
      "hit": false,
      "t": 111779.08951041641,
      "d": 699.5736770833319,
      "v": 107
    },
    {
      "midi": 69,
      "hit": false,
      "t": 111779.08951041641,
      "d": 2489.3459270833264,
      "v": 127
    },
    {
      "midi": 64,
      "hit": false,
      "t": 111779.08951041641,
      "d": 2631.391343749987,
      "v": 116
    },
    {
      "midi": 52,
      "hit": false,
      "t": 112475.11205208307,
      "d": 1796.8745208333276,
      "v": 95
    },
    {
      "midi": 61,
      "hit": false,
      "t": 112823.1233229164,
      "d": 1434.6587083333288,
      "v": 91
    },
    {
      "midi": 40,
      "hit": false,
      "t": 114385.62290624973,
      "d": 2606.5333958333213,
      "v": 83
    },
    {
      "midi": 59,
      "hit": false,
      "t": 114541.87286458306,
      "d": 788.3520624999946,
      "v": 111
    },
    {
      "midi": 64,
      "hit": false,
      "t": 114570.28194791639,
      "d": 774.1475208333286,
      "v": 104
    },
    {
      "midi": 68,
      "hit": false,
      "t": 114570.28194791639,
      "d": 816.7611458333267,
      "v": 102
    },
    {
      "midi": 52,
      "hit": false,
      "t": 114570.28194791639,
      "d": 5284.089499999987,
      "v": 107
    },
    {
      "midi": 71,
      "hit": false,
      "t": 115933.91794791639,
      "d": 1022.726999999999,
      "v": 116
    },
    {
      "midi": 76,
      "hit": false,
      "t": 115933.91794791639,
      "d": 1022.726999999999,
      "v": 114
    },
    {
      "midi": 64,
      "hit": false,
      "t": 115933.91794791639,
      "d": 1093.7497083333292,
      "v": 114
    },
    {
      "midi": 45,
      "hit": false,
      "t": 117297.55394791639,
      "d": 2272.726666666669,
      "v": 100
    },
    {
      "midi": 64,
      "hit": false,
      "t": 117297.55394791639,
      "d": 2432.527760416662,
      "v": 100
    },
    {
      "midi": 61,
      "hit": false,
      "t": 117297.55394791639,
      "d": 2457.385708333328,
      "v": 119
    },
    {
      "midi": 69,
      "hit": false,
      "t": 117297.55394791639,
      "d": 2457.385708333328,
      "v": 107
    },
    {
      "midi": 40,
      "hit": false,
      "t": 119861.47371874971,
      "d": 2578.124312499989,
      "v": 83
    },
    {
      "midi": 59,
      "hit": false,
      "t": 119996.41686458304,
      "d": 2460.9368437499943,
      "v": 106
    },
    {
      "midi": 52,
      "hit": false,
      "t": 119996.41686458304,
      "d": 2585.226583333322,
      "v": 109
    },
    {
      "midi": 68,
      "hit": false,
      "t": 120039.03048958303,
      "d": 2400.5675416666636,
      "v": 104
    },
    {
      "midi": 64,
      "hit": false,
      "t": 120039.03048958303,
      "d": 2421.8743541666627,
      "v": 104
    },
    {
      "midi": 40,
      "hit": false,
      "t": 122588.74571874969,
      "d": 1278.4087499999878,
      "v": 97
    },
    {
      "midi": 52,
      "hit": false,
      "t": 122723.68886458302,
      "d": 983.6645104166673,
      "v": 106
    },
    {
      "midi": 64,
      "hit": false,
      "t": 122723.68886458302,
      "d": 1012.0735937499994,
      "v": 111
    },
    {
      "midi": 59,
      "hit": false,
      "t": 122727.23999999969,
      "d": 525.5680416666728,
      "v": 111
    },
    {
      "midi": 68,
      "hit": false,
      "t": 122727.23999999969,
      "d": 1012.0735937499994,
      "v": 110
    },
    {
      "midi": 61,
      "hit": false,
      "t": 123732.21132291635,
      "d": 234.37493749998976,
      "v": 112
    },
    {
      "midi": 59,
      "hit": false,
      "t": 124101.52940624967,
      "d": 1218.039447916657,
      "v": 97
    },
    {
      "midi": 63,
      "hit": false,
      "t": 124122.83621874967,
      "d": 1022.726999999999,
      "v": 92
    },
    {
      "midi": 47,
      "hit": false,
      "t": 124122.83621874967,
      "d": 1178.9769583333255,
      "v": 101
    },
    {
      "midi": 40,
      "hit": false,
      "t": 125294.71090624966,
      "d": 912.6418020833225,
      "v": 95
    },
    {
      "midi": 68,
      "hit": false,
      "t": 125443.85859374965,
      "d": 1292.6132916666538,
      "v": 98
    },
    {
      "midi": 59,
      "hit": false,
      "t": 125472.26767708299,
      "d": 1218.039447916657,
      "v": 123
    },
    {
      "midi": 64,
      "hit": false,
      "t": 125472.26767708299,
      "d": 1235.7951249999896,
      "v": 99
    },
    {
      "midi": 52,
      "hit": false,
      "t": 125472.26767708299,
      "d": 3824.572843749964,
      "v": 114
    },
    {
      "midi": 45,
      "hit": false,
      "t": 126828.80140624964,
      "d": 1015.6247291666514,
      "v": 88
    },
    {
      "midi": 61,
      "hit": false,
      "t": 127166.15927083297,
      "d": 202.4147187500057,
      "v": 119
    },
    {
      "midi": 69,
      "hit": false,
      "t": 127166.15927083297,
      "d": 216.61926041667175,
      "v": 107
    },
    {
      "midi": 64,
      "hit": false,
      "t": 127166.15927083297,
      "d": 227.27266666667128,
      "v": 104
    },
    {
      "midi": 61,
      "hit": false,
      "t": 127517.72167708297,
      "d": 156.2499583333265,
      "v": 105
    },
    {
      "midi": 69,
      "hit": false,
      "t": 127517.72167708297,
      "d": 422.58511458331486,
      "v": 107
    },
    {
      "midi": 64,
      "hit": false,
      "t": 127517.72167708297,
      "d": 426.1362499999814,
      "v": 101
    },
    {
      "midi": 61,
      "hit": false,
      "t": 127681.07390624963,
      "d": 262.78402083332185,
      "v": 94
    },
    {
      "midi": 40,
      "hit": false,
      "t": 128114.31242708296,
      "d": 42.61362499999814,
      "v": 104
    },
    {
      "midi": 59,
      "hit": false,
      "t": 128213.74421874962,
      "d": 1221.5905833333236,
      "v": 102
    },
    {
      "midi": 64,
      "hit": false,
      "t": 128213.74421874962,
      "d": 1221.5905833333236,
      "v": 102
    },
    {
      "midi": 68,
      "hit": false,
      "t": 128213.74421874962,
      "d": 1264.2042083333217,
      "v": 99
    },
    {
      "midi": 63,
      "hit": false,
      "t": 129552.52227083294,
      "d": 1075.9940312499966,
      "v": 110
    },
    {
      "midi": 59,
      "hit": false,
      "t": 129552.52227083294,
      "d": 1083.0963020833296,
      "v": 111
    },
    {
      "midi": 66,
      "hit": false,
      "t": 129552.52227083294,
      "d": 1093.7497083333292,
      "v": 103
    },
    {
      "midi": 47,
      "hit": false,
      "t": 129552.52227083294,
      "d": 1392.0450833333307,
      "v": 95
    },
    {
      "midi": 69,
      "hit": false,
      "t": 130933.91394791627,
      "d": 891.3349895833235,
      "v": 116
    },
    {
      "midi": 61,
      "hit": false,
      "t": 130933.91394791627,
      "d": 894.88612499999,
      "v": 119
    },
    {
      "midi": 45,
      "hit": false,
      "t": 130933.91394791627,
      "d": 1260.6530729166698,
      "v": 96
    },
    {
      "midi": 64,
      "hit": false,
      "t": 130937.46508333294,
      "d": 891.3349895833235,
      "v": 102
    },
    {
      "midi": 47,
      "hit": false,
      "t": 132191.01588541627,
      "d": 1317.471239583334,
      "v": 97
    },
    {
      "midi": 71,
      "hit": false,
      "t": 132279.79427083294,
      "d": 1083.0963020833442,
      "v": 119
    },
    {
      "midi": 59,
      "hit": false,
      "t": 132279.79427083294,
      "d": 1154.1190104166744,
      "v": 111
    },
    {
      "midi": 66,
      "hit": false,
      "t": 132283.3454062496,
      "d": 1150.567875000008,
      "v": 123
    },
    {
      "midi": 40,
      "hit": false,
      "t": 133490.73144791627,
      "d": 830.9656874999928,
      "v": 97
    },
    {
      "midi": 52,
      "hit": false,
      "t": 133625.6745937496,
      "d": 1818.1813333333412,
      "v": 119
    },
    {
      "midi": 68,
      "hit": false,
      "t": 133646.9814062496,
      "d": 1740.056354166678,
      "v": 105
    },
    {
      "midi": 59,
      "hit": false,
      "t": 133646.9814062496,
      "d": 1843.0392812500068,
      "v": 119
    },
    {
      "midi": 64,
      "hit": false,
      "t": 133654.08367708293,
      "d": 1704.5450000000128,
      "v": 109
    },
    {
      "midi": 63,
      "hit": false,
      "t": 135692.4354062496,
      "d": 536.2214479166723,
      "v": 119
    },
    {
      "midi": 59,
      "hit": false,
      "t": 135692.4354062496,
      "d": 561.0793958333379,
      "v": 106
    },
    {
      "midi": 66,
      "hit": false,
      "t": 135692.4354062496,
      "d": 667.6134583333333,
      "v": 112
    },
    {
      "midi": 47,
      "hit": false,
      "t": 135692.4354062496,
      "d": 688.9202708333323,
      "v": 90
    },
    {
      "midi": 61,
      "hit": false,
      "t": 136374.2534062496,
      "d": 1825.2836041666742,
      "v": 98
    },
    {
      "midi": 45,
      "hit": false,
      "t": 136395.5602187496,
      "d": 1740.056354166678,
      "v": 97
    },
    {
      "midi": 64,
      "hit": false,
      "t": 136395.5602187496,
      "d": 1796.874520833342,
      "v": 85
    },
    {
      "midi": 57,
      "hit": false,
      "t": 136402.66248958293,
      "d": 1761.363166666677,
      "v": 96
    },
    {
      "midi": 61,
      "hit": false,
      "t": 138419.7074062496,
      "d": 546.8748541666719,
      "v": 106
    },
    {
      "midi": 64,
      "hit": false,
      "t": 138419.7074062496,
      "d": 632.1021041666681,
      "v": 102
    },
    {
      "midi": 49,
      "hit": false,
      "t": 138419.7074062496,
      "d": 692.4714062499988,
      "v": 119
    },
    {
      "midi": 68,
      "hit": false,
      "t": 138426.80967708293,
      "d": 553.9771250000049,
      "v": 105
    },
    {
      "midi": 66,
      "hit": false,
      "t": 139101.5254062496,
      "d": 1803.9767916666751,
      "v": 105
    },
    {
      "midi": 47,
      "hit": false,
      "t": 139101.5254062496,
      "d": 1924.7153958333365,
      "v": 97
    },
    {
      "midi": 63,
      "hit": false,
      "t": 139105.07654166626,
      "d": 1715.1984062500123,
      "v": 106
    },
    {
      "midi": 59,
      "hit": false,
      "t": 139108.62767708293,
      "d": 1736.5052187500114,
      "v": 107
    },
    {
      "midi": 59,
      "hit": false,
      "t": 141146.9794062496,
      "d": 593.0396145833365,
      "v": 101
    },
    {
      "midi": 63,
      "hit": false,
      "t": 141146.9794062496,
      "d": 628.5509687500016,
      "v": 95
    },
    {
      "midi": 56,
      "hit": false,
      "t": 141146.9794062496,
      "d": 646.3066458333342,
      "v": 104
    },
    {
      "midi": 44,
      "hit": false,
      "t": 141150.53054166626,
      "d": 511.36350000000675,
      "v": 99
    },
    {
      "midi": 61,
      "hit": false,
      "t": 141800.38832291626,
      "d": 696.0225416666653,
      "v": 95
    },
    {
      "midi": 45,
      "hit": false,
      "t": 141800.38832291626,
      "d": 763.4941145833291,
      "v": 94
    },
    {
      "midi": 57,
      "hit": false,
      "t": 141807.4905937496,
      "d": 688.9202708333323,
      "v": 102
    },
    {
      "midi": 64,
      "hit": false,
      "t": 141807.4905937496,
      "d": 706.6759479166649,
      "v": 95
    },
    {
      "midi": 49,
      "hit": false,
      "t": 142830.21759374958,
      "d": 383.52262499998324,
      "v": 103
    },
    {
      "midi": 68,
      "hit": false,
      "t": 142851.52440624958,
      "d": 241.47720833332278,
      "v": 99
    },
    {
      "midi": 61,
      "hit": false,
      "t": 142858.6266770829,
      "d": 234.37493749998976,
      "v": 112
    },
    {
      "midi": 64,
      "hit": false,
      "t": 142858.6266770829,
      "d": 298.29537499998696,
      "v": 95
    },
    {
      "midi": 66,
      "hit": false,
      "t": 143178.2288645829,
      "d": 1249.9996666666702,
      "v": 90
    },
    {
      "midi": 59,
      "hit": false,
      "t": 143206.63794791623,
      "d": 1221.5905833333381,
      "v": 95
    },
    {
      "midi": 63,
      "hit": false,
      "t": 143206.63794791623,
      "d": 1313.9201041666674,
      "v": 102
    },
    {
      "midi": 47,
      "hit": false,
      "t": 143206.63794791623,
      "d": 1392.0450833333307,
      "v": 90
    },
    {
      "midi": 52,
      "hit": false,
      "t": 144563.1716770829,
      "d": 1938.9199375000026,
      "v": 98
    },
    {
      "midi": 64,
      "hit": false,
      "t": 144563.1716770829,
      "d": 1938.9199375000026,
      "v": 94
    },
    {
      "midi": 68,
      "hit": false,
      "t": 144591.58076041623,
      "d": 1825.2836041666742,
      "v": 98
    },
    {
      "midi": 59,
      "hit": false,
      "t": 144591.58076041623,
      "d": 1853.6926875000063,
      "v": 107
    },
    {
      "midi": 63,
      "hit": false,
      "t": 146587.3188645829,
      "d": 539.7725833333388,
      "v": 99
    },
    {
      "midi": 59,
      "hit": false,
      "t": 146587.3188645829,
      "d": 550.4259895833384,
      "v": 95
    },
    {
      "midi": 66,
      "hit": false,
      "t": 146587.3188645829,
      "d": 603.693020833336,
      "v": 104
    },
    {
      "midi": 47,
      "hit": false,
      "t": 146587.3188645829,
      "d": 667.6134583333333,
      "v": 91
    },
    {
      "midi": 57,
      "hit": false,
      "t": 147269.1368645829,
      "d": 1818.1813333333412,
      "v": 100
    },
    {
      "midi": 45,
      "hit": false,
      "t": 147269.1368645829,
      "d": 1864.3460937500058,
      "v": 86
    },
    {
      "midi": 61,
      "hit": false,
      "t": 147269.1368645829,
      "d": 1910.5108541666705,
      "v": 99
    },
    {
      "midi": 64,
      "hit": false,
      "t": 147272.68799999956,
      "d": 1878.5506354166719,
      "v": 87
    },
    {
      "midi": 49,
      "hit": false,
      "t": 149325.2442708329,
      "d": 564.6305312500044,
      "v": 108
    },
    {
      "midi": 61,
      "hit": false,
      "t": 149328.79540624956,
      "d": 525.5680416666728,
      "v": 98
    },
    {
      "midi": 68,
      "hit": false,
      "t": 149328.79540624956,
      "d": 539.7725833333388,
      "v": 94
    },
    {
      "midi": 64,
      "hit": false,
      "t": 149328.79540624956,
      "d": 571.7328020833374,
      "v": 95
    },
    {
      "midi": 63,
      "hit": false,
      "t": 150024.81794791622,
      "d": 1789.772250000009,
      "v": 98
    },
    {
      "midi": 59,
      "hit": false,
      "t": 150024.81794791622,
      "d": 1828.8347395833407,
      "v": 97
    },
    {
      "midi": 66,
      "hit": false,
      "t": 150024.81794791622,
      "d": 1874.9995000000054,
      "v": 100
    },
    {
      "midi": 47,
      "hit": false,
      "t": 150024.81794791622,
      "d": 1885.652906250005,
      "v": 94
    },
    {
      "midi": 56,
      "hit": false,
      "t": 152063.1696770829,
      "d": 518.4657708333398,
      "v": 104
    },
    {
      "midi": 44,
      "hit": false,
      "t": 152063.1696770829,
      "d": 543.3237187500054,
      "v": 106
    },
    {
      "midi": 63,
      "hit": false,
      "t": 152063.1696770829,
      "d": 585.9373437500035,
      "v": 91
    },
    {
      "midi": 59,
      "hit": false,
      "t": 152063.1696770829,
      "d": 603.693020833336,
      "v": 97
    },
    {
      "midi": 57,
      "hit": false,
      "t": 152737.88540624955,
      "d": 582.386208333337,
      "v": 119
    },
    {
      "midi": 61,
      "hit": false,
      "t": 152737.88540624955,
      "d": 607.2441562500026,
      "v": 98
    },
    {
      "midi": 64,
      "hit": false,
      "t": 152737.88540624955,
      "d": 621.4486979166686,
      "v": 94
    },
    {
      "midi": 45,
      "hit": false,
      "t": 152737.88540624955,
      "d": 823.8634166666598,
      "v": 96
    },
    {
      "midi": 61,
      "hit": false,
      "t": 153732.2033229162,
      "d": 262.78402083332185,
      "v": 115
    },
    {
      "midi": 68,
      "hit": false,
      "t": 153732.2033229162,
      "d": 262.78402083332185,
      "v": 98
    },
    {
      "midi": 64,
      "hit": false,
      "t": 153732.2033229162,
      "d": 312.499916666653,
      "v": 97
    },
    {
      "midi": 49,
      "hit": false,
      "t": 153732.2033229162,
      "d": 348.0112708333181,
      "v": 106
    },
    {
      "midi": 66,
      "hit": false,
      "t": 154097.97027083286,
      "d": 1104.4031145833433,
      "v": 83
    },
    {
      "midi": 59,
      "hit": false,
      "t": 154097.97027083286,
      "d": 1115.0565208333428,
      "v": 95
    },
    {
      "midi": 47,
      "hit": false,
      "t": 154097.97027083286,
      "d": 1296.1644270833349,
      "v": 93
    },
    {
      "midi": 63,
      "hit": false,
      "t": 154101.52140624952,
      "d": 1171.874687500007,
      "v": 99
    },
    {
      "midi": 40,
      "hit": false,
      "t": 155443.85059374952,
      "d": 4012.7830208333326,
      "v": 83
    },
    {
      "midi": 59,
      "hit": false,
      "t": 155465.15740624952,
      "d": 4975.140718749986,
      "v": 107
    },
    {
      "midi": 64,
      "hit": false,
      "t": 155465.15740624952,
      "d": 5063.919104166649,
      "v": 99
    },
    {
      "midi": 52,
      "hit": false,
      "t": 155465.15740624952,
      "d": 9414.0599895833,
      "v": 90
    },
    {
      "midi": 68,
      "hit": false,
      "t": 155472.25967708285,
      "d": 5092.328187499981,
      "v": 100
    },
    {
      "midi": 40,
      "hit": false,
      "t": 160429.6447187495,
      "d": 56.81816666666418,
      "v": 100
    },
    {
      "midi": 59,
      "hit": false,
      "t": 160756.34917708283,
      "d": 4481.532895833312,
      "v": 107
    },
    {
      "midi": 64,
      "hit": false,
      "t": 160926.80367708282,
      "d": 4279.118177083321,
      "v": 98
    },
    {
      "midi": 68,
      "hit": false,
      "t": 160926.80367708282,
      "d": 4282.669312499987,
      "v": 106
    },
    {
      "midi": 40,
      "hit": false,
      "t": 165202.37071874947,
      "d": 1139.9144687499793,
      "v": 101
    },
    {
      "midi": 52,
      "hit": false,
      "t": 165529.0751770828,
      "d": 632.1021041666681,
      "v": 94
    },
    {
      "midi": 59,
      "hit": false,
      "t": 165692.42740624945,
      "d": 454.54533333334257,
      "v": 109
    },
    {
      "midi": 68,
      "hit": false,
      "t": 165692.42740624945,
      "d": 479.40328125000815,
      "v": 103
    },
    {
      "midi": 64,
      "hit": false,
      "t": 165692.42740624945,
      "d": 536.2214479166723,
      "v": 102
    },
    {
      "midi": 69,
      "hit": false,
      "t": 166370.69427083278,
      "d": 2393.465270833345,
      "v": 111
    },
    {
      "midi": 45,
      "hit": false,
      "t": 166370.69427083278,
      "d": 2688.2095104166656,
      "v": 101
    },
    {
      "midi": 64,
      "hit": false,
      "t": 166374.24540624945,
      "d": 2468.039114583342,
      "v": 100
    },
    {
      "midi": 61,
      "hit": false,
      "t": 166374.24540624945,
      "d": 2492.8970625000075,
      "v": 110
    },
    {
      "midi": 40,
      "hit": false,
      "t": 169030.49469791612,
      "d": 2663.351562499971,
      "v": 95
    },
    {
      "midi": 59,
      "hit": false,
      "t": 169137.0287604161,
      "d": 2428.976624999981,
      "v": 97
    },
    {
      "midi": 68,
      "hit": false,
      "t": 169137.0287604161,
      "d": 2443.181166666647,
      "v": 91
    },
    {
      "midi": 52,
      "hit": false,
      "t": 169172.54011458278,
      "d": 2336.647104166652,
      "v": 92
    },
    {
      "midi": 64,
      "hit": false,
      "t": 169172.54011458278,
      "d": 2443.181166666647,
      "v": 90
    },
    {
      "midi": 69,
      "hit": false,
      "t": 171825.23827083275,
      "d": 2297.58461458332,
      "v": 109
    },
    {
      "midi": 64,
      "hit": false,
      "t": 171825.23827083275,
      "d": 2382.8118645833165,
      "v": 100
    },
    {
      "midi": 61,
      "hit": false,
      "t": 171825.23827083275,
      "d": 2411.2209479166486,
      "v": 105
    },
    {
      "midi": 45,
      "hit": false,
      "t": 171828.78940624942,
      "d": 2567.470906249975,
      "v": 92
    },
    {
      "midi": 40,
      "hit": false,
      "t": 174392.70917708272,
      "d": 2656.249291666667,
      "v": 102
    },
    {
      "midi": 52,
      "hit": false,
      "t": 174534.75459374939,
      "d": 4005.6807499999995,
      "v": 127
    },
    {
      "midi": 68,
      "hit": false,
      "t": 174556.06140624938,
      "d": 2492.8970625000075,
      "v": 97
    },
    {
      "midi": 59,
      "hit": false,
      "t": 174563.16367708272,
      "d": 2528.4084166666726,
      "v": 98
    },
    {
      "midi": 64,
      "hit": false,
      "t": 174563.16367708272,
      "d": 2528.4084166666726,
      "v": 96
    },
    {
      "midi": 59,
      "hit": false,
      "t": 177269.12886458272,
      "d": 1242.8973958333372,
      "v": 95
    },
    {
      "midi": 64,
      "hit": false,
      "t": 177269.12886458272,
      "d": 1289.0621562500019,
      "v": 99
    },
    {
      "midi": 40,
      "hit": false,
      "t": 177272.67999999938,
      "d": 1125.7099270833423,
      "v": 102
    },
    {
      "midi": 68,
      "hit": false,
      "t": 177272.67999999938,
      "d": 1253.5508020833367,
      "v": 105
    },
    {
      "midi": 59,
      "hit": false,
      "t": 178632.7648645827,
      "d": 1278.4087500000023,
      "v": 98
    },
    {
      "midi": 66,
      "hit": false,
      "t": 178632.7648645827,
      "d": 1331.67578125,
      "v": 104
    },
    {
      "midi": 47,
      "hit": false,
      "t": 178632.7648645827,
      "d": 1381.3916770833312,
      "v": 93
    },
    {
      "midi": 63,
      "hit": false,
      "t": 178636.31599999938,
      "d": 1381.3916770833312,
      "v": 102
    },
    {
      "midi": 40,
      "hit": false,
      "t": 180007.0542708327,
      "d": 1352.98259374997,
      "v": 90
    },
    {
      "midi": 52,
      "hit": false,
      "t": 180010.60540624938,
      "d": 1143.4656041666458,
      "v": 92
    },
    {
      "midi": 59,
      "hit": false,
      "t": 180351.5144062494,
      "d": 184.6590416666586,
      "v": 104
    },
    {
      "midi": 64,
      "hit": false,
      "t": 180351.5144062494,
      "d": 184.6590416666586,
      "v": 98
    },
    {
      "midi": 68,
      "hit": false,
      "t": 180351.5144062494,
      "d": 202.41471874999115,
      "v": 97
    },
    {
      "midi": 68,
      "hit": false,
      "t": 180862.87790624937,
      "d": 248.5794791666558,
      "v": 97
    },
    {
      "midi": 59,
      "hit": false,
      "t": 180869.9801770827,
      "d": 220.1703958333237,
      "v": 102
    },
    {
      "midi": 64,
      "hit": false,
      "t": 180869.9801770827,
      "d": 220.1703958333237,
      "v": 98
    },
    {
      "midi": 69,
      "hit": false,
      "t": 181374.24140624935,
      "d": 1051.1360833333456,
      "v": 116
    },
    {
      "midi": 61,
      "hit": false,
      "t": 181374.24140624935,
      "d": 1136.3633333333419,
      "v": 123
    },
    {
      "midi": 64,
      "hit": false,
      "t": 181374.24140624935,
      "d": 1147.0167395833414,
      "v": 98
    },
    {
      "midi": 45,
      "hit": false,
      "t": 181374.24140624935,
      "d": 1356.5337291666656,
      "v": 97
    },
    {
      "midi": 40,
      "hit": false,
      "t": 182702.36605208268,
      "d": 1203.8349062499765,
      "v": 83
    },
    {
      "midi": 52,
      "hit": false,
      "t": 182702.36605208268,
      "d": 1253.5508020833076,
      "v": 94
    },
    {
      "midi": 41,
      "hit": false,
      "t": 182723.67286458268,
      "d": 142.04541666666046,
      "v": 91
    },
    {
      "midi": 59,
      "hit": false,
      "t": 183078.78640624933,
      "d": 880.6815833333239,
      "v": 104
    },
    {
      "midi": 68,
      "hit": false,
      "t": 183078.78640624933,
      "d": 891.3349895833235,
      "v": 98
    },
    {
      "midi": 64,
      "hit": false,
      "t": 183078.78640624933,
      "d": 916.1929374999891,
      "v": 97
    },
    {
      "midi": 59,
      "hit": false,
      "t": 184097.96227083265,
      "d": 1029.8292708333465,
      "v": 116
    },
    {
      "midi": 66,
      "hit": false,
      "t": 184097.96227083265,
      "d": 1075.9940312500112,
      "v": 105
    },
    {
      "midi": 47,
      "hit": false,
      "t": 184097.96227083265,
      "d": 1374.2894062499981,
      "v": 93
    },
    {
      "midi": 63,
      "hit": false,
      "t": 184101.51340624932,
      "d": 1083.0963020833442,
      "v": 115
    },
    {
      "midi": 69,
      "hit": false,
      "t": 185461.59827083265,
      "d": 1047.584947916679,
      "v": 106
    },
    {
      "midi": 61,
      "hit": false,
      "t": 185461.59827083265,
      "d": 1104.4031145833433,
      "v": 112
    },
    {
      "midi": 64,
      "hit": false,
      "t": 185461.59827083265,
      "d": 1125.7099270833423,
      "v": 98
    },
    {
      "midi": 45,
      "hit": false,
      "t": 185465.14940624931,
      "d": 390.62489583334536,
      "v": 100
    },
    {
      "midi": 59,
      "hit": false,
      "t": 186828.7854062493,
      "d": 1164.772416666674,
      "v": 106
    },
    {
      "midi": 66,
      "hit": false,
      "t": 186828.7854062493,
      "d": 1178.97695833334,
      "v": 105
    },
    {
      "midi": 63,
      "hit": false,
      "t": 186828.7854062493,
      "d": 1221.5905833333381,
      "v": 106
    },
    {
      "midi": 47,
      "hit": false,
      "t": 186828.7854062493,
      "d": 1338.778052083333,
      "v": 90
    },
    {
      "midi": 52,
      "hit": false,
      "t": 188199.52367708265,
      "d": 1807.5279270833416,
      "v": 98
    },
    {
      "midi": 40,
      "hit": false,
      "t": 188199.52367708265,
      "d": 1821.7324687500077,
      "v": 93
    },
    {
      "midi": 59,
      "hit": false,
      "t": 188199.52367708265,
      "d": 1889.2040416666714,
      "v": 111
    },
    {
      "midi": 68,
      "hit": false,
      "t": 188199.52367708265,
      "d": 1889.2040416666714,
      "v": 98
    },
    {
      "midi": 64,
      "hit": false,
      "t": 188199.52367708265,
      "d": 1917.6131250000035,
      "v": 97
    },
    {
      "midi": 63,
      "hit": false,
      "t": 190237.8754062493,
      "d": 543.3237187500054,
      "v": 115
    },
    {
      "midi": 59,
      "hit": false,
      "t": 190237.8754062493,
      "d": 561.0793958333379,
      "v": 111
    },
    {
      "midi": 66,
      "hit": false,
      "t": 190237.8754062493,
      "d": 617.8975625000021,
      "v": 108
    },
    {
      "midi": 47,
      "hit": false,
      "t": 190237.8754062493,
      "d": 660.5111875000002,
      "v": 95
    },
    {
      "midi": 45,
      "hit": false,
      "t": 190905.48886458264,
      "d": 1970.880156249972,
      "v": 88
    },
    {
      "midi": 57,
      "hit": false,
      "t": 190933.89794791598,
      "d": 1647.7268333333195,
      "v": 107
    },
    {
      "midi": 61,
      "hit": false,
      "t": 190933.89794791598,
      "d": 1704.5449999999837,
      "v": 106
    },
    {
      "midi": 64,
      "hit": false,
      "t": 190933.89794791598,
      "d": 1715.1984062499832,
      "v": 91
    },
    {
      "midi": 49,
      "hit": false,
      "t": 192950.9428645826,
      "d": 653.4089166666672,
      "v": 115
    },
    {
      "midi": 61,
      "hit": false,
      "t": 192961.5962708326,
      "d": 529.1191770833393,
      "v": 106
    },
    {
      "midi": 68,
      "hit": false,
      "t": 192961.5962708326,
      "d": 529.1191770833393,
      "v": 99
    },
    {
      "midi": 64,
      "hit": false,
      "t": 192961.5962708326,
      "d": 628.5509687500016,
      "v": 97
    },
    {
      "midi": 63,
      "hit": false,
      "t": 193646.96540624928,
      "d": 1612.2154791666544,
      "v": 97
    },
    {
      "midi": 66,
      "hit": false,
      "t": 193646.96540624928,
      "d": 1640.6245624999865,
      "v": 103
    },
    {
      "midi": 59,
      "hit": false,
      "t": 193646.96540624928,
      "d": 1672.584781249985,
      "v": 101
    },
    {
      "midi": 47,
      "hit": false,
      "t": 193646.96540624928,
      "d": 1832.3858749999781,
      "v": 89
    },
    {
      "midi": 44,
      "hit": false,
      "t": 195688.86827083258,
      "d": 564.6305312500044,
      "v": 103
    },
    {
      "midi": 63,
      "hit": false,
      "t": 195688.86827083258,
      "d": 628.5509687500016,
      "v": 95
    },
    {
      "midi": 56,
      "hit": false,
      "t": 195692.41940624925,
      "d": 511.36350000000675,
      "v": 106
    },
    {
      "midi": 59,
      "hit": false,
      "t": 195692.41940624925,
      "d": 624.9998333333351,
      "v": 99
    },
    {
      "midi": 61,
      "hit": false,
      "t": 196360.03286458258,
      "d": 632.1021041666681,
      "v": 98
    },
    {
      "midi": 64,
      "hit": false,
      "t": 196360.03286458258,
      "d": 632.1021041666681,
      "v": 90
    },
    {
      "midi": 45,
      "hit": false,
      "t": 196360.03286458258,
      "d": 1012.073593750014,
      "v": 92
    },
    {
      "midi": 57,
      "hit": false,
      "t": 196363.58399999925,
      "d": 585.9373437500035,
      "v": 106
    },
    {
      "midi": 49,
      "hit": false,
      "t": 197368.55532291593,
      "d": 355.11354166665114,
      "v": 110
    },
    {
      "midi": 68,
      "hit": false,
      "t": 197393.4132708326,
      "d": 234.37493749998976,
      "v": 102
    },
    {
      "midi": 61,
      "hit": false,
      "t": 197393.4132708326,
      "d": 237.92607291665627,
      "v": 119
    },
    {
      "midi": 64,
      "hit": false,
      "t": 197396.96440624926,
      "d": 298.29537499998696,
      "v": 101
    },
    {
      "midi": 59,
      "hit": false,
      "t": 197737.87340624924,
      "d": 1115.0565208333428,
      "v": 97
    },
    {
      "midi": 66,
      "hit": false,
      "t": 197737.87340624924,
      "d": 1115.0565208333428,
      "v": 83
    },
    {
      "midi": 63,
      "hit": false,
      "t": 197737.87340624924,
      "d": 1125.7099270833423,
      "v": 100
    },
    {
      "midi": 47,
      "hit": false,
      "t": 197737.87340624924,
      "d": 1377.8405416666646,
      "v": 97
    },
    {
      "midi": 40,
      "hit": false,
      "t": 199108.61167708258,
      "d": 1569.6018541666563,
      "v": 97
    },
    {
      "midi": 68,
      "hit": false,
      "t": 199108.61167708258,
      "d": 1860.7949583333102,
      "v": 102
    },
    {
      "midi": 59,
      "hit": false,
      "t": 199108.61167708258,
      "d": 1882.1017708333093,
      "v": 107
    },
    {
      "midi": 64,
      "hit": false,
      "t": 199108.61167708258,
      "d": 1906.9597187499749,
      "v": 94
    },
    {
      "midi": 63,
      "hit": false,
      "t": 201132.75886458255,
      "d": 585.9373437500035,
      "v": 105
    },
    {
      "midi": 66,
      "hit": false,
      "t": 201132.75886458255,
      "d": 639.2043750000012,
      "v": 103
    },
    {
      "midi": 47,
      "hit": false,
      "t": 201132.75886458255,
      "d": 681.8179999999993,
      "v": 99
    },
    {
      "midi": 59,
      "hit": false,
      "t": 201143.41227083254,
      "d": 564.6305312500044,
      "v": 109
    },
    {
      "midi": 57,
      "hit": false,
      "t": 201828.7814062492,
      "d": 1590.9086666666553,
      "v": 101
    },
    {
      "midi": 45,
      "hit": false,
      "t": 201828.7814062492,
      "d": 1669.0336458333186,
      "v": 86
    },
    {
      "midi": 64,
      "hit": false,
      "t": 201828.7814062492,
      "d": 1690.3404583333177,
      "v": 89
    },
    {
      "midi": 61,
      "hit": false,
      "t": 201832.33254166588,
      "d": 1665.482510416652,
      "v": 99
    },
    {
      "midi": 61,
      "hit": false,
      "t": 203881.33767708254,
      "d": 539.7725833333388,
      "v": 105
    },
    {
      "midi": 68,
      "hit": false,
      "t": 203881.33767708254,
      "d": 539.7725833333388,
      "v": 96
    },
    {
      "midi": 64,
      "hit": false,
      "t": 203881.33767708254,
      "d": 603.693020833336,
      "v": 97
    },
    {
      "midi": 49,
      "hit": false,
      "t": 203881.33767708254,
      "d": 628.5509687500016,
      "v": 108
    },
    {
      "midi": 63,
      "hit": false,
      "t": 204556.0534062492,
      "d": 1605.1132083333214,
      "v": 104
    },
    {
      "midi": 66,
      "hit": false,
      "t": 204556.0534062492,
      "d": 1619.3177499999874,
      "v": 102
    },
    {
      "midi": 59,
      "hit": false,
      "t": 204556.0534062492,
      "d": 1669.0336458333186,
      "v": 109
    },
    {
      "midi": 47,
      "hit": false,
      "t": 204556.0534062492,
      "d": 1825.283604166645,
      "v": 97
    },
    {
      "midi": 56,
      "hit": false,
      "t": 206587.3028645825,
      "d": 500.7100937500072,
      "v": 105
    },
    {
      "midi": 59,
      "hit": false,
      "t": 206587.3028645825,
      "d": 518.4657708333398,
      "v": 101
    },
    {
      "midi": 63,
      "hit": false,
      "t": 206587.3028645825,
      "d": 568.1816666666709,
      "v": 97
    },
    {
      "midi": 44,
      "hit": false,
      "t": 206587.3028645825,
      "d": 624.9998333333351,
      "v": 104
    },
    {
      "midi": 61,
      "hit": false,
      "t": 207233.60951041584,
      "d": 603.693020833336,
      "v": 88
    },
    {
      "midi": 45,
      "hit": false,
      "t": 207233.60951041584,
      "d": 894.88612499999,
      "v": 104
    },
    {
      "midi": 57,
      "hit": false,
      "t": 207262.01859374918,
      "d": 546.8748541666719,
      "v": 93
    },
    {
      "midi": 64,
      "hit": false,
      "t": 207262.01859374918,
      "d": 596.590750000003,
      "v": 97
    },
    {
      "midi": 61,
      "hit": false,
      "t": 208284.74559374916,
      "d": 262.78402083332185,
      "v": 127
    },
    {
      "midi": 68,
      "hit": false,
      "t": 208284.74559374916,
      "d": 262.78402083332185,
      "v": 102
    },
    {
      "midi": 49,
      "hit": false,
      "t": 208284.74559374916,
      "d": 312.499916666653,
      "v": 108
    },
    {
      "midi": 64,
      "hit": false,
      "t": 208284.74559374916,
      "d": 312.499916666653,
      "v": 102
    },
    {
      "midi": 59,
      "hit": false,
      "t": 208632.75686458248,
      "d": 1171.874687500007,
      "v": 96
    },
    {
      "midi": 66,
      "hit": false,
      "t": 208632.75686458248,
      "d": 1228.6928541666712,
      "v": 91
    },
    {
      "midi": 47,
      "hit": false,
      "t": 208632.75686458248,
      "d": 1285.5110208333354,
      "v": 90
    },
    {
      "midi": 63,
      "hit": false,
      "t": 208643.41027083248,
      "d": 1218.0394479166716,
      "v": 99
    },
    {
      "midi": 52,
      "hit": false,
      "t": 210010.59740624914,
      "d": 1882.1017708333384,
      "v": 101
    },
    {
      "midi": 59,
      "hit": false,
      "t": 210010.59740624914,
      "d": 1899.857447916671,
      "v": 106
    },
    {
      "midi": 64,
      "hit": false,
      "t": 210010.59740624914,
      "d": 1914.061989583337,
      "v": 102
    },
    {
      "midi": 68,
      "hit": false,
      "t": 210017.69967708248,
      "d": 1896.3063125000044,
      "v": 104
    },
    {
      "midi": 63,
      "hit": false,
      "t": 212052.50027083248,
      "d": 514.9146354166733,
      "v": 108
    },
    {
      "midi": 59,
      "hit": false,
      "t": 212052.50027083248,
      "d": 536.2214479166723,
      "v": 107
    },
    {
      "midi": 47,
      "hit": false,
      "t": 212052.50027083248,
      "d": 603.693020833336,
      "v": 90
    },
    {
      "midi": 66,
      "hit": false,
      "t": 212052.50027083248,
      "d": 632.1021041666681,
      "v": 105
    },
    {
      "midi": 45,
      "hit": false,
      "t": 212723.66486458248,
      "d": 1789.772250000009,
      "v": 88
    },
    {
      "midi": 63,
      "hit": false,
      "t": 212752.0739479158,
      "d": 56.81816666666418,
      "v": 83
    },
    {
      "midi": 57,
      "hit": false,
      "t": 212752.0739479158,
      "d": 1732.954083333345,
      "v": 106
    },
    {
      "midi": 61,
      "hit": false,
      "t": 212752.0739479158,
      "d": 1761.363166666677,
      "v": 106
    },
    {
      "midi": 64,
      "hit": false,
      "t": 212752.0739479158,
      "d": 1811.0790625000081,
      "v": 96
    },
    {
      "midi": 49,
      "hit": false,
      "t": 214762.01659374914,
      "d": 696.0225416666653,
      "v": 105
    },
    {
      "midi": 61,
      "hit": false,
      "t": 214790.42567708247,
      "d": 525.5680416666728,
      "v": 104
    },
    {
      "midi": 68,
      "hit": false,
      "t": 214790.42567708247,
      "d": 536.2214479166723,
      "v": 99
    },
    {
      "midi": 64,
      "hit": false,
      "t": 214790.42567708247,
      "d": 553.9771250000049,
      "v": 97
    },
    {
      "midi": 63,
      "hit": false,
      "t": 215472.24367708247,
      "d": 1633.5222916666535,
      "v": 104
    },
    {
      "midi": 66,
      "hit": false,
      "t": 215472.24367708247,
      "d": 1633.5222916666535,
      "v": 100
    },
    {
      "midi": 59,
      "hit": false,
      "t": 215472.24367708247,
      "d": 1672.584781249985,
      "v": 106
    },
    {
      "midi": 47,
      "hit": false,
      "t": 215472.24367708247,
      "d": 2059.658541666664,
      "v": 95
    },
    {
      "midi": 56,
      "hit": false,
      "t": 217524.7999479158,
      "d": 408.3805729166779,
      "v": 110
    },
    {
      "midi": 59,
      "hit": false,
      "t": 217524.7999479158,
      "d": 546.8748541666719,
      "v": 102
    },
    {
      "midi": 63,
      "hit": false,
      "t": 217524.7999479158,
      "d": 546.8748541666719,
      "v": 100
    },
    {
      "midi": 44,
      "hit": false,
      "t": 217524.7999479158,
      "d": 660.5111875000002,
      "v": 104
    },
    {
      "midi": 57,
      "hit": false,
      "t": 218199.51567708247,
      "d": 642.7555104166677,
      "v": 95
    },
    {
      "midi": 61,
      "hit": false,
      "t": 218199.51567708247,
      "d": 660.5111875000002,
      "v": 95
    },
    {
      "midi": 64,
      "hit": false,
      "t": 218199.51567708247,
      "d": 681.8179999999993,
      "v": 94
    },
    {
      "midi": 45,
      "hit": false,
      "t": 218199.51567708247,
      "d": 1019.175864583347,
      "v": 99
    },
    {
      "midi": 61,
      "hit": false,
      "t": 219215.14040624915,
      "d": 255.68174999998882,
      "v": 110
    },
    {
      "midi": 64,
      "hit": false,
      "t": 219215.14040624915,
      "d": 308.9487812499865,
      "v": 97
    },
    {
      "midi": 49,
      "hit": false,
      "t": 219215.14040624915,
      "d": 337.3578645833186,
      "v": 103
    },
    {
      "midi": 68,
      "hit": false,
      "t": 219250.6517604158,
      "d": 216.6192604166572,
      "v": 102
    },
    {
      "midi": 59,
      "hit": false,
      "t": 219552.49827083247,
      "d": 1249.9996666666702,
      "v": 89
    },
    {
      "midi": 47,
      "hit": false,
      "t": 219556.04940624913,
      "d": 1093.7497083333437,
      "v": 96
    },
    {
      "midi": 66,
      "hit": false,
      "t": 219556.04940624913,
      "d": 1122.1587916666758,
      "v": 91
    },
    {
      "midi": 63,
      "hit": false,
      "t": 219556.04940624913,
      "d": 1186.079229166673,
      "v": 98
    },
    {
      "midi": 40,
      "hit": false,
      "t": 220798.94680208247,
      "d": 1708.0961354166502,
      "v": 98
    },
    {
      "midi": 52,
      "hit": false,
      "t": 220926.78767708247,
      "d": 1406.2496249999967,
      "v": 96
    },
    {
      "midi": 64,
      "hit": false,
      "t": 220926.78767708247,
      "d": 1839.4881458333111,
      "v": 98
    },
    {
      "midi": 59,
      "hit": false,
      "t": 220926.78767708247,
      "d": 1874.9994999999763,
      "v": 102
    },
    {
      "midi": 68,
      "hit": false,
      "t": 220962.29903124913,
      "d": 1839.4881458333111,
      "v": 100
    },
    {
      "midi": 44,
      "hit": false,
      "t": 222943.8325937491,
      "d": 553.9771250000049,
      "v": 102
    },
    {
      "midi": 59,
      "hit": false,
      "t": 222965.1394062491,
      "d": 507.81236458334024,
      "v": 101
    },
    {
      "midi": 63,
      "hit": false,
      "t": 222965.1394062491,
      "d": 511.36350000000675,
      "v": 110
    },
    {
      "midi": 66,
      "hit": false,
      "t": 222972.24167708243,
      "d": 603.693020833336,
      "v": 104
    },
    {
      "midi": 57,
      "hit": false,
      "t": 223646.9574062491,
      "d": 1683.2381875000137,
      "v": 99
    },
    {
      "midi": 45,
      "hit": false,
      "t": 223646.9574062491,
      "d": 1697.4427291666798,
      "v": 86
    },
    {
      "midi": 61,
      "hit": false,
      "t": 223646.9574062491,
      "d": 1754.260895833344,
      "v": 102
    },
    {
      "midi": 64,
      "hit": false,
      "t": 223646.9574062491,
      "d": 1811.0790625000081,
      "v": 89
    },
    {
      "midi": 61,
      "hit": false,
      "t": 225692.4114062491,
      "d": 525.5680416666728,
      "v": 103
    },
    {
      "midi": 64,
      "hit": false,
      "t": 225692.4114062491,
      "d": 525.5680416666728,
      "v": 99
    },
    {
      "midi": 68,
      "hit": false,
      "t": 225692.4114062491,
      "d": 525.5680416666728,
      "v": 100
    },
    {
      "midi": 49,
      "hit": false,
      "t": 225692.4114062491,
      "d": 667.6134583333333,
      "v": 110
    },
    {
      "midi": 63,
      "hit": false,
      "t": 226374.2294062491,
      "d": 1647.7268333333195,
      "v": 103
    },
    {
      "midi": 66,
      "hit": false,
      "t": 226374.2294062491,
      "d": 1676.1359166666516,
      "v": 102
    },
    {
      "midi": 59,
      "hit": false,
      "t": 226374.2294062491,
      "d": 1747.1586249999818,
      "v": 100
    },
    {
      "midi": 47,
      "hit": false,
      "t": 226374.2294062491,
      "d": 2038.3517291666358,
      "v": 90
    },
    {
      "midi": 56,
      "hit": false,
      "t": 228405.4788645824,
      "d": 511.36350000000675,
      "v": 104
    },
    {
      "midi": 59,
      "hit": false,
      "t": 228405.4788645824,
      "d": 596.590750000003,
      "v": 101
    },
    {
      "midi": 63,
      "hit": false,
      "t": 228405.4788645824,
      "d": 610.7952916666691,
      "v": 98
    },
    {
      "midi": 44,
      "hit": false,
      "t": 228405.4788645824,
      "d": 635.6532395833347,
      "v": 94
    },
    {
      "midi": 45,
      "hit": false,
      "t": 229080.19459374907,
      "d": 1029.8292708333465,
      "v": 99
    },
    {
      "midi": 57,
      "hit": false,
      "t": 229087.2968645824,
      "d": 532.6703125000058,
      "v": 102
    },
    {
      "midi": 61,
      "hit": false,
      "t": 229087.2968645824,
      "d": 546.8748541666719,
      "v": 95
    },
    {
      "midi": 64,
      "hit": false,
      "t": 229087.2968645824,
      "d": 568.1816666666709,
      "v": 97
    },
    {
      "midi": 49,
      "hit": false,
      "t": 230110.0238645824,
      "d": 323.15332291665254,
      "v": 106
    },
    {
      "midi": 61,
      "hit": false,
      "t": 230131.3306770824,
      "d": 213.0681249999907,
      "v": 123
    },
    {
      "midi": 68,
      "hit": false,
      "t": 230131.3306770824,
      "d": 248.5794791666558,
      "v": 102
    },
    {
      "midi": 64,
      "hit": false,
      "t": 230131.3306770824,
      "d": 273.4374270833214,
      "v": 100
    },
    {
      "midi": 66,
      "hit": false,
      "t": 230465.13740624906,
      "d": 1061.7894895833451,
      "v": 87
    },
    {
      "midi": 63,
      "hit": false,
      "t": 230465.13740624906,
      "d": 1093.7497083333437,
      "v": 93
    },
    {
      "midi": 47,
      "hit": false,
      "t": 230465.13740624906,
      "d": 1377.8405416666646,
      "v": 92
    },
    {
      "midi": 59,
      "hit": false,
      "t": 230468.68854166573,
      "d": 1051.1360833333456,
      "v": 101
    },
    {
      "midi": 64,
      "hit": false,
      "t": 231835.8756770824,
      "d": 1608.664343749988,
      "v": 101
    },
    {
      "midi": 68,
      "hit": false,
      "t": 231835.8756770824,
      "d": 1615.766614583321,
      "v": 102
    },
    {
      "midi": 59,
      "hit": false,
      "t": 231835.8756770824,
      "d": 1835.9370104166446,
      "v": 109
    },
    {
      "midi": 40,
      "hit": false,
      "t": 231835.8756770824,
      "d": 2485.7947916666453,
      "v": 99
    },
    {
      "midi": 52,
      "hit": false,
      "t": 233703.77290624904,
      "d": 2869.3174166666286,
      "v": 114
    },
    {
      "midi": 64,
      "hit": false,
      "t": 234222.23867708238,
      "d": 198.86358333332464,
      "v": 104
    },
    {
      "midi": 59,
      "hit": false,
      "t": 234222.23867708238,
      "d": 213.0681249999907,
      "v": 116
    },
    {
      "midi": 59,
      "hit": false,
      "t": 234556.04540624903,
      "d": 873.5793124999909,
      "v": 111
    },
    {
      "midi": 64,
      "hit": false,
      "t": 234556.04540624903,
      "d": 1416.9030312499963,
      "v": 100
    },
    {
      "midi": 40,
      "hit": false,
      "t": 234556.04540624903,
      "d": 1690.3404583333177,
      "v": 123
    }
  ]
}