{
  "jsonPath": "Rock/Reggae Rock/Pepper/cryin-at-the-discotheque.json",
  "path": "Rock\\Reggae Rock\\Pepper\\Cryin At The Discotheque.mid",
  "name": "Cryin At The Discotheque",
  "difficulty": "Advanced",
  "bpm": 136.0001450668214,
  "notes": [
    {
      "midi": 76,
      "hit": false,
      "t": 1767.0017916666666,
      "d": 1569.3917083333336,
      "v": 121
    },
    {
      "midi": 57,
      "hit": false,
      "t": 1771.5973749999998,
      "d": 1606.1563750000005,
      "v": 98
    },
    {
      "midi": 64,
      "hit": false,
      "t": 1771.5973749999998,
      "d": 1606.1563750000005,
      "v": 98
    },
    {
      "midi": 65,
      "hit": false,
      "t": 3534.0035833333336,
      "d": 735.2933333333335,
      "v": 91
    },
    {
      "midi": 57,
      "hit": false,
      "t": 3536.3013750000005,
      "d": 749.0800833333337,
      "v": 94
    },
    {
      "midi": 77,
      "hit": false,
      "t": 3536.3013750000005,
      "d": 755.9734583333334,
      "v": 115
    },
    {
      "midi": 64,
      "hit": false,
      "t": 4414.057791666667,
      "d": 507.8119583333337,
      "v": 79
    },
    {
      "midi": 57,
      "hit": false,
      "t": 4414.057791666667,
      "d": 526.1942916666667,
      "v": 79
    },
    {
      "midi": 76,
      "hit": false,
      "t": 4418.653375000001,
      "d": 512.4075416666665,
      "v": 117
    },
    {
      "midi": 74,
      "hit": false,
      "t": 5080.417375,
      "d": 1803.7664583333335,
      "v": 119
    },
    {
      "midi": 55,
      "hit": false,
      "t": 5080.417375,
      "d": 1927.8472083333336,
      "v": 82
    },
    {
      "midi": 62,
      "hit": false,
      "t": 5080.417375,
      "d": 1927.8472083333336,
      "v": 85
    },
    {
      "midi": 81,
      "hit": false,
      "t": 7049.624833333333,
      "d": 785.8447500000002,
      "v": 113
    },
    {
      "midi": 69,
      "hit": false,
      "t": 7065.709375,
      "d": 737.5911249999999,
      "v": 89
    },
    {
      "midi": 62,
      "hit": false,
      "t": 7065.709375,
      "d": 769.7602083333331,
      "v": 98
    },
    {
      "midi": 62,
      "hit": false,
      "t": 7943.4657916666665,
      "d": 613.5103750000007,
      "v": 87
    },
    {
      "midi": 67,
      "hit": false,
      "t": 7943.4657916666665,
      "d": 613.5103750000007,
      "v": 92
    },
    {
      "midi": 79,
      "hit": false,
      "t": 7948.061375,
      "d": 544.5766250000006,
      "v": 113
    },
    {
      "midi": 76,
      "hit": false,
      "t": 8596.038625000001,
      "d": 1523.435875000001,
      "v": 117
    },
    {
      "midi": 64,
      "hit": false,
      "t": 8605.229791666668,
      "d": 1874.9979999999996,
      "v": 98
    },
    {
      "midi": 57,
      "hit": false,
      "t": 8609.825375000002,
      "d": 1870.4024166666659,
      "v": 98
    },
    {
      "midi": 65,
      "hit": false,
      "t": 10588.224000000002,
      "d": 737.5911250000008,
      "v": 91
    },
    {
      "midi": 57,
      "hit": false,
      "t": 10592.819583333336,
      "d": 753.6756666666679,
      "v": 94
    },
    {
      "midi": 77,
      "hit": false,
      "t": 10592.819583333336,
      "d": 753.6756666666679,
      "v": 113
    },
    {
      "midi": 64,
      "hit": false,
      "t": 11472.87379166667,
      "d": 512.4075416666674,
      "v": 79
    },
    {
      "midi": 57,
      "hit": false,
      "t": 11472.87379166667,
      "d": 523.8965000000007,
      "v": 79
    },
    {
      "midi": 76,
      "hit": false,
      "t": 11482.064958333338,
      "d": 510.1097499999996,
      "v": 117
    },
    {
      "midi": 74,
      "hit": false,
      "t": 12139.233375000005,
      "d": 1831.339958333334,
      "v": 115
    },
    {
      "midi": 55,
      "hit": false,
      "t": 12139.233375000005,
      "d": 1927.8472083333345,
      "v": 82
    },
    {
      "midi": 62,
      "hit": false,
      "t": 12139.233375000005,
      "d": 1927.8472083333345,
      "v": 85
    },
    {
      "midi": 69,
      "hit": false,
      "t": 14124.525375000007,
      "d": 732.9955416666671,
      "v": 89
    },
    {
      "midi": 81,
      "hit": false,
      "t": 14124.525375000007,
      "d": 760.5690416666675,
      "v": 113
    },
    {
      "midi": 62,
      "hit": false,
      "t": 14124.525375000007,
      "d": 772.0580000000009,
      "v": 98
    },
    {
      "midi": 62,
      "hit": false,
      "t": 14999.984000000008,
      "d": 615.8081666666676,
      "v": 87
    },
    {
      "midi": 67,
      "hit": false,
      "t": 14999.984000000008,
      "d": 615.8081666666676,
      "v": 92
    },
    {
      "midi": 79,
      "hit": false,
      "t": 15006.877375000007,
      "d": 535.3854583333341,
      "v": 113
    },
    {
      "midi": 76,
      "hit": false,
      "t": 15661.748000000009,
      "d": 1918.656041666667,
      "v": 119
    },
    {
      "midi": 57,
      "hit": false,
      "t": 15668.641375000008,
      "d": 1601.5607916666686,
      "v": 98
    },
    {
      "midi": 64,
      "hit": false,
      "t": 15668.641375000008,
      "d": 1601.5607916666686,
      "v": 98
    },
    {
      "midi": 65,
      "hit": false,
      "t": 17649.337791666676,
      "d": 735.2933333333349,
      "v": 91
    },
    {
      "midi": 57,
      "hit": false,
      "t": 17651.635583333344,
      "d": 753.6756666666661,
      "v": 94
    },
    {
      "midi": 77,
      "hit": false,
      "t": 17651.635583333344,
      "d": 753.6756666666661,
      "v": 113
    },
    {
      "midi": 64,
      "hit": false,
      "t": 18531.689791666675,
      "d": 512.4075416666637,
      "v": 79
    },
    {
      "midi": 57,
      "hit": false,
      "t": 18531.689791666675,
      "d": 526.194291666663,
      "v": 79
    },
    {
      "midi": 76,
      "hit": false,
      "t": 18536.285375000007,
      "d": 514.7053333333315,
      "v": 117
    },
    {
      "midi": 74,
      "hit": false,
      "t": 19198.049375000006,
      "d": 1826.7443749999984,
      "v": 115
    },
    {
      "midi": 55,
      "hit": false,
      "t": 19198.049375000006,
      "d": 1925.549416666665,
      "v": 82
    },
    {
      "midi": 62,
      "hit": false,
      "t": 19198.049375000006,
      "d": 1925.549416666665,
      "v": 85
    },
    {
      "midi": 69,
      "hit": false,
      "t": 21183.341375000004,
      "d": 735.2933333333349,
      "v": 89
    },
    {
      "midi": 81,
      "hit": false,
      "t": 21183.341375000004,
      "d": 758.2712500000016,
      "v": 113
    },
    {
      "midi": 62,
      "hit": false,
      "t": 21183.341375000004,
      "d": 765.1646250000013,
      "v": 98
    },
    {
      "midi": 79,
      "hit": false,
      "t": 22063.39558333334,
      "d": 537.6832500000019,
      "v": 113
    },
    {
      "midi": 62,
      "hit": false,
      "t": 22063.39558333334,
      "d": 606.617000000002,
      "v": 87
    },
    {
      "midi": 67,
      "hit": false,
      "t": 22063.39558333334,
      "d": 606.617000000002,
      "v": 92
    },
    {
      "midi": 76,
      "hit": false,
      "t": 22722.861791666674,
      "d": 1918.6560416666653,
      "v": 119
    },
    {
      "midi": 57,
      "hit": false,
      "t": 22727.457375000005,
      "d": 1606.1563749999987,
      "v": 98
    },
    {
      "midi": 64,
      "hit": false,
      "t": 22727.457375000005,
      "d": 1606.1563749999987,
      "v": 98
    },
    {
      "midi": 65,
      "hit": false,
      "t": 24708.15379166667,
      "d": 735.2933333333312,
      "v": 91
    },
    {
      "midi": 57,
      "hit": false,
      "t": 24712.749375000003,
      "d": 751.3778749999983,
      "v": 94
    },
    {
      "midi": 77,
      "hit": false,
      "t": 24712.749375000003,
      "d": 751.3778749999983,
      "v": 113
    },
    {
      "midi": 64,
      "hit": false,
      "t": 25588.208000000002,
      "d": 514.7053333333315,
      "v": 79
    },
    {
      "midi": 57,
      "hit": false,
      "t": 25588.208000000002,
      "d": 526.194291666663,
      "v": 79
    },
    {
      "midi": 76,
      "hit": false,
      "t": 25595.101375000002,
      "d": 514.7053333333315,
      "v": 117
    },
    {
      "midi": 74,
      "hit": false,
      "t": 26256.865374999998,
      "d": 1829.0421666666662,
      "v": 115
    },
    {
      "midi": 55,
      "hit": false,
      "t": 26256.865374999998,
      "d": 1925.549416666665,
      "v": 82
    },
    {
      "midi": 62,
      "hit": false,
      "t": 26256.865374999998,
      "d": 1925.549416666665,
      "v": 85
    },
    {
      "midi": 69,
      "hit": false,
      "t": 28242.157374999995,
      "d": 735.2933333333349,
      "v": 89
    },
    {
      "midi": 81,
      "hit": false,
      "t": 28242.157374999995,
      "d": 760.5690416666694,
      "v": 113
    },
    {
      "midi": 62,
      "hit": false,
      "t": 28242.157374999995,
      "d": 769.7602083333368,
      "v": 98
    },
    {
      "midi": 62,
      "hit": false,
      "t": 29117.615999999998,
      "d": 615.8081666666658,
      "v": 87
    },
    {
      "midi": 67,
      "hit": false,
      "t": 29117.615999999998,
      "d": 615.8081666666658,
      "v": 92
    },
    {
      "midi": 79,
      "hit": false,
      "t": 29124.509374999998,
      "d": 533.0876666666663,
      "v": 113
    },
    {
      "midi": 76,
      "hit": false,
      "t": 29781.677791666665,
      "d": 1916.3582499999975,
      "v": 119
    },
    {
      "midi": 57,
      "hit": false,
      "t": 29786.273374999997,
      "d": 1608.4541666666664,
      "v": 98
    },
    {
      "midi": 64,
      "hit": false,
      "t": 29786.273374999997,
      "d": 1608.4541666666664,
      "v": 98
    },
    {
      "midi": 65,
      "hit": false,
      "t": 31766.969791666663,
      "d": 735.2933333333349,
      "v": 91
    },
    {
      "midi": 57,
      "hit": false,
      "t": 31766.969791666663,
      "d": 751.377875000002,
      "v": 94
    },
    {
      "midi": 77,
      "hit": false,
      "t": 31766.969791666663,
      "d": 751.377875000002,
      "v": 113
    },
    {
      "midi": 64,
      "hit": false,
      "t": 32649.321791666665,
      "d": 512.4075416666637,
      "v": 79
    },
    {
      "midi": 57,
      "hit": false,
      "t": 32649.321791666665,
      "d": 526.194291666663,
      "v": 79
    },
    {
      "midi": 76,
      "hit": false,
      "t": 32656.215166666665,
      "d": 512.4075416666637,
      "v": 117
    },
    {
      "midi": 74,
      "hit": false,
      "t": 33317.979166666664,
      "d": 1826.744375000002,
      "v": 115
    },
    {
      "midi": 55,
      "hit": false,
      "t": 33317.979166666664,
      "d": 1923.2516250000044,
      "v": 82
    },
    {
      "midi": 62,
      "hit": false,
      "t": 33317.979166666664,
      "d": 1923.2516250000044,
      "v": 85
    },
    {
      "midi": 69,
      "hit": false,
      "t": 35300.973375,
      "d": 739.8889166666631,
      "v": 89
    },
    {
      "midi": 81,
      "hit": false,
      "t": 35300.973375,
      "d": 760.5690416666621,
      "v": 113
    },
    {
      "midi": 62,
      "hit": false,
      "t": 35300.973375,
      "d": 767.4624166666617,
      "v": 98
    },
    {
      "midi": 62,
      "hit": false,
      "t": 36178.729791666665,
      "d": 615.8081666666694,
      "v": 87
    },
    {
      "midi": 67,
      "hit": false,
      "t": 36178.729791666665,
      "d": 615.8081666666694,
      "v": 92
    },
    {
      "midi": 79,
      "hit": false,
      "t": 36187.92095833333,
      "d": 530.7898750000022,
      "v": 113
    },
    {
      "midi": 76,
      "hit": false,
      "t": 36840.49379166667,
      "d": 1916.3582500000048,
      "v": 119
    },
    {
      "midi": 57,
      "hit": false,
      "t": 36845.089375,
      "d": 1608.45416666667,
      "v": 98
    },
    {
      "midi": 64,
      "hit": false,
      "t": 36845.089375,
      "d": 1608.45416666667,
      "v": 98
    },
    {
      "midi": 65,
      "hit": false,
      "t": 38825.78579166667,
      "d": 735.2933333333349,
      "v": 91
    },
    {
      "midi": 57,
      "hit": false,
      "t": 38830.381375000004,
      "d": 749.0800833333342,
      "v": 94
    },
    {
      "midi": 77,
      "hit": false,
      "t": 38830.381375000004,
      "d": 749.0800833333342,
      "v": 113
    },
    {
      "midi": 64,
      "hit": false,
      "t": 39708.137791666675,
      "d": 512.4075416666674,
      "v": 79
    },
    {
      "midi": 76,
      "hit": false,
      "t": 39708.137791666675,
      "d": 521.5987083333312,
      "v": 117
    },
    {
      "midi": 57,
      "hit": false,
      "t": 39708.137791666675,
      "d": 526.1942916666667,
      "v": 79
    },
    {
      "midi": 74,
      "hit": false,
      "t": 40372.19958333334,
      "d": 1833.6377500000017,
      "v": 115
    },
    {
      "midi": 55,
      "hit": false,
      "t": 40372.19958333334,
      "d": 1932.4427916666682,
      "v": 82
    },
    {
      "midi": 62,
      "hit": false,
      "t": 40372.19958333334,
      "d": 1932.4427916666682,
      "v": 85
    },
    {
      "midi": 69,
      "hit": false,
      "t": 42362.08716666668,
      "d": 732.9955416666635,
      "v": 89
    },
    {
      "midi": 81,
      "hit": false,
      "t": 42362.08716666668,
      "d": 755.9734583333266,
      "v": 113
    },
    {
      "midi": 62,
      "hit": false,
      "t": 42362.08716666668,
      "d": 765.1646249999903,
      "v": 98
    },
    {
      "midi": 62,
      "hit": false,
      "t": 43235.248,
      "d": 618.1059583333335,
      "v": 87
    },
    {
      "midi": 67,
      "hit": false,
      "t": 43235.248,
      "d": 618.1059583333335,
      "v": 92
    },
    {
      "midi": 79,
      "hit": false,
      "t": 43242.141375,
      "d": 533.0876666666663,
      "v": 113
    },
    {
      "midi": 76,
      "hit": false,
      "t": 43897.012,
      "d": 1920.953833333333,
      "v": 119
    },
    {
      "midi": 57,
      "hit": false,
      "t": 43908.50095833334,
      "d": 1599.262999999999,
      "v": 98
    },
    {
      "midi": 64,
      "hit": false,
      "t": 43908.50095833334,
      "d": 1599.262999999999,
      "v": 98
    },
    {
      "midi": 65,
      "hit": false,
      "t": 45880.00620833333,
      "d": 739.8889166666631,
      "v": 91
    },
    {
      "midi": 57,
      "hit": false,
      "t": 45889.197374999996,
      "d": 751.3778749999983,
      "v": 94
    },
    {
      "midi": 77,
      "hit": false,
      "t": 45889.197374999996,
      "d": 751.3778749999983,
      "v": 113
    },
    {
      "midi": 64,
      "hit": false,
      "t": 46766.95379166666,
      "d": 512.4075416666674,
      "v": 79
    },
    {
      "midi": 76,
      "hit": false,
      "t": 46766.95379166666,
      "d": 519.300916666667,
      "v": 117
    },
    {
      "midi": 57,
      "hit": false,
      "t": 46766.95379166666,
      "d": 523.8965000000026,
      "v": 79
    },
    {
      "midi": 74,
      "hit": false,
      "t": 47433.313375,
      "d": 1826.744375000002,
      "v": 115
    },
    {
      "midi": 55,
      "hit": false,
      "t": 47433.313375,
      "d": 1925.5494166666685,
      "v": 82
    },
    {
      "midi": 62,
      "hit": false,
      "t": 47433.313375,
      "d": 1925.5494166666685,
      "v": 85
    },
    {
      "midi": 69,
      "hit": false,
      "t": 49418.605375,
      "d": 735.2933333333349,
      "v": 89
    },
    {
      "midi": 81,
      "hit": false,
      "t": 49418.605375,
      "d": 760.5690416666694,
      "v": 113
    },
    {
      "midi": 62,
      "hit": false,
      "t": 49418.605375,
      "d": 767.462416666669,
      "v": 98
    },
    {
      "midi": 62,
      "hit": false,
      "t": 50298.659583333334,
      "d": 608.9147916666698,
      "v": 87
    },
    {
      "midi": 67,
      "hit": false,
      "t": 50298.659583333334,
      "d": 608.9147916666698,
      "v": 92
    },
    {
      "midi": 79,
      "hit": false,
      "t": 50305.552958333334,
      "d": 530.7898750000022,
      "v": 113
    },
    {
      "midi": 76,
      "hit": false,
      "t": 50958.12579166667,
      "d": 1918.656041666669,
      "v": 119
    },
    {
      "midi": 57,
      "hit": false,
      "t": 50962.72137500001,
      "d": 1603.8585833333345,
      "v": 98
    },
    {
      "midi": 64,
      "hit": false,
      "t": 50962.72137500001,
      "d": 1603.8585833333345,
      "v": 98
    },
    {
      "midi": 65,
      "hit": false,
      "t": 52943.417791666674,
      "d": 737.591124999999,
      "v": 91
    },
    {
      "midi": 57,
      "hit": false,
      "t": 52943.417791666674,
      "d": 755.9734583333338,
      "v": 94
    },
    {
      "midi": 77,
      "hit": false,
      "t": 52943.417791666674,
      "d": 755.9734583333338,
      "v": 113
    },
    {
      "midi": 64,
      "hit": false,
      "t": 53825.76979166667,
      "d": 512.4075416666674,
      "v": 79
    },
    {
      "midi": 57,
      "hit": false,
      "t": 53825.76979166667,
      "d": 523.8965000000026,
      "v": 79
    },
    {
      "midi": 76,
      "hit": false,
      "t": 53832.66316666667,
      "d": 510.10975000000326,
      "v": 117
    },
    {
      "midi": 74,
      "hit": false,
      "t": 54492.12937500001,
      "d": 1829.0421666666662,
      "v": 115
    },
    {
      "midi": 55,
      "hit": false,
      "t": 54492.12937500001,
      "d": 1930.1449999999968,
      "v": 82
    },
    {
      "midi": 62,
      "hit": false,
      "t": 54492.12937500001,
      "d": 1930.1449999999968,
      "v": 85
    },
    {
      "midi": 69,
      "hit": false,
      "t": 56479.71916666668,
      "d": 732.9955416666635,
      "v": 89
    },
    {
      "midi": 81,
      "hit": false,
      "t": 56479.71916666668,
      "d": 758.271249999998,
      "v": 113
    },
    {
      "midi": 62,
      "hit": false,
      "t": 56479.71916666668,
      "d": 767.4624166666617,
      "v": 98
    },
    {
      "midi": 62,
      "hit": false,
      "t": 57352.880000000005,
      "d": 613.510374999998,
      "v": 87
    },
    {
      "midi": 67,
      "hit": false,
      "t": 57352.880000000005,
      "d": 613.510374999998,
      "v": 92
    },
    {
      "midi": 79,
      "hit": false,
      "t": 57364.36895833334,
      "d": 528.4920833333308,
      "v": 113
    },
    {
      "midi": 57,
      "hit": false,
      "t": 58021.53737500001,
      "d": 1603.8585833333345,
      "v": 98
    },
    {
      "midi": 64,
      "hit": false,
      "t": 58021.53737500001,
      "d": 1603.8585833333345,
      "v": 98
    },
    {
      "midi": 81,
      "hit": false,
      "t": 58235.232,
      "d": 250.4592916666661,
      "v": 84
    },
    {
      "midi": 69,
      "hit": false,
      "t": 58451.22441666667,
      "d": 284.92616666666436,
      "v": 75
    },
    {
      "midi": 72,
      "hit": false,
      "t": 58681.00358333334,
      "d": 248.16150000000198,
      "v": 89
    },
    {
      "midi": 76,
      "hit": false,
      "t": 58892.40041666667,
      "d": 220.58800000000338,
      "v": 91
    },
    {
      "midi": 81,
      "hit": false,
      "t": 59106.095041666675,
      "d": 250.4592916666661,
      "v": 94
    },
    {
      "midi": 69,
      "hit": false,
      "t": 59317.49187500001,
      "d": 280.3305833333361,
      "v": 89
    },
    {
      "midi": 72,
      "hit": false,
      "t": 59551.86662500001,
      "d": 248.16150000000198,
      "v": 81
    },
    {
      "midi": 76,
      "hit": false,
      "t": 59767.85904166668,
      "d": 163.14320833333477,
      "v": 106
    },
    {
      "midi": 77,
      "hit": false,
      "t": 59999.93600000001,
      "d": 271.13941666666506,
      "v": 104
    },
    {
      "midi": 65,
      "hit": false,
      "t": 59999.93600000001,
      "d": 737.591124999999,
      "v": 91
    },
    {
      "midi": 57,
      "hit": false,
      "t": 59999.93600000001,
      "d": 758.271249999998,
      "v": 94
    },
    {
      "midi": 69,
      "hit": false,
      "t": 60215.92841666668,
      "d": 271.13941666666506,
      "v": 66
    },
    {
      "midi": 72,
      "hit": false,
      "t": 60448.00537500001,
      "d": 209.0990416666682,
      "v": 84
    },
    {
      "midi": 77,
      "hit": false,
      "t": 60657.104416666676,
      "d": 156.24983333332784,
      "v": 79
    },
    {
      "midi": 64,
      "hit": false,
      "t": 60882.288,
      "d": 514.7053333333315,
      "v": 79
    },
    {
      "midi": 57,
      "hit": false,
      "t": 60882.288,
      "d": 523.8964999999953,
      "v": 79
    },
    {
      "midi": 76,
      "hit": false,
      "t": 60889.181375,
      "d": 188.41891666666925,
      "v": 108
    },
    {
      "midi": 69,
      "hit": false,
      "t": 61105.17379166667,
      "d": 222.8857916666675,
      "v": 81
    },
    {
      "midi": 72,
      "hit": false,
      "t": 61316.570625,
      "d": 190.7167083333261,
      "v": 91
    },
    {
      "midi": 74,
      "hit": false,
      "t": 61537.158625,
      "d": 227.48137499999575,
      "v": 117
    },
    {
      "midi": 55,
      "hit": false,
      "t": 61546.34979166666,
      "d": 1930.145000000004,
      "v": 82
    },
    {
      "midi": 62,
      "hit": false,
      "t": 61550.945374999996,
      "d": 1925.5494166666685,
      "v": 85
    },
    {
      "midi": 69,
      "hit": false,
      "t": 61764.63999999999,
      "d": 232.07695833333128,
      "v": 110
    },
    {
      "midi": 81,
      "hit": false,
      "t": 62067.94849999999,
      "d": 82.72050000000309,
      "v": 37
    },
    {
      "midi": 69,
      "hit": false,
      "t": 62203.51820833333,
      "d": 130.97412500000064,
      "v": 113
    },
    {
      "midi": 69,
      "hit": false,
      "t": 62410.31945833333,
      "d": 259.6504583333299,
      "v": 91
    },
    {
      "midi": 81,
      "hit": false,
      "t": 62635.50304166666,
      "d": 197.61008333333302,
      "v": 100
    },
    {
      "midi": 69,
      "hit": false,
      "t": 62853.793249999995,
      "d": 144.76087499999994,
      "v": 106
    },
    {
      "midi": 69,
      "hit": false,
      "t": 63090.46579166666,
      "d": 381.43341666666674,
      "v": 100
    },
    {
      "midi": 62,
      "hit": false,
      "t": 63529.344,
      "d": 772.0580000000045,
      "v": 98
    },
    {
      "midi": 69,
      "hit": false,
      "t": 63536.237375,
      "d": 730.6977499999994,
      "v": 89
    },
    {
      "midi": 81,
      "hit": false,
      "t": 63536.237375,
      "d": 760.5690416666694,
      "v": 113
    },
    {
      "midi": 79,
      "hit": false,
      "t": 64413.99379166667,
      "d": 535.3854583333305,
      "v": 113
    },
    {
      "midi": 62,
      "hit": false,
      "t": 64413.99379166667,
      "d": 615.8081666666621,
      "v": 87
    },
    {
      "midi": 67,
      "hit": false,
      "t": 64413.99379166667,
      "d": 615.8081666666621,
      "v": 92
    },
    {
      "midi": 76,
      "hit": false,
      "t": 65078.05558333333,
      "d": 1914.0604583333115,
      "v": 119
    },
    {
      "midi": 57,
      "hit": false,
      "t": 65080.35337499999,
      "d": 1606.1563749999914,
      "v": 98
    },
    {
      "midi": 64,
      "hit": false,
      "t": 65080.35337499999,
      "d": 1606.1563749999914,
      "v": 98
    },
    {
      "midi": 81,
      "hit": false,
      "t": 66401.58358333333,
      "d": 195.31229166666162,
      "v": 117
    },
    {
      "midi": 79,
      "hit": false,
      "t": 66610.68262499999,
      "d": 376.83783333332394,
      "v": 100
    },
    {
      "midi": 77,
      "hit": false,
      "t": 67061.04979166664,
      "d": 264.2460416666727,
      "v": 104
    },
    {
      "midi": 65,
      "hit": false,
      "t": 67061.04979166664,
      "d": 732.9955416666635,
      "v": 91
    },
    {
      "midi": 57,
      "hit": false,
      "t": 67061.04979166664,
      "d": 753.6756666666624,
      "v": 94
    },
    {
      "midi": 69,
      "hit": false,
      "t": 67281.63779166664,
      "d": 261.9482500000013,
      "v": 66
    },
    {
      "midi": 72,
      "hit": false,
      "t": 67506.82137499997,
      "d": 204.50345833333267,
      "v": 84
    },
    {
      "midi": 77,
      "hit": false,
      "t": 67711.3248333333,
      "d": 158.54762499999197,
      "v": 79
    },
    {
      "midi": 76,
      "hit": false,
      "t": 67943.40179166663,
      "d": 193.01450000000477,
      "v": 108
    },
    {
      "midi": 64,
      "hit": false,
      "t": 67943.40179166663,
      "d": 510.10975000000326,
      "v": 79
    },
    {
      "midi": 57,
      "hit": false,
      "t": 67943.40179166663,
      "d": 526.194291666674,
      "v": 79
    },
    {
      "midi": 69,
      "hit": false,
      "t": 68161.69199999997,
      "d": 220.58800000000338,
      "v": 81
    },
    {
      "midi": 72,
      "hit": false,
      "t": 68379.9822083333,
      "d": 188.41891666667652,
      "v": 91
    },
    {
      "midi": 74,
      "hit": false,
      "t": 68598.27241666664,
      "d": 229.77916666665988,
      "v": 117
    },
    {
      "midi": 55,
      "hit": false,
      "t": 68602.86799999997,
      "d": 1932.4427916666755,
      "v": 82
    },
    {
      "midi": 62,
      "hit": false,
      "t": 68609.76137499997,
      "d": 1925.5494166666758,
      "v": 85
    },
    {
      "midi": 69,
      "hit": false,
      "t": 68828.0515833333,
      "d": 227.48137500000303,
      "v": 110
    },
    {
      "midi": 81,
      "hit": false,
      "t": 69126.76449999998,
      "d": 80.42270833333896,
      "v": 37
    },
    {
      "midi": 69,
      "hit": false,
      "t": 69266.92979166665,
      "d": 126.37854166666511,
      "v": 113
    },
    {
      "midi": 69,
      "hit": false,
      "t": 69466.83766666666,
      "d": 259.6504583333299,
      "v": 91
    },
    {
      "midi": 81,
      "hit": false,
      "t": 69696.61683333332,
      "d": 199.90787500000442,
      "v": 100
    },
    {
      "midi": 69,
      "hit": false,
      "t": 69914.90704166665,
      "d": 142.46308333333582,
      "v": 106
    },
    {
      "midi": 69,
      "hit": false,
      "t": 70149.28179166665,
      "d": 381.43341666666674,
      "v": 100
    },
    {
      "midi": 62,
      "hit": false,
      "t": 70590.45779166665,
      "d": 769.7602083333186,
      "v": 98
    },
    {
      "midi": 69,
      "hit": false,
      "t": 70595.05337499997,
      "d": 732.9955416666635,
      "v": 89
    },
    {
      "midi": 81,
      "hit": false,
      "t": 70595.05337499997,
      "d": 758.2712499999907,
      "v": 113
    },
    {
      "midi": 79,
      "hit": false,
      "t": 71472.80979166663,
      "d": 530.7898750000022,
      "v": 113
    },
    {
      "midi": 62,
      "hit": false,
      "t": 71472.80979166663,
      "d": 613.510374999998,
      "v": 87
    },
    {
      "midi": 67,
      "hit": false,
      "t": 71472.80979166663,
      "d": 613.510374999998,
      "v": 92
    },
    {
      "midi": 76,
      "hit": false,
      "t": 72134.57379166663,
      "d": 1918.6560416666616,
      "v": 119
    },
    {
      "midi": 57,
      "hit": false,
      "t": 72139.16937499995,
      "d": 1608.4541666666628,
      "v": 98
    },
    {
      "midi": 64,
      "hit": false,
      "t": 72139.16937499995,
      "d": 1608.4541666666628,
      "v": 98
    },
    {
      "midi": 57,
      "hit": false,
      "t": 73899.27779166662,
      "d": 1992.185375000001,
      "v": 94
    },
    {
      "midi": 65,
      "hit": false,
      "t": 73899.27779166662,
      "d": 1992.185375000001,
      "v": 91
    },
    {
      "midi": 77,
      "hit": false,
      "t": 73899.27779166662,
      "d": 1992.185375000001,
      "v": 113
    },
    {
      "midi": 64,
      "hit": false,
      "t": 75891.46316666662,
      "d": 514.7053333333315,
      "v": 67
    },
    {
      "midi": 55,
      "hit": false,
      "t": 75891.46316666662,
      "d": 556.0655833333294,
      "v": 67
    },
    {
      "midi": 62,
      "hit": false,
      "t": 76546.33379166662,
      "d": 873.1608333333425,
      "v": 73
    },
    {
      "midi": 55,
      "hit": false,
      "t": 76555.52495833329,
      "d": 861.671875,
      "v": 71
    },
    {
      "midi": 57,
      "hit": false,
      "t": 77428.68579166663,
      "d": 1610.7519583333342,
      "v": 98
    },
    {
      "midi": 64,
      "hit": false,
      "t": 77428.68579166663,
      "d": 1610.7519583333342,
      "v": 98
    },
    {
      "midi": 76,
      "hit": false,
      "t": 77428.68579166663,
      "d": 1918.6560416666616,
      "v": 119
    },
    {
      "midi": 65,
      "hit": false,
      "t": 79193.38979166663,
      "d": 1989.8875833333295,
      "v": 91
    },
    {
      "midi": 57,
      "hit": false,
      "t": 79197.98537499996,
      "d": 1985.2920000000013,
      "v": 94
    },
    {
      "midi": 77,
      "hit": false,
      "t": 79197.98537499996,
      "d": 1985.2920000000013,
      "v": 113
    },
    {
      "midi": 64,
      "hit": false,
      "t": 81183.27737499996,
      "d": 514.7053333333315,
      "v": 81
    },
    {
      "midi": 55,
      "hit": false,
      "t": 81183.27737499996,
      "d": 537.6832500000019,
      "v": 87
    },
    {
      "midi": 62,
      "hit": false,
      "t": 81840.44579166663,
      "d": 861.671875,
      "v": 89
    },
    {
      "midi": 55,
      "hit": false,
      "t": 81840.44579166663,
      "d": 866.2674583333282,
      "v": 81
    },
    {
      "midi": 76,
      "hit": false,
      "t": 82711.30883333329,
      "d": 1031.7084583333344,
      "v": 123
    },
    {
      "midi": 69,
      "hit": false,
      "t": 82727.39337499996,
      "d": 1845.1267083333369,
      "v": 100
    },
    {
      "midi": 64,
      "hit": false,
      "t": 82727.39337499996,
      "d": 1858.9134583333362,
      "v": 119
    },
    {
      "midi": 65,
      "hit": false,
      "t": 84705.79199999996,
      "d": 737.5911250000063,
      "v": 91
    },
    {
      "midi": 57,
      "hit": false,
      "t": 84712.68537499996,
      "d": 749.0800833333342,
      "v": 94
    },
    {
      "midi": 77,
      "hit": false,
      "t": 84712.68537499996,
      "d": 749.0800833333342,
      "v": 113
    },
    {
      "midi": 64,
      "hit": false,
      "t": 85590.44179166663,
      "d": 510.1097499999887,
      "v": 79
    },
    {
      "midi": 57,
      "hit": false,
      "t": 85590.44179166663,
      "d": 523.896499999988,
      "v": 79
    },
    {
      "midi": 76,
      "hit": false,
      "t": 85595.03737499996,
      "d": 514.7053333333315,
      "v": 117
    },
    {
      "midi": 74,
      "hit": false,
      "t": 86256.80137499995,
      "d": 1831.3399583333376,
      "v": 115
    },
    {
      "midi": 55,
      "hit": false,
      "t": 86256.80137499995,
      "d": 1925.5494166666758,
      "v": 82
    },
    {
      "midi": 62,
      "hit": false,
      "t": 86256.80137499995,
      "d": 1925.5494166666758,
      "v": 85
    },
    {
      "midi": 69,
      "hit": false,
      "t": 88244.39116666662,
      "d": 730.6977500000066,
      "v": 89
    },
    {
      "midi": 81,
      "hit": false,
      "t": 88244.39116666662,
      "d": 760.5690416666766,
      "v": 113
    },
    {
      "midi": 62,
      "hit": false,
      "t": 88244.39116666662,
      "d": 767.4624166666763,
      "v": 98
    },
    {
      "midi": 62,
      "hit": false,
      "t": 89117.55199999997,
      "d": 611.2125833333412,
      "v": 87
    },
    {
      "midi": 67,
      "hit": false,
      "t": 89117.55199999997,
      "d": 611.2125833333412,
      "v": 92
    },
    {
      "midi": 79,
      "hit": false,
      "t": 89124.44537499997,
      "d": 533.0876666666736,
      "v": 113
    },
    {
      "midi": 76,
      "hit": false,
      "t": 89781.61379166665,
      "d": 1918.6560416666616,
      "v": 119
    },
    {
      "midi": 57,
      "hit": false,
      "t": 89786.20937499998,
      "d": 1606.156375000006,
      "v": 98
    },
    {
      "midi": 64,
      "hit": false,
      "t": 89786.20937499998,
      "d": 1606.156375000006,
      "v": 98
    },
    {
      "midi": 65,
      "hit": false,
      "t": 91764.60799999998,
      "d": 739.8889166666631,
      "v": 91
    },
    {
      "midi": 57,
      "hit": false,
      "t": 91771.50137499998,
      "d": 751.377874999991,
      "v": 94
    },
    {
      "midi": 77,
      "hit": false,
      "t": 91771.50137499998,
      "d": 751.377874999991,
      "v": 113
    },
    {
      "midi": 64,
      "hit": false,
      "t": 92649.25779166663,
      "d": 510.1097499999887,
      "v": 79
    },
    {
      "midi": 57,
      "hit": false,
      "t": 92649.25779166663,
      "d": 526.1942916666449,
      "v": 79
    },
    {
      "midi": 76,
      "hit": false,
      "t": 92653.85337499996,
      "d": 517.0031249999884,
      "v": 117
    },
    {
      "midi": 74,
      "hit": false,
      "t": 93315.61737499994,
      "d": 1831.3399583333376,
      "v": 115
    },
    {
      "midi": 55,
      "hit": false,
      "t": 93315.61737499994,
      "d": 1925.5494166666758,
      "v": 82
    },
    {
      "midi": 62,
      "hit": false,
      "t": 93315.61737499994,
      "d": 1925.5494166666758,
      "v": 85
    },
    {
      "midi": 69,
      "hit": false,
      "t": 95300.90937499996,
      "d": 735.2933333333349,
      "v": 89
    },
    {
      "midi": 81,
      "hit": false,
      "t": 95300.90937499996,
      "d": 758.2712500000052,
      "v": 113
    },
    {
      "midi": 62,
      "hit": false,
      "t": 95300.90937499996,
      "d": 767.4624166666763,
      "v": 98
    },
    {
      "midi": 62,
      "hit": false,
      "t": 96178.66579166663,
      "d": 613.510374999998,
      "v": 87
    },
    {
      "midi": 67,
      "hit": false,
      "t": 96178.66579166663,
      "d": 613.510374999998,
      "v": 92
    },
    {
      "midi": 79,
      "hit": false,
      "t": 96183.26137499996,
      "d": 533.0876666666736,
      "v": 113
    },
    {
      "midi": 76,
      "hit": false,
      "t": 96840.42979166663,
      "d": 1916.3582500000048,
      "v": 119
    },
    {
      "midi": 57,
      "hit": false,
      "t": 96842.7275833333,
      "d": 1608.4541666666628,
      "v": 98
    },
    {
      "midi": 64,
      "hit": false,
      "t": 96842.7275833333,
      "d": 1608.4541666666628,
      "v": 98
    },
    {
      "midi": 65,
      "hit": false,
      "t": 98823.42399999997,
      "d": 737.5911250000063,
      "v": 91
    },
    {
      "midi": 57,
      "hit": false,
      "t": 98830.31737499997,
      "d": 749.0800833333342,
      "v": 94
    },
    {
      "midi": 77,
      "hit": false,
      "t": 98830.31737499997,
      "d": 749.0800833333342,
      "v": 113
    },
    {
      "midi": 64,
      "hit": false,
      "t": 99705.77599999997,
      "d": 512.4075416666601,
      "v": 79
    },
    {
      "midi": 57,
      "hit": false,
      "t": 99705.77599999997,
      "d": 526.1942916666594,
      "v": 79
    },
    {
      "midi": 76,
      "hit": false,
      "t": 99712.66937499997,
      "d": 514.7053333333315,
      "v": 117
    },
    {
      "midi": 74,
      "hit": false,
      "t": 100374.43337499996,
      "d": 1831.3399583333376,
      "v": 115
    },
    {
      "midi": 55,
      "hit": false,
      "t": 100374.43337499996,
      "d": 1927.8472083333327,
      "v": 82
    },
    {
      "midi": 62,
      "hit": false,
      "t": 100374.43337499996,
      "d": 1927.8472083333327,
      "v": 85
    },
    {
      "midi": 69,
      "hit": false,
      "t": 102362.02316666664,
      "d": 735.2933333333349,
      "v": 89
    },
    {
      "midi": 81,
      "hit": false,
      "t": 102362.02316666664,
      "d": 753.6756666666624,
      "v": 113
    },
    {
      "midi": 62,
      "hit": false,
      "t": 102362.02316666664,
      "d": 767.4624166666617,
      "v": 98
    },
    {
      "midi": 79,
      "hit": false,
      "t": 103237.48179166664,
      "d": 539.9810416666733,
      "v": 113
    },
    {
      "midi": 62,
      "hit": false,
      "t": 103237.48179166664,
      "d": 613.5103750000126,
      "v": 87
    },
    {
      "midi": 67,
      "hit": false,
      "t": 103237.48179166664,
      "d": 613.5103750000126,
      "v": 92
    },
    {
      "midi": 76,
      "hit": false,
      "t": 103899.24579166665,
      "d": 1916.3582499999902,
      "v": 119
    },
    {
      "midi": 57,
      "hit": false,
      "t": 103903.84137499997,
      "d": 1603.8585833333345,
      "v": 98
    },
    {
      "midi": 64,
      "hit": false,
      "t": 103903.84137499997,
      "d": 1603.8585833333345,
      "v": 98
    },
    {
      "midi": 65,
      "hit": false,
      "t": 105884.53779166663,
      "d": 737.5911250000063,
      "v": 91
    },
    {
      "midi": 57,
      "hit": false,
      "t": 105886.8355833333,
      "d": 751.3778750000056,
      "v": 94
    },
    {
      "midi": 77,
      "hit": false,
      "t": 105886.8355833333,
      "d": 751.3778750000056,
      "v": 113
    },
    {
      "midi": 64,
      "hit": false,
      "t": 106766.88979166665,
      "d": 512.4075416666601,
      "v": 79
    },
    {
      "midi": 57,
      "hit": false,
      "t": 106766.88979166665,
      "d": 523.896499999988,
      "v": 79
    },
    {
      "midi": 76,
      "hit": false,
      "t": 106771.48537499997,
      "d": 514.7053333333315,
      "v": 117
    },
    {
      "midi": 74,
      "hit": false,
      "t": 107435.54716666664,
      "d": 1824.446583333338,
      "v": 115
    },
    {
      "midi": 55,
      "hit": false,
      "t": 107435.54716666664,
      "d": 1925.5494166666758,
      "v": 82
    },
    {
      "midi": 62,
      "hit": false,
      "t": 107435.54716666664,
      "d": 1925.5494166666758,
      "v": 85
    },
    {
      "midi": 69,
      "hit": false,
      "t": 109420.83916666666,
      "d": 735.2933333333349,
      "v": 89
    },
    {
      "midi": 81,
      "hit": false,
      "t": 109420.83916666666,
      "d": 755.9734583333338,
      "v": 113
    },
    {
      "midi": 62,
      "hit": false,
      "t": 109420.83916666666,
      "d": 769.7602083333331,
      "v": 98
    },
    {
      "midi": 62,
      "hit": false,
      "t": 110296.29779166666,
      "d": 613.510374999998,
      "v": 87
    },
    {
      "midi": 67,
      "hit": false,
      "t": 110296.29779166666,
      "d": 613.510374999998,
      "v": 92
    },
    {
      "midi": 79,
      "hit": false,
      "t": 110300.89337499999,
      "d": 533.0876666666736,
      "v": 113
    },
    {
      "midi": 76,
      "hit": false,
      "t": 110958.06179166665,
      "d": 1916.3582499999902,
      "v": 119
    },
    {
      "midi": 57,
      "hit": false,
      "t": 110962.65737499998,
      "d": 1603.8585833333345,
      "v": 98
    },
    {
      "midi": 64,
      "hit": false,
      "t": 110962.65737499998,
      "d": 1603.8585833333345,
      "v": 98
    },
    {
      "midi": 65,
      "hit": false,
      "t": 112941.05599999998,
      "d": 737.5911250000063,
      "v": 91
    },
    {
      "midi": 57,
      "hit": false,
      "t": 112947.94937499998,
      "d": 746.7822916666773,
      "v": 94
    },
    {
      "midi": 77,
      "hit": false,
      "t": 112947.94937499998,
      "d": 746.7822916666773,
      "v": 113
    },
    {
      "midi": 64,
      "hit": false,
      "t": 113823.408,
      "d": 514.7053333333315,
      "v": 79
    },
    {
      "midi": 57,
      "hit": false,
      "t": 113823.408,
      "d": 526.194291666674,
      "v": 79
    },
    {
      "midi": 76,
      "hit": false,
      "t": 113830.301375,
      "d": 517.0031250000029,
      "v": 117
    },
    {
      "midi": 74,
      "hit": false,
      "t": 114496.66095833333,
      "d": 1826.7443749999948,
      "v": 115
    },
    {
      "midi": 55,
      "hit": false,
      "t": 114496.66095833333,
      "d": 1923.2516249999899,
      "v": 82
    },
    {
      "midi": 62,
      "hit": false,
      "t": 114496.66095833333,
      "d": 1923.2516249999899,
      "v": 85
    },
    {
      "midi": 69,
      "hit": false,
      "t": 116477.35737499999,
      "d": 737.5911250000063,
      "v": 89
    },
    {
      "midi": 81,
      "hit": false,
      "t": 116477.35737499999,
      "d": 755.9734583333338,
      "v": 113
    },
    {
      "midi": 62,
      "hit": false,
      "t": 116477.35737499999,
      "d": 769.7602083333331,
      "v": 98
    },
    {
      "midi": 62,
      "hit": false,
      "t": 117352.81599999999,
      "d": 615.8081666666694,
      "v": 87
    },
    {
      "midi": 67,
      "hit": false,
      "t": 117352.81599999999,
      "d": 615.8081666666694,
      "v": 92
    },
    {
      "midi": 79,
      "hit": false,
      "t": 117359.70937499999,
      "d": 535.3854583333305,
      "v": 113
    },
    {
      "midi": 76,
      "hit": false,
      "t": 118016.87779166666,
      "d": 1918.6560416666762,
      "v": 119
    },
    {
      "midi": 57,
      "hit": false,
      "t": 118023.77116666666,
      "d": 1606.156375000006,
      "v": 98
    },
    {
      "midi": 64,
      "hit": false,
      "t": 118023.77116666666,
      "d": 1606.156375000006,
      "v": 98
    },
    {
      "midi": 65,
      "hit": false,
      "t": 120004.46758333333,
      "d": 732.9955416666635,
      "v": 91
    },
    {
      "midi": 57,
      "hit": false,
      "t": 120004.46758333333,
      "d": 751.377874999991,
      "v": 94
    },
    {
      "midi": 77,
      "hit": false,
      "t": 120004.46758333333,
      "d": 751.377874999991,
      "v": 113
    },
    {
      "midi": 64,
      "hit": false,
      "t": 120884.52179166666,
      "d": 512.4075416666747,
      "v": 79
    },
    {
      "midi": 57,
      "hit": false,
      "t": 120884.52179166666,
      "d": 526.194291666674,
      "v": 79
    },
    {
      "midi": 76,
      "hit": false,
      "t": 120886.81958333333,
      "d": 517.0031250000029,
      "v": 117
    },
    {
      "midi": 74,
      "hit": false,
      "t": 121550.881375,
      "d": 1831.3399583333376,
      "v": 115
    },
    {
      "midi": 55,
      "hit": false,
      "t": 121550.881375,
      "d": 1925.5494166666758,
      "v": 82
    },
    {
      "midi": 62,
      "hit": false,
      "t": 121550.881375,
      "d": 1925.5494166666758,
      "v": 85
    },
    {
      "midi": 69,
      "hit": false,
      "t": 123536.17337500001,
      "d": 737.5911250000063,
      "v": 89
    },
    {
      "midi": 81,
      "hit": false,
      "t": 123536.17337500001,
      "d": 758.2712500000052,
      "v": 113
    },
    {
      "midi": 62,
      "hit": false,
      "t": 123536.17337500001,
      "d": 769.7602083333331,
      "v": 98
    },
    {
      "midi": 62,
      "hit": false,
      "t": 124413.92979166668,
      "d": 613.510374999998,
      "v": 87
    },
    {
      "midi": 67,
      "hit": false,
      "t": 124413.92979166668,
      "d": 613.510374999998,
      "v": 92
    },
    {
      "midi": 79,
      "hit": false,
      "t": 124420.82316666668,
      "d": 530.7898750000022,
      "v": 113
    },
    {
      "midi": 57,
      "hit": false,
      "t": 125080.28937500001,
      "d": 1606.156375000006,
      "v": 98
    },
    {
      "midi": 64,
      "hit": false,
      "t": 125080.28937500001,
      "d": 1606.156375000006,
      "v": 98
    },
    {
      "midi": 81,
      "hit": false,
      "t": 125296.28179166667,
      "d": 245.86370833333058,
      "v": 84
    },
    {
      "midi": 69,
      "hit": false,
      "t": 125507.678625,
      "d": 289.5217499999999,
      "v": 75
    },
    {
      "midi": 72,
      "hit": false,
      "t": 125742.053375,
      "d": 243.56591666667373,
      "v": 89
    },
    {
      "midi": 76,
      "hit": false,
      "t": 125948.854625,
      "d": 220.58800000000338,
      "v": 91
    },
    {
      "midi": 81,
      "hit": false,
      "t": 126167.14483333334,
      "d": 248.16150000000198,
      "v": 94
    },
    {
      "midi": 69,
      "hit": false,
      "t": 126378.54166666667,
      "d": 278.032791666672,
      "v": 89
    },
    {
      "midi": 72,
      "hit": false,
      "t": 126612.91641666667,
      "d": 250.45929166667338,
      "v": 81
    },
    {
      "midi": 76,
      "hit": false,
      "t": 126833.50441666668,
      "d": 160.84541666666337,
      "v": 106
    },
    {
      "midi": 77,
      "hit": false,
      "t": 127072.47475000001,
      "d": 255.05487500000163,
      "v": 104
    },
    {
      "midi": 65,
      "hit": false,
      "t": 127072.47475000001,
      "d": 721.5065833333356,
      "v": 91
    },
    {
      "midi": 57,
      "hit": false,
      "t": 127072.47475000001,
      "d": 744.4845000000059,
      "v": 94
    },
    {
      "midi": 69,
      "hit": false,
      "t": 127279.27600000001,
      "d": 266.54383333332953,
      "v": 66
    },
    {
      "midi": 72,
      "hit": false,
      "t": 127504.45958333334,
      "d": 209.09904166666092,
      "v": 84
    },
    {
      "midi": 77,
      "hit": false,
      "t": 127713.558625,
      "d": 156.24983333334967,
      "v": 79
    },
    {
      "midi": 64,
      "hit": false,
      "t": 127943.3377916667,
      "d": 512.4075416666601,
      "v": 79
    },
    {
      "midi": 57,
      "hit": false,
      "t": 127943.3377916667,
      "d": 523.896499999988,
      "v": 79
    },
    {
      "midi": 76,
      "hit": false,
      "t": 127947.93337500002,
      "d": 190.71670833333337,
      "v": 108
    },
    {
      "midi": 69,
      "hit": false,
      "t": 128163.92579166668,
      "d": 220.58800000000338,
      "v": 81
    },
    {
      "midi": 72,
      "hit": false,
      "t": 128377.62041666669,
      "d": 188.41891666666197,
      "v": 91
    },
    {
      "midi": 74,
      "hit": false,
      "t": 128600.50620833335,
      "d": 227.48137500000303,
      "v": 117
    },
    {
      "midi": 55,
      "hit": false,
      "t": 128602.80400000002,
      "d": 1932.442791666661,
      "v": 82
    },
    {
      "midi": 62,
      "hit": false,
      "t": 128607.39958333335,
      "d": 1927.8472083333327,
      "v": 85
    },
    {
      "midi": 69,
      "hit": false,
      "t": 128827.98758333335,
      "d": 227.48137500000303,
      "v": 110
    },
    {
      "midi": 81,
      "hit": false,
      "t": 129124.40270833335,
      "d": 85.01829166666721,
      "v": 37
    },
    {
      "midi": 69,
      "hit": false,
      "t": 129264.56800000001,
      "d": 126.37854166666511,
      "v": 113
    },
    {
      "midi": 69,
      "hit": false,
      "t": 129471.36925000002,
      "d": 255.05487499998708,
      "v": 91
    },
    {
      "midi": 81,
      "hit": false,
      "t": 129694.25504166668,
      "d": 202.20566666666127,
      "v": 100
    },
    {
      "midi": 69,
      "hit": false,
      "t": 129914.84304166667,
      "d": 142.46308333333582,
      "v": 106
    },
    {
      "midi": 69,
      "hit": false,
      "t": 130151.51558333334,
      "d": 381.43341666666674,
      "v": 100
    },
    {
      "midi": 62,
      "hit": false,
      "t": 130590.39379166668,
      "d": 767.4624166666617,
      "v": 98
    },
    {
      "midi": 69,
      "hit": false,
      "t": 130594.989375,
      "d": 730.6977499999921,
      "v": 89
    },
    {
      "midi": 81,
      "hit": false,
      "t": 130594.989375,
      "d": 758.2712499999907,
      "v": 113
    },
    {
      "midi": 79,
      "hit": false,
      "t": 131472.74579166668,
      "d": 537.6832500000019,
      "v": 113
    },
    {
      "midi": 62,
      "hit": false,
      "t": 131472.74579166668,
      "d": 613.5103750000126,
      "v": 87
    },
    {
      "midi": 67,
      "hit": false,
      "t": 131472.74579166668,
      "d": 613.5103750000126,
      "v": 92
    },
    {
      "midi": 76,
      "hit": false,
      "t": 132134.5097916667,
      "d": 1916.3582500000484,
      "v": 119
    },
    {
      "midi": 57,
      "hit": false,
      "t": 132139.10537500004,
      "d": 1606.1563750000205,
      "v": 98
    },
    {
      "midi": 64,
      "hit": false,
      "t": 132139.10537500004,
      "d": 1606.1563750000205,
      "v": 98
    },
    {
      "midi": 81,
      "hit": false,
      "t": 133458.03779166672,
      "d": 199.90787500000442,
      "v": 117
    },
    {
      "midi": 79,
      "hit": false,
      "t": 133664.83904166674,
      "d": 379.13562499999534,
      "v": 100
    },
    {
      "midi": 77,
      "hit": false,
      "t": 134124.3973750001,
      "d": 261.94824999998673,
      "v": 104
    },
    {
      "midi": 65,
      "hit": false,
      "t": 134124.3973750001,
      "d": 732.9955416666635,
      "v": 91
    },
    {
      "midi": 57,
      "hit": false,
      "t": 134124.3973750001,
      "d": 749.0800833333342,
      "v": 94
    },
    {
      "midi": 69,
      "hit": false,
      "t": 134335.79420833342,
      "d": 264.24604166665813,
      "v": 66
    },
    {
      "midi": 72,
      "hit": false,
      "t": 134570.1689583334,
      "d": 202.20566666667582,
      "v": 84
    },
    {
      "midi": 77,
      "hit": false,
      "t": 134772.37462500008,
      "d": 158.54762500000652,
      "v": 79
    },
    {
      "midi": 64,
      "hit": false,
      "t": 134999.8560000001,
      "d": 512.4075416666747,
      "v": 79
    },
    {
      "midi": 57,
      "hit": false,
      "t": 134999.8560000001,
      "d": 528.4920833333454,
      "v": 79
    },
    {
      "midi": 76,
      "hit": false,
      "t": 135006.7493750001,
      "d": 190.71670833331882,
      "v": 108
    },
    {
      "midi": 69,
      "hit": false,
      "t": 135215.84841666676,
      "d": 227.48137500000303,
      "v": 81
    },
    {
      "midi": 72,
      "hit": false,
      "t": 135434.1386250001,
      "d": 188.41891666664742,
      "v": 91
    },
    {
      "midi": 74,
      "hit": false,
      "t": 135652.42883333343,
      "d": 234.37475000001723,
      "v": 117
    },
    {
      "midi": 55,
      "hit": false,
      "t": 135661.62000000008,
      "d": 1934.7405833333032,
      "v": 82
    },
    {
      "midi": 62,
      "hit": false,
      "t": 135668.5133750001,
      "d": 1927.847208333289,
      "v": 85
    },
    {
      "midi": 69,
      "hit": false,
      "t": 135886.80358333344,
      "d": 227.48137500000303,
      "v": 110
    },
    {
      "midi": 81,
      "hit": false,
      "t": 136178.6231250001,
      "d": 85.01829166666721,
      "v": 37
    },
    {
      "midi": 69,
      "hit": false,
      "t": 136325.68179166678,
      "d": 121.78295833332231,
      "v": 113
    },
    {
      "midi": 69,
      "hit": false,
      "t": 136525.58966666675,
      "d": 261.94824999998673,
      "v": 91
    },
    {
      "midi": 81,
      "hit": false,
      "t": 136750.7732500001,
      "d": 199.90787499997532,
      "v": 100
    },
    {
      "midi": 69,
      "hit": false,
      "t": 136975.9568333334,
      "d": 140.16529166666442,
      "v": 106
    },
    {
      "midi": 69,
      "hit": false,
      "t": 137208.0337916667,
      "d": 383.73120833333815,
      "v": 100
    },
    {
      "midi": 62,
      "hit": false,
      "t": 137649.2097916667,
      "d": 769.7602083333477,
      "v": 98
    },
    {
      "midi": 69,
      "hit": false,
      "t": 137653.80537500005,
      "d": 730.6977499999921,
      "v": 89
    },
    {
      "midi": 81,
      "hit": false,
      "t": 137653.80537500005,
      "d": 758.2712499999907,
      "v": 113
    },
    {
      "midi": 62,
      "hit": false,
      "t": 138531.56179166673,
      "d": 611.2125833333412,
      "v": 87
    },
    {
      "midi": 67,
      "hit": false,
      "t": 138531.56179166673,
      "d": 611.2125833333412,
      "v": 92
    },
    {
      "midi": 79,
      "hit": false,
      "t": 138536.15737500007,
      "d": 526.194291666674,
      "v": 113
    },
    {
      "midi": 76,
      "hit": false,
      "t": 139193.32579166672,
      "d": 1918.6560416666616,
      "v": 119
    },
    {
      "midi": 57,
      "hit": false,
      "t": 139200.21916666673,
      "d": 1603.85858333332,
      "v": 98
    },
    {
      "midi": 64,
      "hit": false,
      "t": 139200.21916666673,
      "d": 1603.85858333332,
      "v": 98
    },
    {
      "midi": 57,
      "hit": false,
      "t": 140958.02979166672,
      "d": 1992.185375000001,
      "v": 94
    },
    {
      "midi": 65,
      "hit": false,
      "t": 140958.02979166672,
      "d": 1992.185375000001,
      "v": 91
    },
    {
      "midi": 77,
      "hit": false,
      "t": 140958.02979166672,
      "d": 1992.185375000001,
      "v": 113
    },
    {
      "midi": 55,
      "hit": false,
      "t": 142964.00191666672,
      "d": 489.42962499998976,
      "v": 91
    },
    {
      "midi": 64,
      "hit": false,
      "t": 142977.78866666672,
      "d": 450.36716666666325,
      "v": 79
    },
    {
      "midi": 62,
      "hit": false,
      "t": 143609.68137500004,
      "d": 806.5248750000028,
      "v": 73
    },
    {
      "midi": 55,
      "hit": false,
      "t": 143621.17033333337,
      "d": 804.2270833333314,
      "v": 71
    },
    {
      "midi": 57,
      "hit": false,
      "t": 144487.4377916667,
      "d": 1610.7519583333342,
      "v": 98
    },
    {
      "midi": 64,
      "hit": false,
      "t": 144487.4377916667,
      "d": 1610.7519583333342,
      "v": 98
    },
    {
      "midi": 76,
      "hit": false,
      "t": 144487.4377916667,
      "d": 1916.3582500000193,
      "v": 119
    },
    {
      "midi": 65,
      "hit": false,
      "t": 146252.1417916667,
      "d": 1989.8875833333586,
      "v": 91
    },
    {
      "midi": 57,
      "hit": false,
      "t": 146256.73737500006,
      "d": 1985.2920000000158,
      "v": 94
    },
    {
      "midi": 77,
      "hit": false,
      "t": 146256.73737500006,
      "d": 1985.2920000000158,
      "v": 113
    },
    {
      "midi": 64,
      "hit": false,
      "t": 148248.92275000009,
      "d": 484.83404166667606,
      "v": 91
    },
    {
      "midi": 55,
      "hit": false,
      "t": 148248.92275000009,
      "d": 507.81195833333186,
      "v": 98
    },
    {
      "midi": 62,
      "hit": false,
      "t": 148908.38895833344,
      "d": 852.4807083333435,
      "v": 74
    },
    {
      "midi": 55,
      "hit": false,
      "t": 148908.38895833344,
      "d": 859.3740833333577,
      "v": 81
    },
    {
      "midi": 81,
      "hit": false,
      "t": 150002.13779166678,
      "d": 250.45929166665883,
      "v": 84
    },
    {
      "midi": 64,
      "hit": false,
      "t": 150002.13779166678,
      "d": 1695.7702500000305,
      "v": 65
    },
    {
      "midi": 57,
      "hit": false,
      "t": 150002.13779166678,
      "d": 1709.5570000000298,
      "v": 60
    },
    {
      "midi": 69,
      "hit": false,
      "t": 150211.23683333345,
      "d": 287.22395833334303,
      "v": 75
    },
    {
      "midi": 72,
      "hit": false,
      "t": 150450.20716666678,
      "d": 238.97033333336003,
      "v": 89
    },
    {
      "midi": 76,
      "hit": false,
      "t": 150654.71062500012,
      "d": 222.88579166668933,
      "v": 91
    },
    {
      "midi": 81,
      "hit": false,
      "t": 150873.00083333347,
      "d": 245.86370833334513,
      "v": 94
    },
    {
      "midi": 69,
      "hit": false,
      "t": 151079.8020833335,
      "d": 282.62837500000023,
      "v": 89
    },
    {
      "midi": 72,
      "hit": false,
      "t": 151316.47462500015,
      "d": 255.05487500000163,
      "v": 81
    },
    {
      "midi": 76,
      "hit": false,
      "t": 151539.3604166668,
      "d": 186.12112500000512,
      "v": 106
    },
    {
      "midi": 77,
      "hit": false,
      "t": 151766.8417916668,
      "d": 261.94825000001583,
      "v": 104
    },
    {
      "midi": 65,
      "hit": false,
      "t": 151766.8417916668,
      "d": 735.293333333364,
      "v": 91
    },
    {
      "midi": 57,
      "hit": false,
      "t": 151766.8417916668,
      "d": 755.9734583333775,
      "v": 94
    },
    {
      "midi": 69,
      "hit": false,
      "t": 151985.13200000016,
      "d": 264.24604166668723,
      "v": 66
    },
    {
      "midi": 72,
      "hit": false,
      "t": 152214.91116666683,
      "d": 204.50345833334723,
      "v": 84
    },
    {
      "midi": 77,
      "hit": false,
      "t": 152419.41462500018,
      "d": 158.54762500000652,
      "v": 79
    },
    {
      "midi": 76,
      "hit": false,
      "t": 152646.89600000018,
      "d": 197.61008333333302,
      "v": 108
    },
    {
      "midi": 64,
      "hit": false,
      "t": 152646.89600000018,
      "d": 514.7053333333461,
      "v": 79
    },
    {
      "midi": 57,
      "hit": false,
      "t": 152646.89600000018,
      "d": 528.4920833333454,
      "v": 79
    },
    {
      "midi": 69,
      "hit": false,
      "t": 152867.48400000017,
      "d": 222.88579166668933,
      "v": 81
    },
    {
      "midi": 72,
      "hit": false,
      "t": 153083.47641666685,
      "d": 186.12112500000512,
      "v": 91
    },
    {
      "midi": 74,
      "hit": false,
      "t": 153301.7666250002,
      "d": 234.37474999998813,
      "v": 117
    },
    {
      "midi": 55,
      "hit": false,
      "t": 153310.95779166685,
      "d": 1934.7405833333614,
      "v": 82
    },
    {
      "midi": 62,
      "hit": false,
      "t": 153310.95779166685,
      "d": 1934.7405833333614,
      "v": 85
    },
    {
      "midi": 69,
      "hit": false,
      "t": 153536.14137500018,
      "d": 225.18358333336073,
      "v": 110
    },
    {
      "midi": 81,
      "hit": false,
      "t": 153827.96091666687,
      "d": 87.31608333333861,
      "v": 37
    },
    {
      "midi": 69,
      "hit": false,
      "t": 153970.4240000002,
      "d": 126.37854166666511,
      "v": 113
    },
    {
      "midi": 69,
      "hit": false,
      "t": 154177.2252500002,
      "d": 255.05487500000163,
      "v": 91
    },
    {
      "midi": 81,
      "hit": false,
      "t": 154402.40883333352,
      "d": 195.31229166666162,
      "v": 100
    },
    {
      "midi": 69,
      "hit": false,
      "t": 154622.9968333335,
      "d": 140.16529166666442,
      "v": 106
    },
    {
      "midi": 69,
      "hit": false,
      "t": 154850.47820833352,
      "d": 388.32679166668095,
      "v": 100
    },
    {
      "midi": 69,
      "hit": false,
      "t": 155296.24979166687,
      "d": 739.8889166666777,
      "v": 89
    },
    {
      "midi": 81,
      "hit": false,
      "t": 155296.24979166687,
      "d": 762.8668333333335,
      "v": 113
    },
    {
      "midi": 62,
      "hit": false,
      "t": 155296.24979166687,
      "d": 769.7602083333477,
      "v": 98
    },
    {
      "midi": 79,
      "hit": false,
      "t": 156176.3040000002,
      "d": 533.0876666666591,
      "v": 113
    },
    {
      "midi": 62,
      "hit": false,
      "t": 156176.3040000002,
      "d": 613.5103749999835,
      "v": 87
    },
    {
      "midi": 67,
      "hit": false,
      "t": 156176.3040000002,
      "d": 613.5103749999835,
      "v": 92
    },
    {
      "midi": 57,
      "hit": false,
      "t": 156838.0680000002,
      "d": 1613.0497500000056,
      "v": 98
    },
    {
      "midi": 64,
      "hit": false,
      "t": 156838.0680000002,
      "d": 1613.0497500000056,
      "v": 98
    },
    {
      "midi": 76,
      "hit": false,
      "t": 156838.0680000002,
      "d": 1920.9538333333621,
      "v": 119
    },
    {
      "midi": 81,
      "hit": false,
      "t": 158166.19158333354,
      "d": 195.31229166666162,
      "v": 117
    },
    {
      "midi": 79,
      "hit": false,
      "t": 158377.58841666687,
      "d": 374.54004166668165,
      "v": 100
    },
    {
      "midi": 77,
      "hit": false,
      "t": 158827.95558333356,
      "d": 264.24604166665813,
      "v": 104
    },
    {
      "midi": 65,
      "hit": false,
      "t": 158827.95558333356,
      "d": 732.9955416666344,
      "v": 91
    },
    {
      "midi": 57,
      "hit": false,
      "t": 158827.95558333356,
      "d": 751.3778749999765,
      "v": 94
    },
    {
      "midi": 69,
      "hit": false,
      "t": 159041.65020833357,
      "d": 268.8416249999718,
      "v": 66
    },
    {
      "midi": 72,
      "hit": false,
      "t": 159269.13158333354,
      "d": 211.39683333333232,
      "v": 84
    },
    {
      "midi": 77,
      "hit": false,
      "t": 159480.52841666687,
      "d": 153.95204166666372,
      "v": 79
    },
    {
      "midi": 76,
      "hit": false,
      "t": 159705.7120000002,
      "d": 197.61008333333302,
      "v": 108
    },
    {
      "midi": 64,
      "hit": false,
      "t": 159705.7120000002,
      "d": 514.7053333333461,
      "v": 79
    },
    {
      "midi": 57,
      "hit": false,
      "t": 159705.7120000002,
      "d": 526.194291666674,
      "v": 79
    },
    {
      "midi": 69,
      "hit": false,
      "t": 159921.70441666688,
      "d": 227.48137500000303,
      "v": 81
    },
    {
      "midi": 72,
      "hit": false,
      "t": 160142.29241666687,
      "d": 188.41891666667652,
      "v": 91
    },
    {
      "midi": 74,
      "hit": false,
      "t": 160362.88041666689,
      "d": 227.48137500000303,
      "v": 117
    },
    {
      "midi": 55,
      "hit": false,
      "t": 160369.7737916669,
      "d": 1932.44279166669,
      "v": 82
    },
    {
      "midi": 62,
      "hit": false,
      "t": 160369.7737916669,
      "d": 1932.44279166669,
      "v": 85
    },
    {
      "midi": 69,
      "hit": false,
      "t": 160590.3617916669,
      "d": 227.48137500000303,
      "v": 110
    },
    {
      "midi": 81,
      "hit": false,
      "t": 160891.37250000023,
      "d": 82.72049999999581,
      "v": 37
    },
    {
      "midi": 69,
      "hit": false,
      "t": 161029.24000000022,
      "d": 126.37854166666511,
      "v": 113
    },
    {
      "midi": 69,
      "hit": false,
      "t": 161233.74345833354,
      "d": 257.35266666667303,
      "v": 91
    },
    {
      "midi": 81,
      "hit": false,
      "t": 161456.6292500002,
      "d": 199.90787500000442,
      "v": 100
    },
    {
      "midi": 69,
      "hit": false,
      "t": 161677.21725000022,
      "d": 144.76087500000722,
      "v": 106
    },
    {
      "midi": 69,
      "hit": false,
      "t": 161909.29420833357,
      "d": 386.02900000000955,
      "v": 100
    },
    {
      "midi": 74,
      "hit": false,
      "t": 162348.17241666693,
      "d": 827.2050000000163,
      "v": 106
    },
    {
      "midi": 81,
      "hit": false,
      "t": 162352.76800000027,
      "d": 785.8447499999893,
      "v": 79
    },
    {
      "midi": 71,
      "hit": false,
      "t": 162352.76800000027,
      "d": 804.2270833333314,
      "v": 81
    },
    {
      "midi": 79,
      "hit": false,
      "t": 163253.5023333336,
      "d": 620.4037499999977,
      "v": 106
    },
    {
      "midi": 71,
      "hit": false,
      "t": 163253.5023333336,
      "d": 627.2971250000119,
      "v": 84
    },
    {
      "midi": 74,
      "hit": false,
      "t": 163253.5023333336,
      "d": 627.2971250000119,
      "v": 100
    },
    {
      "midi": 81,
      "hit": false,
      "t": 163931.35087500027,
      "d": 2031.2478333333565,
      "v": 76
    },
    {
      "midi": 76,
      "hit": false,
      "t": 163931.35087500027,
      "d": 2035.8434166666993,
      "v": 104
    },
    {
      "midi": 72,
      "hit": false,
      "t": 163931.35087500027,
      "d": 2042.7367916667135,
      "v": 104
    },
    {
      "midi": 69,
      "hit": false,
      "t": 163935.9464583336,
      "d": 2038.1412083333707,
      "v": 98
    },
    {
      "midi": 65,
      "hit": false,
      "t": 165884.47379166694,
      "d": 735.293333333364,
      "v": 91
    },
    {
      "midi": 57,
      "hit": false,
      "t": 165889.06937500028,
      "d": 746.7822916666919,
      "v": 94
    },
    {
      "midi": 77,
      "hit": false,
      "t": 165889.06937500028,
      "d": 746.7822916666919,
      "v": 113
    },
    {
      "midi": 64,
      "hit": false,
      "t": 166769.12358333365,
      "d": 507.81195833336096,
      "v": 79
    },
    {
      "midi": 57,
      "hit": false,
      "t": 166769.12358333365,
      "d": 519.3009166666889,
      "v": 79
    },
    {
      "midi": 76,
      "hit": false,
      "t": 166776.01695833367,
      "d": 512.4075416666747,
      "v": 117
    },
    {
      "midi": 74,
      "hit": false,
      "t": 167433.18537500035,
      "d": 1829.0421666666807,
      "v": 115
    },
    {
      "midi": 55,
      "hit": false,
      "t": 167433.18537500035,
      "d": 1925.5494166666758,
      "v": 82
    },
    {
      "midi": 62,
      "hit": false,
      "t": 167433.18537500035,
      "d": 1925.5494166666758,
      "v": 85
    },
    {
      "midi": 69,
      "hit": false,
      "t": 169420.77516666704,
      "d": 737.5911250000063,
      "v": 89
    },
    {
      "midi": 81,
      "hit": false,
      "t": 169420.77516666704,
      "d": 758.2712500000198,
      "v": 113
    },
    {
      "midi": 62,
      "hit": false,
      "t": 169420.77516666704,
      "d": 767.4624166666763,
      "v": 98
    },
    {
      "midi": 62,
      "hit": false,
      "t": 170296.23379166704,
      "d": 613.5103750000126,
      "v": 87
    },
    {
      "midi": 67,
      "hit": false,
      "t": 170296.23379166704,
      "d": 613.5103750000126,
      "v": 92
    },
    {
      "midi": 79,
      "hit": false,
      "t": 170303.12716666705,
      "d": 533.0876666666591,
      "v": 113
    },
    {
      "midi": 76,
      "hit": false,
      "t": 170957.99779166706,
      "d": 1918.6560416666616,
      "v": 119
    },
    {
      "midi": 57,
      "hit": false,
      "t": 170964.89116666708,
      "d": 1603.85858333332,
      "v": 98
    },
    {
      "midi": 64,
      "hit": false,
      "t": 170964.89116666708,
      "d": 1603.85858333332,
      "v": 98
    },
    {
      "midi": 65,
      "hit": false,
      "t": 172943.28979166705,
      "d": 735.2933333333349,
      "v": 91
    },
    {
      "midi": 57,
      "hit": false,
      "t": 172943.28979166705,
      "d": 755.9734583333484,
      "v": 94
    },
    {
      "midi": 77,
      "hit": false,
      "t": 172943.28979166705,
      "d": 755.9734583333484,
      "v": 113
    },
    {
      "midi": 64,
      "hit": false,
      "t": 173825.64179166706,
      "d": 510.10975000000326,
      "v": 79
    },
    {
      "midi": 57,
      "hit": false,
      "t": 173825.64179166706,
      "d": 521.5987083333603,
      "v": 79
    },
    {
      "midi": 76,
      "hit": false,
      "t": 173830.2373750004,
      "d": 512.4075416666747,
      "v": 117
    },
    {
      "midi": 74,
      "hit": false,
      "t": 174494.2991666671,
      "d": 1829.0421666666807,
      "v": 115
    },
    {
      "midi": 55,
      "hit": false,
      "t": 174494.2991666671,
      "d": 1925.5494166666758,
      "v": 82
    },
    {
      "midi": 62,
      "hit": false,
      "t": 174494.2991666671,
      "d": 1925.5494166666758,
      "v": 85
    },
    {
      "midi": 62,
      "hit": false,
      "t": 176470.40000000043,
      "d": 776.6535833333037,
      "v": 98
    },
    {
      "midi": 69,
      "hit": false,
      "t": 176479.5911666671,
      "d": 732.9955416666635,
      "v": 89
    },
    {
      "midi": 81,
      "hit": false,
      "t": 176479.5911666671,
      "d": 758.2712499999907,
      "v": 113
    },
    {
      "midi": 79,
      "hit": false,
      "t": 177355.04979166706,
      "d": 542.2788333333447,
      "v": 113
    },
    {
      "midi": 62,
      "hit": false,
      "t": 177355.04979166706,
      "d": 613.5103750000126,
      "v": 87
    },
    {
      "midi": 67,
      "hit": false,
      "t": 177355.04979166706,
      "d": 613.5103750000126,
      "v": 92
    },
    {
      "midi": 64,
      "hit": false,
      "t": 178016.81379166708,
      "d": 1610.751958333305,
      "v": 98
    },
    {
      "midi": 57,
      "hit": false,
      "t": 178021.40937500042,
      "d": 1606.1563749999623,
      "v": 98
    },
    {
      "midi": 81,
      "hit": false,
      "t": 178235.10400000043,
      "d": 250.45929166665883,
      "v": 84
    },
    {
      "midi": 69,
      "hit": false,
      "t": 178448.79862500043,
      "d": 287.22395833331393,
      "v": 75
    },
    {
      "midi": 72,
      "hit": false,
      "t": 178683.17337500042,
      "d": 245.86370833331603,
      "v": 89
    },
    {
      "midi": 76,
      "hit": false,
      "t": 178889.9746250004,
      "d": 222.88579166666023,
      "v": 91
    },
    {
      "midi": 81,
      "hit": false,
      "t": 179105.96704166706,
      "d": 250.45929166665883,
      "v": 94
    },
    {
      "midi": 69,
      "hit": false,
      "t": 179319.66166666706,
      "d": 278.03279166665743,
      "v": 89
    },
    {
      "midi": 72,
      "hit": false,
      "t": 179551.73862500038,
      "d": 255.05487500000163,
      "v": 81
    },
    {
      "midi": 76,
      "hit": false,
      "t": 179770.02883333372,
      "d": 165.44099999999162,
      "v": 106
    },
    {
      "midi": 77,
      "hit": false,
      "t": 180006.70137500038,
      "d": 266.54383333332953,
      "v": 104
    },
    {
      "midi": 65,
      "hit": false,
      "t": 180006.70137500038,
      "d": 728.3999583333207,
      "v": 91
    },
    {
      "midi": 57,
      "hit": false,
      "t": 180006.70137500038,
      "d": 749.0800833333342,
      "v": 94
    },
    {
      "midi": 69,
      "hit": false,
      "t": 180222.69379166706,
      "d": 264.24604166665813,
      "v": 66
    },
    {
      "midi": 72,
      "hit": false,
      "t": 180452.4729583337,
      "d": 202.20566666667582,
      "v": 84
    },
    {
      "midi": 77,
      "hit": false,
      "t": 180654.67862500038,
      "d": 156.24983333333512,
      "v": 79
    },
    {
      "midi": 64,
      "hit": false,
      "t": 180884.45779166705,
      "d": 512.4075416666747,
      "v": 79
    },
    {
      "midi": 57,
      "hit": false,
      "t": 180884.45779166705,
      "d": 521.5987083333312,
      "v": 79
    },
    {
      "midi": 76,
      "hit": false,
      "t": 180895.94675000038,
      "d": 181.52554166666232,
      "v": 108
    },
    {
      "midi": 69,
      "hit": false,
      "t": 181098.15241666706,
      "d": 232.07695833334583,
      "v": 81
    },
    {
      "midi": 72,
      "hit": false,
      "t": 181314.14483333373,
      "d": 193.01449999999022,
      "v": 91
    },
    {
      "midi": 74,
      "hit": false,
      "t": 181537.0306250004,
      "d": 232.07695833334583,
      "v": 117
    },
    {
      "midi": 55,
      "hit": false,
      "t": 181546.22179166705,
      "d": 1932.44279166669,
      "v": 82
    },
    {
      "midi": 62,
      "hit": false,
      "t": 181550.8173750004,
      "d": 1927.8472083333472,
      "v": 85
    },
    {
      "midi": 69,
      "hit": false,
      "t": 181769.10758333374,
      "d": 229.77916666664532,
      "v": 110
    },
    {
      "midi": 81,
      "hit": false,
      "t": 182067.82050000038,
      "d": 82.72049999999581,
      "v": 37
    },
    {
      "midi": 69,
      "hit": false,
      "t": 182205.68800000037,
      "d": 128.67633333333652,
      "v": 113
    },
    {
      "midi": 69,
      "hit": false,
      "t": 182410.19145833372,
      "d": 257.35266666667303,
      "v": 91
    },
    {
      "midi": 81,
      "hit": false,
      "t": 182635.37504166705,
      "d": 199.90787500000442,
      "v": 100
    },
    {
      "midi": 69,
      "hit": false,
      "t": 182851.36745833373,
      "d": 149.35645833332092,
      "v": 106
    },
    {
      "midi": 69,
      "hit": false,
      "t": 183090.33779166706,
      "d": 381.43341666666674,
      "v": 100
    },
    {
      "midi": 62,
      "hit": false,
      "t": 183531.51379166706,
      "d": 767.4624166666763,
      "v": 98
    },
    {
      "midi": 69,
      "hit": false,
      "t": 183538.40716666708,
      "d": 728.3999583333207,
      "v": 89
    },
    {
      "midi": 81,
      "hit": false,
      "t": 183538.40716666708,
      "d": 753.6756666666479,
      "v": 113
    },
    {
      "midi": 79,
      "hit": false,
      "t": 184411.5680000004,
      "d": 537.6832500000019,
      "v": 113
    },
    {
      "midi": 62,
      "hit": false,
      "t": 184411.5680000004,
      "d": 615.8081666666549,
      "v": 87
    },
    {
      "midi": 67,
      "hit": false,
      "t": 184411.5680000004,
      "d": 615.8081666666549,
      "v": 92
    },
    {
      "midi": 76,
      "hit": false,
      "t": 185075.62979166707,
      "d": 1916.3582500000193,
      "v": 119
    },
    {
      "midi": 57,
      "hit": false,
      "t": 185087.1187500004,
      "d": 1599.2630000000063,
      "v": 98
    },
    {
      "midi": 64,
      "hit": false,
      "t": 185087.1187500004,
      "d": 1599.2630000000063,
      "v": 98
    },
    {
      "midi": 81,
      "hit": false,
      "t": 186399.15779166706,
      "d": 199.90787500000442,
      "v": 117
    },
    {
      "midi": 79,
      "hit": false,
      "t": 186610.5546250004,
      "d": 376.83783333335305,
      "v": 100
    },
    {
      "midi": 77,
      "hit": false,
      "t": 187065.51737500043,
      "d": 259.65045833334443,
      "v": 104
    },
    {
      "midi": 65,
      "hit": false,
      "t": 187065.51737500043,
      "d": 728.3999583333207,
      "v": 91
    },
    {
      "midi": 57,
      "hit": false,
      "t": 187065.51737500043,
      "d": 749.0800833333342,
      "v": 94
    },
    {
      "midi": 69,
      "hit": false,
      "t": 187281.5097916671,
      "d": 261.94824999998673,
      "v": 66
    },
    {
      "midi": 72,
      "hit": false,
      "t": 187504.39558333377,
      "d": 209.09904166666092,
      "v": 84
    },
    {
      "midi": 77,
      "hit": false,
      "t": 187713.49462500043,
      "d": 158.54762500000652,
      "v": 79
    },
    {
      "midi": 76,
      "hit": false,
      "t": 187943.2737916671,
      "d": 188.41891666667652,
      "v": 108
    },
    {
      "midi": 64,
      "hit": false,
      "t": 187943.2737916671,
      "d": 512.4075416667038,
      "v": 79
    },
    {
      "midi": 57,
      "hit": false,
      "t": 187943.2737916671,
      "d": 523.8965000000317,
      "v": 79
    },
    {
      "midi": 69,
      "hit": false,
      "t": 188163.86179166712,
      "d": 222.88579166668933,
      "v": 81
    },
    {
      "midi": 72,
      "hit": false,
      "t": 188379.8542083338,
      "d": 186.12112500000512,
      "v": 91
    },
    {
      "midi": 74,
      "hit": false,
      "t": 188600.4422083338,
      "d": 222.88579166668933,
      "v": 117
    },
    {
      "midi": 55,
      "hit": false,
      "t": 188605.03779166716,
      "d": 1930.1449999999895,
      "v": 82
    },
    {
      "midi": 62,
      "hit": false,
      "t": 188605.03779166716,
      "d": 1930.1449999999895,
      "v": 85
    },
    {
      "midi": 69,
      "hit": false,
      "t": 188823.3280000005,
      "d": 229.77916666667443,
      "v": 110
    },
    {
      "midi": 81,
      "hit": false,
      "t": 189126.63650000052,
      "d": 78.12491666665301,
      "v": 37
    },
    {
      "midi": 69,
      "hit": false,
      "t": 189264.5040000005,
      "d": 124.08074999999371,
      "v": 113
    },
    {
      "midi": 69,
      "hit": false,
      "t": 189469.00745833383,
      "d": 257.35266666667303,
      "v": 91
    },
    {
      "midi": 81,
      "hit": false,
      "t": 189694.19104166716,
      "d": 199.90787500000442,
      "v": 100
    },
    {
      "midi": 69,
      "hit": false,
      "t": 189917.07683333382,
      "d": 140.16529166666442,
      "v": 106
    },
    {
      "midi": 69,
      "hit": false,
      "t": 190149.15379166714,
      "d": 383.73120833333815,
      "v": 100
    },
    {
      "midi": 62,
      "hit": false,
      "t": 190590.32979166714,
      "d": 769.7602083333477,
      "v": 98
    },
    {
      "midi": 69,
      "hit": false,
      "t": 190594.9253750005,
      "d": 732.9955416666635,
      "v": 89
    },
    {
      "midi": 81,
      "hit": false,
      "t": 190594.9253750005,
      "d": 760.5690416666621,
      "v": 113
    },
    {
      "midi": 62,
      "hit": false,
      "t": 191470.3840000005,
      "d": 613.5103750000126,
      "v": 87
    },
    {
      "midi": 67,
      "hit": false,
      "t": 191470.3840000005,
      "d": 613.5103750000126,
      "v": 92
    },
    {
      "midi": 79,
      "hit": false,
      "t": 191477.2773750005,
      "d": 528.4920833333454,
      "v": 113
    },
    {
      "midi": 57,
      "hit": false,
      "t": 192139.0413750005,
      "d": 1606.1563749999914,
      "v": 98
    },
    {
      "midi": 64,
      "hit": false,
      "t": 192139.0413750005,
      "d": 1606.1563749999914,
      "v": 98
    },
    {
      "midi": 81,
      "hit": false,
      "t": 192355.03379166717,
      "d": 248.16149999998743,
      "v": 84
    },
    {
      "midi": 69,
      "hit": false,
      "t": 192566.4306250005,
      "d": 282.62837500000023,
      "v": 75
    },
    {
      "midi": 72,
      "hit": false,
      "t": 192800.8053750005,
      "d": 245.86370833334513,
      "v": 89
    },
    {
      "midi": 76,
      "hit": false,
      "t": 193009.90441666718,
      "d": 220.58799999998882,
      "v": 91
    },
    {
      "midi": 81,
      "hit": false,
      "t": 193225.89683333383,
      "d": 248.16149999998743,
      "v": 94
    },
    {
      "midi": 69,
      "hit": false,
      "t": 193437.29366666716,
      "d": 278.03279166665743,
      "v": 89
    },
    {
      "midi": 72,
      "hit": false,
      "t": 193669.37062500048,
      "d": 250.45929166668793,
      "v": 81
    },
    {
      "midi": 76,
      "hit": false,
      "t": 193892.25641666717,
      "d": 156.24983333333512,
      "v": 106
    },
    {
      "midi": 77,
      "hit": false,
      "t": 194119.73779166717,
      "d": 268.84162500000093,
      "v": 104
    },
    {
      "midi": 65,
      "hit": false,
      "t": 194119.73779166717,
      "d": 737.5911249999772,
      "v": 91
    },
    {
      "midi": 57,
      "hit": false,
      "t": 194119.73779166717,
      "d": 751.3778749999765,
      "v": 94
    },
    {
      "midi": 69,
      "hit": false,
      "t": 194340.32579166716,
      "d": 264.24604166665813,
      "v": 66
    },
    {
      "midi": 72,
      "hit": false,
      "t": 194565.5093750005,
      "d": 209.09904166666092,
      "v": 84
    },
    {
      "midi": 77,
      "hit": false,
      "t": 194774.60841666715,
      "d": 149.35645833332092,
      "v": 79
    },
    {
      "midi": 76,
      "hit": false,
      "t": 195002.08979166712,
      "d": 195.31229166666162,
      "v": 108
    },
    {
      "midi": 64,
      "hit": false,
      "t": 195002.08979166712,
      "d": 512.4075416666456,
      "v": 79
    },
    {
      "midi": 57,
      "hit": false,
      "t": 195002.08979166712,
      "d": 526.1942916666449,
      "v": 79
    },
    {
      "midi": 69,
      "hit": false,
      "t": 195222.6777916671,
      "d": 220.58799999998882,
      "v": 81
    },
    {
      "midi": 72,
      "hit": false,
      "t": 195434.07462500044,
      "d": 190.71670833331882,
      "v": 91
    },
    {
      "midi": 74,
      "hit": false,
      "t": 195656.9604166671,
      "d": 227.48137500000303,
      "v": 117
    },
    {
      "midi": 55,
      "hit": false,
      "t": 195666.15158333376,
      "d": 1930.1450000000477,
      "v": 82
    },
    {
      "midi": 62,
      "hit": false,
      "t": 195666.15158333376,
      "d": 1930.1450000000477,
      "v": 85
    },
    {
      "midi": 69,
      "hit": false,
      "t": 195884.4417916671,
      "d": 229.77916666667443,
      "v": 110
    },
    {
      "midi": 81,
      "hit": false,
      "t": 196185.45250000045,
      "d": 75.82712500001071,
      "v": 37
    },
    {
      "midi": 69,
      "hit": false,
      "t": 196321.0222083338,
      "d": 128.67633333333652,
      "v": 113
    },
    {
      "midi": 69,
      "hit": false,
      "t": 196530.12125000046,
      "d": 255.05487500000163,
      "v": 91
    },
    {
      "midi": 81,
      "hit": false,
      "t": 196750.70925000045,
      "d": 199.90787500000442,
      "v": 100
    },
    {
      "midi": 69,
      "hit": false,
      "t": 196975.89283333378,
      "d": 142.46308333333582,
      "v": 106
    },
    {
      "midi": 69,
      "hit": false,
      "t": 197207.96979166713,
      "d": 381.43341666666674,
      "v": 100
    },
    {
      "midi": 62,
      "hit": false,
      "t": 197649.14579166714,
      "d": 767.4624166666763,
      "v": 98
    },
    {
      "midi": 69,
      "hit": false,
      "t": 197653.74137500048,
      "d": 728.3999583333207,
      "v": 89
    },
    {
      "midi": 81,
      "hit": false,
      "t": 197653.74137500048,
      "d": 758.2712499999907,
      "v": 113
    },
    {
      "midi": 79,
      "hit": false,
      "t": 198531.49779166715,
      "d": 533.0876666666591,
      "v": 113
    },
    {
      "midi": 62,
      "hit": false,
      "t": 198531.49779166715,
      "d": 613.5103749999835,
      "v": 87
    },
    {
      "midi": 67,
      "hit": false,
      "t": 198531.49779166715,
      "d": 613.5103749999835,
      "v": 92
    },
    {
      "midi": 76,
      "hit": false,
      "t": 199193.26179166714,
      "d": 1918.6560416666616,
      "v": 119
    },
    {
      "midi": 57,
      "hit": false,
      "t": 199197.8573750005,
      "d": 1603.85858333332,
      "v": 98
    },
    {
      "midi": 64,
      "hit": false,
      "t": 199197.8573750005,
      "d": 1603.85858333332,
      "v": 98
    },
    {
      "midi": 81,
      "hit": false,
      "t": 200519.0875833338,
      "d": 197.61008333333302,
      "v": 117
    },
    {
      "midi": 79,
      "hit": false,
      "t": 200730.48441666714,
      "d": 376.83783333332394,
      "v": 100
    },
    {
      "midi": 77,
      "hit": false,
      "t": 201183.14937500047,
      "d": 264.24604166665813,
      "v": 104
    },
    {
      "midi": 65,
      "hit": false,
      "t": 201183.14937500047,
      "d": 730.697749999963,
      "v": 91
    },
    {
      "midi": 57,
      "hit": false,
      "t": 201183.14937500047,
      "d": 749.0800833333051,
      "v": 94
    },
    {
      "midi": 69,
      "hit": false,
      "t": 201396.84400000048,
      "d": 266.5438333333004,
      "v": 66
    },
    {
      "midi": 72,
      "hit": false,
      "t": 201626.62316666712,
      "d": 206.80124999998952,
      "v": 84
    },
    {
      "midi": 77,
      "hit": false,
      "t": 201833.4244166671,
      "d": 153.95204166666372,
      "v": 79
    },
    {
      "midi": 76,
      "hit": false,
      "t": 202058.60800000044,
      "d": 193.01449999999022,
      "v": 108
    },
    {
      "midi": 64,
      "hit": false,
      "t": 202058.60800000044,
      "d": 514.705333333317,
      "v": 79
    },
    {
      "midi": 57,
      "hit": false,
      "t": 202058.60800000044,
      "d": 526.1942916666449,
      "v": 79
    },
    {
      "midi": 69,
      "hit": false,
      "t": 202279.19600000043,
      "d": 225.18358333333163,
      "v": 81
    },
    {
      "midi": 72,
      "hit": false,
      "t": 202495.1884166671,
      "d": 186.12112499997602,
      "v": 91
    },
    {
      "midi": 74,
      "hit": false,
      "t": 202715.7764166671,
      "d": 227.48137500003213,
      "v": 117
    },
    {
      "midi": 55,
      "hit": false,
      "t": 202722.6697916671,
      "d": 1934.7405833333614,
      "v": 82
    },
    {
      "midi": 62,
      "hit": false,
      "t": 202727.26537500045,
      "d": 1930.1450000000186,
      "v": 85
    },
    {
      "midi": 69,
      "hit": false,
      "t": 202943.25779166713,
      "d": 229.77916666667443,
      "v": 110
    },
    {
      "midi": 81,
      "hit": false,
      "t": 203239.67291666713,
      "d": 85.01829166666721,
      "v": 37
    },
    {
      "midi": 69,
      "hit": false,
      "t": 203382.13600000046,
      "d": 128.67633333333652,
      "v": 113
    },
    {
      "midi": 69,
      "hit": false,
      "t": 203588.93725000045,
      "d": 257.35266666667303,
      "v": 91
    },
    {
      "midi": 81,
      "hit": false,
      "t": 203814.12083333379,
      "d": 195.31229166666162,
      "v": 100
    },
    {
      "midi": 69,
      "hit": false,
      "t": 204032.4110416671,
      "d": 142.46308333333582,
      "v": 106
    },
    {
      "midi": 69,
      "hit": false,
      "t": 204264.48800000045,
      "d": 386.02900000000955,
      "v": 100
    },
    {
      "midi": 69,
      "hit": false,
      "t": 204717.1529583338,
      "d": 726.1021666666784,
      "v": 89
    },
    {
      "midi": 81,
      "hit": false,
      "t": 204717.1529583338,
      "d": 755.9734583333484,
      "v": 113
    },
    {
      "midi": 62,
      "hit": false,
      "t": 204717.1529583338,
      "d": 758.2712500000198,
      "v": 98
    },
    {
      "midi": 62,
      "hit": false,
      "t": 205588.0160000005,
      "d": 618.1059583333263,
      "v": 87
    },
    {
      "midi": 67,
      "hit": false,
      "t": 205588.0160000005,
      "d": 618.1059583333263,
      "v": 92
    },
    {
      "midi": 79,
      "hit": false,
      "t": 205592.61158333384,
      "d": 530.7898749999877,
      "v": 113
    },
    {
      "midi": 76,
      "hit": false,
      "t": 206249.7800000005,
      "d": 3747.6982083333423,
      "v": 119
    },
    {
      "midi": 57,
      "hit": false,
      "t": 206254.37558333384,
      "d": 3743.1026249999995,
      "v": 98
    },
    {
      "midi": 64,
      "hit": false,
      "t": 206254.37558333384,
      "d": 3743.1026249999995,
      "v": 98
    }
  ]
}