{
  "jsonPath": "Soundtracks/Video Game Music/Street Fighter 2/street-fighter-ii-title-screen.json",
  "path": "Soundtracks\\Video Game Music\\Street Fighter 2\\Street_Fighter_II_Title_Screen.mid",
  "name": "Street_Fighter_II_Title_Screen",
  "difficulty": "Advanced",
  "bpm": 180.00018000018,
  "notes": [
    {
      "midi": 81,
      "hit": false,
      "t": 1003.9082578125,
      "d": 174.15399414062506,
      "v": 53
    },
    {
      "midi": 88,
      "hit": false,
      "t": 1168.296607421875,
      "d": 174.80503710937478,
      "v": 52
    },
    {
      "midi": 93,
      "hit": false,
      "t": 1334.6380859375,
      "d": 186.19828906249995,
      "v": 57
    },
    {
      "midi": 81,
      "hit": false,
      "t": 1511.0707304687498,
      "d": 175.13055859375004,
      "v": 52
    },
    {
      "midi": 88,
      "hit": false,
      "t": 1676.4356445312499,
      "d": 174.15399414062495,
      "v": 53
    },
    {
      "midi": 93,
      "hit": false,
      "t": 1840.8239941406248,
      "d": 175.7816015625001,
      "v": 52
    },
    {
      "midi": 81,
      "hit": false,
      "t": 2006.8399511718749,
      "d": 175.78160156249987,
      "v": 55
    },
    {
      "midi": 88,
      "hit": false,
      "t": 2172.8559082031247,
      "d": 174.15399414062495,
      "v": 52
    },
    {
      "midi": 93,
      "hit": false,
      "t": 2337.2442578124997,
      "d": 174.15399414062495,
      "v": 53
    },
    {
      "midi": 81,
      "hit": false,
      "t": 2501.6326074218746,
      "d": 174.805037109375,
      "v": 52
    },
    {
      "midi": 88,
      "hit": false,
      "t": 2667.9740859374997,
      "d": 186.19828906249995,
      "v": 57
    },
    {
      "midi": 93,
      "hit": false,
      "t": 2844.4067304687496,
      "d": 175.13055859375027,
      "v": 52
    },
    {
      "midi": 45,
      "hit": false,
      "t": 2844.4067304687496,
      "d": 80.72932812499994,
      "v": 44
    },
    {
      "midi": 52,
      "hit": false,
      "t": 2844.4067304687496,
      "d": 80.72932812499994,
      "v": 58
    },
    {
      "midi": 52,
      "hit": false,
      "t": 2925.4615800781244,
      "d": 83.98454296874979,
      "v": 58
    },
    {
      "midi": 45,
      "hit": false,
      "t": 2925.4615800781244,
      "d": 88.86736523437457,
      "v": 44
    },
    {
      "midi": 52,
      "hit": false,
      "t": 3009.771644531249,
      "d": 330.07878515625,
      "v": 57
    },
    {
      "midi": 57,
      "hit": false,
      "t": 3009.771644531249,
      "d": 330.07878515625,
      "v": 71
    },
    {
      "midi": 81,
      "hit": false,
      "t": 3009.77164453125,
      "d": 174.15399414062495,
      "v": 53
    },
    {
      "midi": 88,
      "hit": false,
      "t": 3174.159994140625,
      "d": 175.78160156249987,
      "v": 52
    },
    {
      "midi": 52,
      "hit": false,
      "t": 3340.1759511718737,
      "d": 330.07878515625,
      "v": 59
    },
    {
      "midi": 57,
      "hit": false,
      "t": 3340.1759511718737,
      "d": 330.07878515625,
      "v": 73
    },
    {
      "midi": 93,
      "hit": false,
      "t": 3340.1759511718747,
      "d": 175.78160156249987,
      "v": 55
    },
    {
      "midi": 81,
      "hit": false,
      "t": 3506.1919082031245,
      "d": 174.15399414062495,
      "v": 52
    },
    {
      "midi": 45,
      "hit": false,
      "t": 3670.5802578124985,
      "d": 164.06282812500012,
      "v": 57
    },
    {
      "midi": 52,
      "hit": false,
      "t": 3670.5802578124985,
      "d": 164.06282812500012,
      "v": 71
    },
    {
      "midi": 88,
      "hit": false,
      "t": 3670.5802578124994,
      "d": 174.15399414062495,
      "v": 53
    },
    {
      "midi": 45,
      "hit": false,
      "t": 3834.9686074218735,
      "d": 154.94822656250017,
      "v": 56
    },
    {
      "midi": 52,
      "hit": false,
      "t": 3834.9686074218735,
      "d": 164.71387109375019,
      "v": 70
    },
    {
      "midi": 93,
      "hit": false,
      "t": 3834.9686074218744,
      "d": 174.805037109375,
      "v": 52
    },
    {
      "midi": 52,
      "hit": false,
      "t": 4001.3100859374986,
      "d": 176.10712304687468,
      "v": 61
    },
    {
      "midi": 57,
      "hit": false,
      "t": 4001.3100859374986,
      "d": 176.10712304687468,
      "v": 75
    },
    {
      "midi": 81,
      "hit": false,
      "t": 4001.3100859374995,
      "d": 186.19828906249904,
      "v": 57
    },
    {
      "midi": 45,
      "hit": false,
      "t": 4177.742730468748,
      "d": 155.27374804687497,
      "v": 56
    },
    {
      "midi": 52,
      "hit": false,
      "t": 4177.742730468748,
      "d": 165.03939257812453,
      "v": 70
    },
    {
      "midi": 88,
      "hit": false,
      "t": 4177.742730468749,
      "d": 175.1305585937489,
      "v": 52
    },
    {
      "midi": 52,
      "hit": false,
      "t": 4343.107644531247,
      "d": 330.07878515625,
      "v": 57
    },
    {
      "midi": 57,
      "hit": false,
      "t": 4343.107644531247,
      "d": 330.07878515625,
      "v": 71
    },
    {
      "midi": 93,
      "hit": false,
      "t": 4343.107644531248,
      "d": 174.1539941406245,
      "v": 53
    },
    {
      "midi": 81,
      "hit": false,
      "t": 4507.495994140623,
      "d": 175.78160156249942,
      "v": 52
    },
    {
      "midi": 50,
      "hit": false,
      "t": 4673.511951171872,
      "d": 80.40380664062468,
      "v": 59
    },
    {
      "midi": 55,
      "hit": false,
      "t": 4673.511951171872,
      "d": 85.28662890624946,
      "v": 73
    },
    {
      "midi": 88,
      "hit": false,
      "t": 4673.511951171873,
      "d": 175.78160156249942,
      "v": 55
    },
    {
      "midi": 43,
      "hit": false,
      "t": 4759.124101562496,
      "d": 75.1954628906251,
      "v": 64
    },
    {
      "midi": 50,
      "hit": false,
      "t": 4839.527908203121,
      "d": 75.5209843749999,
      "v": 56
    },
    {
      "midi": 55,
      "hit": false,
      "t": 4839.527908203121,
      "d": 80.40380664062468,
      "v": 70
    },
    {
      "midi": 93,
      "hit": false,
      "t": 4839.527908203123,
      "d": 174.1539941406245,
      "v": 52
    },
    {
      "midi": 43,
      "hit": false,
      "t": 4920.257236328121,
      "d": 78.45067773437495,
      "v": 64
    },
    {
      "midi": 52,
      "hit": false,
      "t": 5003.916257812495,
      "d": 78.45067773437495,
      "v": 57
    },
    {
      "midi": 57,
      "hit": false,
      "t": 5003.916257812495,
      "d": 83.33349999999973,
      "v": 71
    },
    {
      "midi": 81,
      "hit": false,
      "t": 5003.916257812498,
      "d": 174.1539941406245,
      "v": 53
    },
    {
      "midi": 45,
      "hit": false,
      "t": 5087.57527929687,
      "d": 75.5209843749999,
      "v": 64
    },
    {
      "midi": 52,
      "hit": false,
      "t": 5168.304607421869,
      "d": 342.4486015624998,
      "v": 56
    },
    {
      "midi": 57,
      "hit": false,
      "t": 5168.304607421869,
      "d": 342.4486015624998,
      "v": 66
    },
    {
      "midi": 88,
      "hit": false,
      "t": 5168.304607421873,
      "d": 174.805037109375,
      "v": 52
    },
    {
      "midi": 93,
      "hit": false,
      "t": 5334.646085937497,
      "d": 186.1982890624995,
      "v": 57
    },
    {
      "midi": 45,
      "hit": false,
      "t": 5511.078730468744,
      "d": 155.27374804687497,
      "v": 56
    },
    {
      "midi": 52,
      "hit": false,
      "t": 5511.078730468744,
      "d": 165.03939257812453,
      "v": 70
    },
    {
      "midi": 81,
      "hit": false,
      "t": 5511.078730468747,
      "d": 175.1305585937489,
      "v": 52
    },
    {
      "midi": 52,
      "hit": false,
      "t": 5676.443644531243,
      "d": 330.07878515625,
      "v": 57
    },
    {
      "midi": 57,
      "hit": false,
      "t": 5676.443644531243,
      "d": 330.07878515625,
      "v": 71
    },
    {
      "midi": 88,
      "hit": false,
      "t": 5676.443644531247,
      "d": 174.1539941406245,
      "v": 53
    },
    {
      "midi": 93,
      "hit": false,
      "t": 5840.831994140622,
      "d": 175.78160156249942,
      "v": 52
    },
    {
      "midi": 52,
      "hit": false,
      "t": 6006.847951171868,
      "d": 330.07878515625,
      "v": 59
    },
    {
      "midi": 57,
      "hit": false,
      "t": 6006.847951171868,
      "d": 330.07878515625,
      "v": 73
    },
    {
      "midi": 81,
      "hit": false,
      "t": 6006.8479511718715,
      "d": 175.78160156249942,
      "v": 55
    },
    {
      "midi": 88,
      "hit": false,
      "t": 6172.863908203121,
      "d": 174.1539941406245,
      "v": 52
    },
    {
      "midi": 45,
      "hit": false,
      "t": 6337.252257812493,
      "d": 164.06282812500012,
      "v": 57
    },
    {
      "midi": 52,
      "hit": false,
      "t": 6337.252257812493,
      "d": 164.06282812500012,
      "v": 71
    },
    {
      "midi": 93,
      "hit": false,
      "t": 6337.252257812496,
      "d": 174.1539941406245,
      "v": 53
    },
    {
      "midi": 45,
      "hit": false,
      "t": 6501.640607421868,
      "d": 154.94822656250017,
      "v": 56
    },
    {
      "midi": 52,
      "hit": false,
      "t": 6501.640607421868,
      "d": 164.71387109374973,
      "v": 70
    },
    {
      "midi": 81,
      "hit": false,
      "t": 6501.640607421871,
      "d": 174.805037109375,
      "v": 52
    },
    {
      "midi": 52,
      "hit": false,
      "t": 6667.982085937492,
      "d": 176.10712304687513,
      "v": 61
    },
    {
      "midi": 57,
      "hit": false,
      "t": 6667.982085937492,
      "d": 176.10712304687513,
      "v": 75
    },
    {
      "midi": 88,
      "hit": false,
      "t": 6667.982085937496,
      "d": 186.1982890624995,
      "v": 57
    },
    {
      "midi": 45,
      "hit": false,
      "t": 6844.414730468742,
      "d": 155.27374804687497,
      "v": 56
    },
    {
      "midi": 52,
      "hit": false,
      "t": 6844.414730468742,
      "d": 165.03939257812453,
      "v": 70
    },
    {
      "midi": 93,
      "hit": false,
      "t": 6844.414730468746,
      "d": 175.1305585937489,
      "v": 52
    },
    {
      "midi": 52,
      "hit": false,
      "t": 7009.7796445312415,
      "d": 330.07878515625,
      "v": 57
    },
    {
      "midi": 57,
      "hit": false,
      "t": 7009.7796445312415,
      "d": 330.07878515625,
      "v": 71
    },
    {
      "midi": 81,
      "hit": false,
      "t": 7009.779644531245,
      "d": 174.1539941406245,
      "v": 53
    },
    {
      "midi": 88,
      "hit": false,
      "t": 7174.16799414062,
      "d": 175.78160156249942,
      "v": 52
    },
    {
      "midi": 50,
      "hit": false,
      "t": 7340.183951171866,
      "d": 80.40380664062468,
      "v": 59
    },
    {
      "midi": 55,
      "hit": false,
      "t": 7340.183951171866,
      "d": 85.28662890624946,
      "v": 73
    },
    {
      "midi": 93,
      "hit": false,
      "t": 7340.18395117187,
      "d": 175.78160156249942,
      "v": 55
    },
    {
      "midi": 43,
      "hit": false,
      "t": 7425.796101562491,
      "d": 75.1954628906251,
      "v": 64
    },
    {
      "midi": 50,
      "hit": false,
      "t": 7506.199908203115,
      "d": 75.5209843749999,
      "v": 56
    },
    {
      "midi": 55,
      "hit": false,
      "t": 7506.199908203115,
      "d": 80.40380664062468,
      "v": 70
    },
    {
      "midi": 81,
      "hit": false,
      "t": 7506.19990820312,
      "d": 174.1539941406245,
      "v": 52
    },
    {
      "midi": 43,
      "hit": false,
      "t": 7586.929236328115,
      "d": 78.45067773437495,
      "v": 64
    },
    {
      "midi": 52,
      "hit": false,
      "t": 7670.588257812489,
      "d": 78.45067773437495,
      "v": 57
    },
    {
      "midi": 57,
      "hit": false,
      "t": 7670.588257812489,
      "d": 83.33349999999973,
      "v": 71
    },
    {
      "midi": 88,
      "hit": false,
      "t": 7670.588257812495,
      "d": 174.1539941406245,
      "v": 53
    },
    {
      "midi": 45,
      "hit": false,
      "t": 7754.247279296864,
      "d": 75.5209843749999,
      "v": 64
    },
    {
      "midi": 52,
      "hit": false,
      "t": 7834.976607421863,
      "d": 342.4486015624998,
      "v": 56
    },
    {
      "midi": 57,
      "hit": false,
      "t": 7834.976607421863,
      "d": 342.4486015624998,
      "v": 66
    },
    {
      "midi": 93,
      "hit": false,
      "t": 7834.97660742187,
      "d": 174.805037109375,
      "v": 52
    },
    {
      "midi": 81,
      "hit": false,
      "t": 8001.318085937494,
      "d": 186.1982890624995,
      "v": 57
    },
    {
      "midi": 45,
      "hit": false,
      "t": 8177.750730468738,
      "d": 155.27374804687588,
      "v": 56
    },
    {
      "midi": 52,
      "hit": false,
      "t": 8177.750730468738,
      "d": 165.03939257812544,
      "v": 70
    },
    {
      "midi": 88,
      "hit": false,
      "t": 8177.750730468744,
      "d": 175.1305585937498,
      "v": 52
    },
    {
      "midi": 52,
      "hit": false,
      "t": 8343.115644531239,
      "d": 330.0787851562509,
      "v": 57
    },
    {
      "midi": 57,
      "hit": false,
      "t": 8343.115644531239,
      "d": 330.0787851562509,
      "v": 71
    },
    {
      "midi": 93,
      "hit": false,
      "t": 8343.115644531244,
      "d": 174.1539941406245,
      "v": 53
    },
    {
      "midi": 81,
      "hit": false,
      "t": 8507.50399414062,
      "d": 175.78160156249942,
      "v": 52
    },
    {
      "midi": 52,
      "hit": false,
      "t": 8673.519951171866,
      "d": 330.0787851562509,
      "v": 59
    },
    {
      "midi": 57,
      "hit": false,
      "t": 8673.519951171866,
      "d": 330.0787851562509,
      "v": 73
    },
    {
      "midi": 88,
      "hit": false,
      "t": 8673.51995117187,
      "d": 175.78160156249942,
      "v": 55
    },
    {
      "midi": 93,
      "hit": false,
      "t": 8839.53590820312,
      "d": 174.1539941406245,
      "v": 52
    },
    {
      "midi": 45,
      "hit": false,
      "t": 9003.924257812492,
      "d": 164.0628281249992,
      "v": 57
    },
    {
      "midi": 52,
      "hit": false,
      "t": 9003.924257812492,
      "d": 164.0628281249992,
      "v": 71
    },
    {
      "midi": 81,
      "hit": false,
      "t": 9003.924257812494,
      "d": 174.1539941406245,
      "v": 53
    },
    {
      "midi": 45,
      "hit": false,
      "t": 9168.312607421867,
      "d": 154.94822656249926,
      "v": 56
    },
    {
      "midi": 52,
      "hit": false,
      "t": 9168.312607421867,
      "d": 164.71387109374882,
      "v": 70
    },
    {
      "midi": 88,
      "hit": false,
      "t": 9168.312607421869,
      "d": 174.8050371093741,
      "v": 52
    },
    {
      "midi": 52,
      "hit": false,
      "t": 9334.65408593749,
      "d": 176.10712304687513,
      "v": 61
    },
    {
      "midi": 57,
      "hit": false,
      "t": 9334.65408593749,
      "d": 176.10712304687513,
      "v": 75
    },
    {
      "midi": 93,
      "hit": false,
      "t": 9334.654085937493,
      "d": 186.1982890625004,
      "v": 57
    },
    {
      "midi": 45,
      "hit": false,
      "t": 9511.086730468742,
      "d": 155.27374804687497,
      "v": 56
    },
    {
      "midi": 52,
      "hit": false,
      "t": 9511.086730468742,
      "d": 165.03939257812453,
      "v": 70
    },
    {
      "midi": 81,
      "hit": false,
      "t": 9511.086730468744,
      "d": 175.1305585937498,
      "v": 52
    },
    {
      "midi": 52,
      "hit": false,
      "t": 9676.451644531242,
      "d": 330.0787851562509,
      "v": 57
    },
    {
      "midi": 57,
      "hit": false,
      "t": 9676.451644531242,
      "d": 330.0787851562509,
      "v": 71
    },
    {
      "midi": 88,
      "hit": false,
      "t": 9676.451644531244,
      "d": 174.1539941406245,
      "v": 53
    },
    {
      "midi": 93,
      "hit": false,
      "t": 9840.839994140619,
      "d": 175.78160156249942,
      "v": 52
    },
    {
      "midi": 81,
      "hit": false,
      "t": 10006.855951171869,
      "d": 175.78160156249942,
      "v": 55
    },
    {
      "midi": 50,
      "hit": false,
      "t": 10006.855951171869,
      "d": 80.40380664062468,
      "v": 59
    },
    {
      "midi": 55,
      "hit": false,
      "t": 10006.855951171869,
      "d": 85.28662890624946,
      "v": 73
    },
    {
      "midi": 43,
      "hit": false,
      "t": 10092.468101562494,
      "d": 75.19546289062419,
      "v": 64
    },
    {
      "midi": 88,
      "hit": false,
      "t": 10172.871908203118,
      "d": 174.1539941406245,
      "v": 52
    },
    {
      "midi": 50,
      "hit": false,
      "t": 10172.871908203118,
      "d": 75.5209843749999,
      "v": 56
    },
    {
      "midi": 55,
      "hit": false,
      "t": 10172.871908203118,
      "d": 80.40380664062468,
      "v": 70
    },
    {
      "midi": 43,
      "hit": false,
      "t": 10253.601236328119,
      "d": 78.45067773437586,
      "v": 64
    },
    {
      "midi": 93,
      "hit": false,
      "t": 10337.260257812493,
      "d": 174.1539941406245,
      "v": 53
    },
    {
      "midi": 52,
      "hit": false,
      "t": 10337.260257812495,
      "d": 78.45067773437586,
      "v": 57
    },
    {
      "midi": 57,
      "hit": false,
      "t": 10337.260257812495,
      "d": 83.33350000000064,
      "v": 71
    },
    {
      "midi": 45,
      "hit": false,
      "t": 10420.919279296872,
      "d": 75.5209843749999,
      "v": 64
    },
    {
      "midi": 81,
      "hit": false,
      "t": 10501.648607421868,
      "d": 174.8050371093741,
      "v": 52
    },
    {
      "midi": 52,
      "hit": false,
      "t": 10501.648607421872,
      "d": 154.94822656249926,
      "v": 56
    },
    {
      "midi": 57,
      "hit": false,
      "t": 10501.648607421872,
      "d": 164.71387109374882,
      "v": 70
    },
    {
      "midi": 48,
      "hit": false,
      "t": 11009.787644531243,
      "d": 164.0628281249992,
      "v": 57
    },
    {
      "midi": 53,
      "hit": false,
      "t": 11009.787644531243,
      "d": 164.0628281249992,
      "v": 71
    },
    {
      "midi": 29,
      "hit": false,
      "t": 11009.787644531245,
      "d": 164.0628281249992,
      "v": 41
    },
    {
      "midi": 41,
      "hit": false,
      "t": 11009.787644531245,
      "d": 164.0628281249992,
      "v": 59
    },
    {
      "midi": 39,
      "hit": false,
      "t": 11174.175994140618,
      "d": 75.5209843749999,
      "v": 55
    },
    {
      "midi": 48,
      "hit": false,
      "t": 11174.175994140618,
      "d": 80.40380664062468,
      "v": 70
    },
    {
      "midi": 41,
      "hit": false,
      "t": 11174.17599414062,
      "d": 165.69043554687414,
      "v": 58
    },
    {
      "midi": 29,
      "hit": false,
      "t": 11174.17599414062,
      "d": 175.78160156249942,
      "v": 40
    },
    {
      "midi": 43,
      "hit": false,
      "t": 11254.905322265618,
      "d": 80.07828515625079,
      "v": 64
    },
    {
      "midi": 50,
      "hit": false,
      "t": 11340.19195117187,
      "d": 155.92479101562458,
      "v": 59
    },
    {
      "midi": 55,
      "hit": false,
      "t": 11340.19195117187,
      "d": 165.69043554687414,
      "v": 73
    },
    {
      "midi": 31,
      "hit": false,
      "t": 11340.19195117187,
      "d": 165.69043554687414,
      "v": 44
    },
    {
      "midi": 43,
      "hit": false,
      "t": 11340.19195117187,
      "d": 165.69043554687414,
      "v": 61
    },
    {
      "midi": 39,
      "hit": false,
      "t": 11506.20790820312,
      "d": 75.5209843749999,
      "v": 63
    },
    {
      "midi": 43,
      "hit": false,
      "t": 11506.20790820312,
      "d": 164.0628281249992,
      "v": 58
    },
    {
      "midi": 31,
      "hit": false,
      "t": 11506.20790820312,
      "d": 174.1539941406245,
      "v": 41
    },
    {
      "midi": 48,
      "hit": false,
      "t": 11586.93723632812,
      "d": 78.45067773437586,
      "v": 64
    },
    {
      "midi": 39,
      "hit": false,
      "t": 11670.596257812496,
      "d": 154.29718359374965,
      "v": 64
    },
    {
      "midi": 40,
      "hit": false,
      "t": 11834.98460742187,
      "d": 164.71387109375064,
      "v": 57
    },
    {
      "midi": 28,
      "hit": false,
      "t": 11834.98460742187,
      "d": 174.80503710937592,
      "v": 40
    },
    {
      "midi": 47,
      "hit": false,
      "t": 11834.984607421871,
      "d": 1498.04987109375,
      "v": 56
    },
    {
      "midi": 52,
      "hit": false,
      "t": 11834.984607421871,
      "d": 1498.04987109375,
      "v": 66
    },
    {
      "midi": 40,
      "hit": false,
      "t": 12001.326085937497,
      "d": 1331.7083925781244,
      "v": 55
    },
    {
      "midi": 28,
      "hit": false,
      "t": 12177.758730468746,
      "d": 165.03939257812453,
      "v": 40
    },
    {
      "midi": 40,
      "hit": false,
      "t": 12177.758730468746,
      "d": 165.03939257812453,
      "v": 53
    },
    {
      "midi": 28,
      "hit": false,
      "t": 12343.123644531246,
      "d": 164.0628281249992,
      "v": 41
    },
    {
      "midi": 40,
      "hit": false,
      "t": 12343.123644531246,
      "d": 164.0628281249992,
      "v": 54
    },
    {
      "midi": 28,
      "hit": false,
      "t": 12507.511994140621,
      "d": 165.69043554687414,
      "v": 40
    },
    {
      "midi": 40,
      "hit": false,
      "t": 12507.511994140621,
      "d": 165.69043554687414,
      "v": 57
    },
    {
      "midi": 28,
      "hit": false,
      "t": 12673.52795117187,
      "d": 165.69043554687414,
      "v": 43
    },
    {
      "midi": 38,
      "hit": false,
      "t": 12673.52795117187,
      "d": 165.69043554687414,
      "v": 60
    },
    {
      "midi": 28,
      "hit": false,
      "t": 12839.54390820312,
      "d": 164.0628281249992,
      "v": 40
    },
    {
      "midi": 38,
      "hit": false,
      "t": 12839.54390820312,
      "d": 164.0628281249992,
      "v": 57
    },
    {
      "midi": 40,
      "hit": false,
      "t": 13003.932257812496,
      "d": 164.0628281249992,
      "v": 58
    },
    {
      "midi": 28,
      "hit": false,
      "t": 13003.932257812496,
      "d": 174.1539941406245,
      "v": 41
    },
    {
      "midi": 40,
      "hit": false,
      "t": 13168.32060742187,
      "d": 164.71387109374882,
      "v": 57
    },
    {
      "midi": 33,
      "hit": false,
      "t": 13168.32060742187,
      "d": 174.8050371093741,
      "v": 41
    },
    {
      "midi": 33,
      "hit": false,
      "t": 13511.094730468745,
      "d": 165.03939257812453,
      "v": 41
    },
    {
      "midi": 40,
      "hit": false,
      "t": 13511.094730468745,
      "d": 165.03939257812453,
      "v": 43
    },
    {
      "midi": 45,
      "hit": false,
      "t": 13511.094730468745,
      "d": 165.03939257812453,
      "v": 58
    },
    {
      "midi": 62,
      "hit": false,
      "t": 13676.459644531245,
      "d": 154.29718359374965,
      "v": 57
    },
    {
      "midi": 74,
      "hit": false,
      "t": 13676.459644531245,
      "d": 164.0628281249992,
      "v": 71
    },
    {
      "midi": 33,
      "hit": false,
      "t": 13676.459644531245,
      "d": 164.0628281249992,
      "v": 42
    },
    {
      "midi": 40,
      "hit": false,
      "t": 13676.459644531245,
      "d": 164.0628281249992,
      "v": 44
    },
    {
      "midi": 45,
      "hit": false,
      "t": 13676.459644531245,
      "d": 164.0628281249992,
      "v": 55
    },
    {
      "midi": 61,
      "hit": false,
      "t": 13840.84799414062,
      "d": 321.94074804687443,
      "v": 56
    },
    {
      "midi": 73,
      "hit": false,
      "t": 13840.84799414062,
      "d": 331.706392578124,
      "v": 70
    },
    {
      "midi": 33,
      "hit": false,
      "t": 13840.84799414062,
      "d": 165.69043554687414,
      "v": 41
    },
    {
      "midi": 40,
      "hit": false,
      "t": 13840.84799414062,
      "d": 165.69043554687414,
      "v": 43
    },
    {
      "midi": 45,
      "hit": false,
      "t": 13840.84799414062,
      "d": 165.69043554687414,
      "v": 54
    },
    {
      "midi": 33,
      "hit": false,
      "t": 14006.86395117187,
      "d": 165.69043554687414,
      "v": 44
    },
    {
      "midi": 40,
      "hit": false,
      "t": 14006.86395117187,
      "d": 165.69043554687414,
      "v": 46
    },
    {
      "midi": 45,
      "hit": false,
      "t": 14006.86395117187,
      "d": 165.69043554687414,
      "v": 57
    },
    {
      "midi": 62,
      "hit": false,
      "t": 14172.87990820312,
      "d": 328.45117773437414,
      "v": 56
    },
    {
      "midi": 74,
      "hit": false,
      "t": 14172.87990820312,
      "d": 328.45117773437414,
      "v": 70
    },
    {
      "midi": 33,
      "hit": false,
      "t": 14172.87990820312,
      "d": 164.0628281249992,
      "v": 41
    },
    {
      "midi": 40,
      "hit": false,
      "t": 14172.87990820312,
      "d": 164.0628281249992,
      "v": 43
    },
    {
      "midi": 45,
      "hit": false,
      "t": 14172.87990820312,
      "d": 164.0628281249992,
      "v": 54
    },
    {
      "midi": 40,
      "hit": false,
      "t": 14337.268257812495,
      "d": 164.0628281249992,
      "v": 44
    },
    {
      "midi": 45,
      "hit": false,
      "t": 14337.268257812495,
      "d": 164.0628281249992,
      "v": 59
    },
    {
      "midi": 33,
      "hit": false,
      "t": 14337.268257812495,
      "d": 174.1539941406245,
      "v": 42
    },
    {
      "midi": 64,
      "hit": false,
      "t": 14501.65660742187,
      "d": 672.201865234374,
      "v": 56
    },
    {
      "midi": 76,
      "hit": false,
      "t": 14501.65660742187,
      "d": 672.201865234374,
      "v": 70
    },
    {
      "midi": 43,
      "hit": false,
      "t": 14501.65660742187,
      "d": 164.71387109374882,
      "v": 58
    },
    {
      "midi": 31,
      "hit": false,
      "t": 14501.65660742187,
      "d": 174.8050371093741,
      "v": 41
    },
    {
      "midi": 40,
      "hit": false,
      "t": 14501.65660742187,
      "d": 174.8050371093741,
      "v": 43
    },
    {
      "midi": 31,
      "hit": false,
      "t": 14844.430730468745,
      "d": 165.03939257812453,
      "v": 41
    },
    {
      "midi": 40,
      "hit": false,
      "t": 14844.430730468745,
      "d": 165.03939257812453,
      "v": 43
    },
    {
      "midi": 43,
      "hit": false,
      "t": 14844.430730468745,
      "d": 165.03939257812453,
      "v": 54
    },
    {
      "midi": 31,
      "hit": false,
      "t": 15009.795644531245,
      "d": 164.0628281249992,
      "v": 42
    },
    {
      "midi": 40,
      "hit": false,
      "t": 15009.795644531245,
      "d": 164.0628281249992,
      "v": 44
    },
    {
      "midi": 43,
      "hit": false,
      "t": 15009.795644531245,
      "d": 164.0628281249992,
      "v": 55
    },
    {
      "midi": 74,
      "hit": false,
      "t": 15174.18399414062,
      "d": 75.5209843749999,
      "v": 64
    },
    {
      "midi": 31,
      "hit": false,
      "t": 15174.18399414062,
      "d": 165.69043554687414,
      "v": 41
    },
    {
      "midi": 43,
      "hit": false,
      "t": 15174.18399414062,
      "d": 165.69043554687414,
      "v": 50
    },
    {
      "midi": 40,
      "hit": false,
      "t": 15174.18399414062,
      "d": 175.78160156249942,
      "v": 54
    },
    {
      "midi": 73,
      "hit": false,
      "t": 15254.91332226562,
      "d": 80.07828515625079,
      "v": 64
    },
    {
      "midi": 31,
      "hit": false,
      "t": 15340.19995117187,
      "d": 165.69043554687414,
      "v": 44
    },
    {
      "midi": 38,
      "hit": false,
      "t": 15340.19995117187,
      "d": 165.69043554687414,
      "v": 57
    },
    {
      "midi": 43,
      "hit": false,
      "t": 15340.19995117187,
      "d": 165.69043554687414,
      "v": 53
    },
    {
      "midi": 59,
      "hit": false,
      "t": 15340.199951171871,
      "d": 659.5065273437503,
      "v": 59
    },
    {
      "midi": 71,
      "hit": false,
      "t": 15340.199951171871,
      "d": 659.5065273437503,
      "v": 73
    },
    {
      "midi": 31,
      "hit": false,
      "t": 15506.21590820312,
      "d": 164.0628281249992,
      "v": 41
    },
    {
      "midi": 43,
      "hit": false,
      "t": 15506.21590820312,
      "d": 164.0628281249992,
      "v": 50
    },
    {
      "midi": 38,
      "hit": false,
      "t": 15506.21590820312,
      "d": 174.1539941406245,
      "v": 54
    },
    {
      "midi": 40,
      "hit": false,
      "t": 15670.604257812494,
      "d": 164.0628281249992,
      "v": 44
    },
    {
      "midi": 43,
      "hit": false,
      "t": 15670.604257812494,
      "d": 164.0628281249992,
      "v": 59
    },
    {
      "midi": 31,
      "hit": false,
      "t": 15670.604257812494,
      "d": 174.1539941406245,
      "v": 42
    },
    {
      "midi": 45,
      "hit": false,
      "t": 15834.99260742187,
      "d": 164.71387109374882,
      "v": 58
    },
    {
      "midi": 33,
      "hit": false,
      "t": 15834.99260742187,
      "d": 174.8050371093741,
      "v": 41
    },
    {
      "midi": 40,
      "hit": false,
      "t": 15834.99260742187,
      "d": 174.8050371093741,
      "v": 43
    },
    {
      "midi": 33,
      "hit": false,
      "t": 16177.766730468744,
      "d": 165.03939257812453,
      "v": 41
    },
    {
      "midi": 40,
      "hit": false,
      "t": 16177.766730468744,
      "d": 165.03939257812453,
      "v": 43
    },
    {
      "midi": 45,
      "hit": false,
      "t": 16177.766730468744,
      "d": 165.03939257812453,
      "v": 54
    },
    {
      "midi": 61,
      "hit": false,
      "t": 16177.766730468747,
      "d": 155.27374804687497,
      "v": 56
    },
    {
      "midi": 73,
      "hit": false,
      "t": 16177.766730468747,
      "d": 165.03939257812453,
      "v": 70
    },
    {
      "midi": 33,
      "hit": false,
      "t": 16343.131644531244,
      "d": 164.0628281249992,
      "v": 42
    },
    {
      "midi": 40,
      "hit": false,
      "t": 16343.131644531244,
      "d": 164.0628281249992,
      "v": 44
    },
    {
      "midi": 45,
      "hit": false,
      "t": 16343.131644531244,
      "d": 164.0628281249992,
      "v": 55
    },
    {
      "midi": 62,
      "hit": false,
      "t": 16343.131644531248,
      "d": 154.29718359374965,
      "v": 57
    },
    {
      "midi": 74,
      "hit": false,
      "t": 16343.131644531248,
      "d": 164.0628281249992,
      "v": 71
    },
    {
      "midi": 33,
      "hit": false,
      "t": 16507.519994140617,
      "d": 165.69043554687596,
      "v": 41
    },
    {
      "midi": 40,
      "hit": false,
      "t": 16507.519994140617,
      "d": 165.69043554687596,
      "v": 43
    },
    {
      "midi": 45,
      "hit": false,
      "t": 16507.519994140617,
      "d": 165.69043554687596,
      "v": 54
    },
    {
      "midi": 64,
      "hit": false,
      "t": 16507.51999414062,
      "d": 321.94074804687625,
      "v": 56
    },
    {
      "midi": 76,
      "hit": false,
      "t": 16507.51999414062,
      "d": 331.7063925781258,
      "v": 70
    },
    {
      "midi": 33,
      "hit": false,
      "t": 16673.535951171867,
      "d": 165.69043554687596,
      "v": 44
    },
    {
      "midi": 40,
      "hit": false,
      "t": 16673.535951171867,
      "d": 165.69043554687596,
      "v": 46
    },
    {
      "midi": 45,
      "hit": false,
      "t": 16673.535951171867,
      "d": 165.69043554687596,
      "v": 57
    },
    {
      "midi": 33,
      "hit": false,
      "t": 16839.551908203117,
      "d": 164.0628281249992,
      "v": 41
    },
    {
      "midi": 40,
      "hit": false,
      "t": 16839.551908203117,
      "d": 164.0628281249992,
      "v": 43
    },
    {
      "midi": 45,
      "hit": false,
      "t": 16839.551908203117,
      "d": 164.0628281249992,
      "v": 54
    },
    {
      "midi": 69,
      "hit": false,
      "t": 16839.55190820312,
      "d": 328.45117773437596,
      "v": 56
    },
    {
      "midi": 81,
      "hit": false,
      "t": 16839.55190820312,
      "d": 328.45117773437596,
      "v": 70
    },
    {
      "midi": 40,
      "hit": false,
      "t": 17003.94025781249,
      "d": 164.0628281249992,
      "v": 44
    },
    {
      "midi": 45,
      "hit": false,
      "t": 17003.94025781249,
      "d": 164.0628281249992,
      "v": 59
    },
    {
      "midi": 33,
      "hit": false,
      "t": 17003.94025781249,
      "d": 174.15399414062267,
      "v": 42
    },
    {
      "midi": 43,
      "hit": false,
      "t": 17168.328607421863,
      "d": 164.71387109375064,
      "v": 58
    },
    {
      "midi": 31,
      "hit": false,
      "t": 17168.328607421863,
      "d": 174.8050371093741,
      "v": 41
    },
    {
      "midi": 40,
      "hit": false,
      "t": 17168.328607421863,
      "d": 174.8050371093741,
      "v": 43
    },
    {
      "midi": 74,
      "hit": false,
      "t": 17168.32860742187,
      "d": 672.2018652343759,
      "v": 56
    },
    {
      "midi": 86,
      "hit": false,
      "t": 17168.32860742187,
      "d": 672.2018652343759,
      "v": 70
    },
    {
      "midi": 31,
      "hit": false,
      "t": 17511.102730468738,
      "d": 165.03939257812453,
      "v": 41
    },
    {
      "midi": 40,
      "hit": false,
      "t": 17511.102730468738,
      "d": 165.03939257812453,
      "v": 43
    },
    {
      "midi": 43,
      "hit": false,
      "t": 17511.102730468738,
      "d": 165.03939257812453,
      "v": 54
    },
    {
      "midi": 31,
      "hit": false,
      "t": 17676.467644531236,
      "d": 164.0628281249992,
      "v": 42
    },
    {
      "midi": 40,
      "hit": false,
      "t": 17676.467644531236,
      "d": 164.0628281249992,
      "v": 44
    },
    {
      "midi": 43,
      "hit": false,
      "t": 17676.467644531236,
      "d": 164.0628281249992,
      "v": 55
    },
    {
      "midi": 31,
      "hit": false,
      "t": 17840.85599414061,
      "d": 165.69043554687596,
      "v": 41
    },
    {
      "midi": 43,
      "hit": false,
      "t": 17840.85599414061,
      "d": 165.69043554687596,
      "v": 50
    },
    {
      "midi": 40,
      "hit": false,
      "t": 17840.85599414061,
      "d": 175.78160156249942,
      "v": 54
    },
    {
      "midi": 85,
      "hit": false,
      "t": 17840.85599414062,
      "d": 75.52098437500172,
      "v": 64
    },
    {
      "midi": 83,
      "hit": false,
      "t": 17921.585322265622,
      "d": 80.07828515625079,
      "v": 64
    },
    {
      "midi": 31,
      "hit": false,
      "t": 18006.87195117186,
      "d": 165.69043554687596,
      "v": 44
    },
    {
      "midi": 38,
      "hit": false,
      "t": 18006.87195117186,
      "d": 165.69043554687596,
      "v": 57
    },
    {
      "midi": 43,
      "hit": false,
      "t": 18006.87195117186,
      "d": 165.69043554687596,
      "v": 53
    },
    {
      "midi": 69,
      "hit": false,
      "t": 18006.871951171874,
      "d": 330.07878515624907,
      "v": 59
    },
    {
      "midi": 81,
      "hit": false,
      "t": 18006.871951171874,
      "d": 330.07878515624907,
      "v": 73
    },
    {
      "midi": 31,
      "hit": false,
      "t": 18172.88790820311,
      "d": 164.0628281249992,
      "v": 41
    },
    {
      "midi": 43,
      "hit": false,
      "t": 18172.88790820311,
      "d": 164.0628281249992,
      "v": 50
    },
    {
      "midi": 38,
      "hit": false,
      "t": 18172.88790820311,
      "d": 174.15399414062267,
      "v": 54
    },
    {
      "midi": 43,
      "hit": false,
      "t": 18337.276257812482,
      "d": 164.0628281249992,
      "v": 59
    },
    {
      "midi": 31,
      "hit": false,
      "t": 18337.276257812482,
      "d": 174.15399414062267,
      "v": 42
    },
    {
      "midi": 40,
      "hit": false,
      "t": 18337.276257812482,
      "d": 174.15399414062267,
      "v": 44
    },
    {
      "midi": 71,
      "hit": false,
      "t": 18337.276257812497,
      "d": 154.29718359374965,
      "v": 57
    },
    {
      "midi": 83,
      "hit": false,
      "t": 18337.276257812497,
      "d": 164.0628281249992,
      "v": 71
    },
    {
      "midi": 41,
      "hit": false,
      "t": 18501.664607421855,
      "d": 164.71387109375064,
      "v": 58
    },
    {
      "midi": 29,
      "hit": false,
      "t": 18501.664607421855,
      "d": 174.8050371093741,
      "v": 40
    },
    {
      "midi": 36,
      "hit": false,
      "t": 18501.664607421855,
      "d": 174.8050371093741,
      "v": 42
    },
    {
      "midi": 72,
      "hit": false,
      "t": 18501.66460742187,
      "d": 672.2018652343759,
      "v": 56
    },
    {
      "midi": 84,
      "hit": false,
      "t": 18501.66460742187,
      "d": 672.2018652343759,
      "v": 70
    },
    {
      "midi": 29,
      "hit": false,
      "t": 18844.43873046873,
      "d": 165.03939257812453,
      "v": 40
    },
    {
      "midi": 36,
      "hit": false,
      "t": 18844.43873046873,
      "d": 165.03939257812453,
      "v": 42
    },
    {
      "midi": 41,
      "hit": false,
      "t": 18844.43873046873,
      "d": 165.03939257812453,
      "v": 54
    },
    {
      "midi": 29,
      "hit": false,
      "t": 19009.80364453123,
      "d": 164.0628281249992,
      "v": 41
    },
    {
      "midi": 36,
      "hit": false,
      "t": 19009.80364453123,
      "d": 164.0628281249992,
      "v": 43
    },
    {
      "midi": 41,
      "hit": false,
      "t": 19009.80364453123,
      "d": 164.0628281249992,
      "v": 55
    },
    {
      "midi": 29,
      "hit": false,
      "t": 19174.1919941406,
      "d": 165.69043554687596,
      "v": 40
    },
    {
      "midi": 36,
      "hit": false,
      "t": 19174.1919941406,
      "d": 165.69043554687596,
      "v": 42
    },
    {
      "midi": 41,
      "hit": false,
      "t": 19174.1919941406,
      "d": 165.69043554687596,
      "v": 54
    },
    {
      "midi": 83,
      "hit": false,
      "t": 19174.19199414062,
      "d": 75.52098437500172,
      "v": 64
    },
    {
      "midi": 81,
      "hit": false,
      "t": 19254.92132226562,
      "d": 80.07828515625079,
      "v": 64
    },
    {
      "midi": 29,
      "hit": false,
      "t": 19340.20795117185,
      "d": 165.69043554687596,
      "v": 43
    },
    {
      "midi": 36,
      "hit": false,
      "t": 19340.20795117185,
      "d": 165.69043554687596,
      "v": 45
    },
    {
      "midi": 41,
      "hit": false,
      "t": 19340.20795117185,
      "d": 165.69043554687596,
      "v": 57
    },
    {
      "midi": 65,
      "hit": false,
      "t": 19340.207951171873,
      "d": 330.07878515624907,
      "v": 59
    },
    {
      "midi": 77,
      "hit": false,
      "t": 19340.207951171873,
      "d": 330.07878515624907,
      "v": 69
    },
    {
      "midi": 29,
      "hit": false,
      "t": 19506.2239082031,
      "d": 164.0628281249992,
      "v": 40
    },
    {
      "midi": 36,
      "hit": false,
      "t": 19506.2239082031,
      "d": 164.0628281249992,
      "v": 42
    },
    {
      "midi": 41,
      "hit": false,
      "t": 19506.2239082031,
      "d": 164.0628281249992,
      "v": 54
    },
    {
      "midi": 41,
      "hit": false,
      "t": 19670.612257812474,
      "d": 164.0628281249992,
      "v": 59
    },
    {
      "midi": 29,
      "hit": false,
      "t": 19670.612257812474,
      "d": 174.15399414062267,
      "v": 41
    },
    {
      "midi": 36,
      "hit": false,
      "t": 19670.612257812474,
      "d": 174.15399414062267,
      "v": 43
    },
    {
      "midi": 65,
      "hit": false,
      "t": 19670.612257812496,
      "d": 154.29718359374965,
      "v": 57
    },
    {
      "midi": 77,
      "hit": false,
      "t": 19670.612257812496,
      "d": 164.0628281249992,
      "v": 71
    },
    {
      "midi": 43,
      "hit": false,
      "t": 19835.000607421847,
      "d": 164.71387109375064,
      "v": 58
    },
    {
      "midi": 31,
      "hit": false,
      "t": 19835.000607421847,
      "d": 174.8050371093741,
      "v": 41
    },
    {
      "midi": 38,
      "hit": false,
      "t": 19835.000607421847,
      "d": 174.8050371093741,
      "v": 43
    },
    {
      "midi": 74,
      "hit": false,
      "t": 19835.00060742187,
      "d": 672.2018652343759,
      "v": 56
    },
    {
      "midi": 86,
      "hit": false,
      "t": 19835.00060742187,
      "d": 672.2018652343759,
      "v": 70
    },
    {
      "midi": 31,
      "hit": false,
      "t": 20177.774730468722,
      "d": 165.03939257812453,
      "v": 41
    },
    {
      "midi": 38,
      "hit": false,
      "t": 20177.774730468722,
      "d": 165.03939257812453,
      "v": 43
    },
    {
      "midi": 43,
      "hit": false,
      "t": 20177.774730468722,
      "d": 165.03939257812453,
      "v": 54
    },
    {
      "midi": 31,
      "hit": false,
      "t": 20343.13964453122,
      "d": 164.0628281249992,
      "v": 42
    },
    {
      "midi": 38,
      "hit": false,
      "t": 20343.13964453122,
      "d": 164.0628281249992,
      "v": 44
    },
    {
      "midi": 43,
      "hit": false,
      "t": 20343.13964453122,
      "d": 164.0628281249992,
      "v": 55
    },
    {
      "midi": 31,
      "hit": false,
      "t": 20507.527994140593,
      "d": 165.69043554687596,
      "v": 41
    },
    {
      "midi": 43,
      "hit": false,
      "t": 20507.527994140593,
      "d": 165.69043554687596,
      "v": 50
    },
    {
      "midi": 38,
      "hit": false,
      "t": 20507.527994140593,
      "d": 175.78160156249942,
      "v": 54
    },
    {
      "midi": 84,
      "hit": false,
      "t": 20507.52799414062,
      "d": 75.52098437500172,
      "v": 64
    },
    {
      "midi": 83,
      "hit": false,
      "t": 20588.25732226562,
      "d": 80.07828515625079,
      "v": 64
    },
    {
      "midi": 31,
      "hit": false,
      "t": 20673.543951171843,
      "d": 165.69043554687596,
      "v": 44
    },
    {
      "midi": 36,
      "hit": false,
      "t": 20673.543951171843,
      "d": 165.69043554687596,
      "v": 56
    },
    {
      "midi": 43,
      "hit": false,
      "t": 20673.543951171843,
      "d": 165.69043554687596,
      "v": 53
    },
    {
      "midi": 67,
      "hit": false,
      "t": 20673.543951171872,
      "d": 330.07878515624907,
      "v": 59
    },
    {
      "midi": 79,
      "hit": false,
      "t": 20673.543951171872,
      "d": 330.07878515624907,
      "v": 69
    },
    {
      "midi": 31,
      "hit": false,
      "t": 20839.559908203093,
      "d": 164.0628281249992,
      "v": 41
    },
    {
      "midi": 43,
      "hit": false,
      "t": 20839.559908203093,
      "d": 164.0628281249992,
      "v": 50
    },
    {
      "midi": 36,
      "hit": false,
      "t": 20839.559908203093,
      "d": 174.15399414062267,
      "v": 53
    },
    {
      "midi": 43,
      "hit": false,
      "t": 21003.948257812466,
      "d": 164.0628281249992,
      "v": 59
    },
    {
      "midi": 31,
      "hit": false,
      "t": 21003.948257812466,
      "d": 174.15399414062267,
      "v": 42
    },
    {
      "midi": 38,
      "hit": false,
      "t": 21003.948257812466,
      "d": 174.15399414062267,
      "v": 44
    },
    {
      "midi": 67,
      "hit": false,
      "t": 21003.948257812495,
      "d": 154.29718359374965,
      "v": 57
    },
    {
      "midi": 79,
      "hit": false,
      "t": 21003.948257812495,
      "d": 164.0628281249992,
      "v": 71
    },
    {
      "midi": 40,
      "hit": false,
      "t": 21168.33660742184,
      "d": 174.8050371093741,
      "v": 43
    },
    {
      "midi": 33,
      "hit": false,
      "t": 21168.33660742184,
      "d": 1498.04987109375,
      "v": 41
    },
    {
      "midi": 45,
      "hit": false,
      "t": 21168.33660742184,
      "d": 1498.04987109375,
      "v": 58
    },
    {
      "midi": 69,
      "hit": false,
      "t": 21168.33660742187,
      "d": 1498.04987109375,
      "v": 56
    },
    {
      "midi": 81,
      "hit": false,
      "t": 21168.33660742187,
      "d": 1498.04987109375,
      "v": 70
    },
    {
      "midi": 86,
      "hit": false,
      "t": 22844.446730468742,
      "d": 155.27374804687497,
      "v": 64
    },
    {
      "midi": 85,
      "hit": false,
      "t": 23009.81164453124,
      "d": 154.29718359374965,
      "v": 65
    },
    {
      "midi": 81,
      "hit": false,
      "t": 23174.199994140614,
      "d": 155.9247910156264,
      "v": 64
    },
    {
      "midi": 45,
      "hit": false,
      "t": 23340.21595117184,
      "d": 155.9247910156264,
      "v": 59
    },
    {
      "midi": 57,
      "hit": false,
      "t": 23340.21595117184,
      "d": 165.69043554687596,
      "v": 73
    },
    {
      "midi": 86,
      "hit": false,
      "t": 23340.215951171864,
      "d": 155.9247910156264,
      "v": 67
    },
    {
      "midi": 43,
      "hit": false,
      "t": 23506.231908203088,
      "d": 154.29718359374965,
      "v": 56
    },
    {
      "midi": 55,
      "hit": false,
      "t": 23506.231908203088,
      "d": 164.0628281249992,
      "v": 70
    },
    {
      "midi": 85,
      "hit": false,
      "t": 23506.231908203114,
      "d": 154.29718359374965,
      "v": 64
    },
    {
      "midi": 45,
      "hit": false,
      "t": 23670.62025781246,
      "d": 154.29718359374965,
      "v": 57
    },
    {
      "midi": 57,
      "hit": false,
      "t": 23670.62025781246,
      "d": 164.0628281249992,
      "v": 71
    },
    {
      "midi": 81,
      "hit": false,
      "t": 23670.620257812487,
      "d": 154.29718359374965,
      "v": 65
    },
    {
      "midi": 71,
      "hit": false,
      "t": 23670.620257812487,
      "d": 154.29718359374965,
      "v": 65
    },
    {
      "midi": 41,
      "hit": false,
      "t": 23835.008607421834,
      "d": 154.94822656250108,
      "v": 56
    },
    {
      "midi": 53,
      "hit": false,
      "t": 23835.008607421834,
      "d": 164.71387109375064,
      "v": 70
    },
    {
      "midi": 76,
      "hit": false,
      "t": 23835.00860742186,
      "d": 154.94822656250108,
      "v": 64
    },
    {
      "midi": 72,
      "hit": false,
      "t": 23835.00860742186,
      "d": 672.2018652343759,
      "v": 56
    },
    {
      "midi": 84,
      "hit": false,
      "t": 23835.00860742186,
      "d": 672.2018652343759,
      "v": 66
    },
    {
      "midi": 29,
      "hit": false,
      "t": 24177.78273046871,
      "d": 165.03939257812453,
      "v": 52
    },
    {
      "midi": 36,
      "hit": false,
      "t": 24177.78273046871,
      "d": 165.03939257812453,
      "v": 54
    },
    {
      "midi": 41,
      "hit": false,
      "t": 24177.78273046871,
      "d": 165.03939257812453,
      "v": 70
    },
    {
      "midi": 29,
      "hit": false,
      "t": 24343.147644531207,
      "d": 164.0628281249992,
      "v": 53
    },
    {
      "midi": 36,
      "hit": false,
      "t": 24343.147644531207,
      "d": 164.0628281249992,
      "v": 55
    },
    {
      "midi": 41,
      "hit": false,
      "t": 24343.147644531207,
      "d": 164.0628281249992,
      "v": 67
    },
    {
      "midi": 29,
      "hit": false,
      "t": 24507.53599414058,
      "d": 165.69043554687596,
      "v": 52
    },
    {
      "midi": 36,
      "hit": false,
      "t": 24507.53599414058,
      "d": 165.69043554687596,
      "v": 54
    },
    {
      "midi": 41,
      "hit": false,
      "t": 24507.53599414058,
      "d": 165.69043554687596,
      "v": 66
    },
    {
      "midi": 83,
      "hit": false,
      "t": 24507.53599414061,
      "d": 75.52098437500172,
      "v": 64
    },
    {
      "midi": 81,
      "hit": false,
      "t": 24588.26532226561,
      "d": 80.07828515625079,
      "v": 64
    },
    {
      "midi": 29,
      "hit": false,
      "t": 24673.55195117183,
      "d": 165.69043554687596,
      "v": 55
    },
    {
      "midi": 36,
      "hit": false,
      "t": 24673.55195117183,
      "d": 165.69043554687596,
      "v": 57
    },
    {
      "midi": 41,
      "hit": false,
      "t": 24673.55195117183,
      "d": 165.69043554687596,
      "v": 69
    },
    {
      "midi": 65,
      "hit": false,
      "t": 24673.551951171863,
      "d": 330.07878515624907,
      "v": 59
    },
    {
      "midi": 77,
      "hit": false,
      "t": 24673.551951171863,
      "d": 330.07878515624907,
      "v": 69
    },
    {
      "midi": 29,
      "hit": false,
      "t": 24839.56790820308,
      "d": 164.0628281249992,
      "v": 52
    },
    {
      "midi": 36,
      "hit": false,
      "t": 24839.56790820308,
      "d": 164.0628281249992,
      "v": 54
    },
    {
      "midi": 41,
      "hit": false,
      "t": 24839.56790820308,
      "d": 164.0628281249992,
      "v": 66
    },
    {
      "midi": 29,
      "hit": false,
      "t": 25003.956257812453,
      "d": 154.29718359374965,
      "v": 53
    },
    {
      "midi": 36,
      "hit": false,
      "t": 25003.956257812453,
      "d": 154.29718359374965,
      "v": 55
    },
    {
      "midi": 41,
      "hit": false,
      "t": 25003.956257812453,
      "d": 164.0628281249992,
      "v": 71
    },
    {
      "midi": 65,
      "hit": false,
      "t": 25003.956257812486,
      "d": 154.29718359374965,
      "v": 57
    },
    {
      "midi": 77,
      "hit": false,
      "t": 25003.956257812486,
      "d": 164.0628281249992,
      "v": 71
    },
    {
      "midi": 31,
      "hit": false,
      "t": 25168.344607421826,
      "d": 154.94822656250108,
      "v": 53
    },
    {
      "midi": 38,
      "hit": false,
      "t": 25168.344607421826,
      "d": 154.94822656250108,
      "v": 55
    },
    {
      "midi": 43,
      "hit": false,
      "t": 25168.344607421826,
      "d": 164.71387109375064,
      "v": 70
    },
    {
      "midi": 74,
      "hit": false,
      "t": 25168.34460742186,
      "d": 672.2018652343759,
      "v": 56
    },
    {
      "midi": 86,
      "hit": false,
      "t": 25168.34460742186,
      "d": 672.2018652343759,
      "v": 70
    },
    {
      "midi": 31,
      "hit": false,
      "t": 25511.1187304687,
      "d": 165.03939257812453,
      "v": 53
    },
    {
      "midi": 38,
      "hit": false,
      "t": 25511.1187304687,
      "d": 165.03939257812453,
      "v": 55
    },
    {
      "midi": 43,
      "hit": false,
      "t": 25511.1187304687,
      "d": 165.03939257812453,
      "v": 66
    },
    {
      "midi": 31,
      "hit": false,
      "t": 25676.4836445312,
      "d": 164.0628281249992,
      "v": 54
    },
    {
      "midi": 38,
      "hit": false,
      "t": 25676.4836445312,
      "d": 164.0628281249992,
      "v": 56
    },
    {
      "midi": 43,
      "hit": false,
      "t": 25676.4836445312,
      "d": 164.0628281249992,
      "v": 67
    },
    {
      "midi": 38,
      "hit": false,
      "t": 25840.871994140572,
      "d": 155.9247910156264,
      "v": 66
    },
    {
      "midi": 31,
      "hit": false,
      "t": 25840.871994140572,
      "d": 165.69043554687596,
      "v": 53
    },
    {
      "midi": 43,
      "hit": false,
      "t": 25840.871994140572,
      "d": 165.69043554687596,
      "v": 62
    },
    {
      "midi": 84,
      "hit": false,
      "t": 25840.87199414061,
      "d": 75.52098437500172,
      "v": 64
    },
    {
      "midi": 83,
      "hit": false,
      "t": 25921.60132226561,
      "d": 80.07828515625079,
      "v": 64
    },
    {
      "midi": 31,
      "hit": false,
      "t": 26006.887951171822,
      "d": 165.69043554687596,
      "v": 56
    },
    {
      "midi": 36,
      "hit": false,
      "t": 26006.887951171822,
      "d": 165.69043554687596,
      "v": 68
    },
    {
      "midi": 43,
      "hit": false,
      "t": 26006.887951171822,
      "d": 165.69043554687596,
      "v": 65
    },
    {
      "midi": 67,
      "hit": false,
      "t": 26006.887951171862,
      "d": 330.07878515624907,
      "v": 59
    },
    {
      "midi": 79,
      "hit": false,
      "t": 26006.887951171862,
      "d": 330.07878515624907,
      "v": 73
    },
    {
      "midi": 36,
      "hit": false,
      "t": 26172.903908203072,
      "d": 154.29718359374965,
      "v": 65
    },
    {
      "midi": 31,
      "hit": false,
      "t": 26172.903908203072,
      "d": 164.0628281249992,
      "v": 53
    },
    {
      "midi": 43,
      "hit": false,
      "t": 26172.903908203072,
      "d": 164.0628281249992,
      "v": 62
    },
    {
      "midi": 31,
      "hit": false,
      "t": 26337.292257812445,
      "d": 154.29718359374965,
      "v": 54
    },
    {
      "midi": 38,
      "hit": false,
      "t": 26337.292257812445,
      "d": 154.29718359374965,
      "v": 56
    },
    {
      "midi": 43,
      "hit": false,
      "t": 26337.292257812445,
      "d": 164.0628281249992,
      "v": 71
    },
    {
      "midi": 71,
      "hit": false,
      "t": 26337.292257812485,
      "d": 154.29718359374965,
      "v": 57
    },
    {
      "midi": 83,
      "hit": false,
      "t": 26337.292257812485,
      "d": 164.0628281249992,
      "v": 71
    },
    {
      "midi": 40,
      "hit": false,
      "t": 26501.68060742182,
      "d": 154.94822656250108,
      "v": 55
    },
    {
      "midi": 33,
      "hit": false,
      "t": 26501.68060742182,
      "d": 1498.04987109375,
      "v": 53
    },
    {
      "midi": 45,
      "hit": false,
      "t": 26501.68060742182,
      "d": 1498.04987109375,
      "v": 70
    },
    {
      "midi": 73,
      "hit": false,
      "t": 26501.68060742186,
      "d": 1498.04987109375,
      "v": 56
    },
    {
      "midi": 85,
      "hit": false,
      "t": 26501.68060742186,
      "d": 1498.04987109375,
      "v": 70
    },
    {
      "midi": 86,
      "hit": false,
      "t": 28177.790730468732,
      "d": 155.27374804687497,
      "v": 64
    },
    {
      "midi": 85,
      "hit": false,
      "t": 28343.15564453123,
      "d": 154.29718359374965,
      "v": 65
    },
    {
      "midi": 81,
      "hit": false,
      "t": 28507.543994140604,
      "d": 155.9247910156264,
      "v": 64
    },
    {
      "midi": 86,
      "hit": false,
      "t": 28673.559951171854,
      "d": 155.9247910156264,
      "v": 67
    },
    {
      "midi": 85,
      "hit": false,
      "t": 28839.575908203104,
      "d": 154.29718359374965,
      "v": 64
    },
    {
      "midi": 81,
      "hit": false,
      "t": 29003.964257812477,
      "d": 154.29718359374965,
      "v": 65
    },
    {
      "midi": 93,
      "hit": false,
      "t": 29168.35260742185,
      "d": 154.94822656250108,
      "v": 64
    }
  ]
}