{
  "jsonPath": "Soundtracks/Video Game Music/Street Fighter 2/street-fighter-ii-ken-stage.json",
  "path": "Soundtracks\\Video Game Music\\Street Fighter 2\\Street_Fighter_II_Ken_Stage.mid",
  "name": "Street_Fighter_II_Ken_Stage",
  "difficulty": "Advanced",
  "bpm": 160,
  "notes": [
    {
      "midi": 56,
      "hit": false,
      "t": 3.6630078125,
      "d": 2067.401609375,
      "v": 56
    },
    {
      "midi": 60,
      "hit": false,
      "t": 3.6630078125,
      "d": 2067.401609375,
      "v": 56
    },
    {
      "midi": 65,
      "hit": false,
      "t": 3.6630078125,
      "d": 2067.401609375,
      "v": 66
    },
    {
      "midi": 41,
      "hit": false,
      "t": 3.6630078125,
      "d": 2067.401609375,
      "v": 56
    },
    {
      "midi": 48,
      "hit": false,
      "t": 3.6630078125,
      "d": 2067.401609375,
      "v": 56
    },
    {
      "midi": 53,
      "hit": false,
      "t": 3.6630078125,
      "d": 2067.401609375,
      "v": 70
    },
    {
      "midi": 56,
      "hit": false,
      "t": 2071.4309179687502,
      "d": 186.4470976562502,
      "v": 44
    },
    {
      "midi": 60,
      "hit": false,
      "t": 2071.4309179687502,
      "d": 186.4470976562502,
      "v": 44
    },
    {
      "midi": 65,
      "hit": false,
      "t": 2071.4309179687502,
      "d": 186.4470976562502,
      "v": 54
    },
    {
      "midi": 41,
      "hit": false,
      "t": 2071.4309179687502,
      "d": 186.4470976562502,
      "v": 44
    },
    {
      "midi": 48,
      "hit": false,
      "t": 2071.4309179687502,
      "d": 186.4470976562502,
      "v": 44
    },
    {
      "midi": 53,
      "hit": false,
      "t": 2071.4309179687502,
      "d": 186.4470976562502,
      "v": 54
    },
    {
      "midi": 65,
      "hit": false,
      "t": 2258.2443164062506,
      "d": 186.4470976562502,
      "v": 61
    },
    {
      "midi": 56,
      "hit": false,
      "t": 2258.2443164062506,
      "d": 197.80242187500016,
      "v": 47
    },
    {
      "midi": 60,
      "hit": false,
      "t": 2258.2443164062506,
      "d": 197.80242187500016,
      "v": 47
    },
    {
      "midi": 53,
      "hit": false,
      "t": 2258.2443164062506,
      "d": 186.4470976562502,
      "v": 61
    },
    {
      "midi": 41,
      "hit": false,
      "t": 2258.2443164062506,
      "d": 197.80242187500016,
      "v": 47
    },
    {
      "midi": 48,
      "hit": false,
      "t": 2258.2443164062506,
      "d": 197.80242187500016,
      "v": 47
    },
    {
      "midi": 55,
      "hit": false,
      "t": 2445.057714843751,
      "d": 369.59748828124975,
      "v": 56
    },
    {
      "midi": 58,
      "hit": false,
      "t": 2445.057714843751,
      "d": 369.59748828124975,
      "v": 56
    },
    {
      "midi": 63,
      "hit": false,
      "t": 2445.057714843751,
      "d": 369.59748828124975,
      "v": 70
    },
    {
      "midi": 39,
      "hit": false,
      "t": 2445.057714843751,
      "d": 369.59748828124975,
      "v": 55
    },
    {
      "midi": 46,
      "hit": false,
      "t": 2445.057714843751,
      "d": 369.59748828124975,
      "v": 56
    },
    {
      "midi": 51,
      "hit": false,
      "t": 2445.057714843751,
      "d": 369.59748828124975,
      "v": 70
    },
    {
      "midi": 63,
      "hit": false,
      "t": 2815.021503906251,
      "d": 385.348421875,
      "v": 54
    },
    {
      "midi": 55,
      "hit": false,
      "t": 2815.021503906251,
      "d": 396.70374609374994,
      "v": 44
    },
    {
      "midi": 58,
      "hit": false,
      "t": 2815.021503906251,
      "d": 396.70374609374994,
      "v": 44
    },
    {
      "midi": 51,
      "hit": false,
      "t": 2815.021503906251,
      "d": 385.348421875,
      "v": 54
    },
    {
      "midi": 39,
      "hit": false,
      "t": 2815.021503906251,
      "d": 396.70374609374994,
      "v": 43
    },
    {
      "midi": 46,
      "hit": false,
      "t": 2815.021503906251,
      "d": 396.70374609374994,
      "v": 44
    },
    {
      "midi": 53,
      "hit": false,
      "t": 3200.736226562501,
      "d": 370.6963906249998,
      "v": 56
    },
    {
      "midi": 56,
      "hit": false,
      "t": 3200.736226562501,
      "d": 370.6963906249998,
      "v": 56
    },
    {
      "midi": 61,
      "hit": false,
      "t": 3200.736226562501,
      "d": 370.6963906249998,
      "v": 70
    },
    {
      "midi": 37,
      "hit": false,
      "t": 3200.736226562501,
      "d": 370.6963906249998,
      "v": 55
    },
    {
      "midi": 44,
      "hit": false,
      "t": 3200.736226562501,
      "d": 370.6963906249998,
      "v": 56
    },
    {
      "midi": 49,
      "hit": false,
      "t": 3200.736226562501,
      "d": 370.6963906249998,
      "v": 70
    },
    {
      "midi": 53,
      "hit": false,
      "t": 3571.798917968751,
      "d": 1873.62849609375,
      "v": 56
    },
    {
      "midi": 56,
      "hit": false,
      "t": 3571.798917968751,
      "d": 1873.62849609375,
      "v": 56
    },
    {
      "midi": 61,
      "hit": false,
      "t": 3571.798917968751,
      "d": 1873.62849609375,
      "v": 66
    },
    {
      "midi": 37,
      "hit": false,
      "t": 3571.798917968751,
      "d": 1873.62849609375,
      "v": 55
    },
    {
      "midi": 44,
      "hit": false,
      "t": 3571.798917968751,
      "d": 1873.62849609375,
      "v": 56
    },
    {
      "midi": 49,
      "hit": false,
      "t": 3571.798917968751,
      "d": 1873.62849609375,
      "v": 66
    },
    {
      "midi": 53,
      "hit": false,
      "t": 5445.793714843751,
      "d": 173.6265703125,
      "v": 56
    },
    {
      "midi": 56,
      "hit": false,
      "t": 5445.793714843751,
      "d": 173.6265703125,
      "v": 56
    },
    {
      "midi": 61,
      "hit": false,
      "t": 5445.793714843751,
      "d": 184.6155937499998,
      "v": 70
    },
    {
      "midi": 49,
      "hit": false,
      "t": 5445.793714843751,
      "d": 184.6155937499998,
      "v": 58
    },
    {
      "midi": 37,
      "hit": false,
      "t": 5445.793714843751,
      "d": 195.97091796874975,
      "v": 43
    },
    {
      "midi": 44,
      "hit": false,
      "t": 5445.793714843751,
      "d": 195.97091796874975,
      "v": 44
    },
    {
      "midi": 51,
      "hit": false,
      "t": 5630.775609375001,
      "d": 173.6265703125,
      "v": 57
    },
    {
      "midi": 55,
      "hit": false,
      "t": 5630.775609375001,
      "d": 173.6265703125,
      "v": 57
    },
    {
      "midi": 60,
      "hit": false,
      "t": 5630.775609375001,
      "d": 184.6155937499998,
      "v": 71
    },
    {
      "midi": 48,
      "hit": false,
      "t": 5630.775609375001,
      "d": 184.6155937499998,
      "v": 59
    },
    {
      "midi": 36,
      "hit": false,
      "t": 5630.775609375001,
      "d": 195.97091796874975,
      "v": 43
    },
    {
      "midi": 43,
      "hit": false,
      "t": 5630.775609375001,
      "d": 195.97091796874975,
      "v": 45
    },
    {
      "midi": 53,
      "hit": false,
      "t": 5815.757503906251,
      "d": 174.35917187500036,
      "v": 56
    },
    {
      "midi": 58,
      "hit": false,
      "t": 5815.757503906251,
      "d": 174.35917187500036,
      "v": 56
    },
    {
      "midi": 61,
      "hit": false,
      "t": 5815.757503906251,
      "d": 185.34819531250014,
      "v": 70
    },
    {
      "midi": 34,
      "hit": false,
      "t": 5815.757503906251,
      "d": 185.34819531250014,
      "v": 42
    },
    {
      "midi": 46,
      "hit": false,
      "t": 5815.757503906251,
      "d": 185.34819531250014,
      "v": 58
    },
    {
      "midi": 34,
      "hit": false,
      "t": 6002.937203125001,
      "d": 85.71438281249993,
      "v": 47
    },
    {
      "midi": 46,
      "hit": false,
      "t": 6002.937203125001,
      "d": 85.71438281249993,
      "v": 59
    },
    {
      "midi": 58,
      "hit": false,
      "t": 6201.472226562501,
      "d": 185.7144960937503,
      "v": 56
    },
    {
      "midi": 61,
      "hit": false,
      "t": 6201.472226562501,
      "d": 185.7144960937503,
      "v": 56
    },
    {
      "midi": 65,
      "hit": false,
      "t": 6201.472226562501,
      "d": 185.7144960937503,
      "v": 70
    },
    {
      "midi": 34,
      "hit": false,
      "t": 6201.472226562501,
      "d": 73.26015625000036,
      "v": 42
    },
    {
      "midi": 46,
      "hit": false,
      "t": 6201.472226562501,
      "d": 73.26015625000036,
      "v": 54
    },
    {
      "midi": 58,
      "hit": false,
      "t": 6387.553023437502,
      "d": 108.79133203125002,
      "v": 57
    },
    {
      "midi": 61,
      "hit": false,
      "t": 6387.553023437502,
      "d": 108.79133203125002,
      "v": 57
    },
    {
      "midi": 65,
      "hit": false,
      "t": 6387.553023437502,
      "d": 108.79133203125002,
      "v": 67
    },
    {
      "midi": 34,
      "hit": false,
      "t": 6387.553023437502,
      "d": 72.16125390624984,
      "v": 43
    },
    {
      "midi": 46,
      "hit": false,
      "t": 6387.553023437502,
      "d": 72.16125390624984,
      "v": 55
    },
    {
      "midi": 34,
      "hit": false,
      "t": 6572.534917968752,
      "d": 73.9927578124998,
      "v": 42
    },
    {
      "midi": 46,
      "hit": false,
      "t": 6572.534917968752,
      "d": 73.9927578124998,
      "v": 54
    },
    {
      "midi": 34,
      "hit": false,
      "t": 6759.348316406252,
      "d": 73.9927578124998,
      "v": 45
    },
    {
      "midi": 46,
      "hit": false,
      "t": 6759.348316406252,
      "d": 73.9927578124998,
      "v": 57
    },
    {
      "midi": 58,
      "hit": false,
      "t": 6946.161714843752,
      "d": 184.6155937499998,
      "v": 56
    },
    {
      "midi": 61,
      "hit": false,
      "t": 6946.161714843752,
      "d": 184.6155937499998,
      "v": 56
    },
    {
      "midi": 65,
      "hit": false,
      "t": 6946.161714843752,
      "d": 184.6155937499998,
      "v": 66
    },
    {
      "midi": 34,
      "hit": false,
      "t": 6946.161714843752,
      "d": 72.16125390624984,
      "v": 42
    },
    {
      "midi": 46,
      "hit": false,
      "t": 6946.161714843752,
      "d": 72.16125390624984,
      "v": 54
    },
    {
      "midi": 58,
      "hit": false,
      "t": 7131.143609375002,
      "d": 107.69242968750041,
      "v": 57
    },
    {
      "midi": 61,
      "hit": false,
      "t": 7131.143609375002,
      "d": 107.69242968750041,
      "v": 57
    },
    {
      "midi": 65,
      "hit": false,
      "t": 7131.143609375002,
      "d": 107.69242968750041,
      "v": 67
    },
    {
      "midi": 34,
      "hit": false,
      "t": 7131.143609375002,
      "d": 72.16125390624984,
      "v": 43
    },
    {
      "midi": 46,
      "hit": false,
      "t": 7131.143609375002,
      "d": 72.16125390624984,
      "v": 55
    },
    {
      "midi": 34,
      "hit": false,
      "t": 7316.125503906252,
      "d": 72.89385546875019,
      "v": 42
    },
    {
      "midi": 46,
      "hit": false,
      "t": 7316.125503906252,
      "d": 72.89385546875019,
      "v": 54
    },
    {
      "midi": 58,
      "hit": false,
      "t": 7503.305203125002,
      "d": 121.61185937499977,
      "v": 61
    },
    {
      "midi": 61,
      "hit": false,
      "t": 7503.305203125002,
      "d": 121.61185937499977,
      "v": 61
    },
    {
      "midi": 65,
      "hit": false,
      "t": 7503.305203125002,
      "d": 121.61185937499977,
      "v": 71
    },
    {
      "midi": 34,
      "hit": false,
      "t": 7503.305203125002,
      "d": 85.71438281249993,
      "v": 47
    },
    {
      "midi": 46,
      "hit": false,
      "t": 7503.305203125002,
      "d": 85.71438281249993,
      "v": 59
    },
    {
      "midi": 34,
      "hit": false,
      "t": 7701.840226562502,
      "d": 73.26015625000036,
      "v": 42
    },
    {
      "midi": 46,
      "hit": false,
      "t": 7701.840226562502,
      "d": 73.26015625000036,
      "v": 54
    },
    {
      "midi": 34,
      "hit": false,
      "t": 7887.921023437502,
      "d": 72.16125390624984,
      "v": 43
    },
    {
      "midi": 46,
      "hit": false,
      "t": 7887.921023437502,
      "d": 72.16125390624984,
      "v": 55
    },
    {
      "midi": 58,
      "hit": false,
      "t": 8072.902917968751,
      "d": 175.45807421874997,
      "v": 56
    },
    {
      "midi": 61,
      "hit": false,
      "t": 8072.902917968751,
      "d": 175.45807421874997,
      "v": 56
    },
    {
      "midi": 65,
      "hit": false,
      "t": 8072.902917968751,
      "d": 186.44709765624975,
      "v": 66
    },
    {
      "midi": 34,
      "hit": false,
      "t": 8072.902917968752,
      "d": 73.9927578124998,
      "v": 42
    },
    {
      "midi": 46,
      "hit": false,
      "t": 8072.902917968752,
      "d": 73.9927578124998,
      "v": 54
    },
    {
      "midi": 34,
      "hit": false,
      "t": 8259.716316406251,
      "d": 73.99275781250071,
      "v": 45
    },
    {
      "midi": 46,
      "hit": false,
      "t": 8259.716316406251,
      "d": 73.99275781250071,
      "v": 57
    },
    {
      "midi": 34,
      "hit": false,
      "t": 8446.529714843751,
      "d": 72.16125390624984,
      "v": 42
    },
    {
      "midi": 46,
      "hit": false,
      "t": 8446.529714843751,
      "d": 72.16125390624984,
      "v": 54
    },
    {
      "midi": 58,
      "hit": false,
      "t": 8631.511609375,
      "d": 173.6265703124991,
      "v": 57
    },
    {
      "midi": 61,
      "hit": false,
      "t": 8631.511609375,
      "d": 173.6265703124991,
      "v": 57
    },
    {
      "midi": 65,
      "hit": false,
      "t": 8631.511609375,
      "d": 184.61559374999888,
      "v": 71
    },
    {
      "midi": 34,
      "hit": false,
      "t": 8631.511609375,
      "d": 72.16125390624984,
      "v": 43
    },
    {
      "midi": 46,
      "hit": false,
      "t": 8631.511609375,
      "d": 72.16125390624984,
      "v": 59
    },
    {
      "midi": 60,
      "hit": false,
      "t": 8816.49350390625,
      "d": 174.35917187499945,
      "v": 56
    },
    {
      "midi": 64,
      "hit": false,
      "t": 8816.49350390625,
      "d": 174.35917187499945,
      "v": 56
    },
    {
      "midi": 67,
      "hit": false,
      "t": 8816.49350390625,
      "d": 185.34819531249923,
      "v": 70
    },
    {
      "midi": 36,
      "hit": false,
      "t": 8816.49350390625,
      "d": 72.89385546875019,
      "v": 42
    },
    {
      "midi": 48,
      "hit": false,
      "t": 8816.49350390625,
      "d": 72.89385546875019,
      "v": 58
    },
    {
      "midi": 36,
      "hit": false,
      "t": 9003.673203125,
      "d": 85.71438281250084,
      "v": 47
    },
    {
      "midi": 48,
      "hit": false,
      "t": 9003.673203125,
      "d": 85.71438281250084,
      "v": 59
    },
    {
      "midi": 60,
      "hit": false,
      "t": 9202.208226562498,
      "d": 185.7144960937494,
      "v": 56
    },
    {
      "midi": 64,
      "hit": false,
      "t": 9202.208226562498,
      "d": 185.7144960937494,
      "v": 56
    },
    {
      "midi": 67,
      "hit": false,
      "t": 9202.208226562498,
      "d": 185.7144960937494,
      "v": 66
    },
    {
      "midi": 36,
      "hit": false,
      "t": 9202.2082265625,
      "d": 73.26015625000036,
      "v": 42
    },
    {
      "midi": 48,
      "hit": false,
      "t": 9202.2082265625,
      "d": 73.26015625000036,
      "v": 54
    },
    {
      "midi": 60,
      "hit": false,
      "t": 9388.289023437497,
      "d": 108.79133203124911,
      "v": 57
    },
    {
      "midi": 64,
      "hit": false,
      "t": 9388.289023437497,
      "d": 108.79133203124911,
      "v": 57
    },
    {
      "midi": 67,
      "hit": false,
      "t": 9388.289023437497,
      "d": 108.79133203124911,
      "v": 67
    },
    {
      "midi": 36,
      "hit": false,
      "t": 9388.289023437499,
      "d": 72.16125390624984,
      "v": 43
    },
    {
      "midi": 48,
      "hit": false,
      "t": 9388.289023437499,
      "d": 72.16125390624984,
      "v": 55
    },
    {
      "midi": 36,
      "hit": false,
      "t": 9573.270917968748,
      "d": 73.99275781250071,
      "v": 42
    },
    {
      "midi": 48,
      "hit": false,
      "t": 9573.270917968748,
      "d": 73.99275781250071,
      "v": 54
    },
    {
      "midi": 36,
      "hit": false,
      "t": 9760.084316406248,
      "d": 73.99275781250071,
      "v": 45
    },
    {
      "midi": 48,
      "hit": false,
      "t": 9760.084316406248,
      "d": 73.99275781250071,
      "v": 57
    },
    {
      "midi": 60,
      "hit": false,
      "t": 9946.897714843746,
      "d": 184.6155937500007,
      "v": 56
    },
    {
      "midi": 64,
      "hit": false,
      "t": 9946.897714843746,
      "d": 184.6155937500007,
      "v": 56
    },
    {
      "midi": 67,
      "hit": false,
      "t": 9946.897714843746,
      "d": 184.6155937500007,
      "v": 66
    },
    {
      "midi": 36,
      "hit": false,
      "t": 9946.897714843748,
      "d": 72.16125390624984,
      "v": 42
    },
    {
      "midi": 48,
      "hit": false,
      "t": 9946.897714843748,
      "d": 72.16125390624984,
      "v": 54
    },
    {
      "midi": 60,
      "hit": false,
      "t": 10131.879609374997,
      "d": 107.69242968750041,
      "v": 57
    },
    {
      "midi": 64,
      "hit": false,
      "t": 10131.879609374997,
      "d": 107.69242968750041,
      "v": 57
    },
    {
      "midi": 67,
      "hit": false,
      "t": 10131.879609374997,
      "d": 107.69242968750041,
      "v": 67
    },
    {
      "midi": 36,
      "hit": false,
      "t": 10131.879609374997,
      "d": 72.16125390624984,
      "v": 43
    },
    {
      "midi": 48,
      "hit": false,
      "t": 10131.879609374997,
      "d": 72.16125390624984,
      "v": 55
    },
    {
      "midi": 36,
      "hit": false,
      "t": 10316.861503906246,
      "d": 72.89385546875019,
      "v": 42
    },
    {
      "midi": 48,
      "hit": false,
      "t": 10316.861503906246,
      "d": 72.89385546875019,
      "v": 54
    },
    {
      "midi": 36,
      "hit": false,
      "t": 10504.041203124996,
      "d": 85.71438281250084,
      "v": 47
    },
    {
      "midi": 48,
      "hit": false,
      "t": 10504.041203124996,
      "d": 85.71438281250084,
      "v": 59
    },
    {
      "midi": 64,
      "hit": false,
      "t": 10504.041203124998,
      "d": 187.1796992187501,
      "v": 61
    },
    {
      "midi": 60,
      "hit": false,
      "t": 10504.041203124998,
      "d": 198.16872265624988,
      "v": 61
    },
    {
      "midi": 67,
      "hit": false,
      "t": 10504.041203124998,
      "d": 198.16872265624988,
      "v": 75
    },
    {
      "midi": 36,
      "hit": false,
      "t": 10702.576226562496,
      "d": 73.26015625000036,
      "v": 42
    },
    {
      "midi": 48,
      "hit": false,
      "t": 10702.576226562496,
      "d": 73.26015625000036,
      "v": 54
    },
    {
      "midi": 60,
      "hit": false,
      "t": 10702.576226562498,
      "d": 174.72547265624962,
      "v": 56
    },
    {
      "midi": 55,
      "hit": false,
      "t": 10702.576226562498,
      "d": 185.7144960937494,
      "v": 56
    },
    {
      "midi": 64,
      "hit": false,
      "t": 10702.576226562498,
      "d": 185.7144960937494,
      "v": 70
    },
    {
      "midi": 36,
      "hit": false,
      "t": 10888.657023437496,
      "d": 72.16125390624984,
      "v": 43
    },
    {
      "midi": 48,
      "hit": false,
      "t": 10888.657023437496,
      "d": 72.16125390624984,
      "v": 55
    },
    {
      "midi": 52,
      "hit": false,
      "t": 10888.657023437498,
      "d": 173.62657031250092,
      "v": 57
    },
    {
      "midi": 55,
      "hit": false,
      "t": 10888.657023437498,
      "d": 173.62657031250092,
      "v": 57
    },
    {
      "midi": 60,
      "hit": false,
      "t": 10888.657023437498,
      "d": 184.6155937500007,
      "v": 71
    },
    {
      "midi": 36,
      "hit": false,
      "t": 11073.638917968745,
      "d": 73.99275781250071,
      "v": 42
    },
    {
      "midi": 48,
      "hit": false,
      "t": 11073.638917968745,
      "d": 73.99275781250071,
      "v": 54
    },
    {
      "midi": 64,
      "hit": false,
      "t": 11073.638917968749,
      "d": 175.45807421874997,
      "v": 56
    },
    {
      "midi": 60,
      "hit": false,
      "t": 11073.638917968749,
      "d": 186.44709765624975,
      "v": 56
    },
    {
      "midi": 67,
      "hit": false,
      "t": 11073.638917968749,
      "d": 186.44709765624975,
      "v": 70
    },
    {
      "midi": 36,
      "hit": false,
      "t": 11260.452316406245,
      "d": 73.99275781250071,
      "v": 45
    },
    {
      "midi": 48,
      "hit": false,
      "t": 11260.452316406245,
      "d": 73.99275781250071,
      "v": 57
    },
    {
      "midi": 60,
      "hit": false,
      "t": 11260.452316406248,
      "d": 175.45807421874997,
      "v": 59
    },
    {
      "midi": 55,
      "hit": false,
      "t": 11260.452316406248,
      "d": 186.44709765624975,
      "v": 59
    },
    {
      "midi": 64,
      "hit": false,
      "t": 11260.452316406248,
      "d": 186.44709765624975,
      "v": 73
    },
    {
      "midi": 36,
      "hit": false,
      "t": 11447.265714843745,
      "d": 72.16125390624984,
      "v": 42
    },
    {
      "midi": 48,
      "hit": false,
      "t": 11447.265714843745,
      "d": 72.16125390624984,
      "v": 54
    },
    {
      "midi": 52,
      "hit": false,
      "t": 11447.265714843748,
      "d": 173.62657031250092,
      "v": 56
    },
    {
      "midi": 55,
      "hit": false,
      "t": 11447.265714843748,
      "d": 173.62657031250092,
      "v": 56
    },
    {
      "midi": 60,
      "hit": false,
      "t": 11447.265714843748,
      "d": 184.6155937500007,
      "v": 70
    },
    {
      "midi": 36,
      "hit": false,
      "t": 11632.247609374994,
      "d": 72.16125390624984,
      "v": 43
    },
    {
      "midi": 48,
      "hit": false,
      "t": 11632.247609374994,
      "d": 72.16125390624984,
      "v": 59
    },
    {
      "midi": 60,
      "hit": false,
      "t": 11632.247609375,
      "d": 173.62657031250092,
      "v": 57
    },
    {
      "midi": 64,
      "hit": false,
      "t": 11632.247609375,
      "d": 173.62657031250092,
      "v": 57
    },
    {
      "midi": 67,
      "hit": false,
      "t": 11632.247609375,
      "d": 184.6155937500007,
      "v": 71
    },
    {
      "midi": 41,
      "hit": false,
      "t": 11817.229503906243,
      "d": 72.89385546875019,
      "v": 44
    },
    {
      "midi": 53,
      "hit": false,
      "t": 11817.229503906243,
      "d": 72.89385546875019,
      "v": 58
    },
    {
      "midi": 61,
      "hit": false,
      "t": 11817.22950390625,
      "d": 174.35917187499945,
      "v": 56
    },
    {
      "midi": 67,
      "hit": false,
      "t": 11817.22950390625,
      "d": 174.35917187499945,
      "v": 56
    },
    {
      "midi": 70,
      "hit": false,
      "t": 11817.22950390625,
      "d": 185.34819531249923,
      "v": 70
    },
    {
      "midi": 41,
      "hit": false,
      "t": 12004.409203124993,
      "d": 85.71438281250084,
      "v": 49
    },
    {
      "midi": 53,
      "hit": false,
      "t": 12004.409203124993,
      "d": 85.71438281250084,
      "v": 59
    },
    {
      "midi": 41,
      "hit": false,
      "t": 12202.944226562493,
      "d": 73.26015625000036,
      "v": 44
    },
    {
      "midi": 53,
      "hit": false,
      "t": 12202.944226562493,
      "d": 73.26015625000036,
      "v": 54
    },
    {
      "midi": 61,
      "hit": false,
      "t": 12202.944226562498,
      "d": 174.72547265624962,
      "v": 56
    },
    {
      "midi": 67,
      "hit": false,
      "t": 12202.944226562498,
      "d": 174.72547265624962,
      "v": 56
    },
    {
      "midi": 70,
      "hit": false,
      "t": 12202.944226562498,
      "d": 185.7144960937494,
      "v": 70
    },
    {
      "midi": 41,
      "hit": false,
      "t": 12389.025023437493,
      "d": 72.16125390624984,
      "v": 45
    },
    {
      "midi": 53,
      "hit": false,
      "t": 12389.025023437493,
      "d": 72.16125390624984,
      "v": 55
    },
    {
      "midi": 72,
      "hit": false,
      "t": 12389.025023437498,
      "d": 371.4289921875006,
      "v": 65
    },
    {
      "midi": 60,
      "hit": false,
      "t": 12389.025023437498,
      "d": 371.4289921875006,
      "v": 57
    },
    {
      "midi": 65,
      "hit": false,
      "t": 12389.025023437498,
      "d": 371.4289921875006,
      "v": 57
    },
    {
      "midi": 68,
      "hit": false,
      "t": 12389.025023437498,
      "d": 371.4289921875006,
      "v": 71
    },
    {
      "midi": 41,
      "hit": false,
      "t": 12574.006917968742,
      "d": 73.99275781250071,
      "v": 44
    },
    {
      "midi": 53,
      "hit": false,
      "t": 12574.006917968742,
      "d": 73.99275781250071,
      "v": 54
    },
    {
      "midi": 41,
      "hit": false,
      "t": 12760.820316406242,
      "d": 73.99275781250071,
      "v": 47
    },
    {
      "midi": 53,
      "hit": false,
      "t": 12760.820316406242,
      "d": 73.99275781250071,
      "v": 57
    },
    {
      "midi": 77,
      "hit": false,
      "t": 12760.820316406249,
      "d": 371.4289921874988,
      "v": 67
    },
    {
      "midi": 41,
      "hit": false,
      "t": 12947.633714843741,
      "d": 72.16125390624984,
      "v": 44
    },
    {
      "midi": 53,
      "hit": false,
      "t": 12947.633714843741,
      "d": 72.16125390624984,
      "v": 54
    },
    {
      "midi": 61,
      "hit": false,
      "t": 12947.633714843749,
      "d": 173.6265703124991,
      "v": 56
    },
    {
      "midi": 67,
      "hit": false,
      "t": 12947.633714843749,
      "d": 173.6265703124991,
      "v": 56
    },
    {
      "midi": 70,
      "hit": false,
      "t": 12947.633714843749,
      "d": 184.61559374999888,
      "v": 70
    },
    {
      "midi": 41,
      "hit": false,
      "t": 13132.61560937499,
      "d": 72.16125390624984,
      "v": 45
    },
    {
      "midi": 53,
      "hit": false,
      "t": 13132.61560937499,
      "d": 72.16125390624984,
      "v": 55
    },
    {
      "midi": 82,
      "hit": false,
      "t": 13132.615609374998,
      "d": 173.62657031250092,
      "v": 65
    },
    {
      "midi": 70,
      "hit": false,
      "t": 13132.615609374998,
      "d": 173.62657031250092,
      "v": 57
    },
    {
      "midi": 73,
      "hit": false,
      "t": 13132.615609374998,
      "d": 184.6155937500007,
      "v": 71
    },
    {
      "midi": 41,
      "hit": false,
      "t": 13317.59750390624,
      "d": 72.89385546875019,
      "v": 44
    },
    {
      "midi": 53,
      "hit": false,
      "t": 13317.59750390624,
      "d": 72.89385546875019,
      "v": 54
    },
    {
      "midi": 80,
      "hit": false,
      "t": 13317.597503906249,
      "d": 174.35917187499945,
      "v": 64
    },
    {
      "midi": 68,
      "hit": false,
      "t": 13317.597503906249,
      "d": 174.35917187499945,
      "v": 56
    },
    {
      "midi": 72,
      "hit": false,
      "t": 13317.597503906249,
      "d": 185.34819531249923,
      "v": 70
    },
    {
      "midi": 41,
      "hit": false,
      "t": 13504.77720312499,
      "d": 85.71438281250084,
      "v": 49
    },
    {
      "midi": 53,
      "hit": false,
      "t": 13504.77720312499,
      "d": 85.71438281250084,
      "v": 59
    },
    {
      "midi": 41,
      "hit": false,
      "t": 13703.31222656249,
      "d": 73.26015625000036,
      "v": 44
    },
    {
      "midi": 53,
      "hit": false,
      "t": 13703.31222656249,
      "d": 73.26015625000036,
      "v": 54
    },
    {
      "midi": 79,
      "hit": false,
      "t": 13703.312226562497,
      "d": 174.72547265624962,
      "v": 64
    },
    {
      "midi": 67,
      "hit": false,
      "t": 13703.312226562497,
      "d": 174.72547265624962,
      "v": 56
    },
    {
      "midi": 70,
      "hit": false,
      "t": 13703.312226562497,
      "d": 185.7144960937494,
      "v": 70
    },
    {
      "midi": 41,
      "hit": false,
      "t": 13889.39302343749,
      "d": 72.16125390624984,
      "v": 45
    },
    {
      "midi": 53,
      "hit": false,
      "t": 13889.39302343749,
      "d": 72.16125390624984,
      "v": 55
    },
    {
      "midi": 65,
      "hit": false,
      "t": 13889.393023437497,
      "d": 173.6265703124991,
      "v": 57
    },
    {
      "midi": 68,
      "hit": false,
      "t": 13889.393023437497,
      "d": 173.6265703124991,
      "v": 57
    },
    {
      "midi": 72,
      "hit": false,
      "t": 13889.393023437497,
      "d": 184.61559374999888,
      "v": 71
    },
    {
      "midi": 77,
      "hit": false,
      "t": 13889.393023437497,
      "d": 558.2423906249987,
      "v": 65
    },
    {
      "midi": 41,
      "hit": false,
      "t": 14074.374917968738,
      "d": 73.99275781250071,
      "v": 44
    },
    {
      "midi": 53,
      "hit": false,
      "t": 14074.374917968738,
      "d": 73.99275781250071,
      "v": 54
    },
    {
      "midi": 61,
      "hit": false,
      "t": 14074.374917968746,
      "d": 175.45807421874997,
      "v": 56
    },
    {
      "midi": 67,
      "hit": false,
      "t": 14074.374917968746,
      "d": 175.45807421874997,
      "v": 56
    },
    {
      "midi": 70,
      "hit": false,
      "t": 14074.374917968746,
      "d": 186.44709765624975,
      "v": 70
    },
    {
      "midi": 41,
      "hit": false,
      "t": 14261.188316406238,
      "d": 73.99275781250071,
      "v": 47
    },
    {
      "midi": 53,
      "hit": false,
      "t": 14261.188316406238,
      "d": 73.99275781250071,
      "v": 57
    },
    {
      "midi": 41,
      "hit": false,
      "t": 14448.001714843738,
      "d": 72.16125390624984,
      "v": 44
    },
    {
      "midi": 53,
      "hit": false,
      "t": 14448.001714843738,
      "d": 72.16125390624984,
      "v": 54
    },
    {
      "midi": 67,
      "hit": false,
      "t": 14448.001714843746,
      "d": 173.62657031250092,
      "v": 56
    },
    {
      "midi": 70,
      "hit": false,
      "t": 14448.001714843746,
      "d": 184.6155937500007,
      "v": 70
    },
    {
      "midi": 75,
      "hit": false,
      "t": 14448.001714843746,
      "d": 369.5974882812516,
      "v": 64
    },
    {
      "midi": 41,
      "hit": false,
      "t": 14632.983609374987,
      "d": 72.16125390624984,
      "v": 45
    },
    {
      "midi": 53,
      "hit": false,
      "t": 14632.983609374987,
      "d": 72.16125390624984,
      "v": 59
    },
    {
      "midi": 60,
      "hit": false,
      "t": 14632.983609374996,
      "d": 173.62657031250092,
      "v": 57
    },
    {
      "midi": 65,
      "hit": false,
      "t": 14632.983609374996,
      "d": 173.62657031250092,
      "v": 57
    },
    {
      "midi": 68,
      "hit": false,
      "t": 14632.983609374996,
      "d": 184.6155937500007,
      "v": 71
    },
    {
      "midi": 37,
      "hit": false,
      "t": 14817.965503906236,
      "d": 72.89385546875019,
      "v": 43
    },
    {
      "midi": 49,
      "hit": false,
      "t": 14817.965503906236,
      "d": 72.89385546875019,
      "v": 58
    },
    {
      "midi": 67,
      "hit": false,
      "t": 14817.965503906247,
      "d": 174.35917187499945,
      "v": 56
    },
    {
      "midi": 70,
      "hit": false,
      "t": 14817.965503906247,
      "d": 185.34819531249923,
      "v": 70
    },
    {
      "midi": 77,
      "hit": false,
      "t": 14817.965503906247,
      "d": 571.4292187499977,
      "v": 64
    },
    {
      "midi": 37,
      "hit": false,
      "t": 15005.145203124986,
      "d": 85.71438281250084,
      "v": 48
    },
    {
      "midi": 49,
      "hit": false,
      "t": 15005.145203124986,
      "d": 85.71438281250084,
      "v": 59
    },
    {
      "midi": 37,
      "hit": false,
      "t": 15203.680226562486,
      "d": 73.26015625000036,
      "v": 43
    },
    {
      "midi": 49,
      "hit": false,
      "t": 15203.680226562486,
      "d": 73.26015625000036,
      "v": 54
    },
    {
      "midi": 61,
      "hit": false,
      "t": 15203.680226562496,
      "d": 174.72547265624962,
      "v": 56
    },
    {
      "midi": 67,
      "hit": false,
      "t": 15203.680226562496,
      "d": 174.72547265624962,
      "v": 56
    },
    {
      "midi": 70,
      "hit": false,
      "t": 15203.680226562496,
      "d": 185.7144960937494,
      "v": 70
    },
    {
      "midi": 37,
      "hit": false,
      "t": 15389.761023437486,
      "d": 72.16125390624984,
      "v": 44
    },
    {
      "midi": 49,
      "hit": false,
      "t": 15389.761023437486,
      "d": 72.16125390624984,
      "v": 55
    },
    {
      "midi": 72,
      "hit": false,
      "t": 15389.761023437495,
      "d": 371.4289921875006,
      "v": 65
    },
    {
      "midi": 60,
      "hit": false,
      "t": 15389.761023437495,
      "d": 371.4289921875006,
      "v": 57
    },
    {
      "midi": 65,
      "hit": false,
      "t": 15389.761023437495,
      "d": 371.4289921875006,
      "v": 57
    },
    {
      "midi": 68,
      "hit": false,
      "t": 15389.761023437495,
      "d": 371.4289921875006,
      "v": 71
    },
    {
      "midi": 37,
      "hit": false,
      "t": 15574.742917968735,
      "d": 73.99275781250071,
      "v": 43
    },
    {
      "midi": 49,
      "hit": false,
      "t": 15574.742917968735,
      "d": 73.99275781250071,
      "v": 54
    },
    {
      "midi": 37,
      "hit": false,
      "t": 15761.556316406235,
      "d": 73.99275781250071,
      "v": 46
    },
    {
      "midi": 49,
      "hit": false,
      "t": 15761.556316406235,
      "d": 73.99275781250071,
      "v": 57
    },
    {
      "midi": 77,
      "hit": false,
      "t": 15761.556316406246,
      "d": 371.4289921874988,
      "v": 67
    },
    {
      "midi": 37,
      "hit": false,
      "t": 15948.369714843735,
      "d": 72.16125390624984,
      "v": 43
    },
    {
      "midi": 49,
      "hit": false,
      "t": 15948.369714843735,
      "d": 72.16125390624984,
      "v": 54
    },
    {
      "midi": 61,
      "hit": false,
      "t": 15948.369714843746,
      "d": 173.6265703124991,
      "v": 56
    },
    {
      "midi": 67,
      "hit": false,
      "t": 15948.369714843746,
      "d": 173.6265703124991,
      "v": 56
    },
    {
      "midi": 70,
      "hit": false,
      "t": 15948.369714843746,
      "d": 184.61559374999888,
      "v": 70
    },
    {
      "midi": 37,
      "hit": false,
      "t": 16133.351609374984,
      "d": 72.16125390624984,
      "v": 44
    },
    {
      "midi": 49,
      "hit": false,
      "t": 16133.351609374984,
      "d": 72.16125390624984,
      "v": 55
    },
    {
      "midi": 82,
      "hit": false,
      "t": 16133.351609374995,
      "d": 173.62657031250092,
      "v": 65
    },
    {
      "midi": 70,
      "hit": false,
      "t": 16133.351609374995,
      "d": 173.62657031250092,
      "v": 57
    },
    {
      "midi": 73,
      "hit": false,
      "t": 16133.351609374995,
      "d": 184.6155937500007,
      "v": 71
    },
    {
      "midi": 37,
      "hit": false,
      "t": 16318.333503906233,
      "d": 72.89385546874837,
      "v": 43
    },
    {
      "midi": 49,
      "hit": false,
      "t": 16318.333503906233,
      "d": 72.89385546874837,
      "v": 54
    },
    {
      "midi": 80,
      "hit": false,
      "t": 16318.333503906246,
      "d": 174.35917187500127,
      "v": 64
    },
    {
      "midi": 68,
      "hit": false,
      "t": 16318.333503906246,
      "d": 174.35917187500127,
      "v": 56
    },
    {
      "midi": 72,
      "hit": false,
      "t": 16318.333503906246,
      "d": 185.34819531250287,
      "v": 70
    },
    {
      "midi": 37,
      "hit": false,
      "t": 16505.51320312498,
      "d": 85.71438281250084,
      "v": 48
    },
    {
      "midi": 49,
      "hit": false,
      "t": 16505.51320312498,
      "d": 85.71438281250084,
      "v": 59
    },
    {
      "midi": 37,
      "hit": false,
      "t": 16704.04822656248,
      "d": 73.26015624999854,
      "v": 43
    },
    {
      "midi": 49,
      "hit": false,
      "t": 16704.04822656248,
      "d": 73.26015624999854,
      "v": 54
    },
    {
      "midi": 79,
      "hit": false,
      "t": 16704.0482265625,
      "d": 174.72547265624962,
      "v": 64
    },
    {
      "midi": 67,
      "hit": false,
      "t": 16704.0482265625,
      "d": 174.72547265624962,
      "v": 56
    },
    {
      "midi": 70,
      "hit": false,
      "t": 16704.0482265625,
      "d": 185.71449609375122,
      "v": 70
    },
    {
      "midi": 37,
      "hit": false,
      "t": 16890.12902343748,
      "d": 72.16125390625166,
      "v": 44
    },
    {
      "midi": 49,
      "hit": false,
      "t": 16890.12902343748,
      "d": 72.16125390625166,
      "v": 55
    },
    {
      "midi": 65,
      "hit": false,
      "t": 16890.1290234375,
      "d": 371.4289921874988,
      "v": 57
    },
    {
      "midi": 68,
      "hit": false,
      "t": 16890.1290234375,
      "d": 371.4289921874988,
      "v": 57
    },
    {
      "midi": 72,
      "hit": false,
      "t": 16890.1290234375,
      "d": 371.4289921874988,
      "v": 71
    },
    {
      "midi": 77,
      "hit": false,
      "t": 16890.1290234375,
      "d": 558.2423906250006,
      "v": 65
    },
    {
      "midi": 37,
      "hit": false,
      "t": 17075.11091796873,
      "d": 73.9927578124989,
      "v": 43
    },
    {
      "midi": 49,
      "hit": false,
      "t": 17075.11091796873,
      "d": 73.9927578124989,
      "v": 54
    },
    {
      "midi": 37,
      "hit": false,
      "t": 17261.924316406228,
      "d": 73.9927578124989,
      "v": 46
    },
    {
      "midi": 49,
      "hit": false,
      "t": 17261.924316406228,
      "d": 73.9927578124989,
      "v": 57
    },
    {
      "midi": 61,
      "hit": false,
      "t": 17261.92431640625,
      "d": 175.45807421874997,
      "v": 59
    },
    {
      "midi": 67,
      "hit": false,
      "t": 17261.92431640625,
      "d": 186.44709765625157,
      "v": 59
    },
    {
      "midi": 70,
      "hit": false,
      "t": 17261.92431640625,
      "d": 186.44709765625157,
      "v": 73
    },
    {
      "midi": 37,
      "hit": false,
      "t": 17448.737714843726,
      "d": 72.16125390625166,
      "v": 43
    },
    {
      "midi": 49,
      "hit": false,
      "t": 17448.737714843726,
      "d": 72.16125390625166,
      "v": 54
    },
    {
      "midi": 67,
      "hit": false,
      "t": 17448.73771484375,
      "d": 173.6265703124991,
      "v": 56
    },
    {
      "midi": 70,
      "hit": false,
      "t": 17448.73771484375,
      "d": 184.6155937500007,
      "v": 70
    },
    {
      "midi": 75,
      "hit": false,
      "t": 17448.73771484375,
      "d": 369.5974882812516,
      "v": 64
    },
    {
      "midi": 37,
      "hit": false,
      "t": 17633.719609374977,
      "d": 72.16125390625166,
      "v": 44
    },
    {
      "midi": 49,
      "hit": false,
      "t": 17633.719609374977,
      "d": 72.16125390625166,
      "v": 59
    },
    {
      "midi": 60,
      "hit": false,
      "t": 17633.719609375003,
      "d": 173.6265703124991,
      "v": 57
    },
    {
      "midi": 65,
      "hit": false,
      "t": 17633.719609375003,
      "d": 184.6155937500007,
      "v": 57
    },
    {
      "midi": 68,
      "hit": false,
      "t": 17633.719609375003,
      "d": 184.6155937500007,
      "v": 71
    },
    {
      "midi": 34,
      "hit": false,
      "t": 17818.701503906228,
      "d": 72.89385546874837,
      "v": 42
    },
    {
      "midi": 46,
      "hit": false,
      "t": 17818.701503906228,
      "d": 72.89385546874837,
      "v": 58
    },
    {
      "midi": 65,
      "hit": false,
      "t": 17818.701503906253,
      "d": 174.35917187499945,
      "v": 56
    },
    {
      "midi": 68,
      "hit": false,
      "t": 17818.701503906253,
      "d": 174.35917187499945,
      "v": 56
    },
    {
      "midi": 72,
      "hit": false,
      "t": 17818.701503906253,
      "d": 185.34819531250105,
      "v": 70
    },
    {
      "midi": 77,
      "hit": false,
      "t": 17818.701503906253,
      "d": 571.4292187500032,
      "v": 64
    },
    {
      "midi": 34,
      "hit": false,
      "t": 18005.881203124976,
      "d": 85.71438281250084,
      "v": 47
    },
    {
      "midi": 46,
      "hit": false,
      "t": 18005.881203124976,
      "d": 85.71438281250084,
      "v": 59
    },
    {
      "midi": 34,
      "hit": false,
      "t": 18204.416226562476,
      "d": 73.26015624999854,
      "v": 42
    },
    {
      "midi": 46,
      "hit": false,
      "t": 18204.416226562476,
      "d": 73.26015624999854,
      "v": 54
    },
    {
      "midi": 60,
      "hit": false,
      "t": 18204.416226562505,
      "d": 174.72547265624962,
      "v": 56
    },
    {
      "midi": 65,
      "hit": false,
      "t": 18204.416226562505,
      "d": 174.72547265624962,
      "v": 56
    },
    {
      "midi": 68,
      "hit": false,
      "t": 18204.416226562505,
      "d": 185.71449609375122,
      "v": 70
    },
    {
      "midi": 34,
      "hit": false,
      "t": 18390.497023437474,
      "d": 72.16125390625166,
      "v": 43
    },
    {
      "midi": 46,
      "hit": false,
      "t": 18390.497023437474,
      "d": 72.16125390625166,
      "v": 55
    },
    {
      "midi": 72,
      "hit": false,
      "t": 18390.497023437507,
      "d": 371.4289921874988,
      "v": 65
    },
    {
      "midi": 63,
      "hit": false,
      "t": 18390.497023437507,
      "d": 371.4289921874988,
      "v": 57
    },
    {
      "midi": 67,
      "hit": false,
      "t": 18390.497023437507,
      "d": 371.4289921874988,
      "v": 57
    },
    {
      "midi": 70,
      "hit": false,
      "t": 18390.497023437507,
      "d": 371.4289921874988,
      "v": 71
    },
    {
      "midi": 34,
      "hit": false,
      "t": 18575.478917968725,
      "d": 73.9927578124989,
      "v": 42
    },
    {
      "midi": 46,
      "hit": false,
      "t": 18575.478917968725,
      "d": 73.9927578124989,
      "v": 54
    },
    {
      "midi": 34,
      "hit": false,
      "t": 18762.292316406223,
      "d": 73.9927578124989,
      "v": 45
    },
    {
      "midi": 46,
      "hit": false,
      "t": 18762.292316406223,
      "d": 73.9927578124989,
      "v": 57
    },
    {
      "midi": 77,
      "hit": false,
      "t": 18762.292316406256,
      "d": 371.42899218750244,
      "v": 67
    },
    {
      "midi": 34,
      "hit": false,
      "t": 18949.10571484372,
      "d": 72.16125390625166,
      "v": 42
    },
    {
      "midi": 46,
      "hit": false,
      "t": 18949.10571484372,
      "d": 72.16125390625166,
      "v": 54
    },
    {
      "midi": 65,
      "hit": false,
      "t": 18949.105714843758,
      "d": 173.6265703124991,
      "v": 56
    },
    {
      "midi": 68,
      "hit": false,
      "t": 18949.105714843758,
      "d": 184.6155937500007,
      "v": 56
    },
    {
      "midi": 72,
      "hit": false,
      "t": 18949.105714843758,
      "d": 184.6155937500007,
      "v": 70
    },
    {
      "midi": 34,
      "hit": false,
      "t": 19134.087609374972,
      "d": 72.16125390625166,
      "v": 43
    },
    {
      "midi": 46,
      "hit": false,
      "t": 19134.087609374972,
      "d": 72.16125390625166,
      "v": 55
    },
    {
      "midi": 82,
      "hit": false,
      "t": 19134.08760937501,
      "d": 173.6265703124991,
      "v": 65
    },
    {
      "midi": 68,
      "hit": false,
      "t": 19134.08760937501,
      "d": 173.6265703124991,
      "v": 57
    },
    {
      "midi": 72,
      "hit": false,
      "t": 19134.08760937501,
      "d": 173.6265703124991,
      "v": 57
    },
    {
      "midi": 77,
      "hit": false,
      "t": 19134.08760937501,
      "d": 184.6155937500007,
      "v": 71
    },
    {
      "midi": 34,
      "hit": false,
      "t": 19319.069503906223,
      "d": 72.89385546874837,
      "v": 42
    },
    {
      "midi": 46,
      "hit": false,
      "t": 19319.069503906223,
      "d": 72.89385546874837,
      "v": 54
    },
    {
      "midi": 70,
      "hit": false,
      "t": 19319.06950390626,
      "d": 174.35917187499945,
      "v": 56
    },
    {
      "midi": 75,
      "hit": false,
      "t": 19319.06950390626,
      "d": 174.35917187499945,
      "v": 56
    },
    {
      "midi": 79,
      "hit": false,
      "t": 19319.06950390626,
      "d": 185.34819531250105,
      "v": 70
    },
    {
      "midi": 84,
      "hit": false,
      "t": 19319.06950390626,
      "d": 374.3593984375002,
      "v": 64
    },
    {
      "midi": 34,
      "hit": false,
      "t": 19506.24920312497,
      "d": 85.71438281250084,
      "v": 47
    },
    {
      "midi": 46,
      "hit": false,
      "t": 19506.24920312497,
      "d": 85.71438281250084,
      "v": 59
    },
    {
      "midi": 72,
      "hit": false,
      "t": 19506.24920312501,
      "d": 384.2495195312513,
      "v": 61
    },
    {
      "midi": 77,
      "hit": false,
      "t": 19506.24920312501,
      "d": 384.2495195312513,
      "v": 61
    },
    {
      "midi": 80,
      "hit": false,
      "t": 19506.24920312501,
      "d": 384.2495195312513,
      "v": 75
    },
    {
      "midi": 34,
      "hit": false,
      "t": 19704.78422656247,
      "d": 73.26015624999854,
      "v": 42
    },
    {
      "midi": 46,
      "hit": false,
      "t": 19704.78422656247,
      "d": 73.26015624999854,
      "v": 54
    },
    {
      "midi": 85,
      "hit": false,
      "t": 19704.78422656251,
      "d": 174.72547265624962,
      "v": 64
    },
    {
      "midi": 34,
      "hit": false,
      "t": 19890.86502343747,
      "d": 72.16125390625166,
      "v": 43
    },
    {
      "midi": 46,
      "hit": false,
      "t": 19890.86502343747,
      "d": 72.16125390625166,
      "v": 55
    },
    {
      "midi": 84,
      "hit": false,
      "t": 19890.865023437513,
      "d": 173.6265703124991,
      "v": 65
    },
    {
      "midi": 70,
      "hit": false,
      "t": 19890.865023437513,
      "d": 173.6265703124991,
      "v": 57
    },
    {
      "midi": 75,
      "hit": false,
      "t": 19890.865023437513,
      "d": 173.6265703124991,
      "v": 57
    },
    {
      "midi": 79,
      "hit": false,
      "t": 19890.865023437513,
      "d": 184.6155937500007,
      "v": 71
    },
    {
      "midi": 34,
      "hit": false,
      "t": 20075.84691796872,
      "d": 73.9927578124989,
      "v": 42
    },
    {
      "midi": 46,
      "hit": false,
      "t": 20075.84691796872,
      "d": 73.9927578124989,
      "v": 54
    },
    {
      "midi": 68,
      "hit": false,
      "t": 20075.846917968764,
      "d": 175.45807421874997,
      "v": 56
    },
    {
      "midi": 72,
      "hit": false,
      "t": 20075.846917968764,
      "d": 175.45807421874997,
      "v": 56
    },
    {
      "midi": 77,
      "hit": false,
      "t": 20075.846917968764,
      "d": 186.44709765625157,
      "v": 70
    },
    {
      "midi": 82,
      "hit": false,
      "t": 20075.846917968764,
      "d": 373.2604960937533,
      "v": 64
    },
    {
      "midi": 34,
      "hit": false,
      "t": 20262.660316406218,
      "d": 73.9927578124989,
      "v": 45
    },
    {
      "midi": 46,
      "hit": false,
      "t": 20262.660316406218,
      "d": 73.9927578124989,
      "v": 57
    },
    {
      "midi": 34,
      "hit": false,
      "t": 20449.473714843716,
      "d": 72.16125390625166,
      "v": 42
    },
    {
      "midi": 46,
      "hit": false,
      "t": 20449.473714843716,
      "d": 72.16125390625166,
      "v": 54
    },
    {
      "midi": 80,
      "hit": false,
      "t": 20449.473714843767,
      "d": 173.6265703124991,
      "v": 64
    },
    {
      "midi": 68,
      "hit": false,
      "t": 20449.473714843767,
      "d": 173.6265703124991,
      "v": 56
    },
    {
      "midi": 72,
      "hit": false,
      "t": 20449.473714843767,
      "d": 173.6265703124991,
      "v": 56
    },
    {
      "midi": 77,
      "hit": false,
      "t": 20449.473714843767,
      "d": 184.6155937500007,
      "v": 70
    },
    {
      "midi": 34,
      "hit": false,
      "t": 20634.455609374967,
      "d": 72.16125390625166,
      "v": 43
    },
    {
      "midi": 46,
      "hit": false,
      "t": 20634.455609374967,
      "d": 72.16125390625166,
      "v": 59
    },
    {
      "midi": 82,
      "hit": false,
      "t": 20634.455609375018,
      "d": 173.6265703124991,
      "v": 65
    },
    {
      "midi": 70,
      "hit": false,
      "t": 20634.455609375018,
      "d": 173.6265703124991,
      "v": 57
    },
    {
      "midi": 75,
      "hit": false,
      "t": 20634.455609375018,
      "d": 173.6265703124991,
      "v": 57
    },
    {
      "midi": 79,
      "hit": false,
      "t": 20634.455609375018,
      "d": 184.6155937500007,
      "v": 71
    },
    {
      "midi": 36,
      "hit": false,
      "t": 20819.437503906218,
      "d": 72.89385546874837,
      "v": 42
    },
    {
      "midi": 48,
      "hit": false,
      "t": 20819.437503906218,
      "d": 72.89385546874837,
      "v": 58
    },
    {
      "midi": 72,
      "hit": false,
      "t": 20819.43750390627,
      "d": 174.35917187499945,
      "v": 56
    },
    {
      "midi": 76,
      "hit": false,
      "t": 20819.43750390627,
      "d": 174.35917187499945,
      "v": 56
    },
    {
      "midi": 79,
      "hit": false,
      "t": 20819.43750390627,
      "d": 185.34819531250105,
      "v": 70
    },
    {
      "midi": 84,
      "hit": false,
      "t": 20819.43750390627,
      "d": 756.4111132812541,
      "v": 64
    },
    {
      "midi": 36,
      "hit": false,
      "t": 21006.617203124966,
      "d": 85.71438281250084,
      "v": 47
    },
    {
      "midi": 48,
      "hit": false,
      "t": 21006.617203124966,
      "d": 85.71438281250084,
      "v": 59
    },
    {
      "midi": 36,
      "hit": false,
      "t": 21205.152226562466,
      "d": 73.26015624999854,
      "v": 42
    },
    {
      "midi": 48,
      "hit": false,
      "t": 21205.152226562466,
      "d": 73.26015624999854,
      "v": 54
    },
    {
      "midi": 67,
      "hit": false,
      "t": 21205.15222656252,
      "d": 174.72547265624962,
      "v": 56
    },
    {
      "midi": 72,
      "hit": false,
      "t": 21205.15222656252,
      "d": 174.72547265624962,
      "v": 56
    },
    {
      "midi": 76,
      "hit": false,
      "t": 21205.15222656252,
      "d": 185.71449609375122,
      "v": 70
    },
    {
      "midi": 36,
      "hit": false,
      "t": 21391.233023437464,
      "d": 72.16125390625166,
      "v": 43
    },
    {
      "midi": 48,
      "hit": false,
      "t": 21391.233023437464,
      "d": 72.16125390625166,
      "v": 55
    },
    {
      "midi": 68,
      "hit": false,
      "t": 21391.233023437522,
      "d": 371.42899218750244,
      "v": 57
    },
    {
      "midi": 73,
      "hit": false,
      "t": 21391.233023437522,
      "d": 371.42899218750244,
      "v": 57
    },
    {
      "midi": 77,
      "hit": false,
      "t": 21391.233023437522,
      "d": 371.42899218750244,
      "v": 71
    },
    {
      "midi": 36,
      "hit": false,
      "t": 21576.214917968715,
      "d": 73.9927578124989,
      "v": 42
    },
    {
      "midi": 48,
      "hit": false,
      "t": 21576.214917968715,
      "d": 73.9927578124989,
      "v": 54
    },
    {
      "midi": 82,
      "hit": false,
      "t": 21576.214917968773,
      "d": 558.2423906250006,
      "v": 64
    },
    {
      "midi": 36,
      "hit": false,
      "t": 21763.028316406213,
      "d": 73.9927578124989,
      "v": 45
    },
    {
      "midi": 48,
      "hit": false,
      "t": 21763.028316406213,
      "d": 73.9927578124989,
      "v": 57
    },
    {
      "midi": 67,
      "hit": false,
      "t": 21763.028316406275,
      "d": 371.4289921874988,
      "v": 59
    },
    {
      "midi": 72,
      "hit": false,
      "t": 21763.028316406275,
      "d": 371.4289921874988,
      "v": 59
    },
    {
      "midi": 76,
      "hit": false,
      "t": 21763.028316406275,
      "d": 371.4289921874988,
      "v": 73
    },
    {
      "midi": 36,
      "hit": false,
      "t": 21949.84171484371,
      "d": 72.16125390625166,
      "v": 42
    },
    {
      "midi": 48,
      "hit": false,
      "t": 21949.84171484371,
      "d": 72.16125390625166,
      "v": 54
    },
    {
      "midi": 36,
      "hit": false,
      "t": 22134.823609374962,
      "d": 72.16125390625166,
      "v": 43
    },
    {
      "midi": 48,
      "hit": false,
      "t": 22134.823609374962,
      "d": 72.16125390625166,
      "v": 55
    },
    {
      "midi": 68,
      "hit": false,
      "t": 22134.823609375024,
      "d": 173.6265703124991,
      "v": 57
    },
    {
      "midi": 73,
      "hit": false,
      "t": 22134.823609375024,
      "d": 173.6265703124991,
      "v": 57
    },
    {
      "midi": 77,
      "hit": false,
      "t": 22134.823609375024,
      "d": 184.6155937500007,
      "v": 71
    },
    {
      "midi": 80,
      "hit": false,
      "t": 22134.823609375024,
      "d": 370.3300898437519,
      "v": 65
    },
    {
      "midi": 36,
      "hit": false,
      "t": 22319.805503906213,
      "d": 72.89385546874837,
      "v": 42
    },
    {
      "midi": 48,
      "hit": false,
      "t": 22319.805503906213,
      "d": 72.89385546874837,
      "v": 54
    },
    {
      "midi": 67,
      "hit": false,
      "t": 22319.805503906275,
      "d": 174.35917187499945,
      "v": 56
    },
    {
      "midi": 72,
      "hit": false,
      "t": 22319.805503906275,
      "d": 174.35917187499945,
      "v": 56
    },
    {
      "midi": 76,
      "hit": false,
      "t": 22319.805503906275,
      "d": 185.34819531250105,
      "v": 70
    },
    {
      "midi": 36,
      "hit": false,
      "t": 22506.98520312496,
      "d": 85.71438281250084,
      "v": 47
    },
    {
      "midi": 48,
      "hit": false,
      "t": 22506.98520312496,
      "d": 85.71438281250084,
      "v": 59
    },
    {
      "midi": 79,
      "hit": false,
      "t": 22506.985203125027,
      "d": 384.2495195312513,
      "v": 69
    },
    {
      "midi": 36,
      "hit": false,
      "t": 22705.52022656246,
      "d": 73.26015624999854,
      "v": 42
    },
    {
      "midi": 48,
      "hit": false,
      "t": 22705.52022656246,
      "d": 73.26015624999854,
      "v": 54
    },
    {
      "midi": 64,
      "hit": false,
      "t": 22705.520226562527,
      "d": 174.72547265624962,
      "v": 56
    },
    {
      "midi": 67,
      "hit": false,
      "t": 22705.520226562527,
      "d": 174.72547265624962,
      "v": 56
    },
    {
      "midi": 72,
      "hit": false,
      "t": 22705.520226562527,
      "d": 185.71449609375122,
      "v": 70
    },
    {
      "midi": 36,
      "hit": false,
      "t": 22891.60102343746,
      "d": 72.16125390625166,
      "v": 43
    },
    {
      "midi": 48,
      "hit": false,
      "t": 22891.60102343746,
      "d": 72.16125390625166,
      "v": 55
    },
    {
      "midi": 77,
      "hit": false,
      "t": 22891.601023437528,
      "d": 173.6265703124991,
      "v": 65
    },
    {
      "midi": 65,
      "hit": false,
      "t": 22891.601023437528,
      "d": 371.42899218750244,
      "v": 57
    },
    {
      "midi": 68,
      "hit": false,
      "t": 22891.601023437528,
      "d": 371.42899218750244,
      "v": 57
    },
    {
      "midi": 73,
      "hit": false,
      "t": 22891.601023437528,
      "d": 371.42899218750244,
      "v": 71
    },
    {
      "midi": 36,
      "hit": false,
      "t": 23076.58291796871,
      "d": 73.9927578124989,
      "v": 42
    },
    {
      "midi": 48,
      "hit": false,
      "t": 23076.58291796871,
      "d": 73.9927578124989,
      "v": 54
    },
    {
      "midi": 76,
      "hit": false,
      "t": 23076.58291796878,
      "d": 928.9387812500026,
      "v": 64
    },
    {
      "midi": 36,
      "hit": false,
      "t": 23263.396316406208,
      "d": 73.9927578124989,
      "v": 45
    },
    {
      "midi": 48,
      "hit": false,
      "t": 23263.396316406208,
      "d": 73.9927578124989,
      "v": 57
    },
    {
      "midi": 36,
      "hit": false,
      "t": 23450.209714843706,
      "d": 72.16125390625166,
      "v": 42
    },
    {
      "midi": 48,
      "hit": false,
      "t": 23450.209714843706,
      "d": 72.16125390625166,
      "v": 54
    },
    {
      "midi": 60,
      "hit": false,
      "t": 23450.20971484378,
      "d": 173.6265703124991,
      "v": 56
    },
    {
      "midi": 64,
      "hit": false,
      "t": 23450.20971484378,
      "d": 173.6265703124991,
      "v": 56
    },
    {
      "midi": 67,
      "hit": false,
      "t": 23450.20971484378,
      "d": 184.6155937500007,
      "v": 70
    },
    {
      "midi": 36,
      "hit": false,
      "t": 23635.191609374957,
      "d": 72.16125390625166,
      "v": 43
    },
    {
      "midi": 48,
      "hit": false,
      "t": 23635.191609374957,
      "d": 72.16125390625166,
      "v": 59
    },
    {
      "midi": 56,
      "hit": false,
      "t": 23635.19160937503,
      "d": 173.6265703124991,
      "v": 57
    },
    {
      "midi": 61,
      "hit": false,
      "t": 23635.19160937503,
      "d": 184.6155937500007,
      "v": 57
    },
    {
      "midi": 65,
      "hit": false,
      "t": 23635.19160937503,
      "d": 184.6155937500007,
      "v": 71
    },
    {
      "midi": 41,
      "hit": false,
      "t": 23820.173503906208,
      "d": 72.89385546874837,
      "v": 44
    },
    {
      "midi": 53,
      "hit": false,
      "t": 23820.173503906208,
      "d": 72.89385546874837,
      "v": 58
    },
    {
      "midi": 61,
      "hit": false,
      "t": 23820.17350390628,
      "d": 174.35917187499945,
      "v": 56
    },
    {
      "midi": 67,
      "hit": false,
      "t": 23820.17350390628,
      "d": 174.35917187499945,
      "v": 56
    },
    {
      "midi": 70,
      "hit": false,
      "t": 23820.17350390628,
      "d": 185.34819531250105,
      "v": 70
    },
    {
      "midi": 41,
      "hit": false,
      "t": 24007.353203124956,
      "d": 85.71438281250084,
      "v": 49
    },
    {
      "midi": 53,
      "hit": false,
      "t": 24007.353203124956,
      "d": 85.71438281250084,
      "v": 59
    },
    {
      "midi": 41,
      "hit": false,
      "t": 24205.888226562456,
      "d": 73.26015624999854,
      "v": 44
    },
    {
      "midi": 53,
      "hit": false,
      "t": 24205.888226562456,
      "d": 73.26015624999854,
      "v": 54
    },
    {
      "midi": 61,
      "hit": false,
      "t": 24205.888226562533,
      "d": 174.72547265624962,
      "v": 56
    },
    {
      "midi": 67,
      "hit": false,
      "t": 24205.888226562533,
      "d": 174.72547265624962,
      "v": 56
    },
    {
      "midi": 70,
      "hit": false,
      "t": 24205.888226562533,
      "d": 185.71449609375122,
      "v": 70
    },
    {
      "midi": 41,
      "hit": false,
      "t": 24391.969023437454,
      "d": 72.16125390625166,
      "v": 45
    },
    {
      "midi": 53,
      "hit": false,
      "t": 24391.969023437454,
      "d": 72.16125390625166,
      "v": 55
    },
    {
      "midi": 72,
      "hit": false,
      "t": 24391.969023437534,
      "d": 371.4289921874988,
      "v": 65
    },
    {
      "midi": 60,
      "hit": false,
      "t": 24391.969023437534,
      "d": 371.4289921874988,
      "v": 57
    },
    {
      "midi": 65,
      "hit": false,
      "t": 24391.969023437534,
      "d": 371.4289921874988,
      "v": 57
    },
    {
      "midi": 68,
      "hit": false,
      "t": 24391.969023437534,
      "d": 371.4289921874988,
      "v": 71
    },
    {
      "midi": 41,
      "hit": false,
      "t": 24576.950917968705,
      "d": 73.9927578124989,
      "v": 44
    },
    {
      "midi": 53,
      "hit": false,
      "t": 24576.950917968705,
      "d": 73.9927578124989,
      "v": 54
    },
    {
      "midi": 41,
      "hit": false,
      "t": 24763.764316406203,
      "d": 73.9927578124989,
      "v": 47
    },
    {
      "midi": 53,
      "hit": false,
      "t": 24763.764316406203,
      "d": 73.9927578124989,
      "v": 57
    },
    {
      "midi": 77,
      "hit": false,
      "t": 24763.764316406283,
      "d": 371.42899218750244,
      "v": 67
    },
    {
      "midi": 41,
      "hit": false,
      "t": 24950.5777148437,
      "d": 72.16125390625166,
      "v": 44
    },
    {
      "midi": 53,
      "hit": false,
      "t": 24950.5777148437,
      "d": 72.16125390625166,
      "v": 54
    },
    {
      "midi": 61,
      "hit": false,
      "t": 24950.577714843785,
      "d": 173.6265703124991,
      "v": 56
    },
    {
      "midi": 67,
      "hit": false,
      "t": 24950.577714843785,
      "d": 173.6265703124991,
      "v": 56
    },
    {
      "midi": 70,
      "hit": false,
      "t": 24950.577714843785,
      "d": 184.6155937500007,
      "v": 70
    },
    {
      "midi": 41,
      "hit": false,
      "t": 25135.559609374952,
      "d": 72.16125390625166,
      "v": 45
    },
    {
      "midi": 53,
      "hit": false,
      "t": 25135.559609374952,
      "d": 72.16125390625166,
      "v": 55
    },
    {
      "midi": 82,
      "hit": false,
      "t": 25135.559609375036,
      "d": 173.6265703124991,
      "v": 65
    },
    {
      "midi": 70,
      "hit": false,
      "t": 25135.559609375036,
      "d": 173.6265703124991,
      "v": 57
    },
    {
      "midi": 73,
      "hit": false,
      "t": 25135.559609375036,
      "d": 184.6155937500007,
      "v": 71
    },
    {
      "midi": 41,
      "hit": false,
      "t": 25320.541503906203,
      "d": 72.89385546874837,
      "v": 44
    },
    {
      "midi": 53,
      "hit": false,
      "t": 25320.541503906203,
      "d": 72.89385546874837,
      "v": 54
    },
    {
      "midi": 80,
      "hit": false,
      "t": 25320.541503906286,
      "d": 174.35917187499945,
      "v": 64
    },
    {
      "midi": 68,
      "hit": false,
      "t": 25320.541503906286,
      "d": 174.35917187499945,
      "v": 56
    },
    {
      "midi": 72,
      "hit": false,
      "t": 25320.541503906286,
      "d": 185.34819531250105,
      "v": 70
    },
    {
      "midi": 41,
      "hit": false,
      "t": 25507.72120312495,
      "d": 85.71438281250084,
      "v": 49
    },
    {
      "midi": 53,
      "hit": false,
      "t": 25507.72120312495,
      "d": 85.71438281250084,
      "v": 59
    },
    {
      "midi": 41,
      "hit": false,
      "t": 25706.25622656245,
      "d": 73.26015624999854,
      "v": 44
    },
    {
      "midi": 53,
      "hit": false,
      "t": 25706.25622656245,
      "d": 73.26015624999854,
      "v": 54
    },
    {
      "midi": 79,
      "hit": false,
      "t": 25706.25622656254,
      "d": 174.72547265624962,
      "v": 64
    },
    {
      "midi": 67,
      "hit": false,
      "t": 25706.25622656254,
      "d": 174.72547265624962,
      "v": 56
    },
    {
      "midi": 70,
      "hit": false,
      "t": 25706.25622656254,
      "d": 185.71449609375122,
      "v": 70
    },
    {
      "midi": 41,
      "hit": false,
      "t": 25892.33702343745,
      "d": 72.16125390625166,
      "v": 45
    },
    {
      "midi": 53,
      "hit": false,
      "t": 25892.33702343745,
      "d": 72.16125390625166,
      "v": 55
    },
    {
      "midi": 65,
      "hit": false,
      "t": 25892.33702343754,
      "d": 173.6265703124991,
      "v": 57
    },
    {
      "midi": 68,
      "hit": false,
      "t": 25892.33702343754,
      "d": 173.6265703124991,
      "v": 57
    },
    {
      "midi": 72,
      "hit": false,
      "t": 25892.33702343754,
      "d": 184.6155937500007,
      "v": 71
    },
    {
      "midi": 77,
      "hit": false,
      "t": 25892.33702343754,
      "d": 558.2423906250042,
      "v": 65
    },
    {
      "midi": 41,
      "hit": false,
      "t": 26077.3189179687,
      "d": 73.9927578124989,
      "v": 44
    },
    {
      "midi": 53,
      "hit": false,
      "t": 26077.3189179687,
      "d": 73.9927578124989,
      "v": 54
    },
    {
      "midi": 61,
      "hit": false,
      "t": 26077.31891796879,
      "d": 175.45807421874997,
      "v": 56
    },
    {
      "midi": 67,
      "hit": false,
      "t": 26077.31891796879,
      "d": 175.45807421874997,
      "v": 56
    },
    {
      "midi": 70,
      "hit": false,
      "t": 26077.31891796879,
      "d": 186.44709765625157,
      "v": 70
    },
    {
      "midi": 41,
      "hit": false,
      "t": 26264.132316406198,
      "d": 73.9927578124989,
      "v": 47
    },
    {
      "midi": 53,
      "hit": false,
      "t": 26264.132316406198,
      "d": 73.9927578124989,
      "v": 57
    },
    {
      "midi": 41,
      "hit": false,
      "t": 26450.945714843696,
      "d": 72.16125390625166,
      "v": 44
    },
    {
      "midi": 53,
      "hit": false,
      "t": 26450.945714843696,
      "d": 72.16125390625166,
      "v": 54
    },
    {
      "midi": 67,
      "hit": false,
      "t": 26450.945714843794,
      "d": 173.6265703124991,
      "v": 56
    },
    {
      "midi": 70,
      "hit": false,
      "t": 26450.945714843794,
      "d": 184.6155937500007,
      "v": 70
    },
    {
      "midi": 75,
      "hit": false,
      "t": 26450.945714843794,
      "d": 369.5974882812516,
      "v": 64
    },
    {
      "midi": 41,
      "hit": false,
      "t": 26635.927609374947,
      "d": 72.16125390625166,
      "v": 45
    },
    {
      "midi": 53,
      "hit": false,
      "t": 26635.927609374947,
      "d": 72.16125390625166,
      "v": 59
    },
    {
      "midi": 60,
      "hit": false,
      "t": 26635.927609375045,
      "d": 173.6265703124991,
      "v": 57
    },
    {
      "midi": 65,
      "hit": false,
      "t": 26635.927609375045,
      "d": 173.6265703124991,
      "v": 57
    },
    {
      "midi": 68,
      "hit": false,
      "t": 26635.927609375045,
      "d": 184.6155937500007,
      "v": 71
    },
    {
      "midi": 37,
      "hit": false,
      "t": 26820.909503906198,
      "d": 72.89385546874837,
      "v": 43
    },
    {
      "midi": 49,
      "hit": false,
      "t": 26820.909503906198,
      "d": 72.89385546874837,
      "v": 58
    },
    {
      "midi": 67,
      "hit": false,
      "t": 26820.909503906296,
      "d": 174.35917187499945,
      "v": 56
    },
    {
      "midi": 70,
      "hit": false,
      "t": 26820.909503906296,
      "d": 185.34819531250105,
      "v": 70
    },
    {
      "midi": 77,
      "hit": false,
      "t": 26820.909503906296,
      "d": 571.4292187500032,
      "v": 64
    },
    {
      "midi": 37,
      "hit": false,
      "t": 27008.089203124946,
      "d": 85.71438281250084,
      "v": 48
    },
    {
      "midi": 49,
      "hit": false,
      "t": 27008.089203124946,
      "d": 85.71438281250084,
      "v": 59
    },
    {
      "midi": 37,
      "hit": false,
      "t": 27206.624226562446,
      "d": 73.26015624999854,
      "v": 43
    },
    {
      "midi": 49,
      "hit": false,
      "t": 27206.624226562446,
      "d": 73.26015624999854,
      "v": 54
    },
    {
      "midi": 61,
      "hit": false,
      "t": 27206.624226562548,
      "d": 174.72547265624962,
      "v": 56
    },
    {
      "midi": 67,
      "hit": false,
      "t": 27206.624226562548,
      "d": 174.72547265624962,
      "v": 56
    },
    {
      "midi": 70,
      "hit": false,
      "t": 27206.624226562548,
      "d": 185.71449609375122,
      "v": 70
    },
    {
      "midi": 37,
      "hit": false,
      "t": 27392.705023437444,
      "d": 72.16125390625166,
      "v": 44
    },
    {
      "midi": 49,
      "hit": false,
      "t": 27392.705023437444,
      "d": 72.16125390625166,
      "v": 55
    },
    {
      "midi": 72,
      "hit": false,
      "t": 27392.70502343755,
      "d": 371.4289921874988,
      "v": 65
    },
    {
      "midi": 60,
      "hit": false,
      "t": 27392.70502343755,
      "d": 371.4289921874988,
      "v": 57
    },
    {
      "midi": 65,
      "hit": false,
      "t": 27392.70502343755,
      "d": 371.4289921874988,
      "v": 57
    },
    {
      "midi": 68,
      "hit": false,
      "t": 27392.70502343755,
      "d": 371.4289921874988,
      "v": 71
    },
    {
      "midi": 37,
      "hit": false,
      "t": 27577.686917968695,
      "d": 73.9927578124989,
      "v": 43
    },
    {
      "midi": 49,
      "hit": false,
      "t": 27577.686917968695,
      "d": 73.9927578124989,
      "v": 54
    },
    {
      "midi": 37,
      "hit": false,
      "t": 27764.500316406193,
      "d": 73.9927578124989,
      "v": 46
    },
    {
      "midi": 49,
      "hit": false,
      "t": 27764.500316406193,
      "d": 73.9927578124989,
      "v": 57
    },
    {
      "midi": 77,
      "hit": false,
      "t": 27764.5003164063,
      "d": 371.42899218750244,
      "v": 67
    },
    {
      "midi": 37,
      "hit": false,
      "t": 27951.31371484369,
      "d": 72.16125390625166,
      "v": 43
    },
    {
      "midi": 49,
      "hit": false,
      "t": 27951.31371484369,
      "d": 72.16125390625166,
      "v": 54
    },
    {
      "midi": 61,
      "hit": false,
      "t": 27951.3137148438,
      "d": 173.6265703124991,
      "v": 56
    },
    {
      "midi": 67,
      "hit": false,
      "t": 27951.3137148438,
      "d": 173.6265703124991,
      "v": 56
    },
    {
      "midi": 70,
      "hit": false,
      "t": 27951.3137148438,
      "d": 184.6155937500007,
      "v": 70
    },
    {
      "midi": 37,
      "hit": false,
      "t": 28136.29560937494,
      "d": 72.16125390625166,
      "v": 44
    },
    {
      "midi": 49,
      "hit": false,
      "t": 28136.29560937494,
      "d": 72.16125390625166,
      "v": 55
    },
    {
      "midi": 82,
      "hit": false,
      "t": 28136.29560937505,
      "d": 173.6265703124991,
      "v": 65
    },
    {
      "midi": 70,
      "hit": false,
      "t": 28136.29560937505,
      "d": 173.6265703124991,
      "v": 57
    },
    {
      "midi": 73,
      "hit": false,
      "t": 28136.29560937505,
      "d": 184.6155937500007,
      "v": 71
    },
    {
      "midi": 37,
      "hit": false,
      "t": 28321.277503906193,
      "d": 72.89385546874837,
      "v": 43
    },
    {
      "midi": 49,
      "hit": false,
      "t": 28321.277503906193,
      "d": 72.89385546874837,
      "v": 54
    },
    {
      "midi": 80,
      "hit": false,
      "t": 28321.2775039063,
      "d": 174.35917187499945,
      "v": 64
    },
    {
      "midi": 68,
      "hit": false,
      "t": 28321.2775039063,
      "d": 174.35917187499945,
      "v": 56
    },
    {
      "midi": 72,
      "hit": false,
      "t": 28321.2775039063,
      "d": 185.34819531250105,
      "v": 70
    },
    {
      "midi": 37,
      "hit": false,
      "t": 28508.45720312494,
      "d": 85.71438281250084,
      "v": 48
    },
    {
      "midi": 49,
      "hit": false,
      "t": 28508.45720312494,
      "d": 85.71438281250084,
      "v": 59
    },
    {
      "midi": 37,
      "hit": false,
      "t": 28706.99222656244,
      "d": 73.26015624999854,
      "v": 43
    },
    {
      "midi": 49,
      "hit": false,
      "t": 28706.99222656244,
      "d": 73.26015624999854,
      "v": 54
    },
    {
      "midi": 79,
      "hit": false,
      "t": 28706.992226562554,
      "d": 174.72547265624962,
      "v": 64
    },
    {
      "midi": 67,
      "hit": false,
      "t": 28706.992226562554,
      "d": 174.72547265624962,
      "v": 56
    },
    {
      "midi": 70,
      "hit": false,
      "t": 28706.992226562554,
      "d": 185.71449609375122,
      "v": 70
    },
    {
      "midi": 37,
      "hit": false,
      "t": 28893.07302343744,
      "d": 72.16125390625166,
      "v": 44
    },
    {
      "midi": 49,
      "hit": false,
      "t": 28893.07302343744,
      "d": 72.16125390625166,
      "v": 55
    },
    {
      "midi": 65,
      "hit": false,
      "t": 28893.073023437555,
      "d": 371.4289921874988,
      "v": 57
    },
    {
      "midi": 68,
      "hit": false,
      "t": 28893.073023437555,
      "d": 371.4289921874988,
      "v": 57
    },
    {
      "midi": 72,
      "hit": false,
      "t": 28893.073023437555,
      "d": 371.4289921874988,
      "v": 71
    },
    {
      "midi": 77,
      "hit": false,
      "t": 28893.073023437555,
      "d": 558.2423906250006,
      "v": 65
    },
    {
      "midi": 37,
      "hit": false,
      "t": 29078.05491796869,
      "d": 73.9927578124989,
      "v": 43
    },
    {
      "midi": 49,
      "hit": false,
      "t": 29078.05491796869,
      "d": 73.9927578124989,
      "v": 54
    },
    {
      "midi": 37,
      "hit": false,
      "t": 29264.868316406188,
      "d": 73.9927578124989,
      "v": 46
    },
    {
      "midi": 49,
      "hit": false,
      "t": 29264.868316406188,
      "d": 73.9927578124989,
      "v": 57
    },
    {
      "midi": 61,
      "hit": false,
      "t": 29264.868316406304,
      "d": 175.45807421874997,
      "v": 59
    },
    {
      "midi": 67,
      "hit": false,
      "t": 29264.868316406304,
      "d": 186.44709765625157,
      "v": 59
    },
    {
      "midi": 70,
      "hit": false,
      "t": 29264.868316406304,
      "d": 186.44709765625157,
      "v": 73
    },
    {
      "midi": 37,
      "hit": false,
      "t": 29451.681714843686,
      "d": 72.16125390625166,
      "v": 43
    },
    {
      "midi": 49,
      "hit": false,
      "t": 29451.681714843686,
      "d": 72.16125390625166,
      "v": 54
    },
    {
      "midi": 67,
      "hit": false,
      "t": 29451.681714843806,
      "d": 173.6265703124991,
      "v": 56
    },
    {
      "midi": 70,
      "hit": false,
      "t": 29451.681714843806,
      "d": 184.6155937500007,
      "v": 70
    },
    {
      "midi": 75,
      "hit": false,
      "t": 29451.681714843806,
      "d": 369.5974882812516,
      "v": 64
    },
    {
      "midi": 37,
      "hit": false,
      "t": 29636.663609374937,
      "d": 72.16125390625166,
      "v": 44
    },
    {
      "midi": 49,
      "hit": false,
      "t": 29636.663609374937,
      "d": 72.16125390625166,
      "v": 59
    },
    {
      "midi": 60,
      "hit": false,
      "t": 29636.663609375057,
      "d": 173.6265703124991,
      "v": 57
    },
    {
      "midi": 65,
      "hit": false,
      "t": 29636.663609375057,
      "d": 184.6155937500007,
      "v": 57
    },
    {
      "midi": 68,
      "hit": false,
      "t": 29636.663609375057,
      "d": 184.6155937500007,
      "v": 71
    },
    {
      "midi": 34,
      "hit": false,
      "t": 29821.645503906188,
      "d": 72.89385546874837,
      "v": 42
    },
    {
      "midi": 46,
      "hit": false,
      "t": 29821.645503906188,
      "d": 72.89385546874837,
      "v": 58
    },
    {
      "midi": 65,
      "hit": false,
      "t": 29821.645503906308,
      "d": 174.35917187499945,
      "v": 56
    },
    {
      "midi": 68,
      "hit": false,
      "t": 29821.645503906308,
      "d": 174.35917187499945,
      "v": 56
    },
    {
      "midi": 72,
      "hit": false,
      "t": 29821.645503906308,
      "d": 185.34819531250105,
      "v": 70
    },
    {
      "midi": 77,
      "hit": false,
      "t": 29821.645503906308,
      "d": 571.4292187500032,
      "v": 64
    },
    {
      "midi": 34,
      "hit": false,
      "t": 30008.825203124936,
      "d": 85.71438281250084,
      "v": 47
    },
    {
      "midi": 46,
      "hit": false,
      "t": 30008.825203124936,
      "d": 85.71438281250084,
      "v": 59
    },
    {
      "midi": 34,
      "hit": false,
      "t": 30207.360226562436,
      "d": 73.26015624999854,
      "v": 42
    },
    {
      "midi": 46,
      "hit": false,
      "t": 30207.360226562436,
      "d": 73.26015624999854,
      "v": 54
    },
    {
      "midi": 60,
      "hit": false,
      "t": 30207.36022656256,
      "d": 174.72547265624962,
      "v": 56
    },
    {
      "midi": 65,
      "hit": false,
      "t": 30207.36022656256,
      "d": 174.72547265624962,
      "v": 56
    },
    {
      "midi": 68,
      "hit": false,
      "t": 30207.36022656256,
      "d": 185.71449609375122,
      "v": 70
    },
    {
      "midi": 34,
      "hit": false,
      "t": 30393.441023437434,
      "d": 72.16125390625166,
      "v": 43
    },
    {
      "midi": 46,
      "hit": false,
      "t": 30393.441023437434,
      "d": 72.16125390625166,
      "v": 55
    },
    {
      "midi": 72,
      "hit": false,
      "t": 30393.44102343756,
      "d": 371.4289921874988,
      "v": 65
    },
    {
      "midi": 63,
      "hit": false,
      "t": 30393.44102343756,
      "d": 371.4289921874988,
      "v": 57
    },
    {
      "midi": 67,
      "hit": false,
      "t": 30393.44102343756,
      "d": 371.4289921874988,
      "v": 57
    },
    {
      "midi": 70,
      "hit": false,
      "t": 30393.44102343756,
      "d": 371.4289921874988,
      "v": 71
    },
    {
      "midi": 34,
      "hit": false,
      "t": 30578.422917968684,
      "d": 73.9927578124989,
      "v": 42
    },
    {
      "midi": 46,
      "hit": false,
      "t": 30578.422917968684,
      "d": 73.9927578124989,
      "v": 54
    },
    {
      "midi": 34,
      "hit": false,
      "t": 30765.236316406183,
      "d": 73.9927578124989,
      "v": 45
    },
    {
      "midi": 46,
      "hit": false,
      "t": 30765.236316406183,
      "d": 73.9927578124989,
      "v": 57
    },
    {
      "midi": 77,
      "hit": false,
      "t": 30765.23631640631,
      "d": 371.42899218750244,
      "v": 67
    },
    {
      "midi": 34,
      "hit": false,
      "t": 30952.04971484368,
      "d": 72.16125390625166,
      "v": 42
    },
    {
      "midi": 46,
      "hit": false,
      "t": 30952.04971484368,
      "d": 72.16125390625166,
      "v": 54
    },
    {
      "midi": 65,
      "hit": false,
      "t": 30952.04971484381,
      "d": 173.6265703124991,
      "v": 56
    },
    {
      "midi": 68,
      "hit": false,
      "t": 30952.04971484381,
      "d": 184.6155937500007,
      "v": 56
    },
    {
      "midi": 72,
      "hit": false,
      "t": 30952.04971484381,
      "d": 184.6155937500007,
      "v": 70
    },
    {
      "midi": 34,
      "hit": false,
      "t": 31137.03160937493,
      "d": 72.16125390625166,
      "v": 43
    },
    {
      "midi": 46,
      "hit": false,
      "t": 31137.03160937493,
      "d": 72.16125390625166,
      "v": 55
    },
    {
      "midi": 82,
      "hit": false,
      "t": 31137.031609375063,
      "d": 173.6265703124991,
      "v": 65
    },
    {
      "midi": 68,
      "hit": false,
      "t": 31137.031609375063,
      "d": 173.6265703124991,
      "v": 57
    },
    {
      "midi": 72,
      "hit": false,
      "t": 31137.031609375063,
      "d": 173.6265703124991,
      "v": 57
    },
    {
      "midi": 77,
      "hit": false,
      "t": 31137.031609375063,
      "d": 184.6155937500007,
      "v": 71
    },
    {
      "midi": 34,
      "hit": false,
      "t": 31322.013503906182,
      "d": 72.89385546874837,
      "v": 42
    },
    {
      "midi": 46,
      "hit": false,
      "t": 31322.013503906182,
      "d": 72.89385546874837,
      "v": 54
    },
    {
      "midi": 70,
      "hit": false,
      "t": 31322.013503906313,
      "d": 174.35917187499945,
      "v": 56
    },
    {
      "midi": 75,
      "hit": false,
      "t": 31322.013503906313,
      "d": 174.35917187499945,
      "v": 56
    },
    {
      "midi": 79,
      "hit": false,
      "t": 31322.013503906313,
      "d": 185.34819531250105,
      "v": 70
    },
    {
      "midi": 84,
      "hit": false,
      "t": 31322.013503906313,
      "d": 374.3593984375002,
      "v": 64
    },
    {
      "midi": 34,
      "hit": false,
      "t": 31509.19320312493,
      "d": 85.71438281250084,
      "v": 47
    },
    {
      "midi": 46,
      "hit": false,
      "t": 31509.19320312493,
      "d": 85.71438281250084,
      "v": 59
    },
    {
      "midi": 72,
      "hit": false,
      "t": 31509.193203125065,
      "d": 384.2495195312513,
      "v": 61
    },
    {
      "midi": 77,
      "hit": false,
      "t": 31509.193203125065,
      "d": 384.2495195312513,
      "v": 61
    },
    {
      "midi": 80,
      "hit": false,
      "t": 31509.193203125065,
      "d": 384.2495195312513,
      "v": 75
    },
    {
      "midi": 34,
      "hit": false,
      "t": 31707.72822656243,
      "d": 73.26015624999854,
      "v": 42
    },
    {
      "midi": 46,
      "hit": false,
      "t": 31707.72822656243,
      "d": 73.26015624999854,
      "v": 54
    },
    {
      "midi": 85,
      "hit": false,
      "t": 31707.728226562565,
      "d": 174.72547265624962,
      "v": 64
    },
    {
      "midi": 34,
      "hit": false,
      "t": 31893.80902343743,
      "d": 72.16125390625166,
      "v": 43
    },
    {
      "midi": 46,
      "hit": false,
      "t": 31893.80902343743,
      "d": 72.16125390625166,
      "v": 55
    },
    {
      "midi": 84,
      "hit": false,
      "t": 31893.809023437567,
      "d": 173.6265703124991,
      "v": 65
    },
    {
      "midi": 70,
      "hit": false,
      "t": 31893.809023437567,
      "d": 173.6265703124991,
      "v": 57
    },
    {
      "midi": 75,
      "hit": false,
      "t": 31893.809023437567,
      "d": 173.6265703124991,
      "v": 57
    },
    {
      "midi": 79,
      "hit": false,
      "t": 31893.809023437567,
      "d": 184.6155937500007,
      "v": 71
    },
    {
      "midi": 34,
      "hit": false,
      "t": 32078.79091796868,
      "d": 73.9927578124989,
      "v": 42
    },
    {
      "midi": 46,
      "hit": false,
      "t": 32078.79091796868,
      "d": 73.9927578124989,
      "v": 54
    },
    {
      "midi": 68,
      "hit": false,
      "t": 32078.790917968818,
      "d": 175.45807421874997,
      "v": 56
    },
    {
      "midi": 72,
      "hit": false,
      "t": 32078.790917968818,
      "d": 175.45807421874997,
      "v": 56
    },
    {
      "midi": 77,
      "hit": false,
      "t": 32078.790917968818,
      "d": 186.44709765625157,
      "v": 70
    },
    {
      "midi": 82,
      "hit": false,
      "t": 32078.790917968818,
      "d": 373.2604960937533,
      "v": 64
    },
    {
      "midi": 34,
      "hit": false,
      "t": 32265.604316406178,
      "d": 73.9927578124989,
      "v": 45
    },
    {
      "midi": 46,
      "hit": false,
      "t": 32265.604316406178,
      "d": 73.9927578124989,
      "v": 57
    },
    {
      "midi": 34,
      "hit": false,
      "t": 32452.417714843676,
      "d": 72.16125390625166,
      "v": 42
    },
    {
      "midi": 46,
      "hit": false,
      "t": 32452.417714843676,
      "d": 72.16125390625166,
      "v": 54
    },
    {
      "midi": 80,
      "hit": false,
      "t": 32452.41771484382,
      "d": 173.6265703124991,
      "v": 64
    },
    {
      "midi": 68,
      "hit": false,
      "t": 32452.41771484382,
      "d": 173.6265703124991,
      "v": 56
    },
    {
      "midi": 72,
      "hit": false,
      "t": 32452.41771484382,
      "d": 173.6265703124991,
      "v": 56
    },
    {
      "midi": 77,
      "hit": false,
      "t": 32452.41771484382,
      "d": 184.6155937500007,
      "v": 70
    },
    {
      "midi": 34,
      "hit": false,
      "t": 32637.399609374927,
      "d": 72.16125390625166,
      "v": 43
    },
    {
      "midi": 46,
      "hit": false,
      "t": 32637.399609374927,
      "d": 72.16125390625166,
      "v": 59
    },
    {
      "midi": 79,
      "hit": false,
      "t": 32637.399609375072,
      "d": 173.6265703124991,
      "v": 65
    },
    {
      "midi": 67,
      "hit": false,
      "t": 32637.399609375072,
      "d": 173.6265703124991,
      "v": 57
    },
    {
      "midi": 70,
      "hit": false,
      "t": 32637.399609375072,
      "d": 173.6265703124991,
      "v": 57
    },
    {
      "midi": 75,
      "hit": false,
      "t": 32637.399609375072,
      "d": 184.61559374999706,
      "v": 71
    },
    {
      "midi": 36,
      "hit": false,
      "t": 32822.38150390618,
      "d": 72.89385546874837,
      "v": 42
    },
    {
      "midi": 48,
      "hit": false,
      "t": 32822.38150390618,
      "d": 72.89385546874837,
      "v": 58
    },
    {
      "midi": 72,
      "hit": false,
      "t": 32822.38150390632,
      "d": 174.35917187500309,
      "v": 56
    },
    {
      "midi": 76,
      "hit": false,
      "t": 32822.38150390632,
      "d": 174.35917187500309,
      "v": 56
    },
    {
      "midi": 79,
      "hit": false,
      "t": 32822.38150390632,
      "d": 185.34819531250105,
      "v": 70
    },
    {
      "midi": 84,
      "hit": false,
      "t": 32822.38150390632,
      "d": 756.4111132812541,
      "v": 64
    },
    {
      "midi": 36,
      "hit": false,
      "t": 33009.56120312493,
      "d": 85.7143828124972,
      "v": 47
    },
    {
      "midi": 48,
      "hit": false,
      "t": 33009.56120312493,
      "d": 85.7143828124972,
      "v": 59
    },
    {
      "midi": 36,
      "hit": false,
      "t": 33208.09622656243,
      "d": 73.26015624999854,
      "v": 42
    },
    {
      "midi": 48,
      "hit": false,
      "t": 33208.09622656243,
      "d": 73.26015624999854,
      "v": 54
    },
    {
      "midi": 67,
      "hit": false,
      "t": 33208.09622656257,
      "d": 174.72547265625326,
      "v": 56
    },
    {
      "midi": 72,
      "hit": false,
      "t": 33208.09622656257,
      "d": 174.72547265625326,
      "v": 56
    },
    {
      "midi": 76,
      "hit": false,
      "t": 33208.09622656257,
      "d": 185.71449609375122,
      "v": 70
    },
    {
      "midi": 36,
      "hit": false,
      "t": 33394.177023437434,
      "d": 72.16125390624802,
      "v": 43
    },
    {
      "midi": 48,
      "hit": false,
      "t": 33394.177023437434,
      "d": 72.16125390624802,
      "v": 55
    },
    {
      "midi": 68,
      "hit": false,
      "t": 33394.17702343757,
      "d": 371.42899218750244,
      "v": 57
    },
    {
      "midi": 73,
      "hit": false,
      "t": 33394.17702343757,
      "d": 371.42899218750244,
      "v": 57
    },
    {
      "midi": 77,
      "hit": false,
      "t": 33394.17702343757,
      "d": 371.42899218750244,
      "v": 71
    },
    {
      "midi": 36,
      "hit": false,
      "t": 33579.158917968685,
      "d": 73.9927578124989,
      "v": 42
    },
    {
      "midi": 48,
      "hit": false,
      "t": 33579.158917968685,
      "d": 73.9927578124989,
      "v": 54
    },
    {
      "midi": 82,
      "hit": false,
      "t": 33579.15891796882,
      "d": 558.2423906250042,
      "v": 64
    },
    {
      "midi": 36,
      "hit": false,
      "t": 33765.97231640619,
      "d": 73.9927578124989,
      "v": 45
    },
    {
      "midi": 48,
      "hit": false,
      "t": 33765.97231640619,
      "d": 73.9927578124989,
      "v": 57
    },
    {
      "midi": 67,
      "hit": false,
      "t": 33765.972316406325,
      "d": 371.42899218750244,
      "v": 59
    },
    {
      "midi": 72,
      "hit": false,
      "t": 33765.972316406325,
      "d": 371.42899218750244,
      "v": 59
    },
    {
      "midi": 76,
      "hit": false,
      "t": 33765.972316406325,
      "d": 371.42899218750244,
      "v": 73
    },
    {
      "midi": 36,
      "hit": false,
      "t": 33952.78571484369,
      "d": 72.16125390624802,
      "v": 42
    },
    {
      "midi": 48,
      "hit": false,
      "t": 33952.78571484369,
      "d": 72.16125390624802,
      "v": 54
    },
    {
      "midi": 36,
      "hit": false,
      "t": 34137.76760937494,
      "d": 72.16125390624802,
      "v": 43
    },
    {
      "midi": 48,
      "hit": false,
      "t": 34137.76760937494,
      "d": 72.16125390624802,
      "v": 55
    },
    {
      "midi": 77,
      "hit": false,
      "t": 34137.76760937508,
      "d": 184.6155937500007,
      "v": 59
    },
    {
      "midi": 68,
      "hit": false,
      "t": 34137.76760937508,
      "d": 195.97091796874884,
      "v": 45
    },
    {
      "midi": 73,
      "hit": false,
      "t": 34137.76760937508,
      "d": 195.97091796874884,
      "v": 45
    },
    {
      "midi": 80,
      "hit": false,
      "t": 34137.76760937508,
      "d": 370.3300898437519,
      "v": 65
    },
    {
      "midi": 36,
      "hit": false,
      "t": 34322.74950390619,
      "d": 72.89385546874837,
      "v": 42
    },
    {
      "midi": 48,
      "hit": false,
      "t": 34322.74950390619,
      "d": 72.89385546874837,
      "v": 54
    },
    {
      "midi": 76,
      "hit": false,
      "t": 34322.74950390633,
      "d": 185.34819531250105,
      "v": 58
    },
    {
      "midi": 67,
      "hit": false,
      "t": 34322.74950390633,
      "d": 196.70351953124919,
      "v": 44
    },
    {
      "midi": 72,
      "hit": false,
      "t": 34322.74950390633,
      "d": 196.70351953124919,
      "v": 44
    },
    {
      "midi": 36,
      "hit": false,
      "t": 34509.92920312494,
      "d": 85.7143828124972,
      "v": 47
    },
    {
      "midi": 48,
      "hit": false,
      "t": 34509.92920312494,
      "d": 85.7143828124972,
      "v": 59
    },
    {
      "midi": 79,
      "hit": false,
      "t": 34509.92920312508,
      "d": 384.2495195312513,
      "v": 69
    },
    {
      "midi": 36,
      "hit": false,
      "t": 34708.46422656244,
      "d": 73.26015624999854,
      "v": 42
    },
    {
      "midi": 48,
      "hit": false,
      "t": 34708.46422656244,
      "d": 73.26015624999854,
      "v": 54
    },
    {
      "midi": 67,
      "hit": false,
      "t": 34708.46422656258,
      "d": 185.71449609375122,
      "v": 44
    },
    {
      "midi": 76,
      "hit": false,
      "t": 34708.46422656258,
      "d": 185.71449609375122,
      "v": 50
    },
    {
      "midi": 72,
      "hit": false,
      "t": 34708.46422656258,
      "d": 197.06982031249936,
      "v": 55
    },
    {
      "midi": 36,
      "hit": false,
      "t": 34894.545023437444,
      "d": 72.16125390624802,
      "v": 43
    },
    {
      "midi": 48,
      "hit": false,
      "t": 34894.545023437444,
      "d": 72.16125390624802,
      "v": 55
    },
    {
      "midi": 80,
      "hit": false,
      "t": 34894.54502343758,
      "d": 173.62657031249546,
      "v": 65
    },
    {
      "midi": 67,
      "hit": false,
      "t": 34894.54502343758,
      "d": 184.61559374999342,
      "v": 45
    },
    {
      "midi": 70,
      "hit": false,
      "t": 34894.54502343758,
      "d": 184.61559374999342,
      "v": 56
    },
    {
      "midi": 76,
      "hit": false,
      "t": 34894.54502343758,
      "d": 184.61559374999342,
      "v": 51
    },
    {
      "midi": 36,
      "hit": false,
      "t": 35079.526917968695,
      "d": 73.9927578124989,
      "v": 42
    },
    {
      "midi": 48,
      "hit": false,
      "t": 35079.526917968695,
      "d": 73.9927578124989,
      "v": 54
    },
    {
      "midi": 67,
      "hit": false,
      "t": 35079.526917968826,
      "d": 186.44709765625157,
      "v": 44
    },
    {
      "midi": 70,
      "hit": false,
      "t": 35079.526917968826,
      "d": 186.44709765625157,
      "v": 44
    },
    {
      "midi": 76,
      "hit": false,
      "t": 35079.526917968826,
      "d": 186.44709765625157,
      "v": 54
    },
    {
      "midi": 79,
      "hit": false,
      "t": 35079.526917968826,
      "d": 928.938781249999,
      "v": 64
    },
    {
      "midi": 36,
      "hit": false,
      "t": 35266.3403164062,
      "d": 73.9927578124989,
      "v": 45
    },
    {
      "midi": 48,
      "hit": false,
      "t": 35266.3403164062,
      "d": 73.9927578124989,
      "v": 57
    },
    {
      "midi": 67,
      "hit": false,
      "t": 35266.34031640633,
      "d": 186.44709765625157,
      "v": 47
    },
    {
      "midi": 70,
      "hit": false,
      "t": 35266.34031640633,
      "d": 186.44709765625157,
      "v": 47
    },
    {
      "midi": 76,
      "hit": false,
      "t": 35266.34031640633,
      "d": 186.44709765625157,
      "v": 57
    },
    {
      "midi": 36,
      "hit": false,
      "t": 35453.1537148437,
      "d": 72.16125390624802,
      "v": 42
    },
    {
      "midi": 48,
      "hit": false,
      "t": 35453.1537148437,
      "d": 72.16125390624802,
      "v": 54
    },
    {
      "midi": 76,
      "hit": false,
      "t": 35453.15371484383,
      "d": 184.6155937500007,
      "v": 54
    },
    {
      "midi": 67,
      "hit": false,
      "t": 35453.15371484383,
      "d": 195.97091796874884,
      "v": 44
    },
    {
      "midi": 70,
      "hit": false,
      "t": 35453.15371484383,
      "d": 195.97091796874884,
      "v": 44
    },
    {
      "midi": 36,
      "hit": false,
      "t": 35638.13560937495,
      "d": 370.3300898437519,
      "v": 55
    },
    {
      "midi": 48,
      "hit": false,
      "t": 35638.13560937495,
      "d": 370.3300898437519,
      "v": 71
    },
    {
      "midi": 49,
      "hit": false,
      "t": 36010.29720312495,
      "d": 187.17969921875192,
      "v": 69
    },
    {
      "midi": 41,
      "hit": false,
      "t": 36010.29720312495,
      "d": 569.2314140625022,
      "v": 61
    },
    {
      "midi": 61,
      "hit": false,
      "t": 36010.297203125076,
      "d": 187.17969921875192,
      "v": 69
    },
    {
      "midi": 53,
      "hit": false,
      "t": 36208.83222656245,
      "d": 174.72547265625326,
      "v": 64
    },
    {
      "midi": 65,
      "hit": false,
      "t": 36208.832226562576,
      "d": 174.72547265625326,
      "v": 64
    },
    {
      "midi": 56,
      "hit": false,
      "t": 36394.91302343745,
      "d": 173.62657031250274,
      "v": 65
    },
    {
      "midi": 68,
      "hit": false,
      "t": 36394.91302343758,
      "d": 173.62657031250274,
      "v": 65
    },
    {
      "midi": 43,
      "hit": false,
      "t": 36579.894917968704,
      "d": 928.938781249999,
      "v": 56
    },
    {
      "midi": 55,
      "hit": false,
      "t": 36579.894917968704,
      "d": 928.938781249999,
      "v": 70
    },
    {
      "midi": 67,
      "hit": false,
      "t": 36579.89491796883,
      "d": 928.938781249999,
      "v": 64
    },
    {
      "midi": 60,
      "hit": false,
      "t": 36579.89491796883,
      "d": 928.938781249999,
      "v": 56
    },
    {
      "midi": 72,
      "hit": false,
      "t": 36579.89491796883,
      "d": 928.938781249999,
      "v": 66
    },
    {
      "midi": 49,
      "hit": false,
      "t": 37510.665203124954,
      "d": 187.17969921875192,
      "v": 69
    },
    {
      "midi": 44,
      "hit": false,
      "t": 37510.665203124954,
      "d": 569.2314140625022,
      "v": 61
    },
    {
      "midi": 61,
      "hit": false,
      "t": 37510.66520312508,
      "d": 187.17969921875192,
      "v": 69
    },
    {
      "midi": 53,
      "hit": false,
      "t": 37709.200226562454,
      "d": 174.72547265625326,
      "v": 64
    },
    {
      "midi": 65,
      "hit": false,
      "t": 37709.20022656258,
      "d": 174.72547265625326,
      "v": 64
    },
    {
      "midi": 56,
      "hit": false,
      "t": 37895.281023437456,
      "d": 173.62657031250274,
      "v": 65
    },
    {
      "midi": 68,
      "hit": false,
      "t": 37895.28102343758,
      "d": 173.62657031250274,
      "v": 65
    },
    {
      "midi": 46,
      "hit": false,
      "t": 38080.26291796871,
      "d": 373.2604960937533,
      "v": 56
    },
    {
      "midi": 58,
      "hit": false,
      "t": 38080.26291796871,
      "d": 373.2604960937533,
      "v": 70
    },
    {
      "midi": 70,
      "hit": false,
      "t": 38080.26291796883,
      "d": 373.2604960937533,
      "v": 64
    },
    {
      "midi": 60,
      "hit": false,
      "t": 38080.26291796883,
      "d": 373.2604960937533,
      "v": 56
    },
    {
      "midi": 72,
      "hit": false,
      "t": 38080.26291796883,
      "d": 373.2604960937533,
      "v": 70
    },
    {
      "midi": 44,
      "hit": false,
      "t": 38453.88971484371,
      "d": 173.62657031250274,
      "v": 56
    },
    {
      "midi": 56,
      "hit": false,
      "t": 38453.88971484371,
      "d": 184.6155937500007,
      "v": 70
    },
    {
      "midi": 68,
      "hit": false,
      "t": 38453.889714843834,
      "d": 173.62657031250274,
      "v": 64
    },
    {
      "midi": 70,
      "hit": false,
      "t": 38453.889714843834,
      "d": 173.62657031250274,
      "v": 64
    },
    {
      "midi": 43,
      "hit": false,
      "t": 38638.87160937496,
      "d": 173.62657031250274,
      "v": 57
    },
    {
      "midi": 55,
      "hit": false,
      "t": 38638.87160937496,
      "d": 184.6155937500007,
      "v": 71
    },
    {
      "midi": 68,
      "hit": false,
      "t": 38638.871609375085,
      "d": 88.27848828124843,
      "v": 65
    },
    {
      "midi": 67,
      "hit": false,
      "t": 38638.871609375085,
      "d": 173.62657031250274,
      "v": 65
    },
    {
      "midi": 70,
      "hit": false,
      "t": 38733.010910156336,
      "d": 84.98178125000413,
      "v": 64
    },
    {
      "midi": 41,
      "hit": false,
      "t": 38823.85350390621,
      "d": 174.35917187500309,
      "v": 56
    },
    {
      "midi": 53,
      "hit": false,
      "t": 38823.85350390621,
      "d": 185.34819531250105,
      "v": 70
    },
    {
      "midi": 65,
      "hit": false,
      "t": 38823.85350390634,
      "d": 174.35917187500309,
      "v": 64
    },
    {
      "midi": 68,
      "hit": false,
      "t": 38823.85350390634,
      "d": 174.35917187500309,
      "v": 64
    },
    {
      "midi": 46,
      "hit": false,
      "t": 39011.03320312496,
      "d": 187.17969921875192,
      "v": 69
    },
    {
      "midi": 37,
      "hit": false,
      "t": 39011.03320312496,
      "d": 569.2314140625022,
      "v": 60
    },
    {
      "midi": 58,
      "hit": false,
      "t": 39011.033203125095,
      "d": 187.17969921875192,
      "v": 69
    },
    {
      "midi": 49,
      "hit": false,
      "t": 39209.568226562464,
      "d": 174.72547265625326,
      "v": 64
    },
    {
      "midi": 61,
      "hit": false,
      "t": 39209.568226562595,
      "d": 174.72547265625326,
      "v": 64
    },
    {
      "midi": 53,
      "hit": false,
      "t": 39395.649023437465,
      "d": 173.62657031250274,
      "v": 65
    },
    {
      "midi": 65,
      "hit": false,
      "t": 39395.649023437596,
      "d": 173.62657031250274,
      "v": 65
    },
    {
      "midi": 56,
      "hit": false,
      "t": 39580.630917968716,
      "d": 928.938781249999,
      "v": 64
    },
    {
      "midi": 48,
      "hit": false,
      "t": 39580.630917968716,
      "d": 2058.6103906250064,
      "v": 56
    },
    {
      "midi": 60,
      "hit": false,
      "t": 39580.630917968716,
      "d": 2058.6103906250064,
      "v": 70
    },
    {
      "midi": 68,
      "hit": false,
      "t": 39580.63091796885,
      "d": 928.938781249999,
      "v": 64
    },
    {
      "midi": 72,
      "hit": false,
      "t": 39580.63091796885,
      "d": 2058.6103906250064,
      "v": 64
    },
    {
      "midi": 46,
      "hit": false,
      "t": 40511.401203124966,
      "d": 187.17969921875192,
      "v": 69
    },
    {
      "midi": 58,
      "hit": false,
      "t": 40511.4012031251,
      "d": 187.17969921875192,
      "v": 69
    },
    {
      "midi": 49,
      "hit": false,
      "t": 40709.936226562466,
      "d": 174.72547265625326,
      "v": 64
    },
    {
      "midi": 61,
      "hit": false,
      "t": 40709.9362265626,
      "d": 174.72547265625326,
      "v": 64
    },
    {
      "midi": 53,
      "hit": false,
      "t": 40896.01702343747,
      "d": 173.62657031250274,
      "v": 65
    },
    {
      "midi": 65,
      "hit": false,
      "t": 40896.0170234376,
      "d": 173.62657031250274,
      "v": 65
    },
    {
      "midi": 56,
      "hit": false,
      "t": 41080.99891796872,
      "d": 175.4580742187536,
      "v": 64
    },
    {
      "midi": 68,
      "hit": false,
      "t": 41080.99891796885,
      "d": 175.4580742187536,
      "v": 64
    },
    {
      "midi": 67,
      "hit": false,
      "t": 41454.62571484385,
      "d": 173.62657031250274,
      "v": 64
    },
    {
      "midi": 46,
      "hit": false,
      "t": 41639.60760937497,
      "d": 173.62657031250274,
      "v": 57
    },
    {
      "midi": 58,
      "hit": false,
      "t": 41639.60760937497,
      "d": 184.6155937500007,
      "v": 71
    },
    {
      "midi": 65,
      "hit": false,
      "t": 41639.6076093751,
      "d": 88.27848828124843,
      "v": 65
    },
    {
      "midi": 70,
      "hit": false,
      "t": 41639.6076093751,
      "d": 173.62657031250274,
      "v": 65
    },
    {
      "midi": 67,
      "hit": false,
      "t": 41733.746910156355,
      "d": 84.98178125000413,
      "v": 64
    },
    {
      "midi": 48,
      "hit": false,
      "t": 41824.58950390622,
      "d": 3186.0841953125127,
      "v": 56
    },
    {
      "midi": 60,
      "hit": false,
      "t": 41824.58950390622,
      "d": 3186.0841953125127,
      "v": 70
    },
    {
      "midi": 61,
      "hit": false,
      "t": 41824.58950390636,
      "d": 196.70351953124919,
      "v": 52
    },
    {
      "midi": 72,
      "hit": false,
      "t": 41824.58950390636,
      "d": 3186.0841953125055,
      "v": 64
    },
    {
      "midi": 41,
      "hit": false,
      "t": 42011.769203124975,
      "d": 198.16872265624988,
      "v": 49
    },
    {
      "midi": 53,
      "hit": false,
      "t": 42011.769203124975,
      "d": 198.16872265624988,
      "v": 59
    },
    {
      "midi": 53,
      "hit": false,
      "t": 42210.304226562475,
      "d": 185.71449609375122,
      "v": 54
    },
    {
      "midi": 41,
      "hit": false,
      "t": 42210.304226562475,
      "d": 197.06982031249936,
      "v": 44
    },
    {
      "midi": 70,
      "hit": false,
      "t": 42210.30422656261,
      "d": 185.71449609375122,
      "v": 58
    },
    {
      "midi": 61,
      "hit": false,
      "t": 42210.30422656261,
      "d": 197.06982031249936,
      "v": 44
    },
    {
      "midi": 67,
      "hit": false,
      "t": 42210.30422656261,
      "d": 197.06982031249936,
      "v": 44
    },
    {
      "midi": 60,
      "hit": false,
      "t": 42396.385023437615,
      "d": 371.42899218749517,
      "v": 57
    },
    {
      "midi": 65,
      "hit": false,
      "t": 42396.385023437615,
      "d": 371.42899218749517,
      "v": 57
    },
    {
      "midi": 68,
      "hit": false,
      "t": 42396.385023437615,
      "d": 371.42899218749517,
      "v": 71
    },
    {
      "midi": 41,
      "hit": false,
      "t": 42581.36691796873,
      "d": 186.44709765625157,
      "v": 44
    },
    {
      "midi": 53,
      "hit": false,
      "t": 42581.36691796873,
      "d": 186.44709765625157,
      "v": 54
    },
    {
      "midi": 41,
      "hit": false,
      "t": 42768.18031640623,
      "d": 371.42899218750244,
      "v": 59
    },
    {
      "midi": 53,
      "hit": false,
      "t": 42768.18031640623,
      "d": 371.42899218750244,
      "v": 69
    },
    {
      "midi": 61,
      "hit": false,
      "t": 42954.99371484386,
      "d": 184.6155937500007,
      "v": 56
    },
    {
      "midi": 67,
      "hit": false,
      "t": 42954.99371484386,
      "d": 184.6155937500007,
      "v": 56
    },
    {
      "midi": 70,
      "hit": false,
      "t": 42954.99371484386,
      "d": 184.6155937500007,
      "v": 70
    },
    {
      "midi": 61,
      "hit": false,
      "t": 43139.97560937511,
      "d": 173.62657031250274,
      "v": 57
    },
    {
      "midi": 67,
      "hit": false,
      "t": 43139.97560937511,
      "d": 173.62657031250274,
      "v": 57
    },
    {
      "midi": 70,
      "hit": false,
      "t": 43139.97560937511,
      "d": 184.6155937500007,
      "v": 71
    },
    {
      "midi": 41,
      "hit": false,
      "t": 43324.95750390623,
      "d": 185.34819531250105,
      "v": 56
    },
    {
      "midi": 53,
      "hit": false,
      "t": 43324.95750390623,
      "d": 185.34819531250105,
      "v": 66
    },
    {
      "midi": 60,
      "hit": false,
      "t": 43324.957503906364,
      "d": 174.35917187500309,
      "v": 56
    },
    {
      "midi": 65,
      "hit": false,
      "t": 43324.957503906364,
      "d": 174.35917187500309,
      "v": 56
    },
    {
      "midi": 68,
      "hit": false,
      "t": 43324.957503906364,
      "d": 185.34819531250105,
      "v": 70
    },
    {
      "midi": 41,
      "hit": false,
      "t": 43512.137203124985,
      "d": 384.2495195312513,
      "v": 61
    },
    {
      "midi": 53,
      "hit": false,
      "t": 43512.137203124985,
      "d": 384.2495195312513,
      "v": 71
    },
    {
      "midi": 60,
      "hit": false,
      "t": 43710.672226562616,
      "d": 174.72547265625326,
      "v": 56
    },
    {
      "midi": 65,
      "hit": false,
      "t": 43710.672226562616,
      "d": 174.72547265625326,
      "v": 56
    },
    {
      "midi": 68,
      "hit": false,
      "t": 43710.672226562616,
      "d": 185.71449609375122,
      "v": 66
    },
    {
      "midi": 41,
      "hit": false,
      "t": 44081.73491796874,
      "d": 186.44709765625157,
      "v": 44
    },
    {
      "midi": 53,
      "hit": false,
      "t": 44081.73491796874,
      "d": 186.44709765625157,
      "v": 54
    },
    {
      "midi": 41,
      "hit": false,
      "t": 44268.54831640624,
      "d": 186.44709765625157,
      "v": 47
    },
    {
      "midi": 53,
      "hit": false,
      "t": 44268.54831640624,
      "d": 186.44709765625157,
      "v": 57
    },
    {
      "midi": 53,
      "hit": false,
      "t": 44455.36171484374,
      "d": 184.6155937500007,
      "v": 54
    },
    {
      "midi": 41,
      "hit": false,
      "t": 44455.36171484374,
      "d": 195.97091796874884,
      "v": 44
    },
    {
      "midi": 60,
      "hit": false,
      "t": 44455.361714843864,
      "d": 184.6155937500007,
      "v": 56
    },
    {
      "midi": 65,
      "hit": false,
      "t": 44455.361714843864,
      "d": 184.6155937500007,
      "v": 56
    },
    {
      "midi": 68,
      "hit": false,
      "t": 44455.361714843864,
      "d": 184.6155937500007,
      "v": 66
    },
    {
      "midi": 60,
      "hit": false,
      "t": 44640.343609375115,
      "d": 370.3300898437519,
      "v": 57
    },
    {
      "midi": 65,
      "hit": false,
      "t": 44640.343609375115,
      "d": 370.3300898437519,
      "v": 57
    },
    {
      "midi": 68,
      "hit": false,
      "t": 44640.343609375115,
      "d": 370.3300898437519,
      "v": 67
    },
    {
      "midi": 49,
      "hit": false,
      "t": 45012.50520312499,
      "d": 187.17969921875192,
      "v": 69
    },
    {
      "midi": 41,
      "hit": false,
      "t": 45012.50520312499,
      "d": 569.2314140625022,
      "v": 61
    },
    {
      "midi": 61,
      "hit": false,
      "t": 45012.50520312512,
      "d": 187.17969921875192,
      "v": 69
    },
    {
      "midi": 53,
      "hit": false,
      "t": 45211.04022656249,
      "d": 174.72547265625326,
      "v": 64
    },
    {
      "midi": 65,
      "hit": false,
      "t": 45211.04022656262,
      "d": 174.72547265625326,
      "v": 64
    },
    {
      "midi": 56,
      "hit": false,
      "t": 45397.12102343749,
      "d": 173.62657031250274,
      "v": 65
    },
    {
      "midi": 68,
      "hit": false,
      "t": 45397.12102343762,
      "d": 173.62657031250274,
      "v": 65
    },
    {
      "midi": 43,
      "hit": false,
      "t": 45582.10291796874,
      "d": 928.938781249999,
      "v": 56
    },
    {
      "midi": 55,
      "hit": false,
      "t": 45582.10291796874,
      "d": 928.938781249999,
      "v": 70
    },
    {
      "midi": 67,
      "hit": false,
      "t": 45582.10291796887,
      "d": 928.938781249999,
      "v": 64
    },
    {
      "midi": 60,
      "hit": false,
      "t": 45582.10291796887,
      "d": 928.938781249999,
      "v": 56
    },
    {
      "midi": 72,
      "hit": false,
      "t": 45582.10291796887,
      "d": 928.938781249999,
      "v": 66
    },
    {
      "midi": 49,
      "hit": false,
      "t": 46512.87320312499,
      "d": 187.17969921875192,
      "v": 69
    },
    {
      "midi": 44,
      "hit": false,
      "t": 46512.87320312499,
      "d": 569.2314140625022,
      "v": 61
    },
    {
      "midi": 61,
      "hit": false,
      "t": 46512.87320312512,
      "d": 187.17969921875192,
      "v": 69
    },
    {
      "midi": 53,
      "hit": false,
      "t": 46711.40822656249,
      "d": 174.72547265625326,
      "v": 64
    },
    {
      "midi": 65,
      "hit": false,
      "t": 46711.40822656262,
      "d": 174.72547265625326,
      "v": 64
    },
    {
      "midi": 56,
      "hit": false,
      "t": 46897.48902343749,
      "d": 173.62657031250274,
      "v": 65
    },
    {
      "midi": 68,
      "hit": false,
      "t": 46897.48902343762,
      "d": 173.62657031250274,
      "v": 65
    },
    {
      "midi": 46,
      "hit": false,
      "t": 47082.47091796874,
      "d": 373.2604960937533,
      "v": 56
    },
    {
      "midi": 58,
      "hit": false,
      "t": 47082.47091796874,
      "d": 373.2604960937533,
      "v": 70
    },
    {
      "midi": 70,
      "hit": false,
      "t": 47082.47091796887,
      "d": 373.2604960937533,
      "v": 64
    },
    {
      "midi": 60,
      "hit": false,
      "t": 47082.47091796887,
      "d": 373.2604960937533,
      "v": 56
    },
    {
      "midi": 72,
      "hit": false,
      "t": 47082.47091796887,
      "d": 373.2604960937533,
      "v": 70
    },
    {
      "midi": 44,
      "hit": false,
      "t": 47456.097714843745,
      "d": 173.62657031250274,
      "v": 56
    },
    {
      "midi": 56,
      "hit": false,
      "t": 47456.097714843745,
      "d": 184.6155937500007,
      "v": 70
    },
    {
      "midi": 68,
      "hit": false,
      "t": 47456.097714843876,
      "d": 173.62657031250274,
      "v": 64
    },
    {
      "midi": 70,
      "hit": false,
      "t": 47456.097714843876,
      "d": 173.62657031250274,
      "v": 64
    },
    {
      "midi": 43,
      "hit": false,
      "t": 47641.079609374996,
      "d": 173.62657031250274,
      "v": 57
    },
    {
      "midi": 55,
      "hit": false,
      "t": 47641.079609374996,
      "d": 184.6155937500007,
      "v": 71
    },
    {
      "midi": 68,
      "hit": false,
      "t": 47641.07960937513,
      "d": 88.27848828124843,
      "v": 65
    },
    {
      "midi": 67,
      "hit": false,
      "t": 47641.07960937513,
      "d": 173.62657031250274,
      "v": 65
    },
    {
      "midi": 70,
      "hit": false,
      "t": 47735.21891015638,
      "d": 84.98178125000413,
      "v": 64
    },
    {
      "midi": 41,
      "hit": false,
      "t": 47826.06150390625,
      "d": 174.35917187500309,
      "v": 56
    },
    {
      "midi": 53,
      "hit": false,
      "t": 47826.06150390625,
      "d": 185.34819531250105,
      "v": 70
    },
    {
      "midi": 65,
      "hit": false,
      "t": 47826.061503906385,
      "d": 174.35917187500309,
      "v": 64
    },
    {
      "midi": 68,
      "hit": false,
      "t": 47826.061503906385,
      "d": 174.35917187500309,
      "v": 64
    },
    {
      "midi": 51,
      "hit": false,
      "t": 48013.241203125,
      "d": 187.17969921875192,
      "v": 69
    },
    {
      "midi": 37,
      "hit": false,
      "t": 48013.241203125,
      "d": 569.2314140625022,
      "v": 60
    },
    {
      "midi": 49,
      "hit": false,
      "t": 48013.241203125,
      "d": 569.2314140625022,
      "v": 75
    },
    {
      "midi": 63,
      "hit": false,
      "t": 48013.24120312514,
      "d": 187.17969921875192,
      "v": 69
    },
    {
      "midi": 61,
      "hit": false,
      "t": 48013.24120312514,
      "d": 569.2314140625022,
      "v": 69
    },
    {
      "midi": 55,
      "hit": false,
      "t": 48211.7762265625,
      "d": 174.72547265625326,
      "v": 64
    },
    {
      "midi": 67,
      "hit": false,
      "t": 48211.77622656264,
      "d": 174.72547265625326,
      "v": 64
    },
    {
      "midi": 58,
      "hit": false,
      "t": 48397.8570234375,
      "d": 173.62657031250274,
      "v": 65
    },
    {
      "midi": 70,
      "hit": false,
      "t": 48397.85702343764,
      "d": 173.62657031250274,
      "v": 65
    },
    {
      "midi": 48,
      "hit": false,
      "t": 48582.83891796875,
      "d": 2058.6103906250064,
      "v": 56
    },
    {
      "midi": 60,
      "hit": false,
      "t": 48582.83891796875,
      "d": 2058.6103906250064,
      "v": 70
    },
    {
      "midi": 63,
      "hit": false,
      "t": 48582.83891796889,
      "d": 928.938781249999,
      "v": 56
    },
    {
      "midi": 75,
      "hit": false,
      "t": 48582.83891796889,
      "d": 928.938781249999,
      "v": 66
    },
    {
      "midi": 72,
      "hit": false,
      "t": 48582.83891796889,
      "d": 2058.6103906250064,
      "v": 64
    },
    {
      "midi": 51,
      "hit": false,
      "t": 49513.609203125,
      "d": 187.17969921875192,
      "v": 69
    },
    {
      "midi": 63,
      "hit": false,
      "t": 49513.60920312514,
      "d": 187.17969921875192,
      "v": 69
    },
    {
      "midi": 55,
      "hit": false,
      "t": 49712.1442265625,
      "d": 174.72547265625326,
      "v": 64
    },
    {
      "midi": 67,
      "hit": false,
      "t": 49712.14422656264,
      "d": 174.72547265625326,
      "v": 64
    },
    {
      "midi": 58,
      "hit": false,
      "t": 49898.2250234375,
      "d": 173.62657031250274,
      "v": 65
    },
    {
      "midi": 70,
      "hit": false,
      "t": 49898.22502343764,
      "d": 173.62657031250274,
      "v": 65
    },
    {
      "midi": 63,
      "hit": false,
      "t": 50083.20691796889,
      "d": 373.2604960937533,
      "v": 56
    },
    {
      "midi": 75,
      "hit": false,
      "t": 50083.20691796889,
      "d": 373.2604960937533,
      "v": 70
    },
    {
      "midi": 73,
      "hit": false,
      "t": 50456.833714843895,
      "d": 173.62657031250274,
      "v": 64
    },
    {
      "midi": 46,
      "hit": false,
      "t": 50641.81560937501,
      "d": 173.62657031250274,
      "v": 57
    },
    {
      "midi": 58,
      "hit": false,
      "t": 50641.81560937501,
      "d": 184.6155937500007,
      "v": 71
    },
    {
      "midi": 72,
      "hit": false,
      "t": 50641.815609375146,
      "d": 88.27848828124843,
      "v": 65
    },
    {
      "midi": 70,
      "hit": false,
      "t": 50641.815609375146,
      "d": 173.62657031250274,
      "v": 65
    },
    {
      "midi": 73,
      "hit": false,
      "t": 50735.9549101564,
      "d": 84.98178125000413,
      "v": 64
    },
    {
      "midi": 61,
      "hit": false,
      "t": 50826.797503906404,
      "d": 196.70351953124919,
      "v": 52
    },
    {
      "midi": 72,
      "hit": false,
      "t": 50826.797503906404,
      "d": 3186.0841953125055,
      "v": 64
    },
    {
      "midi": 68,
      "hit": false,
      "t": 51212.512226562656,
      "d": 185.71449609375122,
      "v": 58
    },
    {
      "midi": 61,
      "hit": false,
      "t": 51212.512226562656,
      "d": 197.06982031249936,
      "v": 44
    },
    {
      "midi": 65,
      "hit": false,
      "t": 51212.512226562656,
      "d": 197.06982031249936,
      "v": 44
    },
    {
      "midi": 36,
      "hit": false,
      "t": 51398.59302343751,
      "d": 173.62657031250274,
      "v": 55
    },
    {
      "midi": 48,
      "hit": false,
      "t": 51398.59302343751,
      "d": 184.6155937500007,
      "v": 71
    },
    {
      "midi": 60,
      "hit": false,
      "t": 51398.59302343766,
      "d": 371.42899218749517,
      "v": 57
    },
    {
      "midi": 64,
      "hit": false,
      "t": 51398.59302343766,
      "d": 371.42899218749517,
      "v": 57
    },
    {
      "midi": 67,
      "hit": false,
      "t": 51398.59302343766,
      "d": 371.42899218749517,
      "v": 71
    },
    {
      "midi": 41,
      "hit": false,
      "t": 51583.57491796876,
      "d": 175.4580742187536,
      "v": 56
    },
    {
      "midi": 53,
      "hit": false,
      "t": 51583.57491796876,
      "d": 186.44709765625157,
      "v": 70
    },
    {
      "midi": 48,
      "hit": false,
      "t": 51770.388316406264,
      "d": 175.4580742187536,
      "v": 59
    },
    {
      "midi": 60,
      "hit": false,
      "t": 51770.388316406264,
      "d": 186.44709765625157,
      "v": 73
    },
    {
      "midi": 46,
      "hit": false,
      "t": 51957.201714843766,
      "d": 173.62657031250274,
      "v": 56
    },
    {
      "midi": 58,
      "hit": false,
      "t": 51957.201714843766,
      "d": 184.6155937500007,
      "v": 70
    },
    {
      "midi": 61,
      "hit": false,
      "t": 51957.201714843904,
      "d": 184.6155937500007,
      "v": 56
    },
    {
      "midi": 65,
      "hit": false,
      "t": 51957.201714843904,
      "d": 184.6155937500007,
      "v": 56
    },
    {
      "midi": 68,
      "hit": false,
      "t": 51957.201714843904,
      "d": 184.6155937500007,
      "v": 70
    },
    {
      "midi": 43,
      "hit": false,
      "t": 52142.18360937502,
      "d": 173.62657031250274,
      "v": 57
    },
    {
      "midi": 55,
      "hit": false,
      "t": 52142.18360937502,
      "d": 184.6155937500007,
      "v": 71
    },
    {
      "midi": 61,
      "hit": false,
      "t": 52142.183609375155,
      "d": 173.62657031250274,
      "v": 57
    },
    {
      "midi": 65,
      "hit": false,
      "t": 52142.183609375155,
      "d": 173.62657031250274,
      "v": 57
    },
    {
      "midi": 68,
      "hit": false,
      "t": 52142.183609375155,
      "d": 184.6155937500007,
      "v": 71
    },
    {
      "midi": 48,
      "hit": false,
      "t": 52327.16550390627,
      "d": 174.35917187500309,
      "v": 64
    },
    {
      "midi": 60,
      "hit": false,
      "t": 52327.165503906406,
      "d": 174.35917187500309,
      "v": 56
    },
    {
      "midi": 64,
      "hit": false,
      "t": 52327.165503906406,
      "d": 174.35917187500309,
      "v": 56
    },
    {
      "midi": 67,
      "hit": false,
      "t": 52327.165503906406,
      "d": 185.34819531250105,
      "v": 70
    },
    {
      "midi": 43,
      "hit": false,
      "t": 52712.88022656252,
      "d": 174.72547265625326,
      "v": 56
    },
    {
      "midi": 55,
      "hit": false,
      "t": 52712.88022656252,
      "d": 185.71449609375122,
      "v": 70
    },
    {
      "midi": 60,
      "hit": false,
      "t": 52712.88022656266,
      "d": 174.72547265625326,
      "v": 56
    },
    {
      "midi": 64,
      "hit": false,
      "t": 52712.88022656266,
      "d": 174.72547265625326,
      "v": 56
    },
    {
      "midi": 67,
      "hit": false,
      "t": 52712.88022656266,
      "d": 185.71449609375122,
      "v": 66
    },
    {
      "midi": 48,
      "hit": false,
      "t": 53083.94291796877,
      "d": 175.4580742187536,
      "v": 56
    },
    {
      "midi": 60,
      "hit": false,
      "t": 53083.94291796877,
      "d": 186.44709765625157,
      "v": 70
    },
    {
      "midi": 46,
      "hit": false,
      "t": 53270.756316406274,
      "d": 175.4580742187536,
      "v": 59
    },
    {
      "midi": 58,
      "hit": false,
      "t": 53270.756316406274,
      "d": 186.44709765625157,
      "v": 73
    },
    {
      "midi": 43,
      "hit": false,
      "t": 53457.569714843776,
      "d": 173.62657031250274,
      "v": 56
    },
    {
      "midi": 55,
      "hit": false,
      "t": 53457.569714843776,
      "d": 184.6155937500007,
      "v": 70
    },
    {
      "midi": 60,
      "hit": false,
      "t": 53457.56971484391,
      "d": 184.6155937500007,
      "v": 56
    },
    {
      "midi": 64,
      "hit": false,
      "t": 53457.56971484391,
      "d": 184.6155937500007,
      "v": 56
    },
    {
      "midi": 67,
      "hit": false,
      "t": 53457.56971484391,
      "d": 184.6155937500007,
      "v": 66
    },
    {
      "midi": 48,
      "hit": false,
      "t": 53642.55160937503,
      "d": 173.62657031250274,
      "v": 57
    },
    {
      "midi": 60,
      "hit": false,
      "t": 53642.55160937503,
      "d": 184.6155937500007,
      "v": 71
    },
    {
      "midi": 60,
      "hit": false,
      "t": 53642.55160937516,
      "d": 173.62657031250274,
      "v": 57
    },
    {
      "midi": 64,
      "hit": false,
      "t": 53642.55160937516,
      "d": 173.62657031250274,
      "v": 57
    },
    {
      "midi": 67,
      "hit": false,
      "t": 53642.55160937516,
      "d": 184.6155937500007,
      "v": 71
    },
    {
      "midi": 41,
      "hit": false,
      "t": 53827.53350390628,
      "d": 174.35917187500309,
      "v": 56
    },
    {
      "midi": 53,
      "hit": false,
      "t": 53827.53350390628,
      "d": 174.35917187500309,
      "v": 70
    },
    {
      "midi": 61,
      "hit": false,
      "t": 53827.53350390641,
      "d": 174.35917187500309,
      "v": 56
    },
    {
      "midi": 67,
      "hit": false,
      "t": 53827.53350390641,
      "d": 174.35917187500309,
      "v": 56
    },
    {
      "midi": 70,
      "hit": false,
      "t": 53827.53350390641,
      "d": 185.34819531250105,
      "v": 70
    },
    {
      "midi": 41,
      "hit": false,
      "t": 54014.71320312503,
      "d": 85.7143828124972,
      "v": 49
    },
    {
      "midi": 53,
      "hit": false,
      "t": 54014.71320312503,
      "d": 85.7143828124972,
      "v": 63
    },
    {
      "midi": 41,
      "hit": false,
      "t": 54213.24822656253,
      "d": 73.26015624999854,
      "v": 44
    },
    {
      "midi": 53,
      "hit": false,
      "t": 54213.24822656253,
      "d": 73.26015624999854,
      "v": 54
    },
    {
      "midi": 61,
      "hit": false,
      "t": 54213.24822656266,
      "d": 174.72547265625326,
      "v": 56
    },
    {
      "midi": 67,
      "hit": false,
      "t": 54213.24822656266,
      "d": 174.72547265625326,
      "v": 56
    },
    {
      "midi": 70,
      "hit": false,
      "t": 54213.24822656266,
      "d": 185.71449609375122,
      "v": 70
    },
    {
      "midi": 41,
      "hit": false,
      "t": 54399.32902343753,
      "d": 72.16125390624802,
      "v": 45
    },
    {
      "midi": 53,
      "hit": false,
      "t": 54399.32902343753,
      "d": 72.16125390624802,
      "v": 55
    },
    {
      "midi": 72,
      "hit": false,
      "t": 54399.32902343766,
      "d": 371.42899218750244,
      "v": 65
    },
    {
      "midi": 60,
      "hit": false,
      "t": 54399.32902343766,
      "d": 371.42899218750244,
      "v": 57
    },
    {
      "midi": 65,
      "hit": false,
      "t": 54399.32902343766,
      "d": 371.42899218750244,
      "v": 57
    },
    {
      "midi": 68,
      "hit": false,
      "t": 54399.32902343766,
      "d": 371.42899218750244,
      "v": 71
    },
    {
      "midi": 41,
      "hit": false,
      "t": 54584.31091796878,
      "d": 73.9927578124989,
      "v": 44
    },
    {
      "midi": 53,
      "hit": false,
      "t": 54584.31091796878,
      "d": 73.9927578124989,
      "v": 54
    },
    {
      "midi": 41,
      "hit": false,
      "t": 54771.12431640628,
      "d": 73.9927578124989,
      "v": 47
    },
    {
      "midi": 53,
      "hit": false,
      "t": 54771.12431640628,
      "d": 73.9927578124989,
      "v": 57
    },
    {
      "midi": 77,
      "hit": false,
      "t": 54771.124316406414,
      "d": 371.42899218750244,
      "v": 67
    },
    {
      "midi": 41,
      "hit": false,
      "t": 54957.937714843785,
      "d": 72.16125390624802,
      "v": 44
    },
    {
      "midi": 53,
      "hit": false,
      "t": 54957.937714843785,
      "d": 72.16125390624802,
      "v": 54
    },
    {
      "midi": 61,
      "hit": false,
      "t": 54957.937714843916,
      "d": 173.62657031250274,
      "v": 56
    },
    {
      "midi": 67,
      "hit": false,
      "t": 54957.937714843916,
      "d": 173.62657031250274,
      "v": 56
    },
    {
      "midi": 70,
      "hit": false,
      "t": 54957.937714843916,
      "d": 184.6155937500007,
      "v": 70
    },
    {
      "midi": 41,
      "hit": false,
      "t": 55142.919609375036,
      "d": 72.16125390624802,
      "v": 45
    },
    {
      "midi": 53,
      "hit": false,
      "t": 55142.919609375036,
      "d": 72.16125390624802,
      "v": 55
    },
    {
      "midi": 82,
      "hit": false,
      "t": 55142.91960937517,
      "d": 173.62657031250274,
      "v": 65
    },
    {
      "midi": 70,
      "hit": false,
      "t": 55142.91960937517,
      "d": 173.62657031250274,
      "v": 57
    },
    {
      "midi": 73,
      "hit": false,
      "t": 55142.91960937517,
      "d": 184.6155937500007,
      "v": 71
    },
    {
      "midi": 41,
      "hit": false,
      "t": 55327.90150390629,
      "d": 72.89385546874837,
      "v": 44
    },
    {
      "midi": 53,
      "hit": false,
      "t": 55327.90150390629,
      "d": 72.89385546874837,
      "v": 54
    },
    {
      "midi": 72,
      "hit": false,
      "t": 55327.90150390642,
      "d": 174.35917187500309,
      "v": 56
    },
    {
      "midi": 77,
      "hit": false,
      "t": 55327.90150390642,
      "d": 185.34819531250105,
      "v": 70
    },
    {
      "midi": 84,
      "hit": false,
      "t": 55327.90150390642,
      "d": 571.4292187500032,
      "v": 64
    },
    {
      "midi": 41,
      "hit": false,
      "t": 55515.08120312504,
      "d": 85.7143828124972,
      "v": 49
    },
    {
      "midi": 53,
      "hit": false,
      "t": 55515.08120312504,
      "d": 85.7143828124972,
      "v": 59
    },
    {
      "midi": 41,
      "hit": false,
      "t": 55713.61622656254,
      "d": 73.26015624999854,
      "v": 44
    },
    {
      "midi": 53,
      "hit": false,
      "t": 55713.61622656254,
      "d": 73.26015624999854,
      "v": 54
    },
    {
      "midi": 67,
      "hit": false,
      "t": 55713.61622656267,
      "d": 174.72547265625326,
      "v": 56
    },
    {
      "midi": 70,
      "hit": false,
      "t": 55713.61622656267,
      "d": 174.72547265625326,
      "v": 56
    },
    {
      "midi": 73,
      "hit": false,
      "t": 55713.61622656267,
      "d": 185.71449609375122,
      "v": 70
    },
    {
      "midi": 41,
      "hit": false,
      "t": 55899.69702343754,
      "d": 72.16125390624802,
      "v": 45
    },
    {
      "midi": 53,
      "hit": false,
      "t": 55899.69702343754,
      "d": 72.16125390624802,
      "v": 55
    },
    {
      "midi": 82,
      "hit": false,
      "t": 55899.69702343767,
      "d": 173.62657031250274,
      "v": 65
    },
    {
      "midi": 68,
      "hit": false,
      "t": 55899.69702343767,
      "d": 173.62657031250274,
      "v": 57
    },
    {
      "midi": 72,
      "hit": false,
      "t": 55899.69702343767,
      "d": 173.62657031250274,
      "v": 57
    },
    {
      "midi": 77,
      "hit": false,
      "t": 55899.69702343767,
      "d": 184.6155937500007,
      "v": 71
    },
    {
      "midi": 41,
      "hit": false,
      "t": 56084.67891796879,
      "d": 73.9927578124989,
      "v": 44
    },
    {
      "midi": 53,
      "hit": false,
      "t": 56084.67891796879,
      "d": 73.9927578124989,
      "v": 54
    },
    {
      "midi": 67,
      "hit": false,
      "t": 56084.67891796892,
      "d": 175.4580742187536,
      "v": 56
    },
    {
      "midi": 70,
      "hit": false,
      "t": 56084.67891796892,
      "d": 175.4580742187536,
      "v": 56
    },
    {
      "midi": 73,
      "hit": false,
      "t": 56084.67891796892,
      "d": 186.44709765625157,
      "v": 70
    },
    {
      "midi": 80,
      "hit": false,
      "t": 56084.67891796892,
      "d": 373.2604960937533,
      "v": 64
    },
    {
      "midi": 41,
      "hit": false,
      "t": 56271.49231640629,
      "d": 73.9927578124989,
      "v": 47
    },
    {
      "midi": 53,
      "hit": false,
      "t": 56271.49231640629,
      "d": 73.9927578124989,
      "v": 57
    },
    {
      "midi": 41,
      "hit": false,
      "t": 56458.305714843795,
      "d": 72.16125390624802,
      "v": 44
    },
    {
      "midi": 53,
      "hit": false,
      "t": 56458.305714843795,
      "d": 72.16125390624802,
      "v": 54
    },
    {
      "midi": 67,
      "hit": false,
      "t": 56458.305714843926,
      "d": 173.62657031250274,
      "v": 56
    },
    {
      "midi": 70,
      "hit": false,
      "t": 56458.305714843926,
      "d": 173.62657031250274,
      "v": 56
    },
    {
      "midi": 73,
      "hit": false,
      "t": 56458.305714843926,
      "d": 184.6155937500007,
      "v": 70
    },
    {
      "midi": 79,
      "hit": false,
      "t": 56458.305714843926,
      "d": 369.5974882812516,
      "v": 64
    },
    {
      "midi": 41,
      "hit": false,
      "t": 56643.287609375046,
      "d": 72.16125390624802,
      "v": 45
    },
    {
      "midi": 53,
      "hit": false,
      "t": 56643.287609375046,
      "d": 72.16125390624802,
      "v": 59
    },
    {
      "midi": 65,
      "hit": false,
      "t": 56643.28760937518,
      "d": 173.62657031250274,
      "v": 57
    },
    {
      "midi": 68,
      "hit": false,
      "t": 56643.28760937518,
      "d": 173.62657031250274,
      "v": 57
    },
    {
      "midi": 72,
      "hit": false,
      "t": 56643.28760937518,
      "d": 184.6155937500007,
      "v": 71
    },
    {
      "midi": 37,
      "hit": false,
      "t": 56828.2695039063,
      "d": 72.89385546874837,
      "v": 43
    },
    {
      "midi": 49,
      "hit": false,
      "t": 56828.2695039063,
      "d": 72.89385546874837,
      "v": 58
    },
    {
      "midi": 67,
      "hit": false,
      "t": 56828.26950390643,
      "d": 174.35917187500309,
      "v": 56
    },
    {
      "midi": 70,
      "hit": false,
      "t": 56828.26950390643,
      "d": 174.35917187500309,
      "v": 56
    },
    {
      "midi": 73,
      "hit": false,
      "t": 56828.26950390643,
      "d": 185.34819531250105,
      "v": 70
    },
    {
      "midi": 80,
      "hit": false,
      "t": 56828.26950390643,
      "d": 571.4292187500032,
      "v": 64
    },
    {
      "midi": 37,
      "hit": false,
      "t": 57015.44920312505,
      "d": 85.7143828124972,
      "v": 48
    },
    {
      "midi": 49,
      "hit": false,
      "t": 57015.44920312505,
      "d": 85.7143828124972,
      "v": 59
    },
    {
      "midi": 37,
      "hit": false,
      "t": 57213.98422656255,
      "d": 73.26015624999854,
      "v": 43
    },
    {
      "midi": 49,
      "hit": false,
      "t": 57213.98422656255,
      "d": 73.26015624999854,
      "v": 54
    },
    {
      "midi": 67,
      "hit": false,
      "t": 57213.98422656268,
      "d": 174.72547265625326,
      "v": 56
    },
    {
      "midi": 70,
      "hit": false,
      "t": 57213.98422656268,
      "d": 174.72547265625326,
      "v": 56
    },
    {
      "midi": 73,
      "hit": false,
      "t": 57213.98422656268,
      "d": 185.71449609375122,
      "v": 70
    },
    {
      "midi": 37,
      "hit": false,
      "t": 57400.06502343755,
      "d": 72.16125390624802,
      "v": 44
    },
    {
      "midi": 49,
      "hit": false,
      "t": 57400.06502343755,
      "d": 72.16125390624802,
      "v": 55
    },
    {
      "midi": 79,
      "hit": false,
      "t": 57400.06502343768,
      "d": 173.62657031250274,
      "v": 65
    },
    {
      "midi": 65,
      "hit": false,
      "t": 57400.06502343768,
      "d": 371.42899218750244,
      "v": 57
    },
    {
      "midi": 68,
      "hit": false,
      "t": 57400.06502343768,
      "d": 371.42899218750244,
      "v": 57
    },
    {
      "midi": 72,
      "hit": false,
      "t": 57400.06502343768,
      "d": 371.42899218750244,
      "v": 71
    },
    {
      "midi": 37,
      "hit": false,
      "t": 57585.0469179688,
      "d": 73.9927578124989,
      "v": 43
    },
    {
      "midi": 49,
      "hit": false,
      "t": 57585.0469179688,
      "d": 73.9927578124989,
      "v": 54
    },
    {
      "midi": 77,
      "hit": false,
      "t": 57585.04691796893,
      "d": 175.4580742187536,
      "v": 64
    },
    {
      "midi": 37,
      "hit": false,
      "t": 57771.8603164063,
      "d": 73.9927578124989,
      "v": 46
    },
    {
      "midi": 49,
      "hit": false,
      "t": 57771.8603164063,
      "d": 73.9927578124989,
      "v": 57
    },
    {
      "midi": 79,
      "hit": false,
      "t": 57771.86031640643,
      "d": 175.4580742187536,
      "v": 67
    },
    {
      "midi": 37,
      "hit": false,
      "t": 57958.673714843804,
      "d": 72.16125390624802,
      "v": 43
    },
    {
      "midi": 49,
      "hit": false,
      "t": 57958.673714843804,
      "d": 72.16125390624802,
      "v": 54
    },
    {
      "midi": 61,
      "hit": false,
      "t": 57958.673714843935,
      "d": 184.6155937500007,
      "v": 56
    },
    {
      "midi": 67,
      "hit": false,
      "t": 57958.673714843935,
      "d": 184.6155937500007,
      "v": 56
    },
    {
      "midi": 70,
      "hit": false,
      "t": 57958.673714843935,
      "d": 184.6155937500007,
      "v": 70
    },
    {
      "midi": 75,
      "hit": false,
      "t": 57958.673714843935,
      "d": 369.5974882812516,
      "v": 64
    },
    {
      "midi": 37,
      "hit": false,
      "t": 58143.655609375055,
      "d": 72.16125390624802,
      "v": 44
    },
    {
      "midi": 49,
      "hit": false,
      "t": 58143.655609375055,
      "d": 72.16125390624802,
      "v": 55
    },
    {
      "midi": 61,
      "hit": false,
      "t": 58143.655609375186,
      "d": 173.62657031250274,
      "v": 57
    },
    {
      "midi": 67,
      "hit": false,
      "t": 58143.655609375186,
      "d": 173.62657031250274,
      "v": 57
    },
    {
      "midi": 70,
      "hit": false,
      "t": 58143.655609375186,
      "d": 184.6155937500007,
      "v": 71
    },
    {
      "midi": 37,
      "hit": false,
      "t": 58328.637503906306,
      "d": 72.89385546874837,
      "v": 43
    },
    {
      "midi": 49,
      "hit": false,
      "t": 58328.637503906306,
      "d": 72.89385546874837,
      "v": 54
    },
    {
      "midi": 65,
      "hit": false,
      "t": 58328.63750390644,
      "d": 174.35917187500309,
      "v": 56
    },
    {
      "midi": 68,
      "hit": false,
      "t": 58328.63750390644,
      "d": 174.35917187500309,
      "v": 56
    },
    {
      "midi": 72,
      "hit": false,
      "t": 58328.63750390644,
      "d": 185.34819531250105,
      "v": 70
    },
    {
      "midi": 77,
      "hit": false,
      "t": 58328.63750390644,
      "d": 756.4111132812541,
      "v": 64
    },
    {
      "midi": 37,
      "hit": false,
      "t": 58515.81720312506,
      "d": 85.7143828124972,
      "v": 48
    },
    {
      "midi": 49,
      "hit": false,
      "t": 58515.81720312506,
      "d": 85.7143828124972,
      "v": 59
    },
    {
      "midi": 37,
      "hit": false,
      "t": 58714.35222656256,
      "d": 73.26015624999854,
      "v": 43
    },
    {
      "midi": 49,
      "hit": false,
      "t": 58714.35222656256,
      "d": 73.26015624999854,
      "v": 54
    },
    {
      "midi": 61,
      "hit": false,
      "t": 58714.35222656269,
      "d": 174.72547265625326,
      "v": 56
    },
    {
      "midi": 67,
      "hit": false,
      "t": 58714.35222656269,
      "d": 174.72547265625326,
      "v": 56
    },
    {
      "midi": 70,
      "hit": false,
      "t": 58714.35222656269,
      "d": 185.71449609375122,
      "v": 70
    },
    {
      "midi": 37,
      "hit": false,
      "t": 58900.43302343756,
      "d": 72.16125390624802,
      "v": 44
    },
    {
      "midi": 49,
      "hit": false,
      "t": 58900.43302343756,
      "d": 72.16125390624802,
      "v": 55
    },
    {
      "midi": 65,
      "hit": false,
      "t": 58900.43302343769,
      "d": 371.42899218750244,
      "v": 57
    },
    {
      "midi": 68,
      "hit": false,
      "t": 58900.43302343769,
      "d": 371.42899218750244,
      "v": 57
    },
    {
      "midi": 72,
      "hit": false,
      "t": 58900.43302343769,
      "d": 371.42899218750244,
      "v": 71
    },
    {
      "midi": 37,
      "hit": false,
      "t": 59085.41491796881,
      "d": 73.9927578124989,
      "v": 43
    },
    {
      "midi": 49,
      "hit": false,
      "t": 59085.41491796881,
      "d": 73.9927578124989,
      "v": 54
    },
    {
      "midi": 77,
      "hit": false,
      "t": 59085.41491796894,
      "d": 175.4580742187536,
      "v": 64
    },
    {
      "midi": 37,
      "hit": false,
      "t": 59272.22831640631,
      "d": 73.9927578124989,
      "v": 46
    },
    {
      "midi": 49,
      "hit": false,
      "t": 59272.22831640631,
      "d": 73.9927578124989,
      "v": 57
    },
    {
      "midi": 79,
      "hit": false,
      "t": 59272.22831640644,
      "d": 175.4580742187536,
      "v": 67
    },
    {
      "midi": 67,
      "hit": false,
      "t": 59272.22831640644,
      "d": 186.44709765625157,
      "v": 59
    },
    {
      "midi": 70,
      "hit": false,
      "t": 59272.22831640644,
      "d": 186.44709765625157,
      "v": 59
    },
    {
      "midi": 73,
      "hit": false,
      "t": 59272.22831640644,
      "d": 186.44709765625157,
      "v": 73
    },
    {
      "midi": 37,
      "hit": false,
      "t": 59459.041714843814,
      "d": 72.16125390624802,
      "v": 43
    },
    {
      "midi": 49,
      "hit": false,
      "t": 59459.041714843814,
      "d": 72.16125390624802,
      "v": 54
    },
    {
      "midi": 67,
      "hit": false,
      "t": 59459.041714843945,
      "d": 173.62657031250274,
      "v": 56
    },
    {
      "midi": 70,
      "hit": false,
      "t": 59459.041714843945,
      "d": 173.62657031250274,
      "v": 56
    },
    {
      "midi": 73,
      "hit": false,
      "t": 59459.041714843945,
      "d": 184.6155937500007,
      "v": 70
    },
    {
      "midi": 80,
      "hit": false,
      "t": 59459.041714843945,
      "d": 941.393007812505,
      "v": 64
    },
    {
      "midi": 37,
      "hit": false,
      "t": 59644.023609375065,
      "d": 72.16125390624802,
      "v": 44
    },
    {
      "midi": 49,
      "hit": false,
      "t": 59644.023609375065,
      "d": 72.16125390624802,
      "v": 59
    },
    {
      "midi": 68,
      "hit": false,
      "t": 59644.023609375196,
      "d": 173.62657031250274,
      "v": 57
    },
    {
      "midi": 65,
      "hit": false,
      "t": 59644.023609375196,
      "d": 184.6155937500007,
      "v": 57
    },
    {
      "midi": 72,
      "hit": false,
      "t": 59644.023609375196,
      "d": 184.6155937500007,
      "v": 71
    },
    {
      "midi": 34,
      "hit": false,
      "t": 59829.005503906315,
      "d": 72.89385546874837,
      "v": 42
    },
    {
      "midi": 46,
      "hit": false,
      "t": 59829.005503906315,
      "d": 72.89385546874837,
      "v": 58
    },
    {
      "midi": 60,
      "hit": false,
      "t": 59829.00550390645,
      "d": 174.35917187500309,
      "v": 56
    },
    {
      "midi": 65,
      "hit": false,
      "t": 59829.00550390645,
      "d": 174.35917187500309,
      "v": 56
    },
    {
      "midi": 68,
      "hit": false,
      "t": 59829.00550390645,
      "d": 185.34819531250105,
      "v": 70
    },
    {
      "midi": 34,
      "hit": false,
      "t": 60016.18520312507,
      "d": 85.7143828124972,
      "v": 47
    },
    {
      "midi": 46,
      "hit": false,
      "t": 60016.18520312507,
      "d": 85.7143828124972,
      "v": 59
    },
    {
      "midi": 34,
      "hit": false,
      "t": 60214.72022656257,
      "d": 73.26015624999854,
      "v": 42
    },
    {
      "midi": 46,
      "hit": false,
      "t": 60214.72022656257,
      "d": 73.26015624999854,
      "v": 54
    },
    {
      "midi": 65,
      "hit": false,
      "t": 60214.7202265627,
      "d": 174.72547265625326,
      "v": 56
    },
    {
      "midi": 68,
      "hit": false,
      "t": 60214.7202265627,
      "d": 174.72547265625326,
      "v": 56
    },
    {
      "midi": 72,
      "hit": false,
      "t": 60214.7202265627,
      "d": 185.71449609375122,
      "v": 70
    },
    {
      "midi": 34,
      "hit": false,
      "t": 60400.80102343757,
      "d": 72.16125390624802,
      "v": 43
    },
    {
      "midi": 46,
      "hit": false,
      "t": 60400.80102343757,
      "d": 72.16125390624802,
      "v": 55
    },
    {
      "midi": 82,
      "hit": false,
      "t": 60400.8010234377,
      "d": 371.42899218750244,
      "v": 65
    },
    {
      "midi": 70,
      "hit": false,
      "t": 60400.8010234377,
      "d": 371.42899218750244,
      "v": 57
    },
    {
      "midi": 75,
      "hit": false,
      "t": 60400.8010234377,
      "d": 371.42899218750244,
      "v": 57
    },
    {
      "midi": 79,
      "hit": false,
      "t": 60400.8010234377,
      "d": 371.42899218750244,
      "v": 71
    },
    {
      "midi": 34,
      "hit": false,
      "t": 60585.78291796882,
      "d": 73.9927578124989,
      "v": 42
    },
    {
      "midi": 46,
      "hit": false,
      "t": 60585.78291796882,
      "d": 73.9927578124989,
      "v": 54
    },
    {
      "midi": 34,
      "hit": false,
      "t": 60772.59631640632,
      "d": 73.9927578124989,
      "v": 45
    },
    {
      "midi": 46,
      "hit": false,
      "t": 60772.59631640632,
      "d": 73.9927578124989,
      "v": 57
    },
    {
      "midi": 80,
      "hit": false,
      "t": 60772.59631640645,
      "d": 371.42899218750244,
      "v": 67
    },
    {
      "midi": 34,
      "hit": false,
      "t": 60959.40971484382,
      "d": 72.16125390624802,
      "v": 42
    },
    {
      "midi": 46,
      "hit": false,
      "t": 60959.40971484382,
      "d": 72.16125390624802,
      "v": 54
    },
    {
      "midi": 65,
      "hit": false,
      "t": 60959.409714843954,
      "d": 184.6155937500007,
      "v": 56
    },
    {
      "midi": 68,
      "hit": false,
      "t": 60959.409714843954,
      "d": 184.6155937500007,
      "v": 56
    },
    {
      "midi": 72,
      "hit": false,
      "t": 60959.409714843954,
      "d": 184.6155937500007,
      "v": 70
    },
    {
      "midi": 34,
      "hit": false,
      "t": 61144.391609375074,
      "d": 72.16125390624802,
      "v": 43
    },
    {
      "midi": 46,
      "hit": false,
      "t": 61144.391609375074,
      "d": 72.16125390624802,
      "v": 55
    },
    {
      "midi": 79,
      "hit": false,
      "t": 61144.391609375205,
      "d": 173.62657031250274,
      "v": 65
    },
    {
      "midi": 65,
      "hit": false,
      "t": 61144.391609375205,
      "d": 173.62657031250274,
      "v": 57
    },
    {
      "midi": 68,
      "hit": false,
      "t": 61144.391609375205,
      "d": 173.62657031250274,
      "v": 57
    },
    {
      "midi": 72,
      "hit": false,
      "t": 61144.391609375205,
      "d": 184.6155937500007,
      "v": 71
    },
    {
      "midi": 34,
      "hit": false,
      "t": 61329.373503906325,
      "d": 72.89385546874837,
      "v": 42
    },
    {
      "midi": 46,
      "hit": false,
      "t": 61329.373503906325,
      "d": 72.89385546874837,
      "v": 54
    },
    {
      "midi": 70,
      "hit": false,
      "t": 61329.373503906456,
      "d": 174.35917187500309,
      "v": 56
    },
    {
      "midi": 75,
      "hit": false,
      "t": 61329.373503906456,
      "d": 174.35917187500309,
      "v": 56
    },
    {
      "midi": 79,
      "hit": false,
      "t": 61329.373503906456,
      "d": 185.34819531250105,
      "v": 70
    },
    {
      "midi": 82,
      "hit": false,
      "t": 61329.373503906456,
      "d": 385.3484218750018,
      "v": 64
    },
    {
      "midi": 34,
      "hit": false,
      "t": 61516.55320312508,
      "d": 85.7143828124972,
      "v": 47
    },
    {
      "midi": 46,
      "hit": false,
      "t": 61516.55320312508,
      "d": 85.7143828124972,
      "v": 59
    },
    {
      "midi": 68,
      "hit": false,
      "t": 61516.55320312521,
      "d": 384.2495195312513,
      "v": 61
    },
    {
      "midi": 72,
      "hit": false,
      "t": 61516.55320312521,
      "d": 384.2495195312513,
      "v": 61
    },
    {
      "midi": 77,
      "hit": false,
      "t": 61516.55320312521,
      "d": 384.2495195312513,
      "v": 75
    },
    {
      "midi": 34,
      "hit": false,
      "t": 61715.08822656258,
      "d": 73.26015624999854,
      "v": 42
    },
    {
      "midi": 46,
      "hit": false,
      "t": 61715.08822656258,
      "d": 73.26015624999854,
      "v": 54
    },
    {
      "midi": 82,
      "hit": false,
      "t": 61715.08822656271,
      "d": 174.72547265625326,
      "v": 64
    },
    {
      "midi": 34,
      "hit": false,
      "t": 61901.16902343758,
      "d": 72.16125390624802,
      "v": 43
    },
    {
      "midi": 46,
      "hit": false,
      "t": 61901.16902343758,
      "d": 72.16125390624802,
      "v": 55
    },
    {
      "midi": 67,
      "hit": false,
      "t": 61901.16902343771,
      "d": 173.62657031250274,
      "v": 57
    },
    {
      "midi": 70,
      "hit": false,
      "t": 61901.16902343771,
      "d": 173.62657031250274,
      "v": 57
    },
    {
      "midi": 75,
      "hit": false,
      "t": 61901.16902343771,
      "d": 184.6155937500007,
      "v": 71
    },
    {
      "midi": 80,
      "hit": false,
      "t": 61901.16902343771,
      "d": 371.42899218750244,
      "v": 65
    },
    {
      "midi": 34,
      "hit": false,
      "t": 62086.15091796883,
      "d": 73.9927578124989,
      "v": 42
    },
    {
      "midi": 46,
      "hit": false,
      "t": 62086.15091796883,
      "d": 73.9927578124989,
      "v": 54
    },
    {
      "midi": 65,
      "hit": false,
      "t": 62086.15091796896,
      "d": 175.4580742187536,
      "v": 56
    },
    {
      "midi": 68,
      "hit": false,
      "t": 62086.15091796896,
      "d": 175.4580742187536,
      "v": 56
    },
    {
      "midi": 72,
      "hit": false,
      "t": 62086.15091796896,
      "d": 186.44709765625157,
      "v": 70
    },
    {
      "midi": 34,
      "hit": false,
      "t": 62272.96431640633,
      "d": 73.9927578124989,
      "v": 45
    },
    {
      "midi": 46,
      "hit": false,
      "t": 62272.96431640633,
      "d": 73.9927578124989,
      "v": 57
    },
    {
      "midi": 79,
      "hit": false,
      "t": 62272.96431640646,
      "d": 371.42899218750244,
      "v": 67
    },
    {
      "midi": 34,
      "hit": false,
      "t": 62459.77771484383,
      "d": 72.16125390624802,
      "v": 42
    },
    {
      "midi": 46,
      "hit": false,
      "t": 62459.77771484383,
      "d": 72.16125390624802,
      "v": 54
    },
    {
      "midi": 65,
      "hit": false,
      "t": 62459.77771484396,
      "d": 173.62657031250274,
      "v": 56
    },
    {
      "midi": 68,
      "hit": false,
      "t": 62459.77771484396,
      "d": 173.62657031250274,
      "v": 56
    },
    {
      "midi": 72,
      "hit": false,
      "t": 62459.77771484396,
      "d": 184.6155937500007,
      "v": 70
    },
    {
      "midi": 34,
      "hit": false,
      "t": 62644.75960937508,
      "d": 72.16125390624802,
      "v": 43
    },
    {
      "midi": 46,
      "hit": false,
      "t": 62644.75960937508,
      "d": 72.16125390624802,
      "v": 59
    },
    {
      "midi": 80,
      "hit": false,
      "t": 62644.759609375214,
      "d": 173.62657031250274,
      "v": 65
    },
    {
      "midi": 70,
      "hit": false,
      "t": 62644.759609375214,
      "d": 173.62657031250274,
      "v": 57
    },
    {
      "midi": 67,
      "hit": false,
      "t": 62644.759609375214,
      "d": 184.6155937500007,
      "v": 57
    },
    {
      "midi": 75,
      "hit": false,
      "t": 62644.759609375214,
      "d": 184.6155937500007,
      "v": 71
    },
    {
      "midi": 36,
      "hit": false,
      "t": 62829.741503906334,
      "d": 72.89385546874837,
      "v": 42
    },
    {
      "midi": 48,
      "hit": false,
      "t": 62829.741503906334,
      "d": 72.89385546874837,
      "v": 58
    },
    {
      "midi": 67,
      "hit": false,
      "t": 62829.741503906465,
      "d": 174.35917187500309,
      "v": 56
    },
    {
      "midi": 72,
      "hit": false,
      "t": 62829.741503906465,
      "d": 174.35917187500309,
      "v": 56
    },
    {
      "midi": 76,
      "hit": false,
      "t": 62829.741503906465,
      "d": 185.34819531250105,
      "v": 70
    },
    {
      "midi": 79,
      "hit": false,
      "t": 62829.741503906465,
      "d": 476.55731640625163,
      "v": 64
    },
    {
      "midi": 36,
      "hit": false,
      "t": 63016.921203125086,
      "d": 85.7143828124972,
      "v": 47
    },
    {
      "midi": 48,
      "hit": false,
      "t": 63016.921203125086,
      "d": 85.7143828124972,
      "v": 59
    },
    {
      "midi": 36,
      "hit": false,
      "t": 63215.45622656259,
      "d": 73.26015624999854,
      "v": 42
    },
    {
      "midi": 48,
      "hit": false,
      "t": 63215.45622656259,
      "d": 73.26015624999854,
      "v": 54
    },
    {
      "midi": 64,
      "hit": false,
      "t": 63215.45622656272,
      "d": 174.72547265625326,
      "v": 56
    },
    {
      "midi": 67,
      "hit": false,
      "t": 63215.45622656272,
      "d": 174.72547265625326,
      "v": 56
    },
    {
      "midi": 72,
      "hit": false,
      "t": 63215.45622656272,
      "d": 185.71449609375122,
      "v": 70
    },
    {
      "midi": 77,
      "hit": false,
      "t": 63306.66512109397,
      "d": 466.300894531254,
      "v": 64
    },
    {
      "midi": 36,
      "hit": false,
      "t": 63401.53702343759,
      "d": 72.16125390624802,
      "v": 43
    },
    {
      "midi": 48,
      "hit": false,
      "t": 63401.53702343759,
      "d": 72.16125390624802,
      "v": 55
    },
    {
      "midi": 65,
      "hit": false,
      "t": 63401.53702343772,
      "d": 371.42899218750244,
      "v": 57
    },
    {
      "midi": 68,
      "hit": false,
      "t": 63401.53702343772,
      "d": 371.42899218750244,
      "v": 57
    },
    {
      "midi": 73,
      "hit": false,
      "t": 63401.53702343772,
      "d": 371.42899218750244,
      "v": 71
    },
    {
      "midi": 36,
      "hit": false,
      "t": 63586.51891796884,
      "d": 73.9927578124989,
      "v": 42
    },
    {
      "midi": 48,
      "hit": false,
      "t": 63586.51891796884,
      "d": 73.9927578124989,
      "v": 54
    },
    {
      "midi": 36,
      "hit": false,
      "t": 63773.33231640634,
      "d": 73.9927578124989,
      "v": 45
    },
    {
      "midi": 48,
      "hit": false,
      "t": 63773.33231640634,
      "d": 73.9927578124989,
      "v": 57
    },
    {
      "midi": 76,
      "hit": false,
      "t": 63773.33231640647,
      "d": 371.42899218750244,
      "v": 67
    },
    {
      "midi": 64,
      "hit": false,
      "t": 63773.33231640647,
      "d": 371.42899218750244,
      "v": 59
    },
    {
      "midi": 67,
      "hit": false,
      "t": 63773.33231640647,
      "d": 371.42899218750244,
      "v": 59
    },
    {
      "midi": 72,
      "hit": false,
      "t": 63773.33231640647,
      "d": 371.42899218750244,
      "v": 73
    },
    {
      "midi": 36,
      "hit": false,
      "t": 63960.14571484384,
      "d": 72.16125390624802,
      "v": 42
    },
    {
      "midi": 48,
      "hit": false,
      "t": 63960.14571484384,
      "d": 72.16125390624802,
      "v": 54
    },
    {
      "midi": 36,
      "hit": false,
      "t": 64145.12760937509,
      "d": 72.16125390624802,
      "v": 43
    },
    {
      "midi": 48,
      "hit": false,
      "t": 64145.12760937509,
      "d": 72.16125390624802,
      "v": 55
    },
    {
      "midi": 65,
      "hit": false,
      "t": 64145.127609375224,
      "d": 173.62657031250274,
      "v": 57
    },
    {
      "midi": 68,
      "hit": false,
      "t": 64145.127609375224,
      "d": 173.62657031250274,
      "v": 57
    },
    {
      "midi": 73,
      "hit": false,
      "t": 64145.127609375224,
      "d": 184.6155937500007,
      "v": 71
    },
    {
      "midi": 36,
      "hit": false,
      "t": 64330.109503906344,
      "d": 72.89385546874837,
      "v": 42
    },
    {
      "midi": 48,
      "hit": false,
      "t": 64330.109503906344,
      "d": 72.89385546874837,
      "v": 54
    },
    {
      "midi": 79,
      "hit": false,
      "t": 64330.109503906475,
      "d": 10.989023437497963,
      "v": 70
    },
    {
      "midi": 72,
      "hit": false,
      "t": 64330.109503906475,
      "d": 174.3591718749958,
      "v": 56
    },
    {
      "midi": 76,
      "hit": false,
      "t": 64330.109503906475,
      "d": 174.3591718749958,
      "v": 56
    },
    {
      "midi": 84,
      "hit": false,
      "t": 64330.109503906475,
      "d": 385.34842187499453,
      "v": 52
    },
    {
      "midi": 36,
      "hit": false,
      "t": 64517.289203125096,
      "d": 85.7143828124972,
      "v": 47
    },
    {
      "midi": 48,
      "hit": false,
      "t": 64517.289203125096,
      "d": 85.7143828124972,
      "v": 59
    },
    {
      "midi": 36,
      "hit": false,
      "t": 64715.824226562596,
      "d": 73.26015624999854,
      "v": 42
    },
    {
      "midi": 48,
      "hit": false,
      "t": 64715.824226562596,
      "d": 73.26015624999854,
      "v": 54
    },
    {
      "midi": 84,
      "hit": false,
      "t": 64715.82422656272,
      "d": 185.71449609375122,
      "v": 52
    },
    {
      "midi": 72,
      "hit": false,
      "t": 64715.82422656272,
      "d": 185.71449609375122,
      "v": 56
    },
    {
      "midi": 76,
      "hit": false,
      "t": 64715.82422656272,
      "d": 185.71449609375122,
      "v": 56
    },
    {
      "midi": 79,
      "hit": false,
      "t": 64715.82422656272,
      "d": 185.71449609375122,
      "v": 66
    },
    {
      "midi": 36,
      "hit": false,
      "t": 64901.9050234376,
      "d": 72.16125390624802,
      "v": 43
    },
    {
      "midi": 48,
      "hit": false,
      "t": 64901.9050234376,
      "d": 72.16125390624802,
      "v": 55
    },
    {
      "midi": 84,
      "hit": false,
      "t": 64901.90502343772,
      "d": 184.6155937500007,
      "v": 53
    },
    {
      "midi": 72,
      "hit": false,
      "t": 64901.90502343772,
      "d": 184.6155937500007,
      "v": 57
    },
    {
      "midi": 76,
      "hit": false,
      "t": 64901.90502343772,
      "d": 184.6155937500007,
      "v": 57
    },
    {
      "midi": 79,
      "hit": false,
      "t": 64901.90502343772,
      "d": 184.6155937500007,
      "v": 67
    },
    {
      "midi": 36,
      "hit": false,
      "t": 65086.88691796885,
      "d": 73.9927578124989,
      "v": 42
    },
    {
      "midi": 48,
      "hit": false,
      "t": 65086.88691796885,
      "d": 73.9927578124989,
      "v": 54
    },
    {
      "midi": 84,
      "hit": false,
      "t": 65086.88691796897,
      "d": 186.44709765625157,
      "v": 52
    },
    {
      "midi": 72,
      "hit": false,
      "t": 65086.88691796897,
      "d": 186.44709765625157,
      "v": 56
    },
    {
      "midi": 76,
      "hit": false,
      "t": 65086.88691796897,
      "d": 186.44709765625157,
      "v": 56
    },
    {
      "midi": 79,
      "hit": false,
      "t": 65086.88691796897,
      "d": 186.44709765625157,
      "v": 66
    },
    {
      "midi": 36,
      "hit": false,
      "t": 65273.70031640635,
      "d": 73.9927578124989,
      "v": 45
    },
    {
      "midi": 48,
      "hit": false,
      "t": 65273.70031640635,
      "d": 73.9927578124989,
      "v": 57
    },
    {
      "midi": 84,
      "hit": false,
      "t": 65273.70031640647,
      "d": 186.44709765625157,
      "v": 55
    },
    {
      "midi": 72,
      "hit": false,
      "t": 65273.70031640647,
      "d": 186.44709765625157,
      "v": 59
    },
    {
      "midi": 76,
      "hit": false,
      "t": 65273.70031640647,
      "d": 186.44709765625157,
      "v": 59
    },
    {
      "midi": 79,
      "hit": false,
      "t": 65273.70031640647,
      "d": 186.44709765625157,
      "v": 69
    },
    {
      "midi": 36,
      "hit": false,
      "t": 65460.51371484385,
      "d": 72.16125390624802,
      "v": 42
    },
    {
      "midi": 48,
      "hit": false,
      "t": 65460.51371484385,
      "d": 72.16125390624802,
      "v": 54
    },
    {
      "midi": 72,
      "hit": false,
      "t": 65460.513714843975,
      "d": 173.62657031250274,
      "v": 67
    },
    {
      "midi": 76,
      "hit": false,
      "t": 65460.513714843975,
      "d": 173.62657031250274,
      "v": 67
    },
    {
      "midi": 79,
      "hit": false,
      "t": 65460.513714843975,
      "d": 184.61559375000797,
      "v": 62
    },
    {
      "midi": 84,
      "hit": false,
      "t": 65460.513714843975,
      "d": 369.5974882812516,
      "v": 64
    },
    {
      "midi": 36,
      "hit": false,
      "t": 65645.4956093751,
      "d": 72.16125390624802,
      "v": 43
    },
    {
      "midi": 48,
      "hit": false,
      "t": 65645.4956093751,
      "d": 72.16125390624802,
      "v": 59
    },
    {
      "midi": 41,
      "hit": false,
      "t": 65830.47750390634,
      "d": 72.89385546874837,
      "v": 44
    },
    {
      "midi": 53,
      "hit": false,
      "t": 65830.47750390634,
      "d": 72.89385546874837,
      "v": 58
    },
    {
      "midi": 70,
      "hit": false,
      "t": 65830.47750390647,
      "d": 174.3591718749958,
      "v": 67
    },
    {
      "midi": 73,
      "hit": false,
      "t": 65830.47750390647,
      "d": 174.3591718749958,
      "v": 67
    },
    {
      "midi": 79,
      "hit": false,
      "t": 65830.47750390647,
      "d": 185.34819531250105,
      "v": 62
    },
    {
      "midi": 84,
      "hit": false,
      "t": 65830.47750390647,
      "d": 385.34842187499453,
      "v": 52
    },
    {
      "midi": 41,
      "hit": false,
      "t": 66017.65720312508,
      "d": 85.7143828124972,
      "v": 49
    },
    {
      "midi": 53,
      "hit": false,
      "t": 66017.65720312508,
      "d": 85.7143828124972,
      "v": 59
    },
    {
      "midi": 41,
      "hit": false,
      "t": 66216.19222656258,
      "d": 73.26015625000582,
      "v": 44
    },
    {
      "midi": 53,
      "hit": false,
      "t": 66216.19222656258,
      "d": 73.26015625000582,
      "v": 54
    },
    {
      "midi": 70,
      "hit": false,
      "t": 66216.1922265627,
      "d": 174.72547265625326,
      "v": 56
    },
    {
      "midi": 73,
      "hit": false,
      "t": 66216.1922265627,
      "d": 174.72547265625326,
      "v": 56
    },
    {
      "midi": 79,
      "hit": false,
      "t": 66216.1922265627,
      "d": 185.7144960937585,
      "v": 70
    },
    {
      "midi": 84,
      "hit": false,
      "t": 66216.1922265627,
      "d": 197.06982031250664,
      "v": 52
    },
    {
      "midi": 41,
      "hit": false,
      "t": 66402.27302343758,
      "d": 72.16125390624802,
      "v": 45
    },
    {
      "midi": 53,
      "hit": false,
      "t": 66402.27302343758,
      "d": 72.16125390624802,
      "v": 55
    },
    {
      "midi": 82,
      "hit": false,
      "t": 66402.27302343771,
      "d": 371.42899218750244,
      "v": 65
    },
    {
      "midi": 68,
      "hit": false,
      "t": 66402.27302343771,
      "d": 371.42899218750244,
      "v": 57
    },
    {
      "midi": 72,
      "hit": false,
      "t": 66402.27302343771,
      "d": 371.42899218750244,
      "v": 57
    },
    {
      "midi": 77,
      "hit": false,
      "t": 66402.27302343771,
      "d": 371.42899218750244,
      "v": 71
    },
    {
      "midi": 41,
      "hit": false,
      "t": 66587.25491796882,
      "d": 73.99275781250617,
      "v": 44
    },
    {
      "midi": 53,
      "hit": false,
      "t": 66587.25491796882,
      "d": 73.99275781250617,
      "v": 54
    },
    {
      "midi": 41,
      "hit": false,
      "t": 66774.06831640632,
      "d": 73.99275781250617,
      "v": 47
    },
    {
      "midi": 53,
      "hit": false,
      "t": 66774.06831640632,
      "d": 73.99275781250617,
      "v": 57
    },
    {
      "midi": 80,
      "hit": false,
      "t": 66774.06831640645,
      "d": 371.42899218750244,
      "v": 67
    },
    {
      "midi": 41,
      "hit": false,
      "t": 66960.88171484382,
      "d": 72.16125390624802,
      "v": 44
    },
    {
      "midi": 53,
      "hit": false,
      "t": 66960.88171484382,
      "d": 72.16125390624802,
      "v": 54
    },
    {
      "midi": 61,
      "hit": false,
      "t": 66960.88171484396,
      "d": 173.62657031249546,
      "v": 56
    },
    {
      "midi": 67,
      "hit": false,
      "t": 66960.88171484396,
      "d": 173.62657031249546,
      "v": 56
    },
    {
      "midi": 70,
      "hit": false,
      "t": 66960.88171484396,
      "d": 184.6155937500007,
      "v": 70
    },
    {
      "midi": 41,
      "hit": false,
      "t": 67145.86360937507,
      "d": 72.16125390624802,
      "v": 45
    },
    {
      "midi": 53,
      "hit": false,
      "t": 67145.86360937507,
      "d": 72.16125390624802,
      "v": 55
    },
    {
      "midi": 82,
      "hit": false,
      "t": 67145.8636093752,
      "d": 173.62657031249546,
      "v": 65
    },
    {
      "midi": 70,
      "hit": false,
      "t": 67145.8636093752,
      "d": 173.62657031249546,
      "v": 57
    },
    {
      "midi": 73,
      "hit": false,
      "t": 67145.8636093752,
      "d": 184.6155937500007,
      "v": 71
    },
    {
      "midi": 41,
      "hit": false,
      "t": 67330.84550390631,
      "d": 72.89385546874837,
      "v": 44
    },
    {
      "midi": 53,
      "hit": false,
      "t": 67330.84550390631,
      "d": 72.89385546874837,
      "v": 54
    },
    {
      "midi": 68,
      "hit": false,
      "t": 67330.84550390644,
      "d": 174.3591718749958,
      "v": 56
    },
    {
      "midi": 72,
      "hit": false,
      "t": 67330.84550390644,
      "d": 174.3591718749958,
      "v": 56
    },
    {
      "midi": 77,
      "hit": false,
      "t": 67330.84550390644,
      "d": 185.34819531250105,
      "v": 70
    },
    {
      "midi": 80,
      "hit": false,
      "t": 67330.84550390644,
      "d": 374.35939843750384,
      "v": 64
    },
    {
      "midi": 41,
      "hit": false,
      "t": 67518.02520312506,
      "d": 85.7143828124972,
      "v": 49
    },
    {
      "midi": 53,
      "hit": false,
      "t": 67518.02520312506,
      "d": 85.7143828124972,
      "v": 59
    },
    {
      "midi": 41,
      "hit": false,
      "t": 67716.56022656255,
      "d": 73.26015625000582,
      "v": 44
    },
    {
      "midi": 53,
      "hit": false,
      "t": 67716.56022656255,
      "d": 73.26015625000582,
      "v": 54
    },
    {
      "midi": 67,
      "hit": false,
      "t": 67716.5602265627,
      "d": 174.72547265625326,
      "v": 56
    },
    {
      "midi": 70,
      "hit": false,
      "t": 67716.5602265627,
      "d": 174.72547265625326,
      "v": 56
    },
    {
      "midi": 73,
      "hit": false,
      "t": 67716.5602265627,
      "d": 185.7144960937585,
      "v": 70
    },
    {
      "midi": 79,
      "hit": false,
      "t": 67716.5602265627,
      "d": 370.6963906250021,
      "v": 64
    },
    {
      "midi": 41,
      "hit": false,
      "t": 67902.64102343755,
      "d": 72.16125390624802,
      "v": 45
    },
    {
      "midi": 53,
      "hit": false,
      "t": 67902.64102343755,
      "d": 72.16125390624802,
      "v": 55
    },
    {
      "midi": 65,
      "hit": false,
      "t": 67902.6410234377,
      "d": 173.62657031249546,
      "v": 57
    },
    {
      "midi": 68,
      "hit": false,
      "t": 67902.6410234377,
      "d": 173.62657031249546,
      "v": 57
    },
    {
      "midi": 72,
      "hit": false,
      "t": 67902.6410234377,
      "d": 184.6155937500007,
      "v": 71
    },
    {
      "midi": 41,
      "hit": false,
      "t": 68087.6229179688,
      "d": 73.99275781250617,
      "v": 44
    },
    {
      "midi": 53,
      "hit": false,
      "t": 68087.6229179688,
      "d": 73.99275781250617,
      "v": 54
    },
    {
      "midi": 67,
      "hit": false,
      "t": 68087.62291796894,
      "d": 175.4580742187536,
      "v": 56
    },
    {
      "midi": 70,
      "hit": false,
      "t": 68087.62291796894,
      "d": 175.4580742187536,
      "v": 56
    },
    {
      "midi": 73,
      "hit": false,
      "t": 68087.62291796894,
      "d": 186.44709765625885,
      "v": 70
    },
    {
      "midi": 77,
      "hit": false,
      "t": 68087.62291796894,
      "d": 373.2604960937606,
      "v": 64
    },
    {
      "midi": 41,
      "hit": false,
      "t": 68274.4363164063,
      "d": 73.99275781250617,
      "v": 47
    },
    {
      "midi": 53,
      "hit": false,
      "t": 68274.4363164063,
      "d": 73.99275781250617,
      "v": 57
    },
    {
      "midi": 41,
      "hit": false,
      "t": 68461.2497148438,
      "d": 72.16125390624802,
      "v": 44
    },
    {
      "midi": 53,
      "hit": false,
      "t": 68461.2497148438,
      "d": 72.16125390624802,
      "v": 54
    },
    {
      "midi": 77,
      "hit": false,
      "t": 68461.24971484394,
      "d": 173.62657031249546,
      "v": 64
    },
    {
      "midi": 67,
      "hit": false,
      "t": 68461.24971484394,
      "d": 173.62657031249546,
      "v": 56
    },
    {
      "midi": 70,
      "hit": false,
      "t": 68461.24971484394,
      "d": 173.62657031249546,
      "v": 56
    },
    {
      "midi": 73,
      "hit": false,
      "t": 68461.24971484394,
      "d": 184.6155937500007,
      "v": 70
    },
    {
      "midi": 41,
      "hit": false,
      "t": 68646.23160937504,
      "d": 72.16125390624802,
      "v": 45
    },
    {
      "midi": 53,
      "hit": false,
      "t": 68646.23160937504,
      "d": 72.16125390624802,
      "v": 59
    },
    {
      "midi": 79,
      "hit": false,
      "t": 68646.23160937519,
      "d": 173.62657031249546,
      "v": 65
    },
    {
      "midi": 65,
      "hit": false,
      "t": 68646.23160937519,
      "d": 173.62657031249546,
      "v": 57
    },
    {
      "midi": 68,
      "hit": false,
      "t": 68646.23160937519,
      "d": 173.62657031249546,
      "v": 57
    },
    {
      "midi": 72,
      "hit": false,
      "t": 68646.23160937519,
      "d": 184.6155937500007,
      "v": 71
    },
    {
      "midi": 37,
      "hit": false,
      "t": 68831.21350390629,
      "d": 72.89385546874837,
      "v": 43
    },
    {
      "midi": 49,
      "hit": false,
      "t": 68831.21350390629,
      "d": 72.89385546874837,
      "v": 58
    },
    {
      "midi": 67,
      "hit": false,
      "t": 68831.21350390643,
      "d": 174.3591718749958,
      "v": 56
    },
    {
      "midi": 70,
      "hit": false,
      "t": 68831.21350390643,
      "d": 174.3591718749958,
      "v": 56
    },
    {
      "midi": 73,
      "hit": false,
      "t": 68831.21350390643,
      "d": 185.34819531250105,
      "v": 70
    },
    {
      "midi": 80,
      "hit": false,
      "t": 68831.21350390643,
      "d": 385.34842187499453,
      "v": 64
    },
    {
      "midi": 37,
      "hit": false,
      "t": 69018.39320312503,
      "d": 85.7143828124972,
      "v": 48
    },
    {
      "midi": 49,
      "hit": false,
      "t": 69018.39320312503,
      "d": 85.7143828124972,
      "v": 59
    },
    {
      "midi": 37,
      "hit": false,
      "t": 69216.92822656252,
      "d": 73.26015625000582,
      "v": 43
    },
    {
      "midi": 49,
      "hit": false,
      "t": 69216.92822656252,
      "d": 73.26015625000582,
      "v": 54
    },
    {
      "midi": 80,
      "hit": false,
      "t": 69216.92822656267,
      "d": 174.72547265625326,
      "v": 64
    },
    {
      "midi": 67,
      "hit": false,
      "t": 69216.92822656267,
      "d": 174.72547265625326,
      "v": 56
    },
    {
      "midi": 70,
      "hit": false,
      "t": 69216.92822656267,
      "d": 174.72547265625326,
      "v": 56
    },
    {
      "midi": 73,
      "hit": false,
      "t": 69216.92822656267,
      "d": 185.7144960937585,
      "v": 70
    },
    {
      "midi": 37,
      "hit": false,
      "t": 69403.00902343752,
      "d": 72.16125390624802,
      "v": 44
    },
    {
      "midi": 49,
      "hit": false,
      "t": 69403.00902343752,
      "d": 72.16125390624802,
      "v": 55
    },
    {
      "midi": 79,
      "hit": false,
      "t": 69403.00902343767,
      "d": 173.62657031249546,
      "v": 65
    },
    {
      "midi": 65,
      "hit": false,
      "t": 69403.00902343767,
      "d": 371.42899218750244,
      "v": 57
    },
    {
      "midi": 68,
      "hit": false,
      "t": 69403.00902343767,
      "d": 371.42899218750244,
      "v": 57
    },
    {
      "midi": 72,
      "hit": false,
      "t": 69403.00902343767,
      "d": 371.42899218750244,
      "v": 71
    },
    {
      "midi": 37,
      "hit": false,
      "t": 69587.99091796877,
      "d": 73.99275781250617,
      "v": 43
    },
    {
      "midi": 49,
      "hit": false,
      "t": 69587.99091796877,
      "d": 73.99275781250617,
      "v": 54
    },
    {
      "midi": 77,
      "hit": false,
      "t": 69587.99091796891,
      "d": 175.4580742187536,
      "v": 64
    },
    {
      "midi": 37,
      "hit": false,
      "t": 69774.80431640627,
      "d": 73.99275781250617,
      "v": 46
    },
    {
      "midi": 49,
      "hit": false,
      "t": 69774.80431640627,
      "d": 73.99275781250617,
      "v": 57
    },
    {
      "midi": 79,
      "hit": false,
      "t": 69774.80431640641,
      "d": 175.4580742187536,
      "v": 67
    },
    {
      "midi": 37,
      "hit": false,
      "t": 69961.61771484377,
      "d": 72.16125390624802,
      "v": 43
    },
    {
      "midi": 49,
      "hit": false,
      "t": 69961.61771484377,
      "d": 72.16125390624802,
      "v": 54
    },
    {
      "midi": 61,
      "hit": false,
      "t": 69961.61771484392,
      "d": 184.6155937500007,
      "v": 56
    },
    {
      "midi": 67,
      "hit": false,
      "t": 69961.61771484392,
      "d": 184.6155937500007,
      "v": 56
    },
    {
      "midi": 70,
      "hit": false,
      "t": 69961.61771484392,
      "d": 184.6155937500007,
      "v": 70
    },
    {
      "midi": 75,
      "hit": false,
      "t": 69961.61771484392,
      "d": 369.5974882812443,
      "v": 64
    },
    {
      "midi": 37,
      "hit": false,
      "t": 70146.59960937501,
      "d": 72.16125390624802,
      "v": 44
    },
    {
      "midi": 49,
      "hit": false,
      "t": 70146.59960937501,
      "d": 72.16125390624802,
      "v": 55
    },
    {
      "midi": 61,
      "hit": false,
      "t": 70146.59960937516,
      "d": 173.62657031249546,
      "v": 57
    },
    {
      "midi": 67,
      "hit": false,
      "t": 70146.59960937516,
      "d": 173.62657031249546,
      "v": 57
    },
    {
      "midi": 70,
      "hit": false,
      "t": 70146.59960937516,
      "d": 184.6155937500007,
      "v": 71
    },
    {
      "midi": 37,
      "hit": false,
      "t": 70331.58150390626,
      "d": 72.89385546874837,
      "v": 43
    },
    {
      "midi": 49,
      "hit": false,
      "t": 70331.58150390626,
      "d": 72.89385546874837,
      "v": 54
    },
    {
      "midi": 65,
      "hit": false,
      "t": 70331.5815039064,
      "d": 174.3591718749958,
      "v": 56
    },
    {
      "midi": 68,
      "hit": false,
      "t": 70331.5815039064,
      "d": 174.3591718749958,
      "v": 56
    },
    {
      "midi": 72,
      "hit": false,
      "t": 70331.5815039064,
      "d": 185.34819531250105,
      "v": 70
    },
    {
      "midi": 77,
      "hit": false,
      "t": 70331.5815039064,
      "d": 756.4111132812541,
      "v": 64
    },
    {
      "midi": 37,
      "hit": false,
      "t": 70518.761203125,
      "d": 85.7143828124972,
      "v": 48
    },
    {
      "midi": 49,
      "hit": false,
      "t": 70518.761203125,
      "d": 85.7143828124972,
      "v": 59
    },
    {
      "midi": 37,
      "hit": false,
      "t": 70717.2962265625,
      "d": 73.26015625000582,
      "v": 43
    },
    {
      "midi": 49,
      "hit": false,
      "t": 70717.2962265625,
      "d": 73.26015625000582,
      "v": 54
    },
    {
      "midi": 61,
      "hit": false,
      "t": 70717.29622656266,
      "d": 174.72547265625326,
      "v": 56
    },
    {
      "midi": 67,
      "hit": false,
      "t": 70717.29622656266,
      "d": 174.72547265625326,
      "v": 56
    },
    {
      "midi": 70,
      "hit": false,
      "t": 70717.29622656266,
      "d": 185.7144960937585,
      "v": 70
    },
    {
      "midi": 37,
      "hit": false,
      "t": 70903.3770234375,
      "d": 72.16125390624802,
      "v": 44
    },
    {
      "midi": 49,
      "hit": false,
      "t": 70903.3770234375,
      "d": 72.16125390624802,
      "v": 55
    },
    {
      "midi": 65,
      "hit": false,
      "t": 70903.37702343766,
      "d": 371.42899218750244,
      "v": 57
    },
    {
      "midi": 68,
      "hit": false,
      "t": 70903.37702343766,
      "d": 371.42899218750244,
      "v": 57
    },
    {
      "midi": 72,
      "hit": false,
      "t": 70903.37702343766,
      "d": 371.42899218750244,
      "v": 71
    },
    {
      "midi": 37,
      "hit": false,
      "t": 71088.35891796874,
      "d": 73.99275781250617,
      "v": 43
    },
    {
      "midi": 49,
      "hit": false,
      "t": 71088.35891796874,
      "d": 73.99275781250617,
      "v": 54
    },
    {
      "midi": 77,
      "hit": false,
      "t": 71088.3589179689,
      "d": 175.4580742187536,
      "v": 64
    },
    {
      "midi": 37,
      "hit": false,
      "t": 71275.17231640624,
      "d": 73.99275781250617,
      "v": 46
    },
    {
      "midi": 49,
      "hit": false,
      "t": 71275.17231640624,
      "d": 73.99275781250617,
      "v": 57
    },
    {
      "midi": 79,
      "hit": false,
      "t": 71275.1723164064,
      "d": 175.4580742187536,
      "v": 67
    },
    {
      "midi": 67,
      "hit": false,
      "t": 71275.1723164064,
      "d": 186.44709765625885,
      "v": 59
    },
    {
      "midi": 70,
      "hit": false,
      "t": 71275.1723164064,
      "d": 186.44709765625885,
      "v": 59
    },
    {
      "midi": 73,
      "hit": false,
      "t": 71275.1723164064,
      "d": 186.44709765625885,
      "v": 73
    },
    {
      "midi": 37,
      "hit": false,
      "t": 71461.98571484374,
      "d": 72.16125390624802,
      "v": 43
    },
    {
      "midi": 49,
      "hit": false,
      "t": 71461.98571484374,
      "d": 72.16125390624802,
      "v": 54
    },
    {
      "midi": 67,
      "hit": false,
      "t": 71461.9857148439,
      "d": 173.62657031249546,
      "v": 56
    },
    {
      "midi": 70,
      "hit": false,
      "t": 71461.9857148439,
      "d": 173.62657031249546,
      "v": 56
    },
    {
      "midi": 73,
      "hit": false,
      "t": 71461.9857148439,
      "d": 184.6155937500007,
      "v": 70
    },
    {
      "midi": 80,
      "hit": false,
      "t": 71461.9857148439,
      "d": 941.3930078124977,
      "v": 64
    },
    {
      "midi": 37,
      "hit": false,
      "t": 71646.96760937499,
      "d": 72.16125390624802,
      "v": 44
    },
    {
      "midi": 49,
      "hit": false,
      "t": 71646.96760937499,
      "d": 72.16125390624802,
      "v": 59
    },
    {
      "midi": 65,
      "hit": false,
      "t": 71646.96760937515,
      "d": 173.62657031249546,
      "v": 57
    },
    {
      "midi": 68,
      "hit": false,
      "t": 71646.96760937515,
      "d": 173.62657031249546,
      "v": 57
    },
    {
      "midi": 72,
      "hit": false,
      "t": 71646.96760937515,
      "d": 184.6155937500007,
      "v": 71
    },
    {
      "midi": 39,
      "hit": false,
      "t": 71831.94950390623,
      "d": 72.89385546874837,
      "v": 43
    },
    {
      "midi": 51,
      "hit": false,
      "t": 71831.94950390623,
      "d": 72.89385546874837,
      "v": 58
    },
    {
      "midi": 60,
      "hit": false,
      "t": 71831.94950390639,
      "d": 174.3591718749958,
      "v": 56
    },
    {
      "midi": 63,
      "hit": false,
      "t": 71831.94950390639,
      "d": 174.3591718749958,
      "v": 56
    },
    {
      "midi": 68,
      "hit": false,
      "t": 71831.94950390639,
      "d": 185.34819531250105,
      "v": 70
    },
    {
      "midi": 39,
      "hit": false,
      "t": 72019.12920312498,
      "d": 85.7143828124972,
      "v": 48
    },
    {
      "midi": 51,
      "hit": false,
      "t": 72019.12920312498,
      "d": 85.7143828124972,
      "v": 59
    },
    {
      "midi": 39,
      "hit": false,
      "t": 72217.66422656247,
      "d": 73.26015625000582,
      "v": 43
    },
    {
      "midi": 51,
      "hit": false,
      "t": 72217.66422656247,
      "d": 73.26015625000582,
      "v": 54
    },
    {
      "midi": 68,
      "hit": false,
      "t": 72217.66422656264,
      "d": 174.72547265625326,
      "v": 56
    },
    {
      "midi": 72,
      "hit": false,
      "t": 72217.66422656264,
      "d": 185.7144960937585,
      "v": 56
    },
    {
      "midi": 75,
      "hit": false,
      "t": 72217.66422656264,
      "d": 185.7144960937585,
      "v": 70
    },
    {
      "midi": 39,
      "hit": false,
      "t": 72403.74502343747,
      "d": 72.16125390624802,
      "v": 44
    },
    {
      "midi": 51,
      "hit": false,
      "t": 72403.74502343747,
      "d": 72.16125390624802,
      "v": 55
    },
    {
      "midi": 82,
      "hit": false,
      "t": 72403.74502343764,
      "d": 371.42899218750244,
      "v": 65
    },
    {
      "midi": 72,
      "hit": false,
      "t": 72403.74502343764,
      "d": 371.42899218750244,
      "v": 57
    },
    {
      "midi": 75,
      "hit": false,
      "t": 72403.74502343764,
      "d": 371.42899218750244,
      "v": 57
    },
    {
      "midi": 79,
      "hit": false,
      "t": 72403.74502343764,
      "d": 371.42899218750244,
      "v": 71
    },
    {
      "midi": 39,
      "hit": false,
      "t": 72588.72691796871,
      "d": 73.99275781250617,
      "v": 43
    },
    {
      "midi": 51,
      "hit": false,
      "t": 72588.72691796871,
      "d": 73.99275781250617,
      "v": 54
    },
    {
      "midi": 39,
      "hit": false,
      "t": 72775.54031640622,
      "d": 73.99275781250617,
      "v": 46
    },
    {
      "midi": 51,
      "hit": false,
      "t": 72775.54031640622,
      "d": 73.99275781250617,
      "v": 57
    },
    {
      "midi": 84,
      "hit": false,
      "t": 72775.54031640639,
      "d": 371.42899218750244,
      "v": 67
    },
    {
      "midi": 72,
      "hit": false,
      "t": 72775.54031640639,
      "d": 371.42899218750244,
      "v": 59
    },
    {
      "midi": 75,
      "hit": false,
      "t": 72775.54031640639,
      "d": 371.42899218750244,
      "v": 59
    },
    {
      "midi": 80,
      "hit": false,
      "t": 72775.54031640639,
      "d": 371.42899218750244,
      "v": 73
    },
    {
      "midi": 39,
      "hit": false,
      "t": 72962.35371484372,
      "d": 72.16125390624802,
      "v": 43
    },
    {
      "midi": 51,
      "hit": false,
      "t": 72962.35371484372,
      "d": 72.16125390624802,
      "v": 54
    },
    {
      "midi": 39,
      "hit": false,
      "t": 73147.33560937496,
      "d": 72.16125390624802,
      "v": 44
    },
    {
      "midi": 51,
      "hit": false,
      "t": 73147.33560937496,
      "d": 72.16125390624802,
      "v": 59
    },
    {
      "midi": 85,
      "hit": false,
      "t": 73147.33560937514,
      "d": 173.62657031249546,
      "v": 65
    },
    {
      "midi": 72,
      "hit": false,
      "t": 73147.33560937514,
      "d": 184.6155937500007,
      "v": 45
    },
    {
      "midi": 75,
      "hit": false,
      "t": 73147.33560937514,
      "d": 184.6155937500007,
      "v": 45
    },
    {
      "midi": 79,
      "hit": false,
      "t": 73147.33560937514,
      "d": 184.6155937500007,
      "v": 59
    },
    {
      "midi": 40,
      "hit": false,
      "t": 73332.3175039062,
      "d": 72.89385546874837,
      "v": 43
    },
    {
      "midi": 52,
      "hit": false,
      "t": 73332.3175039062,
      "d": 72.89385546874837,
      "v": 58
    },
    {
      "midi": 80,
      "hit": false,
      "t": 73332.31750390638,
      "d": 185.34819531250105,
      "v": 58
    },
    {
      "midi": 72,
      "hit": false,
      "t": 73332.31750390638,
      "d": 196.70351953124919,
      "v": 44
    },
    {
      "midi": 75,
      "hit": false,
      "t": 73332.31750390638,
      "d": 196.70351953124919,
      "v": 44
    },
    {
      "midi": 84,
      "hit": false,
      "t": 73332.31750390638,
      "d": 385.34842187499453,
      "v": 64
    },
    {
      "midi": 40,
      "hit": false,
      "t": 73519.49720312495,
      "d": 85.7143828124972,
      "v": 48
    },
    {
      "midi": 52,
      "hit": false,
      "t": 73519.49720312495,
      "d": 85.7143828124972,
      "v": 59
    },
    {
      "midi": 40,
      "hit": false,
      "t": 73718.03222656244,
      "d": 73.26015625000582,
      "v": 43
    },
    {
      "midi": 52,
      "hit": false,
      "t": 73718.03222656244,
      "d": 73.26015625000582,
      "v": 54
    },
    {
      "midi": 84,
      "hit": false,
      "t": 73718.03222656262,
      "d": 174.72547265625326,
      "v": 64
    },
    {
      "midi": 72,
      "hit": false,
      "t": 73718.03222656262,
      "d": 185.7144960937585,
      "v": 44
    },
    {
      "midi": 76,
      "hit": false,
      "t": 73718.03222656262,
      "d": 185.7144960937585,
      "v": 44
    },
    {
      "midi": 80,
      "hit": false,
      "t": 73718.03222656262,
      "d": 185.7144960937585,
      "v": 58
    },
    {
      "midi": 40,
      "hit": false,
      "t": 73904.11302343744,
      "d": 72.16125390624802,
      "v": 44
    },
    {
      "midi": 52,
      "hit": false,
      "t": 73904.11302343744,
      "d": 72.16125390624802,
      "v": 55
    },
    {
      "midi": 82,
      "hit": false,
      "t": 73904.11302343762,
      "d": 371.42899218750244,
      "v": 65
    },
    {
      "midi": 72,
      "hit": false,
      "t": 73904.11302343762,
      "d": 371.42899218750244,
      "v": 57
    },
    {
      "midi": 76,
      "hit": false,
      "t": 73904.11302343762,
      "d": 371.42899218750244,
      "v": 57
    },
    {
      "midi": 79,
      "hit": false,
      "t": 73904.11302343762,
      "d": 371.42899218750244,
      "v": 71
    },
    {
      "midi": 40,
      "hit": false,
      "t": 74089.09491796869,
      "d": 73.99275781250617,
      "v": 43
    },
    {
      "midi": 52,
      "hit": false,
      "t": 74089.09491796869,
      "d": 73.99275781250617,
      "v": 54
    },
    {
      "midi": 40,
      "hit": false,
      "t": 74275.90831640619,
      "d": 73.99275781250617,
      "v": 46
    },
    {
      "midi": 52,
      "hit": false,
      "t": 74275.90831640619,
      "d": 73.99275781250617,
      "v": 57
    },
    {
      "midi": 80,
      "hit": false,
      "t": 74275.90831640636,
      "d": 371.42899218750244,
      "v": 67
    },
    {
      "midi": 40,
      "hit": false,
      "t": 74462.72171484369,
      "d": 72.16125390624802,
      "v": 43
    },
    {
      "midi": 52,
      "hit": false,
      "t": 74462.72171484369,
      "d": 72.16125390624802,
      "v": 54
    },
    {
      "midi": 68,
      "hit": false,
      "t": 74462.72171484386,
      "d": 173.62657031249546,
      "v": 56
    },
    {
      "midi": 64,
      "hit": false,
      "t": 74462.72171484386,
      "d": 184.6155937500007,
      "v": 56
    },
    {
      "midi": 72,
      "hit": false,
      "t": 74462.72171484386,
      "d": 184.6155937500007,
      "v": 70
    },
    {
      "midi": 40,
      "hit": false,
      "t": 74647.70360937493,
      "d": 72.16125390624802,
      "v": 44
    },
    {
      "midi": 52,
      "hit": false,
      "t": 74647.70360937493,
      "d": 72.16125390624802,
      "v": 59
    },
    {
      "midi": 76,
      "hit": false,
      "t": 74647.70360937511,
      "d": 173.62657031249546,
      "v": 65
    },
    {
      "midi": 64,
      "hit": false,
      "t": 74647.70360937511,
      "d": 173.62657031249546,
      "v": 57
    },
    {
      "midi": 67,
      "hit": false,
      "t": 74647.70360937511,
      "d": 184.6155937500007,
      "v": 57
    },
    {
      "midi": 72,
      "hit": false,
      "t": 74647.70360937511,
      "d": 184.6155937500007,
      "v": 71
    },
    {
      "midi": 41,
      "hit": false,
      "t": 74832.68550390618,
      "d": 72.89385546874837,
      "v": 44
    },
    {
      "midi": 53,
      "hit": false,
      "t": 74832.68550390618,
      "d": 72.89385546874837,
      "v": 58
    },
    {
      "midi": 79,
      "hit": false,
      "t": 74832.68550390635,
      "d": 571.4292187499959,
      "v": 64
    },
    {
      "midi": 67,
      "hit": false,
      "t": 74832.68550390635,
      "d": 571.4292187499959,
      "v": 56
    },
    {
      "midi": 70,
      "hit": false,
      "t": 74832.68550390635,
      "d": 571.4292187499959,
      "v": 56
    },
    {
      "midi": 73,
      "hit": false,
      "t": 74832.68550390635,
      "d": 571.4292187499959,
      "v": 70
    },
    {
      "midi": 41,
      "hit": false,
      "t": 75019.86520312492,
      "d": 756.0448124999966,
      "v": 61
    },
    {
      "midi": 53,
      "hit": false,
      "t": 75019.86520312492,
      "d": 756.0448124999966,
      "v": 75
    },
    {
      "midi": 65,
      "hit": false,
      "t": 75404.48102343759,
      "d": 743.2242851562478,
      "v": 57
    },
    {
      "midi": 68,
      "hit": false,
      "t": 75404.48102343759,
      "d": 743.2242851562478,
      "v": 57
    },
    {
      "midi": 72,
      "hit": false,
      "t": 75404.48102343759,
      "d": 743.2242851562478,
      "v": 71
    },
    {
      "midi": 77,
      "hit": false,
      "t": 75404.48102343759,
      "d": 1113.9206757812499,
      "v": 64
    },
    {
      "midi": 48,
      "hit": false,
      "t": 76718.76822656242,
      "d": 174.72547265625326,
      "v": 56
    },
    {
      "midi": 53,
      "hit": false,
      "t": 76718.76822656242,
      "d": 174.72547265625326,
      "v": 56
    },
    {
      "midi": 56,
      "hit": false,
      "t": 76718.76822656242,
      "d": 185.7144960937585,
      "v": 70
    },
    {
      "midi": 60,
      "hit": false,
      "t": 76718.76822656259,
      "d": 174.72547265625326,
      "v": 56
    },
    {
      "midi": 65,
      "hit": false,
      "t": 76718.76822656259,
      "d": 174.72547265625326,
      "v": 56
    },
    {
      "midi": 68,
      "hit": false,
      "t": 76718.76822656259,
      "d": 185.7144960937585,
      "v": 66
    },
    {
      "midi": 48,
      "hit": false,
      "t": 77276.64431640618,
      "d": 73.99275781250617,
      "v": 47
    },
    {
      "midi": 53,
      "hit": false,
      "t": 77276.64431640618,
      "d": 73.99275781250617,
      "v": 47
    },
    {
      "midi": 56,
      "hit": false,
      "t": 77276.64431640618,
      "d": 73.99275781250617,
      "v": 57
    },
    {
      "midi": 60,
      "hit": false,
      "t": 77276.64431640635,
      "d": 73.99275781250617,
      "v": 47
    },
    {
      "midi": 65,
      "hit": false,
      "t": 77276.64431640635,
      "d": 73.99275781250617,
      "v": 47
    },
    {
      "midi": 68,
      "hit": false,
      "t": 77276.64431640635,
      "d": 73.99275781250617,
      "v": 57
    },
    {
      "midi": 48,
      "hit": false,
      "t": 77463.45771484368,
      "d": 72.16125390624802,
      "v": 44
    },
    {
      "midi": 53,
      "hit": false,
      "t": 77463.45771484368,
      "d": 83.51657812499616,
      "v": 44
    },
    {
      "midi": 56,
      "hit": false,
      "t": 77463.45771484368,
      "d": 83.51657812499616,
      "v": 54
    },
    {
      "midi": 60,
      "hit": false,
      "t": 77463.45771484385,
      "d": 72.16125390624802,
      "v": 44
    },
    {
      "midi": 65,
      "hit": false,
      "t": 77463.45771484385,
      "d": 83.51657812499616,
      "v": 44
    },
    {
      "midi": 68,
      "hit": false,
      "t": 77463.45771484385,
      "d": 83.51657812499616,
      "v": 58
    }
  ]
}