{
  "jsonPath": "Soundtracks/Video Game Music/Street Fighter 2/street-fighter-ii-chun-li-stage.json",
  "path": "Soundtracks\\Video Game Music\\Street Fighter 2\\Street_Fighter_II_Chun_Li_Stage.mid",
  "name": "Street_Fighter_II_Chun_Li_Stage",
  "difficulty": "Advanced",
  "bpm": 120.00024000048,
  "notes": [
    {
      "midi": 57,
      "hit": false,
      "t": 4.882841796875,
      "d": 64.45351171875001,
      "v": 61
    },
    {
      "midi": 62,
      "hit": false,
      "t": 4.882841796875,
      "d": 64.45351171875001,
      "v": 71
    },
    {
      "midi": 50,
      "hit": false,
      "t": 4.882841796875,
      "d": 1994.6408740234376,
      "v": 72
    },
    {
      "midi": 57,
      "hit": false,
      "t": 4.882841796875,
      "d": 1994.6408740234376,
      "v": 86
    },
    {
      "midi": 57,
      "hit": false,
      "t": 145.0204013671875,
      "d": 45.898712890625006,
      "v": 56
    },
    {
      "midi": 62,
      "hit": false,
      "t": 145.0204013671875,
      "d": 45.898712890625006,
      "v": 70
    },
    {
      "midi": 55,
      "hit": false,
      "t": 266.60316210937503,
      "d": 45.898712890625006,
      "v": 56
    },
    {
      "midi": 60,
      "hit": false,
      "t": 266.60316210937503,
      "d": 45.898712890625006,
      "v": 70
    },
    {
      "midi": 55,
      "hit": false,
      "t": 388.1859228515625,
      "d": 50.78155468749998,
      "v": 56
    },
    {
      "midi": 60,
      "hit": false,
      "t": 388.1859228515625,
      "d": 50.78155468749998,
      "v": 70
    },
    {
      "midi": 57,
      "hit": false,
      "t": 514.651525390625,
      "d": 96.19198339843751,
      "v": 57
    },
    {
      "midi": 62,
      "hit": false,
      "t": 514.651525390625,
      "d": 96.19198339843751,
      "v": 71
    },
    {
      "midi": 60,
      "hit": false,
      "t": 761.2350361328125,
      "d": 98.63340429687503,
      "v": 56
    },
    {
      "midi": 65,
      "hit": false,
      "t": 761.2350361328125,
      "d": 98.63340429687503,
      "v": 70
    },
    {
      "midi": 57,
      "hit": false,
      "t": 1010.2599677734376,
      "d": 52.73469140624991,
      "v": 59
    },
    {
      "midi": 62,
      "hit": false,
      "t": 1010.2599677734376,
      "d": 52.73469140624991,
      "v": 73
    },
    {
      "midi": 57,
      "hit": false,
      "t": 1138.67870703125,
      "d": 44.92214453125007,
      "v": 56
    },
    {
      "midi": 62,
      "hit": false,
      "t": 1138.67870703125,
      "d": 44.92214453125007,
      "v": 70
    },
    {
      "midi": 55,
      "hit": false,
      "t": 1259.2848994140627,
      "d": 45.410428710937595,
      "v": 56
    },
    {
      "midi": 60,
      "hit": false,
      "t": 1259.2848994140627,
      "d": 45.410428710937595,
      "v": 70
    },
    {
      "midi": 55,
      "hit": false,
      "t": 1380.3793759765629,
      "d": 49.804986328125096,
      "v": 56
    },
    {
      "midi": 60,
      "hit": false,
      "t": 1380.3793759765629,
      "d": 49.804986328125096,
      "v": 70
    },
    {
      "midi": 57,
      "hit": false,
      "t": 1505.8684101562505,
      "d": 49.804986328125096,
      "v": 57
    },
    {
      "midi": 62,
      "hit": false,
      "t": 1505.8684101562505,
      "d": 49.804986328125096,
      "v": 71
    },
    {
      "midi": 64,
      "hit": false,
      "t": 1631.3574443359382,
      "d": 45.410428710937595,
      "v": 56
    },
    {
      "midi": 69,
      "hit": false,
      "t": 1631.3574443359382,
      "d": 45.410428710937595,
      "v": 70
    },
    {
      "midi": 62,
      "hit": false,
      "t": 1752.4519208984384,
      "d": 97.16855175781257,
      "v": 56
    },
    {
      "midi": 67,
      "hit": false,
      "t": 1752.4519208984384,
      "d": 97.16855175781257,
      "v": 70
    },
    {
      "midi": 50,
      "hit": false,
      "t": 2001.96513671875,
      "d": 1997.5705791015614,
      "v": 72
    },
    {
      "midi": 57,
      "hit": false,
      "t": 2001.965136718751,
      "d": 67.3832167968751,
      "v": 61
    },
    {
      "midi": 62,
      "hit": false,
      "t": 2001.965136718751,
      "d": 67.3832167968751,
      "v": 75
    },
    {
      "midi": 57,
      "hit": false,
      "t": 2145.0324013671884,
      "d": 45.89871289062512,
      "v": 56
    },
    {
      "midi": 62,
      "hit": false,
      "t": 2145.0324013671884,
      "d": 45.89871289062512,
      "v": 70
    },
    {
      "midi": 55,
      "hit": false,
      "t": 2266.615162109376,
      "d": 45.89871289062512,
      "v": 56
    },
    {
      "midi": 60,
      "hit": false,
      "t": 2266.615162109376,
      "d": 45.89871289062512,
      "v": 70
    },
    {
      "midi": 55,
      "hit": false,
      "t": 2388.1979228515634,
      "d": 50.78155468749992,
      "v": 56
    },
    {
      "midi": 60,
      "hit": false,
      "t": 2388.1979228515634,
      "d": 50.78155468749992,
      "v": 70
    },
    {
      "midi": 57,
      "hit": false,
      "t": 2514.6635253906256,
      "d": 96.19198339843751,
      "v": 57
    },
    {
      "midi": 62,
      "hit": false,
      "t": 2514.6635253906256,
      "d": 96.19198339843751,
      "v": 71
    },
    {
      "midi": 60,
      "hit": false,
      "t": 2761.2470361328133,
      "d": 98.63340429687514,
      "v": 56
    },
    {
      "midi": 65,
      "hit": false,
      "t": 2761.2470361328133,
      "d": 98.63340429687514,
      "v": 70
    },
    {
      "midi": 57,
      "hit": false,
      "t": 3010.2719677734376,
      "d": 52.73469140625002,
      "v": 59
    },
    {
      "midi": 62,
      "hit": false,
      "t": 3010.2719677734376,
      "d": 52.73469140625002,
      "v": 73
    },
    {
      "midi": 57,
      "hit": false,
      "t": 3138.69070703125,
      "d": 44.92214453125007,
      "v": 56
    },
    {
      "midi": 62,
      "hit": false,
      "t": 3138.69070703125,
      "d": 44.92214453125007,
      "v": 70
    },
    {
      "midi": 55,
      "hit": false,
      "t": 3259.2968994140624,
      "d": 45.410428710937595,
      "v": 56
    },
    {
      "midi": 60,
      "hit": false,
      "t": 3259.2968994140624,
      "d": 45.410428710937595,
      "v": 70
    },
    {
      "midi": 55,
      "hit": false,
      "t": 3380.3913759765624,
      "d": 49.80498632812487,
      "v": 56
    },
    {
      "midi": 60,
      "hit": false,
      "t": 3380.3913759765624,
      "d": 49.80498632812487,
      "v": 70
    },
    {
      "midi": 57,
      "hit": false,
      "t": 3505.8804101562496,
      "d": 49.80498632812487,
      "v": 57
    },
    {
      "midi": 62,
      "hit": false,
      "t": 3505.8804101562496,
      "d": 49.80498632812487,
      "v": 71
    },
    {
      "midi": 79,
      "hit": false,
      "t": 3505.880410156251,
      "d": 493.6553056640623,
      "v": 57
    },
    {
      "midi": 91,
      "hit": false,
      "t": 3505.880410156251,
      "d": 493.6553056640623,
      "v": 71
    },
    {
      "midi": 64,
      "hit": false,
      "t": 3631.369444335937,
      "d": 45.410428710937595,
      "v": 56
    },
    {
      "midi": 69,
      "hit": false,
      "t": 3631.369444335937,
      "d": 45.410428710937595,
      "v": 70
    },
    {
      "midi": 62,
      "hit": false,
      "t": 3752.4639208984368,
      "d": 45.410428710937595,
      "v": 56
    },
    {
      "midi": 67,
      "hit": false,
      "t": 3752.4639208984368,
      "d": 45.410428710937595,
      "v": 70
    },
    {
      "midi": 60,
      "hit": false,
      "t": 3873.5583974609367,
      "d": 50.78155468749992,
      "v": 56
    },
    {
      "midi": 65,
      "hit": false,
      "t": 3873.5583974609367,
      "d": 50.78155468749992,
      "v": 70
    },
    {
      "midi": 50,
      "hit": false,
      "t": 4001.977136718749,
      "d": 1997.5705791015594,
      "v": 72
    },
    {
      "midi": 81,
      "hit": false,
      "t": 4001.977136718751,
      "d": 758.793615234375,
      "v": 61
    },
    {
      "midi": 93,
      "hit": false,
      "t": 4001.977136718751,
      "d": 758.793615234375,
      "v": 75
    },
    {
      "midi": 57,
      "hit": false,
      "t": 4145.044401367187,
      "d": 45.898712890624665,
      "v": 56
    },
    {
      "midi": 62,
      "hit": false,
      "t": 4145.044401367187,
      "d": 45.898712890624665,
      "v": 70
    },
    {
      "midi": 55,
      "hit": false,
      "t": 4266.627162109374,
      "d": 45.898712890624665,
      "v": 56
    },
    {
      "midi": 60,
      "hit": false,
      "t": 4266.627162109374,
      "d": 45.898712890624665,
      "v": 70
    },
    {
      "midi": 55,
      "hit": false,
      "t": 4388.209922851561,
      "d": 50.78155468749992,
      "v": 56
    },
    {
      "midi": 60,
      "hit": false,
      "t": 4388.209922851561,
      "d": 50.78155468749992,
      "v": 70
    },
    {
      "midi": 57,
      "hit": false,
      "t": 4514.675525390623,
      "d": 96.19198339843751,
      "v": 57
    },
    {
      "midi": 62,
      "hit": false,
      "t": 4514.675525390623,
      "d": 96.19198339843751,
      "v": 71
    },
    {
      "midi": 60,
      "hit": false,
      "t": 4761.25903613281,
      "d": 98.63340429687469,
      "v": 56
    },
    {
      "midi": 65,
      "hit": false,
      "t": 4761.25903613281,
      "d": 98.63340429687469,
      "v": 70
    },
    {
      "midi": 84,
      "hit": false,
      "t": 4761.259036132813,
      "d": 233.88812207031242,
      "v": 56
    },
    {
      "midi": 96,
      "hit": false,
      "t": 4761.259036132813,
      "d": 248.53664746093727,
      "v": 70
    },
    {
      "midi": 57,
      "hit": false,
      "t": 5010.283967773435,
      "d": 52.73469140625002,
      "v": 59
    },
    {
      "midi": 62,
      "hit": false,
      "t": 5010.283967773435,
      "d": 52.73469140625002,
      "v": 73
    },
    {
      "midi": 81,
      "hit": false,
      "t": 5010.283967773437,
      "d": 495.12015820312536,
      "v": 59
    },
    {
      "midi": 93,
      "hit": false,
      "t": 5010.283967773437,
      "d": 495.12015820312536,
      "v": 73
    },
    {
      "midi": 57,
      "hit": false,
      "t": 5138.702707031247,
      "d": 44.922144531249614,
      "v": 56
    },
    {
      "midi": 62,
      "hit": false,
      "t": 5138.702707031247,
      "d": 44.922144531249614,
      "v": 70
    },
    {
      "midi": 55,
      "hit": false,
      "t": 5259.308899414059,
      "d": 45.410428710937595,
      "v": 56
    },
    {
      "midi": 60,
      "hit": false,
      "t": 5259.308899414059,
      "d": 45.410428710937595,
      "v": 70
    },
    {
      "midi": 55,
      "hit": false,
      "t": 5380.403375976559,
      "d": 49.80498632812487,
      "v": 56
    },
    {
      "midi": 60,
      "hit": false,
      "t": 5380.403375976559,
      "d": 49.80498632812487,
      "v": 70
    },
    {
      "midi": 57,
      "hit": false,
      "t": 5505.892410156246,
      "d": 49.80498632812487,
      "v": 57
    },
    {
      "midi": 62,
      "hit": false,
      "t": 5505.892410156246,
      "d": 49.80498632812487,
      "v": 71
    },
    {
      "midi": 79,
      "hit": false,
      "t": 5505.89241015625,
      "d": 231.44670117187525,
      "v": 57
    },
    {
      "midi": 91,
      "hit": false,
      "t": 5505.89241015625,
      "d": 246.0952265625001,
      "v": 71
    },
    {
      "midi": 64,
      "hit": false,
      "t": 5631.381444335933,
      "d": 45.410428710937595,
      "v": 56
    },
    {
      "midi": 69,
      "hit": false,
      "t": 5631.381444335933,
      "d": 45.410428710937595,
      "v": 70
    },
    {
      "midi": 62,
      "hit": false,
      "t": 5752.475920898433,
      "d": 97.16855175781257,
      "v": 56
    },
    {
      "midi": 67,
      "hit": false,
      "t": 5752.475920898433,
      "d": 97.16855175781257,
      "v": 70
    },
    {
      "midi": 77,
      "hit": false,
      "t": 5752.475920898437,
      "d": 232.4232695312503,
      "v": 56
    },
    {
      "midi": 89,
      "hit": false,
      "t": 5752.475920898437,
      "d": 247.07179492187515,
      "v": 70
    },
    {
      "midi": 74,
      "hit": false,
      "t": 6001.989136718749,
      "d": 385.7445019531251,
      "v": 61
    },
    {
      "midi": 86,
      "hit": false,
      "t": 6001.989136718749,
      "d": 385.7445019531251,
      "v": 75
    },
    {
      "midi": 57,
      "hit": false,
      "t": 6145.056401367183,
      "d": 45.898712890624665,
      "v": 56
    },
    {
      "midi": 62,
      "hit": false,
      "t": 6145.056401367183,
      "d": 45.898712890624665,
      "v": 70
    },
    {
      "midi": 55,
      "hit": false,
      "t": 6266.63916210937,
      "d": 45.898712890624665,
      "v": 56
    },
    {
      "midi": 60,
      "hit": false,
      "t": 6266.63916210937,
      "d": 45.898712890624665,
      "v": 70
    },
    {
      "midi": 55,
      "hit": false,
      "t": 6388.221922851557,
      "d": 50.78155468749992,
      "v": 56
    },
    {
      "midi": 60,
      "hit": false,
      "t": 6388.221922851557,
      "d": 50.78155468749992,
      "v": 70
    },
    {
      "midi": 74,
      "hit": false,
      "t": 6388.221922851561,
      "d": 125.9773183593752,
      "v": 56
    },
    {
      "midi": 86,
      "hit": false,
      "t": 6388.221922851561,
      "d": 125.9773183593752,
      "v": 66
    },
    {
      "midi": 57,
      "hit": false,
      "t": 6514.687525390619,
      "d": 96.19198339843751,
      "v": 57
    },
    {
      "midi": 62,
      "hit": false,
      "t": 6514.687525390619,
      "d": 96.19198339843751,
      "v": 71
    },
    {
      "midi": 74,
      "hit": false,
      "t": 6514.687525390624,
      "d": 231.44670117187525,
      "v": 57
    },
    {
      "midi": 86,
      "hit": false,
      "t": 6514.687525390624,
      "d": 246.0952265625001,
      "v": 71
    },
    {
      "midi": 60,
      "hit": false,
      "t": 6761.271036132806,
      "d": 98.63340429687469,
      "v": 56
    },
    {
      "midi": 65,
      "hit": false,
      "t": 6761.271036132806,
      "d": 98.63340429687469,
      "v": 70
    },
    {
      "midi": 72,
      "hit": false,
      "t": 6761.271036132811,
      "d": 233.88812207031242,
      "v": 56
    },
    {
      "midi": 84,
      "hit": false,
      "t": 6761.271036132811,
      "d": 248.53664746093727,
      "v": 70
    },
    {
      "midi": 57,
      "hit": false,
      "t": 7010.295967773431,
      "d": 52.73469140625002,
      "v": 59
    },
    {
      "midi": 62,
      "hit": false,
      "t": 7010.295967773431,
      "d": 52.73469140625002,
      "v": 73
    },
    {
      "midi": 74,
      "hit": false,
      "t": 7010.295967773435,
      "d": 495.12015820312536,
      "v": 59
    },
    {
      "midi": 86,
      "hit": false,
      "t": 7010.295967773435,
      "d": 495.12015820312536,
      "v": 73
    },
    {
      "midi": 57,
      "hit": false,
      "t": 7138.714707031243,
      "d": 44.922144531249614,
      "v": 56
    },
    {
      "midi": 62,
      "hit": false,
      "t": 7138.714707031243,
      "d": 44.922144531249614,
      "v": 70
    },
    {
      "midi": 55,
      "hit": false,
      "t": 7259.320899414055,
      "d": 45.410428710937595,
      "v": 56
    },
    {
      "midi": 60,
      "hit": false,
      "t": 7259.320899414055,
      "d": 45.410428710937595,
      "v": 70
    },
    {
      "midi": 55,
      "hit": false,
      "t": 7380.415375976555,
      "d": 49.80498632812487,
      "v": 56
    },
    {
      "midi": 60,
      "hit": false,
      "t": 7380.415375976555,
      "d": 49.80498632812487,
      "v": 70
    },
    {
      "midi": 57,
      "hit": false,
      "t": 7505.904410156242,
      "d": 49.80498632812487,
      "v": 57
    },
    {
      "midi": 62,
      "hit": false,
      "t": 7505.904410156242,
      "d": 49.80498632812487,
      "v": 71
    },
    {
      "midi": 77,
      "hit": false,
      "t": 7505.904410156248,
      "d": 231.44670117187525,
      "v": 57
    },
    {
      "midi": 89,
      "hit": false,
      "t": 7505.904410156248,
      "d": 246.0952265625001,
      "v": 71
    },
    {
      "midi": 64,
      "hit": false,
      "t": 7631.393444335929,
      "d": 45.410428710937595,
      "v": 56
    },
    {
      "midi": 69,
      "hit": false,
      "t": 7631.393444335929,
      "d": 45.410428710937595,
      "v": 70
    },
    {
      "midi": 62,
      "hit": false,
      "t": 7752.487920898429,
      "d": 45.410428710937595,
      "v": 56
    },
    {
      "midi": 67,
      "hit": false,
      "t": 7752.487920898429,
      "d": 45.410428710937595,
      "v": 70
    },
    {
      "midi": 79,
      "hit": false,
      "t": 7752.487920898435,
      "d": 232.4232695312503,
      "v": 56
    },
    {
      "midi": 91,
      "hit": false,
      "t": 7752.487920898435,
      "d": 247.07179492187515,
      "v": 70
    },
    {
      "midi": 60,
      "hit": false,
      "t": 7873.582397460929,
      "d": 50.78155468749992,
      "v": 56
    },
    {
      "midi": 65,
      "hit": false,
      "t": 7873.582397460929,
      "d": 50.78155468749992,
      "v": 70
    },
    {
      "midi": 50,
      "hit": false,
      "t": 8002.001136718742,
      "d": 1997.5705791015607,
      "v": 72
    },
    {
      "midi": 81,
      "hit": false,
      "t": 8002.001136718747,
      "d": 385.7445019531242,
      "v": 61
    },
    {
      "midi": 93,
      "hit": false,
      "t": 8002.001136718747,
      "d": 385.7445019531242,
      "v": 75
    },
    {
      "midi": 57,
      "hit": false,
      "t": 8145.068401367179,
      "d": 45.898712890624665,
      "v": 56
    },
    {
      "midi": 62,
      "hit": false,
      "t": 8145.068401367179,
      "d": 45.898712890624665,
      "v": 70
    },
    {
      "midi": 55,
      "hit": false,
      "t": 8266.651162109367,
      "d": 45.898712890624665,
      "v": 56
    },
    {
      "midi": 60,
      "hit": false,
      "t": 8266.651162109367,
      "d": 45.898712890624665,
      "v": 70
    },
    {
      "midi": 55,
      "hit": false,
      "t": 8388.233922851554,
      "d": 50.78155468750083,
      "v": 56
    },
    {
      "midi": 60,
      "hit": false,
      "t": 8388.233922851554,
      "d": 50.78155468750083,
      "v": 70
    },
    {
      "midi": 79,
      "hit": false,
      "t": 8388.23392285156,
      "d": 118.65305566406278,
      "v": 56
    },
    {
      "midi": 91,
      "hit": false,
      "t": 8388.23392285156,
      "d": 125.9773183593752,
      "v": 70
    },
    {
      "midi": 57,
      "hit": false,
      "t": 8514.699525390617,
      "d": 96.19198339843751,
      "v": 57
    },
    {
      "midi": 62,
      "hit": false,
      "t": 8514.699525390617,
      "d": 96.19198339843751,
      "v": 71
    },
    {
      "midi": 81,
      "hit": false,
      "t": 8514.699525390623,
      "d": 367.18970312499914,
      "v": 57
    },
    {
      "midi": 93,
      "hit": false,
      "t": 8514.699525390623,
      "d": 367.18970312499914,
      "v": 71
    },
    {
      "midi": 60,
      "hit": false,
      "t": 8761.283036132805,
      "d": 98.6334042968756,
      "v": 56
    },
    {
      "midi": 65,
      "hit": false,
      "t": 8761.283036132805,
      "d": 98.6334042968756,
      "v": 70
    },
    {
      "midi": 79,
      "hit": false,
      "t": 8882.37751269531,
      "d": 120.1179082031249,
      "v": 56
    },
    {
      "midi": 91,
      "hit": false,
      "t": 8882.37751269531,
      "d": 127.44217089843733,
      "v": 70
    },
    {
      "midi": 57,
      "hit": false,
      "t": 9010.307967773431,
      "d": 52.73469140624911,
      "v": 59
    },
    {
      "midi": 62,
      "hit": false,
      "t": 9010.307967773431,
      "d": 52.73469140624911,
      "v": 73
    },
    {
      "midi": 81,
      "hit": false,
      "t": 9010.307967773435,
      "d": 233.88812207031333,
      "v": 59
    },
    {
      "midi": 93,
      "hit": false,
      "t": 9010.307967773435,
      "d": 248.53664746093818,
      "v": 73
    },
    {
      "midi": 57,
      "hit": false,
      "t": 9138.726707031243,
      "d": 44.922144531250524,
      "v": 56
    },
    {
      "midi": 62,
      "hit": false,
      "t": 9138.726707031243,
      "d": 44.922144531250524,
      "v": 70
    },
    {
      "midi": 55,
      "hit": false,
      "t": 9259.332899414056,
      "d": 45.410428710936685,
      "v": 56
    },
    {
      "midi": 60,
      "hit": false,
      "t": 9259.332899414056,
      "d": 45.410428710936685,
      "v": 70
    },
    {
      "midi": 84,
      "hit": false,
      "t": 9259.332899414061,
      "d": 231.44670117187525,
      "v": 56
    },
    {
      "midi": 96,
      "hit": false,
      "t": 9259.332899414061,
      "d": 246.0952265625001,
      "v": 70
    },
    {
      "midi": 55,
      "hit": false,
      "t": 9380.427375976555,
      "d": 49.80498632812487,
      "v": 56
    },
    {
      "midi": 60,
      "hit": false,
      "t": 9380.427375976555,
      "d": 49.80498632812487,
      "v": 70
    },
    {
      "midi": 57,
      "hit": false,
      "t": 9505.916410156242,
      "d": 49.80498632812487,
      "v": 57
    },
    {
      "midi": 62,
      "hit": false,
      "t": 9505.916410156242,
      "d": 49.80498632812487,
      "v": 71
    },
    {
      "midi": 86,
      "hit": false,
      "t": 9505.91641015625,
      "d": 231.44670117187525,
      "v": 57
    },
    {
      "midi": 98,
      "hit": false,
      "t": 9505.91641015625,
      "d": 246.0952265625001,
      "v": 71
    },
    {
      "midi": 64,
      "hit": false,
      "t": 9631.40544433593,
      "d": 45.410428710936685,
      "v": 56
    },
    {
      "midi": 69,
      "hit": false,
      "t": 9631.40544433593,
      "d": 45.410428710936685,
      "v": 70
    },
    {
      "midi": 62,
      "hit": false,
      "t": 9752.499920898428,
      "d": 97.16855175781166,
      "v": 56
    },
    {
      "midi": 67,
      "hit": false,
      "t": 9752.499920898428,
      "d": 97.16855175781166,
      "v": 70
    },
    {
      "midi": 88,
      "hit": false,
      "t": 9752.499920898437,
      "d": 232.4232695312494,
      "v": 56
    },
    {
      "midi": 100,
      "hit": false,
      "t": 9752.499920898437,
      "d": 247.07179492187424,
      "v": 70
    },
    {
      "midi": 86,
      "hit": false,
      "t": 10002.01313671875,
      "d": 385.7445019531242,
      "v": 61
    },
    {
      "midi": 98,
      "hit": false,
      "t": 10002.01313671875,
      "d": 385.7445019531242,
      "v": 75
    },
    {
      "midi": 57,
      "hit": false,
      "t": 10145.080401367179,
      "d": 45.898712890624665,
      "v": 56
    },
    {
      "midi": 62,
      "hit": false,
      "t": 10145.080401367179,
      "d": 45.898712890624665,
      "v": 70
    },
    {
      "midi": 55,
      "hit": false,
      "t": 10266.663162109366,
      "d": 45.898712890624665,
      "v": 56
    },
    {
      "midi": 60,
      "hit": false,
      "t": 10266.663162109366,
      "d": 45.898712890624665,
      "v": 70
    },
    {
      "midi": 55,
      "hit": false,
      "t": 10388.245922851553,
      "d": 50.78155468750083,
      "v": 56
    },
    {
      "midi": 60,
      "hit": false,
      "t": 10388.245922851553,
      "d": 50.78155468750083,
      "v": 70
    },
    {
      "midi": 86,
      "hit": false,
      "t": 10388.245922851562,
      "d": 125.9773183593752,
      "v": 56
    },
    {
      "midi": 98,
      "hit": false,
      "t": 10388.245922851562,
      "d": 125.9773183593752,
      "v": 66
    },
    {
      "midi": 57,
      "hit": false,
      "t": 10514.711525390616,
      "d": 96.19198339843751,
      "v": 57
    },
    {
      "midi": 62,
      "hit": false,
      "t": 10514.711525390616,
      "d": 96.19198339843751,
      "v": 71
    },
    {
      "midi": 86,
      "hit": false,
      "t": 10514.711525390625,
      "d": 231.44670117187525,
      "v": 57
    },
    {
      "midi": 98,
      "hit": false,
      "t": 10514.711525390625,
      "d": 246.0952265625001,
      "v": 71
    },
    {
      "midi": 60,
      "hit": false,
      "t": 10761.295036132804,
      "d": 98.6334042968756,
      "v": 56
    },
    {
      "midi": 65,
      "hit": false,
      "t": 10761.295036132804,
      "d": 98.6334042968756,
      "v": 70
    },
    {
      "midi": 84,
      "hit": false,
      "t": 10761.295036132813,
      "d": 233.88812207031333,
      "v": 56
    },
    {
      "midi": 96,
      "hit": false,
      "t": 10761.295036132813,
      "d": 248.53664746093818,
      "v": 70
    },
    {
      "midi": 57,
      "hit": false,
      "t": 11010.31996777343,
      "d": 52.73469140624911,
      "v": 59
    },
    {
      "midi": 62,
      "hit": false,
      "t": 11010.31996777343,
      "d": 52.73469140624911,
      "v": 73
    },
    {
      "midi": 86,
      "hit": false,
      "t": 11010.31996777344,
      "d": 495.12015820312445,
      "v": 59
    },
    {
      "midi": 98,
      "hit": false,
      "t": 11010.31996777344,
      "d": 495.12015820312445,
      "v": 73
    },
    {
      "midi": 57,
      "hit": false,
      "t": 11138.738707031242,
      "d": 44.922144531250524,
      "v": 56
    },
    {
      "midi": 62,
      "hit": false,
      "t": 11138.738707031242,
      "d": 44.922144531250524,
      "v": 70
    },
    {
      "midi": 55,
      "hit": false,
      "t": 11259.344899414054,
      "d": 45.410428710936685,
      "v": 56
    },
    {
      "midi": 60,
      "hit": false,
      "t": 11259.344899414054,
      "d": 45.410428710936685,
      "v": 70
    },
    {
      "midi": 55,
      "hit": false,
      "t": 11380.439375976553,
      "d": 49.80498632812487,
      "v": 56
    },
    {
      "midi": 60,
      "hit": false,
      "t": 11380.439375976553,
      "d": 49.80498632812487,
      "v": 70
    },
    {
      "midi": 57,
      "hit": false,
      "t": 11505.92841015624,
      "d": 49.80498632812487,
      "v": 57
    },
    {
      "midi": 62,
      "hit": false,
      "t": 11505.92841015624,
      "d": 49.80498632812487,
      "v": 71
    },
    {
      "midi": 86,
      "hit": false,
      "t": 11505.928410156252,
      "d": 493.6553056640623,
      "v": 57
    },
    {
      "midi": 98,
      "hit": false,
      "t": 11505.928410156252,
      "d": 493.6553056640623,
      "v": 71
    },
    {
      "midi": 64,
      "hit": false,
      "t": 11631.417444335928,
      "d": 45.410428710936685,
      "v": 56
    },
    {
      "midi": 69,
      "hit": false,
      "t": 11631.417444335928,
      "d": 45.410428710936685,
      "v": 70
    },
    {
      "midi": 62,
      "hit": false,
      "t": 11752.511920898427,
      "d": 45.410428710936685,
      "v": 56
    },
    {
      "midi": 67,
      "hit": false,
      "t": 11752.511920898427,
      "d": 45.410428710936685,
      "v": 70
    },
    {
      "midi": 60,
      "hit": false,
      "t": 11873.606397460926,
      "d": 50.78155468750083,
      "v": 56
    },
    {
      "midi": 65,
      "hit": false,
      "t": 11873.606397460926,
      "d": 50.78155468750083,
      "v": 70
    },
    {
      "midi": 52,
      "hit": false,
      "t": 12002.02513671874,
      "d": 1997.5705791015607,
      "v": 72
    },
    {
      "midi": 57,
      "hit": false,
      "t": 12002.02513671874,
      "d": 1997.5705791015607,
      "v": 86
    },
    {
      "midi": 88,
      "hit": false,
      "t": 12002.025136718752,
      "d": 758.7936152343755,
      "v": 61
    },
    {
      "midi": 100,
      "hit": false,
      "t": 12002.025136718752,
      "d": 758.7936152343755,
      "v": 75
    },
    {
      "midi": 64,
      "hit": false,
      "t": 12145.092401367177,
      "d": 45.898712890624665,
      "v": 56
    },
    {
      "midi": 69,
      "hit": false,
      "t": 12145.092401367177,
      "d": 45.898712890624665,
      "v": 70
    },
    {
      "midi": 62,
      "hit": false,
      "t": 12266.675162109364,
      "d": 45.898712890624665,
      "v": 56
    },
    {
      "midi": 67,
      "hit": false,
      "t": 12266.675162109364,
      "d": 45.898712890624665,
      "v": 70
    },
    {
      "midi": 62,
      "hit": false,
      "t": 12388.257922851551,
      "d": 50.78155468750083,
      "v": 56
    },
    {
      "midi": 67,
      "hit": false,
      "t": 12388.257922851551,
      "d": 50.78155468750083,
      "v": 70
    },
    {
      "midi": 64,
      "hit": false,
      "t": 12514.723525390615,
      "d": 96.19198339843751,
      "v": 57
    },
    {
      "midi": 69,
      "hit": false,
      "t": 12514.723525390615,
      "d": 96.19198339843751,
      "v": 71
    },
    {
      "midi": 67,
      "hit": false,
      "t": 12761.307036132803,
      "d": 98.6334042968756,
      "v": 56
    },
    {
      "midi": 72,
      "hit": false,
      "t": 12761.307036132803,
      "d": 98.6334042968756,
      "v": 70
    },
    {
      "midi": 91,
      "hit": false,
      "t": 12761.307036132815,
      "d": 233.88812207031333,
      "v": 56
    },
    {
      "midi": 103,
      "hit": false,
      "t": 12761.307036132815,
      "d": 248.53664746093818,
      "v": 70
    },
    {
      "midi": 64,
      "hit": false,
      "t": 13010.331967773429,
      "d": 52.73469140624911,
      "v": 59
    },
    {
      "midi": 69,
      "hit": false,
      "t": 13010.331967773429,
      "d": 52.73469140624911,
      "v": 73
    },
    {
      "midi": 88,
      "hit": false,
      "t": 13010.331967773442,
      "d": 495.12015820312445,
      "v": 59
    },
    {
      "midi": 100,
      "hit": false,
      "t": 13010.331967773442,
      "d": 495.12015820312445,
      "v": 73
    },
    {
      "midi": 64,
      "hit": false,
      "t": 13138.75070703124,
      "d": 44.922144531250524,
      "v": 56
    },
    {
      "midi": 69,
      "hit": false,
      "t": 13138.75070703124,
      "d": 44.922144531250524,
      "v": 70
    },
    {
      "midi": 62,
      "hit": false,
      "t": 13259.356899414053,
      "d": 45.410428710936685,
      "v": 56
    },
    {
      "midi": 67,
      "hit": false,
      "t": 13259.356899414053,
      "d": 45.410428710936685,
      "v": 70
    },
    {
      "midi": 62,
      "hit": false,
      "t": 13380.451375976552,
      "d": 49.80498632812487,
      "v": 56
    },
    {
      "midi": 67,
      "hit": false,
      "t": 13380.451375976552,
      "d": 49.80498632812487,
      "v": 70
    },
    {
      "midi": 64,
      "hit": false,
      "t": 13505.94041015624,
      "d": 49.80498632812487,
      "v": 57
    },
    {
      "midi": 69,
      "hit": false,
      "t": 13505.94041015624,
      "d": 49.80498632812487,
      "v": 71
    },
    {
      "midi": 86,
      "hit": false,
      "t": 13505.940410156254,
      "d": 231.44670117187525,
      "v": 57
    },
    {
      "midi": 98,
      "hit": false,
      "t": 13505.940410156254,
      "d": 246.0952265625001,
      "v": 71
    },
    {
      "midi": 71,
      "hit": false,
      "t": 13631.429444335927,
      "d": 45.410428710936685,
      "v": 56
    },
    {
      "midi": 76,
      "hit": false,
      "t": 13631.429444335927,
      "d": 45.410428710936685,
      "v": 70
    },
    {
      "midi": 69,
      "hit": false,
      "t": 13752.523920898426,
      "d": 97.16855175781166,
      "v": 56
    },
    {
      "midi": 74,
      "hit": false,
      "t": 13752.523920898426,
      "d": 97.16855175781166,
      "v": 70
    },
    {
      "midi": 84,
      "hit": false,
      "t": 13752.523920898442,
      "d": 232.4232695312494,
      "v": 56
    },
    {
      "midi": 96,
      "hit": false,
      "t": 13752.523920898442,
      "d": 247.07179492187424,
      "v": 70
    },
    {
      "midi": 81,
      "hit": false,
      "t": 14002.037136718754,
      "d": 385.7445019531242,
      "v": 61
    },
    {
      "midi": 93,
      "hit": false,
      "t": 14002.037136718754,
      "d": 385.7445019531242,
      "v": 75
    },
    {
      "midi": 64,
      "hit": false,
      "t": 14145.104401367176,
      "d": 45.898712890624665,
      "v": 56
    },
    {
      "midi": 69,
      "hit": false,
      "t": 14145.104401367176,
      "d": 45.898712890624665,
      "v": 70
    },
    {
      "midi": 62,
      "hit": false,
      "t": 14266.687162109363,
      "d": 45.898712890624665,
      "v": 56
    },
    {
      "midi": 67,
      "hit": false,
      "t": 14266.687162109363,
      "d": 45.898712890624665,
      "v": 70
    },
    {
      "midi": 62,
      "hit": false,
      "t": 14388.26992285155,
      "d": 50.78155468750083,
      "v": 56
    },
    {
      "midi": 67,
      "hit": false,
      "t": 14388.26992285155,
      "d": 50.78155468750083,
      "v": 70
    },
    {
      "midi": 81,
      "hit": false,
      "t": 14388.269922851567,
      "d": 118.65305566406278,
      "v": 56
    },
    {
      "midi": 93,
      "hit": false,
      "t": 14388.269922851567,
      "d": 125.9773183593752,
      "v": 70
    },
    {
      "midi": 64,
      "hit": false,
      "t": 14514.735525390613,
      "d": 96.19198339843751,
      "v": 57
    },
    {
      "midi": 69,
      "hit": false,
      "t": 14514.735525390613,
      "d": 96.19198339843751,
      "v": 71
    },
    {
      "midi": 84,
      "hit": false,
      "t": 14514.73552539063,
      "d": 231.44670117187525,
      "v": 57
    },
    {
      "midi": 96,
      "hit": false,
      "t": 14514.73552539063,
      "d": 246.0952265625001,
      "v": 71
    },
    {
      "midi": 67,
      "hit": false,
      "t": 14761.319036132802,
      "d": 98.6334042968756,
      "v": 56
    },
    {
      "midi": 72,
      "hit": false,
      "t": 14761.319036132802,
      "d": 98.6334042968756,
      "v": 70
    },
    {
      "midi": 79,
      "hit": false,
      "t": 14761.319036132818,
      "d": 233.88812207031333,
      "v": 56
    },
    {
      "midi": 91,
      "hit": false,
      "t": 14761.319036132818,
      "d": 248.53664746093818,
      "v": 70
    },
    {
      "midi": 64,
      "hit": false,
      "t": 15010.343967773428,
      "d": 52.73469140624911,
      "v": 59
    },
    {
      "midi": 69,
      "hit": false,
      "t": 15010.343967773428,
      "d": 52.73469140624911,
      "v": 73
    },
    {
      "midi": 81,
      "hit": false,
      "t": 15010.343967773444,
      "d": 495.12015820312445,
      "v": 59
    },
    {
      "midi": 93,
      "hit": false,
      "t": 15010.343967773444,
      "d": 495.12015820312445,
      "v": 73
    },
    {
      "midi": 64,
      "hit": false,
      "t": 15138.76270703124,
      "d": 44.922144531250524,
      "v": 56
    },
    {
      "midi": 69,
      "hit": false,
      "t": 15138.76270703124,
      "d": 44.922144531250524,
      "v": 70
    },
    {
      "midi": 62,
      "hit": false,
      "t": 15259.368899414052,
      "d": 45.410428710936685,
      "v": 56
    },
    {
      "midi": 67,
      "hit": false,
      "t": 15259.368899414052,
      "d": 45.410428710936685,
      "v": 70
    },
    {
      "midi": 62,
      "hit": false,
      "t": 15380.463375976551,
      "d": 49.80498632812487,
      "v": 56
    },
    {
      "midi": 67,
      "hit": false,
      "t": 15380.463375976551,
      "d": 49.80498632812487,
      "v": 70
    },
    {
      "midi": 64,
      "hit": false,
      "t": 15505.952410156238,
      "d": 49.80498632812487,
      "v": 57
    },
    {
      "midi": 69,
      "hit": false,
      "t": 15505.952410156238,
      "d": 49.80498632812487,
      "v": 71
    },
    {
      "midi": 84,
      "hit": false,
      "t": 15505.952410156257,
      "d": 231.44670117187525,
      "v": 57
    },
    {
      "midi": 96,
      "hit": false,
      "t": 15505.952410156257,
      "d": 246.0952265625001,
      "v": 71
    },
    {
      "midi": 71,
      "hit": false,
      "t": 15631.441444335926,
      "d": 45.410428710936685,
      "v": 56
    },
    {
      "midi": 76,
      "hit": false,
      "t": 15631.441444335926,
      "d": 45.410428710936685,
      "v": 70
    },
    {
      "midi": 69,
      "hit": false,
      "t": 15752.535920898425,
      "d": 45.410428710936685,
      "v": 56
    },
    {
      "midi": 74,
      "hit": false,
      "t": 15752.535920898425,
      "d": 45.410428710936685,
      "v": 70
    },
    {
      "midi": 86,
      "hit": false,
      "t": 15752.535920898445,
      "d": 232.4232695312494,
      "v": 56
    },
    {
      "midi": 98,
      "hit": false,
      "t": 15752.535920898445,
      "d": 247.07179492187424,
      "v": 70
    },
    {
      "midi": 67,
      "hit": false,
      "t": 15873.630397460924,
      "d": 50.78155468750083,
      "v": 56
    },
    {
      "midi": 72,
      "hit": false,
      "t": 15873.630397460924,
      "d": 50.78155468750083,
      "v": 70
    },
    {
      "midi": 52,
      "hit": false,
      "t": 16002.049136718737,
      "d": 1997.570579101559,
      "v": 72
    },
    {
      "midi": 57,
      "hit": false,
      "t": 16002.049136718737,
      "d": 1997.570579101559,
      "v": 86
    },
    {
      "midi": 88,
      "hit": false,
      "t": 16002.049136718757,
      "d": 385.744501953126,
      "v": 61
    },
    {
      "midi": 100,
      "hit": false,
      "t": 16002.049136718757,
      "d": 385.744501953126,
      "v": 75
    },
    {
      "midi": 64,
      "hit": false,
      "t": 16145.116401367175,
      "d": 45.898712890624665,
      "v": 56
    },
    {
      "midi": 69,
      "hit": false,
      "t": 16145.116401367175,
      "d": 45.898712890624665,
      "v": 70
    },
    {
      "midi": 62,
      "hit": false,
      "t": 16266.699162109362,
      "d": 45.898712890624665,
      "v": 56
    },
    {
      "midi": 67,
      "hit": false,
      "t": 16266.699162109362,
      "d": 45.898712890624665,
      "v": 70
    },
    {
      "midi": 62,
      "hit": false,
      "t": 16388.28192285155,
      "d": 50.78155468749901,
      "v": 56
    },
    {
      "midi": 67,
      "hit": false,
      "t": 16388.28192285155,
      "d": 50.78155468749901,
      "v": 70
    },
    {
      "midi": 86,
      "hit": false,
      "t": 16388.28192285157,
      "d": 118.65305566406096,
      "v": 56
    },
    {
      "midi": 98,
      "hit": false,
      "t": 16388.28192285157,
      "d": 125.9773183593752,
      "v": 70
    },
    {
      "midi": 64,
      "hit": false,
      "t": 16514.747525390612,
      "d": 96.1919833984357,
      "v": 57
    },
    {
      "midi": 69,
      "hit": false,
      "t": 16514.747525390612,
      "d": 96.1919833984357,
      "v": 71
    },
    {
      "midi": 88,
      "hit": false,
      "t": 16514.74752539063,
      "d": 367.18970312500096,
      "v": 57
    },
    {
      "midi": 100,
      "hit": false,
      "t": 16514.74752539063,
      "d": 367.18970312500096,
      "v": 71
    },
    {
      "midi": 67,
      "hit": false,
      "t": 16761.331036132797,
      "d": 98.63340429687378,
      "v": 56
    },
    {
      "midi": 72,
      "hit": false,
      "t": 16761.331036132797,
      "d": 98.63340429687378,
      "v": 70
    },
    {
      "midi": 86,
      "hit": false,
      "t": 16882.425512695318,
      "d": 120.11790820312672,
      "v": 56
    },
    {
      "midi": 98,
      "hit": false,
      "t": 16882.425512695318,
      "d": 127.44217089844096,
      "v": 70
    },
    {
      "midi": 64,
      "hit": false,
      "t": 17010.35596777342,
      "d": 52.73469140625093,
      "v": 59
    },
    {
      "midi": 69,
      "hit": false,
      "t": 17010.35596777342,
      "d": 52.73469140625093,
      "v": 73
    },
    {
      "midi": 88,
      "hit": false,
      "t": 17010.355967773445,
      "d": 233.8881220703115,
      "v": 59
    },
    {
      "midi": 100,
      "hit": false,
      "t": 17010.355967773445,
      "d": 248.53664746093636,
      "v": 73
    },
    {
      "midi": 64,
      "hit": false,
      "t": 17138.774707031233,
      "d": 44.922144531250524,
      "v": 56
    },
    {
      "midi": 69,
      "hit": false,
      "t": 17138.774707031233,
      "d": 44.922144531250524,
      "v": 70
    },
    {
      "midi": 62,
      "hit": false,
      "t": 17259.380899414045,
      "d": 45.410428710936685,
      "v": 56
    },
    {
      "midi": 67,
      "hit": false,
      "t": 17259.380899414045,
      "d": 45.410428710936685,
      "v": 70
    },
    {
      "midi": 86,
      "hit": false,
      "t": 17259.380899414067,
      "d": 231.44670117187343,
      "v": 56
    },
    {
      "midi": 98,
      "hit": false,
      "t": 17259.380899414067,
      "d": 246.09522656249828,
      "v": 70
    },
    {
      "midi": 62,
      "hit": false,
      "t": 17380.475375976544,
      "d": 49.80498632812669,
      "v": 56
    },
    {
      "midi": 67,
      "hit": false,
      "t": 17380.475375976544,
      "d": 49.80498632812669,
      "v": 70
    },
    {
      "midi": 64,
      "hit": false,
      "t": 17505.964410156233,
      "d": 49.80498632812669,
      "v": 57
    },
    {
      "midi": 69,
      "hit": false,
      "t": 17505.964410156233,
      "d": 49.80498632812669,
      "v": 71
    },
    {
      "midi": 84,
      "hit": false,
      "t": 17505.96441015625,
      "d": 231.44670117187343,
      "v": 57
    },
    {
      "midi": 96,
      "hit": false,
      "t": 17505.96441015625,
      "d": 246.09522656249828,
      "v": 71
    },
    {
      "midi": 71,
      "hit": false,
      "t": 17631.453444335923,
      "d": 45.410428710936685,
      "v": 56
    },
    {
      "midi": 76,
      "hit": false,
      "t": 17631.453444335923,
      "d": 45.410428710936685,
      "v": 70
    },
    {
      "midi": 69,
      "hit": false,
      "t": 17752.54792089842,
      "d": 97.16855175781166,
      "v": 56
    },
    {
      "midi": 74,
      "hit": false,
      "t": 17752.54792089842,
      "d": 97.16855175781166,
      "v": 70
    },
    {
      "midi": 79,
      "hit": false,
      "t": 17752.547920898436,
      "d": 232.4232695312494,
      "v": 56
    },
    {
      "midi": 91,
      "hit": false,
      "t": 17752.547920898436,
      "d": 247.07179492187424,
      "v": 70
    },
    {
      "midi": 81,
      "hit": false,
      "t": 18002.06113671875,
      "d": 385.744501953126,
      "v": 61
    },
    {
      "midi": 93,
      "hit": false,
      "t": 18002.06113671875,
      "d": 385.744501953126,
      "v": 75
    },
    {
      "midi": 64,
      "hit": false,
      "t": 18145.128401367172,
      "d": 45.898712890626484,
      "v": 56
    },
    {
      "midi": 69,
      "hit": false,
      "t": 18145.128401367172,
      "d": 45.898712890626484,
      "v": 70
    },
    {
      "midi": 62,
      "hit": false,
      "t": 18266.71116210936,
      "d": 45.898712890626484,
      "v": 56
    },
    {
      "midi": 67,
      "hit": false,
      "t": 18266.71116210936,
      "d": 45.898712890626484,
      "v": 70
    },
    {
      "midi": 62,
      "hit": false,
      "t": 18388.29392285155,
      "d": 50.78155468749901,
      "v": 56
    },
    {
      "midi": 67,
      "hit": false,
      "t": 18388.29392285155,
      "d": 50.78155468749901,
      "v": 70
    },
    {
      "midi": 81,
      "hit": false,
      "t": 18388.29392285156,
      "d": 118.65305566406096,
      "v": 56
    },
    {
      "midi": 93,
      "hit": false,
      "t": 18388.29392285156,
      "d": 125.9773183593752,
      "v": 70
    },
    {
      "midi": 64,
      "hit": false,
      "t": 18514.75952539061,
      "d": 96.1919833984357,
      "v": 57
    },
    {
      "midi": 69,
      "hit": false,
      "t": 18514.75952539061,
      "d": 96.1919833984357,
      "v": 71
    },
    {
      "midi": 79,
      "hit": false,
      "t": 18514.759525390622,
      "d": 231.44670117187343,
      "v": 57
    },
    {
      "midi": 91,
      "hit": false,
      "t": 18514.759525390622,
      "d": 246.09522656249828,
      "v": 71
    },
    {
      "midi": 67,
      "hit": false,
      "t": 18761.343036132796,
      "d": 98.63340429687378,
      "v": 56
    },
    {
      "midi": 72,
      "hit": false,
      "t": 18761.343036132796,
      "d": 98.63340429687378,
      "v": 70
    },
    {
      "midi": 76,
      "hit": false,
      "t": 18761.343036132806,
      "d": 233.8881220703115,
      "v": 56
    },
    {
      "midi": 88,
      "hit": false,
      "t": 18761.343036132806,
      "d": 248.53664746093636,
      "v": 70
    },
    {
      "midi": 64,
      "hit": false,
      "t": 19010.367967773418,
      "d": 52.73469140625093,
      "v": 59
    },
    {
      "midi": 69,
      "hit": false,
      "t": 19010.367967773418,
      "d": 52.73469140625093,
      "v": 73
    },
    {
      "midi": 81,
      "hit": false,
      "t": 19010.36796777343,
      "d": 495.12015820312445,
      "v": 59
    },
    {
      "midi": 93,
      "hit": false,
      "t": 19010.36796777343,
      "d": 495.12015820312445,
      "v": 73
    },
    {
      "midi": 64,
      "hit": false,
      "t": 19138.78670703123,
      "d": 44.922144531250524,
      "v": 56
    },
    {
      "midi": 69,
      "hit": false,
      "t": 19138.78670703123,
      "d": 44.922144531250524,
      "v": 70
    },
    {
      "midi": 62,
      "hit": false,
      "t": 19259.392899414044,
      "d": 45.410428710936685,
      "v": 56
    },
    {
      "midi": 67,
      "hit": false,
      "t": 19259.392899414044,
      "d": 45.410428710936685,
      "v": 70
    },
    {
      "midi": 62,
      "hit": false,
      "t": 19380.487375976543,
      "d": 49.80498632812669,
      "v": 56
    },
    {
      "midi": 67,
      "hit": false,
      "t": 19380.487375976543,
      "d": 49.80498632812669,
      "v": 70
    },
    {
      "midi": 64,
      "hit": false,
      "t": 19505.976410156232,
      "d": 49.80498632812669,
      "v": 57
    },
    {
      "midi": 69,
      "hit": false,
      "t": 19505.976410156232,
      "d": 49.80498632812669,
      "v": 71
    },
    {
      "midi": 72,
      "hit": false,
      "t": 19505.97641015624,
      "d": 493.6553056640623,
      "v": 57
    },
    {
      "midi": 84,
      "hit": false,
      "t": 19505.97641015624,
      "d": 493.6553056640623,
      "v": 71
    },
    {
      "midi": 71,
      "hit": false,
      "t": 19631.46544433592,
      "d": 45.410428710936685,
      "v": 56
    },
    {
      "midi": 76,
      "hit": false,
      "t": 19631.46544433592,
      "d": 45.410428710936685,
      "v": 70
    },
    {
      "midi": 69,
      "hit": false,
      "t": 19752.55992089842,
      "d": 45.410428710936685,
      "v": 56
    },
    {
      "midi": 74,
      "hit": false,
      "t": 19752.55992089842,
      "d": 45.410428710936685,
      "v": 70
    },
    {
      "midi": 67,
      "hit": false,
      "t": 19873.65439746092,
      "d": 50.78155468749901,
      "v": 56
    },
    {
      "midi": 72,
      "hit": false,
      "t": 19873.65439746092,
      "d": 50.78155468749901,
      "v": 70
    },
    {
      "midi": 50,
      "hit": false,
      "t": 20002.073136718733,
      "d": 1997.5705791015607,
      "v": 72
    },
    {
      "midi": 74,
      "hit": false,
      "t": 20002.07313671874,
      "d": 512.2101044921874,
      "v": 61
    },
    {
      "midi": 86,
      "hit": false,
      "t": 20002.07313671874,
      "d": 512.2101044921874,
      "v": 75
    },
    {
      "midi": 57,
      "hit": false,
      "t": 20145.14040136717,
      "d": 45.898712890626484,
      "v": 56
    },
    {
      "midi": 62,
      "hit": false,
      "t": 20145.14040136717,
      "d": 45.898712890626484,
      "v": 70
    },
    {
      "midi": 55,
      "hit": false,
      "t": 20266.72316210936,
      "d": 45.898712890626484,
      "v": 56
    },
    {
      "midi": 60,
      "hit": false,
      "t": 20266.72316210936,
      "d": 45.898712890626484,
      "v": 70
    },
    {
      "midi": 55,
      "hit": false,
      "t": 20388.30592285155,
      "d": 50.78155468749901,
      "v": 56
    },
    {
      "midi": 60,
      "hit": false,
      "t": 20388.30592285155,
      "d": 50.78155468749901,
      "v": 70
    },
    {
      "midi": 57,
      "hit": false,
      "t": 20514.77152539061,
      "d": 96.1919833984357,
      "v": 57
    },
    {
      "midi": 62,
      "hit": false,
      "t": 20514.77152539061,
      "d": 96.1919833984357,
      "v": 71
    },
    {
      "midi": 77,
      "hit": false,
      "t": 20514.771525390614,
      "d": 231.44670117187343,
      "v": 57
    },
    {
      "midi": 89,
      "hit": false,
      "t": 20514.771525390614,
      "d": 246.09522656249828,
      "v": 71
    },
    {
      "midi": 60,
      "hit": false,
      "t": 20761.355036132794,
      "d": 98.63340429687378,
      "v": 56
    },
    {
      "midi": 65,
      "hit": false,
      "t": 20761.355036132794,
      "d": 98.63340429687378,
      "v": 70
    },
    {
      "midi": 79,
      "hit": false,
      "t": 20761.355036132798,
      "d": 233.8881220703115,
      "v": 56
    },
    {
      "midi": 91,
      "hit": false,
      "t": 20761.355036132798,
      "d": 248.53664746093636,
      "v": 70
    },
    {
      "midi": 57,
      "hit": false,
      "t": 21010.379967773417,
      "d": 52.73469140625093,
      "v": 59
    },
    {
      "midi": 62,
      "hit": false,
      "t": 21010.379967773417,
      "d": 52.73469140625093,
      "v": 73
    },
    {
      "midi": 81,
      "hit": false,
      "t": 21010.37996777342,
      "d": 495.12015820312445,
      "v": 59
    },
    {
      "midi": 93,
      "hit": false,
      "t": 21010.37996777342,
      "d": 495.12015820312445,
      "v": 73
    },
    {
      "midi": 57,
      "hit": false,
      "t": 21138.79870703123,
      "d": 44.922144531250524,
      "v": 56
    },
    {
      "midi": 62,
      "hit": false,
      "t": 21138.79870703123,
      "d": 44.922144531250524,
      "v": 70
    },
    {
      "midi": 55,
      "hit": false,
      "t": 21259.404899414043,
      "d": 45.410428710936685,
      "v": 56
    },
    {
      "midi": 60,
      "hit": false,
      "t": 21259.404899414043,
      "d": 45.410428710936685,
      "v": 70
    },
    {
      "midi": 55,
      "hit": false,
      "t": 21380.499375976542,
      "d": 49.80498632812669,
      "v": 56
    },
    {
      "midi": 60,
      "hit": false,
      "t": 21380.499375976542,
      "d": 49.80498632812669,
      "v": 70
    },
    {
      "midi": 84,
      "hit": false,
      "t": 21505.98841015623,
      "d": 231.44670117187343,
      "v": 57
    },
    {
      "midi": 96,
      "hit": false,
      "t": 21505.98841015623,
      "d": 246.09522656249828,
      "v": 71
    },
    {
      "midi": 57,
      "hit": false,
      "t": 21505.98841015623,
      "d": 49.80498632812669,
      "v": 57
    },
    {
      "midi": 62,
      "hit": false,
      "t": 21505.98841015623,
      "d": 49.80498632812669,
      "v": 71
    },
    {
      "midi": 64,
      "hit": false,
      "t": 21631.47744433592,
      "d": 45.410428710936685,
      "v": 56
    },
    {
      "midi": 69,
      "hit": false,
      "t": 21631.47744433592,
      "d": 45.410428710936685,
      "v": 70
    },
    {
      "midi": 86,
      "hit": false,
      "t": 21752.571920898416,
      "d": 232.4232695312494,
      "v": 56
    },
    {
      "midi": 98,
      "hit": false,
      "t": 21752.571920898416,
      "d": 247.07179492187424,
      "v": 70
    },
    {
      "midi": 62,
      "hit": false,
      "t": 21752.57192089842,
      "d": 97.16855175781166,
      "v": 56
    },
    {
      "midi": 67,
      "hit": false,
      "t": 21752.57192089842,
      "d": 97.16855175781166,
      "v": 70
    },
    {
      "midi": 88,
      "hit": false,
      "t": 22002.085136718728,
      "d": 385.744501953126,
      "v": 61
    },
    {
      "midi": 100,
      "hit": false,
      "t": 22002.085136718728,
      "d": 385.744501953126,
      "v": 75
    },
    {
      "midi": 52,
      "hit": false,
      "t": 22002.08513671873,
      "d": 1997.5705791015607,
      "v": 72
    },
    {
      "midi": 57,
      "hit": false,
      "t": 22002.08513671873,
      "d": 1997.5705791015607,
      "v": 86
    },
    {
      "midi": 64,
      "hit": false,
      "t": 22145.15240136717,
      "d": 45.898712890626484,
      "v": 56
    },
    {
      "midi": 69,
      "hit": false,
      "t": 22145.15240136717,
      "d": 45.898712890626484,
      "v": 70
    },
    {
      "midi": 62,
      "hit": false,
      "t": 22266.73516210936,
      "d": 45.898712890626484,
      "v": 56
    },
    {
      "midi": 67,
      "hit": false,
      "t": 22266.73516210936,
      "d": 45.898712890626484,
      "v": 70
    },
    {
      "midi": 91,
      "hit": false,
      "t": 22388.31792285154,
      "d": 118.65305566406096,
      "v": 56
    },
    {
      "midi": 103,
      "hit": false,
      "t": 22388.31792285154,
      "d": 125.9773183593752,
      "v": 70
    },
    {
      "midi": 62,
      "hit": false,
      "t": 22388.317922851547,
      "d": 50.78155468749901,
      "v": 56
    },
    {
      "midi": 67,
      "hit": false,
      "t": 22388.317922851547,
      "d": 50.78155468749901,
      "v": 70
    },
    {
      "midi": 88,
      "hit": false,
      "t": 22514.7835253906,
      "d": 231.44670117187343,
      "v": 57
    },
    {
      "midi": 100,
      "hit": false,
      "t": 22514.7835253906,
      "d": 246.09522656249828,
      "v": 71
    },
    {
      "midi": 64,
      "hit": false,
      "t": 22514.78352539061,
      "d": 96.1919833984357,
      "v": 57
    },
    {
      "midi": 69,
      "hit": false,
      "t": 22514.78352539061,
      "d": 96.1919833984357,
      "v": 71
    },
    {
      "midi": 86,
      "hit": false,
      "t": 22761.367036132786,
      "d": 233.8881220703115,
      "v": 56
    },
    {
      "midi": 98,
      "hit": false,
      "t": 22761.367036132786,
      "d": 248.53664746093636,
      "v": 70
    },
    {
      "midi": 67,
      "hit": false,
      "t": 22761.367036132793,
      "d": 98.63340429687378,
      "v": 56
    },
    {
      "midi": 72,
      "hit": false,
      "t": 22761.367036132793,
      "d": 98.63340429687378,
      "v": 70
    },
    {
      "midi": 84,
      "hit": false,
      "t": 23010.39196777341,
      "d": 233.8881220703115,
      "v": 59
    },
    {
      "midi": 96,
      "hit": false,
      "t": 23010.39196777341,
      "d": 248.53664746093636,
      "v": 73
    },
    {
      "midi": 64,
      "hit": false,
      "t": 23010.391967773416,
      "d": 52.73469140625093,
      "v": 59
    },
    {
      "midi": 69,
      "hit": false,
      "t": 23010.391967773416,
      "d": 52.73469140625093,
      "v": 73
    },
    {
      "midi": 64,
      "hit": false,
      "t": 23138.81070703123,
      "d": 44.922144531250524,
      "v": 56
    },
    {
      "midi": 69,
      "hit": false,
      "t": 23138.81070703123,
      "d": 44.922144531250524,
      "v": 70
    },
    {
      "midi": 81,
      "hit": false,
      "t": 23259.41689941403,
      "d": 231.44670117187343,
      "v": 56
    },
    {
      "midi": 93,
      "hit": false,
      "t": 23259.41689941403,
      "d": 246.09522656249828,
      "v": 70
    },
    {
      "midi": 62,
      "hit": false,
      "t": 23259.416899414042,
      "d": 45.410428710936685,
      "v": 56
    },
    {
      "midi": 67,
      "hit": false,
      "t": 23259.416899414042,
      "d": 45.410428710936685,
      "v": 70
    },
    {
      "midi": 62,
      "hit": false,
      "t": 23380.51137597654,
      "d": 49.80498632812669,
      "v": 56
    },
    {
      "midi": 67,
      "hit": false,
      "t": 23380.51137597654,
      "d": 49.80498632812669,
      "v": 70
    },
    {
      "midi": 79,
      "hit": false,
      "t": 23506.000410156215,
      "d": 231.44670117187343,
      "v": 57
    },
    {
      "midi": 91,
      "hit": false,
      "t": 23506.000410156215,
      "d": 246.09522656249828,
      "v": 71
    },
    {
      "midi": 64,
      "hit": false,
      "t": 23506.00041015623,
      "d": 49.80498632812669,
      "v": 57
    },
    {
      "midi": 69,
      "hit": false,
      "t": 23506.00041015623,
      "d": 49.80498632812669,
      "v": 71
    },
    {
      "midi": 71,
      "hit": false,
      "t": 23631.48944433592,
      "d": 45.410428710936685,
      "v": 56
    },
    {
      "midi": 76,
      "hit": false,
      "t": 23631.48944433592,
      "d": 45.410428710936685,
      "v": 70
    },
    {
      "midi": 76,
      "hit": false,
      "t": 23752.5839208984,
      "d": 232.4232695312494,
      "v": 56
    },
    {
      "midi": 88,
      "hit": false,
      "t": 23752.5839208984,
      "d": 247.07179492187424,
      "v": 70
    },
    {
      "midi": 69,
      "hit": false,
      "t": 23752.583920898418,
      "d": 97.16855175781166,
      "v": 56
    },
    {
      "midi": 74,
      "hit": false,
      "t": 23752.583920898418,
      "d": 97.16855175781166,
      "v": 70
    },
    {
      "midi": 74,
      "hit": false,
      "t": 24002.097136718712,
      "d": 512.2101044921874,
      "v": 61
    },
    {
      "midi": 86,
      "hit": false,
      "t": 24002.097136718712,
      "d": 512.2101044921874,
      "v": 75
    },
    {
      "midi": 62,
      "hit": false,
      "t": 24002.09713671873,
      "d": 1007.8185468750016,
      "v": 77
    },
    {
      "midi": 76,
      "hit": false,
      "t": 24145.16440136717,
      "d": 45.898712890626484,
      "v": 56
    },
    {
      "midi": 81,
      "hit": false,
      "t": 24145.16440136717,
      "d": 45.898712890626484,
      "v": 70
    },
    {
      "midi": 74,
      "hit": false,
      "t": 24266.747162109357,
      "d": 45.898712890626484,
      "v": 56
    },
    {
      "midi": 79,
      "hit": false,
      "t": 24266.747162109357,
      "d": 45.898712890626484,
      "v": 70
    },
    {
      "midi": 72,
      "hit": false,
      "t": 24388.329922851546,
      "d": 50.78155468749901,
      "v": 56
    },
    {
      "midi": 77,
      "hit": false,
      "t": 24388.329922851546,
      "d": 50.78155468749901,
      "v": 70
    },
    {
      "midi": 79,
      "hit": false,
      "t": 24514.795525390586,
      "d": 495.12015820312445,
      "v": 57
    },
    {
      "midi": 91,
      "hit": false,
      "t": 24514.795525390586,
      "d": 495.12015820312445,
      "v": 71
    },
    {
      "midi": 74,
      "hit": false,
      "t": 24514.795525390608,
      "d": 50.29327050781285,
      "v": 57
    },
    {
      "midi": 79,
      "hit": false,
      "t": 24514.795525390608,
      "d": 50.29327050781285,
      "v": 71
    },
    {
      "midi": 72,
      "hit": false,
      "t": 24640.772843749983,
      "d": 44.922144531250524,
      "v": 56
    },
    {
      "midi": 77,
      "hit": false,
      "t": 24640.772843749983,
      "d": 44.922144531250524,
      "v": 70
    },
    {
      "midi": 69,
      "hit": false,
      "t": 24761.379036132796,
      "d": 45.410428710936685,
      "v": 56
    },
    {
      "midi": 74,
      "hit": false,
      "t": 24761.379036132796,
      "d": 45.410428710936685,
      "v": 70
    },
    {
      "midi": 67,
      "hit": false,
      "t": 24882.473512695295,
      "d": 52.24640722656113,
      "v": 56
    },
    {
      "midi": 72,
      "hit": false,
      "t": 24882.473512695295,
      "d": 52.24640722656113,
      "v": 70
    },
    {
      "midi": 81,
      "hit": false,
      "t": 25010.403967773396,
      "d": 495.12015820312445,
      "v": 59
    },
    {
      "midi": 93,
      "hit": false,
      "t": 25010.403967773396,
      "d": 495.12015820312445,
      "v": 73
    },
    {
      "midi": 60,
      "hit": false,
      "t": 25138.82270703123,
      "d": 44.922144531250524,
      "v": 56
    },
    {
      "midi": 65,
      "hit": false,
      "t": 25138.82270703123,
      "d": 44.922144531250524,
      "v": 70
    },
    {
      "midi": 62,
      "hit": false,
      "t": 25259.428899414044,
      "d": 45.410428710936685,
      "v": 56
    },
    {
      "midi": 67,
      "hit": false,
      "t": 25259.428899414044,
      "d": 45.410428710936685,
      "v": 70
    },
    {
      "midi": 64,
      "hit": false,
      "t": 25380.523375976543,
      "d": 49.80498632812669,
      "v": 56
    },
    {
      "midi": 69,
      "hit": false,
      "t": 25380.523375976543,
      "d": 49.80498632812669,
      "v": 70
    },
    {
      "midi": 84,
      "hit": false,
      "t": 25506.012410156207,
      "d": 493.6553056640623,
      "v": 57
    },
    {
      "midi": 96,
      "hit": false,
      "t": 25506.012410156207,
      "d": 493.6553056640623,
      "v": 71
    },
    {
      "midi": 57,
      "hit": false,
      "t": 25506.012410156232,
      "d": 34.17989257812587,
      "v": 57
    },
    {
      "midi": 62,
      "hit": false,
      "t": 25506.012410156232,
      "d": 34.17989257812587,
      "v": 71
    },
    {
      "midi": 60,
      "hit": false,
      "t": 25590.973857421857,
      "d": 30.76190332031183,
      "v": 56
    },
    {
      "midi": 65,
      "hit": false,
      "t": 25590.973857421857,
      "d": 30.76190332031183,
      "v": 70
    },
    {
      "midi": 62,
      "hit": false,
      "t": 25672.029031249982,
      "d": 29.78533496093587,
      "v": 56
    },
    {
      "midi": 67,
      "hit": false,
      "t": 25672.029031249982,
      "d": 29.78533496093587,
      "v": 70
    },
    {
      "midi": 64,
      "hit": false,
      "t": 25752.595920898417,
      "d": 29.78533496093587,
      "v": 56
    },
    {
      "midi": 69,
      "hit": false,
      "t": 25752.595920898417,
      "d": 29.78533496093587,
      "v": 70
    },
    {
      "midi": 67,
      "hit": false,
      "t": 25833.16281054685,
      "d": 30.76190332031183,
      "v": 56
    },
    {
      "midi": 72,
      "hit": false,
      "t": 25833.16281054685,
      "d": 30.76190332031183,
      "v": 70
    },
    {
      "midi": 71,
      "hit": false,
      "t": 25914.217984374976,
      "d": 35.156460937498196,
      "v": 56
    },
    {
      "midi": 76,
      "hit": false,
      "t": 25914.217984374976,
      "d": 35.156460937498196,
      "v": 70
    },
    {
      "midi": 81,
      "hit": false,
      "t": 26002.109136718707,
      "d": 135.25471777343773,
      "v": 61
    },
    {
      "midi": 86,
      "hit": false,
      "t": 26002.109136718707,
      "d": 142.57898046875198,
      "v": 75
    },
    {
      "midi": 50,
      "hit": false,
      "t": 26002.109136718725,
      "d": 512.2101044921874,
      "v": 69
    },
    {
      "midi": 57,
      "hit": false,
      "t": 26002.109136718725,
      "d": 1997.5705791015644,
      "v": 72
    },
    {
      "midi": 62,
      "hit": false,
      "t": 26002.109136718725,
      "d": 1997.5705791015644,
      "v": 86
    },
    {
      "midi": 88,
      "hit": false,
      "t": 26145.176401367145,
      "d": 113.77021386718843,
      "v": 64
    },
    {
      "midi": 86,
      "hit": false,
      "t": 26266.759162109334,
      "d": 113.77021386718843,
      "v": 64
    },
    {
      "midi": 84,
      "hit": false,
      "t": 26388.341922851523,
      "d": 118.65305566406096,
      "v": 64
    },
    {
      "midi": 81,
      "hit": false,
      "t": 26514.807525390584,
      "d": 118.1647714843748,
      "v": 65
    },
    {
      "midi": 38,
      "hit": false,
      "t": 26514.8075253906,
      "d": 367.18970312500096,
      "v": 56
    },
    {
      "midi": 50,
      "hit": false,
      "t": 26514.8075253906,
      "d": 367.18970312500096,
      "v": 67
    },
    {
      "midi": 84,
      "hit": false,
      "t": 26640.78484374996,
      "d": 112.79364550781247,
      "v": 64
    },
    {
      "midi": 81,
      "hit": false,
      "t": 26761.391036132773,
      "d": 113.28192968749863,
      "v": 64
    },
    {
      "midi": 79,
      "hit": false,
      "t": 26882.48551269527,
      "d": 120.11790820312672,
      "v": 64
    },
    {
      "midi": 38,
      "hit": false,
      "t": 26882.485512695286,
      "d": 120.11790820312672,
      "v": 55
    },
    {
      "midi": 50,
      "hit": false,
      "t": 26882.485512695286,
      "d": 127.44217089844096,
      "v": 66
    },
    {
      "midi": 81,
      "hit": false,
      "t": 27010.4159677734,
      "d": 120.60619238281288,
      "v": 67
    },
    {
      "midi": 79,
      "hit": false,
      "t": 27138.834707031212,
      "d": 112.79364550781247,
      "v": 64
    },
    {
      "midi": 43,
      "hit": false,
      "t": 27138.834707031227,
      "d": 112.79364550781247,
      "v": 64
    },
    {
      "midi": 76,
      "hit": false,
      "t": 27259.440899414025,
      "d": 113.28192968749863,
      "v": 64
    },
    {
      "midi": 45,
      "hit": false,
      "t": 27259.44089941404,
      "d": 113.28192968749863,
      "v": 64
    },
    {
      "midi": 74,
      "hit": false,
      "t": 27380.535375976524,
      "d": 117.67648730468864,
      "v": 64
    },
    {
      "midi": 43,
      "hit": false,
      "t": 27380.53537597654,
      "d": 117.67648730468864,
      "v": 64
    },
    {
      "midi": 72,
      "hit": false,
      "t": 27506.024410156213,
      "d": 117.67648730468864,
      "v": 65
    },
    {
      "midi": 41,
      "hit": false,
      "t": 27506.024410156228,
      "d": 117.67648730468864,
      "v": 65
    },
    {
      "midi": 74,
      "hit": false,
      "t": 27631.513444335902,
      "d": 113.28192968749863,
      "v": 64
    },
    {
      "midi": 40,
      "hit": false,
      "t": 27631.513444335917,
      "d": 113.28192968749863,
      "v": 63
    },
    {
      "midi": 76,
      "hit": false,
      "t": 27752.6079208984,
      "d": 113.28192968749863,
      "v": 64
    },
    {
      "midi": 36,
      "hit": false,
      "t": 27752.607920898416,
      "d": 113.28192968749863,
      "v": 62
    },
    {
      "midi": 72,
      "hit": false,
      "t": 27873.7023974609,
      "d": 118.65305566406096,
      "v": 64
    },
    {
      "midi": 40,
      "hit": false,
      "t": 27873.702397460915,
      "d": 118.65305566406096,
      "v": 63
    },
    {
      "midi": 74,
      "hit": false,
      "t": 28002.12113671871,
      "d": 3997.582579101563,
      "v": 56
    },
    {
      "midi": 86,
      "hit": false,
      "t": 28002.12113671871,
      "d": 3997.582579101563,
      "v": 66
    },
    {
      "midi": 69,
      "hit": false,
      "t": 28145.188401367166,
      "d": 45.898712890626484,
      "v": 56
    },
    {
      "midi": 74,
      "hit": false,
      "t": 28145.188401367166,
      "d": 45.898712890626484,
      "v": 70
    },
    {
      "midi": 67,
      "hit": false,
      "t": 28266.771162109355,
      "d": 45.898712890626484,
      "v": 56
    },
    {
      "midi": 72,
      "hit": false,
      "t": 28266.771162109355,
      "d": 45.898712890626484,
      "v": 70
    },
    {
      "midi": 67,
      "hit": false,
      "t": 28388.353922851544,
      "d": 50.78155468749901,
      "v": 56
    },
    {
      "midi": 72,
      "hit": false,
      "t": 28388.353922851544,
      "d": 50.78155468749901,
      "v": 70
    },
    {
      "midi": 64,
      "hit": false,
      "t": 28514.819525390605,
      "d": 50.29327050781285,
      "v": 57
    },
    {
      "midi": 69,
      "hit": false,
      "t": 28514.819525390605,
      "d": 50.29327050781285,
      "v": 71
    },
    {
      "midi": 64,
      "hit": false,
      "t": 28640.79684374998,
      "d": 44.922144531250524,
      "v": 56
    },
    {
      "midi": 69,
      "hit": false,
      "t": 28640.79684374998,
      "d": 44.922144531250524,
      "v": 70
    },
    {
      "midi": 62,
      "hit": false,
      "t": 28761.403036132793,
      "d": 45.410428710936685,
      "v": 56
    },
    {
      "midi": 67,
      "hit": false,
      "t": 28761.403036132793,
      "d": 45.410428710936685,
      "v": 70
    },
    {
      "midi": 62,
      "hit": false,
      "t": 28882.497512695292,
      "d": 52.24640722656113,
      "v": 56
    },
    {
      "midi": 67,
      "hit": false,
      "t": 28882.497512695292,
      "d": 52.24640722656113,
      "v": 70
    },
    {
      "midi": 57,
      "hit": false,
      "t": 29010.427967773416,
      "d": 52.73469140625093,
      "v": 59
    },
    {
      "midi": 62,
      "hit": false,
      "t": 29010.427967773416,
      "d": 52.73469140625093,
      "v": 73
    },
    {
      "midi": 57,
      "hit": false,
      "t": 29138.84670703123,
      "d": 44.922144531250524,
      "v": 56
    },
    {
      "midi": 62,
      "hit": false,
      "t": 29138.84670703123,
      "d": 44.922144531250524,
      "v": 70
    },
    {
      "midi": 55,
      "hit": false,
      "t": 29259.452899414042,
      "d": 45.410428710936685,
      "v": 56
    },
    {
      "midi": 60,
      "hit": false,
      "t": 29259.452899414042,
      "d": 45.410428710936685,
      "v": 70
    },
    {
      "midi": 55,
      "hit": false,
      "t": 29380.54737597654,
      "d": 49.80498632812669,
      "v": 56
    },
    {
      "midi": 60,
      "hit": false,
      "t": 29380.54737597654,
      "d": 49.80498632812669,
      "v": 70
    },
    {
      "midi": 52,
      "hit": false,
      "t": 29506.03641015623,
      "d": 49.80498632812669,
      "v": 57
    },
    {
      "midi": 57,
      "hit": false,
      "t": 29506.03641015623,
      "d": 49.80498632812669,
      "v": 71
    },
    {
      "midi": 52,
      "hit": false,
      "t": 29631.52544433592,
      "d": 45.410428710936685,
      "v": 56
    },
    {
      "midi": 57,
      "hit": false,
      "t": 29631.52544433592,
      "d": 45.410428710936685,
      "v": 70
    },
    {
      "midi": 50,
      "hit": false,
      "t": 29752.619920898418,
      "d": 45.410428710936685,
      "v": 56
    },
    {
      "midi": 55,
      "hit": false,
      "t": 29752.619920898418,
      "d": 45.410428710936685,
      "v": 70
    },
    {
      "midi": 50,
      "hit": false,
      "t": 29873.714397460917,
      "d": 50.78155468749901,
      "v": 56
    },
    {
      "midi": 55,
      "hit": false,
      "t": 29873.714397460917,
      "d": 50.78155468749901,
      "v": 66
    },
    {
      "midi": 57,
      "hit": false,
      "t": 30002.13313671873,
      "d": 1997.570579101568,
      "v": 82
    },
    {
      "midi": 57,
      "hit": false,
      "t": 30145.200401367147,
      "d": 45.898712890626484,
      "v": 56
    },
    {
      "midi": 62,
      "hit": false,
      "t": 30145.200401367147,
      "d": 45.898712890626484,
      "v": 70
    },
    {
      "midi": 43,
      "hit": false,
      "t": 30145.20040136717,
      "d": 113.77021386718843,
      "v": 64
    },
    {
      "midi": 55,
      "hit": false,
      "t": 30266.783162109336,
      "d": 45.898712890626484,
      "v": 56
    },
    {
      "midi": 60,
      "hit": false,
      "t": 30266.783162109336,
      "d": 45.898712890626484,
      "v": 70
    },
    {
      "midi": 45,
      "hit": false,
      "t": 30266.783162109357,
      "d": 113.77021386718843,
      "v": 64
    },
    {
      "midi": 55,
      "hit": false,
      "t": 30388.365922851524,
      "d": 50.78155468749901,
      "v": 56
    },
    {
      "midi": 60,
      "hit": false,
      "t": 30388.365922851524,
      "d": 50.78155468749901,
      "v": 70
    },
    {
      "midi": 48,
      "hit": false,
      "t": 30388.365922851546,
      "d": 118.65305566406096,
      "v": 64
    },
    {
      "midi": 57,
      "hit": false,
      "t": 30514.831525390586,
      "d": 50.29327050781285,
      "v": 57
    },
    {
      "midi": 62,
      "hit": false,
      "t": 30514.831525390586,
      "d": 50.29327050781285,
      "v": 71
    },
    {
      "midi": 45,
      "hit": false,
      "t": 30514.831525390608,
      "d": 118.1647714843748,
      "v": 65
    },
    {
      "midi": 55,
      "hit": false,
      "t": 30640.80884374996,
      "d": 44.922144531250524,
      "v": 56
    },
    {
      "midi": 60,
      "hit": false,
      "t": 30640.80884374996,
      "d": 44.922144531250524,
      "v": 70
    },
    {
      "midi": 48,
      "hit": false,
      "t": 30640.808843749983,
      "d": 112.79364550781247,
      "v": 64
    },
    {
      "midi": 57,
      "hit": false,
      "t": 30761.415036132774,
      "d": 98.63340429687378,
      "v": 56
    },
    {
      "midi": 62,
      "hit": false,
      "t": 30761.415036132774,
      "d": 98.63340429687378,
      "v": 70
    },
    {
      "midi": 50,
      "hit": false,
      "t": 30761.415036132796,
      "d": 113.28192968749863,
      "v": 64
    },
    {
      "midi": 53,
      "hit": false,
      "t": 30882.509512695295,
      "d": 120.11790820312672,
      "v": 64
    },
    {
      "midi": 64,
      "hit": false,
      "t": 31010.439967773396,
      "d": 52.73469140625093,
      "v": 59
    },
    {
      "midi": 69,
      "hit": false,
      "t": 31010.439967773396,
      "d": 52.73469140625093,
      "v": 73
    },
    {
      "midi": 55,
      "hit": false,
      "t": 31010.43996777342,
      "d": 120.60619238281288,
      "v": 67
    },
    {
      "midi": 64,
      "hit": false,
      "t": 31138.85870703121,
      "d": 44.922144531250524,
      "v": 56
    },
    {
      "midi": 69,
      "hit": false,
      "t": 31138.85870703121,
      "d": 44.922144531250524,
      "v": 70
    },
    {
      "midi": 53,
      "hit": false,
      "t": 31138.858707031235,
      "d": 112.79364550781247,
      "v": 64
    },
    {
      "midi": 62,
      "hit": false,
      "t": 31259.464899414023,
      "d": 45.410428710936685,
      "v": 56
    },
    {
      "midi": 67,
      "hit": false,
      "t": 31259.464899414023,
      "d": 45.410428710936685,
      "v": 70
    },
    {
      "midi": 50,
      "hit": false,
      "t": 31259.464899414048,
      "d": 113.28192968749863,
      "v": 64
    },
    {
      "midi": 62,
      "hit": false,
      "t": 31380.55937597652,
      "d": 49.80498632812669,
      "v": 56
    },
    {
      "midi": 67,
      "hit": false,
      "t": 31380.55937597652,
      "d": 49.80498632812669,
      "v": 70
    },
    {
      "midi": 48,
      "hit": false,
      "t": 31380.559375976547,
      "d": 117.67648730468864,
      "v": 64
    },
    {
      "midi": 64,
      "hit": false,
      "t": 31506.04841015621,
      "d": 49.80498632812669,
      "v": 57
    },
    {
      "midi": 69,
      "hit": false,
      "t": 31506.04841015621,
      "d": 49.80498632812669,
      "v": 71
    },
    {
      "midi": 50,
      "hit": false,
      "t": 31506.048410156236,
      "d": 117.67648730468864,
      "v": 65
    },
    {
      "midi": 62,
      "hit": false,
      "t": 31631.5374443359,
      "d": 45.410428710936685,
      "v": 56
    },
    {
      "midi": 67,
      "hit": false,
      "t": 31631.5374443359,
      "d": 45.410428710936685,
      "v": 70
    },
    {
      "midi": 48,
      "hit": false,
      "t": 31631.537444335925,
      "d": 113.28192968749863,
      "v": 64
    },
    {
      "midi": 69,
      "hit": false,
      "t": 31752.6319208984,
      "d": 82.5200263671868,
      "v": 70
    },
    {
      "midi": 64,
      "hit": false,
      "t": 31752.6319208984,
      "d": 97.16855175781166,
      "v": 56
    },
    {
      "midi": 45,
      "hit": false,
      "t": 31752.631920898424,
      "d": 113.28192968749863,
      "v": 64
    },
    {
      "midi": 43,
      "hit": false,
      "t": 31873.726397460923,
      "d": 118.65305566406096,
      "v": 64
    },
    {
      "midi": 81,
      "hit": false,
      "t": 32002.14513671871,
      "d": 135.25471777343773,
      "v": 69
    },
    {
      "midi": 50,
      "hit": false,
      "t": 32002.145136718736,
      "d": 1997.5705791015826,
      "v": 72
    },
    {
      "midi": 84,
      "hit": false,
      "t": 32145.21240136715,
      "d": 113.77021386718843,
      "v": 64
    },
    {
      "midi": 57,
      "hit": false,
      "t": 32145.212401367175,
      "d": 45.898712890626484,
      "v": 56
    },
    {
      "midi": 62,
      "hit": false,
      "t": 32145.212401367175,
      "d": 45.898712890626484,
      "v": 70
    },
    {
      "midi": 81,
      "hit": false,
      "t": 32266.795162109338,
      "d": 113.77021386718843,
      "v": 64
    },
    {
      "midi": 55,
      "hit": false,
      "t": 32266.795162109363,
      "d": 45.898712890626484,
      "v": 56
    },
    {
      "midi": 60,
      "hit": false,
      "t": 32266.795162109363,
      "d": 45.898712890626484,
      "v": 70
    },
    {
      "midi": 79,
      "hit": false,
      "t": 32388.377922851527,
      "d": 118.65305566406096,
      "v": 64
    },
    {
      "midi": 55,
      "hit": false,
      "t": 32388.377922851552,
      "d": 50.78155468749901,
      "v": 56
    },
    {
      "midi": 60,
      "hit": false,
      "t": 32388.377922851552,
      "d": 50.78155468749901,
      "v": 70
    },
    {
      "midi": 81,
      "hit": false,
      "t": 32514.84352539059,
      "d": 118.1647714843748,
      "v": 65
    },
    {
      "midi": 57,
      "hit": false,
      "t": 32514.843525390614,
      "d": 96.1919833984357,
      "v": 45
    },
    {
      "midi": 62,
      "hit": false,
      "t": 32514.843525390614,
      "d": 96.1919833984357,
      "v": 59
    },
    {
      "midi": 79,
      "hit": false,
      "t": 32640.820843749963,
      "d": 112.79364550781247,
      "v": 64
    },
    {
      "midi": 76,
      "hit": false,
      "t": 32761.427036132776,
      "d": 113.28192968749863,
      "v": 64
    },
    {
      "midi": 57,
      "hit": false,
      "t": 32761.427036132798,
      "d": 98.63340429687742,
      "v": 44
    },
    {
      "midi": 62,
      "hit": false,
      "t": 32761.427036132798,
      "d": 98.63340429687742,
      "v": 58
    },
    {
      "midi": 72,
      "hit": false,
      "t": 32882.521512695275,
      "d": 120.11790820312308,
      "v": 64
    },
    {
      "midi": 74,
      "hit": false,
      "t": 33010.4519677734,
      "d": 127.93045507812349,
      "v": 67
    },
    {
      "midi": 64,
      "hit": false,
      "t": 33010.45196777343,
      "d": 52.73469140625093,
      "v": 59
    },
    {
      "midi": 69,
      "hit": false,
      "t": 33010.45196777343,
      "d": 52.73469140625093,
      "v": 73
    },
    {
      "midi": 74,
      "hit": false,
      "t": 33138.87070703121,
      "d": 120.11790820312308,
      "v": 64
    },
    {
      "midi": 64,
      "hit": false,
      "t": 33138.870707031245,
      "d": 44.922144531250524,
      "v": 56
    },
    {
      "midi": 69,
      "hit": false,
      "t": 33138.870707031245,
      "d": 44.922144531250524,
      "v": 70
    },
    {
      "midi": 74,
      "hit": false,
      "t": 33259.47689941402,
      "d": 113.28192968750227,
      "v": 64
    },
    {
      "midi": 62,
      "hit": false,
      "t": 33259.47689941406,
      "d": 45.410428710936685,
      "v": 56
    },
    {
      "midi": 67,
      "hit": false,
      "t": 33259.47689941406,
      "d": 45.410428710936685,
      "v": 70
    },
    {
      "midi": 72,
      "hit": false,
      "t": 33380.57137597652,
      "d": 117.676487304685,
      "v": 64
    },
    {
      "midi": 62,
      "hit": false,
      "t": 33380.571375976564,
      "d": 49.80498632812669,
      "v": 56
    },
    {
      "midi": 67,
      "hit": false,
      "t": 33380.571375976564,
      "d": 49.80498632812669,
      "v": 70
    },
    {
      "midi": 74,
      "hit": false,
      "t": 33506.060410156206,
      "d": 231.44670117187343,
      "v": 57
    },
    {
      "midi": 86,
      "hit": false,
      "t": 33506.060410156206,
      "d": 246.09522656250192,
      "v": 71
    },
    {
      "midi": 64,
      "hit": false,
      "t": 33506.06041015626,
      "d": 96.1919833984357,
      "v": 45
    },
    {
      "midi": 69,
      "hit": false,
      "t": 33506.06041015626,
      "d": 96.1919833984357,
      "v": 59
    },
    {
      "midi": 77,
      "hit": false,
      "t": 33752.643920898394,
      "d": 113.28192968750227,
      "v": 64
    },
    {
      "midi": 64,
      "hit": false,
      "t": 33752.643920898445,
      "d": 97.1685517578153,
      "v": 44
    },
    {
      "midi": 69,
      "hit": false,
      "t": 33752.643920898445,
      "d": 97.1685517578153,
      "v": 58
    },
    {
      "midi": 79,
      "hit": false,
      "t": 33873.7383974609,
      "d": 118.6530556640646,
      "v": 64
    },
    {
      "midi": 81,
      "hit": false,
      "t": 34002.15713671871,
      "d": 135.25471777343773,
      "v": 69
    },
    {
      "midi": 84,
      "hit": false,
      "t": 34145.22440136715,
      "d": 113.77021386718843,
      "v": 64
    },
    {
      "midi": 57,
      "hit": false,
      "t": 34145.224401367195,
      "d": 45.898712890622846,
      "v": 56
    },
    {
      "midi": 62,
      "hit": false,
      "t": 34145.224401367195,
      "d": 45.898712890622846,
      "v": 70
    },
    {
      "midi": 81,
      "hit": false,
      "t": 34266.80716210934,
      "d": 113.77021386718843,
      "v": 64
    },
    {
      "midi": 55,
      "hit": false,
      "t": 34266.807162109384,
      "d": 45.898712890622846,
      "v": 56
    },
    {
      "midi": 60,
      "hit": false,
      "t": 34266.807162109384,
      "d": 45.898712890622846,
      "v": 70
    },
    {
      "midi": 84,
      "hit": false,
      "t": 34388.38992285153,
      "d": 118.6530556640646,
      "v": 64
    },
    {
      "midi": 55,
      "hit": false,
      "t": 34388.38992285157,
      "d": 50.78155468749901,
      "v": 56
    },
    {
      "midi": 60,
      "hit": false,
      "t": 34388.38992285157,
      "d": 50.78155468749901,
      "v": 70
    },
    {
      "midi": 86,
      "hit": false,
      "t": 34514.855525390594,
      "d": 118.16477148437843,
      "v": 65
    },
    {
      "midi": 57,
      "hit": false,
      "t": 34514.85552539064,
      "d": 96.1919833984357,
      "v": 45
    },
    {
      "midi": 62,
      "hit": false,
      "t": 34514.85552539064,
      "d": 96.1919833984357,
      "v": 59
    },
    {
      "midi": 88,
      "hit": false,
      "t": 34640.83284374997,
      "d": 112.79364550781611,
      "v": 64
    },
    {
      "midi": 91,
      "hit": false,
      "t": 34761.43903613279,
      "d": 113.28192968750227,
      "v": 64
    },
    {
      "midi": 57,
      "hit": false,
      "t": 34761.439036132826,
      "d": 98.63340429687378,
      "v": 44
    },
    {
      "midi": 62,
      "hit": false,
      "t": 34761.439036132826,
      "d": 98.63340429687378,
      "v": 58
    },
    {
      "midi": 88,
      "hit": false,
      "t": 34882.53351269529,
      "d": 120.11790820312308,
      "v": 64
    },
    {
      "midi": 86,
      "hit": false,
      "t": 35010.463967773416,
      "d": 120.60619238280924,
      "v": 67
    },
    {
      "midi": 64,
      "hit": false,
      "t": 35010.46396777345,
      "d": 52.73469140625093,
      "v": 59
    },
    {
      "midi": 69,
      "hit": false,
      "t": 35010.46396777345,
      "d": 52.73469140625093,
      "v": 73
    },
    {
      "midi": 88,
      "hit": false,
      "t": 35138.882707031225,
      "d": 112.79364550781611,
      "v": 64
    },
    {
      "midi": 62,
      "hit": false,
      "t": 35138.88270703127,
      "d": 44.922144531250524,
      "v": 56
    },
    {
      "midi": 67,
      "hit": false,
      "t": 35138.88270703127,
      "d": 44.922144531250524,
      "v": 70
    },
    {
      "midi": 86,
      "hit": false,
      "t": 35259.48889941404,
      "d": 113.28192968750227,
      "v": 64
    },
    {
      "midi": 57,
      "hit": false,
      "t": 35259.488899414086,
      "d": 45.410428710936685,
      "v": 56
    },
    {
      "midi": 62,
      "hit": false,
      "t": 35259.488899414086,
      "d": 45.410428710936685,
      "v": 70
    },
    {
      "midi": 84,
      "hit": false,
      "t": 35380.583375976545,
      "d": 117.676487304685,
      "v": 64
    },
    {
      "midi": 55,
      "hit": false,
      "t": 35380.58337597659,
      "d": 49.80498632812669,
      "v": 56
    },
    {
      "midi": 60,
      "hit": false,
      "t": 35380.58337597659,
      "d": 49.80498632812669,
      "v": 70
    },
    {
      "midi": 86,
      "hit": false,
      "t": 35506.07241015623,
      "d": 231.44670117187343,
      "v": 57
    },
    {
      "midi": 98,
      "hit": false,
      "t": 35506.07241015623,
      "d": 246.09522656250192,
      "v": 71
    },
    {
      "midi": 57,
      "hit": false,
      "t": 35506.07241015628,
      "d": 49.80498632812669,
      "v": 57
    },
    {
      "midi": 62,
      "hit": false,
      "t": 35506.07241015628,
      "d": 49.80498632812669,
      "v": 71
    },
    {
      "midi": 55,
      "hit": false,
      "t": 35631.561444335974,
      "d": 45.410428710936685,
      "v": 56
    },
    {
      "midi": 60,
      "hit": false,
      "t": 35631.561444335974,
      "d": 45.410428710936685,
      "v": 70
    },
    {
      "midi": 84,
      "hit": false,
      "t": 35752.65592089842,
      "d": 113.28192968750227,
      "v": 64
    },
    {
      "midi": 52,
      "hit": false,
      "t": 35752.655920898476,
      "d": 45.410428710936685,
      "v": 56
    },
    {
      "midi": 57,
      "hit": false,
      "t": 35752.655920898476,
      "d": 45.410428710936685,
      "v": 70
    },
    {
      "midi": 86,
      "hit": false,
      "t": 35873.75039746092,
      "d": 118.6530556640646,
      "v": 64
    },
    {
      "midi": 50,
      "hit": false,
      "t": 35873.75039746098,
      "d": 50.78155468749901,
      "v": 56
    },
    {
      "midi": 55,
      "hit": false,
      "t": 35873.75039746098,
      "d": 50.78155468749901,
      "v": 70
    },
    {
      "midi": 88,
      "hit": false,
      "t": 36002.16913671874,
      "d": 135.25471777343773,
      "v": 69
    },
    {
      "midi": 91,
      "hit": false,
      "t": 36145.236401367176,
      "d": 113.77021386718843,
      "v": 64
    },
    {
      "midi": 59,
      "hit": false,
      "t": 36145.23640136723,
      "d": 45.898712890622846,
      "v": 56
    },
    {
      "midi": 64,
      "hit": false,
      "t": 36145.23640136723,
      "d": 45.898712890622846,
      "v": 70
    },
    {
      "midi": 88,
      "hit": false,
      "t": 36266.819162109365,
      "d": 113.77021386718843,
      "v": 64
    },
    {
      "midi": 57,
      "hit": false,
      "t": 36266.819162109416,
      "d": 45.898712890622846,
      "v": 56
    },
    {
      "midi": 62,
      "hit": false,
      "t": 36266.819162109416,
      "d": 45.898712890622846,
      "v": 70
    },
    {
      "midi": 86,
      "hit": false,
      "t": 36388.40192285155,
      "d": 118.6530556640646,
      "v": 64
    },
    {
      "midi": 57,
      "hit": false,
      "t": 36388.401922851604,
      "d": 50.78155468749901,
      "v": 56
    },
    {
      "midi": 62,
      "hit": false,
      "t": 36388.401922851604,
      "d": 50.78155468749901,
      "v": 70
    },
    {
      "midi": 88,
      "hit": false,
      "t": 36514.86752539062,
      "d": 118.16477148437843,
      "v": 65
    },
    {
      "midi": 59,
      "hit": false,
      "t": 36514.86752539067,
      "d": 96.1919833984357,
      "v": 45
    },
    {
      "midi": 64,
      "hit": false,
      "t": 36514.86752539067,
      "d": 96.1919833984357,
      "v": 59
    },
    {
      "midi": 86,
      "hit": false,
      "t": 36640.84484375,
      "d": 112.79364550781611,
      "v": 64
    },
    {
      "midi": 84,
      "hit": false,
      "t": 36761.451036132814,
      "d": 113.28192968750227,
      "v": 64
    },
    {
      "midi": 59,
      "hit": false,
      "t": 36761.45103613286,
      "d": 98.63340429687378,
      "v": 44
    },
    {
      "midi": 64,
      "hit": false,
      "t": 36761.45103613286,
      "d": 98.63340429687378,
      "v": 58
    },
    {
      "midi": 81,
      "hit": false,
      "t": 36882.54551269532,
      "d": 120.11790820312308,
      "v": 64
    },
    {
      "midi": 76,
      "hit": false,
      "t": 37010.47596777344,
      "d": 127.93045507812349,
      "v": 67
    },
    {
      "midi": 66,
      "hit": false,
      "t": 37010.475967773484,
      "d": 52.73469140625093,
      "v": 59
    },
    {
      "midi": 71,
      "hit": false,
      "t": 37010.475967773484,
      "d": 52.73469140625093,
      "v": 73
    },
    {
      "midi": 76,
      "hit": false,
      "t": 37138.89470703125,
      "d": 120.11790820312308,
      "v": 64
    },
    {
      "midi": 66,
      "hit": false,
      "t": 37138.8947070313,
      "d": 44.922144531250524,
      "v": 56
    },
    {
      "midi": 71,
      "hit": false,
      "t": 37138.8947070313,
      "d": 44.922144531250524,
      "v": 70
    },
    {
      "midi": 76,
      "hit": false,
      "t": 37259.50089941406,
      "d": 113.28192968750227,
      "v": 64
    },
    {
      "midi": 64,
      "hit": false,
      "t": 37259.50089941412,
      "d": 45.410428710936685,
      "v": 56
    },
    {
      "midi": 69,
      "hit": false,
      "t": 37259.50089941412,
      "d": 45.410428710936685,
      "v": 70
    },
    {
      "midi": 74,
      "hit": false,
      "t": 37380.59537597656,
      "d": 117.676487304685,
      "v": 64
    },
    {
      "midi": 64,
      "hit": false,
      "t": 37380.59537597662,
      "d": 49.80498632812669,
      "v": 56
    },
    {
      "midi": 69,
      "hit": false,
      "t": 37380.59537597662,
      "d": 49.80498632812669,
      "v": 70
    },
    {
      "midi": 76,
      "hit": false,
      "t": 37506.08441015625,
      "d": 231.44670117187343,
      "v": 57
    },
    {
      "midi": 88,
      "hit": false,
      "t": 37506.08441015625,
      "d": 246.09522656250192,
      "v": 71
    },
    {
      "midi": 66,
      "hit": false,
      "t": 37506.08441015631,
      "d": 96.1919833984357,
      "v": 45
    },
    {
      "midi": 71,
      "hit": false,
      "t": 37506.08441015631,
      "d": 96.1919833984357,
      "v": 59
    },
    {
      "midi": 79,
      "hit": false,
      "t": 37752.667920898435,
      "d": 113.28192968750227,
      "v": 64
    },
    {
      "midi": 66,
      "hit": false,
      "t": 37752.6679208985,
      "d": 97.1685517578153,
      "v": 44
    },
    {
      "midi": 71,
      "hit": false,
      "t": 37752.6679208985,
      "d": 97.1685517578153,
      "v": 58
    },
    {
      "midi": 81,
      "hit": false,
      "t": 37873.76239746094,
      "d": 118.6530556640646,
      "v": 64
    },
    {
      "midi": 83,
      "hit": false,
      "t": 38002.181136718755,
      "d": 135.25471777343773,
      "v": 69
    },
    {
      "midi": 76,
      "hit": false,
      "t": 38002.18113671881,
      "d": 1997.5705791016007,
      "v": 86
    },
    {
      "midi": 86,
      "hit": false,
      "t": 38145.24840136719,
      "d": 113.77021386718843,
      "v": 64
    },
    {
      "midi": 59,
      "hit": false,
      "t": 38145.24840136725,
      "d": 45.898712890622846,
      "v": 56
    },
    {
      "midi": 64,
      "hit": false,
      "t": 38145.24840136725,
      "d": 45.898712890622846,
      "v": 70
    },
    {
      "midi": 88,
      "hit": false,
      "t": 38266.83116210938,
      "d": 113.77021386718843,
      "v": 64
    },
    {
      "midi": 57,
      "hit": false,
      "t": 38266.83116210944,
      "d": 45.898712890622846,
      "v": 56
    },
    {
      "midi": 62,
      "hit": false,
      "t": 38266.83116210944,
      "d": 45.898712890622846,
      "v": 70
    },
    {
      "midi": 86,
      "hit": false,
      "t": 38388.41392285157,
      "d": 118.6530556640646,
      "v": 64
    },
    {
      "midi": 57,
      "hit": false,
      "t": 38388.41392285163,
      "d": 50.78155468749901,
      "v": 56
    },
    {
      "midi": 62,
      "hit": false,
      "t": 38388.41392285163,
      "d": 50.78155468749901,
      "v": 70
    },
    {
      "midi": 88,
      "hit": false,
      "t": 38514.879525390636,
      "d": 118.16477148437843,
      "v": 65
    },
    {
      "midi": 59,
      "hit": false,
      "t": 38514.879525390694,
      "d": 142.09069628906582,
      "v": 57
    },
    {
      "midi": 64,
      "hit": false,
      "t": 38514.879525390694,
      "d": 142.09069628906582,
      "v": 71
    },
    {
      "midi": 91,
      "hit": false,
      "t": 38640.856843750014,
      "d": 112.79364550781611,
      "v": 64
    },
    {
      "midi": 93,
      "hit": false,
      "t": 38761.46303613283,
      "d": 113.28192968750227,
      "v": 64
    },
    {
      "midi": 91,
      "hit": false,
      "t": 38882.55751269533,
      "d": 120.11790820312308,
      "v": 64
    },
    {
      "midi": 59,
      "hit": false,
      "t": 38882.557512695385,
      "d": 52.24640722656477,
      "v": 56
    },
    {
      "midi": 64,
      "hit": false,
      "t": 38882.557512695385,
      "d": 52.24640722656477,
      "v": 70
    },
    {
      "midi": 88,
      "hit": false,
      "t": 39010.48796777346,
      "d": 120.60619238280924,
      "v": 67
    },
    {
      "midi": 66,
      "hit": false,
      "t": 39010.487967773515,
      "d": 52.73469140625093,
      "v": 59
    },
    {
      "midi": 71,
      "hit": false,
      "t": 39010.487967773515,
      "d": 52.73469140625093,
      "v": 73
    },
    {
      "midi": 91,
      "hit": false,
      "t": 39138.90670703127,
      "d": 112.79364550781611,
      "v": 64
    },
    {
      "midi": 64,
      "hit": false,
      "t": 39138.90670703133,
      "d": 44.922144531250524,
      "v": 56
    },
    {
      "midi": 69,
      "hit": false,
      "t": 39138.90670703133,
      "d": 44.922144531250524,
      "v": 70
    },
    {
      "midi": 88,
      "hit": false,
      "t": 39259.51289941408,
      "d": 113.28192968750227,
      "v": 64
    },
    {
      "midi": 59,
      "hit": false,
      "t": 39259.51289941415,
      "d": 45.410428710936685,
      "v": 56
    },
    {
      "midi": 64,
      "hit": false,
      "t": 39259.51289941415,
      "d": 45.410428710936685,
      "v": 70
    },
    {
      "midi": 86,
      "hit": false,
      "t": 39380.607375976586,
      "d": 117.676487304685,
      "v": 64
    },
    {
      "midi": 57,
      "hit": false,
      "t": 39380.60737597665,
      "d": 49.80498632812669,
      "v": 56
    },
    {
      "midi": 62,
      "hit": false,
      "t": 39380.60737597665,
      "d": 49.80498632812669,
      "v": 70
    },
    {
      "midi": 88,
      "hit": false,
      "t": 39506.09641015627,
      "d": 231.44670117187343,
      "v": 57
    },
    {
      "midi": 100,
      "hit": false,
      "t": 39506.09641015627,
      "d": 246.09522656250192,
      "v": 71
    },
    {
      "midi": 59,
      "hit": false,
      "t": 39506.096410156344,
      "d": 49.80498632812669,
      "v": 57
    },
    {
      "midi": 64,
      "hit": false,
      "t": 39506.096410156344,
      "d": 49.80498632812669,
      "v": 71
    },
    {
      "midi": 57,
      "hit": false,
      "t": 39631.58544433604,
      "d": 45.410428710936685,
      "v": 56
    },
    {
      "midi": 62,
      "hit": false,
      "t": 39631.58544433604,
      "d": 45.410428710936685,
      "v": 70
    },
    {
      "midi": 86,
      "hit": false,
      "t": 39752.67992089846,
      "d": 113.28192968750227,
      "v": 64
    },
    {
      "midi": 53,
      "hit": false,
      "t": 39752.67992089854,
      "d": 45.410428710936685,
      "v": 56
    },
    {
      "midi": 59,
      "hit": false,
      "t": 39752.67992089854,
      "d": 45.410428710936685,
      "v": 70
    },
    {
      "midi": 88,
      "hit": false,
      "t": 39873.77439746096,
      "d": 118.6530556640646,
      "v": 64
    },
    {
      "midi": 52,
      "hit": false,
      "t": 39873.77439746104,
      "d": 50.78155468749901,
      "v": 56
    },
    {
      "midi": 57,
      "hit": false,
      "t": 39873.77439746104,
      "d": 50.78155468749901,
      "v": 70
    },
    {
      "midi": 89,
      "hit": false,
      "t": 40002.19313671878,
      "d": 135.25471777343773,
      "v": 69
    },
    {
      "midi": 53,
      "hit": false,
      "t": 40002.19313671885,
      "d": 1997.5705791015862,
      "v": 72
    },
    {
      "midi": 93,
      "hit": false,
      "t": 40145.26040136722,
      "d": 113.77021386718843,
      "v": 64
    },
    {
      "midi": 60,
      "hit": false,
      "t": 40145.26040136729,
      "d": 45.898712890622846,
      "v": 56
    },
    {
      "midi": 65,
      "hit": false,
      "t": 40145.26040136729,
      "d": 45.898712890622846,
      "v": 70
    },
    {
      "midi": 89,
      "hit": false,
      "t": 40266.843162109406,
      "d": 113.77021386718843,
      "v": 64
    },
    {
      "midi": 59,
      "hit": false,
      "t": 40266.84316210948,
      "d": 45.898712890622846,
      "v": 56
    },
    {
      "midi": 64,
      "hit": false,
      "t": 40266.84316210948,
      "d": 45.898712890622846,
      "v": 70
    },
    {
      "midi": 88,
      "hit": false,
      "t": 40388.425922851595,
      "d": 118.6530556640646,
      "v": 64
    },
    {
      "midi": 59,
      "hit": false,
      "t": 40388.42592285167,
      "d": 50.78155468749901,
      "v": 56
    },
    {
      "midi": 64,
      "hit": false,
      "t": 40388.42592285167,
      "d": 50.78155468749901,
      "v": 70
    },
    {
      "midi": 89,
      "hit": false,
      "t": 40514.89152539066,
      "d": 118.16477148437843,
      "v": 65
    },
    {
      "midi": 60,
      "hit": false,
      "t": 40514.89152539073,
      "d": 96.1919833984357,
      "v": 45
    },
    {
      "midi": 65,
      "hit": false,
      "t": 40514.89152539073,
      "d": 96.1919833984357,
      "v": 59
    },
    {
      "midi": 88,
      "hit": false,
      "t": 40640.86884375004,
      "d": 112.79364550781611,
      "v": 64
    },
    {
      "midi": 86,
      "hit": false,
      "t": 40761.475036132855,
      "d": 113.28192968750227,
      "v": 64
    },
    {
      "midi": 60,
      "hit": false,
      "t": 40761.47503613292,
      "d": 98.63340429687378,
      "v": 44
    },
    {
      "midi": 65,
      "hit": false,
      "t": 40761.47503613292,
      "d": 98.63340429687378,
      "v": 58
    },
    {
      "midi": 88,
      "hit": false,
      "t": 40882.56951269536,
      "d": 120.11790820312308,
      "v": 64
    },
    {
      "midi": 86,
      "hit": false,
      "t": 41010.49996777348,
      "d": 120.60619238280924,
      "v": 67
    },
    {
      "midi": 67,
      "hit": false,
      "t": 41010.49996777355,
      "d": 52.73469140625093,
      "v": 59
    },
    {
      "midi": 72,
      "hit": false,
      "t": 41010.49996777355,
      "d": 52.73469140625093,
      "v": 73
    },
    {
      "midi": 84,
      "hit": false,
      "t": 41138.91870703129,
      "d": 112.79364550781611,
      "v": 64
    },
    {
      "midi": 67,
      "hit": false,
      "t": 41138.918707031364,
      "d": 44.922144531250524,
      "v": 56
    },
    {
      "midi": 72,
      "hit": false,
      "t": 41138.918707031364,
      "d": 44.922144531250524,
      "v": 70
    },
    {
      "midi": 79,
      "hit": false,
      "t": 41259.52489941411,
      "d": 113.28192968750227,
      "v": 64
    },
    {
      "midi": 66,
      "hit": false,
      "t": 41259.52489941418,
      "d": 45.410428710936685,
      "v": 56
    },
    {
      "midi": 71,
      "hit": false,
      "t": 41259.52489941418,
      "d": 45.410428710936685,
      "v": 70
    },
    {
      "midi": 81,
      "hit": false,
      "t": 41380.61937597661,
      "d": 117.676487304685,
      "v": 64
    },
    {
      "midi": 66,
      "hit": false,
      "t": 41380.61937597668,
      "d": 49.80498632812669,
      "v": 56
    },
    {
      "midi": 71,
      "hit": false,
      "t": 41380.61937597668,
      "d": 49.80498632812669,
      "v": 70
    },
    {
      "midi": 79,
      "hit": false,
      "t": 41506.108410156296,
      "d": 117.676487304685,
      "v": 65
    },
    {
      "midi": 67,
      "hit": false,
      "t": 41506.108410156376,
      "d": 96.1919833984357,
      "v": 45
    },
    {
      "midi": 72,
      "hit": false,
      "t": 41506.108410156376,
      "d": 96.1919833984357,
      "v": 59
    },
    {
      "midi": 81,
      "hit": false,
      "t": 41631.59744433598,
      "d": 113.28192968750227,
      "v": 64
    },
    {
      "midi": 76,
      "hit": false,
      "t": 41752.691920898484,
      "d": 113.28192968750227,
      "v": 64
    },
    {
      "midi": 67,
      "hit": false,
      "t": 41752.691920898564,
      "d": 97.1685517578153,
      "v": 44
    },
    {
      "midi": 72,
      "hit": false,
      "t": 41752.691920898564,
      "d": 97.1685517578153,
      "v": 58
    },
    {
      "midi": 74,
      "hit": false,
      "t": 41873.786397460986,
      "d": 118.6530556640646,
      "v": 64
    },
    {
      "midi": 76,
      "hit": false,
      "t": 42002.2051367188,
      "d": 135.25471777343773,
      "v": 69
    },
    {
      "midi": 79,
      "hit": false,
      "t": 42145.27240136724,
      "d": 113.77021386718843,
      "v": 64
    },
    {
      "midi": 59,
      "hit": false,
      "t": 42145.272401367314,
      "d": 45.898712890622846,
      "v": 56
    },
    {
      "midi": 64,
      "hit": false,
      "t": 42145.272401367314,
      "d": 45.898712890622846,
      "v": 70
    },
    {
      "midi": 76,
      "hit": false,
      "t": 42266.85516210943,
      "d": 113.77021386718843,
      "v": 64
    },
    {
      "midi": 57,
      "hit": false,
      "t": 42266.8551621095,
      "d": 45.898712890622846,
      "v": 56
    },
    {
      "midi": 62,
      "hit": false,
      "t": 42266.8551621095,
      "d": 45.898712890622846,
      "v": 70
    },
    {
      "midi": 74,
      "hit": false,
      "t": 42388.43792285162,
      "d": 118.6530556640646,
      "v": 64
    },
    {
      "midi": 57,
      "hit": false,
      "t": 42388.43792285169,
      "d": 50.78155468749901,
      "v": 56
    },
    {
      "midi": 62,
      "hit": false,
      "t": 42388.43792285169,
      "d": 50.78155468749901,
      "v": 70
    },
    {
      "midi": 76,
      "hit": false,
      "t": 42514.903525390684,
      "d": 118.16477148437843,
      "v": 65
    },
    {
      "midi": 59,
      "hit": false,
      "t": 42514.90352539076,
      "d": 96.1919833984357,
      "v": 45
    },
    {
      "midi": 64,
      "hit": false,
      "t": 42514.90352539076,
      "d": 96.1919833984357,
      "v": 59
    },
    {
      "midi": 74,
      "hit": false,
      "t": 42640.88084375006,
      "d": 112.79364550781611,
      "v": 64
    },
    {
      "midi": 71,
      "hit": false,
      "t": 42761.48703613288,
      "d": 113.28192968750227,
      "v": 64
    },
    {
      "midi": 59,
      "hit": false,
      "t": 42761.487036132945,
      "d": 98.63340429687378,
      "v": 44
    },
    {
      "midi": 64,
      "hit": false,
      "t": 42761.487036132945,
      "d": 98.63340429687378,
      "v": 58
    },
    {
      "midi": 74,
      "hit": false,
      "t": 42882.58151269538,
      "d": 120.11790820312308,
      "v": 64
    },
    {
      "midi": 76,
      "hit": false,
      "t": 43010.511967773506,
      "d": 120.60619238280924,
      "v": 67
    },
    {
      "midi": 66,
      "hit": false,
      "t": 43010.51196777357,
      "d": 52.73469140625093,
      "v": 59
    },
    {
      "midi": 71,
      "hit": false,
      "t": 43010.51196777357,
      "d": 52.73469140625093,
      "v": 73
    },
    {
      "midi": 79,
      "hit": false,
      "t": 43138.930707031315,
      "d": 112.79364550781611,
      "v": 64
    },
    {
      "midi": 64,
      "hit": false,
      "t": 43138.93070703139,
      "d": 44.922144531250524,
      "v": 56
    },
    {
      "midi": 69,
      "hit": false,
      "t": 43138.93070703139,
      "d": 44.922144531250524,
      "v": 70
    },
    {
      "midi": 81,
      "hit": false,
      "t": 43259.53689941413,
      "d": 113.28192968750227,
      "v": 64
    },
    {
      "midi": 59,
      "hit": false,
      "t": 43259.536899414205,
      "d": 45.410428710936685,
      "v": 56
    },
    {
      "midi": 64,
      "hit": false,
      "t": 43259.536899414205,
      "d": 45.410428710936685,
      "v": 70
    },
    {
      "midi": 84,
      "hit": false,
      "t": 43380.631375976634,
      "d": 117.676487304685,
      "v": 64
    },
    {
      "midi": 57,
      "hit": false,
      "t": 43380.63137597671,
      "d": 49.80498632812669,
      "v": 56
    },
    {
      "midi": 62,
      "hit": false,
      "t": 43380.63137597671,
      "d": 49.80498632812669,
      "v": 70
    },
    {
      "midi": 86,
      "hit": false,
      "t": 43506.12041015632,
      "d": 117.676487304685,
      "v": 65
    },
    {
      "midi": 59,
      "hit": false,
      "t": 43506.1204101564,
      "d": 49.80498632812669,
      "v": 57
    },
    {
      "midi": 64,
      "hit": false,
      "t": 43506.1204101564,
      "d": 49.80498632812669,
      "v": 71
    },
    {
      "midi": 88,
      "hit": false,
      "t": 43631.609444336005,
      "d": 113.28192968750227,
      "v": 64
    },
    {
      "midi": 57,
      "hit": false,
      "t": 43631.60944433609,
      "d": 45.410428710936685,
      "v": 56
    },
    {
      "midi": 62,
      "hit": false,
      "t": 43631.60944433609,
      "d": 45.410428710936685,
      "v": 70
    },
    {
      "midi": 86,
      "hit": false,
      "t": 43752.70392089851,
      "d": 113.28192968750227,
      "v": 64
    },
    {
      "midi": 54,
      "hit": false,
      "t": 43752.703920898595,
      "d": 45.410428710936685,
      "v": 56
    },
    {
      "midi": 59,
      "hit": false,
      "t": 43752.703920898595,
      "d": 45.410428710936685,
      "v": 70
    },
    {
      "midi": 84,
      "hit": false,
      "t": 43873.79839746101,
      "d": 118.6530556640646,
      "v": 64
    },
    {
      "midi": 52,
      "hit": false,
      "t": 43873.7983974611,
      "d": 50.78155468749901,
      "v": 56
    },
    {
      "midi": 57,
      "hit": false,
      "t": 43873.7983974611,
      "d": 50.78155468749901,
      "v": 70
    },
    {
      "midi": 81,
      "hit": false,
      "t": 44002.21713671883,
      "d": 249.51321582031233,
      "v": 61
    },
    {
      "midi": 93,
      "hit": false,
      "t": 44002.21713671883,
      "d": 264.1617412109408,
      "v": 75
    },
    {
      "midi": 53,
      "hit": false,
      "t": 44002.21713671891,
      "d": 1997.5705791015935,
      "v": 72
    },
    {
      "midi": 60,
      "hit": false,
      "t": 44145.284401367346,
      "d": 45.898712890622846,
      "v": 56
    },
    {
      "midi": 65,
      "hit": false,
      "t": 44145.284401367346,
      "d": 45.898712890622846,
      "v": 70
    },
    {
      "midi": 79,
      "hit": false,
      "t": 44266.867162109455,
      "d": 113.77021386718843,
      "v": 64
    },
    {
      "midi": 59,
      "hit": false,
      "t": 44266.867162109535,
      "d": 45.898712890622846,
      "v": 56
    },
    {
      "midi": 64,
      "hit": false,
      "t": 44266.867162109535,
      "d": 45.898712890622846,
      "v": 70
    },
    {
      "midi": 76,
      "hit": false,
      "t": 44388.44992285164,
      "d": 118.6530556640646,
      "v": 64
    },
    {
      "midi": 59,
      "hit": false,
      "t": 44388.44992285172,
      "d": 50.78155468749901,
      "v": 56
    },
    {
      "midi": 64,
      "hit": false,
      "t": 44388.44992285172,
      "d": 50.78155468749901,
      "v": 70
    },
    {
      "midi": 81,
      "hit": false,
      "t": 44514.91552539071,
      "d": 231.44670117187343,
      "v": 57
    },
    {
      "midi": 93,
      "hit": false,
      "t": 44514.91552539071,
      "d": 246.09522656250192,
      "v": 71
    },
    {
      "midi": 60,
      "hit": false,
      "t": 44514.91552539079,
      "d": 96.1919833984357,
      "v": 45
    },
    {
      "midi": 65,
      "hit": false,
      "t": 44514.91552539079,
      "d": 96.1919833984357,
      "v": 59
    },
    {
      "midi": 79,
      "hit": false,
      "t": 44761.4990361329,
      "d": 113.28192968750227,
      "v": 64
    },
    {
      "midi": 60,
      "hit": false,
      "t": 44761.49903613298,
      "d": 98.63340429687378,
      "v": 44
    },
    {
      "midi": 65,
      "hit": false,
      "t": 44761.49903613298,
      "d": 98.63340429687378,
      "v": 54
    },
    {
      "midi": 76,
      "hit": false,
      "t": 44882.5935126954,
      "d": 120.11790820312308,
      "v": 64
    },
    {
      "midi": 81,
      "hit": false,
      "t": 45010.52396777352,
      "d": 369.6311240234354,
      "v": 59
    },
    {
      "midi": 93,
      "hit": false,
      "t": 45010.52396777352,
      "d": 369.6311240234354,
      "v": 73
    },
    {
      "midi": 60,
      "hit": false,
      "t": 45010.5239677736,
      "d": 52.73469140625093,
      "v": 59
    },
    {
      "midi": 65,
      "hit": false,
      "t": 45010.5239677736,
      "d": 52.73469140625093,
      "v": 69
    },
    {
      "midi": 60,
      "hit": false,
      "t": 45138.94270703142,
      "d": 44.922144531250524,
      "v": 56
    },
    {
      "midi": 65,
      "hit": false,
      "t": 45138.94270703142,
      "d": 44.922144531250524,
      "v": 70
    },
    {
      "midi": 59,
      "hit": false,
      "t": 45259.548899414236,
      "d": 45.410428710936685,
      "v": 56
    },
    {
      "midi": 64,
      "hit": false,
      "t": 45259.548899414236,
      "d": 45.410428710936685,
      "v": 70
    },
    {
      "midi": 79,
      "hit": false,
      "t": 45380.643375976644,
      "d": 117.676487304685,
      "v": 56
    },
    {
      "midi": 91,
      "hit": false,
      "t": 45380.643375976644,
      "d": 125.00074999999924,
      "v": 70
    },
    {
      "midi": 59,
      "hit": false,
      "t": 45380.64337597674,
      "d": 49.80498632812669,
      "v": 56
    },
    {
      "midi": 64,
      "hit": false,
      "t": 45380.64337597674,
      "d": 49.80498632812669,
      "v": 70
    },
    {
      "midi": 81,
      "hit": false,
      "t": 45506.13241015633,
      "d": 231.44670117187343,
      "v": 57
    },
    {
      "midi": 93,
      "hit": false,
      "t": 45506.13241015633,
      "d": 246.09522656250192,
      "v": 71
    },
    {
      "midi": 60,
      "hit": false,
      "t": 45506.13241015643,
      "d": 49.80498632812669,
      "v": 57
    },
    {
      "midi": 65,
      "hit": false,
      "t": 45506.13241015643,
      "d": 49.80498632812669,
      "v": 71
    },
    {
      "midi": 67,
      "hit": false,
      "t": 45631.621444336124,
      "d": 45.410428710936685,
      "v": 56
    },
    {
      "midi": 72,
      "hit": false,
      "t": 45631.621444336124,
      "d": 45.410428710936685,
      "v": 70
    },
    {
      "midi": 79,
      "hit": false,
      "t": 45752.71592089852,
      "d": 113.28192968750227,
      "v": 64
    },
    {
      "midi": 66,
      "hit": false,
      "t": 45752.71592089863,
      "d": 97.1685517578153,
      "v": 56
    },
    {
      "midi": 71,
      "hit": false,
      "t": 45752.71592089863,
      "d": 97.1685517578153,
      "v": 70
    },
    {
      "midi": 81,
      "hit": false,
      "t": 45873.81039746102,
      "d": 118.6530556640646,
      "v": 64
    },
    {
      "midi": 83,
      "hit": false,
      "t": 46002.22913671884,
      "d": 135.25471777343773,
      "v": 69
    },
    {
      "midi": 84,
      "hit": false,
      "t": 46145.296401367275,
      "d": 113.77021386718843,
      "v": 64
    },
    {
      "midi": 59,
      "hit": false,
      "t": 46145.29640136738,
      "d": 45.898712890622846,
      "v": 56
    },
    {
      "midi": 64,
      "hit": false,
      "t": 46145.29640136738,
      "d": 45.898712890622846,
      "v": 70
    },
    {
      "midi": 83,
      "hit": false,
      "t": 46266.879162109464,
      "d": 113.77021386718843,
      "v": 64
    },
    {
      "midi": 57,
      "hit": false,
      "t": 46266.879162109566,
      "d": 45.898712890622846,
      "v": 56
    },
    {
      "midi": 62,
      "hit": false,
      "t": 46266.879162109566,
      "d": 45.898712890622846,
      "v": 70
    },
    {
      "midi": 81,
      "hit": false,
      "t": 46388.46192285165,
      "d": 118.6530556640646,
      "v": 64
    },
    {
      "midi": 57,
      "hit": false,
      "t": 46388.461922851755,
      "d": 50.78155468749901,
      "v": 56
    },
    {
      "midi": 62,
      "hit": false,
      "t": 46388.461922851755,
      "d": 50.78155468749901,
      "v": 70
    },
    {
      "midi": 79,
      "hit": false,
      "t": 46514.92752539072,
      "d": 231.44670117187343,
      "v": 57
    },
    {
      "midi": 91,
      "hit": false,
      "t": 46514.92752539072,
      "d": 246.09522656250192,
      "v": 71
    },
    {
      "midi": 59,
      "hit": false,
      "t": 46514.92752539082,
      "d": 142.09069628906582,
      "v": 57
    },
    {
      "midi": 64,
      "hit": false,
      "t": 46514.92752539082,
      "d": 142.09069628906582,
      "v": 71
    },
    {
      "midi": 76,
      "hit": false,
      "t": 46761.511036132906,
      "d": 113.28192968750227,
      "v": 64
    },
    {
      "midi": 79,
      "hit": false,
      "t": 46882.60551269541,
      "d": 120.11790820312308,
      "v": 64
    },
    {
      "midi": 57,
      "hit": false,
      "t": 46882.60551269551,
      "d": 52.24640722656477,
      "v": 67
    },
    {
      "midi": 64,
      "hit": false,
      "t": 46882.60551269551,
      "d": 52.24640722656477,
      "v": 62
    },
    {
      "midi": 84,
      "hit": false,
      "t": 47010.53596777353,
      "d": 82.5200263671868,
      "v": 67
    },
    {
      "midi": 59,
      "hit": false,
      "t": 47010.53596777364,
      "d": 52.73469140625093,
      "v": 70
    },
    {
      "midi": 64,
      "hit": false,
      "t": 47010.53596777364,
      "d": 52.73469140625093,
      "v": 65
    },
    {
      "midi": 86,
      "hit": false,
      "t": 47098.42712011728,
      "d": 75.68404785156599,
      "v": 64
    },
    {
      "midi": 59,
      "hit": false,
      "t": 47138.95470703146,
      "d": 44.922144531250524,
      "v": 56
    },
    {
      "midi": 64,
      "hit": false,
      "t": 47138.95470703146,
      "d": 44.922144531250524,
      "v": 70
    },
    {
      "midi": 84,
      "hit": false,
      "t": 47179.48229394541,
      "d": 74.7074794921864,
      "v": 64
    },
    {
      "midi": 86,
      "hit": false,
      "t": 47259.56089941416,
      "d": 75.19576367187256,
      "v": 64
    },
    {
      "midi": 57,
      "hit": false,
      "t": 47259.560899414275,
      "d": 45.410428710936685,
      "v": 56
    },
    {
      "midi": 62,
      "hit": false,
      "t": 47259.560899414275,
      "d": 45.410428710936685,
      "v": 70
    },
    {
      "midi": 88,
      "hit": false,
      "t": 47340.12778906259,
      "d": 75.68404785156599,
      "v": 64
    },
    {
      "midi": 57,
      "hit": false,
      "t": 47380.65537597678,
      "d": 49.80498632812669,
      "v": 56
    },
    {
      "midi": 62,
      "hit": false,
      "t": 47380.65537597678,
      "d": 49.80498632812669,
      "v": 70
    },
    {
      "midi": 86,
      "hit": false,
      "t": 47421.18296289072,
      "d": 79.59032128906256,
      "v": 64
    },
    {
      "midi": 88,
      "hit": false,
      "t": 47506.14441015635,
      "d": 79.59032128906256,
      "v": 65
    },
    {
      "midi": 59,
      "hit": false,
      "t": 47506.14441015647,
      "d": 49.80498632812669,
      "v": 57
    },
    {
      "midi": 64,
      "hit": false,
      "t": 47506.14441015647,
      "d": 49.80498632812669,
      "v": 71
    },
    {
      "midi": 86,
      "hit": false,
      "t": 47591.10585742197,
      "d": 75.68404785156599,
      "v": 64
    },
    {
      "midi": 66,
      "hit": false,
      "t": 47631.63344433616,
      "d": 45.410428710936685,
      "v": 56
    },
    {
      "midi": 71,
      "hit": false,
      "t": 47631.63344433616,
      "d": 45.410428710936685,
      "v": 70
    },
    {
      "midi": 81,
      "hit": false,
      "t": 47672.1610312501,
      "d": 75.19576367187256,
      "v": 64
    },
    {
      "midi": 84,
      "hit": false,
      "t": 47752.727920898535,
      "d": 232.42326953125303,
      "v": 64
    },
    {
      "midi": 64,
      "hit": false,
      "t": 47752.727920898666,
      "d": 45.410428710936685,
      "v": 56
    },
    {
      "midi": 69,
      "hit": false,
      "t": 47752.727920898666,
      "d": 45.410428710936685,
      "v": 70
    },
    {
      "midi": 62,
      "hit": false,
      "t": 47873.82239746117,
      "d": 50.78155468749901,
      "v": 56
    },
    {
      "midi": 67,
      "hit": false,
      "t": 47873.82239746117,
      "d": 50.78155468749901,
      "v": 70
    },
    {
      "midi": 81,
      "hit": false,
      "t": 48002.24113671885,
      "d": 758.7936152343755,
      "v": 61
    },
    {
      "midi": 93,
      "hit": false,
      "t": 48002.24113671885,
      "d": 758.7936152343755,
      "v": 75
    },
    {
      "midi": 57,
      "hit": false,
      "t": 48145.308401367416,
      "d": 45.898712890622846,
      "v": 56
    },
    {
      "midi": 62,
      "hit": false,
      "t": 48145.308401367416,
      "d": 45.898712890622846,
      "v": 70
    },
    {
      "midi": 55,
      "hit": false,
      "t": 48266.891162109605,
      "d": 45.898712890622846,
      "v": 56
    },
    {
      "midi": 60,
      "hit": false,
      "t": 48266.891162109605,
      "d": 45.898712890622846,
      "v": 70
    },
    {
      "midi": 55,
      "hit": false,
      "t": 48388.473922851794,
      "d": 50.78155468749901,
      "v": 56
    },
    {
      "midi": 60,
      "hit": false,
      "t": 48388.473922851794,
      "d": 50.78155468749901,
      "v": 70
    },
    {
      "midi": 57,
      "hit": false,
      "t": 48514.93952539086,
      "d": 96.1919833984357,
      "v": 45
    },
    {
      "midi": 62,
      "hit": false,
      "t": 48514.93952539086,
      "d": 96.1919833984357,
      "v": 59
    },
    {
      "midi": 84,
      "hit": false,
      "t": 48761.52303613291,
      "d": 233.8881220703115,
      "v": 56
    },
    {
      "midi": 96,
      "hit": false,
      "t": 48761.52303613291,
      "d": 248.53664746094,
      "v": 70
    },
    {
      "midi": 57,
      "hit": false,
      "t": 48761.52303613305,
      "d": 98.63340429687378,
      "v": 44
    },
    {
      "midi": 62,
      "hit": false,
      "t": 48761.52303613305,
      "d": 98.63340429687378,
      "v": 54
    },
    {
      "midi": 81,
      "hit": false,
      "t": 49010.547967773535,
      "d": 495.1201582031281,
      "v": 59
    },
    {
      "midi": 93,
      "hit": false,
      "t": 49010.547967773535,
      "d": 495.1201582031281,
      "v": 73
    },
    {
      "midi": 57,
      "hit": false,
      "t": 49010.54796777367,
      "d": 52.73469140625093,
      "v": 59
    },
    {
      "midi": 62,
      "hit": false,
      "t": 49010.54796777367,
      "d": 52.73469140625093,
      "v": 69
    },
    {
      "midi": 57,
      "hit": false,
      "t": 49138.96670703149,
      "d": 44.922144531250524,
      "v": 56
    },
    {
      "midi": 62,
      "hit": false,
      "t": 49138.96670703149,
      "d": 44.922144531250524,
      "v": 70
    },
    {
      "midi": 55,
      "hit": false,
      "t": 49259.57289941431,
      "d": 45.410428710936685,
      "v": 56
    },
    {
      "midi": 60,
      "hit": false,
      "t": 49259.57289941431,
      "d": 45.410428710936685,
      "v": 70
    },
    {
      "midi": 55,
      "hit": false,
      "t": 49380.66737597681,
      "d": 49.80498632812669,
      "v": 56
    },
    {
      "midi": 60,
      "hit": false,
      "t": 49380.66737597681,
      "d": 49.80498632812669,
      "v": 70
    },
    {
      "midi": 79,
      "hit": false,
      "t": 49506.15641015635,
      "d": 231.44670117187343,
      "v": 57
    },
    {
      "midi": 91,
      "hit": false,
      "t": 49506.15641015635,
      "d": 246.09522656250192,
      "v": 71
    },
    {
      "midi": 57,
      "hit": false,
      "t": 49506.1564101565,
      "d": 49.80498632812669,
      "v": 57
    },
    {
      "midi": 62,
      "hit": false,
      "t": 49506.1564101565,
      "d": 49.80498632812669,
      "v": 71
    },
    {
      "midi": 64,
      "hit": false,
      "t": 49631.645444336194,
      "d": 45.410428710936685,
      "v": 56
    },
    {
      "midi": 69,
      "hit": false,
      "t": 49631.645444336194,
      "d": 45.410428710936685,
      "v": 70
    },
    {
      "midi": 77,
      "hit": false,
      "t": 49752.73992089854,
      "d": 232.42326953125303,
      "v": 56
    },
    {
      "midi": 89,
      "hit": false,
      "t": 49752.73992089854,
      "d": 247.07179492188152,
      "v": 70
    },
    {
      "midi": 62,
      "hit": false,
      "t": 49752.7399208987,
      "d": 97.1685517578153,
      "v": 56
    },
    {
      "midi": 67,
      "hit": false,
      "t": 49752.7399208987,
      "d": 97.1685517578153,
      "v": 70
    },
    {
      "midi": 76,
      "hit": false,
      "t": 50002.25313671886,
      "d": 512.2101044921874,
      "v": 61
    },
    {
      "midi": 88,
      "hit": false,
      "t": 50002.25313671886,
      "d": 512.2101044921874,
      "v": 75
    },
    {
      "midi": 67,
      "hit": false,
      "t": 50002.25313671901,
      "d": 1997.5705791015935,
      "v": 86
    },
    {
      "midi": 55,
      "hit": false,
      "t": 50145.32040136745,
      "d": 45.898712890622846,
      "v": 56
    },
    {
      "midi": 60,
      "hit": false,
      "t": 50145.32040136745,
      "d": 45.898712890622846,
      "v": 70
    },
    {
      "midi": 52,
      "hit": false,
      "t": 50266.90316210964,
      "d": 45.898712890622846,
      "v": 56
    },
    {
      "midi": 57,
      "hit": false,
      "t": 50266.90316210964,
      "d": 45.898712890622846,
      "v": 70
    },
    {
      "midi": 52,
      "hit": false,
      "t": 50388.485922851825,
      "d": 50.78155468749901,
      "v": 56
    },
    {
      "midi": 57,
      "hit": false,
      "t": 50388.485922851825,
      "d": 50.78155468749901,
      "v": 70
    },
    {
      "midi": 79,
      "hit": false,
      "t": 50514.95152539073,
      "d": 495.1201582031281,
      "v": 57
    },
    {
      "midi": 91,
      "hit": false,
      "t": 50514.95152539073,
      "d": 495.1201582031281,
      "v": 71
    },
    {
      "midi": 55,
      "hit": false,
      "t": 50514.95152539089,
      "d": 96.1919833984357,
      "v": 45
    },
    {
      "midi": 60,
      "hit": false,
      "t": 50514.95152539089,
      "d": 96.1919833984357,
      "v": 59
    },
    {
      "midi": 55,
      "hit": false,
      "t": 50761.53503613308,
      "d": 98.63340429687378,
      "v": 44
    },
    {
      "midi": 60,
      "hit": false,
      "t": 50761.53503613308,
      "d": 98.63340429687378,
      "v": 54
    },
    {
      "midi": 81,
      "hit": false,
      "t": 51010.559967773544,
      "d": 495.1201582031281,
      "v": 59
    },
    {
      "midi": 93,
      "hit": false,
      "t": 51010.559967773544,
      "d": 495.1201582031281,
      "v": 73
    },
    {
      "midi": 55,
      "hit": false,
      "t": 51010.559967773705,
      "d": 52.73469140625093,
      "v": 59
    },
    {
      "midi": 60,
      "hit": false,
      "t": 51010.559967773705,
      "d": 52.73469140625093,
      "v": 69
    },
    {
      "midi": 55,
      "hit": false,
      "t": 51138.97870703152,
      "d": 44.922144531250524,
      "v": 56
    },
    {
      "midi": 60,
      "hit": false,
      "t": 51138.97870703152,
      "d": 44.922144531250524,
      "v": 70
    },
    {
      "midi": 52,
      "hit": false,
      "t": 51259.58489941434,
      "d": 45.410428710936685,
      "v": 56
    },
    {
      "midi": 57,
      "hit": false,
      "t": 51259.58489941434,
      "d": 45.410428710936685,
      "v": 70
    },
    {
      "midi": 52,
      "hit": false,
      "t": 51380.67937597684,
      "d": 49.80498632812669,
      "v": 56
    },
    {
      "midi": 57,
      "hit": false,
      "t": 51380.67937597684,
      "d": 49.80498632812669,
      "v": 70
    },
    {
      "midi": 84,
      "hit": false,
      "t": 51506.16841015636,
      "d": 493.6553056640623,
      "v": 57
    },
    {
      "midi": 96,
      "hit": false,
      "t": 51506.16841015636,
      "d": 493.6553056640623,
      "v": 71
    },
    {
      "midi": 55,
      "hit": false,
      "t": 51506.16841015653,
      "d": 49.80498632812669,
      "v": 57
    },
    {
      "midi": 60,
      "hit": false,
      "t": 51506.16841015653,
      "d": 49.80498632812669,
      "v": 71
    },
    {
      "midi": 59,
      "hit": false,
      "t": 51631.657444336226,
      "d": 45.410428710936685,
      "v": 56
    },
    {
      "midi": 64,
      "hit": false,
      "t": 51631.657444336226,
      "d": 45.410428710936685,
      "v": 70
    },
    {
      "midi": 57,
      "hit": false,
      "t": 51752.75192089873,
      "d": 45.410428710936685,
      "v": 56
    },
    {
      "midi": 62,
      "hit": false,
      "t": 51752.75192089873,
      "d": 45.410428710936685,
      "v": 70
    },
    {
      "midi": 55,
      "hit": false,
      "t": 51873.84639746123,
      "d": 50.78155468749901,
      "v": 56
    },
    {
      "midi": 60,
      "hit": false,
      "t": 51873.84639746123,
      "d": 50.78155468749901,
      "v": 70
    },
    {
      "midi": 86,
      "hit": false,
      "t": 52002.26513671886,
      "d": 758.7936152343755,
      "v": 61
    },
    {
      "midi": 98,
      "hit": false,
      "t": 52002.26513671886,
      "d": 758.7936152343755,
      "v": 75
    },
    {
      "midi": 65,
      "hit": false,
      "t": 52002.26513671904,
      "d": 1997.5705791015935,
      "v": 86
    },
    {
      "midi": 53,
      "hit": false,
      "t": 52145.33240136748,
      "d": 45.898712890622846,
      "v": 56
    },
    {
      "midi": 58,
      "hit": false,
      "t": 52145.33240136748,
      "d": 45.898712890622846,
      "v": 70
    },
    {
      "midi": 50,
      "hit": false,
      "t": 52266.91516210967,
      "d": 45.898712890622846,
      "v": 56
    },
    {
      "midi": 55,
      "hit": false,
      "t": 52266.91516210967,
      "d": 45.898712890622846,
      "v": 70
    },
    {
      "midi": 50,
      "hit": false,
      "t": 52388.49792285186,
      "d": 50.78155468749901,
      "v": 56
    },
    {
      "midi": 55,
      "hit": false,
      "t": 52388.49792285186,
      "d": 50.78155468749901,
      "v": 70
    },
    {
      "midi": 53,
      "hit": false,
      "t": 52514.96352539092,
      "d": 96.1919833984357,
      "v": 45
    },
    {
      "midi": 58,
      "hit": false,
      "t": 52514.96352539092,
      "d": 96.1919833984357,
      "v": 59
    },
    {
      "midi": 88,
      "hit": false,
      "t": 52761.54703613292,
      "d": 233.8881220703115,
      "v": 56
    },
    {
      "midi": 100,
      "hit": false,
      "t": 52761.54703613292,
      "d": 248.53664746094,
      "v": 70
    },
    {
      "midi": 53,
      "hit": false,
      "t": 52761.54703613311,
      "d": 98.63340429687378,
      "v": 44
    },
    {
      "midi": 58,
      "hit": false,
      "t": 52761.54703613311,
      "d": 98.63340429687378,
      "v": 54
    },
    {
      "midi": 86,
      "hit": false,
      "t": 53010.57196777355,
      "d": 369.6311240234354,
      "v": 59
    },
    {
      "midi": 98,
      "hit": false,
      "t": 53010.57196777355,
      "d": 369.6311240234354,
      "v": 73
    },
    {
      "midi": 53,
      "hit": false,
      "t": 53010.571967773736,
      "d": 52.73469140625093,
      "v": 59
    },
    {
      "midi": 58,
      "hit": false,
      "t": 53010.571967773736,
      "d": 52.73469140625093,
      "v": 69
    },
    {
      "midi": 53,
      "hit": false,
      "t": 53138.99070703155,
      "d": 44.922144531250524,
      "v": 56
    },
    {
      "midi": 58,
      "hit": false,
      "t": 53138.99070703155,
      "d": 44.922144531250524,
      "v": 70
    },
    {
      "midi": 50,
      "hit": false,
      "t": 53259.59689941437,
      "d": 45.410428710936685,
      "v": 56
    },
    {
      "midi": 55,
      "hit": false,
      "t": 53259.59689941437,
      "d": 45.410428710936685,
      "v": 70
    },
    {
      "midi": 88,
      "hit": false,
      "t": 53380.69137597667,
      "d": 117.676487304685,
      "v": 56
    },
    {
      "midi": 100,
      "hit": false,
      "t": 53380.69137597667,
      "d": 125.00074999999924,
      "v": 70
    },
    {
      "midi": 50,
      "hit": false,
      "t": 53380.69137597687,
      "d": 49.80498632812669,
      "v": 56
    },
    {
      "midi": 55,
      "hit": false,
      "t": 53380.69137597687,
      "d": 49.80498632812669,
      "v": 70
    },
    {
      "midi": 86,
      "hit": false,
      "t": 53506.180410156354,
      "d": 231.44670117187343,
      "v": 57
    },
    {
      "midi": 98,
      "hit": false,
      "t": 53506.180410156354,
      "d": 246.09522656250192,
      "v": 71
    },
    {
      "midi": 53,
      "hit": false,
      "t": 53506.180410156565,
      "d": 49.80498632812669,
      "v": 57
    },
    {
      "midi": 58,
      "hit": false,
      "t": 53506.180410156565,
      "d": 49.80498632812669,
      "v": 71
    },
    {
      "midi": 57,
      "hit": false,
      "t": 53631.66944433626,
      "d": 45.410428710936685,
      "v": 56
    },
    {
      "midi": 62,
      "hit": false,
      "t": 53631.66944433626,
      "d": 45.410428710936685,
      "v": 70
    },
    {
      "midi": 84,
      "hit": false,
      "t": 53752.76392089854,
      "d": 232.42326953125303,
      "v": 56
    },
    {
      "midi": 96,
      "hit": false,
      "t": 53752.76392089854,
      "d": 247.07179492188152,
      "v": 70
    },
    {
      "midi": 55,
      "hit": false,
      "t": 53752.76392089876,
      "d": 97.1685517578153,
      "v": 56
    },
    {
      "midi": 60,
      "hit": false,
      "t": 53752.76392089876,
      "d": 97.1685517578153,
      "v": 70
    },
    {
      "midi": 81,
      "hit": false,
      "t": 54002.27713671886,
      "d": 385.7445019531224,
      "v": 61
    },
    {
      "midi": 93,
      "hit": false,
      "t": 54002.27713671886,
      "d": 385.7445019531224,
      "v": 75
    },
    {
      "midi": 52,
      "hit": false,
      "t": 54145.34440136751,
      "d": 45.898712890622846,
      "v": 56
    },
    {
      "midi": 57,
      "hit": false,
      "t": 54145.34440136751,
      "d": 45.898712890622846,
      "v": 70
    },
    {
      "midi": 50,
      "hit": false,
      "t": 54266.9271621097,
      "d": 45.898712890622846,
      "v": 56
    },
    {
      "midi": 55,
      "hit": false,
      "t": 54266.9271621097,
      "d": 45.898712890622846,
      "v": 70
    },
    {
      "midi": 81,
      "hit": false,
      "t": 54388.50992285167,
      "d": 118.6530556640646,
      "v": 56
    },
    {
      "midi": 93,
      "hit": false,
      "t": 54388.50992285167,
      "d": 125.97731835937884,
      "v": 70
    },
    {
      "midi": 50,
      "hit": false,
      "t": 54388.50992285189,
      "d": 50.78155468749901,
      "v": 56
    },
    {
      "midi": 55,
      "hit": false,
      "t": 54388.50992285189,
      "d": 50.78155468749901,
      "v": 70
    },
    {
      "midi": 79,
      "hit": false,
      "t": 54514.975525390735,
      "d": 231.44670117187343,
      "v": 57
    },
    {
      "midi": 91,
      "hit": false,
      "t": 54514.975525390735,
      "d": 246.09522656250192,
      "v": 71
    },
    {
      "midi": 52,
      "hit": false,
      "t": 54514.97552539095,
      "d": 96.1919833984357,
      "v": 45
    },
    {
      "midi": 57,
      "hit": false,
      "t": 54514.97552539095,
      "d": 96.1919833984357,
      "v": 59
    },
    {
      "midi": 76,
      "hit": false,
      "t": 54761.55903613292,
      "d": 233.8881220703115,
      "v": 56
    },
    {
      "midi": 88,
      "hit": false,
      "t": 54761.55903613292,
      "d": 248.53664746094,
      "v": 70
    },
    {
      "midi": 52,
      "hit": false,
      "t": 54761.55903613314,
      "d": 98.63340429687378,
      "v": 44
    },
    {
      "midi": 57,
      "hit": false,
      "t": 54761.55903613314,
      "d": 98.63340429687378,
      "v": 54
    },
    {
      "midi": 81,
      "hit": false,
      "t": 55010.58396777355,
      "d": 495.1201582031281,
      "v": 59
    },
    {
      "midi": 93,
      "hit": false,
      "t": 55010.58396777355,
      "d": 495.1201582031281,
      "v": 73
    },
    {
      "midi": 52,
      "hit": false,
      "t": 55010.58396777377,
      "d": 52.73469140625093,
      "v": 59
    },
    {
      "midi": 57,
      "hit": false,
      "t": 55010.58396777377,
      "d": 52.73469140625093,
      "v": 69
    },
    {
      "midi": 52,
      "hit": false,
      "t": 55139.002707031585,
      "d": 44.922144531250524,
      "v": 56
    },
    {
      "midi": 57,
      "hit": false,
      "t": 55139.002707031585,
      "d": 44.922144531250524,
      "v": 70
    },
    {
      "midi": 50,
      "hit": false,
      "t": 55259.6088994144,
      "d": 45.410428710936685,
      "v": 56
    },
    {
      "midi": 55,
      "hit": false,
      "t": 55259.6088994144,
      "d": 45.410428710936685,
      "v": 70
    },
    {
      "midi": 50,
      "hit": false,
      "t": 55380.703375976904,
      "d": 49.80498632812669,
      "v": 56
    },
    {
      "midi": 55,
      "hit": false,
      "t": 55380.703375976904,
      "d": 49.80498632812669,
      "v": 70
    },
    {
      "midi": 81,
      "hit": false,
      "t": 55506.19241015636,
      "d": 493.6553056640623,
      "v": 57
    },
    {
      "midi": 93,
      "hit": false,
      "t": 55506.19241015636,
      "d": 493.6553056640623,
      "v": 67
    },
    {
      "midi": 52,
      "hit": false,
      "t": 55506.1924101566,
      "d": 49.80498632812669,
      "v": 57
    },
    {
      "midi": 57,
      "hit": false,
      "t": 55506.1924101566,
      "d": 49.80498632812669,
      "v": 71
    },
    {
      "midi": 59,
      "hit": false,
      "t": 55631.68144433629,
      "d": 45.410428710936685,
      "v": 56
    },
    {
      "midi": 64,
      "hit": false,
      "t": 55631.68144433629,
      "d": 45.410428710936685,
      "v": 70
    },
    {
      "midi": 57,
      "hit": false,
      "t": 55752.77592089879,
      "d": 45.410428710936685,
      "v": 56
    },
    {
      "midi": 62,
      "hit": false,
      "t": 55752.77592089879,
      "d": 45.410428710936685,
      "v": 70
    },
    {
      "midi": 55,
      "hit": false,
      "t": 55873.870397461294,
      "d": 50.78155468749901,
      "v": 56
    },
    {
      "midi": 60,
      "hit": false,
      "t": 55873.870397461294,
      "d": 50.78155468749901,
      "v": 70
    },
    {
      "midi": 81,
      "hit": false,
      "t": 56002.289136718864,
      "d": 1997.5705791015644,
      "v": 56
    },
    {
      "midi": 93,
      "hit": false,
      "t": 56002.289136718864,
      "d": 1997.5705791015644,
      "v": 66
    },
    {
      "midi": 50,
      "hit": false,
      "t": 56002.289136719104,
      "d": 1997.5705791015935,
      "v": 72
    },
    {
      "midi": 57,
      "hit": false,
      "t": 56145.35640136754,
      "d": 45.898712890622846,
      "v": 56
    },
    {
      "midi": 62,
      "hit": false,
      "t": 56145.35640136754,
      "d": 45.898712890622846,
      "v": 70
    },
    {
      "midi": 55,
      "hit": false,
      "t": 56266.93916210973,
      "d": 45.898712890622846,
      "v": 56
    },
    {
      "midi": 60,
      "hit": false,
      "t": 56266.93916210973,
      "d": 45.898712890622846,
      "v": 70
    },
    {
      "midi": 55,
      "hit": false,
      "t": 56388.52192285192,
      "d": 50.78155468749901,
      "v": 56
    },
    {
      "midi": 60,
      "hit": false,
      "t": 56388.52192285192,
      "d": 50.78155468749901,
      "v": 70
    },
    {
      "midi": 57,
      "hit": false,
      "t": 56514.987525390985,
      "d": 96.1919833984357,
      "v": 57
    },
    {
      "midi": 62,
      "hit": false,
      "t": 56514.987525390985,
      "d": 96.1919833984357,
      "v": 71
    },
    {
      "midi": 60,
      "hit": false,
      "t": 56761.57103613317,
      "d": 98.63340429687378,
      "v": 56
    },
    {
      "midi": 65,
      "hit": false,
      "t": 56761.57103613317,
      "d": 98.63340429687378,
      "v": 70
    },
    {
      "midi": 57,
      "hit": false,
      "t": 57010.5959677738,
      "d": 52.73469140625093,
      "v": 59
    },
    {
      "midi": 62,
      "hit": false,
      "t": 57010.5959677738,
      "d": 52.73469140625093,
      "v": 73
    },
    {
      "midi": 57,
      "hit": false,
      "t": 57139.014707031616,
      "d": 44.922144531250524,
      "v": 56
    },
    {
      "midi": 62,
      "hit": false,
      "t": 57139.014707031616,
      "d": 44.922144531250524,
      "v": 70
    },
    {
      "midi": 55,
      "hit": false,
      "t": 57259.62089941443,
      "d": 45.410428710936685,
      "v": 56
    },
    {
      "midi": 60,
      "hit": false,
      "t": 57259.62089941443,
      "d": 45.410428710936685,
      "v": 70
    },
    {
      "midi": 55,
      "hit": false,
      "t": 57380.715375976935,
      "d": 49.80498632812669,
      "v": 56
    },
    {
      "midi": 60,
      "hit": false,
      "t": 57380.715375976935,
      "d": 49.80498632812669,
      "v": 70
    },
    {
      "midi": 57,
      "hit": false,
      "t": 57506.20441015663,
      "d": 49.80498632812669,
      "v": 57
    },
    {
      "midi": 62,
      "hit": false,
      "t": 57506.20441015663,
      "d": 49.80498632812669,
      "v": 71
    },
    {
      "midi": 64,
      "hit": false,
      "t": 57631.69344433632,
      "d": 45.410428710936685,
      "v": 56
    },
    {
      "midi": 69,
      "hit": false,
      "t": 57631.69344433632,
      "d": 45.410428710936685,
      "v": 70
    },
    {
      "midi": 62,
      "hit": false,
      "t": 57752.78792089882,
      "d": 97.1685517578153,
      "v": 56
    },
    {
      "midi": 67,
      "hit": false,
      "t": 57752.78792089882,
      "d": 97.1685517578153,
      "v": 70
    },
    {
      "midi": 69,
      "hit": false,
      "t": 58002.30113671887,
      "d": 1997.5705791015644,
      "v": 56
    },
    {
      "midi": 74,
      "hit": false,
      "t": 58002.30113671887,
      "d": 1997.5705791015644,
      "v": 56
    },
    {
      "midi": 81,
      "hit": false,
      "t": 58002.30113671887,
      "d": 1997.5705791015644,
      "v": 70
    },
    {
      "midi": 62,
      "hit": false,
      "t": 58002.301136719136,
      "d": 1997.5705791015644,
      "v": 56
    },
    {
      "midi": 69,
      "hit": false,
      "t": 58002.301136719136,
      "d": 1997.5705791015644,
      "v": 56
    },
    {
      "midi": 74,
      "hit": false,
      "t": 58002.301136719136,
      "d": 1997.5705791015644,
      "v": 70
    }
  ]
}