{
  "jsonPath": "Soundtracks/Video Game Music/Street Fighter 2/street-fighter-ii-zangief-stage.json",
  "path": "Soundtracks\\Video Game Music\\Street Fighter 2\\Street_Fighter_II_Zangief_Stage.mid",
  "name": "Street_Fighter_II_Zangief_Stage",
  "difficulty": "Advanced",
  "bpm": 120.00024000048,
  "notes": [
    {
      "midi": 38,
      "hit": false,
      "t": 4.882841796875,
      "d": 509.28039941406246,
      "v": 68
    },
    {
      "midi": 40,
      "hit": false,
      "t": 514.651525390625,
      "d": 495.120158203125,
      "v": 64
    },
    {
      "midi": 41,
      "hit": false,
      "t": 1010.2599677734376,
      "d": 233.88812207031253,
      "v": 67
    },
    {
      "midi": 43,
      "hit": false,
      "t": 1259.2848994140627,
      "d": 740.23881640625,
      "v": 64
    },
    {
      "midi": 38,
      "hit": false,
      "t": 2145.0324013671875,
      "d": 242.67723730468742,
      "v": 63
    },
    {
      "midi": 38,
      "hit": false,
      "t": 2388.1979228515625,
      "d": 118.65305566406232,
      "v": 63
    },
    {
      "midi": 40,
      "hit": false,
      "t": 2514.6635253906247,
      "d": 495.1201582031249,
      "v": 64
    },
    {
      "midi": 41,
      "hit": false,
      "t": 3010.271967773437,
      "d": 233.88812207031242,
      "v": 67
    },
    {
      "midi": 43,
      "hit": false,
      "t": 3259.296899414062,
      "d": 740.23881640625,
      "v": 64
    },
    {
      "midi": 38,
      "hit": false,
      "t": 4001.9771367187495,
      "d": 512.2101044921874,
      "v": 60
    },
    {
      "midi": 50,
      "hit": false,
      "t": 4001.9771367187495,
      "d": 512.2101044921874,
      "v": 75
    },
    {
      "midi": 69,
      "hit": false,
      "t": 4001.9771367187504,
      "d": 3997.5825791015623,
      "v": 64
    },
    {
      "midi": 40,
      "hit": false,
      "t": 4514.675525390624,
      "d": 495.12015820312536,
      "v": 56
    },
    {
      "midi": 52,
      "hit": false,
      "t": 4514.675525390624,
      "d": 495.12015820312536,
      "v": 71
    },
    {
      "midi": 41,
      "hit": false,
      "t": 5010.283967773436,
      "d": 233.88812207031242,
      "v": 59
    },
    {
      "midi": 53,
      "hit": false,
      "t": 5010.283967773436,
      "d": 248.53664746093727,
      "v": 73
    },
    {
      "midi": 43,
      "hit": false,
      "t": 5259.308899414061,
      "d": 740.2388164062504,
      "v": 56
    },
    {
      "midi": 55,
      "hit": false,
      "t": 5259.308899414061,
      "d": 740.2388164062504,
      "v": 70
    },
    {
      "midi": 38,
      "hit": false,
      "t": 6145.0564013671865,
      "d": 242.67723730468788,
      "v": 55
    },
    {
      "midi": 50,
      "hit": false,
      "t": 6145.0564013671865,
      "d": 242.67723730468788,
      "v": 70
    },
    {
      "midi": 38,
      "hit": false,
      "t": 6388.221922851561,
      "d": 118.65305566406278,
      "v": 55
    },
    {
      "midi": 50,
      "hit": false,
      "t": 6388.221922851561,
      "d": 125.9773183593752,
      "v": 70
    },
    {
      "midi": 40,
      "hit": false,
      "t": 6514.687525390624,
      "d": 495.12015820312536,
      "v": 56
    },
    {
      "midi": 52,
      "hit": false,
      "t": 6514.687525390624,
      "d": 495.12015820312536,
      "v": 71
    },
    {
      "midi": 41,
      "hit": false,
      "t": 7010.295967773436,
      "d": 233.88812207031242,
      "v": 59
    },
    {
      "midi": 53,
      "hit": false,
      "t": 7010.295967773436,
      "d": 248.53664746093727,
      "v": 73
    },
    {
      "midi": 43,
      "hit": false,
      "t": 7259.3208994140605,
      "d": 740.2388164062504,
      "v": 56
    },
    {
      "midi": 55,
      "hit": false,
      "t": 7259.3208994140605,
      "d": 740.2388164062504,
      "v": 70
    },
    {
      "midi": 38,
      "hit": false,
      "t": 8002.001136718748,
      "d": 512.2101044921883,
      "v": 68
    },
    {
      "midi": 69,
      "hit": false,
      "t": 8002.00113671875,
      "d": 3997.5825791015623,
      "v": 64
    },
    {
      "midi": 41,
      "hit": false,
      "t": 9138.726707031248,
      "d": 226.5638593750009,
      "v": 64
    },
    {
      "midi": 38,
      "hit": false,
      "t": 9380.427375976562,
      "d": 117.67648730468682,
      "v": 63
    },
    {
      "midi": 43,
      "hit": false,
      "t": 9505.91641015625,
      "d": 231.44670117187525,
      "v": 65
    },
    {
      "midi": 41,
      "hit": false,
      "t": 9752.499920898437,
      "d": 232.4232695312494,
      "v": 64
    },
    {
      "midi": 38,
      "hit": false,
      "t": 10002.01313671875,
      "d": 512.2101044921874,
      "v": 68
    },
    {
      "midi": 41,
      "hit": false,
      "t": 11138.738707031249,
      "d": 226.56385937499908,
      "v": 64
    },
    {
      "midi": 38,
      "hit": false,
      "t": 11380.43937597656,
      "d": 117.67648730468682,
      "v": 63
    },
    {
      "midi": 43,
      "hit": false,
      "t": 11505.928410156248,
      "d": 117.67648730468682,
      "v": 65
    },
    {
      "midi": 45,
      "hit": false,
      "t": 11631.417444335935,
      "d": 113.28192968750045,
      "v": 64
    },
    {
      "midi": 36,
      "hit": false,
      "t": 11752.511920898436,
      "d": 232.4232695312494,
      "v": 62
    },
    {
      "midi": 38,
      "hit": false,
      "t": 12002.025136718748,
      "d": 512.2101044921874,
      "v": 60
    },
    {
      "midi": 50,
      "hit": false,
      "t": 12002.025136718748,
      "d": 512.2101044921874,
      "v": 75
    },
    {
      "midi": 69,
      "hit": false,
      "t": 12002.02513671875,
      "d": 3997.582579101563,
      "v": 56
    },
    {
      "midi": 81,
      "hit": false,
      "t": 12002.02513671875,
      "d": 3997.582579101563,
      "v": 66
    },
    {
      "midi": 41,
      "hit": false,
      "t": 13138.750707031248,
      "d": 226.56385937499908,
      "v": 56
    },
    {
      "midi": 53,
      "hit": false,
      "t": 13138.750707031248,
      "d": 241.21238476562394,
      "v": 70
    },
    {
      "midi": 38,
      "hit": false,
      "t": 13380.45137597656,
      "d": 117.67648730468682,
      "v": 63
    },
    {
      "midi": 43,
      "hit": false,
      "t": 13505.940410156247,
      "d": 231.44670117187525,
      "v": 57
    },
    {
      "midi": 55,
      "hit": false,
      "t": 13505.940410156247,
      "d": 246.0952265625001,
      "v": 71
    },
    {
      "midi": 41,
      "hit": false,
      "t": 13752.523920898435,
      "d": 232.4232695312494,
      "v": 56
    },
    {
      "midi": 53,
      "hit": false,
      "t": 13752.523920898435,
      "d": 247.07179492187424,
      "v": 70
    },
    {
      "midi": 38,
      "hit": false,
      "t": 14002.037136718747,
      "d": 512.2101044921874,
      "v": 60
    },
    {
      "midi": 50,
      "hit": false,
      "t": 14002.037136718747,
      "d": 512.2101044921874,
      "v": 75
    },
    {
      "midi": 41,
      "hit": false,
      "t": 15138.762707031246,
      "d": 226.56385937499908,
      "v": 56
    },
    {
      "midi": 53,
      "hit": false,
      "t": 15138.762707031246,
      "d": 241.21238476562394,
      "v": 70
    },
    {
      "midi": 38,
      "hit": false,
      "t": 15380.463375976558,
      "d": 117.67648730468682,
      "v": 63
    },
    {
      "midi": 43,
      "hit": false,
      "t": 15505.952410156246,
      "d": 117.67648730468682,
      "v": 65
    },
    {
      "midi": 45,
      "hit": false,
      "t": 15631.441444335933,
      "d": 113.28192968750045,
      "v": 64
    },
    {
      "midi": 36,
      "hit": false,
      "t": 15752.535920898434,
      "d": 232.4232695312494,
      "v": 54
    },
    {
      "midi": 48,
      "hit": false,
      "t": 15752.535920898434,
      "d": 247.07179492187424,
      "v": 70
    },
    {
      "midi": 38,
      "hit": false,
      "t": 16002.049136718746,
      "d": 512.2101044921874,
      "v": 60
    },
    {
      "midi": 50,
      "hit": false,
      "t": 16002.049136718746,
      "d": 512.2101044921874,
      "v": 75
    },
    {
      "midi": 81,
      "hit": false,
      "t": 16002.049136718751,
      "d": 512.2101044921892,
      "v": 85
    },
    {
      "midi": 69,
      "hit": false,
      "t": 16002.049136718751,
      "d": 2512.2221044921844,
      "v": 64
    },
    {
      "midi": 84,
      "hit": false,
      "t": 16514.747525390627,
      "d": 367.18970312500096,
      "v": 81
    },
    {
      "midi": 81,
      "hit": false,
      "t": 16882.425512695314,
      "d": 263.1851728515612,
      "v": 68
    },
    {
      "midi": 41,
      "hit": false,
      "t": 17138.774707031247,
      "d": 226.5638593750009,
      "v": 56
    },
    {
      "midi": 53,
      "hit": false,
      "t": 17138.774707031247,
      "d": 241.21238476562576,
      "v": 70
    },
    {
      "midi": 79,
      "hit": false,
      "t": 17138.77470703125,
      "d": 226.5638593750009,
      "v": 80
    },
    {
      "midi": 38,
      "hit": false,
      "t": 17380.47537597656,
      "d": 117.67648730468864,
      "v": 63
    },
    {
      "midi": 81,
      "hit": false,
      "t": 17380.475375976563,
      "d": 117.67648730468864,
      "v": 80
    },
    {
      "midi": 43,
      "hit": false,
      "t": 17505.964410156248,
      "d": 231.44670117187343,
      "v": 57
    },
    {
      "midi": 55,
      "hit": false,
      "t": 17505.964410156248,
      "d": 246.09522656249828,
      "v": 71
    },
    {
      "midi": 79,
      "hit": false,
      "t": 17505.96441015625,
      "d": 231.44670117187343,
      "v": 81
    },
    {
      "midi": 41,
      "hit": false,
      "t": 17752.547920898432,
      "d": 232.4232695312494,
      "v": 56
    },
    {
      "midi": 53,
      "hit": false,
      "t": 17752.547920898432,
      "d": 247.07179492187424,
      "v": 70
    },
    {
      "midi": 77,
      "hit": false,
      "t": 17752.547920898436,
      "d": 232.4232695312494,
      "v": 80
    },
    {
      "midi": 38,
      "hit": false,
      "t": 18002.061136718745,
      "d": 512.2101044921874,
      "v": 60
    },
    {
      "midi": 50,
      "hit": false,
      "t": 18002.061136718745,
      "d": 512.2101044921874,
      "v": 75
    },
    {
      "midi": 72,
      "hit": false,
      "t": 18002.06113671875,
      "d": 512.2101044921874,
      "v": 85
    },
    {
      "midi": 79,
      "hit": false,
      "t": 18514.759525390622,
      "d": 367.18970312500096,
      "v": 81
    },
    {
      "midi": 67,
      "hit": false,
      "t": 18514.759525390622,
      "d": 495.12015820312445,
      "v": 65
    },
    {
      "midi": 77,
      "hit": false,
      "t": 18882.43751269531,
      "d": 263.1851728515576,
      "v": 68
    },
    {
      "midi": 69,
      "hit": false,
      "t": 19010.367967773433,
      "d": 127.93045507812349,
      "v": 67
    },
    {
      "midi": 74,
      "hit": false,
      "t": 19138.786707031242,
      "d": 226.5638593750009,
      "v": 80
    },
    {
      "midi": 69,
      "hit": false,
      "t": 19138.786707031242,
      "d": 241.21238476562576,
      "v": 64
    },
    {
      "midi": 41,
      "hit": false,
      "t": 19138.786707031246,
      "d": 226.5638593750009,
      "v": 56
    },
    {
      "midi": 53,
      "hit": false,
      "t": 19138.786707031246,
      "d": 241.21238476562576,
      "v": 70
    },
    {
      "midi": 76,
      "hit": false,
      "t": 19380.487375976554,
      "d": 117.67648730468864,
      "v": 80
    },
    {
      "midi": 69,
      "hit": false,
      "t": 19380.487375976554,
      "d": 125.00075000000288,
      "v": 64
    },
    {
      "midi": 38,
      "hit": false,
      "t": 19380.487375976558,
      "d": 117.67648730468864,
      "v": 63
    },
    {
      "midi": 77,
      "hit": false,
      "t": 19505.976410156243,
      "d": 493.6553056640623,
      "v": 81
    },
    {
      "midi": 69,
      "hit": false,
      "t": 19505.976410156243,
      "d": 493.6553056640623,
      "v": 65
    },
    {
      "midi": 43,
      "hit": false,
      "t": 19505.976410156247,
      "d": 117.67648730468864,
      "v": 65
    },
    {
      "midi": 45,
      "hit": false,
      "t": 19631.465444335936,
      "d": 113.28192968749863,
      "v": 64
    },
    {
      "midi": 36,
      "hit": false,
      "t": 19752.559920898435,
      "d": 232.4232695312494,
      "v": 54
    },
    {
      "midi": 48,
      "hit": false,
      "t": 19752.559920898435,
      "d": 247.07179492187424,
      "v": 70
    },
    {
      "midi": 81,
      "hit": false,
      "t": 20002.073136718744,
      "d": 512.2101044921874,
      "v": 85
    },
    {
      "midi": 69,
      "hit": false,
      "t": 20002.073136718744,
      "d": 2512.2221044921826,
      "v": 64
    },
    {
      "midi": 38,
      "hit": false,
      "t": 20002.073136718747,
      "d": 512.2101044921874,
      "v": 60
    },
    {
      "midi": 50,
      "hit": false,
      "t": 20002.073136718747,
      "d": 512.2101044921874,
      "v": 75
    },
    {
      "midi": 84,
      "hit": false,
      "t": 20514.771525390617,
      "d": 367.18970312500096,
      "v": 81
    },
    {
      "midi": 81,
      "hit": false,
      "t": 20882.449512695304,
      "d": 263.1851728515612,
      "v": 68
    },
    {
      "midi": 79,
      "hit": false,
      "t": 21138.79870703124,
      "d": 226.5638593750009,
      "v": 80
    },
    {
      "midi": 41,
      "hit": false,
      "t": 21138.79870703125,
      "d": 226.5638593750009,
      "v": 56
    },
    {
      "midi": 53,
      "hit": false,
      "t": 21138.79870703125,
      "d": 241.21238476562576,
      "v": 70
    },
    {
      "midi": 81,
      "hit": false,
      "t": 21380.499375976553,
      "d": 117.67648730468864,
      "v": 80
    },
    {
      "midi": 38,
      "hit": false,
      "t": 21380.49937597656,
      "d": 117.67648730468864,
      "v": 63
    },
    {
      "midi": 79,
      "hit": false,
      "t": 21505.988410156242,
      "d": 231.44670117187343,
      "v": 81
    },
    {
      "midi": 43,
      "hit": false,
      "t": 21505.98841015625,
      "d": 231.44670117187343,
      "v": 57
    },
    {
      "midi": 55,
      "hit": false,
      "t": 21505.98841015625,
      "d": 246.09522656249828,
      "v": 71
    },
    {
      "midi": 77,
      "hit": false,
      "t": 21752.571920898426,
      "d": 232.4232695312494,
      "v": 80
    },
    {
      "midi": 41,
      "hit": false,
      "t": 21752.571920898434,
      "d": 232.4232695312494,
      "v": 56
    },
    {
      "midi": 53,
      "hit": false,
      "t": 21752.571920898434,
      "d": 247.07179492187424,
      "v": 70
    },
    {
      "midi": 72,
      "hit": false,
      "t": 22002.08513671874,
      "d": 512.2101044921874,
      "v": 85
    },
    {
      "midi": 38,
      "hit": false,
      "t": 22002.085136718746,
      "d": 512.2101044921874,
      "v": 60
    },
    {
      "midi": 50,
      "hit": false,
      "t": 22002.085136718746,
      "d": 512.2101044921874,
      "v": 75
    },
    {
      "midi": 79,
      "hit": false,
      "t": 22514.783525390612,
      "d": 367.18970312500096,
      "v": 81
    },
    {
      "midi": 67,
      "hit": false,
      "t": 22514.783525390612,
      "d": 495.12015820312445,
      "v": 65
    },
    {
      "midi": 77,
      "hit": false,
      "t": 22882.4615126953,
      "d": 263.1851728515576,
      "v": 68
    },
    {
      "midi": 69,
      "hit": false,
      "t": 23010.391967773423,
      "d": 127.93045507812349,
      "v": 67
    },
    {
      "midi": 74,
      "hit": false,
      "t": 23138.810707031233,
      "d": 226.5638593750009,
      "v": 80
    },
    {
      "midi": 69,
      "hit": false,
      "t": 23138.810707031233,
      "d": 241.21238476562576,
      "v": 64
    },
    {
      "midi": 41,
      "hit": false,
      "t": 23138.810707031247,
      "d": 226.5638593750009,
      "v": 56
    },
    {
      "midi": 53,
      "hit": false,
      "t": 23138.810707031247,
      "d": 241.21238476562576,
      "v": 70
    },
    {
      "midi": 76,
      "hit": false,
      "t": 23380.511375976545,
      "d": 117.67648730468864,
      "v": 80
    },
    {
      "midi": 69,
      "hit": false,
      "t": 23380.511375976545,
      "d": 125.00075000000288,
      "v": 64
    },
    {
      "midi": 38,
      "hit": false,
      "t": 23380.51137597656,
      "d": 117.67648730468864,
      "v": 63
    },
    {
      "midi": 77,
      "hit": false,
      "t": 23506.000410156234,
      "d": 493.6553056640623,
      "v": 81
    },
    {
      "midi": 69,
      "hit": false,
      "t": 23506.000410156234,
      "d": 493.6553056640623,
      "v": 65
    },
    {
      "midi": 43,
      "hit": false,
      "t": 23506.000410156248,
      "d": 117.67648730468864,
      "v": 65
    },
    {
      "midi": 45,
      "hit": false,
      "t": 23631.489444335937,
      "d": 113.28192968749863,
      "v": 64
    },
    {
      "midi": 36,
      "hit": false,
      "t": 23752.583920898436,
      "d": 247.07179492187424,
      "v": 54
    },
    {
      "midi": 48,
      "hit": false,
      "t": 23752.583920898436,
      "d": 247.07179492187424,
      "v": 66
    },
    {
      "midi": 76,
      "hit": false,
      "t": 24002.097136718734,
      "d": 512.2101044921874,
      "v": 85
    },
    {
      "midi": 67,
      "hit": false,
      "t": 24002.097136718734,
      "d": 1503.4269892578122,
      "v": 64
    },
    {
      "midi": 36,
      "hit": false,
      "t": 24002.09713671875,
      "d": 512.2101044921874,
      "v": 59
    },
    {
      "midi": 48,
      "hit": false,
      "t": 24002.09713671875,
      "d": 512.2101044921874,
      "v": 75
    },
    {
      "midi": 72,
      "hit": false,
      "t": 24514.795525390608,
      "d": 495.12015820312445,
      "v": 81
    },
    {
      "midi": 79,
      "hit": false,
      "t": 25138.82270703123,
      "d": 226.5638593750009,
      "v": 80
    },
    {
      "midi": 40,
      "hit": false,
      "t": 25138.82270703125,
      "d": 226.5638593750009,
      "v": 55
    },
    {
      "midi": 52,
      "hit": false,
      "t": 25138.82270703125,
      "d": 241.21238476562576,
      "v": 70
    },
    {
      "midi": 81,
      "hit": false,
      "t": 25380.523375976543,
      "d": 117.67648730468864,
      "v": 80
    },
    {
      "midi": 36,
      "hit": false,
      "t": 25380.52337597656,
      "d": 117.67648730468864,
      "v": 62
    },
    {
      "midi": 79,
      "hit": false,
      "t": 25506.012410156232,
      "d": 117.67648730468864,
      "v": 81
    },
    {
      "midi": 65,
      "hit": false,
      "t": 25506.012410156232,
      "d": 1254.8903417968722,
      "v": 65
    },
    {
      "midi": 41,
      "hit": false,
      "t": 25506.01241015625,
      "d": 231.44670117187343,
      "v": 57
    },
    {
      "midi": 53,
      "hit": false,
      "t": 25506.01241015625,
      "d": 246.09522656249828,
      "v": 71
    },
    {
      "midi": 77,
      "hit": false,
      "t": 25631.50144433592,
      "d": 113.28192968749863,
      "v": 80
    },
    {
      "midi": 76,
      "hit": false,
      "t": 25752.59592089842,
      "d": 232.4232695312494,
      "v": 80
    },
    {
      "midi": 40,
      "hit": false,
      "t": 25752.595920898435,
      "d": 232.4232695312494,
      "v": 55
    },
    {
      "midi": 52,
      "hit": false,
      "t": 25752.595920898435,
      "d": 247.07179492187424,
      "v": 70
    },
    {
      "midi": 70,
      "hit": false,
      "t": 26002.109136718733,
      "d": 512.2101044921874,
      "v": 85
    },
    {
      "midi": 36,
      "hit": false,
      "t": 26002.109136718747,
      "d": 512.2101044921874,
      "v": 59
    },
    {
      "midi": 48,
      "hit": false,
      "t": 26002.109136718747,
      "d": 512.2101044921874,
      "v": 75
    },
    {
      "midi": 72,
      "hit": false,
      "t": 26514.807525390606,
      "d": 495.1201582031208,
      "v": 81
    },
    {
      "midi": 67,
      "hit": false,
      "t": 26761.39103613279,
      "d": 2744.157089843746,
      "v": 64
    },
    {
      "midi": 79,
      "hit": false,
      "t": 27138.834707031227,
      "d": 226.5638593750009,
      "v": 80
    },
    {
      "midi": 40,
      "hit": false,
      "t": 27138.83470703125,
      "d": 226.5638593750009,
      "v": 55
    },
    {
      "midi": 52,
      "hit": false,
      "t": 27138.83470703125,
      "d": 241.21238476562576,
      "v": 70
    },
    {
      "midi": 81,
      "hit": false,
      "t": 27380.53537597654,
      "d": 117.67648730468864,
      "v": 80
    },
    {
      "midi": 36,
      "hit": false,
      "t": 27380.53537597656,
      "d": 117.67648730468864,
      "v": 62
    },
    {
      "midi": 79,
      "hit": false,
      "t": 27506.024410156228,
      "d": 117.67648730468864,
      "v": 81
    },
    {
      "midi": 41,
      "hit": false,
      "t": 27506.02441015625,
      "d": 117.67648730468864,
      "v": 65
    },
    {
      "midi": 77,
      "hit": false,
      "t": 27631.513444335917,
      "d": 113.28192968749863,
      "v": 80
    },
    {
      "midi": 43,
      "hit": false,
      "t": 27631.51344433594,
      "d": 113.28192968749863,
      "v": 64
    },
    {
      "midi": 76,
      "hit": false,
      "t": 27752.607920898416,
      "d": 113.28192968749863,
      "v": 80
    },
    {
      "midi": 34,
      "hit": false,
      "t": 27752.607920898437,
      "d": 232.4232695312494,
      "v": 54
    },
    {
      "midi": 46,
      "hit": false,
      "t": 27752.607920898437,
      "d": 247.07179492187424,
      "v": 70
    },
    {
      "midi": 74,
      "hit": false,
      "t": 27873.702397460915,
      "d": 118.65305566406096,
      "v": 80
    },
    {
      "midi": 76,
      "hit": false,
      "t": 28002.121136718724,
      "d": 512.2101044921874,
      "v": 85
    },
    {
      "midi": 36,
      "hit": false,
      "t": 28002.12113671875,
      "d": 512.2101044921874,
      "v": 59
    },
    {
      "midi": 48,
      "hit": false,
      "t": 28002.12113671875,
      "d": 512.2101044921874,
      "v": 75
    },
    {
      "midi": 79,
      "hit": false,
      "t": 28514.819525390598,
      "d": 495.12015820312445,
      "v": 81
    },
    {
      "midi": 40,
      "hit": false,
      "t": 29138.84670703125,
      "d": 226.5638593750009,
      "v": 55
    },
    {
      "midi": 52,
      "hit": false,
      "t": 29138.84670703125,
      "d": 241.21238476562576,
      "v": 70
    },
    {
      "midi": 79,
      "hit": false,
      "t": 29259.452899414035,
      "d": 113.28192968749863,
      "v": 80
    },
    {
      "midi": 81,
      "hit": false,
      "t": 29380.547375976534,
      "d": 117.67648730468864,
      "v": 80
    },
    {
      "midi": 36,
      "hit": false,
      "t": 29380.547375976563,
      "d": 117.67648730468864,
      "v": 62
    },
    {
      "midi": 79,
      "hit": false,
      "t": 29506.036410156223,
      "d": 117.67648730468864,
      "v": 81
    },
    {
      "midi": 65,
      "hit": false,
      "t": 29506.036410156223,
      "d": 1254.8903417968722,
      "v": 65
    },
    {
      "midi": 41,
      "hit": false,
      "t": 29506.03641015625,
      "d": 231.44670117187343,
      "v": 57
    },
    {
      "midi": 53,
      "hit": false,
      "t": 29506.03641015625,
      "d": 246.09522656249828,
      "v": 71
    },
    {
      "midi": 77,
      "hit": false,
      "t": 29631.52544433591,
      "d": 113.28192968749863,
      "v": 80
    },
    {
      "midi": 76,
      "hit": false,
      "t": 29752.61992089841,
      "d": 113.28192968749863,
      "v": 80
    },
    {
      "midi": 40,
      "hit": false,
      "t": 29752.619920898436,
      "d": 232.4232695312494,
      "v": 55
    },
    {
      "midi": 52,
      "hit": false,
      "t": 29752.619920898436,
      "d": 247.07179492187424,
      "v": 70
    },
    {
      "midi": 74,
      "hit": false,
      "t": 29873.71439746091,
      "d": 118.65305566406096,
      "v": 80
    },
    {
      "midi": 70,
      "hit": false,
      "t": 30002.13313671872,
      "d": 879.8880917968745,
      "v": 85
    },
    {
      "midi": 36,
      "hit": false,
      "t": 30002.13313671875,
      "d": 512.2101044921874,
      "v": 59
    },
    {
      "midi": 48,
      "hit": false,
      "t": 30002.13313671875,
      "d": 512.2101044921874,
      "v": 75
    },
    {
      "midi": 67,
      "hit": false,
      "t": 30761.41503613278,
      "d": 1238.2886796875027,
      "v": 64
    },
    {
      "midi": 72,
      "hit": false,
      "t": 30882.50951269528,
      "d": 120.11790820312672,
      "v": 80
    },
    {
      "midi": 79,
      "hit": false,
      "t": 31138.85870703122,
      "d": 226.5638593750009,
      "v": 80
    },
    {
      "midi": 40,
      "hit": false,
      "t": 31138.85870703125,
      "d": 226.5638593750009,
      "v": 55
    },
    {
      "midi": 52,
      "hit": false,
      "t": 31138.85870703125,
      "d": 241.21238476562576,
      "v": 70
    },
    {
      "midi": 81,
      "hit": false,
      "t": 31380.559375976532,
      "d": 117.67648730468864,
      "v": 80
    },
    {
      "midi": 36,
      "hit": false,
      "t": 31380.55937597656,
      "d": 117.67648730468864,
      "v": 62
    },
    {
      "midi": 79,
      "hit": false,
      "t": 31506.04841015622,
      "d": 117.67648730468864,
      "v": 81
    },
    {
      "midi": 41,
      "hit": false,
      "t": 31506.04841015625,
      "d": 117.67648730468864,
      "v": 65
    },
    {
      "midi": 77,
      "hit": false,
      "t": 31631.53744433591,
      "d": 113.28192968749863,
      "v": 80
    },
    {
      "midi": 43,
      "hit": false,
      "t": 31631.53744433594,
      "d": 113.28192968749863,
      "v": 64
    },
    {
      "midi": 76,
      "hit": false,
      "t": 31752.63192089841,
      "d": 113.28192968749863,
      "v": 80
    },
    {
      "midi": 36,
      "hit": false,
      "t": 31752.63192089844,
      "d": 232.4232695312494,
      "v": 54
    },
    {
      "midi": 48,
      "hit": false,
      "t": 31752.63192089844,
      "d": 247.07179492187424,
      "v": 70
    },
    {
      "midi": 74,
      "hit": false,
      "t": 31873.72639746091,
      "d": 118.65305566406096,
      "v": 80
    },
    {
      "midi": 81,
      "hit": false,
      "t": 32002.145136718722,
      "d": 512.2101044921874,
      "v": 85
    },
    {
      "midi": 74,
      "hit": false,
      "t": 32002.145136718722,
      "d": 1997.5705791015753,
      "v": 64
    },
    {
      "midi": 38,
      "hit": false,
      "t": 32002.14513671875,
      "d": 512.2101044921874,
      "v": 60
    },
    {
      "midi": 50,
      "hit": false,
      "t": 32002.14513671875,
      "d": 512.2101044921874,
      "v": 75
    },
    {
      "midi": 84,
      "hit": false,
      "t": 32514.843525390595,
      "d": 367.18970312500096,
      "v": 81
    },
    {
      "midi": 81,
      "hit": false,
      "t": 32882.52151269528,
      "d": 263.1851728515685,
      "v": 68
    },
    {
      "midi": 79,
      "hit": false,
      "t": 33138.87070703122,
      "d": 226.56385937500454,
      "v": 80
    },
    {
      "midi": 41,
      "hit": false,
      "t": 33138.87070703125,
      "d": 226.56385937499726,
      "v": 56
    },
    {
      "midi": 53,
      "hit": false,
      "t": 33138.87070703125,
      "d": 241.21238476562576,
      "v": 70
    },
    {
      "midi": 81,
      "hit": false,
      "t": 33380.57137597654,
      "d": 117.676487304685,
      "v": 80
    },
    {
      "midi": 38,
      "hit": false,
      "t": 33380.571375976564,
      "d": 117.676487304685,
      "v": 63
    },
    {
      "midi": 79,
      "hit": false,
      "t": 33506.06041015623,
      "d": 231.44670117187343,
      "v": 81
    },
    {
      "midi": 43,
      "hit": false,
      "t": 33506.06041015625,
      "d": 231.44670117187343,
      "v": 57
    },
    {
      "midi": 55,
      "hit": false,
      "t": 33506.06041015625,
      "d": 246.09522656250192,
      "v": 71
    },
    {
      "midi": 77,
      "hit": false,
      "t": 33752.643920898416,
      "d": 232.42326953125303,
      "v": 80
    },
    {
      "midi": 41,
      "hit": false,
      "t": 33752.64392089844,
      "d": 232.42326953125303,
      "v": 56
    },
    {
      "midi": 53,
      "hit": false,
      "t": 33752.64392089844,
      "d": 247.07179492188152,
      "v": 70
    },
    {
      "midi": 72,
      "hit": false,
      "t": 34002.157136718735,
      "d": 512.2101044921874,
      "v": 85
    },
    {
      "midi": 62,
      "hit": false,
      "t": 34002.157136718735,
      "d": 1503.4269892578159,
      "v": 64
    },
    {
      "midi": 38,
      "hit": false,
      "t": 34002.15713671876,
      "d": 512.2101044921874,
      "v": 60
    },
    {
      "midi": 50,
      "hit": false,
      "t": 34002.15713671876,
      "d": 512.2101044921874,
      "v": 75
    },
    {
      "midi": 79,
      "hit": false,
      "t": 34514.85552539061,
      "d": 367.1897031249973,
      "v": 81
    },
    {
      "midi": 77,
      "hit": false,
      "t": 34882.53351269529,
      "d": 263.1851728515685,
      "v": 68
    },
    {
      "midi": 74,
      "hit": false,
      "t": 35138.88270703123,
      "d": 226.56385937500454,
      "v": 80
    },
    {
      "midi": 41,
      "hit": false,
      "t": 35138.882707031255,
      "d": 226.56385937499726,
      "v": 56
    },
    {
      "midi": 53,
      "hit": false,
      "t": 35138.882707031255,
      "d": 241.21238476562576,
      "v": 70
    },
    {
      "midi": 76,
      "hit": false,
      "t": 35380.58337597655,
      "d": 117.676487304685,
      "v": 80
    },
    {
      "midi": 38,
      "hit": false,
      "t": 35380.58337597657,
      "d": 117.676487304685,
      "v": 63
    },
    {
      "midi": 74,
      "hit": false,
      "t": 35506.07241015624,
      "d": 117.676487304685,
      "v": 65
    },
    {
      "midi": 77,
      "hit": false,
      "t": 35506.07241015624,
      "d": 493.6553056640696,
      "v": 81
    },
    {
      "midi": 43,
      "hit": false,
      "t": 35506.07241015625,
      "d": 117.676487304685,
      "v": 65
    },
    {
      "midi": 69,
      "hit": false,
      "t": 35631.56144433592,
      "d": 113.28192968750227,
      "v": 64
    },
    {
      "midi": 45,
      "hit": false,
      "t": 35631.56144433594,
      "d": 113.28192968750227,
      "v": 64
    },
    {
      "midi": 72,
      "hit": false,
      "t": 35752.655920898425,
      "d": 113.28192968750227,
      "v": 64
    },
    {
      "midi": 36,
      "hit": false,
      "t": 35752.65592089844,
      "d": 232.42326953125303,
      "v": 54
    },
    {
      "midi": 48,
      "hit": false,
      "t": 35752.65592089844,
      "d": 247.07179492188152,
      "v": 70
    },
    {
      "midi": 76,
      "hit": false,
      "t": 35873.75039746093,
      "d": 118.6530556640646,
      "v": 64
    },
    {
      "midi": 81,
      "hit": false,
      "t": 36002.169136718745,
      "d": 512.2101044921874,
      "v": 85
    },
    {
      "midi": 74,
      "hit": false,
      "t": 36002.169136718745,
      "d": 1997.5705791015716,
      "v": 64
    },
    {
      "midi": 38,
      "hit": false,
      "t": 36002.16913671876,
      "d": 512.2101044921874,
      "v": 60
    },
    {
      "midi": 50,
      "hit": false,
      "t": 36002.16913671876,
      "d": 512.2101044921874,
      "v": 75
    },
    {
      "midi": 84,
      "hit": false,
      "t": 36514.86752539062,
      "d": 367.1897031249973,
      "v": 81
    },
    {
      "midi": 81,
      "hit": false,
      "t": 36882.5455126953,
      "d": 263.1851728515685,
      "v": 68
    },
    {
      "midi": 79,
      "hit": false,
      "t": 37138.89470703124,
      "d": 226.56385937500454,
      "v": 80
    },
    {
      "midi": 41,
      "hit": false,
      "t": 37138.89470703126,
      "d": 226.56385937499726,
      "v": 56
    },
    {
      "midi": 53,
      "hit": false,
      "t": 37138.89470703126,
      "d": 241.21238476562576,
      "v": 70
    },
    {
      "midi": 81,
      "hit": false,
      "t": 37380.59537597656,
      "d": 117.676487304685,
      "v": 80
    },
    {
      "midi": 38,
      "hit": false,
      "t": 37380.59537597657,
      "d": 117.676487304685,
      "v": 63
    },
    {
      "midi": 79,
      "hit": false,
      "t": 37506.08441015625,
      "d": 231.44670117187343,
      "v": 81
    },
    {
      "midi": 43,
      "hit": false,
      "t": 37506.084410156254,
      "d": 231.44670117187343,
      "v": 57
    },
    {
      "midi": 55,
      "hit": false,
      "t": 37506.084410156254,
      "d": 246.09522656250192,
      "v": 71
    },
    {
      "midi": 77,
      "hit": false,
      "t": 37752.667920898435,
      "d": 232.42326953125303,
      "v": 80
    },
    {
      "midi": 41,
      "hit": false,
      "t": 37752.66792089844,
      "d": 232.42326953125303,
      "v": 56
    },
    {
      "midi": 53,
      "hit": false,
      "t": 37752.66792089844,
      "d": 247.07179492188152,
      "v": 70
    },
    {
      "midi": 72,
      "hit": false,
      "t": 38002.181136718755,
      "d": 512.2101044921874,
      "v": 85
    },
    {
      "midi": 62,
      "hit": false,
      "t": 38002.181136718755,
      "d": 1503.4269892578159,
      "v": 64
    },
    {
      "midi": 38,
      "hit": false,
      "t": 38002.18113671876,
      "d": 512.2101044921874,
      "v": 60
    },
    {
      "midi": 50,
      "hit": false,
      "t": 38002.18113671876,
      "d": 512.2101044921874,
      "v": 75
    },
    {
      "midi": 79,
      "hit": false,
      "t": 38514.87952539063,
      "d": 367.1897031249973,
      "v": 81
    },
    {
      "midi": 77,
      "hit": false,
      "t": 38882.55751269531,
      "d": 263.1851728515685,
      "v": 68
    },
    {
      "midi": 74,
      "hit": false,
      "t": 39138.90670703125,
      "d": 226.56385937500454,
      "v": 80
    },
    {
      "midi": 41,
      "hit": false,
      "t": 39138.90670703126,
      "d": 226.56385937499726,
      "v": 56
    },
    {
      "midi": 53,
      "hit": false,
      "t": 39138.90670703126,
      "d": 241.21238476562576,
      "v": 70
    },
    {
      "midi": 76,
      "hit": false,
      "t": 39380.60737597657,
      "d": 117.676487304685,
      "v": 80
    },
    {
      "midi": 38,
      "hit": false,
      "t": 39380.60737597657,
      "d": 117.676487304685,
      "v": 63
    },
    {
      "midi": 74,
      "hit": false,
      "t": 39506.09641015626,
      "d": 117.676487304685,
      "v": 65
    },
    {
      "midi": 77,
      "hit": false,
      "t": 39506.09641015626,
      "d": 493.6553056640696,
      "v": 81
    },
    {
      "midi": 43,
      "hit": false,
      "t": 39506.09641015626,
      "d": 117.676487304685,
      "v": 65
    },
    {
      "midi": 69,
      "hit": false,
      "t": 39631.58544433594,
      "d": 113.28192968750227,
      "v": 64
    },
    {
      "midi": 45,
      "hit": false,
      "t": 39631.58544433594,
      "d": 113.28192968750227,
      "v": 64
    },
    {
      "midi": 72,
      "hit": false,
      "t": 39752.679920898445,
      "d": 113.28192968750227,
      "v": 64
    },
    {
      "midi": 36,
      "hit": false,
      "t": 39752.679920898445,
      "d": 232.42326953125303,
      "v": 54
    },
    {
      "midi": 48,
      "hit": false,
      "t": 39752.679920898445,
      "d": 247.07179492188152,
      "v": 70
    },
    {
      "midi": 76,
      "hit": false,
      "t": 39873.77439746095,
      "d": 118.6530556640646,
      "v": 64
    },
    {
      "midi": 77,
      "hit": false,
      "t": 40002.193136718764,
      "d": 512.2101044921874,
      "v": 85
    },
    {
      "midi": 65,
      "hit": false,
      "t": 40002.193136718764,
      "d": 1997.570579101557,
      "v": 64
    },
    {
      "midi": 34,
      "hit": false,
      "t": 40002.193136718764,
      "d": 512.2101044921874,
      "v": 59
    },
    {
      "midi": 46,
      "hit": false,
      "t": 40002.193136718764,
      "d": 512.2101044921874,
      "v": 75
    },
    {
      "midi": 76,
      "hit": false,
      "t": 40514.89152539064,
      "d": 367.1897031249973,
      "v": 81
    },
    {
      "midi": 74,
      "hit": false,
      "t": 40882.56951269532,
      "d": 120.11790820312308,
      "v": 80
    },
    {
      "midi": 38,
      "hit": false,
      "t": 41138.91870703126,
      "d": 226.56385937499726,
      "v": 55
    },
    {
      "midi": 50,
      "hit": false,
      "t": 41138.91870703126,
      "d": 241.21238476562576,
      "v": 70
    },
    {
      "midi": 74,
      "hit": false,
      "t": 41259.52489941407,
      "d": 231.44670117187343,
      "v": 80
    },
    {
      "midi": 34,
      "hit": false,
      "t": 41380.619375976574,
      "d": 117.676487304685,
      "v": 62
    },
    {
      "midi": 76,
      "hit": false,
      "t": 41506.10841015626,
      "d": 117.676487304685,
      "v": 81
    },
    {
      "midi": 40,
      "hit": false,
      "t": 41506.10841015626,
      "d": 231.44670117187343,
      "v": 56
    },
    {
      "midi": 52,
      "hit": false,
      "t": 41506.10841015626,
      "d": 246.09522656250192,
      "v": 71
    },
    {
      "midi": 77,
      "hit": false,
      "t": 41631.597444335945,
      "d": 368.1662714843769,
      "v": 80
    },
    {
      "midi": 38,
      "hit": false,
      "t": 41752.69192089845,
      "d": 232.42326953125303,
      "v": 55
    },
    {
      "midi": 50,
      "hit": false,
      "t": 41752.69192089845,
      "d": 247.07179492188152,
      "v": 70
    },
    {
      "midi": 79,
      "hit": false,
      "t": 42002.20513671876,
      "d": 758.7936152343755,
      "v": 85
    },
    {
      "midi": 67,
      "hit": false,
      "t": 42002.20513671876,
      "d": 1997.5705791015716,
      "v": 64
    },
    {
      "midi": 33,
      "hit": false,
      "t": 42002.20513671877,
      "d": 512.2101044921874,
      "v": 58
    },
    {
      "midi": 45,
      "hit": false,
      "t": 42002.20513671877,
      "d": 512.2101044921874,
      "v": 75
    },
    {
      "midi": 77,
      "hit": false,
      "t": 42761.48703613282,
      "d": 113.28192968750227,
      "v": 80
    },
    {
      "midi": 76,
      "hit": false,
      "t": 42882.581512695324,
      "d": 120.11790820312308,
      "v": 80
    },
    {
      "midi": 72,
      "hit": false,
      "t": 43010.51196777345,
      "d": 248.53664746094,
      "v": 83
    },
    {
      "midi": 36,
      "hit": false,
      "t": 43138.930707031264,
      "d": 226.56385937499726,
      "v": 54
    },
    {
      "midi": 48,
      "hit": false,
      "t": 43138.930707031264,
      "d": 241.21238476562576,
      "v": 70
    },
    {
      "midi": 72,
      "hit": false,
      "t": 43259.53689941407,
      "d": 231.44670117187343,
      "v": 80
    },
    {
      "midi": 33,
      "hit": false,
      "t": 43380.631375976576,
      "d": 117.676487304685,
      "v": 61
    },
    {
      "midi": 74,
      "hit": false,
      "t": 43506.12041015626,
      "d": 231.44670117187343,
      "v": 81
    },
    {
      "midi": 38,
      "hit": false,
      "t": 43506.12041015626,
      "d": 117.676487304685,
      "v": 64
    },
    {
      "midi": 40,
      "hit": false,
      "t": 43631.60944433595,
      "d": 113.28192968750227,
      "v": 63
    },
    {
      "midi": 72,
      "hit": false,
      "t": 43752.70392089845,
      "d": 232.42326953125303,
      "v": 80
    },
    {
      "midi": 33,
      "hit": false,
      "t": 43752.70392089845,
      "d": 232.42326953125303,
      "v": 53
    },
    {
      "midi": 45,
      "hit": false,
      "t": 43752.70392089845,
      "d": 247.07179492188152,
      "v": 70
    },
    {
      "midi": 70,
      "hit": false,
      "t": 44002.21713671877,
      "d": 512.2101044921874,
      "v": 85
    },
    {
      "midi": 65,
      "hit": false,
      "t": 44002.21713671877,
      "d": 1997.5705791015644,
      "v": 64
    },
    {
      "midi": 34,
      "hit": false,
      "t": 44002.21713671877,
      "d": 512.2101044921874,
      "v": 59
    },
    {
      "midi": 46,
      "hit": false,
      "t": 44002.21713671877,
      "d": 512.2101044921874,
      "v": 75
    },
    {
      "midi": 74,
      "hit": false,
      "t": 44514.91552539064,
      "d": 367.1897031249973,
      "v": 81
    },
    {
      "midi": 77,
      "hit": false,
      "t": 44882.593512695326,
      "d": 120.11790820312308,
      "v": 80
    },
    {
      "midi": 38,
      "hit": false,
      "t": 45138.94270703127,
      "d": 226.56385937499726,
      "v": 55
    },
    {
      "midi": 50,
      "hit": false,
      "t": 45138.94270703127,
      "d": 241.21238476562576,
      "v": 70
    },
    {
      "midi": 81,
      "hit": false,
      "t": 45259.548899414076,
      "d": 492.67873730469,
      "v": 80
    },
    {
      "midi": 34,
      "hit": false,
      "t": 45380.64337597658,
      "d": 117.676487304685,
      "v": 62
    },
    {
      "midi": 40,
      "hit": false,
      "t": 45506.132410156264,
      "d": 231.44670117187343,
      "v": 56
    },
    {
      "midi": 52,
      "hit": false,
      "t": 45506.132410156264,
      "d": 246.09522656250192,
      "v": 71
    },
    {
      "midi": 79,
      "hit": false,
      "t": 45752.71592089845,
      "d": 113.28192968750227,
      "v": 80
    },
    {
      "midi": 38,
      "hit": false,
      "t": 45752.71592089845,
      "d": 232.42326953125303,
      "v": 55
    },
    {
      "midi": 50,
      "hit": false,
      "t": 45752.71592089845,
      "d": 247.07179492188152,
      "v": 70
    },
    {
      "midi": 77,
      "hit": false,
      "t": 45873.810397460955,
      "d": 118.6530556640646,
      "v": 80
    },
    {
      "midi": 76,
      "hit": false,
      "t": 46002.22913671877,
      "d": 758.7936152343755,
      "v": 85
    },
    {
      "midi": 67,
      "hit": false,
      "t": 46002.22913671877,
      "d": 1997.5705791015644,
      "v": 64
    },
    {
      "midi": 36,
      "hit": false,
      "t": 46002.22913671877,
      "d": 512.2101044921874,
      "v": 59
    },
    {
      "midi": 48,
      "hit": false,
      "t": 46002.22913671877,
      "d": 512.2101044921874,
      "v": 75
    },
    {
      "midi": 76,
      "hit": false,
      "t": 46761.51103613283,
      "d": 113.28192968750227,
      "v": 80
    },
    {
      "midi": 77,
      "hit": false,
      "t": 46882.605512695336,
      "d": 120.11790820312308,
      "v": 80
    },
    {
      "midi": 79,
      "hit": false,
      "t": 47138.95470703127,
      "d": 226.56385937499726,
      "v": 80
    },
    {
      "midi": 40,
      "hit": false,
      "t": 47138.95470703127,
      "d": 226.56385937499726,
      "v": 55
    },
    {
      "midi": 52,
      "hit": false,
      "t": 47138.95470703127,
      "d": 241.21238476562576,
      "v": 70
    },
    {
      "midi": 81,
      "hit": false,
      "t": 47380.65537597658,
      "d": 117.676487304685,
      "v": 80
    },
    {
      "midi": 36,
      "hit": false,
      "t": 47380.65537597658,
      "d": 117.676487304685,
      "v": 62
    },
    {
      "midi": 41,
      "hit": false,
      "t": 47506.14441015627,
      "d": 117.676487304685,
      "v": 65
    },
    {
      "midi": 81,
      "hit": false,
      "t": 47631.63344433595,
      "d": 113.28192968750227,
      "v": 80
    },
    {
      "midi": 43,
      "hit": false,
      "t": 47631.63344433595,
      "d": 113.28192968750227,
      "v": 64
    },
    {
      "midi": 84,
      "hit": false,
      "t": 47752.727920898455,
      "d": 113.28192968750227,
      "v": 80
    },
    {
      "midi": 36,
      "hit": false,
      "t": 47752.727920898455,
      "d": 232.42326953125303,
      "v": 54
    },
    {
      "midi": 48,
      "hit": false,
      "t": 47752.727920898455,
      "d": 247.07179492188152,
      "v": 70
    },
    {
      "midi": 88,
      "hit": false,
      "t": 47873.82239746096,
      "d": 118.6530556640646,
      "v": 80
    },
    {
      "midi": 86,
      "hit": false,
      "t": 48002.241136718774,
      "d": 135.25471777343773,
      "v": 85
    },
    {
      "midi": 38,
      "hit": false,
      "t": 48002.241136718774,
      "d": 512.2101044921874,
      "v": 60
    },
    {
      "midi": 50,
      "hit": false,
      "t": 48002.241136718774,
      "d": 512.2101044921874,
      "v": 75
    },
    {
      "midi": 81,
      "hit": false,
      "t": 48145.30840136721,
      "d": 113.77021386718843,
      "v": 80
    },
    {
      "midi": 77,
      "hit": false,
      "t": 48266.8911621094,
      "d": 232.9115537109392,
      "v": 72
    },
    {
      "midi": 89,
      "hit": false,
      "t": 48266.8911621094,
      "d": 247.56007910156768,
      "v": 86
    },
    {
      "midi": 76,
      "hit": false,
      "t": 48514.939525390655,
      "d": 231.44670117187343,
      "v": 73
    },
    {
      "midi": 88,
      "hit": false,
      "t": 48514.939525390655,
      "d": 246.09522656250192,
      "v": 87
    },
    {
      "midi": 84,
      "hit": false,
      "t": 48761.52303613284,
      "d": 113.28192968750227,
      "v": 80
    },
    {
      "midi": 86,
      "hit": false,
      "t": 48882.617512695346,
      "d": 120.11790820312308,
      "v": 80
    },
    {
      "midi": 41,
      "hit": false,
      "t": 49138.96670703127,
      "d": 226.56385937499726,
      "v": 56
    },
    {
      "midi": 53,
      "hit": false,
      "t": 49138.96670703127,
      "d": 241.21238476562576,
      "v": 70
    },
    {
      "midi": 69,
      "hit": false,
      "t": 49138.96670703128,
      "d": 226.56385937499726,
      "v": 72
    },
    {
      "midi": 81,
      "hit": false,
      "t": 49138.96670703128,
      "d": 241.21238476562576,
      "v": 86
    },
    {
      "midi": 38,
      "hit": false,
      "t": 49380.66737597658,
      "d": 117.676487304685,
      "v": 63
    },
    {
      "midi": 86,
      "hit": false,
      "t": 49380.66737597659,
      "d": 117.676487304685,
      "v": 80
    },
    {
      "midi": 43,
      "hit": false,
      "t": 49506.15641015627,
      "d": 231.44670117187343,
      "v": 57
    },
    {
      "midi": 55,
      "hit": false,
      "t": 49506.15641015627,
      "d": 246.09522656250192,
      "v": 71
    },
    {
      "midi": 89,
      "hit": false,
      "t": 49631.64544433596,
      "d": 113.28192968750227,
      "v": 80
    },
    {
      "midi": 41,
      "hit": false,
      "t": 49752.73992089846,
      "d": 232.42326953125303,
      "v": 56
    },
    {
      "midi": 53,
      "hit": false,
      "t": 49752.73992089846,
      "d": 247.07179492188152,
      "v": 70
    },
    {
      "midi": 88,
      "hit": false,
      "t": 49752.739920898464,
      "d": 113.28192968750227,
      "v": 80
    },
    {
      "midi": 86,
      "hit": false,
      "t": 49873.83439746097,
      "d": 118.6530556640646,
      "v": 80
    },
    {
      "midi": 36,
      "hit": false,
      "t": 50002.25313671878,
      "d": 512.2101044921874,
      "v": 59
    },
    {
      "midi": 48,
      "hit": false,
      "t": 50002.25313671878,
      "d": 512.2101044921874,
      "v": 75
    },
    {
      "midi": 76,
      "hit": false,
      "t": 50002.253136718784,
      "d": 512.2101044921874,
      "v": 77
    },
    {
      "midi": 88,
      "hit": false,
      "t": 50002.253136718784,
      "d": 512.2101044921874,
      "v": 91
    },
    {
      "midi": 77,
      "hit": false,
      "t": 50514.95152539066,
      "d": 367.1897031249973,
      "v": 73
    },
    {
      "midi": 89,
      "hit": false,
      "t": 50514.95152539066,
      "d": 367.1897031249973,
      "v": 87
    },
    {
      "midi": 79,
      "hit": false,
      "t": 50882.62951269534,
      "d": 120.11790820312308,
      "v": 72
    },
    {
      "midi": 91,
      "hit": false,
      "t": 50882.62951269534,
      "d": 127.44217089843733,
      "v": 86
    },
    {
      "midi": 77,
      "hit": false,
      "t": 51010.559967773464,
      "d": 233.8881220703115,
      "v": 75
    },
    {
      "midi": 89,
      "hit": false,
      "t": 51010.559967773464,
      "d": 248.53664746094,
      "v": 89
    },
    {
      "midi": 40,
      "hit": false,
      "t": 51138.978707031274,
      "d": 226.56385937499726,
      "v": 55
    },
    {
      "midi": 52,
      "hit": false,
      "t": 51138.978707031274,
      "d": 241.21238476562576,
      "v": 70
    },
    {
      "midi": 76,
      "hit": false,
      "t": 51259.58489941409,
      "d": 231.44670117187343,
      "v": 72
    },
    {
      "midi": 88,
      "hit": false,
      "t": 51259.58489941409,
      "d": 246.09522656250192,
      "v": 86
    },
    {
      "midi": 36,
      "hit": false,
      "t": 51380.679375976586,
      "d": 117.676487304685,
      "v": 62
    },
    {
      "midi": 41,
      "hit": false,
      "t": 51506.16841015627,
      "d": 117.676487304685,
      "v": 65
    },
    {
      "midi": 43,
      "hit": false,
      "t": 51631.65744433596,
      "d": 113.28192968750227,
      "v": 64
    },
    {
      "midi": 36,
      "hit": false,
      "t": 51752.75192089846,
      "d": 232.42326953125303,
      "v": 54
    },
    {
      "midi": 48,
      "hit": false,
      "t": 51752.75192089846,
      "d": 247.07179492188152,
      "v": 70
    },
    {
      "midi": 69,
      "hit": false,
      "t": 51752.75192089847,
      "d": 232.42326953125303,
      "v": 72
    },
    {
      "midi": 81,
      "hit": false,
      "t": 51752.75192089847,
      "d": 247.07179492188152,
      "v": 86
    },
    {
      "midi": 38,
      "hit": false,
      "t": 52002.26513671878,
      "d": 512.2101044921874,
      "v": 60
    },
    {
      "midi": 50,
      "hit": false,
      "t": 52002.26513671878,
      "d": 512.2101044921874,
      "v": 75
    },
    {
      "midi": 86,
      "hit": false,
      "t": 52002.26513671879,
      "d": 135.25471777343773,
      "v": 85
    },
    {
      "midi": 81,
      "hit": false,
      "t": 52145.332401367225,
      "d": 113.77021386718843,
      "v": 80
    },
    {
      "midi": 77,
      "hit": false,
      "t": 52266.91516210941,
      "d": 232.9115537109392,
      "v": 72
    },
    {
      "midi": 89,
      "hit": false,
      "t": 52266.91516210941,
      "d": 247.56007910156768,
      "v": 86
    },
    {
      "midi": 76,
      "hit": false,
      "t": 52514.96352539067,
      "d": 231.44670117187343,
      "v": 73
    },
    {
      "midi": 88,
      "hit": false,
      "t": 52514.96352539067,
      "d": 246.09522656250192,
      "v": 87
    },
    {
      "midi": 84,
      "hit": false,
      "t": 52761.547036132855,
      "d": 113.28192968750227,
      "v": 80
    },
    {
      "midi": 86,
      "hit": false,
      "t": 52882.64151269536,
      "d": 120.11790820312308,
      "v": 80
    },
    {
      "midi": 41,
      "hit": false,
      "t": 53138.99070703128,
      "d": 226.56385937499726,
      "v": 56
    },
    {
      "midi": 53,
      "hit": false,
      "t": 53138.99070703128,
      "d": 241.21238476562576,
      "v": 70
    },
    {
      "midi": 69,
      "hit": false,
      "t": 53138.99070703129,
      "d": 226.56385937499726,
      "v": 72
    },
    {
      "midi": 81,
      "hit": false,
      "t": 53138.99070703129,
      "d": 241.21238476562576,
      "v": 86
    },
    {
      "midi": 38,
      "hit": false,
      "t": 53380.69137597659,
      "d": 117.676487304685,
      "v": 63
    },
    {
      "midi": 86,
      "hit": false,
      "t": 53380.6913759766,
      "d": 117.676487304685,
      "v": 80
    },
    {
      "midi": 43,
      "hit": false,
      "t": 53506.180410156274,
      "d": 231.44670117187343,
      "v": 57
    },
    {
      "midi": 55,
      "hit": false,
      "t": 53506.180410156274,
      "d": 246.09522656250192,
      "v": 71
    },
    {
      "midi": 89,
      "hit": false,
      "t": 53631.669444335974,
      "d": 113.28192968750227,
      "v": 80
    },
    {
      "midi": 41,
      "hit": false,
      "t": 53752.76392089846,
      "d": 232.42326953125303,
      "v": 56
    },
    {
      "midi": 53,
      "hit": false,
      "t": 53752.76392089846,
      "d": 247.07179492188152,
      "v": 70
    },
    {
      "midi": 88,
      "hit": false,
      "t": 53752.76392089848,
      "d": 113.28192968750227,
      "v": 80
    },
    {
      "midi": 86,
      "hit": false,
      "t": 53873.85839746098,
      "d": 118.6530556640646,
      "v": 80
    },
    {
      "midi": 36,
      "hit": false,
      "t": 54002.27713671878,
      "d": 512.2101044921874,
      "v": 59
    },
    {
      "midi": 48,
      "hit": false,
      "t": 54002.27713671878,
      "d": 512.2101044921874,
      "v": 75
    },
    {
      "midi": 76,
      "hit": false,
      "t": 54002.277136718796,
      "d": 512.2101044921874,
      "v": 77
    },
    {
      "midi": 88,
      "hit": false,
      "t": 54002.277136718796,
      "d": 512.2101044921874,
      "v": 91
    },
    {
      "midi": 77,
      "hit": false,
      "t": 54514.97552539067,
      "d": 367.1897031249973,
      "v": 73
    },
    {
      "midi": 89,
      "hit": false,
      "t": 54514.97552539067,
      "d": 367.1897031249973,
      "v": 87
    },
    {
      "midi": 79,
      "hit": false,
      "t": 54882.65351269535,
      "d": 120.11790820312308,
      "v": 72
    },
    {
      "midi": 91,
      "hit": false,
      "t": 54882.65351269535,
      "d": 127.44217089843733,
      "v": 86
    },
    {
      "midi": 77,
      "hit": false,
      "t": 55010.58396777348,
      "d": 233.8881220703115,
      "v": 75
    },
    {
      "midi": 89,
      "hit": false,
      "t": 55010.58396777348,
      "d": 248.53664746094,
      "v": 89
    },
    {
      "midi": 40,
      "hit": false,
      "t": 55139.00270703128,
      "d": 226.56385937499726,
      "v": 55
    },
    {
      "midi": 52,
      "hit": false,
      "t": 55139.00270703128,
      "d": 241.21238476562576,
      "v": 70
    },
    {
      "midi": 76,
      "hit": false,
      "t": 55259.6088994141,
      "d": 231.44670117187343,
      "v": 72
    },
    {
      "midi": 88,
      "hit": false,
      "t": 55259.6088994141,
      "d": 246.09522656250192,
      "v": 86
    },
    {
      "midi": 36,
      "hit": false,
      "t": 55380.70337597659,
      "d": 117.676487304685,
      "v": 62
    },
    {
      "midi": 41,
      "hit": false,
      "t": 55506.192410156276,
      "d": 117.676487304685,
      "v": 65
    },
    {
      "midi": 43,
      "hit": false,
      "t": 55631.68144433596,
      "d": 113.28192968750227,
      "v": 64
    },
    {
      "midi": 79,
      "hit": false,
      "t": 55631.681444335976,
      "d": 113.28192968750227,
      "v": 80
    },
    {
      "midi": 36,
      "hit": false,
      "t": 55752.775920898464,
      "d": 232.42326953125303,
      "v": 54
    },
    {
      "midi": 48,
      "hit": false,
      "t": 55752.775920898464,
      "d": 247.07179492188152,
      "v": 70
    },
    {
      "midi": 81,
      "hit": false,
      "t": 55752.77592089848,
      "d": 113.28192968750227,
      "v": 80
    },
    {
      "midi": 88,
      "hit": false,
      "t": 55873.87039746098,
      "d": 118.6530556640646,
      "v": 80
    },
    {
      "midi": 34,
      "hit": false,
      "t": 56002.289136718784,
      "d": 512.2101044921874,
      "v": 59
    },
    {
      "midi": 46,
      "hit": false,
      "t": 56002.289136718784,
      "d": 512.2101044921874,
      "v": 75
    },
    {
      "midi": 74,
      "hit": false,
      "t": 56002.2891367188,
      "d": 3997.5825791015595,
      "v": 72
    },
    {
      "midi": 86,
      "hit": false,
      "t": 56002.2891367188,
      "d": 3997.5825791015595,
      "v": 82
    },
    {
      "midi": 38,
      "hit": false,
      "t": 57139.01470703128,
      "d": 226.56385937499726,
      "v": 55
    },
    {
      "midi": 50,
      "hit": false,
      "t": 57139.01470703128,
      "d": 241.21238476562576,
      "v": 70
    },
    {
      "midi": 34,
      "hit": false,
      "t": 57380.71537597659,
      "d": 117.676487304685,
      "v": 62
    },
    {
      "midi": 40,
      "hit": false,
      "t": 57506.20441015628,
      "d": 231.44670117187343,
      "v": 56
    },
    {
      "midi": 52,
      "hit": false,
      "t": 57506.20441015628,
      "d": 246.09522656250192,
      "v": 71
    },
    {
      "midi": 38,
      "hit": false,
      "t": 57752.78792089847,
      "d": 232.42326953125303,
      "v": 55
    },
    {
      "midi": 50,
      "hit": false,
      "t": 57752.78792089847,
      "d": 247.07179492188152,
      "v": 70
    },
    {
      "midi": 36,
      "hit": false,
      "t": 58002.30113671879,
      "d": 512.2101044921874,
      "v": 59
    },
    {
      "midi": 48,
      "hit": false,
      "t": 58002.30113671879,
      "d": 512.2101044921874,
      "v": 75
    },
    {
      "midi": 40,
      "hit": false,
      "t": 59139.026707031284,
      "d": 226.56385937499726,
      "v": 55
    },
    {
      "midi": 52,
      "hit": false,
      "t": 59139.026707031284,
      "d": 241.21238476562576,
      "v": 70
    },
    {
      "midi": 36,
      "hit": false,
      "t": 59380.727375976596,
      "d": 117.676487304685,
      "v": 62
    },
    {
      "midi": 41,
      "hit": false,
      "t": 59506.21641015628,
      "d": 117.676487304685,
      "v": 65
    },
    {
      "midi": 43,
      "hit": false,
      "t": 59631.70544433597,
      "d": 113.28192968750227,
      "v": 64
    },
    {
      "midi": 36,
      "hit": false,
      "t": 59752.79992089847,
      "d": 232.42326953125303,
      "v": 54
    },
    {
      "midi": 48,
      "hit": false,
      "t": 59752.79992089847,
      "d": 247.07179492188152,
      "v": 70
    },
    {
      "midi": 38,
      "hit": false,
      "t": 60002.31313671879,
      "d": 512.2101044921874,
      "v": 60
    },
    {
      "midi": 50,
      "hit": false,
      "t": 60002.31313671879,
      "d": 512.2101044921874,
      "v": 75
    },
    {
      "midi": 41,
      "hit": false,
      "t": 61139.038707031286,
      "d": 226.56385937499726,
      "v": 56
    },
    {
      "midi": 53,
      "hit": false,
      "t": 61139.038707031286,
      "d": 241.21238476562576,
      "v": 70
    },
    {
      "midi": 38,
      "hit": false,
      "t": 61380.7393759766,
      "d": 117.676487304685,
      "v": 63
    },
    {
      "midi": 43,
      "hit": false,
      "t": 61506.228410156284,
      "d": 231.44670117187343,
      "v": 57
    },
    {
      "midi": 55,
      "hit": false,
      "t": 61506.228410156284,
      "d": 246.09522656250192,
      "v": 71
    },
    {
      "midi": 41,
      "hit": false,
      "t": 61752.81192089847,
      "d": 232.42326953125303,
      "v": 56
    },
    {
      "midi": 53,
      "hit": false,
      "t": 61752.81192089847,
      "d": 247.07179492188152,
      "v": 70
    },
    {
      "midi": 38,
      "hit": false,
      "t": 62002.32513671879,
      "d": 512.2101044921874,
      "v": 60
    },
    {
      "midi": 50,
      "hit": false,
      "t": 62002.32513671879,
      "d": 512.2101044921874,
      "v": 75
    },
    {
      "midi": 41,
      "hit": false,
      "t": 63139.05070703129,
      "d": 226.56385937499726,
      "v": 56
    },
    {
      "midi": 53,
      "hit": false,
      "t": 63139.05070703129,
      "d": 241.21238476562576,
      "v": 70
    },
    {
      "midi": 38,
      "hit": false,
      "t": 63380.7513759766,
      "d": 117.676487304685,
      "v": 63
    },
    {
      "midi": 43,
      "hit": false,
      "t": 63506.240410156286,
      "d": 117.676487304685,
      "v": 65
    },
    {
      "midi": 45,
      "hit": false,
      "t": 63631.72944433597,
      "d": 113.28192968750227,
      "v": 64
    },
    {
      "midi": 36,
      "hit": false,
      "t": 63752.823920898474,
      "d": 232.42326953125303,
      "v": 54
    },
    {
      "midi": 48,
      "hit": false,
      "t": 63752.823920898474,
      "d": 247.07179492188152,
      "v": 70
    },
    {
      "midi": 62,
      "hit": false,
      "t": 64002.337136718794,
      "d": 512.2101044921874,
      "v": 85
    },
    {
      "midi": 38,
      "hit": false,
      "t": 64002.337136718794,
      "d": 512.2101044921874,
      "v": 60
    },
    {
      "midi": 50,
      "hit": false,
      "t": 64002.337136718794,
      "d": 512.2101044921874,
      "v": 75
    },
    {
      "midi": 65,
      "hit": false,
      "t": 65139.06270703129,
      "d": 226.56385937499726,
      "v": 80
    },
    {
      "midi": 41,
      "hit": false,
      "t": 65139.06270703129,
      "d": 226.56385937499726,
      "v": 56
    },
    {
      "midi": 53,
      "hit": false,
      "t": 65139.06270703129,
      "d": 241.21238476562576,
      "v": 70
    },
    {
      "midi": 62,
      "hit": false,
      "t": 65380.7633759766,
      "d": 117.676487304685,
      "v": 80
    },
    {
      "midi": 38,
      "hit": false,
      "t": 65380.7633759766,
      "d": 117.676487304685,
      "v": 63
    },
    {
      "midi": 67,
      "hit": false,
      "t": 65506.25241015629,
      "d": 231.4467011718807,
      "v": 81
    },
    {
      "midi": 43,
      "hit": false,
      "t": 65506.25241015629,
      "d": 231.4467011718807,
      "v": 57
    },
    {
      "midi": 55,
      "hit": false,
      "t": 65506.25241015629,
      "d": 246.0952265625092,
      "v": 71
    },
    {
      "midi": 65,
      "hit": false,
      "t": 65752.83592089848,
      "d": 232.42326953125303,
      "v": 80
    },
    {
      "midi": 41,
      "hit": false,
      "t": 65752.83592089849,
      "d": 232.42326953125303,
      "v": 56
    },
    {
      "midi": 53,
      "hit": false,
      "t": 65752.83592089849,
      "d": 247.07179492188152,
      "v": 70
    },
    {
      "midi": 62,
      "hit": false,
      "t": 66002.3491367188,
      "d": 512.2101044921874,
      "v": 85
    },
    {
      "midi": 38,
      "hit": false,
      "t": 66002.34913671881,
      "d": 512.2101044921874,
      "v": 60
    },
    {
      "midi": 50,
      "hit": false,
      "t": 66002.34913671881,
      "d": 512.2101044921874,
      "v": 75
    },
    {
      "midi": 65,
      "hit": false,
      "t": 67139.0747070313,
      "d": 226.56385937500454,
      "v": 80
    },
    {
      "midi": 41,
      "hit": false,
      "t": 67139.07470703131,
      "d": 226.56385937500454,
      "v": 56
    },
    {
      "midi": 53,
      "hit": false,
      "t": 67139.07470703131,
      "d": 241.21238476563303,
      "v": 70
    },
    {
      "midi": 62,
      "hit": false,
      "t": 67380.7753759766,
      "d": 117.67648730469227,
      "v": 80
    },
    {
      "midi": 38,
      "hit": false,
      "t": 67380.77537597663,
      "d": 117.67648730469227,
      "v": 63
    },
    {
      "midi": 67,
      "hit": false,
      "t": 67506.26441015629,
      "d": 117.67648730469227,
      "v": 81
    },
    {
      "midi": 43,
      "hit": false,
      "t": 67506.26441015632,
      "d": 117.67648730469227,
      "v": 65
    },
    {
      "midi": 69,
      "hit": false,
      "t": 67631.75344433598,
      "d": 113.281929687495,
      "v": 80
    },
    {
      "midi": 45,
      "hit": false,
      "t": 67631.753444336,
      "d": 113.281929687495,
      "v": 64
    },
    {
      "midi": 60,
      "hit": false,
      "t": 67752.84792089846,
      "d": 232.42326953125303,
      "v": 80
    },
    {
      "midi": 36,
      "hit": false,
      "t": 67752.8479208985,
      "d": 232.42326953125303,
      "v": 54
    },
    {
      "midi": 48,
      "hit": false,
      "t": 67752.8479208985,
      "d": 247.07179492188152,
      "v": 70
    },
    {
      "midi": 38,
      "hit": false,
      "t": 68002.36113671881,
      "d": 212.40361816406948,
      "v": 60
    },
    {
      "midi": 50,
      "hit": false,
      "t": 68002.36113671881,
      "d": 212.40361816406948,
      "v": 75
    }
  ]
}