{
  "jsonPath": "Pop/New Wave Pop/Murray Head/le-sud.json",
  "path": "Pop\\New Wave Pop\\Murray Head\\Le Sud.mid",
  "name": "Le Sud",
  "difficulty": "Advanced",
  "bpm": 90.00346513340763,
  "notes": [
    {
      "midi": 44,
      "hit": false,
      "t": 37331.89600000001,
      "d": 319.4321458333361,
      "v": 59
    },
    {
      "midi": 56,
      "hit": false,
      "t": 37331.89600000001,
      "d": 319.4321458333361,
      "v": 55
    },
    {
      "midi": 59,
      "hit": false,
      "t": 37331.89600000001,
      "d": 319.4321458333361,
      "v": 77
    },
    {
      "midi": 51,
      "hit": false,
      "t": 37331.89600000001,
      "d": 326.3763229166725,
      "v": 57
    },
    {
      "midi": 51,
      "hit": false,
      "t": 37665.21650000002,
      "d": 319.4321458333361,
      "v": 81
    },
    {
      "midi": 56,
      "hit": false,
      "t": 37665.21650000002,
      "d": 319.4321458333361,
      "v": 79
    },
    {
      "midi": 59,
      "hit": false,
      "t": 37665.21650000002,
      "d": 319.4321458333361,
      "v": 79
    },
    {
      "midi": 44,
      "hit": false,
      "t": 37665.21650000002,
      "d": 326.3763229166725,
      "v": 66
    },
    {
      "midi": 44,
      "hit": false,
      "t": 37998.537000000026,
      "d": 319.4321458333361,
      "v": 85
    },
    {
      "midi": 51,
      "hit": false,
      "t": 37998.537000000026,
      "d": 319.4321458333361,
      "v": 85
    },
    {
      "midi": 56,
      "hit": false,
      "t": 37998.537000000026,
      "d": 319.4321458333361,
      "v": 86
    },
    {
      "midi": 59,
      "hit": false,
      "t": 37998.537000000026,
      "d": 319.4321458333361,
      "v": 85
    },
    {
      "midi": 51,
      "hit": false,
      "t": 38331.85750000003,
      "d": 319.4321458333361,
      "v": 72
    },
    {
      "midi": 56,
      "hit": false,
      "t": 38331.85750000003,
      "d": 319.4321458333361,
      "v": 66
    },
    {
      "midi": 59,
      "hit": false,
      "t": 38331.85750000003,
      "d": 319.4321458333361,
      "v": 72
    },
    {
      "midi": 44,
      "hit": false,
      "t": 38331.85750000003,
      "d": 326.3763229166725,
      "v": 62
    },
    {
      "midi": 44,
      "hit": false,
      "t": 38665.178000000036,
      "d": 319.4321458333361,
      "v": 72
    },
    {
      "midi": 51,
      "hit": false,
      "t": 38665.178000000036,
      "d": 319.4321458333361,
      "v": 72
    },
    {
      "midi": 56,
      "hit": false,
      "t": 38665.178000000036,
      "d": 319.4321458333361,
      "v": 70
    },
    {
      "midi": 59,
      "hit": false,
      "t": 38665.178000000036,
      "d": 319.4321458333361,
      "v": 74
    },
    {
      "midi": 44,
      "hit": false,
      "t": 38998.49850000004,
      "d": 319.4321458333361,
      "v": 72
    },
    {
      "midi": 51,
      "hit": false,
      "t": 38998.49850000004,
      "d": 319.4321458333361,
      "v": 77
    },
    {
      "midi": 56,
      "hit": false,
      "t": 38998.49850000004,
      "d": 319.4321458333361,
      "v": 74
    },
    {
      "midi": 59,
      "hit": false,
      "t": 38998.49850000004,
      "d": 326.3763229166725,
      "v": 81
    },
    {
      "midi": 44,
      "hit": false,
      "t": 39331.81900000005,
      "d": 319.4321458333361,
      "v": 85
    },
    {
      "midi": 51,
      "hit": false,
      "t": 39331.81900000005,
      "d": 319.4321458333361,
      "v": 85
    },
    {
      "midi": 56,
      "hit": false,
      "t": 39331.81900000005,
      "d": 319.4321458333361,
      "v": 85
    },
    {
      "midi": 59,
      "hit": false,
      "t": 39331.81900000005,
      "d": 319.4321458333361,
      "v": 85
    },
    {
      "midi": 44,
      "hit": false,
      "t": 39665.13950000005,
      "d": 319.4321458333361,
      "v": 79
    },
    {
      "midi": 51,
      "hit": false,
      "t": 39665.13950000005,
      "d": 319.4321458333361,
      "v": 85
    },
    {
      "midi": 56,
      "hit": false,
      "t": 39665.13950000005,
      "d": 319.4321458333361,
      "v": 76
    },
    {
      "midi": 59,
      "hit": false,
      "t": 39665.13950000005,
      "d": 319.4321458333361,
      "v": 77
    },
    {
      "midi": 45,
      "hit": false,
      "t": 39998.46000000005,
      "d": 319.4321458333361,
      "v": 55
    },
    {
      "midi": 52,
      "hit": false,
      "t": 39998.46000000005,
      "d": 319.4321458333361,
      "v": 85
    },
    {
      "midi": 57,
      "hit": false,
      "t": 39998.46000000005,
      "d": 319.4321458333361,
      "v": 46
    },
    {
      "midi": 61,
      "hit": false,
      "t": 39998.46000000005,
      "d": 326.3763229166725,
      "v": 85
    },
    {
      "midi": 45,
      "hit": false,
      "t": 40331.78050000006,
      "d": 326.37632291666523,
      "v": 40
    },
    {
      "midi": 52,
      "hit": false,
      "t": 40331.78050000006,
      "d": 326.37632291666523,
      "v": 82
    },
    {
      "midi": 57,
      "hit": false,
      "t": 40331.78050000006,
      "d": 326.37632291666523,
      "v": 59
    },
    {
      "midi": 61,
      "hit": false,
      "t": 40331.78050000006,
      "d": 326.37632291666523,
      "v": 85
    },
    {
      "midi": 45,
      "hit": false,
      "t": 40665.10100000006,
      "d": 319.4321458333361,
      "v": 67
    },
    {
      "midi": 52,
      "hit": false,
      "t": 40665.10100000006,
      "d": 319.4321458333361,
      "v": 85
    },
    {
      "midi": 61,
      "hit": false,
      "t": 40665.10100000006,
      "d": 319.4321458333361,
      "v": 85
    },
    {
      "midi": 57,
      "hit": false,
      "t": 40665.10100000006,
      "d": 326.3763229166725,
      "v": 76
    },
    {
      "midi": 57,
      "hit": false,
      "t": 40998.42150000007,
      "d": 319.4321458333361,
      "v": 55
    },
    {
      "midi": 61,
      "hit": false,
      "t": 40998.42150000007,
      "d": 319.4321458333361,
      "v": 72
    },
    {
      "midi": 45,
      "hit": false,
      "t": 40998.42150000007,
      "d": 326.3763229166725,
      "v": 46
    },
    {
      "midi": 52,
      "hit": false,
      "t": 40998.42150000007,
      "d": 326.3763229166725,
      "v": 81
    },
    {
      "midi": 45,
      "hit": false,
      "t": 41331.74200000008,
      "d": 319.4321458333361,
      "v": 46
    },
    {
      "midi": 57,
      "hit": false,
      "t": 41331.74200000008,
      "d": 319.4321458333361,
      "v": 60
    },
    {
      "midi": 52,
      "hit": false,
      "t": 41331.74200000008,
      "d": 326.3763229166725,
      "v": 57
    },
    {
      "midi": 61,
      "hit": false,
      "t": 41331.74200000008,
      "d": 326.3763229166725,
      "v": 72
    },
    {
      "midi": 57,
      "hit": false,
      "t": 41665.06250000009,
      "d": 319.4321458333361,
      "v": 52
    },
    {
      "midi": 61,
      "hit": false,
      "t": 41665.06250000009,
      "d": 319.4321458333361,
      "v": 78
    },
    {
      "midi": 45,
      "hit": false,
      "t": 41665.06250000009,
      "d": 326.3763229166725,
      "v": 43
    },
    {
      "midi": 52,
      "hit": false,
      "t": 41665.06250000009,
      "d": 326.3763229166725,
      "v": 77
    },
    {
      "midi": 52,
      "hit": false,
      "t": 41998.383000000096,
      "d": 319.4321458333361,
      "v": 85
    },
    {
      "midi": 57,
      "hit": false,
      "t": 41998.383000000096,
      "d": 319.4321458333361,
      "v": 86
    },
    {
      "midi": 61,
      "hit": false,
      "t": 41998.383000000096,
      "d": 319.4321458333361,
      "v": 85
    },
    {
      "midi": 45,
      "hit": false,
      "t": 41998.383000000096,
      "d": 326.3763229166725,
      "v": 76
    },
    {
      "midi": 57,
      "hit": false,
      "t": 42331.703500000105,
      "d": 319.4321458333361,
      "v": 62
    },
    {
      "midi": 61,
      "hit": false,
      "t": 42331.703500000105,
      "d": 319.4321458333361,
      "v": 78
    },
    {
      "midi": 45,
      "hit": false,
      "t": 42331.703500000105,
      "d": 326.3763229166725,
      "v": 55
    },
    {
      "midi": 52,
      "hit": false,
      "t": 42331.703500000105,
      "d": 326.3763229166725,
      "v": 85
    },
    {
      "midi": 52,
      "hit": false,
      "t": 42665.024000000114,
      "d": 319.4321458333361,
      "v": 71
    },
    {
      "midi": 56,
      "hit": false,
      "t": 42665.024000000114,
      "d": 319.4321458333361,
      "v": 72
    },
    {
      "midi": 59,
      "hit": false,
      "t": 42665.024000000114,
      "d": 319.4321458333361,
      "v": 85
    },
    {
      "midi": 44,
      "hit": false,
      "t": 42665.024000000114,
      "d": 326.3763229166725,
      "v": 69
    },
    {
      "midi": 52,
      "hit": false,
      "t": 42998.34450000012,
      "d": 319.4321458333361,
      "v": 66
    },
    {
      "midi": 59,
      "hit": false,
      "t": 42998.34450000012,
      "d": 319.4321458333361,
      "v": 82
    },
    {
      "midi": 44,
      "hit": false,
      "t": 42998.34450000012,
      "d": 326.3763229166725,
      "v": 62
    },
    {
      "midi": 56,
      "hit": false,
      "t": 42998.34450000012,
      "d": 326.3763229166725,
      "v": 69
    },
    {
      "midi": 44,
      "hit": false,
      "t": 43331.66500000013,
      "d": 319.4321458333361,
      "v": 64
    },
    {
      "midi": 52,
      "hit": false,
      "t": 43331.66500000013,
      "d": 319.4321458333361,
      "v": 79
    },
    {
      "midi": 59,
      "hit": false,
      "t": 43331.66500000013,
      "d": 319.4321458333361,
      "v": 82
    },
    {
      "midi": 56,
      "hit": false,
      "t": 43331.66500000013,
      "d": 326.3763229166725,
      "v": 72
    },
    {
      "midi": 52,
      "hit": false,
      "t": 43664.98550000014,
      "d": 319.4321458333361,
      "v": 74
    },
    {
      "midi": 59,
      "hit": false,
      "t": 43664.98550000014,
      "d": 319.4321458333361,
      "v": 77
    },
    {
      "midi": 44,
      "hit": false,
      "t": 43664.98550000014,
      "d": 326.3763229166725,
      "v": 59
    },
    {
      "midi": 56,
      "hit": false,
      "t": 43664.98550000014,
      "d": 326.3763229166725,
      "v": 64
    },
    {
      "midi": 44,
      "hit": false,
      "t": 43998.30600000015,
      "d": 319.4321458333361,
      "v": 49
    },
    {
      "midi": 52,
      "hit": false,
      "t": 43998.30600000015,
      "d": 319.4321458333361,
      "v": 71
    },
    {
      "midi": 56,
      "hit": false,
      "t": 43998.30600000015,
      "d": 319.4321458333361,
      "v": 71
    },
    {
      "midi": 62,
      "hit": false,
      "t": 43998.30600000015,
      "d": 319.4321458333361,
      "v": 61
    },
    {
      "midi": 52,
      "hit": false,
      "t": 44331.62650000015,
      "d": 319.4321458333361,
      "v": 59
    },
    {
      "midi": 56,
      "hit": false,
      "t": 44331.62650000015,
      "d": 319.4321458333361,
      "v": 61
    },
    {
      "midi": 62,
      "hit": false,
      "t": 44331.62650000015,
      "d": 319.4321458333361,
      "v": 54
    },
    {
      "midi": 44,
      "hit": false,
      "t": 44331.62650000015,
      "d": 326.3763229166725,
      "v": 56
    },
    {
      "midi": 44,
      "hit": false,
      "t": 44664.94700000016,
      "d": 319.4321458333361,
      "v": 85
    },
    {
      "midi": 52,
      "hit": false,
      "t": 44664.94700000016,
      "d": 319.4321458333361,
      "v": 85
    },
    {
      "midi": 56,
      "hit": false,
      "t": 44664.94700000016,
      "d": 319.4321458333361,
      "v": 85
    },
    {
      "midi": 62,
      "hit": false,
      "t": 44664.94700000016,
      "d": 319.4321458333361,
      "v": 99
    },
    {
      "midi": 44,
      "hit": false,
      "t": 44998.26750000016,
      "d": 319.4321458333361,
      "v": 65
    },
    {
      "midi": 62,
      "hit": false,
      "t": 44998.26750000016,
      "d": 319.4321458333361,
      "v": 55
    },
    {
      "midi": 52,
      "hit": false,
      "t": 44998.26750000016,
      "d": 326.3763229166725,
      "v": 79
    },
    {
      "midi": 56,
      "hit": false,
      "t": 44998.26750000016,
      "d": 326.3763229166725,
      "v": 71
    },
    {
      "midi": 45,
      "hit": false,
      "t": 45331.58800000017,
      "d": 319.4321458333361,
      "v": 53
    },
    {
      "midi": 52,
      "hit": false,
      "t": 45331.58800000017,
      "d": 319.4321458333361,
      "v": 85
    },
    {
      "midi": 61,
      "hit": false,
      "t": 45331.58800000017,
      "d": 319.4321458333361,
      "v": 67
    },
    {
      "midi": 57,
      "hit": false,
      "t": 45331.58800000017,
      "d": 326.3763229166725,
      "v": 52
    },
    {
      "midi": 45,
      "hit": false,
      "t": 45664.90850000018,
      "d": 326.37632291666523,
      "v": 46
    },
    {
      "midi": 52,
      "hit": false,
      "t": 45664.90850000018,
      "d": 326.37632291666523,
      "v": 84
    },
    {
      "midi": 57,
      "hit": false,
      "t": 45664.90850000018,
      "d": 326.37632291666523,
      "v": 52
    },
    {
      "midi": 61,
      "hit": false,
      "t": 45664.90850000018,
      "d": 326.37632291666523,
      "v": 68
    },
    {
      "midi": 45,
      "hit": false,
      "t": 45998.22900000018,
      "d": 319.4321458333361,
      "v": 71
    },
    {
      "midi": 52,
      "hit": false,
      "t": 45998.22900000018,
      "d": 319.4321458333361,
      "v": 85
    },
    {
      "midi": 61,
      "hit": false,
      "t": 45998.22900000018,
      "d": 319.4321458333361,
      "v": 85
    },
    {
      "midi": 57,
      "hit": false,
      "t": 45998.22900000018,
      "d": 326.3763229166725,
      "v": 81
    },
    {
      "midi": 52,
      "hit": false,
      "t": 46331.54950000019,
      "d": 326.37632291666523,
      "v": 84
    },
    {
      "midi": 57,
      "hit": false,
      "t": 46331.54950000019,
      "d": 326.37632291666523,
      "v": 59
    },
    {
      "midi": 61,
      "hit": false,
      "t": 46331.54950000019,
      "d": 326.37632291666523,
      "v": 72
    },
    {
      "midi": 45,
      "hit": false,
      "t": 46331.54950000019,
      "d": 333.32050000000163,
      "v": 46
    },
    {
      "midi": 45,
      "hit": false,
      "t": 46664.87000000019,
      "d": 319.4321458333361,
      "v": 43
    },
    {
      "midi": 52,
      "hit": false,
      "t": 46664.87000000019,
      "d": 319.4321458333361,
      "v": 74
    },
    {
      "midi": 57,
      "hit": false,
      "t": 46664.87000000019,
      "d": 326.3763229166725,
      "v": 52
    },
    {
      "midi": 61,
      "hit": false,
      "t": 46664.87000000019,
      "d": 326.3763229166725,
      "v": 72
    },
    {
      "midi": 45,
      "hit": false,
      "t": 46998.1905000002,
      "d": 326.37632291666523,
      "v": 44
    },
    {
      "midi": 57,
      "hit": false,
      "t": 46998.1905000002,
      "d": 326.37632291666523,
      "v": 55
    },
    {
      "midi": 61,
      "hit": false,
      "t": 46998.1905000002,
      "d": 326.37632291666523,
      "v": 72
    },
    {
      "midi": 52,
      "hit": false,
      "t": 46998.1905000002,
      "d": 333.32050000000163,
      "v": 64
    },
    {
      "midi": 57,
      "hit": false,
      "t": 47331.5110000002,
      "d": 319.4321458333361,
      "v": 85
    },
    {
      "midi": 61,
      "hit": false,
      "t": 47331.5110000002,
      "d": 319.4321458333361,
      "v": 85
    },
    {
      "midi": 45,
      "hit": false,
      "t": 47331.5110000002,
      "d": 326.3763229166725,
      "v": 67
    },
    {
      "midi": 52,
      "hit": false,
      "t": 47331.5110000002,
      "d": 326.3763229166725,
      "v": 85
    },
    {
      "midi": 57,
      "hit": false,
      "t": 47664.83150000021,
      "d": 319.4321458333361,
      "v": 59
    },
    {
      "midi": 61,
      "hit": false,
      "t": 47664.83150000021,
      "d": 319.4321458333361,
      "v": 77
    },
    {
      "midi": 45,
      "hit": false,
      "t": 47664.83150000021,
      "d": 326.3763229166725,
      "v": 56
    },
    {
      "midi": 52,
      "hit": false,
      "t": 47664.83150000021,
      "d": 326.3763229166725,
      "v": 85
    },
    {
      "midi": 52,
      "hit": false,
      "t": 47998.15200000022,
      "d": 319.4321458333361,
      "v": 57
    },
    {
      "midi": 44,
      "hit": false,
      "t": 47998.15200000022,
      "d": 326.3763229166725,
      "v": 59
    },
    {
      "midi": 56,
      "hit": false,
      "t": 47998.15200000022,
      "d": 326.3763229166725,
      "v": 62
    },
    {
      "midi": 59,
      "hit": false,
      "t": 47998.15200000022,
      "d": 326.3763229166725,
      "v": 74
    },
    {
      "midi": 52,
      "hit": false,
      "t": 48331.47250000023,
      "d": 319.4321458333361,
      "v": 67
    },
    {
      "midi": 59,
      "hit": false,
      "t": 48331.47250000023,
      "d": 319.4321458333361,
      "v": 79
    },
    {
      "midi": 44,
      "hit": false,
      "t": 48331.47250000023,
      "d": 326.3763229166725,
      "v": 57
    },
    {
      "midi": 56,
      "hit": false,
      "t": 48331.47250000023,
      "d": 326.3763229166725,
      "v": 57
    },
    {
      "midi": 56,
      "hit": false,
      "t": 48664.79300000024,
      "d": 319.4321458333361,
      "v": 85
    },
    {
      "midi": 59,
      "hit": false,
      "t": 48664.79300000024,
      "d": 319.4321458333361,
      "v": 85
    },
    {
      "midi": 44,
      "hit": false,
      "t": 48664.79300000024,
      "d": 326.3763229166725,
      "v": 85
    },
    {
      "midi": 52,
      "hit": false,
      "t": 48664.79300000024,
      "d": 326.3763229166725,
      "v": 85
    },
    {
      "midi": 59,
      "hit": false,
      "t": 48998.11350000025,
      "d": 319.4321458333361,
      "v": 85
    },
    {
      "midi": 44,
      "hit": false,
      "t": 48998.11350000025,
      "d": 326.3763229166725,
      "v": 64
    },
    {
      "midi": 52,
      "hit": false,
      "t": 48998.11350000025,
      "d": 326.3763229166725,
      "v": 74
    },
    {
      "midi": 56,
      "hit": false,
      "t": 48998.11350000025,
      "d": 326.3763229166725,
      "v": 78
    },
    {
      "midi": 44,
      "hit": false,
      "t": 49331.434000000256,
      "d": 319.4321458333361,
      "v": 62
    },
    {
      "midi": 52,
      "hit": false,
      "t": 49331.434000000256,
      "d": 319.4321458333361,
      "v": 72
    },
    {
      "midi": 56,
      "hit": false,
      "t": 49331.434000000256,
      "d": 319.4321458333361,
      "v": 59
    },
    {
      "midi": 62,
      "hit": false,
      "t": 49331.434000000256,
      "d": 319.4321458333361,
      "v": 52
    },
    {
      "midi": 44,
      "hit": false,
      "t": 49664.75450000026,
      "d": 319.4321458333361,
      "v": 72
    },
    {
      "midi": 52,
      "hit": false,
      "t": 49664.75450000026,
      "d": 319.4321458333361,
      "v": 81
    },
    {
      "midi": 56,
      "hit": false,
      "t": 49664.75450000026,
      "d": 319.4321458333361,
      "v": 69
    },
    {
      "midi": 62,
      "hit": false,
      "t": 49664.75450000026,
      "d": 319.4321458333361,
      "v": 60
    },
    {
      "midi": 44,
      "hit": false,
      "t": 49998.07500000026,
      "d": 319.4321458333361,
      "v": 85
    },
    {
      "midi": 52,
      "hit": false,
      "t": 49998.07500000026,
      "d": 319.4321458333361,
      "v": 85
    },
    {
      "midi": 56,
      "hit": false,
      "t": 49998.07500000026,
      "d": 319.4321458333361,
      "v": 85
    },
    {
      "midi": 62,
      "hit": false,
      "t": 49998.07500000026,
      "d": 319.4321458333361,
      "v": 117
    },
    {
      "midi": 44,
      "hit": false,
      "t": 50331.39550000026,
      "d": 326.37632291666523,
      "v": 74
    },
    {
      "midi": 56,
      "hit": false,
      "t": 50331.39550000026,
      "d": 326.37632291666523,
      "v": 64
    },
    {
      "midi": 62,
      "hit": false,
      "t": 50331.39550000026,
      "d": 326.37632291666523,
      "v": 64
    },
    {
      "midi": 52,
      "hit": false,
      "t": 50331.39550000026,
      "d": 333.32050000000163,
      "v": 81
    },
    {
      "midi": 45,
      "hit": false,
      "t": 50664.71600000026,
      "d": 319.4321458333361,
      "v": 57
    },
    {
      "midi": 52,
      "hit": false,
      "t": 50664.71600000026,
      "d": 319.4321458333361,
      "v": 85
    },
    {
      "midi": 61,
      "hit": false,
      "t": 50664.71600000026,
      "d": 319.4321458333361,
      "v": 72
    },
    {
      "midi": 57,
      "hit": false,
      "t": 50664.71600000026,
      "d": 326.3763229166725,
      "v": 59
    },
    {
      "midi": 57,
      "hit": false,
      "t": 50998.03650000027,
      "d": 319.4321458333361,
      "v": 53
    },
    {
      "midi": 45,
      "hit": false,
      "t": 50998.03650000027,
      "d": 326.3763229166725,
      "v": 54
    },
    {
      "midi": 52,
      "hit": false,
      "t": 50998.03650000027,
      "d": 326.3763229166725,
      "v": 82
    },
    {
      "midi": 61,
      "hit": false,
      "t": 50998.03650000027,
      "d": 326.3763229166725,
      "v": 82
    },
    {
      "midi": 57,
      "hit": false,
      "t": 51331.35700000028,
      "d": 319.4321458333361,
      "v": 88
    },
    {
      "midi": 61,
      "hit": false,
      "t": 51331.35700000028,
      "d": 319.4321458333361,
      "v": 85
    },
    {
      "midi": 45,
      "hit": false,
      "t": 51331.35700000028,
      "d": 326.3763229166725,
      "v": 72
    },
    {
      "midi": 52,
      "hit": false,
      "t": 51331.35700000028,
      "d": 326.3763229166725,
      "v": 85
    },
    {
      "midi": 45,
      "hit": false,
      "t": 51664.67750000029,
      "d": 326.37632291666523,
      "v": 50
    },
    {
      "midi": 52,
      "hit": false,
      "t": 51664.67750000029,
      "d": 326.37632291666523,
      "v": 85
    },
    {
      "midi": 57,
      "hit": false,
      "t": 51664.67750000029,
      "d": 326.37632291666523,
      "v": 59
    },
    {
      "midi": 61,
      "hit": false,
      "t": 51664.67750000029,
      "d": 326.37632291666523,
      "v": 85
    },
    {
      "midi": 45,
      "hit": false,
      "t": 51997.99800000029,
      "d": 319.4321458333361,
      "v": 50
    },
    {
      "midi": 61,
      "hit": false,
      "t": 51997.99800000029,
      "d": 319.4321458333361,
      "v": 71
    },
    {
      "midi": 52,
      "hit": false,
      "t": 51997.99800000029,
      "d": 326.3763229166725,
      "v": 85
    },
    {
      "midi": 57,
      "hit": false,
      "t": 51997.99800000029,
      "d": 326.3763229166725,
      "v": 64
    },
    {
      "midi": 57,
      "hit": false,
      "t": 52331.3185000003,
      "d": 319.4321458333361,
      "v": 57
    },
    {
      "midi": 61,
      "hit": false,
      "t": 52331.3185000003,
      "d": 319.4321458333361,
      "v": 67
    },
    {
      "midi": 45,
      "hit": false,
      "t": 52331.3185000003,
      "d": 326.3763229166725,
      "v": 46
    },
    {
      "midi": 52,
      "hit": false,
      "t": 52331.3185000003,
      "d": 326.3763229166725,
      "v": 65
    },
    {
      "midi": 57,
      "hit": false,
      "t": 52664.63900000031,
      "d": 319.4321458333361,
      "v": 88
    },
    {
      "midi": 61,
      "hit": false,
      "t": 52664.63900000031,
      "d": 319.4321458333361,
      "v": 85
    },
    {
      "midi": 45,
      "hit": false,
      "t": 52664.63900000031,
      "d": 326.3763229166725,
      "v": 72
    },
    {
      "midi": 52,
      "hit": false,
      "t": 52664.63900000031,
      "d": 326.3763229166725,
      "v": 85
    },
    {
      "midi": 45,
      "hit": false,
      "t": 52997.95950000032,
      "d": 326.37632291666523,
      "v": 52
    },
    {
      "midi": 52,
      "hit": false,
      "t": 52997.95950000032,
      "d": 326.37632291666523,
      "v": 85
    },
    {
      "midi": 57,
      "hit": false,
      "t": 52997.95950000032,
      "d": 326.37632291666523,
      "v": 62
    },
    {
      "midi": 61,
      "hit": false,
      "t": 52997.95950000032,
      "d": 326.37632291666523,
      "v": 66
    },
    {
      "midi": 52,
      "hit": false,
      "t": 53331.28000000032,
      "d": 319.4321458333361,
      "v": 71
    },
    {
      "midi": 59,
      "hit": false,
      "t": 53331.28000000032,
      "d": 319.4321458333361,
      "v": 78
    },
    {
      "midi": 44,
      "hit": false,
      "t": 53331.28000000032,
      "d": 326.3763229166725,
      "v": 52
    },
    {
      "midi": 56,
      "hit": false,
      "t": 53331.28000000032,
      "d": 326.3763229166725,
      "v": 66
    },
    {
      "midi": 52,
      "hit": false,
      "t": 53664.60050000033,
      "d": 319.4321458333361,
      "v": 76
    },
    {
      "midi": 59,
      "hit": false,
      "t": 53664.60050000033,
      "d": 319.4321458333361,
      "v": 79
    },
    {
      "midi": 44,
      "hit": false,
      "t": 53664.60050000033,
      "d": 326.3763229166725,
      "v": 60
    },
    {
      "midi": 56,
      "hit": false,
      "t": 53664.60050000033,
      "d": 326.3763229166725,
      "v": 61
    },
    {
      "midi": 52,
      "hit": false,
      "t": 53997.92100000034,
      "d": 319.4321458333361,
      "v": 85
    },
    {
      "midi": 56,
      "hit": false,
      "t": 53997.92100000034,
      "d": 319.4321458333361,
      "v": 85
    },
    {
      "midi": 59,
      "hit": false,
      "t": 53997.92100000034,
      "d": 319.4321458333361,
      "v": 85
    },
    {
      "midi": 44,
      "hit": false,
      "t": 53997.92100000034,
      "d": 326.3763229166725,
      "v": 85
    },
    {
      "midi": 52,
      "hit": false,
      "t": 54331.241500000346,
      "d": 319.4321458333361,
      "v": 85
    },
    {
      "midi": 59,
      "hit": false,
      "t": 54331.241500000346,
      "d": 319.4321458333361,
      "v": 85
    },
    {
      "midi": 44,
      "hit": false,
      "t": 54331.241500000346,
      "d": 326.3763229166725,
      "v": 78
    },
    {
      "midi": 56,
      "hit": false,
      "t": 54331.241500000346,
      "d": 326.3763229166725,
      "v": 85
    },
    {
      "midi": 44,
      "hit": false,
      "t": 54664.562000000355,
      "d": 319.4321458333361,
      "v": 74
    },
    {
      "midi": 51,
      "hit": false,
      "t": 54664.562000000355,
      "d": 319.4321458333361,
      "v": 85
    },
    {
      "midi": 56,
      "hit": false,
      "t": 54664.562000000355,
      "d": 319.4321458333361,
      "v": 76
    },
    {
      "midi": 59,
      "hit": false,
      "t": 54664.562000000355,
      "d": 319.4321458333361,
      "v": 85
    },
    {
      "midi": 51,
      "hit": false,
      "t": 54997.882500000356,
      "d": 319.4321458333361,
      "v": 74
    },
    {
      "midi": 56,
      "hit": false,
      "t": 54997.882500000356,
      "d": 319.4321458333361,
      "v": 76
    },
    {
      "midi": 59,
      "hit": false,
      "t": 54997.882500000356,
      "d": 319.4321458333361,
      "v": 85
    },
    {
      "midi": 44,
      "hit": false,
      "t": 54997.882500000356,
      "d": 326.3763229166725,
      "v": 65
    },
    {
      "midi": 44,
      "hit": false,
      "t": 55331.203000000365,
      "d": 319.4321458333361,
      "v": 85
    },
    {
      "midi": 51,
      "hit": false,
      "t": 55331.203000000365,
      "d": 319.4321458333361,
      "v": 85
    },
    {
      "midi": 56,
      "hit": false,
      "t": 55331.203000000365,
      "d": 319.4321458333361,
      "v": 85
    },
    {
      "midi": 59,
      "hit": false,
      "t": 55331.203000000365,
      "d": 319.4321458333361,
      "v": 85
    },
    {
      "midi": 59,
      "hit": false,
      "t": 55664.52350000037,
      "d": 319.4321458333361,
      "v": 72
    },
    {
      "midi": 44,
      "hit": false,
      "t": 55664.52350000037,
      "d": 326.3763229166725,
      "v": 74
    },
    {
      "midi": 51,
      "hit": false,
      "t": 55664.52350000037,
      "d": 326.3763229166725,
      "v": 74
    },
    {
      "midi": 56,
      "hit": false,
      "t": 55664.52350000037,
      "d": 326.3763229166725,
      "v": 65
    },
    {
      "midi": 52,
      "hit": false,
      "t": 55997.844000000376,
      "d": 319.4321458333361,
      "v": 72
    },
    {
      "midi": 56,
      "hit": false,
      "t": 55997.844000000376,
      "d": 319.4321458333361,
      "v": 85
    },
    {
      "midi": 61,
      "hit": false,
      "t": 55997.844000000376,
      "d": 319.4321458333361,
      "v": 85
    },
    {
      "midi": 44,
      "hit": false,
      "t": 55997.844000000376,
      "d": 326.3763229166725,
      "v": 74
    },
    {
      "midi": 61,
      "hit": false,
      "t": 56331.164500000385,
      "d": 319.4321458333361,
      "v": 71
    },
    {
      "midi": 44,
      "hit": false,
      "t": 56331.164500000385,
      "d": 326.3763229166725,
      "v": 62
    },
    {
      "midi": 52,
      "hit": false,
      "t": 56331.164500000385,
      "d": 326.3763229166725,
      "v": 69
    },
    {
      "midi": 56,
      "hit": false,
      "t": 56331.164500000385,
      "d": 326.3763229166725,
      "v": 79
    },
    {
      "midi": 56,
      "hit": false,
      "t": 56664.48500000039,
      "d": 319.4321458333361,
      "v": 85
    },
    {
      "midi": 61,
      "hit": false,
      "t": 56664.48500000039,
      "d": 319.4321458333361,
      "v": 85
    },
    {
      "midi": 44,
      "hit": false,
      "t": 56664.48500000039,
      "d": 326.3763229166725,
      "v": 85
    },
    {
      "midi": 52,
      "hit": false,
      "t": 56664.48500000039,
      "d": 326.3763229166725,
      "v": 85
    },
    {
      "midi": 56,
      "hit": false,
      "t": 56997.8055000004,
      "d": 319.4321458333361,
      "v": 59
    },
    {
      "midi": 61,
      "hit": false,
      "t": 56997.8055000004,
      "d": 319.4321458333361,
      "v": 85
    },
    {
      "midi": 44,
      "hit": false,
      "t": 56997.8055000004,
      "d": 326.3763229166725,
      "v": 66
    },
    {
      "midi": 52,
      "hit": false,
      "t": 56997.8055000004,
      "d": 326.3763229166725,
      "v": 71
    },
    {
      "midi": 44,
      "hit": false,
      "t": 57331.12600000041,
      "d": 319.4321458333361,
      "v": 74
    },
    {
      "midi": 56,
      "hit": false,
      "t": 57331.12600000041,
      "d": 319.4321458333361,
      "v": 74
    },
    {
      "midi": 61,
      "hit": false,
      "t": 57331.12600000041,
      "d": 319.4321458333361,
      "v": 85
    },
    {
      "midi": 52,
      "hit": false,
      "t": 57331.12600000041,
      "d": 326.3763229166725,
      "v": 72
    },
    {
      "midi": 52,
      "hit": false,
      "t": 57664.44650000042,
      "d": 319.4321458333361,
      "v": 78
    },
    {
      "midi": 44,
      "hit": false,
      "t": 57664.44650000042,
      "d": 326.3763229166725,
      "v": 76
    },
    {
      "midi": 56,
      "hit": false,
      "t": 57664.44650000042,
      "d": 326.3763229166725,
      "v": 71
    },
    {
      "midi": 61,
      "hit": false,
      "t": 57664.44650000042,
      "d": 326.3763229166725,
      "v": 81
    },
    {
      "midi": 52,
      "hit": false,
      "t": 57997.76700000043,
      "d": 319.4321458333361,
      "v": 85
    },
    {
      "midi": 56,
      "hit": false,
      "t": 57997.76700000043,
      "d": 319.4321458333361,
      "v": 85
    },
    {
      "midi": 61,
      "hit": false,
      "t": 57997.76700000043,
      "d": 319.4321458333361,
      "v": 85
    },
    {
      "midi": 44,
      "hit": false,
      "t": 57997.76700000043,
      "d": 326.3763229166725,
      "v": 85
    },
    {
      "midi": 52,
      "hit": false,
      "t": 58331.08750000044,
      "d": 326.37632291666523,
      "v": 85
    },
    {
      "midi": 56,
      "hit": false,
      "t": 58331.08750000044,
      "d": 326.37632291666523,
      "v": 85
    },
    {
      "midi": 61,
      "hit": false,
      "t": 58331.08750000044,
      "d": 326.37632291666523,
      "v": 85
    },
    {
      "midi": 44,
      "hit": false,
      "t": 58331.08750000044,
      "d": 333.32050000000163,
      "v": 85
    },
    {
      "midi": 54,
      "hit": false,
      "t": 58664.40800000044,
      "d": 319.4321458333361,
      "v": 85
    },
    {
      "midi": 42,
      "hit": false,
      "t": 58664.40800000044,
      "d": 326.3763229166725,
      "v": 78
    },
    {
      "midi": 49,
      "hit": false,
      "t": 58664.40800000044,
      "d": 326.3763229166725,
      "v": 85
    },
    {
      "midi": 58,
      "hit": false,
      "t": 58664.40800000044,
      "d": 326.3763229166725,
      "v": 85
    },
    {
      "midi": 54,
      "hit": false,
      "t": 58997.72850000045,
      "d": 319.4321458333361,
      "v": 74
    },
    {
      "midi": 42,
      "hit": false,
      "t": 58997.72850000045,
      "d": 326.3763229166725,
      "v": 71
    },
    {
      "midi": 49,
      "hit": false,
      "t": 58997.72850000045,
      "d": 326.3763229166725,
      "v": 74
    },
    {
      "midi": 58,
      "hit": false,
      "t": 58997.72850000045,
      "d": 326.3763229166725,
      "v": 85
    },
    {
      "midi": 49,
      "hit": false,
      "t": 59331.04900000046,
      "d": 319.4321458333361,
      "v": 85
    },
    {
      "midi": 54,
      "hit": false,
      "t": 59331.04900000046,
      "d": 319.4321458333361,
      "v": 85
    },
    {
      "midi": 58,
      "hit": false,
      "t": 59331.04900000046,
      "d": 319.4321458333361,
      "v": 85
    },
    {
      "midi": 42,
      "hit": false,
      "t": 59331.04900000046,
      "d": 326.3763229166725,
      "v": 85
    },
    {
      "midi": 49,
      "hit": false,
      "t": 59664.369500000466,
      "d": 319.4321458333361,
      "v": 85
    },
    {
      "midi": 54,
      "hit": false,
      "t": 59664.369500000466,
      "d": 319.4321458333361,
      "v": 79
    },
    {
      "midi": 58,
      "hit": false,
      "t": 59664.369500000466,
      "d": 319.4321458333361,
      "v": 85
    },
    {
      "midi": 42,
      "hit": false,
      "t": 59664.369500000466,
      "d": 326.3763229166725,
      "v": 74
    },
    {
      "midi": 42,
      "hit": false,
      "t": 59997.690000000475,
      "d": 319.4321458333361,
      "v": 77
    },
    {
      "midi": 49,
      "hit": false,
      "t": 59997.690000000475,
      "d": 319.4321458333361,
      "v": 85
    },
    {
      "midi": 54,
      "hit": false,
      "t": 59997.690000000475,
      "d": 319.4321458333361,
      "v": 66
    },
    {
      "midi": 59,
      "hit": false,
      "t": 59997.690000000475,
      "d": 319.4321458333361,
      "v": 85
    },
    {
      "midi": 42,
      "hit": false,
      "t": 60331.01050000048,
      "d": 319.4321458333361,
      "v": 74
    },
    {
      "midi": 54,
      "hit": false,
      "t": 60331.01050000048,
      "d": 319.4321458333361,
      "v": 70
    },
    {
      "midi": 59,
      "hit": false,
      "t": 60331.01050000048,
      "d": 319.4321458333361,
      "v": 85
    },
    {
      "midi": 49,
      "hit": false,
      "t": 60331.01050000048,
      "d": 326.3763229166725,
      "v": 85
    },
    {
      "midi": 42,
      "hit": false,
      "t": 60664.331000000486,
      "d": 319.4321458333361,
      "v": 85
    },
    {
      "midi": 49,
      "hit": false,
      "t": 60664.331000000486,
      "d": 319.4321458333361,
      "v": 85
    },
    {
      "midi": 54,
      "hit": false,
      "t": 60664.331000000486,
      "d": 319.4321458333361,
      "v": 85
    },
    {
      "midi": 59,
      "hit": false,
      "t": 60664.331000000486,
      "d": 319.4321458333361,
      "v": 85
    },
    {
      "midi": 42,
      "hit": false,
      "t": 60997.65150000049,
      "d": 319.4321458333361,
      "v": 79
    },
    {
      "midi": 49,
      "hit": false,
      "t": 60997.65150000049,
      "d": 319.4321458333361,
      "v": 85
    },
    {
      "midi": 54,
      "hit": false,
      "t": 60997.65150000049,
      "d": 319.4321458333361,
      "v": 85
    },
    {
      "midi": 59,
      "hit": false,
      "t": 60997.65150000049,
      "d": 319.4321458333361,
      "v": 85
    },
    {
      "midi": 49,
      "hit": false,
      "t": 61330.97200000049,
      "d": 326.37632291666523,
      "v": 85
    },
    {
      "midi": 58,
      "hit": false,
      "t": 61330.97200000049,
      "d": 326.37632291666523,
      "v": 74
    },
    {
      "midi": 61,
      "hit": false,
      "t": 61330.97200000049,
      "d": 326.37632291666523,
      "v": 85
    },
    {
      "midi": 42,
      "hit": false,
      "t": 61330.97200000049,
      "d": 333.32050000000163,
      "v": 70
    },
    {
      "midi": 42,
      "hit": false,
      "t": 61664.29250000049,
      "d": 319.4321458333361,
      "v": 59
    },
    {
      "midi": 49,
      "hit": false,
      "t": 61664.29250000049,
      "d": 326.3763229166725,
      "v": 59
    },
    {
      "midi": 58,
      "hit": false,
      "t": 61664.29250000049,
      "d": 326.3763229166725,
      "v": 64
    },
    {
      "midi": 61,
      "hit": false,
      "t": 61664.29250000049,
      "d": 326.3763229166725,
      "v": 59
    },
    {
      "midi": 49,
      "hit": false,
      "t": 61997.6130000005,
      "d": 326.37632291666523,
      "v": 85
    },
    {
      "midi": 61,
      "hit": false,
      "t": 61997.6130000005,
      "d": 326.37632291666523,
      "v": 92
    },
    {
      "midi": 42,
      "hit": false,
      "t": 61997.6130000005,
      "d": 333.32050000000163,
      "v": 85
    },
    {
      "midi": 58,
      "hit": false,
      "t": 61997.6130000005,
      "d": 333.32050000000163,
      "v": 91
    },
    {
      "midi": 58,
      "hit": false,
      "t": 62330.9335000005,
      "d": 319.4321458333361,
      "v": 74
    },
    {
      "midi": 42,
      "hit": false,
      "t": 62330.9335000005,
      "d": 326.3763229166725,
      "v": 56
    },
    {
      "midi": 49,
      "hit": false,
      "t": 62330.9335000005,
      "d": 326.3763229166725,
      "v": 65
    },
    {
      "midi": 61,
      "hit": false,
      "t": 62330.9335000005,
      "d": 326.3763229166725,
      "v": 78
    },
    {
      "midi": 42,
      "hit": false,
      "t": 62664.25400000051,
      "d": 319.4321458333361,
      "v": 72
    },
    {
      "midi": 58,
      "hit": false,
      "t": 62664.25400000051,
      "d": 319.4321458333361,
      "v": 72
    },
    {
      "midi": 63,
      "hit": false,
      "t": 62664.25400000051,
      "d": 319.4321458333361,
      "v": 85
    },
    {
      "midi": 49,
      "hit": false,
      "t": 62664.25400000051,
      "d": 326.3763229166725,
      "v": 81
    },
    {
      "midi": 58,
      "hit": false,
      "t": 62997.57450000052,
      "d": 319.4321458333361,
      "v": 65
    },
    {
      "midi": 42,
      "hit": false,
      "t": 62997.57450000052,
      "d": 326.3763229166725,
      "v": 70
    },
    {
      "midi": 49,
      "hit": false,
      "t": 62997.57450000052,
      "d": 326.3763229166725,
      "v": 77
    },
    {
      "midi": 63,
      "hit": false,
      "t": 62997.57450000052,
      "d": 326.3763229166725,
      "v": 66
    },
    {
      "midi": 49,
      "hit": false,
      "t": 63330.89500000053,
      "d": 319.4321458333361,
      "v": 85
    },
    {
      "midi": 58,
      "hit": false,
      "t": 63330.89500000053,
      "d": 319.4321458333361,
      "v": 85
    },
    {
      "midi": 42,
      "hit": false,
      "t": 63330.89500000053,
      "d": 326.3763229166725,
      "v": 85
    },
    {
      "midi": 63,
      "hit": false,
      "t": 63330.89500000053,
      "d": 326.3763229166725,
      "v": 85
    },
    {
      "midi": 42,
      "hit": false,
      "t": 63664.21550000054,
      "d": 326.37632291666523,
      "v": 59
    },
    {
      "midi": 58,
      "hit": false,
      "t": 63664.21550000054,
      "d": 326.37632291666523,
      "v": 85
    },
    {
      "midi": 63,
      "hit": false,
      "t": 63664.21550000054,
      "d": 326.37632291666523,
      "v": 77
    },
    {
      "midi": 49,
      "hit": false,
      "t": 63664.21550000054,
      "d": 333.32050000000163,
      "v": 65
    },
    {
      "midi": 58,
      "hit": false,
      "t": 63997.53600000054,
      "d": 319.4321458333361,
      "v": 71
    },
    {
      "midi": 42,
      "hit": false,
      "t": 63997.53600000054,
      "d": 326.3763229166725,
      "v": 72
    },
    {
      "midi": 49,
      "hit": false,
      "t": 63997.53600000054,
      "d": 326.3763229166725,
      "v": 78
    },
    {
      "midi": 64,
      "hit": false,
      "t": 63997.53600000054,
      "d": 326.3763229166725,
      "v": 85
    },
    {
      "midi": 42,
      "hit": false,
      "t": 64330.85650000055,
      "d": 319.4321458333361,
      "v": 71
    },
    {
      "midi": 49,
      "hit": false,
      "t": 64330.85650000055,
      "d": 326.3763229166725,
      "v": 85
    },
    {
      "midi": 58,
      "hit": false,
      "t": 64330.85650000055,
      "d": 326.3763229166725,
      "v": 78
    },
    {
      "midi": 64,
      "hit": false,
      "t": 64330.85650000055,
      "d": 326.3763229166725,
      "v": 77
    },
    {
      "midi": 42,
      "hit": false,
      "t": 64664.177000000556,
      "d": 319.4321458333361,
      "v": 85
    },
    {
      "midi": 58,
      "hit": false,
      "t": 64664.177000000556,
      "d": 319.4321458333361,
      "v": 85
    },
    {
      "midi": 49,
      "hit": false,
      "t": 64664.177000000556,
      "d": 326.3763229166725,
      "v": 85
    },
    {
      "midi": 64,
      "hit": false,
      "t": 64664.177000000556,
      "d": 326.3763229166725,
      "v": 92
    },
    {
      "midi": 42,
      "hit": false,
      "t": 64997.497500000565,
      "d": 319.4321458333361,
      "v": 81
    },
    {
      "midi": 58,
      "hit": false,
      "t": 64997.497500000565,
      "d": 319.4321458333361,
      "v": 85
    },
    {
      "midi": 64,
      "hit": false,
      "t": 64997.497500000565,
      "d": 319.4321458333361,
      "v": 85
    },
    {
      "midi": 49,
      "hit": false,
      "t": 64997.497500000565,
      "d": 326.3763229166725,
      "v": 85
    },
    {
      "midi": 42,
      "hit": false,
      "t": 65330.818000000574,
      "d": 319.4321458333361,
      "v": 74
    },
    {
      "midi": 49,
      "hit": false,
      "t": 65330.818000000574,
      "d": 319.4321458333361,
      "v": 85
    },
    {
      "midi": 57,
      "hit": false,
      "t": 65330.818000000574,
      "d": 319.4321458333361,
      "v": 59
    },
    {
      "midi": 66,
      "hit": false,
      "t": 65330.818000000574,
      "d": 319.4321458333361,
      "v": 85
    },
    {
      "midi": 42,
      "hit": false,
      "t": 65664.13850000058,
      "d": 319.43214583332883,
      "v": 77
    },
    {
      "midi": 49,
      "hit": false,
      "t": 65664.13850000058,
      "d": 319.43214583332883,
      "v": 85
    },
    {
      "midi": 57,
      "hit": false,
      "t": 65664.13850000058,
      "d": 319.43214583332883,
      "v": 55
    },
    {
      "midi": 66,
      "hit": false,
      "t": 65664.13850000058,
      "d": 326.37632291666523,
      "v": 72
    },
    {
      "midi": 42,
      "hit": false,
      "t": 65997.45900000058,
      "d": 319.43214583332883,
      "v": 85
    },
    {
      "midi": 49,
      "hit": false,
      "t": 65997.45900000058,
      "d": 319.43214583332883,
      "v": 85
    },
    {
      "midi": 57,
      "hit": false,
      "t": 65997.45900000058,
      "d": 319.43214583332883,
      "v": 86
    },
    {
      "midi": 66,
      "hit": false,
      "t": 65997.45900000058,
      "d": 319.43214583332883,
      "v": 85
    },
    {
      "midi": 42,
      "hit": false,
      "t": 66330.77950000059,
      "d": 319.43214583332883,
      "v": 85
    },
    {
      "midi": 57,
      "hit": false,
      "t": 66330.77950000059,
      "d": 319.43214583332883,
      "v": 66
    },
    {
      "midi": 66,
      "hit": false,
      "t": 66330.77950000059,
      "d": 319.43214583332883,
      "v": 85
    },
    {
      "midi": 49,
      "hit": false,
      "t": 66330.77950000059,
      "d": 326.37632291666523,
      "v": 85
    },
    {
      "midi": 47,
      "hit": false,
      "t": 66664.10000000059,
      "d": 652.7526458333305,
      "v": 85
    },
    {
      "midi": 57,
      "hit": false,
      "t": 66664.10000000059,
      "d": 652.7526458333305,
      "v": 71
    },
    {
      "midi": 59,
      "hit": false,
      "t": 66664.10000000059,
      "d": 652.7526458333305,
      "v": 85
    },
    {
      "midi": 68,
      "hit": false,
      "t": 66664.10000000059,
      "d": 652.7526458333305,
      "v": 85
    },
    {
      "midi": 59,
      "hit": false,
      "t": 69330.66400000059,
      "d": 319.43214583332883,
      "v": 85
    },
    {
      "midi": 40,
      "hit": false,
      "t": 69330.66400000059,
      "d": 326.37632291666523,
      "v": 64
    },
    {
      "midi": 47,
      "hit": false,
      "t": 69330.66400000059,
      "d": 326.37632291666523,
      "v": 65
    },
    {
      "midi": 56,
      "hit": false,
      "t": 69330.66400000059,
      "d": 326.37632291666523,
      "v": 67
    },
    {
      "midi": 40,
      "hit": false,
      "t": 69663.98450000059,
      "d": 326.37632291666523,
      "v": 54
    },
    {
      "midi": 47,
      "hit": false,
      "t": 69663.98450000059,
      "d": 326.37632291666523,
      "v": 65
    },
    {
      "midi": 56,
      "hit": false,
      "t": 69663.98450000059,
      "d": 326.37632291666523,
      "v": 62
    },
    {
      "midi": 59,
      "hit": false,
      "t": 69663.98450000059,
      "d": 326.37632291666523,
      "v": 66
    },
    {
      "midi": 59,
      "hit": false,
      "t": 69997.30500000059,
      "d": 319.43214583332883,
      "v": 93
    },
    {
      "midi": 40,
      "hit": false,
      "t": 69997.30500000059,
      "d": 326.37632291666523,
      "v": 85
    },
    {
      "midi": 47,
      "hit": false,
      "t": 69997.30500000059,
      "d": 326.37632291666523,
      "v": 85
    },
    {
      "midi": 56,
      "hit": false,
      "t": 69997.30500000059,
      "d": 326.37632291666523,
      "v": 92
    },
    {
      "midi": 47,
      "hit": false,
      "t": 70330.62550000059,
      "d": 319.43214583332883,
      "v": 70
    },
    {
      "midi": 59,
      "hit": false,
      "t": 70330.62550000059,
      "d": 319.43214583332883,
      "v": 74
    },
    {
      "midi": 40,
      "hit": false,
      "t": 70330.62550000059,
      "d": 326.37632291666523,
      "v": 67
    },
    {
      "midi": 56,
      "hit": false,
      "t": 70330.62550000059,
      "d": 326.37632291666523,
      "v": 62
    },
    {
      "midi": 51,
      "hit": false,
      "t": 70663.9460000006,
      "d": 319.43214583332883,
      "v": 68
    },
    {
      "midi": 59,
      "hit": false,
      "t": 70663.9460000006,
      "d": 319.43214583332883,
      "v": 69
    },
    {
      "midi": 44,
      "hit": false,
      "t": 70663.9460000006,
      "d": 326.37632291666523,
      "v": 60
    },
    {
      "midi": 56,
      "hit": false,
      "t": 70663.9460000006,
      "d": 326.37632291666523,
      "v": 67
    },
    {
      "midi": 51,
      "hit": false,
      "t": 70997.2665000006,
      "d": 319.43214583332883,
      "v": 69
    },
    {
      "midi": 59,
      "hit": false,
      "t": 70997.2665000006,
      "d": 319.43214583332883,
      "v": 67
    },
    {
      "midi": 44,
      "hit": false,
      "t": 70997.2665000006,
      "d": 326.37632291666523,
      "v": 64
    },
    {
      "midi": 56,
      "hit": false,
      "t": 70997.2665000006,
      "d": 326.37632291666523,
      "v": 62
    },
    {
      "midi": 51,
      "hit": false,
      "t": 71330.5870000006,
      "d": 319.43214583332883,
      "v": 85
    },
    {
      "midi": 56,
      "hit": false,
      "t": 71330.5870000006,
      "d": 319.43214583332883,
      "v": 92
    },
    {
      "midi": 59,
      "hit": false,
      "t": 71330.5870000006,
      "d": 319.43214583332883,
      "v": 93
    },
    {
      "midi": 44,
      "hit": false,
      "t": 71330.5870000006,
      "d": 326.37632291666523,
      "v": 85
    },
    {
      "midi": 44,
      "hit": false,
      "t": 71663.9075000006,
      "d": 319.43214583332883,
      "v": 78
    },
    {
      "midi": 51,
      "hit": false,
      "t": 71663.9075000006,
      "d": 319.43214583332883,
      "v": 70
    },
    {
      "midi": 56,
      "hit": false,
      "t": 71663.9075000006,
      "d": 319.43214583332883,
      "v": 85
    },
    {
      "midi": 59,
      "hit": false,
      "t": 71663.9075000006,
      "d": 319.43214583332883,
      "v": 85
    },
    {
      "midi": 56,
      "hit": false,
      "t": 71997.2280000006,
      "d": 319.43214583332883,
      "v": 79
    },
    {
      "midi": 44,
      "hit": false,
      "t": 71997.2280000006,
      "d": 326.37632291666523,
      "v": 79
    },
    {
      "midi": 49,
      "hit": false,
      "t": 71997.2280000006,
      "d": 326.37632291666523,
      "v": 85
    },
    {
      "midi": 61,
      "hit": false,
      "t": 71997.2280000006,
      "d": 326.37632291666523,
      "v": 85
    },
    {
      "midi": 56,
      "hit": false,
      "t": 72330.5485000006,
      "d": 319.43214583332883,
      "v": 72
    },
    {
      "midi": 44,
      "hit": false,
      "t": 72330.5485000006,
      "d": 326.37632291666523,
      "v": 62
    },
    {
      "midi": 49,
      "hit": false,
      "t": 72330.5485000006,
      "d": 326.37632291666523,
      "v": 71
    },
    {
      "midi": 61,
      "hit": false,
      "t": 72330.5485000006,
      "d": 326.37632291666523,
      "v": 85
    },
    {
      "midi": 44,
      "hit": false,
      "t": 72663.8690000006,
      "d": 326.37632291666523,
      "v": 85
    },
    {
      "midi": 49,
      "hit": false,
      "t": 72663.8690000006,
      "d": 326.37632291666523,
      "v": 85
    },
    {
      "midi": 56,
      "hit": false,
      "t": 72663.8690000006,
      "d": 326.37632291666523,
      "v": 89
    },
    {
      "midi": 61,
      "hit": false,
      "t": 72663.8690000006,
      "d": 326.37632291666523,
      "v": 85
    },
    {
      "midi": 44,
      "hit": false,
      "t": 72997.1895000006,
      "d": 326.37632291666523,
      "v": 79
    },
    {
      "midi": 49,
      "hit": false,
      "t": 72997.1895000006,
      "d": 326.37632291666523,
      "v": 85
    },
    {
      "midi": 56,
      "hit": false,
      "t": 72997.1895000006,
      "d": 326.37632291666523,
      "v": 85
    },
    {
      "midi": 61,
      "hit": false,
      "t": 72997.1895000006,
      "d": 326.37632291666523,
      "v": 85
    },
    {
      "midi": 44,
      "hit": false,
      "t": 73330.5100000006,
      "d": 326.37632291666523,
      "v": 62
    },
    {
      "midi": 52,
      "hit": false,
      "t": 73330.5100000006,
      "d": 326.37632291666523,
      "v": 74
    },
    {
      "midi": 56,
      "hit": false,
      "t": 73330.5100000006,
      "d": 326.37632291666523,
      "v": 71
    },
    {
      "midi": 59,
      "hit": false,
      "t": 73330.5100000006,
      "d": 326.37632291666523,
      "v": 76
    },
    {
      "midi": 59,
      "hit": false,
      "t": 73663.83050000061,
      "d": 319.43214583332883,
      "v": 74
    },
    {
      "midi": 44,
      "hit": false,
      "t": 73663.83050000061,
      "d": 326.37632291666523,
      "v": 55
    },
    {
      "midi": 52,
      "hit": false,
      "t": 73663.83050000061,
      "d": 326.37632291666523,
      "v": 59
    },
    {
      "midi": 56,
      "hit": false,
      "t": 73663.83050000061,
      "d": 326.37632291666523,
      "v": 62
    },
    {
      "midi": 44,
      "hit": false,
      "t": 73997.15100000061,
      "d": 326.37632291666523,
      "v": 85
    },
    {
      "midi": 52,
      "hit": false,
      "t": 73997.15100000061,
      "d": 326.37632291666523,
      "v": 85
    },
    {
      "midi": 59,
      "hit": false,
      "t": 73997.15100000061,
      "d": 326.37632291666523,
      "v": 98
    },
    {
      "midi": 56,
      "hit": false,
      "t": 73997.15100000061,
      "d": 333.32050000000163,
      "v": 98
    },
    {
      "midi": 59,
      "hit": false,
      "t": 74330.47150000061,
      "d": 319.43214583332883,
      "v": 81
    },
    {
      "midi": 44,
      "hit": false,
      "t": 74330.47150000061,
      "d": 326.37632291666523,
      "v": 67
    },
    {
      "midi": 52,
      "hit": false,
      "t": 74330.47150000061,
      "d": 326.37632291666523,
      "v": 65
    },
    {
      "midi": 56,
      "hit": false,
      "t": 74330.47150000061,
      "d": 326.37632291666523,
      "v": 62
    },
    {
      "midi": 55,
      "hit": false,
      "t": 74663.79200000061,
      "d": 319.43214583332883,
      "v": 61
    },
    {
      "midi": 58,
      "hit": false,
      "t": 74663.79200000061,
      "d": 319.43214583332883,
      "v": 85
    },
    {
      "midi": 46,
      "hit": false,
      "t": 74663.79200000061,
      "d": 326.37632291666523,
      "v": 65
    },
    {
      "midi": 49,
      "hit": false,
      "t": 74663.79200000061,
      "d": 326.37632291666523,
      "v": 85
    },
    {
      "midi": 46,
      "hit": false,
      "t": 74997.11250000061,
      "d": 326.37632291666523,
      "v": 65
    },
    {
      "midi": 49,
      "hit": false,
      "t": 74997.11250000061,
      "d": 326.37632291666523,
      "v": 81
    },
    {
      "midi": 55,
      "hit": false,
      "t": 74997.11250000061,
      "d": 326.37632291666523,
      "v": 55
    },
    {
      "midi": 58,
      "hit": false,
      "t": 74997.11250000061,
      "d": 326.37632291666523,
      "v": 85
    },
    {
      "midi": 46,
      "hit": false,
      "t": 75330.43300000062,
      "d": 326.37632291666523,
      "v": 85
    },
    {
      "midi": 49,
      "hit": false,
      "t": 75330.43300000062,
      "d": 326.37632291666523,
      "v": 85
    },
    {
      "midi": 55,
      "hit": false,
      "t": 75330.43300000062,
      "d": 326.37632291666523,
      "v": 78
    },
    {
      "midi": 58,
      "hit": false,
      "t": 75330.43300000062,
      "d": 326.37632291666523,
      "v": 85
    },
    {
      "midi": 55,
      "hit": false,
      "t": 75663.75350000062,
      "d": 319.43214583332883,
      "v": 61
    },
    {
      "midi": 46,
      "hit": false,
      "t": 75663.75350000062,
      "d": 326.37632291666523,
      "v": 65
    },
    {
      "midi": 49,
      "hit": false,
      "t": 75663.75350000062,
      "d": 326.37632291666523,
      "v": 81
    },
    {
      "midi": 58,
      "hit": false,
      "t": 75663.75350000062,
      "d": 326.37632291666523,
      "v": 85
    },
    {
      "midi": 45,
      "hit": false,
      "t": 75997.07400000062,
      "d": 319.43214583332883,
      "v": 50
    },
    {
      "midi": 52,
      "hit": false,
      "t": 75997.07400000062,
      "d": 319.43214583332883,
      "v": 85
    },
    {
      "midi": 57,
      "hit": false,
      "t": 75997.07400000062,
      "d": 319.43214583332883,
      "v": 52
    },
    {
      "midi": 60,
      "hit": false,
      "t": 75997.07400000062,
      "d": 319.43214583332883,
      "v": 61
    },
    {
      "midi": 45,
      "hit": false,
      "t": 76330.39450000062,
      "d": 319.43214583332883,
      "v": 59
    },
    {
      "midi": 52,
      "hit": false,
      "t": 76330.39450000062,
      "d": 319.43214583332883,
      "v": 85
    },
    {
      "midi": 57,
      "hit": false,
      "t": 76330.39450000062,
      "d": 326.37632291666523,
      "v": 52
    },
    {
      "midi": 60,
      "hit": false,
      "t": 76330.39450000062,
      "d": 326.37632291666523,
      "v": 61
    },
    {
      "midi": 45,
      "hit": false,
      "t": 76663.71500000062,
      "d": 319.43214583332883,
      "v": 72
    },
    {
      "midi": 57,
      "hit": false,
      "t": 76663.71500000062,
      "d": 319.43214583332883,
      "v": 104
    },
    {
      "midi": 52,
      "hit": false,
      "t": 76663.71500000062,
      "d": 326.37632291666523,
      "v": 85
    },
    {
      "midi": 60,
      "hit": false,
      "t": 76663.71500000062,
      "d": 326.37632291666523,
      "v": 107
    },
    {
      "midi": 45,
      "hit": false,
      "t": 76997.03550000062,
      "d": 326.37632291666523,
      "v": 56
    },
    {
      "midi": 57,
      "hit": false,
      "t": 76997.03550000062,
      "d": 326.37632291666523,
      "v": 62
    },
    {
      "midi": 52,
      "hit": false,
      "t": 76997.03550000062,
      "d": 333.32050000000163,
      "v": 85
    },
    {
      "midi": 60,
      "hit": false,
      "t": 76997.03550000062,
      "d": 333.32050000000163,
      "v": 64
    },
    {
      "midi": 52,
      "hit": false,
      "t": 77330.35600000063,
      "d": 319.43214583332883,
      "v": 78
    },
    {
      "midi": 59,
      "hit": false,
      "t": 77330.35600000063,
      "d": 319.43214583332883,
      "v": 85
    },
    {
      "midi": 44,
      "hit": false,
      "t": 77330.35600000063,
      "d": 326.37632291666523,
      "v": 69
    },
    {
      "midi": 56,
      "hit": false,
      "t": 77330.35600000063,
      "d": 326.37632291666523,
      "v": 70
    },
    {
      "midi": 59,
      "hit": false,
      "t": 77663.67650000063,
      "d": 319.43214583332883,
      "v": 72
    },
    {
      "midi": 44,
      "hit": false,
      "t": 77663.67650000063,
      "d": 326.37632291666523,
      "v": 69
    },
    {
      "midi": 52,
      "hit": false,
      "t": 77663.67650000063,
      "d": 326.37632291666523,
      "v": 72
    },
    {
      "midi": 56,
      "hit": false,
      "t": 77663.67650000063,
      "d": 326.37632291666523,
      "v": 59
    },
    {
      "midi": 59,
      "hit": false,
      "t": 77996.99700000063,
      "d": 319.43214583332883,
      "v": 92
    },
    {
      "midi": 44,
      "hit": false,
      "t": 77996.99700000063,
      "d": 326.37632291666523,
      "v": 85
    },
    {
      "midi": 52,
      "hit": false,
      "t": 77996.99700000063,
      "d": 326.37632291666523,
      "v": 85
    },
    {
      "midi": 56,
      "hit": false,
      "t": 77996.99700000063,
      "d": 326.37632291666523,
      "v": 95
    },
    {
      "midi": 52,
      "hit": false,
      "t": 78330.31750000063,
      "d": 319.43214583332883,
      "v": 65
    },
    {
      "midi": 44,
      "hit": false,
      "t": 78330.31750000063,
      "d": 326.37632291666523,
      "v": 60
    },
    {
      "midi": 56,
      "hit": false,
      "t": 78330.31750000063,
      "d": 326.37632291666523,
      "v": 62
    },
    {
      "midi": 59,
      "hit": false,
      "t": 78330.31750000063,
      "d": 326.37632291666523,
      "v": 78
    },
    {
      "midi": 59,
      "hit": false,
      "t": 78663.63800000063,
      "d": 319.43214583332883,
      "v": 79
    },
    {
      "midi": 44,
      "hit": false,
      "t": 78663.63800000063,
      "d": 326.37632291666523,
      "v": 62
    },
    {
      "midi": 52,
      "hit": false,
      "t": 78663.63800000063,
      "d": 326.37632291666523,
      "v": 72
    },
    {
      "midi": 56,
      "hit": false,
      "t": 78663.63800000063,
      "d": 326.37632291666523,
      "v": 76
    },
    {
      "midi": 52,
      "hit": false,
      "t": 78996.95850000063,
      "d": 319.43214583332883,
      "v": 74
    },
    {
      "midi": 59,
      "hit": false,
      "t": 78996.95850000063,
      "d": 319.43214583332883,
      "v": 85
    },
    {
      "midi": 44,
      "hit": false,
      "t": 78996.95850000063,
      "d": 326.37632291666523,
      "v": 77
    },
    {
      "midi": 56,
      "hit": false,
      "t": 78996.95850000063,
      "d": 326.37632291666523,
      "v": 78
    },
    {
      "midi": 52,
      "hit": false,
      "t": 79330.27900000064,
      "d": 319.43214583332883,
      "v": 85
    },
    {
      "midi": 56,
      "hit": false,
      "t": 79330.27900000064,
      "d": 319.43214583332883,
      "v": 97
    },
    {
      "midi": 44,
      "hit": false,
      "t": 79330.27900000064,
      "d": 326.37632291666523,
      "v": 85
    },
    {
      "midi": 59,
      "hit": false,
      "t": 79330.27900000064,
      "d": 326.37632291666523,
      "v": 95
    },
    {
      "midi": 56,
      "hit": false,
      "t": 79663.59950000064,
      "d": 319.43214583332883,
      "v": 85
    },
    {
      "midi": 59,
      "hit": false,
      "t": 79663.59950000064,
      "d": 319.43214583332883,
      "v": 85
    },
    {
      "midi": 44,
      "hit": false,
      "t": 79663.59950000064,
      "d": 326.37632291666523,
      "v": 79
    },
    {
      "midi": 52,
      "hit": false,
      "t": 79663.59950000064,
      "d": 326.37632291666523,
      "v": 85
    },
    {
      "midi": 44,
      "hit": false,
      "t": 79996.92000000064,
      "d": 319.43214583332883,
      "v": 71
    },
    {
      "midi": 52,
      "hit": false,
      "t": 79996.92000000064,
      "d": 326.37632291666523,
      "v": 69
    },
    {
      "midi": 56,
      "hit": false,
      "t": 79996.92000000064,
      "d": 326.37632291666523,
      "v": 74
    },
    {
      "midi": 59,
      "hit": false,
      "t": 79996.92000000064,
      "d": 326.37632291666523,
      "v": 76
    },
    {
      "midi": 59,
      "hit": false,
      "t": 80330.24050000064,
      "d": 319.43214583332883,
      "v": 85
    },
    {
      "midi": 44,
      "hit": false,
      "t": 80330.24050000064,
      "d": 326.37632291666523,
      "v": 66
    },
    {
      "midi": 52,
      "hit": false,
      "t": 80330.24050000064,
      "d": 326.37632291666523,
      "v": 74
    },
    {
      "midi": 56,
      "hit": false,
      "t": 80330.24050000064,
      "d": 326.37632291666523,
      "v": 72
    },
    {
      "midi": 52,
      "hit": false,
      "t": 80663.56100000064,
      "d": 319.43214583332883,
      "v": 85
    },
    {
      "midi": 44,
      "hit": false,
      "t": 80663.56100000064,
      "d": 326.37632291666523,
      "v": 85
    },
    {
      "midi": 56,
      "hit": false,
      "t": 80663.56100000064,
      "d": 326.37632291666523,
      "v": 89
    },
    {
      "midi": 59,
      "hit": false,
      "t": 80663.56100000064,
      "d": 326.37632291666523,
      "v": 91
    },
    {
      "midi": 44,
      "hit": false,
      "t": 80996.88150000064,
      "d": 319.43214583332883,
      "v": 85
    },
    {
      "midi": 52,
      "hit": false,
      "t": 80996.88150000064,
      "d": 319.43214583332883,
      "v": 85
    },
    {
      "midi": 56,
      "hit": false,
      "t": 80996.88150000064,
      "d": 319.43214583332883,
      "v": 85
    },
    {
      "midi": 59,
      "hit": false,
      "t": 80996.88150000064,
      "d": 319.43214583332883,
      "v": 85
    },
    {
      "midi": 44,
      "hit": false,
      "t": 81330.20200000065,
      "d": 319.43214583332883,
      "v": 81
    },
    {
      "midi": 51,
      "hit": false,
      "t": 81330.20200000065,
      "d": 319.43214583332883,
      "v": 85
    },
    {
      "midi": 59,
      "hit": false,
      "t": 81330.20200000065,
      "d": 319.43214583332883,
      "v": 74
    },
    {
      "midi": 56,
      "hit": false,
      "t": 81330.20200000065,
      "d": 326.37632291666523,
      "v": 81
    },
    {
      "midi": 44,
      "hit": false,
      "t": 81663.52250000065,
      "d": 319.43214583332883,
      "v": 64
    },
    {
      "midi": 51,
      "hit": false,
      "t": 81663.52250000065,
      "d": 319.43214583332883,
      "v": 71
    },
    {
      "midi": 56,
      "hit": false,
      "t": 81663.52250000065,
      "d": 319.43214583332883,
      "v": 69
    },
    {
      "midi": 59,
      "hit": false,
      "t": 81663.52250000065,
      "d": 319.43214583332883,
      "v": 72
    },
    {
      "midi": 44,
      "hit": false,
      "t": 81996.84300000065,
      "d": 319.43214583332883,
      "v": 85
    },
    {
      "midi": 51,
      "hit": false,
      "t": 81996.84300000065,
      "d": 319.43214583332883,
      "v": 85
    },
    {
      "midi": 56,
      "hit": false,
      "t": 81996.84300000065,
      "d": 319.43214583332883,
      "v": 91
    },
    {
      "midi": 59,
      "hit": false,
      "t": 81996.84300000065,
      "d": 319.43214583332883,
      "v": 91
    },
    {
      "midi": 44,
      "hit": false,
      "t": 82330.16350000065,
      "d": 326.37632291666523,
      "v": 81
    },
    {
      "midi": 51,
      "hit": false,
      "t": 82330.16350000065,
      "d": 326.37632291666523,
      "v": 81
    },
    {
      "midi": 56,
      "hit": false,
      "t": 82330.16350000065,
      "d": 326.37632291666523,
      "v": 85
    },
    {
      "midi": 59,
      "hit": false,
      "t": 82330.16350000065,
      "d": 326.37632291666523,
      "v": 81
    },
    {
      "midi": 56,
      "hit": false,
      "t": 82663.48400000065,
      "d": 319.43214583332883,
      "v": 84
    },
    {
      "midi": 44,
      "hit": false,
      "t": 82663.48400000065,
      "d": 326.37632291666523,
      "v": 69
    },
    {
      "midi": 52,
      "hit": false,
      "t": 82663.48400000065,
      "d": 326.37632291666523,
      "v": 81
    },
    {
      "midi": 61,
      "hit": false,
      "t": 82663.48400000065,
      "d": 326.37632291666523,
      "v": 85
    },
    {
      "midi": 44,
      "hit": false,
      "t": 82996.80450000065,
      "d": 319.43214583332883,
      "v": 69
    },
    {
      "midi": 52,
      "hit": false,
      "t": 82996.80450000065,
      "d": 319.43214583332883,
      "v": 79
    },
    {
      "midi": 61,
      "hit": false,
      "t": 82996.80450000065,
      "d": 319.43214583332883,
      "v": 81
    },
    {
      "midi": 56,
      "hit": false,
      "t": 82996.80450000065,
      "d": 326.37632291666523,
      "v": 68
    },
    {
      "midi": 44,
      "hit": false,
      "t": 83330.12500000065,
      "d": 319.43214583332883,
      "v": 85
    },
    {
      "midi": 52,
      "hit": false,
      "t": 83330.12500000065,
      "d": 319.43214583332883,
      "v": 85
    },
    {
      "midi": 61,
      "hit": false,
      "t": 83330.12500000065,
      "d": 319.43214583332883,
      "v": 86
    },
    {
      "midi": 56,
      "hit": false,
      "t": 83330.12500000065,
      "d": 326.37632291666523,
      "v": 88
    },
    {
      "midi": 44,
      "hit": false,
      "t": 83663.44550000066,
      "d": 326.37632291666523,
      "v": 85
    },
    {
      "midi": 52,
      "hit": false,
      "t": 83663.44550000066,
      "d": 326.37632291666523,
      "v": 79
    },
    {
      "midi": 56,
      "hit": false,
      "t": 83663.44550000066,
      "d": 326.37632291666523,
      "v": 85
    },
    {
      "midi": 61,
      "hit": false,
      "t": 83663.44550000066,
      "d": 326.37632291666523,
      "v": 85
    },
    {
      "midi": 44,
      "hit": false,
      "t": 83996.76600000066,
      "d": 326.37632291666523,
      "v": 74
    },
    {
      "midi": 52,
      "hit": false,
      "t": 83996.76600000066,
      "d": 326.37632291666523,
      "v": 70
    },
    {
      "midi": 56,
      "hit": false,
      "t": 83996.76600000066,
      "d": 326.37632291666523,
      "v": 72
    },
    {
      "midi": 59,
      "hit": false,
      "t": 83996.76600000066,
      "d": 326.37632291666523,
      "v": 85
    },
    {
      "midi": 44,
      "hit": false,
      "t": 84330.08650000066,
      "d": 319.43214583332883,
      "v": 70
    },
    {
      "midi": 52,
      "hit": false,
      "t": 84330.08650000066,
      "d": 319.43214583332883,
      "v": 77
    },
    {
      "midi": 56,
      "hit": false,
      "t": 84330.08650000066,
      "d": 319.43214583332883,
      "v": 74
    },
    {
      "midi": 59,
      "hit": false,
      "t": 84330.08650000066,
      "d": 319.43214583332883,
      "v": 74
    },
    {
      "midi": 44,
      "hit": false,
      "t": 84663.40700000066,
      "d": 319.43214583332883,
      "v": 85
    },
    {
      "midi": 52,
      "hit": false,
      "t": 84663.40700000066,
      "d": 319.43214583332883,
      "v": 85
    },
    {
      "midi": 56,
      "hit": false,
      "t": 84663.40700000066,
      "d": 319.43214583332883,
      "v": 88
    },
    {
      "midi": 59,
      "hit": false,
      "t": 84663.40700000066,
      "d": 319.43214583332883,
      "v": 89
    },
    {
      "midi": 44,
      "hit": false,
      "t": 84996.72750000066,
      "d": 319.43214583332883,
      "v": 65
    },
    {
      "midi": 52,
      "hit": false,
      "t": 84996.72750000066,
      "d": 319.43214583332883,
      "v": 67
    },
    {
      "midi": 56,
      "hit": false,
      "t": 84996.72750000066,
      "d": 319.43214583332883,
      "v": 81
    },
    {
      "midi": 59,
      "hit": false,
      "t": 84996.72750000066,
      "d": 319.43214583332883,
      "v": 85
    },
    {
      "midi": 58,
      "hit": false,
      "t": 85330.04800000066,
      "d": 319.43214583332883,
      "v": 85
    },
    {
      "midi": 46,
      "hit": false,
      "t": 85330.04800000066,
      "d": 326.37632291666523,
      "v": 68
    },
    {
      "midi": 49,
      "hit": false,
      "t": 85330.04800000066,
      "d": 326.37632291666523,
      "v": 85
    },
    {
      "midi": 55,
      "hit": false,
      "t": 85330.04800000066,
      "d": 326.37632291666523,
      "v": 62
    },
    {
      "midi": 46,
      "hit": false,
      "t": 85663.36850000067,
      "d": 319.43214583332883,
      "v": 64
    },
    {
      "midi": 49,
      "hit": false,
      "t": 85663.36850000067,
      "d": 319.43214583332883,
      "v": 85
    },
    {
      "midi": 55,
      "hit": false,
      "t": 85663.36850000067,
      "d": 319.43214583332883,
      "v": 60
    },
    {
      "midi": 58,
      "hit": false,
      "t": 85663.36850000067,
      "d": 319.43214583332883,
      "v": 85
    },
    {
      "midi": 46,
      "hit": false,
      "t": 85996.68900000067,
      "d": 319.43214583332883,
      "v": 85
    },
    {
      "midi": 49,
      "hit": false,
      "t": 85996.68900000067,
      "d": 319.43214583332883,
      "v": 85
    },
    {
      "midi": 55,
      "hit": false,
      "t": 85996.68900000067,
      "d": 319.43214583332883,
      "v": 81
    },
    {
      "midi": 58,
      "hit": false,
      "t": 85996.68900000067,
      "d": 319.43214583332883,
      "v": 85
    },
    {
      "midi": 46,
      "hit": false,
      "t": 86330.00950000067,
      "d": 319.43214583332883,
      "v": 78
    },
    {
      "midi": 49,
      "hit": false,
      "t": 86330.00950000067,
      "d": 319.43214583332883,
      "v": 85
    },
    {
      "midi": 55,
      "hit": false,
      "t": 86330.00950000067,
      "d": 319.43214583332883,
      "v": 68
    },
    {
      "midi": 58,
      "hit": false,
      "t": 86330.00950000067,
      "d": 319.43214583332883,
      "v": 85
    },
    {
      "midi": 57,
      "hit": false,
      "t": 86663.33000000067,
      "d": 319.43214583332883,
      "v": 68
    },
    {
      "midi": 61,
      "hit": false,
      "t": 86663.33000000067,
      "d": 319.43214583332883,
      "v": 85
    },
    {
      "midi": 45,
      "hit": false,
      "t": 86663.33000000067,
      "d": 326.37632291666523,
      "v": 56
    },
    {
      "midi": 52,
      "hit": false,
      "t": 86663.33000000067,
      "d": 326.37632291666523,
      "v": 85
    },
    {
      "midi": 45,
      "hit": false,
      "t": 86996.65050000067,
      "d": 319.43214583332883,
      "v": 60
    },
    {
      "midi": 52,
      "hit": false,
      "t": 86996.65050000067,
      "d": 319.43214583332883,
      "v": 85
    },
    {
      "midi": 57,
      "hit": false,
      "t": 86996.65050000067,
      "d": 319.43214583332883,
      "v": 67
    },
    {
      "midi": 61,
      "hit": false,
      "t": 86996.65050000067,
      "d": 319.43214583332883,
      "v": 85
    },
    {
      "midi": 45,
      "hit": false,
      "t": 87329.97100000067,
      "d": 319.43214583332883,
      "v": 76
    },
    {
      "midi": 52,
      "hit": false,
      "t": 87329.97100000067,
      "d": 319.43214583332883,
      "v": 85
    },
    {
      "midi": 57,
      "hit": false,
      "t": 87329.97100000067,
      "d": 319.43214583332883,
      "v": 107
    },
    {
      "midi": 61,
      "hit": false,
      "t": 87329.97100000067,
      "d": 319.43214583332883,
      "v": 93
    },
    {
      "midi": 45,
      "hit": false,
      "t": 87663.29150000068,
      "d": 319.43214583332883,
      "v": 61
    },
    {
      "midi": 52,
      "hit": false,
      "t": 87663.29150000068,
      "d": 319.43214583332883,
      "v": 85
    },
    {
      "midi": 57,
      "hit": false,
      "t": 87663.29150000068,
      "d": 319.43214583332883,
      "v": 64
    },
    {
      "midi": 61,
      "hit": false,
      "t": 87663.29150000068,
      "d": 319.43214583332883,
      "v": 85
    },
    {
      "midi": 59,
      "hit": false,
      "t": 87996.61200000068,
      "d": 319.43214583332883,
      "v": 85
    },
    {
      "midi": 44,
      "hit": false,
      "t": 87996.61200000068,
      "d": 326.37632291666523,
      "v": 74
    },
    {
      "midi": 52,
      "hit": false,
      "t": 87996.61200000068,
      "d": 326.37632291666523,
      "v": 74
    },
    {
      "midi": 56,
      "hit": false,
      "t": 87996.61200000068,
      "d": 326.37632291666523,
      "v": 74
    },
    {
      "midi": 44,
      "hit": false,
      "t": 88329.93250000068,
      "d": 319.43214583332883,
      "v": 71
    },
    {
      "midi": 52,
      "hit": false,
      "t": 88329.93250000068,
      "d": 319.43214583332883,
      "v": 76
    },
    {
      "midi": 56,
      "hit": false,
      "t": 88329.93250000068,
      "d": 319.43214583332883,
      "v": 72
    },
    {
      "midi": 59,
      "hit": false,
      "t": 88329.93250000068,
      "d": 319.43214583332883,
      "v": 76
    },
    {
      "midi": 44,
      "hit": false,
      "t": 88663.25300000068,
      "d": 319.43214583332883,
      "v": 85
    },
    {
      "midi": 52,
      "hit": false,
      "t": 88663.25300000068,
      "d": 319.43214583332883,
      "v": 85
    },
    {
      "midi": 56,
      "hit": false,
      "t": 88663.25300000068,
      "d": 319.43214583332883,
      "v": 93
    },
    {
      "midi": 59,
      "hit": false,
      "t": 88663.25300000068,
      "d": 319.43214583332883,
      "v": 89
    },
    {
      "midi": 44,
      "hit": false,
      "t": 88996.57350000068,
      "d": 319.43214583332883,
      "v": 85
    },
    {
      "midi": 52,
      "hit": false,
      "t": 88996.57350000068,
      "d": 319.43214583332883,
      "v": 85
    },
    {
      "midi": 56,
      "hit": false,
      "t": 88996.57350000068,
      "d": 319.43214583332883,
      "v": 85
    },
    {
      "midi": 59,
      "hit": false,
      "t": 88996.57350000068,
      "d": 319.43214583332883,
      "v": 85
    },
    {
      "midi": 56,
      "hit": false,
      "t": 89329.89400000068,
      "d": 319.43214583332883,
      "v": 72
    },
    {
      "midi": 59,
      "hit": false,
      "t": 89329.89400000068,
      "d": 319.43214583332883,
      "v": 81
    },
    {
      "midi": 44,
      "hit": false,
      "t": 89329.89400000068,
      "d": 326.37632291666523,
      "v": 74
    },
    {
      "midi": 52,
      "hit": false,
      "t": 89329.89400000068,
      "d": 326.37632291666523,
      "v": 85
    },
    {
      "midi": 52,
      "hit": false,
      "t": 89663.21450000069,
      "d": 326.37632291666523,
      "v": 78
    },
    {
      "midi": 56,
      "hit": false,
      "t": 89663.21450000069,
      "d": 326.37632291666523,
      "v": 85
    },
    {
      "midi": 59,
      "hit": false,
      "t": 89663.21450000069,
      "d": 326.37632291666523,
      "v": 79
    },
    {
      "midi": 44,
      "hit": false,
      "t": 89663.21450000069,
      "d": 333.32050000000163,
      "v": 81
    },
    {
      "midi": 56,
      "hit": false,
      "t": 89996.53500000069,
      "d": 319.43214583332883,
      "v": 91
    },
    {
      "midi": 59,
      "hit": false,
      "t": 89996.53500000069,
      "d": 319.43214583332883,
      "v": 91
    },
    {
      "midi": 44,
      "hit": false,
      "t": 89996.53500000069,
      "d": 326.37632291666523,
      "v": 85
    },
    {
      "midi": 52,
      "hit": false,
      "t": 89996.53500000069,
      "d": 326.37632291666523,
      "v": 85
    },
    {
      "midi": 52,
      "hit": false,
      "t": 90329.85550000069,
      "d": 319.43214583332883,
      "v": 77
    },
    {
      "midi": 59,
      "hit": false,
      "t": 90329.85550000069,
      "d": 319.43214583332883,
      "v": 77
    },
    {
      "midi": 44,
      "hit": false,
      "t": 90329.85550000069,
      "d": 326.37632291666523,
      "v": 66
    },
    {
      "midi": 56,
      "hit": false,
      "t": 90329.85550000069,
      "d": 326.37632291666523,
      "v": 69
    },
    {
      "midi": 44,
      "hit": false,
      "t": 90663.17600000069,
      "d": 319.43214583332883,
      "v": 85
    },
    {
      "midi": 52,
      "hit": false,
      "t": 90663.17600000069,
      "d": 319.43214583332883,
      "v": 81
    },
    {
      "midi": 56,
      "hit": false,
      "t": 90663.17600000069,
      "d": 326.37632291666523,
      "v": 78
    },
    {
      "midi": 59,
      "hit": false,
      "t": 90663.17600000069,
      "d": 326.37632291666523,
      "v": 78
    },
    {
      "midi": 44,
      "hit": false,
      "t": 90996.49650000069,
      "d": 319.43214583332883,
      "v": 79
    },
    {
      "midi": 52,
      "hit": false,
      "t": 90996.49650000069,
      "d": 319.43214583332883,
      "v": 85
    },
    {
      "midi": 56,
      "hit": false,
      "t": 90996.49650000069,
      "d": 319.43214583332883,
      "v": 85
    },
    {
      "midi": 59,
      "hit": false,
      "t": 90996.49650000069,
      "d": 319.43214583332883,
      "v": 77
    },
    {
      "midi": 44,
      "hit": false,
      "t": 91329.8170000007,
      "d": 319.43214583332883,
      "v": 85
    },
    {
      "midi": 52,
      "hit": false,
      "t": 91329.8170000007,
      "d": 319.43214583332883,
      "v": 85
    },
    {
      "midi": 56,
      "hit": false,
      "t": 91329.8170000007,
      "d": 319.43214583332883,
      "v": 93
    },
    {
      "midi": 59,
      "hit": false,
      "t": 91329.8170000007,
      "d": 326.37632291666523,
      "v": 92
    },
    {
      "midi": 44,
      "hit": false,
      "t": 91663.1375000007,
      "d": 319.43214583332883,
      "v": 85
    },
    {
      "midi": 52,
      "hit": false,
      "t": 91663.1375000007,
      "d": 319.43214583332883,
      "v": 85
    },
    {
      "midi": 56,
      "hit": false,
      "t": 91663.1375000007,
      "d": 319.43214583332883,
      "v": 85
    },
    {
      "midi": 59,
      "hit": false,
      "t": 91663.1375000007,
      "d": 319.43214583332883,
      "v": 85
    },
    {
      "midi": 51,
      "hit": false,
      "t": 91996.4580000007,
      "d": 326.37632291666523,
      "v": 85
    },
    {
      "midi": 56,
      "hit": false,
      "t": 91996.4580000007,
      "d": 326.37632291666523,
      "v": 85
    },
    {
      "midi": 59,
      "hit": false,
      "t": 91996.4580000007,
      "d": 326.37632291666523,
      "v": 85
    },
    {
      "midi": 44,
      "hit": false,
      "t": 91996.4580000007,
      "d": 333.32050000000163,
      "v": 85
    },
    {
      "midi": 44,
      "hit": false,
      "t": 92329.7785000007,
      "d": 319.43214583332883,
      "v": 72
    },
    {
      "midi": 51,
      "hit": false,
      "t": 92329.7785000007,
      "d": 319.43214583332883,
      "v": 74
    },
    {
      "midi": 56,
      "hit": false,
      "t": 92329.7785000007,
      "d": 319.43214583332883,
      "v": 71
    },
    {
      "midi": 59,
      "hit": false,
      "t": 92329.7785000007,
      "d": 319.43214583332883,
      "v": 77
    },
    {
      "midi": 44,
      "hit": false,
      "t": 92663.0990000007,
      "d": 319.43214583332883,
      "v": 85
    },
    {
      "midi": 51,
      "hit": false,
      "t": 92663.0990000007,
      "d": 319.43214583332883,
      "v": 85
    },
    {
      "midi": 56,
      "hit": false,
      "t": 92663.0990000007,
      "d": 319.43214583332883,
      "v": 93
    },
    {
      "midi": 59,
      "hit": false,
      "t": 92663.0990000007,
      "d": 319.43214583332883,
      "v": 92
    },
    {
      "midi": 44,
      "hit": false,
      "t": 92996.4195000007,
      "d": 326.37632291666523,
      "v": 77
    },
    {
      "midi": 51,
      "hit": false,
      "t": 92996.4195000007,
      "d": 326.37632291666523,
      "v": 85
    },
    {
      "midi": 56,
      "hit": false,
      "t": 92996.4195000007,
      "d": 326.37632291666523,
      "v": 85
    },
    {
      "midi": 59,
      "hit": false,
      "t": 92996.4195000007,
      "d": 326.37632291666523,
      "v": 85
    },
    {
      "midi": 44,
      "hit": false,
      "t": 93329.7400000007,
      "d": 326.37632291666523,
      "v": 81
    },
    {
      "midi": 52,
      "hit": false,
      "t": 93329.7400000007,
      "d": 326.37632291666523,
      "v": 85
    },
    {
      "midi": 56,
      "hit": false,
      "t": 93329.7400000007,
      "d": 326.37632291666523,
      "v": 85
    },
    {
      "midi": 61,
      "hit": false,
      "t": 93329.7400000007,
      "d": 326.37632291666523,
      "v": 85
    },
    {
      "midi": 44,
      "hit": false,
      "t": 93663.0605000007,
      "d": 319.43214583332883,
      "v": 78
    },
    {
      "midi": 52,
      "hit": false,
      "t": 93663.0605000007,
      "d": 319.43214583332883,
      "v": 79
    },
    {
      "midi": 56,
      "hit": false,
      "t": 93663.0605000007,
      "d": 319.43214583332883,
      "v": 79
    },
    {
      "midi": 61,
      "hit": false,
      "t": 93663.0605000007,
      "d": 319.43214583332883,
      "v": 85
    },
    {
      "midi": 44,
      "hit": false,
      "t": 93996.3810000007,
      "d": 319.43214583332883,
      "v": 85
    },
    {
      "midi": 52,
      "hit": false,
      "t": 93996.3810000007,
      "d": 319.43214583332883,
      "v": 85
    },
    {
      "midi": 56,
      "hit": false,
      "t": 93996.3810000007,
      "d": 319.43214583332883,
      "v": 86
    },
    {
      "midi": 61,
      "hit": false,
      "t": 93996.3810000007,
      "d": 319.43214583332883,
      "v": 86
    },
    {
      "midi": 44,
      "hit": false,
      "t": 94329.70150000071,
      "d": 319.43214583332883,
      "v": 85
    },
    {
      "midi": 52,
      "hit": false,
      "t": 94329.70150000071,
      "d": 319.43214583332883,
      "v": 81
    },
    {
      "midi": 56,
      "hit": false,
      "t": 94329.70150000071,
      "d": 319.43214583332883,
      "v": 85
    },
    {
      "midi": 61,
      "hit": false,
      "t": 94329.70150000071,
      "d": 319.43214583332883,
      "v": 85
    },
    {
      "midi": 44,
      "hit": false,
      "t": 94663.02200000071,
      "d": 319.43214583332883,
      "v": 79
    },
    {
      "midi": 52,
      "hit": false,
      "t": 94663.02200000071,
      "d": 326.37632291666523,
      "v": 74
    },
    {
      "midi": 56,
      "hit": false,
      "t": 94663.02200000071,
      "d": 326.37632291666523,
      "v": 69
    },
    {
      "midi": 59,
      "hit": false,
      "t": 94663.02200000071,
      "d": 326.37632291666523,
      "v": 85
    },
    {
      "midi": 44,
      "hit": false,
      "t": 94996.34250000071,
      "d": 319.43214583332883,
      "v": 72
    },
    {
      "midi": 52,
      "hit": false,
      "t": 94996.34250000071,
      "d": 319.43214583332883,
      "v": 74
    },
    {
      "midi": 56,
      "hit": false,
      "t": 94996.34250000071,
      "d": 319.43214583332883,
      "v": 67
    },
    {
      "midi": 59,
      "hit": false,
      "t": 94996.34250000071,
      "d": 319.43214583332883,
      "v": 81
    },
    {
      "midi": 44,
      "hit": false,
      "t": 95329.66300000071,
      "d": 319.43214583332883,
      "v": 85
    },
    {
      "midi": 52,
      "hit": false,
      "t": 95329.66300000071,
      "d": 319.43214583332883,
      "v": 85
    },
    {
      "midi": 56,
      "hit": false,
      "t": 95329.66300000071,
      "d": 319.43214583332883,
      "v": 89
    },
    {
      "midi": 59,
      "hit": false,
      "t": 95329.66300000071,
      "d": 319.43214583332883,
      "v": 86
    },
    {
      "midi": 44,
      "hit": false,
      "t": 95662.98350000072,
      "d": 319.43214583332883,
      "v": 85
    },
    {
      "midi": 52,
      "hit": false,
      "t": 95662.98350000072,
      "d": 319.43214583332883,
      "v": 79
    },
    {
      "midi": 56,
      "hit": false,
      "t": 95662.98350000072,
      "d": 319.43214583332883,
      "v": 85
    },
    {
      "midi": 59,
      "hit": false,
      "t": 95662.98350000072,
      "d": 319.43214583332883,
      "v": 85
    },
    {
      "midi": 58,
      "hit": false,
      "t": 95996.30400000072,
      "d": 319.43214583332883,
      "v": 85
    },
    {
      "midi": 46,
      "hit": false,
      "t": 95996.30400000072,
      "d": 326.37632291666523,
      "v": 81
    },
    {
      "midi": 52,
      "hit": false,
      "t": 95996.30400000072,
      "d": 326.37632291666523,
      "v": 85
    },
    {
      "midi": 55,
      "hit": false,
      "t": 95996.30400000072,
      "d": 326.37632291666523,
      "v": 66
    },
    {
      "midi": 46,
      "hit": false,
      "t": 96329.62450000072,
      "d": 319.43214583332883,
      "v": 66
    },
    {
      "midi": 52,
      "hit": false,
      "t": 96329.62450000072,
      "d": 319.43214583332883,
      "v": 77
    },
    {
      "midi": 55,
      "hit": false,
      "t": 96329.62450000072,
      "d": 319.43214583332883,
      "v": 54
    },
    {
      "midi": 58,
      "hit": false,
      "t": 96329.62450000072,
      "d": 319.43214583332883,
      "v": 79
    },
    {
      "midi": 46,
      "hit": false,
      "t": 96662.94500000072,
      "d": 319.43214583332883,
      "v": 85
    },
    {
      "midi": 52,
      "hit": false,
      "t": 96662.94500000072,
      "d": 319.43214583332883,
      "v": 85
    },
    {
      "midi": 55,
      "hit": false,
      "t": 96662.94500000072,
      "d": 319.43214583332883,
      "v": 85
    },
    {
      "midi": 58,
      "hit": false,
      "t": 96662.94500000072,
      "d": 319.43214583332883,
      "v": 85
    },
    {
      "midi": 46,
      "hit": false,
      "t": 96996.26550000072,
      "d": 319.43214583332883,
      "v": 79
    },
    {
      "midi": 52,
      "hit": false,
      "t": 96996.26550000072,
      "d": 319.43214583332883,
      "v": 85
    },
    {
      "midi": 55,
      "hit": false,
      "t": 96996.26550000072,
      "d": 319.43214583332883,
      "v": 56
    },
    {
      "midi": 58,
      "hit": false,
      "t": 96996.26550000072,
      "d": 319.43214583332883,
      "v": 85
    },
    {
      "midi": 52,
      "hit": false,
      "t": 97329.58600000072,
      "d": 319.43214583332883,
      "v": 85
    },
    {
      "midi": 61,
      "hit": false,
      "t": 97329.58600000072,
      "d": 319.43214583332883,
      "v": 85
    },
    {
      "midi": 45,
      "hit": false,
      "t": 97329.58600000072,
      "d": 326.37632291666523,
      "v": 60
    },
    {
      "midi": 57,
      "hit": false,
      "t": 97329.58600000072,
      "d": 326.37632291666523,
      "v": 64
    },
    {
      "midi": 45,
      "hit": false,
      "t": 97662.90650000072,
      "d": 319.43214583332883,
      "v": 59
    },
    {
      "midi": 52,
      "hit": false,
      "t": 97662.90650000072,
      "d": 319.43214583332883,
      "v": 85
    },
    {
      "midi": 57,
      "hit": false,
      "t": 97662.90650000072,
      "d": 319.43214583332883,
      "v": 60
    },
    {
      "midi": 61,
      "hit": false,
      "t": 97662.90650000072,
      "d": 319.43214583332883,
      "v": 77
    },
    {
      "midi": 45,
      "hit": false,
      "t": 97996.22700000073,
      "d": 319.43214583332883,
      "v": 74
    },
    {
      "midi": 52,
      "hit": false,
      "t": 97996.22700000073,
      "d": 319.43214583332883,
      "v": 85
    },
    {
      "midi": 57,
      "hit": false,
      "t": 97996.22700000073,
      "d": 319.43214583332883,
      "v": 91
    },
    {
      "midi": 61,
      "hit": false,
      "t": 97996.22700000073,
      "d": 326.37632291666523,
      "v": 86
    },
    {
      "midi": 45,
      "hit": false,
      "t": 98329.54750000073,
      "d": 319.43214583332883,
      "v": 62
    },
    {
      "midi": 52,
      "hit": false,
      "t": 98329.54750000073,
      "d": 319.43214583332883,
      "v": 85
    },
    {
      "midi": 57,
      "hit": false,
      "t": 98329.54750000073,
      "d": 319.43214583332883,
      "v": 56
    },
    {
      "midi": 61,
      "hit": false,
      "t": 98329.54750000073,
      "d": 326.37632291666523,
      "v": 85
    },
    {
      "midi": 59,
      "hit": false,
      "t": 98662.86800000073,
      "d": 326.37632291666523,
      "v": 81
    },
    {
      "midi": 44,
      "hit": false,
      "t": 98662.86800000073,
      "d": 333.32050000000163,
      "v": 79
    },
    {
      "midi": 51,
      "hit": false,
      "t": 98662.86800000073,
      "d": 333.32050000000163,
      "v": 69
    },
    {
      "midi": 56,
      "hit": false,
      "t": 98662.86800000073,
      "d": 333.32050000000163,
      "v": 68
    },
    {
      "midi": 51,
      "hit": false,
      "t": 98996.18850000073,
      "d": 319.43214583332883,
      "v": 74
    },
    {
      "midi": 56,
      "hit": false,
      "t": 98996.18850000073,
      "d": 319.43214583332883,
      "v": 85
    },
    {
      "midi": 59,
      "hit": false,
      "t": 98996.18850000073,
      "d": 319.43214583332883,
      "v": 79
    },
    {
      "midi": 44,
      "hit": false,
      "t": 98996.18850000073,
      "d": 326.37632291666523,
      "v": 76
    },
    {
      "midi": 44,
      "hit": false,
      "t": 99329.50900000073,
      "d": 319.43214583332883,
      "v": 85
    },
    {
      "midi": 51,
      "hit": false,
      "t": 99329.50900000073,
      "d": 319.43214583332883,
      "v": 85
    },
    {
      "midi": 59,
      "hit": false,
      "t": 99329.50900000073,
      "d": 319.43214583332883,
      "v": 89
    },
    {
      "midi": 56,
      "hit": false,
      "t": 99329.50900000073,
      "d": 326.37632291666523,
      "v": 89
    },
    {
      "midi": 44,
      "hit": false,
      "t": 99662.82950000073,
      "d": 319.43214583332883,
      "v": 74
    },
    {
      "midi": 51,
      "hit": false,
      "t": 99662.82950000073,
      "d": 319.43214583332883,
      "v": 72
    },
    {
      "midi": 56,
      "hit": false,
      "t": 99662.82950000073,
      "d": 319.43214583332883,
      "v": 79
    },
    {
      "midi": 59,
      "hit": false,
      "t": 99662.82950000073,
      "d": 326.37632291666523,
      "v": 79
    },
    {
      "midi": 51,
      "hit": false,
      "t": 99996.15000000074,
      "d": 319.43214583332883,
      "v": 78
    },
    {
      "midi": 56,
      "hit": false,
      "t": 99996.15000000074,
      "d": 319.43214583332883,
      "v": 85
    },
    {
      "midi": 59,
      "hit": false,
      "t": 99996.15000000074,
      "d": 319.43214583332883,
      "v": 85
    },
    {
      "midi": 44,
      "hit": false,
      "t": 99996.15000000074,
      "d": 326.37632291666523,
      "v": 78
    },
    {
      "midi": 44,
      "hit": false,
      "t": 100329.47050000074,
      "d": 319.43214583332883,
      "v": 85
    },
    {
      "midi": 51,
      "hit": false,
      "t": 100329.47050000074,
      "d": 319.43214583332883,
      "v": 81
    },
    {
      "midi": 59,
      "hit": false,
      "t": 100329.47050000074,
      "d": 319.43214583332883,
      "v": 84
    },
    {
      "midi": 56,
      "hit": false,
      "t": 100329.47050000074,
      "d": 326.37632291666523,
      "v": 77
    },
    {
      "midi": 44,
      "hit": false,
      "t": 100662.79100000074,
      "d": 319.43214583332883,
      "v": 85
    },
    {
      "midi": 56,
      "hit": false,
      "t": 100662.79100000074,
      "d": 319.43214583332883,
      "v": 93
    },
    {
      "midi": 59,
      "hit": false,
      "t": 100662.79100000074,
      "d": 319.43214583332883,
      "v": 91
    },
    {
      "midi": 51,
      "hit": false,
      "t": 100662.79100000074,
      "d": 326.37632291666523,
      "v": 85
    },
    {
      "midi": 51,
      "hit": false,
      "t": 100996.11150000074,
      "d": 319.43214583332883,
      "v": 76
    },
    {
      "midi": 56,
      "hit": false,
      "t": 100996.11150000074,
      "d": 319.43214583332883,
      "v": 85
    },
    {
      "midi": 59,
      "hit": false,
      "t": 100996.11150000074,
      "d": 319.43214583332883,
      "v": 85
    },
    {
      "midi": 44,
      "hit": false,
      "t": 100996.11150000074,
      "d": 326.37632291666523,
      "v": 78
    },
    {
      "midi": 44,
      "hit": false,
      "t": 101329.43200000074,
      "d": 319.43214583332883,
      "v": 85
    },
    {
      "midi": 51,
      "hit": false,
      "t": 101329.43200000074,
      "d": 319.43214583332883,
      "v": 85
    },
    {
      "midi": 56,
      "hit": false,
      "t": 101329.43200000074,
      "d": 319.43214583332883,
      "v": 85
    },
    {
      "midi": 59,
      "hit": false,
      "t": 101329.43200000074,
      "d": 319.43214583332883,
      "v": 85
    },
    {
      "midi": 44,
      "hit": false,
      "t": 101662.75250000074,
      "d": 319.43214583332883,
      "v": 85
    },
    {
      "midi": 51,
      "hit": false,
      "t": 101662.75250000074,
      "d": 319.43214583332883,
      "v": 85
    },
    {
      "midi": 59,
      "hit": false,
      "t": 101662.75250000074,
      "d": 319.43214583332883,
      "v": 85
    },
    {
      "midi": 56,
      "hit": false,
      "t": 101662.75250000074,
      "d": 326.37632291666523,
      "v": 85
    },
    {
      "midi": 44,
      "hit": false,
      "t": 101996.07300000075,
      "d": 319.43214583332883,
      "v": 85
    },
    {
      "midi": 51,
      "hit": false,
      "t": 101996.07300000075,
      "d": 319.43214583332883,
      "v": 85
    },
    {
      "midi": 56,
      "hit": false,
      "t": 101996.07300000075,
      "d": 319.43214583332883,
      "v": 86
    },
    {
      "midi": 59,
      "hit": false,
      "t": 101996.07300000075,
      "d": 319.43214583332883,
      "v": 85
    },
    {
      "midi": 44,
      "hit": false,
      "t": 102329.39350000075,
      "d": 319.43214583332883,
      "v": 85
    },
    {
      "midi": 51,
      "hit": false,
      "t": 102329.39350000075,
      "d": 319.43214583332883,
      "v": 85
    },
    {
      "midi": 56,
      "hit": false,
      "t": 102329.39350000075,
      "d": 319.43214583332883,
      "v": 89
    },
    {
      "midi": 59,
      "hit": false,
      "t": 102329.39350000075,
      "d": 319.43214583332883,
      "v": 86
    },
    {
      "midi": 44,
      "hit": false,
      "t": 102662.71400000075,
      "d": 319.43214583332883,
      "v": 85
    },
    {
      "midi": 51,
      "hit": false,
      "t": 102662.71400000075,
      "d": 319.43214583332883,
      "v": 85
    },
    {
      "midi": 56,
      "hit": false,
      "t": 102662.71400000075,
      "d": 319.43214583332883,
      "v": 88
    },
    {
      "midi": 59,
      "hit": false,
      "t": 102662.71400000075,
      "d": 319.43214583332883,
      "v": 85
    },
    {
      "midi": 44,
      "hit": false,
      "t": 102996.03450000075,
      "d": 319.43214583332883,
      "v": 85
    },
    {
      "midi": 51,
      "hit": false,
      "t": 102996.03450000075,
      "d": 319.43214583332883,
      "v": 85
    },
    {
      "midi": 56,
      "hit": false,
      "t": 102996.03450000075,
      "d": 319.43214583332883,
      "v": 91
    },
    {
      "midi": 59,
      "hit": false,
      "t": 102996.03450000075,
      "d": 319.43214583332883,
      "v": 89
    },
    {
      "midi": 44,
      "hit": false,
      "t": 103329.35500000075,
      "d": 319.43214583332883,
      "v": 85
    },
    {
      "midi": 56,
      "hit": false,
      "t": 103329.35500000075,
      "d": 319.43214583332883,
      "v": 85
    },
    {
      "midi": 51,
      "hit": false,
      "t": 103329.35500000075,
      "d": 326.37632291666523,
      "v": 85
    },
    {
      "midi": 59,
      "hit": false,
      "t": 103329.35500000075,
      "d": 326.37632291666523,
      "v": 85
    },
    {
      "midi": 51,
      "hit": false,
      "t": 103662.67550000075,
      "d": 319.43214583332883,
      "v": 85
    },
    {
      "midi": 56,
      "hit": false,
      "t": 103662.67550000075,
      "d": 319.43214583332883,
      "v": 91
    },
    {
      "midi": 59,
      "hit": false,
      "t": 103662.67550000075,
      "d": 319.43214583332883,
      "v": 85
    },
    {
      "midi": 44,
      "hit": false,
      "t": 103662.67550000075,
      "d": 326.37632291666523,
      "v": 85
    },
    {
      "midi": 52,
      "hit": false,
      "t": 103995.99600000076,
      "d": 319.43214583332883,
      "v": 85
    },
    {
      "midi": 45,
      "hit": false,
      "t": 103995.99600000076,
      "d": 326.37632291666523,
      "v": 60
    },
    {
      "midi": 57,
      "hit": false,
      "t": 103995.99600000076,
      "d": 326.37632291666523,
      "v": 59
    },
    {
      "midi": 61,
      "hit": false,
      "t": 103995.99600000076,
      "d": 326.37632291666523,
      "v": 79
    },
    {
      "midi": 45,
      "hit": false,
      "t": 104329.31650000076,
      "d": 319.43214583332883,
      "v": 55
    },
    {
      "midi": 57,
      "hit": false,
      "t": 104329.31650000076,
      "d": 319.43214583332883,
      "v": 59
    },
    {
      "midi": 61,
      "hit": false,
      "t": 104329.31650000076,
      "d": 319.43214583332883,
      "v": 82
    },
    {
      "midi": 52,
      "hit": false,
      "t": 104329.31650000076,
      "d": 326.37632291666523,
      "v": 85
    },
    {
      "midi": 45,
      "hit": false,
      "t": 104662.63700000076,
      "d": 326.37632291666523,
      "v": 70
    },
    {
      "midi": 52,
      "hit": false,
      "t": 104662.63700000076,
      "d": 326.37632291666523,
      "v": 85
    },
    {
      "midi": 57,
      "hit": false,
      "t": 104662.63700000076,
      "d": 326.37632291666523,
      "v": 84
    },
    {
      "midi": 61,
      "hit": false,
      "t": 104662.63700000076,
      "d": 326.37632291666523,
      "v": 85
    },
    {
      "midi": 52,
      "hit": false,
      "t": 104995.95750000076,
      "d": 319.43214583332883,
      "v": 81
    },
    {
      "midi": 45,
      "hit": false,
      "t": 104995.95750000076,
      "d": 326.37632291666523,
      "v": 52
    },
    {
      "midi": 57,
      "hit": false,
      "t": 104995.95750000076,
      "d": 326.37632291666523,
      "v": 55
    },
    {
      "midi": 61,
      "hit": false,
      "t": 104995.95750000076,
      "d": 326.37632291666523,
      "v": 72
    },
    {
      "midi": 52,
      "hit": false,
      "t": 105329.27800000076,
      "d": 326.37632291666523,
      "v": 66
    },
    {
      "midi": 57,
      "hit": false,
      "t": 105329.27800000076,
      "d": 326.37632291666523,
      "v": 55
    },
    {
      "midi": 61,
      "hit": false,
      "t": 105329.27800000076,
      "d": 326.37632291666523,
      "v": 67
    },
    {
      "midi": 45,
      "hit": false,
      "t": 105329.27800000076,
      "d": 333.32050000000163,
      "v": 43
    },
    {
      "midi": 45,
      "hit": false,
      "t": 105662.59850000076,
      "d": 319.43214583332883,
      "v": 46
    },
    {
      "midi": 52,
      "hit": false,
      "t": 105662.59850000076,
      "d": 319.43214583332883,
      "v": 76
    },
    {
      "midi": 57,
      "hit": false,
      "t": 105662.59850000076,
      "d": 319.43214583332883,
      "v": 57
    },
    {
      "midi": 61,
      "hit": false,
      "t": 105662.59850000076,
      "d": 319.43214583332883,
      "v": 77
    },
    {
      "midi": 45,
      "hit": false,
      "t": 105995.91900000077,
      "d": 319.43214583332883,
      "v": 72
    },
    {
      "midi": 52,
      "hit": false,
      "t": 105995.91900000077,
      "d": 319.43214583332883,
      "v": 85
    },
    {
      "midi": 57,
      "hit": false,
      "t": 105995.91900000077,
      "d": 319.43214583332883,
      "v": 84
    },
    {
      "midi": 61,
      "hit": false,
      "t": 105995.91900000077,
      "d": 319.43214583332883,
      "v": 85
    },
    {
      "midi": 45,
      "hit": false,
      "t": 106329.23950000077,
      "d": 319.43214583332883,
      "v": 53
    },
    {
      "midi": 52,
      "hit": false,
      "t": 106329.23950000077,
      "d": 319.43214583332883,
      "v": 81
    },
    {
      "midi": 61,
      "hit": false,
      "t": 106329.23950000077,
      "d": 319.43214583332883,
      "v": 79
    },
    {
      "midi": 57,
      "hit": false,
      "t": 106329.23950000077,
      "d": 326.37632291666523,
      "v": 57
    },
    {
      "midi": 52,
      "hit": false,
      "t": 106662.56000000077,
      "d": 319.43214583332883,
      "v": 79
    },
    {
      "midi": 59,
      "hit": false,
      "t": 106662.56000000077,
      "d": 319.43214583332883,
      "v": 79
    },
    {
      "midi": 44,
      "hit": false,
      "t": 106662.56000000077,
      "d": 326.37632291666523,
      "v": 66
    },
    {
      "midi": 56,
      "hit": false,
      "t": 106662.56000000077,
      "d": 326.37632291666523,
      "v": 71
    },
    {
      "midi": 44,
      "hit": false,
      "t": 106995.88050000077,
      "d": 319.43214583332883,
      "v": 66
    },
    {
      "midi": 52,
      "hit": false,
      "t": 106995.88050000077,
      "d": 319.43214583332883,
      "v": 72
    },
    {
      "midi": 56,
      "hit": false,
      "t": 106995.88050000077,
      "d": 319.43214583332883,
      "v": 67
    },
    {
      "midi": 59,
      "hit": false,
      "t": 106995.88050000077,
      "d": 319.43214583332883,
      "v": 81
    },
    {
      "midi": 59,
      "hit": false,
      "t": 107329.20100000077,
      "d": 312.487968750007,
      "v": 85
    },
    {
      "midi": 44,
      "hit": false,
      "t": 107329.20100000077,
      "d": 319.4321458333434,
      "v": 85
    },
    {
      "midi": 52,
      "hit": false,
      "t": 107329.20100000077,
      "d": 319.4321458333434,
      "v": 85
    },
    {
      "midi": 56,
      "hit": false,
      "t": 107329.20100000077,
      "d": 319.4321458333434,
      "v": 88
    },
    {
      "midi": 44,
      "hit": false,
      "t": 107662.52150000079,
      "d": 319.43214583332883,
      "v": 74
    },
    {
      "midi": 52,
      "hit": false,
      "t": 107662.52150000079,
      "d": 319.43214583332883,
      "v": 85
    },
    {
      "midi": 56,
      "hit": false,
      "t": 107662.52150000079,
      "d": 319.43214583332883,
      "v": 85
    },
    {
      "midi": 59,
      "hit": false,
      "t": 107662.52150000079,
      "d": 319.43214583332883,
      "v": 85
    },
    {
      "midi": 44,
      "hit": false,
      "t": 107995.84200000079,
      "d": 319.43214583332883,
      "v": 74
    },
    {
      "midi": 52,
      "hit": false,
      "t": 107995.84200000079,
      "d": 319.43214583332883,
      "v": 85
    },
    {
      "midi": 56,
      "hit": false,
      "t": 107995.84200000079,
      "d": 319.43214583332883,
      "v": 85
    },
    {
      "midi": 62,
      "hit": false,
      "t": 107995.84200000079,
      "d": 319.43214583332883,
      "v": 61
    },
    {
      "midi": 44,
      "hit": false,
      "t": 108329.16250000079,
      "d": 319.43214583332883,
      "v": 62
    },
    {
      "midi": 52,
      "hit": false,
      "t": 108329.16250000079,
      "d": 319.43214583332883,
      "v": 68
    },
    {
      "midi": 56,
      "hit": false,
      "t": 108329.16250000079,
      "d": 319.43214583332883,
      "v": 69
    },
    {
      "midi": 62,
      "hit": false,
      "t": 108329.16250000079,
      "d": 319.43214583332883,
      "v": 59
    },
    {
      "midi": 44,
      "hit": false,
      "t": 108662.4830000008,
      "d": 319.43214583332883,
      "v": 85
    },
    {
      "midi": 52,
      "hit": false,
      "t": 108662.4830000008,
      "d": 319.43214583332883,
      "v": 85
    },
    {
      "midi": 56,
      "hit": false,
      "t": 108662.4830000008,
      "d": 319.43214583332883,
      "v": 89
    },
    {
      "midi": 62,
      "hit": false,
      "t": 108662.4830000008,
      "d": 319.43214583332883,
      "v": 93
    },
    {
      "midi": 44,
      "hit": false,
      "t": 108995.8035000008,
      "d": 319.43214583332883,
      "v": 70
    },
    {
      "midi": 52,
      "hit": false,
      "t": 108995.8035000008,
      "d": 319.43214583332883,
      "v": 74
    },
    {
      "midi": 56,
      "hit": false,
      "t": 108995.8035000008,
      "d": 319.43214583332883,
      "v": 85
    },
    {
      "midi": 62,
      "hit": false,
      "t": 108995.8035000008,
      "d": 319.43214583332883,
      "v": 62
    },
    {
      "midi": 45,
      "hit": false,
      "t": 109329.1240000008,
      "d": 319.43214583332883,
      "v": 52
    },
    {
      "midi": 52,
      "hit": false,
      "t": 109329.1240000008,
      "d": 319.43214583332883,
      "v": 85
    },
    {
      "midi": 57,
      "hit": false,
      "t": 109329.1240000008,
      "d": 326.37632291666523,
      "v": 57
    },
    {
      "midi": 61,
      "hit": false,
      "t": 109329.1240000008,
      "d": 326.37632291666523,
      "v": 85
    },
    {
      "midi": 52,
      "hit": false,
      "t": 109662.4445000008,
      "d": 319.43214583332883,
      "v": 85
    },
    {
      "midi": 61,
      "hit": false,
      "t": 109662.4445000008,
      "d": 319.43214583332883,
      "v": 77
    },
    {
      "midi": 45,
      "hit": false,
      "t": 109662.4445000008,
      "d": 326.37632291666523,
      "v": 62
    },
    {
      "midi": 57,
      "hit": false,
      "t": 109662.4445000008,
      "d": 326.37632291666523,
      "v": 56
    },
    {
      "midi": 45,
      "hit": false,
      "t": 109995.7650000008,
      "d": 319.43214583332883,
      "v": 71
    },
    {
      "midi": 52,
      "hit": false,
      "t": 109995.7650000008,
      "d": 319.43214583332883,
      "v": 85
    },
    {
      "midi": 57,
      "hit": false,
      "t": 109995.7650000008,
      "d": 326.37632291666523,
      "v": 81
    },
    {
      "midi": 61,
      "hit": false,
      "t": 109995.7650000008,
      "d": 326.37632291666523,
      "v": 85
    },
    {
      "midi": 45,
      "hit": false,
      "t": 110329.0855000008,
      "d": 319.43214583332883,
      "v": 49
    },
    {
      "midi": 52,
      "hit": false,
      "t": 110329.0855000008,
      "d": 319.43214583332883,
      "v": 74
    },
    {
      "midi": 61,
      "hit": false,
      "t": 110329.0855000008,
      "d": 319.43214583332883,
      "v": 77
    },
    {
      "midi": 57,
      "hit": false,
      "t": 110329.0855000008,
      "d": 326.37632291666523,
      "v": 53
    },
    {
      "midi": 45,
      "hit": false,
      "t": 110662.4060000008,
      "d": 319.43214583332883,
      "v": 49
    },
    {
      "midi": 57,
      "hit": false,
      "t": 110662.4060000008,
      "d": 319.43214583332883,
      "v": 52
    },
    {
      "midi": 61,
      "hit": false,
      "t": 110662.4060000008,
      "d": 319.43214583332883,
      "v": 78
    },
    {
      "midi": 52,
      "hit": false,
      "t": 110662.4060000008,
      "d": 326.37632291666523,
      "v": 66
    },
    {
      "midi": 52,
      "hit": false,
      "t": 110995.7265000008,
      "d": 319.43214583332883,
      "v": 76
    },
    {
      "midi": 57,
      "hit": false,
      "t": 110995.7265000008,
      "d": 319.43214583332883,
      "v": 52
    },
    {
      "midi": 61,
      "hit": false,
      "t": 110995.7265000008,
      "d": 319.43214583332883,
      "v": 69
    },
    {
      "midi": 45,
      "hit": false,
      "t": 110995.7265000008,
      "d": 326.37632291666523,
      "v": 54
    },
    {
      "midi": 45,
      "hit": false,
      "t": 111329.0470000008,
      "d": 319.43214583332883,
      "v": 72
    },
    {
      "midi": 52,
      "hit": false,
      "t": 111329.0470000008,
      "d": 319.43214583332883,
      "v": 85
    },
    {
      "midi": 57,
      "hit": false,
      "t": 111329.0470000008,
      "d": 319.43214583332883,
      "v": 86
    },
    {
      "midi": 61,
      "hit": false,
      "t": 111329.0470000008,
      "d": 319.43214583332883,
      "v": 85
    },
    {
      "midi": 45,
      "hit": false,
      "t": 111662.36750000081,
      "d": 319.43214583332883,
      "v": 57
    },
    {
      "midi": 57,
      "hit": false,
      "t": 111662.36750000081,
      "d": 319.43214583332883,
      "v": 60
    },
    {
      "midi": 61,
      "hit": false,
      "t": 111662.36750000081,
      "d": 319.43214583332883,
      "v": 79
    },
    {
      "midi": 52,
      "hit": false,
      "t": 111662.36750000081,
      "d": 326.37632291666523,
      "v": 85
    },
    {
      "midi": 44,
      "hit": false,
      "t": 111995.68800000081,
      "d": 319.43214583332883,
      "v": 67
    },
    {
      "midi": 56,
      "hit": false,
      "t": 111995.68800000081,
      "d": 319.43214583332883,
      "v": 62
    },
    {
      "midi": 59,
      "hit": false,
      "t": 111995.68800000081,
      "d": 319.43214583332883,
      "v": 76
    },
    {
      "midi": 52,
      "hit": false,
      "t": 111995.68800000081,
      "d": 326.37632291666523,
      "v": 64
    },
    {
      "midi": 44,
      "hit": false,
      "t": 112329.00850000081,
      "d": 319.43214583332883,
      "v": 72
    },
    {
      "midi": 52,
      "hit": false,
      "t": 112329.00850000081,
      "d": 319.43214583332883,
      "v": 71
    },
    {
      "midi": 56,
      "hit": false,
      "t": 112329.00850000081,
      "d": 319.43214583332883,
      "v": 76
    },
    {
      "midi": 59,
      "hit": false,
      "t": 112329.00850000081,
      "d": 319.43214583332883,
      "v": 78
    },
    {
      "midi": 44,
      "hit": false,
      "t": 112662.32900000081,
      "d": 319.43214583332883,
      "v": 85
    },
    {
      "midi": 52,
      "hit": false,
      "t": 112662.32900000081,
      "d": 319.43214583332883,
      "v": 85
    },
    {
      "midi": 56,
      "hit": false,
      "t": 112662.32900000081,
      "d": 319.43214583332883,
      "v": 85
    },
    {
      "midi": 59,
      "hit": false,
      "t": 112662.32900000081,
      "d": 319.43214583332883,
      "v": 85
    },
    {
      "midi": 44,
      "hit": false,
      "t": 112995.64950000081,
      "d": 319.43214583332883,
      "v": 78
    },
    {
      "midi": 52,
      "hit": false,
      "t": 112995.64950000081,
      "d": 319.43214583332883,
      "v": 85
    },
    {
      "midi": 56,
      "hit": false,
      "t": 112995.64950000081,
      "d": 319.43214583332883,
      "v": 79
    },
    {
      "midi": 59,
      "hit": false,
      "t": 112995.64950000081,
      "d": 319.43214583332883,
      "v": 85
    },
    {
      "midi": 44,
      "hit": false,
      "t": 113328.97000000082,
      "d": 319.43214583332883,
      "v": 74
    },
    {
      "midi": 56,
      "hit": false,
      "t": 113328.97000000082,
      "d": 319.43214583332883,
      "v": 71
    },
    {
      "midi": 62,
      "hit": false,
      "t": 113328.97000000082,
      "d": 319.43214583332883,
      "v": 60
    },
    {
      "midi": 52,
      "hit": false,
      "t": 113328.97000000082,
      "d": 326.37632291666523,
      "v": 72
    },
    {
      "midi": 44,
      "hit": false,
      "t": 113662.29050000082,
      "d": 319.43214583332883,
      "v": 68
    },
    {
      "midi": 52,
      "hit": false,
      "t": 113662.29050000082,
      "d": 319.43214583332883,
      "v": 62
    },
    {
      "midi": 56,
      "hit": false,
      "t": 113662.29050000082,
      "d": 326.37632291666523,
      "v": 76
    },
    {
      "midi": 62,
      "hit": false,
      "t": 113662.29050000082,
      "d": 326.37632291666523,
      "v": 56
    },
    {
      "midi": 62,
      "hit": false,
      "t": 113995.61100000082,
      "d": 312.487968750007,
      "v": 78
    },
    {
      "midi": 44,
      "hit": false,
      "t": 113995.61100000082,
      "d": 319.4321458333434,
      "v": 85
    },
    {
      "midi": 52,
      "hit": false,
      "t": 113995.61100000082,
      "d": 319.4321458333434,
      "v": 85
    },
    {
      "midi": 56,
      "hit": false,
      "t": 113995.61100000082,
      "d": 319.4321458333434,
      "v": 85
    },
    {
      "midi": 44,
      "hit": false,
      "t": 114328.93150000084,
      "d": 319.43214583332883,
      "v": 74
    },
    {
      "midi": 56,
      "hit": false,
      "t": 114328.93150000084,
      "d": 319.43214583332883,
      "v": 68
    },
    {
      "midi": 62,
      "hit": false,
      "t": 114328.93150000084,
      "d": 319.43214583332883,
      "v": 53
    },
    {
      "midi": 52,
      "hit": false,
      "t": 114328.93150000084,
      "d": 326.37632291666523,
      "v": 81
    },
    {
      "midi": 57,
      "hit": false,
      "t": 114662.25200000084,
      "d": 319.43214583332883,
      "v": 55
    },
    {
      "midi": 45,
      "hit": false,
      "t": 114662.25200000084,
      "d": 326.37632291666523,
      "v": 57
    },
    {
      "midi": 52,
      "hit": false,
      "t": 114662.25200000084,
      "d": 326.37632291666523,
      "v": 81
    },
    {
      "midi": 61,
      "hit": false,
      "t": 114662.25200000084,
      "d": 326.37632291666523,
      "v": 85
    },
    {
      "midi": 45,
      "hit": false,
      "t": 114995.57250000084,
      "d": 319.43214583332883,
      "v": 59
    },
    {
      "midi": 57,
      "hit": false,
      "t": 114995.57250000084,
      "d": 319.43214583332883,
      "v": 56
    },
    {
      "midi": 61,
      "hit": false,
      "t": 114995.57250000084,
      "d": 319.43214583332883,
      "v": 85
    },
    {
      "midi": 52,
      "hit": false,
      "t": 114995.57250000084,
      "d": 326.37632291666523,
      "v": 85
    },
    {
      "midi": 52,
      "hit": false,
      "t": 115328.89300000084,
      "d": 319.43214583332883,
      "v": 85
    },
    {
      "midi": 57,
      "hit": false,
      "t": 115328.89300000084,
      "d": 319.43214583332883,
      "v": 99
    },
    {
      "midi": 45,
      "hit": false,
      "t": 115328.89300000084,
      "d": 326.37632291666523,
      "v": 74
    },
    {
      "midi": 61,
      "hit": false,
      "t": 115328.89300000084,
      "d": 326.37632291666523,
      "v": 89
    },
    {
      "midi": 45,
      "hit": false,
      "t": 115662.21350000084,
      "d": 319.43214583332883,
      "v": 52
    },
    {
      "midi": 57,
      "hit": false,
      "t": 115662.21350000084,
      "d": 319.43214583332883,
      "v": 59
    },
    {
      "midi": 61,
      "hit": false,
      "t": 115662.21350000084,
      "d": 319.43214583332883,
      "v": 77
    },
    {
      "midi": 52,
      "hit": false,
      "t": 115662.21350000084,
      "d": 326.37632291666523,
      "v": 78
    },
    {
      "midi": 57,
      "hit": false,
      "t": 115995.53400000084,
      "d": 319.43214583332883,
      "v": 59
    },
    {
      "midi": 61,
      "hit": false,
      "t": 115995.53400000084,
      "d": 319.43214583332883,
      "v": 82
    },
    {
      "midi": 45,
      "hit": false,
      "t": 115995.53400000084,
      "d": 326.37632291666523,
      "v": 55
    },
    {
      "midi": 52,
      "hit": false,
      "t": 115995.53400000084,
      "d": 326.37632291666523,
      "v": 85
    },
    {
      "midi": 45,
      "hit": false,
      "t": 116328.85450000085,
      "d": 319.43214583332883,
      "v": 55
    },
    {
      "midi": 57,
      "hit": false,
      "t": 116328.85450000085,
      "d": 319.43214583332883,
      "v": 53
    },
    {
      "midi": 61,
      "hit": false,
      "t": 116328.85450000085,
      "d": 319.43214583332883,
      "v": 79
    },
    {
      "midi": 52,
      "hit": false,
      "t": 116328.85450000085,
      "d": 326.37632291666523,
      "v": 67
    },
    {
      "midi": 45,
      "hit": false,
      "t": 116662.17500000085,
      "d": 319.43214583332883,
      "v": 70
    },
    {
      "midi": 52,
      "hit": false,
      "t": 116662.17500000085,
      "d": 319.43214583332883,
      "v": 85
    },
    {
      "midi": 57,
      "hit": false,
      "t": 116662.17500000085,
      "d": 319.43214583332883,
      "v": 89
    },
    {
      "midi": 61,
      "hit": false,
      "t": 116662.17500000085,
      "d": 319.43214583332883,
      "v": 88
    },
    {
      "midi": 45,
      "hit": false,
      "t": 116995.49550000085,
      "d": 319.43214583332883,
      "v": 55
    },
    {
      "midi": 52,
      "hit": false,
      "t": 116995.49550000085,
      "d": 319.43214583332883,
      "v": 84
    },
    {
      "midi": 57,
      "hit": false,
      "t": 116995.49550000085,
      "d": 319.43214583332883,
      "v": 62
    },
    {
      "midi": 61,
      "hit": false,
      "t": 116995.49550000085,
      "d": 326.37632291666523,
      "v": 57
    },
    {
      "midi": 44,
      "hit": false,
      "t": 117328.81600000085,
      "d": 319.43214583332883,
      "v": 69
    },
    {
      "midi": 52,
      "hit": false,
      "t": 117328.81600000085,
      "d": 319.43214583332883,
      "v": 71
    },
    {
      "midi": 56,
      "hit": false,
      "t": 117328.81600000085,
      "d": 326.37632291666523,
      "v": 65
    },
    {
      "midi": 59,
      "hit": false,
      "t": 117328.81600000085,
      "d": 326.37632291666523,
      "v": 78
    },
    {
      "midi": 44,
      "hit": false,
      "t": 117662.13650000085,
      "d": 319.43214583332883,
      "v": 67
    },
    {
      "midi": 52,
      "hit": false,
      "t": 117662.13650000085,
      "d": 319.43214583332883,
      "v": 60
    },
    {
      "midi": 56,
      "hit": false,
      "t": 117662.13650000085,
      "d": 319.43214583332883,
      "v": 74
    },
    {
      "midi": 59,
      "hit": false,
      "t": 117662.13650000085,
      "d": 319.43214583332883,
      "v": 74
    },
    {
      "midi": 44,
      "hit": false,
      "t": 117995.45700000085,
      "d": 319.43214583332883,
      "v": 85
    },
    {
      "midi": 52,
      "hit": false,
      "t": 117995.45700000085,
      "d": 319.43214583332883,
      "v": 85
    },
    {
      "midi": 56,
      "hit": false,
      "t": 117995.45700000085,
      "d": 319.43214583332883,
      "v": 86
    },
    {
      "midi": 59,
      "hit": false,
      "t": 117995.45700000085,
      "d": 319.43214583332883,
      "v": 85
    },
    {
      "midi": 44,
      "hit": false,
      "t": 118328.77750000086,
      "d": 319.43214583332883,
      "v": 74
    },
    {
      "midi": 52,
      "hit": false,
      "t": 118328.77750000086,
      "d": 319.43214583332883,
      "v": 82
    },
    {
      "midi": 56,
      "hit": false,
      "t": 118328.77750000086,
      "d": 319.43214583332883,
      "v": 65
    },
    {
      "midi": 59,
      "hit": false,
      "t": 118328.77750000086,
      "d": 319.43214583332883,
      "v": 72
    },
    {
      "midi": 44,
      "hit": false,
      "t": 118662.09800000086,
      "d": 319.43214583332883,
      "v": 65
    },
    {
      "midi": 51,
      "hit": false,
      "t": 118662.09800000086,
      "d": 319.43214583332883,
      "v": 72
    },
    {
      "midi": 56,
      "hit": false,
      "t": 118662.09800000086,
      "d": 319.43214583332883,
      "v": 55
    },
    {
      "midi": 59,
      "hit": false,
      "t": 118662.09800000086,
      "d": 319.43214583332883,
      "v": 70
    },
    {
      "midi": 44,
      "hit": false,
      "t": 118995.41850000086,
      "d": 319.43214583332883,
      "v": 68
    },
    {
      "midi": 51,
      "hit": false,
      "t": 118995.41850000086,
      "d": 319.43214583332883,
      "v": 62
    },
    {
      "midi": 56,
      "hit": false,
      "t": 118995.41850000086,
      "d": 319.43214583332883,
      "v": 65
    },
    {
      "midi": 59,
      "hit": false,
      "t": 118995.41850000086,
      "d": 326.37632291666523,
      "v": 67
    },
    {
      "midi": 44,
      "hit": false,
      "t": 119328.73900000086,
      "d": 319.43214583332883,
      "v": 85
    },
    {
      "midi": 51,
      "hit": false,
      "t": 119328.73900000086,
      "d": 319.43214583332883,
      "v": 85
    },
    {
      "midi": 56,
      "hit": false,
      "t": 119328.73900000086,
      "d": 319.43214583332883,
      "v": 91
    },
    {
      "midi": 59,
      "hit": false,
      "t": 119328.73900000086,
      "d": 319.43214583332883,
      "v": 91
    },
    {
      "midi": 44,
      "hit": false,
      "t": 119662.05950000086,
      "d": 326.37632291666523,
      "v": 84
    },
    {
      "midi": 51,
      "hit": false,
      "t": 119662.05950000086,
      "d": 326.37632291666523,
      "v": 82
    },
    {
      "midi": 56,
      "hit": false,
      "t": 119662.05950000086,
      "d": 326.37632291666523,
      "v": 77
    },
    {
      "midi": 59,
      "hit": false,
      "t": 119662.05950000086,
      "d": 326.37632291666523,
      "v": 85
    },
    {
      "midi": 52,
      "hit": false,
      "t": 119995.38000000086,
      "d": 319.43214583332883,
      "v": 84
    },
    {
      "midi": 56,
      "hit": false,
      "t": 119995.38000000086,
      "d": 319.43214583332883,
      "v": 81
    },
    {
      "midi": 61,
      "hit": false,
      "t": 119995.38000000086,
      "d": 319.43214583332883,
      "v": 85
    },
    {
      "midi": 44,
      "hit": false,
      "t": 119995.38000000086,
      "d": 326.37632291666523,
      "v": 79
    },
    {
      "midi": 52,
      "hit": false,
      "t": 120328.70050000086,
      "d": 326.37632291666523,
      "v": 70
    },
    {
      "midi": 61,
      "hit": false,
      "t": 120328.70050000086,
      "d": 326.37632291666523,
      "v": 85
    },
    {
      "midi": 44,
      "hit": false,
      "t": 120328.70050000086,
      "d": 333.32050000000163,
      "v": 66
    },
    {
      "midi": 56,
      "hit": false,
      "t": 120328.70050000086,
      "d": 333.32050000000163,
      "v": 68
    },
    {
      "midi": 44,
      "hit": false,
      "t": 120662.02100000087,
      "d": 319.43214583332883,
      "v": 85
    },
    {
      "midi": 61,
      "hit": false,
      "t": 120662.02100000087,
      "d": 319.43214583332883,
      "v": 88
    },
    {
      "midi": 52,
      "hit": false,
      "t": 120662.02100000087,
      "d": 326.37632291666523,
      "v": 85
    },
    {
      "midi": 56,
      "hit": false,
      "t": 120662.02100000087,
      "d": 326.37632291666523,
      "v": 91
    },
    {
      "midi": 56,
      "hit": false,
      "t": 120995.34150000087,
      "d": 319.43214583332883,
      "v": 76
    },
    {
      "midi": 61,
      "hit": false,
      "t": 120995.34150000087,
      "d": 319.43214583332883,
      "v": 85
    },
    {
      "midi": 44,
      "hit": false,
      "t": 120995.34150000087,
      "d": 326.37632291666523,
      "v": 78
    },
    {
      "midi": 52,
      "hit": false,
      "t": 120995.34150000087,
      "d": 326.37632291666523,
      "v": 82
    },
    {
      "midi": 56,
      "hit": false,
      "t": 121328.66200000087,
      "d": 319.43214583332883,
      "v": 72
    },
    {
      "midi": 44,
      "hit": false,
      "t": 121328.66200000087,
      "d": 326.37632291666523,
      "v": 64
    },
    {
      "midi": 52,
      "hit": false,
      "t": 121328.66200000087,
      "d": 326.37632291666523,
      "v": 72
    },
    {
      "midi": 61,
      "hit": false,
      "t": 121328.66200000087,
      "d": 326.37632291666523,
      "v": 76
    },
    {
      "midi": 56,
      "hit": false,
      "t": 121661.98250000087,
      "d": 319.43214583332883,
      "v": 67
    },
    {
      "midi": 61,
      "hit": false,
      "t": 121661.98250000087,
      "d": 319.43214583332883,
      "v": 66
    },
    {
      "midi": 44,
      "hit": false,
      "t": 121661.98250000087,
      "d": 326.37632291666523,
      "v": 69
    },
    {
      "midi": 52,
      "hit": false,
      "t": 121661.98250000087,
      "d": 326.37632291666523,
      "v": 64
    },
    {
      "midi": 44,
      "hit": false,
      "t": 121995.30300000087,
      "d": 319.43214583332883,
      "v": 85
    },
    {
      "midi": 52,
      "hit": false,
      "t": 121995.30300000087,
      "d": 319.43214583332883,
      "v": 85
    },
    {
      "midi": 56,
      "hit": false,
      "t": 121995.30300000087,
      "d": 319.43214583332883,
      "v": 85
    },
    {
      "midi": 61,
      "hit": false,
      "t": 121995.30300000087,
      "d": 319.43214583332883,
      "v": 85
    },
    {
      "midi": 44,
      "hit": false,
      "t": 122328.62350000087,
      "d": 319.43214583332883,
      "v": 76
    },
    {
      "midi": 52,
      "hit": false,
      "t": 122328.62350000087,
      "d": 319.43214583332883,
      "v": 81
    },
    {
      "midi": 56,
      "hit": false,
      "t": 122328.62350000087,
      "d": 319.43214583332883,
      "v": 85
    },
    {
      "midi": 61,
      "hit": false,
      "t": 122328.62350000087,
      "d": 319.43214583332883,
      "v": 85
    },
    {
      "midi": 58,
      "hit": false,
      "t": 122661.94400000088,
      "d": 319.43214583332883,
      "v": 85
    },
    {
      "midi": 42,
      "hit": false,
      "t": 122661.94400000088,
      "d": 326.37632291666523,
      "v": 79
    },
    {
      "midi": 49,
      "hit": false,
      "t": 122661.94400000088,
      "d": 326.37632291666523,
      "v": 79
    },
    {
      "midi": 54,
      "hit": false,
      "t": 122661.94400000088,
      "d": 326.37632291666523,
      "v": 68
    },
    {
      "midi": 42,
      "hit": false,
      "t": 122995.26450000088,
      "d": 319.43214583332883,
      "v": 76
    },
    {
      "midi": 49,
      "hit": false,
      "t": 122995.26450000088,
      "d": 319.43214583332883,
      "v": 85
    },
    {
      "midi": 54,
      "hit": false,
      "t": 122995.26450000088,
      "d": 319.43214583332883,
      "v": 81
    },
    {
      "midi": 58,
      "hit": false,
      "t": 122995.26450000088,
      "d": 319.43214583332883,
      "v": 85
    },
    {
      "midi": 42,
      "hit": false,
      "t": 123328.58500000088,
      "d": 319.43214583332883,
      "v": 85
    },
    {
      "midi": 49,
      "hit": false,
      "t": 123328.58500000088,
      "d": 319.43214583332883,
      "v": 85
    },
    {
      "midi": 54,
      "hit": false,
      "t": 123328.58500000088,
      "d": 319.43214583332883,
      "v": 85
    },
    {
      "midi": 58,
      "hit": false,
      "t": 123328.58500000088,
      "d": 319.43214583332883,
      "v": 85
    },
    {
      "midi": 42,
      "hit": false,
      "t": 123661.90550000088,
      "d": 319.43214583332883,
      "v": 76
    },
    {
      "midi": 49,
      "hit": false,
      "t": 123661.90550000088,
      "d": 319.43214583332883,
      "v": 85
    },
    {
      "midi": 54,
      "hit": false,
      "t": 123661.90550000088,
      "d": 319.43214583332883,
      "v": 74
    },
    {
      "midi": 58,
      "hit": false,
      "t": 123661.90550000088,
      "d": 319.43214583332883,
      "v": 85
    },
    {
      "midi": 42,
      "hit": false,
      "t": 123995.22600000088,
      "d": 319.43214583332883,
      "v": 76
    },
    {
      "midi": 54,
      "hit": false,
      "t": 123995.22600000088,
      "d": 319.43214583332883,
      "v": 72
    },
    {
      "midi": 59,
      "hit": false,
      "t": 123995.22600000088,
      "d": 319.43214583332883,
      "v": 85
    },
    {
      "midi": 49,
      "hit": false,
      "t": 123995.22600000088,
      "d": 326.37632291666523,
      "v": 85
    },
    {
      "midi": 42,
      "hit": false,
      "t": 124328.54650000088,
      "d": 319.43214583332883,
      "v": 62
    },
    {
      "midi": 49,
      "hit": false,
      "t": 124328.54650000088,
      "d": 319.43214583332883,
      "v": 59
    },
    {
      "midi": 54,
      "hit": false,
      "t": 124328.54650000088,
      "d": 319.43214583332883,
      "v": 59
    },
    {
      "midi": 59,
      "hit": false,
      "t": 124328.54650000088,
      "d": 319.43214583332883,
      "v": 85
    },
    {
      "midi": 42,
      "hit": false,
      "t": 124661.86700000089,
      "d": 319.43214583332883,
      "v": 85
    },
    {
      "midi": 49,
      "hit": false,
      "t": 124661.86700000089,
      "d": 319.43214583332883,
      "v": 85
    },
    {
      "midi": 54,
      "hit": false,
      "t": 124661.86700000089,
      "d": 319.43214583332883,
      "v": 85
    },
    {
      "midi": 59,
      "hit": false,
      "t": 124661.86700000089,
      "d": 319.43214583332883,
      "v": 85
    },
    {
      "midi": 49,
      "hit": false,
      "t": 124995.18750000089,
      "d": 326.37632291666523,
      "v": 81
    },
    {
      "midi": 59,
      "hit": false,
      "t": 124995.18750000089,
      "d": 326.37632291666523,
      "v": 85
    },
    {
      "midi": 42,
      "hit": false,
      "t": 124995.18750000089,
      "d": 333.32050000000163,
      "v": 74
    },
    {
      "midi": 54,
      "hit": false,
      "t": 124995.18750000089,
      "d": 333.32050000000163,
      "v": 81
    },
    {
      "midi": 61,
      "hit": false,
      "t": 125328.50800000089,
      "d": 319.43214583332883,
      "v": 85
    },
    {
      "midi": 42,
      "hit": false,
      "t": 125328.50800000089,
      "d": 326.37632291666523,
      "v": 71
    },
    {
      "midi": 52,
      "hit": false,
      "t": 125328.50800000089,
      "d": 326.37632291666523,
      "v": 71
    },
    {
      "midi": 58,
      "hit": false,
      "t": 125328.50800000089,
      "d": 326.37632291666523,
      "v": 79
    },
    {
      "midi": 42,
      "hit": false,
      "t": 125661.82850000089,
      "d": 326.37632291666523,
      "v": 68
    },
    {
      "midi": 58,
      "hit": false,
      "t": 125661.82850000089,
      "d": 326.37632291666523,
      "v": 68
    },
    {
      "midi": 61,
      "hit": false,
      "t": 125661.82850000089,
      "d": 326.37632291666523,
      "v": 81
    },
    {
      "midi": 52,
      "hit": false,
      "t": 125661.82850000089,
      "d": 333.32050000000163,
      "v": 53
    },
    {
      "midi": 42,
      "hit": false,
      "t": 125995.14900000089,
      "d": 319.43214583332883,
      "v": 85
    },
    {
      "midi": 52,
      "hit": false,
      "t": 125995.14900000089,
      "d": 319.43214583332883,
      "v": 85
    },
    {
      "midi": 58,
      "hit": false,
      "t": 125995.14900000089,
      "d": 319.43214583332883,
      "v": 89
    },
    {
      "midi": 61,
      "hit": false,
      "t": 125995.14900000089,
      "d": 319.43214583332883,
      "v": 86
    },
    {
      "midi": 42,
      "hit": false,
      "t": 126328.4695000009,
      "d": 326.37632291666523,
      "v": 69
    },
    {
      "midi": 58,
      "hit": false,
      "t": 126328.4695000009,
      "d": 326.37632291666523,
      "v": 74
    },
    {
      "midi": 61,
      "hit": false,
      "t": 126328.4695000009,
      "d": 326.37632291666523,
      "v": 85
    },
    {
      "midi": 52,
      "hit": false,
      "t": 126328.4695000009,
      "d": 333.32050000000163,
      "v": 70
    },
    {
      "midi": 54,
      "hit": false,
      "t": 126661.7900000009,
      "d": 319.43214583332883,
      "v": 78
    },
    {
      "midi": 58,
      "hit": false,
      "t": 126661.7900000009,
      "d": 319.43214583332883,
      "v": 81
    },
    {
      "midi": 63,
      "hit": false,
      "t": 126661.7900000009,
      "d": 319.43214583332883,
      "v": 85
    },
    {
      "midi": 42,
      "hit": false,
      "t": 126661.7900000009,
      "d": 326.37632291666523,
      "v": 68
    },
    {
      "midi": 42,
      "hit": false,
      "t": 126995.1105000009,
      "d": 319.43214583332883,
      "v": 57
    },
    {
      "midi": 58,
      "hit": false,
      "t": 126995.1105000009,
      "d": 319.43214583332883,
      "v": 68
    },
    {
      "midi": 54,
      "hit": false,
      "t": 126995.1105000009,
      "d": 326.37632291666523,
      "v": 62
    },
    {
      "midi": 63,
      "hit": false,
      "t": 126995.1105000009,
      "d": 326.37632291666523,
      "v": 85
    },
    {
      "midi": 42,
      "hit": false,
      "t": 127328.4310000009,
      "d": 319.43214583332883,
      "v": 85
    },
    {
      "midi": 54,
      "hit": false,
      "t": 127328.4310000009,
      "d": 319.43214583332883,
      "v": 85
    },
    {
      "midi": 63,
      "hit": false,
      "t": 127328.4310000009,
      "d": 319.43214583332883,
      "v": 85
    },
    {
      "midi": 58,
      "hit": false,
      "t": 127328.4310000009,
      "d": 326.37632291666523,
      "v": 88
    },
    {
      "midi": 54,
      "hit": false,
      "t": 127661.7515000009,
      "d": 319.43214583332883,
      "v": 76
    },
    {
      "midi": 58,
      "hit": false,
      "t": 127661.7515000009,
      "d": 319.43214583332883,
      "v": 77
    },
    {
      "midi": 63,
      "hit": false,
      "t": 127661.7515000009,
      "d": 319.43214583332883,
      "v": 76
    },
    {
      "midi": 42,
      "hit": false,
      "t": 127661.7515000009,
      "d": 326.37632291666523,
      "v": 62
    },
    {
      "midi": 54,
      "hit": false,
      "t": 127995.0720000009,
      "d": 319.43214583332883,
      "v": 69
    },
    {
      "midi": 42,
      "hit": false,
      "t": 127995.0720000009,
      "d": 326.37632291666523,
      "v": 66
    },
    {
      "midi": 58,
      "hit": false,
      "t": 127995.0720000009,
      "d": 326.37632291666523,
      "v": 65
    },
    {
      "midi": 64,
      "hit": false,
      "t": 127995.0720000009,
      "d": 326.37632291666523,
      "v": 85
    },
    {
      "midi": 42,
      "hit": false,
      "t": 128328.3925000009,
      "d": 319.43214583332883,
      "v": 71
    },
    {
      "midi": 58,
      "hit": false,
      "t": 128328.3925000009,
      "d": 319.43214583332883,
      "v": 79
    },
    {
      "midi": 64,
      "hit": false,
      "t": 128328.3925000009,
      "d": 319.43214583332883,
      "v": 85
    },
    {
      "midi": 54,
      "hit": false,
      "t": 128328.3925000009,
      "d": 326.37632291666523,
      "v": 76
    },
    {
      "midi": 42,
      "hit": false,
      "t": 128661.7130000009,
      "d": 319.43214583332883,
      "v": 85
    },
    {
      "midi": 54,
      "hit": false,
      "t": 128661.7130000009,
      "d": 319.43214583332883,
      "v": 85
    },
    {
      "midi": 58,
      "hit": false,
      "t": 128661.7130000009,
      "d": 319.43214583332883,
      "v": 86
    },
    {
      "midi": 59,
      "hit": false,
      "t": 128661.7130000009,
      "d": 319.43214583332883,
      "v": 85
    },
    {
      "midi": 64,
      "hit": false,
      "t": 128661.7130000009,
      "d": 319.43214583332883,
      "v": 89
    },
    {
      "midi": 42,
      "hit": false,
      "t": 128995.0335000009,
      "d": 319.43214583332883,
      "v": 72
    },
    {
      "midi": 54,
      "hit": false,
      "t": 128995.0335000009,
      "d": 319.43214583332883,
      "v": 76
    },
    {
      "midi": 58,
      "hit": false,
      "t": 128995.0335000009,
      "d": 319.43214583332883,
      "v": 67
    },
    {
      "midi": 64,
      "hit": false,
      "t": 128995.0335000009,
      "d": 319.43214583332883,
      "v": 85
    },
    {
      "midi": 42,
      "hit": false,
      "t": 129328.35400000091,
      "d": 319.43214583332883,
      "v": 72
    },
    {
      "midi": 54,
      "hit": false,
      "t": 129328.35400000091,
      "d": 319.43214583332883,
      "v": 67
    },
    {
      "midi": 57,
      "hit": false,
      "t": 129328.35400000091,
      "d": 319.43214583332883,
      "v": 65
    },
    {
      "midi": 66,
      "hit": false,
      "t": 129328.35400000091,
      "d": 319.43214583332883,
      "v": 85
    },
    {
      "midi": 42,
      "hit": false,
      "t": 129661.67450000091,
      "d": 319.43214583332883,
      "v": 69
    },
    {
      "midi": 54,
      "hit": false,
      "t": 129661.67450000091,
      "d": 319.43214583332883,
      "v": 67
    },
    {
      "midi": 57,
      "hit": false,
      "t": 129661.67450000091,
      "d": 319.43214583332883,
      "v": 56
    },
    {
      "midi": 66,
      "hit": false,
      "t": 129661.67450000091,
      "d": 319.43214583332883,
      "v": 72
    },
    {
      "midi": 42,
      "hit": false,
      "t": 129994.99500000091,
      "d": 319.43214583332883,
      "v": 85
    },
    {
      "midi": 54,
      "hit": false,
      "t": 129994.99500000091,
      "d": 319.43214583332883,
      "v": 85
    },
    {
      "midi": 57,
      "hit": false,
      "t": 129994.99500000091,
      "d": 319.43214583332883,
      "v": 81
    },
    {
      "midi": 66,
      "hit": false,
      "t": 129994.99500000091,
      "d": 319.43214583332883,
      "v": 85
    },
    {
      "midi": 57,
      "hit": false,
      "t": 130328.31550000091,
      "d": 319.43214583332883,
      "v": 72
    },
    {
      "midi": 66,
      "hit": false,
      "t": 130328.31550000091,
      "d": 319.43214583332883,
      "v": 85
    },
    {
      "midi": 42,
      "hit": false,
      "t": 130328.31550000091,
      "d": 326.37632291666523,
      "v": 85
    },
    {
      "midi": 54,
      "hit": false,
      "t": 130328.31550000091,
      "d": 326.37632291666523,
      "v": 85
    },
    {
      "midi": 68,
      "hit": false,
      "t": 130661.63600000092,
      "d": 312.487968750007,
      "v": 85
    },
    {
      "midi": 47,
      "hit": false,
      "t": 130661.63600000092,
      "d": 319.4321458333434,
      "v": 85
    },
    {
      "midi": 57,
      "hit": false,
      "t": 130661.63600000092,
      "d": 319.4321458333434,
      "v": 79
    },
    {
      "midi": 59,
      "hit": false,
      "t": 130661.63600000092,
      "d": 319.4321458333434,
      "v": 85
    },
    {
      "midi": 44,
      "hit": false,
      "t": 133328.2000000009,
      "d": 319.43214583332883,
      "v": 69
    },
    {
      "midi": 56,
      "hit": false,
      "t": 133328.2000000009,
      "d": 319.43214583332883,
      "v": 72
    },
    {
      "midi": 59,
      "hit": false,
      "t": 133328.2000000009,
      "d": 319.43214583332883,
      "v": 81
    },
    {
      "midi": 52,
      "hit": false,
      "t": 133328.2000000009,
      "d": 326.3763229166507,
      "v": 64
    },
    {
      "midi": 44,
      "hit": false,
      "t": 133661.5205000009,
      "d": 319.43214583332883,
      "v": 64
    },
    {
      "midi": 59,
      "hit": false,
      "t": 133661.5205000009,
      "d": 319.43214583332883,
      "v": 69
    },
    {
      "midi": 52,
      "hit": false,
      "t": 133661.5205000009,
      "d": 326.3763229166507,
      "v": 66
    },
    {
      "midi": 56,
      "hit": false,
      "t": 133661.5205000009,
      "d": 326.3763229166507,
      "v": 61
    },
    {
      "midi": 59,
      "hit": false,
      "t": 133994.84100000086,
      "d": 319.43214583332883,
      "v": 92
    },
    {
      "midi": 44,
      "hit": false,
      "t": 133994.84100000086,
      "d": 326.3763229166507,
      "v": 85
    },
    {
      "midi": 52,
      "hit": false,
      "t": 133994.84100000086,
      "d": 326.3763229166507,
      "v": 85
    },
    {
      "midi": 56,
      "hit": false,
      "t": 133994.84100000086,
      "d": 326.3763229166507,
      "v": 95
    },
    {
      "midi": 56,
      "hit": false,
      "t": 134328.16150000083,
      "d": 319.43214583332883,
      "v": 76
    },
    {
      "midi": 59,
      "hit": false,
      "t": 134328.16150000083,
      "d": 319.43214583332883,
      "v": 76
    },
    {
      "midi": 44,
      "hit": false,
      "t": 134328.16150000083,
      "d": 326.3763229166507,
      "v": 59
    },
    {
      "midi": 52,
      "hit": false,
      "t": 134328.16150000083,
      "d": 326.3763229166507,
      "v": 81
    },
    {
      "midi": 51,
      "hit": false,
      "t": 134661.4820000008,
      "d": 319.43214583332883,
      "v": 62
    },
    {
      "midi": 44,
      "hit": false,
      "t": 134661.4820000008,
      "d": 326.3763229166507,
      "v": 61
    },
    {
      "midi": 56,
      "hit": false,
      "t": 134661.4820000008,
      "d": 326.3763229166507,
      "v": 61
    },
    {
      "midi": 59,
      "hit": false,
      "t": 134661.4820000008,
      "d": 326.3763229166507,
      "v": 66
    },
    {
      "midi": 44,
      "hit": false,
      "t": 134994.80250000078,
      "d": 319.43214583332883,
      "v": 71
    },
    {
      "midi": 59,
      "hit": false,
      "t": 134994.80250000078,
      "d": 319.43214583332883,
      "v": 81
    },
    {
      "midi": 51,
      "hit": false,
      "t": 134994.80250000078,
      "d": 326.3763229166507,
      "v": 68
    },
    {
      "midi": 56,
      "hit": false,
      "t": 134994.80250000078,
      "d": 326.3763229166507,
      "v": 69
    },
    {
      "midi": 59,
      "hit": false,
      "t": 135328.12300000075,
      "d": 326.3763229166798,
      "v": 91
    },
    {
      "midi": 44,
      "hit": false,
      "t": 135328.12300000075,
      "d": 333.32050000000163,
      "v": 85
    },
    {
      "midi": 51,
      "hit": false,
      "t": 135328.12300000075,
      "d": 333.32050000000163,
      "v": 85
    },
    {
      "midi": 56,
      "hit": false,
      "t": 135328.12300000075,
      "d": 333.32050000000163,
      "v": 93
    },
    {
      "midi": 59,
      "hit": false,
      "t": 135661.44350000075,
      "d": 326.3763229166798,
      "v": 72
    },
    {
      "midi": 44,
      "hit": false,
      "t": 135661.44350000075,
      "d": 333.32050000000163,
      "v": 52
    },
    {
      "midi": 51,
      "hit": false,
      "t": 135661.44350000075,
      "d": 333.32050000000163,
      "v": 55
    },
    {
      "midi": 56,
      "hit": false,
      "t": 135661.44350000075,
      "d": 333.32050000000163,
      "v": 72
    },
    {
      "midi": 44,
      "hit": false,
      "t": 135994.76400000075,
      "d": 319.43214583332883,
      "v": 71
    },
    {
      "midi": 61,
      "hit": false,
      "t": 135994.76400000075,
      "d": 319.43214583332883,
      "v": 84
    },
    {
      "midi": 52,
      "hit": false,
      "t": 135994.76400000075,
      "d": 326.3763229166507,
      "v": 74
    },
    {
      "midi": 56,
      "hit": false,
      "t": 135994.76400000075,
      "d": 326.3763229166507,
      "v": 72
    },
    {
      "midi": 44,
      "hit": false,
      "t": 136328.08450000072,
      "d": 326.3763229166798,
      "v": 71
    },
    {
      "midi": 52,
      "hit": false,
      "t": 136328.08450000072,
      "d": 326.3763229166798,
      "v": 56
    },
    {
      "midi": 56,
      "hit": false,
      "t": 136328.08450000072,
      "d": 326.3763229166798,
      "v": 50
    },
    {
      "midi": 61,
      "hit": false,
      "t": 136328.08450000072,
      "d": 326.3763229166798,
      "v": 61
    },
    {
      "midi": 44,
      "hit": false,
      "t": 136661.40500000073,
      "d": 326.3763229166798,
      "v": 85
    },
    {
      "midi": 52,
      "hit": false,
      "t": 136661.40500000073,
      "d": 326.3763229166798,
      "v": 85
    },
    {
      "midi": 56,
      "hit": false,
      "t": 136661.40500000073,
      "d": 326.3763229166798,
      "v": 91
    },
    {
      "midi": 61,
      "hit": false,
      "t": 136661.40500000073,
      "d": 326.3763229166798,
      "v": 85
    },
    {
      "midi": 44,
      "hit": false,
      "t": 136994.72550000073,
      "d": 326.3763229166798,
      "v": 64
    },
    {
      "midi": 52,
      "hit": false,
      "t": 136994.72550000073,
      "d": 326.3763229166798,
      "v": 66
    },
    {
      "midi": 56,
      "hit": false,
      "t": 136994.72550000073,
      "d": 326.3763229166798,
      "v": 59
    },
    {
      "midi": 61,
      "hit": false,
      "t": 136994.72550000073,
      "d": 333.32050000000163,
      "v": 79
    },
    {
      "midi": 44,
      "hit": false,
      "t": 137328.04600000073,
      "d": 326.3763229166798,
      "v": 74
    },
    {
      "midi": 52,
      "hit": false,
      "t": 137328.04600000073,
      "d": 326.3763229166798,
      "v": 64
    },
    {
      "midi": 56,
      "hit": false,
      "t": 137328.04600000073,
      "d": 326.3763229166798,
      "v": 65
    },
    {
      "midi": 61,
      "hit": false,
      "t": 137328.04600000073,
      "d": 326.3763229166798,
      "v": 71
    },
    {
      "midi": 52,
      "hit": false,
      "t": 137661.36650000073,
      "d": 319.43214583332883,
      "v": 59
    },
    {
      "midi": 44,
      "hit": false,
      "t": 137661.36650000073,
      "d": 326.3763229166507,
      "v": 53
    },
    {
      "midi": 56,
      "hit": false,
      "t": 137661.36650000073,
      "d": 326.3763229166507,
      "v": 55
    },
    {
      "midi": 61,
      "hit": false,
      "t": 137661.36650000073,
      "d": 326.3763229166507,
      "v": 64
    },
    {
      "midi": 56,
      "hit": false,
      "t": 137994.6870000007,
      "d": 319.43214583332883,
      "v": 91
    },
    {
      "midi": 44,
      "hit": false,
      "t": 137994.6870000007,
      "d": 326.3763229166507,
      "v": 85
    },
    {
      "midi": 52,
      "hit": false,
      "t": 137994.6870000007,
      "d": 326.3763229166507,
      "v": 85
    },
    {
      "midi": 61,
      "hit": false,
      "t": 137994.6870000007,
      "d": 326.3763229166507,
      "v": 89
    },
    {
      "midi": 56,
      "hit": false,
      "t": 138328.00750000068,
      "d": 319.43214583332883,
      "v": 72
    },
    {
      "midi": 44,
      "hit": false,
      "t": 138328.00750000068,
      "d": 326.3763229166507,
      "v": 69
    },
    {
      "midi": 52,
      "hit": false,
      "t": 138328.00750000068,
      "d": 326.3763229166507,
      "v": 69
    },
    {
      "midi": 61,
      "hit": false,
      "t": 138328.00750000068,
      "d": 326.3763229166507,
      "v": 81
    },
    {
      "midi": 44,
      "hit": false,
      "t": 138661.32800000065,
      "d": 319.43214583332883,
      "v": 64
    },
    {
      "midi": 52,
      "hit": false,
      "t": 138661.32800000065,
      "d": 319.43214583332883,
      "v": 77
    },
    {
      "midi": 61,
      "hit": false,
      "t": 138661.32800000065,
      "d": 319.43214583332883,
      "v": 77
    },
    {
      "midi": 56,
      "hit": false,
      "t": 138661.32800000065,
      "d": 326.3763229166507,
      "v": 57
    },
    {
      "midi": 52,
      "hit": false,
      "t": 138994.64850000062,
      "d": 319.43214583332883,
      "v": 52
    },
    {
      "midi": 61,
      "hit": false,
      "t": 138994.64850000062,
      "d": 319.43214583332883,
      "v": 69
    },
    {
      "midi": 44,
      "hit": false,
      "t": 138994.64850000062,
      "d": 326.3763229166507,
      "v": 72
    },
    {
      "midi": 56,
      "hit": false,
      "t": 138994.64850000062,
      "d": 326.3763229166507,
      "v": 52
    },
    {
      "midi": 52,
      "hit": false,
      "t": 139327.9690000006,
      "d": 319.43214583332883,
      "v": 85
    },
    {
      "midi": 61,
      "hit": false,
      "t": 139327.9690000006,
      "d": 319.43214583332883,
      "v": 85
    },
    {
      "midi": 44,
      "hit": false,
      "t": 139327.9690000006,
      "d": 326.3763229166507,
      "v": 85
    },
    {
      "midi": 56,
      "hit": false,
      "t": 139327.9690000006,
      "d": 326.3763229166507,
      "v": 81
    },
    {
      "midi": 52,
      "hit": false,
      "t": 139661.28950000057,
      "d": 326.3763229166798,
      "v": 72
    },
    {
      "midi": 61,
      "hit": false,
      "t": 139661.28950000057,
      "d": 326.3763229166798,
      "v": 77
    },
    {
      "midi": 44,
      "hit": false,
      "t": 139661.28950000057,
      "d": 333.32050000000163,
      "v": 70
    },
    {
      "midi": 56,
      "hit": false,
      "t": 139661.28950000057,
      "d": 333.32050000000163,
      "v": 55
    },
    {
      "midi": 45,
      "hit": false,
      "t": 139994.61000000057,
      "d": 319.43214583332883,
      "v": 52
    },
    {
      "midi": 52,
      "hit": false,
      "t": 139994.61000000057,
      "d": 319.43214583332883,
      "v": 81
    },
    {
      "midi": 57,
      "hit": false,
      "t": 139994.61000000057,
      "d": 319.43214583332883,
      "v": 55
    },
    {
      "midi": 61,
      "hit": false,
      "t": 139994.61000000057,
      "d": 326.3763229166507,
      "v": 65
    },
    {
      "midi": 45,
      "hit": false,
      "t": 140327.93050000054,
      "d": 319.43214583332883,
      "v": 53
    },
    {
      "midi": 57,
      "hit": false,
      "t": 140327.93050000054,
      "d": 319.43214583332883,
      "v": 57
    },
    {
      "midi": 52,
      "hit": false,
      "t": 140327.93050000054,
      "d": 326.3763229166507,
      "v": 85
    },
    {
      "midi": 61,
      "hit": false,
      "t": 140327.93050000054,
      "d": 326.3763229166507,
      "v": 65
    },
    {
      "midi": 45,
      "hit": false,
      "t": 140661.2510000005,
      "d": 333.32050000000163,
      "v": 76
    },
    {
      "midi": 52,
      "hit": false,
      "t": 140661.2510000005,
      "d": 333.32050000000163,
      "v": 85
    },
    {
      "midi": 57,
      "hit": false,
      "t": 140661.2510000005,
      "d": 333.32050000000163,
      "v": 89
    },
    {
      "midi": 61,
      "hit": false,
      "t": 140661.2510000005,
      "d": 333.32050000000163,
      "v": 97
    },
    {
      "midi": 45,
      "hit": false,
      "t": 140994.57150000051,
      "d": 326.3763229166798,
      "v": 52
    },
    {
      "midi": 52,
      "hit": false,
      "t": 140994.57150000051,
      "d": 326.3763229166798,
      "v": 76
    },
    {
      "midi": 61,
      "hit": false,
      "t": 140994.57150000051,
      "d": 326.3763229166798,
      "v": 62
    },
    {
      "midi": 57,
      "hit": false,
      "t": 140994.57150000051,
      "d": 333.32050000000163,
      "v": 59
    },
    {
      "midi": 44,
      "hit": false,
      "t": 141327.89200000052,
      "d": 326.3763229166798,
      "v": 64
    },
    {
      "midi": 59,
      "hit": false,
      "t": 141327.89200000052,
      "d": 326.3763229166798,
      "v": 74
    },
    {
      "midi": 52,
      "hit": false,
      "t": 141327.89200000052,
      "d": 333.32050000000163,
      "v": 60
    },
    {
      "midi": 56,
      "hit": false,
      "t": 141327.89200000052,
      "d": 333.32050000000163,
      "v": 68
    },
    {
      "midi": 44,
      "hit": false,
      "t": 141661.21250000052,
      "d": 326.3763229166798,
      "v": 60
    },
    {
      "midi": 52,
      "hit": false,
      "t": 141661.21250000052,
      "d": 326.3763229166798,
      "v": 72
    },
    {
      "midi": 56,
      "hit": false,
      "t": 141661.21250000052,
      "d": 326.3763229166798,
      "v": 69
    },
    {
      "midi": 59,
      "hit": false,
      "t": 141661.21250000052,
      "d": 326.3763229166798,
      "v": 69
    },
    {
      "midi": 59,
      "hit": false,
      "t": 141994.53300000052,
      "d": 326.3763229166798,
      "v": 85
    },
    {
      "midi": 44,
      "hit": false,
      "t": 141994.53300000052,
      "d": 333.32050000000163,
      "v": 85
    },
    {
      "midi": 52,
      "hit": false,
      "t": 141994.53300000052,
      "d": 333.32050000000163,
      "v": 85
    },
    {
      "midi": 56,
      "hit": false,
      "t": 141994.53300000052,
      "d": 333.32050000000163,
      "v": 85
    },
    {
      "midi": 44,
      "hit": false,
      "t": 142327.85350000052,
      "d": 326.3763229166798,
      "v": 42
    },
    {
      "midi": 52,
      "hit": false,
      "t": 142327.85350000052,
      "d": 326.3763229166798,
      "v": 61
    },
    {
      "midi": 56,
      "hit": false,
      "t": 142327.85350000052,
      "d": 326.3763229166798,
      "v": 62
    },
    {
      "midi": 59,
      "hit": false,
      "t": 142327.85350000052,
      "d": 326.3763229166798,
      "v": 67
    },
    {
      "midi": 52,
      "hit": false,
      "t": 142661.17400000052,
      "d": 319.43214583332883,
      "v": 61
    },
    {
      "midi": 59,
      "hit": false,
      "t": 142661.17400000052,
      "d": 319.43214583332883,
      "v": 66
    },
    {
      "midi": 44,
      "hit": false,
      "t": 142661.17400000052,
      "d": 326.3763229166507,
      "v": 66
    },
    {
      "midi": 56,
      "hit": false,
      "t": 142661.17400000052,
      "d": 326.3763229166507,
      "v": 62
    },
    {
      "midi": 44,
      "hit": false,
      "t": 142994.4945000005,
      "d": 319.43214583332883,
      "v": 64
    },
    {
      "midi": 59,
      "hit": false,
      "t": 142994.4945000005,
      "d": 319.43214583332883,
      "v": 66
    },
    {
      "midi": 52,
      "hit": false,
      "t": 142994.4945000005,
      "d": 326.3763229166507,
      "v": 69
    },
    {
      "midi": 56,
      "hit": false,
      "t": 142994.4945000005,
      "d": 326.3763229166507,
      "v": 69
    },
    {
      "midi": 44,
      "hit": false,
      "t": 143327.81500000047,
      "d": 319.43214583332883,
      "v": 85
    },
    {
      "midi": 52,
      "hit": false,
      "t": 143327.81500000047,
      "d": 319.43214583332883,
      "v": 85
    },
    {
      "midi": 56,
      "hit": false,
      "t": 143327.81500000047,
      "d": 326.3763229166507,
      "v": 98
    },
    {
      "midi": 59,
      "hit": false,
      "t": 143327.81500000047,
      "d": 326.3763229166507,
      "v": 95
    },
    {
      "midi": 56,
      "hit": false,
      "t": 143661.13550000044,
      "d": 319.43214583332883,
      "v": 74
    },
    {
      "midi": 59,
      "hit": false,
      "t": 143661.13550000044,
      "d": 319.43214583332883,
      "v": 84
    },
    {
      "midi": 44,
      "hit": false,
      "t": 143661.13550000044,
      "d": 326.3763229166507,
      "v": 64
    },
    {
      "midi": 52,
      "hit": false,
      "t": 143661.13550000044,
      "d": 326.3763229166507,
      "v": 72
    },
    {
      "midi": 52,
      "hit": false,
      "t": 143994.4560000004,
      "d": 319.43214583332883,
      "v": 59
    },
    {
      "midi": 56,
      "hit": false,
      "t": 143994.4560000004,
      "d": 319.43214583332883,
      "v": 64
    },
    {
      "midi": 59,
      "hit": false,
      "t": 143994.4560000004,
      "d": 319.43214583332883,
      "v": 66
    },
    {
      "midi": 44,
      "hit": false,
      "t": 143994.4560000004,
      "d": 326.3763229166507,
      "v": 52
    },
    {
      "midi": 44,
      "hit": false,
      "t": 144327.7765000004,
      "d": 319.43214583332883,
      "v": 67
    },
    {
      "midi": 52,
      "hit": false,
      "t": 144327.7765000004,
      "d": 319.43214583332883,
      "v": 62
    },
    {
      "midi": 56,
      "hit": false,
      "t": 144327.7765000004,
      "d": 319.43214583332883,
      "v": 62
    },
    {
      "midi": 59,
      "hit": false,
      "t": 144327.7765000004,
      "d": 319.43214583332883,
      "v": 60
    },
    {
      "midi": 44,
      "hit": false,
      "t": 144661.0970000004,
      "d": 319.43214583332883,
      "v": 85
    },
    {
      "midi": 52,
      "hit": false,
      "t": 144661.0970000004,
      "d": 319.43214583332883,
      "v": 85
    },
    {
      "midi": 56,
      "hit": false,
      "t": 144661.0970000004,
      "d": 319.43214583332883,
      "v": 86
    },
    {
      "midi": 59,
      "hit": false,
      "t": 144661.0970000004,
      "d": 319.43214583332883,
      "v": 86
    },
    {
      "midi": 44,
      "hit": false,
      "t": 144994.4175000004,
      "d": 319.43214583332883,
      "v": 72
    },
    {
      "midi": 52,
      "hit": false,
      "t": 144994.4175000004,
      "d": 319.43214583332883,
      "v": 69
    },
    {
      "midi": 56,
      "hit": false,
      "t": 144994.4175000004,
      "d": 319.43214583332883,
      "v": 64
    },
    {
      "midi": 59,
      "hit": false,
      "t": 144994.4175000004,
      "d": 319.43214583332883,
      "v": 79
    },
    {
      "midi": 44,
      "hit": false,
      "t": 145327.7380000004,
      "d": 319.43214583332883,
      "v": 57
    },
    {
      "midi": 51,
      "hit": false,
      "t": 145327.7380000004,
      "d": 319.43214583332883,
      "v": 56
    },
    {
      "midi": 56,
      "hit": false,
      "t": 145327.7380000004,
      "d": 319.43214583332883,
      "v": 60
    },
    {
      "midi": 59,
      "hit": false,
      "t": 145327.7380000004,
      "d": 319.43214583332883,
      "v": 66
    },
    {
      "midi": 44,
      "hit": false,
      "t": 145661.0585000004,
      "d": 319.43214583332883,
      "v": 62
    },
    {
      "midi": 51,
      "hit": false,
      "t": 145661.0585000004,
      "d": 319.43214583332883,
      "v": 55
    },
    {
      "midi": 56,
      "hit": false,
      "t": 145661.0585000004,
      "d": 319.43214583332883,
      "v": 55
    },
    {
      "midi": 59,
      "hit": false,
      "t": 145661.0585000004,
      "d": 319.43214583332883,
      "v": 66
    },
    {
      "midi": 44,
      "hit": false,
      "t": 145994.3790000004,
      "d": 319.43214583332883,
      "v": 85
    },
    {
      "midi": 51,
      "hit": false,
      "t": 145994.3790000004,
      "d": 319.43214583332883,
      "v": 85
    },
    {
      "midi": 56,
      "hit": false,
      "t": 145994.3790000004,
      "d": 319.43214583332883,
      "v": 89
    },
    {
      "midi": 59,
      "hit": false,
      "t": 145994.3790000004,
      "d": 319.43214583332883,
      "v": 89
    },
    {
      "midi": 44,
      "hit": false,
      "t": 146327.6995000004,
      "d": 319.43214583332883,
      "v": 64
    },
    {
      "midi": 56,
      "hit": false,
      "t": 146327.6995000004,
      "d": 319.43214583332883,
      "v": 62
    },
    {
      "midi": 59,
      "hit": false,
      "t": 146327.6995000004,
      "d": 319.43214583332883,
      "v": 76
    },
    {
      "midi": 51,
      "hit": false,
      "t": 146327.6995000004,
      "d": 326.3763229166507,
      "v": 60
    },
    {
      "midi": 44,
      "hit": false,
      "t": 146661.02000000037,
      "d": 319.43214583332883,
      "v": 56
    },
    {
      "midi": 52,
      "hit": false,
      "t": 146661.02000000037,
      "d": 319.43214583332883,
      "v": 64
    },
    {
      "midi": 56,
      "hit": false,
      "t": 146661.02000000037,
      "d": 319.43214583332883,
      "v": 62
    },
    {
      "midi": 61,
      "hit": false,
      "t": 146661.02000000037,
      "d": 319.43214583332883,
      "v": 67
    },
    {
      "midi": 44,
      "hit": false,
      "t": 146994.34050000037,
      "d": 319.43214583332883,
      "v": 44
    },
    {
      "midi": 52,
      "hit": false,
      "t": 146994.34050000037,
      "d": 319.43214583332883,
      "v": 49
    },
    {
      "midi": 56,
      "hit": false,
      "t": 146994.34050000037,
      "d": 319.43214583332883,
      "v": 55
    },
    {
      "midi": 61,
      "hit": false,
      "t": 146994.34050000037,
      "d": 319.43214583332883,
      "v": 65
    },
    {
      "midi": 44,
      "hit": false,
      "t": 147327.66100000037,
      "d": 319.43214583332883,
      "v": 85
    },
    {
      "midi": 52,
      "hit": false,
      "t": 147327.66100000037,
      "d": 319.43214583332883,
      "v": 85
    },
    {
      "midi": 56,
      "hit": false,
      "t": 147327.66100000037,
      "d": 326.3763229166507,
      "v": 86
    },
    {
      "midi": 61,
      "hit": false,
      "t": 147327.66100000037,
      "d": 326.3763229166507,
      "v": 85
    },
    {
      "midi": 44,
      "hit": false,
      "t": 147660.98150000034,
      "d": 319.43214583332883,
      "v": 60
    },
    {
      "midi": 52,
      "hit": false,
      "t": 147660.98150000034,
      "d": 319.43214583332883,
      "v": 59
    },
    {
      "midi": 56,
      "hit": false,
      "t": 147660.98150000034,
      "d": 319.43214583332883,
      "v": 52
    },
    {
      "midi": 61,
      "hit": false,
      "t": 147660.98150000034,
      "d": 319.43214583332883,
      "v": 72
    },
    {
      "midi": 44,
      "hit": false,
      "t": 147994.30200000035,
      "d": 319.43214583332883,
      "v": 62
    },
    {
      "midi": 52,
      "hit": false,
      "t": 147994.30200000035,
      "d": 319.43214583332883,
      "v": 62
    },
    {
      "midi": 56,
      "hit": false,
      "t": 147994.30200000035,
      "d": 319.43214583332883,
      "v": 71
    },
    {
      "midi": 59,
      "hit": false,
      "t": 147994.30200000035,
      "d": 319.43214583332883,
      "v": 85
    },
    {
      "midi": 44,
      "hit": false,
      "t": 148327.62250000035,
      "d": 319.43214583332883,
      "v": 53
    },
    {
      "midi": 52,
      "hit": false,
      "t": 148327.62250000035,
      "d": 319.43214583332883,
      "v": 55
    },
    {
      "midi": 56,
      "hit": false,
      "t": 148327.62250000035,
      "d": 319.43214583332883,
      "v": 62
    },
    {
      "midi": 59,
      "hit": false,
      "t": 148327.62250000035,
      "d": 319.43214583332883,
      "v": 72
    },
    {
      "midi": 44,
      "hit": false,
      "t": 148660.94300000035,
      "d": 319.43214583332883,
      "v": 85
    },
    {
      "midi": 52,
      "hit": false,
      "t": 148660.94300000035,
      "d": 319.43214583332883,
      "v": 85
    },
    {
      "midi": 56,
      "hit": false,
      "t": 148660.94300000035,
      "d": 319.43214583332883,
      "v": 85
    },
    {
      "midi": 59,
      "hit": false,
      "t": 148660.94300000035,
      "d": 319.43214583332883,
      "v": 85
    },
    {
      "midi": 44,
      "hit": false,
      "t": 148994.26350000035,
      "d": 319.43214583332883,
      "v": 55
    },
    {
      "midi": 52,
      "hit": false,
      "t": 148994.26350000035,
      "d": 319.43214583332883,
      "v": 47
    },
    {
      "midi": 56,
      "hit": false,
      "t": 148994.26350000035,
      "d": 319.43214583332883,
      "v": 65
    },
    {
      "midi": 59,
      "hit": false,
      "t": 148994.26350000035,
      "d": 326.3763229166507,
      "v": 81
    },
    {
      "midi": 46,
      "hit": false,
      "t": 149327.58400000032,
      "d": 319.43214583332883,
      "v": 72
    },
    {
      "midi": 52,
      "hit": false,
      "t": 149327.58400000032,
      "d": 319.43214583332883,
      "v": 49
    },
    {
      "midi": 55,
      "hit": false,
      "t": 149327.58400000032,
      "d": 319.43214583332883,
      "v": 56
    },
    {
      "midi": 58,
      "hit": false,
      "t": 149327.58400000032,
      "d": 319.43214583332883,
      "v": 77
    },
    {
      "midi": 46,
      "hit": false,
      "t": 149660.90450000032,
      "d": 319.43214583332883,
      "v": 69
    },
    {
      "midi": 52,
      "hit": false,
      "t": 149660.90450000032,
      "d": 319.43214583332883,
      "v": 55
    },
    {
      "midi": 55,
      "hit": false,
      "t": 149660.90450000032,
      "d": 319.43214583332883,
      "v": 59
    },
    {
      "midi": 58,
      "hit": false,
      "t": 149660.90450000032,
      "d": 326.3763229166507,
      "v": 81
    },
    {
      "midi": 46,
      "hit": false,
      "t": 149994.2250000003,
      "d": 312.487968750007,
      "v": 85
    },
    {
      "midi": 52,
      "hit": false,
      "t": 149994.2250000003,
      "d": 312.487968750007,
      "v": 85
    },
    {
      "midi": 55,
      "hit": false,
      "t": 149994.2250000003,
      "d": 319.43214583332883,
      "v": 70
    },
    {
      "midi": 58,
      "hit": false,
      "t": 149994.2250000003,
      "d": 319.43214583332883,
      "v": 85
    },
    {
      "midi": 46,
      "hit": false,
      "t": 150327.5455000003,
      "d": 319.43214583332883,
      "v": 59
    },
    {
      "midi": 52,
      "hit": false,
      "t": 150327.5455000003,
      "d": 319.43214583332883,
      "v": 47
    },
    {
      "midi": 55,
      "hit": false,
      "t": 150327.5455000003,
      "d": 319.43214583332883,
      "v": 50
    },
    {
      "midi": 58,
      "hit": false,
      "t": 150327.5455000003,
      "d": 319.43214583332883,
      "v": 72
    },
    {
      "midi": 61,
      "hit": false,
      "t": 150660.8660000003,
      "d": 312.487968750007,
      "v": 76
    },
    {
      "midi": 45,
      "hit": false,
      "t": 150660.8660000003,
      "d": 319.43214583332883,
      "v": 49
    },
    {
      "midi": 52,
      "hit": false,
      "t": 150660.8660000003,
      "d": 319.43214583332883,
      "v": 77
    },
    {
      "midi": 57,
      "hit": false,
      "t": 150660.8660000003,
      "d": 319.43214583332883,
      "v": 60
    },
    {
      "midi": 45,
      "hit": false,
      "t": 150994.1865000003,
      "d": 319.43214583332883,
      "v": 43
    },
    {
      "midi": 52,
      "hit": false,
      "t": 150994.1865000003,
      "d": 319.43214583332883,
      "v": 55
    },
    {
      "midi": 57,
      "hit": false,
      "t": 150994.1865000003,
      "d": 319.43214583332883,
      "v": 52
    },
    {
      "midi": 61,
      "hit": false,
      "t": 150994.1865000003,
      "d": 319.43214583332883,
      "v": 62
    },
    {
      "midi": 45,
      "hit": false,
      "t": 151327.5070000003,
      "d": 319.43214583332883,
      "v": 72
    },
    {
      "midi": 52,
      "hit": false,
      "t": 151327.5070000003,
      "d": 319.43214583332883,
      "v": 85
    },
    {
      "midi": 57,
      "hit": false,
      "t": 151327.5070000003,
      "d": 319.43214583332883,
      "v": 85
    },
    {
      "midi": 61,
      "hit": false,
      "t": 151327.5070000003,
      "d": 319.43214583332883,
      "v": 85
    },
    {
      "midi": 45,
      "hit": false,
      "t": 151660.8275000003,
      "d": 319.43214583332883,
      "v": 56
    },
    {
      "midi": 52,
      "hit": false,
      "t": 151660.8275000003,
      "d": 319.43214583332883,
      "v": 76
    },
    {
      "midi": 57,
      "hit": false,
      "t": 151660.8275000003,
      "d": 319.43214583332883,
      "v": 59
    },
    {
      "midi": 61,
      "hit": false,
      "t": 151660.8275000003,
      "d": 319.43214583332883,
      "v": 81
    },
    {
      "midi": 44,
      "hit": false,
      "t": 151994.1480000003,
      "d": 319.43214583332883,
      "v": 57
    },
    {
      "midi": 52,
      "hit": false,
      "t": 151994.1480000003,
      "d": 319.43214583332883,
      "v": 64
    },
    {
      "midi": 56,
      "hit": false,
      "t": 151994.1480000003,
      "d": 319.43214583332883,
      "v": 65
    },
    {
      "midi": 59,
      "hit": false,
      "t": 151994.1480000003,
      "d": 319.43214583332883,
      "v": 77
    },
    {
      "midi": 44,
      "hit": false,
      "t": 152327.4685000003,
      "d": 319.43214583332883,
      "v": 62
    },
    {
      "midi": 52,
      "hit": false,
      "t": 152327.4685000003,
      "d": 319.43214583332883,
      "v": 60
    },
    {
      "midi": 56,
      "hit": false,
      "t": 152327.4685000003,
      "d": 319.43214583332883,
      "v": 56
    },
    {
      "midi": 59,
      "hit": false,
      "t": 152327.4685000003,
      "d": 319.43214583332883,
      "v": 70
    },
    {
      "midi": 44,
      "hit": false,
      "t": 152660.7890000003,
      "d": 319.43214583332883,
      "v": 85
    },
    {
      "midi": 52,
      "hit": false,
      "t": 152660.7890000003,
      "d": 319.43214583332883,
      "v": 85
    },
    {
      "midi": 56,
      "hit": false,
      "t": 152660.7890000003,
      "d": 319.43214583332883,
      "v": 89
    },
    {
      "midi": 59,
      "hit": false,
      "t": 152660.7890000003,
      "d": 319.43214583332883,
      "v": 86
    },
    {
      "midi": 44,
      "hit": false,
      "t": 152994.1095000003,
      "d": 319.43214583332883,
      "v": 44
    },
    {
      "midi": 52,
      "hit": false,
      "t": 152994.1095000003,
      "d": 319.43214583332883,
      "v": 34
    },
    {
      "midi": 56,
      "hit": false,
      "t": 152994.1095000003,
      "d": 319.43214583332883,
      "v": 64
    },
    {
      "midi": 59,
      "hit": false,
      "t": 152994.1095000003,
      "d": 319.43214583332883,
      "v": 65
    },
    {
      "midi": 44,
      "hit": false,
      "t": 153327.4300000003,
      "d": 319.43214583332883,
      "v": 61
    },
    {
      "midi": 52,
      "hit": false,
      "t": 153327.4300000003,
      "d": 319.43214583332883,
      "v": 55
    },
    {
      "midi": 59,
      "hit": false,
      "t": 153327.4300000003,
      "d": 319.43214583332883,
      "v": 67
    },
    {
      "midi": 56,
      "hit": false,
      "t": 153327.4300000003,
      "d": 326.3763229166507,
      "v": 55
    },
    {
      "midi": 44,
      "hit": false,
      "t": 153660.7505000003,
      "d": 319.43214583332883,
      "v": 66
    },
    {
      "midi": 52,
      "hit": false,
      "t": 153660.7505000003,
      "d": 319.43214583332883,
      "v": 67
    },
    {
      "midi": 59,
      "hit": false,
      "t": 153660.7505000003,
      "d": 319.43214583332883,
      "v": 71
    },
    {
      "midi": 56,
      "hit": false,
      "t": 153660.7505000003,
      "d": 326.3763229166507,
      "v": 69
    },
    {
      "midi": 44,
      "hit": false,
      "t": 153994.07100000026,
      "d": 319.43214583332883,
      "v": 85
    },
    {
      "midi": 52,
      "hit": false,
      "t": 153994.07100000026,
      "d": 319.43214583332883,
      "v": 85
    },
    {
      "midi": 56,
      "hit": false,
      "t": 153994.07100000026,
      "d": 319.43214583332883,
      "v": 86
    },
    {
      "midi": 59,
      "hit": false,
      "t": 153994.07100000026,
      "d": 319.43214583332883,
      "v": 85
    },
    {
      "midi": 52,
      "hit": false,
      "t": 154327.39150000026,
      "d": 319.43214583332883,
      "v": 56
    },
    {
      "midi": 59,
      "hit": false,
      "t": 154327.39150000026,
      "d": 319.43214583332883,
      "v": 67
    },
    {
      "midi": 44,
      "hit": false,
      "t": 154327.39150000026,
      "d": 326.3763229166507,
      "v": 52
    },
    {
      "midi": 56,
      "hit": false,
      "t": 154327.39150000026,
      "d": 326.3763229166507,
      "v": 62
    },
    {
      "midi": 44,
      "hit": false,
      "t": 154660.71200000023,
      "d": 319.43214583332883,
      "v": 62
    },
    {
      "midi": 52,
      "hit": false,
      "t": 154660.71200000023,
      "d": 319.43214583332883,
      "v": 64
    },
    {
      "midi": 56,
      "hit": false,
      "t": 154660.71200000023,
      "d": 319.43214583332883,
      "v": 68
    },
    {
      "midi": 59,
      "hit": false,
      "t": 154660.71200000023,
      "d": 319.43214583332883,
      "v": 71
    },
    {
      "midi": 44,
      "hit": false,
      "t": 154994.03250000023,
      "d": 319.43214583332883,
      "v": 62
    },
    {
      "midi": 52,
      "hit": false,
      "t": 154994.03250000023,
      "d": 319.43214583332883,
      "v": 57
    },
    {
      "midi": 56,
      "hit": false,
      "t": 154994.03250000023,
      "d": 319.43214583332883,
      "v": 61
    },
    {
      "midi": 59,
      "hit": false,
      "t": 154994.03250000023,
      "d": 319.43214583332883,
      "v": 66
    },
    {
      "midi": 59,
      "hit": false,
      "t": 155327.35300000024,
      "d": 312.487968750007,
      "v": 85
    },
    {
      "midi": 44,
      "hit": false,
      "t": 155327.35300000024,
      "d": 319.43214583332883,
      "v": 85
    },
    {
      "midi": 52,
      "hit": false,
      "t": 155327.35300000024,
      "d": 319.43214583332883,
      "v": 85
    },
    {
      "midi": 56,
      "hit": false,
      "t": 155327.35300000024,
      "d": 319.43214583332883,
      "v": 86
    },
    {
      "midi": 44,
      "hit": false,
      "t": 155660.67350000024,
      "d": 319.43214583332883,
      "v": 71
    },
    {
      "midi": 56,
      "hit": false,
      "t": 155660.67350000024,
      "d": 319.43214583332883,
      "v": 67
    },
    {
      "midi": 59,
      "hit": false,
      "t": 155660.67350000024,
      "d": 319.43214583332883,
      "v": 78
    },
    {
      "midi": 52,
      "hit": false,
      "t": 155660.67350000024,
      "d": 326.3763229166507,
      "v": 68
    },
    {
      "midi": 44,
      "hit": false,
      "t": 155993.9940000002,
      "d": 319.43214583332883,
      "v": 59
    },
    {
      "midi": 51,
      "hit": false,
      "t": 155993.9940000002,
      "d": 319.43214583332883,
      "v": 56
    },
    {
      "midi": 56,
      "hit": false,
      "t": 155993.9940000002,
      "d": 319.43214583332883,
      "v": 62
    },
    {
      "midi": 59,
      "hit": false,
      "t": 155993.9940000002,
      "d": 319.43214583332883,
      "v": 70
    },
    {
      "midi": 44,
      "hit": false,
      "t": 156327.3145000002,
      "d": 326.3763229166798,
      "v": 68
    },
    {
      "midi": 51,
      "hit": false,
      "t": 156327.3145000002,
      "d": 326.3763229166798,
      "v": 62
    },
    {
      "midi": 56,
      "hit": false,
      "t": 156327.3145000002,
      "d": 326.3763229166798,
      "v": 55
    },
    {
      "midi": 59,
      "hit": false,
      "t": 156327.3145000002,
      "d": 326.3763229166798,
      "v": 66
    },
    {
      "midi": 44,
      "hit": false,
      "t": 156660.6350000002,
      "d": 319.43214583332883,
      "v": 85
    },
    {
      "midi": 51,
      "hit": false,
      "t": 156660.6350000002,
      "d": 319.43214583332883,
      "v": 85
    },
    {
      "midi": 56,
      "hit": false,
      "t": 156660.6350000002,
      "d": 319.43214583332883,
      "v": 85
    },
    {
      "midi": 59,
      "hit": false,
      "t": 156660.6350000002,
      "d": 326.3763229166507,
      "v": 85
    },
    {
      "midi": 44,
      "hit": false,
      "t": 156993.9555000002,
      "d": 326.3763229166798,
      "v": 57
    },
    {
      "midi": 51,
      "hit": false,
      "t": 156993.9555000002,
      "d": 326.3763229166798,
      "v": 62
    },
    {
      "midi": 56,
      "hit": false,
      "t": 156993.9555000002,
      "d": 326.3763229166798,
      "v": 59
    },
    {
      "midi": 59,
      "hit": false,
      "t": 156993.9555000002,
      "d": 326.3763229166798,
      "v": 65
    },
    {
      "midi": 44,
      "hit": false,
      "t": 157327.2760000002,
      "d": 319.43214583332883,
      "v": 64
    },
    {
      "midi": 52,
      "hit": false,
      "t": 157327.2760000002,
      "d": 319.43214583332883,
      "v": 66
    },
    {
      "midi": 56,
      "hit": false,
      "t": 157327.2760000002,
      "d": 319.43214583332883,
      "v": 43
    },
    {
      "midi": 61,
      "hit": false,
      "t": 157327.2760000002,
      "d": 319.43214583332883,
      "v": 67
    },
    {
      "midi": 44,
      "hit": false,
      "t": 157660.5965000002,
      "d": 319.43214583332883,
      "v": 60
    },
    {
      "midi": 52,
      "hit": false,
      "t": 157660.5965000002,
      "d": 319.43214583332883,
      "v": 62
    },
    {
      "midi": 56,
      "hit": false,
      "t": 157660.5965000002,
      "d": 319.43214583332883,
      "v": 49
    },
    {
      "midi": 61,
      "hit": false,
      "t": 157660.5965000002,
      "d": 319.43214583332883,
      "v": 47
    },
    {
      "midi": 44,
      "hit": false,
      "t": 157993.9170000002,
      "d": 319.43214583332883,
      "v": 85
    },
    {
      "midi": 52,
      "hit": false,
      "t": 157993.9170000002,
      "d": 319.43214583332883,
      "v": 85
    },
    {
      "midi": 56,
      "hit": false,
      "t": 157993.9170000002,
      "d": 319.43214583332883,
      "v": 85
    },
    {
      "midi": 61,
      "hit": false,
      "t": 157993.9170000002,
      "d": 326.3763229166507,
      "v": 85
    },
    {
      "midi": 44,
      "hit": false,
      "t": 158327.23750000016,
      "d": 319.43214583332883,
      "v": 49
    },
    {
      "midi": 52,
      "hit": false,
      "t": 158327.23750000016,
      "d": 319.43214583332883,
      "v": 59
    },
    {
      "midi": 56,
      "hit": false,
      "t": 158327.23750000016,
      "d": 319.43214583332883,
      "v": 57
    },
    {
      "midi": 61,
      "hit": false,
      "t": 158327.23750000016,
      "d": 319.43214583332883,
      "v": 60
    },
    {
      "midi": 44,
      "hit": false,
      "t": 158660.55800000016,
      "d": 319.43214583332883,
      "v": 55
    },
    {
      "midi": 52,
      "hit": false,
      "t": 158660.55800000016,
      "d": 319.43214583332883,
      "v": 54
    },
    {
      "midi": 56,
      "hit": false,
      "t": 158660.55800000016,
      "d": 319.43214583332883,
      "v": 67
    },
    {
      "midi": 59,
      "hit": false,
      "t": 158660.55800000016,
      "d": 319.43214583332883,
      "v": 66
    },
    {
      "midi": 44,
      "hit": false,
      "t": 158993.87850000017,
      "d": 319.43214583332883,
      "v": 55
    },
    {
      "midi": 52,
      "hit": false,
      "t": 158993.87850000017,
      "d": 319.43214583332883,
      "v": 55
    },
    {
      "midi": 56,
      "hit": false,
      "t": 158993.87850000017,
      "d": 319.43214583332883,
      "v": 68
    },
    {
      "midi": 59,
      "hit": false,
      "t": 158993.87850000017,
      "d": 319.43214583332883,
      "v": 71
    },
    {
      "midi": 44,
      "hit": false,
      "t": 159327.19900000017,
      "d": 319.43214583332883,
      "v": 85
    },
    {
      "midi": 52,
      "hit": false,
      "t": 159327.19900000017,
      "d": 319.43214583332883,
      "v": 85
    },
    {
      "midi": 56,
      "hit": false,
      "t": 159327.19900000017,
      "d": 319.43214583332883,
      "v": 89
    },
    {
      "midi": 59,
      "hit": false,
      "t": 159327.19900000017,
      "d": 319.43214583332883,
      "v": 86
    },
    {
      "midi": 44,
      "hit": false,
      "t": 159660.51950000017,
      "d": 319.43214583332883,
      "v": 56
    },
    {
      "midi": 52,
      "hit": false,
      "t": 159660.51950000017,
      "d": 319.43214583332883,
      "v": 47
    },
    {
      "midi": 56,
      "hit": false,
      "t": 159660.51950000017,
      "d": 319.43214583332883,
      "v": 59
    },
    {
      "midi": 59,
      "hit": false,
      "t": 159660.51950000017,
      "d": 319.43214583332883,
      "v": 59
    },
    {
      "midi": 46,
      "hit": false,
      "t": 159993.84000000017,
      "d": 319.43214583332883,
      "v": 68
    },
    {
      "midi": 52,
      "hit": false,
      "t": 159993.84000000017,
      "d": 319.43214583332883,
      "v": 65
    },
    {
      "midi": 55,
      "hit": false,
      "t": 159993.84000000017,
      "d": 319.43214583332883,
      "v": 53
    },
    {
      "midi": 58,
      "hit": false,
      "t": 159993.84000000017,
      "d": 319.43214583332883,
      "v": 81
    },
    {
      "midi": 46,
      "hit": false,
      "t": 160327.16050000017,
      "d": 319.43214583332883,
      "v": 67
    },
    {
      "midi": 52,
      "hit": false,
      "t": 160327.16050000017,
      "d": 319.43214583332883,
      "v": 47
    },
    {
      "midi": 55,
      "hit": false,
      "t": 160327.16050000017,
      "d": 319.43214583332883,
      "v": 50
    },
    {
      "midi": 58,
      "hit": false,
      "t": 160327.16050000017,
      "d": 319.43214583332883,
      "v": 76
    },
    {
      "midi": 46,
      "hit": false,
      "t": 160660.48100000017,
      "d": 319.43214583332883,
      "v": 85
    },
    {
      "midi": 52,
      "hit": false,
      "t": 160660.48100000017,
      "d": 319.43214583332883,
      "v": 85
    },
    {
      "midi": 55,
      "hit": false,
      "t": 160660.48100000017,
      "d": 319.43214583332883,
      "v": 74
    },
    {
      "midi": 58,
      "hit": false,
      "t": 160660.48100000017,
      "d": 319.43214583332883,
      "v": 85
    },
    {
      "midi": 46,
      "hit": false,
      "t": 160993.80150000018,
      "d": 319.43214583332883,
      "v": 76
    },
    {
      "midi": 52,
      "hit": false,
      "t": 160993.80150000018,
      "d": 319.43214583332883,
      "v": 59
    },
    {
      "midi": 55,
      "hit": false,
      "t": 160993.80150000018,
      "d": 319.43214583332883,
      "v": 57
    },
    {
      "midi": 58,
      "hit": false,
      "t": 160993.80150000018,
      "d": 319.43214583332883,
      "v": 76
    },
    {
      "midi": 45,
      "hit": false,
      "t": 161327.12200000018,
      "d": 319.43214583332883,
      "v": 52
    },
    {
      "midi": 52,
      "hit": false,
      "t": 161327.12200000018,
      "d": 319.43214583332883,
      "v": 64
    },
    {
      "midi": 57,
      "hit": false,
      "t": 161327.12200000018,
      "d": 319.43214583332883,
      "v": 53
    },
    {
      "midi": 61,
      "hit": false,
      "t": 161327.12200000018,
      "d": 319.43214583332883,
      "v": 74
    },
    {
      "midi": 45,
      "hit": false,
      "t": 161660.44250000018,
      "d": 319.43214583332883,
      "v": 55
    },
    {
      "midi": 52,
      "hit": false,
      "t": 161660.44250000018,
      "d": 319.43214583332883,
      "v": 74
    },
    {
      "midi": 57,
      "hit": false,
      "t": 161660.44250000018,
      "d": 319.43214583332883,
      "v": 56
    },
    {
      "midi": 61,
      "hit": false,
      "t": 161660.44250000018,
      "d": 319.43214583332883,
      "v": 72
    },
    {
      "midi": 45,
      "hit": false,
      "t": 161993.76300000018,
      "d": 319.43214583332883,
      "v": 69
    },
    {
      "midi": 52,
      "hit": false,
      "t": 161993.76300000018,
      "d": 319.43214583332883,
      "v": 85
    },
    {
      "midi": 57,
      "hit": false,
      "t": 161993.76300000018,
      "d": 319.43214583332883,
      "v": 85
    },
    {
      "midi": 61,
      "hit": false,
      "t": 161993.76300000018,
      "d": 319.43214583332883,
      "v": 85
    },
    {
      "midi": 45,
      "hit": false,
      "t": 162327.08350000018,
      "d": 326.3763229166798,
      "v": 59
    },
    {
      "midi": 52,
      "hit": false,
      "t": 162327.08350000018,
      "d": 326.3763229166798,
      "v": 81
    },
    {
      "midi": 57,
      "hit": false,
      "t": 162327.08350000018,
      "d": 326.3763229166798,
      "v": 59
    },
    {
      "midi": 61,
      "hit": false,
      "t": 162327.08350000018,
      "d": 326.3763229166798,
      "v": 85
    },
    {
      "midi": 44,
      "hit": false,
      "t": 162660.40400000018,
      "d": 319.43214583332883,
      "v": 66
    },
    {
      "midi": 51,
      "hit": false,
      "t": 162660.40400000018,
      "d": 319.43214583332883,
      "v": 66
    },
    {
      "midi": 56,
      "hit": false,
      "t": 162660.40400000018,
      "d": 319.43214583332883,
      "v": 64
    },
    {
      "midi": 59,
      "hit": false,
      "t": 162660.40400000018,
      "d": 319.43214583332883,
      "v": 76
    },
    {
      "midi": 51,
      "hit": false,
      "t": 162993.7245000002,
      "d": 326.3763229166798,
      "v": 59
    },
    {
      "midi": 56,
      "hit": false,
      "t": 162993.7245000002,
      "d": 326.3763229166798,
      "v": 61
    },
    {
      "midi": 59,
      "hit": false,
      "t": 162993.7245000002,
      "d": 326.3763229166798,
      "v": 77
    },
    {
      "midi": 44,
      "hit": false,
      "t": 162993.7245000002,
      "d": 333.32050000000163,
      "v": 65
    },
    {
      "midi": 44,
      "hit": false,
      "t": 163327.0450000002,
      "d": 319.43214583332883,
      "v": 85
    },
    {
      "midi": 56,
      "hit": false,
      "t": 163327.0450000002,
      "d": 319.43214583332883,
      "v": 85
    },
    {
      "midi": 59,
      "hit": false,
      "t": 163327.0450000002,
      "d": 319.43214583332883,
      "v": 85
    },
    {
      "midi": 51,
      "hit": false,
      "t": 163327.0450000002,
      "d": 326.3763229166507,
      "v": 85
    },
    {
      "midi": 44,
      "hit": false,
      "t": 163660.36550000016,
      "d": 326.3763229166798,
      "v": 61
    },
    {
      "midi": 51,
      "hit": false,
      "t": 163660.36550000016,
      "d": 326.3763229166798,
      "v": 52
    },
    {
      "midi": 56,
      "hit": false,
      "t": 163660.36550000016,
      "d": 326.3763229166798,
      "v": 67
    },
    {
      "midi": 59,
      "hit": false,
      "t": 163660.36550000016,
      "d": 326.3763229166798,
      "v": 70
    },
    {
      "midi": 44,
      "hit": false,
      "t": 163993.68600000016,
      "d": 319.43214583332883,
      "v": 64
    },
    {
      "midi": 51,
      "hit": false,
      "t": 163993.68600000016,
      "d": 319.43214583332883,
      "v": 68
    },
    {
      "midi": 56,
      "hit": false,
      "t": 163993.68600000016,
      "d": 319.43214583332883,
      "v": 59
    },
    {
      "midi": 59,
      "hit": false,
      "t": 163993.68600000016,
      "d": 319.43214583332883,
      "v": 72
    },
    {
      "midi": 44,
      "hit": false,
      "t": 164327.00650000016,
      "d": 319.43214583332883,
      "v": 67
    },
    {
      "midi": 51,
      "hit": false,
      "t": 164327.00650000016,
      "d": 319.43214583332883,
      "v": 60
    },
    {
      "midi": 56,
      "hit": false,
      "t": 164327.00650000016,
      "d": 319.43214583332883,
      "v": 59
    },
    {
      "midi": 59,
      "hit": false,
      "t": 164327.00650000016,
      "d": 319.43214583332883,
      "v": 67
    },
    {
      "midi": 44,
      "hit": false,
      "t": 164660.32700000016,
      "d": 319.43214583332883,
      "v": 85
    },
    {
      "midi": 51,
      "hit": false,
      "t": 164660.32700000016,
      "d": 319.43214583332883,
      "v": 85
    },
    {
      "midi": 56,
      "hit": false,
      "t": 164660.32700000016,
      "d": 319.43214583332883,
      "v": 85
    },
    {
      "midi": 59,
      "hit": false,
      "t": 164660.32700000016,
      "d": 319.43214583332883,
      "v": 85
    },
    {
      "midi": 44,
      "hit": false,
      "t": 164993.64750000017,
      "d": 319.43214583332883,
      "v": 67
    },
    {
      "midi": 51,
      "hit": false,
      "t": 164993.64750000017,
      "d": 319.43214583332883,
      "v": 61
    },
    {
      "midi": 56,
      "hit": false,
      "t": 164993.64750000017,
      "d": 319.43214583332883,
      "v": 70
    },
    {
      "midi": 59,
      "hit": false,
      "t": 164993.64750000017,
      "d": 319.43214583332883,
      "v": 81
    },
    {
      "midi": 44,
      "hit": false,
      "t": 165326.96800000017,
      "d": 319.43214583332883,
      "v": 85
    },
    {
      "midi": 51,
      "hit": false,
      "t": 165326.96800000017,
      "d": 319.43214583332883,
      "v": 85
    },
    {
      "midi": 56,
      "hit": false,
      "t": 165326.96800000017,
      "d": 319.43214583332883,
      "v": 85
    },
    {
      "midi": 59,
      "hit": false,
      "t": 165326.96800000017,
      "d": 319.43214583332883,
      "v": 85
    },
    {
      "midi": 44,
      "hit": false,
      "t": 165660.28850000017,
      "d": 319.43214583332883,
      "v": 85
    },
    {
      "midi": 51,
      "hit": false,
      "t": 165660.28850000017,
      "d": 319.43214583332883,
      "v": 85
    },
    {
      "midi": 56,
      "hit": false,
      "t": 165660.28850000017,
      "d": 319.43214583332883,
      "v": 85
    },
    {
      "midi": 59,
      "hit": false,
      "t": 165660.28850000017,
      "d": 319.43214583332883,
      "v": 85
    },
    {
      "midi": 44,
      "hit": false,
      "t": 165993.60900000017,
      "d": 319.43214583332883,
      "v": 85
    },
    {
      "midi": 51,
      "hit": false,
      "t": 165993.60900000017,
      "d": 319.43214583332883,
      "v": 85
    },
    {
      "midi": 56,
      "hit": false,
      "t": 165993.60900000017,
      "d": 319.43214583332883,
      "v": 85
    },
    {
      "midi": 59,
      "hit": false,
      "t": 165993.60900000017,
      "d": 319.43214583332883,
      "v": 85
    },
    {
      "midi": 44,
      "hit": false,
      "t": 166326.92950000017,
      "d": 319.43214583332883,
      "v": 85
    },
    {
      "midi": 51,
      "hit": false,
      "t": 166326.92950000017,
      "d": 319.43214583332883,
      "v": 85
    },
    {
      "midi": 56,
      "hit": false,
      "t": 166326.92950000017,
      "d": 319.43214583332883,
      "v": 85
    },
    {
      "midi": 59,
      "hit": false,
      "t": 166326.92950000017,
      "d": 326.3763229166507,
      "v": 85
    },
    {
      "midi": 44,
      "hit": false,
      "t": 166660.25000000015,
      "d": 319.43214583332883,
      "v": 85
    },
    {
      "midi": 51,
      "hit": false,
      "t": 166660.25000000015,
      "d": 319.43214583332883,
      "v": 85
    },
    {
      "midi": 56,
      "hit": false,
      "t": 166660.25000000015,
      "d": 319.43214583332883,
      "v": 85
    },
    {
      "midi": 59,
      "hit": false,
      "t": 166660.25000000015,
      "d": 319.43214583332883,
      "v": 85
    },
    {
      "midi": 51,
      "hit": false,
      "t": 166993.57050000015,
      "d": 319.43214583332883,
      "v": 85
    },
    {
      "midi": 56,
      "hit": false,
      "t": 166993.57050000015,
      "d": 319.43214583332883,
      "v": 88
    },
    {
      "midi": 44,
      "hit": false,
      "t": 166993.57050000015,
      "d": 326.3763229166507,
      "v": 85
    },
    {
      "midi": 59,
      "hit": false,
      "t": 166993.57050000015,
      "d": 326.3763229166507,
      "v": 85
    },
    {
      "midi": 44,
      "hit": false,
      "t": 167326.89100000012,
      "d": 319.43214583332883,
      "v": 85
    },
    {
      "midi": 51,
      "hit": false,
      "t": 167326.89100000012,
      "d": 319.43214583332883,
      "v": 85
    },
    {
      "midi": 56,
      "hit": false,
      "t": 167326.89100000012,
      "d": 319.43214583332883,
      "v": 89
    },
    {
      "midi": 59,
      "hit": false,
      "t": 167326.89100000012,
      "d": 319.43214583332883,
      "v": 86
    },
    {
      "midi": 44,
      "hit": false,
      "t": 167660.21150000012,
      "d": 319.43214583332883,
      "v": 85
    },
    {
      "midi": 51,
      "hit": false,
      "t": 167660.21150000012,
      "d": 319.43214583332883,
      "v": 85
    },
    {
      "midi": 56,
      "hit": false,
      "t": 167660.21150000012,
      "d": 319.43214583332883,
      "v": 91
    },
    {
      "midi": 59,
      "hit": false,
      "t": 167660.21150000012,
      "d": 319.43214583332883,
      "v": 89
    },
    {
      "midi": 61,
      "hit": false,
      "t": 167993.53200000012,
      "d": 312.487968750007,
      "v": 74
    },
    {
      "midi": 45,
      "hit": false,
      "t": 167993.53200000012,
      "d": 319.43214583332883,
      "v": 46
    },
    {
      "midi": 52,
      "hit": false,
      "t": 167993.53200000012,
      "d": 319.43214583332883,
      "v": 74
    },
    {
      "midi": 57,
      "hit": false,
      "t": 167993.53200000012,
      "d": 319.43214583332883,
      "v": 59
    },
    {
      "midi": 45,
      "hit": false,
      "t": 168326.85250000012,
      "d": 319.43214583332883,
      "v": 42
    },
    {
      "midi": 52,
      "hit": false,
      "t": 168326.85250000012,
      "d": 319.43214583332883,
      "v": 59
    },
    {
      "midi": 61,
      "hit": false,
      "t": 168326.85250000012,
      "d": 319.43214583332883,
      "v": 59
    },
    {
      "midi": 57,
      "hit": false,
      "t": 168326.85250000012,
      "d": 326.3763229166507,
      "v": 49
    },
    {
      "midi": 52,
      "hit": false,
      "t": 168660.1730000001,
      "d": 319.43214583332883,
      "v": 85
    },
    {
      "midi": 57,
      "hit": false,
      "t": 168660.1730000001,
      "d": 319.43214583332883,
      "v": 78
    },
    {
      "midi": 61,
      "hit": false,
      "t": 168660.1730000001,
      "d": 319.43214583332883,
      "v": 85
    },
    {
      "midi": 45,
      "hit": false,
      "t": 168660.1730000001,
      "d": 326.3763229166507,
      "v": 70
    },
    {
      "midi": 52,
      "hit": false,
      "t": 168993.49350000007,
      "d": 319.43214583332883,
      "v": 61
    },
    {
      "midi": 61,
      "hit": false,
      "t": 168993.49350000007,
      "d": 319.43214583332883,
      "v": 71
    },
    {
      "midi": 45,
      "hit": false,
      "t": 168993.49350000007,
      "d": 326.3763229166507,
      "v": 49
    },
    {
      "midi": 57,
      "hit": false,
      "t": 168993.49350000007,
      "d": 326.3763229166507,
      "v": 52
    },
    {
      "midi": 45,
      "hit": false,
      "t": 169326.81400000004,
      "d": 319.43214583332883,
      "v": 46
    },
    {
      "midi": 52,
      "hit": false,
      "t": 169326.81400000004,
      "d": 319.43214583332883,
      "v": 74
    },
    {
      "midi": 57,
      "hit": false,
      "t": 169326.81400000004,
      "d": 319.43214583332883,
      "v": 53
    },
    {
      "midi": 61,
      "hit": false,
      "t": 169326.81400000004,
      "d": 319.43214583332883,
      "v": 70
    },
    {
      "midi": 45,
      "hit": false,
      "t": 169660.13450000004,
      "d": 319.43214583332883,
      "v": 49
    },
    {
      "midi": 57,
      "hit": false,
      "t": 169660.13450000004,
      "d": 319.43214583332883,
      "v": 55
    },
    {
      "midi": 61,
      "hit": false,
      "t": 169660.13450000004,
      "d": 319.43214583332883,
      "v": 67
    },
    {
      "midi": 52,
      "hit": false,
      "t": 169660.13450000004,
      "d": 326.3763229166507,
      "v": 60
    },
    {
      "midi": 45,
      "hit": false,
      "t": 169993.45500000002,
      "d": 319.43214583332883,
      "v": 74
    },
    {
      "midi": 52,
      "hit": false,
      "t": 169993.45500000002,
      "d": 319.43214583332883,
      "v": 85
    },
    {
      "midi": 57,
      "hit": false,
      "t": 169993.45500000002,
      "d": 319.43214583332883,
      "v": 88
    },
    {
      "midi": 61,
      "hit": false,
      "t": 169993.45500000002,
      "d": 319.43214583332883,
      "v": 85
    },
    {
      "midi": 45,
      "hit": false,
      "t": 170326.77550000002,
      "d": 319.43214583332883,
      "v": 52
    },
    {
      "midi": 52,
      "hit": false,
      "t": 170326.77550000002,
      "d": 319.43214583332883,
      "v": 85
    },
    {
      "midi": 57,
      "hit": false,
      "t": 170326.77550000002,
      "d": 319.43214583332883,
      "v": 59
    },
    {
      "midi": 61,
      "hit": false,
      "t": 170326.77550000002,
      "d": 319.43214583332883,
      "v": 85
    },
    {
      "midi": 52,
      "hit": false,
      "t": 170660.09600000002,
      "d": 319.43214583332883,
      "v": 59
    },
    {
      "midi": 56,
      "hit": false,
      "t": 170660.09600000002,
      "d": 319.43214583332883,
      "v": 65
    },
    {
      "midi": 59,
      "hit": false,
      "t": 170660.09600000002,
      "d": 319.43214583332883,
      "v": 72
    },
    {
      "midi": 44,
      "hit": false,
      "t": 170660.09600000002,
      "d": 326.3763229166507,
      "v": 64
    },
    {
      "midi": 44,
      "hit": false,
      "t": 170993.4165,
      "d": 319.43214583332883,
      "v": 71
    },
    {
      "midi": 52,
      "hit": false,
      "t": 170993.4165,
      "d": 319.43214583332883,
      "v": 60
    },
    {
      "midi": 56,
      "hit": false,
      "t": 170993.4165,
      "d": 319.43214583332883,
      "v": 69
    },
    {
      "midi": 59,
      "hit": false,
      "t": 170993.4165,
      "d": 319.43214583332883,
      "v": 85
    },
    {
      "midi": 52,
      "hit": false,
      "t": 171326.737,
      "d": 319.43214583332883,
      "v": 85
    },
    {
      "midi": 44,
      "hit": false,
      "t": 171326.737,
      "d": 326.3763229166507,
      "v": 85
    },
    {
      "midi": 56,
      "hit": false,
      "t": 171326.737,
      "d": 326.3763229166507,
      "v": 86
    },
    {
      "midi": 59,
      "hit": false,
      "t": 171326.737,
      "d": 326.3763229166507,
      "v": 89
    },
    {
      "midi": 44,
      "hit": false,
      "t": 171660.05749999997,
      "d": 319.43214583332883,
      "v": 68
    },
    {
      "midi": 56,
      "hit": false,
      "t": 171660.05749999997,
      "d": 319.43214583332883,
      "v": 67
    },
    {
      "midi": 59,
      "hit": false,
      "t": 171660.05749999997,
      "d": 319.43214583332883,
      "v": 78
    },
    {
      "midi": 52,
      "hit": false,
      "t": 171660.05749999997,
      "d": 326.3763229166507,
      "v": 52
    },
    {
      "midi": 52,
      "hit": false,
      "t": 171993.37799999994,
      "d": 326.3763229166798,
      "v": 67
    },
    {
      "midi": 56,
      "hit": false,
      "t": 171993.37799999994,
      "d": 326.3763229166798,
      "v": 78
    },
    {
      "midi": 62,
      "hit": false,
      "t": 171993.37799999994,
      "d": 326.3763229166798,
      "v": 64
    },
    {
      "midi": 44,
      "hit": false,
      "t": 171993.37799999994,
      "d": 333.32050000000163,
      "v": 69
    },
    {
      "midi": 44,
      "hit": false,
      "t": 172326.69849999994,
      "d": 319.43214583332883,
      "v": 71
    },
    {
      "midi": 52,
      "hit": false,
      "t": 172326.69849999994,
      "d": 319.43214583332883,
      "v": 59
    },
    {
      "midi": 56,
      "hit": false,
      "t": 172326.69849999994,
      "d": 319.43214583332883,
      "v": 72
    },
    {
      "midi": 62,
      "hit": false,
      "t": 172326.69849999994,
      "d": 319.43214583332883,
      "v": 55
    },
    {
      "midi": 44,
      "hit": false,
      "t": 172660.01899999994,
      "d": 319.43214583332883,
      "v": 85
    },
    {
      "midi": 52,
      "hit": false,
      "t": 172660.01899999994,
      "d": 319.43214583332883,
      "v": 85
    },
    {
      "midi": 56,
      "hit": false,
      "t": 172660.01899999994,
      "d": 319.43214583332883,
      "v": 85
    },
    {
      "midi": 62,
      "hit": false,
      "t": 172660.01899999994,
      "d": 319.43214583332883,
      "v": 81
    },
    {
      "midi": 44,
      "hit": false,
      "t": 172993.33949999994,
      "d": 319.43214583332883,
      "v": 69
    },
    {
      "midi": 52,
      "hit": false,
      "t": 172993.33949999994,
      "d": 319.43214583332883,
      "v": 62
    },
    {
      "midi": 56,
      "hit": false,
      "t": 172993.33949999994,
      "d": 319.43214583332883,
      "v": 65
    },
    {
      "midi": 62,
      "hit": false,
      "t": 172993.33949999994,
      "d": 326.3763229166507,
      "v": 55
    },
    {
      "midi": 61,
      "hit": false,
      "t": 173326.65999999992,
      "d": 319.43214583332883,
      "v": 69
    },
    {
      "midi": 45,
      "hit": false,
      "t": 173326.65999999992,
      "d": 326.3763229166507,
      "v": 49
    },
    {
      "midi": 52,
      "hit": false,
      "t": 173326.65999999992,
      "d": 326.3763229166507,
      "v": 79
    },
    {
      "midi": 57,
      "hit": false,
      "t": 173326.65999999992,
      "d": 326.3763229166507,
      "v": 49
    },
    {
      "midi": 45,
      "hit": false,
      "t": 173659.9804999999,
      "d": 319.43214583332883,
      "v": 52
    },
    {
      "midi": 52,
      "hit": false,
      "t": 173659.9804999999,
      "d": 319.43214583332883,
      "v": 72
    },
    {
      "midi": 61,
      "hit": false,
      "t": 173659.9804999999,
      "d": 319.43214583332883,
      "v": 68
    },
    {
      "midi": 57,
      "hit": false,
      "t": 173659.9804999999,
      "d": 326.3763229166507,
      "v": 52
    },
    {
      "midi": 52,
      "hit": false,
      "t": 173993.30099999986,
      "d": 319.43214583332883,
      "v": 85
    },
    {
      "midi": 57,
      "hit": false,
      "t": 173993.30099999986,
      "d": 319.43214583332883,
      "v": 79
    },
    {
      "midi": 45,
      "hit": false,
      "t": 173993.30099999986,
      "d": 326.3763229166507,
      "v": 72
    },
    {
      "midi": 61,
      "hit": false,
      "t": 173993.30099999986,
      "d": 326.3763229166507,
      "v": 85
    },
    {
      "midi": 45,
      "hit": false,
      "t": 174326.62149999983,
      "d": 319.43214583332883,
      "v": 56
    },
    {
      "midi": 57,
      "hit": false,
      "t": 174326.62149999983,
      "d": 319.43214583332883,
      "v": 55
    },
    {
      "midi": 61,
      "hit": false,
      "t": 174326.62149999983,
      "d": 319.43214583332883,
      "v": 74
    },
    {
      "midi": 52,
      "hit": false,
      "t": 174326.62149999983,
      "d": 326.3763229166507,
      "v": 71
    },
    {
      "midi": 52,
      "hit": false,
      "t": 174659.9419999998,
      "d": 319.43214583332883,
      "v": 56
    },
    {
      "midi": 61,
      "hit": false,
      "t": 174659.9419999998,
      "d": 319.43214583332883,
      "v": 62
    },
    {
      "midi": 45,
      "hit": false,
      "t": 174659.9419999998,
      "d": 326.3763229166507,
      "v": 52
    },
    {
      "midi": 57,
      "hit": false,
      "t": 174659.9419999998,
      "d": 326.3763229166507,
      "v": 52
    },
    {
      "midi": 52,
      "hit": false,
      "t": 174993.26249999978,
      "d": 319.43214583332883,
      "v": 61
    },
    {
      "midi": 57,
      "hit": false,
      "t": 174993.26249999978,
      "d": 319.43214583332883,
      "v": 49
    },
    {
      "midi": 61,
      "hit": false,
      "t": 174993.26249999978,
      "d": 319.43214583332883,
      "v": 59
    },
    {
      "midi": 45,
      "hit": false,
      "t": 174993.26249999978,
      "d": 326.3763229166507,
      "v": 53
    },
    {
      "midi": 45,
      "hit": false,
      "t": 175326.58299999975,
      "d": 319.43214583332883,
      "v": 70
    },
    {
      "midi": 52,
      "hit": false,
      "t": 175326.58299999975,
      "d": 319.43214583332883,
      "v": 85
    },
    {
      "midi": 57,
      "hit": false,
      "t": 175326.58299999975,
      "d": 319.43214583332883,
      "v": 79
    },
    {
      "midi": 61,
      "hit": false,
      "t": 175326.58299999975,
      "d": 319.43214583332883,
      "v": 85
    },
    {
      "midi": 45,
      "hit": false,
      "t": 175659.90349999975,
      "d": 319.43214583332883,
      "v": 46
    },
    {
      "midi": 52,
      "hit": false,
      "t": 175659.90349999975,
      "d": 319.43214583332883,
      "v": 56
    },
    {
      "midi": 57,
      "hit": false,
      "t": 175659.90349999975,
      "d": 319.43214583332883,
      "v": 54
    },
    {
      "midi": 61,
      "hit": false,
      "t": 175659.90349999975,
      "d": 326.3763229166507,
      "v": 77
    },
    {
      "midi": 44,
      "hit": false,
      "t": 175993.22399999973,
      "d": 319.43214583332883,
      "v": 62
    },
    {
      "midi": 56,
      "hit": false,
      "t": 175993.22399999973,
      "d": 319.43214583332883,
      "v": 65
    },
    {
      "midi": 59,
      "hit": false,
      "t": 175993.22399999973,
      "d": 319.43214583332883,
      "v": 74
    },
    {
      "midi": 52,
      "hit": false,
      "t": 175993.22399999973,
      "d": 326.3763229166507,
      "v": 57
    },
    {
      "midi": 44,
      "hit": false,
      "t": 176326.5444999997,
      "d": 319.43214583332883,
      "v": 77
    },
    {
      "midi": 52,
      "hit": false,
      "t": 176326.5444999997,
      "d": 319.43214583332883,
      "v": 81
    },
    {
      "midi": 56,
      "hit": false,
      "t": 176326.5444999997,
      "d": 319.43214583332883,
      "v": 67
    },
    {
      "midi": 59,
      "hit": false,
      "t": 176326.5444999997,
      "d": 319.43214583332883,
      "v": 76
    },
    {
      "midi": 44,
      "hit": false,
      "t": 176659.8649999997,
      "d": 319.43214583332883,
      "v": 85
    },
    {
      "midi": 52,
      "hit": false,
      "t": 176659.8649999997,
      "d": 319.43214583332883,
      "v": 85
    },
    {
      "midi": 56,
      "hit": false,
      "t": 176659.8649999997,
      "d": 326.3763229166507,
      "v": 85
    },
    {
      "midi": 59,
      "hit": false,
      "t": 176659.8649999997,
      "d": 326.3763229166507,
      "v": 85
    },
    {
      "midi": 44,
      "hit": false,
      "t": 176993.18549999967,
      "d": 319.43214583332883,
      "v": 62
    },
    {
      "midi": 52,
      "hit": false,
      "t": 176993.18549999967,
      "d": 319.43214583332883,
      "v": 67
    },
    {
      "midi": 56,
      "hit": false,
      "t": 176993.18549999967,
      "d": 319.43214583332883,
      "v": 68
    },
    {
      "midi": 59,
      "hit": false,
      "t": 176993.18549999967,
      "d": 319.43214583332883,
      "v": 78
    },
    {
      "midi": 44,
      "hit": false,
      "t": 177326.50599999967,
      "d": 326.3763229166798,
      "v": 65
    },
    {
      "midi": 52,
      "hit": false,
      "t": 177326.50599999967,
      "d": 326.3763229166798,
      "v": 71
    },
    {
      "midi": 56,
      "hit": false,
      "t": 177326.50599999967,
      "d": 326.3763229166798,
      "v": 85
    },
    {
      "midi": 62,
      "hit": false,
      "t": 177326.50599999967,
      "d": 326.3763229166798,
      "v": 62
    },
    {
      "midi": 44,
      "hit": false,
      "t": 177659.82649999968,
      "d": 319.43214583332883,
      "v": 64
    },
    {
      "midi": 56,
      "hit": false,
      "t": 177659.82649999968,
      "d": 319.43214583332883,
      "v": 81
    },
    {
      "midi": 62,
      "hit": false,
      "t": 177659.82649999968,
      "d": 319.43214583332883,
      "v": 60
    },
    {
      "midi": 52,
      "hit": false,
      "t": 177659.82649999968,
      "d": 326.3763229166507,
      "v": 67
    },
    {
      "midi": 44,
      "hit": false,
      "t": 177993.14699999965,
      "d": 326.3763229166798,
      "v": 85
    },
    {
      "midi": 52,
      "hit": false,
      "t": 177993.14699999965,
      "d": 326.3763229166798,
      "v": 85
    },
    {
      "midi": 56,
      "hit": false,
      "t": 177993.14699999965,
      "d": 326.3763229166798,
      "v": 85
    },
    {
      "midi": 62,
      "hit": false,
      "t": 177993.14699999965,
      "d": 326.3763229166798,
      "v": 76
    },
    {
      "midi": 44,
      "hit": false,
      "t": 178326.46749999965,
      "d": 319.43214583332883,
      "v": 76
    },
    {
      "midi": 52,
      "hit": false,
      "t": 178326.46749999965,
      "d": 319.43214583332883,
      "v": 66
    },
    {
      "midi": 56,
      "hit": false,
      "t": 178326.46749999965,
      "d": 326.3763229166507,
      "v": 59
    },
    {
      "midi": 62,
      "hit": false,
      "t": 178326.46749999965,
      "d": 326.3763229166507,
      "v": 56
    },
    {
      "midi": 45,
      "hit": false,
      "t": 178659.78799999962,
      "d": 326.3763229166798,
      "v": 50
    },
    {
      "midi": 52,
      "hit": false,
      "t": 178659.78799999962,
      "d": 326.3763229166798,
      "v": 79
    },
    {
      "midi": 61,
      "hit": false,
      "t": 178659.78799999962,
      "d": 326.3763229166798,
      "v": 60
    },
    {
      "midi": 57,
      "hit": false,
      "t": 178659.78799999962,
      "d": 333.32050000000163,
      "v": 50
    },
    {
      "midi": 45,
      "hit": false,
      "t": 178993.10849999962,
      "d": 319.43214583332883,
      "v": 47
    },
    {
      "midi": 52,
      "hit": false,
      "t": 178993.10849999962,
      "d": 319.43214583332883,
      "v": 71
    },
    {
      "midi": 57,
      "hit": false,
      "t": 178993.10849999962,
      "d": 319.43214583332883,
      "v": 54
    },
    {
      "midi": 61,
      "hit": false,
      "t": 178993.10849999962,
      "d": 326.3763229166507,
      "v": 65
    },
    {
      "midi": 45,
      "hit": false,
      "t": 179326.4289999996,
      "d": 319.43214583332883,
      "v": 68
    },
    {
      "midi": 52,
      "hit": false,
      "t": 179326.4289999996,
      "d": 319.43214583332883,
      "v": 85
    },
    {
      "midi": 57,
      "hit": false,
      "t": 179326.4289999996,
      "d": 319.43214583332883,
      "v": 77
    },
    {
      "midi": 61,
      "hit": false,
      "t": 179326.4289999996,
      "d": 319.43214583332883,
      "v": 85
    },
    {
      "midi": 45,
      "hit": false,
      "t": 179659.7494999996,
      "d": 319.43214583332883,
      "v": 49
    },
    {
      "midi": 57,
      "hit": false,
      "t": 179659.7494999996,
      "d": 319.43214583332883,
      "v": 47
    },
    {
      "midi": 61,
      "hit": false,
      "t": 179659.7494999996,
      "d": 319.43214583332883,
      "v": 59
    },
    {
      "midi": 52,
      "hit": false,
      "t": 179659.7494999996,
      "d": 326.3763229166507,
      "v": 59
    },
    {
      "midi": 52,
      "hit": false,
      "t": 179993.06999999957,
      "d": 319.43214583332883,
      "v": 79
    },
    {
      "midi": 57,
      "hit": false,
      "t": 179993.06999999957,
      "d": 319.43214583332883,
      "v": 52
    },
    {
      "midi": 45,
      "hit": false,
      "t": 179993.06999999957,
      "d": 326.3763229166507,
      "v": 40
    },
    {
      "midi": 61,
      "hit": false,
      "t": 179993.06999999957,
      "d": 326.3763229166507,
      "v": 69
    },
    {
      "midi": 45,
      "hit": false,
      "t": 180326.39049999954,
      "d": 319.43214583332883,
      "v": 43
    },
    {
      "midi": 52,
      "hit": false,
      "t": 180326.39049999954,
      "d": 319.43214583332883,
      "v": 57
    },
    {
      "midi": 61,
      "hit": false,
      "t": 180326.39049999954,
      "d": 319.43214583332883,
      "v": 66
    },
    {
      "midi": 57,
      "hit": false,
      "t": 180326.39049999954,
      "d": 326.3763229166507,
      "v": 49
    },
    {
      "midi": 45,
      "hit": false,
      "t": 180659.71099999952,
      "d": 319.43214583332883,
      "v": 76
    },
    {
      "midi": 52,
      "hit": false,
      "t": 180659.71099999952,
      "d": 319.43214583332883,
      "v": 85
    },
    {
      "midi": 57,
      "hit": false,
      "t": 180659.71099999952,
      "d": 319.43214583332883,
      "v": 86
    },
    {
      "midi": 61,
      "hit": false,
      "t": 180659.71099999952,
      "d": 319.43214583332883,
      "v": 85
    },
    {
      "midi": 45,
      "hit": false,
      "t": 180993.03149999952,
      "d": 319.43214583332883,
      "v": 52
    },
    {
      "midi": 52,
      "hit": false,
      "t": 180993.03149999952,
      "d": 319.43214583332883,
      "v": 85
    },
    {
      "midi": 57,
      "hit": false,
      "t": 180993.03149999952,
      "d": 319.43214583332883,
      "v": 59
    },
    {
      "midi": 61,
      "hit": false,
      "t": 180993.03149999952,
      "d": 319.43214583332883,
      "v": 70
    },
    {
      "midi": 44,
      "hit": false,
      "t": 181326.35199999952,
      "d": 319.43214583332883,
      "v": 59
    },
    {
      "midi": 56,
      "hit": false,
      "t": 181326.35199999952,
      "d": 319.43214583332883,
      "v": 66
    },
    {
      "midi": 59,
      "hit": false,
      "t": 181326.35199999952,
      "d": 319.43214583332883,
      "v": 72
    },
    {
      "midi": 52,
      "hit": false,
      "t": 181326.35199999952,
      "d": 326.3763229166507,
      "v": 55
    },
    {
      "midi": 44,
      "hit": false,
      "t": 181659.6724999995,
      "d": 319.43214583332883,
      "v": 61
    },
    {
      "midi": 52,
      "hit": false,
      "t": 181659.6724999995,
      "d": 319.43214583332883,
      "v": 61
    },
    {
      "midi": 56,
      "hit": false,
      "t": 181659.6724999995,
      "d": 319.43214583332883,
      "v": 67
    },
    {
      "midi": 59,
      "hit": false,
      "t": 181659.6724999995,
      "d": 319.43214583332883,
      "v": 79
    },
    {
      "midi": 44,
      "hit": false,
      "t": 181992.9929999995,
      "d": 319.43214583332883,
      "v": 85
    },
    {
      "midi": 52,
      "hit": false,
      "t": 181992.9929999995,
      "d": 319.43214583332883,
      "v": 85
    },
    {
      "midi": 56,
      "hit": false,
      "t": 181992.9929999995,
      "d": 319.43214583332883,
      "v": 88
    },
    {
      "midi": 59,
      "hit": false,
      "t": 181992.9929999995,
      "d": 319.43214583332883,
      "v": 85
    },
    {
      "midi": 44,
      "hit": false,
      "t": 182326.3134999995,
      "d": 319.43214583332883,
      "v": 70
    },
    {
      "midi": 56,
      "hit": false,
      "t": 182326.3134999995,
      "d": 319.43214583332883,
      "v": 78
    },
    {
      "midi": 59,
      "hit": false,
      "t": 182326.3134999995,
      "d": 319.43214583332883,
      "v": 85
    },
    {
      "midi": 52,
      "hit": false,
      "t": 182326.3134999995,
      "d": 326.3763229166507,
      "v": 81
    },
    {
      "midi": 44,
      "hit": false,
      "t": 182659.63399999947,
      "d": 319.43214583332883,
      "v": 60
    },
    {
      "midi": 51,
      "hit": false,
      "t": 182659.63399999947,
      "d": 319.43214583332883,
      "v": 59
    },
    {
      "midi": 59,
      "hit": false,
      "t": 182659.63399999947,
      "d": 319.43214583332883,
      "v": 74
    },
    {
      "midi": 56,
      "hit": false,
      "t": 182659.63399999947,
      "d": 326.3763229166507,
      "v": 69
    },
    {
      "midi": 44,
      "hit": false,
      "t": 182992.95449999944,
      "d": 319.43214583332883,
      "v": 67
    },
    {
      "midi": 51,
      "hit": false,
      "t": 182992.95449999944,
      "d": 319.43214583332883,
      "v": 65
    },
    {
      "midi": 59,
      "hit": false,
      "t": 182992.95449999944,
      "d": 319.43214583332883,
      "v": 77
    },
    {
      "midi": 56,
      "hit": false,
      "t": 182992.95449999944,
      "d": 326.3763229166507,
      "v": 78
    },
    {
      "midi": 44,
      "hit": false,
      "t": 183326.2749999994,
      "d": 319.43214583332883,
      "v": 85
    },
    {
      "midi": 51,
      "hit": false,
      "t": 183326.2749999994,
      "d": 319.43214583332883,
      "v": 85
    },
    {
      "midi": 56,
      "hit": false,
      "t": 183326.2749999994,
      "d": 319.43214583332883,
      "v": 85
    },
    {
      "midi": 59,
      "hit": false,
      "t": 183326.2749999994,
      "d": 319.43214583332883,
      "v": 85
    },
    {
      "midi": 44,
      "hit": false,
      "t": 183659.5954999994,
      "d": 319.43214583332883,
      "v": 66
    },
    {
      "midi": 56,
      "hit": false,
      "t": 183659.5954999994,
      "d": 319.43214583332883,
      "v": 64
    },
    {
      "midi": 51,
      "hit": false,
      "t": 183659.5954999994,
      "d": 326.3763229166507,
      "v": 64
    },
    {
      "midi": 59,
      "hit": false,
      "t": 183659.5954999994,
      "d": 326.3763229166507,
      "v": 79
    },
    {
      "midi": 52,
      "hit": false,
      "t": 183992.9159999994,
      "d": 326.3763229166798,
      "v": 76
    },
    {
      "midi": 56,
      "hit": false,
      "t": 183992.9159999994,
      "d": 326.3763229166798,
      "v": 59
    },
    {
      "midi": 44,
      "hit": false,
      "t": 183992.9159999994,
      "d": 333.32050000000163,
      "v": 42
    },
    {
      "midi": 61,
      "hit": false,
      "t": 183992.9159999994,
      "d": 333.32050000000163,
      "v": 69
    },
    {
      "midi": 56,
      "hit": false,
      "t": 184326.2364999994,
      "d": 319.43214583332883,
      "v": 66
    },
    {
      "midi": 61,
      "hit": false,
      "t": 184326.2364999994,
      "d": 319.43214583332883,
      "v": 78
    },
    {
      "midi": 44,
      "hit": false,
      "t": 184326.2364999994,
      "d": 326.3763229166507,
      "v": 67
    },
    {
      "midi": 52,
      "hit": false,
      "t": 184326.2364999994,
      "d": 326.3763229166507,
      "v": 66
    },
    {
      "midi": 44,
      "hit": false,
      "t": 184659.55699999936,
      "d": 326.3763229166798,
      "v": 85
    },
    {
      "midi": 52,
      "hit": false,
      "t": 184659.55699999936,
      "d": 326.3763229166798,
      "v": 85
    },
    {
      "midi": 56,
      "hit": false,
      "t": 184659.55699999936,
      "d": 326.3763229166798,
      "v": 85
    },
    {
      "midi": 61,
      "hit": false,
      "t": 184659.55699999936,
      "d": 326.3763229166798,
      "v": 85
    },
    {
      "midi": 44,
      "hit": false,
      "t": 184992.87749999936,
      "d": 319.43214583332883,
      "v": 69
    },
    {
      "midi": 56,
      "hit": false,
      "t": 184992.87749999936,
      "d": 319.43214583332883,
      "v": 65
    },
    {
      "midi": 61,
      "hit": false,
      "t": 184992.87749999936,
      "d": 319.43214583332883,
      "v": 74
    },
    {
      "midi": 52,
      "hit": false,
      "t": 184992.87749999936,
      "d": 326.3763229166507,
      "v": 64
    },
    {
      "midi": 44,
      "hit": false,
      "t": 185326.19799999933,
      "d": 319.43214583332883,
      "v": 66
    },
    {
      "midi": 56,
      "hit": false,
      "t": 185326.19799999933,
      "d": 319.43214583332883,
      "v": 57
    },
    {
      "midi": 61,
      "hit": false,
      "t": 185326.19799999933,
      "d": 319.43214583332883,
      "v": 78
    },
    {
      "midi": 52,
      "hit": false,
      "t": 185326.19799999933,
      "d": 326.3763229166507,
      "v": 71
    },
    {
      "midi": 52,
      "hit": false,
      "t": 185659.5184999993,
      "d": 319.43214583332883,
      "v": 55
    },
    {
      "midi": 56,
      "hit": false,
      "t": 185659.5184999993,
      "d": 319.43214583332883,
      "v": 55
    },
    {
      "midi": 44,
      "hit": false,
      "t": 185659.5184999993,
      "d": 326.3763229166507,
      "v": 61
    },
    {
      "midi": 61,
      "hit": false,
      "t": 185659.5184999993,
      "d": 326.3763229166507,
      "v": 65
    },
    {
      "midi": 44,
      "hit": false,
      "t": 185992.83899999928,
      "d": 319.43214583332883,
      "v": 85
    },
    {
      "midi": 52,
      "hit": false,
      "t": 185992.83899999928,
      "d": 319.43214583332883,
      "v": 85
    },
    {
      "midi": 56,
      "hit": false,
      "t": 185992.83899999928,
      "d": 319.43214583332883,
      "v": 85
    },
    {
      "midi": 61,
      "hit": false,
      "t": 185992.83899999928,
      "d": 319.43214583332883,
      "v": 85
    },
    {
      "midi": 56,
      "hit": false,
      "t": 186326.15949999928,
      "d": 319.43214583332883,
      "v": 85
    },
    {
      "midi": 44,
      "hit": false,
      "t": 186326.15949999928,
      "d": 326.3763229166507,
      "v": 85
    },
    {
      "midi": 52,
      "hit": false,
      "t": 186326.15949999928,
      "d": 326.3763229166507,
      "v": 85
    },
    {
      "midi": 61,
      "hit": false,
      "t": 186326.15949999928,
      "d": 326.3763229166507,
      "v": 85
    },
    {
      "midi": 42,
      "hit": false,
      "t": 186659.47999999925,
      "d": 319.43214583332883,
      "v": 74
    },
    {
      "midi": 49,
      "hit": false,
      "t": 186659.47999999925,
      "d": 319.43214583332883,
      "v": 74
    },
    {
      "midi": 54,
      "hit": false,
      "t": 186659.47999999925,
      "d": 319.43214583332883,
      "v": 59
    },
    {
      "midi": 58,
      "hit": false,
      "t": 186659.47999999925,
      "d": 319.43214583332883,
      "v": 85
    },
    {
      "midi": 42,
      "hit": false,
      "t": 186992.80049999926,
      "d": 319.43214583332883,
      "v": 55
    },
    {
      "midi": 49,
      "hit": false,
      "t": 186992.80049999926,
      "d": 319.43214583332883,
      "v": 59
    },
    {
      "midi": 54,
      "hit": false,
      "t": 186992.80049999926,
      "d": 319.43214583332883,
      "v": 44
    },
    {
      "midi": 58,
      "hit": false,
      "t": 186992.80049999926,
      "d": 319.43214583332883,
      "v": 69
    },
    {
      "midi": 42,
      "hit": false,
      "t": 187326.12099999926,
      "d": 319.43214583332883,
      "v": 85
    },
    {
      "midi": 49,
      "hit": false,
      "t": 187326.12099999926,
      "d": 319.43214583332883,
      "v": 85
    },
    {
      "midi": 54,
      "hit": false,
      "t": 187326.12099999926,
      "d": 319.43214583332883,
      "v": 85
    },
    {
      "midi": 58,
      "hit": false,
      "t": 187326.12099999926,
      "d": 319.43214583332883,
      "v": 85
    },
    {
      "midi": 42,
      "hit": false,
      "t": 187659.44149999926,
      "d": 319.43214583332883,
      "v": 57
    },
    {
      "midi": 49,
      "hit": false,
      "t": 187659.44149999926,
      "d": 319.43214583332883,
      "v": 69
    },
    {
      "midi": 54,
      "hit": false,
      "t": 187659.44149999926,
      "d": 319.43214583332883,
      "v": 66
    },
    {
      "midi": 58,
      "hit": false,
      "t": 187659.44149999926,
      "d": 319.43214583332883,
      "v": 79
    },
    {
      "midi": 42,
      "hit": false,
      "t": 187992.76199999926,
      "d": 319.43214583332883,
      "v": 59
    },
    {
      "midi": 54,
      "hit": false,
      "t": 187992.76199999926,
      "d": 319.43214583332883,
      "v": 59
    },
    {
      "midi": 58,
      "hit": false,
      "t": 187992.76199999926,
      "d": 319.43214583332883,
      "v": 52
    },
    {
      "midi": 49,
      "hit": false,
      "t": 187992.76199999926,
      "d": 326.3763229166507,
      "v": 62
    },
    {
      "midi": 49,
      "hit": false,
      "t": 188326.08249999923,
      "d": 319.43214583332883,
      "v": 67
    },
    {
      "midi": 58,
      "hit": false,
      "t": 188326.08249999923,
      "d": 319.43214583332883,
      "v": 74
    },
    {
      "midi": 42,
      "hit": false,
      "t": 188326.08249999923,
      "d": 326.3763229166507,
      "v": 72
    },
    {
      "midi": 54,
      "hit": false,
      "t": 188326.08249999923,
      "d": 326.3763229166507,
      "v": 55
    },
    {
      "midi": 42,
      "hit": false,
      "t": 188659.4029999992,
      "d": 319.43214583332883,
      "v": 85
    },
    {
      "midi": 49,
      "hit": false,
      "t": 188659.4029999992,
      "d": 319.43214583332883,
      "v": 85
    },
    {
      "midi": 58,
      "hit": false,
      "t": 188659.4029999992,
      "d": 319.43214583332883,
      "v": 85
    },
    {
      "midi": 54,
      "hit": false,
      "t": 188659.4029999992,
      "d": 326.3763229166507,
      "v": 85
    },
    {
      "midi": 42,
      "hit": false,
      "t": 188992.72349999918,
      "d": 319.43214583332883,
      "v": 54
    },
    {
      "midi": 49,
      "hit": false,
      "t": 188992.72349999918,
      "d": 319.43214583332883,
      "v": 56
    },
    {
      "midi": 58,
      "hit": false,
      "t": 188992.72349999918,
      "d": 319.43214583332883,
      "v": 59
    },
    {
      "midi": 54,
      "hit": false,
      "t": 188992.72349999918,
      "d": 326.3763229166507,
      "v": 59
    },
    {
      "midi": 42,
      "hit": false,
      "t": 189326.04399999915,
      "d": 326.3763229166798,
      "v": 65
    },
    {
      "midi": 49,
      "hit": false,
      "t": 189326.04399999915,
      "d": 326.3763229166798,
      "v": 72
    },
    {
      "midi": 54,
      "hit": false,
      "t": 189326.04399999915,
      "d": 326.3763229166798,
      "v": 64
    },
    {
      "midi": 59,
      "hit": false,
      "t": 189326.04399999915,
      "d": 326.3763229166798,
      "v": 85
    },
    {
      "midi": 42,
      "hit": false,
      "t": 189659.36449999915,
      "d": 319.43214583332883,
      "v": 62
    },
    {
      "midi": 49,
      "hit": false,
      "t": 189659.36449999915,
      "d": 319.43214583332883,
      "v": 71
    },
    {
      "midi": 54,
      "hit": false,
      "t": 189659.36449999915,
      "d": 319.43214583332883,
      "v": 64
    },
    {
      "midi": 59,
      "hit": false,
      "t": 189659.36449999915,
      "d": 326.3763229166507,
      "v": 64
    },
    {
      "midi": 42,
      "hit": false,
      "t": 189992.68499999912,
      "d": 319.43214583332883,
      "v": 85
    },
    {
      "midi": 49,
      "hit": false,
      "t": 189992.68499999912,
      "d": 319.43214583332883,
      "v": 85
    },
    {
      "midi": 54,
      "hit": false,
      "t": 189992.68499999912,
      "d": 319.43214583332883,
      "v": 85
    },
    {
      "midi": 59,
      "hit": false,
      "t": 189992.68499999912,
      "d": 319.43214583332883,
      "v": 85
    },
    {
      "midi": 42,
      "hit": false,
      "t": 190326.00549999913,
      "d": 319.43214583332883,
      "v": 74
    },
    {
      "midi": 54,
      "hit": false,
      "t": 190326.00549999913,
      "d": 319.43214583332883,
      "v": 59
    },
    {
      "midi": 49,
      "hit": false,
      "t": 190326.00549999913,
      "d": 326.3763229166507,
      "v": 76
    },
    {
      "midi": 59,
      "hit": false,
      "t": 190326.00549999913,
      "d": 326.3763229166507,
      "v": 72
    },
    {
      "midi": 49,
      "hit": false,
      "t": 190659.3259999991,
      "d": 319.43214583332883,
      "v": 62
    },
    {
      "midi": 54,
      "hit": false,
      "t": 190659.3259999991,
      "d": 319.43214583332883,
      "v": 67
    },
    {
      "midi": 59,
      "hit": false,
      "t": 190659.3259999991,
      "d": 319.43214583332883,
      "v": 60
    },
    {
      "midi": 42,
      "hit": false,
      "t": 190659.3259999991,
      "d": 326.3763229166507,
      "v": 62
    },
    {
      "midi": 42,
      "hit": false,
      "t": 190992.64649999907,
      "d": 319.43214583332883,
      "v": 62
    },
    {
      "midi": 54,
      "hit": false,
      "t": 190992.64649999907,
      "d": 319.43214583332883,
      "v": 60
    },
    {
      "midi": 59,
      "hit": false,
      "t": 190992.64649999907,
      "d": 319.43214583332883,
      "v": 64
    },
    {
      "midi": 49,
      "hit": false,
      "t": 190992.64649999907,
      "d": 326.3763229166507,
      "v": 53
    },
    {
      "midi": 42,
      "hit": false,
      "t": 191325.96699999904,
      "d": 319.43214583332883,
      "v": 85
    },
    {
      "midi": 49,
      "hit": false,
      "t": 191325.96699999904,
      "d": 319.43214583332883,
      "v": 85
    },
    {
      "midi": 54,
      "hit": false,
      "t": 191325.96699999904,
      "d": 319.43214583332883,
      "v": 86
    },
    {
      "midi": 59,
      "hit": false,
      "t": 191325.96699999904,
      "d": 319.43214583332883,
      "v": 85
    },
    {
      "midi": 59,
      "hit": false,
      "t": 191659.28749999905,
      "d": 319.43214583332883,
      "v": 76
    },
    {
      "midi": 42,
      "hit": false,
      "t": 191659.28749999905,
      "d": 326.3763229166507,
      "v": 62
    },
    {
      "midi": 49,
      "hit": false,
      "t": 191659.28749999905,
      "d": 326.3763229166507,
      "v": 70
    },
    {
      "midi": 54,
      "hit": false,
      "t": 191659.28749999905,
      "d": 326.3763229166507,
      "v": 65
    },
    {
      "midi": 42,
      "hit": false,
      "t": 191992.60799999902,
      "d": 319.43214583332883,
      "v": 66
    },
    {
      "midi": 49,
      "hit": false,
      "t": 191992.60799999902,
      "d": 319.43214583332883,
      "v": 64
    },
    {
      "midi": 54,
      "hit": false,
      "t": 191992.60799999902,
      "d": 319.43214583332883,
      "v": 66
    },
    {
      "midi": 58,
      "hit": false,
      "t": 191992.60799999902,
      "d": 319.43214583332883,
      "v": 85
    },
    {
      "midi": 42,
      "hit": false,
      "t": 192325.92849999902,
      "d": 319.43214583332883,
      "v": 70
    },
    {
      "midi": 49,
      "hit": false,
      "t": 192325.92849999902,
      "d": 319.43214583332883,
      "v": 67
    },
    {
      "midi": 54,
      "hit": false,
      "t": 192325.92849999902,
      "d": 319.43214583332883,
      "v": 56
    },
    {
      "midi": 58,
      "hit": false,
      "t": 192325.92849999902,
      "d": 319.43214583332883,
      "v": 72
    },
    {
      "midi": 42,
      "hit": false,
      "t": 192659.24899999902,
      "d": 319.43214583332883,
      "v": 85
    },
    {
      "midi": 49,
      "hit": false,
      "t": 192659.24899999902,
      "d": 319.43214583332883,
      "v": 85
    },
    {
      "midi": 54,
      "hit": false,
      "t": 192659.24899999902,
      "d": 319.43214583332883,
      "v": 85
    },
    {
      "midi": 58,
      "hit": false,
      "t": 192659.24899999902,
      "d": 319.43214583332883,
      "v": 85
    },
    {
      "midi": 42,
      "hit": false,
      "t": 192992.56949999902,
      "d": 326.3763229166798,
      "v": 69
    },
    {
      "midi": 49,
      "hit": false,
      "t": 192992.56949999902,
      "d": 326.3763229166798,
      "v": 70
    },
    {
      "midi": 54,
      "hit": false,
      "t": 192992.56949999902,
      "d": 326.3763229166798,
      "v": 62
    },
    {
      "midi": 58,
      "hit": false,
      "t": 192992.56949999902,
      "d": 326.3763229166798,
      "v": 72
    },
    {
      "midi": 42,
      "hit": false,
      "t": 193325.88999999902,
      "d": 319.43214583332883,
      "v": 74
    },
    {
      "midi": 49,
      "hit": false,
      "t": 193325.88999999902,
      "d": 319.43214583332883,
      "v": 68
    },
    {
      "midi": 58,
      "hit": false,
      "t": 193325.88999999902,
      "d": 319.43214583332883,
      "v": 71
    },
    {
      "midi": 54,
      "hit": false,
      "t": 193325.88999999902,
      "d": 326.3763229166507,
      "v": 72
    },
    {
      "midi": 54,
      "hit": false,
      "t": 193659.210499999,
      "d": 326.3763229166798,
      "v": 69
    },
    {
      "midi": 58,
      "hit": false,
      "t": 193659.210499999,
      "d": 326.3763229166798,
      "v": 85
    },
    {
      "midi": 42,
      "hit": false,
      "t": 193659.210499999,
      "d": 333.32050000000163,
      "v": 74
    },
    {
      "midi": 49,
      "hit": false,
      "t": 193659.210499999,
      "d": 333.32050000000163,
      "v": 74
    },
    {
      "midi": 42,
      "hit": false,
      "t": 193992.530999999,
      "d": 319.43214583332883,
      "v": 85
    },
    {
      "midi": 49,
      "hit": false,
      "t": 193992.530999999,
      "d": 319.43214583332883,
      "v": 85
    },
    {
      "midi": 54,
      "hit": false,
      "t": 193992.530999999,
      "d": 319.43214583332883,
      "v": 85
    },
    {
      "midi": 58,
      "hit": false,
      "t": 193992.530999999,
      "d": 326.3763229166507,
      "v": 85
    },
    {
      "midi": 49,
      "hit": false,
      "t": 194325.85149999897,
      "d": 319.43214583332883,
      "v": 77
    },
    {
      "midi": 54,
      "hit": false,
      "t": 194325.85149999897,
      "d": 319.43214583332883,
      "v": 81
    },
    {
      "midi": 58,
      "hit": false,
      "t": 194325.85149999897,
      "d": 319.43214583332883,
      "v": 85
    },
    {
      "midi": 42,
      "hit": false,
      "t": 194325.85149999897,
      "d": 326.3763229166507,
      "v": 70
    },
    {
      "midi": 42,
      "hit": false,
      "t": 194659.17199999894,
      "d": 319.43214583332883,
      "v": 70
    },
    {
      "midi": 49,
      "hit": false,
      "t": 194659.17199999894,
      "d": 319.43214583332883,
      "v": 72
    },
    {
      "midi": 52,
      "hit": false,
      "t": 194659.17199999894,
      "d": 319.43214583332883,
      "v": 79
    },
    {
      "midi": 59,
      "hit": false,
      "t": 194659.17199999894,
      "d": 319.43214583332883,
      "v": 85
    },
    {
      "midi": 49,
      "hit": false,
      "t": 194992.49249999895,
      "d": 319.43214583332883,
      "v": 55
    },
    {
      "midi": 52,
      "hit": false,
      "t": 194992.49249999895,
      "d": 319.43214583332883,
      "v": 77
    },
    {
      "midi": 59,
      "hit": false,
      "t": 194992.49249999895,
      "d": 319.43214583332883,
      "v": 85
    },
    {
      "midi": 42,
      "hit": false,
      "t": 194992.49249999895,
      "d": 326.3763229166507,
      "v": 67
    },
    {
      "midi": 42,
      "hit": false,
      "t": 195325.81299999892,
      "d": 319.43214583332883,
      "v": 85
    },
    {
      "midi": 49,
      "hit": false,
      "t": 195325.81299999892,
      "d": 319.43214583332883,
      "v": 85
    },
    {
      "midi": 52,
      "hit": false,
      "t": 195325.81299999892,
      "d": 319.43214583332883,
      "v": 89
    },
    {
      "midi": 59,
      "hit": false,
      "t": 195325.81299999892,
      "d": 319.43214583332883,
      "v": 86
    },
    {
      "midi": 42,
      "hit": false,
      "t": 195659.13349999892,
      "d": 319.43214583332883,
      "v": 65
    },
    {
      "midi": 52,
      "hit": false,
      "t": 195659.13349999892,
      "d": 319.43214583332883,
      "v": 81
    },
    {
      "midi": 59,
      "hit": false,
      "t": 195659.13349999892,
      "d": 319.43214583332883,
      "v": 74
    },
    {
      "midi": 49,
      "hit": false,
      "t": 195659.13349999892,
      "d": 326.3763229166507,
      "v": 77
    },
    {
      "midi": 42,
      "hit": false,
      "t": 195992.4539999989,
      "d": 319.43214583332883,
      "v": 66
    },
    {
      "midi": 49,
      "hit": false,
      "t": 195992.4539999989,
      "d": 319.43214583332883,
      "v": 68
    },
    {
      "midi": 52,
      "hit": false,
      "t": 195992.4539999989,
      "d": 319.43214583332883,
      "v": 79
    },
    {
      "midi": 59,
      "hit": false,
      "t": 195992.4539999989,
      "d": 319.43214583332883,
      "v": 85
    },
    {
      "midi": 49,
      "hit": false,
      "t": 196325.7744999989,
      "d": 319.43214583332883,
      "v": 62
    },
    {
      "midi": 52,
      "hit": false,
      "t": 196325.7744999989,
      "d": 319.43214583332883,
      "v": 59
    },
    {
      "midi": 59,
      "hit": false,
      "t": 196325.7744999989,
      "d": 319.43214583332883,
      "v": 79
    },
    {
      "midi": 42,
      "hit": false,
      "t": 196325.7744999989,
      "d": 326.3763229166507,
      "v": 64
    },
    {
      "midi": 42,
      "hit": false,
      "t": 196659.09499999887,
      "d": 319.43214583332883,
      "v": 85
    },
    {
      "midi": 49,
      "hit": false,
      "t": 196659.09499999887,
      "d": 319.43214583332883,
      "v": 85
    },
    {
      "midi": 52,
      "hit": false,
      "t": 196659.09499999887,
      "d": 319.43214583332883,
      "v": 85
    },
    {
      "midi": 59,
      "hit": false,
      "t": 196659.09499999887,
      "d": 319.43214583332883,
      "v": 85
    },
    {
      "midi": 42,
      "hit": false,
      "t": 196992.41549999887,
      "d": 319.43214583332883,
      "v": 66
    },
    {
      "midi": 49,
      "hit": false,
      "t": 196992.41549999887,
      "d": 319.43214583332883,
      "v": 64
    },
    {
      "midi": 52,
      "hit": false,
      "t": 196992.41549999887,
      "d": 319.43214583332883,
      "v": 59
    },
    {
      "midi": 59,
      "hit": false,
      "t": 196992.41549999887,
      "d": 319.43214583332883,
      "v": 85
    },
    {
      "midi": 42,
      "hit": false,
      "t": 197325.73599999887,
      "d": 319.43214583332883,
      "v": 59
    },
    {
      "midi": 49,
      "hit": false,
      "t": 197325.73599999887,
      "d": 319.43214583332883,
      "v": 67
    },
    {
      "midi": 52,
      "hit": false,
      "t": 197325.73599999887,
      "d": 319.43214583332883,
      "v": 68
    },
    {
      "midi": 58,
      "hit": false,
      "t": 197325.73599999887,
      "d": 319.43214583332883,
      "v": 85
    },
    {
      "midi": 42,
      "hit": false,
      "t": 197659.05649999887,
      "d": 319.43214583332883,
      "v": 67
    },
    {
      "midi": 49,
      "hit": false,
      "t": 197659.05649999887,
      "d": 319.43214583332883,
      "v": 60
    },
    {
      "midi": 58,
      "hit": false,
      "t": 197659.05649999887,
      "d": 319.43214583332883,
      "v": 76
    },
    {
      "midi": 52,
      "hit": false,
      "t": 197659.05649999887,
      "d": 326.3763229166507,
      "v": 60
    },
    {
      "midi": 42,
      "hit": false,
      "t": 197992.37699999884,
      "d": 319.43214583332883,
      "v": 85
    },
    {
      "midi": 52,
      "hit": false,
      "t": 197992.37699999884,
      "d": 319.43214583332883,
      "v": 85
    },
    {
      "midi": 58,
      "hit": false,
      "t": 197992.37699999884,
      "d": 319.43214583332883,
      "v": 85
    },
    {
      "midi": 49,
      "hit": false,
      "t": 197992.37699999884,
      "d": 326.3763229166507,
      "v": 85
    },
    {
      "midi": 42,
      "hit": false,
      "t": 198325.69749999882,
      "d": 326.3763229166798,
      "v": 62
    },
    {
      "midi": 49,
      "hit": false,
      "t": 198325.69749999882,
      "d": 326.3763229166798,
      "v": 61
    },
    {
      "midi": 52,
      "hit": false,
      "t": 198325.69749999882,
      "d": 326.3763229166798,
      "v": 62
    },
    {
      "midi": 58,
      "hit": false,
      "t": 198325.69749999882,
      "d": 326.3763229166798,
      "v": 82
    },
    {
      "midi": 42,
      "hit": false,
      "t": 198659.01799999882,
      "d": 319.43214583332883,
      "v": 62
    },
    {
      "midi": 49,
      "hit": false,
      "t": 198659.01799999882,
      "d": 319.43214583332883,
      "v": 65
    },
    {
      "midi": 52,
      "hit": false,
      "t": 198659.01799999882,
      "d": 319.43214583332883,
      "v": 66
    },
    {
      "midi": 57,
      "hit": false,
      "t": 198659.01799999882,
      "d": 319.43214583332883,
      "v": 59
    },
    {
      "midi": 57,
      "hit": false,
      "t": 198992.33849999882,
      "d": 326.3763229166798,
      "v": 64
    },
    {
      "midi": 42,
      "hit": false,
      "t": 198992.33849999882,
      "d": 333.32050000000163,
      "v": 76
    },
    {
      "midi": 49,
      "hit": false,
      "t": 198992.33849999882,
      "d": 333.32050000000163,
      "v": 62
    },
    {
      "midi": 52,
      "hit": false,
      "t": 198992.33849999882,
      "d": 333.32050000000163,
      "v": 74
    },
    {
      "midi": 42,
      "hit": false,
      "t": 199325.65899999882,
      "d": 319.43214583332883,
      "v": 85
    },
    {
      "midi": 52,
      "hit": false,
      "t": 199325.65899999882,
      "d": 319.43214583332883,
      "v": 91
    },
    {
      "midi": 57,
      "hit": false,
      "t": 199325.65899999882,
      "d": 319.43214583332883,
      "v": 99
    },
    {
      "midi": 49,
      "hit": false,
      "t": 199325.65899999882,
      "d": 326.3763229166507,
      "v": 85
    },
    {
      "midi": 52,
      "hit": false,
      "t": 199658.9794999988,
      "d": 326.3763229166798,
      "v": 85
    },
    {
      "midi": 57,
      "hit": false,
      "t": 199658.9794999988,
      "d": 326.3763229166798,
      "v": 66
    },
    {
      "midi": 42,
      "hit": false,
      "t": 199658.9794999988,
      "d": 333.32050000000163,
      "v": 74
    },
    {
      "midi": 49,
      "hit": false,
      "t": 199658.9794999988,
      "d": 333.32050000000163,
      "v": 78
    },
    {
      "midi": 42,
      "hit": false,
      "t": 199992.2999999988,
      "d": 319.43214583332883,
      "v": 85
    },
    {
      "midi": 52,
      "hit": false,
      "t": 199992.2999999988,
      "d": 319.43214583332883,
      "v": 85
    },
    {
      "midi": 57,
      "hit": false,
      "t": 199992.2999999988,
      "d": 319.43214583332883,
      "v": 74
    },
    {
      "midi": 49,
      "hit": false,
      "t": 199992.2999999988,
      "d": 326.3763229166507,
      "v": 85
    },
    {
      "midi": 44,
      "hit": false,
      "t": 202658.86399999878,
      "d": 319.43214583332883,
      "v": 44
    },
    {
      "midi": 52,
      "hit": false,
      "t": 202658.86399999878,
      "d": 319.43214583332883,
      "v": 36
    },
    {
      "midi": 56,
      "hit": false,
      "t": 202658.86399999878,
      "d": 319.43214583332883,
      "v": 67
    },
    {
      "midi": 59,
      "hit": false,
      "t": 202658.86399999878,
      "d": 319.43214583332883,
      "v": 72
    },
    {
      "midi": 56,
      "hit": false,
      "t": 202992.18449999878,
      "d": 319.43214583332883,
      "v": 52
    },
    {
      "midi": 59,
      "hit": false,
      "t": 202992.18449999878,
      "d": 319.43214583332883,
      "v": 59
    },
    {
      "midi": 44,
      "hit": false,
      "t": 202992.18449999878,
      "d": 326.3763229166507,
      "v": 61
    },
    {
      "midi": 52,
      "hit": false,
      "t": 202992.18449999878,
      "d": 326.3763229166507,
      "v": 64
    },
    {
      "midi": 44,
      "hit": false,
      "t": 203325.50499999875,
      "d": 319.43214583332883,
      "v": 85
    },
    {
      "midi": 56,
      "hit": false,
      "t": 203325.50499999875,
      "d": 319.43214583332883,
      "v": 85
    },
    {
      "midi": 59,
      "hit": false,
      "t": 203325.50499999875,
      "d": 319.43214583332883,
      "v": 85
    },
    {
      "midi": 52,
      "hit": false,
      "t": 203325.50499999875,
      "d": 326.3763229166507,
      "v": 85
    },
    {
      "midi": 44,
      "hit": false,
      "t": 203658.82549999873,
      "d": 326.3763229166798,
      "v": 59
    },
    {
      "midi": 52,
      "hit": false,
      "t": 203658.82549999873,
      "d": 326.3763229166798,
      "v": 50
    },
    {
      "midi": 56,
      "hit": false,
      "t": 203658.82549999873,
      "d": 326.3763229166798,
      "v": 61
    },
    {
      "midi": 59,
      "hit": false,
      "t": 203658.82549999873,
      "d": 333.32050000000163,
      "v": 72
    },
    {
      "midi": 51,
      "hit": false,
      "t": 203992.14599999873,
      "d": 319.43214583332883,
      "v": 59
    },
    {
      "midi": 56,
      "hit": false,
      "t": 203992.14599999873,
      "d": 319.43214583332883,
      "v": 69
    },
    {
      "midi": 59,
      "hit": false,
      "t": 203992.14599999873,
      "d": 319.43214583332883,
      "v": 78
    },
    {
      "midi": 44,
      "hit": false,
      "t": 203992.14599999873,
      "d": 326.3763229166507,
      "v": 54
    },
    {
      "midi": 56,
      "hit": false,
      "t": 204325.4664999987,
      "d": 326.3763229166798,
      "v": 69
    },
    {
      "midi": 59,
      "hit": false,
      "t": 204325.4664999987,
      "d": 326.3763229166798,
      "v": 77
    },
    {
      "midi": 44,
      "hit": false,
      "t": 204325.4664999987,
      "d": 333.32050000000163,
      "v": 61
    },
    {
      "midi": 51,
      "hit": false,
      "t": 204325.4664999987,
      "d": 333.32050000000163,
      "v": 62
    },
    {
      "midi": 51,
      "hit": false,
      "t": 204658.7869999987,
      "d": 319.43214583332883,
      "v": 85
    },
    {
      "midi": 56,
      "hit": false,
      "t": 204658.7869999987,
      "d": 319.43214583332883,
      "v": 91
    },
    {
      "midi": 59,
      "hit": false,
      "t": 204658.7869999987,
      "d": 319.43214583332883,
      "v": 89
    },
    {
      "midi": 44,
      "hit": false,
      "t": 204658.7869999987,
      "d": 326.3763229166507,
      "v": 85
    },
    {
      "midi": 44,
      "hit": false,
      "t": 204992.10749999867,
      "d": 326.3763229166798,
      "v": 54
    },
    {
      "midi": 56,
      "hit": false,
      "t": 204992.10749999867,
      "d": 326.3763229166798,
      "v": 57
    },
    {
      "midi": 59,
      "hit": false,
      "t": 204992.10749999867,
      "d": 326.3763229166798,
      "v": 66
    },
    {
      "midi": 51,
      "hit": false,
      "t": 204992.10749999867,
      "d": 333.32050000000163,
      "v": 56
    },
    {
      "midi": 44,
      "hit": false,
      "t": 205325.42799999868,
      "d": 319.43214583332883,
      "v": 61
    },
    {
      "midi": 52,
      "hit": false,
      "t": 205325.42799999868,
      "d": 319.43214583332883,
      "v": 55
    },
    {
      "midi": 56,
      "hit": false,
      "t": 205325.42799999868,
      "d": 319.43214583332883,
      "v": 60
    },
    {
      "midi": 61,
      "hit": false,
      "t": 205325.42799999868,
      "d": 319.43214583332883,
      "v": 72
    },
    {
      "midi": 44,
      "hit": false,
      "t": 205658.74849999868,
      "d": 326.3763229166798,
      "v": 60
    },
    {
      "midi": 52,
      "hit": false,
      "t": 205658.74849999868,
      "d": 326.3763229166798,
      "v": 47
    },
    {
      "midi": 61,
      "hit": false,
      "t": 205658.74849999868,
      "d": 326.3763229166798,
      "v": 57
    },
    {
      "midi": 56,
      "hit": false,
      "t": 205658.74849999868,
      "d": 333.32050000000163,
      "v": 55
    },
    {
      "midi": 56,
      "hit": false,
      "t": 205992.06899999868,
      "d": 319.43214583332883,
      "v": 89
    },
    {
      "midi": 61,
      "hit": false,
      "t": 205992.06899999868,
      "d": 319.43214583332883,
      "v": 85
    },
    {
      "midi": 44,
      "hit": false,
      "t": 205992.06899999868,
      "d": 326.3763229166507,
      "v": 85
    },
    {
      "midi": 52,
      "hit": false,
      "t": 205992.06899999868,
      "d": 326.3763229166507,
      "v": 85
    },
    {
      "midi": 44,
      "hit": false,
      "t": 206325.38949999865,
      "d": 326.3763229166798,
      "v": 66
    },
    {
      "midi": 52,
      "hit": false,
      "t": 206325.38949999865,
      "d": 326.3763229166798,
      "v": 59
    },
    {
      "midi": 56,
      "hit": false,
      "t": 206325.38949999865,
      "d": 326.3763229166798,
      "v": 57
    },
    {
      "midi": 61,
      "hit": false,
      "t": 206325.38949999865,
      "d": 326.3763229166798,
      "v": 74
    },
    {
      "midi": 44,
      "hit": false,
      "t": 206658.70999999865,
      "d": 319.43214583332883,
      "v": 59
    },
    {
      "midi": 52,
      "hit": false,
      "t": 206658.70999999865,
      "d": 319.43214583332883,
      "v": 53
    },
    {
      "midi": 59,
      "hit": false,
      "t": 206658.70999999865,
      "d": 319.43214583332883,
      "v": 69
    },
    {
      "midi": 56,
      "hit": false,
      "t": 206658.70999999865,
      "d": 326.3763229166507,
      "v": 53
    },
    {
      "midi": 44,
      "hit": false,
      "t": 206992.03049999863,
      "d": 319.43214583332883,
      "v": 53
    },
    {
      "midi": 52,
      "hit": false,
      "t": 206992.03049999863,
      "d": 319.43214583332883,
      "v": 55
    },
    {
      "midi": 56,
      "hit": false,
      "t": 206992.03049999863,
      "d": 326.3763229166507,
      "v": 59
    },
    {
      "midi": 59,
      "hit": false,
      "t": 206992.03049999863,
      "d": 326.3763229166507,
      "v": 53
    },
    {
      "midi": 44,
      "hit": false,
      "t": 207325.3509999986,
      "d": 319.43214583332883,
      "v": 85
    },
    {
      "midi": 52,
      "hit": false,
      "t": 207325.3509999986,
      "d": 319.43214583332883,
      "v": 85
    },
    {
      "midi": 56,
      "hit": false,
      "t": 207325.3509999986,
      "d": 319.43214583332883,
      "v": 85
    },
    {
      "midi": 59,
      "hit": false,
      "t": 207325.3509999986,
      "d": 319.43214583332883,
      "v": 85
    },
    {
      "midi": 52,
      "hit": false,
      "t": 207658.6714999986,
      "d": 319.43214583332883,
      "v": 52
    },
    {
      "midi": 56,
      "hit": false,
      "t": 207658.6714999986,
      "d": 319.43214583332883,
      "v": 55
    },
    {
      "midi": 59,
      "hit": false,
      "t": 207658.6714999986,
      "d": 319.43214583332883,
      "v": 65
    },
    {
      "midi": 44,
      "hit": false,
      "t": 207658.6714999986,
      "d": 326.3763229166507,
      "v": 44
    },
    {
      "midi": 45,
      "hit": false,
      "t": 207991.99199999857,
      "d": 319.43214583332883,
      "v": 46
    },
    {
      "midi": 52,
      "hit": false,
      "t": 207991.99199999857,
      "d": 319.43214583332883,
      "v": 64
    },
    {
      "midi": 57,
      "hit": false,
      "t": 207991.99199999857,
      "d": 319.43214583332883,
      "v": 50
    },
    {
      "midi": 61,
      "hit": false,
      "t": 207991.99199999857,
      "d": 319.43214583332883,
      "v": 68
    },
    {
      "midi": 61,
      "hit": false,
      "t": 208325.31249999857,
      "d": 319.43214583332883,
      "v": 64
    },
    {
      "midi": 45,
      "hit": false,
      "t": 208325.31249999857,
      "d": 326.3763229166507,
      "v": 43
    },
    {
      "midi": 52,
      "hit": false,
      "t": 208325.31249999857,
      "d": 326.3763229166507,
      "v": 68
    },
    {
      "midi": 57,
      "hit": false,
      "t": 208325.31249999857,
      "d": 326.3763229166507,
      "v": 52
    },
    {
      "midi": 45,
      "hit": false,
      "t": 208658.63299999855,
      "d": 319.43214583332883,
      "v": 72
    },
    {
      "midi": 52,
      "hit": false,
      "t": 208658.63299999855,
      "d": 319.43214583332883,
      "v": 85
    },
    {
      "midi": 57,
      "hit": false,
      "t": 208658.63299999855,
      "d": 319.43214583332883,
      "v": 85
    },
    {
      "midi": 61,
      "hit": false,
      "t": 208658.63299999855,
      "d": 319.43214583332883,
      "v": 91
    },
    {
      "midi": 45,
      "hit": false,
      "t": 208991.95349999855,
      "d": 326.3763229166798,
      "v": 44
    },
    {
      "midi": 52,
      "hit": false,
      "t": 208991.95349999855,
      "d": 326.3763229166798,
      "v": 55
    },
    {
      "midi": 57,
      "hit": false,
      "t": 208991.95349999855,
      "d": 326.3763229166798,
      "v": 52
    },
    {
      "midi": 61,
      "hit": false,
      "t": 208991.95349999855,
      "d": 333.32050000000163,
      "v": 71
    },
    {
      "midi": 45,
      "hit": false,
      "t": 209325.27399999855,
      "d": 326.3763229166798,
      "v": 50
    },
    {
      "midi": 57,
      "hit": false,
      "t": 209325.27399999855,
      "d": 326.3763229166798,
      "v": 46
    },
    {
      "midi": 61,
      "hit": false,
      "t": 209325.27399999855,
      "d": 326.3763229166798,
      "v": 77
    },
    {
      "midi": 52,
      "hit": false,
      "t": 209325.27399999855,
      "d": 333.32050000000163,
      "v": 55
    },
    {
      "midi": 45,
      "hit": false,
      "t": 209658.59449999855,
      "d": 326.3763229166798,
      "v": 52
    },
    {
      "midi": 52,
      "hit": false,
      "t": 209658.59449999855,
      "d": 326.3763229166798,
      "v": 77
    },
    {
      "midi": 57,
      "hit": false,
      "t": 209658.59449999855,
      "d": 326.3763229166798,
      "v": 56
    },
    {
      "midi": 61,
      "hit": false,
      "t": 209658.59449999855,
      "d": 333.32050000000163,
      "v": 85
    },
    {
      "midi": 45,
      "hit": false,
      "t": 209991.91499999855,
      "d": 319.43214583332883,
      "v": 74
    },
    {
      "midi": 52,
      "hit": false,
      "t": 209991.91499999855,
      "d": 319.43214583332883,
      "v": 85
    },
    {
      "midi": 57,
      "hit": false,
      "t": 209991.91499999855,
      "d": 319.43214583332883,
      "v": 79
    },
    {
      "midi": 61,
      "hit": false,
      "t": 209991.91499999855,
      "d": 319.43214583332883,
      "v": 85
    },
    {
      "midi": 52,
      "hit": false,
      "t": 210325.23549999855,
      "d": 326.3763229166798,
      "v": 61
    },
    {
      "midi": 45,
      "hit": false,
      "t": 210325.23549999855,
      "d": 333.32050000000163,
      "v": 43
    },
    {
      "midi": 57,
      "hit": false,
      "t": 210325.23549999855,
      "d": 333.32050000000163,
      "v": 52
    },
    {
      "midi": 61,
      "hit": false,
      "t": 210325.23549999855,
      "d": 333.32050000000163,
      "v": 62
    },
    {
      "midi": 44,
      "hit": false,
      "t": 210658.55599999856,
      "d": 319.43214583332883,
      "v": 59
    },
    {
      "midi": 52,
      "hit": false,
      "t": 210658.55599999856,
      "d": 319.43214583332883,
      "v": 49
    },
    {
      "midi": 56,
      "hit": false,
      "t": 210658.55599999856,
      "d": 319.43214583332883,
      "v": 53
    },
    {
      "midi": 59,
      "hit": false,
      "t": 210658.55599999856,
      "d": 319.43214583332883,
      "v": 60
    },
    {
      "midi": 52,
      "hit": false,
      "t": 210991.87649999856,
      "d": 319.43214583332883,
      "v": 54
    },
    {
      "midi": 44,
      "hit": false,
      "t": 210991.87649999856,
      "d": 326.3763229166507,
      "v": 57
    },
    {
      "midi": 56,
      "hit": false,
      "t": 210991.87649999856,
      "d": 326.3763229166507,
      "v": 49
    },
    {
      "midi": 59,
      "hit": false,
      "t": 210991.87649999856,
      "d": 326.3763229166507,
      "v": 59
    },
    {
      "midi": 52,
      "hit": false,
      "t": 211325.19699999853,
      "d": 319.43214583332883,
      "v": 85
    },
    {
      "midi": 56,
      "hit": false,
      "t": 211325.19699999853,
      "d": 319.43214583332883,
      "v": 89
    },
    {
      "midi": 59,
      "hit": false,
      "t": 211325.19699999853,
      "d": 319.43214583332883,
      "v": 86
    },
    {
      "midi": 44,
      "hit": false,
      "t": 211325.19699999853,
      "d": 326.3763229166507,
      "v": 85
    },
    {
      "midi": 44,
      "hit": false,
      "t": 211658.5174999985,
      "d": 319.43214583332883,
      "v": 67
    },
    {
      "midi": 52,
      "hit": false,
      "t": 211658.5174999985,
      "d": 319.43214583332883,
      "v": 57
    },
    {
      "midi": 59,
      "hit": false,
      "t": 211658.5174999985,
      "d": 319.43214583332883,
      "v": 71
    },
    {
      "midi": 56,
      "hit": false,
      "t": 211658.5174999985,
      "d": 326.3763229166507,
      "v": 57
    },
    {
      "midi": 44,
      "hit": false,
      "t": 211991.83799999848,
      "d": 319.43214583332883,
      "v": 62
    },
    {
      "midi": 52,
      "hit": false,
      "t": 211991.83799999848,
      "d": 319.43214583332883,
      "v": 64
    },
    {
      "midi": 56,
      "hit": false,
      "t": 211991.83799999848,
      "d": 319.43214583332883,
      "v": 60
    },
    {
      "midi": 59,
      "hit": false,
      "t": 211991.83799999848,
      "d": 319.43214583332883,
      "v": 72
    },
    {
      "midi": 44,
      "hit": false,
      "t": 212325.15849999848,
      "d": 319.43214583332883,
      "v": 52
    },
    {
      "midi": 52,
      "hit": false,
      "t": 212325.15849999848,
      "d": 319.43214583332883,
      "v": 52
    },
    {
      "midi": 59,
      "hit": false,
      "t": 212325.15849999848,
      "d": 319.43214583332883,
      "v": 66
    },
    {
      "midi": 56,
      "hit": false,
      "t": 212325.15849999848,
      "d": 326.3763229166507,
      "v": 57
    },
    {
      "midi": 44,
      "hit": false,
      "t": 212658.47899999845,
      "d": 319.43214583332883,
      "v": 85
    },
    {
      "midi": 52,
      "hit": false,
      "t": 212658.47899999845,
      "d": 319.43214583332883,
      "v": 85
    },
    {
      "midi": 56,
      "hit": false,
      "t": 212658.47899999845,
      "d": 319.43214583332883,
      "v": 89
    },
    {
      "midi": 59,
      "hit": false,
      "t": 212658.47899999845,
      "d": 319.43214583332883,
      "v": 89
    },
    {
      "midi": 44,
      "hit": false,
      "t": 212991.79949999845,
      "d": 319.43214583332883,
      "v": 64
    },
    {
      "midi": 52,
      "hit": false,
      "t": 212991.79949999845,
      "d": 319.43214583332883,
      "v": 44
    },
    {
      "midi": 56,
      "hit": false,
      "t": 212991.79949999845,
      "d": 319.43214583332883,
      "v": 67
    },
    {
      "midi": 59,
      "hit": false,
      "t": 212991.79949999845,
      "d": 319.43214583332883,
      "v": 70
    },
    {
      "midi": 44,
      "hit": false,
      "t": 213325.11999999845,
      "d": 319.43214583332883,
      "v": 55
    },
    {
      "midi": 52,
      "hit": false,
      "t": 213325.11999999845,
      "d": 319.43214583332883,
      "v": 52
    },
    {
      "midi": 56,
      "hit": false,
      "t": 213325.11999999845,
      "d": 326.3763229166507,
      "v": 62
    },
    {
      "midi": 59,
      "hit": false,
      "t": 213325.11999999845,
      "d": 326.3763229166507,
      "v": 74
    },
    {
      "midi": 44,
      "hit": false,
      "t": 213658.44049999843,
      "d": 319.43214583332883,
      "v": 55
    },
    {
      "midi": 52,
      "hit": false,
      "t": 213658.44049999843,
      "d": 319.43214583332883,
      "v": 58
    },
    {
      "midi": 56,
      "hit": false,
      "t": 213658.44049999843,
      "d": 319.43214583332883,
      "v": 62
    },
    {
      "midi": 59,
      "hit": false,
      "t": 213658.44049999843,
      "d": 319.43214583332883,
      "v": 66
    },
    {
      "midi": 44,
      "hit": false,
      "t": 213991.76099999843,
      "d": 326.3763229166798,
      "v": 91
    },
    {
      "midi": 52,
      "hit": false,
      "t": 213991.76099999843,
      "d": 326.3763229166798,
      "v": 91
    },
    {
      "midi": 56,
      "hit": false,
      "t": 213991.76099999843,
      "d": 326.3763229166798,
      "v": 91
    },
    {
      "midi": 59,
      "hit": false,
      "t": 213991.76099999843,
      "d": 326.3763229166798,
      "v": 91
    },
    {
      "midi": 44,
      "hit": false,
      "t": 214325.08149999843,
      "d": 319.43214583332883,
      "v": 71
    },
    {
      "midi": 52,
      "hit": false,
      "t": 214325.08149999843,
      "d": 319.43214583332883,
      "v": 68
    },
    {
      "midi": 56,
      "hit": false,
      "t": 214325.08149999843,
      "d": 319.43214583332883,
      "v": 65
    },
    {
      "midi": 59,
      "hit": false,
      "t": 214325.08149999843,
      "d": 319.43214583332883,
      "v": 85
    },
    {
      "midi": 51,
      "hit": false,
      "t": 214658.40199999843,
      "d": 326.3763229166798,
      "v": 63
    },
    {
      "midi": 59,
      "hit": false,
      "t": 214658.40199999843,
      "d": 326.3763229166798,
      "v": 80
    },
    {
      "midi": 44,
      "hit": false,
      "t": 214658.40199999843,
      "d": 333.32050000000163,
      "v": 55
    },
    {
      "midi": 56,
      "hit": false,
      "t": 214658.40199999843,
      "d": 333.32050000000163,
      "v": 76
    },
    {
      "midi": 44,
      "hit": false,
      "t": 214991.72249999843,
      "d": 319.43214583332883,
      "v": 62
    },
    {
      "midi": 51,
      "hit": false,
      "t": 214991.72249999843,
      "d": 319.43214583332883,
      "v": 65
    },
    {
      "midi": 56,
      "hit": false,
      "t": 214991.72249999843,
      "d": 319.43214583332883,
      "v": 68
    },
    {
      "midi": 59,
      "hit": false,
      "t": 214991.72249999843,
      "d": 319.43214583332883,
      "v": 80
    },
    {
      "midi": 44,
      "hit": false,
      "t": 215325.04299999843,
      "d": 326.3763229166798,
      "v": 91
    },
    {
      "midi": 51,
      "hit": false,
      "t": 215325.04299999843,
      "d": 326.3763229166798,
      "v": 91
    },
    {
      "midi": 56,
      "hit": false,
      "t": 215325.04299999843,
      "d": 326.3763229166798,
      "v": 91
    },
    {
      "midi": 59,
      "hit": false,
      "t": 215325.04299999843,
      "d": 326.3763229166798,
      "v": 91
    },
    {
      "midi": 51,
      "hit": false,
      "t": 215658.36349999844,
      "d": 319.43214583332883,
      "v": 72
    },
    {
      "midi": 56,
      "hit": false,
      "t": 215658.36349999844,
      "d": 319.43214583332883,
      "v": 63
    },
    {
      "midi": 59,
      "hit": false,
      "t": 215658.36349999844,
      "d": 319.43214583332883,
      "v": 73
    },
    {
      "midi": 44,
      "hit": false,
      "t": 215658.36349999844,
      "d": 326.3763229166507,
      "v": 68
    },
    {
      "midi": 56,
      "hit": false,
      "t": 215991.6839999984,
      "d": 319.43214583332883,
      "v": 65
    },
    {
      "midi": 44,
      "hit": false,
      "t": 215991.6839999984,
      "d": 326.3763229166507,
      "v": 66
    },
    {
      "midi": 52,
      "hit": false,
      "t": 215991.6839999984,
      "d": 326.3763229166507,
      "v": 68
    },
    {
      "midi": 61,
      "hit": false,
      "t": 215991.6839999984,
      "d": 326.3763229166507,
      "v": 77
    },
    {
      "midi": 44,
      "hit": false,
      "t": 216325.00449999838,
      "d": 319.43214583332883,
      "v": 60
    },
    {
      "midi": 52,
      "hit": false,
      "t": 216325.00449999838,
      "d": 319.43214583332883,
      "v": 63
    },
    {
      "midi": 56,
      "hit": false,
      "t": 216325.00449999838,
      "d": 319.43214583332883,
      "v": 63
    },
    {
      "midi": 61,
      "hit": false,
      "t": 216325.00449999838,
      "d": 319.43214583332883,
      "v": 80
    },
    {
      "midi": 44,
      "hit": false,
      "t": 216658.32499999838,
      "d": 319.43214583332883,
      "v": 91
    },
    {
      "midi": 52,
      "hit": false,
      "t": 216658.32499999838,
      "d": 319.43214583332883,
      "v": 91
    },
    {
      "midi": 56,
      "hit": false,
      "t": 216658.32499999838,
      "d": 319.43214583332883,
      "v": 91
    },
    {
      "midi": 61,
      "hit": false,
      "t": 216658.32499999838,
      "d": 319.43214583332883,
      "v": 91
    },
    {
      "midi": 44,
      "hit": false,
      "t": 216991.64549999838,
      "d": 319.43214583332883,
      "v": 66
    },
    {
      "midi": 52,
      "hit": false,
      "t": 216991.64549999838,
      "d": 319.43214583332883,
      "v": 65
    },
    {
      "midi": 56,
      "hit": false,
      "t": 216991.64549999838,
      "d": 319.43214583332883,
      "v": 62
    },
    {
      "midi": 61,
      "hit": false,
      "t": 216991.64549999838,
      "d": 319.43214583332883,
      "v": 87
    },
    {
      "midi": 44,
      "hit": false,
      "t": 217324.96599999839,
      "d": 319.43214583332883,
      "v": 68
    },
    {
      "midi": 52,
      "hit": false,
      "t": 217324.96599999839,
      "d": 326.3763229166507,
      "v": 67
    },
    {
      "midi": 56,
      "hit": false,
      "t": 217324.96599999839,
      "d": 326.3763229166507,
      "v": 62
    },
    {
      "midi": 59,
      "hit": false,
      "t": 217324.96599999839,
      "d": 326.3763229166507,
      "v": 66
    },
    {
      "midi": 44,
      "hit": false,
      "t": 217658.28649999836,
      "d": 319.43214583332883,
      "v": 67
    },
    {
      "midi": 52,
      "hit": false,
      "t": 217658.28649999836,
      "d": 319.43214583332883,
      "v": 65
    },
    {
      "midi": 56,
      "hit": false,
      "t": 217658.28649999836,
      "d": 319.43214583332883,
      "v": 62
    },
    {
      "midi": 59,
      "hit": false,
      "t": 217658.28649999836,
      "d": 319.43214583332883,
      "v": 71
    },
    {
      "midi": 44,
      "hit": false,
      "t": 217991.60699999836,
      "d": 319.43214583332883,
      "v": 91
    },
    {
      "midi": 52,
      "hit": false,
      "t": 217991.60699999836,
      "d": 319.43214583332883,
      "v": 91
    },
    {
      "midi": 56,
      "hit": false,
      "t": 217991.60699999836,
      "d": 319.43214583332883,
      "v": 91
    },
    {
      "midi": 59,
      "hit": false,
      "t": 217991.60699999836,
      "d": 319.43214583332883,
      "v": 91
    },
    {
      "midi": 44,
      "hit": false,
      "t": 218324.92749999836,
      "d": 319.43214583332883,
      "v": 75
    },
    {
      "midi": 52,
      "hit": false,
      "t": 218324.92749999836,
      "d": 319.43214583332883,
      "v": 66
    },
    {
      "midi": 56,
      "hit": false,
      "t": 218324.92749999836,
      "d": 319.43214583332883,
      "v": 71
    },
    {
      "midi": 59,
      "hit": false,
      "t": 218324.92749999836,
      "d": 319.43214583332883,
      "v": 75
    },
    {
      "midi": 46,
      "hit": false,
      "t": 218658.24799999836,
      "d": 319.43214583332883,
      "v": 62
    },
    {
      "midi": 52,
      "hit": false,
      "t": 218658.24799999836,
      "d": 319.43214583332883,
      "v": 63
    },
    {
      "midi": 55,
      "hit": false,
      "t": 218658.24799999836,
      "d": 319.43214583332883,
      "v": 61
    },
    {
      "midi": 58,
      "hit": false,
      "t": 218658.24799999836,
      "d": 319.43214583332883,
      "v": 83
    },
    {
      "midi": 46,
      "hit": false,
      "t": 218991.56849999836,
      "d": 319.43214583332883,
      "v": 75
    },
    {
      "midi": 52,
      "hit": false,
      "t": 218991.56849999836,
      "d": 319.43214583332883,
      "v": 66
    },
    {
      "midi": 55,
      "hit": false,
      "t": 218991.56849999836,
      "d": 319.43214583332883,
      "v": 58
    },
    {
      "midi": 58,
      "hit": false,
      "t": 218991.56849999836,
      "d": 319.43214583332883,
      "v": 80
    },
    {
      "midi": 52,
      "hit": false,
      "t": 219324.88899999837,
      "d": 319.43214583332883,
      "v": 91
    },
    {
      "midi": 55,
      "hit": false,
      "t": 219324.88899999837,
      "d": 319.43214583332883,
      "v": 82
    },
    {
      "midi": 46,
      "hit": false,
      "t": 219324.88899999837,
      "d": 326.3763229166507,
      "v": 91
    },
    {
      "midi": 58,
      "hit": false,
      "t": 219324.88899999837,
      "d": 326.3763229166507,
      "v": 91
    },
    {
      "midi": 46,
      "hit": false,
      "t": 219658.20949999834,
      "d": 319.43214583332883,
      "v": 63
    },
    {
      "midi": 52,
      "hit": false,
      "t": 219658.20949999834,
      "d": 319.43214583332883,
      "v": 83
    },
    {
      "midi": 55,
      "hit": false,
      "t": 219658.20949999834,
      "d": 319.43214583332883,
      "v": 58
    },
    {
      "midi": 58,
      "hit": false,
      "t": 219658.20949999834,
      "d": 319.43214583332883,
      "v": 91
    },
    {
      "midi": 57,
      "hit": false,
      "t": 219991.52999999834,
      "d": 326.3763229166798,
      "v": 60
    },
    {
      "midi": 61,
      "hit": false,
      "t": 219991.52999999834,
      "d": 326.3763229166798,
      "v": 91
    },
    {
      "midi": 45,
      "hit": false,
      "t": 219991.52999999834,
      "d": 333.32050000000163,
      "v": 55
    },
    {
      "midi": 52,
      "hit": false,
      "t": 219991.52999999834,
      "d": 333.32050000000163,
      "v": 82
    },
    {
      "midi": 45,
      "hit": false,
      "t": 220324.85049999834,
      "d": 319.43214583332883,
      "v": 53
    },
    {
      "midi": 52,
      "hit": false,
      "t": 220324.85049999834,
      "d": 319.43214583332883,
      "v": 62
    },
    {
      "midi": 57,
      "hit": false,
      "t": 220324.85049999834,
      "d": 319.43214583332883,
      "v": 62
    },
    {
      "midi": 61,
      "hit": false,
      "t": 220324.85049999834,
      "d": 319.43214583332883,
      "v": 77
    },
    {
      "midi": 45,
      "hit": false,
      "t": 220658.17099999834,
      "d": 326.3763229166798,
      "v": 80
    },
    {
      "midi": 52,
      "hit": false,
      "t": 220658.17099999834,
      "d": 326.3763229166798,
      "v": 91
    },
    {
      "midi": 57,
      "hit": false,
      "t": 220658.17099999834,
      "d": 326.3763229166798,
      "v": 90
    },
    {
      "midi": 61,
      "hit": false,
      "t": 220658.17099999834,
      "d": 326.3763229166798,
      "v": 91
    },
    {
      "midi": 45,
      "hit": false,
      "t": 220991.49149999834,
      "d": 319.43214583332883,
      "v": 58
    },
    {
      "midi": 52,
      "hit": false,
      "t": 220991.49149999834,
      "d": 319.43214583332883,
      "v": 83
    },
    {
      "midi": 57,
      "hit": false,
      "t": 220991.49149999834,
      "d": 319.43214583332883,
      "v": 65
    },
    {
      "midi": 61,
      "hit": false,
      "t": 220991.49149999834,
      "d": 319.43214583332883,
      "v": 87
    },
    {
      "midi": 44,
      "hit": false,
      "t": 221324.81199999835,
      "d": 326.3763229166798,
      "v": 67
    },
    {
      "midi": 52,
      "hit": false,
      "t": 221324.81199999835,
      "d": 326.3763229166798,
      "v": 62
    },
    {
      "midi": 59,
      "hit": false,
      "t": 221324.81199999835,
      "d": 326.3763229166798,
      "v": 72
    },
    {
      "midi": 56,
      "hit": false,
      "t": 221324.81199999835,
      "d": 333.32050000000163,
      "v": 63
    },
    {
      "midi": 44,
      "hit": false,
      "t": 221658.13249999835,
      "d": 319.43214583332883,
      "v": 65
    },
    {
      "midi": 52,
      "hit": false,
      "t": 221658.13249999835,
      "d": 319.43214583332883,
      "v": 70
    },
    {
      "midi": 56,
      "hit": false,
      "t": 221658.13249999835,
      "d": 319.43214583332883,
      "v": 70
    },
    {
      "midi": 59,
      "hit": false,
      "t": 221658.13249999835,
      "d": 319.43214583332883,
      "v": 75
    },
    {
      "midi": 44,
      "hit": false,
      "t": 221991.45299999835,
      "d": 319.43214583332883,
      "v": 91
    },
    {
      "midi": 52,
      "hit": false,
      "t": 221991.45299999835,
      "d": 319.43214583332883,
      "v": 91
    },
    {
      "midi": 56,
      "hit": false,
      "t": 221991.45299999835,
      "d": 319.43214583332883,
      "v": 95
    },
    {
      "midi": 59,
      "hit": false,
      "t": 221991.45299999835,
      "d": 319.43214583332883,
      "v": 94
    },
    {
      "midi": 44,
      "hit": false,
      "t": 222324.77349999835,
      "d": 319.43214583332883,
      "v": 63
    },
    {
      "midi": 56,
      "hit": false,
      "t": 222324.77349999835,
      "d": 319.43214583332883,
      "v": 65
    },
    {
      "midi": 59,
      "hit": false,
      "t": 222324.77349999835,
      "d": 319.43214583332883,
      "v": 74
    },
    {
      "midi": 52,
      "hit": false,
      "t": 222324.77349999835,
      "d": 326.3763229166507,
      "v": 72
    },
    {
      "midi": 44,
      "hit": false,
      "t": 222658.09399999832,
      "d": 319.43214583332883,
      "v": 66
    },
    {
      "midi": 52,
      "hit": false,
      "t": 222658.09399999832,
      "d": 319.43214583332883,
      "v": 62
    },
    {
      "midi": 59,
      "hit": false,
      "t": 222658.09399999832,
      "d": 319.43214583332883,
      "v": 82
    },
    {
      "midi": 56,
      "hit": false,
      "t": 222658.09399999832,
      "d": 326.3763229166507,
      "v": 78
    },
    {
      "midi": 44,
      "hit": false,
      "t": 222991.4144999983,
      "d": 319.43214583332883,
      "v": 63
    },
    {
      "midi": 52,
      "hit": false,
      "t": 222991.4144999983,
      "d": 319.43214583332883,
      "v": 65
    },
    {
      "midi": 56,
      "hit": false,
      "t": 222991.4144999983,
      "d": 319.43214583332883,
      "v": 65
    },
    {
      "midi": 59,
      "hit": false,
      "t": 222991.4144999983,
      "d": 319.43214583332883,
      "v": 75
    },
    {
      "midi": 44,
      "hit": false,
      "t": 223324.7349999983,
      "d": 319.43214583332883,
      "v": 91
    },
    {
      "midi": 52,
      "hit": false,
      "t": 223324.7349999983,
      "d": 319.43214583332883,
      "v": 91
    },
    {
      "midi": 56,
      "hit": false,
      "t": 223324.7349999983,
      "d": 319.43214583332883,
      "v": 94
    },
    {
      "midi": 59,
      "hit": false,
      "t": 223324.7349999983,
      "d": 319.43214583332883,
      "v": 91
    },
    {
      "midi": 44,
      "hit": false,
      "t": 223658.0554999983,
      "d": 319.43214583332883,
      "v": 65
    },
    {
      "midi": 52,
      "hit": false,
      "t": 223658.0554999983,
      "d": 319.43214583332883,
      "v": 62
    },
    {
      "midi": 56,
      "hit": false,
      "t": 223658.0554999983,
      "d": 319.43214583332883,
      "v": 67
    },
    {
      "midi": 59,
      "hit": false,
      "t": 223658.0554999983,
      "d": 319.43214583332883,
      "v": 75
    },
    {
      "midi": 44,
      "hit": false,
      "t": 223991.3759999983,
      "d": 319.43214583332883,
      "v": 67
    },
    {
      "midi": 52,
      "hit": false,
      "t": 223991.3759999983,
      "d": 319.43214583332883,
      "v": 65
    },
    {
      "midi": 59,
      "hit": false,
      "t": 223991.3759999983,
      "d": 319.43214583332883,
      "v": 72
    },
    {
      "midi": 56,
      "hit": false,
      "t": 223991.3759999983,
      "d": 326.3763229166507,
      "v": 68
    },
    {
      "midi": 44,
      "hit": false,
      "t": 224324.69649999827,
      "d": 319.43214583332883,
      "v": 68
    },
    {
      "midi": 52,
      "hit": false,
      "t": 224324.69649999827,
      "d": 319.43214583332883,
      "v": 68
    },
    {
      "midi": 56,
      "hit": false,
      "t": 224324.69649999827,
      "d": 319.43214583332883,
      "v": 60
    },
    {
      "midi": 59,
      "hit": false,
      "t": 224324.69649999827,
      "d": 319.43214583332883,
      "v": 61
    },
    {
      "midi": 44,
      "hit": false,
      "t": 224658.01699999828,
      "d": 319.43214583332883,
      "v": 91
    },
    {
      "midi": 52,
      "hit": false,
      "t": 224658.01699999828,
      "d": 319.43214583332883,
      "v": 91
    },
    {
      "midi": 56,
      "hit": false,
      "t": 224658.01699999828,
      "d": 319.43214583332883,
      "v": 91
    },
    {
      "midi": 59,
      "hit": false,
      "t": 224658.01699999828,
      "d": 319.43214583332883,
      "v": 91
    },
    {
      "midi": 44,
      "hit": false,
      "t": 224991.33749999828,
      "d": 319.43214583332883,
      "v": 68
    },
    {
      "midi": 52,
      "hit": false,
      "t": 224991.33749999828,
      "d": 319.43214583332883,
      "v": 74
    },
    {
      "midi": 56,
      "hit": false,
      "t": 224991.33749999828,
      "d": 319.43214583332883,
      "v": 72
    },
    {
      "midi": 59,
      "hit": false,
      "t": 224991.33749999828,
      "d": 319.43214583332883,
      "v": 73
    },
    {
      "midi": 44,
      "hit": false,
      "t": 225324.65799999828,
      "d": 319.43214583332883,
      "v": 73
    },
    {
      "midi": 51,
      "hit": false,
      "t": 225324.65799999828,
      "d": 319.43214583332883,
      "v": 75
    },
    {
      "midi": 56,
      "hit": false,
      "t": 225324.65799999828,
      "d": 326.3763229166507,
      "v": 80
    },
    {
      "midi": 59,
      "hit": false,
      "t": 225324.65799999828,
      "d": 326.3763229166507,
      "v": 91
    },
    {
      "midi": 44,
      "hit": false,
      "t": 225657.97849999825,
      "d": 319.43214583332883,
      "v": 84
    },
    {
      "midi": 51,
      "hit": false,
      "t": 225657.97849999825,
      "d": 319.43214583332883,
      "v": 85
    },
    {
      "midi": 56,
      "hit": false,
      "t": 225657.97849999825,
      "d": 319.43214583332883,
      "v": 75
    },
    {
      "midi": 59,
      "hit": false,
      "t": 225657.97849999825,
      "d": 319.43214583332883,
      "v": 91
    },
    {
      "midi": 44,
      "hit": false,
      "t": 225991.29899999825,
      "d": 319.43214583332883,
      "v": 91
    },
    {
      "midi": 51,
      "hit": false,
      "t": 225991.29899999825,
      "d": 319.43214583332883,
      "v": 91
    },
    {
      "midi": 56,
      "hit": false,
      "t": 225991.29899999825,
      "d": 319.43214583332883,
      "v": 95
    },
    {
      "midi": 59,
      "hit": false,
      "t": 225991.29899999825,
      "d": 319.43214583332883,
      "v": 94
    },
    {
      "midi": 44,
      "hit": false,
      "t": 226324.61949999825,
      "d": 319.43214583332883,
      "v": 74
    },
    {
      "midi": 51,
      "hit": false,
      "t": 226324.61949999825,
      "d": 319.43214583332883,
      "v": 77
    },
    {
      "midi": 56,
      "hit": false,
      "t": 226324.61949999825,
      "d": 319.43214583332883,
      "v": 74
    },
    {
      "midi": 59,
      "hit": false,
      "t": 226324.61949999825,
      "d": 319.43214583332883,
      "v": 83
    },
    {
      "midi": 56,
      "hit": false,
      "t": 226657.93999999826,
      "d": 319.43214583332883,
      "v": 91
    },
    {
      "midi": 44,
      "hit": false,
      "t": 226657.93999999826,
      "d": 326.3763229166507,
      "v": 82
    },
    {
      "midi": 52,
      "hit": false,
      "t": 226657.93999999826,
      "d": 326.3763229166507,
      "v": 91
    },
    {
      "midi": 61,
      "hit": false,
      "t": 226657.93999999826,
      "d": 326.3763229166507,
      "v": 91
    },
    {
      "midi": 44,
      "hit": false,
      "t": 226991.26049999823,
      "d": 319.43214583332883,
      "v": 77
    },
    {
      "midi": 52,
      "hit": false,
      "t": 226991.26049999823,
      "d": 319.43214583332883,
      "v": 68
    },
    {
      "midi": 56,
      "hit": false,
      "t": 226991.26049999823,
      "d": 319.43214583332883,
      "v": 77
    },
    {
      "midi": 61,
      "hit": false,
      "t": 226991.26049999823,
      "d": 319.43214583332883,
      "v": 91
    },
    {
      "midi": 44,
      "hit": false,
      "t": 227324.58099999823,
      "d": 319.43214583332883,
      "v": 91
    },
    {
      "midi": 52,
      "hit": false,
      "t": 227324.58099999823,
      "d": 319.43214583332883,
      "v": 91
    },
    {
      "midi": 56,
      "hit": false,
      "t": 227324.58099999823,
      "d": 319.43214583332883,
      "v": 92
    },
    {
      "midi": 61,
      "hit": false,
      "t": 227324.58099999823,
      "d": 319.43214583332883,
      "v": 91
    },
    {
      "midi": 44,
      "hit": false,
      "t": 227657.90149999823,
      "d": 319.43214583332883,
      "v": 74
    },
    {
      "midi": 52,
      "hit": false,
      "t": 227657.90149999823,
      "d": 319.43214583332883,
      "v": 74
    },
    {
      "midi": 56,
      "hit": false,
      "t": 227657.90149999823,
      "d": 319.43214583332883,
      "v": 65
    },
    {
      "midi": 61,
      "hit": false,
      "t": 227657.90149999823,
      "d": 319.43214583332883,
      "v": 91
    },
    {
      "midi": 59,
      "hit": false,
      "t": 227991.22199999823,
      "d": 319.43214583332883,
      "v": 91
    },
    {
      "midi": 44,
      "hit": false,
      "t": 227991.22199999823,
      "d": 326.3763229166507,
      "v": 75
    },
    {
      "midi": 52,
      "hit": false,
      "t": 227991.22199999823,
      "d": 326.3763229166507,
      "v": 85
    },
    {
      "midi": 56,
      "hit": false,
      "t": 227991.22199999823,
      "d": 326.3763229166507,
      "v": 80
    },
    {
      "midi": 44,
      "hit": false,
      "t": 228324.5424999982,
      "d": 319.43214583332883,
      "v": 61
    },
    {
      "midi": 52,
      "hit": false,
      "t": 228324.5424999982,
      "d": 319.43214583332883,
      "v": 67
    },
    {
      "midi": 56,
      "hit": false,
      "t": 228324.5424999982,
      "d": 319.43214583332883,
      "v": 63
    },
    {
      "midi": 59,
      "hit": false,
      "t": 228324.5424999982,
      "d": 319.43214583332883,
      "v": 68
    },
    {
      "midi": 44,
      "hit": false,
      "t": 228657.8629999982,
      "d": 319.43214583332883,
      "v": 91
    },
    {
      "midi": 52,
      "hit": false,
      "t": 228657.8629999982,
      "d": 319.43214583332883,
      "v": 91
    },
    {
      "midi": 56,
      "hit": false,
      "t": 228657.8629999982,
      "d": 319.43214583332883,
      "v": 91
    },
    {
      "midi": 59,
      "hit": false,
      "t": 228657.8629999982,
      "d": 319.43214583332883,
      "v": 91
    },
    {
      "midi": 44,
      "hit": false,
      "t": 228991.1834999982,
      "d": 319.43214583332883,
      "v": 63
    },
    {
      "midi": 56,
      "hit": false,
      "t": 228991.1834999982,
      "d": 319.43214583332883,
      "v": 68
    },
    {
      "midi": 59,
      "hit": false,
      "t": 228991.1834999982,
      "d": 319.43214583332883,
      "v": 78
    },
    {
      "midi": 52,
      "hit": false,
      "t": 228991.1834999982,
      "d": 326.3763229166507,
      "v": 65
    },
    {
      "midi": 46,
      "hit": false,
      "t": 229324.50399999818,
      "d": 319.43214583332883,
      "v": 71
    },
    {
      "midi": 55,
      "hit": false,
      "t": 229324.50399999818,
      "d": 319.43214583332883,
      "v": 65
    },
    {
      "midi": 58,
      "hit": false,
      "t": 229324.50399999818,
      "d": 319.43214583332883,
      "v": 91
    },
    {
      "midi": 52,
      "hit": false,
      "t": 229324.50399999818,
      "d": 326.3763229166507,
      "v": 80
    },
    {
      "midi": 46,
      "hit": false,
      "t": 229657.82449999815,
      "d": 326.3763229166798,
      "v": 68
    },
    {
      "midi": 52,
      "hit": false,
      "t": 229657.82449999815,
      "d": 326.3763229166798,
      "v": 68
    },
    {
      "midi": 55,
      "hit": false,
      "t": 229657.82449999815,
      "d": 326.3763229166798,
      "v": 58
    },
    {
      "midi": 58,
      "hit": false,
      "t": 229657.82449999815,
      "d": 326.3763229166798,
      "v": 87
    },
    {
      "midi": 46,
      "hit": false,
      "t": 229991.14499999816,
      "d": 319.43214583332883,
      "v": 91
    },
    {
      "midi": 52,
      "hit": false,
      "t": 229991.14499999816,
      "d": 319.43214583332883,
      "v": 91
    },
    {
      "midi": 55,
      "hit": false,
      "t": 229991.14499999816,
      "d": 319.43214583332883,
      "v": 84
    },
    {
      "midi": 58,
      "hit": false,
      "t": 229991.14499999816,
      "d": 319.43214583332883,
      "v": 91
    },
    {
      "midi": 46,
      "hit": false,
      "t": 230324.46549999816,
      "d": 319.43214583332883,
      "v": 72
    },
    {
      "midi": 52,
      "hit": false,
      "t": 230324.46549999816,
      "d": 319.43214583332883,
      "v": 91
    },
    {
      "midi": 55,
      "hit": false,
      "t": 230324.46549999816,
      "d": 319.43214583332883,
      "v": 65
    },
    {
      "midi": 58,
      "hit": false,
      "t": 230324.46549999816,
      "d": 319.43214583332883,
      "v": 87
    },
    {
      "midi": 45,
      "hit": false,
      "t": 230657.78599999816,
      "d": 319.43214583332883,
      "v": 55
    },
    {
      "midi": 52,
      "hit": false,
      "t": 230657.78599999816,
      "d": 319.43214583332883,
      "v": 85
    },
    {
      "midi": 57,
      "hit": false,
      "t": 230657.78599999816,
      "d": 326.3763229166507,
      "v": 60
    },
    {
      "midi": 61,
      "hit": false,
      "t": 230657.78599999816,
      "d": 326.3763229166507,
      "v": 78
    },
    {
      "midi": 45,
      "hit": false,
      "t": 230991.10649999813,
      "d": 319.43214583332883,
      "v": 49
    },
    {
      "midi": 52,
      "hit": false,
      "t": 230991.10649999813,
      "d": 319.43214583332883,
      "v": 71
    },
    {
      "midi": 57,
      "hit": false,
      "t": 230991.10649999813,
      "d": 319.43214583332883,
      "v": 61
    },
    {
      "midi": 61,
      "hit": false,
      "t": 230991.10649999813,
      "d": 319.43214583332883,
      "v": 74
    },
    {
      "midi": 52,
      "hit": false,
      "t": 231324.42699999813,
      "d": 319.43214583332883,
      "v": 91
    },
    {
      "midi": 57,
      "hit": false,
      "t": 231324.42699999813,
      "d": 319.43214583332883,
      "v": 87
    },
    {
      "midi": 61,
      "hit": false,
      "t": 231324.42699999813,
      "d": 319.43214583332883,
      "v": 91
    },
    {
      "midi": 45,
      "hit": false,
      "t": 231324.42699999813,
      "d": 326.3763229166507,
      "v": 77
    },
    {
      "midi": 45,
      "hit": false,
      "t": 231657.7474999981,
      "d": 319.43214583332883,
      "v": 56
    },
    {
      "midi": 52,
      "hit": false,
      "t": 231657.7474999981,
      "d": 319.43214583332883,
      "v": 91
    },
    {
      "midi": 57,
      "hit": false,
      "t": 231657.7474999981,
      "d": 319.43214583332883,
      "v": 65
    },
    {
      "midi": 61,
      "hit": false,
      "t": 231657.7474999981,
      "d": 319.43214583332883,
      "v": 82
    },
    {
      "midi": 44,
      "hit": false,
      "t": 231991.0679999981,
      "d": 319.43214583332883,
      "v": 72
    },
    {
      "midi": 56,
      "hit": false,
      "t": 231991.0679999981,
      "d": 319.43214583332883,
      "v": 77
    },
    {
      "midi": 59,
      "hit": false,
      "t": 231991.0679999981,
      "d": 319.43214583332883,
      "v": 87
    },
    {
      "midi": 51,
      "hit": false,
      "t": 231991.0679999981,
      "d": 326.3763229166507,
      "v": 76
    },
    {
      "midi": 44,
      "hit": false,
      "t": 232324.38849999808,
      "d": 319.43214583332883,
      "v": 59
    },
    {
      "midi": 56,
      "hit": false,
      "t": 232324.38849999808,
      "d": 319.43214583332883,
      "v": 66
    },
    {
      "midi": 59,
      "hit": false,
      "t": 232324.38849999808,
      "d": 319.43214583332883,
      "v": 65
    },
    {
      "midi": 51,
      "hit": false,
      "t": 232324.38849999808,
      "d": 326.3763229166507,
      "v": 68
    },
    {
      "midi": 44,
      "hit": false,
      "t": 232657.70899999805,
      "d": 319.43214583332883,
      "v": 91
    },
    {
      "midi": 56,
      "hit": false,
      "t": 232657.70899999805,
      "d": 319.43214583332883,
      "v": 94
    },
    {
      "midi": 59,
      "hit": false,
      "t": 232657.70899999805,
      "d": 319.43214583332883,
      "v": 92
    },
    {
      "midi": 51,
      "hit": false,
      "t": 232657.70899999805,
      "d": 326.3763229166507,
      "v": 91
    },
    {
      "midi": 44,
      "hit": false,
      "t": 232991.02949999803,
      "d": 319.43214583332883,
      "v": 68
    },
    {
      "midi": 56,
      "hit": false,
      "t": 232991.02949999803,
      "d": 319.43214583332883,
      "v": 65
    },
    {
      "midi": 59,
      "hit": false,
      "t": 232991.02949999803,
      "d": 319.43214583332883,
      "v": 72
    },
    {
      "midi": 51,
      "hit": false,
      "t": 232991.02949999803,
      "d": 326.3763229166507,
      "v": 67
    },
    {
      "midi": 44,
      "hit": false,
      "t": 233324.349999998,
      "d": 319.43214583332883,
      "v": 68
    },
    {
      "midi": 51,
      "hit": false,
      "t": 233324.349999998,
      "d": 319.43214583332883,
      "v": 65
    },
    {
      "midi": 56,
      "hit": false,
      "t": 233324.349999998,
      "d": 319.43214583332883,
      "v": 73
    },
    {
      "midi": 59,
      "hit": false,
      "t": 233324.349999998,
      "d": 319.43214583332883,
      "v": 78
    },
    {
      "midi": 44,
      "hit": false,
      "t": 233657.670499998,
      "d": 319.43214583332883,
      "v": 68
    },
    {
      "midi": 51,
      "hit": false,
      "t": 233657.670499998,
      "d": 319.43214583332883,
      "v": 66
    },
    {
      "midi": 56,
      "hit": false,
      "t": 233657.670499998,
      "d": 319.43214583332883,
      "v": 59
    },
    {
      "midi": 59,
      "hit": false,
      "t": 233657.670499998,
      "d": 319.43214583332883,
      "v": 74
    },
    {
      "midi": 44,
      "hit": false,
      "t": 233990.990999998,
      "d": 319.43214583332883,
      "v": 91
    },
    {
      "midi": 51,
      "hit": false,
      "t": 233990.990999998,
      "d": 319.43214583332883,
      "v": 91
    },
    {
      "midi": 56,
      "hit": false,
      "t": 233990.990999998,
      "d": 319.43214583332883,
      "v": 95
    },
    {
      "midi": 59,
      "hit": false,
      "t": 233990.990999998,
      "d": 319.43214583332883,
      "v": 95
    },
    {
      "midi": 44,
      "hit": false,
      "t": 234324.311499998,
      "d": 319.43214583332883,
      "v": 61
    },
    {
      "midi": 51,
      "hit": false,
      "t": 234324.311499998,
      "d": 319.43214583332883,
      "v": 78
    },
    {
      "midi": 56,
      "hit": false,
      "t": 234324.311499998,
      "d": 319.43214583332883,
      "v": 74
    },
    {
      "midi": 59,
      "hit": false,
      "t": 234324.311499998,
      "d": 319.43214583332883,
      "v": 78
    },
    {
      "midi": 44,
      "hit": false,
      "t": 234657.631999998,
      "d": 319.43214583332883,
      "v": 91
    },
    {
      "midi": 51,
      "hit": false,
      "t": 234657.631999998,
      "d": 319.43214583332883,
      "v": 91
    },
    {
      "midi": 56,
      "hit": false,
      "t": 234657.631999998,
      "d": 319.43214583332883,
      "v": 92
    },
    {
      "midi": 59,
      "hit": false,
      "t": 234657.631999998,
      "d": 319.43214583332883,
      "v": 91
    },
    {
      "midi": 44,
      "hit": false,
      "t": 234990.952499998,
      "d": 319.43214583332883,
      "v": 91
    },
    {
      "midi": 51,
      "hit": false,
      "t": 234990.952499998,
      "d": 319.43214583332883,
      "v": 91
    },
    {
      "midi": 56,
      "hit": false,
      "t": 234990.952499998,
      "d": 326.3763229166507,
      "v": 91
    },
    {
      "midi": 59,
      "hit": false,
      "t": 234990.952499998,
      "d": 326.3763229166507,
      "v": 91
    },
    {
      "midi": 51,
      "hit": false,
      "t": 235324.27299999798,
      "d": 319.43214583332883,
      "v": 91
    },
    {
      "midi": 56,
      "hit": false,
      "t": 235324.27299999798,
      "d": 319.43214583332883,
      "v": 91
    },
    {
      "midi": 59,
      "hit": false,
      "t": 235324.27299999798,
      "d": 319.43214583332883,
      "v": 91
    },
    {
      "midi": 44,
      "hit": false,
      "t": 235324.27299999798,
      "d": 326.3763229166507,
      "v": 91
    },
    {
      "midi": 44,
      "hit": false,
      "t": 235657.59349999795,
      "d": 326.3763229166798,
      "v": 91
    },
    {
      "midi": 51,
      "hit": false,
      "t": 235657.59349999795,
      "d": 326.3763229166798,
      "v": 91
    },
    {
      "midi": 56,
      "hit": false,
      "t": 235657.59349999795,
      "d": 326.3763229166798,
      "v": 91
    },
    {
      "midi": 59,
      "hit": false,
      "t": 235657.59349999795,
      "d": 326.3763229166798,
      "v": 91
    },
    {
      "midi": 44,
      "hit": false,
      "t": 235990.91399999795,
      "d": 319.43214583332883,
      "v": 91
    },
    {
      "midi": 56,
      "hit": false,
      "t": 235990.91399999795,
      "d": 319.43214583332883,
      "v": 95
    },
    {
      "midi": 59,
      "hit": false,
      "t": 235990.91399999795,
      "d": 319.43214583332883,
      "v": 94
    },
    {
      "midi": 51,
      "hit": false,
      "t": 235990.91399999795,
      "d": 326.3763229166507,
      "v": 91
    },
    {
      "midi": 44,
      "hit": false,
      "t": 236324.23449999793,
      "d": 326.3763229166798,
      "v": 91
    },
    {
      "midi": 51,
      "hit": false,
      "t": 236324.23449999793,
      "d": 326.3763229166798,
      "v": 91
    },
    {
      "midi": 56,
      "hit": false,
      "t": 236324.23449999793,
      "d": 326.3763229166798,
      "v": 98
    },
    {
      "midi": 59,
      "hit": false,
      "t": 236324.23449999793,
      "d": 326.3763229166798,
      "v": 95
    },
    {
      "midi": 51,
      "hit": false,
      "t": 236657.55499999793,
      "d": 319.43214583332883,
      "v": 91
    },
    {
      "midi": 56,
      "hit": false,
      "t": 236657.55499999793,
      "d": 319.43214583332883,
      "v": 94
    },
    {
      "midi": 59,
      "hit": false,
      "t": 236657.55499999793,
      "d": 319.43214583332883,
      "v": 92
    },
    {
      "midi": 44,
      "hit": false,
      "t": 236657.55499999793,
      "d": 326.3763229166507,
      "v": 91
    },
    {
      "midi": 51,
      "hit": false,
      "t": 236990.8754999979,
      "d": 326.3763229166798,
      "v": 91
    },
    {
      "midi": 56,
      "hit": false,
      "t": 236990.8754999979,
      "d": 326.3763229166798,
      "v": 95
    },
    {
      "midi": 59,
      "hit": false,
      "t": 236990.8754999979,
      "d": 326.3763229166798,
      "v": 95
    },
    {
      "midi": 44,
      "hit": false,
      "t": 236990.8754999979,
      "d": 333.32050000000163,
      "v": 91
    },
    {
      "midi": 45,
      "hit": false,
      "t": 237324.1959999979,
      "d": 319.43214583332883,
      "v": 52
    },
    {
      "midi": 52,
      "hit": false,
      "t": 237324.1959999979,
      "d": 319.43214583332883,
      "v": 76
    },
    {
      "midi": 57,
      "hit": false,
      "t": 237324.1959999979,
      "d": 319.43214583332883,
      "v": 59
    },
    {
      "midi": 61,
      "hit": false,
      "t": 237324.1959999979,
      "d": 319.43214583332883,
      "v": 68
    },
    {
      "midi": 45,
      "hit": false,
      "t": 237657.5164999979,
      "d": 319.43214583332883,
      "v": 53
    },
    {
      "midi": 52,
      "hit": false,
      "t": 237657.5164999979,
      "d": 319.43214583332883,
      "v": 82
    },
    {
      "midi": 61,
      "hit": false,
      "t": 237657.5164999979,
      "d": 319.43214583332883,
      "v": 72
    },
    {
      "midi": 57,
      "hit": false,
      "t": 237657.5164999979,
      "d": 326.3763229166507,
      "v": 56
    },
    {
      "midi": 52,
      "hit": false,
      "t": 237990.83699999787,
      "d": 319.43214583332883,
      "v": 91
    },
    {
      "midi": 57,
      "hit": false,
      "t": 237990.83699999787,
      "d": 319.43214583332883,
      "v": 90
    },
    {
      "midi": 61,
      "hit": false,
      "t": 237990.83699999787,
      "d": 319.43214583332883,
      "v": 91
    },
    {
      "midi": 45,
      "hit": false,
      "t": 237990.83699999787,
      "d": 326.3763229166507,
      "v": 80
    },
    {
      "midi": 45,
      "hit": false,
      "t": 238324.15749999785,
      "d": 319.43214583332883,
      "v": 48
    },
    {
      "midi": 52,
      "hit": false,
      "t": 238324.15749999785,
      "d": 319.43214583332883,
      "v": 49
    },
    {
      "midi": 57,
      "hit": false,
      "t": 238324.15749999785,
      "d": 319.43214583332883,
      "v": 53
    },
    {
      "midi": 61,
      "hit": false,
      "t": 238324.15749999785,
      "d": 319.43214583332883,
      "v": 65
    },
    {
      "midi": 45,
      "hit": false,
      "t": 238657.47799999785,
      "d": 319.43214583332883,
      "v": 46
    },
    {
      "midi": 52,
      "hit": false,
      "t": 238657.47799999785,
      "d": 319.43214583332883,
      "v": 61
    },
    {
      "midi": 57,
      "hit": false,
      "t": 238657.47799999785,
      "d": 319.43214583332883,
      "v": 53
    },
    {
      "midi": 61,
      "hit": false,
      "t": 238657.47799999785,
      "d": 319.43214583332883,
      "v": 63
    },
    {
      "midi": 45,
      "hit": false,
      "t": 238990.79849999785,
      "d": 319.43214583332883,
      "v": 55
    },
    {
      "midi": 52,
      "hit": false,
      "t": 238990.79849999785,
      "d": 319.43214583332883,
      "v": 62
    },
    {
      "midi": 57,
      "hit": false,
      "t": 238990.79849999785,
      "d": 319.43214583332883,
      "v": 42
    },
    {
      "midi": 61,
      "hit": false,
      "t": 238990.79849999785,
      "d": 319.43214583332883,
      "v": 62
    },
    {
      "midi": 45,
      "hit": false,
      "t": 239324.11899999785,
      "d": 319.43214583332883,
      "v": 82
    },
    {
      "midi": 52,
      "hit": false,
      "t": 239324.11899999785,
      "d": 319.43214583332883,
      "v": 91
    },
    {
      "midi": 57,
      "hit": false,
      "t": 239324.11899999785,
      "d": 319.43214583332883,
      "v": 85
    },
    {
      "midi": 61,
      "hit": false,
      "t": 239324.11899999785,
      "d": 319.43214583332883,
      "v": 91
    },
    {
      "midi": 45,
      "hit": false,
      "t": 239657.43949999785,
      "d": 319.43214583332883,
      "v": 53
    },
    {
      "midi": 52,
      "hit": false,
      "t": 239657.43949999785,
      "d": 319.43214583332883,
      "v": 85
    },
    {
      "midi": 57,
      "hit": false,
      "t": 239657.43949999785,
      "d": 319.43214583332883,
      "v": 65
    },
    {
      "midi": 61,
      "hit": false,
      "t": 239657.43949999785,
      "d": 319.43214583332883,
      "v": 62
    },
    {
      "midi": 44,
      "hit": false,
      "t": 239990.75999999786,
      "d": 319.43214583332883,
      "v": 62
    },
    {
      "midi": 56,
      "hit": false,
      "t": 239990.75999999786,
      "d": 319.43214583332883,
      "v": 70
    },
    {
      "midi": 59,
      "hit": false,
      "t": 239990.75999999786,
      "d": 319.43214583332883,
      "v": 80
    },
    {
      "midi": 52,
      "hit": false,
      "t": 239990.75999999786,
      "d": 326.3763229166507,
      "v": 56
    },
    {
      "midi": 44,
      "hit": false,
      "t": 240324.08049999783,
      "d": 319.43214583332883,
      "v": 70
    },
    {
      "midi": 52,
      "hit": false,
      "t": 240324.08049999783,
      "d": 319.43214583332883,
      "v": 73
    },
    {
      "midi": 56,
      "hit": false,
      "t": 240324.08049999783,
      "d": 319.43214583332883,
      "v": 50
    },
    {
      "midi": 59,
      "hit": false,
      "t": 240324.08049999783,
      "d": 319.43214583332883,
      "v": 80
    },
    {
      "midi": 44,
      "hit": false,
      "t": 240657.40099999783,
      "d": 319.43214583332883,
      "v": 91
    },
    {
      "midi": 52,
      "hit": false,
      "t": 240657.40099999783,
      "d": 319.43214583332883,
      "v": 91
    },
    {
      "midi": 56,
      "hit": false,
      "t": 240657.40099999783,
      "d": 319.43214583332883,
      "v": 91
    },
    {
      "midi": 59,
      "hit": false,
      "t": 240657.40099999783,
      "d": 319.43214583332883,
      "v": 91
    },
    {
      "midi": 44,
      "hit": false,
      "t": 240990.72149999783,
      "d": 319.43214583332883,
      "v": 66
    },
    {
      "midi": 52,
      "hit": false,
      "t": 240990.72149999783,
      "d": 326.3763229166507,
      "v": 68
    },
    {
      "midi": 56,
      "hit": false,
      "t": 240990.72149999783,
      "d": 326.3763229166507,
      "v": 68
    },
    {
      "midi": 59,
      "hit": false,
      "t": 240990.72149999783,
      "d": 326.3763229166507,
      "v": 75
    },
    {
      "midi": 52,
      "hit": false,
      "t": 241324.0419999978,
      "d": 319.43214583332883,
      "v": 71
    },
    {
      "midi": 56,
      "hit": false,
      "t": 241324.0419999978,
      "d": 319.43214583332883,
      "v": 58
    },
    {
      "midi": 62,
      "hit": false,
      "t": 241324.0419999978,
      "d": 319.43214583332883,
      "v": 49
    },
    {
      "midi": 44,
      "hit": false,
      "t": 241324.0419999978,
      "d": 326.3763229166507,
      "v": 66
    },
    {
      "midi": 52,
      "hit": false,
      "t": 241657.36249999778,
      "d": 319.43214583332883,
      "v": 61
    },
    {
      "midi": 56,
      "hit": false,
      "t": 241657.36249999778,
      "d": 319.43214583332883,
      "v": 72
    },
    {
      "midi": 62,
      "hit": false,
      "t": 241657.36249999778,
      "d": 319.43214583332883,
      "v": 58
    },
    {
      "midi": 44,
      "hit": false,
      "t": 241657.36249999778,
      "d": 326.3763229166507,
      "v": 74
    },
    {
      "midi": 44,
      "hit": false,
      "t": 241990.68299999775,
      "d": 319.43214583332883,
      "v": 91
    },
    {
      "midi": 52,
      "hit": false,
      "t": 241990.68299999775,
      "d": 319.43214583332883,
      "v": 91
    },
    {
      "midi": 56,
      "hit": false,
      "t": 241990.68299999775,
      "d": 319.43214583332883,
      "v": 91
    },
    {
      "midi": 62,
      "hit": false,
      "t": 241990.68299999775,
      "d": 319.43214583332883,
      "v": 105
    },
    {
      "midi": 52,
      "hit": false,
      "t": 242324.00349999775,
      "d": 326.3763229166798,
      "v": 77
    },
    {
      "midi": 56,
      "hit": false,
      "t": 242324.00349999775,
      "d": 326.3763229166798,
      "v": 76
    },
    {
      "midi": 62,
      "hit": false,
      "t": 242324.00349999775,
      "d": 326.3763229166798,
      "v": 59
    },
    {
      "midi": 44,
      "hit": false,
      "t": 242324.00349999775,
      "d": 333.32050000000163,
      "v": 71
    },
    {
      "midi": 45,
      "hit": false,
      "t": 242657.32399999775,
      "d": 319.43214583332883,
      "v": 52
    },
    {
      "midi": 52,
      "hit": false,
      "t": 242657.32399999775,
      "d": 319.43214583332883,
      "v": 73
    },
    {
      "midi": 57,
      "hit": false,
      "t": 242657.32399999775,
      "d": 319.43214583332883,
      "v": 65
    },
    {
      "midi": 61,
      "hit": false,
      "t": 242657.32399999775,
      "d": 319.43214583332883,
      "v": 75
    },
    {
      "midi": 57,
      "hit": false,
      "t": 242990.64449999775,
      "d": 319.43214583332883,
      "v": 56
    },
    {
      "midi": 61,
      "hit": false,
      "t": 242990.64449999775,
      "d": 319.43214583332883,
      "v": 87
    },
    {
      "midi": 45,
      "hit": false,
      "t": 242990.64449999775,
      "d": 326.3763229166507,
      "v": 58
    },
    {
      "midi": 52,
      "hit": false,
      "t": 242990.64449999775,
      "d": 326.3763229166507,
      "v": 68
    },
    {
      "midi": 45,
      "hit": false,
      "t": 243323.96499999773,
      "d": 319.43214583332883,
      "v": 78
    },
    {
      "midi": 52,
      "hit": false,
      "t": 243323.96499999773,
      "d": 319.43214583332883,
      "v": 91
    },
    {
      "midi": 57,
      "hit": false,
      "t": 243323.96499999773,
      "d": 326.3763229166507,
      "v": 82
    },
    {
      "midi": 61,
      "hit": false,
      "t": 243323.96499999773,
      "d": 326.3763229166507,
      "v": 91
    },
    {
      "midi": 45,
      "hit": false,
      "t": 243657.2854999977,
      "d": 319.43214583332883,
      "v": 49
    },
    {
      "midi": 57,
      "hit": false,
      "t": 243657.2854999977,
      "d": 319.43214583332883,
      "v": 58
    },
    {
      "midi": 61,
      "hit": false,
      "t": 243657.2854999977,
      "d": 319.43214583332883,
      "v": 75
    },
    {
      "midi": 52,
      "hit": false,
      "t": 243657.2854999977,
      "d": 326.3763229166507,
      "v": 67
    },
    {
      "midi": 45,
      "hit": false,
      "t": 243990.60599999767,
      "d": 319.43214583332883,
      "v": 55
    },
    {
      "midi": 52,
      "hit": false,
      "t": 243990.60599999767,
      "d": 319.43214583332883,
      "v": 70
    },
    {
      "midi": 57,
      "hit": false,
      "t": 243990.60599999767,
      "d": 319.43214583332883,
      "v": 67
    },
    {
      "midi": 61,
      "hit": false,
      "t": 243990.60599999767,
      "d": 319.43214583332883,
      "v": 76
    },
    {
      "midi": 45,
      "hit": false,
      "t": 244323.92649999767,
      "d": 319.43214583332883,
      "v": 50
    },
    {
      "midi": 52,
      "hit": false,
      "t": 244323.92649999767,
      "d": 319.43214583332883,
      "v": 61
    },
    {
      "midi": 57,
      "hit": false,
      "t": 244323.92649999767,
      "d": 319.43214583332883,
      "v": 55
    },
    {
      "midi": 61,
      "hit": false,
      "t": 244323.92649999767,
      "d": 319.43214583332883,
      "v": 73
    },
    {
      "midi": 45,
      "hit": false,
      "t": 244657.24699999767,
      "d": 319.43214583332883,
      "v": 78
    },
    {
      "midi": 52,
      "hit": false,
      "t": 244657.24699999767,
      "d": 319.43214583332883,
      "v": 91
    },
    {
      "midi": 57,
      "hit": false,
      "t": 244657.24699999767,
      "d": 319.43214583332883,
      "v": 84
    },
    {
      "midi": 61,
      "hit": false,
      "t": 244657.24699999767,
      "d": 326.3763229166507,
      "v": 91
    },
    {
      "midi": 45,
      "hit": false,
      "t": 244990.56749999765,
      "d": 319.43214583332883,
      "v": 59
    },
    {
      "midi": 52,
      "hit": false,
      "t": 244990.56749999765,
      "d": 319.43214583332883,
      "v": 73
    },
    {
      "midi": 57,
      "hit": false,
      "t": 244990.56749999765,
      "d": 319.43214583332883,
      "v": 65
    },
    {
      "midi": 61,
      "hit": false,
      "t": 244990.56749999765,
      "d": 319.43214583332883,
      "v": 73
    },
    {
      "midi": 52,
      "hit": false,
      "t": 245323.88799999765,
      "d": 319.43214583332883,
      "v": 77
    },
    {
      "midi": 56,
      "hit": false,
      "t": 245323.88799999765,
      "d": 319.43214583332883,
      "v": 77
    },
    {
      "midi": 59,
      "hit": false,
      "t": 245323.88799999765,
      "d": 319.43214583332883,
      "v": 80
    },
    {
      "midi": 44,
      "hit": false,
      "t": 245323.88799999765,
      "d": 326.3763229166507,
      "v": 63
    },
    {
      "midi": 44,
      "hit": false,
      "t": 245657.20849999762,
      "d": 319.43214583332883,
      "v": 72
    },
    {
      "midi": 52,
      "hit": false,
      "t": 245657.20849999762,
      "d": 319.43214583332883,
      "v": 80
    },
    {
      "midi": 56,
      "hit": false,
      "t": 245657.20849999762,
      "d": 319.43214583332883,
      "v": 55
    },
    {
      "midi": 59,
      "hit": false,
      "t": 245657.20849999762,
      "d": 326.3763229166507,
      "v": 88
    },
    {
      "midi": 44,
      "hit": false,
      "t": 245990.5289999976,
      "d": 319.43214583332883,
      "v": 91
    },
    {
      "midi": 52,
      "hit": false,
      "t": 245990.5289999976,
      "d": 319.43214583332883,
      "v": 91
    },
    {
      "midi": 56,
      "hit": false,
      "t": 245990.5289999976,
      "d": 319.43214583332883,
      "v": 91
    },
    {
      "midi": 59,
      "hit": false,
      "t": 245990.5289999976,
      "d": 319.43214583332883,
      "v": 91
    },
    {
      "midi": 52,
      "hit": false,
      "t": 246323.8494999976,
      "d": 319.43214583332883,
      "v": 63
    },
    {
      "midi": 56,
      "hit": false,
      "t": 246323.8494999976,
      "d": 319.43214583332883,
      "v": 72
    },
    {
      "midi": 59,
      "hit": false,
      "t": 246323.8494999976,
      "d": 319.43214583332883,
      "v": 83
    },
    {
      "midi": 44,
      "hit": false,
      "t": 246323.8494999976,
      "d": 326.3763229166507,
      "v": 65
    },
    {
      "midi": 44,
      "hit": false,
      "t": 246657.16999999757,
      "d": 319.43214583332883,
      "v": 68
    },
    {
      "midi": 52,
      "hit": false,
      "t": 246657.16999999757,
      "d": 319.43214583332883,
      "v": 77
    },
    {
      "midi": 56,
      "hit": false,
      "t": 246657.16999999757,
      "d": 319.43214583332883,
      "v": 72
    },
    {
      "midi": 62,
      "hit": false,
      "t": 246657.16999999757,
      "d": 319.43214583332883,
      "v": 66
    },
    {
      "midi": 44,
      "hit": false,
      "t": 246990.49049999757,
      "d": 319.43214583332883,
      "v": 74
    },
    {
      "midi": 52,
      "hit": false,
      "t": 246990.49049999757,
      "d": 319.43214583332883,
      "v": 70
    },
    {
      "midi": 62,
      "hit": false,
      "t": 246990.49049999757,
      "d": 319.43214583332883,
      "v": 58
    },
    {
      "midi": 56,
      "hit": false,
      "t": 246990.49049999757,
      "d": 326.3763229166507,
      "v": 61
    },
    {
      "midi": 44,
      "hit": false,
      "t": 247323.81099999754,
      "d": 319.43214583332883,
      "v": 91
    },
    {
      "midi": 52,
      "hit": false,
      "t": 247323.81099999754,
      "d": 319.43214583332883,
      "v": 91
    },
    {
      "midi": 56,
      "hit": false,
      "t": 247323.81099999754,
      "d": 319.43214583332883,
      "v": 91
    },
    {
      "midi": 62,
      "hit": false,
      "t": 247323.81099999754,
      "d": 319.43214583332883,
      "v": 103
    },
    {
      "midi": 44,
      "hit": false,
      "t": 247657.13149999754,
      "d": 319.43214583332883,
      "v": 67
    },
    {
      "midi": 52,
      "hit": false,
      "t": 247657.13149999754,
      "d": 319.43214583332883,
      "v": 73
    },
    {
      "midi": 56,
      "hit": false,
      "t": 247657.13149999754,
      "d": 319.43214583332883,
      "v": 68
    },
    {
      "midi": 62,
      "hit": false,
      "t": 247657.13149999754,
      "d": 319.43214583332883,
      "v": 61
    },
    {
      "midi": 45,
      "hit": false,
      "t": 247990.45199999755,
      "d": 319.43214583332883,
      "v": 58
    },
    {
      "midi": 52,
      "hit": false,
      "t": 247990.45199999755,
      "d": 319.43214583332883,
      "v": 91
    },
    {
      "midi": 57,
      "hit": false,
      "t": 247990.45199999755,
      "d": 319.43214583332883,
      "v": 56
    },
    {
      "midi": 61,
      "hit": false,
      "t": 247990.45199999755,
      "d": 319.43214583332883,
      "v": 67
    },
    {
      "midi": 45,
      "hit": false,
      "t": 248323.77249999755,
      "d": 319.43214583332883,
      "v": 58
    },
    {
      "midi": 52,
      "hit": false,
      "t": 248323.77249999755,
      "d": 319.43214583332883,
      "v": 91
    },
    {
      "midi": 61,
      "hit": false,
      "t": 248323.77249999755,
      "d": 319.43214583332883,
      "v": 72
    },
    {
      "midi": 57,
      "hit": false,
      "t": 248323.77249999755,
      "d": 326.3763229166507,
      "v": 58
    },
    {
      "midi": 45,
      "hit": false,
      "t": 248657.09299999752,
      "d": 319.43214583332883,
      "v": 78
    },
    {
      "midi": 52,
      "hit": false,
      "t": 248657.09299999752,
      "d": 319.43214583332883,
      "v": 91
    },
    {
      "midi": 57,
      "hit": false,
      "t": 248657.09299999752,
      "d": 319.43214583332883,
      "v": 84
    },
    {
      "midi": 61,
      "hit": false,
      "t": 248657.09299999752,
      "d": 326.3763229166507,
      "v": 91
    },
    {
      "midi": 45,
      "hit": false,
      "t": 248990.4134999975,
      "d": 319.43214583332883,
      "v": 48
    },
    {
      "midi": 52,
      "hit": false,
      "t": 248990.4134999975,
      "d": 319.43214583332883,
      "v": 62
    },
    {
      "midi": 57,
      "hit": false,
      "t": 248990.4134999975,
      "d": 319.43214583332883,
      "v": 52
    },
    {
      "midi": 61,
      "hit": false,
      "t": 248990.4134999975,
      "d": 319.43214583332883,
      "v": 60
    },
    {
      "midi": 45,
      "hit": false,
      "t": 249323.7339999975,
      "d": 319.43214583332883,
      "v": 61
    },
    {
      "midi": 52,
      "hit": false,
      "t": 249323.7339999975,
      "d": 319.43214583332883,
      "v": 78
    },
    {
      "midi": 57,
      "hit": false,
      "t": 249323.7339999975,
      "d": 319.43214583332883,
      "v": 49
    },
    {
      "midi": 61,
      "hit": false,
      "t": 249323.7339999975,
      "d": 319.43214583332883,
      "v": 40
    },
    {
      "midi": 45,
      "hit": false,
      "t": 249657.0544999975,
      "d": 319.43214583332883,
      "v": 53
    },
    {
      "midi": 52,
      "hit": false,
      "t": 249657.0544999975,
      "d": 319.43214583332883,
      "v": 66
    },
    {
      "midi": 57,
      "hit": false,
      "t": 249657.0544999975,
      "d": 319.43214583332883,
      "v": 55
    },
    {
      "midi": 61,
      "hit": false,
      "t": 249657.0544999975,
      "d": 319.43214583332883,
      "v": 72
    },
    {
      "midi": 45,
      "hit": false,
      "t": 249990.3749999975,
      "d": 319.43214583332883,
      "v": 80
    },
    {
      "midi": 52,
      "hit": false,
      "t": 249990.3749999975,
      "d": 319.43214583332883,
      "v": 91
    },
    {
      "midi": 57,
      "hit": false,
      "t": 249990.3749999975,
      "d": 319.43214583332883,
      "v": 91
    },
    {
      "midi": 61,
      "hit": false,
      "t": 249990.3749999975,
      "d": 319.43214583332883,
      "v": 91
    },
    {
      "midi": 45,
      "hit": false,
      "t": 250323.6954999975,
      "d": 319.43214583332883,
      "v": 55
    },
    {
      "midi": 52,
      "hit": false,
      "t": 250323.6954999975,
      "d": 319.43214583332883,
      "v": 80
    },
    {
      "midi": 57,
      "hit": false,
      "t": 250323.6954999975,
      "d": 319.43214583332883,
      "v": 65
    },
    {
      "midi": 61,
      "hit": false,
      "t": 250323.6954999975,
      "d": 319.43214583332883,
      "v": 82
    },
    {
      "midi": 52,
      "hit": false,
      "t": 250657.0159999975,
      "d": 326.3763229166798,
      "v": 80
    },
    {
      "midi": 56,
      "hit": false,
      "t": 250657.0159999975,
      "d": 326.3763229166798,
      "v": 74
    },
    {
      "midi": 59,
      "hit": false,
      "t": 250657.0159999975,
      "d": 326.3763229166798,
      "v": 80
    },
    {
      "midi": 44,
      "hit": false,
      "t": 250657.0159999975,
      "d": 333.32050000000163,
      "v": 59
    },
    {
      "midi": 44,
      "hit": false,
      "t": 250990.3364999975,
      "d": 319.43214583332883,
      "v": 63
    },
    {
      "midi": 52,
      "hit": false,
      "t": 250990.3364999975,
      "d": 319.43214583332883,
      "v": 61
    },
    {
      "midi": 56,
      "hit": false,
      "t": 250990.3364999975,
      "d": 319.43214583332883,
      "v": 58
    },
    {
      "midi": 59,
      "hit": false,
      "t": 250990.3364999975,
      "d": 326.3763229166507,
      "v": 60
    },
    {
      "midi": 44,
      "hit": false,
      "t": 251323.65699999747,
      "d": 326.3763229166798,
      "v": 91
    },
    {
      "midi": 52,
      "hit": false,
      "t": 251323.65699999747,
      "d": 326.3763229166798,
      "v": 91
    },
    {
      "midi": 56,
      "hit": false,
      "t": 251323.65699999747,
      "d": 326.3763229166798,
      "v": 91
    },
    {
      "midi": 59,
      "hit": false,
      "t": 251323.65699999747,
      "d": 326.3763229166798,
      "v": 91
    },
    {
      "midi": 44,
      "hit": false,
      "t": 251656.97749999748,
      "d": 319.43214583332883,
      "v": 68
    },
    {
      "midi": 52,
      "hit": false,
      "t": 251656.97749999748,
      "d": 319.43214583332883,
      "v": 78
    },
    {
      "midi": 56,
      "hit": false,
      "t": 251656.97749999748,
      "d": 326.3763229166507,
      "v": 72
    },
    {
      "midi": 59,
      "hit": false,
      "t": 251656.97749999748,
      "d": 326.3763229166507,
      "v": 91
    },
    {
      "midi": 44,
      "hit": false,
      "t": 251990.29799999745,
      "d": 326.3763229166798,
      "v": 68
    },
    {
      "midi": 51,
      "hit": false,
      "t": 251990.29799999745,
      "d": 326.3763229166798,
      "v": 70
    },
    {
      "midi": 56,
      "hit": false,
      "t": 251990.29799999745,
      "d": 326.3763229166798,
      "v": 52
    },
    {
      "midi": 59,
      "hit": false,
      "t": 251990.29799999745,
      "d": 326.3763229166798,
      "v": 73
    },
    {
      "midi": 44,
      "hit": false,
      "t": 252323.61849999745,
      "d": 319.43214583332883,
      "v": 80
    },
    {
      "midi": 51,
      "hit": false,
      "t": 252323.61849999745,
      "d": 319.43214583332883,
      "v": 71
    },
    {
      "midi": 59,
      "hit": false,
      "t": 252323.61849999745,
      "d": 319.43214583332883,
      "v": 83
    },
    {
      "midi": 56,
      "hit": false,
      "t": 252323.61849999745,
      "d": 326.3763229166507,
      "v": 52
    },
    {
      "midi": 44,
      "hit": false,
      "t": 252656.93899999742,
      "d": 319.43214583332883,
      "v": 91
    },
    {
      "midi": 51,
      "hit": false,
      "t": 252656.93899999742,
      "d": 319.43214583332883,
      "v": 91
    },
    {
      "midi": 56,
      "hit": false,
      "t": 252656.93899999742,
      "d": 319.43214583332883,
      "v": 91
    },
    {
      "midi": 59,
      "hit": false,
      "t": 252656.93899999742,
      "d": 319.43214583332883,
      "v": 91
    },
    {
      "midi": 44,
      "hit": false,
      "t": 252990.25949999742,
      "d": 319.43214583332883,
      "v": 62
    },
    {
      "midi": 51,
      "hit": false,
      "t": 252990.25949999742,
      "d": 319.43214583332883,
      "v": 61
    },
    {
      "midi": 56,
      "hit": false,
      "t": 252990.25949999742,
      "d": 326.3763229166507,
      "v": 62
    },
    {
      "midi": 59,
      "hit": false,
      "t": 252990.25949999742,
      "d": 326.3763229166507,
      "v": 82
    },
    {
      "midi": 44,
      "hit": false,
      "t": 253323.5799999974,
      "d": 319.43214583332883,
      "v": 65
    },
    {
      "midi": 52,
      "hit": false,
      "t": 253323.5799999974,
      "d": 319.43214583332883,
      "v": 73
    },
    {
      "midi": 56,
      "hit": false,
      "t": 253323.5799999974,
      "d": 319.43214583332883,
      "v": 61
    },
    {
      "midi": 61,
      "hit": false,
      "t": 253323.5799999974,
      "d": 319.43214583332883,
      "v": 72
    },
    {
      "midi": 56,
      "hit": false,
      "t": 253656.9004999974,
      "d": 319.43214583332883,
      "v": 72
    },
    {
      "midi": 61,
      "hit": false,
      "t": 253656.9004999974,
      "d": 319.43214583332883,
      "v": 75
    },
    {
      "midi": 44,
      "hit": false,
      "t": 253656.9004999974,
      "d": 326.3763229166507,
      "v": 73
    },
    {
      "midi": 52,
      "hit": false,
      "t": 253656.9004999974,
      "d": 326.3763229166507,
      "v": 80
    },
    {
      "midi": 44,
      "hit": false,
      "t": 253990.22099999737,
      "d": 319.43214583332883,
      "v": 91
    },
    {
      "midi": 52,
      "hit": false,
      "t": 253990.22099999737,
      "d": 319.43214583332883,
      "v": 91
    },
    {
      "midi": 56,
      "hit": false,
      "t": 253990.22099999737,
      "d": 319.43214583332883,
      "v": 91
    },
    {
      "midi": 61,
      "hit": false,
      "t": 253990.22099999737,
      "d": 319.43214583332883,
      "v": 91
    },
    {
      "midi": 44,
      "hit": false,
      "t": 254323.54149999737,
      "d": 319.43214583332883,
      "v": 78
    },
    {
      "midi": 52,
      "hit": false,
      "t": 254323.54149999737,
      "d": 319.43214583332883,
      "v": 71
    },
    {
      "midi": 61,
      "hit": false,
      "t": 254323.54149999737,
      "d": 319.43214583332883,
      "v": 72
    },
    {
      "midi": 56,
      "hit": false,
      "t": 254323.54149999737,
      "d": 326.3763229166507,
      "v": 55
    },
    {
      "midi": 44,
      "hit": false,
      "t": 254656.86199999735,
      "d": 319.43214583332883,
      "v": 59
    },
    {
      "midi": 52,
      "hit": false,
      "t": 254656.86199999735,
      "d": 319.43214583332883,
      "v": 78
    },
    {
      "midi": 56,
      "hit": false,
      "t": 254656.86199999735,
      "d": 319.43214583332883,
      "v": 55
    },
    {
      "midi": 61,
      "hit": false,
      "t": 254656.86199999735,
      "d": 319.43214583332883,
      "v": 78
    },
    {
      "midi": 44,
      "hit": false,
      "t": 254990.18249999735,
      "d": 319.43214583332883,
      "v": 74
    },
    {
      "midi": 52,
      "hit": false,
      "t": 254990.18249999735,
      "d": 319.43214583332883,
      "v": 68
    },
    {
      "midi": 56,
      "hit": false,
      "t": 254990.18249999735,
      "d": 319.43214583332883,
      "v": 59
    },
    {
      "midi": 61,
      "hit": false,
      "t": 254990.18249999735,
      "d": 319.43214583332883,
      "v": 77
    },
    {
      "midi": 44,
      "hit": false,
      "t": 255323.50299999735,
      "d": 319.43214583332883,
      "v": 91
    },
    {
      "midi": 52,
      "hit": false,
      "t": 255323.50299999735,
      "d": 319.43214583332883,
      "v": 91
    },
    {
      "midi": 56,
      "hit": false,
      "t": 255323.50299999735,
      "d": 319.43214583332883,
      "v": 91
    },
    {
      "midi": 61,
      "hit": false,
      "t": 255323.50299999735,
      "d": 319.43214583332883,
      "v": 91
    },
    {
      "midi": 44,
      "hit": false,
      "t": 255656.82349999735,
      "d": 319.43214583332883,
      "v": 83
    },
    {
      "midi": 52,
      "hit": false,
      "t": 255656.82349999735,
      "d": 319.43214583332883,
      "v": 91
    },
    {
      "midi": 56,
      "hit": false,
      "t": 255656.82349999735,
      "d": 319.43214583332883,
      "v": 91
    },
    {
      "midi": 61,
      "hit": false,
      "t": 255656.82349999735,
      "d": 319.43214583332883,
      "v": 91
    },
    {
      "midi": 42,
      "hit": false,
      "t": 255990.14399999735,
      "d": 319.43214583332883,
      "v": 83
    },
    {
      "midi": 52,
      "hit": false,
      "t": 255990.14399999735,
      "d": 319.43214583332883,
      "v": 80
    },
    {
      "midi": 54,
      "hit": false,
      "t": 255990.14399999735,
      "d": 319.43214583332883,
      "v": 72
    },
    {
      "midi": 58,
      "hit": false,
      "t": 255990.14399999735,
      "d": 319.43214583332883,
      "v": 76
    },
    {
      "midi": 54,
      "hit": false,
      "t": 256323.46449999735,
      "d": 319.43214583332883,
      "v": 52
    },
    {
      "midi": 58,
      "hit": false,
      "t": 256323.46449999735,
      "d": 319.43214583332883,
      "v": 74
    },
    {
      "midi": 42,
      "hit": false,
      "t": 256323.46449999735,
      "d": 326.3763229166507,
      "v": 70
    },
    {
      "midi": 52,
      "hit": false,
      "t": 256323.46449999735,
      "d": 326.3763229166507,
      "v": 56
    },
    {
      "midi": 42,
      "hit": false,
      "t": 256656.78499999733,
      "d": 319.43214583332883,
      "v": 91
    },
    {
      "midi": 52,
      "hit": false,
      "t": 256656.78499999733,
      "d": 319.43214583332883,
      "v": 91
    },
    {
      "midi": 58,
      "hit": false,
      "t": 256656.78499999733,
      "d": 319.43214583332883,
      "v": 91
    },
    {
      "midi": 54,
      "hit": false,
      "t": 256656.78499999733,
      "d": 326.3763229166507,
      "v": 91
    },
    {
      "midi": 52,
      "hit": false,
      "t": 256990.1054999973,
      "d": 319.43214583332883,
      "v": 61
    },
    {
      "midi": 54,
      "hit": false,
      "t": 256990.1054999973,
      "d": 319.43214583332883,
      "v": 55
    },
    {
      "midi": 58,
      "hit": false,
      "t": 256990.1054999973,
      "d": 319.43214583332883,
      "v": 61
    },
    {
      "midi": 42,
      "hit": false,
      "t": 256990.1054999973,
      "d": 326.3763229166507,
      "v": 68
    },
    {
      "midi": 52,
      "hit": false,
      "t": 257323.42599999727,
      "d": 326.3763229166798,
      "v": 52
    },
    {
      "midi": 54,
      "hit": false,
      "t": 257323.42599999727,
      "d": 326.3763229166798,
      "v": 53
    },
    {
      "midi": 59,
      "hit": false,
      "t": 257323.42599999727,
      "d": 326.3763229166798,
      "v": 70
    },
    {
      "midi": 42,
      "hit": false,
      "t": 257323.42599999727,
      "d": 333.32050000000163,
      "v": 68
    },
    {
      "midi": 54,
      "hit": false,
      "t": 257656.74649999727,
      "d": 319.43214583332883,
      "v": 61
    },
    {
      "midi": 59,
      "hit": false,
      "t": 257656.74649999727,
      "d": 319.43214583332883,
      "v": 66
    },
    {
      "midi": 42,
      "hit": false,
      "t": 257656.74649999727,
      "d": 326.3763229166507,
      "v": 68
    },
    {
      "midi": 52,
      "hit": false,
      "t": 257656.74649999727,
      "d": 326.3763229166507,
      "v": 56
    },
    {
      "midi": 42,
      "hit": false,
      "t": 257990.06699999725,
      "d": 326.3763229166798,
      "v": 91
    },
    {
      "midi": 52,
      "hit": false,
      "t": 257990.06699999725,
      "d": 326.3763229166798,
      "v": 91
    },
    {
      "midi": 54,
      "hit": false,
      "t": 257990.06699999725,
      "d": 326.3763229166798,
      "v": 91
    },
    {
      "midi": 59,
      "hit": false,
      "t": 257990.06699999725,
      "d": 326.3763229166798,
      "v": 91
    },
    {
      "midi": 52,
      "hit": false,
      "t": 258323.38749999725,
      "d": 319.43214583332883,
      "v": 80
    },
    {
      "midi": 54,
      "hit": false,
      "t": 258323.38749999725,
      "d": 319.43214583332883,
      "v": 60
    },
    {
      "midi": 59,
      "hit": false,
      "t": 258323.38749999725,
      "d": 319.43214583332883,
      "v": 90
    },
    {
      "midi": 42,
      "hit": false,
      "t": 258323.38749999725,
      "d": 326.3763229166507,
      "v": 71
    },
    {
      "midi": 42,
      "hit": false,
      "t": 258656.70799999722,
      "d": 319.43214583332883,
      "v": 72
    },
    {
      "midi": 52,
      "hit": false,
      "t": 258656.70799999722,
      "d": 319.43214583332883,
      "v": 50
    },
    {
      "midi": 58,
      "hit": false,
      "t": 258656.70799999722,
      "d": 319.43214583332883,
      "v": 67
    },
    {
      "midi": 61,
      "hit": false,
      "t": 258656.70799999722,
      "d": 319.43214583332883,
      "v": 66
    },
    {
      "midi": 61,
      "hit": false,
      "t": 258990.02849999722,
      "d": 319.43214583332883,
      "v": 62
    },
    {
      "midi": 42,
      "hit": false,
      "t": 258990.02849999722,
      "d": 326.3763229166507,
      "v": 68
    },
    {
      "midi": 52,
      "hit": false,
      "t": 258990.02849999722,
      "d": 326.3763229166507,
      "v": 68
    },
    {
      "midi": 58,
      "hit": false,
      "t": 258990.02849999722,
      "d": 326.3763229166507,
      "v": 61
    },
    {
      "midi": 42,
      "hit": false,
      "t": 259323.3489999972,
      "d": 319.43214583332883,
      "v": 91
    },
    {
      "midi": 52,
      "hit": false,
      "t": 259323.3489999972,
      "d": 319.43214583332883,
      "v": 91
    },
    {
      "midi": 58,
      "hit": false,
      "t": 259323.3489999972,
      "d": 319.43214583332883,
      "v": 94
    },
    {
      "midi": 61,
      "hit": false,
      "t": 259323.3489999972,
      "d": 319.43214583332883,
      "v": 91
    },
    {
      "midi": 42,
      "hit": false,
      "t": 259656.6694999972,
      "d": 319.43214583332883,
      "v": 65
    },
    {
      "midi": 52,
      "hit": false,
      "t": 259656.6694999972,
      "d": 319.43214583332883,
      "v": 61
    },
    {
      "midi": 58,
      "hit": false,
      "t": 259656.6694999972,
      "d": 319.43214583332883,
      "v": 65
    },
    {
      "midi": 61,
      "hit": false,
      "t": 259656.6694999972,
      "d": 319.43214583332883,
      "v": 73
    },
    {
      "midi": 58,
      "hit": false,
      "t": 259989.9899999972,
      "d": 312.487968750007,
      "v": 40
    },
    {
      "midi": 42,
      "hit": false,
      "t": 259989.9899999972,
      "d": 319.43214583332883,
      "v": 56
    },
    {
      "midi": 52,
      "hit": false,
      "t": 259989.9899999972,
      "d": 319.43214583332883,
      "v": 66
    },
    {
      "midi": 63,
      "hit": false,
      "t": 259989.9899999972,
      "d": 319.43214583332883,
      "v": 68
    },
    {
      "midi": 42,
      "hit": false,
      "t": 260323.3104999972,
      "d": 319.43214583332883,
      "v": 75
    },
    {
      "midi": 52,
      "hit": false,
      "t": 260323.3104999972,
      "d": 319.43214583332883,
      "v": 85
    },
    {
      "midi": 58,
      "hit": false,
      "t": 260323.3104999972,
      "d": 319.43214583332883,
      "v": 62
    },
    {
      "midi": 63,
      "hit": false,
      "t": 260323.3104999972,
      "d": 319.43214583332883,
      "v": 83
    },
    {
      "midi": 42,
      "hit": false,
      "t": 260656.6309999972,
      "d": 319.43214583332883,
      "v": 91
    },
    {
      "midi": 52,
      "hit": false,
      "t": 260656.6309999972,
      "d": 319.43214583332883,
      "v": 91
    },
    {
      "midi": 58,
      "hit": false,
      "t": 260656.6309999972,
      "d": 319.43214583332883,
      "v": 91
    },
    {
      "midi": 63,
      "hit": false,
      "t": 260656.6309999972,
      "d": 319.43214583332883,
      "v": 91
    },
    {
      "midi": 42,
      "hit": false,
      "t": 260989.9514999972,
      "d": 319.43214583332883,
      "v": 62
    },
    {
      "midi": 52,
      "hit": false,
      "t": 260989.9514999972,
      "d": 319.43214583332883,
      "v": 73
    },
    {
      "midi": 58,
      "hit": false,
      "t": 260989.9514999972,
      "d": 319.43214583332883,
      "v": 58
    },
    {
      "midi": 63,
      "hit": false,
      "t": 260989.9514999972,
      "d": 319.43214583332883,
      "v": 78
    },
    {
      "midi": 42,
      "hit": false,
      "t": 261323.2719999972,
      "d": 319.43214583332883,
      "v": 76
    },
    {
      "midi": 49,
      "hit": false,
      "t": 261323.2719999972,
      "d": 319.43214583332883,
      "v": 91
    },
    {
      "midi": 64,
      "hit": false,
      "t": 261323.2719999972,
      "d": 319.43214583332883,
      "v": 91
    },
    {
      "midi": 58,
      "hit": false,
      "t": 261323.2719999972,
      "d": 326.3763229166507,
      "v": 76
    },
    {
      "midi": 49,
      "hit": false,
      "t": 261656.59249999718,
      "d": 319.43214583332883,
      "v": 80
    },
    {
      "midi": 58,
      "hit": false,
      "t": 261656.59249999718,
      "d": 319.43214583332883,
      "v": 56
    },
    {
      "midi": 64,
      "hit": false,
      "t": 261656.59249999718,
      "d": 319.43214583332883,
      "v": 62
    },
    {
      "midi": 42,
      "hit": false,
      "t": 261656.59249999718,
      "d": 326.3763229166507,
      "v": 63
    },
    {
      "midi": 42,
      "hit": false,
      "t": 261989.91299999715,
      "d": 319.43214583332883,
      "v": 91
    },
    {
      "midi": 58,
      "hit": false,
      "t": 261989.91299999715,
      "d": 319.43214583332883,
      "v": 91
    },
    {
      "midi": 64,
      "hit": false,
      "t": 261989.91299999715,
      "d": 319.43214583332883,
      "v": 91
    },
    {
      "midi": 49,
      "hit": false,
      "t": 261989.91299999715,
      "d": 326.3763229166507,
      "v": 91
    },
    {
      "midi": 42,
      "hit": false,
      "t": 262323.2334999971,
      "d": 319.43214583332883,
      "v": 59
    },
    {
      "midi": 58,
      "hit": false,
      "t": 262323.2334999971,
      "d": 319.43214583332883,
      "v": 56
    },
    {
      "midi": 64,
      "hit": false,
      "t": 262323.2334999971,
      "d": 319.43214583332883,
      "v": 62
    },
    {
      "midi": 49,
      "hit": false,
      "t": 262323.2334999971,
      "d": 326.3763229166507,
      "v": 53
    },
    {
      "midi": 42,
      "hit": false,
      "t": 262656.5539999971,
      "d": 319.43214583332883,
      "v": 70
    },
    {
      "midi": 49,
      "hit": false,
      "t": 262656.5539999971,
      "d": 319.43214583332883,
      "v": 77
    },
    {
      "midi": 57,
      "hit": false,
      "t": 262656.5539999971,
      "d": 319.43214583332883,
      "v": 55
    },
    {
      "midi": 66,
      "hit": false,
      "t": 262656.5539999971,
      "d": 319.43214583332883,
      "v": 78
    },
    {
      "midi": 42,
      "hit": false,
      "t": 262989.87449999707,
      "d": 319.43214583332883,
      "v": 60
    },
    {
      "midi": 57,
      "hit": false,
      "t": 262989.87449999707,
      "d": 319.43214583332883,
      "v": 56
    },
    {
      "midi": 66,
      "hit": false,
      "t": 262989.87449999707,
      "d": 319.43214583332883,
      "v": 70
    },
    {
      "midi": 49,
      "hit": false,
      "t": 262989.87449999707,
      "d": 326.3763229166507,
      "v": 68
    },
    {
      "midi": 42,
      "hit": false,
      "t": 263323.19499999704,
      "d": 319.43214583332883,
      "v": 91
    },
    {
      "midi": 49,
      "hit": false,
      "t": 263323.19499999704,
      "d": 319.43214583332883,
      "v": 91
    },
    {
      "midi": 57,
      "hit": false,
      "t": 263323.19499999704,
      "d": 326.3763229166507,
      "v": 87
    },
    {
      "midi": 66,
      "hit": false,
      "t": 263323.19499999704,
      "d": 326.3763229166507,
      "v": 91
    },
    {
      "midi": 57,
      "hit": false,
      "t": 263656.515499997,
      "d": 319.43214583332883,
      "v": 68
    },
    {
      "midi": 66,
      "hit": false,
      "t": 263656.515499997,
      "d": 319.43214583332883,
      "v": 91
    },
    {
      "midi": 42,
      "hit": false,
      "t": 263656.515499997,
      "d": 326.3763229166507,
      "v": 78
    },
    {
      "midi": 49,
      "hit": false,
      "t": 263656.515499997,
      "d": 326.3763229166507,
      "v": 91
    },
    {
      "midi": 68,
      "hit": false,
      "t": 263989.835999997,
      "d": 312.487968750007,
      "v": 91
    },
    {
      "midi": 47,
      "hit": false,
      "t": 263989.835999997,
      "d": 319.43214583332883,
      "v": 91
    },
    {
      "midi": 57,
      "hit": false,
      "t": 263989.835999997,
      "d": 319.43214583332883,
      "v": 83
    },
    {
      "midi": 63,
      "hit": false,
      "t": 263989.835999997,
      "d": 319.43214583332883,
      "v": 91
    },
    {
      "midi": 52,
      "hit": false,
      "t": 275989.373999997,
      "d": 2513.7921041666996,
      "v": 106
    },
    {
      "midi": 64,
      "hit": false,
      "t": 276156.034249997,
      "d": 2201.3041354166926,
      "v": 78
    },
    {
      "midi": 59,
      "hit": false,
      "t": 276156.034249997,
      "d": 2298.522614583373,
      "v": 90
    },
    {
      "midi": 56,
      "hit": false,
      "t": 276156.034249997,
      "d": 2381.8527395833516,
      "v": 75
    },
    {
      "midi": 68,
      "hit": false,
      "t": 276322.694499997,
      "d": 2076.3089479166665,
      "v": 57
    }
  ]
}