{
  "jsonPath": "World/Canzone Napoletana/Pino Daniele/voglio-di-piu-1995-digital-remaster.json",
  "path": "World\\Canzone Napoletana\\Pino Daniele\\Voglio Di Più (1995 Digital Remaster).mid",
  "name": "Voglio Di Più (1995 Digital Remaster)",
  "difficulty": "Advanced",
  "bpm": 67.00002903334591,
  "notes": [
    {
      "midi": 40,
      "hit": false,
      "t": 4717.8579291666665,
      "d": 1330.357364583333,
      "v": 86
    },
    {
      "midi": 52,
      "hit": false,
      "t": 4717.8579291666665,
      "d": 1496.4288208333328,
      "v": 86
    },
    {
      "midi": 64,
      "hit": false,
      "t": 4717.8579291666665,
      "d": 1644.643131249999,
      "v": 86
    },
    {
      "midi": 66,
      "hit": false,
      "t": 4717.8579291666665,
      "d": 1648.2145604166653,
      "v": 86
    },
    {
      "midi": 71,
      "hit": false,
      "t": 4717.8579291666665,
      "d": 1737.5002895833313,
      "v": 86
    },
    {
      "midi": 60,
      "hit": false,
      "t": 6860.715429166665,
      "d": 567.8572375000003,
      "v": 47
    },
    {
      "midi": 64,
      "hit": false,
      "t": 6860.715429166665,
      "d": 766.07155625,
      "v": 76
    },
    {
      "midi": 67,
      "hit": false,
      "t": 6860.715429166665,
      "d": 767.8572708333331,
      "v": 68
    },
    {
      "midi": 71,
      "hit": false,
      "t": 6860.715429166665,
      "d": 908.9287229166666,
      "v": 43
    },
    {
      "midi": 48,
      "hit": false,
      "t": 6860.715429166665,
      "d": 975.0001624999995,
      "v": 72
    },
    {
      "midi": 59,
      "hit": false,
      "t": 8146.429929166664,
      "d": 687.5001145833312,
      "v": 78
    },
    {
      "midi": 62,
      "hit": false,
      "t": 8146.429929166664,
      "d": 707.1429749999979,
      "v": 80
    },
    {
      "midi": 66,
      "hit": false,
      "t": 8146.429929166664,
      "d": 742.857266666665,
      "v": 54
    },
    {
      "midi": 69,
      "hit": false,
      "t": 8146.429929166664,
      "d": 776.785843749999,
      "v": 86
    },
    {
      "midi": 47,
      "hit": false,
      "t": 8146.429929166664,
      "d": 1676.785993749997,
      "v": 84
    },
    {
      "midi": 76,
      "hit": false,
      "t": 9432.144429166661,
      "d": 883.9287187499995,
      "v": 96
    },
    {
      "midi": 71,
      "hit": false,
      "t": 10289.287429166661,
      "d": 2296.4289541666603,
      "v": 96
    },
    {
      "midi": 40,
      "hit": false,
      "t": 10289.287429166661,
      "d": 2362.5003937499932,
      "v": 81
    },
    {
      "midi": 52,
      "hit": false,
      "t": 10717.85892916666,
      "d": 246.42861249999987,
      "v": 49
    },
    {
      "midi": 64,
      "hit": false,
      "t": 10932.144679166659,
      "d": 1680.3574229166625,
      "v": 81
    },
    {
      "midi": 52,
      "hit": false,
      "t": 11360.716179166659,
      "d": 1471.428816666663,
      "v": 58
    },
    {
      "midi": 66,
      "hit": false,
      "t": 11575.001929166658,
      "d": 1000.0001666666631,
      "v": 86
    },
    {
      "midi": 69,
      "hit": false,
      "t": 11575.001929166658,
      "d": 1000.0001666666631,
      "v": 86
    },
    {
      "midi": 67,
      "hit": false,
      "t": 13717.85942916665,
      "d": 689.2858291666653,
      "v": 80
    },
    {
      "midi": 48,
      "hit": false,
      "t": 13717.85942916665,
      "d": 701.7858312499993,
      "v": 78
    },
    {
      "midi": 64,
      "hit": false,
      "t": 13717.85942916665,
      "d": 728.5715499999988,
      "v": 84
    },
    {
      "midi": 55,
      "hit": false,
      "t": 13717.85942916665,
      "d": 757.1429833333314,
      "v": 72
    },
    {
      "midi": 71,
      "hit": false,
      "t": 13717.85942916665,
      "d": 757.1429833333314,
      "v": 64
    },
    {
      "midi": 60,
      "hit": false,
      "t": 13717.85942916665,
      "d": 776.7858437499981,
      "v": 62
    },
    {
      "midi": 47,
      "hit": false,
      "t": 15003.573929166649,
      "d": 2142.8574999999964,
      "v": 82
    },
    {
      "midi": 66,
      "hit": false,
      "t": 15003.573929166649,
      "d": 2158.928931249995,
      "v": 54
    },
    {
      "midi": 62,
      "hit": false,
      "t": 15003.573929166649,
      "d": 2167.857504166661,
      "v": 80
    },
    {
      "midi": 54,
      "hit": false,
      "t": 15003.573929166649,
      "d": 2178.57179166666,
      "v": 33
    },
    {
      "midi": 69,
      "hit": false,
      "t": 15003.573929166649,
      "d": 2185.7146499999926,
      "v": 86
    },
    {
      "midi": 59,
      "hit": false,
      "t": 17146.431429166645,
      "d": 28.571433333330788,
      "v": 42
    },
    {
      "midi": 52,
      "hit": false,
      "t": 17146.431429166645,
      "d": 1233.9287770833325,
      "v": 54
    },
    {
      "midi": 64,
      "hit": false,
      "t": 17146.431429166645,
      "d": 1380.3573729166674,
      "v": 48
    },
    {
      "midi": 67,
      "hit": false,
      "t": 17146.431429166645,
      "d": 1403.5716625000023,
      "v": 52
    },
    {
      "midi": 71,
      "hit": false,
      "t": 17146.431429166645,
      "d": 1528.5716833333354,
      "v": 42
    },
    {
      "midi": 50,
      "hit": false,
      "t": 18860.71742916665,
      "d": 1100.0001833333336,
      "v": 62
    },
    {
      "midi": 62,
      "hit": false,
      "t": 18860.71742916665,
      "d": 1114.285899999999,
      "v": 38
    },
    {
      "midi": 69,
      "hit": false,
      "t": 18860.71742916665,
      "d": 1283.928785416665,
      "v": 35
    },
    {
      "midi": 66,
      "hit": false,
      "t": 18860.71742916665,
      "d": 1287.5002145833314,
      "v": 15
    },
    {
      "midi": 71,
      "hit": false,
      "t": 18860.71742916665,
      "d": 1603.5716958333323,
      "v": 26
    },
    {
      "midi": 59,
      "hit": false,
      "t": 19932.146179166648,
      "d": 616.0715312499997,
      "v": 50
    },
    {
      "midi": 62,
      "hit": false,
      "t": 20146.431929166647,
      "d": 133.92859374999898,
      "v": 50
    },
    {
      "midi": 67,
      "hit": false,
      "t": 20575.00342916665,
      "d": 1185.7144833333332,
      "v": 50
    },
    {
      "midi": 48,
      "hit": false,
      "t": 20575.00342916665,
      "d": 1207.143058333335,
      "v": 52
    },
    {
      "midi": 64,
      "hit": false,
      "t": 20575.00342916665,
      "d": 1223.2144895833335,
      "v": 58
    },
    {
      "midi": 60,
      "hit": false,
      "t": 20575.00342916665,
      "d": 1230.3573479166662,
      "v": 7
    },
    {
      "midi": 71,
      "hit": false,
      "t": 20575.00342916665,
      "d": 1233.9287770833325,
      "v": 13
    },
    {
      "midi": 59,
      "hit": false,
      "t": 22289.28942916665,
      "d": 482.1429375000007,
      "v": 25
    },
    {
      "midi": 66,
      "hit": false,
      "t": 22289.28942916665,
      "d": 507.1429416666688,
      "v": 6
    },
    {
      "midi": 62,
      "hit": false,
      "t": 22289.28942916665,
      "d": 510.7143708333351,
      "v": 40
    },
    {
      "midi": 47,
      "hit": false,
      "t": 22289.28942916665,
      "d": 541.0715187500027,
      "v": 50
    },
    {
      "midi": 69,
      "hit": false,
      "t": 22289.28942916665,
      "d": 567.857237500004,
      "v": 35
    },
    {
      "midi": 47,
      "hit": false,
      "t": 22932.146679166653,
      "d": 689.2858291666635,
      "v": 10
    },
    {
      "midi": 71,
      "hit": false,
      "t": 23146.432429166653,
      "d": 425.00007083333185,
      "v": 83
    },
    {
      "midi": 70,
      "hit": false,
      "t": 23575.00392916665,
      "d": 76.78572708333377,
      "v": 44
    },
    {
      "midi": 60,
      "hit": false,
      "t": 24003.575429166653,
      "d": 982.1430208333331,
      "v": 35
    },
    {
      "midi": 64,
      "hit": false,
      "t": 24003.575429166653,
      "d": 1010.7144541666676,
      "v": 58
    },
    {
      "midi": 45,
      "hit": false,
      "t": 24003.575429166653,
      "d": 1019.6430270833334,
      "v": 66
    },
    {
      "midi": 69,
      "hit": false,
      "t": 24003.575429166653,
      "d": 1019.6430270833334,
      "v": 54
    },
    {
      "midi": 67,
      "hit": false,
      "t": 24003.575429166653,
      "d": 1028.5715999999993,
      "v": 50
    },
    {
      "midi": 47,
      "hit": false,
      "t": 25717.861429166653,
      "d": 1714.2859999999964,
      "v": 54
    },
    {
      "midi": 59,
      "hit": false,
      "t": 25717.861429166653,
      "d": 1714.2859999999964,
      "v": 30
    },
    {
      "midi": 62,
      "hit": false,
      "t": 25717.861429166653,
      "d": 1714.2859999999964,
      "v": 42
    },
    {
      "midi": 66,
      "hit": false,
      "t": 25717.861429166653,
      "d": 1714.2859999999964,
      "v": 6
    },
    {
      "midi": 69,
      "hit": false,
      "t": 25717.861429166653,
      "d": 1714.2859999999964,
      "v": 54
    },
    {
      "midi": 71,
      "hit": false,
      "t": 25717.861429166653,
      "d": 1714.2859999999964,
      "v": 44
    },
    {
      "midi": 64,
      "hit": false,
      "t": 28717.861929166647,
      "d": 1144.6430479166665,
      "v": 86
    },
    {
      "midi": 66,
      "hit": false,
      "t": 28717.861929166647,
      "d": 1216.0716312500008,
      "v": 86
    },
    {
      "midi": 71,
      "hit": false,
      "t": 28717.861929166647,
      "d": 1232.1430624999994,
      "v": 86
    },
    {
      "midi": 40,
      "hit": false,
      "t": 28717.861929166647,
      "d": 1250.000208333331,
      "v": 86
    },
    {
      "midi": 52,
      "hit": false,
      "t": 28717.861929166647,
      "d": 1344.6430812499966,
      "v": 86
    },
    {
      "midi": 83,
      "hit": false,
      "t": 30860.719429166642,
      "d": 741.0715520833328,
      "v": 74
    },
    {
      "midi": 48,
      "hit": false,
      "t": 30860.719429166642,
      "d": 1060.7144625,
      "v": 74
    },
    {
      "midi": 55,
      "hit": false,
      "t": 31075.00517916664,
      "d": 496.4286541666661,
      "v": 59
    },
    {
      "midi": 72,
      "hit": false,
      "t": 31289.29092916664,
      "d": 366.07148958333346,
      "v": 53
    },
    {
      "midi": 76,
      "hit": false,
      "t": 31503.57667916664,
      "d": 117.85716250000041,
      "v": 71
    },
    {
      "midi": 54,
      "hit": false,
      "t": 32146.433929166644,
      "d": 451.7857895833331,
      "v": 48
    },
    {
      "midi": 81,
      "hit": false,
      "t": 32146.433929166644,
      "d": 1130.3573312499975,
      "v": 60
    },
    {
      "midi": 78,
      "hit": false,
      "t": 32146.433929166644,
      "d": 1275.0002124999992,
      "v": 28
    },
    {
      "midi": 76,
      "hit": false,
      "t": 32146.433929166644,
      "d": 1310.7145041666627,
      "v": 29
    },
    {
      "midi": 71,
      "hit": false,
      "t": 32146.433929166644,
      "d": 1350.0002249999925,
      "v": 16
    },
    {
      "midi": 47,
      "hit": false,
      "t": 32146.433929166644,
      "d": 1612.500268749991,
      "v": 64
    },
    {
      "midi": 81,
      "hit": false,
      "t": 33646.43417916664,
      "d": 635.7143916666682,
      "v": 50
    },
    {
      "midi": 71,
      "hit": false,
      "t": 33860.71992916663,
      "d": 1928.5717500000028,
      "v": 38
    },
    {
      "midi": 74,
      "hit": false,
      "t": 34075.005679166636,
      "d": 219.64289375000226,
      "v": 41
    },
    {
      "midi": 67,
      "hit": false,
      "t": 34289.29142916664,
      "d": 1475.0002458333329,
      "v": 58
    },
    {
      "midi": 64,
      "hit": false,
      "t": 34289.29142916664,
      "d": 1480.3573895833324,
      "v": 60
    },
    {
      "midi": 52,
      "hit": false,
      "t": 34289.29142916664,
      "d": 1714.286,
      "v": 18
    },
    {
      "midi": 47,
      "hit": false,
      "t": 36003.57742916664,
      "d": 1076.785893750006,
      "v": 27
    },
    {
      "midi": 66,
      "hit": false,
      "t": 36003.57742916664,
      "d": 1178.5716250000041,
      "v": 15
    },
    {
      "midi": 69,
      "hit": false,
      "t": 36003.57742916664,
      "d": 1301.7859312500077,
      "v": 48
    },
    {
      "midi": 62,
      "hit": false,
      "t": 36003.57742916664,
      "d": 1317.8573625000063,
      "v": 42
    },
    {
      "midi": 71,
      "hit": false,
      "t": 36003.57742916664,
      "d": 1492.857391666672,
      "v": 23
    },
    {
      "midi": 48,
      "hit": false,
      "t": 37717.863429166646,
      "d": 960.7144458333278,
      "v": 50
    },
    {
      "midi": 64,
      "hit": false,
      "t": 37717.863429166646,
      "d": 1100.00018333333,
      "v": 50
    },
    {
      "midi": 67,
      "hit": false,
      "t": 37717.863429166646,
      "d": 1116.0716145833285,
      "v": 44
    },
    {
      "midi": 60,
      "hit": false,
      "t": 37717.863429166646,
      "d": 1135.7144749999934,
      "v": 9
    },
    {
      "midi": 71,
      "hit": false,
      "t": 37717.863429166646,
      "d": 1248.2144937499907,
      "v": 22
    },
    {
      "midi": 66,
      "hit": false,
      "t": 39432.14942916664,
      "d": 830.3572812499988,
      "v": 17
    },
    {
      "midi": 71,
      "hit": false,
      "t": 39432.14942916664,
      "d": 844.6429979166642,
      "v": 33
    },
    {
      "midi": 62,
      "hit": false,
      "t": 39432.14942916664,
      "d": 858.9287145833296,
      "v": 42
    },
    {
      "midi": 47,
      "hit": false,
      "t": 39432.14942916664,
      "d": 944.6430145833292,
      "v": 56
    },
    {
      "midi": 46,
      "hit": false,
      "t": 40503.57817916663,
      "d": 580.3572395833326,
      "v": 71
    },
    {
      "midi": 61,
      "hit": false,
      "t": 40503.57817916663,
      "d": 642.8572500000009,
      "v": 71
    },
    {
      "midi": 65,
      "hit": false,
      "t": 40503.57817916663,
      "d": 642.8572500000009,
      "v": 71
    },
    {
      "midi": 70,
      "hit": false,
      "t": 40503.57817916663,
      "d": 642.8572500000009,
      "v": 71
    },
    {
      "midi": 64,
      "hit": false,
      "t": 41146.43542916663,
      "d": 1380.3573729166674,
      "v": 72
    },
    {
      "midi": 60,
      "hit": false,
      "t": 41146.43542916663,
      "d": 1382.1430875000005,
      "v": 42
    },
    {
      "midi": 69,
      "hit": false,
      "t": 41146.43542916663,
      "d": 1416.0716645833309,
      "v": 56
    },
    {
      "midi": 67,
      "hit": false,
      "t": 41146.43542916663,
      "d": 1428.571666666663,
      "v": 62
    },
    {
      "midi": 45,
      "hit": false,
      "t": 41146.43542916663,
      "d": 1714.286,
      "v": 96
    },
    {
      "midi": 62,
      "hit": false,
      "t": 42860.72142916663,
      "d": 1212.5002020833344,
      "v": 54
    },
    {
      "midi": 69,
      "hit": false,
      "t": 42860.72142916663,
      "d": 1430.3573812500035,
      "v": 66
    },
    {
      "midi": 71,
      "hit": false,
      "t": 42860.72142916663,
      "d": 1519.6431104166695,
      "v": 48
    },
    {
      "midi": 66,
      "hit": false,
      "t": 42860.72142916663,
      "d": 1632.1431291666668,
      "v": 33
    },
    {
      "midi": 47,
      "hit": false,
      "t": 42860.72142916663,
      "d": 1714.286,
      "v": 51
    },
    {
      "midi": 64,
      "hit": false,
      "t": 44575.00742916663,
      "d": 475.0000791666607,
      "v": 46
    },
    {
      "midi": 67,
      "hit": false,
      "t": 44575.00742916663,
      "d": 482.1429374999934,
      "v": 42
    },
    {
      "midi": 71,
      "hit": false,
      "t": 44575.00742916663,
      "d": 573.2143812499926,
      "v": 33
    },
    {
      "midi": 59,
      "hit": false,
      "t": 44575.00742916663,
      "d": 3287.500547916665,
      "v": 27
    },
    {
      "midi": 52,
      "hit": false,
      "t": 44575.00742916663,
      "d": 3300.000549999997,
      "v": 44
    },
    {
      "midi": 76,
      "hit": false,
      "t": 46046.43624583329,
      "d": 185.71431666666467,
      "v": 32
    },
    {
      "midi": 79,
      "hit": false,
      "t": 46075.00767916662,
      "d": 107.14287499999773,
      "v": 34
    },
    {
      "midi": 83,
      "hit": false,
      "t": 46182.15055416662,
      "d": 103.57144583333866,
      "v": 41
    },
    {
      "midi": 88,
      "hit": false,
      "t": 46330.364864583295,
      "d": 101.78573124999821,
      "v": 52
    },
    {
      "midi": 33,
      "hit": false,
      "t": 48000.007999999994,
      "d": 3428.572,
      "v": 127
    },
    {
      "midi": 64,
      "hit": false,
      "t": 48860.722429166635,
      "d": 2537.5004229166952,
      "v": 115
    },
    {
      "midi": 59,
      "hit": false,
      "t": 48860.722429166635,
      "d": 2544.643281250028,
      "v": 109
    },
    {
      "midi": 67,
      "hit": false,
      "t": 48860.722429166635,
      "d": 2550.0004250000275,
      "v": 98
    },
    {
      "midi": 60,
      "hit": false,
      "t": 48860.722429166635,
      "d": 2560.7147125000265,
      "v": 98
    },
    {
      "midi": 35,
      "hit": false,
      "t": 51428.579999999994,
      "d": 3433.9291437499996,
      "v": 127
    },
    {
      "midi": 62,
      "hit": false,
      "t": 52289.29442916667,
      "d": 2550.0004250000275,
      "v": 115
    },
    {
      "midi": 69,
      "hit": false,
      "t": 52289.29442916667,
      "d": 2550.0004250000275,
      "v": 92
    },
    {
      "midi": 59,
      "hit": false,
      "t": 52289.29442916667,
      "d": 2560.7147125000265,
      "v": 92
    },
    {
      "midi": 66,
      "hit": false,
      "t": 52289.29442916667,
      "d": 2567.857570833359,
      "v": 92
    },
    {
      "midi": 33,
      "hit": false,
      "t": 54857.151999999995,
      "d": 3421.4291416666674,
      "v": 127
    },
    {
      "midi": 67,
      "hit": false,
      "t": 55717.86642916671,
      "d": 2542.8575666666948,
      "v": 98
    },
    {
      "midi": 59,
      "hit": false,
      "t": 55717.86642916671,
      "d": 2544.643281250028,
      "v": 109
    },
    {
      "midi": 60,
      "hit": false,
      "t": 55717.86642916671,
      "d": 2546.428995833361,
      "v": 109
    },
    {
      "midi": 64,
      "hit": false,
      "t": 55717.86642916671,
      "d": 2546.428995833361,
      "v": 109
    },
    {
      "midi": 35,
      "hit": false,
      "t": 58285.723999999995,
      "d": 3458.929147916664,
      "v": 127
    },
    {
      "midi": 62,
      "hit": false,
      "t": 59146.438429166745,
      "d": 2553.571854166694,
      "v": 109
    },
    {
      "midi": 69,
      "hit": false,
      "t": 59146.438429166745,
      "d": 2558.9289979166933,
      "v": 98
    },
    {
      "midi": 59,
      "hit": false,
      "t": 59146.438429166745,
      "d": 2560.7147125000265,
      "v": 92
    },
    {
      "midi": 66,
      "hit": false,
      "t": 59146.438429166745,
      "d": 2569.6432854166924,
      "v": 92
    },
    {
      "midi": 33,
      "hit": false,
      "t": 61714.295999999995,
      "d": 3412.5005687499943,
      "v": 127
    },
    {
      "midi": 64,
      "hit": false,
      "t": 62575.01042916678,
      "d": 2541.0718520833616,
      "v": 109
    },
    {
      "midi": 67,
      "hit": false,
      "t": 62575.01042916678,
      "d": 2542.8575666666948,
      "v": 98
    },
    {
      "midi": 60,
      "hit": false,
      "t": 62575.01042916678,
      "d": 2544.643281250028,
      "v": 109
    },
    {
      "midi": 59,
      "hit": false,
      "t": 62575.01042916678,
      "d": 2562.5004270833597,
      "v": 115
    },
    {
      "midi": 28,
      "hit": false,
      "t": 65142.86799999999,
      "d": 3487.500581250002,
      "v": 127
    },
    {
      "midi": 64,
      "hit": false,
      "t": 66003.5824291668,
      "d": 2492.857558333286,
      "v": 115
    },
    {
      "midi": 59,
      "hit": false,
      "t": 66003.5824291668,
      "d": 2501.786131249959,
      "v": 86
    },
    {
      "midi": 62,
      "hit": false,
      "t": 66003.5824291668,
      "d": 2514.2861333332985,
      "v": 104
    },
    {
      "midi": 67,
      "hit": false,
      "t": 66003.5824291668,
      "d": 2533.9289937499707,
      "v": 109
    },
    {
      "midi": 30,
      "hit": false,
      "t": 68571.43999999999,
      "d": 3383.9291354166635,
      "v": 127
    },
    {
      "midi": 70,
      "hit": false,
      "t": 69432.15442916675,
      "d": 2296.428954166622,
      "v": 92
    },
    {
      "midi": 61,
      "hit": false,
      "t": 69432.15442916675,
      "d": 2314.286099999954,
      "v": 92
    },
    {
      "midi": 66,
      "hit": false,
      "t": 69432.15442916675,
      "d": 2341.0718187499588,
      "v": 92
    },
    {
      "midi": 35,
      "hit": false,
      "t": 72000.01199999999,
      "d": 3503.5720124999934,
      "v": 127
    },
    {
      "midi": 66,
      "hit": false,
      "t": 72003.58342916671,
      "d": 3455.3577187499322,
      "v": 66
    },
    {
      "midi": 63,
      "hit": false,
      "t": 72003.58342916671,
      "d": 3473.214864583264,
      "v": 66
    },
    {
      "midi": 71,
      "hit": false,
      "t": 75432.15542916664,
      "d": 41.07143541667028,
      "v": 70
    },
    {
      "midi": 52,
      "hit": false,
      "t": 75432.15542916664,
      "d": 2464.2861250000133,
      "v": 80
    },
    {
      "midi": 59,
      "hit": false,
      "t": 75646.44117916665,
      "d": 439.28578749998996,
      "v": 44
    },
    {
      "midi": 64,
      "hit": false,
      "t": 75860.72692916665,
      "d": 2014.2860500000097,
      "v": 62
    },
    {
      "midi": 66,
      "hit": false,
      "t": 76075.01267916664,
      "d": 1787.5002979166748,
      "v": 72
    },
    {
      "midi": 59,
      "hit": false,
      "t": 76503.58417916665,
      "d": 1514.2859666666773,
      "v": 60
    },
    {
      "midi": 71,
      "hit": false,
      "t": 76717.86992916664,
      "d": 1112.5001854166767,
      "v": 68
    },
    {
      "midi": 48,
      "hit": false,
      "t": 78860.72742916665,
      "d": 678.5715416666644,
      "v": 60
    },
    {
      "midi": 60,
      "hit": false,
      "t": 78860.72742916665,
      "d": 678.5715416666644,
      "v": 56
    },
    {
      "midi": 67,
      "hit": false,
      "t": 78860.72742916665,
      "d": 812.5001354166598,
      "v": 80
    },
    {
      "midi": 71,
      "hit": false,
      "t": 78860.72742916665,
      "d": 823.2144229166588,
      "v": 70
    },
    {
      "midi": 64,
      "hit": false,
      "t": 78860.72742916665,
      "d": 830.3572812499915,
      "v": 72
    },
    {
      "midi": 55,
      "hit": false,
      "t": 79503.58467916666,
      "d": 301.7857645833283,
      "v": 64
    },
    {
      "midi": 60,
      "hit": false,
      "t": 79717.87042916665,
      "d": 71.42858333332697,
      "v": 68
    },
    {
      "midi": 47,
      "hit": false,
      "t": 80146.44192916666,
      "d": 1535.7145416666608,
      "v": 68
    },
    {
      "midi": 59,
      "hit": false,
      "t": 80146.44192916666,
      "d": 1612.5002687499946,
      "v": 56
    },
    {
      "midi": 69,
      "hit": false,
      "t": 80146.44192916666,
      "d": 1621.4288416666677,
      "v": 78
    },
    {
      "midi": 62,
      "hit": false,
      "t": 80146.44192916666,
      "d": 1635.7145583333331,
      "v": 78
    },
    {
      "midi": 66,
      "hit": false,
      "t": 80146.44192916666,
      "d": 1650.0002749999985,
      "v": 50
    },
    {
      "midi": 71,
      "hit": false,
      "t": 82289.29942916665,
      "d": 487.50008124999295,
      "v": 86
    },
    {
      "midi": 52,
      "hit": false,
      "t": 82289.29942916665,
      "d": 2800.000466666679,
      "v": 76
    },
    {
      "midi": 59,
      "hit": false,
      "t": 82503.58517916665,
      "d": 439.28578749998996,
      "v": 62
    },
    {
      "midi": 64,
      "hit": false,
      "t": 82717.87092916665,
      "d": 446.42864583332266,
      "v": 68
    },
    {
      "midi": 66,
      "hit": false,
      "t": 82932.15667916664,
      "d": 453.57150416665536,
      "v": 109
    },
    {
      "midi": 59,
      "hit": false,
      "t": 83146.44242916664,
      "d": 375.0000624999957,
      "v": 66
    },
    {
      "midi": 64,
      "hit": false,
      "t": 83360.72817916663,
      "d": 232.1428958333272,
      "v": 72
    },
    {
      "midi": 71,
      "hit": false,
      "t": 83575.01392916663,
      "d": 439.2857875000045,
      "v": 95
    },
    {
      "midi": 59,
      "hit": false,
      "t": 83789.29967916662,
      "d": 417.857212500021,
      "v": 80
    },
    {
      "midi": 64,
      "hit": false,
      "t": 84003.58542916663,
      "d": 251.78575625001395,
      "v": 89
    },
    {
      "midi": 66,
      "hit": false,
      "t": 84217.87117916664,
      "d": 683.9286854166858,
      "v": 101
    },
    {
      "midi": 59,
      "hit": false,
      "t": 84432.15692916665,
      "d": 426.785785416665,
      "v": 80
    },
    {
      "midi": 64,
      "hit": false,
      "t": 84646.44267916665,
      "d": 187.50003125000512,
      "v": 59
    },
    {
      "midi": 71,
      "hit": false,
      "t": 84860.72842916666,
      "d": 482.1429375000007,
      "v": 98
    },
    {
      "midi": 59,
      "hit": false,
      "t": 85075.01417916667,
      "d": 644.6429645833414,
      "v": 86
    },
    {
      "midi": 64,
      "hit": false,
      "t": 85289.29992916666,
      "d": 108.9285895833309,
      "v": 71
    },
    {
      "midi": 71,
      "hit": false,
      "t": 85717.87142916667,
      "d": 625.0001041666692,
      "v": 86
    },
    {
      "midi": 64,
      "hit": false,
      "t": 85717.87142916667,
      "d": 630.357247916676,
      "v": 86
    },
    {
      "midi": 67,
      "hit": false,
      "t": 85717.87142916667,
      "d": 632.1429625000164,
      "v": 86
    },
    {
      "midi": 48,
      "hit": false,
      "t": 85717.87142916667,
      "d": 658.9286812500213,
      "v": 86
    },
    {
      "midi": 60,
      "hit": false,
      "t": 85717.87142916667,
      "d": 707.1429750000243,
      "v": 86
    },
    {
      "midi": 54,
      "hit": false,
      "t": 86789.30017916669,
      "d": 457.14293333333626,
      "v": 20
    },
    {
      "midi": 59,
      "hit": false,
      "t": 86789.30017916669,
      "d": 792.8572749999876,
      "v": 60
    },
    {
      "midi": 69,
      "hit": false,
      "t": 86789.30017916669,
      "d": 946.4287291666551,
      "v": 80
    },
    {
      "midi": 62,
      "hit": false,
      "t": 86789.30017916669,
      "d": 975.0001624999859,
      "v": 78
    },
    {
      "midi": 66,
      "hit": false,
      "t": 86789.30017916669,
      "d": 980.3573062499927,
      "v": 52
    },
    {
      "midi": 47,
      "hit": false,
      "t": 86789.30017916669,
      "d": 2228.571799999976,
      "v": 72
    },
    {
      "midi": 54,
      "hit": false,
      "t": 87646.44317916667,
      "d": 1464.2859583333193,
      "v": 52
    },
    {
      "midi": 59,
      "hit": false,
      "t": 87860.72892916668,
      "d": 544.6429479166545,
      "v": 70
    },
    {
      "midi": 62,
      "hit": false,
      "t": 88075.01467916668,
      "d": 135.7143083333358,
      "v": 92
    },
    {
      "midi": 66,
      "hit": false,
      "t": 88289.30042916667,
      "d": 166.07145624999248,
      "v": 76
    },
    {
      "midi": 62,
      "hit": false,
      "t": 88289.30042916667,
      "d": 858.9287145833223,
      "v": 78
    },
    {
      "midi": 69,
      "hit": false,
      "t": 88503.58617916667,
      "d": 657.1429666666663,
      "v": 104
    },
    {
      "midi": 59,
      "hit": false,
      "t": 88503.58617916667,
      "d": 2357.1432499999937,
      "v": 52
    },
    {
      "midi": 66,
      "hit": false,
      "t": 88717.87192916666,
      "d": 446.4286458333372,
      "v": 44
    },
    {
      "midi": 40,
      "hit": false,
      "t": 89146.44342916665,
      "d": 1714.2860000000073,
      "v": 71
    },
    {
      "midi": 55,
      "hit": false,
      "t": 89146.44342916665,
      "d": 1714.2860000000073,
      "v": 71
    },
    {
      "midi": 64,
      "hit": false,
      "t": 89146.44342916665,
      "d": 1714.2860000000073,
      "v": 71
    },
    {
      "midi": 52,
      "hit": false,
      "t": 100717.87392916667,
      "d": 1496.4288208333019,
      "v": 101
    },
    {
      "midi": 64,
      "hit": false,
      "t": 100717.87392916667,
      "d": 1644.6431312499626,
      "v": 101
    },
    {
      "midi": 66,
      "hit": false,
      "t": 100717.87392916667,
      "d": 1648.214560416629,
      "v": 101
    },
    {
      "midi": 71,
      "hit": false,
      "t": 100717.87392916667,
      "d": 1737.5002895833022,
      "v": 101
    },
    {
      "midi": 76,
      "hit": false,
      "t": 105432.16042916664,
      "d": 883.9287187500158,
      "v": 104
    },
    {
      "midi": 67,
      "hit": false,
      "t": 106289.30342916664,
      "d": 1385.7145166666887,
      "v": 74
    },
    {
      "midi": 64,
      "hit": false,
      "t": 106294.66057291665,
      "d": 1419.6430937500118,
      "v": 78
    },
    {
      "midi": 71,
      "hit": false,
      "t": 106300.01771666665,
      "d": 1498.2145354166714,
      "v": 66
    },
    {
      "midi": 52,
      "hit": false,
      "t": 106307.16057499999,
      "d": 1212.500202083349,
      "v": 72
    },
    {
      "midi": 62,
      "hit": false,
      "t": 108008.94657291667,
      "d": 1098.2144687499967,
      "v": 53
    },
    {
      "midi": 66,
      "hit": false,
      "t": 108012.51800208334,
      "d": 1282.14307083335,
      "v": 53
    },
    {
      "midi": 71,
      "hit": false,
      "t": 108019.66086041667,
      "d": 1503.5716791666928,
      "v": 53
    },
    {
      "midi": 69,
      "hit": false,
      "t": 108023.23228958333,
      "d": 1239.2859208333393,
      "v": 53
    },
    {
      "midi": 50,
      "hit": false,
      "t": 108030.37514791667,
      "d": 1158.9287645833392,
      "v": 56
    },
    {
      "midi": 59,
      "hit": false,
      "t": 109075.01817916667,
      "d": 600.0001000000193,
      "v": 68
    },
    {
      "midi": 62,
      "hit": false,
      "t": 109289.30392916668,
      "d": 94.64287291668006,
      "v": 64
    },
    {
      "midi": 60,
      "hit": false,
      "t": 109717.87542916668,
      "d": 296.428620833336,
      "v": 44
    },
    {
      "midi": 48,
      "hit": false,
      "t": 109717.87542916668,
      "d": 1060.7144624999928,
      "v": 74
    },
    {
      "midi": 67,
      "hit": false,
      "t": 109728.58971666668,
      "d": 357.14291666666395,
      "v": 70
    },
    {
      "midi": 64,
      "hit": false,
      "t": 109735.73257500002,
      "d": 328.57148333333316,
      "v": 74
    },
    {
      "midi": 71,
      "hit": false,
      "t": 109741.08971875002,
      "d": 348.2143437499908,
      "v": 37
    },
    {
      "midi": 60,
      "hit": false,
      "t": 110394.66125625001,
      "d": 537.5000895833364,
      "v": 47
    },
    {
      "midi": 83,
      "hit": false,
      "t": 110575.01842916668,
      "d": 407.14292499999283,
      "v": 65
    },
    {
      "midi": 79,
      "hit": false,
      "t": 110789.30417916668,
      "d": 232.1428958333272,
      "v": 56
    },
    {
      "midi": 76,
      "hit": false,
      "t": 111003.58992916667,
      "d": 428.57150000000547,
      "v": 41
    },
    {
      "midi": 81,
      "hit": false,
      "t": 111425.01857083334,
      "d": 964.2858750000014,
      "v": 53
    },
    {
      "midi": 71,
      "hit": false,
      "t": 111432.16142916668,
      "d": 1028.5716000000248,
      "v": 53
    },
    {
      "midi": 74,
      "hit": false,
      "t": 111439.30428750001,
      "d": 971.4287333333486,
      "v": 53
    },
    {
      "midi": 78,
      "hit": false,
      "t": 111442.87571666668,
      "d": 969.6430187500227,
      "v": 53
    },
    {
      "midi": 59,
      "hit": false,
      "t": 111450.01857500001,
      "d": 955.3573020833428,
      "v": 53
    },
    {
      "midi": 79,
      "hit": false,
      "t": 113142.87600000005,
      "d": 1048.2144604166824,
      "v": 43
    },
    {
      "midi": 69,
      "hit": false,
      "t": 113155.37600208339,
      "d": 850.0001416666782,
      "v": 40
    },
    {
      "midi": 72,
      "hit": false,
      "t": 113162.51886041672,
      "d": 819.642993750007,
      "v": 48
    },
    {
      "midi": 76,
      "hit": false,
      "t": 113166.09028958339,
      "d": 964.285875000016,
      "v": 56
    },
    {
      "midi": 57,
      "hit": false,
      "t": 113189.30457916672,
      "d": 750.0001250000059,
      "v": 56
    },
    {
      "midi": 64,
      "hit": false,
      "t": 113196.44743750006,
      "d": 875.0001458333427,
      "v": 36
    },
    {
      "midi": 76,
      "hit": false,
      "t": 114848.2334270834,
      "d": 662.5001104167168,
      "v": 66
    },
    {
      "midi": 59,
      "hit": false,
      "t": 114853.5905708334,
      "d": 621.428675000032,
      "v": 64
    },
    {
      "midi": 71,
      "hit": false,
      "t": 114858.94771458341,
      "d": 582.1429541666876,
      "v": 25
    },
    {
      "midi": 78,
      "hit": false,
      "t": 114866.09057291676,
      "d": 642.8572500000155,
      "v": 33
    },
    {
      "midi": 76,
      "hit": false,
      "t": 116455.37655208346,
      "d": 3558.929164583329,
      "v": 50
    },
    {
      "midi": 78,
      "hit": false,
      "t": 116519.66227708345,
      "d": 3482.1434374999953,
      "v": 50
    },
    {
      "midi": 64,
      "hit": false,
      "t": 116575.01942916679,
      "d": 3392.857708333322,
      "v": 50
    },
    {
      "midi": 83,
      "hit": false,
      "t": 116585.73371666679,
      "d": 3433.929143750007,
      "v": 50
    },
    {
      "midi": 52,
      "hit": false,
      "t": 116625.01943750012,
      "d": 3369.643418749998,
      "v": 50
    },
    {
      "midi": 33,
      "hit": false,
      "t": 120000.01999999996,
      "d": 3428.572,
      "v": 127
    },
    {
      "midi": 64,
      "hit": false,
      "t": 120860.73442916678,
      "d": 2537.5004229166225,
      "v": 115
    },
    {
      "midi": 59,
      "hit": false,
      "t": 120860.73442916678,
      "d": 2544.643281249955,
      "v": 109
    },
    {
      "midi": 67,
      "hit": false,
      "t": 120860.73442916678,
      "d": 2550.000424999962,
      "v": 98
    },
    {
      "midi": 60,
      "hit": false,
      "t": 120860.73442916678,
      "d": 2560.714712499961,
      "v": 98
    },
    {
      "midi": 35,
      "hit": false,
      "t": 123428.59199999996,
      "d": 3433.929143750007,
      "v": 127
    },
    {
      "midi": 62,
      "hit": false,
      "t": 124289.30642916673,
      "d": 2550.0004249999474,
      "v": 115
    },
    {
      "midi": 69,
      "hit": false,
      "t": 124289.30642916673,
      "d": 2550.0004249999474,
      "v": 92
    },
    {
      "midi": 59,
      "hit": false,
      "t": 124289.30642916673,
      "d": 2560.7147124999465,
      "v": 92
    },
    {
      "midi": 66,
      "hit": false,
      "t": 124289.30642916673,
      "d": 2567.857570833279,
      "v": 92
    },
    {
      "midi": 33,
      "hit": false,
      "t": 126857.16399999996,
      "d": 3421.4291416666674,
      "v": 127
    },
    {
      "midi": 67,
      "hit": false,
      "t": 127717.87842916665,
      "d": 2542.8575666666147,
      "v": 98
    },
    {
      "midi": 59,
      "hit": false,
      "t": 127717.87842916665,
      "d": 2544.643281249955,
      "v": 109
    },
    {
      "midi": 60,
      "hit": false,
      "t": 127717.87842916665,
      "d": 2546.4289958332956,
      "v": 109
    },
    {
      "midi": 64,
      "hit": false,
      "t": 127717.87842916665,
      "d": 2546.4289958332956,
      "v": 109
    },
    {
      "midi": 35,
      "hit": false,
      "t": 130285.73599999996,
      "d": 3458.929147916657,
      "v": 127
    },
    {
      "midi": 62,
      "hit": false,
      "t": 131146.4504291666,
      "d": 2553.571854166774,
      "v": 109
    },
    {
      "midi": 69,
      "hit": false,
      "t": 131146.4504291666,
      "d": 2558.9289979167806,
      "v": 98
    },
    {
      "midi": 59,
      "hit": false,
      "t": 131146.4504291666,
      "d": 2560.7147125001065,
      "v": 92
    },
    {
      "midi": 66,
      "hit": false,
      "t": 131146.4504291666,
      "d": 2569.643285416765,
      "v": 92
    },
    {
      "midi": 33,
      "hit": false,
      "t": 133714.30799999996,
      "d": 3412.5005687499943,
      "v": 127
    },
    {
      "midi": 64,
      "hit": false,
      "t": 134575.02242916674,
      "d": 2541.0718520834344,
      "v": 109
    },
    {
      "midi": 67,
      "hit": false,
      "t": 134575.02242916674,
      "d": 2542.8575666667602,
      "v": 98
    },
    {
      "midi": 60,
      "hit": false,
      "t": 134575.02242916674,
      "d": 2544.643281250086,
      "v": 109
    },
    {
      "midi": 59,
      "hit": false,
      "t": 134575.02242916674,
      "d": 2562.5004270834324,
      "v": 115
    },
    {
      "midi": 28,
      "hit": false,
      "t": 137142.87999999995,
      "d": 3487.500581249973,
      "v": 127
    },
    {
      "midi": 64,
      "hit": false,
      "t": 138003.59442916687,
      "d": 2492.8575583334314,
      "v": 115
    },
    {
      "midi": 59,
      "hit": false,
      "t": 138003.59442916687,
      "d": 2501.78613125009,
      "v": 86
    },
    {
      "midi": 62,
      "hit": false,
      "t": 138003.59442916687,
      "d": 2514.2861333334295,
      "v": 104
    },
    {
      "midi": 67,
      "hit": false,
      "t": 138003.59442916687,
      "d": 2533.9289937501017,
      "v": 109
    },
    {
      "midi": 30,
      "hit": false,
      "t": 140571.45199999993,
      "d": 3383.9291354166635,
      "v": 127
    },
    {
      "midi": 70,
      "hit": false,
      "t": 141432.166429167,
      "d": 2296.4289541667677,
      "v": 92
    },
    {
      "midi": 61,
      "hit": false,
      "t": 141432.166429167,
      "d": 2314.286100000114,
      "v": 92
    },
    {
      "midi": 66,
      "hit": false,
      "t": 141432.166429167,
      "d": 2341.071818750119,
      "v": 92
    },
    {
      "midi": 35,
      "hit": false,
      "t": 144000.02399999992,
      "d": 3503.5720124999934,
      "v": 127
    },
    {
      "midi": 66,
      "hit": false,
      "t": 144003.59542916712,
      "d": 3455.357718750165,
      "v": 66
    },
    {
      "midi": 71,
      "hit": false,
      "t": 144003.59542916712,
      "d": 3469.6434354168305,
      "v": 80
    },
    {
      "midi": 63,
      "hit": false,
      "t": 144003.59542916712,
      "d": 3473.2148645835114,
      "v": 66
    },
    {
      "midi": 33,
      "hit": false,
      "t": 147428.5959999999,
      "d": 3428.5720000000147,
      "v": 127
    },
    {
      "midi": 64,
      "hit": false,
      "t": 148289.31042916732,
      "d": 2537.5004229167826,
      "v": 115
    },
    {
      "midi": 59,
      "hit": false,
      "t": 148289.31042916732,
      "d": 2544.6432812501153,
      "v": 109
    },
    {
      "midi": 67,
      "hit": false,
      "t": 148289.31042916732,
      "d": 2550.000425000122,
      "v": 98
    },
    {
      "midi": 60,
      "hit": false,
      "t": 148289.31042916732,
      "d": 2560.7147125001356,
      "v": 98
    },
    {
      "midi": 35,
      "hit": false,
      "t": 150857.16799999992,
      "d": 3433.9291437499924,
      "v": 127
    },
    {
      "midi": 62,
      "hit": false,
      "t": 151717.8824291675,
      "d": 2550.000425000122,
      "v": 115
    },
    {
      "midi": 69,
      "hit": false,
      "t": 151717.8824291675,
      "d": 2550.000425000122,
      "v": 92
    },
    {
      "midi": 59,
      "hit": false,
      "t": 151717.8824291675,
      "d": 2560.7147125001356,
      "v": 92
    },
    {
      "midi": 66,
      "hit": false,
      "t": 151717.8824291675,
      "d": 2567.8575708334683,
      "v": 92
    },
    {
      "midi": 33,
      "hit": false,
      "t": 154285.7399999999,
      "d": 3421.429141666682,
      "v": 127
    },
    {
      "midi": 67,
      "hit": false,
      "t": 155146.4544291677,
      "d": 2542.8575666667894,
      "v": 98
    },
    {
      "midi": 59,
      "hit": false,
      "t": 155146.4544291677,
      "d": 2544.6432812501153,
      "v": 109
    },
    {
      "midi": 60,
      "hit": false,
      "t": 155146.4544291677,
      "d": 2546.428995833441,
      "v": 109
    },
    {
      "midi": 64,
      "hit": false,
      "t": 155146.4544291677,
      "d": 2546.428995833441,
      "v": 109
    },
    {
      "midi": 35,
      "hit": false,
      "t": 157714.31199999992,
      "d": 3458.9291479166423,
      "v": 127
    },
    {
      "midi": 62,
      "hit": false,
      "t": 158575.02642916786,
      "d": 2553.571854166774,
      "v": 109
    },
    {
      "midi": 69,
      "hit": false,
      "t": 158575.02642916786,
      "d": 2558.9289979167806,
      "v": 98
    },
    {
      "midi": 59,
      "hit": false,
      "t": 158575.02642916786,
      "d": 2560.7147125001065,
      "v": 92
    },
    {
      "midi": 66,
      "hit": false,
      "t": 158575.02642916786,
      "d": 2569.643285416765,
      "v": 92
    },
    {
      "midi": 33,
      "hit": false,
      "t": 161142.8839999999,
      "d": 3412.5005687499943,
      "v": 127
    },
    {
      "midi": 64,
      "hit": false,
      "t": 162003.598429168,
      "d": 2541.0718520834344,
      "v": 109
    },
    {
      "midi": 67,
      "hit": false,
      "t": 162003.598429168,
      "d": 2542.8575666667602,
      "v": 98
    },
    {
      "midi": 60,
      "hit": false,
      "t": 162003.598429168,
      "d": 2544.643281250086,
      "v": 109
    },
    {
      "midi": 59,
      "hit": false,
      "t": 162003.598429168,
      "d": 2562.5004270834324,
      "v": 115
    },
    {
      "midi": 28,
      "hit": false,
      "t": 164571.4559999999,
      "d": 3487.500581249973,
      "v": 127
    },
    {
      "midi": 64,
      "hit": false,
      "t": 165432.17042916812,
      "d": 2492.8575583334314,
      "v": 115
    },
    {
      "midi": 59,
      "hit": false,
      "t": 165432.17042916812,
      "d": 2501.78613125009,
      "v": 86
    },
    {
      "midi": 62,
      "hit": false,
      "t": 165432.17042916812,
      "d": 2514.2861333334295,
      "v": 104
    },
    {
      "midi": 67,
      "hit": false,
      "t": 165432.17042916812,
      "d": 2533.9289937501017,
      "v": 109
    },
    {
      "midi": 30,
      "hit": false,
      "t": 168000.02799999987,
      "d": 3383.9291354166635,
      "v": 127
    },
    {
      "midi": 70,
      "hit": false,
      "t": 168860.74242916825,
      "d": 2296.4289541667677,
      "v": 92
    },
    {
      "midi": 61,
      "hit": false,
      "t": 168860.74242916825,
      "d": 2314.286100000114,
      "v": 92
    },
    {
      "midi": 66,
      "hit": false,
      "t": 168860.74242916825,
      "d": 2341.071818750119,
      "v": 92
    },
    {
      "midi": 35,
      "hit": false,
      "t": 171428.59999999986,
      "d": 3503.5720124999934,
      "v": 127
    },
    {
      "midi": 66,
      "hit": false,
      "t": 171432.17142916837,
      "d": 3455.357718750165,
      "v": 66
    },
    {
      "midi": 71,
      "hit": false,
      "t": 171432.17142916837,
      "d": 3469.6434354168305,
      "v": 80
    },
    {
      "midi": 63,
      "hit": false,
      "t": 171432.17142916837,
      "d": 3473.2148645835114,
      "v": 66
    },
    {
      "midi": 33,
      "hit": false,
      "t": 174857.17199999985,
      "d": 3428.5720000000147,
      "v": 127
    },
    {
      "midi": 64,
      "hit": false,
      "t": 175717.88642916857,
      "d": 2537.5004229167826,
      "v": 115
    },
    {
      "midi": 59,
      "hit": false,
      "t": 175717.88642916857,
      "d": 2544.6432812501153,
      "v": 109
    },
    {
      "midi": 67,
      "hit": false,
      "t": 175717.88642916857,
      "d": 2550.000425000122,
      "v": 98
    },
    {
      "midi": 60,
      "hit": false,
      "t": 175717.88642916857,
      "d": 2560.7147125001356,
      "v": 98
    },
    {
      "midi": 35,
      "hit": false,
      "t": 178285.74399999986,
      "d": 3433.9291437499924,
      "v": 127
    },
    {
      "midi": 62,
      "hit": false,
      "t": 179146.45842916876,
      "d": 2550.000425000122,
      "v": 115
    },
    {
      "midi": 69,
      "hit": false,
      "t": 179146.45842916876,
      "d": 2550.000425000122,
      "v": 92
    },
    {
      "midi": 59,
      "hit": false,
      "t": 179146.45842916876,
      "d": 2560.7147125001356,
      "v": 92
    },
    {
      "midi": 66,
      "hit": false,
      "t": 179146.45842916876,
      "d": 2567.8575708334683,
      "v": 92
    },
    {
      "midi": 33,
      "hit": false,
      "t": 181714.31599999985,
      "d": 3421.429141666682,
      "v": 127
    },
    {
      "midi": 67,
      "hit": false,
      "t": 182575.03042916895,
      "d": 2542.8575666667894,
      "v": 98
    },
    {
      "midi": 59,
      "hit": false,
      "t": 182575.03042916895,
      "d": 2544.6432812501153,
      "v": 109
    },
    {
      "midi": 60,
      "hit": false,
      "t": 182575.03042916895,
      "d": 2546.428995833441,
      "v": 109
    },
    {
      "midi": 64,
      "hit": false,
      "t": 182575.03042916895,
      "d": 2546.428995833441,
      "v": 109
    },
    {
      "midi": 35,
      "hit": false,
      "t": 185142.88799999986,
      "d": 3458.9291479166423,
      "v": 127
    },
    {
      "midi": 62,
      "hit": false,
      "t": 186003.6024291691,
      "d": 2553.571854166774,
      "v": 109
    },
    {
      "midi": 69,
      "hit": false,
      "t": 186003.6024291691,
      "d": 2558.9289979167806,
      "v": 98
    },
    {
      "midi": 59,
      "hit": false,
      "t": 186003.6024291691,
      "d": 2560.7147125001065,
      "v": 92
    },
    {
      "midi": 66,
      "hit": false,
      "t": 186003.6024291691,
      "d": 2569.643285416765,
      "v": 92
    },
    {
      "midi": 33,
      "hit": false,
      "t": 188571.45999999985,
      "d": 3412.5005687499943,
      "v": 127
    },
    {
      "midi": 64,
      "hit": false,
      "t": 189432.17442916924,
      "d": 2541.0718520834344,
      "v": 109
    },
    {
      "midi": 67,
      "hit": false,
      "t": 189432.17442916924,
      "d": 2542.8575666667602,
      "v": 98
    },
    {
      "midi": 60,
      "hit": false,
      "t": 189432.17442916924,
      "d": 2544.643281250086,
      "v": 109
    },
    {
      "midi": 59,
      "hit": false,
      "t": 189432.17442916924,
      "d": 2562.5004270834324,
      "v": 115
    },
    {
      "midi": 28,
      "hit": false,
      "t": 192000.03199999983,
      "d": 3487.500581249973,
      "v": 127
    },
    {
      "midi": 64,
      "hit": false,
      "t": 192860.74642916938,
      "d": 2492.8575583334314,
      "v": 115
    },
    {
      "midi": 59,
      "hit": false,
      "t": 192860.74642916938,
      "d": 2501.78613125009,
      "v": 86
    },
    {
      "midi": 62,
      "hit": false,
      "t": 192860.74642916938,
      "d": 2514.2861333334295,
      "v": 104
    },
    {
      "midi": 67,
      "hit": false,
      "t": 192860.74642916938,
      "d": 2533.9289937501017,
      "v": 109
    },
    {
      "midi": 30,
      "hit": false,
      "t": 195428.60399999982,
      "d": 3383.9291354166635,
      "v": 127
    },
    {
      "midi": 70,
      "hit": false,
      "t": 196289.3184291695,
      "d": 2296.4289541667677,
      "v": 92
    },
    {
      "midi": 61,
      "hit": false,
      "t": 196289.3184291695,
      "d": 2314.286100000114,
      "v": 92
    },
    {
      "midi": 66,
      "hit": false,
      "t": 196289.3184291695,
      "d": 2341.071818750119,
      "v": 92
    },
    {
      "midi": 35,
      "hit": false,
      "t": 198857.1759999998,
      "d": 3503.5720124999934,
      "v": 127
    },
    {
      "midi": 66,
      "hit": false,
      "t": 198860.74742916963,
      "d": 3455.357718750165,
      "v": 66
    },
    {
      "midi": 71,
      "hit": false,
      "t": 198860.74742916963,
      "d": 3469.6434354168305,
      "v": 80
    },
    {
      "midi": 63,
      "hit": false,
      "t": 198860.74742916963,
      "d": 3473.2148645835114,
      "v": 66
    },
    {
      "midi": 33,
      "hit": false,
      "t": 202285.7479999998,
      "d": 3428.5720000000147,
      "v": 127
    },
    {
      "midi": 64,
      "hit": false,
      "t": 203146.46242916983,
      "d": 2537.5004229167826,
      "v": 115
    },
    {
      "midi": 59,
      "hit": false,
      "t": 203146.46242916983,
      "d": 2544.6432812501153,
      "v": 109
    },
    {
      "midi": 67,
      "hit": false,
      "t": 203146.46242916983,
      "d": 2550.000425000122,
      "v": 98
    },
    {
      "midi": 60,
      "hit": false,
      "t": 203146.46242916983,
      "d": 2560.7147125001356,
      "v": 98
    },
    {
      "midi": 35,
      "hit": false,
      "t": 205714.3199999998,
      "d": 3433.9291437499924,
      "v": 127
    },
    {
      "midi": 62,
      "hit": false,
      "t": 206575.03442917002,
      "d": 2550.000425000122,
      "v": 115
    },
    {
      "midi": 69,
      "hit": false,
      "t": 206575.03442917002,
      "d": 2550.000425000122,
      "v": 92
    },
    {
      "midi": 59,
      "hit": false,
      "t": 206575.03442917002,
      "d": 2560.7147125001356,
      "v": 92
    },
    {
      "midi": 66,
      "hit": false,
      "t": 206575.03442917002,
      "d": 2567.8575708334683,
      "v": 92
    },
    {
      "midi": 33,
      "hit": false,
      "t": 209142.8919999998,
      "d": 3421.429141666682,
      "v": 127
    },
    {
      "midi": 67,
      "hit": false,
      "t": 210003.6064291702,
      "d": 2542.8575666667894,
      "v": 98
    },
    {
      "midi": 59,
      "hit": false,
      "t": 210003.6064291702,
      "d": 2544.6432812501153,
      "v": 109
    },
    {
      "midi": 60,
      "hit": false,
      "t": 210003.6064291702,
      "d": 2546.428995833441,
      "v": 109
    },
    {
      "midi": 64,
      "hit": false,
      "t": 210003.6064291702,
      "d": 2546.428995833441,
      "v": 109
    },
    {
      "midi": 35,
      "hit": false,
      "t": 212571.4639999998,
      "d": 3458.9291479166423,
      "v": 127
    },
    {
      "midi": 62,
      "hit": false,
      "t": 213432.17842917037,
      "d": 2553.571854166774,
      "v": 109
    },
    {
      "midi": 69,
      "hit": false,
      "t": 213432.17842917037,
      "d": 2558.9289979167806,
      "v": 98
    },
    {
      "midi": 59,
      "hit": false,
      "t": 213432.17842917037,
      "d": 2560.7147125001065,
      "v": 92
    },
    {
      "midi": 66,
      "hit": false,
      "t": 213432.17842917037,
      "d": 2569.643285416765,
      "v": 92
    },
    {
      "midi": 33,
      "hit": false,
      "t": 216000.0359999998,
      "d": 3412.5005687499943,
      "v": 127
    },
    {
      "midi": 64,
      "hit": false,
      "t": 216860.7504291705,
      "d": 2541.0718520834344,
      "v": 109
    },
    {
      "midi": 67,
      "hit": false,
      "t": 216860.7504291705,
      "d": 2542.8575666667602,
      "v": 98
    },
    {
      "midi": 60,
      "hit": false,
      "t": 216860.7504291705,
      "d": 2544.643281250086,
      "v": 109
    },
    {
      "midi": 59,
      "hit": false,
      "t": 216860.7504291705,
      "d": 2562.5004270834324,
      "v": 115
    },
    {
      "midi": 28,
      "hit": false,
      "t": 219428.60799999977,
      "d": 3487.500581249973,
      "v": 127
    },
    {
      "midi": 64,
      "hit": false,
      "t": 220289.32242917063,
      "d": 2492.8575583334314,
      "v": 115
    },
    {
      "midi": 59,
      "hit": false,
      "t": 220289.32242917063,
      "d": 2501.78613125009,
      "v": 86
    },
    {
      "midi": 62,
      "hit": false,
      "t": 220289.32242917063,
      "d": 2514.2861333334295,
      "v": 104
    },
    {
      "midi": 67,
      "hit": false,
      "t": 220289.32242917063,
      "d": 2533.9289937501017,
      "v": 109
    },
    {
      "midi": 30,
      "hit": false,
      "t": 222857.17999999976,
      "d": 3383.9291354166635,
      "v": 127
    },
    {
      "midi": 70,
      "hit": false,
      "t": 223717.89442917076,
      "d": 2296.4289541667677,
      "v": 92
    },
    {
      "midi": 61,
      "hit": false,
      "t": 223717.89442917076,
      "d": 2314.286100000114,
      "v": 92
    },
    {
      "midi": 66,
      "hit": false,
      "t": 223717.89442917076,
      "d": 2341.071818750119,
      "v": 92
    },
    {
      "midi": 35,
      "hit": false,
      "t": 226285.75199999975,
      "d": 3503.5720124999934,
      "v": 127
    },
    {
      "midi": 66,
      "hit": false,
      "t": 226289.32342917088,
      "d": 3455.357718750136,
      "v": 66
    },
    {
      "midi": 71,
      "hit": false,
      "t": 226289.32342917088,
      "d": 3469.6434354168014,
      "v": 80
    },
    {
      "midi": 63,
      "hit": false,
      "t": 226289.32342917088,
      "d": 3473.2148645834823,
      "v": 66
    },
    {
      "midi": 33,
      "hit": false,
      "t": 229714.32399999973,
      "d": 3428.572000000073,
      "v": 127
    },
    {
      "midi": 59,
      "hit": false,
      "t": 230575.03842917102,
      "d": 3425.0005708333338,
      "v": 95
    },
    {
      "midi": 60,
      "hit": false,
      "t": 230575.03842917102,
      "d": 3425.0005708333338,
      "v": 95
    },
    {
      "midi": 64,
      "hit": false,
      "t": 230575.03842917102,
      "d": 3425.0005708333338,
      "v": 95
    },
    {
      "midi": 67,
      "hit": false,
      "t": 230575.03842917102,
      "d": 3425.0005708333338,
      "v": 95
    },
    {
      "midi": 35,
      "hit": false,
      "t": 233142.8959999998,
      "d": 3433.9291437500797,
      "v": 127
    },
    {
      "midi": 59,
      "hit": false,
      "t": 234003.61042917104,
      "d": 3425.0005708333338,
      "v": 64
    },
    {
      "midi": 62,
      "hit": false,
      "t": 234003.61042917104,
      "d": 3425.0005708333338,
      "v": 64
    },
    {
      "midi": 66,
      "hit": false,
      "t": 234003.61042917104,
      "d": 3425.0005708333338,
      "v": 64
    },
    {
      "midi": 69,
      "hit": false,
      "t": 234003.61042917104,
      "d": 3425.0005708333338,
      "v": 64
    },
    {
      "midi": 33,
      "hit": false,
      "t": 236571.46799999988,
      "d": 3421.42914166674,
      "v": 127
    },
    {
      "midi": 67,
      "hit": false,
      "t": 237432.18242917105,
      "d": 2542.857566666673,
      "v": 23
    },
    {
      "midi": 59,
      "hit": false,
      "t": 237432.18242917105,
      "d": 2544.643281249999,
      "v": 23
    },
    {
      "midi": 60,
      "hit": false,
      "t": 237432.18242917105,
      "d": 2546.4289958333247,
      "v": 23
    },
    {
      "midi": 64,
      "hit": false,
      "t": 237432.18242917105,
      "d": 2546.4289958333247,
      "v": 23
    }
  ]
}