{
  "jsonPath": "Unknown/Unknown/Mike Thomas And The Sure Thing/island-of-dreams.json",
  "path": "Unknown\\Unknown\\Mike Thomas And The Sure Thing\\Island Of Dreams.mid",
  "name": "Island Of Dreams",
  "difficulty": "Advanced",
  "bpm": 53.000022083342536,
  "notes": [
    {
      "midi": 62,
      "hit": false,
      "t": 13537.730208333334,
      "d": 1650.9427083333321,
      "v": 77
    },
    {
      "midi": 55,
      "hit": false,
      "t": 13549.522656250001,
      "d": 1686.3200520833325,
      "v": 74
    },
    {
      "midi": 59,
      "hit": false,
      "t": 13549.522656250001,
      "d": 1709.904947916666,
      "v": 77
    },
    {
      "midi": 43,
      "hit": false,
      "t": 13561.315104166668,
      "d": 1945.75390625,
      "v": 66
    },
    {
      "midi": 43,
      "hit": false,
      "t": 13584.900000000001,
      "d": 1533.0182291666679,
      "v": 77
    },
    {
      "midi": 74,
      "hit": false,
      "t": 13584.900000000001,
      "d": 1639.1502604166672,
      "v": 47
    },
    {
      "midi": 67,
      "hit": false,
      "t": 13584.900000000001,
      "d": 1698.112500000001,
      "v": 66
    },
    {
      "midi": 50,
      "hit": false,
      "t": 13844.333854166669,
      "d": 1238.20703125,
      "v": 66
    },
    {
      "midi": 59,
      "hit": false,
      "t": 14150.937500000002,
      "d": 860.8486979166664,
      "v": 51
    },
    {
      "midi": 40,
      "hit": false,
      "t": 15813.672656250003,
      "d": 1757.0747395833332,
      "v": 77
    },
    {
      "midi": 62,
      "hit": false,
      "t": 15825.465104166668,
      "d": 1745.2822916666646,
      "v": 61
    },
    {
      "midi": 59,
      "hit": false,
      "t": 15825.465104166668,
      "d": 1780.6596354166631,
      "v": 68
    },
    {
      "midi": 55,
      "hit": false,
      "t": 15825.465104166668,
      "d": 1792.4520833333281,
      "v": 59
    },
    {
      "midi": 40,
      "hit": false,
      "t": 15837.257552083334,
      "d": 1957.5463541666613,
      "v": 66
    },
    {
      "midi": 47,
      "hit": false,
      "t": 16120.276302083335,
      "d": 1462.2635416666653,
      "v": 102
    },
    {
      "midi": 54,
      "hit": false,
      "t": 16403.295052083336,
      "d": 589.6223958333358,
      "v": 84
    },
    {
      "midi": 55,
      "hit": false,
      "t": 16650.936458333337,
      "d": 377.3583333333336,
      "v": 74
    },
    {
      "midi": 62,
      "hit": false,
      "t": 16945.747656250005,
      "d": 106.13203124999927,
      "v": 93
    },
    {
      "midi": 62,
      "hit": false,
      "t": 17535.370052083337,
      "d": 577.8299479166599,
      "v": 57
    },
    {
      "midi": 71,
      "hit": false,
      "t": 17535.370052083337,
      "d": 589.6223958333248,
      "v": 55
    },
    {
      "midi": 67,
      "hit": false,
      "t": 17547.162500000002,
      "d": 554.2450520833299,
      "v": 68
    },
    {
      "midi": 60,
      "hit": false,
      "t": 18077.822656250002,
      "d": 2299.5273437499927,
      "v": 77
    },
    {
      "midi": 60,
      "hit": false,
      "t": 18089.615104166664,
      "d": 1709.9049479166642,
      "v": 63
    },
    {
      "midi": 55,
      "hit": false,
      "t": 18089.615104166664,
      "d": 1721.6973958333292,
      "v": 59
    },
    {
      "midi": 48,
      "hit": false,
      "t": 18089.615104166664,
      "d": 2264.149999999998,
      "v": 63
    },
    {
      "midi": 36,
      "hit": false,
      "t": 18089.615104166667,
      "d": 2228.7726562499956,
      "v": 71
    },
    {
      "midi": 43,
      "hit": false,
      "t": 18089.615104166667,
      "d": 2252.357552083329,
      "v": 84
    },
    {
      "midi": 55,
      "hit": false,
      "t": 18089.615104166667,
      "d": 2252.357552083329,
      "v": 84
    },
    {
      "midi": 64,
      "hit": false,
      "t": 18101.40755208333,
      "d": 1757.0747395833314,
      "v": 61
    },
    {
      "midi": 52,
      "hit": false,
      "t": 18101.407552083332,
      "d": 2240.5651041666642,
      "v": 61
    },
    {
      "midi": 62,
      "hit": false,
      "t": 20353.76510416666,
      "d": 1627.3578124999985,
      "v": 57
    },
    {
      "midi": 66,
      "hit": false,
      "t": 20353.76510416666,
      "d": 1627.3578124999985,
      "v": 56
    },
    {
      "midi": 57,
      "hit": false,
      "t": 20365.557552083326,
      "d": 1698.1124999999993,
      "v": 61
    },
    {
      "midi": 50,
      "hit": false,
      "t": 20365.557552083326,
      "d": 2287.7348958333314,
      "v": 51
    },
    {
      "midi": 54,
      "hit": false,
      "t": 20365.55755208333,
      "d": 283.01874999999563,
      "v": 84
    },
    {
      "midi": 62,
      "hit": false,
      "t": 20365.55755208333,
      "d": 294.8111979166606,
      "v": 93
    },
    {
      "midi": 38,
      "hit": false,
      "t": 20389.14244791666,
      "d": 2228.7726562499847,
      "v": 81
    },
    {
      "midi": 55,
      "hit": false,
      "t": 20636.78385416666,
      "d": 271.22630208333067,
      "v": 93
    },
    {
      "midi": 64,
      "hit": false,
      "t": 20636.78385416666,
      "d": 306.6036458333256,
      "v": 97
    },
    {
      "midi": 66,
      "hit": false,
      "t": 20919.802604166656,
      "d": 306.6036458333292,
      "v": 75
    },
    {
      "midi": 57,
      "hit": false,
      "t": 20931.59505208332,
      "d": 330.1885416666628,
      "v": 93
    },
    {
      "midi": 64,
      "hit": false,
      "t": 21202.821354166652,
      "d": 283.0187499999993,
      "v": 102
    },
    {
      "midi": 55,
      "hit": false,
      "t": 21226.406249999985,
      "d": 235.84895833333212,
      "v": 93
    },
    {
      "midi": 62,
      "hit": false,
      "t": 21485.84010416665,
      "d": 589.6223958333285,
      "v": 93
    },
    {
      "midi": 54,
      "hit": false,
      "t": 21485.84010416665,
      "d": 613.2072916666621,
      "v": 67
    },
    {
      "midi": 60,
      "hit": false,
      "t": 22051.87760416665,
      "d": 636.792187499992,
      "v": 84
    },
    {
      "midi": 52,
      "hit": false,
      "t": 22063.670052083315,
      "d": 613.2072916666621,
      "v": 51
    },
    {
      "midi": 43,
      "hit": false,
      "t": 22606.12265624998,
      "d": 2287.734895833324,
      "v": 93
    },
    {
      "midi": 62,
      "hit": false,
      "t": 22617.91510416666,
      "d": 1650.9427083333321,
      "v": 63
    },
    {
      "midi": 59,
      "hit": false,
      "t": 22617.91510416666,
      "d": 1662.735156249997,
      "v": 66
    },
    {
      "midi": 43,
      "hit": false,
      "t": 22617.91510416666,
      "d": 2275.942447916663,
      "v": 71
    },
    {
      "midi": 55,
      "hit": false,
      "t": 22629.707552083324,
      "d": 1615.5653645833336,
      "v": 66
    },
    {
      "midi": 50,
      "hit": false,
      "t": 22665.08489583331,
      "d": 2146.22552083333,
      "v": 71
    },
    {
      "midi": 59,
      "hit": false,
      "t": 22665.08489583331,
      "d": 2205.187760416662,
      "v": 77
    },
    {
      "midi": 54,
      "hit": false,
      "t": 24870.272656249974,
      "d": 1686.320052083327,
      "v": 43
    },
    {
      "midi": 62,
      "hit": false,
      "t": 24882.06510416664,
      "d": 1650.9427083333321,
      "v": 68
    },
    {
      "midi": 59,
      "hit": false,
      "t": 24882.06510416664,
      "d": 1662.735156249997,
      "v": 66
    },
    {
      "midi": 35,
      "hit": false,
      "t": 24882.06510416664,
      "d": 2311.3197916666577,
      "v": 71
    },
    {
      "midi": 66,
      "hit": false,
      "t": 24882.065104166657,
      "d": 1403.3013020833278,
      "v": 51
    },
    {
      "midi": 54,
      "hit": false,
      "t": 24882.065104166657,
      "d": 1497.6408854166584,
      "v": 63
    },
    {
      "midi": 62,
      "hit": false,
      "t": 24893.857552083322,
      "d": 1356.1315104166642,
      "v": 84
    },
    {
      "midi": 59,
      "hit": false,
      "t": 24893.857552083322,
      "d": 1450.471093749995,
      "v": 88
    },
    {
      "midi": 47,
      "hit": false,
      "t": 24893.857552083322,
      "d": 2240.5651041666606,
      "v": 93
    },
    {
      "midi": 60,
      "hit": false,
      "t": 27146.215104166633,
      "d": 1155.6598958333307,
      "v": 53
    },
    {
      "midi": 36,
      "hit": false,
      "t": 27146.215104166633,
      "d": 1733.4898437499978,
      "v": 66
    },
    {
      "midi": 55,
      "hit": false,
      "t": 27146.215104166648,
      "d": 1485.848437499997,
      "v": 63
    },
    {
      "midi": 60,
      "hit": false,
      "t": 27146.215104166648,
      "d": 1497.640885416662,
      "v": 74
    },
    {
      "midi": 64,
      "hit": false,
      "t": 27146.215104166648,
      "d": 1544.8106770833292,
      "v": 63
    },
    {
      "midi": 55,
      "hit": false,
      "t": 27158.007552083298,
      "d": 1143.8674479166657,
      "v": 42
    },
    {
      "midi": 64,
      "hit": false,
      "t": 27158.007552083298,
      "d": 1191.0372395833328,
      "v": 59
    },
    {
      "midi": 48,
      "hit": false,
      "t": 27158.007552083312,
      "d": 966.9807291666657,
      "v": 71
    },
    {
      "midi": 67,
      "hit": false,
      "t": 28867.912499999966,
      "d": 117.92447916666424,
      "v": 84
    },
    {
      "midi": 62,
      "hit": false,
      "t": 29410.36510416663,
      "d": 1308.9617187499935,
      "v": 68
    },
    {
      "midi": 62,
      "hit": false,
      "t": 29410.36510416664,
      "d": 896.2260416666577,
      "v": 74
    },
    {
      "midi": 67,
      "hit": false,
      "t": 29422.157552083296,
      "d": 448.11302083333067,
      "v": 81
    },
    {
      "midi": 57,
      "hit": false,
      "t": 29422.157552083296,
      "d": 2323.1122395833263,
      "v": 59
    },
    {
      "midi": 66,
      "hit": false,
      "t": 29422.157552083307,
      "d": 872.6411458333278,
      "v": 56
    },
    {
      "midi": 38,
      "hit": false,
      "t": 29433.94999999996,
      "d": 2299.5273437499964,
      "v": 93
    },
    {
      "midi": 50,
      "hit": false,
      "t": 29433.94999999997,
      "d": 636.7921874999993,
      "v": 68
    },
    {
      "midi": 57,
      "hit": false,
      "t": 29433.94999999997,
      "d": 849.0562499999978,
      "v": 57
    },
    {
      "midi": 66,
      "hit": false,
      "t": 29976.402604166626,
      "d": 224.05651041666715,
      "v": 71
    },
    {
      "midi": 64,
      "hit": false,
      "t": 30259.421354166625,
      "d": 636.7921874999993,
      "v": 88
    },
    {
      "midi": 55,
      "hit": false,
      "t": 31686.3075520833,
      "d": 1757.0747395833314,
      "v": 71
    },
    {
      "midi": 62,
      "hit": false,
      "t": 31686.3075520833,
      "d": 1780.6596354166613,
      "v": 77
    },
    {
      "midi": 59,
      "hit": false,
      "t": 31686.3075520833,
      "d": 1792.45208333333,
      "v": 77
    },
    {
      "midi": 62,
      "hit": false,
      "t": 31698.09999999996,
      "d": 35.377343749998545,
      "v": 74
    },
    {
      "midi": 67,
      "hit": false,
      "t": 31698.09999999996,
      "d": 1261.7919270833263,
      "v": 71
    },
    {
      "midi": 59,
      "hit": false,
      "t": 31709.892447916623,
      "d": 1226.4145833333314,
      "v": 63
    },
    {
      "midi": 43,
      "hit": false,
      "t": 31709.892447916623,
      "d": 1627.3578124999985,
      "v": 55
    },
    {
      "midi": 43,
      "hit": false,
      "t": 31709.892447916634,
      "d": 2240.565104166668,
      "v": 71
    },
    {
      "midi": 59,
      "hit": false,
      "t": 33113.193749999955,
      "d": 106.13203125000291,
      "v": 48
    },
    {
      "midi": 67,
      "hit": false,
      "t": 33384.42005208329,
      "d": 70.75468749999709,
      "v": 88
    },
    {
      "midi": 66,
      "hit": false,
      "t": 33926.872656249965,
      "d": 1768.8671875,
      "v": 53
    },
    {
      "midi": 62,
      "hit": false,
      "t": 33938.665104166634,
      "d": 1698.112500000003,
      "v": 88
    },
    {
      "midi": 59,
      "hit": false,
      "t": 33938.665104166634,
      "d": 1733.4898437500015,
      "v": 88
    },
    {
      "midi": 47,
      "hit": false,
      "t": 33938.665104166634,
      "d": 2323.112239583337,
      "v": 74
    },
    {
      "midi": 66,
      "hit": false,
      "t": 33962.249999999956,
      "d": 1344.3390624999956,
      "v": 60
    },
    {
      "midi": 62,
      "hit": false,
      "t": 33962.249999999956,
      "d": 1391.5088541666628,
      "v": 74
    },
    {
      "midi": 69,
      "hit": false,
      "t": 33962.249999999956,
      "d": 1391.5088541666628,
      "v": 71
    },
    {
      "midi": 47,
      "hit": false,
      "t": 33974.042447916625,
      "d": 1297.1692708333285,
      "v": 66
    },
    {
      "midi": 47,
      "hit": false,
      "t": 35377.34374999995,
      "d": 200.47161458332994,
      "v": 47
    },
    {
      "midi": 66,
      "hit": false,
      "t": 35648.570052083276,
      "d": 70.75468749999709,
      "v": 80
    },
    {
      "midi": 60,
      "hit": false,
      "t": 36179.2302083333,
      "d": 1863.2067708333416,
      "v": 74
    },
    {
      "midi": 55,
      "hit": false,
      "t": 36191.02265624997,
      "d": 1827.829427083343,
      "v": 74
    },
    {
      "midi": 64,
      "hit": false,
      "t": 36191.02265624997,
      "d": 1827.829427083343,
      "v": 66
    },
    {
      "midi": 48,
      "hit": false,
      "t": 36202.815104166635,
      "d": 2311.319791666676,
      "v": 77
    },
    {
      "midi": 60,
      "hit": false,
      "t": 36214.607552083275,
      "d": 683.9619791666701,
      "v": 68
    },
    {
      "midi": 64,
      "hit": false,
      "t": 36214.607552083275,
      "d": 683.9619791666701,
      "v": 81
    },
    {
      "midi": 48,
      "hit": false,
      "t": 36226.39999999994,
      "d": 566.0374999999985,
      "v": 66
    },
    {
      "midi": 48,
      "hit": false,
      "t": 36898.569531249945,
      "d": 1238.20703125,
      "v": 57
    },
    {
      "midi": 60,
      "hit": false,
      "t": 37075.456249999945,
      "d": 176.88671875,
      "v": 68
    },
    {
      "midi": 72,
      "hit": false,
      "t": 37358.47499999995,
      "d": 294.81119791666424,
      "v": 88
    },
    {
      "midi": 67,
      "hit": false,
      "t": 37617.90885416661,
      "d": 294.81119791666424,
      "v": 68
    },
    {
      "midi": 64,
      "hit": false,
      "t": 37912.72005208328,
      "d": 271.2263020833343,
      "v": 55
    },
    {
      "midi": 60,
      "hit": false,
      "t": 38195.73880208328,
      "d": 106.13203125000291,
      "v": 50
    },
    {
      "midi": 62,
      "hit": false,
      "t": 38443.38020833331,
      "d": 1768.8671875000073,
      "v": 74
    },
    {
      "midi": 66,
      "hit": false,
      "t": 38455.172656249975,
      "d": 1757.0747395833387,
      "v": 67
    },
    {
      "midi": 57,
      "hit": false,
      "t": 38455.172656249975,
      "d": 1804.2445312500058,
      "v": 74
    },
    {
      "midi": 50,
      "hit": false,
      "t": 38455.172656249975,
      "d": 1839.6218750000044,
      "v": 84
    },
    {
      "midi": 38,
      "hit": false,
      "t": 38478.75755208328,
      "d": 1639.1502604166744,
      "v": 93
    },
    {
      "midi": 50,
      "hit": false,
      "t": 38749.98385416662,
      "d": 1273.5843750000058,
      "v": 81
    },
    {
      "midi": 54,
      "hit": false,
      "t": 39033.00260416662,
      "d": 235.84895833333576,
      "v": 63
    },
    {
      "midi": 62,
      "hit": false,
      "t": 39304.228906249955,
      "d": 271.2263020833343,
      "v": 74
    },
    {
      "midi": 66,
      "hit": false,
      "t": 39622.624999999956,
      "d": 58.96223958333576,
      "v": 80
    },
    {
      "midi": 67,
      "hit": false,
      "t": 40742.90755208329,
      "d": 1167.4523437499956,
      "v": 81
    },
    {
      "midi": 36,
      "hit": false,
      "t": 40742.90755208329,
      "d": 2181.6028645833285,
      "v": 102
    },
    {
      "midi": 60,
      "hit": false,
      "t": 40754.69999999996,
      "d": 1120.2825520833285,
      "v": 68
    },
    {
      "midi": 64,
      "hit": false,
      "t": 40754.69999999996,
      "d": 1155.659895833327,
      "v": 97
    },
    {
      "midi": 55,
      "hit": false,
      "t": 40754.69999999998,
      "d": 1745.2822916666628,
      "v": 84
    },
    {
      "midi": 64,
      "hit": false,
      "t": 40754.69999999998,
      "d": 1745.2822916666628,
      "v": 81
    },
    {
      "midi": 60,
      "hit": false,
      "t": 40754.69999999998,
      "d": 1768.8671874999927,
      "v": 97
    },
    {
      "midi": 48,
      "hit": false,
      "t": 40766.49244791665,
      "d": 2216.980208333327,
      "v": 97
    },
    {
      "midi": 43,
      "hit": false,
      "t": 41049.511197916625,
      "d": 1933.9614583333314,
      "v": 102
    },
    {
      "midi": 52,
      "hit": false,
      "t": 41344.32239583329,
      "d": 1721.6973958333328,
      "v": 107
    },
    {
      "midi": 67,
      "hit": false,
      "t": 42429.22760416662,
      "d": 294.81119791666424,
      "v": 107
    },
    {
      "midi": 69,
      "hit": false,
      "t": 42700.45390624995,
      "d": 341.98098958333867,
      "v": 102
    },
    {
      "midi": 62,
      "hit": false,
      "t": 42959.88776041664,
      "d": 1804.2445312500058,
      "v": 84
    },
    {
      "midi": 55,
      "hit": false,
      "t": 42971.68020833331,
      "d": 1816.0369791666672,
      "v": 84
    },
    {
      "midi": 59,
      "hit": false,
      "t": 42971.68020833331,
      "d": 1816.0369791666672,
      "v": 81
    },
    {
      "midi": 67,
      "hit": false,
      "t": 42983.472656249956,
      "d": 1556.6031249999942,
      "v": 107
    },
    {
      "midi": 35,
      "hit": false,
      "t": 42983.472656249956,
      "d": 2252.357552083333,
      "v": 102
    },
    {
      "midi": 47,
      "hit": false,
      "t": 42983.47265624998,
      "d": 2299.52734375,
      "v": 63
    },
    {
      "midi": 59,
      "hit": false,
      "t": 42995.265104166625,
      "d": 1096.6976562499913,
      "v": 74
    },
    {
      "midi": 62,
      "hit": false,
      "t": 42995.265104166625,
      "d": 1509.433333333327,
      "v": 97
    },
    {
      "midi": 43,
      "hit": false,
      "t": 43278.28385416662,
      "d": 2016.5085937500116,
      "v": 102
    },
    {
      "midi": 50,
      "hit": false,
      "t": 43573.095052083285,
      "d": 1757.074739583346,
      "v": 107
    },
    {
      "midi": 67,
      "hit": false,
      "t": 44693.37760416662,
      "d": 330.18854166667006,
      "v": 107
    },
    {
      "midi": 69,
      "hit": false,
      "t": 44976.39635416662,
      "d": 306.6036458333401,
      "v": 107
    },
    {
      "midi": 67,
      "hit": false,
      "t": 45247.62265624996,
      "d": 1709.9049479166715,
      "v": 102
    },
    {
      "midi": 64,
      "hit": false,
      "t": 45259.41510416663,
      "d": 1698.112500000003,
      "v": 107
    },
    {
      "midi": 57,
      "hit": false,
      "t": 45271.207552083295,
      "d": 1686.3200520833343,
      "v": 77
    },
    {
      "midi": 60,
      "hit": false,
      "t": 45271.207552083295,
      "d": 1686.3200520833343,
      "v": 102
    },
    {
      "midi": 60,
      "hit": false,
      "t": 45294.79244791665,
      "d": 1674.5276041666657,
      "v": 88
    },
    {
      "midi": 64,
      "hit": false,
      "t": 45294.79244791665,
      "d": 1721.6973958333328,
      "v": 77
    },
    {
      "midi": 45,
      "hit": false,
      "t": 45294.79244791665,
      "d": 2228.772656250003,
      "v": 71
    },
    {
      "midi": 55,
      "hit": false,
      "t": 45306.584895833315,
      "d": 1674.5276041666657,
      "v": 84
    },
    {
      "midi": 33,
      "hit": false,
      "t": 45318.37734374996,
      "d": 2240.5651041666642,
      "v": 107
    },
    {
      "midi": 50,
      "hit": false,
      "t": 46945.73515624996,
      "d": 235.84895833333576,
      "v": 107
    },
    {
      "midi": 55,
      "hit": false,
      "t": 46957.52760416663,
      "d": 259.4338541666657,
      "v": 107
    },
    {
      "midi": 59,
      "hit": false,
      "t": 46957.52760416663,
      "d": 271.2263020833343,
      "v": 93
    },
    {
      "midi": 66,
      "hit": false,
      "t": 47511.77265624998,
      "d": 1568.3955729166628,
      "v": 63
    },
    {
      "midi": 62,
      "hit": false,
      "t": 47511.77265624998,
      "d": 1580.1880208333314,
      "v": 81
    },
    {
      "midi": 57,
      "hit": false,
      "t": 47511.77265624998,
      "d": 1639.1502604166672,
      "v": 68
    },
    {
      "midi": 57,
      "hit": false,
      "t": 47523.56510416663,
      "d": 2275.94244791667,
      "v": 107
    },
    {
      "midi": 50,
      "hit": false,
      "t": 47523.56510416665,
      "d": 2299.52734375,
      "v": 63
    },
    {
      "midi": 54,
      "hit": false,
      "t": 47535.3575520833,
      "d": 2252.357552083333,
      "v": 90
    },
    {
      "midi": 50,
      "hit": false,
      "t": 47535.3575520833,
      "d": 2264.1500000000015,
      "v": 107
    },
    {
      "midi": 38,
      "hit": false,
      "t": 47535.3575520833,
      "d": 2275.94244791667,
      "v": 97
    },
    {
      "midi": 59,
      "hit": false,
      "t": 49799.50755208332,
      "d": 1768.8671875,
      "v": 93
    },
    {
      "midi": 62,
      "hit": false,
      "t": 49799.50755208332,
      "d": 1768.8671875,
      "v": 97
    },
    {
      "midi": 55,
      "hit": false,
      "t": 49799.50755208332,
      "d": 1780.6596354166686,
      "v": 97
    },
    {
      "midi": 43,
      "hit": false,
      "t": 49799.50755208332,
      "d": 2299.52734375,
      "v": 77
    },
    {
      "midi": 50,
      "hit": false,
      "t": 49811.29999999997,
      "d": 2004.7161458333358,
      "v": 107
    },
    {
      "midi": 47,
      "hit": false,
      "t": 49811.29999999997,
      "d": 2040.0934895833343,
      "v": 93
    },
    {
      "midi": 55,
      "hit": false,
      "t": 49811.29999999997,
      "d": 2075.470833333333,
      "v": 81
    },
    {
      "midi": 31,
      "hit": false,
      "t": 49811.29999999997,
      "d": 2264.149999999994,
      "v": 102
    },
    {
      "midi": 54,
      "hit": false,
      "t": 52040.07265624996,
      "d": 2169.810416666667,
      "v": 84
    },
    {
      "midi": 50,
      "hit": false,
      "t": 52040.07265624996,
      "d": 2311.3197916666686,
      "v": 107
    },
    {
      "midi": 35,
      "hit": false,
      "t": 52051.86510416663,
      "d": 2358.4895833333358,
      "v": 107
    },
    {
      "midi": 59,
      "hit": false,
      "t": 52051.86510416665,
      "d": 1816.0369791666672,
      "v": 81
    },
    {
      "midi": 62,
      "hit": false,
      "t": 52051.86510416665,
      "d": 1816.0369791666672,
      "v": 68
    },
    {
      "midi": 55,
      "hit": false,
      "t": 52063.65755208332,
      "d": 1792.45208333333,
      "v": 81
    },
    {
      "midi": 40,
      "hit": false,
      "t": 52063.65755208332,
      "d": 1827.8294270833285,
      "v": 74
    },
    {
      "midi": 52,
      "hit": false,
      "t": 54327.80755208329,
      "d": 2299.5273437500073,
      "v": 68
    },
    {
      "midi": 48,
      "hit": false,
      "t": 54339.59999999996,
      "d": 2264.1500000000015,
      "v": 68
    },
    {
      "midi": 60,
      "hit": false,
      "t": 54339.599999999984,
      "d": 1709.9049479166715,
      "v": 84
    },
    {
      "midi": 55,
      "hit": false,
      "t": 54339.599999999984,
      "d": 1721.6973958333401,
      "v": 81
    },
    {
      "midi": 64,
      "hit": false,
      "t": 54339.599999999984,
      "d": 1721.6973958333401,
      "v": 66
    },
    {
      "midi": 36,
      "hit": false,
      "t": 54351.39244791663,
      "d": 2334.904687500006,
      "v": 102
    },
    {
      "midi": 48,
      "hit": false,
      "t": 54351.39244791665,
      "d": 2275.94244791667,
      "v": 84
    },
    {
      "midi": 55,
      "hit": false,
      "t": 54905.63749999997,
      "d": 283.0187500000029,
      "v": 71
    },
    {
      "midi": 67,
      "hit": false,
      "t": 54905.63749999997,
      "d": 341.98098958333867,
      "v": 84
    },
    {
      "midi": 57,
      "hit": false,
      "t": 55200.44869791664,
      "d": 601.4148437499971,
      "v": 93
    },
    {
      "midi": 69,
      "hit": false,
      "t": 55200.44869791664,
      "d": 601.4148437499971,
      "v": 107
    },
    {
      "midi": 59,
      "hit": false,
      "t": 55766.48619791664,
      "d": 577.8299479166599,
      "v": 88
    },
    {
      "midi": 71,
      "hit": false,
      "t": 55766.48619791664,
      "d": 601.4148437499898,
      "v": 93
    },
    {
      "midi": 57,
      "hit": false,
      "t": 56320.73124999997,
      "d": 2499.99895833333,
      "v": 81
    },
    {
      "midi": 69,
      "hit": false,
      "t": 56320.73124999997,
      "d": 2523.583854166667,
      "v": 107
    },
    {
      "midi": 66,
      "hit": false,
      "t": 56580.165104166656,
      "d": 1662.735156249997,
      "v": 71
    },
    {
      "midi": 62,
      "hit": false,
      "t": 56580.165104166656,
      "d": 1674.5276041666657,
      "v": 93
    },
    {
      "midi": 57,
      "hit": false,
      "t": 56580.165104166656,
      "d": 1745.2822916666628,
      "v": 74
    },
    {
      "midi": 50,
      "hit": false,
      "t": 56591.957552083295,
      "d": 1981.1312500000058,
      "v": 77
    },
    {
      "midi": 54,
      "hit": false,
      "t": 56591.957552083295,
      "d": 2110.8481770833387,
      "v": 84
    },
    {
      "midi": 50,
      "hit": false,
      "t": 56591.957552083324,
      "d": 2311.319791666654,
      "v": 102
    },
    {
      "midi": 38,
      "hit": false,
      "t": 56615.54244791663,
      "d": 2275.94244791667,
      "v": 81
    },
    {
      "midi": 47,
      "hit": false,
      "t": 58832.52265624997,
      "d": 2099.05572916667,
      "v": 84
    },
    {
      "midi": 50,
      "hit": false,
      "t": 58832.52265624997,
      "d": 2099.05572916667,
      "v": 107
    },
    {
      "midi": 31,
      "hit": false,
      "t": 58844.315104166635,
      "d": 2311.3197916666686,
      "v": 88
    },
    {
      "midi": 62,
      "hit": false,
      "t": 58844.31510416665,
      "d": 1709.9049479166642,
      "v": 81
    },
    {
      "midi": 59,
      "hit": false,
      "t": 58844.31510416665,
      "d": 1721.6973958333328,
      "v": 84
    },
    {
      "midi": 55,
      "hit": false,
      "t": 58844.31510416665,
      "d": 1745.28229166667,
      "v": 88
    },
    {
      "midi": 43,
      "hit": false,
      "t": 58856.10755208332,
      "d": 2287.7348958333387,
      "v": 74
    },
    {
      "midi": 35,
      "hit": false,
      "t": 61096.67265624997,
      "d": 2311.3197916666613,
      "v": 81
    },
    {
      "midi": 54,
      "hit": false,
      "t": 61108.46510416664,
      "d": 1933.9614583333314,
      "v": 75
    },
    {
      "midi": 50,
      "hit": false,
      "t": 61108.46510416664,
      "d": 2016.508593749997,
      "v": 102
    },
    {
      "midi": 62,
      "hit": false,
      "t": 61108.46510416665,
      "d": 1804.2445312500058,
      "v": 71
    },
    {
      "midi": 59,
      "hit": false,
      "t": 61120.25755208332,
      "d": 1768.8671875,
      "v": 81
    },
    {
      "midi": 55,
      "hit": false,
      "t": 61120.25755208332,
      "d": 1780.6596354166686,
      "v": 74
    },
    {
      "midi": 40,
      "hit": false,
      "t": 61132.04999999999,
      "d": 1898.5841145833328,
      "v": 61
    },
    {
      "midi": 60,
      "hit": false,
      "t": 63349.03020833332,
      "d": 1509.4333333333416,
      "v": 71
    },
    {
      "midi": 55,
      "hit": false,
      "t": 63360.82265624999,
      "d": 1485.8484375000044,
      "v": 81
    },
    {
      "midi": 64,
      "hit": false,
      "t": 63360.82265624999,
      "d": 1509.4333333333416,
      "v": 59
    },
    {
      "midi": 36,
      "hit": false,
      "t": 63372.61510416663,
      "d": 2287.7348958333314,
      "v": 84
    },
    {
      "midi": 48,
      "hit": false,
      "t": 63372.61510416666,
      "d": 2075.47083333334,
      "v": 93
    },
    {
      "midi": 48,
      "hit": false,
      "t": 63384.4075520833,
      "d": 2110.848177083324,
      "v": 88
    },
    {
      "midi": 52,
      "hit": false,
      "t": 63384.4075520833,
      "d": 2299.52734375,
      "v": 107
    },
    {
      "midi": 67,
      "hit": false,
      "t": 63950.4450520833,
      "d": 330.18854166667006,
      "v": 93
    },
    {
      "midi": 55,
      "hit": false,
      "t": 63962.23749999997,
      "d": 271.2263020833343,
      "v": 84
    },
    {
      "midi": 57,
      "hit": false,
      "t": 64245.25624999997,
      "d": 530.66015625,
      "v": 97
    },
    {
      "midi": 69,
      "hit": false,
      "t": 64245.25624999997,
      "d": 589.6223958333285,
      "v": 107
    },
    {
      "midi": 59,
      "hit": false,
      "t": 64775.91640624997,
      "d": 672.1695312499869,
      "v": 68
    },
    {
      "midi": 71,
      "hit": false,
      "t": 64799.5013020833,
      "d": 624.999739583327,
      "v": 93
    },
    {
      "midi": 69,
      "hit": false,
      "t": 65377.33124999997,
      "d": 2488.206510416676,
      "v": 107
    },
    {
      "midi": 57,
      "hit": false,
      "t": 65400.9161458333,
      "d": 2441.0367187500087,
      "v": 74
    },
    {
      "midi": 54,
      "hit": false,
      "t": 65648.5575520833,
      "d": 2051.885937500003,
      "v": 80
    },
    {
      "midi": 50,
      "hit": false,
      "t": 65648.5575520833,
      "d": 2063.6783854166715,
      "v": 71
    },
    {
      "midi": 38,
      "hit": false,
      "t": 65648.5575520833,
      "d": 2075.47083333334,
      "v": 93
    },
    {
      "midi": 66,
      "hit": false,
      "t": 65648.55755208334,
      "d": 1603.7729166666686,
      "v": 67
    },
    {
      "midi": 62,
      "hit": false,
      "t": 65648.55755208334,
      "d": 1615.5653645833372,
      "v": 93
    },
    {
      "midi": 57,
      "hit": false,
      "t": 65660.35,
      "d": 1650.9427083333285,
      "v": 74
    },
    {
      "midi": 50,
      "hit": false,
      "t": 65672.14244791667,
      "d": 1922.1690104166628,
      "v": 88
    },
    {
      "midi": 60,
      "hit": false,
      "t": 67889.12265625001,
      "d": 1568.3955729166773,
      "v": 81
    },
    {
      "midi": 64,
      "hit": false,
      "t": 67889.12265625001,
      "d": 1639.1502604166744,
      "v": 74
    },
    {
      "midi": 55,
      "hit": false,
      "t": 67900.91510416668,
      "d": 1615.5653645833372,
      "v": 81
    },
    {
      "midi": 45,
      "hit": false,
      "t": 67900.91510416668,
      "d": 2028.3010416666657,
      "v": 97
    },
    {
      "midi": 33,
      "hit": false,
      "t": 67912.7075520833,
      "d": 1344.339062500003,
      "v": 97
    },
    {
      "midi": 60,
      "hit": false,
      "t": 67912.7075520833,
      "d": 1497.6408854166657,
      "v": 102
    },
    {
      "midi": 55,
      "hit": false,
      "t": 67924.49999999997,
      "d": 1474.0559895833285,
      "v": 77
    },
    {
      "midi": 64,
      "hit": false,
      "t": 67924.49999999997,
      "d": 1497.6408854166657,
      "v": 97
    },
    {
      "midi": 33,
      "hit": false,
      "t": 69327.8013020833,
      "d": 731.1317708333372,
      "v": 63
    },
    {
      "midi": 64,
      "hit": false,
      "t": 69622.61249999997,
      "d": 106.13203125000291,
      "v": 88
    },
    {
      "midi": 60,
      "hit": false,
      "t": 69622.61249999997,
      "d": 129.71692708334012,
      "v": 107
    },
    {
      "midi": 55,
      "hit": false,
      "t": 69905.63124999998,
      "d": 94.3395833333343,
      "v": 48
    },
    {
      "midi": 62,
      "hit": false,
      "t": 70153.27265625,
      "d": 1450.4710937500058,
      "v": 84
    },
    {
      "midi": 66,
      "hit": false,
      "t": 70165.06510416667,
      "d": 1426.8861979166686,
      "v": 67
    },
    {
      "midi": 57,
      "hit": false,
      "t": 70165.06510416667,
      "d": 1497.6408854166657,
      "v": 68
    },
    {
      "midi": 62,
      "hit": false,
      "t": 70176.85755208331,
      "d": 2099.0557291666773,
      "v": 71
    },
    {
      "midi": 50,
      "hit": false,
      "t": 70176.85755208334,
      "d": 1898.5841145833256,
      "v": 97
    },
    {
      "midi": 54,
      "hit": false,
      "t": 70188.64999999998,
      "d": 2158.017968750006,
      "v": 63
    },
    {
      "midi": 57,
      "hit": false,
      "t": 70188.64999999998,
      "d": 2169.8104166666744,
      "v": 74
    },
    {
      "midi": 38,
      "hit": false,
      "t": 70188.64999999998,
      "d": 2216.9802083333343,
      "v": 97
    },
    {
      "midi": 64,
      "hit": false,
      "t": 72417.42265624998,
      "d": 1768.8671875,
      "v": 102
    },
    {
      "midi": 60,
      "hit": false,
      "t": 72417.42265624998,
      "d": 1945.75390625,
      "v": 97
    },
    {
      "midi": 55,
      "hit": false,
      "t": 72417.42265625,
      "d": 1698.112500000003,
      "v": 74
    },
    {
      "midi": 60,
      "hit": false,
      "t": 72417.42265625,
      "d": 1709.9049479166715,
      "v": 74
    },
    {
      "midi": 64,
      "hit": false,
      "t": 72417.42265625,
      "d": 1721.6973958333401,
      "v": 71
    },
    {
      "midi": 55,
      "hit": false,
      "t": 72429.21510416665,
      "d": 1886.7916666666715,
      "v": 77
    },
    {
      "midi": 48,
      "hit": false,
      "t": 72429.21510416667,
      "d": 1745.2822916666773,
      "v": 93
    },
    {
      "midi": 36,
      "hit": false,
      "t": 72441.00755208332,
      "d": 2311.319791666654,
      "v": 93
    },
    {
      "midi": 62,
      "hit": false,
      "t": 74693.36510416665,
      "d": 2287.7348958333314,
      "v": 93
    },
    {
      "midi": 57,
      "hit": false,
      "t": 74693.36510416667,
      "d": 2264.1500000000087,
      "v": 71
    },
    {
      "midi": 66,
      "hit": false,
      "t": 74693.36510416667,
      "d": 2311.319791666683,
      "v": 60
    },
    {
      "midi": 66,
      "hit": false,
      "t": 74705.15755208331,
      "d": 2264.149999999994,
      "v": 84
    },
    {
      "midi": 38,
      "hit": false,
      "t": 74705.15755208331,
      "d": 2275.942447916663,
      "v": 97
    },
    {
      "midi": 57,
      "hit": false,
      "t": 74705.15755208331,
      "d": 2275.942447916663,
      "v": 63
    },
    {
      "midi": 50,
      "hit": false,
      "t": 74716.95000000001,
      "d": 2287.734895833346,
      "v": 93
    },
    {
      "midi": 62,
      "hit": false,
      "t": 76933.93020833335,
      "d": 47.16979166667443,
      "v": 77
    },
    {
      "midi": 55,
      "hit": false,
      "t": 76945.72265625001,
      "d": 1686.3200520833343,
      "v": 74
    },
    {
      "midi": 59,
      "hit": false,
      "t": 76945.72265625001,
      "d": 1709.9049479166715,
      "v": 77
    },
    {
      "midi": 43,
      "hit": false,
      "t": 76957.51510416668,
      "d": 1945.75390625,
      "v": 66
    },
    {
      "midi": 62,
      "hit": false,
      "t": 79221.66510416668,
      "d": 1745.2822916666628,
      "v": 61
    },
    {
      "midi": 59,
      "hit": false,
      "t": 79221.66510416668,
      "d": 1780.6596354166686,
      "v": 68
    },
    {
      "midi": 55,
      "hit": false,
      "t": 79221.66510416668,
      "d": 1792.4520833333372,
      "v": 59
    },
    {
      "midi": 40,
      "hit": false,
      "t": 79233.45755208335,
      "d": 1957.5463541666686,
      "v": 66
    },
    {
      "midi": 74,
      "hit": false,
      "t": 80931.5700520833,
      "d": 271.2263020833343,
      "v": 102
    },
    {
      "midi": 79,
      "hit": false,
      "t": 81202.79635416664,
      "d": 318.39609375000873,
      "v": 93
    },
    {
      "midi": 60,
      "hit": false,
      "t": 81485.81510416669,
      "d": 1709.904947916657,
      "v": 63
    },
    {
      "midi": 55,
      "hit": false,
      "t": 81485.81510416669,
      "d": 1721.6973958333256,
      "v": 59
    },
    {
      "midi": 48,
      "hit": false,
      "t": 81485.81510416669,
      "d": 2264.1499999999796,
      "v": 63
    },
    {
      "midi": 64,
      "hit": false,
      "t": 81497.60755208335,
      "d": 1757.0747395833168,
      "v": 61
    },
    {
      "midi": 74,
      "hit": false,
      "t": 81509.39999999998,
      "d": 719.3393229166686,
      "v": 93
    },
    {
      "midi": 67,
      "hit": false,
      "t": 83490.53124999999,
      "d": 176.88671875,
      "v": 74
    },
    {
      "midi": 67,
      "hit": false,
      "t": 83749.96510416665,
      "d": 341.9809895833314,
      "v": 107
    },
    {
      "midi": 62,
      "hit": false,
      "t": 83749.96510416667,
      "d": 1627.3578125000058,
      "v": 57
    },
    {
      "midi": 66,
      "hit": false,
      "t": 83749.96510416667,
      "d": 1627.3578125000058,
      "v": 56
    },
    {
      "midi": 57,
      "hit": false,
      "t": 83761.75755208333,
      "d": 1698.112500000003,
      "v": 61
    },
    {
      "midi": 50,
      "hit": false,
      "t": 83761.75755208333,
      "d": 2287.734895833346,
      "v": 51
    },
    {
      "midi": 66,
      "hit": false,
      "t": 84032.98385416665,
      "d": 224.05651041665988,
      "v": 75
    },
    {
      "midi": 66,
      "hit": false,
      "t": 84316.00260416664,
      "d": 294.8111979166715,
      "v": 75
    },
    {
      "midi": 64,
      "hit": false,
      "t": 84599.02135416665,
      "d": 212.26406250000582,
      "v": 84
    },
    {
      "midi": 64,
      "hit": false,
      "t": 84882.04010416665,
      "d": 306.6036458333401,
      "v": 102
    },
    {
      "midi": 62,
      "hit": false,
      "t": 85165.05885416665,
      "d": 200.4716145833372,
      "v": 59
    },
    {
      "midi": 62,
      "hit": false,
      "t": 86014.11510416666,
      "d": 35.37734375000582,
      "v": 81
    },
    {
      "midi": 67,
      "hit": false,
      "t": 86014.11510416666,
      "d": 1273.5843750000058,
      "v": 74
    },
    {
      "midi": 62,
      "hit": false,
      "t": 86014.11510416667,
      "d": 1650.942708333343,
      "v": 63
    },
    {
      "midi": 59,
      "hit": false,
      "t": 86014.11510416667,
      "d": 1662.7351562500116,
      "v": 66
    },
    {
      "midi": 43,
      "hit": false,
      "t": 86014.11510416667,
      "d": 2275.9424479166773,
      "v": 71
    },
    {
      "midi": 59,
      "hit": false,
      "t": 86025.90755208333,
      "d": 1426.8861979166686,
      "v": 81
    },
    {
      "midi": 43,
      "hit": false,
      "t": 86025.90755208333,
      "d": 1733.4898437500087,
      "v": 88
    },
    {
      "midi": 55,
      "hit": false,
      "t": 86025.90755208334,
      "d": 1615.5653645833372,
      "v": 66
    },
    {
      "midi": 67,
      "hit": false,
      "t": 87712.22760416666,
      "d": 188.6791666666686,
      "v": 66
    },
    {
      "midi": 62,
      "hit": false,
      "t": 87724.02005208333,
      "d": 247.6414062499971,
      "v": 93
    },
    {
      "midi": 59,
      "hit": false,
      "t": 88007.03880208333,
      "d": 176.88671875,
      "v": 51
    },
    {
      "midi": 62,
      "hit": false,
      "t": 88278.26510416667,
      "d": 660.3770833333401,
      "v": 84
    },
    {
      "midi": 59,
      "hit": false,
      "t": 88278.26510416667,
      "d": 672.1695312500087,
      "v": 71
    },
    {
      "midi": 66,
      "hit": false,
      "t": 88278.26510416667,
      "d": 754.7166666666744,
      "v": 67
    },
    {
      "midi": 66,
      "hit": false,
      "t": 88278.26510416668,
      "d": 1403.301302083346,
      "v": 51
    },
    {
      "midi": 54,
      "hit": false,
      "t": 88278.26510416668,
      "d": 1497.6408854166802,
      "v": 63
    },
    {
      "midi": 47,
      "hit": false,
      "t": 88290.05755208334,
      "d": 1143.8674479166657,
      "v": 77
    },
    {
      "midi": 62,
      "hit": false,
      "t": 88290.05755208335,
      "d": 1356.1315104166715,
      "v": 84
    },
    {
      "midi": 59,
      "hit": false,
      "t": 88290.05755208335,
      "d": 1450.4710937500058,
      "v": 88
    },
    {
      "midi": 47,
      "hit": false,
      "t": 88290.05755208335,
      "d": 2240.5651041666715,
      "v": 93
    },
    {
      "midi": 69,
      "hit": false,
      "t": 89103.73645833334,
      "d": 601.4148437499971,
      "v": 74
    },
    {
      "midi": 62,
      "hit": false,
      "t": 89103.73645833334,
      "d": 731.1317708333372,
      "v": 81
    },
    {
      "midi": 66,
      "hit": false,
      "t": 89103.73645833334,
      "d": 731.1317708333372,
      "v": 51
    },
    {
      "midi": 47,
      "hit": false,
      "t": 89716.94375,
      "d": 542.4526041666832,
      "v": 57
    },
    {
      "midi": 66,
      "hit": false,
      "t": 89964.58515625002,
      "d": 224.05651041667443,
      "v": 48
    },
    {
      "midi": 62,
      "hit": false,
      "t": 89976.37760416669,
      "d": 224.05651041667443,
      "v": 88
    },
    {
      "midi": 62,
      "hit": false,
      "t": 90341.94348958335,
      "d": 82.5471354166657,
      "v": 36
    },
    {
      "midi": 64,
      "hit": false,
      "t": 90542.41510416669,
      "d": 495.2828124999942,
      "v": 68
    },
    {
      "midi": 55,
      "hit": false,
      "t": 90542.41510416669,
      "d": 1485.848437499997,
      "v": 63
    },
    {
      "midi": 60,
      "hit": false,
      "t": 90542.41510416669,
      "d": 1497.6408854166657,
      "v": 74
    },
    {
      "midi": 64,
      "hit": false,
      "t": 90542.41510416669,
      "d": 1544.8106770833256,
      "v": 63
    },
    {
      "midi": 48,
      "hit": false,
      "t": 90554.20755208336,
      "d": 507.0752604166628,
      "v": 61
    },
    {
      "midi": 60,
      "hit": false,
      "t": 90554.20755208336,
      "d": 742.9242187499913,
      "v": 63
    },
    {
      "midi": 48,
      "hit": false,
      "t": 90554.20755208336,
      "d": 966.9807291666657,
      "v": 71
    },
    {
      "midi": 48,
      "hit": false,
      "t": 91143.82994791669,
      "d": 683.9619791666628,
      "v": 53
    },
    {
      "midi": 60,
      "hit": false,
      "t": 91426.84869791669,
      "d": 742.9242187499913,
      "v": 68
    },
    {
      "midi": 64,
      "hit": false,
      "t": 91426.84869791669,
      "d": 790.0940104166511,
      "v": 71
    },
    {
      "midi": 67,
      "hit": false,
      "t": 91426.84869791669,
      "d": 825.471354166657,
      "v": 74
    },
    {
      "midi": 48,
      "hit": false,
      "t": 92169.77291666668,
      "d": 448.1130208333343,
      "v": 39
    },
    {
      "midi": 60,
      "hit": false,
      "t": 92287.69739583335,
      "d": 106.13203125000291,
      "v": 42
    },
    {
      "midi": 66,
      "hit": false,
      "t": 92570.71614583336,
      "d": 58.96223958332848,
      "v": 14
    },
    {
      "midi": 69,
      "hit": false,
      "t": 92794.77265625002,
      "d": 731.1317708333372,
      "v": 46
    },
    {
      "midi": 62,
      "hit": false,
      "t": 92806.56510416669,
      "d": 719.3393229166686,
      "v": 43
    },
    {
      "midi": 62,
      "hit": false,
      "t": 92806.56510416669,
      "d": 896.2260416666832,
      "v": 74
    },
    {
      "midi": 66,
      "hit": false,
      "t": 92818.35755208335,
      "d": 742.9242187500058,
      "v": 19
    },
    {
      "midi": 50,
      "hit": false,
      "t": 92818.35755208335,
      "d": 1297.1692708333576,
      "v": 44
    },
    {
      "midi": 66,
      "hit": false,
      "t": 92818.35755208335,
      "d": 872.641145833346,
      "v": 56
    },
    {
      "midi": 50,
      "hit": false,
      "t": 92830.15000000002,
      "d": 636.7921875000029,
      "v": 68
    },
    {
      "midi": 57,
      "hit": false,
      "t": 92830.15000000002,
      "d": 849.0562500000087,
      "v": 57
    },
    {
      "midi": 62,
      "hit": false,
      "t": 93667.41380208336,
      "d": 94.3395833333343,
      "v": 46
    },
    {
      "midi": 69,
      "hit": false,
      "t": 93950.43255208337,
      "d": 35.37734375000582,
      "v": 77
    },
    {
      "midi": 50,
      "hit": false,
      "t": 94221.65885416672,
      "d": 471.6979166666715,
      "v": 53
    },
    {
      "midi": 79,
      "hit": false,
      "t": 94492.88515625005,
      "d": 341.9809895833314,
      "v": 107
    },
    {
      "midi": 81,
      "hit": false,
      "t": 94775.90390625005,
      "d": 271.2263020833343,
      "v": 97
    },
    {
      "midi": 79,
      "hit": false,
      "t": 95035.33776041672,
      "d": 695.7544270833168,
      "v": 59
    },
    {
      "midi": 43,
      "hit": false,
      "t": 95058.92265625006,
      "d": 365.56588541665406,
      "v": 84
    },
    {
      "midi": 83,
      "hit": false,
      "t": 95058.92265625006,
      "d": 707.5468749999854,
      "v": 93
    },
    {
      "midi": 55,
      "hit": false,
      "t": 95082.50755208336,
      "d": 1757.0747395833314,
      "v": 71
    },
    {
      "midi": 62,
      "hit": false,
      "t": 95082.50755208336,
      "d": 1780.6596354166686,
      "v": 77
    },
    {
      "midi": 59,
      "hit": false,
      "t": 95082.50755208336,
      "d": 1792.4520833333372,
      "v": 77
    },
    {
      "midi": 43,
      "hit": false,
      "t": 95106.0924479167,
      "d": 2240.5651041666715,
      "v": 71
    },
    {
      "midi": 50,
      "hit": false,
      "t": 95365.52630208338,
      "d": 1474.055989583314,
      "v": 41
    },
    {
      "midi": 59,
      "hit": false,
      "t": 95648.54505208337,
      "d": 507.0752604166628,
      "v": 43
    },
    {
      "midi": 74,
      "hit": false,
      "t": 95943.35625000004,
      "d": 153.3018229166628,
      "v": 55
    },
    {
      "midi": 59,
      "hit": false,
      "t": 96497.60130208336,
      "d": 330.1885416666628,
      "v": 66
    },
    {
      "midi": 83,
      "hit": false,
      "t": 96780.62005208337,
      "d": 507.0752604166628,
      "v": 68
    },
    {
      "midi": 81,
      "hit": false,
      "t": 97323.07265625003,
      "d": 377.35833333332266,
      "v": 77
    },
    {
      "midi": 66,
      "hit": false,
      "t": 97323.07265625003,
      "d": 1768.8671875000146,
      "v": 53
    },
    {
      "midi": 78,
      "hit": false,
      "t": 97334.8651041667,
      "d": 365.56588541665406,
      "v": 60
    },
    {
      "midi": 47,
      "hit": false,
      "t": 97334.8651041667,
      "d": 1662.7351562499825,
      "v": 59
    },
    {
      "midi": 62,
      "hit": false,
      "t": 97334.8651041667,
      "d": 1698.112500000003,
      "v": 88
    },
    {
      "midi": 59,
      "hit": false,
      "t": 97334.8651041667,
      "d": 1733.4898437500087,
      "v": 88
    },
    {
      "midi": 47,
      "hit": false,
      "t": 97334.8651041667,
      "d": 2323.1122395833518,
      "v": 74
    },
    {
      "midi": 54,
      "hit": false,
      "t": 97653.2611979167,
      "d": 94.33958333331975,
      "v": 15
    },
    {
      "midi": 54,
      "hit": false,
      "t": 97841.94036458335,
      "d": 283.0187500000029,
      "v": 27
    },
    {
      "midi": 78,
      "hit": false,
      "t": 98172.12890625001,
      "d": 82.5471354166657,
      "v": 84
    },
    {
      "midi": 74,
      "hit": false,
      "t": 98183.92135416668,
      "d": 94.3395833333343,
      "v": 55
    },
    {
      "midi": 54,
      "hit": false,
      "t": 98738.16640625002,
      "d": 283.0187500000029,
      "v": 30
    },
    {
      "midi": 74,
      "hit": false,
      "t": 99009.39270833335,
      "d": 58.96223958332848,
      "v": 61
    },
    {
      "midi": 69,
      "hit": false,
      "t": 99021.18515625002,
      "d": 82.5471354166657,
      "v": 57
    },
    {
      "midi": 60,
      "hit": false,
      "t": 99575.43020833339,
      "d": 1863.2067708333343,
      "v": 74
    },
    {
      "midi": 72,
      "hit": false,
      "t": 99587.22265625003,
      "d": 577.829947916689,
      "v": 61
    },
    {
      "midi": 55,
      "hit": false,
      "t": 99587.22265625006,
      "d": 1827.8294270833285,
      "v": 74
    },
    {
      "midi": 64,
      "hit": false,
      "t": 99587.22265625006,
      "d": 1827.8294270833285,
      "v": 66
    },
    {
      "midi": 64,
      "hit": false,
      "t": 99599.0151041667,
      "d": 542.4526041666832,
      "v": 53
    },
    {
      "midi": 67,
      "hit": false,
      "t": 99599.0151041667,
      "d": 554.2450520833518,
      "v": 71
    },
    {
      "midi": 48,
      "hit": false,
      "t": 99599.01510416673,
      "d": 2311.319791666654,
      "v": 77
    },
    {
      "midi": 48,
      "hit": false,
      "t": 99634.3924479167,
      "d": 1768.8671875000146,
      "v": 51
    },
    {
      "midi": 72,
      "hit": false,
      "t": 100459.86380208339,
      "d": 589.6223958333285,
      "v": 88
    },
    {
      "midi": 76,
      "hit": false,
      "t": 100471.65625000006,
      "d": 530.66015625,
      "v": 88
    },
    {
      "midi": 67,
      "hit": false,
      "t": 101061.27864583339,
      "d": 106.13203125000291,
      "v": 33
    },
    {
      "midi": 72,
      "hit": false,
      "t": 101308.92005208338,
      "d": 117.92447916667152,
      "v": 66
    },
    {
      "midi": 67,
      "hit": false,
      "t": 101580.14635416672,
      "d": 94.3395833333343,
      "v": 51
    },
    {
      "midi": 62,
      "hit": false,
      "t": 101839.58020833338,
      "d": 1768.8671875,
      "v": 74
    },
    {
      "midi": 66,
      "hit": false,
      "t": 101851.37265625005,
      "d": 1757.0747395833314,
      "v": 67
    },
    {
      "midi": 57,
      "hit": false,
      "t": 101851.37265625005,
      "d": 1804.2445312499913,
      "v": 74
    },
    {
      "midi": 50,
      "hit": false,
      "t": 101851.37265625005,
      "d": 1839.621874999997,
      "v": 84
    },
    {
      "midi": 74,
      "hit": false,
      "t": 101863.16510416672,
      "d": 660.3770833333401,
      "v": 66
    },
    {
      "midi": 50,
      "hit": false,
      "t": 101874.95755208339,
      "d": 1261.7919270833372,
      "v": 57
    },
    {
      "midi": 74,
      "hit": false,
      "t": 102712.22135416673,
      "d": 82.5471354166657,
      "v": 63
    },
    {
      "midi": 69,
      "hit": false,
      "t": 102724.0138020834,
      "d": 58.96223958332848,
      "v": 57
    },
    {
      "midi": 50,
      "hit": false,
      "t": 103266.46640625007,
      "d": 436.32057291668025,
      "v": 61
    },
    {
      "midi": 69,
      "hit": false,
      "t": 103561.27760416674,
      "d": 271.22630208334886,
      "v": 88
    },
    {
      "midi": 66,
      "hit": false,
      "t": 103573.0700520834,
      "d": 271.22630208334886,
      "v": 71
    },
    {
      "midi": 48,
      "hit": false,
      "t": 104127.31510416676,
      "d": 1851.4143229166657,
      "v": 102
    },
    {
      "midi": 67,
      "hit": false,
      "t": 104139.10755208343,
      "d": 589.6223958333285,
      "v": 107
    },
    {
      "midi": 60,
      "hit": false,
      "t": 104139.10755208343,
      "d": 695.7544270833314,
      "v": 97
    },
    {
      "midi": 64,
      "hit": false,
      "t": 104139.10755208343,
      "d": 731.1317708333372,
      "v": 107
    },
    {
      "midi": 55,
      "hit": false,
      "t": 104150.90000000005,
      "d": 1745.2822916666773,
      "v": 84
    },
    {
      "midi": 64,
      "hit": false,
      "t": 104150.90000000005,
      "d": 1745.2822916666773,
      "v": 81
    },
    {
      "midi": 60,
      "hit": false,
      "t": 104150.90000000005,
      "d": 1768.8671875000146,
      "v": 97
    },
    {
      "midi": 48,
      "hit": false,
      "t": 104162.69244791672,
      "d": 2216.980208333349,
      "v": 97
    },
    {
      "midi": 55,
      "hit": false,
      "t": 104728.72994791676,
      "d": 294.8111979166715,
      "v": 88
    },
    {
      "midi": 72,
      "hit": false,
      "t": 104976.37135416677,
      "d": 624.9997395833198,
      "v": 93
    },
    {
      "midi": 67,
      "hit": false,
      "t": 104976.37135416677,
      "d": 695.7544270833168,
      "v": 84
    },
    {
      "midi": 64,
      "hit": false,
      "t": 104976.37135416677,
      "d": 896.226041666654,
      "v": 71
    },
    {
      "midi": 55,
      "hit": false,
      "t": 105542.40885416676,
      "d": 459.9054687500029,
      "v": 97
    },
    {
      "midi": 60,
      "hit": false,
      "t": 105837.22005208342,
      "d": 294.81119791668607,
      "v": 84
    },
    {
      "midi": 64,
      "hit": false,
      "t": 106108.44635416676,
      "d": 153.30182291667734,
      "v": 46
    },
    {
      "midi": 62,
      "hit": false,
      "t": 106356.08776041673,
      "d": 1804.2445312500058,
      "v": 84
    },
    {
      "midi": 55,
      "hit": false,
      "t": 106367.8802083334,
      "d": 1816.0369791666744,
      "v": 84
    },
    {
      "midi": 59,
      "hit": false,
      "t": 106367.8802083334,
      "d": 1816.0369791666744,
      "v": 81
    },
    {
      "midi": 47,
      "hit": false,
      "t": 106379.67265625007,
      "d": 2299.52734375,
      "v": 63
    },
    {
      "midi": 47,
      "hit": false,
      "t": 106403.25755208344,
      "d": 1851.4143229166948,
      "v": 88
    },
    {
      "midi": 62,
      "hit": false,
      "t": 106650.89895833345,
      "d": 330.18854166667734,
      "v": 50
    },
    {
      "midi": 67,
      "hit": false,
      "t": 106945.71015625012,
      "d": 212.26406250000582,
      "v": 97
    },
    {
      "midi": 62,
      "hit": false,
      "t": 107205.14401041679,
      "d": 117.92447916667152,
      "v": 53
    },
    {
      "midi": 74,
      "hit": false,
      "t": 107523.5401041668,
      "d": 306.6036458333401,
      "v": 107
    },
    {
      "midi": 71,
      "hit": false,
      "t": 107794.76640625013,
      "d": 271.2263020833343,
      "v": 84
    },
    {
      "midi": 69,
      "hit": false,
      "t": 108089.5776041668,
      "d": 283.0187500000029,
      "v": 107
    },
    {
      "midi": 67,
      "hit": false,
      "t": 108372.5963541668,
      "d": 70.75468749999709,
      "v": 93
    },
    {
      "midi": 45,
      "hit": false,
      "t": 108643.82265625014,
      "d": 1297.169270833343,
      "v": 107
    },
    {
      "midi": 64,
      "hit": false,
      "t": 108667.40755208347,
      "d": 660.3770833333401,
      "v": 107
    },
    {
      "midi": 60,
      "hit": false,
      "t": 108667.40755208347,
      "d": 672.1695312500087,
      "v": 102
    },
    {
      "midi": 60,
      "hit": false,
      "t": 108690.99244791674,
      "d": 1674.5276041666657,
      "v": 88
    },
    {
      "midi": 64,
      "hit": false,
      "t": 108690.99244791674,
      "d": 1721.6973958333401,
      "v": 77
    },
    {
      "midi": 45,
      "hit": false,
      "t": 108690.99244791674,
      "d": 2228.772656250003,
      "v": 71
    },
    {
      "midi": 55,
      "hit": false,
      "t": 108702.7848958334,
      "d": 1674.5276041666657,
      "v": 84
    },
    {
      "midi": 67,
      "hit": false,
      "t": 109528.25625000015,
      "d": 341.9809895833314,
      "v": 107
    },
    {
      "midi": 60,
      "hit": false,
      "t": 109528.25625000015,
      "d": 707.5468749999854,
      "v": 102
    },
    {
      "midi": 64,
      "hit": false,
      "t": 109528.25625000015,
      "d": 742.9242187499913,
      "v": 107
    },
    {
      "midi": 45,
      "hit": false,
      "t": 110082.50130208347,
      "d": 766.509114583343,
      "v": 84
    },
    {
      "midi": 64,
      "hit": false,
      "t": 110365.52005208348,
      "d": 224.05651041667443,
      "v": 77
    },
    {
      "midi": 72,
      "hit": false,
      "t": 110365.52005208348,
      "d": 294.8111979166715,
      "v": 93
    },
    {
      "midi": 67,
      "hit": false,
      "t": 110377.31250000015,
      "d": 318.39609375000873,
      "v": 84
    },
    {
      "midi": 60,
      "hit": false,
      "t": 110377.31250000015,
      "d": 400.9432291666744,
      "v": 81
    },
    {
      "midi": 66,
      "hit": false,
      "t": 110907.97265625007,
      "d": 1568.3955729166628,
      "v": 63
    },
    {
      "midi": 62,
      "hit": false,
      "t": 110907.97265625007,
      "d": 1580.1880208333314,
      "v": 81
    },
    {
      "midi": 57,
      "hit": false,
      "t": 110907.97265625007,
      "d": 1639.1502604166599,
      "v": 68
    },
    {
      "midi": 50,
      "hit": false,
      "t": 110919.76510416674,
      "d": 2299.52734375,
      "v": 63
    },
    {
      "midi": 62,
      "hit": false,
      "t": 110919.76510416681,
      "d": 731.1317708333372,
      "v": 84
    },
    {
      "midi": 69,
      "hit": false,
      "t": 110919.76510416681,
      "d": 754.7166666666744,
      "v": 102
    },
    {
      "midi": 66,
      "hit": false,
      "t": 110931.55755208348,
      "d": 754.7166666666744,
      "v": 84
    },
    {
      "midi": 50,
      "hit": false,
      "t": 110931.55755208348,
      "d": 766.509114583343,
      "v": 107
    },
    {
      "midi": 50,
      "hit": false,
      "t": 111851.36848958349,
      "d": 47.16979166667443,
      "v": 55
    },
    {
      "midi": 62,
      "hit": false,
      "t": 111863.16093750016,
      "d": 141.50937500000873,
      "v": 57
    },
    {
      "midi": 66,
      "hit": false,
      "t": 111922.1231770835,
      "d": 153.3018229166628,
      "v": 33
    },
    {
      "midi": 69,
      "hit": false,
      "t": 111981.08541666683,
      "d": 141.50937499999418,
      "v": 81
    },
    {
      "midi": 74,
      "hit": false,
      "t": 112075.42500000016,
      "d": 306.6036458333256,
      "v": 97
    },
    {
      "midi": 69,
      "hit": false,
      "t": 112358.44375000015,
      "d": 235.84895833334303,
      "v": 107
    },
    {
      "midi": 66,
      "hit": false,
      "t": 112629.6700520835,
      "d": 129.71692708334012,
      "v": 84
    },
    {
      "midi": 62,
      "hit": false,
      "t": 112877.31145833351,
      "d": 23.584895833337214,
      "v": 84
    },
    {
      "midi": 59,
      "hit": false,
      "t": 113195.7075520834,
      "d": 1768.8671875,
      "v": 93
    },
    {
      "midi": 62,
      "hit": false,
      "t": 113195.7075520834,
      "d": 1768.8671875,
      "v": 97
    },
    {
      "midi": 55,
      "hit": false,
      "t": 113195.7075520834,
      "d": 1780.6596354166686,
      "v": 97
    },
    {
      "midi": 43,
      "hit": false,
      "t": 113195.7075520834,
      "d": 2299.5273437500146,
      "v": 77
    },
    {
      "midi": 50,
      "hit": false,
      "t": 113207.50000000017,
      "d": 2004.716145833343,
      "v": 107
    },
    {
      "midi": 47,
      "hit": false,
      "t": 113207.50000000017,
      "d": 2040.0934895833489,
      "v": 93
    },
    {
      "midi": 55,
      "hit": false,
      "t": 113207.50000000017,
      "d": 2075.4708333333547,
      "v": 81
    },
    {
      "midi": 31,
      "hit": false,
      "t": 113207.50000000017,
      "d": 2264.150000000038,
      "v": 102
    },
    {
      "midi": 54,
      "hit": false,
      "t": 115436.2726562502,
      "d": 2169.8104166666744,
      "v": 84
    },
    {
      "midi": 50,
      "hit": false,
      "t": 115436.2726562502,
      "d": 2311.319791666683,
      "v": 107
    },
    {
      "midi": 59,
      "hit": false,
      "t": 115448.06510416674,
      "d": 1816.0369791666744,
      "v": 81
    },
    {
      "midi": 62,
      "hit": false,
      "t": 115448.06510416674,
      "d": 1816.0369791666744,
      "v": 68
    },
    {
      "midi": 35,
      "hit": false,
      "t": 115448.06510416688,
      "d": 2358.489583333343,
      "v": 107
    },
    {
      "midi": 55,
      "hit": false,
      "t": 115459.85755208341,
      "d": 1792.4520833333372,
      "v": 81
    },
    {
      "midi": 40,
      "hit": false,
      "t": 115459.85755208341,
      "d": 1827.829427083343,
      "v": 74
    },
    {
      "midi": 52,
      "hit": false,
      "t": 117724.00755208355,
      "d": 2299.52734375,
      "v": 68
    },
    {
      "midi": 60,
      "hit": false,
      "t": 117735.80000000009,
      "d": 1709.9049479166715,
      "v": 84
    },
    {
      "midi": 55,
      "hit": false,
      "t": 117735.80000000009,
      "d": 1721.6973958333401,
      "v": 81
    },
    {
      "midi": 64,
      "hit": false,
      "t": 117735.80000000009,
      "d": 1721.6973958333401,
      "v": 66
    },
    {
      "midi": 48,
      "hit": false,
      "t": 117735.80000000022,
      "d": 2264.149999999994,
      "v": 68
    },
    {
      "midi": 48,
      "hit": false,
      "t": 117747.59244791676,
      "d": 2275.9424479166773,
      "v": 84
    },
    {
      "midi": 36,
      "hit": false,
      "t": 117747.59244791689,
      "d": 2334.9046874999913,
      "v": 102
    },
    {
      "midi": 55,
      "hit": false,
      "t": 118301.83750000021,
      "d": 283.0187500000029,
      "v": 71
    },
    {
      "midi": 67,
      "hit": false,
      "t": 118301.83750000021,
      "d": 341.9809895833314,
      "v": 84
    },
    {
      "midi": 57,
      "hit": false,
      "t": 118596.64869791688,
      "d": 601.4148437499971,
      "v": 93
    },
    {
      "midi": 69,
      "hit": false,
      "t": 118596.64869791688,
      "d": 601.4148437499971,
      "v": 107
    },
    {
      "midi": 59,
      "hit": false,
      "t": 119162.68619791688,
      "d": 577.8299479166744,
      "v": 88
    },
    {
      "midi": 71,
      "hit": false,
      "t": 119162.68619791688,
      "d": 601.4148437500116,
      "v": 93
    },
    {
      "midi": 57,
      "hit": false,
      "t": 119716.93125000021,
      "d": 2499.9989583333518,
      "v": 81
    },
    {
      "midi": 69,
      "hit": false,
      "t": 119716.93125000021,
      "d": 2523.583854166689,
      "v": 107
    },
    {
      "midi": 66,
      "hit": false,
      "t": 119976.36510416676,
      "d": 1662.7351562500116,
      "v": 71
    },
    {
      "midi": 62,
      "hit": false,
      "t": 119976.36510416676,
      "d": 1674.5276041666802,
      "v": 93
    },
    {
      "midi": 57,
      "hit": false,
      "t": 119976.36510416676,
      "d": 1745.2822916666773,
      "v": 74
    },
    {
      "midi": 50,
      "hit": false,
      "t": 119988.15755208343,
      "d": 2311.319791666683,
      "v": 102
    },
    {
      "midi": 50,
      "hit": false,
      "t": 119988.15755208355,
      "d": 1981.1312500000058,
      "v": 77
    },
    {
      "midi": 54,
      "hit": false,
      "t": 119988.15755208355,
      "d": 2110.848177083346,
      "v": 84
    },
    {
      "midi": 38,
      "hit": false,
      "t": 120011.74244791688,
      "d": 2275.9424479166773,
      "v": 81
    },
    {
      "midi": 47,
      "hit": false,
      "t": 122228.72265625023,
      "d": 2099.055729166663,
      "v": 84
    },
    {
      "midi": 50,
      "hit": false,
      "t": 122228.72265625023,
      "d": 2099.055729166663,
      "v": 107
    },
    {
      "midi": 62,
      "hit": false,
      "t": 122240.51510416677,
      "d": 1709.9049479166715,
      "v": 81
    },
    {
      "midi": 59,
      "hit": false,
      "t": 122240.51510416677,
      "d": 1721.6973958333401,
      "v": 84
    },
    {
      "midi": 55,
      "hit": false,
      "t": 122240.51510416677,
      "d": 1745.2822916666773,
      "v": 88
    },
    {
      "midi": 31,
      "hit": false,
      "t": 122240.5151041669,
      "d": 2311.319791666654,
      "v": 88
    },
    {
      "midi": 43,
      "hit": false,
      "t": 122252.30755208344,
      "d": 2287.734895833346,
      "v": 74
    },
    {
      "midi": 35,
      "hit": false,
      "t": 124492.87265625023,
      "d": 2311.3197916666686,
      "v": 81
    },
    {
      "midi": 62,
      "hit": false,
      "t": 124504.66510416678,
      "d": 1804.2445312500204,
      "v": 71
    },
    {
      "midi": 54,
      "hit": false,
      "t": 124504.6651041669,
      "d": 1933.9614583333314,
      "v": 75
    },
    {
      "midi": 50,
      "hit": false,
      "t": 124504.6651041669,
      "d": 2016.508593749997,
      "v": 102
    },
    {
      "midi": 59,
      "hit": false,
      "t": 124516.45755208345,
      "d": 1768.8671875000146,
      "v": 81
    },
    {
      "midi": 55,
      "hit": false,
      "t": 124516.45755208345,
      "d": 1780.6596354166832,
      "v": 74
    },
    {
      "midi": 40,
      "hit": false,
      "t": 124528.25000000012,
      "d": 1898.5841145833547,
      "v": 61
    },
    {
      "midi": 60,
      "hit": false,
      "t": 126745.23020833347,
      "d": 1509.4333333333343,
      "v": 71
    },
    {
      "midi": 55,
      "hit": false,
      "t": 126757.02265625013,
      "d": 1485.848437499997,
      "v": 81
    },
    {
      "midi": 64,
      "hit": false,
      "t": 126757.02265625013,
      "d": 1509.4333333333343,
      "v": 59
    },
    {
      "midi": 48,
      "hit": false,
      "t": 126768.8151041668,
      "d": 2075.4708333333256,
      "v": 93
    },
    {
      "midi": 36,
      "hit": false,
      "t": 126768.81510416689,
      "d": 2287.7348958333605,
      "v": 84
    },
    {
      "midi": 48,
      "hit": false,
      "t": 126780.60755208356,
      "d": 2110.8481770833605,
      "v": 88
    },
    {
      "midi": 52,
      "hit": false,
      "t": 126780.60755208356,
      "d": 2299.527343750029,
      "v": 107
    },
    {
      "midi": 67,
      "hit": false,
      "t": 127346.64505208356,
      "d": 330.18854166667734,
      "v": 93
    },
    {
      "midi": 55,
      "hit": false,
      "t": 127358.43750000023,
      "d": 271.2263020833343,
      "v": 84
    },
    {
      "midi": 57,
      "hit": false,
      "t": 127641.45625000024,
      "d": 530.66015625,
      "v": 97
    },
    {
      "midi": 69,
      "hit": false,
      "t": 127641.45625000024,
      "d": 589.622395833343,
      "v": 107
    },
    {
      "midi": 59,
      "hit": false,
      "t": 128172.11640625024,
      "d": 672.1695312500233,
      "v": 68
    },
    {
      "midi": 71,
      "hit": false,
      "t": 128195.70130208357,
      "d": 624.9997395833489,
      "v": 93
    },
    {
      "midi": 69,
      "hit": false,
      "t": 128773.53125000025,
      "d": 2488.206510416683,
      "v": 107
    },
    {
      "midi": 57,
      "hit": false,
      "t": 128797.11614583358,
      "d": 2441.0367187500087,
      "v": 74
    },
    {
      "midi": 66,
      "hit": false,
      "t": 129044.75755208347,
      "d": 1603.7729166666686,
      "v": 67
    },
    {
      "midi": 62,
      "hit": false,
      "t": 129044.75755208347,
      "d": 1615.5653645833372,
      "v": 93
    },
    {
      "midi": 54,
      "hit": false,
      "t": 129044.75755208358,
      "d": 2051.8859375000175,
      "v": 80
    },
    {
      "midi": 50,
      "hit": false,
      "t": 129044.75755208358,
      "d": 2063.678385416686,
      "v": 71
    },
    {
      "midi": 38,
      "hit": false,
      "t": 129044.75755208358,
      "d": 2075.4708333333547,
      "v": 93
    },
    {
      "midi": 57,
      "hit": false,
      "t": 129056.55000000013,
      "d": 1650.9427083333285,
      "v": 74
    },
    {
      "midi": 50,
      "hit": false,
      "t": 129068.3424479168,
      "d": 1922.1690104166628,
      "v": 88
    },
    {
      "midi": 60,
      "hit": false,
      "t": 131285.32265625012,
      "d": 1568.395572916692,
      "v": 81
    },
    {
      "midi": 64,
      "hit": false,
      "t": 131285.32265625012,
      "d": 1639.1502604167035,
      "v": 74
    },
    {
      "midi": 55,
      "hit": false,
      "t": 131297.1151041668,
      "d": 1615.5653645833663,
      "v": 81
    },
    {
      "midi": 45,
      "hit": false,
      "t": 131297.1151041668,
      "d": 2028.3010416667094,
      "v": 97
    },
    {
      "midi": 33,
      "hit": false,
      "t": 131308.9075520836,
      "d": 1344.3390625000175,
      "v": 97
    },
    {
      "midi": 60,
      "hit": false,
      "t": 131308.9075520836,
      "d": 1497.6408854167094,
      "v": 102
    },
    {
      "midi": 55,
      "hit": false,
      "t": 131320.70000000027,
      "d": 1474.0559895833721,
      "v": 77
    },
    {
      "midi": 64,
      "hit": false,
      "t": 131320.70000000027,
      "d": 1497.6408854167094,
      "v": 97
    },
    {
      "midi": 33,
      "hit": false,
      "t": 132724.00130208363,
      "d": 731.1317708333372,
      "v": 63
    },
    {
      "midi": 64,
      "hit": false,
      "t": 133018.81250000032,
      "d": 106.13203124998836,
      "v": 88
    },
    {
      "midi": 60,
      "hit": false,
      "t": 133018.81250000032,
      "d": 129.71692708332557,
      "v": 107
    },
    {
      "midi": 55,
      "hit": false,
      "t": 133301.8312500003,
      "d": 94.33958333331975,
      "v": 48
    },
    {
      "midi": 62,
      "hit": false,
      "t": 133549.47265625017,
      "d": 1450.4710937500058,
      "v": 84
    },
    {
      "midi": 66,
      "hit": false,
      "t": 133561.26510416684,
      "d": 1426.8861979166686,
      "v": 67
    },
    {
      "midi": 57,
      "hit": false,
      "t": 133561.26510416684,
      "d": 1497.6408854166802,
      "v": 68
    },
    {
      "midi": 50,
      "hit": false,
      "t": 133573.0575520835,
      "d": 1898.5841145833547,
      "v": 97
    },
    {
      "midi": 62,
      "hit": false,
      "t": 133573.05755208363,
      "d": 2099.055729166663,
      "v": 71
    },
    {
      "midi": 54,
      "hit": false,
      "t": 133584.8500000003,
      "d": 2158.017968750006,
      "v": 63
    },
    {
      "midi": 57,
      "hit": false,
      "t": 133584.8500000003,
      "d": 2169.8104166666744,
      "v": 74
    },
    {
      "midi": 38,
      "hit": false,
      "t": 133584.8500000003,
      "d": 2216.980208333349,
      "v": 97
    },
    {
      "midi": 55,
      "hit": false,
      "t": 135813.6226562502,
      "d": 1698.1125000000175,
      "v": 74
    },
    {
      "midi": 60,
      "hit": false,
      "t": 135813.6226562502,
      "d": 1709.904947916686,
      "v": 74
    },
    {
      "midi": 64,
      "hit": false,
      "t": 135813.6226562502,
      "d": 1721.6973958333547,
      "v": 71
    },
    {
      "midi": 64,
      "hit": false,
      "t": 135813.6226562503,
      "d": 1768.8671875,
      "v": 102
    },
    {
      "midi": 60,
      "hit": false,
      "t": 135813.6226562503,
      "d": 1945.75390625,
      "v": 97
    },
    {
      "midi": 48,
      "hit": false,
      "t": 135825.41510416687,
      "d": 1745.282291666692,
      "v": 93
    },
    {
      "midi": 55,
      "hit": false,
      "t": 135825.41510416698,
      "d": 1886.791666666657,
      "v": 77
    },
    {
      "midi": 36,
      "hit": false,
      "t": 135837.20755208365,
      "d": 2311.3197916666686,
      "v": 93
    },
    {
      "midi": 57,
      "hit": false,
      "t": 138089.5651041669,
      "d": 2264.149999999994,
      "v": 71
    },
    {
      "midi": 66,
      "hit": false,
      "t": 138089.5651041669,
      "d": 2311.3197916666686,
      "v": 60
    },
    {
      "midi": 66,
      "hit": false,
      "t": 138101.35755208365,
      "d": 2264.149999999994,
      "v": 84
    },
    {
      "midi": 38,
      "hit": false,
      "t": 138101.35755208365,
      "d": 2275.942447916663,
      "v": 97
    },
    {
      "midi": 57,
      "hit": false,
      "t": 138101.35755208365,
      "d": 2275.942447916663,
      "v": 63
    },
    {
      "midi": 50,
      "hit": false,
      "t": 138113.15000000023,
      "d": 2287.7348958333314,
      "v": 93
    },
    {
      "midi": 62,
      "hit": false,
      "t": 140365.50755208355,
      "d": 11.792447916668607,
      "v": 107
    },
    {
      "midi": 62,
      "hit": false,
      "t": 140365.50755208364,
      "d": 11.792447916668607,
      "v": 107
    },
    {
      "midi": 59,
      "hit": false,
      "t": 140377.30000000022,
      "d": 1745.2822916666628,
      "v": 107
    },
    {
      "midi": 55,
      "hit": false,
      "t": 140377.30000000022,
      "d": 1768.8671875,
      "v": 102
    },
    {
      "midi": 43,
      "hit": false,
      "t": 140377.30000000022,
      "d": 2264.149999999994,
      "v": 107
    },
    {
      "midi": 59,
      "hit": false,
      "t": 140377.3000000003,
      "d": 436.32057291665114,
      "v": 107
    },
    {
      "midi": 67,
      "hit": false,
      "t": 140377.3000000003,
      "d": 448.11302083331975,
      "v": 107
    },
    {
      "midi": 43,
      "hit": false,
      "t": 140377.3000000003,
      "d": 1733.4898437499942,
      "v": 107
    },
    {
      "midi": 50,
      "hit": false,
      "t": 140955.12994791695,
      "d": 1179.244791666686,
      "v": 68
    },
    {
      "midi": 62,
      "hit": false,
      "t": 141190.9789062503,
      "d": 683.9619791666628,
      "v": 102
    },
    {
      "midi": 67,
      "hit": false,
      "t": 141202.77135416697,
      "d": 660.3770833333256,
      "v": 107
    },
    {
      "midi": 71,
      "hit": false,
      "t": 141202.77135416697,
      "d": 660.3770833333256,
      "v": 102
    },
    {
      "midi": 55,
      "hit": false,
      "t": 141745.22395833363,
      "d": 330.1885416666628,
      "v": 53
    },
    {
      "midi": 71,
      "hit": false,
      "t": 142051.82760416696,
      "d": 200.4716145833372,
      "v": 74
    },
    {
      "midi": 67,
      "hit": false,
      "t": 142051.82760416696,
      "d": 247.64140625001164,
      "v": 107
    },
    {
      "midi": 62,
      "hit": false,
      "t": 142346.63880208365,
      "d": 141.50937499999418,
      "v": 84
    },
    {
      "midi": 67,
      "hit": false,
      "t": 142464.5632812503,
      "d": 94.33958333334886,
      "v": 55
    },
    {
      "midi": 52,
      "hit": false,
      "t": 142594.28020833366,
      "d": 636.7921875000175,
      "v": 97
    },
    {
      "midi": 62,
      "hit": false,
      "t": 142617.86510416688,
      "d": 1780.6596354166686,
      "v": 88
    },
    {
      "midi": 55,
      "hit": false,
      "t": 142617.86510416688,
      "d": 1792.4520833333372,
      "v": 88
    },
    {
      "midi": 62,
      "hit": false,
      "t": 142617.865104167,
      "d": 754.7166666666744,
      "v": 102
    },
    {
      "midi": 71,
      "hit": false,
      "t": 142617.865104167,
      "d": 754.7166666666744,
      "v": 84
    },
    {
      "midi": 67,
      "hit": false,
      "t": 142617.865104167,
      "d": 766.509114583343,
      "v": 107
    },
    {
      "midi": 59,
      "hit": false,
      "t": 142629.65755208355,
      "d": 1780.6596354166686,
      "v": 93
    },
    {
      "midi": 40,
      "hit": false,
      "t": 142629.65755208355,
      "d": 1863.2067708333489,
      "v": 97
    },
    {
      "midi": 52,
      "hit": false,
      "t": 143242.86484375034,
      "d": 742.9242187500058,
      "v": 71
    },
    {
      "midi": 71,
      "hit": false,
      "t": 143466.92135416702,
      "d": 471.69791666665697,
      "v": 102
    },
    {
      "midi": 62,
      "hit": false,
      "t": 143466.92135416702,
      "d": 483.4903645833256,
      "v": 97
    },
    {
      "midi": 67,
      "hit": false,
      "t": 143466.92135416702,
      "d": 495.2828124999942,
      "v": 107
    },
    {
      "midi": 62,
      "hit": false,
      "t": 144068.33619791703,
      "d": 35.37734375000582,
      "v": 32
    },
    {
      "midi": 52,
      "hit": false,
      "t": 144186.26067708372,
      "d": 660.3770833333547,
      "v": 93
    },
    {
      "midi": 62,
      "hit": false,
      "t": 144315.97760416704,
      "d": 188.6791666666686,
      "v": 93
    },
    {
      "midi": 71,
      "hit": false,
      "t": 144315.97760416704,
      "d": 259.43385416668025,
      "v": 88
    },
    {
      "midi": 67,
      "hit": false,
      "t": 144315.97760416704,
      "d": 283.01875000001746,
      "v": 107
    },
    {
      "midi": 62,
      "hit": false,
      "t": 144598.99635416706,
      "d": 176.88671875,
      "v": 66
    },
    {
      "midi": 67,
      "hit": false,
      "t": 144882.01510416708,
      "d": 672.1695312500524,
      "v": 107
    },
    {
      "midi": 60,
      "hit": false,
      "t": 144893.80755208357,
      "d": 1745.2822916666628,
      "v": 93
    },
    {
      "midi": 48,
      "hit": false,
      "t": 144893.80755208374,
      "d": 507.0752604166919,
      "v": 107
    },
    {
      "midi": 60,
      "hit": false,
      "t": 144893.80755208374,
      "d": 648.5846354167152,
      "v": 102
    },
    {
      "midi": 64,
      "hit": false,
      "t": 144893.80755208374,
      "d": 672.1695312500524,
      "v": 107
    },
    {
      "midi": 55,
      "hit": false,
      "t": 144905.60000000024,
      "d": 1745.2822916666628,
      "v": 88
    },
    {
      "midi": 64,
      "hit": false,
      "t": 144905.60000000024,
      "d": 1757.0747395833314,
      "v": 74
    },
    {
      "midi": 48,
      "hit": false,
      "t": 144905.60000000024,
      "d": 2264.149999999994,
      "v": 102
    },
    {
      "midi": 48,
      "hit": false,
      "t": 145471.63750000045,
      "d": 707.5468750000291,
      "v": 107
    },
    {
      "midi": 64,
      "hit": false,
      "t": 145742.8638020838,
      "d": 577.8299479167035,
      "v": 107
    },
    {
      "midi": 72,
      "hit": false,
      "t": 145754.65625000047,
      "d": 471.69791666668607,
      "v": 107
    },
    {
      "midi": 67,
      "hit": false,
      "t": 145754.65625000047,
      "d": 542.4526041666977,
      "v": 107
    },
    {
      "midi": 48,
      "hit": false,
      "t": 146273.52395833383,
      "d": 82.54713541668025,
      "v": 93
    },
    {
      "midi": 48,
      "hit": false,
      "t": 146450.41067708383,
      "d": 672.1695312499942,
      "v": 97
    },
    {
      "midi": 60,
      "hit": false,
      "t": 146580.12760416715,
      "d": 176.88671875,
      "v": 93
    },
    {
      "midi": 64,
      "hit": false,
      "t": 146580.12760416715,
      "d": 247.64140625001164,
      "v": 102
    },
    {
      "midi": 67,
      "hit": false,
      "t": 146580.12760416715,
      "d": 271.22630208334886,
      "v": 107
    },
    {
      "midi": 60,
      "hit": false,
      "t": 146874.93880208384,
      "d": 141.50937499999418,
      "v": 68
    },
    {
      "midi": 66,
      "hit": false,
      "t": 147146.1651041669,
      "d": 1709.904947916657,
      "v": 67
    },
    {
      "midi": 62,
      "hit": false,
      "t": 147146.1651041669,
      "d": 1757.0747395833314,
      "v": 93
    },
    {
      "midi": 57,
      "hit": false,
      "t": 147146.1651041669,
      "d": 1945.75390625,
      "v": 77
    },
    {
      "midi": 50,
      "hit": false,
      "t": 147157.95755208356,
      "d": 2299.52734375,
      "v": 93
    },
    {
      "midi": 62,
      "hit": false,
      "t": 147169.7500000005,
      "d": 672.1695312499942,
      "v": 107
    },
    {
      "midi": 69,
      "hit": false,
      "t": 147169.7500000005,
      "d": 695.7544270833314,
      "v": 107
    },
    {
      "midi": 66,
      "hit": false,
      "t": 147169.7500000005,
      "d": 719.3393229166686,
      "v": 90
    },
    {
      "midi": 50,
      "hit": false,
      "t": 147181.54244791716,
      "d": 483.4903645833256,
      "v": 107
    },
    {
      "midi": 50,
      "hit": false,
      "t": 147747.57994791717,
      "d": 766.5091145833139,
      "v": 97
    },
    {
      "midi": 62,
      "hit": false,
      "t": 148018.8062500005,
      "d": 129.71692708332557,
      "v": 88
    },
    {
      "midi": 66,
      "hit": false,
      "t": 148278.24010416714,
      "d": 707.5468750000291,
      "v": 84
    },
    {
      "midi": 74,
      "hit": false,
      "t": 148290.0325520838,
      "d": 601.4148437500116,
      "v": 102
    },
    {
      "midi": 69,
      "hit": false,
      "t": 148290.0325520838,
      "d": 672.1695312500233,
      "v": 107
    },
    {
      "midi": 50,
      "hit": false,
      "t": 148844.27760416715,
      "d": 70.75468750001164,
      "v": 81
    },
    {
      "midi": 62,
      "hit": false,
      "t": 149139.08880208383,
      "d": 70.75468750001164,
      "v": 48
    },
    {
      "midi": 66,
      "hit": false,
      "t": 149139.08880208383,
      "d": 129.71692708335468,
      "v": 16
    },
    {
      "midi": 52,
      "hit": false,
      "t": 149268.8057291672,
      "d": 94.33958333331975,
      "v": 35
    },
    {
      "midi": 64,
      "hit": false,
      "t": 149422.10755208356,
      "d": 1698.1125000000175,
      "v": 97
    },
    {
      "midi": 64,
      "hit": false,
      "t": 149422.10755208385,
      "d": 707.546875,
      "v": 102
    },
    {
      "midi": 69,
      "hit": false,
      "t": 149422.10755208385,
      "d": 707.546875,
      "v": 107
    },
    {
      "midi": 45,
      "hit": false,
      "t": 149422.10755208385,
      "d": 1662.7351562499825,
      "v": 107
    },
    {
      "midi": 45,
      "hit": false,
      "t": 149433.90000000023,
      "d": 731.1317708333372,
      "v": 84
    },
    {
      "midi": 61,
      "hit": false,
      "t": 149433.90000000023,
      "d": 1674.5276041666802,
      "v": 84
    },
    {
      "midi": 57,
      "hit": false,
      "t": 149433.90000000023,
      "d": 1686.3200520833489,
      "v": 84
    },
    {
      "midi": 73,
      "hit": false,
      "t": 149433.90000000052,
      "d": 683.9619791666628,
      "v": 107
    },
    {
      "midi": 52,
      "hit": false,
      "t": 150023.52239583386,
      "d": 1108.4901041666453,
      "v": 59
    },
    {
      "midi": 64,
      "hit": false,
      "t": 150259.37135416718,
      "d": 141.50937499999418,
      "v": 68
    },
    {
      "midi": 69,
      "hit": false,
      "t": 150530.5976562505,
      "d": 554.2450520833372,
      "v": 107
    },
    {
      "midi": 73,
      "hit": false,
      "t": 150542.39010416716,
      "d": 495.2828124999942,
      "v": 107
    },
    {
      "midi": 57,
      "hit": false,
      "t": 151073.05026041716,
      "d": 47.16979166667443,
      "v": 47
    },
    {
      "midi": 64,
      "hit": false,
      "t": 151120.22005208384,
      "d": 106.13203124998836,
      "v": 68
    },
    {
      "midi": 73,
      "hit": false,
      "t": 151403.23880208383,
      "d": 47.16979166667443,
      "v": 53
    },
    {
      "midi": 69,
      "hit": false,
      "t": 151403.23880208383,
      "d": 176.88671875,
      "v": 81
    },
    {
      "midi": 54,
      "hit": false,
      "t": 151568.33307291716,
      "d": 117.92447916668607,
      "v": 41
    },
    {
      "midi": 64,
      "hit": false,
      "t": 151580.12552083383,
      "d": 731.1317708333663,
      "v": 42
    },
    {
      "midi": 42,
      "hit": false,
      "t": 151639.08776041717,
      "d": 1816.0369791667617,
      "v": 84
    },
    {
      "midi": 69,
      "hit": false,
      "t": 151662.6726562505,
      "d": 624.9997395833489,
      "v": 107
    },
    {
      "midi": 73,
      "hit": false,
      "t": 151674.46510416718,
      "d": 624.9997395833489,
      "v": 107
    },
    {
      "midi": 64,
      "hit": false,
      "t": 151686.25755208358,
      "d": 1745.282291666692,
      "v": 102
    },
    {
      "midi": 57,
      "hit": false,
      "t": 151686.25755208358,
      "d": 1886.791666666686,
      "v": 71
    },
    {
      "midi": 61,
      "hit": false,
      "t": 151686.25755208358,
      "d": 1969.3388020833663,
      "v": 80
    },
    {
      "midi": 42,
      "hit": false,
      "t": 151698.05000000025,
      "d": 2240.565104166686,
      "v": 90
    },
    {
      "midi": 54,
      "hit": false,
      "t": 152228.7101562505,
      "d": 672.1695312500233,
      "v": 75
    },
    {
      "midi": 73,
      "hit": false,
      "t": 152499.93645833386,
      "d": 660.3770833333547,
      "v": 107
    },
    {
      "midi": 69,
      "hit": false,
      "t": 152499.93645833386,
      "d": 731.1317708333663,
      "v": 107
    },
    {
      "midi": 64,
      "hit": false,
      "t": 152511.72890625053,
      "d": 695.7544270833605,
      "v": 102
    },
    {
      "midi": 54,
      "hit": false,
      "t": 153124.9361979172,
      "d": 106.13203125001746,
      "v": 35
    },
    {
      "midi": 54,
      "hit": false,
      "t": 153278.2380208339,
      "d": 94.33958333334886,
      "v": 15
    },
    {
      "midi": 64,
      "hit": false,
      "t": 153360.78515625058,
      "d": 235.84895833334303,
      "v": 81
    },
    {
      "midi": 73,
      "hit": false,
      "t": 153360.78515625058,
      "d": 306.6036458333547,
      "v": 80
    },
    {
      "midi": 69,
      "hit": false,
      "t": 153360.78515625058,
      "d": 318.3960937500233,
      "v": 97
    },
    {
      "midi": 64,
      "hit": false,
      "t": 153690.97369791727,
      "d": 176.88671875,
      "v": 59
    },
    {
      "midi": 62,
      "hit": false,
      "t": 153926.82265625027,
      "d": 1674.5276041666802,
      "v": 84
    },
    {
      "midi": 66,
      "hit": false,
      "t": 153926.82265625027,
      "d": 1698.1125000000175,
      "v": 71
    },
    {
      "midi": 57,
      "hit": false,
      "t": 153926.82265625027,
      "d": 1768.867187500029,
      "v": 81
    },
    {
      "midi": 50,
      "hit": false,
      "t": 153938.61510416694,
      "d": 2323.1122395833663,
      "v": 77
    },
    {
      "midi": 38,
      "hit": false,
      "t": 153950.40755208395,
      "d": 554.2450520833372,
      "v": 88
    },
    {
      "midi": 66,
      "hit": false,
      "t": 153950.40755208395,
      "d": 695.7544270833605,
      "v": 75
    },
    {
      "midi": 69,
      "hit": false,
      "t": 153950.40755208395,
      "d": 707.5468750000291,
      "v": 107
    },
    {
      "midi": 50,
      "hit": false,
      "t": 153962.20000000062,
      "d": 613.2072916666802,
      "v": 66
    },
    {
      "midi": 74,
      "hit": false,
      "t": 153962.20000000062,
      "d": 660.3770833333547,
      "v": 93
    },
    {
      "midi": 38,
      "hit": false,
      "t": 154551.82239583397,
      "d": 1391.508854166692,
      "v": 81
    },
    {
      "midi": 66,
      "hit": false,
      "t": 154799.46380208398,
      "d": 400.9432291666453,
      "v": 84
    },
    {
      "midi": 74,
      "hit": false,
      "t": 154799.46380208398,
      "d": 400.9432291666453,
      "v": 102
    },
    {
      "midi": 69,
      "hit": false,
      "t": 154799.46380208398,
      "d": 412.73567708331393,
      "v": 107
    },
    {
      "midi": 66,
      "hit": false,
      "t": 155330.12395833395,
      "d": 58.962239583343035,
      "v": 41
    },
    {
      "midi": 69,
      "hit": false,
      "t": 155341.91640625062,
      "d": 35.37734375000582,
      "v": 41
    },
    {
      "midi": 50,
      "hit": false,
      "t": 155448.04843750063,
      "d": 188.6791666666686,
      "v": 77
    },
    {
      "midi": 74,
      "hit": false,
      "t": 155613.14270833397,
      "d": 235.84895833334303,
      "v": 81
    },
    {
      "midi": 69,
      "hit": false,
      "t": 155624.93515625063,
      "d": 271.22630208334886,
      "v": 102
    },
    {
      "midi": 66,
      "hit": false,
      "t": 155624.93515625063,
      "d": 283.01875000001746,
      "v": 67
    },
    {
      "midi": 50,
      "hit": false,
      "t": 155931.538802084,
      "d": 259.43385416668025,
      "v": 84
    },
    {
      "midi": 64,
      "hit": false,
      "t": 155955.12369791733,
      "d": 82.54713541668025,
      "v": 44
    },
    {
      "midi": 68,
      "hit": false,
      "t": 156190.97265625067,
      "d": 424.52812499998254,
      "v": 80
    },
    {
      "midi": 71,
      "hit": false,
      "t": 156190.97265625067,
      "d": 448.11302083331975,
      "v": 97
    },
    {
      "midi": 64,
      "hit": false,
      "t": 156202.76510416696,
      "d": 1792.4520833333372,
      "v": 93
    },
    {
      "midi": 68,
      "hit": false,
      "t": 156202.76510416696,
      "d": 1792.4520833333372,
      "v": 80
    },
    {
      "midi": 59,
      "hit": false,
      "t": 156202.76510416696,
      "d": 1839.6218750000116,
      "v": 81
    },
    {
      "midi": 40,
      "hit": false,
      "t": 156202.76510416734,
      "d": 2087.2632812500524,
      "v": 102
    },
    {
      "midi": 52,
      "hit": false,
      "t": 156214.55755208363,
      "d": 2264.1500000000233,
      "v": 102
    },
    {
      "midi": 52,
      "hit": false,
      "t": 156521.16119791733,
      "d": 353.7734375,
      "v": 63
    },
    {
      "midi": 68,
      "hit": false,
      "t": 156804.17994791732,
      "d": 23.584895833337214,
      "v": 41
    },
    {
      "midi": 71,
      "hit": false,
      "t": 156804.17994791732,
      "d": 35.37734375000582,
      "v": 55
    },
    {
      "midi": 68,
      "hit": false,
      "t": 157051.82135416733,
      "d": 58.962239583343035,
      "v": 71
    },
    {
      "midi": 71,
      "hit": false,
      "t": 157063.613802084,
      "d": 70.75468750001164,
      "v": 81
    },
    {
      "midi": 71,
      "hit": false,
      "t": 157346.63255208402,
      "d": 70.75468750001164,
      "v": 93
    },
    {
      "midi": 68,
      "hit": false,
      "t": 157358.4250000007,
      "d": 47.16979166667443,
      "v": 84
    },
    {
      "midi": 68,
      "hit": false,
      "t": 157617.85885416737,
      "d": 70.75468750001164,
      "v": 90
    },
    {
      "midi": 71,
      "hit": false,
      "t": 157629.65130208404,
      "d": 70.75468750001164,
      "v": 107
    },
    {
      "midi": 68,
      "hit": false,
      "t": 157900.87760416738,
      "d": 70.75468750001164,
      "v": 90
    },
    {
      "midi": 71,
      "hit": false,
      "t": 157900.87760416738,
      "d": 82.54713541668025,
      "v": 107
    },
    {
      "midi": 68,
      "hit": false,
      "t": 158195.68880208407,
      "d": 129.71692708332557,
      "v": 107
    },
    {
      "midi": 71,
      "hit": false,
      "t": 158195.68880208407,
      "d": 165.0942708333314,
      "v": 107
    },
    {
      "midi": 61,
      "hit": false,
      "t": 158466.91510416698,
      "d": 1839.6218750000116,
      "v": 84
    },
    {
      "midi": 45,
      "hit": false,
      "t": 158466.91510416698,
      "d": 2299.527343750029,
      "v": 77
    },
    {
      "midi": 64,
      "hit": false,
      "t": 158466.9151041674,
      "d": 365.5658854166686,
      "v": 102
    },
    {
      "midi": 69,
      "hit": false,
      "t": 158466.9151041674,
      "d": 389.1507812500058,
      "v": 107
    },
    {
      "midi": 73,
      "hit": false,
      "t": 158466.9151041674,
      "d": 424.52812500001164,
      "v": 90
    },
    {
      "midi": 64,
      "hit": false,
      "t": 158478.70755208365,
      "d": 1816.0369791666744,
      "v": 97
    },
    {
      "midi": 57,
      "hit": false,
      "t": 158478.70755208365,
      "d": 1851.4143229166802,
      "v": 84
    },
    {
      "midi": 45,
      "hit": false,
      "t": 158478.70755208406,
      "d": 330.1885416666628,
      "v": 84
    },
    {
      "midi": 57,
      "hit": false,
      "t": 158478.70755208406,
      "d": 400.9432291666744,
      "v": 93
    },
    {
      "midi": 69,
      "hit": false,
      "t": 159032.9526041674,
      "d": 341.9809895833605,
      "v": 97
    },
    {
      "midi": 57,
      "hit": false,
      "t": 159044.74505208406,
      "d": 330.1885416666919,
      "v": 97
    },
    {
      "midi": 71,
      "hit": false,
      "t": 159327.76380208408,
      "d": 624.9997395833489,
      "v": 107
    },
    {
      "midi": 59,
      "hit": false,
      "t": 159339.55625000075,
      "d": 542.4526041666686,
      "v": 102
    },
    {
      "midi": 73,
      "hit": false,
      "t": 159905.59375000076,
      "d": 554.2450520833372,
      "v": 107
    },
    {
      "midi": 61,
      "hit": false,
      "t": 159917.38619791743,
      "d": 542.4526041666686,
      "v": 107
    },
    {
      "midi": 64,
      "hit": false,
      "t": 160459.8388020841,
      "d": 2382.0744791666802,
      "v": 107
    },
    {
      "midi": 76,
      "hit": false,
      "t": 160471.63125000076,
      "d": 2429.2442708333547,
      "v": 107
    },
    {
      "midi": 61,
      "hit": false,
      "t": 160719.27265625034,
      "d": 1816.0369791666744,
      "v": 84
    },
    {
      "midi": 57,
      "hit": false,
      "t": 160719.27265625034,
      "d": 1827.829427083343,
      "v": 88
    },
    {
      "midi": 52,
      "hit": false,
      "t": 160731.065104167,
      "d": 1780.6596354166686,
      "v": 71
    },
    {
      "midi": 42,
      "hit": false,
      "t": 160731.065104167,
      "d": 2275.942447916663,
      "v": 84
    },
    {
      "midi": 57,
      "hit": false,
      "t": 163007.00755208367,
      "d": 1497.6408854166802,
      "v": 84
    },
    {
      "midi": 62,
      "hit": false,
      "t": 163018.80000000034,
      "d": 1367.9239583333547,
      "v": 84
    },
    {
      "midi": 54,
      "hit": false,
      "t": 163018.80000000034,
      "d": 1462.2635416666744,
      "v": 67
    },
    {
      "midi": 50,
      "hit": false,
      "t": 163030.592447917,
      "d": 2275.942447916692,
      "v": 81
    },
    {
      "midi": 57,
      "hit": false,
      "t": 163561.25260416744,
      "d": 294.81119791665697,
      "v": 102
    },
    {
      "midi": 69,
      "hit": false,
      "t": 163573.0450520841,
      "d": 341.9809895833314,
      "v": 102
    },
    {
      "midi": 71,
      "hit": false,
      "t": 163867.85625000077,
      "d": 601.4148437500116,
      "v": 107
    },
    {
      "midi": 59,
      "hit": false,
      "t": 163879.64869791744,
      "d": 542.4526041666686,
      "v": 102
    },
    {
      "midi": 73,
      "hit": false,
      "t": 164445.68619791744,
      "d": 542.4526041666686,
      "v": 107
    },
    {
      "midi": 61,
      "hit": false,
      "t": 164445.68619791744,
      "d": 577.8299479166744,
      "v": 90
    },
    {
      "midi": 71,
      "hit": false,
      "t": 164988.1388020841,
      "d": 1403.3013020833314,
      "v": 93
    },
    {
      "midi": 59,
      "hit": false,
      "t": 164999.93125000078,
      "d": 1379.7164062499942,
      "v": 84
    },
    {
      "midi": 56,
      "hit": false,
      "t": 165247.57265625036,
      "d": 1733.4898437500233,
      "v": 71
    },
    {
      "midi": 52,
      "hit": false,
      "t": 165247.57265625036,
      "d": 1922.169010416692,
      "v": 71
    },
    {
      "midi": 64,
      "hit": false,
      "t": 165259.36510416702,
      "d": 1639.1502604166744,
      "v": 84
    },
    {
      "midi": 59,
      "hit": false,
      "t": 165259.36510416702,
      "d": 1662.7351562500116,
      "v": 93
    },
    {
      "midi": 71,
      "hit": false,
      "t": 166580.1192708341,
      "d": 117.92447916665697,
      "v": 88
    },
    {
      "midi": 76,
      "hit": false,
      "t": 166757.0059895841,
      "d": 106.13203124998836,
      "v": 97
    },
    {
      "midi": 78,
      "hit": false,
      "t": 166933.8927083341,
      "d": 141.50937499999418,
      "v": 84
    },
    {
      "midi": 76,
      "hit": false,
      "t": 167110.7794270841,
      "d": 165.0942708333605,
      "v": 107
    },
    {
      "midi": 78,
      "hit": false,
      "t": 167134.36432291745,
      "d": 58.962239583343035,
      "v": 43
    },
    {
      "midi": 78,
      "hit": false,
      "t": 167311.25104166748,
      "d": 47.16979166667443,
      "v": 56
    },
    {
      "midi": 80,
      "hit": false,
      "t": 167311.25104166748,
      "d": 141.50937499999418,
      "v": 107
    },
    {
      "midi": 81,
      "hit": false,
      "t": 167488.13776041748,
      "d": 1686.3200520833198,
      "v": 107
    },
    {
      "midi": 61,
      "hit": false,
      "t": 167511.72265625038,
      "d": 1709.904947916657,
      "v": 84
    },
    {
      "midi": 64,
      "hit": false,
      "t": 167523.51510416705,
      "d": 1698.1124999999884,
      "v": 88
    },
    {
      "midi": 57,
      "hit": false,
      "t": 167523.51510416705,
      "d": 1733.4898437499942,
      "v": 74
    },
    {
      "midi": 45,
      "hit": false,
      "t": 167523.51510416705,
      "d": 2323.112239583337,
      "v": 93
    },
    {
      "midi": 61,
      "hit": false,
      "t": 169775.87265625037,
      "d": 1922.169010416692,
      "v": 71
    },
    {
      "midi": 57,
      "hit": false,
      "t": 169775.87265625037,
      "d": 2028.3010416666802,
      "v": 88
    },
    {
      "midi": 52,
      "hit": false,
      "t": 169787.66510416704,
      "d": 35.37734375000582,
      "v": 77
    },
    {
      "midi": 42,
      "hit": false,
      "t": 169787.66510416704,
      "d": 2264.1500000000233,
      "v": 84
    },
    {
      "midi": 80,
      "hit": false,
      "t": 170353.70260416745,
      "d": 318.3960937499942,
      "v": 90
    },
    {
      "midi": 71,
      "hit": false,
      "t": 170365.49505208412,
      "d": 283.01874999998836,
      "v": 102
    },
    {
      "midi": 81,
      "hit": false,
      "t": 170636.72135416744,
      "d": 554.2450520833372,
      "v": 102
    },
    {
      "midi": 73,
      "hit": false,
      "t": 170660.30625000078,
      "d": 507.0752604166628,
      "v": 90
    },
    {
      "midi": 71,
      "hit": false,
      "t": 171202.75885416745,
      "d": 613.2072916666802,
      "v": 88
    },
    {
      "midi": 80,
      "hit": false,
      "t": 171202.75885416745,
      "d": 624.9997395833489,
      "v": 90
    },
    {
      "midi": 78,
      "hit": false,
      "t": 171768.79635416745,
      "d": 1438.6786458333663,
      "v": 90
    },
    {
      "midi": 69,
      "hit": false,
      "t": 171780.58880208412,
      "d": 1356.131510416686,
      "v": 84
    },
    {
      "midi": 57,
      "hit": false,
      "t": 172051.81510416706,
      "d": 1426.8861979166977,
      "v": 88
    },
    {
      "midi": 62,
      "hit": false,
      "t": 172063.60755208373,
      "d": 1367.9239583333547,
      "v": 68
    },
    {
      "midi": 54,
      "hit": false,
      "t": 172063.60755208373,
      "d": 1403.3013020833605,
      "v": 80
    },
    {
      "midi": 50,
      "hit": false,
      "t": 172063.60755208373,
      "d": 2264.1500000000233,
      "v": 84
    },
    {
      "midi": 64,
      "hit": false,
      "t": 174280.58776041708,
      "d": 1686.3200520833489,
      "v": 71
    },
    {
      "midi": 59,
      "hit": false,
      "t": 174280.58776041708,
      "d": 1768.867187500029,
      "v": 84
    },
    {
      "midi": 56,
      "hit": false,
      "t": 174280.58776041708,
      "d": 1792.4520833333663,
      "v": 75
    },
    {
      "midi": 52,
      "hit": false,
      "t": 174292.38020833375,
      "d": 1933.9614583333605,
      "v": 71
    },
    {
      "midi": 78,
      "hit": false,
      "t": 174315.9651041675,
      "d": 47.16979166667443,
      "v": 63
    },
    {
      "midi": 76,
      "hit": false,
      "t": 174339.55000000083,
      "d": 495.2828125000233,
      "v": 97
    },
    {
      "midi": 52,
      "hit": false,
      "t": 174775.8705729175,
      "d": 1261.7919270833954,
      "v": 51
    },
    {
      "midi": 64,
      "hit": false,
      "t": 174882.00260416753,
      "d": 353.7734375000291,
      "v": 57
    },
    {
      "midi": 71,
      "hit": false,
      "t": 174929.1723958342,
      "d": 212.26406250000582,
      "v": 59
    },
    {
      "midi": 80,
      "hit": false,
      "t": 175176.81380208422,
      "d": 495.2828125000233,
      "v": 107
    },
    {
      "midi": 64,
      "hit": false,
      "t": 175483.41744791757,
      "d": 271.22630208334886,
      "v": 51
    },
    {
      "midi": 76,
      "hit": false,
      "t": 175742.85130208425,
      "d": 117.92447916665697,
      "v": 84
    },
    {
      "midi": 71,
      "hit": false,
      "t": 176037.6625000009,
      "d": 94.33958333331975,
      "v": 77
    },
    {
      "midi": 78,
      "hit": false,
      "t": 176580.11510416755,
      "d": 695.7544270833605,
      "v": 80
    },
    {
      "midi": 57,
      "hit": false,
      "t": 176591.90755208378,
      "d": 1627.357812500035,
      "v": 97
    },
    {
      "midi": 59,
      "hit": false,
      "t": 176591.90755208422,
      "d": 566.0375000000058,
      "v": 93
    },
    {
      "midi": 74,
      "hit": false,
      "t": 176591.90755208422,
      "d": 742.9242187500349,
      "v": 97
    },
    {
      "midi": 69,
      "hit": false,
      "t": 176591.90755208422,
      "d": 766.5091145833721,
      "v": 88
    },
    {
      "midi": 62,
      "hit": false,
      "t": 176603.70000000045,
      "d": 1533.018229166686,
      "v": 102
    },
    {
      "midi": 54,
      "hit": false,
      "t": 176603.70000000045,
      "d": 1650.9427083333721,
      "v": 84
    },
    {
      "midi": 47,
      "hit": false,
      "t": 176603.70000000045,
      "d": 2299.527343750058,
      "v": 107
    },
    {
      "midi": 59,
      "hit": false,
      "t": 177193.32239583423,
      "d": 707.546875,
      "v": 74
    },
    {
      "midi": 78,
      "hit": false,
      "t": 177452.7562500009,
      "d": 129.71692708332557,
      "v": 80
    },
    {
      "midi": 74,
      "hit": false,
      "t": 177464.54869791758,
      "d": 94.33958333331975,
      "v": 97
    },
    {
      "midi": 69,
      "hit": false,
      "t": 177464.54869791758,
      "d": 141.50937499999418,
      "v": 74
    },
    {
      "midi": 59,
      "hit": false,
      "t": 178007.00130208422,
      "d": 542.4526041666686,
      "v": 59
    },
    {
      "midi": 66,
      "hit": false,
      "t": 178313.60494791754,
      "d": 58.962239583343035,
      "v": 60
    },
    {
      "midi": 74,
      "hit": false,
      "t": 178313.60494791754,
      "d": 153.3018229166628,
      "v": 81
    },
    {
      "midi": 69,
      "hit": false,
      "t": 178313.60494791754,
      "d": 212.26406250000582,
      "v": 93
    },
    {
      "midi": 66,
      "hit": false,
      "t": 178584.8312500009,
      "d": 106.13203124998836,
      "v": 30
    },
    {
      "midi": 59,
      "hit": false,
      "t": 178844.26510416716,
      "d": 1768.867187500029,
      "v": 93
    },
    {
      "midi": 56,
      "hit": false,
      "t": 178844.26510416716,
      "d": 1792.4520833333663,
      "v": 75
    },
    {
      "midi": 68,
      "hit": false,
      "t": 178844.26510416754,
      "d": 707.5468750000291,
      "v": 60
    },
    {
      "midi": 64,
      "hit": false,
      "t": 178856.05755208383,
      "d": 1686.3200520833489,
      "v": 74
    },
    {
      "midi": 52,
      "hit": false,
      "t": 178856.05755208383,
      "d": 2346.6971354167035,
      "v": 63
    },
    {
      "midi": 71,
      "hit": false,
      "t": 178856.0575520842,
      "d": 530.66015625,
      "v": 81
    },
    {
      "midi": 52,
      "hit": false,
      "t": 178879.64244791755,
      "d": 672.1695312500233,
      "v": 71
    },
    {
      "midi": 59,
      "hit": false,
      "t": 179445.67994791755,
      "d": 70.75468750001164,
      "v": 68
    },
    {
      "midi": 64,
      "hit": false,
      "t": 179705.11380208423,
      "d": 106.13203125001746,
      "v": 71
    },
    {
      "midi": 68,
      "hit": false,
      "t": 179775.86848958425,
      "d": 165.0942708333605,
      "v": 37
    },
    {
      "midi": 71,
      "hit": false,
      "t": 179882.00052083426,
      "d": 129.71692708335468,
      "v": 84
    },
    {
      "midi": 76,
      "hit": false,
      "t": 179988.13255208428,
      "d": 283.01875000001746,
      "v": 102
    },
    {
      "midi": 71,
      "hit": false,
      "t": 180247.56640625096,
      "d": 176.88671875,
      "v": 102
    },
    {
      "midi": 68,
      "hit": false,
      "t": 180542.37760416762,
      "d": 58.962239583343035,
      "v": 90
    },
    {
      "midi": 74,
      "hit": false,
      "t": 181096.62265625095,
      "d": 1780.6596354166686,
      "v": 97
    },
    {
      "midi": 78,
      "hit": false,
      "t": 181108.41510416762,
      "d": 1757.0747395833314,
      "v": 75
    },
    {
      "midi": 69,
      "hit": false,
      "t": 181108.41510416762,
      "d": 1780.6596354166686,
      "v": 88
    },
    {
      "midi": 62,
      "hit": false,
      "t": 181120.20755208386,
      "d": 1474.055989583343,
      "v": 81
    },
    {
      "midi": 54,
      "hit": false,
      "t": 181120.20755208386,
      "d": 1568.3955729166628,
      "v": 56
    },
    {
      "midi": 57,
      "hit": false,
      "t": 181120.20755208386,
      "d": 1568.3955729166628,
      "v": 84
    },
    {
      "midi": 50,
      "hit": false,
      "t": 181132.00000000052,
      "d": 1874.9992187499884,
      "v": 93
    },
    {
      "midi": 38,
      "hit": false,
      "t": 182252.28255208387,
      "d": 978.7731770833198,
      "v": 88
    },
    {
      "midi": 68,
      "hit": false,
      "t": 183372.56510416762,
      "d": 2252.3575520833547,
      "v": 84
    },
    {
      "midi": 64,
      "hit": false,
      "t": 183384.35755208385,
      "d": 1627.3578125000058,
      "v": 77
    },
    {
      "midi": 59,
      "hit": false,
      "t": 183384.35755208385,
      "d": 1698.1125000000175,
      "v": 84
    },
    {
      "midi": 56,
      "hit": false,
      "t": 183384.35755208385,
      "d": 1780.6596354166977,
      "v": 71
    },
    {
      "midi": 52,
      "hit": false,
      "t": 183384.3575520843,
      "d": 2205.1877604166802,
      "v": 71
    },
    {
      "midi": 59,
      "hit": false,
      "t": 183384.3575520843,
      "d": 2216.980208333349,
      "v": 81
    },
    {
      "midi": 64,
      "hit": false,
      "t": 183384.3575520843,
      "d": 2228.7726562500175,
      "v": 97
    },
    {
      "midi": 40,
      "hit": false,
      "t": 183396.15000000095,
      "d": 2216.980208333349,
      "v": 74
    },
    {
      "midi": 40,
      "hit": false,
      "t": 183407.9424479172,
      "d": 1898.5841145833547,
      "v": 88
    },
    {
      "midi": 73,
      "hit": false,
      "t": 185471.6208333343,
      "d": 2299.527343750029,
      "v": 63
    },
    {
      "midi": 61,
      "hit": false,
      "t": 185648.50755208387,
      "d": 1768.8671875,
      "v": 63
    },
    {
      "midi": 57,
      "hit": false,
      "t": 185648.50755208387,
      "d": 1792.4520833333372,
      "v": 74
    },
    {
      "midi": 45,
      "hit": false,
      "t": 185648.50755208387,
      "d": 2299.527343750029,
      "v": 71
    },
    {
      "midi": 81,
      "hit": false,
      "t": 185648.5075520843,
      "d": 2134.4330729166977,
      "v": 66
    },
    {
      "midi": 52,
      "hit": false,
      "t": 185660.30000000054,
      "d": 1804.2445312500058,
      "v": 63
    },
    {
      "midi": 45,
      "hit": false,
      "t": 185660.30000000098,
      "d": 1533.018229166686,
      "v": 77
    },
    {
      "midi": 76,
      "hit": false,
      "t": 185660.30000000098,
      "d": 1639.1502604166744,
      "v": 47
    },
    {
      "midi": 69,
      "hit": false,
      "t": 185660.30000000098,
      "d": 1698.1125000000175,
      "v": 66
    },
    {
      "midi": 52,
      "hit": false,
      "t": 185919.73385416766,
      "d": 1238.20703125,
      "v": 66
    },
    {
      "midi": 61,
      "hit": false,
      "t": 186226.33750000098,
      "d": 860.8486979166628,
      "v": 51
    },
    {
      "midi": 42,
      "hit": false,
      "t": 187889.072656251,
      "d": 1757.0747395833314,
      "v": 77
    },
    {
      "midi": 42,
      "hit": false,
      "t": 187900.86510416723,
      "d": 1933.9614583333605,
      "v": 45
    },
    {
      "midi": 61,
      "hit": false,
      "t": 187912.6575520839,
      "d": 1733.4898437500233,
      "v": 39
    },
    {
      "midi": 52,
      "hit": false,
      "t": 187912.6575520839,
      "d": 1768.867187500029,
      "v": 53
    },
    {
      "midi": 57,
      "hit": false,
      "t": 187912.6575520839,
      "d": 1780.6596354166977,
      "v": 53
    },
    {
      "midi": 49,
      "hit": false,
      "t": 188195.67630208432,
      "d": 1462.2635416666744,
      "v": 102
    },
    {
      "midi": 56,
      "hit": false,
      "t": 188478.6950520843,
      "d": 589.622395833343,
      "v": 84
    },
    {
      "midi": 57,
      "hit": false,
      "t": 188726.33645833432,
      "d": 377.3583333333372,
      "v": 74
    },
    {
      "midi": 64,
      "hit": false,
      "t": 189021.14765625098,
      "d": 106.13203125001746,
      "v": 93
    },
    {
      "midi": 64,
      "hit": false,
      "t": 189610.77005208432,
      "d": 577.8299479166744,
      "v": 57
    },
    {
      "midi": 73,
      "hit": false,
      "t": 189610.77005208432,
      "d": 589.622395833343,
      "v": 55
    },
    {
      "midi": 69,
      "hit": false,
      "t": 189622.562500001,
      "d": 554.2450520833372,
      "v": 68
    },
    {
      "midi": 62,
      "hit": false,
      "t": 190153.222656251,
      "d": 2299.527343750029,
      "v": 77
    },
    {
      "midi": 38,
      "hit": false,
      "t": 190165.01510416766,
      "d": 2228.7726562500175,
      "v": 71
    },
    {
      "midi": 45,
      "hit": false,
      "t": 190165.01510416766,
      "d": 2252.3575520833547,
      "v": 84
    },
    {
      "midi": 57,
      "hit": false,
      "t": 190165.01510416766,
      "d": 2252.3575520833547,
      "v": 84
    },
    {
      "midi": 57,
      "hit": false,
      "t": 190176.80755208392,
      "d": 1662.7351562500116,
      "v": 77
    },
    {
      "midi": 54,
      "hit": false,
      "t": 190176.80755208392,
      "d": 1674.5276041666802,
      "v": 63
    },
    {
      "midi": 54,
      "hit": false,
      "t": 190176.80755208433,
      "d": 2240.565104166686,
      "v": 61
    },
    {
      "midi": 62,
      "hit": false,
      "t": 190188.6000000006,
      "d": 1615.5653645833372,
      "v": 68
    },
    {
      "midi": 38,
      "hit": false,
      "t": 190188.6000000006,
      "d": 2264.1500000000233,
      "v": 61
    },
    {
      "midi": 56,
      "hit": false,
      "t": 192417.3726562506,
      "d": 1627.3578125000058,
      "v": 67
    },
    {
      "midi": 59,
      "hit": false,
      "t": 192417.3726562506,
      "d": 1627.3578125000058,
      "v": 74
    },
    {
      "midi": 40,
      "hit": false,
      "t": 192417.3726562506,
      "d": 1745.2822916666628,
      "v": 68
    },
    {
      "midi": 64,
      "hit": false,
      "t": 192429.16510416727,
      "d": 1639.1502604166744,
      "v": 63
    },
    {
      "midi": 56,
      "hit": false,
      "t": 192440.95755208435,
      "d": 283.01875000001746,
      "v": 84
    },
    {
      "midi": 64,
      "hit": false,
      "t": 192440.95755208435,
      "d": 294.81119791668607,
      "v": 93
    },
    {
      "midi": 40,
      "hit": false,
      "t": 192464.5424479177,
      "d": 2228.7726562500757,
      "v": 81
    },
    {
      "midi": 57,
      "hit": false,
      "t": 192712.1838541677,
      "d": 271.22630208334886,
      "v": 93
    },
    {
      "midi": 66,
      "hit": false,
      "t": 192712.1838541677,
      "d": 306.6036458333547,
      "v": 97
    },
    {
      "midi": 68,
      "hit": false,
      "t": 192995.20260416772,
      "d": 306.6036458333547,
      "v": 75
    },
    {
      "midi": 59,
      "hit": false,
      "t": 193006.99505208438,
      "d": 330.1885416666919,
      "v": 93
    },
    {
      "midi": 66,
      "hit": false,
      "t": 193278.22135416773,
      "d": 283.01875000001746,
      "v": 102
    },
    {
      "midi": 57,
      "hit": false,
      "t": 193301.80625000107,
      "d": 235.84895833334303,
      "v": 93
    },
    {
      "midi": 64,
      "hit": false,
      "t": 193561.24010416775,
      "d": 589.622395833343,
      "v": 93
    },
    {
      "midi": 56,
      "hit": false,
      "t": 193561.24010416775,
      "d": 613.2072916666802,
      "v": 67
    },
    {
      "midi": 62,
      "hit": false,
      "t": 194127.27760416776,
      "d": 636.7921875000175,
      "v": 84
    },
    {
      "midi": 54,
      "hit": false,
      "t": 194139.07005208443,
      "d": 613.2072916666802,
      "v": 51
    },
    {
      "midi": 45,
      "hit": false,
      "t": 194634.35286458393,
      "d": 4669.809375000012,
      "v": 74
    },
    {
      "midi": 57,
      "hit": false,
      "t": 194669.73020833393,
      "d": 4610.847135416669,
      "v": 77
    },
    {
      "midi": 61,
      "hit": false,
      "t": 194681.5226562506,
      "d": 4610.847135416669,
      "v": 80
    },
    {
      "midi": 45,
      "hit": false,
      "t": 194681.5226562511,
      "d": 2287.7348958333605,
      "v": 93
    },
    {
      "midi": 64,
      "hit": false,
      "t": 194716.9000000006,
      "d": 4575.469791666663,
      "v": 88
    },
    {
      "midi": 52,
      "hit": false,
      "t": 194740.48489583444,
      "d": 2146.225520833337,
      "v": 71
    },
    {
      "midi": 61,
      "hit": false,
      "t": 194740.48489583444,
      "d": 2205.1877604166802,
      "v": 77
    },
    {
      "midi": 69,
      "hit": false,
      "t": 194752.2773437506,
      "d": 4516.50755208332,
      "v": 43
    }
  ]
}