{
  "jsonPath": "Soul/Funk/Patti LaBelle/if-you-asked-me-to.json",
  "path": "Soul\\Funk\\Patti LaBelle\\If You Asked Me To.mid",
  "name": "If You Asked Me To",
  "difficulty": "Advanced",
  "bpm": 85.00004250002125,
  "notes": [
    {
      "midi": 65,
      "hit": false,
      "t": 18352.932,
      "d": 1397.0581249999996,
      "v": 127
    },
    {
      "midi": 46,
      "hit": false,
      "t": 18352.932,
      "d": 1485.293375000001,
      "v": 127
    },
    {
      "midi": 58,
      "hit": false,
      "t": 18352.932,
      "d": 1522.0580625000002,
      "v": 127
    },
    {
      "midi": 67,
      "hit": false,
      "t": 21176.46,
      "d": 1808.822624999997,
      "v": 127
    },
    {
      "midi": 60,
      "hit": false,
      "t": 21176.46,
      "d": 2014.7048749999958,
      "v": 127
    },
    {
      "midi": 48,
      "hit": false,
      "t": 21176.46,
      "d": 2158.087156249996,
      "v": 127
    },
    {
      "midi": 74,
      "hit": false,
      "t": 22941.164999999997,
      "d": 257.3528124999975,
      "v": 127
    },
    {
      "midi": 58,
      "hit": false,
      "t": 23999.987999999994,
      "d": 1852.9402499999997,
      "v": 127
    },
    {
      "midi": 62,
      "hit": false,
      "t": 23999.987999999994,
      "d": 1941.1755000000012,
      "v": 127
    },
    {
      "midi": 46,
      "hit": false,
      "t": 23999.987999999994,
      "d": 1955.8813750000008,
      "v": 127
    },
    {
      "midi": 65,
      "hit": false,
      "t": 23999.987999999994,
      "d": 2018.3813437499994,
      "v": 127
    },
    {
      "midi": 60,
      "hit": false,
      "t": 26823.515999999996,
      "d": 1889.7049375000024,
      "v": 127
    },
    {
      "midi": 67,
      "hit": false,
      "t": 26823.515999999996,
      "d": 1922.7931562500016,
      "v": 127
    },
    {
      "midi": 48,
      "hit": false,
      "t": 26823.515999999996,
      "d": 1948.528437500001,
      "v": 127
    },
    {
      "midi": 46,
      "hit": false,
      "t": 29647.043999999998,
      "d": 1165.4405937500014,
      "v": 127
    },
    {
      "midi": 58,
      "hit": false,
      "t": 29647.043999999998,
      "d": 1183.822937500001,
      "v": 127
    },
    {
      "midi": 65,
      "hit": false,
      "t": 29647.043999999998,
      "d": 1757.352062500002,
      "v": 127
    },
    {
      "midi": 60,
      "hit": false,
      "t": 32470.572,
      "d": 1959.5578437500008,
      "v": 127
    },
    {
      "midi": 48,
      "hit": false,
      "t": 32470.572,
      "d": 2029.4107500000027,
      "v": 127
    },
    {
      "midi": 67,
      "hit": false,
      "t": 32470.572,
      "d": 2849.2632812500087,
      "v": 127
    },
    {
      "midi": 72,
      "hit": false,
      "t": 33529.395000000004,
      "d": 1235.2934999999998,
      "v": 127
    },
    {
      "midi": 58,
      "hit": false,
      "t": 35294.100000000006,
      "d": 2279.410625000004,
      "v": 127
    },
    {
      "midi": 65,
      "hit": false,
      "t": 35294.100000000006,
      "d": 2514.7046250000058,
      "v": 127
    },
    {
      "midi": 70,
      "hit": false,
      "t": 35294.100000000006,
      "d": 2617.6457500000033,
      "v": 127
    },
    {
      "midi": 46,
      "hit": false,
      "t": 35294.100000000006,
      "d": 4705.880000000005,
      "v": 127
    },
    {
      "midi": 70,
      "hit": false,
      "t": 38117.62800000001,
      "d": 827.2054687499985,
      "v": 127
    },
    {
      "midi": 65,
      "hit": false,
      "t": 38117.62800000001,
      "d": 849.264281249998,
      "v": 127
    },
    {
      "midi": 58,
      "hit": false,
      "t": 38117.62800000001,
      "d": 1393.3816562499997,
      "v": 127
    },
    {
      "midi": 65,
      "hit": false,
      "t": 39176.45100000001,
      "d": 779.4113750000033,
      "v": 127
    },
    {
      "midi": 70,
      "hit": false,
      "t": 39176.45100000001,
      "d": 889.7054375000007,
      "v": 127
    },
    {
      "midi": 58,
      "hit": false,
      "t": 39882.33300000001,
      "d": 161.76462499999616,
      "v": 127
    },
    {
      "midi": 65,
      "hit": false,
      "t": 40235.27400000001,
      "d": 705.8819999999978,
      "v": 127
    },
    {
      "midi": 52,
      "hit": false,
      "t": 40941.15600000001,
      "d": 2823.5280000000057,
      "v": 127
    },
    {
      "midi": 67,
      "hit": false,
      "t": 41294.09700000001,
      "d": 58.8234999999986,
      "v": 127
    },
    {
      "midi": 59,
      "hit": false,
      "t": 41294.09700000001,
      "d": 2470.587000000007,
      "v": 127
    },
    {
      "midi": 67,
      "hit": false,
      "t": 41647.03800000001,
      "d": 1069.85240625,
      "v": 127
    },
    {
      "midi": 62,
      "hit": false,
      "t": 41647.03800000001,
      "d": 1231.6170312500035,
      "v": 127
    },
    {
      "midi": 76,
      "hit": false,
      "t": 41999.97900000001,
      "d": 624.9996874999997,
      "v": 127
    },
    {
      "midi": 71,
      "hit": false,
      "t": 42705.861000000004,
      "d": 797.7937187500065,
      "v": 127
    },
    {
      "midi": 62,
      "hit": false,
      "t": 43058.80200000001,
      "d": 705.8820000000051,
      "v": 127
    },
    {
      "midi": 67,
      "hit": false,
      "t": 43411.74300000001,
      "d": 352.94100000000617,
      "v": 127
    },
    {
      "midi": 74,
      "hit": false,
      "t": 43764.684000000016,
      "d": 411.7645000000048,
      "v": 127
    },
    {
      "midi": 64,
      "hit": false,
      "t": 43764.684000000016,
      "d": 455.8821250000037,
      "v": 127
    },
    {
      "midi": 45,
      "hit": false,
      "t": 43764.684000000016,
      "d": 2683.8221875000017,
      "v": 127
    },
    {
      "midi": 72,
      "hit": false,
      "t": 44117.62500000002,
      "d": 345.58806249999907,
      "v": 127
    },
    {
      "midi": 52,
      "hit": false,
      "t": 44117.62500000002,
      "d": 2338.2341249999954,
      "v": 127
    },
    {
      "midi": 64,
      "hit": false,
      "t": 44470.56600000002,
      "d": 147.0587499999965,
      "v": 127
    },
    {
      "midi": 57,
      "hit": false,
      "t": 44470.56600000002,
      "d": 1988.96959375,
      "v": 127
    },
    {
      "midi": 67,
      "hit": false,
      "t": 44823.50700000002,
      "d": 1624.9991874999978,
      "v": 127
    },
    {
      "midi": 64,
      "hit": false,
      "t": 44823.50700000002,
      "d": 1658.0874062500006,
      "v": 127
    },
    {
      "midi": 74,
      "hit": false,
      "t": 45529.38900000002,
      "d": 602.9408750000002,
      "v": 127
    },
    {
      "midi": 46,
      "hit": false,
      "t": 46588.21200000002,
      "d": 2147.05775,
      "v": 127
    },
    {
      "midi": 67,
      "hit": false,
      "t": 46941.15300000002,
      "d": 338.23512499999924,
      "v": 127
    },
    {
      "midi": 53,
      "hit": false,
      "t": 46941.15300000002,
      "d": 1297.793468750002,
      "v": 127
    },
    {
      "midi": 58,
      "hit": false,
      "t": 47294.09400000002,
      "d": 279.41162500000064,
      "v": 127
    },
    {
      "midi": 62,
      "hit": false,
      "t": 47294.09400000002,
      "d": 448.5291875000039,
      "v": 127
    },
    {
      "midi": 55,
      "hit": false,
      "t": 47823.50550000002,
      "d": 176.47050000000309,
      "v": 127
    },
    {
      "midi": 67,
      "hit": false,
      "t": 47999.976000000024,
      "d": 349.26453124999534,
      "v": 127
    },
    {
      "midi": 62,
      "hit": false,
      "t": 48352.91700000002,
      "d": 786.7643124999959,
      "v": 127
    },
    {
      "midi": 53,
      "hit": false,
      "t": 48705.85800000002,
      "d": 102.94112499999756,
      "v": 127
    },
    {
      "midi": 57,
      "hit": false,
      "t": 49411.74000000002,
      "d": 908.0877812499966,
      "v": 127
    },
    {
      "midi": 62,
      "hit": false,
      "t": 49411.74000000002,
      "d": 944.8524687499958,
      "v": 127
    },
    {
      "midi": 43,
      "hit": false,
      "t": 49411.74000000002,
      "d": 3819.851031249993,
      "v": 127
    },
    {
      "midi": 50,
      "hit": false,
      "t": 49764.68100000002,
      "d": 1360.2934374999968,
      "v": 127
    },
    {
      "midi": 55,
      "hit": false,
      "t": 50117.62200000002,
      "d": 437.4997812500005,
      "v": 127
    },
    {
      "midi": 64,
      "hit": false,
      "t": 50470.56300000002,
      "d": 2382.3517499999944,
      "v": 127
    },
    {
      "midi": 55,
      "hit": false,
      "t": 51529.38600000001,
      "d": 426.47037499999715,
      "v": 127
    },
    {
      "midi": 79,
      "hit": false,
      "t": 53647.032000000014,
      "d": 1077.2053437499999,
      "v": 127
    },
    {
      "midi": 72,
      "hit": false,
      "t": 53647.032000000014,
      "d": 1172.7935312499976,
      "v": 127
    },
    {
      "midi": 69,
      "hit": false,
      "t": 53647.032000000014,
      "d": 1202.205281249997,
      "v": 127
    },
    {
      "midi": 41,
      "hit": false,
      "t": 53647.032000000014,
      "d": 2547.7928437500086,
      "v": 127
    },
    {
      "midi": 48,
      "hit": false,
      "t": 53999.97300000001,
      "d": 2091.910718750005,
      "v": 127
    },
    {
      "midi": 53,
      "hit": false,
      "t": 54352.91400000001,
      "d": 117.6469999999972,
      "v": 127
    },
    {
      "midi": 55,
      "hit": false,
      "t": 54705.85500000001,
      "d": 356.61746875000244,
      "v": 127
    },
    {
      "midi": 77,
      "hit": false,
      "t": 55058.79600000001,
      "d": 533.0879687500055,
      "v": 127
    },
    {
      "midi": 72,
      "hit": false,
      "t": 55058.79600000001,
      "d": 544.1173750000089,
      "v": 127
    },
    {
      "midi": 69,
      "hit": false,
      "t": 55058.79600000001,
      "d": 558.8232500000086,
      "v": 127
    },
    {
      "midi": 72,
      "hit": false,
      "t": 55764.678000000014,
      "d": 238.97046874999796,
      "v": 127
    },
    {
      "midi": 76,
      "hit": false,
      "t": 55764.678000000014,
      "d": 249.99987500000134,
      "v": 127
    },
    {
      "midi": 69,
      "hit": false,
      "t": 55764.678000000014,
      "d": 305.14690625000367,
      "v": 127
    },
    {
      "midi": 53,
      "hit": false,
      "t": 56117.61900000002,
      "d": 58.8234999999986,
      "v": 127
    },
    {
      "midi": 67,
      "hit": false,
      "t": 56470.56000000002,
      "d": 224.2645937499983,
      "v": 127
    },
    {
      "midi": 74,
      "hit": false,
      "t": 56470.56000000002,
      "d": 308.82337499999994,
      "v": 127
    },
    {
      "midi": 64,
      "hit": false,
      "t": 56470.56000000002,
      "d": 452.2056562500002,
      "v": 127
    },
    {
      "midi": 36,
      "hit": false,
      "t": 56470.56000000002,
      "d": 2702.204531250005,
      "v": 127
    },
    {
      "midi": 67,
      "hit": false,
      "t": 56823.50100000002,
      "d": 117.64700000000448,
      "v": 127
    },
    {
      "midi": 43,
      "hit": false,
      "t": 56823.50100000002,
      "d": 352.94100000000617,
      "v": 127
    },
    {
      "midi": 48,
      "hit": false,
      "t": 57176.442000000025,
      "d": 636.0290937499958,
      "v": 127
    },
    {
      "midi": 67,
      "hit": false,
      "t": 57529.38300000002,
      "d": 499.9997499999954,
      "v": 127
    },
    {
      "midi": 69,
      "hit": false,
      "t": 58588.20600000002,
      "d": 58.8234999999986,
      "v": 127
    },
    {
      "midi": 81,
      "hit": false,
      "t": 58941.14700000002,
      "d": 213.2351875000022,
      "v": 127
    },
    {
      "midi": 69,
      "hit": false,
      "t": 59294.088000000025,
      "d": 88.2352499999979,
      "v": 127
    },
    {
      "midi": 77,
      "hit": false,
      "t": 59294.088000000025,
      "d": 367.64687499999854,
      "v": 127
    },
    {
      "midi": 41,
      "hit": false,
      "t": 59294.088000000025,
      "d": 2051.469562500002,
      "v": 127
    },
    {
      "midi": 72,
      "hit": false,
      "t": 59647.029000000024,
      "d": 338.23512499999924,
      "v": 127
    },
    {
      "midi": 48,
      "hit": false,
      "t": 59647.029000000024,
      "d": 1672.7932812500003,
      "v": 127
    },
    {
      "midi": 69,
      "hit": false,
      "t": 59999.97000000002,
      "d": 91.91171875000146,
      "v": 127
    },
    {
      "midi": 53,
      "hit": false,
      "t": 59999.97000000002,
      "d": 1316.1758124999978,
      "v": 127
    },
    {
      "midi": 84,
      "hit": false,
      "t": 60352.91100000002,
      "d": 720.5878749999974,
      "v": 127
    },
    {
      "midi": 81,
      "hit": false,
      "t": 61058.79300000002,
      "d": 397.0586250000051,
      "v": 127
    },
    {
      "midi": 79,
      "hit": false,
      "t": 62117.61600000003,
      "d": 474.26446874999965,
      "v": 127
    },
    {
      "midi": 72,
      "hit": false,
      "t": 62117.61600000003,
      "d": 496.3232812499991,
      "v": 127
    },
    {
      "midi": 67,
      "hit": false,
      "t": 62117.61600000003,
      "d": 602.9408750000002,
      "v": 127
    },
    {
      "midi": 48,
      "hit": false,
      "t": 62117.61600000003,
      "d": 2205.8812499999913,
      "v": 127
    },
    {
      "midi": 55,
      "hit": false,
      "t": 62470.55700000003,
      "d": 1742.646187499995,
      "v": 127
    },
    {
      "midi": 60,
      "hit": false,
      "t": 62823.49800000003,
      "d": 124.99993749999703,
      "v": 127
    },
    {
      "midi": 79,
      "hit": false,
      "t": 62823.49800000003,
      "d": 154.41168749999633,
      "v": 127
    },
    {
      "midi": 67,
      "hit": false,
      "t": 62823.49800000003,
      "d": 220.58812499999476,
      "v": 127
    },
    {
      "midi": 72,
      "hit": false,
      "t": 62823.49800000003,
      "d": 264.7057499999937,
      "v": 127
    },
    {
      "midi": 62,
      "hit": false,
      "t": 63176.43900000002,
      "d": 143.38228125000023,
      "v": 127
    },
    {
      "midi": 76,
      "hit": false,
      "t": 63176.43900000002,
      "d": 220.58812500000204,
      "v": 127
    },
    {
      "midi": 67,
      "hit": false,
      "t": 63176.43900000002,
      "d": 224.2645937500056,
      "v": 127
    },
    {
      "midi": 72,
      "hit": false,
      "t": 63529.38000000003,
      "d": 224.2645937499983,
      "v": 127
    },
    {
      "midi": 77,
      "hit": false,
      "t": 63529.38000000003,
      "d": 455.88212499999645,
      "v": 127
    },
    {
      "midi": 67,
      "hit": false,
      "t": 63529.38000000003,
      "d": 1261.0287812499955,
      "v": 127
    },
    {
      "midi": 76,
      "hit": false,
      "t": 63882.321000000025,
      "d": 312.4998437499962,
      "v": 127
    },
    {
      "midi": 74,
      "hit": false,
      "t": 64235.262000000024,
      "d": 411.7644999999975,
      "v": 127
    },
    {
      "midi": 72,
      "hit": false,
      "t": 64588.20300000002,
      "d": 187.49990624999919,
      "v": 127
    },
    {
      "midi": 79,
      "hit": false,
      "t": 64941.14400000002,
      "d": 1029.4112499999974,
      "v": 127
    },
    {
      "midi": 69,
      "hit": false,
      "t": 64941.14400000002,
      "d": 1088.234749999996,
      "v": 127
    },
    {
      "midi": 72,
      "hit": false,
      "t": 64941.14400000002,
      "d": 1099.2641562499994,
      "v": 127
    },
    {
      "midi": 41,
      "hit": false,
      "t": 64941.14400000002,
      "d": 2422.7929062499825,
      "v": 127
    },
    {
      "midi": 48,
      "hit": false,
      "t": 65294.08500000002,
      "d": 2058.82249999998,
      "v": 127
    },
    {
      "midi": 53,
      "hit": false,
      "t": 65647.02600000003,
      "d": 106.61759374999383,
      "v": 127
    },
    {
      "midi": 55,
      "hit": false,
      "t": 65999.96700000002,
      "d": 132.35287499999686,
      "v": 127
    },
    {
      "midi": 77,
      "hit": false,
      "t": 66352.90800000001,
      "d": 529.411500000002,
      "v": 127
    },
    {
      "midi": 67,
      "hit": false,
      "t": 66352.90800000001,
      "d": 588.2350000000006,
      "v": 127
    },
    {
      "midi": 72,
      "hit": false,
      "t": 66352.90800000001,
      "d": 661.7643749999988,
      "v": 127
    },
    {
      "midi": 76,
      "hit": false,
      "t": 67058.79000000001,
      "d": 426.4703749999899,
      "v": 127
    },
    {
      "midi": 67,
      "hit": false,
      "t": 67058.79000000001,
      "d": 540.4409062499908,
      "v": 127
    },
    {
      "midi": 74,
      "hit": false,
      "t": 67764.672,
      "d": 360.29393750001327,
      "v": 127
    },
    {
      "midi": 64,
      "hit": false,
      "t": 67764.672,
      "d": 882.3525000000081,
      "v": 127
    },
    {
      "midi": 48,
      "hit": false,
      "t": 67764.672,
      "d": 2647.05750000001,
      "v": 127
    },
    {
      "midi": 67,
      "hit": false,
      "t": 68117.61300000001,
      "d": 286.76456250000047,
      "v": 127
    },
    {
      "midi": 55,
      "hit": false,
      "t": 68117.61300000001,
      "d": 2279.410625000004,
      "v": 127
    },
    {
      "midi": 60,
      "hit": false,
      "t": 68470.55400000002,
      "d": 1966.9107812500006,
      "v": 127
    },
    {
      "midi": 67,
      "hit": false,
      "t": 68823.49500000001,
      "d": 294.117499999993,
      "v": 127
    },
    {
      "midi": 67,
      "hit": false,
      "t": 69529.37700000001,
      "d": 349.26453124999534,
      "v": 127
    },
    {
      "midi": 69,
      "hit": false,
      "t": 69882.318,
      "d": 84.55878125000163,
      "v": 127
    },
    {
      "midi": 81,
      "hit": false,
      "t": 70235.259,
      "d": 66.1764375000057,
      "v": 127
    },
    {
      "midi": 79,
      "hit": false,
      "t": 70588.20000000001,
      "d": 1029.4112500000047,
      "v": 127
    },
    {
      "midi": 69,
      "hit": false,
      "t": 70588.20000000001,
      "d": 1088.2347500000033,
      "v": 127
    },
    {
      "midi": 72,
      "hit": false,
      "t": 70588.20000000001,
      "d": 1099.2641562500066,
      "v": 127
    },
    {
      "midi": 41,
      "hit": false,
      "t": 70588.20000000001,
      "d": 2422.7929062499898,
      "v": 127
    },
    {
      "midi": 48,
      "hit": false,
      "t": 70941.14100000002,
      "d": 2058.82249999998,
      "v": 127
    },
    {
      "midi": 53,
      "hit": false,
      "t": 71294.08200000002,
      "d": 106.61759374999383,
      "v": 127
    },
    {
      "midi": 55,
      "hit": false,
      "t": 71647.02300000002,
      "d": 132.35287499999686,
      "v": 127
    },
    {
      "midi": 77,
      "hit": false,
      "t": 71999.964,
      "d": 529.411500000002,
      "v": 127
    },
    {
      "midi": 67,
      "hit": false,
      "t": 71999.964,
      "d": 588.2350000000006,
      "v": 127
    },
    {
      "midi": 72,
      "hit": false,
      "t": 71999.964,
      "d": 661.7643749999988,
      "v": 127
    },
    {
      "midi": 76,
      "hit": false,
      "t": 72705.846,
      "d": 426.4703749999899,
      "v": 127
    },
    {
      "midi": 67,
      "hit": false,
      "t": 72705.846,
      "d": 540.4409062499908,
      "v": 127
    },
    {
      "midi": 77,
      "hit": false,
      "t": 73411.728,
      "d": 378.67628124999464,
      "v": 127
    },
    {
      "midi": 58,
      "hit": false,
      "t": 73411.728,
      "d": 2503.6752187500097,
      "v": 127
    },
    {
      "midi": 74,
      "hit": false,
      "t": 73764.669,
      "d": 577.2055937500118,
      "v": 127
    },
    {
      "midi": 65,
      "hit": false,
      "t": 73764.669,
      "d": 2102.940125000023,
      "v": 127
    },
    {
      "midi": 70,
      "hit": false,
      "t": 74117.61,
      "d": 1084.558281250007,
      "v": 127
    },
    {
      "midi": 72,
      "hit": false,
      "t": 74470.551,
      "d": 1058.823000000004,
      "v": 127
    },
    {
      "midi": 77,
      "hit": false,
      "t": 75176.433,
      "d": 757.3525625000038,
      "v": 127
    },
    {
      "midi": 70,
      "hit": false,
      "t": 75529.37400000001,
      "d": 323.52925000000687,
      "v": 127
    },
    {
      "midi": 65,
      "hit": false,
      "t": 76235.25600000001,
      "d": 867.646624999994,
      "v": 127
    },
    {
      "midi": 74,
      "hit": false,
      "t": 76235.25600000001,
      "d": 1040.4406562499935,
      "v": 127
    },
    {
      "midi": 46,
      "hit": false,
      "t": 76235.25600000001,
      "d": 2316.1753124999814,
      "v": 127
    },
    {
      "midi": 53,
      "hit": false,
      "t": 76588.197,
      "d": 1816.1755624999932,
      "v": 127
    },
    {
      "midi": 58,
      "hit": false,
      "t": 76941.138,
      "d": 988.9700937499874,
      "v": 127
    },
    {
      "midi": 65,
      "hit": false,
      "t": 77294.079,
      "d": 147.0587499999965,
      "v": 127
    },
    {
      "midi": 72,
      "hit": false,
      "t": 77647.01999999999,
      "d": 1088.2347500000033,
      "v": 127
    },
    {
      "midi": 65,
      "hit": false,
      "t": 77647.01999999999,
      "d": 1136.0288437499985,
      "v": 127
    },
    {
      "midi": 58,
      "hit": false,
      "t": 78352.90199999999,
      "d": 106.61759375000838,
      "v": 127
    },
    {
      "midi": 74,
      "hit": false,
      "t": 79058.78399999999,
      "d": 312.4998437500035,
      "v": 127
    },
    {
      "midi": 67,
      "hit": false,
      "t": 79058.78399999999,
      "d": 580.882062500008,
      "v": 127
    },
    {
      "midi": 48,
      "hit": false,
      "t": 79058.78399999999,
      "d": 2341.9105937500135,
      "v": 127
    },
    {
      "midi": 72,
      "hit": false,
      "t": 79411.72499999999,
      "d": 360.29393750001327,
      "v": 127
    },
    {
      "midi": 55,
      "hit": false,
      "t": 79411.72499999999,
      "d": 1882.351999999999,
      "v": 127
    },
    {
      "midi": 60,
      "hit": false,
      "t": 79764.666,
      "d": 1220.5876250000001,
      "v": 127
    },
    {
      "midi": 76,
      "hit": false,
      "t": 79764.666,
      "d": 1481.6169062499976,
      "v": 127
    },
    {
      "midi": 67,
      "hit": false,
      "t": 79764.666,
      "d": 1529.4109999999928,
      "v": 127
    },
    {
      "midi": 60,
      "hit": false,
      "t": 81176.43,
      "d": 154.4116875000036,
      "v": 127
    },
    {
      "midi": 74,
      "hit": false,
      "t": 81882.312,
      "d": 1139.7053124999948,
      "v": 127
    },
    {
      "midi": 65,
      "hit": false,
      "t": 81882.312,
      "d": 1272.0581874999916,
      "v": 127
    },
    {
      "midi": 70,
      "hit": false,
      "t": 81882.312,
      "d": 1301.469937499991,
      "v": 127
    },
    {
      "midi": 58,
      "hit": false,
      "t": 81882.312,
      "d": 1886.0284687499952,
      "v": 127
    },
    {
      "midi": 46,
      "hit": false,
      "t": 81882.312,
      "d": 2198.5283124999987,
      "v": 127
    },
    {
      "midi": 72,
      "hit": false,
      "t": 83294.076,
      "d": 286.76456250000047,
      "v": 127
    },
    {
      "midi": 65,
      "hit": false,
      "t": 83294.076,
      "d": 941.1760000000068,
      "v": 127
    },
    {
      "midi": 70,
      "hit": false,
      "t": 83470.5465,
      "d": 738.9702187500079,
      "v": 127
    },
    {
      "midi": 58,
      "hit": false,
      "t": 83999.958,
      "d": 73.52937499999825,
      "v": 127
    },
    {
      "midi": 74,
      "hit": false,
      "t": 84705.84000000001,
      "d": 224.26459374999104,
      "v": 127
    },
    {
      "midi": 64,
      "hit": false,
      "t": 84705.84000000001,
      "d": 279.41162499999336,
      "v": 127
    },
    {
      "midi": 67,
      "hit": false,
      "t": 84705.84000000001,
      "d": 279.41162499999336,
      "v": 127
    },
    {
      "midi": 48,
      "hit": false,
      "t": 84705.84000000001,
      "d": 1481.616906249983,
      "v": 127
    },
    {
      "midi": 36,
      "hit": false,
      "t": 84705.84000000001,
      "d": 2647.0574999999953,
      "v": 127
    },
    {
      "midi": 72,
      "hit": false,
      "t": 85058.781,
      "d": 132.35287499999686,
      "v": 127
    },
    {
      "midi": 67,
      "hit": false,
      "t": 85411.722,
      "d": 1117.6465000000026,
      "v": 127
    },
    {
      "midi": 64,
      "hit": false,
      "t": 85411.722,
      "d": 1161.7641250000015,
      "v": 127
    },
    {
      "midi": 72,
      "hit": false,
      "t": 85411.722,
      "d": 1334.558156250001,
      "v": 127
    },
    {
      "midi": 48,
      "hit": false,
      "t": 86470.545,
      "d": 577.2055937499972,
      "v": 127
    },
    {
      "midi": 67,
      "hit": false,
      "t": 86823.48599999999,
      "d": 580.8820625000226,
      "v": 127
    },
    {
      "midi": 64,
      "hit": false,
      "t": 86823.48599999999,
      "d": 584.5585312500189,
      "v": 127
    },
    {
      "midi": 48,
      "hit": false,
      "t": 87176.427,
      "d": 150.73521875000733,
      "v": 127
    },
    {
      "midi": 65,
      "hit": false,
      "t": 87529.368,
      "d": 308.82337499999267,
      "v": 127
    },
    {
      "midi": 46,
      "hit": false,
      "t": 87529.368,
      "d": 2411.763500000001,
      "v": 127
    },
    {
      "midi": 62,
      "hit": false,
      "t": 87882.309,
      "d": 374.9998125000129,
      "v": 127
    },
    {
      "midi": 53,
      "hit": false,
      "t": 87882.309,
      "d": 1540.4404062500107,
      "v": 127
    },
    {
      "midi": 58,
      "hit": false,
      "t": 88235.25,
      "d": 974.2642187500023,
      "v": 127
    },
    {
      "midi": 70,
      "hit": false,
      "t": 88588.191,
      "d": 161.76462499999616,
      "v": 127
    },
    {
      "midi": 74,
      "hit": false,
      "t": 89294.073,
      "d": 117.6469999999972,
      "v": 127
    },
    {
      "midi": 58,
      "hit": false,
      "t": 89647.01400000001,
      "d": 544.1173749999871,
      "v": 127
    },
    {
      "midi": 60,
      "hit": false,
      "t": 89999.955,
      "d": 136.02934374999313,
      "v": 127
    },
    {
      "midi": 60,
      "hit": false,
      "t": 90352.896,
      "d": 444.85271875000035,
      "v": 127
    },
    {
      "midi": 36,
      "hit": false,
      "t": 90352.896,
      "d": 2169.116562499985,
      "v": 127
    },
    {
      "midi": 55,
      "hit": false,
      "t": 90705.837,
      "d": 588.234999999986,
      "v": 127
    },
    {
      "midi": 43,
      "hit": false,
      "t": 90705.837,
      "d": 1775.734406249976,
      "v": 127
    },
    {
      "midi": 48,
      "hit": false,
      "t": 91058.77799999999,
      "d": 88.2352499999979,
      "v": 127
    },
    {
      "midi": 50,
      "hit": false,
      "t": 91411.71899999998,
      "d": 154.4116875000036,
      "v": 127
    },
    {
      "midi": 67,
      "hit": false,
      "t": 91411.71899999998,
      "d": 617.6467499999999,
      "v": 127
    },
    {
      "midi": 55,
      "hit": false,
      "t": 91411.71899999998,
      "d": 738.9702187499934,
      "v": 127
    },
    {
      "midi": 60,
      "hit": false,
      "t": 92117.60099999998,
      "d": 470.5879999999888,
      "v": 127
    },
    {
      "midi": 48,
      "hit": false,
      "t": 92470.54199999997,
      "d": 84.55878125000163,
      "v": 127
    },
    {
      "midi": 65,
      "hit": false,
      "t": 93176.42399999997,
      "d": 966.9112812500098,
      "v": 127
    },
    {
      "midi": 70,
      "hit": false,
      "t": 93176.42399999997,
      "d": 996.3230312500091,
      "v": 127
    },
    {
      "midi": 46,
      "hit": false,
      "t": 93176.42399999997,
      "d": 2327.2047187499993,
      "v": 127
    },
    {
      "midi": 53,
      "hit": false,
      "t": 93529.36499999998,
      "d": 1705.8814999999886,
      "v": 127
    },
    {
      "midi": 58,
      "hit": false,
      "t": 93882.30599999998,
      "d": 1077.2053437499853,
      "v": 127
    },
    {
      "midi": 74,
      "hit": false,
      "t": 94235.24699999997,
      "d": 507.3526874999952,
      "v": 127
    },
    {
      "midi": 65,
      "hit": false,
      "t": 94235.24699999997,
      "d": 577.2055937499972,
      "v": 127
    },
    {
      "midi": 70,
      "hit": false,
      "t": 94235.24699999997,
      "d": 661.7643749999988,
      "v": 127
    },
    {
      "midi": 65,
      "hit": false,
      "t": 94941.12899999997,
      "d": 474.26446874999965,
      "v": 127
    },
    {
      "midi": 72,
      "hit": false,
      "t": 94941.12899999997,
      "d": 749.9996249999967,
      "v": 127
    },
    {
      "midi": 58,
      "hit": false,
      "t": 95294.06999999996,
      "d": 95.588187500005,
      "v": 127
    },
    {
      "midi": 65,
      "hit": false,
      "t": 95647.01099999997,
      "d": 352.94100000000617,
      "v": 127
    },
    {
      "midi": 70,
      "hit": false,
      "t": 95823.48149999997,
      "d": 169.11756250000326,
      "v": 127
    },
    {
      "midi": 64,
      "hit": false,
      "t": 95999.95199999998,
      "d": 639.7055625000066,
      "v": 127
    },
    {
      "midi": 67,
      "hit": false,
      "t": 95999.95199999998,
      "d": 672.7937812500022,
      "v": 127
    },
    {
      "midi": 72,
      "hit": false,
      "t": 95999.95199999998,
      "d": 801.4701875000028,
      "v": 127
    },
    {
      "midi": 36,
      "hit": false,
      "t": 95999.95199999998,
      "d": 2132.351874999993,
      "v": 127
    },
    {
      "midi": 43,
      "hit": false,
      "t": 96352.89299999998,
      "d": 1746.3226562499913,
      "v": 127
    },
    {
      "midi": 48,
      "hit": false,
      "t": 96705.83399999997,
      "d": 1106.6170937499992,
      "v": 127
    },
    {
      "midi": 74,
      "hit": false,
      "t": 97058.77499999998,
      "d": 488.9703437499993,
      "v": 127
    },
    {
      "midi": 67,
      "hit": false,
      "t": 97058.77499999998,
      "d": 514.7056250000023,
      "v": 127
    },
    {
      "midi": 64,
      "hit": false,
      "t": 97058.77499999998,
      "d": 591.9114687499969,
      "v": 127
    },
    {
      "midi": 64,
      "hit": false,
      "t": 97764.65699999998,
      "d": 102.94112499999756,
      "v": 127
    },
    {
      "midi": 67,
      "hit": false,
      "t": 97764.65699999998,
      "d": 599.2644062499894,
      "v": 127
    },
    {
      "midi": 72,
      "hit": false,
      "t": 97764.65699999998,
      "d": 713.2349374999903,
      "v": 127
    },
    {
      "midi": 48,
      "hit": false,
      "t": 98117.59799999997,
      "d": 91.91171874999418,
      "v": 127
    },
    {
      "midi": 64,
      "hit": false,
      "t": 98470.53899999996,
      "d": 205.88225000000966,
      "v": 127
    },
    {
      "midi": 72,
      "hit": false,
      "t": 98647.00949999997,
      "d": 106.61759374999383,
      "v": 127
    },
    {
      "midi": 58,
      "hit": false,
      "t": 98823.47999999997,
      "d": 540.4409062500054,
      "v": 127
    },
    {
      "midi": 74,
      "hit": false,
      "t": 98823.47999999997,
      "d": 819.8525312500133,
      "v": 127
    },
    {
      "midi": 65,
      "hit": false,
      "t": 98823.47999999997,
      "d": 852.9407500000088,
      "v": 127
    },
    {
      "midi": 46,
      "hit": false,
      "t": 98823.47999999997,
      "d": 2305.1459062499925,
      "v": 127
    },
    {
      "midi": 58,
      "hit": false,
      "t": 99529.36199999998,
      "d": 1220.5876249999856,
      "v": 127
    },
    {
      "midi": 74,
      "hit": false,
      "t": 99882.30299999997,
      "d": 477.9409374999959,
      "v": 127
    },
    {
      "midi": 65,
      "hit": false,
      "t": 99882.30299999997,
      "d": 551.4703124999942,
      "v": 127
    },
    {
      "midi": 70,
      "hit": false,
      "t": 99882.30299999997,
      "d": 617.6467499999999,
      "v": 127
    },
    {
      "midi": 65,
      "hit": false,
      "t": 100588.18499999997,
      "d": 507.3526874999952,
      "v": 127
    },
    {
      "midi": 72,
      "hit": false,
      "t": 100588.18499999997,
      "d": 805.1466562499991,
      "v": 127
    },
    {
      "midi": 58,
      "hit": false,
      "t": 100941.12599999996,
      "d": 99.26465625000128,
      "v": 127
    },
    {
      "midi": 65,
      "hit": false,
      "t": 101294.06699999997,
      "d": 180.14696874999208,
      "v": 127
    },
    {
      "midi": 72,
      "hit": false,
      "t": 101470.53749999996,
      "d": 69.85290625000198,
      "v": 127
    },
    {
      "midi": 48,
      "hit": false,
      "t": 101647.00799999996,
      "d": 507.3526874999952,
      "v": 127
    },
    {
      "midi": 67,
      "hit": false,
      "t": 101647.00799999996,
      "d": 720.5878749999974,
      "v": 127
    },
    {
      "midi": 72,
      "hit": false,
      "t": 101647.00799999996,
      "d": 794.1172499999957,
      "v": 127
    },
    {
      "midi": 64,
      "hit": false,
      "t": 101647.00799999996,
      "d": 915.4407187499892,
      "v": 127
    },
    {
      "midi": 36,
      "hit": false,
      "t": 101647.00799999996,
      "d": 2143.3812812499964,
      "v": 127
    },
    {
      "midi": 48,
      "hit": false,
      "t": 102352.88999999996,
      "d": 1128.6759062499914,
      "v": 127
    },
    {
      "midi": 64,
      "hit": false,
      "t": 102705.83099999995,
      "d": 62.49996874999488,
      "v": 127
    },
    {
      "midi": 67,
      "hit": false,
      "t": 102705.83099999995,
      "d": 661.7643749999988,
      "v": 127
    },
    {
      "midi": 64,
      "hit": false,
      "t": 103411.71299999995,
      "d": 437.4997812500078,
      "v": 127
    },
    {
      "midi": 48,
      "hit": false,
      "t": 103764.65399999995,
      "d": 102.94112499999756,
      "v": 127
    },
    {
      "midi": 64,
      "hit": false,
      "t": 103941.12449999995,
      "d": 227.94106250000186,
      "v": 127
    },
    {
      "midi": 67,
      "hit": false,
      "t": 104117.59499999994,
      "d": 124.99993750000431,
      "v": 127
    },
    {
      "midi": 58,
      "hit": false,
      "t": 104470.53599999995,
      "d": 444.85271875000035,
      "v": 127
    },
    {
      "midi": 74,
      "hit": false,
      "t": 104470.53599999995,
      "d": 753.676093749993,
      "v": 127
    },
    {
      "midi": 70,
      "hit": false,
      "t": 104470.53599999995,
      "d": 812.4995937499916,
      "v": 127
    },
    {
      "midi": 65,
      "hit": false,
      "t": 104470.53599999995,
      "d": 889.7054374999861,
      "v": 127
    },
    {
      "midi": 46,
      "hit": false,
      "t": 104470.53599999995,
      "d": 2323.528249999974,
      "v": 127
    },
    {
      "midi": 58,
      "hit": false,
      "t": 105176.41799999995,
      "d": 1191.1758749999863,
      "v": 127
    },
    {
      "midi": 74,
      "hit": false,
      "t": 105529.35899999994,
      "d": 422.7939062499936,
      "v": 127
    },
    {
      "midi": 65,
      "hit": false,
      "t": 105529.35899999994,
      "d": 485.2938749999885,
      "v": 127
    },
    {
      "midi": 70,
      "hit": false,
      "t": 105529.35899999994,
      "d": 624.9996874999924,
      "v": 127
    },
    {
      "midi": 65,
      "hit": false,
      "t": 106235.24099999994,
      "d": 522.0585624999803,
      "v": 127
    },
    {
      "midi": 72,
      "hit": false,
      "t": 106235.24099999994,
      "d": 724.2643437499792,
      "v": 127
    },
    {
      "midi": 58,
      "hit": false,
      "t": 106588.18199999993,
      "d": 91.91171874999418,
      "v": 127
    },
    {
      "midi": 65,
      "hit": false,
      "t": 106941.12299999992,
      "d": 180.14696874999208,
      "v": 127
    },
    {
      "midi": 70,
      "hit": false,
      "t": 107117.59349999992,
      "d": 73.52937499999825,
      "v": 127
    },
    {
      "midi": 48,
      "hit": false,
      "t": 107294.06399999993,
      "d": 511.0291562499915,
      "v": 127
    },
    {
      "midi": 67,
      "hit": false,
      "t": 107294.06399999993,
      "d": 834.5584062499984,
      "v": 127
    },
    {
      "midi": 72,
      "hit": false,
      "t": 107294.06399999993,
      "d": 845.5878125000017,
      "v": 127
    },
    {
      "midi": 64,
      "hit": false,
      "t": 107294.06399999993,
      "d": 985.2936250000057,
      "v": 127
    },
    {
      "midi": 36,
      "hit": false,
      "t": 107294.06399999993,
      "d": 2231.6165312499943,
      "v": 127
    },
    {
      "midi": 48,
      "hit": false,
      "t": 107999.94599999992,
      "d": 1147.0582500000019,
      "v": 127
    },
    {
      "midi": 74,
      "hit": false,
      "t": 108352.88699999993,
      "d": 397.0586250000051,
      "v": 127
    },
    {
      "midi": 67,
      "hit": false,
      "t": 108352.88699999993,
      "d": 400.7350937500014,
      "v": 127
    },
    {
      "midi": 64,
      "hit": false,
      "t": 108352.88699999993,
      "d": 1158.0876562499907,
      "v": 127
    },
    {
      "midi": 67,
      "hit": false,
      "t": 109058.76899999993,
      "d": 544.1173749999871,
      "v": 127
    },
    {
      "midi": 76,
      "hit": false,
      "t": 109058.76899999993,
      "d": 573.5291249999864,
      "v": 127
    },
    {
      "midi": 48,
      "hit": false,
      "t": 109411.70999999992,
      "d": 102.94112499999756,
      "v": 127
    },
    {
      "midi": 64,
      "hit": false,
      "t": 109588.18049999991,
      "d": 242.6469375000015,
      "v": 127
    },
    {
      "midi": 67,
      "hit": false,
      "t": 109764.65099999991,
      "d": 124.99993750000431,
      "v": 127
    },
    {
      "midi": 76,
      "hit": false,
      "t": 109764.65099999991,
      "d": 176.47050000001036,
      "v": 127
    },
    {
      "midi": 77,
      "hit": false,
      "t": 110117.59199999992,
      "d": 191.17637499999546,
      "v": 127
    },
    {
      "midi": 67,
      "hit": false,
      "t": 110117.59199999992,
      "d": 286.76456250000047,
      "v": 127
    },
    {
      "midi": 65,
      "hit": false,
      "t": 110117.59199999992,
      "d": 305.1469062499964,
      "v": 127
    },
    {
      "midi": 70,
      "hit": false,
      "t": 110117.59199999992,
      "d": 352.9409999999916,
      "v": 127
    },
    {
      "midi": 46,
      "hit": false,
      "t": 110117.59199999992,
      "d": 2602.9398749999964,
      "v": 127
    },
    {
      "midi": 76,
      "hit": false,
      "t": 110470.53299999991,
      "d": 481.61740625000675,
      "v": 127
    },
    {
      "midi": 65,
      "hit": false,
      "t": 110470.53299999991,
      "d": 511.02915625000605,
      "v": 127
    },
    {
      "midi": 67,
      "hit": false,
      "t": 110470.53299999991,
      "d": 529.411500000002,
      "v": 127
    },
    {
      "midi": 70,
      "hit": false,
      "t": 110470.53299999991,
      "d": 1014.705375000005,
      "v": 127
    },
    {
      "midi": 53,
      "hit": false,
      "t": 110470.53299999991,
      "d": 2029.41075000001,
      "v": 127
    },
    {
      "midi": 58,
      "hit": false,
      "t": 110823.47399999991,
      "d": 698.5290625000052,
      "v": 127
    },
    {
      "midi": 67,
      "hit": false,
      "t": 111176.4149999999,
      "d": 286.76456250000047,
      "v": 127
    },
    {
      "midi": 65,
      "hit": false,
      "t": 111176.4149999999,
      "d": 308.8233750000072,
      "v": 127
    },
    {
      "midi": 74,
      "hit": false,
      "t": 111176.4149999999,
      "d": 397.0586250000197,
      "v": 127
    },
    {
      "midi": 58,
      "hit": false,
      "t": 112235.23799999992,
      "d": 698.5290624999761,
      "v": 127
    },
    {
      "midi": 74,
      "hit": false,
      "t": 112588.17899999992,
      "d": 147.0587499999965,
      "v": 127
    },
    {
      "midi": 76,
      "hit": false,
      "t": 112764.64949999991,
      "d": 150.73521874999278,
      "v": 127
    },
    {
      "midi": 77,
      "hit": false,
      "t": 112941.11999999991,
      "d": 352.9409999999916,
      "v": 127
    },
    {
      "midi": 46,
      "hit": false,
      "t": 112941.11999999991,
      "d": 2753.6750937500183,
      "v": 127
    },
    {
      "midi": 76,
      "hit": false,
      "t": 113294.0609999999,
      "d": 672.7937812500022,
      "v": 127
    },
    {
      "midi": 53,
      "hit": false,
      "t": 113294.0609999999,
      "d": 2349.2635312500206,
      "v": 127
    },
    {
      "midi": 58,
      "hit": false,
      "t": 113647.0019999999,
      "d": 573.5291249999864,
      "v": 127
    },
    {
      "midi": 74,
      "hit": false,
      "t": 113999.9429999999,
      "d": 529.411500000002,
      "v": 127
    },
    {
      "midi": 58,
      "hit": false,
      "t": 114705.8249999999,
      "d": 944.8524687500321,
      "v": 127
    },
    {
      "midi": 69,
      "hit": false,
      "t": 115058.7659999999,
      "d": 595.5879375000222,
      "v": 127
    },
    {
      "midi": 72,
      "hit": false,
      "t": 115411.70699999991,
      "d": 224.2645937500056,
      "v": 127
    },
    {
      "midi": 74,
      "hit": false,
      "t": 115764.64799999993,
      "d": 937.4995312499959,
      "v": 127
    },
    {
      "midi": 69,
      "hit": false,
      "t": 115764.64799999993,
      "d": 977.9406874999986,
      "v": 127
    },
    {
      "midi": 52,
      "hit": false,
      "t": 115764.64799999993,
      "d": 2823.528000000035,
      "v": 127
    },
    {
      "midi": 59,
      "hit": false,
      "t": 116117.58899999992,
      "d": 1757.3520625000237,
      "v": 127
    },
    {
      "midi": 64,
      "hit": false,
      "t": 116470.52999999993,
      "d": 1047.7935937500151,
      "v": 127
    },
    {
      "midi": 71,
      "hit": false,
      "t": 116823.47099999993,
      "d": 441.1762500000041,
      "v": 127
    },
    {
      "midi": 74,
      "hit": false,
      "t": 116823.47099999993,
      "d": 477.9409375000105,
      "v": 127
    },
    {
      "midi": 67,
      "hit": false,
      "t": 116823.47099999993,
      "d": 569.8526562500047,
      "v": 127
    },
    {
      "midi": 67,
      "hit": false,
      "t": 117529.35299999994,
      "d": 397.0586250000051,
      "v": 127
    },
    {
      "midi": 74,
      "hit": false,
      "t": 117529.35299999994,
      "d": 404.4115625000122,
      "v": 127
    },
    {
      "midi": 71,
      "hit": false,
      "t": 117529.35299999994,
      "d": 558.8232500000158,
      "v": 127
    },
    {
      "midi": 64,
      "hit": false,
      "t": 117882.29399999995,
      "d": 691.1761250000127,
      "v": 127
    },
    {
      "midi": 67,
      "hit": false,
      "t": 118058.76449999996,
      "d": 187.49990624999919,
      "v": 127
    },
    {
      "midi": 69,
      "hit": false,
      "t": 118235.23499999996,
      "d": 242.6469375000015,
      "v": 127
    },
    {
      "midi": 74,
      "hit": false,
      "t": 118235.23499999996,
      "d": 338.2351250000065,
      "v": 127
    },
    {
      "midi": 74,
      "hit": false,
      "t": 118588.17599999996,
      "d": 238.97046875000524,
      "v": 127
    },
    {
      "midi": 64,
      "hit": false,
      "t": 118588.17599999996,
      "d": 272.0586875000008,
      "v": 127
    },
    {
      "midi": 67,
      "hit": false,
      "t": 118588.17599999996,
      "d": 408.0880312500085,
      "v": 127
    },
    {
      "midi": 45,
      "hit": false,
      "t": 118588.17599999996,
      "d": 2790.4397812499956,
      "v": 127
    },
    {
      "midi": 72,
      "hit": false,
      "t": 118941.11699999997,
      "d": 58.8234999999986,
      "v": 127
    },
    {
      "midi": 64,
      "hit": false,
      "t": 118941.11699999997,
      "d": 88.2352499999979,
      "v": 127
    },
    {
      "midi": 52,
      "hit": false,
      "t": 118941.11699999997,
      "d": 691.1761249999981,
      "v": 127
    },
    {
      "midi": 64,
      "hit": false,
      "t": 119117.58749999997,
      "d": 558.8232500000013,
      "v": 127
    },
    {
      "midi": 67,
      "hit": false,
      "t": 119117.58749999997,
      "d": 599.264406250004,
      "v": 127
    },
    {
      "midi": 72,
      "hit": false,
      "t": 119117.58749999997,
      "d": 621.3232187500107,
      "v": 127
    },
    {
      "midi": 57,
      "hit": false,
      "t": 119646.99899999997,
      "d": 1716.910906249992,
      "v": 127
    },
    {
      "midi": 64,
      "hit": false,
      "t": 119823.46949999998,
      "d": 132.35287499999686,
      "v": 127
    },
    {
      "midi": 67,
      "hit": false,
      "t": 119999.93999999997,
      "d": 488.9703437499993,
      "v": 127
    },
    {
      "midi": 72,
      "hit": false,
      "t": 119999.93999999997,
      "d": 544.1173750000016,
      "v": 127
    },
    {
      "midi": 64,
      "hit": false,
      "t": 119999.93999999997,
      "d": 602.9408750000002,
      "v": 127
    },
    {
      "midi": 67,
      "hit": false,
      "t": 120705.82199999997,
      "d": 58.8234999999986,
      "v": 127
    },
    {
      "midi": 76,
      "hit": false,
      "t": 120705.82199999997,
      "d": 132.35287499999686,
      "v": 127
    },
    {
      "midi": 64,
      "hit": false,
      "t": 120705.82199999997,
      "d": 636.0290937499813,
      "v": 127
    },
    {
      "midi": 67,
      "hit": false,
      "t": 121058.76299999996,
      "d": 220.58812499999476,
      "v": 127
    },
    {
      "midi": 74,
      "hit": false,
      "t": 121058.76299999996,
      "d": 268.38221874999,
      "v": 127
    },
    {
      "midi": 69,
      "hit": false,
      "t": 121411.70399999995,
      "d": 102.94112499999756,
      "v": 127
    },
    {
      "midi": 65,
      "hit": false,
      "t": 121411.70399999995,
      "d": 235.2939999999944,
      "v": 127
    },
    {
      "midi": 74,
      "hit": false,
      "t": 121411.70399999995,
      "d": 268.38221874999,
      "v": 127
    },
    {
      "midi": 46,
      "hit": false,
      "t": 121411.70399999995,
      "d": 2345.587062499995,
      "v": 127
    },
    {
      "midi": 79,
      "hit": false,
      "t": 121764.64499999995,
      "d": 117.6469999999972,
      "v": 127
    },
    {
      "midi": 53,
      "hit": false,
      "t": 121764.64499999995,
      "d": 308.82337499999267,
      "v": 127
    },
    {
      "midi": 58,
      "hit": false,
      "t": 122117.58599999994,
      "d": 172.79403124999953,
      "v": 127
    },
    {
      "midi": 69,
      "hit": false,
      "t": 122117.58599999994,
      "d": 499.9997500000027,
      "v": 127
    },
    {
      "midi": 74,
      "hit": false,
      "t": 122117.58599999994,
      "d": 555.146781250005,
      "v": 127
    },
    {
      "midi": 65,
      "hit": false,
      "t": 122117.58599999994,
      "d": 588.2350000000006,
      "v": 127
    },
    {
      "midi": 53,
      "hit": false,
      "t": 122646.99749999994,
      "d": 624.9996874999924,
      "v": 127
    },
    {
      "midi": 79,
      "hit": false,
      "t": 122823.46799999994,
      "d": 150.73521874999278,
      "v": 127
    },
    {
      "midi": 65,
      "hit": false,
      "t": 123176.40899999993,
      "d": 437.4997812500078,
      "v": 127
    },
    {
      "midi": 69,
      "hit": false,
      "t": 123176.40899999993,
      "d": 518.3820937500132,
      "v": 127
    },
    {
      "midi": 74,
      "hit": false,
      "t": 123176.40899999993,
      "d": 529.4115000000165,
      "v": 127
    },
    {
      "midi": 58,
      "hit": false,
      "t": 123529.34999999993,
      "d": 99.26465625000128,
      "v": 127
    },
    {
      "midi": 65,
      "hit": false,
      "t": 123882.29099999995,
      "d": 121.32346874999348,
      "v": 127
    },
    {
      "midi": 55,
      "hit": false,
      "t": 124235.23199999995,
      "d": 205.8822499999951,
      "v": 127
    },
    {
      "midi": 65,
      "hit": false,
      "t": 124235.23199999995,
      "d": 430.14684374998615,
      "v": 127
    },
    {
      "midi": 69,
      "hit": false,
      "t": 124235.23199999995,
      "d": 558.8232499999867,
      "v": 127
    },
    {
      "midi": 72,
      "hit": false,
      "t": 124235.23199999995,
      "d": 595.5879374999931,
      "v": 127
    },
    {
      "midi": 43,
      "hit": false,
      "t": 124235.23199999995,
      "d": 2069.8519062499836,
      "v": 127
    },
    {
      "midi": 55,
      "hit": false,
      "t": 124588.17299999994,
      "d": 841.9113437499909,
      "v": 127
    },
    {
      "midi": 65,
      "hit": false,
      "t": 124941.11399999994,
      "d": 191.17637499999546,
      "v": 127
    },
    {
      "midi": 76,
      "hit": false,
      "t": 125294.05499999993,
      "d": 996.3230312499945,
      "v": 127
    },
    {
      "midi": 55,
      "hit": false,
      "t": 125999.93699999993,
      "d": 279.41162499999336,
      "v": 127
    },
    {
      "midi": 67,
      "hit": false,
      "t": 126352.87799999992,
      "d": 419.1174374999973,
      "v": 127
    },
    {
      "midi": 79,
      "hit": false,
      "t": 127058.75999999992,
      "d": 1077.2053437499999,
      "v": 127
    },
    {
      "midi": 72,
      "hit": false,
      "t": 127058.75999999992,
      "d": 1172.793531250005,
      "v": 127
    },
    {
      "midi": 69,
      "hit": false,
      "t": 127058.75999999992,
      "d": 1202.2052812500042,
      "v": 127
    },
    {
      "midi": 41,
      "hit": false,
      "t": 127058.75999999992,
      "d": 2547.792843750023,
      "v": 127
    },
    {
      "midi": 48,
      "hit": false,
      "t": 127411.70099999993,
      "d": 2091.9107187500194,
      "v": 127
    },
    {
      "midi": 53,
      "hit": false,
      "t": 127764.64199999993,
      "d": 117.6469999999972,
      "v": 127
    },
    {
      "midi": 55,
      "hit": false,
      "t": 128117.58299999993,
      "d": 356.61746875000244,
      "v": 127
    },
    {
      "midi": 77,
      "hit": false,
      "t": 128470.52399999993,
      "d": 533.0879687499983,
      "v": 127
    },
    {
      "midi": 72,
      "hit": false,
      "t": 128470.52399999993,
      "d": 544.1173750000016,
      "v": 127
    },
    {
      "midi": 69,
      "hit": false,
      "t": 128470.52399999993,
      "d": 558.8232500000013,
      "v": 127
    },
    {
      "midi": 74,
      "hit": false,
      "t": 129176.40599999993,
      "d": 14.70587499999965,
      "v": 127
    },
    {
      "midi": 72,
      "hit": false,
      "t": 129176.40599999993,
      "d": 238.97046875000524,
      "v": 127
    },
    {
      "midi": 76,
      "hit": false,
      "t": 129176.40599999993,
      "d": 249.99987500000861,
      "v": 127
    },
    {
      "midi": 69,
      "hit": false,
      "t": 129176.40599999993,
      "d": 305.14690625001094,
      "v": 127
    },
    {
      "midi": 53,
      "hit": false,
      "t": 129529.34699999995,
      "d": 58.8234999999986,
      "v": 127
    },
    {
      "midi": 67,
      "hit": false,
      "t": 129882.28799999994,
      "d": 224.2645937500056,
      "v": 127
    },
    {
      "midi": 74,
      "hit": false,
      "t": 129882.28799999994,
      "d": 308.8233750000072,
      "v": 127
    },
    {
      "midi": 64,
      "hit": false,
      "t": 129882.28799999994,
      "d": 452.20565625000745,
      "v": 127
    },
    {
      "midi": 36,
      "hit": false,
      "t": 129882.28799999994,
      "d": 2702.2045312499977,
      "v": 127
    },
    {
      "midi": 67,
      "hit": false,
      "t": 130235.22899999995,
      "d": 117.6469999999972,
      "v": 127
    },
    {
      "midi": 43,
      "hit": false,
      "t": 130235.22899999995,
      "d": 352.9409999999916,
      "v": 127
    },
    {
      "midi": 48,
      "hit": false,
      "t": 130588.16999999994,
      "d": 636.0290937500104,
      "v": 127
    },
    {
      "midi": 67,
      "hit": false,
      "t": 130941.11099999995,
      "d": 499.99975000001723,
      "v": 127
    },
    {
      "midi": 67,
      "hit": false,
      "t": 131646.99299999996,
      "d": 294.117499999993,
      "v": 127
    },
    {
      "midi": 69,
      "hit": false,
      "t": 131999.93399999995,
      "d": 58.8234999999986,
      "v": 127
    },
    {
      "midi": 81,
      "hit": false,
      "t": 132352.87499999994,
      "d": 213.23518749998766,
      "v": 127
    },
    {
      "midi": 69,
      "hit": false,
      "t": 132705.81599999993,
      "d": 88.2352499999979,
      "v": 127
    },
    {
      "midi": 77,
      "hit": false,
      "t": 132705.81599999993,
      "d": 367.6468750000058,
      "v": 127
    },
    {
      "midi": 41,
      "hit": false,
      "t": 132705.81599999993,
      "d": 2051.4695625000168,
      "v": 127
    },
    {
      "midi": 72,
      "hit": false,
      "t": 133058.75699999993,
      "d": 338.2351250000065,
      "v": 127
    },
    {
      "midi": 48,
      "hit": false,
      "t": 133058.75699999993,
      "d": 1672.7932812500221,
      "v": 127
    },
    {
      "midi": 69,
      "hit": false,
      "t": 133411.69799999995,
      "d": 91.91171874999418,
      "v": 127
    },
    {
      "midi": 53,
      "hit": false,
      "t": 133411.69799999995,
      "d": 1316.1758125000051,
      "v": 127
    },
    {
      "midi": 84,
      "hit": false,
      "t": 133764.63899999994,
      "d": 720.5878750000265,
      "v": 127
    },
    {
      "midi": 81,
      "hit": false,
      "t": 134470.52099999995,
      "d": 397.0586250000051,
      "v": 127
    },
    {
      "midi": 79,
      "hit": false,
      "t": 135529.34399999995,
      "d": 474.2644687499851,
      "v": 127
    },
    {
      "midi": 72,
      "hit": false,
      "t": 135529.34399999995,
      "d": 496.32328124999185,
      "v": 127
    },
    {
      "midi": 67,
      "hit": false,
      "t": 135529.34399999995,
      "d": 602.9408750000002,
      "v": 127
    },
    {
      "midi": 48,
      "hit": false,
      "t": 135529.34399999995,
      "d": 2205.881250000006,
      "v": 127
    },
    {
      "midi": 55,
      "hit": false,
      "t": 135882.28499999995,
      "d": 1742.6461875000095,
      "v": 127
    },
    {
      "midi": 60,
      "hit": false,
      "t": 136235.22599999997,
      "d": 124.99993749998976,
      "v": 127
    },
    {
      "midi": 79,
      "hit": false,
      "t": 136235.22599999997,
      "d": 154.41168749998906,
      "v": 127
    },
    {
      "midi": 67,
      "hit": false,
      "t": 136235.22599999997,
      "d": 220.5881249999802,
      "v": 127
    },
    {
      "midi": 72,
      "hit": false,
      "t": 136235.22599999997,
      "d": 264.7057499999937,
      "v": 127
    },
    {
      "midi": 62,
      "hit": false,
      "t": 136588.16699999996,
      "d": 143.38228125000023,
      "v": 127
    },
    {
      "midi": 76,
      "hit": false,
      "t": 136588.16699999996,
      "d": 220.5881250000093,
      "v": 127
    },
    {
      "midi": 67,
      "hit": false,
      "t": 136588.16699999996,
      "d": 224.2645937500056,
      "v": 127
    },
    {
      "midi": 72,
      "hit": false,
      "t": 136941.10799999995,
      "d": 224.2645937500056,
      "v": 127
    },
    {
      "midi": 77,
      "hit": false,
      "t": 136941.10799999995,
      "d": 455.8821250000037,
      "v": 127
    },
    {
      "midi": 67,
      "hit": false,
      "t": 136941.10799999995,
      "d": 1261.0287812500028,
      "v": 127
    },
    {
      "midi": 76,
      "hit": false,
      "t": 137294.04899999994,
      "d": 312.4998437500035,
      "v": 127
    },
    {
      "midi": 74,
      "hit": false,
      "t": 137646.98999999996,
      "d": 411.7644999999902,
      "v": 127
    },
    {
      "midi": 72,
      "hit": false,
      "t": 137999.93099999995,
      "d": 187.49990624998463,
      "v": 127
    },
    {
      "midi": 79,
      "hit": false,
      "t": 138352.87199999994,
      "d": 1029.4112500000047,
      "v": 127
    },
    {
      "midi": 69,
      "hit": false,
      "t": 138352.87199999994,
      "d": 1088.2347500000033,
      "v": 127
    },
    {
      "midi": 72,
      "hit": false,
      "t": 138352.87199999994,
      "d": 1099.264156249992,
      "v": 127
    },
    {
      "midi": 41,
      "hit": false,
      "t": 138352.87199999994,
      "d": 2422.7929062499898,
      "v": 127
    },
    {
      "midi": 48,
      "hit": false,
      "t": 138705.81299999994,
      "d": 2058.8225000000093,
      "v": 127
    },
    {
      "midi": 53,
      "hit": false,
      "t": 139058.75399999993,
      "d": 106.61759375000838,
      "v": 127
    },
    {
      "midi": 55,
      "hit": false,
      "t": 139411.69499999995,
      "d": 132.3528749999823,
      "v": 127
    },
    {
      "midi": 77,
      "hit": false,
      "t": 139764.63599999994,
      "d": 529.4114999999874,
      "v": 127
    },
    {
      "midi": 67,
      "hit": false,
      "t": 139764.63599999994,
      "d": 588.234999999986,
      "v": 127
    },
    {
      "midi": 72,
      "hit": false,
      "t": 139764.63599999994,
      "d": 661.7643749999988,
      "v": 127
    },
    {
      "midi": 76,
      "hit": false,
      "t": 140470.51799999995,
      "d": 426.4703749999753,
      "v": 127
    },
    {
      "midi": 67,
      "hit": false,
      "t": 140470.51799999995,
      "d": 540.4409062499763,
      "v": 127
    },
    {
      "midi": 74,
      "hit": false,
      "t": 141176.39999999994,
      "d": 360.29393750001327,
      "v": 127
    },
    {
      "midi": 64,
      "hit": false,
      "t": 141176.39999999994,
      "d": 882.3525000000081,
      "v": 127
    },
    {
      "midi": 48,
      "hit": false,
      "t": 141176.39999999994,
      "d": 2647.0574999999662,
      "v": 127
    },
    {
      "midi": 67,
      "hit": false,
      "t": 141529.34099999996,
      "d": 286.76456250000047,
      "v": 127
    },
    {
      "midi": 55,
      "hit": false,
      "t": 141529.34099999996,
      "d": 2279.4106249999313,
      "v": 127
    },
    {
      "midi": 60,
      "hit": false,
      "t": 141882.28199999995,
      "d": 1966.910781249957,
      "v": 127
    },
    {
      "midi": 67,
      "hit": false,
      "t": 142235.22299999994,
      "d": 294.117499999993,
      "v": 127
    },
    {
      "midi": 67,
      "hit": false,
      "t": 142941.10499999992,
      "d": 349.26453124999534,
      "v": 127
    },
    {
      "midi": 69,
      "hit": false,
      "t": 143294.04599999991,
      "d": 84.55878125000163,
      "v": 127
    },
    {
      "midi": 81,
      "hit": false,
      "t": 143646.9869999999,
      "d": 66.17643749999115,
      "v": 127
    },
    {
      "midi": 79,
      "hit": false,
      "t": 143999.9279999999,
      "d": 1029.4112500000047,
      "v": 127
    },
    {
      "midi": 69,
      "hit": false,
      "t": 143999.9279999999,
      "d": 1088.2347500000033,
      "v": 127
    },
    {
      "midi": 72,
      "hit": false,
      "t": 143999.9279999999,
      "d": 1099.264156249992,
      "v": 127
    },
    {
      "midi": 41,
      "hit": false,
      "t": 143999.9279999999,
      "d": 2422.7929062499898,
      "v": 127
    },
    {
      "midi": 48,
      "hit": false,
      "t": 144352.8689999999,
      "d": 2058.8225000000093,
      "v": 127
    },
    {
      "midi": 53,
      "hit": false,
      "t": 144705.80999999988,
      "d": 106.61759375000838,
      "v": 127
    },
    {
      "midi": 55,
      "hit": false,
      "t": 145058.7509999999,
      "d": 132.3528749999823,
      "v": 127
    },
    {
      "midi": 77,
      "hit": false,
      "t": 145411.6919999999,
      "d": 529.4114999999874,
      "v": 127
    },
    {
      "midi": 67,
      "hit": false,
      "t": 145411.6919999999,
      "d": 588.234999999986,
      "v": 127
    },
    {
      "midi": 72,
      "hit": false,
      "t": 145411.6919999999,
      "d": 661.7643749999988,
      "v": 127
    },
    {
      "midi": 76,
      "hit": false,
      "t": 146117.5739999999,
      "d": 426.4703749999753,
      "v": 127
    },
    {
      "midi": 67,
      "hit": false,
      "t": 146117.5739999999,
      "d": 540.4409062499763,
      "v": 127
    },
    {
      "midi": 77,
      "hit": false,
      "t": 146823.4559999999,
      "d": 378.67628125002375,
      "v": 127
    },
    {
      "midi": 58,
      "hit": false,
      "t": 146823.4559999999,
      "d": 2503.675218750024,
      "v": 127
    },
    {
      "midi": 74,
      "hit": false,
      "t": 147176.3969999999,
      "d": 577.2055937499972,
      "v": 127
    },
    {
      "midi": 65,
      "hit": false,
      "t": 147176.3969999999,
      "d": 2102.9401249999937,
      "v": 127
    },
    {
      "midi": 70,
      "hit": false,
      "t": 147529.3379999999,
      "d": 1084.558281250007,
      "v": 127
    },
    {
      "midi": 72,
      "hit": false,
      "t": 147882.2789999999,
      "d": 1058.823000000004,
      "v": 127
    },
    {
      "midi": 77,
      "hit": false,
      "t": 148588.1609999999,
      "d": 757.3525625000184,
      "v": 127
    },
    {
      "midi": 70,
      "hit": false,
      "t": 148941.1019999999,
      "d": 323.5292499999923,
      "v": 127
    },
    {
      "midi": 65,
      "hit": false,
      "t": 149646.9839999999,
      "d": 867.646625000023,
      "v": 127
    },
    {
      "midi": 74,
      "hit": false,
      "t": 149646.9839999999,
      "d": 1040.4406562500226,
      "v": 127
    },
    {
      "midi": 46,
      "hit": false,
      "t": 149646.9839999999,
      "d": 2316.1753125000396,
      "v": 127
    },
    {
      "midi": 53,
      "hit": false,
      "t": 149999.92499999993,
      "d": 1816.1755625000224,
      "v": 127
    },
    {
      "midi": 58,
      "hit": false,
      "t": 150352.86599999992,
      "d": 988.9700937500165,
      "v": 127
    },
    {
      "midi": 65,
      "hit": false,
      "t": 150705.80699999994,
      "d": 147.0587499999965,
      "v": 127
    },
    {
      "midi": 72,
      "hit": false,
      "t": 151058.74799999993,
      "d": 1088.2347500000033,
      "v": 127
    },
    {
      "midi": 65,
      "hit": false,
      "t": 151058.74799999993,
      "d": 1136.028843750013,
      "v": 127
    },
    {
      "midi": 58,
      "hit": false,
      "t": 151764.62999999995,
      "d": 106.61759375000838,
      "v": 127
    },
    {
      "midi": 74,
      "hit": false,
      "t": 152470.51199999996,
      "d": 312.4998437500035,
      "v": 127
    },
    {
      "midi": 67,
      "hit": false,
      "t": 152470.51199999996,
      "d": 580.8820624999935,
      "v": 127
    },
    {
      "midi": 48,
      "hit": false,
      "t": 152470.51199999996,
      "d": 2341.9105937499553,
      "v": 127
    },
    {
      "midi": 72,
      "hit": false,
      "t": 152823.45299999995,
      "d": 360.29393749998417,
      "v": 127
    },
    {
      "midi": 55,
      "hit": false,
      "t": 152823.45299999995,
      "d": 1882.3519999999844,
      "v": 127
    },
    {
      "midi": 60,
      "hit": false,
      "t": 153176.39399999994,
      "d": 1220.5876249999856,
      "v": 127
    },
    {
      "midi": 76,
      "hit": false,
      "t": 153176.39399999994,
      "d": 1481.616906249983,
      "v": 127
    },
    {
      "midi": 67,
      "hit": false,
      "t": 153176.39399999994,
      "d": 1529.4109999999928,
      "v": 127
    },
    {
      "midi": 60,
      "hit": false,
      "t": 154588.15799999994,
      "d": 154.41168749998906,
      "v": 127
    },
    {
      "midi": 74,
      "hit": false,
      "t": 155294.03999999992,
      "d": 1139.7053124999802,
      "v": 127
    },
    {
      "midi": 65,
      "hit": false,
      "t": 155294.03999999992,
      "d": 1272.0581874999916,
      "v": 127
    },
    {
      "midi": 70,
      "hit": false,
      "t": 155294.03999999992,
      "d": 1301.469937499991,
      "v": 127
    },
    {
      "midi": 58,
      "hit": false,
      "t": 155294.03999999992,
      "d": 1886.0284687500098,
      "v": 127
    },
    {
      "midi": 46,
      "hit": false,
      "t": 155294.03999999992,
      "d": 2198.5283125000133,
      "v": 127
    },
    {
      "midi": 72,
      "hit": false,
      "t": 156705.80399999992,
      "d": 286.76456250000047,
      "v": 127
    },
    {
      "midi": 65,
      "hit": false,
      "t": 156705.80399999992,
      "d": 941.1760000000068,
      "v": 127
    },
    {
      "midi": 70,
      "hit": false,
      "t": 156882.2744999999,
      "d": 738.9702187500079,
      "v": 127
    },
    {
      "midi": 58,
      "hit": false,
      "t": 157411.68599999993,
      "d": 73.5293750000128,
      "v": 127
    },
    {
      "midi": 53,
      "hit": false,
      "t": 158117.5679999999,
      "d": 216.91165625001304,
      "v": 127
    },
    {
      "midi": 62,
      "hit": false,
      "t": 158117.5679999999,
      "d": 261.02928125002654,
      "v": 127
    },
    {
      "midi": 58,
      "hit": false,
      "t": 158117.5679999999,
      "d": 312.4998437500326,
      "v": 127
    },
    {
      "midi": 46,
      "hit": false,
      "t": 158117.5679999999,
      "d": 2051.469562500046,
      "v": 127
    },
    {
      "midi": 34,
      "hit": false,
      "t": 158117.5679999999,
      "d": 2463.234062500065,
      "v": 127
    },
    {
      "midi": 53,
      "hit": false,
      "t": 158470.50899999993,
      "d": 279.4116250000079,
      "v": 127
    },
    {
      "midi": 53,
      "hit": false,
      "t": 158823.44999999995,
      "d": 40.441156249988126,
      "v": 127
    },
    {
      "midi": 58,
      "hit": false,
      "t": 158823.44999999995,
      "d": 110.29406249997555,
      "v": 127
    },
    {
      "midi": 62,
      "hit": false,
      "t": 159352.86149999994,
      "d": 294.117499999993,
      "v": 127
    },
    {
      "midi": 53,
      "hit": false,
      "t": 159352.86149999994,
      "d": 691.1761249999981,
      "v": 127
    },
    {
      "midi": 60,
      "hit": false,
      "t": 159705.80249999993,
      "d": 308.8233750000072,
      "v": 127
    },
    {
      "midi": 53,
      "hit": false,
      "t": 160058.74349999995,
      "d": 327.2057187500177,
      "v": 127
    },
    {
      "midi": 58,
      "hit": false,
      "t": 160058.74349999995,
      "d": 485.29387500003213,
      "v": 127
    },
    {
      "midi": 46,
      "hit": false,
      "t": 160411.68449999997,
      "d": 117.6469999999972,
      "v": 127
    },
    {
      "midi": 53,
      "hit": false,
      "t": 160588.15499999997,
      "d": 150.73521874999278,
      "v": 127
    },
    {
      "midi": 45,
      "hit": false,
      "t": 160941.09599999996,
      "d": 588.2350000000151,
      "v": 127
    },
    {
      "midi": 53,
      "hit": false,
      "t": 160941.09599999996,
      "d": 852.9407500000088,
      "v": 127
    },
    {
      "midi": 57,
      "hit": false,
      "t": 160941.09599999996,
      "d": 882.3525000000081,
      "v": 127
    },
    {
      "midi": 60,
      "hit": false,
      "t": 160941.09599999996,
      "d": 941.1760000000068,
      "v": 127
    },
    {
      "midi": 33,
      "hit": false,
      "t": 160941.09599999996,
      "d": 1977.940187500004,
      "v": 127
    },
    {
      "midi": 45,
      "hit": false,
      "t": 161646.97799999997,
      "d": 955.8818749999919,
      "v": 127
    },
    {
      "midi": 53,
      "hit": false,
      "t": 161999.91899999997,
      "d": 128.67640624998603,
      "v": 127
    },
    {
      "midi": 60,
      "hit": false,
      "t": 162176.38949999996,
      "d": 176.4704999999958,
      "v": 127
    },
    {
      "midi": 57,
      "hit": false,
      "t": 162176.38949999996,
      "d": 187.49990624998463,
      "v": 127
    },
    {
      "midi": 53,
      "hit": false,
      "t": 162176.38949999996,
      "d": 205.8822499999951,
      "v": 127
    },
    {
      "midi": 53,
      "hit": false,
      "t": 162529.33049999995,
      "d": 272.05868750001537,
      "v": 127
    },
    {
      "midi": 57,
      "hit": false,
      "t": 162529.33049999995,
      "d": 338.2351250000065,
      "v": 127
    },
    {
      "midi": 60,
      "hit": false,
      "t": 162529.33049999995,
      "d": 374.99981249999837,
      "v": 127
    },
    {
      "midi": 45,
      "hit": false,
      "t": 162705.80099999998,
      "d": 158.08815624998533,
      "v": 127
    },
    {
      "midi": 63,
      "hit": false,
      "t": 163764.62399999998,
      "d": 58.8234999999986,
      "v": 127
    },
    {
      "midi": 58,
      "hit": false,
      "t": 163764.62399999998,
      "d": 102.94112500001211,
      "v": 127
    },
    {
      "midi": 67,
      "hit": false,
      "t": 163764.62399999998,
      "d": 117.64700000002631,
      "v": 127
    },
    {
      "midi": 43,
      "hit": false,
      "t": 163764.62399999998,
      "d": 529.4115000000165,
      "v": 127
    },
    {
      "midi": 31,
      "hit": false,
      "t": 163764.62399999998,
      "d": 764.70550000004,
      "v": 127
    },
    {
      "midi": 63,
      "hit": false,
      "t": 164117.565,
      "d": 297.7939687499893,
      "v": 127
    },
    {
      "midi": 58,
      "hit": false,
      "t": 164117.565,
      "d": 367.6468750000058,
      "v": 127
    },
    {
      "midi": 55,
      "hit": false,
      "t": 164117.565,
      "d": 382.35275000002,
      "v": 127
    },
    {
      "midi": 43,
      "hit": false,
      "t": 164470.506,
      "d": 66.17643750002026,
      "v": 127
    },
    {
      "midi": 63,
      "hit": false,
      "t": 164823.44700000001,
      "d": 444.8527187499858,
      "v": 127
    },
    {
      "midi": 58,
      "hit": false,
      "t": 164823.44700000001,
      "d": 459.55859375,
      "v": 127
    },
    {
      "midi": 55,
      "hit": false,
      "t": 164823.44700000001,
      "d": 555.1467812499905,
      "v": 127
    },
    {
      "midi": 39,
      "hit": false,
      "t": 164823.44700000001,
      "d": 867.646624999994,
      "v": 127
    },
    {
      "midi": 27,
      "hit": false,
      "t": 164823.44700000001,
      "d": 1124.999437499995,
      "v": 127
    },
    {
      "midi": 55,
      "hit": false,
      "t": 165529.329,
      "d": 360.29393750001327,
      "v": 127
    },
    {
      "midi": 63,
      "hit": false,
      "t": 165529.329,
      "d": 411.7645000000193,
      "v": 127
    },
    {
      "midi": 58,
      "hit": false,
      "t": 165529.329,
      "d": 455.88212500003283,
      "v": 127
    },
    {
      "midi": 39,
      "hit": false,
      "t": 165882.27000000002,
      "d": 88.2352499999979,
      "v": 127
    },
    {
      "midi": 24,
      "hit": false,
      "t": 166588.15200000003,
      "d": 345.58806249999907,
      "v": 127
    },
    {
      "midi": 36,
      "hit": false,
      "t": 166588.15200000003,
      "d": 397.0586250000051,
      "v": 127
    },
    {
      "midi": 60,
      "hit": false,
      "t": 166588.15200000003,
      "d": 558.8232500000158,
      "v": 127
    },
    {
      "midi": 55,
      "hit": false,
      "t": 166588.15200000003,
      "d": 632.3526250000286,
      "v": 127
    },
    {
      "midi": 60,
      "hit": false,
      "t": 167294.03400000007,
      "d": 69.85290624998743,
      "v": 127
    },
    {
      "midi": 55,
      "hit": false,
      "t": 167294.03400000007,
      "d": 136.02934374997858,
      "v": 127
    },
    {
      "midi": 65,
      "hit": false,
      "t": 167294.03400000007,
      "d": 139.70581249997485,
      "v": 127
    },
    {
      "midi": 65,
      "hit": false,
      "t": 167646.97500000003,
      "d": 514.7056250000314,
      "v": 127
    },
    {
      "midi": 55,
      "hit": false,
      "t": 167646.97500000003,
      "d": 544.1173750000307,
      "v": 127
    },
    {
      "midi": 60,
      "hit": false,
      "t": 167646.97500000003,
      "d": 606.6173437500256,
      "v": 127
    },
    {
      "midi": 39,
      "hit": false,
      "t": 167999.91600000006,
      "d": 856.617218749976,
      "v": 127
    },
    {
      "midi": 27,
      "hit": false,
      "t": 167999.91600000006,
      "d": 919.1171874999709,
      "v": 127
    },
    {
      "midi": 55,
      "hit": false,
      "t": 168352.85700000005,
      "d": 235.2939999999944,
      "v": 127
    },
    {
      "midi": 65,
      "hit": false,
      "t": 168705.79800000004,
      "d": 397.0586250000051,
      "v": 127
    },
    {
      "midi": 60,
      "hit": false,
      "t": 168705.79800000004,
      "d": 408.08803124999395,
      "v": 127
    },
    {
      "midi": 55,
      "hit": false,
      "t": 168705.79800000004,
      "d": 448.5291875000112,
      "v": 127
    },
    {
      "midi": 39,
      "hit": false,
      "t": 169058.73900000003,
      "d": 73.5293750000128,
      "v": 127
    },
    {
      "midi": 27,
      "hit": false,
      "t": 169058.73900000003,
      "d": 80.88231250000536,
      "v": 127
    },
    {
      "midi": 46,
      "hit": false,
      "t": 169411.68000000005,
      "d": 338.2351250000065,
      "v": 127
    },
    {
      "midi": 62,
      "hit": false,
      "t": 169411.68000000005,
      "d": 834.5584062499984,
      "v": 127
    },
    {
      "midi": 58,
      "hit": false,
      "t": 169411.68000000005,
      "d": 919.1171875,
      "v": 127
    },
    {
      "midi": 53,
      "hit": false,
      "t": 169411.68000000005,
      "d": 926.4701249999925,
      "v": 127
    },
    {
      "midi": 34,
      "hit": false,
      "t": 169411.68000000005,
      "d": 2316.1753125000105,
      "v": 127
    },
    {
      "midi": 46,
      "hit": false,
      "t": 170117.56200000006,
      "d": 1275.734656249988,
      "v": 127
    },
    {
      "midi": 62,
      "hit": false,
      "t": 170470.50300000006,
      "d": 558.8232499999867,
      "v": 127
    },
    {
      "midi": 58,
      "hit": false,
      "t": 170470.50300000006,
      "d": 610.2938124999928,
      "v": 127
    },
    {
      "midi": 53,
      "hit": false,
      "t": 170470.50300000006,
      "d": 613.9702812499891,
      "v": 127
    },
    {
      "midi": 53,
      "hit": false,
      "t": 171176.38500000004,
      "d": 363.97040625000955,
      "v": 127
    },
    {
      "midi": 62,
      "hit": false,
      "t": 171176.38500000004,
      "d": 367.6468750000058,
      "v": 127
    },
    {
      "midi": 58,
      "hit": false,
      "t": 171176.38500000004,
      "d": 470.5880000000179,
      "v": 127
    },
    {
      "midi": 46,
      "hit": false,
      "t": 171529.32600000006,
      "d": 147.0587499999965,
      "v": 127
    },
    {
      "midi": 53,
      "hit": false,
      "t": 171705.79650000005,
      "d": 231.61753124999814,
      "v": 127
    },
    {
      "midi": 58,
      "hit": false,
      "t": 171882.26700000005,
      "d": 220.5881250000093,
      "v": 127
    },
    {
      "midi": 60,
      "hit": false,
      "t": 172058.73750000005,
      "d": 775.7349062500289,
      "v": 127
    },
    {
      "midi": 57,
      "hit": false,
      "t": 172235.20800000007,
      "d": 632.3526249999995,
      "v": 127
    },
    {
      "midi": 53,
      "hit": false,
      "t": 172235.20800000007,
      "d": 672.7937812499877,
      "v": 127
    },
    {
      "midi": 45,
      "hit": false,
      "t": 172235.20800000007,
      "d": 1823.5284999999858,
      "v": 127
    },
    {
      "midi": 33,
      "hit": false,
      "t": 172235.20800000007,
      "d": 2205.8812499999767,
      "v": 127
    },
    {
      "midi": 53,
      "hit": false,
      "t": 172941.09000000005,
      "d": 235.2939999999944,
      "v": 127
    },
    {
      "midi": 60,
      "hit": false,
      "t": 172941.09000000005,
      "d": 264.7057499999937,
      "v": 127
    },
    {
      "midi": 57,
      "hit": false,
      "t": 172941.09000000005,
      "d": 268.38221874999,
      "v": 127
    },
    {
      "midi": 57,
      "hit": false,
      "t": 173470.50150000004,
      "d": 147.0587499999965,
      "v": 127
    },
    {
      "midi": 60,
      "hit": false,
      "t": 173470.50150000004,
      "d": 161.7646250000107,
      "v": 127
    },
    {
      "midi": 53,
      "hit": false,
      "t": 173470.50150000004,
      "d": 165.44109375000698,
      "v": 127
    },
    {
      "midi": 60,
      "hit": false,
      "t": 173823.44250000006,
      "d": 312.4998437500035,
      "v": 127
    },
    {
      "midi": 53,
      "hit": false,
      "t": 173823.44250000006,
      "d": 352.9409999999916,
      "v": 127
    },
    {
      "midi": 57,
      "hit": false,
      "t": 173823.44250000006,
      "d": 360.29393749998417,
      "v": 127
    },
    {
      "midi": 45,
      "hit": false,
      "t": 174176.38350000005,
      "d": 205.8822499999951,
      "v": 127
    },
    {
      "midi": 60,
      "hit": false,
      "t": 174352.85400000005,
      "d": 161.7646250000107,
      "v": 127
    },
    {
      "midi": 53,
      "hit": false,
      "t": 174352.85400000005,
      "d": 220.5881250000093,
      "v": 127
    },
    {
      "midi": 57,
      "hit": false,
      "t": 174352.85400000005,
      "d": 231.61753124999814,
      "v": 127
    },
    {
      "midi": 61,
      "hit": false,
      "t": 175058.73600000003,
      "d": 3.6764687499962747,
      "v": 127
    },
    {
      "midi": 43,
      "hit": false,
      "t": 175058.73600000003,
      "d": 209.55871874999139,
      "v": 127
    },
    {
      "midi": 31,
      "hit": false,
      "t": 175058.73600000003,
      "d": 312.4998437500035,
      "v": 127
    },
    {
      "midi": 63,
      "hit": false,
      "t": 175058.73600000003,
      "d": 356.617468750017,
      "v": 127
    },
    {
      "midi": 55,
      "hit": false,
      "t": 175058.73600000003,
      "d": 444.8527187500149,
      "v": 127
    },
    {
      "midi": 58,
      "hit": false,
      "t": 175058.73600000003,
      "d": 529.4115000000165,
      "v": 127
    },
    {
      "midi": 58,
      "hit": false,
      "t": 176117.55900000007,
      "d": 566.1761875000084,
      "v": 127
    },
    {
      "midi": 53,
      "hit": false,
      "t": 176117.55900000007,
      "d": 569.8526562500047,
      "v": 127
    },
    {
      "midi": 39,
      "hit": false,
      "t": 176117.55900000007,
      "d": 882.3525000000081,
      "v": 127
    },
    {
      "midi": 27,
      "hit": false,
      "t": 176117.55900000007,
      "d": 1158.0876562499907,
      "v": 127
    },
    {
      "midi": 58,
      "hit": false,
      "t": 176823.44100000008,
      "d": 499.9997499999881,
      "v": 127
    },
    {
      "midi": 53,
      "hit": false,
      "t": 176823.44100000008,
      "d": 514.7056250000023,
      "v": 127
    },
    {
      "midi": 39,
      "hit": false,
      "t": 177176.38200000007,
      "d": 102.941124999983,
      "v": 127
    },
    {
      "midi": 55,
      "hit": false,
      "t": 177882.26400000008,
      "d": 187.49990624998463,
      "v": 127
    },
    {
      "midi": 43,
      "hit": false,
      "t": 177882.26400000008,
      "d": 198.52931249997346,
      "v": 127
    },
    {
      "midi": 67,
      "hit": false,
      "t": 177882.26400000008,
      "d": 198.52931249997346,
      "v": 127
    },
    {
      "midi": 62,
      "hit": false,
      "t": 177882.26400000008,
      "d": 216.91165624998393,
      "v": 127
    },
    {
      "midi": 59,
      "hit": false,
      "t": 177882.26400000008,
      "d": 246.32340624998324,
      "v": 127
    },
    {
      "midi": 31,
      "hit": false,
      "t": 177882.26400000008,
      "d": 2797.7927187500172,
      "v": 127
    },
    {
      "midi": 55,
      "hit": false,
      "t": 178235.20500000007,
      "d": 305.14690625001094,
      "v": 127
    },
    {
      "midi": 43,
      "hit": false,
      "t": 178588.1460000001,
      "d": 1128.6759062499914,
      "v": 127
    },
    {
      "midi": 67,
      "hit": false,
      "t": 178941.0870000001,
      "d": 455.8821250000037,
      "v": 127
    },
    {
      "midi": 59,
      "hit": false,
      "t": 178941.0870000001,
      "d": 459.55859375,
      "v": 127
    },
    {
      "midi": 62,
      "hit": false,
      "t": 178941.0870000001,
      "d": 459.55859375,
      "v": 127
    },
    {
      "midi": 55,
      "hit": false,
      "t": 178941.0870000001,
      "d": 544.1173750000016,
      "v": 127
    },
    {
      "midi": 55,
      "hit": false,
      "t": 179646.9690000001,
      "d": 411.7644999999902,
      "v": 127
    },
    {
      "midi": 67,
      "hit": false,
      "t": 179646.9690000001,
      "d": 499.9997499999881,
      "v": 127
    },
    {
      "midi": 62,
      "hit": false,
      "t": 179646.9690000001,
      "d": 514.7056250000023,
      "v": 127
    },
    {
      "midi": 59,
      "hit": false,
      "t": 179646.9690000001,
      "d": 536.7644375000091,
      "v": 127
    },
    {
      "midi": 43,
      "hit": false,
      "t": 179999.9100000001,
      "d": 687.4996562500019,
      "v": 127
    },
    {
      "midi": 55,
      "hit": false,
      "t": 180176.38050000012,
      "d": 378.67628124999464,
      "v": 127
    },
    {
      "midi": 62,
      "hit": false,
      "t": 180352.8510000001,
      "d": 308.8233750000072,
      "v": 127
    },
    {
      "midi": 59,
      "hit": false,
      "t": 180352.8510000001,
      "d": 319.85278124999604,
      "v": 127
    },
    {
      "midi": 67,
      "hit": false,
      "t": 180529.3215000001,
      "d": 165.44109374997788,
      "v": 127
    },
    {
      "midi": 67,
      "hit": false,
      "t": 180705.79200000007,
      "d": 1349.2640312500007,
      "v": 127
    },
    {
      "midi": 41,
      "hit": false,
      "t": 180705.79200000007,
      "d": 2073.5283750000235,
      "v": 127
    },
    {
      "midi": 48,
      "hit": false,
      "t": 181058.7330000001,
      "d": 1511.0286562499823,
      "v": 127
    },
    {
      "midi": 53,
      "hit": false,
      "t": 181411.6740000001,
      "d": 113.97053125000093,
      "v": 127
    },
    {
      "midi": 55,
      "hit": false,
      "t": 181764.61500000008,
      "d": 426.4703750000044,
      "v": 127
    },
    {
      "midi": 65,
      "hit": false,
      "t": 182117.55600000007,
      "d": 720.5878750000556,
      "v": 127
    },
    {
      "midi": 53,
      "hit": false,
      "t": 182470.4970000001,
      "d": 143.38228125000023,
      "v": 127
    },
    {
      "midi": 64,
      "hit": false,
      "t": 182823.4380000001,
      "d": 448.5291875000112,
      "v": 127
    },
    {
      "midi": 62,
      "hit": false,
      "t": 183529.32000000012,
      "d": 283.0880937500042,
      "v": 127
    },
    {
      "midi": 36,
      "hit": false,
      "t": 183529.32000000012,
      "d": 2132.351875000022,
      "v": 127
    },
    {
      "midi": 55,
      "hit": false,
      "t": 183882.26100000012,
      "d": 128.67640624998603,
      "v": 127
    },
    {
      "midi": 43,
      "hit": false,
      "t": 183882.26100000012,
      "d": 1363.9699062499858,
      "v": 127
    },
    {
      "midi": 55,
      "hit": false,
      "t": 184235.2020000001,
      "d": 128.67640624998603,
      "v": 127
    },
    {
      "midi": 48,
      "hit": false,
      "t": 184235.2020000001,
      "d": 705.8819999999832,
      "v": 127
    },
    {
      "midi": 55,
      "hit": false,
      "t": 184588.1430000001,
      "d": 764.7055000000109,
      "v": 127
    },
    {
      "midi": 48,
      "hit": false,
      "t": 185294.0250000001,
      "d": 220.5881250000093,
      "v": 127
    },
    {
      "midi": 55,
      "hit": false,
      "t": 185646.96600000013,
      "d": 477.9409375000105,
      "v": 127
    },
    {
      "midi": 41,
      "hit": false,
      "t": 186352.84800000014,
      "d": 529.4115000000165,
      "v": 127
    },
    {
      "midi": 55,
      "hit": false,
      "t": 186352.84800000014,
      "d": 886.0289687500044,
      "v": 127
    },
    {
      "midi": 52,
      "hit": false,
      "t": 186352.84800000014,
      "d": 926.4701249999925,
      "v": 127
    },
    {
      "midi": 29,
      "hit": false,
      "t": 186352.84800000014,
      "d": 2110.2930624999863,
      "v": 127
    },
    {
      "midi": 41,
      "hit": false,
      "t": 187058.73000000016,
      "d": 1143.3817812499765,
      "v": 127
    },
    {
      "midi": 60,
      "hit": false,
      "t": 187411.67100000015,
      "d": 437.49978124999325,
      "v": 127
    },
    {
      "midi": 52,
      "hit": false,
      "t": 187411.67100000015,
      "d": 584.5585312499898,
      "v": 127
    },
    {
      "midi": 52,
      "hit": false,
      "t": 188117.55300000013,
      "d": 544.1173749999725,
      "v": 127
    },
    {
      "midi": 55,
      "hit": false,
      "t": 188117.55300000013,
      "d": 566.1761874999793,
      "v": 127
    },
    {
      "midi": 41,
      "hit": false,
      "t": 188470.49400000012,
      "d": 69.85290624998743,
      "v": 127
    },
    {
      "midi": 48,
      "hit": false,
      "t": 189176.3760000001,
      "d": 334.55865624998114,
      "v": 127
    },
    {
      "midi": 60,
      "hit": false,
      "t": 189176.3760000001,
      "d": 727.94081249999,
      "v": 127
    },
    {
      "midi": 52,
      "hit": false,
      "t": 189176.3760000001,
      "d": 834.5584062499984,
      "v": 127
    },
    {
      "midi": 36,
      "hit": false,
      "t": 189176.3760000001,
      "d": 970.587750000006,
      "v": 127
    },
    {
      "midi": 55,
      "hit": false,
      "t": 189176.3760000001,
      "d": 1018.3818437500158,
      "v": 127
    },
    {
      "midi": 48,
      "hit": false,
      "t": 189882.2580000001,
      "d": 113.97053125000093,
      "v": 127
    },
    {
      "midi": 53,
      "hit": false,
      "t": 190588.14000000013,
      "d": 327.2057187499886,
      "v": 127
    },
    {
      "midi": 41,
      "hit": false,
      "t": 190588.14000000013,
      "d": 338.2351249999774,
      "v": 127
    },
    {
      "midi": 52,
      "hit": false,
      "t": 190941.08100000012,
      "d": 345.58806249999907,
      "v": 127
    },
    {
      "midi": 40,
      "hit": false,
      "t": 190941.08100000012,
      "d": 422.79390624997905,
      "v": 127
    },
    {
      "midi": 38,
      "hit": false,
      "t": 191294.0220000001,
      "d": 349.26453124999534,
      "v": 127
    },
    {
      "midi": 50,
      "hit": false,
      "t": 191294.0220000001,
      "d": 360.29393749998417,
      "v": 127
    },
    {
      "midi": 48,
      "hit": false,
      "t": 191646.9630000001,
      "d": 249.9998749999795,
      "v": 127
    },
    {
      "midi": 36,
      "hit": false,
      "t": 191646.9630000001,
      "d": 253.67634374997579,
      "v": 127
    },
    {
      "midi": 67,
      "hit": false,
      "t": 191999.90400000007,
      "d": 1349.2640312500007,
      "v": 127
    },
    {
      "midi": 41,
      "hit": false,
      "t": 191999.90400000007,
      "d": 2073.5283750000235,
      "v": 127
    },
    {
      "midi": 48,
      "hit": false,
      "t": 192352.8450000001,
      "d": 1511.0286562499823,
      "v": 127
    },
    {
      "midi": 53,
      "hit": false,
      "t": 192705.78600000008,
      "d": 113.97053125000093,
      "v": 127
    },
    {
      "midi": 55,
      "hit": false,
      "t": 193058.72700000007,
      "d": 426.4703750000044,
      "v": 127
    },
    {
      "midi": 65,
      "hit": false,
      "t": 193411.66800000006,
      "d": 720.5878750000556,
      "v": 127
    },
    {
      "midi": 53,
      "hit": false,
      "t": 193764.60900000008,
      "d": 143.38228125000023,
      "v": 127
    },
    {
      "midi": 64,
      "hit": false,
      "t": 194117.5500000001,
      "d": 448.5291875000112,
      "v": 127
    },
    {
      "midi": 62,
      "hit": false,
      "t": 194823.43200000012,
      "d": 283.0880937500042,
      "v": 127
    },
    {
      "midi": 36,
      "hit": false,
      "t": 194823.43200000012,
      "d": 2132.351875000022,
      "v": 127
    },
    {
      "midi": 55,
      "hit": false,
      "t": 195176.3730000001,
      "d": 128.67640624998603,
      "v": 127
    },
    {
      "midi": 43,
      "hit": false,
      "t": 195176.3730000001,
      "d": 1363.9699062499858,
      "v": 127
    },
    {
      "midi": 55,
      "hit": false,
      "t": 195529.3140000001,
      "d": 128.67640624998603,
      "v": 127
    },
    {
      "midi": 48,
      "hit": false,
      "t": 195529.3140000001,
      "d": 705.8819999999832,
      "v": 127
    },
    {
      "midi": 55,
      "hit": false,
      "t": 195882.2550000001,
      "d": 764.7055000000109,
      "v": 127
    },
    {
      "midi": 48,
      "hit": false,
      "t": 196588.1370000001,
      "d": 220.5881250000093,
      "v": 127
    },
    {
      "midi": 55,
      "hit": false,
      "t": 196941.07800000013,
      "d": 477.9409375000105,
      "v": 127
    },
    {
      "midi": 41,
      "hit": false,
      "t": 197646.96000000014,
      "d": 529.4115000000165,
      "v": 127
    },
    {
      "midi": 55,
      "hit": false,
      "t": 197646.96000000014,
      "d": 886.0289687500044,
      "v": 127
    },
    {
      "midi": 52,
      "hit": false,
      "t": 197646.96000000014,
      "d": 926.4701249999925,
      "v": 127
    },
    {
      "midi": 29,
      "hit": false,
      "t": 197646.96000000014,
      "d": 2110.2930624999863,
      "v": 127
    },
    {
      "midi": 41,
      "hit": false,
      "t": 198352.84200000015,
      "d": 1143.3817812499765,
      "v": 127
    },
    {
      "midi": 60,
      "hit": false,
      "t": 198705.78300000014,
      "d": 437.49978124999325,
      "v": 127
    },
    {
      "midi": 52,
      "hit": false,
      "t": 198705.78300000014,
      "d": 584.5585312499898,
      "v": 127
    },
    {
      "midi": 52,
      "hit": false,
      "t": 199411.66500000012,
      "d": 544.1173749999725,
      "v": 127
    },
    {
      "midi": 55,
      "hit": false,
      "t": 199411.66500000012,
      "d": 566.1761874999793,
      "v": 127
    },
    {
      "midi": 41,
      "hit": false,
      "t": 199764.60600000012,
      "d": 69.85290624998743,
      "v": 127
    },
    {
      "midi": 48,
      "hit": false,
      "t": 200470.4880000001,
      "d": 334.55865624998114,
      "v": 127
    },
    {
      "midi": 60,
      "hit": false,
      "t": 200470.4880000001,
      "d": 727.94081249999,
      "v": 127
    },
    {
      "midi": 52,
      "hit": false,
      "t": 200470.4880000001,
      "d": 834.5584062499984,
      "v": 127
    },
    {
      "midi": 36,
      "hit": false,
      "t": 200470.4880000001,
      "d": 970.587750000006,
      "v": 127
    },
    {
      "midi": 55,
      "hit": false,
      "t": 200470.4880000001,
      "d": 1018.3818437500158,
      "v": 127
    },
    {
      "midi": 48,
      "hit": false,
      "t": 201176.37000000008,
      "d": 113.97053125000093,
      "v": 127
    },
    {
      "midi": 53,
      "hit": false,
      "t": 201882.25200000012,
      "d": 327.2057187499886,
      "v": 127
    },
    {
      "midi": 41,
      "hit": false,
      "t": 201882.25200000012,
      "d": 338.2351249999774,
      "v": 127
    },
    {
      "midi": 52,
      "hit": false,
      "t": 202235.19300000012,
      "d": 345.58806249999907,
      "v": 127
    },
    {
      "midi": 40,
      "hit": false,
      "t": 202235.19300000012,
      "d": 422.79390624997905,
      "v": 127
    },
    {
      "midi": 38,
      "hit": false,
      "t": 202588.1340000001,
      "d": 349.26453124999534,
      "v": 127
    },
    {
      "midi": 50,
      "hit": false,
      "t": 202588.1340000001,
      "d": 360.29393749998417,
      "v": 127
    },
    {
      "midi": 48,
      "hit": false,
      "t": 202941.0750000001,
      "d": 249.9998749999795,
      "v": 127
    },
    {
      "midi": 36,
      "hit": false,
      "t": 202941.0750000001,
      "d": 253.67634374997579,
      "v": 127
    },
    {
      "midi": 67,
      "hit": false,
      "t": 203294.01600000006,
      "d": 1349.2640312500007,
      "v": 127
    },
    {
      "midi": 41,
      "hit": false,
      "t": 203294.01600000006,
      "d": 2073.5283750000235,
      "v": 127
    },
    {
      "midi": 48,
      "hit": false,
      "t": 203646.95700000008,
      "d": 1511.0286562499823,
      "v": 127
    },
    {
      "midi": 53,
      "hit": false,
      "t": 203999.89800000007,
      "d": 113.97053125000093,
      "v": 127
    },
    {
      "midi": 55,
      "hit": false,
      "t": 204352.83900000007,
      "d": 426.4703750000044,
      "v": 127
    },
    {
      "midi": 65,
      "hit": false,
      "t": 204705.78000000006,
      "d": 720.5878750000556,
      "v": 127
    },
    {
      "midi": 53,
      "hit": false,
      "t": 205058.72100000008,
      "d": 143.38228125000023,
      "v": 127
    },
    {
      "midi": 64,
      "hit": false,
      "t": 205411.6620000001,
      "d": 448.5291875000112,
      "v": 127
    },
    {
      "midi": 62,
      "hit": false,
      "t": 206117.5440000001,
      "d": 283.0880937500042,
      "v": 127
    },
    {
      "midi": 36,
      "hit": false,
      "t": 206117.5440000001,
      "d": 2132.351875000022,
      "v": 127
    },
    {
      "midi": 55,
      "hit": false,
      "t": 206470.4850000001,
      "d": 128.67640624998603,
      "v": 127
    },
    {
      "midi": 43,
      "hit": false,
      "t": 206470.4850000001,
      "d": 1363.9699062499858,
      "v": 127
    },
    {
      "midi": 55,
      "hit": false,
      "t": 206823.4260000001,
      "d": 128.67640624998603,
      "v": 127
    },
    {
      "midi": 48,
      "hit": false,
      "t": 206823.4260000001,
      "d": 705.8819999999832,
      "v": 127
    },
    {
      "midi": 55,
      "hit": false,
      "t": 207176.3670000001,
      "d": 764.7055000000109,
      "v": 127
    },
    {
      "midi": 48,
      "hit": false,
      "t": 207882.2490000001,
      "d": 220.5881250000093,
      "v": 127
    },
    {
      "midi": 55,
      "hit": false,
      "t": 208235.19000000012,
      "d": 477.9409375000105,
      "v": 127
    },
    {
      "midi": 41,
      "hit": false,
      "t": 208941.07200000013,
      "d": 529.4115000000165,
      "v": 127
    },
    {
      "midi": 55,
      "hit": false,
      "t": 208941.07200000013,
      "d": 886.0289687500044,
      "v": 127
    },
    {
      "midi": 52,
      "hit": false,
      "t": 208941.07200000013,
      "d": 926.4701249999925,
      "v": 127
    },
    {
      "midi": 29,
      "hit": false,
      "t": 208941.07200000013,
      "d": 2110.2930624999863,
      "v": 127
    },
    {
      "midi": 41,
      "hit": false,
      "t": 209646.95400000014,
      "d": 1143.3817812499765,
      "v": 127
    },
    {
      "midi": 60,
      "hit": false,
      "t": 209999.89500000014,
      "d": 437.49978124999325,
      "v": 127
    },
    {
      "midi": 52,
      "hit": false,
      "t": 209999.89500000014,
      "d": 584.5585312499898,
      "v": 127
    },
    {
      "midi": 52,
      "hit": false,
      "t": 210705.77700000012,
      "d": 544.1173749999725,
      "v": 127
    },
    {
      "midi": 55,
      "hit": false,
      "t": 210705.77700000012,
      "d": 566.1761874999793,
      "v": 127
    },
    {
      "midi": 41,
      "hit": false,
      "t": 211058.7180000001,
      "d": 69.85290624998743,
      "v": 127
    },
    {
      "midi": 48,
      "hit": false,
      "t": 211764.6000000001,
      "d": 334.55865624998114,
      "v": 127
    },
    {
      "midi": 60,
      "hit": false,
      "t": 211764.6000000001,
      "d": 727.94081249999,
      "v": 127
    },
    {
      "midi": 52,
      "hit": false,
      "t": 211764.6000000001,
      "d": 834.5584062499984,
      "v": 127
    },
    {
      "midi": 36,
      "hit": false,
      "t": 211764.6000000001,
      "d": 970.587750000006,
      "v": 127
    },
    {
      "midi": 55,
      "hit": false,
      "t": 211764.6000000001,
      "d": 1018.3818437500158,
      "v": 127
    },
    {
      "midi": 48,
      "hit": false,
      "t": 212470.48200000008,
      "d": 113.97053125000093,
      "v": 127
    },
    {
      "midi": 53,
      "hit": false,
      "t": 213176.36400000012,
      "d": 327.2057187499886,
      "v": 127
    },
    {
      "midi": 41,
      "hit": false,
      "t": 213176.36400000012,
      "d": 338.2351249999774,
      "v": 127
    },
    {
      "midi": 52,
      "hit": false,
      "t": 213529.3050000001,
      "d": 345.58806249999907,
      "v": 127
    },
    {
      "midi": 40,
      "hit": false,
      "t": 213529.3050000001,
      "d": 422.79390624997905,
      "v": 127
    },
    {
      "midi": 38,
      "hit": false,
      "t": 213882.2460000001,
      "d": 349.26453124999534,
      "v": 127
    },
    {
      "midi": 50,
      "hit": false,
      "t": 213882.2460000001,
      "d": 360.29393749998417,
      "v": 127
    },
    {
      "midi": 48,
      "hit": false,
      "t": 214235.1870000001,
      "d": 249.9998749999795,
      "v": 127
    },
    {
      "midi": 36,
      "hit": false,
      "t": 214235.1870000001,
      "d": 253.67634374997579,
      "v": 127
    },
    {
      "midi": 67,
      "hit": false,
      "t": 214588.12800000006,
      "d": 1349.2640312500007,
      "v": 127
    },
    {
      "midi": 41,
      "hit": false,
      "t": 214588.12800000006,
      "d": 2073.5283750000235,
      "v": 127
    },
    {
      "midi": 48,
      "hit": false,
      "t": 214941.06900000008,
      "d": 1511.0286562499823,
      "v": 127
    },
    {
      "midi": 53,
      "hit": false,
      "t": 215294.01000000007,
      "d": 113.97053125000093,
      "v": 127
    },
    {
      "midi": 55,
      "hit": false,
      "t": 215646.95100000006,
      "d": 426.4703750000044,
      "v": 127
    },
    {
      "midi": 65,
      "hit": false,
      "t": 215999.89200000005,
      "d": 720.5878750000556,
      "v": 127
    },
    {
      "midi": 53,
      "hit": false,
      "t": 216352.83300000007,
      "d": 143.38228125000023,
      "v": 127
    },
    {
      "midi": 64,
      "hit": false,
      "t": 216705.7740000001,
      "d": 448.5291875000112,
      "v": 127
    },
    {
      "midi": 62,
      "hit": false,
      "t": 217411.6560000001,
      "d": 283.0880937500042,
      "v": 127
    },
    {
      "midi": 36,
      "hit": false,
      "t": 217411.6560000001,
      "d": 2132.351875000022,
      "v": 127
    },
    {
      "midi": 55,
      "hit": false,
      "t": 217764.5970000001,
      "d": 128.67640624998603,
      "v": 127
    },
    {
      "midi": 43,
      "hit": false,
      "t": 217764.5970000001,
      "d": 1363.9699062499858,
      "v": 127
    },
    {
      "midi": 55,
      "hit": false,
      "t": 218117.5380000001,
      "d": 128.67640624998603,
      "v": 127
    },
    {
      "midi": 48,
      "hit": false,
      "t": 218117.5380000001,
      "d": 705.8819999999832,
      "v": 127
    },
    {
      "midi": 55,
      "hit": false,
      "t": 218470.47900000008,
      "d": 764.7055000000109,
      "v": 127
    },
    {
      "midi": 48,
      "hit": false,
      "t": 219176.3610000001,
      "d": 220.5881250000093,
      "v": 127
    },
    {
      "midi": 55,
      "hit": false,
      "t": 219529.3020000001,
      "d": 477.9409375000105,
      "v": 127
    },
    {
      "midi": 41,
      "hit": false,
      "t": 220235.18400000012,
      "d": 529.4115000000165,
      "v": 127
    },
    {
      "midi": 55,
      "hit": false,
      "t": 220235.18400000012,
      "d": 886.0289687500044,
      "v": 127
    },
    {
      "midi": 52,
      "hit": false,
      "t": 220235.18400000012,
      "d": 926.4701249999925,
      "v": 127
    },
    {
      "midi": 29,
      "hit": false,
      "t": 220235.18400000012,
      "d": 2110.2930624999863,
      "v": 127
    },
    {
      "midi": 41,
      "hit": false,
      "t": 220941.06600000014,
      "d": 1143.3817812499765,
      "v": 127
    },
    {
      "midi": 60,
      "hit": false,
      "t": 221294.00700000013,
      "d": 437.49978124999325,
      "v": 127
    },
    {
      "midi": 52,
      "hit": false,
      "t": 221294.00700000013,
      "d": 584.5585312499898,
      "v": 127
    },
    {
      "midi": 52,
      "hit": false,
      "t": 221999.8890000001,
      "d": 544.1173749999725,
      "v": 127
    },
    {
      "midi": 55,
      "hit": false,
      "t": 221999.8890000001,
      "d": 566.1761874999793,
      "v": 127
    },
    {
      "midi": 41,
      "hit": false,
      "t": 222352.8300000001,
      "d": 69.85290624998743,
      "v": 127
    },
    {
      "midi": 48,
      "hit": false,
      "t": 223058.7120000001,
      "d": 334.55865624998114,
      "v": 127
    },
    {
      "midi": 60,
      "hit": false,
      "t": 223058.7120000001,
      "d": 727.94081249999,
      "v": 127
    },
    {
      "midi": 52,
      "hit": false,
      "t": 223058.7120000001,
      "d": 834.5584062499984,
      "v": 127
    },
    {
      "midi": 36,
      "hit": false,
      "t": 223058.7120000001,
      "d": 970.587750000006,
      "v": 127
    },
    {
      "midi": 55,
      "hit": false,
      "t": 223058.7120000001,
      "d": 1018.3818437500158,
      "v": 127
    },
    {
      "midi": 48,
      "hit": false,
      "t": 223764.59400000007,
      "d": 113.97053125000093,
      "v": 127
    },
    {
      "midi": 53,
      "hit": false,
      "t": 224470.4760000001,
      "d": 327.2057187499886,
      "v": 127
    },
    {
      "midi": 41,
      "hit": false,
      "t": 224470.4760000001,
      "d": 338.2351249999774,
      "v": 127
    },
    {
      "midi": 52,
      "hit": false,
      "t": 224823.4170000001,
      "d": 345.58806249999907,
      "v": 127
    },
    {
      "midi": 40,
      "hit": false,
      "t": 224823.4170000001,
      "d": 422.79390624997905,
      "v": 127
    },
    {
      "midi": 38,
      "hit": false,
      "t": 225176.3580000001,
      "d": 349.26453124999534,
      "v": 127
    },
    {
      "midi": 50,
      "hit": false,
      "t": 225176.3580000001,
      "d": 360.29393749998417,
      "v": 127
    },
    {
      "midi": 48,
      "hit": false,
      "t": 225529.2990000001,
      "d": 249.9998749999795,
      "v": 127
    },
    {
      "midi": 36,
      "hit": false,
      "t": 225529.2990000001,
      "d": 253.67634374997579,
      "v": 127
    },
    {
      "midi": 29,
      "hit": false,
      "t": 225937.38703125005,
      "d": 5544.114874999941,
      "v": 127
    },
    {
      "midi": 60,
      "hit": false,
      "t": 225941.06350000005,
      "d": 1522.0580624999711,
      "v": 127
    },
    {
      "midi": 41,
      "hit": false,
      "t": 225944.73996875004,
      "d": 5481.614906249946,
      "v": 127
    },
    {
      "midi": 65,
      "hit": false,
      "t": 226014.59287500003,
      "d": 1566.1756874999846,
      "v": 127
    },
    {
      "midi": 69,
      "hit": false,
      "t": 226102.82812500003,
      "d": 1470.5874999999942,
      "v": 127
    },
    {
      "midi": 60,
      "hit": false,
      "t": 227606.50384375002,
      "d": 1007.3524374999979,
      "v": 127
    },
    {
      "midi": 65,
      "hit": false,
      "t": 227955.768375,
      "d": 698.5290624999907,
      "v": 127
    },
    {
      "midi": 69,
      "hit": false,
      "t": 228305.03290625,
      "d": 463.2350624999963,
      "v": 127
    },
    {
      "midi": 72,
      "hit": false,
      "t": 228735.17975,
      "d": 102.941124999983,
      "v": 127
    },
    {
      "midi": 77,
      "hit": false,
      "t": 229279.29712499998,
      "d": 102.94112500001211,
      "v": 127
    },
    {
      "midi": 81,
      "hit": false,
      "t": 229871.20859375,
      "d": 106.61759375000838,
      "v": 127
    },
    {
      "midi": 84,
      "hit": false,
      "t": 230566.0611875,
      "d": 47.79409375000978,
      "v": 127
    },
    {
      "midi": 36,
      "hit": false,
      "t": 231573.413625,
      "d": 4014.7038750000356,
      "v": 127
    },
    {
      "midi": 60,
      "hit": false,
      "t": 231584.44303124998,
      "d": 459.55859375,
      "v": 127
    },
    {
      "midi": 52,
      "hit": false,
      "t": 231584.44303124998,
      "d": 518.3820937499986,
      "v": 127
    },
    {
      "midi": 55,
      "hit": false,
      "t": 231992.53106249997,
      "d": 529.4115000000165,
      "v": 127
    },
    {
      "midi": 43,
      "hit": false,
      "t": 232007.23693749998,
      "d": 3555.1452812500356,
      "v": 127
    },
    {
      "midi": 52,
      "hit": false,
      "t": 232529.29549999998,
      "d": 672.7937812500168,
      "v": 127
    },
    {
      "midi": 48,
      "hit": false,
      "t": 232544.001375,
      "d": 172.79403124999953,
      "v": 127
    },
    {
      "midi": 50,
      "hit": false,
      "t": 233117.5305,
      "d": 187.49990625001374,
      "v": 127
    },
    {
      "midi": 60,
      "hit": false,
      "t": 233121.20696875,
      "d": 99.26465625001583,
      "v": 127
    },
    {
      "midi": 64,
      "hit": false,
      "t": 233808.70662500002,
      "d": 996.3230312500091,
      "v": 127
    },
    {
      "midi": 67,
      "hit": false,
      "t": 234702.08853125002,
      "d": 547.7938437499979,
      "v": 127
    }
  ]
}