{
  "jsonPath": "Jazz/Jazz Funk/Brian Bromberg/a-remark-you-made.json",
  "path": "Jazz\\Jazz Funk\\Brian Bromberg\\A Remark You Made.mid",
  "name": "A Remark You Made",
  "difficulty": "Advanced",
  "bpm": 60,
  "notes": [
    {
      "midi": 67,
      "hit": false,
      "t": 791.6666666666666,
      "d": 1566.666666666667,
      "v": 37
    },
    {
      "midi": 60,
      "hit": false,
      "t": 791.6666666666666,
      "d": 1716.666666666667,
      "v": 30
    },
    {
      "midi": 62,
      "hit": false,
      "t": 800,
      "d": 1633.3333333333335,
      "v": 44
    },
    {
      "midi": 55,
      "hit": false,
      "t": 808.3333333333334,
      "d": 1608.3333333333335,
      "v": 27
    },
    {
      "midi": 46,
      "hit": false,
      "t": 816.6666666666666,
      "d": 1675,
      "v": 27
    },
    {
      "midi": 39,
      "hit": false,
      "t": 833.3333333333333,
      "d": 2808.333333333334,
      "v": 31
    },
    {
      "midi": 58,
      "hit": false,
      "t": 2925,
      "d": 500,
      "v": 70
    },
    {
      "midi": 46,
      "hit": false,
      "t": 2925,
      "d": 533.3333333333335,
      "v": 49
    },
    {
      "midi": 60,
      "hit": false,
      "t": 3450,
      "d": 175,
      "v": 22
    },
    {
      "midi": 48,
      "hit": false,
      "t": 3491.6666666666665,
      "d": 158.33333333333348,
      "v": 32
    },
    {
      "midi": 58,
      "hit": false,
      "t": 3566.6666666666665,
      "d": 208.33333333333348,
      "v": 49
    },
    {
      "midi": 46,
      "hit": false,
      "t": 3591.666666666667,
      "d": 133.33333333333348,
      "v": 33
    },
    {
      "midi": 55,
      "hit": false,
      "t": 3733.333333333334,
      "d": 333.3333333333335,
      "v": 59
    },
    {
      "midi": 43,
      "hit": false,
      "t": 3791.6666666666674,
      "d": 350.00000000000045,
      "v": 50
    },
    {
      "midi": 58,
      "hit": false,
      "t": 4058.3333333333335,
      "d": 466.6666666666674,
      "v": 68
    },
    {
      "midi": 46,
      "hit": false,
      "t": 4091.6666666666674,
      "d": 416.6666666666674,
      "v": 46
    },
    {
      "midi": 60,
      "hit": false,
      "t": 4483.333333333334,
      "d": 400,
      "v": 43
    },
    {
      "midi": 48,
      "hit": false,
      "t": 4500.000000000001,
      "d": 400,
      "v": 45
    },
    {
      "midi": 63,
      "hit": false,
      "t": 4925.000000000001,
      "d": 408.33333333333303,
      "v": 44
    },
    {
      "midi": 51,
      "hit": false,
      "t": 4925.000000000002,
      "d": 500,
      "v": 36
    },
    {
      "midi": 65,
      "hit": false,
      "t": 5450.000000000001,
      "d": 275,
      "v": 35
    },
    {
      "midi": 53,
      "hit": false,
      "t": 5466.666666666669,
      "d": 133.33333333333303,
      "v": 28
    },
    {
      "midi": 58,
      "hit": false,
      "t": 6450.000000000002,
      "d": 1608.333333333333,
      "v": 43
    },
    {
      "midi": 60,
      "hit": false,
      "t": 6491.666666666669,
      "d": 1533.333333333333,
      "v": 30
    },
    {
      "midi": 68,
      "hit": false,
      "t": 6500.000000000001,
      "d": 100,
      "v": 42
    },
    {
      "midi": 72,
      "hit": false,
      "t": 6566.666666666668,
      "d": 191.66666666666606,
      "v": 55
    },
    {
      "midi": 75,
      "hit": false,
      "t": 6608.333333333334,
      "d": 200,
      "v": 49
    },
    {
      "midi": 63,
      "hit": false,
      "t": 6641.666666666669,
      "d": 1350,
      "v": 29
    },
    {
      "midi": 68,
      "hit": false,
      "t": 6666.666666666669,
      "d": 1325,
      "v": 37
    },
    {
      "midi": 79,
      "hit": false,
      "t": 6700.000000000001,
      "d": 175,
      "v": 52
    },
    {
      "midi": 91,
      "hit": false,
      "t": 7041.666666666668,
      "d": 66.66666666666697,
      "v": 64
    },
    {
      "midi": 105,
      "hit": false,
      "t": 7441.666666666668,
      "d": 75,
      "v": 45
    },
    {
      "midi": 103,
      "hit": false,
      "t": 7458.333333333335,
      "d": 58.33333333333303,
      "v": 43
    },
    {
      "midi": 103,
      "hit": false,
      "t": 7891.666666666668,
      "d": 275,
      "v": 44
    },
    {
      "midi": 103,
      "hit": false,
      "t": 8358.333333333334,
      "d": 333.33333333333394,
      "v": 48
    },
    {
      "midi": 103,
      "hit": false,
      "t": 8850.000000000002,
      "d": 233.33333333333394,
      "v": 28
    },
    {
      "midi": 22,
      "hit": false,
      "t": 9341.666666666668,
      "d": 483.33333333333394,
      "v": 31
    },
    {
      "midi": 82,
      "hit": false,
      "t": 11033.333333333336,
      "d": 333.33333333333394,
      "v": 45
    },
    {
      "midi": 79,
      "hit": false,
      "t": 13425.000000000004,
      "d": 383.3333333333321,
      "v": 55
    },
    {
      "midi": 63,
      "hit": false,
      "t": 13466.666666666668,
      "d": 833.3333333333339,
      "v": 38
    },
    {
      "midi": 70,
      "hit": false,
      "t": 13466.66666666667,
      "d": 508.3333333333321,
      "v": 39
    },
    {
      "midi": 79,
      "hit": false,
      "t": 13933.333333333336,
      "d": 158.33333333333212,
      "v": 53
    },
    {
      "midi": 62,
      "hit": false,
      "t": 14308.333333333336,
      "d": 783.3333333333339,
      "v": 39
    },
    {
      "midi": 79,
      "hit": false,
      "t": 14316.666666666668,
      "d": 275,
      "v": 50
    },
    {
      "midi": 75,
      "hit": false,
      "t": 14333.333333333334,
      "d": 416.6666666666679,
      "v": 37
    },
    {
      "midi": 70,
      "hit": false,
      "t": 14366.666666666668,
      "d": 308.33333333333394,
      "v": 11
    },
    {
      "midi": 79,
      "hit": false,
      "t": 14716.666666666668,
      "d": 200,
      "v": 57
    },
    {
      "midi": 79,
      "hit": false,
      "t": 15108.333333333334,
      "d": 191.66666666666606,
      "v": 47
    },
    {
      "midi": 60,
      "hit": false,
      "t": 15116.66666666667,
      "d": 1100,
      "v": 34
    },
    {
      "midi": 75,
      "hit": false,
      "t": 15125,
      "d": 258.33333333333394,
      "v": 46
    },
    {
      "midi": 70,
      "hit": false,
      "t": 15166.666666666666,
      "d": 358.33333333333394,
      "v": 25
    },
    {
      "midi": 82,
      "hit": false,
      "t": 15591.666666666666,
      "d": 933.3333333333339,
      "v": 65
    },
    {
      "midi": 58,
      "hit": false,
      "t": 16225.000000000004,
      "d": 975,
      "v": 49
    },
    {
      "midi": 70,
      "hit": false,
      "t": 17108.333333333332,
      "d": 808.3333333333321,
      "v": 78
    },
    {
      "midi": 72,
      "hit": false,
      "t": 18266.666666666664,
      "d": 125,
      "v": 53
    },
    {
      "midi": 67,
      "hit": false,
      "t": 18274.999999999996,
      "d": 91.66666666666788,
      "v": 66
    },
    {
      "midi": 60,
      "hit": false,
      "t": 18283.33333333333,
      "d": 41.66666666666788,
      "v": 59
    },
    {
      "midi": 44,
      "hit": false,
      "t": 18283.333333333336,
      "d": 66.66666666666424,
      "v": 65
    },
    {
      "midi": 32,
      "hit": false,
      "t": 18291.666666666668,
      "d": 75,
      "v": 58
    },
    {
      "midi": 38,
      "hit": false,
      "t": 18883.333333333336,
      "d": 591.6666666666679,
      "v": 54
    },
    {
      "midi": 77,
      "hit": false,
      "t": 18899.999999999996,
      "d": 700,
      "v": 59
    },
    {
      "midi": 66,
      "hit": false,
      "t": 18899.999999999996,
      "d": 933.3333333333358,
      "v": 55
    },
    {
      "midi": 26,
      "hit": false,
      "t": 18900.000000000004,
      "d": 500,
      "v": 45
    },
    {
      "midi": 72,
      "hit": false,
      "t": 18908.33333333333,
      "d": 758.3333333333358,
      "v": 53
    },
    {
      "midi": 71,
      "hit": false,
      "t": 20900,
      "d": 766.6666666666642,
      "v": 42
    },
    {
      "midi": 68,
      "hit": false,
      "t": 20908.333333333332,
      "d": 758.3333333333321,
      "v": 35
    },
    {
      "midi": 65,
      "hit": false,
      "t": 20916.666666666664,
      "d": 700,
      "v": 28
    },
    {
      "midi": 74,
      "hit": false,
      "t": 20916.666666666664,
      "d": 775,
      "v": 43
    },
    {
      "midi": 31,
      "hit": false,
      "t": 20925.000000000004,
      "d": 791.6666666666642,
      "v": 38
    },
    {
      "midi": 43,
      "hit": false,
      "t": 20933.333333333336,
      "d": 833.3333333333321,
      "v": 30
    },
    {
      "midi": 88,
      "hit": false,
      "t": 22341.666666666664,
      "d": 175.00000000000364,
      "v": 36
    },
    {
      "midi": 84,
      "hit": false,
      "t": 22383.333333333332,
      "d": 1366.6666666666715,
      "v": 48
    },
    {
      "midi": 86,
      "hit": false,
      "t": 22400,
      "d": 83.33333333333576,
      "v": 28
    },
    {
      "midi": 80,
      "hit": false,
      "t": 22416.666666666668,
      "d": 1491.6666666666679,
      "v": 37
    },
    {
      "midi": 79,
      "hit": false,
      "t": 22533.333333333336,
      "d": 1366.6666666666679,
      "v": 24
    },
    {
      "midi": 72,
      "hit": false,
      "t": 25908.333333333336,
      "d": 1491.6666666666642,
      "v": 46
    },
    {
      "midi": 60,
      "hit": false,
      "t": 26358.333333333336,
      "d": 1233.3333333333321,
      "v": 24
    },
    {
      "midi": 67,
      "hit": false,
      "t": 26725.000000000004,
      "d": 633.3333333333321,
      "v": 37
    },
    {
      "midi": 74,
      "hit": false,
      "t": 27041.66666666667,
      "d": 349.99999999999636,
      "v": 71
    },
    {
      "midi": 75,
      "hit": false,
      "t": 27350.000000000004,
      "d": 299.99999999999636,
      "v": 75
    },
    {
      "midi": 72,
      "hit": false,
      "t": 27658.333333333332,
      "d": 2408.3333333333358,
      "v": 49
    },
    {
      "midi": 80,
      "hit": false,
      "t": 28033.333333333332,
      "d": 1641.6666666666679,
      "v": 47
    },
    {
      "midi": 48,
      "hit": false,
      "t": 28050,
      "d": 1725,
      "v": 31
    },
    {
      "midi": 56,
      "hit": false,
      "t": 28450,
      "d": 1425,
      "v": 33
    },
    {
      "midi": 60,
      "hit": false,
      "t": 28950,
      "d": 966.6666666666679,
      "v": 28
    },
    {
      "midi": 80,
      "hit": false,
      "t": 30016.666666666668,
      "d": 266.6666666666679,
      "v": 47
    },
    {
      "midi": 79,
      "hit": false,
      "t": 30591.666666666668,
      "d": 91.66666666666788,
      "v": 46
    },
    {
      "midi": 59,
      "hit": false,
      "t": 30891.666666666668,
      "d": 225,
      "v": 31
    },
    {
      "midi": 62,
      "hit": false,
      "t": 31191.666666666668,
      "d": 91.66666666666788,
      "v": 43
    },
    {
      "midi": 77,
      "hit": false,
      "t": 31483.333333333336,
      "d": 166.66666666666788,
      "v": 57
    },
    {
      "midi": 75,
      "hit": false,
      "t": 31750.000000000004,
      "d": 166.66666666666788,
      "v": 45
    },
    {
      "midi": 58,
      "hit": false,
      "t": 32016.666666666668,
      "d": 216.66666666666788,
      "v": 34
    },
    {
      "midi": 63,
      "hit": false,
      "t": 32325.000000000004,
      "d": 150,
      "v": 35
    },
    {
      "midi": 79,
      "hit": false,
      "t": 32983.333333333336,
      "d": 133.33333333333576,
      "v": 51
    },
    {
      "midi": 77,
      "hit": false,
      "t": 33258.333333333336,
      "d": 141.66666666666424,
      "v": 50
    },
    {
      "midi": 57,
      "hit": false,
      "t": 33516.66666666667,
      "d": 400,
      "v": 43
    },
    {
      "midi": 65,
      "hit": false,
      "t": 33825,
      "d": 100,
      "v": 33
    },
    {
      "midi": 75,
      "hit": false,
      "t": 34125,
      "d": 200,
      "v": 42
    },
    {
      "midi": 74,
      "hit": false,
      "t": 34425,
      "d": 233.33333333333576,
      "v": 48
    },
    {
      "midi": 56,
      "hit": false,
      "t": 34741.66666666667,
      "d": 516.6666666666642,
      "v": 47
    },
    {
      "midi": 65,
      "hit": false,
      "t": 35150,
      "d": 91.66666666666424,
      "v": 32
    },
    {
      "midi": 72,
      "hit": false,
      "t": 35600,
      "d": 391.66666666666424,
      "v": 46
    },
    {
      "midi": 70,
      "hit": false,
      "t": 36033.33333333333,
      "d": 983.3333333333358,
      "v": 50
    },
    {
      "midi": 55,
      "hit": false,
      "t": 36083.333333333336,
      "d": 750,
      "v": 22
    },
    {
      "midi": 62,
      "hit": false,
      "t": 36391.66666666667,
      "d": 391.66666666666424,
      "v": 43
    },
    {
      "midi": 67,
      "hit": false,
      "t": 36683.333333333336,
      "d": 625,
      "v": 59
    },
    {
      "midi": 77,
      "hit": false,
      "t": 36966.666666666664,
      "d": 300,
      "v": 68
    },
    {
      "midi": 75,
      "hit": false,
      "t": 37333.33333333333,
      "d": 358.33333333333576,
      "v": 59
    },
    {
      "midi": 48,
      "hit": false,
      "t": 37341.66666666667,
      "d": 1158.3333333333358,
      "v": 41
    },
    {
      "midi": 55,
      "hit": false,
      "t": 37725.00000000001,
      "d": 933.3333333333358,
      "v": 33
    },
    {
      "midi": 67,
      "hit": false,
      "t": 38133.33333333333,
      "d": 391.66666666666424,
      "v": 40
    },
    {
      "midi": 67,
      "hit": false,
      "t": 38574.99999999999,
      "d": 158.33333333333576,
      "v": 40
    },
    {
      "midi": 68,
      "hit": false,
      "t": 39041.666666666664,
      "d": 1875.0000000000073,
      "v": 42
    },
    {
      "midi": 63,
      "hit": false,
      "t": 39050,
      "d": 1866.6666666666715,
      "v": 45
    },
    {
      "midi": 60,
      "hit": false,
      "t": 39058.333333333336,
      "d": 1425,
      "v": 22
    },
    {
      "midi": 56,
      "hit": false,
      "t": 39058.33333333334,
      "d": 2758.3333333333358,
      "v": 51
    },
    {
      "midi": 48,
      "hit": false,
      "t": 39066.66666666668,
      "d": 2550,
      "v": 43
    },
    {
      "midi": 60,
      "hit": false,
      "t": 40858.333333333336,
      "d": 183.33333333333576,
      "v": 80
    },
    {
      "midi": 63,
      "hit": false,
      "t": 41091.66666666667,
      "d": 191.66666666666424,
      "v": 90
    },
    {
      "midi": 68,
      "hit": false,
      "t": 41325,
      "d": 458.3333333333285,
      "v": 85
    },
    {
      "midi": 63,
      "hit": false,
      "t": 41591.666666666664,
      "d": 275,
      "v": 76
    },
    {
      "midi": 62,
      "hit": false,
      "t": 41950,
      "d": 600,
      "v": 50
    },
    {
      "midi": 67,
      "hit": false,
      "t": 41958.333333333336,
      "d": 758.3333333333285,
      "v": 51
    },
    {
      "midi": 55,
      "hit": false,
      "t": 41966.66666666668,
      "d": 375,
      "v": 34
    },
    {
      "midi": 47,
      "hit": false,
      "t": 41975.000000000015,
      "d": 1425,
      "v": 34
    },
    {
      "midi": 55,
      "hit": false,
      "t": 42741.66666666668,
      "d": 658.3333333333358,
      "v": 37
    },
    {
      "midi": 79,
      "hit": false,
      "t": 43341.666666666664,
      "d": 383.33333333333576,
      "v": 66
    },
    {
      "midi": 71,
      "hit": false,
      "t": 43391.666666666664,
      "d": 333.33333333333576,
      "v": 65
    },
    {
      "midi": 59,
      "hit": false,
      "t": 43416.66666666668,
      "d": 400,
      "v": 41
    },
    {
      "midi": 71,
      "hit": false,
      "t": 43833.333333333336,
      "d": 75,
      "v": 43
    },
    {
      "midi": 79,
      "hit": false,
      "t": 43833.333333333336,
      "d": 133.33333333333576,
      "v": 55
    },
    {
      "midi": 62,
      "hit": false,
      "t": 43858.33333333334,
      "d": 641.6666666666715,
      "v": 41
    },
    {
      "midi": 86,
      "hit": false,
      "t": 44316.66666666667,
      "d": 1241.6666666666715,
      "v": 53
    },
    {
      "midi": 79,
      "hit": false,
      "t": 44350.00000000001,
      "d": 2516.6666666666642,
      "v": 46
    },
    {
      "midi": 74,
      "hit": false,
      "t": 44366.66666666668,
      "d": 983.3333333333285,
      "v": 56
    },
    {
      "midi": 67,
      "hit": false,
      "t": 44375.000000000015,
      "d": 733.3333333333285,
      "v": 35
    },
    {
      "midi": 71,
      "hit": false,
      "t": 45016.66666666668,
      "d": 1266.6666666666642,
      "v": 36
    },
    {
      "midi": 74,
      "hit": false,
      "t": 45600.00000000001,
      "d": 1283.3333333333358,
      "v": 44
    },
    {
      "midi": 84,
      "hit": false,
      "t": 46558.33333333334,
      "d": 241.66666666666424,
      "v": 46
    },
    {
      "midi": 83,
      "hit": false,
      "t": 46883.333333333336,
      "d": 158.33333333333576,
      "v": 51
    },
    {
      "midi": 86,
      "hit": false,
      "t": 47458.333333333336,
      "d": 1141.6666666666715,
      "v": 44
    },
    {
      "midi": 83,
      "hit": false,
      "t": 47508.333333333336,
      "d": 1108.3333333333358,
      "v": 41
    },
    {
      "midi": 79,
      "hit": false,
      "t": 47541.66666666667,
      "d": 1200,
      "v": 38
    },
    {
      "midi": 51,
      "hit": false,
      "t": 47575.00000000001,
      "d": 1625.0000000000073,
      "v": 30
    },
    {
      "midi": 59,
      "hit": false,
      "t": 47583.33333333334,
      "d": 1583.3333333333358,
      "v": 30
    },
    {
      "midi": 74,
      "hit": false,
      "t": 47641.66666666667,
      "d": 1183.3333333333358,
      "v": 13
    },
    {
      "midi": 84,
      "hit": false,
      "t": 49008.33333333334,
      "d": 250,
      "v": 51
    },
    {
      "midi": 79,
      "hit": false,
      "t": 49283.33333333334,
      "d": 125,
      "v": 37
    },
    {
      "midi": 82,
      "hit": false,
      "t": 49583.33333333334,
      "d": 2333.3333333333285,
      "v": 49
    },
    {
      "midi": 53,
      "hit": false,
      "t": 49608.33333333335,
      "d": 416.6666666666715,
      "v": 30
    },
    {
      "midi": 60,
      "hit": false,
      "t": 49916.666666666686,
      "d": 250,
      "v": 31
    },
    {
      "midi": 67,
      "hit": false,
      "t": 50200.00000000002,
      "d": 316.66666666666424,
      "v": 34
    },
    {
      "midi": 68,
      "hit": false,
      "t": 50550.00000000002,
      "d": 1175,
      "v": 29
    },
    {
      "midi": 70,
      "hit": false,
      "t": 50900.00000000001,
      "d": 1141.6666666666642,
      "v": 31
    },
    {
      "midi": 63,
      "hit": false,
      "t": 52716.66666666667,
      "d": 1158.3333333333285,
      "v": 40
    },
    {
      "midi": 60,
      "hit": false,
      "t": 52833.333333333336,
      "d": 850,
      "v": 29
    },
    {
      "midi": 56,
      "hit": false,
      "t": 52833.33333333336,
      "d": 891.6666666666715,
      "v": 46
    },
    {
      "midi": 41,
      "hit": false,
      "t": 52916.66666666669,
      "d": 858.3333333333358,
      "v": 33
    },
    {
      "midi": 55,
      "hit": false,
      "t": 52933.333333333336,
      "d": 708.3333333333358,
      "v": 33
    },
    {
      "midi": 51,
      "hit": false,
      "t": 52941.66666666669,
      "d": 941.6666666666715,
      "v": 25
    },
    {
      "midi": 63,
      "hit": false,
      "t": 55166.666666666664,
      "d": 250,
      "v": 51
    },
    {
      "midi": 51,
      "hit": false,
      "t": 55191.6666666667,
      "d": 358.33333333333576,
      "v": 35
    },
    {
      "midi": 56,
      "hit": false,
      "t": 55433.33333333333,
      "d": 266.6666666666715,
      "v": 56
    },
    {
      "midi": 68,
      "hit": false,
      "t": 55441.666666666664,
      "d": 341.6666666666715,
      "v": 58
    },
    {
      "midi": 65,
      "hit": false,
      "t": 55733.333333333336,
      "d": 466.6666666666715,
      "v": 66
    },
    {
      "midi": 53,
      "hit": false,
      "t": 55741.6666666667,
      "d": 483.33333333333576,
      "v": 39
    },
    {
      "midi": 58,
      "hit": false,
      "t": 56066.6666666667,
      "d": 200,
      "v": 40
    },
    {
      "midi": 70,
      "hit": false,
      "t": 56091.66666666667,
      "d": 208.33333333333576,
      "v": 62
    },
    {
      "midi": 68,
      "hit": false,
      "t": 56583.33333333334,
      "d": 375,
      "v": 46
    },
    {
      "midi": 60,
      "hit": false,
      "t": 56591.66666666668,
      "d": 300,
      "v": 27
    },
    {
      "midi": 63,
      "hit": false,
      "t": 56608.33333333334,
      "d": 391.66666666666424,
      "v": 38
    },
    {
      "midi": 51,
      "hit": false,
      "t": 56608.333333333365,
      "d": 1791.6666666666642,
      "v": 36
    },
    {
      "midi": 72,
      "hit": false,
      "t": 57358.33333333334,
      "d": 350,
      "v": 61
    },
    {
      "midi": 70,
      "hit": false,
      "t": 57733.33333333334,
      "d": 300,
      "v": 62
    },
    {
      "midi": 77,
      "hit": false,
      "t": 58083.33333333334,
      "d": 275,
      "v": 74
    },
    {
      "midi": 70,
      "hit": false,
      "t": 58483.33333333334,
      "d": 441.66666666666424,
      "v": 36
    },
    {
      "midi": 74,
      "hit": false,
      "t": 58483.33333333334,
      "d": 450,
      "v": 60
    },
    {
      "midi": 58,
      "hit": false,
      "t": 58491.66666666669,
      "d": 1600,
      "v": 25
    },
    {
      "midi": 50,
      "hit": false,
      "t": 58508.33333333336,
      "d": 1450,
      "v": 40
    },
    {
      "midi": 79,
      "hit": false,
      "t": 58983.33333333334,
      "d": 1266.6666666666642,
      "v": 55
    },
    {
      "midi": 77,
      "hit": false,
      "t": 60350.00000000001,
      "d": 716.6666666666642,
      "v": 60
    },
    {
      "midi": 76,
      "hit": false,
      "t": 61050.00000000001,
      "d": 108.33333333332848,
      "v": 38
    },
    {
      "midi": 75,
      "hit": false,
      "t": 61158.333333333336,
      "d": 175,
      "v": 40
    },
    {
      "midi": 74,
      "hit": false,
      "t": 61283.333333333336,
      "d": 1925,
      "v": 44
    },
    {
      "midi": 59,
      "hit": false,
      "t": 61325.00000000003,
      "d": 3300,
      "v": 35
    },
    {
      "midi": 65,
      "hit": false,
      "t": 61400,
      "d": 350,
      "v": 6
    },
    {
      "midi": 67,
      "hit": false,
      "t": 62408.333333333336,
      "d": 1283.3333333333358,
      "v": 30
    },
    {
      "midi": 62,
      "hit": false,
      "t": 62408.333333333365,
      "d": 2116.6666666666642,
      "v": 1
    },
    {
      "midi": 75,
      "hit": false,
      "t": 63158.333333333336,
      "d": 250,
      "v": 60
    },
    {
      "midi": 77,
      "hit": false,
      "t": 63608.333333333336,
      "d": 200,
      "v": 92
    },
    {
      "midi": 68,
      "hit": false,
      "t": 64241.66666666667,
      "d": 391.66666666666424,
      "v": 87
    },
    {
      "midi": 68,
      "hit": false,
      "t": 64816.66666666667,
      "d": 316.66666666666424,
      "v": 79
    },
    {
      "midi": 59,
      "hit": false,
      "t": 64850.00000000003,
      "d": 2775,
      "v": 53
    },
    {
      "midi": 67,
      "hit": false,
      "t": 65141.66666666667,
      "d": 358.33333333333576,
      "v": 71
    },
    {
      "midi": 65,
      "hit": false,
      "t": 65516.66666666667,
      "d": 791.666666666657,
      "v": 62
    },
    {
      "midi": 62,
      "hit": false,
      "t": 66275,
      "d": 275,
      "v": 30
    },
    {
      "midi": 67,
      "hit": false,
      "t": 66758.33333333333,
      "d": 300,
      "v": 47
    },
    {
      "midi": 71,
      "hit": false,
      "t": 67066.66666666666,
      "d": 258.3333333333285,
      "v": 69
    },
    {
      "midi": 77,
      "hit": false,
      "t": 67491.66666666666,
      "d": 416.6666666666715,
      "v": 78
    },
    {
      "midi": 74,
      "hit": false,
      "t": 67933.33333333333,
      "d": 541.6666666666715,
      "v": 58
    },
    {
      "midi": 75,
      "hit": false,
      "t": 68508.33333333333,
      "d": 416.6666666666715,
      "v": 49
    },
    {
      "midi": 48,
      "hit": false,
      "t": 68583.33333333336,
      "d": 1600,
      "v": 15
    },
    {
      "midi": 74,
      "hit": false,
      "t": 68966.66666666667,
      "d": 425,
      "v": 39
    },
    {
      "midi": 55,
      "hit": false,
      "t": 68975.00000000003,
      "d": 816.6666666666715,
      "v": 26
    },
    {
      "midi": 72,
      "hit": false,
      "t": 69483.33333333334,
      "d": 1675,
      "v": 42
    },
    {
      "midi": 60,
      "hit": false,
      "t": 69491.66666666667,
      "d": 525,
      "v": 24
    },
    {
      "midi": 55,
      "hit": false,
      "t": 70025.00000000003,
      "d": 150,
      "v": 24
    },
    {
      "midi": 70,
      "hit": false,
      "t": 71091.66666666667,
      "d": 408.33333333334303,
      "v": 56
    },
    {
      "midi": 67,
      "hit": false,
      "t": 71358.33333333334,
      "d": 225,
      "v": 47
    },
    {
      "midi": 65,
      "hit": false,
      "t": 71800.00000000001,
      "d": 433.3333333333285,
      "v": 40
    },
    {
      "midi": 46,
      "hit": false,
      "t": 71800.00000000003,
      "d": 766.6666666666715,
      "v": 29
    },
    {
      "midi": 55,
      "hit": false,
      "t": 71916.66666666669,
      "d": 2400,
      "v": 1
    },
    {
      "midi": 67,
      "hit": false,
      "t": 72200.00000000001,
      "d": 1175,
      "v": 43
    },
    {
      "midi": 46,
      "hit": false,
      "t": 72750.00000000003,
      "d": 2083.3333333333285,
      "v": 38
    },
    {
      "midi": 62,
      "hit": false,
      "t": 74625.00000000001,
      "d": 191.66666666667152,
      "v": 49
    },
    {
      "midi": 62,
      "hit": false,
      "t": 75166.66666666669,
      "d": 316.6666666666715,
      "v": 62
    },
    {
      "midi": 51,
      "hit": false,
      "t": 75191.66666666669,
      "d": 633.3333333333285,
      "v": 33
    },
    {
      "midi": 44,
      "hit": false,
      "t": 75191.66666666669,
      "d": 1333.333333333343,
      "v": 32
    },
    {
      "midi": 63,
      "hit": false,
      "t": 75516.66666666669,
      "d": 833.3333333333285,
      "v": 59
    },
    {
      "midi": 60,
      "hit": false,
      "t": 75916.66666666669,
      "d": 325,
      "v": 48
    },
    {
      "midi": 51,
      "hit": false,
      "t": 75933.33333333336,
      "d": 600,
      "v": 33
    },
    {
      "midi": 60,
      "hit": false,
      "t": 76391.66666666669,
      "d": 91.66666666667152,
      "v": 29
    },
    {
      "midi": 57,
      "hit": false,
      "t": 76908.33333333336,
      "d": 558.3333333333285,
      "v": 45
    },
    {
      "midi": 60,
      "hit": false,
      "t": 76916.66666666669,
      "d": 558.3333333333285,
      "v": 34
    },
    {
      "midi": 43,
      "hit": false,
      "t": 76925.00000000003,
      "d": 1266.6666666666715,
      "v": 32
    },
    {
      "midi": 53,
      "hit": false,
      "t": 76941.66666666669,
      "d": 583.3333333333285,
      "v": 22
    },
    {
      "midi": 50,
      "hit": false,
      "t": 76941.6666666667,
      "d": 966.6666666666715,
      "v": 32
    },
    {
      "midi": 57,
      "hit": false,
      "t": 77591.66666666669,
      "d": 441.6666666666715,
      "v": 30
    },
    {
      "midi": 57,
      "hit": false,
      "t": 78333.33333333336,
      "d": 666.6666666666715,
      "v": 27
    },
    {
      "midi": 43,
      "hit": false,
      "t": 78341.6666666667,
      "d": 1475,
      "v": 24
    },
    {
      "midi": 60,
      "hit": false,
      "t": 78350.00000000003,
      "d": 716.6666666666715,
      "v": 26
    },
    {
      "midi": 53,
      "hit": false,
      "t": 78358.33333333336,
      "d": 600,
      "v": 16
    },
    {
      "midi": 82,
      "hit": false,
      "t": 80241.6666666667,
      "d": 250,
      "v": 60
    },
    {
      "midi": 84,
      "hit": false,
      "t": 80525.00000000003,
      "d": 491.6666666666715,
      "v": 63
    },
    {
      "midi": 48,
      "hit": false,
      "t": 80566.6666666667,
      "d": 516.6666666666715,
      "v": 35
    },
    {
      "midi": 55,
      "hit": false,
      "t": 81058.33333333337,
      "d": 66.66666666667152,
      "v": 33
    },
    {
      "midi": 77,
      "hit": false,
      "t": 81575.00000000003,
      "d": 891.666666666657,
      "v": 53
    },
    {
      "midi": 74,
      "hit": false,
      "t": 81625.00000000003,
      "d": 566.666666666657,
      "v": 44
    },
    {
      "midi": 70,
      "hit": false,
      "t": 81633.33333333336,
      "d": 933.3333333333285,
      "v": 33
    },
    {
      "midi": 65,
      "hit": false,
      "t": 81675.00000000004,
      "d": 400,
      "v": 34
    },
    {
      "midi": 67,
      "hit": false,
      "t": 81691.66666666669,
      "d": 1008.3333333333285,
      "v": 28
    },
    {
      "midi": 82,
      "hit": false,
      "t": 83683.33333333334,
      "d": 166.66666666667152,
      "v": 44
    },
    {
      "midi": 84,
      "hit": false,
      "t": 83891.66666666669,
      "d": 283.3333333333285,
      "v": 55
    },
    {
      "midi": 48,
      "hit": false,
      "t": 83916.66666666672,
      "d": 541.6666666666715,
      "v": 33
    },
    {
      "midi": 62,
      "hit": false,
      "t": 84616.66666666672,
      "d": 441.6666666666715,
      "v": 29
    },
    {
      "midi": 77,
      "hit": false,
      "t": 85000.00000000001,
      "d": 1849.9999999999854,
      "v": 40
    },
    {
      "midi": 67,
      "hit": false,
      "t": 85008.33333333334,
      "d": 1758.3333333333285,
      "v": 27
    },
    {
      "midi": 70,
      "hit": false,
      "t": 85008.33333333334,
      "d": 1791.666666666657,
      "v": 34
    },
    {
      "midi": 63,
      "hit": false,
      "t": 85041.66666666672,
      "d": 2016.6666666666715,
      "v": 28
    },
    {
      "midi": 39,
      "hit": false,
      "t": 87383.33333333339,
      "d": 825,
      "v": 70
    },
    {
      "midi": 46,
      "hit": false,
      "t": 88075.00000000006,
      "d": 483.3333333333285,
      "v": 35
    },
    {
      "midi": 60,
      "hit": false,
      "t": 88516.66666666667,
      "d": 175,
      "v": 31
    },
    {
      "midi": 67,
      "hit": false,
      "t": 88525,
      "d": 250,
      "v": 41
    },
    {
      "midi": 62,
      "hit": false,
      "t": 88541.66666666667,
      "d": 175,
      "v": 33
    },
    {
      "midi": 55,
      "hit": false,
      "t": 88541.66666666672,
      "d": 433.33333333334303,
      "v": 50
    },
    {
      "midi": 58,
      "hit": false,
      "t": 88950.00000000006,
      "d": 3533.3333333333285,
      "v": 33
    },
    {
      "midi": 70,
      "hit": false,
      "t": 89416.66666666667,
      "d": 474.99999999998545,
      "v": 36
    },
    {
      "midi": 77,
      "hit": false,
      "t": 89416.66666666667,
      "d": 541.666666666657,
      "v": 32
    },
    {
      "midi": 67,
      "hit": false,
      "t": 89425,
      "d": 308.3333333333285,
      "v": 22
    },
    {
      "midi": 62,
      "hit": false,
      "t": 89425.00000000006,
      "d": 2975,
      "v": 32
    },
    {
      "midi": 74,
      "hit": false,
      "t": 89433.33333333333,
      "d": 483.3333333333285,
      "v": 48
    },
    {
      "midi": 75,
      "hit": false,
      "t": 90441.66666666666,
      "d": 366.6666666666715,
      "v": 45
    },
    {
      "midi": 82,
      "hit": false,
      "t": 90883.33333333333,
      "d": 350,
      "v": 80
    },
    {
      "midi": 79,
      "hit": false,
      "t": 91250,
      "d": 191.66666666667152,
      "v": 62
    },
    {
      "midi": 84,
      "hit": false,
      "t": 91600,
      "d": 408.3333333333285,
      "v": 94
    },
    {
      "midi": 82,
      "hit": false,
      "t": 92041.66666666666,
      "d": 383.3333333333285,
      "v": 71
    },
    {
      "midi": 75,
      "hit": false,
      "t": 92449.99999999999,
      "d": 491.66666666665697,
      "v": 46
    },
    {
      "midi": 77,
      "hit": false,
      "t": 92933.33333333331,
      "d": 433.3333333333285,
      "v": 46
    },
    {
      "midi": 37,
      "hit": false,
      "t": 92950.00000000006,
      "d": 341.66666666665697,
      "v": 35
    },
    {
      "midi": 44,
      "hit": false,
      "t": 93283.33333333339,
      "d": 175,
      "v": 43
    },
    {
      "midi": 53,
      "hit": false,
      "t": 93550.00000000006,
      "d": 216.66666666667152,
      "v": 38
    },
    {
      "midi": 56,
      "hit": false,
      "t": 93750.00000000006,
      "d": 1275.0000000000146,
      "v": 42
    },
    {
      "midi": 63,
      "hit": false,
      "t": 93949.99999999997,
      "d": 133.33333333332848,
      "v": 56
    },
    {
      "midi": 60,
      "hit": false,
      "t": 94066.66666666673,
      "d": 275,
      "v": 26
    },
    {
      "midi": 65,
      "hit": false,
      "t": 94133.3333333333,
      "d": 100,
      "v": 62
    },
    {
      "midi": 68,
      "hit": false,
      "t": 94266.66666666663,
      "d": 191.66666666667152,
      "v": 60
    },
    {
      "midi": 63,
      "hit": false,
      "t": 94333.3333333334,
      "d": 525,
      "v": 29
    },
    {
      "midi": 70,
      "hit": false,
      "t": 94433.3333333333,
      "d": 91.66666666667152,
      "v": 71
    },
    {
      "midi": 72,
      "hit": false,
      "t": 94558.3333333333,
      "d": 116.66666666667152,
      "v": 70
    },
    {
      "midi": 75,
      "hit": false,
      "t": 94683.3333333333,
      "d": 91.66666666667152,
      "v": 71
    },
    {
      "midi": 77,
      "hit": false,
      "t": 94824.99999999997,
      "d": 108.33333333332848,
      "v": 73
    },
    {
      "midi": 80,
      "hit": false,
      "t": 94924.99999999997,
      "d": 158.33333333332848,
      "v": 74
    },
    {
      "midi": 82,
      "hit": false,
      "t": 95058.3333333333,
      "d": 75,
      "v": 67
    },
    {
      "midi": 84,
      "hit": false,
      "t": 95158.3333333333,
      "d": 100,
      "v": 62
    },
    {
      "midi": 87,
      "hit": false,
      "t": 95274.99999999997,
      "d": 108.33333333332848,
      "v": 64
    },
    {
      "midi": 89,
      "hit": false,
      "t": 95416.66666666663,
      "d": 125,
      "v": 60
    },
    {
      "midi": 92,
      "hit": false,
      "t": 95541.66666666663,
      "d": 200,
      "v": 71
    },
    {
      "midi": 94,
      "hit": false,
      "t": 95716.66666666663,
      "d": 75,
      "v": 59
    },
    {
      "midi": 96,
      "hit": false,
      "t": 95849.99999999996,
      "d": 175,
      "v": 59
    },
    {
      "midi": 99,
      "hit": false,
      "t": 96008.33333333328,
      "d": 91.66666666667152,
      "v": 57
    },
    {
      "midi": 101,
      "hit": false,
      "t": 96183.33333333328,
      "d": 150,
      "v": 52
    },
    {
      "midi": 103,
      "hit": false,
      "t": 96366.66666666661,
      "d": 166.66666666667152,
      "v": 56
    },
    {
      "midi": 104,
      "hit": false,
      "t": 96591.66666666661,
      "d": 266.6666666666715,
      "v": 55
    },
    {
      "midi": 46,
      "hit": false,
      "t": 96633.3333333334,
      "d": 333.3333333333285,
      "v": 38
    },
    {
      "midi": 106,
      "hit": false,
      "t": 96874.99999999996,
      "d": 316.6666666666715,
      "v": 47
    },
    {
      "midi": 56,
      "hit": false,
      "t": 96908.3333333334,
      "d": 100,
      "v": 30
    },
    {
      "midi": 108,
      "hit": false,
      "t": 97258.3333333333,
      "d": 758.3333333333285,
      "v": 35
    },
    {
      "midi": 60,
      "hit": false,
      "t": 97258.3333333334,
      "d": 2183.3333333333285,
      "v": 34
    },
    {
      "midi": 63,
      "hit": false,
      "t": 97725.00000000007,
      "d": 1633.3333333333285,
      "v": 32
    },
    {
      "midi": 108,
      "hit": false,
      "t": 98241.66666666663,
      "d": 200,
      "v": 24
    },
    {
      "midi": 101,
      "hit": false,
      "t": 98299.99999999996,
      "d": 166.66666666667152,
      "v": 24
    },
    {
      "midi": 68,
      "hit": false,
      "t": 98325.00000000007,
      "d": 400,
      "v": 12
    },
    {
      "midi": 63,
      "hit": false,
      "t": 99791.66666666673,
      "d": 733.3333333333285,
      "v": 34
    },
    {
      "midi": 70,
      "hit": false,
      "t": 100300.00000000006,
      "d": 225,
      "v": 73
    },
    {
      "midi": 72,
      "hit": false,
      "t": 100616.66666666673,
      "d": 250,
      "v": 66
    },
    {
      "midi": 72,
      "hit": false,
      "t": 100983.3333333333,
      "d": 608.3333333333285,
      "v": 51
    },
    {
      "midi": 39,
      "hit": false,
      "t": 101016.66666666673,
      "d": 341.66666666665697,
      "v": 44
    },
    {
      "midi": 46,
      "hit": false,
      "t": 101325.00000000006,
      "d": 283.3333333333285,
      "v": 47
    },
    {
      "midi": 70,
      "hit": false,
      "t": 101633.3333333333,
      "d": 683.3333333333285,
      "v": 48
    },
    {
      "midi": 62,
      "hit": false,
      "t": 101650.00000000006,
      "d": 275,
      "v": 40
    },
    {
      "midi": 55,
      "hit": false,
      "t": 101650.00000000006,
      "d": 366.6666666666715,
      "v": 43
    },
    {
      "midi": 67,
      "hit": false,
      "t": 101650.00000000006,
      "d": 400,
      "v": 42
    },
    {
      "midi": 58,
      "hit": false,
      "t": 101966.66666666673,
      "d": 2808.3333333333285,
      "v": 51
    },
    {
      "midi": 67,
      "hit": false,
      "t": 102324.99999999996,
      "d": 383.3333333333285,
      "v": 64
    },
    {
      "midi": 62,
      "hit": false,
      "t": 102341.66666666673,
      "d": 341.6666666666715,
      "v": 50
    },
    {
      "midi": 67,
      "hit": false,
      "t": 102741.66666666661,
      "d": 1891.6666666666424,
      "v": 43
    },
    {
      "midi": 70,
      "hit": false,
      "t": 103149.99999999994,
      "d": 258.3333333333285,
      "v": 93
    },
    {
      "midi": 62,
      "hit": false,
      "t": 103166.66666666673,
      "d": 1550,
      "v": 49
    },
    {
      "midi": 72,
      "hit": false,
      "t": 103416.6666666666,
      "d": 133.33333333332848,
      "v": 60
    },
    {
      "midi": 70,
      "hit": false,
      "t": 103516.6666666666,
      "d": 183.33333333332848,
      "v": 62
    },
    {
      "midi": 69,
      "hit": false,
      "t": 103633.33333333326,
      "d": 225,
      "v": 77
    },
    {
      "midi": 70,
      "hit": false,
      "t": 103916.66666666658,
      "d": 325,
      "v": 90
    },
    {
      "midi": 75,
      "hit": false,
      "t": 104549.99999999991,
      "d": 308.33333333334303,
      "v": 76
    },
    {
      "midi": 76,
      "hit": false,
      "t": 104616.66666666658,
      "d": 175,
      "v": 30
    },
    {
      "midi": 75,
      "hit": false,
      "t": 105116.66666666658,
      "d": 475,
      "v": 43
    },
    {
      "midi": 68,
      "hit": false,
      "t": 105116.66666666673,
      "d": 450.00000000001455,
      "v": 36
    },
    {
      "midi": 72,
      "hit": false,
      "t": 105124.99999999991,
      "d": 450,
      "v": 35
    },
    {
      "midi": 60,
      "hit": false,
      "t": 105133.3333333334,
      "d": 433.33333333334303,
      "v": 26
    },
    {
      "midi": 63,
      "hit": false,
      "t": 105133.3333333334,
      "d": 475.00000000001455,
      "v": 43
    },
    {
      "midi": 58,
      "hit": false,
      "t": 105550.00000000007,
      "d": 108.33333333334303,
      "v": 42
    },
    {
      "midi": 68,
      "hit": false,
      "t": 106016.66666666658,
      "d": 1150,
      "v": 42
    },
    {
      "midi": 63,
      "hit": false,
      "t": 106024.99999999991,
      "d": 1183.333333333343,
      "v": 42
    },
    {
      "midi": 60,
      "hit": false,
      "t": 106024.99999999991,
      "d": 1208.333333333343,
      "v": 24
    },
    {
      "midi": 56,
      "hit": false,
      "t": 106050.00000000009,
      "d": 50,
      "v": 27
    },
    {
      "midi": 46,
      "hit": false,
      "t": 107041.66666666676,
      "d": 91.66666666667152,
      "v": 49
    },
    {
      "midi": 56,
      "hit": false,
      "t": 108774.99999999993,
      "d": 516.666666666657,
      "v": 25
    },
    {
      "midi": 63,
      "hit": false,
      "t": 108774.99999999993,
      "d": 1616.6666666666715,
      "v": 29
    },
    {
      "midi": 34,
      "hit": false,
      "t": 108775.0000000001,
      "d": 841.6666666666715,
      "v": 30
    },
    {
      "midi": 60,
      "hit": false,
      "t": 108783.33333333326,
      "d": 900,
      "v": 27
    },
    {
      "midi": 56,
      "hit": false,
      "t": 109733.33333333326,
      "d": 591.6666666666715,
      "v": 51
    },
    {
      "midi": 60,
      "hit": false,
      "t": 110374.99999999993,
      "d": 1425,
      "v": 44
    },
    {
      "midi": 47,
      "hit": false,
      "t": 111616.66666666677,
      "d": 200,
      "v": 45
    },
    {
      "midi": 63,
      "hit": false,
      "t": 112916.6666666666,
      "d": 558.3333333333285,
      "v": 33
    },
    {
      "midi": 60,
      "hit": false,
      "t": 112924.99999999993,
      "d": 341.6666666666715,
      "v": 24
    },
    {
      "midi": 56,
      "hit": false,
      "t": 112941.66666666677,
      "d": 1525,
      "v": 29
    },
    {
      "midi": 48,
      "hit": false,
      "t": 112975.0000000001,
      "d": 1125,
      "v": 25
    },
    {
      "midi": 67,
      "hit": false,
      "t": 113549.99999999993,
      "d": 458.33333333334303,
      "v": 69
    },
    {
      "midi": 65,
      "hit": false,
      "t": 113966.6666666666,
      "d": 175,
      "v": 69
    },
    {
      "midi": 70,
      "hit": false,
      "t": 114516.6666666666,
      "d": 633.3333333333285,
      "v": 43
    },
    {
      "midi": 62,
      "hit": false,
      "t": 114524.99999999993,
      "d": 483.3333333333285,
      "v": 39
    },
    {
      "midi": 65,
      "hit": false,
      "t": 114524.99999999993,
      "d": 700,
      "v": 40
    },
    {
      "midi": 58,
      "hit": false,
      "t": 114525.0000000001,
      "d": 1525,
      "v": 29
    },
    {
      "midi": 50,
      "hit": false,
      "t": 114550.0000000001,
      "d": 1466.6666666666715,
      "v": 42
    },
    {
      "midi": 72,
      "hit": false,
      "t": 115483.33333333326,
      "d": 166.66666666667152,
      "v": 62
    },
    {
      "midi": 74,
      "hit": false,
      "t": 116016.6666666666,
      "d": 175.00000000001455,
      "v": 66
    },
    {
      "midi": 67,
      "hit": false,
      "t": 116033.33333333327,
      "d": 358.33333333334303,
      "v": 54
    },
    {
      "midi": 51,
      "hit": false,
      "t": 116041.66666666677,
      "d": 2025,
      "v": 47
    },
    {
      "midi": 63,
      "hit": false,
      "t": 116049.99999999994,
      "d": 258.33333333334303,
      "v": 35
    },
    {
      "midi": 75,
      "hit": false,
      "t": 116341.66666666661,
      "d": 208.33333333332848,
      "v": 73
    },
    {
      "midi": 77,
      "hit": false,
      "t": 117124.99999999994,
      "d": 391.6666666666715,
      "v": 72
    },
    {
      "midi": 72,
      "hit": false,
      "t": 117141.66666666661,
      "d": 366.6666666666715,
      "v": 51
    },
    {
      "midi": 68,
      "hit": false,
      "t": 117158.33333333328,
      "d": 408.3333333333285,
      "v": 38
    },
    {
      "midi": 75,
      "hit": false,
      "t": 117174.99999999996,
      "d": 366.66666666665697,
      "v": 30
    },
    {
      "midi": 74,
      "hit": false,
      "t": 117599.99999999994,
      "d": 341.6666666666715,
      "v": 69
    },
    {
      "midi": 70,
      "hit": false,
      "t": 118399.99999999994,
      "d": 741.666666666657,
      "v": 36
    },
    {
      "midi": 43,
      "hit": false,
      "t": 118416.66666666677,
      "d": 525,
      "v": 32
    },
    {
      "midi": 62,
      "hit": false,
      "t": 118424.99999999994,
      "d": 583.3333333333285,
      "v": 33
    },
    {
      "midi": 50,
      "hit": false,
      "t": 118425.0000000001,
      "d": 533.333333333343,
      "v": 33
    },
    {
      "midi": 58,
      "hit": false,
      "t": 118458.33333333327,
      "d": 500,
      "v": 18
    },
    {
      "midi": 55,
      "hit": false,
      "t": 118975.00000000012,
      "d": 458.3333333333285,
      "v": 35
    },
    {
      "midi": 58,
      "hit": false,
      "t": 119408.33333333344,
      "d": 333.3333333333285,
      "v": 32
    },
    {
      "midi": 72,
      "hit": false,
      "t": 119674.99999999993,
      "d": 175,
      "v": 67
    },
    {
      "midi": 74,
      "hit": false,
      "t": 119899.99999999993,
      "d": 166.66666666667152,
      "v": 81
    },
    {
      "midi": 77,
      "hit": false,
      "t": 120141.6666666666,
      "d": 333.3333333333285,
      "v": 87
    },
    {
      "midi": 48,
      "hit": false,
      "t": 120158.33333333344,
      "d": 533.3333333333285,
      "v": 49
    },
    {
      "midi": 75,
      "hit": false,
      "t": 120541.6666666666,
      "d": 575,
      "v": 63
    },
    {
      "midi": 55,
      "hit": false,
      "t": 120566.66666666677,
      "d": 108.33333333332848,
      "v": 34
    },
    {
      "midi": 73,
      "hit": false,
      "t": 120816.6666666666,
      "d": 341.6666666666715,
      "v": 7
    },
    {
      "midi": 63,
      "hit": false,
      "t": 121166.6666666666,
      "d": 683.333333333343,
      "v": 34
    },
    {
      "midi": 67,
      "hit": false,
      "t": 121183.33333333327,
      "d": 600,
      "v": 43
    },
    {
      "midi": 46,
      "hit": false,
      "t": 121191.66666666677,
      "d": 883.333333333343,
      "v": 29
    },
    {
      "midi": 55,
      "hit": false,
      "t": 121208.33333333344,
      "d": 800,
      "v": 24
    },
    {
      "midi": 67,
      "hit": false,
      "t": 121891.66666666661,
      "d": 133.33333333332848,
      "v": 42
    },
    {
      "midi": 70,
      "hit": false,
      "t": 122366.66666666661,
      "d": 291.6666666666715,
      "v": 50
    },
    {
      "midi": 63,
      "hit": false,
      "t": 122383.33333333328,
      "d": 691.6666666666715,
      "v": 42
    },
    {
      "midi": 60,
      "hit": false,
      "t": 122399.99999999996,
      "d": 300,
      "v": 20
    },
    {
      "midi": 44,
      "hit": false,
      "t": 122408.33333333344,
      "d": 1233.333333333314,
      "v": 18
    },
    {
      "midi": 51,
      "hit": false,
      "t": 122416.66666666677,
      "d": 1283.3333333333285,
      "v": 37
    },
    {
      "midi": 56,
      "hit": false,
      "t": 122425.0000000001,
      "d": 433.3333333333285,
      "v": 25
    },
    {
      "midi": 68,
      "hit": false,
      "t": 122716.66666666663,
      "d": 233.33333333332848,
      "v": 58
    },
    {
      "midi": 60,
      "hit": false,
      "t": 123083.33333333328,
      "d": 516.666666666657,
      "v": 49
    },
    {
      "midi": 56,
      "hit": false,
      "t": 123083.33333333343,
      "d": 575,
      "v": 37
    },
    {
      "midi": 63,
      "hit": false,
      "t": 123516.66666666661,
      "d": 2741.666666666657,
      "v": 59
    },
    {
      "midi": 68,
      "hit": false,
      "t": 126258.33333333327,
      "d": 566.6666666666715,
      "v": 48
    },
    {
      "midi": 67,
      "hit": false,
      "t": 127974.99999999994,
      "d": 1758.3333333333285,
      "v": 25
    },
    {
      "midi": 62,
      "hit": false,
      "t": 128008.33333333327,
      "d": 966.6666666666715,
      "v": 50
    },
    {
      "midi": 43,
      "hit": false,
      "t": 128025.0000000001,
      "d": 983.333333333343,
      "v": 27
    },
    {
      "midi": 53,
      "hit": false,
      "t": 128066.66666666677,
      "d": 1108.333333333343,
      "v": 24
    },
    {
      "midi": 59,
      "hit": false,
      "t": 128083.33333333327,
      "d": 866.6666666666715,
      "v": 51
    },
    {
      "midi": 56,
      "hit": false,
      "t": 128158.33333333327,
      "d": 725,
      "v": 19
    },
    {
      "midi": 56,
      "hit": false,
      "t": 129583.33333333327,
      "d": 258.3333333333285,
      "v": 36
    },
    {
      "midi": 59,
      "hit": false,
      "t": 129816.6666666666,
      "d": 150,
      "v": 44
    },
    {
      "midi": 62,
      "hit": false,
      "t": 130008.33333333327,
      "d": 191.66666666667152,
      "v": 59
    },
    {
      "midi": 67,
      "hit": false,
      "t": 130183.33333333327,
      "d": 100,
      "v": 69
    },
    {
      "midi": 68,
      "hit": false,
      "t": 130366.6666666666,
      "d": 133.33333333332848,
      "v": 55
    },
    {
      "midi": 74,
      "hit": false,
      "t": 130558.33333333326,
      "d": 200,
      "v": 66
    },
    {
      "midi": 79,
      "hit": false,
      "t": 130766.66666666658,
      "d": 216.66666666667152,
      "v": 60
    },
    {
      "midi": 71,
      "hit": false,
      "t": 130999.99999999993,
      "d": 2333.3333333333285,
      "v": 42
    },
    {
      "midi": 67,
      "hit": false,
      "t": 131283.33333333326,
      "d": 2283.333333333343,
      "v": 35
    },
    {
      "midi": 77,
      "hit": false,
      "t": 131291.6666666666,
      "d": 1116.666666666657,
      "v": 53
    },
    {
      "midi": 76,
      "hit": false,
      "t": 131866.6666666666,
      "d": 625,
      "v": 49
    },
    {
      "midi": 75,
      "hit": false,
      "t": 132483.33333333326,
      "d": 583.333333333343,
      "v": 51
    },
    {
      "midi": 74,
      "hit": false,
      "t": 133091.6666666666,
      "d": 483.33333333334303,
      "v": 46
    },
    {
      "midi": 71,
      "hit": false,
      "t": 133566.6666666666,
      "d": 391.66666666665697,
      "v": 44
    },
    {
      "midi": 68,
      "hit": false,
      "t": 133916.6666666666,
      "d": 308.33333333331393,
      "v": 56
    },
    {
      "midi": 67,
      "hit": false,
      "t": 134283.33333333326,
      "d": 366.66666666665697,
      "v": 58
    },
    {
      "midi": 65,
      "hit": false,
      "t": 134666.66666666657,
      "d": 425,
      "v": 40
    },
    {
      "midi": 63,
      "hit": false,
      "t": 135099.9999999999,
      "d": 666.666666666657,
      "v": 37
    },
    {
      "midi": 48,
      "hit": false,
      "t": 135158.33333333346,
      "d": 975,
      "v": 31
    },
    {
      "midi": 55,
      "hit": false,
      "t": 135641.66666666657,
      "d": 508.33333333334303,
      "v": 22
    },
    {
      "midi": 60,
      "hit": false,
      "t": 136174.9999999999,
      "d": 608.333333333343,
      "v": 24
    },
    {
      "midi": 75,
      "hit": false,
      "t": 136699.9999999999,
      "d": 325,
      "v": 39
    },
    {
      "midi": 63,
      "hit": false,
      "t": 136708.33333333346,
      "d": 150,
      "v": 32
    },
    {
      "midi": 80,
      "hit": false,
      "t": 137433.33333333326,
      "d": 366.66666666665697,
      "v": 50
    },
    {
      "midi": 72,
      "hit": false,
      "t": 137483.33333333326,
      "d": 758.333333333343,
      "v": 35
    },
    {
      "midi": 68,
      "hit": false,
      "t": 137508.33333333326,
      "d": 391.66666666665697,
      "v": 17
    },
    {
      "midi": 48,
      "hit": false,
      "t": 137516.6666666668,
      "d": 1600,
      "v": 30
    },
    {
      "midi": 79,
      "hit": false,
      "t": 137883.33333333326,
      "d": 350,
      "v": 68
    },
    {
      "midi": 56,
      "hit": false,
      "t": 137900.00000000015,
      "d": 466.66666666665697,
      "v": 37
    },
    {
      "midi": 77,
      "hit": false,
      "t": 138274.99999999994,
      "d": 375,
      "v": 63
    },
    {
      "midi": 65,
      "hit": false,
      "t": 138291.6666666666,
      "d": 633.333333333343,
      "v": 35
    },
    {
      "midi": 74,
      "hit": false,
      "t": 138774.99999999994,
      "d": 316.66666666665697,
      "v": 40
    },
    {
      "midi": 70,
      "hit": false,
      "t": 140116.6666666666,
      "d": 850.0000000000291,
      "v": 51
    },
    {
      "midi": 62,
      "hit": false,
      "t": 140149.99999999994,
      "d": 716.666666666657,
      "v": 34
    },
    {
      "midi": 43,
      "hit": false,
      "t": 140158.33333333346,
      "d": 933.333333333343,
      "v": 25
    },
    {
      "midi": 58,
      "hit": false,
      "t": 140166.6666666666,
      "d": 550,
      "v": 19
    },
    {
      "midi": 55,
      "hit": false,
      "t": 140225.00000000012,
      "d": 333.33333333334303,
      "v": 16
    },
    {
      "midi": 50,
      "hit": false,
      "t": 140550.00000000012,
      "d": 550.0000000000291,
      "v": 49
    },
    {
      "midi": 58,
      "hit": false,
      "t": 140899.99999999994,
      "d": 58.333333333343035,
      "v": 46
    },
    {
      "midi": 55,
      "hit": false,
      "t": 140933.33333333346,
      "d": 483.33333333334303,
      "v": 41
    },
    {
      "midi": 67,
      "hit": false,
      "t": 141241.66666666663,
      "d": 333.33333333334303,
      "v": 64
    },
    {
      "midi": 75,
      "hit": false,
      "t": 141608.3333333333,
      "d": 1158.333333333314,
      "v": 73
    },
    {
      "midi": 48,
      "hit": false,
      "t": 141625.00000000015,
      "d": 516.666666666657,
      "v": 40
    },
    {
      "midi": 55,
      "hit": false,
      "t": 142041.6666666668,
      "d": 100,
      "v": 37
    },
    {
      "midi": 63,
      "hit": false,
      "t": 142499.99999999997,
      "d": 241.66666666665697,
      "v": 31
    },
    {
      "midi": 46,
      "hit": false,
      "t": 142525.00000000015,
      "d": 683.3333333333139,
      "v": 28
    },
    {
      "midi": 67,
      "hit": false,
      "t": 142533.3333333333,
      "d": 141.66666666665697,
      "v": 31
    },
    {
      "midi": 55,
      "hit": false,
      "t": 142541.6666666668,
      "d": 616.666666666657,
      "v": 24
    },
    {
      "midi": 77,
      "hit": false,
      "t": 142941.66666666663,
      "d": 150,
      "v": 64
    },
    {
      "midi": 79,
      "hit": false,
      "t": 143191.66666666663,
      "d": 133.33333333334303,
      "v": 68
    },
    {
      "midi": 77,
      "hit": false,
      "t": 143499.99999999997,
      "d": 591.6666666666861,
      "v": 46
    },
    {
      "midi": 56,
      "hit": false,
      "t": 143516.6666666668,
      "d": 341.66666666665697,
      "v": 35
    },
    {
      "midi": 72,
      "hit": false,
      "t": 143524.99999999997,
      "d": 416.66666666668607,
      "v": 40
    },
    {
      "midi": 44,
      "hit": false,
      "t": 143533.33333333346,
      "d": 1325,
      "v": 26
    },
    {
      "midi": 67,
      "hit": false,
      "t": 143558.3333333333,
      "d": 375,
      "v": 11
    },
    {
      "midi": 51,
      "hit": false,
      "t": 143866.6666666668,
      "d": 991.666666666657,
      "v": 44
    },
    {
      "midi": 56,
      "hit": false,
      "t": 144208.33333333346,
      "d": 650,
      "v": 54
    },
    {
      "midi": 77,
      "hit": false,
      "t": 144558.3333333333,
      "d": 325.0000000000291,
      "v": 79
    },
    {
      "midi": 65,
      "hit": false,
      "t": 144566.66666666666,
      "d": 308.33333333334303,
      "v": 83
    },
    {
      "midi": 77,
      "hit": false,
      "t": 145000,
      "d": 1183.3333333333721,
      "v": 66
    },
    {
      "midi": 69,
      "hit": false,
      "t": 145008.33333333334,
      "d": 800.0000000000291,
      "v": 76
    },
    {
      "midi": 45,
      "hit": false,
      "t": 145008.33333333346,
      "d": 991.666666666657,
      "v": 44
    },
    {
      "midi": 65,
      "hit": false,
      "t": 145016.6666666667,
      "d": 608.333333333343,
      "v": 71
    },
    {
      "midi": 53,
      "hit": false,
      "t": 145425.00000000012,
      "d": 816.666666666657,
      "v": 58
    },
    {
      "midi": 65,
      "hit": false,
      "t": 145833.33333333337,
      "d": 383.33333333334303,
      "v": 58
    },
    {
      "midi": 57,
      "hit": false,
      "t": 145850.00000000012,
      "d": 200,
      "v": 58
    },
    {
      "midi": 69,
      "hit": false,
      "t": 145866.66666666672,
      "d": 383.33333333334303,
      "v": 14
    },
    {
      "midi": 45,
      "hit": false,
      "t": 146266.66666666677,
      "d": 91.66666666665697,
      "v": 61
    },
    {
      "midi": 63,
      "hit": false,
      "t": 146791.66666666672,
      "d": 1866.666666666657,
      "v": 80
    },
    {
      "midi": 60,
      "hit": false,
      "t": 146808.33333333337,
      "d": 1558.333333333343,
      "v": 61
    },
    {
      "midi": 56,
      "hit": false,
      "t": 146808.33333333337,
      "d": 1666.666666666657,
      "v": 83
    },
    {
      "midi": 46,
      "hit": false,
      "t": 146808.33333333343,
      "d": 625,
      "v": 82
    },
    {
      "midi": 34,
      "hit": false,
      "t": 146808.33333333343,
      "d": 2208.333333333372,
      "v": 79
    },
    {
      "midi": 53,
      "hit": false,
      "t": 146816.66666666672,
      "d": 1591.666666666657,
      "v": 79
    },
    {
      "midi": 46,
      "hit": false,
      "t": 147541.66666666677,
      "d": 508.33333333334303,
      "v": 59
    },
    {
      "midi": 46,
      "hit": false,
      "t": 148183.33333333346,
      "d": 325,
      "v": 39
    },
    {
      "midi": 60,
      "hit": false,
      "t": 148775.00000000003,
      "d": 366.66666666668607,
      "v": 33
    },
    {
      "midi": 56,
      "hit": false,
      "t": 148775.00000000003,
      "d": 475.0000000000291,
      "v": 38
    },
    {
      "midi": 53,
      "hit": false,
      "t": 148783.33333333337,
      "d": 358.33333333334303,
      "v": 28
    },
    {
      "midi": 46,
      "hit": false,
      "t": 148783.33333333346,
      "d": 441.66666666668607,
      "v": 37
    },
    {
      "midi": 58,
      "hit": false,
      "t": 149575.00000000006,
      "d": 1350,
      "v": 59
    },
    {
      "midi": 53,
      "hit": false,
      "t": 149583.3333333334,
      "d": 1050,
      "v": 18
    },
    {
      "midi": 51,
      "hit": false,
      "t": 149600.00000000006,
      "d": 500,
      "v": 35
    },
    {
      "midi": 34,
      "hit": false,
      "t": 149616.6666666668,
      "d": 2008.333333333343,
      "v": 46
    },
    {
      "midi": 46,
      "hit": false,
      "t": 150291.66666666672,
      "d": 308.33333333334303,
      "v": 32
    },
    {
      "midi": 67,
      "hit": false,
      "t": 151566.66666666672,
      "d": 1500,
      "v": 64
    },
    {
      "midi": 70,
      "hit": false,
      "t": 153083.33333333337,
      "d": 1125,
      "v": 43
    },
    {
      "midi": 58,
      "hit": false,
      "t": 154375.00000000003,
      "d": 500,
      "v": 29
    },
    {
      "midi": 67,
      "hit": false,
      "t": 154375.00000000003,
      "d": 650,
      "v": 28
    },
    {
      "midi": 39,
      "hit": false,
      "t": 154383.3333333335,
      "d": 433.33333333334303,
      "v": 23
    },
    {
      "midi": 51,
      "hit": false,
      "t": 154383.3333333335,
      "d": 533.333333333343,
      "v": 21
    },
    {
      "midi": 63,
      "hit": false,
      "t": 154391.6666666667,
      "d": 558.333333333343,
      "v": 37
    },
    {
      "midi": 70,
      "hit": false,
      "t": 155383.33333333337,
      "d": 275.0000000000291,
      "v": 56
    },
    {
      "midi": 62,
      "hit": false,
      "t": 155391.66666666672,
      "d": 425.0000000000291,
      "v": 51
    },
    {
      "midi": 65,
      "hit": false,
      "t": 155400.00000000006,
      "d": 458.33333333334303,
      "v": 61
    },
    {
      "midi": 50,
      "hit": false,
      "t": 155425.00000000017,
      "d": 308.33333333334303,
      "v": 38
    },
    {
      "midi": 72,
      "hit": false,
      "t": 155866.66666666674,
      "d": 91.66666666665697,
      "v": 52
    },
    {
      "midi": 63,
      "hit": false,
      "t": 156208.3333333334,
      "d": 783.333333333343,
      "v": 53
    },
    {
      "midi": 58,
      "hit": false,
      "t": 156233.3333333334,
      "d": 500,
      "v": 30
    },
    {
      "midi": 60,
      "hit": false,
      "t": 156233.3333333334,
      "d": 650,
      "v": 29
    },
    {
      "midi": 48,
      "hit": false,
      "t": 156291.66666666686,
      "d": 450,
      "v": 25
    },
    {
      "midi": 63,
      "hit": false,
      "t": 157183.3333333334,
      "d": 616.6666666666861,
      "v": 33
    },
    {
      "midi": 60,
      "hit": false,
      "t": 157191.66666666674,
      "d": 558.333333333343,
      "v": 28
    },
    {
      "midi": 46,
      "hit": false,
      "t": 157191.66666666686,
      "d": 741.666666666657,
      "v": 32
    },
    {
      "midi": 55,
      "hit": false,
      "t": 157200.0000000001,
      "d": 633.333333333343,
      "v": 29
    },
    {
      "midi": 63,
      "hit": false,
      "t": 157991.66666666677,
      "d": 183.33333333334303,
      "v": 56
    },
    {
      "midi": 63,
      "hit": false,
      "t": 158366.66666666677,
      "d": 541.666666666657,
      "v": 77
    },
    {
      "midi": 68,
      "hit": false,
      "t": 158375.00000000012,
      "d": 358.33333333334303,
      "v": 67
    },
    {
      "midi": 60,
      "hit": false,
      "t": 158383.33333333346,
      "d": 366.66666666665697,
      "v": 53
    },
    {
      "midi": 44,
      "hit": false,
      "t": 158383.33333333352,
      "d": 516.6666666666861,
      "v": 50
    },
    {
      "midi": 56,
      "hit": false,
      "t": 158391.66666666686,
      "d": 458.33333333334303,
      "v": 52
    },
    {
      "midi": 70,
      "hit": false,
      "t": 158816.66666666677,
      "d": 166.66666666665697,
      "v": 80
    },
    {
      "midi": 72,
      "hit": false,
      "t": 159233.33333333343,
      "d": 208.33333333334303,
      "v": 71
    },
    {
      "midi": 63,
      "hit": false,
      "t": 159241.66666666677,
      "d": 183.33333333334303,
      "v": 75
    },
    {
      "midi": 43,
      "hit": false,
      "t": 159250.0000000002,
      "d": 425,
      "v": 49
    },
    {
      "midi": 55,
      "hit": false,
      "t": 159258.33333333355,
      "d": 391.66666666665697,
      "v": 51
    },
    {
      "midi": 75,
      "hit": false,
      "t": 159675.00000000012,
      "d": 100,
      "v": 71
    },
    {
      "midi": 68,
      "hit": false,
      "t": 160150.00000000012,
      "d": 1366.666666666686,
      "v": 46
    },
    {
      "midi": 63,
      "hit": false,
      "t": 160183.33333333346,
      "d": 850,
      "v": 56
    },
    {
      "midi": 41,
      "hit": false,
      "t": 160183.33333333355,
      "d": 491.66666666665697,
      "v": 42
    },
    {
      "midi": 53,
      "hit": false,
      "t": 160183.33333333355,
      "d": 558.3333333333139,
      "v": 35
    },
    {
      "midi": 56,
      "hit": false,
      "t": 160191.6666666668,
      "d": 500,
      "v": 47
    },
    {
      "midi": 63,
      "hit": false,
      "t": 161233.33333333346,
      "d": 300,
      "v": 39
    },
    {
      "midi": 60,
      "hit": false,
      "t": 161241.6666666668,
      "d": 225,
      "v": 28
    },
    {
      "midi": 46,
      "hit": false,
      "t": 161241.66666666686,
      "d": 883.333333333343,
      "v": 35
    },
    {
      "midi": 56,
      "hit": false,
      "t": 161250.0000000002,
      "d": 775,
      "v": 34
    },
    {
      "midi": 70,
      "hit": false,
      "t": 161950.00000000012,
      "d": 200,
      "v": 52
    },
    {
      "midi": 72,
      "hit": false,
      "t": 162175.00000000012,
      "d": 266.66666666665697,
      "v": 52
    },
    {
      "midi": 70,
      "hit": false,
      "t": 162533.33333333343,
      "d": 541.666666666657,
      "v": 42
    },
    {
      "midi": 67,
      "hit": false,
      "t": 162566.66666666677,
      "d": 241.66666666665697,
      "v": 33
    },
    {
      "midi": 39,
      "hit": false,
      "t": 162566.66666666686,
      "d": 216.66666666665697,
      "v": 40
    },
    {
      "midi": 62,
      "hit": false,
      "t": 162583.33333333343,
      "d": 291.66666666665697,
      "v": 13
    },
    {
      "midi": 46,
      "hit": false,
      "t": 162766.66666666686,
      "d": 166.66666666665697,
      "v": 49
    },
    {
      "midi": 55,
      "hit": false,
      "t": 162983.33333333352,
      "d": 200,
      "v": 51
    },
    {
      "midi": 58,
      "hit": false,
      "t": 163200.00000000017,
      "d": 2116.666666666686,
      "v": 55
    },
    {
      "midi": 60,
      "hit": false,
      "t": 163433.33333333352,
      "d": 166.66666666665697,
      "v": 36
    },
    {
      "midi": 84,
      "hit": false,
      "t": 163441.66666666674,
      "d": 200,
      "v": 62
    },
    {
      "midi": 77,
      "hit": false,
      "t": 163450.0000000001,
      "d": 341.66666666665697,
      "v": 53
    },
    {
      "midi": 82,
      "hit": false,
      "t": 163700.0000000001,
      "d": 200,
      "v": 48
    },
    {
      "midi": 74,
      "hit": false,
      "t": 163716.66666666674,
      "d": 158.33333333334303,
      "v": 41
    },
    {
      "midi": 84,
      "hit": false,
      "t": 164008.33333333343,
      "d": 216.66666666668607,
      "v": 44
    },
    {
      "midi": 77,
      "hit": false,
      "t": 164016.66666666677,
      "d": 391.66666666668607,
      "v": 42
    },
    {
      "midi": 67,
      "hit": false,
      "t": 164016.66666666683,
      "d": 308.33333333334303,
      "v": 29
    },
    {
      "midi": 82,
      "hit": false,
      "t": 164275.00000000012,
      "d": 266.66666666668607,
      "v": 37
    },
    {
      "midi": 74,
      "hit": false,
      "t": 164300.00000000012,
      "d": 166.66666666668607,
      "v": 25
    },
    {
      "midi": 62,
      "hit": false,
      "t": 164341.66666666683,
      "d": 283.33333333334303,
      "v": 28
    },
    {
      "midi": 77,
      "hit": false,
      "t": 164608.33333333346,
      "d": 275.0000000000291,
      "v": 34
    },
    {
      "midi": 84,
      "hit": false,
      "t": 164616.6666666668,
      "d": 233.33333333334303,
      "v": 46
    },
    {
      "midi": 67,
      "hit": false,
      "t": 164625.00000000017,
      "d": 275,
      "v": 29
    },
    {
      "midi": 82,
      "hit": false,
      "t": 164891.66666666683,
      "d": 283.33333333334303,
      "v": 35
    },
    {
      "midi": 74,
      "hit": false,
      "t": 164916.66666666683,
      "d": 183.33333333334303,
      "v": 34
    },
    {
      "midi": 62,
      "hit": false,
      "t": 164933.33333333352,
      "d": 716.6666666666861,
      "v": 31
    },
    {
      "midi": 67,
      "hit": false,
      "t": 165216.66666666686,
      "d": 300,
      "v": 29
    },
    {
      "midi": 77,
      "hit": false,
      "t": 165241.66666666683,
      "d": 300,
      "v": 39
    },
    {
      "midi": 84,
      "hit": false,
      "t": 165250.00000000017,
      "d": 266.66666666665697,
      "v": 55
    },
    {
      "midi": 82,
      "hit": false,
      "t": 165558.3333333335,
      "d": 316.66666666668607,
      "v": 42
    },
    {
      "midi": 74,
      "hit": false,
      "t": 165566.66666666683,
      "d": 183.33333333334303,
      "v": 37
    },
    {
      "midi": 58,
      "hit": false,
      "t": 165625.0000000002,
      "d": 400,
      "v": 39
    },
    {
      "midi": 77,
      "hit": false,
      "t": 165933.33333333352,
      "d": 483.33333333331393,
      "v": 51
    },
    {
      "midi": 62,
      "hit": false,
      "t": 165933.33333333355,
      "d": 391.66666666665697,
      "v": 49
    },
    {
      "midi": 84,
      "hit": false,
      "t": 165941.66666666686,
      "d": 266.66666666665697,
      "v": 66
    },
    {
      "midi": 74,
      "hit": false,
      "t": 166275.00000000017,
      "d": 225,
      "v": 51
    },
    {
      "midi": 82,
      "hit": false,
      "t": 166275.00000000017,
      "d": 300,
      "v": 52
    },
    {
      "midi": 58,
      "hit": false,
      "t": 166300.0000000002,
      "d": 116.66666666665697,
      "v": 44
    },
    {
      "midi": 77,
      "hit": false,
      "t": 166625.00000000017,
      "d": 558.333333333343,
      "v": 68
    },
    {
      "midi": 84,
      "hit": false,
      "t": 166633.33333333352,
      "d": 233.33333333334303,
      "v": 72
    },
    {
      "midi": 82,
      "hit": false,
      "t": 166983.33333333352,
      "d": 241.66666666665697,
      "v": 65
    },
    {
      "midi": 74,
      "hit": false,
      "t": 167016.66666666686,
      "d": 375,
      "v": 58
    },
    {
      "midi": 73,
      "hit": false,
      "t": 167566.66666666683,
      "d": 341.66666666665697,
      "v": 51
    },
    {
      "midi": 80,
      "hit": false,
      "t": 167583.3333333335,
      "d": 358.33333333334303,
      "v": 52
    },
    {
      "midi": 47,
      "hit": false,
      "t": 167608.33333333352,
      "d": 808.333333333343,
      "v": 44
    },
    {
      "midi": 78,
      "hit": false,
      "t": 167991.66666666683,
      "d": 316.66666666668607,
      "v": 42
    },
    {
      "midi": 54,
      "hit": false,
      "t": 168008.33333333352,
      "d": 400,
      "v": 30
    },
    {
      "midi": 73,
      "hit": false,
      "t": 168025.00000000017,
      "d": 116.66666666665697,
      "v": 25
    },
    {
      "midi": 69,
      "hit": false,
      "t": 168025.00000000017,
      "d": 200,
      "v": 18
    },
    {
      "midi": 80,
      "hit": false,
      "t": 168391.66666666686,
      "d": 400.0000000000291,
      "v": 44
    },
    {
      "midi": 73,
      "hit": false,
      "t": 168400.0000000002,
      "d": 575.0000000000291,
      "v": 33
    },
    {
      "midi": 69,
      "hit": false,
      "t": 168408.33333333355,
      "d": 325,
      "v": 28
    },
    {
      "midi": 59,
      "hit": false,
      "t": 168433.33333333352,
      "d": 358.33333333334303,
      "v": 32
    },
    {
      "midi": 78,
      "hit": false,
      "t": 168800.00000000023,
      "d": 150,
      "v": 33
    },
    {
      "midi": 61,
      "hit": false,
      "t": 168808.33333333352,
      "d": 783.3333333333139,
      "v": 37
    },
    {
      "midi": 69,
      "hit": false,
      "t": 168816.6666666669,
      "d": 183.33333333334303,
      "v": 15
    },
    {
      "midi": 63,
      "hit": false,
      "t": 169158.33333333352,
      "d": 316.66666666665697,
      "v": 42
    },
    {
      "midi": 64,
      "hit": false,
      "t": 169400.00000000017,
      "d": 700,
      "v": 44
    },
    {
      "midi": 66,
      "hit": false,
      "t": 169608.33333333358,
      "d": 141.66666666665697,
      "v": 62
    },
    {
      "midi": 68,
      "hit": false,
      "t": 169783.33333333358,
      "d": 91.66666666665697,
      "v": 59
    },
    {
      "midi": 69,
      "hit": false,
      "t": 169916.6666666669,
      "d": 116.66666666665697,
      "v": 68
    },
    {
      "midi": 71,
      "hit": false,
      "t": 170050.0000000002,
      "d": 158.33333333334303,
      "v": 71
    },
    {
      "midi": 73,
      "hit": false,
      "t": 170183.33333333355,
      "d": 158.33333333334303,
      "v": 59
    },
    {
      "midi": 75,
      "hit": false,
      "t": 170308.33333333355,
      "d": 83.33333333334303,
      "v": 60
    },
    {
      "midi": 76,
      "hit": false,
      "t": 170416.6666666669,
      "d": 100,
      "v": 61
    },
    {
      "midi": 78,
      "hit": false,
      "t": 170516.6666666669,
      "d": 141.66666666665697,
      "v": 58
    },
    {
      "midi": 80,
      "hit": false,
      "t": 170641.6666666669,
      "d": 83.33333333331393,
      "v": 51
    },
    {
      "midi": 81,
      "hit": false,
      "t": 170750.0000000002,
      "d": 108.33333333334303,
      "v": 58
    },
    {
      "midi": 83,
      "hit": false,
      "t": 170891.6666666669,
      "d": 116.66666666665697,
      "v": 60
    },
    {
      "midi": 85,
      "hit": false,
      "t": 171016.6666666669,
      "d": 91.66666666665697,
      "v": 61
    },
    {
      "midi": 87,
      "hit": false,
      "t": 171150.0000000002,
      "d": 100,
      "v": 61
    },
    {
      "midi": 88,
      "hit": false,
      "t": 171300.0000000002,
      "d": 116.66666666665697,
      "v": 66
    },
    {
      "midi": 90,
      "hit": false,
      "t": 171450.0000000002,
      "d": 191.66666666665697,
      "v": 59
    },
    {
      "midi": 92,
      "hit": false,
      "t": 171616.66666666686,
      "d": 108.33333333334303,
      "v": 61
    },
    {
      "midi": 93,
      "hit": false,
      "t": 171775.0000000002,
      "d": 150,
      "v": 60
    },
    {
      "midi": 95,
      "hit": false,
      "t": 171941.66666666686,
      "d": 141.66666666665697,
      "v": 64
    },
    {
      "midi": 97,
      "hit": false,
      "t": 172133.33333333352,
      "d": 125,
      "v": 60
    },
    {
      "midi": 99,
      "hit": false,
      "t": 172300.00000000017,
      "d": 225,
      "v": 59
    },
    {
      "midi": 100,
      "hit": false,
      "t": 172533.33333333352,
      "d": 125,
      "v": 56
    },
    {
      "midi": 101,
      "hit": false,
      "t": 172750.00000000017,
      "d": 108.33333333334303,
      "v": 51
    },
    {
      "midi": 102,
      "hit": false,
      "t": 173283.33333333352,
      "d": 216.66666666665697,
      "v": 48
    },
    {
      "midi": 103,
      "hit": false,
      "t": 173575.00000000017,
      "d": 283.33333333334303,
      "v": 62
    },
    {
      "midi": 34,
      "hit": false,
      "t": 173591.66666666683,
      "d": 375,
      "v": 35
    },
    {
      "midi": 46,
      "hit": false,
      "t": 173933.3333333335,
      "d": 100,
      "v": 38
    },
    {
      "midi": 56,
      "hit": false,
      "t": 174316.66666666683,
      "d": 850,
      "v": 51
    },
    {
      "midi": 60,
      "hit": false,
      "t": 174616.66666666683,
      "d": 183.33333333334303,
      "v": 42
    },
    {
      "midi": 62,
      "hit": false,
      "t": 174808.33333333352,
      "d": 158.33333333334303,
      "v": 64
    },
    {
      "midi": 63,
      "hit": false,
      "t": 174983.33333333352,
      "d": 66.66666666665697,
      "v": 67
    },
    {
      "midi": 65,
      "hit": false,
      "t": 175066.66666666683,
      "d": 150,
      "v": 67
    },
    {
      "midi": 67,
      "hit": false,
      "t": 175200.00000000017,
      "d": 133.33333333331393,
      "v": 68
    },
    {
      "midi": 68,
      "hit": false,
      "t": 175291.66666666683,
      "d": 91.66666666665697,
      "v": 58
    },
    {
      "midi": 70,
      "hit": false,
      "t": 175366.66666666683,
      "d": 66.66666666665697,
      "v": 62
    },
    {
      "midi": 72,
      "hit": false,
      "t": 175466.66666666683,
      "d": 108.33333333334303,
      "v": 58
    },
    {
      "midi": 74,
      "hit": false,
      "t": 175566.66666666683,
      "d": 133.33333333334303,
      "v": 57
    },
    {
      "midi": 75,
      "hit": false,
      "t": 175641.66666666683,
      "d": 108.33333333334303,
      "v": 51
    },
    {
      "midi": 77,
      "hit": false,
      "t": 175808.33333333352,
      "d": 133.33333333334303,
      "v": 54
    },
    {
      "midi": 68,
      "hit": false,
      "t": 175866.66666666686,
      "d": 341.66666666668607,
      "v": 34
    },
    {
      "midi": 60,
      "hit": false,
      "t": 175883.33333333352,
      "d": 2658.333333333343,
      "v": 22
    },
    {
      "midi": 63,
      "hit": false,
      "t": 175908.33333333352,
      "d": 2625,
      "v": 39
    },
    {
      "midi": 58,
      "hit": false,
      "t": 175908.33333333352,
      "d": 2633.333333333343,
      "v": 31
    },
    {
      "midi": 75,
      "hit": false,
      "t": 175950.0000000002,
      "d": 100,
      "v": 51
    },
    {
      "midi": 72,
      "hit": false,
      "t": 176225.0000000002,
      "d": 91.66666666665697,
      "v": 28
    },
    {
      "midi": 68,
      "hit": false,
      "t": 176441.66666666686,
      "d": 50,
      "v": 25
    },
    {
      "midi": 67,
      "hit": false,
      "t": 176591.66666666686,
      "d": 58.333333333343035,
      "v": 53
    },
    {
      "midi": 82,
      "hit": false,
      "t": 176783.33333333355,
      "d": 75,
      "v": 70
    },
    {
      "midi": 80,
      "hit": false,
      "t": 177050.0000000002,
      "d": 91.66666666665697,
      "v": 52
    },
    {
      "midi": 75,
      "hit": false,
      "t": 177316.66666666686,
      "d": 241.66666666665697,
      "v": 49
    },
    {
      "midi": 80,
      "hit": false,
      "t": 177341.66666666686,
      "d": 233.33333333331393,
      "v": 29
    },
    {
      "midi": 68,
      "hit": false,
      "t": 177383.33333333352,
      "d": 250,
      "v": 14
    },
    {
      "midi": 72,
      "hit": false,
      "t": 177550.00000000017,
      "d": 166.66666666668607,
      "v": 42
    },
    {
      "midi": 75,
      "hit": false,
      "t": 177833.33333333352,
      "d": 275.0000000000291,
      "v": 49
    },
    {
      "midi": 79,
      "hit": false,
      "t": 177866.66666666686,
      "d": 225,
      "v": 39
    },
    {
      "midi": 68,
      "hit": false,
      "t": 177866.66666666686,
      "d": 341.66666666668607,
      "v": 25
    },
    {
      "midi": 72,
      "hit": false,
      "t": 178100.0000000002,
      "d": 116.66666666668607,
      "v": 47
    },
    {
      "midi": 72,
      "hit": false,
      "t": 178358.33333333355,
      "d": 208.33333333334303,
      "v": 50
    },
    {
      "midi": 75,
      "hit": false,
      "t": 178391.6666666669,
      "d": 250,
      "v": 43
    },
    {
      "midi": 68,
      "hit": false,
      "t": 178600.00000000023,
      "d": 83.33333333331393,
      "v": 46
    },
    {
      "midi": 72,
      "hit": false,
      "t": 178875.0000000002,
      "d": 200,
      "v": 40
    },
    {
      "midi": 68,
      "hit": false,
      "t": 178883.33333333355,
      "d": 233.33333333331393,
      "v": 37
    },
    {
      "midi": 65,
      "hit": false,
      "t": 178891.66666666686,
      "d": 258.33333333331393,
      "v": 31
    },
    {
      "midi": 56,
      "hit": false,
      "t": 178908.33333333352,
      "d": 241.66666666665697,
      "v": 18
    },
    {
      "midi": 53,
      "hit": false,
      "t": 179175.00000000017,
      "d": 366.66666666665697,
      "v": 22
    },
    {
      "midi": 68,
      "hit": false,
      "t": 179466.66666666686,
      "d": 225.0000000000291,
      "v": 37
    },
    {
      "midi": 56,
      "hit": false,
      "t": 179466.66666666686,
      "d": 250.0000000000291,
      "v": 25
    },
    {
      "midi": 60,
      "hit": false,
      "t": 179475.0000000002,
      "d": 291.66666666668607,
      "v": 22
    },
    {
      "midi": 63,
      "hit": false,
      "t": 179483.33333333355,
      "d": 241.66666666668607,
      "v": 38
    },
    {
      "midi": 53,
      "hit": false,
      "t": 179733.3333333335,
      "d": 41.666666666656965,
      "v": 32
    },
    {
      "midi": 60,
      "hit": false,
      "t": 180083.33333333355,
      "d": 383.33333333331393,
      "v": 36
    },
    {
      "midi": 46,
      "hit": false,
      "t": 180091.6666666668,
      "d": 683.333333333343,
      "v": 33
    },
    {
      "midi": 63,
      "hit": false,
      "t": 180100.0000000002,
      "d": 383.33333333331393,
      "v": 40
    },
    {
      "midi": 56,
      "hit": false,
      "t": 180100.0000000002,
      "d": 416.66666666665697,
      "v": 34
    },
    {
      "midi": 41,
      "hit": false,
      "t": 180408.33333333346,
      "d": 366.66666666668607,
      "v": 31
    },
    {
      "midi": 34,
      "hit": false,
      "t": 180766.6666666668,
      "d": 108.33333333334303,
      "v": 33
    },
    {
      "midi": 53,
      "hit": false,
      "t": 180775.0000000002,
      "d": 441.66666666668607,
      "v": 32
    },
    {
      "midi": 60,
      "hit": false,
      "t": 180783.33333333355,
      "d": 641.6666666666861,
      "v": 27
    },
    {
      "midi": 56,
      "hit": false,
      "t": 180783.33333333355,
      "d": 650.0000000000291,
      "v": 40
    },
    {
      "midi": 56,
      "hit": false,
      "t": 181641.66666666692,
      "d": 983.333333333343,
      "v": 31
    },
    {
      "midi": 60,
      "hit": false,
      "t": 181650.00000000026,
      "d": 883.333333333343,
      "v": 29
    },
    {
      "midi": 53,
      "hit": false,
      "t": 181658.3333333336,
      "d": 850,
      "v": 24
    },
    {
      "midi": 34,
      "hit": false,
      "t": 181683.3333333335,
      "d": 366.66666666665697,
      "v": 25
    },
    {
      "midi": 34,
      "hit": false,
      "t": 182183.3333333335,
      "d": 341.66666666665697,
      "v": 25
    },
    {
      "midi": 53,
      "hit": false,
      "t": 182941.66666666692,
      "d": 1125,
      "v": 24
    },
    {
      "midi": 56,
      "hit": false,
      "t": 182941.66666666692,
      "d": 1208.333333333343,
      "v": 28
    },
    {
      "midi": 59,
      "hit": false,
      "t": 182950.00000000026,
      "d": 1200,
      "v": 38
    },
    {
      "midi": 34,
      "hit": false,
      "t": 182958.3333333335,
      "d": 1016.666666666657,
      "v": 25
    },
    {
      "midi": 70,
      "hit": false,
      "t": 185525.00000000026,
      "d": 533.333333333343,
      "v": 42
    },
    {
      "midi": 39,
      "hit": false,
      "t": 185541.6666666668,
      "d": 516.666666666657,
      "v": 32
    },
    {
      "midi": 46,
      "hit": false,
      "t": 185558.33333333346,
      "d": 541.666666666657,
      "v": 31
    },
    {
      "midi": 58,
      "hit": false,
      "t": 185558.3333333336,
      "d": 350,
      "v": 31
    },
    {
      "midi": 63,
      "hit": false,
      "t": 185558.3333333336,
      "d": 458.33333333334303,
      "v": 34
    },
    {
      "midi": 72,
      "hit": false,
      "t": 186666.66666666695,
      "d": 341.66666666665697,
      "v": 87
    },
    {
      "midi": 70,
      "hit": false,
      "t": 186941.66666666695,
      "d": 391.66666666665697,
      "v": 75
    },
    {
      "midi": 67,
      "hit": false,
      "t": 187316.66666666695,
      "d": 491.66666666665697,
      "v": 61
    },
    {
      "midi": 58,
      "hit": false,
      "t": 187333.33333333346,
      "d": 575,
      "v": 29
    },
    {
      "midi": 50,
      "hit": false,
      "t": 187350.00000000012,
      "d": 550,
      "v": 39
    },
    {
      "midi": 70,
      "hit": false,
      "t": 187775.00000000026,
      "d": 425,
      "v": 53
    },
    {
      "midi": 63,
      "hit": false,
      "t": 188233.3333333336,
      "d": 708.3333333333139,
      "v": 44
    },
    {
      "midi": 58,
      "hit": false,
      "t": 188258.33333333346,
      "d": 441.66666666665697,
      "v": 26
    },
    {
      "midi": 60,
      "hit": false,
      "t": 188258.3333333336,
      "d": 616.666666666657,
      "v": 24
    },
    {
      "midi": 48,
      "hit": false,
      "t": 188283.33333333346,
      "d": 433.33333333331393,
      "v": 31
    },
    {
      "midi": 46,
      "hit": false,
      "t": 189166.66666666677,
      "d": 700,
      "v": 29
    },
    {
      "midi": 60,
      "hit": false,
      "t": 189166.66666666692,
      "d": 466.66666666665697,
      "v": 31
    },
    {
      "midi": 63,
      "hit": false,
      "t": 189166.66666666692,
      "d": 491.66666666665697,
      "v": 39
    },
    {
      "midi": 55,
      "hit": false,
      "t": 189175.00000000012,
      "d": 650,
      "v": 29
    },
    {
      "midi": 63,
      "hit": false,
      "t": 189808.33333333358,
      "d": 116.66666666665697,
      "v": 68
    },
    {
      "midi": 72,
      "hit": false,
      "t": 190350.00000000023,
      "d": 558.333333333343,
      "v": 66
    },
    {
      "midi": 60,
      "hit": false,
      "t": 190358.33333333358,
      "d": 550,
      "v": 68
    },
    {
      "midi": 44,
      "hit": false,
      "t": 190366.66666666677,
      "d": 933.333333333343,
      "v": 33
    },
    {
      "midi": 51,
      "hit": false,
      "t": 190366.66666666677,
      "d": 941.6666666666861,
      "v": 45
    },
    {
      "midi": 56,
      "hit": false,
      "t": 190366.66666666677,
      "d": 991.6666666666861,
      "v": 43
    },
    {
      "midi": 75,
      "hit": false,
      "t": 191600.00000000023,
      "d": 508.33333333334303,
      "v": 77
    },
    {
      "midi": 56,
      "hit": false,
      "t": 191608.33333333346,
      "d": 416.66666666668607,
      "v": 58
    },
    {
      "midi": 44,
      "hit": false,
      "t": 191608.33333333346,
      "d": 491.66666666668607,
      "v": 50
    },
    {
      "midi": 63,
      "hit": false,
      "t": 191608.33333333358,
      "d": 408.33333333334303,
      "v": 83
    },
    {
      "midi": 51,
      "hit": false,
      "t": 191616.6666666668,
      "d": 433.33333333334303,
      "v": 53
    },
    {
      "midi": 79,
      "hit": false,
      "t": 192983.33333333358,
      "d": 1616.666666666686,
      "v": 64
    },
    {
      "midi": 71,
      "hit": false,
      "t": 192983.33333333358,
      "d": 2033.3333333333721,
      "v": 62
    },
    {
      "midi": 31,
      "hit": false,
      "t": 192991.6666666668,
      "d": 300,
      "v": 55
    },
    {
      "midi": 68,
      "hit": false,
      "t": 192991.66666666692,
      "d": 1908.333333333343,
      "v": 55
    },
    {
      "midi": 74,
      "hit": false,
      "t": 192991.66666666692,
      "d": 2016.666666666686,
      "v": 64
    },
    {
      "midi": 43,
      "hit": false,
      "t": 193000.00000000015,
      "d": 375,
      "v": 47
    },
    {
      "midi": 56,
      "hit": false,
      "t": 193850.00000000015,
      "d": 2475.000000000029,
      "v": 50
    },
    {
      "midi": 59,
      "hit": false,
      "t": 194533.3333333335,
      "d": 1758.333333333343,
      "v": 37
    },
    {
      "midi": 77,
      "hit": false,
      "t": 195616.66666666695,
      "d": 166.66666666665697,
      "v": 52
    },
    {
      "midi": 71,
      "hit": false,
      "t": 195633.3333333336,
      "d": 558.3333333333139,
      "v": 43
    },
    {
      "midi": 67,
      "hit": false,
      "t": 195641.66666666695,
      "d": 433.33333333331393,
      "v": 34
    },
    {
      "midi": 62,
      "hit": false,
      "t": 195683.3333333335,
      "d": 700.0000000000291,
      "v": 26
    },
    {
      "midi": 79,
      "hit": false,
      "t": 196225.00000000026,
      "d": 1416.666666666686,
      "v": 44
    },
    {
      "midi": 78,
      "hit": false,
      "t": 197633.3333333336,
      "d": 91.66666666668607,
      "v": 43
    },
    {
      "midi": 77,
      "hit": false,
      "t": 197716.66666666695,
      "d": 1175.000000000029,
      "v": 54
    },
    {
      "midi": 58,
      "hit": false,
      "t": 197766.66666666686,
      "d": 1416.666666666686,
      "v": 15
    },
    {
      "midi": 60,
      "hit": false,
      "t": 197775.0000000002,
      "d": 1358.333333333343,
      "v": 24
    },
    {
      "midi": 63,
      "hit": false,
      "t": 197791.66666666686,
      "d": 1308.333333333343,
      "v": 31
    },
    {
      "midi": 68,
      "hit": false,
      "t": 197800.0000000002,
      "d": 1116.666666666657,
      "v": 18
    },
    {
      "midi": 75,
      "hit": false,
      "t": 198858.33333333363,
      "d": 733.333333333343,
      "v": 42
    },
    {
      "midi": 75,
      "hit": false,
      "t": 200025.00000000032,
      "d": 500,
      "v": 40
    },
    {
      "midi": 44,
      "hit": false,
      "t": 200075.0000000002,
      "d": 733.333333333343,
      "v": 27
    },
    {
      "midi": 51,
      "hit": false,
      "t": 200483.33333333355,
      "d": 350,
      "v": 23
    },
    {
      "midi": 55,
      "hit": false,
      "t": 200858.33333333355,
      "d": 341.66666666665697,
      "v": 33
    },
    {
      "midi": 56,
      "hit": false,
      "t": 201241.66666666686,
      "d": 1875.000000000029,
      "v": 35
    },
    {
      "midi": 60,
      "hit": false,
      "t": 201641.66666666698,
      "d": 241.66666666665697,
      "v": 29
    },
    {
      "midi": 60,
      "hit": false,
      "t": 202075.0000000002,
      "d": 983.333333333343,
      "v": 26
    },
    {
      "midi": 63,
      "hit": false,
      "t": 202475.0000000003,
      "d": 183.33333333334303,
      "v": 38
    },
    {
      "midi": 74,
      "hit": false,
      "t": 202816.66666666698,
      "d": 150,
      "v": 66
    },
    {
      "midi": 75,
      "hit": false,
      "t": 203091.66666666698,
      "d": 108.33333333334303,
      "v": 78
    },
    {
      "midi": 70,
      "hit": false,
      "t": 203433.33333333366,
      "d": 1391.666666666657,
      "v": 60
    },
    {
      "midi": 43,
      "hit": false,
      "t": 203458.33333333355,
      "d": 600,
      "v": 43
    },
    {
      "midi": 50,
      "hit": false,
      "t": 203750.0000000002,
      "d": 300,
      "v": 41
    },
    {
      "midi": 55,
      "hit": false,
      "t": 204091.6666666669,
      "d": 233.33333333334303,
      "v": 44
    },
    {
      "midi": 56,
      "hit": false,
      "t": 204416.6666666669,
      "d": 75,
      "v": 30
    },
    {
      "midi": 58,
      "hit": false,
      "t": 204425.00000000032,
      "d": 166.66666666665697,
      "v": 55
    },
    {
      "midi": 60,
      "hit": false,
      "t": 204800.00000000032,
      "d": 1550.000000000029,
      "v": 30
    },
    {
      "midi": 63,
      "hit": false,
      "t": 204816.66666666698,
      "d": 1400.000000000029,
      "v": 49
    },
    {
      "midi": 58,
      "hit": false,
      "t": 204850.00000000032,
      "d": 483.33333333334303,
      "v": 32
    },
    {
      "midi": 48,
      "hit": false,
      "t": 204883.33333333355,
      "d": 1233.333333333314,
      "v": 37
    },
    {
      "midi": 55,
      "hit": false,
      "t": 205250.0000000002,
      "d": 791.666666666657,
      "v": 42
    },
    {
      "midi": 58,
      "hit": false,
      "t": 205716.666666667,
      "d": 358.33333333334303,
      "v": 30
    },
    {
      "midi": 70,
      "hit": false,
      "t": 206141.666666667,
      "d": 200,
      "v": 59
    },
    {
      "midi": 70,
      "hit": false,
      "t": 206650.00000000035,
      "d": 366.66666666668607,
      "v": 39
    },
    {
      "midi": 60,
      "hit": false,
      "t": 206658.3333333337,
      "d": 475,
      "v": 28
    },
    {
      "midi": 51,
      "hit": false,
      "t": 206666.66666666686,
      "d": 1116.666666666657,
      "v": 32
    },
    {
      "midi": 44,
      "hit": false,
      "t": 206666.66666666686,
      "d": 1225,
      "v": 31
    },
    {
      "midi": 65,
      "hit": false,
      "t": 206666.66666666704,
      "d": 783.333333333343,
      "v": 45
    },
    {
      "midi": 72,
      "hit": false,
      "t": 207166.66666666704,
      "d": 950.0000000000291,
      "v": 61
    },
    {
      "midi": 73,
      "hit": false,
      "t": 207175.00000000038,
      "d": 150,
      "v": 45
    },
    {
      "midi": 56,
      "hit": false,
      "t": 207183.33333333352,
      "d": 558.333333333343,
      "v": 45
    },
    {
      "midi": 65,
      "hit": false,
      "t": 207658.33333333372,
      "d": 516.6666666666861,
      "v": 62
    },
    {
      "midi": 60,
      "hit": false,
      "t": 207658.33333333372,
      "d": 541.6666666666861,
      "v": 51
    },
    {
      "midi": 43,
      "hit": false,
      "t": 208100.0000000002,
      "d": 283.33333333334303,
      "v": 66
    },
    {
      "midi": 41,
      "hit": false,
      "t": 208700.0000000002,
      "d": 241.66666666665697,
      "v": 53
    },
    {
      "midi": 56,
      "hit": false,
      "t": 208708.33333333375,
      "d": 166.66666666665697,
      "v": 55
    },
    {
      "midi": 60,
      "hit": false,
      "t": 208708.33333333375,
      "d": 200,
      "v": 53
    },
    {
      "midi": 53,
      "hit": false,
      "t": 208716.66666666686,
      "d": 308.33333333334303,
      "v": 36
    },
    {
      "midi": 72,
      "hit": false,
      "t": 209883.33333333375,
      "d": 250,
      "v": 72
    },
    {
      "midi": 71,
      "hit": false,
      "t": 210158.33333333375,
      "d": 225,
      "v": 77
    },
    {
      "midi": 72,
      "hit": false,
      "t": 210425.0000000004,
      "d": 266.66666666665697,
      "v": 78
    },
    {
      "midi": 60,
      "hit": false,
      "t": 210766.66666666686,
      "d": 1091.666666666657,
      "v": 39
    },
    {
      "midi": 68,
      "hit": false,
      "t": 210775.0000000004,
      "d": 725,
      "v": 51
    },
    {
      "midi": 77,
      "hit": false,
      "t": 210775.0000000004,
      "d": 991.666666666657,
      "v": 80
    },
    {
      "midi": 63,
      "hit": false,
      "t": 210783.33333333352,
      "d": 1075,
      "v": 52
    },
    {
      "midi": 74,
      "hit": false,
      "t": 211841.66666666706,
      "d": 58.333333333343035,
      "v": 55
    },
    {
      "midi": 70,
      "hit": false,
      "t": 212441.66666666706,
      "d": 1075,
      "v": 46
    },
    {
      "midi": 58,
      "hit": false,
      "t": 212466.66666666706,
      "d": 975,
      "v": 25
    },
    {
      "midi": 62,
      "hit": false,
      "t": 212466.66666666706,
      "d": 975,
      "v": 40
    },
    {
      "midi": 43,
      "hit": false,
      "t": 212483.33333333352,
      "d": 1349.999999999971,
      "v": 31
    },
    {
      "midi": 53,
      "hit": false,
      "t": 212500.00000000017,
      "d": 441.66666666665697,
      "v": 14
    },
    {
      "midi": 50,
      "hit": false,
      "t": 212966.66666666683,
      "d": 900,
      "v": 46
    },
    {
      "midi": 55,
      "hit": false,
      "t": 213458.3333333335,
      "d": 575,
      "v": 51
    },
    {
      "midi": 72,
      "hit": false,
      "t": 213833.33333333372,
      "d": 141.66666666665697,
      "v": 65
    },
    {
      "midi": 74,
      "hit": false,
      "t": 214108.33333333372,
      "d": 133.33333333334303,
      "v": 71
    },
    {
      "midi": 75,
      "hit": false,
      "t": 214458.33333333372,
      "d": 966.666666666657,
      "v": 52
    },
    {
      "midi": 48,
      "hit": false,
      "t": 214491.66666666683,
      "d": 475,
      "v": 29
    },
    {
      "midi": 55,
      "hit": false,
      "t": 214883.3333333335,
      "d": 1108.333333333343,
      "v": 36
    },
    {
      "midi": 63,
      "hit": false,
      "t": 215341.66666666683,
      "d": 483.33333333331393,
      "v": 29
    },
    {
      "midi": 62,
      "hit": false,
      "t": 215358.3333333335,
      "d": 525,
      "v": 24
    },
    {
      "midi": 67,
      "hit": false,
      "t": 215358.33333333372,
      "d": 308.33333333331393,
      "v": 32
    },
    {
      "midi": 67,
      "hit": false,
      "t": 216066.66666666704,
      "d": 141.66666666665697,
      "v": 33
    },
    {
      "midi": 70,
      "hit": false,
      "t": 216266.66666666704,
      "d": 183.33333333334303,
      "v": 38
    },
    {
      "midi": 56,
      "hit": false,
      "t": 216550.00000000017,
      "d": 800,
      "v": 31
    },
    {
      "midi": 60,
      "hit": false,
      "t": 216550.00000000038,
      "d": 325.0000000000291,
      "v": 25
    },
    {
      "midi": 68,
      "hit": false,
      "t": 216558.33333333372,
      "d": 283.33333333334303,
      "v": 35
    },
    {
      "midi": 44,
      "hit": false,
      "t": 216566.66666666683,
      "d": 1866.666666666657,
      "v": 23
    },
    {
      "midi": 68,
      "hit": false,
      "t": 216950.0000000004,
      "d": 100,
      "v": 45
    },
    {
      "midi": 77,
      "hit": false,
      "t": 217458.33333333375,
      "d": 416.66666666665697,
      "v": 66
    },
    {
      "midi": 65,
      "hit": false,
      "t": 217458.33333333375,
      "d": 533.3333333333139,
      "v": 61
    },
    {
      "midi": 56,
      "hit": false,
      "t": 217466.66666666683,
      "d": 391.66666666665697,
      "v": 35
    },
    {
      "midi": 56,
      "hit": false,
      "t": 217958.3333333335,
      "d": 183.33333333334303,
      "v": 34
    },
    {
      "midi": 63,
      "hit": false,
      "t": 218500.0000000004,
      "d": 616.6666666666861,
      "v": 40
    },
    {
      "midi": 44,
      "hit": false,
      "t": 218508.3333333335,
      "d": 433.33333333334303,
      "v": 31
    },
    {
      "midi": 58,
      "hit": false,
      "t": 218516.66666666706,
      "d": 591.6666666666861,
      "v": 44
    },
    {
      "midi": 55,
      "hit": false,
      "t": 218525.00000000015,
      "d": 491.66666666668607,
      "v": 30
    },
    {
      "midi": 60,
      "hit": false,
      "t": 218525.0000000004,
      "d": 558.333333333343,
      "v": 31
    },
    {
      "midi": 51,
      "hit": false,
      "t": 218583.3333333335,
      "d": 2525,
      "v": 18
    },
    {
      "midi": 44,
      "hit": false,
      "t": 219066.66666666683,
      "d": 1000,
      "v": 31
    },
    {
      "midi": 56,
      "hit": false,
      "t": 219650.00000000017,
      "d": 1608.333333333314,
      "v": 39
    },
    {
      "midi": 75,
      "hit": false,
      "t": 220975.00000000044,
      "d": 416.66666666665697,
      "v": 58
    },
    {
      "midi": 75,
      "hit": false,
      "t": 221991.6666666671,
      "d": 991.6666666666861,
      "v": 40
    },
    {
      "midi": 63,
      "hit": false,
      "t": 222025.00000000015,
      "d": 291.66666666665697,
      "v": 32
    },
    {
      "midi": 72,
      "hit": false,
      "t": 222033.33333333375,
      "d": 916.6666666666861,
      "v": 36
    },
    {
      "midi": 68,
      "hit": false,
      "t": 222041.6666666671,
      "d": 1166.666666666686,
      "v": 25
    },
    {
      "midi": 63,
      "hit": false,
      "t": 222525.00000000015,
      "d": 208.33333333334303,
      "v": 33
    },
    {
      "midi": 63,
      "hit": false,
      "t": 223016.66666666683,
      "d": 225,
      "v": 33
    },
    {
      "midi": 72,
      "hit": false,
      "t": 223483.33333333378,
      "d": 233.33333333334303,
      "v": 47
    },
    {
      "midi": 63,
      "hit": false,
      "t": 223500.00000000017,
      "d": 266.66666666665697,
      "v": 29
    },
    {
      "midi": 70,
      "hit": false,
      "t": 224058.33333333378,
      "d": 1650.000000000029,
      "v": 37
    },
    {
      "midi": 62,
      "hit": false,
      "t": 224075.00000000017,
      "d": 566.6666666666861,
      "v": 32
    },
    {
      "midi": 65,
      "hit": false,
      "t": 224083.33333333352,
      "d": 816.666666666657,
      "v": 33
    },
    {
      "midi": 50,
      "hit": false,
      "t": 224658.33333333352,
      "d": 1516.666666666686,
      "v": 33
    },
    {
      "midi": 65,
      "hit": false,
      "t": 225366.66666666712,
      "d": 308.33333333334303,
      "v": 28
    },
    {
      "midi": 62,
      "hit": false,
      "t": 225383.33333333352,
      "d": 658.333333333343,
      "v": 14
    },
    {
      "midi": 77,
      "hit": false,
      "t": 226275.00000000047,
      "d": 150,
      "v": 64
    },
    {
      "midi": 75,
      "hit": false,
      "t": 226983.3333333338,
      "d": 258.33333333331393,
      "v": 48
    },
    {
      "midi": 63,
      "hit": false,
      "t": 227008.3333333338,
      "d": 116.66666666665697,
      "v": 25
    },
    {
      "midi": 48,
      "hit": false,
      "t": 227033.33333333355,
      "d": 1150,
      "v": 32
    },
    {
      "midi": 67,
      "hit": false,
      "t": 227041.66666666715,
      "d": 66.66666666665697,
      "v": 29
    },
    {
      "midi": 72,
      "hit": false,
      "t": 227483.33333333378,
      "d": 258.33333333334303,
      "v": 58
    },
    {
      "midi": 75,
      "hit": false,
      "t": 227891.66666666712,
      "d": 325,
      "v": 65
    },
    {
      "midi": 60,
      "hit": false,
      "t": 227900.0000000002,
      "d": 558.333333333343,
      "v": 29
    },
    {
      "midi": 72,
      "hit": false,
      "t": 227900.00000000047,
      "d": 350,
      "v": 60
    },
    {
      "midi": 77,
      "hit": false,
      "t": 228300.00000000047,
      "d": 125,
      "v": 61
    },
    {
      "midi": 79,
      "hit": false,
      "t": 228508.3333333338,
      "d": 233.33333333334303,
      "v": 67
    },
    {
      "midi": 53,
      "hit": false,
      "t": 228791.6666666669,
      "d": 450,
      "v": 33
    },
    {
      "midi": 77,
      "hit": false,
      "t": 228816.66666666715,
      "d": 308.33333333334303,
      "v": 47
    },
    {
      "midi": 67,
      "hit": false,
      "t": 229333.33333333355,
      "d": 1125,
      "v": 44
    },
    {
      "midi": 84,
      "hit": false,
      "t": 230350.0000000005,
      "d": 450,
      "v": 53
    },
    {
      "midi": 68,
      "hit": false,
      "t": 230408.33333333355,
      "d": 875,
      "v": 35
    },
    {
      "midi": 72,
      "hit": false,
      "t": 230783.33333333384,
      "d": 308.33333333331393,
      "v": 1
    },
    {
      "midi": 77,
      "hit": false,
      "t": 231291.66666666715,
      "d": 266.66666666665697,
      "v": 54
    },
    {
      "midi": 75,
      "hit": false,
      "t": 232058.3333333338,
      "d": 908.333333333343,
      "v": 40
    },
    {
      "midi": 67,
      "hit": false,
      "t": 232183.3333333338,
      "d": 791.6666666666861,
      "v": 46
    },
    {
      "midi": 48,
      "hit": false,
      "t": 232308.33333333355,
      "d": 1933.333333333343,
      "v": 30
    },
    {
      "midi": 63,
      "hit": false,
      "t": 232383.3333333338,
      "d": 666.6666666666861,
      "v": 31
    },
    {
      "midi": 55,
      "hit": false,
      "t": 232916.6666666669,
      "d": 1258.333333333343,
      "v": 22
    },
    {
      "midi": 60,
      "hit": false,
      "t": 233433.33333333384,
      "d": 275,
      "v": 51
    },
    {
      "midi": 63,
      "hit": false,
      "t": 233808.33333333384,
      "d": 225,
      "v": 82
    },
    {
      "midi": 65,
      "hit": false,
      "t": 234133.33333333384,
      "d": 183.33333333334303,
      "v": 81
    },
    {
      "midi": 67,
      "hit": false,
      "t": 234375.00000000052,
      "d": 108.33333333334303,
      "v": 63
    },
    {
      "midi": 56,
      "hit": false,
      "t": 234766.6666666672,
      "d": 216.66666666665697,
      "v": 51
    },
    {
      "midi": 65,
      "hit": false,
      "t": 234783.33333333387,
      "d": 266.66666666665697,
      "v": 49
    },
    {
      "midi": 63,
      "hit": false,
      "t": 234783.33333333387,
      "d": 283.33333333331393,
      "v": 49
    },
    {
      "midi": 41,
      "hit": false,
      "t": 234800.00000000023,
      "d": 241.66666666665697,
      "v": 35
    },
    {
      "midi": 51,
      "hit": false,
      "t": 234800.00000000023,
      "d": 308.33333333331393,
      "v": 23
    },
    {
      "midi": 72,
      "hit": false,
      "t": 235375.00000000052,
      "d": 175,
      "v": 68
    },
    {
      "midi": 63,
      "hit": false,
      "t": 235375.00000000052,
      "d": 250,
      "v": 75
    },
    {
      "midi": 68,
      "hit": false,
      "t": 235383.33333333387,
      "d": 233.33333333331393,
      "v": 67
    },
    {
      "midi": 56,
      "hit": false,
      "t": 235441.6666666669,
      "d": 100,
      "v": 35
    },
    {
      "midi": 56,
      "hit": false,
      "t": 236091.6666666669,
      "d": 233.33333333334303,
      "v": 50
    },
    {
      "midi": 60,
      "hit": false,
      "t": 236658.33333333387,
      "d": 258.33333333334303,
      "v": 61
    },
    {
      "midi": 65,
      "hit": false,
      "t": 236658.33333333387,
      "d": 258.33333333334303,
      "v": 66
    },
    {
      "midi": 60,
      "hit": false,
      "t": 237491.6666666672,
      "d": 375,
      "v": 52
    },
    {
      "midi": 63,
      "hit": false,
      "t": 237491.6666666672,
      "d": 516.666666666657,
      "v": 60
    },
    {
      "midi": 55,
      "hit": false,
      "t": 237500.00000000023,
      "d": 416.66666666668607,
      "v": 55
    },
    {
      "midi": 48,
      "hit": false,
      "t": 237508.33333333358,
      "d": 833.333333333343,
      "v": 46
    },
    {
      "midi": 60,
      "hit": false,
      "t": 238016.6666666672,
      "d": 291.66666666665697,
      "v": 55
    },
    {
      "midi": 63,
      "hit": false,
      "t": 238466.6666666672,
      "d": 316.66666666668607,
      "v": 64
    },
    {
      "midi": 60,
      "hit": false,
      "t": 238475.00000000055,
      "d": 308.33333333334303,
      "v": 48
    },
    {
      "midi": 55,
      "hit": false,
      "t": 238483.33333333358,
      "d": 258.33333333334303,
      "v": 55
    },
    {
      "midi": 48,
      "hit": false,
      "t": 238483.33333333358,
      "d": 933.333333333343,
      "v": 37
    },
    {
      "midi": 65,
      "hit": false,
      "t": 238850.00000000055,
      "d": 141.66666666668607,
      "v": 72
    },
    {
      "midi": 60,
      "hit": false,
      "t": 238883.3333333339,
      "d": 50,
      "v": 37
    },
    {
      "midi": 67,
      "hit": false,
      "t": 239100.00000000058,
      "d": 108.33333333334303,
      "v": 66
    },
    {
      "midi": 65,
      "hit": false,
      "t": 239416.66666666727,
      "d": 233.33333333331393,
      "v": 49
    },
    {
      "midi": 51,
      "hit": false,
      "t": 239433.33333333358,
      "d": 1341.666666666657,
      "v": 37
    },
    {
      "midi": 60,
      "hit": false,
      "t": 239433.33333333393,
      "d": 191.66666666665697,
      "v": 34
    },
    {
      "midi": 41,
      "hit": false,
      "t": 239450.00000000023,
      "d": 1158.333333333343,
      "v": 36
    },
    {
      "midi": 56,
      "hit": false,
      "t": 239450.00000000058,
      "d": 250,
      "v": 39
    },
    {
      "midi": 63,
      "hit": false,
      "t": 239483.33333333393,
      "d": 191.66666666665697,
      "v": 29
    },
    {
      "midi": 72,
      "hit": false,
      "t": 240425.00000000058,
      "d": 283.33333333334303,
      "v": 47
    },
    {
      "midi": 77,
      "hit": false,
      "t": 241558.33333333393,
      "d": 466.66666666668607,
      "v": 51
    },
    {
      "midi": 68,
      "hit": false,
      "t": 241566.6666666669,
      "d": 566.6666666666861,
      "v": 36
    },
    {
      "midi": 72,
      "hit": false,
      "t": 241566.66666666727,
      "d": 483.33333333334303,
      "v": 41
    },
    {
      "midi": 65,
      "hit": false,
      "t": 241575.00000000023,
      "d": 591.6666666666861,
      "v": 36
    },
    {
      "midi": 74,
      "hit": false,
      "t": 243166.66666666727,
      "d": 208.33333333334303,
      "v": 47
    },
    {
      "midi": 72,
      "hit": false,
      "t": 243425.0000000006,
      "d": 100,
      "v": 45
    },
    {
      "midi": 70,
      "hit": false,
      "t": 243766.66666666727,
      "d": 1383.333333333343,
      "v": 39
    },
    {
      "midi": 43,
      "hit": false,
      "t": 243791.66666666692,
      "d": 325,
      "v": 32
    },
    {
      "midi": 55,
      "hit": false,
      "t": 244125.00000000026,
      "d": 350,
      "v": 30
    },
    {
      "midi": 58,
      "hit": false,
      "t": 244483.33333333393,
      "d": 383.33333333334303,
      "v": 32
    },
    {
      "midi": 58,
      "hit": false,
      "t": 245233.33333333395,
      "d": 558.3333333333139,
      "v": 30
    },
    {
      "midi": 62,
      "hit": false,
      "t": 245233.33333333395,
      "d": 641.666666666657,
      "v": 22
    },
    {
      "midi": 65,
      "hit": false,
      "t": 245233.33333333395,
      "d": 1183.333333333343,
      "v": 36
    },
    {
      "midi": 48,
      "hit": false,
      "t": 245275.00000000026,
      "d": 950,
      "v": 27
    },
    {
      "midi": 55,
      "hit": false,
      "t": 245700.0000000006,
      "d": 1175.000000000029,
      "v": 32
    },
    {
      "midi": 58,
      "hit": false,
      "t": 246175.0000000006,
      "d": 141.66666666668607,
      "v": 29
    },
    {
      "midi": 60,
      "hit": false,
      "t": 246183.33333333395,
      "d": 1175.000000000029,
      "v": 27
    },
    {
      "midi": 63,
      "hit": false,
      "t": 246191.6666666673,
      "d": 1233.333333333343,
      "v": 35
    },
    {
      "midi": 48,
      "hit": false,
      "t": 246816.66666666692,
      "d": 266.66666666665697,
      "v": 27
    },
    {
      "midi": 37,
      "hit": false,
      "t": 248075.00000000023,
      "d": 233.33333333334303,
      "v": 51
    },
    {
      "midi": 44,
      "hit": false,
      "t": 248083.33333333358,
      "d": 325,
      "v": 56
    },
    {
      "midi": 53,
      "hit": false,
      "t": 248750.00000000023,
      "d": 700,
      "v": 36
    },
    {
      "midi": 63,
      "hit": false,
      "t": 248750.00000000064,
      "d": 858.3333333333139,
      "v": 53
    },
    {
      "midi": 58,
      "hit": false,
      "t": 248766.6666666669,
      "d": 783.333333333343,
      "v": 55
    },
    {
      "midi": 65,
      "hit": false,
      "t": 249016.6666666673,
      "d": 141.66666666665697,
      "v": 68
    },
    {
      "midi": 68,
      "hit": false,
      "t": 249208.33333333395,
      "d": 133.33333333334303,
      "v": 82
    },
    {
      "midi": 68,
      "hit": false,
      "t": 249366.6666666673,
      "d": 50,
      "v": 39
    },
    {
      "midi": 70,
      "hit": false,
      "t": 249383.33333333395,
      "d": 108.33333333334303,
      "v": 78
    },
    {
      "midi": 72,
      "hit": false,
      "t": 249541.6666666673,
      "d": 125,
      "v": 75
    },
    {
      "midi": 75,
      "hit": false,
      "t": 249700.00000000064,
      "d": 100,
      "v": 74
    },
    {
      "midi": 77,
      "hit": false,
      "t": 249866.6666666673,
      "d": 150,
      "v": 71
    },
    {
      "midi": 65,
      "hit": false,
      "t": 249883.33333333358,
      "d": 333.33333333334303,
      "v": 64
    },
    {
      "midi": 60,
      "hit": false,
      "t": 249891.66666666692,
      "d": 308.33333333334303,
      "v": 42
    },
    {
      "midi": 55,
      "hit": false,
      "t": 249908.33333333358,
      "d": 258.33333333334303,
      "v": 44
    },
    {
      "midi": 80,
      "hit": false,
      "t": 250050.00000000064,
      "d": 158.33333333334303,
      "v": 67
    },
    {
      "midi": 84,
      "hit": false,
      "t": 250216.66666666733,
      "d": 175,
      "v": 64
    },
    {
      "midi": 87,
      "hit": false,
      "t": 250416.66666666733,
      "d": 141.66666666665697,
      "v": 64
    },
    {
      "midi": 63,
      "hit": false,
      "t": 250433.33333333358,
      "d": 216.66666666665697,
      "v": 57
    },
    {
      "midi": 53,
      "hit": false,
      "t": 250450.00000000023,
      "d": 225,
      "v": 39
    },
    {
      "midi": 58,
      "hit": false,
      "t": 250450.00000000023,
      "d": 241.66666666665697,
      "v": 57
    },
    {
      "midi": 89,
      "hit": false,
      "t": 250650.00000000064,
      "d": 158.33333333334303,
      "v": 62
    },
    {
      "midi": 37,
      "hit": false,
      "t": 250983.33333333355,
      "d": 733.333333333343,
      "v": 52
    },
    {
      "midi": 44,
      "hit": false,
      "t": 250991.6666666669,
      "d": 1083.333333333343,
      "v": 55
    },
    {
      "midi": 87,
      "hit": false,
      "t": 250991.66666666733,
      "d": 250,
      "v": 67
    },
    {
      "midi": 84,
      "hit": false,
      "t": 251283.33333333398,
      "d": 250,
      "v": 71
    },
    {
      "midi": 80,
      "hit": false,
      "t": 251583.33333333398,
      "d": 283.33333333334303,
      "v": 57
    },
    {
      "midi": 37,
      "hit": false,
      "t": 251858.33333333355,
      "d": 133.33333333334303,
      "v": 42
    },
    {
      "midi": 77,
      "hit": false,
      "t": 251883.33333333398,
      "d": 191.66666666665697,
      "v": 41
    },
    {
      "midi": 39,
      "hit": false,
      "t": 252241.6666666669,
      "d": 291.66666666665697,
      "v": 43
    },
    {
      "midi": 74,
      "hit": false,
      "t": 252241.6666666673,
      "d": 283.33333333334303,
      "v": 47
    },
    {
      "midi": 46,
      "hit": false,
      "t": 252516.6666666669,
      "d": 183.33333333331393,
      "v": 44
    },
    {
      "midi": 77,
      "hit": false,
      "t": 252550.00000000064,
      "d": 158.33333333334303,
      "v": 36
    },
    {
      "midi": 55,
      "hit": false,
      "t": 252783.33333333355,
      "d": 258.33333333334303,
      "v": 38
    },
    {
      "midi": 74,
      "hit": false,
      "t": 252791.66666666733,
      "d": 225,
      "v": 42
    },
    {
      "midi": 67,
      "hit": false,
      "t": 252800.00000000067,
      "d": 175,
      "v": 32
    },
    {
      "midi": 70,
      "hit": false,
      "t": 252800.00000000067,
      "d": 216.66666666665697,
      "v": 36
    },
    {
      "midi": 58,
      "hit": false,
      "t": 253050.00000000023,
      "d": 2083.333333333314,
      "v": 39
    },
    {
      "midi": 62,
      "hit": false,
      "t": 253266.6666666669,
      "d": 250,
      "v": 34
    },
    {
      "midi": 77,
      "hit": false,
      "t": 253275.00000000067,
      "d": 200.0000000000291,
      "v": 55
    },
    {
      "midi": 72,
      "hit": false,
      "t": 253283.333333334,
      "d": 108.33333333334303,
      "v": 27
    },
    {
      "midi": 82,
      "hit": false,
      "t": 253508.33333333404,
      "d": 141.66666666665697,
      "v": 53
    },
    {
      "midi": 67,
      "hit": false,
      "t": 253516.6666666669,
      "d": 275,
      "v": 30
    },
    {
      "midi": 62,
      "hit": false,
      "t": 253775.00000000023,
      "d": 450,
      "v": 37
    },
    {
      "midi": 79,
      "hit": false,
      "t": 253775.0000000007,
      "d": 375.0000000000291,
      "v": 46
    },
    {
      "midi": 86,
      "hit": false,
      "t": 253783.33333333404,
      "d": 308.33333333334303,
      "v": 53
    },
    {
      "midi": 82,
      "hit": false,
      "t": 254116.66666666738,
      "d": 108.33333333334303,
      "v": 35
    },
    {
      "midi": 67,
      "hit": false,
      "t": 254150.00000000023,
      "d": 366.66666666665697,
      "v": 27
    },
    {
      "midi": 74,
      "hit": false,
      "t": 254158.33333333407,
      "d": 133.33333333331393,
      "v": 32
    },
    {
      "midi": 77,
      "hit": false,
      "t": 254491.66666666738,
      "d": 333.33333333334303,
      "v": 38
    },
    {
      "midi": 62,
      "hit": false,
      "t": 254516.6666666669,
      "d": 566.666666666657,
      "v": 31
    },
    {
      "midi": 70,
      "hit": false,
      "t": 254533.33333333355,
      "d": 475,
      "v": 29
    },
    {
      "midi": 74,
      "hit": false,
      "t": 254891.66666666738,
      "d": 91.66666666665697,
      "v": 34
    },
    {
      "midi": 67,
      "hit": false,
      "t": 254900.0000000002,
      "d": 175,
      "v": 24
    },
    {
      "midi": 67,
      "hit": false,
      "t": 255341.6666666669,
      "d": 124.9999999999709,
      "v": 24
    },
    {
      "midi": 65,
      "hit": false,
      "t": 255358.33333333355,
      "d": 174.9999999999709,
      "v": 31
    },
    {
      "midi": 70,
      "hit": false,
      "t": 255358.33333333355,
      "d": 183.33333333331393,
      "v": 34
    },
    {
      "midi": 58,
      "hit": false,
      "t": 255375.0000000002,
      "d": 816.666666666657,
      "v": 32
    },
    {
      "midi": 65,
      "hit": false,
      "t": 255808.33333333352,
      "d": 250,
      "v": 54
    },
    {
      "midi": 62,
      "hit": false,
      "t": 255816.66666666686,
      "d": 225,
      "v": 51
    },
    {
      "midi": 65,
      "hit": false,
      "t": 256200.0000000002,
      "d": 200,
      "v": 68
    },
    {
      "midi": 62,
      "hit": false,
      "t": 256216.66666666686,
      "d": 191.66666666668607,
      "v": 61
    },
    {
      "midi": 62,
      "hit": false,
      "t": 257191.6666666669,
      "d": 200,
      "v": 37
    },
    {
      "midi": 60,
      "hit": false,
      "t": 257200.00000000023,
      "d": 233.33333333331393,
      "v": 17
    },
    {
      "midi": 60,
      "hit": false,
      "t": 257633.33333333404,
      "d": 541.6666666666861,
      "v": 50
    },
    {
      "midi": 65,
      "hit": false,
      "t": 257641.66666666738,
      "d": 791.666666666657,
      "v": 43
    },
    {
      "midi": 37,
      "hit": false,
      "t": 257683.33333333355,
      "d": 341.66666666665697,
      "v": 32
    },
    {
      "midi": 44,
      "hit": false,
      "t": 257983.33333333355,
      "d": 241.66666666665697,
      "v": 53
    },
    {
      "midi": 53,
      "hit": false,
      "t": 258291.66666666738,
      "d": 233.33333333331393,
      "v": 43
    },
    {
      "midi": 56,
      "hit": false,
      "t": 258533.33333333355,
      "d": 933.3333333333139,
      "v": 49
    },
    {
      "midi": 65,
      "hit": false,
      "t": 258741.66666666736,
      "d": 108.33333333334303,
      "v": 59
    },
    {
      "midi": 60,
      "hit": false,
      "t": 258766.66666666736,
      "d": 266.66666666665697,
      "v": 25
    },
    {
      "midi": 68,
      "hit": false,
      "t": 258941.66666666736,
      "d": 141.66666666665697,
      "v": 72
    },
    {
      "midi": 63,
      "hit": false,
      "t": 259133.33333333355,
      "d": 100,
      "v": 11
    },
    {
      "midi": 70,
      "hit": false,
      "t": 259133.333333334,
      "d": 158.33333333334303,
      "v": 81
    },
    {
      "midi": 68,
      "hit": false,
      "t": 259141.66666666736,
      "d": 33.333333333343035,
      "v": 46
    },
    {
      "midi": 72,
      "hit": false,
      "t": 259341.66666666736,
      "d": 191.66666666665697,
      "v": 72
    },
    {
      "midi": 60,
      "hit": false,
      "t": 259383.33333333355,
      "d": 41.666666666656965,
      "v": 30
    },
    {
      "midi": 68,
      "hit": false,
      "t": 259966.66666666686,
      "d": 183.33333333334303,
      "v": 36
    },
    {
      "midi": 70,
      "hit": false,
      "t": 260133.333333334,
      "d": 150,
      "v": 61
    },
    {
      "midi": 72,
      "hit": false,
      "t": 260300.00000000067,
      "d": 150,
      "v": 66
    },
    {
      "midi": 37,
      "hit": false,
      "t": 260308.33333333355,
      "d": 183.33333333334303,
      "v": 51
    },
    {
      "midi": 44,
      "hit": false,
      "t": 260316.6666666669,
      "d": 200,
      "v": 44
    },
    {
      "midi": 75,
      "hit": false,
      "t": 260466.66666666733,
      "d": 133.33333333334303,
      "v": 60
    },
    {
      "midi": 77,
      "hit": false,
      "t": 260658.333333334,
      "d": 141.66666666665697,
      "v": 59
    },
    {
      "midi": 80,
      "hit": false,
      "t": 260816.66666666733,
      "d": 233.33333333334303,
      "v": 64
    },
    {
      "midi": 58,
      "hit": false,
      "t": 260833.33333333355,
      "d": 258.33333333334303,
      "v": 47
    },
    {
      "midi": 63,
      "hit": false,
      "t": 260883.33333333355,
      "d": 225,
      "v": 9
    },
    {
      "midi": 53,
      "hit": false,
      "t": 260916.6666666669,
      "d": 108.33333333334303,
      "v": 6
    },
    {
      "midi": 82,
      "hit": false,
      "t": 261000.00000000067,
      "d": 133.33333333334303,
      "v": 63
    },
    {
      "midi": 84,
      "hit": false,
      "t": 261183.333333334,
      "d": 175,
      "v": 71
    },
    {
      "midi": 65,
      "hit": false,
      "t": 261225.0000000002,
      "d": 224.9999999999709,
      "v": 41
    },
    {
      "midi": 60,
      "hit": false,
      "t": 261241.66666666686,
      "d": 241.66666666665697,
      "v": 29
    },
    {
      "midi": 55,
      "hit": false,
      "t": 261258.33333333352,
      "d": 191.66666666665697,
      "v": 31
    },
    {
      "midi": 87,
      "hit": false,
      "t": 261375.00000000067,
      "d": 141.66666666665697,
      "v": 61
    },
    {
      "midi": 89,
      "hit": false,
      "t": 261566.66666666733,
      "d": 166.66666666665697,
      "v": 55
    },
    {
      "midi": 92,
      "hit": false,
      "t": 261758.33333333398,
      "d": 241.66666666668607,
      "v": 62
    },
    {
      "midi": 63,
      "hit": false,
      "t": 261783.33333333352,
      "d": 141.66666666665697,
      "v": 49
    },
    {
      "midi": 58,
      "hit": false,
      "t": 261808.33333333352,
      "d": 183.33333333331393,
      "v": 42
    },
    {
      "midi": 94,
      "hit": false,
      "t": 261966.66666666733,
      "d": 108.33333333334303,
      "v": 55
    },
    {
      "midi": 96,
      "hit": false,
      "t": 262166.6666666673,
      "d": 158.33333333331393,
      "v": 58
    },
    {
      "midi": 99,
      "hit": false,
      "t": 262366.6666666673,
      "d": 100,
      "v": 51
    },
    {
      "midi": 101,
      "hit": false,
      "t": 262641.6666666673,
      "d": 208.33333333331393,
      "v": 53
    },
    {
      "midi": 101,
      "hit": false,
      "t": 262933.33333333395,
      "d": 175,
      "v": 47
    },
    {
      "midi": 101,
      "hit": false,
      "t": 263233.33333333395,
      "d": 416.66666666668607,
      "v": 52
    },
    {
      "midi": 39,
      "hit": false,
      "t": 263241.66666666686,
      "d": 291.66666666662786,
      "v": 42
    },
    {
      "midi": 46,
      "hit": false,
      "t": 263525.0000000002,
      "d": 200,
      "v": 39
    },
    {
      "midi": 98,
      "hit": false,
      "t": 263533.33333333395,
      "d": 133.33333333337214,
      "v": 47
    },
    {
      "midi": 55,
      "hit": false,
      "t": 263816.66666666686,
      "d": 333.33333333331393,
      "v": 44
    },
    {
      "midi": 94,
      "hit": false,
      "t": 263816.6666666673,
      "d": 199.9999999999418,
      "v": 30
    },
    {
      "midi": 98,
      "hit": false,
      "t": 263825.00000000064,
      "d": 141.66666666662786,
      "v": 36
    },
    {
      "midi": 89,
      "hit": false,
      "t": 263833.33333333395,
      "d": 233.33333333331393,
      "v": 32
    },
    {
      "midi": 58,
      "hit": false,
      "t": 264116.66666666686,
      "d": 2216.666666666628,
      "v": 36
    },
    {
      "midi": 94,
      "hit": false,
      "t": 264391.66666666727,
      "d": 91.66666666668607,
      "v": 58
    },
    {
      "midi": 62,
      "hit": false,
      "t": 264416.66666666686,
      "d": 350,
      "v": 36
    },
    {
      "midi": 67,
      "hit": false,
      "t": 264700.0000000002,
      "d": 558.3333333333721,
      "v": 34
    },
    {
      "midi": 89,
      "hit": false,
      "t": 264991.66666666727,
      "d": 149.9999999999418,
      "v": 50
    },
    {
      "midi": 62,
      "hit": false,
      "t": 265016.66666666686,
      "d": 575,
      "v": 36
    },
    {
      "midi": 86,
      "hit": false,
      "t": 265016.66666666727,
      "d": 124.99999999994179,
      "v": 38
    },
    {
      "midi": 82,
      "hit": false,
      "t": 265025.0000000006,
      "d": 174.9999999999418,
      "v": 23
    },
    {
      "midi": 77,
      "hit": false,
      "t": 265033.3333333339,
      "d": 166.66666666662786,
      "v": 29
    },
    {
      "midi": 82,
      "hit": false,
      "t": 265558.33333333384,
      "d": 225,
      "v": 71
    },
    {
      "midi": 77,
      "hit": false,
      "t": 265566.66666666715,
      "d": 225,
      "v": 66
    },
    {
      "midi": 67,
      "hit": false,
      "t": 265583.33333333355,
      "d": 408.33333333331393,
      "v": 48
    },
    {
      "midi": 72,
      "hit": false,
      "t": 265583.33333333384,
      "d": 316.66666666662786,
      "v": 42
    },
    {
      "midi": 77,
      "hit": false,
      "t": 266191.66666666715,
      "d": 233.33333333325572,
      "v": 53
    },
    {
      "midi": 62,
      "hit": false,
      "t": 266225.0000000002,
      "d": 500,
      "v": 34
    },
    {
      "midi": 70,
      "hit": false,
      "t": 266225.00000000047,
      "d": 233.33333333325572,
      "v": 34
    },
    {
      "midi": 67,
      "hit": false,
      "t": 266233.3333333335,
      "d": 266.66666666668607,
      "v": 38
    },
    {
      "midi": 74,
      "hit": false,
      "t": 266233.3333333338,
      "d": 158.33333333331393,
      "v": 35
    },
    {
      "midi": 65,
      "hit": false,
      "t": 266766.66666666686,
      "d": 250,
      "v": 40
    },
    {
      "midi": 74,
      "hit": false,
      "t": 266766.66666666704,
      "d": 183.33333333331393,
      "v": 43
    },
    {
      "midi": 70,
      "hit": false,
      "t": 266775.00000000035,
      "d": 191.66666666668607,
      "v": 40
    },
    {
      "midi": 58,
      "hit": false,
      "t": 266783.33333333355,
      "d": 183.33333333331393,
      "v": 39
    },
    {
      "midi": 67,
      "hit": false,
      "t": 266791.66666666686,
      "d": 166.66666666668607,
      "v": 47
    },
    {
      "midi": 70,
      "hit": false,
      "t": 267316.66666666704,
      "d": 166.66666666668607,
      "v": 48
    },
    {
      "midi": 65,
      "hit": false,
      "t": 267333.33333333355,
      "d": 158.33333333325572,
      "v": 45
    },
    {
      "midi": 55,
      "hit": false,
      "t": 267341.66666666686,
      "d": 66.66666666662786,
      "v": 38
    },
    {
      "midi": 60,
      "hit": false,
      "t": 267350.0000000002,
      "d": 216.66666666662786,
      "v": 20
    },
    {
      "midi": 65,
      "hit": false,
      "t": 267991.66666666704,
      "d": 383.33333333337214,
      "v": 43
    },
    {
      "midi": 60,
      "hit": false,
      "t": 267991.66666666704,
      "d": 391.66666666668607,
      "v": 36
    },
    {
      "midi": 44,
      "hit": false,
      "t": 268000.0000000001,
      "d": 375,
      "v": 42
    },
    {
      "midi": 37,
      "hit": false,
      "t": 268000.0000000001,
      "d": 408.33333333331393,
      "v": 44
    },
    {
      "midi": 53,
      "hit": false,
      "t": 268008.3333333337,
      "d": 350,
      "v": 24
    },
    {
      "midi": 55,
      "hit": false,
      "t": 268025.0000000004,
      "d": 333.33333333331393,
      "v": 20
    },
    {
      "midi": 65,
      "hit": false,
      "t": 268966.66666666704,
      "d": 375,
      "v": 38
    },
    {
      "midi": 60,
      "hit": false,
      "t": 268983.3333333337,
      "d": 341.66666666662786,
      "v": 35
    },
    {
      "midi": 37,
      "hit": false,
      "t": 268991.66666666674,
      "d": 325,
      "v": 34
    },
    {
      "midi": 53,
      "hit": false,
      "t": 268991.66666666704,
      "d": 258.33333333331393,
      "v": 24
    },
    {
      "midi": 55,
      "hit": false,
      "t": 268991.66666666704,
      "d": 283.33333333331393,
      "v": 24
    },
    {
      "midi": 44,
      "hit": false,
      "t": 269008.33333333343,
      "d": 425,
      "v": 31
    },
    {
      "midi": 60,
      "hit": false,
      "t": 269508.3333333337,
      "d": 241.66666666668607,
      "v": 49
    },
    {
      "midi": 65,
      "hit": false,
      "t": 269525.0000000004,
      "d": 316.66666666668607,
      "v": 54
    },
    {
      "midi": 53,
      "hit": false,
      "t": 269566.66666666674,
      "d": 300,
      "v": 31
    },
    {
      "midi": 70,
      "hit": false,
      "t": 269900.0000000004,
      "d": 266.66666666668607,
      "v": 72
    },
    {
      "midi": 65,
      "hit": false,
      "t": 269933.3333333337,
      "d": 141.66666666668607,
      "v": 47
    },
    {
      "midi": 72,
      "hit": false,
      "t": 270225.0000000004,
      "d": 191.66666666668607,
      "v": 58
    },
    {
      "midi": 65,
      "hit": false,
      "t": 270575.0000000004,
      "d": 1033.333333333314,
      "v": 52
    },
    {
      "midi": 60,
      "hit": false,
      "t": 270575.0000000004,
      "d": 1083.333333333314,
      "v": 29
    },
    {
      "midi": 37,
      "hit": false,
      "t": 270583.33333333343,
      "d": 283.33333333331393,
      "v": 39
    },
    {
      "midi": 44,
      "hit": false,
      "t": 270866.66666666674,
      "d": 291.66666666668607,
      "v": 40
    },
    {
      "midi": 53,
      "hit": false,
      "t": 271175.0000000004,
      "d": 275,
      "v": 45
    },
    {
      "midi": 55,
      "hit": false,
      "t": 271491.66666666674,
      "d": 816.6666666666861,
      "v": 44
    },
    {
      "midi": 70,
      "hit": false,
      "t": 271500.0000000004,
      "d": 591.6666666666861,
      "v": 1
    },
    {
      "midi": 60,
      "hit": false,
      "t": 271850.0000000004,
      "d": 125,
      "v": 29
    },
    {
      "midi": 65,
      "hit": false,
      "t": 271858.3333333337,
      "d": 533.3333333333139,
      "v": 43
    },
    {
      "midi": 56,
      "hit": false,
      "t": 271866.66666666674,
      "d": 416.66666666668607,
      "v": 35
    },
    {
      "midi": 72,
      "hit": false,
      "t": 272175.0000000004,
      "d": 299.9999999999418,
      "v": 64
    },
    {
      "midi": 60,
      "hit": false,
      "t": 272183.3333333337,
      "d": 258.33333333331393,
      "v": 29
    },
    {
      "midi": 60,
      "hit": false,
      "t": 272525.00000000035,
      "d": 225,
      "v": 34
    },
    {
      "midi": 65,
      "hit": false,
      "t": 272525.00000000035,
      "d": 358.33333333331393,
      "v": 40
    },
    {
      "midi": 72,
      "hit": false,
      "t": 272833.33333333366,
      "d": 275,
      "v": 53
    },
    {
      "midi": 62,
      "hit": false,
      "t": 273158.33333333366,
      "d": 416.66666666668607,
      "v": 34
    },
    {
      "midi": 70,
      "hit": false,
      "t": 273158.33333333366,
      "d": 700.0000000000582,
      "v": 37
    },
    {
      "midi": 67,
      "hit": false,
      "t": 273183.33333333366,
      "d": 433.33333333337214,
      "v": 41
    },
    {
      "midi": 39,
      "hit": false,
      "t": 273191.66666666674,
      "d": 233.33333333331393,
      "v": 37
    },
    {
      "midi": 46,
      "hit": false,
      "t": 273416.66666666674,
      "d": 208.33333333331393,
      "v": 51
    },
    {
      "midi": 55,
      "hit": false,
      "t": 273666.66666666674,
      "d": 316.66666666668607,
      "v": 45
    },
    {
      "midi": 62,
      "hit": false,
      "t": 273666.66666666704,
      "d": 133.33333333337214,
      "v": 59
    },
    {
      "midi": 67,
      "hit": false,
      "t": 273708.3333333337,
      "d": 150,
      "v": 26
    },
    {
      "midi": 58,
      "hit": false,
      "t": 273933.33333333343,
      "d": 1025,
      "v": 44
    },
    {
      "midi": 62,
      "hit": false,
      "t": 274216.66666666674,
      "d": 275,
      "v": 46
    },
    {
      "midi": 74,
      "hit": false,
      "t": 274225.0000000004,
      "d": 266.66666666662786,
      "v": 49
    },
    {
      "midi": 70,
      "hit": false,
      "t": 274233.3333333337,
      "d": 250,
      "v": 37
    },
    {
      "midi": 77,
      "hit": false,
      "t": 274233.3333333337,
      "d": 291.66666666662786,
      "v": 44
    },
    {
      "midi": 69,
      "hit": false,
      "t": 274241.66666666704,
      "d": 150,
      "v": 58
    },
    {
      "midi": 67,
      "hit": false,
      "t": 274541.66666666674,
      "d": 375,
      "v": 43
    },
    {
      "midi": 82,
      "hit": false,
      "t": 274833.33333333366,
      "d": 208.33333333337214,
      "v": 71
    },
    {
      "midi": 74,
      "hit": false,
      "t": 274850.00000000035,
      "d": 241.66666666668607,
      "v": 66
    },
    {
      "midi": 62,
      "hit": false,
      "t": 274891.66666666674,
      "d": 266.66666666668607,
      "v": 44
    },
    {
      "midi": 58,
      "hit": false,
      "t": 275158.33333333343,
      "d": 41.66666666668607,
      "v": 45
    },
    {
      "midi": 39,
      "hit": false,
      "t": 275491.6666666668,
      "d": 325,
      "v": 51
    },
    {
      "midi": 46,
      "hit": false,
      "t": 275800.0000000001,
      "d": 291.66666666668607,
      "v": 43
    },
    {
      "midi": 79,
      "hit": false,
      "t": 276150.00000000035,
      "d": 308.33333333331393,
      "v": 34
    },
    {
      "midi": 70,
      "hit": false,
      "t": 276150.00000000035,
      "d": 483.3333333332557,
      "v": 33
    },
    {
      "midi": 55,
      "hit": false,
      "t": 276158.3333333335,
      "d": 350,
      "v": 34
    },
    {
      "midi": 67,
      "hit": false,
      "t": 276158.33333333366,
      "d": 308.33333333331393,
      "v": 32
    },
    {
      "midi": 74,
      "hit": false,
      "t": 276183.33333333366,
      "d": 341.66666666662786,
      "v": 34
    },
    {
      "midi": 58,
      "hit": false,
      "t": 276500.0000000002,
      "d": 525,
      "v": 33
    },
    {
      "midi": 70,
      "hit": false,
      "t": 276841.6666666669,
      "d": 358.33333333331393,
      "v": 30
    },
    {
      "midi": 77,
      "hit": false,
      "t": 276850.00000000023,
      "d": 266.66666666668607,
      "v": 35
    },
    {
      "midi": 65,
      "hit": false,
      "t": 276866.6666666668,
      "d": 316.66666666668607,
      "v": 25
    },
    {
      "midi": 74,
      "hit": false,
      "t": 276866.6666666669,
      "d": 241.66666666668607,
      "v": 38
    },
    {
      "midi": 62,
      "hit": false,
      "t": 276883.3333333335,
      "d": 325,
      "v": 32
    },
    {
      "midi": 58,
      "hit": false,
      "t": 277216.6666666668,
      "d": 50,
      "v": 35
    },
    {
      "midi": 65,
      "hit": false,
      "t": 277541.6666666668,
      "d": 308.33333333331393,
      "v": 41
    },
    {
      "midi": 74,
      "hit": false,
      "t": 277550.00000000023,
      "d": 1133.333333333314,
      "v": 45
    },
    {
      "midi": 55,
      "hit": false,
      "t": 277566.6666666668,
      "d": 83.33333333331393,
      "v": 32
    },
    {
      "midi": 67,
      "hit": false,
      "t": 277566.6666666669,
      "d": 375,
      "v": 37
    },
    {
      "midi": 70,
      "hit": false,
      "t": 277575.00000000023,
      "d": 475,
      "v": 34
    },
    {
      "midi": 37,
      "hit": false,
      "t": 278291.6666666668,
      "d": 341.66666666668607,
      "v": 56
    },
    {
      "midi": 44,
      "hit": false,
      "t": 278633.3333333335,
      "d": 291.66666666668607,
      "v": 46
    },
    {
      "midi": 53,
      "hit": false,
      "t": 278975.0000000002,
      "d": 358.33333333331393,
      "v": 40
    },
    {
      "midi": 65,
      "hit": false,
      "t": 279000.0000000002,
      "d": 366.66666666662786,
      "v": 30
    },
    {
      "midi": 68,
      "hit": false,
      "t": 279000.00000000023,
      "d": 683.3333333333139,
      "v": 40
    },
    {
      "midi": 56,
      "hit": false,
      "t": 279366.6666666668,
      "d": 1341.666666666686,
      "v": 35
    },
    {
      "midi": 60,
      "hit": false,
      "t": 279741.6666666668,
      "d": 500,
      "v": 36
    },
    {
      "midi": 65,
      "hit": false,
      "t": 279750.00000000023,
      "d": 450,
      "v": 40
    },
    {
      "midi": 63,
      "hit": false,
      "t": 280191.6666666669,
      "d": 408.33333333331393,
      "v": 37
    },
    {
      "midi": 60,
      "hit": false,
      "t": 280641.6666666668,
      "d": 391.66666666668607,
      "v": 29
    },
    {
      "midi": 65,
      "hit": false,
      "t": 280650.00000000023,
      "d": 466.66666666668607,
      "v": 34
    },
    {
      "midi": 68,
      "hit": false,
      "t": 280650.00000000023,
      "d": 700,
      "v": 35
    },
    {
      "midi": 56,
      "hit": false,
      "t": 281066.6666666668,
      "d": 116.66666666668607,
      "v": 42
    },
    {
      "midi": 72,
      "hit": false,
      "t": 281541.6666666669,
      "d": 558.3333333333139,
      "v": 43
    },
    {
      "midi": 63,
      "hit": false,
      "t": 281575.00000000023,
      "d": 666.6666666666861,
      "v": 21
    },
    {
      "midi": 67,
      "hit": false,
      "t": 281575.00000000023,
      "d": 1283.333333333314,
      "v": 37
    },
    {
      "midi": 48,
      "hit": false,
      "t": 281583.3333333335,
      "d": 200,
      "v": 32
    },
    {
      "midi": 55,
      "hit": false,
      "t": 281591.6666666668,
      "d": 3816.666666666686,
      "v": 24
    },
    {
      "midi": 62,
      "hit": false,
      "t": 282050.00000000023,
      "d": 2299.999999999942,
      "v": 41
    },
    {
      "midi": 63,
      "hit": false,
      "t": 282516.6666666669,
      "d": 283.33333333331393,
      "v": 35
    },
    {
      "midi": 74,
      "hit": false,
      "t": 283000.00000000023,
      "d": 158.33333333331393,
      "v": 65
    },
    {
      "midi": 75,
      "hit": false,
      "t": 283341.66666666686,
      "d": 225,
      "v": 64
    },
    {
      "midi": 72,
      "hit": false,
      "t": 285133.3333333335,
      "d": 658.3333333333139,
      "v": 31
    },
    {
      "midi": 80,
      "hit": false,
      "t": 285391.6666666668,
      "d": 1591.666666666686,
      "v": 48
    },
    {
      "midi": 48,
      "hit": false,
      "t": 285416.6666666668,
      "d": 700,
      "v": 32
    },
    {
      "midi": 56,
      "hit": false,
      "t": 285741.6666666668,
      "d": 441.66666666668607,
      "v": 38
    },
    {
      "midi": 60,
      "hit": false,
      "t": 286166.6666666668,
      "d": 475,
      "v": 31
    },
    {
      "midi": 63,
      "hit": false,
      "t": 286583.3333333335,
      "d": 799.9999999999418,
      "v": 31
    },
    {
      "midi": 68,
      "hit": false,
      "t": 287000.0000000001,
      "d": 533.3333333333139,
      "v": 36
    },
    {
      "midi": 80,
      "hit": false,
      "t": 287383.3333333335,
      "d": 158.33333333331393,
      "v": 52
    },
    {
      "midi": 62,
      "hit": false,
      "t": 287950.0000000001,
      "d": 1099.9999999999418,
      "v": 35
    },
    {
      "midi": 67,
      "hit": false,
      "t": 287958.33333333343,
      "d": 1174.9999999999418,
      "v": 28
    },
    {
      "midi": 79,
      "hit": false,
      "t": 287958.3333333335,
      "d": 716.6666666666861,
      "v": 45
    },
    {
      "midi": 59,
      "hit": false,
      "t": 287991.66666666674,
      "d": 1308.333333333314,
      "v": 22
    },
    {
      "midi": 77,
      "hit": false,
      "t": 288975.0000000002,
      "d": 266.66666666668607,
      "v": 51
    },
    {
      "midi": 75,
      "hit": false,
      "t": 289358.33333333355,
      "d": 308.33333333331393,
      "v": 48
    },
    {
      "midi": 62,
      "hit": false,
      "t": 289366.66666666674,
      "d": 350,
      "v": 30
    },
    {
      "midi": 67,
      "hit": false,
      "t": 289375.00000000006,
      "d": 316.66666666668607,
      "v": 36
    },
    {
      "midi": 58,
      "hit": false,
      "t": 289375.00000000006,
      "d": 566.6666666666861,
      "v": 33
    },
    {
      "midi": 72,
      "hit": false,
      "t": 289391.66666666686,
      "d": 433.33333333331393,
      "v": 39
    },
    {
      "midi": 79,
      "hit": false,
      "t": 289750.0000000002,
      "d": 150,
      "v": 64
    },
    {
      "midi": 57,
      "hit": false,
      "t": 290100.00000000006,
      "d": 600,
      "v": 47
    },
    {
      "midi": 65,
      "hit": false,
      "t": 290108.3333333334,
      "d": 525,
      "v": 44
    },
    {
      "midi": 77,
      "hit": false,
      "t": 290116.66666666686,
      "d": 350,
      "v": 63
    },
    {
      "midi": 69,
      "hit": false,
      "t": 290125.00000000006,
      "d": 483.33333333331393,
      "v": 48
    },
    {
      "midi": 75,
      "hit": false,
      "t": 290533.33333333355,
      "d": 200,
      "v": 59
    },
    {
      "midi": 56,
      "hit": false,
      "t": 290975.00000000006,
      "d": 508.33333333331393,
      "v": 47
    },
    {
      "midi": 74,
      "hit": false,
      "t": 290975.00000000023,
      "d": 408.33333333337214,
      "v": 51
    },
    {
      "midi": 65,
      "hit": false,
      "t": 290983.3333333334,
      "d": 383.33333333331393,
      "v": 32
    },
    {
      "midi": 70,
      "hit": false,
      "t": 290991.6666666669,
      "d": 591.6666666666861,
      "v": 42
    },
    {
      "midi": 72,
      "hit": false,
      "t": 291408.3333333336,
      "d": 125,
      "v": 54
    },
    {
      "midi": 70,
      "hit": false,
      "t": 291891.6666666669,
      "d": 200,
      "v": 55
    },
    {
      "midi": 65,
      "hit": false,
      "t": 291908.3333333334,
      "d": 391.66666666668607,
      "v": 34
    },
    {
      "midi": 55,
      "hit": false,
      "t": 291908.3333333334,
      "d": 483.33333333337214,
      "v": 31
    },
    {
      "midi": 77,
      "hit": false,
      "t": 292366.6666666669,
      "d": 108.33333333331393,
      "v": 57
    },
    {
      "midi": 75,
      "hit": false,
      "t": 292850.00000000023,
      "d": 199.9999999999418,
      "v": 38
    },
    {
      "midi": 63,
      "hit": false,
      "t": 292883.33333333355,
      "d": 366.66666666662786,
      "v": 20
    },
    {
      "midi": 48,
      "hit": false,
      "t": 292891.66666666674,
      "d": 591.6666666666861,
      "v": 33
    },
    {
      "midi": 67,
      "hit": false,
      "t": 292891.66666666686,
      "d": 175,
      "v": 32
    },
    {
      "midi": 55,
      "hit": false,
      "t": 292916.66666666674,
      "d": 933.3333333333721,
      "v": 19
    },
    {
      "midi": 67,
      "hit": false,
      "t": 293383.3333333335,
      "d": 416.66666666668607,
      "v": 62
    },
    {
      "midi": 68,
      "hit": false,
      "t": 293891.66666666686,
      "d": 850,
      "v": 52
    },
    {
      "midi": 63,
      "hit": false,
      "t": 293908.33333333355,
      "d": 600,
      "v": 48
    },
    {
      "midi": 56,
      "hit": false,
      "t": 293916.6666666668,
      "d": 441.66666666662786,
      "v": 29
    },
    {
      "midi": 60,
      "hit": false,
      "t": 293916.66666666686,
      "d": 441.66666666668607,
      "v": 28
    },
    {
      "midi": 48,
      "hit": false,
      "t": 293925.0000000001,
      "d": 1299.9999999999418,
      "v": 35
    },
    {
      "midi": 60,
      "hit": false,
      "t": 294458.33333333355,
      "d": 283.33333333331393,
      "v": 52
    },
    {
      "midi": 63,
      "hit": false,
      "t": 294883.33333333355,
      "d": 283.33333333331393,
      "v": 83
    },
    {
      "midi": 56,
      "hit": false,
      "t": 294891.66666666674,
      "d": 441.66666666662786,
      "v": 35
    },
    {
      "midi": 63,
      "hit": false,
      "t": 295258.33333333355,
      "d": 308.33333333331393,
      "v": 84
    },
    {
      "midi": 68,
      "hit": false,
      "t": 295258.33333333355,
      "d": 316.66666666662786,
      "v": 77
    },
    {
      "midi": 55,
      "hit": false,
      "t": 295700.00000000006,
      "d": 625,
      "v": 45
    },
    {
      "midi": 67,
      "hit": false,
      "t": 295700.0000000002,
      "d": 408.33333333331393,
      "v": 69
    },
    {
      "midi": 47,
      "hit": false,
      "t": 295708.3333333334,
      "d": 550,
      "v": 40
    },
    {
      "midi": 62,
      "hit": false,
      "t": 295708.3333333335,
      "d": 408.33333333331393,
      "v": 68
    },
    {
      "midi": 65,
      "hit": false,
      "t": 296175.0000000001,
      "d": 441.66666666668607,
      "v": 70
    },
    {
      "midi": 67,
      "hit": false,
      "t": 296216.6666666668,
      "d": 333.33333333331393,
      "v": 24
    },
    {
      "midi": 63,
      "hit": false,
      "t": 296616.6666666668,
      "d": 516.6666666666861,
      "v": 64
    },
    {
      "midi": 60,
      "hit": false,
      "t": 296641.6666666668,
      "d": 366.66666666668607,
      "v": 34
    },
    {
      "midi": 55,
      "hit": false,
      "t": 296650.00000000006,
      "d": 366.66666666668607,
      "v": 44
    },
    {
      "midi": 46,
      "hit": false,
      "t": 296666.66666666674,
      "d": 483.33333333331393,
      "v": 30
    },
    {
      "midi": 67,
      "hit": false,
      "t": 297066.6666666668,
      "d": 125,
      "v": 69
    },
    {
      "midi": 65,
      "hit": false,
      "t": 297533.3333333335,
      "d": 441.66666666662786,
      "v": 52
    },
    {
      "midi": 57,
      "hit": false,
      "t": 297541.6666666668,
      "d": 516.6666666666279,
      "v": 41
    },
    {
      "midi": 60,
      "hit": false,
      "t": 297541.6666666668,
      "d": 608.3333333333139,
      "v": 35
    },
    {
      "midi": 53,
      "hit": false,
      "t": 297550.00000000006,
      "d": 516.6666666666279,
      "v": 32
    },
    {
      "midi": 45,
      "hit": false,
      "t": 297558.3333333334,
      "d": 516.6666666666279,
      "v": 38
    },
    {
      "midi": 63,
      "hit": false,
      "t": 298058.33333333343,
      "d": 325,
      "v": 48
    },
    {
      "midi": 58,
      "hit": false,
      "t": 298558.33333333343,
      "d": 408.33333333331393,
      "v": 52
    },
    {
      "midi": 53,
      "hit": false,
      "t": 298566.6666666667,
      "d": 391.66666666668607,
      "v": 28
    },
    {
      "midi": 62,
      "hit": false,
      "t": 298566.66666666674,
      "d": 208.33333333331393,
      "v": 55
    },
    {
      "midi": 44,
      "hit": false,
      "t": 298616.6666666667,
      "d": 558.3333333333721,
      "v": 25
    },
    {
      "midi": 60,
      "hit": false,
      "t": 299075.00000000006,
      "d": 441.66666666668607,
      "v": 49
    },
    {
      "midi": 58,
      "hit": false,
      "t": 299550.00000000006,
      "d": 550,
      "v": 50
    },
    {
      "midi": 50,
      "hit": false,
      "t": 299558.3333333334,
      "d": 400,
      "v": 42
    },
    {
      "midi": 43,
      "hit": false,
      "t": 299566.6666666667,
      "d": 425,
      "v": 30
    },
    {
      "midi": 55,
      "hit": false,
      "t": 299583.3333333334,
      "d": 341.66666666668607,
      "v": 30
    },
    {
      "midi": 65,
      "hit": false,
      "t": 300000.00000000006,
      "d": 200,
      "v": 64
    },
    {
      "midi": 63,
      "hit": false,
      "t": 300450.00000000006,
      "d": 250,
      "v": 54
    },
    {
      "midi": 48,
      "hit": false,
      "t": 300466.6666666667,
      "d": 583.3333333333139,
      "v": 34
    },
    {
      "midi": 36,
      "hit": false,
      "t": 300466.6666666667,
      "d": 1391.666666666686,
      "v": 38
    },
    {
      "midi": 55,
      "hit": false,
      "t": 300475.00000000006,
      "d": 241.66666666668607,
      "v": 40
    },
    {
      "midi": 60,
      "hit": false,
      "t": 300483.3333333334,
      "d": 383.33333333337214,
      "v": 33
    },
    {
      "midi": 67,
      "hit": false,
      "t": 300916.66666666674,
      "d": 166.66666666662786,
      "v": 71
    },
    {
      "midi": 60,
      "hit": false,
      "t": 300950.00000000006,
      "d": 183.33333333331393,
      "v": 31
    },
    {
      "midi": 68,
      "hit": false,
      "t": 301441.6666666667,
      "d": 1550,
      "v": 68
    },
    {
      "midi": 48,
      "hit": false,
      "t": 301441.6666666667,
      "d": 433.33333333337214,
      "v": 53
    },
    {
      "midi": 60,
      "hit": false,
      "t": 301450,
      "d": 1483.333333333314,
      "v": 58
    },
    {
      "midi": 56,
      "hit": false,
      "t": 301458.3333333333,
      "d": 1466.666666666686,
      "v": 61
    },
    {
      "midi": 63,
      "hit": false,
      "t": 301458.3333333333,
      "d": 1516.666666666686,
      "v": 64
    },
    {
      "midi": 48,
      "hit": false,
      "t": 301983.3333333334,
      "d": 475,
      "v": 91
    },
    {
      "midi": 48,
      "hit": false,
      "t": 302566.6666666667,
      "d": 425,
      "v": 96
    },
    {
      "midi": 68,
      "hit": false,
      "t": 303116.6666666667,
      "d": 325,
      "v": 60
    },
    {
      "midi": 48,
      "hit": false,
      "t": 303116.6666666667,
      "d": 591.6666666666861,
      "v": 81
    },
    {
      "midi": 60,
      "hit": false,
      "t": 303133.3333333334,
      "d": 225,
      "v": 55
    },
    {
      "midi": 63,
      "hit": false,
      "t": 303133.3333333334,
      "d": 300,
      "v": 56
    },
    {
      "midi": 56,
      "hit": false,
      "t": 303133.3333333334,
      "d": 216.66666666668607,
      "v": 71
    },
    {
      "midi": 67,
      "hit": false,
      "t": 303725,
      "d": 400,
      "v": 71
    },
    {
      "midi": 47,
      "hit": false,
      "t": 303733.3333333334,
      "d": 1166.6666666666279,
      "v": 76
    },
    {
      "midi": 59,
      "hit": false,
      "t": 303741.6666666667,
      "d": 508.33333333331393,
      "v": 72
    },
    {
      "midi": 55,
      "hit": false,
      "t": 303741.6666666667,
      "d": 466.66666666668607,
      "v": 71
    },
    {
      "midi": 62,
      "hit": false,
      "t": 303750,
      "d": 483.33333333331393,
      "v": 59
    },
    {
      "midi": 65,
      "hit": false,
      "t": 304333.3333333333,
      "d": 408.33333333331393,
      "v": 74
    },
    {
      "midi": 63,
      "hit": false,
      "t": 304874.99999999994,
      "d": 416.66666666668607,
      "v": 69
    },
    {
      "midi": 60,
      "hit": false,
      "t": 304891.6666666666,
      "d": 550,
      "v": 54
    },
    {
      "midi": 46,
      "hit": false,
      "t": 304891.6666666667,
      "d": 566.6666666666279,
      "v": 64
    },
    {
      "midi": 55,
      "hit": false,
      "t": 304908.3333333333,
      "d": 408.33333333331393,
      "v": 65
    },
    {
      "midi": 67,
      "hit": false,
      "t": 305466.6666666666,
      "d": 333.33333333331393,
      "v": 72
    },
    {
      "midi": 60,
      "hit": false,
      "t": 305483.3333333333,
      "d": 108.33333333331393,
      "v": 32
    },
    {
      "midi": 60,
      "hit": false,
      "t": 306058.33333333326,
      "d": 633.3333333333139,
      "v": 64
    },
    {
      "midi": 45,
      "hit": false,
      "t": 306058.3333333333,
      "d": 975,
      "v": 71
    },
    {
      "midi": 65,
      "hit": false,
      "t": 306066.66666666657,
      "d": 400,
      "v": 69
    },
    {
      "midi": 57,
      "hit": false,
      "t": 306066.66666666657,
      "d": 550,
      "v": 71
    },
    {
      "midi": 33,
      "hit": false,
      "t": 306066.6666666666,
      "d": 866.6666666666861,
      "v": 62
    },
    {
      "midi": 63,
      "hit": false,
      "t": 306749.9999999999,
      "d": 400,
      "v": 83
    },
    {
      "midi": 62,
      "hit": false,
      "t": 307466.66666666657,
      "d": 625,
      "v": 75
    },
    {
      "midi": 44,
      "hit": false,
      "t": 307466.6666666666,
      "d": 1025,
      "v": 74
    },
    {
      "midi": 53,
      "hit": false,
      "t": 307474.9999999999,
      "d": 500,
      "v": 69
    },
    {
      "midi": 58,
      "hit": false,
      "t": 307474.9999999999,
      "d": 641.6666666666861,
      "v": 71
    },
    {
      "midi": 32,
      "hit": false,
      "t": 307483.3333333333,
      "d": 1033.333333333314,
      "v": 67
    },
    {
      "midi": 60,
      "hit": false,
      "t": 308199.9999999999,
      "d": 341.66666666668607,
      "v": 81
    },
    {
      "midi": 58,
      "hit": false,
      "t": 308883.33333333326,
      "d": 616.6666666666279,
      "v": 83
    },
    {
      "midi": 43,
      "hit": false,
      "t": 308883.3333333333,
      "d": 958.3333333333139,
      "v": 77
    },
    {
      "midi": 53,
      "hit": false,
      "t": 308891.66666666657,
      "d": 400,
      "v": 80
    },
    {
      "midi": 31,
      "hit": false,
      "t": 308891.6666666666,
      "d": 883.3333333333139,
      "v": 75
    },
    {
      "midi": 65,
      "hit": false,
      "t": 309666.66666666657,
      "d": 408.33333333331393,
      "v": 92
    },
    {
      "midi": 63,
      "hit": false,
      "t": 310416.66666666657,
      "d": 574.9999999999418,
      "v": 85
    },
    {
      "midi": 60,
      "hit": false,
      "t": 310424.9999999999,
      "d": 733.3333333333139,
      "v": 76
    },
    {
      "midi": 48,
      "hit": false,
      "t": 310424.99999999994,
      "d": 750,
      "v": 88
    },
    {
      "midi": 36,
      "hit": false,
      "t": 310424.99999999994,
      "d": 1333.333333333314,
      "v": 80
    },
    {
      "midi": 55,
      "hit": false,
      "t": 310433.3333333332,
      "d": 533.3333333333139,
      "v": 81
    },
    {
      "midi": 67,
      "hit": false,
      "t": 311374.9999999999,
      "d": 533.3333333333139,
      "v": 72
    },
    {
      "midi": 60,
      "hit": false,
      "t": 311383.3333333332,
      "d": 541.6666666666861,
      "v": 71
    },
    {
      "midi": 55,
      "hit": false,
      "t": 311399.9999999999,
      "d": 33.33333333331393,
      "v": 78
    },
    {
      "midi": 48,
      "hit": false,
      "t": 311399.99999999994,
      "d": 300,
      "v": 77
    },
    {
      "midi": 37,
      "hit": false,
      "t": 313008.33333333326,
      "d": 358.33333333331393,
      "v": 78
    },
    {
      "midi": 60,
      "hit": false,
      "t": 313016.66666666657,
      "d": 433.33333333331393,
      "v": 75
    },
    {
      "midi": 65,
      "hit": false,
      "t": 313016.66666666657,
      "d": 533.3333333333139,
      "v": 80
    },
    {
      "midi": 68,
      "hit": false,
      "t": 313016.66666666657,
      "d": 591.6666666666279,
      "v": 78
    },
    {
      "midi": 25,
      "hit": false,
      "t": 313016.66666666657,
      "d": 300,
      "v": 67
    },
    {
      "midi": 54,
      "hit": false,
      "t": 313883.33333333326,
      "d": 2883.333333333314,
      "v": 53
    },
    {
      "midi": 53,
      "hit": false,
      "t": 313933.33333333326,
      "d": 2758.333333333314,
      "v": 51
    },
    {
      "midi": 58,
      "hit": false,
      "t": 314266.66666666657,
      "d": 2525,
      "v": 67
    },
    {
      "midi": 63,
      "hit": false,
      "t": 314466.66666666657,
      "d": 2225,
      "v": 71
    },
    {
      "midi": 65,
      "hit": false,
      "t": 314624.9999999999,
      "d": 116.66666666668607,
      "v": 44
    },
    {
      "midi": 68,
      "hit": false,
      "t": 314749.9999999999,
      "d": 141.66666666668607,
      "v": 62
    },
    {
      "midi": 70,
      "hit": false,
      "t": 314866.66666666657,
      "d": 75,
      "v": 65
    },
    {
      "midi": 72,
      "hit": false,
      "t": 314974.9999999999,
      "d": 75,
      "v": 68
    },
    {
      "midi": 75,
      "hit": false,
      "t": 315066.66666666657,
      "d": 100,
      "v": 69
    },
    {
      "midi": 77,
      "hit": false,
      "t": 315199.9999999999,
      "d": 108.33333333337214,
      "v": 74
    },
    {
      "midi": 80,
      "hit": false,
      "t": 315291.66666666657,
      "d": 150,
      "v": 64
    },
    {
      "midi": 82,
      "hit": false,
      "t": 315408.33333333326,
      "d": 83.33333333331393,
      "v": 67
    },
    {
      "midi": 84,
      "hit": false,
      "t": 315491.66666666657,
      "d": 100,
      "v": 64
    },
    {
      "midi": 87,
      "hit": false,
      "t": 315608.33333333326,
      "d": 83.33333333331393,
      "v": 67
    },
    {
      "midi": 89,
      "hit": false,
      "t": 315733.33333333326,
      "d": 108.33333333337214,
      "v": 60
    },
    {
      "midi": 92,
      "hit": false,
      "t": 315824.99999999994,
      "d": 133.33333333337214,
      "v": 64
    },
    {
      "midi": 94,
      "hit": false,
      "t": 315966.6666666666,
      "d": 33.33333333331393,
      "v": 55
    },
    {
      "midi": 96,
      "hit": false,
      "t": 316058.33333333326,
      "d": 100,
      "v": 53
    },
    {
      "midi": 99,
      "hit": false,
      "t": 316199.99999999994,
      "d": 83.33333333331393,
      "v": 56
    },
    {
      "midi": 100,
      "hit": false,
      "t": 316358.33333333326,
      "d": 83.33333333331393,
      "v": 43
    },
    {
      "midi": 104,
      "hit": false,
      "t": 316533.33333333326,
      "d": 133.33333333331393,
      "v": 55
    },
    {
      "midi": 106,
      "hit": false,
      "t": 316691.66666666657,
      "d": 183.33333333331393,
      "v": 60
    },
    {
      "midi": 108,
      "hit": false,
      "t": 316899.9999999999,
      "d": 208.33333333331393,
      "v": 48
    },
    {
      "midi": 108,
      "hit": false,
      "t": 317191.6666666665,
      "d": 208.33333333331393,
      "v": 45
    },
    {
      "midi": 108,
      "hit": false,
      "t": 317499.9999999998,
      "d": 200,
      "v": 40
    },
    {
      "midi": 108,
      "hit": false,
      "t": 317808.33333333314,
      "d": 208.33333333331393,
      "v": 40
    },
    {
      "midi": 108,
      "hit": false,
      "t": 318216.66666666645,
      "d": 450,
      "v": 25
    },
    {
      "midi": 25,
      "hit": false,
      "t": 318224.9999999999,
      "d": 383.33333333331393,
      "v": 25
    },
    {
      "midi": 108,
      "hit": false,
      "t": 318833.33333333314,
      "d": 433.33333333331393,
      "v": 17
    },
    {
      "midi": 25,
      "hit": false,
      "t": 318833.3333333332,
      "d": 358.33333333331393,
      "v": 27
    },
    {
      "midi": 25,
      "hit": false,
      "t": 319499.9999999998,
      "d": 391.66666666668607,
      "v": 28
    },
    {
      "midi": 108,
      "hit": false,
      "t": 319508.33333333314,
      "d": 400,
      "v": 24
    }
  ]
}