{
  "jsonPath": "World/Swedish Electropop/Alcazar/this-is-the-world-we-live-in.json",
  "path": "World\\Swedish Electropop\\Alcazar\\This Is The World We Live In.mid",
  "name": "This Is The World We Live In",
  "difficulty": "Advanced",
  "bpm": 125,
  "notes": [
    {
      "midi": 55,
      "hit": false,
      "t": 3840,
      "d": 213,
      "v": 113
    },
    {
      "midi": 58,
      "hit": false,
      "t": 3840,
      "d": 214,
      "v": 105
    },
    {
      "midi": 43,
      "hit": false,
      "t": 3840,
      "d": 215,
      "v": 121
    },
    {
      "midi": 62,
      "hit": false,
      "t": 3840,
      "d": 220,
      "v": 117
    },
    {
      "midi": 58,
      "hit": false,
      "t": 4560,
      "d": 101,
      "v": 102
    },
    {
      "midi": 55,
      "hit": false,
      "t": 4560,
      "d": 125,
      "v": 110
    },
    {
      "midi": 43,
      "hit": false,
      "t": 4560,
      "d": 129,
      "v": 110
    },
    {
      "midi": 62,
      "hit": false,
      "t": 4560,
      "d": 165,
      "v": 113
    },
    {
      "midi": 55,
      "hit": false,
      "t": 4800,
      "d": 119,
      "v": 113
    },
    {
      "midi": 60,
      "hit": false,
      "t": 4800,
      "d": 127,
      "v": 113
    },
    {
      "midi": 64,
      "hit": false,
      "t": 4800,
      "d": 131,
      "v": 110
    },
    {
      "midi": 48,
      "hit": false,
      "t": 4800,
      "d": 239,
      "v": 106
    },
    {
      "midi": 55,
      "hit": false,
      "t": 5040,
      "d": 56,
      "v": 113
    },
    {
      "midi": 67,
      "hit": false,
      "t": 5160,
      "d": 124,
      "v": 110
    },
    {
      "midi": 48,
      "hit": false,
      "t": 5400,
      "d": 96,
      "v": 84
    },
    {
      "midi": 55,
      "hit": false,
      "t": 5520,
      "d": 67,
      "v": 93
    },
    {
      "midi": 57,
      "hit": false,
      "t": 5760,
      "d": 187,
      "v": 98
    },
    {
      "midi": 65,
      "hit": false,
      "t": 5760,
      "d": 189,
      "v": 88
    },
    {
      "midi": 60,
      "hit": false,
      "t": 5760,
      "d": 191,
      "v": 98
    },
    {
      "midi": 41,
      "hit": false,
      "t": 5760,
      "d": 197,
      "v": 113
    },
    {
      "midi": 57,
      "hit": false,
      "t": 6480,
      "d": 100,
      "v": 95
    },
    {
      "midi": 41,
      "hit": false,
      "t": 6480,
      "d": 112,
      "v": 105
    },
    {
      "midi": 60,
      "hit": false,
      "t": 6480,
      "d": 139,
      "v": 98
    },
    {
      "midi": 65,
      "hit": false,
      "t": 6480,
      "d": 142,
      "v": 91
    },
    {
      "midi": 67,
      "hit": false,
      "t": 6720,
      "d": 120,
      "v": 110
    },
    {
      "midi": 58,
      "hit": false,
      "t": 6720,
      "d": 156,
      "v": 110
    },
    {
      "midi": 43,
      "hit": false,
      "t": 6720,
      "d": 164,
      "v": 117
    },
    {
      "midi": 62,
      "hit": false,
      "t": 6720,
      "d": 169,
      "v": 113
    },
    {
      "midi": 43,
      "hit": false,
      "t": 7680,
      "d": 114,
      "v": 121
    },
    {
      "midi": 55,
      "hit": false,
      "t": 7680,
      "d": 169,
      "v": 105
    },
    {
      "midi": 58,
      "hit": false,
      "t": 7680,
      "d": 175,
      "v": 91
    },
    {
      "midi": 62,
      "hit": false,
      "t": 7680,
      "d": 176,
      "v": 110
    },
    {
      "midi": 59,
      "hit": false,
      "t": 8400,
      "d": 102,
      "v": 105
    },
    {
      "midi": 63,
      "hit": false,
      "t": 8400,
      "d": 122,
      "v": 95
    },
    {
      "midi": 55,
      "hit": false,
      "t": 8640,
      "d": 177,
      "v": 98
    },
    {
      "midi": 48,
      "hit": false,
      "t": 8640,
      "d": 179,
      "v": 105
    },
    {
      "midi": 64,
      "hit": false,
      "t": 8640,
      "d": 186,
      "v": 95
    },
    {
      "midi": 60,
      "hit": false,
      "t": 8640,
      "d": 187,
      "v": 98
    },
    {
      "midi": 67,
      "hit": false,
      "t": 9000,
      "d": 133,
      "v": 117
    },
    {
      "midi": 55,
      "hit": false,
      "t": 9360,
      "d": 115,
      "v": 117
    },
    {
      "midi": 53,
      "hit": false,
      "t": 9600,
      "d": 117,
      "v": 102
    },
    {
      "midi": 57,
      "hit": false,
      "t": 9600,
      "d": 125,
      "v": 105
    },
    {
      "midi": 60,
      "hit": false,
      "t": 9600,
      "d": 134,
      "v": 102
    },
    {
      "midi": 41,
      "hit": false,
      "t": 9600,
      "d": 145,
      "v": 110
    },
    {
      "midi": 57,
      "hit": false,
      "t": 10320,
      "d": 79,
      "v": 98
    },
    {
      "midi": 53,
      "hit": false,
      "t": 10320,
      "d": 90,
      "v": 102
    },
    {
      "midi": 60,
      "hit": false,
      "t": 10320,
      "d": 97,
      "v": 105
    },
    {
      "midi": 41,
      "hit": false,
      "t": 10320,
      "d": 102,
      "v": 110
    },
    {
      "midi": 55,
      "hit": false,
      "t": 10560,
      "d": 171,
      "v": 98
    },
    {
      "midi": 43,
      "hit": false,
      "t": 10560,
      "d": 182,
      "v": 113
    },
    {
      "midi": 62,
      "hit": false,
      "t": 10560,
      "d": 188,
      "v": 90
    },
    {
      "midi": 58,
      "hit": false,
      "t": 10560,
      "d": 189,
      "v": 102
    },
    {
      "midi": 55,
      "hit": false,
      "t": 13440,
      "d": 213,
      "v": 113
    },
    {
      "midi": 58,
      "hit": false,
      "t": 13440,
      "d": 214,
      "v": 105
    },
    {
      "midi": 43,
      "hit": false,
      "t": 13440,
      "d": 215,
      "v": 121
    },
    {
      "midi": 62,
      "hit": false,
      "t": 13440,
      "d": 220,
      "v": 117
    },
    {
      "midi": 58,
      "hit": false,
      "t": 14160,
      "d": 101,
      "v": 102
    },
    {
      "midi": 55,
      "hit": false,
      "t": 14160,
      "d": 125,
      "v": 110
    },
    {
      "midi": 43,
      "hit": false,
      "t": 14160,
      "d": 129,
      "v": 110
    },
    {
      "midi": 62,
      "hit": false,
      "t": 14160,
      "d": 165,
      "v": 113
    },
    {
      "midi": 55,
      "hit": false,
      "t": 14400,
      "d": 119,
      "v": 113
    },
    {
      "midi": 60,
      "hit": false,
      "t": 14400,
      "d": 127,
      "v": 113
    },
    {
      "midi": 64,
      "hit": false,
      "t": 14400,
      "d": 131,
      "v": 110
    },
    {
      "midi": 48,
      "hit": false,
      "t": 14400,
      "d": 239,
      "v": 106
    },
    {
      "midi": 55,
      "hit": false,
      "t": 14640,
      "d": 56,
      "v": 113
    },
    {
      "midi": 67,
      "hit": false,
      "t": 14760,
      "d": 124,
      "v": 110
    },
    {
      "midi": 48,
      "hit": false,
      "t": 15000,
      "d": 96,
      "v": 84
    },
    {
      "midi": 55,
      "hit": false,
      "t": 15120,
      "d": 67,
      "v": 93
    },
    {
      "midi": 57,
      "hit": false,
      "t": 15360,
      "d": 187,
      "v": 98
    },
    {
      "midi": 65,
      "hit": false,
      "t": 15360,
      "d": 189,
      "v": 88
    },
    {
      "midi": 60,
      "hit": false,
      "t": 15360,
      "d": 191,
      "v": 98
    },
    {
      "midi": 41,
      "hit": false,
      "t": 15360,
      "d": 197,
      "v": 113
    },
    {
      "midi": 57,
      "hit": false,
      "t": 16080,
      "d": 100,
      "v": 95
    },
    {
      "midi": 41,
      "hit": false,
      "t": 16080,
      "d": 112,
      "v": 105
    },
    {
      "midi": 60,
      "hit": false,
      "t": 16080,
      "d": 139,
      "v": 98
    },
    {
      "midi": 65,
      "hit": false,
      "t": 16080,
      "d": 142,
      "v": 91
    },
    {
      "midi": 67,
      "hit": false,
      "t": 16320,
      "d": 120,
      "v": 110
    },
    {
      "midi": 58,
      "hit": false,
      "t": 16320,
      "d": 156,
      "v": 110
    },
    {
      "midi": 43,
      "hit": false,
      "t": 16320,
      "d": 164,
      "v": 117
    },
    {
      "midi": 62,
      "hit": false,
      "t": 16320,
      "d": 169,
      "v": 113
    },
    {
      "midi": 43,
      "hit": false,
      "t": 17280,
      "d": 114,
      "v": 121
    },
    {
      "midi": 55,
      "hit": false,
      "t": 17280,
      "d": 169,
      "v": 105
    },
    {
      "midi": 58,
      "hit": false,
      "t": 17280,
      "d": 175,
      "v": 91
    },
    {
      "midi": 62,
      "hit": false,
      "t": 17280,
      "d": 176,
      "v": 110
    },
    {
      "midi": 59,
      "hit": false,
      "t": 18000,
      "d": 102,
      "v": 105
    },
    {
      "midi": 63,
      "hit": false,
      "t": 18000,
      "d": 122,
      "v": 95
    },
    {
      "midi": 55,
      "hit": false,
      "t": 18240,
      "d": 177,
      "v": 98
    },
    {
      "midi": 48,
      "hit": false,
      "t": 18240,
      "d": 179,
      "v": 105
    },
    {
      "midi": 64,
      "hit": false,
      "t": 18240,
      "d": 186,
      "v": 95
    },
    {
      "midi": 60,
      "hit": false,
      "t": 18240,
      "d": 187,
      "v": 98
    },
    {
      "midi": 67,
      "hit": false,
      "t": 18600,
      "d": 133,
      "v": 117
    },
    {
      "midi": 55,
      "hit": false,
      "t": 18960,
      "d": 115,
      "v": 117
    },
    {
      "midi": 53,
      "hit": false,
      "t": 19200,
      "d": 117,
      "v": 102
    },
    {
      "midi": 57,
      "hit": false,
      "t": 19200,
      "d": 125,
      "v": 105
    },
    {
      "midi": 60,
      "hit": false,
      "t": 19200,
      "d": 134,
      "v": 102
    },
    {
      "midi": 41,
      "hit": false,
      "t": 19200,
      "d": 145,
      "v": 110
    },
    {
      "midi": 57,
      "hit": false,
      "t": 19920,
      "d": 79,
      "v": 98
    },
    {
      "midi": 53,
      "hit": false,
      "t": 19920,
      "d": 90,
      "v": 102
    },
    {
      "midi": 60,
      "hit": false,
      "t": 19920,
      "d": 97,
      "v": 105
    },
    {
      "midi": 41,
      "hit": false,
      "t": 19920,
      "d": 102,
      "v": 110
    },
    {
      "midi": 55,
      "hit": false,
      "t": 20160,
      "d": 171,
      "v": 98
    },
    {
      "midi": 43,
      "hit": false,
      "t": 20160,
      "d": 182,
      "v": 113
    },
    {
      "midi": 62,
      "hit": false,
      "t": 20160,
      "d": 188,
      "v": 90
    },
    {
      "midi": 58,
      "hit": false,
      "t": 20160,
      "d": 189,
      "v": 102
    },
    {
      "midi": 55,
      "hit": false,
      "t": 21120,
      "d": 213,
      "v": 113
    },
    {
      "midi": 58,
      "hit": false,
      "t": 21120,
      "d": 214,
      "v": 105
    },
    {
      "midi": 43,
      "hit": false,
      "t": 21120,
      "d": 215,
      "v": 121
    },
    {
      "midi": 62,
      "hit": false,
      "t": 21120,
      "d": 220,
      "v": 117
    },
    {
      "midi": 58,
      "hit": false,
      "t": 21840,
      "d": 101,
      "v": 102
    },
    {
      "midi": 55,
      "hit": false,
      "t": 21840,
      "d": 125,
      "v": 110
    },
    {
      "midi": 43,
      "hit": false,
      "t": 21840,
      "d": 129,
      "v": 110
    },
    {
      "midi": 62,
      "hit": false,
      "t": 21840,
      "d": 165,
      "v": 113
    },
    {
      "midi": 55,
      "hit": false,
      "t": 22080,
      "d": 119,
      "v": 113
    },
    {
      "midi": 60,
      "hit": false,
      "t": 22080,
      "d": 127,
      "v": 113
    },
    {
      "midi": 64,
      "hit": false,
      "t": 22080,
      "d": 131,
      "v": 110
    },
    {
      "midi": 48,
      "hit": false,
      "t": 22080,
      "d": 239,
      "v": 106
    },
    {
      "midi": 55,
      "hit": false,
      "t": 22320,
      "d": 56,
      "v": 113
    },
    {
      "midi": 67,
      "hit": false,
      "t": 22440,
      "d": 124,
      "v": 110
    },
    {
      "midi": 48,
      "hit": false,
      "t": 22680,
      "d": 96,
      "v": 84
    },
    {
      "midi": 55,
      "hit": false,
      "t": 22800,
      "d": 67,
      "v": 93
    },
    {
      "midi": 57,
      "hit": false,
      "t": 23040,
      "d": 187,
      "v": 98
    },
    {
      "midi": 65,
      "hit": false,
      "t": 23040,
      "d": 189,
      "v": 88
    },
    {
      "midi": 60,
      "hit": false,
      "t": 23040,
      "d": 191,
      "v": 98
    },
    {
      "midi": 41,
      "hit": false,
      "t": 23040,
      "d": 197,
      "v": 113
    },
    {
      "midi": 57,
      "hit": false,
      "t": 23760,
      "d": 100,
      "v": 95
    },
    {
      "midi": 41,
      "hit": false,
      "t": 23760,
      "d": 112,
      "v": 105
    },
    {
      "midi": 60,
      "hit": false,
      "t": 23760,
      "d": 139,
      "v": 98
    },
    {
      "midi": 65,
      "hit": false,
      "t": 23760,
      "d": 142,
      "v": 91
    },
    {
      "midi": 67,
      "hit": false,
      "t": 24000,
      "d": 120,
      "v": 110
    },
    {
      "midi": 58,
      "hit": false,
      "t": 24000,
      "d": 156,
      "v": 110
    },
    {
      "midi": 43,
      "hit": false,
      "t": 24000,
      "d": 164,
      "v": 117
    },
    {
      "midi": 62,
      "hit": false,
      "t": 24000,
      "d": 169,
      "v": 113
    },
    {
      "midi": 43,
      "hit": false,
      "t": 24960,
      "d": 114,
      "v": 121
    },
    {
      "midi": 55,
      "hit": false,
      "t": 24960,
      "d": 169,
      "v": 105
    },
    {
      "midi": 58,
      "hit": false,
      "t": 24960,
      "d": 175,
      "v": 91
    },
    {
      "midi": 62,
      "hit": false,
      "t": 24960,
      "d": 176,
      "v": 110
    },
    {
      "midi": 59,
      "hit": false,
      "t": 25680,
      "d": 102,
      "v": 105
    },
    {
      "midi": 63,
      "hit": false,
      "t": 25680,
      "d": 122,
      "v": 95
    },
    {
      "midi": 55,
      "hit": false,
      "t": 25920,
      "d": 177,
      "v": 98
    },
    {
      "midi": 48,
      "hit": false,
      "t": 25920,
      "d": 179,
      "v": 105
    },
    {
      "midi": 64,
      "hit": false,
      "t": 25920,
      "d": 186,
      "v": 95
    },
    {
      "midi": 60,
      "hit": false,
      "t": 25920,
      "d": 187,
      "v": 98
    },
    {
      "midi": 67,
      "hit": false,
      "t": 26280,
      "d": 133,
      "v": 117
    },
    {
      "midi": 55,
      "hit": false,
      "t": 26640,
      "d": 115,
      "v": 117
    },
    {
      "midi": 53,
      "hit": false,
      "t": 26880,
      "d": 117,
      "v": 102
    },
    {
      "midi": 57,
      "hit": false,
      "t": 26880,
      "d": 125,
      "v": 105
    },
    {
      "midi": 60,
      "hit": false,
      "t": 26880,
      "d": 134,
      "v": 102
    },
    {
      "midi": 41,
      "hit": false,
      "t": 26880,
      "d": 145,
      "v": 110
    },
    {
      "midi": 57,
      "hit": false,
      "t": 27600,
      "d": 79,
      "v": 98
    },
    {
      "midi": 53,
      "hit": false,
      "t": 27600,
      "d": 90,
      "v": 102
    },
    {
      "midi": 60,
      "hit": false,
      "t": 27600,
      "d": 97,
      "v": 105
    },
    {
      "midi": 41,
      "hit": false,
      "t": 27600,
      "d": 102,
      "v": 110
    },
    {
      "midi": 55,
      "hit": false,
      "t": 27840,
      "d": 171,
      "v": 98
    },
    {
      "midi": 43,
      "hit": false,
      "t": 27840,
      "d": 182,
      "v": 113
    },
    {
      "midi": 62,
      "hit": false,
      "t": 27840,
      "d": 188,
      "v": 90
    },
    {
      "midi": 58,
      "hit": false,
      "t": 27840,
      "d": 189,
      "v": 102
    },
    {
      "midi": 55,
      "hit": false,
      "t": 28800,
      "d": 213,
      "v": 113
    },
    {
      "midi": 58,
      "hit": false,
      "t": 28800,
      "d": 214,
      "v": 105
    },
    {
      "midi": 43,
      "hit": false,
      "t": 28800,
      "d": 215,
      "v": 121
    },
    {
      "midi": 62,
      "hit": false,
      "t": 28800,
      "d": 220,
      "v": 117
    },
    {
      "midi": 58,
      "hit": false,
      "t": 29520,
      "d": 101,
      "v": 102
    },
    {
      "midi": 55,
      "hit": false,
      "t": 29520,
      "d": 125,
      "v": 110
    },
    {
      "midi": 43,
      "hit": false,
      "t": 29520,
      "d": 129,
      "v": 110
    },
    {
      "midi": 62,
      "hit": false,
      "t": 29520,
      "d": 165,
      "v": 113
    },
    {
      "midi": 55,
      "hit": false,
      "t": 29760,
      "d": 119,
      "v": 113
    },
    {
      "midi": 60,
      "hit": false,
      "t": 29760,
      "d": 127,
      "v": 113
    },
    {
      "midi": 64,
      "hit": false,
      "t": 29760,
      "d": 131,
      "v": 110
    },
    {
      "midi": 48,
      "hit": false,
      "t": 29760,
      "d": 239,
      "v": 106
    },
    {
      "midi": 55,
      "hit": false,
      "t": 30000,
      "d": 56,
      "v": 113
    },
    {
      "midi": 67,
      "hit": false,
      "t": 30120,
      "d": 124,
      "v": 110
    },
    {
      "midi": 48,
      "hit": false,
      "t": 30360,
      "d": 96,
      "v": 84
    },
    {
      "midi": 55,
      "hit": false,
      "t": 30480,
      "d": 67,
      "v": 93
    },
    {
      "midi": 57,
      "hit": false,
      "t": 30720,
      "d": 187,
      "v": 98
    },
    {
      "midi": 65,
      "hit": false,
      "t": 30720,
      "d": 189,
      "v": 88
    },
    {
      "midi": 60,
      "hit": false,
      "t": 30720,
      "d": 191,
      "v": 98
    },
    {
      "midi": 41,
      "hit": false,
      "t": 30720,
      "d": 197,
      "v": 113
    },
    {
      "midi": 57,
      "hit": false,
      "t": 31440,
      "d": 100,
      "v": 95
    },
    {
      "midi": 41,
      "hit": false,
      "t": 31440,
      "d": 112,
      "v": 105
    },
    {
      "midi": 60,
      "hit": false,
      "t": 31440,
      "d": 139,
      "v": 98
    },
    {
      "midi": 65,
      "hit": false,
      "t": 31440,
      "d": 142,
      "v": 91
    },
    {
      "midi": 67,
      "hit": false,
      "t": 31680,
      "d": 120,
      "v": 110
    },
    {
      "midi": 58,
      "hit": false,
      "t": 31680,
      "d": 156,
      "v": 110
    },
    {
      "midi": 43,
      "hit": false,
      "t": 31680,
      "d": 164,
      "v": 117
    },
    {
      "midi": 62,
      "hit": false,
      "t": 31680,
      "d": 169,
      "v": 113
    },
    {
      "midi": 43,
      "hit": false,
      "t": 32640,
      "d": 114,
      "v": 121
    },
    {
      "midi": 55,
      "hit": false,
      "t": 32640,
      "d": 169,
      "v": 105
    },
    {
      "midi": 58,
      "hit": false,
      "t": 32640,
      "d": 175,
      "v": 91
    },
    {
      "midi": 62,
      "hit": false,
      "t": 32640,
      "d": 176,
      "v": 110
    },
    {
      "midi": 59,
      "hit": false,
      "t": 33360,
      "d": 102,
      "v": 105
    },
    {
      "midi": 63,
      "hit": false,
      "t": 33360,
      "d": 122,
      "v": 95
    },
    {
      "midi": 55,
      "hit": false,
      "t": 33600,
      "d": 177,
      "v": 98
    },
    {
      "midi": 48,
      "hit": false,
      "t": 33600,
      "d": 179,
      "v": 105
    },
    {
      "midi": 64,
      "hit": false,
      "t": 33600,
      "d": 186,
      "v": 95
    },
    {
      "midi": 60,
      "hit": false,
      "t": 33600,
      "d": 187,
      "v": 98
    },
    {
      "midi": 67,
      "hit": false,
      "t": 33960,
      "d": 133,
      "v": 117
    },
    {
      "midi": 55,
      "hit": false,
      "t": 34320,
      "d": 115,
      "v": 117
    },
    {
      "midi": 53,
      "hit": false,
      "t": 34560,
      "d": 117,
      "v": 102
    },
    {
      "midi": 57,
      "hit": false,
      "t": 34560,
      "d": 125,
      "v": 105
    },
    {
      "midi": 60,
      "hit": false,
      "t": 34560,
      "d": 134,
      "v": 102
    },
    {
      "midi": 41,
      "hit": false,
      "t": 34560,
      "d": 145,
      "v": 110
    },
    {
      "midi": 57,
      "hit": false,
      "t": 35280,
      "d": 79,
      "v": 98
    },
    {
      "midi": 53,
      "hit": false,
      "t": 35280,
      "d": 90,
      "v": 102
    },
    {
      "midi": 60,
      "hit": false,
      "t": 35280,
      "d": 97,
      "v": 105
    },
    {
      "midi": 41,
      "hit": false,
      "t": 35280,
      "d": 102,
      "v": 110
    },
    {
      "midi": 55,
      "hit": false,
      "t": 35520,
      "d": 171,
      "v": 98
    },
    {
      "midi": 43,
      "hit": false,
      "t": 35520,
      "d": 182,
      "v": 113
    },
    {
      "midi": 62,
      "hit": false,
      "t": 35520,
      "d": 188,
      "v": 90
    },
    {
      "midi": 58,
      "hit": false,
      "t": 35520,
      "d": 189,
      "v": 102
    },
    {
      "midi": 55,
      "hit": false,
      "t": 36480,
      "d": 213,
      "v": 113
    },
    {
      "midi": 58,
      "hit": false,
      "t": 36480,
      "d": 214,
      "v": 105
    },
    {
      "midi": 43,
      "hit": false,
      "t": 36480,
      "d": 215,
      "v": 121
    },
    {
      "midi": 62,
      "hit": false,
      "t": 36480,
      "d": 220,
      "v": 117
    },
    {
      "midi": 58,
      "hit": false,
      "t": 37200,
      "d": 101,
      "v": 102
    },
    {
      "midi": 55,
      "hit": false,
      "t": 37200,
      "d": 125,
      "v": 110
    },
    {
      "midi": 43,
      "hit": false,
      "t": 37200,
      "d": 129,
      "v": 110
    },
    {
      "midi": 62,
      "hit": false,
      "t": 37200,
      "d": 165,
      "v": 113
    },
    {
      "midi": 55,
      "hit": false,
      "t": 37440,
      "d": 119,
      "v": 113
    },
    {
      "midi": 60,
      "hit": false,
      "t": 37440,
      "d": 127,
      "v": 113
    },
    {
      "midi": 64,
      "hit": false,
      "t": 37440,
      "d": 131,
      "v": 110
    },
    {
      "midi": 48,
      "hit": false,
      "t": 37440,
      "d": 239,
      "v": 106
    },
    {
      "midi": 55,
      "hit": false,
      "t": 37680,
      "d": 56,
      "v": 113
    },
    {
      "midi": 67,
      "hit": false,
      "t": 37800,
      "d": 124,
      "v": 110
    },
    {
      "midi": 48,
      "hit": false,
      "t": 38040,
      "d": 96,
      "v": 84
    },
    {
      "midi": 55,
      "hit": false,
      "t": 38160,
      "d": 67,
      "v": 93
    },
    {
      "midi": 57,
      "hit": false,
      "t": 38400,
      "d": 187,
      "v": 98
    },
    {
      "midi": 65,
      "hit": false,
      "t": 38400,
      "d": 189,
      "v": 88
    },
    {
      "midi": 60,
      "hit": false,
      "t": 38400,
      "d": 191,
      "v": 98
    },
    {
      "midi": 41,
      "hit": false,
      "t": 38400,
      "d": 197,
      "v": 113
    },
    {
      "midi": 57,
      "hit": false,
      "t": 39120,
      "d": 100,
      "v": 95
    },
    {
      "midi": 41,
      "hit": false,
      "t": 39120,
      "d": 112,
      "v": 105
    },
    {
      "midi": 60,
      "hit": false,
      "t": 39120,
      "d": 139,
      "v": 98
    },
    {
      "midi": 65,
      "hit": false,
      "t": 39120,
      "d": 142,
      "v": 91
    },
    {
      "midi": 67,
      "hit": false,
      "t": 39360,
      "d": 120,
      "v": 110
    },
    {
      "midi": 58,
      "hit": false,
      "t": 39360,
      "d": 156,
      "v": 110
    },
    {
      "midi": 43,
      "hit": false,
      "t": 39360,
      "d": 164,
      "v": 117
    },
    {
      "midi": 62,
      "hit": false,
      "t": 39360,
      "d": 169,
      "v": 113
    },
    {
      "midi": 43,
      "hit": false,
      "t": 40320,
      "d": 114,
      "v": 121
    },
    {
      "midi": 55,
      "hit": false,
      "t": 40320,
      "d": 169,
      "v": 105
    },
    {
      "midi": 58,
      "hit": false,
      "t": 40320,
      "d": 175,
      "v": 91
    },
    {
      "midi": 62,
      "hit": false,
      "t": 40320,
      "d": 176,
      "v": 110
    },
    {
      "midi": 59,
      "hit": false,
      "t": 41040,
      "d": 102,
      "v": 105
    },
    {
      "midi": 63,
      "hit": false,
      "t": 41040,
      "d": 122,
      "v": 95
    },
    {
      "midi": 55,
      "hit": false,
      "t": 41280,
      "d": 177,
      "v": 98
    },
    {
      "midi": 48,
      "hit": false,
      "t": 41280,
      "d": 179,
      "v": 105
    },
    {
      "midi": 64,
      "hit": false,
      "t": 41280,
      "d": 186,
      "v": 95
    },
    {
      "midi": 60,
      "hit": false,
      "t": 41280,
      "d": 187,
      "v": 98
    },
    {
      "midi": 67,
      "hit": false,
      "t": 41640,
      "d": 133,
      "v": 117
    },
    {
      "midi": 55,
      "hit": false,
      "t": 42000,
      "d": 115,
      "v": 117
    },
    {
      "midi": 53,
      "hit": false,
      "t": 42240,
      "d": 117,
      "v": 102
    },
    {
      "midi": 57,
      "hit": false,
      "t": 42240,
      "d": 125,
      "v": 105
    },
    {
      "midi": 60,
      "hit": false,
      "t": 42240,
      "d": 134,
      "v": 102
    },
    {
      "midi": 41,
      "hit": false,
      "t": 42240,
      "d": 145,
      "v": 110
    },
    {
      "midi": 57,
      "hit": false,
      "t": 42960,
      "d": 79,
      "v": 98
    },
    {
      "midi": 53,
      "hit": false,
      "t": 42960,
      "d": 90,
      "v": 102
    },
    {
      "midi": 60,
      "hit": false,
      "t": 42960,
      "d": 97,
      "v": 105
    },
    {
      "midi": 41,
      "hit": false,
      "t": 42960,
      "d": 102,
      "v": 110
    },
    {
      "midi": 55,
      "hit": false,
      "t": 43200,
      "d": 171,
      "v": 98
    },
    {
      "midi": 43,
      "hit": false,
      "t": 43200,
      "d": 182,
      "v": 113
    },
    {
      "midi": 62,
      "hit": false,
      "t": 43200,
      "d": 188,
      "v": 90
    },
    {
      "midi": 58,
      "hit": false,
      "t": 43200,
      "d": 189,
      "v": 102
    },
    {
      "midi": 55,
      "hit": false,
      "t": 44160,
      "d": 213,
      "v": 113
    },
    {
      "midi": 58,
      "hit": false,
      "t": 44160,
      "d": 214,
      "v": 105
    },
    {
      "midi": 43,
      "hit": false,
      "t": 44160,
      "d": 215,
      "v": 121
    },
    {
      "midi": 62,
      "hit": false,
      "t": 44160,
      "d": 220,
      "v": 117
    },
    {
      "midi": 58,
      "hit": false,
      "t": 44880,
      "d": 101,
      "v": 102
    },
    {
      "midi": 55,
      "hit": false,
      "t": 44880,
      "d": 125,
      "v": 110
    },
    {
      "midi": 43,
      "hit": false,
      "t": 44880,
      "d": 129,
      "v": 110
    },
    {
      "midi": 62,
      "hit": false,
      "t": 44880,
      "d": 165,
      "v": 113
    },
    {
      "midi": 55,
      "hit": false,
      "t": 45120,
      "d": 119,
      "v": 113
    },
    {
      "midi": 60,
      "hit": false,
      "t": 45120,
      "d": 127,
      "v": 113
    },
    {
      "midi": 64,
      "hit": false,
      "t": 45120,
      "d": 131,
      "v": 110
    },
    {
      "midi": 48,
      "hit": false,
      "t": 45120,
      "d": 239,
      "v": 106
    },
    {
      "midi": 55,
      "hit": false,
      "t": 45360,
      "d": 56,
      "v": 113
    },
    {
      "midi": 67,
      "hit": false,
      "t": 45480,
      "d": 124,
      "v": 110
    },
    {
      "midi": 48,
      "hit": false,
      "t": 45720,
      "d": 96,
      "v": 84
    },
    {
      "midi": 55,
      "hit": false,
      "t": 45840,
      "d": 67,
      "v": 93
    },
    {
      "midi": 57,
      "hit": false,
      "t": 46080,
      "d": 187,
      "v": 98
    },
    {
      "midi": 65,
      "hit": false,
      "t": 46080,
      "d": 189,
      "v": 88
    },
    {
      "midi": 60,
      "hit": false,
      "t": 46080,
      "d": 191,
      "v": 98
    },
    {
      "midi": 41,
      "hit": false,
      "t": 46080,
      "d": 197,
      "v": 113
    },
    {
      "midi": 57,
      "hit": false,
      "t": 46800,
      "d": 100,
      "v": 95
    },
    {
      "midi": 41,
      "hit": false,
      "t": 46800,
      "d": 112,
      "v": 105
    },
    {
      "midi": 60,
      "hit": false,
      "t": 46800,
      "d": 139,
      "v": 98
    },
    {
      "midi": 65,
      "hit": false,
      "t": 46800,
      "d": 142,
      "v": 91
    },
    {
      "midi": 67,
      "hit": false,
      "t": 47040,
      "d": 120,
      "v": 110
    },
    {
      "midi": 58,
      "hit": false,
      "t": 47040,
      "d": 156,
      "v": 110
    },
    {
      "midi": 43,
      "hit": false,
      "t": 47040,
      "d": 164,
      "v": 117
    },
    {
      "midi": 62,
      "hit": false,
      "t": 47040,
      "d": 169,
      "v": 113
    },
    {
      "midi": 43,
      "hit": false,
      "t": 48000,
      "d": 114,
      "v": 121
    },
    {
      "midi": 55,
      "hit": false,
      "t": 48000,
      "d": 169,
      "v": 105
    },
    {
      "midi": 58,
      "hit": false,
      "t": 48000,
      "d": 175,
      "v": 91
    },
    {
      "midi": 62,
      "hit": false,
      "t": 48000,
      "d": 176,
      "v": 110
    },
    {
      "midi": 59,
      "hit": false,
      "t": 48720,
      "d": 102,
      "v": 105
    },
    {
      "midi": 63,
      "hit": false,
      "t": 48720,
      "d": 122,
      "v": 95
    },
    {
      "midi": 55,
      "hit": false,
      "t": 48960,
      "d": 177,
      "v": 98
    },
    {
      "midi": 48,
      "hit": false,
      "t": 48960,
      "d": 179,
      "v": 105
    },
    {
      "midi": 64,
      "hit": false,
      "t": 48960,
      "d": 186,
      "v": 95
    },
    {
      "midi": 60,
      "hit": false,
      "t": 48960,
      "d": 187,
      "v": 98
    },
    {
      "midi": 67,
      "hit": false,
      "t": 49320,
      "d": 133,
      "v": 117
    },
    {
      "midi": 55,
      "hit": false,
      "t": 49680,
      "d": 115,
      "v": 117
    },
    {
      "midi": 53,
      "hit": false,
      "t": 49920,
      "d": 117,
      "v": 102
    },
    {
      "midi": 57,
      "hit": false,
      "t": 49920,
      "d": 125,
      "v": 105
    },
    {
      "midi": 60,
      "hit": false,
      "t": 49920,
      "d": 134,
      "v": 102
    },
    {
      "midi": 41,
      "hit": false,
      "t": 49920,
      "d": 145,
      "v": 110
    },
    {
      "midi": 55,
      "hit": false,
      "t": 51840,
      "d": 213,
      "v": 113
    },
    {
      "midi": 58,
      "hit": false,
      "t": 51840,
      "d": 214,
      "v": 105
    },
    {
      "midi": 43,
      "hit": false,
      "t": 51840,
      "d": 215,
      "v": 121
    },
    {
      "midi": 62,
      "hit": false,
      "t": 51840,
      "d": 220,
      "v": 117
    },
    {
      "midi": 58,
      "hit": false,
      "t": 52560,
      "d": 101,
      "v": 102
    },
    {
      "midi": 55,
      "hit": false,
      "t": 52560,
      "d": 125,
      "v": 110
    },
    {
      "midi": 43,
      "hit": false,
      "t": 52560,
      "d": 129,
      "v": 110
    },
    {
      "midi": 62,
      "hit": false,
      "t": 52560,
      "d": 165,
      "v": 113
    },
    {
      "midi": 55,
      "hit": false,
      "t": 52800,
      "d": 119,
      "v": 113
    },
    {
      "midi": 60,
      "hit": false,
      "t": 52800,
      "d": 127,
      "v": 113
    },
    {
      "midi": 64,
      "hit": false,
      "t": 52800,
      "d": 131,
      "v": 110
    },
    {
      "midi": 48,
      "hit": false,
      "t": 52800,
      "d": 239,
      "v": 106
    },
    {
      "midi": 55,
      "hit": false,
      "t": 53040,
      "d": 56,
      "v": 113
    },
    {
      "midi": 67,
      "hit": false,
      "t": 53160,
      "d": 124,
      "v": 110
    },
    {
      "midi": 48,
      "hit": false,
      "t": 53400,
      "d": 96,
      "v": 84
    },
    {
      "midi": 55,
      "hit": false,
      "t": 53520,
      "d": 67,
      "v": 93
    },
    {
      "midi": 57,
      "hit": false,
      "t": 53760,
      "d": 187,
      "v": 98
    },
    {
      "midi": 65,
      "hit": false,
      "t": 53760,
      "d": 189,
      "v": 88
    },
    {
      "midi": 60,
      "hit": false,
      "t": 53760,
      "d": 191,
      "v": 98
    },
    {
      "midi": 41,
      "hit": false,
      "t": 53760,
      "d": 197,
      "v": 113
    },
    {
      "midi": 57,
      "hit": false,
      "t": 54480,
      "d": 100,
      "v": 95
    },
    {
      "midi": 41,
      "hit": false,
      "t": 54480,
      "d": 112,
      "v": 105
    },
    {
      "midi": 60,
      "hit": false,
      "t": 54480,
      "d": 139,
      "v": 98
    },
    {
      "midi": 65,
      "hit": false,
      "t": 54480,
      "d": 142,
      "v": 91
    },
    {
      "midi": 67,
      "hit": false,
      "t": 54720,
      "d": 120,
      "v": 110
    },
    {
      "midi": 58,
      "hit": false,
      "t": 54720,
      "d": 156,
      "v": 110
    },
    {
      "midi": 43,
      "hit": false,
      "t": 54720,
      "d": 164,
      "v": 117
    },
    {
      "midi": 62,
      "hit": false,
      "t": 54720,
      "d": 169,
      "v": 113
    },
    {
      "midi": 43,
      "hit": false,
      "t": 55680,
      "d": 114,
      "v": 121
    },
    {
      "midi": 55,
      "hit": false,
      "t": 55680,
      "d": 169,
      "v": 105
    },
    {
      "midi": 58,
      "hit": false,
      "t": 55680,
      "d": 175,
      "v": 91
    },
    {
      "midi": 62,
      "hit": false,
      "t": 55680,
      "d": 176,
      "v": 110
    },
    {
      "midi": 59,
      "hit": false,
      "t": 56400,
      "d": 102,
      "v": 105
    },
    {
      "midi": 63,
      "hit": false,
      "t": 56400,
      "d": 122,
      "v": 95
    },
    {
      "midi": 55,
      "hit": false,
      "t": 56640,
      "d": 177,
      "v": 98
    },
    {
      "midi": 48,
      "hit": false,
      "t": 56640,
      "d": 179,
      "v": 105
    },
    {
      "midi": 64,
      "hit": false,
      "t": 56640,
      "d": 186,
      "v": 95
    },
    {
      "midi": 60,
      "hit": false,
      "t": 56640,
      "d": 187,
      "v": 98
    },
    {
      "midi": 67,
      "hit": false,
      "t": 57000,
      "d": 133,
      "v": 117
    },
    {
      "midi": 55,
      "hit": false,
      "t": 57360,
      "d": 115,
      "v": 117
    },
    {
      "midi": 53,
      "hit": false,
      "t": 57600,
      "d": 117,
      "v": 102
    },
    {
      "midi": 57,
      "hit": false,
      "t": 57600,
      "d": 125,
      "v": 105
    },
    {
      "midi": 60,
      "hit": false,
      "t": 57600,
      "d": 134,
      "v": 102
    },
    {
      "midi": 41,
      "hit": false,
      "t": 57600,
      "d": 145,
      "v": 110
    },
    {
      "midi": 57,
      "hit": false,
      "t": 58320,
      "d": 79,
      "v": 98
    },
    {
      "midi": 53,
      "hit": false,
      "t": 58320,
      "d": 90,
      "v": 102
    },
    {
      "midi": 60,
      "hit": false,
      "t": 58320,
      "d": 97,
      "v": 105
    },
    {
      "midi": 41,
      "hit": false,
      "t": 58320,
      "d": 102,
      "v": 110
    },
    {
      "midi": 55,
      "hit": false,
      "t": 58560,
      "d": 171,
      "v": 98
    },
    {
      "midi": 43,
      "hit": false,
      "t": 58560,
      "d": 182,
      "v": 113
    },
    {
      "midi": 62,
      "hit": false,
      "t": 58560,
      "d": 188,
      "v": 90
    },
    {
      "midi": 58,
      "hit": false,
      "t": 58560,
      "d": 189,
      "v": 102
    },
    {
      "midi": 55,
      "hit": false,
      "t": 59520,
      "d": 213,
      "v": 113
    },
    {
      "midi": 58,
      "hit": false,
      "t": 59520,
      "d": 214,
      "v": 105
    },
    {
      "midi": 43,
      "hit": false,
      "t": 59520,
      "d": 215,
      "v": 121
    },
    {
      "midi": 62,
      "hit": false,
      "t": 59520,
      "d": 220,
      "v": 117
    },
    {
      "midi": 58,
      "hit": false,
      "t": 60240,
      "d": 101,
      "v": 102
    },
    {
      "midi": 55,
      "hit": false,
      "t": 60240,
      "d": 125,
      "v": 110
    },
    {
      "midi": 43,
      "hit": false,
      "t": 60240,
      "d": 129,
      "v": 110
    },
    {
      "midi": 62,
      "hit": false,
      "t": 60240,
      "d": 165,
      "v": 113
    },
    {
      "midi": 55,
      "hit": false,
      "t": 60480,
      "d": 119,
      "v": 113
    },
    {
      "midi": 60,
      "hit": false,
      "t": 60480,
      "d": 127,
      "v": 113
    },
    {
      "midi": 64,
      "hit": false,
      "t": 60480,
      "d": 131,
      "v": 110
    },
    {
      "midi": 48,
      "hit": false,
      "t": 60480,
      "d": 239,
      "v": 106
    },
    {
      "midi": 55,
      "hit": false,
      "t": 60720,
      "d": 56,
      "v": 113
    },
    {
      "midi": 67,
      "hit": false,
      "t": 60840,
      "d": 124,
      "v": 110
    },
    {
      "midi": 48,
      "hit": false,
      "t": 61080,
      "d": 96,
      "v": 84
    },
    {
      "midi": 55,
      "hit": false,
      "t": 61200,
      "d": 67,
      "v": 93
    },
    {
      "midi": 57,
      "hit": false,
      "t": 61440,
      "d": 187,
      "v": 98
    },
    {
      "midi": 65,
      "hit": false,
      "t": 61440,
      "d": 189,
      "v": 88
    },
    {
      "midi": 60,
      "hit": false,
      "t": 61440,
      "d": 191,
      "v": 98
    },
    {
      "midi": 41,
      "hit": false,
      "t": 61440,
      "d": 197,
      "v": 113
    },
    {
      "midi": 57,
      "hit": false,
      "t": 62160,
      "d": 100,
      "v": 95
    },
    {
      "midi": 41,
      "hit": false,
      "t": 62160,
      "d": 112,
      "v": 105
    },
    {
      "midi": 60,
      "hit": false,
      "t": 62160,
      "d": 139,
      "v": 98
    },
    {
      "midi": 65,
      "hit": false,
      "t": 62160,
      "d": 142,
      "v": 91
    },
    {
      "midi": 67,
      "hit": false,
      "t": 62400,
      "d": 120,
      "v": 110
    },
    {
      "midi": 58,
      "hit": false,
      "t": 62400,
      "d": 156,
      "v": 110
    },
    {
      "midi": 43,
      "hit": false,
      "t": 62400,
      "d": 164,
      "v": 117
    },
    {
      "midi": 62,
      "hit": false,
      "t": 62400,
      "d": 169,
      "v": 113
    },
    {
      "midi": 43,
      "hit": false,
      "t": 63360,
      "d": 114,
      "v": 121
    },
    {
      "midi": 55,
      "hit": false,
      "t": 63360,
      "d": 169,
      "v": 105
    },
    {
      "midi": 58,
      "hit": false,
      "t": 63360,
      "d": 175,
      "v": 91
    },
    {
      "midi": 62,
      "hit": false,
      "t": 63360,
      "d": 176,
      "v": 110
    },
    {
      "midi": 59,
      "hit": false,
      "t": 64080,
      "d": 102,
      "v": 105
    },
    {
      "midi": 63,
      "hit": false,
      "t": 64080,
      "d": 122,
      "v": 95
    },
    {
      "midi": 55,
      "hit": false,
      "t": 64320,
      "d": 177,
      "v": 98
    },
    {
      "midi": 48,
      "hit": false,
      "t": 64320,
      "d": 179,
      "v": 105
    },
    {
      "midi": 64,
      "hit": false,
      "t": 64320,
      "d": 186,
      "v": 95
    },
    {
      "midi": 60,
      "hit": false,
      "t": 64320,
      "d": 187,
      "v": 98
    },
    {
      "midi": 67,
      "hit": false,
      "t": 64680,
      "d": 133,
      "v": 117
    },
    {
      "midi": 55,
      "hit": false,
      "t": 65040,
      "d": 115,
      "v": 117
    },
    {
      "midi": 53,
      "hit": false,
      "t": 65280,
      "d": 117,
      "v": 102
    },
    {
      "midi": 57,
      "hit": false,
      "t": 65280,
      "d": 125,
      "v": 105
    },
    {
      "midi": 60,
      "hit": false,
      "t": 65280,
      "d": 134,
      "v": 102
    },
    {
      "midi": 41,
      "hit": false,
      "t": 65280,
      "d": 145,
      "v": 110
    },
    {
      "midi": 57,
      "hit": false,
      "t": 66000,
      "d": 79,
      "v": 98
    },
    {
      "midi": 53,
      "hit": false,
      "t": 66000,
      "d": 90,
      "v": 102
    },
    {
      "midi": 60,
      "hit": false,
      "t": 66000,
      "d": 97,
      "v": 105
    },
    {
      "midi": 41,
      "hit": false,
      "t": 66000,
      "d": 102,
      "v": 110
    },
    {
      "midi": 55,
      "hit": false,
      "t": 66240,
      "d": 171,
      "v": 98
    },
    {
      "midi": 43,
      "hit": false,
      "t": 66240,
      "d": 182,
      "v": 113
    },
    {
      "midi": 62,
      "hit": false,
      "t": 66240,
      "d": 188,
      "v": 90
    },
    {
      "midi": 58,
      "hit": false,
      "t": 66240,
      "d": 189,
      "v": 102
    },
    {
      "midi": 55,
      "hit": false,
      "t": 67200,
      "d": 213,
      "v": 113
    },
    {
      "midi": 58,
      "hit": false,
      "t": 67200,
      "d": 214,
      "v": 105
    },
    {
      "midi": 43,
      "hit": false,
      "t": 67200,
      "d": 215,
      "v": 121
    },
    {
      "midi": 62,
      "hit": false,
      "t": 67200,
      "d": 220,
      "v": 117
    },
    {
      "midi": 58,
      "hit": false,
      "t": 67920,
      "d": 101,
      "v": 102
    },
    {
      "midi": 55,
      "hit": false,
      "t": 67920,
      "d": 125,
      "v": 110
    },
    {
      "midi": 43,
      "hit": false,
      "t": 67920,
      "d": 129,
      "v": 110
    },
    {
      "midi": 62,
      "hit": false,
      "t": 67920,
      "d": 165,
      "v": 113
    },
    {
      "midi": 55,
      "hit": false,
      "t": 68160,
      "d": 119,
      "v": 113
    },
    {
      "midi": 60,
      "hit": false,
      "t": 68160,
      "d": 127,
      "v": 113
    },
    {
      "midi": 64,
      "hit": false,
      "t": 68160,
      "d": 131,
      "v": 110
    },
    {
      "midi": 48,
      "hit": false,
      "t": 68160,
      "d": 239,
      "v": 106
    },
    {
      "midi": 55,
      "hit": false,
      "t": 68400,
      "d": 56,
      "v": 113
    },
    {
      "midi": 67,
      "hit": false,
      "t": 68520,
      "d": 124,
      "v": 110
    },
    {
      "midi": 48,
      "hit": false,
      "t": 68760,
      "d": 96,
      "v": 84
    },
    {
      "midi": 55,
      "hit": false,
      "t": 68880,
      "d": 67,
      "v": 93
    },
    {
      "midi": 57,
      "hit": false,
      "t": 69120,
      "d": 187,
      "v": 98
    },
    {
      "midi": 65,
      "hit": false,
      "t": 69120,
      "d": 189,
      "v": 88
    },
    {
      "midi": 60,
      "hit": false,
      "t": 69120,
      "d": 191,
      "v": 98
    },
    {
      "midi": 41,
      "hit": false,
      "t": 69120,
      "d": 197,
      "v": 113
    },
    {
      "midi": 57,
      "hit": false,
      "t": 69840,
      "d": 100,
      "v": 95
    },
    {
      "midi": 41,
      "hit": false,
      "t": 69840,
      "d": 112,
      "v": 105
    },
    {
      "midi": 60,
      "hit": false,
      "t": 69840,
      "d": 139,
      "v": 98
    },
    {
      "midi": 65,
      "hit": false,
      "t": 69840,
      "d": 142,
      "v": 91
    },
    {
      "midi": 67,
      "hit": false,
      "t": 70080,
      "d": 120,
      "v": 110
    },
    {
      "midi": 58,
      "hit": false,
      "t": 70080,
      "d": 156,
      "v": 110
    },
    {
      "midi": 43,
      "hit": false,
      "t": 70080,
      "d": 164,
      "v": 117
    },
    {
      "midi": 62,
      "hit": false,
      "t": 70080,
      "d": 169,
      "v": 113
    },
    {
      "midi": 43,
      "hit": false,
      "t": 71040,
      "d": 114,
      "v": 121
    },
    {
      "midi": 55,
      "hit": false,
      "t": 71040,
      "d": 169,
      "v": 105
    },
    {
      "midi": 58,
      "hit": false,
      "t": 71040,
      "d": 175,
      "v": 91
    },
    {
      "midi": 62,
      "hit": false,
      "t": 71040,
      "d": 176,
      "v": 110
    },
    {
      "midi": 59,
      "hit": false,
      "t": 71760,
      "d": 102,
      "v": 105
    },
    {
      "midi": 63,
      "hit": false,
      "t": 71760,
      "d": 122,
      "v": 95
    },
    {
      "midi": 55,
      "hit": false,
      "t": 72000,
      "d": 177,
      "v": 98
    },
    {
      "midi": 48,
      "hit": false,
      "t": 72000,
      "d": 179,
      "v": 105
    },
    {
      "midi": 64,
      "hit": false,
      "t": 72000,
      "d": 186,
      "v": 95
    },
    {
      "midi": 60,
      "hit": false,
      "t": 72000,
      "d": 187,
      "v": 98
    },
    {
      "midi": 67,
      "hit": false,
      "t": 72360,
      "d": 133,
      "v": 117
    },
    {
      "midi": 55,
      "hit": false,
      "t": 72720,
      "d": 115,
      "v": 117
    },
    {
      "midi": 53,
      "hit": false,
      "t": 72960,
      "d": 117,
      "v": 102
    },
    {
      "midi": 57,
      "hit": false,
      "t": 72960,
      "d": 125,
      "v": 105
    },
    {
      "midi": 60,
      "hit": false,
      "t": 72960,
      "d": 134,
      "v": 102
    },
    {
      "midi": 41,
      "hit": false,
      "t": 72960,
      "d": 145,
      "v": 110
    },
    {
      "midi": 57,
      "hit": false,
      "t": 73680,
      "d": 79,
      "v": 98
    },
    {
      "midi": 53,
      "hit": false,
      "t": 73680,
      "d": 90,
      "v": 102
    },
    {
      "midi": 60,
      "hit": false,
      "t": 73680,
      "d": 97,
      "v": 105
    },
    {
      "midi": 41,
      "hit": false,
      "t": 73680,
      "d": 102,
      "v": 110
    },
    {
      "midi": 55,
      "hit": false,
      "t": 73920,
      "d": 171,
      "v": 98
    },
    {
      "midi": 43,
      "hit": false,
      "t": 73920,
      "d": 182,
      "v": 113
    },
    {
      "midi": 62,
      "hit": false,
      "t": 73920,
      "d": 188,
      "v": 90
    },
    {
      "midi": 58,
      "hit": false,
      "t": 73920,
      "d": 189,
      "v": 102
    },
    {
      "midi": 55,
      "hit": false,
      "t": 74880,
      "d": 213,
      "v": 113
    },
    {
      "midi": 58,
      "hit": false,
      "t": 74880,
      "d": 214,
      "v": 105
    },
    {
      "midi": 43,
      "hit": false,
      "t": 74880,
      "d": 215,
      "v": 121
    },
    {
      "midi": 62,
      "hit": false,
      "t": 74880,
      "d": 220,
      "v": 117
    },
    {
      "midi": 58,
      "hit": false,
      "t": 75600,
      "d": 101,
      "v": 102
    },
    {
      "midi": 55,
      "hit": false,
      "t": 75600,
      "d": 125,
      "v": 110
    },
    {
      "midi": 43,
      "hit": false,
      "t": 75600,
      "d": 129,
      "v": 110
    },
    {
      "midi": 62,
      "hit": false,
      "t": 75600,
      "d": 165,
      "v": 113
    },
    {
      "midi": 55,
      "hit": false,
      "t": 75840,
      "d": 119,
      "v": 113
    },
    {
      "midi": 60,
      "hit": false,
      "t": 75840,
      "d": 127,
      "v": 113
    },
    {
      "midi": 64,
      "hit": false,
      "t": 75840,
      "d": 131,
      "v": 110
    },
    {
      "midi": 48,
      "hit": false,
      "t": 75840,
      "d": 239,
      "v": 106
    },
    {
      "midi": 55,
      "hit": false,
      "t": 76080,
      "d": 56,
      "v": 113
    },
    {
      "midi": 67,
      "hit": false,
      "t": 76200,
      "d": 124,
      "v": 110
    },
    {
      "midi": 48,
      "hit": false,
      "t": 76440,
      "d": 96,
      "v": 84
    },
    {
      "midi": 55,
      "hit": false,
      "t": 76560,
      "d": 67,
      "v": 93
    },
    {
      "midi": 57,
      "hit": false,
      "t": 76800,
      "d": 187,
      "v": 98
    },
    {
      "midi": 65,
      "hit": false,
      "t": 76800,
      "d": 189,
      "v": 88
    },
    {
      "midi": 60,
      "hit": false,
      "t": 76800,
      "d": 191,
      "v": 98
    },
    {
      "midi": 41,
      "hit": false,
      "t": 76800,
      "d": 197,
      "v": 113
    },
    {
      "midi": 57,
      "hit": false,
      "t": 77520,
      "d": 100,
      "v": 95
    },
    {
      "midi": 41,
      "hit": false,
      "t": 77520,
      "d": 112,
      "v": 105
    },
    {
      "midi": 60,
      "hit": false,
      "t": 77520,
      "d": 139,
      "v": 98
    },
    {
      "midi": 65,
      "hit": false,
      "t": 77520,
      "d": 142,
      "v": 91
    },
    {
      "midi": 67,
      "hit": false,
      "t": 77760,
      "d": 120,
      "v": 110
    },
    {
      "midi": 58,
      "hit": false,
      "t": 77760,
      "d": 156,
      "v": 110
    },
    {
      "midi": 43,
      "hit": false,
      "t": 77760,
      "d": 164,
      "v": 117
    },
    {
      "midi": 62,
      "hit": false,
      "t": 77760,
      "d": 169,
      "v": 113
    },
    {
      "midi": 43,
      "hit": false,
      "t": 78720,
      "d": 114,
      "v": 121
    },
    {
      "midi": 55,
      "hit": false,
      "t": 78720,
      "d": 169,
      "v": 105
    },
    {
      "midi": 58,
      "hit": false,
      "t": 78720,
      "d": 175,
      "v": 91
    },
    {
      "midi": 62,
      "hit": false,
      "t": 78720,
      "d": 176,
      "v": 110
    },
    {
      "midi": 59,
      "hit": false,
      "t": 79440,
      "d": 102,
      "v": 105
    },
    {
      "midi": 63,
      "hit": false,
      "t": 79440,
      "d": 122,
      "v": 95
    },
    {
      "midi": 55,
      "hit": false,
      "t": 79680,
      "d": 177,
      "v": 98
    },
    {
      "midi": 48,
      "hit": false,
      "t": 79680,
      "d": 179,
      "v": 105
    },
    {
      "midi": 64,
      "hit": false,
      "t": 79680,
      "d": 186,
      "v": 95
    },
    {
      "midi": 60,
      "hit": false,
      "t": 79680,
      "d": 187,
      "v": 98
    },
    {
      "midi": 67,
      "hit": false,
      "t": 80040,
      "d": 133,
      "v": 117
    },
    {
      "midi": 55,
      "hit": false,
      "t": 80400,
      "d": 115,
      "v": 117
    },
    {
      "midi": 53,
      "hit": false,
      "t": 80640,
      "d": 117,
      "v": 102
    },
    {
      "midi": 57,
      "hit": false,
      "t": 80640,
      "d": 125,
      "v": 105
    },
    {
      "midi": 60,
      "hit": false,
      "t": 80640,
      "d": 134,
      "v": 102
    },
    {
      "midi": 41,
      "hit": false,
      "t": 80640,
      "d": 145,
      "v": 110
    },
    {
      "midi": 57,
      "hit": false,
      "t": 81360,
      "d": 79,
      "v": 98
    },
    {
      "midi": 53,
      "hit": false,
      "t": 81360,
      "d": 90,
      "v": 102
    },
    {
      "midi": 60,
      "hit": false,
      "t": 81360,
      "d": 97,
      "v": 105
    },
    {
      "midi": 41,
      "hit": false,
      "t": 81360,
      "d": 102,
      "v": 110
    },
    {
      "midi": 55,
      "hit": false,
      "t": 81600,
      "d": 171,
      "v": 98
    },
    {
      "midi": 43,
      "hit": false,
      "t": 81600,
      "d": 182,
      "v": 113
    },
    {
      "midi": 62,
      "hit": false,
      "t": 81600,
      "d": 188,
      "v": 90
    },
    {
      "midi": 58,
      "hit": false,
      "t": 81600,
      "d": 189,
      "v": 102
    },
    {
      "midi": 55,
      "hit": false,
      "t": 82560,
      "d": 213,
      "v": 113
    },
    {
      "midi": 58,
      "hit": false,
      "t": 82560,
      "d": 214,
      "v": 105
    },
    {
      "midi": 43,
      "hit": false,
      "t": 82560,
      "d": 215,
      "v": 121
    },
    {
      "midi": 62,
      "hit": false,
      "t": 82560,
      "d": 220,
      "v": 117
    },
    {
      "midi": 58,
      "hit": false,
      "t": 83280,
      "d": 101,
      "v": 102
    },
    {
      "midi": 55,
      "hit": false,
      "t": 83280,
      "d": 125,
      "v": 110
    },
    {
      "midi": 43,
      "hit": false,
      "t": 83280,
      "d": 129,
      "v": 110
    },
    {
      "midi": 62,
      "hit": false,
      "t": 83280,
      "d": 165,
      "v": 113
    },
    {
      "midi": 55,
      "hit": false,
      "t": 83520,
      "d": 119,
      "v": 113
    },
    {
      "midi": 60,
      "hit": false,
      "t": 83520,
      "d": 127,
      "v": 113
    },
    {
      "midi": 64,
      "hit": false,
      "t": 83520,
      "d": 131,
      "v": 110
    },
    {
      "midi": 48,
      "hit": false,
      "t": 83520,
      "d": 239,
      "v": 106
    },
    {
      "midi": 55,
      "hit": false,
      "t": 83760,
      "d": 56,
      "v": 113
    },
    {
      "midi": 67,
      "hit": false,
      "t": 83880,
      "d": 124,
      "v": 110
    },
    {
      "midi": 48,
      "hit": false,
      "t": 84120,
      "d": 96,
      "v": 84
    },
    {
      "midi": 55,
      "hit": false,
      "t": 84240,
      "d": 67,
      "v": 93
    },
    {
      "midi": 57,
      "hit": false,
      "t": 84480,
      "d": 187,
      "v": 98
    },
    {
      "midi": 65,
      "hit": false,
      "t": 84480,
      "d": 189,
      "v": 88
    },
    {
      "midi": 60,
      "hit": false,
      "t": 84480,
      "d": 191,
      "v": 98
    },
    {
      "midi": 41,
      "hit": false,
      "t": 84480,
      "d": 197,
      "v": 113
    },
    {
      "midi": 57,
      "hit": false,
      "t": 85200,
      "d": 100,
      "v": 95
    },
    {
      "midi": 41,
      "hit": false,
      "t": 85200,
      "d": 112,
      "v": 105
    },
    {
      "midi": 60,
      "hit": false,
      "t": 85200,
      "d": 139,
      "v": 98
    },
    {
      "midi": 65,
      "hit": false,
      "t": 85200,
      "d": 142,
      "v": 91
    },
    {
      "midi": 67,
      "hit": false,
      "t": 85440,
      "d": 120,
      "v": 110
    },
    {
      "midi": 58,
      "hit": false,
      "t": 85440,
      "d": 156,
      "v": 110
    },
    {
      "midi": 43,
      "hit": false,
      "t": 85440,
      "d": 164,
      "v": 117
    },
    {
      "midi": 62,
      "hit": false,
      "t": 85440,
      "d": 169,
      "v": 113
    },
    {
      "midi": 43,
      "hit": false,
      "t": 86400,
      "d": 114,
      "v": 121
    },
    {
      "midi": 55,
      "hit": false,
      "t": 86400,
      "d": 169,
      "v": 105
    },
    {
      "midi": 58,
      "hit": false,
      "t": 86400,
      "d": 175,
      "v": 91
    },
    {
      "midi": 62,
      "hit": false,
      "t": 86400,
      "d": 176,
      "v": 110
    },
    {
      "midi": 59,
      "hit": false,
      "t": 87120,
      "d": 102,
      "v": 105
    },
    {
      "midi": 63,
      "hit": false,
      "t": 87120,
      "d": 122,
      "v": 95
    },
    {
      "midi": 55,
      "hit": false,
      "t": 87360,
      "d": 177,
      "v": 98
    },
    {
      "midi": 48,
      "hit": false,
      "t": 87360,
      "d": 179,
      "v": 105
    },
    {
      "midi": 64,
      "hit": false,
      "t": 87360,
      "d": 186,
      "v": 95
    },
    {
      "midi": 60,
      "hit": false,
      "t": 87360,
      "d": 187,
      "v": 98
    },
    {
      "midi": 67,
      "hit": false,
      "t": 87720,
      "d": 133,
      "v": 117
    },
    {
      "midi": 55,
      "hit": false,
      "t": 88080,
      "d": 115,
      "v": 117
    },
    {
      "midi": 53,
      "hit": false,
      "t": 88320,
      "d": 117,
      "v": 102
    },
    {
      "midi": 57,
      "hit": false,
      "t": 88320,
      "d": 125,
      "v": 105
    },
    {
      "midi": 60,
      "hit": false,
      "t": 88320,
      "d": 134,
      "v": 102
    },
    {
      "midi": 41,
      "hit": false,
      "t": 88320,
      "d": 145,
      "v": 110
    },
    {
      "midi": 57,
      "hit": false,
      "t": 89040,
      "d": 79,
      "v": 98
    },
    {
      "midi": 53,
      "hit": false,
      "t": 89040,
      "d": 90,
      "v": 102
    },
    {
      "midi": 60,
      "hit": false,
      "t": 89040,
      "d": 97,
      "v": 105
    },
    {
      "midi": 41,
      "hit": false,
      "t": 89040,
      "d": 102,
      "v": 110
    },
    {
      "midi": 55,
      "hit": false,
      "t": 89280,
      "d": 171,
      "v": 98
    },
    {
      "midi": 43,
      "hit": false,
      "t": 89280,
      "d": 182,
      "v": 113
    },
    {
      "midi": 62,
      "hit": false,
      "t": 89280,
      "d": 188,
      "v": 90
    },
    {
      "midi": 58,
      "hit": false,
      "t": 89280,
      "d": 189,
      "v": 102
    },
    {
      "midi": 55,
      "hit": false,
      "t": 90240,
      "d": 213,
      "v": 113
    },
    {
      "midi": 58,
      "hit": false,
      "t": 90240,
      "d": 214,
      "v": 105
    },
    {
      "midi": 43,
      "hit": false,
      "t": 90240,
      "d": 215,
      "v": 121
    },
    {
      "midi": 62,
      "hit": false,
      "t": 90240,
      "d": 220,
      "v": 117
    },
    {
      "midi": 58,
      "hit": false,
      "t": 90960,
      "d": 101,
      "v": 102
    },
    {
      "midi": 55,
      "hit": false,
      "t": 90960,
      "d": 125,
      "v": 110
    },
    {
      "midi": 43,
      "hit": false,
      "t": 90960,
      "d": 129,
      "v": 110
    },
    {
      "midi": 62,
      "hit": false,
      "t": 90960,
      "d": 165,
      "v": 113
    },
    {
      "midi": 55,
      "hit": false,
      "t": 91200,
      "d": 119,
      "v": 113
    },
    {
      "midi": 60,
      "hit": false,
      "t": 91200,
      "d": 127,
      "v": 113
    },
    {
      "midi": 64,
      "hit": false,
      "t": 91200,
      "d": 131,
      "v": 110
    },
    {
      "midi": 48,
      "hit": false,
      "t": 91200,
      "d": 239,
      "v": 106
    },
    {
      "midi": 55,
      "hit": false,
      "t": 91440,
      "d": 56,
      "v": 113
    },
    {
      "midi": 67,
      "hit": false,
      "t": 91560,
      "d": 124,
      "v": 110
    },
    {
      "midi": 48,
      "hit": false,
      "t": 91800,
      "d": 96,
      "v": 84
    },
    {
      "midi": 55,
      "hit": false,
      "t": 91920,
      "d": 67,
      "v": 93
    },
    {
      "midi": 57,
      "hit": false,
      "t": 92160,
      "d": 187,
      "v": 98
    },
    {
      "midi": 65,
      "hit": false,
      "t": 92160,
      "d": 189,
      "v": 88
    },
    {
      "midi": 60,
      "hit": false,
      "t": 92160,
      "d": 191,
      "v": 98
    },
    {
      "midi": 41,
      "hit": false,
      "t": 92160,
      "d": 197,
      "v": 113
    },
    {
      "midi": 57,
      "hit": false,
      "t": 92880,
      "d": 100,
      "v": 95
    },
    {
      "midi": 41,
      "hit": false,
      "t": 92880,
      "d": 112,
      "v": 105
    },
    {
      "midi": 60,
      "hit": false,
      "t": 92880,
      "d": 139,
      "v": 98
    },
    {
      "midi": 65,
      "hit": false,
      "t": 92880,
      "d": 142,
      "v": 91
    },
    {
      "midi": 67,
      "hit": false,
      "t": 93120,
      "d": 120,
      "v": 110
    },
    {
      "midi": 58,
      "hit": false,
      "t": 93120,
      "d": 156,
      "v": 110
    },
    {
      "midi": 43,
      "hit": false,
      "t": 93120,
      "d": 164,
      "v": 117
    },
    {
      "midi": 62,
      "hit": false,
      "t": 93120,
      "d": 169,
      "v": 113
    },
    {
      "midi": 43,
      "hit": false,
      "t": 94080,
      "d": 114,
      "v": 121
    },
    {
      "midi": 55,
      "hit": false,
      "t": 94080,
      "d": 169,
      "v": 105
    },
    {
      "midi": 58,
      "hit": false,
      "t": 94080,
      "d": 175,
      "v": 91
    },
    {
      "midi": 62,
      "hit": false,
      "t": 94080,
      "d": 176,
      "v": 110
    },
    {
      "midi": 59,
      "hit": false,
      "t": 94800,
      "d": 102,
      "v": 105
    },
    {
      "midi": 63,
      "hit": false,
      "t": 94800,
      "d": 122,
      "v": 95
    },
    {
      "midi": 55,
      "hit": false,
      "t": 95040,
      "d": 177,
      "v": 98
    },
    {
      "midi": 48,
      "hit": false,
      "t": 95040,
      "d": 179,
      "v": 105
    },
    {
      "midi": 64,
      "hit": false,
      "t": 95040,
      "d": 186,
      "v": 95
    },
    {
      "midi": 60,
      "hit": false,
      "t": 95040,
      "d": 187,
      "v": 98
    },
    {
      "midi": 67,
      "hit": false,
      "t": 95400,
      "d": 133,
      "v": 117
    },
    {
      "midi": 55,
      "hit": false,
      "t": 95760,
      "d": 115,
      "v": 117
    },
    {
      "midi": 53,
      "hit": false,
      "t": 96000,
      "d": 117,
      "v": 102
    },
    {
      "midi": 57,
      "hit": false,
      "t": 96000,
      "d": 125,
      "v": 105
    },
    {
      "midi": 60,
      "hit": false,
      "t": 96000,
      "d": 134,
      "v": 102
    },
    {
      "midi": 41,
      "hit": false,
      "t": 96000,
      "d": 145,
      "v": 110
    },
    {
      "midi": 57,
      "hit": false,
      "t": 96720,
      "d": 79,
      "v": 98
    },
    {
      "midi": 53,
      "hit": false,
      "t": 96720,
      "d": 90,
      "v": 102
    },
    {
      "midi": 60,
      "hit": false,
      "t": 96720,
      "d": 97,
      "v": 105
    },
    {
      "midi": 41,
      "hit": false,
      "t": 96720,
      "d": 102,
      "v": 110
    },
    {
      "midi": 55,
      "hit": false,
      "t": 96960,
      "d": 171,
      "v": 98
    },
    {
      "midi": 43,
      "hit": false,
      "t": 96960,
      "d": 182,
      "v": 113
    },
    {
      "midi": 62,
      "hit": false,
      "t": 96960,
      "d": 188,
      "v": 90
    },
    {
      "midi": 58,
      "hit": false,
      "t": 96960,
      "d": 189,
      "v": 102
    },
    {
      "midi": 55,
      "hit": false,
      "t": 97920,
      "d": 213,
      "v": 113
    },
    {
      "midi": 58,
      "hit": false,
      "t": 97920,
      "d": 214,
      "v": 105
    },
    {
      "midi": 43,
      "hit": false,
      "t": 97920,
      "d": 215,
      "v": 121
    },
    {
      "midi": 62,
      "hit": false,
      "t": 97920,
      "d": 220,
      "v": 117
    },
    {
      "midi": 58,
      "hit": false,
      "t": 98640,
      "d": 101,
      "v": 102
    },
    {
      "midi": 55,
      "hit": false,
      "t": 98640,
      "d": 125,
      "v": 110
    },
    {
      "midi": 43,
      "hit": false,
      "t": 98640,
      "d": 129,
      "v": 110
    },
    {
      "midi": 62,
      "hit": false,
      "t": 98640,
      "d": 165,
      "v": 113
    },
    {
      "midi": 55,
      "hit": false,
      "t": 98880,
      "d": 119,
      "v": 113
    },
    {
      "midi": 60,
      "hit": false,
      "t": 98880,
      "d": 127,
      "v": 113
    },
    {
      "midi": 64,
      "hit": false,
      "t": 98880,
      "d": 131,
      "v": 110
    },
    {
      "midi": 48,
      "hit": false,
      "t": 98880,
      "d": 239,
      "v": 106
    },
    {
      "midi": 55,
      "hit": false,
      "t": 99120,
      "d": 56,
      "v": 113
    },
    {
      "midi": 67,
      "hit": false,
      "t": 99240,
      "d": 124,
      "v": 110
    },
    {
      "midi": 48,
      "hit": false,
      "t": 99480,
      "d": 96,
      "v": 84
    },
    {
      "midi": 55,
      "hit": false,
      "t": 99600,
      "d": 67,
      "v": 93
    },
    {
      "midi": 57,
      "hit": false,
      "t": 99840,
      "d": 187,
      "v": 98
    },
    {
      "midi": 65,
      "hit": false,
      "t": 99840,
      "d": 189,
      "v": 88
    },
    {
      "midi": 60,
      "hit": false,
      "t": 99840,
      "d": 191,
      "v": 98
    },
    {
      "midi": 41,
      "hit": false,
      "t": 99840,
      "d": 197,
      "v": 113
    },
    {
      "midi": 57,
      "hit": false,
      "t": 100560,
      "d": 100,
      "v": 95
    },
    {
      "midi": 41,
      "hit": false,
      "t": 100560,
      "d": 112,
      "v": 105
    },
    {
      "midi": 60,
      "hit": false,
      "t": 100560,
      "d": 139,
      "v": 98
    },
    {
      "midi": 65,
      "hit": false,
      "t": 100560,
      "d": 142,
      "v": 91
    },
    {
      "midi": 67,
      "hit": false,
      "t": 100800,
      "d": 120,
      "v": 110
    },
    {
      "midi": 58,
      "hit": false,
      "t": 100800,
      "d": 156,
      "v": 110
    },
    {
      "midi": 43,
      "hit": false,
      "t": 100800,
      "d": 164,
      "v": 117
    },
    {
      "midi": 62,
      "hit": false,
      "t": 100800,
      "d": 169,
      "v": 113
    },
    {
      "midi": 43,
      "hit": false,
      "t": 101760,
      "d": 114,
      "v": 121
    },
    {
      "midi": 55,
      "hit": false,
      "t": 101760,
      "d": 169,
      "v": 105
    },
    {
      "midi": 58,
      "hit": false,
      "t": 101760,
      "d": 175,
      "v": 91
    },
    {
      "midi": 62,
      "hit": false,
      "t": 101760,
      "d": 176,
      "v": 110
    },
    {
      "midi": 59,
      "hit": false,
      "t": 102480,
      "d": 102,
      "v": 105
    },
    {
      "midi": 63,
      "hit": false,
      "t": 102480,
      "d": 122,
      "v": 95
    },
    {
      "midi": 55,
      "hit": false,
      "t": 102720,
      "d": 177,
      "v": 98
    },
    {
      "midi": 48,
      "hit": false,
      "t": 102720,
      "d": 179,
      "v": 105
    },
    {
      "midi": 64,
      "hit": false,
      "t": 102720,
      "d": 186,
      "v": 95
    },
    {
      "midi": 60,
      "hit": false,
      "t": 102720,
      "d": 187,
      "v": 98
    },
    {
      "midi": 67,
      "hit": false,
      "t": 103080,
      "d": 133,
      "v": 117
    },
    {
      "midi": 55,
      "hit": false,
      "t": 103440,
      "d": 115,
      "v": 117
    },
    {
      "midi": 53,
      "hit": false,
      "t": 103680,
      "d": 117,
      "v": 102
    },
    {
      "midi": 57,
      "hit": false,
      "t": 103680,
      "d": 125,
      "v": 105
    },
    {
      "midi": 60,
      "hit": false,
      "t": 103680,
      "d": 134,
      "v": 102
    },
    {
      "midi": 41,
      "hit": false,
      "t": 103680,
      "d": 145,
      "v": 110
    },
    {
      "midi": 57,
      "hit": false,
      "t": 104400,
      "d": 79,
      "v": 98
    },
    {
      "midi": 53,
      "hit": false,
      "t": 104400,
      "d": 90,
      "v": 102
    },
    {
      "midi": 60,
      "hit": false,
      "t": 104400,
      "d": 97,
      "v": 105
    },
    {
      "midi": 41,
      "hit": false,
      "t": 104400,
      "d": 102,
      "v": 110
    },
    {
      "midi": 55,
      "hit": false,
      "t": 104640,
      "d": 171,
      "v": 98
    },
    {
      "midi": 43,
      "hit": false,
      "t": 104640,
      "d": 182,
      "v": 113
    },
    {
      "midi": 62,
      "hit": false,
      "t": 104640,
      "d": 188,
      "v": 90
    },
    {
      "midi": 58,
      "hit": false,
      "t": 104640,
      "d": 189,
      "v": 102
    },
    {
      "midi": 55,
      "hit": false,
      "t": 105600,
      "d": 213,
      "v": 113
    },
    {
      "midi": 58,
      "hit": false,
      "t": 105600,
      "d": 214,
      "v": 105
    },
    {
      "midi": 43,
      "hit": false,
      "t": 105600,
      "d": 215,
      "v": 121
    },
    {
      "midi": 62,
      "hit": false,
      "t": 105600,
      "d": 220,
      "v": 117
    },
    {
      "midi": 58,
      "hit": false,
      "t": 106320,
      "d": 101,
      "v": 102
    },
    {
      "midi": 55,
      "hit": false,
      "t": 106320,
      "d": 125,
      "v": 110
    },
    {
      "midi": 43,
      "hit": false,
      "t": 106320,
      "d": 129,
      "v": 110
    },
    {
      "midi": 62,
      "hit": false,
      "t": 106320,
      "d": 165,
      "v": 113
    },
    {
      "midi": 55,
      "hit": false,
      "t": 106560,
      "d": 119,
      "v": 113
    },
    {
      "midi": 60,
      "hit": false,
      "t": 106560,
      "d": 127,
      "v": 113
    },
    {
      "midi": 64,
      "hit": false,
      "t": 106560,
      "d": 131,
      "v": 110
    },
    {
      "midi": 48,
      "hit": false,
      "t": 106560,
      "d": 239,
      "v": 106
    },
    {
      "midi": 55,
      "hit": false,
      "t": 106800,
      "d": 56,
      "v": 113
    },
    {
      "midi": 67,
      "hit": false,
      "t": 106920,
      "d": 124,
      "v": 110
    },
    {
      "midi": 48,
      "hit": false,
      "t": 107160,
      "d": 96,
      "v": 84
    },
    {
      "midi": 55,
      "hit": false,
      "t": 107280,
      "d": 67,
      "v": 93
    },
    {
      "midi": 57,
      "hit": false,
      "t": 107520,
      "d": 187,
      "v": 98
    },
    {
      "midi": 65,
      "hit": false,
      "t": 107520,
      "d": 189,
      "v": 88
    },
    {
      "midi": 60,
      "hit": false,
      "t": 107520,
      "d": 191,
      "v": 98
    },
    {
      "midi": 41,
      "hit": false,
      "t": 107520,
      "d": 197,
      "v": 113
    },
    {
      "midi": 57,
      "hit": false,
      "t": 108240,
      "d": 100,
      "v": 95
    },
    {
      "midi": 41,
      "hit": false,
      "t": 108240,
      "d": 112,
      "v": 105
    },
    {
      "midi": 60,
      "hit": false,
      "t": 108240,
      "d": 139,
      "v": 98
    },
    {
      "midi": 65,
      "hit": false,
      "t": 108240,
      "d": 142,
      "v": 91
    },
    {
      "midi": 67,
      "hit": false,
      "t": 108480,
      "d": 120,
      "v": 110
    },
    {
      "midi": 58,
      "hit": false,
      "t": 108480,
      "d": 156,
      "v": 110
    },
    {
      "midi": 43,
      "hit": false,
      "t": 108480,
      "d": 164,
      "v": 117
    },
    {
      "midi": 62,
      "hit": false,
      "t": 108480,
      "d": 169,
      "v": 113
    },
    {
      "midi": 43,
      "hit": false,
      "t": 109440,
      "d": 114,
      "v": 121
    },
    {
      "midi": 55,
      "hit": false,
      "t": 109440,
      "d": 169,
      "v": 105
    },
    {
      "midi": 58,
      "hit": false,
      "t": 109440,
      "d": 175,
      "v": 91
    },
    {
      "midi": 62,
      "hit": false,
      "t": 109440,
      "d": 176,
      "v": 110
    },
    {
      "midi": 59,
      "hit": false,
      "t": 110160,
      "d": 102,
      "v": 105
    },
    {
      "midi": 63,
      "hit": false,
      "t": 110160,
      "d": 122,
      "v": 95
    },
    {
      "midi": 55,
      "hit": false,
      "t": 110400,
      "d": 177,
      "v": 98
    },
    {
      "midi": 48,
      "hit": false,
      "t": 110400,
      "d": 179,
      "v": 105
    },
    {
      "midi": 64,
      "hit": false,
      "t": 110400,
      "d": 186,
      "v": 95
    },
    {
      "midi": 60,
      "hit": false,
      "t": 110400,
      "d": 187,
      "v": 98
    },
    {
      "midi": 67,
      "hit": false,
      "t": 110760,
      "d": 133,
      "v": 117
    },
    {
      "midi": 55,
      "hit": false,
      "t": 111120,
      "d": 115,
      "v": 117
    },
    {
      "midi": 53,
      "hit": false,
      "t": 111360,
      "d": 117,
      "v": 102
    },
    {
      "midi": 57,
      "hit": false,
      "t": 111360,
      "d": 125,
      "v": 105
    },
    {
      "midi": 60,
      "hit": false,
      "t": 111360,
      "d": 134,
      "v": 102
    },
    {
      "midi": 41,
      "hit": false,
      "t": 111360,
      "d": 145,
      "v": 110
    },
    {
      "midi": 57,
      "hit": false,
      "t": 112080,
      "d": 79,
      "v": 98
    },
    {
      "midi": 53,
      "hit": false,
      "t": 112080,
      "d": 90,
      "v": 102
    },
    {
      "midi": 60,
      "hit": false,
      "t": 112080,
      "d": 97,
      "v": 105
    },
    {
      "midi": 41,
      "hit": false,
      "t": 112080,
      "d": 102,
      "v": 110
    },
    {
      "midi": 55,
      "hit": false,
      "t": 112320,
      "d": 171,
      "v": 98
    },
    {
      "midi": 43,
      "hit": false,
      "t": 112320,
      "d": 182,
      "v": 113
    },
    {
      "midi": 62,
      "hit": false,
      "t": 112320,
      "d": 188,
      "v": 90
    },
    {
      "midi": 58,
      "hit": false,
      "t": 112320,
      "d": 189,
      "v": 102
    },
    {
      "midi": 55,
      "hit": false,
      "t": 113280,
      "d": 213,
      "v": 113
    },
    {
      "midi": 58,
      "hit": false,
      "t": 113280,
      "d": 214,
      "v": 105
    },
    {
      "midi": 43,
      "hit": false,
      "t": 113280,
      "d": 215,
      "v": 121
    },
    {
      "midi": 62,
      "hit": false,
      "t": 113280,
      "d": 220,
      "v": 117
    },
    {
      "midi": 58,
      "hit": false,
      "t": 114000,
      "d": 101,
      "v": 102
    },
    {
      "midi": 55,
      "hit": false,
      "t": 114000,
      "d": 125,
      "v": 110
    },
    {
      "midi": 43,
      "hit": false,
      "t": 114000,
      "d": 129,
      "v": 110
    },
    {
      "midi": 62,
      "hit": false,
      "t": 114000,
      "d": 165,
      "v": 113
    },
    {
      "midi": 55,
      "hit": false,
      "t": 114240,
      "d": 119,
      "v": 113
    },
    {
      "midi": 60,
      "hit": false,
      "t": 114240,
      "d": 127,
      "v": 113
    },
    {
      "midi": 64,
      "hit": false,
      "t": 114240,
      "d": 131,
      "v": 110
    },
    {
      "midi": 48,
      "hit": false,
      "t": 114240,
      "d": 239,
      "v": 106
    },
    {
      "midi": 55,
      "hit": false,
      "t": 114480,
      "d": 56,
      "v": 113
    },
    {
      "midi": 67,
      "hit": false,
      "t": 114600,
      "d": 124,
      "v": 110
    },
    {
      "midi": 48,
      "hit": false,
      "t": 114840,
      "d": 96,
      "v": 84
    },
    {
      "midi": 55,
      "hit": false,
      "t": 114960,
      "d": 67,
      "v": 93
    },
    {
      "midi": 57,
      "hit": false,
      "t": 115200,
      "d": 187,
      "v": 98
    },
    {
      "midi": 65,
      "hit": false,
      "t": 115200,
      "d": 189,
      "v": 88
    },
    {
      "midi": 60,
      "hit": false,
      "t": 115200,
      "d": 191,
      "v": 98
    },
    {
      "midi": 41,
      "hit": false,
      "t": 115200,
      "d": 197,
      "v": 113
    },
    {
      "midi": 57,
      "hit": false,
      "t": 115920,
      "d": 100,
      "v": 95
    },
    {
      "midi": 41,
      "hit": false,
      "t": 115920,
      "d": 112,
      "v": 105
    },
    {
      "midi": 60,
      "hit": false,
      "t": 115920,
      "d": 139,
      "v": 98
    },
    {
      "midi": 65,
      "hit": false,
      "t": 115920,
      "d": 142,
      "v": 91
    },
    {
      "midi": 67,
      "hit": false,
      "t": 116160,
      "d": 120,
      "v": 110
    },
    {
      "midi": 58,
      "hit": false,
      "t": 116160,
      "d": 156,
      "v": 110
    },
    {
      "midi": 43,
      "hit": false,
      "t": 116160,
      "d": 164,
      "v": 117
    },
    {
      "midi": 62,
      "hit": false,
      "t": 116160,
      "d": 169,
      "v": 113
    },
    {
      "midi": 43,
      "hit": false,
      "t": 117120,
      "d": 114,
      "v": 121
    },
    {
      "midi": 55,
      "hit": false,
      "t": 117120,
      "d": 169,
      "v": 105
    },
    {
      "midi": 58,
      "hit": false,
      "t": 117120,
      "d": 175,
      "v": 91
    },
    {
      "midi": 62,
      "hit": false,
      "t": 117120,
      "d": 176,
      "v": 110
    },
    {
      "midi": 59,
      "hit": false,
      "t": 117840,
      "d": 102,
      "v": 105
    },
    {
      "midi": 63,
      "hit": false,
      "t": 117840,
      "d": 122,
      "v": 95
    },
    {
      "midi": 55,
      "hit": false,
      "t": 118080,
      "d": 177,
      "v": 98
    },
    {
      "midi": 48,
      "hit": false,
      "t": 118080,
      "d": 179,
      "v": 105
    },
    {
      "midi": 64,
      "hit": false,
      "t": 118080,
      "d": 186,
      "v": 95
    },
    {
      "midi": 60,
      "hit": false,
      "t": 118080,
      "d": 187,
      "v": 98
    },
    {
      "midi": 67,
      "hit": false,
      "t": 118440,
      "d": 133,
      "v": 117
    },
    {
      "midi": 55,
      "hit": false,
      "t": 118800,
      "d": 115,
      "v": 117
    },
    {
      "midi": 53,
      "hit": false,
      "t": 119040,
      "d": 117,
      "v": 102
    },
    {
      "midi": 57,
      "hit": false,
      "t": 119040,
      "d": 125,
      "v": 105
    },
    {
      "midi": 60,
      "hit": false,
      "t": 119040,
      "d": 134,
      "v": 102
    },
    {
      "midi": 41,
      "hit": false,
      "t": 119040,
      "d": 145,
      "v": 110
    },
    {
      "midi": 55,
      "hit": false,
      "t": 120960,
      "d": 213,
      "v": 113
    },
    {
      "midi": 58,
      "hit": false,
      "t": 120960,
      "d": 214,
      "v": 105
    },
    {
      "midi": 43,
      "hit": false,
      "t": 120960,
      "d": 215,
      "v": 121
    },
    {
      "midi": 62,
      "hit": false,
      "t": 120960,
      "d": 220,
      "v": 117
    },
    {
      "midi": 58,
      "hit": false,
      "t": 121680,
      "d": 101,
      "v": 102
    },
    {
      "midi": 55,
      "hit": false,
      "t": 121680,
      "d": 125,
      "v": 110
    },
    {
      "midi": 43,
      "hit": false,
      "t": 121680,
      "d": 129,
      "v": 110
    },
    {
      "midi": 62,
      "hit": false,
      "t": 121680,
      "d": 165,
      "v": 113
    },
    {
      "midi": 55,
      "hit": false,
      "t": 121920,
      "d": 119,
      "v": 113
    },
    {
      "midi": 60,
      "hit": false,
      "t": 121920,
      "d": 127,
      "v": 113
    },
    {
      "midi": 64,
      "hit": false,
      "t": 121920,
      "d": 131,
      "v": 110
    },
    {
      "midi": 48,
      "hit": false,
      "t": 121920,
      "d": 239,
      "v": 106
    },
    {
      "midi": 55,
      "hit": false,
      "t": 122160,
      "d": 56,
      "v": 113
    },
    {
      "midi": 67,
      "hit": false,
      "t": 122280,
      "d": 124,
      "v": 110
    },
    {
      "midi": 48,
      "hit": false,
      "t": 122520,
      "d": 96,
      "v": 84
    },
    {
      "midi": 55,
      "hit": false,
      "t": 122640,
      "d": 67,
      "v": 93
    },
    {
      "midi": 57,
      "hit": false,
      "t": 122880,
      "d": 187,
      "v": 98
    },
    {
      "midi": 65,
      "hit": false,
      "t": 122880,
      "d": 189,
      "v": 88
    },
    {
      "midi": 60,
      "hit": false,
      "t": 122880,
      "d": 191,
      "v": 98
    },
    {
      "midi": 41,
      "hit": false,
      "t": 122880,
      "d": 197,
      "v": 113
    },
    {
      "midi": 57,
      "hit": false,
      "t": 123600,
      "d": 100,
      "v": 95
    },
    {
      "midi": 41,
      "hit": false,
      "t": 123600,
      "d": 112,
      "v": 105
    },
    {
      "midi": 60,
      "hit": false,
      "t": 123600,
      "d": 139,
      "v": 98
    },
    {
      "midi": 65,
      "hit": false,
      "t": 123600,
      "d": 142,
      "v": 91
    },
    {
      "midi": 67,
      "hit": false,
      "t": 123840,
      "d": 120,
      "v": 110
    },
    {
      "midi": 58,
      "hit": false,
      "t": 123840,
      "d": 156,
      "v": 110
    },
    {
      "midi": 43,
      "hit": false,
      "t": 123840,
      "d": 164,
      "v": 117
    },
    {
      "midi": 62,
      "hit": false,
      "t": 123840,
      "d": 169,
      "v": 113
    },
    {
      "midi": 43,
      "hit": false,
      "t": 124800,
      "d": 114,
      "v": 121
    },
    {
      "midi": 55,
      "hit": false,
      "t": 124800,
      "d": 169,
      "v": 105
    },
    {
      "midi": 58,
      "hit": false,
      "t": 124800,
      "d": 175,
      "v": 91
    },
    {
      "midi": 62,
      "hit": false,
      "t": 124800,
      "d": 176,
      "v": 110
    },
    {
      "midi": 59,
      "hit": false,
      "t": 125520,
      "d": 102,
      "v": 105
    },
    {
      "midi": 63,
      "hit": false,
      "t": 125520,
      "d": 122,
      "v": 95
    },
    {
      "midi": 55,
      "hit": false,
      "t": 125760,
      "d": 177,
      "v": 98
    },
    {
      "midi": 48,
      "hit": false,
      "t": 125760,
      "d": 179,
      "v": 105
    },
    {
      "midi": 64,
      "hit": false,
      "t": 125760,
      "d": 186,
      "v": 95
    },
    {
      "midi": 60,
      "hit": false,
      "t": 125760,
      "d": 187,
      "v": 98
    },
    {
      "midi": 67,
      "hit": false,
      "t": 126120,
      "d": 133,
      "v": 117
    },
    {
      "midi": 55,
      "hit": false,
      "t": 126480,
      "d": 115,
      "v": 117
    },
    {
      "midi": 53,
      "hit": false,
      "t": 126720,
      "d": 117,
      "v": 102
    },
    {
      "midi": 57,
      "hit": false,
      "t": 126720,
      "d": 125,
      "v": 105
    },
    {
      "midi": 60,
      "hit": false,
      "t": 126720,
      "d": 134,
      "v": 102
    },
    {
      "midi": 41,
      "hit": false,
      "t": 126720,
      "d": 145,
      "v": 110
    },
    {
      "midi": 57,
      "hit": false,
      "t": 127440,
      "d": 79,
      "v": 98
    },
    {
      "midi": 53,
      "hit": false,
      "t": 127440,
      "d": 90,
      "v": 102
    },
    {
      "midi": 60,
      "hit": false,
      "t": 127440,
      "d": 97,
      "v": 105
    },
    {
      "midi": 41,
      "hit": false,
      "t": 127440,
      "d": 102,
      "v": 110
    },
    {
      "midi": 55,
      "hit": false,
      "t": 127680,
      "d": 171,
      "v": 98
    },
    {
      "midi": 43,
      "hit": false,
      "t": 127680,
      "d": 182,
      "v": 113
    },
    {
      "midi": 62,
      "hit": false,
      "t": 127680,
      "d": 188,
      "v": 90
    },
    {
      "midi": 58,
      "hit": false,
      "t": 127680,
      "d": 189,
      "v": 102
    },
    {
      "midi": 55,
      "hit": false,
      "t": 128640,
      "d": 213,
      "v": 113
    },
    {
      "midi": 58,
      "hit": false,
      "t": 128640,
      "d": 214,
      "v": 105
    },
    {
      "midi": 43,
      "hit": false,
      "t": 128640,
      "d": 215,
      "v": 121
    },
    {
      "midi": 62,
      "hit": false,
      "t": 128640,
      "d": 220,
      "v": 117
    },
    {
      "midi": 58,
      "hit": false,
      "t": 129360,
      "d": 101,
      "v": 102
    },
    {
      "midi": 55,
      "hit": false,
      "t": 129360,
      "d": 125,
      "v": 110
    },
    {
      "midi": 43,
      "hit": false,
      "t": 129360,
      "d": 129,
      "v": 110
    },
    {
      "midi": 62,
      "hit": false,
      "t": 129360,
      "d": 165,
      "v": 113
    },
    {
      "midi": 55,
      "hit": false,
      "t": 129600,
      "d": 119,
      "v": 113
    },
    {
      "midi": 60,
      "hit": false,
      "t": 129600,
      "d": 127,
      "v": 113
    },
    {
      "midi": 64,
      "hit": false,
      "t": 129600,
      "d": 131,
      "v": 110
    },
    {
      "midi": 48,
      "hit": false,
      "t": 129600,
      "d": 239,
      "v": 106
    },
    {
      "midi": 55,
      "hit": false,
      "t": 129840,
      "d": 56,
      "v": 113
    },
    {
      "midi": 67,
      "hit": false,
      "t": 129960,
      "d": 124,
      "v": 110
    },
    {
      "midi": 48,
      "hit": false,
      "t": 130200,
      "d": 96,
      "v": 84
    },
    {
      "midi": 55,
      "hit": false,
      "t": 130320,
      "d": 67,
      "v": 93
    },
    {
      "midi": 57,
      "hit": false,
      "t": 130560,
      "d": 187,
      "v": 98
    },
    {
      "midi": 65,
      "hit": false,
      "t": 130560,
      "d": 189,
      "v": 88
    },
    {
      "midi": 60,
      "hit": false,
      "t": 130560,
      "d": 191,
      "v": 98
    },
    {
      "midi": 41,
      "hit": false,
      "t": 130560,
      "d": 197,
      "v": 113
    },
    {
      "midi": 57,
      "hit": false,
      "t": 131280,
      "d": 100,
      "v": 95
    },
    {
      "midi": 41,
      "hit": false,
      "t": 131280,
      "d": 112,
      "v": 105
    },
    {
      "midi": 60,
      "hit": false,
      "t": 131280,
      "d": 139,
      "v": 98
    },
    {
      "midi": 65,
      "hit": false,
      "t": 131280,
      "d": 142,
      "v": 91
    },
    {
      "midi": 67,
      "hit": false,
      "t": 131520,
      "d": 120,
      "v": 110
    },
    {
      "midi": 58,
      "hit": false,
      "t": 131520,
      "d": 156,
      "v": 110
    },
    {
      "midi": 43,
      "hit": false,
      "t": 131520,
      "d": 164,
      "v": 117
    },
    {
      "midi": 62,
      "hit": false,
      "t": 131520,
      "d": 169,
      "v": 113
    },
    {
      "midi": 43,
      "hit": false,
      "t": 132480,
      "d": 114,
      "v": 121
    },
    {
      "midi": 55,
      "hit": false,
      "t": 132480,
      "d": 169,
      "v": 105
    },
    {
      "midi": 58,
      "hit": false,
      "t": 132480,
      "d": 175,
      "v": 91
    },
    {
      "midi": 62,
      "hit": false,
      "t": 132480,
      "d": 176,
      "v": 110
    },
    {
      "midi": 59,
      "hit": false,
      "t": 133200,
      "d": 102,
      "v": 105
    },
    {
      "midi": 63,
      "hit": false,
      "t": 133200,
      "d": 122,
      "v": 95
    },
    {
      "midi": 55,
      "hit": false,
      "t": 133440,
      "d": 177,
      "v": 98
    },
    {
      "midi": 48,
      "hit": false,
      "t": 133440,
      "d": 179,
      "v": 105
    },
    {
      "midi": 64,
      "hit": false,
      "t": 133440,
      "d": 186,
      "v": 95
    },
    {
      "midi": 60,
      "hit": false,
      "t": 133440,
      "d": 187,
      "v": 98
    },
    {
      "midi": 67,
      "hit": false,
      "t": 133800,
      "d": 133,
      "v": 117
    },
    {
      "midi": 55,
      "hit": false,
      "t": 134160,
      "d": 115,
      "v": 117
    },
    {
      "midi": 53,
      "hit": false,
      "t": 134400,
      "d": 117,
      "v": 102
    },
    {
      "midi": 57,
      "hit": false,
      "t": 134400,
      "d": 125,
      "v": 105
    },
    {
      "midi": 60,
      "hit": false,
      "t": 134400,
      "d": 134,
      "v": 102
    },
    {
      "midi": 41,
      "hit": false,
      "t": 134400,
      "d": 145,
      "v": 110
    },
    {
      "midi": 57,
      "hit": false,
      "t": 135120,
      "d": 79,
      "v": 98
    },
    {
      "midi": 53,
      "hit": false,
      "t": 135120,
      "d": 90,
      "v": 102
    },
    {
      "midi": 60,
      "hit": false,
      "t": 135120,
      "d": 97,
      "v": 105
    },
    {
      "midi": 41,
      "hit": false,
      "t": 135120,
      "d": 102,
      "v": 110
    },
    {
      "midi": 55,
      "hit": false,
      "t": 135360,
      "d": 171,
      "v": 98
    },
    {
      "midi": 43,
      "hit": false,
      "t": 135360,
      "d": 182,
      "v": 113
    },
    {
      "midi": 62,
      "hit": false,
      "t": 135360,
      "d": 188,
      "v": 90
    },
    {
      "midi": 58,
      "hit": false,
      "t": 135360,
      "d": 189,
      "v": 102
    },
    {
      "midi": 55,
      "hit": false,
      "t": 136320,
      "d": 213,
      "v": 113
    },
    {
      "midi": 58,
      "hit": false,
      "t": 136320,
      "d": 214,
      "v": 105
    },
    {
      "midi": 43,
      "hit": false,
      "t": 136320,
      "d": 215,
      "v": 121
    },
    {
      "midi": 62,
      "hit": false,
      "t": 136320,
      "d": 220,
      "v": 117
    },
    {
      "midi": 58,
      "hit": false,
      "t": 137040,
      "d": 101,
      "v": 102
    },
    {
      "midi": 55,
      "hit": false,
      "t": 137040,
      "d": 125,
      "v": 110
    },
    {
      "midi": 43,
      "hit": false,
      "t": 137040,
      "d": 129,
      "v": 110
    },
    {
      "midi": 62,
      "hit": false,
      "t": 137040,
      "d": 165,
      "v": 113
    },
    {
      "midi": 55,
      "hit": false,
      "t": 137280,
      "d": 119,
      "v": 113
    },
    {
      "midi": 60,
      "hit": false,
      "t": 137280,
      "d": 127,
      "v": 113
    },
    {
      "midi": 64,
      "hit": false,
      "t": 137280,
      "d": 131,
      "v": 110
    },
    {
      "midi": 48,
      "hit": false,
      "t": 137280,
      "d": 239,
      "v": 106
    },
    {
      "midi": 55,
      "hit": false,
      "t": 137520,
      "d": 56,
      "v": 113
    },
    {
      "midi": 67,
      "hit": false,
      "t": 137640,
      "d": 124,
      "v": 110
    },
    {
      "midi": 48,
      "hit": false,
      "t": 137880,
      "d": 96,
      "v": 84
    },
    {
      "midi": 55,
      "hit": false,
      "t": 138000,
      "d": 67,
      "v": 93
    },
    {
      "midi": 57,
      "hit": false,
      "t": 138240,
      "d": 187,
      "v": 98
    },
    {
      "midi": 65,
      "hit": false,
      "t": 138240,
      "d": 189,
      "v": 88
    },
    {
      "midi": 60,
      "hit": false,
      "t": 138240,
      "d": 191,
      "v": 98
    },
    {
      "midi": 41,
      "hit": false,
      "t": 138240,
      "d": 197,
      "v": 113
    },
    {
      "midi": 57,
      "hit": false,
      "t": 138960,
      "d": 100,
      "v": 95
    },
    {
      "midi": 41,
      "hit": false,
      "t": 138960,
      "d": 112,
      "v": 105
    },
    {
      "midi": 60,
      "hit": false,
      "t": 138960,
      "d": 139,
      "v": 98
    },
    {
      "midi": 65,
      "hit": false,
      "t": 138960,
      "d": 142,
      "v": 91
    },
    {
      "midi": 67,
      "hit": false,
      "t": 139200,
      "d": 120,
      "v": 110
    },
    {
      "midi": 58,
      "hit": false,
      "t": 139200,
      "d": 156,
      "v": 110
    },
    {
      "midi": 43,
      "hit": false,
      "t": 139200,
      "d": 164,
      "v": 117
    },
    {
      "midi": 62,
      "hit": false,
      "t": 139200,
      "d": 169,
      "v": 113
    },
    {
      "midi": 43,
      "hit": false,
      "t": 140160,
      "d": 114,
      "v": 121
    },
    {
      "midi": 55,
      "hit": false,
      "t": 140160,
      "d": 169,
      "v": 105
    },
    {
      "midi": 58,
      "hit": false,
      "t": 140160,
      "d": 175,
      "v": 91
    },
    {
      "midi": 62,
      "hit": false,
      "t": 140160,
      "d": 176,
      "v": 110
    },
    {
      "midi": 59,
      "hit": false,
      "t": 140880,
      "d": 102,
      "v": 105
    },
    {
      "midi": 63,
      "hit": false,
      "t": 140880,
      "d": 122,
      "v": 95
    },
    {
      "midi": 55,
      "hit": false,
      "t": 141120,
      "d": 177,
      "v": 98
    },
    {
      "midi": 48,
      "hit": false,
      "t": 141120,
      "d": 179,
      "v": 105
    },
    {
      "midi": 64,
      "hit": false,
      "t": 141120,
      "d": 186,
      "v": 95
    },
    {
      "midi": 60,
      "hit": false,
      "t": 141120,
      "d": 187,
      "v": 98
    },
    {
      "midi": 67,
      "hit": false,
      "t": 141480,
      "d": 133,
      "v": 117
    },
    {
      "midi": 55,
      "hit": false,
      "t": 141840,
      "d": 115,
      "v": 117
    },
    {
      "midi": 53,
      "hit": false,
      "t": 142080,
      "d": 117,
      "v": 102
    },
    {
      "midi": 57,
      "hit": false,
      "t": 142080,
      "d": 125,
      "v": 105
    },
    {
      "midi": 60,
      "hit": false,
      "t": 142080,
      "d": 134,
      "v": 102
    },
    {
      "midi": 41,
      "hit": false,
      "t": 142080,
      "d": 145,
      "v": 110
    },
    {
      "midi": 57,
      "hit": false,
      "t": 142800,
      "d": 79,
      "v": 98
    },
    {
      "midi": 53,
      "hit": false,
      "t": 142800,
      "d": 90,
      "v": 102
    },
    {
      "midi": 60,
      "hit": false,
      "t": 142800,
      "d": 97,
      "v": 105
    },
    {
      "midi": 41,
      "hit": false,
      "t": 142800,
      "d": 102,
      "v": 110
    },
    {
      "midi": 55,
      "hit": false,
      "t": 143040,
      "d": 171,
      "v": 98
    },
    {
      "midi": 43,
      "hit": false,
      "t": 143040,
      "d": 182,
      "v": 113
    },
    {
      "midi": 62,
      "hit": false,
      "t": 143040,
      "d": 188,
      "v": 90
    },
    {
      "midi": 58,
      "hit": false,
      "t": 143040,
      "d": 189,
      "v": 102
    },
    {
      "midi": 55,
      "hit": false,
      "t": 144000,
      "d": 213,
      "v": 113
    },
    {
      "midi": 58,
      "hit": false,
      "t": 144000,
      "d": 214,
      "v": 105
    },
    {
      "midi": 43,
      "hit": false,
      "t": 144000,
      "d": 215,
      "v": 121
    },
    {
      "midi": 62,
      "hit": false,
      "t": 144000,
      "d": 220,
      "v": 117
    },
    {
      "midi": 58,
      "hit": false,
      "t": 144720,
      "d": 101,
      "v": 102
    },
    {
      "midi": 55,
      "hit": false,
      "t": 144720,
      "d": 125,
      "v": 110
    },
    {
      "midi": 43,
      "hit": false,
      "t": 144720,
      "d": 129,
      "v": 110
    },
    {
      "midi": 62,
      "hit": false,
      "t": 144720,
      "d": 165,
      "v": 113
    },
    {
      "midi": 55,
      "hit": false,
      "t": 144960,
      "d": 119,
      "v": 113
    },
    {
      "midi": 60,
      "hit": false,
      "t": 144960,
      "d": 127,
      "v": 113
    },
    {
      "midi": 64,
      "hit": false,
      "t": 144960,
      "d": 131,
      "v": 110
    },
    {
      "midi": 48,
      "hit": false,
      "t": 144960,
      "d": 239,
      "v": 106
    },
    {
      "midi": 55,
      "hit": false,
      "t": 145200,
      "d": 56,
      "v": 113
    },
    {
      "midi": 67,
      "hit": false,
      "t": 145320,
      "d": 124,
      "v": 110
    },
    {
      "midi": 48,
      "hit": false,
      "t": 145560,
      "d": 96,
      "v": 84
    },
    {
      "midi": 55,
      "hit": false,
      "t": 145680,
      "d": 67,
      "v": 93
    },
    {
      "midi": 57,
      "hit": false,
      "t": 145920,
      "d": 187,
      "v": 98
    },
    {
      "midi": 65,
      "hit": false,
      "t": 145920,
      "d": 189,
      "v": 88
    },
    {
      "midi": 60,
      "hit": false,
      "t": 145920,
      "d": 191,
      "v": 98
    },
    {
      "midi": 41,
      "hit": false,
      "t": 145920,
      "d": 197,
      "v": 113
    },
    {
      "midi": 57,
      "hit": false,
      "t": 146640,
      "d": 100,
      "v": 95
    },
    {
      "midi": 41,
      "hit": false,
      "t": 146640,
      "d": 112,
      "v": 105
    },
    {
      "midi": 60,
      "hit": false,
      "t": 146640,
      "d": 139,
      "v": 98
    },
    {
      "midi": 65,
      "hit": false,
      "t": 146640,
      "d": 142,
      "v": 91
    },
    {
      "midi": 67,
      "hit": false,
      "t": 146880,
      "d": 120,
      "v": 110
    },
    {
      "midi": 58,
      "hit": false,
      "t": 146880,
      "d": 156,
      "v": 110
    },
    {
      "midi": 43,
      "hit": false,
      "t": 146880,
      "d": 164,
      "v": 117
    },
    {
      "midi": 62,
      "hit": false,
      "t": 146880,
      "d": 169,
      "v": 113
    },
    {
      "midi": 43,
      "hit": false,
      "t": 147840,
      "d": 114,
      "v": 121
    },
    {
      "midi": 55,
      "hit": false,
      "t": 147840,
      "d": 169,
      "v": 105
    },
    {
      "midi": 58,
      "hit": false,
      "t": 147840,
      "d": 175,
      "v": 91
    },
    {
      "midi": 62,
      "hit": false,
      "t": 147840,
      "d": 176,
      "v": 110
    },
    {
      "midi": 59,
      "hit": false,
      "t": 148560,
      "d": 102,
      "v": 105
    },
    {
      "midi": 63,
      "hit": false,
      "t": 148560,
      "d": 122,
      "v": 95
    },
    {
      "midi": 55,
      "hit": false,
      "t": 148800,
      "d": 177,
      "v": 98
    },
    {
      "midi": 48,
      "hit": false,
      "t": 148800,
      "d": 179,
      "v": 105
    },
    {
      "midi": 64,
      "hit": false,
      "t": 148800,
      "d": 186,
      "v": 95
    },
    {
      "midi": 60,
      "hit": false,
      "t": 148800,
      "d": 187,
      "v": 98
    },
    {
      "midi": 67,
      "hit": false,
      "t": 149160,
      "d": 133,
      "v": 117
    },
    {
      "midi": 55,
      "hit": false,
      "t": 149520,
      "d": 115,
      "v": 117
    },
    {
      "midi": 53,
      "hit": false,
      "t": 149760,
      "d": 117,
      "v": 102
    },
    {
      "midi": 57,
      "hit": false,
      "t": 149760,
      "d": 125,
      "v": 105
    },
    {
      "midi": 60,
      "hit": false,
      "t": 149760,
      "d": 134,
      "v": 102
    },
    {
      "midi": 41,
      "hit": false,
      "t": 149760,
      "d": 145,
      "v": 110
    },
    {
      "midi": 57,
      "hit": false,
      "t": 150480,
      "d": 79,
      "v": 98
    },
    {
      "midi": 53,
      "hit": false,
      "t": 150480,
      "d": 90,
      "v": 102
    },
    {
      "midi": 60,
      "hit": false,
      "t": 150480,
      "d": 97,
      "v": 105
    },
    {
      "midi": 41,
      "hit": false,
      "t": 150480,
      "d": 102,
      "v": 110
    },
    {
      "midi": 55,
      "hit": false,
      "t": 150720,
      "d": 171,
      "v": 98
    },
    {
      "midi": 43,
      "hit": false,
      "t": 150720,
      "d": 182,
      "v": 113
    },
    {
      "midi": 62,
      "hit": false,
      "t": 150720,
      "d": 188,
      "v": 90
    },
    {
      "midi": 58,
      "hit": false,
      "t": 150720,
      "d": 189,
      "v": 102
    },
    {
      "midi": 43,
      "hit": false,
      "t": 151680,
      "d": 476,
      "v": 95
    },
    {
      "midi": 70,
      "hit": false,
      "t": 151680,
      "d": 476,
      "v": 91
    },
    {
      "midi": 74,
      "hit": false,
      "t": 151680,
      "d": 476,
      "v": 102
    },
    {
      "midi": 79,
      "hit": false,
      "t": 151680,
      "d": 476,
      "v": 91
    },
    {
      "midi": 43,
      "hit": false,
      "t": 152640,
      "d": 476,
      "v": 90
    },
    {
      "midi": 70,
      "hit": false,
      "t": 152640,
      "d": 476,
      "v": 98
    },
    {
      "midi": 74,
      "hit": false,
      "t": 152640,
      "d": 476,
      "v": 102
    },
    {
      "midi": 79,
      "hit": false,
      "t": 152640,
      "d": 476,
      "v": 98
    },
    {
      "midi": 43,
      "hit": false,
      "t": 153600,
      "d": 476,
      "v": 98
    },
    {
      "midi": 70,
      "hit": false,
      "t": 153600,
      "d": 476,
      "v": 90
    },
    {
      "midi": 74,
      "hit": false,
      "t": 153600,
      "d": 476,
      "v": 95
    },
    {
      "midi": 79,
      "hit": false,
      "t": 153600,
      "d": 476,
      "v": 98
    },
    {
      "midi": 43,
      "hit": false,
      "t": 154560,
      "d": 476,
      "v": 98
    },
    {
      "midi": 70,
      "hit": false,
      "t": 154560,
      "d": 476,
      "v": 98
    },
    {
      "midi": 74,
      "hit": false,
      "t": 154560,
      "d": 476,
      "v": 98
    },
    {
      "midi": 79,
      "hit": false,
      "t": 154560,
      "d": 476,
      "v": 98
    },
    {
      "midi": 43,
      "hit": false,
      "t": 155520,
      "d": 476,
      "v": 98
    },
    {
      "midi": 70,
      "hit": false,
      "t": 155520,
      "d": 476,
      "v": 88
    },
    {
      "midi": 74,
      "hit": false,
      "t": 155520,
      "d": 476,
      "v": 95
    },
    {
      "midi": 79,
      "hit": false,
      "t": 155520,
      "d": 476,
      "v": 95
    },
    {
      "midi": 43,
      "hit": false,
      "t": 156480,
      "d": 476,
      "v": 98
    },
    {
      "midi": 70,
      "hit": false,
      "t": 156480,
      "d": 476,
      "v": 98
    },
    {
      "midi": 74,
      "hit": false,
      "t": 156480,
      "d": 476,
      "v": 102
    },
    {
      "midi": 79,
      "hit": false,
      "t": 156480,
      "d": 476,
      "v": 98
    },
    {
      "midi": 43,
      "hit": false,
      "t": 157440,
      "d": 476,
      "v": 98
    },
    {
      "midi": 70,
      "hit": false,
      "t": 157440,
      "d": 476,
      "v": 98
    },
    {
      "midi": 74,
      "hit": false,
      "t": 157440,
      "d": 476,
      "v": 98
    },
    {
      "midi": 79,
      "hit": false,
      "t": 157440,
      "d": 476,
      "v": 95
    },
    {
      "midi": 43,
      "hit": false,
      "t": 158400,
      "d": 476,
      "v": 102
    },
    {
      "midi": 70,
      "hit": false,
      "t": 158400,
      "d": 476,
      "v": 95
    },
    {
      "midi": 74,
      "hit": false,
      "t": 158400,
      "d": 476,
      "v": 98
    },
    {
      "midi": 79,
      "hit": false,
      "t": 158400,
      "d": 476,
      "v": 91
    },
    {
      "midi": 43,
      "hit": false,
      "t": 159360,
      "d": 218,
      "v": 98
    },
    {
      "midi": 70,
      "hit": false,
      "t": 159360,
      "d": 218,
      "v": 90
    },
    {
      "midi": 74,
      "hit": false,
      "t": 159360,
      "d": 218,
      "v": 105
    },
    {
      "midi": 79,
      "hit": false,
      "t": 159360,
      "d": 218,
      "v": 110
    },
    {
      "midi": 43,
      "hit": false,
      "t": 159840,
      "d": 218,
      "v": 98
    },
    {
      "midi": 70,
      "hit": false,
      "t": 159840,
      "d": 218,
      "v": 98
    },
    {
      "midi": 74,
      "hit": false,
      "t": 159840,
      "d": 218,
      "v": 110
    },
    {
      "midi": 79,
      "hit": false,
      "t": 159840,
      "d": 218,
      "v": 102
    },
    {
      "midi": 43,
      "hit": false,
      "t": 160320,
      "d": 218,
      "v": 98
    },
    {
      "midi": 70,
      "hit": false,
      "t": 160320,
      "d": 218,
      "v": 88
    },
    {
      "midi": 74,
      "hit": false,
      "t": 160320,
      "d": 218,
      "v": 113
    },
    {
      "midi": 79,
      "hit": false,
      "t": 160320,
      "d": 218,
      "v": 102
    },
    {
      "midi": 43,
      "hit": false,
      "t": 160800,
      "d": 218,
      "v": 98
    },
    {
      "midi": 70,
      "hit": false,
      "t": 160800,
      "d": 218,
      "v": 90
    },
    {
      "midi": 74,
      "hit": false,
      "t": 160800,
      "d": 218,
      "v": 105
    },
    {
      "midi": 79,
      "hit": false,
      "t": 160800,
      "d": 218,
      "v": 98
    },
    {
      "midi": 43,
      "hit": false,
      "t": 161280,
      "d": 218,
      "v": 102
    },
    {
      "midi": 70,
      "hit": false,
      "t": 161280,
      "d": 218,
      "v": 91
    },
    {
      "midi": 74,
      "hit": false,
      "t": 161280,
      "d": 218,
      "v": 110
    },
    {
      "midi": 79,
      "hit": false,
      "t": 161280,
      "d": 218,
      "v": 102
    },
    {
      "midi": 43,
      "hit": false,
      "t": 161760,
      "d": 218,
      "v": 102
    },
    {
      "midi": 70,
      "hit": false,
      "t": 161760,
      "d": 218,
      "v": 95
    },
    {
      "midi": 74,
      "hit": false,
      "t": 161760,
      "d": 218,
      "v": 113
    },
    {
      "midi": 79,
      "hit": false,
      "t": 161760,
      "d": 218,
      "v": 105
    },
    {
      "midi": 43,
      "hit": false,
      "t": 162240,
      "d": 218,
      "v": 102
    },
    {
      "midi": 70,
      "hit": false,
      "t": 162240,
      "d": 218,
      "v": 90
    },
    {
      "midi": 74,
      "hit": false,
      "t": 162240,
      "d": 218,
      "v": 113
    },
    {
      "midi": 79,
      "hit": false,
      "t": 162240,
      "d": 218,
      "v": 102
    },
    {
      "midi": 43,
      "hit": false,
      "t": 162720,
      "d": 218,
      "v": 102
    },
    {
      "midi": 70,
      "hit": false,
      "t": 162720,
      "d": 218,
      "v": 102
    },
    {
      "midi": 74,
      "hit": false,
      "t": 162720,
      "d": 218,
      "v": 117
    },
    {
      "midi": 79,
      "hit": false,
      "t": 162720,
      "d": 218,
      "v": 113
    },
    {
      "midi": 43,
      "hit": false,
      "t": 163200,
      "d": 130,
      "v": 90
    },
    {
      "midi": 70,
      "hit": false,
      "t": 163200,
      "d": 130,
      "v": 81
    },
    {
      "midi": 74,
      "hit": false,
      "t": 163200,
      "d": 130,
      "v": 90
    },
    {
      "midi": 79,
      "hit": false,
      "t": 163200,
      "d": 130,
      "v": 88
    },
    {
      "midi": 43,
      "hit": false,
      "t": 163440,
      "d": 130,
      "v": 87
    },
    {
      "midi": 70,
      "hit": false,
      "t": 163440,
      "d": 130,
      "v": 80
    },
    {
      "midi": 74,
      "hit": false,
      "t": 163440,
      "d": 130,
      "v": 90
    },
    {
      "midi": 79,
      "hit": false,
      "t": 163440,
      "d": 130,
      "v": 88
    },
    {
      "midi": 43,
      "hit": false,
      "t": 163680,
      "d": 130,
      "v": 91
    },
    {
      "midi": 70,
      "hit": false,
      "t": 163680,
      "d": 130,
      "v": 79
    },
    {
      "midi": 74,
      "hit": false,
      "t": 163680,
      "d": 130,
      "v": 98
    },
    {
      "midi": 79,
      "hit": false,
      "t": 163680,
      "d": 130,
      "v": 90
    },
    {
      "midi": 43,
      "hit": false,
      "t": 163920,
      "d": 130,
      "v": 95
    },
    {
      "midi": 70,
      "hit": false,
      "t": 163920,
      "d": 130,
      "v": 88
    },
    {
      "midi": 74,
      "hit": false,
      "t": 163920,
      "d": 130,
      "v": 110
    },
    {
      "midi": 79,
      "hit": false,
      "t": 163920,
      "d": 130,
      "v": 98
    },
    {
      "midi": 43,
      "hit": false,
      "t": 164160,
      "d": 130,
      "v": 102
    },
    {
      "midi": 70,
      "hit": false,
      "t": 164160,
      "d": 130,
      "v": 98
    },
    {
      "midi": 74,
      "hit": false,
      "t": 164160,
      "d": 130,
      "v": 117
    },
    {
      "midi": 79,
      "hit": false,
      "t": 164160,
      "d": 130,
      "v": 110
    },
    {
      "midi": 43,
      "hit": false,
      "t": 164400,
      "d": 130,
      "v": 98
    },
    {
      "midi": 70,
      "hit": false,
      "t": 164400,
      "d": 130,
      "v": 102
    },
    {
      "midi": 74,
      "hit": false,
      "t": 164400,
      "d": 130,
      "v": 117
    },
    {
      "midi": 79,
      "hit": false,
      "t": 164400,
      "d": 130,
      "v": 110
    },
    {
      "midi": 43,
      "hit": false,
      "t": 164640,
      "d": 130,
      "v": 113
    },
    {
      "midi": 70,
      "hit": false,
      "t": 164640,
      "d": 130,
      "v": 98
    },
    {
      "midi": 74,
      "hit": false,
      "t": 164640,
      "d": 130,
      "v": 113
    },
    {
      "midi": 79,
      "hit": false,
      "t": 164640,
      "d": 130,
      "v": 110
    },
    {
      "midi": 43,
      "hit": false,
      "t": 164880,
      "d": 130,
      "v": 113
    },
    {
      "midi": 70,
      "hit": false,
      "t": 164880,
      "d": 130,
      "v": 102
    },
    {
      "midi": 74,
      "hit": false,
      "t": 164880,
      "d": 130,
      "v": 117
    },
    {
      "midi": 79,
      "hit": false,
      "t": 164880,
      "d": 130,
      "v": 110
    },
    {
      "midi": 55,
      "hit": false,
      "t": 167040,
      "d": 213,
      "v": 113
    },
    {
      "midi": 58,
      "hit": false,
      "t": 167040,
      "d": 214,
      "v": 105
    },
    {
      "midi": 43,
      "hit": false,
      "t": 167040,
      "d": 215,
      "v": 121
    },
    {
      "midi": 62,
      "hit": false,
      "t": 167040,
      "d": 220,
      "v": 117
    },
    {
      "midi": 58,
      "hit": false,
      "t": 167760,
      "d": 101,
      "v": 102
    },
    {
      "midi": 55,
      "hit": false,
      "t": 167760,
      "d": 125,
      "v": 110
    },
    {
      "midi": 43,
      "hit": false,
      "t": 167760,
      "d": 129,
      "v": 110
    },
    {
      "midi": 62,
      "hit": false,
      "t": 167760,
      "d": 165,
      "v": 113
    },
    {
      "midi": 55,
      "hit": false,
      "t": 168000,
      "d": 119,
      "v": 113
    },
    {
      "midi": 60,
      "hit": false,
      "t": 168000,
      "d": 127,
      "v": 113
    },
    {
      "midi": 64,
      "hit": false,
      "t": 168000,
      "d": 131,
      "v": 110
    },
    {
      "midi": 48,
      "hit": false,
      "t": 168000,
      "d": 239,
      "v": 106
    },
    {
      "midi": 55,
      "hit": false,
      "t": 168240,
      "d": 56,
      "v": 113
    },
    {
      "midi": 67,
      "hit": false,
      "t": 168360,
      "d": 124,
      "v": 110
    },
    {
      "midi": 48,
      "hit": false,
      "t": 168600,
      "d": 96,
      "v": 84
    },
    {
      "midi": 55,
      "hit": false,
      "t": 168720,
      "d": 67,
      "v": 93
    },
    {
      "midi": 57,
      "hit": false,
      "t": 168960,
      "d": 187,
      "v": 98
    },
    {
      "midi": 65,
      "hit": false,
      "t": 168960,
      "d": 189,
      "v": 88
    },
    {
      "midi": 60,
      "hit": false,
      "t": 168960,
      "d": 191,
      "v": 98
    },
    {
      "midi": 41,
      "hit": false,
      "t": 168960,
      "d": 197,
      "v": 113
    },
    {
      "midi": 57,
      "hit": false,
      "t": 169680,
      "d": 100,
      "v": 95
    },
    {
      "midi": 41,
      "hit": false,
      "t": 169680,
      "d": 112,
      "v": 105
    },
    {
      "midi": 60,
      "hit": false,
      "t": 169680,
      "d": 139,
      "v": 98
    },
    {
      "midi": 65,
      "hit": false,
      "t": 169680,
      "d": 142,
      "v": 91
    },
    {
      "midi": 67,
      "hit": false,
      "t": 169920,
      "d": 120,
      "v": 110
    },
    {
      "midi": 58,
      "hit": false,
      "t": 169920,
      "d": 156,
      "v": 110
    },
    {
      "midi": 43,
      "hit": false,
      "t": 169920,
      "d": 164,
      "v": 117
    },
    {
      "midi": 62,
      "hit": false,
      "t": 169920,
      "d": 169,
      "v": 113
    },
    {
      "midi": 43,
      "hit": false,
      "t": 170880,
      "d": 114,
      "v": 121
    },
    {
      "midi": 55,
      "hit": false,
      "t": 170880,
      "d": 169,
      "v": 105
    },
    {
      "midi": 58,
      "hit": false,
      "t": 170880,
      "d": 175,
      "v": 91
    },
    {
      "midi": 62,
      "hit": false,
      "t": 170880,
      "d": 176,
      "v": 110
    },
    {
      "midi": 59,
      "hit": false,
      "t": 171600,
      "d": 102,
      "v": 105
    },
    {
      "midi": 63,
      "hit": false,
      "t": 171600,
      "d": 122,
      "v": 95
    },
    {
      "midi": 55,
      "hit": false,
      "t": 171840,
      "d": 177,
      "v": 98
    },
    {
      "midi": 48,
      "hit": false,
      "t": 171840,
      "d": 179,
      "v": 105
    },
    {
      "midi": 64,
      "hit": false,
      "t": 171840,
      "d": 186,
      "v": 95
    },
    {
      "midi": 60,
      "hit": false,
      "t": 171840,
      "d": 187,
      "v": 98
    },
    {
      "midi": 67,
      "hit": false,
      "t": 172200,
      "d": 133,
      "v": 117
    },
    {
      "midi": 55,
      "hit": false,
      "t": 172560,
      "d": 115,
      "v": 117
    },
    {
      "midi": 53,
      "hit": false,
      "t": 172800,
      "d": 117,
      "v": 102
    },
    {
      "midi": 57,
      "hit": false,
      "t": 172800,
      "d": 125,
      "v": 105
    },
    {
      "midi": 60,
      "hit": false,
      "t": 172800,
      "d": 134,
      "v": 102
    },
    {
      "midi": 41,
      "hit": false,
      "t": 172800,
      "d": 145,
      "v": 110
    },
    {
      "midi": 57,
      "hit": false,
      "t": 173520,
      "d": 79,
      "v": 98
    },
    {
      "midi": 53,
      "hit": false,
      "t": 173520,
      "d": 90,
      "v": 102
    },
    {
      "midi": 60,
      "hit": false,
      "t": 173520,
      "d": 97,
      "v": 105
    },
    {
      "midi": 41,
      "hit": false,
      "t": 173520,
      "d": 102,
      "v": 110
    },
    {
      "midi": 55,
      "hit": false,
      "t": 173760,
      "d": 171,
      "v": 98
    },
    {
      "midi": 43,
      "hit": false,
      "t": 173760,
      "d": 182,
      "v": 113
    },
    {
      "midi": 62,
      "hit": false,
      "t": 173760,
      "d": 188,
      "v": 90
    },
    {
      "midi": 58,
      "hit": false,
      "t": 173760,
      "d": 189,
      "v": 102
    },
    {
      "midi": 55,
      "hit": false,
      "t": 174720,
      "d": 213,
      "v": 113
    },
    {
      "midi": 58,
      "hit": false,
      "t": 174720,
      "d": 214,
      "v": 105
    },
    {
      "midi": 43,
      "hit": false,
      "t": 174720,
      "d": 215,
      "v": 121
    },
    {
      "midi": 62,
      "hit": false,
      "t": 174720,
      "d": 220,
      "v": 117
    },
    {
      "midi": 58,
      "hit": false,
      "t": 175440,
      "d": 101,
      "v": 102
    },
    {
      "midi": 55,
      "hit": false,
      "t": 175440,
      "d": 125,
      "v": 110
    },
    {
      "midi": 43,
      "hit": false,
      "t": 175440,
      "d": 129,
      "v": 110
    },
    {
      "midi": 62,
      "hit": false,
      "t": 175440,
      "d": 165,
      "v": 113
    },
    {
      "midi": 55,
      "hit": false,
      "t": 175680,
      "d": 119,
      "v": 113
    },
    {
      "midi": 60,
      "hit": false,
      "t": 175680,
      "d": 127,
      "v": 113
    },
    {
      "midi": 64,
      "hit": false,
      "t": 175680,
      "d": 131,
      "v": 110
    },
    {
      "midi": 48,
      "hit": false,
      "t": 175680,
      "d": 239,
      "v": 106
    },
    {
      "midi": 55,
      "hit": false,
      "t": 175920,
      "d": 56,
      "v": 113
    },
    {
      "midi": 67,
      "hit": false,
      "t": 176040,
      "d": 124,
      "v": 110
    },
    {
      "midi": 48,
      "hit": false,
      "t": 176280,
      "d": 96,
      "v": 84
    },
    {
      "midi": 55,
      "hit": false,
      "t": 176400,
      "d": 67,
      "v": 93
    },
    {
      "midi": 57,
      "hit": false,
      "t": 176640,
      "d": 187,
      "v": 98
    },
    {
      "midi": 65,
      "hit": false,
      "t": 176640,
      "d": 189,
      "v": 88
    },
    {
      "midi": 60,
      "hit": false,
      "t": 176640,
      "d": 191,
      "v": 98
    },
    {
      "midi": 41,
      "hit": false,
      "t": 176640,
      "d": 197,
      "v": 113
    },
    {
      "midi": 57,
      "hit": false,
      "t": 177360,
      "d": 100,
      "v": 95
    },
    {
      "midi": 41,
      "hit": false,
      "t": 177360,
      "d": 112,
      "v": 105
    },
    {
      "midi": 60,
      "hit": false,
      "t": 177360,
      "d": 139,
      "v": 98
    },
    {
      "midi": 65,
      "hit": false,
      "t": 177360,
      "d": 142,
      "v": 91
    },
    {
      "midi": 67,
      "hit": false,
      "t": 177600,
      "d": 120,
      "v": 110
    },
    {
      "midi": 58,
      "hit": false,
      "t": 177600,
      "d": 156,
      "v": 110
    },
    {
      "midi": 43,
      "hit": false,
      "t": 177600,
      "d": 164,
      "v": 117
    },
    {
      "midi": 62,
      "hit": false,
      "t": 177600,
      "d": 169,
      "v": 113
    },
    {
      "midi": 43,
      "hit": false,
      "t": 178560,
      "d": 114,
      "v": 121
    },
    {
      "midi": 55,
      "hit": false,
      "t": 178560,
      "d": 169,
      "v": 105
    },
    {
      "midi": 58,
      "hit": false,
      "t": 178560,
      "d": 175,
      "v": 91
    },
    {
      "midi": 62,
      "hit": false,
      "t": 178560,
      "d": 176,
      "v": 110
    },
    {
      "midi": 59,
      "hit": false,
      "t": 179280,
      "d": 102,
      "v": 105
    },
    {
      "midi": 63,
      "hit": false,
      "t": 179280,
      "d": 122,
      "v": 95
    },
    {
      "midi": 55,
      "hit": false,
      "t": 179520,
      "d": 177,
      "v": 98
    },
    {
      "midi": 48,
      "hit": false,
      "t": 179520,
      "d": 179,
      "v": 105
    },
    {
      "midi": 64,
      "hit": false,
      "t": 179520,
      "d": 186,
      "v": 95
    },
    {
      "midi": 60,
      "hit": false,
      "t": 179520,
      "d": 187,
      "v": 98
    },
    {
      "midi": 67,
      "hit": false,
      "t": 179880,
      "d": 133,
      "v": 117
    },
    {
      "midi": 55,
      "hit": false,
      "t": 180240,
      "d": 115,
      "v": 117
    },
    {
      "midi": 53,
      "hit": false,
      "t": 180480,
      "d": 117,
      "v": 102
    },
    {
      "midi": 57,
      "hit": false,
      "t": 180480,
      "d": 125,
      "v": 105
    },
    {
      "midi": 60,
      "hit": false,
      "t": 180480,
      "d": 134,
      "v": 102
    },
    {
      "midi": 41,
      "hit": false,
      "t": 180480,
      "d": 145,
      "v": 110
    },
    {
      "midi": 57,
      "hit": false,
      "t": 181200,
      "d": 79,
      "v": 98
    },
    {
      "midi": 53,
      "hit": false,
      "t": 181200,
      "d": 90,
      "v": 102
    },
    {
      "midi": 60,
      "hit": false,
      "t": 181200,
      "d": 97,
      "v": 105
    },
    {
      "midi": 41,
      "hit": false,
      "t": 181200,
      "d": 102,
      "v": 110
    },
    {
      "midi": 55,
      "hit": false,
      "t": 181440,
      "d": 171,
      "v": 98
    },
    {
      "midi": 43,
      "hit": false,
      "t": 181440,
      "d": 182,
      "v": 113
    },
    {
      "midi": 62,
      "hit": false,
      "t": 181440,
      "d": 188,
      "v": 90
    },
    {
      "midi": 58,
      "hit": false,
      "t": 181440,
      "d": 189,
      "v": 102
    },
    {
      "midi": 55,
      "hit": false,
      "t": 182400,
      "d": 213,
      "v": 113
    },
    {
      "midi": 58,
      "hit": false,
      "t": 182400,
      "d": 214,
      "v": 105
    },
    {
      "midi": 43,
      "hit": false,
      "t": 182400,
      "d": 215,
      "v": 121
    },
    {
      "midi": 62,
      "hit": false,
      "t": 182400,
      "d": 220,
      "v": 117
    },
    {
      "midi": 58,
      "hit": false,
      "t": 183120,
      "d": 101,
      "v": 102
    },
    {
      "midi": 55,
      "hit": false,
      "t": 183120,
      "d": 125,
      "v": 110
    },
    {
      "midi": 43,
      "hit": false,
      "t": 183120,
      "d": 129,
      "v": 110
    },
    {
      "midi": 62,
      "hit": false,
      "t": 183120,
      "d": 165,
      "v": 113
    },
    {
      "midi": 55,
      "hit": false,
      "t": 183360,
      "d": 119,
      "v": 113
    },
    {
      "midi": 60,
      "hit": false,
      "t": 183360,
      "d": 127,
      "v": 113
    },
    {
      "midi": 64,
      "hit": false,
      "t": 183360,
      "d": 131,
      "v": 110
    },
    {
      "midi": 48,
      "hit": false,
      "t": 183360,
      "d": 239,
      "v": 106
    },
    {
      "midi": 55,
      "hit": false,
      "t": 183600,
      "d": 56,
      "v": 113
    },
    {
      "midi": 67,
      "hit": false,
      "t": 183720,
      "d": 124,
      "v": 110
    },
    {
      "midi": 48,
      "hit": false,
      "t": 183960,
      "d": 96,
      "v": 84
    },
    {
      "midi": 55,
      "hit": false,
      "t": 184080,
      "d": 67,
      "v": 93
    },
    {
      "midi": 57,
      "hit": false,
      "t": 184320,
      "d": 187,
      "v": 98
    },
    {
      "midi": 65,
      "hit": false,
      "t": 184320,
      "d": 189,
      "v": 88
    },
    {
      "midi": 60,
      "hit": false,
      "t": 184320,
      "d": 191,
      "v": 98
    },
    {
      "midi": 41,
      "hit": false,
      "t": 184320,
      "d": 197,
      "v": 113
    },
    {
      "midi": 57,
      "hit": false,
      "t": 185040,
      "d": 100,
      "v": 95
    },
    {
      "midi": 41,
      "hit": false,
      "t": 185040,
      "d": 112,
      "v": 105
    },
    {
      "midi": 60,
      "hit": false,
      "t": 185040,
      "d": 139,
      "v": 98
    },
    {
      "midi": 65,
      "hit": false,
      "t": 185040,
      "d": 142,
      "v": 91
    },
    {
      "midi": 67,
      "hit": false,
      "t": 185280,
      "d": 120,
      "v": 110
    },
    {
      "midi": 58,
      "hit": false,
      "t": 185280,
      "d": 156,
      "v": 110
    },
    {
      "midi": 43,
      "hit": false,
      "t": 185280,
      "d": 164,
      "v": 117
    },
    {
      "midi": 62,
      "hit": false,
      "t": 185280,
      "d": 169,
      "v": 113
    },
    {
      "midi": 43,
      "hit": false,
      "t": 186240,
      "d": 114,
      "v": 121
    },
    {
      "midi": 55,
      "hit": false,
      "t": 186240,
      "d": 169,
      "v": 105
    },
    {
      "midi": 58,
      "hit": false,
      "t": 186240,
      "d": 175,
      "v": 91
    },
    {
      "midi": 62,
      "hit": false,
      "t": 186240,
      "d": 176,
      "v": 110
    },
    {
      "midi": 59,
      "hit": false,
      "t": 186960,
      "d": 102,
      "v": 105
    },
    {
      "midi": 63,
      "hit": false,
      "t": 186960,
      "d": 122,
      "v": 95
    },
    {
      "midi": 55,
      "hit": false,
      "t": 187200,
      "d": 177,
      "v": 98
    },
    {
      "midi": 48,
      "hit": false,
      "t": 187200,
      "d": 179,
      "v": 105
    },
    {
      "midi": 64,
      "hit": false,
      "t": 187200,
      "d": 186,
      "v": 95
    },
    {
      "midi": 60,
      "hit": false,
      "t": 187200,
      "d": 187,
      "v": 98
    },
    {
      "midi": 67,
      "hit": false,
      "t": 187560,
      "d": 133,
      "v": 117
    },
    {
      "midi": 55,
      "hit": false,
      "t": 187920,
      "d": 115,
      "v": 117
    },
    {
      "midi": 53,
      "hit": false,
      "t": 188160,
      "d": 117,
      "v": 102
    },
    {
      "midi": 57,
      "hit": false,
      "t": 188160,
      "d": 125,
      "v": 105
    },
    {
      "midi": 60,
      "hit": false,
      "t": 188160,
      "d": 134,
      "v": 102
    },
    {
      "midi": 41,
      "hit": false,
      "t": 188160,
      "d": 145,
      "v": 110
    },
    {
      "midi": 57,
      "hit": false,
      "t": 188880,
      "d": 79,
      "v": 98
    },
    {
      "midi": 53,
      "hit": false,
      "t": 188880,
      "d": 90,
      "v": 102
    },
    {
      "midi": 60,
      "hit": false,
      "t": 188880,
      "d": 97,
      "v": 105
    },
    {
      "midi": 41,
      "hit": false,
      "t": 188880,
      "d": 102,
      "v": 110
    },
    {
      "midi": 55,
      "hit": false,
      "t": 189120,
      "d": 171,
      "v": 98
    },
    {
      "midi": 43,
      "hit": false,
      "t": 189120,
      "d": 182,
      "v": 113
    },
    {
      "midi": 62,
      "hit": false,
      "t": 189120,
      "d": 188,
      "v": 90
    },
    {
      "midi": 58,
      "hit": false,
      "t": 189120,
      "d": 189,
      "v": 102
    },
    {
      "midi": 55,
      "hit": false,
      "t": 190080,
      "d": 213,
      "v": 113
    },
    {
      "midi": 58,
      "hit": false,
      "t": 190080,
      "d": 214,
      "v": 105
    },
    {
      "midi": 43,
      "hit": false,
      "t": 190080,
      "d": 215,
      "v": 121
    },
    {
      "midi": 62,
      "hit": false,
      "t": 190080,
      "d": 220,
      "v": 117
    },
    {
      "midi": 58,
      "hit": false,
      "t": 190800,
      "d": 101,
      "v": 102
    },
    {
      "midi": 55,
      "hit": false,
      "t": 190800,
      "d": 125,
      "v": 110
    },
    {
      "midi": 43,
      "hit": false,
      "t": 190800,
      "d": 129,
      "v": 110
    },
    {
      "midi": 62,
      "hit": false,
      "t": 190800,
      "d": 165,
      "v": 113
    },
    {
      "midi": 55,
      "hit": false,
      "t": 191040,
      "d": 119,
      "v": 113
    },
    {
      "midi": 60,
      "hit": false,
      "t": 191040,
      "d": 127,
      "v": 113
    },
    {
      "midi": 64,
      "hit": false,
      "t": 191040,
      "d": 131,
      "v": 110
    },
    {
      "midi": 48,
      "hit": false,
      "t": 191040,
      "d": 239,
      "v": 106
    },
    {
      "midi": 55,
      "hit": false,
      "t": 191280,
      "d": 56,
      "v": 113
    },
    {
      "midi": 67,
      "hit": false,
      "t": 191400,
      "d": 124,
      "v": 110
    },
    {
      "midi": 48,
      "hit": false,
      "t": 191640,
      "d": 96,
      "v": 84
    },
    {
      "midi": 55,
      "hit": false,
      "t": 191760,
      "d": 67,
      "v": 93
    },
    {
      "midi": 57,
      "hit": false,
      "t": 192000,
      "d": 187,
      "v": 98
    },
    {
      "midi": 65,
      "hit": false,
      "t": 192000,
      "d": 189,
      "v": 88
    },
    {
      "midi": 60,
      "hit": false,
      "t": 192000,
      "d": 191,
      "v": 98
    },
    {
      "midi": 41,
      "hit": false,
      "t": 192000,
      "d": 197,
      "v": 113
    },
    {
      "midi": 57,
      "hit": false,
      "t": 192720,
      "d": 100,
      "v": 95
    },
    {
      "midi": 41,
      "hit": false,
      "t": 192720,
      "d": 112,
      "v": 105
    },
    {
      "midi": 60,
      "hit": false,
      "t": 192720,
      "d": 139,
      "v": 98
    },
    {
      "midi": 65,
      "hit": false,
      "t": 192720,
      "d": 142,
      "v": 91
    },
    {
      "midi": 67,
      "hit": false,
      "t": 192960,
      "d": 120,
      "v": 110
    },
    {
      "midi": 58,
      "hit": false,
      "t": 192960,
      "d": 156,
      "v": 110
    },
    {
      "midi": 43,
      "hit": false,
      "t": 192960,
      "d": 164,
      "v": 117
    },
    {
      "midi": 62,
      "hit": false,
      "t": 192960,
      "d": 169,
      "v": 113
    },
    {
      "midi": 43,
      "hit": false,
      "t": 193920,
      "d": 114,
      "v": 121
    },
    {
      "midi": 55,
      "hit": false,
      "t": 193920,
      "d": 169,
      "v": 105
    },
    {
      "midi": 58,
      "hit": false,
      "t": 193920,
      "d": 175,
      "v": 91
    },
    {
      "midi": 62,
      "hit": false,
      "t": 193920,
      "d": 176,
      "v": 110
    },
    {
      "midi": 59,
      "hit": false,
      "t": 194640,
      "d": 102,
      "v": 105
    },
    {
      "midi": 63,
      "hit": false,
      "t": 194640,
      "d": 122,
      "v": 95
    },
    {
      "midi": 55,
      "hit": false,
      "t": 194880,
      "d": 177,
      "v": 98
    },
    {
      "midi": 48,
      "hit": false,
      "t": 194880,
      "d": 179,
      "v": 105
    },
    {
      "midi": 64,
      "hit": false,
      "t": 194880,
      "d": 186,
      "v": 95
    },
    {
      "midi": 60,
      "hit": false,
      "t": 194880,
      "d": 187,
      "v": 98
    },
    {
      "midi": 67,
      "hit": false,
      "t": 195240,
      "d": 133,
      "v": 117
    },
    {
      "midi": 55,
      "hit": false,
      "t": 195600,
      "d": 115,
      "v": 117
    },
    {
      "midi": 53,
      "hit": false,
      "t": 195840,
      "d": 117,
      "v": 102
    },
    {
      "midi": 57,
      "hit": false,
      "t": 195840,
      "d": 125,
      "v": 105
    },
    {
      "midi": 60,
      "hit": false,
      "t": 195840,
      "d": 134,
      "v": 102
    },
    {
      "midi": 41,
      "hit": false,
      "t": 195840,
      "d": 145,
      "v": 110
    },
    {
      "midi": 57,
      "hit": false,
      "t": 196560,
      "d": 79,
      "v": 98
    },
    {
      "midi": 53,
      "hit": false,
      "t": 196560,
      "d": 90,
      "v": 102
    },
    {
      "midi": 60,
      "hit": false,
      "t": 196560,
      "d": 97,
      "v": 105
    },
    {
      "midi": 41,
      "hit": false,
      "t": 196560,
      "d": 102,
      "v": 110
    },
    {
      "midi": 55,
      "hit": false,
      "t": 196800,
      "d": 171,
      "v": 98
    },
    {
      "midi": 43,
      "hit": false,
      "t": 196800,
      "d": 182,
      "v": 113
    },
    {
      "midi": 62,
      "hit": false,
      "t": 196800,
      "d": 188,
      "v": 90
    },
    {
      "midi": 58,
      "hit": false,
      "t": 196800,
      "d": 189,
      "v": 102
    },
    {
      "midi": 55,
      "hit": false,
      "t": 197760,
      "d": 213,
      "v": 113
    },
    {
      "midi": 58,
      "hit": false,
      "t": 197760,
      "d": 214,
      "v": 105
    },
    {
      "midi": 43,
      "hit": false,
      "t": 197760,
      "d": 215,
      "v": 121
    },
    {
      "midi": 62,
      "hit": false,
      "t": 197760,
      "d": 220,
      "v": 117
    },
    {
      "midi": 58,
      "hit": false,
      "t": 198480,
      "d": 101,
      "v": 102
    },
    {
      "midi": 55,
      "hit": false,
      "t": 198480,
      "d": 125,
      "v": 110
    },
    {
      "midi": 43,
      "hit": false,
      "t": 198480,
      "d": 129,
      "v": 110
    },
    {
      "midi": 62,
      "hit": false,
      "t": 198480,
      "d": 165,
      "v": 113
    },
    {
      "midi": 55,
      "hit": false,
      "t": 198720,
      "d": 119,
      "v": 113
    },
    {
      "midi": 60,
      "hit": false,
      "t": 198720,
      "d": 127,
      "v": 113
    },
    {
      "midi": 64,
      "hit": false,
      "t": 198720,
      "d": 131,
      "v": 110
    },
    {
      "midi": 48,
      "hit": false,
      "t": 198720,
      "d": 239,
      "v": 106
    },
    {
      "midi": 55,
      "hit": false,
      "t": 198960,
      "d": 56,
      "v": 113
    },
    {
      "midi": 67,
      "hit": false,
      "t": 199080,
      "d": 124,
      "v": 110
    },
    {
      "midi": 48,
      "hit": false,
      "t": 199320,
      "d": 96,
      "v": 84
    },
    {
      "midi": 55,
      "hit": false,
      "t": 199440,
      "d": 67,
      "v": 93
    },
    {
      "midi": 57,
      "hit": false,
      "t": 199680,
      "d": 187,
      "v": 98
    },
    {
      "midi": 65,
      "hit": false,
      "t": 199680,
      "d": 189,
      "v": 88
    },
    {
      "midi": 60,
      "hit": false,
      "t": 199680,
      "d": 191,
      "v": 98
    },
    {
      "midi": 41,
      "hit": false,
      "t": 199680,
      "d": 197,
      "v": 113
    },
    {
      "midi": 57,
      "hit": false,
      "t": 200400,
      "d": 100,
      "v": 95
    },
    {
      "midi": 41,
      "hit": false,
      "t": 200400,
      "d": 112,
      "v": 105
    },
    {
      "midi": 60,
      "hit": false,
      "t": 200400,
      "d": 139,
      "v": 98
    },
    {
      "midi": 65,
      "hit": false,
      "t": 200400,
      "d": 142,
      "v": 91
    },
    {
      "midi": 67,
      "hit": false,
      "t": 200640,
      "d": 120,
      "v": 110
    },
    {
      "midi": 58,
      "hit": false,
      "t": 200640,
      "d": 156,
      "v": 110
    },
    {
      "midi": 43,
      "hit": false,
      "t": 200640,
      "d": 164,
      "v": 117
    },
    {
      "midi": 62,
      "hit": false,
      "t": 200640,
      "d": 169,
      "v": 113
    },
    {
      "midi": 43,
      "hit": false,
      "t": 201600,
      "d": 114,
      "v": 121
    },
    {
      "midi": 55,
      "hit": false,
      "t": 201600,
      "d": 169,
      "v": 105
    },
    {
      "midi": 58,
      "hit": false,
      "t": 201600,
      "d": 175,
      "v": 91
    },
    {
      "midi": 62,
      "hit": false,
      "t": 201600,
      "d": 176,
      "v": 110
    },
    {
      "midi": 59,
      "hit": false,
      "t": 202320,
      "d": 102,
      "v": 105
    },
    {
      "midi": 63,
      "hit": false,
      "t": 202320,
      "d": 122,
      "v": 95
    },
    {
      "midi": 55,
      "hit": false,
      "t": 202560,
      "d": 177,
      "v": 98
    },
    {
      "midi": 48,
      "hit": false,
      "t": 202560,
      "d": 179,
      "v": 105
    },
    {
      "midi": 64,
      "hit": false,
      "t": 202560,
      "d": 186,
      "v": 95
    },
    {
      "midi": 60,
      "hit": false,
      "t": 202560,
      "d": 187,
      "v": 98
    },
    {
      "midi": 67,
      "hit": false,
      "t": 202920,
      "d": 133,
      "v": 117
    },
    {
      "midi": 55,
      "hit": false,
      "t": 203280,
      "d": 115,
      "v": 117
    },
    {
      "midi": 53,
      "hit": false,
      "t": 203520,
      "d": 117,
      "v": 102
    },
    {
      "midi": 57,
      "hit": false,
      "t": 203520,
      "d": 125,
      "v": 105
    },
    {
      "midi": 60,
      "hit": false,
      "t": 203520,
      "d": 134,
      "v": 102
    },
    {
      "midi": 41,
      "hit": false,
      "t": 203520,
      "d": 145,
      "v": 110
    },
    {
      "midi": 57,
      "hit": false,
      "t": 204240,
      "d": 79,
      "v": 98
    },
    {
      "midi": 53,
      "hit": false,
      "t": 204240,
      "d": 90,
      "v": 102
    },
    {
      "midi": 60,
      "hit": false,
      "t": 204240,
      "d": 97,
      "v": 105
    },
    {
      "midi": 41,
      "hit": false,
      "t": 204240,
      "d": 102,
      "v": 110
    },
    {
      "midi": 55,
      "hit": false,
      "t": 204480,
      "d": 171,
      "v": 98
    },
    {
      "midi": 43,
      "hit": false,
      "t": 204480,
      "d": 182,
      "v": 113
    },
    {
      "midi": 62,
      "hit": false,
      "t": 204480,
      "d": 188,
      "v": 90
    },
    {
      "midi": 58,
      "hit": false,
      "t": 204480,
      "d": 189,
      "v": 102
    },
    {
      "midi": 55,
      "hit": false,
      "t": 205440,
      "d": 213,
      "v": 113
    },
    {
      "midi": 58,
      "hit": false,
      "t": 205440,
      "d": 214,
      "v": 105
    },
    {
      "midi": 43,
      "hit": false,
      "t": 205440,
      "d": 215,
      "v": 121
    },
    {
      "midi": 62,
      "hit": false,
      "t": 205440,
      "d": 220,
      "v": 117
    },
    {
      "midi": 58,
      "hit": false,
      "t": 206160,
      "d": 101,
      "v": 102
    },
    {
      "midi": 55,
      "hit": false,
      "t": 206160,
      "d": 125,
      "v": 110
    },
    {
      "midi": 43,
      "hit": false,
      "t": 206160,
      "d": 129,
      "v": 110
    },
    {
      "midi": 62,
      "hit": false,
      "t": 206160,
      "d": 165,
      "v": 113
    },
    {
      "midi": 55,
      "hit": false,
      "t": 206400,
      "d": 119,
      "v": 113
    },
    {
      "midi": 60,
      "hit": false,
      "t": 206400,
      "d": 127,
      "v": 113
    },
    {
      "midi": 64,
      "hit": false,
      "t": 206400,
      "d": 131,
      "v": 110
    },
    {
      "midi": 48,
      "hit": false,
      "t": 206400,
      "d": 239,
      "v": 106
    },
    {
      "midi": 55,
      "hit": false,
      "t": 206640,
      "d": 56,
      "v": 113
    },
    {
      "midi": 67,
      "hit": false,
      "t": 206760,
      "d": 124,
      "v": 110
    },
    {
      "midi": 48,
      "hit": false,
      "t": 207000,
      "d": 96,
      "v": 84
    },
    {
      "midi": 55,
      "hit": false,
      "t": 207120,
      "d": 67,
      "v": 93
    },
    {
      "midi": 57,
      "hit": false,
      "t": 207360,
      "d": 187,
      "v": 98
    },
    {
      "midi": 65,
      "hit": false,
      "t": 207360,
      "d": 189,
      "v": 88
    },
    {
      "midi": 60,
      "hit": false,
      "t": 207360,
      "d": 191,
      "v": 98
    },
    {
      "midi": 41,
      "hit": false,
      "t": 207360,
      "d": 197,
      "v": 113
    },
    {
      "midi": 57,
      "hit": false,
      "t": 208080,
      "d": 100,
      "v": 95
    },
    {
      "midi": 41,
      "hit": false,
      "t": 208080,
      "d": 112,
      "v": 105
    },
    {
      "midi": 60,
      "hit": false,
      "t": 208080,
      "d": 139,
      "v": 98
    },
    {
      "midi": 65,
      "hit": false,
      "t": 208080,
      "d": 142,
      "v": 91
    },
    {
      "midi": 67,
      "hit": false,
      "t": 208320,
      "d": 120,
      "v": 110
    },
    {
      "midi": 58,
      "hit": false,
      "t": 208320,
      "d": 156,
      "v": 110
    },
    {
      "midi": 43,
      "hit": false,
      "t": 208320,
      "d": 164,
      "v": 117
    },
    {
      "midi": 62,
      "hit": false,
      "t": 208320,
      "d": 169,
      "v": 113
    },
    {
      "midi": 43,
      "hit": false,
      "t": 209280,
      "d": 114,
      "v": 121
    },
    {
      "midi": 55,
      "hit": false,
      "t": 209280,
      "d": 169,
      "v": 105
    },
    {
      "midi": 58,
      "hit": false,
      "t": 209280,
      "d": 175,
      "v": 91
    },
    {
      "midi": 62,
      "hit": false,
      "t": 209280,
      "d": 176,
      "v": 110
    },
    {
      "midi": 59,
      "hit": false,
      "t": 210000,
      "d": 102,
      "v": 105
    },
    {
      "midi": 63,
      "hit": false,
      "t": 210000,
      "d": 122,
      "v": 95
    },
    {
      "midi": 55,
      "hit": false,
      "t": 210240,
      "d": 177,
      "v": 98
    },
    {
      "midi": 48,
      "hit": false,
      "t": 210240,
      "d": 179,
      "v": 105
    },
    {
      "midi": 64,
      "hit": false,
      "t": 210240,
      "d": 186,
      "v": 95
    },
    {
      "midi": 60,
      "hit": false,
      "t": 210240,
      "d": 187,
      "v": 98
    },
    {
      "midi": 67,
      "hit": false,
      "t": 210600,
      "d": 133,
      "v": 117
    },
    {
      "midi": 55,
      "hit": false,
      "t": 210960,
      "d": 115,
      "v": 117
    },
    {
      "midi": 53,
      "hit": false,
      "t": 211200,
      "d": 117,
      "v": 102
    },
    {
      "midi": 57,
      "hit": false,
      "t": 211200,
      "d": 125,
      "v": 105
    },
    {
      "midi": 60,
      "hit": false,
      "t": 211200,
      "d": 134,
      "v": 102
    },
    {
      "midi": 41,
      "hit": false,
      "t": 211200,
      "d": 145,
      "v": 110
    },
    {
      "midi": 57,
      "hit": false,
      "t": 211920,
      "d": 79,
      "v": 98
    },
    {
      "midi": 53,
      "hit": false,
      "t": 211920,
      "d": 90,
      "v": 102
    },
    {
      "midi": 60,
      "hit": false,
      "t": 211920,
      "d": 97,
      "v": 105
    },
    {
      "midi": 41,
      "hit": false,
      "t": 211920,
      "d": 102,
      "v": 110
    },
    {
      "midi": 55,
      "hit": false,
      "t": 212160,
      "d": 171,
      "v": 98
    },
    {
      "midi": 43,
      "hit": false,
      "t": 212160,
      "d": 182,
      "v": 113
    },
    {
      "midi": 62,
      "hit": false,
      "t": 212160,
      "d": 188,
      "v": 90
    },
    {
      "midi": 58,
      "hit": false,
      "t": 212160,
      "d": 189,
      "v": 102
    },
    {
      "midi": 43,
      "hit": false,
      "t": 213120,
      "d": 218,
      "v": 105
    },
    {
      "midi": 70,
      "hit": false,
      "t": 213120,
      "d": 218,
      "v": 105
    },
    {
      "midi": 74,
      "hit": false,
      "t": 213120,
      "d": 218,
      "v": 105
    },
    {
      "midi": 79,
      "hit": false,
      "t": 213120,
      "d": 218,
      "v": 105
    },
    {
      "midi": 43,
      "hit": false,
      "t": 213600,
      "d": 218,
      "v": 100
    },
    {
      "midi": 70,
      "hit": false,
      "t": 213600,
      "d": 218,
      "v": 100
    },
    {
      "midi": 74,
      "hit": false,
      "t": 213600,
      "d": 218,
      "v": 100
    },
    {
      "midi": 79,
      "hit": false,
      "t": 213600,
      "d": 218,
      "v": 100
    },
    {
      "midi": 43,
      "hit": false,
      "t": 214080,
      "d": 218,
      "v": 94
    },
    {
      "midi": 70,
      "hit": false,
      "t": 214080,
      "d": 218,
      "v": 94
    },
    {
      "midi": 74,
      "hit": false,
      "t": 214080,
      "d": 218,
      "v": 94
    },
    {
      "midi": 79,
      "hit": false,
      "t": 214080,
      "d": 218,
      "v": 94
    },
    {
      "midi": 43,
      "hit": false,
      "t": 214560,
      "d": 218,
      "v": 88
    },
    {
      "midi": 70,
      "hit": false,
      "t": 214560,
      "d": 218,
      "v": 88
    },
    {
      "midi": 74,
      "hit": false,
      "t": 214560,
      "d": 218,
      "v": 88
    },
    {
      "midi": 79,
      "hit": false,
      "t": 214560,
      "d": 218,
      "v": 88
    },
    {
      "midi": 43,
      "hit": false,
      "t": 215040,
      "d": 218,
      "v": 82
    },
    {
      "midi": 70,
      "hit": false,
      "t": 215040,
      "d": 218,
      "v": 82
    },
    {
      "midi": 74,
      "hit": false,
      "t": 215040,
      "d": 218,
      "v": 82
    },
    {
      "midi": 79,
      "hit": false,
      "t": 215040,
      "d": 218,
      "v": 82
    },
    {
      "midi": 43,
      "hit": false,
      "t": 215520,
      "d": 218,
      "v": 76
    },
    {
      "midi": 70,
      "hit": false,
      "t": 215520,
      "d": 218,
      "v": 76
    },
    {
      "midi": 74,
      "hit": false,
      "t": 215520,
      "d": 218,
      "v": 76
    },
    {
      "midi": 79,
      "hit": false,
      "t": 215520,
      "d": 218,
      "v": 76
    },
    {
      "midi": 43,
      "hit": false,
      "t": 216000,
      "d": 218,
      "v": 70
    },
    {
      "midi": 70,
      "hit": false,
      "t": 216000,
      "d": 218,
      "v": 70
    },
    {
      "midi": 74,
      "hit": false,
      "t": 216000,
      "d": 218,
      "v": 70
    },
    {
      "midi": 79,
      "hit": false,
      "t": 216000,
      "d": 218,
      "v": 70
    },
    {
      "midi": 43,
      "hit": false,
      "t": 216480,
      "d": 218,
      "v": 64
    },
    {
      "midi": 70,
      "hit": false,
      "t": 216480,
      "d": 218,
      "v": 64
    },
    {
      "midi": 74,
      "hit": false,
      "t": 216480,
      "d": 218,
      "v": 64
    },
    {
      "midi": 79,
      "hit": false,
      "t": 216480,
      "d": 218,
      "v": 64
    }
  ]
}