{
  "jsonPath": "Unknown/Unknown/J Major/britains-favored-isle.json",
  "path": "Unknown\\Unknown\\J Major\\Britains Favored Isle.mid",
  "name": "Britains Favored Isle",
  "difficulty": "Advanced",
  "bpm": 140.00014000014,
  "notes": [
    {
      "midi": 58,
      "hit": false,
      "t": 0,
      "d": 214.2855,
      "v": 127
    },
    {
      "midi": 70,
      "hit": false,
      "t": 0,
      "d": 214.2855,
      "v": 127
    },
    {
      "midi": 34,
      "hit": false,
      "t": 0,
      "d": 214.2855,
      "v": 127
    },
    {
      "midi": 46,
      "hit": false,
      "t": 0,
      "d": 214.2855,
      "v": 127
    },
    {
      "midi": 57,
      "hit": false,
      "t": 214.2855,
      "d": 642.8565000000001,
      "v": 127
    },
    {
      "midi": 69,
      "hit": false,
      "t": 214.2855,
      "d": 642.8565000000001,
      "v": 127
    },
    {
      "midi": 33,
      "hit": false,
      "t": 214.2855,
      "d": 642.8565000000001,
      "v": 127
    },
    {
      "midi": 45,
      "hit": false,
      "t": 214.2855,
      "d": 642.8565000000001,
      "v": 127
    },
    {
      "midi": 58,
      "hit": false,
      "t": 857.142,
      "d": 214.28549999999996,
      "v": 127
    },
    {
      "midi": 70,
      "hit": false,
      "t": 857.142,
      "d": 214.28549999999996,
      "v": 127
    },
    {
      "midi": 34,
      "hit": false,
      "t": 857.142,
      "d": 214.28549999999996,
      "v": 127
    },
    {
      "midi": 46,
      "hit": false,
      "t": 857.142,
      "d": 214.28549999999996,
      "v": 127
    },
    {
      "midi": 63,
      "hit": false,
      "t": 1071.4275,
      "d": 642.8565000000001,
      "v": 127
    },
    {
      "midi": 75,
      "hit": false,
      "t": 1071.4275,
      "d": 642.8565000000001,
      "v": 127
    },
    {
      "midi": 39,
      "hit": false,
      "t": 1071.4275,
      "d": 642.8565000000001,
      "v": 127
    },
    {
      "midi": 51,
      "hit": false,
      "t": 1071.4275,
      "d": 642.8565000000001,
      "v": 127
    },
    {
      "midi": 58,
      "hit": false,
      "t": 1714.284,
      "d": 214.28549999999996,
      "v": 127
    },
    {
      "midi": 70,
      "hit": false,
      "t": 1714.284,
      "d": 214.28549999999996,
      "v": 127
    },
    {
      "midi": 34,
      "hit": false,
      "t": 1714.284,
      "d": 214.28549999999996,
      "v": 127
    },
    {
      "midi": 46,
      "hit": false,
      "t": 1714.284,
      "d": 214.28549999999996,
      "v": 127
    },
    {
      "midi": 55,
      "hit": false,
      "t": 1928.5695,
      "d": 428.5709999999999,
      "v": 127
    },
    {
      "midi": 67,
      "hit": false,
      "t": 1928.5695,
      "d": 428.5709999999999,
      "v": 127
    },
    {
      "midi": 31,
      "hit": false,
      "t": 1928.5695,
      "d": 428.5709999999999,
      "v": 127
    },
    {
      "midi": 43,
      "hit": false,
      "t": 1928.5695,
      "d": 428.5709999999999,
      "v": 127
    },
    {
      "midi": 56,
      "hit": false,
      "t": 2357.1405,
      "d": 428.5709999999999,
      "v": 127
    },
    {
      "midi": 68,
      "hit": false,
      "t": 2357.1405,
      "d": 428.5709999999999,
      "v": 127
    },
    {
      "midi": 32,
      "hit": false,
      "t": 2357.1405,
      "d": 428.5709999999999,
      "v": 127
    },
    {
      "midi": 44,
      "hit": false,
      "t": 2357.1405,
      "d": 428.5709999999999,
      "v": 127
    },
    {
      "midi": 58,
      "hit": false,
      "t": 2785.7115,
      "d": 428.5709999999999,
      "v": 127
    },
    {
      "midi": 70,
      "hit": false,
      "t": 2785.7115,
      "d": 428.5709999999999,
      "v": 127
    },
    {
      "midi": 34,
      "hit": false,
      "t": 2785.7115,
      "d": 428.5709999999999,
      "v": 127
    },
    {
      "midi": 46,
      "hit": false,
      "t": 2785.7115,
      "d": 428.5709999999999,
      "v": 127
    },
    {
      "midi": 68,
      "hit": false,
      "t": 3428.5679999999998,
      "d": 214.28549999999996,
      "v": 127
    },
    {
      "midi": 58,
      "hit": false,
      "t": 3642.8534999999997,
      "d": 428.5709999999999,
      "v": 127
    },
    {
      "midi": 63,
      "hit": false,
      "t": 3642.8534999999997,
      "d": 428.5709999999999,
      "v": 127
    },
    {
      "midi": 67,
      "hit": false,
      "t": 3642.8534999999997,
      "d": 428.5709999999999,
      "v": 127
    },
    {
      "midi": 39,
      "hit": false,
      "t": 3642.8534999999997,
      "d": 857.1420000000003,
      "v": 127
    },
    {
      "midi": 51,
      "hit": false,
      "t": 3642.8534999999997,
      "d": 857.1420000000003,
      "v": 127
    },
    {
      "midi": 55,
      "hit": false,
      "t": 4071.4244999999996,
      "d": 428.57100000000037,
      "v": 127
    },
    {
      "midi": 58,
      "hit": false,
      "t": 4071.4244999999996,
      "d": 428.57100000000037,
      "v": 127
    },
    {
      "midi": 63,
      "hit": false,
      "t": 4071.4244999999996,
      "d": 428.57100000000037,
      "v": 127
    },
    {
      "midi": 63,
      "hit": false,
      "t": 4499.9955,
      "d": 428.5709999999999,
      "v": 127
    },
    {
      "midi": 68,
      "hit": false,
      "t": 4499.9955,
      "d": 428.5709999999999,
      "v": 127
    },
    {
      "midi": 72,
      "hit": false,
      "t": 4499.9955,
      "d": 428.5709999999999,
      "v": 127
    },
    {
      "midi": 44,
      "hit": false,
      "t": 4499.9955,
      "d": 642.8564999999999,
      "v": 127
    },
    {
      "midi": 56,
      "hit": false,
      "t": 4499.9955,
      "d": 642.8564999999999,
      "v": 127
    },
    {
      "midi": 60,
      "hit": false,
      "t": 4928.5665,
      "d": 214.28549999999996,
      "v": 127
    },
    {
      "midi": 63,
      "hit": false,
      "t": 4928.5665,
      "d": 214.28549999999996,
      "v": 127
    },
    {
      "midi": 68,
      "hit": false,
      "t": 4928.5665,
      "d": 214.28549999999996,
      "v": 127
    },
    {
      "midi": 58,
      "hit": false,
      "t": 5357.1375,
      "d": 428.5709999999999,
      "v": 127
    },
    {
      "midi": 63,
      "hit": false,
      "t": 5357.1375,
      "d": 428.5709999999999,
      "v": 127
    },
    {
      "midi": 67,
      "hit": false,
      "t": 5357.1375,
      "d": 428.5709999999999,
      "v": 127
    },
    {
      "midi": 39,
      "hit": false,
      "t": 5357.1375,
      "d": 428.5709999999999,
      "v": 127
    },
    {
      "midi": 51,
      "hit": false,
      "t": 5357.1375,
      "d": 428.5709999999999,
      "v": 127
    },
    {
      "midi": 58,
      "hit": false,
      "t": 5785.7085,
      "d": 321.42824999999993,
      "v": 127
    },
    {
      "midi": 63,
      "hit": false,
      "t": 5785.7085,
      "d": 321.42824999999993,
      "v": 127
    },
    {
      "midi": 67,
      "hit": false,
      "t": 5785.7085,
      "d": 321.42824999999993,
      "v": 127
    },
    {
      "midi": 39,
      "hit": false,
      "t": 5785.7085,
      "d": 321.42824999999993,
      "v": 127
    },
    {
      "midi": 51,
      "hit": false,
      "t": 5785.7085,
      "d": 321.42824999999993,
      "v": 127
    },
    {
      "midi": 58,
      "hit": false,
      "t": 6107.13675,
      "d": 107.14274999999998,
      "v": 127
    },
    {
      "midi": 63,
      "hit": false,
      "t": 6107.13675,
      "d": 107.14274999999998,
      "v": 127
    },
    {
      "midi": 67,
      "hit": false,
      "t": 6107.13675,
      "d": 107.14274999999998,
      "v": 127
    },
    {
      "midi": 39,
      "hit": false,
      "t": 6107.13675,
      "d": 107.14274999999998,
      "v": 127
    },
    {
      "midi": 51,
      "hit": false,
      "t": 6107.13675,
      "d": 107.14274999999998,
      "v": 127
    },
    {
      "midi": 58,
      "hit": false,
      "t": 6214.2795,
      "d": 428.5709999999999,
      "v": 127
    },
    {
      "midi": 63,
      "hit": false,
      "t": 6214.2795,
      "d": 428.5709999999999,
      "v": 127
    },
    {
      "midi": 67,
      "hit": false,
      "t": 6214.2795,
      "d": 428.5709999999999,
      "v": 127
    },
    {
      "midi": 39,
      "hit": false,
      "t": 6214.2795,
      "d": 428.5709999999999,
      "v": 127
    },
    {
      "midi": 51,
      "hit": false,
      "t": 6214.2795,
      "d": 428.5709999999999,
      "v": 127
    },
    {
      "midi": 70,
      "hit": false,
      "t": 6642.8505,
      "d": 214.28549999999996,
      "v": 127
    },
    {
      "midi": 72,
      "hit": false,
      "t": 6857.1359999999995,
      "d": 107.14274999999998,
      "v": 127
    },
    {
      "midi": 74,
      "hit": false,
      "t": 6964.2787499999995,
      "d": 107.14274999999998,
      "v": 127
    },
    {
      "midi": 67,
      "hit": false,
      "t": 7071.4214999999995,
      "d": 428.5709999999999,
      "v": 127
    },
    {
      "midi": 70,
      "hit": false,
      "t": 7071.4214999999995,
      "d": 428.5709999999999,
      "v": 127
    },
    {
      "midi": 75,
      "hit": false,
      "t": 7071.4214999999995,
      "d": 428.5709999999999,
      "v": 127
    },
    {
      "midi": 39,
      "hit": false,
      "t": 7071.4214999999995,
      "d": 428.5709999999999,
      "v": 127
    },
    {
      "midi": 51,
      "hit": false,
      "t": 7071.4214999999995,
      "d": 428.5709999999999,
      "v": 127
    },
    {
      "midi": 70,
      "hit": false,
      "t": 7499.992499999999,
      "d": 321.42824999999993,
      "v": 127
    },
    {
      "midi": 75,
      "hit": false,
      "t": 7499.992499999999,
      "d": 321.42824999999993,
      "v": 127
    },
    {
      "midi": 79,
      "hit": false,
      "t": 7499.992499999999,
      "d": 321.42824999999993,
      "v": 127
    },
    {
      "midi": 51,
      "hit": false,
      "t": 7499.992499999999,
      "d": 428.5709999999999,
      "v": 127
    },
    {
      "midi": 63,
      "hit": false,
      "t": 7499.992499999999,
      "d": 428.5709999999999,
      "v": 127
    },
    {
      "midi": 70,
      "hit": false,
      "t": 7821.420749999999,
      "d": 107.14274999999998,
      "v": 127
    },
    {
      "midi": 75,
      "hit": false,
      "t": 7821.420749999999,
      "d": 107.14274999999998,
      "v": 127
    },
    {
      "midi": 79,
      "hit": false,
      "t": 7821.420749999999,
      "d": 107.14274999999998,
      "v": 127
    },
    {
      "midi": 70,
      "hit": false,
      "t": 7928.563499999999,
      "d": 428.5710000000008,
      "v": 127
    },
    {
      "midi": 74,
      "hit": false,
      "t": 7928.563499999999,
      "d": 428.5710000000008,
      "v": 127
    },
    {
      "midi": 77,
      "hit": false,
      "t": 7928.563499999999,
      "d": 428.5710000000008,
      "v": 127
    },
    {
      "midi": 46,
      "hit": false,
      "t": 7928.563499999999,
      "d": 428.5710000000008,
      "v": 127
    },
    {
      "midi": 58,
      "hit": false,
      "t": 7928.563499999999,
      "d": 428.5710000000008,
      "v": 127
    },
    {
      "midi": 67,
      "hit": false,
      "t": 8357.1345,
      "d": 214.28549999999996,
      "v": 127
    },
    {
      "midi": 69,
      "hit": false,
      "t": 8571.42,
      "d": 107.14275000000089,
      "v": 127
    },
    {
      "midi": 71,
      "hit": false,
      "t": 8678.562750000001,
      "d": 107.14275000000089,
      "v": 127
    },
    {
      "midi": 36,
      "hit": false,
      "t": 8785.7055,
      "d": 428.5709999999999,
      "v": 127
    },
    {
      "midi": 48,
      "hit": false,
      "t": 8785.7055,
      "d": 428.5709999999999,
      "v": 127
    },
    {
      "midi": 63,
      "hit": false,
      "t": 8785.705500000002,
      "d": 428.5709999999999,
      "v": 127
    },
    {
      "midi": 67,
      "hit": false,
      "t": 8785.705500000002,
      "d": 428.5709999999999,
      "v": 127
    },
    {
      "midi": 72,
      "hit": false,
      "t": 8785.705500000002,
      "d": 428.5709999999999,
      "v": 127
    },
    {
      "midi": 48,
      "hit": false,
      "t": 9214.2765,
      "d": 428.5709999999999,
      "v": 127
    },
    {
      "midi": 60,
      "hit": false,
      "t": 9214.2765,
      "d": 428.5709999999999,
      "v": 127
    },
    {
      "midi": 67,
      "hit": false,
      "t": 9214.276500000002,
      "d": 321.42825000000084,
      "v": 127
    },
    {
      "midi": 72,
      "hit": false,
      "t": 9214.276500000002,
      "d": 321.42825000000084,
      "v": 127
    },
    {
      "midi": 75,
      "hit": false,
      "t": 9214.276500000002,
      "d": 321.42825000000084,
      "v": 127
    },
    {
      "midi": 67,
      "hit": false,
      "t": 9535.704750000003,
      "d": 107.14275000000089,
      "v": 127
    },
    {
      "midi": 72,
      "hit": false,
      "t": 9535.704750000003,
      "d": 107.14275000000089,
      "v": 127
    },
    {
      "midi": 75,
      "hit": false,
      "t": 9535.704750000003,
      "d": 107.14275000000089,
      "v": 127
    },
    {
      "midi": 43,
      "hit": false,
      "t": 9642.8475,
      "d": 428.5709999999999,
      "v": 127
    },
    {
      "midi": 55,
      "hit": false,
      "t": 9642.8475,
      "d": 428.5709999999999,
      "v": 127
    },
    {
      "midi": 67,
      "hit": false,
      "t": 9642.847500000003,
      "d": 428.5709999999999,
      "v": 127
    },
    {
      "midi": 71,
      "hit": false,
      "t": 9642.847500000003,
      "d": 428.5709999999999,
      "v": 127
    },
    {
      "midi": 74,
      "hit": false,
      "t": 9642.847500000003,
      "d": 428.5709999999999,
      "v": 127
    },
    {
      "midi": 43,
      "hit": false,
      "t": 10285.704,
      "d": 214.28549999999996,
      "v": 127
    },
    {
      "midi": 55,
      "hit": false,
      "t": 10285.704,
      "d": 214.28549999999996,
      "v": 127
    },
    {
      "midi": 67,
      "hit": false,
      "t": 10285.704000000003,
      "d": 214.28549999999996,
      "v": 127
    },
    {
      "midi": 44,
      "hit": false,
      "t": 10499.9895,
      "d": 214.28549999999996,
      "v": 127
    },
    {
      "midi": 56,
      "hit": false,
      "t": 10499.9895,
      "d": 214.28549999999996,
      "v": 127
    },
    {
      "midi": 68,
      "hit": false,
      "t": 10499.989500000003,
      "d": 214.28549999999996,
      "v": 127
    },
    {
      "midi": 43,
      "hit": false,
      "t": 10714.275,
      "d": 214.28549999999996,
      "v": 127
    },
    {
      "midi": 55,
      "hit": false,
      "t": 10714.275,
      "d": 214.28549999999996,
      "v": 127
    },
    {
      "midi": 67,
      "hit": false,
      "t": 10714.275000000003,
      "d": 214.28549999999996,
      "v": 127
    },
    {
      "midi": 41,
      "hit": false,
      "t": 10928.5605,
      "d": 214.28549999999996,
      "v": 127
    },
    {
      "midi": 53,
      "hit": false,
      "t": 10928.5605,
      "d": 214.28549999999996,
      "v": 127
    },
    {
      "midi": 65,
      "hit": false,
      "t": 10928.560500000003,
      "d": 214.28549999999996,
      "v": 127
    },
    {
      "midi": 39,
      "hit": false,
      "t": 11142.846,
      "d": 214.28549999999996,
      "v": 127
    },
    {
      "midi": 51,
      "hit": false,
      "t": 11142.846,
      "d": 214.28549999999996,
      "v": 127
    },
    {
      "midi": 63,
      "hit": false,
      "t": 11142.846000000003,
      "d": 214.28549999999996,
      "v": 127
    },
    {
      "midi": 46,
      "hit": false,
      "t": 11357.1315,
      "d": 642.8564999999999,
      "v": 127
    },
    {
      "midi": 58,
      "hit": false,
      "t": 11357.1315,
      "d": 642.8564999999999,
      "v": 127
    },
    {
      "midi": 70,
      "hit": false,
      "t": 11357.131500000003,
      "d": 428.5709999999999,
      "v": 127
    },
    {
      "midi": 74,
      "hit": false,
      "t": 11785.702500000003,
      "d": 214.28549999999996,
      "v": 127
    },
    {
      "midi": 39,
      "hit": false,
      "t": 12214.2735,
      "d": 642.8564999999999,
      "v": 127
    },
    {
      "midi": 51,
      "hit": false,
      "t": 12214.2735,
      "d": 642.8564999999999,
      "v": 127
    },
    {
      "midi": 67,
      "hit": false,
      "t": 12214.273500000003,
      "d": 642.8564999999999,
      "v": 127
    },
    {
      "midi": 70,
      "hit": false,
      "t": 12214.273500000003,
      "d": 642.8564999999999,
      "v": 127
    },
    {
      "midi": 75,
      "hit": false,
      "t": 12214.273500000003,
      "d": 642.8564999999999,
      "v": 127
    },
    {
      "midi": 39,
      "hit": false,
      "t": 12964.27275,
      "d": 107.14275000000089,
      "v": 127
    },
    {
      "midi": 51,
      "hit": false,
      "t": 12964.27275,
      "d": 107.14275000000089,
      "v": 127
    },
    {
      "midi": 55,
      "hit": false,
      "t": 12964.272750000004,
      "d": 107.14275000000089,
      "v": 127
    },
    {
      "midi": 58,
      "hit": false,
      "t": 12964.272750000004,
      "d": 107.14275000000089,
      "v": 127
    },
    {
      "midi": 63,
      "hit": false,
      "t": 12964.272750000004,
      "d": 107.14275000000089,
      "v": 127
    },
    {
      "midi": 39,
      "hit": false,
      "t": 13071.415500000001,
      "d": 428.5709999999999,
      "v": 127
    },
    {
      "midi": 51,
      "hit": false,
      "t": 13071.415500000001,
      "d": 428.5709999999999,
      "v": 127
    },
    {
      "midi": 55,
      "hit": false,
      "t": 13071.415500000005,
      "d": 428.5709999999999,
      "v": 127
    },
    {
      "midi": 58,
      "hit": false,
      "t": 13071.415500000005,
      "d": 428.5709999999999,
      "v": 127
    },
    {
      "midi": 63,
      "hit": false,
      "t": 13071.415500000005,
      "d": 428.5709999999999,
      "v": 127
    },
    {
      "midi": 33,
      "hit": false,
      "t": 13928.5575,
      "d": 642.8564999999999,
      "v": 127
    },
    {
      "midi": 45,
      "hit": false,
      "t": 13928.5575,
      "d": 642.8564999999999,
      "v": 127
    },
    {
      "midi": 57,
      "hit": false,
      "t": 13928.557500000004,
      "d": 642.8564999999999,
      "v": 127
    },
    {
      "midi": 69,
      "hit": false,
      "t": 13928.557500000004,
      "d": 642.8564999999999,
      "v": 127
    },
    {
      "midi": 34,
      "hit": false,
      "t": 14571.414,
      "d": 214.28549999999996,
      "v": 127
    },
    {
      "midi": 46,
      "hit": false,
      "t": 14571.414,
      "d": 214.28549999999996,
      "v": 127
    },
    {
      "midi": 58,
      "hit": false,
      "t": 14571.414000000004,
      "d": 214.28549999999996,
      "v": 127
    },
    {
      "midi": 70,
      "hit": false,
      "t": 14571.414000000004,
      "d": 214.28549999999996,
      "v": 127
    },
    {
      "midi": 39,
      "hit": false,
      "t": 14785.6995,
      "d": 642.8564999999999,
      "v": 127
    },
    {
      "midi": 51,
      "hit": false,
      "t": 14785.6995,
      "d": 642.8564999999999,
      "v": 127
    },
    {
      "midi": 63,
      "hit": false,
      "t": 14785.699500000004,
      "d": 642.8564999999999,
      "v": 127
    },
    {
      "midi": 75,
      "hit": false,
      "t": 14785.699500000004,
      "d": 642.8564999999999,
      "v": 127
    },
    {
      "midi": 34,
      "hit": false,
      "t": 15428.556,
      "d": 214.28549999999996,
      "v": 127
    },
    {
      "midi": 46,
      "hit": false,
      "t": 15428.556,
      "d": 214.28549999999996,
      "v": 127
    },
    {
      "midi": 58,
      "hit": false,
      "t": 15428.556000000004,
      "d": 214.28549999999996,
      "v": 127
    },
    {
      "midi": 70,
      "hit": false,
      "t": 15428.556000000004,
      "d": 214.28549999999996,
      "v": 127
    },
    {
      "midi": 31,
      "hit": false,
      "t": 15642.8415,
      "d": 428.5709999999999,
      "v": 127
    },
    {
      "midi": 43,
      "hit": false,
      "t": 15642.8415,
      "d": 428.5709999999999,
      "v": 127
    },
    {
      "midi": 55,
      "hit": false,
      "t": 15642.841500000004,
      "d": 428.5709999999999,
      "v": 127
    },
    {
      "midi": 67,
      "hit": false,
      "t": 15642.841500000004,
      "d": 428.5709999999999,
      "v": 127
    },
    {
      "midi": 32,
      "hit": false,
      "t": 16071.4125,
      "d": 428.57100000000173,
      "v": 127
    },
    {
      "midi": 44,
      "hit": false,
      "t": 16071.4125,
      "d": 428.57100000000173,
      "v": 127
    },
    {
      "midi": 56,
      "hit": false,
      "t": 16071.412500000004,
      "d": 428.57100000000173,
      "v": 127
    },
    {
      "midi": 68,
      "hit": false,
      "t": 16071.412500000004,
      "d": 428.57100000000173,
      "v": 127
    },
    {
      "midi": 34,
      "hit": false,
      "t": 16499.983500000002,
      "d": 428.5709999999999,
      "v": 127
    },
    {
      "midi": 46,
      "hit": false,
      "t": 16499.983500000002,
      "d": 428.5709999999999,
      "v": 127
    },
    {
      "midi": 58,
      "hit": false,
      "t": 16499.983500000006,
      "d": 428.5709999999999,
      "v": 127
    },
    {
      "midi": 70,
      "hit": false,
      "t": 16499.983500000006,
      "d": 428.5709999999999,
      "v": 127
    },
    {
      "midi": 39,
      "hit": false,
      "t": 17357.125500000002,
      "d": 857.1419999999998,
      "v": 127
    },
    {
      "midi": 51,
      "hit": false,
      "t": 17357.125500000002,
      "d": 857.1419999999998,
      "v": 127
    },
    {
      "midi": 58,
      "hit": false,
      "t": 17357.125500000006,
      "d": 428.5709999999999,
      "v": 127
    },
    {
      "midi": 63,
      "hit": false,
      "t": 17357.125500000006,
      "d": 428.5709999999999,
      "v": 127
    },
    {
      "midi": 67,
      "hit": false,
      "t": 17357.125500000006,
      "d": 428.5709999999999,
      "v": 127
    },
    {
      "midi": 55,
      "hit": false,
      "t": 17785.696500000005,
      "d": 428.5709999999999,
      "v": 127
    },
    {
      "midi": 58,
      "hit": false,
      "t": 17785.696500000005,
      "d": 428.5709999999999,
      "v": 127
    },
    {
      "midi": 63,
      "hit": false,
      "t": 17785.696500000005,
      "d": 428.5709999999999,
      "v": 127
    },
    {
      "midi": 44,
      "hit": false,
      "t": 18214.2675,
      "d": 642.8565000000017,
      "v": 127
    },
    {
      "midi": 56,
      "hit": false,
      "t": 18214.2675,
      "d": 642.8565000000017,
      "v": 127
    },
    {
      "midi": 63,
      "hit": false,
      "t": 18214.267500000005,
      "d": 428.5709999999999,
      "v": 127
    },
    {
      "midi": 68,
      "hit": false,
      "t": 18214.267500000005,
      "d": 428.5709999999999,
      "v": 127
    },
    {
      "midi": 72,
      "hit": false,
      "t": 18214.267500000005,
      "d": 428.5709999999999,
      "v": 127
    },
    {
      "midi": 60,
      "hit": false,
      "t": 18642.838500000005,
      "d": 214.28550000000178,
      "v": 127
    },
    {
      "midi": 63,
      "hit": false,
      "t": 18642.838500000005,
      "d": 214.28550000000178,
      "v": 127
    },
    {
      "midi": 68,
      "hit": false,
      "t": 18642.838500000005,
      "d": 214.28550000000178,
      "v": 127
    },
    {
      "midi": 39,
      "hit": false,
      "t": 19071.409500000005,
      "d": 428.5709999999999,
      "v": 127
    },
    {
      "midi": 51,
      "hit": false,
      "t": 19071.409500000005,
      "d": 428.5709999999999,
      "v": 127
    },
    {
      "midi": 58,
      "hit": false,
      "t": 19071.40950000001,
      "d": 428.5709999999999,
      "v": 127
    },
    {
      "midi": 63,
      "hit": false,
      "t": 19071.40950000001,
      "d": 428.5709999999999,
      "v": 127
    },
    {
      "midi": 67,
      "hit": false,
      "t": 19071.40950000001,
      "d": 428.5709999999999,
      "v": 127
    },
    {
      "midi": 39,
      "hit": false,
      "t": 19499.980500000005,
      "d": 321.42825000000084,
      "v": 127
    },
    {
      "midi": 51,
      "hit": false,
      "t": 19499.980500000005,
      "d": 321.42825000000084,
      "v": 127
    },
    {
      "midi": 58,
      "hit": false,
      "t": 19499.98050000001,
      "d": 321.42825000000084,
      "v": 127
    },
    {
      "midi": 63,
      "hit": false,
      "t": 19499.98050000001,
      "d": 321.42825000000084,
      "v": 127
    },
    {
      "midi": 67,
      "hit": false,
      "t": 19499.98050000001,
      "d": 321.42825000000084,
      "v": 127
    },
    {
      "midi": 39,
      "hit": false,
      "t": 19821.408750000006,
      "d": 107.14274999999907,
      "v": 127
    },
    {
      "midi": 51,
      "hit": false,
      "t": 19821.408750000006,
      "d": 107.14274999999907,
      "v": 127
    },
    {
      "midi": 58,
      "hit": false,
      "t": 19821.40875000001,
      "d": 107.14274999999907,
      "v": 127
    },
    {
      "midi": 63,
      "hit": false,
      "t": 19821.40875000001,
      "d": 107.14274999999907,
      "v": 127
    },
    {
      "midi": 67,
      "hit": false,
      "t": 19821.40875000001,
      "d": 107.14274999999907,
      "v": 127
    },
    {
      "midi": 39,
      "hit": false,
      "t": 19928.551500000005,
      "d": 428.5709999999999,
      "v": 127
    },
    {
      "midi": 51,
      "hit": false,
      "t": 19928.551500000005,
      "d": 428.5709999999999,
      "v": 127
    },
    {
      "midi": 58,
      "hit": false,
      "t": 19928.55150000001,
      "d": 428.5709999999999,
      "v": 127
    },
    {
      "midi": 63,
      "hit": false,
      "t": 19928.55150000001,
      "d": 428.5709999999999,
      "v": 127
    },
    {
      "midi": 67,
      "hit": false,
      "t": 19928.55150000001,
      "d": 428.5709999999999,
      "v": 127
    },
    {
      "midi": 46,
      "hit": false,
      "t": 20785.693500000005,
      "d": 428.5709999999999,
      "v": 127
    },
    {
      "midi": 58,
      "hit": false,
      "t": 20785.693500000005,
      "d": 428.5709999999999,
      "v": 127
    },
    {
      "midi": 62,
      "hit": false,
      "t": 20785.69350000001,
      "d": 428.5709999999999,
      "v": 127
    },
    {
      "midi": 65,
      "hit": false,
      "t": 20785.69350000001,
      "d": 428.5709999999999,
      "v": 127
    },
    {
      "midi": 70,
      "hit": false,
      "t": 20785.69350000001,
      "d": 428.5709999999999,
      "v": 127
    },
    {
      "midi": 46,
      "hit": false,
      "t": 21642.835500000005,
      "d": 428.5709999999999,
      "v": 127
    },
    {
      "midi": 58,
      "hit": false,
      "t": 21642.835500000005,
      "d": 428.5709999999999,
      "v": 127
    },
    {
      "midi": 62,
      "hit": false,
      "t": 21642.83550000001,
      "d": 428.5709999999999,
      "v": 127
    },
    {
      "midi": 65,
      "hit": false,
      "t": 21642.83550000001,
      "d": 428.5709999999999,
      "v": 127
    },
    {
      "midi": 70,
      "hit": false,
      "t": 21642.83550000001,
      "d": 428.5709999999999,
      "v": 127
    },
    {
      "midi": 39,
      "hit": false,
      "t": 22499.977500000005,
      "d": 428.5709999999999,
      "v": 127
    },
    {
      "midi": 51,
      "hit": false,
      "t": 22499.977500000005,
      "d": 428.5709999999999,
      "v": 127
    },
    {
      "midi": 58,
      "hit": false,
      "t": 22499.977500000008,
      "d": 428.5709999999999,
      "v": 127
    },
    {
      "midi": 63,
      "hit": false,
      "t": 22499.977500000008,
      "d": 428.5709999999999,
      "v": 127
    },
    {
      "midi": 67,
      "hit": false,
      "t": 22499.977500000008,
      "d": 428.5709999999999,
      "v": 127
    },
    {
      "midi": 34,
      "hit": false,
      "t": 23357.119500000004,
      "d": 428.5709999999999,
      "v": 127
    },
    {
      "midi": 46,
      "hit": false,
      "t": 23357.119500000004,
      "d": 428.5709999999999,
      "v": 127
    },
    {
      "midi": 58,
      "hit": false,
      "t": 23357.119500000008,
      "d": 428.5709999999999,
      "v": 127
    },
    {
      "midi": 62,
      "hit": false,
      "t": 23357.119500000008,
      "d": 428.5709999999999,
      "v": 127
    },
    {
      "midi": 65,
      "hit": false,
      "t": 23357.119500000008,
      "d": 428.5709999999999,
      "v": 127
    },
    {
      "midi": 39,
      "hit": false,
      "t": 24214.261500000004,
      "d": 857.1419999999998,
      "v": 127
    },
    {
      "midi": 51,
      "hit": false,
      "t": 24214.261500000004,
      "d": 857.1419999999998,
      "v": 127
    },
    {
      "midi": 58,
      "hit": false,
      "t": 24214.261500000008,
      "d": 857.1419999999998,
      "v": 127
    },
    {
      "midi": 63,
      "hit": false,
      "t": 24214.261500000008,
      "d": 857.1419999999998,
      "v": 127
    },
    {
      "midi": 67,
      "hit": false,
      "t": 24214.261500000008,
      "d": 857.1419999999998,
      "v": 127
    },
    {
      "midi": 41,
      "hit": false,
      "t": 25071.403500000004,
      "d": 642.8565000000017,
      "v": 127
    },
    {
      "midi": 53,
      "hit": false,
      "t": 25071.403500000004,
      "d": 642.8565000000017,
      "v": 127
    },
    {
      "midi": 70,
      "hit": false,
      "t": 25071.403500000008,
      "d": 642.8565000000017,
      "v": 127
    },
    {
      "midi": 74,
      "hit": false,
      "t": 25071.403500000008,
      "d": 642.8565000000017,
      "v": 127
    },
    {
      "midi": 69,
      "hit": false,
      "t": 25714.26000000001,
      "d": 214.28550000000178,
      "v": 127
    },
    {
      "midi": 72,
      "hit": false,
      "t": 25714.26000000001,
      "d": 214.28550000000178,
      "v": 127
    },
    {
      "midi": 38,
      "hit": false,
      "t": 25928.545500000007,
      "d": 857.1419999999998,
      "v": 127
    },
    {
      "midi": 50,
      "hit": false,
      "t": 25928.545500000007,
      "d": 857.1419999999998,
      "v": 127
    },
    {
      "midi": 66,
      "hit": false,
      "t": 25928.54550000001,
      "d": 428.5709999999999,
      "v": 127
    },
    {
      "midi": 69,
      "hit": false,
      "t": 25928.54550000001,
      "d": 428.5709999999999,
      "v": 127
    },
    {
      "midi": 74,
      "hit": false,
      "t": 25928.54550000001,
      "d": 428.5709999999999,
      "v": 127
    },
    {
      "midi": 62,
      "hit": false,
      "t": 26357.11650000001,
      "d": 321.42825000000084,
      "v": 127
    },
    {
      "midi": 74,
      "hit": false,
      "t": 26357.11650000001,
      "d": 321.42825000000084,
      "v": 127
    },
    {
      "midi": 62,
      "hit": false,
      "t": 26678.544750000012,
      "d": 107.14274999999907,
      "v": 127
    },
    {
      "midi": 74,
      "hit": false,
      "t": 26678.544750000012,
      "d": 107.14274999999907,
      "v": 127
    },
    {
      "midi": 62,
      "hit": false,
      "t": 26785.68750000001,
      "d": 428.5709999999999,
      "v": 127
    },
    {
      "midi": 74,
      "hit": false,
      "t": 26785.68750000001,
      "d": 428.5709999999999,
      "v": 127
    },
    {
      "midi": 43,
      "hit": false,
      "t": 27642.829500000007,
      "d": 857.1419999999998,
      "v": 127
    },
    {
      "midi": 55,
      "hit": false,
      "t": 27642.829500000007,
      "d": 857.1419999999998,
      "v": 127
    },
    {
      "midi": 62,
      "hit": false,
      "t": 27642.82950000001,
      "d": 428.5709999999999,
      "v": 127
    },
    {
      "midi": 67,
      "hit": false,
      "t": 27642.82950000001,
      "d": 428.5709999999999,
      "v": 127
    },
    {
      "midi": 70,
      "hit": false,
      "t": 27642.82950000001,
      "d": 428.5709999999999,
      "v": 127
    },
    {
      "midi": 70,
      "hit": false,
      "t": 28071.40050000001,
      "d": 214.28550000000178,
      "v": 127
    },
    {
      "midi": 72,
      "hit": false,
      "t": 28285.686000000012,
      "d": 214.28550000000178,
      "v": 127
    },
    {
      "midi": 41,
      "hit": false,
      "t": 28499.971500000007,
      "d": 428.5709999999999,
      "v": 127
    },
    {
      "midi": 53,
      "hit": false,
      "t": 28499.971500000007,
      "d": 428.5709999999999,
      "v": 127
    },
    {
      "midi": 65,
      "hit": false,
      "t": 28499.971500000014,
      "d": 642.8565000000017,
      "v": 127
    },
    {
      "midi": 70,
      "hit": false,
      "t": 28499.971500000014,
      "d": 642.8565000000017,
      "v": 127
    },
    {
      "midi": 74,
      "hit": false,
      "t": 28499.971500000014,
      "d": 642.8565000000017,
      "v": 127
    },
    {
      "midi": 41,
      "hit": false,
      "t": 28928.542500000007,
      "d": 214.28550000000178,
      "v": 127
    },
    {
      "midi": 53,
      "hit": false,
      "t": 28928.542500000007,
      "d": 214.28550000000178,
      "v": 127
    },
    {
      "midi": 63,
      "hit": false,
      "t": 29142.828000000016,
      "d": 214.28550000000178,
      "v": 127
    },
    {
      "midi": 69,
      "hit": false,
      "t": 29142.828000000016,
      "d": 214.28550000000178,
      "v": 127
    },
    {
      "midi": 72,
      "hit": false,
      "t": 29142.828000000016,
      "d": 214.28550000000178,
      "v": 127
    },
    {
      "midi": 46,
      "hit": false,
      "t": 29357.11350000001,
      "d": 857.1419999999998,
      "v": 127
    },
    {
      "midi": 58,
      "hit": false,
      "t": 29357.11350000001,
      "d": 857.1419999999998,
      "v": 127
    },
    {
      "midi": 62,
      "hit": false,
      "t": 29357.113500000018,
      "d": 428.5709999999999,
      "v": 127
    },
    {
      "midi": 65,
      "hit": false,
      "t": 29357.113500000018,
      "d": 428.5709999999999,
      "v": 127
    },
    {
      "midi": 70,
      "hit": false,
      "t": 29357.113500000018,
      "d": 428.5709999999999,
      "v": 127
    },
    {
      "midi": 65,
      "hit": false,
      "t": 29785.684500000018,
      "d": 321.42825000000084,
      "v": 127
    },
    {
      "midi": 74,
      "hit": false,
      "t": 30107.11275000002,
      "d": 107.14274999999907,
      "v": 127
    },
    {
      "midi": 41,
      "hit": false,
      "t": 30214.25550000001,
      "d": 428.5709999999999,
      "v": 127
    },
    {
      "midi": 46,
      "hit": false,
      "t": 30214.25550000001,
      "d": 428.5709999999999,
      "v": 127
    },
    {
      "midi": 62,
      "hit": false,
      "t": 30214.255500000017,
      "d": 428.5709999999999,
      "v": 127
    },
    {
      "midi": 70,
      "hit": false,
      "t": 30214.255500000017,
      "d": 428.5709999999999,
      "v": 127
    },
    {
      "midi": 39,
      "hit": false,
      "t": 31071.39750000001,
      "d": 428.5709999999999,
      "v": 127
    },
    {
      "midi": 51,
      "hit": false,
      "t": 31071.39750000001,
      "d": 428.5709999999999,
      "v": 127
    },
    {
      "midi": 58,
      "hit": false,
      "t": 31071.397500000017,
      "d": 214.28550000000178,
      "v": 127
    },
    {
      "midi": 67,
      "hit": false,
      "t": 31071.397500000017,
      "d": 214.28550000000178,
      "v": 127
    },
    {
      "midi": 63,
      "hit": false,
      "t": 31285.68300000002,
      "d": 214.28550000000178,
      "v": 127
    },
    {
      "midi": 58,
      "hit": false,
      "t": 31499.96850000002,
      "d": 214.28550000000178,
      "v": 127
    },
    {
      "midi": 67,
      "hit": false,
      "t": 31499.96850000002,
      "d": 214.28550000000178,
      "v": 127
    },
    {
      "midi": 63,
      "hit": false,
      "t": 31714.254000000023,
      "d": 214.28550000000178,
      "v": 127
    },
    {
      "midi": 39,
      "hit": false,
      "t": 31928.53950000001,
      "d": 428.5709999999999,
      "v": 127
    },
    {
      "midi": 51,
      "hit": false,
      "t": 31928.53950000001,
      "d": 428.5709999999999,
      "v": 127
    },
    {
      "midi": 58,
      "hit": false,
      "t": 31928.539500000024,
      "d": 214.28550000000178,
      "v": 127
    },
    {
      "midi": 67,
      "hit": false,
      "t": 31928.539500000024,
      "d": 214.28550000000178,
      "v": 127
    },
    {
      "midi": 63,
      "hit": false,
      "t": 32142.825000000026,
      "d": 214.28550000000178,
      "v": 127
    },
    {
      "midi": 58,
      "hit": false,
      "t": 32357.110500000028,
      "d": 214.28550000000178,
      "v": 127
    },
    {
      "midi": 67,
      "hit": false,
      "t": 32357.110500000028,
      "d": 214.28550000000178,
      "v": 127
    },
    {
      "midi": 63,
      "hit": false,
      "t": 32571.39600000003,
      "d": 214.28549999999814,
      "v": 127
    },
    {
      "midi": 44,
      "hit": false,
      "t": 32785.68150000001,
      "d": 428.57100000000355,
      "v": 127
    },
    {
      "midi": 56,
      "hit": false,
      "t": 32785.68150000001,
      "d": 428.57100000000355,
      "v": 127
    },
    {
      "midi": 60,
      "hit": false,
      "t": 32785.68150000003,
      "d": 214.28549999999814,
      "v": 127
    },
    {
      "midi": 68,
      "hit": false,
      "t": 32785.68150000003,
      "d": 214.28549999999814,
      "v": 127
    },
    {
      "midi": 63,
      "hit": false,
      "t": 32999.967000000026,
      "d": 214.28549999999814,
      "v": 127
    },
    {
      "midi": 60,
      "hit": false,
      "t": 33214.252500000024,
      "d": 214.28549999999814,
      "v": 127
    },
    {
      "midi": 68,
      "hit": false,
      "t": 33214.252500000024,
      "d": 214.28549999999814,
      "v": 127
    },
    {
      "midi": 63,
      "hit": false,
      "t": 33428.53800000002,
      "d": 214.28549999999814,
      "v": 127
    },
    {
      "midi": 58,
      "hit": false,
      "t": 33642.82350000002,
      "d": 428.57100000000355,
      "v": 127
    },
    {
      "midi": 63,
      "hit": false,
      "t": 33642.82350000002,
      "d": 428.57100000000355,
      "v": 127
    },
    {
      "midi": 67,
      "hit": false,
      "t": 33642.82350000002,
      "d": 428.57100000000355,
      "v": 127
    },
    {
      "midi": 39,
      "hit": false,
      "t": 33642.82350000002,
      "d": 428.57100000000355,
      "v": 127
    },
    {
      "midi": 51,
      "hit": false,
      "t": 33642.82350000002,
      "d": 428.57100000000355,
      "v": 127
    },
    {
      "midi": 58,
      "hit": false,
      "t": 34499.96550000003,
      "d": 428.57100000000355,
      "v": 127
    },
    {
      "midi": 63,
      "hit": false,
      "t": 34499.96550000003,
      "d": 428.57100000000355,
      "v": 127
    },
    {
      "midi": 67,
      "hit": false,
      "t": 34499.96550000003,
      "d": 428.57100000000355,
      "v": 127
    },
    {
      "midi": 39,
      "hit": false,
      "t": 34499.96550000003,
      "d": 428.57100000000355,
      "v": 127
    },
    {
      "midi": 51,
      "hit": false,
      "t": 34499.96550000003,
      "d": 428.57100000000355,
      "v": 127
    },
    {
      "midi": 60,
      "hit": false,
      "t": 35357.107500000035,
      "d": 428.57100000000355,
      "v": 127
    },
    {
      "midi": 63,
      "hit": false,
      "t": 35357.107500000035,
      "d": 428.57100000000355,
      "v": 127
    },
    {
      "midi": 68,
      "hit": false,
      "t": 35357.107500000035,
      "d": 428.57100000000355,
      "v": 127
    },
    {
      "midi": 39,
      "hit": false,
      "t": 35357.107500000035,
      "d": 428.57100000000355,
      "v": 127
    },
    {
      "midi": 51,
      "hit": false,
      "t": 35357.107500000035,
      "d": 428.57100000000355,
      "v": 127
    },
    {
      "midi": 58,
      "hit": false,
      "t": 36214.24950000004,
      "d": 428.57100000000355,
      "v": 127
    },
    {
      "midi": 63,
      "hit": false,
      "t": 36214.24950000004,
      "d": 428.57100000000355,
      "v": 127
    },
    {
      "midi": 67,
      "hit": false,
      "t": 36214.24950000004,
      "d": 428.57100000000355,
      "v": 127
    },
    {
      "midi": 39,
      "hit": false,
      "t": 36214.24950000004,
      "d": 428.57100000000355,
      "v": 127
    },
    {
      "midi": 51,
      "hit": false,
      "t": 36214.24950000004,
      "d": 428.57100000000355,
      "v": 127
    },
    {
      "midi": 58,
      "hit": false,
      "t": 36642.820500000045,
      "d": 321.4282499999972,
      "v": 127
    },
    {
      "midi": 63,
      "hit": false,
      "t": 36642.820500000045,
      "d": 321.4282499999972,
      "v": 127
    },
    {
      "midi": 67,
      "hit": false,
      "t": 36642.820500000045,
      "d": 321.4282499999972,
      "v": 127
    },
    {
      "midi": 39,
      "hit": false,
      "t": 36642.820500000045,
      "d": 321.4282499999972,
      "v": 127
    },
    {
      "midi": 51,
      "hit": false,
      "t": 36642.820500000045,
      "d": 321.4282499999972,
      "v": 127
    },
    {
      "midi": 58,
      "hit": false,
      "t": 36964.24875000004,
      "d": 107.14274999999907,
      "v": 127
    },
    {
      "midi": 63,
      "hit": false,
      "t": 36964.24875000004,
      "d": 107.14274999999907,
      "v": 127
    },
    {
      "midi": 67,
      "hit": false,
      "t": 36964.24875000004,
      "d": 107.14274999999907,
      "v": 127
    },
    {
      "midi": 39,
      "hit": false,
      "t": 36964.24875000004,
      "d": 107.14274999999907,
      "v": 127
    },
    {
      "midi": 51,
      "hit": false,
      "t": 36964.24875000004,
      "d": 107.14274999999907,
      "v": 127
    },
    {
      "midi": 58,
      "hit": false,
      "t": 37071.39150000004,
      "d": 428.57100000000355,
      "v": 127
    },
    {
      "midi": 63,
      "hit": false,
      "t": 37071.39150000004,
      "d": 428.57100000000355,
      "v": 127
    },
    {
      "midi": 67,
      "hit": false,
      "t": 37071.39150000004,
      "d": 428.57100000000355,
      "v": 127
    },
    {
      "midi": 39,
      "hit": false,
      "t": 37071.39150000004,
      "d": 428.57100000000355,
      "v": 127
    },
    {
      "midi": 51,
      "hit": false,
      "t": 37071.39150000004,
      "d": 428.57100000000355,
      "v": 127
    },
    {
      "midi": 67,
      "hit": false,
      "t": 37928.53350000005,
      "d": 428.57100000000355,
      "v": 127
    },
    {
      "midi": 70,
      "hit": false,
      "t": 37928.53350000005,
      "d": 428.57100000000355,
      "v": 127
    },
    {
      "midi": 75,
      "hit": false,
      "t": 37928.53350000005,
      "d": 428.57100000000355,
      "v": 127
    },
    {
      "midi": 39,
      "hit": false,
      "t": 37928.53350000005,
      "d": 428.57100000000355,
      "v": 127
    },
    {
      "midi": 51,
      "hit": false,
      "t": 37928.53350000005,
      "d": 428.57100000000355,
      "v": 127
    },
    {
      "midi": 66,
      "hit": false,
      "t": 38785.675500000056,
      "d": 428.57100000000355,
      "v": 127
    },
    {
      "midi": 72,
      "hit": false,
      "t": 38785.675500000056,
      "d": 428.57100000000355,
      "v": 127
    },
    {
      "midi": 75,
      "hit": false,
      "t": 38785.675500000056,
      "d": 428.57100000000355,
      "v": 127
    },
    {
      "midi": 45,
      "hit": false,
      "t": 38785.675500000056,
      "d": 428.57100000000355,
      "v": 127
    },
    {
      "midi": 57,
      "hit": false,
      "t": 38785.675500000056,
      "d": 428.57100000000355,
      "v": 127
    },
    {
      "midi": 65,
      "hit": false,
      "t": 39642.81750000006,
      "d": 857.1419999999998,
      "v": 127
    },
    {
      "midi": 70,
      "hit": false,
      "t": 39642.81750000006,
      "d": 857.1419999999998,
      "v": 127
    },
    {
      "midi": 74,
      "hit": false,
      "t": 39642.81750000006,
      "d": 857.1419999999998,
      "v": 127
    },
    {
      "midi": 44,
      "hit": false,
      "t": 39642.81750000006,
      "d": 857.1419999999998,
      "v": 127
    },
    {
      "midi": 56,
      "hit": false,
      "t": 39642.81750000006,
      "d": 857.1419999999998,
      "v": 127
    },
    {
      "midi": 63,
      "hit": false,
      "t": 40499.95950000006,
      "d": 428.57100000000355,
      "v": 127
    },
    {
      "midi": 70,
      "hit": false,
      "t": 40499.95950000006,
      "d": 428.57100000000355,
      "v": 127
    },
    {
      "midi": 75,
      "hit": false,
      "t": 40499.95950000006,
      "d": 428.57100000000355,
      "v": 127
    },
    {
      "midi": 43,
      "hit": false,
      "t": 40499.95950000006,
      "d": 642.8565000000017,
      "v": 127
    },
    {
      "midi": 55,
      "hit": false,
      "t": 40499.95950000006,
      "d": 642.8565000000017,
      "v": 127
    },
    {
      "midi": 44,
      "hit": false,
      "t": 41357.10150000006,
      "d": 428.57100000000355,
      "v": 127
    },
    {
      "midi": 56,
      "hit": false,
      "t": 41357.10150000006,
      "d": 428.57100000000355,
      "v": 127
    },
    {
      "midi": 60,
      "hit": false,
      "t": 41571.38700000007,
      "d": 214.28549999999814,
      "v": 127
    },
    {
      "midi": 63,
      "hit": false,
      "t": 41571.38700000007,
      "d": 214.28549999999814,
      "v": 127
    },
    {
      "midi": 68,
      "hit": false,
      "t": 41571.38700000007,
      "d": 214.28549999999814,
      "v": 127
    },
    {
      "midi": 60,
      "hit": false,
      "t": 41785.672500000066,
      "d": 214.28549999999814,
      "v": 127
    },
    {
      "midi": 63,
      "hit": false,
      "t": 41785.672500000066,
      "d": 214.28549999999814,
      "v": 127
    },
    {
      "midi": 68,
      "hit": false,
      "t": 41785.672500000066,
      "d": 214.28549999999814,
      "v": 127
    },
    {
      "midi": 60,
      "hit": false,
      "t": 41999.958000000064,
      "d": 428.57100000000355,
      "v": 127
    },
    {
      "midi": 63,
      "hit": false,
      "t": 41999.958000000064,
      "d": 428.57100000000355,
      "v": 127
    },
    {
      "midi": 68,
      "hit": false,
      "t": 41999.958000000064,
      "d": 428.57100000000355,
      "v": 127
    },
    {
      "midi": 46,
      "hit": false,
      "t": 42214.24350000007,
      "d": 428.57100000000355,
      "v": 127
    },
    {
      "midi": 58,
      "hit": false,
      "t": 42214.24350000007,
      "d": 428.57100000000355,
      "v": 127
    },
    {
      "midi": 62,
      "hit": false,
      "t": 42428.52900000007,
      "d": 214.28549999999814,
      "v": 127
    },
    {
      "midi": 65,
      "hit": false,
      "t": 42428.52900000007,
      "d": 214.28549999999814,
      "v": 127
    },
    {
      "midi": 68,
      "hit": false,
      "t": 42428.52900000007,
      "d": 214.28549999999814,
      "v": 127
    },
    {
      "midi": 62,
      "hit": false,
      "t": 42642.814500000066,
      "d": 214.28549999999814,
      "v": 127
    },
    {
      "midi": 65,
      "hit": false,
      "t": 42642.814500000066,
      "d": 214.28549999999814,
      "v": 127
    },
    {
      "midi": 68,
      "hit": false,
      "t": 42642.814500000066,
      "d": 214.28549999999814,
      "v": 127
    },
    {
      "midi": 62,
      "hit": false,
      "t": 42857.100000000064,
      "d": 428.57100000000355,
      "v": 127
    },
    {
      "midi": 65,
      "hit": false,
      "t": 42857.100000000064,
      "d": 428.57100000000355,
      "v": 127
    },
    {
      "midi": 68,
      "hit": false,
      "t": 42857.100000000064,
      "d": 428.57100000000355,
      "v": 127
    },
    {
      "midi": 46,
      "hit": false,
      "t": 43071.38550000008,
      "d": 428.57100000000355,
      "v": 127
    },
    {
      "midi": 51,
      "hit": false,
      "t": 43071.38550000008,
      "d": 428.57100000000355,
      "v": 127
    },
    {
      "midi": 63,
      "hit": false,
      "t": 43285.67100000007,
      "d": 214.28549999999814,
      "v": 127
    },
    {
      "midi": 67,
      "hit": false,
      "t": 43285.67100000007,
      "d": 214.28549999999814,
      "v": 127
    },
    {
      "midi": 63,
      "hit": false,
      "t": 43499.956500000066,
      "d": 214.28549999999814,
      "v": 127
    },
    {
      "midi": 67,
      "hit": false,
      "t": 43499.956500000066,
      "d": 214.28549999999814,
      "v": 127
    },
    {
      "midi": 63,
      "hit": false,
      "t": 43714.242000000064,
      "d": 428.57100000000355,
      "v": 127
    },
    {
      "midi": 67,
      "hit": false,
      "t": 43714.242000000064,
      "d": 428.57100000000355,
      "v": 127
    },
    {
      "midi": 48,
      "hit": false,
      "t": 43928.527500000084,
      "d": 428.57100000000355,
      "v": 127
    },
    {
      "midi": 60,
      "hit": false,
      "t": 43928.527500000084,
      "d": 428.57100000000355,
      "v": 127
    },
    {
      "midi": 63,
      "hit": false,
      "t": 44142.81300000007,
      "d": 214.28549999999814,
      "v": 127
    },
    {
      "midi": 67,
      "hit": false,
      "t": 44142.81300000007,
      "d": 214.28549999999814,
      "v": 127
    },
    {
      "midi": 63,
      "hit": false,
      "t": 44357.098500000066,
      "d": 214.28549999999814,
      "v": 127
    },
    {
      "midi": 67,
      "hit": false,
      "t": 44357.098500000066,
      "d": 214.28549999999814,
      "v": 127
    },
    {
      "midi": 63,
      "hit": false,
      "t": 44571.384000000064,
      "d": 214.28549999999814,
      "v": 127
    },
    {
      "midi": 67,
      "hit": false,
      "t": 44571.384000000064,
      "d": 214.28549999999814,
      "v": 127
    },
    {
      "midi": 68,
      "hit": false,
      "t": 44785.66950000006,
      "d": 214.28549999999814,
      "v": 127
    },
    {
      "midi": 44,
      "hit": false,
      "t": 44785.66950000009,
      "d": 214.28549999999814,
      "v": 127
    },
    {
      "midi": 56,
      "hit": false,
      "t": 44785.66950000009,
      "d": 214.28549999999814,
      "v": 127
    },
    {
      "midi": 67,
      "hit": false,
      "t": 44999.95500000006,
      "d": 214.28549999999814,
      "v": 127
    },
    {
      "midi": 43,
      "hit": false,
      "t": 44999.95500000009,
      "d": 214.28549999999814,
      "v": 127
    },
    {
      "midi": 55,
      "hit": false,
      "t": 44999.95500000009,
      "d": 214.28549999999814,
      "v": 127
    },
    {
      "midi": 65,
      "hit": false,
      "t": 45214.24050000006,
      "d": 214.28549999999814,
      "v": 127
    },
    {
      "midi": 41,
      "hit": false,
      "t": 45214.24050000009,
      "d": 214.28549999999814,
      "v": 127
    },
    {
      "midi": 53,
      "hit": false,
      "t": 45214.24050000009,
      "d": 214.28549999999814,
      "v": 127
    },
    {
      "midi": 63,
      "hit": false,
      "t": 45428.526000000056,
      "d": 214.28549999999814,
      "v": 127
    },
    {
      "midi": 39,
      "hit": false,
      "t": 45428.526000000085,
      "d": 214.28549999999814,
      "v": 127
    },
    {
      "midi": 51,
      "hit": false,
      "t": 45428.526000000085,
      "d": 214.28549999999814,
      "v": 127
    },
    {
      "midi": 75,
      "hit": false,
      "t": 45642.811500000054,
      "d": 428.57100000000355,
      "v": 127
    },
    {
      "midi": 46,
      "hit": false,
      "t": 45642.81150000008,
      "d": 428.57100000000355,
      "v": 127
    },
    {
      "midi": 58,
      "hit": false,
      "t": 45642.81150000008,
      "d": 428.57100000000355,
      "v": 127
    },
    {
      "midi": 65,
      "hit": false,
      "t": 46071.38250000006,
      "d": 214.28549999999814,
      "v": 127
    },
    {
      "midi": 68,
      "hit": false,
      "t": 46071.38250000006,
      "d": 214.28549999999814,
      "v": 127
    },
    {
      "midi": 70,
      "hit": false,
      "t": 46071.38250000006,
      "d": 214.28549999999814,
      "v": 127
    },
    {
      "midi": 74,
      "hit": false,
      "t": 46071.38250000006,
      "d": 214.28549999999814,
      "v": 127
    },
    {
      "midi": 46,
      "hit": false,
      "t": 46071.38250000009,
      "d": 214.28549999999814,
      "v": 127
    },
    {
      "midi": 58,
      "hit": false,
      "t": 46071.38250000009,
      "d": 214.28549999999814,
      "v": 127
    },
    {
      "midi": 67,
      "hit": false,
      "t": 46499.953500000054,
      "d": 857.1419999999998,
      "v": 127
    },
    {
      "midi": 70,
      "hit": false,
      "t": 46499.953500000054,
      "d": 857.1419999999998,
      "v": 127
    },
    {
      "midi": 75,
      "hit": false,
      "t": 46499.953500000054,
      "d": 857.1419999999998,
      "v": 127
    },
    {
      "midi": 39,
      "hit": false,
      "t": 46499.95350000008,
      "d": 857.1419999999998,
      "v": 127
    },
    {
      "midi": 51,
      "hit": false,
      "t": 46499.95350000008,
      "d": 857.1419999999998,
      "v": 127
    },
    {
      "midi": 70,
      "hit": false,
      "t": 47785.66650000006,
      "d": 214.28549999999814,
      "v": 127
    },
    {
      "midi": 72,
      "hit": false,
      "t": 47999.952000000056,
      "d": 107.14274999999907,
      "v": 127
    },
    {
      "midi": 74,
      "hit": false,
      "t": 48107.094750000055,
      "d": 107.14274999999907,
      "v": 127
    },
    {
      "midi": 67,
      "hit": false,
      "t": 48214.237500000054,
      "d": 428.57100000000355,
      "v": 127
    },
    {
      "midi": 70,
      "hit": false,
      "t": 48214.237500000054,
      "d": 428.57100000000355,
      "v": 127
    },
    {
      "midi": 75,
      "hit": false,
      "t": 48214.237500000054,
      "d": 428.57100000000355,
      "v": 127
    },
    {
      "midi": 39,
      "hit": false,
      "t": 48214.23750000008,
      "d": 428.57100000000355,
      "v": 127
    },
    {
      "midi": 51,
      "hit": false,
      "t": 48214.23750000008,
      "d": 428.57100000000355,
      "v": 127
    },
    {
      "midi": 70,
      "hit": false,
      "t": 48642.80850000006,
      "d": 321.4282499999972,
      "v": 127
    },
    {
      "midi": 75,
      "hit": false,
      "t": 48642.80850000006,
      "d": 321.4282499999972,
      "v": 127
    },
    {
      "midi": 79,
      "hit": false,
      "t": 48642.80850000006,
      "d": 321.4282499999972,
      "v": 127
    },
    {
      "midi": 51,
      "hit": false,
      "t": 48642.80850000009,
      "d": 428.57100000000355,
      "v": 127
    },
    {
      "midi": 63,
      "hit": false,
      "t": 48642.80850000009,
      "d": 428.57100000000355,
      "v": 127
    },
    {
      "midi": 70,
      "hit": false,
      "t": 48964.236750000055,
      "d": 107.14274999999907,
      "v": 127
    },
    {
      "midi": 75,
      "hit": false,
      "t": 48964.236750000055,
      "d": 107.14274999999907,
      "v": 127
    },
    {
      "midi": 79,
      "hit": false,
      "t": 48964.236750000055,
      "d": 107.14274999999907,
      "v": 127
    },
    {
      "midi": 70,
      "hit": false,
      "t": 49071.379500000054,
      "d": 428.57100000000355,
      "v": 127
    },
    {
      "midi": 74,
      "hit": false,
      "t": 49071.379500000054,
      "d": 428.57100000000355,
      "v": 127
    },
    {
      "midi": 77,
      "hit": false,
      "t": 49071.379500000054,
      "d": 428.57100000000355,
      "v": 127
    },
    {
      "midi": 46,
      "hit": false,
      "t": 49071.37950000009,
      "d": 428.57100000000355,
      "v": 127
    },
    {
      "midi": 58,
      "hit": false,
      "t": 49071.37950000009,
      "d": 428.57100000000355,
      "v": 127
    },
    {
      "midi": 67,
      "hit": false,
      "t": 49499.95050000006,
      "d": 214.28549999999814,
      "v": 127
    },
    {
      "midi": 69,
      "hit": false,
      "t": 49714.236000000055,
      "d": 107.14274999999907,
      "v": 127
    },
    {
      "midi": 71,
      "hit": false,
      "t": 49821.378750000054,
      "d": 107.14274999999907,
      "v": 127
    },
    {
      "midi": 63,
      "hit": false,
      "t": 49928.52150000005,
      "d": 428.57100000000355,
      "v": 127
    },
    {
      "midi": 67,
      "hit": false,
      "t": 49928.52150000005,
      "d": 428.57100000000355,
      "v": 127
    },
    {
      "midi": 72,
      "hit": false,
      "t": 49928.52150000005,
      "d": 428.57100000000355,
      "v": 127
    },
    {
      "midi": 36,
      "hit": false,
      "t": 49928.5215000001,
      "d": 428.57100000000355,
      "v": 127
    },
    {
      "midi": 48,
      "hit": false,
      "t": 49928.5215000001,
      "d": 428.57100000000355,
      "v": 127
    },
    {
      "midi": 67,
      "hit": false,
      "t": 50357.09250000006,
      "d": 321.4282499999972,
      "v": 127
    },
    {
      "midi": 72,
      "hit": false,
      "t": 50357.09250000006,
      "d": 321.4282499999972,
      "v": 127
    },
    {
      "midi": 75,
      "hit": false,
      "t": 50357.09250000006,
      "d": 321.4282499999972,
      "v": 127
    },
    {
      "midi": 48,
      "hit": false,
      "t": 50357.0925000001,
      "d": 428.57100000000355,
      "v": 127
    },
    {
      "midi": 60,
      "hit": false,
      "t": 50357.0925000001,
      "d": 428.57100000000355,
      "v": 127
    },
    {
      "midi": 67,
      "hit": false,
      "t": 50678.520750000054,
      "d": 107.14274999999907,
      "v": 127
    },
    {
      "midi": 72,
      "hit": false,
      "t": 50678.520750000054,
      "d": 107.14274999999907,
      "v": 127
    },
    {
      "midi": 75,
      "hit": false,
      "t": 50678.520750000054,
      "d": 107.14274999999907,
      "v": 127
    },
    {
      "midi": 67,
      "hit": false,
      "t": 50785.66350000005,
      "d": 428.57100000000355,
      "v": 127
    },
    {
      "midi": 71,
      "hit": false,
      "t": 50785.66350000005,
      "d": 428.57100000000355,
      "v": 127
    },
    {
      "midi": 74,
      "hit": false,
      "t": 50785.66350000005,
      "d": 428.57100000000355,
      "v": 127
    },
    {
      "midi": 43,
      "hit": false,
      "t": 50785.663500000104,
      "d": 428.57100000000355,
      "v": 127
    },
    {
      "midi": 55,
      "hit": false,
      "t": 50785.663500000104,
      "d": 428.57100000000355,
      "v": 127
    },
    {
      "midi": 67,
      "hit": false,
      "t": 51428.520000000055,
      "d": 214.28549999999814,
      "v": 127
    },
    {
      "midi": 43,
      "hit": false,
      "t": 51428.520000000106,
      "d": 214.28549999999814,
      "v": 127
    },
    {
      "midi": 55,
      "hit": false,
      "t": 51428.520000000106,
      "d": 214.28549999999814,
      "v": 127
    },
    {
      "midi": 68,
      "hit": false,
      "t": 51642.80550000005,
      "d": 214.28549999999814,
      "v": 127
    },
    {
      "midi": 44,
      "hit": false,
      "t": 51642.805500000104,
      "d": 214.28549999999814,
      "v": 127
    },
    {
      "midi": 56,
      "hit": false,
      "t": 51642.805500000104,
      "d": 214.28549999999814,
      "v": 127
    },
    {
      "midi": 67,
      "hit": false,
      "t": 51857.09100000005,
      "d": 214.28549999999814,
      "v": 127
    },
    {
      "midi": 43,
      "hit": false,
      "t": 51857.0910000001,
      "d": 214.28549999999814,
      "v": 127
    },
    {
      "midi": 55,
      "hit": false,
      "t": 51857.0910000001,
      "d": 214.28549999999814,
      "v": 127
    },
    {
      "midi": 65,
      "hit": false,
      "t": 52071.37650000005,
      "d": 214.28549999999814,
      "v": 127
    },
    {
      "midi": 41,
      "hit": false,
      "t": 52071.3765000001,
      "d": 214.28549999999814,
      "v": 127
    },
    {
      "midi": 53,
      "hit": false,
      "t": 52071.3765000001,
      "d": 214.28549999999814,
      "v": 127
    },
    {
      "midi": 63,
      "hit": false,
      "t": 52285.66200000005,
      "d": 214.28549999999814,
      "v": 127
    },
    {
      "midi": 39,
      "hit": false,
      "t": 52285.6620000001,
      "d": 214.28549999999814,
      "v": 127
    },
    {
      "midi": 51,
      "hit": false,
      "t": 52285.6620000001,
      "d": 214.28549999999814,
      "v": 127
    },
    {
      "midi": 70,
      "hit": false,
      "t": 52499.947500000046,
      "d": 428.57100000000355,
      "v": 127
    },
    {
      "midi": 46,
      "hit": false,
      "t": 52499.9475000001,
      "d": 642.8565000000017,
      "v": 127
    },
    {
      "midi": 58,
      "hit": false,
      "t": 52499.9475000001,
      "d": 642.8565000000017,
      "v": 127
    },
    {
      "midi": 74,
      "hit": false,
      "t": 52928.51850000005,
      "d": 214.28549999999814,
      "v": 127
    },
    {
      "midi": 67,
      "hit": false,
      "t": 53357.089500000046,
      "d": 642.8565000000017,
      "v": 127
    },
    {
      "midi": 70,
      "hit": false,
      "t": 53357.089500000046,
      "d": 642.8565000000017,
      "v": 127
    },
    {
      "midi": 75,
      "hit": false,
      "t": 53357.089500000046,
      "d": 642.8565000000017,
      "v": 127
    },
    {
      "midi": 39,
      "hit": false,
      "t": 53357.0895000001,
      "d": 642.8565000000017,
      "v": 127
    },
    {
      "midi": 51,
      "hit": false,
      "t": 53357.0895000001,
      "d": 642.8565000000017,
      "v": 127
    },
    {
      "midi": 55,
      "hit": false,
      "t": 54107.088750000046,
      "d": 107.14274999999907,
      "v": 127
    },
    {
      "midi": 58,
      "hit": false,
      "t": 54107.088750000046,
      "d": 107.14274999999907,
      "v": 127
    },
    {
      "midi": 63,
      "hit": false,
      "t": 54107.088750000046,
      "d": 107.14274999999907,
      "v": 127
    },
    {
      "midi": 39,
      "hit": false,
      "t": 54107.0887500001,
      "d": 107.14274999999907,
      "v": 127
    },
    {
      "midi": 51,
      "hit": false,
      "t": 54107.0887500001,
      "d": 107.14274999999907,
      "v": 127
    },
    {
      "midi": 55,
      "hit": false,
      "t": 54214.231500000045,
      "d": 428.57100000000355,
      "v": 127
    },
    {
      "midi": 58,
      "hit": false,
      "t": 54214.231500000045,
      "d": 428.57100000000355,
      "v": 127
    },
    {
      "midi": 63,
      "hit": false,
      "t": 54214.231500000045,
      "d": 428.57100000000355,
      "v": 127
    },
    {
      "midi": 39,
      "hit": false,
      "t": 54214.231500000096,
      "d": 428.57100000000355,
      "v": 127
    },
    {
      "midi": 51,
      "hit": false,
      "t": 54214.231500000096,
      "d": 428.57100000000355,
      "v": 127
    },
    {
      "midi": 57,
      "hit": false,
      "t": 55071.37350000005,
      "d": 642.8565000000017,
      "v": 127
    },
    {
      "midi": 69,
      "hit": false,
      "t": 55071.37350000005,
      "d": 642.8565000000017,
      "v": 127
    },
    {
      "midi": 33,
      "hit": false,
      "t": 55071.3735000001,
      "d": 642.8565000000017,
      "v": 127
    },
    {
      "midi": 45,
      "hit": false,
      "t": 55071.3735000001,
      "d": 642.8565000000017,
      "v": 127
    },
    {
      "midi": 58,
      "hit": false,
      "t": 55714.230000000054,
      "d": 214.28549999999814,
      "v": 127
    },
    {
      "midi": 70,
      "hit": false,
      "t": 55714.230000000054,
      "d": 214.28549999999814,
      "v": 127
    },
    {
      "midi": 34,
      "hit": false,
      "t": 55714.230000000105,
      "d": 214.28549999999814,
      "v": 127
    },
    {
      "midi": 46,
      "hit": false,
      "t": 55714.230000000105,
      "d": 214.28549999999814,
      "v": 127
    },
    {
      "midi": 63,
      "hit": false,
      "t": 55928.51550000005,
      "d": 642.8565000000017,
      "v": 127
    },
    {
      "midi": 75,
      "hit": false,
      "t": 55928.51550000005,
      "d": 642.8565000000017,
      "v": 127
    },
    {
      "midi": 39,
      "hit": false,
      "t": 55928.5155000001,
      "d": 642.8565000000017,
      "v": 127
    },
    {
      "midi": 51,
      "hit": false,
      "t": 55928.5155000001,
      "d": 642.8565000000017,
      "v": 127
    },
    {
      "midi": 58,
      "hit": false,
      "t": 56571.372000000054,
      "d": 214.28549999999814,
      "v": 127
    },
    {
      "midi": 70,
      "hit": false,
      "t": 56571.372000000054,
      "d": 214.28549999999814,
      "v": 127
    },
    {
      "midi": 34,
      "hit": false,
      "t": 56571.372000000105,
      "d": 214.28549999999814,
      "v": 127
    },
    {
      "midi": 46,
      "hit": false,
      "t": 56571.372000000105,
      "d": 214.28549999999814,
      "v": 127
    },
    {
      "midi": 55,
      "hit": false,
      "t": 56785.65750000005,
      "d": 428.57100000000355,
      "v": 127
    },
    {
      "midi": 67,
      "hit": false,
      "t": 56785.65750000005,
      "d": 428.57100000000355,
      "v": 127
    },
    {
      "midi": 31,
      "hit": false,
      "t": 56785.6575000001,
      "d": 428.57100000000355,
      "v": 127
    },
    {
      "midi": 43,
      "hit": false,
      "t": 56785.6575000001,
      "d": 428.57100000000355,
      "v": 127
    },
    {
      "midi": 56,
      "hit": false,
      "t": 57214.228500000056,
      "d": 428.57100000000355,
      "v": 127
    },
    {
      "midi": 68,
      "hit": false,
      "t": 57214.228500000056,
      "d": 428.57100000000355,
      "v": 127
    },
    {
      "midi": 32,
      "hit": false,
      "t": 57214.22850000011,
      "d": 428.57100000000355,
      "v": 127
    },
    {
      "midi": 44,
      "hit": false,
      "t": 57214.22850000011,
      "d": 428.57100000000355,
      "v": 127
    },
    {
      "midi": 58,
      "hit": false,
      "t": 57642.79950000006,
      "d": 428.57100000000355,
      "v": 127
    },
    {
      "midi": 70,
      "hit": false,
      "t": 57642.79950000006,
      "d": 428.57100000000355,
      "v": 127
    },
    {
      "midi": 34,
      "hit": false,
      "t": 57642.79950000011,
      "d": 428.57100000000355,
      "v": 127
    },
    {
      "midi": 46,
      "hit": false,
      "t": 57642.79950000011,
      "d": 428.57100000000355,
      "v": 127
    },
    {
      "midi": 58,
      "hit": false,
      "t": 58499.941500000066,
      "d": 428.57100000000355,
      "v": 127
    },
    {
      "midi": 63,
      "hit": false,
      "t": 58499.941500000066,
      "d": 428.57100000000355,
      "v": 127
    },
    {
      "midi": 67,
      "hit": false,
      "t": 58499.941500000066,
      "d": 428.57100000000355,
      "v": 127
    },
    {
      "midi": 39,
      "hit": false,
      "t": 58499.94150000012,
      "d": 857.1419999999998,
      "v": 127
    },
    {
      "midi": 51,
      "hit": false,
      "t": 58499.94150000012,
      "d": 857.1419999999998,
      "v": 127
    },
    {
      "midi": 55,
      "hit": false,
      "t": 58928.51250000007,
      "d": 428.57100000000355,
      "v": 127
    },
    {
      "midi": 58,
      "hit": false,
      "t": 58928.51250000007,
      "d": 428.57100000000355,
      "v": 127
    },
    {
      "midi": 63,
      "hit": false,
      "t": 58928.51250000007,
      "d": 428.57100000000355,
      "v": 127
    },
    {
      "midi": 63,
      "hit": false,
      "t": 59357.08350000007,
      "d": 428.57100000000355,
      "v": 127
    },
    {
      "midi": 68,
      "hit": false,
      "t": 59357.08350000007,
      "d": 428.57100000000355,
      "v": 127
    },
    {
      "midi": 72,
      "hit": false,
      "t": 59357.08350000007,
      "d": 428.57100000000355,
      "v": 127
    },
    {
      "midi": 44,
      "hit": false,
      "t": 59357.08350000012,
      "d": 642.8565000000017,
      "v": 127
    },
    {
      "midi": 56,
      "hit": false,
      "t": 59357.08350000012,
      "d": 642.8565000000017,
      "v": 127
    },
    {
      "midi": 60,
      "hit": false,
      "t": 59785.65450000008,
      "d": 214.28549999999814,
      "v": 127
    },
    {
      "midi": 63,
      "hit": false,
      "t": 59785.65450000008,
      "d": 214.28549999999814,
      "v": 127
    },
    {
      "midi": 68,
      "hit": false,
      "t": 59785.65450000008,
      "d": 214.28549999999814,
      "v": 127
    },
    {
      "midi": 58,
      "hit": false,
      "t": 60214.22550000007,
      "d": 428.57100000000355,
      "v": 127
    },
    {
      "midi": 63,
      "hit": false,
      "t": 60214.22550000007,
      "d": 428.57100000000355,
      "v": 127
    },
    {
      "midi": 67,
      "hit": false,
      "t": 60214.22550000007,
      "d": 428.57100000000355,
      "v": 127
    },
    {
      "midi": 39,
      "hit": false,
      "t": 60214.22550000012,
      "d": 428.57100000000355,
      "v": 127
    },
    {
      "midi": 51,
      "hit": false,
      "t": 60214.22550000012,
      "d": 428.57100000000355,
      "v": 127
    },
    {
      "midi": 58,
      "hit": false,
      "t": 60642.79650000008,
      "d": 321.4282499999972,
      "v": 127
    },
    {
      "midi": 63,
      "hit": false,
      "t": 60642.79650000008,
      "d": 321.4282499999972,
      "v": 127
    },
    {
      "midi": 67,
      "hit": false,
      "t": 60642.79650000008,
      "d": 321.4282499999972,
      "v": 127
    },
    {
      "midi": 39,
      "hit": false,
      "t": 60642.79650000012,
      "d": 321.4282499999972,
      "v": 127
    },
    {
      "midi": 51,
      "hit": false,
      "t": 60642.79650000012,
      "d": 321.4282499999972,
      "v": 127
    },
    {
      "midi": 58,
      "hit": false,
      "t": 60964.224750000074,
      "d": 107.14274999999907,
      "v": 127
    },
    {
      "midi": 63,
      "hit": false,
      "t": 60964.224750000074,
      "d": 107.14274999999907,
      "v": 127
    },
    {
      "midi": 67,
      "hit": false,
      "t": 60964.224750000074,
      "d": 107.14274999999907,
      "v": 127
    },
    {
      "midi": 39,
      "hit": false,
      "t": 60964.22475000012,
      "d": 107.14274999999907,
      "v": 127
    },
    {
      "midi": 51,
      "hit": false,
      "t": 60964.22475000012,
      "d": 107.14274999999907,
      "v": 127
    },
    {
      "midi": 58,
      "hit": false,
      "t": 61071.36750000007,
      "d": 428.57100000000355,
      "v": 127
    },
    {
      "midi": 63,
      "hit": false,
      "t": 61071.36750000007,
      "d": 428.57100000000355,
      "v": 127
    },
    {
      "midi": 67,
      "hit": false,
      "t": 61071.36750000007,
      "d": 428.57100000000355,
      "v": 127
    },
    {
      "midi": 39,
      "hit": false,
      "t": 61071.36750000012,
      "d": 428.57100000000355,
      "v": 127
    },
    {
      "midi": 51,
      "hit": false,
      "t": 61071.36750000012,
      "d": 428.57100000000355,
      "v": 127
    },
    {
      "midi": 62,
      "hit": false,
      "t": 61928.50950000008,
      "d": 428.57100000000355,
      "v": 127
    },
    {
      "midi": 65,
      "hit": false,
      "t": 61928.50950000008,
      "d": 428.57100000000355,
      "v": 127
    },
    {
      "midi": 70,
      "hit": false,
      "t": 61928.50950000008,
      "d": 428.57100000000355,
      "v": 127
    },
    {
      "midi": 46,
      "hit": false,
      "t": 61928.509500000124,
      "d": 428.57100000000355,
      "v": 127
    },
    {
      "midi": 58,
      "hit": false,
      "t": 61928.509500000124,
      "d": 428.57100000000355,
      "v": 127
    },
    {
      "midi": 62,
      "hit": false,
      "t": 62785.65150000009,
      "d": 428.57100000000355,
      "v": 127
    },
    {
      "midi": 65,
      "hit": false,
      "t": 62785.65150000009,
      "d": 428.57100000000355,
      "v": 127
    },
    {
      "midi": 70,
      "hit": false,
      "t": 62785.65150000009,
      "d": 428.57100000000355,
      "v": 127
    },
    {
      "midi": 46,
      "hit": false,
      "t": 62785.65150000013,
      "d": 428.57100000000355,
      "v": 127
    },
    {
      "midi": 58,
      "hit": false,
      "t": 62785.65150000013,
      "d": 428.57100000000355,
      "v": 127
    },
    {
      "midi": 58,
      "hit": false,
      "t": 63642.793500000094,
      "d": 428.57100000000355,
      "v": 127
    },
    {
      "midi": 63,
      "hit": false,
      "t": 63642.793500000094,
      "d": 428.57100000000355,
      "v": 127
    },
    {
      "midi": 67,
      "hit": false,
      "t": 63642.793500000094,
      "d": 428.57100000000355,
      "v": 127
    },
    {
      "midi": 39,
      "hit": false,
      "t": 63642.79350000014,
      "d": 428.57100000000355,
      "v": 127
    },
    {
      "midi": 51,
      "hit": false,
      "t": 63642.79350000014,
      "d": 428.57100000000355,
      "v": 127
    },
    {
      "midi": 58,
      "hit": false,
      "t": 64499.9355000001,
      "d": 428.57100000000355,
      "v": 127
    },
    {
      "midi": 62,
      "hit": false,
      "t": 64499.9355000001,
      "d": 428.57100000000355,
      "v": 127
    },
    {
      "midi": 65,
      "hit": false,
      "t": 64499.9355000001,
      "d": 428.57100000000355,
      "v": 127
    },
    {
      "midi": 34,
      "hit": false,
      "t": 64499.935500000145,
      "d": 428.57100000000355,
      "v": 127
    },
    {
      "midi": 46,
      "hit": false,
      "t": 64499.935500000145,
      "d": 428.57100000000355,
      "v": 127
    },
    {
      "midi": 58,
      "hit": false,
      "t": 65357.07750000011,
      "d": 857.1419999999998,
      "v": 127
    },
    {
      "midi": 63,
      "hit": false,
      "t": 65357.07750000011,
      "d": 857.1419999999998,
      "v": 127
    },
    {
      "midi": 67,
      "hit": false,
      "t": 65357.07750000011,
      "d": 857.1419999999998,
      "v": 127
    },
    {
      "midi": 39,
      "hit": false,
      "t": 65357.07750000015,
      "d": 857.1419999999998,
      "v": 127
    },
    {
      "midi": 51,
      "hit": false,
      "t": 65357.07750000015,
      "d": 857.1419999999998,
      "v": 127
    },
    {
      "midi": 70,
      "hit": false,
      "t": 66214.21950000011,
      "d": 642.8564999999944,
      "v": 127
    },
    {
      "midi": 74,
      "hit": false,
      "t": 66214.21950000011,
      "d": 642.8564999999944,
      "v": 127
    },
    {
      "midi": 41,
      "hit": false,
      "t": 66214.21950000015,
      "d": 642.8564999999944,
      "v": 127
    },
    {
      "midi": 53,
      "hit": false,
      "t": 66214.21950000015,
      "d": 642.8564999999944,
      "v": 127
    },
    {
      "midi": 69,
      "hit": false,
      "t": 66857.0760000001,
      "d": 214.28549999999814,
      "v": 127
    },
    {
      "midi": 72,
      "hit": false,
      "t": 66857.0760000001,
      "d": 214.28549999999814,
      "v": 127
    },
    {
      "midi": 66,
      "hit": false,
      "t": 67071.3615000001,
      "d": 428.5709999999963,
      "v": 127
    },
    {
      "midi": 69,
      "hit": false,
      "t": 67071.3615000001,
      "d": 428.5709999999963,
      "v": 127
    },
    {
      "midi": 74,
      "hit": false,
      "t": 67071.3615000001,
      "d": 428.5709999999963,
      "v": 127
    },
    {
      "midi": 38,
      "hit": false,
      "t": 67071.36150000014,
      "d": 857.1420000000071,
      "v": 127
    },
    {
      "midi": 50,
      "hit": false,
      "t": 67071.36150000014,
      "d": 857.1420000000071,
      "v": 127
    },
    {
      "midi": 62,
      "hit": false,
      "t": 67499.9325000001,
      "d": 321.4282499999972,
      "v": 127
    },
    {
      "midi": 74,
      "hit": false,
      "t": 67499.9325000001,
      "d": 321.4282499999972,
      "v": 127
    },
    {
      "midi": 62,
      "hit": false,
      "t": 67821.3607500001,
      "d": 107.14274999999907,
      "v": 127
    },
    {
      "midi": 74,
      "hit": false,
      "t": 67821.3607500001,
      "d": 107.14274999999907,
      "v": 127
    },
    {
      "midi": 62,
      "hit": false,
      "t": 67928.5035000001,
      "d": 428.5709999999963,
      "v": 127
    },
    {
      "midi": 74,
      "hit": false,
      "t": 67928.5035000001,
      "d": 428.5709999999963,
      "v": 127
    },
    {
      "midi": 62,
      "hit": false,
      "t": 68785.64550000009,
      "d": 428.5709999999963,
      "v": 127
    },
    {
      "midi": 67,
      "hit": false,
      "t": 68785.64550000009,
      "d": 428.5709999999963,
      "v": 127
    },
    {
      "midi": 70,
      "hit": false,
      "t": 68785.64550000009,
      "d": 428.5709999999963,
      "v": 127
    },
    {
      "midi": 43,
      "hit": false,
      "t": 68785.64550000016,
      "d": 857.1420000000071,
      "v": 127
    },
    {
      "midi": 55,
      "hit": false,
      "t": 68785.64550000016,
      "d": 857.1420000000071,
      "v": 127
    },
    {
      "midi": 70,
      "hit": false,
      "t": 69214.21650000008,
      "d": 214.28549999999814,
      "v": 127
    },
    {
      "midi": 72,
      "hit": false,
      "t": 69428.50200000008,
      "d": 214.28549999999814,
      "v": 127
    },
    {
      "midi": 65,
      "hit": false,
      "t": 69642.78750000008,
      "d": 642.8564999999944,
      "v": 127
    },
    {
      "midi": 70,
      "hit": false,
      "t": 69642.78750000008,
      "d": 642.8564999999944,
      "v": 127
    },
    {
      "midi": 74,
      "hit": false,
      "t": 69642.78750000008,
      "d": 642.8564999999944,
      "v": 127
    },
    {
      "midi": 41,
      "hit": false,
      "t": 69642.78750000017,
      "d": 428.5709999999963,
      "v": 127
    },
    {
      "midi": 53,
      "hit": false,
      "t": 69642.78750000017,
      "d": 428.5709999999963,
      "v": 127
    },
    {
      "midi": 41,
      "hit": false,
      "t": 70071.35850000016,
      "d": 214.28549999999814,
      "v": 127
    },
    {
      "midi": 53,
      "hit": false,
      "t": 70071.35850000016,
      "d": 214.28549999999814,
      "v": 127
    },
    {
      "midi": 63,
      "hit": false,
      "t": 70285.64400000007,
      "d": 214.28549999999814,
      "v": 127
    },
    {
      "midi": 69,
      "hit": false,
      "t": 70285.64400000007,
      "d": 214.28549999999814,
      "v": 127
    },
    {
      "midi": 72,
      "hit": false,
      "t": 70285.64400000007,
      "d": 214.28549999999814,
      "v": 127
    },
    {
      "midi": 62,
      "hit": false,
      "t": 70499.92950000007,
      "d": 428.5709999999963,
      "v": 127
    },
    {
      "midi": 65,
      "hit": false,
      "t": 70499.92950000007,
      "d": 428.5709999999963,
      "v": 127
    },
    {
      "midi": 70,
      "hit": false,
      "t": 70499.92950000007,
      "d": 428.5709999999963,
      "v": 127
    },
    {
      "midi": 46,
      "hit": false,
      "t": 70499.92950000016,
      "d": 857.1420000000071,
      "v": 127
    },
    {
      "midi": 58,
      "hit": false,
      "t": 70499.92950000016,
      "d": 857.1420000000071,
      "v": 127
    },
    {
      "midi": 65,
      "hit": false,
      "t": 70928.50050000007,
      "d": 321.4282499999972,
      "v": 127
    },
    {
      "midi": 74,
      "hit": false,
      "t": 71249.92875000006,
      "d": 107.14274999999907,
      "v": 127
    },
    {
      "midi": 62,
      "hit": false,
      "t": 71357.07150000006,
      "d": 428.5709999999963,
      "v": 127
    },
    {
      "midi": 70,
      "hit": false,
      "t": 71357.07150000006,
      "d": 428.5709999999963,
      "v": 127
    },
    {
      "midi": 41,
      "hit": false,
      "t": 71357.07150000017,
      "d": 428.5709999999963,
      "v": 127
    },
    {
      "midi": 46,
      "hit": false,
      "t": 71357.07150000017,
      "d": 428.5709999999963,
      "v": 127
    },
    {
      "midi": 58,
      "hit": false,
      "t": 72214.21350000006,
      "d": 214.28549999999814,
      "v": 127
    },
    {
      "midi": 67,
      "hit": false,
      "t": 72214.21350000006,
      "d": 214.28549999999814,
      "v": 127
    },
    {
      "midi": 39,
      "hit": false,
      "t": 72214.21350000016,
      "d": 428.5709999999963,
      "v": 127
    },
    {
      "midi": 51,
      "hit": false,
      "t": 72214.21350000016,
      "d": 428.5709999999963,
      "v": 127
    },
    {
      "midi": 63,
      "hit": false,
      "t": 72428.49900000005,
      "d": 214.28549999999814,
      "v": 127
    },
    {
      "midi": 58,
      "hit": false,
      "t": 72642.78450000005,
      "d": 214.28549999999814,
      "v": 127
    },
    {
      "midi": 67,
      "hit": false,
      "t": 72642.78450000005,
      "d": 214.28549999999814,
      "v": 127
    },
    {
      "midi": 63,
      "hit": false,
      "t": 72857.07000000005,
      "d": 214.28549999999814,
      "v": 127
    },
    {
      "midi": 58,
      "hit": false,
      "t": 73071.35550000005,
      "d": 214.28549999999814,
      "v": 127
    },
    {
      "midi": 67,
      "hit": false,
      "t": 73071.35550000005,
      "d": 214.28549999999814,
      "v": 127
    },
    {
      "midi": 39,
      "hit": false,
      "t": 73071.35550000015,
      "d": 428.5709999999963,
      "v": 127
    },
    {
      "midi": 51,
      "hit": false,
      "t": 73071.35550000015,
      "d": 428.5709999999963,
      "v": 127
    },
    {
      "midi": 63,
      "hit": false,
      "t": 73285.64100000005,
      "d": 214.28549999999814,
      "v": 127
    },
    {
      "midi": 58,
      "hit": false,
      "t": 73499.92650000005,
      "d": 214.28549999999814,
      "v": 127
    },
    {
      "midi": 67,
      "hit": false,
      "t": 73499.92650000005,
      "d": 214.28549999999814,
      "v": 127
    },
    {
      "midi": 63,
      "hit": false,
      "t": 73714.21200000004,
      "d": 214.28549999999814,
      "v": 127
    },
    {
      "midi": 60,
      "hit": false,
      "t": 73928.49750000004,
      "d": 214.28549999999814,
      "v": 127
    },
    {
      "midi": 68,
      "hit": false,
      "t": 73928.49750000004,
      "d": 214.28549999999814,
      "v": 127
    },
    {
      "midi": 44,
      "hit": false,
      "t": 73928.49750000014,
      "d": 428.5709999999963,
      "v": 127
    },
    {
      "midi": 56,
      "hit": false,
      "t": 73928.49750000014,
      "d": 428.5709999999963,
      "v": 127
    },
    {
      "midi": 63,
      "hit": false,
      "t": 74142.78300000004,
      "d": 214.28549999999814,
      "v": 127
    },
    {
      "midi": 60,
      "hit": false,
      "t": 74357.06850000004,
      "d": 214.28549999999814,
      "v": 127
    },
    {
      "midi": 68,
      "hit": false,
      "t": 74357.06850000004,
      "d": 214.28549999999814,
      "v": 127
    },
    {
      "midi": 63,
      "hit": false,
      "t": 74571.35400000004,
      "d": 214.28549999999814,
      "v": 127
    },
    {
      "midi": 58,
      "hit": false,
      "t": 74785.63950000003,
      "d": 428.5709999999963,
      "v": 127
    },
    {
      "midi": 63,
      "hit": false,
      "t": 74785.63950000003,
      "d": 428.5709999999963,
      "v": 127
    },
    {
      "midi": 67,
      "hit": false,
      "t": 74785.63950000003,
      "d": 428.5709999999963,
      "v": 127
    },
    {
      "midi": 39,
      "hit": false,
      "t": 74785.63950000014,
      "d": 428.5709999999963,
      "v": 127
    },
    {
      "midi": 51,
      "hit": false,
      "t": 74785.63950000014,
      "d": 428.5709999999963,
      "v": 127
    },
    {
      "midi": 58,
      "hit": false,
      "t": 75642.78150000003,
      "d": 428.5709999999963,
      "v": 127
    },
    {
      "midi": 63,
      "hit": false,
      "t": 75642.78150000003,
      "d": 428.5709999999963,
      "v": 127
    },
    {
      "midi": 67,
      "hit": false,
      "t": 75642.78150000003,
      "d": 428.5709999999963,
      "v": 127
    },
    {
      "midi": 39,
      "hit": false,
      "t": 75642.78150000013,
      "d": 428.5709999999963,
      "v": 127
    },
    {
      "midi": 51,
      "hit": false,
      "t": 75642.78150000013,
      "d": 428.5709999999963,
      "v": 127
    },
    {
      "midi": 60,
      "hit": false,
      "t": 76499.92350000002,
      "d": 428.5709999999963,
      "v": 127
    },
    {
      "midi": 63,
      "hit": false,
      "t": 76499.92350000002,
      "d": 428.5709999999963,
      "v": 127
    },
    {
      "midi": 68,
      "hit": false,
      "t": 76499.92350000002,
      "d": 428.5709999999963,
      "v": 127
    },
    {
      "midi": 39,
      "hit": false,
      "t": 76499.92350000012,
      "d": 428.5709999999963,
      "v": 127
    },
    {
      "midi": 51,
      "hit": false,
      "t": 76499.92350000012,
      "d": 428.5709999999963,
      "v": 127
    },
    {
      "midi": 58,
      "hit": false,
      "t": 77357.06550000001,
      "d": 428.5709999999963,
      "v": 127
    },
    {
      "midi": 63,
      "hit": false,
      "t": 77357.06550000001,
      "d": 428.5709999999963,
      "v": 127
    },
    {
      "midi": 67,
      "hit": false,
      "t": 77357.06550000001,
      "d": 428.5709999999963,
      "v": 127
    },
    {
      "midi": 39,
      "hit": false,
      "t": 77357.06550000011,
      "d": 428.5709999999963,
      "v": 127
    },
    {
      "midi": 51,
      "hit": false,
      "t": 77357.06550000011,
      "d": 428.5709999999963,
      "v": 127
    },
    {
      "midi": 58,
      "hit": false,
      "t": 77785.63650000001,
      "d": 321.4282499999972,
      "v": 127
    },
    {
      "midi": 63,
      "hit": false,
      "t": 77785.63650000001,
      "d": 321.4282499999972,
      "v": 127
    },
    {
      "midi": 67,
      "hit": false,
      "t": 77785.63650000001,
      "d": 321.4282499999972,
      "v": 127
    },
    {
      "midi": 39,
      "hit": false,
      "t": 77785.63650000011,
      "d": 321.4282499999972,
      "v": 127
    },
    {
      "midi": 51,
      "hit": false,
      "t": 77785.63650000011,
      "d": 321.4282499999972,
      "v": 127
    },
    {
      "midi": 58,
      "hit": false,
      "t": 78107.06475,
      "d": 107.14274999999907,
      "v": 127
    },
    {
      "midi": 63,
      "hit": false,
      "t": 78107.06475,
      "d": 107.14274999999907,
      "v": 127
    },
    {
      "midi": 67,
      "hit": false,
      "t": 78107.06475,
      "d": 107.14274999999907,
      "v": 127
    },
    {
      "midi": 39,
      "hit": false,
      "t": 78107.0647500001,
      "d": 107.14274999999907,
      "v": 127
    },
    {
      "midi": 51,
      "hit": false,
      "t": 78107.0647500001,
      "d": 107.14274999999907,
      "v": 127
    },
    {
      "midi": 58,
      "hit": false,
      "t": 78214.2075,
      "d": 428.5709999999963,
      "v": 127
    },
    {
      "midi": 63,
      "hit": false,
      "t": 78214.2075,
      "d": 428.5709999999963,
      "v": 127
    },
    {
      "midi": 67,
      "hit": false,
      "t": 78214.2075,
      "d": 428.5709999999963,
      "v": 127
    },
    {
      "midi": 39,
      "hit": false,
      "t": 78214.2075000001,
      "d": 428.5709999999963,
      "v": 127
    },
    {
      "midi": 51,
      "hit": false,
      "t": 78214.2075000001,
      "d": 428.5709999999963,
      "v": 127
    },
    {
      "midi": 67,
      "hit": false,
      "t": 79071.3495,
      "d": 428.5709999999963,
      "v": 127
    },
    {
      "midi": 70,
      "hit": false,
      "t": 79071.3495,
      "d": 428.5709999999963,
      "v": 127
    },
    {
      "midi": 75,
      "hit": false,
      "t": 79071.3495,
      "d": 428.5709999999963,
      "v": 127
    },
    {
      "midi": 39,
      "hit": false,
      "t": 79071.3495000001,
      "d": 428.5709999999963,
      "v": 127
    },
    {
      "midi": 51,
      "hit": false,
      "t": 79071.3495000001,
      "d": 428.5709999999963,
      "v": 127
    },
    {
      "midi": 66,
      "hit": false,
      "t": 79928.49149999999,
      "d": 428.5709999999963,
      "v": 127
    },
    {
      "midi": 72,
      "hit": false,
      "t": 79928.49149999999,
      "d": 428.5709999999963,
      "v": 127
    },
    {
      "midi": 75,
      "hit": false,
      "t": 79928.49149999999,
      "d": 428.5709999999963,
      "v": 127
    },
    {
      "midi": 45,
      "hit": false,
      "t": 79928.49150000009,
      "d": 428.5709999999963,
      "v": 127
    },
    {
      "midi": 57,
      "hit": false,
      "t": 79928.49150000009,
      "d": 428.5709999999963,
      "v": 127
    },
    {
      "midi": 65,
      "hit": false,
      "t": 80785.63349999998,
      "d": 857.1420000000071,
      "v": 127
    },
    {
      "midi": 70,
      "hit": false,
      "t": 80785.63349999998,
      "d": 857.1420000000071,
      "v": 127
    },
    {
      "midi": 74,
      "hit": false,
      "t": 80785.63349999998,
      "d": 857.1420000000071,
      "v": 127
    },
    {
      "midi": 44,
      "hit": false,
      "t": 80785.63350000008,
      "d": 857.1420000000071,
      "v": 127
    },
    {
      "midi": 56,
      "hit": false,
      "t": 80785.63350000008,
      "d": 857.1420000000071,
      "v": 127
    },
    {
      "midi": 63,
      "hit": false,
      "t": 81642.77549999999,
      "d": 642.8564999999944,
      "v": 127
    },
    {
      "midi": 70,
      "hit": false,
      "t": 81642.77549999999,
      "d": 642.8564999999944,
      "v": 127
    },
    {
      "midi": 75,
      "hit": false,
      "t": 81642.77549999999,
      "d": 642.8564999999944,
      "v": 127
    },
    {
      "midi": 43,
      "hit": false,
      "t": 81642.77550000009,
      "d": 642.8564999999944,
      "v": 127
    },
    {
      "midi": 55,
      "hit": false,
      "t": 81642.77550000009,
      "d": 642.8564999999944,
      "v": 127
    },
    {
      "midi": 44,
      "hit": false,
      "t": 82499.91750000008,
      "d": 428.5709999999963,
      "v": 127
    },
    {
      "midi": 56,
      "hit": false,
      "t": 82499.91750000008,
      "d": 428.5709999999963,
      "v": 127
    },
    {
      "midi": 60,
      "hit": false,
      "t": 82714.20299999998,
      "d": 214.28549999999814,
      "v": 127
    },
    {
      "midi": 63,
      "hit": false,
      "t": 82714.20299999998,
      "d": 214.28549999999814,
      "v": 127
    },
    {
      "midi": 68,
      "hit": false,
      "t": 82714.20299999998,
      "d": 214.28549999999814,
      "v": 127
    },
    {
      "midi": 60,
      "hit": false,
      "t": 82928.48849999998,
      "d": 214.28549999999814,
      "v": 127
    },
    {
      "midi": 63,
      "hit": false,
      "t": 82928.48849999998,
      "d": 214.28549999999814,
      "v": 127
    },
    {
      "midi": 68,
      "hit": false,
      "t": 82928.48849999998,
      "d": 214.28549999999814,
      "v": 127
    },
    {
      "midi": 60,
      "hit": false,
      "t": 83142.77399999998,
      "d": 428.5709999999963,
      "v": 127
    },
    {
      "midi": 63,
      "hit": false,
      "t": 83142.77399999998,
      "d": 428.5709999999963,
      "v": 127
    },
    {
      "midi": 68,
      "hit": false,
      "t": 83142.77399999998,
      "d": 428.5709999999963,
      "v": 127
    },
    {
      "midi": 46,
      "hit": false,
      "t": 83357.05950000008,
      "d": 428.5709999999963,
      "v": 127
    },
    {
      "midi": 58,
      "hit": false,
      "t": 83357.05950000008,
      "d": 428.5709999999963,
      "v": 127
    },
    {
      "midi": 62,
      "hit": false,
      "t": 83571.34499999997,
      "d": 214.28549999999814,
      "v": 127
    },
    {
      "midi": 65,
      "hit": false,
      "t": 83571.34499999997,
      "d": 214.28549999999814,
      "v": 127
    },
    {
      "midi": 68,
      "hit": false,
      "t": 83571.34499999997,
      "d": 214.28549999999814,
      "v": 127
    },
    {
      "midi": 62,
      "hit": false,
      "t": 83785.63049999997,
      "d": 214.28549999999814,
      "v": 127
    },
    {
      "midi": 65,
      "hit": false,
      "t": 83785.63049999997,
      "d": 214.28549999999814,
      "v": 127
    },
    {
      "midi": 68,
      "hit": false,
      "t": 83785.63049999997,
      "d": 214.28549999999814,
      "v": 127
    },
    {
      "midi": 62,
      "hit": false,
      "t": 83999.91599999997,
      "d": 428.5709999999963,
      "v": 127
    },
    {
      "midi": 65,
      "hit": false,
      "t": 83999.91599999997,
      "d": 428.5709999999963,
      "v": 127
    },
    {
      "midi": 68,
      "hit": false,
      "t": 83999.91599999997,
      "d": 428.5709999999963,
      "v": 127
    },
    {
      "midi": 46,
      "hit": false,
      "t": 84214.20150000007,
      "d": 428.5709999999963,
      "v": 127
    },
    {
      "midi": 51,
      "hit": false,
      "t": 84214.20150000007,
      "d": 428.5709999999963,
      "v": 127
    },
    {
      "midi": 63,
      "hit": false,
      "t": 84428.48699999996,
      "d": 214.28549999999814,
      "v": 127
    },
    {
      "midi": 67,
      "hit": false,
      "t": 84428.48699999996,
      "d": 214.28549999999814,
      "v": 127
    },
    {
      "midi": 63,
      "hit": false,
      "t": 84642.77249999996,
      "d": 214.28549999999814,
      "v": 127
    },
    {
      "midi": 67,
      "hit": false,
      "t": 84642.77249999996,
      "d": 214.28549999999814,
      "v": 127
    },
    {
      "midi": 63,
      "hit": false,
      "t": 84857.05799999996,
      "d": 428.5709999999963,
      "v": 127
    },
    {
      "midi": 67,
      "hit": false,
      "t": 84857.05799999996,
      "d": 428.5709999999963,
      "v": 127
    },
    {
      "midi": 48,
      "hit": false,
      "t": 85071.34350000006,
      "d": 428.5709999999963,
      "v": 127
    },
    {
      "midi": 60,
      "hit": false,
      "t": 85071.34350000006,
      "d": 428.5709999999963,
      "v": 127
    },
    {
      "midi": 63,
      "hit": false,
      "t": 85285.62899999996,
      "d": 214.28549999999814,
      "v": 127
    },
    {
      "midi": 67,
      "hit": false,
      "t": 85285.62899999996,
      "d": 214.28549999999814,
      "v": 127
    },
    {
      "midi": 63,
      "hit": false,
      "t": 85499.91449999996,
      "d": 214.28549999999814,
      "v": 127
    },
    {
      "midi": 67,
      "hit": false,
      "t": 85499.91449999996,
      "d": 214.28549999999814,
      "v": 127
    },
    {
      "midi": 63,
      "hit": false,
      "t": 85714.19999999995,
      "d": 214.28549999999814,
      "v": 127
    },
    {
      "midi": 67,
      "hit": false,
      "t": 85714.19999999995,
      "d": 214.28549999999814,
      "v": 127
    },
    {
      "midi": 68,
      "hit": false,
      "t": 85928.48549999995,
      "d": 214.28549999999814,
      "v": 127
    },
    {
      "midi": 44,
      "hit": false,
      "t": 85928.48550000005,
      "d": 214.28549999999814,
      "v": 127
    },
    {
      "midi": 56,
      "hit": false,
      "t": 85928.48550000005,
      "d": 214.28549999999814,
      "v": 127
    },
    {
      "midi": 67,
      "hit": false,
      "t": 86142.77099999995,
      "d": 214.28549999999814,
      "v": 127
    },
    {
      "midi": 43,
      "hit": false,
      "t": 86142.77100000005,
      "d": 214.28549999999814,
      "v": 127
    },
    {
      "midi": 55,
      "hit": false,
      "t": 86142.77100000005,
      "d": 214.28549999999814,
      "v": 127
    },
    {
      "midi": 65,
      "hit": false,
      "t": 86357.05649999995,
      "d": 214.28549999999814,
      "v": 127
    },
    {
      "midi": 41,
      "hit": false,
      "t": 86357.05650000005,
      "d": 214.28549999999814,
      "v": 127
    },
    {
      "midi": 53,
      "hit": false,
      "t": 86357.05650000005,
      "d": 214.28549999999814,
      "v": 127
    },
    {
      "midi": 63,
      "hit": false,
      "t": 86571.34199999995,
      "d": 214.28549999999814,
      "v": 127
    },
    {
      "midi": 39,
      "hit": false,
      "t": 86571.34200000005,
      "d": 214.28549999999814,
      "v": 127
    },
    {
      "midi": 51,
      "hit": false,
      "t": 86571.34200000005,
      "d": 214.28549999999814,
      "v": 127
    },
    {
      "midi": 70,
      "hit": false,
      "t": 86785.62749999994,
      "d": 428.5709999999963,
      "v": 127
    },
    {
      "midi": 46,
      "hit": false,
      "t": 86785.62750000005,
      "d": 428.5709999999963,
      "v": 127
    },
    {
      "midi": 58,
      "hit": false,
      "t": 86785.62750000005,
      "d": 428.5709999999963,
      "v": 127
    },
    {
      "midi": 65,
      "hit": false,
      "t": 87214.19849999994,
      "d": 214.28549999999814,
      "v": 127
    },
    {
      "midi": 68,
      "hit": false,
      "t": 87214.19849999994,
      "d": 214.28549999999814,
      "v": 127
    },
    {
      "midi": 70,
      "hit": false,
      "t": 87214.19849999994,
      "d": 214.28549999999814,
      "v": 127
    },
    {
      "midi": 74,
      "hit": false,
      "t": 87214.19849999994,
      "d": 214.28549999999814,
      "v": 127
    },
    {
      "midi": 46,
      "hit": false,
      "t": 87214.19850000004,
      "d": 214.28549999999814,
      "v": 127
    },
    {
      "midi": 58,
      "hit": false,
      "t": 87214.19850000004,
      "d": 214.28549999999814,
      "v": 127
    },
    {
      "midi": 67,
      "hit": false,
      "t": 87642.76949999994,
      "d": 857.1420000000071,
      "v": 127
    },
    {
      "midi": 70,
      "hit": false,
      "t": 87642.76949999994,
      "d": 857.1420000000071,
      "v": 127
    },
    {
      "midi": 75,
      "hit": false,
      "t": 87642.76949999994,
      "d": 857.1420000000071,
      "v": 127
    },
    {
      "midi": 39,
      "hit": false,
      "t": 87642.76950000004,
      "d": 857.1420000000071,
      "v": 127
    },
    {
      "midi": 51,
      "hit": false,
      "t": 87642.76950000004,
      "d": 857.1420000000071,
      "v": 127
    },
    {
      "midi": 70,
      "hit": false,
      "t": 88928.48249999994,
      "d": 214.28549999999814,
      "v": 127
    },
    {
      "midi": 72,
      "hit": false,
      "t": 89142.76799999994,
      "d": 107.14274999999907,
      "v": 127
    },
    {
      "midi": 74,
      "hit": false,
      "t": 89249.91074999994,
      "d": 107.14274999999907,
      "v": 127
    },
    {
      "midi": 67,
      "hit": false,
      "t": 89357.05349999994,
      "d": 428.5709999999963,
      "v": 127
    },
    {
      "midi": 70,
      "hit": false,
      "t": 89357.05349999994,
      "d": 428.5709999999963,
      "v": 127
    },
    {
      "midi": 75,
      "hit": false,
      "t": 89357.05349999994,
      "d": 428.5709999999963,
      "v": 127
    },
    {
      "midi": 39,
      "hit": false,
      "t": 89357.05350000005,
      "d": 428.5709999999963,
      "v": 127
    },
    {
      "midi": 51,
      "hit": false,
      "t": 89357.05350000005,
      "d": 428.5709999999963,
      "v": 127
    },
    {
      "midi": 70,
      "hit": false,
      "t": 89785.62449999993,
      "d": 321.4282499999972,
      "v": 127
    },
    {
      "midi": 75,
      "hit": false,
      "t": 89785.62449999993,
      "d": 321.4282499999972,
      "v": 127
    },
    {
      "midi": 79,
      "hit": false,
      "t": 89785.62449999993,
      "d": 321.4282499999972,
      "v": 127
    },
    {
      "midi": 51,
      "hit": false,
      "t": 89785.62450000005,
      "d": 428.5709999999963,
      "v": 127
    },
    {
      "midi": 63,
      "hit": false,
      "t": 89785.62450000005,
      "d": 428.5709999999963,
      "v": 127
    },
    {
      "midi": 70,
      "hit": false,
      "t": 90107.05274999993,
      "d": 107.14274999999907,
      "v": 127
    },
    {
      "midi": 75,
      "hit": false,
      "t": 90107.05274999993,
      "d": 107.14274999999907,
      "v": 127
    },
    {
      "midi": 79,
      "hit": false,
      "t": 90107.05274999993,
      "d": 107.14274999999907,
      "v": 127
    },
    {
      "midi": 70,
      "hit": false,
      "t": 90214.19549999993,
      "d": 428.5709999999963,
      "v": 127
    },
    {
      "midi": 74,
      "hit": false,
      "t": 90214.19549999993,
      "d": 428.5709999999963,
      "v": 127
    },
    {
      "midi": 77,
      "hit": false,
      "t": 90214.19549999993,
      "d": 428.5709999999963,
      "v": 127
    },
    {
      "midi": 46,
      "hit": false,
      "t": 90214.19550000005,
      "d": 428.5709999999963,
      "v": 127
    },
    {
      "midi": 58,
      "hit": false,
      "t": 90214.19550000005,
      "d": 428.5709999999963,
      "v": 127
    },
    {
      "midi": 67,
      "hit": false,
      "t": 90642.76649999993,
      "d": 214.28549999999814,
      "v": 127
    },
    {
      "midi": 69,
      "hit": false,
      "t": 90857.05199999992,
      "d": 107.14274999999907,
      "v": 127
    },
    {
      "midi": 71,
      "hit": false,
      "t": 90964.19474999992,
      "d": 107.14274999999907,
      "v": 127
    },
    {
      "midi": 63,
      "hit": false,
      "t": 91071.33749999992,
      "d": 428.5709999999963,
      "v": 127
    },
    {
      "midi": 67,
      "hit": false,
      "t": 91071.33749999992,
      "d": 428.5709999999963,
      "v": 127
    },
    {
      "midi": 72,
      "hit": false,
      "t": 91071.33749999992,
      "d": 428.5709999999963,
      "v": 127
    },
    {
      "midi": 36,
      "hit": false,
      "t": 91071.33750000004,
      "d": 428.5709999999963,
      "v": 127
    },
    {
      "midi": 48,
      "hit": false,
      "t": 91071.33750000004,
      "d": 428.5709999999963,
      "v": 127
    },
    {
      "midi": 67,
      "hit": false,
      "t": 91499.90849999992,
      "d": 321.4282499999972,
      "v": 127
    },
    {
      "midi": 72,
      "hit": false,
      "t": 91499.90849999992,
      "d": 321.4282499999972,
      "v": 127
    },
    {
      "midi": 75,
      "hit": false,
      "t": 91499.90849999992,
      "d": 321.4282499999972,
      "v": 127
    },
    {
      "midi": 48,
      "hit": false,
      "t": 91499.90850000003,
      "d": 428.5709999999963,
      "v": 127
    },
    {
      "midi": 60,
      "hit": false,
      "t": 91499.90850000003,
      "d": 428.5709999999963,
      "v": 127
    },
    {
      "midi": 67,
      "hit": false,
      "t": 91821.33674999991,
      "d": 107.14274999999907,
      "v": 127
    },
    {
      "midi": 72,
      "hit": false,
      "t": 91821.33674999991,
      "d": 107.14274999999907,
      "v": 127
    },
    {
      "midi": 75,
      "hit": false,
      "t": 91821.33674999991,
      "d": 107.14274999999907,
      "v": 127
    },
    {
      "midi": 67,
      "hit": false,
      "t": 91928.47949999991,
      "d": 428.5709999999963,
      "v": 127
    },
    {
      "midi": 71,
      "hit": false,
      "t": 91928.47949999991,
      "d": 428.5709999999963,
      "v": 127
    },
    {
      "midi": 74,
      "hit": false,
      "t": 91928.47949999991,
      "d": 428.5709999999963,
      "v": 127
    },
    {
      "midi": 43,
      "hit": false,
      "t": 91928.47950000003,
      "d": 428.5709999999963,
      "v": 127
    },
    {
      "midi": 55,
      "hit": false,
      "t": 91928.47950000003,
      "d": 428.5709999999963,
      "v": 127
    },
    {
      "midi": 67,
      "hit": false,
      "t": 92571.33599999991,
      "d": 214.28549999999814,
      "v": 127
    },
    {
      "midi": 43,
      "hit": false,
      "t": 92571.33600000002,
      "d": 214.28549999999814,
      "v": 127
    },
    {
      "midi": 55,
      "hit": false,
      "t": 92571.33600000002,
      "d": 214.28549999999814,
      "v": 127
    },
    {
      "midi": 68,
      "hit": false,
      "t": 92785.6214999999,
      "d": 214.28549999999814,
      "v": 127
    },
    {
      "midi": 44,
      "hit": false,
      "t": 92785.62150000002,
      "d": 214.28549999999814,
      "v": 127
    },
    {
      "midi": 56,
      "hit": false,
      "t": 92785.62150000002,
      "d": 214.28549999999814,
      "v": 127
    },
    {
      "midi": 67,
      "hit": false,
      "t": 92999.9069999999,
      "d": 214.28549999999814,
      "v": 127
    },
    {
      "midi": 43,
      "hit": false,
      "t": 92999.90700000002,
      "d": 214.28549999999814,
      "v": 127
    },
    {
      "midi": 55,
      "hit": false,
      "t": 92999.90700000002,
      "d": 214.28549999999814,
      "v": 127
    },
    {
      "midi": 65,
      "hit": false,
      "t": 93214.1924999999,
      "d": 214.28549999999814,
      "v": 127
    },
    {
      "midi": 41,
      "hit": false,
      "t": 93214.19250000002,
      "d": 214.28549999999814,
      "v": 127
    },
    {
      "midi": 53,
      "hit": false,
      "t": 93214.19250000002,
      "d": 214.28549999999814,
      "v": 127
    },
    {
      "midi": 63,
      "hit": false,
      "t": 93428.4779999999,
      "d": 214.28549999999814,
      "v": 127
    },
    {
      "midi": 39,
      "hit": false,
      "t": 93428.47800000002,
      "d": 214.28549999999814,
      "v": 127
    },
    {
      "midi": 51,
      "hit": false,
      "t": 93428.47800000002,
      "d": 214.28549999999814,
      "v": 127
    },
    {
      "midi": 70,
      "hit": false,
      "t": 93642.7634999999,
      "d": 428.5709999999963,
      "v": 127
    },
    {
      "midi": 46,
      "hit": false,
      "t": 93642.76350000002,
      "d": 642.8564999999944,
      "v": 127
    },
    {
      "midi": 58,
      "hit": false,
      "t": 93642.76350000002,
      "d": 642.8564999999944,
      "v": 127
    },
    {
      "midi": 74,
      "hit": false,
      "t": 94071.3344999999,
      "d": 214.28549999999814,
      "v": 127
    },
    {
      "midi": 67,
      "hit": false,
      "t": 94499.90549999989,
      "d": 642.8564999999944,
      "v": 127
    },
    {
      "midi": 70,
      "hit": false,
      "t": 94499.90549999989,
      "d": 642.8564999999944,
      "v": 127
    },
    {
      "midi": 75,
      "hit": false,
      "t": 94499.90549999989,
      "d": 642.8564999999944,
      "v": 127
    },
    {
      "midi": 39,
      "hit": false,
      "t": 94499.90550000001,
      "d": 642.8564999999944,
      "v": 127
    },
    {
      "midi": 51,
      "hit": false,
      "t": 94499.90550000001,
      "d": 642.8564999999944,
      "v": 127
    },
    {
      "midi": 55,
      "hit": false,
      "t": 95249.90474999989,
      "d": 107.14274999999907,
      "v": 127
    },
    {
      "midi": 58,
      "hit": false,
      "t": 95249.90474999989,
      "d": 107.14274999999907,
      "v": 127
    },
    {
      "midi": 63,
      "hit": false,
      "t": 95249.90474999989,
      "d": 107.14274999999907,
      "v": 127
    },
    {
      "midi": 39,
      "hit": false,
      "t": 95249.90475,
      "d": 107.14274999999907,
      "v": 127
    },
    {
      "midi": 51,
      "hit": false,
      "t": 95249.90475,
      "d": 107.14274999999907,
      "v": 127
    },
    {
      "midi": 55,
      "hit": false,
      "t": 95357.04749999988,
      "d": 428.5709999999963,
      "v": 127
    },
    {
      "midi": 58,
      "hit": false,
      "t": 95357.04749999988,
      "d": 428.5709999999963,
      "v": 127
    },
    {
      "midi": 63,
      "hit": false,
      "t": 95357.04749999988,
      "d": 428.5709999999963,
      "v": 127
    },
    {
      "midi": 39,
      "hit": false,
      "t": 95357.0475,
      "d": 428.5709999999963,
      "v": 127
    },
    {
      "midi": 51,
      "hit": false,
      "t": 95357.0475,
      "d": 428.5709999999963,
      "v": 127
    },
    {
      "midi": 57,
      "hit": false,
      "t": 96214.18949999988,
      "d": 642.8564999999944,
      "v": 127
    },
    {
      "midi": 69,
      "hit": false,
      "t": 96214.18949999988,
      "d": 642.8564999999944,
      "v": 127
    },
    {
      "midi": 33,
      "hit": false,
      "t": 96214.1895,
      "d": 642.8564999999944,
      "v": 127
    },
    {
      "midi": 45,
      "hit": false,
      "t": 96214.1895,
      "d": 642.8564999999944,
      "v": 127
    },
    {
      "midi": 58,
      "hit": false,
      "t": 96857.04599999987,
      "d": 214.28549999999814,
      "v": 127
    },
    {
      "midi": 70,
      "hit": false,
      "t": 96857.04599999987,
      "d": 214.28549999999814,
      "v": 127
    },
    {
      "midi": 34,
      "hit": false,
      "t": 96857.04599999999,
      "d": 214.28549999999814,
      "v": 127
    },
    {
      "midi": 46,
      "hit": false,
      "t": 96857.04599999999,
      "d": 214.28549999999814,
      "v": 127
    },
    {
      "midi": 63,
      "hit": false,
      "t": 97071.33149999987,
      "d": 642.8564999999944,
      "v": 127
    },
    {
      "midi": 75,
      "hit": false,
      "t": 97071.33149999987,
      "d": 642.8564999999944,
      "v": 127
    },
    {
      "midi": 39,
      "hit": false,
      "t": 97071.33149999999,
      "d": 642.8564999999944,
      "v": 127
    },
    {
      "midi": 51,
      "hit": false,
      "t": 97071.33149999999,
      "d": 642.8564999999944,
      "v": 127
    },
    {
      "midi": 58,
      "hit": false,
      "t": 97714.18799999986,
      "d": 214.28549999999814,
      "v": 127
    },
    {
      "midi": 70,
      "hit": false,
      "t": 97714.18799999986,
      "d": 214.28549999999814,
      "v": 127
    },
    {
      "midi": 34,
      "hit": false,
      "t": 97714.18799999998,
      "d": 214.28549999999814,
      "v": 127
    },
    {
      "midi": 46,
      "hit": false,
      "t": 97714.18799999998,
      "d": 214.28549999999814,
      "v": 127
    },
    {
      "midi": 55,
      "hit": false,
      "t": 97928.47349999986,
      "d": 428.5709999999963,
      "v": 127
    },
    {
      "midi": 67,
      "hit": false,
      "t": 97928.47349999986,
      "d": 428.5709999999963,
      "v": 127
    },
    {
      "midi": 31,
      "hit": false,
      "t": 97928.47349999998,
      "d": 428.5709999999963,
      "v": 127
    },
    {
      "midi": 43,
      "hit": false,
      "t": 97928.47349999998,
      "d": 428.5709999999963,
      "v": 127
    },
    {
      "midi": 56,
      "hit": false,
      "t": 98357.04449999986,
      "d": 428.5709999999963,
      "v": 127
    },
    {
      "midi": 68,
      "hit": false,
      "t": 98357.04449999986,
      "d": 428.5709999999963,
      "v": 127
    },
    {
      "midi": 32,
      "hit": false,
      "t": 98357.04449999997,
      "d": 428.5709999999963,
      "v": 127
    },
    {
      "midi": 44,
      "hit": false,
      "t": 98357.04449999997,
      "d": 428.5709999999963,
      "v": 127
    },
    {
      "midi": 58,
      "hit": false,
      "t": 98785.61549999985,
      "d": 428.5709999999963,
      "v": 127
    },
    {
      "midi": 70,
      "hit": false,
      "t": 98785.61549999985,
      "d": 428.5709999999963,
      "v": 127
    },
    {
      "midi": 34,
      "hit": false,
      "t": 98785.61549999997,
      "d": 428.5709999999963,
      "v": 127
    },
    {
      "midi": 46,
      "hit": false,
      "t": 98785.61549999997,
      "d": 428.5709999999963,
      "v": 127
    },
    {
      "midi": 58,
      "hit": false,
      "t": 99642.75749999985,
      "d": 428.5709999999963,
      "v": 127
    },
    {
      "midi": 63,
      "hit": false,
      "t": 99642.75749999985,
      "d": 428.5709999999963,
      "v": 127
    },
    {
      "midi": 67,
      "hit": false,
      "t": 99642.75749999985,
      "d": 428.5709999999963,
      "v": 127
    },
    {
      "midi": 39,
      "hit": false,
      "t": 99642.75749999996,
      "d": 857.1420000000071,
      "v": 127
    },
    {
      "midi": 51,
      "hit": false,
      "t": 99642.75749999996,
      "d": 857.1420000000071,
      "v": 127
    },
    {
      "midi": 55,
      "hit": false,
      "t": 100071.32849999984,
      "d": 428.5709999999963,
      "v": 127
    },
    {
      "midi": 58,
      "hit": false,
      "t": 100071.32849999984,
      "d": 428.5709999999963,
      "v": 127
    },
    {
      "midi": 63,
      "hit": false,
      "t": 100071.32849999984,
      "d": 428.5709999999963,
      "v": 127
    },
    {
      "midi": 63,
      "hit": false,
      "t": 100499.89949999984,
      "d": 428.5709999999963,
      "v": 127
    },
    {
      "midi": 68,
      "hit": false,
      "t": 100499.89949999984,
      "d": 428.5709999999963,
      "v": 127
    },
    {
      "midi": 72,
      "hit": false,
      "t": 100499.89949999984,
      "d": 428.5709999999963,
      "v": 127
    },
    {
      "midi": 44,
      "hit": false,
      "t": 100499.89949999997,
      "d": 642.8564999999944,
      "v": 127
    },
    {
      "midi": 56,
      "hit": false,
      "t": 100499.89949999997,
      "d": 642.8564999999944,
      "v": 127
    },
    {
      "midi": 60,
      "hit": false,
      "t": 100928.47049999984,
      "d": 214.28549999999814,
      "v": 127
    },
    {
      "midi": 63,
      "hit": false,
      "t": 100928.47049999984,
      "d": 214.28549999999814,
      "v": 127
    },
    {
      "midi": 68,
      "hit": false,
      "t": 100928.47049999984,
      "d": 214.28549999999814,
      "v": 127
    },
    {
      "midi": 58,
      "hit": false,
      "t": 101357.04149999983,
      "d": 428.5709999999963,
      "v": 127
    },
    {
      "midi": 63,
      "hit": false,
      "t": 101357.04149999983,
      "d": 428.5709999999963,
      "v": 127
    },
    {
      "midi": 67,
      "hit": false,
      "t": 101357.04149999983,
      "d": 428.5709999999963,
      "v": 127
    },
    {
      "midi": 39,
      "hit": false,
      "t": 101357.04149999996,
      "d": 428.5709999999963,
      "v": 127
    },
    {
      "midi": 51,
      "hit": false,
      "t": 101357.04149999996,
      "d": 428.5709999999963,
      "v": 127
    },
    {
      "midi": 58,
      "hit": false,
      "t": 101785.61249999983,
      "d": 321.4282499999972,
      "v": 127
    },
    {
      "midi": 63,
      "hit": false,
      "t": 101785.61249999983,
      "d": 321.4282499999972,
      "v": 127
    },
    {
      "midi": 67,
      "hit": false,
      "t": 101785.61249999983,
      "d": 321.4282499999972,
      "v": 127
    },
    {
      "midi": 39,
      "hit": false,
      "t": 101785.61249999996,
      "d": 321.4282499999972,
      "v": 127
    },
    {
      "midi": 51,
      "hit": false,
      "t": 101785.61249999996,
      "d": 321.4282499999972,
      "v": 127
    },
    {
      "midi": 58,
      "hit": false,
      "t": 102107.04074999983,
      "d": 107.14274999999907,
      "v": 127
    },
    {
      "midi": 63,
      "hit": false,
      "t": 102107.04074999983,
      "d": 107.14274999999907,
      "v": 127
    },
    {
      "midi": 67,
      "hit": false,
      "t": 102107.04074999983,
      "d": 107.14274999999907,
      "v": 127
    },
    {
      "midi": 39,
      "hit": false,
      "t": 102107.04074999996,
      "d": 107.14274999999907,
      "v": 127
    },
    {
      "midi": 51,
      "hit": false,
      "t": 102107.04074999996,
      "d": 107.14274999999907,
      "v": 127
    },
    {
      "midi": 58,
      "hit": false,
      "t": 102214.18349999982,
      "d": 428.5709999999963,
      "v": 127
    },
    {
      "midi": 63,
      "hit": false,
      "t": 102214.18349999982,
      "d": 428.5709999999963,
      "v": 127
    },
    {
      "midi": 67,
      "hit": false,
      "t": 102214.18349999982,
      "d": 428.5709999999963,
      "v": 127
    },
    {
      "midi": 39,
      "hit": false,
      "t": 102214.18349999996,
      "d": 428.5709999999963,
      "v": 127
    },
    {
      "midi": 51,
      "hit": false,
      "t": 102214.18349999996,
      "d": 428.5709999999963,
      "v": 127
    },
    {
      "midi": 62,
      "hit": false,
      "t": 103071.32549999982,
      "d": 428.5709999999963,
      "v": 127
    },
    {
      "midi": 65,
      "hit": false,
      "t": 103071.32549999982,
      "d": 428.5709999999963,
      "v": 127
    },
    {
      "midi": 70,
      "hit": false,
      "t": 103071.32549999982,
      "d": 428.5709999999963,
      "v": 127
    },
    {
      "midi": 46,
      "hit": false,
      "t": 103071.32549999995,
      "d": 428.5709999999963,
      "v": 127
    },
    {
      "midi": 58,
      "hit": false,
      "t": 103071.32549999995,
      "d": 428.5709999999963,
      "v": 127
    },
    {
      "midi": 62,
      "hit": false,
      "t": 103928.46749999981,
      "d": 428.5709999999963,
      "v": 127
    },
    {
      "midi": 65,
      "hit": false,
      "t": 103928.46749999981,
      "d": 428.5709999999963,
      "v": 127
    },
    {
      "midi": 70,
      "hit": false,
      "t": 103928.46749999981,
      "d": 428.5709999999963,
      "v": 127
    },
    {
      "midi": 46,
      "hit": false,
      "t": 103928.46749999994,
      "d": 428.5709999999963,
      "v": 127
    },
    {
      "midi": 58,
      "hit": false,
      "t": 103928.46749999994,
      "d": 428.5709999999963,
      "v": 127
    },
    {
      "midi": 58,
      "hit": false,
      "t": 104785.6094999998,
      "d": 428.5709999999963,
      "v": 127
    },
    {
      "midi": 63,
      "hit": false,
      "t": 104785.6094999998,
      "d": 428.5709999999963,
      "v": 127
    },
    {
      "midi": 67,
      "hit": false,
      "t": 104785.6094999998,
      "d": 428.5709999999963,
      "v": 127
    },
    {
      "midi": 39,
      "hit": false,
      "t": 104785.60949999993,
      "d": 428.5709999999963,
      "v": 127
    },
    {
      "midi": 51,
      "hit": false,
      "t": 104785.60949999993,
      "d": 428.5709999999963,
      "v": 127
    },
    {
      "midi": 58,
      "hit": false,
      "t": 105642.7514999998,
      "d": 428.5709999999963,
      "v": 127
    },
    {
      "midi": 62,
      "hit": false,
      "t": 105642.7514999998,
      "d": 428.5709999999963,
      "v": 127
    },
    {
      "midi": 65,
      "hit": false,
      "t": 105642.7514999998,
      "d": 428.5709999999963,
      "v": 127
    },
    {
      "midi": 34,
      "hit": false,
      "t": 105642.75149999993,
      "d": 428.5709999999963,
      "v": 127
    },
    {
      "midi": 46,
      "hit": false,
      "t": 105642.75149999993,
      "d": 428.5709999999963,
      "v": 127
    },
    {
      "midi": 58,
      "hit": false,
      "t": 106499.89349999979,
      "d": 857.1420000000071,
      "v": 127
    },
    {
      "midi": 63,
      "hit": false,
      "t": 106499.89349999979,
      "d": 857.1420000000071,
      "v": 127
    },
    {
      "midi": 67,
      "hit": false,
      "t": 106499.89349999979,
      "d": 857.1420000000071,
      "v": 127
    },
    {
      "midi": 39,
      "hit": false,
      "t": 106499.89349999992,
      "d": 857.1420000000071,
      "v": 127
    },
    {
      "midi": 51,
      "hit": false,
      "t": 106499.89349999992,
      "d": 857.1420000000071,
      "v": 127
    },
    {
      "midi": 70,
      "hit": false,
      "t": 107357.0354999998,
      "d": 642.8564999999944,
      "v": 127
    },
    {
      "midi": 74,
      "hit": false,
      "t": 107357.0354999998,
      "d": 642.8564999999944,
      "v": 127
    },
    {
      "midi": 41,
      "hit": false,
      "t": 107357.03549999993,
      "d": 642.8564999999944,
      "v": 127
    },
    {
      "midi": 53,
      "hit": false,
      "t": 107357.03549999993,
      "d": 642.8564999999944,
      "v": 127
    },
    {
      "midi": 69,
      "hit": false,
      "t": 107999.89199999979,
      "d": 214.28549999999814,
      "v": 127
    },
    {
      "midi": 72,
      "hit": false,
      "t": 107999.89199999979,
      "d": 214.28549999999814,
      "v": 127
    },
    {
      "midi": 66,
      "hit": false,
      "t": 108214.17749999979,
      "d": 428.5709999999963,
      "v": 127
    },
    {
      "midi": 69,
      "hit": false,
      "t": 108214.17749999979,
      "d": 428.5709999999963,
      "v": 127
    },
    {
      "midi": 74,
      "hit": false,
      "t": 108214.17749999979,
      "d": 428.5709999999963,
      "v": 127
    },
    {
      "midi": 38,
      "hit": false,
      "t": 108214.17749999992,
      "d": 857.1420000000071,
      "v": 127
    },
    {
      "midi": 50,
      "hit": false,
      "t": 108214.17749999992,
      "d": 857.1420000000071,
      "v": 127
    },
    {
      "midi": 62,
      "hit": false,
      "t": 108642.74849999978,
      "d": 321.4282499999972,
      "v": 127
    },
    {
      "midi": 74,
      "hit": false,
      "t": 108642.74849999978,
      "d": 321.4282499999972,
      "v": 127
    },
    {
      "midi": 62,
      "hit": false,
      "t": 108964.17674999978,
      "d": 107.14274999999907,
      "v": 127
    },
    {
      "midi": 74,
      "hit": false,
      "t": 108964.17674999978,
      "d": 107.14274999999907,
      "v": 127
    },
    {
      "midi": 62,
      "hit": false,
      "t": 109071.31949999978,
      "d": 428.5709999999963,
      "v": 127
    },
    {
      "midi": 74,
      "hit": false,
      "t": 109071.31949999978,
      "d": 428.5709999999963,
      "v": 127
    },
    {
      "midi": 62,
      "hit": false,
      "t": 109928.46149999977,
      "d": 428.5709999999963,
      "v": 127
    },
    {
      "midi": 67,
      "hit": false,
      "t": 109928.46149999977,
      "d": 428.5709999999963,
      "v": 127
    },
    {
      "midi": 70,
      "hit": false,
      "t": 109928.46149999977,
      "d": 428.5709999999963,
      "v": 127
    },
    {
      "midi": 43,
      "hit": false,
      "t": 109928.46149999993,
      "d": 857.1420000000071,
      "v": 127
    },
    {
      "midi": 55,
      "hit": false,
      "t": 109928.46149999993,
      "d": 857.1420000000071,
      "v": 127
    },
    {
      "midi": 70,
      "hit": false,
      "t": 110357.03249999977,
      "d": 214.28549999999814,
      "v": 127
    },
    {
      "midi": 72,
      "hit": false,
      "t": 110571.31799999977,
      "d": 214.28549999999814,
      "v": 127
    },
    {
      "midi": 65,
      "hit": false,
      "t": 110785.60349999976,
      "d": 642.8564999999944,
      "v": 127
    },
    {
      "midi": 70,
      "hit": false,
      "t": 110785.60349999976,
      "d": 642.8564999999944,
      "v": 127
    },
    {
      "midi": 74,
      "hit": false,
      "t": 110785.60349999976,
      "d": 642.8564999999944,
      "v": 127
    },
    {
      "midi": 41,
      "hit": false,
      "t": 110785.60349999994,
      "d": 428.5709999999963,
      "v": 127
    },
    {
      "midi": 53,
      "hit": false,
      "t": 110785.60349999994,
      "d": 428.5709999999963,
      "v": 127
    },
    {
      "midi": 41,
      "hit": false,
      "t": 111214.17449999994,
      "d": 214.28549999999814,
      "v": 127
    },
    {
      "midi": 53,
      "hit": false,
      "t": 111214.17449999994,
      "d": 214.28549999999814,
      "v": 127
    },
    {
      "midi": 63,
      "hit": false,
      "t": 111428.45999999976,
      "d": 214.28549999999814,
      "v": 127
    },
    {
      "midi": 69,
      "hit": false,
      "t": 111428.45999999976,
      "d": 214.28549999999814,
      "v": 127
    },
    {
      "midi": 72,
      "hit": false,
      "t": 111428.45999999976,
      "d": 214.28549999999814,
      "v": 127
    },
    {
      "midi": 62,
      "hit": false,
      "t": 111642.74549999976,
      "d": 428.5709999999963,
      "v": 127
    },
    {
      "midi": 65,
      "hit": false,
      "t": 111642.74549999976,
      "d": 428.5709999999963,
      "v": 127
    },
    {
      "midi": 70,
      "hit": false,
      "t": 111642.74549999976,
      "d": 428.5709999999963,
      "v": 127
    },
    {
      "midi": 46,
      "hit": false,
      "t": 111642.74549999993,
      "d": 857.1420000000071,
      "v": 127
    },
    {
      "midi": 58,
      "hit": false,
      "t": 111642.74549999993,
      "d": 857.1420000000071,
      "v": 127
    },
    {
      "midi": 65,
      "hit": false,
      "t": 112071.31649999975,
      "d": 321.4282499999972,
      "v": 127
    },
    {
      "midi": 74,
      "hit": false,
      "t": 112392.74474999975,
      "d": 107.14274999999907,
      "v": 127
    },
    {
      "midi": 62,
      "hit": false,
      "t": 112499.88749999975,
      "d": 428.5709999999963,
      "v": 127
    },
    {
      "midi": 70,
      "hit": false,
      "t": 112499.88749999975,
      "d": 428.5709999999963,
      "v": 127
    },
    {
      "midi": 41,
      "hit": false,
      "t": 112499.88749999994,
      "d": 428.5709999999963,
      "v": 127
    },
    {
      "midi": 46,
      "hit": false,
      "t": 112499.88749999994,
      "d": 428.5709999999963,
      "v": 127
    },
    {
      "midi": 58,
      "hit": false,
      "t": 113357.02949999974,
      "d": 214.28549999999814,
      "v": 127
    },
    {
      "midi": 67,
      "hit": false,
      "t": 113357.02949999974,
      "d": 214.28549999999814,
      "v": 127
    },
    {
      "midi": 39,
      "hit": false,
      "t": 113357.02949999993,
      "d": 428.5709999999963,
      "v": 127
    },
    {
      "midi": 51,
      "hit": false,
      "t": 113357.02949999993,
      "d": 428.5709999999963,
      "v": 127
    },
    {
      "midi": 63,
      "hit": false,
      "t": 113571.31499999974,
      "d": 214.28549999999814,
      "v": 127
    },
    {
      "midi": 58,
      "hit": false,
      "t": 113785.60049999974,
      "d": 214.28549999999814,
      "v": 127
    },
    {
      "midi": 67,
      "hit": false,
      "t": 113785.60049999974,
      "d": 214.28549999999814,
      "v": 127
    },
    {
      "midi": 63,
      "hit": false,
      "t": 113999.88599999974,
      "d": 214.28549999999814,
      "v": 127
    },
    {
      "midi": 58,
      "hit": false,
      "t": 114214.17149999973,
      "d": 214.28549999999814,
      "v": 127
    },
    {
      "midi": 67,
      "hit": false,
      "t": 114214.17149999973,
      "d": 214.28549999999814,
      "v": 127
    },
    {
      "midi": 39,
      "hit": false,
      "t": 114214.17149999992,
      "d": 428.5709999999963,
      "v": 127
    },
    {
      "midi": 51,
      "hit": false,
      "t": 114214.17149999992,
      "d": 428.5709999999963,
      "v": 127
    },
    {
      "midi": 63,
      "hit": false,
      "t": 114428.45699999973,
      "d": 214.28549999999814,
      "v": 127
    },
    {
      "midi": 58,
      "hit": false,
      "t": 114642.74249999973,
      "d": 214.28549999999814,
      "v": 127
    },
    {
      "midi": 67,
      "hit": false,
      "t": 114642.74249999973,
      "d": 214.28549999999814,
      "v": 127
    },
    {
      "midi": 63,
      "hit": false,
      "t": 114857.02799999973,
      "d": 214.28549999999814,
      "v": 127
    },
    {
      "midi": 60,
      "hit": false,
      "t": 115071.31349999973,
      "d": 214.28549999999814,
      "v": 127
    },
    {
      "midi": 68,
      "hit": false,
      "t": 115071.31349999973,
      "d": 214.28549999999814,
      "v": 127
    },
    {
      "midi": 44,
      "hit": false,
      "t": 115071.31349999992,
      "d": 428.5709999999963,
      "v": 127
    },
    {
      "midi": 56,
      "hit": false,
      "t": 115071.31349999992,
      "d": 428.5709999999963,
      "v": 127
    },
    {
      "midi": 63,
      "hit": false,
      "t": 115285.59899999973,
      "d": 214.28549999999814,
      "v": 127
    },
    {
      "midi": 60,
      "hit": false,
      "t": 115499.88449999972,
      "d": 214.28549999999814,
      "v": 127
    },
    {
      "midi": 68,
      "hit": false,
      "t": 115499.88449999972,
      "d": 214.28549999999814,
      "v": 127
    },
    {
      "midi": 63,
      "hit": false,
      "t": 115714.16999999972,
      "d": 214.28549999999814,
      "v": 127
    },
    {
      "midi": 58,
      "hit": false,
      "t": 115928.45549999972,
      "d": 428.5709999999963,
      "v": 127
    },
    {
      "midi": 63,
      "hit": false,
      "t": 115928.45549999972,
      "d": 428.5709999999963,
      "v": 127
    },
    {
      "midi": 67,
      "hit": false,
      "t": 115928.45549999972,
      "d": 428.5709999999963,
      "v": 127
    },
    {
      "midi": 39,
      "hit": false,
      "t": 115928.45549999991,
      "d": 428.5709999999963,
      "v": 127
    },
    {
      "midi": 51,
      "hit": false,
      "t": 115928.45549999991,
      "d": 428.5709999999963,
      "v": 127
    },
    {
      "midi": 58,
      "hit": false,
      "t": 116785.59749999971,
      "d": 428.5709999999963,
      "v": 127
    },
    {
      "midi": 63,
      "hit": false,
      "t": 116785.59749999971,
      "d": 428.5709999999963,
      "v": 127
    },
    {
      "midi": 67,
      "hit": false,
      "t": 116785.59749999971,
      "d": 428.5709999999963,
      "v": 127
    },
    {
      "midi": 39,
      "hit": false,
      "t": 116785.5974999999,
      "d": 428.5709999999963,
      "v": 127
    },
    {
      "midi": 51,
      "hit": false,
      "t": 116785.5974999999,
      "d": 428.5709999999963,
      "v": 127
    },
    {
      "midi": 60,
      "hit": false,
      "t": 117642.7394999997,
      "d": 428.5709999999963,
      "v": 127
    },
    {
      "midi": 63,
      "hit": false,
      "t": 117642.7394999997,
      "d": 428.5709999999963,
      "v": 127
    },
    {
      "midi": 68,
      "hit": false,
      "t": 117642.7394999997,
      "d": 428.5709999999963,
      "v": 127
    },
    {
      "midi": 39,
      "hit": false,
      "t": 117642.7394999999,
      "d": 428.5709999999963,
      "v": 127
    },
    {
      "midi": 51,
      "hit": false,
      "t": 117642.7394999999,
      "d": 428.5709999999963,
      "v": 127
    },
    {
      "midi": 58,
      "hit": false,
      "t": 118499.8814999997,
      "d": 428.5709999999963,
      "v": 127
    },
    {
      "midi": 63,
      "hit": false,
      "t": 118499.8814999997,
      "d": 428.5709999999963,
      "v": 127
    },
    {
      "midi": 67,
      "hit": false,
      "t": 118499.8814999997,
      "d": 428.5709999999963,
      "v": 127
    },
    {
      "midi": 39,
      "hit": false,
      "t": 118499.88149999989,
      "d": 428.5709999999963,
      "v": 127
    },
    {
      "midi": 51,
      "hit": false,
      "t": 118499.88149999989,
      "d": 428.5709999999963,
      "v": 127
    },
    {
      "midi": 58,
      "hit": false,
      "t": 118928.4524999997,
      "d": 321.4282499999972,
      "v": 127
    },
    {
      "midi": 63,
      "hit": false,
      "t": 118928.4524999997,
      "d": 321.4282499999972,
      "v": 127
    },
    {
      "midi": 67,
      "hit": false,
      "t": 118928.4524999997,
      "d": 321.4282499999972,
      "v": 127
    },
    {
      "midi": 39,
      "hit": false,
      "t": 118928.45249999988,
      "d": 321.4282499999972,
      "v": 127
    },
    {
      "midi": 51,
      "hit": false,
      "t": 118928.45249999988,
      "d": 321.4282499999972,
      "v": 127
    },
    {
      "midi": 58,
      "hit": false,
      "t": 119249.88074999969,
      "d": 107.14274999999907,
      "v": 127
    },
    {
      "midi": 63,
      "hit": false,
      "t": 119249.88074999969,
      "d": 107.14274999999907,
      "v": 127
    },
    {
      "midi": 67,
      "hit": false,
      "t": 119249.88074999969,
      "d": 107.14274999999907,
      "v": 127
    },
    {
      "midi": 39,
      "hit": false,
      "t": 119249.88074999988,
      "d": 107.14274999999907,
      "v": 127
    },
    {
      "midi": 51,
      "hit": false,
      "t": 119249.88074999988,
      "d": 107.14274999999907,
      "v": 127
    },
    {
      "midi": 58,
      "hit": false,
      "t": 119357.02349999969,
      "d": 428.5709999999963,
      "v": 127
    },
    {
      "midi": 63,
      "hit": false,
      "t": 119357.02349999969,
      "d": 428.5709999999963,
      "v": 127
    },
    {
      "midi": 67,
      "hit": false,
      "t": 119357.02349999969,
      "d": 428.5709999999963,
      "v": 127
    },
    {
      "midi": 39,
      "hit": false,
      "t": 119357.02349999988,
      "d": 428.5709999999963,
      "v": 127
    },
    {
      "midi": 51,
      "hit": false,
      "t": 119357.02349999988,
      "d": 428.5709999999963,
      "v": 127
    },
    {
      "midi": 67,
      "hit": false,
      "t": 120214.16549999968,
      "d": 428.5709999999963,
      "v": 127
    },
    {
      "midi": 70,
      "hit": false,
      "t": 120214.16549999968,
      "d": 428.5709999999963,
      "v": 127
    },
    {
      "midi": 75,
      "hit": false,
      "t": 120214.16549999968,
      "d": 428.5709999999963,
      "v": 127
    },
    {
      "midi": 39,
      "hit": false,
      "t": 120214.16549999987,
      "d": 428.5709999999963,
      "v": 127
    },
    {
      "midi": 51,
      "hit": false,
      "t": 120214.16549999987,
      "d": 428.5709999999963,
      "v": 127
    },
    {
      "midi": 66,
      "hit": false,
      "t": 121071.30749999968,
      "d": 428.5709999999963,
      "v": 127
    },
    {
      "midi": 72,
      "hit": false,
      "t": 121071.30749999968,
      "d": 428.5709999999963,
      "v": 127
    },
    {
      "midi": 75,
      "hit": false,
      "t": 121071.30749999968,
      "d": 428.5709999999963,
      "v": 127
    },
    {
      "midi": 45,
      "hit": false,
      "t": 121071.30749999986,
      "d": 428.5709999999963,
      "v": 127
    },
    {
      "midi": 57,
      "hit": false,
      "t": 121071.30749999986,
      "d": 428.5709999999963,
      "v": 127
    },
    {
      "midi": 65,
      "hit": false,
      "t": 121928.44949999967,
      "d": 857.1420000000071,
      "v": 127
    },
    {
      "midi": 70,
      "hit": false,
      "t": 121928.44949999967,
      "d": 857.1420000000071,
      "v": 127
    },
    {
      "midi": 74,
      "hit": false,
      "t": 121928.44949999967,
      "d": 857.1420000000071,
      "v": 127
    },
    {
      "midi": 44,
      "hit": false,
      "t": 121928.44949999986,
      "d": 857.1420000000071,
      "v": 127
    },
    {
      "midi": 56,
      "hit": false,
      "t": 121928.44949999986,
      "d": 857.1420000000071,
      "v": 127
    },
    {
      "midi": 63,
      "hit": false,
      "t": 122785.59149999967,
      "d": 642.8564999999944,
      "v": 127
    },
    {
      "midi": 70,
      "hit": false,
      "t": 122785.59149999967,
      "d": 642.8564999999944,
      "v": 127
    },
    {
      "midi": 75,
      "hit": false,
      "t": 122785.59149999967,
      "d": 642.8564999999944,
      "v": 127
    },
    {
      "midi": 43,
      "hit": false,
      "t": 122785.59149999986,
      "d": 642.8564999999944,
      "v": 127
    },
    {
      "midi": 55,
      "hit": false,
      "t": 122785.59149999986,
      "d": 642.8564999999944,
      "v": 127
    },
    {
      "midi": 44,
      "hit": false,
      "t": 123642.73349999986,
      "d": 428.5709999999963,
      "v": 127
    },
    {
      "midi": 56,
      "hit": false,
      "t": 123642.73349999986,
      "d": 428.5709999999963,
      "v": 127
    },
    {
      "midi": 60,
      "hit": false,
      "t": 123857.01899999967,
      "d": 214.28549999999814,
      "v": 127
    },
    {
      "midi": 63,
      "hit": false,
      "t": 123857.01899999967,
      "d": 214.28549999999814,
      "v": 127
    },
    {
      "midi": 68,
      "hit": false,
      "t": 123857.01899999967,
      "d": 214.28549999999814,
      "v": 127
    },
    {
      "midi": 60,
      "hit": false,
      "t": 124071.30449999966,
      "d": 214.28549999999814,
      "v": 127
    },
    {
      "midi": 63,
      "hit": false,
      "t": 124071.30449999966,
      "d": 214.28549999999814,
      "v": 127
    },
    {
      "midi": 68,
      "hit": false,
      "t": 124071.30449999966,
      "d": 214.28549999999814,
      "v": 127
    },
    {
      "midi": 60,
      "hit": false,
      "t": 124285.58999999966,
      "d": 428.5709999999963,
      "v": 127
    },
    {
      "midi": 63,
      "hit": false,
      "t": 124285.58999999966,
      "d": 428.5709999999963,
      "v": 127
    },
    {
      "midi": 68,
      "hit": false,
      "t": 124285.58999999966,
      "d": 428.5709999999963,
      "v": 127
    },
    {
      "midi": 46,
      "hit": false,
      "t": 124499.87549999985,
      "d": 428.5709999999963,
      "v": 127
    },
    {
      "midi": 58,
      "hit": false,
      "t": 124499.87549999985,
      "d": 428.5709999999963,
      "v": 127
    },
    {
      "midi": 62,
      "hit": false,
      "t": 124714.16099999966,
      "d": 214.28549999999814,
      "v": 127
    },
    {
      "midi": 65,
      "hit": false,
      "t": 124714.16099999966,
      "d": 214.28549999999814,
      "v": 127
    },
    {
      "midi": 68,
      "hit": false,
      "t": 124714.16099999966,
      "d": 214.28549999999814,
      "v": 127
    },
    {
      "midi": 62,
      "hit": false,
      "t": 124928.44649999966,
      "d": 214.28549999999814,
      "v": 127
    },
    {
      "midi": 65,
      "hit": false,
      "t": 124928.44649999966,
      "d": 214.28549999999814,
      "v": 127
    },
    {
      "midi": 68,
      "hit": false,
      "t": 124928.44649999966,
      "d": 214.28549999999814,
      "v": 127
    },
    {
      "midi": 62,
      "hit": false,
      "t": 125142.73199999965,
      "d": 428.5709999999963,
      "v": 127
    },
    {
      "midi": 65,
      "hit": false,
      "t": 125142.73199999965,
      "d": 428.5709999999963,
      "v": 127
    },
    {
      "midi": 68,
      "hit": false,
      "t": 125142.73199999965,
      "d": 428.5709999999963,
      "v": 127
    },
    {
      "midi": 46,
      "hit": false,
      "t": 125357.01749999984,
      "d": 428.5709999999963,
      "v": 127
    },
    {
      "midi": 51,
      "hit": false,
      "t": 125357.01749999984,
      "d": 428.5709999999963,
      "v": 127
    },
    {
      "midi": 63,
      "hit": false,
      "t": 125571.30299999965,
      "d": 214.28549999999814,
      "v": 127
    },
    {
      "midi": 67,
      "hit": false,
      "t": 125571.30299999965,
      "d": 214.28549999999814,
      "v": 127
    },
    {
      "midi": 63,
      "hit": false,
      "t": 125785.58849999965,
      "d": 214.28549999999814,
      "v": 127
    },
    {
      "midi": 67,
      "hit": false,
      "t": 125785.58849999965,
      "d": 214.28549999999814,
      "v": 127
    },
    {
      "midi": 63,
      "hit": false,
      "t": 125999.87399999965,
      "d": 428.5709999999963,
      "v": 127
    },
    {
      "midi": 67,
      "hit": false,
      "t": 125999.87399999965,
      "d": 428.5709999999963,
      "v": 127
    },
    {
      "midi": 48,
      "hit": false,
      "t": 126214.15949999983,
      "d": 428.5709999999963,
      "v": 127
    },
    {
      "midi": 60,
      "hit": false,
      "t": 126214.15949999983,
      "d": 428.5709999999963,
      "v": 127
    },
    {
      "midi": 63,
      "hit": false,
      "t": 126428.44499999964,
      "d": 214.28549999999814,
      "v": 127
    },
    {
      "midi": 67,
      "hit": false,
      "t": 126428.44499999964,
      "d": 214.28549999999814,
      "v": 127
    },
    {
      "midi": 63,
      "hit": false,
      "t": 126642.73049999964,
      "d": 214.28549999999814,
      "v": 127
    },
    {
      "midi": 67,
      "hit": false,
      "t": 126642.73049999964,
      "d": 214.28549999999814,
      "v": 127
    },
    {
      "midi": 63,
      "hit": false,
      "t": 126857.01599999964,
      "d": 214.28549999999814,
      "v": 127
    },
    {
      "midi": 67,
      "hit": false,
      "t": 126857.01599999964,
      "d": 214.28549999999814,
      "v": 127
    },
    {
      "midi": 68,
      "hit": false,
      "t": 127071.30149999964,
      "d": 214.28549999999814,
      "v": 127
    },
    {
      "midi": 44,
      "hit": false,
      "t": 127071.30149999983,
      "d": 214.28549999999814,
      "v": 127
    },
    {
      "midi": 56,
      "hit": false,
      "t": 127071.30149999983,
      "d": 214.28549999999814,
      "v": 127
    },
    {
      "midi": 67,
      "hit": false,
      "t": 127285.58699999964,
      "d": 214.28549999999814,
      "v": 127
    },
    {
      "midi": 43,
      "hit": false,
      "t": 127285.58699999982,
      "d": 214.28549999999814,
      "v": 127
    },
    {
      "midi": 55,
      "hit": false,
      "t": 127285.58699999982,
      "d": 214.28549999999814,
      "v": 127
    },
    {
      "midi": 65,
      "hit": false,
      "t": 127499.87249999963,
      "d": 214.28549999999814,
      "v": 127
    },
    {
      "midi": 41,
      "hit": false,
      "t": 127499.87249999982,
      "d": 214.28549999999814,
      "v": 127
    },
    {
      "midi": 53,
      "hit": false,
      "t": 127499.87249999982,
      "d": 214.28549999999814,
      "v": 127
    },
    {
      "midi": 63,
      "hit": false,
      "t": 127714.15799999963,
      "d": 214.28549999999814,
      "v": 127
    },
    {
      "midi": 39,
      "hit": false,
      "t": 127714.15799999982,
      "d": 214.28549999999814,
      "v": 127
    },
    {
      "midi": 51,
      "hit": false,
      "t": 127714.15799999982,
      "d": 214.28549999999814,
      "v": 127
    },
    {
      "midi": 75,
      "hit": false,
      "t": 127928.44349999963,
      "d": 428.5709999999963,
      "v": 127
    },
    {
      "midi": 46,
      "hit": false,
      "t": 127928.44349999982,
      "d": 428.5709999999963,
      "v": 127
    },
    {
      "midi": 58,
      "hit": false,
      "t": 127928.44349999982,
      "d": 428.5709999999963,
      "v": 127
    },
    {
      "midi": 65,
      "hit": false,
      "t": 128357.01449999963,
      "d": 214.28549999999814,
      "v": 127
    },
    {
      "midi": 68,
      "hit": false,
      "t": 128357.01449999963,
      "d": 214.28549999999814,
      "v": 127
    },
    {
      "midi": 70,
      "hit": false,
      "t": 128357.01449999963,
      "d": 214.28549999999814,
      "v": 127
    },
    {
      "midi": 74,
      "hit": false,
      "t": 128357.01449999963,
      "d": 214.28549999999814,
      "v": 127
    },
    {
      "midi": 46,
      "hit": false,
      "t": 128357.01449999982,
      "d": 214.28549999999814,
      "v": 127
    },
    {
      "midi": 58,
      "hit": false,
      "t": 128357.01449999982,
      "d": 214.28549999999814,
      "v": 127
    },
    {
      "midi": 67,
      "hit": false,
      "t": 128785.58549999962,
      "d": 857.1420000000071,
      "v": 127
    },
    {
      "midi": 70,
      "hit": false,
      "t": 128785.58549999962,
      "d": 857.1420000000071,
      "v": 127
    },
    {
      "midi": 75,
      "hit": false,
      "t": 128785.58549999962,
      "d": 857.1420000000071,
      "v": 127
    },
    {
      "midi": 39,
      "hit": false,
      "t": 128785.58549999981,
      "d": 857.1420000000071,
      "v": 127
    },
    {
      "midi": 51,
      "hit": false,
      "t": 128785.58549999981,
      "d": 857.1420000000071,
      "v": 127
    },
    {
      "midi": 70,
      "hit": false,
      "t": 130071.29849999963,
      "d": 214.28549999999814,
      "v": 127
    },
    {
      "midi": 72,
      "hit": false,
      "t": 130285.58399999962,
      "d": 107.14274999999907,
      "v": 127
    },
    {
      "midi": 74,
      "hit": false,
      "t": 130392.72674999962,
      "d": 107.14274999999907,
      "v": 127
    },
    {
      "midi": 67,
      "hit": false,
      "t": 130499.86949999962,
      "d": 428.5709999999963,
      "v": 127
    },
    {
      "midi": 70,
      "hit": false,
      "t": 130499.86949999962,
      "d": 428.5709999999963,
      "v": 127
    },
    {
      "midi": 75,
      "hit": false,
      "t": 130499.86949999962,
      "d": 428.5709999999963,
      "v": 127
    },
    {
      "midi": 39,
      "hit": false,
      "t": 130499.86949999983,
      "d": 428.5709999999963,
      "v": 127
    },
    {
      "midi": 51,
      "hit": false,
      "t": 130499.86949999983,
      "d": 428.5709999999963,
      "v": 127
    },
    {
      "midi": 70,
      "hit": false,
      "t": 130928.44049999962,
      "d": 321.4282499999972,
      "v": 127
    },
    {
      "midi": 75,
      "hit": false,
      "t": 130928.44049999962,
      "d": 321.4282499999972,
      "v": 127
    },
    {
      "midi": 79,
      "hit": false,
      "t": 130928.44049999962,
      "d": 321.4282499999972,
      "v": 127
    },
    {
      "midi": 51,
      "hit": false,
      "t": 130928.44049999982,
      "d": 428.5709999999963,
      "v": 127
    },
    {
      "midi": 63,
      "hit": false,
      "t": 130928.44049999982,
      "d": 428.5709999999963,
      "v": 127
    },
    {
      "midi": 70,
      "hit": false,
      "t": 131249.86874999962,
      "d": 107.14274999999907,
      "v": 127
    },
    {
      "midi": 75,
      "hit": false,
      "t": 131249.86874999962,
      "d": 107.14274999999907,
      "v": 127
    },
    {
      "midi": 79,
      "hit": false,
      "t": 131249.86874999962,
      "d": 107.14274999999907,
      "v": 127
    },
    {
      "midi": 70,
      "hit": false,
      "t": 131357.01149999961,
      "d": 428.5709999999963,
      "v": 127
    },
    {
      "midi": 74,
      "hit": false,
      "t": 131357.01149999961,
      "d": 428.5709999999963,
      "v": 127
    },
    {
      "midi": 77,
      "hit": false,
      "t": 131357.01149999961,
      "d": 428.5709999999963,
      "v": 127
    },
    {
      "midi": 46,
      "hit": false,
      "t": 131357.01149999982,
      "d": 428.5709999999963,
      "v": 127
    },
    {
      "midi": 58,
      "hit": false,
      "t": 131357.01149999982,
      "d": 428.5709999999963,
      "v": 127
    },
    {
      "midi": 67,
      "hit": false,
      "t": 131785.5824999996,
      "d": 214.28549999999814,
      "v": 127
    },
    {
      "midi": 69,
      "hit": false,
      "t": 131999.8679999996,
      "d": 107.14274999999907,
      "v": 127
    },
    {
      "midi": 71,
      "hit": false,
      "t": 132107.0107499996,
      "d": 107.14274999999907,
      "v": 127
    },
    {
      "midi": 63,
      "hit": false,
      "t": 132214.1534999996,
      "d": 428.5709999999963,
      "v": 127
    },
    {
      "midi": 67,
      "hit": false,
      "t": 132214.1534999996,
      "d": 428.5709999999963,
      "v": 127
    },
    {
      "midi": 72,
      "hit": false,
      "t": 132214.1534999996,
      "d": 428.5709999999963,
      "v": 127
    },
    {
      "midi": 36,
      "hit": false,
      "t": 132214.1534999998,
      "d": 428.5709999999963,
      "v": 127
    },
    {
      "midi": 48,
      "hit": false,
      "t": 132214.1534999998,
      "d": 428.5709999999963,
      "v": 127
    },
    {
      "midi": 67,
      "hit": false,
      "t": 132642.7244999996,
      "d": 321.4282499999972,
      "v": 127
    },
    {
      "midi": 72,
      "hit": false,
      "t": 132642.7244999996,
      "d": 321.4282499999972,
      "v": 127
    },
    {
      "midi": 75,
      "hit": false,
      "t": 132642.7244999996,
      "d": 321.4282499999972,
      "v": 127
    },
    {
      "midi": 48,
      "hit": false,
      "t": 132642.7244999998,
      "d": 428.5709999999963,
      "v": 127
    },
    {
      "midi": 60,
      "hit": false,
      "t": 132642.7244999998,
      "d": 428.5709999999963,
      "v": 127
    },
    {
      "midi": 67,
      "hit": false,
      "t": 132964.1527499996,
      "d": 107.14274999999907,
      "v": 127
    },
    {
      "midi": 72,
      "hit": false,
      "t": 132964.1527499996,
      "d": 107.14274999999907,
      "v": 127
    },
    {
      "midi": 75,
      "hit": false,
      "t": 132964.1527499996,
      "d": 107.14274999999907,
      "v": 127
    },
    {
      "midi": 67,
      "hit": false,
      "t": 133071.2954999996,
      "d": 428.5709999999963,
      "v": 127
    },
    {
      "midi": 71,
      "hit": false,
      "t": 133071.2954999996,
      "d": 428.5709999999963,
      "v": 127
    },
    {
      "midi": 74,
      "hit": false,
      "t": 133071.2954999996,
      "d": 428.5709999999963,
      "v": 127
    },
    {
      "midi": 43,
      "hit": false,
      "t": 133071.2954999998,
      "d": 428.5709999999963,
      "v": 127
    },
    {
      "midi": 55,
      "hit": false,
      "t": 133071.2954999998,
      "d": 428.5709999999963,
      "v": 127
    },
    {
      "midi": 67,
      "hit": false,
      "t": 133714.1519999996,
      "d": 214.28549999999814,
      "v": 127
    },
    {
      "midi": 43,
      "hit": false,
      "t": 133714.1519999998,
      "d": 214.28549999999814,
      "v": 127
    },
    {
      "midi": 55,
      "hit": false,
      "t": 133714.1519999998,
      "d": 214.28549999999814,
      "v": 127
    },
    {
      "midi": 68,
      "hit": false,
      "t": 133928.4374999996,
      "d": 214.28549999999814,
      "v": 127
    },
    {
      "midi": 44,
      "hit": false,
      "t": 133928.4374999998,
      "d": 214.28549999999814,
      "v": 127
    },
    {
      "midi": 56,
      "hit": false,
      "t": 133928.4374999998,
      "d": 214.28549999999814,
      "v": 127
    },
    {
      "midi": 67,
      "hit": false,
      "t": 134142.7229999996,
      "d": 214.28549999999814,
      "v": 127
    },
    {
      "midi": 43,
      "hit": false,
      "t": 134142.7229999998,
      "d": 214.28549999999814,
      "v": 127
    },
    {
      "midi": 55,
      "hit": false,
      "t": 134142.7229999998,
      "d": 214.28549999999814,
      "v": 127
    },
    {
      "midi": 65,
      "hit": false,
      "t": 134357.0084999996,
      "d": 214.28549999999814,
      "v": 127
    },
    {
      "midi": 41,
      "hit": false,
      "t": 134357.0084999998,
      "d": 214.28549999999814,
      "v": 127
    },
    {
      "midi": 53,
      "hit": false,
      "t": 134357.0084999998,
      "d": 214.28549999999814,
      "v": 127
    },
    {
      "midi": 63,
      "hit": false,
      "t": 134571.2939999996,
      "d": 214.28549999999814,
      "v": 127
    },
    {
      "midi": 39,
      "hit": false,
      "t": 134571.2939999998,
      "d": 214.28549999999814,
      "v": 127
    },
    {
      "midi": 51,
      "hit": false,
      "t": 134571.2939999998,
      "d": 214.28549999999814,
      "v": 127
    },
    {
      "midi": 70,
      "hit": false,
      "t": 134785.57949999959,
      "d": 428.5709999999963,
      "v": 127
    },
    {
      "midi": 46,
      "hit": false,
      "t": 134785.5794999998,
      "d": 642.8564999999944,
      "v": 127
    },
    {
      "midi": 58,
      "hit": false,
      "t": 134785.5794999998,
      "d": 642.8564999999944,
      "v": 127
    },
    {
      "midi": 74,
      "hit": false,
      "t": 135214.15049999958,
      "d": 214.28549999999814,
      "v": 127
    },
    {
      "midi": 67,
      "hit": false,
      "t": 135642.72149999958,
      "d": 642.8564999999944,
      "v": 127
    },
    {
      "midi": 70,
      "hit": false,
      "t": 135642.72149999958,
      "d": 642.8564999999944,
      "v": 127
    },
    {
      "midi": 75,
      "hit": false,
      "t": 135642.72149999958,
      "d": 642.8564999999944,
      "v": 127
    },
    {
      "midi": 39,
      "hit": false,
      "t": 135642.72149999978,
      "d": 642.8564999999944,
      "v": 127
    },
    {
      "midi": 51,
      "hit": false,
      "t": 135642.72149999978,
      "d": 642.8564999999944,
      "v": 127
    },
    {
      "midi": 55,
      "hit": false,
      "t": 136392.72074999957,
      "d": 107.14274999999907,
      "v": 127
    },
    {
      "midi": 58,
      "hit": false,
      "t": 136392.72074999957,
      "d": 107.14274999999907,
      "v": 127
    },
    {
      "midi": 63,
      "hit": false,
      "t": 136392.72074999957,
      "d": 107.14274999999907,
      "v": 127
    },
    {
      "midi": 39,
      "hit": false,
      "t": 136392.72074999977,
      "d": 107.14274999999907,
      "v": 127
    },
    {
      "midi": 51,
      "hit": false,
      "t": 136392.72074999977,
      "d": 107.14274999999907,
      "v": 127
    },
    {
      "midi": 55,
      "hit": false,
      "t": 136499.86349999957,
      "d": 428.5709999999963,
      "v": 127
    },
    {
      "midi": 58,
      "hit": false,
      "t": 136499.86349999957,
      "d": 428.5709999999963,
      "v": 127
    },
    {
      "midi": 63,
      "hit": false,
      "t": 136499.86349999957,
      "d": 428.5709999999963,
      "v": 127
    },
    {
      "midi": 39,
      "hit": false,
      "t": 136499.86349999977,
      "d": 428.5709999999963,
      "v": 127
    },
    {
      "midi": 51,
      "hit": false,
      "t": 136499.86349999977,
      "d": 428.5709999999963,
      "v": 127
    }
  ]
}