{
  "jsonPath": "Soundtracks/Video Game Music/Donkey Kong Country/donkey-kong-levelone.json",
  "path": "Soundtracks\\Video Game Music\\Donkey Kong Country\\Donkey_Kong_LevelOne.mid",
  "name": "Donkey_Kong_LevelOne",
  "difficulty": "Beginner",
  "bpm": 170.0000850000425,
  "notes": [
    {
      "midi": 48,
      "hit": false,
      "t": 3.446689453125,
      "d": 359.4897099609375,
      "v": 69
    },
    {
      "midi": 52,
      "hit": false,
      "t": 537.3388857421875,
      "d": 165.09642480468744,
      "v": 64
    },
    {
      "midi": 55,
      "hit": false,
      "t": 888.9012099609374,
      "d": 163.37308007812499,
      "v": 64
    },
    {
      "midi": 57,
      "hit": false,
      "t": 1062.95902734375,
      "d": 163.37308007812499,
      "v": 65
    },
    {
      "midi": 55,
      "hit": false,
      "t": 1237.0168447265626,
      "d": 164.06241796874997,
      "v": 64
    },
    {
      "midi": 48,
      "hit": false,
      "t": 1413.14267578125,
      "d": 361.55772363281244,
      "v": 69
    },
    {
      "midi": 52,
      "hit": false,
      "t": 1949.1028857421875,
      "d": 165.09642480468756,
      "v": 64
    },
    {
      "midi": 55,
      "hit": false,
      "t": 2300.6652099609373,
      "d": 163.37308007812499,
      "v": 64
    },
    {
      "midi": 57,
      "hit": false,
      "t": 2474.72302734375,
      "d": 163.37308007812499,
      "v": 65
    },
    {
      "midi": 55,
      "hit": false,
      "t": 2648.7808447265625,
      "d": 164.0624179687502,
      "v": 64
    },
    {
      "midi": 48,
      "hit": false,
      "t": 2824.90667578125,
      "d": 361.55772363281267,
      "v": 69
    },
    {
      "midi": 52,
      "hit": false,
      "t": 3360.866885742188,
      "d": 165.09642480468756,
      "v": 64
    },
    {
      "midi": 55,
      "hit": false,
      "t": 3712.4292099609384,
      "d": 163.37308007812499,
      "v": 64
    },
    {
      "midi": 57,
      "hit": false,
      "t": 3886.487027343751,
      "d": 163.37308007812499,
      "v": 65
    },
    {
      "midi": 55,
      "hit": false,
      "t": 4060.5448447265635,
      "d": 164.0624179687502,
      "v": 64
    },
    {
      "midi": 48,
      "hit": false,
      "t": 4236.670675781251,
      "d": 361.55772363281267,
      "v": 69
    },
    {
      "midi": 52,
      "hit": false,
      "t": 4772.630885742188,
      "d": 165.09642480468756,
      "v": 64
    },
    {
      "midi": 55,
      "hit": false,
      "t": 5124.1932099609385,
      "d": 163.37308007812499,
      "v": 64
    },
    {
      "midi": 57,
      "hit": false,
      "t": 5298.251027343751,
      "d": 163.37308007812499,
      "v": 65
    },
    {
      "midi": 55,
      "hit": false,
      "t": 5472.308844726564,
      "d": 164.0624179687502,
      "v": 64
    },
    {
      "midi": 48,
      "hit": false,
      "t": 5648.434675781251,
      "d": 361.55772363281267,
      "v": 69
    },
    {
      "midi": 52,
      "hit": false,
      "t": 6184.394885742188,
      "d": 165.09642480468756,
      "v": 64
    },
    {
      "midi": 55,
      "hit": false,
      "t": 6535.957209960939,
      "d": 163.37308007812499,
      "v": 64
    },
    {
      "midi": 57,
      "hit": false,
      "t": 6710.015027343751,
      "d": 163.37308007812499,
      "v": 65
    },
    {
      "midi": 55,
      "hit": false,
      "t": 6884.072844726564,
      "d": 164.0624179687502,
      "v": 64
    },
    {
      "midi": 48,
      "hit": false,
      "t": 7060.198675781251,
      "d": 361.55772363281267,
      "v": 69
    },
    {
      "midi": 52,
      "hit": false,
      "t": 7596.158885742188,
      "d": 165.09642480468756,
      "v": 64
    },
    {
      "midi": 55,
      "hit": false,
      "t": 7947.721209960939,
      "d": 163.37308007812499,
      "v": 64
    },
    {
      "midi": 57,
      "hit": false,
      "t": 8121.779027343751,
      "d": 163.37308007812499,
      "v": 65
    },
    {
      "midi": 55,
      "hit": false,
      "t": 8295.836844726564,
      "d": 164.0624179687493,
      "v": 64
    },
    {
      "midi": 48,
      "hit": false,
      "t": 8471.962675781251,
      "d": 361.55772363281176,
      "v": 69
    },
    {
      "midi": 52,
      "hit": false,
      "t": 9007.922885742188,
      "d": 165.09642480468756,
      "v": 64
    },
    {
      "midi": 55,
      "hit": false,
      "t": 9359.485209960938,
      "d": 163.37308007812499,
      "v": 64
    },
    {
      "midi": 57,
      "hit": false,
      "t": 9533.54302734375,
      "d": 163.37308007812499,
      "v": 65
    },
    {
      "midi": 55,
      "hit": false,
      "t": 9707.600844726563,
      "d": 164.0624179687493,
      "v": 64
    },
    {
      "midi": 48,
      "hit": false,
      "t": 9883.72667578125,
      "d": 361.55772363281176,
      "v": 69
    },
    {
      "midi": 52,
      "hit": false,
      "t": 10419.686885742187,
      "d": 165.09642480468756,
      "v": 64
    },
    {
      "midi": 55,
      "hit": false,
      "t": 10771.249209960937,
      "d": 163.37308007812499,
      "v": 64
    },
    {
      "midi": 57,
      "hit": false,
      "t": 10945.30702734375,
      "d": 163.37308007812499,
      "v": 65
    },
    {
      "midi": 55,
      "hit": false,
      "t": 11119.364844726562,
      "d": 164.0624179687493,
      "v": 64
    },
    {
      "midi": 48,
      "hit": false,
      "t": 11295.49067578125,
      "d": 361.55772363281176,
      "v": 69
    },
    {
      "midi": 52,
      "hit": false,
      "t": 11831.450885742186,
      "d": 165.09642480468756,
      "v": 64
    },
    {
      "midi": 55,
      "hit": false,
      "t": 12183.013209960936,
      "d": 163.37308007812499,
      "v": 64
    },
    {
      "midi": 57,
      "hit": false,
      "t": 12357.071027343749,
      "d": 163.37308007812499,
      "v": 65
    },
    {
      "midi": 55,
      "hit": false,
      "t": 12531.128844726562,
      "d": 164.0624179687493,
      "v": 64
    },
    {
      "midi": 48,
      "hit": false,
      "t": 12707.254675781249,
      "d": 361.55772363281176,
      "v": 69
    },
    {
      "midi": 52,
      "hit": false,
      "t": 13243.214885742185,
      "d": 165.09642480468756,
      "v": 64
    },
    {
      "midi": 55,
      "hit": false,
      "t": 13594.777209960936,
      "d": 163.37308007812499,
      "v": 64
    },
    {
      "midi": 57,
      "hit": false,
      "t": 13768.835027343748,
      "d": 163.37308007812499,
      "v": 65
    },
    {
      "midi": 55,
      "hit": false,
      "t": 13942.89284472656,
      "d": 164.0624179687493,
      "v": 64
    },
    {
      "midi": 48,
      "hit": false,
      "t": 14119.018675781248,
      "d": 361.55772363281176,
      "v": 69
    },
    {
      "midi": 52,
      "hit": false,
      "t": 14654.978885742185,
      "d": 165.09642480468756,
      "v": 64
    },
    {
      "midi": 55,
      "hit": false,
      "t": 15006.541209960935,
      "d": 163.37308007812499,
      "v": 64
    },
    {
      "midi": 57,
      "hit": false,
      "t": 15180.599027343747,
      "d": 163.37308007812499,
      "v": 65
    },
    {
      "midi": 55,
      "hit": false,
      "t": 15354.65684472656,
      "d": 164.0624179687493,
      "v": 64
    },
    {
      "midi": 48,
      "hit": false,
      "t": 15530.782675781247,
      "d": 361.55772363281176,
      "v": 69
    },
    {
      "midi": 52,
      "hit": false,
      "t": 16066.742885742184,
      "d": 165.09642480468756,
      "v": 64
    },
    {
      "midi": 55,
      "hit": false,
      "t": 16418.305209960934,
      "d": 163.3730800781268,
      "v": 64
    },
    {
      "midi": 57,
      "hit": false,
      "t": 16592.36302734375,
      "d": 163.37308007812317,
      "v": 65
    },
    {
      "midi": 55,
      "hit": false,
      "t": 16766.42084472656,
      "d": 164.0624179687511,
      "v": 64
    },
    {
      "midi": 48,
      "hit": false,
      "t": 16942.546675781246,
      "d": 361.5577236328136,
      "v": 69
    },
    {
      "midi": 52,
      "hit": false,
      "t": 17478.506885742187,
      "d": 165.09642480468756,
      "v": 64
    },
    {
      "midi": 55,
      "hit": false,
      "t": 17830.069209960937,
      "d": 163.3730800781268,
      "v": 64
    },
    {
      "midi": 57,
      "hit": false,
      "t": 18004.12702734375,
      "d": 163.37308007812317,
      "v": 65
    },
    {
      "midi": 55,
      "hit": false,
      "t": 18178.184844726562,
      "d": 164.0624179687511,
      "v": 64
    },
    {
      "midi": 48,
      "hit": false,
      "t": 18354.31067578125,
      "d": 361.5577236328136,
      "v": 69
    },
    {
      "midi": 52,
      "hit": false,
      "t": 18890.27088574219,
      "d": 165.09642480468756,
      "v": 64
    },
    {
      "midi": 55,
      "hit": false,
      "t": 19241.83320996094,
      "d": 163.3730800781268,
      "v": 64
    },
    {
      "midi": 57,
      "hit": false,
      "t": 19415.891027343754,
      "d": 163.37308007812317,
      "v": 65
    },
    {
      "midi": 55,
      "hit": false,
      "t": 19589.948844726565,
      "d": 164.0624179687511,
      "v": 64
    },
    {
      "midi": 48,
      "hit": false,
      "t": 19766.074675781252,
      "d": 361.5577236328136,
      "v": 69
    },
    {
      "midi": 52,
      "hit": false,
      "t": 20302.034885742192,
      "d": 165.09642480468756,
      "v": 64
    },
    {
      "midi": 55,
      "hit": false,
      "t": 20653.597209960943,
      "d": 163.3730800781268,
      "v": 64
    },
    {
      "midi": 57,
      "hit": false,
      "t": 20827.655027343757,
      "d": 163.37308007812317,
      "v": 65
    },
    {
      "midi": 55,
      "hit": false,
      "t": 21001.712844726568,
      "d": 164.0624179687511,
      "v": 64
    },
    {
      "midi": 48,
      "hit": false,
      "t": 21177.838675781255,
      "d": 361.5577236328136,
      "v": 69
    },
    {
      "midi": 52,
      "hit": false,
      "t": 21713.798885742195,
      "d": 165.09642480468756,
      "v": 64
    },
    {
      "midi": 55,
      "hit": false,
      "t": 22065.361209960945,
      "d": 163.3730800781268,
      "v": 64
    },
    {
      "midi": 57,
      "hit": false,
      "t": 22239.41902734376,
      "d": 163.37308007812317,
      "v": 65
    },
    {
      "midi": 55,
      "hit": false,
      "t": 22413.47684472657,
      "d": 164.0624179687511,
      "v": 64
    }
  ]
}