{
  "jsonPath": "Rock/Country Rock/Lorrie Morgan/dont-stop-in-my-world-if-you-dont-mean-to-stay.json",
  "path": "Rock\\Country Rock\\Lorrie Morgan\\Dont Stop In My World (If You Dont Mean To Stay).mid",
  "name": "Dont Stop In My World (If You Dont Mean To Stay)",
  "difficulty": "Advanced",
  "bpm": 140.00046666822223,
  "notes": [
    {
      "midi": 72,
      "hit": false,
      "t": 2571.4199999999996,
      "d": 107.14249999999993,
      "v": 105
    },
    {
      "midi": 76,
      "hit": false,
      "t": 2571.4199999999996,
      "d": 107.14249999999993,
      "v": 110
    },
    {
      "midi": 71,
      "hit": false,
      "t": 2999.9899999999993,
      "d": 107.14249999999993,
      "v": 105
    },
    {
      "midi": 74,
      "hit": false,
      "t": 2999.9899999999993,
      "d": 107.14249999999993,
      "v": 112
    },
    {
      "midi": 69,
      "hit": false,
      "t": 3428.559999999999,
      "d": 857.1399999999999,
      "v": 117
    },
    {
      "midi": 72,
      "hit": false,
      "t": 3428.559999999999,
      "d": 857.1399999999999,
      "v": 117
    },
    {
      "midi": 38,
      "hit": false,
      "t": 3428.5599999999995,
      "d": 428.57000000000016,
      "v": 125
    },
    {
      "midi": 57,
      "hit": false,
      "t": 3714.2733333333326,
      "d": 138.39239583333347,
      "v": 125
    },
    {
      "midi": 62,
      "hit": false,
      "t": 3714.2733333333326,
      "d": 138.39239583333347,
      "v": 125
    },
    {
      "midi": 66,
      "hit": false,
      "t": 3714.2733333333326,
      "d": 138.39239583333347,
      "v": 125
    },
    {
      "midi": 42,
      "hit": false,
      "t": 3857.1299999999997,
      "d": 428.57000000000016,
      "v": 125
    },
    {
      "midi": 57,
      "hit": false,
      "t": 4142.843333333333,
      "d": 138.39239583333347,
      "v": 125
    },
    {
      "midi": 62,
      "hit": false,
      "t": 4142.843333333333,
      "d": 138.39239583333347,
      "v": 125
    },
    {
      "midi": 66,
      "hit": false,
      "t": 4142.843333333333,
      "d": 138.39239583333347,
      "v": 125
    },
    {
      "midi": 71,
      "hit": false,
      "t": 4285.699999999999,
      "d": 714.2833333333328,
      "v": 105
    },
    {
      "midi": 74,
      "hit": false,
      "t": 4285.699999999999,
      "d": 714.2833333333328,
      "v": 105
    },
    {
      "midi": 45,
      "hit": false,
      "t": 4285.7,
      "d": 428.5699999999997,
      "v": 125
    },
    {
      "midi": 57,
      "hit": false,
      "t": 4571.413333333333,
      "d": 138.39239583333347,
      "v": 125
    },
    {
      "midi": 62,
      "hit": false,
      "t": 4571.413333333333,
      "d": 138.39239583333347,
      "v": 125
    },
    {
      "midi": 66,
      "hit": false,
      "t": 4571.413333333333,
      "d": 138.39239583333347,
      "v": 125
    },
    {
      "midi": 47,
      "hit": false,
      "t": 4714.2699999999995,
      "d": 428.5699999999997,
      "v": 125
    },
    {
      "midi": 72,
      "hit": false,
      "t": 4999.983333333332,
      "d": 138.39239583333347,
      "v": 101
    },
    {
      "midi": 76,
      "hit": false,
      "t": 4999.983333333332,
      "d": 138.39239583333347,
      "v": 101
    },
    {
      "midi": 57,
      "hit": false,
      "t": 4999.983333333333,
      "d": 138.39239583333347,
      "v": 125
    },
    {
      "midi": 62,
      "hit": false,
      "t": 4999.983333333333,
      "d": 138.39239583333347,
      "v": 125
    },
    {
      "midi": 66,
      "hit": false,
      "t": 4999.983333333333,
      "d": 138.39239583333347,
      "v": 125
    },
    {
      "midi": 71,
      "hit": false,
      "t": 5142.839999999998,
      "d": 424.1057291666666,
      "v": 99
    },
    {
      "midi": 74,
      "hit": false,
      "t": 5142.839999999998,
      "d": 424.1057291666666,
      "v": 101
    },
    {
      "midi": 50,
      "hit": false,
      "t": 5142.839999999999,
      "d": 138.39239583333347,
      "v": 125
    },
    {
      "midi": 45,
      "hit": false,
      "t": 5285.696666666666,
      "d": 138.39239583333347,
      "v": 125
    },
    {
      "midi": 42,
      "hit": false,
      "t": 5428.553333333332,
      "d": 138.39239583333347,
      "v": 125
    },
    {
      "midi": 57,
      "hit": false,
      "t": 5428.553333333332,
      "d": 138.39239583333347,
      "v": 125
    },
    {
      "midi": 62,
      "hit": false,
      "t": 5428.553333333332,
      "d": 138.39239583333347,
      "v": 125
    },
    {
      "midi": 66,
      "hit": false,
      "t": 5428.553333333332,
      "d": 138.39239583333347,
      "v": 125
    },
    {
      "midi": 69,
      "hit": false,
      "t": 5571.409999999998,
      "d": 424.1057291666666,
      "v": 105
    },
    {
      "midi": 72,
      "hit": false,
      "t": 5571.409999999998,
      "d": 424.1057291666666,
      "v": 104
    },
    {
      "midi": 38,
      "hit": false,
      "t": 5571.409999999999,
      "d": 428.5699999999997,
      "v": 125
    },
    {
      "midi": 57,
      "hit": false,
      "t": 5857.123333333332,
      "d": 138.39239583333347,
      "v": 125
    },
    {
      "midi": 62,
      "hit": false,
      "t": 5857.123333333332,
      "d": 138.39239583333347,
      "v": 125
    },
    {
      "midi": 66,
      "hit": false,
      "t": 5857.123333333332,
      "d": 138.39239583333347,
      "v": 125
    },
    {
      "midi": 66,
      "hit": false,
      "t": 5999.979999999998,
      "d": 428.5699999999997,
      "v": 83
    },
    {
      "midi": 69,
      "hit": false,
      "t": 5999.979999999998,
      "d": 428.5699999999997,
      "v": 84
    },
    {
      "midi": 40,
      "hit": false,
      "t": 5999.979999999999,
      "d": 428.5699999999997,
      "v": 125
    },
    {
      "midi": 57,
      "hit": false,
      "t": 6285.693333333332,
      "d": 138.39239583333347,
      "v": 125
    },
    {
      "midi": 62,
      "hit": false,
      "t": 6285.693333333332,
      "d": 138.39239583333347,
      "v": 125
    },
    {
      "midi": 66,
      "hit": false,
      "t": 6285.693333333332,
      "d": 138.39239583333347,
      "v": 125
    },
    {
      "midi": 69,
      "hit": false,
      "t": 6428.549999999997,
      "d": 428.5699999999997,
      "v": 105
    },
    {
      "midi": 72,
      "hit": false,
      "t": 6428.549999999997,
      "d": 428.5699999999997,
      "v": 105
    },
    {
      "midi": 42,
      "hit": false,
      "t": 6428.549999999998,
      "d": 428.5699999999997,
      "v": 125
    },
    {
      "midi": 57,
      "hit": false,
      "t": 6714.2633333333315,
      "d": 138.39239583333347,
      "v": 125
    },
    {
      "midi": 62,
      "hit": false,
      "t": 6714.2633333333315,
      "d": 138.39239583333347,
      "v": 125
    },
    {
      "midi": 66,
      "hit": false,
      "t": 6714.2633333333315,
      "d": 138.39239583333347,
      "v": 125
    },
    {
      "midi": 71,
      "hit": false,
      "t": 6857.119999999997,
      "d": 1571.4233333333323,
      "v": 115
    },
    {
      "midi": 43,
      "hit": false,
      "t": 6857.119999999998,
      "d": 428.5699999999997,
      "v": 125
    },
    {
      "midi": 67,
      "hit": false,
      "t": 6881.673489583331,
      "d": 1571.4233333333323,
      "v": 112
    },
    {
      "midi": 59,
      "hit": false,
      "t": 7142.833333333331,
      "d": 138.39239583333347,
      "v": 125
    },
    {
      "midi": 62,
      "hit": false,
      "t": 7142.833333333331,
      "d": 138.39239583333347,
      "v": 125
    },
    {
      "midi": 67,
      "hit": false,
      "t": 7142.833333333331,
      "d": 138.39239583333347,
      "v": 125
    },
    {
      "midi": 40,
      "hit": false,
      "t": 7285.689999999998,
      "d": 428.5699999999997,
      "v": 125
    },
    {
      "midi": 59,
      "hit": false,
      "t": 7571.403333333331,
      "d": 138.39239583333347,
      "v": 125
    },
    {
      "midi": 62,
      "hit": false,
      "t": 7571.403333333331,
      "d": 138.39239583333347,
      "v": 125
    },
    {
      "midi": 67,
      "hit": false,
      "t": 7571.403333333331,
      "d": 138.39239583333347,
      "v": 125
    },
    {
      "midi": 38,
      "hit": false,
      "t": 7714.2599999999975,
      "d": 428.5699999999997,
      "v": 125
    },
    {
      "midi": 59,
      "hit": false,
      "t": 7999.973333333331,
      "d": 138.39239583333347,
      "v": 125
    },
    {
      "midi": 62,
      "hit": false,
      "t": 7999.973333333331,
      "d": 138.39239583333347,
      "v": 125
    },
    {
      "midi": 67,
      "hit": false,
      "t": 7999.973333333331,
      "d": 138.39239583333347,
      "v": 125
    },
    {
      "midi": 35,
      "hit": false,
      "t": 8142.829999999997,
      "d": 428.5700000000006,
      "v": 125
    },
    {
      "midi": 59,
      "hit": false,
      "t": 8428.543333333331,
      "d": 138.39239583333256,
      "v": 125
    },
    {
      "midi": 62,
      "hit": false,
      "t": 8428.543333333331,
      "d": 138.39239583333256,
      "v": 125
    },
    {
      "midi": 67,
      "hit": false,
      "t": 8428.543333333331,
      "d": 138.39239583333256,
      "v": 125
    },
    {
      "midi": 69,
      "hit": false,
      "t": 8430.775468749996,
      "d": 111.60677083333394,
      "v": 117
    },
    {
      "midi": 31,
      "hit": false,
      "t": 8571.399999999998,
      "d": 428.5699999999997,
      "v": 125
    },
    {
      "midi": 67,
      "hit": false,
      "t": 8571.399999999998,
      "d": 1571.4233333333395,
      "v": 104
    },
    {
      "midi": 71,
      "hit": false,
      "t": 8571.399999999998,
      "d": 1571.4233333333395,
      "v": 105
    },
    {
      "midi": 59,
      "hit": false,
      "t": 8857.113333333331,
      "d": 138.39239583333256,
      "v": 125
    },
    {
      "midi": 62,
      "hit": false,
      "t": 8857.113333333331,
      "d": 138.39239583333256,
      "v": 125
    },
    {
      "midi": 67,
      "hit": false,
      "t": 8857.113333333331,
      "d": 138.39239583333256,
      "v": 125
    },
    {
      "midi": 26,
      "hit": false,
      "t": 8999.969999999998,
      "d": 428.5699999999997,
      "v": 125
    },
    {
      "midi": 59,
      "hit": false,
      "t": 9285.68333333333,
      "d": 138.39239583333256,
      "v": 125
    },
    {
      "midi": 62,
      "hit": false,
      "t": 9285.68333333333,
      "d": 138.39239583333256,
      "v": 125
    },
    {
      "midi": 67,
      "hit": false,
      "t": 9285.68333333333,
      "d": 138.39239583333256,
      "v": 125
    },
    {
      "midi": 28,
      "hit": false,
      "t": 9428.539999999997,
      "d": 428.5699999999997,
      "v": 125
    },
    {
      "midi": 59,
      "hit": false,
      "t": 9714.25333333333,
      "d": 138.39239583333256,
      "v": 125
    },
    {
      "midi": 62,
      "hit": false,
      "t": 9714.25333333333,
      "d": 138.39239583333256,
      "v": 125
    },
    {
      "midi": 67,
      "hit": false,
      "t": 9714.25333333333,
      "d": 138.39239583333256,
      "v": 125
    },
    {
      "midi": 30,
      "hit": false,
      "t": 9857.109999999997,
      "d": 428.5699999999997,
      "v": 125
    },
    {
      "midi": 59,
      "hit": false,
      "t": 10142.82333333333,
      "d": 138.39239583333256,
      "v": 125
    },
    {
      "midi": 62,
      "hit": false,
      "t": 10142.82333333333,
      "d": 138.39239583333256,
      "v": 125
    },
    {
      "midi": 67,
      "hit": false,
      "t": 10142.82333333333,
      "d": 138.39239583333256,
      "v": 125
    },
    {
      "midi": 31,
      "hit": false,
      "t": 10285.679999999997,
      "d": 428.5699999999997,
      "v": 125
    },
    {
      "midi": 59,
      "hit": false,
      "t": 10571.39333333333,
      "d": 138.39239583333256,
      "v": 125
    },
    {
      "midi": 62,
      "hit": false,
      "t": 10571.39333333333,
      "d": 138.39239583333256,
      "v": 125
    },
    {
      "midi": 67,
      "hit": false,
      "t": 10571.39333333333,
      "d": 138.39239583333256,
      "v": 125
    },
    {
      "midi": 35,
      "hit": false,
      "t": 10714.249999999996,
      "d": 428.5699999999997,
      "v": 125
    },
    {
      "midi": 59,
      "hit": false,
      "t": 10999.96333333333,
      "d": 138.39239583333256,
      "v": 125
    },
    {
      "midi": 62,
      "hit": false,
      "t": 10999.96333333333,
      "d": 138.39239583333256,
      "v": 125
    },
    {
      "midi": 67,
      "hit": false,
      "t": 10999.96333333333,
      "d": 138.39239583333256,
      "v": 125
    },
    {
      "midi": 38,
      "hit": false,
      "t": 11142.819999999996,
      "d": 428.5699999999997,
      "v": 125
    },
    {
      "midi": 59,
      "hit": false,
      "t": 11428.53333333333,
      "d": 138.39239583333256,
      "v": 125
    },
    {
      "midi": 62,
      "hit": false,
      "t": 11428.53333333333,
      "d": 138.39239583333256,
      "v": 125
    },
    {
      "midi": 67,
      "hit": false,
      "t": 11428.53333333333,
      "d": 138.39239583333256,
      "v": 125
    },
    {
      "midi": 35,
      "hit": false,
      "t": 11571.389999999996,
      "d": 428.5699999999997,
      "v": 125
    },
    {
      "midi": 59,
      "hit": false,
      "t": 11857.103333333329,
      "d": 138.39239583333256,
      "v": 125
    },
    {
      "midi": 62,
      "hit": false,
      "t": 11857.103333333329,
      "d": 138.39239583333256,
      "v": 125
    },
    {
      "midi": 67,
      "hit": false,
      "t": 11857.103333333329,
      "d": 138.39239583333256,
      "v": 125
    },
    {
      "midi": 31,
      "hit": false,
      "t": 11999.959999999995,
      "d": 428.5699999999997,
      "v": 125
    },
    {
      "midi": 59,
      "hit": false,
      "t": 12285.673333333329,
      "d": 138.39239583333256,
      "v": 125
    },
    {
      "midi": 62,
      "hit": false,
      "t": 12285.673333333329,
      "d": 138.39239583333256,
      "v": 125
    },
    {
      "midi": 67,
      "hit": false,
      "t": 12285.673333333329,
      "d": 138.39239583333256,
      "v": 125
    },
    {
      "midi": 35,
      "hit": false,
      "t": 12428.529999999995,
      "d": 428.5699999999997,
      "v": 125
    },
    {
      "midi": 59,
      "hit": false,
      "t": 12714.243333333328,
      "d": 138.39239583333256,
      "v": 125
    },
    {
      "midi": 62,
      "hit": false,
      "t": 12714.243333333328,
      "d": 138.39239583333256,
      "v": 125
    },
    {
      "midi": 67,
      "hit": false,
      "t": 12714.243333333328,
      "d": 138.39239583333256,
      "v": 125
    },
    {
      "midi": 36,
      "hit": false,
      "t": 12857.099999999995,
      "d": 428.5699999999997,
      "v": 125
    },
    {
      "midi": 59,
      "hit": false,
      "t": 13142.813333333328,
      "d": 138.39239583333256,
      "v": 125
    },
    {
      "midi": 62,
      "hit": false,
      "t": 13142.813333333328,
      "d": 138.39239583333256,
      "v": 125
    },
    {
      "midi": 67,
      "hit": false,
      "t": 13142.813333333328,
      "d": 138.39239583333256,
      "v": 125
    },
    {
      "midi": 37,
      "hit": false,
      "t": 13285.669999999995,
      "d": 428.5699999999997,
      "v": 125
    },
    {
      "midi": 59,
      "hit": false,
      "t": 13571.383333333328,
      "d": 138.39239583333256,
      "v": 125
    },
    {
      "midi": 62,
      "hit": false,
      "t": 13571.383333333328,
      "d": 138.39239583333256,
      "v": 125
    },
    {
      "midi": 67,
      "hit": false,
      "t": 13571.383333333328,
      "d": 138.39239583333256,
      "v": 125
    },
    {
      "midi": 38,
      "hit": false,
      "t": 13714.239999999994,
      "d": 428.5699999999997,
      "v": 125
    },
    {
      "midi": 57,
      "hit": false,
      "t": 13999.953333333327,
      "d": 138.39239583333256,
      "v": 125
    },
    {
      "midi": 62,
      "hit": false,
      "t": 13999.953333333327,
      "d": 138.39239583333256,
      "v": 125
    },
    {
      "midi": 66,
      "hit": false,
      "t": 13999.953333333327,
      "d": 138.39239583333256,
      "v": 125
    },
    {
      "midi": 42,
      "hit": false,
      "t": 14142.809999999994,
      "d": 428.5699999999997,
      "v": 125
    },
    {
      "midi": 57,
      "hit": false,
      "t": 14428.523333333327,
      "d": 138.39239583333256,
      "v": 125
    },
    {
      "midi": 62,
      "hit": false,
      "t": 14428.523333333327,
      "d": 138.39239583333256,
      "v": 125
    },
    {
      "midi": 66,
      "hit": false,
      "t": 14428.523333333327,
      "d": 138.39239583333256,
      "v": 125
    },
    {
      "midi": 45,
      "hit": false,
      "t": 14571.379999999994,
      "d": 428.5699999999997,
      "v": 125
    },
    {
      "midi": 57,
      "hit": false,
      "t": 14857.093333333327,
      "d": 138.39239583333256,
      "v": 125
    },
    {
      "midi": 62,
      "hit": false,
      "t": 14857.093333333327,
      "d": 138.39239583333256,
      "v": 125
    },
    {
      "midi": 66,
      "hit": false,
      "t": 14857.093333333327,
      "d": 138.39239583333256,
      "v": 125
    },
    {
      "midi": 42,
      "hit": false,
      "t": 14999.949999999993,
      "d": 428.5699999999997,
      "v": 125
    },
    {
      "midi": 57,
      "hit": false,
      "t": 15285.663333333327,
      "d": 138.39239583333256,
      "v": 125
    },
    {
      "midi": 62,
      "hit": false,
      "t": 15285.663333333327,
      "d": 138.39239583333256,
      "v": 125
    },
    {
      "midi": 66,
      "hit": false,
      "t": 15285.663333333327,
      "d": 138.39239583333256,
      "v": 125
    },
    {
      "midi": 38,
      "hit": false,
      "t": 15428.519999999993,
      "d": 428.5699999999997,
      "v": 125
    },
    {
      "midi": 57,
      "hit": false,
      "t": 15714.233333333326,
      "d": 138.39239583333256,
      "v": 125
    },
    {
      "midi": 62,
      "hit": false,
      "t": 15714.233333333326,
      "d": 138.39239583333256,
      "v": 125
    },
    {
      "midi": 66,
      "hit": false,
      "t": 15714.233333333326,
      "d": 138.39239583333256,
      "v": 125
    },
    {
      "midi": 42,
      "hit": false,
      "t": 15857.089999999993,
      "d": 428.5699999999997,
      "v": 125
    },
    {
      "midi": 57,
      "hit": false,
      "t": 16142.803333333326,
      "d": 138.39239583333256,
      "v": 125
    },
    {
      "midi": 62,
      "hit": false,
      "t": 16142.803333333326,
      "d": 138.39239583333256,
      "v": 125
    },
    {
      "midi": 66,
      "hit": false,
      "t": 16142.803333333326,
      "d": 138.39239583333256,
      "v": 125
    },
    {
      "midi": 45,
      "hit": false,
      "t": 16285.659999999993,
      "d": 428.5699999999997,
      "v": 125
    },
    {
      "midi": 57,
      "hit": false,
      "t": 16571.373333333326,
      "d": 138.39239583333256,
      "v": 125
    },
    {
      "midi": 62,
      "hit": false,
      "t": 16571.373333333326,
      "d": 138.39239583333256,
      "v": 125
    },
    {
      "midi": 66,
      "hit": false,
      "t": 16571.373333333326,
      "d": 138.39239583333256,
      "v": 125
    },
    {
      "midi": 42,
      "hit": false,
      "t": 16714.229999999992,
      "d": 428.5699999999997,
      "v": 125
    },
    {
      "midi": 57,
      "hit": false,
      "t": 16999.943333333325,
      "d": 138.39239583333256,
      "v": 125
    },
    {
      "midi": 62,
      "hit": false,
      "t": 16999.943333333325,
      "d": 138.39239583333256,
      "v": 125
    },
    {
      "midi": 66,
      "hit": false,
      "t": 16999.943333333325,
      "d": 138.39239583333256,
      "v": 125
    },
    {
      "midi": 38,
      "hit": false,
      "t": 17142.799999999992,
      "d": 428.5699999999997,
      "v": 125
    },
    {
      "midi": 57,
      "hit": false,
      "t": 17428.513333333325,
      "d": 138.39239583333256,
      "v": 125
    },
    {
      "midi": 62,
      "hit": false,
      "t": 17428.513333333325,
      "d": 138.39239583333256,
      "v": 125
    },
    {
      "midi": 66,
      "hit": false,
      "t": 17428.513333333325,
      "d": 138.39239583333256,
      "v": 125
    },
    {
      "midi": 42,
      "hit": false,
      "t": 17571.36999999999,
      "d": 428.5699999999997,
      "v": 125
    },
    {
      "midi": 57,
      "hit": false,
      "t": 17857.083333333325,
      "d": 138.39239583333256,
      "v": 125
    },
    {
      "midi": 62,
      "hit": false,
      "t": 17857.083333333325,
      "d": 138.39239583333256,
      "v": 125
    },
    {
      "midi": 66,
      "hit": false,
      "t": 17857.083333333325,
      "d": 138.39239583333256,
      "v": 125
    },
    {
      "midi": 45,
      "hit": false,
      "t": 17999.93999999999,
      "d": 428.5699999999997,
      "v": 125
    },
    {
      "midi": 57,
      "hit": false,
      "t": 18285.653333333325,
      "d": 138.39239583333256,
      "v": 125
    },
    {
      "midi": 62,
      "hit": false,
      "t": 18285.653333333325,
      "d": 138.39239583333256,
      "v": 125
    },
    {
      "midi": 66,
      "hit": false,
      "t": 18285.653333333325,
      "d": 138.39239583333256,
      "v": 125
    },
    {
      "midi": 42,
      "hit": false,
      "t": 18428.50999999999,
      "d": 428.5699999999997,
      "v": 125
    },
    {
      "midi": 57,
      "hit": false,
      "t": 18714.223333333324,
      "d": 138.39239583333256,
      "v": 125
    },
    {
      "midi": 62,
      "hit": false,
      "t": 18714.223333333324,
      "d": 138.39239583333256,
      "v": 125
    },
    {
      "midi": 66,
      "hit": false,
      "t": 18714.223333333324,
      "d": 138.39239583333256,
      "v": 125
    },
    {
      "midi": 38,
      "hit": false,
      "t": 18857.07999999999,
      "d": 428.5699999999997,
      "v": 125
    },
    {
      "midi": 57,
      "hit": false,
      "t": 19142.793333333324,
      "d": 138.39239583333256,
      "v": 125
    },
    {
      "midi": 62,
      "hit": false,
      "t": 19142.793333333324,
      "d": 138.39239583333256,
      "v": 125
    },
    {
      "midi": 66,
      "hit": false,
      "t": 19142.793333333324,
      "d": 138.39239583333256,
      "v": 125
    },
    {
      "midi": 36,
      "hit": false,
      "t": 19285.64999999999,
      "d": 428.5699999999997,
      "v": 125
    },
    {
      "midi": 57,
      "hit": false,
      "t": 19571.363333333324,
      "d": 138.39239583333256,
      "v": 125
    },
    {
      "midi": 62,
      "hit": false,
      "t": 19571.363333333324,
      "d": 138.39239583333256,
      "v": 125
    },
    {
      "midi": 66,
      "hit": false,
      "t": 19571.363333333324,
      "d": 138.39239583333256,
      "v": 125
    },
    {
      "midi": 35,
      "hit": false,
      "t": 19714.21999999999,
      "d": 428.5699999999997,
      "v": 125
    },
    {
      "midi": 57,
      "hit": false,
      "t": 19999.933333333323,
      "d": 138.39239583333256,
      "v": 125
    },
    {
      "midi": 62,
      "hit": false,
      "t": 19999.933333333323,
      "d": 138.39239583333256,
      "v": 125
    },
    {
      "midi": 66,
      "hit": false,
      "t": 19999.933333333323,
      "d": 138.39239583333256,
      "v": 125
    },
    {
      "midi": 33,
      "hit": false,
      "t": 20142.78999999999,
      "d": 428.5699999999997,
      "v": 125
    },
    {
      "midi": 57,
      "hit": false,
      "t": 20428.503333333323,
      "d": 138.39239583333256,
      "v": 125
    },
    {
      "midi": 62,
      "hit": false,
      "t": 20428.503333333323,
      "d": 138.39239583333256,
      "v": 125
    },
    {
      "midi": 66,
      "hit": false,
      "t": 20428.503333333323,
      "d": 138.39239583333256,
      "v": 125
    },
    {
      "midi": 31,
      "hit": false,
      "t": 20571.35999999999,
      "d": 428.5699999999997,
      "v": 125
    },
    {
      "midi": 59,
      "hit": false,
      "t": 20857.073333333323,
      "d": 138.39239583333256,
      "v": 125
    },
    {
      "midi": 62,
      "hit": false,
      "t": 20857.073333333323,
      "d": 138.39239583333256,
      "v": 125
    },
    {
      "midi": 67,
      "hit": false,
      "t": 20857.073333333323,
      "d": 138.39239583333256,
      "v": 125
    },
    {
      "midi": 35,
      "hit": false,
      "t": 20999.92999999999,
      "d": 428.5699999999997,
      "v": 125
    },
    {
      "midi": 59,
      "hit": false,
      "t": 21285.643333333323,
      "d": 138.39239583333256,
      "v": 125
    },
    {
      "midi": 62,
      "hit": false,
      "t": 21285.643333333323,
      "d": 138.39239583333256,
      "v": 125
    },
    {
      "midi": 67,
      "hit": false,
      "t": 21285.643333333323,
      "d": 138.39239583333256,
      "v": 125
    },
    {
      "midi": 38,
      "hit": false,
      "t": 21428.49999999999,
      "d": 428.5699999999997,
      "v": 125
    },
    {
      "midi": 59,
      "hit": false,
      "t": 21714.213333333322,
      "d": 138.39239583333256,
      "v": 125
    },
    {
      "midi": 62,
      "hit": false,
      "t": 21714.213333333322,
      "d": 138.39239583333256,
      "v": 125
    },
    {
      "midi": 67,
      "hit": false,
      "t": 21714.213333333322,
      "d": 138.39239583333256,
      "v": 125
    },
    {
      "midi": 40,
      "hit": false,
      "t": 21857.06999999999,
      "d": 428.5699999999997,
      "v": 125
    },
    {
      "midi": 59,
      "hit": false,
      "t": 22142.783333333322,
      "d": 138.39239583333256,
      "v": 125
    },
    {
      "midi": 62,
      "hit": false,
      "t": 22142.783333333322,
      "d": 138.39239583333256,
      "v": 125
    },
    {
      "midi": 67,
      "hit": false,
      "t": 22142.783333333322,
      "d": 138.39239583333256,
      "v": 125
    },
    {
      "midi": 43,
      "hit": false,
      "t": 22285.63999999999,
      "d": 428.5699999999997,
      "v": 125
    },
    {
      "midi": 59,
      "hit": false,
      "t": 22571.35333333332,
      "d": 138.39239583333256,
      "v": 125
    },
    {
      "midi": 62,
      "hit": false,
      "t": 22571.35333333332,
      "d": 138.39239583333256,
      "v": 125
    },
    {
      "midi": 67,
      "hit": false,
      "t": 22571.35333333332,
      "d": 138.39239583333256,
      "v": 125
    },
    {
      "midi": 26,
      "hit": false,
      "t": 22714.20999999999,
      "d": 571.4266666666663,
      "v": 125
    },
    {
      "midi": 59,
      "hit": false,
      "t": 22999.92333333332,
      "d": 138.39239583333256,
      "v": 125
    },
    {
      "midi": 62,
      "hit": false,
      "t": 22999.92333333332,
      "d": 138.39239583333256,
      "v": 125
    },
    {
      "midi": 67,
      "hit": false,
      "t": 22999.92333333332,
      "d": 138.39239583333256,
      "v": 125
    },
    {
      "midi": 28,
      "hit": false,
      "t": 23142.779999999988,
      "d": 428.5699999999997,
      "v": 125
    },
    {
      "midi": 59,
      "hit": false,
      "t": 23428.49333333332,
      "d": 138.39239583333256,
      "v": 125
    },
    {
      "midi": 62,
      "hit": false,
      "t": 23428.49333333332,
      "d": 138.39239583333256,
      "v": 125
    },
    {
      "midi": 67,
      "hit": false,
      "t": 23428.49333333332,
      "d": 138.39239583333256,
      "v": 125
    },
    {
      "midi": 30,
      "hit": false,
      "t": 23571.349999999988,
      "d": 428.5699999999997,
      "v": 125
    },
    {
      "midi": 59,
      "hit": false,
      "t": 23857.06333333332,
      "d": 138.39239583333256,
      "v": 125
    },
    {
      "midi": 62,
      "hit": false,
      "t": 23857.06333333332,
      "d": 138.39239583333256,
      "v": 125
    },
    {
      "midi": 67,
      "hit": false,
      "t": 23857.06333333332,
      "d": 138.39239583333256,
      "v": 125
    },
    {
      "midi": 31,
      "hit": false,
      "t": 23999.919999999987,
      "d": 428.5699999999997,
      "v": 125
    },
    {
      "midi": 59,
      "hit": false,
      "t": 24285.63333333332,
      "d": 138.39239583333256,
      "v": 125
    },
    {
      "midi": 62,
      "hit": false,
      "t": 24285.63333333332,
      "d": 138.39239583333256,
      "v": 125
    },
    {
      "midi": 67,
      "hit": false,
      "t": 24285.63333333332,
      "d": 138.39239583333256,
      "v": 125
    },
    {
      "midi": 35,
      "hit": false,
      "t": 24428.489999999987,
      "d": 428.5699999999997,
      "v": 125
    },
    {
      "midi": 59,
      "hit": false,
      "t": 24714.20333333332,
      "d": 138.39239583333256,
      "v": 125
    },
    {
      "midi": 62,
      "hit": false,
      "t": 24714.20333333332,
      "d": 138.39239583333256,
      "v": 125
    },
    {
      "midi": 67,
      "hit": false,
      "t": 24714.20333333332,
      "d": 138.39239583333256,
      "v": 125
    },
    {
      "midi": 38,
      "hit": false,
      "t": 24857.059999999987,
      "d": 428.5699999999997,
      "v": 125
    },
    {
      "midi": 59,
      "hit": false,
      "t": 25142.77333333332,
      "d": 138.39239583333256,
      "v": 125
    },
    {
      "midi": 62,
      "hit": false,
      "t": 25142.77333333332,
      "d": 138.39239583333256,
      "v": 125
    },
    {
      "midi": 67,
      "hit": false,
      "t": 25142.77333333332,
      "d": 138.39239583333256,
      "v": 125
    },
    {
      "midi": 35,
      "hit": false,
      "t": 25285.629999999986,
      "d": 428.5699999999997,
      "v": 125
    },
    {
      "midi": 59,
      "hit": false,
      "t": 25571.34333333332,
      "d": 138.39239583333256,
      "v": 125
    },
    {
      "midi": 62,
      "hit": false,
      "t": 25571.34333333332,
      "d": 138.39239583333256,
      "v": 125
    },
    {
      "midi": 67,
      "hit": false,
      "t": 25571.34333333332,
      "d": 138.39239583333256,
      "v": 125
    },
    {
      "midi": 31,
      "hit": false,
      "t": 25714.199999999986,
      "d": 428.5699999999997,
      "v": 125
    },
    {
      "midi": 59,
      "hit": false,
      "t": 25999.91333333332,
      "d": 138.39239583333256,
      "v": 125
    },
    {
      "midi": 62,
      "hit": false,
      "t": 25999.91333333332,
      "d": 138.39239583333256,
      "v": 125
    },
    {
      "midi": 67,
      "hit": false,
      "t": 25999.91333333332,
      "d": 138.39239583333256,
      "v": 125
    },
    {
      "midi": 35,
      "hit": false,
      "t": 26142.769999999986,
      "d": 428.5699999999997,
      "v": 125
    },
    {
      "midi": 59,
      "hit": false,
      "t": 26428.48333333332,
      "d": 138.39239583333256,
      "v": 125
    },
    {
      "midi": 62,
      "hit": false,
      "t": 26428.48333333332,
      "d": 138.39239583333256,
      "v": 125
    },
    {
      "midi": 67,
      "hit": false,
      "t": 26428.48333333332,
      "d": 138.39239583333256,
      "v": 125
    },
    {
      "midi": 36,
      "hit": false,
      "t": 26571.339999999986,
      "d": 428.5699999999997,
      "v": 125
    },
    {
      "midi": 59,
      "hit": false,
      "t": 26857.05333333332,
      "d": 138.39239583333256,
      "v": 125
    },
    {
      "midi": 62,
      "hit": false,
      "t": 26857.05333333332,
      "d": 138.39239583333256,
      "v": 125
    },
    {
      "midi": 67,
      "hit": false,
      "t": 26857.05333333332,
      "d": 138.39239583333256,
      "v": 125
    },
    {
      "midi": 37,
      "hit": false,
      "t": 26999.909999999985,
      "d": 428.5699999999997,
      "v": 125
    },
    {
      "midi": 59,
      "hit": false,
      "t": 27285.62333333332,
      "d": 138.39239583333256,
      "v": 125
    },
    {
      "midi": 62,
      "hit": false,
      "t": 27285.62333333332,
      "d": 138.39239583333256,
      "v": 125
    },
    {
      "midi": 67,
      "hit": false,
      "t": 27285.62333333332,
      "d": 138.39239583333256,
      "v": 125
    },
    {
      "midi": 38,
      "hit": false,
      "t": 27428.479999999985,
      "d": 428.5699999999997,
      "v": 125
    },
    {
      "midi": 57,
      "hit": false,
      "t": 27714.193333333318,
      "d": 138.39239583333256,
      "v": 125
    },
    {
      "midi": 62,
      "hit": false,
      "t": 27714.193333333318,
      "d": 138.39239583333256,
      "v": 125
    },
    {
      "midi": 66,
      "hit": false,
      "t": 27714.193333333318,
      "d": 138.39239583333256,
      "v": 125
    },
    {
      "midi": 42,
      "hit": false,
      "t": 27857.049999999985,
      "d": 428.5699999999997,
      "v": 125
    },
    {
      "midi": 57,
      "hit": false,
      "t": 28142.763333333318,
      "d": 138.39239583333256,
      "v": 125
    },
    {
      "midi": 62,
      "hit": false,
      "t": 28142.763333333318,
      "d": 138.39239583333256,
      "v": 125
    },
    {
      "midi": 66,
      "hit": false,
      "t": 28142.763333333318,
      "d": 138.39239583333256,
      "v": 125
    },
    {
      "midi": 45,
      "hit": false,
      "t": 28285.619999999984,
      "d": 428.5699999999997,
      "v": 125
    },
    {
      "midi": 57,
      "hit": false,
      "t": 28571.333333333318,
      "d": 138.39239583333256,
      "v": 125
    },
    {
      "midi": 62,
      "hit": false,
      "t": 28571.333333333318,
      "d": 138.39239583333256,
      "v": 125
    },
    {
      "midi": 66,
      "hit": false,
      "t": 28571.333333333318,
      "d": 138.39239583333256,
      "v": 125
    },
    {
      "midi": 42,
      "hit": false,
      "t": 28714.189999999984,
      "d": 428.5699999999997,
      "v": 125
    },
    {
      "midi": 57,
      "hit": false,
      "t": 28999.903333333317,
      "d": 138.39239583333256,
      "v": 125
    },
    {
      "midi": 62,
      "hit": false,
      "t": 28999.903333333317,
      "d": 138.39239583333256,
      "v": 125
    },
    {
      "midi": 66,
      "hit": false,
      "t": 28999.903333333317,
      "d": 138.39239583333256,
      "v": 125
    },
    {
      "midi": 38,
      "hit": false,
      "t": 29142.759999999984,
      "d": 428.5699999999997,
      "v": 125
    },
    {
      "midi": 57,
      "hit": false,
      "t": 29428.473333333317,
      "d": 138.39239583333256,
      "v": 125
    },
    {
      "midi": 62,
      "hit": false,
      "t": 29428.473333333317,
      "d": 138.39239583333256,
      "v": 125
    },
    {
      "midi": 66,
      "hit": false,
      "t": 29428.473333333317,
      "d": 138.39239583333256,
      "v": 125
    },
    {
      "midi": 42,
      "hit": false,
      "t": 29571.329999999984,
      "d": 428.5699999999997,
      "v": 125
    },
    {
      "midi": 57,
      "hit": false,
      "t": 29857.043333333317,
      "d": 138.39239583333256,
      "v": 125
    },
    {
      "midi": 62,
      "hit": false,
      "t": 29857.043333333317,
      "d": 138.39239583333256,
      "v": 125
    },
    {
      "midi": 66,
      "hit": false,
      "t": 29857.043333333317,
      "d": 138.39239583333256,
      "v": 125
    },
    {
      "midi": 45,
      "hit": false,
      "t": 29999.899999999983,
      "d": 428.5699999999997,
      "v": 125
    },
    {
      "midi": 57,
      "hit": false,
      "t": 30285.613333333316,
      "d": 138.39239583333256,
      "v": 125
    },
    {
      "midi": 62,
      "hit": false,
      "t": 30285.613333333316,
      "d": 138.39239583333256,
      "v": 125
    },
    {
      "midi": 66,
      "hit": false,
      "t": 30285.613333333316,
      "d": 138.39239583333256,
      "v": 125
    },
    {
      "midi": 42,
      "hit": false,
      "t": 30428.469999999983,
      "d": 428.5699999999997,
      "v": 125
    },
    {
      "midi": 57,
      "hit": false,
      "t": 30714.183333333316,
      "d": 138.39239583333256,
      "v": 125
    },
    {
      "midi": 62,
      "hit": false,
      "t": 30714.183333333316,
      "d": 138.39239583333256,
      "v": 125
    },
    {
      "midi": 66,
      "hit": false,
      "t": 30714.183333333316,
      "d": 138.39239583333256,
      "v": 125
    },
    {
      "midi": 38,
      "hit": false,
      "t": 30857.039999999983,
      "d": 428.5699999999997,
      "v": 125
    },
    {
      "midi": 57,
      "hit": false,
      "t": 31142.753333333316,
      "d": 138.39239583333256,
      "v": 125
    },
    {
      "midi": 62,
      "hit": false,
      "t": 31142.753333333316,
      "d": 138.39239583333256,
      "v": 125
    },
    {
      "midi": 66,
      "hit": false,
      "t": 31142.753333333316,
      "d": 138.39239583333256,
      "v": 125
    },
    {
      "midi": 42,
      "hit": false,
      "t": 31285.609999999982,
      "d": 428.5699999999997,
      "v": 125
    },
    {
      "midi": 57,
      "hit": false,
      "t": 31571.323333333316,
      "d": 138.39239583333256,
      "v": 125
    },
    {
      "midi": 62,
      "hit": false,
      "t": 31571.323333333316,
      "d": 138.39239583333256,
      "v": 125
    },
    {
      "midi": 66,
      "hit": false,
      "t": 31571.323333333316,
      "d": 138.39239583333256,
      "v": 125
    },
    {
      "midi": 45,
      "hit": false,
      "t": 31714.179999999982,
      "d": 428.5699999999997,
      "v": 125
    },
    {
      "midi": 57,
      "hit": false,
      "t": 31999.893333333315,
      "d": 138.39239583333256,
      "v": 125
    },
    {
      "midi": 62,
      "hit": false,
      "t": 31999.893333333315,
      "d": 138.39239583333256,
      "v": 125
    },
    {
      "midi": 66,
      "hit": false,
      "t": 31999.893333333315,
      "d": 138.39239583333256,
      "v": 125
    },
    {
      "midi": 47,
      "hit": false,
      "t": 32142.74999999998,
      "d": 428.5699999999997,
      "v": 125
    },
    {
      "midi": 57,
      "hit": false,
      "t": 32428.463333333315,
      "d": 138.39239583333256,
      "v": 125
    },
    {
      "midi": 62,
      "hit": false,
      "t": 32428.463333333315,
      "d": 138.39239583333256,
      "v": 125
    },
    {
      "midi": 66,
      "hit": false,
      "t": 32428.463333333315,
      "d": 138.39239583333256,
      "v": 125
    },
    {
      "midi": 50,
      "hit": false,
      "t": 32571.31999999998,
      "d": 160.71374999999898,
      "v": 125
    },
    {
      "midi": 50,
      "hit": false,
      "t": 32857.03333333331,
      "d": 138.39239583333256,
      "v": 125
    },
    {
      "midi": 57,
      "hit": false,
      "t": 32857.03333333331,
      "d": 138.39239583333256,
      "v": 125
    },
    {
      "midi": 62,
      "hit": false,
      "t": 32857.03333333331,
      "d": 138.39239583333256,
      "v": 125
    },
    {
      "midi": 66,
      "hit": false,
      "t": 32857.03333333331,
      "d": 138.39239583333256,
      "v": 125
    },
    {
      "midi": 48,
      "hit": false,
      "t": 32999.88999999998,
      "d": 428.5699999999997,
      "v": 125
    },
    {
      "midi": 57,
      "hit": false,
      "t": 33285.60333333331,
      "d": 138.39239583333256,
      "v": 125
    },
    {
      "midi": 62,
      "hit": false,
      "t": 33285.60333333331,
      "d": 138.39239583333256,
      "v": 125
    },
    {
      "midi": 66,
      "hit": false,
      "t": 33285.60333333331,
      "d": 138.39239583333256,
      "v": 125
    },
    {
      "midi": 47,
      "hit": false,
      "t": 33428.45999999998,
      "d": 428.5699999999997,
      "v": 125
    },
    {
      "midi": 57,
      "hit": false,
      "t": 33714.17333333331,
      "d": 138.39239583333256,
      "v": 125
    },
    {
      "midi": 62,
      "hit": false,
      "t": 33714.17333333331,
      "d": 138.39239583333256,
      "v": 125
    },
    {
      "midi": 66,
      "hit": false,
      "t": 33714.17333333331,
      "d": 138.39239583333256,
      "v": 125
    },
    {
      "midi": 45,
      "hit": false,
      "t": 33857.02999999998,
      "d": 428.5699999999997,
      "v": 125
    },
    {
      "midi": 57,
      "hit": false,
      "t": 34142.74333333331,
      "d": 138.39239583333256,
      "v": 125
    },
    {
      "midi": 62,
      "hit": false,
      "t": 34142.74333333331,
      "d": 138.39239583333256,
      "v": 125
    },
    {
      "midi": 66,
      "hit": false,
      "t": 34142.74333333331,
      "d": 138.39239583333256,
      "v": 125
    },
    {
      "midi": 43,
      "hit": false,
      "t": 34285.59999999998,
      "d": 428.5699999999997,
      "v": 125
    },
    {
      "midi": 59,
      "hit": false,
      "t": 34571.31333333331,
      "d": 138.39239583333256,
      "v": 125
    },
    {
      "midi": 62,
      "hit": false,
      "t": 34571.31333333331,
      "d": 138.39239583333256,
      "v": 125
    },
    {
      "midi": 67,
      "hit": false,
      "t": 34571.31333333331,
      "d": 138.39239583333256,
      "v": 125
    },
    {
      "midi": 40,
      "hit": false,
      "t": 34714.16999999998,
      "d": 428.5699999999997,
      "v": 125
    },
    {
      "midi": 59,
      "hit": false,
      "t": 34999.88333333331,
      "d": 138.39239583333256,
      "v": 125
    },
    {
      "midi": 62,
      "hit": false,
      "t": 34999.88333333331,
      "d": 138.39239583333256,
      "v": 125
    },
    {
      "midi": 67,
      "hit": false,
      "t": 34999.88333333331,
      "d": 138.39239583333256,
      "v": 125
    },
    {
      "midi": 38,
      "hit": false,
      "t": 35142.739999999976,
      "d": 428.5699999999997,
      "v": 125
    },
    {
      "midi": 59,
      "hit": false,
      "t": 35428.45333333331,
      "d": 138.39239583333256,
      "v": 125
    },
    {
      "midi": 62,
      "hit": false,
      "t": 35428.45333333331,
      "d": 138.39239583333256,
      "v": 125
    },
    {
      "midi": 67,
      "hit": false,
      "t": 35428.45333333331,
      "d": 138.39239583333256,
      "v": 125
    },
    {
      "midi": 35,
      "hit": false,
      "t": 35571.309999999976,
      "d": 428.5699999999997,
      "v": 125
    },
    {
      "midi": 59,
      "hit": false,
      "t": 35857.02333333331,
      "d": 138.39239583333256,
      "v": 125
    },
    {
      "midi": 62,
      "hit": false,
      "t": 35857.02333333331,
      "d": 138.39239583333256,
      "v": 125
    },
    {
      "midi": 67,
      "hit": false,
      "t": 35857.02333333331,
      "d": 138.39239583333256,
      "v": 125
    },
    {
      "midi": 31,
      "hit": false,
      "t": 35999.879999999976,
      "d": 428.5699999999997,
      "v": 125
    },
    {
      "midi": 59,
      "hit": false,
      "t": 36285.59333333331,
      "d": 138.39239583333256,
      "v": 125
    },
    {
      "midi": 62,
      "hit": false,
      "t": 36285.59333333331,
      "d": 138.39239583333256,
      "v": 125
    },
    {
      "midi": 67,
      "hit": false,
      "t": 36285.59333333331,
      "d": 138.39239583333256,
      "v": 125
    },
    {
      "midi": 26,
      "hit": false,
      "t": 36428.449999999975,
      "d": 428.5699999999997,
      "v": 125
    },
    {
      "midi": 59,
      "hit": false,
      "t": 36714.16333333331,
      "d": 138.39239583333256,
      "v": 125
    },
    {
      "midi": 62,
      "hit": false,
      "t": 36714.16333333331,
      "d": 138.39239583333256,
      "v": 125
    },
    {
      "midi": 67,
      "hit": false,
      "t": 36714.16333333331,
      "d": 138.39239583333256,
      "v": 125
    },
    {
      "midi": 28,
      "hit": false,
      "t": 36857.019999999975,
      "d": 428.5699999999997,
      "v": 125
    },
    {
      "midi": 59,
      "hit": false,
      "t": 37142.73333333331,
      "d": 138.39239583333256,
      "v": 125
    },
    {
      "midi": 62,
      "hit": false,
      "t": 37142.73333333331,
      "d": 138.39239583333256,
      "v": 125
    },
    {
      "midi": 67,
      "hit": false,
      "t": 37142.73333333331,
      "d": 138.39239583333256,
      "v": 125
    },
    {
      "midi": 30,
      "hit": false,
      "t": 37285.589999999975,
      "d": 428.5699999999997,
      "v": 125
    },
    {
      "midi": 59,
      "hit": false,
      "t": 37571.30333333331,
      "d": 138.39239583333256,
      "v": 125
    },
    {
      "midi": 62,
      "hit": false,
      "t": 37571.30333333331,
      "d": 138.39239583333256,
      "v": 125
    },
    {
      "midi": 67,
      "hit": false,
      "t": 37571.30333333331,
      "d": 138.39239583333256,
      "v": 125
    },
    {
      "midi": 31,
      "hit": false,
      "t": 37714.159999999974,
      "d": 428.5699999999997,
      "v": 125
    },
    {
      "midi": 59,
      "hit": false,
      "t": 37999.87333333331,
      "d": 138.39239583333256,
      "v": 125
    },
    {
      "midi": 62,
      "hit": false,
      "t": 37999.87333333331,
      "d": 138.39239583333256,
      "v": 125
    },
    {
      "midi": 67,
      "hit": false,
      "t": 37999.87333333331,
      "d": 138.39239583333256,
      "v": 125
    },
    {
      "midi": 35,
      "hit": false,
      "t": 38142.729999999974,
      "d": 428.5699999999997,
      "v": 125
    },
    {
      "midi": 59,
      "hit": false,
      "t": 38428.44333333331,
      "d": 138.39239583333256,
      "v": 125
    },
    {
      "midi": 62,
      "hit": false,
      "t": 38428.44333333331,
      "d": 138.39239583333256,
      "v": 125
    },
    {
      "midi": 67,
      "hit": false,
      "t": 38428.44333333331,
      "d": 138.39239583333256,
      "v": 125
    },
    {
      "midi": 38,
      "hit": false,
      "t": 38571.299999999974,
      "d": 428.5699999999997,
      "v": 125
    },
    {
      "midi": 59,
      "hit": false,
      "t": 38857.01333333331,
      "d": 138.39239583333256,
      "v": 125
    },
    {
      "midi": 62,
      "hit": false,
      "t": 38857.01333333331,
      "d": 138.39239583333256,
      "v": 125
    },
    {
      "midi": 67,
      "hit": false,
      "t": 38857.01333333331,
      "d": 138.39239583333256,
      "v": 125
    },
    {
      "midi": 35,
      "hit": false,
      "t": 38999.86999999997,
      "d": 428.5699999999997,
      "v": 125
    },
    {
      "midi": 59,
      "hit": false,
      "t": 39285.58333333331,
      "d": 138.39239583333256,
      "v": 125
    },
    {
      "midi": 62,
      "hit": false,
      "t": 39285.58333333331,
      "d": 138.39239583333256,
      "v": 125
    },
    {
      "midi": 67,
      "hit": false,
      "t": 39285.58333333331,
      "d": 138.39239583333256,
      "v": 125
    },
    {
      "midi": 31,
      "hit": false,
      "t": 39428.43999999997,
      "d": 428.5699999999997,
      "v": 125
    },
    {
      "midi": 59,
      "hit": false,
      "t": 39714.15333333331,
      "d": 138.39239583333256,
      "v": 125
    },
    {
      "midi": 62,
      "hit": false,
      "t": 39714.15333333331,
      "d": 138.39239583333256,
      "v": 125
    },
    {
      "midi": 67,
      "hit": false,
      "t": 39714.15333333331,
      "d": 138.39239583333256,
      "v": 125
    },
    {
      "midi": 31,
      "hit": false,
      "t": 39857.00999999997,
      "d": 428.5699999999997,
      "v": 125
    },
    {
      "midi": 59,
      "hit": false,
      "t": 40142.723333333306,
      "d": 138.39239583333256,
      "v": 125
    },
    {
      "midi": 62,
      "hit": false,
      "t": 40142.723333333306,
      "d": 138.39239583333256,
      "v": 125
    },
    {
      "midi": 67,
      "hit": false,
      "t": 40142.723333333306,
      "d": 138.39239583333256,
      "v": 125
    },
    {
      "midi": 33,
      "hit": false,
      "t": 40285.57999999997,
      "d": 428.5699999999997,
      "v": 125
    },
    {
      "midi": 59,
      "hit": false,
      "t": 40571.293333333306,
      "d": 138.39239583333256,
      "v": 125
    },
    {
      "midi": 62,
      "hit": false,
      "t": 40571.293333333306,
      "d": 138.39239583333256,
      "v": 125
    },
    {
      "midi": 67,
      "hit": false,
      "t": 40571.293333333306,
      "d": 138.39239583333256,
      "v": 125
    },
    {
      "midi": 35,
      "hit": false,
      "t": 40714.14999999997,
      "d": 428.5699999999997,
      "v": 125
    },
    {
      "midi": 59,
      "hit": false,
      "t": 40999.863333333305,
      "d": 138.39239583333256,
      "v": 125
    },
    {
      "midi": 62,
      "hit": false,
      "t": 40999.863333333305,
      "d": 138.39239583333256,
      "v": 125
    },
    {
      "midi": 67,
      "hit": false,
      "t": 40999.863333333305,
      "d": 138.39239583333256,
      "v": 125
    },
    {
      "midi": 36,
      "hit": false,
      "t": 41142.71999999997,
      "d": 428.5699999999997,
      "v": 125
    },
    {
      "midi": 60,
      "hit": false,
      "t": 41428.433333333305,
      "d": 138.39239583333256,
      "v": 125
    },
    {
      "midi": 64,
      "hit": false,
      "t": 41428.433333333305,
      "d": 138.39239583333256,
      "v": 125
    },
    {
      "midi": 67,
      "hit": false,
      "t": 41428.433333333305,
      "d": 138.39239583333256,
      "v": 125
    },
    {
      "midi": 40,
      "hit": false,
      "t": 41571.28999999997,
      "d": 428.5699999999997,
      "v": 125
    },
    {
      "midi": 60,
      "hit": false,
      "t": 41857.003333333305,
      "d": 138.39239583333256,
      "v": 125
    },
    {
      "midi": 64,
      "hit": false,
      "t": 41857.003333333305,
      "d": 138.39239583333256,
      "v": 125
    },
    {
      "midi": 67,
      "hit": false,
      "t": 41857.003333333305,
      "d": 138.39239583333256,
      "v": 125
    },
    {
      "midi": 67,
      "hit": false,
      "t": 41857.00333333333,
      "d": 138.39239583333256,
      "v": 125
    },
    {
      "midi": 43,
      "hit": false,
      "t": 41999.85999999997,
      "d": 428.5699999999997,
      "v": 125
    },
    {
      "midi": 72,
      "hit": false,
      "t": 41999.85999999999,
      "d": 285.71333333333314,
      "v": 125
    },
    {
      "midi": 79,
      "hit": false,
      "t": 41999.85999999999,
      "d": 571.4266666666663,
      "v": 125
    },
    {
      "midi": 60,
      "hit": false,
      "t": 42285.573333333305,
      "d": 138.39239583333256,
      "v": 125
    },
    {
      "midi": 64,
      "hit": false,
      "t": 42285.573333333305,
      "d": 138.39239583333256,
      "v": 125
    },
    {
      "midi": 67,
      "hit": false,
      "t": 42285.573333333305,
      "d": 138.39239583333256,
      "v": 125
    },
    {
      "midi": 67,
      "hit": false,
      "t": 42285.57333333333,
      "d": 138.39239583333256,
      "v": 125
    },
    {
      "midi": 40,
      "hit": false,
      "t": 42428.42999999997,
      "d": 428.5699999999997,
      "v": 125
    },
    {
      "midi": 74,
      "hit": false,
      "t": 42428.42999999999,
      "d": 138.39239583333256,
      "v": 125
    },
    {
      "midi": 60,
      "hit": false,
      "t": 42714.143333333304,
      "d": 138.39239583333256,
      "v": 125
    },
    {
      "midi": 64,
      "hit": false,
      "t": 42714.143333333304,
      "d": 138.39239583333256,
      "v": 125
    },
    {
      "midi": 67,
      "hit": false,
      "t": 42714.143333333304,
      "d": 138.39239583333256,
      "v": 125
    },
    {
      "midi": 79,
      "hit": false,
      "t": 42714.143333333326,
      "d": 428.5699999999997,
      "v": 125
    },
    {
      "midi": 36,
      "hit": false,
      "t": 42856.99999999997,
      "d": 428.5699999999997,
      "v": 125
    },
    {
      "midi": 74,
      "hit": false,
      "t": 42856.99999999999,
      "d": 138.39239583333256,
      "v": 125
    },
    {
      "midi": 76,
      "hit": false,
      "t": 42999.85666666666,
      "d": 138.39239583333256,
      "v": 125
    },
    {
      "midi": 60,
      "hit": false,
      "t": 43142.713333333304,
      "d": 138.39239583333256,
      "v": 125
    },
    {
      "midi": 64,
      "hit": false,
      "t": 43142.713333333304,
      "d": 138.39239583333256,
      "v": 125
    },
    {
      "midi": 67,
      "hit": false,
      "t": 43142.713333333304,
      "d": 138.39239583333256,
      "v": 125
    },
    {
      "midi": 67,
      "hit": false,
      "t": 43142.713333333326,
      "d": 138.39239583333256,
      "v": 125
    },
    {
      "midi": 35,
      "hit": false,
      "t": 43285.56999999997,
      "d": 428.5699999999997,
      "v": 125
    },
    {
      "midi": 79,
      "hit": false,
      "t": 43285.56999999999,
      "d": 138.39239583333256,
      "v": 125
    },
    {
      "midi": 84,
      "hit": false,
      "t": 43285.56999999999,
      "d": 428.5699999999997,
      "v": 125
    },
    {
      "midi": 81,
      "hit": false,
      "t": 43428.42666666666,
      "d": 285.71333333333314,
      "v": 125
    },
    {
      "midi": 60,
      "hit": false,
      "t": 43571.283333333304,
      "d": 138.39239583333256,
      "v": 125
    },
    {
      "midi": 64,
      "hit": false,
      "t": 43571.283333333304,
      "d": 138.39239583333256,
      "v": 125
    },
    {
      "midi": 67,
      "hit": false,
      "t": 43571.283333333304,
      "d": 138.39239583333256,
      "v": 125
    },
    {
      "midi": 36,
      "hit": false,
      "t": 43714.13999999997,
      "d": 428.5699999999997,
      "v": 125
    },
    {
      "midi": 79,
      "hit": false,
      "t": 43714.13999999999,
      "d": 285.71333333333314,
      "v": 125
    },
    {
      "midi": 84,
      "hit": false,
      "t": 43714.13999999999,
      "d": 285.71333333333314,
      "v": 125
    },
    {
      "midi": 60,
      "hit": false,
      "t": 43999.8533333333,
      "d": 138.39239583333256,
      "v": 125
    },
    {
      "midi": 64,
      "hit": false,
      "t": 43999.8533333333,
      "d": 138.39239583333256,
      "v": 125
    },
    {
      "midi": 67,
      "hit": false,
      "t": 43999.8533333333,
      "d": 138.39239583333256,
      "v": 125
    },
    {
      "midi": 67,
      "hit": false,
      "t": 43999.853333333325,
      "d": 138.39239583333256,
      "v": 125
    },
    {
      "midi": 37,
      "hit": false,
      "t": 44142.70999999997,
      "d": 428.5699999999997,
      "v": 125
    },
    {
      "midi": 74,
      "hit": false,
      "t": 44142.70999999999,
      "d": 285.71333333333314,
      "v": 125
    },
    {
      "midi": 79,
      "hit": false,
      "t": 44142.70999999999,
      "d": 285.71333333333314,
      "v": 125
    },
    {
      "midi": 76,
      "hit": false,
      "t": 44285.56666666666,
      "d": 138.39239583333256,
      "v": 125
    },
    {
      "midi": 60,
      "hit": false,
      "t": 44428.4233333333,
      "d": 138.39239583333256,
      "v": 125
    },
    {
      "midi": 64,
      "hit": false,
      "t": 44428.4233333333,
      "d": 138.39239583333256,
      "v": 125
    },
    {
      "midi": 67,
      "hit": false,
      "t": 44428.4233333333,
      "d": 138.39239583333256,
      "v": 125
    },
    {
      "midi": 38,
      "hit": false,
      "t": 44571.27999999997,
      "d": 428.5699999999997,
      "v": 125
    },
    {
      "midi": 74,
      "hit": false,
      "t": 44571.27999999999,
      "d": 2999.989999999998,
      "v": 125
    },
    {
      "midi": 78,
      "hit": false,
      "t": 44571.27999999999,
      "d": 2999.989999999998,
      "v": 125
    },
    {
      "midi": 81,
      "hit": false,
      "t": 44571.27999999999,
      "d": 3142.8466666666645,
      "v": 125
    },
    {
      "midi": 57,
      "hit": false,
      "t": 44856.9933333333,
      "d": 138.39239583333256,
      "v": 125
    },
    {
      "midi": 62,
      "hit": false,
      "t": 44856.9933333333,
      "d": 138.39239583333256,
      "v": 125
    },
    {
      "midi": 66,
      "hit": false,
      "t": 44856.9933333333,
      "d": 138.39239583333256,
      "v": 125
    },
    {
      "midi": 42,
      "hit": false,
      "t": 44999.84999999997,
      "d": 428.5699999999997,
      "v": 125
    },
    {
      "midi": 57,
      "hit": false,
      "t": 45285.5633333333,
      "d": 138.39239583333256,
      "v": 125
    },
    {
      "midi": 62,
      "hit": false,
      "t": 45285.5633333333,
      "d": 138.39239583333256,
      "v": 125
    },
    {
      "midi": 66,
      "hit": false,
      "t": 45285.5633333333,
      "d": 138.39239583333256,
      "v": 125
    },
    {
      "midi": 45,
      "hit": false,
      "t": 45428.41999999997,
      "d": 428.5699999999997,
      "v": 125
    },
    {
      "midi": 57,
      "hit": false,
      "t": 45714.1333333333,
      "d": 138.39239583333256,
      "v": 125
    },
    {
      "midi": 62,
      "hit": false,
      "t": 45714.1333333333,
      "d": 138.39239583333256,
      "v": 125
    },
    {
      "midi": 66,
      "hit": false,
      "t": 45714.1333333333,
      "d": 138.39239583333256,
      "v": 125
    },
    {
      "midi": 42,
      "hit": false,
      "t": 45856.98999999997,
      "d": 428.5699999999997,
      "v": 125
    },
    {
      "midi": 57,
      "hit": false,
      "t": 46142.7033333333,
      "d": 138.39239583333256,
      "v": 125
    },
    {
      "midi": 62,
      "hit": false,
      "t": 46142.7033333333,
      "d": 138.39239583333256,
      "v": 125
    },
    {
      "midi": 66,
      "hit": false,
      "t": 46142.7033333333,
      "d": 138.39239583333256,
      "v": 125
    },
    {
      "midi": 38,
      "hit": false,
      "t": 46285.55999999997,
      "d": 428.5699999999997,
      "v": 125
    },
    {
      "midi": 57,
      "hit": false,
      "t": 46571.2733333333,
      "d": 138.39239583333256,
      "v": 125
    },
    {
      "midi": 62,
      "hit": false,
      "t": 46571.2733333333,
      "d": 138.39239583333256,
      "v": 125
    },
    {
      "midi": 66,
      "hit": false,
      "t": 46571.2733333333,
      "d": 138.39239583333256,
      "v": 125
    },
    {
      "midi": 42,
      "hit": false,
      "t": 46714.12999999997,
      "d": 428.5699999999997,
      "v": 125
    },
    {
      "midi": 57,
      "hit": false,
      "t": 46999.8433333333,
      "d": 138.39239583333256,
      "v": 125
    },
    {
      "midi": 62,
      "hit": false,
      "t": 46999.8433333333,
      "d": 138.39239583333256,
      "v": 125
    },
    {
      "midi": 66,
      "hit": false,
      "t": 46999.8433333333,
      "d": 138.39239583333256,
      "v": 125
    },
    {
      "midi": 45,
      "hit": false,
      "t": 47142.69999999997,
      "d": 428.5699999999997,
      "v": 125
    },
    {
      "midi": 57,
      "hit": false,
      "t": 47428.4133333333,
      "d": 138.39239583333256,
      "v": 125
    },
    {
      "midi": 62,
      "hit": false,
      "t": 47428.4133333333,
      "d": 138.39239583333256,
      "v": 125
    },
    {
      "midi": 66,
      "hit": false,
      "t": 47428.4133333333,
      "d": 138.39239583333256,
      "v": 125
    },
    {
      "midi": 42,
      "hit": false,
      "t": 47571.26999999997,
      "d": 428.5699999999997,
      "v": 125
    },
    {
      "midi": 57,
      "hit": false,
      "t": 47856.9833333333,
      "d": 138.39239583333256,
      "v": 125
    },
    {
      "midi": 62,
      "hit": false,
      "t": 47856.9833333333,
      "d": 138.39239583333256,
      "v": 125
    },
    {
      "midi": 66,
      "hit": false,
      "t": 47856.9833333333,
      "d": 138.39239583333256,
      "v": 125
    },
    {
      "midi": 38,
      "hit": false,
      "t": 47999.83999999997,
      "d": 428.5699999999997,
      "v": 125
    },
    {
      "midi": 57,
      "hit": false,
      "t": 48285.5533333333,
      "d": 138.39239583333256,
      "v": 125
    },
    {
      "midi": 62,
      "hit": false,
      "t": 48285.5533333333,
      "d": 138.39239583333256,
      "v": 125
    },
    {
      "midi": 66,
      "hit": false,
      "t": 48285.5533333333,
      "d": 138.39239583333256,
      "v": 125
    },
    {
      "midi": 36,
      "hit": false,
      "t": 48428.40999999997,
      "d": 428.5699999999997,
      "v": 125
    },
    {
      "midi": 57,
      "hit": false,
      "t": 48714.1233333333,
      "d": 138.39239583333256,
      "v": 125
    },
    {
      "midi": 62,
      "hit": false,
      "t": 48714.1233333333,
      "d": 138.39239583333256,
      "v": 125
    },
    {
      "midi": 66,
      "hit": false,
      "t": 48714.1233333333,
      "d": 138.39239583333256,
      "v": 125
    },
    {
      "midi": 35,
      "hit": false,
      "t": 48856.97999999997,
      "d": 428.5699999999997,
      "v": 125
    },
    {
      "midi": 57,
      "hit": false,
      "t": 49142.6933333333,
      "d": 138.39239583333256,
      "v": 125
    },
    {
      "midi": 62,
      "hit": false,
      "t": 49142.6933333333,
      "d": 138.39239583333256,
      "v": 125
    },
    {
      "midi": 66,
      "hit": false,
      "t": 49142.6933333333,
      "d": 138.39239583333256,
      "v": 125
    },
    {
      "midi": 33,
      "hit": false,
      "t": 49285.54999999997,
      "d": 428.5699999999997,
      "v": 125
    },
    {
      "midi": 57,
      "hit": false,
      "t": 49571.2633333333,
      "d": 138.39239583333256,
      "v": 125
    },
    {
      "midi": 62,
      "hit": false,
      "t": 49571.2633333333,
      "d": 138.39239583333256,
      "v": 125
    },
    {
      "midi": 66,
      "hit": false,
      "t": 49571.2633333333,
      "d": 138.39239583333256,
      "v": 125
    },
    {
      "midi": 31,
      "hit": false,
      "t": 49714.119999999966,
      "d": 428.5699999999997,
      "v": 125
    },
    {
      "midi": 59,
      "hit": false,
      "t": 49999.8333333333,
      "d": 138.39239583333256,
      "v": 125
    },
    {
      "midi": 62,
      "hit": false,
      "t": 49999.8333333333,
      "d": 138.39239583333256,
      "v": 125
    },
    {
      "midi": 67,
      "hit": false,
      "t": 49999.8333333333,
      "d": 138.39239583333256,
      "v": 125
    },
    {
      "midi": 79,
      "hit": false,
      "t": 49999.83333333332,
      "d": 428.5699999999997,
      "v": 125
    },
    {
      "midi": 38,
      "hit": false,
      "t": 50142.689999999966,
      "d": 428.5699999999997,
      "v": 125
    },
    {
      "midi": 76,
      "hit": false,
      "t": 50142.68999999999,
      "d": 138.39239583333256,
      "v": 125
    },
    {
      "midi": 74,
      "hit": false,
      "t": 50285.546666666654,
      "d": 138.39239583333256,
      "v": 125
    },
    {
      "midi": 59,
      "hit": false,
      "t": 50428.4033333333,
      "d": 138.39239583333256,
      "v": 125
    },
    {
      "midi": 62,
      "hit": false,
      "t": 50428.4033333333,
      "d": 138.39239583333256,
      "v": 125
    },
    {
      "midi": 67,
      "hit": false,
      "t": 50428.4033333333,
      "d": 138.39239583333256,
      "v": 125
    },
    {
      "midi": 67,
      "hit": false,
      "t": 50428.40333333332,
      "d": 138.39239583333256,
      "v": 125
    },
    {
      "midi": 40,
      "hit": false,
      "t": 50571.259999999966,
      "d": 428.5699999999997,
      "v": 125
    },
    {
      "midi": 69,
      "hit": false,
      "t": 50571.25999999999,
      "d": 138.39239583333256,
      "v": 125
    },
    {
      "midi": 74,
      "hit": false,
      "t": 50571.25999999999,
      "d": 428.5699999999997,
      "v": 125
    },
    {
      "midi": 71,
      "hit": false,
      "t": 50714.116666666654,
      "d": 138.39239583333256,
      "v": 125
    },
    {
      "midi": 59,
      "hit": false,
      "t": 50856.9733333333,
      "d": 138.39239583333256,
      "v": 125
    },
    {
      "midi": 62,
      "hit": false,
      "t": 50856.9733333333,
      "d": 138.39239583333256,
      "v": 125
    },
    {
      "midi": 67,
      "hit": false,
      "t": 50856.9733333333,
      "d": 138.39239583333256,
      "v": 125
    },
    {
      "midi": 67,
      "hit": false,
      "t": 50856.97333333332,
      "d": 138.39239583333256,
      "v": 125
    },
    {
      "midi": 42,
      "hit": false,
      "t": 50999.829999999965,
      "d": 428.5699999999997,
      "v": 125
    },
    {
      "midi": 62,
      "hit": false,
      "t": 51142.686666666654,
      "d": 138.39239583333256,
      "v": 125
    },
    {
      "midi": 67,
      "hit": false,
      "t": 51142.686666666654,
      "d": 138.39239583333256,
      "v": 125
    },
    {
      "midi": 59,
      "hit": false,
      "t": 51285.5433333333,
      "d": 138.39239583333256,
      "v": 125
    },
    {
      "midi": 62,
      "hit": false,
      "t": 51285.5433333333,
      "d": 138.39239583333256,
      "v": 125
    },
    {
      "midi": 67,
      "hit": false,
      "t": 51285.5433333333,
      "d": 138.39239583333256,
      "v": 125
    },
    {
      "midi": 60,
      "hit": false,
      "t": 51285.54333333332,
      "d": 138.39239583333256,
      "v": 125
    },
    {
      "midi": 43,
      "hit": false,
      "t": 51428.399999999965,
      "d": 428.5699999999997,
      "v": 125
    },
    {
      "midi": 57,
      "hit": false,
      "t": 51428.39999999999,
      "d": 138.39239583333256,
      "v": 125
    },
    {
      "midi": 62,
      "hit": false,
      "t": 51428.39999999999,
      "d": 1857.1366666666654,
      "v": 125
    },
    {
      "midi": 59,
      "hit": false,
      "t": 51571.25666666665,
      "d": 1714.2799999999988,
      "v": 125
    },
    {
      "midi": 59,
      "hit": false,
      "t": 51714.1133333333,
      "d": 138.39239583333256,
      "v": 125
    },
    {
      "midi": 62,
      "hit": false,
      "t": 51714.1133333333,
      "d": 138.39239583333256,
      "v": 125
    },
    {
      "midi": 67,
      "hit": false,
      "t": 51714.1133333333,
      "d": 138.39239583333256,
      "v": 125
    },
    {
      "midi": 40,
      "hit": false,
      "t": 51856.969999999965,
      "d": 428.5699999999997,
      "v": 125
    },
    {
      "midi": 59,
      "hit": false,
      "t": 52142.6833333333,
      "d": 138.39239583333256,
      "v": 125
    },
    {
      "midi": 62,
      "hit": false,
      "t": 52142.6833333333,
      "d": 138.39239583333256,
      "v": 125
    },
    {
      "midi": 67,
      "hit": false,
      "t": 52142.6833333333,
      "d": 138.39239583333256,
      "v": 125
    },
    {
      "midi": 38,
      "hit": false,
      "t": 52285.539999999964,
      "d": 428.5699999999997,
      "v": 125
    },
    {
      "midi": 59,
      "hit": false,
      "t": 52571.2533333333,
      "d": 138.39239583333256,
      "v": 125
    },
    {
      "midi": 62,
      "hit": false,
      "t": 52571.2533333333,
      "d": 138.39239583333256,
      "v": 125
    },
    {
      "midi": 67,
      "hit": false,
      "t": 52571.2533333333,
      "d": 138.39239583333256,
      "v": 125
    },
    {
      "midi": 35,
      "hit": false,
      "t": 52714.109999999964,
      "d": 428.5699999999997,
      "v": 125
    },
    {
      "midi": 59,
      "hit": false,
      "t": 52999.8233333333,
      "d": 138.39239583333256,
      "v": 125
    },
    {
      "midi": 62,
      "hit": false,
      "t": 52999.8233333333,
      "d": 138.39239583333256,
      "v": 125
    },
    {
      "midi": 67,
      "hit": false,
      "t": 52999.8233333333,
      "d": 138.39239583333256,
      "v": 125
    },
    {
      "midi": 31,
      "hit": false,
      "t": 53142.679999999964,
      "d": 428.5699999999997,
      "v": 125
    },
    {
      "midi": 59,
      "hit": false,
      "t": 53428.3933333333,
      "d": 138.39239583333256,
      "v": 125
    },
    {
      "midi": 62,
      "hit": false,
      "t": 53428.3933333333,
      "d": 138.39239583333256,
      "v": 125
    },
    {
      "midi": 67,
      "hit": false,
      "t": 53428.3933333333,
      "d": 138.39239583333256,
      "v": 125
    },
    {
      "midi": 31,
      "hit": false,
      "t": 53571.24999999996,
      "d": 428.5699999999997,
      "v": 125
    },
    {
      "midi": 59,
      "hit": false,
      "t": 53856.9633333333,
      "d": 138.39239583333256,
      "v": 125
    },
    {
      "midi": 62,
      "hit": false,
      "t": 53856.9633333333,
      "d": 138.39239583333256,
      "v": 125
    },
    {
      "midi": 67,
      "hit": false,
      "t": 53856.9633333333,
      "d": 138.39239583333256,
      "v": 125
    },
    {
      "midi": 33,
      "hit": false,
      "t": 53999.81999999996,
      "d": 428.5699999999997,
      "v": 125
    },
    {
      "midi": 59,
      "hit": false,
      "t": 54285.5333333333,
      "d": 138.39239583333256,
      "v": 125
    },
    {
      "midi": 62,
      "hit": false,
      "t": 54285.5333333333,
      "d": 138.39239583333256,
      "v": 125
    },
    {
      "midi": 67,
      "hit": false,
      "t": 54285.5333333333,
      "d": 138.39239583333256,
      "v": 125
    },
    {
      "midi": 35,
      "hit": false,
      "t": 54428.38999999996,
      "d": 428.5699999999997,
      "v": 125
    },
    {
      "midi": 59,
      "hit": false,
      "t": 54714.103333333296,
      "d": 138.39239583333256,
      "v": 125
    },
    {
      "midi": 62,
      "hit": false,
      "t": 54714.103333333296,
      "d": 138.39239583333256,
      "v": 125
    },
    {
      "midi": 67,
      "hit": false,
      "t": 54714.103333333296,
      "d": 138.39239583333256,
      "v": 125
    },
    {
      "midi": 36,
      "hit": false,
      "t": 54856.95999999996,
      "d": 428.5699999999997,
      "v": 125
    },
    {
      "midi": 60,
      "hit": false,
      "t": 55142.673333333296,
      "d": 138.39239583333256,
      "v": 125
    },
    {
      "midi": 64,
      "hit": false,
      "t": 55142.673333333296,
      "d": 138.39239583333256,
      "v": 125
    },
    {
      "midi": 67,
      "hit": false,
      "t": 55142.673333333296,
      "d": 138.39239583333256,
      "v": 125
    },
    {
      "midi": 43,
      "hit": false,
      "t": 55142.67333333332,
      "d": 138.39239583333256,
      "v": 125
    },
    {
      "midi": 40,
      "hit": false,
      "t": 55285.52999999996,
      "d": 428.5699999999997,
      "v": 125
    },
    {
      "midi": 48,
      "hit": false,
      "t": 55285.529999999984,
      "d": 138.39239583333256,
      "v": 125
    },
    {
      "midi": 52,
      "hit": false,
      "t": 55428.38666666665,
      "d": 138.39239583333256,
      "v": 125
    },
    {
      "midi": 60,
      "hit": false,
      "t": 55571.243333333296,
      "d": 138.39239583333256,
      "v": 125
    },
    {
      "midi": 64,
      "hit": false,
      "t": 55571.243333333296,
      "d": 138.39239583333256,
      "v": 125
    },
    {
      "midi": 67,
      "hit": false,
      "t": 55571.243333333296,
      "d": 138.39239583333256,
      "v": 125
    },
    {
      "midi": 55,
      "hit": false,
      "t": 55571.24333333332,
      "d": 138.39239583333256,
      "v": 125
    },
    {
      "midi": 43,
      "hit": false,
      "t": 55714.09999999996,
      "d": 428.5699999999997,
      "v": 125
    },
    {
      "midi": 48,
      "hit": false,
      "t": 55714.099999999984,
      "d": 138.39239583333256,
      "v": 125
    },
    {
      "midi": 52,
      "hit": false,
      "t": 55856.95666666665,
      "d": 138.39239583333256,
      "v": 125
    },
    {
      "midi": 60,
      "hit": false,
      "t": 55999.813333333295,
      "d": 138.39239583333256,
      "v": 125
    },
    {
      "midi": 64,
      "hit": false,
      "t": 55999.813333333295,
      "d": 138.39239583333256,
      "v": 125
    },
    {
      "midi": 67,
      "hit": false,
      "t": 55999.813333333295,
      "d": 138.39239583333256,
      "v": 125
    },
    {
      "midi": 55,
      "hit": false,
      "t": 55999.81333333332,
      "d": 138.39239583333256,
      "v": 125
    },
    {
      "midi": 40,
      "hit": false,
      "t": 56142.66999999996,
      "d": 428.5699999999997,
      "v": 125
    },
    {
      "midi": 60,
      "hit": false,
      "t": 56142.669999999984,
      "d": 138.39239583333256,
      "v": 125
    },
    {
      "midi": 52,
      "hit": false,
      "t": 56285.52666666665,
      "d": 138.39239583333256,
      "v": 125
    },
    {
      "midi": 60,
      "hit": false,
      "t": 56428.383333333295,
      "d": 138.39239583333256,
      "v": 125
    },
    {
      "midi": 64,
      "hit": false,
      "t": 56428.383333333295,
      "d": 138.39239583333256,
      "v": 125
    },
    {
      "midi": 67,
      "hit": false,
      "t": 56428.383333333295,
      "d": 138.39239583333256,
      "v": 125
    },
    {
      "midi": 55,
      "hit": false,
      "t": 56428.38333333332,
      "d": 138.39239583333256,
      "v": 125
    },
    {
      "midi": 36,
      "hit": false,
      "t": 56571.23999999996,
      "d": 428.5699999999997,
      "v": 125
    },
    {
      "midi": 60,
      "hit": false,
      "t": 56571.23999999998,
      "d": 285.71333333333314,
      "v": 125
    },
    {
      "midi": 64,
      "hit": false,
      "t": 56714.09666666665,
      "d": 138.39239583333256,
      "v": 125
    },
    {
      "midi": 60,
      "hit": false,
      "t": 56856.953333333295,
      "d": 138.39239583333256,
      "v": 125
    },
    {
      "midi": 64,
      "hit": false,
      "t": 56856.953333333295,
      "d": 138.39239583333256,
      "v": 125
    },
    {
      "midi": 67,
      "hit": false,
      "t": 56856.953333333295,
      "d": 138.39239583333256,
      "v": 125
    },
    {
      "midi": 55,
      "hit": false,
      "t": 56856.95333333332,
      "d": 138.39239583333256,
      "v": 125
    },
    {
      "midi": 35,
      "hit": false,
      "t": 56999.80999999996,
      "d": 428.5699999999997,
      "v": 125
    },
    {
      "midi": 60,
      "hit": false,
      "t": 57142.66666666665,
      "d": 138.39239583333256,
      "v": 125
    },
    {
      "midi": 60,
      "hit": false,
      "t": 57285.523333333294,
      "d": 138.39239583333256,
      "v": 125
    },
    {
      "midi": 64,
      "hit": false,
      "t": 57285.523333333294,
      "d": 138.39239583333256,
      "v": 125
    },
    {
      "midi": 67,
      "hit": false,
      "t": 57285.523333333294,
      "d": 138.39239583333256,
      "v": 125
    },
    {
      "midi": 64,
      "hit": false,
      "t": 57285.523333333316,
      "d": 138.39239583333256,
      "v": 125
    },
    {
      "midi": 67,
      "hit": false,
      "t": 57285.523333333316,
      "d": 138.39239583333256,
      "v": 125
    },
    {
      "midi": 36,
      "hit": false,
      "t": 57428.37999999996,
      "d": 428.5699999999997,
      "v": 125
    },
    {
      "midi": 60,
      "hit": false,
      "t": 57428.37999999998,
      "d": 138.39239583333256,
      "v": 125
    },
    {
      "midi": 64,
      "hit": false,
      "t": 57571.23666666665,
      "d": 138.39239583333256,
      "v": 125
    },
    {
      "midi": 60,
      "hit": false,
      "t": 57714.093333333294,
      "d": 138.39239583333256,
      "v": 125
    },
    {
      "midi": 64,
      "hit": false,
      "t": 57714.093333333294,
      "d": 138.39239583333256,
      "v": 125
    },
    {
      "midi": 67,
      "hit": false,
      "t": 57714.093333333294,
      "d": 138.39239583333256,
      "v": 125
    },
    {
      "midi": 67,
      "hit": false,
      "t": 57714.093333333316,
      "d": 138.39239583333256,
      "v": 125
    },
    {
      "midi": 37,
      "hit": false,
      "t": 57856.94999999996,
      "d": 428.5699999999997,
      "v": 125
    },
    {
      "midi": 72,
      "hit": false,
      "t": 57856.94999999998,
      "d": 138.39239583333256,
      "v": 125
    },
    {
      "midi": 67,
      "hit": false,
      "t": 57999.80666666665,
      "d": 138.39239583333256,
      "v": 125
    },
    {
      "midi": 60,
      "hit": false,
      "t": 58142.663333333294,
      "d": 138.39239583333256,
      "v": 125
    },
    {
      "midi": 64,
      "hit": false,
      "t": 58142.663333333294,
      "d": 138.39239583333256,
      "v": 125
    },
    {
      "midi": 67,
      "hit": false,
      "t": 58142.663333333294,
      "d": 138.39239583333256,
      "v": 125
    },
    {
      "midi": 76,
      "hit": false,
      "t": 58142.663333333316,
      "d": 138.39239583333256,
      "v": 125
    },
    {
      "midi": 38,
      "hit": false,
      "t": 58285.51999999996,
      "d": 428.5699999999997,
      "v": 125
    },
    {
      "midi": 74,
      "hit": false,
      "t": 58285.51999999998,
      "d": 1142.8533333333326,
      "v": 125
    },
    {
      "midi": 78,
      "hit": false,
      "t": 58285.51999999998,
      "d": 1281.2457291666651,
      "v": 125
    },
    {
      "midi": 57,
      "hit": false,
      "t": 58571.23333333329,
      "d": 138.39239583333256,
      "v": 125
    },
    {
      "midi": 62,
      "hit": false,
      "t": 58571.23333333329,
      "d": 138.39239583333256,
      "v": 125
    },
    {
      "midi": 66,
      "hit": false,
      "t": 58571.23333333329,
      "d": 138.39239583333256,
      "v": 125
    },
    {
      "midi": 42,
      "hit": false,
      "t": 58714.08999999996,
      "d": 428.5699999999997,
      "v": 125
    },
    {
      "midi": 57,
      "hit": false,
      "t": 58999.80333333329,
      "d": 138.39239583333256,
      "v": 125
    },
    {
      "midi": 62,
      "hit": false,
      "t": 58999.80333333329,
      "d": 138.39239583333256,
      "v": 125
    },
    {
      "midi": 66,
      "hit": false,
      "t": 58999.80333333329,
      "d": 138.39239583333256,
      "v": 125
    },
    {
      "midi": 45,
      "hit": false,
      "t": 59142.65999999996,
      "d": 428.5699999999997,
      "v": 125
    },
    {
      "midi": 57,
      "hit": false,
      "t": 59428.37333333329,
      "d": 138.39239583333256,
      "v": 125
    },
    {
      "midi": 62,
      "hit": false,
      "t": 59428.37333333329,
      "d": 138.39239583333256,
      "v": 125
    },
    {
      "midi": 66,
      "hit": false,
      "t": 59428.37333333329,
      "d": 138.39239583333256,
      "v": 125
    },
    {
      "midi": 47,
      "hit": false,
      "t": 59571.22999999996,
      "d": 428.5699999999997,
      "v": 125
    },
    {
      "midi": 57,
      "hit": false,
      "t": 59856.94333333329,
      "d": 138.39239583333256,
      "v": 125
    },
    {
      "midi": 62,
      "hit": false,
      "t": 59856.94333333329,
      "d": 138.39239583333256,
      "v": 125
    },
    {
      "midi": 66,
      "hit": false,
      "t": 59856.94333333329,
      "d": 138.39239583333256,
      "v": 125
    },
    {
      "midi": 50,
      "hit": false,
      "t": 59999.79999999996,
      "d": 138.39239583333256,
      "v": 125
    },
    {
      "midi": 45,
      "hit": false,
      "t": 60142.656666666626,
      "d": 138.39239583333256,
      "v": 125
    },
    {
      "midi": 42,
      "hit": false,
      "t": 60285.51333333329,
      "d": 138.39239583333256,
      "v": 125
    },
    {
      "midi": 57,
      "hit": false,
      "t": 60285.51333333329,
      "d": 138.39239583333256,
      "v": 125
    },
    {
      "midi": 62,
      "hit": false,
      "t": 60285.51333333329,
      "d": 138.39239583333256,
      "v": 125
    },
    {
      "midi": 66,
      "hit": false,
      "t": 60285.51333333329,
      "d": 138.39239583333256,
      "v": 125
    },
    {
      "midi": 38,
      "hit": false,
      "t": 60428.36999999996,
      "d": 428.5699999999997,
      "v": 125
    },
    {
      "midi": 57,
      "hit": false,
      "t": 60714.08333333329,
      "d": 138.39239583333256,
      "v": 125
    },
    {
      "midi": 62,
      "hit": false,
      "t": 60714.08333333329,
      "d": 138.39239583333256,
      "v": 125
    },
    {
      "midi": 66,
      "hit": false,
      "t": 60714.08333333329,
      "d": 138.39239583333256,
      "v": 125
    },
    {
      "midi": 40,
      "hit": false,
      "t": 60856.93999999996,
      "d": 428.5699999999997,
      "v": 125
    },
    {
      "midi": 57,
      "hit": false,
      "t": 61142.65333333329,
      "d": 138.39239583333256,
      "v": 125
    },
    {
      "midi": 62,
      "hit": false,
      "t": 61142.65333333329,
      "d": 138.39239583333256,
      "v": 125
    },
    {
      "midi": 66,
      "hit": false,
      "t": 61142.65333333329,
      "d": 138.39239583333256,
      "v": 125
    },
    {
      "midi": 42,
      "hit": false,
      "t": 61285.50999999996,
      "d": 428.5699999999997,
      "v": 125
    },
    {
      "midi": 57,
      "hit": false,
      "t": 61571.22333333329,
      "d": 138.39239583333256,
      "v": 125
    },
    {
      "midi": 62,
      "hit": false,
      "t": 61571.22333333329,
      "d": 138.39239583333256,
      "v": 125
    },
    {
      "midi": 66,
      "hit": false,
      "t": 61571.22333333329,
      "d": 138.39239583333256,
      "v": 125
    },
    {
      "midi": 43,
      "hit": false,
      "t": 61714.07999999996,
      "d": 428.5699999999997,
      "v": 125
    },
    {
      "midi": 59,
      "hit": false,
      "t": 61999.79333333329,
      "d": 138.39239583333256,
      "v": 125
    },
    {
      "midi": 62,
      "hit": false,
      "t": 61999.79333333329,
      "d": 138.39239583333256,
      "v": 125
    },
    {
      "midi": 67,
      "hit": false,
      "t": 61999.79333333329,
      "d": 138.39239583333256,
      "v": 125
    },
    {
      "midi": 74,
      "hit": false,
      "t": 61999.79333333331,
      "d": 428.5699999999997,
      "v": 125
    },
    {
      "midi": 40,
      "hit": false,
      "t": 62142.64999999996,
      "d": 428.5699999999997,
      "v": 125
    },
    {
      "midi": 71,
      "hit": false,
      "t": 62142.64999999998,
      "d": 138.39239583333256,
      "v": 125
    },
    {
      "midi": 67,
      "hit": false,
      "t": 62285.506666666646,
      "d": 138.39239583333256,
      "v": 125
    },
    {
      "midi": 59,
      "hit": false,
      "t": 62428.36333333329,
      "d": 138.39239583333256,
      "v": 125
    },
    {
      "midi": 62,
      "hit": false,
      "t": 62428.36333333329,
      "d": 138.39239583333256,
      "v": 125
    },
    {
      "midi": 67,
      "hit": false,
      "t": 62428.36333333329,
      "d": 138.39239583333256,
      "v": 125
    },
    {
      "midi": 62,
      "hit": false,
      "t": 62428.36333333331,
      "d": 138.39239583333256,
      "v": 125
    },
    {
      "midi": 38,
      "hit": false,
      "t": 62571.21999999996,
      "d": 428.5699999999997,
      "v": 125
    },
    {
      "midi": 62,
      "hit": false,
      "t": 62571.21999999998,
      "d": 138.39239583333256,
      "v": 125
    },
    {
      "midi": 67,
      "hit": false,
      "t": 62571.21999999998,
      "d": 571.4266666666663,
      "v": 125
    },
    {
      "midi": 64,
      "hit": false,
      "t": 62714.076666666646,
      "d": 138.39239583333256,
      "v": 125
    },
    {
      "midi": 59,
      "hit": false,
      "t": 62856.93333333329,
      "d": 138.39239583333256,
      "v": 125
    },
    {
      "midi": 62,
      "hit": false,
      "t": 62856.93333333329,
      "d": 138.39239583333256,
      "v": 125
    },
    {
      "midi": 67,
      "hit": false,
      "t": 62856.93333333329,
      "d": 138.39239583333256,
      "v": 125
    },
    {
      "midi": 62,
      "hit": false,
      "t": 62856.93333333331,
      "d": 285.71333333333314,
      "v": 125
    },
    {
      "midi": 35,
      "hit": false,
      "t": 62999.78999999996,
      "d": 428.5699999999997,
      "v": 125
    },
    {
      "midi": 60,
      "hit": false,
      "t": 63142.646666666646,
      "d": 138.39239583333256,
      "v": 125
    },
    {
      "midi": 67,
      "hit": false,
      "t": 63142.646666666646,
      "d": 138.39239583333256,
      "v": 125
    },
    {
      "midi": 59,
      "hit": false,
      "t": 63285.50333333329,
      "d": 138.39239583333256,
      "v": 125
    },
    {
      "midi": 62,
      "hit": false,
      "t": 63285.50333333329,
      "d": 138.39239583333256,
      "v": 125
    },
    {
      "midi": 67,
      "hit": false,
      "t": 63285.50333333329,
      "d": 138.39239583333256,
      "v": 125
    },
    {
      "midi": 55,
      "hit": false,
      "t": 63285.50333333331,
      "d": 138.39239583333256,
      "v": 125
    },
    {
      "midi": 31,
      "hit": false,
      "t": 63428.35999999996,
      "d": 428.5699999999997,
      "v": 125
    },
    {
      "midi": 57,
      "hit": false,
      "t": 63428.35999999998,
      "d": 285.71333333333314,
      "v": 125
    },
    {
      "midi": 62,
      "hit": false,
      "t": 63428.35999999998,
      "d": 1571.4233333333323,
      "v": 125
    },
    {
      "midi": 59,
      "hit": false,
      "t": 63571.216666666645,
      "d": 1428.5666666666657,
      "v": 125
    },
    {
      "midi": 59,
      "hit": false,
      "t": 63714.07333333329,
      "d": 138.39239583333256,
      "v": 125
    },
    {
      "midi": 62,
      "hit": false,
      "t": 63714.07333333329,
      "d": 138.39239583333256,
      "v": 125
    },
    {
      "midi": 67,
      "hit": false,
      "t": 63714.07333333329,
      "d": 138.39239583333256,
      "v": 125
    },
    {
      "midi": 26,
      "hit": false,
      "t": 63856.92999999996,
      "d": 428.5699999999997,
      "v": 125
    },
    {
      "midi": 59,
      "hit": false,
      "t": 64142.64333333329,
      "d": 138.39239583333256,
      "v": 125
    },
    {
      "midi": 62,
      "hit": false,
      "t": 64142.64333333329,
      "d": 138.39239583333256,
      "v": 125
    },
    {
      "midi": 67,
      "hit": false,
      "t": 64142.64333333329,
      "d": 138.39239583333256,
      "v": 125
    },
    {
      "midi": 28,
      "hit": false,
      "t": 64285.499999999956,
      "d": 428.5699999999997,
      "v": 125
    },
    {
      "midi": 59,
      "hit": false,
      "t": 64571.21333333329,
      "d": 138.39239583333256,
      "v": 125
    },
    {
      "midi": 62,
      "hit": false,
      "t": 64571.21333333329,
      "d": 138.39239583333256,
      "v": 125
    },
    {
      "midi": 67,
      "hit": false,
      "t": 64571.21333333329,
      "d": 138.39239583333256,
      "v": 125
    },
    {
      "midi": 30,
      "hit": false,
      "t": 64714.069999999956,
      "d": 428.5699999999997,
      "v": 125
    },
    {
      "midi": 59,
      "hit": false,
      "t": 64999.78333333329,
      "d": 138.39239583333256,
      "v": 125
    },
    {
      "midi": 62,
      "hit": false,
      "t": 64999.78333333329,
      "d": 138.39239583333256,
      "v": 125
    },
    {
      "midi": 67,
      "hit": false,
      "t": 64999.78333333329,
      "d": 138.39239583333256,
      "v": 125
    },
    {
      "midi": 31,
      "hit": false,
      "t": 65142.639999999956,
      "d": 428.56999999999243,
      "v": 125
    },
    {
      "midi": 59,
      "hit": false,
      "t": 65428.35333333329,
      "d": 138.39239583333256,
      "v": 125
    },
    {
      "midi": 62,
      "hit": false,
      "t": 65428.35333333329,
      "d": 138.39239583333256,
      "v": 125
    },
    {
      "midi": 67,
      "hit": false,
      "t": 65428.35333333329,
      "d": 138.39239583333256,
      "v": 125
    },
    {
      "midi": 35,
      "hit": false,
      "t": 65571.20999999995,
      "d": 428.56999999999243,
      "v": 125
    },
    {
      "midi": 59,
      "hit": false,
      "t": 65856.92333333328,
      "d": 138.39239583333256,
      "v": 125
    },
    {
      "midi": 62,
      "hit": false,
      "t": 65856.92333333328,
      "d": 138.39239583333256,
      "v": 125
    },
    {
      "midi": 67,
      "hit": false,
      "t": 65856.92333333328,
      "d": 138.39239583333256,
      "v": 125
    },
    {
      "midi": 38,
      "hit": false,
      "t": 65999.77999999994,
      "d": 428.56999999999243,
      "v": 125
    },
    {
      "midi": 59,
      "hit": false,
      "t": 66285.49333333327,
      "d": 138.39239583333256,
      "v": 125
    },
    {
      "midi": 62,
      "hit": false,
      "t": 66285.49333333327,
      "d": 138.39239583333256,
      "v": 125
    },
    {
      "midi": 67,
      "hit": false,
      "t": 66285.49333333327,
      "d": 138.39239583333256,
      "v": 125
    },
    {
      "midi": 35,
      "hit": false,
      "t": 66428.34999999993,
      "d": 428.56999999999243,
      "v": 125
    },
    {
      "midi": 59,
      "hit": false,
      "t": 66714.06333333327,
      "d": 138.39239583333256,
      "v": 125
    },
    {
      "midi": 62,
      "hit": false,
      "t": 66714.06333333327,
      "d": 138.39239583333256,
      "v": 125
    },
    {
      "midi": 67,
      "hit": false,
      "t": 66714.06333333327,
      "d": 138.39239583333256,
      "v": 125
    },
    {
      "midi": 31,
      "hit": false,
      "t": 66856.91999999993,
      "d": 428.56999999999243,
      "v": 125
    },
    {
      "midi": 59,
      "hit": false,
      "t": 67142.63333333326,
      "d": 138.39239583333256,
      "v": 125
    },
    {
      "midi": 62,
      "hit": false,
      "t": 67142.63333333326,
      "d": 138.39239583333256,
      "v": 125
    },
    {
      "midi": 67,
      "hit": false,
      "t": 67142.63333333326,
      "d": 138.39239583333256,
      "v": 125
    },
    {
      "midi": 31,
      "hit": false,
      "t": 67285.48999999992,
      "d": 428.56999999999243,
      "v": 125
    },
    {
      "midi": 59,
      "hit": false,
      "t": 67571.20333333325,
      "d": 138.39239583333256,
      "v": 125
    },
    {
      "midi": 62,
      "hit": false,
      "t": 67571.20333333325,
      "d": 138.39239583333256,
      "v": 125
    },
    {
      "midi": 67,
      "hit": false,
      "t": 67571.20333333325,
      "d": 138.39239583333256,
      "v": 125
    },
    {
      "midi": 33,
      "hit": false,
      "t": 67714.05999999991,
      "d": 428.56999999999243,
      "v": 125
    },
    {
      "midi": 59,
      "hit": false,
      "t": 67999.77333333324,
      "d": 138.39239583333256,
      "v": 125
    },
    {
      "midi": 62,
      "hit": false,
      "t": 67999.77333333324,
      "d": 138.39239583333256,
      "v": 125
    },
    {
      "midi": 67,
      "hit": false,
      "t": 67999.77333333324,
      "d": 138.39239583333256,
      "v": 125
    },
    {
      "midi": 35,
      "hit": false,
      "t": 68142.6299999999,
      "d": 428.56999999999243,
      "v": 125
    },
    {
      "midi": 59,
      "hit": false,
      "t": 68428.34333333324,
      "d": 138.39239583333256,
      "v": 125
    },
    {
      "midi": 62,
      "hit": false,
      "t": 68428.34333333324,
      "d": 138.39239583333256,
      "v": 125
    },
    {
      "midi": 67,
      "hit": false,
      "t": 68428.34333333324,
      "d": 138.39239583333256,
      "v": 125
    },
    {
      "midi": 36,
      "hit": false,
      "t": 68571.1999999999,
      "d": 428.56999999999243,
      "v": 125
    },
    {
      "midi": 60,
      "hit": false,
      "t": 68856.91333333323,
      "d": 138.39239583333256,
      "v": 125
    },
    {
      "midi": 64,
      "hit": false,
      "t": 68856.91333333323,
      "d": 138.39239583333256,
      "v": 125
    },
    {
      "midi": 67,
      "hit": false,
      "t": 68856.91333333323,
      "d": 138.39239583333256,
      "v": 125
    },
    {
      "midi": 40,
      "hit": false,
      "t": 68999.76999999989,
      "d": 428.56999999999243,
      "v": 125
    },
    {
      "midi": 60,
      "hit": false,
      "t": 69285.48333333322,
      "d": 138.39239583333256,
      "v": 125
    },
    {
      "midi": 64,
      "hit": false,
      "t": 69285.48333333322,
      "d": 138.39239583333256,
      "v": 125
    },
    {
      "midi": 67,
      "hit": false,
      "t": 69285.48333333322,
      "d": 138.39239583333256,
      "v": 125
    },
    {
      "midi": 43,
      "hit": false,
      "t": 69428.33999999988,
      "d": 428.56999999999243,
      "v": 125
    },
    {
      "midi": 60,
      "hit": false,
      "t": 69714.05333333321,
      "d": 138.39239583333256,
      "v": 125
    },
    {
      "midi": 64,
      "hit": false,
      "t": 69714.05333333321,
      "d": 138.39239583333256,
      "v": 125
    },
    {
      "midi": 67,
      "hit": false,
      "t": 69714.05333333321,
      "d": 138.39239583333256,
      "v": 125
    },
    {
      "midi": 40,
      "hit": false,
      "t": 69856.90999999987,
      "d": 428.56999999999243,
      "v": 125
    },
    {
      "midi": 60,
      "hit": false,
      "t": 70142.6233333332,
      "d": 138.39239583333256,
      "v": 125
    },
    {
      "midi": 64,
      "hit": false,
      "t": 70142.6233333332,
      "d": 138.39239583333256,
      "v": 125
    },
    {
      "midi": 67,
      "hit": false,
      "t": 70142.6233333332,
      "d": 138.39239583333256,
      "v": 125
    },
    {
      "midi": 36,
      "hit": false,
      "t": 70285.47999999986,
      "d": 428.56999999999243,
      "v": 125
    },
    {
      "midi": 60,
      "hit": false,
      "t": 70571.1933333332,
      "d": 138.39239583333256,
      "v": 125
    },
    {
      "midi": 64,
      "hit": false,
      "t": 70571.1933333332,
      "d": 138.39239583333256,
      "v": 125
    },
    {
      "midi": 67,
      "hit": false,
      "t": 70571.1933333332,
      "d": 138.39239583333256,
      "v": 125
    },
    {
      "midi": 35,
      "hit": false,
      "t": 70714.04999999986,
      "d": 428.56999999999243,
      "v": 125
    },
    {
      "midi": 60,
      "hit": false,
      "t": 70999.76333333319,
      "d": 138.39239583333256,
      "v": 125
    },
    {
      "midi": 64,
      "hit": false,
      "t": 70999.76333333319,
      "d": 138.39239583333256,
      "v": 125
    },
    {
      "midi": 67,
      "hit": false,
      "t": 70999.76333333319,
      "d": 138.39239583333256,
      "v": 125
    },
    {
      "midi": 36,
      "hit": false,
      "t": 71142.61999999985,
      "d": 428.56999999999243,
      "v": 125
    },
    {
      "midi": 60,
      "hit": false,
      "t": 71428.33333333318,
      "d": 138.39239583333256,
      "v": 125
    },
    {
      "midi": 64,
      "hit": false,
      "t": 71428.33333333318,
      "d": 138.39239583333256,
      "v": 125
    },
    {
      "midi": 67,
      "hit": false,
      "t": 71428.33333333318,
      "d": 138.39239583333256,
      "v": 125
    },
    {
      "midi": 37,
      "hit": false,
      "t": 71571.18999999984,
      "d": 428.56999999999243,
      "v": 125
    },
    {
      "midi": 60,
      "hit": false,
      "t": 71856.90333333318,
      "d": 138.39239583333256,
      "v": 125
    },
    {
      "midi": 64,
      "hit": false,
      "t": 71856.90333333318,
      "d": 138.39239583333256,
      "v": 125
    },
    {
      "midi": 67,
      "hit": false,
      "t": 71856.90333333318,
      "d": 138.39239583333256,
      "v": 125
    },
    {
      "midi": 38,
      "hit": false,
      "t": 71999.75999999983,
      "d": 428.56999999999243,
      "v": 125
    },
    {
      "midi": 57,
      "hit": false,
      "t": 72285.47333333317,
      "d": 138.39239583333256,
      "v": 125
    },
    {
      "midi": 62,
      "hit": false,
      "t": 72285.47333333317,
      "d": 138.39239583333256,
      "v": 125
    },
    {
      "midi": 66,
      "hit": false,
      "t": 72285.47333333317,
      "d": 138.39239583333256,
      "v": 125
    },
    {
      "midi": 42,
      "hit": false,
      "t": 72428.32999999983,
      "d": 428.56999999999243,
      "v": 125
    },
    {
      "midi": 57,
      "hit": false,
      "t": 72714.04333333316,
      "d": 138.39239583333256,
      "v": 125
    },
    {
      "midi": 62,
      "hit": false,
      "t": 72714.04333333316,
      "d": 138.39239583333256,
      "v": 125
    },
    {
      "midi": 66,
      "hit": false,
      "t": 72714.04333333316,
      "d": 138.39239583333256,
      "v": 125
    },
    {
      "midi": 45,
      "hit": false,
      "t": 72856.89999999982,
      "d": 428.56999999999243,
      "v": 125
    },
    {
      "midi": 57,
      "hit": false,
      "t": 73142.61333333315,
      "d": 138.39239583333256,
      "v": 125
    },
    {
      "midi": 62,
      "hit": false,
      "t": 73142.61333333315,
      "d": 138.39239583333256,
      "v": 125
    },
    {
      "midi": 66,
      "hit": false,
      "t": 73142.61333333315,
      "d": 138.39239583333256,
      "v": 125
    },
    {
      "midi": 42,
      "hit": false,
      "t": 73285.46999999981,
      "d": 428.56999999999243,
      "v": 125
    },
    {
      "midi": 57,
      "hit": false,
      "t": 73571.18333333315,
      "d": 138.39239583333256,
      "v": 125
    },
    {
      "midi": 62,
      "hit": false,
      "t": 73571.18333333315,
      "d": 138.39239583333256,
      "v": 125
    },
    {
      "midi": 66,
      "hit": false,
      "t": 73571.18333333315,
      "d": 138.39239583333256,
      "v": 125
    },
    {
      "midi": 38,
      "hit": false,
      "t": 73714.0399999998,
      "d": 428.56999999999243,
      "v": 125
    },
    {
      "midi": 57,
      "hit": false,
      "t": 73999.75333333314,
      "d": 138.39239583333256,
      "v": 125
    },
    {
      "midi": 62,
      "hit": false,
      "t": 73999.75333333314,
      "d": 138.39239583333256,
      "v": 125
    },
    {
      "midi": 66,
      "hit": false,
      "t": 73999.75333333314,
      "d": 138.39239583333256,
      "v": 125
    },
    {
      "midi": 42,
      "hit": false,
      "t": 74142.6099999998,
      "d": 428.56999999999243,
      "v": 125
    },
    {
      "midi": 57,
      "hit": false,
      "t": 74428.32333333313,
      "d": 138.39239583333256,
      "v": 125
    },
    {
      "midi": 62,
      "hit": false,
      "t": 74428.32333333313,
      "d": 138.39239583333256,
      "v": 125
    },
    {
      "midi": 66,
      "hit": false,
      "t": 74428.32333333313,
      "d": 138.39239583333256,
      "v": 125
    },
    {
      "midi": 45,
      "hit": false,
      "t": 74571.17999999979,
      "d": 428.56999999999243,
      "v": 125
    },
    {
      "midi": 57,
      "hit": false,
      "t": 74856.89333333312,
      "d": 138.39239583333256,
      "v": 125
    },
    {
      "midi": 62,
      "hit": false,
      "t": 74856.89333333312,
      "d": 138.39239583333256,
      "v": 125
    },
    {
      "midi": 66,
      "hit": false,
      "t": 74856.89333333312,
      "d": 138.39239583333256,
      "v": 125
    },
    {
      "midi": 42,
      "hit": false,
      "t": 74999.74999999978,
      "d": 428.56999999999243,
      "v": 125
    },
    {
      "midi": 57,
      "hit": false,
      "t": 75285.46333333311,
      "d": 138.39239583333256,
      "v": 125
    },
    {
      "midi": 62,
      "hit": false,
      "t": 75285.46333333311,
      "d": 138.39239583333256,
      "v": 125
    },
    {
      "midi": 66,
      "hit": false,
      "t": 75285.46333333311,
      "d": 138.39239583333256,
      "v": 125
    },
    {
      "midi": 38,
      "hit": false,
      "t": 75428.31999999977,
      "d": 428.56999999999243,
      "v": 125
    },
    {
      "midi": 57,
      "hit": false,
      "t": 75714.03333333311,
      "d": 138.39239583333256,
      "v": 125
    },
    {
      "midi": 62,
      "hit": false,
      "t": 75714.03333333311,
      "d": 138.39239583333256,
      "v": 125
    },
    {
      "midi": 66,
      "hit": false,
      "t": 75714.03333333311,
      "d": 138.39239583333256,
      "v": 125
    },
    {
      "midi": 36,
      "hit": false,
      "t": 75856.88999999977,
      "d": 428.56999999999243,
      "v": 125
    },
    {
      "midi": 57,
      "hit": false,
      "t": 76142.6033333331,
      "d": 138.39239583333256,
      "v": 125
    },
    {
      "midi": 62,
      "hit": false,
      "t": 76142.6033333331,
      "d": 138.39239583333256,
      "v": 125
    },
    {
      "midi": 66,
      "hit": false,
      "t": 76142.6033333331,
      "d": 138.39239583333256,
      "v": 125
    },
    {
      "midi": 35,
      "hit": false,
      "t": 76285.45999999976,
      "d": 428.56999999999243,
      "v": 126
    },
    {
      "midi": 57,
      "hit": false,
      "t": 76571.17333333309,
      "d": 138.39239583333256,
      "v": 126
    },
    {
      "midi": 62,
      "hit": false,
      "t": 76571.17333333309,
      "d": 138.39239583333256,
      "v": 126
    },
    {
      "midi": 66,
      "hit": false,
      "t": 76571.17333333309,
      "d": 138.39239583333256,
      "v": 126
    },
    {
      "midi": 33,
      "hit": false,
      "t": 76714.02999999975,
      "d": 428.56999999999243,
      "v": 126
    },
    {
      "midi": 57,
      "hit": false,
      "t": 76999.74333333308,
      "d": 138.39239583333256,
      "v": 126
    },
    {
      "midi": 62,
      "hit": false,
      "t": 76999.74333333308,
      "d": 138.39239583333256,
      "v": 126
    },
    {
      "midi": 66,
      "hit": false,
      "t": 76999.74333333308,
      "d": 138.39239583333256,
      "v": 126
    },
    {
      "midi": 31,
      "hit": false,
      "t": 77142.59999999974,
      "d": 428.56999999999243,
      "v": 126
    },
    {
      "midi": 59,
      "hit": false,
      "t": 77428.31333333308,
      "d": 138.39239583333256,
      "v": 126
    },
    {
      "midi": 62,
      "hit": false,
      "t": 77428.31333333308,
      "d": 138.39239583333256,
      "v": 126
    },
    {
      "midi": 67,
      "hit": false,
      "t": 77428.31333333308,
      "d": 138.39239583333256,
      "v": 126
    },
    {
      "midi": 38,
      "hit": false,
      "t": 77571.16999999974,
      "d": 428.56999999999243,
      "v": 126
    },
    {
      "midi": 59,
      "hit": false,
      "t": 77856.88333333307,
      "d": 138.39239583333256,
      "v": 126
    },
    {
      "midi": 62,
      "hit": false,
      "t": 77856.88333333307,
      "d": 138.39239583333256,
      "v": 126
    },
    {
      "midi": 67,
      "hit": false,
      "t": 77856.88333333307,
      "d": 138.39239583333256,
      "v": 126
    },
    {
      "midi": 40,
      "hit": false,
      "t": 77999.73999999973,
      "d": 428.56999999999243,
      "v": 126
    },
    {
      "midi": 59,
      "hit": false,
      "t": 78285.45333333306,
      "d": 138.39239583333256,
      "v": 126
    },
    {
      "midi": 62,
      "hit": false,
      "t": 78285.45333333306,
      "d": 138.39239583333256,
      "v": 126
    },
    {
      "midi": 67,
      "hit": false,
      "t": 78285.45333333306,
      "d": 138.39239583333256,
      "v": 126
    },
    {
      "midi": 42,
      "hit": false,
      "t": 78428.30999999972,
      "d": 428.56999999999243,
      "v": 126
    },
    {
      "midi": 59,
      "hit": false,
      "t": 78714.02333333305,
      "d": 138.39239583333256,
      "v": 126
    },
    {
      "midi": 62,
      "hit": false,
      "t": 78714.02333333305,
      "d": 138.39239583333256,
      "v": 126
    },
    {
      "midi": 67,
      "hit": false,
      "t": 78714.02333333305,
      "d": 138.39239583333256,
      "v": 126
    },
    {
      "midi": 43,
      "hit": false,
      "t": 78856.87999999971,
      "d": 428.56999999999243,
      "v": 126
    },
    {
      "midi": 59,
      "hit": false,
      "t": 79142.59333333305,
      "d": 138.39239583333256,
      "v": 126
    },
    {
      "midi": 62,
      "hit": false,
      "t": 79142.59333333305,
      "d": 138.39239583333256,
      "v": 126
    },
    {
      "midi": 67,
      "hit": false,
      "t": 79142.59333333305,
      "d": 138.39239583333256,
      "v": 126
    },
    {
      "midi": 40,
      "hit": false,
      "t": 79285.4499999997,
      "d": 428.56999999999243,
      "v": 126
    },
    {
      "midi": 59,
      "hit": false,
      "t": 79571.16333333304,
      "d": 138.39239583333256,
      "v": 126
    },
    {
      "midi": 62,
      "hit": false,
      "t": 79571.16333333304,
      "d": 138.39239583333256,
      "v": 126
    },
    {
      "midi": 67,
      "hit": false,
      "t": 79571.16333333304,
      "d": 138.39239583333256,
      "v": 126
    },
    {
      "midi": 38,
      "hit": false,
      "t": 79714.0199999997,
      "d": 428.56999999999243,
      "v": 126
    },
    {
      "midi": 59,
      "hit": false,
      "t": 79999.73333333303,
      "d": 138.39239583333256,
      "v": 126
    },
    {
      "midi": 62,
      "hit": false,
      "t": 79999.73333333303,
      "d": 138.39239583333256,
      "v": 126
    },
    {
      "midi": 67,
      "hit": false,
      "t": 79999.73333333303,
      "d": 138.39239583333256,
      "v": 126
    },
    {
      "midi": 35,
      "hit": false,
      "t": 80142.58999999969,
      "d": 428.56999999999243,
      "v": 126
    },
    {
      "midi": 59,
      "hit": false,
      "t": 80428.30333333302,
      "d": 138.39239583333256,
      "v": 126
    },
    {
      "midi": 62,
      "hit": false,
      "t": 80428.30333333302,
      "d": 138.39239583333256,
      "v": 126
    },
    {
      "midi": 67,
      "hit": false,
      "t": 80428.30333333302,
      "d": 138.39239583333256,
      "v": 126
    },
    {
      "midi": 31,
      "hit": false,
      "t": 80571.15999999968,
      "d": 428.56999999999243,
      "v": 126
    },
    {
      "midi": 59,
      "hit": false,
      "t": 80856.87333333302,
      "d": 138.39239583333256,
      "v": 126
    },
    {
      "midi": 62,
      "hit": false,
      "t": 80856.87333333302,
      "d": 138.39239583333256,
      "v": 126
    },
    {
      "midi": 67,
      "hit": false,
      "t": 80856.87333333302,
      "d": 138.39239583333256,
      "v": 126
    },
    {
      "midi": 31,
      "hit": false,
      "t": 80999.72999999968,
      "d": 428.56999999999243,
      "v": 126
    },
    {
      "midi": 59,
      "hit": false,
      "t": 81285.44333333301,
      "d": 138.39239583333256,
      "v": 126
    },
    {
      "midi": 62,
      "hit": false,
      "t": 81285.44333333301,
      "d": 138.39239583333256,
      "v": 126
    },
    {
      "midi": 67,
      "hit": false,
      "t": 81285.44333333301,
      "d": 138.39239583333256,
      "v": 126
    },
    {
      "midi": 33,
      "hit": false,
      "t": 81428.29999999967,
      "d": 428.56999999999243,
      "v": 126
    },
    {
      "midi": 59,
      "hit": false,
      "t": 81714.013333333,
      "d": 138.39239583333256,
      "v": 126
    },
    {
      "midi": 62,
      "hit": false,
      "t": 81714.013333333,
      "d": 138.39239583333256,
      "v": 126
    },
    {
      "midi": 67,
      "hit": false,
      "t": 81714.013333333,
      "d": 138.39239583333256,
      "v": 126
    },
    {
      "midi": 35,
      "hit": false,
      "t": 81856.86999999966,
      "d": 428.56999999999243,
      "v": 126
    },
    {
      "midi": 59,
      "hit": false,
      "t": 82142.583333333,
      "d": 138.39239583333256,
      "v": 126
    },
    {
      "midi": 62,
      "hit": false,
      "t": 82142.583333333,
      "d": 138.39239583333256,
      "v": 126
    },
    {
      "midi": 67,
      "hit": false,
      "t": 82142.583333333,
      "d": 138.39239583333256,
      "v": 126
    },
    {
      "midi": 36,
      "hit": false,
      "t": 82285.43999999965,
      "d": 428.56999999999243,
      "v": 126
    },
    {
      "midi": 60,
      "hit": false,
      "t": 82571.15333333299,
      "d": 138.39239583333256,
      "v": 126
    },
    {
      "midi": 64,
      "hit": false,
      "t": 82571.15333333299,
      "d": 138.39239583333256,
      "v": 126
    },
    {
      "midi": 67,
      "hit": false,
      "t": 82571.15333333299,
      "d": 138.39239583333256,
      "v": 126
    },
    {
      "midi": 40,
      "hit": false,
      "t": 82714.00999999965,
      "d": 428.56999999999243,
      "v": 126
    },
    {
      "midi": 60,
      "hit": false,
      "t": 82999.72333333298,
      "d": 138.39239583333256,
      "v": 126
    },
    {
      "midi": 64,
      "hit": false,
      "t": 82999.72333333298,
      "d": 138.39239583333256,
      "v": 126
    },
    {
      "midi": 67,
      "hit": false,
      "t": 82999.72333333298,
      "d": 138.39239583333256,
      "v": 126
    },
    {
      "midi": 43,
      "hit": false,
      "t": 83142.57999999964,
      "d": 428.56999999999243,
      "v": 126
    },
    {
      "midi": 60,
      "hit": false,
      "t": 83428.29333333297,
      "d": 138.39239583333256,
      "v": 126
    },
    {
      "midi": 64,
      "hit": false,
      "t": 83428.29333333297,
      "d": 138.39239583333256,
      "v": 126
    },
    {
      "midi": 67,
      "hit": false,
      "t": 83428.29333333297,
      "d": 138.39239583333256,
      "v": 126
    },
    {
      "midi": 40,
      "hit": false,
      "t": 83571.14999999963,
      "d": 428.56999999999243,
      "v": 126
    },
    {
      "midi": 60,
      "hit": false,
      "t": 83856.86333333296,
      "d": 138.39239583333256,
      "v": 126
    },
    {
      "midi": 64,
      "hit": false,
      "t": 83856.86333333296,
      "d": 138.39239583333256,
      "v": 126
    },
    {
      "midi": 67,
      "hit": false,
      "t": 83856.86333333296,
      "d": 138.39239583333256,
      "v": 126
    },
    {
      "midi": 36,
      "hit": false,
      "t": 83999.71999999962,
      "d": 428.56999999999243,
      "v": 126
    },
    {
      "midi": 60,
      "hit": false,
      "t": 84285.43333333296,
      "d": 138.39239583333256,
      "v": 126
    },
    {
      "midi": 64,
      "hit": false,
      "t": 84285.43333333296,
      "d": 138.39239583333256,
      "v": 126
    },
    {
      "midi": 67,
      "hit": false,
      "t": 84285.43333333296,
      "d": 138.39239583333256,
      "v": 126
    },
    {
      "midi": 35,
      "hit": false,
      "t": 84428.28999999962,
      "d": 428.56999999999243,
      "v": 126
    },
    {
      "midi": 60,
      "hit": false,
      "t": 84714.00333333295,
      "d": 138.39239583333256,
      "v": 126
    },
    {
      "midi": 64,
      "hit": false,
      "t": 84714.00333333295,
      "d": 138.39239583333256,
      "v": 126
    },
    {
      "midi": 67,
      "hit": false,
      "t": 84714.00333333295,
      "d": 138.39239583333256,
      "v": 126
    },
    {
      "midi": 36,
      "hit": false,
      "t": 84856.85999999961,
      "d": 428.56999999999243,
      "v": 126
    },
    {
      "midi": 60,
      "hit": false,
      "t": 85142.57333333294,
      "d": 138.39239583333256,
      "v": 126
    },
    {
      "midi": 64,
      "hit": false,
      "t": 85142.57333333294,
      "d": 138.39239583333256,
      "v": 126
    },
    {
      "midi": 67,
      "hit": false,
      "t": 85142.57333333294,
      "d": 138.39239583333256,
      "v": 126
    },
    {
      "midi": 37,
      "hit": false,
      "t": 85285.4299999996,
      "d": 428.56999999999243,
      "v": 126
    },
    {
      "midi": 60,
      "hit": false,
      "t": 85571.14333333293,
      "d": 138.39239583333256,
      "v": 126
    },
    {
      "midi": 64,
      "hit": false,
      "t": 85571.14333333293,
      "d": 138.39239583333256,
      "v": 126
    },
    {
      "midi": 67,
      "hit": false,
      "t": 85571.14333333293,
      "d": 138.39239583333256,
      "v": 126
    },
    {
      "midi": 38,
      "hit": false,
      "t": 85713.99999999959,
      "d": 428.56999999999243,
      "v": 126
    },
    {
      "midi": 57,
      "hit": false,
      "t": 85999.71333333293,
      "d": 138.39239583333256,
      "v": 126
    },
    {
      "midi": 62,
      "hit": false,
      "t": 85999.71333333293,
      "d": 138.39239583333256,
      "v": 126
    },
    {
      "midi": 66,
      "hit": false,
      "t": 85999.71333333293,
      "d": 138.39239583333256,
      "v": 126
    },
    {
      "midi": 42,
      "hit": false,
      "t": 86142.56999999958,
      "d": 428.56999999999243,
      "v": 126
    },
    {
      "midi": 57,
      "hit": false,
      "t": 86428.28333333292,
      "d": 138.39239583333256,
      "v": 126
    },
    {
      "midi": 62,
      "hit": false,
      "t": 86428.28333333292,
      "d": 138.39239583333256,
      "v": 126
    },
    {
      "midi": 66,
      "hit": false,
      "t": 86428.28333333292,
      "d": 138.39239583333256,
      "v": 126
    },
    {
      "midi": 45,
      "hit": false,
      "t": 86571.13999999958,
      "d": 428.56999999999243,
      "v": 126
    },
    {
      "midi": 57,
      "hit": false,
      "t": 86856.85333333291,
      "d": 138.39239583333256,
      "v": 126
    },
    {
      "midi": 62,
      "hit": false,
      "t": 86856.85333333291,
      "d": 138.39239583333256,
      "v": 126
    },
    {
      "midi": 66,
      "hit": false,
      "t": 86856.85333333291,
      "d": 138.39239583333256,
      "v": 126
    },
    {
      "midi": 47,
      "hit": false,
      "t": 86999.70999999957,
      "d": 428.56999999999243,
      "v": 126
    },
    {
      "midi": 57,
      "hit": false,
      "t": 87285.4233333329,
      "d": 138.39239583333256,
      "v": 126
    },
    {
      "midi": 62,
      "hit": false,
      "t": 87285.4233333329,
      "d": 138.39239583333256,
      "v": 126
    },
    {
      "midi": 66,
      "hit": false,
      "t": 87285.4233333329,
      "d": 138.39239583333256,
      "v": 126
    },
    {
      "midi": 50,
      "hit": false,
      "t": 87428.27999999956,
      "d": 138.39239583333256,
      "v": 126
    },
    {
      "midi": 45,
      "hit": false,
      "t": 87571.13666666622,
      "d": 138.39239583333256,
      "v": 126
    },
    {
      "midi": 42,
      "hit": false,
      "t": 87713.99333333288,
      "d": 138.39239583333256,
      "v": 126
    },
    {
      "midi": 57,
      "hit": false,
      "t": 87713.99333333288,
      "d": 138.39239583333256,
      "v": 126
    },
    {
      "midi": 62,
      "hit": false,
      "t": 87713.99333333288,
      "d": 138.39239583333256,
      "v": 126
    },
    {
      "midi": 66,
      "hit": false,
      "t": 87713.99333333288,
      "d": 138.39239583333256,
      "v": 126
    },
    {
      "midi": 38,
      "hit": false,
      "t": 87856.84999999954,
      "d": 428.56999999999243,
      "v": 126
    },
    {
      "midi": 57,
      "hit": false,
      "t": 88142.56333333287,
      "d": 138.39239583333256,
      "v": 126
    },
    {
      "midi": 62,
      "hit": false,
      "t": 88142.56333333287,
      "d": 138.39239583333256,
      "v": 126
    },
    {
      "midi": 66,
      "hit": false,
      "t": 88142.56333333287,
      "d": 138.39239583333256,
      "v": 126
    },
    {
      "midi": 40,
      "hit": false,
      "t": 88285.41999999953,
      "d": 428.56999999999243,
      "v": 126
    },
    {
      "midi": 57,
      "hit": false,
      "t": 88571.13333333287,
      "d": 138.39239583333256,
      "v": 126
    },
    {
      "midi": 62,
      "hit": false,
      "t": 88571.13333333287,
      "d": 138.39239583333256,
      "v": 126
    },
    {
      "midi": 66,
      "hit": false,
      "t": 88571.13333333287,
      "d": 138.39239583333256,
      "v": 126
    },
    {
      "midi": 42,
      "hit": false,
      "t": 88713.98999999953,
      "d": 428.56999999999243,
      "v": 126
    },
    {
      "midi": 57,
      "hit": false,
      "t": 88999.70333333286,
      "d": 138.39239583333256,
      "v": 126
    },
    {
      "midi": 62,
      "hit": false,
      "t": 88999.70333333286,
      "d": 138.39239583333256,
      "v": 126
    },
    {
      "midi": 66,
      "hit": false,
      "t": 88999.70333333286,
      "d": 138.39239583333256,
      "v": 126
    },
    {
      "midi": 43,
      "hit": false,
      "t": 89142.55999999952,
      "d": 428.56999999999243,
      "v": 126
    },
    {
      "midi": 59,
      "hit": false,
      "t": 89428.27333333285,
      "d": 138.39239583333256,
      "v": 126
    },
    {
      "midi": 62,
      "hit": false,
      "t": 89428.27333333285,
      "d": 138.39239583333256,
      "v": 126
    },
    {
      "midi": 67,
      "hit": false,
      "t": 89428.27333333285,
      "d": 138.39239583333256,
      "v": 126
    },
    {
      "midi": 40,
      "hit": false,
      "t": 89571.12999999951,
      "d": 428.56999999999243,
      "v": 126
    },
    {
      "midi": 59,
      "hit": false,
      "t": 89856.84333333284,
      "d": 138.39239583333256,
      "v": 126
    },
    {
      "midi": 62,
      "hit": false,
      "t": 89856.84333333284,
      "d": 138.39239583333256,
      "v": 126
    },
    {
      "midi": 67,
      "hit": false,
      "t": 89856.84333333284,
      "d": 138.39239583333256,
      "v": 126
    },
    {
      "midi": 38,
      "hit": false,
      "t": 89999.6999999995,
      "d": 428.56999999999243,
      "v": 126
    },
    {
      "midi": 59,
      "hit": false,
      "t": 90285.41333333284,
      "d": 138.39239583333256,
      "v": 126
    },
    {
      "midi": 62,
      "hit": false,
      "t": 90285.41333333284,
      "d": 138.39239583333256,
      "v": 126
    },
    {
      "midi": 67,
      "hit": false,
      "t": 90285.41333333284,
      "d": 138.39239583333256,
      "v": 126
    },
    {
      "midi": 35,
      "hit": false,
      "t": 90428.2699999995,
      "d": 428.56999999999243,
      "v": 126
    },
    {
      "midi": 59,
      "hit": false,
      "t": 90713.98333333283,
      "d": 138.39239583333256,
      "v": 126
    },
    {
      "midi": 62,
      "hit": false,
      "t": 90713.98333333283,
      "d": 138.39239583333256,
      "v": 126
    },
    {
      "midi": 67,
      "hit": false,
      "t": 90713.98333333283,
      "d": 138.39239583333256,
      "v": 126
    },
    {
      "midi": 31,
      "hit": false,
      "t": 90856.83999999949,
      "d": 428.56999999999243,
      "v": 126
    },
    {
      "midi": 59,
      "hit": false,
      "t": 91142.55333333282,
      "d": 138.39239583333256,
      "v": 126
    },
    {
      "midi": 62,
      "hit": false,
      "t": 91142.55333333282,
      "d": 138.39239583333256,
      "v": 126
    },
    {
      "midi": 67,
      "hit": false,
      "t": 91142.55333333282,
      "d": 138.39239583333256,
      "v": 126
    },
    {
      "midi": 26,
      "hit": false,
      "t": 91285.40999999948,
      "d": 428.56999999999243,
      "v": 126
    },
    {
      "midi": 59,
      "hit": false,
      "t": 91571.12333333281,
      "d": 138.39239583333256,
      "v": 126
    },
    {
      "midi": 62,
      "hit": false,
      "t": 91571.12333333281,
      "d": 138.39239583333256,
      "v": 126
    },
    {
      "midi": 67,
      "hit": false,
      "t": 91571.12333333281,
      "d": 138.39239583333256,
      "v": 126
    },
    {
      "midi": 28,
      "hit": false,
      "t": 91713.97999999947,
      "d": 428.56999999999243,
      "v": 126
    },
    {
      "midi": 59,
      "hit": false,
      "t": 91999.6933333328,
      "d": 138.39239583333256,
      "v": 126
    },
    {
      "midi": 62,
      "hit": false,
      "t": 91999.6933333328,
      "d": 138.39239583333256,
      "v": 126
    },
    {
      "midi": 67,
      "hit": false,
      "t": 91999.6933333328,
      "d": 138.39239583333256,
      "v": 126
    },
    {
      "midi": 30,
      "hit": false,
      "t": 92142.54999999946,
      "d": 428.56999999999243,
      "v": 126
    },
    {
      "midi": 59,
      "hit": false,
      "t": 92428.2633333328,
      "d": 138.39239583333256,
      "v": 126
    },
    {
      "midi": 62,
      "hit": false,
      "t": 92428.2633333328,
      "d": 138.39239583333256,
      "v": 126
    },
    {
      "midi": 67,
      "hit": false,
      "t": 92428.2633333328,
      "d": 138.39239583333256,
      "v": 126
    },
    {
      "midi": 31,
      "hit": false,
      "t": 92571.11999999946,
      "d": 428.56999999999243,
      "v": 126
    },
    {
      "midi": 59,
      "hit": false,
      "t": 92856.83333333279,
      "d": 138.39239583333256,
      "v": 126
    },
    {
      "midi": 62,
      "hit": false,
      "t": 92856.83333333279,
      "d": 138.39239583333256,
      "v": 126
    },
    {
      "midi": 67,
      "hit": false,
      "t": 92856.83333333279,
      "d": 138.39239583333256,
      "v": 126
    },
    {
      "midi": 35,
      "hit": false,
      "t": 92999.68999999945,
      "d": 428.56999999999243,
      "v": 126
    },
    {
      "midi": 59,
      "hit": false,
      "t": 93285.40333333278,
      "d": 138.39239583333256,
      "v": 126
    },
    {
      "midi": 62,
      "hit": false,
      "t": 93285.40333333278,
      "d": 138.39239583333256,
      "v": 126
    },
    {
      "midi": 67,
      "hit": false,
      "t": 93285.40333333278,
      "d": 138.39239583333256,
      "v": 126
    },
    {
      "midi": 38,
      "hit": false,
      "t": 93428.25999999944,
      "d": 428.56999999999243,
      "v": 126
    },
    {
      "midi": 59,
      "hit": false,
      "t": 93713.97333333277,
      "d": 138.39239583333256,
      "v": 126
    },
    {
      "midi": 62,
      "hit": false,
      "t": 93713.97333333277,
      "d": 138.39239583333256,
      "v": 126
    },
    {
      "midi": 67,
      "hit": false,
      "t": 93713.97333333277,
      "d": 138.39239583333256,
      "v": 126
    },
    {
      "midi": 35,
      "hit": false,
      "t": 93856.82999999943,
      "d": 428.56999999999243,
      "v": 126
    },
    {
      "midi": 59,
      "hit": false,
      "t": 94142.54333333277,
      "d": 138.39239583333256,
      "v": 126
    },
    {
      "midi": 62,
      "hit": false,
      "t": 94142.54333333277,
      "d": 138.39239583333256,
      "v": 126
    },
    {
      "midi": 67,
      "hit": false,
      "t": 94142.54333333277,
      "d": 138.39239583333256,
      "v": 126
    },
    {
      "midi": 31,
      "hit": false,
      "t": 94285.39999999943,
      "d": 428.56999999999243,
      "v": 126
    },
    {
      "midi": 59,
      "hit": false,
      "t": 94571.11333333276,
      "d": 138.39239583333256,
      "v": 126
    },
    {
      "midi": 62,
      "hit": false,
      "t": 94571.11333333276,
      "d": 138.39239583333256,
      "v": 126
    },
    {
      "midi": 67,
      "hit": false,
      "t": 94571.11333333276,
      "d": 138.39239583333256,
      "v": 126
    },
    {
      "midi": 35,
      "hit": false,
      "t": 94713.96999999942,
      "d": 428.56999999999243,
      "v": 126
    },
    {
      "midi": 59,
      "hit": false,
      "t": 94999.68333333275,
      "d": 138.39239583333256,
      "v": 126
    },
    {
      "midi": 62,
      "hit": false,
      "t": 94999.68333333275,
      "d": 138.39239583333256,
      "v": 126
    },
    {
      "midi": 67,
      "hit": false,
      "t": 94999.68333333275,
      "d": 138.39239583333256,
      "v": 126
    },
    {
      "midi": 36,
      "hit": false,
      "t": 95142.53999999941,
      "d": 428.56999999999243,
      "v": 126
    },
    {
      "midi": 59,
      "hit": false,
      "t": 95428.25333333274,
      "d": 138.39239583333256,
      "v": 126
    },
    {
      "midi": 62,
      "hit": false,
      "t": 95428.25333333274,
      "d": 138.39239583333256,
      "v": 126
    },
    {
      "midi": 67,
      "hit": false,
      "t": 95428.25333333274,
      "d": 138.39239583333256,
      "v": 126
    },
    {
      "midi": 37,
      "hit": false,
      "t": 95571.1099999994,
      "d": 428.56999999999243,
      "v": 126
    },
    {
      "midi": 59,
      "hit": false,
      "t": 95856.82333333274,
      "d": 138.39239583333256,
      "v": 126
    },
    {
      "midi": 62,
      "hit": false,
      "t": 95856.82333333274,
      "d": 138.39239583333256,
      "v": 126
    },
    {
      "midi": 67,
      "hit": false,
      "t": 95856.82333333274,
      "d": 138.39239583333256,
      "v": 126
    },
    {
      "midi": 38,
      "hit": false,
      "t": 95999.6799999994,
      "d": 428.56999999999243,
      "v": 126
    },
    {
      "midi": 57,
      "hit": false,
      "t": 96285.39333333273,
      "d": 138.39239583333256,
      "v": 126
    },
    {
      "midi": 62,
      "hit": false,
      "t": 96285.39333333273,
      "d": 138.39239583333256,
      "v": 126
    },
    {
      "midi": 66,
      "hit": false,
      "t": 96285.39333333273,
      "d": 138.39239583333256,
      "v": 126
    },
    {
      "midi": 42,
      "hit": false,
      "t": 96428.24999999939,
      "d": 428.56999999999243,
      "v": 126
    },
    {
      "midi": 57,
      "hit": false,
      "t": 96713.96333333272,
      "d": 138.39239583333256,
      "v": 126
    },
    {
      "midi": 62,
      "hit": false,
      "t": 96713.96333333272,
      "d": 138.39239583333256,
      "v": 126
    },
    {
      "midi": 66,
      "hit": false,
      "t": 96713.96333333272,
      "d": 138.39239583333256,
      "v": 126
    },
    {
      "midi": 45,
      "hit": false,
      "t": 96856.81999999938,
      "d": 428.56999999999243,
      "v": 126
    },
    {
      "midi": 57,
      "hit": false,
      "t": 97142.53333333271,
      "d": 138.39239583333256,
      "v": 126
    },
    {
      "midi": 62,
      "hit": false,
      "t": 97142.53333333271,
      "d": 138.39239583333256,
      "v": 126
    },
    {
      "midi": 66,
      "hit": false,
      "t": 97142.53333333271,
      "d": 138.39239583333256,
      "v": 126
    },
    {
      "midi": 42,
      "hit": false,
      "t": 97285.38999999937,
      "d": 428.56999999999243,
      "v": 126
    },
    {
      "midi": 57,
      "hit": false,
      "t": 97571.1033333327,
      "d": 138.39239583333256,
      "v": 126
    },
    {
      "midi": 62,
      "hit": false,
      "t": 97571.1033333327,
      "d": 138.39239583333256,
      "v": 126
    },
    {
      "midi": 66,
      "hit": false,
      "t": 97571.1033333327,
      "d": 138.39239583333256,
      "v": 126
    },
    {
      "midi": 38,
      "hit": false,
      "t": 97713.95999999937,
      "d": 428.56999999999243,
      "v": 126
    },
    {
      "midi": 57,
      "hit": false,
      "t": 97999.6733333327,
      "d": 138.39239583333256,
      "v": 126
    },
    {
      "midi": 62,
      "hit": false,
      "t": 97999.6733333327,
      "d": 138.39239583333256,
      "v": 126
    },
    {
      "midi": 66,
      "hit": false,
      "t": 97999.6733333327,
      "d": 138.39239583333256,
      "v": 126
    },
    {
      "midi": 42,
      "hit": false,
      "t": 98142.52999999936,
      "d": 428.56999999999243,
      "v": 126
    },
    {
      "midi": 57,
      "hit": false,
      "t": 98428.24333333269,
      "d": 138.39239583333256,
      "v": 126
    },
    {
      "midi": 62,
      "hit": false,
      "t": 98428.24333333269,
      "d": 138.39239583333256,
      "v": 126
    },
    {
      "midi": 66,
      "hit": false,
      "t": 98428.24333333269,
      "d": 138.39239583333256,
      "v": 126
    },
    {
      "midi": 45,
      "hit": false,
      "t": 98571.09999999935,
      "d": 428.56999999999243,
      "v": 126
    },
    {
      "midi": 57,
      "hit": false,
      "t": 98856.81333333268,
      "d": 138.39239583333256,
      "v": 126
    },
    {
      "midi": 62,
      "hit": false,
      "t": 98856.81333333268,
      "d": 138.39239583333256,
      "v": 126
    },
    {
      "midi": 66,
      "hit": false,
      "t": 98856.81333333268,
      "d": 138.39239583333256,
      "v": 126
    },
    {
      "midi": 42,
      "hit": false,
      "t": 98999.66999999934,
      "d": 428.56999999999243,
      "v": 126
    },
    {
      "midi": 57,
      "hit": false,
      "t": 99285.38333333268,
      "d": 138.39239583333256,
      "v": 126
    },
    {
      "midi": 62,
      "hit": false,
      "t": 99285.38333333268,
      "d": 138.39239583333256,
      "v": 126
    },
    {
      "midi": 66,
      "hit": false,
      "t": 99285.38333333268,
      "d": 138.39239583333256,
      "v": 126
    },
    {
      "midi": 38,
      "hit": false,
      "t": 99428.23999999934,
      "d": 428.56999999999243,
      "v": 126
    },
    {
      "midi": 57,
      "hit": false,
      "t": 99713.95333333267,
      "d": 138.39239583333256,
      "v": 126
    },
    {
      "midi": 62,
      "hit": false,
      "t": 99713.95333333267,
      "d": 138.39239583333256,
      "v": 126
    },
    {
      "midi": 66,
      "hit": false,
      "t": 99713.95333333267,
      "d": 138.39239583333256,
      "v": 126
    },
    {
      "midi": 42,
      "hit": false,
      "t": 99856.80999999933,
      "d": 428.56999999999243,
      "v": 126
    },
    {
      "midi": 57,
      "hit": false,
      "t": 100142.52333333266,
      "d": 138.39239583333256,
      "v": 126
    },
    {
      "midi": 62,
      "hit": false,
      "t": 100142.52333333266,
      "d": 138.39239583333256,
      "v": 126
    },
    {
      "midi": 66,
      "hit": false,
      "t": 100142.52333333266,
      "d": 138.39239583333256,
      "v": 126
    },
    {
      "midi": 45,
      "hit": false,
      "t": 100285.37999999932,
      "d": 428.56999999999243,
      "v": 126
    },
    {
      "midi": 57,
      "hit": false,
      "t": 100571.09333333265,
      "d": 138.39239583333256,
      "v": 126
    },
    {
      "midi": 62,
      "hit": false,
      "t": 100571.09333333265,
      "d": 138.39239583333256,
      "v": 126
    },
    {
      "midi": 66,
      "hit": false,
      "t": 100571.09333333265,
      "d": 138.39239583333256,
      "v": 126
    },
    {
      "midi": 42,
      "hit": false,
      "t": 100713.94999999931,
      "d": 428.56999999999243,
      "v": 126
    },
    {
      "midi": 57,
      "hit": false,
      "t": 100999.66333333265,
      "d": 138.39239583333256,
      "v": 126
    },
    {
      "midi": 62,
      "hit": false,
      "t": 100999.66333333265,
      "d": 138.39239583333256,
      "v": 126
    },
    {
      "midi": 66,
      "hit": false,
      "t": 100999.66333333265,
      "d": 138.39239583333256,
      "v": 126
    },
    {
      "midi": 38,
      "hit": false,
      "t": 101142.5199999993,
      "d": 428.56999999999243,
      "v": 126
    },
    {
      "midi": 57,
      "hit": false,
      "t": 101428.23333333264,
      "d": 138.39239583333256,
      "v": 126
    },
    {
      "midi": 62,
      "hit": false,
      "t": 101428.23333333264,
      "d": 138.39239583333256,
      "v": 126
    },
    {
      "midi": 66,
      "hit": false,
      "t": 101428.23333333264,
      "d": 138.39239583333256,
      "v": 126
    },
    {
      "midi": 36,
      "hit": false,
      "t": 101571.0899999993,
      "d": 428.56999999999243,
      "v": 126
    },
    {
      "midi": 57,
      "hit": false,
      "t": 101856.80333333263,
      "d": 138.39239583333256,
      "v": 126
    },
    {
      "midi": 62,
      "hit": false,
      "t": 101856.80333333263,
      "d": 138.39239583333256,
      "v": 126
    },
    {
      "midi": 66,
      "hit": false,
      "t": 101856.80333333263,
      "d": 138.39239583333256,
      "v": 126
    },
    {
      "midi": 35,
      "hit": false,
      "t": 101999.65999999929,
      "d": 428.56999999999243,
      "v": 126
    },
    {
      "midi": 57,
      "hit": false,
      "t": 102285.37333333262,
      "d": 138.39239583333256,
      "v": 126
    },
    {
      "midi": 62,
      "hit": false,
      "t": 102285.37333333262,
      "d": 138.39239583333256,
      "v": 126
    },
    {
      "midi": 66,
      "hit": false,
      "t": 102285.37333333262,
      "d": 138.39239583333256,
      "v": 126
    },
    {
      "midi": 33,
      "hit": false,
      "t": 102428.22999999928,
      "d": 428.56999999999243,
      "v": 126
    },
    {
      "midi": 57,
      "hit": false,
      "t": 102713.94333333262,
      "d": 138.39239583333256,
      "v": 126
    },
    {
      "midi": 62,
      "hit": false,
      "t": 102713.94333333262,
      "d": 138.39239583333256,
      "v": 126
    },
    {
      "midi": 66,
      "hit": false,
      "t": 102713.94333333262,
      "d": 138.39239583333256,
      "v": 126
    },
    {
      "midi": 31,
      "hit": false,
      "t": 102856.79999999928,
      "d": 428.56999999999243,
      "v": 126
    },
    {
      "midi": 59,
      "hit": false,
      "t": 103142.51333333261,
      "d": 138.39239583333256,
      "v": 126
    },
    {
      "midi": 62,
      "hit": false,
      "t": 103142.51333333261,
      "d": 138.39239583333256,
      "v": 126
    },
    {
      "midi": 67,
      "hit": false,
      "t": 103142.51333333261,
      "d": 138.39239583333256,
      "v": 126
    },
    {
      "midi": 35,
      "hit": false,
      "t": 103285.36999999927,
      "d": 428.56999999999243,
      "v": 126
    },
    {
      "midi": 59,
      "hit": false,
      "t": 103571.0833333326,
      "d": 138.39239583333256,
      "v": 126
    },
    {
      "midi": 62,
      "hit": false,
      "t": 103571.0833333326,
      "d": 138.39239583333256,
      "v": 126
    },
    {
      "midi": 67,
      "hit": false,
      "t": 103571.0833333326,
      "d": 138.39239583333256,
      "v": 126
    },
    {
      "midi": 38,
      "hit": false,
      "t": 103713.93999999926,
      "d": 428.56999999999243,
      "v": 126
    },
    {
      "midi": 59,
      "hit": false,
      "t": 103999.6533333326,
      "d": 138.39239583333256,
      "v": 126
    },
    {
      "midi": 62,
      "hit": false,
      "t": 103999.6533333326,
      "d": 138.39239583333256,
      "v": 126
    },
    {
      "midi": 67,
      "hit": false,
      "t": 103999.6533333326,
      "d": 138.39239583333256,
      "v": 126
    },
    {
      "midi": 40,
      "hit": false,
      "t": 104142.50999999925,
      "d": 428.56999999999243,
      "v": 126
    },
    {
      "midi": 59,
      "hit": false,
      "t": 104428.22333333259,
      "d": 138.39239583333256,
      "v": 126
    },
    {
      "midi": 62,
      "hit": false,
      "t": 104428.22333333259,
      "d": 138.39239583333256,
      "v": 126
    },
    {
      "midi": 67,
      "hit": false,
      "t": 104428.22333333259,
      "d": 138.39239583333256,
      "v": 126
    },
    {
      "midi": 43,
      "hit": false,
      "t": 104571.07999999925,
      "d": 428.56999999999243,
      "v": 126
    },
    {
      "midi": 59,
      "hit": false,
      "t": 104856.79333333258,
      "d": 138.39239583333256,
      "v": 126
    },
    {
      "midi": 62,
      "hit": false,
      "t": 104856.79333333258,
      "d": 138.39239583333256,
      "v": 126
    },
    {
      "midi": 67,
      "hit": false,
      "t": 104856.79333333258,
      "d": 138.39239583333256,
      "v": 126
    },
    {
      "midi": 26,
      "hit": false,
      "t": 104999.64999999924,
      "d": 571.4266666666663,
      "v": 126
    },
    {
      "midi": 59,
      "hit": false,
      "t": 105285.36333333257,
      "d": 138.39239583333256,
      "v": 126
    },
    {
      "midi": 62,
      "hit": false,
      "t": 105285.36333333257,
      "d": 138.39239583333256,
      "v": 126
    },
    {
      "midi": 67,
      "hit": false,
      "t": 105285.36333333257,
      "d": 138.39239583333256,
      "v": 126
    },
    {
      "midi": 28,
      "hit": false,
      "t": 105428.21999999923,
      "d": 428.570000000007,
      "v": 126
    },
    {
      "midi": 59,
      "hit": false,
      "t": 105713.93333333258,
      "d": 138.39239583333256,
      "v": 126
    },
    {
      "midi": 62,
      "hit": false,
      "t": 105713.93333333258,
      "d": 138.39239583333256,
      "v": 126
    },
    {
      "midi": 67,
      "hit": false,
      "t": 105713.93333333258,
      "d": 138.39239583333256,
      "v": 126
    },
    {
      "midi": 30,
      "hit": false,
      "t": 105856.78999999924,
      "d": 428.56999999999243,
      "v": 126
    },
    {
      "midi": 59,
      "hit": false,
      "t": 106142.50333333257,
      "d": 138.39239583333256,
      "v": 126
    },
    {
      "midi": 62,
      "hit": false,
      "t": 106142.50333333257,
      "d": 138.39239583333256,
      "v": 126
    },
    {
      "midi": 67,
      "hit": false,
      "t": 106142.50333333257,
      "d": 138.39239583333256,
      "v": 126
    },
    {
      "midi": 31,
      "hit": false,
      "t": 106285.35999999923,
      "d": 428.56999999999243,
      "v": 126
    },
    {
      "midi": 59,
      "hit": false,
      "t": 106571.07333333256,
      "d": 138.39239583333256,
      "v": 126
    },
    {
      "midi": 62,
      "hit": false,
      "t": 106571.07333333256,
      "d": 138.39239583333256,
      "v": 126
    },
    {
      "midi": 67,
      "hit": false,
      "t": 106571.07333333256,
      "d": 138.39239583333256,
      "v": 126
    },
    {
      "midi": 35,
      "hit": false,
      "t": 106713.92999999922,
      "d": 428.56999999999243,
      "v": 126
    },
    {
      "midi": 59,
      "hit": false,
      "t": 106999.64333333255,
      "d": 138.39239583333256,
      "v": 126
    },
    {
      "midi": 62,
      "hit": false,
      "t": 106999.64333333255,
      "d": 138.39239583333256,
      "v": 126
    },
    {
      "midi": 67,
      "hit": false,
      "t": 106999.64333333255,
      "d": 138.39239583333256,
      "v": 126
    },
    {
      "midi": 38,
      "hit": false,
      "t": 107142.49999999921,
      "d": 428.56999999999243,
      "v": 126
    },
    {
      "midi": 59,
      "hit": false,
      "t": 107428.21333333255,
      "d": 138.39239583333256,
      "v": 126
    },
    {
      "midi": 62,
      "hit": false,
      "t": 107428.21333333255,
      "d": 138.39239583333256,
      "v": 126
    },
    {
      "midi": 67,
      "hit": false,
      "t": 107428.21333333255,
      "d": 138.39239583333256,
      "v": 126
    },
    {
      "midi": 35,
      "hit": false,
      "t": 107571.0699999992,
      "d": 428.56999999999243,
      "v": 126
    },
    {
      "midi": 59,
      "hit": false,
      "t": 107856.78333333254,
      "d": 138.39239583333256,
      "v": 126
    },
    {
      "midi": 62,
      "hit": false,
      "t": 107856.78333333254,
      "d": 138.39239583333256,
      "v": 126
    },
    {
      "midi": 67,
      "hit": false,
      "t": 107856.78333333254,
      "d": 138.39239583333256,
      "v": 126
    },
    {
      "midi": 31,
      "hit": false,
      "t": 107999.6399999992,
      "d": 428.56999999999243,
      "v": 126
    },
    {
      "midi": 59,
      "hit": false,
      "t": 108285.35333333253,
      "d": 138.39239583333256,
      "v": 126
    },
    {
      "midi": 62,
      "hit": false,
      "t": 108285.35333333253,
      "d": 138.39239583333256,
      "v": 126
    },
    {
      "midi": 67,
      "hit": false,
      "t": 108285.35333333253,
      "d": 138.39239583333256,
      "v": 126
    },
    {
      "midi": 35,
      "hit": false,
      "t": 108428.20999999919,
      "d": 428.56999999999243,
      "v": 126
    },
    {
      "midi": 59,
      "hit": false,
      "t": 108713.92333333252,
      "d": 138.39239583333256,
      "v": 126
    },
    {
      "midi": 62,
      "hit": false,
      "t": 108713.92333333252,
      "d": 138.39239583333256,
      "v": 126
    },
    {
      "midi": 67,
      "hit": false,
      "t": 108713.92333333252,
      "d": 138.39239583333256,
      "v": 126
    },
    {
      "midi": 36,
      "hit": false,
      "t": 108856.77999999918,
      "d": 428.56999999999243,
      "v": 126
    },
    {
      "midi": 59,
      "hit": false,
      "t": 109142.49333333252,
      "d": 138.39239583333256,
      "v": 126
    },
    {
      "midi": 62,
      "hit": false,
      "t": 109142.49333333252,
      "d": 138.39239583333256,
      "v": 126
    },
    {
      "midi": 67,
      "hit": false,
      "t": 109142.49333333252,
      "d": 138.39239583333256,
      "v": 126
    },
    {
      "midi": 37,
      "hit": false,
      "t": 109285.34999999918,
      "d": 428.56999999999243,
      "v": 126
    },
    {
      "midi": 59,
      "hit": false,
      "t": 109571.06333333251,
      "d": 138.39239583333256,
      "v": 126
    },
    {
      "midi": 62,
      "hit": false,
      "t": 109571.06333333251,
      "d": 138.39239583333256,
      "v": 126
    },
    {
      "midi": 67,
      "hit": false,
      "t": 109571.06333333251,
      "d": 138.39239583333256,
      "v": 126
    },
    {
      "midi": 38,
      "hit": false,
      "t": 109713.91999999917,
      "d": 428.56999999999243,
      "v": 126
    },
    {
      "midi": 57,
      "hit": false,
      "t": 109999.6333333325,
      "d": 138.39239583333256,
      "v": 126
    },
    {
      "midi": 62,
      "hit": false,
      "t": 109999.6333333325,
      "d": 138.39239583333256,
      "v": 126
    },
    {
      "midi": 66,
      "hit": false,
      "t": 109999.6333333325,
      "d": 138.39239583333256,
      "v": 126
    },
    {
      "midi": 42,
      "hit": false,
      "t": 110142.48999999916,
      "d": 428.56999999999243,
      "v": 126
    },
    {
      "midi": 57,
      "hit": false,
      "t": 110428.2033333325,
      "d": 138.39239583333256,
      "v": 126
    },
    {
      "midi": 62,
      "hit": false,
      "t": 110428.2033333325,
      "d": 138.39239583333256,
      "v": 126
    },
    {
      "midi": 66,
      "hit": false,
      "t": 110428.2033333325,
      "d": 138.39239583333256,
      "v": 126
    },
    {
      "midi": 45,
      "hit": false,
      "t": 110571.05999999915,
      "d": 428.56999999999243,
      "v": 126
    },
    {
      "midi": 57,
      "hit": false,
      "t": 110856.77333333249,
      "d": 138.39239583333256,
      "v": 126
    },
    {
      "midi": 62,
      "hit": false,
      "t": 110856.77333333249,
      "d": 138.39239583333256,
      "v": 126
    },
    {
      "midi": 66,
      "hit": false,
      "t": 110856.77333333249,
      "d": 138.39239583333256,
      "v": 126
    },
    {
      "midi": 42,
      "hit": false,
      "t": 110999.62999999915,
      "d": 428.56999999999243,
      "v": 126
    },
    {
      "midi": 57,
      "hit": false,
      "t": 111285.34333333248,
      "d": 138.39239583333256,
      "v": 126
    },
    {
      "midi": 62,
      "hit": false,
      "t": 111285.34333333248,
      "d": 138.39239583333256,
      "v": 126
    },
    {
      "midi": 66,
      "hit": false,
      "t": 111285.34333333248,
      "d": 138.39239583333256,
      "v": 126
    },
    {
      "midi": 38,
      "hit": false,
      "t": 111428.19999999914,
      "d": 428.56999999999243,
      "v": 126
    },
    {
      "midi": 57,
      "hit": false,
      "t": 111713.91333333247,
      "d": 138.39239583333256,
      "v": 126
    },
    {
      "midi": 62,
      "hit": false,
      "t": 111713.91333333247,
      "d": 138.39239583333256,
      "v": 126
    },
    {
      "midi": 66,
      "hit": false,
      "t": 111713.91333333247,
      "d": 138.39239583333256,
      "v": 126
    },
    {
      "midi": 42,
      "hit": false,
      "t": 111856.76999999913,
      "d": 428.56999999999243,
      "v": 126
    },
    {
      "midi": 57,
      "hit": false,
      "t": 112142.48333333246,
      "d": 138.39239583333256,
      "v": 126
    },
    {
      "midi": 62,
      "hit": false,
      "t": 112142.48333333246,
      "d": 138.39239583333256,
      "v": 126
    },
    {
      "midi": 66,
      "hit": false,
      "t": 112142.48333333246,
      "d": 138.39239583333256,
      "v": 126
    },
    {
      "midi": 45,
      "hit": false,
      "t": 112285.33999999912,
      "d": 428.56999999999243,
      "v": 126
    },
    {
      "midi": 57,
      "hit": false,
      "t": 112571.05333333246,
      "d": 138.39239583333256,
      "v": 126
    },
    {
      "midi": 62,
      "hit": false,
      "t": 112571.05333333246,
      "d": 138.39239583333256,
      "v": 126
    },
    {
      "midi": 66,
      "hit": false,
      "t": 112571.05333333246,
      "d": 138.39239583333256,
      "v": 126
    },
    {
      "midi": 42,
      "hit": false,
      "t": 112713.90999999912,
      "d": 428.56999999999243,
      "v": 126
    },
    {
      "midi": 57,
      "hit": false,
      "t": 112999.62333333245,
      "d": 138.39239583333256,
      "v": 126
    },
    {
      "midi": 62,
      "hit": false,
      "t": 112999.62333333245,
      "d": 138.39239583333256,
      "v": 126
    },
    {
      "midi": 66,
      "hit": false,
      "t": 112999.62333333245,
      "d": 138.39239583333256,
      "v": 126
    },
    {
      "midi": 38,
      "hit": false,
      "t": 113142.47999999911,
      "d": 428.56999999999243,
      "v": 126
    },
    {
      "midi": 57,
      "hit": false,
      "t": 113428.19333333244,
      "d": 138.39239583333256,
      "v": 126
    },
    {
      "midi": 62,
      "hit": false,
      "t": 113428.19333333244,
      "d": 138.39239583333256,
      "v": 126
    },
    {
      "midi": 66,
      "hit": false,
      "t": 113428.19333333244,
      "d": 138.39239583333256,
      "v": 126
    },
    {
      "midi": 42,
      "hit": false,
      "t": 113571.0499999991,
      "d": 428.56999999999243,
      "v": 126
    },
    {
      "midi": 57,
      "hit": false,
      "t": 113856.76333333243,
      "d": 138.39239583333256,
      "v": 126
    },
    {
      "midi": 62,
      "hit": false,
      "t": 113856.76333333243,
      "d": 138.39239583333256,
      "v": 126
    },
    {
      "midi": 66,
      "hit": false,
      "t": 113856.76333333243,
      "d": 138.39239583333256,
      "v": 126
    },
    {
      "midi": 45,
      "hit": false,
      "t": 113999.6199999991,
      "d": 428.56999999999243,
      "v": 126
    },
    {
      "midi": 57,
      "hit": false,
      "t": 114285.33333333243,
      "d": 138.39239583333256,
      "v": 126
    },
    {
      "midi": 62,
      "hit": false,
      "t": 114285.33333333243,
      "d": 138.39239583333256,
      "v": 126
    },
    {
      "midi": 66,
      "hit": false,
      "t": 114285.33333333243,
      "d": 138.39239583333256,
      "v": 126
    },
    {
      "midi": 47,
      "hit": false,
      "t": 114428.18999999909,
      "d": 428.56999999999243,
      "v": 126
    },
    {
      "midi": 57,
      "hit": false,
      "t": 114713.90333333242,
      "d": 138.39239583333256,
      "v": 126
    },
    {
      "midi": 62,
      "hit": false,
      "t": 114713.90333333242,
      "d": 138.39239583333256,
      "v": 126
    },
    {
      "midi": 66,
      "hit": false,
      "t": 114713.90333333242,
      "d": 138.39239583333256,
      "v": 126
    },
    {
      "midi": 50,
      "hit": false,
      "t": 114856.75999999908,
      "d": 160.71374999999534,
      "v": 126
    },
    {
      "midi": 50,
      "hit": false,
      "t": 115142.47333333241,
      "d": 138.39239583333256,
      "v": 126
    },
    {
      "midi": 57,
      "hit": false,
      "t": 115142.47333333241,
      "d": 138.39239583333256,
      "v": 126
    },
    {
      "midi": 62,
      "hit": false,
      "t": 115142.47333333241,
      "d": 138.39239583333256,
      "v": 126
    },
    {
      "midi": 66,
      "hit": false,
      "t": 115142.47333333241,
      "d": 138.39239583333256,
      "v": 126
    },
    {
      "midi": 48,
      "hit": false,
      "t": 115285.32999999907,
      "d": 428.56999999999243,
      "v": 126
    },
    {
      "midi": 57,
      "hit": false,
      "t": 115571.0433333324,
      "d": 138.39239583333256,
      "v": 126
    },
    {
      "midi": 62,
      "hit": false,
      "t": 115571.0433333324,
      "d": 138.39239583333256,
      "v": 126
    },
    {
      "midi": 66,
      "hit": false,
      "t": 115571.0433333324,
      "d": 138.39239583333256,
      "v": 126
    },
    {
      "midi": 47,
      "hit": false,
      "t": 115713.89999999906,
      "d": 428.56999999999243,
      "v": 126
    },
    {
      "midi": 57,
      "hit": false,
      "t": 115999.6133333324,
      "d": 138.39239583333256,
      "v": 126
    },
    {
      "midi": 62,
      "hit": false,
      "t": 115999.6133333324,
      "d": 138.39239583333256,
      "v": 126
    },
    {
      "midi": 66,
      "hit": false,
      "t": 115999.6133333324,
      "d": 138.39239583333256,
      "v": 126
    },
    {
      "midi": 45,
      "hit": false,
      "t": 116142.46999999906,
      "d": 428.56999999999243,
      "v": 126
    },
    {
      "midi": 57,
      "hit": false,
      "t": 116428.18333333239,
      "d": 138.39239583333256,
      "v": 126
    },
    {
      "midi": 62,
      "hit": false,
      "t": 116428.18333333239,
      "d": 138.39239583333256,
      "v": 126
    },
    {
      "midi": 66,
      "hit": false,
      "t": 116428.18333333239,
      "d": 138.39239583333256,
      "v": 126
    },
    {
      "midi": 43,
      "hit": false,
      "t": 116571.03999999905,
      "d": 428.56999999999243,
      "v": 126
    },
    {
      "midi": 59,
      "hit": false,
      "t": 116856.75333333238,
      "d": 138.39239583333256,
      "v": 126
    },
    {
      "midi": 62,
      "hit": false,
      "t": 116856.75333333238,
      "d": 138.39239583333256,
      "v": 126
    },
    {
      "midi": 67,
      "hit": false,
      "t": 116856.75333333238,
      "d": 138.39239583333256,
      "v": 126
    },
    {
      "midi": 40,
      "hit": false,
      "t": 116999.60999999904,
      "d": 428.56999999999243,
      "v": 126
    },
    {
      "midi": 59,
      "hit": false,
      "t": 117285.32333333237,
      "d": 138.39239583333256,
      "v": 126
    },
    {
      "midi": 62,
      "hit": false,
      "t": 117285.32333333237,
      "d": 138.39239583333256,
      "v": 126
    },
    {
      "midi": 67,
      "hit": false,
      "t": 117285.32333333237,
      "d": 138.39239583333256,
      "v": 126
    },
    {
      "midi": 38,
      "hit": false,
      "t": 117428.17999999903,
      "d": 428.56999999999243,
      "v": 126
    },
    {
      "midi": 59,
      "hit": false,
      "t": 117713.89333333237,
      "d": 138.39239583333256,
      "v": 126
    },
    {
      "midi": 62,
      "hit": false,
      "t": 117713.89333333237,
      "d": 138.39239583333256,
      "v": 126
    },
    {
      "midi": 67,
      "hit": false,
      "t": 117713.89333333237,
      "d": 138.39239583333256,
      "v": 126
    },
    {
      "midi": 35,
      "hit": false,
      "t": 117856.74999999903,
      "d": 428.56999999999243,
      "v": 126
    },
    {
      "midi": 59,
      "hit": false,
      "t": 118142.46333333236,
      "d": 138.39239583333256,
      "v": 126
    },
    {
      "midi": 62,
      "hit": false,
      "t": 118142.46333333236,
      "d": 138.39239583333256,
      "v": 126
    },
    {
      "midi": 67,
      "hit": false,
      "t": 118142.46333333236,
      "d": 138.39239583333256,
      "v": 126
    },
    {
      "midi": 31,
      "hit": false,
      "t": 118285.31999999902,
      "d": 428.56999999999243,
      "v": 126
    },
    {
      "midi": 59,
      "hit": false,
      "t": 118571.03333333235,
      "d": 138.39239583333256,
      "v": 126
    },
    {
      "midi": 62,
      "hit": false,
      "t": 118571.03333333235,
      "d": 138.39239583333256,
      "v": 126
    },
    {
      "midi": 67,
      "hit": false,
      "t": 118571.03333333235,
      "d": 138.39239583333256,
      "v": 126
    },
    {
      "midi": 26,
      "hit": false,
      "t": 118713.88999999901,
      "d": 428.56999999999243,
      "v": 126
    },
    {
      "midi": 59,
      "hit": false,
      "t": 118999.60333333234,
      "d": 138.39239583333256,
      "v": 126
    },
    {
      "midi": 62,
      "hit": false,
      "t": 118999.60333333234,
      "d": 138.39239583333256,
      "v": 126
    },
    {
      "midi": 67,
      "hit": false,
      "t": 118999.60333333234,
      "d": 138.39239583333256,
      "v": 126
    },
    {
      "midi": 28,
      "hit": false,
      "t": 119142.459999999,
      "d": 428.56999999999243,
      "v": 126
    },
    {
      "midi": 59,
      "hit": false,
      "t": 119428.17333333234,
      "d": 138.39239583333256,
      "v": 126
    },
    {
      "midi": 62,
      "hit": false,
      "t": 119428.17333333234,
      "d": 138.39239583333256,
      "v": 126
    },
    {
      "midi": 67,
      "hit": false,
      "t": 119428.17333333234,
      "d": 138.39239583333256,
      "v": 126
    },
    {
      "midi": 30,
      "hit": false,
      "t": 119571.029999999,
      "d": 428.56999999999243,
      "v": 126
    },
    {
      "midi": 59,
      "hit": false,
      "t": 119856.74333333233,
      "d": 138.39239583333256,
      "v": 126
    },
    {
      "midi": 62,
      "hit": false,
      "t": 119856.74333333233,
      "d": 138.39239583333256,
      "v": 126
    },
    {
      "midi": 67,
      "hit": false,
      "t": 119856.74333333233,
      "d": 138.39239583333256,
      "v": 126
    },
    {
      "midi": 31,
      "hit": false,
      "t": 119999.59999999899,
      "d": 428.56999999999243,
      "v": 126
    },
    {
      "midi": 59,
      "hit": false,
      "t": 120285.31333333232,
      "d": 138.39239583333256,
      "v": 126
    },
    {
      "midi": 62,
      "hit": false,
      "t": 120285.31333333232,
      "d": 138.39239583333256,
      "v": 126
    },
    {
      "midi": 67,
      "hit": false,
      "t": 120285.31333333232,
      "d": 138.39239583333256,
      "v": 126
    },
    {
      "midi": 35,
      "hit": false,
      "t": 120428.16999999898,
      "d": 428.56999999999243,
      "v": 126
    },
    {
      "midi": 59,
      "hit": false,
      "t": 120713.88333333231,
      "d": 138.39239583333256,
      "v": 126
    },
    {
      "midi": 62,
      "hit": false,
      "t": 120713.88333333231,
      "d": 138.39239583333256,
      "v": 126
    },
    {
      "midi": 67,
      "hit": false,
      "t": 120713.88333333231,
      "d": 138.39239583333256,
      "v": 126
    },
    {
      "midi": 38,
      "hit": false,
      "t": 120856.73999999897,
      "d": 428.56999999999243,
      "v": 126
    },
    {
      "midi": 59,
      "hit": false,
      "t": 121142.4533333323,
      "d": 138.39239583333256,
      "v": 126
    },
    {
      "midi": 62,
      "hit": false,
      "t": 121142.4533333323,
      "d": 138.39239583333256,
      "v": 126
    },
    {
      "midi": 67,
      "hit": false,
      "t": 121142.4533333323,
      "d": 138.39239583333256,
      "v": 126
    },
    {
      "midi": 35,
      "hit": false,
      "t": 121285.30999999896,
      "d": 428.56999999999243,
      "v": 126
    },
    {
      "midi": 59,
      "hit": false,
      "t": 121571.0233333323,
      "d": 138.39239583333256,
      "v": 126
    },
    {
      "midi": 62,
      "hit": false,
      "t": 121571.0233333323,
      "d": 138.39239583333256,
      "v": 126
    },
    {
      "midi": 67,
      "hit": false,
      "t": 121571.0233333323,
      "d": 138.39239583333256,
      "v": 126
    },
    {
      "midi": 31,
      "hit": false,
      "t": 121713.87999999896,
      "d": 428.56999999999243,
      "v": 126
    },
    {
      "midi": 59,
      "hit": false,
      "t": 121999.59333333229,
      "d": 138.39239583333256,
      "v": 126
    },
    {
      "midi": 62,
      "hit": false,
      "t": 121999.59333333229,
      "d": 138.39239583333256,
      "v": 126
    },
    {
      "midi": 67,
      "hit": false,
      "t": 121999.59333333229,
      "d": 138.39239583333256,
      "v": 126
    },
    {
      "midi": 31,
      "hit": false,
      "t": 122142.44999999895,
      "d": 428.56999999999243,
      "v": 126
    },
    {
      "midi": 59,
      "hit": false,
      "t": 122428.16333333228,
      "d": 138.39239583333256,
      "v": 126
    },
    {
      "midi": 62,
      "hit": false,
      "t": 122428.16333333228,
      "d": 138.39239583333256,
      "v": 126
    },
    {
      "midi": 67,
      "hit": false,
      "t": 122428.16333333228,
      "d": 138.39239583333256,
      "v": 126
    },
    {
      "midi": 33,
      "hit": false,
      "t": 122571.01999999894,
      "d": 428.56999999999243,
      "v": 126
    },
    {
      "midi": 59,
      "hit": false,
      "t": 122856.73333333227,
      "d": 138.39239583333256,
      "v": 126
    },
    {
      "midi": 62,
      "hit": false,
      "t": 122856.73333333227,
      "d": 138.39239583333256,
      "v": 126
    },
    {
      "midi": 67,
      "hit": false,
      "t": 122856.73333333227,
      "d": 138.39239583333256,
      "v": 126
    },
    {
      "midi": 35,
      "hit": false,
      "t": 122999.58999999893,
      "d": 428.56999999999243,
      "v": 126
    },
    {
      "midi": 59,
      "hit": false,
      "t": 123285.30333333227,
      "d": 138.39239583333256,
      "v": 126
    },
    {
      "midi": 62,
      "hit": false,
      "t": 123285.30333333227,
      "d": 138.39239583333256,
      "v": 126
    },
    {
      "midi": 67,
      "hit": false,
      "t": 123285.30333333227,
      "d": 138.39239583333256,
      "v": 126
    },
    {
      "midi": 36,
      "hit": false,
      "t": 123428.15999999893,
      "d": 428.56999999999243,
      "v": 126
    },
    {
      "midi": 60,
      "hit": false,
      "t": 123713.87333333226,
      "d": 138.39239583333256,
      "v": 126
    },
    {
      "midi": 64,
      "hit": false,
      "t": 123713.87333333226,
      "d": 138.39239583333256,
      "v": 126
    },
    {
      "midi": 67,
      "hit": false,
      "t": 123713.87333333226,
      "d": 138.39239583333256,
      "v": 126
    },
    {
      "midi": 40,
      "hit": false,
      "t": 123856.72999999892,
      "d": 428.56999999999243,
      "v": 126
    },
    {
      "midi": 60,
      "hit": false,
      "t": 124142.44333333225,
      "d": 138.39239583333256,
      "v": 126
    },
    {
      "midi": 64,
      "hit": false,
      "t": 124142.44333333225,
      "d": 138.39239583333256,
      "v": 126
    },
    {
      "midi": 67,
      "hit": false,
      "t": 124142.44333333225,
      "d": 138.39239583333256,
      "v": 126
    },
    {
      "midi": 67,
      "hit": false,
      "t": 124142.4433333333,
      "d": 138.39239583333256,
      "v": 125
    },
    {
      "midi": 43,
      "hit": false,
      "t": 124285.29999999891,
      "d": 428.56999999999243,
      "v": 126
    },
    {
      "midi": 72,
      "hit": false,
      "t": 124285.29999999996,
      "d": 285.71333333333314,
      "v": 125
    },
    {
      "midi": 79,
      "hit": false,
      "t": 124285.29999999996,
      "d": 571.4266666666517,
      "v": 125
    },
    {
      "midi": 60,
      "hit": false,
      "t": 124571.01333333224,
      "d": 138.39239583333256,
      "v": 126
    },
    {
      "midi": 64,
      "hit": false,
      "t": 124571.01333333224,
      "d": 138.39239583333256,
      "v": 126
    },
    {
      "midi": 67,
      "hit": false,
      "t": 124571.01333333224,
      "d": 138.39239583333256,
      "v": 126
    },
    {
      "midi": 67,
      "hit": false,
      "t": 124571.01333333329,
      "d": 138.39239583333256,
      "v": 125
    },
    {
      "midi": 40,
      "hit": false,
      "t": 124713.8699999989,
      "d": 428.56999999999243,
      "v": 126
    },
    {
      "midi": 74,
      "hit": false,
      "t": 124713.86999999995,
      "d": 138.39239583333256,
      "v": 125
    },
    {
      "midi": 60,
      "hit": false,
      "t": 124999.58333333224,
      "d": 138.39239583333256,
      "v": 126
    },
    {
      "midi": 64,
      "hit": false,
      "t": 124999.58333333224,
      "d": 138.39239583333256,
      "v": 126
    },
    {
      "midi": 67,
      "hit": false,
      "t": 124999.58333333224,
      "d": 138.39239583333256,
      "v": 126
    },
    {
      "midi": 79,
      "hit": false,
      "t": 124999.58333333328,
      "d": 428.56999999999243,
      "v": 125
    },
    {
      "midi": 36,
      "hit": false,
      "t": 125142.4399999989,
      "d": 428.56999999999243,
      "v": 126
    },
    {
      "midi": 74,
      "hit": false,
      "t": 125142.43999999996,
      "d": 138.39239583333256,
      "v": 125
    },
    {
      "midi": 76,
      "hit": false,
      "t": 125285.29666666662,
      "d": 138.39239583333256,
      "v": 125
    },
    {
      "midi": 60,
      "hit": false,
      "t": 125428.15333333223,
      "d": 138.39239583333256,
      "v": 126
    },
    {
      "midi": 64,
      "hit": false,
      "t": 125428.15333333223,
      "d": 138.39239583333256,
      "v": 126
    },
    {
      "midi": 67,
      "hit": false,
      "t": 125428.15333333223,
      "d": 138.39239583333256,
      "v": 126
    },
    {
      "midi": 67,
      "hit": false,
      "t": 125428.15333333328,
      "d": 138.39239583333256,
      "v": 125
    },
    {
      "midi": 35,
      "hit": false,
      "t": 125571.00999999889,
      "d": 428.56999999999243,
      "v": 126
    },
    {
      "midi": 79,
      "hit": false,
      "t": 125571.00999999994,
      "d": 138.39239583333256,
      "v": 125
    },
    {
      "midi": 84,
      "hit": false,
      "t": 125571.00999999994,
      "d": 428.56999999999243,
      "v": 125
    },
    {
      "midi": 81,
      "hit": false,
      "t": 125713.8666666666,
      "d": 285.71333333333314,
      "v": 125
    },
    {
      "midi": 60,
      "hit": false,
      "t": 125856.72333333222,
      "d": 138.39239583333256,
      "v": 126
    },
    {
      "midi": 64,
      "hit": false,
      "t": 125856.72333333222,
      "d": 138.39239583333256,
      "v": 126
    },
    {
      "midi": 67,
      "hit": false,
      "t": 125856.72333333222,
      "d": 138.39239583333256,
      "v": 126
    },
    {
      "midi": 36,
      "hit": false,
      "t": 125999.57999999888,
      "d": 428.56999999999243,
      "v": 126
    },
    {
      "midi": 79,
      "hit": false,
      "t": 125999.57999999993,
      "d": 285.71333333333314,
      "v": 125
    },
    {
      "midi": 84,
      "hit": false,
      "t": 125999.57999999993,
      "d": 285.71333333333314,
      "v": 125
    },
    {
      "midi": 60,
      "hit": false,
      "t": 126285.29333333221,
      "d": 138.39239583333256,
      "v": 126
    },
    {
      "midi": 64,
      "hit": false,
      "t": 126285.29333333221,
      "d": 138.39239583333256,
      "v": 126
    },
    {
      "midi": 67,
      "hit": false,
      "t": 126285.29333333221,
      "d": 138.39239583333256,
      "v": 126
    },
    {
      "midi": 67,
      "hit": false,
      "t": 126285.29333333326,
      "d": 138.39239583333256,
      "v": 125
    },
    {
      "midi": 37,
      "hit": false,
      "t": 126428.14999999887,
      "d": 428.56999999999243,
      "v": 126
    },
    {
      "midi": 74,
      "hit": false,
      "t": 126428.14999999992,
      "d": 285.71333333333314,
      "v": 125
    },
    {
      "midi": 79,
      "hit": false,
      "t": 126428.14999999992,
      "d": 285.71333333333314,
      "v": 125
    },
    {
      "midi": 76,
      "hit": false,
      "t": 126571.0066666666,
      "d": 138.39239583333256,
      "v": 125
    },
    {
      "midi": 60,
      "hit": false,
      "t": 126713.8633333322,
      "d": 138.39239583333256,
      "v": 126
    },
    {
      "midi": 64,
      "hit": false,
      "t": 126713.8633333322,
      "d": 138.39239583333256,
      "v": 126
    },
    {
      "midi": 67,
      "hit": false,
      "t": 126713.8633333322,
      "d": 138.39239583333256,
      "v": 126
    },
    {
      "midi": 38,
      "hit": false,
      "t": 126856.71999999887,
      "d": 428.56999999999243,
      "v": 126
    },
    {
      "midi": 74,
      "hit": false,
      "t": 126856.71999999991,
      "d": 2999.9900000000052,
      "v": 125
    },
    {
      "midi": 78,
      "hit": false,
      "t": 126856.71999999991,
      "d": 2999.9900000000052,
      "v": 125
    },
    {
      "midi": 81,
      "hit": false,
      "t": 126856.71999999991,
      "d": 3142.846666666679,
      "v": 125
    },
    {
      "midi": 57,
      "hit": false,
      "t": 127142.4333333322,
      "d": 138.39239583333256,
      "v": 126
    },
    {
      "midi": 62,
      "hit": false,
      "t": 127142.4333333322,
      "d": 138.39239583333256,
      "v": 126
    },
    {
      "midi": 66,
      "hit": false,
      "t": 127142.4333333322,
      "d": 138.39239583333256,
      "v": 126
    },
    {
      "midi": 42,
      "hit": false,
      "t": 127285.28999999886,
      "d": 428.56999999999243,
      "v": 126
    },
    {
      "midi": 57,
      "hit": false,
      "t": 127571.00333333219,
      "d": 138.39239583333256,
      "v": 126
    },
    {
      "midi": 62,
      "hit": false,
      "t": 127571.00333333219,
      "d": 138.39239583333256,
      "v": 126
    },
    {
      "midi": 66,
      "hit": false,
      "t": 127571.00333333219,
      "d": 138.39239583333256,
      "v": 126
    },
    {
      "midi": 45,
      "hit": false,
      "t": 127713.85999999885,
      "d": 428.56999999999243,
      "v": 126
    },
    {
      "midi": 57,
      "hit": false,
      "t": 127999.57333333218,
      "d": 138.39239583333256,
      "v": 126
    },
    {
      "midi": 62,
      "hit": false,
      "t": 127999.57333333218,
      "d": 138.39239583333256,
      "v": 126
    },
    {
      "midi": 66,
      "hit": false,
      "t": 127999.57333333218,
      "d": 138.39239583333256,
      "v": 126
    },
    {
      "midi": 42,
      "hit": false,
      "t": 128142.42999999884,
      "d": 428.56999999999243,
      "v": 126
    },
    {
      "midi": 57,
      "hit": false,
      "t": 128428.14333333218,
      "d": 138.39239583333256,
      "v": 126
    },
    {
      "midi": 62,
      "hit": false,
      "t": 128428.14333333218,
      "d": 138.39239583333256,
      "v": 126
    },
    {
      "midi": 66,
      "hit": false,
      "t": 128428.14333333218,
      "d": 138.39239583333256,
      "v": 126
    },
    {
      "midi": 38,
      "hit": false,
      "t": 128570.99999999884,
      "d": 428.56999999999243,
      "v": 126
    },
    {
      "midi": 57,
      "hit": false,
      "t": 128856.71333333217,
      "d": 138.39239583333256,
      "v": 126
    },
    {
      "midi": 62,
      "hit": false,
      "t": 128856.71333333217,
      "d": 138.39239583333256,
      "v": 126
    },
    {
      "midi": 66,
      "hit": false,
      "t": 128856.71333333217,
      "d": 138.39239583333256,
      "v": 126
    },
    {
      "midi": 42,
      "hit": false,
      "t": 128999.56999999883,
      "d": 428.56999999999243,
      "v": 126
    },
    {
      "midi": 57,
      "hit": false,
      "t": 129285.28333333216,
      "d": 138.39239583333256,
      "v": 126
    },
    {
      "midi": 62,
      "hit": false,
      "t": 129285.28333333216,
      "d": 138.39239583333256,
      "v": 126
    },
    {
      "midi": 66,
      "hit": false,
      "t": 129285.28333333216,
      "d": 138.39239583333256,
      "v": 126
    },
    {
      "midi": 45,
      "hit": false,
      "t": 129428.13999999882,
      "d": 428.56999999999243,
      "v": 126
    },
    {
      "midi": 57,
      "hit": false,
      "t": 129713.85333333215,
      "d": 138.39239583333256,
      "v": 126
    },
    {
      "midi": 62,
      "hit": false,
      "t": 129713.85333333215,
      "d": 138.39239583333256,
      "v": 126
    },
    {
      "midi": 66,
      "hit": false,
      "t": 129713.85333333215,
      "d": 138.39239583333256,
      "v": 126
    },
    {
      "midi": 42,
      "hit": false,
      "t": 129856.70999999881,
      "d": 428.56999999999243,
      "v": 126
    },
    {
      "midi": 57,
      "hit": false,
      "t": 130142.42333333215,
      "d": 138.39239583333256,
      "v": 126
    },
    {
      "midi": 62,
      "hit": false,
      "t": 130142.42333333215,
      "d": 138.39239583333256,
      "v": 126
    },
    {
      "midi": 66,
      "hit": false,
      "t": 130142.42333333215,
      "d": 138.39239583333256,
      "v": 126
    },
    {
      "midi": 38,
      "hit": false,
      "t": 130285.2799999988,
      "d": 428.56999999999243,
      "v": 126
    },
    {
      "midi": 57,
      "hit": false,
      "t": 130570.99333333214,
      "d": 138.39239583333256,
      "v": 126
    },
    {
      "midi": 62,
      "hit": false,
      "t": 130570.99333333214,
      "d": 138.39239583333256,
      "v": 126
    },
    {
      "midi": 66,
      "hit": false,
      "t": 130570.99333333214,
      "d": 138.39239583333256,
      "v": 126
    },
    {
      "midi": 36,
      "hit": false,
      "t": 130713.8499999988,
      "d": 428.56999999999243,
      "v": 126
    },
    {
      "midi": 57,
      "hit": false,
      "t": 130999.56333333213,
      "d": 138.39239583333256,
      "v": 126
    },
    {
      "midi": 62,
      "hit": false,
      "t": 130999.56333333213,
      "d": 138.39239583333256,
      "v": 126
    },
    {
      "midi": 66,
      "hit": false,
      "t": 130999.56333333213,
      "d": 138.39239583333256,
      "v": 126
    },
    {
      "midi": 35,
      "hit": false,
      "t": 131142.4199999988,
      "d": 428.570000000007,
      "v": 126
    },
    {
      "midi": 57,
      "hit": false,
      "t": 131428.13333333214,
      "d": 138.39239583333256,
      "v": 126
    },
    {
      "midi": 62,
      "hit": false,
      "t": 131428.13333333214,
      "d": 138.39239583333256,
      "v": 126
    },
    {
      "midi": 66,
      "hit": false,
      "t": 131428.13333333214,
      "d": 138.39239583333256,
      "v": 126
    },
    {
      "midi": 33,
      "hit": false,
      "t": 131570.9899999988,
      "d": 428.570000000007,
      "v": 126
    },
    {
      "midi": 57,
      "hit": false,
      "t": 131856.70333333215,
      "d": 138.39239583333256,
      "v": 126
    },
    {
      "midi": 62,
      "hit": false,
      "t": 131856.70333333215,
      "d": 138.39239583333256,
      "v": 126
    },
    {
      "midi": 66,
      "hit": false,
      "t": 131856.70333333215,
      "d": 138.39239583333256,
      "v": 126
    },
    {
      "midi": 31,
      "hit": false,
      "t": 131999.5599999988,
      "d": 428.570000000007,
      "v": 126
    },
    {
      "midi": 59,
      "hit": false,
      "t": 132285.27333333215,
      "d": 138.39239583333256,
      "v": 126
    },
    {
      "midi": 62,
      "hit": false,
      "t": 132285.27333333215,
      "d": 138.39239583333256,
      "v": 126
    },
    {
      "midi": 67,
      "hit": false,
      "t": 132285.27333333215,
      "d": 138.39239583333256,
      "v": 126
    },
    {
      "midi": 79,
      "hit": false,
      "t": 132285.27333333326,
      "d": 428.5699999999779,
      "v": 125
    },
    {
      "midi": 38,
      "hit": false,
      "t": 132428.1299999988,
      "d": 428.570000000007,
      "v": 126
    },
    {
      "midi": 76,
      "hit": false,
      "t": 132428.12999999992,
      "d": 138.39239583333256,
      "v": 125
    },
    {
      "midi": 74,
      "hit": false,
      "t": 132570.98666666658,
      "d": 138.39239583333256,
      "v": 125
    },
    {
      "midi": 59,
      "hit": false,
      "t": 132713.84333333216,
      "d": 138.39239583333256,
      "v": 126
    },
    {
      "midi": 62,
      "hit": false,
      "t": 132713.84333333216,
      "d": 138.39239583333256,
      "v": 126
    },
    {
      "midi": 67,
      "hit": false,
      "t": 132713.84333333216,
      "d": 138.39239583333256,
      "v": 126
    },
    {
      "midi": 67,
      "hit": false,
      "t": 132713.84333333324,
      "d": 138.39239583333256,
      "v": 125
    },
    {
      "midi": 40,
      "hit": false,
      "t": 132856.69999999882,
      "d": 428.570000000007,
      "v": 126
    },
    {
      "midi": 69,
      "hit": false,
      "t": 132856.6999999999,
      "d": 138.39239583333256,
      "v": 125
    },
    {
      "midi": 74,
      "hit": false,
      "t": 132856.6999999999,
      "d": 428.5699999999779,
      "v": 125
    },
    {
      "midi": 71,
      "hit": false,
      "t": 132999.55666666655,
      "d": 138.39239583333256,
      "v": 125
    },
    {
      "midi": 59,
      "hit": false,
      "t": 133142.41333333217,
      "d": 138.39239583333256,
      "v": 126
    },
    {
      "midi": 62,
      "hit": false,
      "t": 133142.41333333217,
      "d": 138.39239583333256,
      "v": 126
    },
    {
      "midi": 67,
      "hit": false,
      "t": 133142.41333333217,
      "d": 138.39239583333256,
      "v": 126
    },
    {
      "midi": 67,
      "hit": false,
      "t": 133142.4133333332,
      "d": 138.39239583333256,
      "v": 125
    },
    {
      "midi": 42,
      "hit": false,
      "t": 133285.26999999883,
      "d": 428.570000000007,
      "v": 126
    },
    {
      "midi": 62,
      "hit": false,
      "t": 133428.12666666653,
      "d": 138.39239583333256,
      "v": 125
    },
    {
      "midi": 67,
      "hit": false,
      "t": 133428.12666666653,
      "d": 138.39239583333256,
      "v": 125
    },
    {
      "midi": 59,
      "hit": false,
      "t": 133570.98333333217,
      "d": 138.39239583333256,
      "v": 126
    },
    {
      "midi": 62,
      "hit": false,
      "t": 133570.98333333217,
      "d": 138.39239583333256,
      "v": 126
    },
    {
      "midi": 67,
      "hit": false,
      "t": 133570.98333333217,
      "d": 138.39239583333256,
      "v": 126
    },
    {
      "midi": 60,
      "hit": false,
      "t": 133570.9833333332,
      "d": 138.39239583333256,
      "v": 125
    },
    {
      "midi": 43,
      "hit": false,
      "t": 133713.83999999883,
      "d": 428.570000000007,
      "v": 126
    },
    {
      "midi": 57,
      "hit": false,
      "t": 133713.83999999985,
      "d": 138.39239583333256,
      "v": 125
    },
    {
      "midi": 62,
      "hit": false,
      "t": 133713.83999999985,
      "d": 1857.1366666666581,
      "v": 125
    },
    {
      "midi": 59,
      "hit": false,
      "t": 133856.6966666665,
      "d": 1714.2799999999988,
      "v": 125
    },
    {
      "midi": 59,
      "hit": false,
      "t": 133999.55333333218,
      "d": 138.39239583333256,
      "v": 126
    },
    {
      "midi": 62,
      "hit": false,
      "t": 133999.55333333218,
      "d": 138.39239583333256,
      "v": 126
    },
    {
      "midi": 67,
      "hit": false,
      "t": 133999.55333333218,
      "d": 138.39239583333256,
      "v": 126
    },
    {
      "midi": 40,
      "hit": false,
      "t": 134142.40999999884,
      "d": 428.570000000007,
      "v": 126
    },
    {
      "midi": 59,
      "hit": false,
      "t": 134428.1233333322,
      "d": 138.39239583333256,
      "v": 126
    },
    {
      "midi": 62,
      "hit": false,
      "t": 134428.1233333322,
      "d": 138.39239583333256,
      "v": 126
    },
    {
      "midi": 67,
      "hit": false,
      "t": 134428.1233333322,
      "d": 138.39239583333256,
      "v": 126
    },
    {
      "midi": 38,
      "hit": false,
      "t": 134570.97999999885,
      "d": 428.570000000007,
      "v": 126
    },
    {
      "midi": 59,
      "hit": false,
      "t": 134856.6933333322,
      "d": 138.39239583333256,
      "v": 126
    },
    {
      "midi": 62,
      "hit": false,
      "t": 134856.6933333322,
      "d": 138.39239583333256,
      "v": 126
    },
    {
      "midi": 67,
      "hit": false,
      "t": 134856.6933333322,
      "d": 138.39239583333256,
      "v": 126
    },
    {
      "midi": 35,
      "hit": false,
      "t": 134999.54999999885,
      "d": 428.570000000007,
      "v": 126
    },
    {
      "midi": 59,
      "hit": false,
      "t": 135285.2633333322,
      "d": 138.39239583333256,
      "v": 126
    },
    {
      "midi": 62,
      "hit": false,
      "t": 135285.2633333322,
      "d": 138.39239583333256,
      "v": 126
    },
    {
      "midi": 67,
      "hit": false,
      "t": 135285.2633333322,
      "d": 138.39239583333256,
      "v": 126
    },
    {
      "midi": 31,
      "hit": false,
      "t": 135428.11999999886,
      "d": 428.570000000007,
      "v": 126
    },
    {
      "midi": 59,
      "hit": false,
      "t": 135713.8333333322,
      "d": 138.39239583333256,
      "v": 126
    },
    {
      "midi": 62,
      "hit": false,
      "t": 135713.8333333322,
      "d": 138.39239583333256,
      "v": 126
    },
    {
      "midi": 67,
      "hit": false,
      "t": 135713.8333333322,
      "d": 138.39239583333256,
      "v": 126
    },
    {
      "midi": 31,
      "hit": false,
      "t": 135856.68999999887,
      "d": 428.570000000007,
      "v": 126
    },
    {
      "midi": 59,
      "hit": false,
      "t": 136142.40333333221,
      "d": 138.39239583333256,
      "v": 126
    },
    {
      "midi": 62,
      "hit": false,
      "t": 136142.40333333221,
      "d": 138.39239583333256,
      "v": 126
    },
    {
      "midi": 67,
      "hit": false,
      "t": 136142.40333333221,
      "d": 138.39239583333256,
      "v": 126
    },
    {
      "midi": 33,
      "hit": false,
      "t": 136285.25999999887,
      "d": 428.570000000007,
      "v": 126
    },
    {
      "midi": 59,
      "hit": false,
      "t": 136570.97333333222,
      "d": 138.39239583333256,
      "v": 126
    },
    {
      "midi": 62,
      "hit": false,
      "t": 136570.97333333222,
      "d": 138.39239583333256,
      "v": 126
    },
    {
      "midi": 67,
      "hit": false,
      "t": 136570.97333333222,
      "d": 138.39239583333256,
      "v": 126
    },
    {
      "midi": 35,
      "hit": false,
      "t": 136713.82999999888,
      "d": 428.570000000007,
      "v": 126
    },
    {
      "midi": 59,
      "hit": false,
      "t": 136999.54333333223,
      "d": 138.39239583333256,
      "v": 126
    },
    {
      "midi": 62,
      "hit": false,
      "t": 136999.54333333223,
      "d": 138.39239583333256,
      "v": 126
    },
    {
      "midi": 67,
      "hit": false,
      "t": 136999.54333333223,
      "d": 138.39239583333256,
      "v": 126
    },
    {
      "midi": 36,
      "hit": false,
      "t": 137142.3999999989,
      "d": 428.570000000007,
      "v": 126
    },
    {
      "midi": 60,
      "hit": false,
      "t": 137428.11333333224,
      "d": 138.39239583333256,
      "v": 126
    },
    {
      "midi": 64,
      "hit": false,
      "t": 137428.11333333224,
      "d": 138.39239583333256,
      "v": 126
    },
    {
      "midi": 67,
      "hit": false,
      "t": 137428.11333333224,
      "d": 138.39239583333256,
      "v": 126
    },
    {
      "midi": 43,
      "hit": false,
      "t": 137428.11333333317,
      "d": 138.39239583333256,
      "v": 125
    },
    {
      "midi": 40,
      "hit": false,
      "t": 137570.9699999989,
      "d": 428.570000000007,
      "v": 126
    },
    {
      "midi": 48,
      "hit": false,
      "t": 137570.96999999983,
      "d": 138.39239583333256,
      "v": 125
    },
    {
      "midi": 52,
      "hit": false,
      "t": 137713.8266666665,
      "d": 138.39239583333256,
      "v": 125
    },
    {
      "midi": 60,
      "hit": false,
      "t": 137856.68333333224,
      "d": 138.39239583333256,
      "v": 126
    },
    {
      "midi": 64,
      "hit": false,
      "t": 137856.68333333224,
      "d": 138.39239583333256,
      "v": 126
    },
    {
      "midi": 67,
      "hit": false,
      "t": 137856.68333333224,
      "d": 138.39239583333256,
      "v": 126
    },
    {
      "midi": 55,
      "hit": false,
      "t": 137856.68333333315,
      "d": 138.39239583333256,
      "v": 125
    },
    {
      "midi": 43,
      "hit": false,
      "t": 137999.5399999989,
      "d": 428.570000000007,
      "v": 126
    },
    {
      "midi": 48,
      "hit": false,
      "t": 137999.5399999998,
      "d": 138.39239583333256,
      "v": 125
    },
    {
      "midi": 52,
      "hit": false,
      "t": 138142.39666666646,
      "d": 138.39239583333256,
      "v": 125
    },
    {
      "midi": 60,
      "hit": false,
      "t": 138285.25333333225,
      "d": 138.39239583333256,
      "v": 126
    },
    {
      "midi": 64,
      "hit": false,
      "t": 138285.25333333225,
      "d": 138.39239583333256,
      "v": 126
    },
    {
      "midi": 67,
      "hit": false,
      "t": 138285.25333333225,
      "d": 138.39239583333256,
      "v": 126
    },
    {
      "midi": 55,
      "hit": false,
      "t": 138285.25333333312,
      "d": 138.39239583333256,
      "v": 125
    },
    {
      "midi": 40,
      "hit": false,
      "t": 138428.1099999989,
      "d": 428.570000000007,
      "v": 126
    },
    {
      "midi": 60,
      "hit": false,
      "t": 138428.10999999978,
      "d": 138.39239583333256,
      "v": 125
    },
    {
      "midi": 52,
      "hit": false,
      "t": 138570.96666666644,
      "d": 138.39239583333256,
      "v": 125
    },
    {
      "midi": 60,
      "hit": false,
      "t": 138713.82333333226,
      "d": 138.39239583333256,
      "v": 126
    },
    {
      "midi": 64,
      "hit": false,
      "t": 138713.82333333226,
      "d": 138.39239583333256,
      "v": 126
    },
    {
      "midi": 67,
      "hit": false,
      "t": 138713.82333333226,
      "d": 138.39239583333256,
      "v": 126
    },
    {
      "midi": 55,
      "hit": false,
      "t": 138713.8233333331,
      "d": 138.39239583333256,
      "v": 125
    },
    {
      "midi": 36,
      "hit": false,
      "t": 138856.67999999892,
      "d": 428.570000000007,
      "v": 126
    },
    {
      "midi": 60,
      "hit": false,
      "t": 138856.67999999976,
      "d": 285.7133333333186,
      "v": 125
    },
    {
      "midi": 64,
      "hit": false,
      "t": 138999.53666666642,
      "d": 138.39239583333256,
      "v": 125
    },
    {
      "midi": 60,
      "hit": false,
      "t": 139142.39333333226,
      "d": 138.39239583333256,
      "v": 126
    },
    {
      "midi": 64,
      "hit": false,
      "t": 139142.39333333226,
      "d": 138.39239583333256,
      "v": 126
    },
    {
      "midi": 67,
      "hit": false,
      "t": 139142.39333333226,
      "d": 138.39239583333256,
      "v": 126
    },
    {
      "midi": 55,
      "hit": false,
      "t": 139142.39333333308,
      "d": 138.39239583333256,
      "v": 125
    },
    {
      "midi": 35,
      "hit": false,
      "t": 139285.24999999892,
      "d": 428.570000000007,
      "v": 126
    },
    {
      "midi": 60,
      "hit": false,
      "t": 139428.1066666664,
      "d": 138.39239583333256,
      "v": 125
    },
    {
      "midi": 60,
      "hit": false,
      "t": 139570.96333333227,
      "d": 138.39239583333256,
      "v": 126
    },
    {
      "midi": 64,
      "hit": false,
      "t": 139570.96333333227,
      "d": 138.39239583333256,
      "v": 126
    },
    {
      "midi": 67,
      "hit": false,
      "t": 139570.96333333227,
      "d": 138.39239583333256,
      "v": 126
    },
    {
      "midi": 64,
      "hit": false,
      "t": 139570.96333333306,
      "d": 138.39239583333256,
      "v": 125
    },
    {
      "midi": 67,
      "hit": false,
      "t": 139570.96333333306,
      "d": 138.39239583333256,
      "v": 125
    },
    {
      "midi": 36,
      "hit": false,
      "t": 139713.81999999893,
      "d": 428.570000000007,
      "v": 126
    },
    {
      "midi": 60,
      "hit": false,
      "t": 139713.81999999972,
      "d": 138.39239583333256,
      "v": 125
    },
    {
      "midi": 64,
      "hit": false,
      "t": 139856.67666666638,
      "d": 138.39239583333256,
      "v": 125
    },
    {
      "midi": 60,
      "hit": false,
      "t": 139999.53333333228,
      "d": 138.39239583333256,
      "v": 126
    },
    {
      "midi": 64,
      "hit": false,
      "t": 139999.53333333228,
      "d": 138.39239583333256,
      "v": 126
    },
    {
      "midi": 67,
      "hit": false,
      "t": 139999.53333333228,
      "d": 138.39239583333256,
      "v": 126
    },
    {
      "midi": 67,
      "hit": false,
      "t": 139999.53333333303,
      "d": 138.39239583333256,
      "v": 125
    },
    {
      "midi": 37,
      "hit": false,
      "t": 140142.38999999894,
      "d": 428.570000000007,
      "v": 126
    },
    {
      "midi": 72,
      "hit": false,
      "t": 140142.3899999997,
      "d": 138.39239583333256,
      "v": 125
    },
    {
      "midi": 67,
      "hit": false,
      "t": 140285.24666666635,
      "d": 138.39239583333256,
      "v": 125
    },
    {
      "midi": 60,
      "hit": false,
      "t": 140428.10333333228,
      "d": 138.39239583333256,
      "v": 126
    },
    {
      "midi": 64,
      "hit": false,
      "t": 140428.10333333228,
      "d": 138.39239583333256,
      "v": 126
    },
    {
      "midi": 67,
      "hit": false,
      "t": 140428.10333333228,
      "d": 138.39239583333256,
      "v": 126
    },
    {
      "midi": 76,
      "hit": false,
      "t": 140428.103333333,
      "d": 138.39239583333256,
      "v": 125
    },
    {
      "midi": 38,
      "hit": false,
      "t": 140570.95999999894,
      "d": 428.570000000007,
      "v": 126
    },
    {
      "midi": 74,
      "hit": false,
      "t": 140570.95999999967,
      "d": 1142.8533333333326,
      "v": 125
    },
    {
      "midi": 78,
      "hit": false,
      "t": 140570.95999999967,
      "d": 1281.2457291666651,
      "v": 125
    },
    {
      "midi": 57,
      "hit": false,
      "t": 140856.6733333323,
      "d": 138.39239583333256,
      "v": 126
    },
    {
      "midi": 62,
      "hit": false,
      "t": 140856.6733333323,
      "d": 138.39239583333256,
      "v": 126
    },
    {
      "midi": 66,
      "hit": false,
      "t": 140856.6733333323,
      "d": 138.39239583333256,
      "v": 126
    },
    {
      "midi": 42,
      "hit": false,
      "t": 140999.52999999895,
      "d": 428.570000000007,
      "v": 126
    },
    {
      "midi": 57,
      "hit": false,
      "t": 141285.2433333323,
      "d": 138.39239583333256,
      "v": 126
    },
    {
      "midi": 62,
      "hit": false,
      "t": 141285.2433333323,
      "d": 138.39239583333256,
      "v": 126
    },
    {
      "midi": 66,
      "hit": false,
      "t": 141285.2433333323,
      "d": 138.39239583333256,
      "v": 126
    },
    {
      "midi": 45,
      "hit": false,
      "t": 141428.09999999896,
      "d": 428.570000000007,
      "v": 126
    },
    {
      "midi": 57,
      "hit": false,
      "t": 141713.8133333323,
      "d": 138.39239583333256,
      "v": 126
    },
    {
      "midi": 62,
      "hit": false,
      "t": 141713.8133333323,
      "d": 138.39239583333256,
      "v": 126
    },
    {
      "midi": 66,
      "hit": false,
      "t": 141713.8133333323,
      "d": 138.39239583333256,
      "v": 126
    },
    {
      "midi": 47,
      "hit": false,
      "t": 141856.66999999897,
      "d": 428.570000000007,
      "v": 126
    },
    {
      "midi": 57,
      "hit": false,
      "t": 142142.3833333323,
      "d": 138.39239583333256,
      "v": 126
    },
    {
      "midi": 62,
      "hit": false,
      "t": 142142.3833333323,
      "d": 138.39239583333256,
      "v": 126
    },
    {
      "midi": 66,
      "hit": false,
      "t": 142142.3833333323,
      "d": 138.39239583333256,
      "v": 126
    },
    {
      "midi": 50,
      "hit": false,
      "t": 142285.23999999897,
      "d": 138.39239583333256,
      "v": 126
    },
    {
      "midi": 45,
      "hit": false,
      "t": 142428.09666666563,
      "d": 138.39239583333256,
      "v": 126
    },
    {
      "midi": 42,
      "hit": false,
      "t": 142570.9533333323,
      "d": 138.39239583333256,
      "v": 126
    },
    {
      "midi": 57,
      "hit": false,
      "t": 142570.9533333323,
      "d": 138.39239583333256,
      "v": 126
    },
    {
      "midi": 62,
      "hit": false,
      "t": 142570.9533333323,
      "d": 138.39239583333256,
      "v": 126
    },
    {
      "midi": 66,
      "hit": false,
      "t": 142570.9533333323,
      "d": 138.39239583333256,
      "v": 126
    },
    {
      "midi": 38,
      "hit": false,
      "t": 142713.80999999895,
      "d": 428.570000000007,
      "v": 126
    },
    {
      "midi": 57,
      "hit": false,
      "t": 142999.5233333323,
      "d": 138.39239583333256,
      "v": 126
    },
    {
      "midi": 62,
      "hit": false,
      "t": 142999.5233333323,
      "d": 138.39239583333256,
      "v": 126
    },
    {
      "midi": 66,
      "hit": false,
      "t": 142999.5233333323,
      "d": 138.39239583333256,
      "v": 126
    },
    {
      "midi": 40,
      "hit": false,
      "t": 143142.37999999896,
      "d": 428.570000000007,
      "v": 126
    },
    {
      "midi": 57,
      "hit": false,
      "t": 143428.0933333323,
      "d": 138.39239583333256,
      "v": 126
    },
    {
      "midi": 62,
      "hit": false,
      "t": 143428.0933333323,
      "d": 138.39239583333256,
      "v": 126
    },
    {
      "midi": 66,
      "hit": false,
      "t": 143428.0933333323,
      "d": 138.39239583333256,
      "v": 126
    },
    {
      "midi": 42,
      "hit": false,
      "t": 143570.94999999896,
      "d": 428.570000000007,
      "v": 126
    },
    {
      "midi": 57,
      "hit": false,
      "t": 143856.6633333323,
      "d": 138.39239583333256,
      "v": 126
    },
    {
      "midi": 62,
      "hit": false,
      "t": 143856.6633333323,
      "d": 138.39239583333256,
      "v": 126
    },
    {
      "midi": 66,
      "hit": false,
      "t": 143856.6633333323,
      "d": 138.39239583333256,
      "v": 126
    },
    {
      "midi": 43,
      "hit": false,
      "t": 143999.51999999897,
      "d": 428.570000000007,
      "v": 126
    },
    {
      "midi": 59,
      "hit": false,
      "t": 144285.23333333232,
      "d": 138.39239583333256,
      "v": 126
    },
    {
      "midi": 62,
      "hit": false,
      "t": 144285.23333333232,
      "d": 138.39239583333256,
      "v": 126
    },
    {
      "midi": 67,
      "hit": false,
      "t": 144285.23333333232,
      "d": 138.39239583333256,
      "v": 126
    },
    {
      "midi": 74,
      "hit": false,
      "t": 144285.23333333302,
      "d": 428.5699999999779,
      "v": 125
    },
    {
      "midi": 40,
      "hit": false,
      "t": 144428.08999999898,
      "d": 428.570000000007,
      "v": 126
    },
    {
      "midi": 71,
      "hit": false,
      "t": 144428.08999999968,
      "d": 138.39239583333256,
      "v": 125
    },
    {
      "midi": 67,
      "hit": false,
      "t": 144570.94666666634,
      "d": 138.39239583333256,
      "v": 125
    },
    {
      "midi": 59,
      "hit": false,
      "t": 144713.80333333233,
      "d": 138.39239583333256,
      "v": 126
    },
    {
      "midi": 62,
      "hit": false,
      "t": 144713.80333333233,
      "d": 138.39239583333256,
      "v": 126
    },
    {
      "midi": 67,
      "hit": false,
      "t": 144713.80333333233,
      "d": 138.39239583333256,
      "v": 126
    },
    {
      "midi": 62,
      "hit": false,
      "t": 144713.803333333,
      "d": 138.39239583333256,
      "v": 125
    },
    {
      "midi": 38,
      "hit": false,
      "t": 144856.65999999898,
      "d": 428.570000000007,
      "v": 126
    },
    {
      "midi": 62,
      "hit": false,
      "t": 144856.65999999965,
      "d": 138.39239583333256,
      "v": 125
    },
    {
      "midi": 67,
      "hit": false,
      "t": 144856.65999999965,
      "d": 571.4266666666372,
      "v": 125
    },
    {
      "midi": 64,
      "hit": false,
      "t": 144999.5166666663,
      "d": 138.39239583333256,
      "v": 125
    },
    {
      "midi": 59,
      "hit": false,
      "t": 145142.37333333233,
      "d": 138.39239583333256,
      "v": 126
    },
    {
      "midi": 62,
      "hit": false,
      "t": 145142.37333333233,
      "d": 138.39239583333256,
      "v": 126
    },
    {
      "midi": 67,
      "hit": false,
      "t": 145142.37333333233,
      "d": 138.39239583333256,
      "v": 126
    },
    {
      "midi": 62,
      "hit": false,
      "t": 145142.37333333297,
      "d": 285.7133333333186,
      "v": 125
    },
    {
      "midi": 35,
      "hit": false,
      "t": 145285.229999999,
      "d": 428.570000000007,
      "v": 126
    },
    {
      "midi": 60,
      "hit": false,
      "t": 145428.0866666663,
      "d": 138.39239583333256,
      "v": 125
    },
    {
      "midi": 67,
      "hit": false,
      "t": 145428.0866666663,
      "d": 138.39239583333256,
      "v": 125
    },
    {
      "midi": 59,
      "hit": false,
      "t": 145570.94333333234,
      "d": 138.39239583333256,
      "v": 126
    },
    {
      "midi": 62,
      "hit": false,
      "t": 145570.94333333234,
      "d": 138.39239583333256,
      "v": 126
    },
    {
      "midi": 67,
      "hit": false,
      "t": 145570.94333333234,
      "d": 138.39239583333256,
      "v": 126
    },
    {
      "midi": 55,
      "hit": false,
      "t": 145570.94333333295,
      "d": 138.39239583333256,
      "v": 125
    },
    {
      "midi": 31,
      "hit": false,
      "t": 145713.799999999,
      "d": 428.570000000007,
      "v": 126
    },
    {
      "midi": 57,
      "hit": false,
      "t": 145713.7999999996,
      "d": 285.7133333333186,
      "v": 125
    },
    {
      "midi": 62,
      "hit": false,
      "t": 145713.7999999996,
      "d": 1571.4233333333104,
      "v": 125
    },
    {
      "midi": 59,
      "hit": false,
      "t": 145856.65666666627,
      "d": 1428.5666666666511,
      "v": 125
    },
    {
      "midi": 59,
      "hit": false,
      "t": 145999.51333333235,
      "d": 138.39239583333256,
      "v": 126
    },
    {
      "midi": 62,
      "hit": false,
      "t": 145999.51333333235,
      "d": 138.39239583333256,
      "v": 126
    },
    {
      "midi": 67,
      "hit": false,
      "t": 145999.51333333235,
      "d": 138.39239583333256,
      "v": 126
    },
    {
      "midi": 35,
      "hit": false,
      "t": 146142.369999999,
      "d": 428.570000000007,
      "v": 126
    },
    {
      "midi": 59,
      "hit": false,
      "t": 146428.08333333235,
      "d": 138.39239583333256,
      "v": 126
    },
    {
      "midi": 62,
      "hit": false,
      "t": 146428.08333333235,
      "d": 138.39239583333256,
      "v": 126
    },
    {
      "midi": 67,
      "hit": false,
      "t": 146428.08333333235,
      "d": 138.39239583333256,
      "v": 126
    },
    {
      "midi": 36,
      "hit": false,
      "t": 146570.939999999,
      "d": 428.570000000007,
      "v": 126
    },
    {
      "midi": 59,
      "hit": false,
      "t": 146856.65333333236,
      "d": 138.39239583333256,
      "v": 126
    },
    {
      "midi": 62,
      "hit": false,
      "t": 146856.65333333236,
      "d": 138.39239583333256,
      "v": 126
    },
    {
      "midi": 67,
      "hit": false,
      "t": 146856.65333333236,
      "d": 138.39239583333256,
      "v": 126
    },
    {
      "midi": 37,
      "hit": false,
      "t": 146999.50999999902,
      "d": 428.570000000007,
      "v": 126
    },
    {
      "midi": 59,
      "hit": false,
      "t": 147285.22333333237,
      "d": 138.39239583333256,
      "v": 126
    },
    {
      "midi": 62,
      "hit": false,
      "t": 147285.22333333237,
      "d": 138.39239583333256,
      "v": 126
    },
    {
      "midi": 67,
      "hit": false,
      "t": 147285.22333333237,
      "d": 138.39239583333256,
      "v": 126
    },
    {
      "midi": 38,
      "hit": false,
      "t": 147428.07999999903,
      "d": 428.570000000007,
      "v": 126
    },
    {
      "midi": 57,
      "hit": false,
      "t": 147713.79333333237,
      "d": 138.39239583333256,
      "v": 126
    },
    {
      "midi": 62,
      "hit": false,
      "t": 147713.79333333237,
      "d": 138.39239583333256,
      "v": 126
    },
    {
      "midi": 66,
      "hit": false,
      "t": 147713.79333333237,
      "d": 138.39239583333256,
      "v": 126
    },
    {
      "midi": 42,
      "hit": false,
      "t": 147856.64999999903,
      "d": 428.570000000007,
      "v": 126
    },
    {
      "midi": 57,
      "hit": false,
      "t": 148142.36333333238,
      "d": 138.39239583333256,
      "v": 126
    },
    {
      "midi": 62,
      "hit": false,
      "t": 148142.36333333238,
      "d": 138.39239583333256,
      "v": 126
    },
    {
      "midi": 66,
      "hit": false,
      "t": 148142.36333333238,
      "d": 138.39239583333256,
      "v": 126
    },
    {
      "midi": 45,
      "hit": false,
      "t": 148285.21999999904,
      "d": 428.570000000007,
      "v": 126
    },
    {
      "midi": 57,
      "hit": false,
      "t": 148570.9333333324,
      "d": 138.39239583333256,
      "v": 126
    },
    {
      "midi": 62,
      "hit": false,
      "t": 148570.9333333324,
      "d": 138.39239583333256,
      "v": 126
    },
    {
      "midi": 66,
      "hit": false,
      "t": 148570.9333333324,
      "d": 138.39239583333256,
      "v": 126
    },
    {
      "midi": 47,
      "hit": false,
      "t": 148713.78999999905,
      "d": 428.570000000007,
      "v": 126
    },
    {
      "midi": 57,
      "hit": false,
      "t": 148999.5033333324,
      "d": 138.39239583333256,
      "v": 126
    },
    {
      "midi": 62,
      "hit": false,
      "t": 148999.5033333324,
      "d": 138.39239583333256,
      "v": 126
    },
    {
      "midi": 66,
      "hit": false,
      "t": 148999.5033333324,
      "d": 138.39239583333256,
      "v": 126
    },
    {
      "midi": 50,
      "hit": false,
      "t": 149142.35999999905,
      "d": 138.39239583333256,
      "v": 126
    },
    {
      "midi": 45,
      "hit": false,
      "t": 149285.2166666657,
      "d": 138.39239583333256,
      "v": 126
    },
    {
      "midi": 42,
      "hit": false,
      "t": 149428.07333333237,
      "d": 138.39239583333256,
      "v": 126
    },
    {
      "midi": 57,
      "hit": false,
      "t": 149428.07333333237,
      "d": 138.39239583333256,
      "v": 126
    },
    {
      "midi": 62,
      "hit": false,
      "t": 149428.07333333237,
      "d": 138.39239583333256,
      "v": 126
    },
    {
      "midi": 66,
      "hit": false,
      "t": 149428.07333333237,
      "d": 138.39239583333256,
      "v": 126
    },
    {
      "midi": 38,
      "hit": false,
      "t": 149570.92999999903,
      "d": 428.570000000007,
      "v": 126
    },
    {
      "midi": 57,
      "hit": false,
      "t": 149856.64333333238,
      "d": 138.39239583333256,
      "v": 126
    },
    {
      "midi": 62,
      "hit": false,
      "t": 149856.64333333238,
      "d": 138.39239583333256,
      "v": 126
    },
    {
      "midi": 66,
      "hit": false,
      "t": 149856.64333333238,
      "d": 138.39239583333256,
      "v": 126
    },
    {
      "midi": 40,
      "hit": false,
      "t": 149999.49999999904,
      "d": 428.570000000007,
      "v": 126
    },
    {
      "midi": 57,
      "hit": false,
      "t": 150285.2133333324,
      "d": 138.39239583333256,
      "v": 126
    },
    {
      "midi": 62,
      "hit": false,
      "t": 150285.2133333324,
      "d": 138.39239583333256,
      "v": 126
    },
    {
      "midi": 66,
      "hit": false,
      "t": 150285.2133333324,
      "d": 138.39239583333256,
      "v": 126
    },
    {
      "midi": 42,
      "hit": false,
      "t": 150428.06999999905,
      "d": 428.570000000007,
      "v": 126
    },
    {
      "midi": 57,
      "hit": false,
      "t": 150713.7833333324,
      "d": 138.39239583333256,
      "v": 126
    },
    {
      "midi": 62,
      "hit": false,
      "t": 150713.7833333324,
      "d": 138.39239583333256,
      "v": 126
    },
    {
      "midi": 66,
      "hit": false,
      "t": 150713.7833333324,
      "d": 138.39239583333256,
      "v": 126
    },
    {
      "midi": 43,
      "hit": false,
      "t": 150856.63999999905,
      "d": 428.570000000007,
      "v": 127
    },
    {
      "midi": 59,
      "hit": false,
      "t": 151142.3533333324,
      "d": 138.39239583333256,
      "v": 126
    },
    {
      "midi": 62,
      "hit": false,
      "t": 151142.3533333324,
      "d": 138.39239583333256,
      "v": 126
    },
    {
      "midi": 67,
      "hit": false,
      "t": 151142.3533333324,
      "d": 138.39239583333256,
      "v": 126
    },
    {
      "midi": 40,
      "hit": false,
      "t": 151285.20999999906,
      "d": 428.570000000007,
      "v": 126
    },
    {
      "midi": 74,
      "hit": false,
      "t": 151285.20999999958,
      "d": 285.7133333333477,
      "v": 125
    },
    {
      "midi": 83,
      "hit": false,
      "t": 151285.20999999958,
      "d": 285.7133333333477,
      "v": 125
    },
    {
      "midi": 59,
      "hit": false,
      "t": 151570.9233333324,
      "d": 138.39239583333256,
      "v": 126
    },
    {
      "midi": 62,
      "hit": false,
      "t": 151570.9233333324,
      "d": 138.39239583333256,
      "v": 126
    },
    {
      "midi": 67,
      "hit": false,
      "t": 151570.9233333324,
      "d": 138.39239583333256,
      "v": 126
    },
    {
      "midi": 38,
      "hit": false,
      "t": 151713.77999999907,
      "d": 428.570000000007,
      "v": 126
    },
    {
      "midi": 74,
      "hit": false,
      "t": 151713.7799999996,
      "d": 138.39239583333256,
      "v": 125
    },
    {
      "midi": 83,
      "hit": false,
      "t": 151713.7799999996,
      "d": 138.39239583333256,
      "v": 125
    },
    {
      "midi": 59,
      "hit": false,
      "t": 151999.49333333242,
      "d": 138.39239583333256,
      "v": 126
    },
    {
      "midi": 62,
      "hit": false,
      "t": 151999.49333333242,
      "d": 138.39239583333256,
      "v": 126
    },
    {
      "midi": 67,
      "hit": false,
      "t": 151999.49333333242,
      "d": 138.39239583333256,
      "v": 126
    },
    {
      "midi": 73,
      "hit": false,
      "t": 151999.4933333329,
      "d": 138.39239583333256,
      "v": 125
    },
    {
      "midi": 82,
      "hit": false,
      "t": 151999.4933333329,
      "d": 138.39239583333256,
      "v": 125
    },
    {
      "midi": 35,
      "hit": false,
      "t": 152142.34999999907,
      "d": 428.570000000007,
      "v": 126
    },
    {
      "midi": 72,
      "hit": false,
      "t": 152142.34999999957,
      "d": 428.570000000007,
      "v": 125
    },
    {
      "midi": 81,
      "hit": false,
      "t": 152142.34999999957,
      "d": 428.570000000007,
      "v": 125
    },
    {
      "midi": 31,
      "hit": false,
      "t": 152570.91999999908,
      "d": 2566.955729166657,
      "v": 105
    },
    {
      "midi": 59,
      "hit": false,
      "t": 152570.91999999908,
      "d": 2566.955729166657,
      "v": 115
    },
    {
      "midi": 62,
      "hit": false,
      "t": 152570.91999999908,
      "d": 2566.955729166657,
      "v": 117
    },
    {
      "midi": 67,
      "hit": false,
      "t": 152570.91999999908,
      "d": 2566.955729166657,
      "v": 99
    },
    {
      "midi": 71,
      "hit": false,
      "t": 152570.91999999958,
      "d": 2857.1333333333314,
      "v": 126
    },
    {
      "midi": 79,
      "hit": false,
      "t": 152570.91999999958,
      "d": 2857.1333333333314,
      "v": 126
    }
  ]
}