{
  "jsonPath": "Rock/Country Rock/Lorrie Morgan/watch-me.json",
  "path": "Rock\\Country Rock\\Lorrie Morgan\\Watch Me.mid",
  "name": "Watch Me",
  "difficulty": "Advanced",
  "bpm": 155.00031000062,
  "notes": [
    {
      "midi": 36,
      "hit": false,
      "t": 1548.3839999999998,
      "d": 132.2578000000001,
      "v": 93
    },
    {
      "midi": 55,
      "hit": false,
      "t": 1548.3839999999998,
      "d": 137.0965000000001,
      "v": 93
    },
    {
      "midi": 48,
      "hit": false,
      "t": 1548.3839999999998,
      "d": 143.5481000000002,
      "v": 85
    },
    {
      "midi": 60,
      "hit": false,
      "t": 1548.3839999999998,
      "d": 143.5481000000002,
      "v": 89
    },
    {
      "midi": 55,
      "hit": false,
      "t": 2193.544,
      "d": 120.9675000000002,
      "v": 93
    },
    {
      "midi": 60,
      "hit": false,
      "t": 2193.544,
      "d": 129.03200000000015,
      "v": 93
    },
    {
      "midi": 36,
      "hit": false,
      "t": 2193.544,
      "d": 141.93520000000035,
      "v": 93
    },
    {
      "midi": 48,
      "hit": false,
      "t": 2193.544,
      "d": 153.22550000000047,
      "v": 89
    },
    {
      "midi": 55,
      "hit": false,
      "t": 4645.152,
      "d": 146.77390000000014,
      "v": 93
    },
    {
      "midi": 36,
      "hit": false,
      "t": 4645.152,
      "d": 153.22550000000047,
      "v": 89
    },
    {
      "midi": 60,
      "hit": false,
      "t": 4645.152,
      "d": 162.90290000000005,
      "v": 93
    },
    {
      "midi": 48,
      "hit": false,
      "t": 4645.152,
      "d": 167.7416000000003,
      "v": 89
    },
    {
      "midi": 60,
      "hit": false,
      "t": 5290.312,
      "d": 114.51590000000033,
      "v": 85
    },
    {
      "midi": 36,
      "hit": false,
      "t": 5290.312,
      "d": 122.58040000000074,
      "v": 85
    },
    {
      "midi": 55,
      "hit": false,
      "t": 5290.312,
      "d": 149.9997000000003,
      "v": 93
    },
    {
      "midi": 48,
      "hit": false,
      "t": 5290.312,
      "d": 159.67709999999988,
      "v": 80
    },
    {
      "midi": 60,
      "hit": false,
      "t": 7741.92,
      "d": 149.9997000000003,
      "v": 76
    },
    {
      "midi": 55,
      "hit": false,
      "t": 7741.92,
      "d": 156.45130000000063,
      "v": 93
    },
    {
      "midi": 36,
      "hit": false,
      "t": 7741.92,
      "d": 159.6771000000008,
      "v": 89
    },
    {
      "midi": 48,
      "hit": false,
      "t": 7741.92,
      "d": 179.03190000000086,
      "v": 89
    },
    {
      "midi": 60,
      "hit": false,
      "t": 8387.080000000002,
      "d": 140.3222999999998,
      "v": 93
    },
    {
      "midi": 55,
      "hit": false,
      "t": 8387.080000000002,
      "d": 141.9351999999999,
      "v": 98
    },
    {
      "midi": 48,
      "hit": false,
      "t": 8387.080000000002,
      "d": 149.9997000000003,
      "v": 93
    },
    {
      "midi": 36,
      "hit": false,
      "t": 8387.080000000002,
      "d": 153.22550000000047,
      "v": 89
    },
    {
      "midi": 36,
      "hit": false,
      "t": 10838.688000000002,
      "d": 120.96750000000065,
      "v": 80
    },
    {
      "midi": 55,
      "hit": false,
      "t": 10838.688000000002,
      "d": 146.77390000000014,
      "v": 89
    },
    {
      "midi": 48,
      "hit": false,
      "t": 10838.688000000002,
      "d": 158.0642000000007,
      "v": 85
    },
    {
      "midi": 60,
      "hit": false,
      "t": 10838.688000000002,
      "d": 167.7416000000012,
      "v": 98
    },
    {
      "midi": 55,
      "hit": false,
      "t": 11483.848000000004,
      "d": 125.8062000000009,
      "v": 98
    },
    {
      "midi": 48,
      "hit": false,
      "t": 11483.848000000004,
      "d": 130.64490000000114,
      "v": 85
    },
    {
      "midi": 36,
      "hit": false,
      "t": 11483.848000000004,
      "d": 132.25780000000123,
      "v": 85
    },
    {
      "midi": 60,
      "hit": false,
      "t": 11483.848000000004,
      "d": 145.16100000000188,
      "v": 98
    },
    {
      "midi": 48,
      "hit": false,
      "t": 13935.456000000006,
      "d": 180.64480000000003,
      "v": 93
    },
    {
      "midi": 60,
      "hit": false,
      "t": 13935.456000000006,
      "d": 196.77380000000085,
      "v": 93
    },
    {
      "midi": 55,
      "hit": false,
      "t": 13935.456000000006,
      "d": 212.90280000000166,
      "v": 72
    },
    {
      "midi": 48,
      "hit": false,
      "t": 14580.616000000007,
      "d": 199.9995999999992,
      "v": 93
    },
    {
      "midi": 60,
      "hit": false,
      "t": 14580.616000000007,
      "d": 201.61249999999927,
      "v": 102
    },
    {
      "midi": 55,
      "hit": false,
      "t": 14580.616000000007,
      "d": 219.35440000000017,
      "v": 89
    },
    {
      "midi": 58,
      "hit": false,
      "t": 17032.22400000001,
      "d": 167.7416000000012,
      "v": 89
    },
    {
      "midi": 46,
      "hit": false,
      "t": 17032.22400000001,
      "d": 183.870600000002,
      "v": 102
    },
    {
      "midi": 53,
      "hit": false,
      "t": 17032.22400000001,
      "d": 187.09640000000218,
      "v": 93
    },
    {
      "midi": 46,
      "hit": false,
      "t": 17677.384000000013,
      "d": 158.0642000000007,
      "v": 93
    },
    {
      "midi": 58,
      "hit": false,
      "t": 17677.384000000013,
      "d": 167.7416000000012,
      "v": 93
    },
    {
      "midi": 53,
      "hit": false,
      "t": 17677.384000000013,
      "d": 174.19320000000153,
      "v": 89
    },
    {
      "midi": 48,
      "hit": false,
      "t": 20128.992000000013,
      "d": 185.48349999999846,
      "v": 89
    },
    {
      "midi": 60,
      "hit": false,
      "t": 20128.992000000013,
      "d": 187.09639999999854,
      "v": 93
    },
    {
      "midi": 55,
      "hit": false,
      "t": 20128.992000000013,
      "d": 203.22539999999935,
      "v": 76
    },
    {
      "midi": 60,
      "hit": false,
      "t": 20774.152000000013,
      "d": 187.09639999999854,
      "v": 107
    },
    {
      "midi": 55,
      "hit": false,
      "t": 20774.152000000013,
      "d": 188.70929999999862,
      "v": 98
    },
    {
      "midi": 48,
      "hit": false,
      "t": 20774.152000000013,
      "d": 195.16089999999895,
      "v": 98
    },
    {
      "midi": 58,
      "hit": false,
      "t": 23225.760000000013,
      "d": 158.0642000000007,
      "v": 93
    },
    {
      "midi": 53,
      "hit": false,
      "t": 23225.760000000013,
      "d": 159.6771000000008,
      "v": 89
    },
    {
      "midi": 46,
      "hit": false,
      "t": 23225.760000000013,
      "d": 166.12870000000112,
      "v": 93
    },
    {
      "midi": 53,
      "hit": false,
      "t": 23870.920000000013,
      "d": 151.61260000000038,
      "v": 89
    },
    {
      "midi": 58,
      "hit": false,
      "t": 23870.920000000013,
      "d": 158.0642000000007,
      "v": 98
    },
    {
      "midi": 46,
      "hit": false,
      "t": 23870.920000000013,
      "d": 167.7416000000012,
      "v": 102
    },
    {
      "midi": 48,
      "hit": false,
      "t": 26322.528000000013,
      "d": 180.6447999999982,
      "v": 93
    },
    {
      "midi": 60,
      "hit": false,
      "t": 26322.528000000013,
      "d": 196.77379999999903,
      "v": 93
    },
    {
      "midi": 55,
      "hit": false,
      "t": 26322.528000000013,
      "d": 212.90279999999984,
      "v": 72
    },
    {
      "midi": 48,
      "hit": false,
      "t": 26967.688000000013,
      "d": 199.9995999999992,
      "v": 93
    },
    {
      "midi": 60,
      "hit": false,
      "t": 26967.688000000013,
      "d": 201.61249999999927,
      "v": 102
    },
    {
      "midi": 55,
      "hit": false,
      "t": 26967.688000000013,
      "d": 219.35440000000017,
      "v": 89
    },
    {
      "midi": 53,
      "hit": false,
      "t": 29419.296000000013,
      "d": 2456.4467000000004,
      "v": 85
    },
    {
      "midi": 46,
      "hit": false,
      "t": 29419.296000000013,
      "d": 2458.0596000000005,
      "v": 85
    },
    {
      "midi": 58,
      "hit": false,
      "t": 29419.296000000013,
      "d": 2488.704700000002,
      "v": 89
    },
    {
      "midi": 62,
      "hit": false,
      "t": 29419.296000000013,
      "d": 2514.5111000000034,
      "v": 98
    },
    {
      "midi": 57,
      "hit": false,
      "t": 32516.064000000017,
      "d": 2288.7050999999956,
      "v": 76
    },
    {
      "midi": 53,
      "hit": false,
      "t": 32516.064000000017,
      "d": 2351.6081999999988,
      "v": 85
    },
    {
      "midi": 50,
      "hit": false,
      "t": 32516.064000000017,
      "d": 2369.3500999999997,
      "v": 89
    },
    {
      "midi": 69,
      "hit": false,
      "t": 32516.064000000017,
      "d": 2385.4791000000005,
      "v": 93
    },
    {
      "midi": 65,
      "hit": false,
      "t": 32516.064000000017,
      "d": 2390.3178000000007,
      "v": 85
    },
    {
      "midi": 60,
      "hit": false,
      "t": 32516.064000000017,
      "d": 2395.156500000001,
      "v": 85
    },
    {
      "midi": 55,
      "hit": false,
      "t": 35612.83200000002,
      "d": 595.160100000001,
      "v": 89
    },
    {
      "midi": 59,
      "hit": false,
      "t": 35612.83200000002,
      "d": 616.127800000002,
      "v": 93
    },
    {
      "midi": 62,
      "hit": false,
      "t": 35612.83200000002,
      "d": 620.9665000000023,
      "v": 102
    },
    {
      "midi": 43,
      "hit": false,
      "t": 35612.83200000002,
      "d": 843.5467000000062,
      "v": 89
    },
    {
      "midi": 50,
      "hit": false,
      "t": 36257.99200000002,
      "d": 91.93529999999737,
      "v": 93
    },
    {
      "midi": 57,
      "hit": false,
      "t": 36387.02400000002,
      "d": 103.22560000000522,
      "v": 113
    },
    {
      "midi": 62,
      "hit": false,
      "t": 36387.02400000002,
      "d": 124.19330000000627,
      "v": 107
    },
    {
      "midi": 59,
      "hit": false,
      "t": 37161.21600000002,
      "d": 75.80629999999655,
      "v": 107
    },
    {
      "midi": 55,
      "hit": false,
      "t": 37161.21600000002,
      "d": 79.03209999999672,
      "v": 93
    },
    {
      "midi": 62,
      "hit": false,
      "t": 37161.21600000002,
      "d": 101.61269999999786,
      "v": 107
    },
    {
      "midi": 43,
      "hit": false,
      "t": 37161.21600000002,
      "d": 127.41909999999916,
      "v": 93
    },
    {
      "midi": 71,
      "hit": false,
      "t": 37935.408000000025,
      "d": 74.19339999999647,
      "v": 93
    },
    {
      "midi": 74,
      "hit": false,
      "t": 37935.408000000025,
      "d": 85.48369999999704,
      "v": 89
    },
    {
      "midi": 67,
      "hit": false,
      "t": 37935.408000000025,
      "d": 88.7094999999972,
      "v": 76
    },
    {
      "midi": 55,
      "hit": false,
      "t": 38064.440000000024,
      "d": 70.96760000000359,
      "v": 62
    },
    {
      "midi": 71,
      "hit": false,
      "t": 38193.47200000003,
      "d": 85.48369999999704,
      "v": 93
    },
    {
      "midi": 67,
      "hit": false,
      "t": 38193.47200000003,
      "d": 93.54819999999745,
      "v": 85
    },
    {
      "midi": 74,
      "hit": false,
      "t": 38193.47200000003,
      "d": 96.77399999999761,
      "v": 98
    },
    {
      "midi": 55,
      "hit": false,
      "t": 38322.50400000003,
      "d": 106.4513999999981,
      "v": 107
    },
    {
      "midi": 71,
      "hit": false,
      "t": 38451.53600000003,
      "d": 88.7094999999972,
      "v": 98
    },
    {
      "midi": 67,
      "hit": false,
      "t": 38451.53600000003,
      "d": 91.93529999999737,
      "v": 89
    },
    {
      "midi": 74,
      "hit": false,
      "t": 38451.53600000003,
      "d": 106.4513999999981,
      "v": 102
    },
    {
      "midi": 55,
      "hit": false,
      "t": 38580.56800000003,
      "d": 80.64500000000407,
      "v": 119
    },
    {
      "midi": 65,
      "hit": false,
      "t": 38709.600000000035,
      "d": 291.9349000000002,
      "v": 89
    },
    {
      "midi": 62,
      "hit": false,
      "t": 38709.600000000035,
      "d": 299.9994000000006,
      "v": 102
    },
    {
      "midi": 58,
      "hit": false,
      "t": 38709.600000000035,
      "d": 309.6768000000011,
      "v": 80
    },
    {
      "midi": 46,
      "hit": false,
      "t": 38709.600000000035,
      "d": 420.96689999999944,
      "v": 102
    },
    {
      "midi": 58,
      "hit": false,
      "t": 39096.69600000003,
      "d": 295.16070000000036,
      "v": 59
    },
    {
      "midi": 62,
      "hit": false,
      "t": 39096.69600000003,
      "d": 317.7413000000015,
      "v": 76
    },
    {
      "midi": 65,
      "hit": false,
      "t": 39096.69600000003,
      "d": 338.70900000000256,
      "v": 76
    },
    {
      "midi": 58,
      "hit": false,
      "t": 39483.79200000004,
      "d": 240.3220999999976,
      "v": 62
    },
    {
      "midi": 46,
      "hit": false,
      "t": 39741.856000000036,
      "d": 108.06429999999818,
      "v": 107
    },
    {
      "midi": 62,
      "hit": false,
      "t": 39870.888000000035,
      "d": 91.93529999999737,
      "v": 102
    },
    {
      "midi": 65,
      "hit": false,
      "t": 39870.888000000035,
      "d": 119.35459999999875,
      "v": 93
    },
    {
      "midi": 58,
      "hit": false,
      "t": 39870.888000000035,
      "d": 124.193299999999,
      "v": 76
    },
    {
      "midi": 53,
      "hit": false,
      "t": 40257.98400000003,
      "d": 662.9019000000044,
      "v": 80
    },
    {
      "midi": 41,
      "hit": false,
      "t": 40257.98400000003,
      "d": 811.2887000000046,
      "v": 85
    },
    {
      "midi": 60,
      "hit": false,
      "t": 40257.98400000003,
      "d": 1020.9657000000079,
      "v": 89
    },
    {
      "midi": 57,
      "hit": false,
      "t": 40257.98400000003,
      "d": 1029.0302000000083,
      "v": 89
    },
    {
      "midi": 53,
      "hit": false,
      "t": 41032.176000000036,
      "d": 256.4511000000057,
      "v": 57
    },
    {
      "midi": 41,
      "hit": false,
      "t": 41290.24000000004,
      "d": 88.7094999999972,
      "v": 89
    },
    {
      "midi": 53,
      "hit": false,
      "t": 41419.27200000004,
      "d": 69.3547000000035,
      "v": 85
    },
    {
      "midi": 57,
      "hit": false,
      "t": 41419.27200000004,
      "d": 72.58050000000367,
      "v": 98
    },
    {
      "midi": 60,
      "hit": false,
      "t": 41419.27200000004,
      "d": 101.61270000000513,
      "v": 98
    },
    {
      "midi": 48,
      "hit": false,
      "t": 41806.368000000046,
      "d": 2440.3176999999996,
      "v": 80
    },
    {
      "midi": 55,
      "hit": false,
      "t": 42064.432000000044,
      "d": 130.64489999999932,
      "v": 60
    },
    {
      "midi": 60,
      "hit": false,
      "t": 42193.46400000004,
      "d": 245.16079999999783,
      "v": 89
    },
    {
      "midi": 64,
      "hit": false,
      "t": 42193.46400000004,
      "d": 249.99949999999808,
      "v": 93
    },
    {
      "midi": 67,
      "hit": false,
      "t": 42193.46400000004,
      "d": 304.83810000000085,
      "v": 93
    },
    {
      "midi": 67,
      "hit": false,
      "t": 42580.56000000004,
      "d": 62.90310000000318,
      "v": 27
    },
    {
      "midi": 60,
      "hit": false,
      "t": 42580.56000000004,
      "d": 143.54809999999998,
      "v": 59
    },
    {
      "midi": 55,
      "hit": false,
      "t": 42838.62400000004,
      "d": 95.16109999999753,
      "v": 76
    },
    {
      "midi": 65,
      "hit": false,
      "t": 42967.65600000004,
      "d": 149.9997000000003,
      "v": 89
    },
    {
      "midi": 60,
      "hit": false,
      "t": 42967.65600000004,
      "d": 156.45130000000063,
      "v": 85
    },
    {
      "midi": 67,
      "hit": false,
      "t": 42967.65600000004,
      "d": 159.6771000000008,
      "v": 89
    },
    {
      "midi": 60,
      "hit": false,
      "t": 43225.72000000004,
      "d": 399.9991999999984,
      "v": 85
    },
    {
      "midi": 64,
      "hit": false,
      "t": 43225.72000000004,
      "d": 404.8378999999986,
      "v": 89
    },
    {
      "midi": 67,
      "hit": false,
      "t": 43225.72000000004,
      "d": 424.1926999999996,
      "v": 85
    },
    {
      "midi": 55,
      "hit": false,
      "t": 43612.816000000035,
      "d": 74.19340000000375,
      "v": 85
    },
    {
      "midi": 64,
      "hit": false,
      "t": 43741.84800000004,
      "d": 212.90280000000348,
      "v": 93
    },
    {
      "midi": 60,
      "hit": false,
      "t": 43741.84800000004,
      "d": 224.19310000000405,
      "v": 89
    },
    {
      "midi": 67,
      "hit": false,
      "t": 43741.84800000004,
      "d": 253.22530000000552,
      "v": 89
    },
    {
      "midi": 67,
      "hit": false,
      "t": 44128.94400000005,
      "d": 306.45100000000093,
      "v": 93
    },
    {
      "midi": 62,
      "hit": false,
      "t": 44128.94400000005,
      "d": 311.2897000000012,
      "v": 98
    },
    {
      "midi": 60,
      "hit": false,
      "t": 44516.040000000045,
      "d": 114.51589999999851,
      "v": 107
    },
    {
      "midi": 46,
      "hit": false,
      "t": 44903.13600000004,
      "d": 672.5792999999976,
      "v": 107
    },
    {
      "midi": 62,
      "hit": false,
      "t": 45290.23200000004,
      "d": 183.870600000002,
      "v": 113
    },
    {
      "midi": 65,
      "hit": false,
      "t": 45290.23200000004,
      "d": 191.93510000000242,
      "v": 98
    },
    {
      "midi": 58,
      "hit": false,
      "t": 45290.23200000004,
      "d": 195.16090000000258,
      "v": 93
    },
    {
      "midi": 62,
      "hit": false,
      "t": 46064.42400000004,
      "d": 111.29010000000562,
      "v": 102
    },
    {
      "midi": 65,
      "hit": false,
      "t": 46064.42400000004,
      "d": 130.6449000000066,
      "v": 93
    },
    {
      "midi": 58,
      "hit": false,
      "t": 46064.42400000004,
      "d": 156.4513000000079,
      "v": 85
    },
    {
      "midi": 41,
      "hit": false,
      "t": 46451.52000000005,
      "d": 903.224000000002,
      "v": 72
    },
    {
      "midi": 53,
      "hit": false,
      "t": 46838.616000000045,
      "d": 461.2894000000015,
      "v": 93
    },
    {
      "midi": 60,
      "hit": false,
      "t": 46838.616000000045,
      "d": 480.64420000000246,
      "v": 102
    },
    {
      "midi": 57,
      "hit": false,
      "t": 46838.616000000045,
      "d": 490.32160000000295,
      "v": 102
    },
    {
      "midi": 48,
      "hit": false,
      "t": 47225.71200000004,
      "d": 164.5158000000083,
      "v": 64
    },
    {
      "midi": 57,
      "hit": false,
      "t": 47612.80800000005,
      "d": 91.93529999999737,
      "v": 80
    },
    {
      "midi": 53,
      "hit": false,
      "t": 47612.80800000005,
      "d": 103.22559999999794,
      "v": 76
    },
    {
      "midi": 60,
      "hit": false,
      "t": 47612.80800000005,
      "d": 137.09649999999965,
      "v": 80
    },
    {
      "midi": 48,
      "hit": false,
      "t": 47870.87200000005,
      "d": 1403.2229999999981,
      "v": 98
    },
    {
      "midi": 55,
      "hit": false,
      "t": 48257.968000000044,
      "d": 112.90299999999843,
      "v": 80
    },
    {
      "midi": 60,
      "hit": false,
      "t": 48387.000000000044,
      "d": 883.869200000001,
      "v": 72
    },
    {
      "midi": 64,
      "hit": false,
      "t": 48387.000000000044,
      "d": 885.4821000000011,
      "v": 89
    },
    {
      "midi": 67,
      "hit": false,
      "t": 48387.000000000044,
      "d": 898.3853000000017,
      "v": 89
    },
    {
      "midi": 55,
      "hit": false,
      "t": 49161.19200000005,
      "d": 93.54819999999745,
      "v": 89
    },
    {
      "midi": 64,
      "hit": false,
      "t": 49419.256000000045,
      "d": 77.41919999999664,
      "v": 107
    },
    {
      "midi": 60,
      "hit": false,
      "t": 49419.256000000045,
      "d": 90.32239999999729,
      "v": 93
    },
    {
      "midi": 67,
      "hit": false,
      "t": 49419.256000000045,
      "d": 96.77399999999761,
      "v": 98
    },
    {
      "midi": 48,
      "hit": false,
      "t": 49806.35200000004,
      "d": 903.224000000002,
      "v": 98
    },
    {
      "midi": 64,
      "hit": false,
      "t": 49935.38400000004,
      "d": 261.28979999999865,
      "v": 93
    },
    {
      "midi": 60,
      "hit": false,
      "t": 49935.38400000004,
      "d": 279.03169999999955,
      "v": 89
    },
    {
      "midi": 67,
      "hit": false,
      "t": 49935.38400000004,
      "d": 285.4832999999999,
      "v": 93
    },
    {
      "midi": 55,
      "hit": false,
      "t": 50193.44800000004,
      "d": 85.48370000000432,
      "v": 93
    },
    {
      "midi": 60,
      "hit": false,
      "t": 50322.48000000005,
      "d": 248.386599999998,
      "v": 85
    },
    {
      "midi": 62,
      "hit": false,
      "t": 50322.48000000005,
      "d": 248.386599999998,
      "v": 107
    },
    {
      "midi": 67,
      "hit": false,
      "t": 50322.48000000005,
      "d": 270.96719999999914,
      "v": 93
    },
    {
      "midi": 55,
      "hit": false,
      "t": 50580.544000000045,
      "d": 93.54819999999745,
      "v": 102
    },
    {
      "midi": 60,
      "hit": false,
      "t": 50709.576000000045,
      "d": 109.67719999999827,
      "v": 89
    },
    {
      "midi": 64,
      "hit": false,
      "t": 50709.576000000045,
      "d": 129.03199999999924,
      "v": 93
    },
    {
      "midi": 67,
      "hit": false,
      "t": 50709.576000000045,
      "d": 149.9997000000003,
      "v": 93
    },
    {
      "midi": 65,
      "hit": false,
      "t": 51096.67200000004,
      "d": 291.9349000000002,
      "v": 89
    },
    {
      "midi": 62,
      "hit": false,
      "t": 51096.67200000004,
      "d": 299.9994000000006,
      "v": 102
    },
    {
      "midi": 58,
      "hit": false,
      "t": 51096.67200000004,
      "d": 309.6768000000011,
      "v": 80
    },
    {
      "midi": 46,
      "hit": false,
      "t": 51096.67200000004,
      "d": 420.96689999999944,
      "v": 102
    },
    {
      "midi": 58,
      "hit": false,
      "t": 51483.76800000004,
      "d": 295.16070000000036,
      "v": 59
    },
    {
      "midi": 62,
      "hit": false,
      "t": 51483.76800000004,
      "d": 317.7413000000015,
      "v": 76
    },
    {
      "midi": 65,
      "hit": false,
      "t": 51483.76800000004,
      "d": 338.70900000000256,
      "v": 76
    },
    {
      "midi": 58,
      "hit": false,
      "t": 51870.864000000045,
      "d": 240.3220999999976,
      "v": 62
    },
    {
      "midi": 46,
      "hit": false,
      "t": 52128.92800000004,
      "d": 108.06429999999818,
      "v": 107
    },
    {
      "midi": 62,
      "hit": false,
      "t": 52257.96000000004,
      "d": 91.93529999999737,
      "v": 102
    },
    {
      "midi": 65,
      "hit": false,
      "t": 52257.96000000004,
      "d": 119.35459999999875,
      "v": 93
    },
    {
      "midi": 58,
      "hit": false,
      "t": 52257.96000000004,
      "d": 124.193299999999,
      "v": 76
    },
    {
      "midi": 53,
      "hit": false,
      "t": 52645.05600000004,
      "d": 662.9019000000044,
      "v": 80
    },
    {
      "midi": 41,
      "hit": false,
      "t": 52645.05600000004,
      "d": 811.2887000000046,
      "v": 85
    },
    {
      "midi": 60,
      "hit": false,
      "t": 52645.05600000004,
      "d": 1020.9657000000079,
      "v": 89
    },
    {
      "midi": 57,
      "hit": false,
      "t": 52645.05600000004,
      "d": 1029.0302000000083,
      "v": 89
    },
    {
      "midi": 53,
      "hit": false,
      "t": 53419.24800000004,
      "d": 256.4511000000057,
      "v": 57
    },
    {
      "midi": 41,
      "hit": false,
      "t": 53677.31200000005,
      "d": 88.7094999999972,
      "v": 89
    },
    {
      "midi": 53,
      "hit": false,
      "t": 53806.34400000005,
      "d": 69.3547000000035,
      "v": 85
    },
    {
      "midi": 57,
      "hit": false,
      "t": 53806.34400000005,
      "d": 72.58050000000367,
      "v": 98
    },
    {
      "midi": 60,
      "hit": false,
      "t": 53806.34400000005,
      "d": 101.61270000000513,
      "v": 98
    },
    {
      "midi": 48,
      "hit": false,
      "t": 54193.44000000005,
      "d": 1483.867999999995,
      "v": 80
    },
    {
      "midi": 55,
      "hit": false,
      "t": 54451.50400000005,
      "d": 130.64489999999932,
      "v": 60
    },
    {
      "midi": 60,
      "hit": false,
      "t": 54580.53600000005,
      "d": 245.16079999999783,
      "v": 89
    },
    {
      "midi": 64,
      "hit": false,
      "t": 54580.53600000005,
      "d": 249.99949999999808,
      "v": 93
    },
    {
      "midi": 67,
      "hit": false,
      "t": 54580.53600000005,
      "d": 304.83810000000085,
      "v": 93
    },
    {
      "midi": 67,
      "hit": false,
      "t": 54967.63200000005,
      "d": 62.90310000000318,
      "v": 27
    },
    {
      "midi": 60,
      "hit": false,
      "t": 54967.63200000005,
      "d": 143.54809999999998,
      "v": 59
    },
    {
      "midi": 55,
      "hit": false,
      "t": 55225.69600000005,
      "d": 95.16109999999753,
      "v": 76
    },
    {
      "midi": 65,
      "hit": false,
      "t": 55354.72800000005,
      "d": 149.9997000000003,
      "v": 89
    },
    {
      "midi": 60,
      "hit": false,
      "t": 55354.72800000005,
      "d": 156.45130000000063,
      "v": 85
    },
    {
      "midi": 67,
      "hit": false,
      "t": 55354.72800000005,
      "d": 159.6771000000008,
      "v": 89
    },
    {
      "midi": 60,
      "hit": false,
      "t": 55612.792000000045,
      "d": 103.22560000000522,
      "v": 85
    },
    {
      "midi": 64,
      "hit": false,
      "t": 55612.792000000045,
      "d": 103.22560000000522,
      "v": 89
    },
    {
      "midi": 67,
      "hit": false,
      "t": 55612.792000000045,
      "d": 103.22560000000522,
      "v": 85
    },
    {
      "midi": 65,
      "hit": false,
      "t": 55741.82400000005,
      "d": 133.8706999999995,
      "v": 98
    },
    {
      "midi": 50,
      "hit": false,
      "t": 55741.82400000005,
      "d": 143.54809999999998,
      "v": 89
    },
    {
      "midi": 62,
      "hit": false,
      "t": 55741.82400000005,
      "d": 143.54809999999998,
      "v": 93
    },
    {
      "midi": 69,
      "hit": false,
      "t": 55741.82400000005,
      "d": 154.83840000000055,
      "v": 93
    },
    {
      "midi": 65,
      "hit": false,
      "t": 56128.92000000005,
      "d": 114.51589999999851,
      "v": 89
    },
    {
      "midi": 69,
      "hit": false,
      "t": 56128.92000000005,
      "d": 133.8706999999995,
      "v": 93
    },
    {
      "midi": 50,
      "hit": false,
      "t": 56128.92000000005,
      "d": 137.09649999999965,
      "v": 93
    },
    {
      "midi": 62,
      "hit": false,
      "t": 56128.92000000005,
      "d": 140.3222999999998,
      "v": 89
    },
    {
      "midi": 57,
      "hit": false,
      "t": 56516.01600000005,
      "d": 180.64480000000185,
      "v": 107
    },
    {
      "midi": 53,
      "hit": false,
      "t": 56516.01600000005,
      "d": 183.870600000002,
      "v": 89
    },
    {
      "midi": 60,
      "hit": false,
      "t": 56516.01600000005,
      "d": 190.32220000000234,
      "v": 89
    },
    {
      "midi": 53,
      "hit": false,
      "t": 56903.112000000045,
      "d": 177.4190000000017,
      "v": 89
    },
    {
      "midi": 57,
      "hit": false,
      "t": 56903.112000000045,
      "d": 182.25770000000193,
      "v": 98
    },
    {
      "midi": 60,
      "hit": false,
      "t": 56903.112000000045,
      "d": 193.5480000000025,
      "v": 93
    },
    {
      "midi": 55,
      "hit": false,
      "t": 57290.20800000004,
      "d": 279.03169999999955,
      "v": 76
    },
    {
      "midi": 62,
      "hit": false,
      "t": 57290.20800000004,
      "d": 279.03169999999955,
      "v": 98
    },
    {
      "midi": 59,
      "hit": false,
      "t": 57290.20800000004,
      "d": 280.6445999999996,
      "v": 93
    },
    {
      "midi": 43,
      "hit": false,
      "t": 57290.20800000004,
      "d": 441.9346000000005,
      "v": 89
    },
    {
      "midi": 55,
      "hit": false,
      "t": 57677.30400000004,
      "d": 232.25760000000446,
      "v": 72
    },
    {
      "midi": 59,
      "hit": false,
      "t": 57677.30400000004,
      "d": 240.32210000000487,
      "v": 89
    },
    {
      "midi": 62,
      "hit": false,
      "t": 57677.30400000004,
      "d": 241.93500000000495,
      "v": 89
    },
    {
      "midi": 43,
      "hit": false,
      "t": 57935.368000000046,
      "d": 120.96749999999884,
      "v": 85
    },
    {
      "midi": 55,
      "hit": false,
      "t": 58064.400000000045,
      "d": 251.61239999999816,
      "v": 72
    },
    {
      "midi": 62,
      "hit": false,
      "t": 58064.400000000045,
      "d": 259.67689999999857,
      "v": 93
    },
    {
      "midi": 59,
      "hit": false,
      "t": 58064.400000000045,
      "d": 262.90269999999873,
      "v": 89
    },
    {
      "midi": 43,
      "hit": false,
      "t": 58322.46400000004,
      "d": 153.22550000000047,
      "v": 93
    },
    {
      "midi": 62,
      "hit": false,
      "t": 58451.49600000004,
      "d": 188.70930000000226,
      "v": 98
    },
    {
      "midi": 59,
      "hit": false,
      "t": 58451.49600000004,
      "d": 193.5480000000025,
      "v": 98
    },
    {
      "midi": 55,
      "hit": false,
      "t": 58451.49600000004,
      "d": 199.99960000000283,
      "v": 89
    },
    {
      "midi": 57,
      "hit": false,
      "t": 58838.59200000005,
      "d": 114.51589999999851,
      "v": 98
    },
    {
      "midi": 53,
      "hit": false,
      "t": 58838.59200000005,
      "d": 120.96749999999884,
      "v": 93
    },
    {
      "midi": 41,
      "hit": false,
      "t": 58838.59200000005,
      "d": 129.03199999999924,
      "v": 98
    },
    {
      "midi": 60,
      "hit": false,
      "t": 58838.59200000005,
      "d": 129.03199999999924,
      "v": 102
    },
    {
      "midi": 60,
      "hit": false,
      "t": 61935.360000000044,
      "d": 149.9997000000003,
      "v": 76
    },
    {
      "midi": 55,
      "hit": false,
      "t": 61935.360000000044,
      "d": 156.45130000000063,
      "v": 93
    },
    {
      "midi": 36,
      "hit": false,
      "t": 61935.360000000044,
      "d": 159.6771000000008,
      "v": 89
    },
    {
      "midi": 48,
      "hit": false,
      "t": 61935.360000000044,
      "d": 179.03190000000177,
      "v": 89
    },
    {
      "midi": 60,
      "hit": false,
      "t": 62580.52000000005,
      "d": 140.3222999999998,
      "v": 93
    },
    {
      "midi": 55,
      "hit": false,
      "t": 62580.52000000005,
      "d": 141.9351999999999,
      "v": 98
    },
    {
      "midi": 48,
      "hit": false,
      "t": 62580.52000000005,
      "d": 149.9997000000003,
      "v": 93
    },
    {
      "midi": 36,
      "hit": false,
      "t": 62580.52000000005,
      "d": 153.22550000000047,
      "v": 89
    },
    {
      "midi": 36,
      "hit": false,
      "t": 65032.12800000005,
      "d": 120.96749999999884,
      "v": 80
    },
    {
      "midi": 55,
      "hit": false,
      "t": 65032.12800000005,
      "d": 146.77390000000014,
      "v": 89
    },
    {
      "midi": 48,
      "hit": false,
      "t": 65032.12800000005,
      "d": 158.0642000000007,
      "v": 85
    },
    {
      "midi": 60,
      "hit": false,
      "t": 65032.12800000005,
      "d": 167.7416000000012,
      "v": 98
    },
    {
      "midi": 55,
      "hit": false,
      "t": 65677.28800000004,
      "d": 125.80620000000636,
      "v": 98
    },
    {
      "midi": 48,
      "hit": false,
      "t": 65677.28800000004,
      "d": 130.64489999999932,
      "v": 85
    },
    {
      "midi": 36,
      "hit": false,
      "t": 65677.28800000004,
      "d": 132.25779999999213,
      "v": 85
    },
    {
      "midi": 60,
      "hit": false,
      "t": 65677.28800000004,
      "d": 145.16099999999278,
      "v": 98
    },
    {
      "midi": 48,
      "hit": false,
      "t": 68128.89600000004,
      "d": 180.64479999999458,
      "v": 93
    },
    {
      "midi": 60,
      "hit": false,
      "t": 68128.89600000004,
      "d": 196.7737999999954,
      "v": 93
    },
    {
      "midi": 55,
      "hit": false,
      "t": 68128.89600000004,
      "d": 212.9027999999962,
      "v": 72
    },
    {
      "midi": 48,
      "hit": false,
      "t": 68774.05600000004,
      "d": 199.99959999999555,
      "v": 93
    },
    {
      "midi": 60,
      "hit": false,
      "t": 68774.05600000004,
      "d": 201.61249999998836,
      "v": 102
    },
    {
      "midi": 55,
      "hit": false,
      "t": 68774.05600000004,
      "d": 219.35439999998198,
      "v": 89
    },
    {
      "midi": 58,
      "hit": false,
      "t": 71225.66400000002,
      "d": 167.74159999999392,
      "v": 89
    },
    {
      "midi": 46,
      "hit": false,
      "t": 71225.66400000002,
      "d": 183.87059999999474,
      "v": 102
    },
    {
      "midi": 53,
      "hit": false,
      "t": 71225.66400000002,
      "d": 187.0963999999949,
      "v": 93
    },
    {
      "midi": 46,
      "hit": false,
      "t": 71870.82400000001,
      "d": 158.06419999999343,
      "v": 93
    },
    {
      "midi": 58,
      "hit": false,
      "t": 71870.82400000001,
      "d": 167.74159999999392,
      "v": 93
    },
    {
      "midi": 53,
      "hit": false,
      "t": 71870.82400000001,
      "d": 174.19319999999425,
      "v": 89
    },
    {
      "midi": 48,
      "hit": false,
      "t": 74322.432,
      "d": 185.4835000000021,
      "v": 89
    },
    {
      "midi": 60,
      "hit": false,
      "t": 74322.432,
      "d": 187.0963999999949,
      "v": 93
    },
    {
      "midi": 55,
      "hit": false,
      "t": 74322.432,
      "d": 203.22539999999572,
      "v": 76
    },
    {
      "midi": 60,
      "hit": false,
      "t": 74967.59199999999,
      "d": 187.0963999999949,
      "v": 107
    },
    {
      "midi": 55,
      "hit": false,
      "t": 74967.59199999999,
      "d": 188.7092999999877,
      "v": 98
    },
    {
      "midi": 48,
      "hit": false,
      "t": 74967.59199999999,
      "d": 195.16089999998803,
      "v": 98
    },
    {
      "midi": 58,
      "hit": false,
      "t": 77419.19999999998,
      "d": 158.06419999999343,
      "v": 93
    },
    {
      "midi": 53,
      "hit": false,
      "t": 77419.19999999998,
      "d": 159.67709999998624,
      "v": 89
    },
    {
      "midi": 46,
      "hit": false,
      "t": 77419.19999999998,
      "d": 166.12869999998657,
      "v": 93
    },
    {
      "midi": 53,
      "hit": false,
      "t": 78064.35999999997,
      "d": 151.6125999999931,
      "v": 89
    },
    {
      "midi": 58,
      "hit": false,
      "t": 78064.35999999997,
      "d": 158.06419999999343,
      "v": 98
    },
    {
      "midi": 46,
      "hit": false,
      "t": 78064.35999999997,
      "d": 167.74159999999392,
      "v": 102
    },
    {
      "midi": 48,
      "hit": false,
      "t": 80515.96799999996,
      "d": 180.64479999999458,
      "v": 93
    },
    {
      "midi": 60,
      "hit": false,
      "t": 80515.96799999996,
      "d": 196.7737999999954,
      "v": 93
    },
    {
      "midi": 55,
      "hit": false,
      "t": 80515.96799999996,
      "d": 212.9027999999962,
      "v": 72
    },
    {
      "midi": 48,
      "hit": false,
      "t": 81161.12799999997,
      "d": 199.99959999999555,
      "v": 93
    },
    {
      "midi": 60,
      "hit": false,
      "t": 81161.12799999997,
      "d": 201.61249999998836,
      "v": 102
    },
    {
      "midi": 55,
      "hit": false,
      "t": 81161.12799999997,
      "d": 219.35439999998198,
      "v": 89
    },
    {
      "midi": 53,
      "hit": false,
      "t": 83612.73599999995,
      "d": 2456.4467000000004,
      "v": 85
    },
    {
      "midi": 46,
      "hit": false,
      "t": 83612.73599999995,
      "d": 2458.059599999993,
      "v": 85
    },
    {
      "midi": 58,
      "hit": false,
      "t": 83612.73599999995,
      "d": 2488.7046999999875,
      "v": 89
    },
    {
      "midi": 62,
      "hit": false,
      "t": 83612.73599999995,
      "d": 2514.511099999989,
      "v": 98
    },
    {
      "midi": 57,
      "hit": false,
      "t": 86709.50399999993,
      "d": 2288.705099999992,
      "v": 76
    },
    {
      "midi": 53,
      "hit": false,
      "t": 86709.50399999993,
      "d": 2351.608199999988,
      "v": 85
    },
    {
      "midi": 50,
      "hit": false,
      "t": 86709.50399999993,
      "d": 2369.3500999999815,
      "v": 89
    },
    {
      "midi": 69,
      "hit": false,
      "t": 86709.50399999993,
      "d": 2385.4790999999823,
      "v": 93
    },
    {
      "midi": 65,
      "hit": false,
      "t": 86709.50399999993,
      "d": 2390.3177999999753,
      "v": 85
    },
    {
      "midi": 60,
      "hit": false,
      "t": 86709.50399999993,
      "d": 2395.156499999968,
      "v": 85
    },
    {
      "midi": 55,
      "hit": false,
      "t": 89806.2719999999,
      "d": 595.1601000000082,
      "v": 89
    },
    {
      "midi": 59,
      "hit": false,
      "t": 89806.2719999999,
      "d": 616.127800000002,
      "v": 93
    },
    {
      "midi": 62,
      "hit": false,
      "t": 89806.2719999999,
      "d": 620.966499999995,
      "v": 102
    },
    {
      "midi": 43,
      "hit": false,
      "t": 89806.2719999999,
      "d": 843.5466999999771,
      "v": 89
    },
    {
      "midi": 50,
      "hit": false,
      "t": 90451.43199999988,
      "d": 91.93529999999737,
      "v": 93
    },
    {
      "midi": 57,
      "hit": false,
      "t": 90580.46399999988,
      "d": 103.22559999999066,
      "v": 113
    },
    {
      "midi": 62,
      "hit": false,
      "t": 90580.46399999988,
      "d": 124.19329999998445,
      "v": 107
    },
    {
      "midi": 59,
      "hit": false,
      "t": 91354.65599999986,
      "d": 75.80629999999655,
      "v": 107
    },
    {
      "midi": 55,
      "hit": false,
      "t": 91354.65599999986,
      "d": 79.03209999999672,
      "v": 93
    },
    {
      "midi": 62,
      "hit": false,
      "t": 91354.65599999986,
      "d": 101.61269999999786,
      "v": 107
    },
    {
      "midi": 43,
      "hit": false,
      "t": 91354.65599999986,
      "d": 127.41909999999916,
      "v": 93
    },
    {
      "midi": 71,
      "hit": false,
      "t": 92128.84799999985,
      "d": 74.19340000000375,
      "v": 93
    },
    {
      "midi": 74,
      "hit": false,
      "t": 92128.84799999985,
      "d": 85.48369999999704,
      "v": 89
    },
    {
      "midi": 67,
      "hit": false,
      "t": 92128.84799999985,
      "d": 88.7094999999972,
      "v": 76
    },
    {
      "midi": 55,
      "hit": false,
      "t": 92257.87999999984,
      "d": 70.96760000000359,
      "v": 62
    },
    {
      "midi": 71,
      "hit": false,
      "t": 92386.91199999985,
      "d": 85.48369999999704,
      "v": 93
    },
    {
      "midi": 67,
      "hit": false,
      "t": 92386.91199999985,
      "d": 93.54819999999017,
      "v": 85
    },
    {
      "midi": 74,
      "hit": false,
      "t": 92386.91199999985,
      "d": 96.77399999999034,
      "v": 98
    },
    {
      "midi": 55,
      "hit": false,
      "t": 92515.94399999984,
      "d": 106.45140000000538,
      "v": 107
    },
    {
      "midi": 71,
      "hit": false,
      "t": 92644.97599999985,
      "d": 88.7094999999972,
      "v": 98
    },
    {
      "midi": 67,
      "hit": false,
      "t": 92644.97599999985,
      "d": 91.93529999999737,
      "v": 89
    },
    {
      "midi": 74,
      "hit": false,
      "t": 92644.97599999985,
      "d": 106.45139999999083,
      "v": 102
    },
    {
      "midi": 55,
      "hit": false,
      "t": 92774.00799999984,
      "d": 80.64500000000407,
      "v": 119
    },
    {
      "midi": 65,
      "hit": false,
      "t": 92903.03999999985,
      "d": 291.9348999999929,
      "v": 89
    },
    {
      "midi": 62,
      "hit": false,
      "t": 92903.03999999985,
      "d": 299.99939999998605,
      "v": 102
    },
    {
      "midi": 58,
      "hit": false,
      "t": 92903.03999999985,
      "d": 309.67679999998654,
      "v": 80
    },
    {
      "midi": 46,
      "hit": false,
      "t": 92903.03999999985,
      "d": 420.9668999999849,
      "v": 102
    },
    {
      "midi": 58,
      "hit": false,
      "t": 93290.13599999984,
      "d": 295.1606999999931,
      "v": 59
    },
    {
      "midi": 62,
      "hit": false,
      "t": 93290.13599999984,
      "d": 317.7412999999942,
      "v": 76
    },
    {
      "midi": 65,
      "hit": false,
      "t": 93290.13599999984,
      "d": 338.708999999988,
      "v": 76
    },
    {
      "midi": 58,
      "hit": false,
      "t": 93677.23199999983,
      "d": 240.32210000000487,
      "v": 62
    },
    {
      "midi": 46,
      "hit": false,
      "t": 93935.29599999983,
      "d": 108.06429999999818,
      "v": 107
    },
    {
      "midi": 62,
      "hit": false,
      "t": 94064.32799999982,
      "d": 91.93529999999737,
      "v": 102
    },
    {
      "midi": 65,
      "hit": false,
      "t": 94064.32799999982,
      "d": 119.35459999999148,
      "v": 93
    },
    {
      "midi": 58,
      "hit": false,
      "t": 94064.32799999982,
      "d": 124.19329999998445,
      "v": 76
    },
    {
      "midi": 53,
      "hit": false,
      "t": 94451.4239999998,
      "d": 662.9018999999971,
      "v": 80
    },
    {
      "midi": 41,
      "hit": false,
      "t": 94451.4239999998,
      "d": 811.2886999999901,
      "v": 85
    },
    {
      "midi": 60,
      "hit": false,
      "t": 94451.4239999998,
      "d": 1020.9656999999861,
      "v": 89
    },
    {
      "midi": 57,
      "hit": false,
      "t": 94451.4239999998,
      "d": 1029.0301999999792,
      "v": 89
    },
    {
      "midi": 53,
      "hit": false,
      "t": 95225.61599999979,
      "d": 256.4510999999766,
      "v": 57
    },
    {
      "midi": 41,
      "hit": false,
      "t": 95483.67999999976,
      "d": 88.7094999999972,
      "v": 89
    },
    {
      "midi": 53,
      "hit": false,
      "t": 95612.71199999975,
      "d": 69.35469999999623,
      "v": 85
    },
    {
      "midi": 57,
      "hit": false,
      "t": 95612.71199999975,
      "d": 72.58049999999639,
      "v": 98
    },
    {
      "midi": 60,
      "hit": false,
      "t": 95612.71199999975,
      "d": 101.61269999999786,
      "v": 98
    },
    {
      "midi": 48,
      "hit": false,
      "t": 95999.80799999974,
      "d": 2440.3176999999705,
      "v": 80
    },
    {
      "midi": 55,
      "hit": false,
      "t": 96257.87199999974,
      "d": 130.64489999999932,
      "v": 60
    },
    {
      "midi": 60,
      "hit": false,
      "t": 96386.90399999975,
      "d": 245.16079999999783,
      "v": 89
    },
    {
      "midi": 64,
      "hit": false,
      "t": 96386.90399999975,
      "d": 249.9994999999908,
      "v": 93
    },
    {
      "midi": 67,
      "hit": false,
      "t": 96386.90399999975,
      "d": 304.8380999999936,
      "v": 93
    },
    {
      "midi": 67,
      "hit": false,
      "t": 96773.99999999974,
      "d": 62.9030999999959,
      "v": 27
    },
    {
      "midi": 60,
      "hit": false,
      "t": 96773.99999999974,
      "d": 143.54809999999998,
      "v": 59
    },
    {
      "midi": 55,
      "hit": false,
      "t": 97032.06399999974,
      "d": 95.16109999999753,
      "v": 76
    },
    {
      "midi": 65,
      "hit": false,
      "t": 97161.09599999973,
      "d": 149.9997000000003,
      "v": 89
    },
    {
      "midi": 60,
      "hit": false,
      "t": 97161.09599999973,
      "d": 156.45130000000063,
      "v": 85
    },
    {
      "midi": 67,
      "hit": false,
      "t": 97161.09599999973,
      "d": 159.6771000000008,
      "v": 89
    },
    {
      "midi": 60,
      "hit": false,
      "t": 97419.15999999973,
      "d": 399.99920000000566,
      "v": 85
    },
    {
      "midi": 64,
      "hit": false,
      "t": 97419.15999999973,
      "d": 404.8378999999986,
      "v": 89
    },
    {
      "midi": 67,
      "hit": false,
      "t": 97419.15999999973,
      "d": 424.1926999999996,
      "v": 85
    },
    {
      "midi": 55,
      "hit": false,
      "t": 97806.25599999973,
      "d": 74.1933999999892,
      "v": 85
    },
    {
      "midi": 64,
      "hit": false,
      "t": 97935.28799999972,
      "d": 212.9027999999962,
      "v": 93
    },
    {
      "midi": 60,
      "hit": false,
      "t": 97935.28799999972,
      "d": 224.1930999999895,
      "v": 89
    },
    {
      "midi": 67,
      "hit": false,
      "t": 97935.28799999972,
      "d": 253.22529999999097,
      "v": 89
    },
    {
      "midi": 67,
      "hit": false,
      "t": 98322.38399999971,
      "d": 306.45100000000093,
      "v": 93
    },
    {
      "midi": 62,
      "hit": false,
      "t": 98322.38399999971,
      "d": 311.2896999999939,
      "v": 98
    },
    {
      "midi": 60,
      "hit": false,
      "t": 98709.4799999997,
      "d": 114.51589999999851,
      "v": 107
    },
    {
      "midi": 46,
      "hit": false,
      "t": 99096.57599999971,
      "d": 672.579299999983,
      "v": 107
    },
    {
      "midi": 62,
      "hit": false,
      "t": 99483.6719999997,
      "d": 183.87059999999474,
      "v": 113
    },
    {
      "midi": 65,
      "hit": false,
      "t": 99483.6719999997,
      "d": 191.93509999998787,
      "v": 98
    },
    {
      "midi": 58,
      "hit": false,
      "t": 99483.6719999997,
      "d": 195.16089999998803,
      "v": 93
    },
    {
      "midi": 62,
      "hit": false,
      "t": 100257.8639999997,
      "d": 111.29009999999835,
      "v": 102
    },
    {
      "midi": 65,
      "hit": false,
      "t": 100257.8639999997,
      "d": 130.64489999999932,
      "v": 93
    },
    {
      "midi": 58,
      "hit": false,
      "t": 100257.8639999997,
      "d": 156.45130000000063,
      "v": 85
    },
    {
      "midi": 41,
      "hit": false,
      "t": 100644.9599999997,
      "d": 903.2240000000165,
      "v": 72
    },
    {
      "midi": 53,
      "hit": false,
      "t": 101032.0559999997,
      "d": 461.28940000000875,
      "v": 93
    },
    {
      "midi": 60,
      "hit": false,
      "t": 101032.0559999997,
      "d": 480.64420000000973,
      "v": 102
    },
    {
      "midi": 57,
      "hit": false,
      "t": 101032.0559999997,
      "d": 490.3216000000102,
      "v": 102
    },
    {
      "midi": 48,
      "hit": false,
      "t": 101419.15199999971,
      "d": 164.5158000000083,
      "v": 64
    },
    {
      "midi": 57,
      "hit": false,
      "t": 101806.24799999972,
      "d": 91.93529999999737,
      "v": 80
    },
    {
      "midi": 53,
      "hit": false,
      "t": 101806.24799999972,
      "d": 103.22559999999066,
      "v": 76
    },
    {
      "midi": 60,
      "hit": false,
      "t": 101806.24799999972,
      "d": 137.0964999999851,
      "v": 80
    },
    {
      "midi": 48,
      "hit": false,
      "t": 102064.3119999997,
      "d": 1403.2229999999981,
      "v": 98
    },
    {
      "midi": 55,
      "hit": false,
      "t": 102451.4079999997,
      "d": 112.9030000000057,
      "v": 80
    },
    {
      "midi": 60,
      "hit": false,
      "t": 102580.43999999971,
      "d": 883.869200000001,
      "v": 72
    },
    {
      "midi": 64,
      "hit": false,
      "t": 102580.43999999971,
      "d": 885.4820999999938,
      "v": 89
    },
    {
      "midi": 67,
      "hit": false,
      "t": 102580.43999999971,
      "d": 898.3852999999799,
      "v": 89
    },
    {
      "midi": 55,
      "hit": false,
      "t": 103354.6319999997,
      "d": 93.54820000000473,
      "v": 89
    },
    {
      "midi": 64,
      "hit": false,
      "t": 103612.69599999969,
      "d": 77.41920000000391,
      "v": 107
    },
    {
      "midi": 60,
      "hit": false,
      "t": 103612.69599999969,
      "d": 90.32240000000456,
      "v": 93
    },
    {
      "midi": 67,
      "hit": false,
      "t": 103612.69599999969,
      "d": 96.77400000000489,
      "v": 98
    },
    {
      "midi": 48,
      "hit": false,
      "t": 103999.7919999997,
      "d": 903.224000000002,
      "v": 98
    },
    {
      "midi": 64,
      "hit": false,
      "t": 104128.8239999997,
      "d": 261.28979999999865,
      "v": 93
    },
    {
      "midi": 60,
      "hit": false,
      "t": 104128.8239999997,
      "d": 279.03169999999227,
      "v": 89
    },
    {
      "midi": 67,
      "hit": false,
      "t": 104128.8239999997,
      "d": 285.4832999999926,
      "v": 93
    },
    {
      "midi": 55,
      "hit": false,
      "t": 104386.8879999997,
      "d": 85.48369999999704,
      "v": 93
    },
    {
      "midi": 60,
      "hit": false,
      "t": 104515.91999999969,
      "d": 248.386599999998,
      "v": 85
    },
    {
      "midi": 62,
      "hit": false,
      "t": 104515.91999999969,
      "d": 248.386599999998,
      "v": 107
    },
    {
      "midi": 67,
      "hit": false,
      "t": 104515.91999999969,
      "d": 270.96719999999914,
      "v": 93
    },
    {
      "midi": 55,
      "hit": false,
      "t": 104773.98399999969,
      "d": 93.54820000000473,
      "v": 102
    },
    {
      "midi": 60,
      "hit": false,
      "t": 104903.0159999997,
      "d": 109.67720000000554,
      "v": 89
    },
    {
      "midi": 64,
      "hit": false,
      "t": 104903.0159999997,
      "d": 129.03200000000652,
      "v": 93
    },
    {
      "midi": 67,
      "hit": false,
      "t": 104903.0159999997,
      "d": 149.9997000000003,
      "v": 93
    },
    {
      "midi": 65,
      "hit": false,
      "t": 105290.1119999997,
      "d": 291.9348999999929,
      "v": 89
    },
    {
      "midi": 62,
      "hit": false,
      "t": 105290.1119999997,
      "d": 299.99939999998605,
      "v": 102
    },
    {
      "midi": 58,
      "hit": false,
      "t": 105290.1119999997,
      "d": 309.67679999998654,
      "v": 80
    },
    {
      "midi": 46,
      "hit": false,
      "t": 105290.1119999997,
      "d": 420.9668999999849,
      "v": 102
    },
    {
      "midi": 58,
      "hit": false,
      "t": 105677.2079999997,
      "d": 295.1606999999931,
      "v": 59
    },
    {
      "midi": 62,
      "hit": false,
      "t": 105677.2079999997,
      "d": 317.7412999999942,
      "v": 76
    },
    {
      "midi": 65,
      "hit": false,
      "t": 105677.2079999997,
      "d": 338.708999999988,
      "v": 76
    },
    {
      "midi": 58,
      "hit": false,
      "t": 106064.30399999968,
      "d": 240.32210000000487,
      "v": 62
    },
    {
      "midi": 46,
      "hit": false,
      "t": 106322.36799999968,
      "d": 108.06429999999818,
      "v": 107
    },
    {
      "midi": 62,
      "hit": false,
      "t": 106451.39999999967,
      "d": 91.93529999999737,
      "v": 102
    },
    {
      "midi": 65,
      "hit": false,
      "t": 106451.39999999967,
      "d": 119.35459999999148,
      "v": 93
    },
    {
      "midi": 58,
      "hit": false,
      "t": 106451.39999999967,
      "d": 124.19329999998445,
      "v": 76
    },
    {
      "midi": 53,
      "hit": false,
      "t": 106838.49599999965,
      "d": 662.9018999999971,
      "v": 80
    },
    {
      "midi": 41,
      "hit": false,
      "t": 106838.49599999965,
      "d": 811.2886999999901,
      "v": 85
    },
    {
      "midi": 60,
      "hit": false,
      "t": 106838.49599999965,
      "d": 1020.9656999999861,
      "v": 89
    },
    {
      "midi": 57,
      "hit": false,
      "t": 106838.49599999965,
      "d": 1029.0301999999792,
      "v": 89
    },
    {
      "midi": 53,
      "hit": false,
      "t": 107612.68799999965,
      "d": 256.4510999999766,
      "v": 57
    },
    {
      "midi": 41,
      "hit": false,
      "t": 107870.75199999961,
      "d": 88.7094999999972,
      "v": 89
    },
    {
      "midi": 53,
      "hit": false,
      "t": 107999.7839999996,
      "d": 69.35469999999623,
      "v": 85
    },
    {
      "midi": 57,
      "hit": false,
      "t": 107999.7839999996,
      "d": 72.58049999999639,
      "v": 98
    },
    {
      "midi": 60,
      "hit": false,
      "t": 107999.7839999996,
      "d": 101.61269999999786,
      "v": 98
    },
    {
      "midi": 48,
      "hit": false,
      "t": 108386.8799999996,
      "d": 1483.8679999999877,
      "v": 80
    },
    {
      "midi": 55,
      "hit": false,
      "t": 108644.9439999996,
      "d": 130.64489999999932,
      "v": 60
    },
    {
      "midi": 60,
      "hit": false,
      "t": 108773.9759999996,
      "d": 245.16079999999783,
      "v": 89
    },
    {
      "midi": 64,
      "hit": false,
      "t": 108773.9759999996,
      "d": 249.9994999999908,
      "v": 93
    },
    {
      "midi": 67,
      "hit": false,
      "t": 108773.9759999996,
      "d": 304.8380999999936,
      "v": 93
    },
    {
      "midi": 67,
      "hit": false,
      "t": 109161.07199999959,
      "d": 62.9030999999959,
      "v": 27
    },
    {
      "midi": 60,
      "hit": false,
      "t": 109161.07199999959,
      "d": 143.54809999999998,
      "v": 59
    },
    {
      "midi": 55,
      "hit": false,
      "t": 109419.13599999959,
      "d": 95.16109999999753,
      "v": 76
    },
    {
      "midi": 65,
      "hit": false,
      "t": 109548.16799999958,
      "d": 149.9997000000003,
      "v": 89
    },
    {
      "midi": 60,
      "hit": false,
      "t": 109548.16799999958,
      "d": 156.45130000000063,
      "v": 85
    },
    {
      "midi": 67,
      "hit": false,
      "t": 109548.16799999958,
      "d": 159.6771000000008,
      "v": 89
    },
    {
      "midi": 60,
      "hit": false,
      "t": 109806.23199999958,
      "d": 103.22560000000522,
      "v": 85
    },
    {
      "midi": 64,
      "hit": false,
      "t": 109806.23199999958,
      "d": 103.22560000000522,
      "v": 89
    },
    {
      "midi": 67,
      "hit": false,
      "t": 109806.23199999958,
      "d": 103.22560000000522,
      "v": 85
    },
    {
      "midi": 65,
      "hit": false,
      "t": 109935.26399999959,
      "d": 133.8706999999995,
      "v": 98
    },
    {
      "midi": 50,
      "hit": false,
      "t": 109935.26399999959,
      "d": 143.54809999999998,
      "v": 89
    },
    {
      "midi": 62,
      "hit": false,
      "t": 109935.26399999959,
      "d": 143.54809999999998,
      "v": 93
    },
    {
      "midi": 69,
      "hit": false,
      "t": 109935.26399999959,
      "d": 154.83839999999327,
      "v": 93
    },
    {
      "midi": 65,
      "hit": false,
      "t": 110322.35999999958,
      "d": 114.51589999999851,
      "v": 89
    },
    {
      "midi": 69,
      "hit": false,
      "t": 110322.35999999958,
      "d": 133.8706999999995,
      "v": 93
    },
    {
      "midi": 50,
      "hit": false,
      "t": 110322.35999999958,
      "d": 137.09649999999965,
      "v": 93
    },
    {
      "midi": 62,
      "hit": false,
      "t": 110322.35999999958,
      "d": 140.3222999999998,
      "v": 89
    },
    {
      "midi": 57,
      "hit": false,
      "t": 110709.45599999958,
      "d": 180.64479999999458,
      "v": 107
    },
    {
      "midi": 53,
      "hit": false,
      "t": 110709.45599999958,
      "d": 183.87059999999474,
      "v": 89
    },
    {
      "midi": 60,
      "hit": false,
      "t": 110709.45599999958,
      "d": 190.32219999999506,
      "v": 89
    },
    {
      "midi": 53,
      "hit": false,
      "t": 111096.55199999959,
      "d": 177.41900000000896,
      "v": 89
    },
    {
      "midi": 57,
      "hit": false,
      "t": 111096.55199999959,
      "d": 182.25770000000193,
      "v": 98
    },
    {
      "midi": 60,
      "hit": false,
      "t": 111096.55199999959,
      "d": 193.54799999999523,
      "v": 93
    },
    {
      "midi": 55,
      "hit": false,
      "t": 111483.64799999958,
      "d": 279.0317000000068,
      "v": 76
    },
    {
      "midi": 62,
      "hit": false,
      "t": 111483.64799999958,
      "d": 279.0317000000068,
      "v": 98
    },
    {
      "midi": 59,
      "hit": false,
      "t": 111483.64799999958,
      "d": 280.6445999999996,
      "v": 93
    },
    {
      "midi": 43,
      "hit": false,
      "t": 111483.64799999958,
      "d": 441.9346000000078,
      "v": 89
    },
    {
      "midi": 55,
      "hit": false,
      "t": 111870.74399999958,
      "d": 232.25759999999718,
      "v": 72
    },
    {
      "midi": 59,
      "hit": false,
      "t": 111870.74399999958,
      "d": 240.32209999999031,
      "v": 89
    },
    {
      "midi": 62,
      "hit": false,
      "t": 111870.74399999958,
      "d": 241.93499999998312,
      "v": 89
    },
    {
      "midi": 43,
      "hit": false,
      "t": 112128.80799999957,
      "d": 120.96749999999884,
      "v": 85
    },
    {
      "midi": 55,
      "hit": false,
      "t": 112257.83999999956,
      "d": 251.61239999999816,
      "v": 72
    },
    {
      "midi": 62,
      "hit": false,
      "t": 112257.83999999956,
      "d": 259.6768999999913,
      "v": 93
    },
    {
      "midi": 59,
      "hit": false,
      "t": 112257.83999999956,
      "d": 262.90269999999146,
      "v": 89
    },
    {
      "midi": 43,
      "hit": false,
      "t": 112515.90399999956,
      "d": 153.2254999999859,
      "v": 93
    },
    {
      "midi": 62,
      "hit": false,
      "t": 112644.93599999955,
      "d": 188.7092999999877,
      "v": 98
    },
    {
      "midi": 59,
      "hit": false,
      "t": 112644.93599999955,
      "d": 193.54799999998068,
      "v": 98
    },
    {
      "midi": 55,
      "hit": false,
      "t": 112644.93599999955,
      "d": 199.999599999981,
      "v": 89
    },
    {
      "midi": 57,
      "hit": false,
      "t": 113032.03199999954,
      "d": 114.51589999999851,
      "v": 98
    },
    {
      "midi": 53,
      "hit": false,
      "t": 113032.03199999954,
      "d": 120.96749999999884,
      "v": 93
    },
    {
      "midi": 41,
      "hit": false,
      "t": 113032.03199999954,
      "d": 129.03199999999197,
      "v": 98
    },
    {
      "midi": 60,
      "hit": false,
      "t": 113032.03199999954,
      "d": 129.03199999999197,
      "v": 102
    },
    {
      "midi": 60,
      "hit": false,
      "t": 116515.89599999953,
      "d": 149.9997000000003,
      "v": 64
    },
    {
      "midi": 60,
      "hit": false,
      "t": 116773.95999999953,
      "d": 206.45119999999588,
      "v": 53
    },
    {
      "midi": 48,
      "hit": false,
      "t": 117032.02399999952,
      "d": 96.77400000000489,
      "v": 60
    },
    {
      "midi": 60,
      "hit": false,
      "t": 117161.05599999953,
      "d": 109.67720000000554,
      "v": 59
    },
    {
      "midi": 48,
      "hit": false,
      "t": 117290.08799999954,
      "d": 95.16109999999753,
      "v": 80
    },
    {
      "midi": 60,
      "hit": false,
      "t": 117419.11999999953,
      "d": 104.83849999999802,
      "v": 72
    },
    {
      "midi": 48,
      "hit": false,
      "t": 117548.15199999952,
      "d": 104.83849999999802,
      "v": 85
    },
    {
      "midi": 64,
      "hit": false,
      "t": 117677.18399999951,
      "d": 77.41920000000391,
      "v": 85
    },
    {
      "midi": 60,
      "hit": false,
      "t": 117677.18399999951,
      "d": 96.77400000000489,
      "v": 80
    },
    {
      "midi": 67,
      "hit": false,
      "t": 117677.18399999951,
      "d": 96.77400000000489,
      "v": 85
    },
    {
      "midi": 48,
      "hit": false,
      "t": 117806.21599999952,
      "d": 91.93529999999737,
      "v": 80
    },
    {
      "midi": 64,
      "hit": false,
      "t": 117935.24799999951,
      "d": 70.96760000000359,
      "v": 89
    },
    {
      "midi": 60,
      "hit": false,
      "t": 117935.24799999951,
      "d": 83.87080000000424,
      "v": 89
    },
    {
      "midi": 67,
      "hit": false,
      "t": 117935.24799999951,
      "d": 95.16109999999753,
      "v": 93
    },
    {
      "midi": 48,
      "hit": false,
      "t": 118064.2799999995,
      "d": 104.83849999999802,
      "v": 102
    },
    {
      "midi": 60,
      "hit": false,
      "t": 118193.3119999995,
      "d": 77.41920000000391,
      "v": 93
    },
    {
      "midi": 64,
      "hit": false,
      "t": 118193.3119999995,
      "d": 80.64500000000407,
      "v": 107
    },
    {
      "midi": 67,
      "hit": false,
      "t": 118193.3119999995,
      "d": 91.93529999999737,
      "v": 102
    },
    {
      "midi": 48,
      "hit": false,
      "t": 118322.34399999949,
      "d": 98.3868999999977,
      "v": 107
    },
    {
      "midi": 60,
      "hit": false,
      "t": 118451.37599999948,
      "d": 72.58049999999639,
      "v": 107
    },
    {
      "midi": 64,
      "hit": false,
      "t": 118451.37599999948,
      "d": 74.1933999999892,
      "v": 107
    },
    {
      "midi": 67,
      "hit": false,
      "t": 118451.37599999948,
      "d": 95.16109999998298,
      "v": 107
    },
    {
      "midi": 48,
      "hit": false,
      "t": 118580.40799999946,
      "d": 99.99980000000505,
      "v": 102
    },
    {
      "midi": 60,
      "hit": false,
      "t": 118709.43999999946,
      "d": 74.19340000000375,
      "v": 102
    },
    {
      "midi": 64,
      "hit": false,
      "t": 118709.43999999946,
      "d": 83.87080000000424,
      "v": 107
    },
    {
      "midi": 67,
      "hit": false,
      "t": 118709.43999999946,
      "d": 99.99980000000505,
      "v": 107
    },
    {
      "midi": 48,
      "hit": false,
      "t": 118838.47199999947,
      "d": 99.99980000000505,
      "v": 119
    },
    {
      "midi": 60,
      "hit": false,
      "t": 118967.50399999948,
      "d": 79.03209999999672,
      "v": 98
    },
    {
      "midi": 64,
      "hit": false,
      "t": 118967.50399999948,
      "d": 80.64499999998952,
      "v": 107
    },
    {
      "midi": 67,
      "hit": false,
      "t": 118967.50399999948,
      "d": 99.9997999999905,
      "v": 102
    },
    {
      "midi": 48,
      "hit": false,
      "t": 119096.53599999947,
      "d": 80.64499999998952,
      "v": 107
    },
    {
      "midi": 46,
      "hit": false,
      "t": 119225.56799999946,
      "d": 98.3868999999977,
      "v": 89
    },
    {
      "midi": 62,
      "hit": false,
      "t": 119225.56799999946,
      "d": 108.06429999999818,
      "v": 98
    },
    {
      "midi": 58,
      "hit": false,
      "t": 119225.56799999946,
      "d": 122.58039999999164,
      "v": 85
    },
    {
      "midi": 65,
      "hit": false,
      "t": 119225.56799999946,
      "d": 127.41909999998461,
      "v": 93
    },
    {
      "midi": 62,
      "hit": false,
      "t": 119870.72799999945,
      "d": 530.644100000005,
      "v": 98
    },
    {
      "midi": 65,
      "hit": false,
      "t": 119870.72799999945,
      "d": 546.7731000000058,
      "v": 93
    },
    {
      "midi": 58,
      "hit": false,
      "t": 119870.72799999945,
      "d": 566.1279000000068,
      "v": 80
    },
    {
      "midi": 46,
      "hit": false,
      "t": 119870.72799999945,
      "d": 603.2246000000014,
      "v": 102
    },
    {
      "midi": 58,
      "hit": false,
      "t": 120773.95199999945,
      "d": 93.54820000000473,
      "v": 89
    },
    {
      "midi": 46,
      "hit": false,
      "t": 120773.95199999945,
      "d": 103.22560000000522,
      "v": 102
    },
    {
      "midi": 62,
      "hit": false,
      "t": 120773.95199999945,
      "d": 104.83849999999802,
      "v": 102
    },
    {
      "midi": 53,
      "hit": false,
      "t": 120773.95199999945,
      "d": 114.51589999999851,
      "v": 89
    },
    {
      "midi": 53,
      "hit": false,
      "t": 121419.11199999946,
      "d": 469.3539000000019,
      "v": 93
    },
    {
      "midi": 58,
      "hit": false,
      "t": 121419.11199999946,
      "d": 487.0957999999955,
      "v": 89
    },
    {
      "midi": 46,
      "hit": false,
      "t": 121419.11199999946,
      "d": 495.16029999998864,
      "v": 113
    },
    {
      "midi": 62,
      "hit": false,
      "t": 121419.11199999946,
      "d": 519.3537999999826,
      "v": 107
    },
    {
      "midi": 64,
      "hit": false,
      "t": 122322.33599999944,
      "d": 96.77400000000489,
      "v": 93
    },
    {
      "midi": 60,
      "hit": false,
      "t": 122322.33599999944,
      "d": 106.45140000000538,
      "v": 93
    },
    {
      "midi": 55,
      "hit": false,
      "t": 122322.33599999944,
      "d": 108.06429999999818,
      "v": 72
    },
    {
      "midi": 48,
      "hit": false,
      "t": 122322.33599999944,
      "d": 109.67719999999099,
      "v": 80
    },
    {
      "midi": 52,
      "hit": false,
      "t": 122322.33599999944,
      "d": 111.2900999999838,
      "v": 76
    },
    {
      "midi": 60,
      "hit": false,
      "t": 122967.49599999943,
      "d": 561.2891999999993,
      "v": 93
    },
    {
      "midi": 64,
      "hit": false,
      "t": 122967.49599999943,
      "d": 562.9020999999921,
      "v": 93
    },
    {
      "midi": 52,
      "hit": false,
      "t": 122967.49599999943,
      "d": 564.5149999999849,
      "v": 102
    },
    {
      "midi": 48,
      "hit": false,
      "t": 122967.49599999943,
      "d": 569.3536999999778,
      "v": 102
    },
    {
      "midi": 55,
      "hit": false,
      "t": 122967.49599999943,
      "d": 572.579499999978,
      "v": 102
    },
    {
      "midi": 64,
      "hit": false,
      "t": 123870.7199999994,
      "d": 82.25789999999688,
      "v": 102
    },
    {
      "midi": 48,
      "hit": false,
      "t": 123870.7199999994,
      "d": 87.09659999998985,
      "v": 98
    },
    {
      "midi": 60,
      "hit": false,
      "t": 123870.7199999994,
      "d": 88.70949999998265,
      "v": 98
    },
    {
      "midi": 55,
      "hit": false,
      "t": 123870.7199999994,
      "d": 95.16109999998298,
      "v": 98
    },
    {
      "midi": 64,
      "hit": false,
      "t": 124515.8799999994,
      "d": 238.7091999999975,
      "v": 98
    },
    {
      "midi": 55,
      "hit": false,
      "t": 124515.8799999994,
      "d": 246.77369999999064,
      "v": 93
    },
    {
      "midi": 60,
      "hit": false,
      "t": 124515.8799999994,
      "d": 251.6123999999836,
      "v": 93
    },
    {
      "midi": 48,
      "hit": false,
      "t": 124515.8799999994,
      "d": 280.6445999999851,
      "v": 93
    },
    {
      "midi": 62,
      "hit": false,
      "t": 125419.10399999938,
      "d": 90.32240000000456,
      "v": 107
    },
    {
      "midi": 46,
      "hit": false,
      "t": 125419.10399999938,
      "d": 99.99980000000505,
      "v": 107
    },
    {
      "midi": 65,
      "hit": false,
      "t": 125419.10399999938,
      "d": 108.06429999999818,
      "v": 98
    },
    {
      "midi": 58,
      "hit": false,
      "t": 125419.10399999938,
      "d": 111.29009999999835,
      "v": 72
    },
    {
      "midi": 46,
      "hit": false,
      "t": 126064.26399999938,
      "d": 704.8372999999992,
      "v": 107
    },
    {
      "midi": 65,
      "hit": false,
      "t": 126064.26399999938,
      "d": 733.8695000000007,
      "v": 93
    },
    {
      "midi": 58,
      "hit": false,
      "t": 126064.26399999938,
      "d": 738.7081999999937,
      "v": 85
    },
    {
      "midi": 62,
      "hit": false,
      "t": 126064.26399999938,
      "d": 746.7726999999868,
      "v": 107
    },
    {
      "midi": 62,
      "hit": false,
      "t": 126967.48799999937,
      "d": 64.51600000000326,
      "v": 107
    },
    {
      "midi": 58,
      "hit": false,
      "t": 126967.48799999937,
      "d": 80.64500000000407,
      "v": 80
    },
    {
      "midi": 65,
      "hit": false,
      "t": 126967.48799999937,
      "d": 87.0966000000044,
      "v": 93
    },
    {
      "midi": 46,
      "hit": false,
      "t": 126967.48799999937,
      "d": 88.7094999999972,
      "v": 119
    },
    {
      "midi": 58,
      "hit": false,
      "t": 127612.64799999938,
      "d": 385.48309999999765,
      "v": 89
    },
    {
      "midi": 62,
      "hit": false,
      "t": 127612.64799999938,
      "d": 387.09599999999045,
      "v": 113
    },
    {
      "midi": 46,
      "hit": false,
      "t": 127612.64799999938,
      "d": 399.9991999999911,
      "v": 107
    },
    {
      "midi": 65,
      "hit": false,
      "t": 127612.64799999938,
      "d": 404.8378999999841,
      "v": 98
    },
    {
      "midi": 55,
      "hit": false,
      "t": 128515.87199999935,
      "d": 35.48380000000179,
      "v": 93
    },
    {
      "midi": 48,
      "hit": false,
      "t": 128515.87199999935,
      "d": 70.96760000000359,
      "v": 89
    },
    {
      "midi": 57,
      "hit": false,
      "t": 128515.87199999935,
      "d": 833.8693000000058,
      "v": 85
    },
    {
      "midi": 53,
      "hit": false,
      "t": 128515.87199999935,
      "d": 888.7079000000085,
      "v": 98
    },
    {
      "midi": 50,
      "hit": false,
      "t": 128515.87199999935,
      "d": 893.5466000000015,
      "v": 80
    },
    {
      "midi": 62,
      "hit": false,
      "t": 128515.87199999935,
      "d": 988.707699999999,
      "v": 102
    },
    {
      "midi": 65,
      "hit": false,
      "t": 128515.87199999935,
      "d": 1006.4495999999926,
      "v": 107
    },
    {
      "midi": 65,
      "hit": false,
      "t": 129677.15999999933,
      "d": 88.7094999999972,
      "v": 107
    },
    {
      "midi": 69,
      "hit": false,
      "t": 129677.15999999933,
      "d": 95.16109999999753,
      "v": 102
    },
    {
      "midi": 62,
      "hit": false,
      "t": 129677.15999999933,
      "d": 99.9997999999905,
      "v": 93
    },
    {
      "midi": 43,
      "hit": false,
      "t": 130064.25599999932,
      "d": 796.7725999999966,
      "v": 113
    },
    {
      "midi": 59,
      "hit": false,
      "t": 130451.35199999932,
      "d": 82.25789999999688,
      "v": 107
    },
    {
      "midi": 62,
      "hit": false,
      "t": 130451.35199999932,
      "d": 101.61269999999786,
      "v": 98
    },
    {
      "midi": 55,
      "hit": false,
      "t": 130451.35199999932,
      "d": 104.83849999999802,
      "v": 89
    },
    {
      "midi": 62,
      "hit": false,
      "t": 130838.44799999932,
      "d": 116.12880000000587,
      "v": 107
    },
    {
      "midi": 59,
      "hit": false,
      "t": 130838.44799999932,
      "d": 124.193299999999,
      "v": 107
    },
    {
      "midi": 55,
      "hit": false,
      "t": 130838.44799999932,
      "d": 140.3222999999998,
      "v": 93
    },
    {
      "midi": 43,
      "hit": false,
      "t": 131096.51199999932,
      "d": 112.90299999999115,
      "v": 98
    },
    {
      "midi": 55,
      "hit": false,
      "t": 131225.5439999993,
      "d": 145.16099999999278,
      "v": 93
    },
    {
      "midi": 59,
      "hit": false,
      "t": 131225.5439999993,
      "d": 148.3867999999784,
      "v": 107
    },
    {
      "midi": 62,
      "hit": false,
      "t": 131225.5439999993,
      "d": 159.6770999999717,
      "v": 107
    },
    {
      "midi": 65,
      "hit": false,
      "t": 131612.63999999926,
      "d": 291.9348999999929,
      "v": 89
    },
    {
      "midi": 62,
      "hit": false,
      "t": 131612.63999999926,
      "d": 299.9994000000006,
      "v": 102
    },
    {
      "midi": 58,
      "hit": false,
      "t": 131612.63999999926,
      "d": 309.67679999998654,
      "v": 80
    },
    {
      "midi": 46,
      "hit": false,
      "t": 131612.63999999926,
      "d": 420.96689999999944,
      "v": 102
    },
    {
      "midi": 58,
      "hit": false,
      "t": 131999.73599999925,
      "d": 295.16070000000764,
      "v": 59
    },
    {
      "midi": 62,
      "hit": false,
      "t": 131999.73599999925,
      "d": 317.7412999999942,
      "v": 76
    },
    {
      "midi": 65,
      "hit": false,
      "t": 131999.73599999925,
      "d": 338.70900000000256,
      "v": 76
    },
    {
      "midi": 58,
      "hit": false,
      "t": 132386.83199999924,
      "d": 240.32209999999031,
      "v": 62
    },
    {
      "midi": 46,
      "hit": false,
      "t": 132644.89599999922,
      "d": 108.06429999999818,
      "v": 107
    },
    {
      "midi": 62,
      "hit": false,
      "t": 132773.92799999923,
      "d": 91.93530000001192,
      "v": 102
    },
    {
      "midi": 65,
      "hit": false,
      "t": 132773.92799999923,
      "d": 119.35460000002058,
      "v": 93
    },
    {
      "midi": 58,
      "hit": false,
      "t": 132773.92799999923,
      "d": 124.19330000001355,
      "v": 76
    },
    {
      "midi": 53,
      "hit": false,
      "t": 133161.02399999925,
      "d": 662.9018999999971,
      "v": 80
    },
    {
      "midi": 41,
      "hit": false,
      "t": 133161.02399999925,
      "d": 811.2887000000046,
      "v": 85
    },
    {
      "midi": 60,
      "hit": false,
      "t": 133161.02399999925,
      "d": 1020.9657000000007,
      "v": 89
    },
    {
      "midi": 57,
      "hit": false,
      "t": 133161.02399999925,
      "d": 1029.0302000000083,
      "v": 89
    },
    {
      "midi": 53,
      "hit": false,
      "t": 133935.21599999926,
      "d": 256.4511000000057,
      "v": 57
    },
    {
      "midi": 41,
      "hit": false,
      "t": 134193.27999999927,
      "d": 88.7094999999972,
      "v": 89
    },
    {
      "midi": 53,
      "hit": false,
      "t": 134322.31199999928,
      "d": 69.35469999999623,
      "v": 85
    },
    {
      "midi": 57,
      "hit": false,
      "t": 134322.31199999928,
      "d": 72.58049999998184,
      "v": 98
    },
    {
      "midi": 60,
      "hit": false,
      "t": 134322.31199999928,
      "d": 101.61269999996875,
      "v": 98
    },
    {
      "midi": 48,
      "hit": false,
      "t": 134709.40799999927,
      "d": 2440.317699999956,
      "v": 80
    },
    {
      "midi": 55,
      "hit": false,
      "t": 134967.47199999928,
      "d": 130.64489999998477,
      "v": 60
    },
    {
      "midi": 60,
      "hit": false,
      "t": 135096.50399999926,
      "d": 245.1608000000124,
      "v": 89
    },
    {
      "midi": 64,
      "hit": false,
      "t": 135096.50399999926,
      "d": 249.99950000000536,
      "v": 93
    },
    {
      "midi": 67,
      "hit": false,
      "t": 135096.50399999926,
      "d": 304.8380999999936,
      "v": 93
    },
    {
      "midi": 67,
      "hit": false,
      "t": 135483.59999999925,
      "d": 62.9030999999959,
      "v": 27
    },
    {
      "midi": 60,
      "hit": false,
      "t": 135483.59999999925,
      "d": 143.54809999998542,
      "v": 59
    },
    {
      "midi": 55,
      "hit": false,
      "t": 135741.66399999923,
      "d": 95.16109999999753,
      "v": 76
    },
    {
      "midi": 65,
      "hit": false,
      "t": 135870.69599999924,
      "d": 149.99969999998575,
      "v": 89
    },
    {
      "midi": 60,
      "hit": false,
      "t": 135870.69599999924,
      "d": 156.45129999998608,
      "v": 85
    },
    {
      "midi": 67,
      "hit": false,
      "t": 135870.69599999924,
      "d": 159.6770999999717,
      "v": 89
    },
    {
      "midi": 60,
      "hit": false,
      "t": 136128.75999999922,
      "d": 399.9992000000202,
      "v": 85
    },
    {
      "midi": 64,
      "hit": false,
      "t": 136128.75999999922,
      "d": 404.8379000000132,
      "v": 89
    },
    {
      "midi": 67,
      "hit": false,
      "t": 136128.75999999922,
      "d": 424.19270000001416,
      "v": 85
    },
    {
      "midi": 55,
      "hit": false,
      "t": 136515.85599999924,
      "d": 74.1933999999892,
      "v": 85
    },
    {
      "midi": 64,
      "hit": false,
      "t": 136644.88799999922,
      "d": 212.90280000001076,
      "v": 93
    },
    {
      "midi": 60,
      "hit": false,
      "t": 136644.88799999922,
      "d": 224.19310000000405,
      "v": 89
    },
    {
      "midi": 67,
      "hit": false,
      "t": 136644.88799999922,
      "d": 253.22529999999097,
      "v": 89
    },
    {
      "midi": 67,
      "hit": false,
      "t": 137031.9839999992,
      "d": 306.45100000000093,
      "v": 93
    },
    {
      "midi": 62,
      "hit": false,
      "t": 137031.9839999992,
      "d": 311.2896999999939,
      "v": 98
    },
    {
      "midi": 60,
      "hit": false,
      "t": 137419.0799999992,
      "d": 114.51589999999851,
      "v": 107
    },
    {
      "midi": 65,
      "hit": false,
      "t": 137806.1759999992,
      "d": 291.9348999999929,
      "v": 89
    },
    {
      "midi": 62,
      "hit": false,
      "t": 137806.1759999992,
      "d": 299.9994000000006,
      "v": 102
    },
    {
      "midi": 58,
      "hit": false,
      "t": 137806.1759999992,
      "d": 309.67679999998654,
      "v": 80
    },
    {
      "midi": 46,
      "hit": false,
      "t": 137806.1759999992,
      "d": 420.96689999999944,
      "v": 102
    },
    {
      "midi": 58,
      "hit": false,
      "t": 138193.27199999918,
      "d": 295.16070000000764,
      "v": 59
    },
    {
      "midi": 62,
      "hit": false,
      "t": 138193.27199999918,
      "d": 317.7412999999942,
      "v": 76
    },
    {
      "midi": 65,
      "hit": false,
      "t": 138193.27199999918,
      "d": 338.70900000000256,
      "v": 76
    },
    {
      "midi": 58,
      "hit": false,
      "t": 138580.36799999917,
      "d": 240.32209999999031,
      "v": 62
    },
    {
      "midi": 46,
      "hit": false,
      "t": 138838.43199999916,
      "d": 108.06429999999818,
      "v": 107
    },
    {
      "midi": 62,
      "hit": false,
      "t": 138967.46399999916,
      "d": 91.93530000001192,
      "v": 102
    },
    {
      "midi": 65,
      "hit": false,
      "t": 138967.46399999916,
      "d": 119.35460000002058,
      "v": 93
    },
    {
      "midi": 58,
      "hit": false,
      "t": 138967.46399999916,
      "d": 124.19330000001355,
      "v": 76
    },
    {
      "midi": 53,
      "hit": false,
      "t": 139354.55999999918,
      "d": 662.9018999999971,
      "v": 80
    },
    {
      "midi": 41,
      "hit": false,
      "t": 139354.55999999918,
      "d": 811.2887000000046,
      "v": 85
    },
    {
      "midi": 60,
      "hit": false,
      "t": 139354.55999999918,
      "d": 1020.9657000000007,
      "v": 89
    },
    {
      "midi": 57,
      "hit": false,
      "t": 139354.55999999918,
      "d": 1029.0302000000083,
      "v": 89
    },
    {
      "midi": 53,
      "hit": false,
      "t": 140128.7519999992,
      "d": 256.4511000000057,
      "v": 57
    },
    {
      "midi": 41,
      "hit": false,
      "t": 140386.8159999992,
      "d": 88.7094999999972,
      "v": 89
    },
    {
      "midi": 53,
      "hit": false,
      "t": 140515.8479999992,
      "d": 69.35469999999623,
      "v": 85
    },
    {
      "midi": 57,
      "hit": false,
      "t": 140515.8479999992,
      "d": 72.58049999998184,
      "v": 98
    },
    {
      "midi": 60,
      "hit": false,
      "t": 140515.8479999992,
      "d": 101.61269999996875,
      "v": 98
    },
    {
      "midi": 48,
      "hit": false,
      "t": 140902.9439999992,
      "d": 2440.317699999956,
      "v": 80
    },
    {
      "midi": 55,
      "hit": false,
      "t": 141161.00799999922,
      "d": 130.64489999998477,
      "v": 60
    },
    {
      "midi": 60,
      "hit": false,
      "t": 141290.0399999992,
      "d": 245.1608000000124,
      "v": 89
    },
    {
      "midi": 64,
      "hit": false,
      "t": 141290.0399999992,
      "d": 249.99950000000536,
      "v": 93
    },
    {
      "midi": 67,
      "hit": false,
      "t": 141290.0399999992,
      "d": 304.8380999999936,
      "v": 93
    },
    {
      "midi": 67,
      "hit": false,
      "t": 141677.13599999918,
      "d": 62.9030999999959,
      "v": 27
    },
    {
      "midi": 60,
      "hit": false,
      "t": 141677.13599999918,
      "d": 143.54809999998542,
      "v": 59
    },
    {
      "midi": 55,
      "hit": false,
      "t": 141935.19999999917,
      "d": 95.16109999999753,
      "v": 76
    },
    {
      "midi": 65,
      "hit": false,
      "t": 142064.23199999917,
      "d": 149.99969999998575,
      "v": 89
    },
    {
      "midi": 60,
      "hit": false,
      "t": 142064.23199999917,
      "d": 156.45129999998608,
      "v": 85
    },
    {
      "midi": 67,
      "hit": false,
      "t": 142064.23199999917,
      "d": 159.6770999999717,
      "v": 89
    },
    {
      "midi": 60,
      "hit": false,
      "t": 142322.29599999916,
      "d": 399.9992000000202,
      "v": 85
    },
    {
      "midi": 64,
      "hit": false,
      "t": 142322.29599999916,
      "d": 404.8379000000132,
      "v": 89
    },
    {
      "midi": 67,
      "hit": false,
      "t": 142322.29599999916,
      "d": 424.19270000001416,
      "v": 85
    },
    {
      "midi": 55,
      "hit": false,
      "t": 142709.39199999918,
      "d": 74.1933999999892,
      "v": 85
    },
    {
      "midi": 64,
      "hit": false,
      "t": 142838.42399999916,
      "d": 212.90280000001076,
      "v": 93
    },
    {
      "midi": 60,
      "hit": false,
      "t": 142838.42399999916,
      "d": 224.19310000000405,
      "v": 89
    },
    {
      "midi": 67,
      "hit": false,
      "t": 142838.42399999916,
      "d": 253.22529999999097,
      "v": 89
    },
    {
      "midi": 67,
      "hit": false,
      "t": 143225.51999999915,
      "d": 306.45100000000093,
      "v": 93
    },
    {
      "midi": 62,
      "hit": false,
      "t": 143225.51999999915,
      "d": 311.2896999999939,
      "v": 98
    },
    {
      "midi": 60,
      "hit": false,
      "t": 143612.61599999914,
      "d": 114.51589999999851,
      "v": 107
    },
    {
      "midi": 65,
      "hit": false,
      "t": 143999.71199999913,
      "d": 291.9348999999929,
      "v": 89
    },
    {
      "midi": 62,
      "hit": false,
      "t": 143999.71199999913,
      "d": 299.9994000000006,
      "v": 102
    },
    {
      "midi": 58,
      "hit": false,
      "t": 143999.71199999913,
      "d": 309.67679999998654,
      "v": 80
    },
    {
      "midi": 46,
      "hit": false,
      "t": 143999.71199999913,
      "d": 420.96689999999944,
      "v": 102
    },
    {
      "midi": 58,
      "hit": false,
      "t": 144386.80799999912,
      "d": 295.16070000000764,
      "v": 59
    },
    {
      "midi": 62,
      "hit": false,
      "t": 144386.80799999912,
      "d": 317.7412999999942,
      "v": 76
    },
    {
      "midi": 65,
      "hit": false,
      "t": 144386.80799999912,
      "d": 338.70900000000256,
      "v": 76
    },
    {
      "midi": 58,
      "hit": false,
      "t": 144773.9039999991,
      "d": 240.32209999999031,
      "v": 62
    },
    {
      "midi": 46,
      "hit": false,
      "t": 145031.9679999991,
      "d": 108.06429999999818,
      "v": 107
    },
    {
      "midi": 62,
      "hit": false,
      "t": 145160.9999999991,
      "d": 91.93530000001192,
      "v": 102
    },
    {
      "midi": 65,
      "hit": false,
      "t": 145160.9999999991,
      "d": 119.35460000002058,
      "v": 93
    },
    {
      "midi": 58,
      "hit": false,
      "t": 145160.9999999991,
      "d": 124.19330000001355,
      "v": 76
    },
    {
      "midi": 53,
      "hit": false,
      "t": 145548.09599999912,
      "d": 662.9018999999971,
      "v": 80
    },
    {
      "midi": 41,
      "hit": false,
      "t": 145548.09599999912,
      "d": 811.2887000000046,
      "v": 85
    },
    {
      "midi": 60,
      "hit": false,
      "t": 145548.09599999912,
      "d": 1020.9657000000007,
      "v": 89
    },
    {
      "midi": 57,
      "hit": false,
      "t": 145548.09599999912,
      "d": 1029.0302000000083,
      "v": 89
    },
    {
      "midi": 53,
      "hit": false,
      "t": 146322.28799999913,
      "d": 256.4511000000057,
      "v": 57
    },
    {
      "midi": 41,
      "hit": false,
      "t": 146580.35199999914,
      "d": 88.7094999999972,
      "v": 89
    },
    {
      "midi": 53,
      "hit": false,
      "t": 146709.38399999915,
      "d": 69.35469999999623,
      "v": 85
    },
    {
      "midi": 57,
      "hit": false,
      "t": 146709.38399999915,
      "d": 72.58049999998184,
      "v": 98
    },
    {
      "midi": 60,
      "hit": false,
      "t": 146709.38399999915,
      "d": 101.61269999996875,
      "v": 98
    },
    {
      "midi": 48,
      "hit": false,
      "t": 147096.47999999914,
      "d": 1483.8679999999586,
      "v": 80
    },
    {
      "midi": 55,
      "hit": false,
      "t": 147354.54399999915,
      "d": 130.64489999998477,
      "v": 60
    },
    {
      "midi": 60,
      "hit": false,
      "t": 147483.57599999913,
      "d": 245.1608000000124,
      "v": 89
    },
    {
      "midi": 64,
      "hit": false,
      "t": 147483.57599999913,
      "d": 249.99950000000536,
      "v": 93
    },
    {
      "midi": 67,
      "hit": false,
      "t": 147483.57599999913,
      "d": 304.8380999999936,
      "v": 93
    },
    {
      "midi": 67,
      "hit": false,
      "t": 147870.67199999912,
      "d": 62.9030999999959,
      "v": 27
    },
    {
      "midi": 60,
      "hit": false,
      "t": 147870.67199999912,
      "d": 143.54809999998542,
      "v": 59
    },
    {
      "midi": 55,
      "hit": false,
      "t": 148128.7359999991,
      "d": 95.16109999999753,
      "v": 76
    },
    {
      "midi": 65,
      "hit": false,
      "t": 148257.7679999991,
      "d": 149.99969999998575,
      "v": 89
    },
    {
      "midi": 60,
      "hit": false,
      "t": 148257.7679999991,
      "d": 156.45129999998608,
      "v": 85
    },
    {
      "midi": 67,
      "hit": false,
      "t": 148257.7679999991,
      "d": 159.6770999999717,
      "v": 89
    },
    {
      "midi": 60,
      "hit": false,
      "t": 148515.8319999991,
      "d": 103.22559999997611,
      "v": 85
    },
    {
      "midi": 64,
      "hit": false,
      "t": 148515.8319999991,
      "d": 103.22559999997611,
      "v": 89
    },
    {
      "midi": 67,
      "hit": false,
      "t": 148515.8319999991,
      "d": 103.22559999997611,
      "v": 85
    },
    {
      "midi": 65,
      "hit": false,
      "t": 148644.86399999907,
      "d": 133.8706999999995,
      "v": 98
    },
    {
      "midi": 50,
      "hit": false,
      "t": 148644.86399999907,
      "d": 143.54809999998542,
      "v": 89
    },
    {
      "midi": 62,
      "hit": false,
      "t": 148644.86399999907,
      "d": 143.54809999998542,
      "v": 93
    },
    {
      "midi": 69,
      "hit": false,
      "t": 148644.86399999907,
      "d": 154.83839999997872,
      "v": 93
    },
    {
      "midi": 65,
      "hit": false,
      "t": 149031.95999999906,
      "d": 114.51589999999851,
      "v": 89
    },
    {
      "midi": 69,
      "hit": false,
      "t": 149031.95999999906,
      "d": 133.8706999999995,
      "v": 93
    },
    {
      "midi": 50,
      "hit": false,
      "t": 149031.95999999906,
      "d": 137.0964999999851,
      "v": 93
    },
    {
      "midi": 62,
      "hit": false,
      "t": 149031.95999999906,
      "d": 140.3222999999707,
      "v": 89
    },
    {
      "midi": 57,
      "hit": false,
      "t": 149419.05599999902,
      "d": 180.64480000000913,
      "v": 107
    },
    {
      "midi": 53,
      "hit": false,
      "t": 149419.05599999902,
      "d": 183.87059999999474,
      "v": 89
    },
    {
      "midi": 60,
      "hit": false,
      "t": 149419.05599999902,
      "d": 190.32219999999506,
      "v": 89
    },
    {
      "midi": 53,
      "hit": false,
      "t": 149806.151999999,
      "d": 177.4189999999944,
      "v": 89
    },
    {
      "midi": 57,
      "hit": false,
      "t": 149806.151999999,
      "d": 182.25769999998738,
      "v": 98
    },
    {
      "midi": 60,
      "hit": false,
      "t": 149806.151999999,
      "d": 193.54799999998068,
      "v": 93
    },
    {
      "midi": 55,
      "hit": false,
      "t": 150193.247999999,
      "d": 279.03169999999227,
      "v": 76
    },
    {
      "midi": 62,
      "hit": false,
      "t": 150193.247999999,
      "d": 279.03169999999227,
      "v": 98
    },
    {
      "midi": 59,
      "hit": false,
      "t": 150193.247999999,
      "d": 280.6445999999996,
      "v": 93
    },
    {
      "midi": 43,
      "hit": false,
      "t": 150193.247999999,
      "d": 441.9345999999787,
      "v": 89
    },
    {
      "midi": 55,
      "hit": false,
      "t": 150580.343999999,
      "d": 232.25759999998263,
      "v": 72
    },
    {
      "midi": 59,
      "hit": false,
      "t": 150580.343999999,
      "d": 240.32209999999031,
      "v": 89
    },
    {
      "midi": 62,
      "hit": false,
      "t": 150580.343999999,
      "d": 241.93499999999767,
      "v": 89
    },
    {
      "midi": 43,
      "hit": false,
      "t": 150838.40799999898,
      "d": 120.96749999999884,
      "v": 85
    },
    {
      "midi": 55,
      "hit": false,
      "t": 150967.43999999898,
      "d": 251.6124000000127,
      "v": 72
    },
    {
      "midi": 62,
      "hit": false,
      "t": 150967.43999999898,
      "d": 259.6769000000204,
      "v": 93
    },
    {
      "midi": 59,
      "hit": false,
      "t": 150967.43999999898,
      "d": 262.902700000006,
      "v": 89
    },
    {
      "midi": 43,
      "hit": false,
      "t": 151225.503999999,
      "d": 153.22549999997136,
      "v": 93
    },
    {
      "midi": 62,
      "hit": false,
      "t": 151354.53599999897,
      "d": 188.7092999999877,
      "v": 98
    },
    {
      "midi": 59,
      "hit": false,
      "t": 151354.53599999897,
      "d": 193.54799999998068,
      "v": 98
    },
    {
      "midi": 55,
      "hit": false,
      "t": 151354.53599999897,
      "d": 199.999599999981,
      "v": 89
    },
    {
      "midi": 57,
      "hit": false,
      "t": 151741.63199999894,
      "d": 114.51589999999851,
      "v": 98
    },
    {
      "midi": 53,
      "hit": false,
      "t": 151741.63199999894,
      "d": 120.96749999999884,
      "v": 93
    },
    {
      "midi": 41,
      "hit": false,
      "t": 151741.63199999894,
      "d": 129.03200000000652,
      "v": 98
    },
    {
      "midi": 60,
      "hit": false,
      "t": 151741.63199999894,
      "d": 129.03200000000652,
      "v": 102
    },
    {
      "midi": 57,
      "hit": false,
      "t": 154838.39999999895,
      "d": 114.51589999999851,
      "v": 98
    },
    {
      "midi": 53,
      "hit": false,
      "t": 154838.39999999895,
      "d": 120.96749999999884,
      "v": 93
    },
    {
      "midi": 41,
      "hit": false,
      "t": 154838.39999999895,
      "d": 129.03200000000652,
      "v": 98
    },
    {
      "midi": 60,
      "hit": false,
      "t": 154838.39999999895,
      "d": 129.03200000000652,
      "v": 102
    },
    {
      "midi": 60,
      "hit": false,
      "t": 158322.26399999895,
      "d": 149.99969999998575,
      "v": 64
    },
    {
      "midi": 60,
      "hit": false,
      "t": 158580.32799999893,
      "d": 206.45120000001043,
      "v": 53
    },
    {
      "midi": 48,
      "hit": false,
      "t": 158838.39199999894,
      "d": 96.77400000000489,
      "v": 60
    },
    {
      "midi": 60,
      "hit": false,
      "t": 158967.42399999895,
      "d": 109.67720000000554,
      "v": 59
    },
    {
      "midi": 48,
      "hit": false,
      "t": 159096.45599999896,
      "d": 95.16109999999753,
      "v": 80
    },
    {
      "midi": 60,
      "hit": false,
      "t": 159225.48799999896,
      "d": 104.83850000001257,
      "v": 72
    },
    {
      "midi": 48,
      "hit": false,
      "t": 159354.51999999897,
      "d": 104.83850000001257,
      "v": 85
    },
    {
      "midi": 64,
      "hit": false,
      "t": 159483.55199999898,
      "d": 77.41920000000391,
      "v": 85
    },
    {
      "midi": 60,
      "hit": false,
      "t": 159483.55199999898,
      "d": 96.77400000000489,
      "v": 80
    },
    {
      "midi": 67,
      "hit": false,
      "t": 159483.55199999898,
      "d": 96.77400000000489,
      "v": 85
    },
    {
      "midi": 48,
      "hit": false,
      "t": 159612.58399999898,
      "d": 91.93530000001192,
      "v": 80
    },
    {
      "midi": 64,
      "hit": false,
      "t": 159741.615999999,
      "d": 70.96760000000359,
      "v": 89
    },
    {
      "midi": 60,
      "hit": false,
      "t": 159741.615999999,
      "d": 83.87080000000424,
      "v": 89
    },
    {
      "midi": 67,
      "hit": false,
      "t": 159741.615999999,
      "d": 95.16109999999753,
      "v": 93
    },
    {
      "midi": 48,
      "hit": false,
      "t": 159870.647999999,
      "d": 104.83850000001257,
      "v": 102
    },
    {
      "midi": 60,
      "hit": false,
      "t": 159999.679999999,
      "d": 77.41920000000391,
      "v": 93
    },
    {
      "midi": 64,
      "hit": false,
      "t": 159999.679999999,
      "d": 80.64499999998952,
      "v": 107
    },
    {
      "midi": 67,
      "hit": false,
      "t": 159999.679999999,
      "d": 91.93529999998282,
      "v": 102
    },
    {
      "midi": 48,
      "hit": false,
      "t": 160128.71199999898,
      "d": 98.38690000001225,
      "v": 107
    },
    {
      "midi": 60,
      "hit": false,
      "t": 160257.743999999,
      "d": 72.58050000001094,
      "v": 107
    },
    {
      "midi": 64,
      "hit": false,
      "t": 160257.743999999,
      "d": 74.1934000000183,
      "v": 107
    },
    {
      "midi": 67,
      "hit": false,
      "t": 160257.743999999,
      "d": 95.16110000002664,
      "v": 107
    },
    {
      "midi": 48,
      "hit": false,
      "t": 160386.77599999902,
      "d": 99.9997999999905,
      "v": 102
    },
    {
      "midi": 60,
      "hit": false,
      "t": 160515.807999999,
      "d": 74.1933999999892,
      "v": 102
    },
    {
      "midi": 64,
      "hit": false,
      "t": 160515.807999999,
      "d": 83.87079999997513,
      "v": 107
    },
    {
      "midi": 67,
      "hit": false,
      "t": 160515.807999999,
      "d": 99.9997999999614,
      "v": 107
    },
    {
      "midi": 48,
      "hit": false,
      "t": 160644.83999999895,
      "d": 99.9997999999905,
      "v": 119
    },
    {
      "midi": 60,
      "hit": false,
      "t": 160773.87199999893,
      "d": 79.03210000001127,
      "v": 98
    },
    {
      "midi": 64,
      "hit": false,
      "t": 160773.87199999893,
      "d": 80.64500000001863,
      "v": 107
    },
    {
      "midi": 67,
      "hit": false,
      "t": 160773.87199999893,
      "d": 99.9998000000196,
      "v": 102
    },
    {
      "midi": 48,
      "hit": false,
      "t": 160902.90399999893,
      "d": 80.64500000001863,
      "v": 107
    },
    {
      "midi": 65,
      "hit": false,
      "t": 161031.93599999894,
      "d": 291.9348999999929,
      "v": 89
    },
    {
      "midi": 62,
      "hit": false,
      "t": 161031.93599999894,
      "d": 299.9994000000006,
      "v": 102
    },
    {
      "midi": 58,
      "hit": false,
      "t": 161031.93599999894,
      "d": 309.67679999998654,
      "v": 80
    },
    {
      "midi": 46,
      "hit": false,
      "t": 161031.93599999894,
      "d": 420.96689999999944,
      "v": 102
    },
    {
      "midi": 58,
      "hit": false,
      "t": 161419.03199999893,
      "d": 295.16070000000764,
      "v": 59
    },
    {
      "midi": 62,
      "hit": false,
      "t": 161419.03199999893,
      "d": 317.7412999999942,
      "v": 76
    },
    {
      "midi": 65,
      "hit": false,
      "t": 161419.03199999893,
      "d": 338.70900000000256,
      "v": 76
    },
    {
      "midi": 58,
      "hit": false,
      "t": 161806.12799999892,
      "d": 240.32209999999031,
      "v": 62
    },
    {
      "midi": 46,
      "hit": false,
      "t": 162064.1919999989,
      "d": 108.06429999999818,
      "v": 107
    },
    {
      "midi": 62,
      "hit": false,
      "t": 162193.2239999989,
      "d": 91.93530000001192,
      "v": 102
    },
    {
      "midi": 65,
      "hit": false,
      "t": 162193.2239999989,
      "d": 119.35460000002058,
      "v": 93
    },
    {
      "midi": 58,
      "hit": false,
      "t": 162193.2239999989,
      "d": 124.19330000001355,
      "v": 76
    },
    {
      "midi": 53,
      "hit": false,
      "t": 162580.31999999893,
      "d": 662.9018999999971,
      "v": 80
    },
    {
      "midi": 41,
      "hit": false,
      "t": 162580.31999999893,
      "d": 811.2887000000046,
      "v": 85
    },
    {
      "midi": 60,
      "hit": false,
      "t": 162580.31999999893,
      "d": 1020.9657000000007,
      "v": 89
    },
    {
      "midi": 57,
      "hit": false,
      "t": 162580.31999999893,
      "d": 1029.0302000000083,
      "v": 89
    },
    {
      "midi": 53,
      "hit": false,
      "t": 163354.51199999894,
      "d": 256.4511000000057,
      "v": 57
    },
    {
      "midi": 41,
      "hit": false,
      "t": 163612.57599999895,
      "d": 88.7094999999972,
      "v": 89
    },
    {
      "midi": 53,
      "hit": false,
      "t": 163741.60799999896,
      "d": 69.35469999999623,
      "v": 85
    },
    {
      "midi": 57,
      "hit": false,
      "t": 163741.60799999896,
      "d": 72.58049999998184,
      "v": 98
    },
    {
      "midi": 60,
      "hit": false,
      "t": 163741.60799999896,
      "d": 101.61269999996875,
      "v": 98
    },
    {
      "midi": 48,
      "hit": false,
      "t": 164128.70399999895,
      "d": 2440.317699999956,
      "v": 80
    },
    {
      "midi": 55,
      "hit": false,
      "t": 164386.76799999896,
      "d": 130.64489999998477,
      "v": 60
    },
    {
      "midi": 60,
      "hit": false,
      "t": 164515.79999999894,
      "d": 245.1608000000124,
      "v": 89
    },
    {
      "midi": 64,
      "hit": false,
      "t": 164515.79999999894,
      "d": 249.99950000000536,
      "v": 93
    },
    {
      "midi": 67,
      "hit": false,
      "t": 164515.79999999894,
      "d": 304.8380999999936,
      "v": 93
    },
    {
      "midi": 67,
      "hit": false,
      "t": 164902.89599999893,
      "d": 62.9030999999959,
      "v": 27
    },
    {
      "midi": 60,
      "hit": false,
      "t": 164902.89599999893,
      "d": 143.54809999998542,
      "v": 59
    },
    {
      "midi": 55,
      "hit": false,
      "t": 165160.95999999892,
      "d": 95.16109999999753,
      "v": 76
    },
    {
      "midi": 65,
      "hit": false,
      "t": 165289.99199999892,
      "d": 149.99969999998575,
      "v": 89
    },
    {
      "midi": 60,
      "hit": false,
      "t": 165289.99199999892,
      "d": 156.45129999998608,
      "v": 85
    },
    {
      "midi": 67,
      "hit": false,
      "t": 165289.99199999892,
      "d": 159.6770999999717,
      "v": 89
    },
    {
      "midi": 60,
      "hit": false,
      "t": 165548.0559999989,
      "d": 399.9992000000202,
      "v": 85
    },
    {
      "midi": 64,
      "hit": false,
      "t": 165548.0559999989,
      "d": 404.8379000000132,
      "v": 89
    },
    {
      "midi": 67,
      "hit": false,
      "t": 165548.0559999989,
      "d": 424.19270000001416,
      "v": 85
    },
    {
      "midi": 55,
      "hit": false,
      "t": 165935.15199999893,
      "d": 74.1933999999892,
      "v": 85
    },
    {
      "midi": 64,
      "hit": false,
      "t": 166064.1839999989,
      "d": 212.90280000001076,
      "v": 93
    },
    {
      "midi": 60,
      "hit": false,
      "t": 166064.1839999989,
      "d": 224.19310000000405,
      "v": 89
    },
    {
      "midi": 67,
      "hit": false,
      "t": 166064.1839999989,
      "d": 253.22529999999097,
      "v": 89
    },
    {
      "midi": 67,
      "hit": false,
      "t": 166451.2799999989,
      "d": 306.45100000000093,
      "v": 93
    },
    {
      "midi": 62,
      "hit": false,
      "t": 166451.2799999989,
      "d": 311.2896999999939,
      "v": 98
    },
    {
      "midi": 60,
      "hit": false,
      "t": 166838.37599999888,
      "d": 114.51589999999851,
      "v": 107
    },
    {
      "midi": 46,
      "hit": false,
      "t": 167225.47199999887,
      "d": 672.579299999983,
      "v": 107
    },
    {
      "midi": 62,
      "hit": false,
      "t": 167612.56799999886,
      "d": 183.87059999999474,
      "v": 113
    },
    {
      "midi": 65,
      "hit": false,
      "t": 167612.56799999886,
      "d": 191.93510000000242,
      "v": 98
    },
    {
      "midi": 58,
      "hit": false,
      "t": 167612.56799999886,
      "d": 195.16089999998803,
      "v": 93
    },
    {
      "midi": 62,
      "hit": false,
      "t": 168386.75999999885,
      "d": 111.2900999999838,
      "v": 102
    },
    {
      "midi": 65,
      "hit": false,
      "t": 168386.75999999885,
      "d": 130.64489999998477,
      "v": 93
    },
    {
      "midi": 58,
      "hit": false,
      "t": 168386.75999999885,
      "d": 156.45129999998608,
      "v": 85
    },
    {
      "midi": 41,
      "hit": false,
      "t": 168773.85599999884,
      "d": 903.2239999999583,
      "v": 72
    },
    {
      "midi": 53,
      "hit": false,
      "t": 169160.95199999883,
      "d": 461.28939999997965,
      "v": 93
    },
    {
      "midi": 60,
      "hit": false,
      "t": 169160.95199999883,
      "d": 480.64419999998063,
      "v": 102
    },
    {
      "midi": 57,
      "hit": false,
      "t": 169160.95199999883,
      "d": 490.32159999996657,
      "v": 102
    },
    {
      "midi": 48,
      "hit": false,
      "t": 169548.04799999882,
      "d": 164.51579999996466,
      "v": 64
    },
    {
      "midi": 57,
      "hit": false,
      "t": 169935.14399999878,
      "d": 91.93530000001192,
      "v": 80
    },
    {
      "midi": 53,
      "hit": false,
      "t": 169935.14399999878,
      "d": 103.22560000000522,
      "v": 76
    },
    {
      "midi": 60,
      "hit": false,
      "t": 169935.14399999878,
      "d": 137.0965000000142,
      "v": 80
    },
    {
      "midi": 48,
      "hit": false,
      "t": 170193.2079999988,
      "d": 1403.222999999969,
      "v": 98
    },
    {
      "midi": 55,
      "hit": false,
      "t": 170580.30399999878,
      "d": 112.90299999999115,
      "v": 80
    },
    {
      "midi": 60,
      "hit": false,
      "t": 170709.33599999876,
      "d": 883.8691999999864,
      "v": 72
    },
    {
      "midi": 64,
      "hit": false,
      "t": 170709.33599999876,
      "d": 885.4820999999938,
      "v": 89
    },
    {
      "midi": 67,
      "hit": false,
      "t": 170709.33599999876,
      "d": 898.3852999999945,
      "v": 89
    },
    {
      "midi": 55,
      "hit": false,
      "t": 171483.52799999877,
      "d": 93.54819999999017,
      "v": 89
    },
    {
      "midi": 64,
      "hit": false,
      "t": 171741.59199999875,
      "d": 77.41920000000391,
      "v": 107
    },
    {
      "midi": 60,
      "hit": false,
      "t": 171741.59199999875,
      "d": 90.32240000000456,
      "v": 93
    },
    {
      "midi": 67,
      "hit": false,
      "t": 171741.59199999875,
      "d": 96.77400000000489,
      "v": 98
    },
    {
      "midi": 48,
      "hit": false,
      "t": 172128.68799999874,
      "d": 903.2239999999583,
      "v": 98
    },
    {
      "midi": 64,
      "hit": false,
      "t": 172257.71999999875,
      "d": 261.28979999999865,
      "v": 93
    },
    {
      "midi": 60,
      "hit": false,
      "t": 172257.71999999875,
      "d": 279.03169999999227,
      "v": 89
    },
    {
      "midi": 67,
      "hit": false,
      "t": 172257.71999999875,
      "d": 285.4832999999926,
      "v": 93
    },
    {
      "midi": 55,
      "hit": false,
      "t": 172515.78399999876,
      "d": 85.48369999998249,
      "v": 93
    },
    {
      "midi": 60,
      "hit": false,
      "t": 172644.81599999874,
      "d": 248.386599999998,
      "v": 85
    },
    {
      "midi": 62,
      "hit": false,
      "t": 172644.81599999874,
      "d": 248.386599999998,
      "v": 107
    },
    {
      "midi": 67,
      "hit": false,
      "t": 172644.81599999874,
      "d": 270.9671999999846,
      "v": 93
    },
    {
      "midi": 55,
      "hit": false,
      "t": 172902.87999999872,
      "d": 93.54819999999017,
      "v": 102
    },
    {
      "midi": 60,
      "hit": false,
      "t": 173031.9119999987,
      "d": 109.67720000000554,
      "v": 89
    },
    {
      "midi": 64,
      "hit": false,
      "t": 173031.9119999987,
      "d": 129.03200000000652,
      "v": 93
    },
    {
      "midi": 67,
      "hit": false,
      "t": 173031.9119999987,
      "d": 149.99970000001485,
      "v": 93
    },
    {
      "midi": 65,
      "hit": false,
      "t": 173419.00799999872,
      "d": 291.9348999999929,
      "v": 89
    },
    {
      "midi": 62,
      "hit": false,
      "t": 173419.00799999872,
      "d": 299.9994000000006,
      "v": 102
    },
    {
      "midi": 58,
      "hit": false,
      "t": 173419.00799999872,
      "d": 309.67679999998654,
      "v": 80
    },
    {
      "midi": 46,
      "hit": false,
      "t": 173419.00799999872,
      "d": 420.96689999999944,
      "v": 102
    },
    {
      "midi": 58,
      "hit": false,
      "t": 173806.1039999987,
      "d": 295.16070000000764,
      "v": 59
    },
    {
      "midi": 62,
      "hit": false,
      "t": 173806.1039999987,
      "d": 317.7412999999942,
      "v": 76
    },
    {
      "midi": 65,
      "hit": false,
      "t": 173806.1039999987,
      "d": 338.70900000000256,
      "v": 76
    },
    {
      "midi": 58,
      "hit": false,
      "t": 174193.1999999987,
      "d": 240.32209999999031,
      "v": 62
    },
    {
      "midi": 46,
      "hit": false,
      "t": 174451.2639999987,
      "d": 108.06429999999818,
      "v": 107
    },
    {
      "midi": 62,
      "hit": false,
      "t": 174580.2959999987,
      "d": 91.93530000001192,
      "v": 102
    },
    {
      "midi": 65,
      "hit": false,
      "t": 174580.2959999987,
      "d": 119.35460000002058,
      "v": 93
    },
    {
      "midi": 58,
      "hit": false,
      "t": 174580.2959999987,
      "d": 124.19330000001355,
      "v": 76
    },
    {
      "midi": 53,
      "hit": false,
      "t": 174967.3919999987,
      "d": 662.9018999999971,
      "v": 80
    },
    {
      "midi": 41,
      "hit": false,
      "t": 174967.3919999987,
      "d": 811.2887000000046,
      "v": 85
    },
    {
      "midi": 60,
      "hit": false,
      "t": 174967.3919999987,
      "d": 1020.9657000000007,
      "v": 89
    },
    {
      "midi": 57,
      "hit": false,
      "t": 174967.3919999987,
      "d": 1029.0302000000083,
      "v": 89
    },
    {
      "midi": 53,
      "hit": false,
      "t": 175741.58399999872,
      "d": 256.4511000000057,
      "v": 57
    },
    {
      "midi": 41,
      "hit": false,
      "t": 175999.64799999874,
      "d": 88.7094999999972,
      "v": 89
    },
    {
      "midi": 53,
      "hit": false,
      "t": 176128.67999999874,
      "d": 69.35469999999623,
      "v": 85
    },
    {
      "midi": 57,
      "hit": false,
      "t": 176128.67999999874,
      "d": 72.58049999998184,
      "v": 98
    },
    {
      "midi": 60,
      "hit": false,
      "t": 176128.67999999874,
      "d": 101.61269999996875,
      "v": 98
    },
    {
      "midi": 48,
      "hit": false,
      "t": 176515.77599999873,
      "d": 1483.8679999999586,
      "v": 80
    },
    {
      "midi": 55,
      "hit": false,
      "t": 176773.83999999875,
      "d": 130.64489999998477,
      "v": 60
    },
    {
      "midi": 60,
      "hit": false,
      "t": 176902.87199999872,
      "d": 245.1608000000124,
      "v": 89
    },
    {
      "midi": 64,
      "hit": false,
      "t": 176902.87199999872,
      "d": 249.99950000000536,
      "v": 93
    },
    {
      "midi": 67,
      "hit": false,
      "t": 176902.87199999872,
      "d": 304.8380999999936,
      "v": 93
    },
    {
      "midi": 67,
      "hit": false,
      "t": 177289.9679999987,
      "d": 62.9030999999959,
      "v": 27
    },
    {
      "midi": 60,
      "hit": false,
      "t": 177289.9679999987,
      "d": 143.54809999998542,
      "v": 59
    },
    {
      "midi": 55,
      "hit": false,
      "t": 177548.0319999987,
      "d": 95.16109999999753,
      "v": 76
    },
    {
      "midi": 65,
      "hit": false,
      "t": 177677.0639999987,
      "d": 149.99969999998575,
      "v": 89
    },
    {
      "midi": 60,
      "hit": false,
      "t": 177677.0639999987,
      "d": 156.45129999998608,
      "v": 85
    },
    {
      "midi": 67,
      "hit": false,
      "t": 177677.0639999987,
      "d": 159.6770999999717,
      "v": 89
    },
    {
      "midi": 60,
      "hit": false,
      "t": 177935.1279999987,
      "d": 103.22559999997611,
      "v": 85
    },
    {
      "midi": 64,
      "hit": false,
      "t": 177935.1279999987,
      "d": 103.22559999997611,
      "v": 89
    },
    {
      "midi": 67,
      "hit": false,
      "t": 177935.1279999987,
      "d": 103.22559999997611,
      "v": 85
    },
    {
      "midi": 65,
      "hit": false,
      "t": 178064.15999999866,
      "d": 133.8706999999995,
      "v": 98
    },
    {
      "midi": 50,
      "hit": false,
      "t": 178064.15999999866,
      "d": 143.54809999998542,
      "v": 89
    },
    {
      "midi": 62,
      "hit": false,
      "t": 178064.15999999866,
      "d": 143.54809999998542,
      "v": 93
    },
    {
      "midi": 69,
      "hit": false,
      "t": 178064.15999999866,
      "d": 154.83839999997872,
      "v": 93
    },
    {
      "midi": 65,
      "hit": false,
      "t": 178451.25599999866,
      "d": 114.51589999999851,
      "v": 89
    },
    {
      "midi": 69,
      "hit": false,
      "t": 178451.25599999866,
      "d": 133.8706999999995,
      "v": 93
    },
    {
      "midi": 50,
      "hit": false,
      "t": 178451.25599999866,
      "d": 137.0964999999851,
      "v": 93
    },
    {
      "midi": 62,
      "hit": false,
      "t": 178451.25599999866,
      "d": 140.3222999999707,
      "v": 89
    },
    {
      "midi": 57,
      "hit": false,
      "t": 178838.35199999862,
      "d": 180.64480000000913,
      "v": 107
    },
    {
      "midi": 53,
      "hit": false,
      "t": 178838.35199999862,
      "d": 183.87059999999474,
      "v": 89
    },
    {
      "midi": 60,
      "hit": false,
      "t": 178838.35199999862,
      "d": 190.32219999999506,
      "v": 89
    },
    {
      "midi": 53,
      "hit": false,
      "t": 179225.4479999986,
      "d": 177.4189999999944,
      "v": 89
    },
    {
      "midi": 57,
      "hit": false,
      "t": 179225.4479999986,
      "d": 182.25769999998738,
      "v": 98
    },
    {
      "midi": 60,
      "hit": false,
      "t": 179225.4479999986,
      "d": 193.54799999998068,
      "v": 93
    },
    {
      "midi": 55,
      "hit": false,
      "t": 179612.5439999986,
      "d": 279.03169999999227,
      "v": 76
    },
    {
      "midi": 62,
      "hit": false,
      "t": 179612.5439999986,
      "d": 279.03169999999227,
      "v": 98
    },
    {
      "midi": 59,
      "hit": false,
      "t": 179612.5439999986,
      "d": 280.6445999999996,
      "v": 93
    },
    {
      "midi": 43,
      "hit": false,
      "t": 179612.5439999986,
      "d": 441.9345999999787,
      "v": 89
    },
    {
      "midi": 55,
      "hit": false,
      "t": 179999.6399999986,
      "d": 232.25759999998263,
      "v": 72
    },
    {
      "midi": 59,
      "hit": false,
      "t": 179999.6399999986,
      "d": 240.32209999999031,
      "v": 89
    },
    {
      "midi": 62,
      "hit": false,
      "t": 179999.6399999986,
      "d": 241.93499999999767,
      "v": 89
    },
    {
      "midi": 43,
      "hit": false,
      "t": 180257.70399999857,
      "d": 120.96749999999884,
      "v": 85
    },
    {
      "midi": 55,
      "hit": false,
      "t": 180386.73599999858,
      "d": 251.6124000000127,
      "v": 72
    },
    {
      "midi": 62,
      "hit": false,
      "t": 180386.73599999858,
      "d": 259.6769000000204,
      "v": 93
    },
    {
      "midi": 59,
      "hit": false,
      "t": 180386.73599999858,
      "d": 262.902700000006,
      "v": 89
    },
    {
      "midi": 43,
      "hit": false,
      "t": 180644.7999999986,
      "d": 153.22549999997136,
      "v": 93
    },
    {
      "midi": 62,
      "hit": false,
      "t": 180773.83199999857,
      "d": 188.7092999999877,
      "v": 98
    },
    {
      "midi": 59,
      "hit": false,
      "t": 180773.83199999857,
      "d": 193.54799999998068,
      "v": 98
    },
    {
      "midi": 55,
      "hit": false,
      "t": 180773.83199999857,
      "d": 199.999599999981,
      "v": 89
    },
    {
      "midi": 57,
      "hit": false,
      "t": 181160.92799999853,
      "d": 114.51589999999851,
      "v": 98
    },
    {
      "midi": 53,
      "hit": false,
      "t": 181160.92799999853,
      "d": 120.96749999999884,
      "v": 93
    },
    {
      "midi": 41,
      "hit": false,
      "t": 181160.92799999853,
      "d": 129.03200000000652,
      "v": 98
    },
    {
      "midi": 60,
      "hit": false,
      "t": 181160.92799999853,
      "d": 129.03200000000652,
      "v": 102
    },
    {
      "midi": 60,
      "hit": false,
      "t": 184644.79199999853,
      "d": 149.99969999998575,
      "v": 64
    },
    {
      "midi": 60,
      "hit": false,
      "t": 184902.85599999852,
      "d": 206.45120000001043,
      "v": 53
    },
    {
      "midi": 48,
      "hit": false,
      "t": 185160.91999999853,
      "d": 96.77400000000489,
      "v": 60
    },
    {
      "midi": 60,
      "hit": false,
      "t": 185289.95199999854,
      "d": 109.67720000000554,
      "v": 59
    },
    {
      "midi": 48,
      "hit": false,
      "t": 185418.98399999854,
      "d": 95.16109999999753,
      "v": 80
    },
    {
      "midi": 60,
      "hit": false,
      "t": 185548.01599999855,
      "d": 104.83850000001257,
      "v": 72
    },
    {
      "midi": 48,
      "hit": false,
      "t": 185677.04799999855,
      "d": 104.83850000001257,
      "v": 85
    },
    {
      "midi": 64,
      "hit": false,
      "t": 185806.07999999856,
      "d": 77.41920000000391,
      "v": 85
    },
    {
      "midi": 60,
      "hit": false,
      "t": 185806.07999999856,
      "d": 96.77400000000489,
      "v": 80
    },
    {
      "midi": 67,
      "hit": false,
      "t": 185806.07999999856,
      "d": 96.77400000000489,
      "v": 85
    },
    {
      "midi": 48,
      "hit": false,
      "t": 185935.11199999857,
      "d": 91.93530000001192,
      "v": 80
    },
    {
      "midi": 64,
      "hit": false,
      "t": 186064.14399999857,
      "d": 70.96760000000359,
      "v": 89
    },
    {
      "midi": 60,
      "hit": false,
      "t": 186064.14399999857,
      "d": 83.87080000000424,
      "v": 89
    },
    {
      "midi": 67,
      "hit": false,
      "t": 186064.14399999857,
      "d": 95.16109999999753,
      "v": 93
    },
    {
      "midi": 48,
      "hit": false,
      "t": 186193.17599999858,
      "d": 104.83850000001257,
      "v": 102
    },
    {
      "midi": 60,
      "hit": false,
      "t": 186322.2079999986,
      "d": 77.41920000000391,
      "v": 93
    },
    {
      "midi": 64,
      "hit": false,
      "t": 186322.2079999986,
      "d": 80.64499999998952,
      "v": 107
    },
    {
      "midi": 67,
      "hit": false,
      "t": 186322.2079999986,
      "d": 91.93529999998282,
      "v": 102
    },
    {
      "midi": 48,
      "hit": false,
      "t": 186451.23999999856,
      "d": 98.38690000001225,
      "v": 107
    },
    {
      "midi": 60,
      "hit": false,
      "t": 186580.27199999857,
      "d": 72.58050000001094,
      "v": 107
    },
    {
      "midi": 64,
      "hit": false,
      "t": 186580.27199999857,
      "d": 74.1934000000183,
      "v": 107
    },
    {
      "midi": 67,
      "hit": false,
      "t": 186580.27199999857,
      "d": 95.16110000002664,
      "v": 107
    },
    {
      "midi": 48,
      "hit": false,
      "t": 186709.3039999986,
      "d": 99.9997999999905,
      "v": 102
    },
    {
      "midi": 60,
      "hit": false,
      "t": 186838.33599999858,
      "d": 74.1933999999892,
      "v": 102
    },
    {
      "midi": 64,
      "hit": false,
      "t": 186838.33599999858,
      "d": 83.87079999997513,
      "v": 107
    },
    {
      "midi": 67,
      "hit": false,
      "t": 186838.33599999858,
      "d": 99.9997999999614,
      "v": 107
    },
    {
      "midi": 48,
      "hit": false,
      "t": 186967.36799999853,
      "d": 99.9997999999905,
      "v": 119
    },
    {
      "midi": 60,
      "hit": false,
      "t": 187096.3999999985,
      "d": 79.03210000001127,
      "v": 98
    },
    {
      "midi": 64,
      "hit": false,
      "t": 187096.3999999985,
      "d": 80.64500000001863,
      "v": 107
    },
    {
      "midi": 67,
      "hit": false,
      "t": 187096.3999999985,
      "d": 99.9998000000196,
      "v": 102
    },
    {
      "midi": 48,
      "hit": false,
      "t": 187225.43199999852,
      "d": 80.64500000001863,
      "v": 107
    },
    {
      "midi": 65,
      "hit": false,
      "t": 187354.46399999852,
      "d": 291.9348999999929,
      "v": 89
    },
    {
      "midi": 62,
      "hit": false,
      "t": 187354.46399999852,
      "d": 299.9994000000006,
      "v": 102
    },
    {
      "midi": 58,
      "hit": false,
      "t": 187354.46399999852,
      "d": 309.67679999998654,
      "v": 80
    },
    {
      "midi": 46,
      "hit": false,
      "t": 187354.46399999852,
      "d": 420.96689999999944,
      "v": 102
    },
    {
      "midi": 58,
      "hit": false,
      "t": 187741.5599999985,
      "d": 295.16070000000764,
      "v": 59
    },
    {
      "midi": 62,
      "hit": false,
      "t": 187741.5599999985,
      "d": 317.7412999999942,
      "v": 76
    },
    {
      "midi": 65,
      "hit": false,
      "t": 187741.5599999985,
      "d": 338.70900000000256,
      "v": 76
    },
    {
      "midi": 58,
      "hit": false,
      "t": 188128.6559999985,
      "d": 240.32209999999031,
      "v": 62
    },
    {
      "midi": 46,
      "hit": false,
      "t": 188386.7199999985,
      "d": 108.06429999999818,
      "v": 107
    },
    {
      "midi": 62,
      "hit": false,
      "t": 188515.7519999985,
      "d": 91.93530000001192,
      "v": 102
    },
    {
      "midi": 65,
      "hit": false,
      "t": 188515.7519999985,
      "d": 119.35460000002058,
      "v": 93
    },
    {
      "midi": 58,
      "hit": false,
      "t": 188515.7519999985,
      "d": 124.19330000001355,
      "v": 76
    },
    {
      "midi": 53,
      "hit": false,
      "t": 188902.8479999985,
      "d": 662.9018999999971,
      "v": 80
    },
    {
      "midi": 41,
      "hit": false,
      "t": 188902.8479999985,
      "d": 811.2887000000046,
      "v": 85
    },
    {
      "midi": 60,
      "hit": false,
      "t": 188902.8479999985,
      "d": 1020.9657000000007,
      "v": 89
    },
    {
      "midi": 57,
      "hit": false,
      "t": 188902.8479999985,
      "d": 1029.0302000000083,
      "v": 89
    },
    {
      "midi": 53,
      "hit": false,
      "t": 189677.03999999852,
      "d": 256.4511000000057,
      "v": 57
    },
    {
      "midi": 41,
      "hit": false,
      "t": 189935.10399999854,
      "d": 88.7094999999972,
      "v": 89
    },
    {
      "midi": 53,
      "hit": false,
      "t": 190064.13599999854,
      "d": 69.35469999999623,
      "v": 85
    },
    {
      "midi": 57,
      "hit": false,
      "t": 190064.13599999854,
      "d": 72.58049999998184,
      "v": 98
    },
    {
      "midi": 60,
      "hit": false,
      "t": 190064.13599999854,
      "d": 101.61269999996875,
      "v": 98
    },
    {
      "midi": 48,
      "hit": false,
      "t": 190451.23199999853,
      "d": 2440.317699999956,
      "v": 80
    },
    {
      "midi": 55,
      "hit": false,
      "t": 190709.29599999855,
      "d": 130.64489999998477,
      "v": 60
    },
    {
      "midi": 60,
      "hit": false,
      "t": 190838.32799999852,
      "d": 245.1608000000124,
      "v": 89
    },
    {
      "midi": 64,
      "hit": false,
      "t": 190838.32799999852,
      "d": 249.99950000000536,
      "v": 93
    },
    {
      "midi": 67,
      "hit": false,
      "t": 190838.32799999852,
      "d": 304.8380999999936,
      "v": 93
    },
    {
      "midi": 67,
      "hit": false,
      "t": 191225.42399999851,
      "d": 62.9030999999959,
      "v": 27
    },
    {
      "midi": 60,
      "hit": false,
      "t": 191225.42399999851,
      "d": 143.54809999998542,
      "v": 59
    },
    {
      "midi": 55,
      "hit": false,
      "t": 191483.4879999985,
      "d": 95.16109999999753,
      "v": 76
    },
    {
      "midi": 65,
      "hit": false,
      "t": 191612.5199999985,
      "d": 149.99969999998575,
      "v": 89
    },
    {
      "midi": 60,
      "hit": false,
      "t": 191612.5199999985,
      "d": 156.45129999998608,
      "v": 85
    },
    {
      "midi": 67,
      "hit": false,
      "t": 191612.5199999985,
      "d": 159.6770999999717,
      "v": 89
    },
    {
      "midi": 60,
      "hit": false,
      "t": 191870.5839999985,
      "d": 399.9992000000202,
      "v": 85
    },
    {
      "midi": 64,
      "hit": false,
      "t": 191870.5839999985,
      "d": 404.8379000000132,
      "v": 89
    },
    {
      "midi": 67,
      "hit": false,
      "t": 191870.5839999985,
      "d": 424.19270000001416,
      "v": 85
    },
    {
      "midi": 55,
      "hit": false,
      "t": 192257.6799999985,
      "d": 74.1933999999892,
      "v": 85
    },
    {
      "midi": 64,
      "hit": false,
      "t": 192386.7119999985,
      "d": 212.90280000001076,
      "v": 93
    },
    {
      "midi": 60,
      "hit": false,
      "t": 192386.7119999985,
      "d": 224.19310000000405,
      "v": 89
    },
    {
      "midi": 67,
      "hit": false,
      "t": 192386.7119999985,
      "d": 253.22529999999097,
      "v": 89
    },
    {
      "midi": 67,
      "hit": false,
      "t": 192773.80799999848,
      "d": 306.45100000000093,
      "v": 93
    },
    {
      "midi": 62,
      "hit": false,
      "t": 192773.80799999848,
      "d": 311.2896999999939,
      "v": 98
    },
    {
      "midi": 60,
      "hit": false,
      "t": 193160.90399999847,
      "d": 114.51589999999851,
      "v": 107
    },
    {
      "midi": 46,
      "hit": false,
      "t": 193547.99999999846,
      "d": 672.579299999983,
      "v": 107
    },
    {
      "midi": 62,
      "hit": false,
      "t": 193935.09599999845,
      "d": 183.87059999999474,
      "v": 113
    },
    {
      "midi": 65,
      "hit": false,
      "t": 193935.09599999845,
      "d": 191.93510000000242,
      "v": 98
    },
    {
      "midi": 58,
      "hit": false,
      "t": 193935.09599999845,
      "d": 195.16089999998803,
      "v": 93
    },
    {
      "midi": 62,
      "hit": false,
      "t": 194709.28799999843,
      "d": 111.2900999999838,
      "v": 102
    },
    {
      "midi": 65,
      "hit": false,
      "t": 194709.28799999843,
      "d": 130.64489999998477,
      "v": 93
    },
    {
      "midi": 58,
      "hit": false,
      "t": 194709.28799999843,
      "d": 156.45129999998608,
      "v": 85
    },
    {
      "midi": 41,
      "hit": false,
      "t": 195096.38399999842,
      "d": 903.2239999999583,
      "v": 72
    },
    {
      "midi": 53,
      "hit": false,
      "t": 195483.4799999984,
      "d": 461.28939999997965,
      "v": 93
    },
    {
      "midi": 60,
      "hit": false,
      "t": 195483.4799999984,
      "d": 480.64419999998063,
      "v": 102
    },
    {
      "midi": 57,
      "hit": false,
      "t": 195483.4799999984,
      "d": 490.32159999996657,
      "v": 102
    },
    {
      "midi": 48,
      "hit": false,
      "t": 195870.5759999984,
      "d": 164.51579999996466,
      "v": 64
    },
    {
      "midi": 57,
      "hit": false,
      "t": 196257.67199999836,
      "d": 91.93530000001192,
      "v": 80
    },
    {
      "midi": 53,
      "hit": false,
      "t": 196257.67199999836,
      "d": 103.22560000000522,
      "v": 76
    },
    {
      "midi": 60,
      "hit": false,
      "t": 196257.67199999836,
      "d": 137.0965000000142,
      "v": 80
    },
    {
      "midi": 48,
      "hit": false,
      "t": 196515.73599999837,
      "d": 1403.222999999969,
      "v": 98
    },
    {
      "midi": 55,
      "hit": false,
      "t": 196902.83199999837,
      "d": 112.90299999999115,
      "v": 80
    },
    {
      "midi": 60,
      "hit": false,
      "t": 197031.86399999834,
      "d": 883.8691999999864,
      "v": 72
    },
    {
      "midi": 64,
      "hit": false,
      "t": 197031.86399999834,
      "d": 885.4820999999938,
      "v": 89
    },
    {
      "midi": 67,
      "hit": false,
      "t": 197031.86399999834,
      "d": 898.3852999999945,
      "v": 89
    },
    {
      "midi": 55,
      "hit": false,
      "t": 197806.05599999835,
      "d": 93.54819999999017,
      "v": 89
    },
    {
      "midi": 64,
      "hit": false,
      "t": 198064.11999999834,
      "d": 77.41920000000391,
      "v": 107
    },
    {
      "midi": 60,
      "hit": false,
      "t": 198064.11999999834,
      "d": 90.32240000000456,
      "v": 93
    },
    {
      "midi": 67,
      "hit": false,
      "t": 198064.11999999834,
      "d": 96.77400000000489,
      "v": 98
    },
    {
      "midi": 48,
      "hit": false,
      "t": 198451.21599999833,
      "d": 903.2239999999583,
      "v": 98
    },
    {
      "midi": 64,
      "hit": false,
      "t": 198580.24799999833,
      "d": 261.28979999999865,
      "v": 93
    },
    {
      "midi": 60,
      "hit": false,
      "t": 198580.24799999833,
      "d": 279.03169999999227,
      "v": 89
    },
    {
      "midi": 67,
      "hit": false,
      "t": 198580.24799999833,
      "d": 285.4832999999926,
      "v": 93
    },
    {
      "midi": 55,
      "hit": false,
      "t": 198838.31199999835,
      "d": 85.48369999998249,
      "v": 93
    },
    {
      "midi": 60,
      "hit": false,
      "t": 198967.34399999832,
      "d": 248.386599999998,
      "v": 85
    },
    {
      "midi": 62,
      "hit": false,
      "t": 198967.34399999832,
      "d": 248.386599999998,
      "v": 107
    },
    {
      "midi": 67,
      "hit": false,
      "t": 198967.34399999832,
      "d": 270.9671999999846,
      "v": 93
    },
    {
      "midi": 55,
      "hit": false,
      "t": 199225.4079999983,
      "d": 93.54819999999017,
      "v": 102
    },
    {
      "midi": 60,
      "hit": false,
      "t": 199354.43999999829,
      "d": 109.67720000000554,
      "v": 89
    },
    {
      "midi": 64,
      "hit": false,
      "t": 199354.43999999829,
      "d": 129.03200000000652,
      "v": 93
    },
    {
      "midi": 67,
      "hit": false,
      "t": 199354.43999999829,
      "d": 149.99970000001485,
      "v": 93
    },
    {
      "midi": 65,
      "hit": false,
      "t": 199741.5359999983,
      "d": 291.9348999999929,
      "v": 89
    },
    {
      "midi": 62,
      "hit": false,
      "t": 199741.5359999983,
      "d": 299.9994000000006,
      "v": 102
    },
    {
      "midi": 58,
      "hit": false,
      "t": 199741.5359999983,
      "d": 309.67679999998654,
      "v": 80
    },
    {
      "midi": 46,
      "hit": false,
      "t": 199741.5359999983,
      "d": 420.96689999999944,
      "v": 102
    },
    {
      "midi": 58,
      "hit": false,
      "t": 200128.6319999983,
      "d": 295.16070000000764,
      "v": 59
    },
    {
      "midi": 62,
      "hit": false,
      "t": 200128.6319999983,
      "d": 317.7412999999942,
      "v": 76
    },
    {
      "midi": 65,
      "hit": false,
      "t": 200128.6319999983,
      "d": 338.70900000000256,
      "v": 76
    },
    {
      "midi": 58,
      "hit": false,
      "t": 200515.7279999983,
      "d": 240.32209999999031,
      "v": 62
    },
    {
      "midi": 46,
      "hit": false,
      "t": 200773.79199999827,
      "d": 108.06429999999818,
      "v": 107
    },
    {
      "midi": 62,
      "hit": false,
      "t": 200902.82399999828,
      "d": 91.93530000001192,
      "v": 102
    },
    {
      "midi": 65,
      "hit": false,
      "t": 200902.82399999828,
      "d": 119.35460000002058,
      "v": 93
    },
    {
      "midi": 58,
      "hit": false,
      "t": 200902.82399999828,
      "d": 124.19330000001355,
      "v": 76
    },
    {
      "midi": 53,
      "hit": false,
      "t": 201289.9199999983,
      "d": 662.9018999999971,
      "v": 80
    },
    {
      "midi": 41,
      "hit": false,
      "t": 201289.9199999983,
      "d": 811.2887000000046,
      "v": 85
    },
    {
      "midi": 60,
      "hit": false,
      "t": 201289.9199999983,
      "d": 1020.9657000000007,
      "v": 89
    },
    {
      "midi": 57,
      "hit": false,
      "t": 201289.9199999983,
      "d": 1029.0302000000083,
      "v": 89
    },
    {
      "midi": 53,
      "hit": false,
      "t": 202064.1119999983,
      "d": 256.4511000000057,
      "v": 57
    },
    {
      "midi": 41,
      "hit": false,
      "t": 202322.17599999832,
      "d": 88.7094999999972,
      "v": 89
    },
    {
      "midi": 53,
      "hit": false,
      "t": 202451.20799999833,
      "d": 69.35469999999623,
      "v": 85
    },
    {
      "midi": 57,
      "hit": false,
      "t": 202451.20799999833,
      "d": 72.58049999998184,
      "v": 98
    },
    {
      "midi": 60,
      "hit": false,
      "t": 202451.20799999833,
      "d": 101.61269999996875,
      "v": 98
    },
    {
      "midi": 48,
      "hit": false,
      "t": 202838.30399999832,
      "d": 1483.8679999999586,
      "v": 80
    },
    {
      "midi": 55,
      "hit": false,
      "t": 203096.36799999833,
      "d": 130.64489999998477,
      "v": 60
    },
    {
      "midi": 60,
      "hit": false,
      "t": 203225.3999999983,
      "d": 245.1608000000124,
      "v": 89
    },
    {
      "midi": 64,
      "hit": false,
      "t": 203225.3999999983,
      "d": 249.99950000000536,
      "v": 93
    },
    {
      "midi": 67,
      "hit": false,
      "t": 203225.3999999983,
      "d": 304.8380999999936,
      "v": 93
    },
    {
      "midi": 67,
      "hit": false,
      "t": 203612.4959999983,
      "d": 62.9030999999959,
      "v": 27
    },
    {
      "midi": 60,
      "hit": false,
      "t": 203612.4959999983,
      "d": 143.54809999998542,
      "v": 59
    },
    {
      "midi": 55,
      "hit": false,
      "t": 203870.55999999828,
      "d": 95.16109999999753,
      "v": 76
    },
    {
      "midi": 65,
      "hit": false,
      "t": 203999.5919999983,
      "d": 149.99969999998575,
      "v": 89
    },
    {
      "midi": 60,
      "hit": false,
      "t": 203999.5919999983,
      "d": 156.45129999998608,
      "v": 85
    },
    {
      "midi": 67,
      "hit": false,
      "t": 203999.5919999983,
      "d": 159.6770999999717,
      "v": 89
    },
    {
      "midi": 60,
      "hit": false,
      "t": 204257.65599999827,
      "d": 103.22559999997611,
      "v": 85
    },
    {
      "midi": 64,
      "hit": false,
      "t": 204257.65599999827,
      "d": 103.22559999997611,
      "v": 89
    },
    {
      "midi": 67,
      "hit": false,
      "t": 204257.65599999827,
      "d": 103.22559999997611,
      "v": 85
    },
    {
      "midi": 65,
      "hit": false,
      "t": 204386.68799999825,
      "d": 133.8706999999995,
      "v": 98
    },
    {
      "midi": 50,
      "hit": false,
      "t": 204386.68799999825,
      "d": 143.54809999998542,
      "v": 89
    },
    {
      "midi": 62,
      "hit": false,
      "t": 204386.68799999825,
      "d": 143.54809999998542,
      "v": 93
    },
    {
      "midi": 69,
      "hit": false,
      "t": 204386.68799999825,
      "d": 154.83839999997872,
      "v": 93
    },
    {
      "midi": 65,
      "hit": false,
      "t": 204773.78399999824,
      "d": 114.51589999999851,
      "v": 89
    },
    {
      "midi": 69,
      "hit": false,
      "t": 204773.78399999824,
      "d": 133.8706999999995,
      "v": 93
    },
    {
      "midi": 50,
      "hit": false,
      "t": 204773.78399999824,
      "d": 137.0964999999851,
      "v": 93
    },
    {
      "midi": 62,
      "hit": false,
      "t": 204773.78399999824,
      "d": 140.3222999999707,
      "v": 89
    },
    {
      "midi": 57,
      "hit": false,
      "t": 205160.8799999982,
      "d": 180.64480000000913,
      "v": 107
    },
    {
      "midi": 53,
      "hit": false,
      "t": 205160.8799999982,
      "d": 183.87059999999474,
      "v": 89
    },
    {
      "midi": 60,
      "hit": false,
      "t": 205160.8799999982,
      "d": 190.32219999999506,
      "v": 89
    },
    {
      "midi": 53,
      "hit": false,
      "t": 205547.9759999982,
      "d": 177.4189999999944,
      "v": 89
    },
    {
      "midi": 57,
      "hit": false,
      "t": 205547.9759999982,
      "d": 182.25769999998738,
      "v": 98
    },
    {
      "midi": 60,
      "hit": false,
      "t": 205547.9759999982,
      "d": 193.54799999998068,
      "v": 93
    },
    {
      "midi": 55,
      "hit": false,
      "t": 205935.07199999818,
      "d": 279.03169999999227,
      "v": 76
    },
    {
      "midi": 62,
      "hit": false,
      "t": 205935.07199999818,
      "d": 279.03169999999227,
      "v": 98
    },
    {
      "midi": 59,
      "hit": false,
      "t": 205935.07199999818,
      "d": 280.6445999999996,
      "v": 93
    },
    {
      "midi": 43,
      "hit": false,
      "t": 205935.07199999818,
      "d": 441.9345999999787,
      "v": 89
    },
    {
      "midi": 55,
      "hit": false,
      "t": 206322.16799999817,
      "d": 232.25759999998263,
      "v": 72
    },
    {
      "midi": 59,
      "hit": false,
      "t": 206322.16799999817,
      "d": 240.32209999999031,
      "v": 89
    },
    {
      "midi": 62,
      "hit": false,
      "t": 206322.16799999817,
      "d": 241.93499999999767,
      "v": 89
    },
    {
      "midi": 43,
      "hit": false,
      "t": 206580.23199999816,
      "d": 120.96749999999884,
      "v": 85
    },
    {
      "midi": 55,
      "hit": false,
      "t": 206709.26399999816,
      "d": 251.6124000000127,
      "v": 72
    },
    {
      "midi": 62,
      "hit": false,
      "t": 206709.26399999816,
      "d": 259.6769000000204,
      "v": 93
    },
    {
      "midi": 59,
      "hit": false,
      "t": 206709.26399999816,
      "d": 262.902700000006,
      "v": 89
    },
    {
      "midi": 43,
      "hit": false,
      "t": 206967.32799999818,
      "d": 153.22549999997136,
      "v": 93
    },
    {
      "midi": 62,
      "hit": false,
      "t": 207096.35999999815,
      "d": 188.7092999999877,
      "v": 98
    },
    {
      "midi": 59,
      "hit": false,
      "t": 207096.35999999815,
      "d": 193.54799999998068,
      "v": 98
    },
    {
      "midi": 55,
      "hit": false,
      "t": 207096.35999999815,
      "d": 199.999599999981,
      "v": 89
    },
    {
      "midi": 48,
      "hit": false,
      "t": 207483.45599999814,
      "d": 93.54819999999017,
      "v": 127
    },
    {
      "midi": 60,
      "hit": false,
      "t": 207483.45599999814,
      "d": 114.51589999999851,
      "v": 119
    },
    {
      "midi": 55,
      "hit": false,
      "t": 207483.45599999814,
      "d": 122.5804000000062,
      "v": 107
    },
    {
      "midi": 64,
      "hit": false,
      "t": 207483.45599999814,
      "d": 129.03200000000652,
      "v": 107
    }
  ]
}