{
  "jsonPath": "Rock/Album Rock/Aldo Nova/rumors-of-you.json",
  "path": "Rock\\Album Rock\\Aldo Nova\\Rumors Of You.mid",
  "name": "Rumors Of You",
  "difficulty": "Advanced",
  "bpm": 120,
  "notes": [
    {
      "midi": 57,
      "hit": false,
      "t": 18483.333333333332,
      "d": 2000.0000000000036,
      "v": 78
    },
    {
      "midi": 72,
      "hit": false,
      "t": 19366.666666666668,
      "d": 383.3333333333321,
      "v": 49
    },
    {
      "midi": 69,
      "hit": false,
      "t": 19366.666666666668,
      "d": 400,
      "v": 56
    },
    {
      "midi": 64,
      "hit": false,
      "t": 20033.333333333336,
      "d": 200,
      "v": 29
    },
    {
      "midi": 69,
      "hit": false,
      "t": 20250.000000000004,
      "d": 950,
      "v": 72
    },
    {
      "midi": 72,
      "hit": false,
      "t": 20250.000000000004,
      "d": 1000,
      "v": 63
    },
    {
      "midi": 55,
      "hit": false,
      "t": 21566.66666666667,
      "d": 1416.6666666666679,
      "v": 30
    },
    {
      "midi": 67,
      "hit": false,
      "t": 22000.000000000004,
      "d": 416.6666666666679,
      "v": 78
    },
    {
      "midi": 71,
      "hit": false,
      "t": 22000.000000000004,
      "d": 450,
      "v": 66
    },
    {
      "midi": 62,
      "hit": false,
      "t": 22450.000000000004,
      "d": 316.6666666666679,
      "v": 52
    },
    {
      "midi": 71,
      "hit": false,
      "t": 22883.33333333334,
      "d": 1116.6666666666642,
      "v": 70
    },
    {
      "midi": 67,
      "hit": false,
      "t": 22883.33333333334,
      "d": 1249.9999999999964,
      "v": 80
    },
    {
      "midi": 62,
      "hit": false,
      "t": 23333.33333333334,
      "d": 466.66666666666424,
      "v": 65
    },
    {
      "midi": 64,
      "hit": false,
      "t": 23766.66666666667,
      "d": 316.66666666666424,
      "v": 78
    },
    {
      "midi": 48,
      "hit": false,
      "t": 23766.66666666667,
      "d": 966.6666666666642,
      "v": 74
    },
    {
      "midi": 55,
      "hit": false,
      "t": 24200.000000000004,
      "d": 566.6666666666642,
      "v": 61
    },
    {
      "midi": 72,
      "hit": false,
      "t": 24650.000000000004,
      "d": 783.3333333333321,
      "v": 76
    },
    {
      "midi": 60,
      "hit": false,
      "t": 24650.000000000004,
      "d": 833.3333333333321,
      "v": 61
    },
    {
      "midi": 64,
      "hit": false,
      "t": 25083.333333333336,
      "d": 266.6666666666679,
      "v": 68
    },
    {
      "midi": 53,
      "hit": false,
      "t": 25533.333333333336,
      "d": 383.3333333333321,
      "v": 70
    },
    {
      "midi": 69,
      "hit": false,
      "t": 25533.333333333336,
      "d": 916.6666666666642,
      "v": 83
    },
    {
      "midi": 72,
      "hit": false,
      "t": 25533.333333333336,
      "d": 1283.3333333333321,
      "v": 63
    },
    {
      "midi": 65,
      "hit": false,
      "t": 25966.666666666668,
      "d": 83.33333333333212,
      "v": 32
    },
    {
      "midi": 67,
      "hit": false,
      "t": 26400,
      "d": 400,
      "v": 78
    },
    {
      "midi": 48,
      "hit": false,
      "t": 26400,
      "d": 800,
      "v": 72
    },
    {
      "midi": 55,
      "hit": false,
      "t": 26850,
      "d": 516.6666666666642,
      "v": 54
    },
    {
      "midi": 60,
      "hit": false,
      "t": 27283.333333333332,
      "d": 1233.3333333333285,
      "v": 62
    },
    {
      "midi": 64,
      "hit": false,
      "t": 27949.999999999996,
      "d": 183.33333333333212,
      "v": 36
    },
    {
      "midi": 72,
      "hit": false,
      "t": 28166.66666666666,
      "d": 1066.6666666666679,
      "v": 80
    },
    {
      "midi": 64,
      "hit": false,
      "t": 28616.66666666666,
      "d": 500,
      "v": 57
    },
    {
      "midi": 45,
      "hit": false,
      "t": 29049.999999999993,
      "d": 550.0000000000036,
      "v": 86
    },
    {
      "midi": 52,
      "hit": false,
      "t": 29483.33333333333,
      "d": 483.3333333333321,
      "v": 54
    },
    {
      "midi": 69,
      "hit": false,
      "t": 29933.33333333333,
      "d": 383.3333333333321,
      "v": 70
    },
    {
      "midi": 72,
      "hit": false,
      "t": 29933.33333333333,
      "d": 433.3333333333321,
      "v": 61
    },
    {
      "midi": 57,
      "hit": false,
      "t": 29933.33333333333,
      "d": 1700,
      "v": 70
    },
    {
      "midi": 64,
      "hit": false,
      "t": 30583.33333333333,
      "d": 216.66666666666788,
      "v": 30
    },
    {
      "midi": 64,
      "hit": false,
      "t": 30816.666666666664,
      "d": 250,
      "v": 35
    },
    {
      "midi": 69,
      "hit": false,
      "t": 30816.666666666664,
      "d": 466.66666666666424,
      "v": 74
    },
    {
      "midi": 64,
      "hit": false,
      "t": 31249.999999999996,
      "d": 333.3333333333321,
      "v": 54
    },
    {
      "midi": 65,
      "hit": false,
      "t": 31683.33333333333,
      "d": 333.3333333333321,
      "v": 56
    },
    {
      "midi": 69,
      "hit": false,
      "t": 31683.33333333333,
      "d": 366.66666666666424,
      "v": 65
    },
    {
      "midi": 50,
      "hit": false,
      "t": 31683.33333333333,
      "d": 1599.9999999999927,
      "v": 72
    },
    {
      "midi": 57,
      "hit": false,
      "t": 32133.333333333325,
      "d": 1233.3333333333321,
      "v": 58
    },
    {
      "midi": 62,
      "hit": false,
      "t": 32566.666666666657,
      "d": 700,
      "v": 56
    },
    {
      "midi": 65,
      "hit": false,
      "t": 33016.66666666666,
      "d": 116.66666666666424,
      "v": 55
    },
    {
      "midi": 69,
      "hit": false,
      "t": 33449.99999999999,
      "d": 433.3333333333285,
      "v": 76
    },
    {
      "midi": 74,
      "hit": false,
      "t": 33449.99999999999,
      "d": 733.3333333333285,
      "v": 78
    },
    {
      "midi": 62,
      "hit": false,
      "t": 33666.66666666666,
      "d": 266.66666666666424,
      "v": 1
    },
    {
      "midi": 65,
      "hit": false,
      "t": 33883.33333333332,
      "d": 300,
      "v": 45
    },
    {
      "midi": 72,
      "hit": false,
      "t": 34333.33333333332,
      "d": 316.66666666666424,
      "v": 65
    },
    {
      "midi": 68,
      "hit": false,
      "t": 34333.33333333332,
      "d": 366.66666666666424,
      "v": 63
    },
    {
      "midi": 53,
      "hit": false,
      "t": 34333.33333333332,
      "d": 1016.6666666666642,
      "v": 62
    },
    {
      "midi": 60,
      "hit": false,
      "t": 34333.33333333332,
      "d": 1833.3333333333285,
      "v": 48
    },
    {
      "midi": 68,
      "hit": false,
      "t": 35216.66666666665,
      "d": 450,
      "v": 57
    },
    {
      "midi": 72,
      "hit": false,
      "t": 35216.66666666665,
      "d": 500,
      "v": 62
    },
    {
      "midi": 65,
      "hit": false,
      "t": 35649.999999999985,
      "d": 283.3333333333285,
      "v": 40
    },
    {
      "midi": 55,
      "hit": false,
      "t": 36083.333333333314,
      "d": 333.33333333333576,
      "v": 74
    },
    {
      "midi": 67,
      "hit": false,
      "t": 36083.333333333314,
      "d": 1349.9999999999927,
      "v": 86
    },
    {
      "midi": 71,
      "hit": false,
      "t": 36083.333333333314,
      "d": 1366.666666666657,
      "v": 65
    },
    {
      "midi": 62,
      "hit": false,
      "t": 36533.333333333314,
      "d": 216.66666666666424,
      "v": 38
    },
    {
      "midi": 64,
      "hit": false,
      "t": 36966.66666666664,
      "d": 366.66666666666424,
      "v": 76
    },
    {
      "midi": 48,
      "hit": false,
      "t": 36966.66666666664,
      "d": 2150,
      "v": 78
    },
    {
      "midi": 55,
      "hit": false,
      "t": 37416.66666666664,
      "d": 1733.3333333333358,
      "v": 72
    },
    {
      "midi": 60,
      "hit": false,
      "t": 37849.99999999997,
      "d": 666.6666666666715,
      "v": 74
    },
    {
      "midi": 64,
      "hit": false,
      "t": 38283.33333333331,
      "d": 200,
      "v": 61
    },
    {
      "midi": 60,
      "hit": false,
      "t": 38733.33333333331,
      "d": 300,
      "v": 56
    },
    {
      "midi": 72,
      "hit": false,
      "t": 38733.33333333331,
      "d": 1033.3333333333358,
      "v": 86
    },
    {
      "midi": 64,
      "hit": false,
      "t": 39166.66666666664,
      "d": 533.3333333333358,
      "v": 76
    },
    {
      "midi": 57,
      "hit": false,
      "t": 39616.66666666664,
      "d": 1816.666666666657,
      "v": 96
    },
    {
      "midi": 60,
      "hit": false,
      "t": 40049.99999999998,
      "d": 2116.6666666666497,
      "v": 61
    },
    {
      "midi": 64,
      "hit": false,
      "t": 40499.99999999998,
      "d": 66.66666666666424,
      "v": 72
    },
    {
      "midi": 72,
      "hit": false,
      "t": 40499.99999999998,
      "d": 83.33333333332848,
      "v": 80
    },
    {
      "midi": 64,
      "hit": false,
      "t": 40933.33333333331,
      "d": 116.66666666666424,
      "v": 63
    },
    {
      "midi": 64,
      "hit": false,
      "t": 41366.666666666635,
      "d": 333.3333333333285,
      "v": 78
    },
    {
      "midi": 72,
      "hit": false,
      "t": 41366.666666666635,
      "d": 749.9999999999927,
      "v": 86
    },
    {
      "midi": 64,
      "hit": false,
      "t": 41816.66666666663,
      "d": 200,
      "v": 58
    },
    {
      "midi": 67,
      "hit": false,
      "t": 42249.99999999996,
      "d": 316.66666666666424,
      "v": 80
    },
    {
      "midi": 71,
      "hit": false,
      "t": 42249.99999999996,
      "d": 433.3333333333285,
      "v": 65
    },
    {
      "midi": 55,
      "hit": false,
      "t": 42249.99999999996,
      "d": 783.3333333333285,
      "v": 70
    },
    {
      "midi": 67,
      "hit": false,
      "t": 42916.66666666663,
      "d": 150,
      "v": 28
    },
    {
      "midi": 74,
      "hit": false,
      "t": 43133.33333333329,
      "d": 50,
      "v": 68
    },
    {
      "midi": 71,
      "hit": false,
      "t": 43133.33333333329,
      "d": 66.66666666666424,
      "v": 66
    },
    {
      "midi": 62,
      "hit": false,
      "t": 43133.33333333329,
      "d": 633.3333333333285,
      "v": 63
    },
    {
      "midi": 59,
      "hit": false,
      "t": 43133.33333333329,
      "d": 1116.6666666666642,
      "v": 58
    },
    {
      "midi": 67,
      "hit": false,
      "t": 43566.66666666662,
      "d": 133.33333333333576,
      "v": 68
    },
    {
      "midi": 62,
      "hit": false,
      "t": 44016.66666666662,
      "d": 233.33333333333576,
      "v": 66
    },
    {
      "midi": 74,
      "hit": false,
      "t": 44016.66666666662,
      "d": 700,
      "v": 76
    },
    {
      "midi": 71,
      "hit": false,
      "t": 44016.66666666662,
      "d": 833.3333333333358,
      "v": 80
    },
    {
      "midi": 72,
      "hit": false,
      "t": 44899.999999999956,
      "d": 166.66666666666424,
      "v": 74
    },
    {
      "midi": 67,
      "hit": false,
      "t": 44899.999999999956,
      "d": 350,
      "v": 78
    },
    {
      "midi": 48,
      "hit": false,
      "t": 44899.999999999956,
      "d": 866.6666666666715,
      "v": 76
    },
    {
      "midi": 55,
      "hit": false,
      "t": 45333.33333333329,
      "d": 483.33333333333576,
      "v": 72
    },
    {
      "midi": 67,
      "hit": false,
      "t": 45766.66666666663,
      "d": 433.33333333333576,
      "v": 66
    },
    {
      "midi": 72,
      "hit": false,
      "t": 45766.66666666663,
      "d": 666.6666666666642,
      "v": 63
    },
    {
      "midi": 60,
      "hit": false,
      "t": 45766.66666666663,
      "d": 683.3333333333285,
      "v": 61
    },
    {
      "midi": 64,
      "hit": false,
      "t": 46216.66666666663,
      "d": 166.66666666666424,
      "v": 62
    },
    {
      "midi": 60,
      "hit": false,
      "t": 46649.999999999956,
      "d": 400,
      "v": 61
    },
    {
      "midi": 53,
      "hit": false,
      "t": 46649.999999999956,
      "d": 450,
      "v": 59
    },
    {
      "midi": 65,
      "hit": false,
      "t": 46649.999999999956,
      "d": 716.6666666666642,
      "v": 66
    },
    {
      "midi": 72,
      "hit": false,
      "t": 46649.999999999956,
      "d": 850,
      "v": 80
    },
    {
      "midi": 48,
      "hit": false,
      "t": 47533.33333333329,
      "d": 783.3333333333285,
      "v": 74
    },
    {
      "midi": 67,
      "hit": false,
      "t": 47533.33333333329,
      "d": 899.9999999999927,
      "v": 76
    },
    {
      "midi": 64,
      "hit": false,
      "t": 47533.33333333329,
      "d": 949.9999999999927,
      "v": 72
    },
    {
      "midi": 55,
      "hit": false,
      "t": 47966.66666666662,
      "d": 550,
      "v": 70
    },
    {
      "midi": 60,
      "hit": false,
      "t": 48416.66666666662,
      "d": 333.33333333333576,
      "v": 96
    },
    {
      "midi": 64,
      "hit": false,
      "t": 48849.999999999956,
      "d": 233.33333333333576,
      "v": 105
    },
    {
      "midi": 72,
      "hit": false,
      "t": 49299.999999999956,
      "d": 566.6666666666715,
      "v": 110
    },
    {
      "midi": 67,
      "hit": false,
      "t": 49733.33333333329,
      "d": 350.0000000000073,
      "v": 96
    },
    {
      "midi": 69,
      "hit": false,
      "t": 49949.99999999996,
      "d": 83.33333333333576,
      "v": 58
    },
    {
      "midi": 69,
      "hit": false,
      "t": 50183.3333333333,
      "d": 416.66666666666424,
      "v": 92
    },
    {
      "midi": 53,
      "hit": false,
      "t": 50183.3333333333,
      "d": 749.9999999999927,
      "v": 76
    },
    {
      "midi": 57,
      "hit": false,
      "t": 50616.66666666663,
      "d": 1616.666666666657,
      "v": 83
    },
    {
      "midi": 65,
      "hit": false,
      "t": 51049.999999999956,
      "d": 416.66666666666424,
      "v": 74
    },
    {
      "midi": 69,
      "hit": false,
      "t": 51049.999999999956,
      "d": 466.66666666666424,
      "v": 89
    },
    {
      "midi": 60,
      "hit": false,
      "t": 51049.999999999956,
      "d": 583.3333333333285,
      "v": 35
    },
    {
      "midi": 65,
      "hit": false,
      "t": 51716.66666666662,
      "d": 83.33333333333576,
      "v": 48
    },
    {
      "midi": 60,
      "hit": false,
      "t": 51933.33333333329,
      "d": 166.66666666666424,
      "v": 62
    },
    {
      "midi": 65,
      "hit": false,
      "t": 51933.33333333329,
      "d": 233.33333333332848,
      "v": 74
    },
    {
      "midi": 72,
      "hit": false,
      "t": 51933.33333333329,
      "d": 699.9999999999927,
      "v": 83
    },
    {
      "midi": 65,
      "hit": false,
      "t": 52383.333333333285,
      "d": 200,
      "v": 63
    },
    {
      "midi": 67,
      "hit": false,
      "t": 52599.99999999995,
      "d": 100,
      "v": 76
    },
    {
      "midi": 71,
      "hit": false,
      "t": 52599.99999999995,
      "d": 100,
      "v": 53
    },
    {
      "midi": 71,
      "hit": false,
      "t": 52816.66666666661,
      "d": 366.66666666666424,
      "v": 74
    },
    {
      "midi": 67,
      "hit": false,
      "t": 52816.66666666661,
      "d": 400,
      "v": 83
    },
    {
      "midi": 52,
      "hit": false,
      "t": 52816.66666666661,
      "d": 1150,
      "v": 80
    },
    {
      "midi": 59,
      "hit": false,
      "t": 53699.99999999995,
      "d": 216.66666666666424,
      "v": 65
    },
    {
      "midi": 67,
      "hit": false,
      "t": 53699.99999999995,
      "d": 466.66666666666424,
      "v": 66
    },
    {
      "midi": 71,
      "hit": false,
      "t": 53699.99999999995,
      "d": 750,
      "v": 62
    },
    {
      "midi": 61,
      "hit": false,
      "t": 54583.333333333285,
      "d": 433.33333333333576,
      "v": 74
    },
    {
      "midi": 67,
      "hit": false,
      "t": 54583.333333333285,
      "d": 616.6666666666715,
      "v": 1
    },
    {
      "midi": 45,
      "hit": false,
      "t": 54583.333333333285,
      "d": 800.0000000000073,
      "v": 89
    },
    {
      "midi": 64,
      "hit": false,
      "t": 54583.333333333285,
      "d": 833.333333333343,
      "v": 74
    },
    {
      "midi": 62,
      "hit": false,
      "t": 55449.99999999996,
      "d": 233.33333333333576,
      "v": 59
    },
    {
      "midi": 65,
      "hit": false,
      "t": 55449.99999999996,
      "d": 350,
      "v": 66
    },
    {
      "midi": 50,
      "hit": false,
      "t": 55449.99999999996,
      "d": 916.6666666666715,
      "v": 80
    },
    {
      "midi": 69,
      "hit": false,
      "t": 56333.3333333333,
      "d": 366.6666666666715,
      "v": 72
    },
    {
      "midi": 65,
      "hit": false,
      "t": 56333.3333333333,
      "d": 616.6666666666715,
      "v": 55
    },
    {
      "midi": 74,
      "hit": false,
      "t": 56333.3333333333,
      "d": 633.3333333333358,
      "v": 72
    },
    {
      "midi": 53,
      "hit": false,
      "t": 57216.666666666635,
      "d": 616.6666666666642,
      "v": 56
    },
    {
      "midi": 65,
      "hit": false,
      "t": 57216.666666666635,
      "d": 716.6666666666642,
      "v": 76
    },
    {
      "midi": 56,
      "hit": false,
      "t": 57216.666666666635,
      "d": 733.3333333333285,
      "v": 52
    },
    {
      "midi": 68,
      "hit": false,
      "t": 57216.666666666635,
      "d": 849.9999999999927,
      "v": 74
    },
    {
      "midi": 72,
      "hit": false,
      "t": 57216.666666666635,
      "d": 1649.9999999999927,
      "v": 89
    },
    {
      "midi": 60,
      "hit": false,
      "t": 57216.666666666635,
      "d": 1716.666666666657,
      "v": 57
    },
    {
      "midi": 76,
      "hit": false,
      "t": 58099.99999999996,
      "d": 666.6666666666642,
      "v": 76
    },
    {
      "midi": 67,
      "hit": false,
      "t": 58099.99999999996,
      "d": 750,
      "v": 68
    },
    {
      "midi": 55,
      "hit": false,
      "t": 58099.99999999996,
      "d": 1599.9999999999927,
      "v": 65
    },
    {
      "midi": 64,
      "hit": false,
      "t": 58983.33333333329,
      "d": 500,
      "v": 66
    },
    {
      "midi": 60,
      "hit": false,
      "t": 58983.33333333329,
      "d": 733.3333333333285,
      "v": 39
    },
    {
      "midi": 67,
      "hit": false,
      "t": 59416.66666666663,
      "d": 166.66666666666424,
      "v": 78
    },
    {
      "midi": 64,
      "hit": false,
      "t": 59849.999999999956,
      "d": 316.66666666666424,
      "v": 70
    },
    {
      "midi": 67,
      "hit": false,
      "t": 59849.999999999956,
      "d": 350,
      "v": 86
    },
    {
      "midi": 76,
      "hit": false,
      "t": 59849.999999999956,
      "d": 983.3333333333285,
      "v": 89
    },
    {
      "midi": 60,
      "hit": false,
      "t": 59849.999999999956,
      "d": 1783.3333333333285,
      "v": 35
    },
    {
      "midi": 67,
      "hit": false,
      "t": 60516.66666666662,
      "d": 500,
      "v": 74
    },
    {
      "midi": 53,
      "hit": false,
      "t": 60733.333333333285,
      "d": 900,
      "v": 80
    },
    {
      "midi": 69,
      "hit": false,
      "t": 61616.66666666662,
      "d": 450,
      "v": 72
    },
    {
      "midi": 72,
      "hit": false,
      "t": 61616.66666666662,
      "d": 716.6666666666642,
      "v": 66
    },
    {
      "midi": 65,
      "hit": false,
      "t": 62066.66666666662,
      "d": 150,
      "v": 38
    },
    {
      "midi": 52,
      "hit": false,
      "t": 62499.99999999995,
      "d": 366.66666666666424,
      "v": 78
    },
    {
      "midi": 67,
      "hit": false,
      "t": 62499.99999999995,
      "d": 550,
      "v": 83
    },
    {
      "midi": 71,
      "hit": false,
      "t": 62499.99999999995,
      "d": 583.3333333333358,
      "v": 72
    },
    {
      "midi": 64,
      "hit": false,
      "t": 62499.99999999995,
      "d": 2800.0000000000073,
      "v": 68
    },
    {
      "midi": 69,
      "hit": false,
      "t": 63383.333333333285,
      "d": 1833.3333333333358,
      "v": 76
    },
    {
      "midi": 45,
      "hit": false,
      "t": 63383.333333333285,
      "d": 2116.6666666666715,
      "v": 92
    },
    {
      "midi": 52,
      "hit": false,
      "t": 63816.66666666662,
      "d": 1750.0000000000073,
      "v": 68
    },
    {
      "midi": 57,
      "hit": false,
      "t": 64266.66666666662,
      "d": 600,
      "v": 83
    },
    {
      "midi": 60,
      "hit": false,
      "t": 64699.999999999956,
      "d": 433.3333333333285,
      "v": 48
    },
    {
      "midi": 60,
      "hit": false,
      "t": 65583.3333333333,
      "d": 283.3333333333285,
      "v": 86
    },
    {
      "midi": 53,
      "hit": false,
      "t": 66016.66666666663,
      "d": 1083.3333333333285,
      "v": 76
    },
    {
      "midi": 56,
      "hit": false,
      "t": 66016.66666666663,
      "d": 1133.3333333333285,
      "v": 74
    },
    {
      "midi": 60,
      "hit": false,
      "t": 66016.66666666663,
      "d": 1683.3333333333285,
      "v": 70
    },
    {
      "midi": 65,
      "hit": false,
      "t": 66466.66666666663,
      "d": 150,
      "v": 68
    },
    {
      "midi": 68,
      "hit": false,
      "t": 66899.99999999996,
      "d": 733.3333333333285,
      "v": 93
    },
    {
      "midi": 72,
      "hit": false,
      "t": 66899.99999999996,
      "d": 816.6666666666715,
      "v": 92
    },
    {
      "midi": 62,
      "hit": false,
      "t": 67783.3333333333,
      "d": 466.6666666666715,
      "v": 68
    },
    {
      "midi": 74,
      "hit": false,
      "t": 67783.3333333333,
      "d": 466.6666666666715,
      "v": 80
    },
    {
      "midi": 67,
      "hit": false,
      "t": 67783.3333333333,
      "d": 716.6666666666715,
      "v": 80
    },
    {
      "midi": 55,
      "hit": false,
      "t": 67783.3333333333,
      "d": 1366.666666666686,
      "v": 80
    },
    {
      "midi": 72,
      "hit": false,
      "t": 68666.66666666664,
      "d": 316.6666666666715,
      "v": 70
    },
    {
      "midi": 76,
      "hit": false,
      "t": 68666.66666666664,
      "d": 400,
      "v": 74
    },
    {
      "midi": 64,
      "hit": false,
      "t": 68666.66666666664,
      "d": 466.6666666666715,
      "v": 72
    },
    {
      "midi": 60,
      "hit": false,
      "t": 68666.66666666664,
      "d": 550.0000000000146,
      "v": 63
    },
    {
      "midi": 64,
      "hit": false,
      "t": 69533.33333333333,
      "d": 516.6666666666715,
      "v": 66
    },
    {
      "midi": 60,
      "hit": false,
      "t": 69533.33333333333,
      "d": 583.333333333343,
      "v": 54
    },
    {
      "midi": 79,
      "hit": false,
      "t": 69983.33333333333,
      "d": 250.00000000001455,
      "v": 80
    },
    {
      "midi": 74,
      "hit": false,
      "t": 69983.33333333333,
      "d": 266.66666666668607,
      "v": 86
    },
    {
      "midi": 64,
      "hit": false,
      "t": 70416.66666666669,
      "d": 166.66666666667152,
      "v": 72
    },
    {
      "midi": 60,
      "hit": false,
      "t": 70416.66666666669,
      "d": 200,
      "v": 74
    },
    {
      "midi": 79,
      "hit": false,
      "t": 70416.66666666669,
      "d": 316.6666666666715,
      "v": 78
    },
    {
      "midi": 76,
      "hit": false,
      "t": 70416.66666666669,
      "d": 333.33333333334303,
      "v": 68
    },
    {
      "midi": 72,
      "hit": false,
      "t": 70866.6666666667,
      "d": 300,
      "v": 92
    },
    {
      "midi": 76,
      "hit": false,
      "t": 70866.6666666667,
      "d": 350,
      "v": 89
    },
    {
      "midi": 45,
      "hit": false,
      "t": 71300.00000000003,
      "d": 133.33333333332848,
      "v": 96
    },
    {
      "midi": 72,
      "hit": false,
      "t": 71300.00000000003,
      "d": 433.3333333333285,
      "v": 100
    },
    {
      "midi": 69,
      "hit": false,
      "t": 71300.00000000003,
      "d": 750,
      "v": 86
    },
    {
      "midi": 64,
      "hit": false,
      "t": 72183.33333333336,
      "d": 466.66666666665697,
      "v": 66
    },
    {
      "midi": 60,
      "hit": false,
      "t": 72183.33333333336,
      "d": 499.99999999998545,
      "v": 68
    },
    {
      "midi": 69,
      "hit": false,
      "t": 72616.66666666669,
      "d": 83.33333333332848,
      "v": 80
    },
    {
      "midi": 72,
      "hit": false,
      "t": 72616.66666666669,
      "d": 133.33333333332848,
      "v": 92
    },
    {
      "midi": 60,
      "hit": false,
      "t": 73066.66666666669,
      "d": 183.33333333332848,
      "v": 66
    },
    {
      "midi": 71,
      "hit": false,
      "t": 73066.66666666669,
      "d": 300,
      "v": 105
    },
    {
      "midi": 64,
      "hit": false,
      "t": 73066.66666666669,
      "d": 316.6666666666715,
      "v": 61
    },
    {
      "midi": 74,
      "hit": false,
      "t": 73066.66666666669,
      "d": 316.6666666666715,
      "v": 105
    },
    {
      "midi": 76,
      "hit": false,
      "t": 73500.00000000003,
      "d": 300,
      "v": 83
    },
    {
      "midi": 72,
      "hit": false,
      "t": 73500.00000000003,
      "d": 400,
      "v": 83
    },
    {
      "midi": 74,
      "hit": false,
      "t": 73950.00000000003,
      "d": 350,
      "v": 89
    },
    {
      "midi": 71,
      "hit": false,
      "t": 73950.00000000003,
      "d": 416.6666666666715,
      "v": 92
    },
    {
      "midi": 55,
      "hit": false,
      "t": 73950.00000000003,
      "d": 566.6666666666715,
      "v": 86
    },
    {
      "midi": 67,
      "hit": false,
      "t": 74600.00000000003,
      "d": 83.33333333332848,
      "v": 34
    },
    {
      "midi": 62,
      "hit": false,
      "t": 74816.66666666669,
      "d": 616.666666666657,
      "v": 70
    },
    {
      "midi": 59,
      "hit": false,
      "t": 74816.66666666669,
      "d": 649.9999999999854,
      "v": 72
    },
    {
      "midi": 67,
      "hit": false,
      "t": 75266.66666666669,
      "d": 133.33333333332848,
      "v": 68
    },
    {
      "midi": 62,
      "hit": false,
      "t": 75700,
      "d": 166.66666666667152,
      "v": 80
    },
    {
      "midi": 67,
      "hit": false,
      "t": 75700,
      "d": 200,
      "v": 89
    },
    {
      "midi": 59,
      "hit": false,
      "t": 75700,
      "d": 216.66666666667152,
      "v": 65
    },
    {
      "midi": 71,
      "hit": false,
      "t": 75700,
      "d": 366.6666666666715,
      "v": 96
    },
    {
      "midi": 72,
      "hit": false,
      "t": 76150,
      "d": 233.33333333334303,
      "v": 74
    },
    {
      "midi": 67,
      "hit": false,
      "t": 76150,
      "d": 250.00000000001455,
      "v": 74
    },
    {
      "midi": 72,
      "hit": false,
      "t": 76583.33333333334,
      "d": 83.33333333332848,
      "v": 74
    },
    {
      "midi": 67,
      "hit": false,
      "t": 76583.33333333334,
      "d": 366.66666666665697,
      "v": 96
    },
    {
      "midi": 48,
      "hit": false,
      "t": 76583.33333333334,
      "d": 766.666666666657,
      "v": 86
    },
    {
      "midi": 55,
      "hit": false,
      "t": 77016.66666666667,
      "d": 433.3333333333285,
      "v": 70
    },
    {
      "midi": 60,
      "hit": false,
      "t": 77466.66666666667,
      "d": 266.6666666666715,
      "v": 76
    },
    {
      "midi": 60,
      "hit": false,
      "t": 77900.00000000001,
      "d": 200,
      "v": 25
    },
    {
      "midi": 67,
      "hit": false,
      "t": 77900.00000000001,
      "d": 233.33333333332848,
      "v": 83
    },
    {
      "midi": 72,
      "hit": false,
      "t": 77900.00000000001,
      "d": 300,
      "v": 89
    },
    {
      "midi": 67,
      "hit": false,
      "t": 78350.00000000001,
      "d": 216.66666666667152,
      "v": 92
    },
    {
      "midi": 74,
      "hit": false,
      "t": 78350.00000000001,
      "d": 316.6666666666715,
      "v": 105
    },
    {
      "midi": 60,
      "hit": false,
      "t": 78350.00000000001,
      "d": 516.6666666666715,
      "v": 65
    },
    {
      "midi": 64,
      "hit": false,
      "t": 78350.00000000001,
      "d": 700,
      "v": 74
    },
    {
      "midi": 67,
      "hit": false,
      "t": 78783.33333333336,
      "d": 266.66666666665697,
      "v": 83
    },
    {
      "midi": 72,
      "hit": false,
      "t": 78783.33333333336,
      "d": 349.99999999998545,
      "v": 86
    },
    {
      "midi": 64,
      "hit": false,
      "t": 79216.66666666667,
      "d": 516.6666666666715,
      "v": 70
    },
    {
      "midi": 55,
      "hit": false,
      "t": 79216.66666666667,
      "d": 533.333333333343,
      "v": 76
    },
    {
      "midi": 58,
      "hit": false,
      "t": 79216.66666666667,
      "d": 550.0000000000146,
      "v": 69
    },
    {
      "midi": 70,
      "hit": false,
      "t": 79216.66666666667,
      "d": 633.333333333343,
      "v": 101
    },
    {
      "midi": 67,
      "hit": false,
      "t": 79216.66666666667,
      "d": 850.0000000000146,
      "v": 89
    },
    {
      "midi": 64,
      "hit": false,
      "t": 80100.00000000001,
      "d": 583.3333333333285,
      "v": 66
    },
    {
      "midi": 58,
      "hit": false,
      "t": 80100.00000000001,
      "d": 800,
      "v": 78
    },
    {
      "midi": 67,
      "hit": false,
      "t": 80550.00000000001,
      "d": 50,
      "v": 89
    },
    {
      "midi": 70,
      "hit": false,
      "t": 80550.00000000001,
      "d": 50,
      "v": 101
    },
    {
      "midi": 76,
      "hit": false,
      "t": 80550.00000000001,
      "d": 83.33333333332848,
      "v": 89
    },
    {
      "midi": 58,
      "hit": false,
      "t": 80983.33333333334,
      "d": 316.6666666666715,
      "v": 78
    },
    {
      "midi": 64,
      "hit": false,
      "t": 80983.33333333334,
      "d": 350,
      "v": 86
    },
    {
      "midi": 86,
      "hit": false,
      "t": 81200.00000000001,
      "d": 83.33333333332848,
      "v": 24
    },
    {
      "midi": 79,
      "hit": false,
      "t": 81416.66666666667,
      "d": 66.66666666667152,
      "v": 62
    },
    {
      "midi": 86,
      "hit": false,
      "t": 81416.66666666667,
      "d": 533.3333333333285,
      "v": 86
    },
    {
      "midi": 82,
      "hit": false,
      "t": 81416.66666666667,
      "d": 600,
      "v": 78
    },
    {
      "midi": 53,
      "hit": false,
      "t": 81866.66666666667,
      "d": 2166.6666666666715,
      "v": 83
    },
    {
      "midi": 60,
      "hit": false,
      "t": 81866.66666666667,
      "d": 2466.6666666666715,
      "v": 80
    },
    {
      "midi": 69,
      "hit": false,
      "t": 82300,
      "d": 100,
      "v": 41
    },
    {
      "midi": 57,
      "hit": false,
      "t": 82300,
      "d": 1766.6666666666715,
      "v": 72
    },
    {
      "midi": 69,
      "hit": false,
      "t": 82750,
      "d": 66.66666666667152,
      "v": 80
    },
    {
      "midi": 77,
      "hit": false,
      "t": 82750,
      "d": 83.33333333334303,
      "v": 80
    },
    {
      "midi": 69,
      "hit": false,
      "t": 83183.33333333334,
      "d": 216.66666666667152,
      "v": 66
    },
    {
      "midi": 69,
      "hit": false,
      "t": 83633.33333333334,
      "d": 233.33333333332848,
      "v": 66
    },
    {
      "midi": 65,
      "hit": false,
      "t": 83633.33333333334,
      "d": 283.3333333333285,
      "v": 78
    },
    {
      "midi": 72,
      "hit": false,
      "t": 83633.33333333334,
      "d": 916.6666666666715,
      "v": 83
    },
    {
      "midi": 77,
      "hit": false,
      "t": 83633.33333333334,
      "d": 933.333333333343,
      "v": 70
    },
    {
      "midi": 69,
      "hit": false,
      "t": 84283.33333333334,
      "d": 216.66666666667152,
      "v": 13
    },
    {
      "midi": 55,
      "hit": false,
      "t": 84500.00000000001,
      "d": 1183.333333333343,
      "v": 59
    },
    {
      "midi": 62,
      "hit": false,
      "t": 84500.00000000001,
      "d": 1483.333333333343,
      "v": 70
    },
    {
      "midi": 67,
      "hit": false,
      "t": 84950.00000000001,
      "d": 116.66666666667152,
      "v": 38
    },
    {
      "midi": 67,
      "hit": false,
      "t": 85383.33333333336,
      "d": 250,
      "v": 80
    },
    {
      "midi": 71,
      "hit": false,
      "t": 85383.33333333336,
      "d": 483.3333333333285,
      "v": 80
    },
    {
      "midi": 67,
      "hit": false,
      "t": 85833.33333333336,
      "d": 166.66666666667152,
      "v": 54
    },
    {
      "midi": 74,
      "hit": false,
      "t": 85833.33333333336,
      "d": 233.33333333334303,
      "v": 54
    },
    {
      "midi": 56,
      "hit": false,
      "t": 86266.6666666667,
      "d": 366.6666666666715,
      "v": 74
    },
    {
      "midi": 68,
      "hit": false,
      "t": 86266.6666666667,
      "d": 750,
      "v": 93
    },
    {
      "midi": 74,
      "hit": false,
      "t": 86266.6666666667,
      "d": 800,
      "v": 86
    },
    {
      "midi": 71,
      "hit": false,
      "t": 86266.6666666667,
      "d": 850,
      "v": 89
    },
    {
      "midi": 72,
      "hit": false,
      "t": 87150.00000000003,
      "d": 383.3333333333285,
      "v": 62
    },
    {
      "midi": 64,
      "hit": false,
      "t": 87150.00000000003,
      "d": 400,
      "v": 76
    },
    {
      "midi": 45,
      "hit": false,
      "t": 87150.00000000003,
      "d": 533.3333333333285,
      "v": 92
    },
    {
      "midi": 52,
      "hit": false,
      "t": 87583.33333333336,
      "d": 483.3333333333285,
      "v": 78
    },
    {
      "midi": 57,
      "hit": false,
      "t": 88033.33333333336,
      "d": 166.66666666665697,
      "v": 96
    },
    {
      "midi": 64,
      "hit": false,
      "t": 88466.66666666669,
      "d": 183.33333333332848,
      "v": 78
    },
    {
      "midi": 64,
      "hit": false,
      "t": 88900.00000000001,
      "d": 300,
      "v": 89
    },
    {
      "midi": 57,
      "hit": false,
      "t": 88900.00000000001,
      "d": 466.6666666666715,
      "v": 72
    },
    {
      "midi": 72,
      "hit": false,
      "t": 88900.00000000001,
      "d": 1466.6666666666715,
      "v": 100
    },
    {
      "midi": 64,
      "hit": false,
      "t": 89350.00000000001,
      "d": 316.6666666666715,
      "v": 83
    },
    {
      "midi": 64,
      "hit": false,
      "t": 89783.33333333336,
      "d": 483.3333333333285,
      "v": 80
    },
    {
      "midi": 67,
      "hit": false,
      "t": 89783.33333333336,
      "d": 483.3333333333285,
      "v": 100
    },
    {
      "midi": 48,
      "hit": false,
      "t": 89783.33333333336,
      "d": 616.666666666657,
      "v": 86
    },
    {
      "midi": 55,
      "hit": false,
      "t": 90233.33333333336,
      "d": 433.3333333333285,
      "v": 86
    },
    {
      "midi": 60,
      "hit": false,
      "t": 90666.66666666669,
      "d": 1683.333333333343,
      "v": 74
    },
    {
      "midi": 55,
      "hit": false,
      "t": 91100.00000000001,
      "d": 333.3333333333285,
      "v": 35
    },
    {
      "midi": 55,
      "hit": false,
      "t": 91550.00000000001,
      "d": 66.66666666667152,
      "v": 57
    },
    {
      "midi": 67,
      "hit": false,
      "t": 91550.00000000001,
      "d": 133.33333333334303,
      "v": 76
    },
    {
      "midi": 64,
      "hit": false,
      "t": 91550.00000000001,
      "d": 316.6666666666715,
      "v": 86
    },
    {
      "midi": 76,
      "hit": false,
      "t": 91550.00000000001,
      "d": 600.0000000000146,
      "v": 83
    },
    {
      "midi": 67,
      "hit": false,
      "t": 91983.33333333336,
      "d": 200,
      "v": 76
    },
    {
      "midi": 72,
      "hit": false,
      "t": 92200.00000000003,
      "d": 400,
      "v": 65
    },
    {
      "midi": 53,
      "hit": false,
      "t": 92433.33333333336,
      "d": 2000,
      "v": 96
    },
    {
      "midi": 57,
      "hit": false,
      "t": 92866.6666666667,
      "d": 1583.3333333333285,
      "v": 76
    },
    {
      "midi": 72,
      "hit": false,
      "t": 93300.00000000003,
      "d": 166.66666666667152,
      "v": 83
    },
    {
      "midi": 65,
      "hit": false,
      "t": 93300.00000000003,
      "d": 633.3333333333285,
      "v": 83
    },
    {
      "midi": 60,
      "hit": false,
      "t": 93300.00000000003,
      "d": 1183.3333333333285,
      "v": 65
    },
    {
      "midi": 69,
      "hit": false,
      "t": 93750.00000000003,
      "d": 183.33333333332848,
      "v": 70
    },
    {
      "midi": 65,
      "hit": false,
      "t": 94183.33333333336,
      "d": 533.3333333333285,
      "v": 74
    },
    {
      "midi": 77,
      "hit": false,
      "t": 94183.33333333336,
      "d": 833.3333333333285,
      "v": 89
    },
    {
      "midi": 69,
      "hit": false,
      "t": 94633.33333333336,
      "d": 116.66666666665697,
      "v": 78
    },
    {
      "midi": 74,
      "hit": false,
      "t": 94850.00000000001,
      "d": 450,
      "v": 25
    },
    {
      "midi": 71,
      "hit": false,
      "t": 95066.66666666669,
      "d": 450,
      "v": 86
    },
    {
      "midi": 55,
      "hit": false,
      "t": 95066.66666666669,
      "d": 1566.666666666657,
      "v": 92
    },
    {
      "midi": 59,
      "hit": false,
      "t": 95516.66666666669,
      "d": 1133.3333333333285,
      "v": 68
    },
    {
      "midi": 67,
      "hit": false,
      "t": 95950.00000000001,
      "d": 233.33333333332848,
      "v": 59
    },
    {
      "midi": 71,
      "hit": false,
      "t": 95950.00000000001,
      "d": 433.3333333333285,
      "v": 80
    },
    {
      "midi": 62,
      "hit": false,
      "t": 95950.00000000001,
      "d": 550,
      "v": 76
    },
    {
      "midi": 67,
      "hit": false,
      "t": 96383.33333333334,
      "d": 200,
      "v": 48
    },
    {
      "midi": 62,
      "hit": false,
      "t": 96833.33333333334,
      "d": 150,
      "v": 83
    },
    {
      "midi": 59,
      "hit": false,
      "t": 96833.33333333334,
      "d": 183.33333333332848,
      "v": 61
    },
    {
      "midi": 79,
      "hit": false,
      "t": 96833.33333333334,
      "d": 266.66666666665697,
      "v": 62
    },
    {
      "midi": 71,
      "hit": false,
      "t": 96833.33333333334,
      "d": 550,
      "v": 76
    },
    {
      "midi": 67,
      "hit": false,
      "t": 97266.66666666667,
      "d": 233.33333333334303,
      "v": 65
    },
    {
      "midi": 48,
      "hit": false,
      "t": 97716.66666666669,
      "d": 133.33333333332848,
      "v": 89
    },
    {
      "midi": 72,
      "hit": false,
      "t": 97716.66666666669,
      "d": 266.66666666665697,
      "v": 55
    },
    {
      "midi": 76,
      "hit": false,
      "t": 97716.66666666669,
      "d": 283.3333333333285,
      "v": 74
    },
    {
      "midi": 64,
      "hit": false,
      "t": 98583.33333333334,
      "d": 516.6666666666715,
      "v": 61
    },
    {
      "midi": 60,
      "hit": false,
      "t": 98583.33333333334,
      "d": 700,
      "v": 59
    },
    {
      "midi": 55,
      "hit": false,
      "t": 99033.33333333334,
      "d": 283.3333333333285,
      "v": 46
    },
    {
      "midi": 72,
      "hit": false,
      "t": 99466.66666666667,
      "d": 150,
      "v": 65
    },
    {
      "midi": 76,
      "hit": false,
      "t": 99466.66666666667,
      "d": 150,
      "v": 89
    },
    {
      "midi": 64,
      "hit": false,
      "t": 99466.66666666667,
      "d": 266.6666666666715,
      "v": 48
    },
    {
      "midi": 79,
      "hit": false,
      "t": 99466.66666666667,
      "d": 866.6666666666715,
      "v": 89
    },
    {
      "midi": 60,
      "hit": false,
      "t": 99683.33333333334,
      "d": 216.66666666667152,
      "v": 6
    },
    {
      "midi": 84,
      "hit": false,
      "t": 99683.33333333334,
      "d": 800,
      "v": 89
    },
    {
      "midi": 64,
      "hit": false,
      "t": 100350.00000000001,
      "d": 1466.666666666657,
      "v": 68
    },
    {
      "midi": 57,
      "hit": false,
      "t": 100350.00000000001,
      "d": 2116.666666666657,
      "v": 83
    },
    {
      "midi": 60,
      "hit": false,
      "t": 100350.00000000001,
      "d": 2600.0000000000146,
      "v": 68
    },
    {
      "midi": 76,
      "hit": false,
      "t": 101233.33333333334,
      "d": 83.33333333332848,
      "v": 65
    },
    {
      "midi": 72,
      "hit": false,
      "t": 101233.33333333334,
      "d": 100,
      "v": 78
    },
    {
      "midi": 69,
      "hit": false,
      "t": 102116.66666666667,
      "d": 283.3333333333285,
      "v": 72
    },
    {
      "midi": 64,
      "hit": false,
      "t": 102116.66666666667,
      "d": 400,
      "v": 59
    },
    {
      "midi": 72,
      "hit": false,
      "t": 102116.66666666667,
      "d": 416.6666666666715,
      "v": 92
    },
    {
      "midi": 71,
      "hit": false,
      "t": 102550.00000000001,
      "d": 383.33333333334303,
      "v": 83
    },
    {
      "midi": 74,
      "hit": false,
      "t": 102550.00000000001,
      "d": 400.00000000001455,
      "v": 86
    },
    {
      "midi": 67,
      "hit": false,
      "t": 102983.33333333336,
      "d": 366.6666666666715,
      "v": 89
    },
    {
      "midi": 71,
      "hit": false,
      "t": 102983.33333333336,
      "d": 483.33333333334303,
      "v": 78
    },
    {
      "midi": 55,
      "hit": false,
      "t": 102983.33333333336,
      "d": 533.333333333343,
      "v": 83
    },
    {
      "midi": 62,
      "hit": false,
      "t": 103866.6666666667,
      "d": 516.6666666666715,
      "v": 72
    },
    {
      "midi": 59,
      "hit": false,
      "t": 103866.6666666667,
      "d": 616.6666666666715,
      "v": 74
    },
    {
      "midi": 67,
      "hit": false,
      "t": 104316.6666666667,
      "d": 166.66666666667152,
      "v": 80
    },
    {
      "midi": 62,
      "hit": false,
      "t": 104750.00000000004,
      "d": 133.33333333332848,
      "v": 63
    },
    {
      "midi": 59,
      "hit": false,
      "t": 104750.00000000004,
      "d": 200,
      "v": 78
    },
    {
      "midi": 67,
      "hit": false,
      "t": 104750.00000000004,
      "d": 316.6666666666715,
      "v": 83
    },
    {
      "midi": 74,
      "hit": false,
      "t": 104750.00000000004,
      "d": 433.33333333334303,
      "v": 92
    },
    {
      "midi": 67,
      "hit": false,
      "t": 105200.00000000006,
      "d": 333.3333333333285,
      "v": 78
    },
    {
      "midi": 48,
      "hit": false,
      "t": 105633.33333333339,
      "d": 733.3333333333285,
      "v": 92
    },
    {
      "midi": 72,
      "hit": false,
      "t": 105633.33333333339,
      "d": 1033.3333333333285,
      "v": 86
    },
    {
      "midi": 76,
      "hit": false,
      "t": 105633.33333333339,
      "d": 1050,
      "v": 86
    },
    {
      "midi": 55,
      "hit": false,
      "t": 106066.66666666672,
      "d": 450,
      "v": 76
    },
    {
      "midi": 60,
      "hit": false,
      "t": 106516.66666666672,
      "d": 250,
      "v": 96
    },
    {
      "midi": 67,
      "hit": false,
      "t": 106950.00000000004,
      "d": 150,
      "v": 80
    },
    {
      "midi": 67,
      "hit": false,
      "t": 107400.00000000004,
      "d": 250,
      "v": 96
    },
    {
      "midi": 72,
      "hit": false,
      "t": 107400.00000000004,
      "d": 350,
      "v": 100
    },
    {
      "midi": 60,
      "hit": false,
      "t": 107400.00000000004,
      "d": 466.66666666665697,
      "v": 76
    },
    {
      "midi": 64,
      "hit": false,
      "t": 107400.00000000004,
      "d": 666.666666666657,
      "v": 80
    },
    {
      "midi": 67,
      "hit": false,
      "t": 107833.33333333337,
      "d": 366.66666666665697,
      "v": 89
    },
    {
      "midi": 76,
      "hit": false,
      "t": 107833.33333333337,
      "d": 366.66666666665697,
      "v": 62
    },
    {
      "midi": 67,
      "hit": false,
      "t": 108266.6666666667,
      "d": 250,
      "v": 83
    },
    {
      "midi": 70,
      "hit": false,
      "t": 108266.6666666667,
      "d": 316.6666666666715,
      "v": 93
    },
    {
      "midi": 64,
      "hit": false,
      "t": 108266.6666666667,
      "d": 533.333333333343,
      "v": 86
    },
    {
      "midi": 58,
      "hit": false,
      "t": 108266.6666666667,
      "d": 550.0000000000146,
      "v": 78
    },
    {
      "midi": 55,
      "hit": false,
      "t": 108266.6666666667,
      "d": 566.6666666666861,
      "v": 89
    },
    {
      "midi": 64,
      "hit": false,
      "t": 109150.00000000006,
      "d": 533.3333333333285,
      "v": 105
    },
    {
      "midi": 58,
      "hit": false,
      "t": 109150.00000000006,
      "d": 550,
      "v": 116
    },
    {
      "midi": 76,
      "hit": false,
      "t": 109600.00000000006,
      "d": 83.33333333332848,
      "v": 96
    },
    {
      "midi": 82,
      "hit": false,
      "t": 109600.00000000006,
      "d": 83.33333333332848,
      "v": 125
    },
    {
      "midi": 81,
      "hit": false,
      "t": 110033.33333333339,
      "d": 233.33333333332848,
      "v": 110
    },
    {
      "midi": 76,
      "hit": false,
      "t": 110033.33333333339,
      "d": 300,
      "v": 96
    },
    {
      "midi": 58,
      "hit": false,
      "t": 110033.33333333339,
      "d": 316.6666666666715,
      "v": 85
    },
    {
      "midi": 64,
      "hit": false,
      "t": 110033.33333333339,
      "d": 416.6666666666715,
      "v": 86
    },
    {
      "midi": 77,
      "hit": false,
      "t": 110466.66666666673,
      "d": 300,
      "v": 105
    },
    {
      "midi": 81,
      "hit": false,
      "t": 110466.66666666673,
      "d": 300,
      "v": 105
    },
    {
      "midi": 77,
      "hit": false,
      "t": 110916.66666666673,
      "d": 266.6666666666715,
      "v": 115
    },
    {
      "midi": 81,
      "hit": false,
      "t": 110916.66666666673,
      "d": 266.6666666666715,
      "v": 105
    },
    {
      "midi": 72,
      "hit": false,
      "t": 110916.66666666673,
      "d": 333.33333333334303,
      "v": 100
    },
    {
      "midi": 60,
      "hit": false,
      "t": 110916.66666666673,
      "d": 1616.666666666686,
      "v": 86
    },
    {
      "midi": 53,
      "hit": false,
      "t": 110916.66666666673,
      "d": 1850.0000000000146,
      "v": 89
    },
    {
      "midi": 65,
      "hit": false,
      "t": 111800.00000000007,
      "d": 216.66666666667152,
      "v": 65
    },
    {
      "midi": 69,
      "hit": false,
      "t": 111800.00000000007,
      "d": 366.6666666666715,
      "v": 89
    },
    {
      "midi": 57,
      "hit": false,
      "t": 111800.00000000007,
      "d": 1066.6666666666715,
      "v": 6
    },
    {
      "midi": 65,
      "hit": false,
      "t": 112233.33333333342,
      "d": 200,
      "v": 76
    },
    {
      "midi": 65,
      "hit": false,
      "t": 112666.66666666674,
      "d": 316.6666666666715,
      "v": 86
    },
    {
      "midi": 72,
      "hit": false,
      "t": 112666.66666666674,
      "d": 800,
      "v": 92
    },
    {
      "midi": 65,
      "hit": false,
      "t": 113116.66666666674,
      "d": 250,
      "v": 80
    },
    {
      "midi": 69,
      "hit": false,
      "t": 113550.00000000007,
      "d": 66.66666666667152,
      "v": 38
    },
    {
      "midi": 71,
      "hit": false,
      "t": 113550.00000000007,
      "d": 316.6666666666715,
      "v": 100
    },
    {
      "midi": 74,
      "hit": false,
      "t": 113550.00000000007,
      "d": 350,
      "v": 78
    },
    {
      "midi": 55,
      "hit": false,
      "t": 113550.00000000007,
      "d": 550,
      "v": 92
    },
    {
      "midi": 62,
      "hit": false,
      "t": 114433.3333333334,
      "d": 250,
      "v": 68
    },
    {
      "midi": 59,
      "hit": false,
      "t": 114433.3333333334,
      "d": 283.3333333333285,
      "v": 78
    },
    {
      "midi": 56,
      "hit": false,
      "t": 115316.66666666673,
      "d": 333.3333333333285,
      "v": 74
    },
    {
      "midi": 74,
      "hit": false,
      "t": 115316.66666666673,
      "d": 450,
      "v": 89
    },
    {
      "midi": 68,
      "hit": false,
      "t": 115316.66666666673,
      "d": 883.3333333333285,
      "v": 101
    },
    {
      "midi": 45,
      "hit": false,
      "t": 116200.00000000006,
      "d": 483.3333333333285,
      "v": 80
    },
    {
      "midi": 64,
      "hit": false,
      "t": 116200.00000000006,
      "d": 1000,
      "v": 80
    },
    {
      "midi": 72,
      "hit": false,
      "t": 116200.00000000006,
      "d": 1033.3333333333285,
      "v": 86
    },
    {
      "midi": 52,
      "hit": false,
      "t": 116633.33333333339,
      "d": 466.6666666666715,
      "v": 78
    },
    {
      "midi": 57,
      "hit": false,
      "t": 117083.33333333339,
      "d": 966.666666666657,
      "v": 100
    },
    {
      "midi": 64,
      "hit": false,
      "t": 117516.66666666672,
      "d": 200,
      "v": 72
    },
    {
      "midi": 64,
      "hit": false,
      "t": 117950.00000000004,
      "d": 516.6666666666715,
      "v": 86
    },
    {
      "midi": 60,
      "hit": false,
      "t": 117950.00000000004,
      "d": 600,
      "v": 66
    },
    {
      "midi": 72,
      "hit": false,
      "t": 117950.00000000004,
      "d": 833.3333333333285,
      "v": 89
    },
    {
      "midi": 67,
      "hit": false,
      "t": 118400.00000000004,
      "d": 350,
      "v": 83
    },
    {
      "midi": 53,
      "hit": false,
      "t": 118833.33333333337,
      "d": 1050,
      "v": 86
    },
    {
      "midi": 60,
      "hit": false,
      "t": 118833.33333333337,
      "d": 1700,
      "v": 78
    },
    {
      "midi": 56,
      "hit": false,
      "t": 119283.33333333337,
      "d": 666.6666666666715,
      "v": 60
    },
    {
      "midi": 68,
      "hit": false,
      "t": 119716.6666666667,
      "d": 583.333333333343,
      "v": 74
    },
    {
      "midi": 72,
      "hit": false,
      "t": 119716.6666666667,
      "d": 766.6666666666715,
      "v": 78
    },
    {
      "midi": 65,
      "hit": false,
      "t": 120150.00000000004,
      "d": 150,
      "v": 59
    },
    {
      "midi": 55,
      "hit": false,
      "t": 120600.00000000004,
      "d": 233.33333333332848,
      "v": 86
    },
    {
      "midi": 67,
      "hit": false,
      "t": 120600.00000000004,
      "d": 400,
      "v": 78
    },
    {
      "midi": 74,
      "hit": false,
      "t": 120600.00000000004,
      "d": 416.6666666666715,
      "v": 83
    },
    {
      "midi": 71,
      "hit": false,
      "t": 120600.00000000004,
      "d": 483.33333333334303,
      "v": 80
    },
    {
      "midi": 67,
      "hit": false,
      "t": 121250.00000000006,
      "d": 166.66666666667152,
      "v": 63
    },
    {
      "midi": 67,
      "hit": false,
      "t": 121483.3333333334,
      "d": 316.6666666666715,
      "v": 89
    },
    {
      "midi": 72,
      "hit": false,
      "t": 121483.3333333334,
      "d": 366.6666666666715,
      "v": 86
    },
    {
      "midi": 76,
      "hit": false,
      "t": 121483.3333333334,
      "d": 366.6666666666715,
      "v": 89
    },
    {
      "midi": 48,
      "hit": false,
      "t": 121483.3333333334,
      "d": 516.6666666666715,
      "v": 96
    },
    {
      "midi": 55,
      "hit": false,
      "t": 121916.66666666674,
      "d": 400,
      "v": 78
    },
    {
      "midi": 60,
      "hit": false,
      "t": 122350.00000000007,
      "d": 350,
      "v": 100
    },
    {
      "midi": 55,
      "hit": false,
      "t": 122350.00000000007,
      "d": 799.9999999999854,
      "v": 92
    },
    {
      "midi": 60,
      "hit": false,
      "t": 122800.00000000007,
      "d": 133.33333333332848,
      "v": 49
    },
    {
      "midi": 72,
      "hit": false,
      "t": 122800.00000000007,
      "d": 216.66666666665697,
      "v": 86
    },
    {
      "midi": 72,
      "hit": false,
      "t": 123233.33333333339,
      "d": 216.66666666667152,
      "v": 105
    },
    {
      "midi": 76,
      "hit": false,
      "t": 123233.33333333339,
      "d": 266.6666666666715,
      "v": 105
    },
    {
      "midi": 79,
      "hit": false,
      "t": 123233.33333333339,
      "d": 333.33333333334303,
      "v": 120
    },
    {
      "midi": 48,
      "hit": false,
      "t": 123233.33333333339,
      "d": 516.6666666666861,
      "v": 110
    },
    {
      "midi": 60,
      "hit": false,
      "t": 123233.33333333339,
      "d": 700.0000000000146,
      "v": 110
    },
    {
      "midi": 79,
      "hit": false,
      "t": 123683.3333333334,
      "d": 250,
      "v": 115
    },
    {
      "midi": 76,
      "hit": false,
      "t": 123683.3333333334,
      "d": 350,
      "v": 115
    },
    {
      "midi": 78,
      "hit": false,
      "t": 124116.66666666673,
      "d": 16.666666666671517,
      "v": 121
    },
    {
      "midi": 81,
      "hit": false,
      "t": 124116.66666666673,
      "d": 16.666666666671517,
      "v": 110
    },
    {
      "midi": 62,
      "hit": false,
      "t": 124116.66666666673,
      "d": 600,
      "v": 115
    },
    {
      "midi": 50,
      "hit": false,
      "t": 124116.66666666673,
      "d": 1566.6666666666715,
      "v": 105
    },
    {
      "midi": 69,
      "hit": false,
      "t": 124783.3333333334,
      "d": 150,
      "v": 42
    },
    {
      "midi": 57,
      "hit": false,
      "t": 124783.3333333334,
      "d": 1083.3333333333285,
      "v": 19
    },
    {
      "midi": 69,
      "hit": false,
      "t": 125000.00000000007,
      "d": 233.33333333332848,
      "v": 89
    },
    {
      "midi": 62,
      "hit": false,
      "t": 125000.00000000007,
      "d": 416.66666666665697,
      "v": 92
    },
    {
      "midi": 78,
      "hit": false,
      "t": 125000.00000000007,
      "d": 433.3333333333285,
      "v": 101
    },
    {
      "midi": 69,
      "hit": false,
      "t": 125433.3333333334,
      "d": 266.6666666666715,
      "v": 76
    },
    {
      "midi": 74,
      "hit": false,
      "t": 125650.00000000007,
      "d": 133.33333333332848,
      "v": 83
    },
    {
      "midi": 62,
      "hit": false,
      "t": 125883.3333333334,
      "d": 183.33333333332848,
      "v": 105
    },
    {
      "midi": 57,
      "hit": false,
      "t": 125883.3333333334,
      "d": 216.66666666665697,
      "v": 100
    },
    {
      "midi": 69,
      "hit": false,
      "t": 125883.3333333334,
      "d": 249.99999999998545,
      "v": 100
    },
    {
      "midi": 74,
      "hit": false,
      "t": 125883.3333333334,
      "d": 399.99999999998545,
      "v": 120
    },
    {
      "midi": 69,
      "hit": false,
      "t": 126316.66666666672,
      "d": 216.66666666667152,
      "v": 92
    },
    {
      "midi": 78,
      "hit": false,
      "t": 126316.66666666672,
      "d": 216.66666666667152,
      "v": 63
    },
    {
      "midi": 74,
      "hit": false,
      "t": 126533.33333333339,
      "d": 183.33333333332848,
      "v": 83
    },
    {
      "midi": 74,
      "hit": false,
      "t": 126766.66666666672,
      "d": 83.33333333332848,
      "v": 80
    },
    {
      "midi": 55,
      "hit": false,
      "t": 126766.66666666672,
      "d": 700,
      "v": 100
    },
    {
      "midi": 43,
      "hit": false,
      "t": 126766.66666666672,
      "d": 1966.6666666666715,
      "v": 115
    },
    {
      "midi": 71,
      "hit": false,
      "t": 127416.66666666672,
      "d": 33.33333333332848,
      "v": 52
    },
    {
      "midi": 67,
      "hit": false,
      "t": 127633.33333333339,
      "d": 216.66666666667152,
      "v": 92
    },
    {
      "midi": 71,
      "hit": false,
      "t": 127633.33333333339,
      "d": 300,
      "v": 92
    },
    {
      "midi": 55,
      "hit": false,
      "t": 127633.33333333339,
      "d": 600,
      "v": 92
    },
    {
      "midi": 50,
      "hit": false,
      "t": 127633.33333333339,
      "d": 1133.333333333343,
      "v": 65
    },
    {
      "midi": 74,
      "hit": false,
      "t": 128083.33333333339,
      "d": 83.33333333332848,
      "v": 92
    },
    {
      "midi": 67,
      "hit": false,
      "t": 128083.33333333339,
      "d": 116.66666666665697,
      "v": 100
    },
    {
      "midi": 71,
      "hit": false,
      "t": 128083.33333333339,
      "d": 133.33333333332848,
      "v": 100
    },
    {
      "midi": 67,
      "hit": false,
      "t": 128516.66666666672,
      "d": 233.33333333334303,
      "v": 110
    },
    {
      "midi": 74,
      "hit": false,
      "t": 128516.66666666672,
      "d": 266.66666666668607,
      "v": 115
    },
    {
      "midi": 71,
      "hit": false,
      "t": 128516.66666666672,
      "d": 383.3333333333576,
      "v": 110
    },
    {
      "midi": 55,
      "hit": false,
      "t": 128516.66666666672,
      "d": 633.3333333333576,
      "v": 100
    },
    {
      "midi": 67,
      "hit": false,
      "t": 128966.66666666674,
      "d": 200,
      "v": 105
    },
    {
      "midi": 71,
      "hit": false,
      "t": 128966.66666666674,
      "d": 233.33333333332848,
      "v": 92
    },
    {
      "midi": 74,
      "hit": false,
      "t": 128966.66666666674,
      "d": 316.66666666665697,
      "v": 105
    },
    {
      "midi": 69,
      "hit": false,
      "t": 129400.00000000007,
      "d": 16.666666666671517,
      "v": 100
    },
    {
      "midi": 55,
      "hit": false,
      "t": 129400.00000000007,
      "d": 83.33333333334303,
      "v": 10
    },
    {
      "midi": 66,
      "hit": false,
      "t": 129400.00000000007,
      "d": 350,
      "v": 109
    },
    {
      "midi": 74,
      "hit": false,
      "t": 129400.00000000007,
      "d": 433.3333333333285,
      "v": 105
    },
    {
      "midi": 50,
      "hit": false,
      "t": 129400.00000000007,
      "d": 1883.3333333333285,
      "v": 92
    },
    {
      "midi": 57,
      "hit": false,
      "t": 130066.66666666673,
      "d": 116.66666666667152,
      "v": 3
    },
    {
      "midi": 54,
      "hit": false,
      "t": 130066.66666666673,
      "d": 1100.0000000000146,
      "v": 11
    },
    {
      "midi": 62,
      "hit": false,
      "t": 130283.3333333334,
      "d": 533.3333333333285,
      "v": 100
    },
    {
      "midi": 57,
      "hit": false,
      "t": 130283.3333333334,
      "d": 733.3333333333285,
      "v": 74
    },
    {
      "midi": 74,
      "hit": false,
      "t": 130933.3333333334,
      "d": 83.33333333332848,
      "v": 2
    },
    {
      "midi": 54,
      "hit": false,
      "t": 131166.66666666674,
      "d": 16.666666666656965,
      "v": 29
    },
    {
      "midi": 57,
      "hit": false,
      "t": 131166.66666666674,
      "d": 116.66666666665697,
      "v": 92
    },
    {
      "midi": 62,
      "hit": false,
      "t": 131166.66666666674,
      "d": 116.66666666665697,
      "v": 105
    },
    {
      "midi": 86,
      "hit": false,
      "t": 131166.66666666674,
      "d": 166.66666666665697,
      "v": 100
    },
    {
      "midi": 78,
      "hit": false,
      "t": 131166.66666666674,
      "d": 250,
      "v": 116
    },
    {
      "midi": 74,
      "hit": false,
      "t": 131600.0000000001,
      "d": 133.33333333334303,
      "v": 41
    },
    {
      "midi": 74,
      "hit": false,
      "t": 131816.66666666677,
      "d": 150,
      "v": 42
    },
    {
      "midi": 55,
      "hit": false,
      "t": 132033.33333333343,
      "d": 216.66666666665697,
      "v": 72
    },
    {
      "midi": 50,
      "hit": false,
      "t": 132033.33333333343,
      "d": 249.9999999999709,
      "v": 89
    },
    {
      "midi": 43,
      "hit": false,
      "t": 132033.33333333343,
      "d": 283.33333333331393,
      "v": 110
    },
    {
      "midi": 74,
      "hit": false,
      "t": 132033.33333333343,
      "d": 599.9999999999709,
      "v": 89
    },
    {
      "midi": 71,
      "hit": false,
      "t": 132033.33333333343,
      "d": 633.3333333333139,
      "v": 83
    },
    {
      "midi": 79,
      "hit": false,
      "t": 132033.33333333343,
      "d": 750,
      "v": 96
    },
    {
      "midi": 55,
      "hit": false,
      "t": 132266.66666666674,
      "d": 66.66666666665697,
      "v": 55
    },
    {
      "midi": 55,
      "hit": false,
      "t": 132483.3333333334,
      "d": 83.33333333334303,
      "v": 51
    },
    {
      "midi": 43,
      "hit": false,
      "t": 132483.3333333334,
      "d": 100,
      "v": 80
    },
    {
      "midi": 43,
      "hit": false,
      "t": 132700.0000000001,
      "d": 83.33333333334303,
      "v": 78
    },
    {
      "midi": 55,
      "hit": false,
      "t": 132700.0000000001,
      "d": 83.33333333334303,
      "v": 55
    },
    {
      "midi": 50,
      "hit": false,
      "t": 132700.0000000001,
      "d": 216.66666666668607,
      "v": 21
    },
    {
      "midi": 43,
      "hit": false,
      "t": 132916.66666666677,
      "d": 16.666666666656965,
      "v": 105
    },
    {
      "midi": 50,
      "hit": false,
      "t": 132916.66666666677,
      "d": 66.66666666665697,
      "v": 37
    },
    {
      "midi": 55,
      "hit": false,
      "t": 132916.66666666677,
      "d": 183.33333333331393,
      "v": 55
    },
    {
      "midi": 62,
      "hit": false,
      "t": 133366.66666666674,
      "d": 233.33333333334303,
      "v": 74
    },
    {
      "midi": 62,
      "hit": false,
      "t": 133800.0000000001,
      "d": 266.66666666665697,
      "v": 80
    },
    {
      "midi": 55,
      "hit": false,
      "t": 133800.0000000001,
      "d": 1033.333333333314,
      "v": 100
    },
    {
      "midi": 71,
      "hit": false,
      "t": 133800.0000000001,
      "d": 1049.999999999971,
      "v": 96
    },
    {
      "midi": 62,
      "hit": false,
      "t": 135116.66666666672,
      "d": 200,
      "v": 51
    },
    {
      "midi": 66,
      "hit": false,
      "t": 135566.66666666672,
      "d": 83.33333333334303,
      "v": 109
    },
    {
      "midi": 69,
      "hit": false,
      "t": 135566.66666666672,
      "d": 83.33333333334303,
      "v": 92
    },
    {
      "midi": 57,
      "hit": false,
      "t": 136000.00000000006,
      "d": 433.33333333334303,
      "v": 72
    },
    {
      "midi": 54,
      "hit": false,
      "t": 136000.00000000006,
      "d": 700.0000000000291,
      "v": 52
    },
    {
      "midi": 50,
      "hit": false,
      "t": 136000.00000000006,
      "d": 733.3333333333721,
      "v": 58
    },
    {
      "midi": 62,
      "hit": false,
      "t": 136433.3333333334,
      "d": 183.33333333334303,
      "v": 110
    },
    {
      "midi": 57,
      "hit": false,
      "t": 136433.3333333334,
      "d": 216.66666666668607,
      "v": 86
    },
    {
      "midi": 69,
      "hit": false,
      "t": 136433.3333333334,
      "d": 233.33333333334303,
      "v": 96
    },
    {
      "midi": 78,
      "hit": false,
      "t": 136433.3333333334,
      "d": 733.333333333343,
      "v": 121
    },
    {
      "midi": 69,
      "hit": false,
      "t": 136883.33333333343,
      "d": 216.66666666665697,
      "v": 89
    },
    {
      "midi": 74,
      "hit": false,
      "t": 137100.0000000001,
      "d": 150,
      "v": 70
    },
    {
      "midi": 79,
      "hit": false,
      "t": 137316.66666666674,
      "d": 316.66666666665697,
      "v": 110
    },
    {
      "midi": 71,
      "hit": false,
      "t": 137316.66666666674,
      "d": 416.66666666665697,
      "v": 96
    },
    {
      "midi": 43,
      "hit": false,
      "t": 137316.66666666674,
      "d": 1700,
      "v": 115
    },
    {
      "midi": 50,
      "hit": false,
      "t": 137766.66666666674,
      "d": 1233.333333333343,
      "v": 80
    },
    {
      "midi": 55,
      "hit": false,
      "t": 138200.0000000001,
      "d": 1700,
      "v": 100
    },
    {
      "midi": 62,
      "hit": false,
      "t": 138650.0000000001,
      "d": 250,
      "v": 80
    },
    {
      "midi": 71,
      "hit": false,
      "t": 139083.3333333334,
      "d": 1133.333333333343,
      "v": 83
    },
    {
      "midi": 62,
      "hit": false,
      "t": 139516.66666666674,
      "d": 250,
      "v": 66
    },
    {
      "midi": 67,
      "hit": false,
      "t": 139966.66666666674,
      "d": 333.33333333334303,
      "v": 66
    },
    {
      "midi": 48,
      "hit": false,
      "t": 139966.66666666674,
      "d": 883.333333333343,
      "v": 83
    },
    {
      "midi": 55,
      "hit": false,
      "t": 140400.0000000001,
      "d": 483.33333333334303,
      "v": 83
    },
    {
      "midi": 60,
      "hit": false,
      "t": 140850.0000000001,
      "d": 416.66666666668607,
      "v": 86
    },
    {
      "midi": 64,
      "hit": false,
      "t": 140850.0000000001,
      "d": 483.33333333334303,
      "v": 96
    },
    {
      "midi": 67,
      "hit": false,
      "t": 141283.33333333343,
      "d": 233.33333333334303,
      "v": 83
    },
    {
      "midi": 67,
      "hit": false,
      "t": 141716.66666666677,
      "d": 300,
      "v": 96
    },
    {
      "midi": 72,
      "hit": false,
      "t": 141716.66666666677,
      "d": 500,
      "v": 86
    },
    {
      "midi": 60,
      "hit": false,
      "t": 141716.66666666677,
      "d": 816.666666666657,
      "v": 78
    },
    {
      "midi": 71,
      "hit": false,
      "t": 142166.66666666677,
      "d": 816.666666666657,
      "v": 83
    },
    {
      "midi": 67,
      "hit": false,
      "t": 142600.0000000001,
      "d": 333.33333333334303,
      "v": 92
    },
    {
      "midi": 55,
      "hit": false,
      "t": 142600.0000000001,
      "d": 600,
      "v": 80
    },
    {
      "midi": 59,
      "hit": false,
      "t": 143050.0000000001,
      "d": 333.33333333334303,
      "v": 59
    },
    {
      "midi": 62,
      "hit": false,
      "t": 143483.33333333343,
      "d": 666.6666666666861,
      "v": 74
    },
    {
      "midi": 59,
      "hit": false,
      "t": 143483.33333333343,
      "d": 700.0000000000291,
      "v": 62
    },
    {
      "midi": 67,
      "hit": false,
      "t": 143916.66666666677,
      "d": 283.33333333334303,
      "v": 72
    },
    {
      "midi": 59,
      "hit": false,
      "t": 144366.66666666677,
      "d": 200,
      "v": 83
    },
    {
      "midi": 62,
      "hit": false,
      "t": 144366.66666666677,
      "d": 200,
      "v": 74
    },
    {
      "midi": 67,
      "hit": false,
      "t": 144366.66666666677,
      "d": 233.33333333334303,
      "v": 78
    },
    {
      "midi": 74,
      "hit": false,
      "t": 144366.66666666677,
      "d": 550,
      "v": 100
    },
    {
      "midi": 67,
      "hit": false,
      "t": 144800.00000000012,
      "d": 516.666666666657,
      "v": 74
    },
    {
      "midi": 48,
      "hit": false,
      "t": 145250.00000000012,
      "d": 516.666666666657,
      "v": 96
    },
    {
      "midi": 55,
      "hit": false,
      "t": 145683.33333333343,
      "d": 450,
      "v": 80
    },
    {
      "midi": 60,
      "hit": false,
      "t": 146116.66666666677,
      "d": 700,
      "v": 83
    },
    {
      "midi": 76,
      "hit": false,
      "t": 146566.66666666677,
      "d": 350,
      "v": 68
    },
    {
      "midi": 60,
      "hit": false,
      "t": 147000.00000000012,
      "d": 300,
      "v": 72
    },
    {
      "midi": 53,
      "hit": false,
      "t": 147000.00000000012,
      "d": 350,
      "v": 83
    },
    {
      "midi": 68,
      "hit": false,
      "t": 147000.00000000012,
      "d": 583.333333333343,
      "v": 78
    },
    {
      "midi": 72,
      "hit": false,
      "t": 147000.00000000012,
      "d": 816.6666666666861,
      "v": 76
    },
    {
      "midi": 67,
      "hit": false,
      "t": 147883.33333333346,
      "d": 750,
      "v": 66
    },
    {
      "midi": 72,
      "hit": false,
      "t": 147883.33333333346,
      "d": 949.9999999999709,
      "v": 72
    },
    {
      "midi": 76,
      "hit": false,
      "t": 147883.33333333346,
      "d": 949.9999999999709,
      "v": 72
    },
    {
      "midi": 48,
      "hit": false,
      "t": 147883.33333333346,
      "d": 1783.3333333332848,
      "v": 86
    },
    {
      "midi": 55,
      "hit": false,
      "t": 148316.6666666668,
      "d": 433.33333333331393,
      "v": 76
    },
    {
      "midi": 60,
      "hit": false,
      "t": 148766.66666666677,
      "d": 749.9999999999709,
      "v": 105
    },
    {
      "midi": 55,
      "hit": false,
      "t": 148766.66666666677,
      "d": 933.3333333333139,
      "v": 72
    },
    {
      "midi": 67,
      "hit": false,
      "t": 149200.0000000001,
      "d": 900,
      "v": 92
    },
    {
      "midi": 76,
      "hit": false,
      "t": 149200.0000000001,
      "d": 1300,
      "v": 100
    },
    {
      "midi": 60,
      "hit": false,
      "t": 149650.0000000001,
      "d": 766.666666666657,
      "v": 89
    },
    {
      "midi": 72,
      "hit": false,
      "t": 150533.33333333343,
      "d": 183.33333333334303,
      "v": 6
    },
    {
      "midi": 53,
      "hit": false,
      "t": 150533.33333333343,
      "d": 1966.666666666657,
      "v": 105
    },
    {
      "midi": 60,
      "hit": false,
      "t": 150966.66666666677,
      "d": 1150,
      "v": 70
    },
    {
      "midi": 72,
      "hit": false,
      "t": 151400.00000000012,
      "d": 416.66666666665697,
      "v": 92
    },
    {
      "midi": 65,
      "hit": false,
      "t": 151400.00000000012,
      "d": 616.666666666657,
      "v": 83
    },
    {
      "midi": 57,
      "hit": false,
      "t": 151400.00000000012,
      "d": 1116.6666666666279,
      "v": 28
    },
    {
      "midi": 69,
      "hit": false,
      "t": 151850.00000000012,
      "d": 216.66666666665697,
      "v": 74
    },
    {
      "midi": 69,
      "hit": false,
      "t": 152283.33333333343,
      "d": 116.66666666665697,
      "v": 83
    },
    {
      "midi": 60,
      "hit": false,
      "t": 152283.33333333343,
      "d": 233.33333333331393,
      "v": 78
    },
    {
      "midi": 77,
      "hit": false,
      "t": 152283.33333333343,
      "d": 533.3333333333139,
      "v": 96
    },
    {
      "midi": 69,
      "hit": false,
      "t": 152733.3333333334,
      "d": 233.33333333334303,
      "v": 89
    },
    {
      "midi": 71,
      "hit": false,
      "t": 153166.66666666674,
      "d": 16.666666666656965,
      "v": 86
    },
    {
      "midi": 67,
      "hit": false,
      "t": 153166.66666666674,
      "d": 350,
      "v": 83
    },
    {
      "midi": 59,
      "hit": false,
      "t": 153166.66666666674,
      "d": 1233.333333333343,
      "v": 76
    },
    {
      "midi": 52,
      "hit": false,
      "t": 153166.66666666674,
      "d": 1250,
      "v": 78
    },
    {
      "midi": 55,
      "hit": false,
      "t": 153600.0000000001,
      "d": 816.666666666657,
      "v": 65
    },
    {
      "midi": 67,
      "hit": false,
      "t": 154050.0000000001,
      "d": 33.333333333343035,
      "v": 48
    },
    {
      "midi": 64,
      "hit": false,
      "t": 154050.0000000001,
      "d": 150,
      "v": 74
    },
    {
      "midi": 62,
      "hit": false,
      "t": 154483.3333333334,
      "d": 216.66666666665697,
      "v": 72
    },
    {
      "midi": 61,
      "hit": false,
      "t": 154933.3333333334,
      "d": 366.66666666665697,
      "v": 78
    },
    {
      "midi": 45,
      "hit": false,
      "t": 154933.3333333334,
      "d": 566.666666666657,
      "v": 100
    },
    {
      "midi": 64,
      "hit": false,
      "t": 154933.3333333334,
      "d": 883.3333333333139,
      "v": 89
    },
    {
      "midi": 65,
      "hit": false,
      "t": 155800.00000000006,
      "d": 350,
      "v": 86
    },
    {
      "midi": 69,
      "hit": false,
      "t": 155800.00000000006,
      "d": 366.66666666665697,
      "v": 83
    },
    {
      "midi": 50,
      "hit": false,
      "t": 155800.00000000006,
      "d": 1133.333333333314,
      "v": 83
    },
    {
      "midi": 57,
      "hit": false,
      "t": 156250.00000000006,
      "d": 650,
      "v": 63
    },
    {
      "midi": 62,
      "hit": false,
      "t": 156683.3333333334,
      "d": 233.33333333331393,
      "v": 72
    },
    {
      "midi": 69,
      "hit": false,
      "t": 156683.3333333334,
      "d": 399.9999999999709,
      "v": 76
    },
    {
      "midi": 74,
      "hit": false,
      "t": 156683.3333333334,
      "d": 633.3333333333139,
      "v": 74
    },
    {
      "midi": 65,
      "hit": false,
      "t": 157133.33333333337,
      "d": 216.66666666668607,
      "v": 56
    },
    {
      "midi": 43,
      "hit": false,
      "t": 157566.66666666672,
      "d": 466.66666666668607,
      "v": 92
    },
    {
      "midi": 67,
      "hit": false,
      "t": 157566.66666666672,
      "d": 466.66666666668607,
      "v": 92
    },
    {
      "midi": 71,
      "hit": false,
      "t": 157566.66666666672,
      "d": 850.0000000000291,
      "v": 86
    },
    {
      "midi": 62,
      "hit": false,
      "t": 158000.00000000006,
      "d": 283.33333333334303,
      "v": 65
    },
    {
      "midi": 55,
      "hit": false,
      "t": 158000.00000000006,
      "d": 416.66666666668607,
      "v": 78
    },
    {
      "midi": 64,
      "hit": false,
      "t": 158450.0000000001,
      "d": 300,
      "v": 83
    },
    {
      "midi": 67,
      "hit": false,
      "t": 158450.0000000001,
      "d": 433.33333333334303,
      "v": 96
    },
    {
      "midi": 48,
      "hit": false,
      "t": 158450.0000000001,
      "d": 1716.666666666686,
      "v": 89
    },
    {
      "midi": 55,
      "hit": false,
      "t": 158883.33333333343,
      "d": 1200,
      "v": 78
    },
    {
      "midi": 60,
      "hit": false,
      "t": 159333.33333333343,
      "d": 500,
      "v": 100
    },
    {
      "midi": 64,
      "hit": false,
      "t": 159766.66666666677,
      "d": 116.66666666665697,
      "v": 83
    },
    {
      "midi": 72,
      "hit": false,
      "t": 159766.66666666677,
      "d": 133.33333333331393,
      "v": 83
    },
    {
      "midi": 60,
      "hit": false,
      "t": 160216.66666666677,
      "d": 116.66666666665697,
      "v": 76
    },
    {
      "midi": 55,
      "hit": false,
      "t": 160216.66666666677,
      "d": 150,
      "v": 76
    },
    {
      "midi": 70,
      "hit": false,
      "t": 160216.66666666677,
      "d": 266.66666666665697,
      "v": 109
    },
    {
      "midi": 64,
      "hit": false,
      "t": 160216.66666666677,
      "d": 333.33333333331393,
      "v": 89
    },
    {
      "midi": 69,
      "hit": false,
      "t": 160650.0000000001,
      "d": 350,
      "v": 100
    },
    {
      "midi": 41,
      "hit": false,
      "t": 161083.33333333343,
      "d": 166.66666666665697,
      "v": 96
    },
    {
      "midi": 65,
      "hit": false,
      "t": 161083.33333333343,
      "d": 333.33333333331393,
      "v": 92
    },
    {
      "midi": 69,
      "hit": false,
      "t": 161083.33333333343,
      "d": 383.33333333331393,
      "v": 86
    },
    {
      "midi": 65,
      "hit": false,
      "t": 161533.3333333334,
      "d": 216.66666666665697,
      "v": 70
    },
    {
      "midi": 60,
      "hit": false,
      "t": 161966.66666666672,
      "d": 716.666666666657,
      "v": 74
    },
    {
      "midi": 57,
      "hit": false,
      "t": 161966.66666666672,
      "d": 766.666666666657,
      "v": 86
    },
    {
      "midi": 65,
      "hit": false,
      "t": 162416.66666666672,
      "d": 216.66666666665697,
      "v": 80
    },
    {
      "midi": 57,
      "hit": false,
      "t": 162850.00000000003,
      "d": 183.33333333334303,
      "v": 74
    },
    {
      "midi": 60,
      "hit": false,
      "t": 162850.00000000003,
      "d": 200,
      "v": 78
    },
    {
      "midi": 65,
      "hit": false,
      "t": 162850.00000000003,
      "d": 250,
      "v": 72
    },
    {
      "midi": 72,
      "hit": false,
      "t": 162850.00000000003,
      "d": 483.33333333334303,
      "v": 83
    },
    {
      "midi": 65,
      "hit": false,
      "t": 163283.33333333337,
      "d": 283.33333333334303,
      "v": 74
    },
    {
      "midi": 67,
      "hit": false,
      "t": 163733.33333333337,
      "d": 283.33333333334303,
      "v": 92
    },
    {
      "midi": 71,
      "hit": false,
      "t": 163733.33333333337,
      "d": 400,
      "v": 89
    },
    {
      "midi": 52,
      "hit": false,
      "t": 163733.33333333337,
      "d": 1166.666666666686,
      "v": 89
    },
    {
      "midi": 59,
      "hit": false,
      "t": 164166.66666666672,
      "d": 650,
      "v": 68
    },
    {
      "midi": 64,
      "hit": false,
      "t": 164616.66666666672,
      "d": 183.33333333334303,
      "v": 83
    },
    {
      "midi": 74,
      "hit": false,
      "t": 164616.66666666672,
      "d": 783.333333333343,
      "v": 70
    },
    {
      "midi": 71,
      "hit": false,
      "t": 164616.66666666672,
      "d": 800,
      "v": 58
    },
    {
      "midi": 45,
      "hit": false,
      "t": 165483.33333333337,
      "d": 366.66666666668607,
      "v": 96
    },
    {
      "midi": 67,
      "hit": false,
      "t": 165483.33333333337,
      "d": 683.333333333343,
      "v": 86
    },
    {
      "midi": 73,
      "hit": false,
      "t": 165483.33333333337,
      "d": 766.6666666666861,
      "v": 58
    },
    {
      "midi": 65,
      "hit": false,
      "t": 166366.66666666672,
      "d": 366.66666666665697,
      "v": 83
    },
    {
      "midi": 69,
      "hit": false,
      "t": 166366.66666666672,
      "d": 466.66666666665697,
      "v": 92
    },
    {
      "midi": 65,
      "hit": false,
      "t": 166816.66666666672,
      "d": 133.33333333331393,
      "v": 41
    },
    {
      "midi": 50,
      "hit": false,
      "t": 167033.33333333337,
      "d": 966.6666666666861,
      "v": 23
    },
    {
      "midi": 62,
      "hit": false,
      "t": 167250.00000000003,
      "d": 466.66666666668607,
      "v": 74
    },
    {
      "midi": 74,
      "hit": false,
      "t": 167250.00000000003,
      "d": 516.6666666666861,
      "v": 80
    },
    {
      "midi": 65,
      "hit": false,
      "t": 167683.33333333337,
      "d": 350.0000000000291,
      "v": 70
    },
    {
      "midi": 55,
      "hit": false,
      "t": 168133.3333333334,
      "d": 850,
      "v": 89
    },
    {
      "midi": 71,
      "hit": false,
      "t": 168133.3333333334,
      "d": 916.6666666666861,
      "v": 83
    },
    {
      "midi": 67,
      "hit": false,
      "t": 168133.3333333334,
      "d": 1316.666666666686,
      "v": 89
    },
    {
      "midi": 64,
      "hit": false,
      "t": 169016.66666666674,
      "d": 300,
      "v": 89
    },
    {
      "midi": 48,
      "hit": false,
      "t": 169016.66666666674,
      "d": 2400.000000000029,
      "v": 83
    },
    {
      "midi": 55,
      "hit": false,
      "t": 169450.0000000001,
      "d": 2150.000000000029,
      "v": 65
    },
    {
      "midi": 60,
      "hit": false,
      "t": 169883.33333333343,
      "d": 766.666666666657,
      "v": 70
    },
    {
      "midi": 64,
      "hit": false,
      "t": 170333.33333333343,
      "d": 216.66666666665697,
      "v": 74
    },
    {
      "midi": 60,
      "hit": false,
      "t": 170766.66666666674,
      "d": 433.33333333334303,
      "v": 44
    },
    {
      "midi": 64,
      "hit": false,
      "t": 170766.66666666674,
      "d": 616.6666666666861,
      "v": 80
    },
    {
      "midi": 72,
      "hit": false,
      "t": 170766.66666666674,
      "d": 800.0000000000291,
      "v": 89
    },
    {
      "midi": 57,
      "hit": false,
      "t": 171650.00000000012,
      "d": 1999.999999999971,
      "v": 78
    },
    {
      "midi": 72,
      "hit": false,
      "t": 172533.33333333343,
      "d": 383.33333333334303,
      "v": 49
    },
    {
      "midi": 69,
      "hit": false,
      "t": 172533.33333333343,
      "d": 400,
      "v": 56
    },
    {
      "midi": 64,
      "hit": false,
      "t": 173200.0000000001,
      "d": 200,
      "v": 29
    },
    {
      "midi": 69,
      "hit": false,
      "t": 173416.66666666674,
      "d": 950,
      "v": 72
    },
    {
      "midi": 72,
      "hit": false,
      "t": 173416.66666666674,
      "d": 1000,
      "v": 63
    },
    {
      "midi": 55,
      "hit": false,
      "t": 174733.3333333334,
      "d": 1416.666666666657,
      "v": 30
    },
    {
      "midi": 67,
      "hit": false,
      "t": 175166.66666666674,
      "d": 416.66666666665697,
      "v": 78
    },
    {
      "midi": 71,
      "hit": false,
      "t": 175166.66666666674,
      "d": 450,
      "v": 66
    },
    {
      "midi": 62,
      "hit": false,
      "t": 175616.66666666674,
      "d": 316.66666666665697,
      "v": 52
    },
    {
      "midi": 71,
      "hit": false,
      "t": 176050.00000000006,
      "d": 1116.666666666686,
      "v": 70
    },
    {
      "midi": 67,
      "hit": false,
      "t": 176050.00000000006,
      "d": 1250.000000000029,
      "v": 80
    },
    {
      "midi": 62,
      "hit": false,
      "t": 176500.00000000006,
      "d": 466.66666666668607,
      "v": 65
    },
    {
      "midi": 64,
      "hit": false,
      "t": 176933.3333333334,
      "d": 316.66666666668607,
      "v": 78
    },
    {
      "midi": 48,
      "hit": false,
      "t": 176933.3333333334,
      "d": 966.6666666666861,
      "v": 74
    },
    {
      "midi": 55,
      "hit": false,
      "t": 177366.66666666674,
      "d": 566.6666666666861,
      "v": 61
    },
    {
      "midi": 72,
      "hit": false,
      "t": 177816.66666666674,
      "d": 783.333333333343,
      "v": 76
    },
    {
      "midi": 60,
      "hit": false,
      "t": 177816.66666666674,
      "d": 833.333333333343,
      "v": 61
    },
    {
      "midi": 64,
      "hit": false,
      "t": 178250.0000000001,
      "d": 266.66666666665697,
      "v": 68
    },
    {
      "midi": 53,
      "hit": false,
      "t": 178700.0000000001,
      "d": 383.33333333334303,
      "v": 70
    },
    {
      "midi": 69,
      "hit": false,
      "t": 178700.0000000001,
      "d": 916.6666666666861,
      "v": 83
    },
    {
      "midi": 72,
      "hit": false,
      "t": 178700.0000000001,
      "d": 1283.333333333343,
      "v": 63
    },
    {
      "midi": 65,
      "hit": false,
      "t": 179133.33333333343,
      "d": 83.33333333334303,
      "v": 32
    },
    {
      "midi": 67,
      "hit": false,
      "t": 179566.66666666677,
      "d": 400,
      "v": 78
    },
    {
      "midi": 48,
      "hit": false,
      "t": 179566.66666666677,
      "d": 800,
      "v": 72
    },
    {
      "midi": 55,
      "hit": false,
      "t": 180016.66666666677,
      "d": 516.6666666666861,
      "v": 54
    },
    {
      "midi": 60,
      "hit": false,
      "t": 180450.00000000012,
      "d": 1233.3333333333721,
      "v": 62
    },
    {
      "midi": 64,
      "hit": false,
      "t": 181116.6666666668,
      "d": 183.33333333334303,
      "v": 36
    },
    {
      "midi": 72,
      "hit": false,
      "t": 181333.3333333335,
      "d": 1066.666666666657,
      "v": 80
    },
    {
      "midi": 64,
      "hit": false,
      "t": 181783.3333333335,
      "d": 500,
      "v": 57
    },
    {
      "midi": 45,
      "hit": false,
      "t": 182216.66666666683,
      "d": 549.9999999999709,
      "v": 86
    },
    {
      "midi": 52,
      "hit": false,
      "t": 182650.00000000015,
      "d": 483.33333333334303,
      "v": 54
    },
    {
      "midi": 69,
      "hit": false,
      "t": 183100.00000000015,
      "d": 383.33333333334303,
      "v": 70
    },
    {
      "midi": 72,
      "hit": false,
      "t": 183100.00000000015,
      "d": 433.33333333334303,
      "v": 61
    },
    {
      "midi": 57,
      "hit": false,
      "t": 183100.00000000015,
      "d": 1700,
      "v": 70
    },
    {
      "midi": 64,
      "hit": false,
      "t": 183750.00000000015,
      "d": 216.66666666665697,
      "v": 30
    },
    {
      "midi": 64,
      "hit": false,
      "t": 183983.33333333346,
      "d": 250,
      "v": 35
    },
    {
      "midi": 69,
      "hit": false,
      "t": 183983.33333333346,
      "d": 466.66666666668607,
      "v": 74
    },
    {
      "midi": 64,
      "hit": false,
      "t": 184416.6666666668,
      "d": 333.33333333334303,
      "v": 54
    },
    {
      "midi": 65,
      "hit": false,
      "t": 184850.00000000015,
      "d": 333.33333333334303,
      "v": 56
    },
    {
      "midi": 69,
      "hit": false,
      "t": 184850.00000000015,
      "d": 350,
      "v": 65
    },
    {
      "midi": 50,
      "hit": false,
      "t": 184850.00000000015,
      "d": 1600,
      "v": 72
    },
    {
      "midi": 57,
      "hit": false,
      "t": 185300.00000000015,
      "d": 1233.333333333343,
      "v": 58
    },
    {
      "midi": 62,
      "hit": false,
      "t": 185733.3333333335,
      "d": 700,
      "v": 56
    },
    {
      "midi": 65,
      "hit": false,
      "t": 186183.3333333335,
      "d": 116.66666666665697,
      "v": 55
    },
    {
      "midi": 69,
      "hit": false,
      "t": 186616.66666666683,
      "d": 433.33333333331393,
      "v": 76
    },
    {
      "midi": 74,
      "hit": false,
      "t": 186616.66666666683,
      "d": 733.3333333333139,
      "v": 78
    },
    {
      "midi": 62,
      "hit": false,
      "t": 186833.3333333335,
      "d": 266.66666666665697,
      "v": 1
    },
    {
      "midi": 65,
      "hit": false,
      "t": 187050.00000000015,
      "d": 300,
      "v": 45
    },
    {
      "midi": 72,
      "hit": false,
      "t": 187500.00000000015,
      "d": 316.66666666665697,
      "v": 65
    },
    {
      "midi": 68,
      "hit": false,
      "t": 187500.00000000015,
      "d": 366.66666666665697,
      "v": 63
    },
    {
      "midi": 53,
      "hit": false,
      "t": 187500.00000000015,
      "d": 1016.666666666657,
      "v": 62
    },
    {
      "midi": 60,
      "hit": false,
      "t": 187500.00000000015,
      "d": 1833.333333333314,
      "v": 48
    },
    {
      "midi": 68,
      "hit": false,
      "t": 188383.33333333346,
      "d": 450,
      "v": 57
    },
    {
      "midi": 72,
      "hit": false,
      "t": 188383.33333333346,
      "d": 500,
      "v": 62
    },
    {
      "midi": 65,
      "hit": false,
      "t": 188816.6666666668,
      "d": 283.33333333331393,
      "v": 40
    },
    {
      "midi": 55,
      "hit": false,
      "t": 189250.00000000012,
      "d": 333.33333333334303,
      "v": 74
    },
    {
      "midi": 67,
      "hit": false,
      "t": 189250.00000000012,
      "d": 1349.999999999971,
      "v": 86
    },
    {
      "midi": 71,
      "hit": false,
      "t": 189250.00000000012,
      "d": 1366.6666666666279,
      "v": 65
    },
    {
      "midi": 62,
      "hit": false,
      "t": 189700.00000000012,
      "d": 216.66666666665697,
      "v": 38
    },
    {
      "midi": 64,
      "hit": false,
      "t": 190133.33333333343,
      "d": 366.66666666665697,
      "v": 76
    },
    {
      "midi": 48,
      "hit": false,
      "t": 190133.33333333343,
      "d": 2150,
      "v": 78
    },
    {
      "midi": 55,
      "hit": false,
      "t": 190583.33333333343,
      "d": 1733.333333333343,
      "v": 72
    },
    {
      "midi": 60,
      "hit": false,
      "t": 191016.66666666674,
      "d": 666.6666666666861,
      "v": 74
    },
    {
      "midi": 64,
      "hit": false,
      "t": 191450.0000000001,
      "d": 200,
      "v": 61
    },
    {
      "midi": 60,
      "hit": false,
      "t": 191900.0000000001,
      "d": 300,
      "v": 56
    },
    {
      "midi": 72,
      "hit": false,
      "t": 191900.0000000001,
      "d": 1033.333333333343,
      "v": 86
    },
    {
      "midi": 64,
      "hit": false,
      "t": 192333.33333333343,
      "d": 533.333333333343,
      "v": 76
    },
    {
      "midi": 57,
      "hit": false,
      "t": 192783.33333333343,
      "d": 1816.6666666666279,
      "v": 96
    },
    {
      "midi": 60,
      "hit": false,
      "t": 193216.66666666677,
      "d": 2116.6666666665988,
      "v": 61
    },
    {
      "midi": 64,
      "hit": false,
      "t": 193666.66666666677,
      "d": 66.66666666665697,
      "v": 72
    },
    {
      "midi": 72,
      "hit": false,
      "t": 193666.66666666677,
      "d": 83.33333333331393,
      "v": 80
    },
    {
      "midi": 64,
      "hit": false,
      "t": 194100.0000000001,
      "d": 116.66666666665697,
      "v": 63
    },
    {
      "midi": 64,
      "hit": false,
      "t": 194533.3333333334,
      "d": 333.33333333331393,
      "v": 78
    },
    {
      "midi": 72,
      "hit": false,
      "t": 194533.3333333334,
      "d": 749.9999999999709,
      "v": 86
    },
    {
      "midi": 64,
      "hit": false,
      "t": 194983.33333333337,
      "d": 200,
      "v": 58
    },
    {
      "midi": 67,
      "hit": false,
      "t": 195416.66666666672,
      "d": 316.66666666665697,
      "v": 80
    },
    {
      "midi": 71,
      "hit": false,
      "t": 195416.66666666672,
      "d": 433.33333333331393,
      "v": 65
    },
    {
      "midi": 55,
      "hit": false,
      "t": 195416.66666666672,
      "d": 783.3333333333139,
      "v": 70
    },
    {
      "midi": 67,
      "hit": false,
      "t": 196083.33333333337,
      "d": 150,
      "v": 28
    },
    {
      "midi": 74,
      "hit": false,
      "t": 196300.00000000003,
      "d": 50,
      "v": 68
    },
    {
      "midi": 71,
      "hit": false,
      "t": 196300.00000000003,
      "d": 66.66666666665697,
      "v": 66
    },
    {
      "midi": 62,
      "hit": false,
      "t": 196300.00000000003,
      "d": 633.3333333333139,
      "v": 63
    },
    {
      "midi": 59,
      "hit": false,
      "t": 196300.00000000003,
      "d": 1116.666666666657,
      "v": 58
    },
    {
      "midi": 67,
      "hit": false,
      "t": 196733.33333333334,
      "d": 133.33333333334303,
      "v": 68
    },
    {
      "midi": 62,
      "hit": false,
      "t": 197183.33333333334,
      "d": 233.33333333334303,
      "v": 66
    },
    {
      "midi": 74,
      "hit": false,
      "t": 197183.33333333334,
      "d": 700,
      "v": 76
    },
    {
      "midi": 71,
      "hit": false,
      "t": 197183.33333333334,
      "d": 833.333333333343,
      "v": 80
    },
    {
      "midi": 72,
      "hit": false,
      "t": 198066.6666666667,
      "d": 166.66666666665697,
      "v": 74
    },
    {
      "midi": 67,
      "hit": false,
      "t": 198066.6666666667,
      "d": 350,
      "v": 78
    },
    {
      "midi": 48,
      "hit": false,
      "t": 198066.6666666667,
      "d": 866.6666666666861,
      "v": 76
    },
    {
      "midi": 55,
      "hit": false,
      "t": 198500.00000000003,
      "d": 483.33333333334303,
      "v": 72
    },
    {
      "midi": 67,
      "hit": false,
      "t": 198933.33333333337,
      "d": 433.33333333334303,
      "v": 66
    },
    {
      "midi": 72,
      "hit": false,
      "t": 198933.33333333337,
      "d": 666.666666666657,
      "v": 63
    },
    {
      "midi": 60,
      "hit": false,
      "t": 198933.33333333337,
      "d": 683.3333333333139,
      "v": 61
    },
    {
      "midi": 64,
      "hit": false,
      "t": 199383.33333333337,
      "d": 166.66666666665697,
      "v": 62
    },
    {
      "midi": 60,
      "hit": false,
      "t": 199816.6666666667,
      "d": 400,
      "v": 61
    },
    {
      "midi": 53,
      "hit": false,
      "t": 199816.6666666667,
      "d": 450,
      "v": 59
    },
    {
      "midi": 65,
      "hit": false,
      "t": 199816.6666666667,
      "d": 700,
      "v": 66
    },
    {
      "midi": 72,
      "hit": false,
      "t": 199816.6666666667,
      "d": 850,
      "v": 80
    },
    {
      "midi": 48,
      "hit": false,
      "t": 200700.00000000003,
      "d": 783.3333333333139,
      "v": 74
    },
    {
      "midi": 67,
      "hit": false,
      "t": 200700.00000000003,
      "d": 899.9999999999709,
      "v": 76
    },
    {
      "midi": 64,
      "hit": false,
      "t": 200700.00000000003,
      "d": 949.9999999999709,
      "v": 72
    },
    {
      "midi": 55,
      "hit": false,
      "t": 201133.33333333334,
      "d": 550,
      "v": 70
    },
    {
      "midi": 60,
      "hit": false,
      "t": 201583.33333333334,
      "d": 333.33333333334303,
      "v": 96
    },
    {
      "midi": 64,
      "hit": false,
      "t": 202016.6666666667,
      "d": 233.33333333334303,
      "v": 105
    },
    {
      "midi": 72,
      "hit": false,
      "t": 202466.6666666667,
      "d": 566.6666666666861,
      "v": 110
    },
    {
      "midi": 67,
      "hit": false,
      "t": 202900.00000000003,
      "d": 350.0000000000291,
      "v": 96
    },
    {
      "midi": 69,
      "hit": false,
      "t": 203116.66666666672,
      "d": 83.33333333334303,
      "v": 58
    },
    {
      "midi": 69,
      "hit": false,
      "t": 203333.3333333334,
      "d": 433.33333333334303,
      "v": 92
    },
    {
      "midi": 53,
      "hit": false,
      "t": 203333.3333333334,
      "d": 766.666666666657,
      "v": 76
    },
    {
      "midi": 57,
      "hit": false,
      "t": 203783.3333333334,
      "d": 1616.6666666666279,
      "v": 83
    },
    {
      "midi": 65,
      "hit": false,
      "t": 204216.66666666672,
      "d": 416.66666666665697,
      "v": 74
    },
    {
      "midi": 69,
      "hit": false,
      "t": 204216.66666666672,
      "d": 466.66666666665697,
      "v": 89
    },
    {
      "midi": 60,
      "hit": false,
      "t": 204216.66666666672,
      "d": 583.3333333333139,
      "v": 35
    },
    {
      "midi": 65,
      "hit": false,
      "t": 204883.33333333337,
      "d": 83.33333333334303,
      "v": 48
    },
    {
      "midi": 60,
      "hit": false,
      "t": 205100.00000000006,
      "d": 166.66666666665697,
      "v": 62
    },
    {
      "midi": 65,
      "hit": false,
      "t": 205100.00000000006,
      "d": 233.33333333331393,
      "v": 74
    },
    {
      "midi": 72,
      "hit": false,
      "t": 205100.00000000006,
      "d": 699.9999999999709,
      "v": 83
    },
    {
      "midi": 65,
      "hit": false,
      "t": 205550.00000000003,
      "d": 200,
      "v": 63
    },
    {
      "midi": 67,
      "hit": false,
      "t": 205766.6666666667,
      "d": 100,
      "v": 76
    },
    {
      "midi": 71,
      "hit": false,
      "t": 205766.6666666667,
      "d": 100,
      "v": 53
    },
    {
      "midi": 71,
      "hit": false,
      "t": 205983.33333333334,
      "d": 366.66666666665697,
      "v": 74
    },
    {
      "midi": 67,
      "hit": false,
      "t": 205983.33333333334,
      "d": 400,
      "v": 83
    },
    {
      "midi": 52,
      "hit": false,
      "t": 205983.33333333334,
      "d": 1150,
      "v": 80
    },
    {
      "midi": 59,
      "hit": false,
      "t": 206866.6666666667,
      "d": 216.66666666665697,
      "v": 65
    },
    {
      "midi": 67,
      "hit": false,
      "t": 206866.6666666667,
      "d": 450,
      "v": 66
    },
    {
      "midi": 71,
      "hit": false,
      "t": 206866.6666666667,
      "d": 750,
      "v": 62
    },
    {
      "midi": 61,
      "hit": false,
      "t": 207750.00000000003,
      "d": 433.33333333334303,
      "v": 74
    },
    {
      "midi": 67,
      "hit": false,
      "t": 207750.00000000003,
      "d": 616.6666666666861,
      "v": 1
    },
    {
      "midi": 45,
      "hit": false,
      "t": 207750.00000000003,
      "d": 800.0000000000291,
      "v": 89
    },
    {
      "midi": 64,
      "hit": false,
      "t": 207750.00000000003,
      "d": 833.3333333333721,
      "v": 74
    },
    {
      "midi": 62,
      "hit": false,
      "t": 208616.66666666674,
      "d": 233.33333333334303,
      "v": 59
    },
    {
      "midi": 65,
      "hit": false,
      "t": 208616.66666666674,
      "d": 350,
      "v": 66
    },
    {
      "midi": 50,
      "hit": false,
      "t": 208616.66666666674,
      "d": 916.6666666666861,
      "v": 80
    },
    {
      "midi": 69,
      "hit": false,
      "t": 209500.0000000001,
      "d": 366.66666666668607,
      "v": 72
    },
    {
      "midi": 65,
      "hit": false,
      "t": 209500.0000000001,
      "d": 616.6666666666861,
      "v": 55
    },
    {
      "midi": 74,
      "hit": false,
      "t": 209500.0000000001,
      "d": 633.333333333343,
      "v": 72
    },
    {
      "midi": 53,
      "hit": false,
      "t": 210383.33333333343,
      "d": 616.666666666657,
      "v": 56
    },
    {
      "midi": 65,
      "hit": false,
      "t": 210383.33333333343,
      "d": 716.666666666657,
      "v": 76
    },
    {
      "midi": 56,
      "hit": false,
      "t": 210383.33333333343,
      "d": 733.3333333333139,
      "v": 52
    },
    {
      "midi": 68,
      "hit": false,
      "t": 210383.33333333343,
      "d": 849.9999999999709,
      "v": 74
    },
    {
      "midi": 72,
      "hit": false,
      "t": 210383.33333333343,
      "d": 1649.999999999971,
      "v": 89
    },
    {
      "midi": 60,
      "hit": false,
      "t": 210383.33333333343,
      "d": 1716.6666666666279,
      "v": 57
    },
    {
      "midi": 76,
      "hit": false,
      "t": 211266.66666666674,
      "d": 666.666666666657,
      "v": 76
    },
    {
      "midi": 67,
      "hit": false,
      "t": 211266.66666666674,
      "d": 750,
      "v": 68
    },
    {
      "midi": 55,
      "hit": false,
      "t": 211266.66666666674,
      "d": 1599.999999999971,
      "v": 65
    },
    {
      "midi": 64,
      "hit": false,
      "t": 212150.00000000006,
      "d": 500,
      "v": 66
    },
    {
      "midi": 60,
      "hit": false,
      "t": 212150.00000000006,
      "d": 733.3333333333139,
      "v": 39
    },
    {
      "midi": 67,
      "hit": false,
      "t": 212583.3333333334,
      "d": 166.66666666665697,
      "v": 78
    },
    {
      "midi": 64,
      "hit": false,
      "t": 213016.66666666672,
      "d": 316.66666666665697,
      "v": 70
    },
    {
      "midi": 67,
      "hit": false,
      "t": 213016.66666666672,
      "d": 350,
      "v": 86
    },
    {
      "midi": 76,
      "hit": false,
      "t": 213016.66666666672,
      "d": 983.3333333333139,
      "v": 89
    },
    {
      "midi": 60,
      "hit": false,
      "t": 213016.66666666672,
      "d": 1783.333333333314,
      "v": 35
    },
    {
      "midi": 67,
      "hit": false,
      "t": 213683.33333333337,
      "d": 500,
      "v": 74
    },
    {
      "midi": 53,
      "hit": false,
      "t": 213900.00000000003,
      "d": 900,
      "v": 80
    },
    {
      "midi": 69,
      "hit": false,
      "t": 214783.33333333337,
      "d": 450,
      "v": 72
    },
    {
      "midi": 72,
      "hit": false,
      "t": 214783.33333333337,
      "d": 716.666666666657,
      "v": 66
    },
    {
      "midi": 65,
      "hit": false,
      "t": 215233.33333333337,
      "d": 150,
      "v": 38
    },
    {
      "midi": 52,
      "hit": false,
      "t": 215666.6666666667,
      "d": 366.66666666665697,
      "v": 78
    },
    {
      "midi": 67,
      "hit": false,
      "t": 215666.6666666667,
      "d": 550,
      "v": 83
    },
    {
      "midi": 71,
      "hit": false,
      "t": 215666.6666666667,
      "d": 583.333333333343,
      "v": 72
    },
    {
      "midi": 64,
      "hit": false,
      "t": 215666.6666666667,
      "d": 2800.000000000029,
      "v": 68
    },
    {
      "midi": 69,
      "hit": false,
      "t": 216550.00000000003,
      "d": 1833.333333333343,
      "v": 76
    },
    {
      "midi": 45,
      "hit": false,
      "t": 216550.00000000003,
      "d": 2116.666666666686,
      "v": 92
    },
    {
      "midi": 52,
      "hit": false,
      "t": 216983.33333333337,
      "d": 1750,
      "v": 68
    },
    {
      "midi": 57,
      "hit": false,
      "t": 217433.33333333337,
      "d": 600,
      "v": 83
    },
    {
      "midi": 60,
      "hit": false,
      "t": 217866.66666666672,
      "d": 433.33333333331393,
      "v": 48
    },
    {
      "midi": 60,
      "hit": false,
      "t": 218750.00000000003,
      "d": 283.33333333334303,
      "v": 86
    },
    {
      "midi": 53,
      "hit": false,
      "t": 219183.33333333337,
      "d": 1083.333333333343,
      "v": 76
    },
    {
      "midi": 56,
      "hit": false,
      "t": 219183.33333333337,
      "d": 1133.333333333343,
      "v": 74
    },
    {
      "midi": 60,
      "hit": false,
      "t": 219183.33333333337,
      "d": 1683.333333333343,
      "v": 70
    },
    {
      "midi": 65,
      "hit": false,
      "t": 219633.33333333337,
      "d": 150,
      "v": 68
    },
    {
      "midi": 68,
      "hit": false,
      "t": 220066.66666666672,
      "d": 733.333333333343,
      "v": 93
    },
    {
      "midi": 72,
      "hit": false,
      "t": 220066.66666666672,
      "d": 816.666666666657,
      "v": 92
    },
    {
      "midi": 62,
      "hit": false,
      "t": 220950.00000000003,
      "d": 466.66666666665697,
      "v": 68
    },
    {
      "midi": 74,
      "hit": false,
      "t": 220950.00000000003,
      "d": 466.66666666665697,
      "v": 80
    },
    {
      "midi": 67,
      "hit": false,
      "t": 220950.00000000003,
      "d": 716.666666666657,
      "v": 80
    },
    {
      "midi": 55,
      "hit": false,
      "t": 220950.00000000003,
      "d": 1366.6666666666279,
      "v": 80
    },
    {
      "midi": 72,
      "hit": false,
      "t": 221833.33333333334,
      "d": 316.66666666665697,
      "v": 70
    },
    {
      "midi": 76,
      "hit": false,
      "t": 221833.33333333334,
      "d": 400,
      "v": 74
    },
    {
      "midi": 64,
      "hit": false,
      "t": 221833.33333333334,
      "d": 466.66666666665697,
      "v": 72
    },
    {
      "midi": 60,
      "hit": false,
      "t": 221833.33333333334,
      "d": 549.9999999999709,
      "v": 63
    },
    {
      "midi": 64,
      "hit": false,
      "t": 222699.99999999997,
      "d": 516.666666666657,
      "v": 66
    },
    {
      "midi": 60,
      "hit": false,
      "t": 222699.99999999997,
      "d": 583.3333333333139,
      "v": 54
    },
    {
      "midi": 79,
      "hit": false,
      "t": 223149.99999999997,
      "d": 249.9999999999709,
      "v": 80
    },
    {
      "midi": 74,
      "hit": false,
      "t": 223149.99999999997,
      "d": 266.66666666662786,
      "v": 86
    },
    {
      "midi": 64,
      "hit": false,
      "t": 223583.33333333326,
      "d": 166.66666666665697,
      "v": 72
    },
    {
      "midi": 60,
      "hit": false,
      "t": 223583.33333333326,
      "d": 200,
      "v": 74
    },
    {
      "midi": 79,
      "hit": false,
      "t": 223583.33333333326,
      "d": 316.66666666665697,
      "v": 78
    },
    {
      "midi": 76,
      "hit": false,
      "t": 223583.33333333326,
      "d": 333.33333333331393,
      "v": 68
    },
    {
      "midi": 72,
      "hit": false,
      "t": 224033.33333333323,
      "d": 300,
      "v": 92
    },
    {
      "midi": 76,
      "hit": false,
      "t": 224033.33333333323,
      "d": 350,
      "v": 89
    },
    {
      "midi": 45,
      "hit": false,
      "t": 224466.66666666657,
      "d": 133.33333333334303,
      "v": 96
    },
    {
      "midi": 72,
      "hit": false,
      "t": 224466.66666666657,
      "d": 433.33333333334303,
      "v": 100
    },
    {
      "midi": 69,
      "hit": false,
      "t": 224466.66666666657,
      "d": 750,
      "v": 86
    },
    {
      "midi": 64,
      "hit": false,
      "t": 225349.9999999999,
      "d": 466.66666666668607,
      "v": 66
    },
    {
      "midi": 60,
      "hit": false,
      "t": 225349.9999999999,
      "d": 500.0000000000291,
      "v": 68
    },
    {
      "midi": 69,
      "hit": false,
      "t": 225783.33333333326,
      "d": 83.33333333334303,
      "v": 80
    },
    {
      "midi": 72,
      "hit": false,
      "t": 225783.33333333326,
      "d": 133.33333333334303,
      "v": 92
    },
    {
      "midi": 60,
      "hit": false,
      "t": 226233.33333333326,
      "d": 183.33333333334303,
      "v": 66
    },
    {
      "midi": 71,
      "hit": false,
      "t": 226233.33333333326,
      "d": 300,
      "v": 105
    },
    {
      "midi": 64,
      "hit": false,
      "t": 226233.33333333326,
      "d": 316.66666666665697,
      "v": 61
    },
    {
      "midi": 74,
      "hit": false,
      "t": 226233.33333333326,
      "d": 316.66666666665697,
      "v": 105
    },
    {
      "midi": 76,
      "hit": false,
      "t": 226666.66666666657,
      "d": 300,
      "v": 83
    },
    {
      "midi": 72,
      "hit": false,
      "t": 226666.66666666657,
      "d": 400,
      "v": 83
    },
    {
      "midi": 74,
      "hit": false,
      "t": 227116.66666666657,
      "d": 350,
      "v": 89
    },
    {
      "midi": 71,
      "hit": false,
      "t": 227116.66666666657,
      "d": 416.66666666665697,
      "v": 92
    },
    {
      "midi": 55,
      "hit": false,
      "t": 227116.66666666657,
      "d": 566.666666666657,
      "v": 86
    },
    {
      "midi": 67,
      "hit": false,
      "t": 227766.66666666657,
      "d": 83.33333333334303,
      "v": 34
    },
    {
      "midi": 62,
      "hit": false,
      "t": 227983.33333333326,
      "d": 616.6666666666861,
      "v": 70
    },
    {
      "midi": 59,
      "hit": false,
      "t": 227983.33333333326,
      "d": 650.0000000000291,
      "v": 72
    },
    {
      "midi": 67,
      "hit": false,
      "t": 228433.33333333326,
      "d": 133.33333333334303,
      "v": 68
    },
    {
      "midi": 62,
      "hit": false,
      "t": 228866.66666666663,
      "d": 166.66666666665697,
      "v": 80
    },
    {
      "midi": 59,
      "hit": false,
      "t": 228866.66666666663,
      "d": 200,
      "v": 65
    },
    {
      "midi": 67,
      "hit": false,
      "t": 228866.66666666663,
      "d": 200,
      "v": 89
    },
    {
      "midi": 71,
      "hit": false,
      "t": 228866.66666666663,
      "d": 366.66666666665697,
      "v": 96
    },
    {
      "midi": 72,
      "hit": false,
      "t": 229316.66666666663,
      "d": 233.33333333331393,
      "v": 74
    },
    {
      "midi": 67,
      "hit": false,
      "t": 229316.66666666663,
      "d": 249.9999999999709,
      "v": 74
    },
    {
      "midi": 72,
      "hit": false,
      "t": 229749.99999999994,
      "d": 83.33333333334303,
      "v": 74
    },
    {
      "midi": 67,
      "hit": false,
      "t": 229749.99999999994,
      "d": 366.66666666668607,
      "v": 96
    },
    {
      "midi": 48,
      "hit": false,
      "t": 229749.99999999994,
      "d": 766.6666666666861,
      "v": 86
    },
    {
      "midi": 55,
      "hit": false,
      "t": 230183.33333333328,
      "d": 433.33333333334303,
      "v": 70
    },
    {
      "midi": 60,
      "hit": false,
      "t": 230633.33333333328,
      "d": 266.66666666665697,
      "v": 76
    },
    {
      "midi": 60,
      "hit": false,
      "t": 231066.6666666666,
      "d": 200,
      "v": 25
    },
    {
      "midi": 67,
      "hit": false,
      "t": 231066.6666666666,
      "d": 233.33333333334303,
      "v": 83
    },
    {
      "midi": 72,
      "hit": false,
      "t": 231066.6666666666,
      "d": 300,
      "v": 89
    },
    {
      "midi": 67,
      "hit": false,
      "t": 231516.6666666666,
      "d": 216.66666666665697,
      "v": 92
    },
    {
      "midi": 74,
      "hit": false,
      "t": 231516.6666666666,
      "d": 316.66666666665697,
      "v": 105
    },
    {
      "midi": 60,
      "hit": false,
      "t": 231516.6666666666,
      "d": 516.666666666657,
      "v": 65
    },
    {
      "midi": 64,
      "hit": false,
      "t": 231516.6666666666,
      "d": 700,
      "v": 74
    },
    {
      "midi": 67,
      "hit": false,
      "t": 231949.9999999999,
      "d": 266.66666666668607,
      "v": 83
    },
    {
      "midi": 72,
      "hit": false,
      "t": 231949.9999999999,
      "d": 350.0000000000291,
      "v": 86
    },
    {
      "midi": 64,
      "hit": false,
      "t": 232383.33333333328,
      "d": 516.666666666657,
      "v": 70
    },
    {
      "midi": 55,
      "hit": false,
      "t": 232383.33333333328,
      "d": 533.3333333333139,
      "v": 76
    },
    {
      "midi": 58,
      "hit": false,
      "t": 232383.33333333328,
      "d": 549.9999999999709,
      "v": 69
    },
    {
      "midi": 70,
      "hit": false,
      "t": 232383.33333333328,
      "d": 633.3333333333139,
      "v": 101
    },
    {
      "midi": 67,
      "hit": false,
      "t": 232383.33333333328,
      "d": 849.9999999999709,
      "v": 89
    },
    {
      "midi": 64,
      "hit": false,
      "t": 233266.6666666666,
      "d": 583.333333333343,
      "v": 66
    },
    {
      "midi": 58,
      "hit": false,
      "t": 233266.6666666666,
      "d": 800,
      "v": 78
    },
    {
      "midi": 67,
      "hit": false,
      "t": 233716.6666666666,
      "d": 50,
      "v": 89
    },
    {
      "midi": 70,
      "hit": false,
      "t": 233716.6666666666,
      "d": 50,
      "v": 101
    },
    {
      "midi": 76,
      "hit": false,
      "t": 233716.6666666666,
      "d": 83.33333333334303,
      "v": 89
    },
    {
      "midi": 58,
      "hit": false,
      "t": 234149.99999999994,
      "d": 316.66666666665697,
      "v": 78
    },
    {
      "midi": 64,
      "hit": false,
      "t": 234149.99999999994,
      "d": 350,
      "v": 86
    },
    {
      "midi": 86,
      "hit": false,
      "t": 234366.6666666666,
      "d": 83.33333333334303,
      "v": 24
    },
    {
      "midi": 79,
      "hit": false,
      "t": 234583.33333333328,
      "d": 66.66666666665697,
      "v": 62
    },
    {
      "midi": 86,
      "hit": false,
      "t": 234583.33333333328,
      "d": 533.333333333343,
      "v": 86
    },
    {
      "midi": 82,
      "hit": false,
      "t": 234583.33333333328,
      "d": 600,
      "v": 78
    },
    {
      "midi": 53,
      "hit": false,
      "t": 235033.33333333328,
      "d": 2166.666666666657,
      "v": 83
    },
    {
      "midi": 60,
      "hit": false,
      "t": 235033.33333333328,
      "d": 2466.666666666657,
      "v": 80
    },
    {
      "midi": 69,
      "hit": false,
      "t": 235466.66666666663,
      "d": 100,
      "v": 41
    },
    {
      "midi": 57,
      "hit": false,
      "t": 235466.66666666663,
      "d": 1766.666666666657,
      "v": 72
    },
    {
      "midi": 69,
      "hit": false,
      "t": 235916.66666666663,
      "d": 66.66666666665697,
      "v": 80
    },
    {
      "midi": 77,
      "hit": false,
      "t": 235916.66666666663,
      "d": 83.33333333331393,
      "v": 80
    },
    {
      "midi": 69,
      "hit": false,
      "t": 236349.99999999994,
      "d": 216.66666666665697,
      "v": 66
    },
    {
      "midi": 69,
      "hit": false,
      "t": 236799.99999999994,
      "d": 233.33333333334303,
      "v": 66
    },
    {
      "midi": 65,
      "hit": false,
      "t": 236799.99999999994,
      "d": 283.33333333334303,
      "v": 78
    },
    {
      "midi": 72,
      "hit": false,
      "t": 236799.99999999994,
      "d": 916.666666666657,
      "v": 83
    },
    {
      "midi": 77,
      "hit": false,
      "t": 236799.99999999994,
      "d": 933.3333333333139,
      "v": 70
    },
    {
      "midi": 69,
      "hit": false,
      "t": 237449.99999999994,
      "d": 216.66666666665697,
      "v": 13
    },
    {
      "midi": 55,
      "hit": false,
      "t": 237666.6666666666,
      "d": 1183.333333333314,
      "v": 59
    },
    {
      "midi": 62,
      "hit": false,
      "t": 237666.6666666666,
      "d": 1483.333333333314,
      "v": 70
    },
    {
      "midi": 67,
      "hit": false,
      "t": 238116.6666666666,
      "d": 116.66666666665697,
      "v": 38
    },
    {
      "midi": 67,
      "hit": false,
      "t": 238549.9999999999,
      "d": 250,
      "v": 80
    },
    {
      "midi": 71,
      "hit": false,
      "t": 238549.9999999999,
      "d": 483.33333333334303,
      "v": 80
    },
    {
      "midi": 67,
      "hit": false,
      "t": 238999.9999999999,
      "d": 166.66666666665697,
      "v": 54
    },
    {
      "midi": 74,
      "hit": false,
      "t": 238999.9999999999,
      "d": 233.33333333331393,
      "v": 54
    },
    {
      "midi": 56,
      "hit": false,
      "t": 239433.33333333323,
      "d": 366.66666666665697,
      "v": 74
    },
    {
      "midi": 68,
      "hit": false,
      "t": 239433.33333333323,
      "d": 750,
      "v": 93
    },
    {
      "midi": 74,
      "hit": false,
      "t": 239433.33333333323,
      "d": 800,
      "v": 86
    },
    {
      "midi": 71,
      "hit": false,
      "t": 239433.33333333323,
      "d": 850,
      "v": 89
    },
    {
      "midi": 72,
      "hit": false,
      "t": 240316.66666666657,
      "d": 383.33333333334303,
      "v": 62
    },
    {
      "midi": 64,
      "hit": false,
      "t": 240316.66666666657,
      "d": 400,
      "v": 76
    },
    {
      "midi": 45,
      "hit": false,
      "t": 240316.66666666657,
      "d": 533.333333333343,
      "v": 92
    },
    {
      "midi": 52,
      "hit": false,
      "t": 240749.9999999999,
      "d": 483.33333333334303,
      "v": 78
    },
    {
      "midi": 57,
      "hit": false,
      "t": 241199.9999999999,
      "d": 166.66666666668607,
      "v": 96
    },
    {
      "midi": 64,
      "hit": false,
      "t": 241633.33333333326,
      "d": 183.33333333334303,
      "v": 78
    },
    {
      "midi": 64,
      "hit": false,
      "t": 242066.6666666666,
      "d": 300,
      "v": 89
    },
    {
      "midi": 57,
      "hit": false,
      "t": 242066.6666666666,
      "d": 466.66666666665697,
      "v": 72
    },
    {
      "midi": 72,
      "hit": false,
      "t": 242066.6666666666,
      "d": 1466.666666666657,
      "v": 100
    },
    {
      "midi": 64,
      "hit": false,
      "t": 242516.6666666666,
      "d": 316.66666666665697,
      "v": 83
    },
    {
      "midi": 64,
      "hit": false,
      "t": 242949.9999999999,
      "d": 483.33333333334303,
      "v": 80
    },
    {
      "midi": 67,
      "hit": false,
      "t": 242949.9999999999,
      "d": 483.33333333334303,
      "v": 100
    },
    {
      "midi": 48,
      "hit": false,
      "t": 242949.9999999999,
      "d": 616.6666666666861,
      "v": 86
    },
    {
      "midi": 55,
      "hit": false,
      "t": 243399.9999999999,
      "d": 433.33333333334303,
      "v": 86
    },
    {
      "midi": 60,
      "hit": false,
      "t": 243833.33333333326,
      "d": 1683.333333333314,
      "v": 74
    },
    {
      "midi": 55,
      "hit": false,
      "t": 244266.6666666666,
      "d": 333.33333333334303,
      "v": 35
    },
    {
      "midi": 55,
      "hit": false,
      "t": 244716.6666666666,
      "d": 66.66666666665697,
      "v": 57
    },
    {
      "midi": 67,
      "hit": false,
      "t": 244716.6666666666,
      "d": 133.33333333331393,
      "v": 76
    },
    {
      "midi": 64,
      "hit": false,
      "t": 244716.6666666666,
      "d": 316.66666666665697,
      "v": 86
    },
    {
      "midi": 76,
      "hit": false,
      "t": 244716.6666666666,
      "d": 599.9999999999709,
      "v": 83
    },
    {
      "midi": 67,
      "hit": false,
      "t": 245149.9999999999,
      "d": 200,
      "v": 76
    },
    {
      "midi": 72,
      "hit": false,
      "t": 245366.66666666657,
      "d": 400,
      "v": 65
    },
    {
      "midi": 53,
      "hit": false,
      "t": 245599.9999999999,
      "d": 2000,
      "v": 96
    },
    {
      "midi": 57,
      "hit": false,
      "t": 246033.33333333323,
      "d": 1583.333333333343,
      "v": 76
    },
    {
      "midi": 72,
      "hit": false,
      "t": 246466.66666666657,
      "d": 166.66666666665697,
      "v": 83
    },
    {
      "midi": 65,
      "hit": false,
      "t": 246466.66666666657,
      "d": 633.333333333343,
      "v": 83
    },
    {
      "midi": 60,
      "hit": false,
      "t": 246466.66666666657,
      "d": 1183.333333333343,
      "v": 65
    },
    {
      "midi": 69,
      "hit": false,
      "t": 246916.66666666657,
      "d": 183.33333333334303,
      "v": 70
    },
    {
      "midi": 65,
      "hit": false,
      "t": 247349.9999999999,
      "d": 533.333333333343,
      "v": 74
    },
    {
      "midi": 77,
      "hit": false,
      "t": 247349.9999999999,
      "d": 833.333333333343,
      "v": 89
    },
    {
      "midi": 69,
      "hit": false,
      "t": 247799.9999999999,
      "d": 116.66666666668607,
      "v": 78
    },
    {
      "midi": 74,
      "hit": false,
      "t": 248016.6666666666,
      "d": 450,
      "v": 25
    },
    {
      "midi": 71,
      "hit": false,
      "t": 248233.33333333326,
      "d": 450,
      "v": 86
    },
    {
      "midi": 55,
      "hit": false,
      "t": 248233.33333333326,
      "d": 1566.666666666686,
      "v": 92
    },
    {
      "midi": 59,
      "hit": false,
      "t": 248683.33333333326,
      "d": 1133.333333333343,
      "v": 68
    },
    {
      "midi": 67,
      "hit": false,
      "t": 249116.6666666666,
      "d": 233.33333333334303,
      "v": 59
    },
    {
      "midi": 71,
      "hit": false,
      "t": 249116.6666666666,
      "d": 433.33333333334303,
      "v": 80
    },
    {
      "midi": 62,
      "hit": false,
      "t": 249116.6666666666,
      "d": 550,
      "v": 76
    },
    {
      "midi": 67,
      "hit": false,
      "t": 249549.99999999994,
      "d": 200,
      "v": 48
    },
    {
      "midi": 62,
      "hit": false,
      "t": 249999.99999999994,
      "d": 150,
      "v": 83
    },
    {
      "midi": 59,
      "hit": false,
      "t": 249999.99999999994,
      "d": 183.33333333334303,
      "v": 61
    },
    {
      "midi": 79,
      "hit": false,
      "t": 249999.99999999994,
      "d": 266.66666666668607,
      "v": 62
    },
    {
      "midi": 71,
      "hit": false,
      "t": 249999.99999999994,
      "d": 550,
      "v": 76
    },
    {
      "midi": 67,
      "hit": false,
      "t": 250433.33333333328,
      "d": 233.33333333331393,
      "v": 65
    },
    {
      "midi": 48,
      "hit": false,
      "t": 250883.33333333326,
      "d": 133.33333333334303,
      "v": 89
    },
    {
      "midi": 72,
      "hit": false,
      "t": 250883.33333333326,
      "d": 266.66666666668607,
      "v": 55
    },
    {
      "midi": 76,
      "hit": false,
      "t": 250883.33333333326,
      "d": 283.33333333334303,
      "v": 74
    },
    {
      "midi": 64,
      "hit": false,
      "t": 251749.99999999994,
      "d": 516.666666666657,
      "v": 61
    },
    {
      "midi": 60,
      "hit": false,
      "t": 251749.99999999994,
      "d": 700,
      "v": 59
    },
    {
      "midi": 55,
      "hit": false,
      "t": 252199.99999999994,
      "d": 283.33333333334303,
      "v": 46
    },
    {
      "midi": 72,
      "hit": false,
      "t": 252633.33333333328,
      "d": 150,
      "v": 65
    },
    {
      "midi": 76,
      "hit": false,
      "t": 252633.33333333328,
      "d": 150,
      "v": 89
    },
    {
      "midi": 64,
      "hit": false,
      "t": 252633.33333333328,
      "d": 266.66666666665697,
      "v": 48
    },
    {
      "midi": 79,
      "hit": false,
      "t": 252633.33333333328,
      "d": 866.666666666657,
      "v": 89
    },
    {
      "midi": 60,
      "hit": false,
      "t": 252849.99999999994,
      "d": 216.66666666665697,
      "v": 6
    },
    {
      "midi": 84,
      "hit": false,
      "t": 252849.99999999994,
      "d": 783.3333333333139,
      "v": 89
    },
    {
      "midi": 64,
      "hit": false,
      "t": 253516.6666666666,
      "d": 1466.666666666657,
      "v": 68
    },
    {
      "midi": 57,
      "hit": false,
      "t": 253516.6666666666,
      "d": 2116.666666666657,
      "v": 83
    },
    {
      "midi": 60,
      "hit": false,
      "t": 253516.6666666666,
      "d": 2599.999999999942,
      "v": 68
    },
    {
      "midi": 76,
      "hit": false,
      "t": 254399.9999999999,
      "d": 83.33333333334303,
      "v": 65
    },
    {
      "midi": 72,
      "hit": false,
      "t": 254399.9999999999,
      "d": 100,
      "v": 78
    },
    {
      "midi": 69,
      "hit": false,
      "t": 255283.33333333326,
      "d": 283.33333333334303,
      "v": 72
    },
    {
      "midi": 64,
      "hit": false,
      "t": 255283.33333333326,
      "d": 400,
      "v": 59
    },
    {
      "midi": 72,
      "hit": false,
      "t": 255283.33333333326,
      "d": 416.66666666665697,
      "v": 92
    },
    {
      "midi": 71,
      "hit": false,
      "t": 255716.66666666657,
      "d": 383.33333333331393,
      "v": 83
    },
    {
      "midi": 74,
      "hit": false,
      "t": 255716.66666666657,
      "d": 399.9999999999709,
      "v": 86
    },
    {
      "midi": 67,
      "hit": false,
      "t": 256149.99999999988,
      "d": 366.66666666665697,
      "v": 89
    },
    {
      "midi": 71,
      "hit": false,
      "t": 256149.99999999988,
      "d": 483.33333333331393,
      "v": 78
    },
    {
      "midi": 55,
      "hit": false,
      "t": 256149.99999999988,
      "d": 533.3333333333139,
      "v": 83
    },
    {
      "midi": 62,
      "hit": false,
      "t": 257033.3333333332,
      "d": 516.666666666657,
      "v": 72
    },
    {
      "midi": 59,
      "hit": false,
      "t": 257033.3333333332,
      "d": 616.666666666657,
      "v": 74
    },
    {
      "midi": 67,
      "hit": false,
      "t": 257483.3333333332,
      "d": 166.66666666665697,
      "v": 80
    },
    {
      "midi": 62,
      "hit": false,
      "t": 257916.6666666665,
      "d": 133.33333333334303,
      "v": 63
    },
    {
      "midi": 59,
      "hit": false,
      "t": 257916.6666666665,
      "d": 200,
      "v": 78
    },
    {
      "midi": 67,
      "hit": false,
      "t": 257916.6666666665,
      "d": 316.66666666665697,
      "v": 83
    },
    {
      "midi": 74,
      "hit": false,
      "t": 257916.6666666665,
      "d": 433.33333333331393,
      "v": 92
    },
    {
      "midi": 67,
      "hit": false,
      "t": 258349.99999999983,
      "d": 350,
      "v": 78
    },
    {
      "midi": 48,
      "hit": false,
      "t": 258799.99999999983,
      "d": 733.333333333343,
      "v": 92
    },
    {
      "midi": 72,
      "hit": false,
      "t": 258799.99999999983,
      "d": 1033.333333333343,
      "v": 86
    },
    {
      "midi": 76,
      "hit": false,
      "t": 258799.99999999983,
      "d": 1050,
      "v": 86
    },
    {
      "midi": 55,
      "hit": false,
      "t": 259233.33333333317,
      "d": 450,
      "v": 76
    },
    {
      "midi": 60,
      "hit": false,
      "t": 259683.33333333317,
      "d": 250,
      "v": 96
    },
    {
      "midi": 67,
      "hit": false,
      "t": 260116.6666666665,
      "d": 133.33333333334303,
      "v": 80
    },
    {
      "midi": 67,
      "hit": false,
      "t": 260566.6666666665,
      "d": 250,
      "v": 96
    },
    {
      "midi": 72,
      "hit": false,
      "t": 260566.6666666665,
      "d": 350,
      "v": 100
    },
    {
      "midi": 60,
      "hit": false,
      "t": 260566.6666666665,
      "d": 466.66666666668607,
      "v": 76
    },
    {
      "midi": 64,
      "hit": false,
      "t": 260566.6666666665,
      "d": 666.6666666666861,
      "v": 80
    },
    {
      "midi": 67,
      "hit": false,
      "t": 260999.99999999985,
      "d": 366.66666666668607,
      "v": 89
    },
    {
      "midi": 76,
      "hit": false,
      "t": 260999.99999999985,
      "d": 366.66666666668607,
      "v": 62
    },
    {
      "midi": 67,
      "hit": false,
      "t": 261433.3333333332,
      "d": 250,
      "v": 83
    },
    {
      "midi": 70,
      "hit": false,
      "t": 261433.3333333332,
      "d": 316.66666666665697,
      "v": 93
    },
    {
      "midi": 64,
      "hit": false,
      "t": 261433.3333333332,
      "d": 533.3333333333139,
      "v": 86
    },
    {
      "midi": 58,
      "hit": false,
      "t": 261433.3333333332,
      "d": 549.9999999999709,
      "v": 78
    },
    {
      "midi": 55,
      "hit": false,
      "t": 261433.3333333332,
      "d": 566.6666666666279,
      "v": 89
    },
    {
      "midi": 64,
      "hit": false,
      "t": 262316.6666666665,
      "d": 533.3333333333139,
      "v": 105
    },
    {
      "midi": 58,
      "hit": false,
      "t": 262316.6666666665,
      "d": 550,
      "v": 116
    },
    {
      "midi": 76,
      "hit": false,
      "t": 262766.6666666665,
      "d": 83.33333333331393,
      "v": 96
    },
    {
      "midi": 82,
      "hit": false,
      "t": 262766.6666666665,
      "d": 83.33333333331393,
      "v": 125
    },
    {
      "midi": 81,
      "hit": false,
      "t": 263199.9999999998,
      "d": 233.33333333331393,
      "v": 110
    },
    {
      "midi": 76,
      "hit": false,
      "t": 263199.9999999998,
      "d": 300,
      "v": 96
    },
    {
      "midi": 58,
      "hit": false,
      "t": 263199.9999999998,
      "d": 316.66666666668607,
      "v": 85
    },
    {
      "midi": 64,
      "hit": false,
      "t": 263199.9999999998,
      "d": 416.66666666668607,
      "v": 86
    },
    {
      "midi": 77,
      "hit": false,
      "t": 263633.3333333332,
      "d": 300,
      "v": 105
    },
    {
      "midi": 81,
      "hit": false,
      "t": 263633.3333333332,
      "d": 300,
      "v": 105
    },
    {
      "midi": 77,
      "hit": false,
      "t": 264083.3333333332,
      "d": 266.66666666668607,
      "v": 115
    },
    {
      "midi": 81,
      "hit": false,
      "t": 264083.3333333332,
      "d": 266.66666666668607,
      "v": 105
    },
    {
      "midi": 72,
      "hit": false,
      "t": 264083.3333333332,
      "d": 333.33333333337214,
      "v": 100
    },
    {
      "midi": 60,
      "hit": false,
      "t": 264083.3333333332,
      "d": 1616.6666666667443,
      "v": 86
    },
    {
      "midi": 53,
      "hit": false,
      "t": 264083.3333333332,
      "d": 1850.0000000000582,
      "v": 89
    },
    {
      "midi": 65,
      "hit": false,
      "t": 264966.66666666657,
      "d": 216.66666666668607,
      "v": 65
    },
    {
      "midi": 69,
      "hit": false,
      "t": 264966.66666666657,
      "d": 366.66666666668607,
      "v": 89
    },
    {
      "midi": 57,
      "hit": false,
      "t": 264966.66666666657,
      "d": 1066.666666666686,
      "v": 6
    },
    {
      "midi": 65,
      "hit": false,
      "t": 265399.99999999994,
      "d": 200,
      "v": 76
    },
    {
      "midi": 65,
      "hit": false,
      "t": 265833.33333333326,
      "d": 316.66666666668607,
      "v": 86
    },
    {
      "midi": 72,
      "hit": false,
      "t": 265833.33333333326,
      "d": 800,
      "v": 92
    },
    {
      "midi": 65,
      "hit": false,
      "t": 266283.33333333326,
      "d": 250,
      "v": 80
    },
    {
      "midi": 69,
      "hit": false,
      "t": 266716.66666666657,
      "d": 66.66666666668607,
      "v": 38
    },
    {
      "midi": 71,
      "hit": false,
      "t": 266716.66666666657,
      "d": 316.66666666668607,
      "v": 100
    },
    {
      "midi": 74,
      "hit": false,
      "t": 266716.66666666657,
      "d": 333.33333333337214,
      "v": 78
    },
    {
      "midi": 55,
      "hit": false,
      "t": 266716.66666666657,
      "d": 550.0000000000582,
      "v": 92
    },
    {
      "midi": 62,
      "hit": false,
      "t": 267599.99999999994,
      "d": 250,
      "v": 68
    },
    {
      "midi": 59,
      "hit": false,
      "t": 267599.99999999994,
      "d": 283.33333333331393,
      "v": 78
    },
    {
      "midi": 56,
      "hit": false,
      "t": 268483.33333333326,
      "d": 333.33333333331393,
      "v": 74
    },
    {
      "midi": 74,
      "hit": false,
      "t": 268483.33333333326,
      "d": 450,
      "v": 89
    },
    {
      "midi": 68,
      "hit": false,
      "t": 268483.33333333326,
      "d": 883.3333333333139,
      "v": 101
    },
    {
      "midi": 45,
      "hit": false,
      "t": 269366.66666666657,
      "d": 483.33333333331393,
      "v": 80
    },
    {
      "midi": 64,
      "hit": false,
      "t": 269366.66666666657,
      "d": 1000,
      "v": 80
    },
    {
      "midi": 72,
      "hit": false,
      "t": 269366.66666666657,
      "d": 1033.333333333314,
      "v": 86
    },
    {
      "midi": 52,
      "hit": false,
      "t": 269799.9999999999,
      "d": 466.66666666668607,
      "v": 78
    },
    {
      "midi": 57,
      "hit": false,
      "t": 270249.9999999999,
      "d": 966.6666666666279,
      "v": 100
    },
    {
      "midi": 64,
      "hit": false,
      "t": 270683.3333333332,
      "d": 200,
      "v": 72
    },
    {
      "midi": 64,
      "hit": false,
      "t": 271116.6666666665,
      "d": 516.6666666666861,
      "v": 86
    },
    {
      "midi": 60,
      "hit": false,
      "t": 271116.6666666665,
      "d": 600,
      "v": 66
    },
    {
      "midi": 72,
      "hit": false,
      "t": 271116.6666666665,
      "d": 833.3333333333139,
      "v": 89
    },
    {
      "midi": 67,
      "hit": false,
      "t": 271566.6666666665,
      "d": 350,
      "v": 83
    },
    {
      "midi": 53,
      "hit": false,
      "t": 271999.9999999998,
      "d": 1050,
      "v": 86
    },
    {
      "midi": 60,
      "hit": false,
      "t": 271999.9999999998,
      "d": 1700,
      "v": 78
    },
    {
      "midi": 56,
      "hit": false,
      "t": 272449.9999999998,
      "d": 666.6666666666861,
      "v": 60
    },
    {
      "midi": 68,
      "hit": false,
      "t": 272883.33333333314,
      "d": 583.3333333333721,
      "v": 74
    },
    {
      "midi": 72,
      "hit": false,
      "t": 272883.33333333314,
      "d": 766.6666666666861,
      "v": 78
    },
    {
      "midi": 65,
      "hit": false,
      "t": 273316.6666666665,
      "d": 150,
      "v": 59
    },
    {
      "midi": 55,
      "hit": false,
      "t": 273766.6666666665,
      "d": 233.33333333331393,
      "v": 86
    },
    {
      "midi": 67,
      "hit": false,
      "t": 273766.6666666665,
      "d": 400,
      "v": 78
    },
    {
      "midi": 74,
      "hit": false,
      "t": 273766.6666666665,
      "d": 416.66666666668607,
      "v": 83
    },
    {
      "midi": 71,
      "hit": false,
      "t": 273766.6666666665,
      "d": 483.33333333337214,
      "v": 80
    },
    {
      "midi": 67,
      "hit": false,
      "t": 274416.66666666657,
      "d": 166.66666666668607,
      "v": 63
    },
    {
      "midi": 67,
      "hit": false,
      "t": 274649.99999999994,
      "d": 316.66666666668607,
      "v": 89
    },
    {
      "midi": 72,
      "hit": false,
      "t": 274649.99999999994,
      "d": 366.66666666668607,
      "v": 86
    },
    {
      "midi": 76,
      "hit": false,
      "t": 274649.99999999994,
      "d": 366.66666666668607,
      "v": 89
    },
    {
      "midi": 48,
      "hit": false,
      "t": 274649.99999999994,
      "d": 516.6666666666861,
      "v": 96
    },
    {
      "midi": 55,
      "hit": false,
      "t": 275083.3333333333,
      "d": 400,
      "v": 78
    },
    {
      "midi": 60,
      "hit": false,
      "t": 275516.6666666666,
      "d": 350,
      "v": 100
    },
    {
      "midi": 55,
      "hit": false,
      "t": 275516.6666666666,
      "d": 799.9999999999418,
      "v": 92
    },
    {
      "midi": 60,
      "hit": false,
      "t": 275966.6666666666,
      "d": 133.33333333331393,
      "v": 49
    },
    {
      "midi": 72,
      "hit": false,
      "t": 275966.6666666666,
      "d": 216.66666666662786,
      "v": 86
    },
    {
      "midi": 72,
      "hit": false,
      "t": 276399.9999999999,
      "d": 216.66666666668607,
      "v": 105
    },
    {
      "midi": 76,
      "hit": false,
      "t": 276399.9999999999,
      "d": 266.66666666668607,
      "v": 105
    },
    {
      "midi": 79,
      "hit": false,
      "t": 276399.9999999999,
      "d": 333.33333333337214,
      "v": 120
    },
    {
      "midi": 48,
      "hit": false,
      "t": 276399.9999999999,
      "d": 516.6666666667443,
      "v": 110
    },
    {
      "midi": 60,
      "hit": false,
      "t": 276399.9999999999,
      "d": 700.0000000000582,
      "v": 110
    },
    {
      "midi": 79,
      "hit": false,
      "t": 276849.99999999994,
      "d": 250,
      "v": 115
    },
    {
      "midi": 76,
      "hit": false,
      "t": 276849.99999999994,
      "d": 350,
      "v": 115
    },
    {
      "midi": 78,
      "hit": false,
      "t": 277283.33333333326,
      "d": 16.66666666668607,
      "v": 121
    },
    {
      "midi": 81,
      "hit": false,
      "t": 277283.33333333326,
      "d": 16.66666666668607,
      "v": 110
    },
    {
      "midi": 62,
      "hit": false,
      "t": 277283.33333333326,
      "d": 600,
      "v": 115
    },
    {
      "midi": 50,
      "hit": false,
      "t": 277283.33333333326,
      "d": 1566.666666666686,
      "v": 105
    },
    {
      "midi": 69,
      "hit": false,
      "t": 277949.99999999994,
      "d": 150,
      "v": 42
    },
    {
      "midi": 57,
      "hit": false,
      "t": 277949.99999999994,
      "d": 1083.333333333314,
      "v": 19
    },
    {
      "midi": 69,
      "hit": false,
      "t": 278166.6666666666,
      "d": 233.33333333331393,
      "v": 89
    },
    {
      "midi": 62,
      "hit": false,
      "t": 278166.6666666666,
      "d": 416.66666666662786,
      "v": 92
    },
    {
      "midi": 78,
      "hit": false,
      "t": 278166.6666666666,
      "d": 433.33333333331393,
      "v": 101
    },
    {
      "midi": 69,
      "hit": false,
      "t": 278599.99999999994,
      "d": 266.66666666668607,
      "v": 76
    },
    {
      "midi": 74,
      "hit": false,
      "t": 278816.6666666666,
      "d": 133.33333333331393,
      "v": 83
    },
    {
      "midi": 62,
      "hit": false,
      "t": 279049.99999999994,
      "d": 183.33333333331393,
      "v": 105
    },
    {
      "midi": 57,
      "hit": false,
      "t": 279049.99999999994,
      "d": 216.66666666662786,
      "v": 100
    },
    {
      "midi": 69,
      "hit": false,
      "t": 279049.99999999994,
      "d": 249.9999999999418,
      "v": 100
    },
    {
      "midi": 74,
      "hit": false,
      "t": 279049.99999999994,
      "d": 399.9999999999418,
      "v": 120
    },
    {
      "midi": 69,
      "hit": false,
      "t": 279483.3333333332,
      "d": 216.66666666668607,
      "v": 92
    },
    {
      "midi": 78,
      "hit": false,
      "t": 279483.3333333332,
      "d": 216.66666666668607,
      "v": 63
    },
    {
      "midi": 74,
      "hit": false,
      "t": 279699.9999999999,
      "d": 183.33333333331393,
      "v": 83
    },
    {
      "midi": 74,
      "hit": false,
      "t": 279916.6666666665,
      "d": 100,
      "v": 80
    },
    {
      "midi": 55,
      "hit": false,
      "t": 279916.6666666665,
      "d": 716.6666666666861,
      "v": 100
    },
    {
      "midi": 43,
      "hit": false,
      "t": 279916.6666666665,
      "d": 1983.3333333333721,
      "v": 115
    },
    {
      "midi": 71,
      "hit": false,
      "t": 280583.3333333332,
      "d": 33.33333333331393,
      "v": 52
    },
    {
      "midi": 67,
      "hit": false,
      "t": 280799.9999999999,
      "d": 216.66666666668607,
      "v": 92
    },
    {
      "midi": 71,
      "hit": false,
      "t": 280799.9999999999,
      "d": 300,
      "v": 92
    },
    {
      "midi": 55,
      "hit": false,
      "t": 280799.9999999999,
      "d": 600,
      "v": 92
    },
    {
      "midi": 50,
      "hit": false,
      "t": 280799.9999999999,
      "d": 1133.3333333333721,
      "v": 65
    },
    {
      "midi": 74,
      "hit": false,
      "t": 281249.9999999999,
      "d": 83.33333333331393,
      "v": 92
    },
    {
      "midi": 67,
      "hit": false,
      "t": 281249.9999999999,
      "d": 116.66666666662786,
      "v": 100
    },
    {
      "midi": 71,
      "hit": false,
      "t": 281249.9999999999,
      "d": 133.33333333331393,
      "v": 100
    },
    {
      "midi": 67,
      "hit": false,
      "t": 281683.3333333332,
      "d": 233.33333333337214,
      "v": 110
    },
    {
      "midi": 74,
      "hit": false,
      "t": 281683.3333333332,
      "d": 266.6666666667443,
      "v": 115
    },
    {
      "midi": 71,
      "hit": false,
      "t": 281683.3333333332,
      "d": 383.33333333343035,
      "v": 110
    },
    {
      "midi": 55,
      "hit": false,
      "t": 281683.3333333332,
      "d": 633.3333333334303,
      "v": 100
    },
    {
      "midi": 67,
      "hit": false,
      "t": 282133.3333333333,
      "d": 200,
      "v": 105
    },
    {
      "midi": 71,
      "hit": false,
      "t": 282133.3333333333,
      "d": 233.33333333331393,
      "v": 92
    },
    {
      "midi": 74,
      "hit": false,
      "t": 282133.3333333333,
      "d": 316.66666666662786,
      "v": 105
    },
    {
      "midi": 69,
      "hit": false,
      "t": 282566.6666666666,
      "d": 16.66666666668607,
      "v": 100
    },
    {
      "midi": 55,
      "hit": false,
      "t": 282566.6666666666,
      "d": 83.33333333337214,
      "v": 10
    },
    {
      "midi": 66,
      "hit": false,
      "t": 282566.6666666666,
      "d": 350,
      "v": 109
    },
    {
      "midi": 74,
      "hit": false,
      "t": 282566.6666666666,
      "d": 433.33333333331393,
      "v": 105
    },
    {
      "midi": 50,
      "hit": false,
      "t": 282566.6666666666,
      "d": 1883.333333333314,
      "v": 92
    },
    {
      "midi": 57,
      "hit": false,
      "t": 283233.33333333326,
      "d": 116.66666666668607,
      "v": 3
    },
    {
      "midi": 54,
      "hit": false,
      "t": 283233.33333333326,
      "d": 1100,
      "v": 11
    },
    {
      "midi": 62,
      "hit": false,
      "t": 283449.99999999994,
      "d": 533.3333333333139,
      "v": 100
    },
    {
      "midi": 57,
      "hit": false,
      "t": 283449.99999999994,
      "d": 733.3333333333139,
      "v": 74
    },
    {
      "midi": 74,
      "hit": false,
      "t": 284099.99999999994,
      "d": 83.33333333331393,
      "v": 2
    },
    {
      "midi": 54,
      "hit": false,
      "t": 284333.33333333326,
      "d": 16.66666666668607,
      "v": 29
    },
    {
      "midi": 57,
      "hit": false,
      "t": 284333.33333333326,
      "d": 116.66666666668607,
      "v": 92
    },
    {
      "midi": 62,
      "hit": false,
      "t": 284333.33333333326,
      "d": 116.66666666668607,
      "v": 105
    },
    {
      "midi": 86,
      "hit": false,
      "t": 284333.33333333326,
      "d": 166.66666666668607,
      "v": 100
    },
    {
      "midi": 78,
      "hit": false,
      "t": 284333.33333333326,
      "d": 250,
      "v": 116
    },
    {
      "midi": 74,
      "hit": false,
      "t": 284766.66666666657,
      "d": 133.33333333331393,
      "v": 41
    },
    {
      "midi": 74,
      "hit": false,
      "t": 284983.3333333332,
      "d": 150,
      "v": 42
    },
    {
      "midi": 55,
      "hit": false,
      "t": 285199.9999999999,
      "d": 216.66666666668607,
      "v": 72
    },
    {
      "midi": 50,
      "hit": false,
      "t": 285199.9999999999,
      "d": 250.0000000000582,
      "v": 89
    },
    {
      "midi": 43,
      "hit": false,
      "t": 285199.9999999999,
      "d": 283.33333333337214,
      "v": 110
    },
    {
      "midi": 74,
      "hit": false,
      "t": 285199.9999999999,
      "d": 600.0000000000582,
      "v": 89
    },
    {
      "midi": 71,
      "hit": false,
      "t": 285199.9999999999,
      "d": 633.3333333333721,
      "v": 83
    },
    {
      "midi": 79,
      "hit": false,
      "t": 285199.9999999999,
      "d": 750,
      "v": 96
    },
    {
      "midi": 55,
      "hit": false,
      "t": 285433.33333333326,
      "d": 66.66666666668607,
      "v": 55
    },
    {
      "midi": 55,
      "hit": false,
      "t": 285649.99999999994,
      "d": 83.33333333331393,
      "v": 51
    },
    {
      "midi": 43,
      "hit": false,
      "t": 285649.99999999994,
      "d": 100,
      "v": 80
    },
    {
      "midi": 43,
      "hit": false,
      "t": 285866.66666666657,
      "d": 83.33333333331393,
      "v": 78
    },
    {
      "midi": 55,
      "hit": false,
      "t": 285866.66666666657,
      "d": 83.33333333331393,
      "v": 55
    },
    {
      "midi": 50,
      "hit": false,
      "t": 285866.66666666657,
      "d": 216.66666666662786,
      "v": 21
    },
    {
      "midi": 43,
      "hit": false,
      "t": 286083.3333333332,
      "d": 16.66666666668607,
      "v": 105
    },
    {
      "midi": 50,
      "hit": false,
      "t": 286083.3333333332,
      "d": 66.66666666668607,
      "v": 37
    },
    {
      "midi": 55,
      "hit": false,
      "t": 286083.3333333332,
      "d": 183.33333333337214,
      "v": 55
    },
    {
      "midi": 62,
      "hit": false,
      "t": 286533.33333333326,
      "d": 233.33333333331393,
      "v": 74
    },
    {
      "midi": 62,
      "hit": false,
      "t": 286966.66666666657,
      "d": 266.66666666668607,
      "v": 80
    },
    {
      "midi": 55,
      "hit": false,
      "t": 286966.66666666657,
      "d": 1033.3333333333721,
      "v": 100
    },
    {
      "midi": 71,
      "hit": false,
      "t": 286966.66666666657,
      "d": 1050.0000000000582,
      "v": 96
    },
    {
      "midi": 62,
      "hit": false,
      "t": 288283.3333333333,
      "d": 200,
      "v": 51
    },
    {
      "midi": 66,
      "hit": false,
      "t": 288733.3333333333,
      "d": 83.33333333331393,
      "v": 109
    },
    {
      "midi": 69,
      "hit": false,
      "t": 288733.3333333333,
      "d": 83.33333333331393,
      "v": 92
    },
    {
      "midi": 57,
      "hit": false,
      "t": 289166.6666666666,
      "d": 433.33333333331393,
      "v": 72
    },
    {
      "midi": 54,
      "hit": false,
      "t": 289166.6666666666,
      "d": 699.9999999999418,
      "v": 52
    },
    {
      "midi": 50,
      "hit": false,
      "t": 289166.6666666666,
      "d": 733.3333333332557,
      "v": 58
    },
    {
      "midi": 62,
      "hit": false,
      "t": 289599.99999999994,
      "d": 183.33333333331393,
      "v": 110
    },
    {
      "midi": 57,
      "hit": false,
      "t": 289599.99999999994,
      "d": 216.66666666662786,
      "v": 86
    },
    {
      "midi": 69,
      "hit": false,
      "t": 289599.99999999994,
      "d": 233.33333333331393,
      "v": 96
    },
    {
      "midi": 78,
      "hit": false,
      "t": 289599.99999999994,
      "d": 733.3333333333139,
      "v": 121
    },
    {
      "midi": 69,
      "hit": false,
      "t": 290049.9999999999,
      "d": 216.66666666668607,
      "v": 89
    },
    {
      "midi": 74,
      "hit": false,
      "t": 290266.66666666657,
      "d": 150,
      "v": 70
    },
    {
      "midi": 79,
      "hit": false,
      "t": 290483.33333333326,
      "d": 316.66666666668607,
      "v": 110
    },
    {
      "midi": 71,
      "hit": false,
      "t": 290483.33333333326,
      "d": 400,
      "v": 96
    },
    {
      "midi": 43,
      "hit": false,
      "t": 290483.33333333326,
      "d": 1700,
      "v": 115
    },
    {
      "midi": 50,
      "hit": false,
      "t": 290933.33333333326,
      "d": 1233.333333333314,
      "v": 80
    },
    {
      "midi": 55,
      "hit": false,
      "t": 291366.66666666657,
      "d": 1700,
      "v": 100
    },
    {
      "midi": 62,
      "hit": false,
      "t": 291816.66666666657,
      "d": 250,
      "v": 80
    },
    {
      "midi": 71,
      "hit": false,
      "t": 292249.99999999994,
      "d": 1133.333333333314,
      "v": 83
    },
    {
      "midi": 62,
      "hit": false,
      "t": 292683.33333333326,
      "d": 250,
      "v": 66
    },
    {
      "midi": 67,
      "hit": false,
      "t": 293133.33333333326,
      "d": 333.33333333331393,
      "v": 66
    },
    {
      "midi": 48,
      "hit": false,
      "t": 293133.33333333326,
      "d": 883.3333333333139,
      "v": 83
    },
    {
      "midi": 55,
      "hit": false,
      "t": 293566.66666666657,
      "d": 483.33333333331393,
      "v": 83
    },
    {
      "midi": 60,
      "hit": false,
      "t": 294016.66666666657,
      "d": 416.66666666662786,
      "v": 86
    },
    {
      "midi": 64,
      "hit": false,
      "t": 294016.66666666657,
      "d": 483.33333333331393,
      "v": 96
    },
    {
      "midi": 67,
      "hit": false,
      "t": 294449.9999999999,
      "d": 233.33333333331393,
      "v": 83
    },
    {
      "midi": 67,
      "hit": false,
      "t": 294883.3333333332,
      "d": 300,
      "v": 96
    },
    {
      "midi": 72,
      "hit": false,
      "t": 294883.3333333332,
      "d": 500,
      "v": 86
    },
    {
      "midi": 60,
      "hit": false,
      "t": 294883.3333333332,
      "d": 816.6666666666861,
      "v": 78
    },
    {
      "midi": 71,
      "hit": false,
      "t": 295333.3333333332,
      "d": 816.6666666666861,
      "v": 83
    },
    {
      "midi": 67,
      "hit": false,
      "t": 295766.66666666657,
      "d": 333.33333333331393,
      "v": 92
    },
    {
      "midi": 55,
      "hit": false,
      "t": 295766.66666666657,
      "d": 600,
      "v": 80
    },
    {
      "midi": 59,
      "hit": false,
      "t": 296216.66666666657,
      "d": 333.33333333331393,
      "v": 59
    },
    {
      "midi": 62,
      "hit": false,
      "t": 296649.9999999999,
      "d": 666.6666666666279,
      "v": 74
    },
    {
      "midi": 59,
      "hit": false,
      "t": 296649.9999999999,
      "d": 699.9999999999418,
      "v": 62
    },
    {
      "midi": 67,
      "hit": false,
      "t": 297083.3333333332,
      "d": 283.33333333331393,
      "v": 72
    },
    {
      "midi": 59,
      "hit": false,
      "t": 297533.3333333332,
      "d": 200,
      "v": 83
    },
    {
      "midi": 62,
      "hit": false,
      "t": 297533.3333333332,
      "d": 200,
      "v": 74
    },
    {
      "midi": 67,
      "hit": false,
      "t": 297533.3333333332,
      "d": 233.33333333331393,
      "v": 78
    },
    {
      "midi": 74,
      "hit": false,
      "t": 297533.3333333332,
      "d": 550,
      "v": 100
    },
    {
      "midi": 67,
      "hit": false,
      "t": 297966.6666666665,
      "d": 516.6666666666861,
      "v": 74
    },
    {
      "midi": 48,
      "hit": false,
      "t": 298416.6666666665,
      "d": 516.6666666666861,
      "v": 96
    },
    {
      "midi": 55,
      "hit": false,
      "t": 298849.9999999999,
      "d": 450,
      "v": 80
    },
    {
      "midi": 60,
      "hit": false,
      "t": 299283.3333333332,
      "d": 700,
      "v": 83
    },
    {
      "midi": 76,
      "hit": false,
      "t": 299733.3333333332,
      "d": 350,
      "v": 68
    },
    {
      "midi": 60,
      "hit": false,
      "t": 300166.6666666665,
      "d": 300,
      "v": 72
    },
    {
      "midi": 53,
      "hit": false,
      "t": 300166.6666666665,
      "d": 350,
      "v": 83
    },
    {
      "midi": 68,
      "hit": false,
      "t": 300166.6666666665,
      "d": 583.3333333333139,
      "v": 78
    },
    {
      "midi": 72,
      "hit": false,
      "t": 300166.6666666665,
      "d": 816.6666666666279,
      "v": 76
    },
    {
      "midi": 67,
      "hit": false,
      "t": 301049.9999999998,
      "d": 750,
      "v": 66
    },
    {
      "midi": 72,
      "hit": false,
      "t": 301049.9999999998,
      "d": 950.0000000000582,
      "v": 72
    },
    {
      "midi": 76,
      "hit": false,
      "t": 301049.9999999998,
      "d": 950.0000000000582,
      "v": 72
    },
    {
      "midi": 48,
      "hit": false,
      "t": 301049.9999999998,
      "d": 1783.3333333334303,
      "v": 86
    },
    {
      "midi": 55,
      "hit": false,
      "t": 301483.33333333314,
      "d": 433.33333333337214,
      "v": 76
    },
    {
      "midi": 60,
      "hit": false,
      "t": 301933.3333333332,
      "d": 750.0000000000582,
      "v": 105
    },
    {
      "midi": 55,
      "hit": false,
      "t": 301933.3333333332,
      "d": 933.3333333333721,
      "v": 72
    },
    {
      "midi": 67,
      "hit": false,
      "t": 302366.66666666657,
      "d": 900,
      "v": 92
    },
    {
      "midi": 76,
      "hit": false,
      "t": 302366.66666666657,
      "d": 1300,
      "v": 100
    },
    {
      "midi": 60,
      "hit": false,
      "t": 302816.66666666657,
      "d": 766.6666666666861,
      "v": 89
    },
    {
      "midi": 60,
      "hit": false,
      "t": 303699.9999999999,
      "d": 183.33333333331393,
      "v": 72
    },
    {
      "midi": 69,
      "hit": false,
      "t": 303699.9999999999,
      "d": 216.66666666662786,
      "v": 80
    },
    {
      "midi": 65,
      "hit": false,
      "t": 303699.9999999999,
      "d": 233.33333333331393,
      "v": 76
    },
    {
      "midi": 53,
      "hit": false,
      "t": 303699.9999999999,
      "d": 2066.666666666686,
      "v": 74
    },
    {
      "midi": 60,
      "hit": false,
      "t": 304133.3333333332,
      "d": 116.66666666668607,
      "v": 66
    },
    {
      "midi": 69,
      "hit": false,
      "t": 304566.66666666657,
      "d": 366.66666666668607,
      "v": 96
    },
    {
      "midi": 65,
      "hit": false,
      "t": 304566.66666666657,
      "d": 400,
      "v": 86
    },
    {
      "midi": 60,
      "hit": false,
      "t": 305016.66666666657,
      "d": 200,
      "v": 42
    },
    {
      "midi": 60,
      "hit": false,
      "t": 305449.9999999999,
      "d": 350,
      "v": 83
    },
    {
      "midi": 65,
      "hit": false,
      "t": 305449.9999999999,
      "d": 700,
      "v": 105
    },
    {
      "midi": 69,
      "hit": false,
      "t": 305899.9999999999,
      "d": 366.66666666668607,
      "v": 63
    },
    {
      "midi": 60,
      "hit": false,
      "t": 306116.66666666657,
      "d": 216.66666666668607,
      "v": 58
    },
    {
      "midi": 64,
      "hit": false,
      "t": 306333.33333333326,
      "d": 300,
      "v": 89
    },
    {
      "midi": 67,
      "hit": false,
      "t": 306333.33333333326,
      "d": 400,
      "v": 92
    },
    {
      "midi": 48,
      "hit": false,
      "t": 306333.33333333326,
      "d": 1799.9999999999418,
      "v": 86
    },
    {
      "midi": 55,
      "hit": false,
      "t": 306766.66666666657,
      "d": 1100,
      "v": 58
    },
    {
      "midi": 72,
      "hit": false,
      "t": 307216.66666666657,
      "d": 316.66666666668607,
      "v": 83
    },
    {
      "midi": 60,
      "hit": false,
      "t": 307216.66666666657,
      "d": 466.66666666668607,
      "v": 68
    },
    {
      "midi": 64,
      "hit": false,
      "t": 307649.99999999994,
      "d": 216.66666666662786,
      "v": 63
    },
    {
      "midi": 60,
      "hit": false,
      "t": 308099.9999999999,
      "d": 66.66666666662786,
      "v": 68
    },
    {
      "midi": 55,
      "hit": false,
      "t": 308099.9999999999,
      "d": 149.9999999999418,
      "v": 89
    },
    {
      "midi": 67,
      "hit": false,
      "t": 308099.9999999999,
      "d": 266.66666666662786,
      "v": 105
    },
    {
      "midi": 72,
      "hit": false,
      "t": 308099.9999999999,
      "d": 566.6666666666861,
      "v": 92
    },
    {
      "midi": 64,
      "hit": false,
      "t": 308533.3333333332,
      "d": 66.66666666668607,
      "v": 12
    },
    {
      "midi": 65,
      "hit": false,
      "t": 308749.9999999999,
      "d": 150,
      "v": 35
    },
    {
      "midi": 62,
      "hit": false,
      "t": 308966.66666666657,
      "d": 233.33333333331393,
      "v": 89
    },
    {
      "midi": 65,
      "hit": false,
      "t": 308966.66666666657,
      "d": 333.33333333331393,
      "v": 105
    },
    {
      "midi": 70,
      "hit": false,
      "t": 308966.66666666657,
      "d": 366.66666666662786,
      "v": 109
    },
    {
      "midi": 46,
      "hit": false,
      "t": 308966.66666666657,
      "d": 983.3333333332557,
      "v": 116
    },
    {
      "midi": 53,
      "hit": false,
      "t": 309416.6666666665,
      "d": 516.6666666666279,
      "v": 74
    },
    {
      "midi": 58,
      "hit": false,
      "t": 309849.9999999998,
      "d": 233.33333333331393,
      "v": 93
    },
    {
      "midi": 70,
      "hit": false,
      "t": 309849.9999999998,
      "d": 400,
      "v": 74
    },
    {
      "midi": 74,
      "hit": false,
      "t": 309849.9999999998,
      "d": 400,
      "v": 89
    },
    {
      "midi": 65,
      "hit": false,
      "t": 310333.33333333314,
      "d": 266.66666666668607,
      "v": 83
    },
    {
      "midi": 62,
      "hit": false,
      "t": 310883.33333333314,
      "d": 166.66666666668607,
      "v": 80
    },
    {
      "midi": 58,
      "hit": false,
      "t": 310883.33333333314,
      "d": 183.33333333337214,
      "v": 101
    },
    {
      "midi": 74,
      "hit": false,
      "t": 310883.33333333314,
      "d": 700,
      "v": 105
    },
    {
      "midi": 65,
      "hit": false,
      "t": 311449.9999999998,
      "d": 216.66666666662786,
      "v": 80
    },
    {
      "midi": 67,
      "hit": false,
      "t": 320783.33333333314,
      "d": 383.33333333331393,
      "v": 70
    },
    {
      "midi": 64,
      "hit": false,
      "t": 320783.33333333314,
      "d": 433.33333333331393,
      "v": 70
    },
    {
      "midi": 60,
      "hit": false,
      "t": 321216.66666666645,
      "d": 133.33333333331393,
      "v": 52
    },
    {
      "midi": 60,
      "hit": false,
      "t": 321666.66666666645,
      "d": 383.33333333331393,
      "v": 66
    },
    {
      "midi": 64,
      "hit": false,
      "t": 321666.66666666645,
      "d": 550,
      "v": 86
    },
    {
      "midi": 60,
      "hit": false,
      "t": 322316.66666666645,
      "d": 233.33333333331393,
      "v": 38
    },
    {
      "midi": 64,
      "hit": false,
      "t": 322549.99999999977,
      "d": 500,
      "v": 78
    },
    {
      "midi": 69,
      "hit": false,
      "t": 322549.99999999977,
      "d": 966.6666666666861,
      "v": 86
    },
    {
      "midi": 45,
      "hit": false,
      "t": 322549.99999999977,
      "d": 2100,
      "v": 83
    },
    {
      "midi": 60,
      "hit": false,
      "t": 322983.3333333331,
      "d": 333.33333333337214,
      "v": 52
    },
    {
      "midi": 52,
      "hit": false,
      "t": 323416.66666666645,
      "d": 1166.6666666666279,
      "v": 76
    },
    {
      "midi": 60,
      "hit": false,
      "t": 323866.66666666645,
      "d": 200,
      "v": 54
    },
    {
      "midi": 57,
      "hit": false,
      "t": 324299.99999999977,
      "d": 233.33333333331393,
      "v": 80
    },
    {
      "midi": 69,
      "hit": false,
      "t": 324299.99999999977,
      "d": 516.6666666666861,
      "v": 105
    },
    {
      "midi": 60,
      "hit": false,
      "t": 324749.99999999977,
      "d": 366.66666666668607,
      "v": 76
    },
    {
      "midi": 62,
      "hit": false,
      "t": 325183.33333333314,
      "d": 333.33333333337214,
      "v": 89
    },
    {
      "midi": 67,
      "hit": false,
      "t": 325183.33333333314,
      "d": 333.33333333337214,
      "v": 96
    },
    {
      "midi": 43,
      "hit": false,
      "t": 325183.33333333314,
      "d": 650.0000000000582,
      "v": 86
    },
    {
      "midi": 50,
      "hit": false,
      "t": 325616.6666666665,
      "d": 433.33333333337214,
      "v": 61
    },
    {
      "midi": 71,
      "hit": false,
      "t": 326066.66666666657,
      "d": 433.33333333331393,
      "v": 89
    },
    {
      "midi": 55,
      "hit": false,
      "t": 326066.66666666657,
      "d": 1649.9999999999418,
      "v": 83
    },
    {
      "midi": 62,
      "hit": false,
      "t": 326499.9999999999,
      "d": 166.66666666668607,
      "v": 70
    },
    {
      "midi": 62,
      "hit": false,
      "t": 326949.9999999999,
      "d": 300,
      "v": 80
    },
    {
      "midi": 71,
      "hit": false,
      "t": 326949.9999999999,
      "d": 583.3333333333139,
      "v": 96
    },
    {
      "midi": 67,
      "hit": false,
      "t": 327383.3333333332,
      "d": 833.3333333333139,
      "v": 80
    },
    {
      "midi": 64,
      "hit": false,
      "t": 327816.6666666665,
      "d": 316.66666666668607,
      "v": 89
    },
    {
      "midi": 48,
      "hit": false,
      "t": 327816.6666666665,
      "d": 1649.9999999999418,
      "v": 86
    },
    {
      "midi": 55,
      "hit": false,
      "t": 328266.6666666665,
      "d": 1000,
      "v": 54
    },
    {
      "midi": 60,
      "hit": false,
      "t": 328699.9999999998,
      "d": 500,
      "v": 62
    },
    {
      "midi": 72,
      "hit": false,
      "t": 328699.9999999998,
      "d": 683.3333333333139,
      "v": 72
    },
    {
      "midi": 64,
      "hit": false,
      "t": 329149.9999999998,
      "d": 150,
      "v": 70
    },
    {
      "midi": 65,
      "hit": false,
      "t": 329583.33333333314,
      "d": 650,
      "v": 76
    },
    {
      "midi": 53,
      "hit": false,
      "t": 329583.33333333314,
      "d": 750,
      "v": 74
    },
    {
      "midi": 72,
      "hit": false,
      "t": 329583.33333333314,
      "d": 750,
      "v": 83
    },
    {
      "midi": 64,
      "hit": false,
      "t": 330466.66666666645,
      "d": 400,
      "v": 78
    },
    {
      "midi": 67,
      "hit": false,
      "t": 330466.66666666645,
      "d": 433.33333333331393,
      "v": 86
    },
    {
      "midi": 48,
      "hit": false,
      "t": 330466.66666666645,
      "d": 616.6666666666279,
      "v": 72
    },
    {
      "midi": 55,
      "hit": false,
      "t": 330899.99999999977,
      "d": 516.6666666666861,
      "v": 76
    },
    {
      "midi": 60,
      "hit": false,
      "t": 331349.99999999977,
      "d": 300,
      "v": 80
    },
    {
      "midi": 67,
      "hit": false,
      "t": 331783.3333333331,
      "d": 133.33333333331393,
      "v": 78
    },
    {
      "midi": 64,
      "hit": false,
      "t": 332233.3333333331,
      "d": 183.33333333331393,
      "v": 76
    },
    {
      "midi": 60,
      "hit": false,
      "t": 332233.3333333331,
      "d": 233.33333333331393,
      "v": 78
    },
    {
      "midi": 67,
      "hit": false,
      "t": 332233.3333333331,
      "d": 333.33333333331393,
      "v": 96
    },
    {
      "midi": 76,
      "hit": false,
      "t": 332233.3333333331,
      "d": 800,
      "v": 100
    },
    {
      "midi": 72,
      "hit": false,
      "t": 332666.6666666664,
      "d": 366.66666666668607,
      "v": 74
    },
    {
      "midi": 72,
      "hit": false,
      "t": 333099.99999999977,
      "d": 450,
      "v": 68
    },
    {
      "midi": 69,
      "hit": false,
      "t": 333099.99999999977,
      "d": 466.66666666668607,
      "v": 86
    },
    {
      "midi": 57,
      "hit": false,
      "t": 333549.99999999977,
      "d": 2050.000000000058,
      "v": 66
    },
    {
      "midi": 69,
      "hit": false,
      "t": 333983.33333333314,
      "d": 433.33333333331393,
      "v": 68
    },
    {
      "midi": 64,
      "hit": false,
      "t": 333983.33333333314,
      "d": 466.66666666668607,
      "v": 58
    },
    {
      "midi": 60,
      "hit": false,
      "t": 334433.33333333314,
      "d": 216.66666666668607,
      "v": 49
    },
    {
      "midi": 60,
      "hit": false,
      "t": 334866.6666666665,
      "d": 533.3333333333139,
      "v": 49
    },
    {
      "midi": 69,
      "hit": false,
      "t": 334866.6666666665,
      "d": 683.3333333333139,
      "v": 57
    },
    {
      "midi": 64,
      "hit": false,
      "t": 335299.9999999998,
      "d": 366.66666666668607,
      "v": 50
    },
    {
      "midi": 65,
      "hit": false,
      "t": 335749.9999999998,
      "d": 416.66666666668607,
      "v": 56
    },
    {
      "midi": 69,
      "hit": false,
      "t": 335749.9999999998,
      "d": 533.3333333333721,
      "v": 54
    },
    {
      "midi": 62,
      "hit": false,
      "t": 336183.3333333332,
      "d": 283.33333333331393,
      "v": 40
    },
    {
      "midi": 65,
      "hit": false,
      "t": 336633.3333333332,
      "d": 366.66666666668607,
      "v": 40
    },
    {
      "midi": 55,
      "hit": false,
      "t": 336633.3333333332,
      "d": 550.0000000000582,
      "v": 42
    },
    {
      "midi": 62,
      "hit": false,
      "t": 337066.66666666657,
      "d": 200,
      "v": 34
    },
    {
      "midi": 62,
      "hit": false,
      "t": 337499.9999999999,
      "d": 350,
      "v": 42
    },
    {
      "midi": 55,
      "hit": false,
      "t": 337499.9999999999,
      "d": 816.6666666666861,
      "v": 48
    },
    {
      "midi": 65,
      "hit": false,
      "t": 337499.9999999999,
      "d": 833.3333333333721,
      "v": 48
    },
    {
      "midi": 62,
      "hit": false,
      "t": 337949.9999999999,
      "d": 316.66666666668607,
      "v": 31
    },
    {
      "midi": 64,
      "hit": false,
      "t": 338383.33333333326,
      "d": 383.33333333337214,
      "v": 39
    },
    {
      "midi": 67,
      "hit": false,
      "t": 338383.33333333326,
      "d": 416.66666666668607,
      "v": 38
    },
    {
      "midi": 48,
      "hit": false,
      "t": 338383.33333333326,
      "d": 1666.666666666686,
      "v": 34
    },
    {
      "midi": 55,
      "hit": false,
      "t": 338833.33333333326,
      "d": 1183.3333333333721,
      "v": 30
    },
    {
      "midi": 60,
      "hit": false,
      "t": 339266.66666666657,
      "d": 616.6666666666861,
      "v": 28
    },
    {
      "midi": 64,
      "hit": false,
      "t": 339716.66666666657,
      "d": 183.33333333337214,
      "v": 20
    },
    {
      "midi": 65,
      "hit": false,
      "t": 340149.99999999994,
      "d": 583.3333333333139,
      "v": 25
    },
    {
      "midi": 53,
      "hit": false,
      "t": 340149.99999999994,
      "d": 633.3333333333139,
      "v": 21
    },
    {
      "midi": 72,
      "hit": false,
      "t": 340149.99999999994,
      "d": 699.9999999999418,
      "v": 24
    },
    {
      "midi": 67,
      "hit": false,
      "t": 341033.3333333332,
      "d": 466.66666666662786,
      "v": 19
    },
    {
      "midi": 64,
      "hit": false,
      "t": 341033.3333333332,
      "d": 533.3333333333139,
      "v": 15
    },
    {
      "midi": 48,
      "hit": false,
      "t": 341033.3333333332,
      "d": 2850,
      "v": 19
    },
    {
      "midi": 55,
      "hit": false,
      "t": 341466.6666666665,
      "d": 2366.666666666686,
      "v": 11
    },
    {
      "midi": 60,
      "hit": false,
      "t": 341916.6666666665,
      "d": 1916.666666666686,
      "v": 12
    },
    {
      "midi": 64,
      "hit": false,
      "t": 342349.9999999998,
      "d": 116.66666666668607,
      "v": 9
    },
    {
      "midi": 64,
      "hit": false,
      "t": 342783.3333333332,
      "d": 1050,
      "v": 7
    },
    {
      "midi": 72,
      "hit": false,
      "t": 342783.3333333332,
      "d": 1066.666666666686,
      "v": 7
    }
  ]
}