{
  "jsonPath": "Rock/Pop Rock/Natalie Imbruglia/hurricane.json",
  "path": "Rock\\Pop Rock\\Natalie Imbruglia\\Hurricane.mid",
  "name": "Hurricane",
  "difficulty": "Advanced",
  "bpm": 67.98997827720194,
  "notes": [
    {
      "midi": 72,
      "hit": false,
      "t": 3529.932,
      "d": 845.7128750000002,
      "v": 127
    },
    {
      "midi": 67,
      "hit": false,
      "t": 3529.932,
      "d": 854.9054062499999,
      "v": 127
    },
    {
      "midi": 76,
      "hit": false,
      "t": 3529.932,
      "d": 854.9054062499999,
      "v": 127
    },
    {
      "midi": 64,
      "hit": false,
      "t": 3529.932,
      "d": 1075.52615625,
      "v": 127
    },
    {
      "midi": 60,
      "hit": false,
      "t": 3529.932,
      "d": 1516.76765625,
      "v": 127
    },
    {
      "midi": 55,
      "hit": false,
      "t": 3529.932,
      "d": 3346.0813749999998,
      "v": 127
    },
    {
      "midi": 72,
      "hit": false,
      "t": 4412.415,
      "d": 735.4025000000001,
      "v": 127
    },
    {
      "midi": 76,
      "hit": false,
      "t": 4412.415,
      "d": 744.5950312499999,
      "v": 127
    },
    {
      "midi": 67,
      "hit": false,
      "t": 4412.415,
      "d": 790.5576874999997,
      "v": 127
    },
    {
      "midi": 64,
      "hit": false,
      "t": 4853.6565,
      "d": 634.284656249999,
      "v": 127
    },
    {
      "midi": 74,
      "hit": false,
      "t": 5294.897999999999,
      "d": 698.6323750000001,
      "v": 127
    },
    {
      "midi": 71,
      "hit": false,
      "t": 5294.897999999999,
      "d": 707.8249062499999,
      "v": 127
    },
    {
      "midi": 59,
      "hit": false,
      "t": 5294.897999999999,
      "d": 744.5950312499999,
      "v": 127
    },
    {
      "midi": 67,
      "hit": false,
      "t": 5294.897999999999,
      "d": 744.5950312499999,
      "v": 127
    },
    {
      "midi": 76,
      "hit": false,
      "t": 6177.380999999999,
      "d": 726.2099687499995,
      "v": 127
    },
    {
      "midi": 60,
      "hit": false,
      "t": 6177.380999999999,
      "d": 735.4024999999992,
      "v": 127
    },
    {
      "midi": 72,
      "hit": false,
      "t": 6177.380999999999,
      "d": 744.595031249999,
      "v": 127
    },
    {
      "midi": 67,
      "hit": false,
      "t": 6177.380999999999,
      "d": 781.365156249999,
      "v": 127
    },
    {
      "midi": 64,
      "hit": false,
      "t": 6618.6224999999995,
      "d": 275.7759374999996,
      "v": 127
    },
    {
      "midi": 65,
      "hit": false,
      "t": 7059.863999999999,
      "d": 1240.9917187500005,
      "v": 127
    },
    {
      "midi": 69,
      "hit": false,
      "t": 7059.863999999999,
      "d": 1250.1842500000012,
      "v": 127
    },
    {
      "midi": 72,
      "hit": false,
      "t": 7059.863999999999,
      "d": 1268.5693125000007,
      "v": 127
    },
    {
      "midi": 53,
      "hit": false,
      "t": 7059.863999999999,
      "d": 2757.7593750000005,
      "v": 127
    },
    {
      "midi": 57,
      "hit": false,
      "t": 7942.346999999999,
      "d": 1912.0464999999995,
      "v": 127
    },
    {
      "midi": 60,
      "hit": false,
      "t": 8162.967749999999,
      "d": 1240.9917187500005,
      "v": 127
    },
    {
      "midi": 65,
      "hit": false,
      "t": 8383.5885,
      "d": 560.7444062499999,
      "v": 127
    },
    {
      "midi": 72,
      "hit": false,
      "t": 8383.5885,
      "d": 560.7444062499999,
      "v": 127
    },
    {
      "midi": 69,
      "hit": false,
      "t": 8383.5885,
      "d": 569.9369375000006,
      "v": 127
    },
    {
      "midi": 72,
      "hit": false,
      "t": 9045.45075,
      "d": 772.1726249999992,
      "v": 127
    },
    {
      "midi": 69,
      "hit": false,
      "t": 9266.0715,
      "d": 569.9369374999987,
      "v": 127
    },
    {
      "midi": 65,
      "hit": false,
      "t": 9486.69225,
      "d": 367.70124999999825,
      "v": 127
    },
    {
      "midi": 60,
      "hit": false,
      "t": 9707.313,
      "d": 211.42821874999754,
      "v": 127
    },
    {
      "midi": 54,
      "hit": false,
      "t": 9927.933749999998,
      "d": 9.192531250000684,
      "v": 127
    },
    {
      "midi": 74,
      "hit": false,
      "t": 9927.933749999998,
      "d": 560.7444062499999,
      "v": 127
    },
    {
      "midi": 67,
      "hit": false,
      "t": 9927.933749999998,
      "d": 1489.1900624999998,
      "v": 127
    },
    {
      "midi": 55,
      "hit": false,
      "t": 9927.933749999998,
      "d": 4053.9062812500015,
      "v": 127
    },
    {
      "midi": 76,
      "hit": false,
      "t": 10589.795999999998,
      "d": 762.9800937500004,
      "v": 127
    },
    {
      "midi": 72,
      "hit": false,
      "t": 10589.795999999998,
      "d": 781.3651562499999,
      "v": 127
    },
    {
      "midi": 60,
      "hit": false,
      "t": 10589.795999999998,
      "d": 1535.1527187499996,
      "v": 127
    },
    {
      "midi": 76,
      "hit": false,
      "t": 11472.278999999999,
      "d": 753.7875624999997,
      "v": 127
    },
    {
      "midi": 72,
      "hit": false,
      "t": 11472.278999999999,
      "d": 762.9800937500004,
      "v": 127
    },
    {
      "midi": 67,
      "hit": false,
      "t": 11472.278999999999,
      "d": 827.3278124999997,
      "v": 127
    },
    {
      "midi": 64,
      "hit": false,
      "t": 11913.520499999999,
      "d": 680.2473124999997,
      "v": 127
    },
    {
      "midi": 74,
      "hit": false,
      "t": 12354.761999999999,
      "d": 762.9800937500004,
      "v": 127
    },
    {
      "midi": 59,
      "hit": false,
      "t": 12354.761999999999,
      "d": 781.3651562499999,
      "v": 127
    },
    {
      "midi": 71,
      "hit": false,
      "t": 12354.761999999999,
      "d": 781.3651562499999,
      "v": 127
    },
    {
      "midi": 67,
      "hit": false,
      "t": 12354.761999999999,
      "d": 799.7502187499995,
      "v": 127
    },
    {
      "midi": 76,
      "hit": false,
      "t": 13237.244999999999,
      "d": 689.4398437500004,
      "v": 127
    },
    {
      "midi": 60,
      "hit": false,
      "t": 13237.244999999999,
      "d": 707.8249062499999,
      "v": 127
    },
    {
      "midi": 72,
      "hit": false,
      "t": 13237.244999999999,
      "d": 707.8249062499999,
      "v": 127
    },
    {
      "midi": 67,
      "hit": false,
      "t": 13237.244999999999,
      "d": 735.4025000000001,
      "v": 127
    },
    {
      "midi": 64,
      "hit": false,
      "t": 13678.486499999999,
      "d": 284.9684687499994,
      "v": 127
    },
    {
      "midi": 73,
      "hit": false,
      "t": 14119.728,
      "d": 9.192531250000684,
      "v": 127
    },
    {
      "midi": 72,
      "hit": false,
      "t": 14119.728,
      "d": 1250.1842500000002,
      "v": 127
    },
    {
      "midi": 65,
      "hit": false,
      "t": 14119.728,
      "d": 1259.376781250001,
      "v": 127
    },
    {
      "midi": 69,
      "hit": false,
      "t": 14119.728,
      "d": 1268.5693125000016,
      "v": 127
    },
    {
      "midi": 53,
      "hit": false,
      "t": 14119.728,
      "d": 2776.144437499999,
      "v": 127
    },
    {
      "midi": 57,
      "hit": false,
      "t": 15002.211,
      "d": 1948.8166249999995,
      "v": 127
    },
    {
      "midi": 60,
      "hit": false,
      "t": 15222.83175,
      "d": 542.3593437500022,
      "v": 127
    },
    {
      "midi": 69,
      "hit": false,
      "t": 15443.452500000001,
      "d": 569.9369375000006,
      "v": 127
    },
    {
      "midi": 65,
      "hit": false,
      "t": 15443.452500000001,
      "d": 579.1294687500013,
      "v": 127
    },
    {
      "midi": 72,
      "hit": false,
      "t": 15443.452500000001,
      "d": 579.1294687500013,
      "v": 127
    },
    {
      "midi": 60,
      "hit": false,
      "t": 15884.694000000001,
      "d": 661.8622500000001,
      "v": 127
    },
    {
      "midi": 72,
      "hit": false,
      "t": 16105.314750000003,
      "d": 790.5576874999952,
      "v": 127
    },
    {
      "midi": 69,
      "hit": false,
      "t": 16325.935500000003,
      "d": 569.9369374999951,
      "v": 127
    },
    {
      "midi": 65,
      "hit": false,
      "t": 16546.55625,
      "d": 367.70124999999825,
      "v": 127
    },
    {
      "midi": 60,
      "hit": false,
      "t": 16767.177,
      "d": 211.42821874999936,
      "v": 127
    },
    {
      "midi": 56,
      "hit": false,
      "t": 16987.797749999998,
      "d": 9.192531249998865,
      "v": 127
    },
    {
      "midi": 67,
      "hit": false,
      "t": 16987.797749999998,
      "d": 569.9369374999987,
      "v": 127
    },
    {
      "midi": 71,
      "hit": false,
      "t": 16987.797749999998,
      "d": 579.1294687499976,
      "v": 127
    },
    {
      "midi": 74,
      "hit": false,
      "t": 16987.797749999998,
      "d": 588.3219999999965,
      "v": 127
    },
    {
      "midi": 55,
      "hit": false,
      "t": 16987.797749999998,
      "d": 6921.976031249986,
      "v": 127
    },
    {
      "midi": 76,
      "hit": false,
      "t": 17649.659999999993,
      "d": 772.1726249999992,
      "v": 127
    },
    {
      "midi": 67,
      "hit": false,
      "t": 17649.659999999993,
      "d": 790.5576875000006,
      "v": 127
    },
    {
      "midi": 72,
      "hit": false,
      "t": 17649.659999999993,
      "d": 790.5576875000006,
      "v": 127
    },
    {
      "midi": 60,
      "hit": false,
      "t": 17649.659999999993,
      "d": 2822.1070937499935,
      "v": 127
    },
    {
      "midi": 67,
      "hit": false,
      "t": 18532.142999999993,
      "d": 836.5203437499986,
      "v": 127
    },
    {
      "midi": 72,
      "hit": false,
      "t": 18532.142999999993,
      "d": 836.5203437499986,
      "v": 127
    },
    {
      "midi": 76,
      "hit": false,
      "t": 18532.142999999993,
      "d": 845.7128749999974,
      "v": 127
    },
    {
      "midi": 64,
      "hit": false,
      "t": 18973.384499999993,
      "d": 753.7875624999979,
      "v": 127
    },
    {
      "midi": 67,
      "hit": false,
      "t": 19414.62599999999,
      "d": 772.1726249999992,
      "v": 127
    },
    {
      "midi": 72,
      "hit": false,
      "t": 19414.62599999999,
      "d": 772.1726249999992,
      "v": 127
    },
    {
      "midi": 76,
      "hit": false,
      "t": 19414.62599999999,
      "d": 781.3651562499981,
      "v": 127
    },
    {
      "midi": 64,
      "hit": false,
      "t": 19855.86749999999,
      "d": 1590.3079062499964,
      "v": 127
    },
    {
      "midi": 67,
      "hit": false,
      "t": 20297.108999999986,
      "d": 762.9800937500004,
      "v": 127
    },
    {
      "midi": 72,
      "hit": false,
      "t": 20297.108999999986,
      "d": 772.1726249999992,
      "v": 127
    },
    {
      "midi": 76,
      "hit": false,
      "t": 20297.108999999986,
      "d": 772.1726249999992,
      "v": 127
    },
    {
      "midi": 60,
      "hit": false,
      "t": 20738.350499999986,
      "d": 1562.7303124999962,
      "v": 127
    },
    {
      "midi": 67,
      "hit": false,
      "t": 21179.591999999986,
      "d": 772.1726249999992,
      "v": 127
    },
    {
      "midi": 76,
      "hit": false,
      "t": 21179.591999999986,
      "d": 781.3651562499981,
      "v": 127
    },
    {
      "midi": 72,
      "hit": false,
      "t": 21179.591999999986,
      "d": 790.557687499997,
      "v": 127
    },
    {
      "midi": 64,
      "hit": false,
      "t": 21620.833499999986,
      "d": 1608.6929687499978,
      "v": 127
    },
    {
      "midi": 67,
      "hit": false,
      "t": 22062.074999999983,
      "d": 799.7502187499995,
      "v": 127
    },
    {
      "midi": 72,
      "hit": false,
      "t": 22062.074999999983,
      "d": 799.7502187499995,
      "v": 127
    },
    {
      "midi": 76,
      "hit": false,
      "t": 22062.074999999983,
      "d": 818.1352812500008,
      "v": 127
    },
    {
      "midi": 60,
      "hit": false,
      "t": 22503.316499999983,
      "d": 2417.635718749996,
      "v": 127
    },
    {
      "midi": 67,
      "hit": false,
      "t": 22944.557999999983,
      "d": 753.7875625000015,
      "v": 127
    },
    {
      "midi": 72,
      "hit": false,
      "t": 22944.557999999983,
      "d": 762.9800937500004,
      "v": 127
    },
    {
      "midi": 76,
      "hit": false,
      "t": 22944.557999999983,
      "d": 762.9800937500004,
      "v": 127
    },
    {
      "midi": 64,
      "hit": false,
      "t": 23385.799499999983,
      "d": 2491.1759687499944,
      "v": 127
    },
    {
      "midi": 67,
      "hit": false,
      "t": 23827.040999999983,
      "d": 707.8249062499999,
      "v": 127
    },
    {
      "midi": 72,
      "hit": false,
      "t": 23827.040999999983,
      "d": 717.0174374999988,
      "v": 127
    },
    {
      "midi": 76,
      "hit": false,
      "t": 23827.040999999983,
      "d": 726.2099687499976,
      "v": 127
    },
    {
      "midi": 56,
      "hit": false,
      "t": 24268.282499999983,
      "d": 9.192531249998865,
      "v": 127
    },
    {
      "midi": 55,
      "hit": false,
      "t": 24268.282499999983,
      "d": 7381.602593749969,
      "v": 127
    },
    {
      "midi": 67,
      "hit": false,
      "t": 24709.52399999998,
      "d": 772.1726249999992,
      "v": 127
    },
    {
      "midi": 72,
      "hit": false,
      "t": 24709.52399999998,
      "d": 808.9427499999983,
      "v": 127
    },
    {
      "midi": 76,
      "hit": false,
      "t": 24709.52399999998,
      "d": 808.9427499999983,
      "v": 127
    },
    {
      "midi": 60,
      "hit": false,
      "t": 25150.76549999998,
      "d": 2950.802531249992,
      "v": 127
    },
    {
      "midi": 96,
      "hit": false,
      "t": 25398.96384375,
      "d": 73.5402499999982,
      "v": 83
    },
    {
      "midi": 67,
      "hit": false,
      "t": 25592.006999999976,
      "d": 827.3278124999997,
      "v": 127
    },
    {
      "midi": 72,
      "hit": false,
      "t": 25592.006999999976,
      "d": 827.3278124999997,
      "v": 127
    },
    {
      "midi": 76,
      "hit": false,
      "t": 25592.006999999976,
      "d": 845.7128750000011,
      "v": 127
    },
    {
      "midi": 96,
      "hit": false,
      "t": 25610.3920625,
      "d": 82.7327812500007,
      "v": 81
    },
    {
      "midi": 96,
      "hit": false,
      "t": 25831.0128125,
      "d": 82.7327812500007,
      "v": 105
    },
    {
      "midi": 64,
      "hit": false,
      "t": 26033.248499999976,
      "d": 799.7502187499995,
      "v": 127
    },
    {
      "midi": 96,
      "hit": false,
      "t": 26060.82609375,
      "d": 73.5402499999982,
      "v": 84
    },
    {
      "midi": 96,
      "hit": false,
      "t": 26290.639375,
      "d": 202.2356875000005,
      "v": 105
    },
    {
      "midi": 67,
      "hit": false,
      "t": 26474.489999999976,
      "d": 808.9427499999983,
      "v": 127
    },
    {
      "midi": 72,
      "hit": false,
      "t": 26474.489999999976,
      "d": 808.9427499999983,
      "v": 127
    },
    {
      "midi": 76,
      "hit": false,
      "t": 26474.489999999976,
      "d": 808.9427499999983,
      "v": 127
    },
    {
      "midi": 96,
      "hit": false,
      "t": 26722.68834375,
      "d": 174.65809375000026,
      "v": 102
    },
    {
      "midi": 64,
      "hit": false,
      "t": 26915.731499999976,
      "d": 762.9800937499967,
      "v": 127
    },
    {
      "midi": 72,
      "hit": false,
      "t": 27356.972999999973,
      "d": 717.0174374999988,
      "v": 127
    },
    {
      "midi": 76,
      "hit": false,
      "t": 27356.972999999973,
      "d": 753.7875624999979,
      "v": 127
    },
    {
      "midi": 67,
      "hit": false,
      "t": 27356.972999999973,
      "d": 808.9427499999983,
      "v": 127
    },
    {
      "midi": 64,
      "hit": false,
      "t": 27798.214499999973,
      "d": 569.9369374999951,
      "v": 127
    },
    {
      "midi": 96,
      "hit": false,
      "t": 28092.375500000002,
      "d": 82.7327812500007,
      "v": 92
    },
    {
      "midi": 59,
      "hit": false,
      "t": 28239.45599999997,
      "d": 9.192531249998865,
      "v": 127
    },
    {
      "midi": 67,
      "hit": false,
      "t": 28239.45599999997,
      "d": 726.2099687500013,
      "v": 127
    },
    {
      "midi": 74,
      "hit": false,
      "t": 28239.45599999997,
      "d": 726.2099687500013,
      "v": 127
    },
    {
      "midi": 71,
      "hit": false,
      "t": 28239.45599999997,
      "d": 735.4025000000001,
      "v": 127
    },
    {
      "midi": 96,
      "hit": false,
      "t": 28294.611187500002,
      "d": 294.16100000000006,
      "v": 127
    },
    {
      "midi": 60,
      "hit": false,
      "t": 28460.076749999967,
      "d": 110.31037500000093,
      "v": 127
    },
    {
      "midi": 59,
      "hit": false,
      "t": 28680.69749999997,
      "d": 1130.6813437499986,
      "v": 127
    },
    {
      "midi": 96,
      "hit": false,
      "t": 28745.04521875,
      "d": 275.7759374999987,
      "v": 105
    },
    {
      "midi": 74,
      "hit": false,
      "t": 29121.93899999997,
      "d": 762.9800937499967,
      "v": 127
    },
    {
      "midi": 67,
      "hit": false,
      "t": 29121.93899999997,
      "d": 772.1726249999956,
      "v": 127
    },
    {
      "midi": 71,
      "hit": false,
      "t": 29121.93899999997,
      "d": 781.3651562499945,
      "v": 127
    },
    {
      "midi": 96,
      "hit": false,
      "t": 29223.05684375,
      "d": 248.19834374999846,
      "v": 112
    },
    {
      "midi": 62,
      "hit": false,
      "t": 29563.18049999997,
      "d": 1691.4257499999876,
      "v": 127
    },
    {
      "midi": 96,
      "hit": false,
      "t": 29682.68340625,
      "d": 91.92531249999956,
      "v": 105
    },
    {
      "midi": 96,
      "hit": false,
      "t": 29949.2668125,
      "d": 156.2730312499989,
      "v": 127
    },
    {
      "midi": 67,
      "hit": false,
      "t": 30004.421999999962,
      "d": 772.1726249999992,
      "v": 127
    },
    {
      "midi": 74,
      "hit": false,
      "t": 30004.421999999962,
      "d": 781.3651562499981,
      "v": 127
    },
    {
      "midi": 71,
      "hit": false,
      "t": 30004.421999999962,
      "d": 790.557687499997,
      "v": 127
    },
    {
      "midi": 59,
      "hit": false,
      "t": 30445.663499999962,
      "d": 1204.2215937499896,
      "v": 127
    },
    {
      "midi": 74,
      "hit": false,
      "t": 30886.90499999996,
      "d": 1654.6556249999921,
      "v": 127
    },
    {
      "midi": 71,
      "hit": false,
      "t": 31107.525749999957,
      "d": 551.5518749999937,
      "v": 127
    },
    {
      "midi": 67,
      "hit": false,
      "t": 31328.146499999955,
      "d": 321.73859374999665,
      "v": 127
    },
    {
      "midi": 62,
      "hit": false,
      "t": 31548.767249999953,
      "d": 689.4398437499949,
      "v": 127
    },
    {
      "midi": 69,
      "hit": false,
      "t": 31769.38799999995,
      "d": 781.3651562499981,
      "v": 127
    },
    {
      "midi": 53,
      "hit": false,
      "t": 31769.38799999995,
      "d": 3419.621624999996,
      "v": 127
    },
    {
      "midi": 57,
      "hit": false,
      "t": 31990.00874999995,
      "d": 1985.5867500000022,
      "v": 127
    },
    {
      "midi": 62,
      "hit": false,
      "t": 32431.25024999995,
      "d": 643.477187499997,
      "v": 127
    },
    {
      "midi": 96,
      "hit": false,
      "t": 32559.945687499996,
      "d": 110.31037500000093,
      "v": 94
    },
    {
      "midi": 65,
      "hit": false,
      "t": 32651.87099999995,
      "d": 101.11784374999843,
      "v": 127
    },
    {
      "midi": 69,
      "hit": false,
      "t": 32651.87099999995,
      "d": 799.7502187499995,
      "v": 127
    },
    {
      "midi": 74,
      "hit": false,
      "t": 32651.87099999995,
      "d": 845.7128749999974,
      "v": 127
    },
    {
      "midi": 96,
      "hit": false,
      "t": 32817.33656249999,
      "d": 229.8132812499971,
      "v": 127
    },
    {
      "midi": 96,
      "hit": false,
      "t": 33212.61540624999,
      "d": 119.50290625000343,
      "v": 105
    },
    {
      "midi": 62,
      "hit": false,
      "t": 33313.73324999995,
      "d": 1719.0033437500024,
      "v": 127
    },
    {
      "midi": 96,
      "hit": false,
      "t": 33442.428687499996,
      "d": 284.96846874999756,
      "v": 108
    },
    {
      "midi": 65,
      "hit": false,
      "t": 33534.35399999995,
      "d": 772.1726250000065,
      "v": 127
    },
    {
      "midi": 74,
      "hit": false,
      "t": 33534.35399999995,
      "d": 790.5576875000042,
      "v": 127
    },
    {
      "midi": 69,
      "hit": false,
      "t": 33754.97474999995,
      "d": 781.3651562500017,
      "v": 127
    },
    {
      "midi": 96,
      "hit": false,
      "t": 33874.47765624999,
      "d": 229.8132812499971,
      "v": 105
    },
    {
      "midi": 57,
      "hit": false,
      "t": 33975.59549999995,
      "d": 3005.957718750018,
      "v": 127
    },
    {
      "midi": 96,
      "hit": false,
      "t": 34343.29674999999,
      "d": 165.4655625000014,
      "v": 112
    },
    {
      "midi": 74,
      "hit": false,
      "t": 34637.45774999995,
      "d": 790.557687499997,
      "v": 127
    },
    {
      "midi": 65,
      "hit": false,
      "t": 34858.07849999995,
      "d": 358.50871874999575,
      "v": 127
    },
    {
      "midi": 69,
      "hit": false,
      "t": 34858.07849999995,
      "d": 523.9742812499971,
      "v": 127
    },
    {
      "midi": 62,
      "hit": false,
      "t": 35078.69924999995,
      "d": 432.0489687500012,
      "v": 127
    },
    {
      "midi": 65,
      "hit": false,
      "t": 35299.31999999995,
      "d": 174.65809374999662,
      "v": 127
    },
    {
      "midi": 53,
      "hit": false,
      "t": 35299.31999999995,
      "d": 1719.0033437500242,
      "v": 127
    },
    {
      "midi": 69,
      "hit": false,
      "t": 35519.94074999995,
      "d": 27.577593750000233,
      "v": 127
    },
    {
      "midi": 65,
      "hit": false,
      "t": 35740.56149999995,
      "d": 744.5950312500063,
      "v": 127
    },
    {
      "midi": 69,
      "hit": false,
      "t": 35740.56149999995,
      "d": 1195.0290625000125,
      "v": 127
    },
    {
      "midi": 72,
      "hit": false,
      "t": 35740.56149999995,
      "d": 1204.221593750015,
      "v": 127
    },
    {
      "midi": 60,
      "hit": false,
      "t": 35961.182249999954,
      "d": 9.192531250002503,
      "v": 127
    },
    {
      "midi": 60,
      "hit": false,
      "t": 36181.802999999956,
      "d": 523.9742812500044,
      "v": 127
    },
    {
      "midi": 96,
      "hit": false,
      "t": 36292.113374999986,
      "d": 110.31037500000093,
      "v": 97
    },
    {
      "midi": 96,
      "hit": false,
      "t": 36714.969812499985,
      "d": 110.31037500000093,
      "v": 94
    },
    {
      "midi": 60,
      "hit": false,
      "t": 36843.66524999996,
      "d": 193.0431562500089,
      "v": 127
    },
    {
      "midi": 65,
      "hit": false,
      "t": 36843.66524999996,
      "d": 284.9684687500121,
      "v": 127
    },
    {
      "midi": 96,
      "hit": false,
      "t": 36944.78309374999,
      "d": 284.96846874999756,
      "v": 94
    },
    {
      "midi": 74,
      "hit": false,
      "t": 37064.28599999997,
      "d": 1691.4257500000022,
      "v": 127
    },
    {
      "midi": 67,
      "hit": false,
      "t": 37064.28599999997,
      "d": 1746.5809375000026,
      "v": 127
    },
    {
      "midi": 55,
      "hit": false,
      "t": 37064.28599999997,
      "d": 8751.289749999982,
      "v": 127
    },
    {
      "midi": 96,
      "hit": false,
      "t": 37459.564843749984,
      "d": 202.23568749999686,
      "v": 108
    },
    {
      "midi": 59,
      "hit": false,
      "t": 37505.527499999975,
      "d": 1176.6440000000002,
      "v": 127
    },
    {
      "midi": 71,
      "hit": false,
      "t": 37726.14824999998,
      "d": 1029.5634999999966,
      "v": 127
    },
    {
      "midi": 96,
      "hit": false,
      "t": 37891.61381249998,
      "d": 174.65809374999662,
      "v": 124
    },
    {
      "midi": 62,
      "hit": false,
      "t": 37946.76899999998,
      "d": 790.557687499997,
      "v": 127
    },
    {
      "midi": 60,
      "hit": false,
      "t": 38829.25199999997,
      "d": 3309.3112499999843,
      "v": 127
    },
    {
      "midi": 67,
      "hit": false,
      "t": 39049.87274999997,
      "d": 790.557687499997,
      "v": 127
    },
    {
      "midi": 72,
      "hit": false,
      "t": 39049.87274999997,
      "d": 790.557687499997,
      "v": 127
    },
    {
      "midi": 76,
      "hit": false,
      "t": 39049.87274999997,
      "d": 799.7502187499995,
      "v": 127
    },
    {
      "midi": 64,
      "hit": false,
      "t": 39491.11424999997,
      "d": 615.8995937500003,
      "v": 127
    },
    {
      "midi": 96,
      "hit": false,
      "t": 39619.809687499976,
      "d": 82.7327812500007,
      "v": 86
    },
    {
      "midi": 96,
      "hit": false,
      "t": 39840.43043749998,
      "d": 119.50290625000343,
      "v": 99
    },
    {
      "midi": 96,
      "hit": false,
      "t": 40070.24371874998,
      "d": 110.31037500000093,
      "v": 84
    },
    {
      "midi": 64,
      "hit": false,
      "t": 40152.97649999997,
      "d": 753.7875624999942,
      "v": 127
    },
    {
      "midi": 96,
      "hit": false,
      "t": 40300.056999999986,
      "d": 101.11784374999843,
      "v": 90
    },
    {
      "midi": 96,
      "hit": false,
      "t": 40529.87028124998,
      "d": 101.11784374999843,
      "v": 115
    },
    {
      "midi": 67,
      "hit": false,
      "t": 40594.217999999964,
      "d": 110.31037500000093,
      "v": 127
    },
    {
      "midi": 72,
      "hit": false,
      "t": 40594.217999999964,
      "d": 110.31037500000093,
      "v": 127
    },
    {
      "midi": 76,
      "hit": false,
      "t": 40594.217999999964,
      "d": 128.69543749999866,
      "v": 127
    },
    {
      "midi": 64,
      "hit": false,
      "t": 41035.45949999996,
      "d": 625.0921249999956,
      "v": 127
    },
    {
      "midi": 72,
      "hit": false,
      "t": 41476.70099999996,
      "d": 781.3651562500017,
      "v": 127
    },
    {
      "midi": 76,
      "hit": false,
      "t": 41476.70099999996,
      "d": 790.5576875000042,
      "v": 127
    },
    {
      "midi": 67,
      "hit": false,
      "t": 41476.70099999996,
      "d": 799.7502187500068,
      "v": 127
    },
    {
      "midi": 96,
      "hit": false,
      "t": 41770.86199999998,
      "d": 101.11784374999843,
      "v": 112
    },
    {
      "midi": 64,
      "hit": false,
      "t": 41917.942499999954,
      "d": 358.5087187500103,
      "v": 127
    },
    {
      "midi": 96,
      "hit": false,
      "t": 41991.48274999998,
      "d": 91.9253125000032,
      "v": 108
    },
    {
      "midi": 96,
      "hit": false,
      "t": 42212.10349999998,
      "d": 284.96846874999756,
      "v": 124
    },
    {
      "midi": 67,
      "hit": false,
      "t": 42359.183999999965,
      "d": 818.1352812499972,
      "v": 127
    },
    {
      "midi": 74,
      "hit": false,
      "t": 42359.183999999965,
      "d": 818.1352812499972,
      "v": 127
    },
    {
      "midi": 71,
      "hit": false,
      "t": 42359.183999999965,
      "d": 836.5203437499949,
      "v": 127
    },
    {
      "midi": 59,
      "hit": false,
      "t": 42359.183999999965,
      "d": 3713.7826249999853,
      "v": 127
    },
    {
      "midi": 96,
      "hit": false,
      "t": 42634.95993749998,
      "d": 110.31037500000093,
      "v": 97
    },
    {
      "midi": 96,
      "hit": false,
      "t": 42873.96574999998,
      "d": 248.1983437500021,
      "v": 124
    },
    {
      "midi": 62,
      "hit": false,
      "t": 43021.04624999996,
      "d": 680.247312499996,
      "v": 127
    },
    {
      "midi": 96,
      "hit": false,
      "t": 43342.784843749985,
      "d": 202.23568749999686,
      "v": 124
    },
    {
      "midi": 67,
      "hit": false,
      "t": 43462.28774999996,
      "d": 781.3651562499945,
      "v": 127
    },
    {
      "midi": 71,
      "hit": false,
      "t": 43462.28774999996,
      "d": 781.3651562499945,
      "v": 127
    },
    {
      "midi": 74,
      "hit": false,
      "t": 43462.28774999996,
      "d": 781.3651562499945,
      "v": 127
    },
    {
      "midi": 96,
      "hit": false,
      "t": 43802.41140624998,
      "d": 82.7327812500007,
      "v": 115
    },
    {
      "midi": 62,
      "hit": false,
      "t": 43903.529249999956,
      "d": 671.0547812499935,
      "v": 127
    },
    {
      "midi": 96,
      "hit": false,
      "t": 44032.22468749998,
      "d": 147.0804999999964,
      "v": 119
    },
    {
      "midi": 67,
      "hit": false,
      "t": 44344.77074999995,
      "d": 772.1726249999992,
      "v": 127
    },
    {
      "midi": 74,
      "hit": false,
      "t": 44344.77074999995,
      "d": 781.3651562500017,
      "v": 127
    },
    {
      "midi": 71,
      "hit": false,
      "t": 44344.77074999995,
      "d": 799.7502187499995,
      "v": 127
    },
    {
      "midi": 62,
      "hit": false,
      "t": 44786.01224999995,
      "d": 772.1726250000065,
      "v": 127
    },
    {
      "midi": 74,
      "hit": false,
      "t": 45227.25374999995,
      "d": 1617.885500000004,
      "v": 127
    },
    {
      "midi": 71,
      "hit": false,
      "t": 45447.874499999954,
      "d": 569.9369374999951,
      "v": 127
    },
    {
      "midi": 67,
      "hit": false,
      "t": 45668.495249999956,
      "d": 349.31618749999325,
      "v": 127
    },
    {
      "midi": 62,
      "hit": false,
      "t": 45668.495249999956,
      "d": 1296.1469062500037,
      "v": 127
    },
    {
      "midi": 65,
      "hit": false,
      "t": 46109.73674999995,
      "d": 707.8249062500036,
      "v": 127
    },
    {
      "midi": 53,
      "hit": false,
      "t": 46109.73674999995,
      "d": 2298.1328125000073,
      "v": 127
    },
    {
      "midi": 69,
      "hit": false,
      "t": 46330.357499999955,
      "d": 312.54606250000506,
      "v": 127
    },
    {
      "midi": 57,
      "hit": false,
      "t": 46550.97824999996,
      "d": 818.1352812500045,
      "v": 127
    },
    {
      "midi": 96,
      "hit": false,
      "t": 46661.28862499997,
      "d": 64.34771875000297,
      "v": 108
    },
    {
      "midi": 69,
      "hit": false,
      "t": 46771.59899999996,
      "d": 1691.4257500000022,
      "v": 127
    },
    {
      "midi": 96,
      "hit": false,
      "t": 46881.909374999974,
      "d": 239.0058124999996,
      "v": 119
    },
    {
      "midi": 74,
      "hit": false,
      "t": 46992.21974999996,
      "d": 1663.848156250002,
      "v": 127
    },
    {
      "midi": 65,
      "hit": false,
      "t": 46992.21974999996,
      "d": 1682.2332187499997,
      "v": 127
    },
    {
      "midi": 62,
      "hit": false,
      "t": 47212.84049999996,
      "d": 836.5203437499949,
      "v": 127
    },
    {
      "midi": 96,
      "hit": false,
      "t": 47313.958343749975,
      "d": 229.8132812499971,
      "v": 112
    },
    {
      "midi": 96,
      "hit": false,
      "t": 47764.392374999974,
      "d": 220.62075000000186,
      "v": 124
    },
    {
      "midi": 57,
      "hit": false,
      "t": 47874.70274999996,
      "d": 3483.9693437500027,
      "v": 127
    },
    {
      "midi": 96,
      "hit": false,
      "t": 48187.24881249997,
      "d": 110.31037500000093,
      "v": 108
    },
    {
      "midi": 62,
      "hit": false,
      "t": 48315.94424999996,
      "d": 735.4025000000038,
      "v": 127
    },
    {
      "midi": 96,
      "hit": false,
      "t": 48435.447156249975,
      "d": 128.69543749999866,
      "v": 115
    },
    {
      "midi": 53,
      "hit": false,
      "t": 48536.56499999996,
      "d": 2693.4116562499985,
      "v": 127
    },
    {
      "midi": 74,
      "hit": false,
      "t": 48757.18574999996,
      "d": 717.0174374999988,
      "v": 127
    },
    {
      "midi": 62,
      "hit": false,
      "t": 49198.42724999996,
      "d": 239.0058124999996,
      "v": 127
    },
    {
      "midi": 65,
      "hit": false,
      "t": 49198.42724999996,
      "d": 349.3161875000005,
      "v": 127
    },
    {
      "midi": 69,
      "hit": false,
      "t": 49419.04799999996,
      "d": 147.0804999999964,
      "v": 127
    },
    {
      "midi": 65,
      "hit": false,
      "t": 49639.66874999995,
      "d": 799.7502187499995,
      "v": 127
    },
    {
      "midi": 60,
      "hit": false,
      "t": 50080.91024999995,
      "d": 579.1294687500049,
      "v": 127
    },
    {
      "midi": 96,
      "hit": false,
      "t": 50154.45049999997,
      "d": 82.7327812500007,
      "v": 108
    },
    {
      "midi": 72,
      "hit": false,
      "t": 50301.53099999995,
      "d": 137.88796875000116,
      "v": 127
    },
    {
      "midi": 69,
      "hit": false,
      "t": 50301.53099999995,
      "d": 992.7933750000084,
      "v": 127
    },
    {
      "midi": 96,
      "hit": false,
      "t": 50384.26378124997,
      "d": 73.5402499999982,
      "v": 112
    },
    {
      "midi": 96,
      "hit": false,
      "t": 50604.88453124996,
      "d": 156.2730312499989,
      "v": 119
    },
    {
      "midi": 65,
      "hit": false,
      "t": 50963.39324999996,
      "d": 91.9253125000032,
      "v": 127
    },
    {
      "midi": 60,
      "hit": false,
      "t": 50963.39324999996,
      "d": 422.856437500006,
      "v": 127
    },
    {
      "midi": 96,
      "hit": false,
      "t": 51110.47374999996,
      "d": 202.23568749999686,
      "v": 127
    },
    {
      "midi": 55,
      "hit": false,
      "t": 51404.63474999996,
      "d": 1627.0780312499992,
      "v": 127
    },
    {
      "midi": 96,
      "hit": false,
      "t": 51542.522718749955,
      "d": 229.8132812499971,
      "v": 124
    },
    {
      "midi": 67,
      "hit": false,
      "t": 51625.25549999996,
      "d": 1424.8423437500023,
      "v": 127
    },
    {
      "midi": 74,
      "hit": false,
      "t": 51625.25549999996,
      "d": 1443.22740625,
      "v": 127
    },
    {
      "midi": 71,
      "hit": false,
      "t": 51845.876249999965,
      "d": 992.7933749999938,
      "v": 127
    },
    {
      "midi": 59,
      "hit": false,
      "t": 51845.876249999965,
      "d": 1195.029062499998,
      "v": 127
    },
    {
      "midi": 96,
      "hit": false,
      "t": 52011.34181249995,
      "d": 156.2730312499989,
      "v": 127
    },
    {
      "midi": 62,
      "hit": false,
      "t": 52287.11774999996,
      "d": 762.980093750004,
      "v": 127
    },
    {
      "midi": 72,
      "hit": false,
      "t": 53169.60074999996,
      "d": 744.595031249999,
      "v": 127
    },
    {
      "midi": 69,
      "hit": false,
      "t": 53169.60074999996,
      "d": 772.1726249999992,
      "v": 127
    },
    {
      "midi": 64,
      "hit": false,
      "t": 53169.60074999996,
      "d": 781.3651562500017,
      "v": 127
    },
    {
      "midi": 60,
      "hit": false,
      "t": 53169.60074999996,
      "d": 1323.724500000004,
      "v": 127
    },
    {
      "midi": 57,
      "hit": false,
      "t": 53169.60074999996,
      "d": 1443.2274062500073,
      "v": 127
    },
    {
      "midi": 52,
      "hit": false,
      "t": 53169.60074999996,
      "d": 3281.733656250013,
      "v": 127
    },
    {
      "midi": 96,
      "hit": false,
      "t": 53978.54349999995,
      "d": 82.7327812500007,
      "v": 127
    },
    {
      "midi": 71,
      "hit": false,
      "t": 54052.08374999996,
      "d": 101.11784374999843,
      "v": 127
    },
    {
      "midi": 72,
      "hit": false,
      "t": 54052.08374999996,
      "d": 762.980093750004,
      "v": 127
    },
    {
      "midi": 96,
      "hit": false,
      "t": 54208.356781249946,
      "d": 82.7327812500007,
      "v": 124
    },
    {
      "midi": 69,
      "hit": false,
      "t": 54272.70449999996,
      "d": 551.5518750000047,
      "v": 127
    },
    {
      "midi": 96,
      "hit": false,
      "t": 54438.17006249994,
      "d": 64.34771875000297,
      "v": 108
    },
    {
      "midi": 64,
      "hit": false,
      "t": 54493.325249999965,
      "d": 358.508718750003,
      "v": 127
    },
    {
      "midi": 96,
      "hit": false,
      "t": 54677.17587499994,
      "d": 110.31037500000093,
      "v": 127
    },
    {
      "midi": 60,
      "hit": false,
      "t": 54713.94599999997,
      "d": 579.1294687500049,
      "v": 127
    },
    {
      "midi": 57,
      "hit": false,
      "t": 54713.94599999997,
      "d": 1764.9660000000076,
      "v": 127
    },
    {
      "midi": 64,
      "hit": false,
      "t": 54934.56674999997,
      "d": 808.942750000002,
      "v": 127
    },
    {
      "midi": 69,
      "hit": false,
      "t": 54934.56674999997,
      "d": 827.3278124999997,
      "v": 127
    },
    {
      "midi": 72,
      "hit": false,
      "t": 54934.56674999997,
      "d": 836.5203437500022,
      "v": 127
    },
    {
      "midi": 60,
      "hit": false,
      "t": 55375.80824999997,
      "d": 551.5518749999974,
      "v": 127
    },
    {
      "midi": 64,
      "hit": false,
      "t": 55817.04974999997,
      "d": 625.0921250000029,
      "v": 127
    },
    {
      "midi": 69,
      "hit": false,
      "t": 55817.04974999997,
      "d": 671.0547812500081,
      "v": 127
    },
    {
      "midi": 72,
      "hit": false,
      "t": 55817.04974999997,
      "d": 671.0547812500081,
      "v": 127
    },
    {
      "midi": 60,
      "hit": false,
      "t": 56037.67049999997,
      "d": 459.62656250000873,
      "v": 127
    },
    {
      "midi": 96,
      "hit": false,
      "t": 56359.40909374994,
      "d": 82.7327812500007,
      "v": 127
    },
    {
      "midi": 96,
      "hit": false,
      "t": 56607.607437499944,
      "d": 211.42821874999936,
      "v": 127
    },
    {
      "midi": 73,
      "hit": false,
      "t": 56699.53274999998,
      "d": 64.34771875000297,
      "v": 127
    },
    {
      "midi": 53,
      "hit": false,
      "t": 56699.53274999998,
      "d": 128.69543750000594,
      "v": 127
    },
    {
      "midi": 74,
      "hit": false,
      "t": 56699.53274999998,
      "d": 707.8249062500036,
      "v": 127
    },
    {
      "midi": 67,
      "hit": false,
      "t": 56699.53274999998,
      "d": 735.4025000000038,
      "v": 127
    },
    {
      "midi": 55,
      "hit": false,
      "t": 56699.53274999998,
      "d": 3309.3112499999916,
      "v": 127
    },
    {
      "midi": 96,
      "hit": false,
      "t": 57067.233999999946,
      "d": 91.9253125000032,
      "v": 119
    },
    {
      "midi": 96,
      "hit": false,
      "t": 57324.62487499995,
      "d": 137.88796875000116,
      "v": 127
    },
    {
      "midi": 59,
      "hit": false,
      "t": 57361.39499999998,
      "d": 836.5203437499949,
      "v": 127
    },
    {
      "midi": 71,
      "hit": false,
      "t": 57582.01574999998,
      "d": 946.8307187499959,
      "v": 127
    },
    {
      "midi": 74,
      "hit": false,
      "t": 57582.01574999998,
      "d": 965.2157812499936,
      "v": 127
    },
    {
      "midi": 67,
      "hit": false,
      "t": 57582.01574999998,
      "d": 974.4083124999961,
      "v": 127
    },
    {
      "midi": 96,
      "hit": false,
      "t": 57784.25143749995,
      "d": 220.62075000000186,
      "v": 127
    },
    {
      "midi": 62,
      "hit": false,
      "t": 57802.63649999998,
      "d": 1011.1784374999916,
      "v": 127
    },
    {
      "midi": 96,
      "hit": false,
      "t": 58243.87799999995,
      "d": 147.0804999999964,
      "v": 127
    },
    {
      "midi": 59,
      "hit": false,
      "t": 58243.877999999975,
      "d": 707.8249062499963,
      "v": 127
    },
    {
      "midi": 67,
      "hit": false,
      "t": 58685.11949999997,
      "d": 606.7070624999978,
      "v": 127
    },
    {
      "midi": 71,
      "hit": false,
      "t": 58685.11949999997,
      "d": 1305.339437499999,
      "v": 127
    },
    {
      "midi": 74,
      "hit": false,
      "t": 58685.11949999997,
      "d": 1332.9170312499991,
      "v": 127
    },
    {
      "midi": 62,
      "hit": false,
      "t": 59126.36099999997,
      "d": 569.9369375000024,
      "v": 127
    },
    {
      "midi": 59,
      "hit": false,
      "t": 59126.36099999997,
      "d": 928.4456562500054,
      "v": 127
    },
    {
      "midi": 67,
      "hit": false,
      "t": 59567.60249999997,
      "d": 487.2041562500017,
      "v": 127
    },
    {
      "midi": 62,
      "hit": false,
      "t": 59788.22324999997,
      "d": 275.7759375000023,
      "v": 127
    },
    {
      "midi": 64,
      "hit": false,
      "t": 60229.46474999998,
      "d": 735.4024999999965,
      "v": 127
    },
    {
      "midi": 72,
      "hit": false,
      "t": 60229.46474999998,
      "d": 790.557687499997,
      "v": 127
    },
    {
      "midi": 69,
      "hit": false,
      "t": 60229.46474999998,
      "d": 808.9427499999947,
      "v": 127
    },
    {
      "midi": 52,
      "hit": false,
      "t": 60229.46474999998,
      "d": 3392.044031249985,
      "v": 127
    },
    {
      "midi": 57,
      "hit": false,
      "t": 60670.706249999974,
      "d": 992.7933749999938,
      "v": 127
    },
    {
      "midi": 96,
      "hit": false,
      "t": 61029.21496874995,
      "d": 91.9253125000032,
      "v": 119
    },
    {
      "midi": 69,
      "hit": false,
      "t": 61111.94774999997,
      "d": 735.4024999999965,
      "v": 127
    },
    {
      "midi": 64,
      "hit": false,
      "t": 61111.94774999997,
      "d": 753.7875624999942,
      "v": 127
    },
    {
      "midi": 72,
      "hit": false,
      "t": 61111.94774999997,
      "d": 772.172624999992,
      "v": 127
    },
    {
      "midi": 96,
      "hit": false,
      "t": 61249.83571874995,
      "d": 91.9253125000032,
      "v": 112
    },
    {
      "midi": 96,
      "hit": false,
      "t": 61479.648999999954,
      "d": 82.7327812500007,
      "v": 119
    },
    {
      "midi": 60,
      "hit": false,
      "t": 61553.18924999997,
      "d": 643.4771874999933,
      "v": 127
    },
    {
      "midi": 96,
      "hit": false,
      "t": 61709.46228124995,
      "d": 266.5834062499998,
      "v": 127
    },
    {
      "midi": 57,
      "hit": false,
      "t": 61773.80999999997,
      "d": 1277.7618437499914,
      "v": 127
    },
    {
      "midi": 64,
      "hit": false,
      "t": 61994.43074999996,
      "d": 799.7502187499995,
      "v": 127
    },
    {
      "midi": 69,
      "hit": false,
      "t": 61994.43074999996,
      "d": 799.7502187499995,
      "v": 127
    },
    {
      "midi": 72,
      "hit": false,
      "t": 61994.43074999996,
      "d": 808.942750000002,
      "v": 127
    },
    {
      "midi": 60,
      "hit": false,
      "t": 62435.67224999996,
      "d": 625.0921250000029,
      "v": 127
    },
    {
      "midi": 64,
      "hit": false,
      "t": 62876.91374999996,
      "d": 762.9800937499967,
      "v": 127
    },
    {
      "midi": 72,
      "hit": false,
      "t": 62876.91374999996,
      "d": 781.3651562500017,
      "v": 127
    },
    {
      "midi": 96,
      "hit": false,
      "t": 63088.34196874995,
      "d": 73.5402499999982,
      "v": 119
    },
    {
      "midi": 96,
      "hit": false,
      "t": 63308.96271874994,
      "d": 64.34771875000297,
      "v": 124
    },
    {
      "midi": 69,
      "hit": false,
      "t": 63318.15524999996,
      "d": 330.9311250000028,
      "v": 127
    },
    {
      "midi": 96,
      "hit": false,
      "t": 63538.77599999995,
      "d": 128.69543749999866,
      "v": 127
    },
    {
      "midi": 57,
      "hit": false,
      "t": 63538.77599999996,
      "d": 147.08050000000367,
      "v": 127
    },
    {
      "midi": 54,
      "hit": false,
      "t": 63759.39674999996,
      "d": 18.38506249999773,
      "v": 127
    },
    {
      "midi": 73,
      "hit": false,
      "t": 63759.39674999996,
      "d": 18.38506249999773,
      "v": 127
    },
    {
      "midi": 67,
      "hit": false,
      "t": 63759.39674999996,
      "d": 661.8622499999983,
      "v": 127
    },
    {
      "midi": 74,
      "hit": false,
      "t": 63759.39674999996,
      "d": 689.4398437499985,
      "v": 127
    },
    {
      "midi": 55,
      "hit": false,
      "t": 63759.39674999996,
      "d": 3300.1187187499963,
      "v": 127
    },
    {
      "midi": 96,
      "hit": false,
      "t": 64173.060656249945,
      "d": 73.5402499999982,
      "v": 127
    },
    {
      "midi": 59,
      "hit": false,
      "t": 64200.63824999996,
      "d": 1801.7361249999958,
      "v": 127
    },
    {
      "midi": 96,
      "hit": false,
      "t": 64402.87393749994,
      "d": 110.31037500000093,
      "v": 127
    },
    {
      "midi": 67,
      "hit": false,
      "t": 64641.879749999964,
      "d": 956.0232499999984,
      "v": 127
    },
    {
      "midi": 71,
      "hit": false,
      "t": 64641.879749999964,
      "d": 956.0232499999984,
      "v": 127
    },
    {
      "midi": 74,
      "hit": false,
      "t": 64641.879749999964,
      "d": 965.2157812499936,
      "v": 127
    },
    {
      "midi": 96,
      "hit": false,
      "t": 64825.73037499994,
      "d": 137.88796875000116,
      "v": 127
    },
    {
      "midi": 96,
      "hit": false,
      "t": 65266.971874999945,
      "d": 91.9253125000032,
      "v": 127
    },
    {
      "midi": 62,
      "hit": false,
      "t": 65303.74199999996,
      "d": 1820.1211874999935,
      "v": 127
    },
    {
      "midi": 67,
      "hit": false,
      "t": 65744.98349999996,
      "d": 772.172624999992,
      "v": 127
    },
    {
      "midi": 74,
      "hit": false,
      "t": 65744.98349999996,
      "d": 772.172624999992,
      "v": 127
    },
    {
      "midi": 71,
      "hit": false,
      "t": 65744.98349999996,
      "d": 790.557687499997,
      "v": 127
    },
    {
      "midi": 59,
      "hit": false,
      "t": 66406.84574999995,
      "d": 726.2099687500013,
      "v": 127
    },
    {
      "midi": 74,
      "hit": false,
      "t": 66627.46649999995,
      "d": 533.1668124999997,
      "v": 127
    },
    {
      "midi": 71,
      "hit": false,
      "t": 66848.08724999995,
      "d": 294.1609999999928,
      "v": 127
    },
    {
      "midi": 67,
      "hit": false,
      "t": 67068.70799999996,
      "d": 128.69543749999139,
      "v": 127
    },
    {
      "midi": 65,
      "hit": false,
      "t": 67289.32874999994,
      "d": 2463.598375000016,
      "v": 127
    },
    {
      "midi": 72,
      "hit": false,
      "t": 67289.32874999994,
      "d": 2518.7535625000164,
      "v": 127
    },
    {
      "midi": 53,
      "hit": false,
      "t": 67289.32874999994,
      "d": 3346.081375000009,
      "v": 127
    },
    {
      "midi": 96,
      "hit": false,
      "t": 67877.65074999994,
      "d": 73.54025000000547,
      "v": 108
    },
    {
      "midi": 57,
      "hit": false,
      "t": 67951.19099999995,
      "d": 726.2099687500013,
      "v": 127
    },
    {
      "midi": 96,
      "hit": false,
      "t": 68135.04162499995,
      "d": 220.62075000000186,
      "v": 127
    },
    {
      "midi": 69,
      "hit": false,
      "t": 68171.81174999995,
      "d": 1581.1153750000085,
      "v": 127
    },
    {
      "midi": 96,
      "hit": false,
      "t": 68603.86071874996,
      "d": 82.7327812500007,
      "v": 119
    },
    {
      "midi": 60,
      "hit": false,
      "t": 68613.05324999995,
      "d": 1976.394218750007,
      "v": 127
    },
    {
      "midi": 57,
      "hit": false,
      "t": 68833.67399999996,
      "d": 1746.58093750001,
      "v": 127
    },
    {
      "midi": 96,
      "hit": false,
      "t": 68833.67399999996,
      "d": 147.0804999999964,
      "v": 127
    },
    {
      "midi": 96,
      "hit": false,
      "t": 69467.95865624995,
      "d": 91.92531249999593,
      "v": 124
    },
    {
      "midi": 96,
      "hit": false,
      "t": 69697.77193749994,
      "d": 128.69543750000594,
      "v": 127
    },
    {
      "midi": 72,
      "hit": false,
      "t": 69936.77774999996,
      "d": 661.862249999991,
      "v": 127
    },
    {
      "midi": 69,
      "hit": false,
      "t": 70157.39849999997,
      "d": 441.2414999999892,
      "v": 127
    },
    {
      "midi": 65,
      "hit": false,
      "t": 70378.01924999997,
      "d": 275.7759374999878,
      "v": 127
    },
    {
      "midi": 64,
      "hit": false,
      "t": 70819.26074999996,
      "d": 772.1726250000065,
      "v": 127
    },
    {
      "midi": 67,
      "hit": false,
      "t": 70819.26074999996,
      "d": 808.942750000002,
      "v": 127
    },
    {
      "midi": 71,
      "hit": false,
      "t": 70819.26074999996,
      "d": 818.1352812499972,
      "v": 127
    },
    {
      "midi": 52,
      "hit": false,
      "t": 70819.26074999996,
      "d": 3208.193406249993,
      "v": 127
    },
    {
      "midi": 96,
      "hit": false,
      "t": 71444.35287499995,
      "d": 73.54025000000547,
      "v": 127
    },
    {
      "midi": 55,
      "hit": false,
      "t": 71481.12299999996,
      "d": 2316.5178749999905,
      "v": 127
    },
    {
      "midi": 96,
      "hit": false,
      "t": 71692.55121874996,
      "d": 64.34771874999569,
      "v": 127
    },
    {
      "midi": 64,
      "hit": false,
      "t": 71701.74374999995,
      "d": 1590.3079062500037,
      "v": 127
    },
    {
      "midi": 67,
      "hit": false,
      "t": 71701.74374999995,
      "d": 1590.3079062500037,
      "v": 127
    },
    {
      "midi": 71,
      "hit": false,
      "t": 71701.74374999995,
      "d": 1617.885500000004,
      "v": 127
    },
    {
      "midi": 96,
      "hit": false,
      "t": 71922.36449999995,
      "d": 82.7327812500007,
      "v": 127
    },
    {
      "midi": 59,
      "hit": false,
      "t": 72142.98524999995,
      "d": 1875.2763750000013,
      "v": 127
    },
    {
      "midi": 96,
      "hit": false,
      "t": 72372.79853124995,
      "d": 165.4655625000014,
      "v": 127
    },
    {
      "midi": 96,
      "hit": false,
      "t": 72814.04003124996,
      "d": 137.88796875000116,
      "v": 119
    },
    {
      "midi": 96,
      "hit": false,
      "t": 73236.89646874995,
      "d": 101.1178437500057,
      "v": 127
    },
    {
      "midi": 71,
      "hit": false,
      "t": 73466.70974999995,
      "d": 726.2099687500013,
      "v": 127
    },
    {
      "midi": 67,
      "hit": false,
      "t": 73687.33049999995,
      "d": 459.6265624999942,
      "v": 127
    },
    {
      "midi": 64,
      "hit": false,
      "t": 73907.95124999995,
      "d": 284.96846874999756,
      "v": 127
    },
    {
      "midi": 63,
      "hit": false,
      "t": 74349.19274999996,
      "d": 9.192531249995227,
      "v": 127
    },
    {
      "midi": 66,
      "hit": false,
      "t": 74349.19274999996,
      "d": 73.54024999999092,
      "v": 127
    },
    {
      "midi": 62,
      "hit": false,
      "t": 74349.19274999996,
      "d": 735.402499999982,
      "v": 127
    },
    {
      "midi": 65,
      "hit": false,
      "t": 74349.19274999996,
      "d": 762.9800937499822,
      "v": 127
    },
    {
      "midi": 69,
      "hit": false,
      "t": 74349.19274999996,
      "d": 762.9800937499822,
      "v": 127
    },
    {
      "midi": 50,
      "hit": false,
      "t": 74790.43424999995,
      "d": 2877.2622812500194,
      "v": 127
    },
    {
      "midi": 96,
      "hit": false,
      "t": 75213.29068749996,
      "d": 64.34771874999569,
      "v": 127
    },
    {
      "midi": 62,
      "hit": false,
      "t": 75231.67574999994,
      "d": 744.5950312500063,
      "v": 127
    },
    {
      "midi": 69,
      "hit": false,
      "t": 75231.67574999994,
      "d": 762.9800937500113,
      "v": 127
    },
    {
      "midi": 65,
      "hit": false,
      "t": 75231.67574999994,
      "d": 781.3651562500163,
      "v": 127
    },
    {
      "midi": 53,
      "hit": false,
      "t": 75231.67574999994,
      "d": 2344.09546875002,
      "v": 127
    },
    {
      "midi": 96,
      "hit": false,
      "t": 75433.91143749996,
      "d": 55.155187500000466,
      "v": 108
    },
    {
      "midi": 96,
      "hit": false,
      "t": 75672.91724999997,
      "d": 27.577593750000233,
      "v": 105
    },
    {
      "midi": 96,
      "hit": false,
      "t": 75902.73053124997,
      "d": 55.155187500000466,
      "v": 127
    },
    {
      "midi": 62,
      "hit": false,
      "t": 76114.15874999996,
      "d": 753.7875625000015,
      "v": 127
    },
    {
      "midi": 69,
      "hit": false,
      "t": 76114.15874999996,
      "d": 790.557687499997,
      "v": 127
    },
    {
      "midi": 65,
      "hit": false,
      "t": 76114.15874999996,
      "d": 799.7502187499922,
      "v": 127
    },
    {
      "midi": 57,
      "hit": false,
      "t": 76334.77949999996,
      "d": 18.385062500005006,
      "v": 127
    },
    {
      "midi": 62,
      "hit": false,
      "t": 76996.64174999995,
      "d": 284.96846874999756,
      "v": 127
    },
    {
      "midi": 65,
      "hit": false,
      "t": 76996.64174999995,
      "d": 698.6323750000156,
      "v": 127
    },
    {
      "midi": 69,
      "hit": false,
      "t": 76996.64174999995,
      "d": 717.0174375000206,
      "v": 127
    },
    {
      "midi": 57,
      "hit": false,
      "t": 77217.26249999995,
      "d": 404.47137500000827,
      "v": 127
    },
    {
      "midi": 62,
      "hit": false,
      "t": 77437.88324999996,
      "d": 239.00581250000687,
      "v": 127
    },
    {
      "midi": 96,
      "hit": false,
      "t": 77630.92640624997,
      "d": 119.50290624999616,
      "v": 79
    },
    {
      "midi": 63,
      "hit": false,
      "t": 77879.12474999997,
      "d": 82.7327812500007,
      "v": 127
    },
    {
      "midi": 70,
      "hit": false,
      "t": 77879.12474999997,
      "d": 137.88796875000116,
      "v": 127
    },
    {
      "midi": 72,
      "hit": false,
      "t": 77879.12474999997,
      "d": 156.27303125000617,
      "v": 127
    },
    {
      "midi": 65,
      "hit": false,
      "t": 77879.12474999997,
      "d": 542.3593437500094,
      "v": 127
    },
    {
      "midi": 53,
      "hit": false,
      "t": 77879.12474999997,
      "d": 1571.9228437500133,
      "v": 127
    },
    {
      "midi": 96,
      "hit": false,
      "t": 77888.31728124997,
      "d": 248.1983437500021,
      "v": 127
    },
    {
      "midi": 72,
      "hit": false,
      "t": 78099.74549999998,
      "d": 1406.4572812500119,
      "v": 127
    },
    {
      "midi": 57,
      "hit": false,
      "t": 78320.36624999998,
      "d": 744.5950312500063,
      "v": 127
    },
    {
      "midi": 96,
      "hit": false,
      "t": 78329.55878124997,
      "d": 101.1178437500057,
      "v": 112
    },
    {
      "midi": 65,
      "hit": false,
      "t": 78540.98699999998,
      "d": 367.70124999999825,
      "v": 127
    },
    {
      "midi": 69,
      "hit": false,
      "t": 78540.98699999998,
      "d": 965.2157812500081,
      "v": 127
    },
    {
      "midi": 96,
      "hit": false,
      "t": 78550.17953124997,
      "d": 202.23568749999686,
      "v": 102
    },
    {
      "midi": 60,
      "hit": false,
      "t": 78761.60774999998,
      "d": 312.5460624999978,
      "v": 127
    },
    {
      "midi": 65,
      "hit": false,
      "t": 78982.22849999998,
      "d": 542.3593437499949,
      "v": 127
    },
    {
      "midi": 57,
      "hit": false,
      "t": 79202.84924999998,
      "d": 312.5460624999978,
      "v": 127
    },
    {
      "midi": 60,
      "hit": false,
      "t": 79202.84924999998,
      "d": 312.5460624999978,
      "v": 127
    },
    {
      "midi": 96,
      "hit": false,
      "t": 79212.04178124997,
      "d": 101.1178437500057,
      "v": 127
    },
    {
      "midi": 96,
      "hit": false,
      "t": 79432.66253124997,
      "d": 229.8132812499971,
      "v": 127
    },
    {
      "midi": 67,
      "hit": false,
      "t": 79644.09074999997,
      "d": 1222.6066562500055,
      "v": 127
    },
    {
      "midi": 74,
      "hit": false,
      "t": 79644.09074999997,
      "d": 1627.0780312499992,
      "v": 127
    },
    {
      "midi": 55,
      "hit": false,
      "t": 79644.09074999997,
      "d": 8668.55696875001,
      "v": 127
    },
    {
      "midi": 59,
      "hit": false,
      "t": 80305.95299999998,
      "d": 836.5203437500022,
      "v": 127
    },
    {
      "midi": 71,
      "hit": false,
      "t": 80526.57374999998,
      "d": 707.8249062499963,
      "v": 127
    },
    {
      "midi": 62,
      "hit": false,
      "t": 80747.19449999998,
      "d": 523.9742812499899,
      "v": 127
    },
    {
      "midi": 67,
      "hit": false,
      "t": 80967.81524999999,
      "d": 1250.1842499999912,
      "v": 127
    },
    {
      "midi": 76,
      "hit": false,
      "t": 81409.05674999997,
      "d": 1636.270562500009,
      "v": 127
    },
    {
      "midi": 72,
      "hit": false,
      "t": 81409.05674999997,
      "d": 1654.655625000014,
      "v": 127
    },
    {
      "midi": 60,
      "hit": false,
      "t": 81409.05674999997,
      "d": 3171.423281250012,
      "v": 127
    },
    {
      "midi": 96,
      "hit": false,
      "t": 82080.11153124996,
      "d": 91.92531249999593,
      "v": 124
    },
    {
      "midi": 67,
      "hit": false,
      "t": 82291.53974999998,
      "d": 818.1352812500118,
      "v": 127
    },
    {
      "midi": 96,
      "hit": false,
      "t": 82319.11734374995,
      "d": 73.54025000000547,
      "v": 124
    },
    {
      "midi": 96,
      "hit": false,
      "t": 82539.73809374995,
      "d": 82.7327812500007,
      "v": 115
    },
    {
      "midi": 64,
      "hit": false,
      "t": 82732.78124999999,
      "d": 2040.7419375000027,
      "v": 127
    },
    {
      "midi": 96,
      "hit": false,
      "t": 82769.55137499995,
      "d": 64.34771874999569,
      "v": 124
    },
    {
      "midi": 96,
      "hit": false,
      "t": 82990.17212499995,
      "d": 110.31037500000093,
      "v": 127
    },
    {
      "midi": 72,
      "hit": false,
      "t": 83174.02274999999,
      "d": 781.3651562500017,
      "v": 127
    },
    {
      "midi": 76,
      "hit": false,
      "t": 83174.02274999999,
      "d": 818.1352812499972,
      "v": 127
    },
    {
      "midi": 67,
      "hit": false,
      "t": 83174.02274999999,
      "d": 827.3278124999924,
      "v": 127
    },
    {
      "midi": 72,
      "hit": false,
      "t": 84056.50574999998,
      "d": 73.54025000000547,
      "v": 127
    },
    {
      "midi": 76,
      "hit": false,
      "t": 84056.50574999998,
      "d": 698.632375000001,
      "v": 127
    },
    {
      "midi": 72,
      "hit": false,
      "t": 84277.12649999998,
      "d": 579.1294687500049,
      "v": 127
    },
    {
      "midi": 67,
      "hit": false,
      "t": 84497.74724999999,
      "d": 1314.5319687500014,
      "v": 127
    },
    {
      "midi": 96,
      "hit": false,
      "t": 84690.79040624996,
      "d": 73.54025000000547,
      "v": 102
    },
    {
      "midi": 96,
      "hit": false,
      "t": 84929.79621874997,
      "d": 183.8506250000064,
      "v": 127
    },
    {
      "midi": 71,
      "hit": false,
      "t": 84938.98874999999,
      "d": 845.7128749999974,
      "v": 127
    },
    {
      "midi": 74,
      "hit": false,
      "t": 84938.98874999999,
      "d": 1820.1211874999863,
      "v": 127
    },
    {
      "midi": 59,
      "hit": false,
      "t": 84938.98874999999,
      "d": 3419.6216249999998,
      "v": 127
    },
    {
      "midi": 96,
      "hit": false,
      "t": 85380.23024999998,
      "d": 229.8132812499971,
      "v": 127
    },
    {
      "midi": 62,
      "hit": false,
      "t": 85380.23025,
      "d": 1912.0464999999822,
      "v": 127
    },
    {
      "midi": 67,
      "hit": false,
      "t": 85821.47174999998,
      "d": 919.2531250000029,
      "v": 127
    },
    {
      "midi": 71,
      "hit": false,
      "t": 85821.47174999998,
      "d": 928.4456562499981,
      "v": 127
    },
    {
      "midi": 96,
      "hit": false,
      "t": 85839.85681249997,
      "d": 229.8132812499971,
      "v": 127
    },
    {
      "midi": 96,
      "hit": false,
      "t": 86271.90578124997,
      "d": 91.92531249999593,
      "v": 124
    },
    {
      "midi": 96,
      "hit": false,
      "t": 86501.71906249996,
      "d": 147.0804999999964,
      "v": 127
    },
    {
      "midi": 74,
      "hit": false,
      "t": 86924.57549999998,
      "d": 2380.8655937500153,
      "v": 127
    },
    {
      "midi": 71,
      "hit": false,
      "t": 87145.19624999998,
      "d": 1240.9917187500105,
      "v": 127
    },
    {
      "midi": 67,
      "hit": false,
      "t": 87365.81699999998,
      "d": 1020.3709687500086,
      "v": 127
    },
    {
      "midi": 62,
      "hit": false,
      "t": 87586.43774999998,
      "d": 2445.2133125000255,
      "v": 127
    },
    {
      "midi": 69,
      "hit": false,
      "t": 88468.92074999999,
      "d": 781.3651562500017,
      "v": 127
    },
    {
      "midi": 65,
      "hit": false,
      "t": 88468.92074999999,
      "d": 790.557687499997,
      "v": 127
    },
    {
      "midi": 57,
      "hit": false,
      "t": 88468.92074999999,
      "d": 1084.7186875000043,
      "v": 127
    },
    {
      "midi": 53,
      "hit": false,
      "t": 88468.92074999999,
      "d": 5101.8548437500285,
      "v": 127
    },
    {
      "midi": 96,
      "hit": false,
      "t": 89121.59046874996,
      "d": 73.54025000000547,
      "v": 102
    },
    {
      "midi": 65,
      "hit": false,
      "t": 89351.40375,
      "d": 542.3593437500094,
      "v": 127
    },
    {
      "midi": 69,
      "hit": false,
      "t": 89351.40375,
      "d": 1838.5062500000058,
      "v": 127
    },
    {
      "midi": 74,
      "hit": false,
      "t": 89351.40375,
      "d": 1866.083843750006,
      "v": 127
    },
    {
      "midi": 96,
      "hit": false,
      "t": 89369.78881249996,
      "d": 183.8506250000064,
      "v": 119
    },
    {
      "midi": 57,
      "hit": false,
      "t": 89792.64525,
      "d": 3805.7079375000176,
      "v": 127
    },
    {
      "midi": 96,
      "hit": false,
      "t": 89829.41537499997,
      "d": 55.155187500000466,
      "v": 99
    },
    {
      "midi": 65,
      "hit": false,
      "t": 90013.266,
      "d": 1176.6440000000002,
      "v": 127
    },
    {
      "midi": 96,
      "hit": false,
      "t": 90068.42118749997,
      "d": 101.1178437500057,
      "v": 124
    },
    {
      "midi": 62,
      "hit": false,
      "t": 90233.88675,
      "d": 1535.1527187500033,
      "v": 127
    },
    {
      "midi": 96,
      "hit": false,
      "t": 90693.51331249998,
      "d": 73.54025000000547,
      "v": 127
    },
    {
      "midi": 96,
      "hit": false,
      "t": 90932.51912499999,
      "d": 73.54025000000547,
      "v": 127
    },
    {
      "midi": 74,
      "hit": false,
      "t": 91336.9905,
      "d": 523.9742812500044,
      "v": 127
    },
    {
      "midi": 69,
      "hit": false,
      "t": 91557.61125,
      "d": 376.89378125000803,
      "v": 127
    },
    {
      "midi": 65,
      "hit": false,
      "t": 91778.232,
      "d": 1020.3709687500086,
      "v": 127
    },
    {
      "midi": 72,
      "hit": false,
      "t": 91998.85275,
      "d": 808.942750000002,
      "v": 127
    },
    {
      "midi": 69,
      "hit": false,
      "t": 91998.85275,
      "d": 827.327812500007,
      "v": 127
    },
    {
      "midi": 60,
      "hit": false,
      "t": 91998.85275,
      "d": 965.2157812500081,
      "v": 127
    },
    {
      "midi": 96,
      "hit": false,
      "t": 92642.32993749999,
      "d": 91.92531249999593,
      "v": 115
    },
    {
      "midi": 65,
      "hit": false,
      "t": 92881.33575000001,
      "d": 459.62656250000873,
      "v": 127
    },
    {
      "midi": 69,
      "hit": false,
      "t": 92881.33575000001,
      "d": 744.5950312500063,
      "v": 127
    },
    {
      "midi": 72,
      "hit": false,
      "t": 92881.33575000001,
      "d": 753.7875625000015,
      "v": 127
    },
    {
      "midi": 96,
      "hit": false,
      "t": 92908.91334374998,
      "d": 119.50290624999616,
      "v": 124
    },
    {
      "midi": 96,
      "hit": false,
      "t": 93157.11168749999,
      "d": 174.65809374999662,
      "v": 119
    },
    {
      "midi": 60,
      "hit": false,
      "t": 93322.57725000002,
      "d": 303.35353125000256,
      "v": 127
    },
    {
      "midi": 65,
      "hit": false,
      "t": 93543.19800000002,
      "d": 156.27303124999162,
      "v": 127
    },
    {
      "midi": 96,
      "hit": false,
      "t": 93598.35318749999,
      "d": 147.0804999999964,
      "v": 127
    },
    {
      "midi": 55,
      "hit": false,
      "t": 93763.81875,
      "d": 8797.252406249987,
      "v": 127
    },
    {
      "midi": 67,
      "hit": false,
      "t": 93984.43950000001,
      "d": 1452.4199375000026,
      "v": 127
    },
    {
      "midi": 74,
      "hit": false,
      "t": 93984.43950000001,
      "d": 1461.6124687499978,
      "v": 127
    },
    {
      "midi": 96,
      "hit": false,
      "t": 94021.20962499999,
      "d": 147.0804999999964,
      "v": 124
    },
    {
      "midi": 59,
      "hit": false,
      "t": 94205.06025000001,
      "d": 1001.9859062500036,
      "v": 127
    },
    {
      "midi": 71,
      "hit": false,
      "t": 94425.68100000001,
      "d": 1011.1784374999988,
      "v": 127
    },
    {
      "midi": 96,
      "hit": false,
      "t": 94444.06606249999,
      "d": 147.0804999999964,
      "v": 124
    },
    {
      "midi": 62,
      "hit": false,
      "t": 94646.30175000001,
      "d": 753.7875625000015,
      "v": 127
    },
    {
      "midi": 59,
      "hit": false,
      "t": 95308.16400000002,
      "d": 211.42821874999208,
      "v": 127
    },
    {
      "midi": 76,
      "hit": false,
      "t": 95528.78475,
      "d": 735.4024999999965,
      "v": 127
    },
    {
      "midi": 67,
      "hit": false,
      "t": 95528.78475,
      "d": 753.7875625000015,
      "v": 127
    },
    {
      "midi": 72,
      "hit": false,
      "t": 95528.78475,
      "d": 762.9800937499967,
      "v": 127
    },
    {
      "midi": 60,
      "hit": false,
      "t": 95528.78475,
      "d": 2013.1643437500024,
      "v": 127
    },
    {
      "midi": 96,
      "hit": false,
      "t": 96218.22459374998,
      "d": 82.7327812500007,
      "v": 112
    },
    {
      "midi": 67,
      "hit": false,
      "t": 96411.26775,
      "d": 799.7502187500068,
      "v": 127
    },
    {
      "midi": 76,
      "hit": false,
      "t": 96411.26775,
      "d": 799.7502187500068,
      "v": 127
    },
    {
      "midi": 72,
      "hit": false,
      "t": 96411.26775,
      "d": 818.1352812500118,
      "v": 127
    },
    {
      "midi": 96,
      "hit": false,
      "t": 96448.03787499998,
      "d": 91.92531249999593,
      "v": 124
    },
    {
      "midi": 96,
      "hit": false,
      "t": 96668.65862499998,
      "d": 82.7327812500007,
      "v": 115
    },
    {
      "midi": 64,
      "hit": false,
      "t": 96852.50925,
      "d": 1498.3825937500078,
      "v": 127
    },
    {
      "midi": 96,
      "hit": false,
      "t": 96889.27937499998,
      "d": 55.155187500000466,
      "v": 94
    },
    {
      "midi": 96,
      "hit": false,
      "t": 97119.09265624998,
      "d": 147.0804999999964,
      "v": 127
    },
    {
      "midi": 67,
      "hit": false,
      "t": 97293.75075,
      "d": 772.1726250000065,
      "v": 127
    },
    {
      "midi": 76,
      "hit": false,
      "t": 97293.75075,
      "d": 781.3651562500017,
      "v": 127
    },
    {
      "midi": 72,
      "hit": false,
      "t": 97293.75075,
      "d": 808.942750000002,
      "v": 127
    },
    {
      "midi": 96,
      "hit": false,
      "t": 97560.33415624997,
      "d": 156.27303125000617,
      "v": 90
    },
    {
      "midi": 60,
      "hit": false,
      "t": 97734.99225000001,
      "d": 1139.8738750000048,
      "v": 127
    },
    {
      "midi": 67,
      "hit": false,
      "t": 98176.23375000001,
      "d": 330.9311250000028,
      "v": 127
    },
    {
      "midi": 76,
      "hit": false,
      "t": 98176.23375000001,
      "d": 717.0174374999915,
      "v": 127
    },
    {
      "midi": 72,
      "hit": false,
      "t": 98176.23375000001,
      "d": 762.9800937499967,
      "v": 127
    },
    {
      "midi": 96,
      "hit": false,
      "t": 98378.46943749998,
      "d": 101.1178437500057,
      "v": 94
    },
    {
      "midi": 64,
      "hit": false,
      "t": 98396.85450000002,
      "d": 487.2041562499944,
      "v": 127
    },
    {
      "midi": 67,
      "hit": false,
      "t": 98617.47525000002,
      "d": 1213.4141249999811,
      "v": 127
    },
    {
      "midi": 96,
      "hit": false,
      "t": 98645.05284374999,
      "d": 147.0804999999964,
      "v": 115
    },
    {
      "midi": 74,
      "hit": false,
      "t": 99058.71675,
      "d": 762.9800937499967,
      "v": 127
    },
    {
      "midi": 71,
      "hit": false,
      "t": 99058.71675,
      "d": 772.172624999992,
      "v": 127
    },
    {
      "midi": 59,
      "hit": false,
      "t": 99058.71675,
      "d": 1590.3079062500037,
      "v": 127
    },
    {
      "midi": 96,
      "hit": false,
      "t": 99095.48687499999,
      "d": 110.31037500000093,
      "v": 112
    },
    {
      "midi": 62,
      "hit": false,
      "t": 99499.95825000001,
      "d": 698.6323749999865,
      "v": 127
    },
    {
      "midi": 96,
      "hit": false,
      "t": 99564.30596874999,
      "d": 137.88796875000116,
      "v": 127
    },
    {
      "midi": 96,
      "hit": false,
      "t": 99775.7341875,
      "d": 110.31037500000093,
      "v": 61
    },
    {
      "midi": 67,
      "hit": false,
      "t": 99941.19975,
      "d": 560.7444062499999,
      "v": 127
    },
    {
      "midi": 74,
      "hit": false,
      "t": 99941.19975,
      "d": 1627.0780312499992,
      "v": 127
    },
    {
      "midi": 71,
      "hit": false,
      "t": 99941.19975,
      "d": 1663.8481562499946,
      "v": 127
    },
    {
      "midi": 96,
      "hit": false,
      "t": 100033.1250625,
      "d": 202.23568749999686,
      "v": 112
    },
    {
      "midi": 62,
      "hit": false,
      "t": 100382.44125,
      "d": 1728.195875000005,
      "v": 127
    },
    {
      "midi": 96,
      "hit": false,
      "t": 100465.17403124999,
      "d": 101.1178437500057,
      "v": 115
    },
    {
      "midi": 67,
      "hit": false,
      "t": 100603.062,
      "d": 956.0232499999984,
      "v": 127
    },
    {
      "midi": 96,
      "hit": false,
      "t": 100694.9873125,
      "d": 156.27303125000617,
      "v": 127
    },
    {
      "midi": 59,
      "hit": false,
      "t": 100823.68275,
      "d": 1636.2705624999944,
      "v": 127
    },
    {
      "midi": 74,
      "hit": false,
      "t": 101706.16575,
      "d": 1682.2332187499997,
      "v": 127
    },
    {
      "midi": 71,
      "hit": false,
      "t": 101926.7865,
      "d": 542.3593437499949,
      "v": 127
    },
    {
      "midi": 67,
      "hit": false,
      "t": 102147.40725,
      "d": 349.31618749999325,
      "v": 127
    },
    {
      "midi": 62,
      "hit": false,
      "t": 102368.028,
      "d": 533.1668124999851,
      "v": 127
    },
    {
      "midi": 65,
      "hit": false,
      "t": 102588.64875,
      "d": 726.2099687500013,
      "v": 127
    },
    {
      "midi": 69,
      "hit": false,
      "t": 102588.64875,
      "d": 744.5950312500063,
      "v": 127
    },
    {
      "midi": 53,
      "hit": false,
      "t": 102588.64875,
      "d": 3529.93200000003,
      "v": 127
    },
    {
      "midi": 57,
      "hit": false,
      "t": 102809.2695,
      "d": 1562.730312500018,
      "v": 127
    },
    {
      "midi": 62,
      "hit": false,
      "t": 103029.89025,
      "d": 698.632375000001,
      "v": 127
    },
    {
      "midi": 96,
      "hit": false,
      "t": 103296.47365625,
      "d": 91.92531249999593,
      "v": 119
    },
    {
      "midi": 65,
      "hit": false,
      "t": 103471.13175,
      "d": 542.3593437500094,
      "v": 127
    },
    {
      "midi": 74,
      "hit": false,
      "t": 103471.13175,
      "d": 560.7444062500144,
      "v": 127
    },
    {
      "midi": 69,
      "hit": false,
      "t": 103471.13175,
      "d": 588.3220000000147,
      "v": 127
    },
    {
      "midi": 96,
      "hit": false,
      "t": 103553.86453125,
      "d": 91.92531249999593,
      "v": 127
    },
    {
      "midi": 96,
      "hit": false,
      "t": 103765.29275,
      "d": 91.92531249999593,
      "v": 119
    },
    {
      "midi": 62,
      "hit": false,
      "t": 103912.37325,
      "d": 1240.9917187500105,
      "v": 127
    },
    {
      "midi": 96,
      "hit": false,
      "t": 103995.10603124999,
      "d": 64.34771874999569,
      "v": 127
    },
    {
      "midi": 69,
      "hit": false,
      "t": 104132.99400000002,
      "d": 36.77012499999546,
      "v": 127
    },
    {
      "midi": 74,
      "hit": false,
      "t": 104132.99400000002,
      "d": 2031.5494062500075,
      "v": 127
    },
    {
      "midi": 96,
      "hit": false,
      "t": 104215.72678124999,
      "d": 137.88796875000116,
      "v": 127
    },
    {
      "midi": 65,
      "hit": false,
      "t": 104794.85625000001,
      "d": 1240.9917187500105,
      "v": 127
    },
    {
      "midi": 69,
      "hit": false,
      "t": 105015.47700000001,
      "d": 1167.4514687500196,
      "v": 127
    },
    {
      "midi": 62,
      "hit": false,
      "t": 105236.09775000002,
      "d": 882.4830000000075,
      "v": 127
    },
    {
      "midi": 57,
      "hit": false,
      "t": 106118.58075000002,
      "d": 9.192531249995227,
      "v": 127
    },
    {
      "midi": 53,
      "hit": false,
      "t": 106118.58075000002,
      "d": 27.577593750000233,
      "v": 127
    },
    {
      "midi": 60,
      "hit": false,
      "t": 106118.58075000002,
      "d": 744.5950312500063,
      "v": 127
    },
    {
      "midi": 96,
      "hit": false,
      "t": 106826.40565624999,
      "d": 82.7327812500007,
      "v": 119
    },
    {
      "midi": 60,
      "hit": false,
      "t": 107001.06375000003,
      "d": 1020.3709687499941,
      "v": 127
    },
    {
      "midi": 96,
      "hit": false,
      "t": 107056.21893749999,
      "d": 91.92531249999593,
      "v": 127
    },
    {
      "midi": 57,
      "hit": false,
      "t": 107221.68450000003,
      "d": 799.7502187499922,
      "v": 127
    },
    {
      "midi": 96,
      "hit": false,
      "t": 107276.83968749999,
      "d": 193.04315625000163,
      "v": 112
    },
    {
      "midi": 53,
      "hit": false,
      "t": 107442.30525000003,
      "d": 542.3593437499949,
      "v": 127
    },
    {
      "midi": 96,
      "hit": false,
      "t": 107745.65878125,
      "d": 248.1983437500021,
      "v": 127
    },
    {
      "midi": 55,
      "hit": false,
      "t": 108104.16750000003,
      "d": 790.557687499997,
      "v": 127
    },
    {
      "midi": 59,
      "hit": false,
      "t": 108104.16750000003,
      "d": 790.557687499997,
      "v": 127
    },
    {
      "midi": 62,
      "hit": false,
      "t": 108104.16750000003,
      "d": 808.942750000002,
      "v": 127
    },
    {
      "midi": 96,
      "hit": false,
      "t": 108205.28534375,
      "d": 211.42821875000664,
      "v": 127
    },
    {
      "midi": 96,
      "hit": false,
      "t": 108646.52684375,
      "d": 156.27303125000617,
      "v": 127
    },
    {
      "midi": 55,
      "hit": false,
      "t": 108986.65050000003,
      "d": 468.81909375000396,
      "v": 127
    },
    {
      "midi": 59,
      "hit": false,
      "t": 108986.65050000003,
      "d": 487.20415625000896,
      "v": 127
    },
    {
      "midi": 62,
      "hit": false,
      "t": 108986.65050000003,
      "d": 496.3966875000042,
      "v": 127
    },
    {
      "midi": 60,
      "hit": false,
      "t": 109648.51275000004,
      "d": 974.4083124999888,
      "v": 127
    },
    {
      "midi": 57,
      "hit": false,
      "t": 109648.51275000004,
      "d": 1231.7991874999861,
      "v": 127
    },
    {
      "midi": 52,
      "hit": false,
      "t": 109648.51275000004,
      "d": 3318.5037812499795,
      "v": 127
    },
    {
      "midi": 64,
      "hit": false,
      "t": 110530.99575000003,
      "d": 1332.9170312499919,
      "v": 127
    },
    {
      "midi": 69,
      "hit": false,
      "t": 110530.99575000003,
      "d": 1351.3020937499969,
      "v": 127
    },
    {
      "midi": 72,
      "hit": false,
      "t": 110530.99575000003,
      "d": 1360.494624999992,
      "v": 127
    },
    {
      "midi": 96,
      "hit": false,
      "t": 110595.34346875001,
      "d": 91.92531249999593,
      "v": 127
    },
    {
      "midi": 96,
      "hit": false,
      "t": 110815.96421875001,
      "d": 119.50290624999616,
      "v": 97
    },
    {
      "midi": 96,
      "hit": false,
      "t": 111082.547625,
      "d": 91.92531249999593,
      "v": 108
    },
    {
      "midi": 57,
      "hit": false,
      "t": 111192.85800000002,
      "d": 2013.164343749988,
      "v": 127
    },
    {
      "midi": 96,
      "hit": false,
      "t": 111321.5534375,
      "d": 165.4655625000014,
      "v": 127
    },
    {
      "midi": 64,
      "hit": false,
      "t": 112295.96175000002,
      "d": 717.017437500006,
      "v": 127
    },
    {
      "midi": 72,
      "hit": false,
      "t": 112295.96175000002,
      "d": 744.5950312500063,
      "v": 127
    },
    {
      "midi": 69,
      "hit": false,
      "t": 112295.96175000002,
      "d": 772.1726250000065,
      "v": 127
    },
    {
      "midi": 60,
      "hit": false,
      "t": 112516.58250000002,
      "d": 64.34771874999569,
      "v": 127
    },
    {
      "midi": 96,
      "hit": false,
      "t": 113031.36425,
      "d": 110.31037500000093,
      "v": 83
    },
    {
      "midi": 55,
      "hit": false,
      "t": 113178.44475000002,
      "d": 9.192531249995227,
      "v": 127
    },
    {
      "midi": 63,
      "hit": false,
      "t": 113178.44475000002,
      "d": 18.385062499990454,
      "v": 127
    },
    {
      "midi": 73,
      "hit": false,
      "t": 113178.44475000002,
      "d": 128.69543749999139,
      "v": 127
    },
    {
      "midi": 59,
      "hit": false,
      "t": 113178.44475000002,
      "d": 808.9427499999874,
      "v": 127
    },
    {
      "midi": 62,
      "hit": false,
      "t": 113178.44475000002,
      "d": 808.9427499999874,
      "v": 127
    },
    {
      "midi": 96,
      "hit": false,
      "t": 113270.3700625,
      "d": 284.96846874999756,
      "v": 127
    },
    {
      "midi": 96,
      "hit": false,
      "t": 113711.61156250001,
      "d": 91.92531249999593,
      "v": 92
    },
    {
      "midi": 96,
      "hit": false,
      "t": 113941.42484375,
      "d": 229.8132812499971,
      "v": 119
    },
    {
      "midi": 62,
      "hit": false,
      "t": 114060.92775000002,
      "d": 762.9800937499967,
      "v": 127
    },
    {
      "midi": 55,
      "hit": false,
      "t": 114281.54850000002,
      "d": 551.5518749999901,
      "v": 127
    },
    {
      "midi": 96,
      "hit": false,
      "t": 114391.858875,
      "d": 266.5834062500071,
      "v": 124
    },
    {
      "midi": 96,
      "hit": false,
      "t": 114851.48543750001,
      "d": 202.23568749999686,
      "v": 124
    },
    {
      "midi": 59,
      "hit": false,
      "t": 114943.41075000001,
      "d": 55.155187500000466,
      "v": 127
    },
    {
      "midi": 55,
      "hit": false,
      "t": 114943.41075000001,
      "d": 128.69543750000594,
      "v": 127
    },
    {
      "midi": 62,
      "hit": false,
      "t": 114943.41075000001,
      "d": 836.5203437500022,
      "v": 127
    },
    {
      "midi": 55,
      "hit": false,
      "t": 115164.03150000001,
      "d": 808.942750000002,
      "v": 127
    },
    {
      "midi": 55,
      "hit": false,
      "t": 116046.51450000002,
      "d": 36.77012499999546,
      "v": 127
    },
    {
      "midi": 59,
      "hit": false,
      "t": 116046.51450000002,
      "d": 726.2099687499867,
      "v": 127
    },
    {
      "midi": 62,
      "hit": false,
      "t": 116046.51450000002,
      "d": 726.2099687499867,
      "v": 127
    },
    {
      "midi": 52,
      "hit": false,
      "t": 116708.37675000001,
      "d": 3300.118718749989,
      "v": 127
    },
    {
      "midi": 57,
      "hit": false,
      "t": 117149.61825000001,
      "d": 910.0605937499931,
      "v": 127
    },
    {
      "midi": 60,
      "hit": false,
      "t": 117370.23900000002,
      "d": 1323.724499999982,
      "v": 127
    },
    {
      "midi": 64,
      "hit": false,
      "t": 117590.85975000002,
      "d": 64.34771874999569,
      "v": 127
    },
    {
      "midi": 72,
      "hit": false,
      "t": 117590.85975000002,
      "d": 753.787562499987,
      "v": 127
    },
    {
      "midi": 69,
      "hit": false,
      "t": 117590.85975000002,
      "d": 790.5576874999824,
      "v": 127
    },
    {
      "midi": 96,
      "hit": false,
      "t": 117655.20746875001,
      "d": 101.1178437500057,
      "v": 127
    },
    {
      "midi": 96,
      "hit": false,
      "t": 117885.02075000003,
      "d": 91.92531249999593,
      "v": 127
    },
    {
      "midi": 96,
      "hit": false,
      "t": 118114.83403125002,
      "d": 73.54025000000547,
      "v": 99
    },
    {
      "midi": 57,
      "hit": false,
      "t": 118252.72200000001,
      "d": 1902.853968749987,
      "v": 127
    },
    {
      "midi": 96,
      "hit": false,
      "t": 118363.03237500002,
      "d": 266.5834062500071,
      "v": 127
    },
    {
      "midi": 72,
      "hit": false,
      "t": 118473.34275,
      "d": 818.1352812499972,
      "v": 127
    },
    {
      "midi": 64,
      "hit": false,
      "t": 118473.34275,
      "d": 827.3278124999924,
      "v": 127
    },
    {
      "midi": 69,
      "hit": false,
      "t": 118473.34275,
      "d": 836.5203437499877,
      "v": 127
    },
    {
      "midi": 60,
      "hit": false,
      "t": 118914.58425,
      "d": 643.477187499986,
      "v": 127
    },
    {
      "midi": 72,
      "hit": false,
      "t": 119576.44649999999,
      "d": 671.0547812500008,
      "v": 127
    },
    {
      "midi": 64,
      "hit": false,
      "t": 119576.44649999999,
      "d": 680.247312499996,
      "v": 127
    },
    {
      "midi": 69,
      "hit": false,
      "t": 119576.44649999999,
      "d": 680.247312499996,
      "v": 127
    },
    {
      "midi": 96,
      "hit": false,
      "t": 119677.56434375003,
      "d": 91.92531249999593,
      "v": 127
    },
    {
      "midi": 60,
      "hit": false,
      "t": 119797.06725,
      "d": 275.7759375000023,
      "v": 127
    },
    {
      "midi": 96,
      "hit": false,
      "t": 119925.76268750003,
      "d": 91.92531249999593,
      "v": 127
    },
    {
      "midi": 96,
      "hit": false,
      "t": 120146.38343750003,
      "d": 91.92531249999593,
      "v": 124
    },
    {
      "midi": 67,
      "hit": false,
      "t": 120238.30875,
      "d": 772.172624999992,
      "v": 127
    },
    {
      "midi": 55,
      "hit": false,
      "t": 120238.30875,
      "d": 3401.2365625000093,
      "v": 127
    },
    {
      "midi": 56,
      "hit": false,
      "t": 120458.92949999998,
      "d": 165.4655625000014,
      "v": 127
    },
    {
      "midi": 59,
      "hit": false,
      "t": 120679.55024999999,
      "d": 1158.2589375000098,
      "v": 127
    },
    {
      "midi": 96,
      "hit": false,
      "t": 120835.82328125002,
      "d": 82.7327812500007,
      "v": 124
    },
    {
      "midi": 96,
      "hit": false,
      "t": 121056.44403125002,
      "d": 128.69543750000594,
      "v": 127
    },
    {
      "midi": 74,
      "hit": false,
      "t": 121120.79174999999,
      "d": 82.7327812500007,
      "v": 127
    },
    {
      "midi": 67,
      "hit": false,
      "t": 121120.79174999999,
      "d": 625.0921249999956,
      "v": 127
    },
    {
      "midi": 71,
      "hit": false,
      "t": 121120.79174999999,
      "d": 643.4771875000006,
      "v": 127
    },
    {
      "midi": 96,
      "hit": false,
      "t": 121479.30046875002,
      "d": 165.4655625000014,
      "v": 127
    },
    {
      "midi": 62,
      "hit": false,
      "t": 121782.654,
      "d": 1746.5809374999953,
      "v": 127
    },
    {
      "midi": 96,
      "hit": false,
      "t": 121902.15690625002,
      "d": 147.0804999999964,
      "v": 127
    },
    {
      "midi": 67,
      "hit": false,
      "t": 122003.27475,
      "d": 735.4024999999965,
      "v": 127
    },
    {
      "midi": 74,
      "hit": false,
      "t": 122003.27475,
      "d": 956.0232499999984,
      "v": 127
    },
    {
      "midi": 71,
      "hit": false,
      "t": 122003.27475,
      "d": 983.6008437499986,
      "v": 127
    },
    {
      "midi": 59,
      "hit": false,
      "t": 122223.8955,
      "d": 1415.649812500007,
      "v": 127
    },
    {
      "midi": 65,
      "hit": false,
      "t": 123106.37849999999,
      "d": 137.88796875000116,
      "v": 127
    },
    {
      "midi": 67,
      "hit": false,
      "t": 123106.37849999999,
      "d": 487.20415625000896,
      "v": 127
    },
    {
      "midi": 71,
      "hit": false,
      "t": 123106.37849999999,
      "d": 496.3966875000042,
      "v": 127
    },
    {
      "midi": 74,
      "hit": false,
      "t": 123106.37849999999,
      "d": 514.7817500000092,
      "v": 127
    },
    {
      "midi": 73,
      "hit": false,
      "t": 123326.99925,
      "d": 9.192531249995227,
      "v": 127
    },
    {
      "midi": 62,
      "hit": false,
      "t": 123547.62,
      "d": 174.65809375001118,
      "v": 127
    },
    {
      "midi": 72,
      "hit": false,
      "t": 123768.24075000001,
      "d": 808.942750000002,
      "v": 127
    },
    {
      "midi": 65,
      "hit": false,
      "t": 123768.24075000001,
      "d": 818.1352812499972,
      "v": 127
    },
    {
      "midi": 53,
      "hit": false,
      "t": 123768.24075000001,
      "d": 3419.6216250000143,
      "v": 127
    },
    {
      "midi": 51,
      "hit": false,
      "t": 123988.86150000001,
      "d": 9.192531249995227,
      "v": 127
    },
    {
      "midi": 57,
      "hit": false,
      "t": 124209.48225000002,
      "d": 3015.1502500000206,
      "v": 127
    },
    {
      "midi": 96,
      "hit": false,
      "t": 124522.02831250001,
      "d": 82.7327812500007,
      "v": 127
    },
    {
      "midi": 65,
      "hit": false,
      "t": 124650.72375,
      "d": 1801.7361250000104,
      "v": 127
    },
    {
      "midi": 72,
      "hit": false,
      "t": 124650.72375,
      "d": 1847.6987812500156,
      "v": 127
    },
    {
      "midi": 96,
      "hit": false,
      "t": 124742.64906250002,
      "d": 239.00581250000687,
      "v": 127
    },
    {
      "midi": 69,
      "hit": false,
      "t": 124871.3445,
      "d": 1783.35106250002,
      "v": 127
    },
    {
      "midi": 96,
      "hit": false,
      "t": 125193.08309375003,
      "d": 73.54025000000547,
      "v": 99
    },
    {
      "midi": 60,
      "hit": false,
      "t": 125312.58600000001,
      "d": 2068.319531250032,
      "v": 127
    },
    {
      "midi": 96,
      "hit": false,
      "t": 125404.51131250004,
      "d": 147.0804999999964,
      "v": 127
    },
    {
      "midi": 96,
      "hit": false,
      "t": 126084.75862500003,
      "d": 82.7327812500007,
      "v": 124
    },
    {
      "midi": 96,
      "hit": false,
      "t": 126314.57190625003,
      "d": 101.1178437500057,
      "v": 119
    },
    {
      "midi": 72,
      "hit": false,
      "t": 126856.93125000002,
      "d": 533.1668125000142,
      "v": 127
    },
    {
      "midi": 65,
      "hit": false,
      "t": 127077.55200000003,
      "d": 128.69543750000594,
      "v": 127
    },
    {
      "midi": 69,
      "hit": false,
      "t": 127077.55200000003,
      "d": 303.3535312500171,
      "v": 127
    },
    {
      "midi": 64,
      "hit": false,
      "t": 127518.79350000004,
      "d": 643.4771875000006,
      "v": 127
    },
    {
      "midi": 67,
      "hit": false,
      "t": 127518.79350000004,
      "d": 790.557687499997,
      "v": 127
    },
    {
      "midi": 71,
      "hit": false,
      "t": 127518.79350000004,
      "d": 799.7502187499922,
      "v": 127
    },
    {
      "midi": 52,
      "hit": false,
      "t": 127518.79350000004,
      "d": 3355.273906250004,
      "v": 127
    },
    {
      "midi": 96,
      "hit": false,
      "t": 128088.73043750004,
      "d": 82.7327812500007,
      "v": 127
    },
    {
      "midi": 96,
      "hit": false,
      "t": 128327.73625000005,
      "d": 82.7327812500007,
      "v": 108
    },
    {
      "midi": 64,
      "hit": false,
      "t": 128401.27650000004,
      "d": 661.8622500000056,
      "v": 127
    },
    {
      "midi": 67,
      "hit": false,
      "t": 128401.27650000004,
      "d": 661.8622500000056,
      "v": 127
    },
    {
      "midi": 71,
      "hit": false,
      "t": 128401.27650000004,
      "d": 707.8249062500108,
      "v": 127
    },
    {
      "midi": 55,
      "hit": false,
      "t": 128401.27650000004,
      "d": 2325.7104062500002,
      "v": 127
    },
    {
      "midi": 96,
      "hit": false,
      "t": 128603.51218750005,
      "d": 128.69543750000594,
      "v": 127
    },
    {
      "midi": 59,
      "hit": false,
      "t": 128842.51800000004,
      "d": 2031.5494062500075,
      "v": 127
    },
    {
      "midi": 96,
      "hit": false,
      "t": 128989.59850000005,
      "d": 174.65809374999662,
      "v": 124
    },
    {
      "midi": 67,
      "hit": false,
      "t": 129283.75950000004,
      "d": 1011.1784374999988,
      "v": 127
    },
    {
      "midi": 64,
      "hit": false,
      "t": 129283.75950000004,
      "d": 1029.5635000000038,
      "v": 127
    },
    {
      "midi": 71,
      "hit": false,
      "t": 129283.75950000004,
      "d": 1093.9112187499995,
      "v": 127
    },
    {
      "midi": 96,
      "hit": false,
      "t": 129440.03253125005,
      "d": 165.4655625000014,
      "v": 127
    },
    {
      "midi": 96,
      "hit": false,
      "t": 129890.46656250005,
      "d": 119.50290624999616,
      "v": 124
    },
    {
      "midi": 71,
      "hit": false,
      "t": 130386.86325000004,
      "d": 514.7817500000092,
      "v": 127
    },
    {
      "midi": 67,
      "hit": false,
      "t": 130607.48400000004,
      "d": 220.62075000000186,
      "v": 127
    },
    {
      "midi": 64,
      "hit": false,
      "t": 130828.10475000004,
      "d": 119.50290625001071,
      "v": 127
    },
    {
      "midi": 51,
      "hit": false,
      "t": 131048.72550000006,
      "d": 36.77012500001001,
      "v": 127
    },
    {
      "midi": 50,
      "hit": false,
      "t": 131048.72550000006,
      "d": 3199.000875000027,
      "v": 127
    },
    {
      "midi": 62,
      "hit": false,
      "t": 131710.58775000006,
      "d": 36.77012500001001,
      "v": 127
    },
    {
      "midi": 65,
      "hit": false,
      "t": 131710.58775000006,
      "d": 64.34771875001024,
      "v": 127
    },
    {
      "midi": 69,
      "hit": false,
      "t": 131710.58775000006,
      "d": 64.34771875001024,
      "v": 127
    },
    {
      "midi": 96,
      "hit": false,
      "t": 131848.47571875004,
      "d": 91.92531250001048,
      "v": 124
    },
    {
      "midi": 53,
      "hit": false,
      "t": 131931.20850000007,
      "d": 900.8680624999979,
      "v": 127
    },
    {
      "midi": 96,
      "hit": false,
      "t": 132069.09646875004,
      "d": 101.11784374999115,
      "v": 119
    },
    {
      "midi": 57,
      "hit": false,
      "t": 132151.82925000007,
      "d": 330.9311250000028,
      "v": 127
    },
    {
      "midi": 96,
      "hit": false,
      "t": 132298.90975000002,
      "d": 101.11784374999115,
      "v": 99
    },
    {
      "midi": 62,
      "hit": false,
      "t": 132372.45000000007,
      "d": 992.7933750000084,
      "v": 127
    },
    {
      "midi": 69,
      "hit": false,
      "t": 132372.45000000007,
      "d": 1001.9859062500182,
      "v": 127
    },
    {
      "midi": 65,
      "hit": false,
      "t": 132372.45000000007,
      "d": 1011.1784375000279,
      "v": 127
    },
    {
      "midi": 96,
      "hit": false,
      "t": 132519.53050000002,
      "d": 110.31037500000093,
      "v": 127
    },
    {
      "midi": 57,
      "hit": false,
      "t": 132813.69150000007,
      "d": 1498.3825937500224,
      "v": 127
    },
    {
      "midi": 53,
      "hit": false,
      "t": 133254.93300000008,
      "d": 992.7933750000084,
      "v": 127
    },
    {
      "midi": 62,
      "hit": false,
      "t": 133475.5537500001,
      "d": 588.3219999999856,
      "v": 127
    },
    {
      "midi": 65,
      "hit": false,
      "t": 133475.5537500001,
      "d": 606.707062499976,
      "v": 127
    },
    {
      "midi": 69,
      "hit": false,
      "t": 133475.5537500001,
      "d": 625.0921249999665,
      "v": 127
    },
    {
      "midi": 96,
      "hit": false,
      "t": 134247.72637500003,
      "d": 64.34771875001024,
      "v": 127
    },
    {
      "midi": 96,
      "hit": false,
      "t": 134495.92471875003,
      "d": 91.92531250001048,
      "v": 127
    },
    {
      "midi": 65,
      "hit": false,
      "t": 134578.6575000001,
      "d": 579.1294687500049,
      "v": 127
    },
    {
      "midi": 72,
      "hit": false,
      "t": 134578.6575000001,
      "d": 625.0921249999956,
      "v": 127
    },
    {
      "midi": 53,
      "hit": false,
      "t": 134578.6575000001,
      "d": 1645.4630937500042,
      "v": 127
    },
    {
      "midi": 96,
      "hit": false,
      "t": 134946.35875000004,
      "d": 64.34771875001024,
      "v": 127
    },
    {
      "midi": 57,
      "hit": false,
      "t": 135019.8990000001,
      "d": 1231.7991875000007,
      "v": 127
    },
    {
      "midi": 96,
      "hit": false,
      "t": 135185.36456250006,
      "d": 82.7327812500007,
      "v": 127
    },
    {
      "midi": 65,
      "hit": false,
      "t": 135461.1405000001,
      "d": 799.7502187500068,
      "v": 127
    },
    {
      "midi": 69,
      "hit": false,
      "t": 135461.1405000001,
      "d": 808.9427500000165,
      "v": 127
    },
    {
      "midi": 72,
      "hit": false,
      "t": 135461.1405000001,
      "d": 827.327812500007,
      "v": 127
    },
    {
      "midi": 60,
      "hit": false,
      "t": 135681.7612500001,
      "d": 413.6639062500035,
      "v": 127
    },
    {
      "midi": 96,
      "hit": false,
      "t": 135828.84175000008,
      "d": 64.34771875001024,
      "v": 127
    },
    {
      "midi": 96,
      "hit": false,
      "t": 136058.6550312501,
      "d": 73.54024999999092,
      "v": 127
    },
    {
      "midi": 71,
      "hit": false,
      "t": 136343.6235000001,
      "d": 27.577593750000233,
      "v": 127
    },
    {
      "midi": 56,
      "hit": false,
      "t": 136343.6235000001,
      "d": 193.04315625000163,
      "v": 127
    },
    {
      "midi": 67,
      "hit": false,
      "t": 136343.6235000001,
      "d": 698.6323750000156,
      "v": 127
    },
    {
      "midi": 74,
      "hit": false,
      "t": 136343.6235000001,
      "d": 717.017437500006,
      "v": 127
    },
    {
      "midi": 55,
      "hit": false,
      "t": 136343.6235000001,
      "d": 8732.904687500064,
      "v": 127
    },
    {
      "midi": 59,
      "hit": false,
      "t": 137005.4857500001,
      "d": 928.4456562499981,
      "v": 127
    },
    {
      "midi": 67,
      "hit": false,
      "t": 137226.1065000001,
      "d": 257.3908750000119,
      "v": 127
    },
    {
      "midi": 71,
      "hit": false,
      "t": 137226.1065000001,
      "d": 753.787562499987,
      "v": 127
    },
    {
      "midi": 74,
      "hit": false,
      "t": 137226.1065000001,
      "d": 790.557687499997,
      "v": 127
    },
    {
      "midi": 62,
      "hit": false,
      "t": 137446.7272500001,
      "d": 487.2041562499944,
      "v": 127
    },
    {
      "midi": 67,
      "hit": false,
      "t": 137667.34800000011,
      "d": 358.508718750003,
      "v": 127
    },
    {
      "midi": 76,
      "hit": false,
      "t": 138108.58950000012,
      "d": 762.9800937499967,
      "v": 127
    },
    {
      "midi": 67,
      "hit": false,
      "t": 138108.58950000012,
      "d": 772.1726250000065,
      "v": 127
    },
    {
      "midi": 72,
      "hit": false,
      "t": 138108.58950000012,
      "d": 772.1726250000065,
      "v": 127
    },
    {
      "midi": 60,
      "hit": false,
      "t": 138108.58950000012,
      "d": 1158.2589375000098,
      "v": 127
    },
    {
      "midi": 64,
      "hit": false,
      "t": 138549.83100000012,
      "d": 1470.8050000000512,
      "v": 127
    },
    {
      "midi": 76,
      "hit": false,
      "t": 138991.07250000013,
      "d": 772.1726250000065,
      "v": 127
    },
    {
      "midi": 72,
      "hit": false,
      "t": 138991.07250000013,
      "d": 781.3651562500163,
      "v": 127
    },
    {
      "midi": 67,
      "hit": false,
      "t": 138991.07250000013,
      "d": 790.5576875000261,
      "v": 127
    },
    {
      "midi": 60,
      "hit": false,
      "t": 139432.31400000013,
      "d": 1875.2763750000158,
      "v": 127
    },
    {
      "midi": 67,
      "hit": false,
      "t": 139873.55550000016,
      "d": 790.557687499997,
      "v": 127
    },
    {
      "midi": 72,
      "hit": false,
      "t": 139873.55550000016,
      "d": 836.5203437499877,
      "v": 127
    },
    {
      "midi": 76,
      "hit": false,
      "t": 139873.55550000016,
      "d": 836.5203437499877,
      "v": 127
    },
    {
      "midi": 64,
      "hit": false,
      "t": 140314.79700000017,
      "d": 680.2473124999669,
      "v": 127
    },
    {
      "midi": 72,
      "hit": false,
      "t": 140756.03850000014,
      "d": 717.017437500006,
      "v": 127
    },
    {
      "midi": 76,
      "hit": false,
      "t": 140756.03850000014,
      "d": 726.2099687500158,
      "v": 127
    },
    {
      "midi": 67,
      "hit": false,
      "t": 140756.03850000014,
      "d": 744.5950312500063,
      "v": 127
    },
    {
      "midi": 64,
      "hit": false,
      "t": 141197.28000000014,
      "d": 275.7759375000023,
      "v": 127
    },
    {
      "midi": 60,
      "hit": false,
      "t": 141638.52150000015,
      "d": 45.96265624999069,
      "v": 127
    },
    {
      "midi": 59,
      "hit": false,
      "t": 141638.52150000015,
      "d": 101.11784374999115,
      "v": 127
    },
    {
      "midi": 74,
      "hit": false,
      "t": 141638.52150000015,
      "d": 744.5950312500063,
      "v": 127
    },
    {
      "midi": 67,
      "hit": false,
      "t": 141638.52150000015,
      "d": 762.9800937499967,
      "v": 127
    },
    {
      "midi": 71,
      "hit": false,
      "t": 141638.52150000015,
      "d": 790.557687499997,
      "v": 127
    },
    {
      "midi": 59,
      "hit": false,
      "t": 142079.76300000015,
      "d": 3042.7278437500354,
      "v": 127
    },
    {
      "midi": 74,
      "hit": false,
      "t": 142521.00450000016,
      "d": 744.5950312500063,
      "v": 127
    },
    {
      "midi": 67,
      "hit": false,
      "t": 142521.00450000016,
      "d": 753.7875625000161,
      "v": 127
    },
    {
      "midi": 71,
      "hit": false,
      "t": 142521.00450000016,
      "d": 781.3651562500163,
      "v": 127
    },
    {
      "midi": 62,
      "hit": false,
      "t": 142962.24600000016,
      "d": 671.0547812500154,
      "v": 127
    },
    {
      "midi": 67,
      "hit": false,
      "t": 143403.48750000016,
      "d": 772.1726250000065,
      "v": 127
    },
    {
      "midi": 71,
      "hit": false,
      "t": 143403.48750000016,
      "d": 781.3651562500163,
      "v": 127
    },
    {
      "midi": 74,
      "hit": false,
      "t": 143403.48750000016,
      "d": 781.3651562500163,
      "v": 127
    },
    {
      "midi": 62,
      "hit": false,
      "t": 143844.72900000017,
      "d": 717.017437500006,
      "v": 127
    },
    {
      "midi": 71,
      "hit": false,
      "t": 144285.97050000017,
      "d": 818.1352812499972,
      "v": 127
    },
    {
      "midi": 67,
      "hit": false,
      "t": 144285.97050000017,
      "d": 827.327812500007,
      "v": 127
    },
    {
      "midi": 74,
      "hit": false,
      "t": 144285.97050000017,
      "d": 845.7128750000265,
      "v": 127
    },
    {
      "midi": 62,
      "hit": false,
      "t": 144727.21200000017,
      "d": 330.9311250000028,
      "v": 127
    },
    {
      "midi": 72,
      "hit": false,
      "t": 145168.4535000002,
      "d": 569.9369374999951,
      "v": 127
    },
    {
      "midi": 65,
      "hit": false,
      "t": 145168.4535000002,
      "d": 597.5145312499953,
      "v": 127
    },
    {
      "midi": 53,
      "hit": false,
      "t": 145609.6950000002,
      "d": 4770.923718750011,
      "v": 127
    },
    {
      "midi": 73,
      "hit": false,
      "t": 146050.9365000002,
      "d": 36.77012500001001,
      "v": 127
    },
    {
      "midi": 69,
      "hit": false,
      "t": 146050.9365000002,
      "d": 790.557687499997,
      "v": 127
    },
    {
      "midi": 65,
      "hit": false,
      "t": 146050.9365000002,
      "d": 799.7502187500068,
      "v": 127
    },
    {
      "midi": 74,
      "hit": false,
      "t": 146050.9365000002,
      "d": 799.7502187500068,
      "v": 127
    },
    {
      "midi": 57,
      "hit": false,
      "t": 146492.17800000022,
      "d": 3217.3859375000175,
      "v": 127
    },
    {
      "midi": 65,
      "hit": false,
      "t": 146933.41950000022,
      "d": 762.9800937499967,
      "v": 127
    },
    {
      "midi": 69,
      "hit": false,
      "t": 146933.41950000022,
      "d": 799.7502187500068,
      "v": 127
    },
    {
      "midi": 74,
      "hit": false,
      "t": 146933.41950000022,
      "d": 808.9427500000165,
      "v": 127
    },
    {
      "midi": 62,
      "hit": false,
      "t": 147374.66100000023,
      "d": 707.8249062499963,
      "v": 127
    },
    {
      "midi": 65,
      "hit": false,
      "t": 147815.90250000023,
      "d": 910.0605937500077,
      "v": 127
    },
    {
      "midi": 74,
      "hit": false,
      "t": 147815.90250000023,
      "d": 928.4456562499981,
      "v": 127
    },
    {
      "midi": 69,
      "hit": false,
      "t": 147815.90250000023,
      "d": 937.6381875000079,
      "v": 127
    },
    {
      "midi": 62,
      "hit": false,
      "t": 148257.14400000023,
      "d": 487.2041562499944,
      "v": 127
    },
    {
      "midi": 65,
      "hit": false,
      "t": 148919.00625000024,
      "d": 569.9369374999951,
      "v": 127
    },
    {
      "midi": 72,
      "hit": false,
      "t": 148919.00625000024,
      "d": 579.1294687500049,
      "v": 127
    },
    {
      "midi": 69,
      "hit": false,
      "t": 148919.00625000024,
      "d": 597.5145312499953,
      "v": 127
    },
    {
      "midi": 60,
      "hit": false,
      "t": 149360.24775000024,
      "d": 983.6008437499986,
      "v": 127
    },
    {
      "midi": 65,
      "hit": false,
      "t": 149580.86850000024,
      "d": 652.6697187499958,
      "v": 127
    },
    {
      "midi": 69,
      "hit": false,
      "t": 149580.86850000024,
      "d": 744.5950312500063,
      "v": 127
    },
    {
      "midi": 72,
      "hit": false,
      "t": 149580.86850000024,
      "d": 744.5950312500063,
      "v": 127
    },
    {
      "midi": 57,
      "hit": false,
      "t": 150022.11000000025,
      "d": 340.12365624998347,
      "v": 127
    },
    {
      "midi": 67,
      "hit": false,
      "t": 150463.35150000022,
      "d": 799.7502187500068,
      "v": 127
    },
    {
      "midi": 74,
      "hit": false,
      "t": 150463.35150000022,
      "d": 818.1352812499972,
      "v": 127
    },
    {
      "midi": 55,
      "hit": false,
      "t": 150463.35150000022,
      "d": 8631.786843750102,
      "v": 127
    },
    {
      "midi": 71,
      "hit": false,
      "t": 150683.97225000022,
      "d": 514.7817499999946,
      "v": 127
    },
    {
      "midi": 59,
      "hit": false,
      "t": 151125.21375000023,
      "d": 845.7128749999974,
      "v": 127
    },
    {
      "midi": 67,
      "hit": false,
      "t": 151345.83450000023,
      "d": 321.738593749993,
      "v": 127
    },
    {
      "midi": 71,
      "hit": false,
      "t": 151345.83450000023,
      "d": 698.6323750000156,
      "v": 127
    },
    {
      "midi": 74,
      "hit": false,
      "t": 151345.83450000023,
      "d": 726.2099687500158,
      "v": 127
    },
    {
      "midi": 62,
      "hit": false,
      "t": 151566.45525000023,
      "d": 468.81909375000396,
      "v": 127
    },
    {
      "midi": 67,
      "hit": false,
      "t": 151787.07600000023,
      "d": 312.54606250001234,
      "v": 127
    },
    {
      "midi": 76,
      "hit": false,
      "t": 152228.31750000024,
      "d": 772.1726250000065,
      "v": 127
    },
    {
      "midi": 67,
      "hit": false,
      "t": 152228.31750000024,
      "d": 790.557687499997,
      "v": 127
    },
    {
      "midi": 72,
      "hit": false,
      "t": 152228.31750000024,
      "d": 799.7502187500068,
      "v": 127
    },
    {
      "midi": 60,
      "hit": false,
      "t": 152228.31750000024,
      "d": 1590.3079062500037,
      "v": 127
    },
    {
      "midi": 64,
      "hit": false,
      "t": 152669.55900000024,
      "d": 55.155187500000466,
      "v": 127
    },
    {
      "midi": 67,
      "hit": false,
      "t": 153110.80050000024,
      "d": 762.9800937499967,
      "v": 127
    },
    {
      "midi": 76,
      "hit": false,
      "t": 153110.80050000024,
      "d": 772.1726250000065,
      "v": 127
    },
    {
      "midi": 72,
      "hit": false,
      "t": 153110.80050000024,
      "d": 781.3651562500163,
      "v": 127
    },
    {
      "midi": 64,
      "hit": false,
      "t": 153552.04200000025,
      "d": 781.3651562500163,
      "v": 127
    },
    {
      "midi": 67,
      "hit": false,
      "t": 153993.28350000025,
      "d": 808.9427500000165,
      "v": 127
    },
    {
      "midi": 76,
      "hit": false,
      "t": 153993.28350000025,
      "d": 836.5203437500168,
      "v": 127
    },
    {
      "midi": 72,
      "hit": false,
      "t": 153993.28350000025,
      "d": 845.7128750000265,
      "v": 127
    },
    {
      "midi": 60,
      "hit": false,
      "t": 153993.28350000025,
      "d": 1452.4199375000317,
      "v": 127
    },
    {
      "midi": 64,
      "hit": false,
      "t": 154434.52500000026,
      "d": 707.8249062500254,
      "v": 127
    },
    {
      "midi": 76,
      "hit": false,
      "t": 154875.7665000003,
      "d": 689.4398437500058,
      "v": 127
    },
    {
      "midi": 72,
      "hit": false,
      "t": 154875.7665000003,
      "d": 707.8249062499963,
      "v": 127
    },
    {
      "midi": 67,
      "hit": false,
      "t": 154875.7665000003,
      "d": 726.2099687500158,
      "v": 127
    },
    {
      "midi": 64,
      "hit": false,
      "t": 155317.0080000003,
      "d": 275.7759375000023,
      "v": 127
    },
    {
      "midi": 67,
      "hit": false,
      "t": 155758.2495000003,
      "d": 790.557687499997,
      "v": 127
    },
    {
      "midi": 71,
      "hit": false,
      "t": 155758.2495000003,
      "d": 808.9427499999874,
      "v": 127
    },
    {
      "midi": 74,
      "hit": false,
      "t": 155758.2495000003,
      "d": 808.9427499999874,
      "v": 127
    },
    {
      "midi": 59,
      "hit": false,
      "t": 155758.2495000003,
      "d": 3309.311250000028,
      "v": 127
    },
    {
      "midi": 62,
      "hit": false,
      "t": 156199.4910000003,
      "d": 643.477187499986,
      "v": 127
    },
    {
      "midi": 67,
      "hit": false,
      "t": 156640.73250000027,
      "d": 762.9800937499967,
      "v": 127
    },
    {
      "midi": 74,
      "hit": false,
      "t": 156640.73250000027,
      "d": 772.1726250000065,
      "v": 127
    },
    {
      "midi": 71,
      "hit": false,
      "t": 156640.73250000027,
      "d": 790.557687499997,
      "v": 127
    },
    {
      "midi": 62,
      "hit": false,
      "t": 157081.97400000028,
      "d": 707.8249062499963,
      "v": 127
    },
    {
      "midi": 67,
      "hit": false,
      "t": 157523.21550000028,
      "d": 753.7875625000161,
      "v": 127
    },
    {
      "midi": 71,
      "hit": false,
      "t": 157523.21550000028,
      "d": 762.9800937500258,
      "v": 127
    },
    {
      "midi": 74,
      "hit": false,
      "t": 157523.21550000028,
      "d": 762.9800937500258,
      "v": 127
    },
    {
      "midi": 62,
      "hit": false,
      "t": 157964.4570000003,
      "d": 689.4398437500349,
      "v": 127
    },
    {
      "midi": 67,
      "hit": false,
      "t": 158405.69850000032,
      "d": 707.8249062499963,
      "v": 127
    },
    {
      "midi": 71,
      "hit": false,
      "t": 158405.69850000032,
      "d": 707.8249062499963,
      "v": 127
    },
    {
      "midi": 74,
      "hit": false,
      "t": 158405.69850000032,
      "d": 744.5950312500063,
      "v": 127
    },
    {
      "midi": 62,
      "hit": false,
      "t": 158846.94000000032,
      "d": 597.5145312499953,
      "v": 127
    },
    {
      "midi": 69,
      "hit": false,
      "t": 159288.18150000033,
      "d": 762.9800937499967,
      "v": 127
    },
    {
      "midi": 65,
      "hit": false,
      "t": 159288.18150000033,
      "d": 781.3651562499872,
      "v": 127
    },
    {
      "midi": 74,
      "hit": false,
      "t": 159288.18150000033,
      "d": 799.7502187499776,
      "v": 127
    },
    {
      "midi": 57,
      "hit": false,
      "t": 159288.18150000033,
      "d": 1222.606656249991,
      "v": 127
    },
    {
      "midi": 53,
      "hit": false,
      "t": 159288.18150000033,
      "d": 4826.078906249953,
      "v": 127
    },
    {
      "midi": 62,
      "hit": false,
      "t": 159729.42300000033,
      "d": 661.8622499999765,
      "v": 127
    },
    {
      "midi": 65,
      "hit": false,
      "t": 160170.6645000003,
      "d": 762.9800937499967,
      "v": 127
    },
    {
      "midi": 74,
      "hit": false,
      "t": 160170.6645000003,
      "d": 781.3651562499872,
      "v": 127
    },
    {
      "midi": 69,
      "hit": false,
      "t": 160170.6645000003,
      "d": 808.9427499999874,
      "v": 127
    },
    {
      "midi": 62,
      "hit": false,
      "t": 160611.9060000003,
      "d": 661.8622499999765,
      "v": 127
    },
    {
      "midi": 57,
      "hit": false,
      "t": 160611.9060000003,
      "d": 2114.28218749995,
      "v": 127
    },
    {
      "midi": 65,
      "hit": false,
      "t": 161053.14750000028,
      "d": 735.4024999999965,
      "v": 127
    },
    {
      "midi": 69,
      "hit": false,
      "t": 161053.14750000028,
      "d": 781.3651562499872,
      "v": 127
    },
    {
      "midi": 74,
      "hit": false,
      "t": 161053.14750000028,
      "d": 781.3651562499872,
      "v": 127
    },
    {
      "midi": 62,
      "hit": false,
      "t": 161494.3890000003,
      "d": 680.2473124999669,
      "v": 127
    },
    {
      "midi": 74,
      "hit": false,
      "t": 161935.63050000026,
      "d": 707.8249062499963,
      "v": 127
    },
    {
      "midi": 65,
      "hit": false,
      "t": 161935.63050000026,
      "d": 717.017437500006,
      "v": 127
    },
    {
      "midi": 69,
      "hit": false,
      "t": 161935.63050000026,
      "d": 762.9800937499967,
      "v": 127
    },
    {
      "midi": 62,
      "hit": false,
      "t": 162376.87200000026,
      "d": 303.35353125000256,
      "v": 127
    },
    {
      "midi": 60,
      "hit": false,
      "t": 162818.11350000027,
      "d": 229.81328125001164,
      "v": 127
    },
    {
      "midi": 65,
      "hit": false,
      "t": 162818.11350000027,
      "d": 753.7875625000161,
      "v": 127
    },
    {
      "midi": 69,
      "hit": false,
      "t": 162818.11350000027,
      "d": 799.7502187500068,
      "v": 127
    },
    {
      "midi": 72,
      "hit": false,
      "t": 162818.11350000027,
      "d": 827.327812500007,
      "v": 127
    },
    {
      "midi": 57,
      "hit": false,
      "t": 162818.11350000027,
      "d": 1268.5693125000107,
      "v": 127
    },
    {
      "midi": 60,
      "hit": false,
      "t": 163259.35500000027,
      "d": 689.4398437500058,
      "v": 127
    },
    {
      "midi": 65,
      "hit": false,
      "t": 163700.59650000028,
      "d": 680.247312499996,
      "v": 127
    },
    {
      "midi": 69,
      "hit": false,
      "t": 163700.59650000028,
      "d": 707.8249062499963,
      "v": 127
    },
    {
      "midi": 72,
      "hit": false,
      "t": 163700.59650000028,
      "d": 707.8249062499963,
      "v": 127
    },
    {
      "midi": 53,
      "hit": false,
      "t": 164141.83800000028,
      "d": 294.1609999999928,
      "v": 127
    },
    {
      "midi": 60,
      "hit": false,
      "t": 164141.83800000028,
      "d": 303.35353125000256,
      "v": 127
    },
    {
      "midi": 57,
      "hit": false,
      "t": 164141.83800000028,
      "d": 312.54606250001234,
      "v": 127
    },
    {
      "midi": 72,
      "hit": false,
      "t": 164583.07950000028,
      "d": 9.192531250009779,
      "v": 127
    },
    {
      "midi": 71,
      "hit": false,
      "t": 164583.07950000028,
      "d": 753.7875625000161,
      "v": 127
    },
    {
      "midi": 67,
      "hit": false,
      "t": 164583.07950000028,
      "d": 762.9800937500258,
      "v": 127
    },
    {
      "midi": 74,
      "hit": false,
      "t": 164583.07950000028,
      "d": 790.5576875000261,
      "v": 127
    },
    {
      "midi": 55,
      "hit": false,
      "t": 164583.07950000028,
      "d": 1700.6182812500629,
      "v": 127
    },
    {
      "midi": 59,
      "hit": false,
      "t": 164803.7002500003,
      "d": 1562.7303125000617,
      "v": 127
    },
    {
      "midi": 62,
      "hit": false,
      "t": 165024.3210000003,
      "d": 689.4398437500349,
      "v": 127
    },
    {
      "midi": 67,
      "hit": false,
      "t": 165465.56250000032,
      "d": 726.2099687500158,
      "v": 127
    },
    {
      "midi": 71,
      "hit": false,
      "t": 165465.56250000032,
      "d": 726.2099687500158,
      "v": 127
    },
    {
      "midi": 74,
      "hit": false,
      "t": 165465.56250000032,
      "d": 744.5950312500063,
      "v": 127
    },
    {
      "midi": 62,
      "hit": false,
      "t": 165906.80400000032,
      "d": 340.1236562500126,
      "v": 127
    },
    {
      "midi": 72,
      "hit": false,
      "t": 166348.04550000036,
      "d": 707.8249062499963,
      "v": 127
    },
    {
      "midi": 69,
      "hit": false,
      "t": 166348.04550000036,
      "d": 753.787562499987,
      "v": 127
    },
    {
      "midi": 64,
      "hit": false,
      "t": 166348.04550000036,
      "d": 781.3651562499872,
      "v": 127
    },
    {
      "midi": 60,
      "hit": false,
      "t": 166348.04550000036,
      "d": 974.4083124999888,
      "v": 127
    },
    {
      "midi": 57,
      "hit": false,
      "t": 166348.04550000036,
      "d": 1406.4572812499828,
      "v": 127
    },
    {
      "midi": 52,
      "hit": false,
      "t": 166348.04550000036,
      "d": 3355.2739062500477,
      "v": 127
    },
    {
      "midi": 64,
      "hit": false,
      "t": 167230.52850000034,
      "d": 349.31618749999325,
      "v": 127
    },
    {
      "midi": 69,
      "hit": false,
      "t": 167230.52850000034,
      "d": 560.7444062500144,
      "v": 127
    },
    {
      "midi": 72,
      "hit": false,
      "t": 167230.52850000034,
      "d": 781.3651562500163,
      "v": 127
    },
    {
      "midi": 96,
      "hit": false,
      "t": 167248.9135625001,
      "d": 73.54024999999092,
      "v": 127
    },
    {
      "midi": 60,
      "hit": false,
      "t": 167451.14925000034,
      "d": 937.638187500037,
      "v": 127
    },
    {
      "midi": 96,
      "hit": false,
      "t": 167460.34178125008,
      "d": 82.7327812500007,
      "v": 119
    },
    {
      "midi": 96,
      "hit": false,
      "t": 167671.77000000008,
      "d": 82.7327812500007,
      "v": 115
    },
    {
      "midi": 64,
      "hit": false,
      "t": 167671.77000000034,
      "d": 340.1236562500126,
      "v": 127
    },
    {
      "midi": 69,
      "hit": false,
      "t": 167892.39075000034,
      "d": 128.6954375000205,
      "v": 127
    },
    {
      "midi": 57,
      "hit": false,
      "t": 167892.39075000034,
      "d": 1838.506250000064,
      "v": 127
    },
    {
      "midi": 96,
      "hit": false,
      "t": 167901.5832812501,
      "d": 432.04896874999395,
      "v": 127
    },
    {
      "midi": 72,
      "hit": false,
      "t": 168113.01150000037,
      "d": 799.7502187500068,
      "v": 127
    },
    {
      "midi": 69,
      "hit": false,
      "t": 168113.01150000037,
      "d": 818.1352812499972,
      "v": 127
    },
    {
      "midi": 64,
      "hit": false,
      "t": 168113.01150000037,
      "d": 845.7128749999974,
      "v": 127
    },
    {
      "midi": 60,
      "hit": false,
      "t": 168554.25300000038,
      "d": 560.7444062500144,
      "v": 127
    },
    {
      "midi": 64,
      "hit": false,
      "t": 168995.49450000038,
      "d": 661.8622500000056,
      "v": 127
    },
    {
      "midi": 72,
      "hit": false,
      "t": 168995.49450000038,
      "d": 661.8622500000056,
      "v": 127
    },
    {
      "midi": 69,
      "hit": false,
      "t": 168995.49450000038,
      "d": 671.0547812500154,
      "v": 127
    },
    {
      "midi": 60,
      "hit": false,
      "t": 169436.73600000038,
      "d": 284.9684687500121,
      "v": 127
    },
    {
      "midi": 96,
      "hit": false,
      "t": 169666.54928125007,
      "d": 64.34771875001024,
      "v": 115
    },
    {
      "midi": 74,
      "hit": false,
      "t": 169877.97750000042,
      "d": 735.4024999999965,
      "v": 127
    },
    {
      "midi": 67,
      "hit": false,
      "t": 169877.97750000042,
      "d": 772.1726250000065,
      "v": 127
    },
    {
      "midi": 55,
      "hit": false,
      "t": 169877.97750000042,
      "d": 3346.081375000038,
      "v": 127
    },
    {
      "midi": 96,
      "hit": false,
      "t": 169914.74762500008,
      "d": 165.4655625000014,
      "v": 127
    },
    {
      "midi": 59,
      "hit": false,
      "t": 170319.21900000042,
      "d": 2914.032406250044,
      "v": 127
    },
    {
      "midi": 96,
      "hit": false,
      "t": 170346.79659375007,
      "d": 55.155187500000466,
      "v": 112
    },
    {
      "midi": 62,
      "hit": false,
      "t": 170539.83975000042,
      "d": 422.85643750001327,
      "v": 127
    },
    {
      "midi": 96,
      "hit": false,
      "t": 170558.22481250006,
      "d": 101.11784374999115,
      "v": 127
    },
    {
      "midi": 67,
      "hit": false,
      "t": 170760.46050000042,
      "d": 625.0921249999956,
      "v": 127
    },
    {
      "midi": 74,
      "hit": false,
      "t": 170760.46050000042,
      "d": 1654.655625000014,
      "v": 127
    },
    {
      "midi": 71,
      "hit": false,
      "t": 170760.46050000042,
      "d": 1663.8481562500237,
      "v": 127
    },
    {
      "midi": 96,
      "hit": false,
      "t": 171017.85137500006,
      "d": 91.92531250001048,
      "v": 127
    },
    {
      "midi": 62,
      "hit": false,
      "t": 171201.70200000043,
      "d": 284.9684687500121,
      "v": 127
    },
    {
      "midi": 67,
      "hit": false,
      "t": 171422.32275000043,
      "d": 974.4083125000179,
      "v": 127
    },
    {
      "midi": 96,
      "hit": false,
      "t": 171477.47793750008,
      "d": 147.08050000001094,
      "v": 127
    },
    {
      "midi": 62,
      "hit": false,
      "t": 171863.56425000043,
      "d": 358.508718750003,
      "v": 127
    },
    {
      "midi": 62,
      "hit": false,
      "t": 172304.80575000044,
      "d": 910.0605937500077,
      "v": 127
    },
    {
      "midi": 67,
      "hit": false,
      "t": 172525.42650000044,
      "d": 321.738593749993,
      "v": 127
    },
    {
      "midi": 74,
      "hit": false,
      "t": 172525.42650000044,
      "d": 680.247312499996,
      "v": 127
    },
    {
      "midi": 71,
      "hit": false,
      "t": 172746.04725000044,
      "d": 496.3966875000333,
      "v": 127
    },
    {
      "midi": 67,
      "hit": false,
      "t": 172966.66800000044,
      "d": 257.3908750000119,
      "v": 127
    },
    {
      "midi": 52,
      "hit": false,
      "t": 173407.90950000047,
      "d": 55.155187500000466,
      "v": 127
    },
    {
      "midi": 53,
      "hit": false,
      "t": 173407.90950000047,
      "d": 82.7327812500007,
      "v": 127
    },
    {
      "midi": 64,
      "hit": false,
      "t": 173407.90950000047,
      "d": 735.4024999999965,
      "v": 127
    },
    {
      "midi": 72,
      "hit": false,
      "t": 173407.90950000047,
      "d": 753.787562499987,
      "v": 127
    },
    {
      "midi": 69,
      "hit": false,
      "t": 173407.90950000047,
      "d": 772.1726249999774,
      "v": 127
    },
    {
      "midi": 52,
      "hit": false,
      "t": 173849.15100000048,
      "d": 2270.5552187499707,
      "v": 127
    },
    {
      "midi": 57,
      "hit": false,
      "t": 174069.77175000048,
      "d": 579.1294687499758,
      "v": 127
    },
    {
      "midi": 64,
      "hit": false,
      "t": 174290.39250000045,
      "d": 772.1726250000065,
      "v": 127
    },
    {
      "midi": 69,
      "hit": false,
      "t": 174290.39250000045,
      "d": 790.557687499997,
      "v": 127
    },
    {
      "midi": 72,
      "hit": false,
      "t": 174290.39250000045,
      "d": 799.7502187500068,
      "v": 127
    },
    {
      "midi": 96,
      "hit": false,
      "t": 174317.9700937501,
      "d": 73.54024999999092,
      "v": 127
    },
    {
      "midi": 60,
      "hit": false,
      "t": 174511.01325000045,
      "d": 395.27884375001304,
      "v": 127
    },
    {
      "midi": 96,
      "hit": false,
      "t": 174529.3983125001,
      "d": 73.54024999999092,
      "v": 127
    },
    {
      "midi": 57,
      "hit": false,
      "t": 174731.63400000046,
      "d": 735.4024999999965,
      "v": 127
    },
    {
      "midi": 96,
      "hit": false,
      "t": 174740.8265312501,
      "d": 73.54024999999092,
      "v": 127
    },
    {
      "midi": 60,
      "hit": false,
      "t": 174952.25475000046,
      "d": 303.35353125000256,
      "v": 127
    },
    {
      "midi": 96,
      "hit": false,
      "t": 174970.63981250007,
      "d": 165.4655625000014,
      "v": 127
    },
    {
      "midi": 64,
      "hit": false,
      "t": 175172.87550000046,
      "d": 762.9800937499967,
      "v": 127
    },
    {
      "midi": 69,
      "hit": false,
      "t": 175172.87550000046,
      "d": 762.9800937499967,
      "v": 127
    },
    {
      "midi": 72,
      "hit": false,
      "t": 175172.87550000046,
      "d": 762.9800937499967,
      "v": 127
    },
    {
      "midi": 57,
      "hit": false,
      "t": 175614.11700000046,
      "d": 487.2041562499944,
      "v": 127
    },
    {
      "midi": 60,
      "hit": false,
      "t": 175614.11700000046,
      "d": 487.2041562499944,
      "v": 127
    },
    {
      "midi": 64,
      "hit": false,
      "t": 176055.35850000047,
      "d": 284.968468749983,
      "v": 127
    },
    {
      "midi": 69,
      "hit": false,
      "t": 176055.35850000047,
      "d": 450.4340312499844,
      "v": 127
    },
    {
      "midi": 72,
      "hit": false,
      "t": 176055.35850000047,
      "d": 707.8249062499963,
      "v": 127
    },
    {
      "midi": 96,
      "hit": false,
      "t": 176266.78671875008,
      "d": 82.7327812500007,
      "v": 119
    },
    {
      "midi": 52,
      "hit": false,
      "t": 176275.97925000044,
      "d": 478.01162500001374,
      "v": 127
    },
    {
      "midi": 57,
      "hit": false,
      "t": 176275.97925000044,
      "d": 505.58921875001397,
      "v": 127
    },
    {
      "midi": 60,
      "hit": false,
      "t": 176275.97925000044,
      "d": 505.58921875001397,
      "v": 127
    },
    {
      "midi": 96,
      "hit": false,
      "t": 176487.40746875008,
      "d": 73.54024999999092,
      "v": 127
    },
    {
      "midi": 64,
      "hit": false,
      "t": 176496.60000000044,
      "d": 294.1610000000219,
      "v": 127
    },
    {
      "midi": 96,
      "hit": false,
      "t": 176717.22075000007,
      "d": 137.88796875000116,
      "v": 127
    },
    {
      "midi": 69,
      "hit": false,
      "t": 176717.22075000044,
      "d": 137.88796875003027,
      "v": 127
    },
    {
      "midi": 67,
      "hit": false,
      "t": 176937.84150000048,
      "d": 680.247312499996,
      "v": 127
    },
    {
      "midi": 74,
      "hit": false,
      "t": 176937.84150000048,
      "d": 689.4398437500058,
      "v": 127
    },
    {
      "midi": 55,
      "hit": false,
      "t": 176937.84150000048,
      "d": 3254.1560625000857,
      "v": 127
    },
    {
      "midi": 59,
      "hit": false,
      "t": 177379.08300000048,
      "d": 1204.2215937500296,
      "v": 127
    },
    {
      "midi": 96,
      "hit": false,
      "t": 177434.23818750007,
      "d": 73.54024999999092,
      "v": 112
    },
    {
      "midi": 96,
      "hit": false,
      "t": 177664.05146875005,
      "d": 193.04315625000163,
      "v": 127
    },
    {
      "midi": 67,
      "hit": false,
      "t": 177820.32450000048,
      "d": 560.7444062500144,
      "v": 127
    },
    {
      "midi": 74,
      "hit": false,
      "t": 177820.32450000048,
      "d": 569.9369375000242,
      "v": 127
    },
    {
      "midi": 71,
      "hit": false,
      "t": 177820.32450000048,
      "d": 579.129468750034,
      "v": 127
    },
    {
      "midi": 96,
      "hit": false,
      "t": 178077.71537500006,
      "d": 174.65809375001118,
      "v": 127
    },
    {
      "midi": 62,
      "hit": false,
      "t": 178261.5660000005,
      "d": 294.1610000000219,
      "v": 127
    },
    {
      "midi": 67,
      "hit": false,
      "t": 178482.18675000052,
      "d": 1158.2589375000098,
      "v": 127
    },
    {
      "midi": 74,
      "hit": false,
      "t": 178482.18675000052,
      "d": 1195.0290625000198,
      "v": 127
    },
    {
      "midi": 71,
      "hit": false,
      "t": 178482.18675000052,
      "d": 1204.2215937500296,
      "v": 127
    },
    {
      "midi": 96,
      "hit": false,
      "t": 178500.57181250007,
      "d": 156.27303124999162,
      "v": 127
    },
    {
      "midi": 59,
      "hit": false,
      "t": 178702.80750000052,
      "d": 1498.3825937500515,
      "v": 127
    },
    {
      "midi": 62,
      "hit": false,
      "t": 179144.04900000052,
      "d": 762.9800937500258,
      "v": 127
    },
    {
      "midi": 74,
      "hit": false,
      "t": 179805.91125000056,
      "d": 386.08631250000326,
      "v": 127
    },
    {
      "midi": 67,
      "hit": false,
      "t": 179805.91125000056,
      "d": 413.6639062500035,
      "v": 127
    },
    {
      "midi": 71,
      "hit": false,
      "t": 179805.91125000056,
      "d": 413.6639062500035,
      "v": 127
    },
    {
      "midi": 65,
      "hit": false,
      "t": 180467.77350000056,
      "d": 2353.2880000000005,
      "v": 127
    },
    {
      "midi": 69,
      "hit": false,
      "t": 180467.77350000056,
      "d": 2390.0581250000105,
      "v": 127
    },
    {
      "midi": 72,
      "hit": false,
      "t": 180467.77350000056,
      "d": 2408.443187500001,
      "v": 127
    },
    {
      "midi": 53,
      "hit": false,
      "t": 180467.77350000056,
      "d": 3263.348593750008,
      "v": 127
    },
    {
      "midi": 57,
      "hit": false,
      "t": 180909.01500000057,
      "d": 2868.069749999995,
      "v": 127
    },
    {
      "midi": 96,
      "hit": false,
      "t": 181129.63575000007,
      "d": 73.54024999999092,
      "v": 102
    },
    {
      "midi": 60,
      "hit": false,
      "t": 181350.25650000057,
      "d": 2371.673062499991,
      "v": 127
    },
    {
      "midi": 96,
      "hit": false,
      "t": 181359.44903125006,
      "d": 266.58340624999255,
      "v": 127
    },
    {
      "midi": 96,
      "hit": false,
      "t": 181819.07559375005,
      "d": 64.34771875001024,
      "v": 115
    },
    {
      "midi": 96,
      "hit": false,
      "t": 182039.69634375005,
      "d": 257.3908750000119,
      "v": 127
    },
    {
      "midi": 96,
      "hit": false,
      "t": 182664.78846875008,
      "d": 64.34771875001024,
      "v": 119
    },
    {
      "midi": 96,
      "hit": false,
      "t": 182903.7942812501,
      "d": 91.92531250001048,
      "v": 127
    },
    {
      "midi": 72,
      "hit": false,
      "t": 183115.22250000056,
      "d": 643.4771875000151,
      "v": 127
    },
    {
      "midi": 69,
      "hit": false,
      "t": 183335.84325000056,
      "d": 487.2041562500235,
      "v": 127
    },
    {
      "midi": 65,
      "hit": false,
      "t": 183556.46400000056,
      "d": 229.81328125001164,
      "v": 127
    },
    {
      "midi": 67,
      "hit": false,
      "t": 183997.7055000006,
      "d": 2481.983437500021,
      "v": 127
    },
    {
      "midi": 71,
      "hit": false,
      "t": 183997.7055000006,
      "d": 2564.7162187500217,
      "v": 127
    },
    {
      "midi": 52,
      "hit": false,
      "t": 183997.7055000006,
      "d": 3428.8141562500095,
      "v": 127
    },
    {
      "midi": 64,
      "hit": false,
      "t": 184438.9470000006,
      "d": 2114.282187500008,
      "v": 127
    },
    {
      "midi": 96,
      "hit": false,
      "t": 184650.37521875012,
      "d": 73.54024999999092,
      "v": 127
    },
    {
      "midi": 96,
      "hit": false,
      "t": 184870.99596875013,
      "d": 101.11784374999115,
      "v": 124
    },
    {
      "midi": 55,
      "hit": false,
      "t": 184880.1885000006,
      "d": 2546.331156250002,
      "v": 127
    },
    {
      "midi": 96,
      "hit": false,
      "t": 185100.8092500001,
      "d": 137.88796875000116,
      "v": 124
    },
    {
      "midi": 59,
      "hit": false,
      "t": 185321.4300000006,
      "d": 2141.8597812500084,
      "v": 127
    },
    {
      "midi": 96,
      "hit": false,
      "t": 185560.4358125001,
      "d": 101.11784374999115,
      "v": 127
    },
    {
      "midi": 96,
      "hit": false,
      "t": 186001.6773125001,
      "d": 91.92531250001048,
      "v": 127
    },
    {
      "midi": 96,
      "hit": false,
      "t": 186442.9188125001,
      "d": 110.31037500000093,
      "v": 127
    },
    {
      "midi": 71,
      "hit": false,
      "t": 186645.15450000062,
      "d": 625.0921249999956,
      "v": 127
    },
    {
      "midi": 67,
      "hit": false,
      "t": 186865.77525000062,
      "d": 432.04896874999395,
      "v": 127
    },
    {
      "midi": 64,
      "hit": false,
      "t": 187086.39600000062,
      "d": 229.81328124998254,
      "v": 127
    },
    {
      "midi": 66,
      "hit": false,
      "t": 187527.63750000062,
      "d": 257.3908750000119,
      "v": 127
    },
    {
      "midi": 69,
      "hit": false,
      "t": 187527.63750000062,
      "d": 790.557687499997,
      "v": 127
    },
    {
      "midi": 62,
      "hit": false,
      "t": 187527.63750000062,
      "d": 2436.020781250001,
      "v": 127
    },
    {
      "midi": 65,
      "hit": false,
      "t": 187527.63750000062,
      "d": 2463.5983750000014,
      "v": 127
    },
    {
      "midi": 50,
      "hit": false,
      "t": 187968.87900000063,
      "d": 2914.032406249986,
      "v": 127
    },
    {
      "midi": 69,
      "hit": false,
      "t": 188410.12050000063,
      "d": 1627.0780312499846,
      "v": 127
    },
    {
      "midi": 53,
      "hit": false,
      "t": 188410.12050000063,
      "d": 2417.6357187499816,
      "v": 127
    },
    {
      "midi": 96,
      "hit": false,
      "t": 188465.2756875001,
      "d": 73.54024999999092,
      "v": 119
    },
    {
      "midi": 96,
      "hit": false,
      "t": 188685.8964375001,
      "d": 82.7327812500007,
      "v": 108
    },
    {
      "midi": 96,
      "hit": false,
      "t": 188906.5171875001,
      "d": 73.54024999999092,
      "v": 124
    },
    {
      "midi": 96,
      "hit": false,
      "t": 189127.1379375001,
      "d": 91.92531250001048,
      "v": 127
    },
    {
      "midi": 57,
      "hit": false,
      "t": 189292.60350000064,
      "d": 1195.0290624999907,
      "v": 127
    },
    {
      "midi": 62,
      "hit": false,
      "t": 190175.08650000062,
      "d": 689.4398437500058,
      "v": 127
    },
    {
      "midi": 65,
      "hit": false,
      "t": 190175.08650000062,
      "d": 735.4024999999965,
      "v": 127
    },
    {
      "midi": 69,
      "hit": false,
      "t": 190175.08650000062,
      "d": 735.4024999999965,
      "v": 127
    },
    {
      "midi": 57,
      "hit": false,
      "t": 190616.32800000062,
      "d": 321.738593749993,
      "v": 127
    },
    {
      "midi": 96,
      "hit": false,
      "t": 190846.14128125014,
      "d": 73.54024999999092,
      "v": 119
    },
    {
      "midi": 51,
      "hit": false,
      "t": 191057.56950000062,
      "d": 211.42821874999208,
      "v": 127
    },
    {
      "midi": 53,
      "hit": false,
      "t": 191057.56950000062,
      "d": 211.42821874999208,
      "v": 127
    },
    {
      "midi": 65,
      "hit": false,
      "t": 191057.56950000062,
      "d": 661.8622500000056,
      "v": 127
    },
    {
      "midi": 72,
      "hit": false,
      "t": 191057.56950000062,
      "d": 707.8249062499963,
      "v": 127
    },
    {
      "midi": 96,
      "hit": false,
      "t": 191085.14709375013,
      "d": 128.69543749999139,
      "v": 127
    },
    {
      "midi": 53,
      "hit": false,
      "t": 191498.81100000063,
      "d": 1461.6124687500414,
      "v": 127
    },
    {
      "midi": 96,
      "hit": false,
      "t": 191563.1587187501,
      "d": 82.7327812500007,
      "v": 127
    },
    {
      "midi": 57,
      "hit": false,
      "t": 191719.43175000063,
      "d": 1149.066406250029,
      "v": 127
    },
    {
      "midi": 96,
      "hit": false,
      "t": 191811.35706250012,
      "d": 119.50290625001071,
      "v": 127
    },
    {
      "midi": 65,
      "hit": false,
      "t": 192160.67325000063,
      "d": 560.7444062500144,
      "v": 127
    },
    {
      "midi": 69,
      "hit": false,
      "t": 192160.67325000063,
      "d": 671.0547812500154,
      "v": 127
    },
    {
      "midi": 72,
      "hit": false,
      "t": 192160.67325000063,
      "d": 680.2473125000251,
      "v": 127
    },
    {
      "midi": 60,
      "hit": false,
      "t": 192381.29400000063,
      "d": 441.2415000000037,
      "v": 127
    },
    {
      "midi": 96,
      "hit": false,
      "t": 192491.60437500014,
      "d": 64.34771875001024,
      "v": 127
    },
    {
      "midi": 96,
      "hit": false,
      "t": 192730.61018750016,
      "d": 73.54024999999092,
      "v": 127
    },
    {
      "midi": 71,
      "hit": false,
      "t": 193043.15625000067,
      "d": 9.192531250009779,
      "v": 127
    },
    {
      "midi": 67,
      "hit": false,
      "t": 193043.15625000067,
      "d": 533.1668125000142,
      "v": 127
    },
    {
      "midi": 74,
      "hit": false,
      "t": 193043.15625000067,
      "d": 551.5518750000047,
      "v": 127
    },
    {
      "midi": 55,
      "hit": false,
      "t": 193043.15625000067,
      "d": 8466.32128125013,
      "v": 127
    },
    {
      "midi": 59,
      "hit": false,
      "t": 193484.39775000067,
      "d": 900.8680624999979,
      "v": 127
    },
    {
      "midi": 67,
      "hit": false,
      "t": 193705.01850000067,
      "d": 340.1236562500126,
      "v": 127
    },
    {
      "midi": 71,
      "hit": false,
      "t": 193705.01850000067,
      "d": 744.5950312500063,
      "v": 127
    },
    {
      "midi": 74,
      "hit": false,
      "t": 193705.01850000067,
      "d": 762.9800937500258,
      "v": 127
    },
    {
      "midi": 62,
      "hit": false,
      "t": 193925.63925000068,
      "d": 533.1668125000142,
      "v": 127
    },
    {
      "midi": 67,
      "hit": false,
      "t": 194146.26000000068,
      "d": 349.31618750002235,
      "v": 127
    },
    {
      "midi": 72,
      "hit": false,
      "t": 194587.5015000007,
      "d": 781.3651562500163,
      "v": 127
    },
    {
      "midi": 76,
      "hit": false,
      "t": 194587.5015000007,
      "d": 781.3651562500163,
      "v": 127
    },
    {
      "midi": 67,
      "hit": false,
      "t": 194587.5015000007,
      "d": 799.7502187500068,
      "v": 127
    },
    {
      "midi": 60,
      "hit": false,
      "t": 194587.5015000007,
      "d": 1130.6813437500095,
      "v": 127
    },
    {
      "midi": 64,
      "hit": false,
      "t": 195028.74300000072,
      "d": 1544.345250000013,
      "v": 127
    },
    {
      "midi": 67,
      "hit": false,
      "t": 195469.98450000072,
      "d": 799.7502187500068,
      "v": 127
    },
    {
      "midi": 72,
      "hit": false,
      "t": 195469.98450000072,
      "d": 818.1352812499972,
      "v": 127
    },
    {
      "midi": 76,
      "hit": false,
      "t": 195469.98450000072,
      "d": 818.1352812499972,
      "v": 127
    },
    {
      "midi": 60,
      "hit": false,
      "t": 195911.22600000072,
      "d": 1958.0091562500165,
      "v": 127
    },
    {
      "midi": 67,
      "hit": false,
      "t": 196352.46750000073,
      "d": 772.1726250000065,
      "v": 127
    },
    {
      "midi": 72,
      "hit": false,
      "t": 196352.46750000073,
      "d": 772.1726250000065,
      "v": 127
    },
    {
      "midi": 76,
      "hit": false,
      "t": 196352.46750000073,
      "d": 790.557687499997,
      "v": 127
    },
    {
      "midi": 64,
      "hit": false,
      "t": 196793.70900000073,
      "d": 671.0547812500154,
      "v": 127
    },
    {
      "midi": 72,
      "hit": false,
      "t": 197234.95050000073,
      "d": 698.6323750000156,
      "v": 127
    },
    {
      "midi": 67,
      "hit": false,
      "t": 197234.95050000073,
      "d": 726.2099687500158,
      "v": 127
    },
    {
      "midi": 76,
      "hit": false,
      "t": 197234.95050000073,
      "d": 753.7875625000161,
      "v": 127
    },
    {
      "midi": 64,
      "hit": false,
      "t": 197676.19200000074,
      "d": 294.1610000000219,
      "v": 127
    },
    {
      "midi": 67,
      "hit": false,
      "t": 198117.43350000074,
      "d": 772.1726250000065,
      "v": 127
    },
    {
      "midi": 74,
      "hit": false,
      "t": 198117.43350000074,
      "d": 781.3651562500163,
      "v": 127
    },
    {
      "midi": 71,
      "hit": false,
      "t": 198117.43350000074,
      "d": 799.7502187500068,
      "v": 127
    },
    {
      "midi": 59,
      "hit": false,
      "t": 198117.43350000074,
      "d": 1617.885500000004,
      "v": 127
    },
    {
      "midi": 62,
      "hit": false,
      "t": 198558.67500000075,
      "d": 680.247312499996,
      "v": 127
    },
    {
      "midi": 67,
      "hit": false,
      "t": 198999.91650000075,
      "d": 1167.4514687500196,
      "v": 127
    },
    {
      "midi": 74,
      "hit": false,
      "t": 198999.91650000075,
      "d": 1259.37678125003,
      "v": 127
    },
    {
      "midi": 71,
      "hit": false,
      "t": 198999.91650000075,
      "d": 1268.5693125000398,
      "v": 127
    },
    {
      "midi": 62,
      "hit": false,
      "t": 199661.77875000075,
      "d": 937.638187500037,
      "v": 127
    },
    {
      "midi": 67,
      "hit": false,
      "t": 200323.6410000008,
      "d": 395.27884375001304,
      "v": 127
    },
    {
      "midi": 71,
      "hit": false,
      "t": 200323.6410000008,
      "d": 1167.4514687500196,
      "v": 127
    },
    {
      "midi": 74,
      "hit": false,
      "t": 200323.6410000008,
      "d": 1250.1842500000203,
      "v": 127
    },
    {
      "midi": 59,
      "hit": false,
      "t": 200544.2617500008,
      "d": 45.96265624999069,
      "v": 127
    },
    {
      "midi": 67,
      "hit": false,
      "t": 200764.8825000008,
      "d": 689.4398437500058,
      "v": 127
    },
    {
      "midi": 62,
      "hit": false,
      "t": 200985.5032500008,
      "d": 551.5518750000047,
      "v": 127
    },
    {
      "midi": 62,
      "hit": false,
      "t": 201647.3655000008,
      "d": 275.7759375000023,
      "v": 127
    },
    {
      "midi": 65,
      "hit": false,
      "t": 201647.3655000008,
      "d": 799.7502187500068,
      "v": 127
    },
    {
      "midi": 69,
      "hit": false,
      "t": 201647.3655000008,
      "d": 799.7502187500068,
      "v": 127
    },
    {
      "midi": 74,
      "hit": false,
      "t": 201647.3655000008,
      "d": 827.327812500007,
      "v": 127
    },
    {
      "midi": 57,
      "hit": false,
      "t": 201647.3655000008,
      "d": 5184.587625000073,
      "v": 127
    },
    {
      "midi": 53,
      "hit": false,
      "t": 201647.3655000008,
      "d": 5193.780156250083,
      "v": 127
    },
    {
      "midi": 62,
      "hit": false,
      "t": 202088.6070000008,
      "d": 634.2846562500054,
      "v": 127
    },
    {
      "midi": 74,
      "hit": false,
      "t": 202529.8485000008,
      "d": 799.7502187500068,
      "v": 127
    },
    {
      "midi": 65,
      "hit": false,
      "t": 202750.4692500008,
      "d": 726.2099687500158,
      "v": 127
    },
    {
      "midi": 62,
      "hit": false,
      "t": 203191.7107500008,
      "d": 597.5145312499953,
      "v": 127
    },
    {
      "midi": 69,
      "hit": false,
      "t": 203412.33150000082,
      "d": 119.50290625001071,
      "v": 127
    },
    {
      "midi": 65,
      "hit": false,
      "t": 203632.95225000082,
      "d": 753.7875625000161,
      "v": 127
    },
    {
      "midi": 74,
      "hit": false,
      "t": 203632.95225000082,
      "d": 790.5576875000261,
      "v": 127
    },
    {
      "midi": 62,
      "hit": false,
      "t": 204074.19375000082,
      "d": 707.8249062500254,
      "v": 127
    },
    {
      "midi": 69,
      "hit": false,
      "t": 204294.81450000082,
      "d": 753.7875625000452,
      "v": 127
    },
    {
      "midi": 65,
      "hit": false,
      "t": 204515.43525000085,
      "d": 726.2099687500158,
      "v": 127
    },
    {
      "midi": 74,
      "hit": false,
      "t": 204515.43525000085,
      "d": 726.2099687500158,
      "v": 127
    },
    {
      "midi": 62,
      "hit": false,
      "t": 204956.67675000086,
      "d": 284.9684687500121,
      "v": 127
    },
    {
      "midi": 69,
      "hit": false,
      "t": 205177.29750000086,
      "d": 781.3651562500163,
      "v": 127
    },
    {
      "midi": 72,
      "hit": false,
      "t": 205177.29750000086,
      "d": 781.3651562500163,
      "v": 127
    },
    {
      "midi": 60,
      "hit": false,
      "t": 205397.91825000086,
      "d": 202.2356875000114,
      "v": 127
    },
    {
      "midi": 65,
      "hit": false,
      "t": 205397.91825000086,
      "d": 753.7875625000161,
      "v": 127
    },
    {
      "midi": 60,
      "hit": false,
      "t": 205839.15975000086,
      "d": 560.7444062500144,
      "v": 127
    },
    {
      "midi": 65,
      "hit": false,
      "t": 206280.40125000087,
      "d": 707.8249062500254,
      "v": 127
    },
    {
      "midi": 69,
      "hit": false,
      "t": 206280.40125000087,
      "d": 781.3651562500454,
      "v": 127
    },
    {
      "midi": 72,
      "hit": false,
      "t": 206280.40125000087,
      "d": 781.3651562500454,
      "v": 127
    },
    {
      "midi": 60,
      "hit": false,
      "t": 206721.64275000087,
      "d": 275.77593750003143,
      "v": 127
    },
    {
      "midi": 56,
      "hit": false,
      "t": 207162.8842500009,
      "d": 9.192531250009779,
      "v": 127
    },
    {
      "midi": 74,
      "hit": false,
      "t": 207162.8842500009,
      "d": 2068.3195312500175,
      "v": 127
    },
    {
      "midi": 67,
      "hit": false,
      "t": 207162.8842500009,
      "d": 2114.282187500008,
      "v": 127
    },
    {
      "midi": 55,
      "hit": false,
      "t": 207162.8842500009,
      "d": 6719.740343750018,
      "v": 127
    },
    {
      "midi": 59,
      "hit": false,
      "t": 207383.5050000009,
      "d": 1617.885500000004,
      "v": 127
    },
    {
      "midi": 71,
      "hit": false,
      "t": 207824.7465000009,
      "d": 1378.8796875000116,
      "v": 127
    },
    {
      "midi": 62,
      "hit": false,
      "t": 208045.3672500009,
      "d": 275.7759375000023,
      "v": 127
    },
    {
      "midi": 62,
      "hit": false,
      "t": 208707.22950000092,
      "d": 496.3966875000042,
      "v": 127
    },
    {
      "midi": 72,
      "hit": false,
      "t": 209369.09175000092,
      "d": 2481.983437499992,
      "v": 127
    },
    {
      "midi": 67,
      "hit": false,
      "t": 209369.09175000092,
      "d": 2518.753562500002,
      "v": 127
    },
    {
      "midi": 76,
      "hit": false,
      "t": 209369.09175000092,
      "d": 2518.753562500002,
      "v": 127
    },
    {
      "midi": 60,
      "hit": false,
      "t": 209369.09175000092,
      "d": 4338.874749999988,
      "v": 127
    },
    {
      "midi": 64,
      "hit": false,
      "t": 209810.33325000093,
      "d": 3980.366031249985,
      "v": 127
    },
    {
      "midi": 84,
      "hit": false,
      "t": 212237.16150000092,
      "d": 680.247312499996,
      "v": 127
    }
  ]
}