{
  "jsonPath": "Unknown/Unknown/Dennis Bathory-Kitsz/brand-9-from-outer-space.json",
  "path": "Unknown\\Unknown\\Dennis Bathory-Kitsz\\Brand 9 From Outer Space.mid",
  "name": "Brand 9 From Outer Space",
  "difficulty": "Advanced",
  "bpm": 120,
  "notes": [
    {
      "midi": 48,
      "hit": false,
      "t": 0,
      "d": 750,
      "v": 100
    },
    {
      "midi": 60,
      "hit": false,
      "t": 500,
      "d": 500,
      "v": 100
    },
    {
      "midi": 63,
      "hit": false,
      "t": 500,
      "d": 500,
      "v": 100
    },
    {
      "midi": 68,
      "hit": false,
      "t": 500,
      "d": 500,
      "v": 100
    },
    {
      "midi": 46,
      "hit": false,
      "t": 750,
      "d": 250,
      "v": 100
    },
    {
      "midi": 44,
      "hit": false,
      "t": 1000,
      "d": 750,
      "v": 100
    },
    {
      "midi": 60,
      "hit": false,
      "t": 1500,
      "d": 500,
      "v": 100
    },
    {
      "midi": 63,
      "hit": false,
      "t": 1500,
      "d": 500,
      "v": 100
    },
    {
      "midi": 68,
      "hit": false,
      "t": 1500,
      "d": 500,
      "v": 100
    },
    {
      "midi": 43,
      "hit": false,
      "t": 1750,
      "d": 250,
      "v": 100
    },
    {
      "midi": 41,
      "hit": false,
      "t": 2000,
      "d": 750,
      "v": 100
    },
    {
      "midi": 60,
      "hit": false,
      "t": 2500,
      "d": 500,
      "v": 100
    },
    {
      "midi": 63,
      "hit": false,
      "t": 2500,
      "d": 500,
      "v": 100
    },
    {
      "midi": 68,
      "hit": false,
      "t": 2500,
      "d": 500,
      "v": 100
    },
    {
      "midi": 39,
      "hit": false,
      "t": 2750,
      "d": 250,
      "v": 100
    },
    {
      "midi": 38,
      "hit": false,
      "t": 3000,
      "d": 750,
      "v": 100
    },
    {
      "midi": 59,
      "hit": false,
      "t": 3500,
      "d": 500,
      "v": 100
    },
    {
      "midi": 62,
      "hit": false,
      "t": 3500,
      "d": 500,
      "v": 100
    },
    {
      "midi": 67,
      "hit": false,
      "t": 3500,
      "d": 500,
      "v": 100
    },
    {
      "midi": 38,
      "hit": false,
      "t": 3750,
      "d": 250,
      "v": 100
    },
    {
      "midi": 36,
      "hit": false,
      "t": 4000,
      "d": 750,
      "v": 100
    },
    {
      "midi": 60,
      "hit": false,
      "t": 4500,
      "d": 500,
      "v": 100
    },
    {
      "midi": 63,
      "hit": false,
      "t": 4500,
      "d": 500,
      "v": 100
    },
    {
      "midi": 68,
      "hit": false,
      "t": 4500,
      "d": 500,
      "v": 100
    },
    {
      "midi": 41,
      "hit": false,
      "t": 4750,
      "d": 250,
      "v": 100
    },
    {
      "midi": 43,
      "hit": false,
      "t": 5000,
      "d": 750,
      "v": 100
    },
    {
      "midi": 60,
      "hit": false,
      "t": 5500,
      "d": 500,
      "v": 100
    },
    {
      "midi": 63,
      "hit": false,
      "t": 5500,
      "d": 500,
      "v": 100
    },
    {
      "midi": 67,
      "hit": false,
      "t": 5500,
      "d": 500,
      "v": 100
    },
    {
      "midi": 45,
      "hit": false,
      "t": 5750,
      "d": 250,
      "v": 100
    },
    {
      "midi": 46,
      "hit": false,
      "t": 6000,
      "d": 750,
      "v": 100
    },
    {
      "midi": 58,
      "hit": false,
      "t": 6500,
      "d": 500,
      "v": 100
    },
    {
      "midi": 62,
      "hit": false,
      "t": 6500,
      "d": 500,
      "v": 100
    },
    {
      "midi": 65,
      "hit": false,
      "t": 6500,
      "d": 500,
      "v": 100
    },
    {
      "midi": 46,
      "hit": false,
      "t": 6750,
      "d": 250,
      "v": 100
    },
    {
      "midi": 48,
      "hit": false,
      "t": 7000,
      "d": 750,
      "v": 100
    },
    {
      "midi": 58,
      "hit": false,
      "t": 7500,
      "d": 500,
      "v": 100
    },
    {
      "midi": 63,
      "hit": false,
      "t": 7500,
      "d": 500,
      "v": 100
    },
    {
      "midi": 67,
      "hit": false,
      "t": 7500,
      "d": 500,
      "v": 100
    },
    {
      "midi": 51,
      "hit": false,
      "t": 7750,
      "d": 250,
      "v": 100
    },
    {
      "midi": 50,
      "hit": false,
      "t": 8000,
      "d": 750,
      "v": 100
    },
    {
      "midi": 59,
      "hit": false,
      "t": 8500,
      "d": 500,
      "v": 100
    },
    {
      "midi": 62,
      "hit": false,
      "t": 8500,
      "d": 500,
      "v": 100
    },
    {
      "midi": 67,
      "hit": false,
      "t": 8500,
      "d": 500,
      "v": 100
    },
    {
      "midi": 52,
      "hit": false,
      "t": 8750,
      "d": 250,
      "v": 100
    },
    {
      "midi": 53,
      "hit": false,
      "t": 9000,
      "d": 750,
      "v": 100
    },
    {
      "midi": 56,
      "hit": false,
      "t": 9500,
      "d": 500,
      "v": 100
    },
    {
      "midi": 60,
      "hit": false,
      "t": 9500,
      "d": 500,
      "v": 100
    },
    {
      "midi": 62,
      "hit": false,
      "t": 9500,
      "d": 500,
      "v": 100
    },
    {
      "midi": 65,
      "hit": false,
      "t": 9500,
      "d": 500,
      "v": 100
    },
    {
      "midi": 48,
      "hit": false,
      "t": 9750,
      "d": 250,
      "v": 100
    },
    {
      "midi": 50,
      "hit": false,
      "t": 10000,
      "d": 750,
      "v": 100
    },
    {
      "midi": 60,
      "hit": false,
      "t": 10500,
      "d": 500,
      "v": 100
    },
    {
      "midi": 62,
      "hit": false,
      "t": 10500,
      "d": 500,
      "v": 100
    },
    {
      "midi": 66,
      "hit": false,
      "t": 10500,
      "d": 500,
      "v": 100
    },
    {
      "midi": 69,
      "hit": false,
      "t": 10500,
      "d": 500,
      "v": 100
    },
    {
      "midi": 50,
      "hit": false,
      "t": 10750,
      "d": 250,
      "v": 100
    },
    {
      "midi": 48,
      "hit": false,
      "t": 11000,
      "d": 750,
      "v": 100
    },
    {
      "midi": 60,
      "hit": false,
      "t": 11500,
      "d": 500,
      "v": 100
    },
    {
      "midi": 64,
      "hit": false,
      "t": 11500,
      "d": 500,
      "v": 100
    },
    {
      "midi": 67,
      "hit": false,
      "t": 11500,
      "d": 500,
      "v": 100
    },
    {
      "midi": 70,
      "hit": false,
      "t": 11500,
      "d": 500,
      "v": 100
    },
    {
      "midi": 40,
      "hit": false,
      "t": 11750,
      "d": 250,
      "v": 100
    },
    {
      "midi": 41,
      "hit": false,
      "t": 12000,
      "d": 750,
      "v": 100
    },
    {
      "midi": 60,
      "hit": false,
      "t": 12500,
      "d": 500,
      "v": 100
    },
    {
      "midi": 65,
      "hit": false,
      "t": 12500,
      "d": 500,
      "v": 100
    },
    {
      "midi": 69,
      "hit": false,
      "t": 12500,
      "d": 500,
      "v": 100
    },
    {
      "midi": 39,
      "hit": false,
      "t": 12750,
      "d": 250,
      "v": 100
    },
    {
      "midi": 38,
      "hit": false,
      "t": 13000,
      "d": 750,
      "v": 100
    },
    {
      "midi": 62,
      "hit": false,
      "t": 13500,
      "d": 500,
      "v": 100
    },
    {
      "midi": 65,
      "hit": false,
      "t": 13500,
      "d": 500,
      "v": 100
    },
    {
      "midi": 69,
      "hit": false,
      "t": 13500,
      "d": 500,
      "v": 100
    },
    {
      "midi": 45,
      "hit": false,
      "t": 13750,
      "d": 250,
      "v": 100
    },
    {
      "midi": 43,
      "hit": false,
      "t": 14000,
      "d": 750,
      "v": 100
    },
    {
      "midi": 62,
      "hit": false,
      "t": 14500,
      "d": 500,
      "v": 100
    },
    {
      "midi": 67,
      "hit": false,
      "t": 14500,
      "d": 500,
      "v": 100
    },
    {
      "midi": 70,
      "hit": false,
      "t": 14500,
      "d": 500,
      "v": 100
    },
    {
      "midi": 38,
      "hit": false,
      "t": 14750,
      "d": 250,
      "v": 100
    },
    {
      "midi": 36,
      "hit": false,
      "t": 15000,
      "d": 750,
      "v": 100
    },
    {
      "midi": 60,
      "hit": false,
      "t": 15500,
      "d": 500,
      "v": 100
    },
    {
      "midi": 63,
      "hit": false,
      "t": 15500,
      "d": 500,
      "v": 100
    },
    {
      "midi": 67,
      "hit": false,
      "t": 15500,
      "d": 500,
      "v": 100
    },
    {
      "midi": 70,
      "hit": false,
      "t": 15500,
      "d": 500,
      "v": 100
    },
    {
      "midi": 46,
      "hit": false,
      "t": 15750,
      "d": 250,
      "v": 100
    },
    {
      "midi": 44,
      "hit": false,
      "t": 16000,
      "d": 750,
      "v": 100
    },
    {
      "midi": 60,
      "hit": false,
      "t": 16500,
      "d": 500,
      "v": 100
    },
    {
      "midi": 63,
      "hit": false,
      "t": 16500,
      "d": 500,
      "v": 100
    },
    {
      "midi": 68,
      "hit": false,
      "t": 16500,
      "d": 500,
      "v": 100
    },
    {
      "midi": 46,
      "hit": false,
      "t": 16750,
      "d": 250,
      "v": 100
    },
    {
      "midi": 44,
      "hit": false,
      "t": 17000,
      "d": 750,
      "v": 100
    },
    {
      "midi": 60,
      "hit": false,
      "t": 17500,
      "d": 500,
      "v": 100
    },
    {
      "midi": 65,
      "hit": false,
      "t": 17500,
      "d": 500,
      "v": 100
    },
    {
      "midi": 68,
      "hit": false,
      "t": 17500,
      "d": 500,
      "v": 100
    },
    {
      "midi": 46,
      "hit": false,
      "t": 17750,
      "d": 250,
      "v": 100
    },
    {
      "midi": 45,
      "hit": false,
      "t": 18000,
      "d": 750,
      "v": 100
    },
    {
      "midi": 60,
      "hit": false,
      "t": 18500,
      "d": 500,
      "v": 100
    },
    {
      "midi": 62,
      "hit": false,
      "t": 18500,
      "d": 500,
      "v": 100
    },
    {
      "midi": 65,
      "hit": false,
      "t": 18500,
      "d": 500,
      "v": 100
    },
    {
      "midi": 69,
      "hit": false,
      "t": 18500,
      "d": 500,
      "v": 100
    },
    {
      "midi": 44,
      "hit": false,
      "t": 18750,
      "d": 250,
      "v": 100
    },
    {
      "midi": 43,
      "hit": false,
      "t": 19000,
      "d": 750,
      "v": 100
    },
    {
      "midi": 60,
      "hit": false,
      "t": 19500,
      "d": 500,
      "v": 100
    },
    {
      "midi": 63,
      "hit": false,
      "t": 19500,
      "d": 500,
      "v": 100
    },
    {
      "midi": 65,
      "hit": false,
      "t": 19500,
      "d": 500,
      "v": 100
    },
    {
      "midi": 69,
      "hit": false,
      "t": 19500,
      "d": 500,
      "v": 100
    },
    {
      "midi": 38,
      "hit": false,
      "t": 19750,
      "d": 250,
      "v": 100
    },
    {
      "midi": 46,
      "hit": false,
      "t": 20000,
      "d": 750,
      "v": 100
    },
    {
      "midi": 62,
      "hit": false,
      "t": 20500,
      "d": 500,
      "v": 100
    },
    {
      "midi": 63,
      "hit": false,
      "t": 20500,
      "d": 500,
      "v": 100
    },
    {
      "midi": 67,
      "hit": false,
      "t": 20500,
      "d": 500,
      "v": 100
    },
    {
      "midi": 70,
      "hit": false,
      "t": 20500,
      "d": 500,
      "v": 100
    },
    {
      "midi": 43,
      "hit": false,
      "t": 20750,
      "d": 250,
      "v": 100
    },
    {
      "midi": 50,
      "hit": false,
      "t": 21000,
      "d": 750,
      "v": 100
    },
    {
      "midi": 60,
      "hit": false,
      "t": 21500,
      "d": 500,
      "v": 100
    },
    {
      "midi": 62,
      "hit": false,
      "t": 21500,
      "d": 500,
      "v": 100
    },
    {
      "midi": 65,
      "hit": false,
      "t": 21500,
      "d": 500,
      "v": 100
    },
    {
      "midi": 69,
      "hit": false,
      "t": 21500,
      "d": 500,
      "v": 100
    },
    {
      "midi": 57,
      "hit": false,
      "t": 21750,
      "d": 250,
      "v": 100
    },
    {
      "midi": 62,
      "hit": false,
      "t": 22000,
      "d": 500,
      "v": 100
    },
    {
      "midi": 67,
      "hit": false,
      "t": 22000,
      "d": 500,
      "v": 100
    },
    {
      "midi": 70,
      "hit": false,
      "t": 22000,
      "d": 500,
      "v": 100
    },
    {
      "midi": 55,
      "hit": false,
      "t": 22000,
      "d": 750,
      "v": 100
    },
    {
      "midi": 51,
      "hit": false,
      "t": 22750,
      "d": 250,
      "v": 100
    },
    {
      "midi": 60,
      "hit": false,
      "t": 23000,
      "d": 500,
      "v": 100
    },
    {
      "midi": 63,
      "hit": false,
      "t": 23000,
      "d": 500,
      "v": 100
    },
    {
      "midi": 67,
      "hit": false,
      "t": 23000,
      "d": 500,
      "v": 100
    },
    {
      "midi": 70,
      "hit": false,
      "t": 23000,
      "d": 500,
      "v": 100
    },
    {
      "midi": 50,
      "hit": false,
      "t": 23000,
      "d": 750,
      "v": 100
    },
    {
      "midi": 48,
      "hit": false,
      "t": 23750,
      "d": 250,
      "v": 100
    },
    {
      "midi": 49,
      "hit": false,
      "t": 24000,
      "d": 750,
      "v": 100
    },
    {
      "midi": 60,
      "hit": false,
      "t": 24500,
      "d": 500,
      "v": 100
    },
    {
      "midi": 61,
      "hit": false,
      "t": 24500,
      "d": 500,
      "v": 100
    },
    {
      "midi": 63,
      "hit": false,
      "t": 24500,
      "d": 500,
      "v": 100
    },
    {
      "midi": 68,
      "hit": false,
      "t": 24500,
      "d": 500,
      "v": 100
    },
    {
      "midi": 44,
      "hit": false,
      "t": 24750,
      "d": 250,
      "v": 100
    },
    {
      "midi": 48,
      "hit": false,
      "t": 25000,
      "d": 750,
      "v": 100
    },
    {
      "midi": 60,
      "hit": false,
      "t": 25500,
      "d": 500,
      "v": 100
    },
    {
      "midi": 62,
      "hit": false,
      "t": 25500,
      "d": 500,
      "v": 100
    },
    {
      "midi": 66,
      "hit": false,
      "t": 25500,
      "d": 500,
      "v": 100
    },
    {
      "midi": 69,
      "hit": false,
      "t": 25500,
      "d": 500,
      "v": 100
    },
    {
      "midi": 42,
      "hit": false,
      "t": 25750,
      "d": 250,
      "v": 100
    },
    {
      "midi": 43,
      "hit": false,
      "t": 26000,
      "d": 500,
      "v": 100
    },
    {
      "midi": 56,
      "hit": false,
      "t": 26500,
      "d": 250,
      "v": 100
    },
    {
      "midi": 60,
      "hit": false,
      "t": 26500,
      "d": 250,
      "v": 100
    },
    {
      "midi": 65,
      "hit": false,
      "t": 26500,
      "d": 250,
      "v": 100
    },
    {
      "midi": 41,
      "hit": false,
      "t": 26500,
      "d": 250,
      "v": 100
    },
    {
      "midi": 44,
      "hit": false,
      "t": 26750,
      "d": 500,
      "v": 100
    },
    {
      "midi": 60,
      "hit": false,
      "t": 27250,
      "d": 250,
      "v": 100
    },
    {
      "midi": 65,
      "hit": false,
      "t": 27250,
      "d": 250,
      "v": 100
    },
    {
      "midi": 68,
      "hit": false,
      "t": 27250,
      "d": 250,
      "v": 100
    },
    {
      "midi": 41,
      "hit": false,
      "t": 27250,
      "d": 250,
      "v": 100
    },
    {
      "midi": 65,
      "hit": false,
      "t": 27500,
      "d": 500,
      "v": 100
    },
    {
      "midi": 68,
      "hit": false,
      "t": 27500,
      "d": 500,
      "v": 100
    },
    {
      "midi": 72,
      "hit": false,
      "t": 27500,
      "d": 500,
      "v": 100
    },
    {
      "midi": 48,
      "hit": false,
      "t": 27500,
      "d": 250,
      "v": 100
    },
    {
      "midi": 41,
      "hit": false,
      "t": 27750,
      "d": 250,
      "v": 100
    },
    {
      "midi": 46,
      "hit": false,
      "t": 28000,
      "d": 250,
      "v": 100
    },
    {
      "midi": 45,
      "hit": false,
      "t": 28250,
      "d": 250,
      "v": 100
    },
    {
      "midi": 62,
      "hit": false,
      "t": 28500,
      "d": 250,
      "v": 100
    },
    {
      "midi": 65,
      "hit": false,
      "t": 28500,
      "d": 250,
      "v": 100
    },
    {
      "midi": 67,
      "hit": false,
      "t": 28500,
      "d": 250,
      "v": 100
    },
    {
      "midi": 71,
      "hit": false,
      "t": 28500,
      "d": 250,
      "v": 100
    },
    {
      "midi": 43,
      "hit": false,
      "t": 28500,
      "d": 250,
      "v": 100
    },
    {
      "midi": 45,
      "hit": false,
      "t": 28750,
      "d": 250,
      "v": 100
    },
    {
      "midi": 41,
      "hit": false,
      "t": 29000,
      "d": 250,
      "v": 100
    },
    {
      "midi": 60,
      "hit": false,
      "t": 29250,
      "d": 250,
      "v": 100
    },
    {
      "midi": 64,
      "hit": false,
      "t": 29250,
      "d": 250,
      "v": 100
    },
    {
      "midi": 67,
      "hit": false,
      "t": 29250,
      "d": 250,
      "v": 100
    },
    {
      "midi": 70,
      "hit": false,
      "t": 29250,
      "d": 250,
      "v": 100
    },
    {
      "midi": 40,
      "hit": false,
      "t": 29250,
      "d": 250,
      "v": 100
    },
    {
      "midi": 62,
      "hit": false,
      "t": 29500,
      "d": 500,
      "v": 100
    },
    {
      "midi": 65,
      "hit": false,
      "t": 29500,
      "d": 500,
      "v": 100
    },
    {
      "midi": 67,
      "hit": false,
      "t": 29500,
      "d": 500,
      "v": 100
    },
    {
      "midi": 71,
      "hit": false,
      "t": 29500,
      "d": 500,
      "v": 100
    },
    {
      "midi": 38,
      "hit": false,
      "t": 29500,
      "d": 250,
      "v": 100
    },
    {
      "midi": 40,
      "hit": false,
      "t": 29750,
      "d": 250,
      "v": 100
    },
    {
      "midi": 60,
      "hit": false,
      "t": 30000,
      "d": 250,
      "v": 100
    },
    {
      "midi": 63,
      "hit": false,
      "t": 30000,
      "d": 250,
      "v": 100
    },
    {
      "midi": 67,
      "hit": false,
      "t": 30000,
      "d": 250,
      "v": 100
    },
    {
      "midi": 72,
      "hit": false,
      "t": 30000,
      "d": 250,
      "v": 100
    },
    {
      "midi": 36,
      "hit": false,
      "t": 30000,
      "d": 250,
      "v": 100
    },
    {
      "midi": 36,
      "hit": false,
      "t": 30750,
      "d": 250,
      "v": 100
    },
    {
      "midi": 60,
      "hit": false,
      "t": 31000,
      "d": 250,
      "v": 100
    },
    {
      "midi": 64,
      "hit": false,
      "t": 31000,
      "d": 250,
      "v": 100
    },
    {
      "midi": 67,
      "hit": false,
      "t": 31000,
      "d": 250,
      "v": 100
    },
    {
      "midi": 69,
      "hit": false,
      "t": 31000,
      "d": 250,
      "v": 100
    },
    {
      "midi": 33,
      "hit": false,
      "t": 31000,
      "d": 250,
      "v": 100
    },
    {
      "midi": 65,
      "hit": false,
      "t": 32000,
      "d": 250,
      "v": 100
    },
    {
      "midi": 68,
      "hit": false,
      "t": 32000,
      "d": 250,
      "v": 100
    },
    {
      "midi": 72,
      "hit": false,
      "t": 32000,
      "d": 250,
      "v": 100
    },
    {
      "midi": 41,
      "hit": false,
      "t": 32000,
      "d": 250,
      "v": 100
    },
    {
      "midi": 60,
      "hit": false,
      "t": 32250,
      "d": 250,
      "v": 100
    },
    {
      "midi": 65,
      "hit": false,
      "t": 32250,
      "d": 250,
      "v": 100
    },
    {
      "midi": 68,
      "hit": false,
      "t": 32250,
      "d": 250,
      "v": 100
    },
    {
      "midi": 36,
      "hit": false,
      "t": 32250,
      "d": 250,
      "v": 100
    },
    {
      "midi": 56,
      "hit": false,
      "t": 32500,
      "d": 250,
      "v": 100
    },
    {
      "midi": 60,
      "hit": false,
      "t": 32500,
      "d": 250,
      "v": 100
    },
    {
      "midi": 65,
      "hit": false,
      "t": 32500,
      "d": 250,
      "v": 100
    },
    {
      "midi": 29,
      "hit": false,
      "t": 32500,
      "d": 250,
      "v": 100
    },
    {
      "midi": 31,
      "hit": false,
      "t": 33250,
      "d": 250,
      "v": 100
    },
    {
      "midi": 55,
      "hit": false,
      "t": 33500,
      "d": 250,
      "v": 100
    },
    {
      "midi": 60,
      "hit": false,
      "t": 33500,
      "d": 250,
      "v": 100
    },
    {
      "midi": 64,
      "hit": false,
      "t": 33500,
      "d": 250,
      "v": 100
    },
    {
      "midi": 67,
      "hit": false,
      "t": 33500,
      "d": 250,
      "v": 100
    },
    {
      "midi": 36,
      "hit": false,
      "t": 33500,
      "d": 250,
      "v": 100
    },
    {
      "midi": 60,
      "hit": false,
      "t": 34000,
      "d": 250,
      "v": 100
    },
    {
      "midi": 64,
      "hit": false,
      "t": 34000,
      "d": 250,
      "v": 100
    },
    {
      "midi": 67,
      "hit": false,
      "t": 34000,
      "d": 250,
      "v": 100
    },
    {
      "midi": 70,
      "hit": false,
      "t": 34000,
      "d": 250,
      "v": 100
    },
    {
      "midi": 48,
      "hit": false,
      "t": 34000,
      "d": 250,
      "v": 100
    },
    {
      "midi": 58,
      "hit": false,
      "t": 34250,
      "d": 250,
      "v": 100
    },
    {
      "midi": 60,
      "hit": false,
      "t": 34250,
      "d": 250,
      "v": 100
    },
    {
      "midi": 64,
      "hit": false,
      "t": 34250,
      "d": 250,
      "v": 100
    },
    {
      "midi": 67,
      "hit": false,
      "t": 34250,
      "d": 250,
      "v": 100
    },
    {
      "midi": 43,
      "hit": false,
      "t": 34250,
      "d": 250,
      "v": 100
    },
    {
      "midi": 55,
      "hit": false,
      "t": 34500,
      "d": 250,
      "v": 100
    },
    {
      "midi": 58,
      "hit": false,
      "t": 34500,
      "d": 250,
      "v": 100
    },
    {
      "midi": 60,
      "hit": false,
      "t": 34500,
      "d": 250,
      "v": 100
    },
    {
      "midi": 64,
      "hit": false,
      "t": 34500,
      "d": 250,
      "v": 100
    },
    {
      "midi": 36,
      "hit": false,
      "t": 34500,
      "d": 250,
      "v": 100
    },
    {
      "midi": 40,
      "hit": false,
      "t": 35250,
      "d": 250,
      "v": 100
    },
    {
      "midi": 57,
      "hit": false,
      "t": 35500,
      "d": 250,
      "v": 100
    },
    {
      "midi": 60,
      "hit": false,
      "t": 35500,
      "d": 250,
      "v": 100
    },
    {
      "midi": 64,
      "hit": false,
      "t": 35500,
      "d": 250,
      "v": 100
    },
    {
      "midi": 69,
      "hit": false,
      "t": 35500,
      "d": 250,
      "v": 100
    },
    {
      "midi": 33,
      "hit": false,
      "t": 35500,
      "d": 250,
      "v": 100
    },
    {
      "midi": 57,
      "hit": false,
      "t": 36000,
      "d": 250,
      "v": 100
    },
    {
      "midi": 60,
      "hit": false,
      "t": 36000,
      "d": 250,
      "v": 100
    },
    {
      "midi": 62,
      "hit": false,
      "t": 36000,
      "d": 250,
      "v": 100
    },
    {
      "midi": 65,
      "hit": false,
      "t": 36000,
      "d": 250,
      "v": 100
    },
    {
      "midi": 38,
      "hit": false,
      "t": 36000,
      "d": 250,
      "v": 100
    },
    {
      "midi": 69,
      "hit": false,
      "t": 37000,
      "d": 250,
      "v": 100
    },
    {
      "midi": 72,
      "hit": false,
      "t": 37000,
      "d": 250,
      "v": 100
    },
    {
      "midi": 76,
      "hit": false,
      "t": 37000,
      "d": 250,
      "v": 100
    },
    {
      "midi": 40,
      "hit": false,
      "t": 37000,
      "d": 250,
      "v": 100
    },
    {
      "midi": 64,
      "hit": false,
      "t": 37250,
      "d": 250,
      "v": 100
    },
    {
      "midi": 69,
      "hit": false,
      "t": 37250,
      "d": 250,
      "v": 100
    },
    {
      "midi": 72,
      "hit": false,
      "t": 37250,
      "d": 250,
      "v": 100
    },
    {
      "midi": 33,
      "hit": false,
      "t": 37250,
      "d": 250,
      "v": 100
    },
    {
      "midi": 60,
      "hit": false,
      "t": 37500,
      "d": 250,
      "v": 100
    },
    {
      "midi": 64,
      "hit": false,
      "t": 37500,
      "d": 250,
      "v": 100
    },
    {
      "midi": 69,
      "hit": false,
      "t": 37500,
      "d": 250,
      "v": 100
    },
    {
      "midi": 60,
      "hit": false,
      "t": 37750,
      "d": 250,
      "v": 100
    },
    {
      "midi": 64,
      "hit": false,
      "t": 37750,
      "d": 250,
      "v": 100
    },
    {
      "midi": 69,
      "hit": false,
      "t": 37750,
      "d": 250,
      "v": 100
    },
    {
      "midi": 33,
      "hit": false,
      "t": 37750,
      "d": 250,
      "v": 100
    },
    {
      "midi": 52,
      "hit": false,
      "t": 38000,
      "d": 250,
      "v": 100
    },
    {
      "midi": 57,
      "hit": false,
      "t": 38000,
      "d": 250,
      "v": 100
    },
    {
      "midi": 60,
      "hit": false,
      "t": 38000,
      "d": 250,
      "v": 100
    },
    {
      "midi": 64,
      "hit": false,
      "t": 38000,
      "d": 250,
      "v": 100
    },
    {
      "midi": 33,
      "hit": false,
      "t": 38000,
      "d": 250,
      "v": 100
    },
    {
      "midi": 59,
      "hit": false,
      "t": 39000,
      "d": 250,
      "v": 100
    },
    {
      "midi": 62,
      "hit": false,
      "t": 39000,
      "d": 250,
      "v": 100
    },
    {
      "midi": 66,
      "hit": false,
      "t": 39000,
      "d": 250,
      "v": 100
    },
    {
      "midi": 35,
      "hit": false,
      "t": 39000,
      "d": 250,
      "v": 100
    },
    {
      "midi": 58,
      "hit": false,
      "t": 39500,
      "d": 250,
      "v": 100
    },
    {
      "midi": 61,
      "hit": false,
      "t": 39500,
      "d": 250,
      "v": 100
    },
    {
      "midi": 66,
      "hit": false,
      "t": 39500,
      "d": 250,
      "v": 100
    },
    {
      "midi": 34,
      "hit": false,
      "t": 39500,
      "d": 250,
      "v": 100
    },
    {
      "midi": 59,
      "hit": false,
      "t": 40000,
      "d": 250,
      "v": 100
    },
    {
      "midi": 62,
      "hit": false,
      "t": 40000,
      "d": 250,
      "v": 100
    },
    {
      "midi": 65,
      "hit": false,
      "t": 40000,
      "d": 250,
      "v": 100
    },
    {
      "midi": 67,
      "hit": false,
      "t": 40000,
      "d": 250,
      "v": 100
    },
    {
      "midi": 38,
      "hit": false,
      "t": 40000,
      "d": 250,
      "v": 100
    },
    {
      "midi": 39,
      "hit": false,
      "t": 40750,
      "d": 250,
      "v": 100
    },
    {
      "midi": 55,
      "hit": false,
      "t": 41000,
      "d": 250,
      "v": 100
    },
    {
      "midi": 60,
      "hit": false,
      "t": 41000,
      "d": 250,
      "v": 100
    },
    {
      "midi": 63,
      "hit": false,
      "t": 41000,
      "d": 250,
      "v": 100
    },
    {
      "midi": 67,
      "hit": false,
      "t": 41000,
      "d": 250,
      "v": 100
    },
    {
      "midi": 36,
      "hit": false,
      "t": 41000,
      "d": 250,
      "v": 100
    },
    {
      "midi": 36,
      "hit": false,
      "t": 41750,
      "d": 250,
      "v": 100
    },
    {
      "midi": 63,
      "hit": false,
      "t": 42000,
      "d": 250,
      "v": 100
    },
    {
      "midi": 67,
      "hit": false,
      "t": 42000,
      "d": 250,
      "v": 100
    },
    {
      "midi": 70,
      "hit": false,
      "t": 42000,
      "d": 250,
      "v": 100
    },
    {
      "midi": 39,
      "hit": false,
      "t": 42000,
      "d": 250,
      "v": 100
    },
    {
      "midi": 58,
      "hit": false,
      "t": 42250,
      "d": 250,
      "v": 100
    },
    {
      "midi": 63,
      "hit": false,
      "t": 42250,
      "d": 250,
      "v": 100
    },
    {
      "midi": 67,
      "hit": false,
      "t": 42250,
      "d": 250,
      "v": 100
    },
    {
      "midi": 34,
      "hit": false,
      "t": 42250,
      "d": 250,
      "v": 100
    },
    {
      "midi": 55,
      "hit": false,
      "t": 42500,
      "d": 250,
      "v": 100
    },
    {
      "midi": 58,
      "hit": false,
      "t": 42500,
      "d": 250,
      "v": 100
    },
    {
      "midi": 63,
      "hit": false,
      "t": 42500,
      "d": 250,
      "v": 100
    },
    {
      "midi": 27,
      "hit": false,
      "t": 42500,
      "d": 250,
      "v": 100
    },
    {
      "midi": 58,
      "hit": false,
      "t": 43000,
      "d": 250,
      "v": 100
    },
    {
      "midi": 62,
      "hit": false,
      "t": 43000,
      "d": 250,
      "v": 100
    },
    {
      "midi": 65,
      "hit": false,
      "t": 43000,
      "d": 250,
      "v": 100
    },
    {
      "midi": 34,
      "hit": false,
      "t": 43000,
      "d": 250,
      "v": 100
    },
    {
      "midi": 56,
      "hit": false,
      "t": 44000,
      "d": 250,
      "v": 100
    },
    {
      "midi": 60,
      "hit": false,
      "t": 44000,
      "d": 250,
      "v": 100
    },
    {
      "midi": 65,
      "hit": false,
      "t": 44000,
      "d": 250,
      "v": 100
    },
    {
      "midi": 41,
      "hit": false,
      "t": 44000,
      "d": 250,
      "v": 100
    },
    {
      "midi": 36,
      "hit": false,
      "t": 44750,
      "d": 250,
      "v": 100
    },
    {
      "midi": 56,
      "hit": false,
      "t": 45000,
      "d": 250,
      "v": 100
    },
    {
      "midi": 60,
      "hit": false,
      "t": 45000,
      "d": 250,
      "v": 100
    },
    {
      "midi": 62,
      "hit": false,
      "t": 45000,
      "d": 250,
      "v": 100
    },
    {
      "midi": 65,
      "hit": false,
      "t": 45000,
      "d": 250,
      "v": 100
    },
    {
      "midi": 29,
      "hit": false,
      "t": 45000,
      "d": 250,
      "v": 100
    },
    {
      "midi": 63,
      "hit": false,
      "t": 46000,
      "d": 250,
      "v": 100
    },
    {
      "midi": 67,
      "hit": false,
      "t": 46000,
      "d": 250,
      "v": 100
    },
    {
      "midi": 72,
      "hit": false,
      "t": 46000,
      "d": 250,
      "v": 100
    },
    {
      "midi": 36,
      "hit": false,
      "t": 46000,
      "d": 250,
      "v": 100
    },
    {
      "midi": 60,
      "hit": false,
      "t": 46250,
      "d": 250,
      "v": 100
    },
    {
      "midi": 63,
      "hit": false,
      "t": 46250,
      "d": 250,
      "v": 100
    },
    {
      "midi": 67,
      "hit": false,
      "t": 46250,
      "d": 250,
      "v": 100
    },
    {
      "midi": 31,
      "hit": false,
      "t": 46250,
      "d": 250,
      "v": 100
    },
    {
      "midi": 55,
      "hit": false,
      "t": 46500,
      "d": 250,
      "v": 100
    },
    {
      "midi": 60,
      "hit": false,
      "t": 46500,
      "d": 250,
      "v": 100
    },
    {
      "midi": 63,
      "hit": false,
      "t": 46500,
      "d": 250,
      "v": 100
    },
    {
      "midi": 24,
      "hit": false,
      "t": 46500,
      "d": 250,
      "v": 100
    },
    {
      "midi": 55,
      "hit": false,
      "t": 47250,
      "d": 250,
      "v": 100
    },
    {
      "midi": 58,
      "hit": false,
      "t": 47250,
      "d": 250,
      "v": 100
    },
    {
      "midi": 63,
      "hit": false,
      "t": 47250,
      "d": 250,
      "v": 100
    },
    {
      "midi": 27,
      "hit": false,
      "t": 47250,
      "d": 250,
      "v": 100
    },
    {
      "midi": 38,
      "hit": false,
      "t": 47750,
      "d": 250,
      "v": 100
    },
    {
      "midi": 56,
      "hit": false,
      "t": 48000,
      "d": 250,
      "v": 100
    },
    {
      "midi": 60,
      "hit": false,
      "t": 48000,
      "d": 250,
      "v": 100
    },
    {
      "midi": 65,
      "hit": false,
      "t": 48000,
      "d": 250,
      "v": 100
    },
    {
      "midi": 29,
      "hit": false,
      "t": 48000,
      "d": 250,
      "v": 100
    },
    {
      "midi": 34,
      "hit": false,
      "t": 48750,
      "d": 250,
      "v": 100
    },
    {
      "midi": 60,
      "hit": false,
      "t": 49000,
      "d": 250,
      "v": 100
    },
    {
      "midi": 62,
      "hit": false,
      "t": 49000,
      "d": 250,
      "v": 100
    },
    {
      "midi": 65,
      "hit": false,
      "t": 49000,
      "d": 250,
      "v": 100
    },
    {
      "midi": 69,
      "hit": false,
      "t": 49000,
      "d": 250,
      "v": 100
    },
    {
      "midi": 33,
      "hit": false,
      "t": 49000,
      "d": 250,
      "v": 100
    },
    {
      "midi": 35,
      "hit": false,
      "t": 49750,
      "d": 250,
      "v": 100
    },
    {
      "midi": 60,
      "hit": false,
      "t": 50000,
      "d": 250,
      "v": 100
    },
    {
      "midi": 63,
      "hit": false,
      "t": 50000,
      "d": 250,
      "v": 100
    },
    {
      "midi": 67,
      "hit": false,
      "t": 50000,
      "d": 250,
      "v": 100
    },
    {
      "midi": 72,
      "hit": false,
      "t": 50000,
      "d": 250,
      "v": 100
    },
    {
      "midi": 36,
      "hit": false,
      "t": 50000,
      "d": 250,
      "v": 100
    },
    {
      "midi": 55,
      "hit": false,
      "t": 50250,
      "d": 250,
      "v": 100
    },
    {
      "midi": 60,
      "hit": false,
      "t": 50250,
      "d": 250,
      "v": 100
    },
    {
      "midi": 63,
      "hit": false,
      "t": 50250,
      "d": 250,
      "v": 100
    },
    {
      "midi": 67,
      "hit": false,
      "t": 50250,
      "d": 250,
      "v": 100
    },
    {
      "midi": 31,
      "hit": false,
      "t": 50250,
      "d": 250,
      "v": 100
    },
    {
      "midi": 55,
      "hit": false,
      "t": 50500,
      "d": 250,
      "v": 100
    },
    {
      "midi": 60,
      "hit": false,
      "t": 50500,
      "d": 250,
      "v": 100
    },
    {
      "midi": 63,
      "hit": false,
      "t": 50500,
      "d": 250,
      "v": 100
    },
    {
      "midi": 24,
      "hit": false,
      "t": 50500,
      "d": 250,
      "v": 100
    },
    {
      "midi": 51,
      "hit": false,
      "t": 51250,
      "d": 250,
      "v": 100
    },
    {
      "midi": 55,
      "hit": false,
      "t": 51250,
      "d": 250,
      "v": 100
    },
    {
      "midi": 60,
      "hit": false,
      "t": 51250,
      "d": 250,
      "v": 100
    },
    {
      "midi": 36,
      "hit": false,
      "t": 51250,
      "d": 250,
      "v": 100
    },
    {
      "midi": 29,
      "hit": false,
      "t": 51750,
      "d": 250,
      "v": 100
    },
    {
      "midi": 53,
      "hit": false,
      "t": 52000,
      "d": 250,
      "v": 100
    },
    {
      "midi": 59,
      "hit": false,
      "t": 52000,
      "d": 250,
      "v": 100
    },
    {
      "midi": 62,
      "hit": false,
      "t": 52000,
      "d": 250,
      "v": 100
    },
    {
      "midi": 65,
      "hit": false,
      "t": 52000,
      "d": 250,
      "v": 100
    },
    {
      "midi": 34,
      "hit": false,
      "t": 52000,
      "d": 250,
      "v": 100
    },
    {
      "midi": 31,
      "hit": false,
      "t": 52750,
      "d": 250,
      "v": 100
    },
    {
      "midi": 55,
      "hit": false,
      "t": 53000,
      "d": 250,
      "v": 100
    },
    {
      "midi": 60,
      "hit": false,
      "t": 53000,
      "d": 250,
      "v": 100
    },
    {
      "midi": 63,
      "hit": false,
      "t": 53000,
      "d": 250,
      "v": 100
    },
    {
      "midi": 67,
      "hit": false,
      "t": 53000,
      "d": 250,
      "v": 100
    },
    {
      "midi": 36,
      "hit": false,
      "t": 53000,
      "d": 250,
      "v": 100
    },
    {
      "midi": 56,
      "hit": false,
      "t": 54000,
      "d": 250,
      "v": 100
    },
    {
      "midi": 59,
      "hit": false,
      "t": 54000,
      "d": 250,
      "v": 100
    },
    {
      "midi": 62,
      "hit": false,
      "t": 54000,
      "d": 250,
      "v": 100
    },
    {
      "midi": 65,
      "hit": false,
      "t": 54000,
      "d": 250,
      "v": 100
    },
    {
      "midi": 41,
      "hit": false,
      "t": 54000,
      "d": 250,
      "v": 100
    },
    {
      "midi": 56,
      "hit": false,
      "t": 55000,
      "d": 250,
      "v": 100
    },
    {
      "midi": 58,
      "hit": false,
      "t": 55000,
      "d": 250,
      "v": 100
    },
    {
      "midi": 62,
      "hit": false,
      "t": 55000,
      "d": 250,
      "v": 100
    },
    {
      "midi": 65,
      "hit": false,
      "t": 55000,
      "d": 250,
      "v": 100
    },
    {
      "midi": 34,
      "hit": false,
      "t": 55000,
      "d": 250,
      "v": 100
    },
    {
      "midi": 58,
      "hit": false,
      "t": 56000,
      "d": 250,
      "v": 100
    },
    {
      "midi": 62,
      "hit": false,
      "t": 56000,
      "d": 250,
      "v": 100
    },
    {
      "midi": 65,
      "hit": false,
      "t": 56000,
      "d": 250,
      "v": 100
    },
    {
      "midi": 41,
      "hit": false,
      "t": 56000,
      "d": 250,
      "v": 100
    },
    {
      "midi": 62,
      "hit": false,
      "t": 56250,
      "d": 250,
      "v": 100
    },
    {
      "midi": 65,
      "hit": false,
      "t": 56250,
      "d": 250,
      "v": 100
    },
    {
      "midi": 68,
      "hit": false,
      "t": 56250,
      "d": 250,
      "v": 100
    },
    {
      "midi": 39,
      "hit": false,
      "t": 56250,
      "d": 250,
      "v": 100
    },
    {
      "midi": 62,
      "hit": false,
      "t": 56500,
      "d": 250,
      "v": 100
    },
    {
      "midi": 65,
      "hit": false,
      "t": 56500,
      "d": 250,
      "v": 100
    },
    {
      "midi": 68,
      "hit": false,
      "t": 56500,
      "d": 250,
      "v": 100
    },
    {
      "midi": 70,
      "hit": false,
      "t": 56500,
      "d": 250,
      "v": 100
    },
    {
      "midi": 38,
      "hit": false,
      "t": 56500,
      "d": 250,
      "v": 100
    },
    {
      "midi": 65,
      "hit": false,
      "t": 56750,
      "d": 250,
      "v": 100
    },
    {
      "midi": 68,
      "hit": false,
      "t": 56750,
      "d": 250,
      "v": 100
    },
    {
      "midi": 70,
      "hit": false,
      "t": 56750,
      "d": 250,
      "v": 100
    },
    {
      "midi": 74,
      "hit": false,
      "t": 56750,
      "d": 250,
      "v": 100
    },
    {
      "midi": 36,
      "hit": false,
      "t": 56750,
      "d": 250,
      "v": 100
    },
    {
      "midi": 68,
      "hit": false,
      "t": 57000,
      "d": 250,
      "v": 100
    },
    {
      "midi": 70,
      "hit": false,
      "t": 57000,
      "d": 250,
      "v": 100
    },
    {
      "midi": 74,
      "hit": false,
      "t": 57000,
      "d": 250,
      "v": 100
    },
    {
      "midi": 77,
      "hit": false,
      "t": 57000,
      "d": 250,
      "v": 100
    },
    {
      "midi": 34,
      "hit": false,
      "t": 57000,
      "d": 250,
      "v": 100
    },
    {
      "midi": 63,
      "hit": false,
      "t": 57500,
      "d": 250,
      "v": 100
    },
    {
      "midi": 67,
      "hit": false,
      "t": 57500,
      "d": 250,
      "v": 100
    },
    {
      "midi": 70,
      "hit": false,
      "t": 57500,
      "d": 250,
      "v": 100
    },
    {
      "midi": 76,
      "hit": false,
      "t": 57500,
      "d": 250,
      "v": 100
    },
    {
      "midi": 27,
      "hit": false,
      "t": 57500,
      "d": 250,
      "v": 100
    },
    {
      "midi": 58,
      "hit": false,
      "t": 60000,
      "d": 250,
      "v": 100
    },
    {
      "midi": 62,
      "hit": false,
      "t": 60000,
      "d": 250,
      "v": 100
    },
    {
      "midi": 65,
      "hit": false,
      "t": 60000,
      "d": 250,
      "v": 100
    },
    {
      "midi": 70,
      "hit": false,
      "t": 60000,
      "d": 250,
      "v": 100
    },
    {
      "midi": 34,
      "hit": false,
      "t": 60000,
      "d": 250,
      "v": 100
    },
    {
      "midi": 46,
      "hit": false,
      "t": 60000,
      "d": 250,
      "v": 100
    },
    {
      "midi": 62,
      "hit": false,
      "t": 62000,
      "d": 2000,
      "v": 100
    },
    {
      "midi": 67,
      "hit": false,
      "t": 62000,
      "d": 2000,
      "v": 100
    },
    {
      "midi": 75,
      "hit": false,
      "t": 62000,
      "d": 2000,
      "v": 100
    },
    {
      "midi": 79,
      "hit": false,
      "t": 62000,
      "d": 2000,
      "v": 100
    },
    {
      "midi": 39,
      "hit": false,
      "t": 62000,
      "d": 2000,
      "v": 100
    },
    {
      "midi": 51,
      "hit": false,
      "t": 62000,
      "d": 2000,
      "v": 100
    },
    {
      "midi": 62,
      "hit": false,
      "t": 64000,
      "d": 2000,
      "v": 100
    },
    {
      "midi": 72,
      "hit": false,
      "t": 64000,
      "d": 2000,
      "v": 100
    },
    {
      "midi": 79,
      "hit": false,
      "t": 64000,
      "d": 2000,
      "v": 100
    },
    {
      "midi": 43,
      "hit": false,
      "t": 64000,
      "d": 2000,
      "v": 100
    },
    {
      "midi": 55,
      "hit": false,
      "t": 64000,
      "d": 2000,
      "v": 100
    },
    {
      "midi": 63,
      "hit": false,
      "t": 66000,
      "d": 2000,
      "v": 100
    },
    {
      "midi": 72,
      "hit": false,
      "t": 66000,
      "d": 2000,
      "v": 100
    },
    {
      "midi": 75,
      "hit": false,
      "t": 66000,
      "d": 2000,
      "v": 100
    },
    {
      "midi": 80,
      "hit": false,
      "t": 66000,
      "d": 2000,
      "v": 100
    },
    {
      "midi": 44,
      "hit": false,
      "t": 66000,
      "d": 2000,
      "v": 100
    },
    {
      "midi": 56,
      "hit": false,
      "t": 66000,
      "d": 2000,
      "v": 100
    },
    {
      "midi": 62,
      "hit": false,
      "t": 68000,
      "d": 1000,
      "v": 100
    },
    {
      "midi": 69,
      "hit": false,
      "t": 68000,
      "d": 1000,
      "v": 100
    },
    {
      "midi": 74,
      "hit": false,
      "t": 68000,
      "d": 1000,
      "v": 100
    },
    {
      "midi": 77,
      "hit": false,
      "t": 68000,
      "d": 1000,
      "v": 100
    },
    {
      "midi": 38,
      "hit": false,
      "t": 68000,
      "d": 1000,
      "v": 100
    },
    {
      "midi": 50,
      "hit": false,
      "t": 68000,
      "d": 1000,
      "v": 100
    },
    {
      "midi": 64,
      "hit": false,
      "t": 69000,
      "d": 1000,
      "v": 100
    },
    {
      "midi": 67,
      "hit": false,
      "t": 69000,
      "d": 1000,
      "v": 100
    },
    {
      "midi": 72,
      "hit": false,
      "t": 69000,
      "d": 1000,
      "v": 100
    },
    {
      "midi": 79,
      "hit": false,
      "t": 69000,
      "d": 1000,
      "v": 100
    },
    {
      "midi": 36,
      "hit": false,
      "t": 69000,
      "d": 1000,
      "v": 100
    },
    {
      "midi": 48,
      "hit": false,
      "t": 69000,
      "d": 1000,
      "v": 100
    },
    {
      "midi": 64,
      "hit": false,
      "t": 70000,
      "d": 1000,
      "v": 100
    },
    {
      "midi": 72,
      "hit": false,
      "t": 70000,
      "d": 1000,
      "v": 100
    },
    {
      "midi": 76,
      "hit": false,
      "t": 70000,
      "d": 1000,
      "v": 100
    },
    {
      "midi": 81,
      "hit": false,
      "t": 70000,
      "d": 1000,
      "v": 100
    },
    {
      "midi": 45,
      "hit": false,
      "t": 70000,
      "d": 1000,
      "v": 100
    },
    {
      "midi": 57,
      "hit": false,
      "t": 70000,
      "d": 1000,
      "v": 100
    },
    {
      "midi": 65,
      "hit": false,
      "t": 71000,
      "d": 1000,
      "v": 100
    },
    {
      "midi": 71,
      "hit": false,
      "t": 71000,
      "d": 1000,
      "v": 100
    },
    {
      "midi": 74,
      "hit": false,
      "t": 71000,
      "d": 1000,
      "v": 100
    },
    {
      "midi": 79,
      "hit": false,
      "t": 71000,
      "d": 1000,
      "v": 100
    },
    {
      "midi": 43,
      "hit": false,
      "t": 71000,
      "d": 1000,
      "v": 100
    },
    {
      "midi": 55,
      "hit": false,
      "t": 71000,
      "d": 1000,
      "v": 100
    },
    {
      "midi": 64,
      "hit": false,
      "t": 72000,
      "d": 750,
      "v": 100
    },
    {
      "midi": 69,
      "hit": false,
      "t": 72000,
      "d": 750,
      "v": 100
    },
    {
      "midi": 76,
      "hit": false,
      "t": 72000,
      "d": 750,
      "v": 100
    },
    {
      "midi": 45,
      "hit": false,
      "t": 72000,
      "d": 1000,
      "v": 100
    },
    {
      "midi": 65,
      "hit": false,
      "t": 72750,
      "d": 250,
      "v": 100
    },
    {
      "midi": 69,
      "hit": false,
      "t": 72750,
      "d": 250,
      "v": 100
    },
    {
      "midi": 74,
      "hit": false,
      "t": 72750,
      "d": 250,
      "v": 100
    },
    {
      "midi": 65,
      "hit": false,
      "t": 73000,
      "d": 750,
      "v": 100
    },
    {
      "midi": 69,
      "hit": false,
      "t": 73000,
      "d": 750,
      "v": 100
    },
    {
      "midi": 72,
      "hit": false,
      "t": 73000,
      "d": 750,
      "v": 100
    },
    {
      "midi": 41,
      "hit": false,
      "t": 73000,
      "d": 1000,
      "v": 100
    },
    {
      "midi": 62,
      "hit": false,
      "t": 73750,
      "d": 250,
      "v": 100
    },
    {
      "midi": 67,
      "hit": false,
      "t": 73750,
      "d": 250,
      "v": 100
    },
    {
      "midi": 71,
      "hit": false,
      "t": 73750,
      "d": 250,
      "v": 100
    },
    {
      "midi": 62,
      "hit": false,
      "t": 74000,
      "d": 750,
      "v": 100
    },
    {
      "midi": 65,
      "hit": false,
      "t": 74000,
      "d": 750,
      "v": 100
    },
    {
      "midi": 69,
      "hit": false,
      "t": 74000,
      "d": 750,
      "v": 100
    },
    {
      "midi": 50,
      "hit": false,
      "t": 74000,
      "d": 1000,
      "v": 100
    },
    {
      "midi": 62,
      "hit": false,
      "t": 74750,
      "d": 250,
      "v": 100
    },
    {
      "midi": 65,
      "hit": false,
      "t": 74750,
      "d": 250,
      "v": 100
    },
    {
      "midi": 68,
      "hit": false,
      "t": 74750,
      "d": 250,
      "v": 100
    },
    {
      "midi": 60,
      "hit": false,
      "t": 75000,
      "d": 750,
      "v": 100
    },
    {
      "midi": 64,
      "hit": false,
      "t": 75000,
      "d": 750,
      "v": 100
    },
    {
      "midi": 67,
      "hit": false,
      "t": 75000,
      "d": 750,
      "v": 100
    },
    {
      "midi": 45,
      "hit": false,
      "t": 75000,
      "d": 1000,
      "v": 100
    },
    {
      "midi": 60,
      "hit": false,
      "t": 75750,
      "d": 250,
      "v": 100
    },
    {
      "midi": 64,
      "hit": false,
      "t": 75750,
      "d": 250,
      "v": 100
    },
    {
      "midi": 63,
      "hit": false,
      "t": 76000,
      "d": 250,
      "v": 100
    },
    {
      "midi": 51,
      "hit": false,
      "t": 76000,
      "d": 500,
      "v": 100
    },
    {
      "midi": 61,
      "hit": false,
      "t": 76250,
      "d": 250,
      "v": 100
    },
    {
      "midi": 62,
      "hit": false,
      "t": 76500,
      "d": 250,
      "v": 100
    },
    {
      "midi": 55,
      "hit": false,
      "t": 76500,
      "d": 500,
      "v": 100
    },
    {
      "midi": 60,
      "hit": false,
      "t": 76750,
      "d": 250,
      "v": 100
    },
    {
      "midi": 57,
      "hit": false,
      "t": 77000,
      "d": 250,
      "v": 100
    },
    {
      "midi": 52,
      "hit": false,
      "t": 77000,
      "d": 500,
      "v": 100
    },
    {
      "midi": 58,
      "hit": false,
      "t": 77250,
      "d": 250,
      "v": 100
    },
    {
      "midi": 55,
      "hit": false,
      "t": 77500,
      "d": 500,
      "v": 100
    },
    {
      "midi": 48,
      "hit": false,
      "t": 77500,
      "d": 500,
      "v": 100
    },
    {
      "midi": 56,
      "hit": false,
      "t": 78000,
      "d": 250,
      "v": 100
    },
    {
      "midi": 49,
      "hit": false,
      "t": 78000,
      "d": 250,
      "v": 100
    },
    {
      "midi": 63,
      "hit": false,
      "t": 78250,
      "d": 250,
      "v": 100
    },
    {
      "midi": 51,
      "hit": false,
      "t": 78250,
      "d": 250,
      "v": 100
    },
    {
      "midi": 60,
      "hit": false,
      "t": 78500,
      "d": 250,
      "v": 100
    },
    {
      "midi": 48,
      "hit": false,
      "t": 78500,
      "d": 250,
      "v": 100
    },
    {
      "midi": 58,
      "hit": false,
      "t": 78750,
      "d": 250,
      "v": 100
    },
    {
      "midi": 46,
      "hit": false,
      "t": 78750,
      "d": 250,
      "v": 100
    },
    {
      "midi": 57,
      "hit": false,
      "t": 79000,
      "d": 250,
      "v": 100
    },
    {
      "midi": 44,
      "hit": false,
      "t": 79000,
      "d": 250,
      "v": 100
    },
    {
      "midi": 55,
      "hit": false,
      "t": 79250,
      "d": 250,
      "v": 100
    },
    {
      "midi": 43,
      "hit": false,
      "t": 79250,
      "d": 250,
      "v": 100
    },
    {
      "midi": 60,
      "hit": false,
      "t": 79500,
      "d": 750,
      "v": 100
    },
    {
      "midi": 41,
      "hit": false,
      "t": 79500,
      "d": 750,
      "v": 100
    },
    {
      "midi": 63,
      "hit": false,
      "t": 80250,
      "d": 250,
      "v": 100
    },
    {
      "midi": 49,
      "hit": false,
      "t": 80250,
      "d": 250,
      "v": 100
    },
    {
      "midi": 68,
      "hit": false,
      "t": 80500,
      "d": 750,
      "v": 100
    },
    {
      "midi": 48,
      "hit": false,
      "t": 80500,
      "d": 250,
      "v": 100
    },
    {
      "midi": 51,
      "hit": false,
      "t": 80750,
      "d": 250,
      "v": 100
    },
    {
      "midi": 56,
      "hit": false,
      "t": 81000,
      "d": 250,
      "v": 100
    },
    {
      "midi": 67,
      "hit": false,
      "t": 81250,
      "d": 250,
      "v": 100
    },
    {
      "midi": 58,
      "hit": false,
      "t": 81250,
      "d": 250,
      "v": 100
    },
    {
      "midi": 68,
      "hit": false,
      "t": 81500,
      "d": 250,
      "v": 100
    },
    {
      "midi": 60,
      "hit": false,
      "t": 81500,
      "d": 250,
      "v": 100
    },
    {
      "midi": 67,
      "hit": false,
      "t": 81750,
      "d": 250,
      "v": 100
    },
    {
      "midi": 62,
      "hit": false,
      "t": 81750,
      "d": 250,
      "v": 100
    },
    {
      "midi": 68,
      "hit": false,
      "t": 82000,
      "d": 250,
      "v": 100
    },
    {
      "midi": 63,
      "hit": false,
      "t": 82000,
      "d": 1000,
      "v": 100
    },
    {
      "midi": 67,
      "hit": false,
      "t": 82250,
      "d": 250,
      "v": 100
    },
    {
      "midi": 72,
      "hit": false,
      "t": 82500,
      "d": 250,
      "v": 100
    },
    {
      "midi": 63,
      "hit": false,
      "t": 82750,
      "d": 250,
      "v": 100
    },
    {
      "midi": 62,
      "hit": false,
      "t": 83000,
      "d": 750,
      "v": 100
    },
    {
      "midi": 62,
      "hit": false,
      "t": 83000,
      "d": 250,
      "v": 100
    },
    {
      "midi": 60,
      "hit": false,
      "t": 83250,
      "d": 250,
      "v": 100
    },
    {
      "midi": 59,
      "hit": false,
      "t": 83500,
      "d": 500,
      "v": 100
    },
    {
      "midi": 65,
      "hit": false,
      "t": 83750,
      "d": 250,
      "v": 100
    },
    {
      "midi": 63,
      "hit": false,
      "t": 84000,
      "d": 250,
      "v": 100
    },
    {
      "midi": 56,
      "hit": false,
      "t": 84000,
      "d": 750,
      "v": 100
    },
    {
      "midi": 67,
      "hit": false,
      "t": 84250,
      "d": 250,
      "v": 100
    },
    {
      "midi": 72,
      "hit": false,
      "t": 84500,
      "d": 750,
      "v": 100
    },
    {
      "midi": 53,
      "hit": false,
      "t": 84750,
      "d": 250,
      "v": 100
    },
    {
      "midi": 55,
      "hit": false,
      "t": 85000,
      "d": 750,
      "v": 100
    },
    {
      "midi": 71,
      "hit": false,
      "t": 85250,
      "d": 250,
      "v": 100
    },
    {
      "midi": 73,
      "hit": false,
      "t": 85500,
      "d": 250,
      "v": 100
    },
    {
      "midi": 72,
      "hit": false,
      "t": 85750,
      "d": 250,
      "v": 100
    },
    {
      "midi": 57,
      "hit": false,
      "t": 85750,
      "d": 250,
      "v": 100
    },
    {
      "midi": 71,
      "hit": false,
      "t": 86000,
      "d": 1000,
      "v": 100
    },
    {
      "midi": 55,
      "hit": false,
      "t": 86000,
      "d": 1000,
      "v": 100
    },
    {
      "midi": 63,
      "hit": false,
      "t": 87000,
      "d": 1000,
      "v": 100
    },
    {
      "midi": 65,
      "hit": false,
      "t": 87000,
      "d": 1000,
      "v": 100
    },
    {
      "midi": 69,
      "hit": false,
      "t": 87000,
      "d": 1000,
      "v": 100
    },
    {
      "midi": 41,
      "hit": false,
      "t": 87000,
      "d": 1000,
      "v": 100
    },
    {
      "midi": 53,
      "hit": false,
      "t": 87000,
      "d": 1000,
      "v": 100
    },
    {
      "midi": 62,
      "hit": false,
      "t": 88000,
      "d": 1000,
      "v": 100
    },
    {
      "midi": 64,
      "hit": false,
      "t": 88000,
      "d": 1000,
      "v": 100
    },
    {
      "midi": 68,
      "hit": false,
      "t": 88000,
      "d": 1000,
      "v": 100
    },
    {
      "midi": 40,
      "hit": false,
      "t": 88000,
      "d": 1000,
      "v": 100
    },
    {
      "midi": 52,
      "hit": false,
      "t": 88000,
      "d": 1000,
      "v": 100
    },
    {
      "midi": 62,
      "hit": false,
      "t": 89000,
      "d": 1000,
      "v": 100
    },
    {
      "midi": 65,
      "hit": false,
      "t": 89000,
      "d": 1000,
      "v": 100
    },
    {
      "midi": 68,
      "hit": false,
      "t": 89000,
      "d": 1000,
      "v": 100
    },
    {
      "midi": 70,
      "hit": false,
      "t": 89000,
      "d": 1000,
      "v": 100
    },
    {
      "midi": 41,
      "hit": false,
      "t": 89000,
      "d": 1000,
      "v": 100
    },
    {
      "midi": 53,
      "hit": false,
      "t": 89000,
      "d": 1000,
      "v": 100
    },
    {
      "midi": 59,
      "hit": false,
      "t": 90000,
      "d": 500,
      "v": 100
    },
    {
      "midi": 61,
      "hit": false,
      "t": 90000,
      "d": 500,
      "v": 100
    },
    {
      "midi": 65,
      "hit": false,
      "t": 90000,
      "d": 500,
      "v": 100
    },
    {
      "midi": 68,
      "hit": false,
      "t": 90000,
      "d": 500,
      "v": 100
    },
    {
      "midi": 37,
      "hit": false,
      "t": 90000,
      "d": 500,
      "v": 100
    },
    {
      "midi": 49,
      "hit": false,
      "t": 90000,
      "d": 500,
      "v": 100
    },
    {
      "midi": 65,
      "hit": false,
      "t": 90500,
      "d": 250,
      "v": 100
    },
    {
      "midi": 69,
      "hit": false,
      "t": 90500,
      "d": 250,
      "v": 100
    },
    {
      "midi": 41,
      "hit": false,
      "t": 90500,
      "d": 250,
      "v": 100
    },
    {
      "midi": 53,
      "hit": false,
      "t": 90500,
      "d": 250,
      "v": 100
    },
    {
      "midi": 62,
      "hit": false,
      "t": 90750,
      "d": 250,
      "v": 100
    },
    {
      "midi": 65,
      "hit": false,
      "t": 90750,
      "d": 250,
      "v": 100
    },
    {
      "midi": 67,
      "hit": false,
      "t": 90750,
      "d": 250,
      "v": 100
    },
    {
      "midi": 71,
      "hit": false,
      "t": 90750,
      "d": 250,
      "v": 100
    },
    {
      "midi": 43,
      "hit": false,
      "t": 90750,
      "d": 250,
      "v": 100
    },
    {
      "midi": 55,
      "hit": false,
      "t": 90750,
      "d": 250,
      "v": 100
    },
    {
      "midi": 63,
      "hit": false,
      "t": 91000,
      "d": 750,
      "v": 100
    },
    {
      "midi": 67,
      "hit": false,
      "t": 91000,
      "d": 750,
      "v": 100
    },
    {
      "midi": 72,
      "hit": false,
      "t": 91000,
      "d": 750,
      "v": 100
    },
    {
      "midi": 36,
      "hit": false,
      "t": 91000,
      "d": 750,
      "v": 100
    },
    {
      "midi": 48,
      "hit": false,
      "t": 91000,
      "d": 750,
      "v": 100
    },
    {
      "midi": 60,
      "hit": false,
      "t": 91750,
      "d": 250,
      "v": 100
    },
    {
      "midi": 67,
      "hit": false,
      "t": 91750,
      "d": 250,
      "v": 100
    },
    {
      "midi": 72,
      "hit": false,
      "t": 91750,
      "d": 250,
      "v": 100
    },
    {
      "midi": 36,
      "hit": false,
      "t": 91750,
      "d": 250,
      "v": 100
    },
    {
      "midi": 48,
      "hit": false,
      "t": 91750,
      "d": 250,
      "v": 100
    },
    {
      "midi": 63,
      "hit": false,
      "t": 92000,
      "d": 250,
      "v": 100
    },
    {
      "midi": 67,
      "hit": false,
      "t": 92000,
      "d": 250,
      "v": 100
    },
    {
      "midi": 72,
      "hit": false,
      "t": 92000,
      "d": 250,
      "v": 100
    },
    {
      "midi": 43,
      "hit": false,
      "t": 92000,
      "d": 750,
      "v": 100
    },
    {
      "midi": 60,
      "hit": false,
      "t": 92500,
      "d": 500,
      "v": 100
    },
    {
      "midi": 63,
      "hit": false,
      "t": 92500,
      "d": 500,
      "v": 100
    },
    {
      "midi": 67,
      "hit": false,
      "t": 92500,
      "d": 500,
      "v": 100
    },
    {
      "midi": 39,
      "hit": false,
      "t": 92750,
      "d": 250,
      "v": 100
    },
    {
      "midi": 41,
      "hit": false,
      "t": 93000,
      "d": 750,
      "v": 100
    },
    {
      "midi": 56,
      "hit": false,
      "t": 93500,
      "d": 500,
      "v": 100
    },
    {
      "midi": 62,
      "hit": false,
      "t": 93500,
      "d": 500,
      "v": 100
    },
    {
      "midi": 65,
      "hit": false,
      "t": 93500,
      "d": 500,
      "v": 100
    },
    {
      "midi": 43,
      "hit": false,
      "t": 93750,
      "d": 250,
      "v": 100
    },
    {
      "midi": 45,
      "hit": false,
      "t": 94000,
      "d": 750,
      "v": 100
    },
    {
      "midi": 58,
      "hit": false,
      "t": 94500,
      "d": 500,
      "v": 100
    },
    {
      "midi": 62,
      "hit": false,
      "t": 94500,
      "d": 500,
      "v": 100
    },
    {
      "midi": 65,
      "hit": false,
      "t": 94500,
      "d": 500,
      "v": 100
    },
    {
      "midi": 46,
      "hit": false,
      "t": 94750,
      "d": 250,
      "v": 100
    },
    {
      "midi": 43,
      "hit": false,
      "t": 95000,
      "d": 750,
      "v": 100
    },
    {
      "midi": 55,
      "hit": false,
      "t": 95500,
      "d": 500,
      "v": 100
    },
    {
      "midi": 58,
      "hit": false,
      "t": 95500,
      "d": 500,
      "v": 100
    },
    {
      "midi": 63,
      "hit": false,
      "t": 95500,
      "d": 500,
      "v": 100
    },
    {
      "midi": 65,
      "hit": false,
      "t": 95500,
      "d": 500,
      "v": 100
    },
    {
      "midi": 41,
      "hit": false,
      "t": 95750,
      "d": 250,
      "v": 100
    },
    {
      "midi": 46,
      "hit": false,
      "t": 96000,
      "d": 750,
      "v": 100
    },
    {
      "midi": 58,
      "hit": false,
      "t": 96500,
      "d": 500,
      "v": 100
    },
    {
      "midi": 62,
      "hit": false,
      "t": 96500,
      "d": 500,
      "v": 100
    },
    {
      "midi": 65,
      "hit": false,
      "t": 96500,
      "d": 500,
      "v": 100
    },
    {
      "midi": 41,
      "hit": false,
      "t": 96750,
      "d": 250,
      "v": 100
    },
    {
      "midi": 48,
      "hit": false,
      "t": 97000,
      "d": 750,
      "v": 100
    },
    {
      "midi": 55,
      "hit": false,
      "t": 97500,
      "d": 500,
      "v": 100
    },
    {
      "midi": 60,
      "hit": false,
      "t": 97500,
      "d": 500,
      "v": 100
    },
    {
      "midi": 63,
      "hit": false,
      "t": 97500,
      "d": 500,
      "v": 100
    },
    {
      "midi": 43,
      "hit": false,
      "t": 97750,
      "d": 250,
      "v": 100
    },
    {
      "midi": 50,
      "hit": false,
      "t": 98000,
      "d": 750,
      "v": 100
    },
    {
      "midi": 58,
      "hit": false,
      "t": 98500,
      "d": 500,
      "v": 100
    },
    {
      "midi": 62,
      "hit": false,
      "t": 98500,
      "d": 500,
      "v": 100
    },
    {
      "midi": 67,
      "hit": false,
      "t": 98500,
      "d": 500,
      "v": 100
    },
    {
      "midi": 43,
      "hit": false,
      "t": 98750,
      "d": 250,
      "v": 100
    },
    {
      "midi": 53,
      "hit": false,
      "t": 99000,
      "d": 750,
      "v": 100
    },
    {
      "midi": 60,
      "hit": false,
      "t": 99500,
      "d": 500,
      "v": 100
    },
    {
      "midi": 62,
      "hit": false,
      "t": 99500,
      "d": 500,
      "v": 100
    },
    {
      "midi": 66,
      "hit": false,
      "t": 99500,
      "d": 500,
      "v": 100
    },
    {
      "midi": 69,
      "hit": false,
      "t": 99500,
      "d": 500,
      "v": 100
    },
    {
      "midi": 45,
      "hit": false,
      "t": 99750,
      "d": 250,
      "v": 100
    },
    {
      "midi": 55,
      "hit": false,
      "t": 100000,
      "d": 750,
      "v": 100
    },
    {
      "midi": 62,
      "hit": false,
      "t": 100500,
      "d": 500,
      "v": 100
    },
    {
      "midi": 67,
      "hit": false,
      "t": 100500,
      "d": 500,
      "v": 100
    },
    {
      "midi": 70,
      "hit": false,
      "t": 100500,
      "d": 500,
      "v": 100
    },
    {
      "midi": 43,
      "hit": false,
      "t": 100750,
      "d": 250,
      "v": 100
    },
    {
      "midi": 50,
      "hit": false,
      "t": 101000,
      "d": 750,
      "v": 100
    },
    {
      "midi": 62,
      "hit": false,
      "t": 101500,
      "d": 500,
      "v": 100
    },
    {
      "midi": 65,
      "hit": false,
      "t": 101500,
      "d": 500,
      "v": 100
    },
    {
      "midi": 69,
      "hit": false,
      "t": 101500,
      "d": 500,
      "v": 100
    },
    {
      "midi": 52,
      "hit": false,
      "t": 101750,
      "d": 250,
      "v": 100
    },
    {
      "midi": 50,
      "hit": false,
      "t": 102000,
      "d": 750,
      "v": 100
    },
    {
      "midi": 61,
      "hit": false,
      "t": 102500,
      "d": 500,
      "v": 100
    },
    {
      "midi": 64,
      "hit": false,
      "t": 102500,
      "d": 500,
      "v": 100
    },
    {
      "midi": 67,
      "hit": false,
      "t": 102500,
      "d": 500,
      "v": 100
    },
    {
      "midi": 70,
      "hit": false,
      "t": 102500,
      "d": 500,
      "v": 100
    },
    {
      "midi": 48,
      "hit": false,
      "t": 102750,
      "d": 250,
      "v": 100
    },
    {
      "midi": 43,
      "hit": false,
      "t": 103000,
      "d": 750,
      "v": 100
    },
    {
      "midi": 62,
      "hit": false,
      "t": 103500,
      "d": 500,
      "v": 100
    },
    {
      "midi": 65,
      "hit": false,
      "t": 103500,
      "d": 500,
      "v": 100
    },
    {
      "midi": 67,
      "hit": false,
      "t": 103500,
      "d": 500,
      "v": 100
    },
    {
      "midi": 71,
      "hit": false,
      "t": 103500,
      "d": 500,
      "v": 100
    },
    {
      "midi": 43,
      "hit": false,
      "t": 103750,
      "d": 250,
      "v": 100
    },
    {
      "midi": 64,
      "hit": false,
      "t": 104000,
      "d": 250,
      "v": 100
    },
    {
      "midi": 72,
      "hit": false,
      "t": 104000,
      "d": 250,
      "v": 100
    },
    {
      "midi": 48,
      "hit": false,
      "t": 104000,
      "d": 250,
      "v": 100
    },
    {
      "midi": 67,
      "hit": false,
      "t": 104250,
      "d": 250,
      "v": 100
    },
    {
      "midi": 52,
      "hit": false,
      "t": 104250,
      "d": 250,
      "v": 100
    },
    {
      "midi": 74,
      "hit": false,
      "t": 104500,
      "d": 500,
      "v": 100
    },
    {
      "midi": 57,
      "hit": false,
      "t": 104500,
      "d": 750,
      "v": 100
    },
    {
      "midi": 72,
      "hit": false,
      "t": 105000,
      "d": 250,
      "v": 100
    },
    {
      "midi": 71,
      "hit": false,
      "t": 105250,
      "d": 250,
      "v": 100
    },
    {
      "midi": 55,
      "hit": false,
      "t": 105250,
      "d": 250,
      "v": 100
    },
    {
      "midi": 72,
      "hit": false,
      "t": 105500,
      "d": 250,
      "v": 100
    },
    {
      "midi": 57,
      "hit": false,
      "t": 105500,
      "d": 250,
      "v": 100
    },
    {
      "midi": 74,
      "hit": false,
      "t": 105750,
      "d": 250,
      "v": 100
    },
    {
      "midi": 55,
      "hit": false,
      "t": 105750,
      "d": 250,
      "v": 100
    },
    {
      "midi": 76,
      "hit": false,
      "t": 106000,
      "d": 1500,
      "v": 100
    },
    {
      "midi": 60,
      "hit": false,
      "t": 106000,
      "d": 1500,
      "v": 100
    },
    {
      "midi": 48,
      "hit": false,
      "t": 110000,
      "d": 750,
      "v": 100
    },
    {
      "midi": 55,
      "hit": false,
      "t": 110500,
      "d": 500,
      "v": 100
    },
    {
      "midi": 60,
      "hit": false,
      "t": 110500,
      "d": 500,
      "v": 100
    },
    {
      "midi": 43,
      "hit": false,
      "t": 110750,
      "d": 250,
      "v": 100
    },
    {
      "midi": 50,
      "hit": false,
      "t": 111000,
      "d": 250,
      "v": 100
    },
    {
      "midi": 53,
      "hit": false,
      "t": 111250,
      "d": 250,
      "v": 100
    },
    {
      "midi": 62,
      "hit": false,
      "t": 111500,
      "d": 250,
      "v": 100
    },
    {
      "midi": 58,
      "hit": false,
      "t": 111500,
      "d": 750,
      "v": 100
    },
    {
      "midi": 65,
      "hit": false,
      "t": 111750,
      "d": 250,
      "v": 100
    },
    {
      "midi": 70,
      "hit": false,
      "t": 112000,
      "d": 750,
      "v": 100
    },
    {
      "midi": 55,
      "hit": false,
      "t": 112250,
      "d": 250,
      "v": 100
    },
    {
      "midi": 53,
      "hit": false,
      "t": 112500,
      "d": 250,
      "v": 100
    },
    {
      "midi": 69,
      "hit": false,
      "t": 112750,
      "d": 250,
      "v": 100
    },
    {
      "midi": 57,
      "hit": false,
      "t": 112750,
      "d": 250,
      "v": 100
    },
    {
      "midi": 70,
      "hit": false,
      "t": 113000,
      "d": 250,
      "v": 100
    },
    {
      "midi": 62,
      "hit": false,
      "t": 113000,
      "d": 750,
      "v": 100
    },
    {
      "midi": 69,
      "hit": false,
      "t": 113250,
      "d": 250,
      "v": 100
    },
    {
      "midi": 72,
      "hit": false,
      "t": 113500,
      "d": 250,
      "v": 100
    },
    {
      "midi": 70,
      "hit": false,
      "t": 113750,
      "d": 250,
      "v": 100
    },
    {
      "midi": 60,
      "hit": false,
      "t": 113750,
      "d": 250,
      "v": 100
    },
    {
      "midi": 68,
      "hit": false,
      "t": 114000,
      "d": 500,
      "v": 100
    },
    {
      "midi": 65,
      "hit": false,
      "t": 114000,
      "d": 1000,
      "v": 100
    },
    {
      "midi": 75,
      "hit": false,
      "t": 114500,
      "d": 250,
      "v": 100
    },
    {
      "midi": 67,
      "hit": false,
      "t": 114750,
      "d": 250,
      "v": 100
    },
    {
      "midi": 62,
      "hit": false,
      "t": 115000,
      "d": 250,
      "v": 100
    },
    {
      "midi": 58,
      "hit": false,
      "t": 115000,
      "d": 250,
      "v": 100
    },
    {
      "midi": 55,
      "hit": false,
      "t": 115250,
      "d": 1000,
      "v": 100
    },
    {
      "midi": 50,
      "hit": false,
      "t": 115250,
      "d": 250,
      "v": 100
    },
    {
      "midi": 48,
      "hit": false,
      "t": 115500,
      "d": 1000,
      "v": 100
    },
    {
      "midi": 75,
      "hit": false,
      "t": 116250,
      "d": 250,
      "v": 100
    },
    {
      "midi": 67,
      "hit": false,
      "t": 116500,
      "d": 250,
      "v": 100
    },
    {
      "midi": 58,
      "hit": false,
      "t": 116500,
      "d": 250,
      "v": 100
    },
    {
      "midi": 62,
      "hit": false,
      "t": 116750,
      "d": 250,
      "v": 100
    },
    {
      "midi": 50,
      "hit": false,
      "t": 116750,
      "d": 250,
      "v": 100
    },
    {
      "midi": 55,
      "hit": false,
      "t": 117000,
      "d": 500,
      "v": 100
    },
    {
      "midi": 48,
      "hit": false,
      "t": 117000,
      "d": 500,
      "v": 100
    },
    {
      "midi": 75,
      "hit": false,
      "t": 117500,
      "d": 250,
      "v": 100
    },
    {
      "midi": 58,
      "hit": false,
      "t": 117500,
      "d": 250,
      "v": 100
    },
    {
      "midi": 67,
      "hit": false,
      "t": 117750,
      "d": 250,
      "v": 100
    },
    {
      "midi": 50,
      "hit": false,
      "t": 117750,
      "d": 250,
      "v": 100
    },
    {
      "midi": 62,
      "hit": false,
      "t": 118000,
      "d": 250,
      "v": 100
    },
    {
      "midi": 48,
      "hit": false,
      "t": 118000,
      "d": 250,
      "v": 100
    },
    {
      "midi": 63,
      "hit": false,
      "t": 118250,
      "d": 500,
      "v": 100
    },
    {
      "midi": 48,
      "hit": false,
      "t": 118250,
      "d": 500,
      "v": 100
    },
    {
      "midi": 63,
      "hit": false,
      "t": 118750,
      "d": 250,
      "v": 100
    },
    {
      "midi": 48,
      "hit": false,
      "t": 118750,
      "d": 250,
      "v": 100
    },
    {
      "midi": 63,
      "hit": false,
      "t": 119000,
      "d": 1000,
      "v": 100
    },
    {
      "midi": 46,
      "hit": false,
      "t": 119000,
      "d": 500,
      "v": 100
    },
    {
      "midi": 44,
      "hit": false,
      "t": 119500,
      "d": 500,
      "v": 100
    },
    {
      "midi": 62,
      "hit": false,
      "t": 120000,
      "d": 250,
      "v": 100
    },
    {
      "midi": 67,
      "hit": false,
      "t": 120000,
      "d": 250,
      "v": 100
    },
    {
      "midi": 70,
      "hit": false,
      "t": 120000,
      "d": 250,
      "v": 100
    },
    {
      "midi": 43,
      "hit": false,
      "t": 120000,
      "d": 250,
      "v": 100
    },
    {
      "midi": 50,
      "hit": false,
      "t": 120000,
      "d": 250,
      "v": 100
    },
    {
      "midi": 55,
      "hit": false,
      "t": 120000,
      "d": 250,
      "v": 100
    },
    {
      "midi": 31,
      "hit": false,
      "t": 121750,
      "d": 250,
      "v": 100
    },
    {
      "midi": 60,
      "hit": false,
      "t": 122000,
      "d": 250,
      "v": 100
    },
    {
      "midi": 63,
      "hit": false,
      "t": 122000,
      "d": 250,
      "v": 100
    },
    {
      "midi": 67,
      "hit": false,
      "t": 122000,
      "d": 250,
      "v": 100
    },
    {
      "midi": 72,
      "hit": false,
      "t": 122000,
      "d": 250,
      "v": 100
    },
    {
      "midi": 36,
      "hit": false,
      "t": 122000,
      "d": 250,
      "v": 100
    },
    {
      "midi": 48,
      "hit": false,
      "t": 122000,
      "d": 250,
      "v": 100
    },
    {
      "midi": 62,
      "hit": false,
      "t": 123250,
      "d": 250,
      "v": 100
    },
    {
      "midi": 65,
      "hit": false,
      "t": 123250,
      "d": 250,
      "v": 100
    },
    {
      "midi": 67,
      "hit": false,
      "t": 123250,
      "d": 250,
      "v": 100
    },
    {
      "midi": 71,
      "hit": false,
      "t": 123250,
      "d": 250,
      "v": 100
    },
    {
      "midi": 31,
      "hit": false,
      "t": 123250,
      "d": 250,
      "v": 100
    },
    {
      "midi": 43,
      "hit": false,
      "t": 123250,
      "d": 250,
      "v": 100
    },
    {
      "midi": 68,
      "hit": false,
      "t": 124000,
      "d": 250,
      "v": 100
    },
    {
      "midi": 72,
      "hit": false,
      "t": 124000,
      "d": 250,
      "v": 100
    },
    {
      "midi": 75,
      "hit": false,
      "t": 124000,
      "d": 250,
      "v": 100
    },
    {
      "midi": 44,
      "hit": false,
      "t": 124000,
      "d": 250,
      "v": 100
    },
    {
      "midi": 56,
      "hit": false,
      "t": 124000,
      "d": 250,
      "v": 100
    },
    {
      "midi": 63,
      "hit": false,
      "t": 124250,
      "d": 250,
      "v": 100
    },
    {
      "midi": 68,
      "hit": false,
      "t": 124250,
      "d": 250,
      "v": 100
    },
    {
      "midi": 72,
      "hit": false,
      "t": 124250,
      "d": 250,
      "v": 100
    },
    {
      "midi": 39,
      "hit": false,
      "t": 124250,
      "d": 250,
      "v": 100
    },
    {
      "midi": 51,
      "hit": false,
      "t": 124250,
      "d": 250,
      "v": 100
    },
    {
      "midi": 60,
      "hit": false,
      "t": 124500,
      "d": 250,
      "v": 100
    },
    {
      "midi": 63,
      "hit": false,
      "t": 124500,
      "d": 250,
      "v": 100
    },
    {
      "midi": 68,
      "hit": false,
      "t": 124500,
      "d": 250,
      "v": 100
    },
    {
      "midi": 32,
      "hit": false,
      "t": 124500,
      "d": 250,
      "v": 100
    },
    {
      "midi": 45,
      "hit": false,
      "t": 124500,
      "d": 250,
      "v": 100
    },
    {
      "midi": 29,
      "hit": false,
      "t": 124750,
      "d": 250,
      "v": 100
    },
    {
      "midi": 41,
      "hit": false,
      "t": 124750,
      "d": 250,
      "v": 100
    },
    {
      "midi": 58,
      "hit": false,
      "t": 125000,
      "d": 250,
      "v": 100
    },
    {
      "midi": 62,
      "hit": false,
      "t": 125000,
      "d": 250,
      "v": 100
    },
    {
      "midi": 65,
      "hit": false,
      "t": 125000,
      "d": 250,
      "v": 100
    },
    {
      "midi": 70,
      "hit": false,
      "t": 125000,
      "d": 250,
      "v": 100
    },
    {
      "midi": 34,
      "hit": false,
      "t": 125000,
      "d": 250,
      "v": 100
    },
    {
      "midi": 46,
      "hit": false,
      "t": 125000,
      "d": 250,
      "v": 100
    },
    {
      "midi": 31,
      "hit": false,
      "t": 125750,
      "d": 250,
      "v": 100
    },
    {
      "midi": 43,
      "hit": false,
      "t": 125750,
      "d": 250,
      "v": 100
    },
    {
      "midi": 55,
      "hit": false,
      "t": 126000,
      "d": 250,
      "v": 100
    },
    {
      "midi": 60,
      "hit": false,
      "t": 126000,
      "d": 250,
      "v": 100
    },
    {
      "midi": 63,
      "hit": false,
      "t": 126000,
      "d": 250,
      "v": 100
    },
    {
      "midi": 67,
      "hit": false,
      "t": 126000,
      "d": 250,
      "v": 100
    },
    {
      "midi": 36,
      "hit": false,
      "t": 126000,
      "d": 250,
      "v": 100
    },
    {
      "midi": 48,
      "hit": false,
      "t": 126000,
      "d": 250,
      "v": 100
    },
    {
      "midi": 60,
      "hit": false,
      "t": 128500,
      "d": 250,
      "v": 100
    },
    {
      "midi": 33,
      "hit": false,
      "t": 128500,
      "d": 250,
      "v": 100
    },
    {
      "midi": 67,
      "hit": false,
      "t": 128750,
      "d": 250,
      "v": 100
    },
    {
      "midi": 40,
      "hit": false,
      "t": 128750,
      "d": 250,
      "v": 100
    },
    {
      "midi": 72,
      "hit": false,
      "t": 129000,
      "d": 500,
      "v": 100
    },
    {
      "midi": 45,
      "hit": false,
      "t": 129000,
      "d": 500,
      "v": 100
    },
    {
      "midi": 62,
      "hit": false,
      "t": 129500,
      "d": 2500,
      "v": 100
    },
    {
      "midi": 67,
      "hit": false,
      "t": 129500,
      "d": 2500,
      "v": 100
    },
    {
      "midi": 74,
      "hit": false,
      "t": 129500,
      "d": 2500,
      "v": 100
    },
    {
      "midi": 31,
      "hit": false,
      "t": 129500,
      "d": 2000,
      "v": 100
    },
    {
      "midi": 38,
      "hit": false,
      "t": 129500,
      "d": 2000,
      "v": 100
    },
    {
      "midi": 43,
      "hit": false,
      "t": 129500,
      "d": 2000,
      "v": 100
    },
    {
      "midi": 31,
      "hit": false,
      "t": 131500,
      "d": 500,
      "v": 100
    }
  ]
}