{
  "jsonPath": "Rock/Folk Rock/Simon And Garfunkel/the-boxer.json",
  "path": "Rock\\Folk Rock\\Simon And Garfunkel\\The Boxer.mid",
  "name": "The Boxer",
  "difficulty": "Advanced",
  "bpm": 125,
  "notes": [
    {
      "midi": 64,
      "hit": false,
      "t": 0,
      "d": 480,
      "v": 78
    },
    {
      "midi": 67,
      "hit": false,
      "t": 0,
      "d": 480,
      "v": 87
    },
    {
      "midi": 48,
      "hit": false,
      "t": 0,
      "d": 480,
      "v": 69
    },
    {
      "midi": 67,
      "hit": false,
      "t": 480,
      "d": 480,
      "v": 97
    },
    {
      "midi": 52,
      "hit": false,
      "t": 480,
      "d": 480,
      "v": 74
    },
    {
      "midi": 67,
      "hit": false,
      "t": 960,
      "d": 720,
      "v": 97
    },
    {
      "midi": 55,
      "hit": false,
      "t": 960,
      "d": 480,
      "v": 66
    },
    {
      "midi": 52,
      "hit": false,
      "t": 1440,
      "d": 480,
      "v": 74
    },
    {
      "midi": 69,
      "hit": false,
      "t": 1680,
      "d": 240,
      "v": 67
    },
    {
      "midi": 67,
      "hit": false,
      "t": 1920,
      "d": 480,
      "v": 87
    },
    {
      "midi": 48,
      "hit": false,
      "t": 1920,
      "d": 480,
      "v": 65
    },
    {
      "midi": 60,
      "hit": false,
      "t": 2400,
      "d": 480,
      "v": 64
    },
    {
      "midi": 64,
      "hit": false,
      "t": 2400,
      "d": 480,
      "v": 68
    },
    {
      "midi": 52,
      "hit": false,
      "t": 2400,
      "d": 480,
      "v": 76
    },
    {
      "midi": 64,
      "hit": false,
      "t": 2880,
      "d": 240,
      "v": 78
    },
    {
      "midi": 55,
      "hit": false,
      "t": 2880,
      "d": 480,
      "v": 68
    },
    {
      "midi": 65,
      "hit": false,
      "t": 3120,
      "d": 720,
      "v": 82
    },
    {
      "midi": 52,
      "hit": false,
      "t": 3360,
      "d": 480,
      "v": 72
    },
    {
      "midi": 64,
      "hit": false,
      "t": 3840,
      "d": 480,
      "v": 84
    },
    {
      "midi": 67,
      "hit": false,
      "t": 3840,
      "d": 480,
      "v": 82
    },
    {
      "midi": 48,
      "hit": false,
      "t": 3840,
      "d": 480,
      "v": 80
    },
    {
      "midi": 67,
      "hit": false,
      "t": 4320,
      "d": 480,
      "v": 74
    },
    {
      "midi": 52,
      "hit": false,
      "t": 4320,
      "d": 480,
      "v": 78
    },
    {
      "midi": 72,
      "hit": false,
      "t": 4800,
      "d": 480,
      "v": 78
    },
    {
      "midi": 48,
      "hit": false,
      "t": 4800,
      "d": 480,
      "v": 84
    },
    {
      "midi": 71,
      "hit": false,
      "t": 5280,
      "d": 480,
      "v": 80
    },
    {
      "midi": 47,
      "hit": false,
      "t": 5280,
      "d": 480,
      "v": 89
    },
    {
      "midi": 60,
      "hit": false,
      "t": 5760,
      "d": 960,
      "v": 78
    },
    {
      "midi": 64,
      "hit": false,
      "t": 5760,
      "d": 960,
      "v": 82
    },
    {
      "midi": 69,
      "hit": false,
      "t": 5760,
      "d": 960,
      "v": 82
    },
    {
      "midi": 45,
      "hit": false,
      "t": 5760,
      "d": 480,
      "v": 64
    },
    {
      "midi": 52,
      "hit": false,
      "t": 6240,
      "d": 480,
      "v": 89
    },
    {
      "midi": 69,
      "hit": false,
      "t": 6720,
      "d": 480,
      "v": 84
    },
    {
      "midi": 57,
      "hit": false,
      "t": 6720,
      "d": 480,
      "v": 74
    },
    {
      "midi": 71,
      "hit": false,
      "t": 7200,
      "d": 480,
      "v": 87
    },
    {
      "midi": 52,
      "hit": false,
      "t": 7200,
      "d": 480,
      "v": 84
    },
    {
      "midi": 59,
      "hit": false,
      "t": 7680,
      "d": 480,
      "v": 72
    },
    {
      "midi": 62,
      "hit": false,
      "t": 7680,
      "d": 480,
      "v": 76
    },
    {
      "midi": 69,
      "hit": false,
      "t": 7680,
      "d": 480,
      "v": 78
    },
    {
      "midi": 43,
      "hit": false,
      "t": 7680,
      "d": 480,
      "v": 74
    },
    {
      "midi": 67,
      "hit": false,
      "t": 8160,
      "d": 480,
      "v": 74
    },
    {
      "midi": 50,
      "hit": false,
      "t": 8160,
      "d": 480,
      "v": 92
    },
    {
      "midi": 67,
      "hit": false,
      "t": 8640,
      "d": 720,
      "v": 104
    },
    {
      "midi": 55,
      "hit": false,
      "t": 8640,
      "d": 480,
      "v": 82
    },
    {
      "midi": 50,
      "hit": false,
      "t": 9120,
      "d": 480,
      "v": 80
    },
    {
      "midi": 69,
      "hit": false,
      "t": 9360,
      "d": 240,
      "v": 87
    },
    {
      "midi": 59,
      "hit": false,
      "t": 9600,
      "d": 480,
      "v": 92
    },
    {
      "midi": 67,
      "hit": false,
      "t": 9600,
      "d": 480,
      "v": 87
    },
    {
      "midi": 43,
      "hit": false,
      "t": 9600,
      "d": 480,
      "v": 74
    },
    {
      "midi": 62,
      "hit": false,
      "t": 10080,
      "d": 960,
      "v": 78
    },
    {
      "midi": 50,
      "hit": false,
      "t": 10080,
      "d": 480,
      "v": 82
    },
    {
      "midi": 55,
      "hit": false,
      "t": 10560,
      "d": 480,
      "v": 78
    },
    {
      "midi": 62,
      "hit": false,
      "t": 11040,
      "d": 240,
      "v": 80
    },
    {
      "midi": 50,
      "hit": false,
      "t": 11040,
      "d": 480,
      "v": 80
    },
    {
      "midi": 64,
      "hit": false,
      "t": 11280,
      "d": 240,
      "v": 82
    },
    {
      "midi": 59,
      "hit": false,
      "t": 11520,
      "d": 480,
      "v": 66
    },
    {
      "midi": 62,
      "hit": false,
      "t": 11520,
      "d": 480,
      "v": 76
    },
    {
      "midi": 65,
      "hit": false,
      "t": 11520,
      "d": 480,
      "v": 74
    },
    {
      "midi": 43,
      "hit": false,
      "t": 11520,
      "d": 480,
      "v": 76
    },
    {
      "midi": 65,
      "hit": false,
      "t": 12000,
      "d": 480,
      "v": 92
    },
    {
      "midi": 50,
      "hit": false,
      "t": 12000,
      "d": 480,
      "v": 78
    },
    {
      "midi": 65,
      "hit": false,
      "t": 12480,
      "d": 720,
      "v": 84
    },
    {
      "midi": 55,
      "hit": false,
      "t": 12480,
      "d": 480,
      "v": 80
    },
    {
      "midi": 50,
      "hit": false,
      "t": 12960,
      "d": 480,
      "v": 82
    },
    {
      "midi": 67,
      "hit": false,
      "t": 13200,
      "d": 240,
      "v": 82
    },
    {
      "midi": 55,
      "hit": false,
      "t": 13440,
      "d": 480,
      "v": 62
    },
    {
      "midi": 60,
      "hit": false,
      "t": 13440,
      "d": 480,
      "v": 64
    },
    {
      "midi": 65,
      "hit": false,
      "t": 13440,
      "d": 480,
      "v": 72
    },
    {
      "midi": 43,
      "hit": false,
      "t": 13440,
      "d": 480,
      "v": 76
    },
    {
      "midi": 64,
      "hit": false,
      "t": 13920,
      "d": 480,
      "v": 61
    },
    {
      "midi": 48,
      "hit": false,
      "t": 13920,
      "d": 480,
      "v": 89
    },
    {
      "midi": 60,
      "hit": false,
      "t": 14400,
      "d": 480,
      "v": 87
    },
    {
      "midi": 55,
      "hit": false,
      "t": 14400,
      "d": 480,
      "v": 78
    },
    {
      "midi": 59,
      "hit": false,
      "t": 14880,
      "d": 480,
      "v": 92
    },
    {
      "midi": 62,
      "hit": false,
      "t": 14880,
      "d": 480,
      "v": 84
    },
    {
      "midi": 50,
      "hit": false,
      "t": 14880,
      "d": 480,
      "v": 82
    },
    {
      "midi": 55,
      "hit": false,
      "t": 15360,
      "d": 240,
      "v": 67
    },
    {
      "midi": 60,
      "hit": false,
      "t": 15360,
      "d": 240,
      "v": 74
    },
    {
      "midi": 65,
      "hit": false,
      "t": 15360,
      "d": 240,
      "v": 78
    },
    {
      "midi": 48,
      "hit": false,
      "t": 15360,
      "d": 480,
      "v": 76
    },
    {
      "midi": 64,
      "hit": false,
      "t": 15600,
      "d": 480,
      "v": 72
    },
    {
      "midi": 52,
      "hit": false,
      "t": 15840,
      "d": 480,
      "v": 78
    },
    {
      "midi": 60,
      "hit": false,
      "t": 16080,
      "d": 720,
      "v": 76
    },
    {
      "midi": 55,
      "hit": false,
      "t": 16320,
      "d": 480,
      "v": 71
    },
    {
      "midi": 64,
      "hit": false,
      "t": 16800,
      "d": 240,
      "v": 80
    },
    {
      "midi": 52,
      "hit": false,
      "t": 16800,
      "d": 480,
      "v": 74
    },
    {
      "midi": 55,
      "hit": false,
      "t": 17040,
      "d": 480,
      "v": 89
    },
    {
      "midi": 48,
      "hit": false,
      "t": 17280,
      "d": 480,
      "v": 80
    },
    {
      "midi": 55,
      "hit": false,
      "t": 17520,
      "d": 240,
      "v": 87
    },
    {
      "midi": 64,
      "hit": false,
      "t": 17760,
      "d": 240,
      "v": 76
    },
    {
      "midi": 52,
      "hit": false,
      "t": 17760,
      "d": 480,
      "v": 87
    },
    {
      "midi": 55,
      "hit": false,
      "t": 18000,
      "d": 480,
      "v": 101
    },
    {
      "midi": 55,
      "hit": false,
      "t": 18240,
      "d": 480,
      "v": 76
    },
    {
      "midi": 67,
      "hit": false,
      "t": 18480,
      "d": 240,
      "v": 95
    },
    {
      "midi": 64,
      "hit": false,
      "t": 18720,
      "d": 240,
      "v": 95
    },
    {
      "midi": 52,
      "hit": false,
      "t": 18720,
      "d": 480,
      "v": 80
    },
    {
      "midi": 60,
      "hit": false,
      "t": 18960,
      "d": 240,
      "v": 84
    },
    {
      "midi": 64,
      "hit": false,
      "t": 19200,
      "d": 480,
      "v": 80
    },
    {
      "midi": 48,
      "hit": false,
      "t": 19200,
      "d": 480,
      "v": 80
    },
    {
      "midi": 72,
      "hit": false,
      "t": 19680,
      "d": 480,
      "v": 89
    },
    {
      "midi": 52,
      "hit": false,
      "t": 19680,
      "d": 480,
      "v": 82
    },
    {
      "midi": 72,
      "hit": false,
      "t": 20160,
      "d": 480,
      "v": 78
    },
    {
      "midi": 48,
      "hit": false,
      "t": 20160,
      "d": 480,
      "v": 76
    },
    {
      "midi": 71,
      "hit": false,
      "t": 20640,
      "d": 480,
      "v": 82
    },
    {
      "midi": 47,
      "hit": false,
      "t": 20640,
      "d": 480,
      "v": 95
    },
    {
      "midi": 69,
      "hit": false,
      "t": 21120,
      "d": 960,
      "v": 82
    },
    {
      "midi": 72,
      "hit": false,
      "t": 21120,
      "d": 960,
      "v": 74
    },
    {
      "midi": 45,
      "hit": false,
      "t": 21120,
      "d": 480,
      "v": 82
    },
    {
      "midi": 52,
      "hit": false,
      "t": 21600,
      "d": 480,
      "v": 64
    },
    {
      "midi": 69,
      "hit": false,
      "t": 22080,
      "d": 720,
      "v": 76
    },
    {
      "midi": 72,
      "hit": false,
      "t": 22080,
      "d": 720,
      "v": 72
    },
    {
      "midi": 57,
      "hit": false,
      "t": 22080,
      "d": 480,
      "v": 72
    },
    {
      "midi": 52,
      "hit": false,
      "t": 22560,
      "d": 480,
      "v": 65
    },
    {
      "midi": 71,
      "hit": false,
      "t": 22800,
      "d": 240,
      "v": 80
    },
    {
      "midi": 72,
      "hit": false,
      "t": 23040,
      "d": 480,
      "v": 87
    },
    {
      "midi": 43,
      "hit": false,
      "t": 23040,
      "d": 480,
      "v": 72
    },
    {
      "midi": 67,
      "hit": false,
      "t": 23520,
      "d": 960,
      "v": 59
    },
    {
      "midi": 71,
      "hit": false,
      "t": 23520,
      "d": 960,
      "v": 69
    },
    {
      "midi": 50,
      "hit": false,
      "t": 23520,
      "d": 480,
      "v": 74
    },
    {
      "midi": 55,
      "hit": false,
      "t": 24000,
      "d": 480,
      "v": 68
    },
    {
      "midi": 67,
      "hit": false,
      "t": 24480,
      "d": 240,
      "v": 92
    },
    {
      "midi": 71,
      "hit": false,
      "t": 24480,
      "d": 240,
      "v": 89
    },
    {
      "midi": 50,
      "hit": false,
      "t": 24480,
      "d": 480,
      "v": 80
    },
    {
      "midi": 71,
      "hit": false,
      "t": 24720,
      "d": 240,
      "v": 82
    },
    {
      "midi": 71,
      "hit": false,
      "t": 24960,
      "d": 480,
      "v": 63
    },
    {
      "midi": 41,
      "hit": false,
      "t": 24960,
      "d": 480,
      "v": 68
    },
    {
      "midi": 69,
      "hit": false,
      "t": 25440,
      "d": 240,
      "v": 69
    },
    {
      "midi": 48,
      "hit": false,
      "t": 25440,
      "d": 480,
      "v": 89
    },
    {
      "midi": 65,
      "hit": false,
      "t": 25680,
      "d": 720,
      "v": 74
    },
    {
      "midi": 69,
      "hit": false,
      "t": 25680,
      "d": 720,
      "v": 95
    },
    {
      "midi": 53,
      "hit": false,
      "t": 25920,
      "d": 480,
      "v": 65
    },
    {
      "midi": 65,
      "hit": false,
      "t": 26400,
      "d": 480,
      "v": 76
    },
    {
      "midi": 69,
      "hit": false,
      "t": 26400,
      "d": 480,
      "v": 87
    },
    {
      "midi": 48,
      "hit": false,
      "t": 26400,
      "d": 480,
      "v": 74
    },
    {
      "midi": 65,
      "hit": false,
      "t": 26880,
      "d": 720,
      "v": 76
    },
    {
      "midi": 69,
      "hit": false,
      "t": 26880,
      "d": 720,
      "v": 87
    },
    {
      "midi": 41,
      "hit": false,
      "t": 26880,
      "d": 480,
      "v": 84
    },
    {
      "midi": 48,
      "hit": false,
      "t": 27360,
      "d": 480,
      "v": 87
    },
    {
      "midi": 69,
      "hit": false,
      "t": 27600,
      "d": 240,
      "v": 95
    },
    {
      "midi": 65,
      "hit": false,
      "t": 27840,
      "d": 480,
      "v": 82
    },
    {
      "midi": 69,
      "hit": false,
      "t": 27840,
      "d": 480,
      "v": 101
    },
    {
      "midi": 53,
      "hit": false,
      "t": 27840,
      "d": 480,
      "v": 68
    },
    {
      "midi": 65,
      "hit": false,
      "t": 28320,
      "d": 480,
      "v": 89
    },
    {
      "midi": 48,
      "hit": false,
      "t": 28320,
      "d": 480,
      "v": 82
    },
    {
      "midi": 67,
      "hit": false,
      "t": 28800,
      "d": 240,
      "v": 84
    },
    {
      "midi": 48,
      "hit": false,
      "t": 28800,
      "d": 480,
      "v": 84
    },
    {
      "midi": 55,
      "hit": false,
      "t": 29040,
      "d": 240,
      "v": 60
    },
    {
      "midi": 60,
      "hit": false,
      "t": 29280,
      "d": 240,
      "v": 97
    },
    {
      "midi": 52,
      "hit": false,
      "t": 29280,
      "d": 480,
      "v": 89
    },
    {
      "midi": 64,
      "hit": false,
      "t": 29520,
      "d": 480,
      "v": 82
    },
    {
      "midi": 55,
      "hit": false,
      "t": 29760,
      "d": 480,
      "v": 69
    },
    {
      "midi": 55,
      "hit": false,
      "t": 30000,
      "d": 240,
      "v": 72
    },
    {
      "midi": 59,
      "hit": false,
      "t": 30240,
      "d": 240,
      "v": 101
    },
    {
      "midi": 52,
      "hit": false,
      "t": 30240,
      "d": 480,
      "v": 68
    },
    {
      "midi": 64,
      "hit": false,
      "t": 30480,
      "d": 480,
      "v": 84
    },
    {
      "midi": 43,
      "hit": false,
      "t": 30720,
      "d": 480,
      "v": 78
    },
    {
      "midi": 55,
      "hit": false,
      "t": 30960,
      "d": 240,
      "v": 78
    },
    {
      "midi": 59,
      "hit": false,
      "t": 31200,
      "d": 240,
      "v": 76
    },
    {
      "midi": 50,
      "hit": false,
      "t": 31200,
      "d": 480,
      "v": 87
    },
    {
      "midi": 62,
      "hit": false,
      "t": 31440,
      "d": 480,
      "v": 80
    },
    {
      "midi": 55,
      "hit": false,
      "t": 31680,
      "d": 480,
      "v": 78
    },
    {
      "midi": 55,
      "hit": false,
      "t": 31920,
      "d": 240,
      "v": 69
    },
    {
      "midi": 59,
      "hit": false,
      "t": 32160,
      "d": 240,
      "v": 76
    },
    {
      "midi": 50,
      "hit": false,
      "t": 32160,
      "d": 480,
      "v": 72
    },
    {
      "midi": 62,
      "hit": false,
      "t": 32400,
      "d": 240,
      "v": 82
    },
    {
      "midi": 67,
      "hit": false,
      "t": 32640,
      "d": 240,
      "v": 76
    },
    {
      "midi": 43,
      "hit": false,
      "t": 32640,
      "d": 480,
      "v": 80
    },
    {
      "midi": 55,
      "hit": false,
      "t": 32880,
      "d": 240,
      "v": 62
    },
    {
      "midi": 59,
      "hit": false,
      "t": 33120,
      "d": 240,
      "v": 95
    },
    {
      "midi": 50,
      "hit": false,
      "t": 33120,
      "d": 480,
      "v": 76
    },
    {
      "midi": 62,
      "hit": false,
      "t": 33360,
      "d": 480,
      "v": 89
    },
    {
      "midi": 55,
      "hit": false,
      "t": 33600,
      "d": 480,
      "v": 82
    },
    {
      "midi": 55,
      "hit": false,
      "t": 33840,
      "d": 240,
      "v": 82
    },
    {
      "midi": 59,
      "hit": false,
      "t": 34080,
      "d": 240,
      "v": 95
    },
    {
      "midi": 50,
      "hit": false,
      "t": 34080,
      "d": 480,
      "v": 71
    },
    {
      "midi": 62,
      "hit": false,
      "t": 34320,
      "d": 240,
      "v": 80
    },
    {
      "midi": 65,
      "hit": false,
      "t": 34560,
      "d": 240,
      "v": 80
    },
    {
      "midi": 43,
      "hit": false,
      "t": 34560,
      "d": 480,
      "v": 74
    },
    {
      "midi": 55,
      "hit": false,
      "t": 34800,
      "d": 240,
      "v": 64
    },
    {
      "midi": 59,
      "hit": false,
      "t": 35040,
      "d": 240,
      "v": 92
    },
    {
      "midi": 50,
      "hit": false,
      "t": 35040,
      "d": 480,
      "v": 64
    },
    {
      "midi": 62,
      "hit": false,
      "t": 35280,
      "d": 240,
      "v": 87
    },
    {
      "midi": 55,
      "hit": false,
      "t": 35520,
      "d": 480,
      "v": 92
    },
    {
      "midi": 64,
      "hit": false,
      "t": 35520,
      "d": 480,
      "v": 97
    },
    {
      "midi": 48,
      "hit": false,
      "t": 35520,
      "d": 480,
      "v": 87
    },
    {
      "midi": 62,
      "hit": false,
      "t": 36000,
      "d": 480,
      "v": 76
    },
    {
      "midi": 47,
      "hit": false,
      "t": 36000,
      "d": 480,
      "v": 89
    },
    {
      "midi": 60,
      "hit": false,
      "t": 36480,
      "d": 1920,
      "v": 84
    },
    {
      "midi": 64,
      "hit": false,
      "t": 36480,
      "d": 1920,
      "v": 74
    },
    {
      "midi": 43,
      "hit": false,
      "t": 36480,
      "d": 480,
      "v": 89
    },
    {
      "midi": 52,
      "hit": false,
      "t": 36960,
      "d": 480,
      "v": 87
    },
    {
      "midi": 55,
      "hit": false,
      "t": 37440,
      "d": 480,
      "v": 72
    },
    {
      "midi": 52,
      "hit": false,
      "t": 37920,
      "d": 480,
      "v": 72
    },
    {
      "midi": 60,
      "hit": false,
      "t": 38400,
      "d": 720,
      "v": 64
    },
    {
      "midi": 64,
      "hit": false,
      "t": 38400,
      "d": 720,
      "v": 69
    },
    {
      "midi": 43,
      "hit": false,
      "t": 38400,
      "d": 480,
      "v": 68
    },
    {
      "midi": 48,
      "hit": false,
      "t": 38880,
      "d": 480,
      "v": 82
    },
    {
      "midi": 60,
      "hit": false,
      "t": 39120,
      "d": 240,
      "v": 71
    },
    {
      "midi": 64,
      "hit": false,
      "t": 39120,
      "d": 240,
      "v": 76
    },
    {
      "midi": 60,
      "hit": false,
      "t": 39360,
      "d": 960,
      "v": 71
    },
    {
      "midi": 64,
      "hit": false,
      "t": 39360,
      "d": 960,
      "v": 76
    },
    {
      "midi": 55,
      "hit": false,
      "t": 39360,
      "d": 480,
      "v": 68
    },
    {
      "midi": 52,
      "hit": false,
      "t": 39840,
      "d": 480,
      "v": 87
    },
    {
      "midi": 60,
      "hit": false,
      "t": 40320,
      "d": 720,
      "v": 62
    },
    {
      "midi": 64,
      "hit": false,
      "t": 40320,
      "d": 720,
      "v": 68
    },
    {
      "midi": 43,
      "hit": false,
      "t": 40320,
      "d": 480,
      "v": 66
    },
    {
      "midi": 48,
      "hit": false,
      "t": 40800,
      "d": 480,
      "v": 84
    },
    {
      "midi": 60,
      "hit": false,
      "t": 41040,
      "d": 240,
      "v": 76
    },
    {
      "midi": 64,
      "hit": false,
      "t": 41040,
      "d": 240,
      "v": 80
    },
    {
      "midi": 60,
      "hit": false,
      "t": 41280,
      "d": 960,
      "v": 74
    },
    {
      "midi": 64,
      "hit": false,
      "t": 41280,
      "d": 960,
      "v": 80
    },
    {
      "midi": 55,
      "hit": false,
      "t": 41280,
      "d": 480,
      "v": 74
    },
    {
      "midi": 52,
      "hit": false,
      "t": 41760,
      "d": 480,
      "v": 87
    },
    {
      "midi": 60,
      "hit": false,
      "t": 42240,
      "d": 720,
      "v": 60
    },
    {
      "midi": 64,
      "hit": false,
      "t": 42240,
      "d": 720,
      "v": 63
    },
    {
      "midi": 43,
      "hit": false,
      "t": 42240,
      "d": 480,
      "v": 64
    },
    {
      "midi": 48,
      "hit": false,
      "t": 42720,
      "d": 480,
      "v": 74
    },
    {
      "midi": 60,
      "hit": false,
      "t": 42960,
      "d": 240,
      "v": 68
    },
    {
      "midi": 64,
      "hit": false,
      "t": 42960,
      "d": 240,
      "v": 71
    },
    {
      "midi": 60,
      "hit": false,
      "t": 43200,
      "d": 480,
      "v": 82
    },
    {
      "midi": 64,
      "hit": false,
      "t": 43200,
      "d": 480,
      "v": 89
    },
    {
      "midi": 55,
      "hit": false,
      "t": 43200,
      "d": 480,
      "v": 76
    },
    {
      "midi": 60,
      "hit": false,
      "t": 43680,
      "d": 240,
      "v": 66
    },
    {
      "midi": 64,
      "hit": false,
      "t": 43680,
      "d": 240,
      "v": 69
    },
    {
      "midi": 52,
      "hit": false,
      "t": 43680,
      "d": 240,
      "v": 65
    },
    {
      "midi": 62,
      "hit": false,
      "t": 43920,
      "d": 240,
      "v": 64
    },
    {
      "midi": 65,
      "hit": false,
      "t": 43920,
      "d": 240,
      "v": 71
    },
    {
      "midi": 50,
      "hit": false,
      "t": 43920,
      "d": 240,
      "v": 84
    },
    {
      "midi": 64,
      "hit": false,
      "t": 44160,
      "d": 480,
      "v": 76
    },
    {
      "midi": 67,
      "hit": false,
      "t": 44160,
      "d": 480,
      "v": 78
    },
    {
      "midi": 48,
      "hit": false,
      "t": 44160,
      "d": 480,
      "v": 78
    },
    {
      "midi": 64,
      "hit": false,
      "t": 44640,
      "d": 480,
      "v": 84
    },
    {
      "midi": 67,
      "hit": false,
      "t": 44640,
      "d": 480,
      "v": 84
    },
    {
      "midi": 52,
      "hit": false,
      "t": 44640,
      "d": 480,
      "v": 87
    },
    {
      "midi": 64,
      "hit": false,
      "t": 45120,
      "d": 240,
      "v": 78
    },
    {
      "midi": 67,
      "hit": false,
      "t": 45120,
      "d": 240,
      "v": 78
    },
    {
      "midi": 55,
      "hit": false,
      "t": 45120,
      "d": 480,
      "v": 78
    },
    {
      "midi": 67,
      "hit": false,
      "t": 45360,
      "d": 240,
      "v": 80
    },
    {
      "midi": 64,
      "hit": false,
      "t": 45600,
      "d": 240,
      "v": 84
    },
    {
      "midi": 67,
      "hit": false,
      "t": 45600,
      "d": 240,
      "v": 82
    },
    {
      "midi": 52,
      "hit": false,
      "t": 45600,
      "d": 480,
      "v": 82
    },
    {
      "midi": 64,
      "hit": false,
      "t": 45840,
      "d": 720,
      "v": 80
    },
    {
      "midi": 67,
      "hit": false,
      "t": 45840,
      "d": 720,
      "v": 80
    },
    {
      "midi": 48,
      "hit": false,
      "t": 46080,
      "d": 480,
      "v": 76
    },
    {
      "midi": 62,
      "hit": false,
      "t": 46560,
      "d": 240,
      "v": 82
    },
    {
      "midi": 65,
      "hit": false,
      "t": 46560,
      "d": 240,
      "v": 82
    },
    {
      "midi": 52,
      "hit": false,
      "t": 46560,
      "d": 480,
      "v": 72
    },
    {
      "midi": 60,
      "hit": false,
      "t": 46800,
      "d": 720,
      "v": 87
    },
    {
      "midi": 64,
      "hit": false,
      "t": 46800,
      "d": 720,
      "v": 76
    },
    {
      "midi": 55,
      "hit": false,
      "t": 47040,
      "d": 480,
      "v": 80
    },
    {
      "midi": 60,
      "hit": false,
      "t": 47520,
      "d": 240,
      "v": 95
    },
    {
      "midi": 64,
      "hit": false,
      "t": 47520,
      "d": 240,
      "v": 97
    },
    {
      "midi": 48,
      "hit": false,
      "t": 47520,
      "d": 480,
      "v": 87
    },
    {
      "midi": 62,
      "hit": false,
      "t": 47760,
      "d": 240,
      "v": 71
    },
    {
      "midi": 65,
      "hit": false,
      "t": 47760,
      "d": 240,
      "v": 80
    },
    {
      "midi": 64,
      "hit": false,
      "t": 48000,
      "d": 480,
      "v": 76
    },
    {
      "midi": 67,
      "hit": false,
      "t": 48000,
      "d": 480,
      "v": 92
    },
    {
      "midi": 48,
      "hit": false,
      "t": 48000,
      "d": 480,
      "v": 82
    },
    {
      "midi": 72,
      "hit": false,
      "t": 48480,
      "d": 480,
      "v": 84
    },
    {
      "midi": 52,
      "hit": false,
      "t": 48480,
      "d": 480,
      "v": 67
    },
    {
      "midi": 72,
      "hit": false,
      "t": 48960,
      "d": 480,
      "v": 71
    },
    {
      "midi": 48,
      "hit": false,
      "t": 48960,
      "d": 480,
      "v": 82
    },
    {
      "midi": 71,
      "hit": false,
      "t": 49440,
      "d": 480,
      "v": 89
    },
    {
      "midi": 47,
      "hit": false,
      "t": 49440,
      "d": 480,
      "v": 97
    },
    {
      "midi": 60,
      "hit": false,
      "t": 49920,
      "d": 1440,
      "v": 76
    },
    {
      "midi": 64,
      "hit": false,
      "t": 49920,
      "d": 1440,
      "v": 87
    },
    {
      "midi": 69,
      "hit": false,
      "t": 49920,
      "d": 1440,
      "v": 95
    },
    {
      "midi": 45,
      "hit": false,
      "t": 49920,
      "d": 480,
      "v": 89
    },
    {
      "midi": 48,
      "hit": false,
      "t": 50400,
      "d": 240,
      "v": 82
    },
    {
      "midi": 52,
      "hit": false,
      "t": 50640,
      "d": 240,
      "v": 72
    },
    {
      "midi": 57,
      "hit": false,
      "t": 50880,
      "d": 480,
      "v": 76
    },
    {
      "midi": 60,
      "hit": false,
      "t": 51360,
      "d": 240,
      "v": 87
    },
    {
      "midi": 64,
      "hit": false,
      "t": 51360,
      "d": 240,
      "v": 92
    },
    {
      "midi": 69,
      "hit": false,
      "t": 51360,
      "d": 240,
      "v": 95
    },
    {
      "midi": 52,
      "hit": false,
      "t": 51360,
      "d": 480,
      "v": 89
    },
    {
      "midi": 69,
      "hit": false,
      "t": 51600,
      "d": 240,
      "v": 92
    },
    {
      "midi": 59,
      "hit": false,
      "t": 51840,
      "d": 480,
      "v": 101
    },
    {
      "midi": 67,
      "hit": false,
      "t": 51840,
      "d": 480,
      "v": 82
    },
    {
      "midi": 43,
      "hit": false,
      "t": 51840,
      "d": 480,
      "v": 74
    },
    {
      "midi": 67,
      "hit": false,
      "t": 52320,
      "d": 240,
      "v": 82
    },
    {
      "midi": 50,
      "hit": false,
      "t": 52320,
      "d": 480,
      "v": 84
    },
    {
      "midi": 59,
      "hit": false,
      "t": 52560,
      "d": 720,
      "v": 89
    },
    {
      "midi": 67,
      "hit": false,
      "t": 52560,
      "d": 720,
      "v": 101
    },
    {
      "midi": 55,
      "hit": false,
      "t": 52800,
      "d": 480,
      "v": 80
    },
    {
      "midi": 59,
      "hit": false,
      "t": 53280,
      "d": 480,
      "v": 95
    },
    {
      "midi": 67,
      "hit": false,
      "t": 53280,
      "d": 480,
      "v": 84
    },
    {
      "midi": 50,
      "hit": false,
      "t": 53280,
      "d": 480,
      "v": 82
    },
    {
      "midi": 59,
      "hit": false,
      "t": 53760,
      "d": 480,
      "v": 82
    },
    {
      "midi": 67,
      "hit": false,
      "t": 53760,
      "d": 480,
      "v": 82
    },
    {
      "midi": 43,
      "hit": false,
      "t": 53760,
      "d": 480,
      "v": 72
    },
    {
      "midi": 59,
      "hit": false,
      "t": 54240,
      "d": 960,
      "v": 97
    },
    {
      "midi": 62,
      "hit": false,
      "t": 54240,
      "d": 960,
      "v": 80
    },
    {
      "midi": 47,
      "hit": false,
      "t": 54240,
      "d": 240,
      "v": 95
    },
    {
      "midi": 50,
      "hit": false,
      "t": 54480,
      "d": 240,
      "v": 80
    },
    {
      "midi": 55,
      "hit": false,
      "t": 54720,
      "d": 480,
      "v": 80
    },
    {
      "midi": 59,
      "hit": false,
      "t": 55200,
      "d": 240,
      "v": 101
    },
    {
      "midi": 62,
      "hit": false,
      "t": 55200,
      "d": 240,
      "v": 97
    },
    {
      "midi": 50,
      "hit": false,
      "t": 55200,
      "d": 480,
      "v": 64
    },
    {
      "midi": 64,
      "hit": false,
      "t": 55440,
      "d": 240,
      "v": 84
    },
    {
      "midi": 57,
      "hit": false,
      "t": 55680,
      "d": 480,
      "v": 74
    },
    {
      "midi": 60,
      "hit": false,
      "t": 55680,
      "d": 480,
      "v": 89
    },
    {
      "midi": 65,
      "hit": false,
      "t": 55680,
      "d": 480,
      "v": 80
    },
    {
      "midi": 43,
      "hit": false,
      "t": 55680,
      "d": 480,
      "v": 74
    },
    {
      "midi": 65,
      "hit": false,
      "t": 56160,
      "d": 480,
      "v": 72
    },
    {
      "midi": 50,
      "hit": false,
      "t": 56160,
      "d": 480,
      "v": 87
    },
    {
      "midi": 65,
      "hit": false,
      "t": 56640,
      "d": 480,
      "v": 82
    },
    {
      "midi": 55,
      "hit": false,
      "t": 56640,
      "d": 480,
      "v": 78
    },
    {
      "midi": 65,
      "hit": false,
      "t": 57120,
      "d": 480,
      "v": 74
    },
    {
      "midi": 50,
      "hit": false,
      "t": 57120,
      "d": 480,
      "v": 92
    },
    {
      "midi": 60,
      "hit": false,
      "t": 57600,
      "d": 480,
      "v": 74
    },
    {
      "midi": 65,
      "hit": false,
      "t": 57600,
      "d": 480,
      "v": 72
    },
    {
      "midi": 48,
      "hit": false,
      "t": 57600,
      "d": 480,
      "v": 78
    },
    {
      "midi": 64,
      "hit": false,
      "t": 58080,
      "d": 480,
      "v": 62
    },
    {
      "midi": 52,
      "hit": false,
      "t": 58080,
      "d": 480,
      "v": 78
    },
    {
      "midi": 60,
      "hit": false,
      "t": 58560,
      "d": 480,
      "v": 92
    },
    {
      "midi": 55,
      "hit": false,
      "t": 58560,
      "d": 480,
      "v": 78
    },
    {
      "midi": 59,
      "hit": false,
      "t": 59040,
      "d": 480,
      "v": 87
    },
    {
      "midi": 62,
      "hit": false,
      "t": 59040,
      "d": 480,
      "v": 82
    },
    {
      "midi": 52,
      "hit": false,
      "t": 59040,
      "d": 480,
      "v": 80
    },
    {
      "midi": 65,
      "hit": false,
      "t": 59520,
      "d": 240,
      "v": 87
    },
    {
      "midi": 48,
      "hit": false,
      "t": 59520,
      "d": 480,
      "v": 76
    },
    {
      "midi": 60,
      "hit": false,
      "t": 59760,
      "d": 480,
      "v": 74
    },
    {
      "midi": 64,
      "hit": false,
      "t": 59760,
      "d": 480,
      "v": 64
    },
    {
      "midi": 52,
      "hit": false,
      "t": 60000,
      "d": 480,
      "v": 76
    },
    {
      "midi": 60,
      "hit": false,
      "t": 60240,
      "d": 2880,
      "v": 95
    },
    {
      "midi": 55,
      "hit": false,
      "t": 60480,
      "d": 480,
      "v": 74
    },
    {
      "midi": 52,
      "hit": false,
      "t": 60960,
      "d": 480,
      "v": 82
    },
    {
      "midi": 43,
      "hit": false,
      "t": 61440,
      "d": 480,
      "v": 74
    },
    {
      "midi": 48,
      "hit": false,
      "t": 61920,
      "d": 240,
      "v": 92
    },
    {
      "midi": 52,
      "hit": false,
      "t": 62160,
      "d": 240,
      "v": 78
    },
    {
      "midi": 55,
      "hit": false,
      "t": 62400,
      "d": 480,
      "v": 64
    },
    {
      "midi": 52,
      "hit": false,
      "t": 62880,
      "d": 480,
      "v": 87
    },
    {
      "midi": 60,
      "hit": false,
      "t": 63360,
      "d": 960,
      "v": 68
    },
    {
      "midi": 64,
      "hit": false,
      "t": 63360,
      "d": 960,
      "v": 76
    },
    {
      "midi": 43,
      "hit": false,
      "t": 63360,
      "d": 480,
      "v": 82
    },
    {
      "midi": 48,
      "hit": false,
      "t": 63840,
      "d": 240,
      "v": 76
    },
    {
      "midi": 52,
      "hit": false,
      "t": 64080,
      "d": 240,
      "v": 72
    },
    {
      "midi": 64,
      "hit": false,
      "t": 64320,
      "d": 480,
      "v": 72
    },
    {
      "midi": 72,
      "hit": false,
      "t": 64320,
      "d": 480,
      "v": 76
    },
    {
      "midi": 55,
      "hit": false,
      "t": 64320,
      "d": 480,
      "v": 62
    },
    {
      "midi": 71,
      "hit": false,
      "t": 64800,
      "d": 480,
      "v": 82
    },
    {
      "midi": 52,
      "hit": false,
      "t": 64800,
      "d": 480,
      "v": 87
    },
    {
      "midi": 64,
      "hit": false,
      "t": 65280,
      "d": 960,
      "v": 78
    },
    {
      "midi": 69,
      "hit": false,
      "t": 65280,
      "d": 960,
      "v": 71
    },
    {
      "midi": 72,
      "hit": false,
      "t": 65280,
      "d": 960,
      "v": 76
    },
    {
      "midi": 45,
      "hit": false,
      "t": 65280,
      "d": 480,
      "v": 72
    },
    {
      "midi": 52,
      "hit": false,
      "t": 65760,
      "d": 480,
      "v": 84
    },
    {
      "midi": 64,
      "hit": false,
      "t": 66240,
      "d": 480,
      "v": 82
    },
    {
      "midi": 69,
      "hit": false,
      "t": 66240,
      "d": 480,
      "v": 87
    },
    {
      "midi": 72,
      "hit": false,
      "t": 66240,
      "d": 480,
      "v": 87
    },
    {
      "midi": 57,
      "hit": false,
      "t": 66240,
      "d": 480,
      "v": 84
    },
    {
      "midi": 71,
      "hit": false,
      "t": 66720,
      "d": 480,
      "v": 74
    },
    {
      "midi": 52,
      "hit": false,
      "t": 66720,
      "d": 480,
      "v": 78
    },
    {
      "midi": 62,
      "hit": false,
      "t": 67200,
      "d": 720,
      "v": 64
    },
    {
      "midi": 67,
      "hit": false,
      "t": 67200,
      "d": 720,
      "v": 87
    },
    {
      "midi": 72,
      "hit": false,
      "t": 67200,
      "d": 720,
      "v": 82
    },
    {
      "midi": 43,
      "hit": false,
      "t": 67200,
      "d": 480,
      "v": 74
    },
    {
      "midi": 50,
      "hit": false,
      "t": 67680,
      "d": 480,
      "v": 84
    },
    {
      "midi": 71,
      "hit": false,
      "t": 67920,
      "d": 240,
      "v": 82
    },
    {
      "midi": 62,
      "hit": false,
      "t": 68160,
      "d": 480,
      "v": 80
    },
    {
      "midi": 71,
      "hit": false,
      "t": 68160,
      "d": 480,
      "v": 101
    },
    {
      "midi": 55,
      "hit": false,
      "t": 68160,
      "d": 480,
      "v": 82
    },
    {
      "midi": 62,
      "hit": false,
      "t": 68640,
      "d": 480,
      "v": 84
    },
    {
      "midi": 71,
      "hit": false,
      "t": 68640,
      "d": 480,
      "v": 89
    },
    {
      "midi": 50,
      "hit": false,
      "t": 68640,
      "d": 480,
      "v": 82
    },
    {
      "midi": 67,
      "hit": false,
      "t": 69120,
      "d": 480,
      "v": 89
    },
    {
      "midi": 71,
      "hit": false,
      "t": 69120,
      "d": 480,
      "v": 52
    },
    {
      "midi": 41,
      "hit": false,
      "t": 69120,
      "d": 480,
      "v": 63
    },
    {
      "midi": 65,
      "hit": false,
      "t": 69600,
      "d": 480,
      "v": 67
    },
    {
      "midi": 69,
      "hit": false,
      "t": 69600,
      "d": 480,
      "v": 95
    },
    {
      "midi": 48,
      "hit": false,
      "t": 69600,
      "d": 480,
      "v": 95
    },
    {
      "midi": 65,
      "hit": false,
      "t": 70080,
      "d": 480,
      "v": 74
    },
    {
      "midi": 69,
      "hit": false,
      "t": 70080,
      "d": 480,
      "v": 89
    },
    {
      "midi": 53,
      "hit": false,
      "t": 70080,
      "d": 480,
      "v": 72
    },
    {
      "midi": 65,
      "hit": false,
      "t": 70560,
      "d": 480,
      "v": 82
    },
    {
      "midi": 69,
      "hit": false,
      "t": 70560,
      "d": 480,
      "v": 82
    },
    {
      "midi": 48,
      "hit": false,
      "t": 70560,
      "d": 480,
      "v": 62
    },
    {
      "midi": 65,
      "hit": false,
      "t": 71040,
      "d": 480,
      "v": 72
    },
    {
      "midi": 69,
      "hit": false,
      "t": 71040,
      "d": 480,
      "v": 89
    },
    {
      "midi": 41,
      "hit": false,
      "t": 71040,
      "d": 480,
      "v": 78
    },
    {
      "midi": 65,
      "hit": false,
      "t": 71520,
      "d": 480,
      "v": 74
    },
    {
      "midi": 69,
      "hit": false,
      "t": 71520,
      "d": 480,
      "v": 87
    },
    {
      "midi": 48,
      "hit": false,
      "t": 71520,
      "d": 480,
      "v": 89
    },
    {
      "midi": 65,
      "hit": false,
      "t": 72000,
      "d": 480,
      "v": 84
    },
    {
      "midi": 69,
      "hit": false,
      "t": 72000,
      "d": 480,
      "v": 87
    },
    {
      "midi": 53,
      "hit": false,
      "t": 72000,
      "d": 480,
      "v": 69
    },
    {
      "midi": 64,
      "hit": false,
      "t": 72480,
      "d": 480,
      "v": 72
    },
    {
      "midi": 67,
      "hit": false,
      "t": 72480,
      "d": 480,
      "v": 89
    },
    {
      "midi": 48,
      "hit": false,
      "t": 72480,
      "d": 480,
      "v": 80
    },
    {
      "midi": 64,
      "hit": false,
      "t": 72960,
      "d": 960,
      "v": 80
    },
    {
      "midi": 67,
      "hit": false,
      "t": 72960,
      "d": 960,
      "v": 82
    },
    {
      "midi": 48,
      "hit": false,
      "t": 72960,
      "d": 480,
      "v": 87
    },
    {
      "midi": 52,
      "hit": false,
      "t": 73440,
      "d": 480,
      "v": 87
    },
    {
      "midi": 60,
      "hit": false,
      "t": 73920,
      "d": 240,
      "v": 87
    },
    {
      "midi": 64,
      "hit": false,
      "t": 73920,
      "d": 240,
      "v": 89
    },
    {
      "midi": 55,
      "hit": false,
      "t": 73920,
      "d": 480,
      "v": 78
    },
    {
      "midi": 62,
      "hit": false,
      "t": 74160,
      "d": 720,
      "v": 74
    },
    {
      "midi": 65,
      "hit": false,
      "t": 74160,
      "d": 720,
      "v": 65
    },
    {
      "midi": 52,
      "hit": false,
      "t": 74400,
      "d": 480,
      "v": 89
    },
    {
      "midi": 59,
      "hit": false,
      "t": 74880,
      "d": 720,
      "v": 89
    },
    {
      "midi": 67,
      "hit": false,
      "t": 74880,
      "d": 720,
      "v": 92
    },
    {
      "midi": 43,
      "hit": false,
      "t": 74880,
      "d": 480,
      "v": 65
    },
    {
      "midi": 50,
      "hit": false,
      "t": 75360,
      "d": 480,
      "v": 84
    },
    {
      "midi": 62,
      "hit": false,
      "t": 75600,
      "d": 240,
      "v": 82
    },
    {
      "midi": 59,
      "hit": false,
      "t": 75840,
      "d": 480,
      "v": 84
    },
    {
      "midi": 62,
      "hit": false,
      "t": 75840,
      "d": 480,
      "v": 89
    },
    {
      "midi": 55,
      "hit": false,
      "t": 75840,
      "d": 480,
      "v": 78
    },
    {
      "midi": 60,
      "hit": false,
      "t": 76320,
      "d": 480,
      "v": 72
    },
    {
      "midi": 64,
      "hit": false,
      "t": 76320,
      "d": 480,
      "v": 87
    },
    {
      "midi": 50,
      "hit": false,
      "t": 76320,
      "d": 480,
      "v": 84
    },
    {
      "midi": 57,
      "hit": false,
      "t": 76800,
      "d": 480,
      "v": 80
    },
    {
      "midi": 65,
      "hit": false,
      "t": 76800,
      "d": 480,
      "v": 92
    },
    {
      "midi": 41,
      "hit": false,
      "t": 76800,
      "d": 480,
      "v": 71
    },
    {
      "midi": 65,
      "hit": false,
      "t": 77280,
      "d": 480,
      "v": 76
    },
    {
      "midi": 48,
      "hit": false,
      "t": 77280,
      "d": 480,
      "v": 89
    },
    {
      "midi": 55,
      "hit": false,
      "t": 77760,
      "d": 480,
      "v": 74
    },
    {
      "midi": 64,
      "hit": false,
      "t": 77760,
      "d": 480,
      "v": 78
    },
    {
      "midi": 52,
      "hit": false,
      "t": 77760,
      "d": 480,
      "v": 76
    },
    {
      "midi": 53,
      "hit": false,
      "t": 78240,
      "d": 480,
      "v": 68
    },
    {
      "midi": 62,
      "hit": false,
      "t": 78240,
      "d": 480,
      "v": 80
    },
    {
      "midi": 50,
      "hit": false,
      "t": 78240,
      "d": 480,
      "v": 87
    },
    {
      "midi": 52,
      "hit": false,
      "t": 78720,
      "d": 1920,
      "v": 84
    },
    {
      "midi": 60,
      "hit": false,
      "t": 78720,
      "d": 1920,
      "v": 95
    },
    {
      "midi": 48,
      "hit": false,
      "t": 78720,
      "d": 480,
      "v": 74
    },
    {
      "midi": 47,
      "hit": false,
      "t": 79200,
      "d": 480,
      "v": 92
    },
    {
      "midi": 45,
      "hit": false,
      "t": 79680,
      "d": 480,
      "v": 72
    },
    {
      "midi": 43,
      "hit": false,
      "t": 80160,
      "d": 480,
      "v": 76
    },
    {
      "midi": 60,
      "hit": false,
      "t": 80640,
      "d": 960,
      "v": 89
    },
    {
      "midi": 64,
      "hit": false,
      "t": 80640,
      "d": 960,
      "v": 95
    },
    {
      "midi": 48,
      "hit": false,
      "t": 80640,
      "d": 480,
      "v": 80
    },
    {
      "midi": 52,
      "hit": false,
      "t": 81120,
      "d": 480,
      "v": 92
    },
    {
      "midi": 64,
      "hit": false,
      "t": 81600,
      "d": 720,
      "v": 80
    },
    {
      "midi": 72,
      "hit": false,
      "t": 81600,
      "d": 720,
      "v": 78
    },
    {
      "midi": 48,
      "hit": false,
      "t": 81600,
      "d": 480,
      "v": 80
    },
    {
      "midi": 47,
      "hit": false,
      "t": 82080,
      "d": 480,
      "v": 87
    },
    {
      "midi": 71,
      "hit": false,
      "t": 82320,
      "d": 240,
      "v": 72
    },
    {
      "midi": 72,
      "hit": false,
      "t": 82560,
      "d": 480,
      "v": 82
    },
    {
      "midi": 45,
      "hit": false,
      "t": 82560,
      "d": 720,
      "v": 65
    },
    {
      "midi": 60,
      "hit": false,
      "t": 83040,
      "d": 960,
      "v": 68
    },
    {
      "midi": 64,
      "hit": false,
      "t": 83040,
      "d": 960,
      "v": 84
    },
    {
      "midi": 52,
      "hit": false,
      "t": 83280,
      "d": 240,
      "v": 89
    },
    {
      "midi": 57,
      "hit": false,
      "t": 83520,
      "d": 720,
      "v": 72
    },
    {
      "midi": 60,
      "hit": false,
      "t": 84000,
      "d": 960,
      "v": 68
    },
    {
      "midi": 64,
      "hit": false,
      "t": 84000,
      "d": 960,
      "v": 72
    },
    {
      "midi": 52,
      "hit": false,
      "t": 84240,
      "d": 240,
      "v": 95
    },
    {
      "midi": 45,
      "hit": false,
      "t": 84480,
      "d": 720,
      "v": 84
    },
    {
      "midi": 60,
      "hit": false,
      "t": 84960,
      "d": 480,
      "v": 68
    },
    {
      "midi": 64,
      "hit": false,
      "t": 84960,
      "d": 480,
      "v": 67
    },
    {
      "midi": 52,
      "hit": false,
      "t": 85200,
      "d": 240,
      "v": 101
    },
    {
      "midi": 72,
      "hit": false,
      "t": 85440,
      "d": 480,
      "v": 82
    },
    {
      "midi": 57,
      "hit": false,
      "t": 85440,
      "d": 960,
      "v": 80
    },
    {
      "midi": 60,
      "hit": false,
      "t": 85920,
      "d": 240,
      "v": 74
    },
    {
      "midi": 64,
      "hit": false,
      "t": 85920,
      "d": 240,
      "v": 63
    },
    {
      "midi": 71,
      "hit": false,
      "t": 86160,
      "d": 240,
      "v": 97
    },
    {
      "midi": 62,
      "hit": false,
      "t": 86400,
      "d": 480,
      "v": 104
    },
    {
      "midi": 72,
      "hit": false,
      "t": 86400,
      "d": 480,
      "v": 74
    },
    {
      "midi": 43,
      "hit": false,
      "t": 86400,
      "d": 720,
      "v": 80
    },
    {
      "midi": 71,
      "hit": false,
      "t": 86880,
      "d": 480,
      "v": 66
    },
    {
      "midi": 55,
      "hit": false,
      "t": 87120,
      "d": 240,
      "v": 80
    },
    {
      "midi": 71,
      "hit": false,
      "t": 87360,
      "d": 240,
      "v": 87
    },
    {
      "midi": 55,
      "hit": false,
      "t": 87360,
      "d": 480,
      "v": 71
    },
    {
      "midi": 69,
      "hit": false,
      "t": 87600,
      "d": 720,
      "v": 92
    },
    {
      "midi": 50,
      "hit": false,
      "t": 87840,
      "d": 480,
      "v": 92
    },
    {
      "midi": 67,
      "hit": false,
      "t": 88320,
      "d": 480,
      "v": 113
    },
    {
      "midi": 43,
      "hit": false,
      "t": 88320,
      "d": 720,
      "v": 67
    },
    {
      "midi": 59,
      "hit": false,
      "t": 88800,
      "d": 480,
      "v": 61
    },
    {
      "midi": 62,
      "hit": false,
      "t": 88800,
      "d": 480,
      "v": 97
    },
    {
      "midi": 50,
      "hit": false,
      "t": 89040,
      "d": 240,
      "v": 89
    },
    {
      "midi": 72,
      "hit": false,
      "t": 89280,
      "d": 480,
      "v": 89
    },
    {
      "midi": 55,
      "hit": false,
      "t": 89280,
      "d": 960,
      "v": 71
    },
    {
      "midi": 62,
      "hit": false,
      "t": 89760,
      "d": 240,
      "v": 78
    },
    {
      "midi": 67,
      "hit": false,
      "t": 89760,
      "d": 240,
      "v": 67
    },
    {
      "midi": 71,
      "hit": false,
      "t": 90000,
      "d": 240,
      "v": 101
    },
    {
      "midi": 72,
      "hit": false,
      "t": 90240,
      "d": 480,
      "v": 97
    },
    {
      "midi": 45,
      "hit": false,
      "t": 90240,
      "d": 720,
      "v": 74
    },
    {
      "midi": 60,
      "hit": false,
      "t": 90720,
      "d": 960,
      "v": 80
    },
    {
      "midi": 64,
      "hit": false,
      "t": 90720,
      "d": 960,
      "v": 69
    },
    {
      "midi": 52,
      "hit": false,
      "t": 90960,
      "d": 240,
      "v": 95
    },
    {
      "midi": 57,
      "hit": false,
      "t": 91200,
      "d": 960,
      "v": 74
    },
    {
      "midi": 60,
      "hit": false,
      "t": 91680,
      "d": 960,
      "v": 69
    },
    {
      "midi": 64,
      "hit": false,
      "t": 91680,
      "d": 960,
      "v": 71
    },
    {
      "midi": 45,
      "hit": false,
      "t": 92160,
      "d": 720,
      "v": 80
    },
    {
      "midi": 60,
      "hit": false,
      "t": 92640,
      "d": 480,
      "v": 72
    },
    {
      "midi": 64,
      "hit": false,
      "t": 92640,
      "d": 480,
      "v": 78
    },
    {
      "midi": 52,
      "hit": false,
      "t": 92880,
      "d": 240,
      "v": 92
    },
    {
      "midi": 65,
      "hit": false,
      "t": 93120,
      "d": 720,
      "v": 45
    },
    {
      "midi": 74,
      "hit": false,
      "t": 93120,
      "d": 720,
      "v": 87
    },
    {
      "midi": 57,
      "hit": false,
      "t": 93120,
      "d": 960,
      "v": 74
    },
    {
      "midi": 67,
      "hit": false,
      "t": 93840,
      "d": 240,
      "v": 89
    },
    {
      "midi": 76,
      "hit": false,
      "t": 93840,
      "d": 240,
      "v": 61
    },
    {
      "midi": 69,
      "hit": false,
      "t": 94080,
      "d": 480,
      "v": 92
    },
    {
      "midi": 77,
      "hit": false,
      "t": 94080,
      "d": 480,
      "v": 87
    },
    {
      "midi": 43,
      "hit": false,
      "t": 94080,
      "d": 720,
      "v": 69
    },
    {
      "midi": 67,
      "hit": false,
      "t": 94560,
      "d": 480,
      "v": 74
    },
    {
      "midi": 76,
      "hit": false,
      "t": 94560,
      "d": 480,
      "v": 82
    },
    {
      "midi": 55,
      "hit": false,
      "t": 94800,
      "d": 240,
      "v": 89
    },
    {
      "midi": 67,
      "hit": false,
      "t": 95040,
      "d": 240,
      "v": 72
    },
    {
      "midi": 76,
      "hit": false,
      "t": 95040,
      "d": 240,
      "v": 74
    },
    {
      "midi": 55,
      "hit": false,
      "t": 95040,
      "d": 960,
      "v": 95
    },
    {
      "midi": 65,
      "hit": false,
      "t": 95280,
      "d": 240,
      "v": 78
    },
    {
      "midi": 74,
      "hit": false,
      "t": 95280,
      "d": 240,
      "v": 82
    },
    {
      "midi": 64,
      "hit": false,
      "t": 95520,
      "d": 240,
      "v": 74
    },
    {
      "midi": 72,
      "hit": false,
      "t": 95520,
      "d": 240,
      "v": 74
    },
    {
      "midi": 65,
      "hit": false,
      "t": 95760,
      "d": 720,
      "v": 76
    },
    {
      "midi": 74,
      "hit": false,
      "t": 95760,
      "d": 720,
      "v": 92
    },
    {
      "midi": 41,
      "hit": false,
      "t": 96000,
      "d": 720,
      "v": 66
    },
    {
      "midi": 69,
      "hit": false,
      "t": 96480,
      "d": 240,
      "v": 66
    },
    {
      "midi": 72,
      "hit": false,
      "t": 96480,
      "d": 240,
      "v": 89
    },
    {
      "midi": 69,
      "hit": false,
      "t": 96720,
      "d": 240,
      "v": 87
    },
    {
      "midi": 72,
      "hit": false,
      "t": 96720,
      "d": 240,
      "v": 87
    },
    {
      "midi": 48,
      "hit": false,
      "t": 96720,
      "d": 240,
      "v": 97
    },
    {
      "midi": 69,
      "hit": false,
      "t": 96960,
      "d": 240,
      "v": 84
    },
    {
      "midi": 72,
      "hit": false,
      "t": 96960,
      "d": 240,
      "v": 84
    },
    {
      "midi": 53,
      "hit": false,
      "t": 96960,
      "d": 960,
      "v": 71
    },
    {
      "midi": 67,
      "hit": false,
      "t": 97200,
      "d": 720,
      "v": 95
    },
    {
      "midi": 71,
      "hit": false,
      "t": 97200,
      "d": 720,
      "v": 108
    },
    {
      "midi": 72,
      "hit": false,
      "t": 97920,
      "d": 240,
      "v": 61
    },
    {
      "midi": 48,
      "hit": false,
      "t": 97920,
      "d": 480,
      "v": 74
    },
    {
      "midi": 60,
      "hit": false,
      "t": 98160,
      "d": 240,
      "v": 76
    },
    {
      "midi": 64,
      "hit": false,
      "t": 98400,
      "d": 240,
      "v": 82
    },
    {
      "midi": 52,
      "hit": false,
      "t": 98400,
      "d": 480,
      "v": 82
    },
    {
      "midi": 67,
      "hit": false,
      "t": 98640,
      "d": 480,
      "v": 95
    },
    {
      "midi": 55,
      "hit": false,
      "t": 98880,
      "d": 480,
      "v": 87
    },
    {
      "midi": 60,
      "hit": false,
      "t": 99120,
      "d": 240,
      "v": 82
    },
    {
      "midi": 64,
      "hit": false,
      "t": 99360,
      "d": 240,
      "v": 84
    },
    {
      "midi": 52,
      "hit": false,
      "t": 99360,
      "d": 480,
      "v": 89
    },
    {
      "midi": 67,
      "hit": false,
      "t": 99600,
      "d": 480,
      "v": 68
    },
    {
      "midi": 48,
      "hit": false,
      "t": 99840,
      "d": 480,
      "v": 80
    },
    {
      "midi": 60,
      "hit": false,
      "t": 100080,
      "d": 240,
      "v": 87
    },
    {
      "midi": 64,
      "hit": false,
      "t": 100320,
      "d": 240,
      "v": 87
    },
    {
      "midi": 52,
      "hit": false,
      "t": 100320,
      "d": 480,
      "v": 72
    },
    {
      "midi": 67,
      "hit": false,
      "t": 100560,
      "d": 480,
      "v": 89
    },
    {
      "midi": 55,
      "hit": false,
      "t": 100800,
      "d": 480,
      "v": 74
    },
    {
      "midi": 60,
      "hit": false,
      "t": 101040,
      "d": 240,
      "v": 80
    },
    {
      "midi": 64,
      "hit": false,
      "t": 101280,
      "d": 240,
      "v": 95
    },
    {
      "midi": 52,
      "hit": false,
      "t": 101280,
      "d": 480,
      "v": 74
    },
    {
      "midi": 67,
      "hit": false,
      "t": 101520,
      "d": 240,
      "v": 89
    },
    {
      "midi": 60,
      "hit": false,
      "t": 101760,
      "d": 720,
      "v": 65
    },
    {
      "midi": 64,
      "hit": false,
      "t": 101760,
      "d": 720,
      "v": 101
    },
    {
      "midi": 48,
      "hit": false,
      "t": 101760,
      "d": 480,
      "v": 69
    },
    {
      "midi": 52,
      "hit": false,
      "t": 102240,
      "d": 480,
      "v": 78
    },
    {
      "midi": 60,
      "hit": false,
      "t": 102480,
      "d": 240,
      "v": 95
    },
    {
      "midi": 64,
      "hit": false,
      "t": 102480,
      "d": 240,
      "v": 95
    },
    {
      "midi": 60,
      "hit": false,
      "t": 102720,
      "d": 960,
      "v": 97
    },
    {
      "midi": 64,
      "hit": false,
      "t": 102720,
      "d": 960,
      "v": 97
    },
    {
      "midi": 55,
      "hit": false,
      "t": 102720,
      "d": 480,
      "v": 72
    },
    {
      "midi": 52,
      "hit": false,
      "t": 103200,
      "d": 480,
      "v": 80
    },
    {
      "midi": 60,
      "hit": false,
      "t": 103680,
      "d": 720,
      "v": 61
    },
    {
      "midi": 64,
      "hit": false,
      "t": 103680,
      "d": 720,
      "v": 67
    },
    {
      "midi": 48,
      "hit": false,
      "t": 103680,
      "d": 480,
      "v": 80
    },
    {
      "midi": 52,
      "hit": false,
      "t": 104160,
      "d": 480,
      "v": 76
    },
    {
      "midi": 60,
      "hit": false,
      "t": 104400,
      "d": 240,
      "v": 76
    },
    {
      "midi": 64,
      "hit": false,
      "t": 104400,
      "d": 240,
      "v": 87
    },
    {
      "midi": 60,
      "hit": false,
      "t": 104640,
      "d": 480,
      "v": 95
    },
    {
      "midi": 64,
      "hit": false,
      "t": 104640,
      "d": 480,
      "v": 95
    },
    {
      "midi": 55,
      "hit": false,
      "t": 104640,
      "d": 480,
      "v": 69
    },
    {
      "midi": 60,
      "hit": false,
      "t": 105120,
      "d": 240,
      "v": 74
    },
    {
      "midi": 64,
      "hit": false,
      "t": 105120,
      "d": 240,
      "v": 78
    },
    {
      "midi": 52,
      "hit": false,
      "t": 105120,
      "d": 480,
      "v": 76
    },
    {
      "midi": 62,
      "hit": false,
      "t": 105360,
      "d": 240,
      "v": 87
    },
    {
      "midi": 65,
      "hit": false,
      "t": 105360,
      "d": 240,
      "v": 87
    },
    {
      "midi": 64,
      "hit": false,
      "t": 105600,
      "d": 480,
      "v": 69
    },
    {
      "midi": 67,
      "hit": false,
      "t": 105600,
      "d": 480,
      "v": 87
    },
    {
      "midi": 48,
      "hit": false,
      "t": 105600,
      "d": 480,
      "v": 76
    },
    {
      "midi": 67,
      "hit": false,
      "t": 106080,
      "d": 480,
      "v": 89
    },
    {
      "midi": 52,
      "hit": false,
      "t": 106080,
      "d": 480,
      "v": 84
    },
    {
      "midi": 67,
      "hit": false,
      "t": 106560,
      "d": 480,
      "v": 72
    },
    {
      "midi": 55,
      "hit": false,
      "t": 106560,
      "d": 480,
      "v": 76
    },
    {
      "midi": 67,
      "hit": false,
      "t": 107040,
      "d": 480,
      "v": 76
    },
    {
      "midi": 52,
      "hit": false,
      "t": 107040,
      "d": 480,
      "v": 84
    },
    {
      "midi": 64,
      "hit": false,
      "t": 107520,
      "d": 480,
      "v": 87
    },
    {
      "midi": 67,
      "hit": false,
      "t": 107520,
      "d": 480,
      "v": 82
    },
    {
      "midi": 48,
      "hit": false,
      "t": 107520,
      "d": 480,
      "v": 74
    },
    {
      "midi": 60,
      "hit": false,
      "t": 108000,
      "d": 480,
      "v": 78
    },
    {
      "midi": 64,
      "hit": false,
      "t": 108000,
      "d": 480,
      "v": 84
    },
    {
      "midi": 52,
      "hit": false,
      "t": 108000,
      "d": 480,
      "v": 72
    },
    {
      "midi": 64,
      "hit": false,
      "t": 108480,
      "d": 480,
      "v": 97
    },
    {
      "midi": 55,
      "hit": false,
      "t": 108480,
      "d": 480,
      "v": 72
    },
    {
      "midi": 64,
      "hit": false,
      "t": 108960,
      "d": 480,
      "v": 89
    },
    {
      "midi": 52,
      "hit": false,
      "t": 108960,
      "d": 480,
      "v": 84
    },
    {
      "midi": 55,
      "hit": false,
      "t": 109440,
      "d": 240,
      "v": 82
    },
    {
      "midi": 65,
      "hit": false,
      "t": 109440,
      "d": 240,
      "v": 87
    },
    {
      "midi": 48,
      "hit": false,
      "t": 109440,
      "d": 480,
      "v": 76
    },
    {
      "midi": 64,
      "hit": false,
      "t": 109680,
      "d": 720,
      "v": 87
    },
    {
      "midi": 52,
      "hit": false,
      "t": 109920,
      "d": 480,
      "v": 74
    },
    {
      "midi": 60,
      "hit": false,
      "t": 110400,
      "d": 480,
      "v": 95
    },
    {
      "midi": 48,
      "hit": false,
      "t": 110400,
      "d": 480,
      "v": 87
    },
    {
      "midi": 62,
      "hit": false,
      "t": 110880,
      "d": 480,
      "v": 84
    },
    {
      "midi": 47,
      "hit": false,
      "t": 110880,
      "d": 480,
      "v": 84
    },
    {
      "midi": 60,
      "hit": false,
      "t": 111360,
      "d": 480,
      "v": 63
    },
    {
      "midi": 64,
      "hit": false,
      "t": 111360,
      "d": 480,
      "v": 89
    },
    {
      "midi": 45,
      "hit": false,
      "t": 111360,
      "d": 480,
      "v": 74
    },
    {
      "midi": 60,
      "hit": false,
      "t": 111840,
      "d": 240,
      "v": 80
    },
    {
      "midi": 64,
      "hit": false,
      "t": 111840,
      "d": 240,
      "v": 89
    },
    {
      "midi": 52,
      "hit": false,
      "t": 111840,
      "d": 480,
      "v": 97
    },
    {
      "midi": 64,
      "hit": false,
      "t": 112080,
      "d": 240,
      "v": 84
    },
    {
      "midi": 64,
      "hit": false,
      "t": 112320,
      "d": 240,
      "v": 71
    },
    {
      "midi": 57,
      "hit": false,
      "t": 112320,
      "d": 480,
      "v": 76
    },
    {
      "midi": 60,
      "hit": false,
      "t": 112560,
      "d": 480,
      "v": 92
    },
    {
      "midi": 64,
      "hit": false,
      "t": 112560,
      "d": 480,
      "v": 87
    },
    {
      "midi": 52,
      "hit": false,
      "t": 112800,
      "d": 480,
      "v": 82
    },
    {
      "midi": 60,
      "hit": false,
      "t": 113040,
      "d": 720,
      "v": 87
    },
    {
      "midi": 64,
      "hit": false,
      "t": 113040,
      "d": 720,
      "v": 84
    },
    {
      "midi": 43,
      "hit": false,
      "t": 113280,
      "d": 480,
      "v": 74
    },
    {
      "midi": 59,
      "hit": false,
      "t": 113760,
      "d": 2880,
      "v": 95
    },
    {
      "midi": 62,
      "hit": false,
      "t": 113760,
      "d": 2880,
      "v": 82
    },
    {
      "midi": 50,
      "hit": false,
      "t": 113760,
      "d": 480,
      "v": 92
    },
    {
      "midi": 55,
      "hit": false,
      "t": 114240,
      "d": 480,
      "v": 71
    },
    {
      "midi": 50,
      "hit": false,
      "t": 114720,
      "d": 480,
      "v": 82
    },
    {
      "midi": 43,
      "hit": false,
      "t": 115200,
      "d": 480,
      "v": 74
    },
    {
      "midi": 50,
      "hit": false,
      "t": 115680,
      "d": 480,
      "v": 82
    },
    {
      "midi": 55,
      "hit": false,
      "t": 116160,
      "d": 480,
      "v": 76
    },
    {
      "midi": 59,
      "hit": false,
      "t": 116640,
      "d": 240,
      "v": 89
    },
    {
      "midi": 62,
      "hit": false,
      "t": 116640,
      "d": 240,
      "v": 80
    },
    {
      "midi": 50,
      "hit": false,
      "t": 116640,
      "d": 480,
      "v": 80
    },
    {
      "midi": 62,
      "hit": false,
      "t": 116880,
      "d": 240,
      "v": 97
    },
    {
      "midi": 62,
      "hit": false,
      "t": 117120,
      "d": 240,
      "v": 92
    },
    {
      "midi": 65,
      "hit": false,
      "t": 117120,
      "d": 240,
      "v": 95
    },
    {
      "midi": 43,
      "hit": false,
      "t": 117120,
      "d": 480,
      "v": 72
    },
    {
      "midi": 62,
      "hit": false,
      "t": 117360,
      "d": 720,
      "v": 97
    },
    {
      "midi": 65,
      "hit": false,
      "t": 117360,
      "d": 720,
      "v": 89
    },
    {
      "midi": 50,
      "hit": false,
      "t": 117600,
      "d": 480,
      "v": 78
    },
    {
      "midi": 62,
      "hit": false,
      "t": 118080,
      "d": 480,
      "v": 84
    },
    {
      "midi": 65,
      "hit": false,
      "t": 118080,
      "d": 480,
      "v": 84
    },
    {
      "midi": 55,
      "hit": false,
      "t": 118080,
      "d": 480,
      "v": 80
    },
    {
      "midi": 62,
      "hit": false,
      "t": 118560,
      "d": 480,
      "v": 82
    },
    {
      "midi": 65,
      "hit": false,
      "t": 118560,
      "d": 480,
      "v": 76
    },
    {
      "midi": 50,
      "hit": false,
      "t": 118560,
      "d": 480,
      "v": 87
    },
    {
      "midi": 62,
      "hit": false,
      "t": 119040,
      "d": 240,
      "v": 65
    },
    {
      "midi": 65,
      "hit": false,
      "t": 119040,
      "d": 240,
      "v": 72
    },
    {
      "midi": 48,
      "hit": false,
      "t": 119040,
      "d": 480,
      "v": 80
    },
    {
      "midi": 60,
      "hit": false,
      "t": 119280,
      "d": 240,
      "v": 78
    },
    {
      "midi": 64,
      "hit": false,
      "t": 119280,
      "d": 240,
      "v": 92
    },
    {
      "midi": 60,
      "hit": false,
      "t": 119520,
      "d": 480,
      "v": 82
    },
    {
      "midi": 64,
      "hit": false,
      "t": 119520,
      "d": 480,
      "v": 89
    },
    {
      "midi": 52,
      "hit": false,
      "t": 119520,
      "d": 480,
      "v": 69
    },
    {
      "midi": 60,
      "hit": false,
      "t": 120000,
      "d": 240,
      "v": 74
    },
    {
      "midi": 55,
      "hit": false,
      "t": 120000,
      "d": 480,
      "v": 71
    },
    {
      "midi": 59,
      "hit": false,
      "t": 120240,
      "d": 480,
      "v": 92
    },
    {
      "midi": 62,
      "hit": false,
      "t": 120240,
      "d": 480,
      "v": 78
    },
    {
      "midi": 43,
      "hit": false,
      "t": 120480,
      "d": 480,
      "v": 64
    },
    {
      "midi": 62,
      "hit": false,
      "t": 120720,
      "d": 720,
      "v": 87
    },
    {
      "midi": 65,
      "hit": false,
      "t": 120720,
      "d": 720,
      "v": 89
    },
    {
      "midi": 48,
      "hit": false,
      "t": 120960,
      "d": 480,
      "v": 72
    },
    {
      "midi": 60,
      "hit": false,
      "t": 121440,
      "d": 480,
      "v": 76
    },
    {
      "midi": 64,
      "hit": false,
      "t": 121440,
      "d": 480,
      "v": 80
    },
    {
      "midi": 52,
      "hit": false,
      "t": 121440,
      "d": 480,
      "v": 92
    },
    {
      "midi": 60,
      "hit": false,
      "t": 121920,
      "d": 2880,
      "v": 84
    },
    {
      "midi": 64,
      "hit": false,
      "t": 121920,
      "d": 2880,
      "v": 80
    },
    {
      "midi": 55,
      "hit": false,
      "t": 121920,
      "d": 480,
      "v": 82
    },
    {
      "midi": 52,
      "hit": false,
      "t": 122400,
      "d": 480,
      "v": 84
    },
    {
      "midi": 48,
      "hit": false,
      "t": 122880,
      "d": 480,
      "v": 69
    },
    {
      "midi": 52,
      "hit": false,
      "t": 123360,
      "d": 480,
      "v": 92
    },
    {
      "midi": 55,
      "hit": false,
      "t": 123840,
      "d": 480,
      "v": 69
    },
    {
      "midi": 52,
      "hit": false,
      "t": 124320,
      "d": 480,
      "v": 80
    },
    {
      "midi": 48,
      "hit": false,
      "t": 124800,
      "d": 480,
      "v": 72
    },
    {
      "midi": 64,
      "hit": false,
      "t": 125280,
      "d": 480,
      "v": 82
    },
    {
      "midi": 72,
      "hit": false,
      "t": 125280,
      "d": 480,
      "v": 80
    },
    {
      "midi": 52,
      "hit": false,
      "t": 125280,
      "d": 480,
      "v": 71
    },
    {
      "midi": 64,
      "hit": false,
      "t": 125760,
      "d": 480,
      "v": 72
    },
    {
      "midi": 72,
      "hit": false,
      "t": 125760,
      "d": 480,
      "v": 80
    },
    {
      "midi": 48,
      "hit": false,
      "t": 125760,
      "d": 480,
      "v": 82
    },
    {
      "midi": 71,
      "hit": false,
      "t": 126240,
      "d": 480,
      "v": 62
    },
    {
      "midi": 47,
      "hit": false,
      "t": 126240,
      "d": 480,
      "v": 82
    },
    {
      "midi": 69,
      "hit": false,
      "t": 126720,
      "d": 960,
      "v": 78
    },
    {
      "midi": 72,
      "hit": false,
      "t": 126720,
      "d": 960,
      "v": 69
    },
    {
      "midi": 45,
      "hit": false,
      "t": 126720,
      "d": 480,
      "v": 78
    },
    {
      "midi": 52,
      "hit": false,
      "t": 127200,
      "d": 480,
      "v": 89
    },
    {
      "midi": 69,
      "hit": false,
      "t": 127680,
      "d": 480,
      "v": 72
    },
    {
      "midi": 72,
      "hit": false,
      "t": 127680,
      "d": 480,
      "v": 71
    },
    {
      "midi": 57,
      "hit": false,
      "t": 127680,
      "d": 480,
      "v": 76
    },
    {
      "midi": 67,
      "hit": false,
      "t": 128160,
      "d": 240,
      "v": 82
    },
    {
      "midi": 71,
      "hit": false,
      "t": 128160,
      "d": 240,
      "v": 67
    },
    {
      "midi": 52,
      "hit": false,
      "t": 128160,
      "d": 480,
      "v": 76
    },
    {
      "midi": 69,
      "hit": false,
      "t": 128400,
      "d": 960,
      "v": 74
    },
    {
      "midi": 72,
      "hit": false,
      "t": 128400,
      "d": 960,
      "v": 69
    },
    {
      "midi": 43,
      "hit": false,
      "t": 128640,
      "d": 480,
      "v": 72
    },
    {
      "midi": 50,
      "hit": false,
      "t": 129120,
      "d": 480,
      "v": 82
    },
    {
      "midi": 71,
      "hit": false,
      "t": 129360,
      "d": 240,
      "v": 78
    },
    {
      "midi": 67,
      "hit": false,
      "t": 129600,
      "d": 480,
      "v": 84
    },
    {
      "midi": 71,
      "hit": false,
      "t": 129600,
      "d": 480,
      "v": 80
    },
    {
      "midi": 55,
      "hit": false,
      "t": 129600,
      "d": 480,
      "v": 76
    },
    {
      "midi": 67,
      "hit": false,
      "t": 130080,
      "d": 480,
      "v": 82
    },
    {
      "midi": 71,
      "hit": false,
      "t": 130080,
      "d": 480,
      "v": 80
    },
    {
      "midi": 50,
      "hit": false,
      "t": 130080,
      "d": 480,
      "v": 82
    },
    {
      "midi": 67,
      "hit": false,
      "t": 130560,
      "d": 480,
      "v": 68
    },
    {
      "midi": 71,
      "hit": false,
      "t": 130560,
      "d": 480,
      "v": 65
    },
    {
      "midi": 41,
      "hit": false,
      "t": 130560,
      "d": 480,
      "v": 68
    },
    {
      "midi": 65,
      "hit": false,
      "t": 131040,
      "d": 480,
      "v": 71
    },
    {
      "midi": 69,
      "hit": false,
      "t": 131040,
      "d": 480,
      "v": 84
    },
    {
      "midi": 48,
      "hit": false,
      "t": 131040,
      "d": 480,
      "v": 74
    },
    {
      "midi": 65,
      "hit": false,
      "t": 131520,
      "d": 240,
      "v": 76
    },
    {
      "midi": 69,
      "hit": false,
      "t": 131520,
      "d": 240,
      "v": 87
    },
    {
      "midi": 53,
      "hit": false,
      "t": 131520,
      "d": 480,
      "v": 64
    },
    {
      "midi": 65,
      "hit": false,
      "t": 131760,
      "d": 720,
      "v": 87
    },
    {
      "midi": 69,
      "hit": false,
      "t": 131760,
      "d": 720,
      "v": 97
    },
    {
      "midi": 48,
      "hit": false,
      "t": 132000,
      "d": 480,
      "v": 84
    },
    {
      "midi": 65,
      "hit": false,
      "t": 132480,
      "d": 480,
      "v": 80
    },
    {
      "midi": 69,
      "hit": false,
      "t": 132480,
      "d": 480,
      "v": 89
    },
    {
      "midi": 41,
      "hit": false,
      "t": 132480,
      "d": 480,
      "v": 76
    },
    {
      "midi": 65,
      "hit": false,
      "t": 132960,
      "d": 480,
      "v": 82
    },
    {
      "midi": 69,
      "hit": false,
      "t": 132960,
      "d": 480,
      "v": 95
    },
    {
      "midi": 48,
      "hit": false,
      "t": 132960,
      "d": 480,
      "v": 78
    },
    {
      "midi": 65,
      "hit": false,
      "t": 133440,
      "d": 480,
      "v": 84
    },
    {
      "midi": 69,
      "hit": false,
      "t": 133440,
      "d": 480,
      "v": 92
    },
    {
      "midi": 53,
      "hit": false,
      "t": 133440,
      "d": 480,
      "v": 71
    },
    {
      "midi": 64,
      "hit": false,
      "t": 133920,
      "d": 480,
      "v": 71
    },
    {
      "midi": 67,
      "hit": false,
      "t": 133920,
      "d": 480,
      "v": 72
    },
    {
      "midi": 48,
      "hit": false,
      "t": 133920,
      "d": 480,
      "v": 89
    },
    {
      "midi": 64,
      "hit": false,
      "t": 134400,
      "d": 960,
      "v": 84
    },
    {
      "midi": 67,
      "hit": false,
      "t": 134400,
      "d": 960,
      "v": 95
    },
    {
      "midi": 43,
      "hit": false,
      "t": 134400,
      "d": 480,
      "v": 82
    },
    {
      "midi": 48,
      "hit": false,
      "t": 134880,
      "d": 480,
      "v": 72
    },
    {
      "midi": 64,
      "hit": false,
      "t": 135360,
      "d": 240,
      "v": 84
    },
    {
      "midi": 67,
      "hit": false,
      "t": 135360,
      "d": 240,
      "v": 95
    },
    {
      "midi": 55,
      "hit": false,
      "t": 135360,
      "d": 480,
      "v": 72
    },
    {
      "midi": 64,
      "hit": false,
      "t": 135600,
      "d": 480,
      "v": 80
    },
    {
      "midi": 67,
      "hit": false,
      "t": 135600,
      "d": 480,
      "v": 92
    },
    {
      "midi": 52,
      "hit": false,
      "t": 135840,
      "d": 480,
      "v": 74
    },
    {
      "midi": 59,
      "hit": false,
      "t": 136080,
      "d": 480,
      "v": 95
    },
    {
      "midi": 67,
      "hit": false,
      "t": 136080,
      "d": 480,
      "v": 92
    },
    {
      "midi": 43,
      "hit": false,
      "t": 136320,
      "d": 480,
      "v": 71
    },
    {
      "midi": 59,
      "hit": false,
      "t": 136560,
      "d": 480,
      "v": 101
    },
    {
      "midi": 67,
      "hit": false,
      "t": 136560,
      "d": 480,
      "v": 92
    },
    {
      "midi": 50,
      "hit": false,
      "t": 136800,
      "d": 480,
      "v": 87
    },
    {
      "midi": 59,
      "hit": false,
      "t": 137040,
      "d": 480,
      "v": 104
    },
    {
      "midi": 67,
      "hit": false,
      "t": 137040,
      "d": 480,
      "v": 95
    },
    {
      "midi": 55,
      "hit": false,
      "t": 137280,
      "d": 480,
      "v": 71
    },
    {
      "midi": 59,
      "hit": false,
      "t": 137520,
      "d": 480,
      "v": 117
    },
    {
      "midi": 67,
      "hit": false,
      "t": 137520,
      "d": 480,
      "v": 104
    },
    {
      "midi": 50,
      "hit": false,
      "t": 137760,
      "d": 480,
      "v": 82
    },
    {
      "midi": 59,
      "hit": false,
      "t": 138000,
      "d": 1920,
      "v": 117
    },
    {
      "midi": 67,
      "hit": false,
      "t": 138000,
      "d": 1920,
      "v": 108
    },
    {
      "midi": 43,
      "hit": false,
      "t": 138240,
      "d": 480,
      "v": 68
    },
    {
      "midi": 50,
      "hit": false,
      "t": 138720,
      "d": 480,
      "v": 89
    },
    {
      "midi": 55,
      "hit": false,
      "t": 139200,
      "d": 480,
      "v": 69
    },
    {
      "midi": 50,
      "hit": false,
      "t": 139680,
      "d": 480,
      "v": 84
    },
    {
      "midi": 59,
      "hit": false,
      "t": 140160,
      "d": 1920,
      "v": 92
    },
    {
      "midi": 62,
      "hit": false,
      "t": 140160,
      "d": 1920,
      "v": 87
    },
    {
      "midi": 43,
      "hit": false,
      "t": 140160,
      "d": 480,
      "v": 72
    },
    {
      "midi": 50,
      "hit": false,
      "t": 140640,
      "d": 480,
      "v": 78
    },
    {
      "midi": 55,
      "hit": false,
      "t": 141120,
      "d": 480,
      "v": 68
    },
    {
      "midi": 50,
      "hit": false,
      "t": 141600,
      "d": 480,
      "v": 78
    },
    {
      "midi": 60,
      "hit": false,
      "t": 142080,
      "d": 2880,
      "v": 80
    },
    {
      "midi": 64,
      "hit": false,
      "t": 142080,
      "d": 2880,
      "v": 92
    },
    {
      "midi": 43,
      "hit": false,
      "t": 142080,
      "d": 480,
      "v": 76
    },
    {
      "midi": 48,
      "hit": false,
      "t": 142560,
      "d": 480,
      "v": 80
    },
    {
      "midi": 55,
      "hit": false,
      "t": 143040,
      "d": 480,
      "v": 72
    },
    {
      "midi": 52,
      "hit": false,
      "t": 143520,
      "d": 480,
      "v": 74
    },
    {
      "midi": 43,
      "hit": false,
      "t": 144000,
      "d": 480,
      "v": 64
    },
    {
      "midi": 48,
      "hit": false,
      "t": 144480,
      "d": 480,
      "v": 72
    },
    {
      "midi": 55,
      "hit": false,
      "t": 144960,
      "d": 480,
      "v": 71
    },
    {
      "midi": 60,
      "hit": false,
      "t": 145440,
      "d": 240,
      "v": 76
    },
    {
      "midi": 64,
      "hit": false,
      "t": 145440,
      "d": 240,
      "v": 80
    },
    {
      "midi": 52,
      "hit": false,
      "t": 145440,
      "d": 240,
      "v": 74
    },
    {
      "midi": 62,
      "hit": false,
      "t": 145680,
      "d": 240,
      "v": 61
    },
    {
      "midi": 65,
      "hit": false,
      "t": 145680,
      "d": 240,
      "v": 71
    },
    {
      "midi": 50,
      "hit": false,
      "t": 145680,
      "d": 240,
      "v": 71
    },
    {
      "midi": 64,
      "hit": false,
      "t": 145920,
      "d": 480,
      "v": 76
    },
    {
      "midi": 67,
      "hit": false,
      "t": 145920,
      "d": 480,
      "v": 95
    },
    {
      "midi": 48,
      "hit": false,
      "t": 145920,
      "d": 480,
      "v": 82
    },
    {
      "midi": 67,
      "hit": false,
      "t": 146400,
      "d": 480,
      "v": 101
    },
    {
      "midi": 52,
      "hit": false,
      "t": 146400,
      "d": 480,
      "v": 67
    },
    {
      "midi": 67,
      "hit": false,
      "t": 146880,
      "d": 480,
      "v": 87
    },
    {
      "midi": 55,
      "hit": false,
      "t": 146880,
      "d": 480,
      "v": 65
    },
    {
      "midi": 67,
      "hit": false,
      "t": 147360,
      "d": 480,
      "v": 92
    },
    {
      "midi": 52,
      "hit": false,
      "t": 147360,
      "d": 480,
      "v": 72
    },
    {
      "midi": 64,
      "hit": false,
      "t": 147840,
      "d": 480,
      "v": 74
    },
    {
      "midi": 67,
      "hit": false,
      "t": 147840,
      "d": 480,
      "v": 68
    },
    {
      "midi": 48,
      "hit": false,
      "t": 147840,
      "d": 480,
      "v": 71
    },
    {
      "midi": 62,
      "hit": false,
      "t": 148320,
      "d": 240,
      "v": 68
    },
    {
      "midi": 65,
      "hit": false,
      "t": 148320,
      "d": 240,
      "v": 76
    },
    {
      "midi": 55,
      "hit": false,
      "t": 148320,
      "d": 480,
      "v": 59
    },
    {
      "midi": 60,
      "hit": false,
      "t": 148560,
      "d": 720,
      "v": 74
    },
    {
      "midi": 64,
      "hit": false,
      "t": 148560,
      "d": 720,
      "v": 76
    },
    {
      "midi": 43,
      "hit": false,
      "t": 148800,
      "d": 480,
      "v": 72
    },
    {
      "midi": 62,
      "hit": false,
      "t": 149280,
      "d": 480,
      "v": 74
    },
    {
      "midi": 65,
      "hit": false,
      "t": 149280,
      "d": 480,
      "v": 84
    },
    {
      "midi": 55,
      "hit": false,
      "t": 149280,
      "d": 480,
      "v": 74
    },
    {
      "midi": 64,
      "hit": false,
      "t": 149760,
      "d": 480,
      "v": 74
    },
    {
      "midi": 67,
      "hit": false,
      "t": 149760,
      "d": 480,
      "v": 80
    },
    {
      "midi": 48,
      "hit": false,
      "t": 149760,
      "d": 480,
      "v": 89
    },
    {
      "midi": 64,
      "hit": false,
      "t": 150240,
      "d": 480,
      "v": 72
    },
    {
      "midi": 72,
      "hit": false,
      "t": 150240,
      "d": 480,
      "v": 64
    },
    {
      "midi": 52,
      "hit": false,
      "t": 150240,
      "d": 480,
      "v": 71
    },
    {
      "midi": 64,
      "hit": false,
      "t": 150720,
      "d": 240,
      "v": 80
    },
    {
      "midi": 72,
      "hit": false,
      "t": 150720,
      "d": 240,
      "v": 78
    },
    {
      "midi": 48,
      "hit": false,
      "t": 150720,
      "d": 480,
      "v": 65
    },
    {
      "midi": 71,
      "hit": false,
      "t": 150960,
      "d": 480,
      "v": 74
    },
    {
      "midi": 47,
      "hit": false,
      "t": 151200,
      "d": 480,
      "v": 89
    },
    {
      "midi": 60,
      "hit": false,
      "t": 151440,
      "d": 960,
      "v": 89
    },
    {
      "midi": 69,
      "hit": false,
      "t": 151440,
      "d": 960,
      "v": 101
    },
    {
      "midi": 45,
      "hit": false,
      "t": 151680,
      "d": 480,
      "v": 71
    },
    {
      "midi": 52,
      "hit": false,
      "t": 152160,
      "d": 480,
      "v": 101
    },
    {
      "midi": 60,
      "hit": false,
      "t": 152640,
      "d": 480,
      "v": 87
    },
    {
      "midi": 69,
      "hit": false,
      "t": 152640,
      "d": 480,
      "v": 87
    },
    {
      "midi": 57,
      "hit": false,
      "t": 152640,
      "d": 480,
      "v": 66
    },
    {
      "midi": 60,
      "hit": false,
      "t": 153120,
      "d": 480,
      "v": 87
    },
    {
      "midi": 64,
      "hit": false,
      "t": 153120,
      "d": 480,
      "v": 92
    },
    {
      "midi": 52,
      "hit": false,
      "t": 153120,
      "d": 480,
      "v": 89
    },
    {
      "midi": 59,
      "hit": false,
      "t": 153600,
      "d": 1920,
      "v": 95
    },
    {
      "midi": 67,
      "hit": false,
      "t": 153600,
      "d": 1920,
      "v": 87
    },
    {
      "midi": 43,
      "hit": false,
      "t": 153600,
      "d": 480,
      "v": 72
    },
    {
      "midi": 50,
      "hit": false,
      "t": 154080,
      "d": 480,
      "v": 87
    },
    {
      "midi": 55,
      "hit": false,
      "t": 154560,
      "d": 480,
      "v": 80
    },
    {
      "midi": 50,
      "hit": false,
      "t": 155040,
      "d": 480,
      "v": 74
    },
    {
      "midi": 62,
      "hit": false,
      "t": 155520,
      "d": 240,
      "v": 87
    },
    {
      "midi": 43,
      "hit": false,
      "t": 155520,
      "d": 480,
      "v": 74
    },
    {
      "midi": 65,
      "hit": false,
      "t": 155760,
      "d": 240,
      "v": 80
    },
    {
      "midi": 59,
      "hit": false,
      "t": 156000,
      "d": 240,
      "v": 82
    },
    {
      "midi": 50,
      "hit": false,
      "t": 156000,
      "d": 480,
      "v": 87
    },
    {
      "midi": 62,
      "hit": false,
      "t": 156240,
      "d": 720,
      "v": 74
    },
    {
      "midi": 55,
      "hit": false,
      "t": 156480,
      "d": 480,
      "v": 76
    },
    {
      "midi": 59,
      "hit": false,
      "t": 156960,
      "d": 240,
      "v": 84
    },
    {
      "midi": 62,
      "hit": false,
      "t": 156960,
      "d": 240,
      "v": 87
    },
    {
      "midi": 50,
      "hit": false,
      "t": 156960,
      "d": 480,
      "v": 64
    },
    {
      "midi": 60,
      "hit": false,
      "t": 157200,
      "d": 240,
      "v": 68
    },
    {
      "midi": 64,
      "hit": false,
      "t": 157200,
      "d": 240,
      "v": 80
    },
    {
      "midi": 62,
      "hit": false,
      "t": 157440,
      "d": 240,
      "v": 80
    },
    {
      "midi": 65,
      "hit": false,
      "t": 157440,
      "d": 240,
      "v": 84
    },
    {
      "midi": 43,
      "hit": false,
      "t": 157440,
      "d": 480,
      "v": 72
    },
    {
      "midi": 62,
      "hit": false,
      "t": 157680,
      "d": 720,
      "v": 92
    },
    {
      "midi": 65,
      "hit": false,
      "t": 157680,
      "d": 720,
      "v": 84
    },
    {
      "midi": 50,
      "hit": false,
      "t": 157920,
      "d": 480,
      "v": 82
    },
    {
      "midi": 59,
      "hit": false,
      "t": 158400,
      "d": 240,
      "v": 80
    },
    {
      "midi": 65,
      "hit": false,
      "t": 158400,
      "d": 240,
      "v": 87
    },
    {
      "midi": 55,
      "hit": false,
      "t": 158400,
      "d": 480,
      "v": 62
    },
    {
      "midi": 65,
      "hit": false,
      "t": 158640,
      "d": 480,
      "v": 84
    },
    {
      "midi": 50,
      "hit": false,
      "t": 158880,
      "d": 480,
      "v": 80
    },
    {
      "midi": 62,
      "hit": false,
      "t": 159120,
      "d": 720,
      "v": 87
    },
    {
      "midi": 65,
      "hit": false,
      "t": 159120,
      "d": 720,
      "v": 89
    },
    {
      "midi": 48,
      "hit": false,
      "t": 159360,
      "d": 480,
      "v": 84
    },
    {
      "midi": 60,
      "hit": false,
      "t": 159840,
      "d": 480,
      "v": 78
    },
    {
      "midi": 64,
      "hit": false,
      "t": 159840,
      "d": 480,
      "v": 74
    },
    {
      "midi": 52,
      "hit": false,
      "t": 159840,
      "d": 480,
      "v": 60
    },
    {
      "midi": 60,
      "hit": false,
      "t": 160320,
      "d": 480,
      "v": 87
    },
    {
      "midi": 55,
      "hit": false,
      "t": 160320,
      "d": 480,
      "v": 68
    },
    {
      "midi": 59,
      "hit": false,
      "t": 160800,
      "d": 480,
      "v": 80
    },
    {
      "midi": 62,
      "hit": false,
      "t": 160800,
      "d": 480,
      "v": 84
    },
    {
      "midi": 43,
      "hit": false,
      "t": 160800,
      "d": 480,
      "v": 76
    },
    {
      "midi": 62,
      "hit": false,
      "t": 161280,
      "d": 480,
      "v": 80
    },
    {
      "midi": 65,
      "hit": false,
      "t": 161280,
      "d": 480,
      "v": 78
    },
    {
      "midi": 48,
      "hit": false,
      "t": 161280,
      "d": 480,
      "v": 84
    },
    {
      "midi": 60,
      "hit": false,
      "t": 161760,
      "d": 480,
      "v": 64
    },
    {
      "midi": 64,
      "hit": false,
      "t": 161760,
      "d": 480,
      "v": 68
    },
    {
      "midi": 52,
      "hit": false,
      "t": 161760,
      "d": 480,
      "v": 65
    },
    {
      "midi": 60,
      "hit": false,
      "t": 162240,
      "d": 960,
      "v": 78
    },
    {
      "midi": 64,
      "hit": false,
      "t": 162240,
      "d": 960,
      "v": 78
    },
    {
      "midi": 55,
      "hit": false,
      "t": 162240,
      "d": 480,
      "v": 68
    },
    {
      "midi": 52,
      "hit": false,
      "t": 162720,
      "d": 480,
      "v": 68
    },
    {
      "midi": 48,
      "hit": false,
      "t": 163200,
      "d": 480,
      "v": 72
    },
    {
      "midi": 55,
      "hit": false,
      "t": 163440,
      "d": 240,
      "v": 68
    },
    {
      "midi": 60,
      "hit": false,
      "t": 163680,
      "d": 240,
      "v": 87
    },
    {
      "midi": 52,
      "hit": false,
      "t": 163680,
      "d": 480,
      "v": 80
    },
    {
      "midi": 64,
      "hit": false,
      "t": 163920,
      "d": 480,
      "v": 68
    },
    {
      "midi": 55,
      "hit": false,
      "t": 164160,
      "d": 480,
      "v": 62
    },
    {
      "midi": 55,
      "hit": false,
      "t": 164400,
      "d": 240,
      "v": 71
    },
    {
      "midi": 60,
      "hit": false,
      "t": 164640,
      "d": 240,
      "v": 87
    },
    {
      "midi": 52,
      "hit": false,
      "t": 164640,
      "d": 480,
      "v": 78
    },
    {
      "midi": 64,
      "hit": false,
      "t": 164880,
      "d": 240,
      "v": 76
    },
    {
      "midi": 55,
      "hit": false,
      "t": 165120,
      "d": 240,
      "v": 87
    },
    {
      "midi": 48,
      "hit": false,
      "t": 165120,
      "d": 480,
      "v": 71
    },
    {
      "midi": 60,
      "hit": false,
      "t": 165360,
      "d": 240,
      "v": 97
    },
    {
      "midi": 64,
      "hit": false,
      "t": 165600,
      "d": 480,
      "v": 89
    },
    {
      "midi": 52,
      "hit": false,
      "t": 165600,
      "d": 480,
      "v": 80
    },
    {
      "midi": 64,
      "hit": false,
      "t": 166080,
      "d": 480,
      "v": 76
    },
    {
      "midi": 67,
      "hit": false,
      "t": 166080,
      "d": 480,
      "v": 84
    },
    {
      "midi": 72,
      "hit": false,
      "t": 166080,
      "d": 480,
      "v": 80
    },
    {
      "midi": 55,
      "hit": false,
      "t": 166080,
      "d": 480,
      "v": 76
    },
    {
      "midi": 71,
      "hit": false,
      "t": 166560,
      "d": 480,
      "v": 71
    },
    {
      "midi": 52,
      "hit": false,
      "t": 166560,
      "d": 480,
      "v": 74
    },
    {
      "midi": 59,
      "hit": false,
      "t": 167040,
      "d": 1920,
      "v": 89
    },
    {
      "midi": 64,
      "hit": false,
      "t": 167040,
      "d": 1920,
      "v": 87
    },
    {
      "midi": 67,
      "hit": false,
      "t": 167040,
      "d": 1920,
      "v": 92
    },
    {
      "midi": 43,
      "hit": false,
      "t": 167040,
      "d": 480,
      "v": 72
    },
    {
      "midi": 47,
      "hit": false,
      "t": 167520,
      "d": 240,
      "v": 76
    },
    {
      "midi": 52,
      "hit": false,
      "t": 167760,
      "d": 240,
      "v": 74
    },
    {
      "midi": 55,
      "hit": false,
      "t": 168000,
      "d": 480,
      "v": 101
    },
    {
      "midi": 52,
      "hit": false,
      "t": 168480,
      "d": 480,
      "v": 82
    },
    {
      "midi": 60,
      "hit": false,
      "t": 168960,
      "d": 2880,
      "v": 89
    },
    {
      "midi": 64,
      "hit": false,
      "t": 168960,
      "d": 2880,
      "v": 84
    },
    {
      "midi": 69,
      "hit": false,
      "t": 168960,
      "d": 2880,
      "v": 92
    },
    {
      "midi": 45,
      "hit": false,
      "t": 168960,
      "d": 480,
      "v": 71
    },
    {
      "midi": 48,
      "hit": false,
      "t": 169440,
      "d": 240,
      "v": 82
    },
    {
      "midi": 52,
      "hit": false,
      "t": 169680,
      "d": 240,
      "v": 67
    },
    {
      "midi": 57,
      "hit": false,
      "t": 169920,
      "d": 480,
      "v": 61
    },
    {
      "midi": 52,
      "hit": false,
      "t": 170400,
      "d": 480,
      "v": 69
    },
    {
      "midi": 45,
      "hit": false,
      "t": 170880,
      "d": 480,
      "v": 74
    },
    {
      "midi": 48,
      "hit": false,
      "t": 171360,
      "d": 240,
      "v": 76
    },
    {
      "midi": 52,
      "hit": false,
      "t": 171600,
      "d": 240,
      "v": 69
    },
    {
      "midi": 60,
      "hit": false,
      "t": 171840,
      "d": 480,
      "v": 64
    },
    {
      "midi": 69,
      "hit": false,
      "t": 171840,
      "d": 480,
      "v": 64
    },
    {
      "midi": 57,
      "hit": false,
      "t": 171840,
      "d": 480,
      "v": 63
    },
    {
      "midi": 64,
      "hit": false,
      "t": 172320,
      "d": 480,
      "v": 97
    },
    {
      "midi": 52,
      "hit": false,
      "t": 172320,
      "d": 480,
      "v": 72
    },
    {
      "midi": 67,
      "hit": false,
      "t": 172800,
      "d": 240,
      "v": 97
    },
    {
      "midi": 43,
      "hit": false,
      "t": 172800,
      "d": 480,
      "v": 63
    },
    {
      "midi": 55,
      "hit": false,
      "t": 173040,
      "d": 240,
      "v": 67
    },
    {
      "midi": 59,
      "hit": false,
      "t": 173280,
      "d": 240,
      "v": 101
    },
    {
      "midi": 50,
      "hit": false,
      "t": 173280,
      "d": 480,
      "v": 63
    },
    {
      "midi": 62,
      "hit": false,
      "t": 173520,
      "d": 480,
      "v": 95
    },
    {
      "midi": 43,
      "hit": false,
      "t": 173760,
      "d": 480,
      "v": 71
    },
    {
      "midi": 55,
      "hit": false,
      "t": 174000,
      "d": 240,
      "v": 80
    },
    {
      "midi": 59,
      "hit": false,
      "t": 174240,
      "d": 240,
      "v": 92
    },
    {
      "midi": 50,
      "hit": false,
      "t": 174240,
      "d": 480,
      "v": 78
    },
    {
      "midi": 62,
      "hit": false,
      "t": 174480,
      "d": 480,
      "v": 87
    },
    {
      "midi": 43,
      "hit": false,
      "t": 174720,
      "d": 480,
      "v": 80
    },
    {
      "midi": 55,
      "hit": false,
      "t": 174960,
      "d": 240,
      "v": 84
    },
    {
      "midi": 59,
      "hit": false,
      "t": 175200,
      "d": 240,
      "v": 95
    },
    {
      "midi": 50,
      "hit": false,
      "t": 175200,
      "d": 480,
      "v": 74
    },
    {
      "midi": 62,
      "hit": false,
      "t": 175440,
      "d": 480,
      "v": 82
    },
    {
      "midi": 43,
      "hit": false,
      "t": 175680,
      "d": 480,
      "v": 76
    },
    {
      "midi": 55,
      "hit": false,
      "t": 175920,
      "d": 240,
      "v": 76
    },
    {
      "midi": 59,
      "hit": false,
      "t": 176160,
      "d": 240,
      "v": 87
    },
    {
      "midi": 50,
      "hit": false,
      "t": 176160,
      "d": 480,
      "v": 64
    },
    {
      "midi": 62,
      "hit": false,
      "t": 176400,
      "d": 240,
      "v": 76
    },
    {
      "midi": 60,
      "hit": false,
      "t": 176640,
      "d": 720,
      "v": 80
    },
    {
      "midi": 64,
      "hit": false,
      "t": 176640,
      "d": 720,
      "v": 72
    },
    {
      "midi": 43,
      "hit": false,
      "t": 176640,
      "d": 480,
      "v": 71
    },
    {
      "midi": 48,
      "hit": false,
      "t": 177120,
      "d": 480,
      "v": 65
    },
    {
      "midi": 60,
      "hit": false,
      "t": 177360,
      "d": 240,
      "v": 87
    },
    {
      "midi": 64,
      "hit": false,
      "t": 177360,
      "d": 240,
      "v": 89
    },
    {
      "midi": 60,
      "hit": false,
      "t": 177600,
      "d": 960,
      "v": 78
    },
    {
      "midi": 64,
      "hit": false,
      "t": 177600,
      "d": 960,
      "v": 80
    },
    {
      "midi": 55,
      "hit": false,
      "t": 177600,
      "d": 480,
      "v": 74
    },
    {
      "midi": 52,
      "hit": false,
      "t": 178080,
      "d": 480,
      "v": 76
    },
    {
      "midi": 60,
      "hit": false,
      "t": 178560,
      "d": 720,
      "v": 84
    },
    {
      "midi": 64,
      "hit": false,
      "t": 178560,
      "d": 720,
      "v": 80
    },
    {
      "midi": 43,
      "hit": false,
      "t": 178560,
      "d": 480,
      "v": 65
    },
    {
      "midi": 48,
      "hit": false,
      "t": 179040,
      "d": 480,
      "v": 72
    },
    {
      "midi": 60,
      "hit": false,
      "t": 179280,
      "d": 240,
      "v": 71
    },
    {
      "midi": 64,
      "hit": false,
      "t": 179280,
      "d": 240,
      "v": 84
    },
    {
      "midi": 60,
      "hit": false,
      "t": 179520,
      "d": 480,
      "v": 82
    },
    {
      "midi": 64,
      "hit": false,
      "t": 179520,
      "d": 480,
      "v": 61
    },
    {
      "midi": 55,
      "hit": false,
      "t": 179520,
      "d": 480,
      "v": 80
    },
    {
      "midi": 64,
      "hit": false,
      "t": 180000,
      "d": 240,
      "v": 74
    },
    {
      "midi": 67,
      "hit": false,
      "t": 180000,
      "d": 240,
      "v": 82
    },
    {
      "midi": 52,
      "hit": false,
      "t": 180000,
      "d": 480,
      "v": 82
    },
    {
      "midi": 69,
      "hit": false,
      "t": 180240,
      "d": 240,
      "v": 72
    },
    {
      "midi": 64,
      "hit": false,
      "t": 180480,
      "d": 480,
      "v": 67
    },
    {
      "midi": 67,
      "hit": false,
      "t": 180480,
      "d": 480,
      "v": 80
    },
    {
      "midi": 48,
      "hit": false,
      "t": 180480,
      "d": 480,
      "v": 69
    },
    {
      "midi": 64,
      "hit": false,
      "t": 180960,
      "d": 480,
      "v": 87
    },
    {
      "midi": 67,
      "hit": false,
      "t": 180960,
      "d": 480,
      "v": 92
    },
    {
      "midi": 52,
      "hit": false,
      "t": 180960,
      "d": 480,
      "v": 72
    },
    {
      "midi": 64,
      "hit": false,
      "t": 181440,
      "d": 720,
      "v": 65
    },
    {
      "midi": 67,
      "hit": false,
      "t": 181440,
      "d": 720,
      "v": 69
    },
    {
      "midi": 55,
      "hit": false,
      "t": 181440,
      "d": 480,
      "v": 68
    },
    {
      "midi": 52,
      "hit": false,
      "t": 181920,
      "d": 480,
      "v": 71
    },
    {
      "midi": 67,
      "hit": false,
      "t": 182160,
      "d": 240,
      "v": 69
    },
    {
      "midi": 64,
      "hit": false,
      "t": 182400,
      "d": 480,
      "v": 84
    },
    {
      "midi": 67,
      "hit": false,
      "t": 182400,
      "d": 480,
      "v": 92
    },
    {
      "midi": 48,
      "hit": false,
      "t": 182400,
      "d": 480,
      "v": 76
    },
    {
      "midi": 60,
      "hit": false,
      "t": 182880,
      "d": 480,
      "v": 68
    },
    {
      "midi": 64,
      "hit": false,
      "t": 182880,
      "d": 480,
      "v": 80
    },
    {
      "midi": 52,
      "hit": false,
      "t": 182880,
      "d": 480,
      "v": 80
    },
    {
      "midi": 60,
      "hit": false,
      "t": 183360,
      "d": 480,
      "v": 72
    },
    {
      "midi": 64,
      "hit": false,
      "t": 183360,
      "d": 480,
      "v": 78
    },
    {
      "midi": 55,
      "hit": false,
      "t": 183360,
      "d": 480,
      "v": 80
    },
    {
      "midi": 62,
      "hit": false,
      "t": 183840,
      "d": 480,
      "v": 67
    },
    {
      "midi": 65,
      "hit": false,
      "t": 183840,
      "d": 480,
      "v": 66
    },
    {
      "midi": 52,
      "hit": false,
      "t": 183840,
      "d": 480,
      "v": 76
    },
    {
      "midi": 64,
      "hit": false,
      "t": 184320,
      "d": 480,
      "v": 76
    },
    {
      "midi": 67,
      "hit": false,
      "t": 184320,
      "d": 480,
      "v": 74
    },
    {
      "midi": 48,
      "hit": false,
      "t": 184320,
      "d": 480,
      "v": 74
    },
    {
      "midi": 64,
      "hit": false,
      "t": 184800,
      "d": 480,
      "v": 82
    },
    {
      "midi": 67,
      "hit": false,
      "t": 184800,
      "d": 480,
      "v": 80
    },
    {
      "midi": 52,
      "hit": false,
      "t": 184800,
      "d": 480,
      "v": 71
    },
    {
      "midi": 64,
      "hit": false,
      "t": 185280,
      "d": 480,
      "v": 65
    },
    {
      "midi": 72,
      "hit": false,
      "t": 185280,
      "d": 480,
      "v": 80
    },
    {
      "midi": 48,
      "hit": false,
      "t": 185280,
      "d": 480,
      "v": 82
    },
    {
      "midi": 71,
      "hit": false,
      "t": 185760,
      "d": 480,
      "v": 80
    },
    {
      "midi": 47,
      "hit": false,
      "t": 185760,
      "d": 480,
      "v": 78
    },
    {
      "midi": 60,
      "hit": false,
      "t": 186240,
      "d": 960,
      "v": 74
    },
    {
      "midi": 64,
      "hit": false,
      "t": 186240,
      "d": 960,
      "v": 76
    },
    {
      "midi": 69,
      "hit": false,
      "t": 186240,
      "d": 960,
      "v": 82
    },
    {
      "midi": 45,
      "hit": false,
      "t": 186240,
      "d": 480,
      "v": 76
    },
    {
      "midi": 48,
      "hit": false,
      "t": 186720,
      "d": 240,
      "v": 84
    },
    {
      "midi": 52,
      "hit": false,
      "t": 186960,
      "d": 240,
      "v": 61
    },
    {
      "midi": 60,
      "hit": false,
      "t": 187200,
      "d": 480,
      "v": 63
    },
    {
      "midi": 64,
      "hit": false,
      "t": 187200,
      "d": 480,
      "v": 67
    },
    {
      "midi": 69,
      "hit": false,
      "t": 187200,
      "d": 480,
      "v": 76
    },
    {
      "midi": 55,
      "hit": false,
      "t": 187200,
      "d": 480,
      "v": 67
    },
    {
      "midi": 71,
      "hit": false,
      "t": 187680,
      "d": 480,
      "v": 92
    },
    {
      "midi": 52,
      "hit": false,
      "t": 187680,
      "d": 480,
      "v": 80
    },
    {
      "midi": 59,
      "hit": false,
      "t": 188160,
      "d": 480,
      "v": 82
    },
    {
      "midi": 62,
      "hit": false,
      "t": 188160,
      "d": 480,
      "v": 72
    },
    {
      "midi": 69,
      "hit": false,
      "t": 188160,
      "d": 480,
      "v": 84
    },
    {
      "midi": 43,
      "hit": false,
      "t": 188160,
      "d": 480,
      "v": 80
    },
    {
      "midi": 67,
      "hit": false,
      "t": 188640,
      "d": 480,
      "v": 92
    },
    {
      "midi": 47,
      "hit": false,
      "t": 188640,
      "d": 240,
      "v": 113
    },
    {
      "midi": 50,
      "hit": false,
      "t": 188880,
      "d": 240,
      "v": 71
    },
    {
      "midi": 67,
      "hit": false,
      "t": 189120,
      "d": 720,
      "v": 84
    },
    {
      "midi": 55,
      "hit": false,
      "t": 189120,
      "d": 480,
      "v": 61
    },
    {
      "midi": 50,
      "hit": false,
      "t": 189600,
      "d": 480,
      "v": 76
    },
    {
      "midi": 69,
      "hit": false,
      "t": 189840,
      "d": 240,
      "v": 78
    },
    {
      "midi": 67,
      "hit": false,
      "t": 190080,
      "d": 480,
      "v": 82
    },
    {
      "midi": 43,
      "hit": false,
      "t": 190080,
      "d": 480,
      "v": 74
    },
    {
      "midi": 59,
      "hit": false,
      "t": 190560,
      "d": 960,
      "v": 89
    },
    {
      "midi": 62,
      "hit": false,
      "t": 190560,
      "d": 960,
      "v": 84
    },
    {
      "midi": 47,
      "hit": false,
      "t": 190560,
      "d": 240,
      "v": 104
    },
    {
      "midi": 50,
      "hit": false,
      "t": 190800,
      "d": 240,
      "v": 78
    },
    {
      "midi": 55,
      "hit": false,
      "t": 191040,
      "d": 480,
      "v": 76
    },
    {
      "midi": 59,
      "hit": false,
      "t": 191520,
      "d": 480,
      "v": 78
    },
    {
      "midi": 62,
      "hit": false,
      "t": 191520,
      "d": 480,
      "v": 78
    },
    {
      "midi": 50,
      "hit": false,
      "t": 191520,
      "d": 480,
      "v": 84
    },
    {
      "midi": 65,
      "hit": false,
      "t": 192000,
      "d": 240,
      "v": 74
    },
    {
      "midi": 43,
      "hit": false,
      "t": 192000,
      "d": 480,
      "v": 87
    },
    {
      "midi": 62,
      "hit": false,
      "t": 192240,
      "d": 720,
      "v": 82
    },
    {
      "midi": 65,
      "hit": false,
      "t": 192240,
      "d": 720,
      "v": 80
    },
    {
      "midi": 47,
      "hit": false,
      "t": 192480,
      "d": 240,
      "v": 95
    },
    {
      "midi": 50,
      "hit": false,
      "t": 192720,
      "d": 240,
      "v": 72
    },
    {
      "midi": 62,
      "hit": false,
      "t": 192960,
      "d": 480,
      "v": 87
    },
    {
      "midi": 65,
      "hit": false,
      "t": 192960,
      "d": 480,
      "v": 82
    },
    {
      "midi": 55,
      "hit": false,
      "t": 192960,
      "d": 480,
      "v": 71
    },
    {
      "midi": 62,
      "hit": false,
      "t": 193440,
      "d": 480,
      "v": 82
    },
    {
      "midi": 65,
      "hit": false,
      "t": 193440,
      "d": 480,
      "v": 74
    },
    {
      "midi": 50,
      "hit": false,
      "t": 193440,
      "d": 480,
      "v": 78
    },
    {
      "midi": 62,
      "hit": false,
      "t": 193920,
      "d": 240,
      "v": 68
    },
    {
      "midi": 65,
      "hit": false,
      "t": 193920,
      "d": 240,
      "v": 69
    },
    {
      "midi": 43,
      "hit": false,
      "t": 193920,
      "d": 480,
      "v": 69
    },
    {
      "midi": 60,
      "hit": false,
      "t": 194160,
      "d": 480,
      "v": 76
    },
    {
      "midi": 64,
      "hit": false,
      "t": 194160,
      "d": 480,
      "v": 82
    },
    {
      "midi": 48,
      "hit": false,
      "t": 194400,
      "d": 480,
      "v": 87
    },
    {
      "midi": 60,
      "hit": false,
      "t": 194640,
      "d": 720,
      "v": 97
    },
    {
      "midi": 52,
      "hit": false,
      "t": 194880,
      "d": 480,
      "v": 69
    },
    {
      "midi": 59,
      "hit": false,
      "t": 195360,
      "d": 480,
      "v": 92
    },
    {
      "midi": 62,
      "hit": false,
      "t": 195360,
      "d": 480,
      "v": 89
    },
    {
      "midi": 55,
      "hit": false,
      "t": 195360,
      "d": 480,
      "v": 72
    },
    {
      "midi": 65,
      "hit": false,
      "t": 195840,
      "d": 480,
      "v": 78
    },
    {
      "midi": 43,
      "hit": false,
      "t": 195840,
      "d": 480,
      "v": 71
    },
    {
      "midi": 60,
      "hit": false,
      "t": 196320,
      "d": 480,
      "v": 87
    },
    {
      "midi": 64,
      "hit": false,
      "t": 196320,
      "d": 480,
      "v": 72
    },
    {
      "midi": 48,
      "hit": false,
      "t": 196320,
      "d": 480,
      "v": 56
    },
    {
      "midi": 57,
      "hit": false,
      "t": 196800,
      "d": 240,
      "v": 60
    },
    {
      "midi": 60,
      "hit": false,
      "t": 196800,
      "d": 240,
      "v": 69
    },
    {
      "midi": 55,
      "hit": false,
      "t": 196800,
      "d": 480,
      "v": 72
    },
    {
      "midi": 59,
      "hit": false,
      "t": 197040,
      "d": 480,
      "v": 74
    },
    {
      "midi": 62,
      "hit": false,
      "t": 197040,
      "d": 480,
      "v": 80
    },
    {
      "midi": 50,
      "hit": false,
      "t": 197280,
      "d": 480,
      "v": 78
    },
    {
      "midi": 62,
      "hit": false,
      "t": 197520,
      "d": 720,
      "v": 89
    },
    {
      "midi": 65,
      "hit": false,
      "t": 197520,
      "d": 720,
      "v": 82
    },
    {
      "midi": 48,
      "hit": false,
      "t": 197760,
      "d": 480,
      "v": 80
    },
    {
      "midi": 60,
      "hit": false,
      "t": 198240,
      "d": 960,
      "v": 72
    },
    {
      "midi": 64,
      "hit": false,
      "t": 198240,
      "d": 960,
      "v": 68
    },
    {
      "midi": 52,
      "hit": false,
      "t": 198240,
      "d": 240,
      "v": 87
    },
    {
      "midi": 55,
      "hit": false,
      "t": 198480,
      "d": 240,
      "v": 54
    },
    {
      "midi": 60,
      "hit": false,
      "t": 198720,
      "d": 480,
      "v": 61
    },
    {
      "midi": 64,
      "hit": false,
      "t": 199200,
      "d": 240,
      "v": 76
    },
    {
      "midi": 67,
      "hit": false,
      "t": 199200,
      "d": 240,
      "v": 78
    },
    {
      "midi": 55,
      "hit": false,
      "t": 199200,
      "d": 480,
      "v": 69
    },
    {
      "midi": 64,
      "hit": false,
      "t": 199440,
      "d": 240,
      "v": 82
    },
    {
      "midi": 67,
      "hit": false,
      "t": 199440,
      "d": 240,
      "v": 82
    },
    {
      "midi": 64,
      "hit": false,
      "t": 199680,
      "d": 480,
      "v": 95
    },
    {
      "midi": 67,
      "hit": false,
      "t": 199680,
      "d": 480,
      "v": 92
    },
    {
      "midi": 48,
      "hit": false,
      "t": 199680,
      "d": 480,
      "v": 74
    },
    {
      "midi": 64,
      "hit": false,
      "t": 200160,
      "d": 480,
      "v": 76
    },
    {
      "midi": 72,
      "hit": false,
      "t": 200160,
      "d": 480,
      "v": 84
    },
    {
      "midi": 52,
      "hit": false,
      "t": 200160,
      "d": 480,
      "v": 74
    },
    {
      "midi": 64,
      "hit": false,
      "t": 200640,
      "d": 240,
      "v": 80
    },
    {
      "midi": 72,
      "hit": false,
      "t": 200640,
      "d": 240,
      "v": 71
    },
    {
      "midi": 48,
      "hit": false,
      "t": 200640,
      "d": 480,
      "v": 71
    },
    {
      "midi": 64,
      "hit": false,
      "t": 200880,
      "d": 480,
      "v": 78
    },
    {
      "midi": 71,
      "hit": false,
      "t": 200880,
      "d": 480,
      "v": 80
    },
    {
      "midi": 47,
      "hit": false,
      "t": 201120,
      "d": 480,
      "v": 104
    },
    {
      "midi": 69,
      "hit": false,
      "t": 201360,
      "d": 960,
      "v": 87
    },
    {
      "midi": 72,
      "hit": false,
      "t": 201360,
      "d": 960,
      "v": 82
    },
    {
      "midi": 45,
      "hit": false,
      "t": 201600,
      "d": 480,
      "v": 71
    },
    {
      "midi": 48,
      "hit": false,
      "t": 202080,
      "d": 240,
      "v": 80
    },
    {
      "midi": 52,
      "hit": false,
      "t": 202320,
      "d": 240,
      "v": 45
    },
    {
      "midi": 69,
      "hit": false,
      "t": 202560,
      "d": 480,
      "v": 101
    },
    {
      "midi": 72,
      "hit": false,
      "t": 202560,
      "d": 480,
      "v": 92
    },
    {
      "midi": 57,
      "hit": false,
      "t": 202560,
      "d": 480,
      "v": 76
    },
    {
      "midi": 69,
      "hit": false,
      "t": 203040,
      "d": 480,
      "v": 104
    },
    {
      "midi": 72,
      "hit": false,
      "t": 203040,
      "d": 480,
      "v": 92
    },
    {
      "midi": 52,
      "hit": false,
      "t": 203040,
      "d": 480,
      "v": 71
    },
    {
      "midi": 62,
      "hit": false,
      "t": 203520,
      "d": 480,
      "v": 64
    },
    {
      "midi": 67,
      "hit": false,
      "t": 203520,
      "d": 480,
      "v": 82
    },
    {
      "midi": 72,
      "hit": false,
      "t": 203520,
      "d": 480,
      "v": 117
    },
    {
      "midi": 43,
      "hit": false,
      "t": 203520,
      "d": 480,
      "v": 64
    },
    {
      "midi": 71,
      "hit": false,
      "t": 204000,
      "d": 480,
      "v": 67
    },
    {
      "midi": 47,
      "hit": false,
      "t": 204000,
      "d": 240,
      "v": 87
    },
    {
      "midi": 50,
      "hit": false,
      "t": 204240,
      "d": 240,
      "v": 71
    },
    {
      "midi": 71,
      "hit": false,
      "t": 204480,
      "d": 480,
      "v": 104
    },
    {
      "midi": 55,
      "hit": false,
      "t": 204480,
      "d": 480,
      "v": 68
    },
    {
      "midi": 71,
      "hit": false,
      "t": 204960,
      "d": 480,
      "v": 97
    },
    {
      "midi": 50,
      "hit": false,
      "t": 204960,
      "d": 480,
      "v": 82
    },
    {
      "midi": 60,
      "hit": false,
      "t": 205440,
      "d": 480,
      "v": 84
    },
    {
      "midi": 65,
      "hit": false,
      "t": 205440,
      "d": 480,
      "v": 82
    },
    {
      "midi": 71,
      "hit": false,
      "t": 205440,
      "d": 480,
      "v": 92
    },
    {
      "midi": 41,
      "hit": false,
      "t": 205440,
      "d": 480,
      "v": 71
    },
    {
      "midi": 69,
      "hit": false,
      "t": 205920,
      "d": 480,
      "v": 80
    },
    {
      "midi": 48,
      "hit": false,
      "t": 205920,
      "d": 480,
      "v": 80
    },
    {
      "midi": 69,
      "hit": false,
      "t": 206400,
      "d": 480,
      "v": 76
    },
    {
      "midi": 53,
      "hit": false,
      "t": 206400,
      "d": 480,
      "v": 68
    },
    {
      "midi": 65,
      "hit": false,
      "t": 206880,
      "d": 240,
      "v": 71
    },
    {
      "midi": 69,
      "hit": false,
      "t": 206880,
      "d": 240,
      "v": 72
    },
    {
      "midi": 48,
      "hit": false,
      "t": 206880,
      "d": 480,
      "v": 74
    },
    {
      "midi": 65,
      "hit": false,
      "t": 207120,
      "d": 720,
      "v": 95
    },
    {
      "midi": 69,
      "hit": false,
      "t": 207120,
      "d": 720,
      "v": 92
    },
    {
      "midi": 41,
      "hit": false,
      "t": 207360,
      "d": 480,
      "v": 72
    },
    {
      "midi": 65,
      "hit": false,
      "t": 207840,
      "d": 480,
      "v": 84
    },
    {
      "midi": 69,
      "hit": false,
      "t": 207840,
      "d": 480,
      "v": 87
    },
    {
      "midi": 48,
      "hit": false,
      "t": 207840,
      "d": 480,
      "v": 87
    },
    {
      "midi": 65,
      "hit": false,
      "t": 208320,
      "d": 480,
      "v": 80
    },
    {
      "midi": 69,
      "hit": false,
      "t": 208320,
      "d": 480,
      "v": 80
    },
    {
      "midi": 53,
      "hit": false,
      "t": 208320,
      "d": 480,
      "v": 67
    },
    {
      "midi": 64,
      "hit": false,
      "t": 208800,
      "d": 240,
      "v": 76
    },
    {
      "midi": 67,
      "hit": false,
      "t": 208800,
      "d": 240,
      "v": 84
    },
    {
      "midi": 48,
      "hit": false,
      "t": 208800,
      "d": 480,
      "v": 74
    },
    {
      "midi": 64,
      "hit": false,
      "t": 209040,
      "d": 720,
      "v": 87
    },
    {
      "midi": 67,
      "hit": false,
      "t": 209040,
      "d": 720,
      "v": 101
    },
    {
      "midi": 48,
      "hit": false,
      "t": 209280,
      "d": 720,
      "v": 78
    },
    {
      "midi": 60,
      "hit": false,
      "t": 209760,
      "d": 480,
      "v": 95
    },
    {
      "midi": 64,
      "hit": false,
      "t": 209760,
      "d": 480,
      "v": 97
    },
    {
      "midi": 55,
      "hit": false,
      "t": 210000,
      "d": 240,
      "v": 84
    },
    {
      "midi": 59,
      "hit": false,
      "t": 210240,
      "d": 480,
      "v": 101
    },
    {
      "midi": 62,
      "hit": false,
      "t": 210240,
      "d": 480,
      "v": 92
    },
    {
      "midi": 55,
      "hit": false,
      "t": 210240,
      "d": 960,
      "v": 80
    },
    {
      "midi": 57,
      "hit": false,
      "t": 210720,
      "d": 480,
      "v": 87
    },
    {
      "midi": 60,
      "hit": false,
      "t": 210720,
      "d": 480,
      "v": 80
    },
    {
      "midi": 59,
      "hit": false,
      "t": 211200,
      "d": 480,
      "v": 89
    },
    {
      "midi": 62,
      "hit": false,
      "t": 211200,
      "d": 480,
      "v": 92
    },
    {
      "midi": 43,
      "hit": false,
      "t": 211200,
      "d": 720,
      "v": 89
    },
    {
      "midi": 59,
      "hit": false,
      "t": 211680,
      "d": 960,
      "v": 89
    },
    {
      "midi": 62,
      "hit": false,
      "t": 211680,
      "d": 960,
      "v": 92
    },
    {
      "midi": 50,
      "hit": false,
      "t": 211920,
      "d": 240,
      "v": 80
    },
    {
      "midi": 43,
      "hit": false,
      "t": 212160,
      "d": 960,
      "v": 69
    },
    {
      "midi": 59,
      "hit": false,
      "t": 212640,
      "d": 480,
      "v": 78
    },
    {
      "midi": 62,
      "hit": false,
      "t": 212640,
      "d": 480,
      "v": 82
    },
    {
      "midi": 65,
      "hit": false,
      "t": 213120,
      "d": 480,
      "v": 92
    },
    {
      "midi": 41,
      "hit": false,
      "t": 213120,
      "d": 720,
      "v": 84
    },
    {
      "midi": 57,
      "hit": false,
      "t": 213600,
      "d": 960,
      "v": 76
    },
    {
      "midi": 60,
      "hit": false,
      "t": 213600,
      "d": 960,
      "v": 78
    },
    {
      "midi": 48,
      "hit": false,
      "t": 213840,
      "d": 240,
      "v": 89
    },
    {
      "midi": 41,
      "hit": false,
      "t": 214080,
      "d": 960,
      "v": 76
    },
    {
      "midi": 57,
      "hit": false,
      "t": 214560,
      "d": 480,
      "v": 71
    },
    {
      "midi": 60,
      "hit": false,
      "t": 214560,
      "d": 480,
      "v": 74
    },
    {
      "midi": 64,
      "hit": false,
      "t": 215040,
      "d": 480,
      "v": 76
    },
    {
      "midi": 48,
      "hit": false,
      "t": 215040,
      "d": 720,
      "v": 84
    },
    {
      "midi": 60,
      "hit": false,
      "t": 215520,
      "d": 960,
      "v": 69
    },
    {
      "midi": 55,
      "hit": false,
      "t": 215760,
      "d": 240,
      "v": 67
    },
    {
      "midi": 43,
      "hit": false,
      "t": 216000,
      "d": 960,
      "v": 55
    },
    {
      "midi": 60,
      "hit": false,
      "t": 216480,
      "d": 960,
      "v": 80
    },
    {
      "midi": 48,
      "hit": false,
      "t": 216960,
      "d": 720,
      "v": 89
    },
    {
      "midi": 60,
      "hit": false,
      "t": 217440,
      "d": 480,
      "v": 78
    },
    {
      "midi": 64,
      "hit": false,
      "t": 217440,
      "d": 480,
      "v": 87
    },
    {
      "midi": 55,
      "hit": false,
      "t": 217680,
      "d": 240,
      "v": 80
    },
    {
      "midi": 64,
      "hit": false,
      "t": 217920,
      "d": 720,
      "v": 61
    },
    {
      "midi": 72,
      "hit": false,
      "t": 217920,
      "d": 720,
      "v": 71
    },
    {
      "midi": 60,
      "hit": false,
      "t": 217920,
      "d": 480,
      "v": 53
    },
    {
      "midi": 55,
      "hit": false,
      "t": 218400,
      "d": 480,
      "v": 71
    },
    {
      "midi": 71,
      "hit": false,
      "t": 218640,
      "d": 240,
      "v": 78
    },
    {
      "midi": 72,
      "hit": false,
      "t": 218880,
      "d": 480,
      "v": 71
    },
    {
      "midi": 45,
      "hit": false,
      "t": 218880,
      "d": 720,
      "v": 80
    },
    {
      "midi": 60,
      "hit": false,
      "t": 219360,
      "d": 960,
      "v": 57
    },
    {
      "midi": 64,
      "hit": false,
      "t": 219360,
      "d": 960,
      "v": 72
    },
    {
      "midi": 69,
      "hit": false,
      "t": 219360,
      "d": 960,
      "v": 87
    },
    {
      "midi": 52,
      "hit": false,
      "t": 219600,
      "d": 240,
      "v": 78
    },
    {
      "midi": 45,
      "hit": false,
      "t": 219840,
      "d": 720,
      "v": 78
    },
    {
      "midi": 60,
      "hit": false,
      "t": 220320,
      "d": 960,
      "v": 68
    },
    {
      "midi": 64,
      "hit": false,
      "t": 220320,
      "d": 960,
      "v": 87
    },
    {
      "midi": 69,
      "hit": false,
      "t": 220320,
      "d": 960,
      "v": 84
    },
    {
      "midi": 52,
      "hit": false,
      "t": 220560,
      "d": 240,
      "v": 71
    },
    {
      "midi": 45,
      "hit": false,
      "t": 220800,
      "d": 720,
      "v": 76
    },
    {
      "midi": 60,
      "hit": false,
      "t": 221280,
      "d": 480,
      "v": 61
    },
    {
      "midi": 64,
      "hit": false,
      "t": 221280,
      "d": 480,
      "v": 71
    },
    {
      "midi": 69,
      "hit": false,
      "t": 221280,
      "d": 480,
      "v": 71
    },
    {
      "midi": 52,
      "hit": false,
      "t": 221520,
      "d": 240,
      "v": 76
    },
    {
      "midi": 60,
      "hit": false,
      "t": 221760,
      "d": 720,
      "v": 61
    },
    {
      "midi": 64,
      "hit": false,
      "t": 221760,
      "d": 720,
      "v": 84
    },
    {
      "midi": 72,
      "hit": false,
      "t": 221760,
      "d": 720,
      "v": 61
    },
    {
      "midi": 45,
      "hit": false,
      "t": 221760,
      "d": 960,
      "v": 67
    },
    {
      "midi": 71,
      "hit": false,
      "t": 222480,
      "d": 240,
      "v": 62
    },
    {
      "midi": 62,
      "hit": false,
      "t": 222720,
      "d": 480,
      "v": 78
    },
    {
      "midi": 67,
      "hit": false,
      "t": 222720,
      "d": 480,
      "v": 76
    },
    {
      "midi": 72,
      "hit": false,
      "t": 222720,
      "d": 480,
      "v": 89
    },
    {
      "midi": 43,
      "hit": false,
      "t": 222720,
      "d": 720,
      "v": 82
    },
    {
      "midi": 71,
      "hit": false,
      "t": 223200,
      "d": 480,
      "v": 71
    },
    {
      "midi": 55,
      "hit": false,
      "t": 223440,
      "d": 240,
      "v": 84
    },
    {
      "midi": 71,
      "hit": false,
      "t": 223680,
      "d": 240,
      "v": 80
    },
    {
      "midi": 43,
      "hit": false,
      "t": 223680,
      "d": 480,
      "v": 87
    },
    {
      "midi": 69,
      "hit": false,
      "t": 223920,
      "d": 720,
      "v": 82
    },
    {
      "midi": 50,
      "hit": false,
      "t": 224160,
      "d": 480,
      "v": 95
    },
    {
      "midi": 67,
      "hit": false,
      "t": 224640,
      "d": 480,
      "v": 92
    },
    {
      "midi": 43,
      "hit": false,
      "t": 224640,
      "d": 720,
      "v": 64
    },
    {
      "midi": 59,
      "hit": false,
      "t": 225120,
      "d": 480,
      "v": 65
    },
    {
      "midi": 62,
      "hit": false,
      "t": 225120,
      "d": 480,
      "v": 76
    },
    {
      "midi": 50,
      "hit": false,
      "t": 225360,
      "d": 240,
      "v": 78
    },
    {
      "midi": 72,
      "hit": false,
      "t": 225600,
      "d": 480,
      "v": 89
    },
    {
      "midi": 43,
      "hit": false,
      "t": 225600,
      "d": 960,
      "v": 71
    },
    {
      "midi": 62,
      "hit": false,
      "t": 226080,
      "d": 240,
      "v": 65
    },
    {
      "midi": 67,
      "hit": false,
      "t": 226080,
      "d": 240,
      "v": 74
    },
    {
      "midi": 71,
      "hit": false,
      "t": 226320,
      "d": 240,
      "v": 82
    },
    {
      "midi": 72,
      "hit": false,
      "t": 226560,
      "d": 480,
      "v": 78
    },
    {
      "midi": 45,
      "hit": false,
      "t": 226560,
      "d": 720,
      "v": 78
    },
    {
      "midi": 60,
      "hit": false,
      "t": 227040,
      "d": 960,
      "v": 66
    },
    {
      "midi": 64,
      "hit": false,
      "t": 227040,
      "d": 960,
      "v": 82
    },
    {
      "midi": 69,
      "hit": false,
      "t": 227040,
      "d": 960,
      "v": 82
    },
    {
      "midi": 52,
      "hit": false,
      "t": 227280,
      "d": 240,
      "v": 74
    },
    {
      "midi": 45,
      "hit": false,
      "t": 227520,
      "d": 960,
      "v": 89
    },
    {
      "midi": 60,
      "hit": false,
      "t": 228000,
      "d": 960,
      "v": 60
    },
    {
      "midi": 64,
      "hit": false,
      "t": 228000,
      "d": 960,
      "v": 80
    },
    {
      "midi": 69,
      "hit": false,
      "t": 228000,
      "d": 960,
      "v": 89
    },
    {
      "midi": 45,
      "hit": false,
      "t": 228480,
      "d": 720,
      "v": 76
    },
    {
      "midi": 60,
      "hit": false,
      "t": 228960,
      "d": 480,
      "v": 78
    },
    {
      "midi": 64,
      "hit": false,
      "t": 228960,
      "d": 480,
      "v": 82
    },
    {
      "midi": 69,
      "hit": false,
      "t": 228960,
      "d": 480,
      "v": 82
    },
    {
      "midi": 52,
      "hit": false,
      "t": 229200,
      "d": 240,
      "v": 89
    },
    {
      "midi": 65,
      "hit": false,
      "t": 229440,
      "d": 720,
      "v": 82
    },
    {
      "midi": 74,
      "hit": false,
      "t": 229440,
      "d": 720,
      "v": 80
    },
    {
      "midi": 55,
      "hit": false,
      "t": 229440,
      "d": 480,
      "v": 74
    },
    {
      "midi": 43,
      "hit": false,
      "t": 229920,
      "d": 480,
      "v": 89
    },
    {
      "midi": 67,
      "hit": false,
      "t": 230160,
      "d": 240,
      "v": 92
    },
    {
      "midi": 76,
      "hit": false,
      "t": 230160,
      "d": 240,
      "v": 104
    },
    {
      "midi": 69,
      "hit": false,
      "t": 230400,
      "d": 480,
      "v": 76
    },
    {
      "midi": 77,
      "hit": false,
      "t": 230400,
      "d": 480,
      "v": 89
    },
    {
      "midi": 43,
      "hit": false,
      "t": 230400,
      "d": 720,
      "v": 78
    },
    {
      "midi": 67,
      "hit": false,
      "t": 230880,
      "d": 480,
      "v": 82
    },
    {
      "midi": 76,
      "hit": false,
      "t": 230880,
      "d": 480,
      "v": 92
    },
    {
      "midi": 55,
      "hit": false,
      "t": 231120,
      "d": 240,
      "v": 67
    },
    {
      "midi": 67,
      "hit": false,
      "t": 231360,
      "d": 240,
      "v": 84
    },
    {
      "midi": 76,
      "hit": false,
      "t": 231360,
      "d": 240,
      "v": 92
    },
    {
      "midi": 43,
      "hit": false,
      "t": 231360,
      "d": 960,
      "v": 82
    },
    {
      "midi": 65,
      "hit": false,
      "t": 231600,
      "d": 240,
      "v": 64
    },
    {
      "midi": 74,
      "hit": false,
      "t": 231600,
      "d": 240,
      "v": 65
    },
    {
      "midi": 64,
      "hit": false,
      "t": 231840,
      "d": 240,
      "v": 67
    },
    {
      "midi": 72,
      "hit": false,
      "t": 231840,
      "d": 240,
      "v": 64
    },
    {
      "midi": 65,
      "hit": false,
      "t": 232080,
      "d": 720,
      "v": 82
    },
    {
      "midi": 74,
      "hit": false,
      "t": 232080,
      "d": 720,
      "v": 95
    },
    {
      "midi": 41,
      "hit": false,
      "t": 232320,
      "d": 720,
      "v": 84
    },
    {
      "midi": 69,
      "hit": false,
      "t": 232800,
      "d": 240,
      "v": 72
    },
    {
      "midi": 72,
      "hit": false,
      "t": 232800,
      "d": 240,
      "v": 89
    },
    {
      "midi": 69,
      "hit": false,
      "t": 233040,
      "d": 240,
      "v": 95
    },
    {
      "midi": 72,
      "hit": false,
      "t": 233040,
      "d": 240,
      "v": 89
    },
    {
      "midi": 48,
      "hit": false,
      "t": 233040,
      "d": 240,
      "v": 92
    },
    {
      "midi": 69,
      "hit": false,
      "t": 233280,
      "d": 240,
      "v": 101
    },
    {
      "midi": 72,
      "hit": false,
      "t": 233280,
      "d": 240,
      "v": 108
    },
    {
      "midi": 41,
      "hit": false,
      "t": 233280,
      "d": 960,
      "v": 72
    },
    {
      "midi": 67,
      "hit": false,
      "t": 233520,
      "d": 720,
      "v": 95
    },
    {
      "midi": 71,
      "hit": false,
      "t": 233520,
      "d": 720,
      "v": 101
    },
    {
      "midi": 72,
      "hit": false,
      "t": 234240,
      "d": 480,
      "v": 59
    },
    {
      "midi": 48,
      "hit": false,
      "t": 234240,
      "d": 720,
      "v": 72
    },
    {
      "midi": 64,
      "hit": false,
      "t": 234720,
      "d": 960,
      "v": 78
    },
    {
      "midi": 67,
      "hit": false,
      "t": 234720,
      "d": 960,
      "v": 71
    },
    {
      "midi": 55,
      "hit": false,
      "t": 234960,
      "d": 240,
      "v": 78
    },
    {
      "midi": 48,
      "hit": false,
      "t": 235200,
      "d": 960,
      "v": 80
    },
    {
      "midi": 64,
      "hit": false,
      "t": 235680,
      "d": 960,
      "v": 65
    },
    {
      "midi": 67,
      "hit": false,
      "t": 235680,
      "d": 960,
      "v": 76
    },
    {
      "midi": 48,
      "hit": false,
      "t": 236160,
      "d": 720,
      "v": 76
    },
    {
      "midi": 64,
      "hit": false,
      "t": 236640,
      "d": 480,
      "v": 74
    },
    {
      "midi": 67,
      "hit": false,
      "t": 236640,
      "d": 480,
      "v": 82
    },
    {
      "midi": 55,
      "hit": false,
      "t": 236880,
      "d": 240,
      "v": 80
    },
    {
      "midi": 72,
      "hit": false,
      "t": 237120,
      "d": 480,
      "v": 84
    },
    {
      "midi": 48,
      "hit": false,
      "t": 237120,
      "d": 960,
      "v": 80
    },
    {
      "midi": 64,
      "hit": false,
      "t": 237600,
      "d": 240,
      "v": 72
    },
    {
      "midi": 67,
      "hit": false,
      "t": 237600,
      "d": 240,
      "v": 78
    },
    {
      "midi": 71,
      "hit": false,
      "t": 237840,
      "d": 240,
      "v": 82
    }
  ]
}