{
  "jsonPath": "Rock/Modern Rock/Muse/feeling-good.json",
  "path": "Rock\\Modern Rock\\Muse\\Feeling Good.mid",
  "name": "Feeling Good",
  "difficulty": "Advanced",
  "bpm": 102.0000510000255,
  "notes": [
    {
      "midi": 67,
      "hit": false,
      "t": 0,
      "d": 294.1175,
      "v": 111
    },
    {
      "midi": 70,
      "hit": false,
      "t": 0,
      "d": 294.1175,
      "v": 111
    },
    {
      "midi": 67,
      "hit": false,
      "t": 294.1175,
      "d": 294.1175,
      "v": 95
    },
    {
      "midi": 70,
      "hit": false,
      "t": 294.1175,
      "d": 294.1175,
      "v": 95
    },
    {
      "midi": 67,
      "hit": false,
      "t": 588.235,
      "d": 294.11749999999995,
      "v": 95
    },
    {
      "midi": 70,
      "hit": false,
      "t": 588.235,
      "d": 294.11749999999995,
      "v": 95
    },
    {
      "midi": 67,
      "hit": false,
      "t": 882.3525,
      "d": 294.11750000000006,
      "v": 111
    },
    {
      "midi": 70,
      "hit": false,
      "t": 882.3525,
      "d": 294.11750000000006,
      "v": 111
    },
    {
      "midi": 67,
      "hit": false,
      "t": 1176.47,
      "d": 294.11750000000006,
      "v": 95
    },
    {
      "midi": 70,
      "hit": false,
      "t": 1176.47,
      "d": 294.11750000000006,
      "v": 95
    },
    {
      "midi": 67,
      "hit": false,
      "t": 1470.5875,
      "d": 294.11750000000006,
      "v": 95
    },
    {
      "midi": 70,
      "hit": false,
      "t": 1470.5875,
      "d": 294.11750000000006,
      "v": 95
    },
    {
      "midi": 67,
      "hit": false,
      "t": 1764.7050000000002,
      "d": 294.11750000000006,
      "v": 111
    },
    {
      "midi": 70,
      "hit": false,
      "t": 1764.7050000000002,
      "d": 294.11750000000006,
      "v": 111
    },
    {
      "midi": 67,
      "hit": false,
      "t": 2058.8225,
      "d": 294.11749999999984,
      "v": 95
    },
    {
      "midi": 70,
      "hit": false,
      "t": 2058.8225,
      "d": 294.11749999999984,
      "v": 95
    },
    {
      "midi": 67,
      "hit": false,
      "t": 2352.94,
      "d": 294.11749999999984,
      "v": 95
    },
    {
      "midi": 70,
      "hit": false,
      "t": 2352.94,
      "d": 294.11749999999984,
      "v": 95
    },
    {
      "midi": 67,
      "hit": false,
      "t": 2647.0575,
      "d": 294.11749999999984,
      "v": 111
    },
    {
      "midi": 70,
      "hit": false,
      "t": 2647.0575,
      "d": 294.11749999999984,
      "v": 111
    },
    {
      "midi": 67,
      "hit": false,
      "t": 2941.1749999999997,
      "d": 294.11749999999984,
      "v": 95
    },
    {
      "midi": 70,
      "hit": false,
      "t": 2941.1749999999997,
      "d": 294.11749999999984,
      "v": 95
    },
    {
      "midi": 67,
      "hit": false,
      "t": 3235.2924999999996,
      "d": 294.11749999999984,
      "v": 95
    },
    {
      "midi": 70,
      "hit": false,
      "t": 3235.2924999999996,
      "d": 294.11749999999984,
      "v": 95
    },
    {
      "midi": 67,
      "hit": false,
      "t": 3529.4099999999994,
      "d": 294.11749999999984,
      "v": 111
    },
    {
      "midi": 70,
      "hit": false,
      "t": 3529.4099999999994,
      "d": 294.11749999999984,
      "v": 111
    },
    {
      "midi": 67,
      "hit": false,
      "t": 3823.5274999999992,
      "d": 294.1175000000003,
      "v": 95
    },
    {
      "midi": 70,
      "hit": false,
      "t": 3823.5274999999992,
      "d": 294.1175000000003,
      "v": 95
    },
    {
      "midi": 67,
      "hit": false,
      "t": 4117.6449999999995,
      "d": 294.1175000000003,
      "v": 95
    },
    {
      "midi": 70,
      "hit": false,
      "t": 4117.6449999999995,
      "d": 294.1175000000003,
      "v": 95
    },
    {
      "midi": 67,
      "hit": false,
      "t": 4411.7625,
      "d": 294.1175000000003,
      "v": 111
    },
    {
      "midi": 70,
      "hit": false,
      "t": 4411.7625,
      "d": 294.1175000000003,
      "v": 111
    },
    {
      "midi": 67,
      "hit": false,
      "t": 4705.88,
      "d": 294.1175000000003,
      "v": 95
    },
    {
      "midi": 70,
      "hit": false,
      "t": 4705.88,
      "d": 294.1175000000003,
      "v": 95
    },
    {
      "midi": 67,
      "hit": false,
      "t": 4999.9975,
      "d": 294.1175000000003,
      "v": 95
    },
    {
      "midi": 70,
      "hit": false,
      "t": 4999.9975,
      "d": 294.1175000000003,
      "v": 95
    },
    {
      "midi": 67,
      "hit": false,
      "t": 5294.115000000001,
      "d": 294.1175000000003,
      "v": 111
    },
    {
      "midi": 70,
      "hit": false,
      "t": 5294.115000000001,
      "d": 294.1175000000003,
      "v": 111
    },
    {
      "midi": 67,
      "hit": false,
      "t": 5588.232500000001,
      "d": 294.1175000000003,
      "v": 95
    },
    {
      "midi": 70,
      "hit": false,
      "t": 5588.232500000001,
      "d": 294.1175000000003,
      "v": 95
    },
    {
      "midi": 67,
      "hit": false,
      "t": 5882.350000000001,
      "d": 294.1175000000003,
      "v": 95
    },
    {
      "midi": 70,
      "hit": false,
      "t": 5882.350000000001,
      "d": 294.1175000000003,
      "v": 95
    },
    {
      "midi": 67,
      "hit": false,
      "t": 6176.467500000002,
      "d": 294.1175000000003,
      "v": 111
    },
    {
      "midi": 70,
      "hit": false,
      "t": 6176.467500000002,
      "d": 294.1175000000003,
      "v": 111
    },
    {
      "midi": 67,
      "hit": false,
      "t": 6470.585000000002,
      "d": 294.1175000000003,
      "v": 95
    },
    {
      "midi": 70,
      "hit": false,
      "t": 6470.585000000002,
      "d": 294.1175000000003,
      "v": 95
    },
    {
      "midi": 67,
      "hit": false,
      "t": 6764.702500000002,
      "d": 294.1175000000003,
      "v": 95
    },
    {
      "midi": 70,
      "hit": false,
      "t": 6764.702500000002,
      "d": 294.1175000000003,
      "v": 95
    },
    {
      "midi": 55,
      "hit": false,
      "t": 7058.820000000002,
      "d": 294.1175000000003,
      "v": 127
    },
    {
      "midi": 67,
      "hit": false,
      "t": 7058.820000000002,
      "d": 294.1175000000003,
      "v": 111
    },
    {
      "midi": 70,
      "hit": false,
      "t": 7058.820000000002,
      "d": 294.1175000000003,
      "v": 111
    },
    {
      "midi": 67,
      "hit": false,
      "t": 7352.937500000003,
      "d": 294.1175000000003,
      "v": 95
    },
    {
      "midi": 70,
      "hit": false,
      "t": 7352.937500000003,
      "d": 294.1175000000003,
      "v": 95
    },
    {
      "midi": 67,
      "hit": false,
      "t": 7647.055000000003,
      "d": 294.1175000000003,
      "v": 95
    },
    {
      "midi": 70,
      "hit": false,
      "t": 7647.055000000003,
      "d": 294.1175000000003,
      "v": 95
    },
    {
      "midi": 67,
      "hit": false,
      "t": 7941.172500000003,
      "d": 294.1174999999994,
      "v": 111
    },
    {
      "midi": 70,
      "hit": false,
      "t": 7941.172500000003,
      "d": 294.1174999999994,
      "v": 111
    },
    {
      "midi": 67,
      "hit": false,
      "t": 8235.290000000003,
      "d": 294.1175000000003,
      "v": 95
    },
    {
      "midi": 70,
      "hit": false,
      "t": 8235.290000000003,
      "d": 294.1175000000003,
      "v": 95
    },
    {
      "midi": 55,
      "hit": false,
      "t": 8529.407500000003,
      "d": 294.1175000000003,
      "v": 127
    },
    {
      "midi": 67,
      "hit": false,
      "t": 8529.407500000003,
      "d": 294.1175000000003,
      "v": 95
    },
    {
      "midi": 70,
      "hit": false,
      "t": 8529.407500000003,
      "d": 294.1175000000003,
      "v": 95
    },
    {
      "midi": 53,
      "hit": false,
      "t": 8823.525000000003,
      "d": 294.1175000000003,
      "v": 127
    },
    {
      "midi": 67,
      "hit": false,
      "t": 8823.525000000003,
      "d": 294.1175000000003,
      "v": 111
    },
    {
      "midi": 70,
      "hit": false,
      "t": 8823.525000000003,
      "d": 294.1175000000003,
      "v": 111
    },
    {
      "midi": 67,
      "hit": false,
      "t": 9117.642500000004,
      "d": 294.1175000000003,
      "v": 95
    },
    {
      "midi": 70,
      "hit": false,
      "t": 9117.642500000004,
      "d": 294.1175000000003,
      "v": 95
    },
    {
      "midi": 67,
      "hit": false,
      "t": 9411.760000000004,
      "d": 294.1175000000003,
      "v": 95
    },
    {
      "midi": 70,
      "hit": false,
      "t": 9411.760000000004,
      "d": 294.1175000000003,
      "v": 95
    },
    {
      "midi": 67,
      "hit": false,
      "t": 9705.877500000004,
      "d": 294.1175000000003,
      "v": 111
    },
    {
      "midi": 70,
      "hit": false,
      "t": 9705.877500000004,
      "d": 294.1175000000003,
      "v": 111
    },
    {
      "midi": 67,
      "hit": false,
      "t": 9999.995000000004,
      "d": 294.1175000000003,
      "v": 95
    },
    {
      "midi": 70,
      "hit": false,
      "t": 9999.995000000004,
      "d": 294.1175000000003,
      "v": 95
    },
    {
      "midi": 53,
      "hit": false,
      "t": 10294.112500000005,
      "d": 294.1175000000003,
      "v": 127
    },
    {
      "midi": 67,
      "hit": false,
      "t": 10294.112500000005,
      "d": 294.1175000000003,
      "v": 95
    },
    {
      "midi": 70,
      "hit": false,
      "t": 10294.112500000005,
      "d": 294.1175000000003,
      "v": 95
    },
    {
      "midi": 51,
      "hit": false,
      "t": 10588.230000000005,
      "d": 294.1175000000003,
      "v": 127
    },
    {
      "midi": 67,
      "hit": false,
      "t": 10588.230000000005,
      "d": 294.1175000000003,
      "v": 111
    },
    {
      "midi": 70,
      "hit": false,
      "t": 10588.230000000005,
      "d": 294.1175000000003,
      "v": 111
    },
    {
      "midi": 67,
      "hit": false,
      "t": 10882.347500000005,
      "d": 294.1175000000003,
      "v": 95
    },
    {
      "midi": 70,
      "hit": false,
      "t": 10882.347500000005,
      "d": 294.1175000000003,
      "v": 95
    },
    {
      "midi": 67,
      "hit": false,
      "t": 11176.465000000006,
      "d": 294.1175000000003,
      "v": 95
    },
    {
      "midi": 70,
      "hit": false,
      "t": 11176.465000000006,
      "d": 294.1175000000003,
      "v": 95
    },
    {
      "midi": 67,
      "hit": false,
      "t": 11470.582500000006,
      "d": 294.1175000000003,
      "v": 111
    },
    {
      "midi": 70,
      "hit": false,
      "t": 11470.582500000006,
      "d": 294.1175000000003,
      "v": 111
    },
    {
      "midi": 67,
      "hit": false,
      "t": 11764.700000000006,
      "d": 294.1175000000003,
      "v": 95
    },
    {
      "midi": 70,
      "hit": false,
      "t": 11764.700000000006,
      "d": 294.1175000000003,
      "v": 95
    },
    {
      "midi": 51,
      "hit": false,
      "t": 12058.817500000006,
      "d": 294.1175000000003,
      "v": 127
    },
    {
      "midi": 67,
      "hit": false,
      "t": 12058.817500000006,
      "d": 294.1175000000003,
      "v": 95
    },
    {
      "midi": 70,
      "hit": false,
      "t": 12058.817500000006,
      "d": 294.1175000000003,
      "v": 95
    },
    {
      "midi": 50,
      "hit": false,
      "t": 12352.935000000007,
      "d": 294.1175000000003,
      "v": 127
    },
    {
      "midi": 67,
      "hit": false,
      "t": 12352.935000000007,
      "d": 294.1175000000003,
      "v": 111
    },
    {
      "midi": 70,
      "hit": false,
      "t": 12352.935000000007,
      "d": 294.1175000000003,
      "v": 111
    },
    {
      "midi": 67,
      "hit": false,
      "t": 12647.052500000007,
      "d": 294.1175000000003,
      "v": 95
    },
    {
      "midi": 70,
      "hit": false,
      "t": 12647.052500000007,
      "d": 294.1175000000003,
      "v": 95
    },
    {
      "midi": 50,
      "hit": false,
      "t": 12941.170000000007,
      "d": 294.1175000000003,
      "v": 127
    },
    {
      "midi": 67,
      "hit": false,
      "t": 12941.170000000007,
      "d": 294.1175000000003,
      "v": 95
    },
    {
      "midi": 70,
      "hit": false,
      "t": 12941.170000000007,
      "d": 294.1175000000003,
      "v": 95
    },
    {
      "midi": 53,
      "hit": false,
      "t": 13235.287500000008,
      "d": 294.1175000000003,
      "v": 127
    },
    {
      "midi": 67,
      "hit": false,
      "t": 13235.287500000008,
      "d": 294.1175000000003,
      "v": 111
    },
    {
      "midi": 70,
      "hit": false,
      "t": 13235.287500000008,
      "d": 294.1175000000003,
      "v": 111
    },
    {
      "midi": 50,
      "hit": false,
      "t": 13529.405000000008,
      "d": 294.1175000000003,
      "v": 127
    },
    {
      "midi": 67,
      "hit": false,
      "t": 13529.405000000008,
      "d": 294.1175000000003,
      "v": 95
    },
    {
      "midi": 70,
      "hit": false,
      "t": 13529.405000000008,
      "d": 294.1175000000003,
      "v": 95
    },
    {
      "midi": 53,
      "hit": false,
      "t": 13823.522500000008,
      "d": 294.1175000000003,
      "v": 127
    },
    {
      "midi": 67,
      "hit": false,
      "t": 13823.522500000008,
      "d": 294.1175000000003,
      "v": 95
    },
    {
      "midi": 70,
      "hit": false,
      "t": 13823.522500000008,
      "d": 294.1175000000003,
      "v": 95
    },
    {
      "midi": 55,
      "hit": false,
      "t": 14117.640000000009,
      "d": 294.1175000000003,
      "v": 127
    },
    {
      "midi": 67,
      "hit": false,
      "t": 14117.640000000009,
      "d": 294.1175000000003,
      "v": 111
    },
    {
      "midi": 70,
      "hit": false,
      "t": 14117.640000000009,
      "d": 294.1175000000003,
      "v": 111
    },
    {
      "midi": 67,
      "hit": false,
      "t": 14411.757500000009,
      "d": 294.1175000000003,
      "v": 95
    },
    {
      "midi": 70,
      "hit": false,
      "t": 14411.757500000009,
      "d": 294.1175000000003,
      "v": 95
    },
    {
      "midi": 67,
      "hit": false,
      "t": 14705.87500000001,
      "d": 294.1175000000003,
      "v": 95
    },
    {
      "midi": 70,
      "hit": false,
      "t": 14705.87500000001,
      "d": 294.1175000000003,
      "v": 95
    },
    {
      "midi": 67,
      "hit": false,
      "t": 14999.99250000001,
      "d": 294.1175000000003,
      "v": 111
    },
    {
      "midi": 70,
      "hit": false,
      "t": 14999.99250000001,
      "d": 294.1175000000003,
      "v": 111
    },
    {
      "midi": 67,
      "hit": false,
      "t": 15294.11000000001,
      "d": 294.1175000000003,
      "v": 95
    },
    {
      "midi": 70,
      "hit": false,
      "t": 15294.11000000001,
      "d": 294.1175000000003,
      "v": 95
    },
    {
      "midi": 55,
      "hit": false,
      "t": 15588.22750000001,
      "d": 294.1175000000003,
      "v": 127
    },
    {
      "midi": 67,
      "hit": false,
      "t": 15588.22750000001,
      "d": 294.1175000000003,
      "v": 95
    },
    {
      "midi": 70,
      "hit": false,
      "t": 15588.22750000001,
      "d": 294.1175000000003,
      "v": 95
    },
    {
      "midi": 53,
      "hit": false,
      "t": 15882.34500000001,
      "d": 294.1175000000003,
      "v": 127
    },
    {
      "midi": 67,
      "hit": false,
      "t": 15882.34500000001,
      "d": 294.1175000000003,
      "v": 111
    },
    {
      "midi": 70,
      "hit": false,
      "t": 15882.34500000001,
      "d": 294.1175000000003,
      "v": 111
    },
    {
      "midi": 67,
      "hit": false,
      "t": 16176.46250000001,
      "d": 294.1174999999985,
      "v": 95
    },
    {
      "midi": 70,
      "hit": false,
      "t": 16176.46250000001,
      "d": 294.1174999999985,
      "v": 95
    },
    {
      "midi": 67,
      "hit": false,
      "t": 16470.58000000001,
      "d": 294.1175000000003,
      "v": 95
    },
    {
      "midi": 70,
      "hit": false,
      "t": 16470.58000000001,
      "d": 294.1175000000003,
      "v": 95
    },
    {
      "midi": 67,
      "hit": false,
      "t": 16764.69750000001,
      "d": 294.1175000000003,
      "v": 111
    },
    {
      "midi": 70,
      "hit": false,
      "t": 16764.69750000001,
      "d": 294.1175000000003,
      "v": 111
    },
    {
      "midi": 67,
      "hit": false,
      "t": 17058.81500000001,
      "d": 294.1175000000003,
      "v": 95
    },
    {
      "midi": 70,
      "hit": false,
      "t": 17058.81500000001,
      "d": 294.1175000000003,
      "v": 95
    },
    {
      "midi": 53,
      "hit": false,
      "t": 17352.93250000001,
      "d": 294.1175000000003,
      "v": 127
    },
    {
      "midi": 67,
      "hit": false,
      "t": 17352.93250000001,
      "d": 294.1175000000003,
      "v": 95
    },
    {
      "midi": 70,
      "hit": false,
      "t": 17352.93250000001,
      "d": 294.1175000000003,
      "v": 95
    },
    {
      "midi": 51,
      "hit": false,
      "t": 17647.05000000001,
      "d": 294.1175000000003,
      "v": 127
    },
    {
      "midi": 67,
      "hit": false,
      "t": 17647.05000000001,
      "d": 294.1175000000003,
      "v": 111
    },
    {
      "midi": 70,
      "hit": false,
      "t": 17647.05000000001,
      "d": 294.1175000000003,
      "v": 111
    },
    {
      "midi": 67,
      "hit": false,
      "t": 17941.16750000001,
      "d": 294.1175000000003,
      "v": 95
    },
    {
      "midi": 70,
      "hit": false,
      "t": 17941.16750000001,
      "d": 294.1175000000003,
      "v": 95
    },
    {
      "midi": 67,
      "hit": false,
      "t": 18235.28500000001,
      "d": 294.1175000000003,
      "v": 95
    },
    {
      "midi": 70,
      "hit": false,
      "t": 18235.28500000001,
      "d": 294.1175000000003,
      "v": 95
    },
    {
      "midi": 67,
      "hit": false,
      "t": 18529.40250000001,
      "d": 294.1175000000003,
      "v": 111
    },
    {
      "midi": 70,
      "hit": false,
      "t": 18529.40250000001,
      "d": 294.1175000000003,
      "v": 111
    },
    {
      "midi": 67,
      "hit": false,
      "t": 18823.52000000001,
      "d": 294.1175000000003,
      "v": 95
    },
    {
      "midi": 70,
      "hit": false,
      "t": 18823.52000000001,
      "d": 294.1175000000003,
      "v": 95
    },
    {
      "midi": 51,
      "hit": false,
      "t": 19117.63750000001,
      "d": 294.1175000000003,
      "v": 127
    },
    {
      "midi": 67,
      "hit": false,
      "t": 19117.63750000001,
      "d": 294.1175000000003,
      "v": 95
    },
    {
      "midi": 70,
      "hit": false,
      "t": 19117.63750000001,
      "d": 294.1175000000003,
      "v": 95
    },
    {
      "midi": 50,
      "hit": false,
      "t": 19411.755000000012,
      "d": 294.1175000000003,
      "v": 127
    },
    {
      "midi": 67,
      "hit": false,
      "t": 19411.755000000012,
      "d": 294.1175000000003,
      "v": 111
    },
    {
      "midi": 70,
      "hit": false,
      "t": 19411.755000000012,
      "d": 294.1175000000003,
      "v": 111
    },
    {
      "midi": 67,
      "hit": false,
      "t": 19705.872500000012,
      "d": 294.1175000000003,
      "v": 95
    },
    {
      "midi": 70,
      "hit": false,
      "t": 19705.872500000012,
      "d": 294.1175000000003,
      "v": 95
    },
    {
      "midi": 50,
      "hit": false,
      "t": 19999.990000000013,
      "d": 294.1175000000003,
      "v": 127
    },
    {
      "midi": 67,
      "hit": false,
      "t": 19999.990000000013,
      "d": 294.1175000000003,
      "v": 95
    },
    {
      "midi": 70,
      "hit": false,
      "t": 19999.990000000013,
      "d": 294.1175000000003,
      "v": 95
    },
    {
      "midi": 53,
      "hit": false,
      "t": 20294.107500000013,
      "d": 294.1175000000003,
      "v": 127
    },
    {
      "midi": 67,
      "hit": false,
      "t": 20294.107500000013,
      "d": 294.1175000000003,
      "v": 111
    },
    {
      "midi": 70,
      "hit": false,
      "t": 20294.107500000013,
      "d": 294.1175000000003,
      "v": 111
    },
    {
      "midi": 50,
      "hit": false,
      "t": 20588.225000000013,
      "d": 294.1175000000003,
      "v": 127
    },
    {
      "midi": 67,
      "hit": false,
      "t": 20588.225000000013,
      "d": 294.1175000000003,
      "v": 95
    },
    {
      "midi": 70,
      "hit": false,
      "t": 20588.225000000013,
      "d": 294.1175000000003,
      "v": 95
    },
    {
      "midi": 53,
      "hit": false,
      "t": 20882.342500000013,
      "d": 294.1175000000003,
      "v": 127
    },
    {
      "midi": 67,
      "hit": false,
      "t": 20882.342500000013,
      "d": 294.1175000000003,
      "v": 95
    },
    {
      "midi": 70,
      "hit": false,
      "t": 20882.342500000013,
      "d": 294.1175000000003,
      "v": 95
    },
    {
      "midi": 55,
      "hit": false,
      "t": 21176.460000000014,
      "d": 294.1175000000003,
      "v": 127
    },
    {
      "midi": 67,
      "hit": false,
      "t": 21176.460000000014,
      "d": 294.1175000000003,
      "v": 111
    },
    {
      "midi": 79,
      "hit": false,
      "t": 21176.460000000014,
      "d": 294.1175000000003,
      "v": 95
    },
    {
      "midi": 67,
      "hit": false,
      "t": 21470.577500000014,
      "d": 294.1175000000003,
      "v": 95
    },
    {
      "midi": 79,
      "hit": false,
      "t": 21470.577500000014,
      "d": 294.1175000000003,
      "v": 95
    },
    {
      "midi": 67,
      "hit": false,
      "t": 21764.695000000014,
      "d": 294.1175000000003,
      "v": 95
    },
    {
      "midi": 79,
      "hit": false,
      "t": 21764.695000000014,
      "d": 294.1175000000003,
      "v": 95
    },
    {
      "midi": 67,
      "hit": false,
      "t": 22058.812500000015,
      "d": 294.1175000000003,
      "v": 111
    },
    {
      "midi": 79,
      "hit": false,
      "t": 22058.812500000015,
      "d": 294.1175000000003,
      "v": 95
    },
    {
      "midi": 67,
      "hit": false,
      "t": 22352.930000000015,
      "d": 294.1175000000003,
      "v": 95
    },
    {
      "midi": 79,
      "hit": false,
      "t": 22352.930000000015,
      "d": 294.1175000000003,
      "v": 95
    },
    {
      "midi": 55,
      "hit": false,
      "t": 22647.047500000015,
      "d": 294.1175000000003,
      "v": 127
    },
    {
      "midi": 67,
      "hit": false,
      "t": 22647.047500000015,
      "d": 294.1175000000003,
      "v": 95
    },
    {
      "midi": 79,
      "hit": false,
      "t": 22647.047500000015,
      "d": 294.1175000000003,
      "v": 95
    },
    {
      "midi": 53,
      "hit": false,
      "t": 22941.165000000015,
      "d": 294.1175000000003,
      "v": 127
    },
    {
      "midi": 67,
      "hit": false,
      "t": 22941.165000000015,
      "d": 294.1175000000003,
      "v": 111
    },
    {
      "midi": 77,
      "hit": false,
      "t": 22941.165000000015,
      "d": 294.1175000000003,
      "v": 95
    },
    {
      "midi": 67,
      "hit": false,
      "t": 23235.282500000016,
      "d": 294.1175000000003,
      "v": 95
    },
    {
      "midi": 77,
      "hit": false,
      "t": 23235.282500000016,
      "d": 294.1175000000003,
      "v": 95
    },
    {
      "midi": 67,
      "hit": false,
      "t": 23529.400000000016,
      "d": 294.1175000000003,
      "v": 95
    },
    {
      "midi": 77,
      "hit": false,
      "t": 23529.400000000016,
      "d": 294.1175000000003,
      "v": 95
    },
    {
      "midi": 67,
      "hit": false,
      "t": 23823.517500000016,
      "d": 294.1175000000003,
      "v": 111
    },
    {
      "midi": 77,
      "hit": false,
      "t": 23823.517500000016,
      "d": 294.1175000000003,
      "v": 95
    },
    {
      "midi": 67,
      "hit": false,
      "t": 24117.635000000017,
      "d": 294.1175000000003,
      "v": 95
    },
    {
      "midi": 77,
      "hit": false,
      "t": 24117.635000000017,
      "d": 294.1175000000003,
      "v": 95
    },
    {
      "midi": 53,
      "hit": false,
      "t": 24411.752500000017,
      "d": 294.1175000000003,
      "v": 127
    },
    {
      "midi": 67,
      "hit": false,
      "t": 24411.752500000017,
      "d": 294.1175000000003,
      "v": 95
    },
    {
      "midi": 77,
      "hit": false,
      "t": 24411.752500000017,
      "d": 294.1175000000003,
      "v": 95
    },
    {
      "midi": 52,
      "hit": false,
      "t": 24705.870000000017,
      "d": 294.1175000000003,
      "v": 127
    },
    {
      "midi": 67,
      "hit": false,
      "t": 24705.870000000017,
      "d": 294.1175000000003,
      "v": 111
    },
    {
      "midi": 76,
      "hit": false,
      "t": 24705.870000000017,
      "d": 294.1175000000003,
      "v": 95
    },
    {
      "midi": 67,
      "hit": false,
      "t": 24999.987500000017,
      "d": 294.1175000000003,
      "v": 95
    },
    {
      "midi": 76,
      "hit": false,
      "t": 24999.987500000017,
      "d": 294.1175000000003,
      "v": 95
    },
    {
      "midi": 67,
      "hit": false,
      "t": 25294.105000000018,
      "d": 294.1175000000003,
      "v": 95
    },
    {
      "midi": 76,
      "hit": false,
      "t": 25294.105000000018,
      "d": 294.1175000000003,
      "v": 95
    },
    {
      "midi": 67,
      "hit": false,
      "t": 25588.222500000018,
      "d": 294.1175000000003,
      "v": 111
    },
    {
      "midi": 76,
      "hit": false,
      "t": 25588.222500000018,
      "d": 294.1175000000003,
      "v": 95
    },
    {
      "midi": 67,
      "hit": false,
      "t": 25882.34000000002,
      "d": 294.1175000000003,
      "v": 95
    },
    {
      "midi": 76,
      "hit": false,
      "t": 25882.34000000002,
      "d": 294.1175000000003,
      "v": 95
    },
    {
      "midi": 52,
      "hit": false,
      "t": 26176.45750000002,
      "d": 294.1175000000003,
      "v": 127
    },
    {
      "midi": 67,
      "hit": false,
      "t": 26176.45750000002,
      "d": 294.1175000000003,
      "v": 95
    },
    {
      "midi": 76,
      "hit": false,
      "t": 26176.45750000002,
      "d": 294.1175000000003,
      "v": 95
    },
    {
      "midi": 51,
      "hit": false,
      "t": 26470.57500000002,
      "d": 294.1175000000003,
      "v": 127
    },
    {
      "midi": 67,
      "hit": false,
      "t": 26470.57500000002,
      "d": 294.1175000000003,
      "v": 111
    },
    {
      "midi": 75,
      "hit": false,
      "t": 26470.57500000002,
      "d": 294.1175000000003,
      "v": 95
    },
    {
      "midi": 67,
      "hit": false,
      "t": 26764.69250000002,
      "d": 294.1175000000003,
      "v": 95
    },
    {
      "midi": 75,
      "hit": false,
      "t": 26764.69250000002,
      "d": 294.1175000000003,
      "v": 95
    },
    {
      "midi": 67,
      "hit": false,
      "t": 27058.81000000002,
      "d": 294.1175000000003,
      "v": 95
    },
    {
      "midi": 75,
      "hit": false,
      "t": 27058.81000000002,
      "d": 294.1175000000003,
      "v": 95
    },
    {
      "midi": 67,
      "hit": false,
      "t": 27352.92750000002,
      "d": 294.1175000000003,
      "v": 111
    },
    {
      "midi": 75,
      "hit": false,
      "t": 27352.92750000002,
      "d": 294.1175000000003,
      "v": 95
    },
    {
      "midi": 67,
      "hit": false,
      "t": 27647.04500000002,
      "d": 294.1175000000003,
      "v": 95
    },
    {
      "midi": 75,
      "hit": false,
      "t": 27647.04500000002,
      "d": 294.1175000000003,
      "v": 95
    },
    {
      "midi": 51,
      "hit": false,
      "t": 27941.16250000002,
      "d": 294.1175000000003,
      "v": 127
    },
    {
      "midi": 67,
      "hit": false,
      "t": 27941.16250000002,
      "d": 294.1175000000003,
      "v": 95
    },
    {
      "midi": 75,
      "hit": false,
      "t": 27941.16250000002,
      "d": 294.1175000000003,
      "v": 95
    },
    {
      "midi": 50,
      "hit": false,
      "t": 28235.28000000002,
      "d": 294.1175000000003,
      "v": 127
    },
    {
      "midi": 67,
      "hit": false,
      "t": 28235.28000000002,
      "d": 294.1175000000003,
      "v": 111
    },
    {
      "midi": 74,
      "hit": false,
      "t": 28235.28000000002,
      "d": 294.1175000000003,
      "v": 95
    },
    {
      "midi": 67,
      "hit": false,
      "t": 28529.39750000002,
      "d": 294.1175000000003,
      "v": 95
    },
    {
      "midi": 74,
      "hit": false,
      "t": 28529.39750000002,
      "d": 294.1175000000003,
      "v": 95
    },
    {
      "midi": 67,
      "hit": false,
      "t": 28823.51500000002,
      "d": 294.1175000000003,
      "v": 95
    },
    {
      "midi": 74,
      "hit": false,
      "t": 28823.51500000002,
      "d": 294.1175000000003,
      "v": 95
    },
    {
      "midi": 67,
      "hit": false,
      "t": 29117.63250000002,
      "d": 294.1175000000003,
      "v": 111
    },
    {
      "midi": 74,
      "hit": false,
      "t": 29117.63250000002,
      "d": 294.1175000000003,
      "v": 95
    },
    {
      "midi": 67,
      "hit": false,
      "t": 29411.750000000022,
      "d": 294.1175000000003,
      "v": 95
    },
    {
      "midi": 74,
      "hit": false,
      "t": 29411.750000000022,
      "d": 294.1175000000003,
      "v": 95
    },
    {
      "midi": 50,
      "hit": false,
      "t": 29705.867500000022,
      "d": 294.1175000000003,
      "v": 127
    },
    {
      "midi": 67,
      "hit": false,
      "t": 29705.867500000022,
      "d": 294.1175000000003,
      "v": 95
    },
    {
      "midi": 74,
      "hit": false,
      "t": 29705.867500000022,
      "d": 294.1175000000003,
      "v": 95
    },
    {
      "midi": 48,
      "hit": false,
      "t": 29999.985000000022,
      "d": 294.1175000000003,
      "v": 127
    },
    {
      "midi": 67,
      "hit": false,
      "t": 29999.985000000022,
      "d": 294.1175000000003,
      "v": 111
    },
    {
      "midi": 72,
      "hit": false,
      "t": 29999.985000000022,
      "d": 294.1175000000003,
      "v": 95
    },
    {
      "midi": 67,
      "hit": false,
      "t": 30294.102500000023,
      "d": 294.1175000000003,
      "v": 95
    },
    {
      "midi": 72,
      "hit": false,
      "t": 30294.102500000023,
      "d": 294.1175000000003,
      "v": 95
    },
    {
      "midi": 67,
      "hit": false,
      "t": 30588.220000000023,
      "d": 294.1175000000003,
      "v": 95
    },
    {
      "midi": 72,
      "hit": false,
      "t": 30588.220000000023,
      "d": 294.1175000000003,
      "v": 95
    },
    {
      "midi": 67,
      "hit": false,
      "t": 30882.337500000023,
      "d": 294.1175000000003,
      "v": 111
    },
    {
      "midi": 72,
      "hit": false,
      "t": 30882.337500000023,
      "d": 294.1175000000003,
      "v": 95
    },
    {
      "midi": 67,
      "hit": false,
      "t": 31176.455000000024,
      "d": 294.1175000000003,
      "v": 95
    },
    {
      "midi": 72,
      "hit": false,
      "t": 31176.455000000024,
      "d": 294.1175000000003,
      "v": 95
    },
    {
      "midi": 48,
      "hit": false,
      "t": 31470.572500000024,
      "d": 294.1175000000003,
      "v": 127
    },
    {
      "midi": 67,
      "hit": false,
      "t": 31470.572500000024,
      "d": 294.1175000000003,
      "v": 95
    },
    {
      "midi": 72,
      "hit": false,
      "t": 31470.572500000024,
      "d": 294.1175000000003,
      "v": 95
    },
    {
      "midi": 46,
      "hit": false,
      "t": 31764.690000000024,
      "d": 294.1175000000003,
      "v": 127
    },
    {
      "midi": 67,
      "hit": false,
      "t": 31764.690000000024,
      "d": 294.1175000000003,
      "v": 95
    },
    {
      "midi": 70,
      "hit": false,
      "t": 31764.690000000024,
      "d": 294.1175000000003,
      "v": 95
    },
    {
      "midi": 67,
      "hit": false,
      "t": 32058.807500000024,
      "d": 294.1175000000003,
      "v": 95
    },
    {
      "midi": 70,
      "hit": false,
      "t": 32058.807500000024,
      "d": 294.1175000000003,
      "v": 95
    },
    {
      "midi": 67,
      "hit": false,
      "t": 32352.925000000025,
      "d": 294.1175000000003,
      "v": 95
    },
    {
      "midi": 70,
      "hit": false,
      "t": 32352.925000000025,
      "d": 294.1175000000003,
      "v": 95
    },
    {
      "midi": 67,
      "hit": false,
      "t": 32647.042500000025,
      "d": 294.1175000000003,
      "v": 95
    },
    {
      "midi": 70,
      "hit": false,
      "t": 32647.042500000025,
      "d": 294.1175000000003,
      "v": 95
    },
    {
      "midi": 67,
      "hit": false,
      "t": 32941.160000000025,
      "d": 294.1175000000003,
      "v": 95
    },
    {
      "midi": 70,
      "hit": false,
      "t": 32941.160000000025,
      "d": 294.1175000000003,
      "v": 95
    },
    {
      "midi": 46,
      "hit": false,
      "t": 33235.277500000026,
      "d": 294.1175000000003,
      "v": 127
    },
    {
      "midi": 67,
      "hit": false,
      "t": 33235.277500000026,
      "d": 294.1175000000003,
      "v": 95
    },
    {
      "midi": 70,
      "hit": false,
      "t": 33235.277500000026,
      "d": 294.1175000000003,
      "v": 95
    },
    {
      "midi": 45,
      "hit": false,
      "t": 33529.395000000026,
      "d": 294.1175000000003,
      "v": 127
    },
    {
      "midi": 67,
      "hit": false,
      "t": 33529.395000000026,
      "d": 294.1175000000003,
      "v": 95
    },
    {
      "midi": 70,
      "hit": false,
      "t": 33529.395000000026,
      "d": 294.1175000000003,
      "v": 95
    },
    {
      "midi": 67,
      "hit": false,
      "t": 33823.512500000026,
      "d": 294.1175000000003,
      "v": 95
    },
    {
      "midi": 70,
      "hit": false,
      "t": 33823.512500000026,
      "d": 294.1175000000003,
      "v": 95
    },
    {
      "midi": 67,
      "hit": false,
      "t": 34117.63000000003,
      "d": 294.1175000000003,
      "v": 95
    },
    {
      "midi": 70,
      "hit": false,
      "t": 34117.63000000003,
      "d": 294.1175000000003,
      "v": 95
    },
    {
      "midi": 67,
      "hit": false,
      "t": 34411.74750000003,
      "d": 294.1175000000003,
      "v": 95
    },
    {
      "midi": 70,
      "hit": false,
      "t": 34411.74750000003,
      "d": 294.1175000000003,
      "v": 95
    },
    {
      "midi": 67,
      "hit": false,
      "t": 34705.86500000003,
      "d": 294.1175000000003,
      "v": 95
    },
    {
      "midi": 70,
      "hit": false,
      "t": 34705.86500000003,
      "d": 294.1175000000003,
      "v": 95
    },
    {
      "midi": 45,
      "hit": false,
      "t": 34999.98250000003,
      "d": 294.1175000000003,
      "v": 95
    },
    {
      "midi": 67,
      "hit": false,
      "t": 34999.98250000003,
      "d": 294.1175000000003,
      "v": 95
    },
    {
      "midi": 70,
      "hit": false,
      "t": 34999.98250000003,
      "d": 294.1175000000003,
      "v": 95
    },
    {
      "midi": 48,
      "hit": false,
      "t": 35294.10000000003,
      "d": 294.1175000000003,
      "v": 95
    },
    {
      "midi": 67,
      "hit": false,
      "t": 35294.10000000003,
      "d": 294.1175000000003,
      "v": 95
    },
    {
      "midi": 72,
      "hit": false,
      "t": 35294.10000000003,
      "d": 294.1175000000003,
      "v": 95
    },
    {
      "midi": 45,
      "hit": false,
      "t": 35588.21750000003,
      "d": 294.1175000000003,
      "v": 95
    },
    {
      "midi": 67,
      "hit": false,
      "t": 35588.21750000003,
      "d": 294.1175000000003,
      "v": 95
    },
    {
      "midi": 70,
      "hit": false,
      "t": 35588.21750000003,
      "d": 294.1175000000003,
      "v": 95
    },
    {
      "midi": 45,
      "hit": false,
      "t": 35882.33500000003,
      "d": 294.1175000000003,
      "v": 95
    },
    {
      "midi": 67,
      "hit": false,
      "t": 35882.33500000003,
      "d": 294.1175000000003,
      "v": 95
    },
    {
      "midi": 70,
      "hit": false,
      "t": 35882.33500000003,
      "d": 294.1175000000003,
      "v": 95
    },
    {
      "midi": 48,
      "hit": false,
      "t": 36176.45250000003,
      "d": 294.1175000000003,
      "v": 95
    },
    {
      "midi": 67,
      "hit": false,
      "t": 36176.45250000003,
      "d": 294.1175000000003,
      "v": 95
    },
    {
      "midi": 72,
      "hit": false,
      "t": 36176.45250000003,
      "d": 294.1175000000003,
      "v": 95
    },
    {
      "midi": 45,
      "hit": false,
      "t": 36470.57000000003,
      "d": 294.1175000000003,
      "v": 127
    },
    {
      "midi": 67,
      "hit": false,
      "t": 36470.57000000003,
      "d": 294.1175000000003,
      "v": 127
    },
    {
      "midi": 70,
      "hit": false,
      "t": 36470.57000000003,
      "d": 294.1175000000003,
      "v": 127
    },
    {
      "midi": 49,
      "hit": false,
      "t": 36764.68750000003,
      "d": 294.1175000000003,
      "v": 127
    },
    {
      "midi": 67,
      "hit": false,
      "t": 36764.68750000003,
      "d": 294.1175000000003,
      "v": 127
    },
    {
      "midi": 73,
      "hit": false,
      "t": 36764.68750000003,
      "d": 294.1175000000003,
      "v": 127
    },
    {
      "midi": 50,
      "hit": false,
      "t": 37058.80500000003,
      "d": 1764.7050000000017,
      "v": 127
    },
    {
      "midi": 67,
      "hit": false,
      "t": 37058.80500000003,
      "d": 1764.7050000000017,
      "v": 127
    },
    {
      "midi": 74,
      "hit": false,
      "t": 37058.80500000003,
      "d": 1764.7050000000017,
      "v": 127
    },
    {
      "midi": 55,
      "hit": false,
      "t": 38823.51000000003,
      "d": 294.1175000000003,
      "v": 127
    },
    {
      "midi": 67,
      "hit": false,
      "t": 38823.51000000003,
      "d": 294.1175000000003,
      "v": 111
    },
    {
      "midi": 70,
      "hit": false,
      "t": 38823.51000000003,
      "d": 294.1175000000003,
      "v": 111
    },
    {
      "midi": 67,
      "hit": false,
      "t": 39117.62750000003,
      "d": 294.1175000000003,
      "v": 95
    },
    {
      "midi": 70,
      "hit": false,
      "t": 39117.62750000003,
      "d": 294.1175000000003,
      "v": 95
    },
    {
      "midi": 67,
      "hit": false,
      "t": 39411.74500000003,
      "d": 294.1175000000003,
      "v": 95
    },
    {
      "midi": 70,
      "hit": false,
      "t": 39411.74500000003,
      "d": 294.1175000000003,
      "v": 95
    },
    {
      "midi": 67,
      "hit": false,
      "t": 39705.86250000003,
      "d": 294.1175000000003,
      "v": 111
    },
    {
      "midi": 70,
      "hit": false,
      "t": 39705.86250000003,
      "d": 294.1175000000003,
      "v": 111
    },
    {
      "midi": 67,
      "hit": false,
      "t": 39999.98000000003,
      "d": 294.1175000000003,
      "v": 95
    },
    {
      "midi": 70,
      "hit": false,
      "t": 39999.98000000003,
      "d": 294.1175000000003,
      "v": 95
    },
    {
      "midi": 55,
      "hit": false,
      "t": 40294.09750000003,
      "d": 294.1175000000003,
      "v": 127
    },
    {
      "midi": 67,
      "hit": false,
      "t": 40294.09750000003,
      "d": 294.1175000000003,
      "v": 95
    },
    {
      "midi": 70,
      "hit": false,
      "t": 40294.09750000003,
      "d": 294.1175000000003,
      "v": 95
    },
    {
      "midi": 53,
      "hit": false,
      "t": 40588.21500000003,
      "d": 294.1175000000003,
      "v": 127
    },
    {
      "midi": 67,
      "hit": false,
      "t": 40588.21500000003,
      "d": 294.1175000000003,
      "v": 111
    },
    {
      "midi": 70,
      "hit": false,
      "t": 40588.21500000003,
      "d": 294.1175000000003,
      "v": 111
    },
    {
      "midi": 67,
      "hit": false,
      "t": 40882.33250000003,
      "d": 294.1175000000003,
      "v": 95
    },
    {
      "midi": 70,
      "hit": false,
      "t": 40882.33250000003,
      "d": 294.1175000000003,
      "v": 95
    },
    {
      "midi": 67,
      "hit": false,
      "t": 41176.45000000003,
      "d": 294.1175000000003,
      "v": 95
    },
    {
      "midi": 70,
      "hit": false,
      "t": 41176.45000000003,
      "d": 294.1175000000003,
      "v": 95
    },
    {
      "midi": 67,
      "hit": false,
      "t": 41470.567500000034,
      "d": 294.1175000000003,
      "v": 111
    },
    {
      "midi": 70,
      "hit": false,
      "t": 41470.567500000034,
      "d": 294.1175000000003,
      "v": 111
    },
    {
      "midi": 67,
      "hit": false,
      "t": 41764.685000000034,
      "d": 294.1175000000003,
      "v": 95
    },
    {
      "midi": 70,
      "hit": false,
      "t": 41764.685000000034,
      "d": 294.1175000000003,
      "v": 95
    },
    {
      "midi": 53,
      "hit": false,
      "t": 42058.802500000034,
      "d": 294.1175000000003,
      "v": 127
    },
    {
      "midi": 67,
      "hit": false,
      "t": 42058.802500000034,
      "d": 294.1175000000003,
      "v": 95
    },
    {
      "midi": 70,
      "hit": false,
      "t": 42058.802500000034,
      "d": 294.1175000000003,
      "v": 95
    },
    {
      "midi": 51,
      "hit": false,
      "t": 42352.920000000035,
      "d": 294.1175000000003,
      "v": 127
    },
    {
      "midi": 67,
      "hit": false,
      "t": 42352.920000000035,
      "d": 294.1175000000003,
      "v": 111
    },
    {
      "midi": 70,
      "hit": false,
      "t": 42352.920000000035,
      "d": 294.1175000000003,
      "v": 111
    },
    {
      "midi": 67,
      "hit": false,
      "t": 42647.037500000035,
      "d": 294.1175000000003,
      "v": 95
    },
    {
      "midi": 70,
      "hit": false,
      "t": 42647.037500000035,
      "d": 294.1175000000003,
      "v": 95
    },
    {
      "midi": 67,
      "hit": false,
      "t": 42941.155000000035,
      "d": 294.1175000000003,
      "v": 95
    },
    {
      "midi": 70,
      "hit": false,
      "t": 42941.155000000035,
      "d": 294.1175000000003,
      "v": 95
    },
    {
      "midi": 67,
      "hit": false,
      "t": 43235.272500000036,
      "d": 294.1175000000003,
      "v": 111
    },
    {
      "midi": 70,
      "hit": false,
      "t": 43235.272500000036,
      "d": 294.1175000000003,
      "v": 111
    },
    {
      "midi": 67,
      "hit": false,
      "t": 43529.390000000036,
      "d": 294.1175000000003,
      "v": 95
    },
    {
      "midi": 70,
      "hit": false,
      "t": 43529.390000000036,
      "d": 294.1175000000003,
      "v": 95
    },
    {
      "midi": 51,
      "hit": false,
      "t": 43823.507500000036,
      "d": 294.1175000000003,
      "v": 127
    },
    {
      "midi": 67,
      "hit": false,
      "t": 43823.507500000036,
      "d": 294.1175000000003,
      "v": 95
    },
    {
      "midi": 70,
      "hit": false,
      "t": 43823.507500000036,
      "d": 294.1175000000003,
      "v": 95
    },
    {
      "midi": 50,
      "hit": false,
      "t": 44117.62500000004,
      "d": 294.1175000000003,
      "v": 127
    },
    {
      "midi": 67,
      "hit": false,
      "t": 44117.62500000004,
      "d": 294.1175000000003,
      "v": 111
    },
    {
      "midi": 70,
      "hit": false,
      "t": 44117.62500000004,
      "d": 294.1175000000003,
      "v": 111
    },
    {
      "midi": 67,
      "hit": false,
      "t": 44411.74250000004,
      "d": 294.1175000000003,
      "v": 95
    },
    {
      "midi": 70,
      "hit": false,
      "t": 44411.74250000004,
      "d": 294.1175000000003,
      "v": 95
    },
    {
      "midi": 50,
      "hit": false,
      "t": 44705.86000000004,
      "d": 294.1175000000003,
      "v": 127
    },
    {
      "midi": 67,
      "hit": false,
      "t": 44705.86000000004,
      "d": 294.1175000000003,
      "v": 95
    },
    {
      "midi": 70,
      "hit": false,
      "t": 44705.86000000004,
      "d": 294.1175000000003,
      "v": 95
    },
    {
      "midi": 53,
      "hit": false,
      "t": 44999.97750000004,
      "d": 294.1175000000003,
      "v": 127
    },
    {
      "midi": 67,
      "hit": false,
      "t": 44999.97750000004,
      "d": 294.1175000000003,
      "v": 111
    },
    {
      "midi": 70,
      "hit": false,
      "t": 44999.97750000004,
      "d": 294.1175000000003,
      "v": 111
    },
    {
      "midi": 50,
      "hit": false,
      "t": 45294.09500000004,
      "d": 294.1175000000003,
      "v": 127
    },
    {
      "midi": 67,
      "hit": false,
      "t": 45294.09500000004,
      "d": 294.1175000000003,
      "v": 95
    },
    {
      "midi": 70,
      "hit": false,
      "t": 45294.09500000004,
      "d": 294.1175000000003,
      "v": 95
    },
    {
      "midi": 53,
      "hit": false,
      "t": 45588.21250000004,
      "d": 294.1175000000003,
      "v": 127
    },
    {
      "midi": 67,
      "hit": false,
      "t": 45588.21250000004,
      "d": 294.1175000000003,
      "v": 95
    },
    {
      "midi": 70,
      "hit": false,
      "t": 45588.21250000004,
      "d": 294.1175000000003,
      "v": 95
    },
    {
      "midi": 55,
      "hit": false,
      "t": 45882.33000000004,
      "d": 294.1175000000003,
      "v": 127
    },
    {
      "midi": 67,
      "hit": false,
      "t": 45882.33000000004,
      "d": 294.1175000000003,
      "v": 111
    },
    {
      "midi": 70,
      "hit": false,
      "t": 45882.33000000004,
      "d": 294.1175000000003,
      "v": 111
    },
    {
      "midi": 67,
      "hit": false,
      "t": 46176.44750000004,
      "d": 294.1175000000003,
      "v": 95
    },
    {
      "midi": 70,
      "hit": false,
      "t": 46176.44750000004,
      "d": 294.1175000000003,
      "v": 95
    },
    {
      "midi": 67,
      "hit": false,
      "t": 46470.56500000004,
      "d": 294.1175000000003,
      "v": 95
    },
    {
      "midi": 70,
      "hit": false,
      "t": 46470.56500000004,
      "d": 294.1175000000003,
      "v": 95
    },
    {
      "midi": 67,
      "hit": false,
      "t": 46764.68250000004,
      "d": 294.1175000000003,
      "v": 111
    },
    {
      "midi": 70,
      "hit": false,
      "t": 46764.68250000004,
      "d": 294.1175000000003,
      "v": 111
    },
    {
      "midi": 67,
      "hit": false,
      "t": 47058.80000000004,
      "d": 294.1175000000003,
      "v": 95
    },
    {
      "midi": 70,
      "hit": false,
      "t": 47058.80000000004,
      "d": 294.1175000000003,
      "v": 95
    },
    {
      "midi": 55,
      "hit": false,
      "t": 47352.91750000004,
      "d": 294.1175000000003,
      "v": 127
    },
    {
      "midi": 67,
      "hit": false,
      "t": 47352.91750000004,
      "d": 294.1175000000003,
      "v": 95
    },
    {
      "midi": 70,
      "hit": false,
      "t": 47352.91750000004,
      "d": 294.1175000000003,
      "v": 95
    },
    {
      "midi": 53,
      "hit": false,
      "t": 47647.03500000004,
      "d": 294.1175000000003,
      "v": 127
    },
    {
      "midi": 67,
      "hit": false,
      "t": 47647.03500000004,
      "d": 294.1175000000003,
      "v": 111
    },
    {
      "midi": 70,
      "hit": false,
      "t": 47647.03500000004,
      "d": 294.1175000000003,
      "v": 111
    },
    {
      "midi": 67,
      "hit": false,
      "t": 47941.15250000004,
      "d": 294.1175000000003,
      "v": 95
    },
    {
      "midi": 70,
      "hit": false,
      "t": 47941.15250000004,
      "d": 294.1175000000003,
      "v": 95
    },
    {
      "midi": 67,
      "hit": false,
      "t": 48235.27000000004,
      "d": 294.1175000000003,
      "v": 95
    },
    {
      "midi": 70,
      "hit": false,
      "t": 48235.27000000004,
      "d": 294.1175000000003,
      "v": 95
    },
    {
      "midi": 67,
      "hit": false,
      "t": 48529.38750000004,
      "d": 294.1175000000003,
      "v": 111
    },
    {
      "midi": 70,
      "hit": false,
      "t": 48529.38750000004,
      "d": 294.1175000000003,
      "v": 111
    },
    {
      "midi": 67,
      "hit": false,
      "t": 48823.50500000004,
      "d": 294.1175000000003,
      "v": 95
    },
    {
      "midi": 70,
      "hit": false,
      "t": 48823.50500000004,
      "d": 294.1175000000003,
      "v": 95
    },
    {
      "midi": 53,
      "hit": false,
      "t": 49117.62250000004,
      "d": 294.1175000000003,
      "v": 127
    },
    {
      "midi": 67,
      "hit": false,
      "t": 49117.62250000004,
      "d": 294.1175000000003,
      "v": 95
    },
    {
      "midi": 70,
      "hit": false,
      "t": 49117.62250000004,
      "d": 294.1175000000003,
      "v": 95
    },
    {
      "midi": 51,
      "hit": false,
      "t": 49411.74000000004,
      "d": 294.1175000000003,
      "v": 127
    },
    {
      "midi": 67,
      "hit": false,
      "t": 49411.74000000004,
      "d": 294.1175000000003,
      "v": 111
    },
    {
      "midi": 70,
      "hit": false,
      "t": 49411.74000000004,
      "d": 294.1175000000003,
      "v": 111
    },
    {
      "midi": 67,
      "hit": false,
      "t": 49705.85750000004,
      "d": 294.1175000000003,
      "v": 95
    },
    {
      "midi": 70,
      "hit": false,
      "t": 49705.85750000004,
      "d": 294.1175000000003,
      "v": 95
    },
    {
      "midi": 67,
      "hit": false,
      "t": 49999.97500000004,
      "d": 294.1175000000003,
      "v": 95
    },
    {
      "midi": 70,
      "hit": false,
      "t": 49999.97500000004,
      "d": 294.1175000000003,
      "v": 95
    },
    {
      "midi": 67,
      "hit": false,
      "t": 50294.09250000004,
      "d": 294.1175000000003,
      "v": 111
    },
    {
      "midi": 70,
      "hit": false,
      "t": 50294.09250000004,
      "d": 294.1175000000003,
      "v": 111
    },
    {
      "midi": 67,
      "hit": false,
      "t": 50588.21000000004,
      "d": 294.1175000000003,
      "v": 95
    },
    {
      "midi": 70,
      "hit": false,
      "t": 50588.21000000004,
      "d": 294.1175000000003,
      "v": 95
    },
    {
      "midi": 51,
      "hit": false,
      "t": 50882.32750000004,
      "d": 294.1175000000003,
      "v": 127
    },
    {
      "midi": 67,
      "hit": false,
      "t": 50882.32750000004,
      "d": 294.1175000000003,
      "v": 95
    },
    {
      "midi": 70,
      "hit": false,
      "t": 50882.32750000004,
      "d": 294.1175000000003,
      "v": 95
    },
    {
      "midi": 50,
      "hit": false,
      "t": 51176.44500000004,
      "d": 294.1175000000003,
      "v": 127
    },
    {
      "midi": 67,
      "hit": false,
      "t": 51176.44500000004,
      "d": 294.1175000000003,
      "v": 111
    },
    {
      "midi": 70,
      "hit": false,
      "t": 51176.44500000004,
      "d": 294.1175000000003,
      "v": 111
    },
    {
      "midi": 67,
      "hit": false,
      "t": 51470.562500000044,
      "d": 294.1175000000003,
      "v": 95
    },
    {
      "midi": 70,
      "hit": false,
      "t": 51470.562500000044,
      "d": 294.1175000000003,
      "v": 95
    },
    {
      "midi": 50,
      "hit": false,
      "t": 51764.680000000044,
      "d": 294.1175000000003,
      "v": 127
    },
    {
      "midi": 67,
      "hit": false,
      "t": 51764.680000000044,
      "d": 294.1175000000003,
      "v": 95
    },
    {
      "midi": 70,
      "hit": false,
      "t": 51764.680000000044,
      "d": 294.1175000000003,
      "v": 95
    },
    {
      "midi": 53,
      "hit": false,
      "t": 52058.797500000044,
      "d": 294.1175000000003,
      "v": 127
    },
    {
      "midi": 67,
      "hit": false,
      "t": 52058.797500000044,
      "d": 294.1175000000003,
      "v": 111
    },
    {
      "midi": 70,
      "hit": false,
      "t": 52058.797500000044,
      "d": 294.1175000000003,
      "v": 111
    },
    {
      "midi": 50,
      "hit": false,
      "t": 52352.915000000045,
      "d": 294.1175000000003,
      "v": 127
    },
    {
      "midi": 67,
      "hit": false,
      "t": 52352.915000000045,
      "d": 294.1175000000003,
      "v": 95
    },
    {
      "midi": 70,
      "hit": false,
      "t": 52352.915000000045,
      "d": 294.1175000000003,
      "v": 95
    },
    {
      "midi": 53,
      "hit": false,
      "t": 52647.032500000045,
      "d": 294.1175000000003,
      "v": 127
    },
    {
      "midi": 67,
      "hit": false,
      "t": 52647.032500000045,
      "d": 294.1175000000003,
      "v": 95
    },
    {
      "midi": 70,
      "hit": false,
      "t": 52647.032500000045,
      "d": 294.1175000000003,
      "v": 95
    },
    {
      "midi": 55,
      "hit": false,
      "t": 52941.150000000045,
      "d": 294.1175000000003,
      "v": 127
    },
    {
      "midi": 67,
      "hit": false,
      "t": 52941.150000000045,
      "d": 294.1175000000003,
      "v": 111
    },
    {
      "midi": 79,
      "hit": false,
      "t": 52941.150000000045,
      "d": 294.1175000000003,
      "v": 95
    },
    {
      "midi": 67,
      "hit": false,
      "t": 53235.267500000045,
      "d": 294.1175000000003,
      "v": 95
    },
    {
      "midi": 79,
      "hit": false,
      "t": 53235.267500000045,
      "d": 294.1175000000003,
      "v": 95
    },
    {
      "midi": 67,
      "hit": false,
      "t": 53529.385000000046,
      "d": 294.1175000000003,
      "v": 95
    },
    {
      "midi": 79,
      "hit": false,
      "t": 53529.385000000046,
      "d": 294.1175000000003,
      "v": 95
    },
    {
      "midi": 67,
      "hit": false,
      "t": 53823.502500000046,
      "d": 294.1175000000003,
      "v": 111
    },
    {
      "midi": 79,
      "hit": false,
      "t": 53823.502500000046,
      "d": 294.1175000000003,
      "v": 95
    },
    {
      "midi": 67,
      "hit": false,
      "t": 54117.620000000046,
      "d": 294.1175000000003,
      "v": 95
    },
    {
      "midi": 79,
      "hit": false,
      "t": 54117.620000000046,
      "d": 294.1175000000003,
      "v": 95
    },
    {
      "midi": 55,
      "hit": false,
      "t": 54411.73750000005,
      "d": 294.1175000000003,
      "v": 127
    },
    {
      "midi": 67,
      "hit": false,
      "t": 54411.73750000005,
      "d": 294.1175000000003,
      "v": 95
    },
    {
      "midi": 79,
      "hit": false,
      "t": 54411.73750000005,
      "d": 294.1175000000003,
      "v": 95
    },
    {
      "midi": 53,
      "hit": false,
      "t": 54705.85500000005,
      "d": 294.1175000000003,
      "v": 127
    },
    {
      "midi": 67,
      "hit": false,
      "t": 54705.85500000005,
      "d": 294.1175000000003,
      "v": 111
    },
    {
      "midi": 77,
      "hit": false,
      "t": 54705.85500000005,
      "d": 294.1175000000003,
      "v": 95
    },
    {
      "midi": 67,
      "hit": false,
      "t": 54999.97250000005,
      "d": 294.1175000000003,
      "v": 95
    },
    {
      "midi": 77,
      "hit": false,
      "t": 54999.97250000005,
      "d": 294.1175000000003,
      "v": 95
    },
    {
      "midi": 67,
      "hit": false,
      "t": 55294.09000000005,
      "d": 294.1175000000003,
      "v": 95
    },
    {
      "midi": 77,
      "hit": false,
      "t": 55294.09000000005,
      "d": 294.1175000000003,
      "v": 95
    },
    {
      "midi": 67,
      "hit": false,
      "t": 55588.20750000005,
      "d": 294.1175000000003,
      "v": 111
    },
    {
      "midi": 77,
      "hit": false,
      "t": 55588.20750000005,
      "d": 294.1175000000003,
      "v": 95
    },
    {
      "midi": 67,
      "hit": false,
      "t": 55882.32500000005,
      "d": 294.1175000000003,
      "v": 95
    },
    {
      "midi": 77,
      "hit": false,
      "t": 55882.32500000005,
      "d": 294.1175000000003,
      "v": 95
    },
    {
      "midi": 53,
      "hit": false,
      "t": 56176.44250000005,
      "d": 294.1175000000003,
      "v": 127
    },
    {
      "midi": 67,
      "hit": false,
      "t": 56176.44250000005,
      "d": 294.1175000000003,
      "v": 95
    },
    {
      "midi": 77,
      "hit": false,
      "t": 56176.44250000005,
      "d": 294.1175000000003,
      "v": 95
    },
    {
      "midi": 52,
      "hit": false,
      "t": 56470.56000000005,
      "d": 294.1175000000003,
      "v": 127
    },
    {
      "midi": 67,
      "hit": false,
      "t": 56470.56000000005,
      "d": 294.1175000000003,
      "v": 111
    },
    {
      "midi": 76,
      "hit": false,
      "t": 56470.56000000005,
      "d": 294.1175000000003,
      "v": 95
    },
    {
      "midi": 67,
      "hit": false,
      "t": 56764.67750000005,
      "d": 294.1175000000003,
      "v": 95
    },
    {
      "midi": 76,
      "hit": false,
      "t": 56764.67750000005,
      "d": 294.1175000000003,
      "v": 95
    },
    {
      "midi": 67,
      "hit": false,
      "t": 57058.79500000005,
      "d": 294.1175000000003,
      "v": 95
    },
    {
      "midi": 76,
      "hit": false,
      "t": 57058.79500000005,
      "d": 294.1175000000003,
      "v": 95
    },
    {
      "midi": 67,
      "hit": false,
      "t": 57352.91250000005,
      "d": 294.1175000000003,
      "v": 111
    },
    {
      "midi": 76,
      "hit": false,
      "t": 57352.91250000005,
      "d": 294.1175000000003,
      "v": 95
    },
    {
      "midi": 67,
      "hit": false,
      "t": 57647.03000000005,
      "d": 294.1175000000003,
      "v": 95
    },
    {
      "midi": 76,
      "hit": false,
      "t": 57647.03000000005,
      "d": 294.1175000000003,
      "v": 95
    },
    {
      "midi": 52,
      "hit": false,
      "t": 57941.14750000005,
      "d": 294.1175000000003,
      "v": 127
    },
    {
      "midi": 67,
      "hit": false,
      "t": 57941.14750000005,
      "d": 294.1175000000003,
      "v": 95
    },
    {
      "midi": 76,
      "hit": false,
      "t": 57941.14750000005,
      "d": 294.1175000000003,
      "v": 95
    },
    {
      "midi": 51,
      "hit": false,
      "t": 58235.26500000005,
      "d": 294.1175000000003,
      "v": 127
    },
    {
      "midi": 67,
      "hit": false,
      "t": 58235.26500000005,
      "d": 294.1175000000003,
      "v": 111
    },
    {
      "midi": 75,
      "hit": false,
      "t": 58235.26500000005,
      "d": 294.1175000000003,
      "v": 95
    },
    {
      "midi": 67,
      "hit": false,
      "t": 58529.38250000005,
      "d": 294.1175000000003,
      "v": 95
    },
    {
      "midi": 75,
      "hit": false,
      "t": 58529.38250000005,
      "d": 294.1175000000003,
      "v": 95
    },
    {
      "midi": 67,
      "hit": false,
      "t": 58823.50000000005,
      "d": 294.1175000000003,
      "v": 95
    },
    {
      "midi": 75,
      "hit": false,
      "t": 58823.50000000005,
      "d": 294.1175000000003,
      "v": 95
    },
    {
      "midi": 67,
      "hit": false,
      "t": 59117.61750000005,
      "d": 294.1175000000003,
      "v": 111
    },
    {
      "midi": 75,
      "hit": false,
      "t": 59117.61750000005,
      "d": 294.1175000000003,
      "v": 95
    },
    {
      "midi": 67,
      "hit": false,
      "t": 59411.73500000005,
      "d": 294.1175000000003,
      "v": 95
    },
    {
      "midi": 75,
      "hit": false,
      "t": 59411.73500000005,
      "d": 294.1175000000003,
      "v": 95
    },
    {
      "midi": 51,
      "hit": false,
      "t": 59705.85250000005,
      "d": 294.1175000000003,
      "v": 127
    },
    {
      "midi": 67,
      "hit": false,
      "t": 59705.85250000005,
      "d": 294.1175000000003,
      "v": 95
    },
    {
      "midi": 75,
      "hit": false,
      "t": 59705.85250000005,
      "d": 294.1175000000003,
      "v": 95
    },
    {
      "midi": 50,
      "hit": false,
      "t": 59999.97000000005,
      "d": 294.1175000000003,
      "v": 127
    },
    {
      "midi": 67,
      "hit": false,
      "t": 59999.97000000005,
      "d": 294.1175000000003,
      "v": 111
    },
    {
      "midi": 74,
      "hit": false,
      "t": 59999.97000000005,
      "d": 294.1175000000003,
      "v": 95
    },
    {
      "midi": 67,
      "hit": false,
      "t": 60294.08750000005,
      "d": 294.1175000000003,
      "v": 95
    },
    {
      "midi": 74,
      "hit": false,
      "t": 60294.08750000005,
      "d": 294.1175000000003,
      "v": 95
    },
    {
      "midi": 67,
      "hit": false,
      "t": 60588.20500000005,
      "d": 294.1175000000003,
      "v": 95
    },
    {
      "midi": 74,
      "hit": false,
      "t": 60588.20500000005,
      "d": 294.1175000000003,
      "v": 95
    },
    {
      "midi": 67,
      "hit": false,
      "t": 60882.32250000005,
      "d": 294.1175000000003,
      "v": 111
    },
    {
      "midi": 74,
      "hit": false,
      "t": 60882.32250000005,
      "d": 294.1175000000003,
      "v": 95
    },
    {
      "midi": 67,
      "hit": false,
      "t": 61176.44000000005,
      "d": 294.1175000000003,
      "v": 95
    },
    {
      "midi": 74,
      "hit": false,
      "t": 61176.44000000005,
      "d": 294.1175000000003,
      "v": 95
    },
    {
      "midi": 50,
      "hit": false,
      "t": 61470.55750000005,
      "d": 294.1175000000003,
      "v": 127
    },
    {
      "midi": 67,
      "hit": false,
      "t": 61470.55750000005,
      "d": 294.1175000000003,
      "v": 95
    },
    {
      "midi": 74,
      "hit": false,
      "t": 61470.55750000005,
      "d": 294.1175000000003,
      "v": 95
    },
    {
      "midi": 48,
      "hit": false,
      "t": 61764.675000000054,
      "d": 294.1175000000003,
      "v": 127
    },
    {
      "midi": 67,
      "hit": false,
      "t": 61764.675000000054,
      "d": 294.1175000000003,
      "v": 111
    },
    {
      "midi": 72,
      "hit": false,
      "t": 61764.675000000054,
      "d": 294.1175000000003,
      "v": 95
    },
    {
      "midi": 67,
      "hit": false,
      "t": 62058.792500000054,
      "d": 294.1175000000003,
      "v": 95
    },
    {
      "midi": 72,
      "hit": false,
      "t": 62058.792500000054,
      "d": 294.1175000000003,
      "v": 95
    },
    {
      "midi": 67,
      "hit": false,
      "t": 62352.910000000054,
      "d": 294.1175000000003,
      "v": 95
    },
    {
      "midi": 72,
      "hit": false,
      "t": 62352.910000000054,
      "d": 294.1175000000003,
      "v": 95
    },
    {
      "midi": 67,
      "hit": false,
      "t": 62647.027500000055,
      "d": 294.1175000000003,
      "v": 111
    },
    {
      "midi": 72,
      "hit": false,
      "t": 62647.027500000055,
      "d": 294.1175000000003,
      "v": 95
    },
    {
      "midi": 67,
      "hit": false,
      "t": 62941.145000000055,
      "d": 294.1175000000003,
      "v": 95
    },
    {
      "midi": 72,
      "hit": false,
      "t": 62941.145000000055,
      "d": 294.1175000000003,
      "v": 95
    },
    {
      "midi": 48,
      "hit": false,
      "t": 63235.262500000055,
      "d": 294.1175000000003,
      "v": 127
    },
    {
      "midi": 67,
      "hit": false,
      "t": 63235.262500000055,
      "d": 294.1175000000003,
      "v": 95
    },
    {
      "midi": 72,
      "hit": false,
      "t": 63235.262500000055,
      "d": 294.1175000000003,
      "v": 95
    },
    {
      "midi": 46,
      "hit": false,
      "t": 63529.380000000056,
      "d": 294.1175000000003,
      "v": 127
    },
    {
      "midi": 67,
      "hit": false,
      "t": 63529.380000000056,
      "d": 294.1175000000003,
      "v": 95
    },
    {
      "midi": 70,
      "hit": false,
      "t": 63529.380000000056,
      "d": 294.1175000000003,
      "v": 95
    },
    {
      "midi": 67,
      "hit": false,
      "t": 63823.497500000056,
      "d": 294.1175000000003,
      "v": 95
    },
    {
      "midi": 70,
      "hit": false,
      "t": 63823.497500000056,
      "d": 294.1175000000003,
      "v": 95
    },
    {
      "midi": 67,
      "hit": false,
      "t": 64117.615000000056,
      "d": 294.1175000000003,
      "v": 95
    },
    {
      "midi": 70,
      "hit": false,
      "t": 64117.615000000056,
      "d": 294.1175000000003,
      "v": 95
    },
    {
      "midi": 67,
      "hit": false,
      "t": 64411.73250000006,
      "d": 294.1175000000003,
      "v": 95
    },
    {
      "midi": 70,
      "hit": false,
      "t": 64411.73250000006,
      "d": 294.1175000000003,
      "v": 95
    },
    {
      "midi": 67,
      "hit": false,
      "t": 64705.85000000006,
      "d": 294.1175000000003,
      "v": 95
    },
    {
      "midi": 70,
      "hit": false,
      "t": 64705.85000000006,
      "d": 294.1175000000003,
      "v": 95
    },
    {
      "midi": 46,
      "hit": false,
      "t": 64999.96750000006,
      "d": 294.1175000000003,
      "v": 127
    },
    {
      "midi": 67,
      "hit": false,
      "t": 64999.96750000006,
      "d": 294.1175000000003,
      "v": 95
    },
    {
      "midi": 70,
      "hit": false,
      "t": 64999.96750000006,
      "d": 294.1175000000003,
      "v": 95
    },
    {
      "midi": 45,
      "hit": false,
      "t": 65294.08500000006,
      "d": 294.1175000000003,
      "v": 127
    },
    {
      "midi": 67,
      "hit": false,
      "t": 65294.08500000006,
      "d": 294.1175000000003,
      "v": 95
    },
    {
      "midi": 70,
      "hit": false,
      "t": 65294.08500000006,
      "d": 294.1175000000003,
      "v": 95
    },
    {
      "midi": 67,
      "hit": false,
      "t": 65588.20250000006,
      "d": 294.117499999993,
      "v": 95
    },
    {
      "midi": 70,
      "hit": false,
      "t": 65588.20250000006,
      "d": 294.117499999993,
      "v": 95
    },
    {
      "midi": 67,
      "hit": false,
      "t": 65882.32000000005,
      "d": 294.117499999993,
      "v": 95
    },
    {
      "midi": 70,
      "hit": false,
      "t": 65882.32000000005,
      "d": 294.117499999993,
      "v": 95
    },
    {
      "midi": 67,
      "hit": false,
      "t": 66176.43750000004,
      "d": 294.117499999993,
      "v": 95
    },
    {
      "midi": 70,
      "hit": false,
      "t": 66176.43750000004,
      "d": 294.117499999993,
      "v": 95
    },
    {
      "midi": 67,
      "hit": false,
      "t": 66470.55500000004,
      "d": 294.117499999993,
      "v": 95
    },
    {
      "midi": 70,
      "hit": false,
      "t": 66470.55500000004,
      "d": 294.117499999993,
      "v": 95
    },
    {
      "midi": 45,
      "hit": false,
      "t": 66764.67250000003,
      "d": 294.117499999993,
      "v": 95
    },
    {
      "midi": 67,
      "hit": false,
      "t": 66764.67250000003,
      "d": 294.117499999993,
      "v": 95
    },
    {
      "midi": 70,
      "hit": false,
      "t": 66764.67250000003,
      "d": 294.117499999993,
      "v": 95
    },
    {
      "midi": 48,
      "hit": false,
      "t": 67058.79000000002,
      "d": 294.117499999993,
      "v": 127
    },
    {
      "midi": 67,
      "hit": false,
      "t": 67058.79000000002,
      "d": 294.117499999993,
      "v": 95
    },
    {
      "midi": 72,
      "hit": false,
      "t": 67058.79000000002,
      "d": 294.117499999993,
      "v": 95
    },
    {
      "midi": 45,
      "hit": false,
      "t": 67352.90750000002,
      "d": 294.117499999993,
      "v": 95
    },
    {
      "midi": 67,
      "hit": false,
      "t": 67352.90750000002,
      "d": 294.117499999993,
      "v": 95
    },
    {
      "midi": 70,
      "hit": false,
      "t": 67352.90750000002,
      "d": 294.117499999993,
      "v": 95
    },
    {
      "midi": 45,
      "hit": false,
      "t": 67647.02500000001,
      "d": 294.117499999993,
      "v": 95
    },
    {
      "midi": 67,
      "hit": false,
      "t": 67647.02500000001,
      "d": 294.117499999993,
      "v": 95
    },
    {
      "midi": 70,
      "hit": false,
      "t": 67647.02500000001,
      "d": 294.117499999993,
      "v": 95
    },
    {
      "midi": 48,
      "hit": false,
      "t": 67941.1425,
      "d": 294.117499999993,
      "v": 95
    },
    {
      "midi": 67,
      "hit": false,
      "t": 67941.1425,
      "d": 294.117499999993,
      "v": 95
    },
    {
      "midi": 72,
      "hit": false,
      "t": 67941.1425,
      "d": 294.117499999993,
      "v": 95
    },
    {
      "midi": 45,
      "hit": false,
      "t": 68235.26,
      "d": 294.117499999993,
      "v": 127
    },
    {
      "midi": 67,
      "hit": false,
      "t": 68235.26,
      "d": 294.117499999993,
      "v": 127
    },
    {
      "midi": 70,
      "hit": false,
      "t": 68235.26,
      "d": 294.117499999993,
      "v": 127
    },
    {
      "midi": 49,
      "hit": false,
      "t": 68529.37749999999,
      "d": 294.117499999993,
      "v": 127
    },
    {
      "midi": 67,
      "hit": false,
      "t": 68529.37749999999,
      "d": 294.117499999993,
      "v": 127
    },
    {
      "midi": 73,
      "hit": false,
      "t": 68529.37749999999,
      "d": 294.117499999993,
      "v": 127
    },
    {
      "midi": 50,
      "hit": false,
      "t": 68823.49499999998,
      "d": 1764.7050000000017,
      "v": 127
    },
    {
      "midi": 67,
      "hit": false,
      "t": 68823.49499999998,
      "d": 1764.7050000000017,
      "v": 127
    },
    {
      "midi": 74,
      "hit": false,
      "t": 68823.49499999998,
      "d": 1764.7050000000017,
      "v": 127
    },
    {
      "midi": 55,
      "hit": false,
      "t": 70588.19999999998,
      "d": 294.117499999993,
      "v": 95
    },
    {
      "midi": 62,
      "hit": false,
      "t": 70882.31749999998,
      "d": 294.117499999993,
      "v": 95
    },
    {
      "midi": 67,
      "hit": false,
      "t": 71176.43499999997,
      "d": 294.117499999993,
      "v": 95
    },
    {
      "midi": 62,
      "hit": false,
      "t": 71470.55249999996,
      "d": 294.117499999993,
      "v": 95
    },
    {
      "midi": 67,
      "hit": false,
      "t": 71764.66999999995,
      "d": 294.117499999993,
      "v": 95
    },
    {
      "midi": 67,
      "hit": false,
      "t": 72058.78749999995,
      "d": 294.117499999993,
      "v": 95
    },
    {
      "midi": 70,
      "hit": false,
      "t": 72058.78749999995,
      "d": 294.117499999993,
      "v": 95
    },
    {
      "midi": 70,
      "hit": false,
      "t": 72352.90499999994,
      "d": 294.117499999993,
      "v": 95
    },
    {
      "midi": 67,
      "hit": false,
      "t": 72647.02249999993,
      "d": 294.117499999993,
      "v": 95
    },
    {
      "midi": 67,
      "hit": false,
      "t": 72941.13999999993,
      "d": 294.117499999993,
      "v": 95
    },
    {
      "midi": 70,
      "hit": false,
      "t": 72941.13999999993,
      "d": 294.117499999993,
      "v": 95
    },
    {
      "midi": 70,
      "hit": false,
      "t": 73235.25749999992,
      "d": 294.117499999993,
      "v": 95
    },
    {
      "midi": 67,
      "hit": false,
      "t": 73529.37499999991,
      "d": 294.117499999993,
      "v": 95
    },
    {
      "midi": 67,
      "hit": false,
      "t": 73823.4924999999,
      "d": 294.117499999993,
      "v": 95
    },
    {
      "midi": 62,
      "hit": false,
      "t": 74117.6099999999,
      "d": 294.117499999993,
      "v": 95
    },
    {
      "midi": 62,
      "hit": false,
      "t": 74411.72749999989,
      "d": 294.117499999993,
      "v": 95
    },
    {
      "midi": 65,
      "hit": false,
      "t": 74411.72749999989,
      "d": 294.117499999993,
      "v": 95
    },
    {
      "midi": 64,
      "hit": false,
      "t": 74705.84499999988,
      "d": 1176.4700000000012,
      "v": 95
    },
    {
      "midi": 65,
      "hit": false,
      "t": 75882.31499999989,
      "d": 73.52937499999825,
      "v": 95
    },
    {
      "midi": 64,
      "hit": false,
      "t": 75955.84437499988,
      "d": 294.117499999993,
      "v": 95
    },
    {
      "midi": 63,
      "hit": false,
      "t": 76249.96187499988,
      "d": 1397.058124999996,
      "v": 95
    },
    {
      "midi": 55,
      "hit": false,
      "t": 105882.29999999987,
      "d": 294.117499999993,
      "v": 127
    },
    {
      "midi": 67,
      "hit": false,
      "t": 105882.29999999987,
      "d": 294.117499999993,
      "v": 111
    },
    {
      "midi": 70,
      "hit": false,
      "t": 105882.29999999987,
      "d": 294.117499999993,
      "v": 111
    },
    {
      "midi": 67,
      "hit": false,
      "t": 106176.41749999986,
      "d": 294.117499999993,
      "v": 95
    },
    {
      "midi": 70,
      "hit": false,
      "t": 106176.41749999986,
      "d": 294.117499999993,
      "v": 95
    },
    {
      "midi": 67,
      "hit": false,
      "t": 106470.53499999986,
      "d": 294.117499999993,
      "v": 95
    },
    {
      "midi": 70,
      "hit": false,
      "t": 106470.53499999986,
      "d": 294.117499999993,
      "v": 95
    },
    {
      "midi": 67,
      "hit": false,
      "t": 106764.65249999985,
      "d": 294.117499999993,
      "v": 111
    },
    {
      "midi": 70,
      "hit": false,
      "t": 106764.65249999985,
      "d": 294.117499999993,
      "v": 111
    },
    {
      "midi": 67,
      "hit": false,
      "t": 107058.76999999984,
      "d": 294.117499999993,
      "v": 95
    },
    {
      "midi": 70,
      "hit": false,
      "t": 107058.76999999984,
      "d": 294.117499999993,
      "v": 95
    },
    {
      "midi": 55,
      "hit": false,
      "t": 107352.88749999984,
      "d": 294.117499999993,
      "v": 127
    },
    {
      "midi": 67,
      "hit": false,
      "t": 107352.88749999984,
      "d": 294.117499999993,
      "v": 95
    },
    {
      "midi": 70,
      "hit": false,
      "t": 107352.88749999984,
      "d": 294.117499999993,
      "v": 95
    },
    {
      "midi": 53,
      "hit": false,
      "t": 107647.00499999983,
      "d": 294.117499999993,
      "v": 127
    },
    {
      "midi": 67,
      "hit": false,
      "t": 107647.00499999983,
      "d": 294.117499999993,
      "v": 111
    },
    {
      "midi": 70,
      "hit": false,
      "t": 107647.00499999983,
      "d": 294.117499999993,
      "v": 111
    },
    {
      "midi": 67,
      "hit": false,
      "t": 107941.12249999982,
      "d": 294.117499999993,
      "v": 95
    },
    {
      "midi": 70,
      "hit": false,
      "t": 107941.12249999982,
      "d": 294.117499999993,
      "v": 95
    },
    {
      "midi": 67,
      "hit": false,
      "t": 108235.23999999982,
      "d": 294.117499999993,
      "v": 95
    },
    {
      "midi": 70,
      "hit": false,
      "t": 108235.23999999982,
      "d": 294.117499999993,
      "v": 95
    },
    {
      "midi": 67,
      "hit": false,
      "t": 108529.35749999981,
      "d": 294.117499999993,
      "v": 111
    },
    {
      "midi": 70,
      "hit": false,
      "t": 108529.35749999981,
      "d": 294.117499999993,
      "v": 111
    },
    {
      "midi": 67,
      "hit": false,
      "t": 108823.4749999998,
      "d": 294.117499999993,
      "v": 95
    },
    {
      "midi": 70,
      "hit": false,
      "t": 108823.4749999998,
      "d": 294.117499999993,
      "v": 95
    },
    {
      "midi": 53,
      "hit": false,
      "t": 109117.5924999998,
      "d": 294.117499999993,
      "v": 127
    },
    {
      "midi": 67,
      "hit": false,
      "t": 109117.5924999998,
      "d": 294.117499999993,
      "v": 95
    },
    {
      "midi": 70,
      "hit": false,
      "t": 109117.5924999998,
      "d": 294.117499999993,
      "v": 95
    },
    {
      "midi": 51,
      "hit": false,
      "t": 109411.70999999979,
      "d": 294.117499999993,
      "v": 127
    },
    {
      "midi": 67,
      "hit": false,
      "t": 109411.70999999979,
      "d": 294.117499999993,
      "v": 111
    },
    {
      "midi": 70,
      "hit": false,
      "t": 109411.70999999979,
      "d": 294.117499999993,
      "v": 111
    },
    {
      "midi": 67,
      "hit": false,
      "t": 109705.82749999978,
      "d": 294.117499999993,
      "v": 95
    },
    {
      "midi": 70,
      "hit": false,
      "t": 109705.82749999978,
      "d": 294.117499999993,
      "v": 95
    },
    {
      "midi": 67,
      "hit": false,
      "t": 109999.94499999977,
      "d": 294.117499999993,
      "v": 95
    },
    {
      "midi": 70,
      "hit": false,
      "t": 109999.94499999977,
      "d": 294.117499999993,
      "v": 95
    },
    {
      "midi": 67,
      "hit": false,
      "t": 110294.06249999977,
      "d": 294.117499999993,
      "v": 111
    },
    {
      "midi": 70,
      "hit": false,
      "t": 110294.06249999977,
      "d": 294.117499999993,
      "v": 111
    },
    {
      "midi": 67,
      "hit": false,
      "t": 110588.17999999976,
      "d": 294.117499999993,
      "v": 95
    },
    {
      "midi": 70,
      "hit": false,
      "t": 110588.17999999976,
      "d": 294.117499999993,
      "v": 95
    },
    {
      "midi": 51,
      "hit": false,
      "t": 110882.29749999975,
      "d": 294.117499999993,
      "v": 127
    },
    {
      "midi": 67,
      "hit": false,
      "t": 110882.29749999975,
      "d": 294.117499999993,
      "v": 95
    },
    {
      "midi": 70,
      "hit": false,
      "t": 110882.29749999975,
      "d": 294.117499999993,
      "v": 95
    },
    {
      "midi": 50,
      "hit": false,
      "t": 111176.41499999975,
      "d": 294.117499999993,
      "v": 127
    },
    {
      "midi": 67,
      "hit": false,
      "t": 111176.41499999975,
      "d": 294.117499999993,
      "v": 111
    },
    {
      "midi": 70,
      "hit": false,
      "t": 111176.41499999975,
      "d": 294.117499999993,
      "v": 111
    },
    {
      "midi": 67,
      "hit": false,
      "t": 111470.53249999974,
      "d": 294.117499999993,
      "v": 95
    },
    {
      "midi": 70,
      "hit": false,
      "t": 111470.53249999974,
      "d": 294.117499999993,
      "v": 95
    },
    {
      "midi": 50,
      "hit": false,
      "t": 111764.64999999973,
      "d": 294.117499999993,
      "v": 127
    },
    {
      "midi": 67,
      "hit": false,
      "t": 111764.64999999973,
      "d": 294.117499999993,
      "v": 95
    },
    {
      "midi": 70,
      "hit": false,
      "t": 111764.64999999973,
      "d": 294.117499999993,
      "v": 95
    },
    {
      "midi": 53,
      "hit": false,
      "t": 112058.76749999973,
      "d": 294.117499999993,
      "v": 127
    },
    {
      "midi": 67,
      "hit": false,
      "t": 112058.76749999973,
      "d": 294.117499999993,
      "v": 111
    },
    {
      "midi": 70,
      "hit": false,
      "t": 112058.76749999973,
      "d": 294.117499999993,
      "v": 111
    },
    {
      "midi": 50,
      "hit": false,
      "t": 112352.88499999972,
      "d": 294.117499999993,
      "v": 127
    },
    {
      "midi": 67,
      "hit": false,
      "t": 112352.88499999972,
      "d": 294.117499999993,
      "v": 95
    },
    {
      "midi": 70,
      "hit": false,
      "t": 112352.88499999972,
      "d": 294.117499999993,
      "v": 95
    },
    {
      "midi": 53,
      "hit": false,
      "t": 112647.00249999971,
      "d": 294.117499999993,
      "v": 127
    },
    {
      "midi": 67,
      "hit": false,
      "t": 112647.00249999971,
      "d": 294.117499999993,
      "v": 95
    },
    {
      "midi": 70,
      "hit": false,
      "t": 112647.00249999971,
      "d": 294.117499999993,
      "v": 95
    },
    {
      "midi": 55,
      "hit": false,
      "t": 112941.1199999997,
      "d": 294.117499999993,
      "v": 127
    },
    {
      "midi": 67,
      "hit": false,
      "t": 112941.1199999997,
      "d": 294.117499999993,
      "v": 111
    },
    {
      "midi": 70,
      "hit": false,
      "t": 112941.1199999997,
      "d": 294.117499999993,
      "v": 111
    },
    {
      "midi": 67,
      "hit": false,
      "t": 113235.2374999997,
      "d": 294.117499999993,
      "v": 95
    },
    {
      "midi": 70,
      "hit": false,
      "t": 113235.2374999997,
      "d": 294.117499999993,
      "v": 95
    },
    {
      "midi": 67,
      "hit": false,
      "t": 113529.35499999969,
      "d": 294.117499999993,
      "v": 95
    },
    {
      "midi": 70,
      "hit": false,
      "t": 113529.35499999969,
      "d": 294.117499999993,
      "v": 95
    },
    {
      "midi": 67,
      "hit": false,
      "t": 113823.47249999968,
      "d": 294.117499999993,
      "v": 111
    },
    {
      "midi": 70,
      "hit": false,
      "t": 113823.47249999968,
      "d": 294.117499999993,
      "v": 111
    },
    {
      "midi": 67,
      "hit": false,
      "t": 114117.58999999968,
      "d": 294.117499999993,
      "v": 95
    },
    {
      "midi": 70,
      "hit": false,
      "t": 114117.58999999968,
      "d": 294.117499999993,
      "v": 95
    },
    {
      "midi": 55,
      "hit": false,
      "t": 114411.70749999967,
      "d": 294.117499999993,
      "v": 127
    },
    {
      "midi": 67,
      "hit": false,
      "t": 114411.70749999967,
      "d": 294.117499999993,
      "v": 95
    },
    {
      "midi": 70,
      "hit": false,
      "t": 114411.70749999967,
      "d": 294.117499999993,
      "v": 95
    },
    {
      "midi": 53,
      "hit": false,
      "t": 114705.82499999966,
      "d": 294.117499999993,
      "v": 127
    },
    {
      "midi": 67,
      "hit": false,
      "t": 114705.82499999966,
      "d": 294.117499999993,
      "v": 111
    },
    {
      "midi": 70,
      "hit": false,
      "t": 114705.82499999966,
      "d": 294.117499999993,
      "v": 111
    },
    {
      "midi": 67,
      "hit": false,
      "t": 114999.94249999966,
      "d": 294.117499999993,
      "v": 95
    },
    {
      "midi": 70,
      "hit": false,
      "t": 114999.94249999966,
      "d": 294.117499999993,
      "v": 95
    },
    {
      "midi": 67,
      "hit": false,
      "t": 115294.05999999965,
      "d": 294.117499999993,
      "v": 95
    },
    {
      "midi": 70,
      "hit": false,
      "t": 115294.05999999965,
      "d": 294.117499999993,
      "v": 95
    },
    {
      "midi": 67,
      "hit": false,
      "t": 115588.17749999964,
      "d": 294.117499999993,
      "v": 111
    },
    {
      "midi": 70,
      "hit": false,
      "t": 115588.17749999964,
      "d": 294.117499999993,
      "v": 111
    },
    {
      "midi": 67,
      "hit": false,
      "t": 115882.29499999963,
      "d": 294.117499999993,
      "v": 95
    },
    {
      "midi": 70,
      "hit": false,
      "t": 115882.29499999963,
      "d": 294.117499999993,
      "v": 95
    },
    {
      "midi": 53,
      "hit": false,
      "t": 116176.41249999963,
      "d": 294.117499999993,
      "v": 127
    },
    {
      "midi": 67,
      "hit": false,
      "t": 116176.41249999963,
      "d": 294.117499999993,
      "v": 95
    },
    {
      "midi": 70,
      "hit": false,
      "t": 116176.41249999963,
      "d": 294.117499999993,
      "v": 95
    },
    {
      "midi": 51,
      "hit": false,
      "t": 116470.52999999962,
      "d": 294.117499999993,
      "v": 127
    },
    {
      "midi": 67,
      "hit": false,
      "t": 116470.52999999962,
      "d": 294.117499999993,
      "v": 111
    },
    {
      "midi": 70,
      "hit": false,
      "t": 116470.52999999962,
      "d": 294.117499999993,
      "v": 111
    },
    {
      "midi": 67,
      "hit": false,
      "t": 116764.64749999961,
      "d": 294.117499999993,
      "v": 95
    },
    {
      "midi": 70,
      "hit": false,
      "t": 116764.64749999961,
      "d": 294.117499999993,
      "v": 95
    },
    {
      "midi": 67,
      "hit": false,
      "t": 117058.7649999996,
      "d": 294.117499999993,
      "v": 95
    },
    {
      "midi": 70,
      "hit": false,
      "t": 117058.7649999996,
      "d": 294.117499999993,
      "v": 95
    },
    {
      "midi": 67,
      "hit": false,
      "t": 117352.8824999996,
      "d": 294.117499999993,
      "v": 111
    },
    {
      "midi": 70,
      "hit": false,
      "t": 117352.8824999996,
      "d": 294.117499999993,
      "v": 111
    },
    {
      "midi": 67,
      "hit": false,
      "t": 117646.99999999959,
      "d": 294.117499999993,
      "v": 95
    },
    {
      "midi": 70,
      "hit": false,
      "t": 117646.99999999959,
      "d": 294.117499999993,
      "v": 95
    },
    {
      "midi": 51,
      "hit": false,
      "t": 117941.11749999959,
      "d": 294.117499999993,
      "v": 127
    },
    {
      "midi": 67,
      "hit": false,
      "t": 117941.11749999959,
      "d": 294.117499999993,
      "v": 95
    },
    {
      "midi": 70,
      "hit": false,
      "t": 117941.11749999959,
      "d": 294.117499999993,
      "v": 95
    },
    {
      "midi": 50,
      "hit": false,
      "t": 118235.23499999958,
      "d": 294.117499999993,
      "v": 127
    },
    {
      "midi": 67,
      "hit": false,
      "t": 118235.23499999958,
      "d": 294.117499999993,
      "v": 111
    },
    {
      "midi": 70,
      "hit": false,
      "t": 118235.23499999958,
      "d": 294.117499999993,
      "v": 111
    },
    {
      "midi": 67,
      "hit": false,
      "t": 118529.35249999957,
      "d": 294.117499999993,
      "v": 95
    },
    {
      "midi": 70,
      "hit": false,
      "t": 118529.35249999957,
      "d": 294.117499999993,
      "v": 95
    },
    {
      "midi": 50,
      "hit": false,
      "t": 118823.46999999956,
      "d": 294.117499999993,
      "v": 127
    },
    {
      "midi": 67,
      "hit": false,
      "t": 118823.46999999956,
      "d": 294.117499999993,
      "v": 95
    },
    {
      "midi": 70,
      "hit": false,
      "t": 118823.46999999956,
      "d": 294.117499999993,
      "v": 95
    },
    {
      "midi": 53,
      "hit": false,
      "t": 119117.58749999956,
      "d": 294.117499999993,
      "v": 127
    },
    {
      "midi": 67,
      "hit": false,
      "t": 119117.58749999956,
      "d": 294.117499999993,
      "v": 111
    },
    {
      "midi": 70,
      "hit": false,
      "t": 119117.58749999956,
      "d": 294.117499999993,
      "v": 111
    },
    {
      "midi": 50,
      "hit": false,
      "t": 119411.70499999955,
      "d": 294.117499999993,
      "v": 127
    },
    {
      "midi": 67,
      "hit": false,
      "t": 119411.70499999955,
      "d": 294.117499999993,
      "v": 95
    },
    {
      "midi": 70,
      "hit": false,
      "t": 119411.70499999955,
      "d": 294.117499999993,
      "v": 95
    },
    {
      "midi": 53,
      "hit": false,
      "t": 119705.82249999954,
      "d": 294.117499999993,
      "v": 127
    },
    {
      "midi": 67,
      "hit": false,
      "t": 119705.82249999954,
      "d": 294.117499999993,
      "v": 95
    },
    {
      "midi": 70,
      "hit": false,
      "t": 119705.82249999954,
      "d": 294.117499999993,
      "v": 95
    },
    {
      "midi": 55,
      "hit": false,
      "t": 119999.93999999954,
      "d": 294.117499999993,
      "v": 127
    },
    {
      "midi": 67,
      "hit": false,
      "t": 119999.93999999954,
      "d": 294.117499999993,
      "v": 111
    },
    {
      "midi": 70,
      "hit": false,
      "t": 119999.93999999954,
      "d": 294.117499999993,
      "v": 111
    },
    {
      "midi": 67,
      "hit": false,
      "t": 120294.05749999953,
      "d": 294.117499999993,
      "v": 95
    },
    {
      "midi": 70,
      "hit": false,
      "t": 120294.05749999953,
      "d": 294.117499999993,
      "v": 95
    },
    {
      "midi": 67,
      "hit": false,
      "t": 120588.17499999952,
      "d": 294.117499999993,
      "v": 95
    },
    {
      "midi": 70,
      "hit": false,
      "t": 120588.17499999952,
      "d": 294.117499999993,
      "v": 95
    },
    {
      "midi": 67,
      "hit": false,
      "t": 120882.29249999952,
      "d": 294.117499999993,
      "v": 111
    },
    {
      "midi": 70,
      "hit": false,
      "t": 120882.29249999952,
      "d": 294.117499999993,
      "v": 111
    },
    {
      "midi": 67,
      "hit": false,
      "t": 121176.40999999951,
      "d": 294.117499999993,
      "v": 95
    },
    {
      "midi": 70,
      "hit": false,
      "t": 121176.40999999951,
      "d": 294.117499999993,
      "v": 95
    },
    {
      "midi": 55,
      "hit": false,
      "t": 121470.5274999995,
      "d": 294.117499999993,
      "v": 127
    },
    {
      "midi": 67,
      "hit": false,
      "t": 121470.5274999995,
      "d": 294.117499999993,
      "v": 95
    },
    {
      "midi": 70,
      "hit": false,
      "t": 121470.5274999995,
      "d": 294.117499999993,
      "v": 95
    },
    {
      "midi": 53,
      "hit": false,
      "t": 121764.6449999995,
      "d": 294.117499999993,
      "v": 127
    },
    {
      "midi": 67,
      "hit": false,
      "t": 121764.6449999995,
      "d": 294.117499999993,
      "v": 111
    },
    {
      "midi": 70,
      "hit": false,
      "t": 121764.6449999995,
      "d": 294.117499999993,
      "v": 111
    },
    {
      "midi": 67,
      "hit": false,
      "t": 122058.76249999949,
      "d": 294.117499999993,
      "v": 95
    },
    {
      "midi": 70,
      "hit": false,
      "t": 122058.76249999949,
      "d": 294.117499999993,
      "v": 95
    },
    {
      "midi": 67,
      "hit": false,
      "t": 122352.87999999948,
      "d": 294.117499999993,
      "v": 95
    },
    {
      "midi": 70,
      "hit": false,
      "t": 122352.87999999948,
      "d": 294.117499999993,
      "v": 95
    },
    {
      "midi": 67,
      "hit": false,
      "t": 122646.99749999947,
      "d": 294.117499999993,
      "v": 111
    },
    {
      "midi": 70,
      "hit": false,
      "t": 122646.99749999947,
      "d": 294.117499999993,
      "v": 111
    },
    {
      "midi": 67,
      "hit": false,
      "t": 122941.11499999947,
      "d": 294.117499999993,
      "v": 95
    },
    {
      "midi": 70,
      "hit": false,
      "t": 122941.11499999947,
      "d": 294.117499999993,
      "v": 95
    },
    {
      "midi": 53,
      "hit": false,
      "t": 123235.23249999946,
      "d": 294.117499999993,
      "v": 127
    },
    {
      "midi": 67,
      "hit": false,
      "t": 123235.23249999946,
      "d": 294.117499999993,
      "v": 95
    },
    {
      "midi": 70,
      "hit": false,
      "t": 123235.23249999946,
      "d": 294.117499999993,
      "v": 95
    },
    {
      "midi": 51,
      "hit": false,
      "t": 123529.34999999945,
      "d": 294.117499999993,
      "v": 127
    },
    {
      "midi": 67,
      "hit": false,
      "t": 123529.34999999945,
      "d": 294.117499999993,
      "v": 111
    },
    {
      "midi": 70,
      "hit": false,
      "t": 123529.34999999945,
      "d": 294.117499999993,
      "v": 111
    },
    {
      "midi": 67,
      "hit": false,
      "t": 123823.46749999945,
      "d": 294.117499999993,
      "v": 95
    },
    {
      "midi": 70,
      "hit": false,
      "t": 123823.46749999945,
      "d": 294.117499999993,
      "v": 95
    },
    {
      "midi": 67,
      "hit": false,
      "t": 124117.58499999944,
      "d": 294.117499999993,
      "v": 95
    },
    {
      "midi": 70,
      "hit": false,
      "t": 124117.58499999944,
      "d": 294.117499999993,
      "v": 95
    },
    {
      "midi": 67,
      "hit": false,
      "t": 124411.70249999943,
      "d": 294.117499999993,
      "v": 111
    },
    {
      "midi": 70,
      "hit": false,
      "t": 124411.70249999943,
      "d": 294.117499999993,
      "v": 111
    },
    {
      "midi": 67,
      "hit": false,
      "t": 124705.81999999942,
      "d": 294.117499999993,
      "v": 95
    },
    {
      "midi": 70,
      "hit": false,
      "t": 124705.81999999942,
      "d": 294.117499999993,
      "v": 95
    },
    {
      "midi": 51,
      "hit": false,
      "t": 124999.93749999942,
      "d": 294.117499999993,
      "v": 127
    },
    {
      "midi": 67,
      "hit": false,
      "t": 124999.93749999942,
      "d": 294.117499999993,
      "v": 95
    },
    {
      "midi": 70,
      "hit": false,
      "t": 124999.93749999942,
      "d": 294.117499999993,
      "v": 95
    },
    {
      "midi": 50,
      "hit": false,
      "t": 125294.05499999941,
      "d": 294.117499999993,
      "v": 127
    },
    {
      "midi": 67,
      "hit": false,
      "t": 125294.05499999941,
      "d": 294.117499999993,
      "v": 111
    },
    {
      "midi": 70,
      "hit": false,
      "t": 125294.05499999941,
      "d": 294.117499999993,
      "v": 111
    },
    {
      "midi": 67,
      "hit": false,
      "t": 125588.1724999994,
      "d": 294.117499999993,
      "v": 95
    },
    {
      "midi": 70,
      "hit": false,
      "t": 125588.1724999994,
      "d": 294.117499999993,
      "v": 95
    },
    {
      "midi": 50,
      "hit": false,
      "t": 125882.2899999994,
      "d": 294.117499999993,
      "v": 127
    },
    {
      "midi": 67,
      "hit": false,
      "t": 125882.2899999994,
      "d": 294.117499999993,
      "v": 95
    },
    {
      "midi": 70,
      "hit": false,
      "t": 125882.2899999994,
      "d": 294.117499999993,
      "v": 95
    },
    {
      "midi": 53,
      "hit": false,
      "t": 126176.40749999939,
      "d": 294.117499999993,
      "v": 127
    },
    {
      "midi": 67,
      "hit": false,
      "t": 126176.40749999939,
      "d": 294.117499999993,
      "v": 111
    },
    {
      "midi": 70,
      "hit": false,
      "t": 126176.40749999939,
      "d": 294.117499999993,
      "v": 111
    },
    {
      "midi": 50,
      "hit": false,
      "t": 126470.52499999938,
      "d": 294.117499999993,
      "v": 127
    },
    {
      "midi": 67,
      "hit": false,
      "t": 126470.52499999938,
      "d": 294.117499999993,
      "v": 95
    },
    {
      "midi": 70,
      "hit": false,
      "t": 126470.52499999938,
      "d": 294.117499999993,
      "v": 95
    },
    {
      "midi": 53,
      "hit": false,
      "t": 126764.64249999938,
      "d": 294.117499999993,
      "v": 127
    },
    {
      "midi": 67,
      "hit": false,
      "t": 126764.64249999938,
      "d": 294.117499999993,
      "v": 95
    },
    {
      "midi": 70,
      "hit": false,
      "t": 126764.64249999938,
      "d": 294.117499999993,
      "v": 95
    },
    {
      "midi": 55,
      "hit": false,
      "t": 127058.75999999937,
      "d": 294.117499999993,
      "v": 127
    },
    {
      "midi": 67,
      "hit": false,
      "t": 127058.75999999937,
      "d": 294.117499999993,
      "v": 111
    },
    {
      "midi": 79,
      "hit": false,
      "t": 127058.75999999937,
      "d": 294.117499999993,
      "v": 95
    },
    {
      "midi": 67,
      "hit": false,
      "t": 127352.87749999936,
      "d": 294.117499999993,
      "v": 95
    },
    {
      "midi": 79,
      "hit": false,
      "t": 127352.87749999936,
      "d": 294.117499999993,
      "v": 95
    },
    {
      "midi": 67,
      "hit": false,
      "t": 127646.99499999936,
      "d": 294.117499999993,
      "v": 95
    },
    {
      "midi": 79,
      "hit": false,
      "t": 127646.99499999936,
      "d": 294.117499999993,
      "v": 95
    },
    {
      "midi": 67,
      "hit": false,
      "t": 127941.11249999935,
      "d": 294.117499999993,
      "v": 111
    },
    {
      "midi": 79,
      "hit": false,
      "t": 127941.11249999935,
      "d": 294.117499999993,
      "v": 95
    },
    {
      "midi": 67,
      "hit": false,
      "t": 128235.22999999934,
      "d": 294.117499999993,
      "v": 95
    },
    {
      "midi": 79,
      "hit": false,
      "t": 128235.22999999934,
      "d": 294.117499999993,
      "v": 95
    },
    {
      "midi": 55,
      "hit": false,
      "t": 128529.34749999933,
      "d": 294.117499999993,
      "v": 127
    },
    {
      "midi": 67,
      "hit": false,
      "t": 128529.34749999933,
      "d": 294.117499999993,
      "v": 95
    },
    {
      "midi": 79,
      "hit": false,
      "t": 128529.34749999933,
      "d": 294.117499999993,
      "v": 95
    },
    {
      "midi": 53,
      "hit": false,
      "t": 128823.46499999933,
      "d": 294.117499999993,
      "v": 127
    },
    {
      "midi": 67,
      "hit": false,
      "t": 128823.46499999933,
      "d": 294.117499999993,
      "v": 111
    },
    {
      "midi": 77,
      "hit": false,
      "t": 128823.46499999933,
      "d": 294.117499999993,
      "v": 95
    },
    {
      "midi": 67,
      "hit": false,
      "t": 129117.58249999932,
      "d": 294.117499999993,
      "v": 95
    },
    {
      "midi": 77,
      "hit": false,
      "t": 129117.58249999932,
      "d": 294.117499999993,
      "v": 95
    },
    {
      "midi": 67,
      "hit": false,
      "t": 129411.69999999931,
      "d": 294.117499999993,
      "v": 95
    },
    {
      "midi": 77,
      "hit": false,
      "t": 129411.69999999931,
      "d": 294.117499999993,
      "v": 95
    },
    {
      "midi": 67,
      "hit": false,
      "t": 129705.8174999993,
      "d": 294.117499999993,
      "v": 111
    },
    {
      "midi": 77,
      "hit": false,
      "t": 129705.8174999993,
      "d": 294.117499999993,
      "v": 95
    },
    {
      "midi": 67,
      "hit": false,
      "t": 129999.9349999993,
      "d": 294.117499999993,
      "v": 95
    },
    {
      "midi": 77,
      "hit": false,
      "t": 129999.9349999993,
      "d": 294.117499999993,
      "v": 95
    },
    {
      "midi": 53,
      "hit": false,
      "t": 130294.05249999929,
      "d": 294.117499999993,
      "v": 127
    },
    {
      "midi": 67,
      "hit": false,
      "t": 130294.05249999929,
      "d": 294.117499999993,
      "v": 95
    },
    {
      "midi": 77,
      "hit": false,
      "t": 130294.05249999929,
      "d": 294.117499999993,
      "v": 95
    },
    {
      "midi": 52,
      "hit": false,
      "t": 130588.16999999929,
      "d": 294.117499999993,
      "v": 127
    },
    {
      "midi": 67,
      "hit": false,
      "t": 130588.16999999929,
      "d": 294.117499999993,
      "v": 111
    },
    {
      "midi": 76,
      "hit": false,
      "t": 130588.16999999929,
      "d": 294.117499999993,
      "v": 95
    },
    {
      "midi": 67,
      "hit": false,
      "t": 130882.28749999928,
      "d": 294.117499999993,
      "v": 95
    },
    {
      "midi": 76,
      "hit": false,
      "t": 130882.28749999928,
      "d": 294.117499999993,
      "v": 95
    },
    {
      "midi": 67,
      "hit": false,
      "t": 131176.40499999927,
      "d": 294.117499999993,
      "v": 95
    },
    {
      "midi": 76,
      "hit": false,
      "t": 131176.40499999927,
      "d": 294.117499999993,
      "v": 95
    },
    {
      "midi": 67,
      "hit": false,
      "t": 131470.52249999926,
      "d": 294.117499999993,
      "v": 111
    },
    {
      "midi": 76,
      "hit": false,
      "t": 131470.52249999926,
      "d": 294.117499999993,
      "v": 95
    },
    {
      "midi": 67,
      "hit": false,
      "t": 131764.63999999926,
      "d": 294.117499999993,
      "v": 95
    },
    {
      "midi": 76,
      "hit": false,
      "t": 131764.63999999926,
      "d": 294.117499999993,
      "v": 95
    },
    {
      "midi": 52,
      "hit": false,
      "t": 132058.75749999925,
      "d": 294.117499999993,
      "v": 127
    },
    {
      "midi": 67,
      "hit": false,
      "t": 132058.75749999925,
      "d": 294.117499999993,
      "v": 95
    },
    {
      "midi": 76,
      "hit": false,
      "t": 132058.75749999925,
      "d": 294.117499999993,
      "v": 95
    },
    {
      "midi": 51,
      "hit": false,
      "t": 132352.87499999924,
      "d": 294.117499999993,
      "v": 127
    },
    {
      "midi": 67,
      "hit": false,
      "t": 132352.87499999924,
      "d": 294.117499999993,
      "v": 111
    },
    {
      "midi": 75,
      "hit": false,
      "t": 132352.87499999924,
      "d": 294.117499999993,
      "v": 95
    },
    {
      "midi": 67,
      "hit": false,
      "t": 132646.99249999924,
      "d": 294.117499999993,
      "v": 95
    },
    {
      "midi": 75,
      "hit": false,
      "t": 132646.99249999924,
      "d": 294.117499999993,
      "v": 95
    },
    {
      "midi": 67,
      "hit": false,
      "t": 132941.10999999923,
      "d": 294.117499999993,
      "v": 95
    },
    {
      "midi": 75,
      "hit": false,
      "t": 132941.10999999923,
      "d": 294.117499999993,
      "v": 95
    },
    {
      "midi": 67,
      "hit": false,
      "t": 133235.22749999922,
      "d": 294.117499999993,
      "v": 111
    },
    {
      "midi": 75,
      "hit": false,
      "t": 133235.22749999922,
      "d": 294.117499999993,
      "v": 95
    },
    {
      "midi": 67,
      "hit": false,
      "t": 133529.34499999922,
      "d": 294.117499999993,
      "v": 95
    },
    {
      "midi": 75,
      "hit": false,
      "t": 133529.34499999922,
      "d": 294.117499999993,
      "v": 95
    },
    {
      "midi": 51,
      "hit": false,
      "t": 133823.4624999992,
      "d": 294.117499999993,
      "v": 127
    },
    {
      "midi": 67,
      "hit": false,
      "t": 133823.4624999992,
      "d": 294.117499999993,
      "v": 95
    },
    {
      "midi": 75,
      "hit": false,
      "t": 133823.4624999992,
      "d": 294.117499999993,
      "v": 95
    },
    {
      "midi": 50,
      "hit": false,
      "t": 134117.5799999992,
      "d": 294.117499999993,
      "v": 127
    },
    {
      "midi": 67,
      "hit": false,
      "t": 134117.5799999992,
      "d": 294.117499999993,
      "v": 111
    },
    {
      "midi": 74,
      "hit": false,
      "t": 134117.5799999992,
      "d": 294.117499999993,
      "v": 95
    },
    {
      "midi": 67,
      "hit": false,
      "t": 134411.6974999992,
      "d": 294.117499999993,
      "v": 95
    },
    {
      "midi": 74,
      "hit": false,
      "t": 134411.6974999992,
      "d": 294.117499999993,
      "v": 95
    },
    {
      "midi": 67,
      "hit": false,
      "t": 134705.8149999992,
      "d": 294.117499999993,
      "v": 95
    },
    {
      "midi": 74,
      "hit": false,
      "t": 134705.8149999992,
      "d": 294.117499999993,
      "v": 95
    },
    {
      "midi": 67,
      "hit": false,
      "t": 134999.93249999918,
      "d": 294.117499999993,
      "v": 111
    },
    {
      "midi": 74,
      "hit": false,
      "t": 134999.93249999918,
      "d": 294.117499999993,
      "v": 95
    },
    {
      "midi": 67,
      "hit": false,
      "t": 135294.04999999917,
      "d": 294.117499999993,
      "v": 95
    },
    {
      "midi": 74,
      "hit": false,
      "t": 135294.04999999917,
      "d": 294.117499999993,
      "v": 95
    },
    {
      "midi": 50,
      "hit": false,
      "t": 135588.16749999917,
      "d": 294.117499999993,
      "v": 127
    },
    {
      "midi": 67,
      "hit": false,
      "t": 135588.16749999917,
      "d": 294.117499999993,
      "v": 95
    },
    {
      "midi": 74,
      "hit": false,
      "t": 135588.16749999917,
      "d": 294.117499999993,
      "v": 95
    },
    {
      "midi": 48,
      "hit": false,
      "t": 135882.28499999916,
      "d": 294.117499999993,
      "v": 127
    },
    {
      "midi": 67,
      "hit": false,
      "t": 135882.28499999916,
      "d": 294.117499999993,
      "v": 111
    },
    {
      "midi": 72,
      "hit": false,
      "t": 135882.28499999916,
      "d": 294.117499999993,
      "v": 95
    },
    {
      "midi": 67,
      "hit": false,
      "t": 136176.40249999915,
      "d": 294.117499999993,
      "v": 95
    },
    {
      "midi": 72,
      "hit": false,
      "t": 136176.40249999915,
      "d": 294.117499999993,
      "v": 95
    },
    {
      "midi": 67,
      "hit": false,
      "t": 136470.51999999915,
      "d": 294.117499999993,
      "v": 95
    },
    {
      "midi": 72,
      "hit": false,
      "t": 136470.51999999915,
      "d": 294.117499999993,
      "v": 95
    },
    {
      "midi": 67,
      "hit": false,
      "t": 136764.63749999914,
      "d": 294.117499999993,
      "v": 111
    },
    {
      "midi": 72,
      "hit": false,
      "t": 136764.63749999914,
      "d": 294.117499999993,
      "v": 95
    },
    {
      "midi": 67,
      "hit": false,
      "t": 137058.75499999913,
      "d": 294.117499999993,
      "v": 95
    },
    {
      "midi": 72,
      "hit": false,
      "t": 137058.75499999913,
      "d": 294.117499999993,
      "v": 95
    },
    {
      "midi": 48,
      "hit": false,
      "t": 137352.87249999912,
      "d": 294.117499999993,
      "v": 127
    },
    {
      "midi": 67,
      "hit": false,
      "t": 137352.87249999912,
      "d": 294.117499999993,
      "v": 95
    },
    {
      "midi": 72,
      "hit": false,
      "t": 137352.87249999912,
      "d": 294.117499999993,
      "v": 95
    },
    {
      "midi": 46,
      "hit": false,
      "t": 137646.98999999912,
      "d": 294.117499999993,
      "v": 127
    },
    {
      "midi": 67,
      "hit": false,
      "t": 137646.98999999912,
      "d": 294.117499999993,
      "v": 95
    },
    {
      "midi": 70,
      "hit": false,
      "t": 137646.98999999912,
      "d": 294.117499999993,
      "v": 95
    },
    {
      "midi": 67,
      "hit": false,
      "t": 137941.1074999991,
      "d": 294.117499999993,
      "v": 95
    },
    {
      "midi": 70,
      "hit": false,
      "t": 137941.1074999991,
      "d": 294.117499999993,
      "v": 95
    },
    {
      "midi": 67,
      "hit": false,
      "t": 138235.2249999991,
      "d": 294.117499999993,
      "v": 95
    },
    {
      "midi": 70,
      "hit": false,
      "t": 138235.2249999991,
      "d": 294.117499999993,
      "v": 95
    },
    {
      "midi": 67,
      "hit": false,
      "t": 138529.3424999991,
      "d": 294.117499999993,
      "v": 95
    },
    {
      "midi": 70,
      "hit": false,
      "t": 138529.3424999991,
      "d": 294.117499999993,
      "v": 95
    },
    {
      "midi": 67,
      "hit": false,
      "t": 138823.4599999991,
      "d": 294.117499999993,
      "v": 95
    },
    {
      "midi": 70,
      "hit": false,
      "t": 138823.4599999991,
      "d": 294.117499999993,
      "v": 95
    },
    {
      "midi": 46,
      "hit": false,
      "t": 139117.57749999908,
      "d": 294.117499999993,
      "v": 127
    },
    {
      "midi": 67,
      "hit": false,
      "t": 139117.57749999908,
      "d": 294.117499999993,
      "v": 95
    },
    {
      "midi": 70,
      "hit": false,
      "t": 139117.57749999908,
      "d": 294.117499999993,
      "v": 95
    },
    {
      "midi": 45,
      "hit": false,
      "t": 139411.69499999908,
      "d": 294.117499999993,
      "v": 127
    },
    {
      "midi": 67,
      "hit": false,
      "t": 139411.69499999908,
      "d": 294.117499999993,
      "v": 95
    },
    {
      "midi": 70,
      "hit": false,
      "t": 139411.69499999908,
      "d": 294.117499999993,
      "v": 95
    },
    {
      "midi": 67,
      "hit": false,
      "t": 139705.81249999907,
      "d": 294.117499999993,
      "v": 95
    },
    {
      "midi": 70,
      "hit": false,
      "t": 139705.81249999907,
      "d": 294.117499999993,
      "v": 95
    },
    {
      "midi": 67,
      "hit": false,
      "t": 139999.92999999906,
      "d": 294.117499999993,
      "v": 95
    },
    {
      "midi": 70,
      "hit": false,
      "t": 139999.92999999906,
      "d": 294.117499999993,
      "v": 95
    },
    {
      "midi": 67,
      "hit": false,
      "t": 140294.04749999905,
      "d": 294.117499999993,
      "v": 95
    },
    {
      "midi": 70,
      "hit": false,
      "t": 140294.04749999905,
      "d": 294.117499999993,
      "v": 95
    },
    {
      "midi": 67,
      "hit": false,
      "t": 140588.16499999905,
      "d": 294.117499999993,
      "v": 95
    },
    {
      "midi": 70,
      "hit": false,
      "t": 140588.16499999905,
      "d": 294.117499999993,
      "v": 95
    },
    {
      "midi": 45,
      "hit": false,
      "t": 140882.28249999904,
      "d": 294.117499999993,
      "v": 95
    },
    {
      "midi": 67,
      "hit": false,
      "t": 140882.28249999904,
      "d": 294.117499999993,
      "v": 95
    },
    {
      "midi": 70,
      "hit": false,
      "t": 140882.28249999904,
      "d": 294.117499999993,
      "v": 95
    },
    {
      "midi": 48,
      "hit": false,
      "t": 141176.39999999903,
      "d": 294.117499999993,
      "v": 127
    },
    {
      "midi": 67,
      "hit": false,
      "t": 141176.39999999903,
      "d": 294.117499999993,
      "v": 95
    },
    {
      "midi": 72,
      "hit": false,
      "t": 141176.39999999903,
      "d": 294.117499999993,
      "v": 95
    },
    {
      "midi": 45,
      "hit": false,
      "t": 141470.51749999903,
      "d": 294.117499999993,
      "v": 95
    },
    {
      "midi": 67,
      "hit": false,
      "t": 141470.51749999903,
      "d": 294.117499999993,
      "v": 95
    },
    {
      "midi": 70,
      "hit": false,
      "t": 141470.51749999903,
      "d": 294.117499999993,
      "v": 95
    },
    {
      "midi": 45,
      "hit": false,
      "t": 141764.63499999902,
      "d": 294.117499999993,
      "v": 95
    },
    {
      "midi": 67,
      "hit": false,
      "t": 141764.63499999902,
      "d": 294.117499999993,
      "v": 95
    },
    {
      "midi": 70,
      "hit": false,
      "t": 141764.63499999902,
      "d": 294.117499999993,
      "v": 95
    },
    {
      "midi": 48,
      "hit": false,
      "t": 142058.752499999,
      "d": 294.117499999993,
      "v": 95
    },
    {
      "midi": 67,
      "hit": false,
      "t": 142058.752499999,
      "d": 294.117499999993,
      "v": 95
    },
    {
      "midi": 72,
      "hit": false,
      "t": 142058.752499999,
      "d": 294.117499999993,
      "v": 95
    },
    {
      "midi": 45,
      "hit": false,
      "t": 142352.869999999,
      "d": 294.117499999993,
      "v": 127
    },
    {
      "midi": 67,
      "hit": false,
      "t": 142352.869999999,
      "d": 294.117499999993,
      "v": 127
    },
    {
      "midi": 70,
      "hit": false,
      "t": 142352.869999999,
      "d": 294.117499999993,
      "v": 127
    },
    {
      "midi": 49,
      "hit": false,
      "t": 142646.987499999,
      "d": 294.117499999993,
      "v": 127
    },
    {
      "midi": 67,
      "hit": false,
      "t": 142646.987499999,
      "d": 294.117499999993,
      "v": 127
    },
    {
      "midi": 73,
      "hit": false,
      "t": 142646.987499999,
      "d": 294.117499999993,
      "v": 127
    },
    {
      "midi": 50,
      "hit": false,
      "t": 142941.104999999,
      "d": 1764.7049999999872,
      "v": 127
    },
    {
      "midi": 67,
      "hit": false,
      "t": 142941.104999999,
      "d": 1764.7049999999872,
      "v": 127
    },
    {
      "midi": 74,
      "hit": false,
      "t": 142941.104999999,
      "d": 1764.7049999999872,
      "v": 127
    }
  ]
}